<?xml version="1.0" encoding="UTF-8" standalone="no"?>
<svg
   xmlns:dc="http://purl.org/dc/elements/1.1/"
   xmlns:cc="http://creativecommons.org/ns#"
   xmlns:rdf="http://www.w3.org/1999/02/22-rdf-syntax-ns#"
   xmlns:svg="http://www.w3.org/2000/svg"
   xmlns="http://www.w3.org/2000/svg"
   id="svg2"
   version="1.0"
   width="600"
   height="660">

  <metadata
     id="metadata49">
    <rdf:RDF>
      <cc:Work
         rdf:about="">
        <dc:format>image/svg+xml</dc:format>
        <dc:type
           rdf:resource="http://purl.org/dc/dcmitype/StillImage" />
        <dc:title></dc:title>
        <dc:date>28-JAN-2008</dc:date>
        <dc:creator>
          <cc:Agent>
            <dc:title>Damien de Paysac (d2paysac)</dc:title>
          </cc:Agent>
        </dc:creator>
        <cc:license
           rdf:resource="http://web.resource.org/cc/PublicDomain" />
        <dc:language>fr</dc:language>
        <dc:subject>
          <rdf:Bag>
            <rdf:li>conforme au gabarit modèle blason projet wikipédia</rdf:li>
          </rdf:Bag>
        </dc:subject>
        <dc:rights>
          <cc:Agent>
            <dc:title>GFDL+Creative Commons</dc:title>
          </cc:Agent>
        </dc:rights>
        <dc:description>lévrier rampant d’argent, colleté d’un collier d'azur, bordé, bouclé et cloué d’or</dc:description>
        <dc:contributor>
          <cc:Agent>
            <dc:title />
          </cc:Agent>
        </dc:contributor>
        <dc:source>d'après Massimop</dc:source>
      </cc:Work>
      <cc:License
         rdf:about="http://web.resource.org/cc/PublicDomain">
        <cc:permits
           rdf:resource="http://web.resource.org/cc/Reproduction" />
        <cc:permits
           rdf:resource="http://web.resource.org/cc/Distribution" />
        <cc:permits
           rdf:resource="http://web.resource.org/cc/DerivativeWorks" />
      </cc:License>
    </rdf:RDF>
  </metadata>
  <desc
     id="desc4">Flag of Canton of Valais (Wallis)</desc>
  <g
     style="display:inline"
     id="layer4">
    <g
       transform="matrix(1.2211703,0,0,1.2438102,-243.15768,-27.533504)"
       id="g11293">
      <g
         id="g10136">
        <g
           style="fill:#ff0000"
           id="g2248"
           stroke-width="3"
           stroke="#999999"
           fill="#ff00000">
          <path
             style="fill:#ff0000"
             id="path9772"
             d="m 375.55647,426.54252 c -9.44622,-3.72191 -20.36352,1.44432 -14.77461,18.94565 7.62007,3.41309 9.93537,2.13585 19.74087,1.2574 6.29566,-23.95565 -0.7458,-16.99654 18.00271,-18.80006 7.2166,-20.62395 20.79625,-35.63594 20.79625,-35.63594 0,0 -10.24292,-28.62099 9.93252,-39.28371 23.90015,-6.73434 8.53356,12.14781 43.14442,-1.68358 10.25528,-21.50854 10.84244,-45.64187 -22.34818,-46.01806 -53.13265,4.32728 -45.47723,44.927 -47.17953,89.79133 -19.55467,25.81501 -7.6253,16.91001 -27.31445,31.42697 z" />
          <path
             style="fill:#ff0000"
             id="path24359"
             d="m 474.67935,329.38697 c -0.6136,-12.43649 -14.84807,-27.22584 -32.29664,-27.00885 1.47161,2.2346 18.66174,5.59156 26.33688,21.04283 -2.53127,8.11206 1.89314,11.84457 5.95976,5.96602 z" />
          <path
             style="fill:#ff0000"
             id="path15596"
             d="m 448.49848,79.06111 c 0,0 -4.73344,-4.84032 5.89747,-12.34631 -21.33941,-13.95975 -23.27941,10.38212 -23.27941,10.38212" />
          <path
             style="fill:#ff0000"
             id="path12685"
             d="m 411.56189,200.94179 c 0,0 -30.72877,-24.13143 -41.90286,-23.00904 -19.55467,6.17316 -24.52094,6.73436 -36.62621,8.13735 -9.00135,7.29554 -17.76992,9.75077 -21.10662,23.00902 -1.45318,7.01547 3.72469,8.41794 9.00134,13.18811 7.13901,-21.88664 1.86236,-3.08657 17.38194,-29.18218 16.14036,-0.2806 12.10527,-1.68359 28.55603,-2.24479 12.10527,12.34631 33.2119,26.6568 33.2119,26.6568" />
          <path
             style="fill:#ff0000"
             id="path11714"
             d="m 511.19753,361.7244 c 52.13511,-4.43236 79.40387,-88.11032 23.58983,-101.01525 49.0419,39.5643 8.07013,93.4391 -23.58983,83.05698" />
          <path
             style="fill:#ff0000"
             id="path8801"
             d="m 379.59156,103.85491 c 37.86776,-8.41794 30.41836,-15.71349 44.38599,-28.62099 23.27938,0 2.17273,-1.12239 23.58977,0 33.21195,34.23295 27.94509,30.93387 29.79761,66.50171 2.47276,39.76473 -3.10394,61.52109 -8.69098,80.5316 28.86636,40.05536 36.93649,92.31672 44.69634,138.05418 -9.00131,9.54033 -7.44934,22.72843 -19.86499,46.01806 2.79355,22.44784 9.62221,26.37621 15.51959,31.98817 -4.03512,24.13142 -3.87993,35.21503 -5.58709,48.82403 -16.60596,-1.54329 -37.34773,3.20166 -36.00543,-4.77016 9.41255,-18.91515 19.07602,-8.47875 28.21029,-7.97297 12.1359,-38.16033 -10.79299,-27.43877 -15.79458,-69.19146 -24.55242,-27.56185 -9.62217,-50.78822 -6.20787,-54.99719 17.92486,-59.91618 -69.83811,-47.70166 -76.97711,-112.23918 5.58704,-42.08969 20.17545,-43.21207 26.07289,-50.50762 31.03915,-15.71348 10.86369,-57.52258 23.58975,-61.73155 -8.51501,-0.26544 -25.90168,0.96365 -22.85777,-8.74909 -6.72879,5.36843 -16.87636,1.81104 -14.36213,-2.55442 21.99579,-13.88077 26.02106,-14.94103 -4.99334,1.76319 -13.8192,0.0199 -27.93525,-1.68359 -24.52094,-12.34631 z" />
          <path
             style="fill:#ff0000"
             id="path10743"
             d="m 425.21911,218.61946 c -25.06411,15.71348 0.53551,23.68755 -48.42108,23.57022 -9.53685,1.00507 -36.50911,18.35919 -50.90422,51.91062 0,0 -8.45816,2.31493 -8.38057,23.00903 10.9413,-0.63135 1.31917,8.06719 17.38193,4.77016 1.78475,-7.78659 1.24156,-51.27927 42.83403,-66.7823 31.03916,-5.96271 6.13024,3.36717 61.45754,-0.8418 10.32052,-19.92245 16.14036,-16.27468 16.14036,-16.27468" />
          <path
             style="fill:#ff0000"
             id="path13656"
             d="m 461.22455,99.08474 c 0,0 -3.49186,-17.46722 18.93393,-3.92837 -10.16532,-41.73894 -31.0392,-7.01495 -31.0392,-7.01495" />
        </g>
        <g
           id="g2269"
           stroke-width="3"
           fill="none"
           stroke="#999999">
          <path
             id="path22403"
             d="m 408.14198,217.35263 c -0.15462,7.21421 -10.11503,8.25383 -5.19978,23.00663" />
          <path
             id="path26307"
             d="m 403.47093,256.78078 c 7.54086,1.07115 20.57542,0.64999 37.40302,-0.90674 5.47502,-11.33494 13.98087,-17.95729 14.27719,-16.35003" />
          <path
             id="path22401"
             d="m 463.70768,113.95643 c 13.50206,39.84491 2.01754,88.38835 -1.86235,97.64808" />
          <path
             id="path21430"
             d="m 431.31977,97.673198 c -1.18585,2.004599 -0.48486,3.599002 1.56805,5.322322 3.00544,-0.52067 -1.01504,-3.123984 8.03629,-1.04133 -1.76406,-5.380176 -14.30851,-5.842982 -9.60434,-4.280992 z" />
          <path
             id="path22405"
             d="m 467.02994,224.79261 c -1.95667,3.81451 -2.65366,7.32571 -4.61962,14.48404 15.54498,5.38487 30.73658,60.13908 33.69539,87.92837 9.32421,14.32193 8.46404,20.16778 9.10231,31.7134" />
          <path
             id="path22407"
             d="m 447.5673,228.58068 c -27.78006,28.90159 -15.67473,12.34632 -33.52227,19.36126" />
          <path
             id="path24347"
             d="m 455.94789,320.7571 c 4.03508,3.92837 1.86235,10.10153 2.48314,13.4687" />
          <path
             id="path24349"
             d="m 445.99458,319.35411 c -0.31041,8.97913 4.65587,7.29555 0.62078,16.55528" />
          <path
             id="path24351"
             d="m 427.53621,321.73919 c -3.41433,12.6269 4.96626,2.80598 2.48314,15.15229" />
          <path
             id="path24353"
             d="m 437.77913,322.86159 c 0.93117,8.97913 0.62078,4.48957 0.93118,15.15229" />
          <path
             id="path24355"
             d="m 420.3972,334.08551 c -1.86236,10.66271 -8.38057,3.92837 -5.58704,17.95827" />
          <path
             id="path24357"
             d="m 467.88711,339.41687 c -5.27667,1.12239 -4.03509,9.54033 -23.27936,4.77016" />
          <path
             id="path26299"
             d="m 493.17411,353.02587 c 2.48316,8.97913 2.48316,18.51947 -0.93118,29.18218" />
          <path
             id="path26301"
             d="m 475.48177,358.07663 c -2.79354,6.17315 -3.72472,24.13143 2.48315,28.05979" />
          <path
             id="path26303"
             d="m 406.88523,386.69762 c -0.31039,3.64777 0,5.89256 1.55197,10.94332" />
          <path
             id="path26305"
             d="m 403.16054,402.4111 c -0.62079,1.54329 -0.93117,1.96419 -0.31038,5.33136" />
          <path
             id="path28247"
             d="m 364.72542,434.67986 c -3.10393,9.54032 3.41431,9.25973 14.8988,8.13735" />
          <path
             id="path29218"
             d="m 476.1988,476.63568 c -3.10394,9.54032 -0.3104,5.05076 6.82866,6.45376" />
          <path
             d="m 381.87341,105.02522 c -0.74368,3.36824 2.50164,0.93774 2.44727,3.84263"
             id="path30283" />
          <path
             d="m 418.32932,255.2546 c 3.59861,19.8482 11.86818,-0.69525 56.46043,59.32935"
             id="path2838" />
        </g>
        <g
           transform="translate(0.30579188,3.0774115)"
           style="display:inline;fill:#ffff00"
           id="collared">
          <path
             id="path20459"
             d="m 480.51378,150.69186 c 0.12843,7.07017 -0.81138,10.05166 -1.13228,16.98587 -18.66537,0.78306 -25.06274,0.29762 -39.95849,-3.73419 0.89388,-7.7609 0.54122,-8.48446 0.60542,-14.33095 20.48577,2.22951 22.36878,2.85354 40.48535,1.07927 z"
             style="display:inline;fill:#ffff00;fill-opacity:1;fill-rule:evenodd;stroke:#999999;stroke-width:2.1035;stroke-linecap:butt;stroke-linejoin:miter;stroke-miterlimit:4;stroke-dasharray:none;stroke-opacity:1" />
          <path
             id="path19486"
             d="m 482.43864,144.21679 c 0.15609,4.66354 0.70188,1.70398 0.31195,6.27783 -16.92138,1.88336 -30.72363,0.53811 -44.29197,-0.89683 -1.09169,-4.66353 -0.078,-2.42144 0,-6.27783 25.967,1.88335 23.54961,1.25557 43.98002,0.89683 z"
             style="fill:#ffff00;fill-opacity:1;fill-rule:evenodd;stroke:#999999;stroke-width:2.1035;stroke-linecap:butt;stroke-linejoin:miter;stroke-miterlimit:4;stroke-dasharray:none;stroke-opacity:1" />
          <path
             id="path20457"
             d="m 482.31066,166.94452 c 0.15597,4.67115 -0.23141,3.30402 -0.62112,7.88534 -20.02897,0.51735 -32.27715,-1.00586 -45.8434,-4.04039 1.08554,-5.12751 0.23614,-3.8469 0.3141,-7.70958 15.07765,4.62458 26.0341,5.59303 46.15042,3.86463 z"
             style="display:inline;fill:#ffff00;fill-opacity:1;fill-rule:evenodd;stroke:#999999;stroke-width:2.1035;stroke-linecap:butt;stroke-linejoin:miter;stroke-miterlimit:4;stroke-dasharray:none;stroke-opacity:1" />
          <path
             id="rect19484"
             d="m 444.98044,-183.41801 h 6.02866 v 5.97692 h -6.02866 z"
             style="color:#000000;display:inline;overflow:visible;visibility:visible;fill:#ffff00;fill-opacity:1;fill-rule:nonzero;stroke:#999999;stroke-width:1.49616;stroke-linecap:butt;stroke-linejoin:miter;stroke-miterlimit:4;stroke-dasharray:none;stroke-dashoffset:0;stroke-opacity:1;marker:none;marker-start:none;marker-mid:none;marker-end:none;enable-background:accumulate"
             transform="matrix(0.7696377,0.6384808,-0.7123884,0.7017854,0,0)" />
          <path
             id="rect19482"
             d="m 435.76727,-174.63618 h 6.02867 v 5.97692 h -6.02867 z"
             style="color:#000000;display:inline;overflow:visible;visibility:visible;fill:#ffff00;fill-opacity:1;fill-rule:nonzero;stroke:#999999;stroke-width:1.49616;stroke-linecap:butt;stroke-linejoin:miter;stroke-miterlimit:4;stroke-dasharray:none;stroke-dashoffset:0;stroke-opacity:1;marker:none;marker-start:none;marker-mid:none;marker-end:none;enable-background:accumulate"
             transform="matrix(0.7696377,0.6384808,-0.7123884,0.7017854,0,0)" />
          <path
             id="rect18511"
             d="m 424.96503,-168.00694 h 6.02866 v 5.97692 h -6.02866 z"
             style="color:#000000;display:inline;overflow:visible;visibility:visible;fill:#ffff00;fill-opacity:1;fill-rule:nonzero;stroke:#999999;stroke-width:1.49616;stroke-linecap:butt;stroke-linejoin:miter;stroke-miterlimit:4;stroke-dasharray:none;stroke-dashoffset:0;stroke-opacity:1;marker:none;marker-start:none;marker-mid:none;marker-end:none;enable-background:accumulate"
             transform="matrix(0.7696377,0.6384808,-0.7123884,0.7017854,0,0)" />
          <path
             id="path7179"
             d="m 428.97264,145.79642 c -5.21863,0 -9.45961,4.22346 -9.45961,9.44209 0,5.21863 4.24098,9.45961 9.45961,9.45961 5.21863,0 9.45961,-4.24097 9.45961,-9.45961 0,-5.21863 -4.24098,-9.44209 -9.45961,-9.44209 z m 0,5.04512 c 2.36802,0 4.29186,1.96756 4.29186,4.39697 0,2.42941 -1.92384,4.39697 -4.29186,4.39697 -2.36802,0 -4.29186,-1.96756 -4.29186,-4.39697 10e-6,-2.42941 1.92384,-4.39697 4.29186,-4.39697 z"
             style="color:#000000;display:inline;overflow:visible;visibility:visible;opacity:1;fill:#ffff00;fill-opacity:1;fill-rule:nonzero;stroke:#999999;stroke-width:1.5;stroke-linecap:butt;stroke-linejoin:miter;stroke-miterlimit:4;stroke-dasharray:none;stroke-dashoffset:0;stroke-opacity:1;marker:none;marker-start:none;marker-mid:none;marker-end:none;enable-background:accumulate" />
          <path
             style="opacity:0.5;fill:#999999;fill-opacity:1;fill-rule:evenodd;stroke:#999999;stroke-width:2.1035;stroke-linecap:butt;stroke-linejoin:miter;stroke-miterlimit:4;stroke-dasharray:none;stroke-opacity:1"
             d="m 482.43864,144.21679 c 0.15609,4.66354 0.70188,1.70398 0.31195,6.27783 -16.92138,1.88336 -30.72363,0.53811 -44.29197,-0.89683 -1.09169,-4.66353 -0.078,-2.42144 0,-6.27783 25.967,1.88335 23.54961,1.25557 43.98002,0.89683 z"
             id="path1595" />
          <path
             style="display:inline;opacity:0.5;fill:#999999;fill-opacity:1;fill-rule:evenodd;stroke:#999999;stroke-width:2.1035;stroke-linecap:butt;stroke-linejoin:miter;stroke-miterlimit:4;stroke-dasharray:none;stroke-opacity:1"
             d="m 482.31066,166.94452 c 0.15597,4.67115 -0.23141,3.30402 -0.62112,7.88534 -20.02897,0.51735 -32.27715,-1.00586 -45.8434,-4.04039 1.08554,-5.12751 0.23614,-3.8469 0.3141,-7.70958 15.07765,4.62458 26.0341,5.59303 46.15042,3.86463 z"
             id="path1597" />
          <path
             transform="matrix(0.7696377,0.6384808,-0.7123884,0.7017854,0,0)"
             style="color:#000000;display:inline;overflow:visible;visibility:visible;opacity:0.5;fill:#999999;fill-opacity:1;fill-rule:nonzero;stroke:#999999;stroke-width:1.49616;stroke-linecap:butt;stroke-linejoin:miter;stroke-miterlimit:4;stroke-dasharray:none;stroke-dashoffset:0;stroke-opacity:1;marker:none;marker-start:none;marker-mid:none;marker-end:none;enable-background:accumulate"
             d="m 444.98044,-183.41801 h 6.02866 v 5.97692 h -6.02866 z"
             id="path1599" />
          <path
             transform="matrix(0.7696377,0.6384808,-0.7123884,0.7017854,0,0)"
             style="color:#000000;display:inline;overflow:visible;visibility:visible;opacity:0.5;fill:#999999;fill-opacity:1;fill-rule:nonzero;stroke:#999999;stroke-width:1.49616;stroke-linecap:butt;stroke-linejoin:miter;stroke-miterlimit:4;stroke-dasharray:none;stroke-dashoffset:0;stroke-opacity:1;marker:none;marker-start:none;marker-mid:none;marker-end:none;enable-background:accumulate"
             d="m 435.76727,-174.63618 h 6.02867 v 5.97692 h -6.02867 z"
             id="path1601" />
          <path
             transform="matrix(0.7696377,0.6384808,-0.7123884,0.7017854,0,0)"
             style="color:#000000;display:inline;overflow:visible;visibility:visible;opacity:0.5;fill:#999999;fill-opacity:1;fill-rule:nonzero;stroke:#999999;stroke-width:1.49616;stroke-linecap:butt;stroke-linejoin:miter;stroke-miterlimit:4;stroke-dasharray:none;stroke-dashoffset:0;stroke-opacity:1;marker:none;marker-start:none;marker-mid:none;marker-end:none;enable-background:accumulate"
             d="m 424.96503,-168.00694 h 6.02866 v 5.97692 h -6.02866 z"
             id="path1603" />
        </g>
      </g>
    </g>
  </g>
</svg>
