<?xml version="1.0" encoding="UTF-8" standalone="no"?>
<svg
   xmlns:dc="http://purl.org/dc/elements/1.1/"
   xmlns:cc="http://creativecommons.org/ns#"
   xmlns:rdf="http://www.w3.org/1999/02/22-rdf-syntax-ns#"
   xmlns:svg="http://www.w3.org/2000/svg"
   xmlns="http://www.w3.org/2000/svg"
   version="1"
   width="367"
   height="110"
   id="svg2">
  <metadata
     id="metadata51">
    <rdf:RDF>
      <cc:Work
         rdf:about="">
        <dc:format>
          
          image/svg+xml
        
        </dc:format>
        <dc:type
           rdf:resource="http://purl.org/dc/dcmitype/StillImage" />
        <dc:title></dc:title>
        <dc:creator>
          <cc:Agent>
            <dc:title>http://www.caplex.no/Web/ImageView.aspx?ID=10001249</dc:title>
          </cc:Agent>
        </dc:creator>
      </cc:Work>
    </rdf:RDF>
  </metadata>
  <defs
     id="defs4" />
  <path
     id="path4384"
     d="m 100.02,95.634 c -2.662,3.01 -6.502,6.446 -8.982,8.706 -1.49,1.36 -0.81,5.88 0.61,5.09 l 14.882,-8.32 c 3.66,-2.036 17.98,0.62 25.62,-0.1 8.37,-0.76 34.59,-2.016 45.97,-2.166 12.17,-0.17 25.85,-0.87 34.65,-3.63 1.84,-0.57 9.7,3.79 12.12,4.816 8.77,3.76 16.01,2.15 23.95,1.67 1.75,0 0.85,-1.65 -1.87,-2.586 -2.47,-0.86 -0.77,-3.14 -2.63,-3.41 -2.03,-0.3 -6.57,-0.86 -5.95,-3.13 0.6,-2.22 -6.7,4.1 -9.77,3.21 -1.56,-0.46 -8.66,-4.6 -7.56,-5.12 4.81,-2.32 10.11,-3.97 10.11,-3.97 0.19,0.26 33.62,10.87 46,16.176 1.15,-2.83 0.14,-9.666 -2.44,-11.116 1.58,-2.32 -3.88,-10.29 -6.7,-11.22 0.58,-2.26 -4.91,-9.67 -8.34,-10.25 0.46,-2.19 -4.53,-6.91 -7.37,-6.44 -0.33,-2.5 -2.98,-4.79 -4.62,-4.18 -1.95,0.73 -13.83,7.24 -18.84,8.2 -4.03,0.77 -12.93,-2.25 -17.8,-4.06 16.46,-18.265 34.39,-32.977 50.57,-42.556 31.94,19.792 63,46.166 103.23,74.486 1.79,1.26 2.6,0.1 1.64,-1.29 -15.59,-32.87 -49.16,-64.136 -81.05,-89.3704 l -45.33,-1.676 c -17.28,8.6024 -41.68,22.6284 -65.15,38.1174 -16.44,-13.464 -31.8,-26.893 -47.48,-36.9874 -8.06,-5.18599 -27.48,-4.84899 -32.002,-2.069 -26.782,16.4704 -84.801,73.3654 -94.2161,91.1654 -1.35002,2.55 -0.94402,3.34 1.525,1.87 36.1201,-21.42 109.7031,-68.241 109.7031,-68.241 8.39,6.282 20.8,18.095 35.45,33.961 l -3.44,3.97 c -19.82,5.82 -27.28,10.91 -32.66,14.97 -5.38,4.07 -9.76,13.11 -11.83,15.45 z"
     style="fill:#ffff00;fill-rule:evenodd;stroke:#808080;stroke-width:1;stroke-linecap:round;stroke-linejoin:round;stroke-miterlimit:4;stroke-dasharray:none;stroke-opacity:1" />
  <path
     id="path4386"
     d="m 91.648,109.43 16.492,-13.686 4.55,0.13"
     style="fill:none;fill-rule:evenodd;stroke:#808080;stroke-width:1;stroke-linecap:round;stroke-linejoin:round;stroke-miterlimit:4;stroke-dasharray:none;stroke-opacity:1" />
  <path
     id="path4388"
     d="m 115.98,89.024 c 1.35,-1.36 3.9,-1.79 6.28,-1.58"
     style="fill:none;fill-rule:evenodd;stroke:#808080;stroke-width:1;stroke-linecap:round;stroke-linejoin:miter;stroke-miterlimit:4;stroke-dasharray:none;stroke-opacity:1" />
  <circle
     r="1.0942"
     cy="89.024"
     cx="118.99"
     id="circle4390"
     style="opacity:1;fill:#000000;fill-opacity:1;fill-rule:evenodd;stroke:#808080;stroke-width:1;stroke-linecap:round;stroke-linejoin:round;stroke-miterlimit:4;stroke-dasharray:none;stroke-opacity:1" />
  <path
     id="path4392"
     d="m 144.51,65.214 -5.15,4.96"
     style="fill:none;fill-rule:evenodd;stroke:#808080;stroke-width:1;stroke-linecap:round;stroke-linejoin:miter;stroke-miterlimit:4;stroke-dasharray:none;stroke-opacity:1" />
  <path
     id="path4394"
     d="m 147.95,61.244 c 8.06,-7.72 23.78,-16.91 27.02,-19.699"
     style="fill:none;fill-rule:evenodd;stroke:#808080;stroke-width:1;stroke-linecap:butt;stroke-linejoin:miter;stroke-miterlimit:4;stroke-dasharray:none;stroke-opacity:1" />
  <path
     id="path4396"
     d="m 160.63,77.464 c 18.46,-23.27 44.72,-41.988 77.27,-64.044 h 10.87 l 12.86,7.858"
     style="fill:none;fill-rule:evenodd;stroke:#808080;stroke-width:1;stroke-linecap:round;stroke-linejoin:round;stroke-miterlimit:4;stroke-dasharray:none;stroke-opacity:1" />
  <path
     id="path4398"
     d="m 211.06,63.834 -11.8,14.23 -14.48,5.28 -14.49,-5.28"
     style="fill:none;fill-rule:evenodd;stroke:#808080;stroke-width:1;stroke-linecap:round;stroke-linejoin:round;stroke-miterlimit:4;stroke-dasharray:none;stroke-opacity:1" />
  <path
     id="path4400"
     d="m 240.16,63.874 c 11.61,6.33 13.75,21.06 10.87,29.59"
     style="fill:none;fill-rule:evenodd;stroke:#808080;stroke-width:1;stroke-linecap:butt;stroke-linejoin:miter;stroke-miterlimit:4;stroke-dasharray:none;stroke-opacity:1" />
  <path
     id="path4402"
     d="m 274.73,91.784 -22.49,-4.51"
     style="fill:none;fill-rule:evenodd;stroke:#808080;stroke-width:1;stroke-linecap:butt;stroke-linejoin:miter;stroke-miterlimit:4;stroke-dasharray:none;stroke-opacity:1" />
  <path
     id="path4404"
     d="m 268.03,80.564 -16.09,0.37"
     style="fill:none;fill-rule:evenodd;stroke:#808080;stroke-width:1;stroke-linecap:butt;stroke-linejoin:miter;stroke-miterlimit:4;stroke-dasharray:none;stroke-opacity:1" />
  <path
     id="path4406"
     d="m 259.69,70.314 -10.32,3.68"
     style="fill:none;fill-rule:evenodd;stroke:#808080;stroke-width:1;stroke-linecap:butt;stroke-linejoin:miter;stroke-miterlimit:4;stroke-dasharray:none;stroke-opacity:1" />
  <path
     id="path4408"
     d="m 252.32,63.874 -7.63,3.93"
     style="fill:none;fill-rule:evenodd;stroke:#808080;stroke-width:1;stroke-linecap:butt;stroke-linejoin:miter;stroke-miterlimit:4;stroke-dasharray:none;stroke-opacity:1" />
  <path
     id="path4410"
     d="m 5.5009,91.064 c 28.9561,-29.71 48.7711,-51.304 84.1671,-75.384 1.77,-1.207 6.07,-0.83 7.39,0.151 l 15.442,11.452"
     style="fill:none;fill-rule:evenodd;stroke:#808080;stroke-width:1;stroke-linecap:round;stroke-linejoin:miter;stroke-miterlimit:4;stroke-dasharray:none;stroke-opacity:1" />
</svg>
