<?xml version="1.0" encoding="UTF-8" standalone="no"?>
<svg
   xmlns:dc="http://purl.org/dc/elements/1.1/"
   xmlns:cc="http://creativecommons.org/ns#"
   xmlns:rdf="http://www.w3.org/1999/02/22-rdf-syntax-ns#"
   xmlns:svg="http://www.w3.org/2000/svg"
   xmlns="http://www.w3.org/2000/svg"
   version="1.1"
   id="Layer_3"
   x="0px"
   y="0px"
   viewBox="0 0 1000 1000"
   style="enable-background:new 0 0 1000 1000;"
   xml:space="preserve"><metadata
   id="metadata2217"><rdf:RDF><cc:Work
       rdf:about=""><dc:format>image/svg+xml</dc:format><dc:type
         rdf:resource="http://purl.org/dc/dcmitype/StillImage" /><dc:title></dc:title><dc:creator><cc:Agent><dc:title>https://bakadesign.dk/warhammer-40-000-icons/</dc:title></cc:Agent></dc:creator></cc:Work></rdf:RDF></metadata><defs
   id="defs2215" />
<g
   id="g2210"
   style="fill:#ffff00">
	<path
   d="M467.99,370.34c-0.83-0.04-1.7,0.94-1.66,1.85c0.04,0.91,1.02,1.81,2,1.81c0.79,0,1.74-0.98,1.77-1.81   C470.14,371.36,469.01,370.34,467.99,370.34z"
   id="path2206"
   style="fill:#ffff00" />
	<path
   d="M969,7.41H62.41v59.03H77.1c-0.15,1.39-0.25,2.79-0.25,4.22c0,20.18,15.77,36.64,35.65,37.83   c-0.62,9.79-0.96,19.67-0.96,29.63c0,195.5,120.76,360.66,286.47,414.04v9.74h-5.75c-11.58,0-20.97,9.39-20.97,20.97v29.75   c0,11.58,9.39,20.97,20.97,20.97h5.75v130.24c0,38.69-31.37,70.06-70.06,70.06H119.71V992h788.52V833.87H699.98   c-38.69,0-70.06-31.37-70.06-70.06V633.58h5.02c11.58,0,20.97-9.39,20.97-20.97v-29.75c0-11.58-9.39-20.97-20.97-20.97h-5.02v-9.98   c165.32-53.63,285.73-218.58,285.73-413.8c0-10.11-0.35-20.13-0.99-30.07c2.02,0.33,4.09,0.55,6.21,0.55   c20.96,0,37.95-16.99,37.95-37.95c0-1.43-0.09-2.83-0.25-4.22H969V7.41z M588.6,161.45c1.67,0.4,3.34,0.72,5.02,1.11   c2.87,0.72,5.73,1.59,8.6,2.39c2.39,0.72,3.1,1.83,2.79,4.3c-0.08,0.56-0.24,1.04-0.4,1.51c-2.31,5.41-6.05,9.95-9.55,15.21   c-1.67-3.5-2.47-6.69-3.1-9.87c-0.32-1.83-0.32-1.83-2.23-2.07c-4.86-0.64-9.79-1.27-15.05-1.91c0.48-0.64,0.8-1.04,1.11-1.35   c3.34-2.87,6.77-5.65,9.95-8.52C586.61,161.53,587.49,161.21,588.6,161.45z M537.97,148.95c0.16-1.03,0.4-2.07,0.56-3.03   c1.91-0.48,41.95,2.63,48.48,3.66c0.16,2.47,0.4,4.94,0.4,7.48c0,0.32-0.56,0.96-1.04,1.11c-0.96,0.4-1.99,0.4-3.03,0.72   c-3.5,1.03-6.13,3.18-8.44,5.97c-1.99,2.39-3.5,5.02-4.7,7.88c-1.59,3.82-3.58,5.17-8.12,5.73c-0.48-2.79-1.03-5.57-1.35-8.36   c-0.24-2.47-1.03-4.78-2.55-6.77c-1.75-2.23-3.5-4.46-5.49-6.45c-2.55-2.63-5.57-4.46-9.31-4.94c-1.43-0.16-2.79-0.64-4.14-0.96   C538.21,150.7,537.81,150.07,537.97,148.95z M523.17,174.66c6.45-4.46,12.9-8.92,19.34-13.37c1.35-0.96,2.63-1.99,4.22-3.18   c0.8,0.56,1.75,1.04,2.55,1.67c4.14,3.66,6.77,8.12,7.72,13.53c0.4,2.07-0.24,3.82-1.67,5.33c-2.87,3.03-5.73,6.05-8.6,9.16   c-3.98,4.38-7.96,8.68-11.94,13.06c-0.4,0.4-0.8,0.8-1.43,1.35c-0.32-0.56-0.64-1.04-0.8-1.43c-3.34-7.32-6.61-14.65-9.95-21.97   c-0.08-0.32-0.24-0.72-0.4-1.04C521.49,175.94,521.57,175.78,523.17,174.66z M513.14,175.14c-0.32,2.31-9.55,26.11-11.22,28.74   c-1.35-0.96-20.06-23.33-22.13-26.43c1.83-6.77,7.96-14.33,14.25-17.51c0.8,0.64,1.83,1.19,2.87,1.91c5.33,4.3,10.67,8.68,16,12.98   C512.98,174.9,513.06,175.06,513.14,175.14z M445.23,155.24c1.43-3.03,2.95-6.05,4.38-9.08c0.48-1.03,1.11-1.43,2.23-1.35   c4.3,0.32,8.52,0.56,12.74,0.8c8.28,0.56,16.48,0.96,24.76,1.51c3.18,0.24,6.37,0.56,9.55,0.8c0.72,3.26,0.32,4.46-2.55,5.17   c-9.47,2.47-14.49,9.55-18.55,17.75c-0.48,0.96-0.88,1.91-1.27,2.87c0,0.16-0.16,0.24-0.56,0.32   c-10.43-5.89-20.7-11.78-31.05-17.67C445.07,155.96,445.07,155.56,445.23,155.24z M445.55,162.17c0.64-0.32,1.27-0.72,2.07-0.24   c3.82,2.15,7.72,4.14,11.94,6.37c-0.96,0.56-1.59,0.88-2.23,1.19c-3.34,1.59-6.69,3.26-10.11,4.78c-3.42,1.51-5.17,3.74-4.7,7.64   c0.16,1.43,0,2.87,0,4.54c-0.4-0.32-0.72-0.56-0.96-0.8c-3.42-3.66-6.85-7.4-10.27-11.15c-0.32-0.24-0.56-0.56-0.8-0.8   c-2.23-2.47-1.99-3.58,1.04-5.17C436.23,166.39,440.85,164.32,445.55,162.17z M423.66,280.78c-0.4,1.91-1.35,3.5-2.95,4.62   c-8.52,6.05-17.04,12.1-25.55,18.15c-0.16,0.08-0.32,0.16-0.64,0.24c0.16-0.64,0.24-1.19,0.4-1.75   c7.01-20.94,14.01-41.87,21.02-62.81c0.32-0.96,0.56-1.99,0.8-2.95c-2.63-1.75-4.22-1.35-5.49,1.19c-1.03,2.07-1.91,4.14-2.87,6.29   c-8.28,18.95-16.48,37.89-24.76,56.84c-0.56,1.43-1.11,2.79-1.83,4.38c-1.35-0.08-2.79-0.08-4.14-0.24   c-8.2-1.11-16.4-2.39-24.6-3.58c-0.08-0.08-0.24-0.16-0.48-0.24c-0.16-1.27,0.64-2.23,1.19-3.18c5.09-8.84,10.27-17.67,15.44-26.51   c7.88-13.45,15.68-26.91,23.48-40.44c0.56-0.88,0.88-1.83,1.27-2.79c-1.67-0.56-2.15,0.48-2.79,1.27   c-4.38,5.57-8.76,11.22-13.06,16.8c-12.58,16.24-25.08,32.48-37.65,48.72c-0.08,0.08-0.16,0.24-0.24,0.32   c-1.43,1.91-1.51,1.91-3.58,0.64c-7.8-4.94-15.6-9.95-23.64-15.05c0.56-0.56,1.04-1.19,1.59-1.75   c10.43-10.91,20.94-21.81,31.37-32.64c10.83-11.22,21.73-22.45,32.56-33.67c0.4-0.48,0.8-0.96,1.27-1.51   c-0.48-0.64-0.96-1.27-1.51-2.07c-13.29,10.59-26.43,21.18-39.65,31.6c-13.29,10.43-26.11,21.41-39.57,31.45   c-9.39-8.04-18.55-15.84-27.94-23.8c1.19-1.35,2.63-1.99,3.98-2.71c5.25-2.79,10.59-5.49,15.84-8.36   c24.2-12.98,48.32-26.03,72.52-39.01c2.47-1.35,5.02-2.55,7.48-3.98c1.99-1.19,2.07-1.75,1.75-4.3c-0.72,0.24-1.43,0.48-2.07,0.72   c-36.78,14.33-73.48,28.74-110.26,43.07c-1.03,0.4-2.07,0.72-3.1,1.19c-1.99,0.96-3.66,0.48-5.17-1.11   c-0.72-0.72-1.43-1.43-2.15-2.07c-8.04-7.24-16.16-14.49-24.2-21.65c-0.4-0.32-0.96-0.64-1.83-1.19c1.51-0.48,2.39-0.8,3.18-1.04   c3.66-1.19,7.48-1.99,11.07-3.42c2.63-1.03,5.41-1.59,8.12-2.39c1.04-0.32,2.07-0.8,3.1-1.03c2.39-0.56,4.78-0.96,7.16-1.59   c3.18-0.8,6.29-1.75,9.47-2.55c1.99-0.48,4.06-0.96,6.05-1.43c0.32-0.08,0.56-0.08,0.88-0.16c5.49-1.59,10.99-3.18,16.56-4.7   c6.05-1.67,12.1-3.18,18.15-4.86c14.73-4.06,29.46-8.2,44.18-12.26c6.53-1.83,13.06-3.58,19.58-5.41c0.64-0.24,1.35-0.32,1.91-0.72   c0.48-0.32,0.88-0.96,1.35-1.43c-0.08-0.24-0.16-0.4-0.24-0.56c-0.72,0.08-1.35,0.08-2.07,0.24   c-29.06,5.33-58.11,10.75-87.17,16.08c-23.4,4.3-46.81,8.68-70.21,12.98c-0.4,0.08-0.8,0.16-1.11,0.32   c-2.63,0.88-4.54-0.16-6.29-2.07c-3.9-4.14-7.8-8.28-11.7-12.34c-3.58-3.74-7.24-7.48-10.91-11.22c-0.32-0.4-0.64-0.8-1.19-1.51   c64.48-5.57,128.73-10.67,192.89-16.4c0.56-1.51,0.96-2.79,1.43-4.22c-0.48,0-0.96,0-1.43,0c-10.59,0.48-21.18,1.03-31.76,1.51   c-8.04,0.4-16,0.72-23.96,1.11c-11.62,0.56-23.25,1.11-34.87,1.67c-6.69,0.32-13.45,0.64-20.14,0.96   c-13.14,0.56-26.35,1.19-39.57,1.83c-11.07,0.48-22.05,0.96-33.12,1.43c-4.94,0.24-9.79,0.48-14.73,0.88   c-3.34,0.24-5.41-1.27-7.32-4.46c-3.03-4.94-6.77-9.39-11.07-13.37c-1.19-1.11-1.99-2.71-3.03-3.98c-1.67-2.07-3.42-4.14-5.09-6.21   c-0.32-0.4-0.56-0.8-0.88-1.19c0.16-0.24,0.16-0.32,0.24-0.56c1.75-0.08,3.5-0.32,5.25-0.32c15.84-0.24,31.68-0.4,47.45-0.56   c13.69-0.16,27.31-0.32,41-0.48c7.24-0.08,14.49-0.24,21.73-0.32c13.77-0.24,27.62-0.4,41.4-0.64c7.09-0.16,14.17-0.24,21.26-0.32   c13.53-0.16,27.15-0.4,40.6-0.56c7.48-0.16,14.89-0.16,22.37-0.4c11.78-0.4,23.56-0.32,35.35-0.64c0.88,0,1.75,0,2.79,0v11.94   c-4.54,1.59-8.76,3.9-12.66,6.61c-1.43,1.03-2.71,2.31-3.9,3.66c-3.34,3.74-6.61,7.48-9.79,11.38c-1.27,1.51-2.23,3.26-3.26,5.02   c-0.56,0.96-0.96,1.99-1.43,3.03c-4.22,8.68-3.74,17.43-0.4,26.19c0.96,2.39,2.47,4.62,4.14,6.61   c5.57,6.85,12.82,10.51,21.73,10.83c3.98,0.16,7.88-0.32,11.78-0.8c8.68-1.03,16.72-4.3,24.76-7.32c5.17-1.91,13.77-5.89,18.95-7.8   l2.39,3.1c3.26,3.42,15.13,14.97,15.6,16.88c0.16,0.88,0,1.75-0.4,2.79c-9,22.85-17.91,45.7-26.83,68.54   c-0.32,0.72-0.64,1.43-1.03,2.39c-0.64-0.4-1.11-0.64-1.59-0.96c-6.45-3.98-12.9-8.04-19.34-12.1c-3.42-2.15-3.58-2.63-1.27-6.13   c4.54-6.85,9.15-13.61,13.77-20.46c3.58-5.25,7.09-10.59,10.59-15.84c0.96-1.43,1.75-2.87,2.47-4.3c0.32-0.56,0.48-1.11,0.64-1.75   c0.16-0.8,0.08-1.67-0.4-2.39c-1.83-2.71-5.65,0-5.89,2.55c0,0.16-0.08,0.4,0,0.64c0.64,2.95-0.56,5.33-2.23,7.64   c-2.31,3.26-4.38,6.69-6.53,9.95c-0.48,0.72-1.11,1.27-1.91,2.23c-0.24-0.96-0.32-1.35-0.48-1.83c-0.88-3.34-1.75-6.69-2.71-9.95   c-0.4-1.59-1.11-2.15-1.99-1.99c-1.03,0.24-1.59,1.03-1.51,2.63c0.16,4.14,0.32,8.2,0.48,12.34c0.08,1.35,0,2.79,0.08,4.22   c0.08,3.66-13.37,17.59-17.83,22.61c-0.16,0.16-0.32,0.24-0.88,0.56c0.8-12.26,1.51-24.2,2.31-36.22c-1.75-0.24-2.63,0.4-3.03,1.67   c-0.56,1.99-1.03,3.9-1.35,5.97c-2.15,9.39-4.22,18.79-6.29,28.18C424.69,275.53,424.21,278.16,423.66,280.78z M477.31,367.4   c-0.4,0.4-0.88,0.64-1.27,0.96c-5.17,3.74-10.35,7.48-15.6,11.22c-0.64,0.48-1.35,0.88-2.39,1.59c0.24-0.96,0.32-1.35,0.48-1.83   c1.51-4.38,3.03-8.76,4.54-13.14c0.56-1.51,0.08-2.47-1.11-3.26c-1.03-0.64-1.91-1.35-2.95-2.15c-1.43,2.31-2.87,4.62-4.3,6.85   c-2.63,4.22-5.25,8.52-7.88,12.74c-1.99,3.26-1.83,5.17,0.8,8.04c1.43,1.59,3.03,2.95,4.54,4.38c0.64,0.64,1.19,1.43,2.07,2.39   c-5.49-0.16-10.67,0.48-15.36-2.23c-1.59-0.96-3.18-1.91-4.54-3.18c-1.99-1.83-2.47-4.22-1.27-6.77c0.48-1.03,0.96-2.07,1.51-3.03   c4.62-8.44,9.15-16.96,13.77-25.4c0.24-0.4,0.48-0.88,0.8-1.59c-2.71,0-5.09,0-7.56,0c-1.11,0-1.75,0.72-2.23,1.59   c-1.75,3.1-3.58,6.21-5.33,9.31c-0.24,0.48-0.48,0.96-1.11,1.35c-1.27-7.96-2.55-16-3.82-24.2c0.72-0.08,1.35-0.16,1.99-0.16   c5.89,0.24,11.78,0.4,17.67,0.56c6.85,0.16,5.81,0.64,8.6-4.86c4.14-8.28,8.04-16.64,12.02-25c0.48-1.03,0.96-1.99,1.59-3.26   c4.86,3.82,9.55,7.56,14.33,11.3c-0.4,0.8-0.56,1.35-0.88,1.83c-4.06,7.16-8.12,14.25-12.18,21.41c-0.48,0.8-0.88,1.59-1.19,2.39   c-0.8,1.99-0.64,3.9,0.64,5.73c1.91,2.71,3.66,5.49,5.41,8.28c0.72,1.11,1.27,2.39,1.51,3.58   C479.3,364.93,478.98,365.96,477.31,367.4z M550.07,357.37c-0.32-0.64-0.64-1.27-0.96-1.99c-3.34-7.88-6.69-15.76-10.11-23.64   c-0.48-1.27-0.88-2.55-2.23-3.18c-2.07,1.11-2.23,1.59-1.35,4.14c2.95,8.36,5.89,16.72,8.92,25.08c0.64,1.83,0.64,3.5-0.64,5.02   c-1.67,1.99-3.34,3.98-4.94,5.97c-1.59-0.32-1.75-1.51-2.07-2.55c-2.87-8.28-5.73-16.64-8.6-24.92c-0.56-1.75-1.27-3.42-1.99-5.17   c-1.59,1.51-1.59,1.59-1.19,3.18c0.8,3.1,1.67,6.29,2.55,9.47c1.99,7.01,4.14,14.01,6.21,21.02c0.64,2.15,0.32,3.98-1.11,5.81   c-2.79,3.58-10.59,10.75-13.85,13.85v0.4c-0.08,0-0.16-0.08-0.24-0.16c-0.08,0-0.16,0.08-0.24,0.16v-0.4   c-3.34-3.1-11.07-10.27-13.85-13.85c-1.43-1.75-1.75-3.66-1.11-5.81c2.07-7.01,4.14-14.01,6.21-21.02c0.96-3.1,1.75-6.29,2.55-9.47   c0.48-1.59,0.4-1.67-1.19-3.18c-0.64,1.75-1.43,3.42-1.99,5.17c-2.87,8.28-5.73,16.64-8.6,24.92c-0.4,1.03-0.56,2.23-2.07,2.55   c-1.59-1.99-3.26-3.98-4.94-5.97c-1.27-1.51-1.27-3.18-0.64-5.02c3.03-8.36,5.97-16.72,8.92-25.08c0.96-2.55,0.8-3.03-1.35-4.14   c-1.27,0.64-1.67,1.99-2.23,3.18c-3.34,7.88-6.77,15.76-10.11,23.64c-0.32,0.64-0.64,1.27-0.96,1.99c-1.51-0.88-5.33-4.7-6.05-5.89   c-0.48-0.8-0.64-1.67-0.24-2.55c0.4-0.96,0.72-1.83,1.11-2.71c4.22-9.15,8.52-18.23,12.74-27.39c0.08-0.32,0.16-0.56,0.32-1.03   c-0.32-0.4-0.72-0.8-1.11-1.19c-5.57-4.86-11.15-9.71-16.8-14.49c-3.34-2.87-3.5-3.34-1.91-7.4   c11.54-29.53,23.17-59.15,34.79-88.68c2.87-7.24,5.65-14.41,8.52-21.65l0.48-0.24c0,0.08,0.08,0.16,0.08,0.24   c2.87,7.24,5.65,14.41,8.52,21.65c11.54,29.53,23.17,59.15,34.79,88.68c1.59,3.98,1.43,4.54-1.91,7.4   c-5.65,4.86-11.22,9.63-16.8,14.49c-0.4,0.4-0.8,0.8-1.11,1.19c0.16,0.48,0.16,0.8,0.32,1.03c4.22,9.16,8.52,18.23,12.74,27.39   c0.4,0.88,0.72,1.83,1.11,2.71c0.48,0.96,0.24,1.75-0.32,2.55C555.41,352.67,551.59,356.41,550.07,357.37z M585.66,354.74   c4.62,8.44,9.16,16.96,13.77,25.4c0.56,1.03,1.04,1.99,1.51,3.03c1.19,2.55,0.72,4.94-1.27,6.77c-1.35,1.27-2.95,2.23-4.54,3.18   c-4.7,2.71-9.87,2.07-15.36,2.23c0.8-0.96,1.43-1.75,2.07-2.39c1.51-1.51,3.1-2.87,4.54-4.38c2.71-2.87,2.79-4.78,0.8-8.04   c-2.63-4.22-5.25-8.52-7.88-12.74c-1.43-2.31-2.87-4.54-4.3-6.85c-1.03,0.72-1.99,1.51-2.95,2.15c-1.19,0.88-1.59,1.83-1.11,3.26   c1.59,4.38,3.03,8.76,4.54,13.14c0.16,0.48,0.24,0.96,0.48,1.83c-1.03-0.72-1.75-1.11-2.39-1.59c-5.17-3.74-10.43-7.48-15.6-11.22   c-0.4-0.32-0.88-0.64-1.27-0.96c-1.67-1.43-1.99-2.55-1.27-4.54c0.48-1.27,1.04-2.55,1.75-3.66c1.75-2.79,3.58-5.57,5.41-8.28   c1.27-1.83,1.43-3.74,0.64-5.73c-0.32-0.8-0.72-1.59-1.19-2.39c-4.06-7.16-8.12-14.25-12.18-21.41c-0.32-0.56-0.48-1.11-0.88-1.83   c4.78-3.74,9.47-7.48,14.33-11.3c0.64,1.27,1.11,2.23,1.59,3.26c3.98,8.36,7.88,16.72,12.02,25c2.79,5.49,1.75,5.02,8.6,4.86   c5.89-0.24,11.78-0.4,17.67-0.56c0.64,0,1.27,0.08,1.99,0.16c-1.27,8.2-2.55,16.24-3.82,24.2c-0.64-0.48-0.88-0.88-1.11-1.35   c-1.75-3.1-3.58-6.21-5.33-9.31c-0.48-0.88-1.11-1.59-2.23-1.59c-2.47,0-4.86,0-7.8,0.08   C585.18,353.86,585.42,354.26,585.66,354.74z M886.79,126.97c-0.26,0.35-0.49,0.7-0.77,1.04c-1.75,2.07-3.42,4.14-5.09,6.21   c-1.04,1.27-1.75,2.87-3.03,3.98c-4.3,3.98-8.04,8.36-11.07,13.37c-1.99,3.26-4.06,4.78-7.32,4.46c-4.86-0.4-9.79-0.64-14.73-0.88   c-11.07-0.48-22.05-0.96-33.12-1.43c-13.14-0.56-26.35-1.19-39.57-1.83c-6.69-0.32-13.45-0.64-20.14-0.96   c-11.62-0.56-23.25-1.11-34.87-1.67c-8.04-0.4-16-0.72-23.96-1.11c-10.59-0.48-21.18-1.03-31.76-1.51c-0.48,0-0.96,0-1.43,0   c0.56,1.51,0.96,2.71,1.43,4.22c64.16,5.81,128.41,10.91,192.89,16.48c-0.56,0.72-0.88,1.19-1.19,1.51   c-3.58,3.74-7.32,7.48-10.91,11.22c-3.9,4.06-7.8,8.2-11.7,12.34c-1.83,1.91-3.74,3.03-6.29,2.07c-0.4-0.16-0.72-0.24-1.11-0.32   c-23.4-4.3-46.81-8.68-70.21-12.98c-29.06-5.33-58.11-10.75-87.17-16.08c-0.72-0.16-1.35-0.16-2.07-0.24   c-0.08,0.24-0.16,0.4-0.24,0.56c0.4,0.48,0.8,1.03,1.35,1.43c0.56,0.4,1.27,0.56,1.91,0.72c6.53,1.83,13.06,3.58,19.58,5.41   c14.73,4.06,29.46,8.2,44.18,12.26c6.05,1.67,12.1,3.18,18.15,4.86c5.49,1.51,11.07,3.1,16.56,4.7c0.32,0.08,0.56,0.08,0.88,0.16   c1.99,0.48,4.06,0.88,6.05,1.43c3.18,0.8,6.29,1.75,9.47,2.55c2.39,0.56,4.78,1.03,7.16,1.59c1.03,0.24,2.07,0.72,3.1,1.03   c2.71,0.8,5.49,1.35,8.12,2.39c3.66,1.43,7.4,2.23,11.07,3.42c0.88,0.32,1.67,0.56,3.18,1.03c-0.88,0.56-1.43,0.8-1.83,1.19   c-8.12,7.24-16.16,14.41-24.2,21.65c-0.72,0.64-1.43,1.35-2.15,2.07c-1.51,1.59-3.18,2.07-5.17,1.11c-0.96-0.48-2.07-0.8-3.1-1.19   c-36.78-14.33-73.48-28.74-110.26-43.07c-0.64-0.24-1.35-0.48-2.07-0.72c-0.4,2.55-0.24,3.1,1.75,4.3   c2.39,1.43,5.02,2.63,7.48,3.98c24.2,12.98,48.32,26.03,72.52,39.01c5.25,2.79,10.59,5.57,15.84,8.36   c1.35,0.72,2.79,1.27,3.98,2.71c-9.31,7.96-18.55,15.76-27.94,23.8c-13.53-10.03-26.35-21.02-39.57-31.45   c-13.22-10.43-26.35-21.02-39.65-31.6c-0.56,0.8-1.04,1.43-1.51,2.07c0.48,0.64,0.88,1.11,1.27,1.51   c10.91,11.22,21.73,22.45,32.56,33.67c10.51,10.91,20.94,21.73,31.37,32.64c0.56,0.56,1.03,1.11,1.59,1.75   c-8.04,5.09-15.84,10.11-23.64,15.05c-2.07,1.27-2.15,1.19-3.58-0.64c-0.08-0.08-0.16-0.24-0.24-0.32   c-12.58-16.24-25.08-32.48-37.65-48.72c-4.3-5.65-8.68-11.22-13.06-16.8c-0.64-0.8-1.11-1.83-2.79-1.27   c0.48,0.96,0.8,1.91,1.27,2.79c7.8,13.45,15.68,26.99,23.48,40.44c5.17,8.84,10.35,17.67,15.44,26.51   c0.56,0.96,1.35,1.91,1.19,3.18c-0.24,0.16-0.32,0.24-0.48,0.24c-8.2,1.19-16.4,2.39-24.6,3.58c-1.35,0.24-2.79,0.16-4.14,0.24   c-0.64-1.67-1.27-3.03-1.83-4.38c-8.28-18.95-16.48-37.89-24.76-56.84c-0.88-2.07-1.83-4.22-2.87-6.29   c-1.27-2.55-2.87-2.87-5.49-1.19c0.24,0.96,0.48,1.99,0.8,2.95c7.01,20.94,14.01,41.87,21.02,62.81c0.16,0.56,0.24,1.11,0.4,1.75   c-0.4-0.16-0.56-0.16-0.64-0.24c-8.52-6.05-17.04-12.1-25.55-18.15c-1.59-1.19-2.55-2.71-2.95-4.62c-0.56-2.63-1.11-5.25-1.67-7.88   c-2.07-9.39-4.22-18.79-6.29-28.18c-0.4-1.91-0.88-3.9-1.43-5.81c-0.4-1.27-1.35-1.91-3.03-1.67c0.8,12.02,1.51,24.04,2.31,36.22   c-0.56-0.32-0.72-0.32-0.88-0.56c-4.46-5.09-17.91-19.03-17.83-22.61c0.08-1.35,0-2.79,0.08-4.22c0.16-4.14,0.32-8.2,0.48-12.34   c0.08-1.59-0.48-2.39-1.51-2.63c-0.88-0.16-1.59,0.48-1.99,1.99c-0.96,3.34-1.83,6.61-2.71,9.95c-0.08,0.48-0.24,0.96-0.48,1.83   c-0.8-0.96-1.43-1.51-1.91-2.23c-2.23-3.34-4.22-6.69-6.53-9.95c-1.67-2.31-2.87-4.7-2.23-7.64c0.08-0.16,0-0.4,0-0.64   c-0.24-2.55-4.06-5.25-5.89-2.55c-0.48,0.72-0.56,1.59-0.4,2.39c0.16,0.64,0.4,1.19,0.64,1.75c0.8,1.51,1.59,2.95,2.47,4.3   c3.5,5.33,7.09,10.59,10.59,15.84c4.62,6.85,9.23,13.61,13.77,20.46c2.31,3.5,2.15,3.98-1.27,6.13c-6.45,4.06-12.9,8.04-19.34,12.1   c-0.48,0.32-0.96,0.64-1.59,0.96c-0.4-0.88-0.72-1.67-1.03-2.39c-8.92-22.85-17.83-45.7-26.83-68.54c-0.4-1.03-0.56-1.99-0.4-2.79   c0.4-1.91,12.34-13.45,15.6-16.88l2.39-3.1c5.17,1.91,13.77,5.81,18.95,7.8c8.04,3.03,16.08,6.21,24.76,7.32   c3.9,0.48,7.8,0.96,11.78,0.8c8.92-0.32,16.16-3.98,21.73-10.83c1.67-1.99,3.18-4.22,4.14-6.61c3.42-8.68,3.82-17.51-0.4-26.19   c-0.48-1.03-0.88-2.07-1.43-3.03c-1.03-1.67-1.99-3.5-3.26-5.02c-3.18-3.82-6.45-7.64-9.79-11.38c-1.19-1.35-2.47-2.63-3.9-3.66   c-3.9-2.71-8.12-5.02-12.66-6.61v-11.7c1.04,0,1.91,0,2.79,0c11.78,0.24,23.56,0.24,35.35,0.64c7.48,0.24,14.89,0.32,22.37,0.4   c13.61,0.24,27.15,0.4,40.76,0.56c7.09,0.16,14.17,0.24,21.26,0.32c13.77,0.24,27.62,0.4,41.4,0.64   c7.24,0.08,14.49,0.24,21.73,0.32c13.69,0.24,27.31,0.4,41,0.56c15.84,0.24,31.6,0.4,47.45,0.56c1.75,0,3.5,0.24,5.25,0.32   C886.76,126.88,886.78,126.93,886.79,126.97c0.04-0.05,0.07-0.1,0.11-0.15C886.84,127.05,886.82,127.07,886.79,126.97z"
   id="path2208"
   style="fill:#ffff00" />
</g>
</svg>
