<?xml version="1.0" encoding="UTF-8" standalone="no"?>
<svg
   xmlns:dc="http://purl.org/dc/elements/1.1/"
   xmlns:cc="http://creativecommons.org/ns#"
   xmlns:rdf="http://www.w3.org/1999/02/22-rdf-syntax-ns#"
   xmlns:svg="http://www.w3.org/2000/svg"
   xmlns="http://www.w3.org/2000/svg"
   xmlns:sodipodi="http://sodipodi.sourceforge.net/DTD/sodipodi-0.dtd"
   xmlns:inkscape="http://www.inkscape.org/namespaces/inkscape"
   height="999.90002"
   width="701"
   xml:space="preserve"
   viewBox="0 0 701 999.90002"
   y="0px"
   x="0px"
   id="Layer_3_1_"
   version="1.1"
   sodipodi:docname="adeptus-astronomica-symbol.svg"
   inkscape:version="0.92.3 (2405546, 2018-03-11)"><sodipodi:namedview
   pagecolor="#ffffff"
   bordercolor="#666666"
   borderopacity="1"
   objecttolerance="10"
   gridtolerance="10"
   guidetolerance="10"
   inkscape:pageopacity="0"
   inkscape:pageshadow="2"
   inkscape:window-width="451"
   inkscape:window-height="434"
   id="namedview9"
   showgrid="false"
   inkscape:zoom="0.2360236"
   inkscape:cx="350.5"
   inkscape:cy="499.94999"
   inkscape:window-x="0"
   inkscape:window-y="0"
   inkscape:window-maximized="0"
   inkscape:current-layer="Layer_3_1_" /><defs
   id="defs14" /><metadata
   id="metadata97"><rdf:RDF><cc:Work
       rdf:about=""><dc:format>image/svg+xml</dc:format><dc:type
         rdf:resource="http://purl.org/dc/dcmitype/StillImage" /><dc:title /><dc:creator><cc:Agent><dc:title>http://bakadesign.dk/warhammer-40-000-icons/</dc:title></cc:Agent></dc:creator></cc:Work></rdf:RDF></metadata>
<g
   id="g9"
   style="fill:#ff0000">
<g
   id="g7">
	<path
   id="path3"
   d="m 454.3,273.2 c -19.4,-56.6 -76.7,-65.5 -101.5,-66.6 0,0 -2.1,-0.1 -5.7,-0.1 0,0 0,0 -0.1,0 0,0 0,0 -0.1,0 -3.6,0 -5.7,0.1 -5.7,0.1 -24.8,1.2 -82.1,10 -101.5,66.6 -16.6,48.3 14.8,102.9 8.4,110.3 -25.5,29.5 9.2,76.3 13.9,80.1 8.5,7 35.6,-7.1 31.4,0.1 -3.2,5.5 -6.2,47.4 -6.2,47.4 h 8.4 l 4,-14.6 7.2,-0.1 1.4,14.7 h 14.7 l 1.4,-14 4.9,-0.7 0.7,14.7 h 11.9 l 0.6,-15 h 9.6 l 0.6,15 h 11.9 l 0.7,-14.7 4.9,0.7 1.4,14 h 14.7 l 1.4,-14.7 7.2,0.1 4,14.6 h 8.4 c 0,0 -3,-41.8 -6.2,-47.4 -4.3,-7.3 22.8,6.8 31.4,-0.1 4.7,-3.9 39.4,-50.6 13.9,-80.1 -6.8,-7.4 24.5,-62 8,-110.3 z m -129.9,36.7 c -0.5,1.9 -0.8,4 -0.8,6.1 0,12.9 10.4,23.3 23.3,23.3 12.9,0 23.3,-10.4 23.3,-23.3 0,-2 -0.3,-4 -0.7,-5.9 20.2,6.3 34.3,18.6 34.3,18.6 0,0 -25.6,22.3 -57.2,22.3 -31.6,0 -57.3,-22.3 -57.3,-22.3 0,0 14.5,-12.5 35.1,-18.8 z m 6.8,104.1 c -3.3,3.7 -8.1,8.2 -14.6,11.8 -15.6,8.8 -31.1,7.6 -37.4,6.7 -0.4,0 -0.8,-0.2 -1.2,-0.4 -13.7,-8.7 -18.9,-22.2 -14.8,-30.6 0.6,-1.3 2.9,-5.5 10.1,-8.2 0.4,-0.1 0.8,-0.2 1.2,-0.2 8.7,0.8 19.4,2.5 31.3,6.2 9.6,3 17.8,6.6 24.6,10.1 1.6,1 2,3.2 0.8,4.6 z m 32.7,51.2 c 0,1 -1.2,1.3 -1.8,0.6 -1.5,-1.9 -3.5,-4.1 -6.2,-6 -2.9,-2.1 -5.7,-3.5 -7.8,-4.2 -2.1,0.8 -4.9,2.1 -7.8,4.2 -2.7,2 -4.7,4.2 -6.2,6 -0.6,0.7 -1.8,0.4 -1.8,-0.6 -0.5,-7.1 -0.1,-21.8 10.6,-32.4 1.4,-1.4 3.2,-2.6 5.3,-3.7 2.1,1.2 3.9,2.4 5.3,3.7 10.5,10.6 10.9,25.3 10.4,32.4 z m 52.4,-33.1 c -0.4,0.2 -0.7,0.4 -1.2,0.4 -6.3,0.9 -21.7,2.1 -37.4,-6.7 -6.5,-3.6 -11.3,-8.1 -14.6,-11.8 -1.2,-1.4 -0.9,-3.6 0.8,-4.5 6.7,-3.5 14.9,-7.1 24.6,-10.1 11.9,-3.7 22.7,-5.4 31.3,-6.2 0.4,0 0.8,0 1.2,0.2 7.1,2.6 9.5,6.9 10.1,8.2 4.1,8.3 -1.1,21.9 -14.8,30.5 z"
   inkscape:connector-curvature="0" />
	<path
   id="path5"
   d="M 701,379.6 V 345.7 H 595.4 c -1.7,-25.5 -7.3,-49.9 -16.1,-72.7 l 54.7,-36.3 -17.6,-26.5 -50.7,33.7 c -14.2,-26 -33,-49.2 -55.2,-68.5 l 34.4,-49.1 -26,-18.3 -33.6,48 c -7.2,-4.8 -14.6,-9.2 -22.2,-13.2 v -4 c 0,-10.9 1.6,-34.8 18.7,-57.2 34.8,-45.6 99.9,-41.2 103.6,-40.8 0,-13.7 0,-27.2 0,-40.8 H 351.9 351.8 118.3 c 0,13.7 0,27.2 0,40.8 3.7,-0.4 68.8,-4.8 103.6,40.8 17.1,22.4 18.7,46.2 18.7,57.1 -8.5,4.1 -16.7,8.6 -24.6,13.6 l -34,-48.6 -26,18.3 34.3,48.9 c -22.8,18.8 -42.2,41.5 -57.2,67.2 l -48.6,-32.3 -17.6,26.5 51.9,34.5 c -9.7,23.3 -16,48.3 -18.3,74.6 H 0 v 33.9 h 100 c 1.4,27.3 7.2,53.4 16.7,77.7 l -46.6,31 17.6,26.5 42.6,-28.3 c 14.9,27 34.6,50.9 58,70.6 l -29.2,41.7 26.1,18.2 28.7,-41.1 c 8.7,5.6 17.7,10.6 27.1,15.1 0,124.4 -0.1,235.1 -0.4,269.7 0.5,7.7 1.9,39.6 -22.5,66.5 -23.5,26 -61.9,37.6 -99.9,30.3 v 46.7 h 233.4 0.1 233.4 v -46.7 c -38,7.2 -76.4,-4.3 -99.9,-30.3 -24.3,-27 -23,-58.8 -22.5,-66.5 -0.9,-90.9 -1.6,-181.7 -2.5,-272.7 7.8,-4 15.4,-8.4 22.7,-13.2 l 32.4,46.3 26.1,-18.2 -33,-47.2 c 22.6,-19.3 41.8,-42.6 56.3,-68.8 l 48.2,32 17.6,-26.5 -52.1,-34.6 c 9.1,-23.2 14.9,-48.1 16.7,-74.1 H 701 Z M 351,577.9 c -48.7,0 -93.6,-16.3 -129.6,-43.6 -52.6,-38.8 -86.8,-101.2 -86.8,-171.6 0,-78.7 42.6,-147.4 106.1,-184.3 0,0.6 5.3,-2.9 5.3,-2.3 32.2,-19.4 64.7,-26.5 105,-26.5 118.3,0 214.2,95.9 214.2,214.2 0,118.3 -95.9,214.1 -214.2,214.1 z"
   inkscape:connector-curvature="0" />
</g>
</g></svg>