<?xml version="1.0" encoding="UTF-8" standalone="no"?>
<!-- Generator: Adobe Illustrator 21.0.2, SVG Export Plug-In . SVG Version: 6.00 Build 0)  -->

<svg
   xmlns:dc="http://purl.org/dc/elements/1.1/"
   xmlns:cc="http://creativecommons.org/ns#"
   xmlns:rdf="http://www.w3.org/1999/02/22-rdf-syntax-ns#"
   xmlns:svg="http://www.w3.org/2000/svg"
   xmlns="http://www.w3.org/2000/svg"
   xmlns:sodipodi="http://sodipodi.sourceforge.net/DTD/sodipodi-0.dtd"
   xmlns:inkscape="http://www.inkscape.org/namespaces/inkscape"
   version="1.1"
   id="skull"
   x="0px"
   y="0px"
   viewBox="0 0 547.4 857"
   xml:space="preserve"
   sodipodi:docname="adeptus-ministorum-symbol.svg"
   width="547.40002"
   height="857"
   inkscape:version="0.92.3 (2405546, 2018-03-11)"><defs
   id="defs14" /><sodipodi:namedview
   pagecolor="#ffffff"
   bordercolor="#666666"
   borderopacity="1"
   objecttolerance="10"
   gridtolerance="10"
   guidetolerance="10"
   inkscape:pageopacity="0"
   inkscape:pageshadow="2"
   inkscape:window-width="451"
   inkscape:window-height="434"
   id="namedview12"
   showgrid="false"
   inkscape:zoom="0.27537923"
   inkscape:cx="273.70001"
   inkscape:cy="428.6"
   inkscape:window-x="0"
   inkscape:window-y="0"
   inkscape:window-maximized="0"
   inkscape:current-layer="skull" /><metadata
   id="metadata97"><rdf:RDF><cc:Work
       rdf:about=""><dc:format>image/svg+xml</dc:format><dc:type
         rdf:resource="http://purl.org/dc/dcmitype/StillImage" /><dc:title /><dc:creator><cc:Agent><dc:title>http://bakadesign.dk/warhammer-40-000-icons/</dc:title></cc:Agent></dc:creator></cc:Work></rdf:RDF></metadata>
<g
   style="fill:#ff0000"
   id="g9"
   transform="translate(0,-0.1)">
<g
   id="g7">
	<path
   d="M 426.8,422.7 476,436 443.7,398.1 c 11.2,-19.4 19.1,-41 22.9,-64 l 80.8,-25.4 -79.1,-23.8 c -2.5,-26.7 -10.5,-51.7 -22.9,-74.1 l 30.7,-32.8 -42.6,14.1 c -14.3,-19.9 -32.3,-37 -53.1,-50.1 l 8.3,-52.6 -24,26.5 c 0.3,-10.3 2.6,-28.5 15,-45.8 27.9,-39.1 80,-35.3 83,-35 0,-11.7 0,-23.3 0,-35 H 278.8 275.6 91.7 c 0,11.7 0,23.3 0,35 3,-0.3 55.1,-4.1 83,35 13.7,19.2 15,39.7 15,49 v 4.6 l -31,-34.2 9,56.8 c -18.8,12.9 -35.1,29.1 -48.1,47.8 L 71.3,178 106.4,215.6 C 95.8,236.1 88.8,258.8 86.2,282.8 L 0,308.7 88.1,336.4 c 3.6,20.2 10.3,39.3 19.7,56.8 l -36.5,42.8 55,-14.8 c 12.2,15.4 26.7,28.9 43.1,39.9 l -10.7,67 c 0,0 17.5,-16.5 33,-32 v 2 c -0.7,78.7 -1.3,157.3 -2,236 0.4,6.6 1.5,33.9 -18,57 -18.8,22.3 -49.6,32.2 -80,26 v 40 h 183.9 3.2 183.9 v -40 c -30.4,6.2 -61.2,-3.7 -80,-26 -19.5,-23.1 -18.4,-50.4 -18,-57 -0.7,-77 -1.3,-154 -2,-231 13.3,13.1 26,25 26,25 l -7.4,-64.5 c 17.3,-11.2 32.6,-25 45.5,-40.9 z m -149.6,24.7 c -76.3,-0.5 -138,-62.5 -138,-139 0,-76.5 61.7,-138.5 138,-139 76.3,0.5 138,62.5 138,139 0,76.5 -61.7,138.5 -138,139 z"
   id="path3"
   inkscape:connector-curvature="0" />
	<path
   d="m 363.1,236.4 c -15.8,-46.1 -62.5,-53.3 -82.7,-54.2 0,0 -1.7,-0.1 -4.7,-0.1 0,0 0,0 -0.1,0 -0.1,0 0,0 -0.1,0 -3,0 -4.7,0.1 -4.7,0.1 -20.2,0.9 -66.9,8.1 -82.6,54.2 -13.5,39.3 12,83.8 6.9,89.7 -20.8,24 7.5,62.1 11.3,65.2 6.9,5.7 29,-5.8 25.5,0.1 C 229.4,396 227,430 227,430 h 6.8 l 3.3,-11.9 5.9,-0.1 1,12 h 12 l 1.1,-11.4 4,-0.6 0.6,11.9 h 9.7 l 0.5,-12.2 h 7.8 l 0.5,12.2 h 9.7 l 0.6,-11.9 4,0.6 1.1,11.4 h 11.9 l 1.1,-11.9 5.9,0.1 3.3,11.9 h 6.8 c 0,0 -2.4,-34 -5.1,-38.5 -3.5,-5.9 18.6,5.5 25.5,-0.1 3.9,-3.2 32.1,-41.2 11.3,-65.2 -5.3,-6.2 20.2,-50.6 6.8,-89.9 z M 262.8,350.9 c -2.7,3 -6.6,6.6 -11.9,9.6 -12.7,7.2 -25.3,6.2 -30.4,5.4 -0.3,0 -0.7,-0.2 -0.9,-0.3 -11.1,-7.1 -15.4,-18.1 -12.1,-24.9 0.5,-1.1 2.4,-4.5 8.2,-6.6 0.3,-0.1 0.7,-0.2 1,-0.2 7.1,0.6 15.8,2 25.5,5.1 7.8,2.4 14.5,5.4 20,8.3 1.4,0.7 1.7,2.5 0.6,3.6 z m 26.7,41.7 c 0,0.8 -1,1.1 -1.5,0.5 -1.2,-1.5 -2.9,-3.3 -5.1,-4.9 -2.4,-1.7 -4.6,-2.8 -6.4,-3.5 -1.7,0.6 -4,1.7 -6.4,3.5 -2.2,1.6 -3.9,3.4 -5.1,4.9 -0.5,0.6 -1.5,0.3 -1.5,-0.5 -0.4,-5.8 -0.1,-17.7 8.6,-26.4 1.1,-1.1 2.6,-2.1 4.3,-3 1.7,0.9 3.2,1.9 4.3,3 8.9,8.7 9.2,20.6 8.8,26.4 z m 42.6,-26.9 c -0.3,0.2 -0.6,0.3 -0.9,0.3 -5.1,0.7 -17.7,1.7 -30.4,-5.4 -5.3,-3 -9.2,-6.6 -11.9,-9.6 -1,-1.2 -0.7,-3 0.7,-3.7 5.5,-2.9 12.2,-5.8 20,-8.3 9.7,-3 18.5,-4.4 25.5,-5.1 0.3,0 0.7,0 1,0.2 5.8,2.1 7.7,5.6 8.2,6.6 3.2,6.9 -1,17.9 -12.2,25 z"
   id="path5"
   inkscape:connector-curvature="0" />
</g>
</g></svg>