<?xml version="1.0" encoding="UTF-8" standalone="no"?>
<!-- Generator: Adobe Illustrator 22.1.0, SVG Export Plug-In . SVG Version: 6.00 Build 0)  -->

<svg
   xmlns:dc="http://purl.org/dc/elements/1.1/"
   xmlns:cc="http://creativecommons.org/ns#"
   xmlns:rdf="http://www.w3.org/1999/02/22-rdf-syntax-ns#"
   xmlns:svg="http://www.w3.org/2000/svg"
   xmlns="http://www.w3.org/2000/svg"
   xmlns:sodipodi="http://sodipodi.sourceforge.net/DTD/sodipodi-0.dtd"
   xmlns:inkscape="http://www.inkscape.org/namespaces/inkscape"
   version="1.1"
   id="Layer_3_1_"
   x="0px"
   y="0px"
   viewBox="0 0 873.90001 949.79999"
   xml:space="preserve"
   sodipodi:docname="adeptus-arbites-symbol.svg"
   width="873.90002"
   height="949.79999"
   inkscape:version="0.92.3 (2405546, 2018-03-11)"><sodipodi:namedview
   pagecolor="#ffffff"
   bordercolor="#666666"
   borderopacity="1"
   objecttolerance="10"
   gridtolerance="10"
   guidetolerance="10"
   inkscape:pageopacity="0"
   inkscape:pageshadow="2"
   inkscape:window-width="451"
   inkscape:window-height="434"
   id="namedview24"
   showgrid="false"
   inkscape:zoom="0.23838384"
   inkscape:cx="434.15001"
   inkscape:cy="471.9"
   inkscape:window-x="0"
   inkscape:window-y="0"
   inkscape:window-maximized="0"
   inkscape:current-layer="Layer_3_1_" /><metadata
   id="metadata97"><rdf:RDF><cc:Work
       rdf:about=""><dc:format>image/svg+xml</dc:format><dc:type
         rdf:resource="http://purl.org/dc/dcmitype/StillImage" /><dc:title /><dc:creator><cc:Agent><dc:title>http://bakadesign.dk/warhammer-40-000-icons/</dc:title></cc:Agent></dc:creator></cc:Work></rdf:RDF></metadata>
<g
   style="fill:#ff0000"
   id="g21"
   transform="translate(-22.7,-17.1)">
<g
   id="g19">
	<path
   d="m 517.4,412 c -9.2,0 -18.5,0.1 -27.8,0.1 -9.2,0 -18.5,0 -27.8,0 -9.2,0 -18.5,0 -27.8,0 -9.2,0 -18.5,0 -27.8,0 -3.3,0 -5.8,0.6 -8,3.7 -17.9,27.1 -42.7,64.2 -42.7,64.2 8.6,8.2 43.5,39.6 98,42 60.1,2.6 100.1,-31.9 108,-39 -19,-36.3 -33,-62.7 -35.4,-66.2 -2.1,-3.6 -4.6,-4.8 -8.7,-4.8 z"
   id="path3"
   inkscape:connector-curvature="0" />
	<path
   d="m 522.9,333.8 c -4.4,-0.5 -7.5,-2.9 -9.8,-6.6 -5.5,-8.9 -5.8,-9 -12.4,-0.3 -5.8,7.6 -12.9,11.9 -22.6,10.4 -9.6,-1.5 -19.1,-3.5 -28.5,-5.7 -4,-0.9 -6.3,-0.2 -7.2,4.1 -0.5,2.8 -1.6,5.4 -2.1,8.2 -2.8,15.3 -12.6,22.5 -27.3,24 -4.1,0.4 -8.3,0.4 -12.3,0.3 -4.6,-0.2 -9.2,-1 -13.8,-1.2 -4.3,-0.2 -5.9,2.2 -3.9,5.8 5.3,9.6 10.6,19.1 16.1,28.5 0.9,1.6 3.2,2.9 5,2.9 18.8,0.2 37.7,0.1 56.5,0.1 0,0 0,-0.1 0,-0.1 18.7,0 37.4,0 56,0 2.5,0 4.5,0 5.6,-3.4 5.5,-18.7 11.4,-37.3 17.1,-55.9 2.9,-9.5 2.9,-9.4 -7.1,-9.9 -3.1,-0.2 -6.2,-0.8 -9.3,-1.2 z"
   id="path5"
   inkscape:connector-curvature="0" />
	<path
   d="m 364.2,323 c 2.4,8.4 5.4,16.6 8.6,24.7 2.9,7.6 9,11.7 16.9,12.9 5.2,0.8 10.5,1.3 15.8,1 17.3,-0.9 23.3,-5.8 28.8,-22.1 1.7,-5.2 3.1,-10.4 4.7,-15.9 1.9,0.4 3.4,0.9 5,1.1 11.7,1.9 23.3,3.9 35.1,5.4 5.4,0.7 10.4,-1.6 13.4,-6 3.5,-5.1 6.3,-10.7 9,-16.3 0.4,-0.9 -0.8,-3.4 -2,-4.1 -3.2,-1.9 -6.7,-3.4 -10.2,-4.9 -21.3,-9.1 -42.6,-18.3 -64,-27.3 -1.6,-0.7 -4.6,-0.2 -5.9,0.9 -17.7,14.4 -35.2,28.9 -52.6,43.7 -1.8,1.5 -3.1,5 -2.6,6.9 z"
   id="path7"
   inkscape:connector-curvature="0" />
	<path
   d="m 512.6,303.2 c 0,4 -0.1,7.9 0,11.9 0.4,8.3 7.7,13.3 19.1,12.4 2.8,-0.2 6.6,-1.9 7.8,-4 7,-13.7 14.4,-27.3 20,-41.7 4.5,-11.9 -1,-25.5 -12.8,-30.3 -11.2,-4.6 -20.2,-1.5 -24.7,9.1 -5.9,13.5 -9.9,27.6 -9.4,42.6 z"
   id="path9"
   inkscape:connector-curvature="0" />
	<path
   d="m 373.2,291.6 c 1.8,4.2 3.8,4.7 7.6,1.7 9.7,-7.7 19.4,-15.4 28.9,-23.3 1.2,-1 2.7,-3 2.5,-4.4 -0.9,-11.9 -3.4,-23.5 -8.6,-34.4 -2.3,-5 -6.5,-7.6 -12,-6.2 -6.6,1.7 -13.3,3.6 -19.6,6.3 -7.5,3.1 -10.3,9.3 -9.4,15.8 1.1,16.4 4.8,30.7 10.6,44.5 z"
   id="path11"
   inkscape:connector-curvature="0" />
	<path
   d="m 472.1,282.6 c 9,4 18,8.1 27,12.1 0.1,0 0.2,0.1 0.4,0.1 0.1,0 0.2,0.1 0.3,0.1 0.2,0 0.3,0.1 0.5,0.1 0,0 0.1,0 0.2,0 0.2,0 0.4,0.1 0.6,0.1 0,0 0.1,0 0.1,0 0.1,0 0.3,0 0.5,0 0,0 0.1,0 0.2,0 0.1,0 0.2,0 0.3,0 0.1,0 0.1,0 0.2,0 0.1,0 0.2,0 0.3,0 0,0 0.1,0 0.2,0 0.1,0 0.2,0 0.3,-0.1 0,0 0.1,0 0.2,-0.1 0.1,0 0.1,-0.1 0.2,-0.1 0,0 0.1,-0.1 0.2,-0.1 0.1,0 0.1,-0.1 0.2,-0.1 0,0 0.1,-0.1 0.2,-0.1 0,0 0.1,-0.1 0.2,-0.2 0.1,-0.1 0.1,-0.1 0.1,-0.2 0,-0.1 0.1,-0.1 0.2,-0.2 0,0 0.1,-0.1 0.1,-0.2 0,-0.1 0.1,-0.2 0.2,-0.3 0,-0.1 0.1,-0.1 0.1,-0.2 0,-0.1 0.1,-0.2 0.1,-0.3 0,-0.1 0,-0.1 0.1,-0.2 0,-0.1 0.1,-0.3 0.1,-0.4 0,0 0,-0.1 0.1,-0.2 0.1,-0.2 0.1,-0.4 0.2,-0.7 1.9,-6.7 4.3,-13.2 5.7,-20 1.6,-7.9 2.6,-15.9 3.3,-24 0.5,-5.8 -2.6,-9.6 -8,-11.7 -7.4,-2.9 -15.1,-3.7 -22.9,-2.4 -7.8,1.3 -12.5,5.8 -13.8,13.6 -1,6 -1.4,12.1 -2.2,19.6 0,0.4 0,0.9 0,1.4 0,1.2 0,2.6 0,4.1 0,0.2 0,0.4 0,0.7 0,0.6 0,1.2 0,1.9 0,0.1 0,0.2 0,0.3 0,0.4 0,0.8 0,1.2 0,3.1 1.2,5.2 4.3,6.5 z"
   id="path13"
   inkscape:connector-curvature="0" />
	<path
   d="m 427,263.8 c 9.4,4.3 19.1,8.3 28.6,12.5 3.7,1.6 5.2,0.2 5.8,-3.3 1.9,-11.8 2.6,-23.6 0.1,-35.4 -2.6,-12.7 -6.9,-16.5 -19.9,-16.5 -16.6,0 -20.1,3.5 -20,22.6 0.3,3.5 0.7,9.6 1.8,15.6 0.2,1.7 1.9,3.7 3.6,4.5 z"
   id="path15"
   inkscape:connector-curvature="0" />
	<path
   d="m 870.2,596 0.5,-0.3 -105.4,-204.3 c 11,-6 18.4,-17.7 18.4,-31.1 0,-19.6 -15.9,-35.5 -35.5,-35.5 -12.2,0 -22.9,6.1 -29.3,15.5 h -47.7 c -5.4,-75 -49.3,-139.4 -112.1,-173.4 0,0 0,0 0,0 l 0.2,-30.8 c 0,-9.3 1.4,-29.8 16.1,-49 30,-39.1 86.1,-35.3 89.3,-35 0,-11.7 0,-23.3 0,-35 H 463.4 463.3 262 c 0,11.7 0,23.3 0,35 3.2,-0.3 59.3,-4.1 89.3,35 14.7,19.2 16.1,39.7 16.1,49 0,0 0,8.8 0,24.3 -69.7,31.8 -119.4,99.8 -125.2,179.9 h -41.7 c -6.4,-9.4 -17.1,-15.5 -29.3,-15.5 -19.6,0 -35.5,15.9 -35.5,35.5 0,13.4 7.4,25.1 18.4,31.1 L 48.5,595.7 49,596 H 22.7 c 0,3 0,6 0,9 5.4,7.5 54.5,73.1 142,75 92.4,2 145.5,-68.7 150,-75 v -9 H 294.2 L 188.4,391.2 c 4.8,-2.7 8.9,-6.5 12,-11 H 243 c 8.6,76.5 57.4,140.9 124.8,171.6 0,0 0,0 0,0 0,122.2 0,231.5 -0.3,262.1 0.4,6.6 1.6,63.9 -19.4,87 -20.2,22.3 -53.4,32.2 -86.1,26 v 40 h 201.3 0.1 201.3 v -40 c -32.7,6.2 -65.9,-3.7 -86.1,-26 -21,-23.1 -19.8,-80.4 -19.4,-87 -0.7,-69.2 -1.2,-187 -1.9,-267.9 61.3,-32.5 104.9,-93.8 113,-165.8 h 48.5 c 3.1,4.5 7.2,8.3 12,11 L 625.1,596 h -20.5 v 9 c 4.5,6.3 57.6,77 150,75 87.5,-1.9 136.6,-67.5 142,-75 0,-3 0,-6 0,-9 z M 284,596 H 58.5 l 104,-201.3 c 2.8,0.7 5.7,1.1 8.7,1.1 3.1,0 6.1,-0.4 8.9,-1.1 z m 172.7,-63 c -97.8,0 -177,-79.2 -177,-177 0,-97.8 79.2,-177 177,-177 97.8,0 177,79.2 177,177 0,97.8 -79.3,177 -177,177 z m 178.6,63 104,-201.4 c 2.8,0.7 5.8,1.1 8.9,1.1 3,0 5.9,-0.4 8.7,-1.1 l 104,201.3 H 635.3 Z"
   id="path17"
   inkscape:connector-curvature="0" />
</g>
</g></svg>