<?xml version="1.0" encoding="UTF-8" standalone="no"?>
<svg
   xmlns:dc="http://purl.org/dc/elements/1.1/"
   xmlns:cc="http://creativecommons.org/ns#"
   xmlns:rdf="http://www.w3.org/1999/02/22-rdf-syntax-ns#"
   xmlns:svg="http://www.w3.org/2000/svg"
   xmlns="http://www.w3.org/2000/svg"
   height="848.90002"
   width="945.45087"
   version="1.1"
   id="Layer_1"
   x="0px"
   y="0px"
   viewBox="0 0 945.45087 848.90002"
   xml:space="preserve"><metadata
   id="metadata19"><rdf:RDF><cc:Work
       rdf:about=""><dc:format>image/svg+xml</dc:format><dc:type
         rdf:resource="http://purl.org/dc/dcmitype/StillImage" /><dc:title></dc:title><dc:creator><cc:Agent><dc:title>http://bakadesign.dk/warhammer-40-000-icons/</dc:title></cc:Agent></dc:creator></cc:Work></rdf:RDF></metadata><defs
   id="defs17" />
<style
   type="text/css"
   id="style2">
	.st0{stroke:#000000;stroke-width:0.5;stroke-miterlimit:10;}
</style>
<g
   transform="translate(-27.079578,-75.35)"
   id="g12"
   style="fill:#ff0000">
	<path
   class="st0"
   d="M 181.7,499.23 C 180.62,345.06 314.96,229.82 478.89,229.82 V 75.6 h -57.88 l -19.15,64.13 c -27.42,4.53 -53.97,12.27 -79.23,22.77 l -53.62,-46.99 -55.19,32.48 14.68,69.51 c -23.98,18.78 -38.14,34.23 -57,58 l -69.98,-14.96 -32.48,55.19 47.09,53.64 c -10.73,25.43 -16.55,48.12 -21.04,75.6 l -67.61,22.14 -0.15,64.02 68.45,22.95 c 4.24,26.98 10.68,50.19 20.93,75.2 l -47.51,53.14 32.68,54.99 69.62,-15.91 c 17.89,22.5 32.46,37.97 55,56 l -14.39,70.86 55.35,32.11 52.64,-46.66 c 25.81,10.86 53,18.87 81.14,23.53 L 421.01,924 h 57.88 V 769.78 C 313,769.78 182.68,652.06 181.7,499.23 Z"
   id="path4"
   style="fill:#ff0000" />
	<path
   class="st0"
   d="m 905.84,553.68 66.44,-22.54 -0.15,-64.02 -67.36,-22.08 C 900.35,418 883.73,369.17 883.73,369.17 l 46.83,-53.44 -32.42,-55.19 -70.06,15.08 -57.26,-58.14 14.97,-69.5 -55.14,-32.48 -53.58,46.91 c -25.21,-10.46 -51.69,-18.18 -79.06,-22.7 L 578.85,75.6 h -57.88 v 154.22 c 163.93,0 298.27,115.24 297.19,269.41 -1.03,152.83 -131.3,270.55 -297.19,270.55 V 924 h 57.88 l 19.77,-66.66 c 28.08,-4.65 55.21,-12.63 80.97,-23.45 l 52.55,46.58 55.4,-32.11 -15.04,-70.86 c 21.86,-17.56 38.13,-33.99 55.6,-55.78 l 69.62,15.69 32.73,-54.99 -46.93,-54.05 c 9.86,-24.24 18.09,-48.59 22.32,-74.69 z"
   id="path6"
   style="fill:#ff0000" />
	<path
   class="st0"
   d="m 683.35,394.27 c 1.86,-23.03 25.09,-63.25 29.53,-86.89 -38.98,1.14 -90.61,9.71 -217.73,13.63 -91.39,2.94 -130.47,-16.32 -173.53,2.94 -74.45,33.41 -86.07,140.44 -73.99,152.16 32.01,-65 117.36,-89.94 150.09,-83.13 6.76,55.76 -19.46,187.57 -81.01,232.7 -80.65,59.17 48.12,112.92 79.72,41.87 35.52,-79.93 49.51,-234.46 51.01,-271.94 44.56,0 87.31,1.96 118.29,1.96 -3.67,69.19 -18.12,223.15 -2.94,246.18 56.79,86.38 167.7,-37.17 188.35,-95.41 -14.25,15.49 -114.83,87.77 -126.55,41.3 -14.25,-56.23 0.41,-132.18 2.58,-194.8 22.77,-0.01 38,-0.57 56.18,-0.57 z"
   id="path8"
   style="fill:#ff0000" />
	<ellipse
   class="st0"
   cx="496.91"
   cy="531.45001"
   rx="44.299999"
   ry="68.309998"
   id="ellipse10"
   style="fill:#ff0000" />
</g>
</svg>
