<?xml version="1.0" encoding="utf-8"?>
<!-- Generator: Adobe Illustrator 23.0.3, SVG Export Plug-In . SVG Version: 6.00 Build 0)  -->
<svg version="1.1" xmlns="http://www.w3.org/2000/svg"    xmlns:dc="http://purl.org/dc/elements/1.1/"
   xmlns:cc="http://creativecommons.org/ns#"
   xmlns:rdf="http://www.w3.org/1999/02/22-rdf-syntax-ns#" xmlns:xlink="http://www.w3.org/1999/xlink" x="0px" y="0px"
	 viewBox="0 0 1000 1000" style="enable-background:new 0 0 1000 1000;" xml:space="preserve"><metadata
   id="metadata97"><rdf:RDF><cc:Work
       rdf:about=""><dc:format>image/svg+xml</dc:format><dc:type
         rdf:resource="http://purl.org/dc/dcmitype/StillImage" /><dc:title></dc:title><dc:creator><cc:Agent><dc:title>http://bakadesign.dk/warhammer-40-000-icons/</dc:title></cc:Agent></dc:creator></cc:Work></rdf:RDF></metadata>
<g style="fill:#ff0000">
<g id="Layer_3_copy">
</g>
<g id="Layer_3">
	<g>
		<path d="M841.84,313.23c-17.38,3.55-35.82,10.13-54.94,19.6l-1.45,0.72c10.45,7.51,20.86,16.5,30.73,27.33L841.84,313.23z"/>
		<path d="M274.03,228.51l-35.07,46.76c15.17,6.05,28.08,12.69,38.42,19.77l8.3,6.05c13.2-3.06,26.68-5.19,40.42-6.31l-11.23-69.24
			l46.98,68.52c38.62,1.49,78.99,10.27,120.05,26.11l45.75-64.46l-26.83,72.24c12.18,5.31,24.47,11.28,36.68,17.76l7.74-5.94
			c40.54-27.87,85.21-43.39,126.4-44.01l-22.3-50.17l50.3,52.23c14.22,2.34,39.15,8.29,65.95,23.15l4.76-2.61
			c5.69-3.12,11.46-6.03,17.21-8.69l-49.83-40.25l83.03,27.68c11.15-3.27,21.41-5.32,30.81-6.48c-2.35-14.65-5.84-29.28-10.78-43.71
			C782.38,76.53,609.92,49.89,535.28,46.42c0,0-6.38-0.42-17.2-0.42c-0.14,0-0.14,0-0.28,0c-0.14,0-0.14,0-0.28,0
			c-10.96,0-17.2,0.42-17.2,0.42c-74.51,3.47-247.11,30.11-305.38,200.49c-1.52,4.45-2.91,8.92-4.17,13.4
			c7.93,1.84,16.03,4,23.98,6.45L274.03,228.51z"/>
		<path d="M852.04,392.44c2.86-22.74,4.2-46.39,2.89-70.27l-38.74,38.73c5.94,6.52,11.69,13.69,17.13,21.59l5.63,8.63
			C843.49,391.72,847.85,392.15,852.04,392.44z"/>
		<path d="M470.21,340.83v31.88c13.97-1.52,28.59-4.27,44.55-8.38l4.19-1.78C502.61,354.19,486.33,346.94,470.21,340.83z"/>
		<path d="M452.94,373.96l15.93-33.63c-16.31-6.12-32.46-11.07-48.37-14.81l-24.48,27.98l5.32-31.9
			c-11.27-1.99-22.34-3.39-32.96-4.14c-24.48-1.74-46.04-1.34-65.93,1.44l0.4,0.37c28.75,26.94,61.06,43.9,96.02,50.39
			C418.05,373.23,435.29,374.61,452.94,373.96z"/>
		<path d="M836.48,412.88l-44.74,34.57l24.05-38.08c-11.5-2.38-23.64-5.57-36.17-9.51l-1.78-0.56l-0.46-1.81
			c-1.74-6.79,0.17-12.94,5.54-17.77l1.43-1.28l1.83,0.57c8.34,2.62,16.28,4.81,23.86,6.64l-1.56-2.28
			c-12.01-12.39-24.19-22.94-36.58-31.72l-6.8,6.54c-5.59,5.58-11.94,11-18.91,16.13l19.64,88.39l-42.08-74.13
			c-24.42,13.33-50.36,20.95-71.69,21.03l-54.9,24.4l23.69-27.08c-25.21-4.39-50.3-14.2-76.23-29.8l-9.37,3.69
			c-5.48,2.02-11.17,3.91-16.99,5.64l22.94,42.06l-47.32-35.96c-17.26,3.5-34.23,5.28-50.48,5.29c-7.47,0.41-15.23,0.34-23.12-0.22
			l1.76,40.56l-25.46-43.64c-12.49-2.36-24.97-5.86-37.16-10.42l-75.84,77.79l49.69-89.44c-10.05-5.23-19.59-11.11-28.45-17.55
			l-19.77,59.32l0.85-74.9c-3.49-3.25-6.79-6.56-9.8-9.84l-3.83-4.16c0,0-30.19,9.88-52.49,23.26l-0.8,0.48h-37.04l8.99-6.14
			c20.55-14.02,42.2-25.09,64.8-33.14l-2.44-2.23c-21.82-10.49-45.72-18.92-67.93-24.12c-4.66,24.86-5.84,49.88-4.75,74.28
			c24.32,3.07,52.17,3.03,83.29-0.19l1.74-0.18l1.15,1.32c5.6,6.44,6.32,13.58,2.07,20.66l-0.86,1.44l-1.67,0.17
			c-15.98,1.65-31.59,2.49-46.39,2.49c-13.19,0-25.72-0.66-37.56-1.94c10,98.26,51.21,181.84,37.95,197.13
			c-76.73,88.8,27.61,229.63,41.76,241.14c25.67,20.95,107.25-21.51,94.35,0.42c-9.71,16.65-18.73,142.49-18.73,142.49h33.58
			l6.52-43.84l21.64-0.28l1.39,44.12h37.18l4.16-44.82l21.64,0.69l2.08,44.12h35.8l1.66-45.23h29l1.66,45.23h35.8l2.08-44.12
			l23.03-0.69l4.16,44.82h35.8l1.39-44.12l21.64,0.28l6.52,43.84h33.58c0,0-9.02-125.84-18.73-142.49
			c-12.9-21.92,68.68,20.4,94.35-0.42c14.29-11.65,118.49-152.34,41.76-241.14c-11.77-13.64,19.26-80.93,33.42-164.49
			C844.79,413.85,840.69,413.43,836.48,412.88z M470.34,670.5c-9.99,11.24-24.42,24.56-43.98,35.52
			c-47.04,26.5-93.65,22.75-112.52,20.12c-1.25-0.14-2.5-0.55-3.47-1.25c-41.21-26.08-56.89-66.74-44.68-92.13
			c1.8-3.88,8.74-16.65,30.39-24.56c1.25-0.42,2.5-0.55,3.75-0.55c26.08,2.36,58.41,7.49,94.21,18.73
			c29,9.02,53.69,19.98,73.95,30.52C472.98,659.54,474.09,666.2,470.34,670.5z M568.85,824.37c-0.14,2.91-3.75,4.02-5.55,1.8
			c-4.44-5.69-10.54-12.21-18.73-18.18c-8.74-6.38-17.07-10.41-23.59-12.76c-6.38,2.36-14.85,6.38-23.59,12.76
			c-8.19,5.97-14.29,12.49-18.73,18.18c-1.8,2.22-5.41,1.11-5.55-1.8c-1.39-21.51-0.42-65.49,31.91-97.4
			c4.16-4.16,9.57-7.77,15.96-11.24c6.24,3.47,11.79,7.08,15.96,11.24C569.27,758.88,570.24,803,568.85,824.37z M726.47,724.89
			c-1.11,0.69-2.22,1.11-3.47,1.25c-18.87,2.64-65.35,6.38-112.52-20.12c-19.56-10.96-33.99-24.28-43.98-35.52
			c-3.75-4.3-2.64-10.96,2.5-13.6c20.26-10.54,44.95-21.51,73.95-30.52c35.94-11.24,68.26-16.37,94.21-18.73
			c1.25-0.14,2.5,0,3.75,0.55c21.51,7.91,28.44,20.81,30.39,24.56C783.36,658.15,767.68,698.94,726.47,724.89z"/>
		<path d="M564.74,353.54l-5.85,4.64c33.68,19.64,66.8,28.61,98.72,26.67c33.26-2.02,64.13-16.37,89.28-41.49l1.99-3.26
			c-35.34-18.89-70.76-25.46-110.43-16.58l2.02,33.5l-28.8-25.6C596.58,336.91,580.8,344.34,564.74,353.54z"/>
		<path d="M265.98,377.64c3.43-5.71,3-11.29-1.73-16.72c-114.99,11.87-163.31-22.16-173.73-44.14c-2.51-5.28-3.32-10.47-2.49-15.33
			l44.28,15.71l-34.15-31.42c29.44-23.72,108.12-8.92,161.92,23.02l21.85-6.72c-11.77-8.06-32.87-19.34-48.32-25.24l26.46-35.28
			l-44.83,28.92c-25.72-8.05-51.45-12.75-68.29-13.24c-10.24-0.29-19.77,0.47-28.41,2.2l0.01-0.01l-48.45-63.27l22.79,72.91
			c-3.6,2.22-6.86,4.72-9.67,7.52c-12.93,12.86-15.88,30.59-7.89,47.43c1.4,2.95,3.13,5.81,5.12,8.59l-0.07-0.04L18,364.23
			l81.45-13.33c9.93,6.99,22.14,12.96,36.29,17.59c23.56,7.71,52.14,11.61,84.2,11.61C234.61,380.1,250.01,379.28,265.98,377.64z"/>
		<path d="M609.74,424.75l41.62-18.5c0.14,0,0.27,0,0.41,0c22.65,0,49.42-8.7,73.26-22.22l32.65,57.53l-15.26-68.65
			c7.39-5.31,20.98-16.09,27.02-22.13l-16.81-10.09c-52.11,57.16-128.36,64.73-207.22,13.14l-0.52-0.32
			c-16.04-8.9-32.17-16.83-48.34-23.75l19.04-51.27l-32.47,45.75c-41.24-16.18-82.59-25.55-123.09-26.89l-39.45-57.53l9.41,58.03
			c-47.87,3.28-94.16,18.52-137.17,47.88h25.22c50.43-30.26,97.12-35.43,150.57-31.63c12.06,0.86,24.26,2.48,36.59,4.78l-3.92,23.49
			l18.02-20.59c38.1,8.74,77.33,24.21,117.17,46.29c32.75,21.39,62.63,32.55,90.93,36.49L609.74,424.75z"/>
		<path d="M443.31,394.49c15.79,0,33.24-1.74,51.39-5.53l36.03,27.38l-17.42-31.94c6.89-1.94,22.24-5.85,29.19-8.41l-20.17-11.77
			c-18.49,6.72-40.47,10.79-55.48,12.2v-23.97l-11.74,24.78c-19.58,0.88-37.84-0.73-56.86-4.27c-37.09-6.89-71.13-27.36-99.51-54.13
			l-22.49,5.95c4.02,4.44,9.29,9.68,13.06,13.14l-0.03-0.01l-0.62,54.89l14.45-43.34c10.67,8.12,22.39,15.39,34.8,21.61
			l-39.16,70.48l59.82-61.35c13.01,5.01,26.52,8.84,40.16,11.32l19.38,33.22l-1.34-30.78C425.65,394.77,434.54,394.98,443.31,394.49
			z"/>
		<path d="M660.17,261.69l16.64,37.43c-40.07-0.63-93.07,18.8-135.99,48.3l15.13,8.41c16.96-9.71,40.51-22.59,56.48-28.24
			l24.21,21.52l-1.7-28.21c64.62-15.44,136.19,14.76,178.22,65.2l21.85,5.04C800.2,340.6,743.08,308.05,698,300.96L660.17,261.69z"
			/>
		<path d="M943.07,378.47c12.51-19.38,10.06-43.7-6.24-61.95c-1.6-1.79-3.38-3.5-5.32-5.14l2.68-36.25l-18.18,26.58
			c-22.39-10.25-55.59-12.95-95.3-1.09l-66.39-22.13l39.62,32c-7.17,3.14-17.02,7.62-24.49,11.71l13.45,8.41
			c23.36-11.58,46.86-18.99,65.22-21.94l-18.15,33.71l35.49-35.49c28.5-1.12,48.91,7.45,59.81,19.43l-34.79,36.24l44.61-17.84
			c1.9,8.69,0.38,17.63-4.73,25.56c-14.93,23.14-60.92,38.44-145.2,11.96c-4.28,3.85-6.04,8.58-4.53,14.44
			c14.78,4.64,28.28,8.02,40.62,10.37l-16.5,26.12l30.79-23.79c10.33,1.4,19.75,2.03,28.31,2.03c23.39,0,40.43-4.64,52.69-10.62
			l29.43,44.15l-9.04-58.74C939.75,383.22,941.75,380.52,943.07,378.47z"/>
	</g>
</g>
</g></svg>
