<?xml version="1.0" encoding="UTF-8" standalone="no"?>
<!-- Generator: Adobe Illustrator 22.1.0, SVG Export Plug-In . SVG Version: 6.00 Build 0)  -->

<svg
   xmlns:dc="http://purl.org/dc/elements/1.1/"
   xmlns:cc="http://creativecommons.org/ns#"
   xmlns:rdf="http://www.w3.org/1999/02/22-rdf-syntax-ns#"
   xmlns:svg="http://www.w3.org/2000/svg"
   xmlns="http://www.w3.org/2000/svg"
   xmlns:sodipodi="http://sodipodi.sourceforge.net/DTD/sodipodi-0.dtd"
   xmlns:inkscape="http://www.inkscape.org/namespaces/inkscape"
   version="1.1"
   id="Layer_3"
   x="0px"
   y="0px"
   viewBox="0 0 995.40004 409"
   xml:space="preserve"
   sodipodi:docname="apothecarium-alternate-symbol.svg"
   width="995.40002"
   height="409"
   inkscape:version="0.92.3 (2405546, 2018-03-11)"><sodipodi:namedview
   pagecolor="#ffffff"
   bordercolor="#666666"
   borderopacity="1"
   objecttolerance="10"
   gridtolerance="10"
   guidetolerance="10"
   inkscape:pageopacity="0"
   inkscape:pageshadow="2"
   inkscape:window-width="451"
   inkscape:window-height="434"
   id="namedview16"
   showgrid="false"
   inkscape:zoom="0.25519944"
   inkscape:cx="497.64999"
   inkscape:cy="204.5"
   inkscape:window-x="0"
   inkscape:window-y="0"
   inkscape:window-maximized="0"
   inkscape:current-layer="Layer_3" /><metadata
   id="metadata97"><rdf:RDF><cc:Work
       rdf:about=""><dc:format>image/svg+xml</dc:format><dc:type
         rdf:resource="http://purl.org/dc/dcmitype/StillImage" /><dc:title /><dc:creator><cc:Agent><dc:title>http://bakadesign.dk/warhammer-40-000-icons/</dc:title></cc:Agent></dc:creator></cc:Work></rdf:RDF></metadata>
<g
   style="fill:#ff0000"
   id="g13">
<g
   id="g11">
	<polygon
   points="458.7,256.4 485.2,230 460.8,205.5 580.8,85.5 579,83.6 579.2,83.4 495.7,0 494.9,0.8 494.1,0 410.7,83.4 411.5,84.3 410.7,85.1 461.8,136.2 488.2,109.7 462.8,84.3 494.9,52.1 528.1,85.3 434.3,179.1 434.1,178.9 407.6,205.3 "
   id="polygon3" />
	<polygon
   points="528.1,149.5 501.6,176 530.1,204.5 410.7,323.9 411.5,324.7 410.7,325.6 494.1,409 494.9,408.2 495.7,409 579.2,325.6 578.4,324.7 579.2,323.9 528.1,272.8 501.6,299.3 527.1,324.7 494.9,356.9 462.8,324.7 556.6,231 556.8,231.2 583.2,204.7 "
   id="polygon5" />
	<path
   d="m 400.6,191.1 c -8.3,-1.7 -16.2,-6.7 -25.4,-9.9 -4.2,-2.9 -15.6,-10.4 -21.4,-27.5 -6.1,-17.7 12.4,-37.1 14.6,-40.6 9,-2.1 11.6,-1.6 20.6,-3.8 V 81.6 H 0 c 7.9,13.9 16,27.1 24.2,39.8 l 239.7,-0.9 c 0.4,1.9 0.9,3.9 1.4,6 l -227.7,15 c 15.5,22.4 31.1,42.6 46.7,61 l 183.9,-48.8 c 1,3 2,6 3.2,9.2 l -163.8,66 c 14.9,16 29.3,30.2 43.1,43 l 127.6,-79.2 c 1.1,2.2 2.2,4.4 3.3,6.7 l -114.9,87.1 c 14.8,12.9 28.4,23.8 41.1,33.2 l 88.4,-95.2 c 2.2,3.1 4.5,6.1 7,9.1 L 224,331 c 21.4,14.3 39.6,23.6 54.8,29.5 13.4,-34.2 28.7,-75.1 42,-108.5 3.1,2.5 4,3.8 7.1,5.7 l -39,106.4 c 25.9,8.5 41.4,6.7 48.2,5.5 2.1,-0.3 4.2,-0.8 6.3,-1.2 5.6,-32.1 9.7,-67.8 15.4,-99.8 2.7,0.3 5.3,0.3 7.6,0.3 l -3.8,90.2 c 8.2,-2.9 17.9,-7.3 27.3,-14.7 2.2,-1.7 4.2,-3.5 6.1,-5.2 0,-29.7 0,-59.3 0,-89.1 0.2,-1.3 2.8,1 8,-2.7 3,-2.2 6.4,-11.7 6.4,-17.2 -4.3,-10.8 -7.6,-12.9 -9,-27.9 -0.2,0.3 -0.8,-7.4 -0.8,-11.2 z"
   id="path7"
   inkscape:connector-curvature="0" />
	<path
   d="m 971.2,121.4 c 8.2,-12.7 16.3,-25.9 24.2,-39.8 h -389 v 27.6 c 9,2.2 11.6,1.7 20.6,3.8 2.1,3.5 20.6,22.9 14.6,40.6 -5.9,17.1 -17.2,24.6 -21.4,27.5 -9.2,3.3 -17.1,8.2 -25.4,9.9 0,3.8 -0.5,11.5 -0.6,11.4 -1.4,15 -4.6,17.1 -9,27.9 0,5.4 3.3,15 6.4,17.2 5.2,3.6 7.8,1.4 8,2.7 0,29.7 0,59.3 0,89.1 1.8,1.7 3.8,3.5 6.1,5.2 9.4,7.3 19.1,11.8 27.3,14.7 L 629.2,269 c 2.3,0 4.9,-0.1 7.6,-0.3 5.7,32 9.8,67.6 15.4,99.8 2,0.4 4.1,0.9 6.3,1.2 6.8,1.1 22.3,2.9 48.2,-5.5 l -39,-106.4 c 3,-1.9 3.9,-3.2 7.1,-5.7 13.3,33.4 28.6,74.3 42,108.5 15.2,-6 33.3,-15.2 54.8,-29.5 L 692,233.5 c 2.4,-2.9 4.7,-6 7,-9.1 l 88.4,95.2 c 12.7,-9.3 26.4,-20.3 41.1,-33.2 L 713.6,199.3 c 1.1,-2.2 2.2,-4.4 3.3,-6.7 l 127.6,79.2 c 13.8,-12.8 28.3,-27 43.1,-43 l -163.8,-66 c 1.2,-3.1 2.2,-6.1 3.2,-9.2 l 184,49 c 15.6,-18.4 31.2,-38.6 46.7,-61 L 730,126.6 c 0.5,-2.1 1,-4.1 1.4,-6 z"
   id="path9"
   inkscape:connector-curvature="0" />
</g>
</g></svg>