<?xml version="1.0" encoding="utf-8"?>
<svg version="1.1" id="Layer_3" 
	 xmlns="http://www.w3.org/2000/svg"    xmlns:dc="http://purl.org/dc/elements/1.1/"
   xmlns:cc="http://creativecommons.org/ns#"
   xmlns:rdf="http://www.w3.org/1999/02/22-rdf-syntax-ns#" xmlns:xlink="http://www.w3.org/1999/xlink" x="0px" y="0px" viewBox="0 0 1000 1000"
	 style="enable-background:new 0 0 1000 1000;" xml:space="preserve"><metadata
   id="metadata97"><rdf:RDF><cc:Work
       rdf:about=""><dc:format>image/svg+xml</dc:format><dc:type
         rdf:resource="http://purl.org/dc/dcmitype/StillImage" /><dc:title></dc:title><dc:creator><cc:Agent><dc:title>http://bakadesign.dk/warhammer-40-000-icons/</dc:title></cc:Agent></dc:creator></cc:Work></rdf:RDF></metadata>
<g style="fill:#ff0000">
		<g>
			<path d="M501.15,606.04c4.85,24.6,3.13,40.23-1.63,53.75c-27.69-36.3-56.16-55.92-89.58-60.26c23.78-4.98,56.7,5.11,86.32,43.98
				c1.11-48.03-25.07-92.52-71.67-130.3c14.66-1.63,47.23,17.92,68.41,39.09c8.14-48.86-27.62-83.91-70.04-110.76
				c35.83,3.26,57.01,14.66,74.92,30.95c-4.89-48.86-25.85-76.2-60.26-102.61c4.18-54.34-5.85-104.43-26.06-151.47
				c3.86-12.61,37.47-8.49,96.1-4.89c35.83,26.06,130.3,120.53,184.05,40.72l6.52-27.69c24.06-76.17-0.53-125.11-43.98-162.88
				c-12.1,41.3-32.5,72.97-70.04,84.7c-108.37-1.92-191.12,2.18-258.97,9.77c-46.24-6.98-76.55,11.4-97.73,55.38
				c-44.29,8.19-109.42,49.74-177.53,96.1c-36.04,8.41-23.67,40.49-6.52,74.92l14.66-42.35l6.52,13.03L48.35,394.3
				c5.13,46.84,19.25,74.24,47.23,71.67c11.84,9,24.76,16.74,39.09,22.8c-4.92-9.71-8-19.09-6.52-27.69
				C245.43,358.47,348.04,479,305.69,532.75c-45.61,47.23-112.38,81.44-140.07,42.35c2.46,17.37-1.47,31.4,8.14,43.98
				c-12.17,8.28,0,29.32,6.52,37.46c7.28,42.26,21.42,65.2,29.32,73.29c6.65-20.39,7.6-38.59,22.8-42.35
				c-1.04,11.02,10.98,22.86,19.55,37.46c9.77-43.98,42.35-97.73,131.93-102.61c28.85,39.33,59.7,97.12,39.09,224.77
				c41.74-17.21,89.58,0,110.76,47.23C576.27,767.99,575.97,665.91,501.15,606.04z M308.95,203.74
				c-18.92,16.52-41.19,28.86-65.15,39.09c12.95-19.88,27.17-37.48,43.98-50.49c0,0,17.92-3.26,21.17,0
				C312.21,195.6,308.95,203.74,308.95,203.74z"/>
			<path d="M701.48,260.75c-32.35,37.02-79.8,68.38-200.34-40.72c-21.02-4.75-52.01-3.52-81.44-1.63
				c16.58,56.53,27.87,107.59,27.69,146.59c27.69,27.69,50.49,48.86,57.01,118.9c-18.16-17.96-40.91-28.85-65.15-37.46
				c39.09,29.32,70.04,63.52,58.64,115.64c-16.36-15.48-34.35-28.39-53.75-39.09c24.12,26.32,43.81,54.82,60.26,78.18
				c82.99,59.62,74.49,166,42.35,288.29c42.35-52.12,185.68-84.7,270.37-78.18c6.52-32.58,144.96-198.71,162.88-206.85
				C854.05,496.77,751.69,391.54,701.48,260.75z"/>
		</g>

</g></svg>
