<?xml version="1.0" encoding="utf-8"?>
<!-- Generator: Adobe Illustrator 23.0.1, SVG Export Plug-In . SVG Version: 6.00 Build 0)  -->
<svg version="1.1" id="Layer_4_copy_2" xmlns="http://www.w3.org/2000/svg"    xmlns:dc="http://purl.org/dc/elements/1.1/"
   xmlns:cc="http://creativecommons.org/ns#"
   xmlns:rdf="http://www.w3.org/1999/02/22-rdf-syntax-ns#" xmlns:xlink="http://www.w3.org/1999/xlink" x="0px"
	 y="0px" viewBox="0 0 1000 1000" style="enable-background:new 0 0 1000 1000;" xml:space="preserve"><metadata
   id="metadata97"><rdf:RDF><cc:Work
       rdf:about=""><dc:format>image/svg+xml</dc:format><dc:type
         rdf:resource="http://purl.org/dc/dcmitype/StillImage" /><dc:title></dc:title><dc:creator><cc:Agent><dc:title>http://bakadesign.dk/warhammer-40-000-icons/</dc:title></cc:Agent></dc:creator></cc:Work></rdf:RDF></metadata>
<g style="fill:#ff0000">
<g>
	<path d="M679.79,355.18c-32.91-95.99-130.08-111-172.13-112.96c0,0-3.6-0.23-9.69-0.23c-0.08,0-0.08,0-0.16,0
		c-0.08,0-0.08,0-0.16,0c-6.18,0-9.69,0.23-9.69,0.23c-41.98,1.95-139.22,16.96-172.05,112.96
		c-28.06,81.92,25.09,174.48,14.31,186.91c-43.23,50.03,15.56,129.37,23.53,135.86c14.46,11.8,60.43-12.12,53.16,0.23
		c-5.47,9.38-10.55,80.28-10.55,80.28h14.23l6.8-24.7l12.19-0.16l2.35,24.86h24.86l2.35-23.69l8.29-1.17l1.17,24.86h20.17
		l0.94-25.48h16.34l0.94,25.48h20.17l1.17-24.86l8.29,1.17l2.35,23.69h24.86l2.35-24.86l12.19,0.16l6.8,24.7h14.23
		c0,0-5.08-70.9-10.55-80.28c-7.27-12.35,38.69,11.49,53.16-0.23c8.05-6.57,66.76-85.83,23.53-135.86
		C654.7,529.58,707.77,437.03,679.79,355.18z M471.07,593.84c-5.63,6.33-13.76,13.84-24.78,20.01
		c-26.5,14.93-52.77,12.82-63.4,11.33c-0.7-0.08-1.41-0.31-1.95-0.7c-23.22-14.7-32.05-37.6-25.17-51.91
		c1.02-2.19,4.92-9.38,17.12-13.84c0.7-0.23,1.41-0.31,2.11-0.31c14.7,1.33,32.91,4.22,53.08,10.55
		c16.34,5.08,30.25,11.26,41.67,17.2C472.56,587.66,473.18,591.42,471.07,593.84z M526.57,680.53c-0.08,1.64-2.11,2.27-3.13,1.02
		c-2.5-3.21-5.94-6.88-10.55-10.24c-4.92-3.6-9.62-5.86-13.29-7.19c-3.6,1.33-8.36,3.6-13.29,7.19c-4.61,3.36-8.05,7.04-10.55,10.24
		c-1.02,1.25-3.05,0.63-3.13-1.02c-0.78-12.12-0.23-36.9,17.98-54.88c2.35-2.35,5.39-4.38,8.99-6.33c3.52,1.95,6.64,3.99,8.99,6.33
		C526.81,643.63,527.36,668.49,526.57,680.53z M615.38,624.48c-0.63,0.39-1.25,0.63-1.95,0.7c-10.63,1.49-36.82,3.6-63.4-11.33
		c-11.02-6.18-19.15-13.68-24.78-20.01c-2.11-2.42-1.49-6.18,1.41-7.66c11.41-5.94,25.33-12.12,41.67-17.2
		c20.25-6.33,38.46-9.22,53.08-10.55c0.7-0.08,1.41,0,2.11,0.31c12.12,4.46,16.03,11.73,17.12,13.84
		C647.43,586.88,638.59,609.86,615.38,624.48z"/>
	<path d="M280.45,152.43l0.72,0.97l0.22,1.19c1.61,8.71,4.29,29.49-5.6,34.44c-5.82,2.91-13.31,2.72-18.17,2.16
		c-4.79,17.95-0.09,33.47,1.62,38.17l45.15,34.83c53.07-44.07,121.24-70.57,195.61-70.57c73.92,0,141.73,26.18,194.66,69.78
		l44.12-34.03c1.71-4.69,6.41-20.21,1.62-38.17c-4.86,0.57-12.35,0.75-18.17-2.16c-9.9-4.95-7.21-25.73-5.6-34.44l0.22-1.19
		l0.72-0.97c8.47-11.46,26.41-26.44,45.72-38.16c3.47-2.11,7.75-4.56,12.5-7l-83.66-48.3l-33.04,57.23
		c-32.66-13.76-67.47-23.4-103.79-28.3V22H445.87v65.75c-36.34,4.79-71.18,14.34-103.87,28.01L308.88,58.4l-85.6,49.42
		c4.33,2.25,8.24,4.5,11.45,6.46C254.04,126,271.99,140.98,280.45,152.43z"/>
	<path d="M90.98,747.56c0.33-0.55,0.65-1.09,0.97-1.61c11.73-19.31,26.71-37.25,38.16-45.72l0.97-0.72l1.19-0.22
		c8.71-1.61,29.49-4.29,34.44,5.6c2.89,5.77,2.72,13.19,2.17,18.06c16.59,4.08,32.34,1.72,37.91-1.18l39.37-50.15
		C213,622.66,193.62,563.59,193.62,500c0-62.8,18.91-121.18,51.32-169.78l-38.16-48.99c-5.58-2.9-21.32-5.25-37.9-1.17
		c0.55,4.86,0.72,12.28-2.17,18.06c-4.95,9.9-25.73,7.21-34.44,5.6l-1.19-0.22l-0.97-0.72c-11.46-8.47-26.44-26.41-38.16-45.72
		c-0.59-0.97-1.21-2.01-1.84-3.1l-31.13,53.92l59.98,34.63c-12.85,32.25-21.73,66.52-26.03,102.2H22v109.42h72.31
		c5.12,34.99,14.65,68.54,28.03,100.07L58.4,691.12L90.98,747.56z"/>
	<path d="M978,555.29V445.87h-70.79c-4.2-35.7-12.97-69.99-25.73-102.27l60.12-34.71l-32.7-56.64c-0.99,1.73-1.94,3.35-2.83,4.82
		c-11.73,19.31-26.71,37.25-38.16,45.72l-0.97,0.72l-1.19,0.22c-8.71,1.61-29.49,4.29-34.44-5.6c-2.89-5.77-2.72-13.19-2.17-18.06
		c-16.58-4.08-32.32-1.73-37.9,1.17l-37.08,47.61c32.98,48.87,52.23,107.77,52.23,171.16c0,63.79-19.5,123.02-52.86,172.07
		l39.01,49.7c5.57,2.9,21.32,5.25,37.91,1.18c-0.56-4.87-0.72-12.29,2.17-18.06c4.95-9.9,25.73-7.21,34.44-5.6l1.19,0.22l0.97,0.72
		c11.46,8.47,26.44,26.41,38.16,45.72c0.42,0.69,0.86,1.43,1.31,2.18l32.34-56.01l-63.82-36.85c13.46-31.5,23.1-65.02,28.32-99.98
		H978z"/>
	<path d="M718.88,850.57l-0.72-0.97l-0.22-1.19c-1.61-8.71-4.3-29.49,5.6-34.44c5.82-2.91,13.31-2.72,18.17-2.16
		c4.77-17.88,0.12-33.35-1.6-38.11l-47.77-35.22c-52.58,42.46-119.48,67.91-192.33,67.91c-73,0-140.02-25.55-192.65-68.17
		l-48.12,35.48c-1.73,4.76-6.37,20.23-1.6,38.11c4.86-0.57,12.35-0.75,18.17,2.16c9.9,4.95,7.21,25.73,5.6,34.44l-0.22,1.19
		l-0.72,0.97c-8.47,11.46-26.41,26.43-45.72,38.16c-2.53,1.53-5.49,3.25-8.75,5.01l81.89,47.28l38.41-66.53
		c31.09,12.58,64.08,21.46,98.42,26.08V978h109.42v-77.27c34.35-4.53,67.37-13.31,98.49-25.81l38.49,66.67l82.57-47.67
		c-3.39-1.82-6.48-3.61-9.09-5.2C745.29,877.01,727.34,862.03,718.88,850.57z"/>
	<path d="M133.23,298.55c0,0,25.07,4.64,28.79-2.79c3.71-7.43,0.93-19.5,0.93-19.5c19.87-6.25,40.28-3.56,47.36,0.93l83.53,107.24
		c5.24-34.07,13.13-68.29,40.32-90.66l-79.27-61.15c-2.91-7.03-8.17-26.45-0.93-47.36c0,0,12.07,2.79,19.5-0.93
		c7.43-3.71,2.79-28.79,2.79-28.79c-15.79-21.36-69.64-58.5-97.5-54.79c-26,26-7.43,55.71-7.43,55.71s0,16.71-10.21,26.93
		c-10.21,10.21-26.93,10.21-26.93,10.21s-29.71-18.57-55.71,7.43C74.73,228.91,111.87,282.77,133.23,298.55z"/>
	<path d="M721.79,155.56c0,0-4.64,25.07,2.79,28.79c7.43,3.71,19.5,0.93,19.5,0.93c7.24,20.91,1.98,40.32-0.93,47.36l-79.27,61.15
		c27.19,22.37,35.08,56.59,40.32,90.66l83.53-107.24c7.07-4.49,27.49-7.18,47.36-0.93c0,0-2.79,12.07,0.93,19.5
		c3.71,7.43,28.79,2.79,28.79,2.79c21.36-15.79,58.5-69.64,54.79-97.5c-26-26-55.71-7.43-55.71-7.43s-16.71,0-26.93-10.21
		c-10.21-10.21-10.21-26.93-10.21-26.93s18.57-29.71-7.43-55.71C791.43,97.06,737.57,134.2,721.79,155.56z"/>
	<path d="M276.23,847.45c0,0,4.64-25.07-2.79-28.79c-7.43-3.71-19.5-0.93-19.5-0.93c-7.24-20.91-1.98-40.32,0.93-47.36l98.97-72.97
		c-27.19-22.37-46.9-53.96-52.14-88.03L210.3,725.81c-7.07,4.49-27.49,7.18-47.36,0.93c0,0,2.79-12.07-0.93-19.5
		c-3.71-7.43-28.79-2.79-28.79-2.79c-21.36,15.79-58.5,69.64-54.79,97.5c26,26,55.71,7.43,55.71,7.43s16.71,0,26.93,10.21
		c10.21,10.21,10.21,26.93,10.21,26.93s-18.57,29.71,7.43,55.71C206.59,905.95,260.44,868.8,276.23,847.45z"/>
	<path d="M866.1,704.45c0,0-25.07-4.64-28.79,2.79s-0.93,19.5-0.93,19.5c-19.87,6.25-40.28,3.56-47.36-0.93l-91.41-116.43
		c-5.24,34.07-24.95,65.66-52.14,88.03l98.97,72.97c2.91,7.03,8.17,26.45,0.93,47.36c0,0-12.07-2.79-19.5,0.93
		c-7.43,3.71-2.79,28.79-2.79,28.79c15.79,21.36,69.64,58.5,97.5,54.79c26-26,7.43-55.71,7.43-55.71s0-16.71,10.21-26.93
		c10.21-10.21,26.93-10.21,26.93-10.21s29.71,18.57,55.71-7.43C924.6,774.09,887.45,720.23,866.1,704.45z"/>
</g>
</g></svg>
