<?xml version="1.0" encoding="UTF-8" standalone="no"?>
<svg
   xmlns:dc="http://purl.org/dc/elements/1.1/"
   xmlns:cc="http://creativecommons.org/ns#"
   xmlns:rdf="http://www.w3.org/1999/02/22-rdf-syntax-ns#"
   xmlns:svg="http://www.w3.org/2000/svg"
   xmlns="http://www.w3.org/2000/svg"
   version="1.1"
   id="Layer_2"
   x="0px"
   y="0px"
   viewBox="0 0 722.35388 966"
   xml:space="preserve"
   width="722.35388"
   height="966"><metadata
   id="metadata2740"><rdf:RDF><cc:Work
       rdf:about=""><dc:format>image/svg+xml</dc:format><dc:type
         rdf:resource="http://purl.org/dc/dcmitype/StillImage" /><dc:title></dc:title><dc:creator><cc:Agent><dc:title>https://bakadesign.dk/warhammer-40-000-icons/</dc:title></cc:Agent></dc:creator></cc:Work></rdf:RDF></metadata><defs
   id="defs2738" />
<path
   d="M 170.59387,966 C 112.24387,841.79 92.303869,687.31 89.803869,519.1 155.12387,508.79 249.65387,453.78 247.94387,359.25 c -13.75,-63.6 -79.07,-67.04 -79.07,-67.04 -67.04,0 -65.32,46.41 -116.880001,42.97 C -8.1661315,297.37 0.4238685,228.61 0.4238685,228.61 8.6038685,195.12 18.543869,165.14 36.523869,151.26 225.02387,172.73 489.27387,62.42 722.35387,0 c -233.77,140.95 -211.44,348 0,352.37 -149.44,8.63 -264.71,120.32 -158.14,295.64 -316.27,-97.97 -398.43,90.21 -393.62,317.99 z"
   id="path2733"
   style="fill:#ffff00" />
</svg>
