<?xml version="1.0" encoding="UTF-8" standalone="no"?>
<!-- Generator: Adobe Illustrator 23.0.3, SVG Export Plug-In . SVG Version: 6.00 Build 0)  -->

<svg
   xmlns:dc="http://purl.org/dc/elements/1.1/"
   xmlns:cc="http://creativecommons.org/ns#"
   xmlns:rdf="http://www.w3.org/1999/02/22-rdf-syntax-ns#"
   xmlns:svg="http://www.w3.org/2000/svg"
   xmlns="http://www.w3.org/2000/svg"
   xmlns:sodipodi="http://sodipodi.sourceforge.net/DTD/sodipodi-0.dtd"
   xmlns:inkscape="http://www.inkscape.org/namespaces/inkscape"
   version="1.1"
   id="Layer_2"
   x="0px"
   y="0px"
   viewBox="0 0 778.03998 936"
   xml:space="preserve"
   sodipodi:docname="blood-swords-symbol.svg"
   width="778.03998"
   height="936"
   inkscape:version="0.92.3 (2405546, 2018-03-11)"><defs
   id="defs16" /><sodipodi:namedview
   pagecolor="#ffffff"
   bordercolor="#666666"
   borderopacity="1"
   objecttolerance="10"
   gridtolerance="10"
   guidetolerance="10"
   inkscape:pageopacity="0"
   inkscape:pageshadow="2"
   inkscape:window-width="451"
   inkscape:window-height="434"
   id="namedview14"
   showgrid="false"
   inkscape:zoom="0.236"
   inkscape:cx="384.1"
   inkscape:cy="467"
   inkscape:window-x="0"
   inkscape:window-y="0"
   inkscape:window-maximized="0"
   inkscape:current-layer="Layer_2" /><metadata
   id="metadata97"><rdf:RDF><cc:Work
       rdf:about=""><dc:format>image/svg+xml</dc:format><dc:type
         rdf:resource="http://purl.org/dc/dcmitype/StillImage" /><dc:title /><dc:creator><cc:Agent><dc:title>http://bakadesign.dk/warhammer-40-000-icons/</dc:title></cc:Agent></dc:creator></cc:Work></rdf:RDF></metadata>
<g
   style="fill:#ff0000"
   id="g11"
   transform="translate(-115.9,-31)">
<g
   id="g9">
	<path
   d="m 848.32,880.81 -91.52,-137.59 29.06,-24.82 47.81,1.8 28.12,-81.81 -86.13,8.93 -11.91,45.61 -20.11,18.05 c 0,0 -422.59,-560.92 -431.21,-573.14 C 303.81,125.61 171.01,31 171.01,31 c 0,0 46.81,145.98 64.49,165.09 17.68,19.1 450.89,558.23 450.89,558.23 l -22.82,14.47 -44.42,2.67 -34.65,76.91 86.37,-4.89 11.23,-46.5 31.77,-21.24 107.62,125.39 0.89,45.77 70.11,20.1 1.45,-74.28 z"
   id="path3"
   inkscape:connector-curvature="0" />
	<path
   d="m 313.47,380.47 c -14.22,61.37 -33.33,140.24 -34.61,155.86 0,0.07 0,0.13 0,0.2 0.07,19.65 16.03,35.55 35.68,35.55 19.65,0 35.61,-15.9 35.68,-35.55 0,-0.07 0,-0.13 0,-0.2 -0.07,-9.12 -20.79,-96.71 -34.74,-155.86 -0.27,-1.01 -1.75,-1.01 -2.01,0 z"
   id="path5"
   inkscape:connector-curvature="0" />
	<path
   d="m 164.35,169.01 c -19.91,85.92 -46.67,196.35 -48.45,218.23 0,0.09 0,0.19 0,0.28 0.09,27.51 22.44,49.77 49.96,49.77 27.52,0 49.86,-22.26 49.96,-49.77 0,-0.09 0,-0.19 0,-0.28 -0.09,-12.77 -29.11,-135.41 -48.64,-218.23 -0.39,-1.41 -2.45,-1.41 -2.83,0 z"
   id="path7"
   inkscape:connector-curvature="0" />
</g>
</g></svg>