<?xml version="1.0" encoding="utf-8"?>
<!-- Generator: Adobe Illustrator 22.1.0, SVG Export Plug-In . SVG Version: 6.00 Build 0)  -->
<svg version="1.1" id="Layer_2" xmlns="http://www.w3.org/2000/svg"    xmlns:dc="http://purl.org/dc/elements/1.1/"
   xmlns:cc="http://creativecommons.org/ns#"
   xmlns:rdf="http://www.w3.org/1999/02/22-rdf-syntax-ns#" xmlns:xlink="http://www.w3.org/1999/xlink" x="0px" y="0px"
	 viewBox="0 0 1000 1000" style="enable-background:new 0 0 1000 1000;" xml:space="preserve"><metadata
   id="metadata97"><rdf:RDF><cc:Work
       rdf:about=""><dc:format>image/svg+xml</dc:format><dc:type
         rdf:resource="http://purl.org/dc/dcmitype/StillImage" /><dc:title></dc:title><dc:creator><cc:Agent><dc:title>http://bakadesign.dk/warhammer-40-000-icons/</dc:title></cc:Agent></dc:creator></cc:Work></rdf:RDF></metadata>
<g style="fill:#ff0000">
<path d="M800.5,214C800.5,214,800.5,214,800.5,214c-10.1-29.1-3.3-73.2,29.7-112.2c0.3-0.3,0.1-0.9-0.4-1
	c-99.1-12.9-189.9,30.3-278,92.7c-0.1,0.1-0.2,0.1-0.3,0.1c-179,4.5-361,41.4-544.7,98.7c-0.4,0.1-0.5,0.6-0.3,0.9
	c26.4,35,89.1,68.7,165.4,101.8c0.2,0.1,0.3,0.2,0.3,0.4c1.7,6.2,4.7,11.9,9.5,16.9c0.3,0.3,0.8,0.2,1-0.2
	c3.8-8.6,8.8-16.2,14.2-21.2c0.3-0.3,0.9-0.1,1,0.3c0.9,5.1,2.3,9.4,4.6,12.5c0.2,0.3,0.6,0.3,0.8,0.1c8.7-6.5,17.8-11.2,27.6-13.4
	c0.4-0.1,0.8,0.4,0.7,0.8c-1.7,4.1-1.1,8.7,0.3,13.4c0.1,0.4,0.6,0.5,0.9,0.3c7.6-5.1,15.1-9.3,22.4-10.8c0.5-0.1,0.8,0.4,0.6,0.8
	c-1.4,3.7-1.4,6.8-1,9.8c0.1,0.4,0.4,0.6,0.8,0.4c7.8-2.7,15.9-4.6,24.3-4.8c0.2,0,0.5,0.1,0.6,0.4l2.3,5.7c0.1,0.2,0.2,0.3,0.4,0.3
	c27.7-8.2,42.3-2.1,47.4,14.6c0.5,0.2,0.5,0.9,0,1.1c-8.8,2.8-18.5,8.1-28.7,14.7h-7.6c-1.2,3.1-1.7,3.8-0.6,5.5
	c-0.4,0.3-0.9,0.6-1.3,1c-4.3,0.4-7.4,1.3-10.8,0.3c-0.5-0.2-1.1,0.3-0.9,0.8c0.3,1.5,0.9,4.2,1.4,6.4c-1.8,1.3-3.6,2.7-5.4,4
	c-3.9-0.7-8.6-2.1-10.6-3.2c-0.5-0.3-1.1,0.1-1.1,0.6c-0.3,4.5,0.3,8.4,1.8,10c0,0,0,0,0,0c-4.2,0.5-9-1.3-12.2-4.3
	c-0.5-0.5-1.3-0.2-1.4,0.5c-0.5,2.9-0.3,9.4,0.3,13.9c-1.5,1.1-3,2.3-4.5,3.4c-0.2,0.2-0.3,0.5-0.2,0.7l4.8,9.5
	c0.1,0.1,0.2,0.2,0.3,0.3c7.9,3.6,37-3.8,97.4-22.9c0.1,0,0.2,0,0.3,0c43.2,8.3,89.8,13.6,146.5,13.9c0.3,0,0.6,0.2,0.6,0.5
	c4,60.4,37.8,122.7,98.6,166.5c2.9,2.1,6.9-0.4,6.4-3.9c-9-59-7.3-116.9,44.4-131.3c0.1,0,0.3,0,0.4,0.1
	c22.1,17.7,32.2,25.7,40.1,35.1c13.8,16.5,19,26.1,21.9,34.6c4.8,13.7,4.9,25.6,5.1,34.3c0.1,5,0.2,19.8-3.8,34.3
	c-4.9,17.6-15.1,28.9-34.9,51c-15,16.7-23.9,26.6-38.7,37.9c-23,17.5-43.7,25.9-58.4,31.7c-38.9,15.4-70.6,18.1-77.9,18.5
	c-16.1,1.1-29.6-0.6-51-1.6c-68.3-3.4-116.2-32.2-133.8-80.2c0-0.1,0-0.2,0-0.3c13.9-65.5,23-119.7,18.7-152.5
	c-0.3-2.3-3.3-3.2-4.8-1.3c-36.3,45-75.8,93.1-104.1,95.6c0,0-0.1,0-0.1,0c-53,0-119.8-82.4-199.3-154.9c-3.1-2.8-7.7,0.6-6.1,4.4
	c49.5,117.3,117,221,215.5,266c0.1,0,0.1,0.1,0.2,0.1c117.7,117.4,237.4,145.8,357.8,148.4c0,0,0.1,0,0.1,0
	c210-21.1,370.5-138.3,395.9-340.1c0,0,0,0,0-0.1C997.2,377.7,822.1,258.5,800.5,214z M230.7,260.9c-0.9,2.8-24.7,9.1-55.8,16.5
	c-1.6-1.8,31.7-16.5,39.3-19C221.8,255.9,233.5,260,230.7,260.9z M426.1,415.8c16.8-41.4,30.3-80.8,38.1-116.8
	c0,0,5.1,21.6-6.3,54.6C447.7,384,426.1,415.8,426.1,415.8z M459.1,414.5c16.3-40.2,29.4-78.5,37-113.4c0,0,4.9,21-6.2,53
	C480.1,383.7,459.1,414.5,459.1,414.5z M519.6,361.9c-9.2,28.3-28.8,57.7-28.8,57.7c15.2-38.4,27.4-75,34.5-108.3
	C525.3,311.2,529.9,331.3,519.6,361.9z"/>
</g></svg>
