<?xml version="1.0" encoding="UTF-8" standalone="no"?>
<!-- Generator: Adobe Illustrator 21.0.2, SVG Export Plug-In . SVG Version: 6.00 Build 0)  -->

<svg
   xmlns:dc="http://purl.org/dc/elements/1.1/"
   xmlns:cc="http://creativecommons.org/ns#"
   xmlns:rdf="http://www.w3.org/1999/02/22-rdf-syntax-ns#"
   xmlns:svg="http://www.w3.org/2000/svg"
   xmlns="http://www.w3.org/2000/svg"
   xmlns:sodipodi="http://sodipodi.sourceforge.net/DTD/sodipodi-0.dtd"
   xmlns:inkscape="http://www.inkscape.org/namespaces/inkscape"
   version="1.1"
   id="Layer_1"
   x="0px"
   y="0px"
   viewBox="0 0 873 912.2"
   xml:space="preserve"
   sodipodi:docname="dark-angels-symbol.svg"
   width="873"
   height="912.20001"
   inkscape:version="0.92.3 (2405546, 2018-03-11)"><defs
   id="defs14" /><sodipodi:namedview
   pagecolor="#ffffff"
   bordercolor="#666666"
   borderopacity="1"
   objecttolerance="10"
   gridtolerance="10"
   guidetolerance="10"
   inkscape:pageopacity="0"
   inkscape:pageshadow="2"
   inkscape:window-width="451"
   inkscape:window-height="434"
   id="namedview12"
   showgrid="false"
   inkscape:zoom="0.25871519"
   inkscape:cx="436.5"
   inkscape:cy="456.09999"
   inkscape:window-x="0"
   inkscape:window-y="0"
   inkscape:window-maximized="0"
   inkscape:current-layer="Layer_1" /><metadata
   id="metadata97"><rdf:RDF><cc:Work
       rdf:about=""><dc:format>image/svg+xml</dc:format><dc:type
         rdf:resource="http://purl.org/dc/dcmitype/StillImage" /><dc:title /><dc:creator><cc:Agent><dc:title>http://bakadesign.dk/warhammer-40-000-icons/</dc:title></cc:Agent></dc:creator></cc:Work></rdf:RDF></metadata>
<g
   style="fill:#ff0000"
   id="g9">
<path
   d="m 0,275.9 c 88.3,-0.1 176.6,-0.2 264.9,-0.2 1.8,15.9 7.9,51.2 34,86.2 27.5,36.9 61.8,52.9 76.7,58.8 L 341.2,737 253.9,705.3 301.5,606 c -6.2,-3.7 -12.7,-7.7 -19.3,-12.2 -7,-4.7 -13.5,-9.4 -19.5,-14 -26,24.9 -52,49.9 -78,74.8 l -57.2,-62.5 83.4,-61.4 c -5,-6.3 -10.1,-13 -15.2,-20.2 -6.3,-8.8 -12,-17.5 -17.2,-25.8 -33.2,16.1 -66.3,32.1 -99.5,48.2 L 30.6,439.2 c 41.2,-7.4 82.4,-14.8 123.6,-22.3 -1.5,-5.8 -2.8,-12.3 -3.8,-19.3 -1,-7 -1.6,-13.6 -1.8,-19.5 -45,0.3 -90,0.5 -135,0.8 z"
   id="path3"
   inkscape:connector-curvature="0" />
<path
   d="m 873,275.9 c -88.3,-0.1 -176.6,-0.2 -264.9,-0.2 -1.8,15.9 -7.9,51.2 -34,86.2 -27.5,36.9 -61.8,52.9 -76.7,58.8 L 531.8,737 619.1,705.3 571.6,606 c 6.2,-3.7 12.7,-7.7 19.3,-12.2 7,-4.7 13.5,-9.4 19.5,-14 26,24.9 52,49.9 78,74.8 l 57.2,-62.5 -83.4,-61.4 c 5,-6.3 10.1,-13 15.2,-20.2 6.3,-8.8 12,-17.5 17.2,-25.8 33.2,16.1 66.3,32.1 99.5,48.2 l 48.4,-93.7 c -41.2,-7.4 -82.4,-14.8 -123.6,-22.3 1.5,-5.8 2.8,-12.3 3.8,-19.3 1,-7 1.6,-13.6 1.8,-19.5 45,0.3 90,0.5 135,0.8 z"
   id="path5"
   inkscape:connector-curvature="0" />
<polygon
   points="459.6,143.5 471.8,304.5 497.4,304.5 526.6,275.7 574,324.4 526.7,371.4 500.4,345.2 476.1,345.7 505.5,748.3 437.1,912.2 365.6,748.5 397.6,345.5 374.6,345.4 347.5,370.6 298.6,321.5 345.6,275.7 375.6,304.5 402.5,304.5 415,144 370.6,109.5 437,0 503.3,109.1 "
   id="polygon7" />
</g></svg>