<?xml version="1.0" encoding="UTF-8" standalone="no"?>
<!-- Generator: Adobe Illustrator 23.0.3, SVG Export Plug-In . SVG Version: 6.00 Build 0)  -->

<svg
   xmlns:dc="http://purl.org/dc/elements/1.1/"
   xmlns:cc="http://creativecommons.org/ns#"
   xmlns:rdf="http://www.w3.org/1999/02/22-rdf-syntax-ns#"
   xmlns:svg="http://www.w3.org/2000/svg"
   xmlns="http://www.w3.org/2000/svg"
   xmlns:sodipodi="http://sodipodi.sourceforge.net/DTD/sodipodi-0.dtd"
   xmlns:inkscape="http://www.inkscape.org/namespaces/inkscape"
   version="1.1"
   id="Layer_3"
   x="0px"
   y="0px"
   viewBox="0 0 490.42001 933.83002"
   xml:space="preserve"
   sodipodi:docname="dark-eldar-symbol.svg"
   width="490.42001"
   height="933.83002"
   inkscape:version="0.92.3 (2405546, 2018-03-11)"><defs
   id="defs10" /><sodipodi:namedview
   pagecolor="#ffffff"
   bordercolor="#666666"
   borderopacity="1"
   objecttolerance="10"
   gridtolerance="10"
   guidetolerance="10"
   inkscape:pageopacity="0"
   inkscape:pageshadow="2"
   inkscape:window-width="451"
   inkscape:window-height="434"
   id="namedview8"
   showgrid="false"
   inkscape:zoom="0.236"
   inkscape:cx="239"
   inkscape:cy="467"
   inkscape:window-x="0"
   inkscape:window-y="0"
   inkscape:window-maximized="0"
   inkscape:current-layer="Layer_3" /><metadata
   id="metadata97"><rdf:RDF><cc:Work
       rdf:about=""><dc:format>image/svg+xml</dc:format><dc:type
         rdf:resource="http://purl.org/dc/dcmitype/StillImage" /><dc:title /><dc:creator><cc:Agent><dc:title>http://bakadesign.dk/warhammer-40-000-icons/</dc:title></cc:Agent></dc:creator></cc:Work></rdf:RDF></metadata>
<g
   style="fill:#ff0000"
   id="g5"
   transform="translate(-261,-33.17)">
<path
   d="m 738.63,368.94 12.79,7.58 C 741.22,333.83 731.07,292.85 721.6,271.37 l 7.84,-1.61 c -15,-35.56 -29.4,-66.68 -42.06,-85.27 l 8.61,-2.79 c -20.03,-35.02 -40.26,-69.47 -65.43,-89.65 -1.62,-3.4 2.5,-6.09 10.54,-8.3 -21.54,-21.19 -45.23,-38.43 -71.67,-50.58 25.46,39.45 43.36,76.82 54.17,114.05 0.58,-0.9 1.3,-1.52 2.16,-1.8 4.7,-1.53 11.84,7.44 15.95,20.04 4.11,12.6 3.62,24.06 -1.08,25.59 -2.38,0.77 -5.38,-1.14 -8.29,-4.84 7.69,48.61 3.64,98.13 -11.16,152.81 42.35,-37.31 20.97,-2.28 16.22,24.23 11.87,-16.74 20.68,-18.55 28.75,-14.09 0,0 18.12,13.63 -6.25,39.06 -67.24,40.39 -27.89,-6.51 -27.89,-6.51 -39.73,7.32 -65.15,-9.98 -85.62,-19.13 16.18,14.95 26.2,29.85 25.35,43.79 l -9.7,-0.41 C 537.62,346.4 518.07,282.04 500,219 c -5.39,45.23 -11.98,87.35 -19.7,126.58 2.17,-2.42 4.59,-3.67 6.88,-3.22 5.15,1.02 7.67,10.19 5.63,20.48 -2.04,10.29 -7.86,17.81 -13,16.8 -2.42,-0.48 -4.25,-2.77 -5.31,-6.12 -5.43,24.88 -11.33,48.53 -17.68,71.02 L 443,448 c -3.64,-13.48 3.17,-30.1 16,-48 -18.2,13.09 -39.61,35.15 -80,36 0,0 48,38 -26,12 -29,-20 -14,-37 -14,-37 7,-6 16,-6 31,8 -10,-25 -38,-55 11,-27 -25.53,-50.57 -39.48,-98.25 -41.75,-147.42 -2.11,4.22 -4.66,6.7 -7.15,6.42 -4.92,-0.55 -7.7,-11.68 -6.22,-24.85 1.48,-13.17 6.67,-23.4 11.58,-22.85 0.9,0.1 1.73,0.56 2.48,1.32 3.08,-38.63 13.08,-78.85 30.06,-122.62 -23.45,17.24 -43.17,38.9 -60,64 8.32,0.54 12.9,2.35 12,6 -20.58,24.84 -33.44,62.66 -46,101 l 9,1 c -8.66,20.76 -16.48,54.14 -24,92 h 8 c -4.95,22.94 -6.62,65.13 -8,109 l 11,-10 c 5.7,57.29 22,127 62,200 -22,-91 15,-122 60,-131 16.85,7.33 23.36,20.36 26.53,35.61 -7.19,17.15 -14.72,33.41 -22.58,48.82 1.44,-0.41 2.81,-0.39 4.03,0.14 4.8,2.12 5.35,11.41 1.22,20.76 -4.13,9.35 -11.36,15.21 -16.16,13.09 -2.18,-0.96 -3.47,-3.42 -3.86,-6.68 -26.36,45.93 -55.95,83.51 -88.18,114.26 41.26,-27.71 82.92,-51.02 125,-69.43 -0.04,-0.05 -0.09,-0.1 -0.12,-0.15 -2.81,-4.43 1.9,-12.46 10.53,-17.94 8.63,-5.48 17.9,-6.32 20.71,-1.9 1.24,1.96 1.01,4.62 -0.37,7.45 16.99,-6.42 34.05,-12.02 51.18,-16.78 16,8.33 26.26,53.19 -8.93,33.75 5.31,23.26 5.05,44.01 0,63 4.26,1.36 8.05,3.16 11.38,5.38 -36.23,24.87 -64.13,33.16 -91.38,17.62 11.36,45.64 -15.34,99.56 -49,155 27.39,-31.05 54.69,-60.21 81.9,-84.94 -1.29,-0.11 -2.31,-0.52 -2.94,-1.3 -3.07,-3.77 3.64,-14.32 14.99,-23.55 11.35,-9.24 23.04,-13.67 26.11,-9.9 0.56,0.69 0.79,1.6 0.73,2.69 12.09,-8.86 24.16,-16.62 36.21,-23 0.62,-0.25 1.26,-0.31 1.88,-0.21 0.75,5.07 1.03,10.57 0.87,16.45 C 503.59,847.26 466.99,906.35 424,967 511.78,878.57 595.61,800.99 668,745 635.4,762.49 605.83,773.93 582.6,774.59 566.3,771.6 556.7,763.8 554,751 c 5.43,-22 21,-31 21,-8 21.54,-29.06 36.64,-30.12 46,-7 l 35,-102 c -36.37,44.47 -69.45,70.42 -96,50 -20,5 -27,-15 -1,-21 -23.97,-5.99 22.87,-31.93 46.9,-39.96 0.06,0 0.13,-0.01 0.19,-0.02 -2.54,-1.49 -4.09,-3.41 -4.09,-5.52 0,-4.69 7.61,-8.5 17,-8.5 9.39,0 17,3.81 17,8.5 0,1.59 -0.89,3.07 -2.4,4.34 32.19,-0.49 64.65,2.16 97.4,8.16 -10.8,-6.29 -21.08,-13.32 -30.9,-20.98 0.08,2 -0.43,3.73 -1.64,4.94 -3.45,3.45 -11.16,1.34 -17.21,-4.71 -6.05,-6.05 -8.16,-13.76 -4.71,-17.21 0.62,-0.62 1.37,-1.05 2.23,-1.32 -11.48,-10.8 -22.28,-22.54 -32.44,-35.1 -0.17,0.72 -0.5,1.34 -1,1.8 -2.43,2.25 -7.9,0.31 -12.22,-4.35 -4.32,-4.65 -5.86,-10.26 -3.43,-12.51 1.05,-0.98 2.68,-1.16 4.54,-0.68 -6.82,-9.32 -13.34,-19.04 -19.59,-29.07 -1.39,-19.3 0.41,-37.01 18.43,-49.69 45.89,-0.26 88.38,22.64 85.19,116.21 C 742.7,497.77 744.6,426.2 738.63,368.94 Z M 584.71,571.68 c -0.49,4.64 -6.23,9.52 -14.08,11.55 -9.04,2.34 -17.46,0.03 -18.8,-5.16 -0.21,-0.81 -0.21,-1.65 -0.07,-2.49 -37.22,6.32 -74.18,19.01 -108.76,37.42 32.38,-64.66 55.75,-139.18 71,-215 9.84,26.73 21.49,54.32 35.05,80.88 0.35,-0.48 0.76,-0.88 1.27,-1.17 3.22,-1.86 8.4,1.1 11.58,6.6 3.18,5.5 3.14,11.47 -0.07,13.33 -0.73,0.42 -1.57,0.59 -2.46,0.54 14.83,26.52 31.67,51.48 50.63,72.82 -8.39,-0.12 -16.83,0.12 -25.29,0.68 z"
   id="path3"
   inkscape:connector-curvature="0" />
</g></svg>