<?xml version="1.0" encoding="UTF-8" standalone="no"?>
<!-- Generator: Adobe Illustrator 22.0.1, SVG Export Plug-In . SVG Version: 6.00 Build 0)  -->

<svg
   xmlns:dc="http://purl.org/dc/elements/1.1/"
   xmlns:cc="http://creativecommons.org/ns#"
   xmlns:rdf="http://www.w3.org/1999/02/22-rdf-syntax-ns#"
   xmlns:svg="http://www.w3.org/2000/svg"
   xmlns="http://www.w3.org/2000/svg"
   xmlns:sodipodi="http://sodipodi.sourceforge.net/DTD/sodipodi-0.dtd"
   xmlns:inkscape="http://www.inkscape.org/namespaces/inkscape"
   version="1.1"
   id="arrows"
   x="0px"
   y="0px"
   viewBox="0 0 969.8 931.3"
   xml:space="preserve"
   sodipodi:docname="death-guard-symbol.svg"
   width="969.79999"
   height="931.29999"
   inkscape:version="0.92.3 (2405546, 2018-03-11)"><defs
   id="defs18" /><sodipodi:namedview
   pagecolor="#ffffff"
   bordercolor="#666666"
   borderopacity="1"
   objecttolerance="10"
   gridtolerance="10"
   guidetolerance="10"
   inkscape:pageopacity="0"
   inkscape:pageshadow="2"
   inkscape:window-width="640"
   inkscape:window-height="480"
   id="namedview16"
   showgrid="false"
   inkscape:zoom="0.25340922"
   inkscape:cx="484.89999"
   inkscape:cy="465.65001"
   inkscape:window-x="0"
   inkscape:window-y="0"
   inkscape:window-maximized="0"
   inkscape:current-layer="arrows" /><metadata
   id="metadata97"><rdf:RDF><cc:Work
       rdf:about=""><dc:format>image/svg+xml</dc:format><dc:type
         rdf:resource="http://purl.org/dc/dcmitype/StillImage" /><dc:title></dc:title><dc:creator><cc:Agent><dc:title>http://bakadesign.dk/warhammer-40-000-icons/</dc:title></cc:Agent></dc:creator></cc:Work></rdf:RDF></metadata>
<g
   style="fill:#ff0000"
   id="g13">
<g
   id="g11">
	<path
   d="m 749.9,395.1 101.7,-57.5 20.6,65.9 97.6,-261.9 -223,0.8 24.6,50.8 -63.6,46 c 0,-1.4 0.1,-2.9 0.1,-4.3 C 707.9,105.2 602.8,0 473,0 356.7,0 260.2,84.5 241.5,195.5 L 188.9,155.1 227,121 0,81.3 77,406.7 103.1,321 l 100,85.7 0.4,0.3 C 106.8,422.8 33,506.8 33,608 c 0,112.5 91.2,203.7 203.7,203.7 75.2,0 140.9,-40.8 176.2,-101.5 l 5.4,89.4 -33.3,-6.3 103.8,138 106.4,-148.4 -33.3,11.9 c 0,0 1.8,-58.7 3.8,-77.7 36.9,49.4 95.8,81.4 162.2,81.4 111.7,0 202.3,-90.6 202.3,-202.3 0,-104.3 -78.9,-190.1 -180.3,-201.1 z m -513.3,344 c -72.4,0 -131.1,-58.7 -131.1,-131.1 0,-72.4 58.7,-131.1 131.1,-131.1 72.4,0 131.2,58.6 131.2,131 0,72.4 -58.7,131.2 -131.2,131.2 z M 471.5,393.9 c -90,0 -162.9,-72.9 -162.9,-162.9 0,-90 72.9,-162.9 162.9,-162.9 90,0 162.9,72.9 162.9,162.9 0,90 -72.9,162.9 -162.9,162.9 z M 727.8,737.1 C 650,737.1 586.9,674 586.9,596.2 c 0,-77.8 63.2,-140.9 141,-140.9 77.8,0 140.8,63.1 140.8,140.9 0,77.8 -63.1,140.9 -140.9,140.9 z"
   id="path3"
   inkscape:connector-curvature="0" />
	<path
   d="m 318.7,542.6 c -14.8,-43.3 -58.7,-50.1 -77.7,-51 0,0 -1.6,-0.1 -4.4,-0.1 0,0 0,0 -0.1,0 0,0 0,0 -0.1,0 -2.8,0 -4.4,0.1 -4.4,0.1 -18.9,0.9 -62.8,7.7 -77.6,51 -12.7,37 11.3,78.7 6.5,84.3 -19.5,22.6 7,58.4 10.6,61.3 6.5,5.3 27.3,-5.5 24,0.1 -2.5,4.2 -4.8,36.2 -4.8,36.2 h 6.4 l 3.1,-11.1 5.5,-0.1 1.1,11.2 H 218 l 1.1,-10.7 3.7,-0.5 0.5,11.2 h 9.1 L 233,713 h 7.4 l 0.4,11.5 h 9.1 l 0.5,-11.2 3.7,0.5 1.1,10.7 h 11.2 l 1.1,-11.2 5.5,0.1 3.1,11.1 h 6.4 c 0,0 -2.3,-32 -4.8,-36.2 -3.3,-5.6 17.5,5.2 24,-0.1 3.6,-3 30.1,-38.7 10.6,-61.3 -4.9,-5.7 19.1,-47.4 6.4,-84.3 z m -94.1,107.6 c -2.5,2.9 -6.2,6.2 -11.2,9 -12,6.7 -23.8,5.8 -28.6,5.1 -0.3,0 -0.6,-0.1 -0.9,-0.3 -10.5,-6.6 -14.5,-17 -11.4,-23.4 0.5,-1 2.2,-4.2 7.7,-6.2 0.3,-0.1 0.6,-0.1 1,-0.1 6.6,0.6 14.8,1.9 23.9,4.8 7.4,2.3 13.6,5.1 18.8,7.8 1.3,0.5 1.6,2.2 0.7,3.3 z m 25,39.1 c 0,0.7 -1,1 -1.4,0.5 -1.1,-1.4 -2.7,-3.1 -4.8,-4.6 -2.2,-1.6 -4.3,-2.6 -6,-3.2 -1.6,0.6 -3.8,1.6 -6,3.2 -2.1,1.5 -3.6,3.2 -4.8,4.6 -0.5,0.6 -1.4,0.3 -1.4,-0.5 -0.4,-5.5 -0.1,-16.6 8.1,-24.8 1.1,-1.1 2.4,-2 4.1,-2.9 1.6,0.9 3,1.8 4.1,2.9 8.2,8.2 8.5,19.4 8.1,24.8 z m 40.1,-25.2 c -0.3,0.2 -0.6,0.3 -0.9,0.3 -4.8,0.7 -16.6,1.6 -28.6,-5.1 -5,-2.8 -8.6,-6.2 -11.2,-9 -1,-1.1 -0.7,-2.8 0.6,-3.5 5.1,-2.7 11.4,-5.5 18.8,-7.8 9.1,-2.9 17.4,-4.2 23.9,-4.8 0.3,0 0.6,0 1,0.1 5.5,2 7.2,5.3 7.7,6.2 3.1,6.6 -0.8,17 -11.3,23.6 z"
   id="path5"
   inkscape:connector-curvature="0" />
	<path
   d="m 812.3,528.9 c -15.3,-44.6 -60.4,-51.5 -79.9,-52.4 0,0 -1.7,-0.1 -4.5,-0.1 0,0 0,0 -0.1,0 0,0 0,0 -0.1,0 -2.9,0 -4.5,0.1 -4.5,0.1 -19.5,0.9 -64.6,7.9 -79.9,52.4 -13,38 11.6,81 6.6,86.8 -20.1,23.2 7.2,60.1 10.9,63.1 6.7,5.5 28.1,-5.6 24.7,0.1 -2.5,4.4 -4.9,37.3 -4.9,37.3 h 6.6 l 3.2,-11.5 5.7,-0.1 1.1,11.5 h 11.5 l 1.1,-11 3.8,-0.5 0.5,11.5 h 9.4 l 0.4,-11.8 h 7.6 l 0.4,11.8 h 9.4 l 0.5,-11.5 3.8,0.5 1.1,11 h 11.5 l 1.1,-11.5 5.7,0.1 3.2,11.5 h 6.6 c 0,0 -2.4,-32.9 -4.9,-37.3 -3.4,-5.7 18,5.3 24.7,-0.1 3.7,-3 31,-39.8 10.9,-63.1 -4.9,-5.9 19.8,-48.8 6.8,-86.8 z m -96.9,110.8 c -2.6,2.9 -6.4,6.4 -11.5,9.3 -12.3,6.9 -24.5,6 -29.4,5.3 -0.3,0 -0.7,-0.1 -0.9,-0.3 -10.8,-6.8 -14.9,-17.5 -11.7,-24.1 0.5,-1 2.3,-4.4 7.9,-6.4 0.3,-0.1 0.7,-0.1 1,-0.1 6.8,0.6 15.3,2 24.6,4.9 7.6,2.4 14,5.2 19.3,8 1.4,0.5 1.7,2.2 0.7,3.4 z m 25.7,40.2 c 0,0.8 -1,1.1 -1.5,0.5 -1.2,-1.5 -2.8,-3.2 -4.9,-4.8 -2.3,-1.7 -4.5,-2.7 -6.2,-3.3 -1.7,0.6 -3.9,1.7 -6.2,3.3 -2.1,1.6 -3.7,3.3 -4.9,4.8 -0.5,0.6 -1.4,0.3 -1.5,-0.5 -0.4,-5.6 -0.1,-17.1 8.3,-25.5 1.1,-1.1 2.5,-2 4.2,-2.9 1.6,0.9 3.1,1.9 4.2,2.9 8.7,8.4 8.9,19.9 8.5,25.5 z m 41.3,-26 c -0.3,0.2 -0.6,0.3 -0.9,0.3 -4.9,0.7 -17.1,1.7 -29.4,-5.3 -5.1,-2.9 -8.9,-6.4 -11.5,-9.3 -1,-1.1 -0.7,-2.9 0.7,-3.6 5.3,-2.8 11.8,-5.6 19.3,-8 9.4,-2.9 17.9,-4.3 24.6,-4.9 0.3,0 0.7,0 1,0.1 5.6,2.1 7.4,5.4 7.9,6.4 3.1,6.8 -1,17.5 -11.7,24.3 z"
   id="path7"
   inkscape:connector-curvature="0" />
	<path
   d="M 578.6,140.6 C 559.2,84.1 502,75.3 477.3,74.1 c 0,0 -2.1,-0.1 -5.7,-0.1 0,0 0,0 -0.1,0 0,0 0,0 -0.1,0 -3.6,0 -5.7,0.1 -5.7,0.1 -24.7,1.2 -81.9,10 -101.3,66.5 -16.5,48.2 14.8,102.7 8.4,110 -25.4,29.4 9.2,76.1 13.8,80 8.5,6.9 35.6,-7.1 31.3,0.1 -3.2,5.5 -6.2,47.3 -6.2,47.3 h 8.4 l 4,-14.5 7.2,-0.1 1.4,14.6 h 14.6 l 1.4,-13.9 4.9,-0.7 0.7,14.6 h 11.9 l 0.6,-15 h 9.6 l 0.6,15 h 11.9 l 0.7,-14.6 4.9,0.7 1.4,13.9 h 14.6 l 1.4,-14.6 7.2,0.1 4,14.5 h 8.4 c 0,0 -3,-41.7 -6.2,-47.3 -4.3,-7.3 22.8,6.8 31.3,-0.1 4.7,-3.9 39.3,-50.5 13.8,-80 -6.6,-7.3 24.7,-61.8 8.2,-110 z M 455.8,281.1 c -3.3,3.7 -8.1,8.1 -14.6,11.8 -15.6,8.8 -31.1,7.5 -37.3,6.7 -0.4,0 -0.8,-0.2 -1.2,-0.4 -13.7,-8.7 -18.9,-22.1 -14.8,-30.6 0.6,-1.3 2.9,-5.5 10.1,-8.1 0.4,-0.1 0.8,-0.2 1.2,-0.2 8.7,0.8 19.4,2.5 31.2,6.2 9.6,3 17.8,6.6 24.5,10.1 1.7,0.9 2.1,3.1 0.9,4.5 z m 32.6,51 c 0,1 -1.2,1.3 -1.8,0.6 -1.5,-1.9 -3.5,-4 -6.2,-6 -2.9,-2.1 -5.7,-3.5 -7.8,-4.2 -2.1,0.8 -4.9,2.1 -7.8,4.2 -2.7,2 -4.7,4.1 -6.2,6 -0.6,0.7 -1.8,0.4 -1.8,-0.6 -0.5,-7.1 -0.1,-21.7 10.6,-32.3 1.4,-1.4 3.2,-2.6 5.3,-3.7 2.1,1.2 3.9,2.3 5.3,3.7 10.6,10.6 10.9,25.2 10.4,32.3 z m 52.3,-33 c -0.4,0.2 -0.7,0.4 -1.2,0.4 -6.3,0.9 -21.7,2.1 -37.3,-6.7 -6.5,-3.6 -11.3,-8.1 -14.6,-11.8 -1.2,-1.4 -0.9,-3.6 0.8,-4.5 6.7,-3.5 14.9,-7.1 24.5,-10.1 11.9,-3.7 22.6,-5.4 31.2,-6.2 0.4,0 0.8,0 1.2,0.2 7.1,2.6 9.4,6.9 10.1,8.1 4.2,8.5 -1,22 -14.7,30.6 z"
   id="path9"
   inkscape:connector-curvature="0" />
</g>
</g></svg>