<?xml version="1.0" encoding="utf-8"?>
<!-- Generator: Adobe Illustrator 22.1.0, SVG Export Plug-In . SVG Version: 6.00 Build 0)  -->
<svg version="1.1" id="Layer_3" xmlns="http://www.w3.org/2000/svg"    xmlns:dc="http://purl.org/dc/elements/1.1/"
   xmlns:cc="http://creativecommons.org/ns#"
   xmlns:rdf="http://www.w3.org/1999/02/22-rdf-syntax-ns#" xmlns:xlink="http://www.w3.org/1999/xlink" x="0px" y="0px"
	 viewBox="0 0 873 912.2" style="enable-background:new 0 0 873 912.2;" xml:space="preserve"><metadata
   id="metadata97"><rdf:RDF><cc:Work
       rdf:about=""><dc:format>image/svg+xml</dc:format><dc:type
         rdf:resource="http://purl.org/dc/dcmitype/StillImage" /><dc:title></dc:title><dc:creator><cc:Agent><dc:title>http://bakadesign.dk/warhammer-40-000-icons/</dc:title></cc:Agent></dc:creator></cc:Work></rdf:RDF></metadata>
<g style="fill:#ff0000">
<g>
	<path d="M308.6,336.2c-25.9-30.2-32-60.6-33.7-74.3c-87.6,0-175.2,0.1-262.9,0.2l13.5,88.8c44.7-0.3,89.3-0.4,134-0.7
		c0.2,5.1,0.8,10.8,1.8,16.8c1,6,2.3,11.6,3.8,16.6c-40.9,6.5-81.8,12.8-122.7,19.2l48,80.8c32.9-13.9,65.8-27.7,98.7-41.6
		c5.2,7.2,10.8,14.7,17.1,22.2c5.1,6.2,10.1,12,15.1,17.4l-82.8,52.9l56.8,53.9c25.8-21.5,51.6-43,77.4-64.5c6,4,12.4,8,19.4,12.1
		c6.5,3.9,13,7.3,19.2,10.5L264,632.3l86.6,27.3l34.1-272.7C369.9,381.8,335.9,368,308.6,336.2z"/>
	<path d="M713.6,350.1c44.7,0.3,89.3,0.4,134,0.7l13.5-88.8c-87.6-0.1-175.2-0.2-262.9-0.2c-1.8,13.7-7.8,44.1-33.7,74.3
		c-27.3,31.8-61.3,45.6-76.1,50.7l34.1,272.7l86.6-27.3l-47.2-85.6c6.2-3.2,12.6-6.6,19.2-10.5c6.9-4.1,13.4-8.1,19.4-12.1
		c25.8,21.5,51.6,43,77.4,64.5l56.8-53.9l-82.8-52.9c5-5.4,10-11.2,15.1-17.4c6.3-7.6,11.9-15.1,17.1-22.2
		c32.9,13.9,65.8,27.7,98.7,41.6l48-80.8c-40.9-6.4-81.8-12.8-122.7-19.2c1.5-5,2.8-10.6,3.8-16.6
		C712.8,360.9,713.4,355.2,713.6,350.1z"/>
	<polygon points="438.4,560.2 462.2,580.6 377.2,649.6 372.4,708.2 437.9,858.1 500.5,708 487.4,523.7 	"/>
	<polygon points="380.7,339.1 401.7,339.2 379.3,621.6 430,579.4 411.8,561.4 485.2,498.6 473.6,339.4 495.8,338.9 519.9,362.9 
		563.2,319.9 519.8,275.3 493.1,301.6 469.7,301.6 458.5,154.2 498.5,122.7 437.8,22.8 377,123.1 417.6,154.7 406.2,301.6 
		381.6,301.6 354.1,275.3 311.1,317.2 355.8,362.2 	"/>
</g>
</g></svg>
