<?xml version="1.0" encoding="UTF-8" standalone="no"?>
<!-- Generator: Adobe Illustrator 23.0.3, SVG Export Plug-In . SVG Version: 6.00 Build 0)  -->

<svg
   xmlns:dc="http://purl.org/dc/elements/1.1/"
   xmlns:cc="http://creativecommons.org/ns#"
   xmlns:rdf="http://www.w3.org/1999/02/22-rdf-syntax-ns#"
   xmlns:svg="http://www.w3.org/2000/svg"
   xmlns="http://www.w3.org/2000/svg"
   xmlns:xlink="http://www.w3.org/1999/xlink"
   xmlns:sodipodi="http://sodipodi.sourceforge.net/DTD/sodipodi-0.dtd"
   xmlns:inkscape="http://www.inkscape.org/namespaces/inkscape"
   version="1.1"
   id="Layer_3"
   x="0px"
   y="0px"
   viewBox="0 0 836.02002 836.01001"
   xml:space="preserve"
   sodipodi:docname="evil-sunz-symbol.svg"
   width="836.02002"
   height="836.01001"
   inkscape:version="0.92.3 (2405546, 2018-03-11)"><defs
   id="defs32" /><sodipodi:namedview
   pagecolor="#ffffff"
   bordercolor="#666666"
   borderopacity="1"
   objecttolerance="10"
   gridtolerance="10"
   guidetolerance="10"
   inkscape:pageopacity="0"
   inkscape:pageshadow="2"
   inkscape:window-width="640"
   inkscape:window-height="480"
   id="namedview30"
   showgrid="false"
   inkscape:zoom="0.236"
   inkscape:cx="423.26"
   inkscape:cy="409.25"
   inkscape:window-x="0"
   inkscape:window-y="0"
   inkscape:window-maximized="0"
   inkscape:current-layer="Layer_3" /><metadata
   id="metadata97"><rdf:RDF><cc:Work
       rdf:about=""><dc:format>image/svg+xml</dc:format><dc:type
         rdf:resource="http://purl.org/dc/dcmitype/StillImage" /><dc:title></dc:title><dc:creator><cc:Agent><dc:title>http://bakadesign.dk/warhammer-40-000-icons/</dc:title></cc:Agent></dc:creator></cc:Work></rdf:RDF></metadata>
<g
   style="fill:#ff0000"
   id="g27"
   transform="translate(-76.74,-73.24)">
		<g
   id="g21">
			<path
   d="m 511.59,551.54 c -0.07,-0.07 -0.17,-0.17 -0.35,-0.35 -0.02,-0.02 -0.03,0 -0.04,0.02 0.16,0.14 0.29,0.25 0.37,0.33 0.01,-0.01 0.01,0 0.02,0 z"
   id="path3"
   inkscape:connector-curvature="0" />
			<path
   d="m 529,551 c -3,1 -8.11,0.21 -11.28,1.91 -1.56,-0.19 -3.11,-0.48 -4.65,-0.87 -0.47,-0.21 -0.97,-0.36 -1.48,-0.5 0.11,0.11 0.1,0.1 -0.01,0 -0.13,-0.03 -0.26,-0.08 -0.39,-0.11 0.01,-0.05 0.01,-0.17 0.02,-0.22 -0.83,-0.71 -2.51,-1.96 -2.86,-0.82 -0.09,0.3 -0.16,0.6 -0.21,0.89 -0.14,0.6 -0.28,1.2 -0.43,1.79 -0.31,0.17 -0.55,0.45 -0.62,0.88 -1.06,6.48 -6.96,11.05 -13.54,10.54 -5.09,-0.39 -9.23,-3.57 -11.87,-7.72 -0.96,-2.15 -1.7,-4.41 -2.32,-6.67 -0.28,-1 -1.34,-1.3 -2.2,-0.9 -2.71,1.28 -5.13,1.55 -8.07,0.95 -0.24,-0.05 -0.45,-0.05 -0.65,0 -2.5,-0.44 -6.93,-0.71 -9.43,-1.15 -1.89,-0.33 -0.78,2.38 1.12,2.71 1.53,0.27 2.35,1.02 3.88,1.29 0.18,0.54 1.35,0.51 2.07,0.57 5.95,0.46 9.75,4.76 13.86,8.56 1.03,1.78 2.2,3.38 3.62,4.52 2.24,1.8 5.29,2.05 8.16,1.85 1.28,0.2 2.6,0.29 3.97,0.23 12.1,-0.58 19.85,-11.37 31.28,-13.26 1.38,-0.24 3.12,-4.83 2.03,-4.47 z"
   id="path5"
   inkscape:connector-curvature="0" />
			<path
   d="m 598.4,553.56 c -4.64,-8.5 -10.97,-15.94 -17.2,-23.29 -1.25,-1.47 -1.87,2.42 -1.75,2.56 2.42,19.46 1.85,39.19 -2.05,58.42 -0.39,1.94 -0.83,3.88 -1.29,5.81 -2.27,-1.68 -6.21,-3.04 -8.19,-3.76 -4.42,-1.63 -8.31,0.45 -12.78,0.26 -1.12,-2.72 -2.54,-5.32 -4.25,-7.75 -0.73,-1.04 -3.59,-4.44 -4.19,0.76 -1.19,-1.43 -2.76,-2.69 -3.89,-4.3 -0.39,-0.56 -1.01,-0.76 -1.56,-0.67 -0.52,-1.87 -1.79,-3.5 -4.02,-4.46 -2.95,-1.27 -6.47,-0.24 -8.4,2.3 -0.38,0.49 -0.5,1.29 -0.49,2.16 -0.12,-0.48 -0.56,-0.88 -1.03,-1.01 -4.06,-1.1 -7.97,-1.21 -12.1,-0.41 -0.22,0.04 -0.41,0.15 -0.57,0.29 -1.02,-1.91 -2.61,-3.39 -4.9,-3.67 -1.8,-0.22 -3.13,0.55 -4.22,1.94 -0.62,0.79 -1.18,1.66 -1.72,2.55 -0.25,-0.26 -0.59,-0.44 -1.03,-0.47 -4.19,-0.26 -8.37,-0.41 -12.56,-0.38 -1.77,0.01 -4.41,-0.41 -5.88,1.03 -0.1,0.09 -0.17,0.21 -0.25,0.32 -1.04,-1.95 -2.76,-3.53 -5.18,-4.52 -5.73,-2.32 -9.15,0.17 -11.52,4.74 -1.84,-3.63 -8.03,-2.1 -11.67,-2.17 -0.63,-0.01 -1.3,0.47 -1.45,1.1 -0.05,0.2 -0.1,0.41 -0.15,0.61 -0.52,-1.25 -1.36,-2.4 -2.63,-3.38 -4.65,-3.6 -8.91,0.35 -10.53,3.78 -0.08,-0.02 -0.17,-0.04 -0.25,-0.04 -1.32,0.01 -2.5,0.14 -3.73,0.41 -0.34,-0.5 -0.97,-0.61 -1.54,-0.42 0,-0.02 -0.01,-0.04 -0.01,-0.06 -0.16,-1.34 -2.03,-2.21 -2.8,-0.76 -0.34,0.65 -0.65,1.3 -0.96,1.96 -0.27,-0.31 -0.66,-0.52 -1.1,-0.51 -6.92,0.18 -13.6,1.3 -20.18,3.42 -0.05,0.02 -0.08,0.04 -0.13,0.06 -1.54,-7.11 -2.94,-14.26 -4.15,-21.41 -2.02,-11.96 -2.93,-24.06 -0.34,-35.99 0.02,-0.02 0.04,-0.04 0.07,-0.05 1.34,-1.05 -0.18,-2.82 -1.58,-2.4 -0.48,0.02 -0.93,0.25 -1.15,0.76 -6.58,5.18 -13.18,10.49 -18.12,17.33 -4.97,6.88 -8,15.05 -9.44,23.38 -2.97,17.28 -0.12,37.4 5.89,53.8 2.88,7.88 7.72,15.17 13.42,21.31 4.27,4.6 9.05,5.61 13.78,1.01 3.47,-3.38 6.61,-7.21 9.84,-10.82 1.89,-2.11 3.72,-3.83 3.42,-6.84 -0.02,-0.19 -0.05,-0.38 -0.08,-0.57 0.26,0.01 0.52,-0.05 0.77,-0.21 1.61,-1.04 4.5,-2.21 5.98,-3.86 1.87,3.63 5.2,6.89 9.35,7.25 4.7,0.41 10.5,-4.23 12.77,-8.12 2.35,0.58 5.19,0.53 6.54,-0.37 0.35,-0.23 0.6,-0.51 0.78,-0.82 0.35,1.57 1.41,2.42 3.07,3.21 4.46,2.12 10.93,0.41 13.11,-3.29 0.27,-0.46 0.09,-1.47 -0.36,-2.77 0.45,0.18 1.01,0.26 1.82,0.3 2.37,0.12 7.04,0.12 9.12,-1.17 1.12,-0.69 1.38,-1.49 1.86,-2.71 0.35,-0.9 0.66,-1.8 0.96,-2.69 -0.68,2.29 -1.25,4.42 0.43,6.44 2.63,3.17 7.63,4.27 10.7,1.32 0.22,-0.22 0.91,-0.47 1.18,-1.35 0.33,0.22 0.75,0.31 1.21,0.21 3.94,-0.88 7.76,-1.16 11.78,-0.91 0.67,0.04 1.16,-0.43 1.38,-1 0.14,1.05 0.49,2.01 1.16,2.78 0.37,0.43 0.81,0.55 1.22,0.46 0.17,0.19 0.4,0.35 0.71,0.44 3.27,0.96 10.12,-0.27 11.22,-4.19 0.02,-0.08 0.03,-0.17 0.04,-0.25 2.75,0.5 5.41,1.19 8.08,2.12 0.59,0.21 1.41,-0.13 1.69,-0.69 0,0 0,0 0,0 -0.04,0.12 -0.09,0.24 -0.13,0.37 -2.19,7.47 6.56,10.67 12.57,9.75 2.38,-0.36 3.96,-1.98 5.01,-4.13 2.08,2.63 7.88,3.1 10.64,3.73 -0.46,1.26 -0.74,2.48 -0.64,3.54 0.24,2.5 2.57,3.41 4.51,4.66 4.18,2.69 8.37,5.37 12.55,8.06 2.36,1.51 4.82,3.89 7.78,2.86 5.56,-1.93 10.51,-10 13,-14.92 7.75,-15.32 6.35,-32.87 3.28,-49.22 -1.72,-9.28 -3.98,-18.44 -8.55,-26.79 z m -180.8,75.86 c -0.87,1.71 -3.18,3.5 -4.44,4.89 -2.07,2.29 -5.53,7.92 -8.52,8.91 -1.88,0.62 -5.79,-0.87 -7.17,-2.03 -0.59,-0.5 -1.1,-1.23 -1.59,-1.81 -1.44,-1.68 -2.81,-3.42 -4.12,-5.21 -2.56,-3.49 -4.8,-7.22 -6.5,-11.2 -3.22,-7.53 -4.77,-15.87 -6.13,-23.92 -1.45,-8.57 -2.19,-17.36 -1.32,-26.04 0.89,-8.86 3.48,-17.67 8.34,-25.18 4.2,-6.49 10.03,-11.59 16.03,-16.39 -2.29,14.13 -0.17,28.36 2.58,42.37 3.2,16.3 6.41,32.74 12.55,48.23 1.04,2.63 1.74,4.52 0.29,7.38 z m 16.53,-5.59 c -4.36,-3.58 -4.66,-9.26 -4.61,-14.44 0.08,-7.62 0.91,-15.15 3.61,-22.21 1.9,12.16 5.17,23.87 13.86,32.81 -3.58,3.84 -7.84,7.97 -12.86,3.84 z m 17.54,-36.96 c -0.23,2.8 -1.56,5.28 -3.11,7.58 -0.85,-0.53 -1.59,-1.22 -2.24,-2.04 -0.54,-0.9 -1,-1.72 -1.19,-2.05 -0.23,-0.39 -0.43,-0.8 -0.63,-1.2 -0.49,-1.29 -0.86,-2.76 -1.08,-4.42 0.26,-0.32 1.65,-5.36 4.48,-5.29 1.24,0.48 2.18,1.3 2.81,2.44 0.88,1.53 1.1,3.27 0.96,4.98 z m 9.74,32.57 c -1.33,-1.39 -0.17,-4.39 0.09,-5.98 0.3,-1.89 1.01,-9.53 2.68,-9.57 1.14,-0.03 2.97,5.26 3.68,6.5 0.58,1.03 2.91,6.02 3.02,6.59 0.92,5.2 -7.39,4.63 -9.47,2.46 z m 18.17,-24.22 c -0.71,1.48 -1.33,4.12 -3.2,3.74 -1.56,-0.32 -2.2,-2.29 -2.94,-3.6 -1.84,-3.27 -3.19,-6.72 -4.23,-10.32 0.05,-0.08 0.1,-0.16 0.14,-0.25 0.57,-1.38 1.37,-3.47 2.61,-4.48 2.3,-1.87 6.75,-0.55 8.64,1.43 3.57,3.77 0.79,9.7 -1.02,13.48 z m 17,20.68 c -4.7,1.75 -6.5,-1.53 -6.41,-3.84 0.04,-1.13 0.75,-2.47 1.09,-3.53 0.4,-1.26 1.78,-7.74 2.93,-8.24 3.65,-1.58 4.81,14.71 2.39,15.61 z m 16.35,-27.77 c -0.3,2.33 -1.53,7.37 -3.88,8.33 -3.54,1.44 -7.22,-6.71 -5.72,-7.94 1.06,-2.1 2.11,-4.46 3.53,-6.13 1.77,-2.09 3.69,-3.08 5.28,-0.26 1.03,1.83 1.05,4 0.79,6 z m 11.69,26.38 c -1.43,1.48 -4.65,1.79 -6.48,1.25 -0.2,-0.06 -0.38,-0.07 -0.55,-0.06 -0.02,-0.03 -0.03,-0.05 -0.06,-0.08 -1.14,-1.33 0.62,-6.22 1.05,-7.75 0.35,-1.27 0.66,-2.74 1.26,-3.91 0.65,-1.27 0.27,-1.58 1.44,-0.27 1.63,1.82 2.76,4.61 3.63,6.84 0.08,0.21 0.16,0.41 0.23,0.61 0.04,0.53 0.05,0.95 0.05,1.24 0,0.24 0.08,0.5 0.21,0.74 -0.1,0.48 -0.33,0.93 -0.78,1.39 z m 9.78,-24.53 c -0.52,-1.82 -2.7,-5.4 -2.85,-5.5 -0.55,-3.48 0.87,-4.85 3.01,-4.83 1.83,0.02 3.53,1.28 3.97,3.12 0.69,2.8 -1.51,6.01 -4.13,7.21 z m 14.04,32.87 c -0.99,-0.09 -1.98,-0.18 -2.98,-0.27 -6.46,-0.59 -3.34,-7.66 -1.96,-10.25 1.37,-2.58 2.54,-5.26 3.47,-8.03 1.64,-4.88 2.45,-9.93 2.62,-15.04 3,4.84 4.91,10.24 5.37,15.98 0.43,5.52 0.41,16.78 -6.52,17.61 z m 55.71,-2.46 c -2.09,6.98 -5.73,13.59 -11.1,18.58 -4.43,4.11 -7.88,0.55 -11.97,-2.07 -3.21,-2.06 -8.36,-4.15 -10.88,-6.98 -2.2,-2.47 0.95,-7.02 2.05,-9.96 1.42,-3.81 2.73,-7.66 3.91,-11.55 2.35,-7.77 4.18,-15.7 5.47,-23.71 2.52,-15.79 2.92,-31.8 1.29,-47.68 8.5,10.41 15.78,21.13 19.12,34.57 3.88,15.59 6.83,33.06 2.11,48.8 z"
   id="path7"
   inkscape:connector-curvature="0" />
			<path
   d="m 592.63,656.93 c -9.25,6.19 -15.98,-0.64 -23.11,-6.1 -3.79,-2.9 -9.28,-5.68 -16.9,-6.76 -7.62,-1.08 -0.82,3.76 -0.03,3.77 1.17,0.03 2.31,0.13 3.44,0.29 4.25,1.74 8.39,3.67 11.97,6.86 2.89,2.57 18,10 26.14,4.52 4.86,-3.51 0.1,-3.66 -1.51,-2.58 z"
   id="path9"
   inkscape:connector-curvature="0" />
			<path
   d="m 587.95,488.13 c 0.03,0.03 0.06,0.07 0.08,0.1 0.46,0.54 1.03,0.59 1.51,0.38 1.61,0.02 3.49,-0.98 4.64,-1.87 0.28,-0.22 0.43,-0.46 0.49,-0.72 0.55,-0.77 0.24,-2.19 -0.8,-2.41 -11.11,-2.34 -9.66,-20.68 -5.31,-29.16 0.25,-0.26 0.5,-0.53 0.76,-0.78 0.45,-0.43 0.53,-0.95 0.39,-1.4 0.18,-1.33 -1.9,-2.29 -2.83,-0.9 -0.28,0.43 -0.55,0.89 -0.82,1.37 -8.52,9.55 -6.38,24.54 0.98,34.23 0.24,0.53 0.55,0.9 0.91,1.16 z"
   id="path11"
   inkscape:connector-curvature="0" />
			<path
   d="m 441.97,490.04 c -0.21,0.24 -0.34,0.55 -0.32,0.96 0.26,8.37 3.19,19.01 10.14,24.43 4.59,3.57 15.71,2.17 17.91,-3.78 0,-0.01 0,-0.01 0,-0.01 4.31,1.24 9.42,1 13.59,-0.86 2.53,2.37 4.35,4.98 6.08,7.97 0.7,1.21 1.42,2.2 2.97,1.84 1.09,-0.25 1.99,-1.66 2.72,-2.4 1.18,-1.18 2.36,-2.36 3.53,-3.55 1.01,-1.02 2.11,-2.04 2.35,-3.39 3.93,1.42 8.51,1.51 12.42,0.39 0,0.01 0,0.01 0,0.01 2.2,5.96 13.32,7.35 17.91,3.78 6.95,-5.41 9.88,-16.06 10.14,-24.43 0.01,-0.41 -0.12,-0.73 -0.32,-0.96 3.99,-4.11 7.79,-8.4 11.37,-12.9 1.19,-1.5 -0.92,-3.63 -2.12,-2.12 -6.81,8.58 -14.38,16.5 -22.75,23.56 -4.1,3.46 -8.48,7.52 -13.49,9.6 -3.46,1.43 -7.33,1.56 -10.94,0.51 -3.87,-1.13 -10.22,-5.14 -6.37,-10.13 1.17,-1.51 -0.94,-3.65 -2.12,-2.12 -1.22,1.58 -1.81,3.31 -1.85,5.03 -0.53,-0.3 -1.12,-0.48 -1.81,-0.48 -0.28,0 -0.53,0.01 -0.77,0.02 -0.13,-1.57 -0.71,-3.14 -1.83,-4.57 -1.18,-1.53 -3.29,0.61 -2.12,2.12 0.96,1.24 1.29,2.42 1.18,3.51 -0.53,0.61 -0.81,1.49 -1.17,2.66 -1.55,1.94 -4.31,3.36 -6.37,3.96 -3.61,1.05 -7.48,0.92 -10.94,-0.51 -5.02,-2.08 -9.39,-6.14 -13.49,-9.6 -8.37,-7.07 -15.94,-14.99 -22.75,-23.56 -1.2,-1.51 -3.31,0.62 -2.12,2.12 3.55,4.5 7.35,8.8 11.34,12.9 z"
   id="path13"
   inkscape:connector-curvature="0" />
			<path
   d="m 430.45,644.08 c -7.62,1.08 -13.11,3.85 -16.9,6.76 -7.13,5.46 -13.86,12.29 -23.11,6.1 -1.61,-1.08 -6.37,-0.93 -1.51,2.59 8.14,5.48 23.25,-1.95 26.14,-4.52 3.59,-3.19 7.72,-5.11 11.97,-6.86 1.12,-0.16 2.27,-0.27 3.44,-0.29 0.79,-0.03 7.58,-4.86 -0.03,-3.78 z"
   id="path15"
   inkscape:connector-curvature="0" />
			<path
   d="m 388.88,486.74 c 1.15,0.89 3.03,1.89 4.64,1.87 0.48,0.21 1.05,0.16 1.51,-0.38 0.03,-0.03 0.06,-0.07 0.08,-0.1 0.36,-0.26 0.67,-0.63 0.91,-1.14 7.35,-9.69 9.5,-24.68 0.98,-34.23 -0.26,-0.48 -0.54,-0.95 -0.82,-1.37 -0.93,-1.39 -3.01,-0.44 -2.83,0.9 -0.14,0.45 -0.06,0.97 0.39,1.4 0.26,0.25 0.52,0.51 0.76,0.78 4.35,8.48 5.8,26.81 -5.31,29.16 -1.04,0.22 -1.35,1.63 -0.8,2.41 0.06,0.24 0.21,0.48 0.49,0.7 z"
   id="path17"
   inkscape:connector-curvature="0" />
			<path
   d="m 864.75,483.25 c -8,0 -24,-14 -34,-14 -11,0 -16,9 -26,9 -10,0 -21,-16 -34,-16 -10.13,0 -24.51,-3.64 -30.37,-5.25 -2.13,-15.41 -5.66,-30.37 -10.49,-44.74 3.09,-2.26 7.57,-5.29 11.3,-6.84 6.38,-2.64 8.53,-12.74 13.44,-14.77 4.91,-2.03 9.19,1.37 14.6,-0.87 4.91,-2.03 9.92,-12.16 13.85,-13.79 3.93,-1.63 10.18,0.96 24.58,-7.31 -10.92,2.8 -23.66,-5.73 -32.21,-2.77 -3.23,1.91 -4.35,7.55 -7.99,8.49 -3.64,0.93 -12.87,-3.3 -17.78,-1.26 -4.91,2.03 -5.86,5.3 -10.28,7.13 -6.71,2.78 -16.29,2.12 -22.18,1.33 -7.12,-14.41 -15.59,-28.03 -25.25,-40.69 1.86,-8.61 7.86,-32.12 19.85,-44.12 6.36,-6.36 12.73,-5.66 19.8,-12.73 7.07,-7.07 6.36,-26.16 10.61,-31.82 4.24,-5.66 14.85,-3.54 20.51,-7.78 11.31,-12.73 5.66,-41.01 18.38,-57.98 -24.75,19.09 -24.75,31.82 -30.41,37.48 -5.66,5.66 -26.87,7.07 -33.94,14.14 -7.78,7.78 -4.95,17.68 -12.02,24.75 -7.07,7.07 -26.16,3.54 -35.36,12.73 -7.17,7.17 -19.92,14.76 -25.19,17.76 -12.19,-9.22 -25.25,-17.33 -39.05,-24.2 0.58,-3.78 1.61,-9.11 3.16,-12.85 2.64,-6.38 -2.97,-15.04 -0.94,-19.95 2.03,-4.91 7.47,-5.53 9.71,-10.94 2.03,-4.91 -1.59,-15.61 0.04,-19.54 1.63,-3.93 7.88,-6.52 12.22,-22.55 -5.74,9.7 -20.78,12.68 -24.73,20.82 -0.93,3.64 2.27,8.42 0.35,11.65 -1.91,3.23 -11.43,6.77 -13.47,11.68 -2.04,4.91 -0.39,7.89 -2.22,12.31 -2.77,6.7 -9.99,13 -14.72,16.6 -14.96,-5.08 -30.57,-8.77 -46.67,-10.92 -4.78,-7.42 -17.14,-28.26 -17.14,-45.21 0,-9 5,-13 5,-23 0,-10 -14,-23 -15,-30 -1,-7 8,-13 9,-20 -1,-17 -25,-33 -28,-54 -4,31 5,40 5,48 0,8 -14,24 -14,34 0,11 9,16 9,26 0,10 -16,21 -16,34 0,10.13 -3.64,24.51 -5.25,30.37 -15.41,2.13 -30.37,5.66 -44.74,10.49 -2.26,-3.09 -5.29,-7.57 -6.84,-11.3 -2.64,-6.38 -12.74,-8.53 -14.77,-13.44 -2.03,-4.91 1.37,-9.19 -0.87,-14.6 -2.03,-4.91 -12.16,-9.92 -13.79,-13.85 -1.63,-3.93 0.96,-10.18 -7.31,-24.58 2.8,10.92 -5.73,23.66 -2.77,32.21 1.91,3.23 7.55,4.35 8.49,7.99 0.93,3.64 -3.3,12.87 -1.26,17.78 2.04,4.91 5.3,5.86 7.13,10.28 2.78,6.71 2.12,16.29 1.33,22.18 -14.41,7.12 -28.03,15.59 -40.69,25.25 -8.61,-1.86 -32.12,-7.86 -44.12,-19.85 -6.36,-6.36 -5.66,-12.73 -12.73,-19.8 -7.07,-7.07 -26.16,-6.36 -31.82,-10.61 -5.66,-4.24 -3.54,-14.85 -7.78,-20.51 -12.73,-11.31 -41.01,-5.66 -57.98,-18.38 19.09,24.75 31.82,24.75 37.48,30.41 5.66,5.66 7.07,26.87 14.14,33.94 7.78,7.78 17.68,4.95 24.75,12.02 7.07,7.07 3.54,26.16 12.73,35.36 7.17,7.17 14.76,19.92 17.76,25.19 -9.22,12.19 -17.33,25.25 -24.2,39.05 -3.78,-0.58 -9.11,-1.61 -12.85,-3.16 -6.38,-2.64 -15.04,2.97 -19.95,0.94 -4.91,-2.03 -5.53,-7.47 -10.93,-9.71 -4.91,-2.03 -15.61,1.59 -19.54,-0.04 -3.93,-1.63 -6.52,-7.88 -22.55,-12.22 9.7,5.74 12.68,20.78 20.82,24.73 3.64,0.93 8.42,-2.27 11.65,-0.35 3.23,1.91 6.77,11.43 11.68,13.47 4.91,2.03 7.89,0.39 12.31,2.22 6.7,2.77 13,9.99 16.6,14.72 -5.08,14.96 -8.77,30.57 -10.92,46.67 -7.42,4.78 -28.26,17.14 -45.21,17.14 -9,0 -13,-5 -23,-5 -10,0 -23,14 -30,15 -7,1 -13,-8 -20,-9 -17,1 -33,25 -54,28 31,4 40,-5 48,-5 8,0 24,14 34,14 11,0 16,-9 26,-9 10,0 21,16 34,16 10.13,0 24.51,3.64 30.37,5.25 2.13,15.41 5.66,30.37 10.49,44.74 -3.09,2.26 -7.57,5.29 -11.3,6.84 -6.38,2.64 -8.53,12.74 -13.44,14.77 -4.91,2.03 -9.19,-1.37 -14.6,0.87 -4.91,2.03 -9.92,12.16 -13.85,13.79 -3.93,1.63 -10.18,-0.96 -24.58,7.31 10.92,-2.8 23.66,5.73 32.21,2.77 3.23,-1.91 4.35,-7.55 7.99,-8.49 3.64,-0.94 12.87,3.3 17.78,1.26 4.91,-2.03 5.86,-5.3 10.28,-7.13 6.71,-2.78 16.29,-2.12 22.18,-1.33 7.12,14.41 15.59,28.03 25.25,40.69 -1.86,8.61 -7.86,32.12 -19.85,44.12 -6.36,6.36 -12.73,5.66 -19.8,12.73 -7.07,7.07 -6.36,26.16 -10.61,31.82 -4.24,5.66 -14.85,3.54 -20.51,7.78 -11.31,12.73 -5.66,41.01 -18.38,57.98 24.75,-19.09 24.75,-31.82 30.41,-37.48 5.66,-5.66 26.87,-7.07 33.94,-14.14 7.78,-7.78 4.95,-17.68 12.02,-24.75 7.07,-7.07 26.16,-3.54 35.36,-12.73 7.17,-7.17 19.92,-14.76 25.19,-17.76 12.19,9.22 25.25,17.33 39.05,24.2 -0.58,3.78 -1.61,9.11 -3.16,12.85 -2.64,6.38 2.97,15.04 0.94,19.95 -2.03,4.91 -7.47,5.53 -9.71,10.93 -2.03,4.91 1.59,15.61 -0.04,19.54 -1.63,3.93 -7.88,6.52 -12.22,22.55 5.74,-9.7 20.78,-12.68 24.73,-20.82 0.93,-3.64 -2.27,-8.42 -0.35,-11.65 1.91,-3.23 11.43,-6.77 13.47,-11.68 2.03,-4.91 0.39,-7.89 2.22,-12.31 2.77,-6.7 9.99,-13 14.72,-16.6 14.96,5.08 30.57,8.77 46.67,10.92 4.78,7.42 17.14,28.26 17.14,45.21 0,9 -5,13 -5,23 0,10 14,23 15,30 1,7 -8,13 -9,20 1,17 25,33 28,54 4,-31 -5,-40 -5,-48 0,-8 14,-24 14,-34 0,-11 -9,-16 -9,-26 0,-10 16,-21 16,-34 0,-10.13 3.64,-24.51 5.25,-30.37 15.41,-2.13 30.37,-5.66 44.74,-10.49 2.26,3.09 5.29,7.57 6.84,11.3 2.64,6.38 12.74,8.53 14.77,13.44 2.03,4.91 -1.37,9.2 0.87,14.6 2.03,4.91 12.16,9.92 13.79,13.85 1.63,3.93 -0.96,10.18 7.31,24.58 -2.8,-10.92 5.73,-23.66 2.77,-32.21 -1.91,-3.23 -7.55,-4.35 -8.49,-7.99 -0.93,-3.64 3.3,-12.87 1.26,-17.78 -2.03,-4.91 -5.3,-5.86 -7.13,-10.28 -2.78,-6.71 -2.12,-16.29 -1.33,-22.18 14.41,-7.12 28.03,-15.59 40.69,-25.25 8.61,1.86 32.12,7.86 44.12,19.85 6.36,6.36 5.66,12.73 12.73,19.8 7.07,7.07 26.16,6.36 31.82,10.61 5.66,4.24 3.54,14.85 7.78,20.51 12.73,11.31 41.01,5.66 57.98,18.38 -19.09,-24.75 -31.82,-24.75 -37.48,-30.41 -5.66,-5.66 -7.07,-26.87 -14.14,-33.94 -7.78,-7.78 -17.68,-4.95 -24.75,-12.02 -7.07,-7.07 -3.54,-26.16 -12.73,-35.36 -7.17,-7.17 -14.76,-19.92 -17.76,-25.19 9.22,-12.19 17.33,-25.25 24.2,-39.05 3.78,0.58 9.11,1.61 12.85,3.16 6.38,2.64 15.04,-2.97 19.95,-0.94 4.91,2.03 5.53,7.47 10.94,9.71 4.91,2.03 15.61,-1.59 19.54,0.04 3.93,1.63 6.52,7.88 22.55,12.22 -9.7,-5.74 -12.68,-20.78 -20.82,-24.73 -3.64,-0.93 -8.42,2.27 -11.65,0.35 -3.23,-1.91 -6.77,-11.43 -11.68,-13.47 -4.91,-2.03 -7.89,-0.39 -12.31,-2.22 -6.7,-2.77 -13,-9.99 -16.6,-14.72 5.08,-14.96 8.77,-30.57 10.92,-46.67 7.42,-4.78 28.26,-17.14 45.21,-17.14 9,0 13,5 23,5 10,0 23,-14 30,-15 7,-1 13,8 20,9 17,-1 33,-25 54,-28 -31.01,-3.99 -40.01,5.01 -48.01,5.01 z M 494.75,698 C 380.57,698 288,605.43 288,491.25 288,377.07 380.57,284.5 494.75,284.5 608.93,284.5 701.5,377.07 701.5,491.25 701.5,605.43 608.93,698 494.75,698 Z"
   id="path19"
   inkscape:connector-curvature="0" />
		</g>

</g></svg>