<?xml version="1.0" encoding="UTF-8" standalone="no"?>
<!-- Generator: Adobe Illustrator 24.0.1, SVG Export Plug-In . SVG Version: 6.00 Build 0)  -->

<svg
   xmlns:dc="http://purl.org/dc/elements/1.1/"
   xmlns:cc="http://creativecommons.org/ns#"
   xmlns:rdf="http://www.w3.org/1999/02/22-rdf-syntax-ns#"
   xmlns:svg="http://www.w3.org/2000/svg"
   xmlns="http://www.w3.org/2000/svg"
   xmlns:sodipodi="http://sodipodi.sourceforge.net/DTD/sodipodi-0.dtd"
   xmlns:inkscape="http://www.inkscape.org/namespaces/inkscape"
   version="1.1"
   id="Layer_3"
   x="0px"
   y="0px"
   viewBox="0 0 790.70001 337.29998"
   xml:space="preserve"
   sodipodi:docname="high-lords-of-terra-symbol.svg"
   width="790.70001"
   height="337.29999"
   inkscape:version="0.92.3 (2405546, 2018-03-11)"><sodipodi:namedview
   pagecolor="#ffffff"
   bordercolor="#666666"
   borderopacity="1"
   objecttolerance="10"
   gridtolerance="10"
   guidetolerance="10"
   inkscape:pageopacity="0"
   inkscape:pageshadow="2"
   inkscape:window-width="451"
   inkscape:window-height="434"
   id="namedview32"
   showgrid="false"
   inkscape:zoom="0.32131562"
   inkscape:cx="395.35"
   inkscape:cy="168.59999"
   inkscape:window-x="0"
   inkscape:window-y="0"
   inkscape:window-maximized="0"
   inkscape:current-layer="Layer_3" /><metadata
   id="metadata97"><rdf:RDF><cc:Work
       rdf:about=""><dc:format>image/svg+xml</dc:format><dc:type
         rdf:resource="http://purl.org/dc/dcmitype/StillImage" /><dc:title /><dc:creator><cc:Agent><dc:title>http://bakadesign.dk/warhammer-40-000-icons/</dc:title></cc:Agent></dc:creator></cc:Work></rdf:RDF></metadata>
<g
   style="fill:#ff0000"
   id="g29"
   transform="translate(0.1,0.1)">
<g
   id="g27">
	<path
   d="m 302.9,168.8 c 0.4,-1.4 1.4,-2.1 3.3,-1.8 -0.9,12.9 -1.6,25.7 -2.5,38.9 0.6,-0.3 0.8,-0.4 0.9,-0.6 4.8,-5.4 19.2,-20.4 19.2,-24.3 -0.1,-1.5 0,-3.1 -0.1,-4.5 -0.2,-4.4 -0.3,-8.8 -0.5,-13.3 -0.1,-1.7 0.5,-2.6 1.6,-2.8 0.9,-0.2 1.7,0.4 2.1,2.1 1,3.5 2,7.1 2.9,10.7 0.2,0.5 0.3,0.9 0.5,2 0.9,-1 1.5,-1.6 2.1,-2.4 2.3,-3.5 4.5,-7.2 7,-10.7 1.8,-2.5 3.1,-5 2.4,-8.2 -0.1,-0.3 0,-0.5 0,-0.7 0.3,-2.7 4.4,-5.6 6.3,-2.7 0.5,0.8 0.6,1.7 0.4,2.6 -0.2,0.7 -0.3,1.3 -0.7,1.9 -0.8,1.5 -1.6,3.1 -2.7,4.6 -3.8,5.6 -7.5,11.4 -11.4,17 -5,7.4 -9.9,14.6 -14.8,22 -2.5,3.8 -2.3,4.3 1.4,6.6 6.9,4.4 13.9,8.7 20.8,13 0.5,0.3 1,0.6 1.7,1 0.4,-1 0.8,-1.8 1.1,-2.6 9.6,-24.5 19.2,-49.1 28.8,-73.6 0.4,-1.1 0.6,-2.1 0.4,-3 -0.5,-2.1 -13.3,-14.5 -16.8,-18.1 l -2.6,-3.3 c -5.6,2.1 -14.8,6.3 -20.4,8.4 -8.6,3.3 -17.3,6.8 -26.6,7.9 -4.2,0.5 -8.4,1 -12.7,0.9 -9.6,-0.3 -17.4,-4.3 -23.4,-11.6 -1.8,-2.1 -3.4,-4.5 -4.4,-7.1 -3.6,-9.4 -4.1,-18.8 0.4,-28.1 0.5,-1.1 0.9,-2.2 1.5,-3.3 1.1,-1.9 2.1,-3.8 3.5,-5.4 3.4,-4.2 6.9,-8.2 10.5,-12.2 1.3,-1.5 2.7,-2.8 4.2,-3.9 4.2,-2.9 8.7,-5.4 13.6,-7.1 V 44 c -1.1,0 -2.1,0 -3,0 -12.7,0.3 -25.3,0.3 -38,0.7 -8,0.3 -16,0.3 -24,0.4 -14.5,0.2 -29.1,0.4 -43.6,0.6 -7.6,0.1 -15.2,0.2 -22.8,0.3 -14.8,0.3 -29.7,0.4 -44.5,0.7 -7.8,0.1 -15.6,0.3 -23.4,0.3 -14.7,0.2 -29.3,0.3 -44.1,0.5 -16.9,0.2 -34,0.3 -51,0.6 -1.9,0 -3.8,0.3 -5.6,0.3 0.4,0.4 0.4,0.5 0.2,0.8 0.3,0.4 0.6,0.9 0.9,1.3 1.8,2.2 3.7,4.4 5.5,6.7 1.1,1.4 2,3.1 3.3,4.3 4.6,4.3 8.6,9.1 11.9,14.4 2.1,3.4 4.3,5 7.9,4.8 5.3,-0.4 10.5,-0.7 15.8,-0.9 11.9,-0.5 23.7,-1 35.6,-1.5 14.2,-0.7 28.4,-1.4 42.5,-2 7.2,-0.3 14.5,-0.7 21.6,-1 12.5,-0.6 25,-1.2 37.5,-1.8 8.6,-0.4 17.1,-0.8 25.7,-1.2 11.4,-0.5 22.8,-1.1 34.1,-1.6 0.5,0 1,0 1.5,0 -0.5,1.5 -0.9,2.9 -1.5,4.5 -68.9,6.2 -138,11.6 -207.3,17.6 0.6,0.8 0.9,1.2 1.3,1.6 3.9,4 7.9,8 11.7,12.1 4.2,4.4 8.4,8.8 12.6,13.3 1.9,2.1 3.9,3.2 6.8,2.2 0.3,-0.2 0.8,-0.3 1.2,-0.3 25.1,-4.6 50.3,-9.3 75.4,-13.9 31.2,-5.7 62.4,-11.5 93.7,-17.3 0.8,-0.2 1.5,-0.2 2.2,-0.3 0.1,0.2 0.2,0.3 0.3,0.6 -0.5,0.5 -0.9,1.2 -1.5,1.5 -0.6,0.4 -1.4,0.5 -2.1,0.8 -7,2 -14,3.8 -21,5.8 -15.8,4.4 -31.6,8.8 -47.5,13.2 -6.5,1.8 -13,3.4 -19.5,5.2 -6,1.6 -11.9,3.3 -17.8,5 -0.3,0.1 -0.6,0.1 -0.9,0.2 -2.1,0.5 -4.4,1 -6.5,1.5 -3.4,0.9 -6.8,1.9 -10.2,2.7 -2.6,0.7 -5.1,1.1 -7.7,1.7 -1.1,0.3 -2.2,0.8 -3.3,1.1 -2.9,0.9 -5.9,1.5 -8.7,2.6 -3.8,1.5 -8,2.4 -11.9,3.7 -0.9,0.3 -1.8,0.6 -3.4,1.1 0.9,0.6 1.5,0.9 2,1.3 8.6,7.7 17.4,15.5 26,23.3 0.8,0.7 1.5,1.5 2.3,2.2 1.6,1.7 3.4,2.2 5.6,1.2 1.1,-0.5 2.2,-0.9 3.3,-1.3 39.5,-15.4 78.9,-30.9 118.5,-46.3 0.7,-0.3 1.5,-0.5 2.2,-0.8 0.3,2.7 0.3,3.3 -1.9,4.6 -2.7,1.5 -5.4,2.8 -8,4.3 -26,13.9 -51.9,28 -77.9,41.9 -5.6,3.1 -11.4,6 -17,9 -1.5,0.8 -3,1.5 -4.3,2.9 10.1,8.6 19.9,16.9 30,25.6 14.5,-10.8 28.2,-22.6 42.5,-33.8 14.2,-11.2 28.3,-22.6 42.6,-34 0.6,0.9 1.1,1.5 1.6,2.2 -0.5,0.6 -0.9,1.1 -1.4,1.6 -11.6,12.1 -23.4,24.1 -35,36.2 -11.2,11.6 -22.5,23.4 -33.7,35.1 -0.6,0.6 -1.1,1.3 -1.7,1.9 8.6,5.5 17,10.9 25.4,16.2 2.2,1.4 2.3,1.4 3.8,-0.7 0.1,-0.1 0.2,-0.3 0.3,-0.3 13.5,-17.4 26.9,-34.9 40.5,-52.3 4.6,-6 9.3,-12.1 14,-18 0.7,-0.9 1.2,-2 3,-1.4 -0.4,1 -0.8,2.1 -1.4,3 -8.4,14.5 -16.8,29 -25.2,43.5 -5.6,9.5 -11.1,19 -16.6,28.5 -0.6,1 -1.5,2.1 -1.3,3.4 0.3,0.1 0.4,0.2 0.5,0.3 8.8,1.3 17.6,2.7 26.4,3.8 1.5,0.2 3,0.2 4.4,0.3 0.8,-1.7 1.4,-3.2 2,-4.7 8.9,-20.4 17.7,-40.7 26.6,-61.1 1,-2.3 2,-4.5 3.1,-6.8 1.4,-2.7 3.1,-3.2 5.9,-1.3 -0.3,1 -0.5,2.1 -0.9,3.2 -7.5,22.5 -15.1,45 -22.6,67.5 -0.2,0.6 -0.3,1.2 -0.4,1.9 0.3,-0.1 0.5,-0.2 0.7,-0.3 9.2,-6.5 18.3,-13 27.5,-19.5 1.7,-1.2 2.7,-2.9 3.2,-5 0.6,-2.8 1.1,-5.6 1.8,-8.5 2.2,-10.1 4.4,-20.2 6.8,-30.3 0.3,-2.4 0.8,-4.4 1.4,-6.6 z"
   id="path3"
   inkscape:connector-curvature="0" />
	<path
   d="m 350.3,298.3 c -1.9,-3 -3.8,-6 -5.8,-8.9 -1.4,-2 -1.5,-4 -0.7,-6.2 0.3,-0.9 0.8,-1.7 1.3,-2.6 4.4,-7.7 8.7,-15.3 13.1,-23 0.3,-0.5 0.5,-1.1 0.9,-2 -5.1,-4 -10.2,-8 -15.4,-12.1 -0.7,1.4 -1.2,2.4 -1.7,3.5 -4.3,9 -8.5,18 -12.9,26.9 -3,5.9 -1.9,5.4 -9.2,5.2 -6.3,-0.2 -12.7,-0.3 -19,-0.6 -0.7,0 -1.4,0.1 -2.1,0.2 1.4,8.8 2.7,17.4 4.1,26 0.7,-0.4 0.9,-0.9 1.2,-1.5 1.9,-3.3 3.8,-6.7 5.7,-10 0.5,-0.9 1.2,-1.7 2.4,-1.7 2.7,0 5.2,0 8.1,0 -0.3,0.8 -0.6,1.3 -0.9,1.7 -5,9.1 -9.8,18.2 -14.8,27.3 -0.6,1 -1.1,2.1 -1.6,3.3 -1.3,2.7 -0.8,5.3 1.4,7.3 1.5,1.4 3.2,2.4 4.9,3.4 5,2.9 10.6,2.2 16.5,2.4 -0.9,-1 -1.5,-1.9 -2.2,-2.6 -1.6,-1.5 -3.3,-3 -4.9,-4.7 -2.8,-3.1 -3,-5.1 -0.9,-8.6 2.8,-4.5 5.6,-9.2 8.5,-13.7 1.5,-2.4 3.1,-4.9 4.6,-7.4 1.1,0.9 2.1,1.6 3.2,2.3 1.3,0.9 1.8,1.9 1.2,3.5 -1.6,4.7 -3.3,9.4 -4.9,14.1 -0.2,0.5 -0.3,0.9 -0.5,2 1.1,-0.8 1.9,-1.2 2.6,-1.7 5.6,-4 11.2,-8 16.8,-12.1 0.4,-0.3 0.9,-0.6 1.4,-1 1.8,-1.5 2.1,-2.7 1.4,-4.9 -0.4,-1.2 -1,-2.6 -1.8,-3.8 z"
   id="path5"
   inkscape:connector-curvature="0" />
	<path
   d="m 399.3,104.4 c 3.6,7.9 7.1,15.7 10.7,23.6 0.2,0.4 0.5,0.9 0.9,1.5 0.7,-0.6 1.1,-1 1.5,-1.5 4.3,-4.7 8.6,-9.3 12.8,-14 3.1,-3.3 6.2,-6.6 9.2,-9.8 1.5,-1.6 2.2,-3.5 1.8,-5.7 -1.1,-5.8 -3.9,-10.6 -8.3,-14.5 -0.9,-0.7 -1.9,-1.2 -2.7,-1.8 -1.7,1.3 -3.1,2.4 -4.5,3.4 -6.9,4.8 -13.9,9.6 -20.8,14.4 -1.7,1.2 -1.8,1.4 -1,3.3 0.2,0.3 0.3,0.8 0.4,1.1 z"
   id="path7"
   inkscape:connector-curvature="0" />
	<path
   d="m 349.7,99 c 0.4,-1 0.9,-2.1 1.4,-3.1 4.4,-8.8 9.8,-16.4 19.9,-19.1 3.1,-0.8 3.5,-2.1 2.7,-5.6 -3.4,-0.3 -6.8,-0.6 -10.3,-0.9 -3.7,-0.2 -7.3,-0.5 -11,-0.7 0,-0.1 0,-0.1 0,-0.2 0,-23.4 19,-42.4 42.4,-42.4 23.4,0 42.4,19 42.4,42.4 0,0.2 0,0.5 0,0.7 -10.6,-0.8 -19.9,-1.3 -20.8,-1.1 -0.2,1 -0.4,2.1 -0.6,3.3 -0.2,1.2 0.3,1.9 1.4,2.2 1.5,0.3 2.9,0.9 4.4,1 4,0.5 7.3,2.5 10,5.3 2.1,2.1 4,4.5 5.9,6.9 1.6,2.1 2.5,4.6 2.7,7.3 0.3,3 0.9,6 1.5,9 4.9,-0.6 7,-2.1 8.7,-6.2 1.3,-3.1 2.9,-5.9 5,-8.5 2.5,-3 5.3,-5.3 9.1,-6.4 1.1,-0.3 2.2,-0.3 3.3,-0.8 0.5,-0.2 1.1,-0.9 1.1,-1.2 0,-2.7 -0.3,-5.4 -0.4,-8 -3.2,-0.5 -14,-1.5 -25,-2.4 l 17.9,-5.1 -19.8,-4.9 c -0.6,-3.6 -1.7,-7 -3.1,-10.3 l 9.5,-7.6 -12.4,1.9 c -2.9,-4.9 -6.7,-9.2 -11.1,-12.7 l 3,-12.9 -8.5,9.1 c -5.4,-3.2 -11.4,-5.3 -17.9,-6.2 l -6.3,-21.9 -5.5,22 c -7.2,0.8 -13.9,3.3 -19.7,6.9 l -9.1,-9.8 3.3,14.1 c -3.9,3.4 -7.2,7.3 -9.9,11.8 l -13.9,-2.1 10.7,8.6 c -1.2,3 -2.1,6.3 -2.7,9.6 l -19.2,5.4 9.9,2.5 c -0.7,0 -1.3,-0.1 -2,-0.1 -4.5,-0.3 -9.1,-0.5 -13.7,-0.9 -1.2,-0.1 -1.9,0.3 -2.4,1.5 -1.5,3.3 -3.2,6.5 -4.7,9.8 -0.2,0.3 -0.2,0.8 -0.3,1.2 11.1,6.3 22.2,12.7 33.4,19 0.5,-0.2 0.7,-0.3 0.7,-0.4 z M 334,83.4 c -2.2,0 -4.4,-2.1 -4.5,-4.1 -0.1,-2.1 1.9,-4.3 3.8,-4.2 2.3,0 4.9,2.3 4.8,4.2 -0.1,1.9 -2.3,4.1 -4.1,4.1 z"
   id="path9"
   inkscape:connector-curvature="0" />
	<path
   d="m 371.6,86.3 c -1.1,-0.9 -2.2,-1.5 -3.1,-2.1 -6.8,3.4 -13.3,11.5 -15.3,18.8 2.2,3.3 22.3,27.4 23.8,28.4 1.8,-2.8 11.7,-28.4 12.1,-30.9 -0.1,-0.1 -0.2,-0.3 -0.3,-0.3 -5.7,-4.6 -11.5,-9.3 -17.2,-13.9 z"
   id="path11"
   inkscape:connector-curvature="0" />
	<path
   d="m 456.3,95.8 c -0.3,0.3 -0.7,0.8 -1.2,1.5 5.6,0.7 10.9,1.4 16.2,2.1 2.1,0.3 2.1,0.3 2.4,2.2 0.7,3.4 1.5,6.8 3.3,10.6 3.8,-5.6 7.8,-10.5 10.3,-16.3 0.2,-0.5 0.3,-1 0.4,-1.6 0.3,-2.7 -0.4,-3.8 -3,-4.6 -3.1,-0.9 -6.2,-1.8 -9.2,-2.6 -1.8,-0.4 -3.6,-0.8 -5.4,-1.2 -1.2,-0.3 -2.1,0.1 -3.1,0.9 -3.4,3 -7.1,6 -10.7,9 z"
   id="path13"
   inkscape:connector-curvature="0" />
	<path
   d="m 300.2,99 c 0.3,0.3 0.5,0.6 0.9,0.9 3.7,4 7.4,8 11,12 0.3,0.3 0.6,0.5 1,0.9 0,-1.8 0.2,-3.3 0,-4.9 -0.5,-4.2 1.4,-6.6 5,-8.2 3.7,-1.6 7.3,-3.4 10.9,-5.1 0.7,-0.3 1.4,-0.7 2.4,-1.3 -4.5,-2.4 -8.7,-4.5 -12.8,-6.8 -0.9,-0.5 -1.5,-0.1 -2.2,0.3 -5,2.3 -10,4.5 -15.1,6.8 -3.2,1.5 -3.4,2.7 -1.1,5.4 z"
   id="path15"
   inkscape:connector-curvature="0" />
	<path
   d="m 476.9,293.4 c 1.9,3.3 3.8,6.7 5.7,10 0.3,0.5 0.5,0.9 1.2,1.5 1.4,-8.6 2.7,-17.2 4.1,-26 -0.8,-0.1 -1.5,-0.2 -2.1,-0.2 -6.3,0.2 -12.7,0.3 -19,0.6 -7.4,0.2 -6.2,0.7 -9.2,-5.2 -4.4,-8.9 -8.6,-17.9 -12.9,-26.9 -0.5,-1.1 -1,-2.1 -1.7,-3.5 -5.2,4.1 -10.3,8.1 -15.4,12.1 0.4,0.8 0.6,1.4 0.9,2 4.4,7.7 8.7,15.3 13.1,23 0.5,0.9 0.9,1.7 1.3,2.6 0.9,2.1 0.7,4.2 -0.7,6.2 -2,2.9 -3.9,5.9 -5.8,8.9 -0.8,1.2 -1.4,2.6 -1.9,3.9 -0.8,2.1 -0.4,3.3 1.4,4.9 0.4,0.3 0.9,0.7 1.4,1 5.6,4 11.2,8 16.8,12.1 0.7,0.5 1.5,0.9 2.6,1.7 -0.3,-0.9 -0.3,-1.5 -0.5,-2 -1.6,-4.7 -3.2,-9.4 -4.9,-14.1 -0.5,-1.5 -0.1,-2.6 1.2,-3.5 1,-0.7 2.1,-1.5 3.2,-2.3 1.5,2.5 3.1,4.9 4.6,7.4 2.8,4.5 5.6,9.2 8.5,13.7 2.1,3.5 2.1,5.6 -0.9,8.6 -1.5,1.6 -3.3,3.1 -4.9,4.7 -0.7,0.7 -1.4,1.5 -2.2,2.6 5.9,-0.2 11.5,0.5 16.5,-2.4 1.7,-1 3.4,-2.1 4.9,-3.4 2.1,-2 2.7,-4.5 1.4,-7.3 -0.5,-1.1 -1,-2.1 -1.6,-3.3 -5,-9.1 -9.8,-18.2 -14.8,-27.3 -0.3,-0.5 -0.5,-0.9 -0.9,-1.7 3.2,-0.1 5.7,-0.1 8.4,-0.1 1,0 1.7,0.7 2.2,1.7 z"
   id="path17"
   inkscape:connector-curvature="0" />
	<path
   d="m 784.8,48.2 c -17,-0.2 -34,-0.3 -51,-0.6 -14.7,-0.2 -29.3,-0.3 -44.1,-0.6 -7.8,-0.1 -15.6,-0.3 -23.4,-0.3 -14.8,-0.3 -29.7,-0.4 -44.5,-0.7 -7.6,-0.1 -15.2,-0.2 -22.8,-0.3 -14.6,-0.2 -29.2,-0.3 -43.8,-0.6 -8,-0.1 -16,-0.2 -24,-0.4 -12.7,-0.4 -25.3,-0.4 -38,-0.7 -0.9,0 -1.9,0 -3,0 v 12.6 c 4.9,1.7 9.4,4.2 13.6,7.1 1.5,1.1 2.9,2.5 4.2,3.9 3.6,4 7.1,8.1 10.5,12.2 1.4,1.6 2.4,3.6 3.5,5.4 0.6,1 1,2.1 1.5,3.3 4.5,9.3 4.1,18.8 0.4,28.1 -1,2.6 -2.7,5 -4.4,7.1 -6,7.4 -13.8,11.3 -23.4,11.6 -4.3,0.2 -8.5,-0.3 -12.7,-0.9 -9.3,-1.2 -18,-4.6 -26.6,-7.9 -5.6,-2.1 -14.8,-6.3 -20.4,-8.4 l -2.6,3.3 c -3.5,3.7 -16.3,16.1 -16.8,18.1 -0.2,0.9 0,1.9 0.4,3 9.7,24.5 19.2,49.1 28.8,73.6 0.3,0.8 0.7,1.6 1.1,2.6 0.7,-0.3 1.2,-0.7 1.7,-1 6.9,-4.4 13.9,-8.6 20.8,-13 3.7,-2.3 3.8,-2.8 1.4,-6.6 -4.9,-7.4 -9.8,-14.6 -14.8,-22 -3.8,-5.6 -7.6,-11.3 -11.4,-17 -0.9,-1.5 -1.8,-3 -2.7,-4.6 -0.3,-0.6 -0.5,-1.2 -0.7,-1.9 -0.2,-0.9 -0.1,-1.8 0.4,-2.6 2,-2.9 6.1,0 6.3,2.7 0,0.3 0.1,0.5 0,0.7 -0.7,3.2 0.6,5.7 2.4,8.2 2.5,3.5 4.6,7.1 7,10.7 0.5,0.8 1.2,1.4 2.1,2.4 0.3,-0.9 0.4,-1.5 0.5,-2 0.9,-3.6 1.9,-7.1 2.9,-10.7 0.4,-1.6 1.2,-2.3 2.1,-2.1 1.1,0.3 1.7,1.1 1.6,2.8 -0.2,4.4 -0.3,8.8 -0.5,13.3 -0.1,1.5 0,3.1 -0.1,4.5 -0.1,3.8 14.4,18.8 19.2,24.3 0.2,0.3 0.3,0.3 0.9,0.6 -0.9,-13.1 -1.6,-26 -2.5,-38.9 1.8,-0.3 2.8,0.4 3.3,1.8 0.6,2.1 1.1,4.2 1.5,6.2 2.2,10.1 4.5,20.2 6.8,30.3 0.6,2.8 1.2,5.6 1.8,8.5 0.4,2.1 1.5,3.7 3.2,5 9.2,6.5 18.3,13 27.5,19.5 0.1,0.1 0.3,0.1 0.7,0.3 -0.2,-0.7 -0.3,-1.3 -0.4,-1.9 -7.5,-22.5 -15.1,-45 -22.6,-67.5 -0.3,-1 -0.6,-2.1 -0.9,-3.2 2.8,-1.8 4.5,-1.5 5.9,1.3 1.1,2.2 2.1,4.5 3.1,6.8 8.9,20.4 17.7,40.7 26.6,61.1 0.6,1.5 1.3,2.9 2,4.7 1.5,-0.1 3,0 4.4,-0.3 8.8,-1.3 17.6,-2.6 26.4,-3.8 0.2,0 0.3,-0.1 0.5,-0.3 0.2,-1.4 -0.7,-2.4 -1.3,-3.4 -5.5,-9.5 -11,-19 -16.6,-28.5 -8.4,-14.5 -16.9,-29 -25.2,-43.5 -0.5,-0.9 -0.9,-2 -1.4,-3 1.8,-0.6 2.3,0.5 3,1.4 4.7,6 9.4,12 14,18 13.5,17.4 26.9,34.9 40.5,52.3 0.1,0.1 0.2,0.3 0.3,0.3 1.5,2 1.6,2.1 3.8,0.7 8.4,-5.3 16.8,-10.7 25.4,-16.2 -0.6,-0.7 -1.1,-1.3 -1.7,-1.9 -11.2,-11.7 -22.4,-23.4 -33.7,-35.1 -11.6,-12.1 -23.3,-24.1 -35,-36.2 -0.4,-0.4 -0.9,-0.9 -1.4,-1.6 0.5,-0.7 1,-1.4 1.6,-2.2 14.3,11.4 28.4,22.8 42.6,34 14.2,11.2 28,23 42.5,33.8 10.1,-8.6 20,-17 30,-25.6 -1.3,-1.5 -2.8,-2.1 -4.3,-2.9 -5.6,-3 -11.4,-6 -17,-9 -26,-13.9 -51.9,-28 -77.9,-41.9 -2.7,-1.5 -5.5,-2.7 -8,-4.3 -2.1,-1.3 -2.3,-1.9 -1.9,-4.6 0.8,0.3 1.5,0.5 2.2,0.8 39.5,15.4 78.9,30.9 118.5,46.3 1.1,0.4 2.3,0.8 3.3,1.3 2.1,1 3.9,0.5 5.6,-1.2 0.8,-0.8 1.5,-1.5 2.3,-2.2 8.6,-7.8 17.3,-15.5 26,-23.3 0.4,-0.4 1,-0.7 2,-1.3 -1.6,-0.5 -2.5,-0.8 -3.4,-1.1 -3.9,-1.3 -8,-2.1 -11.9,-3.7 -2.8,-1.1 -5.8,-1.7 -8.7,-2.6 -1.1,-0.3 -2.2,-0.9 -3.3,-1.1 -2.6,-0.6 -5.1,-1.1 -7.7,-1.7 -3.4,-0.9 -6.8,-1.9 -10.2,-2.7 -2.1,-0.6 -4.4,-1 -6.5,-1.5 -0.3,-0.1 -0.6,-0.1 -0.9,-0.2 -5.9,-1.7 -11.9,-3.4 -17.8,-5 -6.5,-1.8 -13,-3.4 -19.5,-5.2 -15.8,-4.4 -31.6,-8.8 -47.5,-13.2 -7,-2 -14,-3.8 -21,-5.8 -0.7,-0.2 -1.5,-0.3 -2.1,-0.8 -0.6,-0.5 -1,-1 -1.5,-1.5 0.1,-0.2 0.2,-0.3 0.3,-0.6 0.8,0.1 1.5,0.1 2.2,0.3 31.2,5.7 62.4,11.5 93.7,17.3 25.1,4.6 50.3,9.3 75.4,13.9 0.4,0.1 0.8,0.2 1.2,0.3 2.7,1 4.8,-0.2 6.8,-2.2 4.2,-4.4 8.4,-8.9 12.6,-13.3 3.8,-4 7.9,-8 11.7,-12.1 0.3,-0.3 0.7,-0.9 1.3,-1.6 -69.3,-6 -138.3,-11.5 -207.3,-17.7 -0.5,-1.6 -0.9,-2.9 -1.5,-4.5 0.5,0 1,0 1.5,0 11.4,0.5 22.8,1.1 34.1,1.6 8.6,0.4 17.1,0.8 25.7,1.2 12.5,0.6 25,1.2 37.5,1.8 7.2,0.3 14.5,0.7 21.6,1 14.2,0.7 28.4,1.4 42.5,2 11.9,0.5 23.7,1 35.6,1.5 5.3,0.3 10.6,0.5 15.8,0.9 3.5,0.3 5.7,-1.3 7.9,-4.8 3.3,-5.4 7.3,-10.1 11.9,-14.4 1.4,-1.2 2.1,-2.9 3.3,-4.3 1.8,-2.2 3.6,-4.4 5.5,-6.7 0.3,-0.4 0.5,-0.7 0.8,-1.1 0,0 0,-0.1 -0.1,-0.2 -1.3,0.3 -3.2,0 -5.1,0 z"
   id="path19"
   inkscape:connector-curvature="0" />
	<path
   d="m 790.5,48.8 c 0,0.1 0.1,0 0.1,-0.2 0,0.2 -0.1,0.2 -0.1,0.2 z"
   id="path21"
   inkscape:connector-curvature="0" />
	<path
   d="m 435.6,287.2 c -0.4,-0.9 -0.8,-2 -1.2,-2.9 -4.5,-9.8 -9.2,-19.6 -13.7,-29.4 -0.2,-0.3 -0.2,-0.6 -0.3,-1.1 0.3,-0.4 0.8,-0.9 1.2,-1.3 6,-5.2 12,-10.3 18,-15.6 3.6,-3.1 3.8,-3.7 2.1,-8 -12.5,-31.7 -25,-63.6 -37.4,-95.3 -3.1,-7.8 -6.1,-15.5 -9.2,-23.3 0,-0.1 -0.1,-0.2 -0.1,-0.3 l -0.5,0.3 c -3.1,7.8 -6.1,15.5 -9.2,23.3 -12.5,31.7 -25,63.6 -37.4,95.3 -1.7,4.4 -1.5,4.9 2.1,8 6.1,5.1 12.1,10.3 18,15.6 0.4,0.4 0.9,0.9 1.2,1.3 -0.2,0.5 -0.3,0.8 -0.3,1.1 -4.5,9.8 -9.2,19.6 -13.7,29.4 -0.4,0.9 -0.8,1.9 -1.2,2.9 -0.4,0.9 -0.3,1.9 0.3,2.7 0.8,1.3 4.9,5.4 6.5,6.3 0.3,-0.8 0.7,-1.5 1,-2.1 3.6,-8.5 7.3,-16.9 10.9,-25.4 0.6,-1.3 1,-2.7 2.4,-3.4 2.3,1.2 2.5,1.7 1.5,4.4 -3.2,9 -6.3,18 -9.6,26.9 -0.7,2 -0.7,3.8 0.7,5.4 1.8,2.1 3.6,4.3 5.3,6.4 1.6,-0.3 1.8,-1.6 2.2,-2.7 3.1,-8.9 6.2,-17.9 9.2,-26.8 0.6,-1.9 1.5,-3.7 2.1,-5.6 1.7,1.6 1.8,1.7 1.3,3.4 -0.9,3.4 -1.7,6.8 -2.7,10.2 -2.2,7.5 -4.4,15.1 -6.7,22.6 -0.7,2.3 -0.3,4.4 1.2,6.2 3,3.8 11.3,11.5 14.9,14.9 v 0.4 c 0.1,-0.1 0.2,-0.2 0.3,-0.2 0.1,0.1 0.2,0.2 0.3,0.2 v -0.4 c 3.5,-3.3 11.9,-11 14.9,-14.9 1.5,-2 1.9,-3.9 1.2,-6.2 -2.2,-7.5 -4.5,-15.1 -6.7,-22.6 -0.9,-3.4 -1.9,-6.8 -2.7,-10.2 -0.4,-1.7 -0.4,-1.8 1.3,-3.4 0.8,1.9 1.5,3.7 2.1,5.6 3.1,8.9 6.2,17.9 9.2,26.8 0.3,1.1 0.5,2.4 2.2,2.7 1.7,-2.1 3.5,-4.3 5.3,-6.4 1.4,-1.6 1.4,-3.4 0.7,-5.4 -3.3,-9 -6.4,-18 -9.6,-26.9 -0.9,-2.7 -0.8,-3.3 1.5,-4.4 1.5,0.7 1.9,2.1 2.4,3.4 3.7,8.5 7.3,16.9 10.9,25.4 0.3,0.8 0.7,1.5 1,2.1 1.6,-1 5.7,-5 6.5,-6.3 0.5,-0.8 0.8,-1.6 0.3,-2.7 z M 406.8,167.8 c -0.2,0 -3.5,-0.3 -5.3,2.2 -0.9,1.2 -1,2.5 -1,3.1 v 6.6 0.6 32.2 c 0,0.4 -0.1,2.2 1.2,3.7 1.2,1.4 3.2,2.1 5.1,1.7 v 2.6 h -12 -12 v -2.6 c 1.9,0.4 3.9,-0.2 5.1,-1.7 1.2,-1.5 1.2,-3.7 1.2,-3.7 V 180.3 173 c 0,-0.6 -0.1,-1.9 -1,-3.1 -1.8,-2.5 -5.1,-2.3 -5.3,-2.2 0,-0.7 0,-1.5 0,-2.2 h 12 12 c 0,0.7 0,1.4 0,2.3 z"
   id="path23"
   inkscape:connector-curvature="0" />
	<path
   d="m 391.1,79.5 h 1.2 l 0.1,2.4 h 2 l 0.1,-2.5 h 1.6 l 0.1,2.5 h 2 l 0.1,-2.4 h 1.3 l 0.2,2.4 h 2 l 0.1,-2.4 h 1.2 l 0.4,2.4 h 1.8 c 0,0 -0.5,-6.9 -1,-7.8 -0.7,-1.2 3.7,1.1 5.1,0 0.8,-0.6 6.5,-8.3 2.3,-13.2 -1,-1.2 4.1,-10.2 1.4,-18.1 -3.2,-9.3 -12.6,-10.8 -16.7,-10.9 0,0 -0.3,0 -0.9,0 0,0 0,0 0,0 0,0 0,0 0,0 -0.6,0 -0.9,0 -0.9,0 -4.1,0.2 -13.5,1.6 -16.7,10.9 -2.7,7.9 2.4,16.9 1.4,18.1 -4.2,4.8 1.5,12.5 2.3,13.2 1.4,1.1 5.9,-1.2 5.1,0 -0.5,0.9 -1,7.8 -1,7.8 h 1.8 l 0.4,-2.4 h 1.2 l 0.1,2.4 h 2 z M 398,65.3 c 1.1,-0.6 2.5,-1.2 4,-1.7 2,-0.6 3.7,-0.9 5.1,-1 0.1,0 0.1,0 0.2,0 1.2,0.4 1.6,1.1 1.7,1.3 0.7,1.4 -0.2,3.6 -2.4,5 -0.1,0 -0.1,0.1 -0.2,0.1 -1,0.1 -3.6,0.3 -6.1,-1.1 -1.1,-0.6 -1.9,-1.3 -2.4,-1.9 -0.2,-0.2 -0.1,-0.6 0.1,-0.7 z m -3.4,3.8 c 0.2,-0.2 0.5,-0.4 0.9,-0.6 0.3,0.2 0.6,0.4 0.9,0.6 1.8,1.7 1.8,4.1 1.7,5.3 0,0.2 -0.2,0.2 -0.3,0.1 -0.2,-0.3 -0.6,-0.7 -1,-1 -0.5,-0.3 -0.9,-0.6 -1.3,-0.7 -0.3,0.1 -0.8,0.3 -1.3,0.7 -0.4,0.3 -0.8,0.7 -1,1 -0.1,0.1 -0.3,0.1 -0.3,-0.1 -0.2,-1.1 -0.1,-3.5 1.7,-5.3 z m -10.5,0 c -0.1,0 -0.1,0 -0.2,-0.1 -2.2,-1.4 -3.1,-3.6 -2.4,-5 0.1,-0.2 0.5,-0.9 1.7,-1.3 0.1,0 0.1,0 0.2,0 1.4,0.1 3.2,0.4 5.1,1 1.6,0.5 2.9,1.1 4,1.7 0.3,0.1 0.3,0.5 0.1,0.7 -0.5,0.6 -1.3,1.3 -2.4,1.9 -2.5,1.4 -5.1,1.2 -6.1,1.1 z"
   id="path25"
   inkscape:connector-curvature="0" />
</g>
</g></svg>