<?xml version="1.0" encoding="UTF-8" standalone="no"?>
<svg
   xmlns:dc="http://purl.org/dc/elements/1.1/"
   xmlns:cc="http://creativecommons.org/ns#"
   xmlns:rdf="http://www.w3.org/1999/02/22-rdf-syntax-ns#"
   xmlns:svg="http://www.w3.org/2000/svg"
   xmlns="http://www.w3.org/2000/svg"
   version="1.1"
   id="Layer_2"
   x="0px"
   y="0px"
   viewBox="0 0 718.82001 988.58783"
   xml:space="preserve"
   width="718.82001"
   height="988.58783"><metadata
   id="metadata3956"><rdf:RDF><cc:Work
       rdf:about=""><dc:format>image/svg+xml</dc:format><dc:type
         rdf:resource="http://purl.org/dc/dcmitype/StillImage" /><dc:title></dc:title><dc:creator><cc:Agent><dc:title>https://bakadesign.dk/warhammer-40-000-icons/</dc:title></cc:Agent></dc:creator></cc:Work></rdf:RDF></metadata><defs
   id="defs3954" />
<path
   d="m 707.14,321.91 h -18.49 c -0.02,0.39 -0.03,0.76 -0.03,1.12 0,35.77 -35.69,52.54 -83.84,52.54 -48.15,0 -87.2,-39.04 -87.2,-87.2 0,-48.16 7.83,-129.68 87.2,-129.68 18.46,0 60.85,1.5 87.47,13.41 h 10.28 L 700.67,111.79 359.4,0 18.14,111.79 0,700.93 c 0,18.95 304.1,284.62 359.41,287.63 57.53,3.13 359.41,-258.62 359.41,-287.63 z M 649.5,547.73 h -58.13 v 45.83 h -84.96 v -45.83 h -96.14 v 96.14 h 45.83 v 84.96 h -45.83 v 58.13 h -106.2 v -58.13 h -45.83 v -84.96 h 45.83 v -96.14 h -96.14 v 45.83 H 122.97 V 547.73 H 64.84 v -106.2 h 58.13 v -45.84 h 84.96 v 45.83 h 96.14 v -96.14 h -45.83 v -84.96 h 45.83 v -58.13 h 106.2 v 58.13 h 45.83 v 84.96 h -45.83 v 96.14 h 96.14 v -45.83 h 84.96 v 45.83 h 58.13 z"
   id="path3949"
   style="fill:#ffff00" />
</svg>
