<?xml version="1.0" encoding="utf-8"?>
<svg version="1.1" id="Layer_1" 
	 xmlns="http://www.w3.org/2000/svg"    xmlns:dc="http://purl.org/dc/elements/1.1/"
   xmlns:cc="http://creativecommons.org/ns#"
   xmlns:rdf="http://www.w3.org/1999/02/22-rdf-syntax-ns#" xmlns:xlink="http://www.w3.org/1999/xlink" x="0px" y="0px" viewBox="0 0 1000 1000"
	 style="enable-background:new 0 0 1000 1000;" xml:space="preserve"><metadata
   id="metadata97"><rdf:RDF><cc:Work
       rdf:about=""><dc:format>image/svg+xml</dc:format><dc:type
         rdf:resource="http://purl.org/dc/dcmitype/StillImage" /><dc:title></dc:title><dc:creator><cc:Agent><dc:title>http://bakadesign.dk/warhammer-40-000-icons/</dc:title></cc:Agent></dc:creator></cc:Work></rdf:RDF></metadata>
<g style="fill:#ff0000">
		<g>
			<path d="M795.43,522.65l187.24-27.47l-187.44-27.5c-3.26-33.15-12.14-64.65-25.67-93.54l46.93-56.02l-72.05,12.65
				c-19.26-27.45-43.18-51.38-70.62-70.66l12.76-72.68l-56.51,47.35c-29.23-13.64-61.11-22.53-94.68-25.67L507.67,20.17
				L479.93,209.2c-32.66,3.18-63.72,11.8-92.26,24.96l-57.06-47.8l12.84,73.15c-27.25,19-51.07,42.56-70.33,69.6l-73.2-12.85
				l47.49,56.69c-13.82,29.17-22.89,61.02-26.21,94.57L32.67,495.17L221,522.82c3.02,33.04,11.6,64.48,24.82,93.35l-46.98,56.07
				l71.68-12.58c19.21,27.89,43.18,52.23,70.77,71.84l-12.54,71.43l55.26-46.29c29.64,14.16,62.07,23.4,96.24,26.69l27.42,186.85
				l27.4-186.75c33.54-3.1,65.41-11.94,94.62-25.53l55.03,46.1l-12.39-70.57c28.09-19.47,52.55-43.8,72.16-71.78l70.91,12.45
				l-46.13-55.1C783.26,589.3,792.32,556.84,795.43,522.65z M508.21,737c-132.96,0-240.76-107.79-240.76-240.76
				s107.79-240.76,240.76-240.76s240.76,107.79,240.76,240.76S641.17,737,508.21,737z"/>
			<path d="M653.98,378.54c-26.46-77.19-104.6-89.26-138.41-90.83c0,0-2.89-0.19-7.79-0.19c-0.06,0-0.06,0-0.13,0s-0.06,0-0.13,0
				c-4.97,0-7.79,0.19-7.79,0.19c-33.75,1.57-111.95,13.64-138.35,90.83c-22.57,65.87,20.18,140.3,11.5,150.29
				c-34.76,40.23,12.51,104.03,18.92,109.25c11.63,9.49,48.59-9.74,42.74,0.19c-4.4,7.54-8.49,64.55-8.49,64.55h15.21l2.95-19.86
				l9.81-0.13l0.63,19.99h16.85l1.89-20.3l9.81,0.31l0.94,19.99h16.22l0.75-20.49h13.14l0.75,20.49h16.22l0.94-19.99l10.43-0.31
				l1.89,20.3h16.22l0.63-19.99l9.81,0.13l2.95,19.86h15.21c0,0-4.09-57.01-8.49-64.55c-5.85-9.93,31.11,9.24,42.74-0.19
				c6.47-5.28,53.68-69.02,18.92-109.25C633.8,518.78,676.48,444.35,653.98,378.54z M486.15,570.45
				c-4.53,5.09-11.06,11.13-19.93,16.09c-21.31,12.01-42.43,10.31-50.98,9.11c-0.57-0.06-1.13-0.25-1.57-0.57
				c-18.67-11.82-25.77-30.23-20.24-41.74c0.82-1.76,3.96-7.54,13.77-11.13c0.57-0.19,1.13-0.25,1.7-0.25
				c11.82,1.07,26.46,3.39,42.68,8.49c13.14,4.09,24.33,9.05,33.5,13.83C487.34,565.48,487.85,568.5,486.15,570.45z M530.78,640.16
				c-0.06,1.32-1.7,1.82-2.51,0.82c-2.01-2.58-4.78-5.53-8.49-8.23c-3.96-2.89-7.73-4.71-10.69-5.78
				c-2.89,1.07-6.73,2.89-10.69,5.78c-3.71,2.7-6.47,5.66-8.49,8.23c-0.82,1.01-2.45,0.5-2.51-0.82
				c-0.63-9.74-0.19-29.67,14.46-44.13c1.89-1.89,4.34-3.52,7.23-5.09c2.83,1.57,5.34,3.21,7.23,5.09
				C530.97,610.49,531.41,630.48,530.78,640.16z M602.18,595.09c-0.5,0.31-1.01,0.5-1.57,0.57c-8.55,1.19-29.61,2.89-50.98-9.11
				c-8.86-4.97-15.4-11-19.93-16.09c-1.7-1.95-1.19-4.97,1.13-6.16c9.18-4.78,20.37-9.74,33.5-13.83
				c16.28-5.09,30.93-7.42,42.68-8.49c0.57-0.06,1.13,0,1.7,0.25c9.74,3.58,12.89,9.43,13.77,11.13
				C627.96,564.85,620.85,583.33,602.18,595.09z"/>
		</g>

</g></svg>
