<?xml version="1.0" encoding="UTF-8" standalone="no"?>
<!-- Generator: Adobe Illustrator 22.1.0, SVG Export Plug-In . SVG Version: 6.00 Build 0)  -->

<svg
   xmlns:dc="http://purl.org/dc/elements/1.1/"
   xmlns:cc="http://creativecommons.org/ns#"
   xmlns:rdf="http://www.w3.org/1999/02/22-rdf-syntax-ns#"
   xmlns:svg="http://www.w3.org/2000/svg"
   xmlns="http://www.w3.org/2000/svg"
   xmlns:sodipodi="http://sodipodi.sourceforge.net/DTD/sodipodi-0.dtd"
   xmlns:inkscape="http://www.inkscape.org/namespaces/inkscape"
   version="1.1"
   id="Layer_2"
   x="0px"
   y="0px"
   viewBox="0 0 618 919"
   xml:space="preserve"
   sodipodi:docname="order-of-our-martyred-lady-symbol.svg"
   width="618"
   height="919"
   inkscape:version="0.92.3 (2405546, 2018-03-11)"><defs
   id="defs18" /><sodipodi:namedview
   pagecolor="#ffffff"
   bordercolor="#666666"
   borderopacity="1"
   objecttolerance="10"
   gridtolerance="10"
   guidetolerance="10"
   inkscape:pageopacity="0"
   inkscape:pageshadow="2"
   inkscape:window-width="640"
   inkscape:window-height="480"
   id="namedview16"
   showgrid="false"
   inkscape:zoom="0.236"
   inkscape:cx="330.8"
   inkscape:cy="452"
   inkscape:window-x="0"
   inkscape:window-y="0"
   inkscape:window-maximized="0"
   inkscape:current-layer="Layer_2" /><metadata
   id="metadata97"><rdf:RDF><cc:Work
       rdf:about=""><dc:format>image/svg+xml</dc:format><dc:type
         rdf:resource="http://purl.org/dc/dcmitype/StillImage" /><dc:title></dc:title><dc:creator><cc:Agent><dc:title>http://bakadesign.dk/warhammer-40-000-icons/</dc:title></cc:Agent></dc:creator></cc:Work></rdf:RDF></metadata>
<g
   style="fill:#ff0000"
   id="g13"
   transform="translate(-169.2,-33)">
<g
   id="g11">
	<path
   d="m 575.2,395.2 c 0.6,-0.1 1.1,-0.3 1.6,-0.6 19.5,-12.3 26.9,-31.5 21.2,-43.5 -0.9,-1.8 -4.2,-7.9 -14.4,-11.6 -0.6,-0.3 -1.2,-0.3 -1.8,-0.3 -12.3,1.1 -27.5,3.5 -44.5,8.9 -13.7,4.3 -25.4,9.4 -35,14.4 -2.4,1.2 -3,4.4 -1.2,6.4 4.7,5.3 11.5,11.6 20.8,16.8 22.4,12.5 44.4,10.7 53.3,9.5 z"
   id="path3"
   inkscape:connector-curvature="0" />
	<path
   d="m 454.6,362.5 c -9.6,-5 -21.2,-10.2 -35,-14.4 -16.9,-5.3 -32.2,-7.7 -44.5,-8.9 -0.6,0 -1.2,0.1 -1.8,0.3 -10.2,3.7 -13.5,9.8 -14.4,11.6 -5.8,12 1.6,31.2 21.1,43.5 0.5,0.3 1,0.5 1.6,0.6 8.9,1.2 31,3 53.2,-9.5 9.2,-5.2 16.1,-11.5 20.8,-16.8 1.9,-2 1.4,-5.2 -1,-6.4 z"
   id="path5"
   inkscape:connector-curvature="0" />
	<path
   d="m 479.7,390.3 c -3,1.6 -5.6,3.3 -7.5,5.3 -15.3,15.1 -15.7,35.9 -15.1,46 0.1,1.4 1.8,1.9 2.6,0.9 2.1,-2.7 5,-5.8 8.9,-8.6 4.1,-3 8.1,-4.9 11.1,-6 3.1,1.1 7,3 11.1,6 3.9,2.8 6.8,5.9 8.9,8.6 0.9,1 2.6,0.5 2.6,-0.9 0.7,-10.1 0.2,-31 -15.1,-46 -1.9,-2 -4.6,-3.7 -7.5,-5.3 z"
   id="path7"
   inkscape:connector-curvature="0" />
	<path
   d="m 769.3,539.1 c -4.1,65.1 -49.8,103 -158.2,106.3 H 537.7 V 538 C 650.4,511.2 734.2,409.9 734.2,289 734.2,147.6 619.6,33 478.2,33 c -141.4,0 -256,114.6 -256,256 0,120.9 83.8,222.2 196.5,249 V 645.4 H 345.3 C 236.9,642.1 191.1,604.1 187.1,539.1 H 169.2 V 853 h 17.9 c 4.1,-65.1 49.8,-103 158.2,-106.3 h 73.3 C 414.3,873 369.8,926.3 293.7,931 v 21 h 369 V 931 C 586.5,926.2 542,872.9 537.8,746.7 h 73.3 C 719.6,750 765.3,787.9 769.3,853 h 17.9 V 539.1 Z M 533.5,507 h -20.9 l -2,-19.9 -7,-1 -1,20.9 h -16.9 l -0.8,-21.4 h -13.7 l -0.8,21.4 h -16.9 l -1,-20.9 -7,1 -2,19.9 h -20.9 l -2,-20.9 -10.2,0.1 -5.4,20.8 h -11.9 c 0,0 4.3,-59.5 8.9,-67.4 6.1,-10.4 -32.5,9.7 -44.6,-0.2 -6.7,-5.4 -56,-72 -19.7,-114 9.1,-10.4 -35.5,-88.1 -12,-156.8 27.5,-80.5 109.1,-93.1 144.3,-94.8 0,0 3,-0.2 8.1,-0.2 0.1,0 0.1,0 0.1,0 0.1,0 0.1,0 0.1,0 5.1,0 8.1,0.2 8.1,0.2 35.3,1.6 116.8,14.2 144.4,94.8 23.5,68.7 -21.1,146.3 -12,156.8 36.3,42 -13,108.5 -19.7,114 -12.1,9.8 -50.7,-10.2 -44.6,0.2 4.6,7.9 8.9,67.4 8.9,67.4 h -11.9 l -5.7,-20.7 -10.2,-0.1 z"
   id="path9"
   inkscape:connector-curvature="0" />
</g>
</g></svg>