<?xml version="1.0" encoding="utf-8"?>
<!-- Generator: Adobe Illustrator 23.0.1, SVG Export Plug-In . SVG Version: 6.00 Build 0)  -->
<svg version="1.1" id="Layer_4" xmlns="http://www.w3.org/2000/svg"    xmlns:dc="http://purl.org/dc/elements/1.1/"
   xmlns:cc="http://creativecommons.org/ns#"
   xmlns:rdf="http://www.w3.org/1999/02/22-rdf-syntax-ns#" xmlns:xlink="http://www.w3.org/1999/xlink" x="0px" y="0px"
	 viewBox="0 0 1000 1000" style="enable-background:new 0 0 1000 1000;" xml:space="preserve"><metadata
   id="metadata97"><rdf:RDF><cc:Work
       rdf:about=""><dc:format>image/svg+xml</dc:format><dc:type
         rdf:resource="http://purl.org/dc/dcmitype/StillImage" /><dc:title></dc:title><dc:creator><cc:Agent><dc:title>http://bakadesign.dk/warhammer-40-000-icons/</dc:title></cc:Agent></dc:creator></cc:Work></rdf:RDF></metadata>
<g style="fill:#ff0000">
<g>
	<path d="M916.19,534v-95h-61.46c-3.64-30.99-11.26-60.76-22.34-88.79l52.2-30.14l-47.5-82.27l-51.14,29.52
		c-18.64-24.8-40.45-47.1-64.82-66.27l29.13-50.45l-82.27-47.5l-28.69,49.69c-28.35-11.95-58.58-20.32-90.11-24.57V71h-95v57.08
		c-31.55,4.16-61.8,12.45-90.18,24.32l-28.75-49.8l-82.27,47.5l29.06,50.33c-24.43,19.11-46.3,41.34-65.01,66.09l-51.25-29.59
		l-47.5,82.27l52.07,30.06c-11.16,28-18.87,57.75-22.6,88.73H86.19v95h62.78c4.45,30.38,12.72,59.51,24.33,86.88l-55.51,32.05
		l47.5,82.27l56.47-32.61c18.47,23.36,39.8,44.35,63.47,62.44l-33.12,57.36l82.27,47.5l33.35-57.76
		c27,10.92,55.64,18.63,85.45,22.65V901h95v-67.08c29.83-3.93,58.49-11.56,85.51-22.4l33.42,57.89l82.27-47.5l-33.05-57.25
		c23.72-18.02,45.12-38.95,63.65-62.26l56.6,32.68l47.5-82.27l-55.41-31.99c11.69-27.34,20.05-56.45,24.58-86.81H916.19z
		 M694.06,669.17L705.69,749h-409l11.25-80.23c-45.09-47.66-72.75-111.98-72.75-182.77c0-146.91,119.09-266,266-266
		s266,119.09,266,266C767.19,556.99,739.38,621.47,694.06,669.17z"/>
	<polygon points="647.88,438 667.88,438 667.88,371 638.88,371 626.56,371 618.38,281 572.38,281 572.38,326 526.38,326 526.38,281 
		515.38,281 489.38,281 478.38,281 478.38,326 432.38,326 432.38,281 386.38,281 378.19,371 347.88,371 336.88,371 336.88,438 
		356.88,438 356.88,516 321.88,735 409.93,735 474.12,655 407.12,655 483.12,552 406.12,552 567.12,395 542.12,507 600.12,507 
		541.12,606 589.12,606 518.67,735 682.88,735 647.88,516 	"/>
</g>
</g></svg>
