<?xml version="1.0" encoding="UTF-8" standalone="no"?>
<svg
   xmlns:dc="http://purl.org/dc/elements/1.1/"
   xmlns:cc="http://creativecommons.org/ns#"
   xmlns:rdf="http://www.w3.org/1999/02/22-rdf-syntax-ns#"
   xmlns:svg="http://www.w3.org/2000/svg"
   xmlns="http://www.w3.org/2000/svg"
   version="1.1"
   id="Layer_2"
   x="0px"
   y="0px"
   viewBox="0 0 650.15002 1000.1"
   xml:space="preserve"
   width="650.15002"
   height="1000.1"><metadata
   id="metadata4182"><rdf:RDF><cc:Work
       rdf:about=""><dc:format>image/svg+xml</dc:format><dc:type
         rdf:resource="http://purl.org/dc/dcmitype/StillImage" /><dc:title></dc:title><dc:creator><cc:Agent><dc:title>https://bakadesign.dk/warhammer-40-000-icons/</dc:title></cc:Agent></dc:creator></cc:Work></rdf:RDF></metadata>
<path
   d="M 379.63,322.41 C 533.03,297.02 650.1,162.36 650.15,0 h -82.98 c 0,0.13 0,0.26 0,0.39 0,115.64 -80.01,212.35 -187.08,236.62 l 1.27,-237 H 268.9 l -1.26,235.26 C 164.22,208.38 87.78,113.42 87.78,0.39 c 0,-0.13 0,-0.26 0,-0.39 H 4.04 c 0.05,159.75 113.38,292.68 263.14,321.1 l -0.64,119.94 H 0 L 322.77,1000.1 645.55,441.04 H 379 Z M 490.39,529.91 322.77,820.24 155.15,529.91 Z"
   id="path4175"
   style="fill:#ffff00" />
</svg>
