<?xml version="1.0" encoding="UTF-8" standalone="no"?>
<!-- Generator: Adobe Illustrator 23.0.2, SVG Export Plug-In . SVG Version: 6.00 Build 0)  -->

<svg
   xmlns:dc="http://purl.org/dc/elements/1.1/"
   xmlns:cc="http://creativecommons.org/ns#"
   xmlns:rdf="http://www.w3.org/1999/02/22-rdf-syntax-ns#"
   xmlns:svg="http://www.w3.org/2000/svg"
   xmlns="http://www.w3.org/2000/svg"
   xmlns:sodipodi="http://sodipodi.sourceforge.net/DTD/sodipodi-0.dtd"
   xmlns:inkscape="http://www.inkscape.org/namespaces/inkscape"
   version="1.1"
   id="Layer_2"
   x="0px"
   y="0px"
   viewBox="0 0 909.64001 969.6593"
   xml:space="preserve"
   sodipodi:docname="pauper-princes-symbol.svg"
   width="909.64001"
   height="969.6593"
   inkscape:version="0.92.3 (2405546, 2018-03-11)"><defs
   id="defs10" /><sodipodi:namedview
   pagecolor="#ffffff"
   bordercolor="#666666"
   borderopacity="1"
   objecttolerance="10"
   gridtolerance="10"
   guidetolerance="10"
   inkscape:pageopacity="0"
   inkscape:pageshadow="2"
   inkscape:window-width="640"
   inkscape:window-height="480"
   id="namedview8"
   showgrid="false"
   inkscape:zoom="0.236"
   inkscape:cx="455.29"
   inkscape:cy="484.99364"
   inkscape:window-x="0"
   inkscape:window-y="0"
   inkscape:window-maximized="0"
   inkscape:current-layer="Layer_2" /><metadata
   id="metadata97"><rdf:RDF><cc:Work
       rdf:about=""><dc:format>image/svg+xml</dc:format><dc:type
         rdf:resource="http://purl.org/dc/dcmitype/StillImage" /><dc:title></dc:title><dc:creator><cc:Agent><dc:title>http://bakadesign.dk/warhammer-40-000-icons/</dc:title></cc:Agent></dc:creator></cc:Work></rdf:RDF></metadata>
<g
   style="fill:#ff0000"
   id="g5"
   transform="translate(-44.71,-15.334352)">
<path
   d="m 785.08,850.52 c -9.21,-13.67 -3.81,-34.95 12.86,-48.8 16.8,-13.96 38.93,-15.28 50.61,-3.42 17.33,-19.89 31.89,-42.75 44.14,-68.46 -2.8,0.07 -5.58,-0.31 -8.28,-1.22 -16.65,-5.6 -23.92,-28.64 -16.24,-51.46 7.68,-22.82 27.4,-36.77 44.05,-31.17 3.35,1.13 6.32,2.97 8.86,5.37 7.96,-29.33 14.22,-61.14 19.18,-95.32 -8.38,5.02 -17.76,6.9 -26.84,4.6 -21.84,-5.55 -33.68,-33.17 -26.44,-61.69 7.24,-28.52 30.82,-47.14 52.67,-41.6 3.95,1 7.56,2.73 10.8,5.05 1.53,-19.3 2.81,-39.18 3.9,-59.64 -0.87,-25.72 -3.45,-50.08 -7.56,-73.1 -5.19,9.09 -13.04,16.07 -22.96,19.38 -24.63,8.23 -52.67,-9.27 -62.63,-39.08 -9.95,-29.81 1.95,-60.64 26.58,-68.87 11.63,-3.88 24.01,-2.03 34.89,4.14 -33.77,-83.03 -75.87,-128.42 -146.64,-166 27.34,17.98 23.25,34.83 10.57,56.8 -13.31,23.05 -48.63,27.56 -78.9,10.08 C 677.43,128.63 663.68,95.78 676.98,72.74 688.33,53.08 709.7,44.92 736.28,54.37 666.63,21.84 592.26,11.17 511.38,16.74 c 17.68,6.96 30.47,19.4 33.95,35.52 6.75,31.22 -23.91,64.33 -68.47,73.97 -44.56,9.63 -86.16,-7.86 -92.91,-39.08 -4.1,-18.97 5.62,-38.62 23.87,-53.3 C 243.95,77.05 96.55,195 55.24,373.8 c 38.18,6.58 55.29,15.8 55.29,15.8 20.85,21.48 60.46,42.02 106.51,60.36 C 208.88,439.48 204,426.3 204,411.98 c 0,-34.17 27.7,-61.87 61.87,-61.87 34.17,0 61.87,27.7 61.87,61.87 0,29.56 -20.73,54.26 -48.45,60.39 32.17,10.56 64.81,19.95 94.52,27.81 -46.07,-94.78 43.44,-155.34 151.39,-150.07 1.11,0.22 2.22,0.47 3.33,0.71 L 515.99,397.5 437,410.66 v 135.59 l 46.07,-92.15 84.25,11.85 50.58,-80.92 c 31.78,18.48 58.73,42.67 74.85,71.18 l -71.46,66.35 -68.45,-27.64 -93.46,92.15 102.68,-28.96 64.5,28.96 90.95,-46.67 c 4.22,27.8 4.32,53.38 0.61,76.49 -8.76,17.13 -20.05,31.69 -34.96,42.58 l -86.88,6.58 -28.96,-52.66 -97.94,17.81 -3.42,0.62 73.72,22.38 10.53,63.19 87.82,15.56 c -54.19,29.78 -132.69,35.67 -228.68,12.08 5.27,50.02 9.21,71.09 19.75,106.63 C 350.64,813.82 284.83,750.15 231.64,662.1 208.2,699.25 196.02,738.22 190.83,771.36 L 44.71,546.25 c 38.1,166.09 111.94,314.61 222.47,421.25 -4.4,-43.69 -10.53,-87.58 1.32,-114.53 95.38,93.14 205.86,150.91 351.48,126.37 L 566.25,893.9 c 93.73,2.68 164.81,-12.25 218.83,-43.38 z M 265.87,244.8 c -23.34,3.64 -47.72,12.83 -72.4,27.64 6.48,-49.48 39.57,-81.76 88.2,-104 5.24,15.33 -0.81,41.54 -15.8,76.36 z"
   id="path3"
   inkscape:connector-curvature="0" />
</g></svg>