<?xml version="1.0" encoding="utf-8"?>
<!-- Generator: Adobe Illustrator 22.1.0, SVG Export Plug-In . SVG Version: 6.00 Build 0)  -->
<svg version="1.1" id="Layer_2" xmlns="http://www.w3.org/2000/svg"    xmlns:dc="http://purl.org/dc/elements/1.1/"
   xmlns:cc="http://creativecommons.org/ns#"
   xmlns:rdf="http://www.w3.org/1999/02/22-rdf-syntax-ns#" xmlns:xlink="http://www.w3.org/1999/xlink" x="0px" y="0px"
	 viewBox="0 0 1000 1000" style="enable-background:new 0 0 1000 1000;" xml:space="preserve"><metadata
   id="metadata97"><rdf:RDF><cc:Work
       rdf:about=""><dc:format>image/svg+xml</dc:format><dc:type
         rdf:resource="http://purl.org/dc/dcmitype/StillImage" /><dc:title></dc:title><dc:creator><cc:Agent><dc:title>http://bakadesign.dk/warhammer-40-000-icons/</dc:title></cc:Agent></dc:creator></cc:Work></rdf:RDF></metadata>
<g style="fill:#ff0000">
<path d="M803.3,554.7c-13.2-11.1-15.7-26.4-10.6-44.8c51.4-15.8,92.2-37.3,118.7-56.7c7.6-44.3,8.2-71.9-1.3-84.4
	c-28.5,36.3-73.5,62.4-133.2,79.1c-11.6-14-15.8-29.4-11.9-46.2c47.3-27.9,87.5-62.1,120-102.9c1-54.4-7.2-95-29-114.8
	c-26.5,61.5-63.6,116.8-131.9,154.3c-18.6-8.9-26.2-24.2-25.1-44.8c57-46,100.1-100.8,118.7-171.5c-9.1-37.7-37.5-78.6-68.6-112.1
	c-12.9,79.2-40.9,193.9-101.6,203.1c-36.9,1.3-29-39.6-48.8-40.9c-26.4,158.3-139.8,160.9-134.5,232.1
	c10.6,88.4,129.3,14.5,174.1,98.9c55.4,71.2,7.8,115.1-23.7,98.9c4.8,24.5,15.8,44.8-5.3,72.5c-12.5,32.6-55.5,58.5-80.5,72.5
	c-26.9,16.9-65.9,1.3-65.9,1.3l-14.7-23.1l0,0l30.4-16.1l40.1,11l22.1-54.6l-54.6-22.1l-16.6,37.7l-23.7,13.2L244.1,205.2L99,98.4
	l4,179.4l283.6,445.8L365,734.9l-33.1-13.4l-22.1,54.6l54.6,22.1l14.6-36l28.6-15.2l13.2,24l-17.1,11.9l-17,34
	c-0.7,1.5,0.2,3.2,1.8,3.5l33.7,6l-13.7,32.1c-1,2.3,0.7,4.9,3.2,5l39.6,1.2l-9.5,36.9c-0.6,2.1,0.9,4.2,3,4.4l53.9-1.7v9.2v30.3
	l62,46.2v-79.1l-34.3-18.5c1.2-53.7,20.7-82.5,40.9-93.6c13.3-14.4,42.2-19.8,104.2,0c-18.5-12.3-20.9-25.2-18.5-38.3
	c49.5,4.2,92.3,3.7,121.3-6.6c-35.8-12.3-57.2-25.3-50.1-42.2c80.1,1,136.7-20.5,147.7-52.8c-34.7,5.4-74,9.4-96.3-6.6
	c-10-8.1-3.8-19.5,9.2-36.9c32.3,0.4,63.7-9.2,105.5-22.4c20.9-16.2,33.6-43.4,40.9-77.8C892.9,532.8,851.2,547.1,803.3,554.7z"/>
</g></svg>
