<?xml version="1.0" encoding="UTF-8" standalone="no"?>
<!-- Generator: Adobe Illustrator 22.1.0, SVG Export Plug-In . SVG Version: 6.00 Build 0)  -->

<svg
   xmlns:dc="http://purl.org/dc/elements/1.1/"
   xmlns:cc="http://creativecommons.org/ns#"
   xmlns:rdf="http://www.w3.org/1999/02/22-rdf-syntax-ns#"
   xmlns:svg="http://www.w3.org/2000/svg"
   xmlns="http://www.w3.org/2000/svg"
   xmlns:sodipodi="http://sodipodi.sourceforge.net/DTD/sodipodi-0.dtd"
   xmlns:inkscape="http://www.inkscape.org/namespaces/inkscape"
   version="1.1"
   id="Layer_2"
   x="0px"
   y="0px"
   viewBox="0 0 832.20001 980.09998"
   xml:space="preserve"
   sodipodi:docname="ravenwing-symbol.svg"
   width="832.20001"
   height="980.09998"
   inkscape:version="0.92.3 (2405546, 2018-03-11)"><sodipodi:namedview
   pagecolor="#ffffff"
   bordercolor="#666666"
   borderopacity="1"
   objecttolerance="10"
   gridtolerance="10"
   guidetolerance="10"
   inkscape:pageopacity="0"
   inkscape:pageshadow="2"
   inkscape:window-width="640"
   inkscape:window-height="480"
   id="namedview8"
   showgrid="false"
   inkscape:zoom="0.236"
   inkscape:cx="401"
   inkscape:cy="490"
   inkscape:window-x="0"
   inkscape:window-y="0"
   inkscape:window-maximized="0"
   inkscape:current-layer="Layer_2" /><metadata
   id="metadata97"><rdf:RDF><cc:Work
       rdf:about=""><dc:format>image/svg+xml</dc:format><dc:type
         rdf:resource="http://purl.org/dc/dcmitype/StillImage" /><dc:title></dc:title><dc:creator><cc:Agent><dc:title>http://bakadesign.dk/warhammer-40-000-icons/</dc:title></cc:Agent></dc:creator></cc:Work></rdf:RDF></metadata>
<g
   style="fill:#ff0000"
   id="g5"
   transform="translate(-99,-9.9)">
<path
   d="m 803.3,554.7 c -13.2,-11.1 -15.7,-26.4 -10.6,-44.8 51.4,-15.8 92.2,-37.3 118.7,-56.7 7.6,-44.3 8.2,-71.9 -1.3,-84.4 -28.5,36.3 -73.5,62.4 -133.2,79.1 -11.6,-14 -15.8,-29.4 -11.9,-46.2 47.3,-27.9 87.5,-62.1 120,-102.9 1,-54.4 -7.2,-95 -29,-114.8 C 829.5,245.5 792.4,300.8 724.1,338.3 705.5,329.4 697.9,314.1 699,293.5 756,247.5 799.1,192.7 817.7,122 808.6,84.3 780.2,43.4 749.1,9.9 736.2,89.1 708.2,203.8 647.5,213 c -36.9,1.3 -29,-39.6 -48.8,-40.9 -26.4,158.3 -139.8,160.9 -134.5,232.1 10.6,88.4 129.3,14.5 174.1,98.9 55.4,71.2 7.8,115.1 -23.7,98.9 4.8,24.5 15.8,44.8 -5.3,72.5 -12.5,32.6 -55.5,58.5 -80.5,72.5 -26.9,16.9 -65.9,1.3 -65.9,1.3 l -14.7,-23.1 v 0 l 30.4,-16.1 40.1,11 22.1,-54.6 -54.6,-22.1 -16.6,37.7 -23.7,13.2 L 244.1,205.2 99,98.4 l 4,179.4 283.6,445.8 -21.6,11.3 -33.1,-13.4 -22.1,54.6 54.6,22.1 14.6,-36 28.6,-15.2 13.2,24 -17.1,11.9 -17,34 c -0.7,1.5 0.2,3.2 1.8,3.5 l 33.7,6 -13.7,32.1 c -1,2.3 0.7,4.9 3.2,5 l 39.6,1.2 -9.5,36.9 c -0.6,2.1 0.9,4.2 3,4.4 l 53.9,-1.7 v 9.2 30.3 l 62,46.2 v -79.1 l -34.3,-18.5 c 1.2,-53.7 20.7,-82.5 40.9,-93.6 13.3,-14.4 42.2,-19.8 104.2,0 -18.5,-12.3 -20.9,-25.2 -18.5,-38.3 49.5,4.2 92.3,3.7 121.3,-6.6 -35.8,-12.3 -57.2,-25.3 -50.1,-42.2 80.1,1 136.7,-20.5 147.7,-52.8 -34.7,5.4 -74,9.4 -96.3,-6.6 -10,-8.1 -3.8,-19.5 9.2,-36.9 32.3,0.4 63.7,-9.2 105.5,-22.4 20.9,-16.2 33.6,-43.4 40.9,-77.8 -38.3,17.6 -80,31.9 -127.9,39.5 z"
   id="path3"
   inkscape:connector-curvature="0" />
</g></svg>