<?xml version="1.0" encoding="utf-8"?>
<!-- Generator: Adobe Illustrator 22.1.0, SVG Export Plug-In . SVG Version: 6.00 Build 0)  -->
<svg version="1.1" id="Layer_3" xmlns="http://www.w3.org/2000/svg"    xmlns:dc="http://purl.org/dc/elements/1.1/"
   xmlns:cc="http://creativecommons.org/ns#"
   xmlns:rdf="http://www.w3.org/1999/02/22-rdf-syntax-ns#" xmlns:xlink="http://www.w3.org/1999/xlink" x="0px" y="0px"
	 viewBox="0 0 1000 1000" style="enable-background:new 0 0 1000 1000;" xml:space="preserve"><metadata
   id="metadata97"><rdf:RDF><cc:Work
       rdf:about=""><dc:format>image/svg+xml</dc:format><dc:type
         rdf:resource="http://purl.org/dc/dcmitype/StillImage" /><dc:title></dc:title><dc:creator><cc:Agent><dc:title>http://bakadesign.dk/warhammer-40-000-icons/</dc:title></cc:Agent></dc:creator></cc:Work></rdf:RDF></metadata>
<g style="fill:#ff0000">
<g>
	<path d="M717.7,532.2c-28.3-30.2-61-39.8-73.8-42.8c-13.1-3.3-50.7-10.8-91,7.5c-21,9.5-79.2,38.8-87.7,48.2
		c-1.1-78.1-19.3-192.6,26.8-224.7c0,0,73.8-27.8,100.6,7.5c18.2,26.8-25.7,42.8-25.7,42.8l44.9,49.2l61.3-44.6l-2.4-1.4
		c-12.6,5.2-31.5,12.1-36,6.3c-6.9-8.9,3.9-28.8,24.1-44.4c20.2-15.6,42.1-21,49-12c5,6.5-8.4,25.1-18.9,37.3c0,0,0,2.1,0.3,2.6
		l91.7-66.8l-69.6-76c-180.5,7.3-446.2,15-475.1-4.3l-4.3,76l115.6,4.3l5.4,51.4c0,0-77,13.9-117.7-6.4l-7.5,72.8l123.1,5.4l4.3,61
		c0,0-105.9-1.1-119.8-12.8l-7.5,77h124.1l-1.1,132.7c0,0,204.4-187.3,297.5-58.9c54.6,81.3-108.2,146-149.8,166.9
		c-13.9,7-37.5,16.1-66.3,44.9c-13.9,15-56.7,51.4-46,100.6c5.4,19.3,10.1,42.8,50.3,56.7c39.6,13.7,77.2-12.3,79.2-13.9
		c-3.9,0.7-72.8,19.3-77-55.6c-3.2-34.2,12.8-52.4,28.9-68.5c42.8-33.2,199-95.2,227.9-117.7c34.2-27.8,65.7-81.2,59.9-126.3
		C752.7,593,744.9,561.2,717.7,532.2z M676,250.8l-16.1,17.1l-27.8-17.1H676z"/>
	<path d="M515.4,121.3l35.7-29.1c6.6-7.1,16.6-11.6,27.9-11.6c19.8,0,35.8,13.9,35.8,31c0,17.1-16,31-35.8,31
		c-15.6,0-28.9-8.7-33.8-20.7l-22.9,22.9l70.1,64.2l97.4-98.4L583.9,12.1l-99.5,85.6l-34.6,29.1c-6.6,7.1-16.6,11.6-27.9,11.6
		c-19.8,0-35.8-13.9-35.8-31c0-17.1,16-31,35.8-31c15.6,0,28.9,8.7,33.8,20.7l22.9-22.9L408.4,10l-97.4,98.4L417,206.9L515.4,121.3z
		"/>
</g>
</g></svg>
