<?xml version="1.0" encoding="utf-8"?>
<svg version="1.1" id="Layer_3" 
	 xmlns="http://www.w3.org/2000/svg"    xmlns:dc="http://purl.org/dc/elements/1.1/"
   xmlns:cc="http://creativecommons.org/ns#"
   xmlns:rdf="http://www.w3.org/1999/02/22-rdf-syntax-ns#" xmlns:xlink="http://www.w3.org/1999/xlink" x="0px" y="0px" viewBox="0 0 1000 1000"
	 style="enable-background:new 0 0 1000 1000;" xml:space="preserve"><metadata
   id="metadata97"><rdf:RDF><cc:Work
       rdf:about=""><dc:format>image/svg+xml</dc:format><dc:type
         rdf:resource="http://purl.org/dc/dcmitype/StillImage" /><dc:title></dc:title><dc:creator><cc:Agent><dc:title>http://bakadesign.dk/warhammer-40-000-icons/</dc:title></cc:Agent></dc:creator></cc:Work></rdf:RDF></metadata>
<g style="fill:#ff0000">
		<path d="M777.67,456.66c-5.24-3.77-32.21-8.95-32.21-8.95c-24.64-17.16-47.47-35.42-64.42-57.26
			c-0.17-45.26,16.07-116.41,30.42-189.67c-8.28,69.89-19.89,144.47-14.32,175.36c0,0,44.73,51.89,50.1,48.31
			c5.37-3.58,3.82-87.7,25.05-110.94C789.73,122.6,690.67,35.22,500.32,29c-190.36,6.22-289.41,93.6-271.98,284.51
			c21.23,23.24,19.68,107.36,25.05,110.94c5.37,3.58,50.1-48.31,50.1-48.31c5.58-30.89-6.04-105.47-14.31-175.36
			c14.35,73.26,30.59,144.42,30.42,189.67c-16.95,21.84-39.78,40.1-64.42,57.26c0,0-26.97,5.18-32.21,8.95
			c-6.12,4.4-3.07,43.7,0,44.73c31.38,3.79,44.63,30.32,39.37,82.31l55.47,41.16c12.35-15.54,27.93-26.77,46.52-34
			c12.95,5.14,21.34,23.36,28.63,44.73c-6.84-15.11-14.05-29.24-26.84-28.63c-14.4,6.16-24.9,15.93-32.21,28.63
			c7.16,119.89-16.1,189.67-53.68,207.57c-4.03,8.97-3.01,17.26,1.79,25.05c69.12,42.99,146.73,84.1,218.3,103.78
			c71.57-19.68,149.18-60.8,218.3-103.78c4.8-7.79,5.82-16.08,1.79-25.05c-37.58-17.89-60.84-87.68-53.68-207.57
			c-7.31-12.7-17.81-22.47-32.21-28.63c-12.79-0.61-20,13.52-26.84,28.63c7.29-21.37,15.68-39.6,28.63-44.73
			c18.59,7.23,34.18,18.46,46.52,34l55.47-41.16c-5.27-51.99,7.98-78.52,39.37-82.31C780.75,500.36,783.79,461.06,777.67,456.66z
			 M387.51,764.21c-7.5,59.74-14.27,83.31-20.28,90.21c-1.37,1.57-4.47,0.69-4.4-1.24c2.28-64.97,12.6-132.86,28.77-179.93
			c0.5-2.05,4.29-1.78,4.39,0.32C396.94,694.46,388.23,744.6,387.51,764.21z M439.48,773.38c-4.86,69.22-10.26,96.69-15.53,104.9
			c-1.2,1.87-4.07,0.99-4.07-1.24c-0.09-75.03,7.07-153.76,20.29-208.74c0.39-2.39,3.87-2.23,4.03,0.18
			C445.77,692.53,439.48,750.73,439.48,773.38z M455.26,497.81c-36.34,25.37-71.26,42.95-102.76,42.95
			c-34.7-7.16-57.97-41.16-45.49-80.52c17.95-30.42,79.93-12.02,147.83,27.57C458.58,489.99,458.81,495.33,455.26,497.81z
			 M500.32,904c0,0-17.89-100.2-17.89-173.57c0-37.58,5.37-71.57,17.89-71.57c12.53,0,17.89,34,17.89,71.57
			C518.21,803.8,500.32,904,500.32,904z M543.26,619.49c-5.37,3.58-23.26-51.89-42.95-53.68c-19.68,1.79-37.58,57.26-42.94,53.68
			c-5.37-3.58,19.68-91.26,42.94-98.42C523.58,528.24,548.63,615.91,543.26,619.49z M576.68,878.28
			c-5.27-8.21-10.67-35.68-15.53-104.9c0-22.65-6.29-80.85-4.72-104.9c0.16-2.41,3.64-2.57,4.03-0.18
			c13.22,54.98,20.37,133.71,20.29,208.74C580.75,879.26,577.89,880.15,576.68,878.28z M609.04,673.25
			c16.17,47.08,26.49,114.97,28.77,179.93c0.07,1.93-3.03,2.81-4.4,1.24c-6.01-6.9-12.78-30.47-20.28-90.21
			c-0.72-19.61-9.44-69.75-8.48-90.65C604.75,671.47,608.54,671.2,609.04,673.25z M648.13,540.76c-31.5,0-66.42-17.58-102.76-42.95
			c-3.55-2.48-3.32-7.82,0.42-10c67.9-39.59,129.89-57.99,147.83-27.57C706.1,499.61,682.84,533.6,648.13,540.76z"/>

</g></svg>
