<?xml version="1.0" encoding="UTF-8" standalone="no"?>
<svg
   xmlns:dc="http://purl.org/dc/elements/1.1/"
   xmlns:cc="http://creativecommons.org/ns#"
   xmlns:rdf="http://www.w3.org/1999/02/22-rdf-syntax-ns#"
   xmlns:svg="http://www.w3.org/2000/svg"
   xmlns="http://www.w3.org/2000/svg"
   height="782.09998"
   width="910"
   xml:space="preserve"
   viewBox="0 0 910 782.09998"
   y="0px"
   x="0px"
   id="Layer_3"
   version="1.1"><metadata
   id="metadata3450"><rdf:RDF><cc:Work
       rdf:about=""><dc:format>image/svg+xml</dc:format><dc:type
         rdf:resource="http://purl.org/dc/dcmitype/StillImage" /><dc:title></dc:title><dc:creator><cc:Agent><dc:title>http://bakadesign.dk/warhammer-40-000-icons/</dc:title></cc:Agent></dc:creator></cc:Work></rdf:RDF></metadata><defs
   id="defs3448" />
<path
   style="fill:#ff0000"
   id="path3443"
   d="M 910,0 C 808,46.71 707.25,81.9 610.32,84.06 l -32.89,10.96 c -1.52,-16.38 -10.99,-29.01 -27.41,-38.37 0.98,62.4 -127.91,60.3 -199.18,62.13 -40.2,5.48 -42.03,-3.65 -38.37,-34.72 -45.68,23.76 -63.36,58.33 -56.65,82.23 -63.93,5.34 -137.05,27.41 -140.7,32.89 -7.31,-7.31 -45.57,4.26 -73.09,12.79 -11.67,4.84 -26.32,4.52 -42.03,0 1.15,20.45 3.97,37.78 12.79,43.86 5.26,54.54 24.75,97.87 65.78,124.26 -14.62,-49.34 10.96,-42.03 49.34,-20.1 0,-36.55 14.62,-40.2 47.51,-5.48 5.48,-31.06 23.76,-31.06 56.65,10.96 v -31.06 c 35.94,-12.87 87.71,-7.31 93.19,18.27 1.61,49.43 -35.66,77.85 -78.57,102.33 -16.48,4.98 -40.38,-10.1 -65.78,-29.24 27.41,58.47 -9.14,84.06 -62.13,23.76 3.16,84.86 52.67,118.87 113.29,140.7 -1.83,-85.88 93.19,-116.95 166.29,-120.6 7.31,-34.72 21.93,-51.16 40.2,-52.99 22.14,2 31.06,7.31 31.06,60.3 0,52.99 -140.7,131.57 -140.7,131.57 -54.9,53.39 -85.21,111.93 -100.5,173.59 l 469.62,-5.48 c 7.31,-51.16 -20.1,-148.01 -27.41,-182.73 -5.48,-38.37 12.79,-49.34 43.86,-29.24 -9.13,-38.72 -15.13,-73.53 -18.27,-102.33 -8.21,-39.88 5.48,-45.68 52.99,-16.45 -7.55,-43.73 -32.78,-87.62 -63.96,-131.57 1.86,-24.52 27,-18.77 56.65,-5.48 -16.45,-42.03 -65.78,-67.61 -71.27,-76.75 2.37,-17.81 16.45,-27.41 42.03,-29.24 C 702.6,188.76 705.68,173.65 709.01,160.8 785.06,148.27 846.92,87.29 910,0 Z M 56.21,249.02 C 49.86,247.21 44.46,242 39.66,234.67 c 16.44,-3.77 32.57,-7.24 41.84,-3.94 -6.26,7.33 -13.58,14.05 -25.29,18.29 z m 274.53,-40.71 c -16.67,1.02 -32.81,1.68 -40.2,-3.65 8.59,-13.92 16.17,-19.08 36.55,-25.58 h 31.06 c -6.65,10.76 -14.14,21.19 -27.41,29.23 z" />
</svg>
