<?xml version="1.0" encoding="UTF-8" standalone="no"?>
<svg
   xmlns:dc="http://purl.org/dc/elements/1.1/"
   xmlns:cc="http://creativecommons.org/ns#"
   xmlns:rdf="http://www.w3.org/1999/02/22-rdf-syntax-ns#"
   xmlns:svg="http://www.w3.org/2000/svg"
   xmlns="http://www.w3.org/2000/svg"
   xmlns:sodipodi="http://sodipodi.sourceforge.net/DTD/sodipodi-0.dtd"
   xmlns:inkscape="http://www.inkscape.org/namespaces/inkscape"
   version="1.1"
   x="0px"
   y="0px"
   viewBox="0 0 664 914"
   xml:space="preserve"
   id="svg41"
   sodipodi:docname="tanith-symbol.svg"
   width="664"
   height="914"
   inkscape:version="0.92.3 (2405546, 2018-03-11)"><defs
   id="defs45" /><sodipodi:namedview
   pagecolor="#ffffff"
   bordercolor="#666666"
   borderopacity="1"
   objecttolerance="10"
   gridtolerance="10"
   guidetolerance="10"
   inkscape:pageopacity="0"
   inkscape:pageshadow="2"
   inkscape:window-width="640"
   inkscape:window-height="480"
   id="namedview43"
   showgrid="false"
   inkscape:zoom="0.236"
   inkscape:cx="321.51"
   inkscape:cy="459"
   inkscape:window-x="0"
   inkscape:window-y="0"
   inkscape:window-maximized="0"
   inkscape:current-layer="svg41" /><metadata
   id="metadata97"><rdf:RDF><cc:Work
       rdf:about=""><dc:format>image/svg+xml</dc:format><dc:type
         rdf:resource="http://purl.org/dc/dcmitype/StillImage" /><dc:title></dc:title><dc:creator><cc:Agent><dc:title>http://bakadesign.dk/warhammer-40-000-icons/</dc:title></cc:Agent></dc:creator></cc:Work></rdf:RDF></metadata>
<g
   style="fill:#ff0000"
   id="g39"
   transform="translate(-178.49,-45)">
		<g
   id="g37">
			<path
   d="m 469.51,581 h 15.45 l 1.46,-14.72 5.15,-0.73 0.73,15.45 h 12.53 l 0.58,-15.84 h 10.15 l 0.58,15.84 h 12.53 l 0.73,-15.45 5.15,0.73 1.46,14.72 h 15.45 l 1.46,-15.45 7.58,0.1 4.23,15.35 h 8.84 c 0,0 -3.16,-44.07 -6.56,-49.9 -4.52,-7.68 24.05,7.14 33.04,-0.15 5,-4.08 41.49,-53.35 14.62,-84.44 -6.7,-7.77 26.28,-65.3 8.89,-116.17 -20.45,-59.66 -80.85,-68.99 -106.98,-70.21 0,0 -2.23,-0.15 -6.02,-0.15 -0.05,0 -0.05,0 -0.1,0 -0.05,0 -0.05,0 -0.1,0 -3.84,0 -6.02,0.15 -6.02,0.15 -26.09,1.21 -86.53,10.54 -106.94,70.21 -17.44,50.92 15.6,108.44 8.89,116.17 -26.87,31.09 9.67,80.41 14.62,84.44 8.99,7.34 37.56,-7.53 33.04,0.15 -3.4,5.83 -6.56,49.9 -6.56,49.9 h 8.84 l 4.23,-15.35 7.58,-0.1 z M 528.4,473.92 c 7.09,-3.69 15.74,-7.53 25.9,-10.69 12.58,-3.94 23.9,-5.73 32.99,-6.56 0.44,-0.05 0.87,0 1.31,0.19 7.53,2.77 9.96,7.29 10.64,8.6 4.23,8.89 -1.26,23.17 -15.69,32.26 -0.39,0.24 -0.78,0.39 -1.21,0.44 -6.61,0.92 -22.88,2.23 -39.4,-7.04 -6.85,-3.84 -11.9,-8.5 -15.4,-12.44 -1.33,-1.51 -0.94,-3.84 0.86,-4.76 z M 506,498.45 c 1.46,-1.46 3.35,-2.72 5.59,-3.94 2.19,1.21 4.13,2.48 5.59,3.94 11.32,11.17 11.66,26.62 11.17,34.11 -0.05,1.02 -1.31,1.41 -1.94,0.63 -1.55,-1.99 -3.69,-4.28 -6.56,-6.36 -3.06,-2.23 -5.98,-3.64 -8.26,-4.47 -2.23,0.83 -5.2,2.23 -8.26,4.47 -2.87,2.09 -5,4.37 -6.56,6.36 -0.63,0.78 -1.89,0.39 -1.94,-0.63 -0.49,-7.53 -0.15,-22.93 11.17,-34.11 z m -66.95,-0.29 c -0.44,-0.05 -0.87,-0.19 -1.21,-0.44 -14.43,-9.13 -19.92,-23.37 -15.64,-32.26 0.63,-1.36 3.06,-5.83 10.64,-8.6 0.44,-0.15 0.87,-0.19 1.31,-0.19 9.13,0.83 20.45,2.62 32.99,6.56 10.15,3.16 18.8,7 25.9,10.69 1.75,0.92 2.14,3.26 0.83,4.76 -3.5,3.94 -8.55,8.6 -15.4,12.44 -16.49,9.28 -32.81,7.97 -39.42,7.04 z"
   id="path3"
   inkscape:connector-curvature="0" />
			<path
   d="m 510.49,255 c 31,1 53,5 81,21 l 16,-12 -37,-37 -17,21 -20,-5 -6,-106 29,-18 -46,-74 -46,74 29,18 -6,106 -20,5 -17,-21 -37,37 16,12 c 28,-16 50,-20 81,-21 z"
   id="path5"
   inkscape:connector-curvature="0" />
			<path
   d="m 235.49,267 17.1,17.1 c 0.83,-9.9 4.99,-18.05 12.12,-23.64 l 5.43,-4.26 1.71,6.69 c 0.56,2.19 2.92,4.11 5.91,6.54 0.88,0.72 1.83,1.48 2.8,2.32 0.73,-1.65 2.15,-4.02 4.13,-6.76 l -27.2,-22.99 4,-35 -83,-17 22,86 z"
   id="path7"
   inkscape:connector-curvature="0" />
			<path
   d="m 330,303.27 c -2.8,6.68 -6.7,12.01 -11.8,16.04 2.05,-0.58 4.11,-1.13 6.15,-1.67 l 5.64,-1.47 V 322 c 0,9.55 -3.34,20.15 -9.35,30.15 l 1.57,1.57 -11.72,12.28 v 6 l 20.77,-9.23 65.23,65.23 c -3.73,-22.62 -11,-44 -10,-77 L 363.25,331.36 375.49,313 h 21 l 4,-44 h -50 l 4,26 -18.57,13.27 z"
   id="path9"
   inkscape:connector-curvature="0" />
			<path
   d="m 459.17,593.34 5.31,-5.34 h -24 l 6,-52 c -7.82,4.5 -17.4,4.72 -29,0 l -22.32,19.87 c 15.98,4.36 27.7,11.59 35.66,22.03 6.38,8.36 10.39,18.84 12.14,31.74 l 1.71,-1.72 c -0.39,-3.73 -0.62,-7.67 -0.69,-11.84 l -0.08,-5.21 5.17,0.68 c 3.54,0.45 6.9,1.06 10.1,1.79 z"
   id="path11"
   inkscape:connector-curvature="0" />
			<path
   d="m 386.29,592.12 c -0.22,-0.75 -0.43,-1.51 -0.62,-2.27 -0.1,0.54 -0.2,1.07 -0.31,1.61 0.31,0.22 0.62,0.44 0.93,0.66 z"
   id="path13"
   inkscape:connector-curvature="0" />
			<path
   d="m 373.26,609.02 c 0.57,-0.13 1.14,-0.25 1.73,-0.37 -0.1,-0.07 -0.2,-0.14 -0.3,-0.22 -0.47,0.2 -0.95,0.4 -1.43,0.59 z"
   id="path15"
   inkscape:connector-curvature="0" />
			<path
   d="m 740.42,271.74 c 0.97,-0.83 1.91,-1.6 2.8,-2.32 2.99,-2.43 5.35,-4.34 5.91,-6.54 l 1.71,-6.69 5.43,4.26 c 7.13,5.6 11.29,13.75 12.12,23.64 l 17.1,-17.1 35,9 22,-86 -83,17 4,35 -27.2,22.99 c 1.97,2.74 3.39,5.12 4.13,6.76 z"
   id="path17"
   inkscape:connector-curvature="0" />
			<path
   d="m 645.49,313 12.24,18.36 -23.24,19.64 c 1,33 -6.27,54.38 -10,77 l 65.23,-65.23 20.77,9.23 v -6 l -11.72,-12.28 1.57,-1.57 c -6,-10 -9.35,-20.61 -9.35,-30.15 v -5.82 l 5.64,1.47 c 2.04,0.53 4.1,1.09 6.15,1.67 -5.1,-4.03 -9,-9.36 -11.8,-16.04 l -5.91,5 -18.58,-13.28 4,-26 h -50 l 4,44 z"
   id="path19"
   inkscape:connector-curvature="0" />
			<path
   d="m 576.29,607.92 1.71,1.72 c 1.75,-12.9 5.75,-23.38 12.14,-31.74 7.97,-10.44 19.68,-17.67 35.66,-22.03 L 603.49,536 c -11.6,4.72 -21.18,4.5 -29,0 l 6,52 h -24 l 5.31,5.34 c 3.2,-0.73 6.56,-1.34 10.1,-1.8 l 5.17,-0.68 -0.08,5.21 c -0.07,4.18 -0.31,8.11 -0.7,11.85 z"
   id="path21"
   inkscape:connector-curvature="0" />
			<path
   d="m 635.61,591.46 c -0.11,-0.54 -0.21,-1.08 -0.31,-1.61 -0.2,0.77 -0.4,1.53 -0.62,2.27 0.31,-0.22 0.62,-0.44 0.93,-0.66 z"
   id="path23"
   inkscape:connector-curvature="0" />
			<path
   d="m 647.71,609.02 c -0.48,-0.19 -0.96,-0.38 -1.42,-0.59 -0.1,0.07 -0.2,0.14 -0.3,0.22 0.58,0.12 1.15,0.24 1.72,0.37 z"
   id="path25"
   inkscape:connector-curvature="0" />
			<path
   d="m 513.34,789.51 c -0.67,0 -1.34,0 -2.01,0 -13.85,-0.06 -27.74,-0.78 -41.65,-2.13 l -2.19,59.62 43,112 43,-112 -2.17,-59.1 c -12.69,1.06 -25.35,1.61 -37.98,1.61 z"
   id="path27"
   inkscape:connector-curvature="0" />
			<path
   d="m 284.49,275 c -0.51,1.91 -0.9,3.92 -1.23,5.99 -6.04,-7.91 -14.13,-10.56 -15.77,-16.99 -18.61,14.61 -9.42,46.04 3.16,57.85 -1.14,5.24 -2.16,10.42 -3.06,15.55 -11.27,-10.66 -22.15,-15.8 -27.1,-27.41 -21.17,27.65 1.69,60.21 22.16,72.85 -0.16,4.32 -0.23,8.6 -0.21,12.84 -16.41,-16.07 -27.76,-12.3 -36.38,-20.57 -8.53,31.09 20.11,61.04 40.91,68.19 0.67,3.53 1.43,7.02 2.26,10.49 -17.6,-11.05 -29.69,-7.48 -38.95,-13.17 -5.02,31.86 33.43,61.87 55.06,58.99 1.52,3.2 3.12,6.37 4.79,9.5 -23.55,-7.42 -32.78,-2.68 -45.26,-5.7 8.67,35.67 51.95,54.34 75.62,49.99 5.02,5.87 10.35,11.61 16,17.2 -30.14,-2.91 -37.99,4.86 -52.06,5.02 17.95,28.88 70.18,38.98 90.7,27.57 3.75,2.72 7.6,5.41 11.54,8.05 -30.62,3.99 -36.95,13.3 -51.29,16.57 23.93,23.38 75.12,23.49 96.91,10.26 6.66,3.44 13.51,6.79 20.54,10.07 -31.52,6.37 -37.06,16.39 -51.33,20.85 17.98,14.99 48.36,17.58 72.07,12.67 l -0.68,18.61 c 14.22,1.28 28.42,1.93 42.58,1.93 0.06,0 0.11,0 0.16,0 10.81,0 21.64,-0.38 32.51,-1.13 l -0.71,-19.41 c 23.71,4.9 54.1,2.32 72.07,-12.67 -14.27,-4.46 -19.81,-14.48 -51.33,-20.85 7.04,-3.27 13.89,-6.63 20.54,-10.07 21.78,13.24 72.98,13.12 96.91,-10.26 -14.34,-3.27 -20.67,-12.58 -51.29,-16.57 3.94,-2.64 7.78,-5.33 11.54,-8.05 20.52,11.41 72.75,1.31 90.7,-27.57 -14.06,-0.16 -21.91,-7.93 -52.06,-5.02 5.65,-5.59 10.98,-11.33 16,-17.2 23.67,4.35 66.94,-14.32 75.62,-49.99 -12.48,3.02 -21.71,-1.72 -45.26,5.7 1.67,-3.14 3.27,-6.3 4.79,-9.5 21.63,2.88 60.08,-27.13 55.06,-58.99 -9.26,5.68 -21.35,2.12 -38.95,13.17 0.82,-3.46 1.58,-6.96 2.26,-10.49 20.8,-7.15 49.43,-37.09 40.91,-68.19 -8.62,8.27 -19.97,4.5 -36.38,20.57 0.02,-4.24 -0.05,-8.52 -0.21,-12.84 20.47,-12.64 43.33,-45.19 22.16,-72.85 -4.94,11.6 -15.83,16.74 -27.1,27.41 -0.9,-5.13 -1.92,-10.32 -3.06,-15.55 12.58,-11.82 21.77,-43.24 3.16,-57.85 -1.64,6.43 -9.73,9.08 -15.77,16.99 -0.33,-2.07 -0.71,-4.08 -1.23,-5.99 2.19,-1.05 -21.01,-34.9 -46,-32 4.5,9.9 3.34,28.72 26.41,52.81 -7.18,-1.41 -15.28,-1.39 -23.93,-0.53 5.74,20.61 19.74,29.72 46.62,29.17 1.14,6.95 2.1,13.83 2.87,20.64 -10.99,-11.37 -25.31,-17.43 -46.97,-23.08 0,23.33 21.74,52.28 49.32,60.87 0.05,5.76 -0.06,11.45 -0.32,17.09 -8.25,-9.49 -25.62,-15 -38.01,-21.99 -10.7,28.07 5.18,44.98 33.3,62.59 -1.02,5.32 -2.19,10.58 -3.53,15.78 -6.19,-12.01 -19.92,-23.3 -32.78,-33.32 -11.9,22.52 0.9,51.01 20.72,68.52 -2.84,6.56 -5.97,13 -9.42,19.3 0.42,-14.4 -10.58,-27.33 -20.18,-42.95 -25.58,21.91 -23.43,43.67 -3.84,78.5 -4.48,5.48 -9.26,10.83 -14.33,16.05 3.22,-12.45 1.42,-26.49 -2.96,-41.36 -30.48,14.26 -40.82,35.98 -32.87,72.32 -5.32,3.88 -10.85,7.65 -16.61,11.32 8.2,-12.38 10.11,-28.33 9.01,-45.98 -36.33,7.72 -52.15,28.32 -51.51,69.27 -5.89,2.77 -11.94,5.47 -18.18,8.08 6.52,-11.02 8.91,-24.83 9.16,-40.09 -11,1.45 -20.26,4.19 -27.91,8.41 l -0.09,-2.41 0.85,-14 h -34.85 -34.85 l 0.85,14 -0.09,2.41 c -7.66,-4.22 -16.91,-6.96 -27.91,-8.41 0.25,15.26 2.64,29.07 9.16,40.09 -6.24,-2.61 -12.29,-5.3 -18.18,-8.08 0.64,-40.95 -15.19,-61.54 -51.51,-69.27 -1.1,17.65 0.81,33.59 9.01,45.98 -5.75,-3.67 -11.29,-7.44 -16.61,-11.32 7.95,-36.34 -2.38,-58.06 -32.87,-72.32 -4.37,14.87 -6.18,28.92 -2.96,41.36 -5.07,-5.22 -9.85,-10.56 -14.33,-16.05 19.59,-34.83 21.74,-56.59 -3.84,-78.5 -9.6,15.63 -20.6,28.55 -20.18,42.95 -3.45,-6.3 -6.58,-12.73 -9.42,-19.3 19.83,-17.51 32.62,-46 20.72,-68.52 -12.86,10.01 -26.58,21.3 -32.78,33.32 -1.34,-5.19 -2.51,-10.45 -3.53,-15.78 28.12,-17.61 44,-34.52 33.3,-62.59 -12.39,6.99 -29.76,12.5 -38.01,21.99 -0.25,-5.64 -0.36,-11.34 -0.32,-17.09 27.58,-8.6 49.32,-37.54 49.32,-60.87 -21.66,5.65 -35.98,11.71 -46.97,23.08 0.77,-6.81 1.73,-13.69 2.87,-20.64 26.89,0.56 40.88,-8.55 46.62,-29.17 -8.65,-0.86 -16.75,-0.88 -23.93,0.53 23.07,-24.08 21.91,-42.9 26.41,-52.81 -24.95,-2.9 -48.16,30.95 -45.96,32 z"
   id="path29"
   inkscape:connector-curvature="0" />
			<path
   d="m 687,610.33 c -10.97,2.22 -21.45,2.59 -30.22,1.11 7.04,2.22 12.16,4.69 16.62,6.84 4.53,2.18 8.44,4.06 13.21,5.15 l 8.05,1.83 -5.91,5.77 c -11.75,11.48 -30.11,18.62 -51.71,20.13 -6.01,0.42 -12.04,0.36 -17.85,-0.12 l 26.71,26.86 0.16,-0.2 c 2.23,-2.88 0.35,-13.61 -0.36,-17.65 -0.39,-2.24 0.11,-4.51 1.43,-6.37 1.32,-1.87 3.28,-3.11 5.53,-3.5 16.81,-2.88 36.4,-2.21 59.88,2.04 4.19,0.76 7.36,4.27 7.72,8.53 2.12,25.45 5.83,46.34 11.33,63.86 1.4,4.47 -0.74,9.35 -4.97,11.36 -5.26,2.5 -10.53,4.89 -15.8,7.2 l 23.67,23.83 108,42 -48,-103 z"
   id="path31"
   inkscape:connector-curvature="0" />
			<path
   d="m 290.01,724.01 c 7.72,-18.86 12.36,-40.68 13.8,-64.85 0.27,-4.54 3.74,-8.26 8.24,-8.85 18.41,-2.41 35.32,-2.43 50.25,-0.07 4.57,0.72 7.77,5.03 7.13,9.61 -1.17,8.33 -0.94,13.75 0.68,16.09 l 2.36,3.42 c 0.3,0.09 0.6,0.17 0.9,0.26 l 28.4,-28.56 c -5.81,0.48 -11.84,0.54 -17.85,0.12 -21.6,-1.51 -39.96,-8.66 -51.71,-20.13 l -5.91,-5.77 8.05,-1.83 c 4.77,-1.09 8.68,-2.97 13.21,-5.15 4.45,-2.15 9.58,-4.62 16.62,-6.84 -8.77,1.47 -19.26,1.11 -30.22,-1.11 L 226.49,706 l -48,103 108,-42 23.67,-23.81 c -5.16,-2.27 -10.31,-4.61 -15.45,-7.06 -4.54,-2.14 -6.6,-7.47 -4.7,-12.12 z"
   id="path33"
   inkscape:connector-curvature="0" />
			<path
   d="m 320.82,669 c 17.52,4.67 33,9 45,12 -2.03,-2.94 -3.14,-8.07 -1.52,-19.62 0.27,-1.91 -1.05,-3.68 -2.96,-3.98 -15.03,-2.37 -31.38,-2.19 -48.82,0.09 -2.14,0.28 -3.77,2.04 -3.9,4.19 -1.45,24.3 -6.02,46.54 -14.16,66.45 -0.89,2.19 0.07,4.7 2.21,5.71 139.52,66.22 281.93,68.94 427.62,-0.15 2,-0.95 3.01,-3.23 2.34,-5.34 -5.84,-18.6 -9.5,-40.52 -11.54,-64.94 -0.17,-2.01 -1.64,-3.67 -3.63,-4.03 -20.88,-3.78 -40.54,-5.05 -58.15,-2.03 -1.92,0.33 -3.22,2.16 -2.88,4.07 1.59,9.03 2.59,17.46 -0.62,21.59 16,-2 33.46,-8.52 55,-14 C 576.32,719.87 448.32,720.05 320.82,669 Z"
   id="path35"
   inkscape:connector-curvature="0" />
		</g>

</g></svg>