<?xml version="1.0" encoding="UTF-8" standalone="no"?>
<svg
   xmlns:dc="http://purl.org/dc/elements/1.1/"
   xmlns:cc="http://creativecommons.org/ns#"
   xmlns:rdf="http://www.w3.org/1999/02/22-rdf-syntax-ns#"
   xmlns:svg="http://www.w3.org/2000/svg"
   xmlns="http://www.w3.org/2000/svg"
   height="974.14001"
   width="974.15002"
   xml:space="preserve"
   viewBox="0 0 974.15002 974.14001"
   y="0px"
   x="0px"
   id="Layer_3"
   version="1.1"><metadata
   id="metadata3650"><rdf:RDF><cc:Work
       rdf:about=""><dc:format>image/svg+xml</dc:format><dc:type
         rdf:resource="http://purl.org/dc/dcmitype/StillImage" /><dc:title></dc:title><dc:creator><cc:Agent><dc:title>http://bakadesign.dk/warhammer-40-000-icons/</dc:title></cc:Agent></dc:creator></cc:Work></rdf:RDF></metadata>
<g
   style="fill:#ff0000"
   transform="translate(-6.85,-5.51)"
   id="g3643">
	<path
   style="fill:#ff0000"
   id="path3627"
   d="m 746.4,134.69 c -7.93,21.82 -23.17,38.36 -30.38,45.57 0,0 -25.26,25.3 -64.82,64.9 29.55,21.29 55.75,52.2 71.12,97 l 0.01,0.02 c 1.01,2.96 1.94,5.93 2.78,8.9 l 81.12,-80.6 c 7.21,-7.21 23.75,-22.43 45.57,-30.38 44.43,-16.17 100.75,46.04 102.05,47.8 9.06,-9.06 18.06,-18.06 27.13,-27.13 L 853.38,133.15 853.33,133.1 725.73,5.52 c -9.06,9.06 -18.06,18.06 -27.13,27.13 1.75,1.28 63.97,57.61 47.8,102.04 z" />
	<path
   style="fill:#ff0000"
   id="path3629"
   d="m 136.03,240.1 c 21.82,7.93 38.36,23.17 45.57,30.38 0,0 32.62,32.57 81.78,81.67 0.93,-3.33 1.96,-6.66 3.1,-9.98 13.73,-40.16 37.33,-72.47 70.34,-96.48 l -65,-65.43 C 264.61,173.05 249.39,156.51 241.44,134.69 225.27,90.26 287.48,33.94 289.24,32.64 280.18,23.58 271.18,14.58 262.11,5.51 l -127.6,127.6 -0.05,0.05 L 6.85,260.77 c 9.06,9.06 18.06,18.06 27.13,27.13 1.28,-1.76 57.62,-63.97 102.05,-47.8 z" />
	<path
   style="fill:#ff0000"
   id="path3631"
   d="m 239.86,855.1 c 8.02,-27.78 29.73,-48.38 35.06,-53.29 17.66,-17.85 38.1,-38.5 59.69,-60.29 -6.53,-1.16 -12.71,-3.62 -18.11,-8.02 -10.4,-8.46 -43.64,-53.81 -51.25,-102.18 -38.8,38.74 -68.09,67.96 -80.55,80.28 -4.91,5.32 -25.51,27.03 -53.29,35.06 -26.81,7.76 -82.95,-33.05 -93.55,-53.25 L 6.87,724.4 134.47,852 l 0.05,0.05 127.6,127.6 30.99,-30.99 C 272.9,938.05 232.1,881.89 239.86,855.1 Z" />
	<path
   style="fill:#ff0000"
   id="path3633"
   d="m 950.01,693.37 c -10.62,20.22 -66.78,61.02 -93.57,53.26 -27.78,-8.02 -48.38,-29.73 -53.29,-35.06 -23.11,-22.84 -50.86,-50.35 -79.78,-79 -7.98,47.82 -40.73,92.48 -51.07,100.92 -5.71,4.64 -12.31,7.1 -19.26,8.17 28.55,28.59 49.84,49.98 59.89,60.14 5.32,4.91 27.03,25.51 35.06,53.29 7.76,26.81 -33.05,82.95 -53.25,93.55 l 30.99,30.99 127.6,-127.6 0.05,-0.05 L 981,724.37 Z" />
	<path
   style="fill:#ff0000"
   id="path3635"
   d="m 249.6,131.31 c 6.64,18.24 19.08,33.11 28.36,42.39 l 35.41,35.64 c 41.08,-26.32 88.29,-43.91 139,-50.19 v -28.87 h 1.12 c 0.58,-21.89 18.5,-39.46 40.52,-39.46 22.03,0 39.94,17.57 40.52,39.46 h 0.03 v 28.74 c 50.99,6.15 98.46,23.73 139.77,50.12 l 35.41,-35.46 c 9.27,-9.27 21.72,-24.15 28.34,-42.37 1.12,-3.06 1.76,-6.23 2.01,-9.44 -70.5,-46.9 -155.13,-74.24 -246.16,-74.24 -91.1,0 -175.8,27.38 -246.33,74.36 0.25,3.17 0.89,6.29 2,9.32 z" />
	<path
   style="fill:#ff0000"
   id="path3637"
   d="m 739.49,857.14 c -6.83,-23.62 -25.07,-42.33 -32.59,-49.28 l -0.15,-0.13 -0.14,-0.14 c -6.61,-6.68 -17.8,-17.93 -32.51,-32.69 -18.32,11.68 -37.85,21.63 -58.36,29.63 -1.47,-18.73 -6.35,-76.43 -11.54,-85.33 -8.25,-14.03 43.95,13.05 60.38,-0.26 9.15,-7.46 75.83,-97.5 26.73,-154.32 -12.24,-14.2 48.05,-119.34 16.26,-212.31 C 670.19,243.27 559.81,226.22 512.04,224 c 0,0 -4.09,-0.26 -11.01,-0.26 -0.09,0 -0.09,0 -0.18,0 -0.09,0 -0.09,0 -0.18,0 -7.01,0 -11.01,0.26 -11.01,0.26 -47.69,2.22 -158.15,19.27 -195.44,128.31 -31.88,93.06 28.51,198.2 16.25,212.31 -49.1,56.83 17.67,146.96 26.73,154.32 16.43,13.4 68.64,-13.77 60.38,0.26 -5.81,9.96 -11.24,81.07 -11.92,90.22 -25.54,-8.71 -49.7,-20.41 -72.04,-34.7 -11.27,11.38 -22.25,22.48 -32.54,32.88 l -0.14,0.14 -0.15,0.14 c -7.52,6.93 -25.75,25.61 -32.58,49.28 -0.5,1.73 -0.7,3.76 -0.61,6.05 70.53,46.98 155.23,74.36 246.33,74.36 91.03,0 175.67,-27.34 246.17,-74.25 0.09,-2.34 -0.1,-4.42 -0.61,-6.18 z M 643.63,583.5 c 13.77,5.06 18.2,13.32 19.44,15.72 7.73,16.25 -2.3,42.36 -28.67,58.96 -0.71,0.45 -1.42,0.71 -2.22,0.8 -12.08,1.69 -41.82,4.09 -72.02,-12.88 -12.52,-7.01 -21.76,-15.54 -28.14,-22.73 -2.4,-2.75 -1.69,-7.01 1.6,-8.7 12.97,-6.75 28.77,-13.77 47.32,-19.53 22.99,-7.19 43.69,-10.48 60.29,-11.99 0.8,-0.09 1.6,0 2.4,0.35 z m -110.1,138.36 c -0.09,1.86 -2.4,2.58 -3.55,1.15 -2.84,-3.64 -6.75,-7.81 -11.99,-11.63 -5.59,-4.09 -10.93,-6.66 -15.09,-8.17 -4.09,1.51 -9.5,4.09 -15.09,8.17 -5.24,3.81 -9.15,7.99 -11.99,11.63 -1.15,1.42 -3.46,0.71 -3.55,-1.15 -0.89,-13.77 -0.26,-41.91 20.42,-62.34 2.66,-2.66 6.13,-4.98 10.21,-7.19 4,2.22 7.55,4.53 10.21,7.19 20.69,20.42 21.31,48.66 20.42,62.34 z M 453.18,386.1 c -6.05,8.93 -9.59,19.71 -9.59,31.31 0,30.87 25.02,55.89 55.89,55.89 30.87,0 55.89,-25.02 55.89,-55.89 0,-11.6 -3.54,-22.38 -9.59,-31.31 53.49,15.9 91.79,53.23 91.79,53.23 0,0 -61.83,60.28 -138.09,60.28 -76.26,0 -138.09,-60.28 -138.09,-60.28 0,0 38.3,-37.32 91.79,-53.23 z m -82.86,272.88 c -0.8,-0.09 -1.6,-0.35 -2.22,-0.8 -26.37,-16.69 -36.41,-42.71 -28.59,-58.96 1.15,-2.49 5.59,-10.65 19.44,-15.72 0.8,-0.26 1.6,-0.35 2.4,-0.35 16.69,1.51 37.38,4.8 60.29,11.99 18.55,5.78 34.36,12.79 47.32,19.53 3.21,1.69 3.92,5.95 1.52,8.7 -6.39,7.19 -15.63,15.72 -28.14,22.73 -30.11,16.96 -59.94,14.57 -72.02,12.88 z m 164.24,189.15 h -0.03 c -0.58,21.89 -18.5,39.46 -40.52,39.46 -22.03,0 -39.94,-17.57 -40.52,-39.46 h -1.12 v -23.39 c -22.01,-2.73 -43.35,-7.59 -63.82,-14.36 h 13.21 l 7.73,-28.06 13.85,-0.18 2.66,28.23 h 28.23 l 2.66,-26.91 9.41,-1.34 1.34,28.23 h 22.91 l 1.06,-28.94 h 18.55 l 1.06,28.94 h 22.91 l 1.34,-28.23 9.41,1.34 2.66,26.91 h 28.23 l 2.66,-28.23 13.85,0.18 7.68,27.88 c -20.96,6.98 -42.85,11.94 -65.42,14.66 v 23.27 z" />
	<path
   style="fill:#ff0000"
   id="path3639"
   d="m 134.53,451.42 v -0.03 h 26.55 c 6.13,-50.86 23.64,-98.22 49.92,-139.46 l -35.69,-35.64 c -9.27,-9.27 -24.15,-21.72 -42.37,-28.34 -2.96,-1.08 -6.12,-1.75 -9.42,-2.02 -47.11,70.6 -74.57,155.42 -74.57,246.65 0,90.89 27.26,175.42 74.04,245.85 0.3,0.01 0.61,0.03 0.91,0.03 1.88,0 3.56,-0.21 4.99,-0.62 23.62,-6.83 42.33,-25.07 49.28,-32.59 l 0.14,-0.15 0.14,-0.14 c 6.21,-6.14 16.79,-16.66 32.8,-32.62 -26.23,-41.03 -43.78,-88.15 -50.05,-138.77 h -26.68 v -1.12 c -21.89,-0.58 -39.46,-18.5 -39.46,-40.52 0.01,-22.01 17.58,-39.93 39.47,-40.51 z" />
	<path
   style="fill:#ff0000"
   id="path3641"
   d="m 852.39,532.47 v 1.12 H 826.8 c -6.28,50.74 -23.89,97.96 -50.23,139.06 11.58,11.47 22.55,22.33 32.65,32.31 l 0.15,0.14 0.14,0.15 c 6.93,7.52 25.61,25.75 49.28,32.58 1.43,0.41 3.1,0.62 4.99,0.62 0.35,0 0.73,-0.03 1.1,-0.04 46.77,-70.43 74.02,-154.94 74.02,-245.82 0,-91.24 -27.47,-176.06 -74.57,-246.65 -3.36,0.26 -6.58,0.93 -9.59,2.03 -18.24,6.64 -33.11,19.08 -42.39,28.36 l -35.52,35.29 c 26.39,41.3 43.97,88.78 50.12,139.77 h 25.46 v 0.03 c 21.89,0.58 39.46,18.5 39.46,40.52 -0.02,22.03 -17.59,39.94 -39.48,40.53 z" />
</g>
</svg>
