<?xml version="1.0" encoding="utf-8"?>
<!-- Generator: Adobe Illustrator 23.1.1, SVG Export Plug-In . SVG Version: 6.00 Build 0)  -->
<svg version="1.1" id="Layer_2" xmlns="http://www.w3.org/2000/svg"    xmlns:dc="http://purl.org/dc/elements/1.1/"
   xmlns:cc="http://creativecommons.org/ns#"
   xmlns:rdf="http://www.w3.org/1999/02/22-rdf-syntax-ns#" xmlns:xlink="http://www.w3.org/1999/xlink" x="0px" y="0px"
	 viewBox="0 0 1000 1000" style="enable-background:new 0 0 1000 1000;" xml:space="preserve"><metadata
   id="metadata97"><rdf:RDF><cc:Work
       rdf:about=""><dc:format>image/svg+xml</dc:format><dc:type
         rdf:resource="http://purl.org/dc/dcmitype/StillImage" /><dc:title></dc:title><dc:creator><cc:Agent><dc:title>http://bakadesign.dk/warhammer-40-000-icons/</dc:title></cc:Agent></dc:creator></cc:Work></rdf:RDF></metadata>
<g style="fill:#ff0000">
<g>
	<path d="M652.58,301.27c-14.41,2.78-28.98,5.3-48.52,0c3.53,13.65,2.31,29.04-1.57,45.39l29.74-9.39l7.83,7.83
		c-7.38,21.7-28.17,42.26-29.74,50.09c-6,8.99-15.64,8.55-26.61,4.7l-15.65,50.09c15.82-4.03,28.77-10,37.56-18.78
		c0,0,25.04-1.57,29.74-7.83c0-9.39,18.57-60.14,31.3-79.82C671.36,319.38,666.82,305.13,652.58,301.27z"/>
	<path d="M719.88,290.32c5.65-2.62-11.52-33.71-20.35-28.17c-6.25,3.92-45.39-39.13-48.52-40.69c-10.52-4.13-21.51-3.82-32.87,0
		c-5.41,12.47-12.9,21.88-26.12,23.41l-0.49-4.63c-3.13-12.52-43.05-53.99-67.3-65.74c-6.26-1.57-9.39-34.43,6.26-42.26
		c-29.74,28.17,34.43,36,34.43,36s7.83-9.39,21.91-7.83c6.22,0.69,14.09,10.96,14.09,10.96c20.35-7.83,29.17-20.97,28.17-45.39
		c-26.61-12.52-37.56-29.74-53.22-39.13c0,0-13.74-5.28-30.18-10.34c4.61-6.78,6.18-15.96,5.14-27.23
		c-2.77,8.91-12.77,15.78-29.98,20.61c-3.85-0.82-7.55-1.48-10.96-1.9c-17.57-11.33-44.56-27.38-64.18-15.03
		c-20.1,13.53-34.19,13.53-54.04,17.22c20.58,4.33,48.4,7.35,56.84,2.38c13.89-7.89,23.24-5.29,25.17,9.95
		c-0.19,0.17-0.39,0.34-0.58,0.52c-18.52-7.13-41.78-6.63-60,10.07c-8.98,6.4-34.4,16.02-50.09,26.61
		c21.02,0.58,48.93-1.42,56.35-7.83c11.13-9.3,20.12-9.44,25.14,1.58c-4.82,6.04-8.62,11.41-10.75,15.13
		c-15.84-3.02-33.48-0.02-52.36,9.77c-8.98,6.4-18.74,22.28-34.43,32.87c21.02,0.58,33.28-4.56,40.69-10.96
		c11.36-9.5,22.71-9.34,28.21,2.4c-1.9,4.04-3.43,7.6-4.32,10.27c-0.6,1.81-0.48,6.42-0.04,12.68c-11.81,0.63-22.05,3.28-29.7,9.23
		c-5.8,11.45-18.74,22.28-34.43,32.87c19.5-3.88,38.46-7.74,40.69-10.96c9.07-5.92,17.63-6.44,25.78-2.62
		c0.23,3.16,0.43,6.35,0.59,9.53c-8.32,2.07-19.14,7.63-20.11,13.44c-0.84,5.04-20.14,25.96-23.48,26.61
		c3.97-0.07,35.68-12.71,32.87-17.22c5.24-5.24,9.39,0.49,10.6,2.49c-0.77,8.3-2.52,14.84-5.9,17.86c-1.9,1.86-4.04,2.72-6.26,3.13
		c-141.13,7.88-218.48,65.39-226.95,178.43c6.26,136.17,72,187.82,245.73,208.17c247.3,67.3,176.87,289.56,103.3,281.73
		c-39.13-4.7-31.3-100.17-14.09-133.04c-50.09,48.52-61.08,0.94-65.74-76.69c-15.65,73.56-50.26,47.83-81.39-14.09
		c-6.26,12.52,2.18,51.77,10.96,59.48c70.18,61.63,34.43,115.82-23.48,56.35c64.17,72,37.56,93.91,6.26,89.22
		c30.37,38.64,92.36,59.01,167.47,59.48c101.74-17.22,117.39-126.78,109.56-219.13c-67.3-208.17-319.3-205.04-320.86-292.69
		c6.26-23.48,53.22-36,134.61-3.13c76.69-3.13,154.95-84.52,150.26-151.82c-25,33.42-47.23,40.23-68.87,28.17
		c31.38,2.4,56.35-9.39,68.87-40.69c0,0,34.43-45.39,40.69-45.39s50.09,17.22,45.39,43.83c9.1,4.59,14.3,10.61,9.39,20.35
		l45.39,26.61C740.23,331.01,737.74,311.92,719.88,290.32z M535.68,84.77l20.53,9.41c0.56,0.26,0.47,1.09-0.14,1.21l-10.03,2.01
		c-1.83,0.37-3.7-0.43-4.71-2L535,85.55C534.71,85.1,535.19,84.54,535.68,84.77z"/>
</g>
</g></svg>
