<?xml version="1.0" encoding="utf-8"?>
<!-- Generator: Adobe Illustrator 24.0.1, SVG Export Plug-In . SVG Version: 6.00 Build 0)  -->
<svg version="1.1" id="Layer_4" xmlns="http://www.w3.org/2000/svg"    xmlns:dc="http://purl.org/dc/elements/1.1/"
   xmlns:cc="http://creativecommons.org/ns#"
   xmlns:rdf="http://www.w3.org/1999/02/22-rdf-syntax-ns#" xmlns:xlink="http://www.w3.org/1999/xlink" x="0px" y="0px"
	 viewBox="0 0 1000 1000" style="enable-background:new 0 0 1000 1000;" xml:space="preserve"><metadata
   id="metadata97"><rdf:RDF><cc:Work
       rdf:about=""><dc:format>image/svg+xml</dc:format><dc:type
         rdf:resource="http://purl.org/dc/dcmitype/StillImage" /><dc:title></dc:title><dc:creator><cc:Agent><dc:title>http://bakadesign.dk/warhammer-40-000-icons/</dc:title></cc:Agent></dc:creator></cc:Work></rdf:RDF></metadata>
<g style="fill:#ff0000">
<g>
	<polygon points="601.7,262.8 621.8,242.6 592.7,235.9 	"/>
	<polygon points="393.3,307.6 386.6,278.5 366.5,298.6 	"/>
	<path d="M400,304.8l191.7-38.9l-6.1-30.2l-191.7,38.9L400,304.8z M543.4,258.3c0-5,4-9,9-9s9,4,9,9c0,4.9-4,9-9,9
		S543.4,263.2,543.4,258.3z M482.9,271.7c0-4.9,4-9,9-9s9,4,9,9c0,4.9-4,9-9,9C487,280.7,482.9,276.7,482.9,271.7z M423.6,283.6
		c0-4.9,4-9,9-9s9,4,9,9c0,4.9-4,9-9,9S423.6,288.6,423.6,283.6z"/>
	<path d="M411.3,262.8l161.3-31.4c-15.7-57.6-45.2-99.1-91.8-121l-2.2-80.6l-98.6,69.4c0,0-65,29.1-65,31.4s4.5,9,4.5,9
		c-31.6,16.3-67.3,33.8-71.7,42.6c10.2,10.2,30.1,23.9,51.5,38.1c-1.6-4.6-3.4-11.7-2.2-15.7c3,2.6,7.3,4.4,13.4,4.5
		c-2.3-4.3-2.1-8.8,0-13.4c7.1,3.9,14.5,6.3,22.4,6.7c-2.5-4.4-3.5-8.9-2.2-13.4c4.9,2.1,10.1,2.9,15.7,2.2
		c-15.7-13.4,6.8-15.4,17.9-9c11.6,6.7,6.7,24.6-20.2,20.2l4.5,9c-7.1,2.1-13.8,2.1-20.2,0c1.4,4.4,4,8.9,9,13.4
		c0,0-15.7,4.5-15.7,2.2c-4.5,2.2-11.2,0-11.2,0l31.4,22.4C384.4,215.7,409,193.3,411.3,262.8z M357.5,128.4l-13.4,17.9l-9-6.7
		L357.5,128.4z"/>
	<path d="M119,280.6c-1.3,13.8,7.6,28.1,30.2,29.2l28.7,6.1c25.6,37.4,30.5,86.5,72.1,96.9c-3.5,13.1,0.9,24.9,11.2,35.8
		c1.5-10.4,4.3-19.5,11.2-24.6c4.5,24.6,15.2,28.6,26.9,38.1c-5.1-25.6,4.5-58.2,31.4-49.3c11.2,2.2,24.6,15.7,24.6,31.4
		c0,11.2-17.9,42.6-42.6,40.3c-21.1,4.2-50.1,2.5-74,0.4l0-0.4c-6.7,0-9-22.4-15.7-31.4c-7.1-6.2-13.6-9.8-19.7-10.8
		c-9-7.7-19.6-8.1-27.3-0.4c5.1,0.6,9.1,1.7,12.2,3.4c-5.2,3.3-10.1,8.9-14.5,16.7c-1.2,4.9,1.2,13.3,3.8,19
		c-4.6-3.4-11.1-6.9-15-5.6c-5.4,1.8-16.3,3.4-20.6,13.5c-5.1,1.5-10.2,3.7-15.2,6.6c5.3,2.1,9.8,5.3,13.8,9.3
		c3.6,36.3,35.5,24.3,35.5,24.3s-23.5,10.9-5.5,32.6c-1.9,3.3-4.6,6.7-8,10c8.5,2.7,17.6,1.7,26.8-0.5c40.7,3.4,42.6-30.8,42.6-30.8
		l0-0.1c20.4-0.9,83.2,4.8,91.8,9.1c13.2,15.9,29.6,15.7,35.8,15.7c-9-7.6-16.6-14.9-15.7-20.2c14.7,2.5,28.8,1.8,42.6,0
		c-22.4-11.2-9-31.4,15.7-31.4c22.4,6.7,38.1,17.9,40.3,40.3c0,29.1-107.5,82.9-116.5,100.8c-9,15.7-9,29.1,4.5,42.6
		c34.3,24.8,65.1,50.1,91.8,76.2c-45.5,26.5-89.3,51.3-142.8,58.2c-11.3-6.9-29.4-26.5-56.3-20.7c-7.5-1.8-15.1-1.6-22.7,0.6
		l8.9,6.7c-14.9,18,15.7,31.4,15.7,31.4s-30.2-2.1-31.3,19c-4,2-7.8,3.9-11.2,5.6l12.7,2.8c8.5,24.5,50.1,15.1,50.1,15.1
		s-9.2,18.3,14,25.2c-0.2,3.9-1,7.5-2.8,10.7c9.5-0.3,15.9-3.4,21-7.8c30.1,0.1,28.3-37,28.3-37c-3.9-4.3,169.3-54.7,177-44.8
		c6.7-2.2,62.7-4.5,78.4-2.2c-1.7-8.7-29.3-14.2-39.3-15.5c10.8-0.5,41.5-6.2,41.5-9.1c-24.6-4.5-46-20.5-49.3-35.8
		c0.9-23.3,2.1-44.8,13.4-60.5l4.6-1.3c9.2,68.9,51.5,132.9,137.9,91.3c-7.3,23.5-24.9,57.5-52.9,95.4c-12.3-0.5-23.2-0.1-30.8,2.6
		c-2-1.1-4.1-2-6.4-2.7c-14.4-4.2-34.6,5.1-33.4,12.8c-4.9,1.4-9.8,4-14.6,8c4.8,0.3,9.3,1.4,13.6,3.2c2.1,12.5,7,14.5,15.1,18.7
		c-3.1,4-8.6,7.2-5.3,12.8c-2,3.8-3.6,16.9-3.3,21.3c3.1-2.8,6.2-5.1,9.4-6.9c7,5.9,19,7,30.2,1.9c9.1-4.1,18.7-5.5,20.9-12.9
		c3.8,11.2,12.6,13.4,26.9,13.4c0.7,0,1.4-0.1,2.1-0.1c2.3,3.3,4.3,7.1,4.6,9c0.3,1.5,5.4-7.5,6.7-11.6
		c10.6-4.3,17.9-13.6,17.9-24.3c0-7.5-3.6-14.3-9.4-19.2c0.3-3.6,1.6-7.1,4.9-10c32.6-47.9,59.3-99.2,83.9-151.6l0,0c0,0,0,0,0,0
		c1.2-2.5,2.3-4.9,3.5-7.4l-0.6,0.3c6.8-13.1,22.6-28.8,32-49.6c-13.1,10.5-25.9,14.6-38.1,17.9c9.9-10.4,17.7-16.4,22.4-26.9
		C743.8,717,727.1,713,706.9,713c-0.8-0.3-1.6-0.7-2.4-1.1c-10.9-5.6-17.9-17.7-24.5-41.5c0-9-6.7-20.2,6.7-22.4
		c13.4,4.5,69.4,40.3,112,42.6l49.3-17.9c11.2-13.4,11.2-33.6-17.9-26.9c-15.4,7.4-30.5,13.1-44.8,13.4
		c-15.7,0-105.3-40.3-125.4-82.9l-6.7-56c0-24.6-43.4-78.2-51.5-118.7c-4.5-22.4,11.2-73.9,9-89.6c-2.5-13.1-8.1-27.5-15.7-42.6
		l-188.2,40.3L339,356.5c-43.3-5.6-113.6-47.3-107.7-87.8c4-2.4,15-10.6,18.7-30.6c0.8-5.5-1.8-10.5-5.8-14.5
		c-0.7-8.3-3-17.4-5.4-19.1c-1.2,4.5-2.8,8.5-4.9,12c-5.8-2.7-11.8-4-15.3-3.1c-6.7,0-15.7,9-17.9,17.9c-2.1,8.5-0.2-29.7-33-23.6
		c-4.9-5.3-10.4-9.7-13.1-9.6c1.4,4.5,2.2,8.8,2.3,13c-23.2,11.5-7.7,42.6-7.7,42.6c-13.1,0-22.6,7.2-27.2,16.4
		c-4.3-0.2-8.7-1.1-13.3-2.7C108.7,270.1,113.5,275.7,119,280.6z"/>
</g>
</g></svg>
