<?xml version="1.0" encoding="utf-8"?>
<!-- Generator: Adobe Illustrator 22.1.0, SVG Export Plug-In . SVG Version: 6.00 Build 0)  -->
<svg version="1.1" xmlns="http://www.w3.org/2000/svg"    xmlns:dc="http://purl.org/dc/elements/1.1/"
   xmlns:cc="http://creativecommons.org/ns#"
   xmlns:rdf="http://www.w3.org/1999/02/22-rdf-syntax-ns#" xmlns:xlink="http://www.w3.org/1999/xlink" x="0px" y="0px"
	 viewBox="0 0 1000 1000" style="enable-background:new 0 0 1000 1000;" xml:space="preserve"><metadata
   id="metadata97"><rdf:RDF><cc:Work
       rdf:about=""><dc:format>image/svg+xml</dc:format><dc:type
         rdf:resource="http://purl.org/dc/dcmitype/StillImage" /><dc:title></dc:title><dc:creator><cc:Agent><dc:title>http://bakadesign.dk/warhammer-40-000-icons/</dc:title></cc:Agent></dc:creator></cc:Work></rdf:RDF></metadata>
<g style="fill:#ff0000">
<g id="Layer_3">
</g>
<g id="Layer_3_copy">
</g>
<g id="Layer_2">
</g>
<g id="Layer_2_copy">
	<g>
		<path d="M526.5,739.1c-2.9-6.2-6.5-11.3-10.1-15.5l-0.8-1c-3.9,1.5-8.5,2.4-14.1,2.4c-5.6,0-10.2-0.9-14.1-2.4l-0.8,1
			c-1.5,1.8-2.9,3.6-4.1,5.5v46c14.7,3.1,29.4,3.1,44,0V739.1z"/>
		<path d="M691.3,489.6c-5.2-14.2-12.6-26.9-22-38.1l-2.6,1.5c1.1,1.8,2.3,3.9,3.5,6.3c3.7,7.4,7,16,8.7,21.2c1.2,4,0.6,10.2-1,16.8
			L691.3,489.6z"/>
		<path d="M375.7,521.9c0.1-0.4,0.6-2.3,1.3-5.1c-5.5-2.3-13.5-4-18.3-4.8c-0.2,0.3-0.3,0.6-0.5,0.9l17.3,10
			C375.5,522.5,375.6,522.2,375.7,521.9z"/>
		<path d="M627.4,521.9c0.3,0.9,0.5,2.4,0.6,4.2l18.5-10.7c-0.8-1.2-1.5-2.4-2-3.5c-4.3,0.7-12.5,2.4-18.4,4.8
			C626.8,519.6,627.3,521.5,627.4,521.9z"/>
		<path d="M325.9,475.3l-8.2,14.3l6.6,3.8c-0.9-5.1-1.1-9.7-0.1-12.9C324.6,479,325.2,477.2,325.9,475.3z"/>
		<path d="M625.1,736.8l-28.3-49c-2.6,2.2-5.2,3.9-7.8,4.9c-6.3,2.6-10-0.7-12.5-3.7l0,1c0.2,16.6-0.7,31.9-2.7,46.1l13.1,22.7
			C601.8,753.2,614.7,746,625.1,736.8z"/>
		<path d="M422.1,758.8l8.4-14.6c-2.9-16.4-4.2-34.5-4-54.2l0-1c-2.5,3.1-6.2,6.3-12.6,3.7c-1.2-0.5-2.4-1.1-3.5-1.8l-26.5,45.9
			C393.6,747.9,406.6,754.9,422.1,758.8z"/>
		<path d="M375.2,646.4c-4.1-1.3-12.9-0.7-19.3,0.1c-1.1,5.3-3.6,14-9,16.2c-3.3,1.3-6.6-0.9-7.6-1.6c-3.4-2.3-7.8-7-11.7-12.4
			l-9.9,5.7c4.8,13.5,12.5,26.1,22,38.1l47.9-27.6c-1.9-2.8-3.6-5.5-5.2-8.1C379.5,652.5,376.9,648.3,375.2,646.4z"/>
		<path d="M691.3,654.4l-14.2-8.2c-4.3,6.3-9.6,12.2-13.5,14.8c-1.1,0.7-4.3,2.9-7.6,1.6c-5.4-2.2-7.9-10.9-9-16.2
			c-6.3-0.8-15.1-1.4-19.3-0.1c-1.6,1.9-4.3,6.1-7.1,10.4c-1.1,1.8-2.4,3.7-3.6,5.6l52.2,30.1C679.5,680.4,687,667.7,691.3,654.4z"
			/>
		<path d="M707.5,550h-79.7c-0.4,9.5-1,18.7-1.3,23.3l0,0.4l-0.1,0.4c-2.1,7.7-3.2,16-2.8,20h39.5c3.6-1.8,8.1-3.2,11.9-1.7
			c0.9,0.4,1.7,0.9,2.5,1.7h30C710.1,578.6,710.7,563.8,707.5,550z"/>
		<path d="M301.5,594h24.1c0.8-0.8,1.6-1.4,2.5-1.7c3.7-1.5,8.3-0.1,11.9,1.7h39.5c0.4-3.9-0.7-12.3-2.8-20l-0.1-0.4l0-0.4
			c-0.3-4.6-0.9-13.8-1.3-23.3h-73.7C297.3,564.7,297.3,579.3,301.5,594z"/>
		<path d="M483.5,834c-17-35.4-29.1-77.8,0-113c-21-21-27-56-53-31C429.8,752.5,444.8,802.6,483.5,834z"/>
		<path d="M587.5,689c15-6,32-40,38-46c7-3,25,0,25,0s2,14,7,16s23-21,23-30s-2-31-7-33s-14,5-14,5s-29,8-38-2c-5-4,1-26,1-26
			s3-44,1-50c0,0-0.8-3.4-2.1-8.4c8.3-4.7,25.3-7,25.3-7s7.1,14.8,13.3,15.3c6.2,0.5,18.2-31.2,15.1-41.2c-3.1-10-13-33.6-19.2-34.1
			c-6.2-0.5-13.8,10.4-13.8,10.4s-19.2,12.4-33.6,12.9c-2.7-4.9-26.5-24.5-53-40H600v-24.7h-4.4c0,4-0.3,7.6-1.8,9.2v0.1
			c-23.8,1.8-40.1-3.8-48.4-13.6c-8.6-10.2-7.9-25.1-7.9-25.1l-0.7-17.5h9.9c-2.5-1.9-5.8-4.5-11-9.2c0,0-1.6-0.3-2.1,0.1
			c-3.6,2.9-14-3-12.2,0.1c1.3,2.3,2.6,15.8,2.6,15.8h-51.7c0,0,1.3-13.5,2.6-15.8c1.8-3-8.6,2.8-12.2-0.1c-0.4-0.4-2.3-0.1-2.3-0.1
			c-5.2,4.7-8.5,7.3-11,9.2h10.4l-0.7,17.5c0,0,0.7,14.9-7.9,25.1c-8.3,9.8-24.6,15.4-48.4,13.6v-0.1c-1.5-1.6-1.7-5.2-1.8-9.2h-4.4
			v24.7h51c-26.5,15.4-50.3,35-53,40C380.1,470.3,361,458,361,458s-7.6-10.9-13.8-10.4c-6.2,0.5-16.1,24.1-19.2,34.1
			c-3.1,10,8.9,41.7,15.1,41.2c6.2-0.5,13.3-15.3,13.3-15.3s17,2.4,25.3,7c-1.3,5-2.1,8.4-2.1,8.4c-2,6,1,50,1,50s6,22,1,26
			c-9,10-38,2-38,2s-9-7-14-5s-7,24-7,33s18,32,23,30s7-16,7-16s18-3,25,0c6,6,23,40,38,46c12,5,6-21,39-9c20,5,13,41,47,41
			s27-36,47-41C581.5,668,575.5,694,587.5,689z M466.5,660c0,0-42-10-49-21c-15-32-2-38-2-38C448.2,616.8,474.5,635,466.5,660z
			 M470.5,601c-10,11-44-9-55-25c-3-6,0-21,6-24C449.5,547,473.5,575,470.5,601z M507.4,678.7l-4.6-11.5c-0.5-1.2-2.1-1.2-2.6,0
			l-4.6,11.5c-2.5,1.8-9.8,6.4-17.1,2.3c0-3,9-8,14-25c3-8-1-64,9-64s6,56,9,64c5,17,14,22,14,25
			C517.2,685.1,509.9,680.5,507.4,678.7z M581.5,552c6,3,9,18,6,24c-11,16-45,36-55,25C529.5,575,553.5,547,581.5,552z M536.5,660
			c-8-25,18.3-43.2,51-59c0,0,13,6-2,38C578.5,650,536.5,660,536.5,660z"/>
		<path d="M519.5,721c29.1,35.2,17,77.6,0,113c38.7-31.4,53.7-81.5,53-144C546.5,665,540.5,700,519.5,721z"/>
		<path d="M264.2,382c7.3,0.7,11.8,4.6,13.8,6.6c0,0,2.6,2.6,7.4,7.4c-8.6,10.7-16.5,22-23.5,33.9l59.8,34.5
			c18.2-30.8,44-56.6,74.9-74.9L362,329.8c-11.9,7-23.2,14.8-33.8,23.4l-7.4-7.4c-1.9-1.9-5.9-6.5-6.5-13.8
			c-1.4-14.8,11.9-26.6,12.7-27.2c-2.4-2.4-11.9-11.9-14.3-14.3l-90.1,90c2.4,2.4,11.9,11.9,14.3,14.3
			C237.6,394,249.4,380.6,264.2,382z"/>
		<path d="M201.2,527.8c6.6-3,12.6-1.9,15.2-1.2c0,0,3.6,1,10.2,2.7c-2,13.3-3.1,26.9-3.2,40.8h69c0.3-37.2,10.2-72,27.4-102.3
			l-59.8-34.5c-6.8,12-12.7,24.5-17.8,37.4l-10.1-2.7c-2.6-0.7-8.3-2.7-12.6-8.7c-8.6-12.1-2.9-29-2.6-29.9
			c-3.3-0.9-16.3-4.4-19.6-5.3l-33,123c3.3,0.9,16.3,4.4,19.6,5.3C184.1,551.5,187.6,534,201.2,527.8z"/>
		<path d="M766.3,470.5c-5-12.8-10.9-25.2-17.6-37.1l-59.8,34.5c17.1,30.2,27,65.1,27.4,102.3h69c-0.1-14-1.2-27.7-3.3-41.2
			l10.2-2.7c2.6-0.7,8.6-1.8,15.2,1.2c13.5,6.2,17,23.6,17.2,24.6c3.3-0.9,16.3-4.4,19.6-5.2l-32.9-123c-3.3,0.9-16.3,4.4-19.6,5.2
			c0.3,1,6,17.8-2.6,29.9c-4.2,6-9.9,7.9-12.6,8.6C776.5,467.7,772.9,468.7,766.3,470.5z"/>
		<path d="M687.7,345.9c0,0-2.6,2.6-7.4,7.4c-10.7-8.6-22-16.4-33.9-23.4L612,389.6c30.8,18.2,56.6,44,74.9,74.9l59.8-34.5
			c-7-11.9-14.8-23.2-23.4-33.9l7.3-7.3c1.9-1.9,6.5-5.9,13.8-6.5c14.8-1.4,26.6,11.9,27.2,12.7c2.4-2.4,11.9-11.9,14.3-14.3
			l-90-90.1c-2.4,2.4-11.9,11.9-14.3,14.3c0.8,0.7,14.1,12.4,12.7,27.2C693.6,339.4,689.7,343.9,687.7,345.9z"/>
		<path d="M745.8,762.3c-9.5-0.1-14.9-6-16.1-7.5c-2.2-2.1-4.4-4.3-6.5-6.4c8.6-10.7,16.5-22.1,23.5-34l-59.8-34.5
			c-18.2,30.8-44,56.6-74.9,74.9l34.5,59.8c11.8-7,23.1-14.8,33.8-23.4c3.3,3.3,5.5,5.5,6.4,6.5c1.5,1.3,7.4,6.7,7.5,16.2
			c0.1,9.1-5.3,18.6-13.9,24.6l15.4,15.4l90.1-90l-15.4-15.4C764.4,757.1,754.9,762.4,745.8,762.3z"/>
		<path d="M808.4,616.4c-8.3,4.7-15.9,2.2-17.7,1.6c-2.9-0.8-5.8-1.5-8.8-2.3c2.1-13.6,3.3-27.4,3.3-41.5h-69
			c-0.3,37.2-10.2,72-27.4,102.3l59.8,34.5c6.7-11.8,12.6-24.1,17.5-36.8c4.5,1.2,7.5,2,8.8,2.4c1.9,0.4,9.7,2.1,14.6,10.2
			c4.7,7.9,4.7,18.7,0.3,28.3l21,5.6l33-123l-21-5.6C821.9,602.5,816.4,611.9,808.4,616.4z"/>
		<path d="M321.5,797.6c2.2-2.2,4.3-4.4,6.5-6.6c10.7,8.7,22.1,16.6,34.1,23.6l34.5-59.8c-30.8-18.2-56.6-44-74.9-74.9l-59.8,34.5
			c7,11.8,14.8,23.1,23.3,33.7c-3.4,3.4-5.6,5.6-6.6,6.5c-1.3,1.5-6.7,7.4-16.2,7.5c-9.1,0.1-18.6-5.3-24.6-13.9l-15.4,15.4l90,90.1
			l15.4-15.4c-8.6-6-14-15.5-13.9-24.6C314.1,804.2,320,798.8,321.5,797.6z"/>
		<path d="M242.1,673.4c5,13,11,25.6,17.8,37.6l59.8-34.5c-17.1-30.2-27-65.1-27.4-102.3h-69c0.1,13.8,1.2,27.5,3.2,40.8
			c-4.4,1.2-7.4,2-8.7,2.3c-1.8,0.6-9.5,3.1-17.7-1.6c-8-4.5-13.5-13.9-14.4-24.3l-21,5.6l32.9,123l21-5.6
			c-4.4-9.5-4.3-20.4,0.3-28.3c4.8-8.2,12.7-9.9,14.6-10.2C236.4,675,239.2,674.2,242.1,673.4z"/>
		<path d="M486.7,835.5l6.7,14l-12.1-9.8c-20.5-16.6-35.1-38.6-43.9-66.4c-13.1-4.3-25.6-9.9-37.4-16.6l-34.5,59.8
			c11.8,6.7,24.2,12.6,37,17.6c-1.3,4.7-2.1,7.9-2.5,9.2c-0.4,1.9-2.1,9.7-10.2,14.6c-7.9,4.7-18.7,4.7-28.3,0.3l-5.6,21l123,33
			l5.6-21c-10.5-0.9-19.8-6.4-24.3-14.4c-4.7-8.3-2.2-15.9-1.6-17.7c0.8-3.1,1.6-6.1,2.4-9.2c13.5,2.1,27.3,3.2,41.3,3.3v-69
			c-11-0.1-21.8-1.1-32.4-2.8C471.6,801.1,479.3,820.1,486.7,835.5z"/>
		<path d="M618.6,857.4c-8.2-4.8-9.9-12.7-10.2-14.6c-0.8-2.9-1.6-5.8-2.4-8.6c12.9-5,25.3-10.9,37.1-17.7l-34.5-59.8
			c-14.1,8-29.2,14.4-45.1,19c-9,24.8-22.9,44.6-41.8,60l-12.1,9.8l6.7-14c9.3-19.3,14.2-35.5,16.1-49.2c-8.6,1.1-17.3,1.8-26.2,1.9
			v69c14-0.1,27.8-1.2,41.2-3.3c1.2,4.4,2,7.4,2.3,8.7c0.6,1.8,3.1,9.5-1.6,17.7c-4.5,8-13.9,13.5-24.3,14.4l5.6,21l123-32.9
			l-5.6-21C637.3,862.2,626.4,862.1,618.6,857.4z"/>
		<path d="M548.7,361.2h-9.8l0.1,1.8c4.8,0.8,9.6,1.7,14.2,2.8c0,0,0-0.1,0-0.1C551.4,363.9,550,362.4,548.7,361.2z"/>
		<path d="M553.1,239.1l-13.5-3.6c-0.1,0.9-0.1,1.8-0.1,2.6l0,14.5c0.2-0.2,0.4-0.4,0.7-0.5C544.4,248.6,549.5,244.3,553.1,239.1z"
			/>
		<path d="M553.9,257.7c-1.4,1.7-4.3,4.9-7.3,8.3c0.8,1.1,1.5,2.3,2,3.6c0.5,1,0.8,2.1,1.1,3.1h33.5v25.3h-41.7
			c-0.5,2.3-1.1,4.5-1.6,6.3h43.3v25.3h-42.2c-0.4,2-1,4-1.9,6.1l0.2,0.3h43.9v25.3h-9.6c0.3,1.1,0.4,2.3,0.2,3.4
			c-0.3,3.5-1.9,5.3-3.1,6.2c13.2,4.4,25.9,10,37.8,16.7l34.5-59.8c-11.9-6.8-24.3-12.7-37.2-17.7l2.6-9.7c0.7-2.6,2.7-8.3,8.7-12.6
			c12.1-8.6,29-2.9,29.9-2.6c0.9-3.3,4.4-16.3,5.3-19.6l-82.6-22.2C566.7,244.9,559,251.7,553.9,257.7z"/>
		<path d="M442.6,366.4c-0.1,0.1-0.1,0.2-0.2,0.3c0.1,0.1,0.2,0.3,0.3,0.4c0.4,0.5,0.8,1.1,1.2,1.8c4.5-1.3,9-2.5,13.6-3.5l0.2-4.1
			h-10.3c-1.3,1.2-2.7,2.7-4.5,4.5C442.9,366,442.8,366.2,442.6,366.4z"/>
		<path d="M456.5,252.1c0.2,0.2,0.4,0.3,0.6,0.5l0-14.4l-11.9,3.2C448.5,245.5,452.8,249.1,456.5,252.1z"/>
		<path d="M391.6,287.2c6,4.2,7.9,9.9,8.6,12.6c0,0,1,3.6,2.7,10.2c-13,5-25.5,11-37.5,17.8l34.5,59.8c8.5-4.8,17.4-9,26.6-12.7
			c-0.1-0.2-0.1-0.4-0.2-0.7c-0.2-0.9-0.1-1.8,0.1-2.8c0,0-0.1,0-0.1,0c-1.1-0.5-3.8-2.2-4.2-6.8c-0.2-1.2-0.1-2.3,0.2-3.4h-9.2
			v-25.3l43.4,0l0.3-0.4c-0.8-2-1.4-4-1.8-5.9h-42v-25.3h43.1c-0.5-1.9-1.1-4.1-1.6-6.4h-41.5v-25.3h40.6c-3.3-4.6-8.8-12.2-11.2-15
			c-3.8-4.5-9.1-9.5-12.8-12.2l-73.4,19.6c0.9,3.3,4.4,16.3,5.2,19.6C362.7,284.3,379.5,278.6,391.6,287.2z"/>
		<path d="M415.3,274.6v21.3h37.4c-1.3-6.6-1.9-14-0.3-21.3H415.3z"/>
		<path d="M455.2,306.3h-40v21.3h37.8c0-3.8,1.1-7.6,3.9-10.9C458,315.6,456.8,311.7,455.2,306.3z"/>
		<path d="M581.4,295.9v-21.3H544c1.6,7.3,0.9,14.7-0.3,21.3H581.4z"/>
		<path d="M581.4,327.6v-21.3h-40.2c-1.5,5.4-2.7,9.3-1.7,10.4c2.8,3.3,3.9,7.1,3.9,10.9H581.4z"/>
		<path d="M465.6,345.8c3.3,2.7,13.7-2.7,12,0.1c-1.3,2.1-2.4,18.2-2.4,18.2h3.2l1.5-5.6l2.8,0l0.5,5.6h5.6l0.5-5.3l1.9-0.3l0.3,5.6
			h4.5l0.2-5.8h3.7l0.2,5.8h4.5l0.3-5.6l1.9,0.3l0.5,5.3h5.6l0.5-5.6l2.8,0l1.5,5.6h3.2c0,0-1.1-16-2.4-18.2
			c-1.6-2.8,8.8,2.6,12-0.1c1.8-1.5,15.1-19.4,5.3-30.7c-2.4-2.8,9.6-23.8,3.2-42.3c-7.4-21.7-29.4-25.1-38.9-25.5
			c0,0-0.8-0.1-2.2-0.1c0,0,0,0,0,0h0c-1.4,0-2.2,0.1-2.2,0.1c-9.5,0.5-31.5,3.8-38.9,25.5c-6.3,18.5,5.7,39.5,3.2,42.3
			C450.5,326.4,463.8,344.3,465.6,345.8z M514.8,320.9c1.8-0.5,3.6-1,5.2-1.3c2.8,0.6,4.9,3.1,4.9,6c0,3.4-2.7,6.2-6.1,6.2
			s-6.2-2.8-6.2-6.2C512.5,323.8,513.4,322.1,514.8,320.9z M496.5,334c0.5-0.5,1.2-1,2-1.4c0.8,0.5,1.5,0.9,2,1.4
			c4.1,4.1,4.2,9.7,4.1,12.4c0,0.4-0.5,0.5-0.7,0.2c-0.6-0.7-1.3-1.6-2.4-2.3c-1.1-0.8-2.2-1.3-3-1.6c-0.8,0.3-1.9,0.8-3,1.6
			c-1.1,0.8-1.8,1.6-2.4,2.3c-0.2,0.3-0.7,0.1-0.7-0.2C492.3,343.6,492.4,338,496.5,334z M466.1,321.9c0.2-0.5,1.1-2.1,3.9-3.1
			c0.2-0.1,0.3-0.1,0.5-0.1c3.3,0.3,7.4,1,12,2.4c3.7,1.1,6.9,2.6,9.4,3.9c0.7,0.3,0.8,1.2,0.3,1.7c-1.3,1.4-3.1,3.1-5.6,4.5
			c-6,3.4-11.9,2.9-14.3,2.6c-0.2,0-0.3-0.1-0.5-0.2C466.5,330.3,464.5,325.2,466.1,321.9z"/>
		<path d="M426.3,241.3c3.5,0.3,13.4,9.8,17.9,15c3.6,4.2,12.2,13.4,12.2,13.4l5.7-9.7c-2.6-4.4-15.1-11.3-21.3-21.5
			c-0.2-0.4-0.1-2.1-0.6-4.2c-0.1-0.3-0.2-0.9-0.4-1.7c1.7-1.5,2.8-1.5,3.5-4c1.7-6.2-1.3-12.5-6.8-14c-5.5-1.5-11.3,2.3-13.1,8.5
			c-0.6,2.2-0.3,2.3,0.2,4.3c-2.8,1.6-5.9,3.1-9.1,3C408.5,230.6,413,233.6,426.3,241.3z"/>
		<path d="M532.7,345.7c13.7,12.4,13.1,9.1,22.1,18.9c0.3,0.8,1.3,1.6,0.9,2.5s-1.7,2-2,3.4c-0.7,3.4,1.6,6.6,5.1,7.3s8.3-0.7,9-4
			c0.3-1.5-0.3-3-1-4.2c1.1,0.8,4.7-0.2,5.1-5.3c0.6-3-1.5-6-4.6-6.6c-2.1-0.4-4.4,1.5-5.5,1.9c-1.3-0.3-10.7-7.9-23.8-22.4
			L532.7,345.7z"/>
		<path d="M534.6,260.1l5.7,9.7c0,0,8.6-9.2,12.2-13.4c4.5-5.3,14.4-14.8,17.9-15c13.3-7.7,17.9-10.8,11.9-10.7
			c-3.2,0.1-6.3-1.5-9.1-3c0.5-2,0.8-2.1,0.2-4.3c-1.7-6.2-7.6-10-13.1-8.5c-5.5,1.5-8.6,7.8-6.8,14c0.7,2.5,1.7,2.4,3.5,4
			c-0.2,0.7-0.4,1.3-0.4,1.7c-0.5,2.1-0.4,3.8-0.6,4.2C549.7,248.8,537.2,255.7,534.6,260.1z"/>
		<path d="M428.4,373.8c0.7,3.4,5.5,4.6,9,4s5.7-3.9,5.1-7.3c-0.3-1.4-1.6-2.5-2-3.4c-0.3-0.9,0.6-1.7,0.9-2.5
			c9-9.9,8.4-6.5,22.1-18.9l-5.3-8.4c-13.2,14.5-22.5,22.1-23.8,22.4c-1.1-0.4-3.4-2.3-5.5-1.9c-3.1,0.6-5.2,3.6-4.6,6.6
			c0.4,5.1,4.1,6.1,5.1,5.3C428.7,370.9,428.1,372.4,428.4,373.8z"/>
		<path d="M402.8,205.5c1.6-0.2,34.8-10.6,49.7,11c6,8.4,6.6,17.5,6.6,21.6l0.1,16.8c0.9,0.7,1.6,1.4,2.3,2.1
			c10.6-11.5,26.4-13.7,34.2-14.1c0,0,0.9-0.1,2.4-0.1c0,0,0,0,0,0c0,0,0,0,0,0c1.5,0,2.4,0.1,2.4,0.1c7.9,0.4,23.7,2.6,34.4,14.2
			c0.7-0.7,1.5-1.4,2.4-2.2l0.1-16.8c0-4.1,0.6-13.1,6.6-21.6c14.9-21.6,48.1-11.2,49.7-11c1.5,1.6,1.7,5.2,1.8,9.2h4.5v-31.6h-6.2
			v0.1h-95.5h0h0h-95.5v-0.1h-6.2v31.7h4.4C401,210.8,401.3,207.2,402.8,205.5z"/>
		<path d="M428.4,356c2.1-0.4,4.4,1.5,5.5,1.9c1.2-0.3,9.6-7,21.5-19.8c0-0.1,0-0.1-0.1-0.1h-40.1v21.3h9
			C425,357.6,426.5,356.4,428.4,356z"/>
		<path d="M562.7,357.9c1.1-0.4,3.4-2.3,5.5-1.9c1.9,0.4,3.4,1.6,4.2,3.2h9v-21.3h-40.3C553.1,350.8,561.5,357.6,562.7,357.9z"/>
		<path d="M383.9,407.2l8.7,15v-20H405l0.1,3.9c0,2.9,0.2,4.5,0.4,5.5c11.8,0.6,21.9-0.7,29.8-3.7l-13.1-22.8
			C407.3,389.5,394.7,396.9,383.9,407.2z"/>
		<path d="M399.9,434.9l9.7,16.8c7.1-5.5,15.4-11.5,23.8-16.8H399.9z"/>
		<circle cx="518.7" cy="325.7" r="4.3"/>
		<path d="M569.6,434.9c10,6.5,20.1,13.8,27.9,20.1l27.6-47.8c-11.2-10.4-23.7-18.2-38.1-22l-14.8,25.6c5.7,0.9,12.1,1.2,19.1,0.9
			c0.2-0.9,0.4-2.6,0.4-5.4l0-4H604v32.7H569.6z"/>
	</g>
</g>
</g></svg>
