<?xml version="1.0" standalone="no"?>
<!DOCTYPE svg PUBLIC "-//W3C//DTD SVG 1.1//EN" "http://www.w3.org/Graphics/SVG/1.1/DTD/svg11.dtd" >
<svg xmlns="http://www.w3.org/2000/svg" xmlns:xlink="http://www.w3.org/1999/xlink" version="1.1">
<metadata>
Created by FontForge 20200427 at Thu Jun 11 22:02:07 2015
 By www
Copyright (c) 2009 by Stephen Rapp. All rights reserved.
</metadata>
<defs>
<font id="DeSotoW00-Engraved" horiz-adv-x="1054" >
  <font-face 
    font-family="DeSotoW00-Engraved"
    font-weight="400"
    font-stretch="expanded"
    units-per-em="1000"
    panose-1="2 0 0 0 0 0 0 0 0 0"
    ascent="800"
    descent="-200"
    x-height="542"
    cap-height="702"
    bbox="-740 -934 4390 1787"
    underline-thickness="50"
    underline-position="-175"
    unicode-range="U+0020-25CA"
    descenders = "Qq"
    invert="1"
    credit="Font De Soto Engraved made from oNline Web Fonts is licensed by CC BY 3.0"
  />
<missing-glyph horiz-adv-x="236" 
 />
    <glyph glyph-name=".notdef" horiz-adv-x="236" 
 />
    <glyph glyph-name="glyph1" horiz-adv-x="0" 
 />
    <glyph glyph-name="glyph2" horiz-adv-x="465" 
 />
    <glyph glyph-name="space" unicode=" " horiz-adv-x="465" 
 />
    <glyph glyph-name="exclam" unicode="!" horiz-adv-x="503" 
d="M250 718q24 0 39.5 -11.5t24.5 -27t12.5 -31t3.5 -22.5q0 -36 -4.5 -63.5t-11.5 -54.5t-15.5 -57.5t-15.5 -71.5t-11.5 -96.5t-4.5 -132.5q0 -3 -6 -4t-11 -1t-11 1t-6 4q0 78 -4.5 134t-12 97.5t-15.5 72.5t-15.5 58t-12 54t-4.5 61q0 8 3 23t12 30t24.5 26.5t41.5 11.5
zM187 42q0 26 18 44.5t45 18.5q28 0 46.5 -18.5t18.5 -44.5q0 -27 -18.5 -46t-46.5 -19q-27 0 -45 19t-18 46zM216 680q-4 0 -8 -5.5t-7 -13.5t-5 -17.5t-2 -17.5q0 -28 6 -59t14.5 -64.5t16 -70.5t10.5 -77h8q0 40 -3.5 69.5t-7 58t-7 62.5t-3.5 84q0 20 -2.5 35.5
t-9.5 15.5zM253 -10q-8 5 -17 18t-9 33q0 15 6.5 28.5t16.5 25.5q-17 -2 -32.5 -18.5t-15.5 -35.5q0 -20 12.5 -34.5t38.5 -16.5z" />
    <glyph glyph-name="quotedbl" unicode="&#x22;" horiz-adv-x="327" 
d="M109 512q-3 0 -7.5 1t-5.5 4q-9 49 -17.5 107t-8.5 114q0 8 2.5 17.5t7.5 17.5t12 13.5t17 5.5t17 -5.5t12 -13.5t7.5 -17.5t2.5 -17.5q0 -56 -8.5 -114t-17.5 -107q-1 -3 -5.5 -4t-7.5 -1zM102 572q1 -1 4 -1t4 2q2 52 2.5 95.5t0.5 67.5q-2 5 -2 12t-9 7q-12 0 -12 -16
q0 -13 1 -34.5t2.5 -45.5t3.5 -47.5t5 -39.5zM230 512q-3 0 -7.5 1t-5.5 4q-9 49 -17.5 107t-8.5 114q0 8 2.5 17.5t7.5 17.5t12 13.5t17 5.5t17 -5.5t12 -13.5t7.5 -17.5t2.5 -17.5q0 -56 -8.5 -114t-17.5 -107q-1 -3 -5.5 -4t-7.5 -1zM223 572q1 -1 4 -1t4 2
q2 52 2.5 95.5t0.5 67.5q-2 5 -2 12t-9 7q-12 0 -12 -16q0 -13 1 -34.5t2.5 -45.5t3.5 -47.5t5 -39.5z" />
    <glyph glyph-name="numbersign" unicode="#" horiz-adv-x="790" 
d="M352 572h153l63 197q7 0 21 -3t20 -10l-58 -184h199q3 -5 5.5 -10.5t2.5 -9.5q0 -12 -6 -21h-214l-57 -178h208q3 -5 5.5 -10.5t2.5 -9.5q0 -12 -6 -21h-223l-71 -225q-1 -1 -6 -1q-7 0 -18.5 3.5t-16.5 10.5l67 212h-154l-71 -225q-1 -1 -6 -1q-7 0 -18.5 3.5
t-16.5 10.5l67 212h-197q-2 5 -2.5 9.5t-0.5 11.5q0 4 0.5 9.5t4.5 10.5h208l56 178h-205q-2 5 -2.5 9.5t-0.5 11.5q0 4 0.5 9.5t4.5 10.5h216l63 197q7 0 21 -3t20 -10zM282 353h154l56 178h-153z" />
    <glyph glyph-name="dollar" unicode="$" horiz-adv-x="844" 
d="M425 695q43 -1 88 -9.5t82.5 -26.5t61.5 -47.5t24 -72.5q0 -7 -3 -16t-10 -17t-18 -13.5t-27 -5.5q-23 0 -40.5 13t-17.5 36q0 19 7 29.5t8 19.5q0 16 -13.5 29t-35.5 22t-50 14.5t-56 6.5v-265q48 -8 99.5 -20t94 -33t69.5 -54t27 -83q0 -51 -24.5 -91t-65 -68.5
t-92.5 -45t-108 -20.5v-90q-3 -2 -11 -3.5t-15 -1.5q-6 0 -13.5 1t-11.5 4v88q-59 1 -109 12t-86 30t-56.5 46t-20.5 61q0 7 2.5 16.5t9.5 18.5t18 15t29 6q23 0 40 -15t17 -37q0 -19 -7.5 -28t-7.5 -19q0 -17 16.5 -29.5t41.5 -20.5t55.5 -12.5t57.5 -5.5v266
q-48 7 -94.5 17.5t-82.5 31.5t-58.5 55.5t-22.5 87.5t23 92.5t60 66.5t83 42t92 20v111q4 3 11.5 4t13.5 1q7 0 15 -1.5t11 -3.5v-108zM636 158q0 29 -16 48.5t-44.5 32t-67 20t-83.5 13.5v-258q41 3 79 14.5t67.5 30.5t47 44.5t17.5 54.5zM190 515q0 -27 18 -46.5t45 -33
t59.5 -22t61.5 -13.5v254q-30 -5 -62.5 -16t-59.5 -28.5t-44.5 -41t-17.5 -53.5zM139 481q0 -44 19 -75t53.5 -52t83.5 -34t108 -21q61 -8 109 -18t82 -25t52 -38t18 -58q0 -10 -1 -15q12 14 14.5 24t2.5 21q0 32 -21 54t-59 37t-90.5 25.5t-115.5 20.5q-58 9 -102 22
t-74 34t-45.5 52.5t-15.5 78.5q0 8 0.5 17t1.5 18q-6 -8 -10 -19q-4 -9 -7 -21.5t-3 -27.5zM605 584q-4 -11 -11 -21t-7 -24q0 -15 8.5 -25t26.5 -10q9 0 9 6q0 1 -3 4q-6 7 -8 13.5t-4 16.5q-1 7 -1 15v14q0 2 -1 9t-4 7t-5 -5zM120 119q0 -26 18.5 -47t38.5 -32
q-24 27 -24 76q0 25 19 45q0 1 -2.5 1.5t-4.5 0.5q-22 0 -33.5 -12.5t-11.5 -31.5z" />
    <glyph glyph-name="percent" unicode="%" horiz-adv-x="830" 
d="M194 -36q-4 0 -7 1q-7 2 -16.5 8.5t-12.5 14.5l488 763q7 -2 19.5 -9t16.5 -16zM109 561q0 -68 21.5 -103t65.5 -35q45 0 66.5 35t21.5 103q0 139 -88 139q-87 0 -87 -139zM36 560q0 79 45 120.5t115 41.5t115 -41.5t45 -120.5q0 -78 -45 -119t-115 -41t-115 41t-45 119z
M51 561q0 -42 14.5 -71.5t25.5 -41.5q-10 19 -15.5 48t-5.5 65t5.5 65t15.5 48q-11 -12 -25.5 -41.5t-14.5 -71.5zM320 561q0 42 -16.5 70.5t-31.5 42.5q11 -19 20 -48t9 -65q0 -39 -8 -65.5t-20 -47.5q17 14 32 42.5t15 70.5zM542 151q0 -68 21.5 -103t65.5 -35
q45 0 66.5 35t21.5 103q0 139 -88 139q-87 0 -87 -139zM469 150q0 79 45 120.5t115 41.5t115 -41.5t45 -120.5q0 -78 -45 -119t-115 -41t-115 41t-45 119zM484 151q0 -42 14.5 -71.5t25.5 -41.5q-10 19 -15.5 48t-5.5 65t5.5 65t15.5 48q-11 -12 -25.5 -41.5t-14.5 -71.5z
M753 151q0 42 -16.5 70.5t-31.5 42.5q11 -19 20 -48t9 -65q0 -39 -8 -65.5t-20 -47.5q17 14 32 42.5t15 70.5z" />
    <glyph glyph-name="ampersand" unicode="&#x26;" horiz-adv-x="1021" 
d="M409 718q53 0 89 -13t57.5 -32.5t31 -42.5t9.5 -43q0 -34 -15 -62t-40 -51.5t-56 -42.5t-63 -36q45 -35 97 -79.5t112 -90.5q13 23 26 47.5t22.5 47t15.5 41.5t6 30q0 14 -11 22t-27.5 11.5t-35.5 5t-34 1.5q-8 2 -8 17q0 8 2 13.5t6 5.5q22 -1 39.5 -1.5t36.5 -1
t42 -0.5h56h57.5t45.5 0.5t40.5 1t41.5 1.5q4 0 6 -5t2 -13q0 -16 -8 -18q-24 -1 -59.5 -1.5t-67.5 -15.5q-17 -8 -33.5 -29t-34.5 -50.5t-38 -66.5t-44 -76l60 -45q24 -18 48.5 -35t36.5 -24q60 -35 100 -46t76 -11q8 -2 8 -18q0 -18 -8 -18q-22 1 -41.5 1.5t-41 1
t-46.5 0.5h-58h-65.5t-42 -0.5t-33.5 -1t-40 -1.5q-8 0 -8 18q0 16 8 18q5 0 12 0.5t13.5 2.5t11 6t4.5 12q0 11 -18 27t-36 30q-50 -59 -117 -93.5t-166 -34.5q-46 0 -92.5 9.5t-84 31t-61.5 56.5t-24 86q0 38 17 67t46.5 53.5t69.5 47t86 46.5q-52 47 -81 92.5t-29 82.5
q0 40 17.5 71t48.5 52t73 31.5t91 10.5zM574 141q-30 23 -62 49t-64.5 52.5t-63.5 52t-58 48.5q-21 -13 -44.5 -29.5t-43 -38t-32.5 -48.5t-13 -61q0 -32 10.5 -59t30.5 -47t50.5 -31.5t70.5 -11.5q57 0 115 33.5t104 90.5zM282 580q0 -28 27.5 -66.5t76.5 -85.5
q25 14 48 30t40.5 35.5t28 41.5t10.5 48q0 42 -29.5 70.5t-77.5 28.5q-26 0 -48.5 -7t-39 -20t-26.5 -32t-10 -43zM692 111q-117 96 -191 157.5t-117.5 98.5t-63.5 55.5t-30 28.5q-35 37 -53 78.5t-13 88.5q2 5 0.5 7.5t-6.5 -5.5q-18 -32 -15 -68q2 -30 17 -58t41 -56.5
t61.5 -59.5t79.5 -68q57 -48 125 -102t135 -110q13 -11 31.5 -29t26.5 -31q2 -2 2 -3.5t2 -1.5q5 0 7 8.5t2 15.5q0 15 -13 28t-28 26zM536 583q0 -30 -12.5 -52.5t-32.5 -42.5q12 6 24 14.5t22 20t16.5 26.5t6.5 35q0 21 -7 37.5t-18 28.5t-24.5 19t-27.5 9q8 -5 17 -13
t17 -20t13.5 -27.5t5.5 -34.5zM206 311q-20 -8 -40 -22t-35.5 -32.5t-25.5 -41.5t-10 -48q0 -34 9.5 -58.5t23 -41.5t28.5 -26.5t25 -12.5q-9 12 -18.5 25.5t-17 30t-12 37t-4.5 46.5t8.5 48t20.5 40t25.5 32t22.5 24z" />
    <glyph glyph-name="quotesingle" unicode="'" horiz-adv-x="215" 
d="M109 512q-3 0 -7.5 1t-5.5 4q-9 49 -17.5 107t-8.5 114q0 8 2.5 17.5t7.5 17.5t12 13.5t17 5.5t17 -5.5t12 -13.5t7.5 -17.5t2.5 -17.5q0 -56 -8.5 -114t-17.5 -107q-1 -3 -5.5 -4t-7.5 -1zM102 572q1 -1 4 -1t4 2q2 52 2.5 95.5t0.5 67.5q-2 5 -2 12t-9 7q-12 0 -12 -16
q0 -13 1 -34.5t2.5 -45.5t3.5 -47.5t5 -39.5z" />
    <glyph glyph-name="parenleft" unicode="(" horiz-adv-x="467" 
d="M92 373q0 85 19 157.5t53 132t81 104.5t103 77q2 1 4 1q4 0 9 -7t5 -12q0 -4 -3 -6q-56 -37 -90 -91t-52.5 -114.5t-24.5 -123.5t-6 -118t6 -118t24.5 -123.5t52.5 -114.5t90 -91q3 -2 3 -6q0 -5 -5 -12t-9 -7q-2 0 -4 1q-56 31 -103 76.5t-81 105t-53 131.5t-19 158z
M147 373q-1 112 19.5 193.5t52.5 142.5q-21 -22 -39.5 -55t-32.5 -76t-22 -94.5t-8 -110.5q1 -118 29 -205t76 -131q-34 61 -54 142.5t-21 193.5z" />
    <glyph glyph-name="parenright" unicode=")" horiz-adv-x="467" 
d="M375 373q0 -86 -19 -158t-53 -131.5t-81 -105t-103 -76.5q-2 -1 -4 -1q-4 0 -9 7t-5 12q0 4 3 6q56 37 90 91t52.5 114.5t24.5 123.5t6 118t-6 118t-24.5 123.5t-52.5 114.5t-90 91q-3 2 -3 6q0 5 5 12t9 7q2 0 4 -1q56 -32 103 -77t81 -104.5t53 -132t19 -157.5z
M304 373q0 -56 -3.5 -102t-12 -86.5t-23 -76.5t-35.5 -71q21 22 40 55t33.5 76t22.5 94.5t8 110.5t-8 110.5t-22.5 94.5t-33.5 76t-40 55q35 -59 54.5 -141.5t19.5 -194.5z" />
    <glyph glyph-name="asterisk" unicode="*" horiz-adv-x="543" 
d="M346 195q-17 0 -30 14t-23 33.5t-17.5 39.5t-13.5 33q-7 -12 -15 -32t-18 -39t-23 -33t-30 -14q-13 0 -21 8.5t-8 22.5q0 17 10.5 31.5t24.5 27.5t29.5 24.5t26.5 22.5q-16 3 -40.5 3.5t-47 4t-39 13t-16.5 29.5q0 14 10 23t25 9q16 0 31 -6t29 -14.5t28 -18t29 -15.5
q-2 29 -10 57.5t-8 60.5q0 3 1 8.5t5 11.5t10 10t17 4q10 0 16 -4t9.5 -10t5 -11.5t1.5 -8.5q0 -32 -7 -59t-10 -59q13 7 27 16.5t28.5 18.5t29.5 15t31 6q15 0 24.5 -8.5t9.5 -22.5q0 -19 -16.5 -28.5t-40 -14t-47.5 -6t-39 -5.5q9 -11 24.5 -23t30.5 -25.5t26 -27.5
t11 -29q0 -14 -7.5 -23.5t-22.5 -9.5z" />
    <glyph glyph-name="plus" unicode="+" horiz-adv-x="462" 
d="M206 338v178q1 2 9 3.5t15 1.5t15 -1.5t9 -3.5v-178h180q2 -1 3 -9t1 -15t-1 -15t-3 -9h-180v-179q-1 -2 -9 -3t-15 -1t-15 1t-9 3v179h-177q-2 1 -3.5 9t-1.5 15t1.5 15t3.5 9h177z" />
    <glyph glyph-name="comma" unicode="," horiz-adv-x="313" 
d="M187 -4q-5 -2 -11 -2.5t-14 -0.5q-23 0 -41.5 14.5t-18.5 43.5q0 30 20 50t49 20q31 0 51.5 -19.5t20.5 -52.5q0 -31 -9.5 -57.5t-25 -47.5t-35.5 -37t-40 -26q-3 0 -9.5 5.5t-6.5 11.5q0 2 1 3q13 8 24.5 20t21 25t15.5 26t8 24zM168 2q-8 5 -15 18t-7 33q0 17 4 29
t15 26q-20 -2 -33 -17.5t-13 -36.5q0 -23 12 -37t37 -15z" />
    <glyph glyph-name="hyphen" unicode="-" horiz-adv-x="504" 
d="M455 298q2 -1 3 -9t1 -15t-1 -15t-3 -9h-405q-2 1 -3.5 9t-1.5 15t1.5 15t3.5 9h405zM58 261h388v18h-388v-18z" />
    <glyph glyph-name="period" unicode="." horiz-adv-x="314" 
d="M100 44q0 29 20 49.5t50 20.5t51 -20.5t21 -49.5t-21 -50.5t-51 -21.5t-50 21.5t-20 50.5zM174 -14q-8 5 -18.5 20t-10.5 36q0 17 7.5 31.5t18.5 28.5q-20 -2 -36.5 -20t-16.5 -39q0 -23 13.5 -39t42.5 -18z" />
    <glyph glyph-name="slash" unicode="/" horiz-adv-x="302" 
d="M34 -176q-2 -1 -7 -1q-8 0 -21.5 4t-18.5 12l309 980q8 0 24 -3.5t23 -11.5z" />
    <glyph glyph-name="zero" unicode="0" horiz-adv-x="846" 
d="M193 348q0 -83 12.5 -145t40 -103.5t71 -62.5t105.5 -21q125 0 177.5 83.5t52.5 248.5q0 166 -52.5 251t-177.5 85q-62 0 -105.5 -21.5t-71 -63.5t-40 -105t-12.5 -146zM71 348q0 89 25 158.5t71 117.5t111 73t145 25t145 -25t111 -73t71 -117.5t25 -158.5t-25 -157.5
t-71 -116t-111 -72t-145 -24.5t-145 24.5t-111 72t-71 116t-25 157.5zM718 349q0 58 -10 103t-26 79t-35.5 58.5t-38.5 42.5q18 -31 31.5 -60.5t22.5 -62.5t13 -72t4 -88q0 -91 -16 -158.5t-54 -124.5q22 18 42 44t35 61t23.5 79t8.5 99zM98 348q0 -59 11 -105t27 -81
t35 -59t34 -38q-15 28 -27.5 57t-21.5 63t-14 73.5t-5 89.5q0 49 5 89t14 74t21.5 63t27.5 57q-15 -14 -34 -38t-35 -59t-27 -81.5t-11 -104.5z" />
    <glyph glyph-name="one" unicode="1" horiz-adv-x="493" 
d="M315 105q0 -33 8.5 -46t32.5 -19q11 -3 34.5 -4t59.5 -2q8 -2 8 -18q0 -18 -8 -18q-22 1 -42.5 1.5t-42.5 1t-47.5 0.5h-58.5h-58.5t-47.5 -0.5t-42.5 -1t-42.5 -1.5q-8 0 -8 18q0 16 8 18q36 1 59.5 2t34.5 4q24 6 32.5 19.5t8.5 48.5v494q0 11 -5.5 13.5t-8.5 2.5
q-6 0 -32 -8.5t-66 -25.5q-2 -1 -4 -1q-4 0 -8 12t-4 16q0 3 2 5q76 29 135.5 54t97.5 40q7 0 7 -6v-62t-0.5 -109.5t-0.5 -133t-0.5 -132t-0.5 -106.5v-56zM229 74q0 -11 -5 -22t-16 -14l-3 -2q0 -3 5.5 -4t10.5 -1q24 1 31.5 16.5t7.5 28.5v559q0 5 -3 5q-1 0 -7.5 -3.5
t-20.5 -8.5v-554z" />
    <glyph glyph-name="two" unicode="2" horiz-adv-x="778" 
d="M599 525q0 -42 -23.5 -91.5t-67.5 -88.5q22 11 45.5 28t42.5 39.5t31 50.5t12 62q0 56 -32.5 96.5t-99.5 54.5q45 -26 68.5 -67.5t23.5 -83.5zM85 534q0 -23 15.5 -40t37.5 -17q3 0 3 2q-25 28 -25 64q0 28 9 50.5t20 42.5q-26 -17 -43 -45t-17 -57zM493 2q24 0 47 8
t40.5 20t28 26.5t10.5 28.5q0 1 -0.5 1t-0.5 1v1q-21 -21 -48.5 -38t-72.5 -17q-48 0 -90.5 12t-78 26t-63.5 26t-48 12q-10 0 -17.5 -4t-7.5 -12q0 -2 2 -2q4 0 5.5 1.5t9.5 1.5q19 0 48 -14.5t66 -31.5t80 -31.5t90 -14.5zM368 683q-30 -1 -64 -7.5t-63 -19t-48 -30.5
t-19 -41q0 -10 5 -18t11 -15.5t11 -16t5 -18.5q0 -27 -22.5 -43t-50.5 -16q-32 0 -52 20t-20 52q0 52 33 89t82 59.5t105.5 33t103.5 10.5q45 0 98.5 -8.5t100 -30.5t77.5 -59.5t31 -95.5q0 -45 -20.5 -83t-57 -71.5t-86.5 -64t-108 -61.5q-37 -20 -72 -36t-65.5 -29.5
t-55 -25t-39.5 -22.5q-8 -6 -11 -10t-4 -6q11 5 29 9.5t42 4.5q28 0 59.5 -7.5t64 -16.5t66 -16.5t67.5 -7.5q35 0 62.5 10.5t53.5 37.5q18 19 27.5 40t20.5 57q2 5 10 5q5 0 15 -1.5t10 -9.5q-2 -6 -6 -22t-9.5 -34.5t-11.5 -36t-12 -26.5q-26 -56 -69 -90t-114 -34
q-48 0 -88.5 14.5t-77 31.5t-70 31.5t-66.5 14.5q-36 0 -56.5 -27.5t-26.5 -65.5q0 -2 -4.5 -4t-10.5 -2q-5 0 -13 1t-10 6q2 26 5.5 50t12.5 46.5t25.5 43t45.5 38.5q33 21 77 42.5t91 45.5t92.5 51.5t81.5 60.5t58 73.5t22 89.5q0 43 -14 73.5t-40 50t-62.5 28.5t-81.5 9z
" />
    <glyph glyph-name="three" unicode="3" horiz-adv-x="778" 
d="M359 722q67 0 127.5 -11t105.5 -34t71.5 -59t26.5 -85q0 -45 -23 -76.5t-54 -51t-61.5 -28.5t-45.5 -9v-11q18 0 54 -6t72 -24t63 -50t27 -84q0 -41 -16 -73.5t-43.5 -56t-64 -40t-77 -26.5t-82.5 -14.5t-80 -4.5q-63 0 -119.5 11t-98.5 32t-66.5 51.5t-24.5 69.5
q0 7 3 18.5t11 22t21.5 18t34.5 7.5q33 0 52.5 -17.5t19.5 -42.5q0 -10 -3.5 -18t-7 -14t-7 -11t-3.5 -10q0 -18 17.5 -32.5t44.5 -25t60.5 -16t65.5 -5.5q44 0 86.5 9.5t75.5 30t53.5 53.5t20.5 81q0 46 -20 76.5t-54.5 47.5t-80 24t-96.5 7q-3 1 -5 7t-2 11q0 7 2 13t5 6
q46 0 87.5 6.5t73 23t50 44t18.5 70.5t-16.5 73t-45.5 49t-68.5 27.5t-85.5 8.5q-31 0 -60 -5t-51 -15t-35 -23.5t-13 -29.5q0 -8 3 -14.5t6.5 -12.5t6.5 -13t3 -17q0 -25 -18.5 -40.5t-50.5 -15.5q-20 0 -32.5 8t-19 19.5t-9 23t-2.5 19.5q0 37 20.5 66t56.5 48.5
t86.5 29.5t110.5 10zM627 193q0 -42 -18.5 -80.5t-74.5 -76.5q31 6 55.5 21.5t41.5 37t26 48t9 54.5q0 34 -12.5 57.5t-32 39t-42 24t-43.5 11.5q38 -20 64.5 -54t26.5 -82zM78 135q0 -32 22 -56t51 -38q-13 17 -25.5 38.5t-12.5 51.5q0 29 19 54q0 1 -2.5 1.5t-4.5 0.5
q-23 0 -35 -14.5t-12 -37.5zM638 541q0 28 -11.5 51t-29 40t-39 26.5t-42.5 9.5q38 -18 63 -53.5t25 -74.5q0 -26 -4 -45t-12 -34.5t-21.5 -28.5t-32.5 -27q47 12 75.5 49t28.5 87zM107 571q0 -23 11 -36.5t37 -13.5q3 0 3 2q-12 14 -16 26.5t-4 30.5q0 42 22 78
q-24 -16 -38.5 -37.5t-14.5 -49.5z" />
    <glyph glyph-name="four" unicode="4" horiz-adv-x="783" 
d="M612 105q0 -33 8.5 -46t32.5 -19q11 -3 34.5 -4t59.5 -2q8 -2 8 -18q0 -18 -8 -18q-22 1 -42.5 1.5t-42.5 1t-48 0.5h-59h-58.5t-47.5 -0.5t-42.5 -1t-42.5 -1.5q-8 0 -8 18q0 16 8 18q36 1 59.5 2t34.5 4q24 6 32.5 19.5t8.5 48.5v103h-467q-14 0 -16.5 5.5t-2.5 11.5
q19 16 62.5 54t99 86.5t117 102t116 100.5t96.5 82t58 46h39q5 0 8.5 -5t4.5 -7v-5q0 -15 -0.5 -61t-0.5 -107t-0.5 -130t-0.5 -129h135q8 0 10.5 -6t2.5 -17q0 -8 -2 -14t-10 -7h-136v-106zM499 591q-46 -39 -91 -77.5t-92 -79.5t-97 -85.5t-105 -93.5h385v336zM525 74
q0 -11 -5 -22t-16 -14l-3 -2q0 -3 5.5 -4t10.5 -1q24 1 31.5 16.5t7.5 28.5v550q0 5 -3 5q-1 0 -6 -4t-22 -18v-535z" />
    <glyph glyph-name="five" unicode="5" horiz-adv-x="841" 
d="M385 16q60 0 109 15.5t83.5 46t53.5 76.5t19 106q0 56 -19.5 94.5t-52 62.5t-74.5 34.5t-87 10.5q-49 0 -90.5 -10.5t-74.5 -28.5t-57.5 -42t-38.5 -52q-2 -2 -3 -2q-1 -1 -2 -1h-22q-8 0 -9.5 3.5t-1.5 8.5q0 15 0.5 40.5t2 57t3 65t3.5 64t4 54.5t5 36q6 28 29.5 36
t76.5 8h416q14 0 22.5 7.5t16.5 16.5q8 10 14 10q3 0 8.5 -2.5t5.5 -7.5q-1 -4 -8 -17.5t-16.5 -29.5t-19 -31t-13.5 -22q-8 -13 -15.5 -17.5t-15.5 -4.5h-438q-7 0 -11 -4t-5 -8q-2 -12 -3 -34t-1.5 -46t-0.5 -47v-38q24 17 49.5 32t56.5 26.5t69 18.5t88 7q70 0 132 -18
t107.5 -51t72 -78t26.5 -99q0 -59 -32.5 -110.5t-87 -90t-125.5 -61t-149 -22.5q-63 0 -119.5 11t-98.5 32t-66.5 51.5t-24.5 69.5q0 7 3 18.5t11 22t21.5 18t34.5 7.5q33 0 52.5 -17.5t19.5 -42.5q0 -10 -3.5 -18t-7 -14t-7 -11t-3.5 -10q0 -18 17.5 -32.5t44.5 -25
t60.5 -16t65.5 -5.5zM594 67q41 18 65 41.5t36 50.5t15.5 55.5t3.5 55.5q0 41 -14 71.5t-34.5 50.5t-43.5 31.5t-41 15.5q19 -14 36.5 -31t31 -39t21.5 -48.5t8 -59.5q0 -52 -18 -102.5t-66 -91.5zM626 623q6 0 14.5 10t13.5 20q0 3 -5 7t-7 4q-9 -13 -35 -13h-404
q-13 0 -20 -4.5t-8 -20.5q0 -11 5 -11q1 0 4 2t5 3q4 2 7.5 2.5t7.5 0.5h422zM98 135q0 -32 22 -56t51 -38q-13 17 -25.5 38.5t-12.5 51.5q0 29 19 54q0 1 -2.5 1.5t-4.5 0.5q-23 0 -35 -14.5t-12 -37.5z" />
    <glyph glyph-name="six" unicode="6" horiz-adv-x="814" 
d="M213 216q0 -43 13.5 -79.5t39.5 -63.5t63.5 -42t85.5 -15q44 0 81.5 15t64.5 42.5t42.5 65t15.5 82.5q-1 94 -52.5 148t-148.5 54q-43 0 -80.5 -17t-65 -45.5t-43.5 -66t-16 -78.5zM615 616q-3 31 -42.5 49.5t-99.5 18.5q-63 0 -114.5 -27t-89 -73t-58 -107t-20.5 -130
v-10q41 62 111.5 96.5t155.5 34.5q55 0 107 -14t92.5 -41.5t64.5 -68t24 -94.5q0 -66 -27.5 -117t-73 -85.5t-105.5 -52t-125 -17.5q-175 0 -259.5 88.5t-84.5 251.5q0 94 31 169t86 127.5t131.5 80.5t166.5 28q32 0 74.5 -7t80.5 -24.5t64.5 -46t26.5 -70.5q0 -14 -5 -28.5
t-14 -25.5t-22 -18t-29 -7q-12 0 -25 3t-23 10t-16.5 18t-6.5 26q0 12 3.5 19.5t8 13.5t8.5 12.5t4 17.5zM101 322q0 -56 11 -103.5t31.5 -85t48.5 -64.5t63 -41q-56 42 -86.5 116t-30.5 174q0 58 10.5 107.5t28.5 90.5t41.5 72.5t48.5 53.5q-28 -11 -57.5 -39t-53.5 -69.5
t-39.5 -95t-15.5 -116.5zM541 29q42 15 70.5 37.5t45.5 50t24 58t7 60.5q0 44 -14.5 75.5t-35 52.5t-43.5 32t-41 15q44 -29 71 -74t27 -111q0 -26 -6.5 -54t-20.5 -54.5t-35 -49.5t-49 -38zM645 602q-6 -12 -16 -23t-10 -28q0 -12 9 -22.5t33 -10.5q3 0 4 3t1 4t-2 3
q-6 8 -8 16.5t-2 17.5q0 8 0.5 15t0.5 13q0 2 -0.5 9.5t-4.5 7.5q-3 0 -5 -5z" />
    <glyph glyph-name="seven" unicode="7" horiz-adv-x="608" 
d="M125 601q-14 0 -22.5 -7.5t-16.5 -16.5q-8 -10 -14 -10q-3 0 -8.5 2.5t-5.5 7.5q1 4 8 17.5t16.5 29.5t18.5 31t14 22q8 13 15.5 17.5t15.5 4.5h517q14 0 14 -16q0 -3 -3.5 -8.5t-7.5 -9.5q-29 -36 -71 -82.5t-89.5 -97t-96.5 -102.5t-92 -98t-75 -84t-46 -60
q-10 -16 -13 -28t-3 -23t3.5 -16.5t8 -10.5t8 -11t3.5 -16q0 -29 -22 -44.5t-46 -15.5q-38 0 -52.5 20t-14.5 45q0 27 22 57t69 84q95 106 191 209.5t196 209.5h-421zM153 653q-5 0 -14.5 -2t-15.5 -12q-4 -6 -6 -11t-4 -9q0 -2 4 -2q8 5 14.5 6.5t20.5 1.5h414l19 19l3 3
t2 3q0 3 -7 3h-430zM93 41q0 -45 55 -45q3 0 3 2q-14 12 -19.5 26.5t-5.5 30.5q0 19 6.5 39t15.5 40q-18 -17 -36.5 -43.5t-18.5 -49.5z" />
    <glyph glyph-name="eight" unicode="8" horiz-adv-x="844" 
d="M420 385q45 0 84 7t68.5 23.5t46.5 44.5t17 70q0 43 -17 72.5t-46.5 47.5t-68.5 26t-84 8q-44 0 -83.5 -8t-68.5 -26t-46 -47.5t-17 -72.5q0 -42 17 -70t46 -44.5t68.5 -23.5t83.5 -7zM422 16q49 0 92.5 9t76 29t51.5 52.5t19 79.5t-19 78t-51.5 49.5t-76 26t-92.5 7.5
t-92.5 -7.5t-76 -26t-51.5 -49.5t-19 -78t19 -79.5t51.5 -52.5t76 -29t92.5 -9zM422 -22q-58 0 -122.5 10.5t-118.5 35t-89.5 65t-35.5 99.5q0 31 13.5 55.5t34.5 43.5t46.5 33t49.5 23t43.5 13t29.5 4v9q-9 0 -26 3t-38 10t-42.5 19t-39.5 30.5t-29.5 43t-11.5 57.5
q0 49 32.5 85t82 59t108.5 34.5t113 11.5t113 -11.5t108.5 -34.5t82 -59t32.5 -85q0 -33 -11.5 -57.5t-29.5 -43t-39.5 -30.5t-42.5 -19t-38 -10t-26 -3v-9q9 0 28.5 -4t43.5 -13t49.5 -23t47 -33t35 -43.5t13.5 -55.5q0 -59 -35.5 -99.5t-89.5 -65t-118.5 -35t-122.5 -10.5
zM201 319q-23 -8 -44 -21.5t-37 -31t-25.5 -37.5t-9.5 -41q0 -54 34 -94t95 -62q-91 64 -91 156q0 34 16.5 64.5t61.5 66.5zM219 659q-17 -5 -35.5 -17t-34 -29t-26 -37.5t-10.5 -42.5q0 -54 35 -89.5t89 -47.5q-86 55 -86 137q0 67 68 126zM615 319q42 -32 58.5 -64.5
t16.5 -66.5q0 -48 -18.5 -87.5t-73.5 -67.5q30 5 54 20t41 36t26 46.5t9 52.5q0 43 -29.5 78.5t-83.5 52.5zM596 659q35 -27 52.5 -59.5t16.5 -66.5q-1 -48 -20 -82t-67 -55q59 14 91.5 48.5t32.5 88.5q0 24 -10 45t-25 37.5t-34 27.5t-37 16z" />
    <glyph glyph-name="nine" unicode="9" horiz-adv-x="815" 
d="M346 -22q-32 0 -75 7t-81.5 24t-65 45.5t-26.5 70.5q0 14 5 28t14 25.5t22 18.5t29 7q25 0 47 -13t22 -44q0 -14 -3.5 -21.5t-7.5 -13.5t-7.5 -12t-3.5 -16q3 -31 42.5 -49.5t99.5 -18.5q68 0 118 28t83 75t49 107.5t16 126.5v10q-41 -62 -111.5 -96.5t-155.5 -34.5
q-56 0 -107.5 14t-92 41.5t-64.5 68t-24 94.5q0 66 27.5 117t73 85.5t105.5 52t125 17.5q175 0 260 -88t85 -251q0 -86 -26 -160t-76.5 -128.5t-125 -85.5t-170.5 -31zM601 484q0 43 -13.5 79.5t-39.5 63.5t-63.5 42t-85.5 15q-44 0 -81.5 -15t-64.5 -42.5t-42.5 -65
t-15.5 -82.5q1 -94 52.5 -148t148.5 -54q43 0 80.5 17t65 45.5t43.5 66t16 78.5zM121 127q0 -29 14.5 -51t43.5 -36q-11 19 -19 36t-8 44q0 35 25 62q0 2 -3 2q-22 0 -37.5 -17t-15.5 -40zM691 371q0 54 -9.5 101t-27 83.5t-41 61.5t-51.5 36q47 -46 70.5 -120.5
t23.5 -162.5q0 -100 -26.5 -174.5t-83.5 -127.5q42 25 69.5 59.5t44.5 74.5t24 83.5t7 85.5zM221 655q-52 -24 -86.5 -77t-34.5 -121q0 -62 33.5 -109.5t94.5 -69.5q-45 32 -68 81.5t-23 97.5q0 52 17.5 101t66.5 97z" />
    <glyph glyph-name="colon" unicode=":" horiz-adv-x="320" 
d="M104 384q0 29 20 49.5t50 20.5t51 -20.5t21 -49.5t-21 -50.5t-51 -21.5t-50 21.5t-20 50.5zM178 326q-8 5 -18.5 20t-10.5 36q0 17 7.5 31.5t18.5 28.5q-20 -2 -36.5 -20t-16.5 -39q0 -23 13.5 -39t42.5 -18zM104 78q0 29 20 49.5t50 20.5t51 -20.5t21 -49.5t-21 -50.5
t-51 -21.5t-50 21.5t-20 50.5zM178 20q-8 5 -18.5 20t-10.5 36q0 17 7.5 31.5t18.5 28.5q-20 -2 -36.5 -20t-16.5 -39q0 -23 13.5 -39t42.5 -18z" />
    <glyph glyph-name="semicolon" unicode=";" horiz-adv-x="320" 
d="M108 384q0 29 20 49.5t50 20.5t51 -20.5t21 -49.5t-21 -50.5t-51 -21.5t-50 21.5t-20 50.5zM192 -4q-5 -2 -11 -2.5t-14 -0.5q-23 0 -41.5 14.5t-18.5 43.5q0 30 20 50t49 20q31 0 51.5 -19.5t20.5 -52.5q0 -31 -9.5 -57.5t-25 -47.5t-35.5 -37t-40 -26q-3 0 -9.5 5.5
t-6.5 11.5q0 2 1 3q13 8 24.5 20t21 25t15.5 26t8 24zM182 326q-8 5 -18.5 20t-10.5 36q0 17 7.5 31.5t18.5 28.5q-20 -2 -36.5 -20t-16.5 -39q0 -23 13.5 -39t42.5 -18zM173 2q-8 5 -15 18t-7 33q0 17 4 29t15 26q-20 -2 -33 -17.5t-13 -36.5q0 -23 12 -37t37 -15z" />
    <glyph glyph-name="less" unicode="&#x3c;" horiz-adv-x="454" 
d="M45 318q0 3 1 11.5t7 13.5q158 98 239 147.5t92 56.5q7 0 16 -11t9 -19v-5t-1 -5q-58 -39 -111 -75q-23 -15 -46.5 -31.5t-45.5 -31.5t-41.5 -28t-33.5 -23q12 -9 30 -21.5t39.5 -27.5t45 -31t46.5 -31q54 -36 114 -77q3 -3 3.5 -6t0.5 -6q0 -7 -9 -18t-17 -11l-330 206
q-5 4 -6.5 12t-1.5 11z" />
    <glyph glyph-name="equal" unicode="=" horiz-adv-x="503" 
d="M454 267q2 -1 3 -8.5t1 -14.5t-1 -14.5t-3 -8.5h-405q-2 1 -3 8.5t-1 14.5t1 14.5t3 8.5h405zM454 417q2 -1 3 -8.5t1 -14.5t-1 -14.5t-3 -8.5h-405q-2 1 -3 8.5t-1 14.5t1 14.5t3 8.5h405z" />
    <glyph glyph-name="greater" unicode="&#x3e;" horiz-adv-x="454" 
d="M409 318q0 -3 -1 -11.5t-7 -13.5q-158 -98 -239 -147.5t-92 -56.5q-7 0 -16 11t-9 19v5t1 5q58 39 111 75q22 15 46 31.5t46 31.5t41.5 28t33.5 23q-12 9 -30 21.5t-40 27.5t-45.5 31t-46.5 31q-54 36 -113 77q-3 3 -3.5 6t-0.5 6q0 7 9 18t17 11l330 -206q5 -4 6.5 -12
t1.5 -11z" />
    <glyph glyph-name="question" unicode="?" horiz-adv-x="825" 
d="M380 165q-2 -5 -9 -9.5t-16 -4.5q-5 0 -9 1.5t-5 3.5q-5 11 -8.5 22.5t-3.5 23.5q0 23 10.5 42.5t27 36t38 30t43.5 25.5q31 16 62 34.5t56 41t40.5 50.5t15.5 63q0 86 -56.5 122t-159.5 36q-35 0 -67 -5t-56.5 -14.5t-39 -23t-14.5 -29.5q0 -8 3.5 -14l7 -12t7 -13
t3.5 -17q0 -25 -20.5 -42.5t-56.5 -17.5q-23 0 -37.5 8t-22.5 19.5t-11.5 23t-3.5 19.5q0 34 16 59t42.5 42.5t60.5 28.5t69 17t68 8t58 2q67 0 126.5 -11.5t104.5 -35.5t71.5 -60t26.5 -85q0 -44 -21 -76t-54 -57t-74 -44t-81 -36q-17 -8 -41 -19t-46 -26.5t-37.5 -34.5
t-15.5 -41q0 -17 9 -31zM290 48q0 26 18 45t46 19t47.5 -19t19.5 -45q0 -27 -19.5 -47t-47.5 -20t-46 20t-18 47zM681 529q0 28 -10 52.5t-27 44t-39 31.5t-46 15q34 -15 61 -52.5t27 -91.5q0 -26 -8.5 -48.5t-22.5 -42.5t-32.5 -37.5t-37.5 -32.5q25 9 49.5 23.5t43.5 34.5
t30.5 46t11.5 58zM120 567q0 -18 12 -35t38 -17q3 0 3 2q-12 14 -18 27.5t-6 31.5q0 22 7.5 41.5t18.5 36.5q-25 -16 -40 -37.5t-15 -49.5zM358 -5q-8 5 -17 18t-9 33q0 15 6.5 28.5t16.5 25.5q-17 -2 -32.5 -18.5t-15.5 -35.5q0 -20 12.5 -34.5t38.5 -16.5z" />
    <glyph glyph-name="at" unicode="@" horiz-adv-x="939" 
d="M698 21q11 5 13.5 5.5t3.5 0.5q6 0 10 -8t4 -15t-4 -8q-29 -13 -62 -21t-65 -12.5t-59.5 -6t-44.5 -1.5q-78 0 -155.5 17.5t-138.5 57.5t-99 104.5t-38 158.5q0 80 31.5 155.5t90 134.5t141 95t183.5 36q78 0 145 -23t116.5 -67t77.5 -108.5t28 -147.5q0 -52 -15 -102.5
t-42 -90t-64 -63.5t-80 -24q-44 0 -66 21t-23 54q0 22 1 43t3 47q0 6 -6 6q-5 0 -7.5 -5t-4.5 -10q-4 -10 -15.5 -36.5t-33 -54t-53.5 -49t-75 -21.5q-69 0 -100.5 53t-31.5 140q0 62 22 117t59 95.5t84 64t98 23.5q36 0 57.5 -9t33 -21t15.5 -24.5t4 -20.5q0 -12 -13 -12
q-3 0 -8 2.5t-7 7.5q-8 29 -56 29q-47 0 -83 -24.5t-60 -61.5t-36 -81t-12 -84q0 -74 18.5 -103t53.5 -29q15 0 32 12t33.5 33t30.5 49t24 60q7 22 11 46.5t6 46t2.5 38.5t0.5 25q0 11 14 14t28 3h29q8 0 15 -0.5t7 -4.5q0 -16 -1.5 -42.5t-3 -59t-3 -69t-1.5 -72.5
q0 -16 0.5 -32t4 -28.5t11 -20t21.5 -7.5q29 0 53 17.5t41.5 49t27 75t9.5 96.5q0 45 -17 98t-55.5 99t-100 76.5t-151.5 30.5q-68 0 -131 -29.5t-111 -80.5t-77 -119t-29 -145q0 -74 20.5 -132.5t64 -99t110.5 -62t159 -21.5q49 0 100 7.5t91 24.5zM234 602
q-20 -15 -45.5 -41t-48 -64t-38.5 -88t-16 -112q0 -61 13 -102t30 -67t35 -40t29 -20q-38 47 -59.5 101t-21.5 128q0 64 13.5 114t33 87t40 62.5t35.5 41.5zM601 443q-1 1 6.5 -6t7.5 -27q0 -10 -1 -34t-2.5 -51t-3 -52t-1.5 -36q0 -9 -0.5 -18.5t-0.5 -18.5q0 -26 6 -49
t26 -34q4 -2 5 -2q2 0 2 2q0 4 -4 11t-6 12q-6 15 -6 63q0 64 4.5 117.5t4.5 106.5q0 9 -4 13.5t-10 7t-11.5 3t-8.5 0.5q-4 0 -4 -3q0 -2 1 -4t0 -1zM412 521q-16 -9 -38 -30t-41.5 -52t-33 -70.5t-13.5 -85.5q0 -57 13 -98t36 -62q-4 17 -8.5 32.5t-8 33t-6 40t-2.5 54.5
q0 39 10.5 74.5t26.5 66t33.5 55t31.5 42.5z" />
    <glyph glyph-name="A" unicode="A" horiz-adv-x="1067" 
d="M164 133q42 72 83.5 149t83.5 154.5t84 154t85 148.5q9 13 14 13q4 0 6.5 -4t6.5 -9q35 -56 72 -117.5t73.5 -123.5t71.5 -122t66 -112t57 -95t45 -70q13 -21 29.5 -33.5t36.5 -19t45 -9t56 -3.5q8 -2 8 -18q0 -18 -8 -18q-44 1 -91 1.5t-113 0.5t-111.5 -1t-89.5 -2
q-8 0 -8 18q0 16 8 18q11 1 27.5 2t33.5 3q14 2 29.5 8.5t15.5 26.5q0 4 -10 23.5t-27 49t-39.5 68t-47.5 82.5h-345l-81 -154q-8 -16 -18 -37.5t-10 -32.5q0 -14 4.5 -22.5t24.5 -13.5q10 -2 25.5 -2.5t53.5 -0.5q8 -2 8 -17q0 -8 -2 -13.5t-6 -5.5q-22 1 -38.5 1.5
t-33.5 1t-39 0.5h-55h-54.5t-38 -0.5t-32.5 -1t-38 -1.5q-4 0 -6 5t-2 13q0 16 8 18q24 1 47 1.5t40 5.5q24 7 46.5 26.5t49.5 66.5zM473 598q-15 -28 -35 -66q-17 -33 -43 -81t-60 -111h293q-42 71 -82.5 139t-72.5 119zM508 658l-19 -33q15 -25 43 -70.5t61.5 -100.5
t69 -114t66.5 -112t54.5 -94t32.5 -60q7 -12 7 -25q0 -11 -7 -18q-2 -2 -2 -3q0 -3 4 -3q5 0 13 4q11 7 16 20t5 22q0 14 -7 26z" />
    <glyph glyph-name="B" unicode="B" horiz-adv-x="1058" 
d="M615 44q49 0 92 6.5t75.5 22.5t51.5 44t19 71q0 39 -18 67.5t-50 47t-75.5 27.5t-94.5 9h-287v-235q0 -60 52 -60h235zM253 0q-45 0 -88 -0.5t-94 -1.5q-8 0 -8 19q0 6 2 11t6 6q36 1 60 2t35 4q24 6 32 19.5t8 48.5v484q0 35 -8 48t-29 19q-14 4 -38 5t-60 2q-8 2 -8 17
q0 8 2 13.5t6 5.5q11 0 30.5 -0.5t43.5 -1t51.5 -0.5h56.5h364q70 0 131.5 -5.5t106.5 -23t71 -48.5t26 -82q0 -45 -24 -78t-55.5 -55t-63 -33t-46.5 -11v-9q38 -2 77.5 -12t71.5 -30t52 -51.5t20 -75.5q0 -59 -35.5 -95.5t-90 -56.5t-119 -27t-122.5 -7h-364zM328 383h286
q46 0 85 8t67 26.5t44 48t16 72.5q0 30 -14.5 52t-40.5 37t-62.5 22t-80.5 7h-248q-52 0 -52 -47v-226zM232 74q0 -11 -5 -22t-16 -14l-3 -2q0 -3 5.5 -4t10.5 -1q24 1 32.5 16.5t8.5 28.5v550q0 13 -7.5 28.5t-30.5 16.5q-5 0 -12 -1t-7 -4q0 -1 3 -2q11 -3 16 -14t5 -22
v-554zM760 388q25 4 49 15t43 29t31 43t12 56q0 52 -34.5 87.5t-91.5 37.5q12 -4 27.5 -14t29 -25t23 -35t9.5 -44q0 -47 -21 -84.5t-77 -65.5zM886 189q0 -42 -22.5 -81t-77.5 -62q66 11 101 47.5t35 96.5q0 34 -12.5 58.5t-31 41t-41 25.5t-43.5 12q38 -20 65 -55t27 -83z
" />
    <glyph glyph-name="C" unicode="C" horiz-adv-x="1075" 
d="M570 -22q-59 0 -119.5 9t-116.5 28.5t-105.5 49t-86.5 71t-58 95t-21 119.5t21 119.5t58 95t86.5 71.5t105.5 49.5t116.5 28.5t119.5 9q64 0 114 -6.5t88 -16.5t66 -21.5t48 -21.5l15 2l9 31q1 3 6 5t10 2t11 -2t6 -5q5 -56 21 -116.5t37 -119.5q-2 -7 -11 -10.5
t-17 -3.5q-5 0 -9 2t-5 5q-16 55 -40 98.5t-66 74t-108 47t-165 16.5q-46 0 -92 -7t-88 -23.5t-78.5 -42t-63.5 -62.5t-42.5 -86t-15.5 -112q0 -94 32 -157.5t84.5 -102.5t118.5 -55.5t135 -16.5q102 0 170.5 17t112 47.5t67.5 73.5t39 94q2 7 11 7q6 0 16.5 -4t12.5 -11
q-21 -59 -37 -119.5t-21 -115.5q0 -2 -5 -4t-10 -2t-8.5 1t-4.5 3l-11 38l-12 2q-22 -11 -50.5 -23t-67 -22t-88.5 -16t-114 -6zM93 351q0 -51 16.5 -97.5t43 -84t61 -65.5t70.5 -43q-72 57 -114 127.5t-42 162.5t42 162.5t114 127.5q-36 -15 -70.5 -43t-61 -65.5t-43 -84
t-16.5 -97.5z" />
    <glyph glyph-name="D" unicode="D" horiz-adv-x="1103" 
d="M585 700q99 0 182.5 -19t144.5 -60t95 -106.5t34 -159.5q0 -88 -37.5 -154.5t-101.5 -111t-147.5 -67t-174.5 -22.5h-327q-45 0 -88 -0.5t-94 -1.5q-8 0 -8 19q0 6 2 11t6 6q36 1 60 2t35 4q24 6 32 19.5t8 48.5v484q0 35 -8 48t-29 19q-14 4 -38 5t-60 2q-8 2 -8 17
q0 8 2 13.5t6 5.5q11 0 30.5 -0.5t43.5 -1t51.5 -0.5h56.5h332zM328 104q0 -60 52 -60h189q78 0 142 17t109.5 53.5t70 95t24.5 142.5q0 90 -24.5 149t-68.5 93.5t-105 48t-134 13.5h-203q-52 0 -52 -47v-505zM949 351q0 -200 -157 -283q95 29 144 98t49 185q0 55 -15.5 105
t-41.5 89t-61 64.5t-75 31.5q36 -16 65 -44.5t49.5 -66t31.5 -83.5t11 -96zM232 74q0 -11 -5 -22t-16 -14l-3 -2q0 -3 5.5 -4t10.5 -1q24 1 32.5 16.5t8.5 28.5v550q0 13 -7.5 28.5t-30.5 16.5q-5 0 -12 -1t-7 -4q0 -1 3 -2q11 -3 16 -14t5 -22v-554z" />
    <glyph glyph-name="E" unicode="E" horiz-adv-x="966" 
d="M514 382q26 0 42 7.5t26 21.5q9 13 14 44t5 73q0 4 5.5 6t13.5 2q16 0 18 -8q0 -40 -1.5 -79.5t-1.5 -84.5v-20.5t0.5 -28.5t1 -40.5t1.5 -57.5q0 -4 -5.5 -6t-13.5 -2q-16 0 -18 8q0 37 -3.5 59.5t-13.5 35.5t-26 19.5t-42 6.5h-188v-235q0 -59 55 -59h203
q36 0 69.5 0.5t62.5 4.5q47 5 87.5 46t79.5 133q2 2 5.5 3t6.5 1q7 -1 15 -4t10 -9q-38 -74 -58 -127.5t-33 -93.5q-63 1 -115.5 1.5t-99 0.5h-89h-84.5h-181t-191 -2q-8 0 -8 19q0 6 2 11t6 6q36 1 60 2t35 4q24 6 32 19.5t8 48.5v484q0 35 -8 48t-29 19q-14 4 -38 5t-60 2
q-8 2 -8 17q0 8 2 13.5t6 5.5q22 -1 71 -1.5t105.5 -1t110 -0.5h85.5h109q73 0 124.5 0.5t92.5 4.5q11 -35 33 -81.5t54 -98.5q-2 -6 -10.5 -11t-15.5 -5q-6 0 -8 2q-21 39 -41.5 66.5t-47 45t-61 25.5t-83.5 8h-203q-29 0 -43.5 -13t-14.5 -33v-227h186zM232 74
q0 -11 -5 -22t-16 -14l-3 -2q0 -3 5.5 -4t10.5 -1q24 1 32.5 16.5t8.5 28.5v550q0 13 -7.5 28.5t-30.5 16.5q-5 0 -12 -1t-7 -4q0 -1 3 -2q11 -3 16 -14t5 -22v-554z" />
    <glyph glyph-name="F" unicode="F" horiz-adv-x="850" 
d="M328 107q0 -35 8.5 -48t32.5 -19q11 -3 34.5 -4t59.5 -2q8 -2 8 -18q0 -18 -8 -18q-22 1 -43 1.5t-44 1t-49.5 0.5h-59.5h-59.5t-49.5 -0.5t-44 -1t-43 -1.5q-8 0 -8 18q0 16 8 18q36 1 59.5 2t34.5 4q24 6 32.5 19t8.5 48v485q0 35 -8 48t-29 19q-14 4 -38 5t-60 2
q-8 2 -8 17q0 8 2 13.5t6 5.5q22 -1 71 -1.5t105.5 -1t110 -0.5h85.5h109q73 0 124.5 0.5t92.5 4.5q11 -35 33 -81.5t54 -98.5q-2 -6 -10.5 -11t-15.5 -5q-6 0 -8 2q-21 39 -41.5 66.5t-47 45t-61 25.5t-83.5 8h-203q-29 0 -43.5 -13t-14.5 -33v-227h186q26 0 42 7.5
t26 21.5q9 13 14 44t5 73q0 4 5.5 6t13.5 2q16 0 18 -8q0 -40 -1.5 -79.5t-1.5 -84.5v-20.5t0.5 -28.5t1 -40.5t1.5 -57.5q0 -4 -5.5 -6t-13.5 -2q-16 0 -18 8q0 37 -3.5 59.5t-13.5 35.5t-26 19.5t-42 6.5h-188v-231zM232 74q0 -11 -5 -22t-16 -14l-3 -2q0 -3 5.5 -4
t10.5 -1q24 1 32.5 16.5t8.5 28.5v550q0 13 -7.5 28.5t-30.5 16.5q-5 0 -12 -1t-7 -4q0 -1 3 -2q11 -3 16 -14t5 -22v-554z" />
    <glyph glyph-name="G" unicode="G" horiz-adv-x="1137" 
d="M580 683q-46 0 -92 -7t-88 -23.5t-78.5 -42t-63.5 -62.5t-42.5 -86t-15.5 -112q0 -94 32 -157.5t84.5 -102.5t118.5 -55.5t135 -16.5q61 0 107.5 7t82 18t61 26t44.5 30v154q0 35 -8.5 48t-32.5 19q-11 3 -34.5 4t-59.5 2q-8 2 -8 17q0 8 2 13.5t6 5.5q22 -1 43 -1.5
t44 -1t49.5 -0.5h59.5h59.5t49.5 0.5t44 1t43 1.5q4 0 6 -5t2 -13q0 -16 -8 -18q-36 -1 -59.5 -2t-34.5 -4q-24 -6 -32.5 -19.5t-8.5 -48.5v-72q0 -39 1.5 -67.5t4 -49.5t6 -36t7.5 -28q0 -5 -9 -9.5t-17 -4.5q-5 0 -7 2q-5 4 -10.5 13.5t-10.5 17.5t-12 20.5t-19 12.5
q-23 -11 -52 -24t-70.5 -24t-97 -18t-131.5 -7q-59 0 -119.5 9t-116.5 28.5t-105.5 49t-86.5 71t-58 95t-21 119.5t21 119.5t58 95t86.5 71.5t105.5 49.5t116.5 28.5t119.5 9q64 0 114 -6.5t88 -16.5t66 -21.5t48 -21.5l15 2l9 31q1 3 6 5t10 2t11 -2t6 -5q5 -56 21 -116.5
t37 -119.5q-2 -7 -11 -10.5t-17 -3.5q-5 0 -9 2t-5 5q-16 55 -40 98.5t-66 74t-108 47t-165 16.5zM891 112q0 -11 -5 -22t-16 -14l-3 -2q0 -3 5.5 -4t10.5 -1q24 1 32.5 16.5t8.5 28.5v170q0 13 -7.5 28.5t-30.5 16.5q-5 0 -12 -1t-7 -4q0 -1 3 -2q11 -3 16 -14t5 -22v-174z
M93 351q0 -51 16.5 -97.5t43 -84t61 -65.5t70.5 -43q-72 57 -114 127.5t-42 162.5t42 162.5t114 127.5q-36 -15 -70.5 -43t-61 -65.5t-43 -84t-16.5 -97.5z" />
    <glyph glyph-name="H" unicode="H" horiz-adv-x="1147" 
d="M941 105q0 -33 8.5 -46t32.5 -19q11 -3 34.5 -4t59.5 -2q8 -2 8 -18q0 -18 -8 -18q-22 1 -43 1.5t-44 1t-49.5 0.5h-59.5h-59.5t-49.5 -0.5t-44 -1t-43 -1.5q-8 0 -8 18q0 16 8 18q36 1 59.5 2t34.5 4q24 6 32.5 19t8.5 48v231h-491v-231q0 -35 8.5 -48t32.5 -19
q11 -3 34.5 -4t59.5 -2q8 -2 8 -18q0 -18 -8 -18q-22 1 -43 1.5t-44 1t-49.5 0.5h-59.5h-59.5t-49.5 -0.5t-44 -1t-43 -1.5q-8 0 -8 18q0 16 8 18q36 1 59.5 2t34.5 4q24 6 32.5 19t8.5 48v486q0 35 -8.5 48t-32.5 19q-11 3 -34.5 4t-59.5 2q-8 2 -8 17q0 8 2 13.5t6 5.5
q22 -1 43 -1.5t44 -1t49.5 -0.5h59.5h59.5t49.5 0.5t44 1t43 1.5q4 0 6 -5t2 -13q0 -16 -8 -18q-36 -1 -59.5 -2t-34.5 -4q-24 -6 -32.5 -19.5t-8.5 -48.5v-210h491v210q0 35 -8.5 48.5t-32.5 19.5q-11 3 -34.5 4t-59.5 2q-8 2 -8 17q0 8 2 13.5t6 5.5q22 -1 43 -1.5t44 -1
t49.5 -0.5h59.5h59.5t49.5 0.5t44 1t43 1.5q4 0 6 -5t2 -13q0 -16 -8 -18q-36 -1 -59.5 -2t-34.5 -4q-24 -6 -32.5 -19t-8.5 -48v-488zM232 74q0 -11 -5 -22t-16 -14l-3 -2q0 -3 5.5 -4t10.5 -1q24 1 32.5 16.5t8.5 28.5v550q0 13 -7.5 28.5t-30.5 16.5q-5 0 -12 -1t-7 -4
q0 -1 3 -2q11 -3 16 -14t5 -22v-554zM845 74q0 -11 -5 -22t-16 -14l-3 -2q0 -3 5.5 -4t10.5 -1q24 1 32.5 16.5t8.5 28.5v550q0 13 -7.5 28.5t-30.5 16.5q-5 0 -12 -1t-7 -4q0 -1 3 -2q11 -3 16 -14t5 -22v-554z" />
    <glyph glyph-name="I" unicode="I" horiz-adv-x="534" 
d="M267 1h-59.5t-49.5 -0.5t-44 -1t-43 -1.5q-8 0 -8 18q0 16 8 18q36 1 59.5 2t34.5 4q24 6 32.5 19t8.5 48v486q0 35 -8.5 48t-32.5 19q-11 3 -34.5 4t-59.5 2q-8 2 -8 17q0 8 2 13.5t6 5.5q22 -1 43 -1.5t44 -1t49.5 -0.5h59.5h59.5t49.5 0.5t44 1t43 1.5q4 0 6 -5t2 -13
q0 -16 -8 -18q-36 -1 -59.5 -2t-34.5 -4q-24 -6 -32.5 -19t-8.5 -48v-488q0 -33 8.5 -46t32.5 -19q11 -3 34.5 -4t59.5 -2q8 -2 8 -18q0 -18 -8 -18q-22 1 -43 1.5t-44 1t-49.5 0.5h-59.5zM232 74q0 -11 -5 -22t-16 -14l-3 -2q0 -3 5.5 -4t10.5 -1q24 1 32.5 16.5t8.5 28.5
v550q0 13 -7.5 28.5t-30.5 16.5q-5 0 -12 -1t-7 -4q0 -1 3 -2q11 -3 16 -14t5 -22v-554z" />
    <glyph glyph-name="J" unicode="J" horiz-adv-x="728" 
d="M546 180q0 -50 -22.5 -88t-60 -63.5t-85 -38t-97.5 -12.5q-53 0 -97.5 7.5t-77 25t-51 46t-18.5 69.5q0 9 3 21.5t10.5 24t20 19t30.5 7.5q23 0 43 -13t20 -39q0 -20 -7.5 -31t-7.5 -21q0 -19 10.5 -34t28.5 -25.5t41 -16t49 -5.5q28 0 54 9.5t46.5 29t33 50.5t12.5 75
v416q0 35 -8.5 48t-32.5 19q-11 3 -34.5 4t-59.5 2q-8 2 -8 17q0 8 2 13.5t6 5.5q22 -1 43 -1.5t44 -1t49.5 -0.5h59.5h59.5t49.5 0.5t44 1t43 1.5q4 0 6 -5t2 -13q0 -16 -8 -18q-36 -1 -59.5 -2t-34.5 -4q-24 -6 -32.5 -19t-8.5 -48v-413zM59 126q0 -62 57 -92
q-13 17 -20 40.5t-7 49.5q0 15 6 27t12 20q0 5 -8 5q-14 0 -27 -14.5t-13 -35.5zM483 626q0 13 -7.5 28.5t-30.5 16.5q-5 0 -12 -1t-7 -4q0 -1 3 -2q11 -3 16 -14t5 -22v-426q0 -34 -3.5 -58.5t-10 -43.5t-17 -33.5t-24.5 -27.5q-2 -2 -6 -5.5t-8.5 -7.5t-8 -7.5t-3.5 -4.5
q0 -4 4 -4q5 0 11 3q13 6 30.5 16.5t32.5 31t25.5 53.5t10.5 83v429z" />
    <glyph glyph-name="K" unicode="K" horiz-adv-x="1040" 
d="M328 105q0 -33 8.5 -46t32.5 -19q11 -3 34.5 -4t59.5 -2q8 -2 8 -18q0 -18 -8 -18q-22 1 -43 1.5t-44 1t-49.5 0.5h-59.5h-59.5t-49.5 -0.5t-44 -1t-43 -1.5q-8 0 -8 18q0 16 8 18q36 1 59.5 2t34.5 4q24 6 32.5 19t8.5 48v486q0 35 -8.5 48t-32.5 19q-11 3 -34.5 4
t-59.5 2q-8 2 -8 17q0 8 2 13.5t6 5.5q22 -1 43 -1.5t44 -1t49.5 -0.5h59.5h59.5t49.5 0.5t44 1t43 1.5q4 0 6 -5t2 -13q0 -16 -8 -18q-36 -1 -59.5 -2t-34.5 -4q-24 -6 -32.5 -19t-8.5 -48v-291q87 70 161 128q31 25 62.5 49.5t58 46t46.5 37t28 22.5q20 17 26 29t6 21
q0 17 -26 24q-11 3 -42 4.5t-67 2.5q-8 2 -8 17q0 8 2 13.5t6 5.5q22 -1 43 -1.5t44 -1t49.5 -0.5h59.5h59.5t49.5 0.5t44 1t43 1.5q4 0 6 -5t2 -13q0 -16 -8 -18q-35 0 -59 -2.5t-39 -7.5q-24 -7 -60 -26t-83 -60q-19 -16 -35.5 -30t-34.5 -29.5t-38.5 -33t-47.5 -39.5
l252 -334q24 -29 44 -42.5t44 -19.5q11 -3 31.5 -5t56.5 -3q8 -2 8 -18q0 -18 -8 -18q-89 3 -222 3q-66 0 -114.5 -1t-92.5 -2q-8 0 -8 18q0 16 8 18h29t41.5 2t39 7t20.5 15q0 4 -11.5 21.5t-30 43t-42 57.5t-48.5 64.5t-49.5 63.5t-43.5 56l-152 -119v-140zM503 378
l10.5 -15t28.5 -38.5t40.5 -54t46.5 -62.5q55 -75 127 -170h63q2 0 2 3q0 2 -9 6.5t-17 9.5q-8 6 -15 11.5t-16.5 16.5t-25 30t-39.5 52q-26 35 -66 89t-106 141zM232 74q0 -11 -5 -22t-16 -14l-3 -2q0 -3 5.5 -4t10.5 -1q24 1 32.5 16.5t8.5 28.5v550q0 13 -7.5 28.5
t-30.5 16.5q-5 0 -12 -1t-7 -4q0 -1 3 -2q11 -3 16 -14t5 -22v-554z" />
    <glyph glyph-name="L" unicode="L" horiz-adv-x="848" 
d="M328 103q0 -59 55 -59h142q36 0 69.5 0.5t62.5 4.5q47 5 87.5 46t79.5 133q2 2 5.5 3t6.5 1q7 -1 15 -4t10 -9q-38 -74 -58 -127.5t-33 -93.5q-63 1 -107.5 1.5t-82 0.5h-72.5h-77q-89 0 -175 -0.5t-185 -1.5q-8 0 -8 19q0 6 2 11t6 6q36 1 60 2t35 4q24 6 32 19.5
t8 48.5v485q0 35 -8.5 48t-32.5 19q-11 3 -34.5 4t-59.5 2q-8 2 -8 17q0 8 2 13.5t6 5.5q22 -1 43 -1.5t44 -1t49.5 -0.5h59.5h59.5t49.5 0.5t44 1t43 1.5q4 0 6 -5t2 -13q0 -16 -8 -18q-36 -1 -59.5 -2t-34.5 -4q-24 -6 -32.5 -19t-8.5 -48v-490zM232 74q0 -11 -5 -22
t-16 -14l-3 -2q0 -3 5.5 -4t10.5 -1q24 1 32.5 16.5t8.5 28.5v550q0 13 -7.5 28.5t-30.5 16.5q-5 0 -12 -1t-7 -4q0 -1 3 -2q11 -3 16 -14t5 -22v-554z" />
    <glyph glyph-name="M" unicode="M" horiz-adv-x="1263" 
d="M931 699q4 5 14 5q22 0 42 -0.5t41.5 -1t45.5 -1t55 -0.5h27.5t35.5 1q4 0 6 -5.5t2 -13.5q0 -15 -8 -17q-43 0 -68 -1.5t-42 -6.5q-6 -2 -17.5 -10.5t-13.5 -30.5v-512q0 -33 8.5 -46t32.5 -19q11 -3 34.5 -4t59.5 -2q8 -2 8 -18q0 -18 -8 -18q-22 1 -43 1.5t-44 1
t-49.5 0.5h-59.5h-59.5t-49.5 -0.5t-44 -1t-43 -1.5q-8 0 -8 18q0 16 8 18q36 1 59.5 2t34.5 4q24 6 32.5 19t8.5 48v495q-72 -147 -148.5 -291t-150.5 -291q-8 -17 -17 -32.5t-14 -15.5q-2 0 -7 6t-10.5 13.5t-10.5 15t-7 11.5q-19 29 -43.5 70t-52 89t-57 100.5
t-58.5 104.5t-56 101t-49 90v-468q0 -33 8.5 -46t32.5 -19q11 -3 36.5 -4t61.5 -2q8 -2 8 -18q0 -18 -8 -18q-22 1 -40.5 1.5t-36.5 1t-38.5 0.5h-45.5h-46t-38 -0.5t-36.5 -1t-40.5 -1.5q-8 0 -8 18q0 16 8 18q36 1 60.5 2t35.5 4q24 6 32.5 19t8.5 48v537q-5 3 -13 7.5
t-14 6.5q-17 5 -43.5 6.5t-69.5 1.5q-8 2 -8 17q0 8 2 13.5t6 5.5q22 -1 35.5 -1h27.5h42.5t38 0.5t39 1t45.5 1.5q12 0 20.5 -0.5t9.5 -4.5q12 -28 34 -71t49.5 -93.5t58.5 -105.5t61.5 -108.5t59 -101.5t51.5 -85zM587 36q1 1 3.5 5.5t5 9.5t4.5 10.5t3 9.5l-316 555
q-9 16 -20 29.5t-26 13.5q-7 0 -15 -2.5t-8 -5.5q0 -1 3 -2q6 -3 12.5 -11t12.5 -17t11.5 -18.5t9.5 -15.5zM955 74q0 -11 -5 -22t-16 -14l-3 -2q0 -3 5.5 -4t10.5 -1q24 1 32.5 16.5t8.5 28.5v587q0 4 -2 4q-3 0 -9 -7.5t-14 -18.5q-5 -8 -6.5 -16.5t-1.5 -19.5v-531z" />
    <glyph glyph-name="N" unicode="N" horiz-adv-x="1129" 
d="M937 -23q0 -6 -8 -6q-5 0 -15 5t-19 12q-24 20 -71.5 64t-108 101.5t-128 123.5t-132.5 128.5t-121.5 117t-94.5 90.5v-508q0 -33 8.5 -46t32.5 -19q11 -3 36.5 -4t61.5 -2q8 -2 8 -18q0 -18 -8 -18q-22 1 -40.5 1.5t-36.5 1t-38.5 0.5h-45.5h-46t-38 -0.5t-36.5 -1
t-40.5 -1.5q-8 0 -8 18q0 16 8 18q36 1 60.5 2t35.5 4q24 6 32.5 19t8.5 48v537q-5 3 -13 7.5t-14 6.5q-17 5 -43.5 6.5t-69.5 1.5q-8 2 -8 17q0 8 2 13.5t6 5.5q22 -1 35.5 -1h27.5q94 0 195 3q12 0 18 -2t8 -5q15 -21 53.5 -61t90.5 -90.5t111.5 -107t116.5 -110t105 -100
t78 -75.5v442q0 33 -8.5 46t-32.5 19q-11 3 -36.5 4t-61.5 2q-8 2 -8 18q0 18 8 18q22 -1 40.5 -1.5t36.5 -1t38 -0.5h46h45.5t38.5 0.5t36.5 1t40.5 1.5q8 0 8 -18q0 -16 -8 -18q-36 -1 -60.5 -2t-35.5 -4q-24 -6 -32.5 -19t-8.5 -48zM249 648q46 -40 98 -89t108 -103
t114 -111t114 -112t108.5 -106t98.5 -93v44l-579 561q-14 14 -24.5 20.5t-21.5 6.5q-10 0 -19.5 -1t-9.5 -4q0 -2 4 -5t9 -8z" />
    <glyph glyph-name="O" unicode="O" horiz-adv-x="1140" 
d="M570 -22q-59 0 -119.5 9t-116.5 28.5t-105.5 49t-86.5 71t-58 95t-21 119.5t21 119.5t58 95t86.5 71t105.5 49t116.5 28.5t119.5 9t119.5 -9t116.5 -28.5t105.5 -49t86.5 -71t58 -95t21 -119.5t-21 -119.5t-58 -95t-86.5 -71t-105.5 -49t-116.5 -28.5t-119.5 -9zM570 18
q69 0 135 17t118 56t84 102.5t32 156.5t-32 156.5t-84 102.5t-118 56t-135 17t-135 -17t-118 -56t-84 -102.5t-32 -156.5t32 -156.5t84 -102.5t118 -56t135 -17zM972 351q0 -101 -42 -176.5t-115 -113.5q42 12 77.5 37t61 62t40 85t14.5 106q0 55 -15 103t-41.5 85.5
t-61.5 63.5t-75 38q72 -44 114.5 -116.5t42.5 -173.5zM93 351q0 -51 16.5 -97.5t43 -84t61 -65.5t70.5 -43q-72 57 -114 127.5t-42 162.5t42 162.5t114 127.5q-36 -15 -70.5 -43t-61 -65.5t-43 -84t-16.5 -97.5z" />
    <glyph glyph-name="P" unicode="P" horiz-adv-x="939" 
d="M629 382q44 0 80 8.5t62 25.5t40.5 43t14.5 61q0 67 -47.5 101.5t-150.5 34.5h-248q-52 0 -52 -47v-227h301zM328 338v-233q0 -33 8.5 -46t32.5 -19q11 -3 34.5 -4t59.5 -2q8 -2 8 -18q0 -18 -8 -18q-22 1 -43 1.5t-44 1t-49.5 0.5h-59.5h-59.5t-49.5 -0.5t-44 -1
t-43 -1.5q-8 0 -8 18q0 16 8 18q36 1 59.5 2t34.5 4q24 6 32.5 19t8.5 48v485q0 35 -8 48t-29 19q-14 4 -38 5t-60 2q-8 2 -8 17q0 8 2 13.5t6 5.5q11 0 30.5 -0.5t43.5 -1t51.5 -0.5h56.5h364q78 0 139 -8.5t103.5 -29t65 -55.5t22.5 -87q0 -93 -85.5 -137.5t-250.5 -44.5
h-283zM232 74q0 -11 -5 -22t-16 -14l-3 -2q0 -3 5.5 -4t10.5 -1q24 1 32.5 16.5t8.5 28.5v550q0 13 -7.5 28.5t-30.5 16.5q-5 0 -12 -1t-7 -4q0 -1 3 -2q11 -3 16 -14t5 -22v-554zM760 383q62 10 98 47.5t36 100.5q0 27 -11 49t-28.5 38t-40 25.5t-45.5 11.5
q10 -4 25.5 -14.5t29 -26t23.5 -36.5t10 -45q0 -53 -21 -88t-76 -62z" />
    <glyph glyph-name="Q" unicode="Q" horiz-adv-x="1140" 
d="M570 -22q-59 0 -119.5 9t-116.5 28.5t-105.5 49t-86.5 71t-58 95t-21 119.5t21 119.5t58 95t86.5 71t105.5 49t116.5 28.5t119.5 9t119.5 -9t116.5 -28.5t105.5 -49t86.5 -71t58 -95t21 -119.5q0 -75 -27 -133.5t-72.5 -101.5t-105.5 -72t-126 -44q17 -29 35.5 -60
t40.5 -56.5t49.5 -42.5t63.5 -17q19 0 40.5 9t37.5 17q17 10 21 10q5 0 11 -6q8 -8 8 -14q0 -2 -0.5 -4.5t-4.5 -6.5q-18 -14 -39.5 -29.5t-46 -28t-50.5 -21t-53 -8.5q-44 0 -78 18.5t-61.5 51t-51 76t-47.5 93.5q-13 -1 -25.5 -1.5t-25.5 -0.5zM586 134q42 0 74.5 -26.5
t60.5 -68.5q46 15 85.5 40t69 63t46.5 89.5t17 118.5q0 93 -32 156.5t-84 102.5t-118 56t-135 17t-135 -17t-118 -56t-84 -102.5t-32 -156.5q0 -69 18 -122t49 -91t72.5 -63t89.5 -38q21 24 38.5 42.5t35.5 30.5t38 18.5t44 6.5zM570 18h15.5t15.5 1q-26 39 -68 39
q-16 0 -30.5 -10.5t-25.5 -22.5q23 -4 46.5 -5.5t46.5 -1.5zM551 82q29 0 53.5 -28t41.5 -64q16 -34 36.5 -73.5t46.5 -73.5t58 -56.5t73 -22.5q17 0 37.5 5t34.5 16q8 6 8 12q0 4 -4 4q-8 0 -19.5 -3t-41.5 -3q-38 0 -68 23t-56 57t-48.5 74.5t-43.5 74.5t-43 57t-47 23
q-12 0 -25 -7t-16 -20l8 2t7.5 2t7.5 1zM972 351q0 -101 -42 -176.5t-115 -113.5q42 12 77.5 37t61 62t40 85t14.5 106q0 55 -15 103t-41.5 85.5t-61.5 63.5t-75 38q72 -44 114.5 -116.5t42.5 -173.5zM93 351q0 -51 16.5 -97.5t43 -84t61 -65.5t70.5 -43q-72 57 -114 127.5
t-42 162.5t42 162.5t114 127.5q-36 -15 -70.5 -43t-61 -65.5t-43 -84t-16.5 -97.5z" />
    <glyph glyph-name="R" unicode="R" horiz-adv-x="1120" 
d="M328 382h286q46 0 85 9t67 27.5t44 47t16 68.5q0 30 -14.5 53t-40.5 38t-62.5 23t-80.5 8h-248q-52 0 -52 -47v-227zM711 327q-21 7 -50 9t-65 2h-268v-233q0 -33 8.5 -46t32.5 -19q11 -3 34.5 -4t59.5 -2q8 -2 8 -18q0 -18 -8 -18q-22 1 -43 1.5t-44 1t-49.5 0.5h-59.5
h-59.5t-49.5 -0.5t-44 -1t-43 -1.5q-8 0 -8 18q0 16 8 18q36 1 59.5 2t34.5 4q24 6 32.5 19t8.5 48v485q0 35 -8 48t-29 19q-14 4 -38 5t-60 2q-8 2 -8 17q0 8 2 13.5t6 5.5q11 0 30.5 -0.5t43.5 -1t51.5 -0.5h56.5h364q70 0 131.5 -5.5t106.5 -23t71 -48.5t26 -82
q0 -45 -21 -77t-50.5 -53t-62 -32t-55.5 -14v-10q52 0 78 -22t38 -55t16.5 -71.5t13.5 -71.5t28.5 -55t62.5 -22q23 0 40.5 9t23.5 9q5 0 9 -10t4 -16q0 -4 -5 -6q-37 -20 -85 -38t-99 -18q-45 0 -68 22.5t-33 57t-12.5 76t-7 79t-16 66.5t-40.5 38zM232 74q0 -11 -5 -22
t-16 -14l-3 -2q0 -3 5.5 -4t10.5 -1q24 1 32.5 16.5t8.5 28.5v550q0 13 -7.5 28.5t-30.5 16.5q-5 0 -12 -1t-7 -4q0 -1 3 -2q11 -3 16 -14t5 -22v-554zM766 395q22 4 45 14t41 26.5t29.5 41t11.5 56.5q0 51 -34.5 81t-88.5 35q8 -3 22.5 -12t29 -23.5t25 -35t10.5 -45.5
q0 -53 -24.5 -82.5t-66.5 -55.5zM903 15q-18 4 -30.5 22t-20.5 40.5t-12 45.5t-6 39q-2 18 -5 46.5t-10.5 55t-22 45.5t-39.5 19h-6q16 -12 25 -36t14 -51t7 -51.5t4 -37.5q4 -28 9 -53.5t13.5 -44.5t22 -30.5t34.5 -11.5q11 0 23 3z" />
    <glyph glyph-name="S" unicode="S" horiz-adv-x="917" 
d="M490 -22q-121 0 -198.5 18.5t-117.5 36.5l-15 -2l-9 -32q-1 -3 -6 -5t-10 -2t-11 1.5t-6 4.5q-5 56 -21 116t-37 119q2 8 12 11t19 3t11 -6q16 -54 41 -96t68.5 -70t110.5 -42.5t166 -14.5q70 0 120 13.5t81.5 34.5t46 47t14.5 52q0 34 -23.5 57t-64 38t-95 24t-117.5 17
q-70 9 -139 20t-123.5 32.5t-88 56t-33.5 90.5q0 57 32.5 99t83.5 69.5t113 41t121 13.5q60 0 104.5 -5t77.5 -12.5t57 -16.5t44 -18l15 2l9 32q1 3 6 5t10 2t11 -1.5t6 -4.5q5 -56 21 -116t37 -119q-2 -8 -12 -11t-19 -3t-11 6q-16 54 -36 95.5t-57.5 69t-99.5 41.5
t-161 14q-44 0 -88 -6.5t-79.5 -22t-58 -41.5t-22.5 -65t26.5 -62t72.5 -37t108 -23t133 -20q61 -10 123.5 -24t112.5 -37t82 -56.5t32 -82.5q0 -62 -31 -105t-83 -70.5t-118.5 -40t-136.5 -12.5zM90 513q0 -51 31 -83.5t82 -52t116 -30.5t133 -19q77 -9 138 -21.5
t103 -31.5t64.5 -45.5t22.5 -63.5v-8t-1 -7q16 13 19 25.5t3 25.5q0 39 -26 64.5t-73 43t-114 29t-148 23.5q-82 12 -144.5 23.5t-105.5 32t-65 53t-22 86.5q-4 -6 -7 -13q-2 -6 -4 -14t-2 -17z" />
    <glyph glyph-name="T" unicode="T" horiz-adv-x="898" 
d="M449 699h135.5t102 0.5t73.5 1.5t50 3q11 -35 33 -81.5t54 -98.5q-2 -6 -10.5 -11t-15.5 -5q-6 0 -8 2q-21 39 -41.5 66.5t-47 45t-61 25.5t-83.5 8h-62q-29 0 -43.5 -13t-14.5 -33v-504q0 -33 8.5 -46t32.5 -19q11 -3 34.5 -4t59.5 -2q8 -2 8 -18q0 -18 -8 -18
q-22 1 -43 1.5t-44 1t-49.5 0.5h-59.5h-59.5t-49.5 -0.5t-44 -1t-43 -1.5q-8 0 -8 18q0 16 8 18q36 1 59.5 2t34.5 4q24 6 32.5 19t8.5 46v504q0 20 -14.5 33t-43.5 13h-62q-49 0 -83.5 -8t-61 -25.5t-47 -45t-41.5 -66.5q-2 -2 -8 -2q-7 0 -15.5 5t-10.5 11q32 52 54 98.5
t33 81.5q20 -2 50 -3t73.5 -1.5t102 -0.5h135.5zM414 74q0 -11 -5 -22t-16 -14l-3 -2q0 -3 5.5 -4t10.5 -1q24 1 32.5 16.5t8.5 28.5v550q0 13 -7.5 28.5t-30.5 16.5q-5 0 -12 -1t-7 -4q0 -1 3 -2q11 -3 16 -14t5 -22v-554z" />
    <glyph glyph-name="U" unicode="U" 
d="M878 201q0 -104 -82 -162q-48 -34 -115.5 -47.5t-144.5 -13.5q-29 0 -68 2.5t-79 10t-78 22.5t-65 41q-17 16 -28 32t-18 37t-9.5 49t-2.5 69v352q0 35 -8.5 48t-32.5 19q-11 3 -34.5 4t-59.5 2q-8 2 -8 17q0 8 2 13.5t6 5.5q22 -1 43 -1.5t44 -1t49.5 -0.5h59.5h59.5
t49.5 0.5t44 1t43 1.5q4 0 6 -5t2 -13q0 -16 -8 -18q-36 -1 -59.5 -2t-34.5 -4q-24 -6 -32.5 -19t-8.5 -48v-352q0 -68 17 -111.5t50 -68.5t80.5 -34t107.5 -9q59 0 112 13t86 36q18 13 31.5 27t21.5 32.5t12 42.5t4 56v370q0 33 -8.5 46t-32.5 19q-11 3 -36.5 4t-61.5 2
q-8 2 -8 18q0 18 8 18q22 -1 40.5 -1.5t36.5 -1t38 -0.5h46h45.5t38.5 0.5t36.5 1t40.5 1.5q8 0 8 -18q0 -16 -8 -18q-36 -1 -60.5 -2t-35.5 -4q-24 -6 -32.5 -19t-8.5 -48v-392zM247 626q0 13 -7.5 28.5t-30.5 16.5q-5 0 -12 -1t-7 -4q0 -1 3 -2q11 -3 16 -14t5 -22v-406
q0 -50 10.5 -83t25.5 -53.5t32 -31t31 -16.5q6 -3 11 -3q4 0 4 4q0 1 -3.5 4.5t-8 7.5t-8.5 7.5t-6 5.5q-14 13 -24.5 27.5t-17 33.5t-10 43.5t-3.5 58.5v399z" />
    <glyph glyph-name="V" unicode="V" horiz-adv-x="1063" 
d="M549 -45q-3 0 -8 5t-10.5 12t-10.5 15t-9 14q-52 84 -105 173t-101 170t-88.5 148.5t-68.5 108.5q-14 21 -29.5 33.5t-35.5 19t-44.5 9t-55.5 3.5q-8 2 -8 18q0 18 8 18q44 -2 91 -2h113h59.5t49.5 0.5t44 1t43 1.5q8 0 8 -18q0 -16 -8 -18q-11 -1 -27.5 -2t-33.5 -3
q-14 -2 -29.5 -8.5t-15.5 -26.5q0 -6 15.5 -36.5t41 -76t58 -101.5t66.5 -113t67 -110.5t59 -94.5q28 51 66 121q32 60 78.5 145.5t105.5 196.5q8 16 18 37.5t10 32.5q0 14 -4.5 22.5t-24.5 13.5q-10 2 -25.5 2.5t-53.5 0.5q-8 2 -8 17q0 8 2 13.5t6 5.5q22 -1 38.5 -1.5
t33.5 -1t39 -0.5h55h54.5t38 0.5t32.5 1t38 1.5q4 0 6 -5t2 -13q0 -16 -8 -18q-24 -1 -47 -1.5t-40 -5.5q-12 -3 -22.5 -7.5t-20.5 -13t-21.5 -23t-24.5 -38.5q-26 -45 -56 -98.5t-60.5 -108t-59.5 -108t-53.5 -99t-43.5 -79.5t-28 -51q-24 -44 -37.5 -61.5t-19.5 -17.5z
M208 618q-10 16 -21 29.5t-26 13.5q-7 0 -15 -2.5t-8 -5.5q0 -1 3 -2q6 -3 12.5 -11t13.5 -17t12.5 -18.5t9.5 -15.5l343 -567l17 31z" />
    <glyph glyph-name="W" unicode="W" horiz-adv-x="1367" 
d="M189 617q-8 16 -17 30t-23 14q-10 0 -17 -3t-7 -5q0 -1 3 -2q10 -7 20.5 -27.5t17.5 -35.5l252 -554q3 6 8.5 19t8.5 21zM734 617q-8 16 -17 30t-23 14q-10 0 -17 -3t-7 -5q0 -1 3 -2q10 -7 20.5 -27.5t17.5 -35.5l249 -554q3 6 8.5 19t8.5 21zM936 9q-19 44 -49 113
t-64.5 146.5t-69.5 156t-64 141.5q-52 -124 -95 -228q-18 -44 -36.5 -88.5t-34.5 -82.5l-28 -66.5t-17 -40.5q-8 -19 -16 -36t-14.5 -30.5t-12 -21.5t-8.5 -8q-6 0 -15.5 16.5t-15.5 28.5q-41 87 -79 174t-72.5 165t-63.5 142.5t-51 107.5q-11 22 -25.5 35t-33.5 20
t-43.5 9.5t-55.5 3.5q-8 2 -8 18q0 18 8 18q22 -1 43 -1.5t44.5 -0.5h50h59.5h59t48.5 0.5t43.5 1t43 1.5q8 0 8 -18q0 -16 -8 -18q-11 -1 -27.5 -2t-33.5 -3q-14 -2 -29.5 -10t-15.5 -27q1 -4 11 -28t26.5 -62t37 -86t43 -100t45.5 -104t43 -98l200 475q-6 17 -16 25
t-21 13q-11 2 -27.5 4t-52.5 3q-8 2 -8 17q0 8 2 13.5t6 5.5q22 -1 38.5 -1.5t33.5 -1t39 -0.5h55h59t48.5 0.5t43.5 1t43 1.5q8 0 8 -18q0 -16 -8 -18q-11 -1 -27.5 -2t-33.5 -3q-12 -2 -29 -9t-17 -22q2 -9 13.5 -38.5t35.5 -87t61.5 -146t92.5 -215.5l171 418
q7 16 12.5 33t5.5 31t-8 24.5t-29 12.5q-7 1 -13 1.5t-14.5 1t-20.5 1t-30 0.5q-8 2 -8 17q0 8 2 13.5t6 5.5q22 -1 38.5 -1.5t33.5 -1t39 -0.5h55h53t35.5 0.5t30.5 1t37 1.5q4 0 6 -5t2 -13q0 -16 -8 -18q-24 -1 -44.5 -3.5t-40.5 -7.5q-10 -2 -20.5 -6t-20.5 -12.5
t-20 -22.5t-20 -36q-19 -45 -41 -96t-43.5 -103.5t-43 -103.5t-39 -95t-31.5 -78.5t-21 -53.5q-34 -85 -47 -85q-6 0 -11.5 9.5t-18.5 35.5z" />
    <glyph glyph-name="X" unicode="X" horiz-adv-x="927" 
d="M226 125q46 53 91 105t90 106q-38 50 -86 116t-108 147q-23 30 -40 42t-41 17q-11 3 -31.5 5t-56.5 3q-8 2 -8 18q0 18 8 18q45 -2 94 -2h115h60t50 0.5t44.5 1t43.5 1.5q8 0 8 -18q0 -16 -8 -18q-19 0 -38.5 -0.5t-35.5 -3t-26.5 -9t-10.5 -18.5q0 -5 13.5 -26.5
t34.5 -52.5t46.5 -66t48.5 -65l122 147q34 40 34 63q0 12 -11.5 18.5t-29 9t-38.5 3t-40 0.5q-8 2 -8 18q0 18 8 18q22 -1 40 -1.5t36.5 -1t40 -0.5h51.5h56.5t42.5 0.5t37 1t40 1.5q4 0 6 -5t2 -13q0 -16 -8 -18q-35 0 -55 -2t-38 -7q-20 -6 -43 -22.5t-62 -59.5
q-40 -46 -79 -91.5t-77 -92.5q19 -26 43 -58.5t52 -69t58.5 -77t62.5 -81.5q23 -29 43.5 -43.5t44.5 -19.5q11 -3 29.5 -5t54.5 -3q8 -2 8 -18q0 -18 -8 -18q-45 2 -94 2h-115h-60t-50 -0.5t-44.5 -1t-43.5 -1.5q-8 0 -8 18q0 16 8 18q5 0 23 0.5t37.5 3t34.5 8.5t15 17
q0 3 -8 16t-21 32.5t-30 43.5t-35.5 49.5t-37 50.5t-34.5 46l-142 -173q-34 -40 -34 -63q0 -12 11 -18.5t28.5 -9t38 -3t39.5 -0.5q8 -2 8 -18q0 -18 -8 -18q-22 1 -40.5 1.5t-37.5 1t-41 0.5h-52h-56.5t-42.5 -0.5t-37 -1t-40 -1.5q-4 0 -6 5t-2 13q0 16 8 18q35 0 54.5 2
t37.5 7q10 3 20.5 8t22.5 14t27 23.5t35 36.5zM268 624q-4 4 -9.5 12t-13 15t-16 12.5t-17.5 5.5q-7 0 -15 -3t-7 -5q0 -1 3 -2q6 -4 14 -12t15.5 -17.5t14.5 -19t12 -15.5q19 -25 52 -69l72 -96t80.5 -108.5t78 -106.5t64 -89.5t39.5 -58.5q3 -5 7 -12.5t4 -16.5
q0 -7 -5 -14q-2 -2 -2 -3q0 -3 5 -3q8 0 14 4q8 5 13.5 13.5t5.5 16.5q0 19 -11 33z" />
    <glyph glyph-name="Y" unicode="Y" horiz-adv-x="858" 
d="M371 325q-38 51 -90 117t-126 157q-23 29 -40 41.5t-41 17.5q-11 3 -31.5 5t-56.5 3q-8 2 -8 18q0 18 8 18q45 -2 94 -2h115h60t50 0.5t44.5 1t43.5 1.5q8 0 8 -18q0 -16 -8 -18q-12 -1 -31 -1.5t-36.5 -3t-30 -8.5t-12.5 -16q0 -5 20 -32.5t49 -64.5t61 -77l56 -70
q32 38 61 73q25 29 51 60t41 49q17 20 23 35.5t6 24.5t-8 16.5t-22 9.5q-11 2 -34 3t-59 2q-8 2 -8 17q0 8 2 13.5t6 5.5q22 -1 40 -1.5t37 -1t42.5 -0.5h56.5h56.5t42.5 0.5t37 1t40 1.5q4 0 6 -5t2 -13q0 -16 -8 -18q-35 0 -55 -2t-38 -7q-20 -6 -43 -22.5t-62 -59.5
q-33 -38 -55 -64t-41 -50t-40.5 -50.5t-52.5 -64.5v-242q0 -33 8.5 -46t32.5 -19q11 -3 34.5 -4t59.5 -2q8 -2 8 -18q0 -18 -8 -18q-22 1 -43 1.5t-44 1t-49.5 0.5h-59.5h-59.5t-49.5 -0.5t-44 -1t-43 -1.5q-8 0 -8 18q0 16 8 18q36 1 59.5 2t34.5 4q24 6 32.5 19t8.5 48
v218zM398 74q0 -11 -5 -22t-16 -14l-3 -2q0 -3 5.5 -4t10.5 -1q24 1 32.5 16.5t8.5 28.5v245q0 17 -5.5 24.5t-21.5 27.5l-195 251q-12 16 -26 29.5t-29 13.5q-7 0 -16 -2.5t-8 -5.5q0 -1 3 -2q6 -3 14 -11t16.5 -17t16 -18.5t12.5 -15.5q53 -69 104 -135.5t96 -122.5
q6 -8 6 -14v-249z" />
    <glyph glyph-name="Z" unicode="Z" horiz-adv-x="914" 
d="M432 656q-36 0 -69.5 -0.5t-62.5 -4.5q-24 -3 -42.5 -11.5t-37 -26t-38.5 -46t-47 -70.5q-2 -3 -7 -3q-8 0 -16.5 6t-11.5 14q38 60 56 104t31 84q63 -1 107.5 -1.5t82 -1t72.5 -0.5h77h78t65 0.5t68.5 1t87.5 1.5q16 0 16 -22l-615 -636h308q36 0 69.5 0.5t62.5 4.5
q47 5 87.5 46t79.5 133q2 2 5.5 3t6.5 1q7 -1 15 -4t10 -9q-38 -74 -58 -127.5t-33 -93.5q-63 1 -116.5 1.5t-101.5 0.5h-91.5h-85.5h-103.5t-73.5 -0.5t-65.5 -1t-77.5 -1.5q-16 0 -16 22q0 1 22.5 25t60.5 63.5t87 90.5t102.5 106t107 110.5t100.5 103t82.5 84t53.5 54.5
h-232zM694 655l-586 -609h45l586 609h-45z" />
    <glyph glyph-name="bracketleft" unicode="[" horiz-adv-x="481" 
d="M379 -79q-21 1 -40.5 1.5t-40 1t-44 1t-53.5 0.5q-28 0 -37.5 17.5t-9.5 52.5v703q0 35 9.5 52.5t37.5 17.5q30 0 53.5 0.5t44 1t40 1t40.5 1.5q4 0 6 -5t2 -13q0 -16 -8 -18q-35 -1 -57 -2t-33 -4q-23 -6 -31.5 -19t-8.5 -48v-636q0 -33 8.5 -45.5t31.5 -18.5
q11 -3 33 -4t57 -2q8 -2 8 -18q0 -18 -8 -18zM207 705q0 11 5 22t16 14q3 1 3 2q0 3 -5.5 4t-10.5 1q-24 -1 -30.5 -16.5t-6.5 -28.5l2 -712q0 -6 1 -14t4.5 -14.5t10.5 -11.5t18 -5q5 0 12 1t7 4l-3 2q-11 3 -16 14t-5 22z" />
    <glyph glyph-name="backslash" unicode="\" horiz-adv-x="302" 
d="M-41 804q7 8 23 11.5t24 3.5l309 -980q-5 -8 -18.5 -12t-21.5 -4q-5 0 -7 1z" />
    <glyph glyph-name="bracketright" unicode="]" horiz-adv-x="481" 
d="M102 772q21 -1 40.5 -1.5t40 -1t44 -1t53.5 -0.5q28 0 37.5 -17.5t9.5 -52.5v-703q0 -35 -9.5 -52.5t-37.5 -17.5q-30 0 -53.5 -0.5t-44 -1t-40 -1t-40.5 -1.5q-4 0 -6 5t-2 13q0 16 8 18q35 1 57 2t33 4q23 6 31.5 19t8.5 48v636q0 33 -8.5 45.5t-31.5 18.5q-11 3 -33 4
t-57 2q-8 2 -8 18q0 18 8 18zM257 -11q0 -11 -5 -22t-16 -14l-3 -2q0 -3 5.5 -4t10.5 -1q24 1 30.5 16.5t6.5 28.5v712q0 13 -6 28.5t-28 16.5q-5 0 -12 -1t-7 -4q0 -1 3 -2q11 -3 16 -14t5 -22v-716z" />
    <glyph glyph-name="asciicircum" unicode="^" horiz-adv-x="600" 
d="M289 455q4 0 12.5 -1t16.5 -9q41 -53 74 -94t59.5 -74t47.5 -58.5t38 -46.5q0 -9 -8 -17.5t-19 -8.5h-7.5t-7.5 2q-42 45 -82 86q-17 18 -34.5 36.5t-34 36t-31 33t-24.5 27.5q-10 -11 -24.5 -26.5t-31 -32.5t-34 -35.5t-33.5 -36.5q-40 -41 -82 -86q-4 -3 -8.5 -3.5
t-8.5 -0.5q-10 0 -18 8t-8 19l222 272q5 6 14.5 8t11.5 2z" />
    <glyph glyph-name="underscore" unicode="_" horiz-adv-x="708" 
d="M682 -62q2 -1 3 -9t1 -15t-1 -15t-3 -9h-658q-2 1 -3 9t-1 15t1 15t3 9h658zM34 -97h639v18h-639v-18z" />
    <glyph glyph-name="grave" unicode="`" horiz-adv-x="833" 
d="M638 795q0 -5 -5 -11.5t-10 -6.5q-2 0 -3 1q-1 0 -2 1q-46 23 -97 51t-96 63q-11 8 -18.5 20t-7.5 26t9.5 23t24.5 9q11 0 21.5 -4t18.5 -10q45 -35 82.5 -75.5t79.5 -82.5q0 -1 1 -2zM582 830l-2 2q-22 20 -38 35t-29.5 27t-25.5 22.5t-27 22.5q-7 6 -12 6q-3 0 -7 -4
t-4 -8q0 -5 4.5 -8.5t6.5 -5.5q20 -17 42 -35q19 -15 42 -31.5t47 -30.5q2 0 3.5 2t1.5 4z" />
    <glyph glyph-name="a" unicode="a" horiz-adv-x="866" 
d="M-10 33q32 0 59.5 2.5t44.5 9.5q14 5 28 18t30 40q28 47 61.5 107.5t68.5 123t69 121.5t63 103q9 13 14 13q4 0 6.5 -4t6.5 -9q63 -95 131 -213t143 -246q12 -20 26.5 -32.5t33 -19.5t42.5 -9.5t54 -3.5q8 -2 8 -18q0 -18 -8 -18q-22 1 -43 1.5t-43.5 0.5h-49h-59.5
h-54.5t-39 -0.5t-33.5 -1t-38 -1.5q-8 0 -8 18q0 7 2 12.5t6 5.5q17 1 26.5 1.5t26.5 2.5q15 2 25.5 7t10.5 17q0 13 -19 49.5t-61 108.5h-255q-27 -49 -42.5 -78.5t-24 -46t-11 -24t-2.5 -11.5q0 -11 9 -16t26 -7t26 -2t20 -1q8 -2 8 -18q0 -18 -8 -18q-22 1 -35 1.5
t-26.5 1t-32 0.5h-51.5h-42.5t-29.5 -0.5l-26 -1t-33 -1.5q-8 0 -8 18q0 16 8 18zM391 443q-18 -30 -36 -62q-16 -27 -35 -60.5t-37 -66.5h217zM424 489l-16 -30q15 -25 35 -58t41.5 -69.5t43.5 -74t41.5 -72t34.5 -63.5t24 -48q7 -12 7 -25q0 -11 -7 -18q-2 -2 -2 -3
q0 -3 4 -3q5 0 13 4q11 7 15 17t4 19q0 15 -6 26z" />
    <glyph glyph-name="b" unicode="b" horiz-adv-x="919" 
d="M248 0h-95t-82 -2q-4 0 -6 5.5t-2 13.5q0 15 8 17q20 1 46.5 1t42.5 4q20 5 27 18t7 48v330q0 35 -7 48t-27 18q-16 4 -42.5 4t-46.5 1q-8 2 -8 17q0 8 2 13.5t6 5.5q40 -2 82 -2h95h268q49 0 102.5 -3t98.5 -15t74.5 -36.5t29.5 -67.5q0 -35 -23 -61.5t-53.5 -44.5
t-60.5 -27t-45 -9v-8q36 -2 73 -9t67 -22t49 -39t19 -59q0 -43 -25 -70t-69 -42.5t-104.5 -21t-132.5 -5.5h-268zM302 91q0 -19 4.5 -29.5t14 -16t24.5 -6.5t37 -1h142q44 0 81 4t63.5 15.5t41 32t14.5 52.5q0 31 -14.5 52t-40 33.5t-60 18t-75.5 5.5h-232v-160zM533 289
q37 0 68.5 8t54 24t35.5 39t13 52q0 25 -13 42.5t-37 28t-57.5 15t-73.5 4.5h-141q-22 0 -37 -1t-24.5 -6.5t-14 -16t-4.5 -29.5v-160h231zM726 413q0 -35 -16 -60.5t-42 -40.5q14 3 29.5 11t29 20.5t22 30t8.5 38.5q0 27 -12 44t-28.5 26.5t-34 13t-27.5 3.5
q12 -5 24.5 -11.5t23 -16.5t17 -24.5t6.5 -33.5zM746 144q0 -29 -16 -56.5t-49 -44.5q19 4 36.5 11.5t31 20t21.5 30t8 40.5q0 26 -9.5 42.5t-23 27t-30 15.5t-29.5 7q24 -11 42 -33t18 -60zM218 73q0 -11 -5 -21.5t-15 -13.5l-3 -2q0 -3 5.5 -4t10.5 -1q23 1 31 16t8 28
v387q0 13 -7 28t-30 16q-5 0 -11.5 -1t-6.5 -4q0 -1 3 -2q10 -3 15 -13.5t5 -21.5v-391z" />
    <glyph glyph-name="c" unicode="c" horiz-adv-x="880" 
d="M483 18q63 0 111.5 8t85 29t62 56.5t42.5 90.5q3 4 11 4q7 0 14.5 -4.5t10.5 -9.5q-26 -59 -31.5 -108t-7.5 -90q0 -4 -3.5 -6t-8.5 -3q-5 0 -9.5 3t-5.5 7l-10 34l-12 2q-22 -11 -45.5 -20t-53.5 -15.5t-69 -10t-91 -3.5q-76 0 -149.5 15.5t-131.5 50t-93.5 89
t-35.5 132.5t37 133t95.5 89t131.5 49.5t145 15.5q52 0 91 -3.5t69 -10t53.5 -15.5t45.5 -20l12 2l10 34q1 4 5.5 7t9.5 3q5 -1 8.5 -3t3.5 -6q2 -41 7.5 -90t31.5 -108q-3 -5 -10.5 -9.5t-14.5 -4.5q-8 0 -11 4q-17 55 -42.5 90.5t-62 56.5t-85 29t-111.5 8
q-56 0 -110.5 -12.5t-98 -41.5t-70 -77t-26.5 -120q0 -71 26.5 -119t70 -77t98.5 -42t111 -13zM88 271q0 -48 17.5 -88t44.5 -71t59.5 -52.5t63.5 -31.5q-69 48 -110 106.5t-41 136.5t39 134t100 97q-29 -7 -60 -28.5t-56 -52.5t-41 -69.5t-16 -80.5z" />
    <glyph glyph-name="d" unicode="d" horiz-adv-x="1017" 
d="M274 0h-108t-95 -2q-4 0 -6 5.5t-2 13.5q0 15 8 17q20 1 46.5 1t42.5 4q20 5 27 18t7 48v330q0 35 -7 48t-27 18q-16 4 -42.5 4t-46.5 1q-8 2 -8 17q0 8 2 13.5t6 5.5q20 -1 56.5 -1.5t78 -0.5h81.5h66h174q99 0 176.5 -13.5t131.5 -45t82 -83t28 -127.5
q0 -74 -28 -125.5t-81 -83.5t-130.5 -47t-176.5 -15h-255zM504 38q74 0 134 10t103 36t66 71t23 116q0 70 -25 115t-68.5 71t-103.5 35.5t-129 9.5h-121q-23 0 -38.5 -1t-25.5 -6.5t-14.5 -16.5t-4.5 -30v-356q0 -20 4.5 -30.5t14.5 -16t25.5 -6.5t38.5 -1h121zM857 271
q0 -85 -42.5 -143t-109.5 -81q39 4 73 23.5t59 49.5t39.5 68.5t14.5 82.5q0 46 -15.5 86t-41.5 69t-59 46.5t-68 20.5q28 -8 55 -26.5t48 -47t34 -65.5t13 -83zM218 73q0 -11 -5 -21.5t-15 -13.5l-3 -2q0 -3 5.5 -4t10.5 -1q23 1 31 16t8 28v387q0 13 -7 28t-30 16
q-5 0 -11.5 -1t-6.5 -4q0 -1 3 -2q10 -3 15 -13.5t5 -21.5v-391z" />
    <glyph glyph-name="e" unicode="e" horiz-adv-x="839" 
d="M385 502q-23 0 -38.5 -1t-25.5 -6.5t-14.5 -16.5t-4.5 -30v-160h134q26 0 44 4.5t28 15.5q9 10 12.5 30t3.5 53q0 3 5.5 4.5t13.5 1.5q16 0 18 -6q0 -16 -0.5 -29.5l-1 -27t-1 -28t-0.5 -32.5q0 -14 0.5 -38.5t2.5 -77.5q0 -3 -5.5 -5t-13.5 -2q-16 0 -18 7q0 29 -3.5 48
t-13.5 30q-10 10 -26.5 13t-42.5 3h-136v-160q0 -20 4.5 -30.5t14.5 -16t25.5 -6.5t38.5 -1h158q29 0 50.5 0.5t39.5 3.5q38 6 71 39t68 102q1 3 12 3q6 0 14.5 -3.5t10.5 -8.5q-32 -54 -55 -94.5t-36 -81.5q-36 0 -74.5 0.5t-88.5 0.5t-117.5 0.5t-161.5 0.5h-109t-96 -2
q-4 0 -6 5.5t-2 13.5q0 15 8 17q20 1 46.5 1t42.5 4q20 5 27 18t7 48v330q0 35 -7 48t-27 18q-16 4 -42.5 4t-46.5 1q-8 2 -8 17q0 8 2 13.5t6 5.5q20 -1 63.5 -1.5t93.5 -0.5h97h73h89.5t71 0.5t57 1t46.5 2.5q6 -18 12.5 -36t14.5 -37.5t20.5 -41.5t30.5 -49
q-2 -6 -10.5 -11t-15.5 -6q-6 0 -8 2q-28 46 -48 73.5t-39.5 41.5t-42 18t-56.5 4h-135zM218 73q0 -11 -5 -21.5t-15 -13.5l-3 -2q0 -3 5.5 -4t10.5 -1q23 1 31 16t8 28v387q0 13 -7 28t-30 16q-5 0 -11.5 -1t-6.5 -4q0 -1 3 -2q10 -3 15 -13.5t5 -21.5v-391z" />
    <glyph glyph-name="f" unicode="f" horiz-adv-x="731" 
d="M302 105q0 -35 7 -48t27 -18q16 -4 42.5 -4t46.5 -1q8 -2 8 -17q0 -8 -2 -13.5t-6 -5.5q-40 2 -82 2h-95h-95t-82 -2q-4 0 -6 5.5t-2 13.5q0 15 8 17q20 1 46.5 1t42.5 4q20 5 27 18t7 48v330q0 35 -7 48t-27 18q-16 4 -42.5 4t-46.5 1q-8 2 -8 17q0 8 2 13.5t6 5.5
q20 -1 63.5 -1.5t93.5 -0.5h97h73h89.5t71 0.5t57 1t46.5 2.5q6 -18 12.5 -36t14.5 -37.5t20.5 -41.5t30.5 -49q-2 -6 -10.5 -11t-15.5 -6q-6 0 -8 2q-28 46 -48 73.5t-39.5 41.5t-42 18t-56.5 4h-135q-23 0 -38.5 -1t-25.5 -6.5t-14.5 -16.5t-4.5 -30v-160h134q26 0 44 4.5
t28 15.5q9 10 12.5 30t3.5 53q0 3 5.5 4.5t13.5 1.5q16 0 18 -6q0 -16 -0.5 -29.5l-1 -27t-1 -28t-0.5 -32.5q0 -14 0.5 -38.5t2.5 -77.5q0 -3 -5.5 -5t-13.5 -2q-16 0 -18 7q0 29 -3.5 48t-13.5 30q-10 10 -26.5 13t-42.5 3h-136v-147zM218 73q0 -11 -5 -21.5t-15 -13.5
l-3 -2q0 -3 5.5 -4t10.5 -1q23 1 31 16t8 28v387q0 13 -7 28t-30 16q-5 0 -11.5 -1t-6.5 -4q0 -1 3 -2q10 -3 15 -13.5t5 -21.5v-391z" />
    <glyph glyph-name="g" unicode="g" horiz-adv-x="983" 
d="M483 18q72 0 126 13.5t97 51.5v89q0 35 -7 48t-27 18q-16 4 -42.5 4t-46.5 1q-8 2 -8 17q0 8 2 13.5t6 5.5q40 -2 82 -2h95h95t82 2q4 0 6 -5.5t2 -13.5q0 -15 -8 -17q-20 -1 -46.5 -1t-42.5 -4q-20 -5 -27 -18t-7 -48v-67q0 -37 3.5 -65t11.5 -45q0 -4 -12 -6t-17 -2
q-6 0 -8 2q-5 6 -10 15t-10.5 17.5t-11.5 15t-12 6.5q-1 0 -6 -3t-9 -5q-22 -13 -45.5 -23t-53.5 -16.5t-69.5 -10t-91.5 -3.5q-76 0 -149.5 15.5t-131.5 50t-93.5 89t-35.5 132.5t37 133t95.5 89t131.5 49.5t145 15.5q52 0 91 -3.5t69 -10t53.5 -15.5t45.5 -20l12 2l10 34
q1 4 5.5 7t9.5 3q5 -1 8.5 -3t3.5 -6q2 -41 7.5 -90t31.5 -108q-3 -5 -10.5 -9.5t-14.5 -4.5q-8 0 -11 4q-17 55 -42.5 90.5t-62 56.5t-85 29t-111.5 8q-56 0 -110.5 -12.5t-98 -41.5t-70 -77t-26.5 -120q0 -71 26.5 -119t70 -77t98.5 -42t111 -13zM731 98q0 -11 -4.5 -22
t-14.5 -15l-3 -2q0 -3 5 -4t10 -1q18 0 27.5 15t9.5 31v104q0 13 -6 28.5t-29 16.5q-5 0 -12 -1t-7 -4q0 -1 3 -2q11 -3 16 -14t5 -22v-108zM88 271q0 -48 17.5 -88t44.5 -71t59.5 -52.5t63.5 -31.5q-69 48 -110 106.5t-41 136.5t39 134t100 97q-29 -7 -60 -28.5t-56 -52.5
t-41 -69.5t-16 -80.5z" />
    <glyph glyph-name="h" unicode="h" horiz-adv-x="990" 
d="M302 105q0 -35 7 -48t27 -18q16 -4 42.5 -4t46.5 -1q8 -2 8 -17q0 -8 -2 -13.5t-6 -5.5q-40 2 -82 2h-95h-95t-82 -2q-4 0 -6 5.5t-2 13.5q0 15 8 17q20 1 46.5 1t42.5 4q20 5 27 18t7 48v330q0 35 -7 48t-27 18q-16 4 -42.5 4t-46.5 1q-8 2 -8 17q0 8 2 13.5t6 5.5
q40 -2 82 -2h95h95t82 2q4 0 6 -5.5t2 -13.5q0 -15 -8 -17q-20 -1 -46.5 -1t-42.5 -4q-20 -5 -27 -18t-7 -48v-147h386v147q0 35 -7 48t-27 18q-16 4 -42.5 4t-46.5 1q-8 2 -8 17q0 8 2 13.5t6 5.5q40 -2 82 -2h95h95t82 2q4 0 6 -5.5t2 -13.5q0 -15 -8 -17q-20 -1 -46.5 -1
t-42.5 -4q-20 -5 -27 -18t-7 -48v-330q0 -35 7 -48t27 -18q16 -4 42.5 -4t46.5 -1q8 -2 8 -17q0 -8 -2 -13.5t-6 -5.5q-40 2 -82 2h-95h-95t-82 -2q-4 0 -6 5.5t-2 13.5q0 15 8 17q20 1 46.5 1t42.5 4q20 5 27 18t7 48v147h-386v-147zM218 73q0 -11 -5 -21.5t-15 -13.5
l-3 -2q0 -3 5.5 -4t10.5 -1q23 1 31 16t8 28v387q0 13 -7 28t-30 16q-5 0 -11.5 -1t-6.5 -4q0 -1 3 -2q10 -3 15 -13.5t5 -21.5v-391zM712 73q0 -11 -5 -21.5t-15 -13.5l-3 -2q0 -3 5.5 -4t10.5 -1q23 1 31 16t8 28v387q0 13 -7 28t-30 16q-5 0 -11.5 -1t-6.5 -4q0 -1 3 -2
q10 -3 15 -13.5t5 -21.5v-391z" />
    <glyph glyph-name="i" unicode="i" horiz-adv-x="496" 
d="M194 435q0 35 -7 48t-27 18q-16 4 -42.5 4t-46.5 1q-8 2 -8 17q0 8 2 13.5t6 5.5q40 -2 82 -2h95h95t82 2q4 0 6 -5.5t2 -13.5q0 -15 -8 -17q-20 -1 -46.5 -1t-42.5 -4q-20 -5 -27 -18t-7 -48v-330q0 -35 7 -48t27 -18q16 -4 42.5 -4t46.5 -1q8 -2 8 -17q0 -8 -2 -13.5
t-6 -5.5q-40 2 -82 2h-95h-95t-82 -2q-4 0 -6 5.5t-2 13.5q0 15 8 17q20 1 46.5 1t42.5 4q20 5 27 18t7 48v330zM218 73q0 -11 -5 -21.5t-15 -13.5l-3 -2q0 -3 5.5 -4t10.5 -1q23 1 31 16t8 28v387q0 13 -7 28t-30 16q-5 0 -11.5 -1t-6.5 -4q0 -1 3 -2q10 -3 15 -13.5
t5 -21.5v-391z" />
    <glyph glyph-name="j" unicode="j" horiz-adv-x="638" 
d="M449 155q0 -30 -3.5 -50.5t-10 -35t-15.5 -25t-20 -19.5q-33 -28 -79.5 -36t-97.5 -8q-33 0 -64 6.5t-54.5 21t-38 38t-14.5 57.5q0 20 12.5 36t38.5 16q16 0 30 -9.5t14 -29.5q0 -16 -5 -24.5t-5 -17.5q0 -32 26 -49t62 -17q33 0 58.5 11t39.5 33q11 15 14.5 36t3.5 44
v302q0 35 -7 48t-27 18q-16 4 -42.5 4t-46.5 1q-8 2 -8 17q0 8 2 13.5t6 5.5q40 -2 82 -2h95h95t82 2q4 0 6 -5.5t2 -13.5q0 -15 -8 -17q-20 -1 -46.5 -1t-42.5 -4q-20 -5 -27 -18t-7 -48v-280zM70 96q0 -55 51 -80q-24 32 -24 79q0 25 12 40q0 4 -7 4q-12 0 -22 -12
t-10 -31zM399 462q0 13 -7 28t-30 16q-5 0 -11.5 -1t-6.5 -4q0 -1 3 -2q10 -3 15 -13.5t5 -21.5v-334q0 -25 -5 -51.5t-27 -45.5q-6 -5 -16.5 -12t-10.5 -8q0 -4 4 -4q2 0 8 1t9 3q13 5 26 13t22.5 22t15.5 34.5t6 51.5v328z" />
    <glyph glyph-name="k" unicode="k" horiz-adv-x="977" 
d="M302 240q35 21 73.5 44.5t76.5 47.5t74.5 47.5t68.5 44.5q21 14 38.5 29.5t17.5 29.5q0 11 -11 14.5t-26 5.5q-16 2 -34.5 2t-29.5 1q-8 2 -8 18q0 18 8 18q24 -1 43.5 -1.5t39.5 -1t43.5 -0.5h56.5h55t42 0.5t37 1t40 1.5q8 0 8 -18q0 -16 -8 -18q-26 -1 -47 -4.5
t-40.5 -9t-39 -13.5t-41.5 -18q-25 -12 -48.5 -25.5t-47.5 -28.5t-50.5 -32.5t-56.5 -38.5q34 -36 69 -73t67.5 -71t61 -63t51.5 -47q39 -32 79 -40.5t77 -8.5q8 -2 8 -18q0 -18 -8 -18q-22 1 -40 1.5t-37 1t-42.5 0.5h-56.5q-66 0 -114 -0.5t-97 -2.5q-8 0 -8 18q0 16 8 18
q11 1 30 1t35 2q13 2 24 5t11 14q0 7 -6 17t-16 21q-17 19 -41 45t-50 52.5t-50.5 51l-41.5 41.5l-147 -93v-85q0 -35 7 -48t27 -18q16 -4 42.5 -4t46.5 -1q8 -2 8 -17q0 -8 -2 -13.5t-6 -5.5q-40 2 -82 2h-95h-95t-82 -2q-4 0 -6 5.5t-2 13.5q0 15 8 17q20 1 46.5 1t42.5 4
q20 5 27 18t7 48v330q0 35 -7 48t-27 18q-16 4 -42.5 4t-46.5 1q-8 2 -8 17q0 8 2 13.5t6 5.5q40 -2 82 -2h95h95t82 2q4 0 6 -5.5t2 -13.5q0 -15 -8 -17q-20 -1 -46.5 -1t-42.5 -4q-20 -5 -27 -18t-7 -48v-195zM471 295l10 -11.5t27.5 -29.5t39.5 -41t45 -47l122 -128h56
q2 0 2 3q0 2 -9.5 6.5t-17.5 9.5q-8 6 -15 11.5t-17.5 15.5t-27.5 27.5t-45 47.5q-15 15 -25.5 26.5t-25 26.5t-36.5 38t-60 62zM218 73q0 -11 -5 -21.5t-15 -13.5l-3 -2q0 -3 5.5 -4t10.5 -1q23 1 31 16t8 28v387q0 13 -7 28t-30 16q-5 0 -11.5 -1t-6.5 -4q0 -1 3 -2
q10 -3 15 -13.5t5 -21.5v-391z" />
    <glyph glyph-name="l" unicode="l" horiz-adv-x="753" 
d="M302 92q0 -20 4.5 -30.5t14.5 -16t25.5 -6.5t38.5 -1h135q29 0 50.5 0.5t39.5 3.5q38 6 71 39t68 102q1 3 12 3q6 0 14.5 -3.5t10.5 -8.5q-32 -54 -55 -94.5t-36 -81.5q-36 0 -70.5 0.5t-80.5 0.5t-110 0.5t-158 0.5h-109t-96 -2q-4 0 -6 5.5t-2 13.5q0 15 8 17
q20 1 46.5 1t42.5 4q20 5 27 18t7 48v330q0 35 -7 48t-27 18q-16 4 -42.5 4t-46.5 1q-8 2 -8 17q0 8 2 13.5t6 5.5q40 -2 82 -2h95h95t82 2q4 0 6 -5.5t2 -13.5q0 -15 -8 -17q-20 -1 -46.5 -1t-42.5 -4q-20 -5 -27 -18t-7 -48v-343zM218 73q0 -11 -5 -21.5t-15 -13.5l-3 -2
q0 -3 5.5 -4t10.5 -1q23 1 31 16t8 28v387q0 13 -7 28t-30 16q-5 0 -11.5 -1t-6.5 -4q0 -1 3 -2q10 -3 15 -13.5t5 -21.5v-391z" />
    <glyph glyph-name="m" unicode="m" horiz-adv-x="1057" 
d="M59 506q-8 2 -8 17q0 8 2 13.5t6 5.5q25 -1 51.5 -1.5t55.5 -0.5q46 0 72 1t39 1t17.5 -7t8.5 -13q7 -16 27.5 -53t52 -91t72.5 -122t90 -146q12 22 36 68l54 103.5t61.5 120.5t57.5 120q4 6 8.5 13t17.5 7q10 0 32 -1t63 -1h16.5h20.5t30 0.5t44 1.5q4 0 6 -5.5t2 -13.5
q0 -15 -8 -17q-20 -1 -45.5 -1t-41.5 -4q-20 -5 -27 -18t-7 -48v-330q0 -35 7 -48t27 -18q16 -4 41.5 -4t45.5 -1q8 -2 8 -17q0 -8 -2 -13.5t-6 -5.5q-40 2 -81 2h-94h-46.5h-38.5t-35 -0.5t-37 -1.5q-4 0 -6 5.5t-2 13.5q0 15 8 17q20 1 36.5 1t32.5 4q20 5 27 18t7 48v332
q-30 -57 -63.5 -123.5t-65.5 -129t-59.5 -114.5t-44.5 -82l-6 -9t-8 -6q-5 0 -8.5 4.5t-7.5 10.5q-12 17 -30.5 47.5t-41 69t-48.5 82.5l-52 88t-50.5 84.5t-45.5 73.5v-328q0 -35 7 -48t27 -18q14 -3 34 -3.5t40 -1.5q8 -2 8 -17q0 -8 -2 -13.5t-6 -5.5q-20 1 -33.5 1.5
t-27.5 0.5h-31h-43h-44h-32.5t-29 -0.5t-34.5 -1.5q-4 0 -6 5.5t-2 13.5q0 15 8 17q20 1 47.5 1t43.5 4q20 5 27 18t7 48v381q-10 9 -26 12q-17 4 -42 5.5t-57 2.5zM246 446q14 -24 34.5 -59t44.5 -75.5t49 -82.5t48 -80.5t42 -69.5t31 -49q1 0 4 3.5t5.5 8.5t4.5 10t2 8
l-246 413q-8 14 -17.5 27t-23.5 13q-6 0 -16 -1t-10 -5q0 -2 4 -3q6 -3 12 -10t12 -15.5t11 -17.5t9 -15zM781 73q0 -11 -5 -21.5t-15 -13.5l-3 -2q0 -3 5.5 -4t10.5 -1q23 1 31 16t8 28v419q0 4 -2 4q-3 0 -8.5 -7.5t-13.5 -18.5q-5 -8 -6.5 -16.5t-1.5 -19.5v-363z" />
    <glyph glyph-name="n" unicode="n" horiz-adv-x="944" 
d="M734 435q0 35 -7 48t-27 18q-14 3 -34 3.5t-40 1.5q-8 2 -8 17q0 8 2 13.5t6 5.5q20 -1 33.5 -1.5t27.5 -0.5h31h43h44h32.5t29 0.5t34.5 1.5q4 0 6 -5.5t2 -13.5q0 -15 -8 -17q-20 -1 -47.5 -1t-43.5 -4q-20 -5 -27 -18t-7 -48v-458q0 -3 -5 -4.5t-7 -1.5
q-5 0 -10.5 3.5t-13.5 9.5q-20 15 -58.5 48t-86.5 76t-102 92.5t-105.5 97t-96 89t-74.5 70.5v-352q0 -35 7 -48t27 -18q14 -3 34 -3.5t40 -1.5q8 -2 8 -17q0 -8 -2 -13.5t-6 -5.5q-20 1 -33.5 1.5t-27.5 0.5h-31h-43h-44h-32.5t-29 -0.5t-34.5 -1.5q-4 0 -6 5.5t-2 13.5
q0 15 8 17q20 1 47.5 1t43.5 4q20 5 27 18t7 48v381q-10 9 -26 12q-17 4 -42 5.5t-57 2.5q-8 2 -8 17q0 8 2 13.5t6 5.5q25 -1 54.5 -1.5t58.5 -0.5q41 0 72.5 0.5t41.5 0.5t15.5 -7t10.5 -13q21 -22 54.5 -54.5t73 -69.5t83.5 -76.5t84.5 -76.5t76 -69t59.5 -54v314z
M263 451l60.5 -55t84.5 -77.5t95.5 -88.5t94 -86.5t79.5 -72.5t52 -46v41l-456 419q-14 12 -23 17t-20 6q-8 0 -18.5 -1.5t-10.5 -3.5q0 -3 3 -4q5 -2 13 -8t16 -13t16 -14.5t14 -12.5z" />
    <glyph glyph-name="o" unicode="o" horiz-adv-x="913" 
d="M461 20q52 0 101.5 13t87 42.5t60.5 77t23 117.5t-23 117.5t-60.5 76.5t-87 41.5t-101.5 12.5t-102 -12.5t-89.5 -41.5t-64 -76.5t-24.5 -117.5t24.5 -117.5t64 -77t89.5 -42.5t102 -13zM461 -18q-47 0 -95 7t-92 22t-82.5 38t-67 55t-45 73t-16.5 93q0 51 16.5 92.5
t45 73t67 54.5t82.5 37.5t92 21.5t95 7q71 0 140.5 -15.5t125 -50t89.5 -89t34 -131.5t-35 -132t-91 -89.5t-125.5 -50.5t-137.5 -16zM758 271q0 -85 -36 -148.5t-108 -92.5q80 20 129 81.5t49 159.5q0 46 -14 86t-38 71t-56 51.5t-68 28.5q66 -31 104 -90t38 -147zM88 271
q0 -48 17.5 -88t44.5 -71t59.5 -52.5t63.5 -31.5q-69 48 -110 106.5t-41 136.5t39 134t100 97q-29 -7 -60 -28.5t-56 -52.5t-41 -69.5t-16 -80.5z" />
    <glyph glyph-name="p" unicode="p" horiz-adv-x="816" 
d="M302 91q0 -25 7.5 -35.5t29.5 -13.5q12 -2 32.5 -2.5t52.5 -1.5q3 -2 5 -8t2 -12q0 -8 -2 -14t-5 -6q-20 1 -39 1.5t-39.5 0.5h-44h-53.5h-53.5h-44t-39.5 -0.5t-39 -1.5q-3 0 -5 5.5t-2 12.5q0 5 2 11t5 7q32 1 52.5 1.5t32.5 2.5q22 4 29.5 15.5t7.5 37.5v344
q0 35 -7 48t-27 18q-16 4 -42.5 4t-46.5 1q-8 2 -8 17q0 8 2 13.5t6 5.5q40 -2 80.5 -2h93.5h271q53 0 107.5 -3.5t98.5 -16.5t71.5 -39t27.5 -70q0 -38 -21.5 -67.5t-59 -50t-89 -31.5t-112.5 -11h-237v-160zM381 502q-21 0 -36 -1t-24.5 -6.5t-14 -16t-4.5 -29.5v-160h233
q83 0 126 30.5t43 86.5q0 50 -40.5 73t-134.5 23h-148zM218 73q0 -11 -5 -21.5t-15 -13.5l-3 -2q0 -3 5.5 -4t10.5 -1q23 1 31 16t8 28v387q0 13 -7 28t-30 16q-5 0 -11.5 -1t-6.5 -4q0 -1 3 -2q10 -3 15 -13.5t5 -21.5v-391zM634 287q22 1 45.5 8.5t43 22.5t32 37t12.5 53
q0 22 -11.5 40t-29.5 30.5t-40 20t-43 7.5q10 -3 25.5 -10.5t30 -19.5t24.5 -29.5t10 -40.5q0 -44 -24.5 -72t-74.5 -47z" />
    <glyph glyph-name="q" unicode="q" horiz-adv-x="913" 
d="M461 -18q-47 0 -95 7t-92 22t-82.5 38t-67 55t-45 73t-16.5 93q0 51 16.5 92.5t45 73t67 54.5t82.5 37.5t92 21.5t95 7q71 0 140.5 -15.5t125 -50t89.5 -89t34 -131.5q0 -59 -21 -104.5t-56.5 -79t-82 -55.5t-98.5 -34q15 -28 30.5 -55t35 -48.5t43.5 -34.5t56 -13
q11 0 23.5 4.5t23 10.5t19 11.5t11.5 7.5q5 0 8.5 -8t3.5 -14q-31 -27 -69.5 -50t-83.5 -23q-44 0 -74 20.5t-51 50.5t-35.5 64.5t-27.5 63.5q-11 -1 -22 -1.5t-22 -0.5zM181 270q0 -52 14 -92t38 -68.5t56 -47.5t69 -29q6 12 15 24q17 24 39 37t54 13q35 0 59.5 -20.5
t44.5 -51.5q34 10 64 29t52 48t34.5 68t12.5 90q0 70 -23 117.5t-60.5 76.5t-87 41.5t-101.5 12.5t-102 -12.5t-89.5 -41.5t-64 -76.5t-24.5 -117.5zM434 53q-12 0 -23 -8.5t-20 -19.5q17 -3 34.5 -4t35.5 -1h13.5t12.5 1q-9 15 -21 23.5t-32 8.5zM442 70q26 0 46 -22
t33 -53q12 -27 27.5 -60.5t37.5 -62.5t50.5 -49t64.5 -20q20 0 35 5.5t22 14.5q0 4 -3 4q-3 -1 -9.5 -2t-17.5 -1q-38 0 -66.5 18t-50 45.5t-39.5 61.5t-35 66t-37 53t-47 21q-11 0 -20 -6t-12 -17q3 1 7 2q8 2 14 2zM758 271q0 -85 -36 -148.5t-108 -92.5q80 20 129 81.5
t49 159.5q0 46 -14 86t-38 71t-56 51.5t-68 28.5q66 -31 104 -90t38 -147zM88 271q0 -48 17.5 -88t44.5 -71t59.5 -52.5t63.5 -31.5q-69 48 -110 106.5t-41 136.5t39 134t100 97q-29 -7 -60 -28.5t-56 -52.5t-41 -69.5t-16 -80.5z" />
    <glyph glyph-name="r" unicode="r" horiz-adv-x="943" 
d="M381 502q-21 0 -36 -1t-24.5 -6.5t-14 -16t-4.5 -29.5v-160h234q83 0 125.5 32t42.5 91q0 42 -40 66t-135 24h-148zM302 251v-160q0 -25 7.5 -35.5t29.5 -13.5q12 -2 32.5 -2.5t52.5 -1.5q3 -2 5 -8t2 -12q0 -8 -2 -14t-5 -6q-20 1 -39 1.5t-39.5 0.5h-44h-53.5h-53.5
h-44t-39.5 -0.5t-39 -1.5q-3 0 -5 5.5t-2 12.5q0 5 2 11t5 7q32 1 52.5 1.5t32.5 2.5q22 4 29.5 15.5t7.5 37.5v344q0 35 -7 48t-27 18q-16 4 -42.5 4t-46.5 1q-8 2 -8 17q0 8 2 13.5t6 5.5q40 -2 80.5 -2h93.5h271q53 0 107.5 -3t98.5 -15.5t71.5 -37t27.5 -66.5
q0 -29 -12.5 -52.5t-33 -42t-47.5 -31.5t-56 -20v-9q32 -2 48.5 -18.5t25 -40.5t12 -51.5t8.5 -51t14.5 -39t30.5 -15.5q19 0 35 9t22 9q5 0 9.5 -10t4.5 -16q0 -4 -5 -6q-37 -20 -68.5 -32t-67.5 -12t-55.5 12t-29 31.5t-11.5 44.5t-2 50q0 19 -1 38.5t-4.5 35t-10 27
t-17.5 15.5q-12 5 -28.5 6.5t-38.5 1.5h-241zM218 73q0 -11 -5 -21.5t-15 -13.5l-3 -2q0 -3 5.5 -4t10.5 -1q23 1 31 16t8 28v387q0 13 -7 28t-30 16q-5 0 -11.5 -1t-6.5 -4q0 -1 3 -2q10 -3 15 -13.5t5 -21.5v-391zM634 287q22 1 45.5 9.5t43 24.5t32 39t12.5 54
q0 22 -11 38.5t-29 27.5t-40 17.5t-44 8.5q10 -3 25.5 -9.5t30 -17.5t24.5 -27.5t10 -39.5q0 -88 -99 -125zM767 13q-18 4 -29 16t-18 28t-10 33t-5 30q-2 16 -2.5 38t-5.5 42t-16.5 34t-36.5 14h-6q15 -10 22.5 -27.5t10 -37t2 -37.5t0.5 -28q1 -21 5 -40.5t12 -34.5
t21 -24t34 -9q10 0 22 3z" />
    <glyph glyph-name="s" unicode="s" horiz-adv-x="878" 
d="M426 522q-36 0 -73 -6.5t-66 -20t-47.5 -34t-18.5 -48.5q0 -24 23.5 -37.5t63.5 -22t93.5 -14t113.5 -12.5t113.5 -16.5t94 -26.5t64 -44.5t23.5 -70.5q0 -48 -27.5 -83t-72.5 -58t-103.5 -34.5t-121.5 -11.5q-56 0 -98 3.5t-75.5 10t-60.5 16t-51 22.5l-12 -4l-7 -33
q-2 -9 -16 -9q-5 0 -8.5 2t-3.5 7q-5 42 -19 92.5t-43 109.5q2 5 9.5 10t15.5 5t11 -4q23 -56 57.5 -93t79 -59.5t98.5 -32t117 -9.5q60 0 104 10.5t72.5 27.5t42 37t13.5 40q0 26 -19.5 42t-54 25.5t-82 15t-104.5 9.5q-61 4 -121 11t-108 23.5t-77.5 46t-29.5 78.5
q0 46 29 79t73.5 54t99 31t105.5 10t86.5 -4t62 -10.5t47.5 -15t42 -18.5l12 3l8 32q4 11 13 11q13 0 14 -7q5 -42 16 -90t43 -106q-3 -5 -10.5 -9.5t-17.5 -4.5q-6 0 -7 3q-22 54 -50.5 89t-65.5 56t-84 29t-105 8zM161 443q-9 -7 -16.5 -22t-7.5 -30q0 -43 26 -69.5
t69 -42t98 -22t113 -10.5q63 -4 117 -11t93.5 -20t61.5 -34t22 -53q0 -14 -4 -27q15 17 19.5 28.5t4.5 24.5q0 33 -24.5 54.5t-67 35t-101.5 21.5t-129 14q-66 6 -117.5 12t-86.5 19.5t-53 37.5t-18 66v13.5t1 14.5z" />
    <glyph glyph-name="t" unicode="t" horiz-adv-x="745" 
d="M228 502q-34 0 -56.5 -4t-42 -18t-39.5 -41.5t-48 -73.5q-2 -2 -8 -2q-7 1 -15.5 6t-10.5 11q18 27 30.5 49t20.5 41.5t14.5 37.5t12.5 36q43 -3 114.5 -3.5t172.5 -0.5t172 0.5t114 3.5q6 -18 12.5 -36t14.5 -37.5t20.5 -41.5t30.5 -49q-2 -6 -10.5 -11t-15.5 -6
q-6 0 -8 2q-28 46 -48 73.5t-39.5 41.5t-42 18t-56.5 4q-16 0 -32 -1t-29 -6.5t-21 -16.5t-8 -32v-341q0 -35 7 -48t27 -18q16 -4 42.5 -4t46.5 -1q8 -2 8 -17q0 -8 -2 -13.5t-6 -5.5q-40 2 -82 2h-95h-95t-82 -2q-4 0 -6 5.5t-2 13.5q0 15 8 17q20 1 46.5 1t42.5 4
q20 5 27 18t7 48v341q0 20 -6.5 31.5t-18 17t-28.5 6.5t-38 1zM343 73q0 -11 -5 -21.5t-15 -13.5l-3 -2q0 -3 5.5 -4t10.5 -1q23 1 31 16t8 28v387q0 13 -7 28t-30 16q-5 0 -11.5 -1t-6.5 -4q0 -1 3 -2q10 -3 15 -13.5t5 -21.5v-391z" />
    <glyph glyph-name="u" unicode="u" horiz-adv-x="911" 
d="M176 435q0 35 -7 48t-27 18q-16 4 -42.5 4t-46.5 1q-8 2 -8 17q0 8 2 13.5t6 5.5q40 -2 82 -2h95h92t79 2q4 0 6 -5.5t2 -13.5q0 -15 -8 -17q-20 -1 -43.5 -1t-39.5 -4q-20 -5 -27 -18t-7 -48v-243q0 -46 10.5 -79.5t34 -55t61.5 -32t94 -10.5q33 0 71.5 6.5t71.5 24
t54.5 46.5t21.5 74v268q0 35 -7 48t-27 18q-14 3 -38 3.5t-44 1.5q-8 2 -8 17q0 8 2 13.5t6 5.5q20 -1 35 -1.5t30 -0.5h33.5h44.5h43h31t28 0.5t34 1.5q4 0 6 -5.5t2 -13.5q0 -15 -8 -17q-20 -1 -45.5 -1t-41.5 -4q-20 -5 -27 -18t-7 -48v-278q0 -52 -24.5 -85.5
t-63.5 -53.5t-88 -28t-98 -8q-53 0 -105.5 7t-94.5 29t-68.5 63t-26.5 108v247zM232 464q0 12 -8 26.5t-29 15.5q-5 0 -11.5 -1t-6.5 -4q0 -1 3 -2q10 -2 15 -12t5 -21v-279q0 -44 11 -72.5t26.5 -46.5t32.5 -27t29 -15q6 -3 11 -3q3 0 3 4q0 1 -3 4t-7 6.5l-8 7t-6 5.5
q-13 12 -23.5 24t-18 28t-11.5 37t-4 53v272z" />
    <glyph glyph-name="v" unicode="v" horiz-adv-x="844" 
d="M869 507q-32 0 -61 -2.5t-46 -9.5q-14 -5 -28 -18t-30 -40q-23 -40 -54.5 -96t-64 -114.5t-62.5 -113t-51 -91.5q-28 -51 -39 -51q-10 0 -38 51q-20 36 -49.5 88.5t-63.5 110.5t-68.5 115.5t-63.5 104.5q-14 22 -28 34.5t-31.5 19t-40.5 8.5t-54 3q-8 2 -8 18q0 18 8 18
q22 -1 41.5 -1.5t41 -0.5h46.5h58h56.5t42.5 0.5t37 1t40 1.5q8 0 8 -18q0 -16 -8 -18q-11 -1 -29 -1.5t-35 -2.5q-14 -2 -25 -7t-11 -17q0 -10 12 -36t37 -72t64.5 -114.5t95.5 -163.5q20 35 41 71q17 31 38 68t40 72q30 55 48 87.5t27 51t12 26t3 12.5q0 11 -9 16t-26 7
t-27.5 2t-21.5 1q-8 2 -8 18q0 18 8 18q22 -1 35 -1.5t26.5 -1t32 -0.5h51.5h42.5t29.5 0.5l26 1t33 1.5q8 0 8 -18q0 -16 -8 -18zM199 466q-8 15 -19.5 26.5t-23.5 12.5q-6 0 -13.5 -0.5t-8.5 -4.5l4 -3t10 -10.5t12 -16t11.5 -17t8.5 -14.5l15 -25t29.5 -50t39.5 -67
l44 -74l117 -198l18 28z" />
    <glyph glyph-name="w" unicode="w" horiz-adv-x="1193" 
d="M1042 431q-46 -100 -92.5 -196.5t-95.5 -201.5q-14 -31 -22.5 -47t-14.5 -16q-7 0 -13 12t-10 18q-15 34 -40.5 88.5t-54 116t-56 122t-47.5 106.5q-43 -95 -79 -175q-15 -34 -30.5 -68t-29 -63.5t-23.5 -51t-14 -31.5q-13 -29 -24 -51.5t-17 -22.5q-2 0 -5.5 4.5
t-7 10.5t-7 12.5t-6.5 11.5q-31 63 -59.5 125t-55 118t-49 104t-41.5 84q-12 22 -23 35t-26 19.5t-36 8.5t-52 3q-8 2 -8 18q0 18 8 18q22 -1 37.5 -1.5t31.5 -0.5h36.5h53.5h56t41.5 0.5t35.5 1t38 1.5q8 0 8 -18q0 -16 -8 -18q-11 -1 -25 -1.5t-30 -2.5q-13 -2 -23 -7
t-10 -17q1 -3 9 -21.5t20.5 -47.5t29 -64.5t34 -73t35 -73.5t33.5 -65q7 14 17 36t22 48.5t25 55.5t26 57q30 66 63 140q-14 20 -40.5 27.5t-74.5 9.5q-8 2 -8 16q0 18 8 18q22 -1 37.5 -1.5t31.5 -0.5h37h54h56t41.5 0.5t35.5 1t38 1.5q8 0 8 -18q0 -16 -7 -18
q-11 -1 -27 -1.5t-32 -2.5q-12 -2 -22.5 -7t-10.5 -17q1 -7 14.5 -37.5t35.5 -77.5t50.5 -107t59.5 -126q52 106 83.5 172.5t48.5 104.5t22.5 54t5.5 21q0 10 -9 14.5t-23 6.5q-12 2 -25.5 2.5t-24.5 1.5q-4 0 -6 5.5t-2 11.5q0 18 8 18q22 -1 35 -1.5l26 -1t31 -0.5h51
h40.5t25.5 0.5l22 1t31 1.5q8 0 8 -18q0 -16 -8 -18q-32 0 -53.5 -1.5t-38.5 -8.5q-14 -5 -28 -18t-30 -48zM194 471q-7 14 -16.5 26t-21.5 13q-6 0 -13.5 -0.5t-9.5 -4.5l4 -3t9 -10.5t10 -16t9 -17t7 -14.5q2 -5 12 -25.5t24.5 -50.5t32 -66.5t35.5 -74.5q42 -89 94 -198
l17 35zM639 471q-7 14 -16.5 26t-21.5 13q-6 0 -13.5 -0.5t-9.5 -4.5l4 -3t9 -10.5t10 -16t9 -17t7 -14.5q2 -5 11.5 -25.5t23.5 -50.5t31 -66.5t35 -74.5q41 -89 92 -199l17 35z" />
    <glyph glyph-name="x" unicode="x" horiz-adv-x="838" 
d="M435 335q54 62 86 100t32 51q0 15 -30 18q-15 2 -25.5 1.5t-20.5 0.5q-4 0 -6 5.5t-2 12.5q0 18 8 18q22 -1 36.5 -1.5t30 -0.5h35.5h53h41.5h27t23.5 0.5t32 1.5q8 0 8 -18q0 -16 -8 -18q-32 0 -57.5 -1.5t-42.5 -9.5t-35.5 -23t-41.5 -38.5t-51.5 -56t-66.5 -74.5
q31 -38 63 -76.5t59.5 -70.5t47.5 -54.5t28 -27.5q15 -11 26.5 -18.5t25 -12.5t33 -7t50.5 -3q8 -2 8 -18q0 -18 -8 -18q-22 1 -41.5 1.5t-40.5 1t-46 0.5h-58h-55t-40 -0.5t-35.5 -1t-41.5 -1.5q-8 0 -8 18q0 16 8 18q11 1 26.5 1t31.5 2q12 2 21 5t9 13q0 4 -4 10.5
t-17.5 24.5t-39.5 50t-70 87q-68 -77 -102.5 -118t-34.5 -54q0 -14 29 -18q12 -2 26.5 -2t26.5 -1q4 0 6 -5.5t2 -12.5q0 -18 -8 -18q-22 1 -38 1.5t-32.5 1t-38 0.5h-54.5h-42.5t-29.5 -0.5l-26 -1t-33 -1.5q-8 0 -8 18q0 16 8 18q32 0 58.5 3t50.5 12q17 6 35.5 21
t43.5 40t57.5 62t78.5 87q-2 3 -9.5 12t-18 22.5t-23.5 30t-26 33.5q-32 40 -70 88q-14 16 -28.5 27.5t-33.5 18.5t-44 10.5t-58 5.5q-4 2 -5 7.5t-1 12.5q0 16 9 16q34 -1 80.5 -1.5t109.5 -0.5h55h39.5t33.5 0.5t38 1.5q9 0 9 -18q0 -7 -1.5 -12.5t-5.5 -5.5
q-14 0 -32.5 -1t-31.5 -3q-10 -2 -17.5 -6t-7.5 -15q0 -8 14.5 -29t33 -44.5t35.5 -44.5t23 -28zM251 444q33 -41 77.5 -94.5t87.5 -107.5t79 -100.5t54 -73.5q5 -6 9 -14.5t4 -17.5q0 -7 -4 -11q-1 -1 -1 -3q0 -3 4 -3q11 0 19.5 8.5t8.5 19.5q0 22 -14 39l-308 384
q-10 12 -21.5 24t-23.5 12q-8 0 -18.5 -1.5t-9.5 -4.5q0 -2 4 -3q5 -2 12 -8t14.5 -14.5t14.5 -16.5t12 -14z" />
    <glyph glyph-name="y" unicode="y" horiz-adv-x="748" 
d="M327 258q-2 3 -9 12t-16.5 22.5t-22 30t-24.5 33.5q-29 40 -64 88q-15 19 -29 31t-32.5 19t-43 9.5t-59.5 2.5q-4 2 -5 7.5t-1 12.5q0 16 9 16q34 -1 75 -1.5t104 -0.5h55h39.5t33.5 0.5t38 1.5q9 0 9 -18q0 -7 -1.5 -12.5t-5.5 -5.5q-14 -1 -33 -1.5t-31 -2.5
q-10 -2 -16.5 -5t-6.5 -14q0 -4 3.5 -12.5t10.5 -18.5q10 -17 26.5 -38.5t32 -41.5t28.5 -36t18 -22q26 31 50 59t43 50.5t30 38.5t11 22q0 17 -31 20q-16 2 -34 1.5t-29 0.5q-4 0 -6 5.5t-2 12.5q0 18 8 18q22 -1 36 -1.5t28.5 -0.5h34h52.5h42.5h29t25.5 0.5t33 1.5
q8 0 8 -18q0 -16 -8 -18q-32 0 -56.5 -1.5t-41.5 -9.5q-15 -6 -33.5 -24.5t-42.5 -47t-54 -65.5t-67 -79v-174q0 -35 7 -48t27 -18q16 -4 42.5 -4t46.5 -1q8 -2 8 -17q0 -8 -2 -13.5t-6 -5.5q-40 2 -82 2h-95h-95t-82 -2q-4 0 -6 5.5t-2 13.5q0 15 8 17q20 1 46.5 1t42.5 4
q20 5 27 18t7 48v153zM351 72q0 -11 -4.5 -21.5t-15.5 -12.5l-3 -2q0 -3 5.5 -4t10.5 -1q23 1 31 16t8 27v177q0 17 -6 27t-21 30l-119 159q-11 15 -24 28t-27 13q-7 0 -15.5 -2t-7.5 -5q0 -1 3 -2q6 -3 13.5 -10t15.5 -16t15 -18t12 -15l124 -165q5 -9 5 -14v-189z" />
    <glyph glyph-name="z" unicode="z" horiz-adv-x="790" 
d="M310 502q-34 0 -56.5 -4t-42 -18t-39.5 -41.5t-48 -73.5q-2 -2 -8 -2q-7 1 -15.5 6t-10.5 11q18 27 30.5 49t20.5 41.5t14.5 37.5t12.5 36q21 -2 46 -2.5t56.5 -1t71 -0.5h89.5h91.5h68.5t60 0.5t64 1.5q6 0 6 -11q0 -1 -21 -22l-55 -55t-78 -77t-90 -88t-90.5 -88.5
t-80 -78t-58.5 -57t-25 -25.5q48 -1 84 -1.5t65 -0.5h54.5h51.5q29 0 50.5 0.5t39.5 3.5q38 6 71 39t68 102q1 3 12 3q6 0 14.5 -3.5t10.5 -8.5q-32 -54 -55 -94.5t-36 -81.5q-104 1 -178 1.5t-118 0.5q-50 0 -91 -0.5t-77 -1t-68 -1t-64 -0.5q-3 0 -5 5.5t-2 10.5
q0 1 21.5 22.5t57.5 56t81.5 78.5t93 89.5t93 89t81.5 77.5t58.5 55t23.5 21h-250zM589 499l-474 -456h40l473 456h-39z" />
    <glyph glyph-name="braceleft" unicode="{" horiz-adv-x="494" 
d="M99 345q0 10 3 10q1 0 8.5 1.5t18 4.5t20.5 7t15 8q15 10 25.5 24t10.5 37q0 31 -7 61t-15.5 59.5t-15.5 58t-7 57.5q0 34 22 53t55.5 28t73 11t75.5 2q8 0 8 -15q0 -12 -8 -14q-21 -1 -47.5 -1t-49.5 -6t-38.5 -21t-15.5 -45q0 -15 10 -41.5t22.5 -58t22.5 -67t10 -68.5
q0 -38 -30 -59t-69 -21q-3 0 -3.5 -2t-0.5 -3t0.5 -3t3.5 -2q39 0 69 -21t30 -59q0 -33 -10 -68.5t-22.5 -67t-22.5 -58t-10 -41.5q0 -30 15.5 -45t38.5 -21t49.5 -6t47.5 -1q8 -2 8 -14q0 -15 -8 -15q-36 0 -75.5 1.5t-73 10.5t-55.5 28t-22 54q0 28 7 57t15.5 58.5
t15.5 59.5t7 61q0 23 -10.5 37t-25.5 24q-5 4 -15 8t-20.5 7t-18 4.5t-8.5 1.5q-3 0 -3 10zM227 726q-26 0 -39.5 -17.5t-13.5 -42.5q0 -21 7.5 -47t16 -54.5t16 -59.5t7.5 -62q0 -18 -5 -33t-17 -30q22 0 33.5 17t11.5 43q0 32 -8 63.5t-17.5 60.5t-17.5 54.5t-8 45.5
q0 18 7 34.5t27 27.5zM227 -35q-20 11 -27 27.5t-7 34.5q0 20 8 45.5t17.5 54.5t17.5 60.5t8 63.5q0 26 -11.5 43t-33.5 17q22 -28 22 -63q0 -31 -7.5 -62t-16 -59.5t-16 -54.5t-7.5 -47q0 -25 13.5 -42.5t39.5 -17.5z" />
    <glyph glyph-name="bar" unicode="|" horiz-adv-x="303" 
d="M177 -129q-3 -2 -11 -3.5t-15 -1.5q-6 0 -13.5 1t-11.5 4v967q4 3 11.5 4t13.5 1q7 0 15 -1.5t11 -3.5v-967z" />
    <glyph glyph-name="braceright" unicode="}" horiz-adv-x="494" 
d="M389 345q0 -10 -3 -10q-1 0 -8.5 -1.5t-18 -4.5t-20.5 -7t-15 -8q-15 -10 -25.5 -24t-10.5 -37q0 -31 7 -61t15.5 -59.5t15.5 -58.5t7 -57q0 -35 -22 -54t-55.5 -28t-73 -10.5t-75.5 -1.5q-8 0 -8 15q0 12 8 14q21 1 47.5 1t49.5 6t38.5 21t15.5 45q0 15 -10 41.5
t-22.5 58t-22.5 67t-10 68.5q0 38 30 59t69 21q3 0 3.5 2t0.5 3t-0.5 3t-3.5 2q-39 0 -69 21t-30 59q0 33 10 68.5t22.5 67t22.5 58t10 41.5q0 30 -15.5 45t-38.5 21t-49.5 6t-47.5 1q-8 2 -8 14q0 15 8 15q36 0 75.5 -2t73 -11t55.5 -28t22 -53q0 -29 -7 -57.5t-15.5 -58
t-15.5 -59.5t-7 -61q0 -23 10.5 -37t25.5 -24q5 -4 15 -8t20.5 -7t18 -4.5t8.5 -1.5q3 0 3 -10zM246 727q17 -11 24 -26t7 -32q0 -20 -10 -47.5t-21.5 -58t-21.5 -63.5t-10 -65q0 -19 5.5 -29.5t12.5 -16t14 -7.5t10 -2q-5 10 -12 22t-7 32q0 33 9 65.5t20.5 62.5t20.5 57
t9 49q0 18 -5 29.5t-12.5 18t-16.5 9t-16 2.5zM246 -38q7 0 16 2.5t16.5 9t12.5 18t5 29.5q0 22 -9 49t-20.5 57t-20.5 62.5t-9 65.5q0 20 7 32t12 22q-3 0 -10 -2t-14 -7.5t-12.5 -16t-5.5 -29.5q0 -32 10 -65t21.5 -63.5t21.5 -58t10 -47.5q0 -17 -7 -32t-24 -26z" />
    <glyph glyph-name="asciitilde" unicode="~" horiz-adv-x="658" 
d="M457 330q30 0 64 13.5t86 57.5q8 0 18 -6.5t10 -12.5q-8 -13 -24 -35.5t-39.5 -44t-54 -37t-68.5 -15.5t-71.5 13.5t-63.5 29.5t-57.5 29.5t-54.5 13.5q-15 0 -30.5 -2.5t-33 -10t-38.5 -21t-47 -35.5q-8 0 -18 6.5t-10 12.5q8 13 24 35.5t39.5 44t54 37t68.5 15.5
q40 0 76 -14t66.5 -30.5t56.5 -30t47 -13.5zM107 329q20 14 45.5 21.5t48.5 7.5q29 0 60.5 -13.5t63.5 -30t63 -30t60 -13.5q21 0 38 5t30.5 12.5t23 16t14.5 15.5q-15 -8 -40.5 -17.5t-65.5 -9.5q-24 0 -54 13.5t-62.5 30t-66 30.5t-63.5 14q-37 0 -62 -17.5t-33 -34.5z
" />
    <glyph glyph-name="uni00A0" unicode="&#xa0;" horiz-adv-x="285" 
 />
    <glyph glyph-name="exclamdown" unicode="&#xa1;" horiz-adv-x="503" 
d="M249 -148q-24 0 -39.5 11.5t-24.5 27t-12.5 30.5t-3.5 23q0 36 4.5 63.5t11.5 54.5t15.5 57.5t15.5 71.5t11.5 96.5t4.5 132.5q0 3 6 4t11 1t11 -1t6 -4q0 -78 4.5 -133.5t12 -96t15.5 -71t15.5 -57t12 -54t4.5 -63.5q0 -8 -3 -23t-12 -31t-25 -27.5t-41 -11.5zM312 528
q0 -26 -18 -44.5t-45 -18.5q-28 0 -46.5 18.5t-18.5 44.5q0 27 18.5 46t46.5 19q27 0 45 -19t18 -46zM216 -110q7 0 9.5 15.5t2.5 35.5q0 50 3.5 83.5t7 62t7 57.5t3.5 71h-8q-3 -40 -10.5 -77t-16 -70.5t-14.5 -64.5t-6 -59q0 -8 2 -17.5t5 -17.5t7 -13.5t8 -5.5zM250 477
q-8 5 -17 18t-9 33q0 15 6.5 28.5t16.5 25.5q-17 -2 -32.5 -18.5t-15.5 -35.5q0 -20 12.5 -34.5t38.5 -16.5z" />
    <glyph glyph-name="cent" unicode="&#xa2;" horiz-adv-x="837" 
d="M432 600q81 0 134 -15.5t83.5 -38.5t43 -50t12.5 -49q0 -16 -12 -32.5t-44 -16.5q-20 0 -37.5 10t-17.5 36q0 18 8 29t8 20q0 21 -18 34.5t-44 22t-55 12t-52 3.5h-9v-465q52 2 92.5 13.5t72 27.5t54.5 33t39 31q1 1 3 1t11.5 -8t14.5 -12q1 -1 1 -3
q-67 -62 -141.5 -88.5t-146.5 -31.5v-144q-1 -2 -9 -3t-15 -1t-15 1t-9 3v143q-66 1 -125.5 15t-104.5 43.5t-71 77t-26 115.5q0 55 25 104t69 87t103.5 63t129.5 31v139q1 2 9 3t15 1t15 -1t9 -3v-137zM171 314q0 -50 16 -88.5t44.5 -65t67.5 -41.5t85 -18v459
q-45 -7 -83.5 -26t-67.5 -50t-45.5 -73.5t-16.5 -96.5zM210 518q-26 -13 -47.5 -33.5t-37.5 -47.5t-25 -59t-9 -68q0 -66 33 -117t93 -74q-22 17 -38.5 39.5t-28 48t-17 52t-5.5 51.5q0 56 17 106.5t65 101.5zM643 489q-6 -11 -14.5 -21t-8.5 -24q0 -11 7.5 -20t29.5 -9
q2 0 3 2.5t1 3.5t-2 3q-5 6 -7 14t-2 16q0 6 0.5 12.5t0.5 11.5q0 2 -0.5 8.5t-3.5 6.5t-4 -4z" />
    <glyph glyph-name="sterling" unicode="&#xa3;" horiz-adv-x="885" 
d="M308 103q0 -59 55 -59h207q42 0 72 4.5t41 12.5q18 14 31 28.5t18 19.5q6 6 12 6q4 0 14 -5q4 -2 7 -6t3 -9q-19 -21 -34 -44t-31 -53q-39 0 -71.5 0.5t-65 0.5t-67 0.5t-76.5 0.5h-181t-191 -2q-8 0 -8 19q0 6 2 11t6 6q36 1 60 2t35 4q24 6 32 19.5t8 48.5v153h-84
q-2 1 -3 7.5t-1 13.5t1 13.5t3 7.5h84v163q0 66 27 107.5t67.5 65.5t88 32.5t88.5 8.5q47 0 86.5 -9t68.5 -26t45 -43t16 -60q0 -6 -3 -16.5t-10 -20t-18.5 -17t-28.5 -7.5q-25 0 -40 15.5t-15 37.5q0 16 10.5 26.5t10.5 18.5q0 16 -9.5 29t-25 22t-36 14t-41.5 5
q-81 0 -120 -46t-39 -137v-164h163q2 -1 3.5 -7t1.5 -13t-1.5 -13t-4.5 -8h-162v-158zM244 453q0 25 3 52.5t14 50.5q3 7 11 18t8 12q0 2 -4 2q-5 0 -12 -3.5t-11 -6.5q-19 -15 -30 -43.5t-11 -82.5v-379q0 -11 -5 -21.5t-15 -13.5l-3 -2q0 -3 5.5 -4t10.5 -1q23 1 31 16
t8 28v378z" />
    <glyph glyph-name="currency" unicode="&#xa4;" horiz-adv-x="521" 
d="M71 345q0 62 36 112l-46 46q0 2 5.5 10.5t11.5 14.5q5 5 12 10t11 7l46 -46q23 17 52 27t61 10q30 0 59 -10t52 -27l48 48q2 0 10.5 -5.5t14.5 -11.5q5 -5 10 -12t7 -11l-48 -49q18 -23 28 -52t10 -61q0 -66 -38 -113l46 -46q0 -2 -4.5 -10t-10.5 -15q-6 -6 -14 -11.5
t-10 -5.5l-48 47q-25 -17 -53 -26t-59 -9q-66 0 -113 36l-43 -43q-2 0 -10 4.5t-15 10.5q-6 6 -11.5 14t-5.5 10l44 44q-17 24 -26 52.5t-9 60.5zM137 345q0 -26 9.5 -48.5t26 -39t39 -26t48.5 -9.5t48.5 9.5t39.5 26t27 39t10 48.5t-10 48.5t-27 39.5t-39.5 27t-48.5 10
t-48.5 -10t-39 -27t-26 -39.5t-9.5 -48.5z" />
    <glyph glyph-name="yen" unicode="&#xa5;" horiz-adv-x="886" 
d="M392 243v58h-142q-2 1 -3 8.5t-1 14.5t1 14.5t3 8.5h125q-37 48 -85 109t-114 143q-23 29 -40 41.5t-41 17.5q-11 3 -31.5 5t-56.5 3q-8 2 -8 18q0 18 8 18q45 -2 94 -2h115h60t50 0.5t44.5 1t43.5 1.5q8 0 8 -18q0 -16 -8 -18q-12 -1 -31 -1.5t-36.5 -3t-30 -8.5
t-12.5 -16q0 -5 20 -32.5t49 -64.5t61 -77l56 -70q32 38 61 73q25 29 51 60t41 49q17 20 23 35.5t6 24.5t-8 16.5t-22 9.5q-11 2 -34 3t-59 2q-8 2 -8 17q0 8 2 13.5t6 5.5q22 -1 40 -1.5t37 -1t42.5 -0.5h56.5h56.5t42.5 0.5t37 1t40 1.5q4 0 6 -5t2 -13q0 -16 -8 -18
q-35 0 -55 -2t-38 -7q-20 -6 -43 -22.5t-62 -59.5q-33 -38 -55 -64t-41 -50t-40.5 -50.5t-52.5 -64.5h141q2 -1 3 -8.5t1 -14.5t-1 -14.5t-3 -8.5h-141v-58h141q2 -1 3 -8.5t1 -14.5t-1 -14.5t-3 -8.5h-141v-92q0 -33 8.5 -46t32.5 -19q11 -3 34.5 -4t59.5 -2q8 -2 8 -18
q0 -18 -8 -18q-22 1 -43 1.5t-44 1t-49.5 0.5h-59.5h-59.5t-49.5 -0.5t-44 -1t-43 -1.5q-8 0 -8 18q0 16 8 18q36 1 59.5 2t34.5 4q24 6 32.5 19t8.5 48v90h-142q-2 1 -3 8.5t-1 14.5t1 14.5t3 8.5h142zM417 74q0 -11 -5 -22t-16 -14l-3 -2q0 -3 5.5 -4t10.5 -1
q24 1 32.5 16.5t8.5 28.5v245q0 17 -5.5 24.5t-21.5 27.5l-195 251q-12 16 -26 29.5t-29 13.5q-7 0 -16 -2.5t-8 -5.5q0 -1 3 -2q6 -3 14 -11t16.5 -17t16 -18.5t12.5 -15.5q53 -69 104 -135.5t96 -122.5q6 -8 6 -14v-249z" />
    <glyph glyph-name="brokenbar" unicode="&#xa6;" horiz-adv-x="303" 
d="M177 271v-421q-3 -2 -11 -3.5t-15 -1.5q-6 0 -13.5 1t-11.5 4v421h51zM126 820q4 3 11.5 4t13.5 1q7 0 15 -1.5t11 -3.5v-424h-51v424z" />
    <glyph glyph-name="section" unicode="&#xa7;" horiz-adv-x="721" 
d="M633 191q0 -27 -11.5 -50.5t-31.5 -41.5q21 -13 33.5 -30.5t12.5 -40.5q0 -50 -26.5 -84t-68 -55t-92.5 -30t-100 -9q-57 0 -105.5 9t-83.5 26t-55 40.5t-20 52.5q0 8 3 18t10.5 18.5t19.5 14.5t31 6q23 0 42 -16.5t19 -40.5q0 -7 -2 -11.5t-4.5 -8t-5 -7.5t-2.5 -10
q0 -15 15 -26t37.5 -18.5t49 -11t51.5 -3.5q95 0 144 23.5t49 61.5q0 23 -19.5 38t-51 24.5t-72 16t-82.5 14t-82.5 18.5t-72 28.5t-51 44t-19.5 65.5q0 25 12 48t28 42q-19 14 -30 33t-11 45q0 50 25 85.5t65 58t88.5 33t96.5 10.5q57 0 105.5 -9t83.5 -26t55 -40.5
t20 -52.5q0 -8 -3 -18t-10.5 -18.5t-19.5 -14.5t-31 -6q-23 0 -42 14.5t-19 42.5q0 13 6.5 19t7.5 18q0 15 -15 26t-37.5 18.5t-49 11t-51.5 3.5q-95 0 -146 -31t-51 -76q0 -22 20 -36.5t52.5 -25t74 -18t85 -16t85 -19t74 -27t53 -40.5t20.5 -59zM158 258q0 -24 19 -40.5
t50.5 -28t72 -19t83.5 -14.5t85 -15.5t77 -20.5q14 14 14 30q0 22 -20 36.5t-53 24.5t-74.5 17t-85 15t-85.5 17.5t-75 25.5q-8 -14 -8 -28zM114 388q0 -44 56 -75t177 -51q60 -10 104.5 -19t74 -21.5t43.5 -30t14 -42.5q0 -6 -2 -16q12 14 14.5 24t3.5 21q0 24 -17.5 39.5
t-51.5 27t-82.5 20.5t-109.5 21q-57 11 -96 22.5t-62.5 26t-33.5 35t-10 49.5q0 8 1 14.5t3 16.5q-8 -7 -13 -16q-5 -8 -9 -19.5t-4 -26.5zM552 484q-4 -11 -11 -21t-7 -24q0 -15 8.5 -25t26.5 -10q9 0 9 6q0 1 -3 4q-6 7 -8 13.5t-4 16.5q-1 7 -1 15v14q0 2 -1 9t-4 7
t-5 -5zM112 -25q0 -26 17 -43t37 -28q-12 14 -16.5 28.5t-4.5 39.5t19 45q0 1 -2.5 1.5t-4.5 0.5q-22 0 -33.5 -12.5t-11.5 -31.5zM114 205q0 -19 11 -37t36.5 -34.5t67 -30t101.5 -23.5t104.5 -19t74 -21t43.5 -29.5t14 -42.5q0 -6 -2 -16q12 14 14.5 24t3.5 21
q0 24 -17.5 39.5t-51.5 27t-82.5 20.5t-109.5 21q-57 11 -93.5 23t-56.5 27t-27.5 34.5t-7.5 46.5q0 8 1 14.5t3 16.5q-8 -7 -13 -16q-5 -8 -9 -19.5t-4 -26.5z" />
    <glyph glyph-name="dieresis" unicode="&#xa8;" horiz-adv-x="320" 
d="M-25 850q0 26 17 43t43 17t44 -17t18 -43q0 -25 -18 -43.5t-44 -18.5t-43 18.5t-17 43.5zM201 850q0 26 17 43t43 17t44 -17t18 -43q0 -25 -18 -43.5t-44 -18.5t-43 18.5t-17 43.5zM37 800q-7 4 -14 17.5t-7 30.5q0 14 3.5 27t13.5 24q-18 -4 -30.5 -18t-12.5 -33
q0 -17 12 -31.5t35 -16.5zM264 800q-7 4 -14 17.5t-7 30.5q0 14 3.5 27t13.5 24q-18 -4 -30.5 -18t-12.5 -33q0 -17 12 -31.5t35 -16.5z" />
    <glyph glyph-name="copyright" unicode="&#xa9;" horiz-adv-x="833" 
d="M430 86q-43 0 -86 10t-77 32t-55 56.5t-21 83.5t22 83.5t56.5 56.5t77 32.5t83.5 10.5q60 0 94.5 -10t54.5 -22l5 17q2 6 9 6q3 0 7 -2.5t4 -4.5q3 -29 7.5 -58.5t15.5 -61.5q-5 -11 -15 -11q-7 0 -9 4q-7 28 -17 50t-28 37t-47.5 23t-74.5 8q-31 0 -60.5 -8t-52.5 -26.5
t-37 -48.5t-14 -75t14 -75t37 -48t52.5 -26t60.5 -8q46 0 75.5 7.5t48 21t28.5 33.5t18 45q1 2 5 4t6 2q6 0 9 -2t5 -7q-10 -28 -17 -57.5t-10 -55.5q0 -3 -4 -5t-7 -2q-7 0 -9 6l-5 15q-20 -11 -55.5 -20.5t-93.5 -9.5zM110 273q0 -58 20.5 -109t60 -89.5t97 -61
t130.5 -22.5q69 0 125.5 22.5t97 61t63 90t22.5 109.5q0 57 -20.5 108.5t-60.5 89.5t-97.5 60.5t-130.5 22.5q-68 0 -124.5 -22.5t-97 -61t-63 -90t-22.5 -108.5zM59 273q0 68 26 127.5t73.5 104t114 70t146.5 25.5q81 0 147.5 -25.5t113 -69.5t72 -103.5t25.5 -127.5
t-26 -128t-73.5 -104.5t-114 -70t-146.5 -25.5q-81 0 -147.5 25.5t-113 69.5t-72 104t-25.5 128zM293 407q-9 -4 -23 -15t-27.5 -29t-23 -42t-9.5 -53q0 -26 8.5 -49.5t21 -42.5t27 -31t26.5 -16q-9 9 -19.5 22.5t-19.5 31t-15.5 39t-6.5 47.5t7.5 48t17 40t20 30.5
t16.5 19.5z" />
    <glyph glyph-name="ordfeminine" unicode="&#xaa;" horiz-adv-x="510" 
d="M198 399q35 0 66 24t47 56v60q-12 4 -31.5 8t-49.5 4q-37 0 -64.5 -23t-27.5 -67q0 -35 18.5 -48.5t41.5 -13.5zM445 308q2 -1 3 -8t1 -12t-1 -11.5t-3 -7.5h-394q-2 1 -3 7.5t-1 11.5t1 12t3 8h394zM391 458q0 -28 5 -39.5t20 -14.5q8 -2 21.5 -2.5t27.5 -0.5
q3 -1 5 -6.5t2 -10.5q0 -7 -2 -12t-5 -5q-15 1 -24.5 1.5t-19 0.5h-21h-31.5h-26t-17.5 -0.5t-14.5 -1t-16 -0.5q-3 0 -4.5 5.5t-1.5 11.5q0 5 1.5 10.5t4.5 6.5q8 2 12 7t4 25q-23 -27 -58 -47.5t-80 -20.5q-24 0 -46.5 7t-39.5 20t-27 32t-10 42q0 29 15.5 51t40 37
t55 22.5t60.5 7.5q32 0 52.5 -3.5t37.5 -10.5v39q0 47 -29 64.5t-75 17.5q-10 0 -25 -0.5t-29.5 -4.5t-24.5 -11.5t-10 -21.5q0 -10 6.5 -17t6.5 -18q0 -19 -13.5 -26t-27.5 -7q-19 0 -29 13t-10 33q0 24 14 41t37.5 27t53 14.5t60.5 4.5q57 0 91 -8.5t53 -22.5t25 -32
t6 -36v-161zM330 427q0 -11 6.5 -23.5t26.5 -13.5q4 0 9 1t5 3l-3 2q-8 2 -12.5 11t-4.5 18v150q0 46 -8 69t-24 35q-3 3 -10 6t-12 3q-3 0 -3 -2q0 -1 6.5 -9.5t9.5 -13.5q9 -17 11.5 -41.5t2.5 -45.5v-149zM135 554q-8 -2 -19 -9t-21.5 -18t-18 -26t-7.5 -34
q0 -20 7.5 -35t18 -24.5t21 -15t15.5 -7.5q-15 13 -28 33t-13 49q0 17 5.5 31t12.5 25.5t14.5 19t12.5 11.5zM64 628q0 -14 8 -22t21 -8h4q1 0 2 1q-7 5 -11.5 11t-4.5 20q0 16 3.5 27.5t10.5 22.5q-13 -6 -23 -21t-10 -31zM62 279h370v15h-370v-15z" />
    <glyph glyph-name="guillemotleft" unicode="&#xab;" horiz-adv-x="560" 
d="M203 260q0 2 1.5 8t6.5 11l220 172q11 -2 18 -10t7 -18l-165 -149q-5 -5 -6.5 -8t-1.5 -6t1.5 -6t6.5 -8l165 -149q0 -10 -7 -18t-18 -10l-220 172q-5 5 -6.5 11t-1.5 8zM46 260q0 2 1.5 8t6.5 11l220 172q11 -2 18 -10t7 -18l-165 -149q-5 -5 -6.5 -8t-1.5 -6t1.5 -6
t6.5 -8l165 -149q0 -10 -7 -18t-18 -10l-220 172q-5 5 -6.5 11t-1.5 8zM84 260q0 3 2 5l161 136l-5 7l-175 -136q-5 -5 -5 -12t5 -12l175 -136l5 7l-161 136q-2 2 -2 5zM241 260q0 3 2 5l161 136l-5 7l-175 -136q-5 -5 -5 -12t5 -12l175 -136l5 7l-161 136q-2 2 -2 5z" />
    <glyph glyph-name="logicalnot" unicode="&#xac;" horiz-adv-x="458" 
d="M425 382q6 0 7 -4.5t1 -10.5v-167q-1 -2 -7.5 -3t-14.5 -1q-7 0 -15.5 1t-7.5 3v140h-364q-2 1 -3 7.5t-1 13.5t1 13.5t3 7.5h401z" />
    <glyph glyph-name="registered" unicode="&#xae;" horiz-adv-x="916" 
d="M147 264q0 -58 20.5 -109t60 -89.5t97 -61t130.5 -22.5q69 0 125.5 22.5t97 61t63 90t22.5 109.5q0 57 -20.5 108.5t-60.5 89.5t-97.5 60.5t-130.5 22.5q-68 0 -124.5 -22.5t-97 -61t-63 -90t-22.5 -108.5zM96 264q0 68 26 127.5t73.5 104t114 70t146.5 25.5
q81 0 147.5 -25.5t113 -69.5t72 -103.5t25.5 -127.5t-26 -128t-73.5 -104.5t-114 -70t-146.5 -25.5q-81 0 -147.5 25.5t-113 69.5t-72 104t-25.5 128zM372 175q0 -22 6 -29.5t14 -11.5q8 -3 21 -3t26 -1q5 0 5 -10q0 -5 -1.5 -8.5t-3.5 -3.5q-26 1 -47 1h-54h-55.5t-46.5 -1
q-2 0 -3.5 3.5t-1.5 8.5q0 10 5 10q13 1 26 1t21 3q8 4 14 11.5t6 29.5v184q0 22 -4 30t-17 12q-10 2 -26.5 2.5t-29.5 0.5q-5 2 -5 11q0 5 1.5 8.5t3.5 3.5q41 -1 77 -1.5t73 -0.5q26 0 52.5 0.5t56.5 0.5q26 0 57 -2t57.5 -9.5t44.5 -22t18 -40.5q0 -21 -10 -35.5
t-24.5 -24t-30.5 -15t-27 -7.5q34 -5 45.5 -24.5t15.5 -51.5q3 -23 11.5 -38t25.5 -15q9 0 16.5 2.5t10.5 2.5q4 0 5.5 -4.5t1.5 -9.5q0 -4 -1 -6q-18 -10 -42 -17.5t-47 -7.5q-17 0 -27 6.5t-14.5 17.5t-6 25.5t-1.5 29.5q-1 25 -7 45t-22 27q-8 3 -19.5 3.5t-27.5 0.5
h-115v-81zM491 282q44 0 68.5 18t24.5 47t-25 40.5t-76 11.5h-83q-28 0 -28 -18v-99h119zM548 281q13 1 26.5 6t25 13t18.5 19.5t7 26.5q0 25 -21.5 40.5t-50.5 15.5q5 -1 13.5 -5t16.5 -10.5t13.5 -16.5t5.5 -24q0 -26 -14.5 -39.5t-39.5 -25.5zM640 118q-20 5 -29 18
t-11 31q-1 10 -2.5 26t-6 31t-12.5 26t-22 11h-4q9 -7 14 -19t7.5 -25t3.5 -25t2 -19q2 -23 8.5 -41t29.5 -18q3 0 10 1t12 3zM318 148q0 -7 -2 -12t-11 -10q0 -2 3 -2.5t6 -0.5q14 0 19 9t5 17v231q0 8 -5 17t-19 9q-3 0 -6 -0.5t-3 -2.5q9 -5 11 -10t2 -12v-233z" />
    <glyph glyph-name="macron" unicode="&#xaf;" horiz-adv-x="833" 
d="M685 806q2 -1 3 -9t1 -15t-1 -15t-3 -9h-375q-2 1 -3 9t-1 15t1 15t3 9h375zM319 769h356v18h-356v-18z" />
    <glyph glyph-name="degree" unicode="&#xb0;" horiz-adv-x="371" 
d="M75 606q0 22 8.5 42t23 34t34 22.5t41.5 8.5t42 -8.5t34.5 -22.5t23 -34t8.5 -42q0 -23 -8.5 -42.5t-23 -33.5t-34.5 -22.5t-42 -8.5t-41.5 8.5t-34 22.5t-23 33.5t-8.5 42.5zM118 606q0 -28 18.5 -46t45.5 -18q26 0 45.5 18t19.5 46q0 26 -19.5 45.5t-45.5 19.5
q-27 0 -45.5 -19.5t-18.5 -45.5z" />
    <glyph glyph-name="plusminus" unicode="&#xb1;" horiz-adv-x="506" 
d="M229 420v178q1 2 9 3.5t15 1.5t15 -1.5t9 -3.5v-178h180q2 -1 3 -9t1 -15t-1 -15t-3 -9h-180v-179q-1 -2 -9 -3t-15 -1t-15 1t-9 3v179h-177q-2 1 -3.5 9t-1.5 15t1.5 15t3.5 9h177zM454 155q2 -1 3 -8.5t1 -14.5t-1 -14.5t-3 -8.5h-405q-2 1 -3 8.5t-1 14.5t1 14.5
t3 8.5h405z" />
    <glyph glyph-name="uni00B2" unicode="&#xb2;" horiz-adv-x="836" 
 />
    <glyph glyph-name="uni00B3" unicode="&#xb3;" horiz-adv-x="1141" 
 />
    <glyph glyph-name="acute" unicode="&#xb4;" horiz-adv-x="833" 
d="M419 779q-1 -1 -2 -1q-1 -1 -2 -1h-1q-5 0 -10 6.5t-5 11.5l1 2l2 2q42 42 79.5 82.5t82.5 75.5q17 14 40 14q15 0 24.5 -9t9.5 -23t-7.5 -26t-18.5 -20q-45 -35 -96 -63t-97 -51zM449 825q0 -2 1.5 -4t3.5 -2q23 14 46.5 30.5t42.5 31.5q22 18 42 35q2 2 6.5 5.5
t4.5 8.5q0 4 -4 8t-7 4q-5 0 -12 -6q-15 -12 -27.5 -23.5t-26.5 -24t-29.5 -27t-36.5 -32.5l-2 -2z" />
    <glyph glyph-name="mu" unicode="&#xb5;" horiz-adv-x="926" 
d="M631 113q-14 -23 -38 -46t-53.5 -42.5t-62 -31.5t-63.5 -12q-66 0 -117.5 21t-80.5 75l-4 -2q1 -27 1 -53.5v-52.5q0 -118 -6 -224q-1 -14 -7 -18.5t-32 -4.5q-7 0 -16 1t-17.5 4t-14.5 7.5t-6 11.5q4 32 7.5 76t6 88t4 83.5t1.5 62.5q0 34 -0.5 84t-0.5 133v234h103
v-315q0 -92 49 -134.5t131 -42.5q35 0 70 16t64.5 42t51 58.5t30.5 66.5v309h103v-402q0 -35 7 -48t27 -18q14 -3 33.5 -3.5t39.5 -1.5q8 -2 8 -17q0 -8 -2 -13.5t-6 -5.5q-20 1 -35.5 1.5t-31.5 0.5h-35h-44h-41t-27 -0.5t-20.5 -1t-22.5 -0.5q-4 0 -6 5.5t-2 13.5
q0 15 8 17q45 3 47 58v21zM157 488v-377q0 -57 -0.5 -96.5t-2 -76.5t-5 -79.5t-8.5 -106.5q1 -2 7.5 -2.5t8.5 -0.5h6.5t5.5 1l2 29t4.5 69.5t4.5 84.5t3 75q0 17 0.5 59t1 95t0.5 110.5t0.5 105t0.5 78.5v32h-29zM658 488v-415q0 -11 -5 -21.5t-15 -13.5l-3 -2q0 -3 5.5 -4
t10.5 -1q23 1 30 16t7 28v413h-30z" />
    <glyph glyph-name="mu" unicode="&#x3bc;" horiz-adv-x="926" 
d="M631 113q-14 -23 -38 -46t-53.5 -42.5t-62 -31.5t-63.5 -12q-66 0 -117.5 21t-80.5 75l-4 -2q1 -27 1 -53.5v-52.5q0 -118 -6 -224q-1 -14 -7 -18.5t-32 -4.5q-7 0 -16 1t-17.5 4t-14.5 7.5t-6 11.5q4 32 7.5 76t6 88t4 83.5t1.5 62.5q0 34 -0.5 84t-0.5 133v234h103
v-315q0 -92 49 -134.5t131 -42.5q35 0 70 16t64.5 42t51 58.5t30.5 66.5v309h103v-402q0 -35 7 -48t27 -18q14 -3 33.5 -3.5t39.5 -1.5q8 -2 8 -17q0 -8 -2 -13.5t-6 -5.5q-20 1 -35.5 1.5t-31.5 0.5h-35h-44h-41t-27 -0.5t-20.5 -1t-22.5 -0.5q-4 0 -6 5.5t-2 13.5
q0 15 8 17q45 3 47 58v21zM157 488v-377q0 -57 -0.5 -96.5t-2 -76.5t-5 -79.5t-8.5 -106.5q1 -2 7.5 -2.5t8.5 -0.5h6.5t5.5 1l2 29t4.5 69.5t4.5 84.5t3 75q0 17 0.5 59t1 95t0.5 110.5t0.5 105t0.5 78.5v32h-29zM658 488v-415q0 -11 -5 -21.5t-15 -13.5l-3 -2q0 -3 5.5 -4
t10.5 -1q23 1 30 16t7 28v413h-30z" />
    <glyph glyph-name="paragraph" unicode="&#xb6;" horiz-adv-x="765" 
d="M760 702q4 0 6 -5t2 -13q0 -16 -8 -18q-36 -1 -58 -2t-33 -4q-24 -6 -32.5 -19.5t-8.5 -48.5v-672q-1 -2 -9 -3t-15 -1t-15 1t-9 3v727q0 6 -4 8q-2 1 -4 1h-28q-5 0 -7 -3t-2 -6v-727q-1 -2 -8 -3t-15 -1q-7 0 -15 1t-9 3v474h-180q-60 0 -113 6.5t-93 23.5t-63 46.5
t-23 75.5t25 76t69 46.5t103 23t128 6.5q116 0 220.5 0.5t198.5 3.5zM177 423q-18 10 -35.5 22.5t-31.5 27.5t-22.5 33t-8.5 39q0 24 9.5 43.5t24 35t31.5 26t33 16.5q-23 -2 -46.5 -10.5t-43 -24t-32 -37.5t-12.5 -49t12 -48t31 -35.5t43 -24t48 -14.5z" />
    <glyph glyph-name="periodcentered" unicode="&#xb7;" horiz-adv-x="302" 
d="M80 272q0 29 20 49.5t50 20.5t51 -20.5t21 -49.5t-21 -50.5t-51 -21.5t-50 21.5t-20 50.5zM154 214q-8 5 -18.5 20t-10.5 36q0 17 7.5 31.5t18.5 28.5q-20 -2 -36.5 -20t-16.5 -39q0 -23 13.5 -39t42.5 -18z" />
    <glyph glyph-name="cedilla" unicode="&#xb8;" horiz-adv-x="837" 
d="M471 -5q-14 -21 -21.5 -34.5t-18.5 -33.5h18q22 0 49 -4t50.5 -14t39 -27.5t15.5 -44.5q0 -23 -14 -41.5t-36.5 -31t-49.5 -19t-54 -6.5q-23 0 -40.5 3.5t-29.5 8.5q-14 5 -25 13q0 4 5.5 14t10.5 11q15 -9 33.5 -15t38.5 -6q12 0 26.5 3.5t27 11t21 19.5t8.5 29t-10 29
t-25 19.5t-33.5 11t-34.5 3.5q-8 0 -21.5 -1t-25.5 -3q6 13 15 31t18 35q11 19 22 40q9 0 16 1q6 0 12 0.5t9 0.5zM543 -169q0 -21 -13 -37.5t-30 -26.5q27 5 47 22t20 43q0 16 -7 27t-17.5 18t-22 10t-19.5 4q16 -8 29 -21.5t13 -38.5z" />
    <glyph glyph-name="ordmasculine" unicode="&#xba;" horiz-adv-x="499" 
d="M251 386q22 0 43.5 7.5t38.5 25.5t27.5 47.5t10.5 73.5q0 45 -10.5 74.5t-27 47t-38.5 24.5t-44 7q-21 0 -42.5 -7t-38.5 -24.5t-28 -47t-11 -74.5q0 -44 11 -73.5t28 -47.5t38.5 -25.5t42.5 -7.5zM251 359q-36 0 -73 9.5t-66.5 31t-48 56t-18.5 84.5t18.5 84.5t48 55.5
t66.5 30.5t73 9.5q38 0 74.5 -9.5t65.5 -30.5t46.5 -55.5t17.5 -84.5t-18.5 -84.5t-47.5 -56t-65.5 -31t-72.5 -9.5zM445 308q2 -1 3 -8t1 -12t-1 -11.5t-3 -7.5h-394q-2 1 -3 7.5t-1 11.5t1 12t3 8h394zM62 279h370v15h-370v-15zM63 540q0 -23 5.5 -43t13.5 -36t17 -27.5
t16 -17.5q-12 20 -19.5 52t-7.5 72t7.5 71.5t19.5 52.5q-7 -7 -16 -18.5t-17 -27.5t-13.5 -35.5t-5.5 -42.5zM413 540q0 23 -6 42t-15 35t-20 27.5t-21 19.5q14 -21 25.5 -52.5t11.5 -71.5q0 -43 -10 -72t-26 -52q22 15 41.5 46t19.5 78z" />
    <glyph glyph-name="guillemotright" unicode="&#xbb;" horiz-adv-x="560" 
d="M355 260q0 -2 -1.5 -8t-6.5 -11l-220 -172q-11 2 -18 10t-7 18l165 149q5 5 6.5 8t1.5 6t-1.5 6t-6.5 8l-165 149q0 10 7 18t18 10l220 -172q5 -5 6.5 -11t1.5 -8zM512 260q0 -2 -1.5 -8t-6.5 -11l-220 -172q-11 2 -18 10t-7 18l165 149q5 5 6.5 8t1.5 6t-1.5 6t-6.5 8
l-165 149q0 10 7 18t18 10l220 -172q5 -5 6.5 -11t1.5 -8zM302 260q0 -3 -2 -5l-160 -139l6 -6l173 138q5 5 5 12t-5 12l-173 138l-6 -6l160 -139q2 -2 2 -5zM459 260q0 -3 -2 -5l-160 -139l6 -6l173 138q5 5 5 12t-5 12l-173 138l-6 -6l160 -139q2 -2 2 -5z" />
    <glyph glyph-name="onequarter" unicode="&#xbc;" horiz-adv-x="689" 
d="M81 -20q-4 0 -7 1q-7 3 -16 10t-12 15l538 729q6 -2 18.5 -10t15.5 -17zM152 721q0 -66 -0.5 -126t-0.5 -130q0 -10 4 -18.5t15 -11.5q19 -3 35 -3q3 -1 4 -5t1 -6q0 -4 -1.5 -7.5t-3.5 -3.5q-17 1 -40.5 1h-49.5h-47.5t-38.5 -1q-3 0 -4 3.5t-1 7.5q0 2 1 6.5t4 4.5
q9 0 16.5 0.5t17.5 2.5q11 3 15 11.5t4 18.5v197q0 5 -1.5 5.5t-3.5 0.5q-4 0 -13 -3.5t-25 -9.5q-4 2 -7 9t-3 11l119 50q4 0 4 -4zM114 679q0 3 -2 3t-7.5 -3t-8.5 -5v-213q0 -10 -2.5 -17.5t-8.5 -10.5q-4 -2 -4 -3q0 -2 4 -3t6 -1q15 1 19 13t4 23v217zM577 95v-41
q0 -10 4 -18.5t15 -11.5q19 -3 35 -3q3 -1 4 -5t1 -6q0 -4 -1.5 -7.5t-3.5 -3.5q-17 1 -40.5 1h-49.5h-47.5t-38.5 -1q-3 0 -4 3.5t-1 7.5q0 2 1 6.5t4 4.5q9 0 16.5 0.5t17.5 2.5q11 3 15 11.5t4 18.5v41h-194q-6 0 -7 2.5t-1 6.5q52 46 95 85q18 16 36.5 32.5t33.5 30
t26 23.5t15 13q6 5 16.5 14t12.5 9h32q4 0 4 -4v-186h58q5 -2 5 -11q0 -3 -1.5 -8.5t-3.5 -6.5h-58zM508 248q-49 -43 -83.5 -75t-56.5 -52h140v127zM540 269q0 3 -2 3t-7.5 -5.5l-8.5 -8.5v-208q0 -10 -2.5 -17.5t-8.5 -10.5q-4 -2 -4 -3q0 -2 4 -3t6 -1q15 1 19 13t4 23
v218z" />
    <glyph glyph-name="onehalf" unicode="&#xbd;" horiz-adv-x="697" 
d="M52 -20q-4 0 -7 1q-7 3 -16 10t-12 15l538 729q6 -2 18.5 -10t15.5 -17zM152 721q0 -66 -0.5 -126t-0.5 -130q0 -10 4 -18.5t15 -11.5q19 -3 35 -3q3 -1 4 -5t1 -6q0 -4 -1.5 -7.5t-3.5 -3.5q-17 1 -40.5 1h-49.5h-47.5t-38.5 -1q-3 0 -4 3.5t-1 7.5q0 2 1 6.5t4 4.5
q9 0 16.5 0.5t17.5 2.5q11 3 15 11.5t4 18.5v197q0 5 -1.5 5.5t-3.5 0.5q-4 0 -13 -3.5t-25 -9.5q-4 2 -7 9t-3 11l119 50q4 0 4 -4zM114 679q0 3 -2 3t-7.5 -3t-8.5 -5v-213q0 -10 -2.5 -17.5t-8.5 -10.5q-4 -2 -4 -3q0 -2 4 -3t6 -1q15 1 19 13t4 23v217zM593 54
q8 7 12 14.5t10 22.5h1q1 0 1.5 0.5t2.5 0.5q3 0 10 -2t7 -6l-3 -9l-4.5 -13.5t-5.5 -14t-4 -10.5q-9 -20 -25 -36.5t-48 -16.5q-22 0 -38.5 7t-32.5 15.5t-33 15.5t-39 7q-14 -1 -22 -10.5t-8 -20.5q0 -3 -5.5 -5.5t-8.5 -2.5q-4 0 -8.5 0.5t-6.5 3.5q-1 2 -1 9q0 25 14 43
t33.5 31t40.5 22.5t35 16.5q16 7 33 18t31 24.5t23 29t9 32.5q0 40 -24 55.5t-54 15.5q-9 0 -21 -1.5t-22.5 -6t-18.5 -12.5t-8 -20q0 -3 4.5 -10t4.5 -14q0 -14 -12.5 -21.5t-25.5 -8.5q-11 0 -18 4t-11.5 9.5t-6 11t-1.5 9.5q0 24 16.5 40t40.5 25.5t50 13t44 3.5
q36 0 62 -7t43 -19t25 -27t8 -30q0 -27 -11 -47.5t-28.5 -35.5t-40 -26.5t-44.5 -20.5q-29 -11 -46 -18.5t-31 -14.5q5 1 9 1h6q12 0 24 -4.5t24.5 -9.5t25.5 -9.5t27 -4.5t21.5 3t18.5 11zM582 222q0 -20 -14 -43t-51 -48q13 4 28 12.5t28 19.5t22 26t9 33q0 20 -14.5 41
t-53.5 28q24 -9 35 -29t11 -40zM361 233q0 -11 8.5 -18.5t20.5 -7.5h2l1 1q-6 5 -10 10t-4 17q0 14 3.5 23t9.5 19q-14 -7 -22.5 -18.5t-8.5 -25.5zM548 -2q14 0 32 9.5t23 32.5q-11 -11 -24.5 -18.5t-29.5 -7.5q-19 0 -36.5 6t-34 13.5t-32 14t-30.5 6.5q-14 0 -17.5 -7.5
t-3.5 -9.5q2 2 7 3.5t7 1.5q19 0 35.5 -7t33 -15t33.5 -15t37 -7z" />
    <glyph glyph-name="threequarters" unicode="&#xbe;" horiz-adv-x="745" 
d="M123 -20q-4 0 -7 1q-7 3 -16 10t-12 15l538 729q6 -2 18.5 -10t15.5 -17zM138 423q42 0 69 16.5t27 54.5q0 37 -27 49.5t-65 12.5q-3 0 -3 11q0 12 4 12q34 0 57 14t23 44t-20 46.5t-56 16.5q-6 0 -15.5 -1t-19 -4.5t-16.5 -9.5t-7 -16q0 -7 5 -12.5t5 -13.5
q0 -14 -11 -22.5t-26 -8.5q-17 0 -25 12.5t-8 23.5q0 20 10.5 34t28 23t40 13t46.5 4q28 0 53 -4.5t44.5 -14.5t31 -26t11.5 -38q0 -16 -7.5 -29t-18.5 -22t-23.5 -14.5t-21.5 -7.5q14 -1 29 -6.5t27.5 -14.5t20.5 -21.5t8 -28.5q0 -27 -15.5 -45t-39.5 -29t-53 -16t-55 -5
t-50 4t-42 13t-29 23t-11 34q0 12 9.5 25t28.5 14q10 0 23 -6t13 -25q0 -9 -5.5 -15t-5.5 -14q0 -9 7 -14.5t17 -9t20.5 -5t17.5 -1.5zM240 637q0 -20 -8 -29.5t-17 -18.5q16 5 31.5 15.5t15.5 33.5q0 16 -6 26.5t-14 17t-18 10t-17 4.5q8 -5 20.5 -20.5t12.5 -38.5z
M251 494q0 -17 -7.5 -34t-26.5 -31q22 9 39 24.5t17 41.5q0 16 -5.5 26t-14 16.5t-18 9.5t-16.5 4q12 -7 22 -20.5t10 -36.5zM41 649q0 -11 8.5 -18.5t20.5 -7.5h2l1 1q-6 5 -10 10t-4 17q0 14 3.5 23t9.5 19q-14 -7 -22.5 -18.5t-8.5 -25.5zM24 474q0 -14 8.5 -25.5
t22.5 -18.5q-6 10 -10 19t-4 23q0 12 4.5 18t10.5 11h-1q-1 0 -1 0.5t-1 0.5q-12 0 -20.5 -8.5t-8.5 -19.5zM646 95v-41q0 -10 4 -18.5t15 -11.5q19 -3 35 -3q3 -1 4 -5t1 -6q0 -4 -1.5 -7.5t-3.5 -3.5q-17 1 -40.5 1h-49.5h-47.5t-38.5 -1q-3 0 -4 3.5t-1 7.5q0 2 1 6.5
t4 4.5q9 0 16.5 0.5t17.5 2.5q11 3 15 11.5t4 18.5v41h-194q-6 0 -7 2.5t-1 6.5q52 46 95 85q18 16 36.5 32.5t33.5 30t26 23.5t15 13q6 5 16.5 14t12.5 9h32q4 0 4 -4v-186h58q5 -2 5 -11q0 -3 -1.5 -8.5t-3.5 -6.5h-58zM577 248q-49 -43 -83.5 -75t-56.5 -52h140v127z
M609 269q0 3 -2 3t-7.5 -5.5l-8.5 -8.5v-208q0 -10 -2.5 -17.5t-8.5 -10.5q-4 -2 -4 -3q0 -2 4 -3t6 -1q15 1 19 13t4 23v218z" />
    <glyph glyph-name="questiondown" unicode="&#xbf;" horiz-adv-x="889" 
d="M446 399q2 5 9 9.5t16 4.5q5 0 9 -1.5t5 -3.5q5 -11 8.5 -22.5t3.5 -23.5q0 -23 -10.5 -42.5t-27 -36t-38 -30t-43.5 -25.5q-31 -16 -62 -34.5t-56 -41t-40.5 -50.5t-15.5 -63q0 -86 56 -122t160 -36q35 0 67 5t56.5 14.5t39 23t14.5 29.5q0 8 -3.5 14l-7 12t-7 13
t-3.5 17q0 25 20.5 42.5t56.5 17.5q22 0 37 -8t23 -19.5t11.5 -23.5t3.5 -19q0 -34 -16 -59t-42.5 -42.5t-60.5 -28.5t-69 -17t-68 -8t-58 -2q-67 0 -126.5 11.5t-104.5 35.5t-71.5 60t-26.5 85q0 43 21 75.5t54 57t74 44t81 36.5q17 7 41 18.5t46 27t37.5 34t15.5 41.5
q0 17 -9 31zM536 516q0 -26 -18 -45t-46 -19t-47.5 19t-19.5 45q0 27 19.5 47t47.5 20t46 -20t18 -47zM627 -38q2 -5 5 -5q4 0 4.5 7.5t0.5 9.5q0 6 -0.5 13t-0.5 15q0 9 2 17.5t8 16.5q2 2 2 3t-1 4t-4 3q-24 0 -33 -10.5t-9 -22.5q0 -17 10 -28t16 -23zM278 208
q-19 -8 -48 -21.5t-56 -35t-46 -50.5t-19 -67q0 -28 11 -52.5t29.5 -44.5t42 -33.5t48.5 -19.5q-18 12 -36 29t-32 36.5t-22.5 42t-8.5 46.5q0 35 19 64t43 51t46 36t29 19zM473 464q-8 5 -17 18t-9 33q0 15 6.5 28.5t16.5 25.5q-17 -2 -32.5 -18.5t-15.5 -35.5
q0 -20 12.5 -34.5t38.5 -16.5z" />
    <glyph glyph-name="Agrave" unicode="&#xc0;" horiz-adv-x="1067" 
d="M164 133q42 72 83.5 149t83.5 154.5t84 154t85 148.5q9 13 14 13q4 0 6.5 -4t6.5 -9q35 -56 72 -117.5t73.5 -123.5t71.5 -122t66 -112t57 -95t45 -70q13 -21 29.5 -33.5t36.5 -19t45 -9t56 -3.5q8 -2 8 -18q0 -18 -8 -18q-44 1 -91 1.5t-113 0.5t-111.5 -1t-89.5 -2
q-8 0 -8 18q0 16 8 18q11 1 27.5 2t33.5 3q14 2 29.5 8.5t15.5 26.5q0 4 -10 23.5t-27 49t-39.5 68t-47.5 82.5h-345l-81 -154q-8 -16 -18 -37.5t-10 -32.5q0 -14 4.5 -22.5t24.5 -13.5q10 -2 25.5 -2.5t53.5 -0.5q8 -2 8 -17q0 -8 -2 -13.5t-6 -5.5q-22 1 -38.5 1.5
t-33.5 1t-39 0.5h-55h-54.5t-38 -0.5t-32.5 -1t-38 -1.5q-4 0 -6 5t-2 13q0 16 8 18q24 1 47 1.5t40 5.5q24 7 46.5 26.5t49.5 66.5zM473 598q-15 -28 -35 -66q-17 -33 -43 -81t-60 -111h293q-42 71 -82.5 139t-72.5 119zM508 658l-19 -33q15 -25 43 -70.5t61.5 -100.5
t69 -114t66.5 -112t54.5 -94t32.5 -60q7 -12 7 -25q0 -11 -7 -18q-2 -2 -2 -3q0 -3 4 -3q5 0 13 4q11 7 16 20t5 22q0 14 -7 26zM625 811q0 -5 -5 -11.5t-10 -6.5q-2 0 -3 1q-1 0 -2 1q-46 23 -97 51t-96 63q-11 8 -18.5 20t-7.5 26t9.5 23t24.5 9q11 0 21.5 -4t18.5 -10
q45 -35 82.5 -75.5t79.5 -82.5q0 -1 1 -2zM569 846l-2 2q-22 20 -38 35t-29.5 27t-25.5 22.5t-27 22.5q-7 6 -12 6q-3 0 -7 -4t-4 -8q0 -5 4.5 -8.5t6.5 -5.5q20 -17 42 -35q19 -15 42 -31.5t47 -30.5q2 0 3.5 2t1.5 4z" />
    <glyph glyph-name="Aacute" unicode="&#xc1;" horiz-adv-x="1067" 
d="M164 133q42 72 83.5 149t83.5 154.5t84 154t85 148.5q9 13 14 13q4 0 6.5 -4t6.5 -9q35 -56 72 -117.5t73.5 -123.5t71.5 -122t66 -112t57 -95t45 -70q13 -21 29.5 -33.5t36.5 -19t45 -9t56 -3.5q8 -2 8 -18q0 -18 -8 -18q-44 1 -91 1.5t-113 0.5t-111.5 -1t-89.5 -2
q-8 0 -8 18q0 16 8 18q11 1 27.5 2t33.5 3q14 2 29.5 8.5t15.5 26.5q0 4 -10 23.5t-27 49t-39.5 68t-47.5 82.5h-345l-81 -154q-8 -16 -18 -37.5t-10 -32.5q0 -14 4.5 -22.5t24.5 -13.5q10 -2 25.5 -2.5t53.5 -0.5q8 -2 8 -17q0 -8 -2 -13.5t-6 -5.5q-22 1 -38.5 1.5
t-33.5 1t-39 0.5h-55h-54.5t-38 -0.5t-32.5 -1t-38 -1.5q-4 0 -6 5t-2 13q0 16 8 18q24 1 47 1.5t40 5.5q24 7 46.5 26.5t49.5 66.5zM473 598q-15 -28 -35 -66q-17 -33 -43 -81t-60 -111h293q-42 71 -82.5 139t-72.5 119zM508 658l-19 -33q15 -25 43 -70.5t61.5 -100.5
t69 -114t66.5 -112t54.5 -94t32.5 -60q7 -12 7 -25q0 -11 -7 -18q-2 -2 -2 -3q0 -3 4 -3q5 0 13 4q11 7 16 20t5 22q0 14 -7 26zM415 775q-1 -1 -2 -1q-1 -1 -2 -1h-1q-5 0 -10 6.5t-5 11.5l1 2l2 2q42 42 79.5 82.5t82.5 75.5q17 14 40 14q15 0 24.5 -9t9.5 -23t-7.5 -26
t-18.5 -20q-45 -35 -96 -63t-97 -51zM445 821q0 -2 1.5 -4t3.5 -2q23 14 46.5 30.5t42.5 31.5q22 18 42 35q2 2 6.5 5.5t4.5 8.5q0 4 -4 8t-7 4q-5 0 -12 -6q-15 -12 -27.5 -23.5t-26.5 -24t-29.5 -27t-36.5 -32.5l-2 -2z" />
    <glyph glyph-name="Acircumflex" unicode="&#xc2;" horiz-adv-x="1067" 
d="M164 133q42 72 83.5 149t83.5 154.5t84 154t85 148.5q9 13 14 13q4 0 6.5 -4t6.5 -9q35 -56 72 -117.5t73.5 -123.5t71.5 -122t66 -112t57 -95t45 -70q13 -21 29.5 -33.5t36.5 -19t45 -9t56 -3.5q8 -2 8 -18q0 -18 -8 -18q-44 1 -91 1.5t-113 0.5t-111.5 -1t-89.5 -2
q-8 0 -8 18q0 16 8 18q11 1 27.5 2t33.5 3q14 2 29.5 8.5t15.5 26.5q0 4 -10 23.5t-27 49t-39.5 68t-47.5 82.5h-345l-81 -154q-8 -16 -18 -37.5t-10 -32.5q0 -14 4.5 -22.5t24.5 -13.5q10 -2 25.5 -2.5t53.5 -0.5q8 -2 8 -17q0 -8 -2 -13.5t-6 -5.5q-22 1 -38.5 1.5
t-33.5 1t-39 0.5h-55h-54.5t-38 -0.5t-32.5 -1t-38 -1.5q-4 0 -6 5t-2 13q0 16 8 18q24 1 47 1.5t40 5.5q24 7 46.5 26.5t49.5 66.5zM473 598q-15 -28 -35 -66q-17 -33 -43 -81t-60 -111h293q-42 71 -82.5 139t-72.5 119zM508 658l-19 -33q15 -25 43 -70.5t61.5 -100.5
t69 -114t66.5 -112t54.5 -94t32.5 -60q7 -12 7 -25q0 -11 -7 -18q-2 -2 -2 -3q0 -3 4 -3q5 0 13 4q11 7 16 20t5 22q0 14 -7 26zM359 778q-8 0 -18.5 8.5t-10.5 13.5l162 181q4 4 9 5t9 1q3 0 8 -1t9 -5l163 -181q0 -5 -10.5 -13.5t-18.5 -8.5h-6q-30 27 -57 53
q-23 22 -47.5 44.5t-40.5 37.5q-16 -15 -41 -37.5t-48 -44.5q-27 -26 -57 -53h-5zM592 861q1 0 3 1.5t2 3.5q-14 17 -28.5 33t-25.5 28q-13 14 -26 27q-2 2 -5.5 5t-8.5 3q-4 0 -8.5 -3.5t-7.5 -6.5q-21 -26 -56 -63t-71 -78l-2 -2q-1 -1 -1 -2t3 -4.5t5 -3.5l140 138
l80 -71q1 -2 3 -3z" />
    <glyph glyph-name="Atilde" unicode="&#xc3;" horiz-adv-x="1067" 
d="M164 133q42 72 83.5 149t83.5 154.5t84 154t85 148.5q9 13 14 13q4 0 6.5 -4t6.5 -9q35 -56 72 -117.5t73.5 -123.5t71.5 -122t66 -112t57 -95t45 -70q13 -21 29.5 -33.5t36.5 -19t45 -9t56 -3.5q8 -2 8 -18q0 -18 -8 -18q-44 1 -91 1.5t-113 0.5t-111.5 -1t-89.5 -2
q-8 0 -8 18q0 16 8 18q11 1 27.5 2t33.5 3q14 2 29.5 8.5t15.5 26.5q0 4 -10 23.5t-27 49t-39.5 68t-47.5 82.5h-345l-81 -154q-8 -16 -18 -37.5t-10 -32.5q0 -14 4.5 -22.5t24.5 -13.5q10 -2 25.5 -2.5t53.5 -0.5q8 -2 8 -17q0 -8 -2 -13.5t-6 -5.5q-22 1 -38.5 1.5
t-33.5 1t-39 0.5h-55h-54.5t-38 -0.5t-32.5 -1t-38 -1.5q-4 0 -6 5t-2 13q0 16 8 18q24 1 47 1.5t40 5.5q24 7 46.5 26.5t49.5 66.5zM473 598q-15 -28 -35 -66q-17 -33 -43 -81t-60 -111h293q-42 71 -82.5 139t-72.5 119zM508 658l-19 -33q15 -25 43 -70.5t61.5 -100.5
t69 -114t66.5 -112t54.5 -94t32.5 -60q7 -12 7 -25q0 -11 -7 -18q-2 -2 -2 -3q0 -3 4 -3q5 0 13 4q11 7 16 20t5 22q0 14 -7 26zM616 884q10 0 20.5 2.5t22.5 10t26.5 20t34.5 33.5q5 0 14 -5t9 -10q-8 -19 -21 -41.5t-31 -41.5t-40 -31.5t-48 -12.5q-28 0 -51 13t-44 28
t-40.5 28t-40.5 13q-11 0 -21 -2.5t-22 -10t-27 -20t-34 -33.5q-5 0 -14 5t-9 10q8 19 21 41.5t30.5 41.5t39.5 31.5t48 12.5t50 -13t46 -28t42.5 -28t38.5 -13zM425 909q24 0 45 -13t41.5 -28.5t43 -28.5t49.5 -13t38.5 11t18.5 23q-14 -8 -25 -12t-30 -4q-22 0 -44 13
t-44.5 29t-44.5 29t-44 13q-20 0 -31.5 -8.5t-19.5 -25.5q17 9 24.5 12t22.5 3z" />
    <glyph glyph-name="Adieresis" unicode="&#xc4;" horiz-adv-x="1067" 
d="M164 133q42 72 83.5 149t83.5 154.5t84 154t85 148.5q9 13 14 13q4 0 6.5 -4t6.5 -9q35 -56 72 -117.5t73.5 -123.5t71.5 -122t66 -112t57 -95t45 -70q13 -21 29.5 -33.5t36.5 -19t45 -9t56 -3.5q8 -2 8 -18q0 -18 -8 -18q-44 1 -91 1.5t-113 0.5t-111.5 -1t-89.5 -2
q-8 0 -8 18q0 16 8 18q11 1 27.5 2t33.5 3q14 2 29.5 8.5t15.5 26.5q0 4 -10 23.5t-27 49t-39.5 68t-47.5 82.5h-345l-81 -154q-8 -16 -18 -37.5t-10 -32.5q0 -14 4.5 -22.5t24.5 -13.5q10 -2 25.5 -2.5t53.5 -0.5q8 -2 8 -17q0 -8 -2 -13.5t-6 -5.5q-22 1 -38.5 1.5
t-33.5 1t-39 0.5h-55h-54.5t-38 -0.5t-32.5 -1t-38 -1.5q-4 0 -6 5t-2 13q0 16 8 18q24 1 47 1.5t40 5.5q24 7 46.5 26.5t49.5 66.5zM473 598q-15 -28 -35 -66q-17 -33 -43 -81t-60 -111h293q-42 71 -82.5 139t-72.5 119zM508 658l-19 -33q15 -25 43 -70.5t61.5 -100.5
t69 -114t66.5 -112t54.5 -94t32.5 -60q7 -12 7 -25q0 -11 -7 -18q-2 -2 -2 -3q0 -3 4 -3q5 0 13 4q11 7 16 20t5 22q0 14 -7 26zM335 883q0 26 17 43t43 17t44 -17t18 -43q0 -25 -18 -43.5t-44 -18.5t-43 18.5t-17 43.5zM561 883q0 26 17 43t43 17t44 -17t18 -43
q0 -25 -18 -43.5t-44 -18.5t-43 18.5t-17 43.5zM397 833q-7 4 -14 17.5t-7 30.5q0 14 3.5 27t13.5 24q-18 -4 -30.5 -18t-12.5 -33q0 -17 12 -31.5t35 -16.5zM624 833q-7 4 -14 17.5t-7 30.5q0 14 3.5 27t13.5 24q-18 -4 -30.5 -18t-12.5 -33q0 -17 12 -31.5t35 -16.5z" />
    <glyph glyph-name="Aring" unicode="&#xc5;" horiz-adv-x="1067" 
d="M164 133q42 72 83.5 149t83.5 154.5t84 154t85 148.5q9 13 14 13q4 0 6.5 -4t6.5 -9q35 -56 72 -117.5t73.5 -123.5t71.5 -122t66 -112t57 -95t45 -70q13 -21 29.5 -33.5t36.5 -19t45 -9t56 -3.5q8 -2 8 -18q0 -18 -8 -18q-44 1 -91 1.5t-113 0.5t-111.5 -1t-89.5 -2
q-8 0 -8 18q0 16 8 18q11 1 27.5 2t33.5 3q14 2 29.5 8.5t15.5 26.5q0 4 -10 23.5t-27 49t-39.5 68t-47.5 82.5h-345l-81 -154q-8 -16 -18 -37.5t-10 -32.5q0 -14 4.5 -22.5t24.5 -13.5q10 -2 25.5 -2.5t53.5 -0.5q8 -2 8 -17q0 -8 -2 -13.5t-6 -5.5q-22 1 -38.5 1.5
t-33.5 1t-39 0.5h-55h-54.5t-38 -0.5t-32.5 -1t-38 -1.5q-4 0 -6 5t-2 13q0 16 8 18q24 1 47 1.5t40 5.5q24 7 46.5 26.5t49.5 66.5zM473 598q-15 -28 -35 -66q-17 -33 -43 -81t-60 -111h293q-42 71 -82.5 139t-72.5 119zM508 658l-19 -33q15 -25 43 -70.5t61.5 -100.5
t69 -114t66.5 -112t54.5 -94t32.5 -60q7 -12 7 -25q0 -11 -7 -18q-2 -2 -2 -3q0 -3 4 -3q5 0 13 4q11 7 16 20t5 22q0 14 -7 26zM451 897q0 -20 15.5 -35t40.5 -15q24 0 41 15t17 35t-17 35.5t-41 15.5q-25 0 -40.5 -15.5t-15.5 -35.5zM406 897q0 37 27.5 63.5t73.5 26.5
t74 -26.5t28 -63.5q0 -36 -28.5 -62t-73.5 -26q-46 0 -73.5 26t-27.5 62z" />
    <glyph glyph-name="AE" unicode="&#xc6;" horiz-adv-x="1485" 
d="M1023 382q26 0 42 7.5t26 21.5q9 13 14 44t5 73q0 4 5.5 6t13.5 2q16 0 18 -8q0 -40 -1.5 -79.5t-1.5 -84.5v-20.5t0.5 -28.5t1 -40.5t1.5 -57.5q0 -4 -5.5 -6t-13.5 -2q-16 0 -18 8q0 37 -3.5 59.5t-13.5 35.5t-26 19.5t-42 6.5h-188v-235q0 -59 55 -59h203
q36 0 69.5 0.5t62.5 4.5q47 5 87.5 46t79.5 133q2 2 5.5 3t6.5 1q7 -1 15 -4t10 -9q-38 -74 -58 -127.5t-33 -93.5q-63 1 -115.5 1.5t-99 0.5h-89h-84.5h-181t-191 -2q-8 0 -8 19q0 6 2 11t6 6q36 1 60 2t35 4q24 6 32 19.5t8 48.5v188h-319q-60 -65 -100 -106.5
t-64.5 -67.5t-34.5 -41t-10 -26q0 -16 19 -19q10 -2 23.5 -2.5t41.5 -0.5q7 -2 7 -17q0 -8 -2 -13t-4 -6q-24 1 -40.5 1.5t-33.5 1t-38.5 0.5h-54.5h-53.5t-36.5 -0.5t-31 -1t-37 -1.5q-8 0 -8 18q0 7 1 12t6 6q24 1 48 1.5t43 5.5q13 3 26.5 7.5t28.5 13t34 23t43 38.5
q133 131 260 267.5t256 267.5l-7 2q-14 4 -38 5t-60 2q-8 2 -8 17q0 8 2 13.5t6 5.5q22 -1 71 -1.5t105.5 -1t110 -0.5h85.5h109q73 0 124.5 0.5t92.5 4.5q11 -35 33 -81.5t54 -98.5q-2 -6 -10.5 -11t-15.5 -5q-6 0 -8 2q-21 39 -41.5 66.5t-47 45t-61 25.5t-83.5 8h-203
q-29 0 -43.5 -13t-14.5 -33v-227h186zM715 592v14t-1 11l-275 -277h276v252zM741 74q0 -11 -5 -22t-16 -14l-3 -2q0 -3 5.5 -4t10.5 -1q24 1 32.5 16.5t8.5 28.5v550q0 13 -7.5 28.5t-30.5 16.5q-5 0 -12 -1t-7 -4q0 -1 3 -2q11 -3 16 -14t5 -22v-554z" />
    <glyph glyph-name="Ccedilla" unicode="&#xc7;" horiz-adv-x="1075" 
d="M890 45q-22 -11 -50.5 -23t-67 -22t-88 -16t-113.5 -6q-8 -13 -14.5 -24t-14.5 -27h18q22 0 49 -4t50.5 -14t39 -27.5t15.5 -44.5q0 -23 -14 -41.5t-36.5 -31t-49.5 -19t-54 -6.5q-23 0 -40.5 3.5t-29.5 8.5q-14 5 -25 13q0 4 5.5 14t10.5 11q15 -9 33.5 -15t38.5 -6
q12 0 26.5 3.5t27 11t21 19.5t8.5 29t-10 29t-25 19.5t-33.5 11t-34.5 3.5q-8 0 -21.5 -1t-25.5 -3l45 89q-84 4 -168 27t-150.5 68t-108 113.5t-41.5 162.5q0 66 21 119.5t58 95t86.5 71.5t105.5 49.5t116.5 28.5t119.5 9q64 0 114 -6.5t88 -16.5t66 -21.5t48 -21.5l15 2
l9 31q1 3 6 5t10 2t11 -2t6 -5q5 -56 21 -116.5t37 -119.5q-2 -7 -11 -10.5t-17 -3.5q-5 0 -9 2t-5 5q-16 55 -40 98.5t-66 74t-108 47t-165 16.5q-46 0 -92 -7t-88 -23.5t-78.5 -42t-63.5 -62.5t-42.5 -86t-15.5 -112q0 -94 32 -157.5t84.5 -102.5t118.5 -55.5t135 -16.5
q102 0 170.5 17t112 47.5t67.5 73.5t39 94q2 7 11 7q6 0 16.5 -4t12.5 -11q-21 -59 -37 -119.5t-21 -115.5q0 -2 -5 -4t-10 -2t-8.5 1t-4.5 3l-11 38zM93 351q0 -51 16.5 -97.5t43 -84t61 -65.5t70.5 -43q-72 57 -114 127.5t-42 162.5t42 162.5t114 127.5q-36 -15 -70.5 -43
t-61 -65.5t-43 -84t-16.5 -97.5zM654 -169q0 -21 -13 -37.5t-30 -26.5q27 5 47 22t20 43q0 16 -7 27t-17.5 18t-22 10t-19.5 4q16 -8 29 -21.5t13 -38.5z" />
    <glyph glyph-name="Egrave" unicode="&#xc8;" horiz-adv-x="971" 
d="M514 382q26 0 42 7.5t26 21.5q9 13 14 44t5 73q0 4 5.5 6t13.5 2q16 0 18 -8q0 -40 -1.5 -79.5t-1.5 -84.5v-20.5t0.5 -28.5t1 -40.5t1.5 -57.5q0 -4 -5.5 -6t-13.5 -2q-16 0 -18 8q0 37 -3.5 59.5t-13.5 35.5t-26 19.5t-42 6.5h-188v-235q0 -59 55 -59h203
q36 0 69.5 0.5t62.5 4.5q47 5 87.5 46t79.5 133q2 2 5.5 3t6.5 1q7 -1 15 -4t10 -9q-38 -74 -58 -127.5t-33 -93.5q-63 1 -115.5 1.5t-99 0.5h-89h-84.5h-181t-191 -2q-8 0 -8 19q0 6 2 11t6 6q36 1 60 2t35 4q24 6 32 19.5t8 48.5v484q0 35 -8 48t-29 19q-14 4 -38 5t-60 2
q-8 2 -8 17q0 8 2 13.5t6 5.5q22 -1 71 -1.5t105.5 -1t110 -0.5h85.5h109q73 0 124.5 0.5t92.5 4.5q11 -35 33 -81.5t54 -98.5q-2 -6 -10.5 -11t-15.5 -5q-6 0 -8 2q-21 39 -41.5 66.5t-47 45t-61 25.5t-83.5 8h-203q-29 0 -43.5 -13t-14.5 -33v-227h186zM232 74
q0 -11 -5 -22t-16 -14l-3 -2q0 -3 5.5 -4t10.5 -1q24 1 32.5 16.5t8.5 28.5v550q0 13 -7.5 28.5t-30.5 16.5q-5 0 -12 -1t-7 -4q0 -1 3 -2q11 -3 16 -14t5 -22v-554zM556 791q0 -5 -5 -11.5t-10 -6.5q-2 0 -3 1q-1 0 -2 1q-46 23 -97 51t-96 63q-11 8 -18.5 20t-7.5 26
t9.5 23t24.5 9q11 0 21.5 -4t18.5 -10q45 -35 82.5 -75.5t79.5 -82.5q0 -1 1 -2zM500 826l-2 2q-22 20 -38 35t-29.5 27t-25.5 22.5t-27 22.5q-7 6 -12 6q-3 0 -7 -4t-4 -8q0 -5 4.5 -8.5t6.5 -5.5q20 -17 42 -35q19 -15 42 -31.5t47 -30.5q2 0 3.5 2t1.5 4z" />
    <glyph glyph-name="Eacute" unicode="&#xc9;" horiz-adv-x="971" 
d="M514 382q26 0 42 7.5t26 21.5q9 13 14 44t5 73q0 4 5.5 6t13.5 2q16 0 18 -8q0 -40 -1.5 -79.5t-1.5 -84.5v-20.5t0.5 -28.5t1 -40.5t1.5 -57.5q0 -4 -5.5 -6t-13.5 -2q-16 0 -18 8q0 37 -3.5 59.5t-13.5 35.5t-26 19.5t-42 6.5h-188v-235q0 -59 55 -59h203
q36 0 69.5 0.5t62.5 4.5q47 5 87.5 46t79.5 133q2 2 5.5 3t6.5 1q7 -1 15 -4t10 -9q-38 -74 -58 -127.5t-33 -93.5q-63 1 -115.5 1.5t-99 0.5h-89h-84.5h-181t-191 -2q-8 0 -8 19q0 6 2 11t6 6q36 1 60 2t35 4q24 6 32 19.5t8 48.5v484q0 35 -8 48t-29 19q-14 4 -38 5t-60 2
q-8 2 -8 17q0 8 2 13.5t6 5.5q22 -1 71 -1.5t105.5 -1t110 -0.5h85.5h109q73 0 124.5 0.5t92.5 4.5q11 -35 33 -81.5t54 -98.5q-2 -6 -10.5 -11t-15.5 -5q-6 0 -8 2q-21 39 -41.5 66.5t-47 45t-61 25.5t-83.5 8h-203q-29 0 -43.5 -13t-14.5 -33v-227h186zM232 74
q0 -11 -5 -22t-16 -14l-3 -2q0 -3 5.5 -4t10.5 -1q24 1 32.5 16.5t8.5 28.5v550q0 13 -7.5 28.5t-30.5 16.5q-5 0 -12 -1t-7 -4q0 -1 3 -2q11 -3 16 -14t5 -22v-554zM373 778q-1 -1 -2 -1q-1 -1 -2 -1h-1q-5 0 -10 6.5t-5 11.5l1 2l2 2q42 42 79.5 82.5t82.5 75.5
q17 14 40 14q15 0 24.5 -9t9.5 -23t-7.5 -26t-18.5 -20q-45 -35 -96 -63t-97 -51zM403 824q0 -2 1.5 -4t3.5 -2q23 14 46.5 30.5t42.5 31.5q22 18 42 35q2 2 6.5 5.5t4.5 8.5q0 4 -4 8t-7 4q-5 0 -12 -6q-15 -12 -27.5 -23.5t-26.5 -24t-29.5 -27t-36.5 -32.5l-2 -2z" />
    <glyph glyph-name="Ecircumflex" unicode="&#xca;" horiz-adv-x="971" 
d="M514 382q26 0 42 7.5t26 21.5q9 13 14 44t5 73q0 4 5.5 6t13.5 2q16 0 18 -8q0 -40 -1.5 -79.5t-1.5 -84.5v-20.5t0.5 -28.5t1 -40.5t1.5 -57.5q0 -4 -5.5 -6t-13.5 -2q-16 0 -18 8q0 37 -3.5 59.5t-13.5 35.5t-26 19.5t-42 6.5h-188v-235q0 -59 55 -59h203
q36 0 69.5 0.5t62.5 4.5q47 5 87.5 46t79.5 133q2 2 5.5 3t6.5 1q7 -1 15 -4t10 -9q-38 -74 -58 -127.5t-33 -93.5q-63 1 -115.5 1.5t-99 0.5h-89h-84.5h-181t-191 -2q-8 0 -8 19q0 6 2 11t6 6q36 1 60 2t35 4q24 6 32 19.5t8 48.5v484q0 35 -8 48t-29 19q-14 4 -38 5t-60 2
q-8 2 -8 17q0 8 2 13.5t6 5.5q22 -1 71 -1.5t105.5 -1t110 -0.5h85.5h109q73 0 124.5 0.5t92.5 4.5q11 -35 33 -81.5t54 -98.5q-2 -6 -10.5 -11t-15.5 -5q-6 0 -8 2q-21 39 -41.5 66.5t-47 45t-61 25.5t-83.5 8h-203q-29 0 -43.5 -13t-14.5 -33v-227h186zM232 74
q0 -11 -5 -22t-16 -14l-3 -2q0 -3 5.5 -4t10.5 -1q24 1 32.5 16.5t8.5 28.5v550q0 13 -7.5 28.5t-30.5 16.5q-5 0 -12 -1t-7 -4q0 -1 3 -2q11 -3 16 -14t5 -22v-554zM330 778q-8 0 -18.5 8.5t-10.5 13.5l162 181q4 4 9 5t9 1q3 0 8 -1t9 -5l163 -181q0 -5 -10.5 -13.5
t-18.5 -8.5h-6q-30 27 -57 53q-23 22 -47.5 44.5t-40.5 37.5q-16 -15 -41 -37.5t-48 -44.5q-27 -26 -57 -53h-5zM563 861q1 0 3 1.5t2 3.5q-14 17 -28.5 33t-25.5 28q-13 14 -26 27q-2 2 -5.5 5t-8.5 3q-4 0 -8.5 -3.5t-7.5 -6.5q-21 -26 -56 -63t-71 -78l-2 -2q-1 -1 -1 -2
t3 -4.5t5 -3.5l140 138l80 -71q1 -2 3 -3z" />
    <glyph glyph-name="Edieresis" unicode="&#xcb;" horiz-adv-x="971" 
d="M514 382q26 0 42 7.5t26 21.5q9 13 14 44t5 73q0 4 5.5 6t13.5 2q16 0 18 -8q0 -40 -1.5 -79.5t-1.5 -84.5v-20.5t0.5 -28.5t1 -40.5t1.5 -57.5q0 -4 -5.5 -6t-13.5 -2q-16 0 -18 8q0 37 -3.5 59.5t-13.5 35.5t-26 19.5t-42 6.5h-188v-235q0 -59 55 -59h203
q36 0 69.5 0.5t62.5 4.5q47 5 87.5 46t79.5 133q2 2 5.5 3t6.5 1q7 -1 15 -4t10 -9q-38 -74 -58 -127.5t-33 -93.5q-63 1 -115.5 1.5t-99 0.5h-89h-84.5h-181t-191 -2q-8 0 -8 19q0 6 2 11t6 6q36 1 60 2t35 4q24 6 32 19.5t8 48.5v484q0 35 -8 48t-29 19q-14 4 -38 5t-60 2
q-8 2 -8 17q0 8 2 13.5t6 5.5q22 -1 71 -1.5t105.5 -1t110 -0.5h85.5h109q73 0 124.5 0.5t92.5 4.5q11 -35 33 -81.5t54 -98.5q-2 -6 -10.5 -11t-15.5 -5q-6 0 -8 2q-21 39 -41.5 66.5t-47 45t-61 25.5t-83.5 8h-203q-29 0 -43.5 -13t-14.5 -33v-227h186zM232 74
q0 -11 -5 -22t-16 -14l-3 -2q0 -3 5.5 -4t10.5 -1q24 1 32.5 16.5t8.5 28.5v550q0 13 -7.5 28.5t-30.5 16.5q-5 0 -12 -1t-7 -4q0 -1 3 -2q11 -3 16 -14t5 -22v-554zM282 884q0 26 17 43t43 17t44 -17t18 -43q0 -25 -18 -43.5t-44 -18.5t-43 18.5t-17 43.5zM508 884
q0 26 17 43t43 17t44 -17t18 -43q0 -25 -18 -43.5t-44 -18.5t-43 18.5t-17 43.5zM344 834q-7 4 -14 17.5t-7 30.5q0 14 3.5 27t13.5 24q-18 -4 -30.5 -18t-12.5 -33q0 -17 12 -31.5t35 -16.5zM571 834q-7 4 -14 17.5t-7 30.5q0 14 3.5 27t13.5 24q-18 -4 -30.5 -18
t-12.5 -33q0 -17 12 -31.5t35 -16.5z" />
    <glyph glyph-name="Igrave" unicode="&#xcc;" horiz-adv-x="534" 
d="M267 1h-59.5t-49.5 -0.5t-44 -1t-43 -1.5q-8 0 -8 18q0 16 8 18q36 1 59.5 2t34.5 4q24 6 32.5 19t8.5 48v486q0 35 -8.5 48t-32.5 19q-11 3 -34.5 4t-59.5 2q-8 2 -8 17q0 8 2 13.5t6 5.5q22 -1 43 -1.5t44 -1t49.5 -0.5h59.5h59.5t49.5 0.5t44 1t43 1.5q4 0 6 -5t2 -13
q0 -16 -8 -18q-36 -1 -59.5 -2t-34.5 -4q-24 -6 -32.5 -19t-8.5 -48v-488q0 -33 8.5 -46t32.5 -19q11 -3 34.5 -4t59.5 -2q8 -2 8 -18q0 -18 -8 -18q-22 1 -43 1.5t-44 1t-49.5 0.5h-59.5zM232 74q0 -11 -5 -22t-16 -14l-3 -2q0 -3 5.5 -4t10.5 -1q24 1 32.5 16.5t8.5 28.5
v550q0 13 -7.5 28.5t-30.5 16.5q-5 0 -12 -1t-7 -4q0 -1 3 -2q11 -3 16 -14t5 -22v-554zM400 793q0 -5 -5 -11.5t-10 -6.5q-2 0 -3 1q-1 0 -2 1q-46 23 -97 51t-96 63q-11 8 -18.5 20t-7.5 26t9.5 23t24.5 9q11 0 21.5 -4t18.5 -10q45 -35 82.5 -75.5t79.5 -82.5q0 -1 1 -2z
M344 828l-2 2q-22 20 -38 35t-29.5 27t-25.5 22.5t-27 22.5q-7 6 -12 6q-3 0 -7 -4t-4 -8q0 -5 4.5 -8.5t6.5 -5.5q20 -17 42 -35q19 -15 42 -31.5t47 -30.5q2 0 3.5 2t1.5 4z" />
    <glyph glyph-name="Iacute" unicode="&#xcd;" horiz-adv-x="534" 
d="M267 1h-59.5t-49.5 -0.5t-44 -1t-43 -1.5q-8 0 -8 18q0 16 8 18q36 1 59.5 2t34.5 4q24 6 32.5 19t8.5 48v486q0 35 -8.5 48t-32.5 19q-11 3 -34.5 4t-59.5 2q-8 2 -8 17q0 8 2 13.5t6 5.5q22 -1 43 -1.5t44 -1t49.5 -0.5h59.5h59.5t49.5 0.5t44 1t43 1.5q4 0 6 -5t2 -13
q0 -16 -8 -18q-36 -1 -59.5 -2t-34.5 -4q-24 -6 -32.5 -19t-8.5 -48v-488q0 -33 8.5 -46t32.5 -19q11 -3 34.5 -4t59.5 -2q8 -2 8 -18q0 -18 -8 -18q-22 1 -43 1.5t-44 1t-49.5 0.5h-59.5zM232 74q0 -11 -5 -22t-16 -14l-3 -2q0 -3 5.5 -4t10.5 -1q24 1 32.5 16.5t8.5 28.5
v550q0 13 -7.5 28.5t-30.5 16.5q-5 0 -12 -1t-7 -4q0 -1 3 -2q11 -3 16 -14t5 -22v-554zM174 776q-1 -1 -2 -1q-1 -1 -2 -1h-1q-5 0 -10 6.5t-5 11.5l1 2l2 2q42 42 79.5 82.5t82.5 75.5q17 14 40 14q15 0 24.5 -9t9.5 -23t-7.5 -26t-18.5 -20q-45 -35 -96 -63t-97 -51z
M204 822q0 -2 1.5 -4t3.5 -2q23 14 46.5 30.5t42.5 31.5q22 18 42 35q2 2 6.5 5.5t4.5 8.5q0 4 -4 8t-7 4q-5 0 -12 -6q-15 -12 -27.5 -23.5t-26.5 -24t-29.5 -27t-36.5 -32.5l-2 -2z" />
    <glyph glyph-name="Icircumflex" unicode="&#xce;" horiz-adv-x="534" 
d="M267 1h-59.5t-49.5 -0.5t-44 -1t-43 -1.5q-8 0 -8 18q0 16 8 18q36 1 59.5 2t34.5 4q24 6 32.5 19t8.5 48v486q0 35 -8.5 48t-32.5 19q-11 3 -34.5 4t-59.5 2q-8 2 -8 17q0 8 2 13.5t6 5.5q22 -1 43 -1.5t44 -1t49.5 -0.5h59.5h59.5t49.5 0.5t44 1t43 1.5q4 0 6 -5t2 -13
q0 -16 -8 -18q-36 -1 -59.5 -2t-34.5 -4q-24 -6 -32.5 -19t-8.5 -48v-488q0 -33 8.5 -46t32.5 -19q11 -3 34.5 -4t59.5 -2q8 -2 8 -18q0 -18 -8 -18q-22 1 -43 1.5t-44 1t-49.5 0.5h-59.5zM232 74q0 -11 -5 -22t-16 -14l-3 -2q0 -3 5.5 -4t10.5 -1q24 1 32.5 16.5t8.5 28.5
v550q0 13 -7.5 28.5t-30.5 16.5q-5 0 -12 -1t-7 -4q0 -1 3 -2q11 -3 16 -14t5 -22v-554zM120 778q-8 0 -18.5 8.5t-10.5 13.5l162 181q4 4 9 5t9 1q3 0 8 -1t9 -5l163 -181q0 -5 -10.5 -13.5t-18.5 -8.5h-6q-30 27 -57 53q-23 22 -47.5 44.5t-40.5 37.5q-16 -15 -41 -37.5
t-48 -44.5q-27 -26 -57 -53h-5zM353 861q1 0 3 1.5t2 3.5q-14 17 -28.5 33t-25.5 28q-13 14 -26 27q-2 2 -5.5 5t-8.5 3q-4 0 -8.5 -3.5t-7.5 -6.5q-21 -26 -56 -63t-71 -78l-2 -2q-1 -1 -1 -2t3 -4.5t5 -3.5l140 138l80 -71q1 -2 3 -3z" />
    <glyph glyph-name="Idieresis" unicode="&#xcf;" horiz-adv-x="534" 
d="M267 1h-59.5t-49.5 -0.5t-44 -1t-43 -1.5q-8 0 -8 18q0 16 8 18q36 1 59.5 2t34.5 4q24 6 32.5 19t8.5 48v486q0 35 -8.5 48t-32.5 19q-11 3 -34.5 4t-59.5 2q-8 2 -8 17q0 8 2 13.5t6 5.5q22 -1 43 -1.5t44 -1t49.5 -0.5h59.5h59.5t49.5 0.5t44 1t43 1.5q4 0 6 -5t2 -13
q0 -16 -8 -18q-36 -1 -59.5 -2t-34.5 -4q-24 -6 -32.5 -19t-8.5 -48v-488q0 -33 8.5 -46t32.5 -19q11 -3 34.5 -4t59.5 -2q8 -2 8 -18q0 -18 -8 -18q-22 1 -43 1.5t-44 1t-49.5 0.5h-59.5zM232 74q0 -11 -5 -22t-16 -14l-3 -2q0 -3 5.5 -4t10.5 -1q24 1 32.5 16.5t8.5 28.5
v550q0 13 -7.5 28.5t-30.5 16.5q-5 0 -12 -1t-7 -4q0 -1 3 -2q11 -3 16 -14t5 -22v-554zM102 883q0 26 17 43t43 17t44 -17t18 -43q0 -25 -18 -43.5t-44 -18.5t-43 18.5t-17 43.5zM328 883q0 26 17 43t43 17t44 -17t18 -43q0 -25 -18 -43.5t-44 -18.5t-43 18.5t-17 43.5z
M164 833q-7 4 -14 17.5t-7 30.5q0 14 3.5 27t13.5 24q-18 -4 -30.5 -18t-12.5 -33q0 -17 12 -31.5t35 -16.5zM391 833q-7 4 -14 17.5t-7 30.5q0 14 3.5 27t13.5 24q-18 -4 -30.5 -18t-12.5 -33q0 -17 12 -31.5t35 -16.5z" />
    <glyph glyph-name="Eth" unicode="&#xd0;" horiz-adv-x="1108" 
d="M590 700q99 0 182.5 -19t144.5 -60t95 -106.5t34 -159.5q0 -88 -37.5 -154.5t-101.5 -111t-147.5 -67t-174.5 -22.5h-327q-45 0 -88 -0.5t-94 -1.5q-8 0 -8 19q0 6 2 11t6 6q36 1 60 2t35 4q24 6 32 19.5t8 48.5v230h-141q-2 1 -3 8t-1 13t1 13t3 8h141v212q0 35 -8 48
t-29 19q-14 4 -38 5t-60 2q-8 2 -8 17q0 8 2 13.5t6 5.5q11 0 30.5 -0.5t43.5 -1t51.5 -0.5h56.5h332zM333 380h115q2 -1 3 -8t1 -13t-1 -13t-3 -8h-115v-234q0 -60 52 -60h189q78 0 142 17t109.5 53.5t70 95t24.5 142.5q0 90 -24.5 149t-68.5 93.5t-105 48t-134 13.5h-203
q-52 0 -52 -47v-229zM954 351q0 -200 -157 -283q95 29 144 98t49 185q0 55 -15.5 105t-41.5 89t-61 64.5t-75 31.5q36 -16 65 -44.5t49.5 -66t31.5 -83.5t11 -96zM237 74q0 -11 -5 -22t-16 -14l-3 -2q0 -3 5.5 -4t10.5 -1q24 1 32.5 16.5t8.5 28.5v550q0 13 -7.5 28.5
t-30.5 16.5q-5 0 -12 -1t-7 -4q0 -1 3 -2q11 -3 16 -14t5 -22v-554z" />
    <glyph glyph-name="Ntilde" unicode="&#xd1;" horiz-adv-x="1129" 
d="M937 -23q0 -6 -8 -6q-5 0 -15 5t-19 12q-24 20 -71.5 64t-108 101.5t-128 123.5t-132.5 128.5t-121.5 117t-94.5 90.5v-508q0 -33 8.5 -46t32.5 -19q11 -3 36.5 -4t61.5 -2q8 -2 8 -18q0 -18 -8 -18q-22 1 -40.5 1.5t-36.5 1t-38.5 0.5h-45.5h-46t-38 -0.5t-36.5 -1
t-40.5 -1.5q-8 0 -8 18q0 16 8 18q36 1 60.5 2t35.5 4q24 6 32.5 19t8.5 48v537q-5 3 -13 7.5t-14 6.5q-17 5 -43.5 6.5t-69.5 1.5q-8 2 -8 17q0 8 2 13.5t6 5.5q22 -1 35.5 -1h27.5q94 0 195 3q12 0 18 -2t8 -5q15 -21 53.5 -61t90.5 -90.5t111.5 -107t116.5 -110t105 -100
t78 -75.5v442q0 33 -8.5 46t-32.5 19q-11 3 -36.5 4t-61.5 2q-8 2 -8 18q0 18 8 18q22 -1 40.5 -1.5t36.5 -1t38 -0.5h46h45.5t38.5 0.5t36.5 1t40.5 1.5q8 0 8 -18q0 -16 -8 -18q-36 -1 -60.5 -2t-35.5 -4q-24 -6 -32.5 -19t-8.5 -48zM249 648q46 -40 98 -89t108 -103
t114 -111t114 -112t108.5 -106t98.5 -93v44l-579 561q-14 14 -24.5 20.5t-21.5 6.5q-10 0 -19.5 -1t-9.5 -4q0 -2 4 -5t9 -8zM659 878q10 0 20.5 2.5t22.5 10t26.5 20t34.5 33.5q5 0 14 -5t9 -10q-8 -19 -21 -41.5t-31 -41.5t-40 -31.5t-48 -12.5q-28 0 -51 13t-44 28
t-40.5 28t-40.5 13q-11 0 -21 -2.5t-22 -10t-27 -20t-34 -33.5q-5 0 -14 5t-9 10q8 19 21 41.5t30.5 41.5t39.5 31.5t48 12.5t50 -13t46 -28t42.5 -28t38.5 -13zM468 903q24 0 45 -13t41.5 -28.5t43 -28.5t49.5 -13t38.5 11t18.5 23q-14 -8 -25 -12t-30 -4q-22 0 -44 13
t-44.5 29t-44.5 29t-44 13q-20 0 -31.5 -8.5t-19.5 -25.5q17 9 24.5 12t22.5 3z" />
    <glyph glyph-name="Ograve" unicode="&#xd2;" horiz-adv-x="1140" 
d="M570 -22q-59 0 -119.5 9t-116.5 28.5t-105.5 49t-86.5 71t-58 95t-21 119.5t21 119.5t58 95t86.5 71t105.5 49t116.5 28.5t119.5 9t119.5 -9t116.5 -28.5t105.5 -49t86.5 -71t58 -95t21 -119.5t-21 -119.5t-58 -95t-86.5 -71t-105.5 -49t-116.5 -28.5t-119.5 -9zM570 18
q69 0 135 17t118 56t84 102.5t32 156.5t-32 156.5t-84 102.5t-118 56t-135 17t-135 -17t-118 -56t-84 -102.5t-32 -156.5t32 -156.5t84 -102.5t118 -56t135 -17zM972 351q0 -101 -42 -176.5t-115 -113.5q42 12 77.5 37t61 62t40 85t14.5 106q0 55 -15 103t-41.5 85.5
t-61.5 63.5t-75 38q72 -44 114.5 -116.5t42.5 -173.5zM93 351q0 -51 16.5 -97.5t43 -84t61 -65.5t70.5 -43q-72 57 -114 127.5t-42 162.5t42 162.5t114 127.5q-36 -15 -70.5 -43t-61 -65.5t-43 -84t-16.5 -97.5zM671 792q0 -5 -5 -11.5t-10 -6.5q-2 0 -3 1q-1 0 -2 1
q-46 23 -97 51t-96 63q-11 8 -18.5 20t-7.5 26t9.5 23t24.5 9q11 0 21.5 -4t18.5 -10q45 -35 82.5 -75.5t79.5 -82.5q0 -1 1 -2zM615 827l-2 2q-22 20 -38 35t-29.5 27t-25.5 22.5t-27 22.5q-7 6 -12 6q-3 0 -7 -4t-4 -8q0 -5 4.5 -8.5t6.5 -5.5q20 -17 42 -35
q19 -15 42 -31.5t47 -30.5q2 0 3.5 2t1.5 4z" />
    <glyph glyph-name="Oacute" unicode="&#xd3;" horiz-adv-x="1140" 
d="M570 -22q-59 0 -119.5 9t-116.5 28.5t-105.5 49t-86.5 71t-58 95t-21 119.5t21 119.5t58 95t86.5 71t105.5 49t116.5 28.5t119.5 9t119.5 -9t116.5 -28.5t105.5 -49t86.5 -71t58 -95t21 -119.5t-21 -119.5t-58 -95t-86.5 -71t-105.5 -49t-116.5 -28.5t-119.5 -9zM570 18
q69 0 135 17t118 56t84 102.5t32 156.5t-32 156.5t-84 102.5t-118 56t-135 17t-135 -17t-118 -56t-84 -102.5t-32 -156.5t32 -156.5t84 -102.5t118 -56t135 -17zM972 351q0 -101 -42 -176.5t-115 -113.5q42 12 77.5 37t61 62t40 85t14.5 106q0 55 -15 103t-41.5 85.5
t-61.5 63.5t-75 38q72 -44 114.5 -116.5t42.5 -173.5zM93 351q0 -51 16.5 -97.5t43 -84t61 -65.5t70.5 -43q-72 57 -114 127.5t-42 162.5t42 162.5t114 127.5q-36 -15 -70.5 -43t-61 -65.5t-43 -84t-16.5 -97.5zM458 776q-1 -1 -2 -1q-1 -1 -2 -1h-1q-5 0 -10 6.5t-5 11.5
l1 2l2 2q42 42 79.5 82.5t82.5 75.5q17 14 40 14q15 0 24.5 -9t9.5 -23t-7.5 -26t-18.5 -20q-45 -35 -96 -63t-97 -51zM488 822q0 -2 1.5 -4t3.5 -2q23 14 46.5 30.5t42.5 31.5q22 18 42 35q2 2 6.5 5.5t4.5 8.5q0 4 -4 8t-7 4q-5 0 -12 -6q-15 -12 -27.5 -23.5t-26.5 -24
t-29.5 -27t-36.5 -32.5l-2 -2z" />
    <glyph glyph-name="Ocircumflex" unicode="&#xd4;" horiz-adv-x="1140" 
d="M570 -22q-59 0 -119.5 9t-116.5 28.5t-105.5 49t-86.5 71t-58 95t-21 119.5t21 119.5t58 95t86.5 71t105.5 49t116.5 28.5t119.5 9t119.5 -9t116.5 -28.5t105.5 -49t86.5 -71t58 -95t21 -119.5t-21 -119.5t-58 -95t-86.5 -71t-105.5 -49t-116.5 -28.5t-119.5 -9zM570 18
q69 0 135 17t118 56t84 102.5t32 156.5t-32 156.5t-84 102.5t-118 56t-135 17t-135 -17t-118 -56t-84 -102.5t-32 -156.5t32 -156.5t84 -102.5t118 -56t135 -17zM972 351q0 -101 -42 -176.5t-115 -113.5q42 12 77.5 37t61 62t40 85t14.5 106q0 55 -15 103t-41.5 85.5
t-61.5 63.5t-75 38q72 -44 114.5 -116.5t42.5 -173.5zM93 351q0 -51 16.5 -97.5t43 -84t61 -65.5t70.5 -43q-72 57 -114 127.5t-42 162.5t42 162.5t114 127.5q-36 -15 -70.5 -43t-61 -65.5t-43 -84t-16.5 -97.5zM409 777q-8 0 -18.5 8.5t-10.5 13.5l162 181q4 4 9 5t9 1
q3 0 8 -1t9 -5l163 -181q0 -5 -10.5 -13.5t-18.5 -8.5h-6q-30 27 -57 53q-23 22 -47.5 44.5t-40.5 37.5q-16 -15 -41 -37.5t-48 -44.5q-27 -26 -57 -53h-5zM642 860q1 0 3 1.5t2 3.5q-14 17 -28.5 33t-25.5 28q-13 14 -26 27q-2 2 -5.5 5t-8.5 3q-4 0 -8.5 -3.5t-7.5 -6.5
q-21 -26 -56 -63t-71 -78l-2 -2q-1 -1 -1 -2t3 -4.5t5 -3.5l140 138l80 -71q1 -2 3 -3z" />
    <glyph glyph-name="Otilde" unicode="&#xd5;" horiz-adv-x="1140" 
d="M570 -22q-59 0 -119.5 9t-116.5 28.5t-105.5 49t-86.5 71t-58 95t-21 119.5t21 119.5t58 95t86.5 71t105.5 49t116.5 28.5t119.5 9t119.5 -9t116.5 -28.5t105.5 -49t86.5 -71t58 -95t21 -119.5t-21 -119.5t-58 -95t-86.5 -71t-105.5 -49t-116.5 -28.5t-119.5 -9zM570 18
q69 0 135 17t118 56t84 102.5t32 156.5t-32 156.5t-84 102.5t-118 56t-135 17t-135 -17t-118 -56t-84 -102.5t-32 -156.5t32 -156.5t84 -102.5t118 -56t135 -17zM972 351q0 -101 -42 -176.5t-115 -113.5q42 12 77.5 37t61 62t40 85t14.5 106q0 55 -15 103t-41.5 85.5
t-61.5 63.5t-75 38q72 -44 114.5 -116.5t42.5 -173.5zM93 351q0 -51 16.5 -97.5t43 -84t61 -65.5t70.5 -43q-72 57 -114 127.5t-42 162.5t42 162.5t114 127.5q-36 -15 -70.5 -43t-61 -65.5t-43 -84t-16.5 -97.5zM657 884q10 0 20.5 2.5t22.5 10t26.5 20t34.5 33.5q5 0 14 -5
t9 -10q-8 -19 -21 -41.5t-31 -41.5t-40 -31.5t-48 -12.5q-28 0 -51 13t-44 28t-40.5 28t-40.5 13q-11 0 -21 -2.5t-22 -10t-27 -20t-34 -33.5q-5 0 -14 5t-9 10q8 19 21 41.5t30.5 41.5t39.5 31.5t48 12.5t50 -13t46 -28t42.5 -28t38.5 -13zM466 909q24 0 45 -13t41.5 -28.5
t43 -28.5t49.5 -13t38.5 11t18.5 23q-14 -8 -25 -12t-30 -4q-22 0 -44 13t-44.5 29t-44.5 29t-44 13q-20 0 -31.5 -8.5t-19.5 -25.5q17 9 24.5 12t22.5 3z" />
    <glyph glyph-name="Odieresis" unicode="&#xd6;" horiz-adv-x="1140" 
d="M570 -22q-59 0 -119.5 9t-116.5 28.5t-105.5 49t-86.5 71t-58 95t-21 119.5t21 119.5t58 95t86.5 71t105.5 49t116.5 28.5t119.5 9t119.5 -9t116.5 -28.5t105.5 -49t86.5 -71t58 -95t21 -119.5t-21 -119.5t-58 -95t-86.5 -71t-105.5 -49t-116.5 -28.5t-119.5 -9zM570 18
q69 0 135 17t118 56t84 102.5t32 156.5t-32 156.5t-84 102.5t-118 56t-135 17t-135 -17t-118 -56t-84 -102.5t-32 -156.5t32 -156.5t84 -102.5t118 -56t135 -17zM972 351q0 -101 -42 -176.5t-115 -113.5q42 12 77.5 37t61 62t40 85t14.5 106q0 55 -15 103t-41.5 85.5
t-61.5 63.5t-75 38q72 -44 114.5 -116.5t42.5 -173.5zM93 351q0 -51 16.5 -97.5t43 -84t61 -65.5t70.5 -43q-72 57 -114 127.5t-42 162.5t42 162.5t114 127.5q-36 -15 -70.5 -43t-61 -65.5t-43 -84t-16.5 -97.5zM388 884q0 26 17 43t43 17t44 -17t18 -43q0 -25 -18 -43.5
t-44 -18.5t-43 18.5t-17 43.5zM614 884q0 26 17 43t43 17t44 -17t18 -43q0 -25 -18 -43.5t-44 -18.5t-43 18.5t-17 43.5zM450 834q-7 4 -14 17.5t-7 30.5q0 14 3.5 27t13.5 24q-18 -4 -30.5 -18t-12.5 -33q0 -17 12 -31.5t35 -16.5zM677 834q-7 4 -14 17.5t-7 30.5
q0 14 3.5 27t13.5 24q-18 -4 -30.5 -18t-12.5 -33q0 -17 12 -31.5t35 -16.5z" />
    <glyph glyph-name="multiply" unicode="&#xd7;" horiz-adv-x="452" 
d="M226 349l124 124q4 0 11 -3.5t13 -9.5q5 -5 9 -12.5t4 -10.5l-124 -124l124 -124q0 -3 -3.5 -10.5t-8.5 -12.5q-6 -6 -14.5 -9.5t-10.5 -3.5l-124 124l-122 -122q-2 0 -10.5 3.5t-13.5 8.5q-6 5 -9.5 12.5t-3.5 11.5l123 122l-125 124q0 5 3 11.5t9 12.5t14 9t12 3z" />
    <glyph glyph-name="Oslash" unicode="&#xd8;" horiz-adv-x="1114" 
d="M570 -22q-46 0 -94 6l-50 -161q-2 -1 -7 -1q-8 0 -22.5 5.5t-19.5 13.5l47 151q-71 13 -136 41t-115 72t-80 105t-30 140q0 66 21 119.5t58 95t86.5 71t105.5 49t116.5 28.5t119.5 9q20 0 41 -1.5t42 -3.5l33 104q4 0 11 -1.5t14.5 -4t14 -5.5t9.5 -7l-30 -93
q72 -13 139.5 -41t119 -72t82.5 -105.5t31 -141.5q0 -66 -21 -119.5t-58 -95t-86.5 -71t-105.5 -49t-116.5 -28.5t-119.5 -9zM570 18q69 0 135 17t118 56t84 102.5t32 156.5q0 72 -19.5 126.5t-53.5 93t-78.5 62.5t-95.5 36l-203 -644q39 -6 81 -6zM201 350q0 -71 18.5 -124
t51 -91.5t75.5 -63t92 -37.5l203 643q-18 2 -36 3.5t-35 1.5q-69 0 -135 -17t-118 -56t-84 -102.5t-32 -156.5zM972 351q0 -101 -42 -176.5t-115 -113.5q42 12 77.5 37t61 62t40 85t14.5 106q0 55 -15 103t-41.5 85.5t-61.5 63.5t-75 38q72 -44 114.5 -116.5t42.5 -173.5z
M93 351q0 -51 16.5 -97.5t43 -84t61 -65.5t70.5 -43q-72 57 -114 127.5t-42 162.5t42 162.5t114 127.5q-36 -15 -70.5 -43t-61 -65.5t-43 -84t-16.5 -97.5z" />
    <glyph glyph-name="Ugrave" unicode="&#xd9;" 
d="M878 201q0 -104 -82 -162q-48 -34 -115.5 -47.5t-144.5 -13.5q-29 0 -68 2.5t-79 10t-78 22.5t-65 41q-17 16 -28 32t-18 37t-9.5 49t-2.5 69v352q0 35 -8.5 48t-32.5 19q-11 3 -34.5 4t-59.5 2q-8 2 -8 17q0 8 2 13.5t6 5.5q22 -1 43 -1.5t44 -1t49.5 -0.5h59.5h59.5
t49.5 0.5t44 1t43 1.5q4 0 6 -5t2 -13q0 -16 -8 -18q-36 -1 -59.5 -2t-34.5 -4q-24 -6 -32.5 -19t-8.5 -48v-352q0 -68 17 -111.5t50 -68.5t80.5 -34t107.5 -9q59 0 112 13t86 36q18 13 31.5 27t21.5 32.5t12 42.5t4 56v370q0 33 -8.5 46t-32.5 19q-11 3 -36.5 4t-61.5 2
q-8 2 -8 18q0 18 8 18q22 -1 40.5 -1.5t36.5 -1t38 -0.5h46h45.5t38.5 0.5t36.5 1t40.5 1.5q8 0 8 -18q0 -16 -8 -18q-36 -1 -60.5 -2t-35.5 -4q-24 -6 -32.5 -19t-8.5 -48v-392zM247 626q0 13 -7.5 28.5t-30.5 16.5q-5 0 -12 -1t-7 -4q0 -1 3 -2q11 -3 16 -14t5 -22v-406
q0 -50 10.5 -83t25.5 -53.5t32 -31t31 -16.5q6 -3 11 -3q4 0 4 4q0 1 -3.5 4.5t-8 7.5t-8.5 7.5t-6 5.5q-14 13 -24.5 27.5t-17 33.5t-10 43.5t-3.5 58.5v399zM666 790q0 -5 -5 -11.5t-10 -6.5q-2 0 -3 1q-1 0 -2 1q-46 23 -97 51t-96 63q-11 8 -18.5 20t-7.5 26t9.5 23
t24.5 9q11 0 21.5 -4t18.5 -10q45 -35 82.5 -75.5t79.5 -82.5q0 -1 1 -2zM610 825l-2 2q-22 20 -38 35t-29.5 27t-25.5 22.5t-27 22.5q-7 6 -12 6q-3 0 -7 -4t-4 -8q0 -5 4.5 -8.5t6.5 -5.5q20 -17 42 -35q19 -15 42 -31.5t47 -30.5q2 0 3.5 2t1.5 4z" />
    <glyph glyph-name="Uacute" unicode="&#xda;" 
d="M878 201q0 -104 -82 -162q-48 -34 -115.5 -47.5t-144.5 -13.5q-29 0 -68 2.5t-79 10t-78 22.5t-65 41q-17 16 -28 32t-18 37t-9.5 49t-2.5 69v352q0 35 -8.5 48t-32.5 19q-11 3 -34.5 4t-59.5 2q-8 2 -8 17q0 8 2 13.5t6 5.5q22 -1 43 -1.5t44 -1t49.5 -0.5h59.5h59.5
t49.5 0.5t44 1t43 1.5q4 0 6 -5t2 -13q0 -16 -8 -18q-36 -1 -59.5 -2t-34.5 -4q-24 -6 -32.5 -19t-8.5 -48v-352q0 -68 17 -111.5t50 -68.5t80.5 -34t107.5 -9q59 0 112 13t86 36q18 13 31.5 27t21.5 32.5t12 42.5t4 56v370q0 33 -8.5 46t-32.5 19q-11 3 -36.5 4t-61.5 2
q-8 2 -8 18q0 18 8 18q22 -1 40.5 -1.5t36.5 -1t38 -0.5h46h45.5t38.5 0.5t36.5 1t40.5 1.5q8 0 8 -18q0 -16 -8 -18q-36 -1 -60.5 -2t-35.5 -4q-24 -6 -32.5 -19t-8.5 -48v-392zM247 626q0 13 -7.5 28.5t-30.5 16.5q-5 0 -12 -1t-7 -4q0 -1 3 -2q11 -3 16 -14t5 -22v-406
q0 -50 10.5 -83t25.5 -53.5t32 -31t31 -16.5q6 -3 11 -3q4 0 4 4q0 1 -3.5 4.5t-8 7.5t-8.5 7.5t-6 5.5q-14 13 -24.5 27.5t-17 33.5t-10 43.5t-3.5 58.5v399zM457 775q-1 -1 -2 -1q-1 -1 -2 -1h-1q-5 0 -10 6.5t-5 11.5l1 2l2 2q42 42 79.5 82.5t82.5 75.5q17 14 40 14
q15 0 24.5 -9t9.5 -23t-7.5 -26t-18.5 -20q-45 -35 -96 -63t-97 -51zM487 821q0 -2 1.5 -4t3.5 -2q23 14 46.5 30.5t42.5 31.5q22 18 42 35q2 2 6.5 5.5t4.5 8.5q0 4 -4 8t-7 4q-5 0 -12 -6q-15 -12 -27.5 -23.5t-26.5 -24t-29.5 -27t-36.5 -32.5l-2 -2z" />
    <glyph glyph-name="Ucircumflex" unicode="&#xdb;" 
d="M878 201q0 -104 -82 -162q-48 -34 -115.5 -47.5t-144.5 -13.5q-29 0 -68 2.5t-79 10t-78 22.5t-65 41q-17 16 -28 32t-18 37t-9.5 49t-2.5 69v352q0 35 -8.5 48t-32.5 19q-11 3 -34.5 4t-59.5 2q-8 2 -8 17q0 8 2 13.5t6 5.5q22 -1 43 -1.5t44 -1t49.5 -0.5h59.5h59.5
t49.5 0.5t44 1t43 1.5q4 0 6 -5t2 -13q0 -16 -8 -18q-36 -1 -59.5 -2t-34.5 -4q-24 -6 -32.5 -19t-8.5 -48v-352q0 -68 17 -111.5t50 -68.5t80.5 -34t107.5 -9q59 0 112 13t86 36q18 13 31.5 27t21.5 32.5t12 42.5t4 56v370q0 33 -8.5 46t-32.5 19q-11 3 -36.5 4t-61.5 2
q-8 2 -8 18q0 18 8 18q22 -1 40.5 -1.5t36.5 -1t38 -0.5h46h45.5t38.5 0.5t36.5 1t40.5 1.5q8 0 8 -18q0 -16 -8 -18q-36 -1 -60.5 -2t-35.5 -4q-24 -6 -32.5 -19t-8.5 -48v-392zM247 626q0 13 -7.5 28.5t-30.5 16.5q-5 0 -12 -1t-7 -4q0 -1 3 -2q11 -3 16 -14t5 -22v-406
q0 -50 10.5 -83t25.5 -53.5t32 -31t31 -16.5q6 -3 11 -3q4 0 4 4q0 1 -3.5 4.5t-8 7.5t-8.5 7.5t-6 5.5q-14 13 -24.5 27.5t-17 33.5t-10 43.5t-3.5 58.5v399zM418 778q-8 0 -18.5 8.5t-10.5 13.5l162 181q4 4 9 5t9 1q3 0 8 -1t9 -5l163 -181q0 -5 -10.5 -13.5t-18.5 -8.5
h-6q-30 27 -57 53q-23 22 -47.5 44.5t-40.5 37.5q-16 -15 -41 -37.5t-48 -44.5q-27 -26 -57 -53h-5zM651 861q1 0 3 1.5t2 3.5q-14 17 -28.5 33t-25.5 28q-13 14 -26 27q-2 2 -5.5 5t-8.5 3q-4 0 -8.5 -3.5t-7.5 -6.5q-21 -26 -56 -63t-71 -78l-2 -2q-1 -1 -1 -2t3 -4.5
t5 -3.5l140 138l80 -71q1 -2 3 -3z" />
    <glyph glyph-name="Udieresis" unicode="&#xdc;" 
d="M878 201q0 -104 -82 -162q-48 -34 -115.5 -47.5t-144.5 -13.5q-29 0 -68 2.5t-79 10t-78 22.5t-65 41q-17 16 -28 32t-18 37t-9.5 49t-2.5 69v352q0 35 -8.5 48t-32.5 19q-11 3 -34.5 4t-59.5 2q-8 2 -8 17q0 8 2 13.5t6 5.5q22 -1 43 -1.5t44 -1t49.5 -0.5h59.5h59.5
t49.5 0.5t44 1t43 1.5q4 0 6 -5t2 -13q0 -16 -8 -18q-36 -1 -59.5 -2t-34.5 -4q-24 -6 -32.5 -19t-8.5 -48v-352q0 -68 17 -111.5t50 -68.5t80.5 -34t107.5 -9q59 0 112 13t86 36q18 13 31.5 27t21.5 32.5t12 42.5t4 56v370q0 33 -8.5 46t-32.5 19q-11 3 -36.5 4t-61.5 2
q-8 2 -8 18q0 18 8 18q22 -1 40.5 -1.5t36.5 -1t38 -0.5h46h45.5t38.5 0.5t36.5 1t40.5 1.5q8 0 8 -18q0 -16 -8 -18q-36 -1 -60.5 -2t-35.5 -4q-24 -6 -32.5 -19t-8.5 -48v-392zM247 626q0 13 -7.5 28.5t-30.5 16.5q-5 0 -12 -1t-7 -4q0 -1 3 -2q11 -3 16 -14t5 -22v-406
q0 -50 10.5 -83t25.5 -53.5t32 -31t31 -16.5q6 -3 11 -3q4 0 4 4q0 1 -3.5 4.5t-8 7.5t-8.5 7.5t-6 5.5q-14 13 -24.5 27.5t-17 33.5t-10 43.5t-3.5 58.5v399zM384 886q0 26 17 43t43 17t44 -17t18 -43q0 -25 -18 -43.5t-44 -18.5t-43 18.5t-17 43.5zM610 886q0 26 17 43
t43 17t44 -17t18 -43q0 -25 -18 -43.5t-44 -18.5t-43 18.5t-17 43.5zM446 836q-7 4 -14 17.5t-7 30.5q0 14 3.5 27t13.5 24q-18 -4 -30.5 -18t-12.5 -33q0 -17 12 -31.5t35 -16.5zM673 836q-7 4 -14 17.5t-7 30.5q0 14 3.5 27t13.5 24q-18 -4 -30.5 -18t-12.5 -33
q0 -17 12 -31.5t35 -16.5z" />
    <glyph glyph-name="Yacute" unicode="&#xdd;" horiz-adv-x="858" 
d="M371 325q-38 51 -90 117t-126 157q-23 29 -40 41.5t-41 17.5q-11 3 -31.5 5t-56.5 3q-8 2 -8 18q0 18 8 18q45 -2 94 -2h115h60t50 0.5t44.5 1t43.5 1.5q8 0 8 -18q0 -16 -8 -18q-12 -1 -31 -1.5t-36.5 -3t-30 -8.5t-12.5 -16q0 -5 20 -32.5t49 -64.5t61 -77l56 -70
q32 38 61 73q25 29 51 60t41 49q17 20 23 35.5t6 24.5t-8 16.5t-22 9.5q-11 2 -34 3t-59 2q-8 2 -8 17q0 8 2 13.5t6 5.5q22 -1 40 -1.5t37 -1t42.5 -0.5h56.5h56.5t42.5 0.5t37 1t40 1.5q4 0 6 -5t2 -13q0 -16 -8 -18q-35 0 -55 -2t-38 -7q-20 -6 -43 -22.5t-62 -59.5
q-33 -38 -55 -64t-41 -50t-40.5 -50.5t-52.5 -64.5v-242q0 -33 8.5 -46t32.5 -19q11 -3 34.5 -4t59.5 -2q8 -2 8 -18q0 -18 -8 -18q-22 1 -43 1.5t-44 1t-49.5 0.5h-59.5h-59.5t-49.5 -0.5t-44 -1t-43 -1.5q-8 0 -8 18q0 16 8 18q36 1 59.5 2t34.5 4q24 6 32.5 19t8.5 48
v218zM398 74q0 -11 -5 -22t-16 -14l-3 -2q0 -3 5.5 -4t10.5 -1q24 1 32.5 16.5t8.5 28.5v245q0 17 -5.5 24.5t-21.5 27.5l-195 251q-12 16 -26 29.5t-29 13.5q-7 0 -16 -2.5t-8 -5.5q0 -1 3 -2q6 -3 14 -11t16.5 -17t16 -18.5t12.5 -15.5q53 -69 104 -135.5t96 -122.5
q6 -8 6 -14v-249zM394 775q-1 -1 -2 -1q-1 -1 -2 -1h-1q-5 0 -10 6.5t-5 11.5l1 2l2 2q42 42 79.5 82.5t82.5 75.5q17 14 40 14q15 0 24.5 -9t9.5 -23t-7.5 -26t-18.5 -20q-45 -35 -96 -63t-97 -51zM424 821q0 -2 1.5 -4t3.5 -2q23 14 46.5 30.5t42.5 31.5q22 18 42 35
q2 2 6.5 5.5t4.5 8.5q0 4 -4 8t-7 4q-5 0 -12 -6q-15 -12 -27.5 -23.5t-26.5 -24t-29.5 -27t-36.5 -32.5l-2 -2z" />
    <glyph glyph-name="Thorn" unicode="&#xde;" horiz-adv-x="981" 
d="M637 300q44 0 80 8.5t62 25.5t40.5 43.5t14.5 61.5q0 67 -47.5 101.5t-150.5 34.5h-308v-275h309zM328 105q0 -33 8.5 -46t32.5 -19q11 -3 34.5 -4t59.5 -2q8 -2 8 -18q0 -18 -8 -18q-22 1 -43 1.5t-44 1t-49.5 0.5h-59.5h-59.5t-49.5 -0.5t-44 -1t-43 -1.5q-8 0 -8 18
q0 16 8 18q36 1 59.5 2t34.5 4q24 6 32.5 19t8.5 48v486q0 35 -8.5 48t-32.5 19q-11 3 -34.5 4t-59.5 2q-8 2 -8 17q0 8 2 13.5t6 5.5q22 -1 43 -1.5t43.5 -1t49 -0.5h59.5h51.5t31.5 0.5l26 1t35 1.5q4 0 6 -5t2 -13q0 -16 -8 -18q-11 0 -24.5 -1.5t-24.5 -4.5
q-14 -4 -22.5 -13t-8.5 -28h295q78 0 139 -8.5t103.5 -29t65 -55.5t22.5 -87q0 -93 -85.5 -137.5t-250.5 -44.5h-291v-152zM232 74q0 -11 -5 -22t-16 -14l-3 -2q0 -3 5.5 -4t10.5 -1q24 1 32.5 16.5t8.5 28.5v550q0 13 -7.5 28.5t-30.5 16.5q-5 0 -12 -1t-7 -4q0 -1 3 -2
q11 -3 16 -14t5 -22v-554zM760 301q62 10 100 45t38 98q0 27 -11.5 49.5t-30 39.5t-41.5 27.5t-46 12.5q10 -4 26 -15t30.5 -28t25 -38.5t10.5 -45.5q0 -53 -23 -85.5t-78 -59.5z" />
    <glyph glyph-name="germandbls" unicode="&#xdf;" horiz-adv-x="903" 
d="M565 550q58 0 106.5 -7t84 -22t55 -39t19.5 -58q0 -27 -14 -50t-38 -41t-54.5 -30.5t-63.5 -18.5v-8q13 0 41.5 -6t57.5 -20.5t50.5 -39.5t21.5 -63q0 -47 -24.5 -77.5t-61.5 -48.5t-81 -25.5t-82 -7.5q-42 0 -77 5.5t-60.5 18t-39.5 33.5t-14 53q0 7 2 16.5t8 18.5
t16.5 15t26.5 6q22 0 35 -14.5t13 -34.5q0 -15 -9 -24.5t-9 -17.5q0 -14 8 -23.5t21.5 -14.5t31 -7t36.5 -2q27 0 52.5 7t45.5 22t32 39.5t12 59.5q0 34 -15.5 57t-40.5 36.5t-58 19t-67 5.5q-2 1 -3 5.5t-1 8.5q0 5 1 10t3 5q10 0 38 2.5t53 10.5q51 15 74 43t23 72
q0 49 -46.5 74.5t-143.5 25.5h-78q-54 0 -86 -10t-48.5 -31t-21.5 -54t-5 -79v-253q0 -27 12.5 -41.5t35.5 -16.5q8 -2 8 -17q0 -8 -2 -13.5t-6 -5.5q-13 0 -24 0.5t-24.5 1t-31 0.5h-42.5h-44.5h-34.5t-31.5 -0.5t-35.5 -1.5q-4 0 -6 5.5t-2 13.5q0 15 8 17q20 1 44.5 1.5
t38.5 3.5q20 5 27 18t7 48v244q0 57 18.5 96t51.5 62t78.5 33t100.5 10h128zM744 420q0 -35 -13 -59t-42 -44q12 4 27 12.5t27.5 21.5t21 30.5t8.5 38.5q0 27 -10 44t-24.5 27t-30.5 14.5t-28 6.5q9 -5 20 -12t21 -18.5t16.5 -26.5t6.5 -35zM736 144q0 -29 -11.5 -57.5
t-44.5 -54.5q39 14 63.5 41.5t24.5 71.5q0 27 -8.5 44.5t-22 29t-29 17.5t-29.5 9q19 -11 38 -35.5t19 -65.5zM244 345q0 25 3 52.5t14 50.5q3 7 11 18t8 12q0 2 -4 2q-5 0 -12 -3.5t-11 -6.5q-19 -15 -30 -43.5t-11 -82.5v-271q0 -11 -5 -21.5t-15 -13.5l-3 -2q0 -3 5.5 -4
t10.5 -1q23 1 31 16t8 28v270zM411 96q0 -50 49 -74q-22 29 -22 73q0 25 12 40q0 1 -3.5 2.5t-5.5 1.5q-12 0 -21 -12t-9 -31z" />
    <glyph glyph-name="agrave" unicode="&#xe0;" horiz-adv-x="866" 
d="M-10 33q32 0 59.5 2.5t44.5 9.5q14 5 28 18t30 40q28 47 61.5 107.5t68.5 123t69 121.5t63 103q9 13 14 13q4 0 6.5 -4t6.5 -9q63 -95 131 -213t143 -246q12 -20 26.5 -32.5t33 -19.5t42.5 -9.5t54 -3.5q8 -2 8 -18q0 -18 -8 -18q-22 1 -43 1.5t-43.5 0.5h-49h-59.5
h-54.5t-39 -0.5t-33.5 -1t-38 -1.5q-8 0 -8 18q0 7 2 12.5t6 5.5q17 1 26.5 1.5t26.5 2.5q15 2 25.5 7t10.5 17q0 13 -19 49.5t-61 108.5h-255q-27 -49 -42.5 -78.5t-24 -46t-11 -24t-2.5 -11.5q0 -11 9 -16t26 -7t26 -2t20 -1q8 -2 8 -18q0 -18 -8 -18q-22 1 -35 1.5
t-26.5 1t-32 0.5h-51.5h-42.5t-29.5 -0.5l-26 -1t-33 -1.5q-8 0 -8 18q0 16 8 18zM391 443q-18 -30 -36 -62q-16 -27 -35 -60.5t-37 -66.5h217zM424 489l-16 -30q15 -25 35 -58t41.5 -69.5t43.5 -74t41.5 -72t34.5 -63.5t24 -48q7 -12 7 -25q0 -11 -7 -18q-2 -2 -2 -3
q0 -3 4 -3q5 0 13 4q11 7 15 17t4 19q0 15 -6 26zM542 644q0 -5 -5 -11.5t-10 -6.5q-2 0 -3 1q-1 0 -2 1q-46 23 -97 51t-96 63q-11 8 -18.5 20t-7.5 26t9.5 23t24.5 9q11 0 21.5 -4t18.5 -10q45 -35 82.5 -75.5t79.5 -82.5q0 -1 1 -2zM486 679l-2 2q-22 20 -38 35t-29.5 27
t-25.5 22.5t-27 22.5q-7 6 -12 6q-3 0 -7 -4t-4 -8q0 -5 4.5 -8.5t6.5 -5.5q20 -17 42 -35q19 -15 42 -31.5t47 -30.5q2 0 3.5 2t1.5 4z" />
    <glyph glyph-name="aacute" unicode="&#xe1;" horiz-adv-x="866" 
d="M-10 33q32 0 59.5 2.5t44.5 9.5q14 5 28 18t30 40q28 47 61.5 107.5t68.5 123t69 121.5t63 103q9 13 14 13q4 0 6.5 -4t6.5 -9q63 -95 131 -213t143 -246q12 -20 26.5 -32.5t33 -19.5t42.5 -9.5t54 -3.5q8 -2 8 -18q0 -18 -8 -18q-22 1 -43 1.5t-43.5 0.5h-49h-59.5
h-54.5t-39 -0.5t-33.5 -1t-38 -1.5q-8 0 -8 18q0 7 2 12.5t6 5.5q17 1 26.5 1.5t26.5 2.5q15 2 25.5 7t10.5 17q0 13 -19 49.5t-61 108.5h-255q-27 -49 -42.5 -78.5t-24 -46t-11 -24t-2.5 -11.5q0 -11 9 -16t26 -7t26 -2t20 -1q8 -2 8 -18q0 -18 -8 -18q-22 1 -35 1.5
t-26.5 1t-32 0.5h-51.5h-42.5t-29.5 -0.5l-26 -1t-33 -1.5q-8 0 -8 18q0 16 8 18zM391 443q-18 -30 -36 -62q-16 -27 -35 -60.5t-37 -66.5h217zM424 489l-16 -30q15 -25 35 -58t41.5 -69.5t43.5 -74t41.5 -72t34.5 -63.5t24 -48q7 -12 7 -25q0 -11 -7 -18q-2 -2 -2 -3
q0 -3 4 -3q5 0 13 4q11 7 15 17t4 19q0 15 -6 26zM332 629q-1 -1 -2 -1q-1 -1 -2 -1h-1q-5 0 -10 6.5t-5 11.5l1 2l2 2q42 42 79.5 82.5t82.5 75.5q17 14 40 14q15 0 24.5 -9t9.5 -23t-7.5 -26t-18.5 -20q-45 -35 -96 -63t-97 -51zM362 675q0 -2 1.5 -4t3.5 -2
q23 14 46.5 30.5t42.5 31.5q22 18 42 35q2 2 6.5 5.5t4.5 8.5q0 4 -4 8t-7 4q-5 0 -12 -6q-15 -12 -27.5 -23.5t-26.5 -24t-29.5 -27t-36.5 -32.5l-2 -2z" />
    <glyph glyph-name="acircumflex" unicode="&#xe2;" horiz-adv-x="866" 
d="M-10 33q32 0 59.5 2.5t44.5 9.5q14 5 28 18t30 40q28 47 61.5 107.5t68.5 123t69 121.5t63 103q9 13 14 13q4 0 6.5 -4t6.5 -9q63 -95 131 -213t143 -246q12 -20 26.5 -32.5t33 -19.5t42.5 -9.5t54 -3.5q8 -2 8 -18q0 -18 -8 -18q-22 1 -43 1.5t-43.5 0.5h-49h-59.5
h-54.5t-39 -0.5t-33.5 -1t-38 -1.5q-8 0 -8 18q0 7 2 12.5t6 5.5q17 1 26.5 1.5t26.5 2.5q15 2 25.5 7t10.5 17q0 13 -19 49.5t-61 108.5h-255q-27 -49 -42.5 -78.5t-24 -46t-11 -24t-2.5 -11.5q0 -11 9 -16t26 -7t26 -2t20 -1q8 -2 8 -18q0 -18 -8 -18q-22 1 -35 1.5
t-26.5 1t-32 0.5h-51.5h-42.5t-29.5 -0.5l-26 -1t-33 -1.5q-8 0 -8 18q0 16 8 18zM391 443q-18 -30 -36 -62q-16 -27 -35 -60.5t-37 -66.5h217zM424 489l-16 -30q15 -25 35 -58t41.5 -69.5t43.5 -74t41.5 -72t34.5 -63.5t24 -48q7 -12 7 -25q0 -11 -7 -18q-2 -2 -2 -3
q0 -3 4 -3q5 0 13 4q11 7 15 17t4 19q0 15 -6 26zM283 624q-8 0 -18.5 8.5t-10.5 13.5l162 181q4 4 9 5t9 1q3 0 8 -1t9 -5l163 -181q0 -5 -10.5 -13.5t-18.5 -8.5h-6q-30 27 -57 53q-23 22 -47.5 44.5t-40.5 37.5q-16 -15 -41 -37.5t-48 -44.5q-27 -26 -57 -53h-5zM516 707
q1 0 3 1.5t2 3.5q-14 17 -28.5 33t-25.5 28q-13 14 -26 27q-2 2 -5.5 5t-8.5 3q-4 0 -8.5 -3.5t-7.5 -6.5q-21 -26 -56 -63t-71 -78l-2 -2q-1 -1 -1 -2t3 -4.5t5 -3.5l140 138l80 -71q1 -2 3 -3z" />
    <glyph glyph-name="atilde" unicode="&#xe3;" horiz-adv-x="866" 
d="M-10 33q32 0 59.5 2.5t44.5 9.5q14 5 28 18t30 40q28 47 61.5 107.5t68.5 123t69 121.5t63 103q9 13 14 13q4 0 6.5 -4t6.5 -9q63 -95 131 -213t143 -246q12 -20 26.5 -32.5t33 -19.5t42.5 -9.5t54 -3.5q8 -2 8 -18q0 -18 -8 -18q-22 1 -43 1.5t-43.5 0.5h-49h-59.5
h-54.5t-39 -0.5t-33.5 -1t-38 -1.5q-8 0 -8 18q0 7 2 12.5t6 5.5q17 1 26.5 1.5t26.5 2.5q15 2 25.5 7t10.5 17q0 13 -19 49.5t-61 108.5h-255q-27 -49 -42.5 -78.5t-24 -46t-11 -24t-2.5 -11.5q0 -11 9 -16t26 -7t26 -2t20 -1q8 -2 8 -18q0 -18 -8 -18q-22 1 -35 1.5
t-26.5 1t-32 0.5h-51.5h-42.5t-29.5 -0.5l-26 -1t-33 -1.5q-8 0 -8 18q0 16 8 18zM391 443q-18 -30 -36 -62q-16 -27 -35 -60.5t-37 -66.5h217zM424 489l-16 -30q15 -25 35 -58t41.5 -69.5t43.5 -74t41.5 -72t34.5 -63.5t24 -48q7 -12 7 -25q0 -11 -7 -18q-2 -2 -2 -3
q0 -3 4 -3q5 0 13 4q11 7 15 17t4 19q0 15 -6 26zM538 735q10 0 20.5 2.5t22.5 10t26.5 20t34.5 33.5q5 0 14 -5t9 -10q-8 -19 -21 -41.5t-31 -41.5t-40 -31.5t-48 -12.5q-28 0 -51 13t-44 28t-40.5 28t-40.5 13q-11 0 -21 -2.5t-22 -10t-27 -20t-34 -33.5q-5 0 -14 5t-9 10
q8 19 21 41.5t30.5 41.5t39.5 31.5t48 12.5t50 -13t46 -28t42.5 -28t38.5 -13zM347 760q24 0 45 -13t41.5 -28.5t43 -28.5t49.5 -13t38.5 11t18.5 23q-14 -8 -25 -12t-30 -4q-22 0 -44 13t-44.5 29t-44.5 29t-44 13q-20 0 -31.5 -8.5t-19.5 -25.5q17 9 24.5 12t22.5 3z" />
    <glyph glyph-name="adieresis" unicode="&#xe4;" horiz-adv-x="866" 
d="M-10 33q32 0 59.5 2.5t44.5 9.5q14 5 28 18t30 40q28 47 61.5 107.5t68.5 123t69 121.5t63 103q9 13 14 13q4 0 6.5 -4t6.5 -9q63 -95 131 -213t143 -246q12 -20 26.5 -32.5t33 -19.5t42.5 -9.5t54 -3.5q8 -2 8 -18q0 -18 -8 -18q-22 1 -43 1.5t-43.5 0.5h-49h-59.5
h-54.5t-39 -0.5t-33.5 -1t-38 -1.5q-8 0 -8 18q0 7 2 12.5t6 5.5q17 1 26.5 1.5t26.5 2.5q15 2 25.5 7t10.5 17q0 13 -19 49.5t-61 108.5h-255q-27 -49 -42.5 -78.5t-24 -46t-11 -24t-2.5 -11.5q0 -11 9 -16t26 -7t26 -2t20 -1q8 -2 8 -18q0 -18 -8 -18q-22 1 -35 1.5
t-26.5 1t-32 0.5h-51.5h-42.5t-29.5 -0.5l-26 -1t-33 -1.5q-8 0 -8 18q0 16 8 18zM391 443q-18 -30 -36 -62q-16 -27 -35 -60.5t-37 -66.5h217zM424 489l-16 -30q15 -25 35 -58t41.5 -69.5t43.5 -74t41.5 -72t34.5 -63.5t24 -48q7 -12 7 -25q0 -11 -7 -18q-2 -2 -2 -3
q0 -3 4 -3q5 0 13 4q11 7 15 17t4 19q0 15 -6 26zM250 715q0 26 17 43t43 17t44 -17t18 -43q0 -25 -18 -43.5t-44 -18.5t-43 18.5t-17 43.5zM476 715q0 26 17 43t43 17t44 -17t18 -43q0 -25 -18 -43.5t-44 -18.5t-43 18.5t-17 43.5zM312 665q-7 4 -14 17.5t-7 30.5
q0 14 3.5 27t13.5 24q-18 -4 -30.5 -18t-12.5 -33q0 -17 12 -31.5t35 -16.5zM539 665q-7 4 -14 17.5t-7 30.5q0 14 3.5 27t13.5 24q-18 -4 -30.5 -18t-12.5 -33q0 -17 12 -31.5t35 -16.5z" />
    <glyph glyph-name="aring" unicode="&#xe5;" horiz-adv-x="866" 
d="M-10 33q32 0 59.5 2.5t44.5 9.5q14 5 28 18t30 40q28 47 61.5 107.5t68.5 123t69 121.5t63 103q9 13 14 13q4 0 6.5 -4t6.5 -9q63 -95 131 -213t143 -246q12 -20 26.5 -32.5t33 -19.5t42.5 -9.5t54 -3.5q8 -2 8 -18q0 -18 -8 -18q-22 1 -43 1.5t-43.5 0.5h-49h-59.5
h-54.5t-39 -0.5t-33.5 -1t-38 -1.5q-8 0 -8 18q0 7 2 12.5t6 5.5q17 1 26.5 1.5t26.5 2.5q15 2 25.5 7t10.5 17q0 13 -19 49.5t-61 108.5h-255q-27 -49 -42.5 -78.5t-24 -46t-11 -24t-2.5 -11.5q0 -11 9 -16t26 -7t26 -2t20 -1q8 -2 8 -18q0 -18 -8 -18q-22 1 -35 1.5
t-26.5 1t-32 0.5h-51.5h-42.5t-29.5 -0.5l-26 -1t-33 -1.5q-8 0 -8 18q0 16 8 18zM391 443q-18 -30 -36 -62q-16 -27 -35 -60.5t-37 -66.5h217zM424 489l-16 -30q15 -25 35 -58t41.5 -69.5t43.5 -74t41.5 -72t34.5 -63.5t24 -48q7 -12 7 -25q0 -11 -7 -18q-2 -2 -2 -3
q0 -3 4 -3q5 0 13 4q11 7 15 17t4 19q0 15 -6 26zM369 738q0 -20 15.5 -35t40.5 -15q24 0 41 15t17 35t-17 35.5t-41 15.5q-25 0 -40.5 -15.5t-15.5 -35.5zM324 738q0 37 27.5 63.5t73.5 26.5t74 -26.5t28 -63.5q0 -36 -28.5 -62t-73.5 -26q-46 0 -73.5 26t-27.5 62z" />
    <glyph glyph-name="ae" unicode="&#xe6;" horiz-adv-x="1218" 
d="M755 502q-23 0 -38.5 -1t-25.5 -6.5t-14.5 -16.5t-4.5 -30v-160h134q26 0 44 4.5t28 15.5q9 10 12.5 30t3.5 53q0 3 5.5 4.5t13.5 1.5q16 0 18 -6q0 -16 -0.5 -29.5l-1 -27t-1 -28t-0.5 -32.5q0 -14 0.5 -38.5t2.5 -77.5q0 -3 -5.5 -5t-13.5 -2q-16 0 -18 7q0 29 -3.5 48
t-13.5 30q-10 10 -26.5 13t-42.5 3h-136v-160q0 -20 4.5 -30.5t14.5 -16t25.5 -6.5t38.5 -1h158q29 0 50.5 0.5t39.5 3.5q38 6 71 39t68 102q1 3 12 3q6 0 14.5 -3.5t10.5 -8.5q-32 -54 -55 -94.5t-36 -81.5q-36 0 -74.5 0.5t-88.5 0.5t-117.5 0.5t-161.5 0.5h-109t-96 -2
q-4 0 -6 5.5t-2 13.5q0 15 8 17q20 1 46.5 1t42.5 4q20 5 27 18t7 48v114h-256q-45 -51 -73 -80.5t-44.5 -45.5t-22.5 -24t-6 -16t7 -11.5t21 -5.5q16 -2 26 -2t21 -1q8 -2 8 -18q0 -18 -8 -18q-22 1 -35 1.5t-26.5 1t-32 0.5h-51.5h-42.5t-29.5 -0.5l-26 -1t-33 -1.5
q-8 0 -8 18q0 16 8 18q32 0 59 2.5t47 9.5q16 5 35 17.5t44 40.5q83 85 153 158q30 31 60.5 63t56.5 60t46.5 50t31.5 34q5 5 8 9.5t3 6.5q0 17 -31 20q-16 2 -34 1.5t-29 0.5q-4 0 -6 5.5t-2 12.5q0 18 8 18q22 -1 36 -1.5t30 -0.5t37.5 -0.5t58.5 -0.5h56t54 0.5t48 0.5
h37h89.5t71 0.5t57 1t46.5 2.5q6 -18 12.5 -36t14.5 -37.5t20.5 -41.5t30.5 -49q-2 -6 -10.5 -11t-15.5 -6q-6 0 -8 2q-28 46 -48 73.5t-39.5 41.5t-42 18t-56.5 4h-135zM338 254h226v181q0 30 -6 45l-3 -2zM588 73q0 -11 -5 -21.5t-15 -13.5l-3 -2q0 -3 5.5 -4t10.5 -1
q23 1 31 16t8 28v387q0 13 -7 28t-30 16q-5 0 -11.5 -1t-6.5 -4q0 -1 3 -2q10 -3 15 -13.5t5 -21.5v-391z" />
    <glyph glyph-name="ccedilla" unicode="&#xe7;" horiz-adv-x="856" 
d="M470 18q63 0 111.5 8t85 29t62 56.5t42.5 90.5q3 4 11 4q7 0 14.5 -4.5t10.5 -9.5q-26 -59 -31.5 -108t-7.5 -90q0 -4 -3.5 -6t-8.5 -3q-5 0 -9.5 3t-5.5 7l-10 34l-12 2q-21 -11 -43 -19.5t-50 -15t-63 -10t-82 -4.5q-9 -14 -16 -26t-15 -29h18q22 0 49 -4t50.5 -14
t39 -27.5t15.5 -44.5q0 -23 -14 -41.5t-36.5 -31t-49.5 -19t-54 -6.5q-23 0 -40.5 3.5t-29.5 8.5q-14 5 -25 13q0 4 5.5 14t10.5 11q15 -9 33.5 -15t38.5 -6q12 0 26.5 3.5t27 11t21 19.5t8.5 29t-10 29t-25 19.5t-33.5 11t-34.5 3.5q-8 0 -21.5 -1t-25.5 -3q4 9 10.5 21.5
t13 25.5l12.5 25t11 20q-74 2 -144.5 18.5t-125 51t-88 88t-33.5 129.5q0 78 37 133t95.5 89t131.5 49.5t145 15.5q52 0 91 -3.5t69 -10t53.5 -15.5t45.5 -20l12 2l10 34q1 4 5.5 7t9.5 3q5 -1 8.5 -3t3.5 -6q2 -41 7.5 -90t31.5 -108q-3 -5 -10.5 -9.5t-14.5 -4.5
q-8 0 -11 4q-17 55 -42.5 90.5t-62 56.5t-85 29t-111.5 8q-56 0 -110.5 -12.5t-98 -41.5t-70 -77t-26.5 -120q0 -71 26.5 -119t70 -77t98.5 -42t111 -13zM75 271q0 -48 17.5 -88t44.5 -71t59.5 -52.5t63.5 -31.5q-69 48 -110 106.5t-41 136.5t39 134t100 97
q-29 -7 -60 -28.5t-56 -52.5t-41 -69.5t-16 -80.5zM562 -169q0 -21 -13 -37.5t-30 -26.5q27 5 47 22t20 43q0 16 -7 27t-17.5 18t-22 10t-19.5 4q16 -8 29 -21.5t13 -38.5z" />
    <glyph glyph-name="egrave" unicode="&#xe8;" horiz-adv-x="839" 
d="M385 502q-23 0 -38.5 -1t-25.5 -6.5t-14.5 -16.5t-4.5 -30v-160h134q26 0 44 4.5t28 15.5q9 10 12.5 30t3.5 53q0 3 5.5 4.5t13.5 1.5q16 0 18 -6q0 -16 -0.5 -29.5l-1 -27t-1 -28t-0.5 -32.5q0 -14 0.5 -38.5t2.5 -77.5q0 -3 -5.5 -5t-13.5 -2q-16 0 -18 7q0 29 -3.5 48
t-13.5 30q-10 10 -26.5 13t-42.5 3h-136v-160q0 -20 4.5 -30.5t14.5 -16t25.5 -6.5t38.5 -1h158q29 0 50.5 0.5t39.5 3.5q38 6 71 39t68 102q1 3 12 3q6 0 14.5 -3.5t10.5 -8.5q-32 -54 -55 -94.5t-36 -81.5q-36 0 -74.5 0.5t-88.5 0.5t-117.5 0.5t-161.5 0.5h-109t-96 -2
q-4 0 -6 5.5t-2 13.5q0 15 8 17q20 1 46.5 1t42.5 4q20 5 27 18t7 48v330q0 35 -7 48t-27 18q-16 4 -42.5 4t-46.5 1q-8 2 -8 17q0 8 2 13.5t6 5.5q20 -1 63.5 -1.5t93.5 -0.5h97h73h89.5t71 0.5t57 1t46.5 2.5q6 -18 12.5 -36t14.5 -37.5t20.5 -41.5t30.5 -49
q-2 -6 -10.5 -11t-15.5 -6q-6 0 -8 2q-28 46 -48 73.5t-39.5 41.5t-42 18t-56.5 4h-135zM218 73q0 -11 -5 -21.5t-15 -13.5l-3 -2q0 -3 5.5 -4t10.5 -1q23 1 31 16t8 28v387q0 13 -7 28t-30 16q-5 0 -11.5 -1t-6.5 -4q0 -1 3 -2q10 -3 15 -13.5t5 -21.5v-391zM524 645
q0 -5 -5 -11.5t-10 -6.5q-2 0 -3 1q-1 0 -2 1q-46 23 -97 51t-96 63q-11 8 -18.5 20t-7.5 26t9.5 23t24.5 9q11 0 21.5 -4t18.5 -10q45 -35 82.5 -75.5t79.5 -82.5q0 -1 1 -2zM468 680l-2 2q-22 20 -38 35t-29.5 27t-25.5 22.5t-27 22.5q-7 6 -12 6q-3 0 -7 -4t-4 -8
q0 -5 4.5 -8.5t6.5 -5.5q20 -17 42 -35q19 -15 42 -31.5t47 -30.5q2 0 3.5 2t1.5 4z" />
    <glyph glyph-name="eacute" unicode="&#xe9;" horiz-adv-x="839" 
d="M385 502q-23 0 -38.5 -1t-25.5 -6.5t-14.5 -16.5t-4.5 -30v-160h134q26 0 44 4.5t28 15.5q9 10 12.5 30t3.5 53q0 3 5.5 4.5t13.5 1.5q16 0 18 -6q0 -16 -0.5 -29.5l-1 -27t-1 -28t-0.5 -32.5q0 -14 0.5 -38.5t2.5 -77.5q0 -3 -5.5 -5t-13.5 -2q-16 0 -18 7q0 29 -3.5 48
t-13.5 30q-10 10 -26.5 13t-42.5 3h-136v-160q0 -20 4.5 -30.5t14.5 -16t25.5 -6.5t38.5 -1h158q29 0 50.5 0.5t39.5 3.5q38 6 71 39t68 102q1 3 12 3q6 0 14.5 -3.5t10.5 -8.5q-32 -54 -55 -94.5t-36 -81.5q-36 0 -74.5 0.5t-88.5 0.5t-117.5 0.5t-161.5 0.5h-109t-96 -2
q-4 0 -6 5.5t-2 13.5q0 15 8 17q20 1 46.5 1t42.5 4q20 5 27 18t7 48v330q0 35 -7 48t-27 18q-16 4 -42.5 4t-46.5 1q-8 2 -8 17q0 8 2 13.5t6 5.5q20 -1 63.5 -1.5t93.5 -0.5h97h73h89.5t71 0.5t57 1t46.5 2.5q6 -18 12.5 -36t14.5 -37.5t20.5 -41.5t30.5 -49
q-2 -6 -10.5 -11t-15.5 -6q-6 0 -8 2q-28 46 -48 73.5t-39.5 41.5t-42 18t-56.5 4h-135zM218 73q0 -11 -5 -21.5t-15 -13.5l-3 -2q0 -3 5.5 -4t10.5 -1q23 1 31 16t8 28v387q0 13 -7 28t-30 16q-5 0 -11.5 -1t-6.5 -4q0 -1 3 -2q10 -3 15 -13.5t5 -21.5v-391zM329 629
q-1 -1 -2 -1q-1 -1 -2 -1h-1q-5 0 -10 6.5t-5 11.5l1 2l2 2q42 42 79.5 82.5t82.5 75.5q17 14 40 14q15 0 24.5 -9t9.5 -23t-7.5 -26t-18.5 -20q-45 -35 -96 -63t-97 -51zM359 675q0 -2 1.5 -4t3.5 -2q23 14 46.5 30.5t42.5 31.5q22 18 42 35q2 2 6.5 5.5t4.5 8.5q0 4 -4 8
t-7 4q-5 0 -12 -6q-15 -12 -27.5 -23.5t-26.5 -24t-29.5 -27t-36.5 -32.5l-2 -2z" />
    <glyph glyph-name="ecircumflex" unicode="&#xea;" horiz-adv-x="839" 
d="M385 502q-23 0 -38.5 -1t-25.5 -6.5t-14.5 -16.5t-4.5 -30v-160h134q26 0 44 4.5t28 15.5q9 10 12.5 30t3.5 53q0 3 5.5 4.5t13.5 1.5q16 0 18 -6q0 -16 -0.5 -29.5l-1 -27t-1 -28t-0.5 -32.5q0 -14 0.5 -38.5t2.5 -77.5q0 -3 -5.5 -5t-13.5 -2q-16 0 -18 7q0 29 -3.5 48
t-13.5 30q-10 10 -26.5 13t-42.5 3h-136v-160q0 -20 4.5 -30.5t14.5 -16t25.5 -6.5t38.5 -1h158q29 0 50.5 0.5t39.5 3.5q38 6 71 39t68 102q1 3 12 3q6 0 14.5 -3.5t10.5 -8.5q-32 -54 -55 -94.5t-36 -81.5q-36 0 -74.5 0.5t-88.5 0.5t-117.5 0.5t-161.5 0.5h-109t-96 -2
q-4 0 -6 5.5t-2 13.5q0 15 8 17q20 1 46.5 1t42.5 4q20 5 27 18t7 48v330q0 35 -7 48t-27 18q-16 4 -42.5 4t-46.5 1q-8 2 -8 17q0 8 2 13.5t6 5.5q20 -1 63.5 -1.5t93.5 -0.5h97h73h89.5t71 0.5t57 1t46.5 2.5q6 -18 12.5 -36t14.5 -37.5t20.5 -41.5t30.5 -49
q-2 -6 -10.5 -11t-15.5 -6q-6 0 -8 2q-28 46 -48 73.5t-39.5 41.5t-42 18t-56.5 4h-135zM218 73q0 -11 -5 -21.5t-15 -13.5l-3 -2q0 -3 5.5 -4t10.5 -1q23 1 31 16t8 28v387q0 13 -7 28t-30 16q-5 0 -11.5 -1t-6.5 -4q0 -1 3 -2q10 -3 15 -13.5t5 -21.5v-391zM279 620
q-8 0 -18.5 8.5t-10.5 13.5l162 181q4 4 9 5t9 1q3 0 8 -1t9 -5l163 -181q0 -5 -10.5 -13.5t-18.5 -8.5h-6q-30 27 -57 53q-23 22 -47.5 44.5t-40.5 37.5q-16 -15 -41 -37.5t-48 -44.5q-27 -26 -57 -53h-5zM512 703q1 0 3 1.5t2 3.5q-14 17 -28.5 33t-25.5 28q-13 14 -26 27
q-2 2 -5.5 5t-8.5 3q-4 0 -8.5 -3.5t-7.5 -6.5q-21 -26 -56 -63t-71 -78l-2 -2q-1 -1 -1 -2t3 -4.5t5 -3.5l140 138l80 -71q1 -2 3 -3z" />
    <glyph glyph-name="edieresis" unicode="&#xeb;" horiz-adv-x="839" 
d="M385 502q-23 0 -38.5 -1t-25.5 -6.5t-14.5 -16.5t-4.5 -30v-160h134q26 0 44 4.5t28 15.5q9 10 12.5 30t3.5 53q0 3 5.5 4.5t13.5 1.5q16 0 18 -6q0 -16 -0.5 -29.5l-1 -27t-1 -28t-0.5 -32.5q0 -14 0.5 -38.5t2.5 -77.5q0 -3 -5.5 -5t-13.5 -2q-16 0 -18 7q0 29 -3.5 48
t-13.5 30q-10 10 -26.5 13t-42.5 3h-136v-160q0 -20 4.5 -30.5t14.5 -16t25.5 -6.5t38.5 -1h158q29 0 50.5 0.5t39.5 3.5q38 6 71 39t68 102q1 3 12 3q6 0 14.5 -3.5t10.5 -8.5q-32 -54 -55 -94.5t-36 -81.5q-36 0 -74.5 0.5t-88.5 0.5t-117.5 0.5t-161.5 0.5h-109t-96 -2
q-4 0 -6 5.5t-2 13.5q0 15 8 17q20 1 46.5 1t42.5 4q20 5 27 18t7 48v330q0 35 -7 48t-27 18q-16 4 -42.5 4t-46.5 1q-8 2 -8 17q0 8 2 13.5t6 5.5q20 -1 63.5 -1.5t93.5 -0.5h97h73h89.5t71 0.5t57 1t46.5 2.5q6 -18 12.5 -36t14.5 -37.5t20.5 -41.5t30.5 -49
q-2 -6 -10.5 -11t-15.5 -6q-6 0 -8 2q-28 46 -48 73.5t-39.5 41.5t-42 18t-56.5 4h-135zM218 73q0 -11 -5 -21.5t-15 -13.5l-3 -2q0 -3 5.5 -4t10.5 -1q23 1 31 16t8 28v387q0 13 -7 28t-30 16q-5 0 -11.5 -1t-6.5 -4q0 -1 3 -2q10 -3 15 -13.5t5 -21.5v-391zM245 712
q0 26 17 43t43 17t44 -17t18 -43q0 -25 -18 -43.5t-44 -18.5t-43 18.5t-17 43.5zM471 712q0 26 17 43t43 17t44 -17t18 -43q0 -25 -18 -43.5t-44 -18.5t-43 18.5t-17 43.5zM307 662q-7 4 -14 17.5t-7 30.5q0 14 3.5 27t13.5 24q-18 -4 -30.5 -18t-12.5 -33q0 -17 12 -31.5
t35 -16.5zM534 662q-7 4 -14 17.5t-7 30.5q0 14 3.5 27t13.5 24q-18 -4 -30.5 -18t-12.5 -33q0 -17 12 -31.5t35 -16.5z" />
    <glyph glyph-name="igrave" unicode="&#xec;" horiz-adv-x="496" 
d="M194 435q0 35 -7 48t-27 18q-16 4 -42.5 4t-46.5 1q-8 2 -8 17q0 8 2 13.5t6 5.5q40 -2 82 -2h95h95t82 2q4 0 6 -5.5t2 -13.5q0 -15 -8 -17q-20 -1 -46.5 -1t-42.5 -4q-20 -5 -27 -18t-7 -48v-330q0 -35 7 -48t27 -18q16 -4 42.5 -4t46.5 -1q8 -2 8 -17q0 -8 -2 -13.5
t-6 -5.5q-40 2 -82 2h-95h-95t-82 -2q-4 0 -6 5.5t-2 13.5q0 15 8 17q20 1 46.5 1t42.5 4q20 5 27 18t7 48v330zM218 73q0 -11 -5 -21.5t-15 -13.5l-3 -2q0 -3 5.5 -4t10.5 -1q23 1 31 16t8 28v387q0 13 -7 28t-30 16q-5 0 -11.5 -1t-6.5 -4q0 -1 3 -2q10 -3 15 -13.5
t5 -21.5v-391zM368 650q0 -5 -5 -11.5t-10 -6.5q-2 0 -3 1q-1 0 -2 1q-46 23 -97 51t-96 63q-11 8 -18.5 20t-7.5 26t9.5 23t24.5 9q11 0 21.5 -4t18.5 -10q45 -35 82.5 -75.5t79.5 -82.5q0 -1 1 -2zM312 685l-2 2q-22 20 -38 35t-29.5 27t-25.5 22.5t-27 22.5q-7 6 -12 6
q-3 0 -7 -4t-4 -8q0 -5 4.5 -8.5t6.5 -5.5q20 -17 42 -35q19 -15 42 -31.5t47 -30.5q2 0 3.5 2t1.5 4z" />
    <glyph glyph-name="iacute" unicode="&#xed;" horiz-adv-x="496" 
d="M194 435q0 35 -7 48t-27 18q-16 4 -42.5 4t-46.5 1q-8 2 -8 17q0 8 2 13.5t6 5.5q40 -2 82 -2h95h95t82 2q4 0 6 -5.5t2 -13.5q0 -15 -8 -17q-20 -1 -46.5 -1t-42.5 -4q-20 -5 -27 -18t-7 -48v-330q0 -35 7 -48t27 -18q16 -4 42.5 -4t46.5 -1q8 -2 8 -17q0 -8 -2 -13.5
t-6 -5.5q-40 2 -82 2h-95h-95t-82 -2q-4 0 -6 5.5t-2 13.5q0 15 8 17q20 1 46.5 1t42.5 4q20 5 27 18t7 48v330zM218 73q0 -11 -5 -21.5t-15 -13.5l-3 -2q0 -3 5.5 -4t10.5 -1q23 1 31 16t8 28v387q0 13 -7 28t-30 16q-5 0 -11.5 -1t-6.5 -4q0 -1 3 -2q10 -3 15 -13.5
t5 -21.5v-391zM153 622q-1 -1 -2 -1q-1 -1 -2 -1h-1q-5 0 -10 6.5t-5 11.5l1 2l2 2q42 42 79.5 82.5t82.5 75.5q17 14 40 14q15 0 24.5 -9t9.5 -23t-7.5 -26t-18.5 -20q-45 -35 -96 -63t-97 -51zM183 668q0 -2 1.5 -4t3.5 -2q23 14 46.5 30.5t42.5 31.5q22 18 42 35
q2 2 6.5 5.5t4.5 8.5q0 4 -4 8t-7 4q-5 0 -12 -6q-15 -12 -27.5 -23.5t-26.5 -24t-29.5 -27t-36.5 -32.5l-2 -2z" />
    <glyph glyph-name="icircumflex" unicode="&#xee;" horiz-adv-x="476" 
d="M194 435q0 35 -7 48t-27 18q-16 4 -42.5 4t-46.5 1q-8 2 -8 17q0 8 2 13.5t6 5.5q40 -2 82 -2h95h95t82 2q4 0 6 -5.5t2 -13.5q0 -15 -8 -17q-20 -1 -46.5 -1t-42.5 -4q-20 -5 -27 -18t-7 -48v-330q0 -35 7 -48t27 -18q16 -4 42.5 -4t46.5 -1q8 -2 8 -17q0 -8 -2 -13.5
t-6 -5.5q-40 2 -82 2h-95h-95t-82 -2q-4 0 -6 5.5t-2 13.5q0 15 8 17q20 1 46.5 1t42.5 4q20 5 27 18t7 48v330zM218 73q0 -11 -5 -21.5t-15 -13.5l-3 -2q0 -3 5.5 -4t10.5 -1q23 1 31 16t8 28v387q0 13 -7 28t-30 16q-5 0 -11.5 -1t-6.5 -4q0 -1 3 -2q10 -3 15 -13.5
t5 -21.5v-391zM114 622q-8 0 -18.5 8.5t-10.5 13.5l162 181q4 4 9 5t9 1q3 0 8 -1t9 -5l163 -181q0 -5 -10.5 -13.5t-18.5 -8.5h-6q-30 27 -57 53q-23 22 -47.5 44.5t-40.5 37.5q-16 -15 -41 -37.5t-48 -44.5q-27 -26 -57 -53h-5zM347 705q1 0 3 1.5t2 3.5q-14 17 -28.5 33
t-25.5 28q-13 14 -26 27q-2 2 -5.5 5t-8.5 3q-4 0 -8.5 -3.5t-7.5 -6.5q-21 -26 -56 -63t-71 -78l-2 -2q-1 -1 -1 -2t3 -4.5t5 -3.5l140 138l80 -71q1 -2 3 -3z" />
    <glyph glyph-name="idieresis" unicode="&#xef;" horiz-adv-x="496" 
d="M194 435q0 35 -7 48t-27 18q-16 4 -42.5 4t-46.5 1q-8 2 -8 17q0 8 2 13.5t6 5.5q40 -2 82 -2h95h95t82 2q4 0 6 -5.5t2 -13.5q0 -15 -8 -17q-20 -1 -46.5 -1t-42.5 -4q-20 -5 -27 -18t-7 -48v-330q0 -35 7 -48t27 -18q16 -4 42.5 -4t46.5 -1q8 -2 8 -17q0 -8 -2 -13.5
t-6 -5.5q-40 2 -82 2h-95h-95t-82 -2q-4 0 -6 5.5t-2 13.5q0 15 8 17q20 1 46.5 1t42.5 4q20 5 27 18t7 48v330zM218 73q0 -11 -5 -21.5t-15 -13.5l-3 -2q0 -3 5.5 -4t10.5 -1q23 1 31 16t8 28v387q0 13 -7 28t-30 16q-5 0 -11.5 -1t-6.5 -4q0 -1 3 -2q10 -3 15 -13.5
t5 -21.5v-391zM76 709q0 26 17 43t43 17t44 -17t18 -43q0 -25 -18 -43.5t-44 -18.5t-43 18.5t-17 43.5zM302 709q0 26 17 43t43 17t44 -17t18 -43q0 -25 -18 -43.5t-44 -18.5t-43 18.5t-17 43.5zM138 659q-7 4 -14 17.5t-7 30.5q0 14 3.5 27t13.5 24q-18 -4 -30.5 -18
t-12.5 -33q0 -17 12 -31.5t35 -16.5zM365 659q-7 4 -14 17.5t-7 30.5q0 14 3.5 27t13.5 24q-18 -4 -30.5 -18t-12.5 -33q0 -17 12 -31.5t35 -16.5z" />
    <glyph glyph-name="eth" unicode="&#xf0;" horiz-adv-x="1017" 
d="M274 0h-108t-95 -2q-4 0 -6 5.5t-2 13.5q0 15 8 17q20 1 46.5 1t42.5 4q20 5 27 18t7 48v146h-124q-2 1 -3 7t-1 12t1 12t3 7h124v146q0 35 -7 48t-27 18q-16 4 -42.5 4t-46.5 1q-8 2 -8 17q0 8 2 13.5t6 5.5q20 -1 56.5 -1.5t78 -0.5h81.5h66h174q99 0 176.5 -13.5
t131.5 -45t82 -83t28 -127.5q0 -74 -28 -125.5t-81 -83.5t-130.5 -47t-176.5 -15h-255zM504 38q74 0 134 10t103 36t66 71t23 116q0 70 -25 115t-68.5 71t-103.5 35.5t-129 9.5h-121q-23 0 -38.5 -1t-25.5 -6.5t-14.5 -16.5t-4.5 -30v-159h112q2 -1 3 -7t1 -12t-1 -12t-3 -7
h-112v-159q0 -20 4.5 -30.5t14.5 -16t25.5 -6.5t38.5 -1h121zM857 271q0 -85 -42.5 -143t-109.5 -81q39 4 73 23.5t59 49.5t39.5 68.5t14.5 82.5q0 46 -15.5 86t-41.5 69t-59 46.5t-68 20.5q28 -8 55 -26.5t48 -47t34 -65.5t13 -83zM218 73q0 -11 -5 -21.5t-15 -13.5l-3 -2
q0 -3 5.5 -4t10.5 -1q23 1 31 16t8 28v387q0 13 -7 28t-30 16q-5 0 -11.5 -1t-6.5 -4q0 -1 3 -2q10 -3 15 -13.5t5 -21.5v-391z" />
    <glyph glyph-name="ntilde" unicode="&#xf1;" horiz-adv-x="944" 
d="M734 435q0 35 -7 48t-27 18q-14 3 -34 3.5t-40 1.5q-8 2 -8 17q0 8 2 13.5t6 5.5q20 -1 33.5 -1.5t27.5 -0.5h31h43h44h32.5t29 0.5t34.5 1.5q4 0 6 -5.5t2 -13.5q0 -15 -8 -17q-20 -1 -47.5 -1t-43.5 -4q-20 -5 -27 -18t-7 -48v-458q0 -3 -5 -4.5t-7 -1.5
q-5 0 -10.5 3.5t-13.5 9.5q-20 15 -58.5 48t-86.5 76t-102 92.5t-105.5 97t-96 89t-74.5 70.5v-352q0 -35 7 -48t27 -18q14 -3 34 -3.5t40 -1.5q8 -2 8 -17q0 -8 -2 -13.5t-6 -5.5q-20 1 -33.5 1.5t-27.5 0.5h-31h-43h-44h-32.5t-29 -0.5t-34.5 -1.5q-4 0 -6 5.5t-2 13.5
q0 15 8 17q20 1 47.5 1t43.5 4q20 5 27 18t7 48v381q-10 9 -26 12q-17 4 -42 5.5t-57 2.5q-8 2 -8 17q0 8 2 13.5t6 5.5q25 -1 54.5 -1.5t58.5 -0.5q41 0 72.5 0.5t41.5 0.5t15.5 -7t10.5 -13q21 -22 54.5 -54.5t73 -69.5t83.5 -76.5t84.5 -76.5t76 -69t59.5 -54v314z
M263 451l60.5 -55t84.5 -77.5t95.5 -88.5t94 -86.5t79.5 -72.5t52 -46v41l-456 419q-14 12 -23 17t-20 6q-8 0 -18.5 -1.5t-10.5 -3.5q0 -3 3 -4q5 -2 13 -8t16 -13t16 -14.5t14 -12.5zM566 699q10 0 20.5 2.5t22.5 10t26.5 20t34.5 33.5q5 0 14 -5t9 -10q-8 -19 -21 -41.5
t-31 -41.5t-40 -31.5t-48 -12.5q-28 0 -51 13t-44 28t-40.5 28t-40.5 13q-11 0 -21 -2.5t-22 -10t-27 -20t-34 -33.5q-5 0 -14 5t-9 10q8 19 21 41.5t30.5 41.5t39.5 31.5t48 12.5t50 -13t46 -28t42.5 -28t38.5 -13zM375 724q24 0 45 -13t41.5 -28.5t43 -28.5t49.5 -13
t38.5 11t18.5 23q-14 -8 -25 -12t-30 -4q-22 0 -44 13t-44.5 29t-44.5 29t-44 13q-20 0 -31.5 -8.5t-19.5 -25.5q17 9 24.5 12t22.5 3z" />
    <glyph glyph-name="ograve" unicode="&#xf2;" horiz-adv-x="895" 
d="M453 20q52 0 101.5 13t87 42.5t60.5 77t23 117.5t-23 117.5t-60.5 76.5t-87 41.5t-101.5 12.5t-102 -12.5t-89.5 -41.5t-64 -76.5t-24.5 -117.5t24.5 -117.5t64 -77t89.5 -42.5t102 -13zM453 -18q-47 0 -95 7t-92 22t-82.5 38t-67 55t-45 73t-16.5 93q0 51 16.5 92.5
t45 73t67 54.5t82.5 37.5t92 21.5t95 7q71 0 140.5 -15.5t125 -50t89.5 -89t34 -131.5t-35 -132t-91 -89.5t-125.5 -50.5t-137.5 -16zM750 271q0 -85 -36 -148.5t-108 -92.5q80 20 129 81.5t49 159.5q0 46 -14 86t-38 71t-56 51.5t-68 28.5q66 -31 104 -90t38 -147zM80 271
q0 -48 17.5 -88t44.5 -71t59.5 -52.5t63.5 -31.5q-69 48 -110 106.5t-41 136.5t39 134t100 97q-29 -7 -60 -28.5t-56 -52.5t-41 -69.5t-16 -80.5zM581 647q0 -5 -5 -11.5t-10 -6.5q-2 0 -3 1q-1 0 -2 1q-46 23 -97 51t-96 63q-11 8 -18.5 20t-7.5 26t9.5 23t24.5 9
q11 0 21.5 -4t18.5 -10q45 -35 82.5 -75.5t79.5 -82.5q0 -1 1 -2zM525 682l-2 2q-22 20 -38 35t-29.5 27t-25.5 22.5t-27 22.5q-7 6 -12 6q-3 0 -7 -4t-4 -8q0 -5 4.5 -8.5t6.5 -5.5q20 -17 42 -35q19 -15 42 -31.5t47 -30.5q2 0 3.5 2t1.5 4z" />
    <glyph glyph-name="oacute" unicode="&#xf3;" horiz-adv-x="895" 
d="M453 20q52 0 101.5 13t87 42.5t60.5 77t23 117.5t-23 117.5t-60.5 76.5t-87 41.5t-101.5 12.5t-102 -12.5t-89.5 -41.5t-64 -76.5t-24.5 -117.5t24.5 -117.5t64 -77t89.5 -42.5t102 -13zM453 -18q-47 0 -95 7t-92 22t-82.5 38t-67 55t-45 73t-16.5 93q0 51 16.5 92.5
t45 73t67 54.5t82.5 37.5t92 21.5t95 7q71 0 140.5 -15.5t125 -50t89.5 -89t34 -131.5t-35 -132t-91 -89.5t-125.5 -50.5t-137.5 -16zM750 271q0 -85 -36 -148.5t-108 -92.5q80 20 129 81.5t49 159.5q0 46 -14 86t-38 71t-56 51.5t-68 28.5q66 -31 104 -90t38 -147zM80 271
q0 -48 17.5 -88t44.5 -71t59.5 -52.5t63.5 -31.5q-69 48 -110 106.5t-41 136.5t39 134t100 97q-29 -7 -60 -28.5t-56 -52.5t-41 -69.5t-16 -80.5zM363 625q-1 -1 -2 -1q-1 -1 -2 -1h-1q-5 0 -10 6.5t-5 11.5l1 2l2 2q42 42 79.5 82.5t82.5 75.5q17 14 40 14q15 0 24.5 -9
t9.5 -23t-7.5 -26t-18.5 -20q-45 -35 -96 -63t-97 -51zM393 671q0 -2 1.5 -4t3.5 -2q23 14 46.5 30.5t42.5 31.5q22 18 42 35q2 2 6.5 5.5t4.5 8.5q0 4 -4 8t-7 4q-5 0 -12 -6q-15 -12 -27.5 -23.5t-26.5 -24t-29.5 -27t-36.5 -32.5l-2 -2z" />
    <glyph glyph-name="ocircumflex" unicode="&#xf4;" horiz-adv-x="895" 
d="M453 20q52 0 101.5 13t87 42.5t60.5 77t23 117.5t-23 117.5t-60.5 76.5t-87 41.5t-101.5 12.5t-102 -12.5t-89.5 -41.5t-64 -76.5t-24.5 -117.5t24.5 -117.5t64 -77t89.5 -42.5t102 -13zM453 -18q-47 0 -95 7t-92 22t-82.5 38t-67 55t-45 73t-16.5 93q0 51 16.5 92.5
t45 73t67 54.5t82.5 37.5t92 21.5t95 7q71 0 140.5 -15.5t125 -50t89.5 -89t34 -131.5t-35 -132t-91 -89.5t-125.5 -50.5t-137.5 -16zM750 271q0 -85 -36 -148.5t-108 -92.5q80 20 129 81.5t49 159.5q0 46 -14 86t-38 71t-56 51.5t-68 28.5q66 -31 104 -90t38 -147zM80 271
q0 -48 17.5 -88t44.5 -71t59.5 -52.5t63.5 -31.5q-69 48 -110 106.5t-41 136.5t39 134t100 97q-29 -7 -60 -28.5t-56 -52.5t-41 -69.5t-16 -80.5zM299 622q-8 0 -18.5 8.5t-10.5 13.5l162 181q4 4 9 5t9 1q3 0 8 -1t9 -5l163 -181q0 -5 -10.5 -13.5t-18.5 -8.5h-6
q-30 27 -57 53q-23 22 -47.5 44.5t-40.5 37.5q-16 -15 -41 -37.5t-48 -44.5q-27 -26 -57 -53h-5zM532 705q1 0 3 1.5t2 3.5q-14 17 -28.5 33t-25.5 28q-13 14 -26 27q-2 2 -5.5 5t-8.5 3q-4 0 -8.5 -3.5t-7.5 -6.5q-21 -26 -56 -63t-71 -78l-2 -2q-1 -1 -1 -2t3 -4.5t5 -3.5
l140 138l80 -71q1 -2 3 -3z" />
    <glyph glyph-name="otilde" unicode="&#xf5;" horiz-adv-x="895" 
d="M453 20q52 0 101.5 13t87 42.5t60.5 77t23 117.5t-23 117.5t-60.5 76.5t-87 41.5t-101.5 12.5t-102 -12.5t-89.5 -41.5t-64 -76.5t-24.5 -117.5t24.5 -117.5t64 -77t89.5 -42.5t102 -13zM453 -18q-47 0 -95 7t-92 22t-82.5 38t-67 55t-45 73t-16.5 93q0 51 16.5 92.5
t45 73t67 54.5t82.5 37.5t92 21.5t95 7q71 0 140.5 -15.5t125 -50t89.5 -89t34 -131.5t-35 -132t-91 -89.5t-125.5 -50.5t-137.5 -16zM750 271q0 -85 -36 -148.5t-108 -92.5q80 20 129 81.5t49 159.5q0 46 -14 86t-38 71t-56 51.5t-68 28.5q66 -31 104 -90t38 -147zM80 271
q0 -48 17.5 -88t44.5 -71t59.5 -52.5t63.5 -31.5q-69 48 -110 106.5t-41 136.5t39 134t100 97q-29 -7 -60 -28.5t-56 -52.5t-41 -69.5t-16 -80.5zM565 720q10 0 20.5 2.5t22.5 10t26.5 20t34.5 33.5q5 0 14 -5t9 -10q-8 -19 -21 -41.5t-31 -41.5t-40 -31.5t-48 -12.5
q-28 0 -51 13t-44 28t-40.5 28t-40.5 13q-11 0 -21 -2.5t-22 -10t-27 -20t-34 -33.5q-5 0 -14 5t-9 10q8 19 21 41.5t30.5 41.5t39.5 31.5t48 12.5t50 -13t46 -28t42.5 -28t38.5 -13zM374 745q24 0 45 -13t41.5 -28.5t43 -28.5t49.5 -13t38.5 11t18.5 23q-14 -8 -25 -12
t-30 -4q-22 0 -44 13t-44.5 29t-44.5 29t-44 13q-20 0 -31.5 -8.5t-19.5 -25.5q17 9 24.5 12t22.5 3z" />
    <glyph glyph-name="odieresis" unicode="&#xf6;" horiz-adv-x="895" 
d="M453 20q52 0 101.5 13t87 42.5t60.5 77t23 117.5t-23 117.5t-60.5 76.5t-87 41.5t-101.5 12.5t-102 -12.5t-89.5 -41.5t-64 -76.5t-24.5 -117.5t24.5 -117.5t64 -77t89.5 -42.5t102 -13zM453 -18q-47 0 -95 7t-92 22t-82.5 38t-67 55t-45 73t-16.5 93q0 51 16.5 92.5
t45 73t67 54.5t82.5 37.5t92 21.5t95 7q71 0 140.5 -15.5t125 -50t89.5 -89t34 -131.5t-35 -132t-91 -89.5t-125.5 -50.5t-137.5 -16zM750 271q0 -85 -36 -148.5t-108 -92.5q80 20 129 81.5t49 159.5q0 46 -14 86t-38 71t-56 51.5t-68 28.5q66 -31 104 -90t38 -147zM80 271
q0 -48 17.5 -88t44.5 -71t59.5 -52.5t63.5 -31.5q-69 48 -110 106.5t-41 136.5t39 134t100 97q-29 -7 -60 -28.5t-56 -52.5t-41 -69.5t-16 -80.5zM286 708q0 26 17 43t43 17t44 -17t18 -43q0 -25 -18 -43.5t-44 -18.5t-43 18.5t-17 43.5zM512 708q0 26 17 43t43 17t44 -17
t18 -43q0 -25 -18 -43.5t-44 -18.5t-43 18.5t-17 43.5zM348 658q-7 4 -14 17.5t-7 30.5q0 14 3.5 27t13.5 24q-18 -4 -30.5 -18t-12.5 -33q0 -17 12 -31.5t35 -16.5zM575 658q-7 4 -14 17.5t-7 30.5q0 14 3.5 27t13.5 24q-18 -4 -30.5 -18t-12.5 -33q0 -17 12 -31.5
t35 -16.5z" />
    <glyph glyph-name="divide" unicode="&#xf7;" horiz-adv-x="547" 
d="M513 345q2 -1 3 -8.5t1 -14.5t-1 -14.5t-3 -8.5h-479q-2 1 -3 8.5t-1 14.5t1 14.5t3 8.5h479zM207 177q0 29 20 49.5t50 20.5t51 -20.5t21 -49.5t-21 -50.5t-51 -21.5t-50 21.5t-20 50.5zM207 483q0 29 20 49.5t50 20.5t51 -20.5t21 -49.5t-21 -50.5t-51 -21.5t-50 21.5
t-20 50.5z" />
    <glyph glyph-name="oslash" unicode="&#xf8;" horiz-adv-x="913" 
d="M461 -18q-17 0 -34 1t-34 3l-37 -117q-2 -1 -7 -1q-8 0 -21 5.5t-18 13.5l34 106q-56 10 -107 32t-89.5 55.5t-61.5 80.5t-23 109q0 51 16.5 92.5t45 73t67 54.5t82.5 37.5t92 21.5t95 7q16 0 32 -1t32 -3l42 130q8 0 23.5 -5t22.5 -13l-38 -118q55 -11 105 -32t87.5 -55
t60 -81t22.5 -108q0 -77 -35 -132t-91 -89.5t-125.5 -50.5t-137.5 -16zM181 270q0 -52 14 -92t38 -68.5t56 -47.5t68 -29l156 482q-26 3 -52 3q-52 0 -102 -12.5t-89.5 -41.5t-64 -76.5t-24.5 -117.5zM461 20q52 0 101.5 13t87 42.5t60.5 77t23 117.5q0 52 -13 91.5
t-36.5 68t-54.5 47t-67 28.5l-156 -482q27 -3 55 -3zM758 271q0 -85 -36 -148.5t-108 -92.5q80 20 129 81.5t49 159.5q0 46 -14 86t-38 71t-56 51.5t-68 28.5q66 -31 104 -90t38 -147zM88 271q0 -48 17.5 -88t44.5 -71t59.5 -52.5t63.5 -31.5q-69 48 -110 106.5t-41 136.5
t39 134t100 97q-29 -7 -60 -28.5t-56 -52.5t-41 -69.5t-16 -80.5z" />
    <glyph glyph-name="ugrave" unicode="&#xf9;" horiz-adv-x="911" 
d="M176 435q0 35 -7 48t-27 18q-16 4 -42.5 4t-46.5 1q-8 2 -8 17q0 8 2 13.5t6 5.5q40 -2 82 -2h95h92t79 2q4 0 6 -5.5t2 -13.5q0 -15 -8 -17q-20 -1 -43.5 -1t-39.5 -4q-20 -5 -27 -18t-7 -48v-243q0 -46 10.5 -79.5t34 -55t61.5 -32t94 -10.5q33 0 71.5 6.5t71.5 24
t54.5 46.5t21.5 74v268q0 35 -7 48t-27 18q-14 3 -38 3.5t-44 1.5q-8 2 -8 17q0 8 2 13.5t6 5.5q20 -1 35 -1.5t30 -0.5h33.5h44.5h43h31t28 0.5t34 1.5q4 0 6 -5.5t2 -13.5q0 -15 -8 -17q-20 -1 -45.5 -1t-41.5 -4q-20 -5 -27 -18t-7 -48v-278q0 -52 -24.5 -85.5
t-63.5 -53.5t-88 -28t-98 -8q-53 0 -105.5 7t-94.5 29t-68.5 63t-26.5 108v247zM232 464q0 12 -8 26.5t-29 15.5q-5 0 -11.5 -1t-6.5 -4q0 -1 3 -2q10 -2 15 -12t5 -21v-279q0 -44 11 -72.5t26.5 -46.5t32.5 -27t29 -15q6 -3 11 -3q3 0 3 4q0 1 -3 4t-7 6.5l-8 7t-6 5.5
q-13 12 -23.5 24t-18 28t-11.5 37t-4 53v272zM605 644q0 -5 -5 -11.5t-10 -6.5q-2 0 -3 1q-1 0 -2 1q-46 23 -97 51t-96 63q-11 8 -18.5 20t-7.5 26t9.5 23t24.5 9q11 0 21.5 -4t18.5 -10q45 -35 82.5 -75.5t79.5 -82.5q0 -1 1 -2zM549 679l-2 2q-22 20 -38 35t-29.5 27
t-25.5 22.5t-27 22.5q-7 6 -12 6q-3 0 -7 -4t-4 -8q0 -5 4.5 -8.5t6.5 -5.5q20 -17 42 -35q19 -15 42 -31.5t47 -30.5q2 0 3.5 2t1.5 4z" />
    <glyph glyph-name="uacute" unicode="&#xfa;" horiz-adv-x="911" 
d="M176 435q0 35 -7 48t-27 18q-16 4 -42.5 4t-46.5 1q-8 2 -8 17q0 8 2 13.5t6 5.5q40 -2 82 -2h95h92t79 2q4 0 6 -5.5t2 -13.5q0 -15 -8 -17q-20 -1 -43.5 -1t-39.5 -4q-20 -5 -27 -18t-7 -48v-243q0 -46 10.5 -79.5t34 -55t61.5 -32t94 -10.5q33 0 71.5 6.5t71.5 24
t54.5 46.5t21.5 74v268q0 35 -7 48t-27 18q-14 3 -38 3.5t-44 1.5q-8 2 -8 17q0 8 2 13.5t6 5.5q20 -1 35 -1.5t30 -0.5h33.5h44.5h43h31t28 0.5t34 1.5q4 0 6 -5.5t2 -13.5q0 -15 -8 -17q-20 -1 -45.5 -1t-41.5 -4q-20 -5 -27 -18t-7 -48v-278q0 -52 -24.5 -85.5
t-63.5 -53.5t-88 -28t-98 -8q-53 0 -105.5 7t-94.5 29t-68.5 63t-26.5 108v247zM232 464q0 12 -8 26.5t-29 15.5q-5 0 -11.5 -1t-6.5 -4q0 -1 3 -2q10 -2 15 -12t5 -21v-279q0 -44 11 -72.5t26.5 -46.5t32.5 -27t29 -15q6 -3 11 -3q3 0 3 4q0 1 -3 4t-7 6.5l-8 7t-6 5.5
q-13 12 -23.5 24t-18 28t-11.5 37t-4 53v272zM394 623q-1 -1 -2 -1q-1 -1 -2 -1h-1q-5 0 -10 6.5t-5 11.5l1 2l2 2q42 42 79.5 82.5t82.5 75.5q17 14 40 14q15 0 24.5 -9t9.5 -23t-7.5 -26t-18.5 -20q-45 -35 -96 -63t-97 -51zM424 669q0 -2 1.5 -4t3.5 -2q23 14 46.5 30.5
t42.5 31.5q22 18 42 35q2 2 6.5 5.5t4.5 8.5q0 4 -4 8t-7 4q-5 0 -12 -6q-15 -12 -27.5 -23.5t-26.5 -24t-29.5 -27t-36.5 -32.5l-2 -2z" />
    <glyph glyph-name="ucircumflex" unicode="&#xfb;" horiz-adv-x="911" 
d="M176 435q0 35 -7 48t-27 18q-16 4 -42.5 4t-46.5 1q-8 2 -8 17q0 8 2 13.5t6 5.5q40 -2 82 -2h95h92t79 2q4 0 6 -5.5t2 -13.5q0 -15 -8 -17q-20 -1 -43.5 -1t-39.5 -4q-20 -5 -27 -18t-7 -48v-243q0 -46 10.5 -79.5t34 -55t61.5 -32t94 -10.5q33 0 71.5 6.5t71.5 24
t54.5 46.5t21.5 74v268q0 35 -7 48t-27 18q-14 3 -38 3.5t-44 1.5q-8 2 -8 17q0 8 2 13.5t6 5.5q20 -1 35 -1.5t30 -0.5h33.5h44.5h43h31t28 0.5t34 1.5q4 0 6 -5.5t2 -13.5q0 -15 -8 -17q-20 -1 -45.5 -1t-41.5 -4q-20 -5 -27 -18t-7 -48v-278q0 -52 -24.5 -85.5
t-63.5 -53.5t-88 -28t-98 -8q-53 0 -105.5 7t-94.5 29t-68.5 63t-26.5 108v247zM232 464q0 12 -8 26.5t-29 15.5q-5 0 -11.5 -1t-6.5 -4q0 -1 3 -2q10 -2 15 -12t5 -21v-279q0 -44 11 -72.5t26.5 -46.5t32.5 -27t29 -15q6 -3 11 -3q3 0 3 4q0 1 -3 4t-7 6.5l-8 7t-6 5.5
q-13 12 -23.5 24t-18 28t-11.5 37t-4 53v272zM344 620q-8 0 -18.5 8.5t-10.5 13.5l162 181q4 4 9 5t9 1q3 0 8 -1t9 -5l163 -181q0 -5 -10.5 -13.5t-18.5 -8.5h-6q-30 27 -57 53q-23 22 -47.5 44.5t-40.5 37.5q-16 -15 -41 -37.5t-48 -44.5q-27 -26 -57 -53h-5zM577 703
q1 0 3 1.5t2 3.5q-14 17 -28.5 33t-25.5 28q-13 14 -26 27q-2 2 -5.5 5t-8.5 3q-4 0 -8.5 -3.5t-7.5 -6.5q-21 -26 -56 -63t-71 -78l-2 -2q-1 -1 -1 -2t3 -4.5t5 -3.5l140 138l80 -71q1 -2 3 -3z" />
    <glyph glyph-name="udieresis" unicode="&#xfc;" horiz-adv-x="911" 
d="M176 435q0 35 -7 48t-27 18q-16 4 -42.5 4t-46.5 1q-8 2 -8 17q0 8 2 13.5t6 5.5q40 -2 82 -2h95h92t79 2q4 0 6 -5.5t2 -13.5q0 -15 -8 -17q-20 -1 -43.5 -1t-39.5 -4q-20 -5 -27 -18t-7 -48v-243q0 -46 10.5 -79.5t34 -55t61.5 -32t94 -10.5q33 0 71.5 6.5t71.5 24
t54.5 46.5t21.5 74v268q0 35 -7 48t-27 18q-14 3 -38 3.5t-44 1.5q-8 2 -8 17q0 8 2 13.5t6 5.5q20 -1 35 -1.5t30 -0.5h33.5h44.5h43h31t28 0.5t34 1.5q4 0 6 -5.5t2 -13.5q0 -15 -8 -17q-20 -1 -45.5 -1t-41.5 -4q-20 -5 -27 -18t-7 -48v-278q0 -52 -24.5 -85.5
t-63.5 -53.5t-88 -28t-98 -8q-53 0 -105.5 7t-94.5 29t-68.5 63t-26.5 108v247zM232 464q0 12 -8 26.5t-29 15.5q-5 0 -11.5 -1t-6.5 -4q0 -1 3 -2q10 -2 15 -12t5 -21v-279q0 -44 11 -72.5t26.5 -46.5t32.5 -27t29 -15q6 -3 11 -3q3 0 3 4q0 1 -3 4t-7 6.5l-8 7t-6 5.5
q-13 12 -23.5 24t-18 28t-11.5 37t-4 53v272zM313 694q0 26 17 43t43 17t44 -17t18 -43q0 -25 -18 -43.5t-44 -18.5t-43 18.5t-17 43.5zM539 694q0 26 17 43t43 17t44 -17t18 -43q0 -25 -18 -43.5t-44 -18.5t-43 18.5t-17 43.5zM375 644q-7 4 -14 17.5t-7 30.5q0 14 3.5 27
t13.5 24q-18 -4 -30.5 -18t-12.5 -33q0 -17 12 -31.5t35 -16.5zM602 644q-7 4 -14 17.5t-7 30.5q0 14 3.5 27t13.5 24q-18 -4 -30.5 -18t-12.5 -33q0 -17 12 -31.5t35 -16.5z" />
    <glyph glyph-name="yacute" unicode="&#xfd;" horiz-adv-x="748" 
d="M327 258q-2 3 -9 12t-16.5 22.5t-22 30t-24.5 33.5q-29 40 -64 88q-15 19 -29 31t-32.5 19t-43 9.5t-59.5 2.5q-4 2 -5 7.5t-1 12.5q0 16 9 16q34 -1 75 -1.5t104 -0.5h55h39.5t33.5 0.5t38 1.5q9 0 9 -18q0 -7 -1.5 -12.5t-5.5 -5.5q-14 -1 -33 -1.5t-31 -2.5
q-10 -2 -16.5 -5t-6.5 -14q0 -4 3.5 -12.5t10.5 -18.5q10 -17 26.5 -38.5t32 -41.5t28.5 -36t18 -22q26 31 50 59t43 50.5t30 38.5t11 22q0 17 -31 20q-16 2 -34 1.5t-29 0.5q-4 0 -6 5.5t-2 12.5q0 18 8 18q22 -1 36 -1.5t28.5 -0.5h34h52.5h42.5h29t25.5 0.5t33 1.5
q8 0 8 -18q0 -16 -8 -18q-32 0 -56.5 -1.5t-41.5 -9.5q-15 -6 -33.5 -24.5t-42.5 -47t-54 -65.5t-67 -79v-174q0 -35 7 -48t27 -18q16 -4 42.5 -4t46.5 -1q8 -2 8 -17q0 -8 -2 -13.5t-6 -5.5q-40 2 -82 2h-95h-95t-82 -2q-4 0 -6 5.5t-2 13.5q0 15 8 17q20 1 46.5 1t42.5 4
q20 5 27 18t7 48v153zM351 72q0 -11 -4.5 -21.5t-15.5 -12.5l-3 -2q0 -3 5.5 -4t10.5 -1q23 1 31 16t8 27v177q0 17 -6 27t-21 30l-119 159q-11 15 -24 28t-27 13q-7 0 -15.5 -2t-7.5 -5q0 -1 3 -2q6 -3 13.5 -10t15.5 -16t15 -18t12 -15l124 -165q5 -9 5 -14v-189zM343 636
q-1 -1 -2 -1q-1 -1 -2 -1h-1q-5 0 -10 6.5t-5 11.5l1 2l2 2q42 42 79.5 82.5t82.5 75.5q17 14 40 14q15 0 24.5 -9t9.5 -23t-7.5 -26t-18.5 -20q-45 -35 -96 -63t-97 -51zM373 682q0 -2 1.5 -4t3.5 -2q23 14 46.5 30.5t42.5 31.5q22 18 42 35q2 2 6.5 5.5t4.5 8.5q0 4 -4 8
t-7 4q-5 0 -12 -6q-15 -12 -27.5 -23.5t-26.5 -24t-29.5 -27t-36.5 -32.5l-2 -2z" />
    <glyph glyph-name="thorn" unicode="&#xfe;" horiz-adv-x="853" 
d="M302 178h231q83 0 126 30.5t43 86.5q0 50 -40.5 73t-134.5 23h-225v-213zM514 429q53 0 107.5 -3.5t98.5 -16.5t71.5 -39t27.5 -70q0 -38 -21.5 -67.5t-59 -50t-89 -31.5t-112.5 -11h-235v-35q0 -35 7 -48t27 -18q16 -4 42.5 -4t46.5 -1q8 -2 8 -17q0 -8 -2 -13.5
t-6 -5.5q-40 2 -82 2h-95h-95t-82 -2q-4 0 -6 5.5t-2 13.5q0 15 8 17q20 1 46.5 1t42.5 4q20 5 27 18t7 48v330q0 35 -7 48t-27 18q-16 4 -42.5 4t-46.5 1q-8 2 -8 17q0 8 2 13.5t6 5.5q40 -2 82 -2h95h49.5t28 0.5t22.5 1l33 1.5q4 0 6 -5t2 -13q0 -16 -8 -18
q-11 0 -24.5 -1.5t-24.5 -4.5q-14 -4 -22 -12.5t-8 -27.5v-32h212zM218 73q0 -11 -5 -21.5t-15 -13.5l-3 -2q0 -3 5.5 -4t10.5 -1q23 1 31 16t8 28v387q0 13 -7 28t-30 16q-5 0 -11.5 -1t-6.5 -4q0 -1 3 -2q10 -3 15 -13.5t5 -21.5v-391zM634 175q22 1 45.5 8.5t43 22.5
t32 37t12.5 53q0 22 -11.5 40t-29.5 30.5t-40 20t-43 7.5q10 -3 25.5 -10.5t30 -19.5t24.5 -29.5t10 -40.5q0 -44 -24.5 -72t-74.5 -47z" />
    <glyph glyph-name="ydieresis" unicode="&#xff;" horiz-adv-x="748" 
d="M327 258q-2 3 -9 12t-16.5 22.5t-22 30t-24.5 33.5q-29 40 -64 88q-15 19 -29 31t-32.5 19t-43 9.5t-59.5 2.5q-4 2 -5 7.5t-1 12.5q0 16 9 16q34 -1 75 -1.5t104 -0.5h55h39.5t33.5 0.5t38 1.5q9 0 9 -18q0 -7 -1.5 -12.5t-5.5 -5.5q-14 -1 -33 -1.5t-31 -2.5
q-10 -2 -16.5 -5t-6.5 -14q0 -4 3.5 -12.5t10.5 -18.5q10 -17 26.5 -38.5t32 -41.5t28.5 -36t18 -22q26 31 50 59t43 50.5t30 38.5t11 22q0 17 -31 20q-16 2 -34 1.5t-29 0.5q-4 0 -6 5.5t-2 12.5q0 18 8 18q22 -1 36 -1.5t28.5 -0.5h34h52.5h42.5h29t25.5 0.5t33 1.5
q8 0 8 -18q0 -16 -8 -18q-32 0 -56.5 -1.5t-41.5 -9.5q-15 -6 -33.5 -24.5t-42.5 -47t-54 -65.5t-67 -79v-174q0 -35 7 -48t27 -18q16 -4 42.5 -4t46.5 -1q8 -2 8 -17q0 -8 -2 -13.5t-6 -5.5q-40 2 -82 2h-95h-95t-82 -2q-4 0 -6 5.5t-2 13.5q0 15 8 17q20 1 46.5 1t42.5 4
q20 5 27 18t7 48v153zM351 72q0 -11 -4.5 -21.5t-15.5 -12.5l-3 -2q0 -3 5.5 -4t10.5 -1q23 1 31 16t8 27v177q0 17 -6 27t-21 30l-119 159q-11 15 -24 28t-27 13q-7 0 -15.5 -2t-7.5 -5q0 -1 3 -2q6 -3 13.5 -10t15.5 -16t15 -18t12 -15l124 -165q5 -9 5 -14v-189zM212 711
q0 26 17 43t43 17t44 -17t18 -43q0 -25 -18 -43.5t-44 -18.5t-43 18.5t-17 43.5zM438 711q0 26 17 43t43 17t44 -17t18 -43q0 -25 -18 -43.5t-44 -18.5t-43 18.5t-17 43.5zM274 661q-7 4 -14 17.5t-7 30.5q0 14 3.5 27t13.5 24q-18 -4 -30.5 -18t-12.5 -33q0 -17 12 -31.5
t35 -16.5zM501 661q-7 4 -14 17.5t-7 30.5q0 14 3.5 27t13.5 24q-18 -4 -30.5 -18t-12.5 -33q0 -17 12 -31.5t35 -16.5z" />
    <glyph glyph-name="Amacron" unicode="&#x100;" horiz-adv-x="1067" 
d="M164 133q42 72 83.5 149t83.5 154.5t84 154t85 148.5q9 13 14 13q4 0 6.5 -4t6.5 -9q35 -56 72 -117.5t73.5 -123.5t71.5 -122t66 -112t57 -95t45 -70q13 -21 29.5 -33.5t36.5 -19t45 -9t56 -3.5q8 -2 8 -18q0 -18 -8 -18q-44 1 -91 1.5t-113 0.5t-111.5 -1t-89.5 -2
q-8 0 -8 18q0 16 8 18q11 1 27.5 2t33.5 3q14 2 29.5 8.5t15.5 26.5q0 4 -10 23.5t-27 49t-39.5 68t-47.5 82.5h-345l-81 -154q-8 -16 -18 -37.5t-10 -32.5q0 -14 4.5 -22.5t24.5 -13.5q10 -2 25.5 -2.5t53.5 -0.5q8 -2 8 -17q0 -8 -2 -13.5t-6 -5.5q-22 1 -38.5 1.5
t-33.5 1t-39 0.5h-55h-54.5t-38 -0.5t-32.5 -1t-38 -1.5q-4 0 -6 5t-2 13q0 16 8 18q24 1 47 1.5t40 5.5q24 7 46.5 26.5t49.5 66.5zM473 598q-15 -28 -35 -66q-17 -33 -43 -81t-60 -111h293q-42 71 -82.5 139t-72.5 119zM508 658l-19 -33q15 -25 43 -70.5t61.5 -100.5
t69 -114t66.5 -112t54.5 -94t32.5 -60q7 -12 7 -25q0 -11 -7 -18q-2 -2 -2 -3q0 -3 4 -3q5 0 13 4q11 7 16 20t5 22q0 14 -7 26zM702 936q2 -1 3 -9t1 -15t-1 -15t-3 -9h-375q-2 1 -3 9t-1 15t1 15t3 9h375zM336 899h356v18h-356v-18z" />
    <glyph glyph-name="amacron" unicode="&#x101;" horiz-adv-x="866" 
d="M-10 33q32 0 59.5 2.5t44.5 9.5q14 5 28 18t30 40q28 47 61.5 107.5t68.5 123t69 121.5t63 103q9 13 14 13q4 0 6.5 -4t6.5 -9q63 -95 131 -213t143 -246q12 -20 26.5 -32.5t33 -19.5t42.5 -9.5t54 -3.5q8 -2 8 -18q0 -18 -8 -18q-22 1 -43 1.5t-43.5 0.5h-49h-59.5
h-54.5t-39 -0.5t-33.5 -1t-38 -1.5q-8 0 -8 18q0 7 2 12.5t6 5.5q17 1 26.5 1.5t26.5 2.5q15 2 25.5 7t10.5 17q0 13 -19 49.5t-61 108.5h-255q-27 -49 -42.5 -78.5t-24 -46t-11 -24t-2.5 -11.5q0 -11 9 -16t26 -7t26 -2t20 -1q8 -2 8 -18q0 -18 -8 -18q-22 1 -35 1.5
t-26.5 1t-32 0.5h-51.5h-42.5t-29.5 -0.5l-26 -1t-33 -1.5q-8 0 -8 18q0 16 8 18zM391 443q-18 -30 -36 -62q-16 -27 -35 -60.5t-37 -66.5h217zM424 489l-16 -30q15 -25 35 -58t41.5 -69.5t43.5 -74t41.5 -72t34.5 -63.5t24 -48q7 -12 7 -25q0 -11 -7 -18q-2 -2 -2 -3
q0 -3 4 -3q5 0 13 4q11 7 15 17t4 19q0 15 -6 26zM622 731q2 -1 3 -9t1 -15t-1 -15t-3 -9h-375q-2 1 -3 9t-1 15t1 15t3 9h375zM256 694h356v18h-356v-18z" />
    <glyph glyph-name="Abreve" unicode="&#x102;" horiz-adv-x="1067" 
d="M164 133q42 72 83.5 149t83.5 154.5t84 154t85 148.5q9 13 14 13q4 0 6.5 -4t6.5 -9q35 -56 72 -117.5t73.5 -123.5t71.5 -122t66 -112t57 -95t45 -70q13 -21 29.5 -33.5t36.5 -19t45 -9t56 -3.5q8 -2 8 -18q0 -18 -8 -18q-44 1 -91 1.5t-113 0.5t-111.5 -1t-89.5 -2
q-8 0 -8 18q0 16 8 18q11 1 27.5 2t33.5 3q14 2 29.5 8.5t15.5 26.5q0 4 -10 23.5t-27 49t-39.5 68t-47.5 82.5h-345l-81 -154q-8 -16 -18 -37.5t-10 -32.5q0 -14 4.5 -22.5t24.5 -13.5q10 -2 25.5 -2.5t53.5 -0.5q8 -2 8 -17q0 -8 -2 -13.5t-6 -5.5q-22 1 -38.5 1.5
t-33.5 1t-39 0.5h-55h-54.5t-38 -0.5t-32.5 -1t-38 -1.5q-4 0 -6 5t-2 13q0 16 8 18q24 1 47 1.5t40 5.5q24 7 46.5 26.5t49.5 66.5zM473 598q-15 -28 -35 -66q-17 -33 -43 -81t-60 -111h293q-42 71 -82.5 139t-72.5 119zM508 658l-19 -33q15 -25 43 -70.5t61.5 -100.5
t69 -114t66.5 -112t54.5 -94t32.5 -60q7 -12 7 -25q0 -11 -7 -18q-2 -2 -2 -3q0 -3 4 -3q5 0 13 4q11 7 16 20t5 22q0 14 -7 26zM350 979q4 3 10 5.5t11 2.5q8 0 14 -1.5t8 -3.5q0 -49 30.5 -82.5t92.5 -33.5q61 0 91.5 33.5t30.5 82.5q4 3 10 4t11 1q8 0 14 -1.5t8 -3.5
q0 -39 -8.5 -74t-27.5 -61t-51 -41t-78 -15q-47 0 -78.5 15t-51 40.5t-28 60t-8.5 72.5zM516 831q-47 0 -78.5 22t-62.5 64q3 -12 10.5 -30.5t23 -35.5t41.5 -29t66 -12t66 12t41.5 29t23 35.5t10.5 30.5q-31 -42 -62.5 -64t-78.5 -22z" />
    <glyph glyph-name="abreve" unicode="&#x103;" horiz-adv-x="866" 
d="M-10 33q32 0 59.5 2.5t44.5 9.5q14 5 28 18t30 40q28 47 61.5 107.5t68.5 123t69 121.5t63 103q9 13 14 13q4 0 6.5 -4t6.5 -9q63 -95 131 -213t143 -246q12 -20 26.5 -32.5t33 -19.5t42.5 -9.5t54 -3.5q8 -2 8 -18q0 -18 -8 -18q-22 1 -43 1.5t-43.5 0.5h-49h-59.5
h-54.5t-39 -0.5t-33.5 -1t-38 -1.5q-8 0 -8 18q0 7 2 12.5t6 5.5q17 1 26.5 1.5t26.5 2.5q15 2 25.5 7t10.5 17q0 13 -19 49.5t-61 108.5h-255q-27 -49 -42.5 -78.5t-24 -46t-11 -24t-2.5 -11.5q0 -11 9 -16t26 -7t26 -2t20 -1q8 -2 8 -18q0 -18 -8 -18q-22 1 -35 1.5
t-26.5 1t-32 0.5h-51.5h-42.5t-29.5 -0.5l-26 -1t-33 -1.5q-8 0 -8 18q0 16 8 18zM391 443q-18 -30 -36 -62q-16 -27 -35 -60.5t-37 -66.5h217zM424 489l-16 -30q15 -25 35 -58t41.5 -69.5t43.5 -74t41.5 -72t34.5 -63.5t24 -48q7 -12 7 -25q0 -11 -7 -18q-2 -2 -2 -3
q0 -3 4 -3q5 0 13 4q11 7 15 17t4 19q0 15 -6 26zM258 819q4 3 10 5.5t11 2.5q8 0 14 -1.5t8 -3.5q0 -49 30.5 -82.5t92.5 -33.5q61 0 91.5 33.5t30.5 82.5q4 3 10 4t11 1q8 0 14 -1.5t8 -3.5q0 -39 -8.5 -74t-27.5 -61t-51 -41t-78 -15q-47 0 -78.5 15t-51 40.5t-28 60
t-8.5 72.5zM424 671q-47 0 -78.5 22t-62.5 64q3 -12 10.5 -30.5t23 -35.5t41.5 -29t66 -12t66 12t41.5 29t23 35.5t10.5 30.5q-31 -42 -62.5 -64t-78.5 -22z" />
    <glyph glyph-name="Aogonek" unicode="&#x104;" horiz-adv-x="1067" 
d="M508 658l-19 -33q15 -25 43 -70.5t61.5 -100.5t69 -114t66.5 -112t54.5 -94t32.5 -60q7 -12 7 -25q0 -11 -7 -18q-2 -2 -2 -3q0 -3 4 -3q5 0 13 4q11 7 16 20t5 22q0 14 -7 26zM667 -76q-17 -17 -29 -42.5t-12 -49.5q0 -26 17 -47t47 -21q14 0 22.5 4t13.5 9
q-2 0 -4 -0.5t-4 -0.5q-9 0 -20.5 3t-21.5 10.5t-17 20.5t-7 33q0 16 4 40.5t11 40.5zM473 598q-15 -28 -35 -66q-17 -33 -43 -81t-60 -111h293q-42 71 -82.5 139t-72.5 119zM759 117q-17 31 -44 77t-59 102h-345l-81 -154q-8 -16 -18 -37.5t-10 -32.5q0 -14 4.5 -22.5
t24.5 -13.5q10 -2 25.5 -2.5t53.5 -0.5q8 -2 8 -17q0 -8 -2 -13.5t-6 -5.5q-22 1 -38.5 1.5t-33.5 1t-39 0.5h-55h-54.5t-38 -0.5t-32.5 -1t-38 -1.5q-4 0 -6 5t-2 13q0 16 8 18q24 1 47 1.5t40 5.5q24 7 46.5 26.5t49.5 66.5q42 72 83.5 149t83.5 154.5t84 154t85 148.5
q9 13 14 13q4 0 6.5 -4t6.5 -9q35 -56 72 -117.5t73.5 -123.5t71.5 -122t66 -112t57 -95t45 -70q13 -21 29.5 -33.5t36.5 -19t45 -9t56 -3.5q8 -2 8 -18q0 -18 -8 -18q-44 1 -91 1.5t-113 0.5q-32 0 -67.5 -13.5t-65 -35.5t-48.5 -50t-19 -57q0 -26 10.5 -36t25.5 -10
q20 0 38.5 14.5t27.5 28.5q14 -2 21 -6t12 -13q-17 -31 -47.5 -53.5t-73.5 -22.5q-22 0 -38 8.5t-26 22t-15 29t-5 30.5q0 35 14.5 61t36 47t47 38.5t48.5 35.5q6 5 17 17.5t11 32.5q0 13 -7 25t-13 24z" />
    <glyph glyph-name="aogonek" unicode="&#x105;" horiz-adv-x="866" 
d="M505 -79q-16 -14 -29 -39.5t-13 -49.5q0 -26 16.5 -47t46.5 -21q14 0 22.5 4t13.5 9q-2 0 -4 -0.5t-4 -0.5q-9 0 -20.5 3t-21.5 10.5t-17 20.5t-7 33q0 16 5 39t12 39zM424 489l-16 -30q15 -25 35 -58t41.5 -69.5t43.5 -74t41.5 -72t34.5 -63.5t24 -48q7 -12 7 -25
q0 -11 -7 -18q-2 -2 -2 -3q0 -3 4 -3q5 0 13 4q11 7 15 17t4 19q0 15 -6 26zM676 0q-25 0 -54 -15.5t-53.5 -38.5t-41 -49.5t-16.5 -50.5q0 -26 10.5 -37t25.5 -11q20 0 38.5 14.5t27.5 28.5q14 -2 21 -6t12 -13q-17 -31 -47.5 -53.5t-73.5 -22.5q-22 0 -38 8.5t-26 21
t-15 28t-5 30.5q0 31 14 56.5t34.5 47t44 40t43.5 35.5q5 5 14 18.5t9 29.5q0 9 -5.5 20.5t-10.5 22.5q-10 20 -25.5 48t-38.5 67h-255q-27 -49 -42.5 -78.5t-24 -46t-11 -24t-2.5 -11.5q0 -11 9 -16t26 -7t26 -2t20 -1q8 -2 8 -18q0 -18 -8 -18q-22 1 -35 1.5t-26.5 1
t-32 0.5h-51.5h-42.5t-29.5 -0.5l-26 -1t-33 -1.5q-8 0 -8 18q0 16 8 18q32 0 59.5 2.5t44.5 9.5q14 5 28 18t30 40q28 47 61.5 107.5t68.5 123t69 121.5t63 103q9 13 14 13q4 0 6.5 -4t6.5 -9q63 -95 131 -213t143 -246q12 -20 26 -32.5t32.5 -19.5t42.5 -9.5t55 -3.5
q8 -2 8 -18q0 -18 -8 -18q-22 1 -43 1.5t-43.5 0.5h-49h-59.5zM391 443q-18 -30 -36 -62q-16 -27 -35 -60.5t-37 -66.5h217z" />
    <glyph glyph-name="Cacute" unicode="&#x106;" horiz-adv-x="1075" 
d="M570 -22q-59 0 -119.5 9t-116.5 28.5t-105.5 49t-86.5 71t-58 95t-21 119.5t21 119.5t58 95t86.5 71.5t105.5 49.5t116.5 28.5t119.5 9q64 0 114 -6.5t88 -16.5t66 -21.5t48 -21.5l15 2l9 31q1 3 6 5t10 2t11 -2t6 -5q5 -56 21 -116.5t37 -119.5q-2 -7 -11 -10.5
t-17 -3.5q-5 0 -9 2t-5 5q-16 55 -40 98.5t-66 74t-108 47t-165 16.5q-46 0 -92 -7t-88 -23.5t-78.5 -42t-63.5 -62.5t-42.5 -86t-15.5 -112q0 -94 32 -157.5t84.5 -102.5t118.5 -55.5t135 -16.5q102 0 170.5 17t112 47.5t67.5 73.5t39 94q2 7 11 7q6 0 16.5 -4t12.5 -11
q-21 -59 -37 -119.5t-21 -115.5q0 -2 -5 -4t-10 -2t-8.5 1t-4.5 3l-11 38l-12 2q-22 -11 -50.5 -23t-67 -22t-88.5 -16t-114 -6zM93 351q0 -51 16.5 -97.5t43 -84t61 -65.5t70.5 -43q-72 57 -114 127.5t-42 162.5t42 162.5t114 127.5q-36 -15 -70.5 -43t-61 -65.5t-43 -84
t-16.5 -97.5zM438 794q-1 -1 -2 -1q-1 -1 -2 -1h-1q-5 0 -10 6.5t-5 11.5l1 2l2 2q42 42 79.5 82.5t82.5 75.5q17 14 40 14q15 0 24.5 -9t9.5 -23t-7.5 -26t-18.5 -20q-45 -35 -96 -63t-97 -51zM468 840q0 -2 1.5 -4t3.5 -2q23 14 46.5 30.5t42.5 31.5q22 18 42 35
q2 2 6.5 5.5t4.5 8.5q0 4 -4 8t-7 4q-5 0 -12 -6q-15 -12 -27.5 -23.5t-26.5 -24t-29.5 -27t-36.5 -32.5l-2 -2z" />
    <glyph glyph-name="cacute" unicode="&#x107;" horiz-adv-x="865" 
d="M475 18q63 0 111.5 8t85 29t62 56.5t42.5 90.5q3 4 11 4q7 0 14.5 -4.5t10.5 -9.5q-26 -59 -31.5 -108t-7.5 -90q0 -4 -3.5 -6t-8.5 -3q-5 0 -9.5 3t-5.5 7l-10 34l-12 2q-22 -11 -45.5 -20t-53.5 -15.5t-69 -10t-91 -3.5q-76 0 -149.5 15.5t-131.5 50t-93.5 89
t-35.5 132.5t37 133t95.5 89t131.5 49.5t145 15.5q52 0 91 -3.5t69 -10t53.5 -15.5t45.5 -20l12 2l10 34q1 4 5.5 7t9.5 3q5 -1 8.5 -3t3.5 -6q2 -41 7.5 -90t31.5 -108q-3 -5 -10.5 -9.5t-14.5 -4.5q-8 0 -11 4q-17 55 -42.5 90.5t-62 56.5t-85 29t-111.5 8
q-56 0 -110.5 -12.5t-98 -41.5t-70 -77t-26.5 -120q0 -71 26.5 -119t70 -77t98.5 -42t111 -13zM80 271q0 -48 17.5 -88t44.5 -71t59.5 -52.5t63.5 -31.5q-69 48 -110 106.5t-41 136.5t39 134t100 97q-29 -7 -60 -28.5t-56 -52.5t-41 -69.5t-16 -80.5zM368 616q-1 -1 -2 -1
q-1 -1 -2 -1h-1q-5 0 -10 6.5t-5 11.5l1 2l2 2q42 42 79.5 82.5t82.5 75.5q17 14 40 14q15 0 24.5 -9t9.5 -23t-7.5 -26t-18.5 -20q-45 -35 -96 -63t-97 -51zM398 662q0 -2 1.5 -4t3.5 -2q23 14 46.5 30.5t42.5 31.5q22 18 42 35q2 2 6.5 5.5t4.5 8.5q0 4 -4 8t-7 4
q-5 0 -12 -6q-15 -12 -27.5 -23.5t-26.5 -24t-29.5 -27t-36.5 -32.5l-2 -2z" />
    <glyph glyph-name="Ccircumflex" unicode="&#x108;" horiz-adv-x="1075" 
d="M570 -22q-59 0 -119.5 9t-116.5 28.5t-105.5 49t-86.5 71t-58 95t-21 119.5t21 119.5t58 95t86.5 71.5t105.5 49.5t116.5 28.5t119.5 9q64 0 114 -6.5t88 -16.5t66 -21.5t48 -21.5l15 2l9 31q1 3 6 5t10 2t11 -2t6 -5q5 -56 21 -116.5t37 -119.5q-2 -7 -11 -10.5
t-17 -3.5q-5 0 -9 2t-5 5q-16 55 -40 98.5t-66 74t-108 47t-165 16.5q-46 0 -92 -7t-88 -23.5t-78.5 -42t-63.5 -62.5t-42.5 -86t-15.5 -112q0 -94 32 -157.5t84.5 -102.5t118.5 -55.5t135 -16.5q102 0 170.5 17t112 47.5t67.5 73.5t39 94q2 7 11 7q6 0 16.5 -4t12.5 -11
q-21 -59 -37 -119.5t-21 -115.5q0 -2 -5 -4t-10 -2t-8.5 1t-4.5 3l-11 38l-12 2q-22 -11 -50.5 -23t-67 -22t-88.5 -16t-114 -6zM93 351q0 -51 16.5 -97.5t43 -84t61 -65.5t70.5 -43q-72 57 -114 127.5t-42 162.5t42 162.5t114 127.5q-36 -15 -70.5 -43t-61 -65.5t-43 -84
t-16.5 -97.5zM397 777q-8 0 -18.5 8.5t-10.5 13.5l162 181q4 4 9 5t9 1q3 0 8 -1t9 -5l163 -181q0 -5 -10.5 -13.5t-18.5 -8.5h-6q-30 27 -57 53q-23 22 -47.5 44.5t-40.5 37.5q-16 -15 -41 -37.5t-48 -44.5q-27 -26 -57 -53h-5zM630 860q1 0 3 1.5t2 3.5q-14 17 -28.5 33
t-25.5 28q-13 14 -26 27q-2 2 -5.5 5t-8.5 3q-4 0 -8.5 -3.5t-7.5 -6.5q-21 -26 -56 -63t-71 -78l-2 -2q-1 -1 -1 -2t3 -4.5t5 -3.5l140 138l80 -71q1 -2 3 -3z" />
    <glyph glyph-name="ccircumflex" unicode="&#x109;" horiz-adv-x="865" 
d="M475 18q63 0 111.5 8t85 29t62 56.5t42.5 90.5q3 4 11 4q7 0 14.5 -4.5t10.5 -9.5q-26 -59 -31.5 -108t-7.5 -90q0 -4 -3.5 -6t-8.5 -3q-5 0 -9.5 3t-5.5 7l-10 34l-12 2q-22 -11 -45.5 -20t-53.5 -15.5t-69 -10t-91 -3.5q-76 0 -149.5 15.5t-131.5 50t-93.5 89
t-35.5 132.5t37 133t95.5 89t131.5 49.5t145 15.5q52 0 91 -3.5t69 -10t53.5 -15.5t45.5 -20l12 2l10 34q1 4 5.5 7t9.5 3q5 -1 8.5 -3t3.5 -6q2 -41 7.5 -90t31.5 -108q-3 -5 -10.5 -9.5t-14.5 -4.5q-8 0 -11 4q-17 55 -42.5 90.5t-62 56.5t-85 29t-111.5 8
q-56 0 -110.5 -12.5t-98 -41.5t-70 -77t-26.5 -120q0 -71 26.5 -119t70 -77t98.5 -42t111 -13zM80 271q0 -48 17.5 -88t44.5 -71t59.5 -52.5t63.5 -31.5q-69 48 -110 106.5t-41 136.5t39 134t100 97q-29 -7 -60 -28.5t-56 -52.5t-41 -69.5t-16 -80.5zM299 611
q-8 0 -18.5 8.5t-10.5 13.5l162 181q4 4 9 5t9 1q3 0 8 -1t9 -5l163 -181q0 -5 -10.5 -13.5t-18.5 -8.5h-6q-30 27 -57 53q-23 22 -47.5 44.5t-40.5 37.5q-16 -15 -41 -37.5t-48 -44.5q-27 -26 -57 -53h-5zM532 694q1 0 3 1.5t2 3.5q-14 17 -28.5 33t-25.5 28q-13 14 -26 27
q-2 2 -5.5 5t-8.5 3q-4 0 -8.5 -3.5t-7.5 -6.5q-21 -26 -56 -63t-71 -78l-2 -2q-1 -1 -1 -2t3 -4.5t5 -3.5l140 138l80 -71q1 -2 3 -3z" />
    <glyph glyph-name="Cdotaccent" unicode="&#x10a;" horiz-adv-x="1075" 
d="M570 -22q-59 0 -119.5 9t-116.5 28.5t-105.5 49t-86.5 71t-58 95t-21 119.5t21 119.5t58 95t86.5 71.5t105.5 49.5t116.5 28.5t119.5 9q64 0 114 -6.5t88 -16.5t66 -21.5t48 -21.5l15 2l9 31q1 3 6 5t10 2t11 -2t6 -5q5 -56 21 -116.5t37 -119.5q-2 -7 -11 -10.5
t-17 -3.5q-5 0 -9 2t-5 5q-16 55 -40 98.5t-66 74t-108 47t-165 16.5q-46 0 -92 -7t-88 -23.5t-78.5 -42t-63.5 -62.5t-42.5 -86t-15.5 -112q0 -94 32 -157.5t84.5 -102.5t118.5 -55.5t135 -16.5q102 0 170.5 17t112 47.5t67.5 73.5t39 94q2 7 11 7q6 0 16.5 -4t12.5 -11
q-21 -59 -37 -119.5t-21 -115.5q0 -2 -5 -4t-10 -2t-8.5 1t-4.5 3l-11 38l-12 2q-22 -11 -50.5 -23t-67 -22t-88.5 -16t-114 -6zM93 351q0 -51 16.5 -97.5t43 -84t61 -65.5t70.5 -43q-72 57 -114 127.5t-42 162.5t42 162.5t114 127.5q-36 -15 -70.5 -43t-61 -65.5t-43 -84
t-16.5 -97.5zM487 906q0 26 18 44t44 18q28 0 47 -18t19 -44t-19 -46t-47 -20q-26 0 -44 20t-18 46zM551 854q-7 4 -14 17.5t-7 30.5q0 14 3 28t13 25q-18 -4 -30 -19t-12 -34q0 -17 12 -31.5t35 -16.5z" />
    <glyph glyph-name="cdotaccent" unicode="&#x10b;" horiz-adv-x="865" 
d="M475 18q63 0 111.5 8t85 29t62 56.5t42.5 90.5q3 4 11 4q7 0 14.5 -4.5t10.5 -9.5q-26 -59 -31.5 -108t-7.5 -90q0 -4 -3.5 -6t-8.5 -3q-5 0 -9.5 3t-5.5 7l-10 34l-12 2q-22 -11 -45.5 -20t-53.5 -15.5t-69 -10t-91 -3.5q-76 0 -149.5 15.5t-131.5 50t-93.5 89
t-35.5 132.5t37 133t95.5 89t131.5 49.5t145 15.5q52 0 91 -3.5t69 -10t53.5 -15.5t45.5 -20l12 2l10 34q1 4 5.5 7t9.5 3q5 -1 8.5 -3t3.5 -6q2 -41 7.5 -90t31.5 -108q-3 -5 -10.5 -9.5t-14.5 -4.5q-8 0 -11 4q-17 55 -42.5 90.5t-62 56.5t-85 29t-111.5 8
q-56 0 -110.5 -12.5t-98 -41.5t-70 -77t-26.5 -120q0 -71 26.5 -119t70 -77t98.5 -42t111 -13zM80 271q0 -48 17.5 -88t44.5 -71t59.5 -52.5t63.5 -31.5q-69 48 -110 106.5t-41 136.5t39 134t100 97q-29 -7 -60 -28.5t-56 -52.5t-41 -69.5t-16 -80.5zM397 708q0 26 18 44
t44 18q28 0 47 -18t19 -44t-19 -46t-47 -20q-26 0 -44 20t-18 46zM461 656q-7 4 -14 17.5t-7 30.5q0 14 3 28t13 25q-18 -4 -30 -19t-12 -34q0 -17 12 -31.5t35 -16.5z" />
    <glyph glyph-name="Ccaron" unicode="&#x10c;" horiz-adv-x="1075" 
d="M570 -22q-59 0 -119.5 9t-116.5 28.5t-105.5 49t-86.5 71t-58 95t-21 119.5t21 119.5t58 95t86.5 71.5t105.5 49.5t116.5 28.5t119.5 9q64 0 114 -6.5t88 -16.5t66 -21.5t48 -21.5l15 2l9 31q1 3 6 5t10 2t11 -2t6 -5q5 -56 21 -116.5t37 -119.5q-2 -7 -11 -10.5
t-17 -3.5q-5 0 -9 2t-5 5q-16 55 -40 98.5t-66 74t-108 47t-165 16.5q-46 0 -92 -7t-88 -23.5t-78.5 -42t-63.5 -62.5t-42.5 -86t-15.5 -112q0 -94 32 -157.5t84.5 -102.5t118.5 -55.5t135 -16.5q102 0 170.5 17t112 47.5t67.5 73.5t39 94q2 7 11 7q6 0 16.5 -4t12.5 -11
q-21 -59 -37 -119.5t-21 -115.5q0 -2 -5 -4t-10 -2t-8.5 1t-4.5 3l-11 38l-12 2q-22 -11 -50.5 -23t-67 -22t-88.5 -16t-114 -6zM93 351q0 -51 16.5 -97.5t43 -84t61 -65.5t70.5 -43q-72 57 -114 127.5t-42 162.5t42 162.5t114 127.5q-36 -15 -70.5 -43t-61 -65.5t-43 -84
t-16.5 -97.5zM688 987q8 0 18.5 -8.5t10.5 -13.5l-162 -181q-4 -4 -9 -5t-9 -1q-3 0 -8 1t-9 5l-163 181q0 5 10.5 13.5t18.5 8.5h6q30 -27 57 -53q23 -22 47.5 -45t40.5 -37q16 14 41 37t48 45q27 26 57 53h5zM625 900q-1 0 -3 -2q-1 -1 -2 -1q-9 -8 -21 -19l-24 -22
t-21.5 -19.5t-13.5 -11.5q-5 3 -22.5 19.5t-40 38t-46 43.5t-41.5 37q-2 0 -4 -2t-2 -3t1 -2l2 -2q36 -41 74 -81t63 -64q3 -3 7.5 -6.5t8.5 -3.5q5 0 8.5 3t5.5 5q11 12 24 26q11 12 24.5 28t27.5 34q0 2 -2 3.5t-3 1.5z" />
    <glyph glyph-name="ccaron" unicode="&#x10d;" horiz-adv-x="865" 
d="M475 18q63 0 111.5 8t85 29t62 56.5t42.5 90.5q3 4 11 4q7 0 14.5 -4.5t10.5 -9.5q-26 -59 -31.5 -108t-7.5 -90q0 -4 -3.5 -6t-8.5 -3q-5 0 -9.5 3t-5.5 7l-10 34l-12 2q-22 -11 -45.5 -20t-53.5 -15.5t-69 -10t-91 -3.5q-76 0 -149.5 15.5t-131.5 50t-93.5 89
t-35.5 132.5t37 133t95.5 89t131.5 49.5t145 15.5q52 0 91 -3.5t69 -10t53.5 -15.5t45.5 -20l12 2l10 34q1 4 5.5 7t9.5 3q5 -1 8.5 -3t3.5 -6q2 -41 7.5 -90t31.5 -108q-3 -5 -10.5 -9.5t-14.5 -4.5q-8 0 -11 4q-17 55 -42.5 90.5t-62 56.5t-85 29t-111.5 8
q-56 0 -110.5 -12.5t-98 -41.5t-70 -77t-26.5 -120q0 -71 26.5 -119t70 -77t98.5 -42t111 -13zM80 271q0 -48 17.5 -88t44.5 -71t59.5 -52.5t63.5 -31.5q-69 48 -110 106.5t-41 136.5t39 134t100 97q-29 -7 -60 -28.5t-56 -52.5t-41 -69.5t-16 -80.5zM589 818q8 0 18.5 -8.5
t10.5 -13.5l-162 -181q-4 -4 -9 -5t-9 -1q-3 0 -8 1t-9 5l-163 181q0 5 10.5 13.5t18.5 8.5h6q30 -27 57 -53q23 -22 47.5 -45t40.5 -37q16 14 41 37t48 45q27 26 57 53h5zM526 731q-1 0 -3 -2q-1 -1 -2 -1q-9 -8 -21 -19l-24 -22t-21.5 -19.5t-13.5 -11.5q-5 3 -22.5 19.5
t-40 38t-46 43.5t-41.5 37q-2 0 -4 -2t-2 -3t1 -2l2 -2q36 -41 74 -81t63 -64q3 -3 7.5 -6.5t8.5 -3.5q5 0 8.5 3t5.5 5q11 12 24 26q11 12 24.5 28t27.5 34q0 2 -2 3.5t-3 1.5z" />
    <glyph glyph-name="Dcaron" unicode="&#x10e;" horiz-adv-x="1103" 
d="M585 700q99 0 182.5 -19t144.5 -60t95 -106.5t34 -159.5q0 -88 -37.5 -154.5t-101.5 -111t-147.5 -67t-174.5 -22.5h-327q-45 0 -88 -0.5t-94 -1.5q-8 0 -8 19q0 6 2 11t6 6q36 1 60 2t35 4q24 6 32 19.5t8 48.5v484q0 35 -8 48t-29 19q-14 4 -38 5t-60 2q-8 2 -8 17
q0 8 2 13.5t6 5.5q11 0 30.5 -0.5t43.5 -1t51.5 -0.5h56.5h332zM328 104q0 -60 52 -60h189q78 0 142 17t109.5 53.5t70 95t24.5 142.5q0 90 -24.5 149t-68.5 93.5t-105 48t-134 13.5h-203q-52 0 -52 -47v-505zM949 351q0 -200 -157 -283q95 29 144 98t49 185q0 55 -15.5 105
t-41.5 89t-61 64.5t-75 31.5q36 -16 65 -44.5t49.5 -66t31.5 -83.5t11 -96zM232 74q0 -11 -5 -22t-16 -14l-3 -2q0 -3 5.5 -4t10.5 -1q24 1 32.5 16.5t8.5 28.5v550q0 13 -7.5 28.5t-30.5 16.5q-5 0 -12 -1t-7 -4q0 -1 3 -2q11 -3 16 -14t5 -22v-554zM702 987q8 0 18.5 -8.5
t10.5 -13.5l-162 -181q-4 -4 -9 -5t-9 -1q-3 0 -8 1t-9 5l-163 181q0 5 10.5 13.5t18.5 8.5h6q30 -27 57 -53q23 -22 47.5 -45t40.5 -37q16 14 41 37t48 45q27 26 57 53h5zM639 900q-1 0 -3 -2q-1 -1 -2 -1q-9 -8 -21 -19l-24 -22t-21.5 -19.5t-13.5 -11.5q-5 3 -22.5 19.5
t-40 38t-46 43.5t-41.5 37q-2 0 -4 -2t-2 -3t1 -2l2 -2q36 -41 74 -81t63 -64q3 -3 7.5 -6.5t8.5 -3.5q5 0 8.5 3t5.5 5q11 12 24 26q11 12 24.5 28t27.5 34q0 2 -2 3.5t-3 1.5z" />
    <glyph glyph-name="dcaron" unicode="&#x10f;" horiz-adv-x="1017" 
d="M274 0h-108t-95 -2q-4 0 -6 5.5t-2 13.5q0 15 8 17q20 1 46.5 1t42.5 4q20 5 27 18t7 48v330q0 35 -7 48t-27 18q-16 4 -42.5 4t-46.5 1q-8 2 -8 17q0 8 2 13.5t6 5.5q20 -1 56.5 -1.5t78 -0.5h81.5h66h174q99 0 176.5 -13.5t131.5 -45t82 -83t28 -127.5
q0 -74 -28 -125.5t-81 -83.5t-130.5 -47t-176.5 -15h-255zM504 38q74 0 134 10t103 36t66 71t23 116q0 70 -25 115t-68.5 71t-103.5 35.5t-129 9.5h-121q-23 0 -38.5 -1t-25.5 -6.5t-14.5 -16.5t-4.5 -30v-356q0 -20 4.5 -30.5t14.5 -16t25.5 -6.5t38.5 -1h121zM857 271
q0 -85 -42.5 -143t-109.5 -81q39 4 73 23.5t59 49.5t39.5 68.5t14.5 82.5q0 46 -15.5 86t-41.5 69t-59 46.5t-68 20.5q28 -8 55 -26.5t48 -47t34 -65.5t13 -83zM218 73q0 -11 -5 -21.5t-15 -13.5l-3 -2q0 -3 5.5 -4t10.5 -1q23 1 31 16t8 28v387q0 13 -7 28t-30 16
q-5 0 -11.5 -1t-6.5 -4q0 -1 3 -2q10 -3 15 -13.5t5 -21.5v-391zM639 816q8 0 18.5 -8.5t10.5 -13.5l-162 -181q-4 -4 -9 -5t-9 -1q-3 0 -8 1t-9 5l-163 181q0 5 10.5 13.5t18.5 8.5h6q30 -27 57 -53q23 -22 47.5 -45t40.5 -37q16 14 41 37t48 45q27 26 57 53h5zM576 729
q-1 0 -3 -2q-1 -1 -2 -1q-9 -8 -21 -19l-24 -22t-21.5 -19.5t-13.5 -11.5q-5 3 -22.5 19.5t-40 38t-46 43.5t-41.5 37q-2 0 -4 -2t-2 -3t1 -2l2 -2q36 -41 74 -81t63 -64q3 -3 7.5 -6.5t8.5 -3.5q5 0 8.5 3t5.5 5q11 12 24 26q11 12 24.5 28t27.5 34q0 2 -2 3.5t-3 1.5z" />
    <glyph glyph-name="Dcroat" unicode="&#x110;" horiz-adv-x="1108" 
d="M590 700q99 0 182.5 -19t144.5 -60t95 -106.5t34 -159.5q0 -88 -37.5 -154.5t-101.5 -111t-147.5 -67t-174.5 -22.5h-327q-45 0 -88 -0.5t-94 -1.5q-8 0 -8 19q0 6 2 11t6 6q36 1 60 2t35 4q24 6 32 19.5t8 48.5v230h-141q-2 1 -3 8t-1 13t1 13t3 8h141v212q0 35 -8 48
t-29 19q-14 4 -38 5t-60 2q-8 2 -8 17q0 8 2 13.5t6 5.5q11 0 30.5 -0.5t43.5 -1t51.5 -0.5h56.5h332zM333 380h115q2 -1 3 -8t1 -13t-1 -13t-3 -8h-115v-234q0 -60 52 -60h189q78 0 142 17t109.5 53.5t70 95t24.5 142.5q0 90 -24.5 149t-68.5 93.5t-105 48t-134 13.5h-203
q-52 0 -52 -47v-229zM952 351q0 -200 -157 -283q95 29 144 98t49 185q0 55 -15.5 105t-41.5 89t-61 64.5t-75 31.5q36 -16 65 -44.5t49.5 -66t31.5 -83.5t11 -96zM235 74q0 -11 -5 -22t-16 -14l-3 -2q0 -3 5.5 -4t10.5 -1q24 1 32.5 16.5t8.5 28.5v550q0 13 -7.5 28.5
t-30.5 16.5q-5 0 -12 -1t-7 -4q0 -1 3 -2q11 -3 16 -14t5 -22v-554z" />
    </font>
</defs>
</svg>
