<?xml version="1.0" standalone="no"?>
<!DOCTYPE svg PUBLIC "-//W3C//DTD SVG 1.1//EN" "http://www.w3.org/Graphics/SVG/1.1/DTD/svg11.dtd" >
<svg xmlns="http://www.w3.org/2000/svg" xmlns:xlink="http://www.w3.org/1999/xlink" version="1.1">
<metadata>
Created by FontForge 20200427 at Sun May 12 23:42:20 2013
 By www
Copyright \(c\) Manfred Klein, 2006. All rights reserved.
</metadata>
<defs>
<font id="IrishUncialfabeta-Bold" horiz-adv-x="586" >
  <font-face 
    font-family="IrishUncialfabeta-Bold"
    font-weight="700"
    font-stretch="normal"
    units-per-em="1000"
    panose-1="2 0 8 3 8 0 0 2 0 4"
    ascent="800"
    descent="-200"
    x-height="582"
    cap-height="756"
    bbox="-128.158 -272 1023 820"
    underline-thickness="50"
    underline-position="-125"
    unicode-range="U+001A-20AC"
    descenders="fqgjrxyFGQJRXY"
    invert="1"
    licence="IrishUncialfabeta-Bold - http://www.onlinewebfonts.com oNline Web Fonts is licensed by CC BY 3.0"
  />
<missing-glyph horiz-adv-x="307" 
 />
    <glyph glyph-name=".notdef" horiz-adv-x="307" 
 />
    <glyph glyph-name="fi" horiz-adv-x="307" 
 />
    <glyph glyph-name="space" unicode=" " horiz-adv-x="234" 
 />
    <glyph glyph-name="exclam" unicode="!" horiz-adv-x="196" 
d="M106 141q0 -8 -6 -10l-49 -20q-6 -2 -11 0t-5 9v442q0 8 6 10l89 41q6 3 11.5 0t4.5 -10zM147 16q6 -11 -5 -15l-76 -24q-11 -4 -14 7l-2 5q-5 11 -11.5 28.5t-11.5 29.5q0 1 -0.5 2t-0.5 2q-1 5 -1 7q0 8 6 10l63 21q6 2 11 0.5t5 -8.5v-3q2 -1 4 -5q2 -8 7 -15.5
t10 -15.5q12 -16 16 -26z" />
    <glyph glyph-name="quotedbl" unicode="&#x22;" horiz-adv-x="347" 
d="M324 713q-3 -37 -14.5 -71.5l-22.5 -67.5q-9 -26 -17 -52.5t-13 -56.5q0 -2 -2.5 -4t-2.5 -3l-90 -42q-7 -3 -12 1t-4 11q5 28 13 58t15 54q11 32 18.5 64.5t11.5 65.5q0 7 6 9l98 44zM204 714q0 -42 -12 -78t-25 -68q-11 -23 -20 -49.5t-12 -52.5q0 -6 -6 -8l-90 -41
q-7 -3 -12 0.5t-4 10.5q4 29 13 56t18 52q12 29 21.5 62t9.5 71q0 8 6 10l97 44l15 -9h1z" />
    <glyph glyph-name="numbersign" unicode="#" horiz-adv-x="708" 
d="M675 492l1 1l-84 -66h-60q-2 -8 -4 -15.5t-4 -14.5q-6 -19 -10.5 -33t-9.5 -30q46 0 68.5 -0.5t26.5 -0.5h5l13 -18l-94 -47l-37 1q-2 -8 -4 -15.5t-4 -14.5q-4 -15 -6.5 -27t-7.5 -24q0 -4 -5 -6l-94 -42q-8 -3 -13 1t-1 12q2 5 7 22.5t9 34.5q3 13 6 27t9 32h-140
q-2 -8 -4 -13v1q-10 -23 -18.5 -45t-16.5 -39l-98 -45q-8 -3 -12.5 1.5t-1.5 12.5q13 28 24.5 57t27.5 70h-107q-9 0 -11 8t6 12l97 45h40q9 26 17.5 47t17.5 44q-34 0 -68.5 -0.5t-68.5 -0.5q-9 0 -11 8t6 12l98 46h67q11 29 18.5 50.5l7.5 21.5q2 5 5 6l102 37l-7 -31
t-26 -83q32 0 63 0.5t65 0.5q5 17 10 33l10 32l2 4t3 3l96 35l-4 -29.5t-18 -76.5q60 0 86 0.5t36 0.5h8zM302 426q-10 -26 -17 -45.5t-17 -46.5h134q8 24 15 46.5t15 45.5h-130z" />
    <glyph glyph-name="dollar" unicode="$" horiz-adv-x="422" 
d="M397 216q0 -35 -20.5 -67t-49.5 -46l-92 -42q1 -52 1 -68t1 -17l-17 -2l11 -8l-92 -46q-6 -3 -10.5 -0.5t-4.5 9.5l-2 4q0 9 8 11l-1 4t-2 29.5t-1 80.5q0 1 2 5q-32 17 -59 45.5t-44 57.5q-6 9 5 15l100 46q8 4 13 -4q9 -16 22 -32.5t28.5 -30.5t33 -24.5t35.5 -14.5
q11 19 16 39.5t-1 38.5v-1q-10 25 -32 34.5t-48 17.5q-5 2 -17.5 6l-12.5 4h1q-5 2 -10 3.5t-13 3.5q-15 4 -32 10t-33.5 14.5t-29 20t-18.5 26.5q-3 9 -4.5 19.5t-1.5 18.5q0 18 4 35.5t11 33t17 27t22 17.5l82 38q-1 10 -1.5 19t-0.5 19q0 9 0.5 17t1.5 15q0 2 2 4.5
t4 3.5l97 45q7 2 12.5 -1.5t3.5 -10.5q-6 -33 -6 -67q0 -8 -0.5 -10.5t0.5 -9.5q33 -4 58 -23.5t39 -57.5q11 -30 11 -65q0 -7 -6 -9l-89 -41q-6 -3 -11 0t-5 10q0 19 -2 32t-6 25q-10 27 -30.5 42t-45.5 19l-4 -2l-4 -2q-9 -5 -13 5h-7q-18 -32 -18 -71q0 -15 3 -25v1
q4 -11 15 -19.5t25.5 -15t30 -11.5t28.5 -8q8 -2 13.5 -3.5t10.5 -3.5h1q8 -3 14.5 -5t13.5 -4q26 -8 54 -23t40 -46q6 -17 6 -34z" />
    <glyph glyph-name="percent" unicode="%" horiz-adv-x="700" 
d="M421 480q0 -22 -8 -44t-21 -40.5t-28 -32.5t-30 -21q-23 -10 -46 -21t-46 -21q-20 -9 -36 -9q-27 0 -47 19.5t-31 46.5q-5 11 -7 24.5t-2 24.5q0 25 8.5 49.5t26.5 44.5q-2 4 -0.5 8.5t6.5 6.5l110 49l15 3q11 2 22.5 3.5t25.5 1.5q25 0 46.5 -10.5t34.5 -44.5
q3 -9 5 -18.5t2 -18.5zM677 529q-14 -19 -29.5 -31t-32.5 -24q-8 -6 -16.5 -11.5t-16.5 -13.5q-17 -14 -32 -29.5t-29 -29.5q-29 -30 -62 -59.5t-75 -46.5l-5 -2l5 1q-40 -18 -73.5 -49.5t-66.5 -66.5q-27 -29 -55 -56t-64 -50l-86 -40q-6 -3 -11 0t-5 10v4q0 2 1.5 4.5
t3.5 4.5q30 19 56.5 46t52.5 54q33 35 67 68.5t79 53.5h1q38 17 67.5 44t58.5 56q15 15 31.5 30t33.5 30q11 8 19.5 15t17.5 13q13 8 25 18.5t25 27.5l101 46zM591 189q0 -22 -8 -44t-20.5 -40.5t-28 -32.5t-30.5 -21h1q-23 -10 -46 -21t-46 -21q-21 -9 -37 -9
q-27 0 -47 19.5t-30 46.5q-5 11 -7 24.5t-2 24.5q0 25 8.5 49.5t26.5 44.5q-2 4 -0.5 8.5t6.5 6.5l110 49l15 3q11 2 22 3.5t25 1.5q25 0 47.5 -10.5t34.5 -44.5q6 -18 6 -37zM304 439q0 16 -3 27q-8 20 -22 28.5t-32 9.5q-8 -14 -12 -31t-4 -31q0 -19 6 -37q11 -34 39 -43
q28 34 28 77zM475 148q0 8 -1 15t-3 12q-8 21 -21.5 29t-31.5 9q-8 -14 -12.5 -30.5t-4.5 -31.5q0 -19 6 -37q12 -32 40 -43q13 17 20.5 36.5t7.5 40.5z" />
    <glyph glyph-name="ampersand" unicode="&#x26;" horiz-adv-x="867" 
d="M844 80q-20 -15 -31.5 -21.5t-21.5 -11.5l-104 -48q-29 -13 -55 -13q-11 0 -22 2t-23 7q-37 16 -66.5 49t-52.5 74q-14 -10 -30 -21t-29 -17q-12 -6 -24.5 -14.5t-25 -18t-25 -18.5t-24.5 -14h1q-29 -14 -54.5 -19.5t-48.5 -5.5q-29 0 -54.5 13.5t-47.5 37.5t-40.5 56
t-31.5 70q-11 30 -11 63q0 85 40.5 163t124.5 131q24 15 45 25.5t42.5 17t44.5 9.5t50 3t52 -4t43 -9q29 -8 51 -32t32 -53q6 -17 6 -32q0 -26 -15 -49t-50 -39h-1q-5 -2 -4 -2q2 0 -3 -2q11 -16 21.5 -33.5t21.5 -36.5l104 48q8 4 12.5 -2.5t-0.5 -13.5q-14 -17 -28 -35.5
t-29 -37.5q-6 -8 -9.5 -14t-10.5 -14q28 -51 59.5 -92.5t73.5 -60.5q24 -11 47 -6q23 11 44.5 20t44.5 20zM440 401q1 13 -5 29q-9 23 -30.5 41t-44.5 24q-21 8 -50.5 11t-59.5 1q-21 -21 -40.5 -49t-34.5 -59.5t-23.5 -64.5t-8.5 -64q0 -26 8 -52v1q26 -70 64 -115t90 -45
q26 0 44.5 12t33 30.5t27 39.5t27.5 39l-6 12q-16 33 -32 63.5t-34 54t-39.5 38t-47.5 14.5q-25 0 -56 -15q-4 -2 -7.5 0t-5.5 6t-1.5 7.5t4.5 5.5q18 8 36.5 19t37.5 20.5t39 16t40 6.5q40 0 75 -27z" />
    <glyph glyph-name="quotesingle" unicode="'" horiz-adv-x="224" 
d="M199 718q-7 -17 -14.5 -42.5t-15.5 -51.5q-7 -24 -13.5 -48.5t-21.5 -53.5l-94 -44q-7 -3 -12 1.5t-2 12.5q10 24 17.5 50.5t13.5 52.5q5 23 10.5 46t16.5 45l101 46l14 -14v0z" />
    <glyph glyph-name="parenleft" unicode="(" horiz-adv-x="288" 
d="M224 736q-8 -18 -14 -34q-23 -53 -41.5 -108t-23.5 -120q-2 -22 -2 -44v-42q0 -72 5.5 -145t13.5 -135q1 -11 1.5 -20.5t2.5 -14.5v1q3 -8 6.5 -16.5t8.5 -17.5q2 -4 1.5 -9t-4.5 -7l-68 -46q-3 -3 -7 3q-12 18 -16 42v-2q-2 10 -3.5 18t-3.5 16l1 -1q-1 2 -1.5 6t-1.5 6
q-7 61 -12.5 133.5t-5.5 149.5q0 46 3 84q5 60 24.5 116t40.5 105q5 12 11.5 27t11.5 27l64 44l9 -16v0z" />
    <glyph glyph-name="parenright" unicode=")" horiz-adv-x="280" 
d="M226 428q0 -34 -4.5 -71t-12 -75t-17 -75t-20.5 -70q-8 -22 -19 -43t-16 -39q-2 -5 -5 -6l-80 -47q-5 -2 -9 2t-2 12q5 21 17 43.5t20 45.5q23 69 39 143t16 144q0 20 2.5 40t-2.5 39q-7 24 -13 54.5t-13 62.5t-15 63.5t-18 57.5q-2 5 -1 9t5 6l51 20q8 5 12 -4
q18 -48 38 -108t35 -115v-2v1q12 -41 12 -88z" />
    <glyph glyph-name="asterisk" unicode="*" horiz-adv-x="461" 
d="M438 586q-29 -25 -61 -46t-64 -40q26 -5 51.5 -8t52.5 -6q8 -1 10 -9t-6 -12l-100 -46q-26 2 -43 5q-2 -14 -4.5 -28.5t-5.5 -27.5q-2 -4 -6 -6l-95 -44q-7 -3 -12.5 1t-3.5 12q5 22 10 44.5t9 43.5q-14 -8 -23.5 -15t-22.5 -13l-85 -40q-6 -3 -11 0t-5 10v4q0 2 1 4.5
t3 3.5q25 17 52.5 32.5t54.5 30.5q6 4 12 7t11 6q-29 9 -57.5 22t-57.5 31q-6 4 -5.5 10t6.5 9l89 41q6 2 11 -1q10 -7 22 -13t23 -11q6 40 15 71q3 5 6 7l90 41q7 3 12 -1t3 -11q-8 -28 -12 -56t-9 -56q9 6 16 12t13 11l106 48l10 -17v0z" />
    <glyph glyph-name="plus" unicode="+" horiz-adv-x="541" 
d="M411 219l-0.5 -2t-17.5 -5t-60 -3q0 -39 0.5 -64t0.5 -40t0.5 -22t0.5 -9q0 -5 -4.5 -7.5t-9.5 -1.5q-22 -11 -44 -23t-44 -23q-6 -2 -10.5 0.5t-4.5 9.5l3 9v2v17v51t1 100h-59q-30 0 -71 -1h-53q-8 0 -10.5 8t5.5 12l98 45l90 1q1 32 1.5 67t0.5 79q0 8 6 10l89 40
q6 3 11 0t5 -9q0 -27 -0.5 -51.5t-0.5 -46.5q0 -29 0.5 -48t-0.5 -40q62 1 95.5 1.5t48.5 0.5h18h3q4 2 7.5 0t5 -5.5t1.5 -7.5t-4 -6z" />
    <glyph glyph-name="comma" unicode="," horiz-adv-x="249" 
d="M224 13q0 -39 -20.5 -74.5t-54.5 -67.5l-108 -49q-8 -4 -13.5 3.5t1.5 13.5q35 35 59 69.5t24 69.5q0 8 -1 15.5t-3 15.5v-1q-9 25 -41 57q-5 5 -3.5 10t6.5 7l88 42q6 3 13 -2q16 -15 26.5 -31.5t18.5 -34.5q8 -22 8 -43z" />
    <glyph glyph-name="hyphen" unicode="-" horiz-adv-x="425" 
d="M295 279h-258q-8 0 -10 8.5t6 12.5l97 45h257q9 0 11 -8t-6 -12z" />
    <glyph glyph-name="period" unicode="." horiz-adv-x="201" 
d="M179 51q0 -8 -6 -10l-97 -44q-11 -5 -15 6q-8 20 -15.5 37.5t-22.5 39.5q-4 5 -3 9.5t6 6.5l89 40q8 3 14 -4l15 -20v1q9 -12 17.5 -24.5t17.5 -32.5v-5v0z" />
    <glyph glyph-name="slash" unicode="/" horiz-adv-x="437" 
d="M412 620l-8.5 -22.5t-21 -55t-26 -69t-23.5 -64.5v1q-20 -63 -44 -129.5t-50 -132.5t-52.5 -130t-51.5 -122l-95 -43q-7 -3 -12.5 1.5t-2.5 11.5q27 61 54.5 126t53 131t49 131t43.5 125q9 28 22.5 64.5t25.5 69t20.5 55l8.5 22.5l95 44l15 -14v0z" />
    <glyph glyph-name="zero" unicode="0" horiz-adv-x="363" 
d="M341 327q0 -44 -13 -90t-34.5 -90t-48.5 -83t-55 -70q-5 -6 -11.5 -4t-7.5 10q-2 23 -16 41.5t-31 38.5q-17 18 -35 40.5t-33 52.5t-24.5 68.5t-9.5 88.5q0 45 12 96t35.5 94t59 71.5t82.5 28.5q23 0 41.5 -17t33 -43.5t25 -59.5t17 -65.5t10 -61t3.5 -46.5zM257 276
q0 21 -1.5 51.5t-9 62.5t-23 63t-43.5 52q-14 11 -26 19t-24 10q-2 -4 -2.5 -7t-2.5 -5q-9 -21 -17 -39t-13 -36.5t-8 -40t-3 -49.5q0 -77 34 -136t100 -102q16 38 27.5 76.5t11.5 80.5z" />
    <glyph glyph-name="one" unicode="1" horiz-adv-x="222" 
d="M199 549q-5 -26 -7 -49.5t-3.5 -47.5t-2.5 -49t-2 -54q-2 -42 -2.5 -78.5t0 -70.5t2 -67.5t3.5 -70.5q0 -4 -4 -8q-33 -27 -65.5 -57t-54.5 -71q-5 -6 -13 -6l-12 4q-10 2 -8 13q11 55 26 107.5t32 104.5v-2v3q5 81 8.5 160t3.5 158q-12 12 -27.5 19.5t-32.5 11.5
q-2 0 -5 2t-3 4l-9 16q0 2 10 11t20 14q8 11 18 21.5t19 21.5q6 6 12 3l19 -8l12 -17q4 0 6.5 -1.5t6.5 -3.5v-1l2 -1v0q0 1 -2 1q8 1 16.5 2.5t16.5 2.5l11 -6l9 -11v0z" />
    <glyph glyph-name="two" unicode="2" horiz-adv-x="404" 
d="M381 90q-3 -12 -3.5 -24.5t-0.5 -23.5v-31v-9l-2 -13q0 -4 -3.5 -8.5t-6.5 -1.5q-9 8 -16.5 11t-14 4t-13.5 2t-16 4q-20 7 -41 12t-41 3l-72 -6l-115 -3q-3 0 -6 2.5t-3 5.5l-4 9v5q0 4 2 6q12 11 27 26.5t32 30.5q30 26 63 57.5t60.5 66.5t45.5 71.5t18 71.5
q0 94 -39.5 119t-129.5 -3q-8 -2 -12 2.5t-1 11.5q2 5 4.5 10.5t4.5 10.5q8 17 15.5 33t21.5 32q14 5 26.5 7.5t23.5 2.5q36 0 69 -16.5t57.5 -45t39.5 -66t15 -78.5q0 -19 -4.5 -43.5t-16.5 -40.5q0 -9 -9 -16h4q-24 -39 -45.5 -68t-44.5 -53t-49 -45t-59 -45q23 2 46 8.5
t45 10.5q20 4 39.5 6.5t40.5 3.5q14 5 28 6l28 2l12 -14v0z" />
    <glyph glyph-name="three" unicode="3" horiz-adv-x="358" 
d="M335 267q0 -53 -20.5 -82.5t-51.5 -49.5q6 -2 8 -8q1 -28 -15 -63t-41.5 -64.5t-56.5 -46t-59 -7.5q-11 3 -18 11.5t-10.5 19.5t-4.5 22.5t-1 22.5q0 31 8.5 53.5t22.5 38t32 27t37 22.5q24 13 47 28.5t34 46.5q3 11 3.5 27t0 25.5t-0.5 11.5q-11 24 -37 36t-52 20
q-17 4 -33 11q-5 2 -6.5 6.5t1.5 8.5q10 16 22.5 28.5l26.5 26.5q9 7 17 15t14 16h-5q-30 0 -61.5 8t-59.5 19q-8 -5 -16.5 -11t-16.5 -11q-5 -3 -9 -1.5t-6 6.5l-4 11q-2 7 3 12l118 88q1 1 4 1.5t5 0.5l108 -37l10 2t18 -3q5 -5 8 -13l3 -8q4 -7 -1 -12l-6.5 -8.5
t-16.5 -20.5t-20.5 -26t-19.5 -24q17 -10 26 -19.5t17 -19.5q12 -18 22 -32.5t17.5 -29.5t11.5 -32.5t4 -42.5zM250 128q-13 -8 -26 -13t-26 -12q-46 -27 -61.5 -45t-11.5 -27t21 -9q18 0 39 10.5t39.5 31t23.5 51.5q1 3 1 6q0 4 1 7z" />
    <glyph glyph-name="four" unicode="4" horiz-adv-x="494" 
d="M468 327q-6 -9 -13.5 -16t-15.5 -14h1q-12 -11 -21.5 -23t-17.5 -27q-1 -2 -3 -3l-4 -2l-12 -3l-26 7q-1 0 -2 -0.5t-2 -0.5q-2 -11 -2.5 -21t-2.5 -21q2 -48 11.5 -100.5t20.5 -100.5q3 -14 7 -28.5t6 -27.5l-6 -11q-4 -9 -14 -5q-18 6 -33 26.5t-27 49t-20.5 61.5
t-14.5 65.5t-9.5 61t-3.5 46.5l-1 2q-16 -2 -32 -2t-32 -2q-20 -2 -48 -3.5t-54 -3.5t-44 -3l-18 -1l-6 4.5t-4 9.5q11 25 36 60t56.5 73t66.5 77t66 73q17 20 33 37t27 30q6 6 12 3l35 -13q8 2 17.5 3.5t17.5 3.5q11 2 13 -11l2 -27q-8 -18 -16.5 -45t-16 -56t-12 -58.5
t-5.5 -51.5q13 -1 24 1.5t25 5.5q12 3 26 5t27 2q11 0 11 -11v-9zM280 491q-20 -23 -40.5 -45t-40.5 -44v1l-63 -69q29 0 57 1.5t57 2.5q3 2 5 3.5l6 4.5l2 20l2 20l4 9v12q0 8 1 13q0 9 1.5 17t3.5 16q2 9 3 18.5t2 19.5z" />
    <glyph glyph-name="five" unicode="5" horiz-adv-x="467" 
d="M469 574q0 -8 -7 -18t-16.5 -21t-19.5 -21t-17 -16l-6 -7q-17 -8 -30.5 -14t-26.5 -9.5t-27.5 -5.5t-32.5 -2q-32 0 -67.5 11t-70.5 25q-18 7 -37 13.5t-37 11.5l-13 -13q-2 -27 5 -60t18 -56l-6 4q4 -4 5 -4l3 -10q3 -9 9.5 -22l12.5 -25q13 -29 25.5 -57.5t17.5 -63.5
q1 -8 1 -17v-17q0 -14 -1 -26.5t-3 -24.5v1q-4 -27 -16 -53t-29.5 -49t-39 -40t-43.5 -26q-2 -1 -6 -0.5t-6 2.5l-7 6q-3 3 -3 8v9q28 32 45 64.5t17 76.5q0 24 -6 55.5t-13 56.5l1 -1q-3 7 -5.5 12.5t-5.5 12.5l-5 15v-1q-8 20 -13.5 34.5t-8.5 29t-4.5 31t-1.5 40.5
q0 13 3 26t6 27q2 6 3.5 12.5t2.5 11.5l43 66q20 11 42 22t45 11q27 0 55 -7.5t54 -17.5q24 -9 49.5 -16.5t51.5 -7.5q25 0 46.5 14t41.5 33l17 -2l11 -11v0z" />
    <glyph glyph-name="six" unicode="6" horiz-adv-x="429" 
d="M397 595q-54 -11 -109 -36.5t-94 -71.5q-16 -19 -30.5 -41t-24.5 -50q-4 -11 -6 -18.5t-4 -20.5q-2 -5 -3.5 -11.5t-3.5 -11.5h1q-6 -22 -10 -40t-4 -38q0 -31 1 -63.5t8.5 -61t24 -48.5t47.5 -25q15 -2 26.5 -2.5t25.5 4.5q25 8 34.5 29t8 48t-11 55t-22.5 51
q-9 8 -18.5 19t-18.5 21t-18 17t-19 7q-8 0 -15 -0.5t-17 -1.5q-2 0 -5.5 -0.5t-5.5 -0.5q-8 0 -9 3t1 7t6 8.5t5 7.5q8 14 21.5 32.5t31.5 24.5h-1q12 4 26 4t23 -1.5t10 -1.5q45 -25 76 -69.5t31 -105.5q0 -34 -9 -72.5t-27 -71t-45.5 -54t-63.5 -21.5q-42 0 -76.5 21
t-59 55t-38 77.5t-13.5 87.5q0 68 28 139t74 129.5t105.5 95.5t122.5 37l43 -6q10 -2 10 -11v-14z" />
    <glyph glyph-name="seven" unicode="7" horiz-adv-x="414" 
d="M390 551q-34 -36 -72 -78t-69.5 -90t-52.5 -100.5t-21 -108.5q0 -47 14 -82t46 -64q6 -6 2 -12l-12 -21q0 -2 -2.5 -4t-4.5 -2l-22 -5l-46 13q-32 22 -50 50.5t-18 71.5q0 18 3.5 35t7.5 33q1 3 2 6.5t2 6.5q15 43 30 74.5t30 56.5t30.5 45.5t32.5 41.5q7 9 12.5 15
t10.5 12t11 14t15 21q-6 -2 -11.5 -4t-11.5 -4q-18 -7 -36 -11.5t-38 -4.5q-16 0 -36 1t-39.5 6t-36.5 15.5t-27 30.5q-2 16 -6 27.5t-5.5 20.5t3 18t19.5 21q6 5 14 -1q31 -29 66.5 -41.5t77.5 -12.5q39 0 72.5 9t67.5 20q8 3 17 6t20 8q5 2 9.5 -1t4.5 -9v-16z" />
    <glyph glyph-name="eight" unicode="8" horiz-adv-x="310" 
d="M287 229q0 -12 -8 -36.5t-20.5 -54t-28.5 -60.5t-32 -56t-31 -41t-25 -14q-11 6 -19 17.5t-16 21.5q-29 38 -47.5 66t-27.5 52t-9 45q0 22 7 46.5t20.5 54.5t32.5 70q-21 37 -26.5 79t3 83.5t30.5 79t55 64.5l15 -1q28 -30 49 -57.5t32 -56.5t11.5 -62.5t-13.5 -75.5v1
l-1 -4q-5 -9 -10.5 -19t-7.5 -21q9 -12 21 -26.5t22 -30.5t17 -32.5t7 -31.5zM198 441q-1 17 -15 40t-52 44q-20 -30 -20.5 -50.5t10.5 -35t28.5 -25.5t34.5 -24q5 5 6 7zM179 93q22 27 27 53t-2.5 50.5t-25 47t-39.5 42.5q-5 5 -11 9t-11 9q-29 -71 -12 -122t74 -89z" />
    <glyph glyph-name="nine" unicode="9" horiz-adv-x="363" 
d="M337 411q0 -45 -10.5 -80t-27.5 -63.5t-38 -52t-42 -44.5q-18 -18 -34 -35.5t-28 -36t-19 -39.5t-7 -46q0 -4 -3 -7t-5 -4l-13 -4q-11 -2 -13 8l-3 12t-2 22q0 29 10 49.5t28 40.5q13 16 28 35t30 44q5 9 10.5 17.5t10.5 16.5q17 29 30 56.5t13 58.5q0 37 -9.5 69
t-24.5 65q-2 2 -4 4.5t-4 4.5q-17 19 -31 30.5t-40 11.5h-5t-9 -2q-7 -3 -9 -8t-6 -11q-14 -22 -17 -42t-3 -44q0 -18 9.5 -31t23 -22t29.5 -14t28 -6q6 -1 8 -6t0 -10q-1 -2 -5 -13t-12.5 -27t-18.5 -26q-8 -8 -18.5 -14.5l-10.5 -6.5q-2 -2 -6 -2t-6 2q-15 10 -30.5 25
t-27.5 33t-19 40t-7 46v-1q0 41 8 80.5t27 70.5t51 51t80 22q33 1 59.5 -19.5t45 -53t29 -71t10.5 -73.5z" />
    <glyph glyph-name="colon" unicode=":" horiz-adv-x="249" 
d="M217 302q7 -9 -4 -15l-104 -48q-3 -1 -7.5 0t-6.5 5q-15 26 -30 45t-38 40q-5 4 -4.5 9t6.5 8l90 42q6 2 12 -2q5 -5 10.5 -9l16.5 -12q15 -13 30.5 -26.5t28.5 -36.5zM222 54q3 -9 -5 -12l-100 -46q-11 -5 -14 7q-1 3 -1.5 7l-0.5 4q-8 18 -24.5 36.5t-37.5 37.5
q-2 2 -4.5 4t-4.5 4q-5 5 -3.5 10t6.5 7l89 42q2 2 6 1t6 -3q7 -7 14 -12t15 -11q18 -14 33 -29t24 -38q2 -6 2 -7v-2z" />
    <glyph glyph-name="semicolon" unicode=";" horiz-adv-x="273" 
d="M244 292q5 -4 4.5 -10t-5.5 -9l-97 -44q-6 -2 -12 2q-2 1 -12.5 11.5t-27 32t-28.5 47.5q-4 10 5 14l89 41q5 2 9 0.5t6 -6.5q11 -23 28 -41.5t28 -27.5t13 -10zM226 13q0 -39 -20.5 -74.5t-53.5 -67.5l-109 -49q-8 -4 -12.5 3.5t0.5 13.5q37 35 60.5 69.5t23.5 69.5
q0 14 -5 31v-1q-10 27 -41 57q-5 5 -3.5 10t6.5 7l88 42q7 4 13 -2q33 -30 45 -66q5 -11 6.5 -21.5t1.5 -21.5z" />
    <glyph glyph-name="less" unicode="&#x3c;" horiz-adv-x="345" 
d="M181 341q-11 -11 -16 -19t-14 -20q10 -7 21 -12.5t20 -13.5l108 -96q4 -4 4 -9t-6 -8l-102 -48q-2 -2 -5.5 -1t-5.5 3l-102 94l1 -1q-14 10 -27.5 19.5t-27.5 18.5q-8 8 -1 16l40 52l132 139l103 47q8 4 12.5 -3.5t-0.5 -13.5z" />
    <glyph glyph-name="equal" unicode="=" horiz-adv-x="503" 
d="M372 280h-305q-9 0 -11 8.5t6 12.5l97 45h306q9 0 11 -8t-6 -12zM332 164h-293q-9 0 -11 8t6 12l98 46h292q8 0 10 -8.5t-6 -12.5z" />
    <glyph glyph-name="greater" unicode="&#x3e;" horiz-adv-x="360" 
d="M332 354q4 -5 3 -9.5t-6 -6.5l-37 -18q-33 -31 -65.5 -62.5t-64.5 -63.5l-119 -54q-8 -3 -13 4t2 13l165 150q-37 28 -74 55.5t-74 55.5q-5 4 -4.5 10t6.5 9l88 40q7 2 11 -1l166 -109q1 0 2 1t2 1q6 2 10.5 -3.5t1.5 -11.5z" />
    <glyph glyph-name="question" unicode="?" horiz-adv-x="377" 
d="M352 477q-4 -35 -19.5 -70.5t-32.5 -71.5q-20 -38 -36 -79t-16 -75q0 -4 -3 -6.5t-6 -3.5l-84 -18q-5 -1 -9.5 2.5t-4.5 8.5q0 42 14.5 79.5t30.5 73.5q14 30 26 60t15 59q2 6 1.5 13t-2.5 12q-8 21 -29 31t-45 12q-2 -5 -5.5 -13t-5.5 -16q-5 -14 -9.5 -28.5t-6.5 -16.5
q-4 -6 -11 -4l-81 15q-8 2 -10 7.5t2 10.5q10 13 17.5 23.5t15 19t16.5 16t21 15.5q13 7 29.5 13t31.5 9.5t25 5.5l10 2q19 9 47 9q15 0 31.5 -3.5t31.5 -10.5t26.5 -18t17.5 -26q5 -10 6 -18t1 -18v-1zM273 49q5 -8 -4 -15l-69 -46q-8 -5 -13 4q-2 4 -5 8t-5 9
q-6 12 -15 27.5t-23 28.5q-5 5 -4 9.5t6 7.5l60 42q2 2 5.5 1t5.5 -3q20 -18 36 -37t25 -36z" />
    <glyph glyph-name="at" unicode="@" horiz-adv-x="609" 
d="M586 421q0 -39 -8 -78.5t-19 -62.5q-18 -35 -48.5 -63.5t-59.5 -48.5l-100 -45q-5 -2 -10 0.5t-6 7.5q-1 8 -1.5 15t-1.5 14v3v1v0q0 1 -1 4q-7 -5 -12 -7h1l-48 -22l-48 -22q-42 -20 -59 31q-4 10 -5.5 21.5t-1.5 22.5q0 25 7.5 53.5t20 54t30 45t37.5 27.5l45 19
q0 1 -0.5 2t-0.5 2v6q-4 9 5 13l69 22q11 5 15 -8q5 -26 10 -60t9.5 -65t7.5 -52.5l3 -21.5v-4l1 1.5t2 3.5l-1 -1l13.5 7.5t30 28t30.5 57.5t14 97q0 15 -3 24q-7 19 -23 32.5t-37 22t-45.5 12t-49.5 3.5q-20 0 -41 -2.5t-38 -6.5q-35 -25 -64.5 -58.5t-51.5 -73.5
t-34 -85.5t-12 -93.5q0 -27 5.5 -58t14.5 -57q8 -22 27.5 -38t45.5 -26t56.5 -14.5t60.5 -4.5q21 0 41 2t40 7q0 1 1 2l1 1l104 48q8 4 13 -4t-1 -14q-15 -15 -28.5 -24t-28.5 -15h1q-23 -11 -46 -21.5t-46 -21.5q-29 -13 -64 -20t-70 -7q-29 0 -57.5 6t-53.5 18t-43.5 31
t-28.5 46q-14 39 -21 79t-7 78q0 53 13.5 102.5t38.5 92.5t60.5 76.5t80.5 54.5q22 11 45.5 22t45.5 21q23 11 55 18t63 7q23 0 46 -5t43 -16t36 -27.5t25 -38.5v0q1 0 1 -1v-2q5 -14 7.5 -31.5t2.5 -37.5zM312 289q-1 8 -2 15.5t-3 16.5q-1 2 -2 7l-2 10q-14 -23 -21 -50.5
t-7 -52.5v-13q0 -5 2 -11q11 18 20 38t15 40z" />
    <glyph glyph-name="A" unicode="A" 
d="M562 569q0 -2 -1 -5t-3 -4q-6 -5 -18 -9h1q-5 -3 -9 -6t-7 -10q-7 -18 -9.5 -45.5t-3.5 -53.5q0 -8 -0.5 -17t-1.5 -16v-139q0 -35 1.5 -76t6 -76.5t13.5 -60t24 -26.5q8 -2 7 -11.5t-9 -9.5l-50 1q-21 1 -43 -1.5t-42 -7.5q-14 -4 -15.5 6t0.5 19v-1q1 8 1 17t1 17
q-4 -4 -12 -8q-36 -24 -73.5 -34.5t-81.5 -10.5q-52 0 -92 19.5t-67.5 53.5t-41.5 81t-14 103q0 80 22.5 141.5t63.5 103.5t97 63.5t124 21.5q28 0 57 -3t55 -17l33 -18q8 5 16 9.5t15 9.5q10 6 19.5 12.5t20.5 9.5q6 2 10.5 -1t4.5 -8zM412 285v35q0 18 -1 34
q0 13 -0.5 24.5t-0.5 21.5q0 74 -26.5 112t-92.5 38q-42 0 -70 -25.5t-44 -63.5t-22.5 -83.5t-6.5 -85.5q0 -42 11.5 -84t33 -75.5t52.5 -54.5t71 -21q32 0 51 20.5t29 53.5t13 73.5t3 80.5z" />
    <glyph glyph-name="B" unicode="B" 
d="M568 295q0 -68 -25.5 -122.5t-67.5 -93.5t-95 -60t-108 -21q-17 0 -35.5 1t-38.5 5t-40 12.5t-39 23.5q-21 16 -36.5 43t-26 53.5t-16 48t-6.5 27.5l-3 29l-2 32q-1 8 -1 15v14q0 54 13.5 108.5t29 107t29 102t13.5 93.5q0 17 -10.5 32.5t-21.5 30.5q-3 3 -7 8.5t-7 9.5
l1 7q0 10 11 10h60q24 0 47 4q11 2 23 3.5t24 1.5q9 0 12 -1t3 -3q0 -1 -1.5 -3.5t-1.5 -5.5q0 -35 -15.5 -80t-33.5 -90q-12 -30 -22 -57t-15 -50q6 5 11.5 9.5t13.5 8.5l-1 -1q42 25 85 33.5t91 8.5q25 0 50.5 -8t48.5 -22.5t41.5 -35.5t30.5 -48q11 -26 18.5 -46.5
t12 -40.5t6 -42t1.5 -51zM434 263q0 41 -8 89.5t-26.5 90.5t-48.5 70t-73 28q-37 0 -65 -16t-46.5 -42.5t-27.5 -61.5t-9 -74q0 -43 12.5 -95t36.5 -97.5t58.5 -76t77.5 -30.5q35 0 58 21t36.5 53t19 70t5.5 71z" />
    <glyph glyph-name="C" unicode="C" horiz-adv-x="552" 
d="M527 146q-47 -80 -102.5 -116t-140.5 -36q-57 0 -104.5 15.5t-82 47.5t-53.5 82.5t-19 121.5q0 142 61 221.5t176 102.5q36 7 70 4t65 -12t58.5 -22t48.5 -26q14 -9 1 -17q-8 -5 -20.5 -20.5t-25 -34t-23.5 -37.5t-15 -29q0 -7 -8 -7l-3 1q-11 0 -11 11q0 33 -10.5 60
t-29 46t-43.5 29t-53 10q-38 0 -61.5 -22t-37.5 -55t-19 -72.5t-5 -74.5q0 -39 13 -86t36 -87.5t56 -68t72 -27.5q15 0 31 6t27 25q8 10 16 26.5t14 31.5t10 26l4 11q2 0 16.5 -2.5t38 -5.5t41.5 -4q8 0 11.5 -5t0.5 -11z" />
    <glyph glyph-name="D" unicode="D" horiz-adv-x="581" 
d="M558 295q0 -69 -25.5 -123.5t-67 -93t-95 -58.5t-108.5 -20q-61 0 -105 22.5t-72 61t-41 88.5t-13 105q0 33 7 68.5t20.5 69.5t33 62.5t44.5 46.5q11 8 36.5 21.5t47.5 21.5q-11 1 -22 1q-10 0 -21 1l-69 3q-8 1 -18.5 0t-18.5 -2h1q-5 -1 -10 -1h-10h-7q-4 0 -9 1.5
t-9 3.5t-4 7q0 7 6 9q21 10 39 26t33.5 35.5t28.5 41t24 42.5q3 7 10 7t10 -7q3 -6 2.5 -13t-1.5 -12q-1 -3 -1 -4q6 -25 20 -41.5t33.5 -28.5t43 -20t49.5 -15q42 -11 84 -27t76.5 -48t56 -87t21.5 -144zM423 266q5 42 1.5 84.5t-16 79.5t-35 65.5t-55.5 43.5h-2l-5 1
q-2 0 -4 0.5t-4 0.5q-10 2 -13 2q-41 0 -67.5 -22t-42.5 -56t-22 -75.5t-6 -80.5q0 -81 27 -148.5t99 -112.5q2 -2 4 -2.5t4 -2.5q33 -19 57 -0.5t40.5 55.5t25.5 83.5t14 84.5z" />
    <glyph glyph-name="E" unicode="E" horiz-adv-x="585" 
d="M599 402q-3 -5 -10 -6l-7 -1h-85q-2 0 -24.5 0.5t-60 1.5t-74.5 1.5t-68.5 1t-42.5 0.5h-27q-20 0 -32.5 -1t-20 -9t-10 -25t-2.5 -50q0 -54 15.5 -103t44 -86t68.5 -59t90 -22q24 0 41.5 9.5t29.5 26t18.5 38.5t9.5 47q1 7 6.5 9t10.5 -1q16 -12 44 -15.5t49 -3.5
q11 0 11 -11v-8q-58 -70 -134 -108t-158 -38q-54 0 -101.5 17t-83 50t-56 82.5t-20.5 114.5q0 74 17.5 134.5t52.5 104t86 67t119 23.5q39 0 71.5 -7t59.5 -23.5t48 -44.5t36 -69l22.5 -3t51.5 -10q7 -2 13.5 -9.5t1.5 -14.5zM378 450q0 23 -8 40t-21 28.5t-30.5 17.5
t-35.5 6t-39 -9t-39.5 -24t-32 -35t-16.5 -42q25 0 50 0.5t51 1.5t52.5 1.5t53.5 0.5q9 0 15 3v11z" />
    <glyph glyph-name="F" unicode="F" horiz-adv-x="536" 
d="M535 145q-41 -20 -77.5 -31.5t-73 -17.5t-73.5 -9t-79 -5q-8 -1 -11.5 -0.5t-13.5 -1.5q0 -26 -1.5 -50t1.5 -55q1 -14 1.5 -30t2 -30t4.5 -24t9 -13q8 -3 7 -11t-9 -10q-16 -2 -37 -8t-39.5 -12t-31.5 -10.5l-13 -4.5q-5 -2 -9.5 1t-4.5 8v6l2 17.5t4.5 42t4.5 51.5
t2 45v250q0 37 -1 77t-9 77v-1q-5 21 -13.5 35.5t-18.5 24.5t-19.5 16.5t-16.5 10.5q-14 6 -21 15q-2 5 0 9.5t7 6.5l52 16t53 17q63 22 127 40t127 18q26 0 59.5 -13t72.5 -34l-3 -12q-6 -7 -13 -14l-12 -12q-12 -14 -23.5 -27.5t-23.5 -33.5q-4 -7 -11 -6.5t-9 8.5
q-6 21 -23 36.5t-39 25.5t-45.5 14.5t-41.5 4.5q-14 0 -27 -4t-27 -10q-2 -11 -2 -23v-23q0 -15 1 -50.5t2.5 -77.5t3 -83t2.5 -66t1 -27l17 -2t41 -4.5t50 -4.5t45 -2q23 0 45 0.5t45 1.5q19 1 40 1q22 0 39 -2q8 -1 9.5 -9t-5.5 -12z" />
    <glyph glyph-name="G" unicode="G" horiz-adv-x="655" 
d="M700 -77q0 -29 -20 -54.5t-52 -47.5t-71 -39t-76.5 -29t-70 -18.5t-50.5 -6.5q-33 0 -74.5 8.5t-82 25t-75.5 41t-54 56.5l3 12q4 8 9.5 11t10.5 7h-1q20 15 44 32.5t47.5 37t44.5 39.5t35 38q-33 16 -64.5 35.5t-56 46.5t-39 62.5t-14.5 82.5q0 36 15.5 67t39.5 57
t53 47.5t57 38.5h-30q-45 0 -90.5 1.5t-86.5 12.5q-8 2 -8.5 9.5t7.5 10.5q3 1 18 14.5t33 30.5t33.5 32.5t19.5 20.5q1 2 3.5 3t4.5 1h4q8 0 11 -5.5t-2 -11.5l-17 -26q4 -3 10 -4t10 -1q19 -1 38.5 -2t39.5 -2q45 -2 89.5 -4t89.5 -2h111q11 0 28 2t33 4.5t27.5 4.5
l11.5 2q5 1 9 -2t4 -8v-5q0 -5 -3 -8q-1 -1 -11 -8t-27 -18t-31 -17q-30 -14 -58 -19q-11 -2 -26 -2.5t-29 -1.5q-41 -2 -87.5 -6.5t-86.5 -19t-66.5 -42.5t-26.5 -77q0 -72 31 -121t79 -83t106 -56t111 -40q34 -11 64.5 -22t53 -23.5t35.5 -27.5t13 -34zM576 -113
q0 24 -20 44t-50 35.5t-64.5 27t-64.5 19t-50 11.5l-20 4q-6 -5 -19.5 -17t-30 -27t-34.5 -31.5t-32 -31.5q17 -33 49.5 -57t71.5 -40t79 -23.5t71 -7.5q18 0 38.5 6t37 17.5t27.5 29t11 41.5z" />
    <glyph glyph-name="H" unicode="H" horiz-adv-x="562" 
d="M574 11q0 -10 -11 -10q-21 0 -42.5 3.5t-43.5 1.5q-19 -2 -38 -3.5t-38 -1.5q-10 0 -10 11q0 41 1 81t3 82q2 38 3 80.5t1 80.5t-3 76t-14 68.5t-34.5 49.5t-63.5 19q-22 0 -42.5 -7.5t-36 -22.5t-25 -36.5t-9.5 -49.5v-194q0 -29 0.5 -60.5t3 -62t7.5 -57t14 -43.5
q3 -6 0 -10.5t-10 -4.5q-15 1 -31 4t-32 1q-14 -2 -27.5 -3t-27.5 -1h-5q-8 0 -10.5 7.5t4.5 11.5q4 3 6 27t3.5 60t2 78.5t0.5 81.5q0 28 -0.5 53t-0.5 42v59l-2 164q0 15 -0.5 30t-2.5 28.5t-7.5 25.5t-17.5 21q-15 11 -23 20.5t-24 21.5q-5 4 -0.5 9t10.5 5
q16 0 37.5 4.5t43.5 11.5t43.5 15.5t37.5 15.5q14 5 14 -10q0 -47 -3 -93q-3 -47 -3 -92q0 -11 -0.5 -25.5t-1.5 -22.5q7 4 24 11t42 14t57 12.5t71 5.5q31 0 59.5 -5.5t49.5 -20t33.5 -41t12.5 -68.5q0 -44 -1.5 -87t-3.5 -86q-2 -44 -3.5 -92t-1.5 -93q0 -35 10.5 -53
t43.5 -20q11 0 11 -11l1 -6v0z" />
    <glyph glyph-name="I" unicode="I" horiz-adv-x="247" 
d="M230 671q0 -8 -6 -10l-97 -44q-5 -2 -9 -0.5t-6 6.5l-15 37.5t-23 39.5q-7 10 4 16l89 40q8 4 14 -4l15 -20v1q9 -12 17.5 -24.5t16.5 -32.5v-5zM211 22q5 -5 4 -10.5t-7 -7.5q-7 -2 -20 -2h-23h-6q-7 0 -13 -0.5t-12 -0.5q-5 0 -11.5 -0.5t-11.5 -0.5q-2 0 -4 -1h2
q-3 -1 -11.5 -1.5t-15 -1t-7.5 -0.5h-7q-6 0 -9 4q-2 2 -1 6l1 4l3 15.5t7 37t7.5 45t3.5 40.5q1 16 1 30q0 15 1 29q3 87 3 175v39q0 20 -2 40q-12 19 -28 33.5t-33 26.5q-5 2 -5 8l1 3q0 9 10 11q6 1 19 3t28 5t28.5 6t19.5 6h3t4 1h-1q5 2 11.5 3.5t8.5 2.5l46 17
q6 2 10.5 -2t2.5 -11q-3 -11 -5 -30t-3 -33q-9 -171 -9 -343v-69q0 -21 2.5 -42.5t17.5 -34.5z" />
    <glyph glyph-name="J" unicode="J" horiz-adv-x="219" 
d="M193 671q0 -8 -6 -10l-97 -44q-11 -5 -15 6q-8 20 -15.5 37.5t-22.5 39.5q-4 5 -2.5 9.5t6.5 6.5l92 50q2 2 7 1t7 -5l12 -30v1q9 -12 17.5 -24.5t16.5 -32.5v-5zM190 308q0 -59 -3 -116.5t-13 -110t-28.5 -98t-49.5 -78.5l1 1q-7 -11 -15.5 -22t-18.5 -22q-4 -5 -8 -9.5
t-8 -9.5q-1 -2 -3.5 -3t-4.5 -1l-3 1q-8 0 -10.5 6.5t2.5 11.5l41 97q10 52 13 107.5t3 112.5q0 23 1.5 46t0.5 45q0 38 -1 77t-1 77q0 35 -10.5 62.5t-47.5 43.5q-6 3 -6 9q0 7 5 11q5 3 9.5 5.5t11.5 4.5q2 2 5.5 3t6.5 2h1q33 14 60 30t54 33q7 4 12 1t4 -10
q-3 -45 -3 -99q0 -22 0.5 -44.5t0.5 -46.5q1 -26 1.5 -58t0.5 -59z" />
    <glyph glyph-name="K" unicode="K" horiz-adv-x="585" 
d="M568 22q9 -2 8.5 -10.5t-9.5 -10.5q-11 -2 -22 0.5t-22 2.5h-29h-44t-45 -5q-4 -1 -8 3q-15 15 -23 31q-2 4 -6 11.5t-8 12.5h1q-4 5 -7.5 9.5t-7.5 9.5q-17 23 -32.5 45t-27.5 45q-8 9 -17.5 25t-19.5 32q-11 20 -22.5 38t-26.5 33q-2 -2 -3 -2t-3 -2v-1q-1 -5 -1.5 -9
t-0.5 -6q0 -32 2.5 -77t6 -87t6 -71.5l2.5 -29.5q1 -6 -3 -10t-10 -2q-1 0 -10.5 2t-26.5 4t-33 2q-11 0 -20.5 -1t-17.5 -4q-5 -2 -9.5 1t-4.5 9v3q13 70 16.5 140.5t3.5 141.5q0 45 -0.5 88t-1.5 88t-1.5 88.5t-0.5 87.5q0 7 -6 16t-15.5 18t-20.5 18t-20 17q-5 4 -9.5 7
t-7.5 6l-3 3q-5 5 -2.5 11.5t10.5 6.5h8q22 0 46 3.5t46.5 9.5t42 13.5t31.5 15.5l8 -1q5 0 8.5 -3.5t2.5 -8.5q-14 -80 -17 -163.5t-3 -163.5q0 -33 0.5 -55.5t2.5 -55.5q19 13 46.5 35t53.5 47t44.5 49.5t18.5 43.5q0 15 -5 28.5t-12 24.5q-4 7 -0.5 13t11.5 4
q12 -3 22.5 -4t21.5 -1q17 0 34.5 2t36.5 4q17 2 35.5 3.5t36.5 -0.5q8 -1 10.5 -7.5t-4.5 -11.5q-9 -6 -27 -20t-41.5 -32t-49 -38t-49 -39t-42.5 -35t-28 -25q9 -23 27 -57.5t41.5 -73.5t50 -78.5t53 -72t50 -54t41.5 -24.5z" />
    <glyph glyph-name="L" unicode="L" horiz-adv-x="230" 
d="M203 16q2 -5 -0.5 -9t-7.5 -5q-14 -2 -28.5 0t-29.5 3q-8 1 -17 1q-8 0 -16 1l-2 -2h2q-3 -1 -13 -1q-7 -1 -18.5 -2l-11.5 -1q-5 -1 -7 1t-4 5q-2 2 -2.5 5l-0.5 3l1 4l4.5 8.5t10.5 21t10.5 26t4.5 23.5q-1 131 1.5 259.5t0.5 259.5q0 21 -1.5 47.5t-15.5 43.5
q-5 11 -16.5 23t-19.5 18q-6 5 -4 12t9 8q22 3 49 11t50 16.5t39 15l16 6.5q5 3 10 -0.5t4 -9.5l-1 -21t-2.5 -51t-2.5 -62t-2 -54q-2 -101 -4 -203t-1 -204q0 -17 0.5 -45t2 -57.5t4.5 -55.5t9 -39z" />
    <glyph glyph-name="M" unicode="M" horiz-adv-x="827" 
d="M795 13q0 -9 -1.5 -12t-4.5 -3t-6 1.5t-6 1.5l-123 2q-6 0 -10 6l14 261v74q0 28 -3.5 60t-14 58t-29 43.5t-47.5 17.5q-30 0 -47.5 -18t-26.5 -45.5t-11.5 -62t-2.5 -67.5q0 -12 0.5 -23.5t0.5 -22.5v-166q0 -14 5 -35.5t9 -39.5q3 -11 4.5 -15.5t1.5 -15.5t-11 -11h-4
l-66 2l-56 -2q-10 0 -10 11q0 17 0.5 20t1.5 3.5t2.5 4t3.5 21.5t3.5 50.5t3 67t2.5 66.5t1 49q0 36 -1 76t-10.5 74.5t-31 57t-61.5 22.5q-27 0 -43 -19t-25 -49t-12 -68t-3 -75q0 -23 0.5 -43.5t1.5 -39.5v1q2 -46 0.5 -92.5t6.5 -92.5l5 -30q2 -6 -2 -10t-10 -3
q-11 2 -26 2.5t-32 0.5q-16 0 -29.5 -1t-21.5 -4q-6 -2 -11 1.5t-3 10.5q4 18 6 39.5t4 41.5q1 8 1.5 16t1.5 15q0 32 1 63.5t3 63.5q3 51 3 99v42q0 28 -1 48t-7 35.5t-20 30.5t-41 34q-5 4 -5 9t5 8t9.5 3.5t10.5 0.5q15 0 35 3t40.5 7.5t39.5 10t33 11.5q6 -2 9 -8.5
t4 -14.5t1 -17v-16q9 4 18.5 8t15.5 7q26 11 53.5 21t59.5 10q9 0 23 -2t29 -6t28.5 -9t22.5 -11q13 -12 26 -31q27 16 48 28.5t41 20.5t41 9.5t47 -5.5q68 -17 101.5 -67t33.5 -128q0 -27 -2 -55t-4 -53q-2 -22 -3.5 -42t-1.5 -37v-139q0 -3 1 -8t3 -11q1 -2 1 -5t1 -5
q2 -2 4.5 -2.5t6.5 -2.5q3 -1 5.5 -4.5t2.5 -5.5zM467 524q-4 0 -10 -6q4 2 10 6z" />
    <glyph glyph-name="N" unicode="N" horiz-adv-x="612" 
d="M588 20q7 -5 4.5 -13.5t-10.5 -6.5q-11 3 -30 6t-41 4t-44.5 -1.5t-39.5 -10.5q-5 -2 -8.5 2t-3.5 9q0 37 1.5 74t3.5 73q1 18 2 44.5t2 54t1.5 54t0.5 44.5q0 48 -28.5 83t-71 58.5t-91.5 36t-90 17.5q-1 -9 -2 -33.5t-1.5 -51.5t-1 -50.5t-0.5 -31.5v-207
q0 -47 16 -85.5t45 -70.5q4 -5 2 -10.5t-9 -6.5q-13 -2 -25.5 4.5t-26.5 5.5q-27 -1 -53 -3.5t-51 -11.5q-5 -2 -10 1t-4 10q10 81 13 160.5t3 160.5v77q0 13 -0.5 35.5t-2.5 46t-6.5 43.5t-11.5 29q-5 5 -3 10t9 7q69 15 142 15q27 0 51.5 1t48 0t47 -5t50.5 -14v1
q5 -2 10.5 -5t11.5 -7l-1 1q55 -33 86.5 -63t47 -59t19 -58.5t3.5 -60.5q0 -9 -0.5 -19.5t-0.5 -21.5t-0.5 -23t-0.5 -23q0 -30 -1 -62t2.5 -61.5t14 -53.5t33.5 -38z" />
    <glyph glyph-name="O" unicode="O" horiz-adv-x="598" 
d="M579 290q0 -89 -29.5 -147.5t-77.5 -93.5t-110.5 -49.5t-128.5 -14.5q-51 0 -89 27t-63.5 69t-38.5 93t-13 99q0 76 21.5 134.5t60.5 98.5t92.5 60.5t118.5 20.5q129 0 193 -76.5t64 -220.5zM455 229q0 45 -8 101t-27.5 105t-51.5 82t-81 33q-42 0 -68.5 -23t-42 -58
t-21 -77t-5.5 -81q0 -48 13.5 -97t39 -89t61.5 -65t82 -25q35 0 56.5 18t33 46t15.5 62.5t4 67.5z" />
    <glyph glyph-name="P" unicode="P" horiz-adv-x="609" 
d="M582 329q0 -77 -21.5 -139.5t-61 -106.5t-95.5 -68t-125 -24q-16 0 -28.5 3t-23.5 6t-20 5.5t-13 3.5q-3 -23 -3.5 -48t-0.5 -48q0 -18 1 -36t1 -35q0 -8 -6 -10q-17 -5 -35 -13.5t-36 -18.5q-9 -5 -18 -8.5t-18 -8.5q-8 -4 -13.5 4t-0.5 13q6 6 10.5 26.5t7.5 49.5
t4.5 63t2 67.5t0.5 62.5v49v183q0 26 -2 54t-8.5 54t-18.5 47.5t-33 35.5q-8 5 -6.5 12t9.5 7l95 -3q37 46 90.5 64t105.5 18q55 0 102.5 -15.5t82.5 -48t55 -81.5t20 -116zM453 278q0 39 -7 87t-23.5 90t-44.5 70.5t-69 28.5q-33 0 -55 -13.5t-36 -36t-20 -52t-7 -62.5
q-3 -73 0 -145.5t3 -145.5v-24q14 14 26 29t23 35q4 7 12 5t8 -10l2 -5q-2 -5 -2 -9v-8q0 -15 9.5 -26.5t23 -19.5t29 -12t26.5 -4q36 0 56.5 24t30.5 58.5t12 74t2 71.5h1z" />
    <glyph glyph-name="Q" unicode="Q" horiz-adv-x="588" 
d="M543 140v-99q0 -42 2.5 -93t15.5 -91q2 -5 -1.5 -9.5t-9.5 -4.5q-11 0 -30.5 -8.5t-40 -20t-39.5 -23t-29 -18.5q-7 -4 -12 1l-8 1.5t-12 6.5q-6 6 -4.5 17.5l1.5 11.5q23 14 42 40.5t19 58.5v140q-8 -3 -19 -10q-14 -8 -30.5 -17t-35.5 -17t-40.5 -13.5t-43.5 -5.5
q-122 0 -183.5 74t-61.5 209q0 75 23 132t63.5 95.5t94.5 58.5t117 20q22 0 45.5 -3t45.5 -7q12 -2 22.5 -3t21.5 -3h53q6 0 20 4.5t21 8.5q6 3 10.5 0t4.5 -10v-16zM447 335q0 40 -4.5 77t-19.5 65.5t-43.5 45t-76.5 16.5q-44 0 -75.5 -15.5t-52 -44t-30.5 -67.5t-10 -87
t14.5 -97t40.5 -88t63.5 -64t84.5 -25q37 0 58 16t32 42t14 59.5t3 68.5q0 12 0.5 24t0.5 24q0 13 0.5 25.5t0.5 24.5z" />
    <glyph glyph-name="R" unicode="R" horiz-adv-x="578" 
d="M731 -80q0 -11 -10 -11q-11 0 -20.5 -3t-23.5 -4t-24.5 1.5t-22.5 2.5q-24 0 -58.5 15.5t-74.5 39.5t-82.5 54.5t-82.5 61t-75 57t-60 44.5h-6v-18v-38q0 -21 1.5 -42t4 -38t8.5 -24q5 -5 1.5 -11.5t-11.5 -5.5q-12 2 -25 5t-24 3q-10 0 -25.5 -2.5t-25.5 -5t-12 -2.5
q-5 -2 -9 2t-4 9l-1 6l2 18t4.5 43.5t5 53.5t3.5 48q2 37 2.5 78t0.5 77q0 34 -2 57.5t-9 42t-21 34.5t-37 36q-6 5 -4 12t10 7q54 2 91 12t71 23q38 14 75.5 24.5t88.5 10.5q31 0 63 -12t58 -34.5t42.5 -54t16.5 -70.5q0 -47 -12.5 -78.5t-33.5 -53t-48 -35.5t-56 -27
q-9 -4 -29.5 -6.5t-32.5 -9.5q16 -8 29.5 -20.5t25.5 -26.5t23.5 -27.5t22.5 -24.5q17 -16 54.5 -42.5t82.5 -54t90.5 -50t77.5 -31.5q8 -2 8 -10zM402 380q0 36 -10 67.5t-28 55t-44 36.5t-58 13q-25 0 -39 -16.5t-21.5 -41.5t-9.5 -55t-2 -57v-119q0 -13 -0.5 -24t1.5 -23
q5 -2 9 -2h9q36 0 71 8t62 27t43.5 51t16.5 80z" />
    <glyph glyph-name="S" unicode="S" horiz-adv-x="523" 
d="M502 173q0 -47 -26.5 -81.5t-64.5 -57t-81.5 -33.5t-76.5 -11h-61q-26 0 -56 8t-55.5 25t-42.5 43t-17 62l3 5.5t8 5.5q32 2 57 10.5t46 23.5q6 3 11 0.5t5 -9.5v-13q0 -25 15 -45.5t36.5 -35.5t46 -23t42.5 -8q17 0 33 4t28 13.5t19.5 24.5t7.5 37q0 33 -14 55.5
t-36.5 39t-51 28t-58.5 22.5q-32 12 -63.5 24.5t-56.5 31t-40 45t-15 64.5q0 51 27.5 83.5t67 50.5t83.5 24.5t78 6.5q19 0 44.5 -4.5t51 -14.5t46.5 -25t32 -37q5 -11 -5 -15q-45 -16 -60.5 -26.5t-18 -19t-1 -17t-9.5 -20.5q-6 -6 -12.5 -2.5t-6.5 11.5q2 22 -6.5 44.5
t-23.5 40.5t-36 29.5t-43 11.5h-5q-12 0 -20.5 -0.5t-17.5 -5.5q-10 -6 -17.5 -11.5t-12.5 -13t-7.5 -19.5t-2.5 -31q0 -29 14.5 -51.5t38.5 -40t54.5 -32t61.5 -27.5t61 -27t52.5 -30.5t36.5 -37.5t14 -49z" />
    <glyph glyph-name="T" unicode="T" horiz-adv-x="671" 
d="M643 543q-23 -35 -43.5 -69.5t-40.5 -71.5q-5 -7 -12.5 -5t-7.5 10t2 18l3 18q0 20 -15 30.5t-35 15.5t-42 6t-35 1q-56 0 -97 -12.5t-67.5 -40.5t-39.5 -73.5t-13 -111.5q0 -47 18.5 -90t49 -75.5t69.5 -51.5t80 -19q31 0 51 15.5t31 33.5t15.5 33.5l4.5 15.5q1 5 7 8
t11 0q24 -17 40 -18t38 1q5 0 8.5 -3t3.5 -8q0 -16 -17.5 -32.5t-44.5 -31.5t-60 -27.5t-64 -22t-57 -15t-38 -5.5q-38 0 -72 6.5t-64 22.5t-55.5 42t-46.5 64l-4 12h1q-9 28 -16 55.5t-7 57.5q0 58 11 100t32 73.5t52 55t71 44.5h-80q-16 0 -38 -1.5t-42 -4t-34 -4
l-14 -1.5q-8 -2 -11 5t4 13l14 12t33 28.5t39 35t33 31.5q5 5 11.5 2.5t6.5 -10.5l2 -3l-10 -35v-2q31 -11 67.5 -17t75 -9t77 -3.5t73.5 -0.5h15q79 0 162 24q7 2 11 -3.5t0 -12.5z" />
    <glyph glyph-name="U" unicode="U" horiz-adv-x="656" 
d="M620 25q8 -2 7.5 -11t-8.5 -10q-7 -1 -13 -0.5t-12 1.5q-5 1 -9 1h-9q-10 0 -22.5 -1.5t-23.5 -3.5q-12 -2 -24.5 -3.5t-26.5 -1.5q-8 0 -10 7q-1 3 -1 11v19t0.5 23.5t1.5 24.5q0 8 0.5 7.5t0.5 4.5q-27 -18 -59 -36t-65.5 -32t-67.5 -22.5t-64 -8.5q-41 0 -75 17.5
t-58.5 47t-38 69.5t-13.5 85q0 39 10.5 80.5t22.5 77.5q9 29 16.5 58.5t7.5 55.5q0 29 -15.5 45.5t-36.5 27.5l-6 3q-6 3 -6.5 10t6.5 10l9 4q31 -2 62 -3.5t62 -1.5q23 0 46 1t46 3q12 2 12 -10l1 -3q0 -5 -3 -8q-36 -34 -59.5 -61.5t-37.5 -58t-19.5 -68.5t-5.5 -92
q0 -43 14 -81.5t38 -67.5t57 -46t71 -17q53 0 84.5 21t48 55.5t21.5 78t5 89.5v34t-1 34q-1 14 -1 30v31q0 20 -4 33.5t-10.5 24t-14.5 19t-16 18.5q-6 7 -11.5 13t-10.5 13q-6 8 1 14q3 3 11 3.5t19 0.5t23 -0.5t22 -1.5q7 -1 11 -1h6q18 0 36 3q14 1 27.5 2.5t27.5 -1.5
q9 -2 9 -10q0 -59 -3.5 -117.5t-7.5 -117.5q-5 -58 -8.5 -116t-3.5 -118q0 -27 6 -51t32 -29z" />
    <glyph glyph-name="V" unicode="V" horiz-adv-x="603" 
d="M597 554q-11 -18 -18.5 -34.5t-13.5 -33l-12 -33t-13 -33.5q-40 -92 -79 -188.5t-57 -186.5l14 -29q3 -5 0 -10t-9 -5h-124q-3 0 -5.5 2.5l-4.5 4.5l-205 492q-8 20 -23 37t-35 24q-8 3 -6.5 13t9.5 8q20 -6 45 -6t47.5 2.5t39 5t20.5 1.5h-2q1 -1 3 -1q4 0 7.5 -2.5
t3.5 -5.5q5 -20 18 -57t30.5 -82.5t37.5 -95t38.5 -95.5t34.5 -84t25 -59q6 17 17 49t24 71l27 81t25 79t18 65t7 40q0 20 -15.5 40t-30.5 34q-5 5 -2.5 11.5t10.5 7.5l13 1l12.5 -2.5t32 -5.5t43 -5t46.5 0l5 -5.5t2 -9.5z" />
    <glyph glyph-name="W" unicode="W" horiz-adv-x="905" 
d="M897 563q-4 -12 -12.5 -41.5t-19.5 -61.5q-12 -35 -26 -77.5t-28 -87t-27.5 -87.5t-23.5 -77.5t-16 -58.5t-6 -30q0 -2 3 -9.5t5 -14.5q1 -2 2 -5t1 -4q0 -11 -11 -11q-9 0 -25 1t-29.5 2t-20.5 1.5t4 0.5h1q-17 0 -31 -2t-27 -6q-2 -1 -5.5 1.5t-4.5 4.5l-141 301
q-28 -69 -55 -135.5t-55 -135.5q2 -5 4 -9.5t4 -8.5q3 -5 0 -10t-10 -5q-9 0 -24.5 1.5t-28.5 3t-19 2.5t4 1h1q-16 0 -27.5 -4t-24.5 -4q-6 0 -10 6q-20 38 -39.5 98.5t-40.5 128.5h1q-15 49 -31 100t-32.5 96t-34 81t-35.5 56q-5 5 -3 11t10 7q6 1 12.5 -0.5t14.5 -1.5
q24 2 48.5 0.5t44.5 5.5q10 3 13 -6l132 -387q9 -26 18.5 -50.5t19.5 -50.5q25 49 43 107t35 114l10 32.5l10 32.5t5 15l-7 22t-19 50.5t-26.5 56.5t-29.5 39q-7 4 -5 11.5t10 7.5h138q8 0 10 -7q4 -13 21 -52.5t40 -91.5t48.5 -109t46.5 -104.5t35 -78.5l14 -31q5 17 13 45
t16.5 61.5t17 71t15 74t10.5 69.5t4 59q0 17 -12.5 30.5t-26.5 25.5q-8 8 -15.5 14.5t-10.5 10.5q-5 6 -2 11.5t11 5.5h5q22 0 42.5 -2t40.5 -3t41 -1q22 0 46 5q6 1 9 -5t0 -11z" />
    <glyph glyph-name="X" unicode="X" horiz-adv-x="665" 
d="M647 568q-9 -16 -19 -32t-21 -32q-8 -12 -16 -26t-15 -26q-4 -7 -11 -7q-6 0 -8 8q-8 23 -20 44t-35 21q-24 0 -49 -22.5t-47.5 -54.5t-39 -67t-22.5 -60q9 -19 22.5 -46.5t30.5 -58t36 -60.5t39 -54t40.5 -39t39.5 -15q10 0 24.5 4t24.5 7t11 4q6 2 10 -1t4 -9l2 -13
q0 -8 -7 -10l-16.5 -5t-40 -11t-49 -11t-43.5 -5q-33 0 -60 16.5t-49 41t-38.5 53t-28.5 51.5q-5 11 -10 19.5t-9 14.5q-18 -31 -44.5 -74t-59 -90.5t-69 -93.5t-74.5 -83t-75.5 -59.5t-71.5 -22.5q-8 0 -10.5 7.5t4.5 12.5l15 9q54 32 102 87.5t91 121.5t79 135.5t66 129.5
q-21 60 -50 119t-63 110q-11 17 -29 32t-35 20h1q-1 0 -3.5 0.5t-5.5 0.5q-12 1 -25 1q-12 0 -12 13q0 6 14 11t31.5 8.5t34 6t22.5 2.5q51 0 83.5 -28.5t61.5 -73.5q8 -13 20 -33.5t19.5 -34.5t8.5 -16q9 20 28.5 51.5t54 61t85.5 50t122 17.5q11 0 22 -0.5t22 -0.5
q7 0 10.5 -5t-0.5 -11z" />
    <glyph glyph-name="Y" unicode="Y" horiz-adv-x="587" 
d="M564 575q-7 -54 -9 -108.5t-3 -108.5q-1 -76 -5 -149t-20.5 -142t-51.5 -132.5t-99 -119.5q-8 -4 -15.5 -7.5t-15.5 -5.5q-22 -9 -41 -16.5t-39 -13.5t-42.5 -9t-51.5 -3q-13 0 -31.5 1t-37.5 5t-36 12t-26 23l2 14q19 15 36 32l34 34l12 12t12 11q7 5 12 2t5 -10v-11
q0 -18 10 -31t24.5 -21t31 -12t29.5 -4q48 0 82.5 22t56.5 58.5t33 82.5t13 94q-25 -20 -46 -34.5t-44 -24.5t-50.5 -14.5t-65.5 -4.5q-56 0 -95 22.5t-63 60.5t-35 88.5t-11 107.5q0 61 11 121.5t37 114.5q-10 15 -19 27.5t-24 24.5q-6 5 -4 11.5t9 7.5q15 2 27 -2t28 -5
q31 -2 55.5 4t50.5 6q8 0 11 -5.5t-1 -11.5q-35 -51 -48 -111.5t-13 -123.5q0 -47 11 -95t33 -86.5t56 -62.5t80 -24q47 0 72 27.5t35.5 69t11.5 89t1 88.5q0 44 -1.5 83.5t-4.5 83.5q-5 4 -10.5 7.5t-10.5 8.5q-11 8 -22.5 19.5t-25.5 19.5q-7 4 -6.5 11t8.5 9
q25 4 49.5 -1.5t54.5 -3.5q23 2 41 5.5t36 5.5q6 1 9.5 -3t3.5 -9z" />
    <glyph glyph-name="Z" unicode="Z" horiz-adv-x="546" 
d="M545 68q-6 -8 -11.5 -15.5t-11.5 -15.5q-22 -30 -45 -62t-45 -71q-2 -3 -8.5 -5t-11.5 3q-6 6 -2 13q3 7 5.5 15t2.5 16q0 18 -15.5 29t-41 17.5t-58.5 9t-67 2.5q-35 0 -68 -1.5t-61 -3.5q-18 -2 -35 -2.5t-26 -0.5q-8 0 -10.5 6t2.5 12q22 27 51.5 71.5t60.5 97
t61.5 108.5t55 105.5t41.5 87.5t21 56h-40q-66 0 -130 -27t-114 -79q-6 -7 -14 -1.5t-4 13.5q20 46 36 88t30 93q2 8 11 7.5t10 -9.5q1 -24 24 -34.5t57.5 -13.5t76 -1t80.5 2q34 0 61 1.5t44 2.5q5 1 10 1h8l3 -1q9 0 10.5 -8.5t-6.5 -11.5q-17 -6 -41.5 -41t-52 -85
t-56 -109.5t-53.5 -114t-44 -98t-27 -62.5q29 -3 57 -3.5t56 -0.5q37 0 76 4t76 11q6 1 17 6l22 10q10 5 19 6.5t14 -5.5q4 -6 0 -12z" />
    <glyph glyph-name="grave" unicode="`" horiz-adv-x="1045" 
d="M1023 251q0 -69 -18 -133t-50.5 -119.5t-78 -101t-101 -78t-119.5 -50.5t-133 -18t-133 18t-119.5 50.5t-101 78t-78 101t-50.5 119.5t-18 133t18 133t50.5 119.5t78 101t101 78t119.5 50.5t133 18q103 0 194.5 -39.5t159 -107t107 -159t39.5 -194.5zM908 251
q0 80 -30.5 150t-82.5 122.5t-122.5 82.5t-149.5 30q-80 0 -150 -30t-122.5 -82.5t-82.5 -122.5t-30 -150t30 -150t82.5 -122.5t122.5 -82.5t150 -30q79 0 149.5 30t122.5 82.5t82.5 122.5t30.5 150zM735 308q-19 -2 -34 -2.5t-28 -1.5q-15 -2 -26.5 -2.5t-20.5 -1.5h-6
q-23 -3 -28.5 -3.5l-5.5 -0.5l-7 15q12 6 25.5 8.5t25.5 8.5l3 4t28 6q20 12 33.5 31t15.5 52q0 6 1 8v-1q3 14 1 20q-4 12 -12.5 21.5t-19 17t-21.5 13.5t-20 10q-18 8 -34 4q-25 -17 -40 -35q1 -6 1 -15v-15q0 -16 -1 -32l-2 -32q-3 -27 -3 -53q0 -2 -2 -4t-4 -3l-51 -24
q-5 -2 -8 0.5t-3 6.5q0 15 1 30t3 31q1 17 2 32.5t1 32.5q0 11 -1.5 28.5t-6.5 27.5q-5 14 -16.5 19.5t-25.5 5.5q-8 0 -17.5 -2t-19.5 -5l-10 -10t-11 -13h-1q-1 -18 -0.5 -37t0.5 -39q0 -31 1 -54.5t3 -29.5q4 -8 -5 -11l-47 -19q-2 -1 -5.5 0.5t-4.5 4.5q-4 8 -5 15
t-1 14q0 6 0.5 12t1.5 12q1 7 1 13v15v21q0 23 0.5 48t1 45.5t1 33.5l0.5 13q0 5 4 7l51 17l2.5 -10.5t2.5 -33.5q17 8 35 16h-1q14 8 33.5 12.5t36.5 4.5q20 0 35.5 -7.5t22.5 -25.5q2 -5 2 -4t1 -4q10 6 16 9l50 23q22 10 43 10q8 0 15.5 -1.5t13.5 -5.5h-1
q23 -9 48.5 -26.5t35.5 -45.5q3 -8 2 -14.5t-3 -12.5q0 -2 -0.5 -5.5t-0.5 -5.5q-3 -38 -21 -60.5t-42 -37.5h2q14 0 29.5 2t35.5 4q7 1 8.5 -6.5t-4.5 -9.5zM167 263q-8 0 -8 8q0 9 8 9h706q8 0 8 -9q0 -8 -8 -8h-706zM637 -98q-24 0 -45.5 8t-40 21t-35.5 29.5t-33 33.5
l-3.5 3.5l-3.5 3.5q-2 4 -5.5 8.5t-8.5 8.5q0 -32 0.5 -52.5t3.5 -25.5q2 -8 -5 -11l-51 -21q-7 -4 -11 4q-5 20 -5 34q0 5 0.5 12t1.5 12q0 7 0.5 15t0.5 15q0 34 0.5 74t1.5 74.5t1.5 58l0.5 23.5q0 7 5 7l54 18l0.5 -16t0.5 -42q0 -25 0.5 -57.5t0.5 -65.5q14 11 30 23.5
t31 23.5q13 10 26 19.5t24 17.5q-12 0 -27 5q-5 2 -5 7q0 6 5 8l48 22h6q7 -3 15.5 -2.5t18.5 2.5q8 1 18.5 1.5t20.5 -1.5q6 -1 7 -6.5t-5 -8.5l-38 -18l1 1q-13 -8 -26.5 -18.5t-27.5 -22.5q-20 -16 -38.5 -30t-37.5 -25q9 -8 19 -18.5t19 -19.5l1 -2q0 1 2 -1l-1 1
q16 -16 32 -31.5t33.5 -27.5t37 -19.5t42.5 -7.5q8 0 9.5 -6.5t-5.5 -9.5z" />
    <glyph glyph-name="a" unicode="a" 
d="M562 569q0 -2 -1 -5t-3 -4q-6 -5 -18 -9h1q-5 -3 -9 -6t-7 -10q-7 -18 -9.5 -45.5t-3.5 -53.5q0 -8 -0.5 -17t-1.5 -16v-139q0 -35 1.5 -76t6 -76.5t13.5 -60t24 -26.5q8 -2 7 -11.5t-9 -9.5l-50 1q-21 1 -43 -1.5t-42 -7.5q-14 -4 -15.5 6t0.5 19v-1q1 8 1 17t1 17
q-4 -4 -12 -8q-36 -24 -73.5 -34.5t-81.5 -10.5q-52 0 -92 19.5t-67.5 53.5t-41.5 81t-14 103q0 80 22.5 141.5t63.5 103.5t97 63.5t124 21.5q28 0 57 -3t55 -17l33 -18q8 5 16 9.5t15 9.5q10 6 19.5 12.5t20.5 9.5q6 2 10.5 -1t4.5 -8zM412 285v35q0 18 -1 34
q0 13 -0.5 24.5t-0.5 21.5q0 74 -26.5 112t-92.5 38q-42 0 -70 -25.5t-44 -63.5t-22.5 -83.5t-6.5 -85.5q0 -42 11.5 -84t33 -75.5t52.5 -54.5t71 -21q32 0 51 20.5t29 53.5t13 73.5t3 80.5z" />
    <glyph glyph-name="b" unicode="b" 
d="M563 295q0 -68 -25.5 -122.5t-67.5 -93.5t-95 -60t-108 -21q-17 0 -35.5 1t-38.5 5t-40 12.5t-39 23.5q-21 16 -36.5 43t-26 53.5t-16 48t-6.5 27.5l-3 29l-2 32q-1 8 -1 15v14q0 54 13.5 108.5t29 107t29 102t13.5 93.5q0 17 -10.5 32.5t-21.5 30.5q-3 3 -7 8.5t-7 9.5
l1 7q0 10 11 10h60q24 0 47 4q11 2 23 3.5t24 1.5q9 0 12 -1t3 -3q0 -1 -1.5 -3.5t-1.5 -5.5q0 -35 -15.5 -80t-33.5 -90q-12 -30 -22 -57t-15 -50q6 5 11.5 9.5t13.5 8.5l-1 -1q42 25 85 33.5t91 8.5q25 0 50.5 -8t48.5 -22.5t41.5 -35.5t30.5 -48q11 -26 18.5 -46.5
t12 -40.5t6 -42t1.5 -51zM429 263q0 41 -8 89.5t-26.5 90.5t-48.5 70t-73 28q-37 0 -65 -16t-46.5 -42.5t-27.5 -61.5t-9 -74q0 -43 12.5 -95t36.5 -97.5t58.5 -76t77.5 -30.5q35 0 58 21t36.5 53t19 70t5.5 71z" />
    <glyph glyph-name="c" unicode="c" horiz-adv-x="552" 
d="M527 146q-47 -80 -102.5 -116t-140.5 -36q-57 0 -104.5 15.5t-82 47.5t-53.5 82.5t-19 121.5q0 142 61 221.5t176 102.5q36 7 70 4t65 -12t58.5 -22t48.5 -26q14 -9 1 -17q-8 -5 -20.5 -20.5t-25 -34t-23.5 -37.5t-15 -29q0 -7 -8 -7l-3 1q-11 0 -11 11q0 33 -10.5 60
t-29 46t-43.5 29t-53 10q-38 0 -61.5 -22t-37.5 -55t-19 -72.5t-5 -74.5q0 -39 13 -86t36 -87.5t56 -68t72 -27.5q15 0 31 6t27 25q8 10 16 26.5t14 31.5t10 26l4 11q2 0 16.5 -2.5t38 -5.5t41.5 -4q8 0 11.5 -5t0.5 -11z" />
    <glyph glyph-name="d" unicode="d" horiz-adv-x="581" 
d="M558 295q0 -69 -25.5 -123.5t-67 -93t-95 -58.5t-108.5 -20q-61 0 -105 22.5t-72 61t-41 88.5t-13 105q0 33 7 68.5t20.5 69.5t33 62.5t44.5 46.5q11 8 36.5 21.5t47.5 21.5q-11 1 -22 1q-10 0 -21 1l-69 3q-8 1 -18.5 0t-18.5 -2h1q-5 -1 -10 -1h-10h-7q-4 0 -9 1.5
t-9 3.5t-4 7q0 7 6 9q21 10 39 26t33.5 35.5t28.5 41t24 42.5q3 7 10 7t10 -7q3 -6 2.5 -13t-1.5 -12q-1 -3 -1 -4q6 -25 20 -41.5t33.5 -28.5t43 -20t49.5 -15q42 -11 84 -27t76.5 -48t56 -87t21.5 -144zM423 266q5 42 1.5 84.5t-16 79.5t-35 65.5t-55.5 43.5h-2l-5 1
q-2 0 -4 0.5t-4 0.5q-10 2 -13 2q-41 0 -67.5 -22t-42.5 -56t-22 -75.5t-6 -80.5q0 -81 27 -148.5t99 -112.5q2 -2 4 -2.5t4 -2.5q33 -19 57 -0.5t40.5 55.5t25.5 83.5t14 84.5z" />
    <glyph glyph-name="e" unicode="e" horiz-adv-x="585" 
d="M604 402q-3 -5 -10 -6l-7 -1h-85q-2 0 -24.5 0.5t-60 1.5t-74.5 1.5t-68.5 1t-42.5 0.5h-27q-20 0 -32.5 -1t-20 -9t-10 -25t-2.5 -50q0 -54 15.5 -103t44 -86t68.5 -59t90 -22q24 0 41.5 9.5t29.5 26t18.5 38.5t9.5 47q1 7 6.5 9t10.5 -1q16 -12 44 -15.5t49 -3.5
q11 0 11 -11v-8q-58 -70 -134 -108t-158 -38q-54 0 -101.5 17t-83 50t-56 82.5t-20.5 114.5q0 74 17.5 134.5t52.5 104t86 67t119 23.5q39 0 71.5 -7t59.5 -23.5t48 -44.5t36 -69l22.5 -3t51.5 -10q7 -2 13.5 -9t1.5 -15zM383 450q0 23 -8 40t-21 28.5t-30.5 17.5t-35.5 6
t-39 -9t-39.5 -24t-32 -35t-16.5 -42q25 0 50 0.5t51 1.5t52.5 1.5t53.5 0.5q9 0 15 3v11z" />
    <glyph glyph-name="f" unicode="f" horiz-adv-x="536" 
d="M535 145q-41 -20 -77.5 -31.5t-73 -17.5t-73.5 -9t-79 -5q-8 -1 -11.5 -0.5t-13.5 -1.5q0 -26 -1.5 -50t1.5 -55q1 -14 1.5 -30t2 -30t4.5 -24t9 -13q8 -3 7 -11t-9 -10q-16 -2 -37 -8t-39.5 -12t-31.5 -10.5l-13 -4.5q-5 -2 -9.5 1t-4.5 8v6l2 17.5t4.5 42t4.5 51.5
t2 45v250q0 37 -1 77t-9 77v-1q-5 21 -13.5 35.5t-18.5 24.5t-19.5 16.5t-16.5 10.5q-14 6 -21 15q-2 5 0 9.5t7 6.5l52 16t53 17q63 22 127 40t127 18q26 0 59.5 -13t72.5 -34l-3 -12q-6 -7 -13 -14l-12 -12q-12 -14 -23.5 -27.5t-23.5 -33.5q-4 -7 -11 -6.5t-9 8.5
q-6 21 -23 36.5t-39 25.5t-45.5 14.5t-41.5 4.5q-14 0 -27 -4t-27 -10q-2 -11 -2 -23v-23q0 -15 1 -50.5t2.5 -77.5t3 -83t2.5 -66t1 -27l17 -2t41 -4.5t50 -4.5t45 -2q23 0 45 0.5t45 1.5q19 1 40 1q22 0 39 -2q8 -1 9.5 -9t-5.5 -12z" />
    <glyph glyph-name="g" unicode="g" horiz-adv-x="614" 
d="M668 -77q0 -29 -20 -54.5t-52 -47.5t-71 -39t-76.5 -29t-70 -18.5t-50.5 -6.5q-33 0 -74.5 8.5t-82 25t-75.5 41t-54 56.5l0.5 4.5t2.5 7.5q3 8 9 11t11 7h-1q20 15 44 32.5t47.5 37t44.5 39.5t35 38q-33 16 -64.5 35.5t-56 46.5t-39 62.5t-14.5 82.5q0 36 15.5 67
t39.5 57t53 47.5t57 38.5h-30q-45 0 -90.5 1.5t-86.5 12.5q-8 2 -8.5 9.5t7.5 10.5q3 1 18 14.5t33 30.5t33.5 32.5t19.5 20.5q1 2 3.5 3t4.5 1h4q8 0 10.5 -5.5t-1.5 -11.5l-17 -26q4 -3 10 -4t10 -1q19 -1 38.5 -2t39.5 -2q45 -2 89.5 -4t89.5 -2h111q11 0 28 2t33 4.5
t27.5 4.5l11.5 2q5 1 9 -2t4 -8v-5q0 -5 -3 -8q-1 -1 -11 -8t-27 -18t-31 -17q-32 -14 -58 -19q-11 -2 -26 -2.5t-29 -1.5q-41 -2 -88 -6.5t-86.5 -19t-66 -42.5t-26.5 -77q0 -72 31 -121t79 -83t106 -56t111 -40q34 -11 64.5 -22t53 -23.5t35.5 -27.5t13 -34zM544 -113
q0 24 -20 44t-50 35.5t-64.5 27t-64.5 19t-50 11.5l-20 4q-6 -5 -19.5 -17t-30 -27t-34.5 -31.5t-32 -31.5q17 -33 49.5 -57t71.5 -40t79 -23.5t71 -7.5q18 0 38.5 6t37 17.5t27.5 29t11 41.5z" />
    <glyph glyph-name="h" unicode="h" horiz-adv-x="562" 
d="M574 11q0 -10 -11 -10q-21 0 -42.5 3.5t-43.5 1.5q-19 -2 -38 -3.5t-38 -1.5q-10 0 -10 11q0 41 1 81t3 82q2 38 3 80.5t1 80.5t-3 76t-14 68.5t-34.5 49.5t-63.5 19q-22 0 -42.5 -7.5t-36 -22.5t-25 -36.5t-9.5 -49.5v-194q0 -29 0.5 -60.5t3 -62t7.5 -57t14 -43.5
q3 -6 0 -10.5t-10 -4.5q-15 1 -31 4t-32 1q-14 -2 -27.5 -3t-27.5 -1h-5q-8 0 -10.5 7.5t4.5 11.5q4 3 6 27t3.5 60t2 78.5t0.5 81.5q0 28 -0.5 53t-0.5 42v59l-2 164q0 15 -0.5 30t-2.5 28.5t-7.5 25.5t-17.5 21q-15 11 -23 20.5t-24 21.5q-5 4 -0.5 9t10.5 5
q16 0 37.5 4.5t43.5 11.5t43.5 15.5t37.5 15.5q14 5 14 -10q0 -47 -3 -93q-3 -47 -3 -92q0 -11 -0.5 -25.5t-1.5 -22.5q7 4 24 11t42 14t57 12.5t71 5.5q31 0 59.5 -5.5t49.5 -20t33.5 -41t12.5 -68.5q0 -44 -1.5 -87t-3.5 -86q-2 -44 -3.5 -92t-1.5 -93q0 -35 10.5 -53
t43.5 -20q11 0 11 -11l1 -6v0z" />
    <glyph glyph-name="i" unicode="i" horiz-adv-x="247" 
d="M230 671q0 -8 -6 -10l-97 -44q-5 -2 -9 -0.5t-6 6.5l-15 37.5t-23 39.5q-7 10 4 16l89 40q8 4 14 -4l15 -20v1q9 -12 17.5 -24.5t16.5 -32.5v-5zM211 22q5 -5 4 -10.5t-7 -7.5q-7 -2 -20 -2h-23h-6q-7 0 -13 -0.5t-12 -0.5q-5 0 -11.5 -0.5t-11.5 -0.5q-2 0 -4 -1h2
q-3 -1 -11.5 -1.5t-15 -1t-7.5 -0.5h-7q-6 0 -9 4q-2 2 -1 6l1 4l3 15.5t7 37t7.5 45t3.5 40.5q1 16 1 30q0 15 1 29q3 87 3 175v39q0 20 -2 40q-12 19 -28 33.5t-33 26.5q-5 2 -5 8l1 3q0 9 10 11q6 1 19 3t28 5t28.5 6t19.5 6h3t4 1h-1q5 2 11.5 3.5t8.5 2.5l46 17
q6 2 10.5 -2t2.5 -11q-3 -11 -5 -30t-3 -33q-9 -171 -9 -343v-69q0 -21 2.5 -42.5t17.5 -34.5z" />
    <glyph glyph-name="j" unicode="j" horiz-adv-x="219" 
d="M193 671q0 -8 -6 -10l-97 -44q-11 -5 -15 6q-8 20 -15.5 37.5t-22.5 39.5q-4 5 -2.5 9.5t6.5 6.5l92 50q2 2 7 1t7 -5l12 -30v1q9 -12 17.5 -24.5t16.5 -32.5v-5zM190 308q0 -59 -3 -116.5t-13 -110t-28.5 -98t-49.5 -78.5l1 1q-7 -11 -15.5 -22t-18.5 -22q-4 -5 -8 -9.5
t-8 -9.5q-1 -2 -3.5 -3t-4.5 -1l-3 1q-8 0 -10.5 6.5t2.5 11.5l41 97q10 52 13 107.5t3 112.5q0 23 1.5 46t0.5 45q0 38 -1 77t-1 77q0 35 -10.5 62.5t-47.5 43.5q-6 3 -6 9q0 7 5 11q5 3 9.5 5.5t11.5 4.5q2 2 5.5 3t6.5 2h1q33 14 60 30t54 33q7 4 12 1t4 -10
q-3 -45 -3 -99q0 -22 0.5 -44.5t0.5 -46.5q1 -26 1.5 -58t0.5 -59z" />
    <glyph glyph-name="k" unicode="k" horiz-adv-x="585" 
d="M568 22q9 -2 8.5 -10.5t-9.5 -10.5q-11 -2 -22 0.5t-22 2.5h-29h-44t-45 -5q-4 -1 -8 3q-15 15 -23 31q-2 4 -6 11.5t-8 12.5h1q-4 5 -7.5 9.5t-7.5 9.5q-17 23 -32.5 45t-27.5 45q-8 9 -17.5 25t-19.5 32q-11 20 -22.5 38t-26.5 33q-2 -2 -3 -2t-3 -2v-1q-1 -5 -1.5 -9
t-0.5 -6q0 -32 2.5 -77t6 -87t6 -71.5l2.5 -29.5q1 -6 -3 -10t-10 -2q-1 0 -10.5 2t-26.5 4t-33 2q-11 0 -20.5 -1t-17.5 -4q-5 -2 -9.5 1t-4.5 9v3q13 70 16.5 140.5t3.5 141.5q0 45 -0.5 88t-1.5 88t-1.5 88.5t-0.5 87.5q0 7 -6 16t-15.5 18t-20.5 18t-20 17q-5 4 -9.5 7
t-7.5 6l-3 3q-5 5 -2.5 11.5t10.5 6.5h8q22 0 46 3.5t46.5 9.5t42 13.5t31.5 15.5l8 -1q5 0 8.5 -3.5t2.5 -8.5q-14 -80 -17 -163.5t-3 -163.5q0 -33 0.5 -55.5t2.5 -55.5q19 13 46.5 35t53.5 47t44.5 49.5t18.5 43.5q0 15 -5 28.5t-12 24.5q-4 7 -0.5 13t11.5 4
q12 -3 22.5 -4t21.5 -1q17 0 34.5 2t36.5 4q17 2 35.5 3.5t36.5 -0.5q8 -1 10.5 -7.5t-4.5 -11.5q-9 -6 -27 -20t-41.5 -32t-49 -38t-49 -39t-42.5 -35t-28 -25q9 -23 27 -57.5t41.5 -73.5t50 -78.5t53 -72t50 -54t41.5 -24.5z" />
    <glyph glyph-name="l" unicode="l" horiz-adv-x="230" 
d="M203 16q2 -5 -0.5 -9t-7.5 -5q-14 -2 -28.5 0t-29.5 3q-8 1 -17 1q-8 0 -16 1l-2 -2h2q-3 -1 -13 -1q-7 -1 -18.5 -2l-11.5 -1q-5 -1 -7 1t-4 5q-2 2 -2.5 5l-0.5 3l1 4l4.5 8.5t10.5 21t10.5 26t4.5 23.5q-1 131 1.5 259.5t0.5 259.5q0 21 -1.5 47.5t-15.5 43.5
q-5 11 -16.5 23t-19.5 18q-6 5 -4 12t9 8q22 3 49 11t50 16.5t39 15l16 6.5q5 3 10 -0.5t4 -9.5l-1 -21t-2.5 -51t-2.5 -62t-2 -54q-2 -101 -4 -203t-1 -204q0 -17 0.5 -45t2 -57.5t4.5 -55.5t9 -39z" />
    <glyph glyph-name="m" unicode="m" horiz-adv-x="837" 
d="M811 13q0 -9 -2 -12t-5 -3q-2 0 -5 1.5t-6 1.5l-123 2q-5 0 -11 6l15 261v74q0 28 -3.5 60t-14 58t-29 43.5t-47.5 17.5q-30 0 -47.5 -18t-26.5 -45.5t-11.5 -62t-2.5 -67.5v-46v-166q0 -14 5 -35.5t9 -39.5q3 -11 5 -15.5t2 -15.5t-11 -11h-4l-66 2l-56 -2q-11 0 -11 11
q0 17 0.5 20t2 3.5t2.5 4t3 21.5t4 50.5t3.5 67t2 66.5t0.5 49q0 36 -1 76t-10.5 74.5t-30.5 57t-61 22.5q-27 0 -43.5 -19t-25.5 -49t-12 -68t-3 -75q0 -23 1 -43.5t1 -39.5v1q3 -46 1 -92.5t6 -92.5l5 -30q2 -6 -2 -10t-9 -3q-23 3 -58 3q-16 0 -29.5 -1t-21.5 -4
q-7 -2 -11.5 1.5t-3.5 10.5q5 18 6.5 39.5t3.5 41.5q3 15 3 31q0 32 1 63.5t3 63.5q3 51 3 99v42q0 28 -0.5 48t-6.5 35.5t-20 30.5t-41 34q-5 4 -5.5 9t4.5 8t10 3.5t10 0.5q16 0 36 3t40 7.5t39 10t33 11.5q6 -2 9 -8.5t4.5 -14.5t1.5 -17t-1 -16q9 4 18.5 8t15.5 7
q26 11 53.5 21t59.5 10q9 0 23 -2t29 -6t28.5 -9t22.5 -11q13 -12 26 -31q27 16 48 28.5t41 20.5t41 9.5t47 -5.5q68 -17 102 -67t34 -128q0 -27 -2 -55t-4 -53q-2 -22 -4 -42t-2 -37v-139q0 -6 5 -19q0 -2 0.5 -5t0.5 -5q2 -2 4.5 -2.5t6.5 -2.5q3 -1 6 -4.5t3 -5.5z
M483 524q-3 0 -11 -6q4 2 10 6h1z" />
    <glyph glyph-name="n" unicode="n" horiz-adv-x="612" 
d="M588 20q7 -5 4.5 -13.5t-10.5 -6.5q-11 3 -30 6t-41 4t-44.5 -1.5t-39.5 -10.5q-5 -2 -8.5 2t-3.5 9q0 37 1.5 74t3.5 73q1 18 2 44.5t2 54t1.5 54t0.5 44.5q0 48 -28.5 83t-71 58.5t-91.5 36t-90 17.5q-1 -9 -2 -33.5t-1.5 -51.5t-1 -50.5t-0.5 -31.5v-207
q0 -47 16 -85.5t45 -70.5q4 -5 2 -10.5t-9 -6.5q-13 -2 -25.5 4.5t-26.5 5.5q-27 -1 -53 -3.5t-51 -11.5q-5 -2 -10 1t-4 10q10 81 13 160.5t3 160.5v77q0 13 -0.5 35.5t-2.5 46t-6.5 43.5t-11.5 29q-5 5 -3 10t9 7q69 15 142 15q27 0 51.5 1t48 0t47 -5t50.5 -14v1
q5 -2 10.5 -5t11.5 -7l-1 1q55 -33 86.5 -63t47 -59t19 -58.5t3.5 -60.5q0 -9 -0.5 -19.5t-0.5 -21.5t-0.5 -23t-0.5 -23q0 -30 -1 -62t2.5 -61.5t14 -53.5t33.5 -38z" />
    <glyph glyph-name="o" unicode="o" horiz-adv-x="598" 
d="M574 290q0 -89 -29.5 -147.5t-77.5 -93.5t-110.5 -49.5t-128.5 -14.5q-51 0 -89 27t-63.5 69t-38.5 93t-13 99q0 76 21.5 134.5t60.5 98.5t92.5 60.5t118.5 20.5q129 0 193 -76.5t64 -220.5zM450 229q0 45 -8 101t-27.5 105t-51.5 82t-81 33q-42 0 -68.5 -23t-42 -58
t-21 -77t-5.5 -81q0 -48 13.5 -97t39 -89t61.5 -65t82 -25q35 0 56.5 18t33 46t15.5 62.5t4 67.5z" />
    <glyph glyph-name="p" unicode="p" horiz-adv-x="609" 
d="M582 329q0 -77 -21.5 -139.5t-61 -106.5t-95.5 -68t-125 -24q-30 0 -45.5 7t-23 16t-10 16.5t-6.5 8.5q-2 -12 -2.5 -28.5t-1 -34.5t-0.5 -34v-29q0 -18 1 -36t1 -35q0 -8 -6 -10q-17 -5 -35 -13.5t-36 -18.5q-9 -5 -18 -8.5t-18 -8.5q-8 -4 -13.5 4t-0.5 13
q6 6 10.5 26.5t7.5 49.5t4.5 63t2 67.5t0.5 62.5v49v183q0 26 -2 54t-8.5 54t-18.5 47.5t-33 35.5q-8 5 -6.5 12t9.5 7l95 -3q37 46 90.5 64t105.5 18q55 0 102.5 -15.5t82.5 -48t55 -81.5t20 -116zM453 278q0 39 -7 87t-23.5 90t-44.5 70.5t-69 28.5q-33 0 -55 -13.5
t-36 -36t-20 -52t-7 -62.5q-3 -73 0 -145.5t3 -145.5v-24q14 14 26 29t23 35q4 7 12 5t8 -10l2 -5q-2 -5 -2 -9v-8q0 -15 9.5 -26.5t23 -19.5t29 -12t26.5 -4q36 0 56.5 24t30.5 58.5t12 74t2 71.5h1z" />
    <glyph glyph-name="q" unicode="q" horiz-adv-x="588" 
d="M543 140v-99q0 -42 2.5 -93t15.5 -91q2 -5 -1.5 -9.5t-9.5 -4.5q-11 0 -30.5 -8.5t-40 -20t-39.5 -23t-29 -18.5q-7 -4 -12 1l-8 1.5t-12 6.5q-6 6 -4.5 17.5l1.5 11.5q23 14 42 40.5t19 58.5v140q-8 -3 -19 -10q-14 -8 -30.5 -17t-35.5 -17t-40.5 -13.5t-43.5 -5.5
q-122 0 -183.5 74t-61.5 209q0 75 23 132t63.5 95.5t94.5 58.5t117 20q22 0 45.5 -3t45.5 -7q12 -2 22.5 -3t21.5 -3h53q6 0 20 4.5t21 8.5q6 3 10.5 0t4.5 -10v-16zM447 335q0 40 -4.5 77t-19.5 65.5t-43.5 45t-76.5 16.5q-44 0 -75.5 -15.5t-52 -44t-30.5 -67.5t-10 -87
t14.5 -97t40.5 -88t63.5 -64t84.5 -25q37 0 58 16t32 42t14 59.5t3 68.5q0 12 0.5 24t0.5 24q0 13 0.5 25.5t0.5 24.5z" />
    <glyph glyph-name="r" unicode="r" horiz-adv-x="578" 
d="M735 -70q0 -11 -10 -11q-11 0 -20.5 -3t-23.5 -4t-24.5 1.5t-22.5 2.5q-24 0 -58.5 14.5t-74.5 38t-82.5 52.5t-82.5 58t-75 55t-60 44h-6v-18v-38q0 -21 1.5 -42t4 -38t8.5 -24q5 -5 1.5 -11.5t-11.5 -5.5q-12 2 -25 5t-24 3q-10 0 -25.5 -2.5t-25.5 -5t-12 -2.5
q-5 -2 -9 2t-4 9l-1 6l2 18t4.5 43.5t5 53.5t3.5 48q2 37 2.5 78t0.5 77q0 34 -2 57.5t-9 42t-21 34.5t-37 36q-6 5 -4 12t10 7q54 2 91 12t71 23q38 14 75.5 24.5t88.5 10.5q31 0 63 -12t58 -34.5t42.5 -54t16.5 -70.5q0 -47 -12.5 -78.5t-33.5 -53t-48 -35.5t-56 -27
q-9 -4 -29.5 -6.5t-32.5 -9.5q32 -17 55 -37t46 -42q17 -16 54.5 -44t82.5 -57.5t90.5 -53.5t77.5 -33q8 -2 8 -10zM406 380q0 36 -10 67.5t-28 55t-44 36.5t-58 13q-25 0 -39 -16.5t-21.5 -41.5t-9.5 -55t-2 -57v-119q0 -13 -0.5 -24t1.5 -23q5 -2 9 -2h9q36 0 71 8t62 27
t43.5 51t16.5 80z" />
    <glyph glyph-name="s" unicode="s" horiz-adv-x="523" 
d="M502 173q0 -47 -26.5 -81.5t-64.5 -57t-81.5 -33.5t-76.5 -11h-61q-26 0 -56 8t-55.5 25t-42.5 43t-17 62l3 5.5t8 5.5q32 2 57 10.5t46 23.5q6 3 11 0.5t5 -9.5v-13q0 -25 15 -45.5t36.5 -35.5t46 -23t42.5 -8q17 0 33 4t28 13.5t19.5 24.5t7.5 37q0 33 -14 55.5
t-36.5 39t-51 28t-58.5 22.5q-32 12 -63.5 24.5t-56.5 31t-40 45t-15 64.5q0 51 27.5 83.5t67 50.5t83.5 24.5t78 6.5q19 0 44.5 -4.5t51 -14.5t46.5 -25t32 -37q5 -11 -5 -15q-45 -16 -60.5 -26.5t-18 -19t-1 -17t-9.5 -20.5q-6 -6 -12.5 -2.5t-6.5 11.5q2 22 -6.5 44.5
t-23.5 40.5t-36 29.5t-43 11.5h-5q-12 0 -20.5 -0.5t-17.5 -5.5q-10 -6 -17.5 -11.5t-12.5 -13t-7.5 -19.5t-2.5 -31q0 -29 14.5 -51.5t38.5 -40t54.5 -32t61.5 -27.5t61 -27t52.5 -30.5t36.5 -37.5t14 -49z" />
    <glyph glyph-name="t" unicode="t" horiz-adv-x="671" 
d="M643 562q-23 -35 -43.5 -70t-40.5 -71q-5 -8 -12.5 -5.5t-7.5 10.5t2 18l3 18q0 20 -15 30.5t-35 15.5t-42 6t-35 1q-56 0 -97 -12.5t-67.5 -40.5t-39.5 -73.5t-13 -111.5q0 -47 18.5 -90t49 -75.5t69.5 -51.5t80 -19q31 0 51 15.5t31 33.5t15.5 33.5l4.5 15.5q1 5 7 8
t11 0q24 -17 40 -18t38 1q5 0 8.5 -3t3.5 -8q0 -16 -17.5 -32.5t-44.5 -31.5t-60 -27.5t-64 -22t-57 -15t-38 -5.5q-38 0 -72 6.5t-64 22.5t-55.5 42t-46.5 64l-4 12h1q-9 28 -16 55.5t-7 57.5q0 58 11 100t32 73.5t52 55t71 44.5h-80q-16 0 -38 -1.5t-42 -4t-34 -4
l-14 -1.5q-8 -2 -11 5t4 13l14 12t33 28.5t39 35t33 31.5q5 5 11.5 2.5t6.5 -10.5l2 -3l-10 -35v-2q31 -11 67.5 -17t75 -9t77 -3.5t73.5 -0.5h15q40 0 80 5.5t82 18.5q7 2 11 -3.5t0 -12.5z" />
    <glyph glyph-name="u" unicode="u" horiz-adv-x="656" 
d="M630 25q8 -2 7.5 -11t-8.5 -10q-7 -1 -13 -0.5t-12 1.5q-5 1 -9 1h-9q-10 0 -22.5 -1.5t-23.5 -3.5q-12 -2 -24.5 -3.5t-26.5 -1.5q-8 0 -10 7q-1 3 -1 11v19t0.5 23.5t1.5 24.5q0 8 0.5 7.5t0.5 4.5q-27 -18 -59 -36t-65.5 -32t-67.5 -22.5t-64 -8.5q-41 0 -75 17.5
t-58.5 47t-38 69.5t-13.5 85q0 39 10.5 80.5t22.5 77.5q9 29 16.5 58.5t7.5 55.5q0 29 -15.5 45.5t-36.5 27.5l-6 3q-6 3 -6 10t6 10l9 4q31 -2 62 -3.5t62 -1.5q23 0 46 1t46 3q12 2 12 -10l1 -3q0 -5 -3 -8q-36 -34 -59.5 -61.5t-37.5 -58t-19.5 -68.5t-5.5 -92
q0 -43 14 -81.5t38 -67.5t57 -46t71 -17q53 0 84.5 21t48 55.5t21.5 78t5 89.5v34t-1 34q-1 14 -1 30v31q0 20 -4 33.5t-10.5 24t-14.5 19t-16 18.5q-6 7 -11.5 13t-10.5 13q-2 3 -1.5 7.5t2.5 6.5q3 3 11.5 3.5t19.5 0.5t22.5 -0.5t21.5 -1.5q7 -1 11 -1h6q18 0 36 3
q14 1 27.5 2.5t27.5 -1.5q9 -2 9 -10q0 -59 -3.5 -117.5t-7.5 -117.5q-5 -58 -8.5 -116t-3.5 -118q0 -27 6 -51t32 -29z" />
    <glyph glyph-name="v" unicode="v" horiz-adv-x="603" 
d="M597 554q-11 -18 -18.5 -34.5t-13.5 -33l-12 -33t-13 -33.5q-40 -92 -79 -188.5t-57 -186.5l14 -29q3 -5 0 -10t-9 -5h-124q-3 0 -5.5 2.5l-4.5 4.5l-205 492q-8 20 -23 37t-35 24q-8 3 -6.5 13t9.5 8q20 -6 45 -6t47.5 2.5t39 5t20.5 1.5h-2q1 -1 3 -1q4 0 7.5 -2.5
t3.5 -5.5q5 -20 18 -57t30.5 -82.5t37.5 -95t38.5 -95.5t34.5 -84t25 -59q6 17 17 49t24 71l27 81t25 79t18 65t7 40q0 20 -15.5 40t-30.5 34q-5 5 -2.5 11.5t10.5 7.5l13 1l12.5 -2.5t32 -5.5t43 -5t46.5 0l5 -5.5t2 -9.5z" />
    <glyph glyph-name="w" unicode="w" horiz-adv-x="905" 
d="M897 563q-4 -12 -12.5 -41.5t-19.5 -61.5q-12 -35 -26 -77.5t-28 -87t-27.5 -87.5t-23.5 -77.5t-16 -58.5t-6 -30q0 -2 3 -9.5t5 -14.5q1 -2 2 -5t1 -4q0 -11 -11 -11q-9 0 -25 1t-29.5 2t-20.5 1.5t4 0.5h1q-17 0 -31 -2t-27 -6q-2 -1 -5.5 1.5t-4.5 4.5l-141 301
q-28 -69 -55 -135.5t-55 -135.5q2 -5 4 -9.5t4 -8.5q3 -5 0 -10t-10 -5q-9 0 -24.5 1.5t-28.5 3t-19 2.5t4 1h1q-16 0 -27.5 -4t-24.5 -4q-6 0 -10 6q-20 38 -39.5 98.5t-40.5 128.5h1q-15 49 -31 100t-32.5 96t-34 81t-35.5 56q-5 5 -3 11t10 7q6 1 12.5 -0.5t14.5 -1.5
q24 2 48.5 0.5t44.5 5.5q10 3 13 -6l132 -387q9 -26 18.5 -50.5t19.5 -50.5q25 49 43 107t35 114l10 32.5l10 32.5t5 15l-7 22t-19 50.5t-26.5 56.5t-29.5 39q-7 4 -5 11.5t10 7.5h138q8 0 10 -7q4 -13 21 -52.5t40 -91.5t48.5 -109t46.5 -104.5t35 -78.5l14 -31q5 17 13 45
t16.5 61.5t17 71t15 74t10.5 69.5t4 59q0 17 -12.5 30.5t-26.5 25.5q-8 8 -15.5 14.5t-10.5 10.5q-5 6 -2 11.5t11 5.5h5q22 0 42.5 -2t40.5 -3t41 -1q22 0 46 5q6 1 9 -5t0 -11z" />
    <glyph glyph-name="x" unicode="x" horiz-adv-x="665" 
d="M720 568q-9 -16 -19 -32t-21 -32q-8 -12 -16 -26t-15 -26q-4 -7 -11 -7q-6 0 -8 8q-8 23 -20 44t-35 21q-24 0 -49 -22.5t-47.5 -54.5t-39 -67t-22.5 -60q9 -19 22.5 -46.5t30.5 -58t36 -60.5t39 -54t40.5 -39t39.5 -15q10 0 24.5 4t24.5 7t11 4q6 2 10 -1t4 -9l2 -13
q0 -8 -7 -10l-16.5 -5t-40 -11t-49 -11t-43.5 -5q-33 0 -60 16.5t-49 41t-38.5 53t-28.5 51.5q-5 11 -10 19.5t-9 14.5q-18 -31 -44.5 -74t-59 -90.5t-69 -93.5t-74.5 -83t-75.5 -59.5t-71.5 -22.5q-8 0 -10.5 7.5t4.5 12.5l15 9q54 32 102 87.5t91 121.5t79 135.5t66 129.5
q-21 60 -50 119t-63 110q-11 17 -29 32t-35 20h1q-1 0 -3.5 0.5t-5.5 0.5q-12 1 -25 1q-12 0 -12 13q0 6 14 11t31.5 8.5t34 6t22.5 2.5q51 0 83.5 -28.5t61.5 -73.5q8 -13 20 -33.5t19.5 -34.5t8.5 -16q9 20 28.5 51.5t54 61t85.5 50t122 17.5q11 0 22 -0.5t22 -0.5
q7 0 10.5 -5t-0.5 -11z" />
    <glyph glyph-name="y" unicode="y" horiz-adv-x="587" 
d="M564 570q-7 -54 -9 -108.5t-3 -108.5q-1 -76 -5 -149t-20.5 -142t-51.5 -132.5t-99 -119.5q-8 -4 -15.5 -7.5t-15.5 -5.5q-22 -9 -41 -16.5t-39 -13.5t-42.5 -9t-51.5 -3q-13 0 -31.5 1t-37.5 5t-36 12t-26 23l2 14q19 15 36 32l34 34l12 12t12 11q7 5 12 2t5 -10v-11
q0 -18 10 -31t24.5 -21t31 -12t29.5 -4q48 0 82.5 22t56.5 58.5t33 82.5t13 94q-25 -20 -46 -34.5t-44 -24.5t-50.5 -14.5t-65.5 -4.5q-56 0 -95 22.5t-63 60.5t-35 88.5t-11 107.5q0 61 11 121.5t37 114.5q-10 15 -19 27.5t-24 24.5q-6 5 -4 11.5t9 7.5q15 2 27 -2t28 -5
q31 -2 55.5 4t50.5 6q8 0 11 -5.5t-1 -11.5q-35 -51 -48 -111.5t-13 -123.5q0 -47 11 -95t33 -86.5t56 -62.5t80 -24q47 0 72 27.5t35.5 69t11.5 89t1 88.5q0 44 -1.5 83.5t-4.5 83.5q-5 4 -10.5 7.5t-10.5 8.5q-11 8 -22.5 19.5t-25.5 19.5q-7 4 -6.5 11t8.5 9
q25 4 49.5 -1.5t54.5 -3.5q23 2 41 5.5t36 5.5q6 1 9.5 -3t3.5 -9z" />
    <glyph glyph-name="z" unicode="z" horiz-adv-x="541" 
d="M545 68q-6 -8 -11.5 -15.5t-11.5 -15.5q-22 -30 -45 -62t-45 -71q-2 -3 -8.5 -5t-11.5 3q-6 6 -2 13q3 7 5.5 15t2.5 16q0 18 -15.5 29t-41 17.5t-58.5 9t-67 2.5q-35 0 -68 -1.5t-61 -3.5q-18 -2 -35 -2.5t-26 -0.5q-8 0 -10.5 6t2.5 12q22 27 51.5 71.5t60.5 97
t61.5 108.5t55 105.5t41.5 87.5t21 56h-40q-66 0 -130 -27t-114 -79q-6 -7 -14 -1.5t-4 13.5q20 46 36 88t30 93q2 8 11 7.5t10 -9.5q1 -24 24 -34.5t57.5 -13.5t76 -1t80.5 2q34 0 61 1.5t44 2.5q5 1 10 1h8l3 -1q9 0 10.5 -8.5t-6.5 -11.5q-17 -6 -41.5 -41t-52 -85
t-56 -109.5t-53.5 -114t-44 -98t-27 -62.5q29 -3 57 -3.5t56 -0.5q37 0 76 4t76 11q6 1 17 6l22 10q10 5 19 6.5t14 -5.5q4 -6 0 -12z" />
    <glyph glyph-name="quotedblbase" unicode="&#x201e;" horiz-adv-x="356" 
d="M332 65q0 -32 -4.5 -63.5t-17.5 -64.5l-99 -45q-8 -2 -12.5 2.5t-2.5 12.5q16 34 20 70t4 72v35v37t1 36q0 2 1.5 5.5t3.5 4.5l91 40l15 -10q-1 -14 -1.5 -26t-0.5 -26v-18t1 -17q0 -10 0.5 -22.5t0.5 -22.5zM162 65q0 -32 -4.5 -63.5t-18.5 -64.5l-99 -45
q-7 -2 -12.5 2.5t-1.5 12.5q14 34 18.5 70t4.5 72v35v37t1 36q0 2 2 5.5t4 4.5l90 40l16 -10q-1 -14 -1.5 -26t-0.5 -26v-18t1 -17q0 -10 0.5 -22.5t0.5 -22.5z" />
    <glyph glyph-name="ellipsis" unicode="&#x2026;" horiz-adv-x="875" 
d="M752 -3q-4 -2 -7.5 -0.5t-5.5 4.5t-2.5 7t2.5 7l-4.5 1.5t-23.5 19.5t-57 59q-5 5 -3.5 9.5t6.5 6.5l90 42q7 3 13 -3q37 -40 53 -59.5t18 -23.5l2 -4q8 4 12.5 -5t-3.5 -14zM507 46q0 -8 -7 -10l-81 -34q-2 -6 -8 -7.5t-11 3.5l-66 78q-4 4 -3 9t6 7l90 42q7 3 13 -3
l66 -79zM112 -3l-8 19l-5.5 2t-22.5 16.5t-47 48.5q-5 5 -3.5 10t6.5 7l90 42q3 1 6.5 0t5.5 -3q32 -36 46 -53t15.5 -20l1.5 -3q8 3 12 -6.5t-4 -12.5z" />
    <glyph glyph-name="dagger" unicode="&#x2020;" horiz-adv-x="472" 
d="M346 388v-3t-10.5 -5.5t-37.5 -2.5q0 -130 -2 -216t-4 -134t-5 -71.5t-4.5 -29l-1.5 -5.5l-2 -4l14 -9q-23 -12 -46 -23.5t-46 -23.5q-6 -3 -10.5 0t-4.5 10l1 8v3v25v74v147v249h-148q-8 0 -10.5 8.5t5.5 12.5l98 45h55v185q0 8 5 10l91 41q5 3 10 0t5 -10v-226h132
q4 2 7.5 0t5.5 -5.5t1.5 -7.5t-4.5 -6z" />
    <glyph glyph-name="OE" unicode="&#x152;" horiz-adv-x="279" 
d="M257 706q-31 -22 -53.5 -50.5t-37 -61.5t-21.5 -68.5t-7 -71.5q0 -10 0.5 -18.5t1.5 -18.5q0 -8 -6 -11l-96 -44q-5 -2 -9.5 0.5t-5.5 7.5q-1 8 -1 16v17q0 40 8 80t23 76t36.5 66t49.5 50l109 49l9 -18v0z" />
    <glyph glyph-name="bullet" unicode="&#x2022;" horiz-adv-x="353" 
d="M322 404q6 -10 -4 -15l-77 -36q-10 -4 -15 5q-11 20 -23 33.5t-28 29.5q-10 10 3 17l68 31q6 2 10 -2q3 -2 6.5 -5t14.5 -10q11 -10 23 -20t22 -28zM174 404q6 -10 -4 -15l-79 -36q-9 -4 -14 5q-11 20 -22.5 33.5t-28.5 29.5q-10 10 3 17l68 31q5 2 11 -2q3 -2 6.5 -4.5
t13.5 -10.5q12 -9 23.5 -19.5t22.5 -28.5zM327 212q0 -7 -6 -9l-74 -35q-6 -3 -11 0t-5 9q-2 6 -2 9q-7 15 -20.5 29t-30.5 29q-11 11 2 18l68 32q7 3 12 -2q4 -4 11 -10.5t12 -10.5q12 -10 24 -21.5t17 -25.5q3 -8 3 -12zM179 212q0 -7 -6 -9l-76 -35q-5 -3 -10 0t-5 9
q0 1 -0.5 2t-0.5 2v-1h1q-8 19 -22 33.5t-31 30.5q-11 11 2 18l67 32q7 4 13 -2q5 -5 10.5 -9.5t10.5 -9.5q14 -10 26 -21.5t17 -28.5v2q2 -2 2.5 -3t0.5 -7q0 -1 0.5 -1.5t0.5 -1.5z" />
    <glyph glyph-name="oe" unicode="&#x153;" horiz-adv-x="235" 
d="M211 617q0 -30 -12.5 -59t-27.5 -58q-9 -16 -17.5 -33.5t-13.5 -29.5q0 -4 -4 -6l-97 -44q-7 -3 -12 1.5t-3 11.5q8 21 17 39t18 35q17 28 28.5 54.5t11.5 51.5q0 7 -0.5 13.5t-2.5 13.5q-7 20 -34 47q-5 5 -4 10t6 8l90 42q8 3 12 -2q13 -14 22.5 -27.5t14.5 -29.5v-1
q8 -21 8 -37z" />
    <glyph glyph-name="sterling" unicode="&#xa3;" horiz-adv-x="580" 
d="M553 40q5 -10 -5 -15l-114 -52q-10 -4 -15 5q-9 18 -28.5 30.5t-45 21t-56 12.5t-61.5 4q-45 0 -87.5 -8t-72.5 -22q-6 -3 -12.5 -5.5t-12.5 -5.5q-8 -4 -13.5 4t0.5 13q40 39 67 91t45 110h-34q-16 0 -31.5 -0.5t-32.5 -0.5q-9 0 -10.5 8.5t6.5 11.5l113 53h7
q2 6 3.5 14t2.5 16q1 6 2 11.5t2 11.5q3 23 7 45t11.5 40.5t20 34t33.5 24.5l112 51h-1q17 8 33.5 11.5t31.5 3.5q66 0 120 -74q7 -11 -4 -16l-102 -47q-8 -4 -14 4q-19 26 -43 40.5t-50 17.5q-10 -18 -15 -42t-8 -48q-4 -26 -7.5 -49t-10.5 -48q78 1 120 2.5t61 2t22 1
l3 0.5q8 3 12.5 -6t-3.5 -14l-114 -58l-8 19q-2 -1 -15 -5t-28.5 -9t-16.5 -5h-55q-12 -33 -27 -64t-34 -57q30 8 67 12.5t73 4.5q34 0 67.5 -4t62 -13.5t50 -25t32.5 -37.5z" />
    <glyph glyph-name="currency" unicode="&#xa4;" horiz-adv-x="603" 
d="M509 432q-2 -2 -6 -2t-6 2q-20 16 -36.5 23t-35.5 12t-43 8.5t-47 3.5q-13 0 -25 -1t-24 -4q-23 -33 -35 -89q89 0 137 -0.5t69.5 -1.5t24.5 -1.5l3 -0.5l16 -14q-17 -11 -37 -20.5t-36 -20.5l-1.5 -1t-18 -2.5t-56 -2.5t-115.5 -1q-4 -34 -3 -67l292 -3q8 3 12 -5
t-3 -13l-66 -47l-11 19l-8.5 -3t-32.5 -6.5t-66 -6t-109 -2.5v-3q8 -31 25.5 -54t40 -38.5t48 -23t50.5 -7.5q36 0 66 16q5 3 9 4.5t9 4.5l14 6q7 3 11.5 -3.5t-0.5 -12.5l-10 -14l-41 -24l1 1q-8 -5 -16.5 -10t-16.5 -10q-4 -2 -6 -2.5t-10 -6.5q-33 -22 -78 -22
q-29 0 -58 9t-54.5 27.5t-44.5 45.5t-28 63q-3 12 -5.5 25.5t-3.5 29.5q-26 0 -54 0.5t-54 0.5q-8 0 -10 7.5t5 12.5l69 46l45 -1q2 16 4 34t5 33h-108q-8 0 -10 7.5t4 11.5l69 47h62q12 32 27.5 58t33.5 38q17 11 35 22.5t35 22.5q19 12 44.5 17.5t52.5 5.5q28 0 53.5 -3.5
t44.5 -8.5h-1q22 -5 36 -14t34 -26q3 -3 4 -3.5t2 -1.5q5 -4 5 -9t-5 -9z" />
    <glyph glyph-name="brokenbar" unicode="&#xa6;" horiz-adv-x="307" 
 />
    <glyph glyph-name="section" unicode="&#xa7;" horiz-adv-x="485" 
d="M342 366q7 -9 -4 -14l-103 -48q-11 -4 -15 7q0 2 -1.5 4.5t-1.5 4.5v-1q-11 26 -23 49t-34 37q-6 4 -6 10t6 9l90 41l10 -1q50 -32 83 -98h-1zM457 212q4 -9 -4 -13l-97 -45q-4 -2 -8 -0.5t-6 6.5q-11 30 -22.5 52t-38.5 39q-7 4 -6.5 10t6.5 9l90 41l11 -1
q27 -17 44.5 -39t31.5 -59h-1zM340 71q2 -4 -0.5 -7t-5.5 -5l-99 -45q-4 -2 -7.5 0t-5.5 4q0 2 -1 7t-3 7q0 2 -1 3.5t1 0.5q-8 20 -17.5 37.5t-29.5 37.5q-5 5 -4 10.5t6 7.5l89 42l13 -2q21 -20 35 -37t23 -44v1q3 -7 5 -11t2 -7zM199 201q2 -4 0.5 -8t-4.5 -6l-97 -44
q-3 -1 -7.5 0t-6.5 5q-2 2 -6.5 12.5t-6.5 18.5q-6 17 -13.5 30t-29.5 30q-5 4 -5 10t6 9l89 42l11 -1q26 -20 38.5 -38t24.5 -41q0 -4 2.5 -9.5t4.5 -9.5zM222 19v-1v1z" />
    <glyph glyph-name="dieresis" unicode="&#xa8;" horiz-adv-x="244" 
d="M213 714l-30 -4h-12q-11 0 -25.5 -0.5t-28.5 -0.5h-17h-8q-9 0 -12 -2.5t-3 -17.5q0 -30 16.5 -53t44.5 -23q11 0 16.5 8.5t7.5 22.5q0 6 5.5 9t10.5 -1q5 -3 12.5 -4t12.5 -2q7 -1 9.5 -7t-1.5 -11q-39 -47 -96 -47q-36 0 -62.5 22.5t-26.5 67.5q0 49 24 79t70 30
q25 0 42.5 -9t28.5 -35h2q3 1 7 1h9q8 0 11 -7t-2 -12zM139 734q-2 10 -8.5 14t-14.5 4t-17 -5t-13 -14q6 0 11 0.5t10 0.5h31h1z" />
    <glyph glyph-name="guillemotleft" unicode="&#xab;" horiz-adv-x="367" 
d="M344 383q-17 -25 -27.5 -53t-10.5 -55q0 -22 6 -38q2 -6 5.5 -12t8.5 -14q2 -4 1 -8.5t-5 -6.5l-92 -42q-8 -3 -14 4q-8 12 -14 30q-8 23 -8 49q0 31 12 62t29 56l96 43zM173 383q-17 -25 -27.5 -53t-10.5 -55q0 -22 6 -38q2 -6 5.5 -12t8.5 -14q7 -9 -4 -15l-92 -42
q-8 -3 -14 4q-4 5 -6.5 12.5t-6.5 17.5q-9 25 -9 49q0 31 12 62t30 56l96 43z" />
    <glyph glyph-name="logicalnot" unicode="&#xac;" horiz-adv-x="1045" 
d="M1023 251q0 -69 -18 -133t-50.5 -119.5t-78 -101t-101 -78t-119.5 -50.5t-133 -18t-133 18t-119.5 50.5t-101 78t-78 101t-50.5 119.5t-18 133t18 133t50.5 119.5t78 101t101 78t119.5 50.5t133 18q103 0 194.5 -39.5t159 -107t107 -159t39.5 -194.5zM863 354q8 4 5.5 13
t-11.5 8q-26 -2 -46.5 -4.5t-37.5 -2.5h-3q32 20 55 49t27 78v6q0 5 2 8q2 8 3 16.5t-2 18.5q-7 18 -19.5 32.5t-27.5 26.5t-31 20.5t-31 14.5h1q-17 9 -38 9q-14 0 -29 -3.5t-27 -9.5l-65 -30q-5 -2 -10 -5t-10 -7q-2 6 -2 5l-2 5q-9 24 -29 33.5t-46 9.5q-23 0 -48 -6
t-43 -15h1q-12 -5 -23 -10.5t-23 -10.5q1 29 -2.5 43l-3.5 14l-66 -22q-2 -1 -4 -4.5t-2 -5.5l-0.5 -17t-1 -43.5t-1 -58.5t-0.5 -62v-28q0 -9 -0.5 -18t-1.5 -18q-1 -8 -1.5 -15.5t-0.5 -15.5q0 -9 1 -18t6 -20q4 -10 14 -6l61 25q9 5 6 14q-3 8 -4 38.5t-1 70.5
q0 25 -0.5 50t0.5 48l1 1q8 9 14 16t14 14q26 8 47 8q19 0 34 -7.5t21 -24.5q5 -13 7.5 -35.5t2.5 -37.5q0 -21 -1.5 -42t-2.5 -42q-2 -20 -3.5 -40t-1.5 -39q0 -5 4 -8t10 -1l67 31q7 2 7 9q0 17 1 34t3 35q2 20 3 41t1 42v19q0 12 -1 20q21 24 52 45q12 3 21.5 2t22.5 -7
q12 -5 26 -12.5t27.5 -17.5t24.5 -22.5t17 -27.5q2 -5 1.5 -11.5t-2.5 -14.5v1q-1 -2 -1 -5q0 -2 -1 -5q-3 -44 -20 -68t-43 -41q-21 -1 -29.5 -4t-9.5 -5.5l-1 -2.5q-16 -8 -33.5 -11.5t-33.5 -11.5l10 -19l7 0.5t36 4.5h8q12 2 26.5 3t34.5 2q17 2 37 3t44 3zM978 266
q5 0 7.5 3.5t2.5 7.5t-2.5 7.5t-7.5 3.5h-917q-11 0 -11 -11t11 -11h917zM750 -166q8 4 6 12.5t-11 8.5q-30 0 -55.5 9.5t-48.5 25t-44 35.5t-41 41l1 -1q-2 3 -2 2t-2 2q-11 12 -24 25.5t-25 23.5q24 14 48.5 33t50.5 39q19 15 36 28.5t34 24.5l-1 -1l49 23q8 4 6.5 11
t-9.5 9q-12 2 -25.5 1.5t-24.5 -2.5q-13 -2 -25 -3t-20 3q-5 2 -7 0l-63 -28q-7 -3 -7.5 -9.5t7.5 -9.5q8 -4 17.5 -5.5t17.5 -1.5q-14 -11 -31 -23t-34 -25q-20 -14 -40.5 -30.5t-38.5 -30.5v85q0 43 -0.5 76t-1 53.5l-0.5 20.5l-70 -23q-7 -2 -7 -10l-1 -30t-1.5 -75
t-1.5 -97t-1 -96q0 -9 -0.5 -20t-1.5 -19t-1.5 -16t-0.5 -15q0 -23 7 -44q3 -10 14 -6l66 28q9 5 6 14q-3 7 -4 33.5t-1 67.5q6 -5 10.5 -11t8.5 -11l4.5 -4.5l4.5 -4.5q21 -23 42.5 -44t46 -38t52 -27t59.5 -10z" />
    <glyph glyph-name="degree" unicode="&#xb0;" horiz-adv-x="396" 
d="M373 566q0 -54 -23 -99.5t-70 -66.5q-23 -11 -46 -21.5t-46 -20.5q-11 -5 -25.5 -8t-27.5 -3q-31 0 -59 15t-42 50q-6 15 -8.5 30t-2.5 30q0 26 6.5 51t18.5 46t28 37t36 24t41 15.5t43 14.5q46 15 93 35h-1q22 11 41 -4t28 -39q8 -21 12 -43t4 -43zM256 525q0 40 -12 76
q-5 14 -17 23.5t-24 4.5h1q-9 -5 -16.5 -7t-13.5 -4q-17 -22 -27.5 -50.5t-10.5 -57.5q0 -13 2 -24.5t6 -23.5q9 -25 31 -36t46 -12q18 22 26.5 50.5t8.5 60.5z" />
    <glyph glyph-name="paragraph" unicode="&#xb6;" horiz-adv-x="355" 
d="M249 366q5 -9 -4 -14l-71 -32q-10 -4 -14 5q-2 3 -3.5 6.5t-2.5 6.5q-8 16 -15 29.5t-20 22.5q-6 4 -5.5 9.5t6.5 8.5l62 28l9 -1q37 -21 59 -69h-1zM327 261q4 -10 -4 -14l-66 -31q-4 -2 -8 -0.5t-6 6.5q-8 20 -16 35t-25 26q-6 4 -6 10t6 9l62 29l11 -1
q20 -13 32 -28.5t21 -40.5h-1zM247 165q6 -9 -5 -15l-69 -31q-12 -5 -14 8q-2 7 -2 9v3q-5 14 -10.5 24.5t-19.5 23.5q-5 5 -5 10t5 8l63 29l13 -4l2.5 -1.5t3.5 -3.5q11 -11 20 -22.5t14 -27.5q2 0 2 -3q0 -2 1 -3.5t1 -3.5zM149 254q8 -11 -3 -15l-66 -31q-4 -1 -8.5 0
t-6.5 5q-2 7 -5 13t-5 11l2 -1q-4 11 -9.5 19.5t-19.5 19.5q-5 4 -4.5 10t6.5 9l61 28l9 -1q20 -14 27.5 -25.5t15.5 -27.5q2 -3 3 -6.5t3 -7.5z" />
    <glyph glyph-name="periodcentered" unicode="&#xb7;" horiz-adv-x="379" 
d="M265 338q6 -9 -5 -13l-77 -34q-9 -4 -14 5q0 2 0.5 0.5t0.5 0.5q-8 21 -17.5 39.5t-26.5 29.5q-7 3 -6 9t7 9l67 30l9 -1q19 -11 35.5 -29.5t27.5 -45.5h-1zM351 226q2 -4 0.5 -8t-4.5 -6l-72 -33q-11 -5 -14 6q-9 22 -17.5 37.5t-28.5 28.5q-6 4 -5.5 10t6.5 9l68 31
l10 -1q20 -14 33.5 -31t24.5 -43h-1zM264 123q3 -5 1.5 -8.5t-6.5 -5.5l-74 -34q-5 -2 -9 -0.5t-4 5.5q-2 4 -2.5 8.5t-2.5 6.5v4q-5 11 -13 24t-19 25q-5 5 -4 10.5t6 7.5l66 30l12 -2q15 -14 25 -26.5t18 -33.5v1zM159 217q2 -4 0.5 -7.5t-4.5 -5.5l-72 -33q-8 -3 -14 4
q-3 7 -6 13t-5 11l2 -1q-5 11 -10.5 21.5t-21.5 22.5q-5 4 -5 10t6 9l66 31l11 -1q20 -15 29 -29.5t18 -29.5q0 -3 3 -9z" />
    <glyph glyph-name="periodcentered" unicode="&#x2219;" horiz-adv-x="379" 
d="M265 338q6 -9 -5 -13l-77 -34q-9 -4 -14 5q0 2 0.5 0.5t0.5 0.5q-8 21 -17.5 39.5t-26.5 29.5q-7 3 -6 9t7 9l67 30l9 -1q19 -11 35.5 -29.5t27.5 -45.5h-1zM351 226q2 -4 0.5 -8t-4.5 -6l-72 -33q-11 -5 -14 6q-9 22 -17.5 37.5t-28.5 28.5q-6 4 -5.5 10t6.5 9l68 31
l10 -1q20 -14 33.5 -31t24.5 -43h-1zM264 123q3 -5 1.5 -8.5t-6.5 -5.5l-74 -34q-5 -2 -9 -0.5t-4 5.5q-2 4 -2.5 8.5t-2.5 6.5v4q-5 11 -13 24t-19 25q-5 5 -4 10.5t6 7.5l66 30l12 -2q15 -14 25 -26.5t18 -33.5v1zM159 217q2 -4 0.5 -7.5t-4.5 -5.5l-72 -33q-8 -3 -14 4
q-3 7 -6 13t-5 11l2 -1q-5 11 -10.5 21.5t-21.5 22.5q-5 4 -5 10t6 9l66 31l11 -1q20 -15 29 -29.5t18 -29.5q0 -3 3 -9z" />
    <glyph glyph-name="guillemotright" unicode="&#xbb;" horiz-adv-x="390" 
d="M365 294q0 -39 -17 -77t-44 -56l-88 -40q-5 -3 -10 0t-5 10l-2 4q0 2 1.5 5t3.5 3q22 15 36 47t14 66q0 20 -6 38q-4 14 -20 30q-11 11 2 17l89 42q6 4 12 -2q18 -18 26 -40q5 -11 6.5 -23t1.5 -24zM205 278q0 -30 -14 -59.5t-39 -47.5l-109 -51q-4 -2 -7.5 0t-5.5 5
t-2 7t4 7q38 28 53.5 64t5.5 63q-5 14 -18 23.5t-38 12.5q-8 0 -10 8t6 12l97 45q29 -4 46 -18t25 -35q4 -9 5 -18t1 -18z" />
    <glyph glyph-name="Agrave" unicode="&#xc0;" horiz-adv-x="784" 
d="M666 250l-4 20l-3 -1.5t-20 -4t-54.5 -6t-106.5 -6.5t-175.5 -5.5t-261.5 -4.5q-9 0 -11 8.5t6 12.5l99 45q181 2 298.5 3.5t182 2t94 1t34.5 0.5h6q8 0 10 -8t-5 -12z" />
    <glyph glyph-name="Atilde" unicode="&#xc3;" horiz-adv-x="385" 
d="M362 716q-29 -48 -42 -94t-13 -100v-25q0 -11 2 -25q0 -8 -6 -11l-92 -42q-5 -2 -10 0.5t-5 8.5q-1 12 -1.5 24t-0.5 23q0 60 14.5 111t45.5 102l94 44zM191 716q-29 -48 -41.5 -94t-12.5 -100v-25q0 -11 2 -25q0 -8 -6 -11l-92 -42q-6 -3 -11 0t-5 9q-1 12 -1.5 24
t-0.5 23q0 60 15 111t45 102l94 44z" />
    <glyph glyph-name="Adieresis" unicode="&#xc4;" horiz-adv-x="587" 
d="M563 569q0 -2 -1 -5t-3 -4q-6 -5 -18 -9h1q-5 -3 -9.5 -6t-6.5 -10q-8 -18 -10 -45.5t-3 -53.5q0 -8 -0.5 -17t-1.5 -16v-139q0 -35 1.5 -76t6 -76.5t13.5 -60t24 -26.5q8 -2 7 -11.5t-9 -9.5l-50 1q-21 1 -43 -1.5t-42 -7.5q-14 -4 -15.5 6t0.5 19v-1q1 8 1 17t1 17
q-4 -4 -12 -8q-10 -6 -19.5 -12.5t-23.5 -11.5q1 0 -1.5 -1t-6.5 -2h1q-5 -2 -10.5 -2.5t-6.5 2.5q-2 -6 -8 -8q-36 -10 -80 -10q-52 0 -92 19.5t-67.5 53.5t-41.5 81t-14 103q0 80 22.5 141.5t63.5 103.5t97 63.5t124 21.5h15q-23 8 -36.5 29.5t-13.5 53.5q0 49 23.5 79
t69.5 30q24 0 43 -11t30 -34q2 0 1 0t1 1q4 1 14 1q11 0 11 -11l-2 -3q0 -8 -10 -10l-25 -3h-12q-11 0 -26 -0.5t-29 -0.5h-17h-8q-9 0 -11.5 -2.5t-2.5 -17.5q0 -30 17 -53t43 -23q12 0 17.5 8.5t7.5 22.5q1 6 6.5 8.5t10.5 -1.5q3 -3 11 -3.5t13 -1.5q7 -1 10 -7t-2 -11
q-32 -40 -80 -46q21 -4 43 -14l33 -18q8 5 16 9.5t15 9.5q10 6 19.5 12.5t20.5 9.5q6 2 10 -1t5 -8zM407 734q-3 18 -22 18q-8 0 -17 -5t-12 -14h20q8 0 15.5 0.5t15.5 0.5zM413 285q0 18 -0.5 35.5t-0.5 33.5q-1 13 -1 24v22q0 74 -26.5 112t-92.5 38q-42 0 -70 -25.5
t-44 -63.5t-22.5 -83.5t-6.5 -85.5q0 -42 11.5 -84t33 -75.5t52.5 -54.5t71 -21q32 0 51 20.5t29 53.5t13 73.5t3 80.5z" />
    <glyph glyph-name="Otilde" unicode="&#xd5;" horiz-adv-x="399" 
d="M374 612q0 -47 -18.5 -90t-44.5 -73l-101 -47q-8 -4 -12.5 3t0.5 14q26 31 46 73.5t20 86.5q0 22 -11 52v1q-2 4 -2.5 7t-2.5 5q-5 10 4 15l89 41q8 4 14 -5l4 -8t5 -12q6 -16 8 -32t2 -31zM204 612q0 -47 -18.5 -90t-44.5 -73l-102 -47q-8 -4 -12.5 3t0.5 14
q26 31 46 73.5t20 86.5q0 11 -2.5 24.5t-7.5 27.5v1q-2 4 -2.5 7t-2.5 5q-7 10 4 15l88 41q10 4 14 -5l4 -8t5 -12q6 -16 8.5 -32t2.5 -31z" />
    <glyph glyph-name="Odieresis" unicode="&#xd6;" horiz-adv-x="596" 
d="M573 303q0 -89 -29.5 -147.5t-77.5 -93t-110.5 -49t-128.5 -14.5q-51 0 -89 27t-63.5 69t-38.5 93t-13 99q0 76 21.5 134.5t60.5 98.5t92.5 60.5t118.5 20.5q10 0 19 -0.5t17 -1.5q-14 11 -22.5 29t-8.5 43q0 49 24 79t69 30q24 0 43 -11t30 -34q2 0 1 0t1 1q3 1 8 1h8
q10 0 10 -11l-2 -3q0 -4 -3 -6.5t-6 -3.5l-27 -3h-12q-11 0 -25.5 -0.5t-28.5 -0.5h-18h-7q-8 0 -11 -2t-3 -18q0 -30 16.5 -53t43.5 -23q11 0 16.5 8.5t7.5 22.5q1 6 6.5 8.5t10.5 -0.5q5 -2 12.5 -3.5l12.5 -2.5q6 -1 9 -7t-2 -11q-31 -38 -77 -46q73 -29 109 -99.5
t36 -179.5zM433 734q-2 10 -8.5 14t-14.5 4t-17 -5t-12 -14h21q7 0 15 0.5t16 0.5zM449 242q0 46 -8 101.5t-27.5 104.5t-51.5 82t-81 33q-42 0 -68.5 -22.5t-42 -57.5t-21 -77t-5.5 -81q0 -48 13.5 -97.5t39 -89t61.5 -65t82 -25.5q35 0 56.5 18t33 46t15.5 62.5t4 67.5z
" />
    <glyph glyph-name="Udieresis" unicode="&#xdc;" horiz-adv-x="656" 
d="M620 31q8 -2 7.5 -11t-8.5 -10q-7 -1 -13 -0.5t-12 1.5q-5 1 -9 1h-9q-10 0 -22.5 -1.5t-23.5 -3.5q-12 -2 -24.5 -3.5t-26.5 -1.5q-8 0 -10 7q-1 3 -1 11v19t0.5 23.5t1.5 24.5q0 8 0.5 7.5t0.5 4.5q-27 -18 -59 -36t-65.5 -32t-67.5 -22.5t-64 -8.5q-41 0 -75 17.5
t-58.5 47t-38 69.5t-13.5 85q0 39 10.5 80.5t22.5 77.5q9 29 16.5 58.5t7.5 55.5q0 29 -15.5 45.5t-36.5 27.5l-6 3q-6 3 -6.5 10t6.5 10l9 4q31 -2 62 -3.5t62 -1.5q23 0 46 1t46 3q12 2 12 -10l1 -3q0 -5 -3 -8q-36 -34 -59.5 -61.5t-37.5 -58t-19.5 -68.5t-5.5 -92
q0 -43 14 -81.5t38 -67.5t57 -46t71 -17q53 0 84.5 21t48 55.5t21.5 78t5 89.5v34t-1 34q-1 14 -1 30v31q0 29 -14 52t-31 43q-6 7 -11.5 13t-10.5 13q-3 3 -1 10h-5q-36 0 -62 22.5t-26 67.5q0 49 23.5 79t68.5 30q24 0 43 -11t30 -34q2 0 4 1q3 1 7 1h7q8 0 10.5 -7
t-2.5 -12l-5 -4l-30 -4h-12q-11 0 -25.5 -0.5t-28.5 -0.5h-19h-7q-8 0 -10.5 -2.5t-2.5 -17.5q0 -30 16.5 -53t43.5 -23q11 0 16 8.5t7 22.5q1 6 6.5 8.5t10.5 -0.5q5 -4 12.5 -4.5t13.5 -1.5t8.5 -7t-1.5 -11q-24 -29 -52 -39q10 0 19.5 -0.5t18.5 -1.5q7 -1 11 -1h6
q18 0 36 3q14 1 27.5 2.5t27.5 -1.5q9 -2 9 -10q0 -59 -3.5 -117.5t-7.5 -117.5q-5 -58 -8.5 -116t-3.5 -118q0 -27 6 -51t32 -29zM429 734q-1 10 -7.5 14t-14.5 4t-17 -5t-12 -14q6 0 11 0.5t11 0.5h29z" />
    <glyph glyph-name="adieresis" unicode="&#xe4;" horiz-adv-x="587" 
d="M563 569q0 -2 -1 -5t-3 -4q-6 -5 -18 -9h1q-5 -3 -9.5 -6t-6.5 -10q-8 -18 -10 -45.5t-3 -53.5q0 -8 -0.5 -17t-1.5 -16v-139q0 -35 1.5 -76t6 -76.5t13.5 -60t24 -26.5q8 -2 7 -11.5t-9 -9.5l-50 1q-21 1 -43 -1.5t-42 -7.5q-14 -4 -15.5 6t0.5 19v-1q1 8 1 17t1 17
q-4 -4 -12 -8q-10 -6 -19.5 -12.5t-23.5 -11.5q1 0 -1.5 -1t-6.5 -2h1q-5 -2 -10.5 -2.5t-6.5 2.5q-2 -6 -8 -8q-36 -10 -80 -10q-52 0 -92 19.5t-67.5 53.5t-41.5 81t-14 103q0 80 22.5 141.5t63.5 103.5t97 63.5t124 21.5h15q-23 8 -36.5 29.5t-13.5 53.5q0 49 23.5 79
t69.5 30q24 0 43 -11t30 -34q2 0 1 0t1 1q4 1 14 1q11 0 11 -11l-2 -3q0 -8 -10 -10l-25 -3h-12q-11 0 -26 -0.5t-29 -0.5h-17h-8q-9 0 -11.5 -2.5t-2.5 -17.5q0 -30 17 -53t43 -23q12 0 17.5 8.5t7.5 22.5q1 6 6.5 8.5t10.5 -1.5q3 -3 11 -3.5t13 -1.5q7 -1 10 -7t-2 -11
q-32 -40 -80 -46q21 -4 43 -14l33 -18q8 5 16 9.5t15 9.5q10 6 19.5 12.5t20.5 9.5q6 2 10 -1t5 -8zM407 734q-3 18 -22 18q-8 0 -17 -5t-12 -14h20q8 0 15.5 0.5t15.5 0.5zM413 285q0 18 -0.5 35.5t-0.5 33.5q-1 13 -1 24v22q0 74 -26.5 112t-92.5 38q-42 0 -70 -25.5
t-44 -63.5t-22.5 -83.5t-6.5 -85.5q0 -42 11.5 -84t33 -75.5t52.5 -54.5t71 -21q32 0 51 20.5t29 53.5t13 73.5t3 80.5z" />
    <glyph glyph-name="odieresis" unicode="&#xf6;" horiz-adv-x="596" 
d="M573 303q0 -89 -29.5 -147.5t-77.5 -93t-110.5 -49t-128.5 -14.5q-51 0 -89 27t-63.5 69t-38.5 93t-13 99q0 76 21.5 134.5t60.5 98.5t92.5 60.5t118.5 20.5q10 0 19 -0.5t17 -1.5q-14 11 -22.5 29t-8.5 43q0 49 24 79t69 30q24 0 43 -11t30 -34q2 0 1 0t1 1q3 1 8 1h8
q10 0 10 -11l-2 -3q0 -4 -3 -6.5t-6 -3.5l-27 -3h-12q-11 0 -25.5 -0.5t-28.5 -0.5h-18h-7q-8 0 -11 -2t-3 -18q0 -30 16.5 -53t43.5 -23q11 0 16.5 8.5t7.5 22.5q1 6 6.5 8.5t10.5 -0.5q5 -2 12.5 -3.5l12.5 -2.5q6 -1 9 -7t-2 -11q-31 -38 -77 -46q73 -29 109 -99.5
t36 -179.5zM433 734q-2 10 -8.5 14t-14.5 4t-17 -5t-12 -14h21q7 0 15 0.5t16 0.5zM449 242q0 46 -8 101.5t-27.5 104.5t-51.5 82t-81 33q-42 0 -68.5 -22.5t-42 -57.5t-21 -77t-5.5 -81q0 -48 13.5 -97.5t39 -89t61.5 -65t82 -25.5q35 0 56.5 18t33 46t15.5 62.5t4 67.5z
" />
    <glyph glyph-name="udieresis" unicode="&#xfc;" horiz-adv-x="656" 
d="M620 6q8 -2 7.5 -11t-8.5 -10q-7 -1 -13 -0.5t-12 1.5q-5 1 -9 1h-9q-10 0 -22.5 -1.5t-23.5 -3.5q-12 -2 -24.5 -3.5t-26.5 -1.5q-8 0 -10 7q-1 3 -1 11v19t0.5 23.5t1.5 24.5q0 8 0.5 7.5t0.5 4.5q-27 -18 -59 -36t-65.5 -32t-67.5 -22.5t-64 -8.5q-41 0 -75 17.5
t-58.5 47t-38 69.5t-13.5 85q0 39 10.5 80.5t22.5 77.5q9 29 16.5 58.5t7.5 55.5q0 29 -15.5 45.5t-36.5 27.5l-6 3q-6 3 -6.5 10t6.5 10l9 4q31 -2 62 -3.5t62 -1.5q23 0 46 1t46 3q12 2 12 -10l1 -3q0 -5 -3 -8q-36 -34 -59.5 -61.5t-37.5 -58t-19.5 -68.5t-5.5 -92
q0 -43 14 -81.5t38 -67.5t57 -46t71 -17q53 0 84.5 21t48 55.5t21.5 78t5 89.5v34t-1 34q-1 14 -1 30v31q0 29 -14 52t-31 43q-6 7 -11.5 13t-10.5 13q-3 3 -1 10h-5q-36 0 -62 22.5t-26 67.5q0 49 23.5 79t68.5 30q24 0 43 -11t30 -34q2 0 4 1q3 1 7 1h7q8 0 10.5 -7
t-2.5 -12l-5 -4l-30 -4h-12q-11 0 -25.5 -0.5t-28.5 -0.5h-19h-7q-8 0 -10.5 -2.5t-2.5 -17.5q0 -30 16.5 -53t43.5 -23q11 0 16 8.5t7 22.5q1 6 6.5 8.5t10.5 -0.5q5 -4 12.5 -4.5t13.5 -1.5t8.5 -7t-1.5 -11q-24 -29 -52 -39q10 0 19.5 -0.5t18.5 -1.5q7 -1 11 -1h6
q18 0 36 3q14 1 27.5 2.5t27.5 -1.5q9 -2 9 -10q0 -59 -3.5 -117.5t-7.5 -117.5q-5 -58 -8.5 -116t-3.5 -118q0 -27 6 -51t32 -29zM429 709q-1 10 -7.5 14t-14.5 4t-17 -5t-12 -14q6 0 11 0.5t11 0.5h29z" />
    <glyph glyph-name="Euro" unicode="&#x20ac;" horiz-adv-x="603" 
d="M509 432q-2 -2 -6 -2t-6 2q-20 16 -36.5 23t-35.5 12t-43 8.5t-47 3.5q-13 0 -25 -1t-24 -4q-23 -33 -35 -89q89 0 137 -0.5t69.5 -1.5t24.5 -1.5l3 -0.5l16 -14q-17 -11 -37 -20.5t-36 -20.5l-1.5 -1t-18 -2.5t-56 -2.5t-115.5 -1q-4 -34 -3 -67l292 -3q8 3 12 -5
t-3 -13l-66 -47l-11 19l-8.5 -3t-32.5 -6.5t-66 -6t-109 -2.5v-3q8 -31 25.5 -54t40 -38.5t48 -23t50.5 -7.5q36 0 66 16q5 3 9 4.5t9 4.5l14 6q7 3 11.5 -3.5t-0.5 -12.5l-10 -14l-41 -24l1 1q-8 -5 -16.5 -10t-16.5 -10q-4 -2 -6 -2.5t-10 -6.5q-33 -22 -78 -22
q-29 0 -58 9t-54.5 27.5t-44.5 45.5t-28 63q-3 12 -5.5 25.5t-3.5 29.5q-26 0 -54 0.5t-54 0.5q-8 0 -10 7.5t5 12.5l69 46l45 -1q2 16 4 34t5 33h-108q-8 0 -10 7.5t4 11.5l69 47h62q12 32 27.5 58t33.5 38q17 11 35 22.5t35 22.5q19 12 44.5 17.5t52.5 5.5q28 0 53.5 -3.5
t44.5 -8.5h-1q22 -5 36 -14t34 -26q3 -3 4 -3.5t2 -1.5q5 -4 5 -9t-5 -9z" />
    </font>
</defs>
</svg>
