<?xml version="1.0" encoding="UTF-8" standalone="no"?>
<svg
   id="svg"
   width="400"
   height="397.2915181753386"
   viewBox="0, 0, 400,397.2915181753386"
   version="1.1"
   xmlns="http://www.w3.org/2000/svg"
   xmlns:svg="http://www.w3.org/2000/svg"
   xmlns:rdf="http://www.w3.org/1999/02/22-rdf-syntax-ns#"
   xmlns:cc="http://creativecommons.org/ns#"
   xmlns:dc="http://purl.org/dc/elements/1.1/">
  <defs
     id="defs7" />
  <g
     id="svgg"
     style="fill:#ffff00;stroke:#000000">
    <path
       id="path0"
       d="M192.587 0.155 C 93.303 3.750,11.626 79.555,1.224 177.762 C -10.646 289.832,73.381 389.114,186.600 396.791 C 295.974 404.208,391.156 322.224,399.349 213.542 C 408.255 95.392,311.793 -4.161,192.587 0.155 M210.691 18.810 C 230.745 20.050,249.435 24.140,267.591 31.265 C 272.172 33.062,278.581 35.893,278.471 36.071 C 278.433 36.134,277.167 37.111,275.658 38.243 C 229.583 72.813,184.039 72.987,129.722 38.803 C 126.513 36.783,123.877 35.043,123.880 34.946 C 123.885 34.712,131.891 31.412,136.707 29.658 C 160.018 21.167,186.351 17.306,210.691 18.810 M115.852 40.307 C 118.792 43.063,127.964 52.765,132.663 58.090 C 169.356 99.664,188.570 141.151,191.017 184.086 C 191.096 185.486,191.162 187.115,191.162 187.705 L 191.162 188.778 190.057 188.679 C 144.581 184.605,94.230 158.468,43.841 112.777 C 42.232 111.318,41.060 110.357,40.944 110.402 C 40.720 110.488,41.107 109.785,43.101 106.486 C 59.637 79.122,83.507 56.332,111.755 40.934 C 115.208 39.053,114.611 39.144,115.852 40.307 M289.075 41.363 C 318.867 57.975,343.994 82.819,359.705 111.200 L 360.224 112.137 355.201 117.120 C 308.117 163.835,259.990 188.070,211.654 189.403 L 208.268 189.497 208.269 185.661 C 208.277 140.486,229.353 96.963,271.773 54.522 C 276.507 49.786,286.640 40.217,286.937 40.202 C 286.965 40.201,287.927 40.723,289.075 41.363 M38.356 120.527 C 69.574 163.482,72.205 208.332,46.521 259.729 C 43.291 266.193,37.681 276.386,36.439 278.047 C 35.905 278.762,30.058 265.323,26.950 256.237 C 12.485 213.943,14.526 167.404,32.639 126.515 C 34.817 121.598,36.538 118.159,36.724 118.348 C 36.824 118.449,37.558 119.430,38.356 120.527 M365.519 122.416 C 380.744 154.646,385.962 190.613,380.537 225.944 C 377.929 242.934,372.978 258.970,365.286 275.335 L 364.752 276.471 364.331 275.976 C 364.099 275.704,362.803 274.006,361.450 272.202 C 326.668 225.841,326.879 179.548,362.120 124.947 C 362.981 123.614,363.917 122.154,364.201 121.703 C 364.833 120.700,364.666 120.609,365.519 122.416 M214.398 208.843 C 257.574 210.788,299.281 229.881,341.787 267.161 C 348.588 273.126,360.371 284.271,360.371 284.738 C 360.371 284.831,359.593 286.250,358.642 287.891 C 343.664 313.757,322.163 335.779,296.436 351.606 C 293.707 353.285,287.963 356.582,287.900 356.505 C 246.868 306.622,223.628 266.123,213.555 226.942 C 212.105 221.306,209.980 210.693,209.979 209.088 C 209.979 208.619,209.729 208.633,214.398 208.843 M190.377 210.086 C 190.341 210.301,190.210 211.376,190.087 212.473 C 185.064 257.232,160.289 305.227,116.704 354.633 C 115.303 356.221,114.108 357.520,114.047 357.520 C 113.875 357.520,109.806 355.283,107.101 353.701 C 80.076 337.900,57.748 315.661,41.884 288.746 C 40.243 285.963,40.017 285.466,40.663 286.064 L 40.984 286.360 42.338 285.218 C 96.275 239.751,142.101 215.996,187.455 209.994 C 190.411 209.603,190.457 209.604,190.377 210.086 M205.631 335.847 C 228.278 337.787,250.144 345.248,275.517 359.691 C 277.026 360.550,278.261 361.297,278.261 361.350 C 278.261 361.567,269.974 365.114,265.509 366.808 C 219.871 384.129,167.775 382.484,123.751 362.334 L 122.698 361.852 123.680 361.134 C 144.867 345.632,167.798 336.993,191.304 335.656 C 193.161 335.550,203.828 335.693,205.631 335.847 "
       fill-rule="evenodd" />
  </g>
  <metadata
     id="metadata685">
    <rdf:RDF>
      <cc:Work
         rdf:about="">
        <dc:creator>
          <cc:Agent>
            <dc:title>vlk2020</dc:title>
          </cc:Agent>
        </dc:creator>
      </cc:Work>
    </rdf:RDF>
  </metadata>
</svg>
