<?xml version="1.0" encoding="UTF-8" standalone="no"?>
<!-- Generated by Microsoft Visio 11.0, SVG Export, v1.0 Bowen_Cross.svg Page-1 -->

<svg
   width="416.79"
   height="417.33"
   viewBox="0 0 416.79 417.33"
   xml:space="preserve"
   color-interpolation-filters="sRGB"
   class="st2"
   version="1.1"
   id="svg33"
   xmlns="http://www.w3.org/2000/svg"
   xmlns:svg="http://www.w3.org/2000/svg"
   xmlns:rdf="http://www.w3.org/1999/02/22-rdf-syntax-ns#"
   xmlns:cc="http://creativecommons.org/ns#"
   xmlns:dc="http://purl.org/dc/elements/1.1/"
   ><defs
   id="defs37" />
	<title
   id="title2">Bowen Cross</title>
	<g
   id="g31"
   style="fill:#ffff00;stroke:#000000"
   transform="translate(-1.507,-0.8774)">
		<title
   id="title6">Page-1</title>

		<g
   id="group1-1"
   transform="translate(3,-3)">
			<title
   id="title8">Sheet.1</title>
			<g
   id="shape3-2"
   transform="rotate(90,246.09,379.95)">
				<title
   id="title10">Sheet.3</title>
				<path
   d="M 157.27,291.74 78.57,212.87 0,291.46 128.26,419.72 150.7,397.27 44.88,291.45 l 33.71,-33.71 33.89,33.9 -33.5,33.35 22.43,22.78 z"
   class="st1"
   id="path12" />
			</g>
			<g
   id="shape12-4"
   transform="rotate(180,142.87,316.29)">
				<title
   id="title15">Sheet.12</title>
				<path
   d="M 157.27,291.74 78.6,212.87 H 78.59 78.57 L 0,291.46 128.26,419.72 150.7,397.27 44.88,291.45 l 33.71,-33.71 33.89,33.9 -33.5,33.35 22.43,22.78 z"
   class="st1"
   id="path17" />
			</g>
			<g
   id="shape13-6"
   transform="rotate(-90,39.497,252.36)">
				<title
   id="title20">Sheet.13</title>
				<path
   d="M 157.27,291.74 78.6,212.87 H 78.59 78.57 L 0.38,291.06 v 0 L 0,291.46 128.26,419.72 150.7,397.27 44.88,291.45 l 33.71,-33.71 33.89,33.9 -33.5,33.35 22.43,22.78 z"
   class="st1"
   id="path22" />
			</g>
			<g
   id="shape2-8"
   transform="translate(127.42,-206.87)">
				<title
   id="title25">Sheet.2</title>
				<path
   d="M 157.27,291.74 78.57,212.87 0,291.46 128.26,419.72 150.7,397.27 44.88,291.45 l 33.71,-33.71 33.89,33.9 -33.5,33.35 22.43,22.78 z"
   class="st1"
   id="path27" />
			</g>
		</g>
	</g>
<metadata
   id="metadata143"><rdf:RDF><cc:Work
       rdf:about=""><dc:title>Bowen Cross</dc:title><dc:creator><cc:Agent><dc:title>vlk2020</dc:title></cc:Agent></dc:creator></cc:Work></rdf:RDF></metadata></svg>
