<?xml version="1.0" encoding="UTF-8" standalone="no"?>
<svg xmlns:dc="http://purl.org/dc/elements/1.1/"
                xmlns:cc="http://creativecommons.org/ns#"
                xmlns:rdf="http://www.w3.org/1999/02/22-rdf-syntax-ns#"
                xmlns:svg="http://www.w3.org/2000/svg"
                xmlns="http://www.w3.org/2000/svg"
                width="200"
                height="200"
                version="1.1" >
  <metadata>
    <rdf:RDF>
      <cc:Work rdf:about="">
        <dc:format>image/svg+xml</dc:format>
        <dc:type rdf:resource="http://purl.org/dc/dcmitype/StillImage"/>
        <cc:license rdf:resource=""/>
        <dc:title/>
        <dc:creator>
          <cc:Agent>
            <dc:title>(Drawshield internal)</dc:title>
          </cc:Agent>
        </dc:creator>
      </cc:Work>
    </rdf:RDF>
  </metadata>
<g style="fill:#ffff00;fill-opacity:1;fill-rule:evenodd;stroke:#000000;stroke-width:3;stroke-linecap:butt;stroke-linejoin:miter;stroke-miterlimit:4;stroke-opacity:1;stroke-dasharray:none" id="body"><path  d="m100,0c 27.1,-0.117 21.5,30.4 10,30 l 0,60 l60,0   c-0.4,-11.5 30.12,-17.1 30,10    c0.117,27.1 -30.4,21.5 -30,10   l-60,0    l-0,60   c11.5,-0.4 17.1,30.12 -10,30    c-27.1,0.117 -21.5,-30.4 -10,-30   l-0,-60    l-60,-0   c0.4,11.5 -30.12,17.1 -30,-10    c-0.117,-27.1 30.4,-21.5 30,-10   l60,-0   l0,-60 c-11.5,0.4 -17.1,-30.12 10,-30      z" /></g>
</svg>
