<?xml version="1.0" encoding="utf-8"?>
<svg xmlns:dc="http://purl.org/dc/elements/1.1/" xmlns:xl="http://www.w3.org/1999/xlink"
     xmlns="http://www.w3.org/2000/svg"
     xmlns:xlink="http://www.w3.org/1999/xlink"
     version="1.1"
     viewBox="33.75 60.75 297 297"
     width="297"
     height="297"
     preserveAspectRatio="xMidYMid meet"
     zoomAndPan="magnify"
     contentScriptType="application/ecmascript"
     contentStyleType="text/css">
   <defs/>
   <metadata xmlns="" xmlns:svg="http://www.w3.org/2000/svg"
             xmlns:rdf="http://www.w3.org/1999/02/22-rdf-syntax-ns#"
             xmlns:cc="http://creativecommons.org/ns#">
      <rdf:RDF>
         <cc:Work rdf:about="">
            <dc:creator>
               <cc:Agent>
                  <dc:title>http://heraldicart.org Cross Flanchy.svg</dc:title>
               </cc:Agent>
            </dc:creator>
         </cc:Work>
      </rdf:RDF>
   </metadata>
   <g stroke="#505050" fill="#ffff00" stroke-opacity="1" stroke-dasharray="none"
      fill-opacity="1">
      <title>Cross Flanchy</title>
      <g>
         <title>Art</title>
         <g>
            <g>
               <title>shape2-1</title>
               <g>
                  <path d="M 151.42624 240.07376 L 151.42624 353.25 C 151.42725 346.1077 154.67575 339.2583 160.45709 334.2086 C 166.23843 329.15887 174.07904 326.32248 182.25406 326.3234 C 199.2745 326.3254 213.07166 338.37973 213.07376 353.25 L 213.07376 240.07376 L 326.25 240.07376 C 311.37973 240.07166 299.3254 226.2745 299.3234 209.25406 C 299.32248 201.07904 302.15887 193.23843 307.2086 187.4571 C 312.2583 181.67575 319.1077 178.42725 326.25 178.42624 L 213.07376 178.42624 L 213.07376 65.25 C 213.07166 80.12027 199.2745 92.1746 182.25406 92.1766 C 174.07904 92.17752 166.23843 89.34113 160.45709 84.29141 C 154.67575 79.24169 151.42725 72.39229 151.42624 65.25 L 151.42624 178.42624 L 38.25 178.42624 C 45.392287 178.42725 52.24169 181.67575 57.29141 187.4571 C 62.34113 193.23843 65.17752 201.07904 65.1766 209.25406 C 65.1746 226.2745 53.120274 240.07166 38.25 240.07376 Z"/>
                  <path d="M 151.42624 240.07376 L 151.42624 353.25 C 151.42725 346.1077 154.67575 339.2583 160.45709 334.2086 C 166.23843 329.15887 174.07904 326.32248 182.25406 326.3234 C 199.2745 326.3254 213.07166 338.37973 213.07376 353.25 L 213.07376 240.07376 L 326.25 240.07376 C 311.37973 240.07166 299.3254 226.2745 299.3234 209.25406 C 299.32248 201.07904 302.15887 193.23843 307.2086 187.4571 C 312.2583 181.67575 319.1077 178.42725 326.25 178.42624 L 213.07376 178.42624 L 213.07376 65.25 C 213.07166 80.12027 199.2745 92.1746 182.25406 92.1766 C 174.07904 92.17752 166.23843 89.34113 160.45709 84.29141 C 154.67575 79.24169 151.42725 72.39229 151.42624 65.25 L 151.42624 178.42624 L 38.25 178.42624 C 45.392287 178.42725 52.24169 181.67575 57.29141 187.4571 C 62.34113 193.23843 65.17752 201.07904 65.1766 209.25406 C 65.1746 226.2745 53.120274 240.07166 38.25 240.07376 Z"
                        stroke="black"
                        stroke-linecap="butt"
                        stroke-linejoin="round"
                        stroke-width="1.5"/>
               </g>
            </g>
         </g>
      </g>
   </g>
</svg>