<?xml version="1.0" encoding="UTF-8" standalone="no"?>
<!DOCTYPE svg PUBLIC "-//W3C//DTD SVG 1.1//EN" "http://www.w3.org/Graphics/SVG/1.1/DTD/svg11.dtd">
<svg xmlns:dc="http://purl.org/dc/elements/1.1/" xmlns:xl="http://www.w3.org/1999/xlink" version="1.1" xmlns="http://www.w3.org/2000/svg" viewBox="33.75 60.74866 297 353.25134" width="297" height="353.25134">

  <metadata> Produced by OmniGraffle 7.8 
    <dc:date>2018-07-22 18:17:42 +0000</dc:date><dc:title>Traceable heraldic art http://heraldicart.org/credits.html</dc:title>
  </metadata>
  <g id="Cross_Clechy,_Latin" fill-opacity="1" stroke-dasharray="none" stroke="none" stroke-opacity="1" fill="#ffff00">
    <title>Cross Clechy, Latin</title>
    <g id="Cross_Clechy,_Latin: Layer 2" >
      <title>Layer 2</title>
      <g id="Group_3">
        <g id="Group_4">
          <title>shape4-1</title>
          <g id="Graphic_5">
            <path d="M 169.71557 217.15294 L 169.71557 317.4284 C 165.50063 336.5346 156.8665 353.5162 145.20399 365.63774 C 161.3973 372.97085 174.98114 389.68793 182.25 411.22874 C 189.51886 389.68793 203.1027 372.97085 219.296 365.63774 C 207.6367 353.51428 199.0058 336.5329 194.79328 317.4284 L 194.79328 217.15294 L 232.44964 217.15294 C 251.55417 221.36547 268.53553 229.99637 280.659 241.65567 C 287.9921 225.46236 304.7092 211.87852 326.25 204.60966 C 304.7092 197.3408 287.9921 183.75696 280.659 167.56365 C 268.53746 179.22616 251.55587 187.8603 232.44964 192.07523 L 194.79328 192.07523 L 194.79328 157.32027 C 199.00707 138.21889 207.63785 121.24088 219.296 109.11977 C 203.10144 101.78455 189.51737 85.06394 182.25 63.51992 C 174.98263 85.06394 161.39856 101.78455 145.20399 109.11977 C 156.86536 121.23895 165.49936 138.21718 169.71557 157.32027 L 169.71557 192.07523 L 132.05036 192.07523 C 112.94727 187.85902 95.96904 179.22502 83.84985 167.56365 C 76.51463 183.75822 59.79403 197.3423 38.25 204.60966 C 59.79403 211.87704 76.51463 225.4611 83.84985 241.65567 C 95.97096 229.9975 112.94897 221.36674 132.05036 217.15294 Z" fill="#ff0000"/>
            <path d="M 169.71557 217.15294 L 169.71557 317.4284 C 165.50063 336.5346 156.8665 353.5162 145.20399 365.63774 C 161.3973 372.97085 174.98114 389.68793 182.25 411.22874 C 189.51886 389.68793 203.1027 372.97085 219.296 365.63774 C 207.6367 353.51428 199.0058 336.5329 194.79328 317.4284 L 194.79328 217.15294 L 232.44964 217.15294 C 251.55417 221.36547 268.53553 229.99637 280.659 241.65567 C 287.9921 225.46236 304.7092 211.87852 326.25 204.60966 C 304.7092 197.3408 287.9921 183.75696 280.659 167.56365 C 268.53746 179.22616 251.55587 187.8603 232.44964 192.07523 L 194.79328 192.07523 L 194.79328 157.32027 C 199.00707 138.21889 207.63785 121.24088 219.296 109.11977 C 203.10144 101.78455 189.51737 85.06394 182.25 63.51992 C 174.98263 85.06394 161.39856 101.78455 145.20399 109.11977 C 156.86536 121.23895 165.49936 138.21718 169.71557 157.32027 L 169.71557 192.07523 L 132.05036 192.07523 C 112.94727 187.85902 95.96904 179.22502 83.84985 167.56365 C 76.51463 183.75822 59.79403 197.3423 38.25 204.60966 C 59.79403 211.87704 76.51463 225.4611 83.84985 241.65567 C 95.97096 229.9975 112.94897 221.36674 132.05036 217.15294 Z" stroke="#cccccc" stroke-linecap="butt" stroke-linejoin="round" stroke-width="2"/>
          </g>
        </g>
      </g>
    </g>
  </g>
</svg>
