<?xml version="1.0" encoding="UTF-8" standalone="no"?>
<svg
   width="200"
   height="200"
   version="1.1"
   id="svg5917"
   xmlns="http://www.w3.org/2000/svg"
   xmlns:svg="http://www.w3.org/2000/svg"
   xmlns:rdf="http://www.w3.org/1999/02/22-rdf-syntax-ns#"
   xmlns:cc="http://creativecommons.org/ns#"
   xmlns:dc="http://purl.org/dc/elements/1.1/">
  <defs
     id="defs5921" />
  <path
     id="path5915"
     style="fill:#ff0000;stroke:#808080"
     d="M 100 0 L 60 40 L 79 40 L 79 79 L 40 79 L 40 60 L 0 100 L 40 140 L 40 121 L 79 121 L 79 160 L 60 160 L 100 200 L 140 160 L 121 160 L 121 121 L 160 121 L 160 140 L 200 100 L 160 60 L 160 79 L 121 79 L 121 40 L 140 40 L 100 0 z M 100 6.6191406 L 128.55273 35.171875 L 114.99023 35.171875 L 114.99023 85.009766 L 164.82812 85.009766 L 164.82812 71.447266 L 193.38086 100 L 164.82812 128.55273 L 164.82812 114.99023 L 114.99023 114.99023 L 114.99023 164.82812 L 128.55273 164.82812 L 100 193.38086 L 71.447266 164.82812 L 85.009766 164.82812 L 85.009766 114.99023 L 35.171875 114.99023 L 35.171875 128.55273 L 6.6191406 100 L 35.171875 71.447266 L 35.171875 85.009766 L 85.009766 85.009766 L 85.009766 35.171875 L 71.447266 35.171875 L 100 6.6191406 z " />
  <metadata
     id="metadata6458">
    <rdf:RDF>
      <cc:Work
         rdf:about="">
        <dc:creator>
          <cc:Agent>
            <dc:title>https://commons.wikimedia.org/wiki/User:Euku-</dc:title>
          </cc:Agent>
        </dc:creator>
      </cc:Work>
    </rdf:RDF>
  </metadata>
</svg>
