<?xml version="1.0" encoding="UTF-8" standalone="no"?>
<!-- Created with Inkscape (http://www.inkscape.org/) -->

<svg
   version="1.0"
   width="473.49"
   height="473.49"
   id="svg2"
   xmlns="http://www.w3.org/2000/svg"
   xmlns:svg="http://www.w3.org/2000/svg"
   xmlns:rdf="http://www.w3.org/1999/02/22-rdf-syntax-ns#"
   xmlns:cc="http://creativecommons.org/ns#"
   xmlns:dc="http://purl.org/dc/elements/1.1/">

  <path
     id="path2259"
     style="fill:#ff0000;fill-rule:evenodd;stroke:#808080;stroke-width:2.81309;stroke-linecap:round;stroke-linejoin:round"
     d="m 94.385,335.68 a 15.425,15.181 0 1 1 -30.85,0 15.425,15.181 0 1 1 30.85,0 z M 32.217,236.37 a 15.425,15.181 0 1 1 -30.8508,0 15.425,15.181 0 1 1 30.8508,0 z m 60.519,-99.54 a 15.426,15.181 0 1 1 -30.851,0 15.426,15.181 0 1 1 30.851,0 z M 150.67,77.846 a 15.425,15.181 0 1 1 -30.85,0 15.425,15.181 0 1 1 30.85,0 z M 250.99,16.629 a 15.425,15.181 0 1 1 -30.85,0 15.425,15.181 0 1 1 30.85,0 z m 100.8,60.222 a 15.425,15.181 0 1 1 -30.85,0 15.425,15.181 0 1 1 30.85,0 z m 57.92,59.979 a 15.425,15.181 0 1 1 -30.85,0 15.425,15.181 0 1 1 30.85,0 z m 62.41,100.05 a 15.425,15.181 0 1 1 -30.85,0 15.425,15.181 0 1 1 30.85,0 z m -62.41,100.29 a 15.425,15.181 0 1 1 -30.85,0 15.425,15.181 0 1 1 30.85,0 z m -57.92,58.48 a 15.425,15.181 0 1 1 -30.85,0 15.425,15.181 0 1 1 30.85,0 z m -199.24,-0.49 a 15.425,15.181 0 1 1 -30.85,0 15.425,15.181 0 1 1 30.85,0 z m 100.21,61.72 a 15.425,15.181 0 1 1 -30.85,0 15.425,15.181 0 1 1 30.85,0 z M 202.6,200.54 c 0,0 -25.32,0 -53.22,-11.45 -27.91,-11.45 -58.407,-34.34 -58.407,-34.34 l -13.662,2.98 c 0,0 -2.945,21.78 -13.189,39.32 -10.243,17.55 -27.785,30.86 -27.785,30.86 l 0.467,18.92 c 0,0 14.13,8.71 24.026,25.39 9.89,16.67 15.539,41.31 15.539,41.31 l 15.545,4.97 c 0,0 18.726,-17.92 46.156,-29.86 27.44,-11.94 63.58,-17.92 63.58,-17.92 0,0 -4.82,36.46 -16.48,64.21 -11.66,27.75 -30.15,46.78 -30.15,46.78 l 5.66,16.43 c 0,0 20.84,3.11 37.21,12.44 16.36,9.34 28.26,24.89 28.26,24.89 l 21.19,0.5 c 0,0 9.22,-14.47 24.96,-23.89 18.12,-10.85 41.93,-15.43 41.93,-15.43 l 5.18,-14.43 c 0,0 -19.08,-19.04 -31.09,-46.79 -12.01,-27.75 -16.96,-64.21 -16.96,-64.21 0,0 26.5,1.37 54.17,12.94 27.67,11.58 56.52,33.35 56.52,33.35 l 15.07,-3.48 c 0,0 0.7,-15.68 10.36,-32.86 9.65,-17.17 28.26,-35.83 28.26,-35.83 l 0.94,-19.42 c 0,0 -14.48,-9.83 -24.49,-26.88 C 402.18,182 396.65,157.73 396.65,157.73 l -15.55,-3.98 c 0,0 -22.48,20.41 -49.92,32.35 -27.44,11.95 -59.82,15.44 -59.82,15.44 0,0 4.48,-34.22 16.49,-62.22 12,-28 31.56,-49.774 31.56,-49.774 L 314.23,76.11 c 0,0 -20.26,-3.239 -37.21,-12.942 C 260.06,53.458 246.4,37.284 246.4,37.284 l -19.78,-0.995 c 0,0 -9.54,14.805 -26.37,24.889 -16.85,10.077 -40.99,15.426 -40.99,15.426 l -5.64,14.438 c 0,0 18.37,19.908 30.61,47.278 12.24,27.38 18.37,62.22 18.37,62.22 z m 24.49,24.89 c 0,0 -2.59,-42.06 -13.19,-75.16 -10.6,-33.1 -29.2,-57.238 -29.2,-57.238 0,0 10.36,-2.865 23.55,-10.952 13.19,-8.087 29.2,-21.403 29.2,-21.403 0,0 10.13,11.199 22.61,19.413 12.48,8.214 27.31,13.436 27.31,13.436 0,0 -17.66,22.654 -27.78,55.744 -10.13,33.1 -12.72,76.65 -12.72,76.65 0,0 36.38,-0.24 69.71,-10.45 33.32,-10.2 63.58,-30.36 63.58,-30.36 0,0 5.89,15.43 13.66,28.37 7.77,12.94 17.43,23.4 17.43,23.4 0,0 -9.66,9.58 -16.96,22.39 -7.3,12.82 -12.24,28.87 -12.24,28.87 0,0 -16.13,-15.18 -49.93,-25.38 -33.79,-10.2 -85.25,-15.43 -85.25,-15.43 0,0 3.53,47.16 13.66,80.13 10.12,32.98 26.84,51.77 26.84,51.77 0,0 -13.85,7.28 -26.45,15.49 -6.3,4.11 -11.95,8.71 -16.03,12.29 -4.08,3.57 -6.58,6.12 -6.58,6.12 0,0 -11.57,-10.13 -24.88,-18.47 -13.31,-8.34 -29.67,-15.93 -29.67,-15.93 0,0 8,-9.63 24.02,-41.31 18.07,-35.76 18.37,-90.59 18.37,-90.59 0,0 -41.45,2.86 -74.42,12.94 -32.97,10.08 -57.458,27.38 -57.458,27.38 0,0 -5.656,-15.18 -14.13,-27.88 -8.481,-12.69 -19.786,-22.9 -19.786,-22.9 l 18.37,-22.89 16.013,-28.87 c 0,0 19.191,17.67 52.281,27.88 33.09,10.2 80.07,12.94 80.07,12.94 z" />
  <metadata
     id="metadata74">
    <rdf:RDF>
      <cc:Work
         rdf:about="">
        <dc:creator>
          <cc:Agent>
            <dc:title>https://commons.wikimedia.org/wiki/File:Creu_occitana_black.svg</dc:title>
          </cc:Agent>
        </dc:creator>
      </cc:Work>
    </rdf:RDF>
  </metadata>
</svg>
