<?xml version="1.0" encoding="UTF-8"?>
<!DOCTYPE svg PUBLIC "-//W3C//DTD SVG 1.1//EN" "http://www.w3.org/Graphics/SVG/1.1/DTD/svg11.dtd">
<svg version="1.1" xmlns="http://www.w3.org/2000/svg" xmlns:xlink="http://www.w3.org/1999/xlink" x="0" y="0" width="400" height="400" viewBox="0, 0, 400, 400">
  <g id="Layer_1">
    <g>
      <path d="M201.521,1.5 L211.086,11.066 L256.629,56.609 L260.591,60.571 L260.591,142.38 L342.401,142.38 L346.363,146.342 L391.455,191.434 L401.021,201 L342.401,259.62 L260.591,259.62 L260.591,341.429 L201.521,400.5 L191.955,390.934 L146.412,345.391 L142.45,341.429 L142.45,259.62 L60.64,259.62 L56.678,255.658 L11.586,210.566 L0.5,200.5 L11.586,191.434 L56.678,146.342 L60.64,142.38 L142.45,142.38 L142.45,60.571 L146.412,56.609 L191.955,11.066 L201.521,1.5 z M201.521,39.762 L169.505,71.778 L169.505,169.435 L71.847,169.435 L40.283,201 L71.847,232.565 L169.505,232.565 L169.505,330.222 L201.521,362.238 L233.536,330.222 L233.536,232.565 L331.194,232.565 L362.758,201 L331.194,169.435 L233.536,169.435 L233.536,71.778 L201.521,39.762 z" fill="#FF0000"/>
      <path d="M201.521,1.5 L211.086,11.066 L256.629,56.609 L260.591,60.571 L260.591,142.38 L342.401,142.38 L346.363,146.342 L391.455,191.434 L401.021,201 L342.401,259.62 L260.591,259.62 L260.591,341.429 L201.521,400.5 L191.955,390.934 L146.412,345.391 L142.45,341.429 L142.45,259.62 L60.64,259.62 L56.678,255.658 L11.586,210.566 L0.5,200.5 L11.586,191.434 L56.678,146.342 L60.64,142.38 L142.45,142.38 L142.45,60.571 L146.412,56.609 L191.955,11.066 L201.521,1.5 z M201.521,39.762 L169.505,71.778 L169.505,169.435 L71.847,169.435 L40.283,201 L71.847,232.565 L169.505,232.565 L169.505,330.222 L201.521,362.238 L233.536,330.222 L233.536,232.565 L331.194,232.565 L362.758,201 L331.194,169.435 L233.536,169.435 L233.536,71.778 L201.521,39.762 z" fill-opacity="0" stroke="#6E6E6E" stroke-width="3"/>
    </g>
  </g>
</svg>
