<?xml version="1.0" encoding="UTF-8" standalone="no"?>
<svg
   version="1.0"
   width="1000.000000pt"
   height="1000.000000pt"
   viewBox="0 0 1000.000000 1000.000000"
   preserveAspectRatio="xMidYMid meet"
   id="svg6"
   sodipodi:docname="Cross_Pattée.svg"
   inkscape:version="1.1 (c68e22c387, 2021-05-23)"
   xmlns:inkscape="http://www.inkscape.org/namespaces/inkscape"
   xmlns:sodipodi="http://sodipodi.sourceforge.net/DTD/sodipodi-0.dtd"
   xmlns="http://www.w3.org/2000/svg"
   xmlns:svg="http://www.w3.org/2000/svg">
  <defs
     id="defs10" />
  <sodipodi:namedview
     id="namedview8"
     pagecolor="#ffffff"
     bordercolor="#666666"
     borderopacity="1.0"
     inkscape:pageshadow="2"
     inkscape:pageopacity="0.0"
     inkscape:pagecheckerboard="0"
     inkscape:document-units="pt"
     showgrid="false"
     inkscape:zoom="0.66"
     inkscape:cx="675.75758"
     inkscape:cy="819.69697"
     inkscape:window-width="1920"
     inkscape:window-height="974"
     inkscape:window-x="-11"
     inkscape:window-y="-11"
     inkscape:window-maximized="1"
     inkscape:current-layer="svg6" />
  <path
     id="path1171"
     style="fill:#ff0000;fill-opacity:1;fill-rule:evenodd;stroke:#000000;stroke-width:10.1911;stroke-miterlimit:4;stroke-dasharray:none;stroke-opacity:1"
     d="m 309.73326,105.09555 7.41038,5.62049 c 58.80248,44.6021 106.38188,130.61112 121.7265,220.04526 0.94885,5.53021 1.59259,12.54714 2.05113,19.96802 h -90.19204 v 90.28899 c -8.79176,-0.34577 -15.60267,-0.99003 -25.01676,-2.81547 -54.33888,-10.53654 -104.91554,-30.81331 -147.6539,-59.19495 -29.66272,-19.69838 -48.3042,-36.9021 -69.71943,-64.34372 l -3.13046,-4.0112 -0.0552,189.74689 -0.0537,189.7484 8.3449,-10.82597 c 22.67558,-29.41486 58.135,-57.48103 98.837,-78.22995 39.04026,-19.90179 76.43416,-32.62712 117.02409,-39.82556 6.23043,-1.10494 13.71099,-1.83724 21.42354,-2.38553 v 90.389 h 90.2458 c -5.75979,67.41102 -38.27217,147.40828 -81.69042,199.16363 -13.42689,16.00513 -33.68679,35.14707 -47.00757,44.41153 -2.59829,1.80703 9.49755,1.93635 187.50635,1.99291 l 190.28451,0.0612 -9.62574,-7.19843 C 666.79309,877.49523 645.92696,856.15235 633.7003,839.89047 592.91806,785.64878 563.90161,710.96892 558.6052,649.27025 h 90.66528 V 558.9753 c 8.82061,0.34583 15.6323,0.98998 25.02124,2.80801 26.96174,5.22068 52.30035,12.62125 78.16883,22.82975 27.88098,11.0027 71.02142,35.69797 92.64628,53.03556 11.98381,9.60796 33.13356,30.93865 41.81549,42.17228 l 7.98217,10.32736 v -190.2694 c 0,-104.64781 -0.41396,-189.77278 -0.91957,-189.16767 -0.5056,0.60508 -3.86099,5.02527 -7.45669,9.82278 -8.45484,11.28089 -26.26548,29.11558 -40.56305,40.61974 -49.28172,39.65314 -118.35522,69.29285 -183.49067,78.73602 -3.9673,0.57518 -8.59803,0.92284 -13.20403,1.25695 v -90.41736 h -90.65482 c 1.21001,-14.55198 3.64934,-29.79014 7.43127,-45.28781 19.80305,-81.14934 61.67298,-152.10849 113.2801,-191.98167 L 690.153,105.09555 H 499.94313 Z" />
</svg>
