<?xml version="1.0" encoding="UTF-8" standalone="no"?>
<svg
   xmlns:dc="http://purl.org/dc/elements/1.1/"
   xmlns:cc="http://creativecommons.org/ns#"
   xmlns:rdf="http://www.w3.org/1999/02/22-rdf-syntax-ns#"
   xmlns:svg="http://www.w3.org/2000/svg"
   xmlns="http://www.w3.org/2000/svg"
   id="svg7"
   version="1.1"
   height="200"
   width="200">

  <metadata
     id="metadata2">
    <rdf:RDF>
      <cc:Work
         rdf:about="">
        <dc:format>image/svg+xml</dc:format>
        <dc:type
           rdf:resource="http://purl.org/dc/dcmitype/StillImage" />
        <cc:license
           rdf:resource="" />
        <dc:title></dc:title>
        <dc:creator>
          <cc:Agent>
            <dc:title>(Drawshield internal)</dc:title>
          </cc:Agent>
        </dc:creator>
      </cc:Work>
    </rdf:RDF>
  </metadata>
  <g
     id="body"
     style="fill:#ffff00;fill-rule:evenodd;stroke:#000000;stroke-width:3">
    <path
       id="path4"
       d="m 100,20 c 10,-45 65,0 65,10 -35,-20 -53,0 -53,15 v 43 h 43 c 15,0 35,-18 15,-53 10,0 55,55 10,65 45,10 0,65 -10,65 20,-35 -0.02,-53.697 -15,-53 h -43 v 43 c 0,15 18,35 53,15 0,10 -55,55 -65,10 -10,45 -65,0 -65,-10 35,20 53.8557,-0.02 53,-15 V 112 H 45 C 30,112 10,130 30,165 20,165 -25,110 20,100 -25,90 20,35 30,35 10,70 30,88 45,88 H 88 V 45 C 88,30 70,10 35,30 35,20 90,-25 100,20 Z" />
  </g>
</svg>
