<?xml version="1.0" encoding="UTF-8" standalone="no"?>
<svg xmlns:dc="http://purl.org/dc/elements/1.1/"
                xmlns:cc="http://creativecommons.org/ns#"
                xmlns:rdf="http://www.w3.org/1999/02/22-rdf-syntax-ns#"
                xmlns:svg="http://www.w3.org/2000/svg"
                xmlns="http://www.w3.org/2000/svg"
                width="200"
                height="200"
                version="1.1" >
  <metadata>
    <rdf:RDF>
      <cc:Work rdf:about="">
        <dc:format>image/svg+xml</dc:format>
        <dc:type rdf:resource="http://purl.org/dc/dcmitype/StillImage"/>
        <cc:license rdf:resource=""/>
        <dc:title/>
        <dc:creator>
          <cc:Agent>
            <dc:title>(Drawshield internal)</dc:title>
          </cc:Agent>
        </dc:creator>
      </cc:Work>
    </rdf:RDF>
  </metadata>
<g style="fill:#ffff00;fill-opacity:1;fill-rule:evenodd;stroke:#000000;stroke-width:3;stroke-linecap:butt;stroke-linejoin:miter;stroke-miterlimit:4;stroke-opacity:1;stroke-dasharray:none" id="body"><path  d="m100,0c9.59,5.09 5,14 5,19 5.6,-8.1 8.6,-12.1 13.6,-9.72 6,2.82 11.4,4.72 1.4,19.72 3,-16 -9.9,-13.4 -10,-5 l0,66 l66,0   c8.4,-0.1 11,-13 -5,-10 15,-10 16.9,-4.6 19.72,1.4 2.38,5 -1.62,8 -9.72,13.6 5,0 13.91,-4.59 19,5    c-5.09,9.59 -14,5 -19,5 8.1,5.6 12.1,8.6 9.72,13.6 -2.82,6 -4.72,11.4 -19.72,1.4 16,3 13.4,-9.9 5,-10   l-66,0   v60l-10,30l-10,-30 v-60      l-66,-0   c-8.4,0.1 -11,13 5,10 -15,10 -16.9,4.6 -19.72,-1.4 -2.38,-5 1.62,-8 9.72,-13.6 -5,-0 -13.91,4.59 -19,-5    c5.09,-9.59 14,-5 19,-5 -8.1,-5.6 -12.1,-8.6 -9.72,-13.6 2.82,-6 4.72,-11.4 19.72,-1.4 -16,-3 -13.4,9.9 -5,10   l66,-0   l0,-66 c-0.1,-8.4 -13,-11 -10,5 -10,-15 -4.6,-16.9 1.4,-19.72 5,-2.38 8,1.62 13.6,9.72 0,-5 -4.59,-13.91 5,-19      z" /></g>
</svg>
