<?xml version="1.0" encoding="utf-8"?>
<svg xmlns:dc="http://purl.org/dc/elements/1.1/" xmlns:xl="http://www.w3.org/1999/xlink"
     xmlns="http://www.w3.org/2000/svg"
     xmlns:xlink="http://www.w3.org/1999/xlink"
     version="1.1"
     viewBox="62 62 241 241"
     width="241"
     height="241"
     preserveAspectRatio="xMidYMid meet"
     zoomAndPan="magnify"
     contentScriptType="application/ecmascript"
     contentStyleType="text/css">
   <defs/>
   <metadata xmlns="" xmlns:svg="http://www.w3.org/2000/svg"
             xmlns:rdf="http://www.w3.org/1999/02/22-rdf-syntax-ns#"
             xmlns:cc="http://creativecommons.org/ns#">
      <rdf:RDF>
         <cc:Work rdf:about="">
            <dc:creator>
               <cc:Agent>
                  <dc:title>http://heraldicart.org Cross of St. Julian.svg</dc:title>
               </cc:Agent>
            </dc:creator>
         </cc:Work>
      </rdf:RDF>
   </metadata>
   <g stroke="#505050" fill="#ffff00" stroke-opacity="1" stroke-dasharray="none"
      fill-opacity="1">
      <title>Cross of St. Julian</title>
      <g>
         <title>Layer 2</title>
         <g>
            <path d="M 157.19598 182.3149 L 119.51759 219.9933 L 94.39866 194.87437 L 69.27973 219.9933 L 94.39866 245.11223 L 63 276.5109 L 88.11893 301.62982 L 119.51759 270.23116 L 141.49665 292.21022 L 166.61558 267.0913 L 144.63652 245.11223 L 182.3149 207.43384 L 219.9933 245.11223 L 194.87437 270.23116 L 219.9933 295.3501 L 245.11223 270.23116 L 276.5109 301.62982 L 301.62982 276.5109 L 270.23116 245.11223 L 295.3501 219.9933 L 270.23116 194.87437 L 245.11223 219.9933 L 207.43384 182.3149 L 245.11223 144.63652 L 267.0913 166.61558 L 292.21022 141.49665 L 270.23116 119.51759 L 301.62982 88.11893 L 276.5109 63 L 245.11223 94.39866 L 219.9933 69.27973 L 194.87437 94.39866 L 219.9933 119.51759 L 182.3149 157.19598 L 144.63652 119.51759 L 169.75545 94.39866 L 144.63652 69.27973 L 119.51759 94.39866 L 88.11893 63 L 63 88.11893 L 94.39866 119.51759 L 69.27973 144.63652 L 94.39866 169.75545 L 119.51759 144.63652 Z"/>
            <path d="M 157.19598 182.3149 L 119.51759 219.9933 L 94.39866 194.87437 L 69.27973 219.9933 L 94.39866 245.11223 L 63 276.5109 L 88.11893 301.62982 L 119.51759 270.23116 L 141.49665 292.21022 L 166.61558 267.0913 L 144.63652 245.11223 L 182.3149 207.43384 L 219.9933 245.11223 L 194.87437 270.23116 L 219.9933 295.3501 L 245.11223 270.23116 L 276.5109 301.62982 L 301.62982 276.5109 L 270.23116 245.11223 L 295.3501 219.9933 L 270.23116 194.87437 L 245.11223 219.9933 L 207.43384 182.3149 L 245.11223 144.63652 L 267.0913 166.61558 L 292.21022 141.49665 L 270.23116 119.51759 L 301.62982 88.11893 L 276.5109 63 L 245.11223 94.39866 L 219.9933 69.27973 L 194.87437 94.39866 L 219.9933 119.51759 L 182.3149 157.19598 L 144.63652 119.51759 L 169.75545 94.39866 L 144.63652 69.27973 L 119.51759 94.39866 L 88.11893 63 L 63 88.11893 L 94.39866 119.51759 L 69.27973 144.63652 L 94.39866 169.75545 L 119.51759 144.63652 Z"
                  stroke="black"
                  stroke-linecap="round"
                  stroke-linejoin="round"
                  stroke-width="2"/>
         </g>
      </g>
   </g>
</svg>