<?xml version="1.0" encoding="UTF-8"?>
<!DOCTYPE svg PUBLIC "-//W3C//DTD SVG 1.1//EN" "http://www.w3.org/Graphics/SVG/1.1/DTD/svg11.dtd">
<svg version="1.1" xmlns="http://www.w3.org/2000/svg" xmlns:xlink="http://www.w3.org/1999/xlink" x="0" y="0" width="400" height="400" viewBox="0, 0, 400, 400">
  <g id="Layer_1">
    <g>
      <path d="M250.5,0.5 L250.5,150.5 L400.5,150.5 L350.5,200.5 L400.5,250.5 L250.5,250.5 L250.5,400.5 L200.5,350.5 L150.5,400.5 L150.5,250.5 L0.5,250.5 L50.5,200.5 L0.5,150.5 L150.5,150.5 L150.5,0.5 L200.5,50.5 L250.5,0.5 z M200.5,163.5 C180.065,163.5 163.5,180.065 163.5,200.5 C163.5,220.935 180.065,237.5 200.5,237.5 C220.935,237.5 237.5,220.935 237.5,200.5 C237.5,180.065 220.935,163.5 200.5,163.5 z" fill="#FF0000"/>
      <path d="M250.5,0.5 L250.5,150.5 L400.5,150.5 L350.5,200.5 L400.5,250.5 L250.5,250.5 L250.5,400.5 L200.5,350.5 L150.5,400.5 L150.5,250.5 L0.5,250.5 L50.5,200.5 L0.5,150.5 L150.5,150.5 L150.5,0.5 L200.5,50.5 L250.5,0.5 z M200.5,163.5 C180.065,163.5 163.5,180.065 163.5,200.5 C163.5,220.935 180.065,237.5 200.5,237.5 C220.935,237.5 237.5,220.935 237.5,200.5 C237.5,180.065 220.935,163.5 200.5,163.5 z" fill-opacity="0" stroke="#747474" stroke-width="3"/>
    </g>
  </g>
</svg>
