<?xml version="1.0" encoding="UTF-8" standalone="no"?>
<svg
   xmlns:dc="http://purl.org/dc/elements/1.1/"
   xmlns:cc="http://creativecommons.org/ns#"
   xmlns:rdf="http://www.w3.org/1999/02/22-rdf-syntax-ns#"
   xmlns:svg="http://www.w3.org/2000/svg"
   xmlns="http://www.w3.org/2000/svg"
   id="svg7"
   version="1.1"
   height="200"
   width="200">

  <metadata
     id="metadata2">
    <rdf:RDF>
      <cc:Work
         rdf:about="">
        <dc:format>image/svg+xml</dc:format>
        <dc:type
           rdf:resource="http://purl.org/dc/dcmitype/StillImage" />
        <cc:license
           rdf:resource="" />
        <dc:title></dc:title>
        <dc:creator>
          <cc:Agent>
            <dc:title>(Drawshield internal)</dc:title>
          </cc:Agent>
        </dc:creator>
      </cc:Work>
    </rdf:RDF>
  </metadata>
  <g
     id="body"
     style="fill:#ffff00;fill-rule:evenodd;stroke:#000000;stroke-width:3">
    <path
       id="path4"
       d="m 100,25 c 0,-20 13.2,-24.348 25,-25 10.7,-0.59 23.7,9.41 25,20 1,8.3 0,15 -15,20 10,-15 3.5,-24.2 -5,-25 -8.9,-0.8 -16,15.3 -16,25 v 46 h 46 c 9.7,0 25.8,-7.1 25,-16 -0.8,-8.5 -10,-15 -25,-5 5,-15 11.7,-16 20,-15 10.59,1.3 20.59,14.3 20,25 -0.65,11.8 -5,25 -25,25 20,0 24.35,13.2 25,25 0.59,10.7 -9.41,23.7 -20,25 -8.3,1 -15,0 -20,-15 15,10 24.2,3.5 25,-5 0.8,-8.9 -15.3,-16 -25,-16 h -46 v 46 c 0,9.7 7.1,25.8 16,25 8.5,-0.8 15,-10 5,-25 15,5 16,11.7 15,20 -1.3,10.59 -14.3,20.59 -25,20 -11.8,-0.65 -25,-5 -25,-25 0,20 -13.2,24.35 -25,25 -10.7,0.59 -23.7,-9.41 -25,-20 -1,-8.3 0,-15 15,-20 -10,15 -3.5,24.2 5,25 8.9,0.8 16,-15.3 16,-25 V 114 H 40 c -9.7,0 -25.8,7.1 -25,16 0.8,8.5 10,15 25,5 -5,15 -11.7,16 -20,15 C 9.41,148.7 -0.59,135.7 0,125 0.65,113.2 5,100 25,100 5,100 0.65,86.8 0,75 -0.59,64.3 9.41,51.3 20,50 28.3,49 35,50 40,65 25,55 15.8,61.5 15,70 14.2,78.9 30.3121,86.4844 40,86 H 86 V 40 C 86,30.3 78.9,14.2 70,15 61.5,15.8 55,25 65,40 50,35 49,28.3 50,20 51.3,9.41 64.3,-0.59 75,0 c 11.8,0.65 25,5 25,25 z m 0,5 H 92 V 92 H 30 v 8 8 h 62 v 62 h 8 8 v -62 h 62 v -8 -8 H 108 V 30 Z" />
  </g>
</svg>
