<?xml version="1.0" encoding="UTF-8" standalone="no"?>
<svg xmlns="http://www.w3.org/2000/svg" xmlns:svg="http://www.w3.org/2000/svg" xmlns:bx="https://boxy-svg.com" viewBox="0 0 295.759 295.758" width="295.759" height="295.758" version="1.1" id="svg4">
  <defs id="defs8"/>
  <polygon fill-rule="evenodd" clip-rule="evenodd" points="274.215,0 266.225,8.017 254.895,8.017 254.242,8.017 234.499,27.676 246.48,27.676 223.762,50.367 211.779,50.367 192.092,69.997 204.074,69.997 182.829,91.187 170.846,91.187 148.863,113.141 160.846,113.141 151.753,122.234 130.365,101.385 130.365,111.782 102.349,84.162 102.349,73.766 82.916,54.616 82.916,65.011 59.12,41.586 59.12,31.586 39.687,12.408 39.687,22.379 16.997,0 0,0 0,20.906 7.705,28.526 7.705,38.923 29.744,60.877 29.744,50.48 45.269,65.919 45.269,76.315 65.608,96.54 65.608,86.145 93.257,113.622 93.257,124.019 111.84,142.573 111.84,132.178 120.733,141.015 101.84,160.052 113.822,160.052 85.012,188.776 73.002,188.776 51.784,209.966 63.767,209.966 42.521,231.155 30.538,231.155 10.793,250.842 22.804,250.842 0,273.562 0,293.758 18.045,293.758 28.356,283.362 40.34,283.362 59.177,264.439 47.166,264.439 66.713,244.752 78.696,244.894 95.947,227.358 83.965,227.358 110.225,200.873 122.235,200.873 141.725,181.241 129.714,181.241 140.223,170.704 160.648,191.127 160.648,180.731 186.54,206.453 186.54,216.849 208.182,238.407 208.182,228.01 228.919,248.633 228.919,259.029 249.201,279.227 249.201,268.831 274.271,293.758 293.759,293.758 293.759,272.767 285.461,264.637 285.461,254.241 263.422,232.487 263.422,242.881 240.986,220.815 240.986,210.42 221.098,190.816 221.098,201.213 200.363,180.789 200.363,170.392 180.477,150.76 180.477,161.157 170.96,151.752 190.59,132.065 178.579,132.065 205.632,104.841 217.615,104.841 236.396,85.89 224.413,85.89 245.432,64.701 257.444,64.701 279.228,42.775 267.216,42.775 293.759,16.091 293.759,0 " style="fill:#ffff00;stroke:#000000;stroke-width:2px" bx:origin="0 0" id="polygon2" transform="translate(1,1)"/>
</svg>
