<?xml version="1.0" encoding="UTF-8" standalone="no"?>
<!-- Created with Inkscape (http://www.inkscape.org/) -->

<svg
   width="513.0528"
   height="513.0528"
   viewBox="0 0 513.0528 513.0528"
   version="1.1"
   id="svg5"
   xml:space="preserve"
   xmlns="http://www.w3.org/2000/svg"
   xmlns:svg="http://www.w3.org/2000/svg"
   xmlns:rdf="http://www.w3.org/1999/02/22-rdf-syntax-ns#"
   xmlns:cc="http://creativecommons.org/ns#"
   xmlns:dc="http://purl.org/dc/elements/1.1/"><defs
     id="defs2" /><g
     id="layer1"
     transform="translate(-3.2068307,-3.4541594)"><path
       style="fill:#ff0000;stroke-width:4.40798;stroke:#808080"
       d="m 252.94345,501.888 c -6.61559,-10.61734 -12.46531,-19.84277 -12.99937,-20.50101 -0.53405,-0.6582 -12.20872,3.10366 -25.9437,8.35974 -26.92045,10.30186 -34.96611,8.9874 -22.32337,-3.64708 26.12401,-26.10694 55.16435,-93.66245 63.96338,-148.79571 5.59865,-35.08022 5.59865,-35.08022 10.96646,-8.81597 10.91259,53.39441 45.76594,130.12076 71.50059,157.40178 13.12569,13.91437 10.64137,14.63098 -19.26787,5.55767 -30.03206,-9.11051 -30.82398,-8.898 -43.01326,11.54257 -10.8545,18.2022 -10.8545,18.2022 -22.88286,-1.10199 z M 21.702062,345.25751 c 0,-2.49266 2.95392,-14.26944 6.56426,-26.17061 9.11054,-30.03206 8.89803,-30.82398 -11.54254,-43.01326 -18.2022205,-10.8545 -18.2022205,-10.8545 1.102,-22.88286 10.61732,-6.61559 19.84277,-12.46531 20.50099,-12.99937 0.65822,-0.53405 -3.10366,-12.20872 -8.35974,-25.9437 -10.30187,-26.92045 -8.98741,-34.96611 3.64708,-22.32337 26.10694,26.12401 93.662448,55.16435 148.795708,63.96338 35.08022,5.59865 35.08022,5.59865 8.81597,10.96646 -53.39441,10.91259 -130.120768,45.76594 -157.401778,71.50059 -6.66707,6.28917 -12.12195,9.3954 -12.12195,6.90274 z M 488.21373,326.48755 c -6.79218,-18.58644 -95.9883,-58.01746 -151.15712,-66.82216 -35.08022,-5.59865 -35.08022,-5.59865 -8.81597,-10.96646 53.39441,-10.9126 130.12076,-45.76595 157.40178,-71.5006 13.91437,-13.12568 14.63098,-10.64136 5.55767,19.26787 -9.11051,30.03206 -8.898,30.82398 11.54257,43.01327 18.2022,10.8545 18.2022,10.8545 -1.10199,22.88285 -10.61734,6.6156 -19.87283,12.49538 -20.56779,13.06617 -0.69496,0.57079 2.77632,11.2871 7.71397,23.81401 4.93765,12.52691 8.97752,24.68636 8.97752,27.02099 0,5.39307 -7.59654,5.57129 -9.55064,0.22406 z M 207.9394,314.36502 c -7.85045,-3.16772 -6.81915,-21.3626 1.60722,-28.35586 6.10001,-5.06257 8.29583,-4.45121 15.36397,4.27757 12.88792,15.91591 1.79701,31.65142 -16.97119,24.07829 z m 88.15969,0 c -7.85045,-3.16772 -6.81916,-21.3626 1.60722,-28.35586 6.10001,-5.06257 8.29582,-4.45121 15.36397,4.27757 12.88792,15.91591 1.797,31.65142 -16.97119,24.07829 z m -44.07985,-44.07985 c -7.85044,-3.16772 -6.81915,-21.3626 1.60722,-28.35586 6.10002,-5.06256 8.29583,-4.45121 15.36397,4.27758 12.88793,15.91591 1.79701,31.65142 -16.97119,24.07828 z M 207.9394,226.20533 c -7.85045,-3.16772 -6.81915,-21.3626 1.60722,-28.35586 6.10001,-5.06256 8.29583,-4.45121 15.36397,4.27757 12.88792,15.91591 1.79701,31.65142 -16.97119,24.07829 z m 88.15969,0 c -7.85045,-3.16772 -6.81916,-21.3626 1.60722,-28.35586 6.10001,-5.06256 8.29582,-4.45121 15.36397,4.27757 12.88792,15.91591 1.797,31.65142 -16.97119,24.07829 z m -40.4587,-43.54818 C 246.84136,127.52389 217.80102,59.96838 191.67701,33.86144 c -12.64274,-12.63449 -4.59708,-13.94895 22.32337,-3.64708 13.73498,5.25608 25.40965,9.01796 25.9437,8.35974 0.53406,-0.65822 6.38378,-9.88367 12.99937,-20.50099 12.02836,-19.3042196 12.02836,-19.3042196 22.88286,-1.102 12.18928,20.44057 12.9812,20.65308 43.01326,11.54254 29.90924,-9.07328 32.39356,-8.3567 19.26787,5.55769 -25.73465,27.28101 -60.588,104.00737 -71.50059,157.40178 -5.36781,26.26425 -5.36781,26.26425 -10.96646,-8.81597 z"
       id="path7787" /></g><metadata
     id="metadata7789"><rdf:RDF><cc:Work
         rdf:about=""><dc:creator><cc:Agent><dc:title>https://en.wikipedia.org/wiki/File:Cross_ermin%C3%A9e.png</dc:title></cc:Agent></dc:creator></cc:Work></rdf:RDF></metadata></svg>
