<?xml version="1.0" encoding="UTF-8" standalone="no"?>
<svg xmlns:dc="http://purl.org/dc/elements/1.1/"
                xmlns:cc="http://creativecommons.org/ns#"
                xmlns:rdf="http://www.w3.org/1999/02/22-rdf-syntax-ns#"
                xmlns:svg="http://www.w3.org/2000/svg"
                xmlns="http://www.w3.org/2000/svg"
                width="200"
                height="200"
                version="1.1" >
  <metadata>
    <rdf:RDF>
      <cc:Work rdf:about="">
        <dc:format>image/svg+xml</dc:format>
        <dc:type rdf:resource="http://purl.org/dc/dcmitype/StillImage"/>
        <cc:license rdf:resource=""/>
        <dc:title/>
        <dc:creator>
          <cc:Agent>
            <dc:title>(Drawshield internal)</dc:title>
          </cc:Agent>
        </dc:creator>
      </cc:Work>
    </rdf:RDF>
  </metadata>
<g style="fill:#ffff00;fill-opacity:1;fill-rule:evenodd;stroke:#000000;stroke-width:3;stroke-linecap:butt;stroke-linejoin:miter;stroke-miterlimit:4;stroke-opacity:1;stroke-dasharray:none" id="body"><path  d="m100,0h10v10h10v10h-10v10h20v-10h10v10h10v10h-10v10h-10v-10h-20v50 h50  v-20  h-10  v-10  h10  v-10  h10  v10  h10  v10  h-10  v20  h10  v-10  h10  v10  h10  v10   v10  h-10  v10  h-10  v-10  h-10  v20  h10  v10  h-10  v10  h-10  v-10  h-10  v-10  h10  v-20  h-50  v60l-10,30l-10,-30 v-60      h-50  v20  h10  v10  h-10  v10  h-10  v-10  h-10  v-10  h10  v-20  h-10  v10  h-10  v-10  h-10  v-10   v-10  h10  v-10  h10  v10  h10  v-20  h-10  v-10  h10  v-10  h10  v10  h10  v10  h-10  v20  h50  v-50h-20v10h-10v-10h-10v-10h10v-10h10v10h20v-10h-10v-10h10v-10h10                                     z" /></g>
</svg>
