<?xml version="1.0" encoding="UTF-8" standalone="no"?>
<svg
   xmlns:dc="http://purl.org/dc/elements/1.1/"
   xmlns:cc="http://creativecommons.org/ns#"
   xmlns:rdf="http://www.w3.org/1999/02/22-rdf-syntax-ns#"
   xmlns:svg="http://www.w3.org/2000/svg"
   xmlns="http://www.w3.org/2000/svg"
   id="svg2004"
   version="1.1"
   height="200"
   width="200">

  <metadata
     id="metadata1999">
    <rdf:RDF>
      <cc:Work
         rdf:about="">
        <dc:format>image/svg+xml</dc:format>
        <dc:type
           rdf:resource="http://purl.org/dc/dcmitype/StillImage" />
        <cc:license
           rdf:resource="" />
        <dc:title></dc:title>
        <dc:creator>
          <cc:Agent>
            <dc:title>(Drawshield internal)</dc:title>
          </cc:Agent>
        </dc:creator>
      </cc:Work>
    </rdf:RDF>
  </metadata>
  <g
     transform="matrix(-1,0,0,1,200,0)"
     id="body"
     style="fill:#ffff00;fill-opacity:1;fill-rule:evenodd;stroke:#000000;stroke-width:3;stroke-linecap:butt;stroke-linejoin:miter;stroke-miterlimit:4;stroke-dasharray:none;stroke-opacity:1">
    <path
       id="path2001"
       d="m 100,0 h 50 v 20 h -40 v 70 h 90 v 10 50 h -20 v -40 h -70 v 90 H 100 50 V 180 H 90 V 110 H 0 V 100 50 H 20 V 90 H 90 V 0 Z m 0,90 c -4.566,0.144 -5.145,0.144 -7.601,2.832 -2.688,2.456 -2.688,3.035 -2.832,7.601 0.144,4.566 0.144,5.145 2.832,7.601 2.456,2.688 3.035,2.688 7.601,2.832 4.566,-0.144 5.145,-0.144 7.601,-2.832 2.688,-2.456 2.688,-3.035 2.832,-7.601 -0.144,-4.566 -0.144,-5.145 -2.832,-7.601 C 105.144,90.144 104.566,90.144 100,90 Z" />
  </g>
</svg>
