<?xml version="1.0" encoding="utf-8"?>
<svg xmlns:dc="http://purl.org/dc/elements/1.1/" xmlns:xl="http://www.w3.org/1999/xlink"
     xmlns="http://www.w3.org/2000/svg"
     xmlns:xlink="http://www.w3.org/1999/xlink"
     version="1.1"
     viewBox="79.61539 63.00002 66.63461 351"
     width="66.63461"
     height="351"
     preserveAspectRatio="xMidYMid meet"
     zoomAndPan="magnify"
     contentScriptType="application/ecmascript"
     contentStyleType="text/css">
   <defs/>
   <metadata  xmlns:svg="http://www.w3.org/2000/svg"
             xmlns:rdf="http://www.w3.org/1999/02/22-rdf-syntax-ns#"
             xmlns:cc="http://creativecommons.org/ns#">
      <rdf:RDF>
         <cc:Work rdf:about="">
            <dc:creator>
               <cc:Agent>
                  <dc:title>http://heraldicart.org Halberd.svg</dc:title>
               </cc:Agent>
            </dc:creator>
         </cc:Work>
      </rdf:RDF>
   </metadata>
   <g stroke="#505050" fill="#ffff00" stroke-opacity="1" stroke-dasharray="none"
      fill-opacity="1">
      <title>Halberd</title>
      <g>
         <title>Layer 2</title>
         <g>
            <g>
               <path d="M 122.10335 407.97734 C 122.10335 410.06093 120.30895 411.75 118.09544 411.75 C 115.88194 411.75 114.08754 410.06093 114.08754 407.97734 L 114.08754 193.0211 L 122.10335 193.0211 Z"/>
               <path d="M 122.10335 407.97734 C 122.10335 410.06093 120.30895 411.75 118.09544 411.75 C 115.88194 411.75 114.08754 410.06093 114.08754 407.97734 L 114.08754 193.0211 L 122.10335 193.0211 Z"
                     stroke="black"
                     stroke-linecap="round"
                     stroke-linejoin="round"
                     stroke-width="1.4657384"/>
            </g>
            <g>
               <g  id="feature-0">
                  <path 
                        d="M 112.81481 140.70362 C 113.30412 140.1983 114.74067 140.30459 114.18614 139.47214 C 112.0036 136.4542 113.335 129.48208 113.84992 119.01071 C 114.5572 104.62737 116.14978 71.85221 118.09358 65.25002 C 119.83556 71.78582 121.63369 104.62737 122.34097 119.01071 C 122.89427 130.26265 124.39031 137.4742 121.45629 140.08095 C 122.24688 140.71094 123.37607 140.70362 123.37607 140.70362 C 123.37607 140.70362 123.37606 140.70363 123.37603 140.70364 C 123.36581 140.70748 121.49064 141.41421 121.72576 142.58996 C 121.96152 143.76893 123.61183 144.4763 123.61183 144.4763 L 123.65974 144.4763 C 123.65974 144.4763 121.04815 146.24215 122.00942 147.5416 C 122.9707 148.84106 125.31005 148.24898 125.31005 148.24898 L 125.31005 148.24898 C 125.31005 148.24898 124.51811 149.81386 125.54581 150.37112 C 126.57352 150.92837 128.13917 150.13532 128.13917 150.13532 C 128.13917 150.13532 127.92242 151.18462 129.0822 151.55008 C 130.24199 151.91554 130.96828 151.0785 130.96828 151.0785 C 130.96828 151.0785 135.30578 153.04177 138.98409 157.2091 C 142.6624 161.37643 144.40655 166.6408 144.40655 166.6408 C 144.40655 166.6408 137.22656 159.2827 131.91131 159.56703 C 126.59606 159.85135 127.9034 163.5755 127.9034 163.5755 C 127.9034 163.5755 126.48885 163.5755 126.25309 164.75446 C 126.01733 165.93342 126.72461 167.58397 126.72461 167.58397 C 126.72461 167.58397 124.36702 166.16922 122.48094 167.58397 C 120.59487 168.99873 120.59487 173.95037 120.59487 173.95037 L 117.05848 173.95037 L 117.05848 173.95037 L 115.64393 173.95037 C 115.64393 173.95037 115.60627 168.0216 113.28633 167.11239 C 110.9664 166.20318 109.51418 168.99873 109.51418 168.99873 C 109.51418 168.99873 106.9899 167.28899 105.03476 168.99873 C 103.07962 170.70846 103.85596 175.12933 103.85596 175.12933 C 103.85596 175.12933 101.9235 174.82367 98.90502 175.2681 C 95.88653 175.7125 93.48256 177.72305 93.48256 177.72305 C 93.48256 177.72305 100.79285 168.5184 98.19774 158.85965 C 95.60263 149.20089 81.45883 137.87411 81.45883 137.87411 C 81.45883 137.87411 87.35282 140.46783 91.59648 141.17521 C 95.84015 141.88259 99.84806 141.17521 99.84806 141.17521 C 99.84806 141.17521 99.37926 145.43791 101.49837 147.07002 C 103.61748 148.70213 107.62811 147.07002 107.62811 147.07002 C 107.62811 147.07002 108.98427 149.80444 111.63602 148.72057 C 114.28777 147.6367 112.57905 144.4763 112.57905 144.4763 C 112.57905 144.4763 114.22937 143.76893 114.46513 142.58996 C 114.70025 141.41421 112.82507 140.70748 112.81486 140.70364 Z"
                        fill="#ff0000"/>
               </g>
               <path d="M 112.81481 140.70362 C 113.30412 140.1983 114.74067 140.30459 114.18614 139.47214 C 112.0036 136.4542 113.335 129.48208 113.84992 119.01071 C 114.5572 104.62737 116.14978 71.85221 118.09358 65.25002 C 119.83556 71.78582 121.63369 104.62737 122.34097 119.01071 C 122.89427 130.26265 124.39031 137.4742 121.45629 140.08095 C 122.24688 140.71094 123.37607 140.70362 123.37607 140.70362 C 123.37607 140.70362 123.37606 140.70363 123.37603 140.70364 C 123.36581 140.70748 121.49064 141.41421 121.72576 142.58996 C 121.96152 143.76893 123.61183 144.4763 123.61183 144.4763 L 123.65974 144.4763 C 123.65974 144.4763 121.04815 146.24215 122.00942 147.5416 C 122.9707 148.84106 125.31005 148.24898 125.31005 148.24898 L 125.31005 148.24898 C 125.31005 148.24898 124.51811 149.81386 125.54581 150.37112 C 126.57352 150.92837 128.13917 150.13532 128.13917 150.13532 C 128.13917 150.13532 127.92242 151.18462 129.0822 151.55008 C 130.24199 151.91554 130.96828 151.0785 130.96828 151.0785 C 130.96828 151.0785 135.30578 153.04177 138.98409 157.2091 C 142.6624 161.37643 144.40655 166.6408 144.40655 166.6408 C 144.40655 166.6408 137.22656 159.2827 131.91131 159.56703 C 126.59606 159.85135 127.9034 163.5755 127.9034 163.5755 C 127.9034 163.5755 126.48885 163.5755 126.25309 164.75446 C 126.01733 165.93342 126.72461 167.58397 126.72461 167.58397 C 126.72461 167.58397 124.36702 166.16922 122.48094 167.58397 C 120.59487 168.99873 120.59487 173.95037 120.59487 173.95037 L 117.05848 173.95037 L 117.05848 173.95037 L 115.64393 173.95037 C 115.64393 173.95037 115.60627 168.0216 113.28633 167.11239 C 110.9664 166.20318 109.51418 168.99873 109.51418 168.99873 C 109.51418 168.99873 106.9899 167.28899 105.03476 168.99873 C 103.07962 170.70846 103.85596 175.12933 103.85596 175.12933 C 103.85596 175.12933 101.9235 174.82367 98.90502 175.2681 C 95.88653 175.7125 93.48256 177.72305 93.48256 177.72305 C 93.48256 177.72305 100.79285 168.5184 98.19774 158.85965 C 95.60263 149.20089 81.45883 137.87411 81.45883 137.87411 C 81.45883 137.87411 87.35282 140.46783 91.59648 141.17521 C 95.84015 141.88259 99.84806 141.17521 99.84806 141.17521 C 99.84806 141.17521 99.37926 145.43791 101.49837 147.07002 C 103.61748 148.70213 107.62811 147.07002 107.62811 147.07002 C 107.62811 147.07002 108.98427 149.80444 111.63602 148.72057 C 114.28777 147.6367 112.57905 144.4763 112.57905 144.4763 C 112.57905 144.4763 114.22937 143.76893 114.46513 142.58996 C 114.70025 141.41421 112.82507 140.70748 112.81486 140.70364 Z"
                     stroke="black"
                     stroke-linecap="round"
                     stroke-linejoin="round"
                     stroke-width="1.4657384"/>
            </g>
            <g>
               <g  id="feature-1">
                  <path 
                        d="M 121.16031 191.6348 C 121.16031 170.9439 118.09544 125.12167 118.09544 125.12167 C 118.09544 125.12167 115.06162 171.28892 115.03057 191.6348 C 115.03057 191.6348 120.82074 191.50945 121.16031 191.6348 Z"
                        fill="#ff0000"/>
               </g>
               <path d="M 121.16031 191.6348 C 121.16031 170.9439 118.09544 125.12167 118.09544 125.12167 C 118.09544 125.12167 115.06162 171.28892 115.03057 191.6348 C 115.03057 191.6348 120.82074 191.50945 121.16031 191.6348 Z"
                     stroke="black"
                     stroke-linecap="round"
                     stroke-linejoin="round"
                     stroke-width="1.4657384"/>
            </g>
            <g>
               <circle cx="118.09544" cy="174.54713" r="2.92324799560879" fill="#ff0000"/>
               <circle cx="118.09544" cy="174.54713" r="2.92324799560879" stroke="black"
                       stroke-linecap="round"
                       stroke-linejoin="round"
                       stroke-width=".977159"/>
            </g>
            <g>
               <circle cx="118.1128" cy="185.84781" r="3.17637792154547" fill="#ff0000"/>
               <circle cx="118.1128" cy="185.84781" r="3.17637792154547" stroke="black"
                       stroke-linecap="round"
                       stroke-linejoin="round"
                       stroke-width=".977159"/>
            </g>
            <g>
               <g  id="feature-2">
                  <path 
                        d="M 119.51 193.28536 L 119.51 274.73688 C 119.51 275.51823 118.87668 276.15163 118.09544 276.15163 C 117.3142 276.15163 116.68089 275.51823 116.68089 274.73688 L 116.68089 193.28536 Z"
                        fill="#ff0000"/>
               </g>
               <path d="M 119.51 193.28536 L 119.51 274.73688 C 119.51 275.51823 118.87668 276.15163 118.09544 276.15163 C 117.3142 276.15163 116.68089 275.51823 116.68089 274.73688 L 116.68089 193.28536 Z"
                     stroke="black"
                     stroke-linecap="round"
                     stroke-linejoin="round"
                     stroke-width=".977159"/>
            </g>
            <g>
               <circle cx="118.17742" cy="201.30358" r="0.412239596525864" fill="#ff0000"/>
               <circle cx="118.17742" cy="201.30358" r="0.412239596525864" stroke="black"
                       stroke-linecap="round"
                       stroke-linejoin="round"
                       stroke-width=".7328692"/>
            </g>
            <g>
               <circle cx="118.17742" cy="234.2469" r="0.412239596525856" fill="#ff0000"/>
               <circle cx="118.17742" cy="234.2469" r="0.412239596525856" stroke="black"
                       stroke-linecap="round"
                       stroke-linejoin="round"
                       stroke-width=".7328692"/>
            </g>
            <g>
               <circle cx="118.17742" cy="267.19022" r="0.412239596525845" fill="#ff0000"/>
               <circle cx="118.17742" cy="267.19022" r="0.412239596525845" stroke="black"
                       stroke-linecap="round"
                       stroke-linejoin="round"
                       stroke-width=".7328692"/>
            </g>
            <g>
               <g  id="feature-3">
                  <path 
                        d="M 121.6156 191.03714 L 114.57528 191.03714 C 113.95446 191.03714 113.45118 191.54042 113.45118 192.16125 L 113.45118 192.16125 C 113.45118 192.78208 113.95446 193.28536 114.57528 193.28536 L 121.6156 193.28536 C 122.23643 193.28536 122.73971 192.78208 122.73971 192.16125 L 122.73971 192.16125 C 122.73971 191.54042 122.23643 191.03714 121.6156 191.03714 C 121.6156 191.03714 121.6156 191.03714 121.6156 191.03714 Z"
                        fill="#ff0000"/>
               </g>
               <path d="M 121.6156 191.03714 L 114.57528 191.03714 C 113.95446 191.03714 113.45118 191.54042 113.45118 192.16125 L 113.45118 192.16125 C 113.45118 192.78208 113.95446 193.28536 114.57528 193.28536 L 121.6156 193.28536 C 122.23643 193.28536 122.73971 192.78208 122.73971 192.16125 L 122.73971 192.16125 C 122.73971 191.54042 122.23643 191.03714 121.6156 191.03714 C 121.6156 191.03714 121.6156 191.03714 121.6156 191.03714 Z"
                     stroke="black"
                     stroke-linecap="round"
                     stroke-linejoin="round"
                     stroke-width="1.4657384"/>
            </g>
         </g>
      </g>
   </g>
</svg>