<?xml version="1.0" encoding="UTF-8" standalone="no"?>
<svg
   xmlns:dc="http://purl.org/dc/elements/1.1/"
   xmlns:cc="http://creativecommons.org/ns#"
   xmlns:rdf="http://www.w3.org/1999/02/22-rdf-syntax-ns#"
   xmlns:svg="http://www.w3.org/2000/svg"
   xmlns="http://www.w3.org/2000/svg"
   xmlns:sodipodi="http://sodipodi.sourceforge.net/DTD/sodipodi-0.dtd"
   xmlns:inkscape="http://www.inkscape.org/namespaces/inkscape"
   height="600.07812"
   width="628.54773"
   version="1.0"
   id="svg2"
   sodipodi:version="0.32"
   inkscape:version="0.48.4 r9939"
   sodipodi:docname="Meuble_héraldique_Eglise_profil_1.svg"
   inkscape:output_extension="org.inkscape.output.svg.inkscape">
  <metadata
     id="metadata49">
    <rdf:RDF>
      <cc:Work
         rdf:about="">
        <dc:format>image/svg+xml</dc:format>
        <dc:type
           rdf:resource="http://purl.org/dc/dcmitype/StillImage" />
        <dc:title></dc:title>
        <dc:date />
        <dc:creator>
          <cc:Agent>
            <dc:title>http://commons.wikimedia.org/wiki/User:Etxeko</dc:title>
          </cc:Agent>
        </dc:creator>
        <cc:license
           rdf:resource="http://web.resource.org/cc/PublicDomain" />
        <dc:language>fr</dc:language>
        <dc:subject>
          <rdf:Bag />
        </dc:subject>
      </cc:Work>
      <cc:License
         rdf:about="http://web.resource.org/cc/PublicDomain">
        <cc:permits
           rdf:resource="http://web.resource.org/cc/Reproduction" />
        <cc:permits
           rdf:resource="http://web.resource.org/cc/Distribution" />
        <cc:permits
           rdf:resource="http://web.resource.org/cc/DerivativeWorks" />
      </cc:License>
    </rdf:RDF>
  </metadata>
  <sodipodi:namedview
     inkscape:window-height="934"
     inkscape:window-width="1280"
     inkscape:pageshadow="2"
     inkscape:pageopacity="0.0"
     guidetolerance="10.0"
     gridtolerance="10.0"
     objecttolerance="10.0"
     borderopacity="1.0"
     bordercolor="#666666"
     pagecolor="#ffffff"
     id="base"
     showgrid="false"
     height="660px"
     inkscape:zoom="0.65975395"
     inkscape:cx="269.72862"
     inkscape:cy="358.9756"
     inkscape:window-x="-4"
     inkscape:window-y="-4"
     inkscape:current-layer="layer2"
     showguides="true"
     inkscape:guide-bbox="true"
     inkscape:window-maximized="1"
     fit-margin-top="0"
     fit-margin-left="0"
     fit-margin-right="0"
     fit-margin-bottom="0" />
  <desc
     id="desc4">Flag of Canton of Valais (Wallis)</desc>
  <defs
     id="defs6" />
  <g
     inkscape:groupmode="layer"
     id="layer2"
     inkscape:label="Meubles"
     style="display:inline">
    <path
       inkscape:connector-curvature="0"
       sodipodi:nodetypes="ccccccc"
       id="rect6340"
       d="m 239.92224,397.1112 328.74506,0 61.0779,-12.7279 0.5,189.2218 -63.7699,30.9006 -326.55306,-0.3536 z"
       style="fill:#ffff00;stroke:#000000;stroke-width:1.00157523000000000;stroke-miterlimit:4;stroke-opacity:1;stroke-dasharray:none" />
    <path
       inkscape:connector-curvature="0"
       sodipodi:nodetypes="cccccc"
       id="rect6338"
       d="m 236.22467,311.95496 285.71243,0 107.7175,73.14604 -65.1661,14.4956 -328.26383,-2.1819 z"
       style="fill:#ffff00;stroke:#000000;stroke-width:1.00157523000000000;stroke-miterlimit:4;stroke-opacity:1;stroke-dasharray:none" />
    <path
       inkscape:connector-curvature="0"
       id="rect6343"
       d="m 111.94812,397.1112 454.81108,0 0,207.0409 -454.81108,0 z"
       style="fill:#ffff00;stroke:#000000;stroke-width:1.00157523000000000;stroke-miterlimit:4;stroke-opacity:1;stroke-dasharray:none"
       sodipodi:nodetypes="ccccc" />
    <path
       inkscape:connector-curvature="0"
       style="fill:#ffff00;stroke:#000000;stroke-width:1.00157523000000000;stroke-miterlimit:4;stroke-opacity:1;stroke-dasharray:none"
       d="m 174.22467,311.95496 347.41233,0 45.0176,85.45974 -392.42993,0 z"
       id="path6345"
       sodipodi:nodetypes="ccccc" />
    <path
       inkscape:connector-curvature="0"
       id="rect6348"
       d="m 116.6073,144.75391 97.07823,0 0,255.63939 -97.07823,0 z"
       style="fill:#ffff00;stroke:#000000;stroke-width:1.00157523000000000;stroke-miterlimit:4;stroke-opacity:1;stroke-dasharray:none"
       sodipodi:nodetypes="ccccc" />
    <path
       inkscape:connector-curvature="0"
       sodipodi:nodetypes="cccc"
       id="rect6350"
       d="m 165.14644,5.42918 48.53911,139.32481 -97.07822,0 z"
       style="fill:#ffff00;stroke:#000000;stroke-width:1.00157523000000000;stroke-miterlimit:4;stroke-opacity:1;stroke-dasharray:none" />
    <path
       inkscape:connector-curvature="0"
       id="rect6355"
       d="m 111.33453,140.6225 107.62376,0 0,13.98338 -107.62376,0 z"
       style="fill:#ffff00;stroke:#000000;stroke-width:1.00157523000000000;stroke-miterlimit:4;stroke-opacity:1;stroke-dasharray:none"
       sodipodi:nodetypes="ccccc" />
    <path
       inkscape:connector-curvature="0"
       id="rect6353"
       d="m 111.7226,387.58 108.61546,0 0,16.1431 -108.61546,0 z"
       style="fill:#ffff00;stroke:#000000;stroke-width:1.00157523000000000;stroke-miterlimit:4;stroke-opacity:1;stroke-dasharray:none"
       sodipodi:nodetypes="ccccc" />
    <path
       inkscape:connector-curvature="0"
       sodipodi:nodetypes="ccccc"
       id="rect6357"
       d="m 2.69906,488.7522 109.17728,-44.1235 0,159.1697 -109.17728,0 z"
       style="fill:#ffff00;stroke:#000000;stroke-width:1.00157523000000000;stroke-miterlimit:4;stroke-opacity:1;stroke-dasharray:none" />
    <path
       inkscape:connector-curvature="0"
       style="fill:#ffff00;stroke:#000000;stroke-width:1.00157523000000000;stroke-miterlimit:4;stroke-opacity:1;stroke-dasharray:none"
       d="m 59.03117,500.0812 c -16.97919,0 -30.7624,13.7833 -30.76242,30.7624 0,2.186 -0.43426,4.3116 0,6.369 0.002,0.01 -0.002,0.017 0,0.025 l 0,65.3513 60.84513,0 0,-65.3513 0,-0.025 c 0.43427,-2.0574 0,-4.183 0,-6.369 0,-16.9791 -13.10352,-30.7624 -30.08271,-30.7624 z"
       id="path6365"
       sodipodi:nodetypes="csscccccsc" />
    <path
       inkscape:connector-curvature="0"
       style="fill:#ffff00;stroke:#000000;stroke-width:1.00157523000000000;stroke-miterlimit:4;stroke-opacity:1;stroke-dasharray:none"
       d="m 251.36422,423.9806 c -12.39775,0 -22.46188,10.0642 -22.4619,22.4619 0,1.5961 -0.31708,3.1482 0,4.6505 0.001,0.01 -0.001,0.012 0,0.018 l 0,47.7178 44.42748,0 0,-47.7178 0,-0.018 c 0.3171,-1.5023 0,-3.0544 0,-4.6505 0,-12.3977 -9.56783,-22.4619 -21.96558,-22.4619 z"
       id="path6367"
       sodipodi:nodetypes="csscccccsc" />
    <path
       inkscape:connector-curvature="0"
       style="fill:#ffff00;stroke:#000000;stroke-width:1.00157523000000000;stroke-miterlimit:4;stroke-opacity:1;stroke-dasharray:none"
       d="m 335.27422,423.9806 c -12.39775,0 -22.46188,10.0642 -22.4619,22.4619 l 0,52.3866 44.42748,0 c -0.68512,-17.4208 0.83861,-34.9961 0,-52.3866 0,-12.3977 -9.56783,-22.4619 -21.96558,-22.4619 z"
       id="path6369"
       sodipodi:nodetypes="cccccc" />
    <path
       inkscape:connector-curvature="0"
       style="fill:#ffff00;stroke:#000000;stroke-width:1.00157523000000000;stroke-miterlimit:4;stroke-opacity:1;stroke-dasharray:none"
       d="m 419.1842,423.9806 c -12.3978,0 -22.4619,10.0642 -22.4619,22.4619 l 0,52.3866 44.4275,0 c -0.6851,-17.4208 0.8386,-34.9961 0,-52.3866 0,-12.3977 -9.5679,-22.4619 -21.9656,-22.4619 z"
       id="path6371"
       sodipodi:nodetypes="cccccc" />
    <path
       inkscape:connector-curvature="0"
       sodipodi:nodetypes="cccccc"
       id="rect6360"
       d="m 503.0942,423.9806 c -12.3977,0 -22.4618,10.0642 -22.4619,22.4619 l 0,52.3866 44.4275,0 c -0.6851,-17.4208 0.8386,-34.9961 0,-52.3866 0,-12.3977 -9.5678,-22.4619 -21.9656,-22.4619 z"
       style="fill:#ffff00;stroke:#000000;stroke-width:1.00157523000000000;stroke-miterlimit:4;stroke-opacity:1;stroke-dasharray:none" />
    <path
       inkscape:connector-curvature="0"
       id="rect6375"
       d="m 146.27008,433.0223 37.75265,0 0,33.7078 -37.75265,0 z"
       style="fill:#ffff00;stroke:#000000;stroke-width:1.00157523000000000;stroke-miterlimit:4;stroke-opacity:1;stroke-dasharray:none"
       sodipodi:nodetypes="ccccc" />
    <path
       inkscape:connector-curvature="0"
       id="rect6373"
       d="m 145.81744,527.5016 39.59798,0 0,35.3553 -39.59798,0 z"
       style="fill:#ffff00;stroke:#000000;stroke-width:1.00157523000000000;stroke-miterlimit:4;stroke-opacity:1;stroke-dasharray:none"
       sodipodi:nodetypes="ccccc" />
    <path
       inkscape:connector-curvature="0"
       id="rect6380"
       d="m 111.66522,397.394 455.37678,0 0,7.0711 -455.37678,0 z"
       style="fill:#ffff00;stroke:#000000;stroke-width:1.00157523000000000;stroke-miterlimit:4;stroke-opacity:1;stroke-dasharray:none"
       sodipodi:nodetypes="ccccc" />
    <path
       inkscape:connector-curvature="0"
       sodipodi:nodetypes="ccccc"
       id="path6382"
       d="m 567,397 0,7.5 62.5,-12.5 0,-7 z"
       style="fill:#ffff00;fill-rule:evenodd;stroke:#000000;stroke-width:1.00157523000000000;stroke-linecap:butt;stroke-linejoin:miter;stroke-miterlimit:4;stroke-opacity:1;stroke-dasharray:none" />
    <path
       inkscape:connector-curvature="0"
       sodipodi:nodetypes="cccccccccccccccccccccccc"
       id="rect6386"
       d="m 212.96547,497.4554 0,13.3862 -13.92997,0 0,13.3861 0.17185,0 -14.1019,0 0,13.2871 -13.92997,0.099 0,13.0227 -13.92998,0.3634 0,12.7697 -13.93005,0.6164 0,13.2126 -13.92997,0.1736 0,13.3019 -16.4049,0.084 0,11.27 0,1.4091 160.86477,-0.702 0,-105.6801 -0.73311,0.6935 0,-0.6935 -60.14677,0 z"
       style="fill:#ffff00;stroke:#000000;stroke-width:1.00157523000000000;stroke-miterlimit:4;stroke-opacity:1;stroke-dasharray:none" />
    <path
       inkscape:connector-curvature="0"
       id="rect6413"
       d="m 139.40466,176.23871 51.48351,0 0,30.50874 -51.48351,0 z"
       style="fill:#ffff00;stroke:#000000;stroke-width:1.00157523000000000;stroke-miterlimit:4;stroke-opacity:1;stroke-dasharray:none"
       sodipodi:nodetypes="ccccc" />
    <path
       style="fill:#ffff00;fill-opacity:1;stroke:#000000;stroke-width:1;stroke-miterlimit:4;stroke-opacity:1"
       d="m 138.89877,186.28751 51.11295,0 0,13.64145 -51.11295,0 z"
       id="rect3142"
       inkscape:connector-curvature="0"
       sodipodi:nodetypes="ccccc" />
  </g>
</svg>
