<?xml version="1.0" encoding="UTF-8" standalone="no"?>
<!DOCTYPE svg PUBLIC "-//W3C//DTD SVG 1.1//EN" "http://www.w3.org/Graphics/SVG/1.1/DTD/svg11.dtd">
<svg xmlns:dc="http://purl.org/dc/elements/1.1/" xmlns:xl="http://www.w3.org/1999/xlink" version="1.1" xmlns="http://www.w3.org/2000/svg" viewBox="40.5 99 282.66667 236.25" width="282.66667" height="236.25">
  <defs>
    <clipPath id="artboard_clip_path">
      <path d="M 40.5 99 L 323.16667 99 L 323.16667 335.25 L 40.5 335.25 Z"/>
    </clipPath>
  </defs>
  <metadata> Produced by OmniGraffle 7.7.1 
    <dc:date>2018-03-18 08:21:30 +0000</dc:date><dc:title>Traceable heraldic art http://heraldicart.org/credits.html</dc:title>
  </metadata>
  <g id="Gate" fill-opacity="1" stroke-dasharray="none" stroke="none" stroke-opacity="1" fill="#ffff00">
    <title>Gate</title>
    <g id="Gate: Layer 2" >
      <title>Layer 2</title>
      <g id="Group_3">
        <g id="Graphic_42">
          <path d="M 260.21 108.25826 C 249.39037 108.58138 247.4626 109.68052 245.41246 116.94085 C 243.99455 121.77749 243.67683 121.90951 234.86334 122.21867 C 216.91863 122.96902 155.91005 121.942 137.18392 120.63254 L 118.1508 119.30162 L 113.72203 112.05097 C 113.72203 112.05097 112.44382 105.66061 108.88441 104.45307 C 105.325 103.24553 96.36765 104.35921 96.36765 104.35921 C 79.90098 103.82472 75.781365 105.38757 74.67366 112.40531 C 73.58743 119.11607 70.192345 121.34655 62.05722 120.77769 C 50.69875 119.98343 50.16314 121.02568 48.708816 152.85237 C 46.96792 190.983 47.738614 193.1963 65.47939 195.36232 L 72.35437 196.3058 L 72.81492 218.3948 C 73.19493 230.60661 72.89335 241.5368 72.347005 242.73255 C 71.636434 244.07106 68.97339 244.65605 64.06162 244.3126 C 53.777594 243.59346 49.69018 244.69583 47.876186 248.5793 C 46.05146 252.6163 45.33998 304.7008 47.163654 307.29623 C 47.855986 308.42435 53.92057 309.92813 60.65279 310.70738 C 73.96374 312.25515 77.20105 314.4867 76.68585 321.85434 C 76.33165 326.9196 80.67561 328.7658 95.71791 329.81766 C 113.67658 331.07345 117.018 329.61043 117.51923 320.23663 L 117.69525 313.308 L 134.95085 313.58915 C 144.35685 313.6299 167.32389 313.84773 185.99312 313.76502 C 204.65163 313.8358 224.98782 314.17815 230.97404 314.59674 C 241.87204 315.3588 242.1683 315.53377 242.81018 319.58898 C 244.42565 329.57352 246.32445 331.0945 258.6039 331.95315 C 273.1857 332.9728 286.09735 331.4078 288.77863 328.35617 C 289.7962 327.03913 290.95328 323.7267 291.14648 320.9638 C 291.4792 316.20554 291.4792 316.20554 301.06017 315.95004 C 311.71558 315.7697 313.99328 314.07803 316.45772 305.30425 C 318.16866 298.48293 317.92593 253.42688 316.04536 249.4393 C 314.98915 246.89754 312.87245 246.2868 302.58843 245.56767 C 291.99742 244.82707 290.1877 244.2378 288.98873 241.53181 C 288.18584 239.779 288.02695 228.8166 288.67845 217.2939 L 289.84192 196.2439 L 295.34297 194.77766 C 298.33447 193.90714 304.2638 192.93357 308.4403 192.7629 L 316.0366 192.21437 L 315.74567 180.93426 C 315.40213 163.78921 313.3605 140.0472 311.38438 130.80866 L 309.48662 122.6553 L 300.73753 122.0435 C 291.52795 121.3995 285.2852 118.03234 285.575 113.88803 C 285.66085 112.66009 283.937 110.84287 281.84177 109.92514 C 277.81553 107.94692 275.66662 107.79666 260.21 108.25826 Z M 244.93936 196.49737 L 244.93936 196.49737 C 245.20342 197.1328 245.3301 208.55568 245.0103 221.9525 L 244.39961 246.126 L 238.1064 245.68595 C 231.35272 245.21368 231.20996 245.04946 197.51119 208.60521 C 183.74186 193.76046 183.05276 194.79198 208.98983 194.44627 C 231.21087 194.30343 244.12574 194.89804 244.93936 196.49737 Z M 154.29172 220.0819 L 154.29172 220.0819 C 174.83514 241.72432 176.39476 243.6843 172.94279 244.52262 C 168.0879 245.57132 122.00034 245.12495 119.46609 243.86803 C 116.17511 242.40396 115.32284 236.94584 115.66518 216.60965 L 115.77889 197.33717 L 120.28385 196.88097 C 131.44267 196.11884 131.29991 195.9546 154.29172 220.0819 Z" fill="#cccccc"/>
        </g>
        <g id="Graphic_41">
          <path d="M 279.5351 114.2369 C 281.67326 114.54066 282.09403 117.34647 282.1134 130.30427 C 282.11557 139.0963 282.31417 147.28508 282.3818 148.52376 C 282.5922 149.92666 282.68023 157.49075 282.73607 165.5153 C 282.7919 173.53987 282.86922 181.25745 283.09034 182.50686 C 283.40055 184.68796 283.38126 193.78697 282.9402 228.7694 C 282.89623 236.01575 283.0841 244.35803 283.18715 247.29587 C 284.11997 262.6312 284.1511 268.8031 284.5183 294.4332 C 284.53548 298.59897 284.5806 306.77702 284.79743 312.4992 C 284.82858 318.6711 284.36382 323.11167 283.39993 323.66124 C 282.44677 324.0573 277.32784 324.4706 271.91266 324.7089 L 262.0247 324.94292 L 261.45473 317.65362 C 261.1091 313.77337 260.26004 310.4749 259.49257 310.4212 C 258.8786 310.3783 258.69613 312.98766 259.24893 316.1112 C 260.52198 324.3751 260.52198 324.3751 255.7637 324.04238 C 251.7729 323.7633 251.48737 323.43486 252.45554 318.41253 C 252.96646 315.51763 253.07056 311.82307 252.5532 310.3987 C 251.89306 308.8101 251.97247 303.2629 252.48016 298.20836 C 253.15208 293.01107 252.87084 288.20986 252.13557 287.6957 C 250.51155 286.6567 250.4031 272.7672 251.4903 237.36724 C 251.8241 225.97656 251.90456 213.79696 251.8337 210.39865 C 251.76285 207.00034 251.59645 198.35107 251.64043 191.1047 C 251.59638 176.29426 251.48364 166.87752 250.87823 157.88907 C 250.65388 154.48003 250.8449 142.92513 251.13576 132.14843 L 251.73142 112.60117 L 259.13128 112.65588 C 266.07065 112.6784 274.0523 113.23653 279.5351 114.2369 Z" fill="#ff0000"/>
        </g>
        <g id="Graphic_40">
          <path d="M 106.74399 108.16966 C 108.50004 109.52641 108.72439 112.93545 108.88118 137.16263 C 108.96066 153.67224 109.18396 163.71367 109.58972 171.14573 C 109.66057 174.54404 109.92357 181.81187 109.99765 187.36982 C 110.07174 192.92776 110.23491 199.4174 110.51292 202.05897 C 110.64818 204.53632 110.65035 213.32835 110.5527 221.34218 C 110.27693 249.54944 110.64088 273.0199 111.58661 296.99376 C 111.62526 300.85254 111.90973 307.8134 112.02674 312.75736 C 112.26505 318.17255 111.7112 321.6814 110.73658 322.38448 C 108.01986 323.73694 84.53545 322.09475 83.11859 320.299 C 82.40479 319.47787 81.79615 308.3298 81.60183 295.66823 C 81.41824 282.8532 81.36668 270.35587 81.23142 267.8785 C 81.2604 265.2584 81.34409 255.23843 81.40631 245.52545 C 81.46854 235.81246 81.37727 226.08875 81.22055 223.91838 C 80.43267 217.5393 80.12456 202.09342 80.29734 193.00514 C 80.46585 188.38962 80.23828 182.82094 79.92806 180.63984 C 78.53372 171.9047 79.03601 155.89852 80.570935 156.00585 C 81.49189 156.07025 81.74521 156.85918 81.05611 157.8907 C 80.21351 158.91148 80.50976 159.08644 81.94486 158.41557 C 83.54419 157.60195 83.44437 156.82375 81.4028 155.13856 C 79.50399 153.61759 79.28287 152.36818 80.45392 151.06188 C 82.13912 149.0203 88.71237 116.78035 87.57029 115.46654 C 87.29551 114.9846 86.29191 118.30777 85.36667 122.71613 C 84.44144 127.1245 83.14482 132.43234 82.38058 134.53831 C 81.37698 137.86149 81.08073 137.68653 80.54617 132.09639 C 79.49101 122.92224 79.898875 117.08951 81.66566 118.29276 C 82.54368 118.97113 82.72187 120.83451 82.13259 122.64423 C 81.18266 125.19994 81.31469 125.51766 82.67143 123.76161 C 83.67825 122.59807 84.69258 119.1214 84.89651 116.20503 C 85.09722 111.12903 84.95446 110.96481 82.76585 113.58815 C 81.41984 115.1907 80.30246 115.72954 80.35613 114.96208 C 80.645925 110.81777 85.29042 108.36616 93.97188 107.73928 C 99.09082 107.32602 103.58504 107.02331 104.05625 106.90202 C 104.51673 106.93422 105.71248 107.48056 106.74399 108.16966 Z" fill="#ff0000"/>
        </g>
        <g id="Graphic_39">
          <path d="M 307.41826 132.38224 C 308.70632 136.01991 310.09316 147.06817 309.73573 149.9738 C 308.91355 157.32 309.06704 157.33073 300.31795 156.71893 C 295.86666 156.40767 291.2082 156.85313 290.22285 157.70969 C 288.7448 158.99453 291.18996 159.31975 299.06103 159.25318 C 307.38185 159.3723 309.6735 159.68679 309.55544 161.3752 C 309.46958 162.60315 309.75832 165.09124 310.2435 166.97609 C 311.09255 170.27457 310.62133 170.39586 298.6167 170.01915 L 286.30506 169.62096 L 286.47357 165.00544 C 286.50254 162.38533 286.48535 158.21956 286.37156 155.43522 C 286.1794 151.5657 286.87925 150.38069 289.2353 149.77422 C 290.96667 149.27832 292.42324 148.30046 292.4769 147.533 C 292.61644 145.5376 290.44607 145.69431 288.1469 147.69295 C 286.66887 148.97778 286.2084 148.94558 286.305 147.56415 C 286.38012 146.4897 287.35475 145.78663 288.4292 145.86177 C 289.65714 145.94763 289.54658 145.32293 288.07605 144.29464 C 284.56395 141.58115 295.73996 144.9848 300.173 147.76268 L 303.84934 150.3334 L 300.36944 147.15944 C 298.48137 145.48498 294.78358 143.22124 292.24933 141.96432 C 287.7626 139.9539 287.92684 139.81114 296.52244 140.4122 C 301.29145 140.59145 305.3252 140.25654 305.37886 139.48907 C 305.5184 137.49367 290.0156 136.4096 287.4202 138.23328 C 285.78867 139.50739 285.33892 139.3217 285.47846 137.32629 C 285.60725 135.48437 287.3386 134.98847 293.02858 135.2321 C 297.0194 135.51117 301.67785 135.0657 303.41994 134.4163 C 305.63323 133.64561 303.3523 133.17763 296.11668 132.98015 C 289.04527 132.63991 285.85412 131.95403 285.94 130.72609 C 286.09025 128.57719 289.21378 128.02439 298.88383 128.70059 C 305.03428 128.97643 306.52627 129.69773 307.41826 132.38224 Z" fill="#ff0000"/>
        </g>
        <g id="Graphic_38">
          <path d="M 244.3606 131.98315 C 244.79856 138.95473 244.79856 138.95473 233.68268 139.10289 L 222.87378 139.27252 L 234.0895 139.90256 C 244.99822 140.51112 245.1517 140.52186 244.87264 144.51267 C 244.61505 148.1965 243.96887 148.61405 237.31501 148.91998 C 233.12777 149.24415 222.05482 148.77835 212.38477 148.10215 C 202.71472 147.42595 194.3939 147.30684 193.90122 147.73511 C 193.39781 148.31689 204.59206 149.2539 218.73487 149.93438 C 240.71655 151.00876 244.3789 151.57335 244.39287 153.57949 C 244.4605 154.81816 244.44226 157.28478 244.4777 158.98394 C 244.35962 160.67236 243.30987 162.44987 242.039 162.97798 C 240.1434 163.61664 240.12194 163.92363 242.42434 164.08463 C 243.94853 164.34545 244.93712 165.64853 244.80832 167.49044 C 244.69025 169.17887 244.71494 171.03151 244.8255 171.65622 C 244.92533 172.43442 243.64372 173.11601 242.25155 173.1729 C 240.53093 173.51532 239.79567 173.00118 240.48477 171.96966 C 241.8415 170.21361 236.73437 163.841 233.9715 163.6478 C 232.89704 163.57266 233.58938 164.70078 235.3347 166.21101 C 240.01033 169.93132 239.0926 172.02655 232.98509 171.13674 C 229.9367 170.6151 226.8239 171.0144 225.6636 172.1672 C 223.8571 173.73756 224.2961 174.07675 227.73736 173.39192 C 229.91846 173.08171 234.83023 173.42518 238.48186 174.14325 L 245.01765 175.52574 L 244.53465 182.43292 C 243.97652 190.41455 246.81453 189.5333 219.34253 189.77168 C 210.8575 189.79532 202.83293 189.85116 201.59425 189.91879 C 200.35557 189.98641 195.09388 190.23545 189.98568 190.49523 L 180.70098 190.92568 L 165.25074 173.64974 C 155.36813 162.77861 150.4252 156.26323 151.83884 155.89935 C 152.9455 155.514 152.51721 155.02133 150.6753 154.89253 C 148.99761 154.62097 146.34207 152.89284 144.79318 150.77937 C 143.38705 148.83012 143.123 148.19468 144.28654 149.2015 C 146.73492 151.68637 149.32284 152.17582 148.09167 149.93032 C 147.5421 148.96643 150.04091 148.52419 154.6457 148.84619 C 158.63652 149.12525 163.14147 148.66905 164.42308 147.98745 C 166.18664 147.03107 164.51968 146.60602 159.1045 146.84432 C 143.7799 147.62365 139.64633 147.18035 138.25093 145.07761 C 136.97683 143.44609 137.46951 143.0178 140.69286 143.2432 C 142.99525 143.4042 144.57312 142.89757 144.15557 142.2514 C 143.74876 141.45173 145.30515 141.25208 147.58608 141.72006 C 149.867 142.18805 152.81557 141.9315 154.10791 141.09641 C 156.19992 139.8545 156.22139 139.54752 154.32258 138.02655 C 153.1483 137.17322 151.50281 136.44118 150.58186 136.37678 C 149.8144 136.32312 149.93568 136.79433 150.97794 137.32994 C 151.87743 137.70133 152.41626 138.81871 151.74863 139.54324 C 150.2062 141.74904 147.95746 140.82057 148.1614 137.9042 C 148.26873 136.36928 147.84045 135.8766 146.99785 136.89738 C 146.31948 137.7754 142.70328 138.75649 138.98725 138.95937 C 134.65725 139.11931 132.97956 138.84775 134.26117 138.16616 C 136.66016 136.94572 136.81366 136.95645 129.15725 133.95317 C 125.4058 132.4569 126.8162 129.93338 131.43172 130.10189 C 133.73412 130.26289 137.28592 130.20277 139.45629 130.04605 C 141.61592 130.04282 150.26519 129.87642 158.75023 129.85278 C 167.23527 129.82913 176.34502 129.69493 178.81164 129.71317 C 181.44248 129.58865 191.76944 129.69381 201.9429 129.78823 C 212.11637 129.88266 220.76563 129.71626 221.09409 129.43074 C 222.72561 128.15663 244.3037 130.59098 244.3606 131.98315 Z" fill="#ff0000"/>
        </g>
        <g id="Graphic_37">
          <path d="M 152.28326 167.1902 C 162.13367 178.5218 173.87216 191.52787 178.64763 196.02637 C 191.48203 208.80059 201.26482 218.89351 224.81693 243.8312 C 236.57688 256.53028 246.4917 266.94092 246.63445 267.10515 C 246.9307 267.2801 247.17975 272.5418 247.20016 278.8672 C 247.24527 287.04526 246.9093 289.6439 245.79943 287.86962 C 244.82158 286.41305 244.21834 286.21663 244.1432 287.29108 C 244.0788 288.21203 244.74968 289.64714 245.48494 290.16128 C 246.3737 290.68616 246.8696 292.4175 246.78374 293.64546 C 246.6442 295.64086 245.4592 294.94103 242.165 291.3173 C 239.58459 288.51474 238.2536 285.49104 238.6679 283.97758 C 239.99996 280.3689 236.08105 276.85573 233.45343 279.1399 C 232.13962 280.28197 233.64557 283.0094 240.05902 290.55308 C 244.6166 295.9618 247.97843 300.8242 247.32153 301.39523 C 246.66462 301.96627 242.87774 298.77084 239.02323 294.33674 C 235.01523 289.8919 231.83158 286.8929 231.9314 287.6711 C 231.867 288.59205 235.44673 292.5442 239.6297 296.6928 C 248.1491 305.0007 250.3721 310.7089 242.6341 304.4608 C 240.01076 302.2722 237.2554 299.76588 236.39884 298.78052 C 235.69577 297.8059 225.06716 286.57412 212.836 273.99634 C 200.75832 261.42928 186.69275 246.40957 181.69616 240.66165 C 176.53535 235.0565 166.50997 224.02115 159.17557 216.41308 C 137.6221 193.77456 123.03915 177.33048 123.45347 175.81702 C 123.80338 175.22451 123.05739 174.86386 121.95074 175.2492 C 120.85482 175.48106 118.35277 173.76367 116.51837 171.32174 L 112.98157 166.7556 L 116.72552 170.56501 C 119.61292 173.38905 120.80866 173.9354 121.52996 172.4434 C 122.08704 171.09417 124.86387 173.2935 130.03542 178.74517 C 134.19692 183.20074 136.65603 185.5321 135.54615 183.75782 C 134.58977 181.99427 130.46047 177.07821 126.45247 172.63338 C 122.15895 167.86008 120.4995 165.1219 122.29848 165.86468 C 124.40445 166.62891 123.4588 164.71187 119.47226 159.96004 C 114.62917 154.22286 113.4302 151.51688 113.23482 145.48773 C 112.93212 140.9935 113.41083 138.55908 114.29959 139.08396 C 115.91288 140.27647 115.63164 135.47526 113.86163 132.11238 C 113.18003 130.83077 115.55005 132.23044 119.02995 135.4044 L 125.5722 141.10616 L 118.88396 133.08055 C 115.02945 128.64644 112.08517 124.43023 112.13883 123.66276 C 112.24617 122.12784 126.86131 138.11144 152.28326 167.1902 Z" fill="#ff0000"/>
        </g>
        <g id="Graphic_36">
          <path d="M 73.77537 149.51516 C 73.36217 166.45305 72.96181 169.97265 70.82687 171.82852 C 69.50233 173.1241 68.79176 174.4626 69.22004 174.95527 C 69.637585 175.60145 70.75497 175.0626 71.6083 173.88833 C 72.800815 172.27504 73.21836 172.92121 72.96076 176.60504 C 72.72463 179.98189 71.8391 181.61664 69.964986 181.94832 C 67.93738 182.26927 68.2229 182.59772 70.9643 183.0979 C 74.626665 183.66249 74.61593 183.81598 70.08951 184.57917 L 65.39885 185.4851 L 69.68592 185.93913 C 77.185605 186.77205 74.165135 190.26268 66.501224 189.57252 C 59.60478 188.93603 56.499493 187.02221 56.14312 183.29545 C 55.06004 170.10903 55.813545 168.15655 61.79977 168.57515 C 64.71613 168.77908 67.68616 168.21555 68.21104 167.3268 C 69.05364 166.306 67.22246 166.02371 62.26775 166.29422 C 52.336875 167.14222 53.30827 164.27952 63.58907 162.83902 L 71.68876 161.70873 L 63.65347 161.91806 C 53.919016 162.16282 52.70931 159.61034 62.02622 158.7194 C 69.32625 157.99592 69.35845 157.53545 62.38364 155.81377 C 59.203225 154.9744 57.65756 155.02056 58.207135 155.98445 C 58.603214 156.93761 58.0998 157.51938 56.87186 157.43352 C 55.643916 157.34765 54.35908 155.86961 54.005934 154.30249 C 53.46387 151.02547 55.873594 149.65154 61.859816 150.07014 C 63.85522 150.20967 65.58658 149.71376 65.640245 148.9463 C 65.68318 148.33233 62.93104 147.98564 59.51126 148.36348 C 54.3816 148.93023 53.62487 148.72308 55.12437 147.13125 C 56.13119 145.96771 58.037506 145.17555 59.11196 145.25068 C 62.02832 145.45462 61.82867 143.89822 58.423904 139.6498 C 56.150483 136.8687 55.676044 134.83036 56.63671 132.12115 C 57.81526 128.50172 58.604194 128.2484 66.125345 128.77433 L 74.26047 129.3432 L 73.77537 149.51516 Z" fill="#ff0000"/>
        </g>
        <g id="Graphic_35">
          <path d="M 80.73299 147.07106 C 80.28647 149.045 80.06535 147.7956 80.30148 144.41875 C 80.38412 141.03117 80.79844 139.51771 81.16232 140.93135 C 81.36197 142.48774 81.16877 145.25061 80.73299 147.07106 Z" fill="#ff0000"/>
        </g>
        <g id="Graphic_34">
          <path d="M 58.10941 141.94147 C 59.733434 142.98049 59.39425 143.4195 57.202415 143.88321 C 55.3283 144.21489 54.13256 143.66854 54.218424 142.4406 C 54.390156 139.98471 55.321847 139.89562 58.10941 141.94147 Z" fill="#ff0000"/>
        </g>
        <g id="Graphic_33">
          <path d="M 120.12489 163.86176 C 120.06049 164.78272 118.43646 163.7437 116.4271 161.59802 C 114.41773 159.45235 112.8903 157.0319 112.94397 156.26443 C 113.00837 155.34347 114.6324 156.3825 116.64176 158.52817 C 118.65113 160.67384 120.17855 163.0943 120.12489 163.86176 Z" fill="#ff0000"/>
        </g>
        <g id="Graphic_32">
          <path d="M 310.25963 177.77425 C 309.88074 180.98687 310.0729 184.8564 310.59026 186.28076 C 311.36095 188.49406 310.70405 189.0651 307.93044 189.0254 C 305.93503 188.88586 302.219 189.08874 299.57743 189.36675 C 291.48846 190.34355 287.5191 189.7575 287.03394 187.87265 C 286.6486 186.766 287.6125 186.21643 289.4222 186.8057 C 290.93566 187.22003 293.27026 186.92055 294.55187 186.23895 C 296.1512 185.42533 295.41593 184.91118 291.8856 184.66432 C 289.12272 184.47112 286.86326 183.69615 286.91693 182.92868 C 286.95986 182.31471 288.66975 182.1258 290.78645 182.73654 C 292.7604 183.18305 295.84098 183.24423 297.2761 182.57336 C 299.3359 181.79194 298.44713 181.26706 293.4248 180.29889 C 284.3011 178.42695 283.4735 174.82148 292.38683 175.29052 C 296.0814 175.39462 297.49503 175.03074 295.67458 174.59496 C 288.864 172.73053 292.5446 170.8285 301.60068 171.46175 L 310.96375 172.11648 L 310.25963 177.77425 Z" fill="#ff0000"/>
        </g>
        <g id="Graphic_31">
          <path d="M 290.22397 173.13411 C 289.7313 173.5624 288.33912 173.61928 287.29687 173.08367 C 286.10113 172.53733 286.5938 172.10905 288.28223 172.22711 C 289.9814 172.19169 290.87014 172.71657 290.22397 173.13411 Z" fill="#ff0000"/>
        </g>
        <g id="Graphic_30">
          <path d="M 121.14139 169.17712 C 121.42691 169.50557 121.39471 169.96605 120.90203 170.39433 C 120.56285 170.83334 118.24649 168.6662 115.9838 165.7316 L 111.87598 160.50856 L 116.21243 164.66788 C 118.67154 166.99925 120.84514 169.00216 121.14139 169.17712 Z" fill="#ff0000"/>
        </g>
        <g id="Graphic_29">
          <path d="M 119.77181 184.35145 C 119.27913 184.77973 117.88696 184.83662 116.84471 184.301 C 115.64897 183.75466 116.14165 183.32639 117.83007 183.44445 C 119.52923 183.40902 120.41798 183.9339 119.77181 184.35145 Z" fill="#ff0000"/>
        </g>
        <g id="Graphic_28">
          <path d="M 125.89974 191.56667 C 125.84608 192.33413 123.19376 192.76564 120.1239 192.55097 L 114.31264 191.83612 L 119.76003 191.13734 C 122.71932 190.7273 125.37164 190.2958 125.68936 190.16376 C 125.84285 190.1745 125.96414 190.6457 125.89974 191.56667 Z" fill="#ff0000"/>
        </g>
        <g id="Graphic_27">
          <path d="M 306.4891 251.54743 C 304.16524 251.69342 300.02093 251.40362 297.27953 250.90344 C 294.53812 250.40325 296.4015 250.22507 301.46677 250.57927 C 306.53203 250.93346 308.81296 251.40145 306.4891 251.54743 Z" fill="#ff0000"/>
        </g>
        <g id="Graphic_26">
          <path d="M 312.90577 261.25074 C 313.22995 265.43798 313.1602 277.4641 312.8801 288.0873 C 312.1127 310.09045 311.02 312.48193 302.81727 310.6744 C 300.22936 310.18494 298.61607 308.99243 299.1302 308.25716 C 299.8086 307.37914 297.98814 306.94335 294.75405 306.87145 C 291.66273 306.96377 288.76783 306.45285 288.1968 305.79594 C 287.62575 305.13904 290.26733 304.86103 293.9619 304.96513 C 297.65646 305.06924 302.45767 304.788 304.66024 304.1708 C 307.1698 303.57507 305.04235 303.1178 298.24573 303.25952 C 291.29562 303.3905 287.78675 302.83665 287.8619 301.7622 C 287.97995 300.07377 291.2677 299.3782 299.63145 298.88336 C 302.2623 298.75884 300.75957 298.19103 296.319 297.72627 C 290.94675 297.3506 288.23755 296.38995 288.33415 295.0085 C 288.42 293.78057 290.45836 293.30613 293.82447 293.69575 C 296.7301 294.05318 299.67866 293.79663 300.1928 293.06137 C 300.70695 292.3261 298.1405 291.52966 294.45668 291.27207 C 288.16347 290.832 287.87795 290.50355 287.8715 286.18428 C 287.87577 281.71152 288.1935 281.5795 294.35467 281.70184 C 297.885 281.9487 302.1828 282.24924 303.87123 282.3673 C 306.30565 282.84602 306.4806 282.54977 304.86732 281.35725 C 303.69305 280.50392 299.26322 279.88567 295.2402 280.0671 C 290.132 280.32686 287.85108 279.85887 287.93695 278.63093 C 288.01208 277.55648 292.05656 277.06808 299.28146 277.41905 C 305.26768 277.83765 308.06275 277.57037 305.32135 277.0702 C 302.57994 276.57 300.81316 275.36675 301.3273 274.6315 C 301.99494 273.90696 298.96802 273.07832 294.67022 272.7778 C 287.91653 272.30552 286.87428 271.7699 287.05675 269.16053 C 287.24995 266.39766 288.34586 266.1658 298.0159 266.842 C 304.9231 267.325 308.80335 266.97936 308.87848 265.9049 C 308.96435 264.67697 305.60897 264.13385 297.8914 264.21116 C 290.94128 264.34213 288.18914 263.99544 290.55593 263.23548 C 292.74777 262.77178 297.3955 262.4798 300.78306 262.56244 C 304.9381 262.69875 307.60115 262.11375 308.32245 260.62175 C 309.07596 258.66928 307.409 258.24423 297.89245 257.57877 C 291.59924 257.1387 286.4234 256.1598 286.47708 255.39233 C 286.5844 253.8574 292.78853 253.36578 305.25365 253.7747 L 312.3358 253.96144 L 312.90577 261.25074 Z" fill="#ff0000"/>
        </g>
        <g id="Graphic_25">
          <path d="M 181.90872 250.85658 C 181.85506 251.62405 179.36697 251.9128 176.30785 251.54464 C 173.40221 251.1872 169.99317 251.41156 169.02928 251.96113 C 167.9119 252.49997 170.93882 253.3286 175.5436 253.6506 C 180.1484 253.9726 185.0065 255.08353 186.18078 255.93686 C 187.79407 257.12938 185.91995 257.46106 179.93373 257.04246 C 163.03878 256.0153 120.7209 254.59857 118.83606 255.08375 C 117.7294 255.4691 116.84065 254.9442 116.89432 254.17675 C 116.95872 253.2558 118.84356 252.77062 121.29945 252.94235 C 141.27499 254.0307 166.69469 252.2606 154.94013 250.5132 C 152.49498 250.18797 155.30079 249.7672 161.17645 249.5611 C 178.47498 249.22828 182.01605 249.32166 181.90872 250.85658 Z" fill="#ff0000"/>
        </g>
        <g id="Graphic_24">
          <path d="M 243.29514 255.30338 C 243.24147 256.07085 242.88082 256.81685 242.57384 256.79538 C 242.11336 256.76318 241.39956 255.94205 240.99275 255.1424 C 240.59667 254.18923 240.9466 253.59672 241.71405 253.6504 C 242.635 253.7148 243.35954 254.38243 243.29514 255.30338 Z" fill="#ff0000"/>
        </g>
        <g id="Graphic_23">
          <path d="M 302.00778 260.48868 C 299.22344 260.60246 294.61866 260.28046 292.03074 259.791 C 289.28934 259.29083 291.4597 259.1341 296.98545 259.5205 C 302.5112 259.9069 304.63863 260.36416 302.00778 260.48868 Z" fill="#ff0000"/>
        </g>
        <g id="Graphic_22">
          <path d="M 144.41675 251.01127 C 141.32543 251.1036 136.41366 250.76013 133.67225 250.25994 C 131.08434 249.7705 133.71518 249.64597 139.54791 250.05384 C 145.53414 250.47243 147.66157 250.92968 144.41675 251.01127 Z" fill="#ff0000"/>
        </g>
        <g id="Graphic_21">
          <path d="M 125.2763 251.21528 C 123.25943 251.38273 120.18957 251.16806 118.36912 250.73228 C 116.39518 250.28576 117.95158 250.0861 121.7889 250.35444 C 125.62622 250.62277 127.13968 251.0371 125.2763 251.21528 Z" fill="#ff0000"/>
        </g>
        <g id="Graphic_20">
          <path d="M 73.65871 254.85526 C 73.51918 256.85067 73.78646 259.64574 74.15034 261.05938 C 74.77827 263.10845 73.82511 263.50453 69.37382 263.19327 C 66.30396 262.9786 63.80514 263.42084 63.76221 264.0348 C 63.719276 264.64878 66.153695 265.1275 69.24502 265.03518 C 74.04623 264.75394 74.63874 265.10386 74.00653 267.52754 C 73.53854 269.80847 71.48947 270.4364 64.06814 270.68867 L 54.79417 270.96563 L 64.617715 271.65256 L 74.605485 272.19673 L 74.7225 277.1407 C 75.01447 281.78842 74.68602 282.07394 68.78889 282.58703 C 62.89176 283.10013 59.628706 285.64833 64.23349 285.97033 C 65.30794 286.04547 64.77233 287.0877 62.99804 288.1976 C 58.63907 290.97765 60.39512 292.3344 65.47862 290.22197 C 68.65581 288.9017 69.191425 287.85946 68.04935 286.54565 C 66.76451 285.0676 67.1037 284.6286 69.713076 284.81107 C 71.55499 284.93987 73.56113 284.9259 74.19657 284.66185 C 74.82127 284.5513 75.29894 288.74927 75.240995 293.9895 L 75.03601 303.53825 L 66.857955 303.58336 L 58.69063 303.47497 L 67.57175 304.4045 C 72.77978 304.9229 76.25645 305.93724 76.181315 307.0117 C 76.09545 308.23964 73.004124 308.33196 65.843625 307.06003 C 60.043096 306.1917 55.01003 305.377 54.39606 305.33408 C 53.78209 305.29114 53.425714 301.56438 53.41926 297.2451 C 53.52014 291.39092 54.18455 288.50675 55.96957 287.2434 C 58.09378 285.541 58.10451 285.3875 55.759184 285.84048 C 52.4607 286.68953 52.15049 284.50843 52.956535 266.36407 L 53.690676 251.4538 L 60.3338 251.30136 C 74.54101 251.06087 73.93778 250.86445 73.65871 254.85526 Z" fill="#ff0000"/>
        </g>
        <g id="Graphic_19">
          <path d="M 193.51518 263.54493 L 196.63443 267.4649 L 192.93987 267.3608 C 190.16626 267.32108 190.60527 267.66027 194.53169 268.8603 C 199.07207 270.10324 198.12965 270.34583 189.0521 270.01955 L 178.2754 269.7287 L 188.1773 271.5008 L 198.0792 273.27293 L 185.01085 272.6676 C 175.47283 272.3091 172.67775 272.5764 174.90501 273.81184 C 176.98951 274.88306 173.43771 274.94318 164.10685 273.82797 C 155.54344 272.76643 151.5419 272.64086 153.31941 273.6906 C 157.33492 275.82233 149.96726 275.30713 130.88798 272.43054 L 116.53479 270.34717 L 126.57622 270.12387 L 136.61766 269.90058 L 125.90536 268.68877 C 116.2675 267.5521 115.81776 267.3664 121.4079 266.83184 L 127.62275 266.18672 L 121.5045 265.4504 C 116.91045 264.97492 116.0217 264.45004 117.49973 263.1652 C 118.81354 262.02312 129.91869 262.02846 151.74688 263.0921 C 169.43076 263.86595 184.06625 264.11814 184.09845 263.65767 C 184.16285 262.7367 169.27404 261.69558 130.81496 260.2402 C 122.96535 259.9998 116.55085 259.08852 116.59378 258.47455 C 116.70112 256.93962 115.92292 257.03945 146.70736 257.95816 C 191.03138 259.36092 189.95693 259.28578 193.51518 263.54493 Z" fill="#ff0000"/>
        </g>
        <g id="Graphic_18">
          <path d="M 297.09713 275.56963 C 295.54074 275.7693 292.77786 275.5761 290.9574 275.1403 C 288.98348 274.69378 290.2329 274.47266 293.60973 274.7088 C 296.9973 274.79143 298.51077 275.20575 297.09713 275.56963 Z" fill="#ff0000"/>
        </g>
        <g id="Graphic_17">
          <path d="M 209.32607 280.07488 C 213.3448 284.36622 210.34258 285.39024 196.22123 284.40277 C 188.85357 283.88758 184.20586 284.17955 184.13072 285.254 C 184.07706 286.02147 184.50534 286.51414 185.29427 286.26082 C 185.94044 285.84328 192.73706 285.70157 200.42243 286.08474 L 214.43322 286.4475 L 223.49147 295.8728 C 231.95722 304.94816 232.232 305.4301 228.2412 305.15104 C 225.01785 304.92564 224.20745 305.48595 224.8461 307.38153 C 225.4633 309.5841 225.29909 309.72685 223.5645 308.06312 C 222.55445 307.06703 220.59125 306.46702 219.4846 306.85237 C 214.60825 308.20806 207.2084 308.15334 188.4608 307.15087 C 177.7163 306.39954 168.76004 306.54447 168.70637 307.31194 C 168.6527 308.0794 166.76786 308.56458 164.46547 308.40358 C 161.3956 308.1889 160.81384 307.6855 162.41317 306.87188 C 164.17672 305.9155 164.05543 305.44428 161.79597 304.6693 C 160.2825 304.255 168.92104 304.24208 181.2112 304.94725 C 193.50137 305.65242 206.5912 305.95077 210.48218 305.45164 C 218.25343 304.60687 164.93773 301.6499 153.94314 302.26926 C 149.44891 302.57197 147.47497 302.12545 148.31757 301.10467 C 148.83171 300.3694 151.80174 299.80587 154.8716 300.02054 C 157.94146 300.2352 162.01814 299.28632 163.80316 298.02295 C 167.05548 295.62824 167.05548 295.62824 164.71338 298.24085 C 162.37128 300.85345 162.67827 300.87492 169.95683 300.45843 C 174.29757 300.145 187.5731 299.9936 199.74196 300.22755 C 211.92156 300.308 222.4342 299.96343 222.93762 299.38166 C 223.59453 298.81062 219.30746 298.3566 213.2783 298.55197 C 196.60448 298.7742 165.67727 297.69128 176.04716 297.18246 C 183.95043 296.6554 187.93802 294.77484 188.32764 291.40873 C 188.37058 290.79476 186.73582 289.90923 184.60839 289.45198 C 179.9145 288.1983 179.54312 289.09778 184.02984 291.1082 C 187.32082 292.57227 187.32082 292.57227 184.29712 293.90327 C 182.5443 294.70616 173.87357 295.17955 164.92805 295.171 C 149.05388 294.98642 148.90039 294.9757 154.14812 292.7205 C 157.16108 291.543 158.80335 290.1154 157.75036 289.7333 C 156.85087 289.3619 154.96602 289.84707 153.67368 290.68217 C 150.91404 292.6486 117.17352 294.29956 117.30232 292.45765 C 117.34526 291.84368 119.69058 291.3907 122.60695 291.59464 C 132.73748 292.30303 142.07585 291.1051 142.22611 288.9562 C 142.39785 286.50033 136.38693 284.22908 132.16749 285.01373 C 130.60036 285.36688 131.80684 285.75973 134.71247 286.11716 C 143.2866 287.0252 137.69969 289.7194 127.37273 289.61424 C 122.4395 289.57776 119.83011 289.3953 121.85772 289.07435 C 125.75944 288.42172 126.77377 284.94505 123.34004 283.31675 C 121.9908 282.75968 121.03764 283.15575 120.94104 284.5372 C 120.85518 285.76513 120.01258 286.78592 119.24512 286.73225 C 118.32416 286.66785 117.77459 285.70396 118.00321 284.64024 C 118.2211 283.73002 118.06438 281.55965 117.55775 279.9818 C 115.09218 273.33116 116.16663 273.4063 162.19303 276.93326 C 186.26994 278.92537 206.092 280.00297 206.13492 279.389 C 206.1886 278.62154 200.37733 277.9067 193.15243 277.5557 C 185.92753 277.20474 179.82001 276.31494 179.55596 275.6795 C 179.13842 275.03333 185.1461 275.14494 192.65652 275.82436 C 203.3903 276.72918 207.02045 277.75425 209.32607 280.07488 Z" fill="#ff0000"/>
        </g>
        <g id="Graphic_16">
          <path d="M 152.48762 296.61472 L 160.8546 298.2795 L 150.0457 298.44913 C 144.17003 298.65524 136.43099 299.03953 133.03268 299.1104 C 128.07797 299.3809 128.55992 299.1061 135.43167 297.88995 C 142.77463 296.5525 143.10309 296.26698 137.8414 296.51602 C 134.44309 296.58687 128.2497 296.925 123.90897 297.23845 C 114.14232 297.9437 115.82751 295.90212 125.92262 294.91136 C 135.08603 294.0097 141.68622 294.47122 152.48762 296.61472 Z" fill="#ff0000"/>
        </g>
        <g id="Graphic_15">
          <path d="M 236.0511 308.16506 C 236.3044 308.954 234.40883 309.59265 231.81019 309.2567 C 227.66588 308.9669 227.52312 308.80267 229.9543 307.12175 C 232.85672 305.31954 235.45536 305.6555 236.0511 308.16506 Z" fill="#ff0000"/>
        </g>
        <g id="Graphic_14">
          <path d="M 294.62848 310.873 C 293.0721 311.07265 290.6162 310.9009 289.25623 310.49733 C 287.7535 309.92952 289.0029 309.7084 291.91927 309.91233 C 294.83564 310.11626 296.0421 310.5091 294.62848 310.873 Z" fill="#ff0000"/>
        </g>
        <g id="Graphic_13">
          <path d="M 126.01817 300.1623 C 125.9967 300.4693 124.26534 300.9652 122.09498 301.12193 C 119.91388 301.43214 118.24692 301.0071 118.28985 300.3931 C 118.34352 299.62565 120.07488 299.12975 122.22378 299.28 C 124.37268 299.43028 126.03963 299.85533 126.01817 300.1623 Z" fill="#ff0000"/>
        </g>
        <g id="Graphic_12">
          <path d="M 140.8855 301.51043 C 140.39283 301.9387 139.00066 301.9956 137.95841 301.46 C 136.76267 300.91365 137.25535 300.48537 138.94377 300.60343 C 140.64292 300.568 141.53168 301.0929 140.8855 301.51043 Z" fill="#ff0000"/>
        </g>
        <g id="Graphic_11">
          <path d="M 251.01398 314.76413 C 250.47837 315.80638 250.22505 315.01745 250.37532 312.86854 C 250.52558 310.71964 250.88624 309.97365 251.28232 310.9268 C 251.51417 312.02272 251.38537 313.86463 251.01398 314.76413 Z" fill="#ff0000"/>
        </g>
        <g id="Graphic_10">
          <path d="M 157.1944 306.50694 C 159.71792 307.91735 159.41093 307.8959 156.07702 307.0458 C 153.80683 306.4243 148.8736 306.38783 145.28959 306.90843 C 136.24747 308.2813 117.74246 308.22125 117.84979 306.68633 C 118.07519 303.46298 151.55488 303.3362 157.1944 306.50694 Z" fill="#ff0000"/>
        </g>
        <g id="Graphic_9">
          <path d="M 220.48714 310.1616 C 219.99446 310.58986 218.6023 310.64676 217.56004 310.11115 C 216.3643 309.5648 216.85698 309.13652 218.5454 309.2546 C 220.24455 309.21916 221.1333 309.74404 220.48714 310.1616 Z" fill="#ff0000"/>
        </g>
        <g id="Graphic_8">
          <path d="M 270.13232 116.35578 C 270.025 117.8907 270.4565 120.54302 271.1059 122.2851 C 271.99788 124.96962 272.32633 124.6841 272.61613 120.53979 C 272.9521 117.94115 272.5313 115.13534 271.64256 114.61046 C 270.9073 114.09632 270.08616 114.81012 270.13232 116.35578 Z M 274.23805 134.8436 C 274.0835 141.46526 274.7179 147.8336 275.57445 148.81896 C 277.15554 150.47195 277.1523 148.31232 275.17402 130.28175 C 274.41834 123.4422 274.3754 124.05617 274.23805 134.8436 Z M 263.12216 134.99176 C 261.40477 137.49381 266.15877 142.2993 268.45793 140.30067 C 269.60752 139.30135 270.0433 137.4809 269.6687 136.22076 C 268.78744 133.38275 264.82882 132.64321 263.12216 134.99176 Z M 257.68123 140.00982 C 257.56317 141.69824 257.99145 142.19092 258.5378 140.99517 C 259.0734 139.95292 259.0165 138.56075 258.58823 138.06808 C 258.17068 137.4219 257.6458 138.31066 257.68123 140.00982 Z M 253.1355 149.87202 C 253.76562 160.71312 254.49015 161.38075 255.17708 151.55721 C 255.4776 147.25941 254.9892 143.21493 254.25395 142.70078 C 253.07967 141.84745 252.76518 144.13911 253.1355 149.87202 Z M 261.8524 150.94429 C 261.61628 154.32113 261.8374 155.57054 262.2839 153.5966 C 262.7197 151.77615 262.9129 149.01328 262.71325 147.45689 C 262.34937 146.04325 261.93505 147.55671 261.8524 150.94429 Z M 267.67763 153.66528 C 266.95205 159.63004 267.29446 161.35066 269.13638 161.47946 C 271.59226 161.65119 272.91786 153.72323 271.4194 148.68265 C 270.04225 144.1133 268.6855 145.86934 267.67763 153.66528 Z M 275.1022 155.57265 C 274.6589 159.70622 275.0657 160.50589 276.54374 159.22105 C 277.85755 158.07897 277.95415 156.69754 276.90867 154.0023 C 275.60987 150.51811 275.44565 150.66087 275.1022 155.57265 Z M 258.29955 157.6368 C 258.03122 161.47413 258.23088 163.03052 258.6774 161.05658 C 259.11318 159.23613 259.32784 156.16627 259.1604 154.1494 C 258.9822 152.28602 258.5679 153.79948 258.29955 157.6368 Z M 262.53618 161.01793 C 262.38592 163.16683 262.63924 163.95576 263.17485 162.9135 C 263.54623 162.01402 263.67503 160.1721 263.44318 159.07619 C 263.0471 158.12303 262.68645 158.86903 262.53618 161.01793 Z M 254.5363 162.92642 C 254.41825 164.61484 254.84653 165.10752 255.39287 163.91177 C 255.92848 162.86952 255.8716 161.47735 255.4433 160.98467 C 255.02576 160.3385 254.5009 161.22726 254.5363 162.92642 Z M 275.81065 167.49893 C 275.6926 169.18735 276.12086 169.68003 276.6672 168.48429 C 277.20282 167.44204 277.14593 166.04987 276.71765 165.55719 C 276.3001 164.91102 275.77522 165.79978 275.81065 167.49893 Z M 254.10698 169.06613 C 253.98892 170.75455 254.4172 171.24723 254.96354 170.05149 C 255.49915 169.00924 255.44226 167.61707 255.01398 167.1244 C 254.59643 166.47822 254.07156 167.36698 254.10698 169.06613 Z M 264.65506 170.4207 C 264.59066 171.34166 265.17243 171.84507 265.9721 171.43825 C 266.7825 170.87795 267.0036 172.12736 266.42507 173.78358 C 265.63936 176.19653 265.9034 176.83197 267.47054 176.47883 C 270.61553 175.61904 270.53072 170.2146 267.5038 169.38595 C 265.99033 168.97164 264.71946 169.49974 264.65506 170.4207 Z M 275.87295 179.84276 C 275.40496 182.12369 275.2794 186.12524 275.8644 188.78828 C 277.12348 195.04606 276.9657 199.5081 275.19893 198.30484 C 274.46366 197.7907 273.67796 200.20365 273.4311 203.73398 C 273.04147 207.1001 272.18063 210.5875 271.3595 211.3013 C 270.53837 212.0151 270.2593 216.0059 270.70477 220.66436 C 271.1717 225.01583 271.33488 231.50546 271.25224 234.89304 L 270.9764 241.0435 L 272.11953 235.7249 C 273.209 231.17378 273.44085 232.2697 274.2459 242.81455 L 275.38266 255.2335 L 275.9558 242.62563 C 276.46777 233.09834 276.2327 229.84279 274.54427 229.72472 C 273.31633 229.63885 272.92025 228.6857 273.63082 227.3472 C 274.17716 226.15145 273.9453 225.05553 273.17784 225.00187 C 272.2569 224.93747 271.8683 221.67118 272.14738 217.68037 C 272.72698 209.39175 275.1292 210.33095 275.60258 219.00168 C 275.70564 221.93952 276.2745 213.8044 276.87984 200.73603 C 277.4852 187.66767 277.78677 176.73748 277.50125 176.40902 C 277.21573 176.08057 276.49442 177.57257 275.87295 179.84276 Z M 265.5192 191.14974 C 265.6362 196.09371 266.63125 201.71606 267.74112 203.49035 C 269.40057 206.22852 269.85032 206.41422 269.98985 204.4188 C 270.08645 203.03737 269.59054 201.30602 268.7018 200.78114 C 267.96652 200.267 267.28492 198.98539 267.3386 198.21792 C 267.403 197.29696 268.33468 197.20787 269.3662 197.89698 C 270.68323 198.91453 270.69397 198.76104 269.44133 196.82253 C 268.46348 195.36596 267.18615 191.5748 266.50132 188.13355 C 265.5063 182.5112 265.48482 182.8182 265.5192 191.14974 Z M 277.95864 218.39522 C 277.14397 223.42829 276.81123 228.18656 277.3608 229.15045 C 277.76762 229.95012 278.53403 236.63618 279.10402 243.92548 L 280.0336 257.10117 L 280.02498 243.98988 C 280.06896 236.7435 280.05282 225.94534 279.84672 220.06968 L 279.5236 209.25005 L 277.95864 218.39522 Z M 271.87484 248.04727 C 271.72457 250.19617 271.9779 250.9851 272.5135 249.94285 C 272.8849 249.04336 273.0137 247.20144 272.78184 246.10552 C 272.38576 245.15237 272.0251 245.89837 271.87484 248.04727 Z M 279.7932 264.95077 C 279.6569 269.1058 279.91666 274.214 280.53386 276.41658 C 281.1296 278.92613 281.46555 276.3275 281.32384 269.53087 C 281.14025 256.71582 280.39103 254.19554 279.7932 264.95077 Z M 274.82453 263.21514 C 275.3666 266.49216 275.6521 266.8206 276.26286 264.7039 C 276.67718 263.19045 276.499 261.32707 275.64243 260.3417 C 274.78587 259.35635 274.56798 260.26658 274.82453 263.21514 Z M 266.0078 261.36467 C 265.95414 262.13213 266.79997 263.27098 267.85295 263.6531 C 269.19145 264.36367 268.99503 264.9669 267.22074 266.0768 C 265.12873 267.3187 265.10726 267.62568 267.40966 267.78667 C 270.633 268.01207 272.15398 266.11327 271.15143 262.80405 C 270.41294 260.13027 266.1688 259.06227 266.0078 261.36467 Z M 276.31232 290.46602 L 276.41432 300.03624 L 277.4544 291.77983 C 278.08338 287.1965 278.07692 282.87724 277.3524 282.2096 C 276.78135 281.5527 276.21677 285.21506 276.31232 290.46602 L 276.31232 290.46602 Z M 279.71813 288.08204 C 279.60007 289.77046 280.02835 290.26314 280.5747 289.0674 C 281.1103 288.02515 281.0534 286.63298 280.62513 286.1403 C 280.2076 285.49413 279.6827 286.3829 279.71813 288.08204 Z M 268.14717 299.14966 C 266.30848 301.1805 266.26555 301.79447 268.51428 302.72293 C 271.79452 304.3405 274.34378 300.97116 272.60597 297.1478 C 271.27497 294.1241 269.62948 293.39207 267.81226 295.1159 C 265.85228 296.67554 266.4802 298.7246 268.55075 297.7897 C 269.83236 297.1081 269.8109 297.41508 268.14717 299.14966 Z M 275.3678 303.9734 C 275.24972 305.6618 275.78856 306.7792 276.75245 306.22963 C 277.5521 305.8228 277.9557 304.46284 277.4276 303.19197 C 276.57854 299.8935 275.63612 300.13607 275.3678 303.9734 Z M 255.2946 310.8989 C 254.9404 315.96415 255.1186 317.82753 255.61877 315.08612 C 256.11895 312.3447 256.40875 308.2004 256.26277 305.87655 C 256.11678 303.5527 255.6488 305.8336 255.2946 310.8989 Z M 104.17544 120.63801 C 104.24952 126.19596 104.53077 130.99717 104.81628 131.32562 C 105.80487 132.6287 106.02486 118.45369 105.06525 114.5305 C 104.45879 112.17444 104.13356 114.61959 104.17544 120.63801 Z M 92.56905 130.00648 C 90.91929 133.7472 91.2048 134.07566 94.11794 132.11996 C 96.54914 130.43904 96.70263 130.44977 95.62067 132.68777 C 95.05286 134.1905 95.12049 135.42917 95.88795 135.48284 C 98.03685 135.6331 99.29377 133.09886 98.40178 130.41435 C 97.39924 127.10513 94.0224 126.869 92.56905 130.00648 Z M 87.29663 130.40902 C 87.04654 131.77972 86.1857 135.26712 85.53202 137.9978 C 84.48549 141.93494 84.58532 142.71314 86.05262 141.5818 C 87.20221 140.58248 88.04158 137.40206 87.81723 133.99302 C 87.74637 130.59471 87.54672 129.03831 87.29663 130.40902 Z M 101.95148 143.61901 C 101.68315 147.45634 101.8828 149.01273 102.32932 147.03879 C 102.76511 145.21834 102.97977 142.14848 102.81232 140.13161 C 102.63413 138.26823 102.21981 139.78169 101.95148 143.61901 Z M 88.54394 143.45268 C 86.88343 147.3469 87.12602 148.28932 89.1826 145.34826 C 90.21089 143.87774 90.78944 142.22151 90.35042 141.88233 C 90.07564 141.40038 89.25451 142.11418 88.54394 143.45268 Z M 84.48444 148.56734 C 84.28051 151.4837 84.50163 152.73311 85.06944 151.23038 C 85.47303 149.87041 85.64476 147.41453 85.4451 145.85813 C 85.08123 144.4445 84.68837 145.65097 84.48444 148.56734 Z M 86.96825 152.75135 C 84.62938 157.52359 84.53278 158.90503 86.47452 159.81202 C 88.2735 160.5548 85.13068 170.2066 82.72096 171.58053 C 81.7678 171.97661 81.68194 173.20456 82.21004 174.47543 C 83.0344 175.92127 84.55537 174.02246 87.28709 168.04374 C 90.20451 161.61528 90.84745 159.0381 89.53042 158.02055 C 88.4989 157.33144 88.33145 155.31457 89.11715 152.90162 C 90.69929 147.92222 89.17509 147.66139 86.96825 152.75135 Z M 102.03742 164.44788 C 101.68322 169.51315 101.86141 171.37653 102.36159 168.63513 C 102.86178 165.89372 103.15158 161.74941 103.00559 159.42555 C 102.8596 157.1017 102.39162 159.38262 102.03742 164.44788 Z M 81.66152 166.87915 C 81.51126 169.02805 81.76457 169.81698 82.30019 168.77473 C 82.67157 167.87524 82.80037 166.03332 82.56852 164.9374 C 82.17244 163.98425 81.81179 164.73025 81.66152 166.87915 Z M 91.42067 168.48704 C 90.5244 170.27528 90.95268 170.76796 92.84826 170.1293 C 94.73311 169.64412 95.17212 169.9833 94.28659 171.61807 C 93.1939 174.00955 95.44263 174.93802 96.98506 172.73222 C 98.51677 170.67992 96.81116 166.39608 94.50876 166.23508 C 93.43431 166.15995 91.97774 167.1378 91.42067 168.48704 Z M 86.29318 177.84582 C 84.24305 185.10615 83.91355 192.02406 85.66637 191.22117 C 86.47677 190.66086 87.35479 191.33923 87.75087 192.2924 C 87.98272 193.3883 88.88221 193.7597 89.69261 193.1994 C 90.51374 192.4856 89.98563 191.21471 88.50437 190.33992 C 87.03384 189.31163 86.12039 186.9341 86.44562 184.48895 L 86.88891 180.35537 L 87.84852 184.27856 C 88.81886 188.04826 88.81886 188.04826 89.13013 183.59696 C 89.31259 180.98759 89.08825 177.57854 88.59234 175.84719 C 87.68962 173.31617 87.36117 173.60169 86.29318 177.84582 Z M 97.7279 192.99005 C 97.73331 203.94172 98.43637 204.91634 99.25533 195.41051 C 99.58806 190.65223 99.56014 186.63995 98.79267 186.58629 C 98.1787 186.54335 97.66778 189.43825 97.7279 192.99005 Z M 92.2204 190.13704 C 92.10234 191.82546 92.53061 192.31814 93.07696 191.1224 C 93.61257 190.08014 93.55568 188.68797 93.1274 188.1953 C 92.70985 187.54913 92.18497 188.43788 92.2204 190.13704 Z M 81.26446 194.6152 C 81.1142 196.7641 81.36752 197.55303 81.90313 196.51078 C 82.27451 195.6113 82.40331 193.76938 82.17146 192.67346 C 81.77538 191.7203 81.41473 192.4663 81.26446 194.6152 Z M 87.928 200.78817 C 88.0622 209.89791 88.78674 210.56555 89.50909 202.44116 C 89.94165 198.46108 89.55308 195.1948 88.93911 195.15186 C 88.32513 195.10893 87.83568 197.69684 87.928 200.78817 Z M 91.68697 199.97132 C 91.5367 202.12022 91.79002 202.90915 92.32563 201.8669 C 92.69702 200.9674 92.82581 199.1255 92.59396 198.02957 C 92.19788 197.07642 91.83723 197.82241 91.68697 199.97132 Z M 92.07989 220.82165 C 91.43589 230.03123 91.33179 233.7258 91.98224 228.83548 C 92.63269 223.94518 93.15862 216.42403 93.1629 211.95127 C 93.16718 207.4785 92.73462 211.45859 92.07989 220.82165 Z M 92.91617 259.59523 C 90.78123 261.4511 91.56266 263.5109 93.92945 262.75095 C 95.34309 262.38708 96.23185 262.91195 96.13525 264.2934 C 96.04938 265.52133 96.74171 266.64945 97.66267 266.71385 C 100.11855 266.88558 99.05589 260.02456 96.48944 259.22812 C 95.11874 258.97803 93.57308 259.0242 92.91617 259.59523 Z M 106.38061 261.15373 C 106.78743 261.9534 107.50123 262.77452 107.9617 262.80672 C 108.26869 262.8282 108.62934 262.0822 108.68301 261.31473 C 108.74741 260.39377 108.02288 259.72613 107.10192 259.66173 C 106.33445 259.60807 105.98454 260.20057 106.38061 261.15373 Z M 102.47461 266.2791 C 102.35655 267.96754 102.75585 271.08033 103.21956 273.27216 L 104.17917 277.19535 L 104.4475 273.35803 C 104.59777 271.20913 104.35196 268.10707 103.70256 266.36498 L 102.53579 263.19852 L 102.47461 266.2791 Z M 106.91517 266.74387 C 106.79711 268.4323 107.22539 268.92497 107.77173 267.72923 C 108.30734 266.68698 108.25045 265.2948 107.82217 264.80213 C 107.40463 264.15596 106.87975 265.04472 106.91517 266.74387 Z M 95.46873 280.44234 C 95.14673 285.04713 95.31419 287.064 95.7929 284.62958 C 96.26089 282.34866 96.51849 278.66483 96.38323 276.18747 C 96.23725 273.8636 95.79073 275.83756 95.46873 280.44234 Z M 98.44627 277.56568 C 98.4495 279.7253 98.80587 283.45208 99.23737 286.1044 C 100.00056 290.6308 100.15405 290.64155 100.72614 284.66606 C 100.96228 281.28922 100.61664 277.40896 99.93504 276.12735 C 98.83589 274.19957 98.66093 274.49583 98.44627 277.56568 Z M 106.79073 286.16984 C 107.10417 290.51058 107.40042 290.68554 108.07556 287.64788 C 108.52208 285.67394 108.36536 283.50357 107.65156 282.68244 C 106.795 281.69708 106.54491 283.0678 106.79073 286.16984 Z M 96.61944 294.86745 C 93.11702 298.63286 93.04189 299.7073 95.87239 301.1392 C 97.36438 301.8605 98.97445 300.89337 100.22063 298.51262 C 103.05218 293.3121 100.46104 290.663 96.61944 294.86745 Z M 106.62867 295.10463 C 106.47841 297.25353 106.72422 300.3556 107.37362 302.09767 L 108.54039 305.26413 L 108.60156 302.18354 C 108.71963 300.49512 108.32032 297.38233 107.85662 295.1905 L 106.89701 291.2673 L 106.62867 295.10463 Z M 295.24623 152.04547 C 292.29767 152.30201 289.17414 152.85481 288.353 153.56861 C 286.71075 154.9962 299.54726 154.50563 302.8994 152.88912 C 305.6054 151.69014 305.4519 151.67941 295.24623 152.04547 Z M 224.6985 135.23554 C 223.33103 137.14509 225.32643 137.28462 228.53582 135.50388 C 230.6171 134.41547 230.63856 134.10848 228.33617 133.94748 C 226.95474 133.85088 225.22338 134.34679 224.6985 135.23554 Z M 195.45972 134.27067 C 180.04603 134.1183 171.50733 134.90941 171.41073 136.29085 C 171.34633 137.2118 171.93883 137.56172 172.74923 137.00142 C 173.5489 136.5946 181.73768 136.396 190.9902 136.42603 C 200.07847 136.59881 210.73388 136.41845 214.61413 136.07281 C 221.45369 135.31713 221.45369 135.31713 212.38687 134.83736 C 207.3216 134.48316 199.779 134.26422 195.45972 134.27067 Z M 209.82688 138.3602 C 204.27967 138.28078 199.31423 138.70478 198.65733 139.27582 C 198.00042 139.84686 202.43025 140.4651 208.59143 140.58745 C 214.75261 140.7098 220.34276 140.17524 221.31738 139.47217 C 222.30274 138.61562 222.3242 138.30863 221.3925 138.39772 C 220.46082 138.48682 215.3741 138.4396 209.82688 138.3602 Z M 173.74 147.09652 L 173.74 147.09652 C 176.14972 145.72259 193.54808 146.16799 191.90582 147.59558 C 191.41314 148.02386 186.6012 148.4586 181.19674 148.5434 C 174.25736 148.52089 171.97644 148.0529 173.74 147.09652 Z M 161.90603 150.89631 C 161.39188 151.63158 161.95219 152.44197 163.18013 152.52784 C 164.56156 152.62444 165.68968 151.9321 165.74335 151.16464 C 165.80775 150.24369 165.2367 149.58678 164.46924 149.53312 C 163.54829 149.46872 162.4309 150.00755 161.90603 150.89631 Z M 170.07335 151.0047 C 171.8938 151.44048 174.65667 151.63368 176.21306 151.43403 C 177.6267 151.07015 176.11324 150.65583 172.72566 150.57319 C 169.34882 150.33706 168.0994 150.55818 170.07335 151.0047 Z M 151.54687 151.25163 C 152.58912 151.78724 153.98129 151.73035 154.47397 151.30207 C 155.12014 150.88453 154.23138 150.35965 152.53223 150.39508 C 150.8438 150.27701 150.35113 150.70529 151.54687 151.25163 Z M 206.31163 155.54389 C 205.79748 156.27915 206.0508 157.06808 206.81827 157.12175 C 207.73922 157.18615 208.56035 156.47235 208.61402 155.70489 C 208.67842 154.78393 208.41437 154.1485 208.10738 154.12703 C 207.6469 154.09483 206.8365 154.65513 206.31163 155.54389 Z M 184.87952 155.4334 C 184.36537 156.16866 187.271 156.52609 191.28329 156.49817 C 201.94943 156.16431 202.75983 155.604 193.71448 154.81725 C 189.42741 154.36323 185.39366 154.69814 184.87952 155.4334 Z M 164.45746 156.319 C 162.68317 157.42888 159.52745 158.44216 157.51057 158.60961 C 155.35094 158.61284 162.08316 159.39209 172.36718 160.11122 C 190.63284 161.38847 194.44546 159.80416 177.60418 158.00953 C 169.78678 157.30864 169.64402 157.14441 174.63092 156.41343 L 180.0783 155.71464 L 173.96006 154.97832 C 170.58321 154.7422 166.23175 155.20912 164.45746 156.319 Z M 215.2958 159.41124 C 209.86989 159.80304 210.47312 159.99946 219.058 160.75402 C 224.58374 161.14041 231.8301 161.1844 235.2606 160.65307 C 240.8615 159.96501 240.56523 159.79006 231.49842 159.31029 C 225.96194 159.07738 218.71558 159.0334 215.2958 159.41124 Z M 197.32212 162.7817 C 197.25772 163.70265 196.30457 164.09873 195.25158 163.71661 C 194.1986 163.3345 193.09195 163.71984 192.87406 164.63006 C 192.5134 165.37606 190.8926 166.49667 189.16125 166.99258 C 183.80296 168.62305 187.1723 171.17231 194.85768 171.55548 L 202.0933 171.75296 L 196.02873 170.24918 C 192.69482 169.39908 191.04933 168.66704 192.288 168.59941 C 193.51595 168.68528 195.6187 167.28988 196.8112 165.6766 C 198.00372 164.0633 199.94224 162.81067 201.32367 162.90727 C 203.0121 163.02533 203.56166 163.98922 202.79743 166.0952 C 202.21888 167.75141 202.42927 169.15432 203.35023 169.21872 C 204.1177 169.27238 204.21752 170.05058 203.53915 170.9286 C 202.68582 172.10288 203.43181 172.46353 206.08413 172.03203 C 208.11173 171.71108 211.30288 172.39696 213.22316 173.61094 C 216.0322 175.3498 212.78737 175.43139 193.95068 173.49722 C 181.53923 172.32084 170.24515 170.60562 168.76389 169.73083 C 165.07683 167.3136 161.9855 167.40592 164.1269 169.8693 C 164.98346 170.85467 170.42334 172.469 176.05964 173.4801 L 186.42202 175.28442 L 177.34448 174.95814 C 172.12572 174.59321 168.69521 175.12455 169.57324 175.80292 C 170.71531 177.11673 184.7261 177.47948 220.05843 177.32802 C 234.09068 177.3838 237.56413 176.23849 226.35915 175.45496 C 216.6891 174.77876 211.8385 171.3547 216.64721 168.76034 C 217.60037 168.36426 218.62866 166.89373 219.0215 165.68726 C 219.44656 164.0203 217.3406 163.25606 208.60224 162.49077 C 202.47325 161.90795 197.3758 162.01423 197.32212 162.7817 Z M 170.05728 162.26334 C 167.6905 163.0233 166.67293 164.34034 167.17957 165.9182 C 168.07156 168.60271 170.03477 169.20272 171.5772 166.99693 C 172.10208 166.10817 171.83803 165.47273 170.76358 165.3976 C 167.07975 165.14 170.72815 163.69845 177.4142 162.93203 C 183.94678 162.15489 184.111 162.01213 178.89224 161.6472 C 175.98661 161.28977 171.95286 161.62468 170.05728 162.26334 Z M 228.93415 167.30588 C 229.3195 168.41253 230.16532 169.55137 230.93278 169.60504 C 233.08169 169.7553 232.65018 167.103 230.41219 166.02104 C 228.9202 165.29973 228.4275 165.72801 228.93415 167.30588 Z M 225.04106 181.0698 C 226.0833 181.6054 227.47548 181.54851 227.96816 181.12023 C 228.61433 180.70269 227.72557 180.1778 226.02641 180.21324 C 224.338 180.09517 223.84531 180.52345 225.04106 181.0698 Z M 175.816 179.17008 C 176.85825 179.7057 178.25042 179.6488 178.7431 179.22052 C 179.38927 178.80297 178.50052 178.2781 176.80136 178.31352 C 175.11294 178.19545 174.62026 178.62373 175.816 179.17008 Z M 182.72318 179.65308 C 184.08315 180.05666 186.53904 180.2284 188.09543 180.02874 C 189.50907 179.66486 188.3026 179.272 185.38623 179.06808 C 182.46986 178.86414 181.22045 179.08526 182.72318 179.65308 Z M 227.89625 184.35432 C 229.7167 184.7901 232.47957 184.9833 234.03597 184.78365 C 235.4496 184.41977 233.93614 184.00545 230.54856 183.92281 C 227.17172 183.68668 225.9223 183.9078 227.89625 184.35432 Z M 176.80782 182.63279 C 176.3044 183.21456 177.66437 183.61814 179.69198 183.2972 C 181.86235 183.14048 183.5937 182.64457 183.61517 182.33759 C 183.70103 181.10964 177.67188 181.30502 176.80782 182.63279 Z M 187.1133 183.04493 C 188.47327 183.44852 190.62217 183.59878 191.7181 183.36693 C 192.67125 182.97085 191.61826 182.58873 189.00889 182.40627 C 186.553 182.23453 185.61058 182.47712 187.1133 183.04493 Z M 199.64605 184.69252 C 191.15028 184.86966 183.70749 185.42891 183.05058 185.99995 C 182.39368 186.57099 189.16883 186.73627 197.9716 186.5806 C 206.78509 186.27144 214.53486 185.73365 215.2025 185.00912 C 215.8594 184.43808 216.03437 184.14183 215.72738 184.12036 C 215.40966 184.25239 208.14183 184.51539 199.64605 184.69252 Z M 116.50216 138.46676 C 116.53758 140.16591 117.29754 142.5327 118.45035 143.69302 C 119.87795 145.33528 120.04218 145.19252 119.23928 143.4397 C 118.43639 141.68688 118.76485 141.40136 121.00284 142.48332 C 123.24083 143.56528 123.11954 143.09406 120.42857 139.66678 C 116.31001 134.59724 116.4635 134.60797 116.50216 138.46676 Z M 126.2216 142.84825 C 126.20013 143.15524 127.3422 144.46905 128.802 145.65083 C 130.96486 147.80723 131.12909 147.66448 129.30541 145.06906 C 127.48174 142.47364 126.30746 141.6203 126.2216 142.84825 Z M 115.85816 147.67633 C 115.34402 148.4116 115.23668 149.94653 115.78626 150.91042 C 116.31436 152.1813 117.09256 152.08147 118.11012 150.76443 C 119.30263 149.15114 119.60962 149.1726 119.50228 150.70754 C 119.42715 151.78199 120.16242 152.29613 120.96208 151.88932 C 121.91524 151.49324 122.63654 150.00124 122.72241 148.7733 C 122.89414 146.31741 117.4006 145.47054 115.85816 147.67633 Z M 130.36598 165.19486 C 128.23104 167.05074 129.06613 168.34308 132.18965 167.79028 C 134.84196 167.35878 135.12748 167.68723 134.04553 169.92522 C 132.9421 172.4702 133.08486 172.63443 135.68028 170.81075 C 138.43993 168.84432 138.45066 168.69082 135.98081 166.51295 C 133.07195 163.9959 131.85474 163.75653 130.36598 165.19486 Z M 161.67326 200.54642 C 169.52182 207.41922 170.27855 207.62638 166.17072 202.40334 C 163.75454 199.458 160.98844 197.10517 159.7605 197.0193 C 158.53255 196.93344 159.35691 198.37928 161.67326 200.54642 Z M 157.42485 203.95118 C 157.31752 205.4861 167.7744 219.17377 168.44203 218.44924 C 168.93471 218.02096 166.56147 214.46166 163.29946 210.37747 C 160.18022 206.4575 157.45705 203.4907 157.42485 203.95118 Z M 173.1477 212.91705 C 171.17699 214.63016 171.89401 217.61093 174.7567 218.58232 C 176.8734 219.19307 177.36609 218.7648 177.05588 216.58369 C 176.37105 213.14244 174.77923 211.64294 173.1477 212.91705 Z M 183.92658 221.99992 C 185.9574 223.8386 188.877 226.20218 190.50102 227.2412 C 193.0138 228.8051 193.03527 228.49811 190.20154 224.9066 C 188.3564 222.61817 185.4368 220.2546 183.6271 219.66533 C 180.6109 218.6832 180.60017 218.8367 183.92658 221.99992 Z M 190.13827 241.25198 C 193.70726 245.35764 196.86944 248.66363 197.20862 248.22462 C 197.69057 247.94983 199.62158 249.01032 201.49892 250.83827 C 204.25428 253.3446 205.92124 253.76965 208.156 252.69197 C 211.81514 251.09692 212.10816 249.11225 208.97068 247.6589 C 204.9337 245.83418 203.52007 246.19806 204.40132 249.03606 C 204.75447 250.6032 202.97695 249.55344 200.26452 246.43314 C 197.54135 243.46634 194.18275 240.76358 192.97627 240.37073 C 191.60557 240.12064 189.10352 238.40325 187.21545 236.72878 C 185.3381 234.90083 186.7335 237.00357 190.13827 241.25198 Z M 192.75193 236.9617 C 194.34375 238.4612 196.7245 239.70737 197.96318 239.63975 C 200.11208 239.79 200.1228 239.63652 198.18107 238.72952 C 196.98533 238.18318 194.60457 236.937 192.96982 236.05147 C 189.99656 234.45536 189.99656 234.45536 192.75193 236.9617 Z M 216.9502 261.48182 C 214.3226 263.76598 214.37948 265.15815 217.22071 266.43653 C 220.80794 268.07556 224.5744 264.9456 222.60798 262.18594 C 220.64154 259.4263 219.4136 259.34043 216.9502 261.48182 Z M 66.38512 133.88253 C 68.1519 135.08578 69.12975 136.54235 68.62634 137.12412 C 67.969435 137.69516 68.7047 138.2093 70.23963 138.31664 C 72.84901 138.4991 72.85974 138.34561 70.45429 135.24678 C 69.03743 133.45102 66.83164 131.90859 65.4502 131.81199 C 63.75105 131.84742 64.02583 132.32936 66.38512 133.88253 Z M 67.507905 144.29535 C 67.45424 145.06282 68.01454 145.87321 68.78201 145.92688 C 69.702965 145.99128 70.83108 145.29895 71.34523 144.56368 C 71.870105 143.67493 71.29907 143.01802 70.07112 142.93216 C 68.68969 142.83556 67.572304 143.3744 67.507905 144.29535 Z M 64.94686 154.45058 C 65.98911 154.98619 67.38128 154.9293 67.87396 154.50102 C 68.52013 154.08347 67.63137 153.5586 65.93222 153.59402 C 64.2438 153.47595 63.75112 153.90423 64.94686 154.45058 Z M 58.561404 172.976 C 57.8723 174.00752 58.93602 174.23615 61.895314 173.8261 C 67.82464 172.85253 68.49228 172.128 63.58051 171.78454 C 61.43161 171.63427 59.07555 172.24074 58.561404 172.976 Z M 58.02474 180.65065 C 56.657265 182.56019 60.1876 182.80705 63.39699 181.02631 C 65.32477 179.92717 65.192746 179.60945 62.429874 179.41625 C 60.58796 179.28745 58.54962 179.76189 58.02474 180.65065 Z M 296.72792 285.26115 C 296.67426 286.0286 295.54614 286.72095 294.0112 286.6136 C 289.8669 286.3238 292.23692 287.7235 298.15874 289.06305 C 304.23406 290.41333 309.514 287.69767 305.8484 284.97346 C 304.6634 284.27362 304.49916 284.41638 305.038 285.53376 C 305.57684 286.65114 305.0627 287.3864 303.68126 287.2898 C 302.29983 287.1932 301.27904 286.3506 301.3327 285.58315 C 301.3971 284.6622 300.3656 283.9731 299.13765 283.88722 C 297.9097 283.80135 296.79232 284.3402 296.72792 285.26115 Z M 161.45446 252.20266 C 162.35395 252.57405 164.19587 252.70285 165.29178 252.471 C 166.24494 252.07492 165.49894 251.71427 163.35004 251.564 C 161.20114 251.41373 160.41221 251.66705 161.45446 252.20266 Z M 56.581295 256.43747 C 56.53836 257.05145 60.18999 257.76952 64.641285 258.0808 C 72.94063 258.5069 72.2161 257.83925 62.45696 256.23137 C 59.255074 255.69898 56.62423 255.8235 56.581295 256.43747 Z M 56.0661 263.80513 C 56.01243 264.5726 57.3402 265.43666 59.02862 265.55473 C 60.717045 265.6728 62.15215 265.00193 62.20581 264.23446 C 62.27021 263.3135 60.93171 262.60294 59.24329 262.48487 C 57.55487 262.3668 56.1305 262.88418 56.0661 263.80513 Z M 63.75688 275.13996 C 59.383944 275.91388 59.526704 276.0781 65.655686 276.66093 C 69.18602 276.9078 72.14532 276.49776 72.19899 275.7303 C 72.31705 274.04187 70.62863 273.9238 63.75688 275.13996 Z M 54.01064 282.1706 C 54.417454 282.97028 55.777423 283.37386 57.0483 282.84576 C 60.34678 281.9967 60.1042 281.05428 56.266875 280.78595 C 54.57845 280.6679 53.46107 281.20672 54.01064 282.1706 Z M 68.71593 292.4535 C 65.7137 293.47752 65.70297 293.631 69.07981 293.86715 C 70.91099 294.14944 72.49959 293.4893 72.553256 292.72184 C 72.617655 291.8009 72.507095 291.17618 72.34287 291.31894 C 72.03588 291.29747 70.45802 291.8041 68.71593 292.4535 Z M 66.47689 298.00395 C 67.83686 298.40753 70.29274 298.57927 71.84914 298.3796 C 73.262775 298.01573 72.0563 297.6229 69.13993 297.41895 C 66.22357 297.21502 64.97416 297.43614 66.47689 298.00395 Z M 131.98495 265.5663 C 134.26588 266.03428 137.94971 266.29188 140.42706 266.15663 C 142.75092 266.01064 140.77698 265.56412 136.1722 265.24212 C 131.5674 264.92013 129.55053 265.08758 131.98495 265.5663 Z M 140.10506 270.7614 C 141.92551 271.1972 144.99537 271.41186 147.01224 271.2444 C 148.87562 271.06622 147.36216 270.6519 143.52484 270.38357 C 139.68752 270.11524 138.13112 270.3149 140.10506 270.7614 Z M 119.88911 277.52268 C 122.81944 279.73275 126.96374 280.02255 128.33122 278.113 C 129.00959 277.235 127.05712 276.48148 123.52678 276.2346 C 119.22898 275.93408 118.27582 276.33016 119.88911 277.52268 Z M 147.49636 279.76165 C 147.4427 280.52912 148.48495 281.06473 149.75582 280.53662 C 151.01597 280.162 152.06895 280.54413 152.02602 281.1581 C 151.97235 281.92556 155.76674 282.80787 160.52502 283.1406 C 170.97327 283.71697 168.49269 281.6926 156.45262 279.61672 C 150.81631 278.6056 147.5715 278.6872 147.49636 279.76165 Z M 139.35373 281.5059 C 140.39599 282.04153 141.78815 281.98463 142.28083 281.55635 C 142.927 281.1388 142.03825 280.61393 140.33909 280.64936 C 138.65067 280.5313 138.15799 280.95957 139.35373 281.5059 Z M 148.62343 285.7017 C 148.56976 286.46918 150.35801 287.36544 152.82463 287.38368 C 156.50846 287.64128 156.67268 287.49852 153.99568 286.07738 C 149.98017 283.94567 148.75223 283.8598 148.62343 285.7017 Z M 168.5775 287.09704 C 168.52384 287.8645 169.54462 288.7071 170.77256 288.79297 C 172.0005 288.87883 173.12862 288.1865 173.18229 287.41904 C 173.24669 286.49808 172.21517 285.80898 170.98723 285.7231 C 169.75929 285.63724 168.6419 286.17608 168.5775 287.09704 Z M 199.66142 290.35034 C 201.94235 290.81833 205.62618 291.07593 208.10353 290.94067 C 210.4274 290.7947 208.45345 290.34817 203.84866 290.02617 C 199.24388 289.70417 197.227 289.87162 199.66142 290.35034 Z" fill="#cccccc"/>
        </g>
        <g id="Graphic_7">
          <path d="M 269.69023 157.97059 C 269.1224 159.47332 268.87983 158.5309 269.05156 156.075 C 269.23403 153.46563 269.61615 152.41264 270.01223 153.3658 C 270.24408 154.46172 270.0938 156.61062 269.69023 157.97059 Z" fill="#ff0000"/>
        </g>
        <g id="Graphic_6">
          <path d="M 213.48826 167.61398 C 212.0564 170.44448 206.05943 170.17938 206.2741 167.10952 C 206.4673 164.34665 210.47958 164.31873 211.37156 167.00324 C 211.7569 168.10989 212.24959 167.68161 212.35692 166.14668 C 212.62848 164.469 213.15336 163.58024 213.5709 164.2264 C 214.15267 164.72982 214.04534 166.26475 213.48826 167.61398 Z" fill="#ff0000"/>
        </g>
        <g id="Graphic_5">
          <path d="M 194.89977 243.74435 C 196.72345 246.33977 196.55922 246.48253 194.39636 244.32612 C 192.93657 243.14434 191.7945 241.83053 191.81596 241.52354 C 191.90182 240.2956 193.0761 241.14893 194.89977 243.74435 Z" fill="#ff0000"/>
        </g>
        <g id="Graphic_4">
          <path d="M 208.83115 249.65432 C 209.23796 250.45398 208.5596 251.332 207.29945 251.70662 C 205.87508 252.224 205.4468 251.7313 206.1681 250.2393 C 207.2608 247.84783 207.8855 247.73727 208.83115 249.65432 Z" fill="#ff0000"/>
        </g>
      </g>
    </g>
  </g>
</svg>
