<?xml version="1.0" encoding="utf-8"?>
<svg xmlns:xl="http://www.w3.org/1999/xlink" xmlns="http://www.w3.org/2000/svg"
     xmlns:dc="http://purl.org/dc/elements/1.1/"
     xmlns:xlink="http://www.w3.org/1999/xlink"
     version="1.1"
     viewBox="76.5 63 265.5 238.5"
     width="265.5"
     height="238.5"
     preserveAspectRatio="xMidYMid meet"
     zoomAndPan="magnify"
     contentScriptType="application/ecmascript"
     contentStyleType="text/css">
   <defs/>
   <metadata  xmlns:svg="http://www.w3.org/2000/svg"
             xmlns:rdf="http://www.w3.org/1999/02/22-rdf-syntax-ns#"
             xmlns:cc="http://creativecommons.org/ns#">
      <rdf:RDF>
         <cc:Work rdf:about="">
            <dc:creator>
               <cc:Agent>
                  <dc:title>http://heraldicart.org Lock Plate.svg</dc:title>
               </cc:Agent>
            </dc:creator>
         </cc:Work>
      </rdf:RDF>
   </metadata>
   <g fill-opacity="1" stroke-opacity="1" stroke="#505050" stroke-dasharray="none"
      fill="#ffff00">
      <title>Lock Plate</title>
      <g>
         <title>Art</title>
         <g>
            <g>
               <path d="M 309.5196 79.18642 C 309.35516 75.676295 307.93267 72.21412 305.25213 69.53359 C 299.5407 63.82215 290.2807 63.82215 284.56928 69.53359 C 278.85784 75.245 278.85784 84.50502 284.56928 90.21644 C 287.54718 93.19435 291.48978 94.6196 295.3911 94.49218 C 295.55553 98.0023 296.97802 101.46448 299.65856 104.14501 C 302.40045 106.88691 305.96018 108.3125 309.5525 108.42178 C 309.3624 112.39542 310.78465 116.43182 313.81928 119.46643 C 319.5307 125.17788 328.7907 125.17788 334.50212 119.46643 C 340.21357 113.75502 340.21357 104.495 334.50212 98.78359 C 331.76024 96.04168 328.2005 94.61609 324.6082 94.50681 C 324.6084 94.50227 324.6086 94.49773 324.60883 94.49319 C 328.20093 94.38376 331.7604 92.95817 334.50212 90.21644 C 340.21357 84.50502 340.21357 75.245 334.50212 69.53359 C 328.7907 63.82215 319.5307 63.82215 313.81928 69.53359 C 311.139 72.21386 309.71652 75.67563 309.55186 79.18541 C 309.5411 79.18573 309.53035 79.18607 309.5196 79.18642 Z"/>
               <path d="M 309.5196 79.18642 C 309.35516 75.676295 307.93267 72.21412 305.25213 69.53359 C 299.5407 63.82215 290.2807 63.82215 284.56928 69.53359 C 278.85784 75.245 278.85784 84.50502 284.56928 90.21644 C 287.54718 93.19435 291.48978 94.6196 295.3911 94.49218 C 295.55553 98.0023 296.97802 101.46448 299.65856 104.14501 C 302.40045 106.88691 305.96018 108.3125 309.5525 108.42178 C 309.3624 112.39542 310.78465 116.43182 313.81928 119.46643 C 319.5307 125.17788 328.7907 125.17788 334.50212 119.46643 C 340.21357 113.75502 340.21357 104.495 334.50212 98.78359 C 331.76024 96.04168 328.2005 94.61609 324.6082 94.50681 C 324.6084 94.50227 324.6086 94.49773 324.60883 94.49319 C 328.20093 94.38376 331.7604 92.95817 334.50212 90.21644 C 340.21357 84.50502 340.21357 75.245 334.50212 69.53359 C 328.7907 63.82215 319.5307 63.82215 313.81928 69.53359 C 311.139 72.21386 309.71652 75.67563 309.55186 79.18541 C 309.5411 79.18573 309.53035 79.18607 309.5196 79.18642 Z"
                     stroke="black"
                     stroke-linecap="round"
                     stroke-linejoin="round"
                     stroke-width="1.5"/>
            </g>
            <g>
               <path d="M 108.98041 79.18641 C 109.14484 75.67629 110.56733 72.21411 113.24787 69.53358 C 118.95929 63.82214 128.2193 63.82214 133.93072 69.53358 C 139.64216 75.24499 139.64216 84.50502 133.93072 90.21643 C 130.95282 93.19435 127.01022 94.61959 123.1089 94.49217 C 122.94447 98.00229 121.52198 101.46447 118.84144 104.145 C 116.09955 106.8869 112.53982 108.31249 108.9475 108.42178 C 109.13761 112.39541 107.71535 116.43182 104.68072 119.46643 C 98.96931 125.17787 89.70929 125.17787 83.99788 119.46643 C 78.28643 113.75501 78.28643 104.49499 83.99788 98.78358 C 86.73976 96.04168 90.29949 94.61609 93.89182 94.5068 C 93.8916 94.50226 93.89139 94.49772 93.89117 94.49318 C 90.29907 94.38375 86.7396 92.95817 83.99788 90.21643 C 78.28643 84.50502 78.28643 75.24499 83.99788 69.53358 C 89.70929 63.82214 98.96931 63.82214 104.68072 69.53358 C 107.36101 72.21385 108.78348 75.67562 108.94814 79.1854 C 108.9589 79.18572 108.96965 79.18606 108.98041 79.18641 Z"/>
               <path d="M 108.98041 79.18641 C 109.14484 75.67629 110.56733 72.21411 113.24787 69.53358 C 118.95929 63.82214 128.2193 63.82214 133.93072 69.53358 C 139.64216 75.24499 139.64216 84.50502 133.93072 90.21643 C 130.95282 93.19435 127.01022 94.61959 123.1089 94.49217 C 122.94447 98.00229 121.52198 101.46447 118.84144 104.145 C 116.09955 106.8869 112.53982 108.31249 108.9475 108.42178 C 109.13761 112.39541 107.71535 116.43182 104.68072 119.46643 C 98.96931 125.17787 89.70929 125.17787 83.99788 119.46643 C 78.28643 113.75501 78.28643 104.49499 83.99788 98.78358 C 86.73976 96.04168 90.29949 94.61609 93.89182 94.5068 C 93.8916 94.50226 93.89139 94.49772 93.89117 94.49318 C 90.29907 94.38375 86.7396 92.95817 83.99788 90.21643 C 78.28643 84.50502 78.28643 75.24499 83.99788 69.53358 C 89.70929 63.82214 98.96931 63.82214 104.68072 69.53358 C 107.36101 72.21385 108.78348 75.67562 108.94814 79.1854 C 108.9589 79.18572 108.96965 79.18606 108.98041 79.18641 Z"
                     stroke="black"
                     stroke-linecap="round"
                     stroke-linejoin="round"
                     stroke-width="1.5"/>
            </g>
            <g>
               <path d="M 309.5196 285.3136 C 309.35516 288.8237 307.93267 292.2859 305.25213 294.96642 C 299.5407 300.67786 290.2807 300.67786 284.56928 294.96642 C 278.85784 289.255 278.85784 279.995 284.56928 274.28357 C 287.54718 271.30565 291.48978 269.8804 295.3911 270.00783 C 295.55553 266.4977 296.97802 263.03553 299.65856 260.355 C 302.40045 257.6131 305.96018 256.1875 309.5525 256.07822 C 309.3624 252.1046 310.78465 248.06818 313.81928 245.03357 C 319.5307 239.32213 328.7907 239.32213 334.50212 245.03357 C 340.21357 250.745 340.21357 260.005 334.50212 265.71642 C 331.76024 268.45832 328.2005 269.8839 324.6082 269.9932 C 324.6084 269.99774 324.6086 270.00228 324.60883 270.00682 C 328.20093 270.11625 331.7604 271.54183 334.50212 274.28357 C 340.21357 279.995 340.21357 289.255 334.50212 294.96642 C 328.7907 300.67786 319.5307 300.67786 313.81928 294.96642 C 311.139 292.28615 309.71652 288.82438 309.55186 285.3146 C 309.5411 285.31428 309.53035 285.31394 309.5196 285.3136 Z"/>
               <path d="M 309.5196 285.3136 C 309.35516 288.8237 307.93267 292.2859 305.25213 294.96642 C 299.5407 300.67786 290.2807 300.67786 284.56928 294.96642 C 278.85784 289.255 278.85784 279.995 284.56928 274.28357 C 287.54718 271.30565 291.48978 269.8804 295.3911 270.00783 C 295.55553 266.4977 296.97802 263.03553 299.65856 260.355 C 302.40045 257.6131 305.96018 256.1875 309.5525 256.07822 C 309.3624 252.1046 310.78465 248.06818 313.81928 245.03357 C 319.5307 239.32213 328.7907 239.32213 334.50212 245.03357 C 340.21357 250.745 340.21357 260.005 334.50212 265.71642 C 331.76024 268.45832 328.2005 269.8839 324.6082 269.9932 C 324.6084 269.99774 324.6086 270.00228 324.60883 270.00682 C 328.20093 270.11625 331.7604 271.54183 334.50212 274.28357 C 340.21357 279.995 340.21357 289.255 334.50212 294.96642 C 328.7907 300.67786 319.5307 300.67786 313.81928 294.96642 C 311.139 292.28615 309.71652 288.82438 309.55186 285.3146 C 309.5411 285.31428 309.53035 285.31394 309.5196 285.3136 Z"
                     stroke="black"
                     stroke-linecap="round"
                     stroke-linejoin="round"
                     stroke-width="1.5"/>
            </g>
            <g>
               <path d="M 108.98041 285.31358 C 109.14484 288.8237 110.56733 292.2859 113.24787 294.9664 C 118.95929 300.67785 128.2193 300.67785 133.93072 294.9664 C 139.64216 289.255 139.64216 279.99498 133.93072 274.28356 C 130.95282 271.30565 127.01022 269.8804 123.1089 270.00782 C 122.94447 266.4977 121.52198 263.03552 118.84144 260.355 C 116.09955 257.6131 112.53982 256.1875 108.9475 256.07822 C 109.13761 252.10458 107.71535 248.06818 104.68072 245.03357 C 98.96931 239.32212 89.70929 239.32212 83.99788 245.03357 C 78.28643 250.74498 78.28643 260.005 83.99788 265.7164 C 86.73976 268.4583 90.29949 269.8839 93.89182 269.9932 C 93.8916 269.99773 93.89139 270.00227 93.89117 270.0068 C 90.29907 270.11624 86.7396 271.54183 83.99788 274.28356 C 78.28643 279.99498 78.28643 289.255 83.99788 294.9664 C 89.70929 300.67785 98.96931 300.67785 104.68072 294.9664 C 107.36101 292.28614 108.78348 288.82437 108.94814 285.3146 C 108.9589 285.31427 108.96965 285.31393 108.98041 285.31358 Z"/>
               <path d="M 108.98041 285.31358 C 109.14484 288.8237 110.56733 292.2859 113.24787 294.9664 C 118.95929 300.67785 128.2193 300.67785 133.93072 294.9664 C 139.64216 289.255 139.64216 279.99498 133.93072 274.28356 C 130.95282 271.30565 127.01022 269.8804 123.1089 270.00782 C 122.94447 266.4977 121.52198 263.03552 118.84144 260.355 C 116.09955 257.6131 112.53982 256.1875 108.9475 256.07822 C 109.13761 252.10458 107.71535 248.06818 104.68072 245.03357 C 98.96931 239.32212 89.70929 239.32212 83.99788 245.03357 C 78.28643 250.74498 78.28643 260.005 83.99788 265.7164 C 86.73976 268.4583 90.29949 269.8839 93.89182 269.9932 C 93.8916 269.99773 93.89139 270.00227 93.89117 270.0068 C 90.29907 270.11624 86.7396 271.54183 83.99788 274.28356 C 78.28643 279.99498 78.28643 289.255 83.99788 294.9664 C 89.70929 300.67785 98.96931 300.67785 104.68072 294.9664 C 107.36101 292.28614 108.78348 288.82437 108.94814 285.3146 C 108.9589 285.31427 108.96965 285.31393 108.98041 285.31358 Z"
                     stroke="black"
                     stroke-linecap="round"
                     stroke-linejoin="round"
                     stroke-width="1.5"/>
            </g>
            <g>
               <path d="M 309.5357 257.46428 L 309.5357 107.03573 L 310.9113 105.66012 C 314.37295 102.19848 314.37295 96.58605 310.9113 93.12441 L 310.9113 93.12441 L 310.9113 93.12441 C 309.6132 91.8263 308.01262 91.01497 306.33644 90.69044 C 305.49835 90.52818 304.64135 90.48761 303.7938 90.56875 C 301.8162 90.75805 299.89006 91.60994 298.3756 93.12441 L 297 94.5 L 121.5 94.5 L 120.1244 93.1244 C 116.66276 89.66276 111.05033 89.66276 107.58869 93.1244 L 107.58869 93.1244 C 105.91196 94.80114 105.04739 96.98249 104.995 99.1796 C 104.93922 101.51847 105.80378 103.87521 107.58869 105.66012 L 108.9643 107.03572 L 108.9643 257.46427 L 107.58869 258.83988 C 104.12705 262.30152 104.12705 267.91395 107.58869 271.3756 C 111.05033 274.83723 116.66276 274.83723 120.1244 271.3756 L 121.50001 269.99998 L 296.99998 269.99998 L 298.3756 271.3756 C 301.83724 274.83724 307.44967 274.83724 310.9113 271.3756 C 314.37295 267.91395 314.37295 262.30152 310.9113 258.83988 Z"/>
               <path d="M 309.5357 257.46428 L 309.5357 107.03573 L 310.9113 105.66012 C 314.37295 102.19848 314.37295 96.58605 310.9113 93.12441 L 310.9113 93.12441 L 310.9113 93.12441 C 309.6132 91.8263 308.01262 91.01497 306.33644 90.69044 C 305.49835 90.52818 304.64135 90.48761 303.7938 90.56875 C 301.8162 90.75805 299.89006 91.60994 298.3756 93.12441 L 297 94.5 L 121.5 94.5 L 120.1244 93.1244 C 116.66276 89.66276 111.05033 89.66276 107.58869 93.1244 L 107.58869 93.1244 C 105.91196 94.80114 105.04739 96.98249 104.995 99.1796 C 104.93922 101.51847 105.80378 103.87521 107.58869 105.66012 L 108.9643 107.03572 L 108.9643 257.46427 L 107.58869 258.83988 C 104.12705 262.30152 104.12705 267.91395 107.58869 271.3756 C 111.05033 274.83723 116.66276 274.83723 120.1244 271.3756 L 121.50001 269.99998 L 296.99998 269.99998 L 298.3756 271.3756 C 301.83724 274.83724 307.44967 274.83724 310.9113 271.3756 C 314.37295 267.91395 314.37295 262.30152 310.9113 258.83988 Z"
                     stroke="black"
                     stroke-linecap="round"
                     stroke-linejoin="round"
                     stroke-width="1.5"/>
            </g>
            <g>
               <rect x="138.21429" y="123.75" width="142.07141" height="116.99999" stroke="black"
                     stroke-linecap="round"
                     stroke-linejoin="round"
                     stroke-width="1.5"/>
            </g>
            <g>
               <circle cx="166.41964" cy="109.125" r="4.17857758319645" fill="#ff0000"/>
               <circle cx="166.41964" cy="109.125" r="4.17857758319645" stroke="black"
                       stroke-linecap="round"
                       stroke-linejoin="round"
                       stroke-width="1"/>
            </g>
            <g>
               <circle cx="209.25" cy="109.125" r="4.17857758319644" fill="#ff0000"/>
               <circle cx="209.25" cy="109.125" r="4.17857758319644" stroke="black"
                       stroke-linecap="round"
                       stroke-linejoin="round"
                       stroke-width="1"/>
            </g>
            <g>
               <circle cx="252.08034" cy="109.125" r="4.17857758319647" fill="#ff0000"/>
               <circle cx="252.08034" cy="109.125" r="4.17857758319647" stroke="black"
                       stroke-linecap="round"
                       stroke-linejoin="round"
                       stroke-width="1"/>
            </g>
            <g>
               <circle cx="294.9107" cy="109.125" r="4.17857758319647" fill="#ff0000"/>
               <circle cx="294.9107" cy="109.125" r="4.17857758319647" stroke="black"
                       stroke-linecap="round"
                       stroke-linejoin="round"
                       stroke-width="1"/>
            </g>
            <g>
               <circle cx="123.58929" cy="109.125" r="4.17857758319645" fill="#ff0000"/>
               <circle cx="123.58929" cy="109.125" r="4.17857758319645" stroke="black"
                       stroke-linecap="round"
                       stroke-linejoin="round"
                       stroke-width="1"/>
            </g>
            <g>
               <circle cx="166.41964" cy="255.37498" r="4.17857758319645" fill="#ff0000"/>
               <circle cx="166.41964" cy="255.37498" r="4.17857758319645" stroke="black"
                       stroke-linecap="round"
                       stroke-linejoin="round"
                       stroke-width="1"/>
            </g>
            <g>
               <circle cx="209.25" cy="255.37498" r="4.17857758319644" fill="#ff0000"/>
               <circle cx="209.25" cy="255.37498" r="4.17857758319644" stroke="black"
                       stroke-linecap="round"
                       stroke-linejoin="round"
                       stroke-width="1"/>
            </g>
            <g>
               <circle cx="252.08034" cy="255.37498" r="4.17857758319647" fill="#ff0000"/>
               <circle cx="252.08034" cy="255.37498" r="4.17857758319647" stroke="black"
                       stroke-linecap="round"
                       stroke-linejoin="round"
                       stroke-width="1"/>
            </g>
            <g>
               <circle cx="294.9107" cy="255.37498" r="4.17857758319647" fill="#ff0000"/>
               <circle cx="294.9107" cy="255.37498" r="4.17857758319647" stroke="black"
                       stroke-linecap="round"
                       stroke-linejoin="round"
                       stroke-width="1"/>
            </g>
            <g>
               <circle cx="123.58929" cy="255.37498" r="4.17857758319645" fill="#ff0000"/>
               <circle cx="123.58929" cy="255.37498" r="4.17857758319645" stroke="black"
                       stroke-linecap="round"
                       stroke-linejoin="round"
                       stroke-width="1"/>
            </g>
            <g>
               <circle cx="123.58929" cy="157.875" r="4.17857758319644" fill="#ff0000"/>
               <circle cx="123.58929" cy="157.875" r="4.17857758319644" stroke="black"
                       stroke-linecap="round"
                       stroke-linejoin="round"
                       stroke-width="1"/>
            </g>
            <g>
               <circle cx="123.58929" cy="206.625" r="4.17857758319643" fill="#ff0000"/>
               <circle cx="123.58929" cy="206.625" r="4.17857758319643" stroke="black"
                       stroke-linecap="round"
                       stroke-linejoin="round"
                       stroke-width="1"/>
            </g>
            <g>
               <circle cx="294.9107" cy="157.875" r="4.17857758319646" fill="#ff0000"/>
               <circle cx="294.9107" cy="157.875" r="4.17857758319646" stroke="black"
                       stroke-linecap="round"
                       stroke-linejoin="round"
                       stroke-width="1"/>
            </g>
            <g>
               <circle cx="294.9107" cy="206.625" r="4.17857758319645" fill="#ff0000"/>
               <circle cx="294.9107" cy="206.625" r="4.17857758319645" stroke="black"
                       stroke-linecap="round"
                       stroke-linejoin="round"
                       stroke-width="1"/>
            </g>
            <g>
               <g  id="feature-0">
                  <path 
                        d="M 172.0986 185.64902 L 170.7049 213.58928 L 193.47366 213.58928 L 192.07996 185.64902 C 193.2537 184.91163 194.36371 184.0321 195.3854 183.0104 C 202.72868 175.66716 202.72868 163.76141 195.3854 156.41817 C 188.04215 149.07489 176.1364 149.07489 168.79317 156.41817 C 161.44988 163.76141 161.44988 175.66716 168.79317 183.0104 C 169.81485 184.0321 170.92486 184.91163 172.0986 185.64902 Z"
                        fill="#ff0000"/>
               </g>
               <path d="M 172.0986 185.64902 L 170.7049 213.58928 L 193.47366 213.58928 L 192.07996 185.64902 C 193.2537 184.91163 194.36371 184.0321 195.3854 183.0104 C 202.72868 175.66716 202.72868 163.76141 195.3854 156.41817 C 188.04215 149.07489 176.1364 149.07489 168.79317 156.41817 C 161.44988 163.76141 161.44988 175.66716 168.79317 183.0104 C 169.81485 184.0321 170.92486 184.91163 172.0986 185.64902 Z"
                     stroke="black"
                     stroke-linecap="round"
                     stroke-linejoin="round"
                     stroke-width="1.5"/>
            </g>
            <g>
               <g  id="feature-1">
                  <path 
                        d="M 234.46602 189.88598 C 233.7844 191.59322 233.32076 193.25357 233.07103 194.86408 C 232.2551 200.12597 233.76738 204.69518 237.12386 208.1297 C 243.13223 214.2778 254.2152 215.6212 259.0837 210.7527 C 263.2607 206.5757 264.09552 201.73368 261.90477 198.08243 C 259.83433 194.6317 255.65155 193.53097 252.93533 196.2472 C 252.3914 196.79113 252.3914 197.67304 252.93533 198.21699 C 253.47928 198.76093 254.36118 198.76093 254.90513 198.21699 C 256.19337 196.92875 258.29586 197.48203 259.51604 199.51567 C 261.01885 202.02035 260.42352 205.47329 257.1139 208.7829 C 253.45586 212.44094 244.12714 211.3102 239.11616 206.18268 C 236.36605 203.36861 235.1439 199.67596 235.82384 195.29094 C 236.57628 190.43849 239.61318 184.89253 245.1692 178.7951 C 245.67007 178.32456 246.18284 177.8472 246.7077 177.36286 C 246.89405 177.19091 247.0228 176.97991 247.09303 176.75404 C 259.62677 163.50642 262.50854 151.2988 257.063 142.6934 C 252.40773 135.33688 242.36456 132.7894 236.35577 137.41967 C 230.97683 141.56459 230.87905 146.913 235.05199 150.07438 C 238.9677 153.0409 244.47993 152.37008 246.8089 147.71214 C 247.15292 147.0241 246.87403 146.18745 246.186 145.84343 C 245.49795 145.4994 244.6613 145.77829 244.31728 146.46633 C 242.83936 149.42217 239.3627 149.84526 236.73418 147.85393 C 234.05021 145.82057 234.10783 142.66874 238.05612 139.62625 C 242.68538 136.05902 250.88408 138.13865 254.709 144.18302 C 259.44438 151.66616 256.73478 162.74717 244.56045 175.3724 C 244.08703 175.86336 243.62833 176.3518 243.18428 176.83768 C 234.34638 185.1484 229.08573 191.44855 226.4626 196.61343 C 224.1678 201.13181 223.8521 204.41977 224.65435 209.10224 C 224.72097 209.49104 224.74906 209.64583 224.91341 210.54026 C 225.15826 211.87273 225.27586 212.58485 225.37428 213.4141 C 225.84724 217.3993 224.68105 221.3478 222.33806 223.8833 C 219.90404 226.5173 216.4976 227.36486 212.60188 225.97725 C 209.00897 224.6975 207.5097 222.5376 207.92682 220.6336 C 208.26682 219.0816 209.74803 218.38706 211.47574 219.3145 C 212.1535 219.67835 212.9979 219.42385 213.36174 218.74608 C 213.72557 218.0683 213.47107 217.22392 212.7933 216.86008 C 209.42736 215.0532 205.93924 216.68877 205.20564 220.03746 C 204.45986 223.44177 206.8505 226.88582 211.66716 228.60146 C 221.53514 232.11633 229.39028 223.61576 228.14058 213.0858 C 228.03324 212.1814 227.90822 211.42435 227.65326 210.0368 C 227.4914 209.156 227.46395 209.00472 227.40006 208.63182 C 226.69176 204.49769 226.9503 201.80502 228.94634 197.87487 C 230.13467 195.53507 231.93954 192.90182 234.46603 189.88598 Z"
                        fill="#ff0000"/>
               </g>
               <path d="M 234.46602 189.88598 C 233.7844 191.59322 233.32076 193.25357 233.07103 194.86408 C 232.2551 200.12597 233.76738 204.69518 237.12386 208.1297 C 243.13223 214.2778 254.2152 215.6212 259.0837 210.7527 C 263.2607 206.5757 264.09552 201.73368 261.90477 198.08243 C 259.83433 194.6317 255.65155 193.53097 252.93533 196.2472 C 252.3914 196.79113 252.3914 197.67304 252.93533 198.21699 C 253.47928 198.76093 254.36118 198.76093 254.90513 198.21699 C 256.19337 196.92875 258.29586 197.48203 259.51604 199.51567 C 261.01885 202.02035 260.42352 205.47329 257.1139 208.7829 C 253.45586 212.44094 244.12714 211.3102 239.11616 206.18268 C 236.36605 203.36861 235.1439 199.67596 235.82384 195.29094 C 236.57628 190.43849 239.61318 184.89253 245.1692 178.7951 C 245.67007 178.32456 246.18284 177.8472 246.7077 177.36286 C 246.89405 177.19091 247.0228 176.97991 247.09303 176.75404 C 259.62677 163.50642 262.50854 151.2988 257.063 142.6934 C 252.40773 135.33688 242.36456 132.7894 236.35577 137.41967 C 230.97683 141.56459 230.87905 146.913 235.05199 150.07438 C 238.9677 153.0409 244.47993 152.37008 246.8089 147.71214 C 247.15292 147.0241 246.87403 146.18745 246.186 145.84343 C 245.49795 145.4994 244.6613 145.77829 244.31728 146.46633 C 242.83936 149.42217 239.3627 149.84526 236.73418 147.85393 C 234.05021 145.82057 234.10783 142.66874 238.05612 139.62625 C 242.68538 136.05902 250.88408 138.13865 254.709 144.18302 C 259.44438 151.66616 256.73478 162.74717 244.56045 175.3724 C 244.08703 175.86336 243.62833 176.3518 243.18428 176.83768 C 234.34638 185.1484 229.08573 191.44855 226.4626 196.61343 C 224.1678 201.13181 223.8521 204.41977 224.65435 209.10224 C 224.72097 209.49104 224.74906 209.64583 224.91341 210.54026 C 225.15826 211.87273 225.27586 212.58485 225.37428 213.4141 C 225.84724 217.3993 224.68105 221.3478 222.33806 223.8833 C 219.90404 226.5173 216.4976 227.36486 212.60188 225.97725 C 209.00897 224.6975 207.5097 222.5376 207.92682 220.6336 C 208.26682 219.0816 209.74803 218.38706 211.47574 219.3145 C 212.1535 219.67835 212.9979 219.42385 213.36174 218.74608 C 213.72557 218.0683 213.47107 217.22392 212.7933 216.86008 C 209.42736 215.0532 205.93924 216.68877 205.20564 220.03746 C 204.45986 223.44177 206.8505 226.88582 211.66716 228.60146 C 221.53514 232.11633 229.39028 223.61576 228.14058 213.0858 C 228.03324 212.1814 227.90822 211.42435 227.65326 210.0368 C 227.4914 209.156 227.46395 209.00472 227.40006 208.63182 C 226.69176 204.49769 226.9503 201.80502 228.94634 197.87487 C 230.13467 195.53507 231.93954 192.90182 234.46603 189.88598 Z"
                     stroke="black"
                     stroke-linecap="round"
                     stroke-linejoin="round"
                     stroke-width=".75"/>
            </g>
         </g>
      </g>
   </g>
</svg>