<?xml version="1.0" encoding="UTF-8" standalone="no"?>
<!DOCTYPE svg PUBLIC "-//W3C//DTD SVG 1.1//EN" "http://www.w3.org/Graphics/SVG/1.1/DTD/svg11.dtd">
<svg xmlns:dc="http://purl.org/dc/elements/1.1/" xmlns:xl="http://www.w3.org/1999/xlink" version="1.1" xmlns="http://www.w3.org/2000/svg" viewBox="53.56584 61.31542 256.5 279.83298" width="256.5" height="279.83298">
  <defs>
    <clipPath id="artboard_clip_path">
      <path d="M 53.56584 61.31542 L 310.06584 61.31542 L 310.06584 341.1484 L 53.56584 341.1484 Z"/>
    </clipPath>
  </defs>
  <metadata> Produced by OmniGraffle 7.7.1 
    <dc:date>2018-03-13 06:46:41 +0000</dc:date><dc:title>Traceable heraldic art http://heraldicart.org/credits.html</dc:title>
  </metadata>
  <g id="Pavilion_(1)" fill-opacity="1" stroke-dasharray="none" stroke="none" stroke-opacity="1" fill="#ffff00">
    <title>Pavilion (1)</title>
    <g id="Pavilion_(1): Layer 2" >
      <title>Layer 2</title>
      <g id="Group_3">
        <g id="Graphic_95">
          <path d="M 174.55549 64.727965 C 174.29366 65.72605 173.89982 68.60774 173.59096 71.09088 C 173.16043 75.75395 171.56405 78.18316 167.95081 79.49607 C 166.8781 79.9291 164.58686 82.28368 162.99049 84.71289 C 158.56542 91.09776 158.847 96.32932 163.78476 101.79387 L 167.48203 105.71942 L 166.51405 111.98356 C 165.46454 118.74503 160.3885 131.97633 157.53912 135.33935 C 156.58932 136.46035 155.58214 138.77009 155.34446 140.4596 C 154.51539 145.03768 147.41653 151.31813 137.50716 156.4111 C 136.14502 157.05203 134.39814 158.00308 133.62174 158.42577 C 132.84535 158.84846 129.52498 160.05225 126.29994 161.15381 C 121.21544 162.81478 119.73383 162.86652 115.15229 161.93867 C 110.27098 160.9224 109.78056 161.03842 107.67997 163.18856 C 106.4373 164.41868 104.95005 167.14076 104.33107 169.23916 C 103.36528 172.73419 103.4951 173.6197 105.50632 177.40635 C 108.2607 182.65045 108.2814 183.2431 106.0397 189.8484 C 104.06673 195.65317 102.59328 198.77034 100.78901 200.91013 C 100.12174 201.6257 99.58083 203.128 99.61533 204.11573 C 99.64982 205.10347 98.25789 207.72333 96.45707 209.9619 C 94.75848 212.29577 92.81875 216.2204 92.31579 218.8092 C 91.7106 221.3027 90.37386 225.50293 89.17948 228.1159 C 87.98165 230.63008 86.71954 234.13546 86.48186 235.82496 C 86.14885 237.61668 84.78107 240.92796 83.28347 243.35372 C 81.88465 245.77603 79.22026 251.60494 77.30813 256.31975 C 72.2183 269.15596 68.70289 276.10242 63.72312 283.5945 C 61.28262 287.3388 58.78819 292.37063 58.17956 294.76535 C 57.567474 297.0613 56.28812 300.0728 55.243 301.29602 C 53.43873 303.4358 53.44218 303.5346 56.29533 308.77524 C 58.838366 313.63115 59.55048 314.19965 64.85448 315.9923 C 67.95441 316.9719 72.67956 319.18036 75.30632 320.76983 C 79.34695 323.2 81.34312 323.72364 88.77186 324.0576 C 97.49155 324.54424 104.0865 326.4896 110.05903 330.4346 C 112.48824 332.031 113.9802 332.27557 117.22249 331.66787 C 126.06729 330.0734 139.51433 329.99938 142.03886 331.49353 C 143.85818 332.61673 147.12807 332.79922 157.10423 332.45085 C 170.2377 331.89332 174.31502 332.5421 184.16732 337.14276 C 186.57928 338.24526 190.94603 338.68614 199.05928 338.7984 C 205.48647 338.77174 214.89068 339.0367 220.04072 339.25244 C 228.95796 339.7322 229.94225 339.59893 237.75103 336.6561 C 246.72784 333.178 249.87826 332.7713 255.567 334.25385 C 258.76226 335.1312 259.74655 334.99794 261.5784 333.64835 C 274.28888 323.80953 273.50904 324.13345 284.2754 323.75748 L 294.25154 323.4091 L 298.9535 319.28914 C 301.5445 317.023 304.51336 314.24916 305.36438 313.1316 C 307.44772 310.4876 309.7606 303.08866 309.62608 299.23648 C 309.5019 295.68062 306.35243 290.4503 303.53502 289.06528 C 302.22682 288.4187 300.6452 285.606 299.2128 281.40357 C 297.66786 276.8095 295.66698 273.31917 292.7944 270.35376 C 290.53168 267.86152 288.67787 265.75058 288.66752 265.45426 C 288.62958 264.36775 278.68258 245.7274 277.34678 244.29063 C 275.3942 242.18315 268.76537 225.10813 266.58858 216.58034 C 265.5651 212.7592 264.0374 208.659 263.00137 207.31065 C 262.0641 205.95886 260.57435 202.94516 259.7967 200.49996 C 259.01905 198.05476 257.9175 194.82972 257.36843 193.26658 C 256.81938 191.70345 256.3415 189.34667 256.2932 187.96384 C 256.24492 186.581 255.66137 184.03013 254.90786 182.27635 C 253.71443 179.2523 253.7994 178.85375 256.18942 176.49572 C 258.4841 174.23992 258.56218 173.64383 257.47442 170.81388 C 256.82313 169.15542 254.3353 165.87989 251.9807 163.58865 C 246.96143 158.62142 243.88564 158.33326 235.90346 161.9744 L 230.74433 164.33024 L 228.49887 162.33187 C 227.17687 161.2902 223.3269 158.6556 219.8927 156.59986 C 213.52162 152.56988 209.10189 147.77951 205.076 140.10745 C 203.7057 137.68294 201.91961 134.6796 200.88359 133.33125 C 199.84756 131.98291 198.02698 127.99182 196.72097 124.57613 C 195.41151 121.06166 194.01018 117.74819 193.59784 117.26812 C 193.08327 116.69272 192.2034 114.1522 191.4223 111.60822 C 190.18058 107.20134 190.25176 106.4077 192.44642 101.28745 C 195.2704 94.36513 195.19107 92.09333 191.92558 86.3726 C 188.2374 79.87548 187.11294 78.82691 183.22972 78.07247 C 178.05553 77.165315 177.0264 76.01452 177.14681 70.96671 C 177.1236 64.638284 176.86742 62.96603 175.87969 63.00052 C 175.38582 63.017766 174.722 63.8321 174.55549 64.727965 Z" fill="#cccccc"/>
        </g>
        <g id="Graphic_94">
          <path d="M 184.44166 84.45827 C 187.81502 87.60398 188.55472 88.96267 188.6651 92.12344 C 188.8548 97.556 185.62757 101.42668 179.2659 103.33003 C 174.85903 104.57176 173.77252 104.6097 170.76101 103.33035 C 166.74452 101.59162 164.1303 97.52935 163.9682 92.88698 C 163.88541 90.5164 164.89949 88.40421 167.36068 85.25254 C 170.58792 81.38186 171.26554 80.96262 175.61159 80.81085 C 179.85886 80.66254 180.76162 81.02659 184.44166 84.45827 Z" fill="#ff0000"/>
        </g>
        <g id="Graphic_93">
          <path d="M 184.77906 108.28001 C 185.81853 109.72713 184.75962 110.55526 182.85532 109.8306 C 181.956 109.56533 181.53677 108.88771 181.8124 108.28472 C 182.55774 106.97306 183.94058 106.92477 184.77906 108.28001 Z" fill="#ff0000"/>
        </g>
        <g id="Graphic_92">
          <path d="M 172.5151 111.08174 C 172.61514 113.94618 170.79833 118.55877 169.61304 118.60016 C 169.11917 118.6174 168.89403 117.83411 169.15586 116.83602 C 169.32236 115.94016 169.7369 113.65112 170.0699 111.85939 C 170.72903 108.07839 172.39094 107.52588 172.5151 111.08174 Z" fill="#ff0000"/>
        </g>
        <g id="Graphic_91">
          <path d="M 178.9862 117.97616 C 178.96457 123.02052 178.12735 124.53317 176.00826 123.32155 C 174.79883 122.67152 174.66556 121.68723 175.5865 116.90814 C 176.42593 112.62638 176.98063 111.51917 177.79841 112.28177 C 178.51397 112.94904 178.99875 115.50336 178.9862 117.97616 Z" fill="#ff0000"/>
        </g>
        <g id="Graphic_90">
          <path d="M 187.97588 120.53016 C 188.89934 121.48686 187.69806 123.90227 186.31523 123.95056 C 184.63607 124.0092 183.49092 122.36798 184.23627 121.05633 C 184.88975 119.94567 186.9571 119.67569 187.97588 120.53016 Z" fill="#ff0000"/>
        </g>
        <g id="Graphic_89">
          <path d="M 169.69833 126.70651 C 168.79244 134.74858 165.53666 143.46608 160.04359 153.25065 C 157.06563 158.59604 154.26109 163.24311 153.87634 163.55323 C 152.23857 164.79715 147.01767 173.87996 147.06596 175.2628 C 147.1453 177.53459 144.16483 177.1442 136.04688 174.06528 C 131.93851 172.52754 127.42815 170.80606 125.92585 170.26515 C 123.02002 169.1799 122.1505 166.93569 124.30282 166.26716 C 140.62214 160.65367 145.10365 158.71708 149.52308 155.00255 C 152.11409 152.7364 154.98072 149.86725 155.92362 148.5487 C 158.56511 144.89626 165.01708 131.41912 165.59467 128.13544 C 166.95085 121.65995 170.46877 120.44927 169.69833 126.70651 Z" fill="#ff0000"/>
        </g>
        <g id="Graphic_88">
          <path d="M 179.53339 130.8133 C 179.29225 132.40403 178.95924 134.19576 178.68362 134.79875 C 178.25873 136.79147 179.42458 139.02533 181.00496 138.97014 C 182.88166 138.9046 182.84843 140.78476 180.99587 141.54171 C 178.56101 142.61568 179.3995 143.97092 182.46148 143.864 C 186.11612 143.73637 187.19009 146.17122 184.39463 148.24673 C 183.23694 149.07831 181.77947 149.82147 181.08806 149.84561 C 180.39664 149.86976 179.8178 150.28555 179.8385 150.8782 C 179.85574 151.37206 181.15704 151.82109 182.73742 151.7659 C 189.94791 151.5141 191.05293 154.83792 184.49717 156.84695 C 182.05197 157.6246 180.10753 158.58255 180.12133 158.97765 C 180.13513 159.37274 182.81582 159.6747 186.07535 159.56088 C 191.31037 159.37807 192.00868 159.55147 192.07077 161.3294 C 192.1225 162.81101 191.44834 163.32902 189.47286 163.398 C 187.89593 163.55197 185.64827 164.32272 184.29304 165.1612 C 181.9742 166.7256 181.9742 166.7256 186.00668 166.0903 C 189.83817 165.36314 195.22024 166.55971 195.27543 168.1401 C 195.33062 169.72047 192.61324 171.19989 189.3537 171.31371 C 187.27946 171.38615 185.31778 171.85023 185.04215 172.45322 C 184.66775 173.05966 187.34844 173.36162 192.3859 173.18571 C 198.8062 172.9615 200.39693 173.20264 200.43833 174.38793 C 200.46592 175.17812 199.50922 176.10158 198.33084 176.34052 C 191.75438 177.7569 176.31932 180.37269 176.01265 180.08671 C 175.70943 179.89951 175.88378 173.5642 176.41182 166.02978 C 176.84455 158.5976 177.1669 148.00466 177.07596 142.56865 C 176.96056 127.93632 176.9709 128.23264 178.5513 128.17746 C 179.73658 128.13606 179.95827 128.82058 179.53339 130.8133 Z" fill="#ff0000"/>
        </g>
        <g id="Graphic_87">
          <path d="M 191.0015 130.70951 C 191.0429 131.8948 186.17663 134.14151 185.35885 133.37892 C 184.64329 132.71164 188.10601 129.92058 189.78172 129.76317 C 190.37436 129.74247 190.98425 130.21564 191.0015 130.70951 Z" fill="#ff0000"/>
        </g>
        <g id="Graphic_86">
          <path d="M 173.59441 133.49306 C 174.0378 134.8621 172.95035 171.68874 172.29468 175.56852 C 171.7033 178.4571 166.52002 180.12152 158.3011 179.81517 C 150.97803 179.67532 148.18477 178.9817 148.12958 177.40132 C 148.10889 176.80868 149.99468 174.17157 152.27902 171.61945 C 154.56337 169.06732 157.57581 164.70967 158.96429 161.99103 C 160.34932 159.17363 162.49694 155.53844 163.71891 153.71567 C 164.94434 151.99167 165.96876 150.1758 165.95152 149.68193 C 165.93772 149.28684 166.93455 146.68078 168.22425 143.9656 C 169.41518 141.25386 170.6704 137.55094 171.0034 135.75921 C 171.47532 132.28143 172.62957 131.35107 173.59441 133.49306 Z" fill="#ff0000"/>
        </g>
        <g id="Graphic_85">
          <path d="M 193.80072 137.23768 C 194.13153 138.21507 195.08948 140.1595 195.93141 141.61352 C 197.40393 144.13335 197.40738 144.23212 193.91016 146.03545 C 190.99868 147.62053 190.30726 147.64468 189.47568 146.48699 C 187.90784 144.06938 188.35342 142.6693 190.92154 142.57962 C 192.30437 142.53133 193.3771 142.0983 193.35984 141.60442 C 193.315 140.32036 190.62052 139.6233 188.86328 140.27803 C 187.88934 140.70762 187.38167 140.32977 187.33338 138.94694 C 187.21956 135.6874 192.80828 134.3055 193.80072 137.23768 Z" fill="#ff0000"/>
        </g>
        <g id="Graphic_84">
          <path d="M 199.55876 149.2006 C 199.59326 150.18834 195.61252 152.30524 193.63704 152.37422 C 191.76034 152.43976 192.74682 149.53737 194.90605 149.0664 C 198.8294 148.13823 199.52427 148.21286 199.55876 149.2006 Z" fill="#ff0000"/>
        </g>
        <g id="Graphic_83">
          <path d="M 204.24159 155.86078 C 204.26918 156.65097 202.63142 157.8949 200.5813 158.65874 C 194.53322 161.04562 191.57565 158.47876 196.90818 155.4246 C 199.81965 153.83952 204.17605 153.98408 204.24159 155.86078 Z" fill="#ff0000"/>
        </g>
        <g id="Graphic_82">
          <path d="M 211.8083 160.14568 C 212.42853 160.91518 212.7628 161.99134 212.48372 162.49556 C 211.64304 163.90944 201.27304 167.1395 199.47442 166.60894 C 196.97058 165.70743 199.44557 162.95086 204.51627 160.8948 C 210.56092 158.40914 210.2646 158.4195 211.8083 160.14568 Z" fill="#ff0000"/>
        </g>
        <g id="Graphic_81">
          <path d="M 119.28041 169.70606 C 123.77133 173.7028 133.42953 178.40913 140.30701 179.94906 C 142.8005 180.55425 145.50534 181.54763 146.4219 182.30678 C 148.56168 184.11104 164.61478 185.03387 171.29346 183.7128 C 174.14066 183.11891 176.80755 183.02578 177.21644 183.40708 C 177.932 184.07435 188.18034 183.02421 196.52782 181.3482 C 200.65218 180.5119 200.65563 180.61068 200.7591 183.5739 C 200.81774 185.25305 201.37025 186.91496 201.97324 187.19059 C 202.6819 187.6603 202.93684 186.46468 202.54049 183.61058 C 202.1131 179.86753 202.38872 179.26453 204.05753 178.90958 C 205.72978 178.6534 206.25125 179.42634 207.50332 184.12954 C 208.86107 189.02684 208.89211 189.9158 207.55412 191.24815 C 206.41368 192.5736 205.72226 192.59775 204.80225 191.73983 C 203.88224 190.8819 203.19427 191.00482 201.85628 192.33717 C 200.70894 193.46508 197.96397 194.1543 193.42727 194.51051 C 189.77608 194.7369 185.5495 195.47787 183.8945 196.22792 C 178.72847 198.38621 141.00595 197.13226 133.89298 194.51272 C 122.77387 190.45076 111.18252 181.36169 109.29641 175.4939 C 108.06503 171.38334 110.15747 166.16776 113.21946 166.06084 C 114.30597 166.0229 117.0315 167.60892 119.28041 169.70606 Z" fill="#ff0000"/>
        </g>
        <g id="Graphic_80">
          <path d="M 221.4505 167.22604 C 221.52293 169.3003 215.5874 172.07881 209.77355 172.67742 C 205.83294 173.1117 204.8383 172.94865 204.4937 171.57617 C 204.25476 170.39778 205.0208 169.67877 207.57513 169.194 C 209.43803 168.73336 212.66653 167.73057 214.71318 166.86795 C 219.10282 165.13235 221.38151 165.25056 221.4505 167.22604 Z" fill="#ff0000"/>
        </g>
        <g id="Graphic_79">
          <path d="M 244.0766 166.6337 C 248.2919 171.23343 250.37556 177.09433 247.70866 177.18746 C 247.11602 177.20815 245.88244 175.8667 245.13584 174.31047 C 242.89947 169.74054 241.45236 170.78001 242.33693 176.2872 C 243.0986 181.10643 242.18674 183.31394 239.61862 183.40362 C 238.9272 183.42777 237.99684 182.27353 237.64533 180.7035 C 237.1985 179.23568 236.32898 176.99148 235.58927 175.63279 C 234.84956 174.2741 233.9766 171.93112 233.52976 170.46331 C 232.85433 168.11343 233.1334 167.60922 235.953 166.22513 C 240.42762 164.09099 241.91612 164.2368 244.0766 166.6337 Z" fill="#ff0000"/>
        </g>
        <g id="Graphic_78">
          <path d="M 232.32848 172.87872 C 233.45638 174.02607 234.3397 176.66537 234.5523 179.92145 C 234.91196 184.55693 234.73166 185.0577 232.76653 185.423 C 231.09773 185.77796 230.48784 185.30479 230.43955 183.92195 C 230.4016 182.83544 229.41606 180.10082 228.34554 177.76474 C 226.85578 174.75104 226.50427 173.181 227.26342 172.26445 C 228.68294 170.43478 230.27022 170.57714 232.32848 172.87872 Z" fill="#ff0000"/>
        </g>
        <g id="Graphic_77">
          <path d="M 227.1775 178.3 C 229.08776 184.8592 228.89146 187.734 226.81721 187.80643 C 225.13806 187.86507 223.69314 186.13543 222.06666 182.03867 C 221.74275 181.25882 221.67502 182.15124 221.83933 184.0245 C 222.02778 186.58916 221.7625 187.48847 220.39002 187.83308 C 219.21508 188.1708 218.18595 187.02 216.58707 183.71343 C 215.41087 181.18325 214.42878 178.5474 214.40118 177.75721 C 214.3253 175.58419 217.90185 176.05266 219.6638 178.3646 C 221.3235 180.5812 221.3235 180.5812 221.20968 177.32167 C 221.21532 174.65132 221.59317 174.14366 223.56865 174.07467 C 225.54413 174.00569 226.06214 174.67986 227.1775 178.3 Z" fill="#ff0000"/>
        </g>
        <g id="Graphic_76">
          <path d="M 213.51473 183.52404 C 215.03553 187.4267 215.10797 189.50095 213.60911 189.05882 C 212.80857 188.7901 209.80146 181.9725 209.52803 179.80638 C 209.52458 179.7076 210.12067 179.78568 210.9212 180.05441 C 211.72175 180.32314 212.86345 181.86558 213.51473 183.52404 Z" fill="#ff0000"/>
        </g>
        <g id="Graphic_75">
          <path d="M 120.53657 191.51783 C 120.93166 191.50404 122.04232 192.1575 122.95888 192.91666 C 124.591 194.34308 124.60824 194.83695 123.36118 201.6053 C 122.61019 205.5873 121.2769 209.88632 120.43623 211.3002 C 119.59555 212.71407 118.24502 216.51922 117.5721 219.90512 C 115.68881 228.278 114.32793 231.78683 109.3723 239.97032 C 107.03403 243.80996 105.08395 247.43825 105.1012 247.93212 C 105.1219 248.52476 104.02974 251.23305 102.64126 253.95168 C 99.5037 260.39048 97.08516 267.59533 95.54523 274.4728 C 94.36935 280.44753 93.55282 282.55282 85.6252 301.91626 C 82.61056 309.04303 79.65676 315.07983 78.97224 315.30152 C 78.29117 315.622 76.298445 315.1971 74.3907 314.37368 C 72.48295 313.55025 70.582105 312.92437 70.08824 312.9416 C 69.69314 312.9554 67.58095 311.94133 65.45841 310.63093 C 62.42276 308.66016 61.6934 307.5978 61.60027 304.9309 C 61.479546 301.4738 64.59296 294.3436 69.01458 287.85996 C 70.519074 285.63175 71.7169 283.11756 71.68586 282.2286 C 71.658265 281.4384 72.287596 279.63633 73.13517 278.42 C 73.97929 277.1049 75.6296 273.38818 76.796385 269.98503 C 77.96662 266.68065 80.71598 260.4532 83.04046 256.21846 C 85.26616 251.98718 87.38274 247.46302 87.72955 246.0664 C 88.07635 244.66976 92.46912 234.52804 97.42004 223.37789 C 102.47318 212.32305 106.4812 202.49145 106.45361 201.70126 C 106.42257 200.8123 107.0726 199.60286 107.83864 198.88385 C 108.60469 198.16484 109.70719 195.75288 110.31927 193.45694 C 111.873 186.97455 112.64595 186.45309 116.49938 189.18646 C 118.3256 190.5072 120.14147 191.53163 120.53657 191.51783 Z" fill="#ff0000"/>
        </g>
        <g id="Graphic_74">
          <path d="M 245.30172 187.55651 C 240.23227 192.48047 230.83276 195.18217 230.71204 191.72509 C 230.67065 190.5398 240.8729 185.3377 243.441 185.24803 C 244.42875 185.21354 245.498 184.68173 245.7771 184.1775 C 246.1515 183.57107 246.83945 183.44815 247.44244 183.72378 C 248.1511 184.1935 247.31043 185.60738 245.30172 187.55651 Z" fill="#ff0000"/>
        </g>
        <g id="Graphic_73">
          <path d="M 229.7726 193.14241 C 229.84502 195.21666 227.02197 196.50198 218.38851 198.48467 C 214.16883 199.42318 210.63712 200.23877 210.53835 200.24222 C 210.3408 200.24911 210.21788 199.56115 210.19029 198.77096 C 210.1006 196.20284 219.06362 192.32965 226.56354 191.86995 C 228.7331 191.6953 229.7381 192.15467 229.7726 193.14241 Z" fill="#ff0000"/>
        </g>
        <g id="Graphic_72">
          <path d="M 248.17902 193.48859 C 247.1201 194.31672 245.56386 195.06333 244.6749 195.09437 C 243.78593 195.12541 242.2366 196.06957 241.2868 197.19057 C 239.57785 199.22813 233.97534 200.21493 233.9167 198.53578 C 233.89946 198.0419 236.2252 196.67507 239.0517 195.48852 C 248.2088 191.50966 251.44765 190.8032 248.17902 193.48859 Z" fill="#ff0000"/>
        </g>
        <g id="Graphic_71">
          <path d="M 138.98 198.58753 C 141.46314 198.8964 144.0554 199.49813 144.76061 199.86908 C 146.68216 201.0876 146.26072 203.1791 144.00962 203.85108 C 142.44304 204.30136 142.06864 204.9078 142.70957 206.26994 C 143.66752 208.21437 143.70201 209.2021 142.90398 214.66916 C 142.43551 218.24572 142.24486 218.45016 138.59023 218.57778 C 133.94786 218.7399 133.69983 220.13308 137.92076 222.06246 C 141.94415 223.99874 141.2195 225.90304 136.18203 226.07895 C 131.83943 226.3295 129.79967 227.38967 132.49761 228.1855 C 133.39692 228.45078 134.79355 228.79759 135.5941 229.0663 C 136.39118 229.23627 137.13089 230.59496 137.18263 232.07656 C 137.26886 234.5459 137.07476 234.65158 133.79798 234.27154 C 129.23024 233.7388 128.49178 235.248 132.41295 237.08894 C 134.72614 238.1949 135.45205 239.1585 135.30969 240.74577 C 135.16388 242.23428 134.49316 242.85106 133.2022 242.69836 C 132.20756 242.5353 130.7294 242.6858 129.85424 243.11195 C 128.58742 243.65066 128.7 244.0423 130.53656 245.65938 C 132.98302 247.74962 133.21506 248.73046 131.9219 251.34687 C 131.18345 252.85607 130.20606 253.18688 126.53763 252.9194 C 121.3807 252.50613 120.90752 253.11602 125.13191 255.14417 C 129.25407 257.077 129.00604 258.4702 124.2649 258.63575 C 121.10413 258.74613 120.32774 259.16882 120.37603 260.55165 C 120.41052 261.5394 121.54877 262.98306 122.95575 263.62618 C 124.66595 264.4565 125.39186 265.4201 124.93248 266.4251 C 124.6672 267.3244 124.05167 269.52157 123.52111 271.3202 C 123.0009 273.41514 121.86736 274.93814 120.30767 275.58597 C 117.87282 276.65994 117.32847 278.06347 119.04556 279.09134 C 119.64855 279.36697 120.09194 280.736 120.14023 282.11884 C 120.21611 284.29186 119.82791 284.5032 115.77819 284.64463 C 113.30884 284.73086 111.34716 285.19494 111.36786 285.7876 C 111.3851 286.28145 112.19254 286.74773 113.27905 286.7098 C 115.55085 286.63045 118.11333 289.2111 116.87411 290.54 C 116.39748 291.05113 114.2417 291.6209 112.07558 291.8943 L 108.13842 292.42738 L 111.4428 293.5976 C 113.1461 294.2304 114.6622 295.1664 114.676 295.5615 C 114.71394 296.648 112.17686 297.62665 109.21365 297.73012 C 106.05289 297.8405 106.24134 300.40517 109.4297 301.085 C 110.82633 301.4318 111.93354 301.9865 111.95078 302.48036 C 112.00597 304.06074 105.7412 317.23467 104.39976 318.46824 C 103.43961 319.29292 102.06023 319.44 99.56674 318.8348 C 97.76812 318.30425 93.31294 318.16314 89.85931 318.38264 C 82.1653 318.948 81.53816 317.98096 85.19029 312.11756 C 86.69133 309.79057 88.36923 306.86404 88.92049 305.65806 C 94.09655 295.2912 96.10401 290.47417 98.86591 281.77392 C 102.08029 271.87114 102.61085 270.0725 105.30032 259.298 C 106.0858 256.30375 108.93739 250.17162 111.65006 245.72554 C 114.36274 241.27947 116.58844 237.04818 116.5643 236.35677 C 116.54015 235.66535 117.53353 232.9605 118.72791 230.34755 C 119.92229 227.7346 121.70116 222.0355 122.73468 217.64806 C 127.56581 197.4038 127.74612 196.90304 131.52712 197.56216 C 133.21662 197.79985 136.49685 198.27866 138.98 198.58753 Z" fill="#ff0000"/>
        </g>
        <g id="Graphic_70">
          <path d="M 205.72822 198.4323 C 206.144 199.01115 205.9844 200.10456 205.32058 200.9189 C 204.46956 202.03645 204.68435 202.52342 206.29578 203.3572 C 209.61395 204.92253 208.8962 207.02437 204.40089 208.56587 L 200.19845 209.99825 L 204.15975 210.1566 C 208.61492 210.2977 211.26582 212.5786 209.66255 214.81026 C 208.99873 215.6246 206.44786 216.20814 203.2871 216.31852 C 200.42265 216.41855 197.86833 216.90333 197.49048 217.411 C 196.65326 218.92364 200.2298 219.3921 204.2485 218.36173 C 206.20672 217.79887 208.76794 217.51165 209.8648 217.77002 C 212.65462 218.36486 212.59504 222.32271 209.87766 223.80213 C 207.54503 224.97142 207.54503 224.97142 212.4022 225.29628 C 214.38457 225.42484 213.923 229.19894 211.76377 229.66992 C 208.33083 230.48206 207.78993 231.98436 211.04947 231.87054 C 214.01268 231.76706 216.94956 233.74128 215.7069 234.9714 C 215.42436 235.37685 213.9531 235.7249 212.4715 235.77665 C 211.08866 235.82494 209.0351 236.49002 207.9762 237.31815 C 206.24655 238.76307 206.25 238.86185 208.63437 239.17416 C 210.02755 239.4222 212.5038 239.5335 214.08073 239.37954 C 216.4444 239.09922 217.05084 239.47361 217.10603 241.054 C 217.16467 242.73315 216.38827 243.15584 212.74054 243.481 C 206.2387 244.20253 205.40838 245.91273 211.7299 245.69198 C 217.0637 245.50572 221.2605 246.74368 220.32794 248.35856 C 220.04886 248.86277 217.413 249.84487 214.4705 250.541 C 211.52797 251.2371 209.09312 252.31108 209.11037 252.80495 C 209.1276 253.29882 211.90708 253.59733 215.36416 253.4766 C 218.82125 253.3559 221.99236 253.54183 222.30247 253.92658 C 223.7336 255.26112 220.73714 257.24475 216.98374 257.37582 C 210.66221 257.59658 212.91802 259.89127 219.54966 260.05526 C 222.61855 260.14588 225.3027 260.54662 225.4187 261.03704 C 225.92073 264.08523 225.53944 264.49412 221.90205 265.11562 C 219.15018 265.6073 217.88681 266.24477 217.7341 267.53573 C 217.49297 269.12646 217.89152 269.21144 220.73871 268.61754 C 224.46797 267.79505 230.25894 269.37292 228.9244 270.80405 C 228.35245 271.4174 225.81193 272.29726 223.16573 272.98303 C 218.35685 274.041 218.25808 274.04446 215.07537 270.6943 C 211.37464 266.66997 209.0762 260.3221 210.69326 258.48554 C 211.45585 257.66776 211.15263 257.48056 209.49417 258.13184 C 207.63472 258.69124 207.22927 258.40872 206.64572 255.85784 C 206.19544 254.29126 205.35006 252.73847 204.75052 252.56162 C 204.04876 252.28944 202.56934 249.57207 201.46778 246.34702 C 200.36966 243.22075 198.873 240.0095 198.15054 239.14468 C 197.33276 238.3821 196.68838 236.92118 196.65389 235.93344 C 196.62284 235.04447 195.86934 233.2907 195.03776 232.133 C 192.53956 228.56115 190.33643 222.11106 191.1771 220.69718 C 191.64338 219.88975 191.39755 218.5138 190.56596 217.35612 C 189.83316 216.19498 188.84416 213.36158 188.36284 210.90603 C 187.8815 208.45048 187.1142 206.3016 186.70877 206.01908 C 186.30332 205.73655 185.6693 204.57196 185.23625 203.49925 C 184.35638 200.95872 185.90572 200.01457 193.38149 198.86346 C 201.8381 197.48031 204.99886 197.36994 205.72822 198.4323 Z" fill="#ff0000"/>
        </g>
        <g id="Graphic_69">
          <path d="M 167.21112 202.74418 C 168.94892 204.3647 166.62319 205.73154 162.07959 205.8902 C 159.51147 205.97988 156.9261 205.5757 156.31276 205.00375 C 155.49498 204.24115 154.60602 204.2722 153.25078 205.11068 C 152.18496 205.74126 151.01692 206.27652 150.7206 206.28687 C 150.02918 206.31101 149.80968 202.85738 150.47695 202.14182 C 151.23955 201.32403 166.19234 201.8897 167.21112 202.74418 Z" fill="#ff0000"/>
        </g>
        <g id="Graphic_68">
          <path d="M 252.76306 200.15222 C 252.83205 202.1277 251.96378 202.75138 246.20166 204.8316 C 237.80024 207.79512 235.23212 207.8848 235.14244 205.31668 C 235.1045 204.23017 235.17223 203.33775 235.36978 203.33085 C 235.46855 203.3274 238.69014 202.12707 242.39526 200.61316 C 251.27675 197.2373 252.6596 197.189 252.76306 200.15222 Z" fill="#ff0000"/>
        </g>
        <g id="Graphic_67">
          <path d="M 230.04853 201.04432 C 230.07957 201.93328 228.72089 202.673 226.46288 203.14742 C 224.40243 203.61495 221.75623 204.30072 220.49287 204.9382 C 219.22605 205.47691 216.67173 205.9617 214.79503 206.02723 C 212.02936 206.1238 211.32415 205.75285 211.57218 204.35967 C 211.72489 203.06871 213.09047 202.52656 217.42273 201.9797 C 220.47437 201.57644 223.32156 200.98255 223.6994 200.47488 C 225.0374 199.14253 229.99334 199.46394 230.04853 201.04432 Z" fill="#ff0000"/>
        </g>
        <g id="Graphic_66">
          <path d="M 177.26693 213.1725 C 177.36131 218.70728 176.95838 224.16054 176.499 225.16552 C 175.20585 227.78193 173.9613 240.28607 173.87445 251.95863 C 173.75749 257.10522 173.36835 262.95357 172.94002 264.84752 C 172.4129 266.74492 172.12474 269.8207 172.18683 271.59864 C 172.24891 273.37656 171.62084 278.04653 170.6723 282.03542 C 169.81908 285.9221 168.91883 291.29383 168.61686 293.9745 C 168.41022 296.553 167.46168 300.54188 166.45795 302.9504 C 165.45077 305.26013 163.91303 309.3685 163.02187 312.16866 C 162.0285 314.8735 160.09566 318.99565 158.78526 321.1182 C 157.37609 323.2442 156.26324 325.35983 156.28048 325.8537 C 156.29428 326.2488 154.84372 327.1895 152.9877 327.84767 C 150.35186 328.82977 148.8668 328.78273 146.26074 327.7859 C 141.14739 325.7888 130.35345 325.37457 124.37308 326.86903 C 118.0964 328.37384 111.53938 327.515 110.95928 325.0629 C 110.60777 323.49285 112.1847 323.3389 129.964 322.71802 C 146.26168 322.1489 149.42934 322.23607 149.86928 323.50633 C 150.83068 325.54954 152.99335 325.17733 154.19463 322.7619 C 155.5831 320.0433 154.61826 317.9013 152.05014 317.991 C 150.96363 318.02893 150.05742 317.5661 150.03672 316.97346 C 150.01603 316.3808 150.79932 316.15567 151.89963 316.51283 C 154.59411 317.2099 155.37615 314.11686 153.1169 311.7234 C 151.37565 310.0041 141.9219 305.4884 137.13247 304.27114 C 133.93721 303.3938 129.64384 299.39015 129.56451 297.11835 C 129.52312 295.93307 131.89933 293.17994 135.83523 289.779 C 141.59955 284.92966 143.67255 281.98933 149.41366 270.81158 C 150.15556 269.40116 151.37753 267.5784 152.04135 266.76405 C 152.60985 266.05194 153.15765 264.74718 153.13006 263.957 C 153.10247 263.1668 153.66407 262.25714 154.4439 261.93323 C 155.12498 261.61276 156.43538 259.49022 157.34378 257.18393 C 158.15341 254.8811 160.34118 249.5633 161.97768 245.45148 C 163.70952 241.23744 165.05316 237.23475 165.02901 236.54333 C 165.00487 235.85191 165.70538 233.2562 166.7022 230.65014 C 171.11442 218.23317 172.17553 214.63592 172.53143 210.66772 C 172.94471 205.51079 174.41127 202.19606 176.01234 202.73352 C 176.81288 203.00224 177.21958 206.15266 177.26693 213.1725 Z" fill="#ff0000"/>
        </g>
        <g id="Graphic_65">
          <path d="M 184.82423 211.52407 C 188.3691 225.24548 198.68392 251.58674 202.31347 256.4047 C 202.72581 256.88478 203.3771 258.54324 203.82393 260.01105 C 204.16854 261.38354 205.53883 263.80804 206.87808 265.34358 C 209.243 267.93114 213.10804 273.82872 217.53249 281.58576 C 218.79366 283.7174 221.31255 287.8819 223.09518 290.78647 C 228.0204 298.7238 227.39012 306.1629 221.67284 309.52716 C 218.66949 311.31324 202.81393 310.3835 196.99537 308.01545 C 194.9923 307.29424 194.98195 306.99792 194.88004 315.4075 C 194.886 321.24205 195.1146 322.1241 197.89186 325.19175 C 200.88048 328.64758 201.7569 331.08933 199.97897 331.1514 C 195.43537 331.3101 189.64534 324.0952 187.673 315.75806 C 186.97688 312.81554 185.61913 307.91824 184.72546 304.98262 C 183.39186 300.77674 182.8541 293.87292 182.12285 272.93286 C 180.60047 226.5057 180.59953 200.99102 182.13287 202.42089 C 182.33732 202.61154 183.5687 206.7221 184.82423 211.52407 Z" fill="#ff0000"/>
        </g>
        <g id="Graphic_64">
          <path d="M 159.7918 208.34356 C 164.94184 208.5593 167.04023 209.17827 167.08852 210.5611 C 167.14026 212.04272 160.7441 212.95833 157.5454 211.9822 C 154.34325 210.9073 148.76143 212.48673 149.8078 214.1314 C 150.53371 215.09499 157.69027 216.1307 162.03287 215.88016 C 165.68405 215.65376 167.0164 216.99176 165.31436 219.22687 C 164.65398 220.13998 164.12687 222.03737 164.0764 223.42366 C 164.15227 225.59668 163.485 226.31224 161.04325 227.18867 C 157.42311 228.30403 156.78343 229.80978 159.84542 229.70285 C 161.32703 229.6511 161.84504 230.32528 161.90713 232.1032 C 161.97956 234.17746 161.4995 234.5898 158.83605 234.7817 C 155.78096 235.08618 155.78096 235.08618 158.36287 235.3916 C 161.4421 235.77854 161.78672 237.15103 159.6253 240.39112 C 158.31145 242.4149 157.42938 242.64348 148.83606 242.94356 C 138.26726 243.31264 137.25538 242.6557 139.73601 237.2288 C 140.56289 235.41982 141.17842 233.22265 141.14393 232.2349 C 141.10944 231.24718 141.74911 229.74142 142.61048 228.9202 C 143.36963 228.00363 143.72334 226.80455 143.40977 226.32103 C 142.99398 225.74218 143.42921 224.04578 144.36521 222.52968 C 145.3012 221.01358 146.11774 218.90828 146.17857 217.81832 C 146.4103 210.29426 148.2754 207.06452 152.0564 207.72364 C 153.44958 207.97167 156.92046 208.24604 159.7918 208.34356 Z" fill="#ff0000"/>
        </g>
        <g id="Graphic_63">
          <path d="M 232.26546 207.8895 C 232.32064 209.46988 230.37276 210.32906 222.82236 212.17503 C 212.12845 214.62525 211.6907 210.58587 222.36393 207.543 C 228.3374 205.851 232.19992 206.0128 232.26546 207.8895 Z" fill="#ff0000"/>
        </g>
        <g id="Graphic_62">
          <path d="M 253.8223 207.82898 C 252.93804 210.8267 237.53183 217.10055 237.43525 214.33489 C 237.46849 212.45473 239.30035 211.10514 243.70723 209.8634 C 246.44875 209.07541 248.98238 207.998 249.56122 207.5822 C 250.90267 206.34863 254.1691 206.43235 253.8223 207.82898 Z" fill="#ff0000"/>
        </g>
        <g id="Graphic_61">
          <path d="M 234.50997 215.52488 C 234.56516 217.10526 228.4252 219.69313 223.29585 220.07004 C 221.12628 220.2447 218.5754 220.82825 217.70024 221.2544 C 216.5322 221.78965 215.73166 221.52092 215.29517 220.34943 C 214.2212 217.91458 215.67522 217.07265 222.65366 215.84001 C 232.08766 214.12605 234.45824 214.04327 234.50997 215.52488 Z" fill="#ff0000"/>
        </g>
        <g id="Graphic_60">
          <path d="M 256.22987 214.46972 C 256.25057 215.06236 255.5833 215.77792 254.80345 216.10184 C 252.66147 217.06669 253.1014 218.33695 255.58455 218.64581 C 258.364 218.94433 259.1313 221.0932 256.78834 221.96618 C 255.81095 222.297 254.1525 222.94828 253.08322 223.4801 C 243.44603 227.8713 240.89516 228.45484 240.83652 226.77569 C 240.77788 225.09653 243.76744 222.91535 246.23333 222.73035 C 247.31984 222.6924 249.06673 221.74135 250.01653 220.62035 C 251.72892 218.68156 251.6267 218.58624 249.84877 218.64832 C 248.76226 218.68626 247.492 219.1262 247.01537 219.63732 C 245.5786 220.97311 239.68322 222.06903 239.64527 220.98252 C 239.62458 220.38988 241.9434 218.8255 244.763 217.4414 C 251.85623 213.8313 256.16778 212.6918 256.22987 214.46972 Z" fill="#ff0000"/>
        </g>
        <g id="Graphic_59">
          <path d="M 236.5259 222.27818 C 236.25373 222.97995 235.0007 223.91375 233.73045 224.3537 C 232.46018 224.79363 228.84004 225.90899 225.81255 227.00365 C 221.22192 228.64737 220.03663 228.68877 218.71463 227.6471 C 216.38074 225.9485 218.28034 223.7065 222.32661 223.4663 C 224.00232 223.30888 226.45787 222.82756 227.8269 222.38417 C 231.8318 220.9587 236.8727 220.88155 236.5259 222.27818 Z" fill="#ff0000"/>
        </g>
        <g id="Graphic_58">
          <path d="M 261.42977 227.44107 C 261.65836 228.32314 261.29775 229.32468 260.51446 229.54982 C 259.82994 229.7715 256.6049 230.87307 253.3833 232.0734 C 247.33176 234.36152 245.0565 234.34208 244.98063 232.16905 C 244.93924 230.98376 247.74504 229.20458 253.7828 226.52138 C 257.18814 224.91905 260.96224 225.38062 261.42977 227.44107 Z" fill="#ff0000"/>
        </g>
        <g id="Graphic_57">
          <path d="M 238.89209 227.73364 C 238.95417 229.51156 228.10755 233.25274 222.18112 233.4597 C 219.81055 233.54248 219.2041 233.16808 219.45214 231.7749 C 219.60485 230.48394 220.87166 229.94523 224.61817 229.6166 C 227.37694 229.32249 229.9278 228.73894 230.49976 228.1256 C 231.54833 227.00114 238.85414 226.64712 238.89209 227.73364 Z" fill="#ff0000"/>
        </g>
        <g id="Graphic_56">
          <path d="M 240.91146 234.58572 C 241.26642 236.25453 240.5957 236.8713 237.26843 237.87755 C 235.01733 238.54953 230.69198 239.29394 227.63344 239.49964 C 223.1955 239.8524 221.99988 239.59747 221.9585 238.4122 C 221.924 237.42445 223.5721 236.47685 226.8075 235.6716 C 229.55247 234.98238 232.39277 234.19094 233.16916 233.76825 C 238.03887 231.6203 240.4198 231.83385 240.91146 234.58572 Z" fill="#ff0000"/>
        </g>
        <g id="Graphic_55">
          <path d="M 264.67457 232.56916 C 265.89434 233.5155 263.41935 236.27208 259.8199 237.9801 C 253.59496 240.9665 248.28187 241.7454 247.52147 239.79408 C 246.6554 237.64865 250.69697 234.4418 254.54915 234.30727 C 256.2283 234.24863 258.17964 233.48823 258.84346 232.6739 C 259.88513 231.3519 263.0459 231.24151 264.67457 232.56916 Z" fill="#ff0000"/>
        </g>
        <g id="Graphic_54">
          <path d="M 243.81635 241.30798 C 244.14372 242.1866 244.2701 242.97334 244.07944 243.1778 C 243.3203 244.09435 226.24747 247.95405 225.04494 247.50157 C 222.5411 246.60007 223.92613 243.78266 227.07654 243.37596 C 228.7488 243.11978 230.40726 242.4685 230.98265 241.95393 C 231.45928 241.44282 232.9271 240.99598 234.4087 240.94425 C 235.79153 240.89596 237.4569 240.44222 238.22983 239.92076 C 239.96637 238.6734 242.96063 239.45887 243.81635 241.30798 Z" fill="#ff0000"/>
        </g>
        <g id="Graphic_53">
          <path d="M 266.44246 240.71565 C 266.75258 241.1004 266.3001 242.30293 265.33996 243.1276 C 263.42657 244.97453 251.90923 249.3325 250.98922 248.47457 C 248.7403 246.37743 253.73858 242.24712 258.87482 242.06776 C 260.35643 242.01602 262.31466 241.45316 263.0876 240.9317 C 264.9229 239.68088 265.7131 239.65328 266.44246 240.71565 Z" fill="#ff0000"/>
        </g>
        <g id="Graphic_52">
          <path d="M 156.60031 247.22157 C 159.17314 250.09855 155.36925 251.6159 144.6029 251.99188 C 139.26911 252.17814 134.91271 252.03358 134.89547 251.5397 C 134.88167 251.14462 135.5248 249.73764 136.37237 248.5213 C 137.68622 246.49754 138.66706 246.2655 146.4702 245.993 C 153.28559 245.755 155.4724 246.07422 156.60031 247.22157 Z" fill="#ff0000"/>
        </g>
        <g id="Graphic_51">
          <path d="M 246.07812 249.43723 C 246.13676 251.11638 244.2911 252.07088 237.82031 253.68137 C 231.05666 255.40097 226.5946 255.06232 226.1236 252.9031 C 225.66298 251.0402 227.90373 250.0719 235.67237 248.81166 C 242.7496 247.57557 246.02293 247.85684 246.07812 249.43723 Z" fill="#ff0000"/>
        </g>
        <g id="Graphic_50">
          <path d="M 270.77158 248.5749 C 270.84746 250.74794 258.8466 255.41947 253.99288 255.1934 C 252.0105 255.06483 252.40435 252.18314 254.37983 252.11415 C 255.2688 252.0831 258.88548 250.86897 262.39305 249.36197 C 269.1222 246.65462 270.69914 246.50066 270.77158 248.5749 Z" fill="#ff0000"/>
        </g>
        <g id="Graphic_49">
          <path d="M 145.59879 255.02282 C 150.14583 254.96293 152.1351 255.28904 152.5647 256.26298 C 153.43077 258.4084 151.14298 260.86177 149.22834 259.8408 C 148.32212 259.37796 144.46305 259.31494 140.52244 259.74923 C 132.83878 260.6109 131.53057 259.96434 133.17053 255.9513 C 134.08584 253.84255 134.5728 253.62776 136.77342 254.34207 C 138.1735 254.78765 142.1417 255.14355 145.59879 255.02282 Z" fill="#ff0000"/>
        </g>
        <g id="Graphic_48">
          <path d="M 249.29658 256.643 C 249.369 258.71726 243.32092 261.10414 234.46577 262.4023 C 229.34677 263.07554 229.248 263.079 229.15832 260.51087 C 229.079 258.23907 229.46373 257.92896 232.8186 257.7129 C 234.79407 257.64392 238.227 256.83178 240.3759 256.06448 C 245.74637 254.09684 249.2138 254.27244 249.29658 256.643 Z" fill="#ff0000"/>
        </g>
        <g id="Graphic_47">
          <path d="M 270.5433 256.19774 C 270.5778 257.18548 261.24383 261.7639 259.26835 261.83287 C 257.68797 261.88806 257.68107 261.6905 258.39538 259.4899 C 258.75253 258.38958 260.2169 257.84397 262.68624 257.75774 C 264.85926 257.68186 266.8175 257.119 267.09657 256.6148 C 267.7466 255.40536 270.50536 255.11123 270.5433 256.19774 Z" fill="#ff0000"/>
        </g>
        <g id="Graphic_46">
          <path d="M 142.71742 263.13388 C 143.31006 263.11318 144.8801 262.76167 146.44668 262.3114 C 148.50023 261.6463 149.09977 261.82316 149.14116 263.00845 C 149.2205 265.28025 148.14778 265.7133 139.68772 266.99766 C 133.78544 267.89603 131.70774 267.8697 130.68551 266.91645 C 129.56105 265.86788 129.64258 265.37056 130.97368 263.84066 C 132.30822 262.40954 133.58538 262.16715 137.16194 262.63562 C 139.64508 262.94448 142.22355 263.15112 142.71742 263.13388 Z" fill="#ff0000"/>
        </g>
        <g id="Graphic_45">
          <path d="M 276.37692 261.8288 C 276.8134 263.00028 264.0879 269.5761 261.12467 269.6796 C 259.64306 269.73133 259.13195 269.2547 259.2881 268.06252 C 259.4477 266.9691 262.0594 265.2956 266.8407 263.44743 C 274.3497 260.41617 275.72564 260.17033 276.37692 261.8288 Z" fill="#ff0000"/>
        </g>
        <g id="Graphic_44">
          <path d="M 251.81673 263.6754 C 251.65367 264.67003 249.6208 265.92775 246.68864 266.9202 C 244.04934 267.8035 241.0253 268.99695 240.15357 269.52187 C 238.0185 270.68426 232.78693 270.96585 232.05412 269.8047 C 230.90552 268.06472 234.08572 265.6791 239.66754 264.09965 C 248.0931 261.82754 252.14284 261.68612 251.81673 263.6754 Z" fill="#ff0000"/>
        </g>
        <g id="Graphic_43">
          <path d="M 144.30846 271.8799 C 144.77944 274.03914 142.53523 274.90866 134.16015 275.7945 C 126.57526 276.65273 125.06951 276.01305 127.22404 272.5754 C 128.44601 270.75264 129.52562 270.51715 136.2457 270.38137 C 142.47534 270.3616 143.9673 270.6062 144.30846 271.8799 Z" fill="#ff0000"/>
        </g>
        <g id="Graphic_42">
          <path d="M 279.32885 267.066 C 280.16388 268.32247 273.68745 272.6033 267.04326 274.9121 C 261.574 276.88318 259.4963 276.85684 260.70794 274.73775 C 261.4533 273.4261 268.84283 269.80564 272.8615 268.77526 C 274.53032 268.4203 276.0831 267.57492 276.36218 267.0707 C 277.11098 265.85782 278.4938 265.80953 279.32885 267.066 Z" fill="#ff0000"/>
        </g>
        <g id="Graphic_41">
          <path d="M 254.0738 268.83797 C 256.70054 270.42745 254.4093 272.78203 248.7356 274.56247 C 240.42262 277.22623 239.64622 277.6489 243.02178 278.0255 C 244.60906 278.16787 246.8705 277.7922 247.93978 277.2604 C 251.8252 275.24573 253.59277 274.88732 255.50742 275.9083 C 256.61118 276.36423 257.23486 277.2325 256.95234 277.63794 C 256.3942 278.64637 248.6842 281.58576 243.48022 282.65753 C 239.65563 283.58224 236.24213 282.11914 237.36188 280.20104 C 237.73628 279.5946 237.5146 278.9101 236.90815 278.5357 C 236.20294 278.16474 235.56545 276.90137 235.42184 275.62076 C 235.05653 273.65563 235.72725 273.03884 239.62992 271.51804 C 242.167 270.5394 244.50307 269.46887 244.88092 268.9612 C 245.83417 267.93898 252.3567 267.8101 254.0738 268.83797 Z" fill="#ff0000"/>
        </g>
        <g id="Graphic_40">
          <path d="M 283.78997 273.04166 C 283.5178 273.74342 281.96156 274.49003 280.2893 274.7462 C 278.51827 275.00585 277.16303 275.84433 276.99308 276.64142 C 276.66697 278.6307 266.52556 282.74282 265.09444 281.40828 C 263.86776 280.26438 266.04298 277.41938 268.216 277.3435 C 270.58658 277.2607 277.01942 274.56372 278.25864 273.23482 C 279.78383 271.59925 284.22866 271.44403 283.78997 273.04166 Z" fill="#ff0000"/>
        </g>
        <g id="Graphic_39">
          <path d="M 231.71327 277.0359 C 231.7857 279.11014 231.20686 279.52593 227.2766 280.25655 C 223.93554 280.8677 222.44703 280.72188 221.8199 279.75484 C 219.63182 276.56774 221.08238 275.62703 228.96705 274.85722 C 231.13662 274.68257 231.6443 275.0604 231.71327 277.0359 Z" fill="#ff0000"/>
        </g>
        <g id="Graphic_38">
          <path d="M 138.46387 280.09444 C 139.7147 281.92976 135.82928 283.94443 130.49549 284.1307 C 124.96415 284.32385 123.24361 283.1972 125.04098 280.85987 C 126.4605 279.0302 137.31527 278.35446 138.46387 280.09444 Z" fill="#ff0000"/>
        </g>
        <g id="Graphic_37">
          <path d="M 287.1991 280.043 C 287.22668 280.8332 285.39137 282.084 283.1506 283.0523 C 273.58805 286.74865 272.02836 287.39648 270.47558 288.24186 C 267.9523 289.6156 265.77237 289.49393 265.7172 287.91355 C 265.662 286.33317 267.70176 285.273 270.9613 285.15917 C 272.93677 285.0902 274.6871 284.2379 282.63134 279.51025 C 285.6347 277.72417 287.12665 277.96875 287.1991 280.043 Z" fill="#ff0000"/>
        </g>
        <g id="Graphic_36">
          <path d="M 233.15725 284.40254 C 232.98385 285.10085 233.93145 286.74897 235.16158 287.99163 L 237.41394 290.18755 L 234.78498 291.3672 C 230.68822 292.99367 229.39381 292.7422 228.60927 290.09944 C 228.2681 288.82573 227.32395 287.2764 226.50962 286.61257 C 223.5624 284.34202 224.79127 282.7168 229.24644 282.8579 C 232.11778 282.95542 233.3203 283.4079 233.15725 284.40254 Z" fill="#ff0000"/>
        </g>
        <g id="Graphic_35">
          <path d="M 129.84672 288.208 C 130.78742 289.65857 128.56391 291.12074 125.2056 291.238 C 122.14361 291.34494 120.50115 289.6222 122.43178 288.26916 C 124.36587 287.0149 129.01169 286.95154 129.84672 288.208 Z" fill="#ff0000"/>
        </g>
        <g id="Graphic_34">
          <path d="M 257.67386 284.13977 C 257.7118 285.22628 249.6343 288.96965 245.7006 289.6015 C 242.26075 290.2161 241.26612 290.05303 240.7274 288.7862 C 239.65344 286.35136 244.42437 284.20687 251.53264 283.85975 C 254.89095 283.74248 257.6635 283.84344 257.67386 284.13977 Z" fill="#ff0000"/>
        </g>
        <g id="Graphic_33">
          <path d="M 285.4685 287.12493 C 285.4754 287.32247 283.2519 288.78464 280.53797 290.36283 C 276.94542 292.26838 275.89685 293.39283 276.6124 294.0601 C 277.4302 294.8227 279.19778 294.4643 282.7019 292.8585 C 290.1971 289.43216 288.9143 292.3449 281.1469 296.473 L 274.63944 299.86487 L 272.2745 297.2773 C 269.078 293.53206 269.094 291.15804 272.55108 291.0373 C 274.02924 290.8868 276.7673 290.00003 278.60607 288.84798 C 281.80352 286.95623 285.43056 286.0384 285.4685 287.12493 Z" fill="#ff0000"/>
        </g>
        <g id="Graphic_32">
          <path d="M 264.50556 290.03264 C 264.94205 291.20413 251.9569 296.00893 247.2192 296.27327 C 244.3582 296.47207 243.75177 296.09767 243.69658 294.5173 C 243.63794 292.83814 244.5131 292.412 249.52988 291.64344 C 252.77217 291.03575 256.9953 290.196 258.85476 289.6366 C 262.77122 288.5109 263.95995 288.56828 264.50556 290.03264 Z" fill="#ff0000"/>
        </g>
        <g id="Graphic_31">
          <path d="M 292.92828 288.34784 C 292.6492 288.85206 291.87626 289.37352 291.3824 289.39077 C 290.78975 289.41146 290.67373 288.92104 290.9528 288.41683 C 291.22843 287.81383 292.00482 287.39114 292.4987 287.3739 C 293.09134 287.3532 293.2039 287.74485 292.92828 288.34784 Z" fill="#ff0000"/>
        </g>
        <g id="Graphic_30">
          <path d="M 125.0507 295.2981 C 125.46649 295.87694 125.58941 296.5649 125.30344 296.87157 C 124.54084 297.68936 118.66144 296.41126 118.6235 295.32475 C 118.57866 294.0407 124.21567 294.04163 125.0507 295.2981 Z" fill="#ff0000"/>
        </g>
        <g id="Graphic_29">
          <path d="M 241.26173 295.59126 C 243.01332 297.60687 241.51572 300.03264 238.25618 300.14646 C 236.47825 300.20855 235.60308 300.6347 236.02232 301.3123 C 236.43466 301.79238 238.12762 302.12884 239.79987 301.87265 C 242.65397 301.4763 242.96064 301.76227 243.04687 304.23162 C 243.0986 305.71323 243.84866 307.36824 244.6561 307.8345 C 246.67297 308.9508 245.9988 309.46883 240.3182 311.05172 C 231.40912 313.6374 233.24913 315.35324 242.35922 312.85944 C 247.55284 311.49134 250.08082 313.08426 246.9144 315.865 C 245.37887 317.20423 243.02555 317.7809 238.58072 317.9361 C 231.96288 318.1672 229.2179 318.85642 229.26964 320.33803 C 229.31104 321.5233 236.61685 321.1693 243.48618 319.6438 C 247.80463 318.70183 249.4838 318.6432 250.4038 319.5011 C 251.83837 320.93443 247.9909 324.0356 244.3397 324.262 C 239.5067 324.62858 220.71332 327.36163 218.16935 328.14273 C 216.79686 328.48734 215.7345 329.2167 215.75174 329.71057 C 215.79658 330.99463 230.30944 330.29004 232.73394 328.91975 C 233.99386 328.1835 234.97815 328.05023 235.6937 328.7175 C 236.40927 329.38477 235.7489 330.2979 233.8079 331.3546 C 229.92594 333.46805 220.24956 333.90485 216.42717 332.06045 C 214.51597 331.13824 212.3326 330.9178 210.56847 331.375 C 207.62595 332.0711 206.5084 331.2201 202.834 325.11806 C 201.15704 322.40758 200.98803 317.56766 202.50287 315.63577 C 203.54455 314.31377 208.48324 314.1413 219.89052 315.12748 C 223.26263 315.4053 227.21358 315.26733 228.58607 314.9227 C 230.7384 314.2542 231.02437 313.9475 229.89302 312.7014 C 228.0392 310.59046 229.7723 309.2443 235.18416 308.46196 C 237.64316 308.0794 239.69326 307.31556 239.67602 306.8217 C 239.65532 306.22905 238.0715 306.18546 235.71471 306.66334 C 232.5712 307.2676 231.67533 307.10108 231.14007 305.93304 C 230.8127 305.05442 230.96197 303.6647 231.6258 302.85036 C 232.57214 301.63058 232.5411 300.7416 231.46712 298.30676 C 230.4035 296.16823 230.36556 295.0817 231.1385 294.56025 C 232.78317 293.51388 240.0247 294.15105 241.26173 295.59126 Z" fill="#ff0000"/>
        </g>
        <g id="Graphic_28">
          <path d="M 296.41547 294.7531 C 296.2455 295.55018 294.6181 297.09042 292.7759 298.1437 C 278.81115 306.04843 275.2829 306.9628 275.13802 302.8143 C 275.08628 301.3327 275.76045 300.81467 277.8347 300.74223 C 279.31286 300.59172 283.60717 298.95835 287.29504 296.95057 C 294.86833 292.92812 296.83 292.46404 296.41547 294.7531 Z" fill="#ff0000"/>
        </g>
        <g id="Graphic_27">
          <path d="M 124.76379 301.24177 C 130.03674 302.14547 130.65698 302.91496 128.35539 304.97322 C 126.91518 306.21025 116.73457 306.36797 115.40567 305.12875 C 115.099 304.84278 115.05761 303.6575 115.41476 302.5572 C 116.0234 300.16247 117.60033 300.0085 124.76379 301.24177 Z" fill="#ff0000"/>
        </g>
        <g id="Graphic_26">
          <path d="M 265.01574 296.14627 C 265.04678 297.03524 255.9069 301.50797 253.73388 301.58385 C 253.04247 301.608 252.3683 302.126 252.1949 302.82433 C 251.65744 304.4254 246.46946 303.12316 246.41082 301.444 C 246.37978 300.55504 248.423 299.59364 252.44857 298.7608 C 255.78618 298.0509 258.9159 297.05154 259.48785 296.4382 C 260.63175 295.21153 264.97435 294.961 265.01574 296.14627 Z" fill="#ff0000"/>
        </g>
        <g id="Graphic_25">
          <path d="M 177.5758 304.14446 C 177.80785 305.1253 177.76081 306.61035 177.29109 307.319 C 176.54229 308.5319 176.24252 308.44347 175.41093 307.28578 C 174.26234 305.5458 174.0096 303.9723 174.9663 303.04885 C 176.01142 301.82562 177.01295 302.18623 177.5758 304.14446 Z" fill="#ff0000"/>
        </g>
        <g id="Graphic_24">
          <path d="M 268.4374 300.67482 C 269.97418 302.20346 267.56692 304.06762 261.5969 305.8584 C 253.764 308.10982 251.8368 309.56164 256.67672 309.39263 C 258.55342 309.3271 260.61042 308.7608 261.18237 308.14745 C 262.51692 306.71633 265.4124 307.50526 265.47794 309.38197 C 265.53313 310.96235 260.173 313.2263 255.92572 313.37463 C 253.3576 313.4643 252.54672 312.89926 251.0604 309.98433 C 249.04573 306.0989 249.60733 305.18926 254.4093 303.93373 C 255.7818 303.58912 259.1125 302.68165 261.75526 301.8971 C 268.01815 299.9972 267.72183 300.00755 268.4374 300.67482 Z" fill="#ff0000"/>
        </g>
        <g id="Graphic_23">
          <path d="M 300.3586 300.05458 C 301.1936 301.31104 297.2646 304.90955 294.8975 305.0911 C 294.00852 305.12215 292.3604 306.06975 291.20962 307.09888 C 288.6255 309.56258 281.66085 311.1903 280.0253 309.6651 C 279.2075 308.90252 279.29593 308.60275 280.38244 308.5648 C 282.4567 308.49237 290.02998 304.46993 292.42344 302.21067 C 294.05086 300.67042 295.8965 299.71592 298.94126 299.11513 C 299.33635 299.10133 299.9428 299.47573 300.3586 300.05458 Z" fill="#ff0000"/>
        </g>
        <g id="Graphic_22">
          <path d="M 138.63383 310.44906 C 139.83981 311.0003 141.83253 311.4252 143.12004 311.47913 C 144.4041 311.4343 142.7491 312.18434 139.5137 312.98958 C 136.27831 313.79482 133.22667 314.19807 132.82467 314.01432 C 132.32046 313.73525 127.86184 313.49537 122.91625 313.4703 C 114.21035 313.37872 111.41709 312.6851 112.63217 310.6648 C 113.37752 309.35314 136.01397 309.05713 138.63383 310.44906 Z" fill="#ff0000"/>
        </g>
        <g id="Graphic_21">
          <path d="M 271.6386 307.38674 C 271.19992 308.98436 268.4515 309.5748 268.4032 308.19198 C 268.35837 306.9079 270.46586 304.95533 271.37552 305.51693 C 271.8763 305.69723 272.0061 306.58275 271.6386 307.38674 Z" fill="#ff0000"/>
        </g>
        <g id="Graphic_20">
          <path d="M 126.08861 316.5241 C 130.06716 317.17634 127.96657 319.32647 122.84068 319.80216 C 115.54866 320.55127 107.24695 317.87434 111.64004 316.23752 C 113.00563 315.69536 122.60738 315.95343 126.08861 316.5241 Z" fill="#ff0000"/>
        </g>
        <g id="Graphic_19">
          <path d="M 141.14708 317.2839 C 144.43076 317.8615 144.4342 317.96026 142.3841 318.7241 C 139.74825 319.7062 131.31798 319.01165 131.27659 317.82636 C 131.2214 316.246 132.68231 315.6016 135.1758 316.2068 C 136.57244 316.5536 139.26003 317.0531 141.14708 317.2839 Z" fill="#ff0000"/>
        </g>
        <g id="Graphic_18">
          <path d="M 275.27505 312.40225 C 275.49674 313.08677 275.12924 313.89076 274.34595 314.1159 C 273.66143 314.3376 271.11745 315.1187 268.67225 315.89634 C 266.22705 316.674 263.10078 317.7721 261.63642 318.3177 C 260.27083 318.85987 258.10816 319.23207 256.8172 319.07936 C 254.63383 318.85893 254.63038 318.76015 256.2509 317.02236 C 257.2076 316.0989 259.15547 315.23973 260.63708 315.188 C 262.1187 315.13625 265.05086 314.1438 267.18594 312.9814 C 271.262 310.7623 274.5181 310.5497 275.27505 312.40225 Z" fill="#ff0000"/>
        </g>
        <g id="Graphic_17">
          <path d="M 296.2427 312.4612 C 296.30823 314.3379 288.21348 317.5874 284.92635 316.91104 C 281.33945 316.14625 282.77277 314.71168 289.50538 312.1031 C 294.87585 310.13547 296.16336 310.1894 296.2427 312.4612 Z" fill="#ff0000"/>
        </g>
        <g id="Graphic_16">
          <path d="M 267.8018 319.28914 C 267.8156 319.68424 260.2906 325.0895 259.59917 325.11366 C 259.30285 325.124 259.0846 324.53826 259.057 323.74807 C 259.03287 323.05666 260.66718 321.71396 262.7104 320.75256 C 266.50738 319.03766 267.7811 318.6965 267.8018 319.28914 Z" fill="#ff0000"/>
        </g>
        <g id="Graphic_15">
          <path d="M 168.50019 89.5641 C 166.2124 92.01745 169.29414 98.14018 173.5966 99.57224 C 176.39676 100.4634 177.47983 100.32668 180.3913 98.7416 C 183.405 97.25184 183.87128 96.4444 183.7747 93.67873 C 183.71261 91.9008 183.26578 90.43299 182.67313 90.45369 C 182.17927 90.47093 181.6992 90.88328 181.71989 91.47592 C 181.73713 91.96979 180.89646 93.38367 179.8479 94.50812 C 177.36945 97.16592 172.87289 95.83953 170.75254 91.76001 C 169.90372 90.10845 168.88148 89.15521 168.50019 89.5641 Z" fill="#cccccc"/>
        </g>
        <g id="Graphic_14">
          <path d="M 135.2084 203.86174 C 135.22565 204.3556 136.42818 204.80809 137.81101 204.7598 C 139.19385 204.7115 140.06901 204.28537 139.65322 203.70652 C 139.3362 203.12423 138.13712 202.77052 137.05061 202.80846 C 136.06287 202.84296 135.1877 203.2691 135.2084 203.86174 Z" fill="#cccccc"/>
        </g>
        <g id="Graphic_13">
          <path d="M 104.25113 305.71607 C 103.28753 306.44198 103.29788 306.7383 104.20754 307.2999 C 104.81398 307.6743 105.79827 307.54103 106.37022 306.9277 C 107.60944 305.5988 105.89579 304.6697 104.25113 305.71607 Z" fill="#cccccc"/>
        </g>
        <g id="Graphic_12">
          <path d="M 192.56621 203.83664 C 191.50384 204.566 192.6007 204.82438 196.25534 204.69676 C 199.021 204.60018 201.67065 204.01318 201.94973 203.50897 C 202.69508 202.1973 194.49685 202.4836 192.56621 203.83664 Z" fill="#cccccc"/>
        </g>
        <g id="Graphic_11">
          <path d="M 194.57524 210.3924 C 191.73494 211.18385 192.58032 212.73664 195.74109 212.62626 C 199.0994 212.50899 200.52927 210.97564 198.12765 210.16946 C 197.22834 209.90418 196.53002 209.73078 196.43125 209.73423 C 196.33592 209.83645 195.45386 210.06504 194.57524 210.3924 Z" fill="#cccccc"/>
        </g>
        <g id="Graphic_10">
          <path d="M 198.26374 225.39443 C 198.30858 226.67849 204.235 226.47153 206.16565 225.11849 C 207.22801 224.38913 206.3287 224.12385 202.9704 224.24112 C 200.3035 224.33425 198.24304 224.80178 198.26374 225.39443 Z" fill="#cccccc"/>
        </g>
        <g id="Graphic_9">
          <path d="M 168.63379 254.8118 C 168.13428 257.49938 167.35569 260.69118 166.9101 262.09126 C 166.5633 263.4879 165.78126 266.58093 165.0773 269.07787 C 164.47212 271.57136 163.66594 273.97297 163.19276 274.58286 C 162.81491 275.09053 162.475 276.6847 162.52675 278.1663 C 162.57848 279.64792 162.23858 281.2421 161.65628 281.5591 C 161.17276 281.8727 160.72373 283.174 160.76512 284.35928 C 160.82721 286.1372 157.32685 296.34666 153.86319 304.77473 C 153.59101 305.4765 153.90803 306.0588 154.50067 306.0381 C 156.97002 305.95186 162.48818 291.2217 167.60184 270.572 C 172.7224 250.11987 172.71895 250.0211 171.0398 250.07974 C 170.2496 250.10733 169.33085 252.1173 168.63379 254.8118 Z" fill="#cccccc"/>
        </g>
        <g id="Graphic_8">
          <path d="M 188.3594 241.95896 C 187.7749 245.0451 188.43998 247.09865 193.32505 256.7186 C 195.55107 260.9922 198.00913 266.24666 198.77643 268.39554 C 199.6425 270.54097 201.63993 273.9325 203.19052 275.85625 C 208.7692 282.68294 216.8646 296.44323 216.85205 298.91602 C 216.80156 300.3023 216.06656 301.9103 215.20174 302.63274 C 213.46865 303.9789 214.16477 306.9214 216.23902 306.84897 C 216.93044 306.82483 218.39135 306.18045 219.3515 305.35576 C 221.66343 303.59383 221.55525 297.66395 219.0329 293.40068 C 218.0853 291.75257 217.32835 289.9 217.30076 289.10982 C 217.27662 288.4184 215.70188 285.80325 213.83427 283.2972 C 206.89564 274.34235 198.52463 261.18505 196.77869 256.4991 C 195.7966 253.86324 194.3987 250.64854 193.659 249.28986 C 192.9193 247.93117 192.03252 245.1931 191.565 243.13264 C 190.62994 239.01173 189.12418 238.37206 188.3594 241.95896 Z" fill="#cccccc"/>
        </g>
        <g id="Graphic_7">
          <path d="M 154.2172 218.62545 C 152.79077 220.25757 153.8061 221.01326 157.16442 220.896 C 159.53499 220.8132 160.50893 220.38362 160.28034 219.50155 C 159.74163 218.23474 155.26576 217.501 154.2172 218.62545 Z" fill="#cccccc"/>
        </g>
        <g id="Graphic_6">
          <path d="M 148.1415 220.22213 C 147.7671 220.82857 148.66987 221.19262 150.0527 221.14434 C 151.43553 221.09605 152.60357 220.56079 152.58633 220.06692 C 152.56563 219.47427 151.66287 219.11022 150.67513 219.14471 C 149.58862 219.18266 148.41713 219.61914 148.1415 220.22213 Z" fill="#cccccc"/>
        </g>
        <g id="Graphic_5">
          <path d="M 147.70565 236.06044 C 148.01922 236.54396 148.92543 237.0068 149.71562 236.9792 C 150.5058 236.9516 151.37753 236.4267 151.6566 235.92247 C 152.031 235.31603 151.12824 234.95198 149.64663 235.00372 C 148.16502 235.05545 147.28986 235.4816 147.70565 236.06044 Z" fill="#cccccc"/>
        </g>
        <g id="Graphic_4">
          <path d="M 206.50337 319.74852 C 206.5689 321.62523 211.1539 322.65185 217.46507 322.13477 C 226.73947 321.51422 227.32866 321.39475 227.29072 320.30824 C 227.26657 319.61682 224.49056 319.4171 220.14796 319.66762 C 216.20045 319.90437 211.44896 319.7736 209.756 319.43715 C 207.8655 319.1076 206.48613 319.25466 206.50337 319.74852 Z" fill="#cccccc"/>
        </g>
      </g>
    </g>
  </g>
</svg>
