<?xml version="1.0" encoding="UTF-8" standalone="no"?>
<!DOCTYPE svg PUBLIC "-//W3C//DTD SVG 1.1//EN" "http://www.w3.org/Graphics/SVG/1.1/DTD/svg11.dtd">
<svg xmlns:dc="http://purl.org/dc/elements/1.1/" xmlns:xl="http://www.w3.org/1999/xlink" version="1.1" xmlns="http://www.w3.org/2000/svg" viewBox="49.5 62.29167 265.5 288.70833" width="265.5" height="288.70833">
  <defs>
    <clipPath id="artboard_clip_path">
      <path d="M 49.5 62.29167 L 315 62.29167 L 315 351 L 49.5 351 Z"/>
    </clipPath>
  </defs>
  <metadata> Produced by OmniGraffle 7.7.1 
    <dc:date>2018-03-18 08:21:30 +0000</dc:date><dc:title>Traceable heraldic art http://heraldicart.org/credits.html</dc:title>
  </metadata>
  <g id="Bagpipe" fill-opacity="1" stroke-dasharray="none" stroke="none" stroke-opacity="1" fill="#ffff00">
    <title>Bagpipe</title>
    <g id="Bagpipe: Layer 2" >
      <title>Layer 2</title>
      <g id="Group_3">
        <g id="Graphic_86">
          <path d="M 107.83909 222.3476 C 109.25316 220.47876 118.58726 212.21796 120.00932 211.58482 C 120.97891 211.15313 121.53942 211.3683 121.9999 212.40252 C 130.16567 230.22126 134.0495 236.85695 140.10274 243.14638 C 143.28034 246.45623 156.8089 258.40194 161.45949 262.06286 C 162.37951 262.73757 163.7383 264.22382 164.54367 265.33685 C 165.34903 266.44988 167.37637 268.5679 169.05128 270.0683 C 170.69741 271.50408 172.3006 273.19133 172.53084 273.70844 C 172.76107 274.22555 173.27864 274.6922 173.71695 274.80685 C 175.26167 274.97108 182.50195 283.75266 184.5953 287.9325 C 189.7171 298.04456 195.5401 303.81688 205.9751 309.1623 C 212.16997 312.29057 213.05368 312.36183 223.59924 310.9971 C 237.80846 309.163 244.71824 306.93856 252.0716 301.88323 C 263.8341 293.85792 265.9743 292.75015 271.2256 292.19352 C 278.359 291.3411 286.44643 288.2825 288.7867 285.5366 C 290.82546 283.1573 291.61872 276.7628 290.23732 273.6601 C 289.1725 271.26846 288.96167 267.4897 289.5336 263.2075 C 289.8125 261.22448 289.897 258.63092 289.63754 257.3523 C 289.3422 256.1671 289.44842 253.79622 289.8712 252.1364 C 291.60482 244.5487 292.47506 235.02183 291.71172 232.26359 C 290.08455 226.8693 284.1389 220.2996 270.79763 209.12249 C 263.55918 203.1284 260.8496 201.39158 253.00198 197.68247 C 245.5856 194.24607 243.52285 192.91834 242.73873 191.33114 C 241.61634 188.8102 241.67596 181.11585 242.88538 173.91645 C 243.40067 170.89874 243.89335 166.26458 243.94908 163.60638 C 244.1606 157.4709 245.49586 155.94697 251.3648 155.03792 C 253.56298 154.75629 259.23045 153.39476 264.00713 152.12002 C 268.7838 150.84529 278.20082 148.51143 284.98177 147.0414 C 297.17164 144.32497 297.3297 144.33205 301.4472 145.75183 C 303.66046 146.54783 305.96715 147.3797 306.55644 147.6595 C 307.0523 147.90343 308.57533 147.84496 309.7893 147.61427 C 311.67847 147.16043 312.23853 146.67872 312.93403 144.58765 C 313.4073 143.21515 313.65785 141.86435 313.51396 141.54115 C 313.3413 141.15332 313.49843 139.76666 313.7202 138.35122 C 314.47944 134.83763 313.74443 131.44715 310.8882 125.20592 C 308.3844 119.5823 306.0622 116.97595 303.77766 117.06365 C 302.06072 117.20846 302.12536 117.17968 301.43694 119.11269 C 301.10712 120.11152 299.5784 122.41866 298.0709 124.25162 L 295.35742 127.55097 L 285.31572 130.39531 C 279.79923 131.92198 271.83352 134.3842 267.58857 135.80946 C 256.13943 139.66771 246.74412 142.22426 244.02836 142.03925 C 242.7639 141.9826 240.89552 141.2654 239.91794 140.46141 C 237.99156 138.91806 234.5819 132.30361 233.62373 128.23796 C 233.06185 125.93219 233.2053 125.55852 235.0152 124.7527 C 236.11406 124.26345 237.3059 123.11319 237.7579 122.21487 C 238.36045 120.78481 240.6082 119.39678 252.17818 113.54842 C 267.66945 105.72183 269.37177 105.19627 276.85142 106.51327 C 282.35512 107.39333 283.11618 106.66722 283.2055 100.43125 C 283.35373 96.41516 283.0801 95.45265 280.60554 90.59055 C 278.3612 86.24555 277.13878 84.54369 274.20603 82.13171 C 271.2445 79.655085 270.25276 79.16721 268.7085 79.69985 C 267.6167 80.03104 266.3961 81.11666 265.77186 82.32402 C 265.14763 83.53138 264.3724 84.5736 264.0492 84.7175 C 263.79066 84.83261 262.71394 86.24143 261.65893 87.87294 C 260.63978 89.41104 258.65103 91.38082 257.2219 92.17202 C 255.79274 92.96322 251.65628 95.50196 247.94352 97.77461 C 229.8322 108.9364 230.70836 108.46886 228.18651 108.1975 C 224.5007 107.74731 220.89553 109.7397 219.3243 112.99519 C 218.06875 115.56797 217.37942 116.10724 209.64486 120.48032 C 205.063 123.06246 198.61415 127.01801 195.34679 129.24726 C 187.27533 134.77722 180.10082 138.6686 179.14494 138.0873 C 178.0093 137.27622 175.28029 138.80106 173.62228 141.16576 C 172.8112 142.3014 170.50634 144.25703 168.45958 145.40066 C 166.4416 146.60893 161.87437 149.57183 158.34137 152.07425 C 152.10105 156.32422 151.77785 156.46812 148.83231 156.46286 C 146.26753 156.44299 145.13988 156.8676 141.5564 159.08269 C 138.03755 161.269 137.10382 161.60727 135.95402 161.11231 C 134.86178 160.74663 132.71406 161.31559 128.00248 163.25842 L 121.42343 165.87779 L 119.75423 162.1287 C 118.28649 158.8321 118.2214 158.16401 119.24101 157.3228 C 119.90156 156.71888 120.71972 155.42519 121.07832 154.491 C 121.43692 153.55681 122.21213 152.5146 122.72925 152.28436 C 123.311 152.02535 124.80433 150.5085 126.08204 148.85528 C 127.35975 147.20207 129.047 145.59888 129.82267 145.25353 C 130.66298 144.8794 131.63211 143.75084 132.06243 142.62982 L 132.77963 140.76145 L 129.77517 138.5363 C 127.53266 136.9788 126.84242 136.12432 127.1293 135.37697 C 127.91822 133.32176 126.30041 131.25376 123.8866 131.39903 C 122.61506 131.50044 121.5516 131.1994 121.5082 130.754 C 121.49358 130.37325 122.5623 127.72875 123.91836 125.03377 C 128.40269 116.14394 130.90626 110.45957 134.4564 101.21113 C 136.42162 96.23117 138.78176 90.92048 139.80092 89.38238 L 141.57359 86.57937 L 155.33467 80.60745 C 165.2174 76.36228 169.34015 74.83652 170.24556 75.13048 C 172.0493 75.87646 174.97222 74.26528 175.11475 72.49786 C 175.24974 70.191635 173.09883 65.8825 171.59705 65.4668 C 170.53359 65.16576 169.43472 65.655006 166.32541 67.89134 C 161.58596 71.16327 152.2779 75.30748 146.48115 76.72657 C 140.74904 78.11688 135.34812 80.59898 133.76891 82.61878 C 131.8882 85.00518 127.66906 92.92497 126.6796 95.92144 C 125.75477 98.88914 119.21044 110.63246 113.61263 119.63079 C 106.98858 130.32527 107.42644 129.74306 104.81871 129.97466 C 101.03286 130.34354 98.44775 132.19158 98.39909 134.69173 C 98.33582 136.81112 98.20654 136.86868 94.15551 138.2076 C 88.62486 140.05038 86.76539 141.9626 87.88778 144.48354 C 88.72238 146.35808 88.22125 149.05968 86.99311 149.60648 C 86.66991 149.75038 86.81426 150.77045 87.30351 151.86931 C 88.05177 153.54993 87.69363 155.18099 85.39859 161.15978 C 83.21821 166.70025 81.50309 169.63254 77.98562 173.90946 C 73.69293 179.2286 73.23337 179.58812 69.14648 181.02046 C 63.83852 182.84155 61.54828 185.17792 56.93422 193.42845 C 53.52569 199.51572 52.62919 201.8512 52.258254 205.88897 C 51.99444 208.94963 52.71392 210.5656 55.95662 214.54355 C 61.90982 221.65205 61.75884 221.4869 60.768466 223.08964 C 60.21595 224.11017 60.2381 225.02973 60.89249 225.97763 C 62.07906 227.7729 61.125004 229.9791 56.810615 235.07554 C 54.83649 237.42608 53.465815 239.7403 53.52383 240.56645 C 53.783756 242.54194 56.399475 243.54602 59.34456 242.8544 C 61.1403 242.3647 61.83009 242.5223 61.8881 243.34846 C 61.98243 244.77806 64.088574 246.55118 65.18744 246.06194 C 65.63992 245.86048 66.46607 245.80247 67.12708 245.89543 C 68.03956 246.03133 68.1476 246.44795 67.87579 248.27292 C 67.360504 251.29064 69.37323 253.0279 72.90052 252.77415 C 76.14048 252.57087 76.730225 253.54754 77.38118 260.22845 C 78.19819 268.15213 75.48443 325.9008 74.320925 326.4188 C 72.83422 327.08074 72.43314 328.96327 73.511675 330.34194 C 75.07192 332.28066 71.76298 336.852 67.43215 338.7802 C 66.46256 339.2119 65.57223 339.99556 65.52221 340.4051 C 65.3292 341.88518 67.71606 344.46275 70.13786 345.55317 C 71.44572 346.0552 72.61722 346.77287 72.732335 347.03143 C 73.07769 347.8071 80.40636 348.95896 84.01999 348.89912 C 85.70107 348.84773 90.16209 348.2557 93.92624 347.66413 C 108.76724 345.1615 112.50215 343.8084 114.09461 340.07874 C 115.22797 337.40547 114.78874 335.89706 112.76985 335.7116 C 111.97956 335.6762 110.28341 334.64996 109.13315 333.45813 C 107.09873 331.49816 106.92606 331.11033 107.45688 329.8671 C 107.77962 329.02634 107.54893 327.81236 107.01674 326.96496 C 104.03968 322.71385 97.83411 292.24957 95.91002 272.27147 C 95.26661 266.12937 94.493 258.65108 94.15336 255.62674 L 93.48162 250.11687 L 96.64894 248.7067 C 99.0406 247.64186 99.83043 246.9804 99.98049 245.7518 C 100.08053 244.93272 100.33818 243.42386 100.60336 242.45382 C 101.062 240.70056 101.19128 240.643 103.20309 240.98653 C 106.03397 241.4301 107.7146 240.68184 108.34546 238.61955 C 109.04096 236.52848 108.60927 235.5589 105.79826 232.55054 C 104.25263 230.99257 103.69875 229.92248 103.94977 229.26855 C 104.12907 228.80146 104.07813 227.81725 103.81912 227.2355 C 103.50255 226.52447 103.95457 225.62614 105.19687 224.76322 C 106.24526 223.98664 107.40123 222.9298 107.83909 222.3476 Z M 216.7506 132.265 L 216.7506 132.265 C 216.6935 132.83259 216.36413 134.52828 216.01307 136.00128 C 215.662 137.47428 215.5912 139.05486 215.8502 139.63661 C 216.08045 140.15373 215.78694 141.756 215.14854 143.27948 C 214.57478 144.77418 214.15908 146.27595 214.30298 146.59915 C 214.44687 146.92235 214.03117 148.42412 213.4862 149.98346 L 212.34575 152.8148 L 203.88417 155.03308 C 199.23677 156.25026 194.04347 157.63303 192.31237 158.09396 C 190.61005 158.61952 188.4765 158.87236 187.56401 158.73646 C 186.58689 158.62934 183.57008 159.50779 180.07956 161.06187 C 173.17024 163.9832 158.13624 167.96592 156.36129 167.28458 C 155.36247 166.95476 155.18979 166.56692 155.43327 165.37418 C 155.87022 163.39823 173.07043 154.19114 179.35552 152.47718 C 182.55916 151.67045 183.95244 150.97267 185.3165 149.51337 C 187.31232 147.38553 203.5425 137.91327 214.1358 132.65466 C 216.1467 131.60444 216.81478 131.53935 216.7506 132.265 Z M 227.3238 140.18229 L 227.3238 140.18229 C 228.15086 141.51801 229.8116 143.33454 230.84674 144.26781 C 231.94652 145.1723 232.7302 146.06264 232.65847 146.24947 C 232.58675 146.43631 229.88606 147.32892 226.73998 148.26493 C 221.05835 149.94258 221.05835 149.94258 221.86896 148.11007 C 222.32806 147.05369 222.5069 145.88972 222.30545 145.43725 C 222.104 144.98477 222.36918 144.01473 222.90754 143.31032 C 223.4459 142.60591 223.73985 141.7005 223.5384 141.24803 C 223.33694 140.79556 223.32895 139.55987 223.53657 138.46055 C 224.05232 136.1397 224.73503 136.45536 227.3238 140.18229 Z M 171.6744 172.6268 L 171.6744 172.6268 C 177.306 171.3587 180.77574 170.97566 183.0678 171.42676 C 186.337 171.985 189.86384 171.03437 190.05684 169.55429 C 190.24277 168.23227 195.07655 166.38994 202.2024 164.99871 L 208.847 163.7443 L 207.3612 165.79997 C 206.5789 167.00025 205.92635 168.83984 205.9702 169.9821 C 206.02959 172.89887 204.0011 179.99822 202.42234 182.7149 L 201.1234 184.84228 L 196.15941 185.34843 C 188.32915 186.2013 183.28592 186.35546 177.6317 186.00714 C 174.75788 185.81504 171.88406 185.62295 171.25183 185.59463 C 169.67125 185.52382 164.00287 185.4916 159.40503 185.60238 C 155.7914 185.66222 155.7914 185.66222 154.59683 182.63126 C 153.39518 179.75835 153.40226 179.6003 155.25556 179.23987 C 156.24685 179.03088 157.676 178.23967 158.43705 177.51357 C 160.39701 175.47915 162.91086 174.51481 171.6744 172.6268 Z M 227.32195 159.3139 L 227.32195 159.3139 C 230.8705 158.58598 234.08166 158.31806 234.48412 158.52614 C 234.8507 158.82763 234.93796 160.4153 234.64446 162.01757 C 234.37973 163.68449 234.30184 165.42312 234.56086 166.00488 C 234.7911 166.52199 234.66318 168.67016 234.31965 170.68197 C 233.9115 172.72256 233.96334 175.1005 234.33747 175.94082 C 234.7116 176.78113 234.8564 178.49807 234.6417 179.75545 C 234.36236 181.0416 233.96173 183.62101 233.68284 185.60405 C 233.21803 188.9091 233.0529 189.06007 231.32134 188.82413 C 230.31543 188.65237 227.23353 188.86273 224.4536 189.40336 C 219.2169 190.34074 214.54733 190.63835 214.3171 190.12124 C 214.23076 189.92732 215.81088 189.30126 217.8364 188.6318 L 221.43496 187.49433 L 220.4768 183.42868 C 219.31717 178.91056 219.27286 177.07142 219.87312 172.15701 C 220.14493 170.33204 219.91378 168.42118 219.43207 167.86113 C 218.61963 166.90616 219.38457 161.1439 220.4188 160.68343 C 220.67735 160.56831 223.80927 159.94842 227.32195 159.3139 Z" fill="#cccccc"/>
        </g>
        <g id="Graphic_85">
          <path d="M 159.64107 74.27532 C 162.29128 73.09537 165.91816 71.32567 167.57708 70.35471 C 170.3061 68.82987 170.75149 68.78647 171.43465 69.799 C 171.81586 70.48125 172.05363 71.53718 171.96067 72.19819 C 171.82477 73.11068 171.50157 73.25457 169.83466 72.98985 C 168.16774 72.72512 165.108 73.85505 153.41537 78.90604 L 139.00789 85.16576 L 136.21652 90.20373 C 134.73118 92.95627 133.38267 96.19006 133.20382 97.35402 C 133.08962 98.4892 131.65522 102.22595 130.17034 105.67535 C 128.59204 109.0889 126.4112 113.9325 125.38543 116.32552 C 124.295 118.74732 122.55157 122.31184 121.45362 124.19483 C 120.38444 126.14246 119.39452 128.44206 119.20106 129.22527 C 119.03638 130.07312 118.49094 130.93559 118.03847 131.13704 C 116.81032 131.68385 109.65432 130.91982 109.74728 130.2588 C 109.82608 129.91391 111.0604 127.8153 112.49571 125.4723 C 121.402 111.20577 126.9635 101.60399 128.44838 98.15458 C 129.43122 96.01304 131.36104 91.82337 132.85345 88.91277 L 135.55848 83.68088 L 145.16141 80.025 C 150.47645 78.045855 156.99086 75.45527 159.64107 74.27532 Z" fill="#ff0000"/>
        </g>
        <g id="Graphic_84">
          <path d="M 101.34463 134.69698 C 101.48853 135.02018 101.30923 135.48727 100.92139 135.65995 C 100.5982 135.80384 100.32502 135.5382 100.37504 135.12867 C 100.39629 134.6545 100.60436 134.25204 100.79828 134.1657 C 100.92756 134.10815 101.17196 134.30915 101.34463 134.69698 Z" fill="#ff0000"/>
        </g>
        <g id="Graphic_83">
          <path d="M 104.73648 136.05258 C 104.34202 137.08019 103.5225 136.28327 103.4928 134.82489 C 103.42725 133.45993 103.49189 133.43115 104.17506 134.44368 C 104.59213 135.03251 104.84406 135.77233 104.73648 136.05258 Z" fill="#ff0000"/>
        </g>
        <g id="Graphic_82">
          <path d="M 107.93921 133.85211 C 108.34212 134.75706 107.80467 136.8552 107.24416 136.64005 C 106.49681 136.35317 106.44497 133.97522 107.156 133.65865 C 107.4792 133.51475 107.82409 133.59355 107.93921 133.85211 Z" fill="#ff0000"/>
        </g>
        <g id="Graphic_81">
          <path d="M 107.97164 139.49171 C 113.50457 141.13328 114.29577 142.56242 111.35206 145.34465 C 109.43504 147.1276 109.21234 147.1493 108.72309 146.05043 C 108.03239 144.49908 106.32299 145.1827 106.1446 147.04354 C 106.02332 148.33678 105.95868 148.36556 105.31845 147.10155 C 104.9731 146.32588 104.92217 145.34168 105.25952 144.88166 C 105.63274 144.32823 105.42421 144.03382 104.54758 143.8045 C 103.85779 143.6469 102.71507 142.99388 102.01774 142.29746 L 100.70943 141.09855 L 99.52559 143.4845 C 98.82255 145.03675 98.67957 146.1073 99.233 146.48051 C 99.78643 146.85373 99.74349 147.1052 99.0754 147.1703 C 98.47194 147.20662 97.77462 146.5102 97.44343 145.41842 C 96.83153 143.52218 96.10588 143.458 95.29526 145.2905 C 94.9008 146.31811 94.7786 146.21761 94.58377 144.9102 C 94.3597 142.8413 92.97304 142.68415 92.28462 144.61716 C 91.9331 145.39329 91.59574 145.8533 91.45185 145.5301 C 90.67481 143.78484 92.28325 142.52655 97.67001 140.36057 C 103.25069 138.10825 103.31533 138.07947 107.97164 139.49171 Z" fill="#ff0000"/>
        </g>
        <g id="Graphic_80">
          <path d="M 98.46623 149.45529 C 104.65927 149.79607 116.85941 151.79967 117.64307 152.69 C 117.97381 153.08492 117.78743 153.71007 117.32079 154.22764 C 116.72488 154.80277 115.08674 154.60269 112.18368 153.64908 C 106.75833 151.72726 98.89084 150.58293 95.16255 151.08109 C 92.23163 151.45659 90.1835 150.5096 92.05804 149.675 C 92.63979 149.416 95.52777 149.29197 98.46623 149.45529 Z" fill="#ff0000"/>
        </g>
        <g id="Graphic_79">
          <path d="M 122.36152 139.28113 C 122.69934 139.51799 123.6189 139.49584 124.2653 139.20804 C 125.55808 138.63246 128.50454 140.03146 129.13768 141.45352 C 129.33913 141.906 128.93006 142.55284 128.21902 142.86942 C 127.50799 143.18599 125.82075 144.78918 124.4784 146.47117 C 122.69819 148.73537 121.5493 149.63415 120.04798 149.91532 L 117.9432 150.2328 L 119.84607 148.76597 C 122.63926 146.51548 120.82845 145.92755 117.38132 147.92703 C 114.84623 149.36554 114.71695 149.4231 116.04514 148.05722 C 116.84205 147.2377 117.38749 146.37523 117.2436 146.05203 C 117.12848 145.79348 116.23769 145.88027 115.23932 146.24732 C 113.49406 147.02436 113.52992 146.93094 115.34645 145.2702 C 116.63877 143.99774 117.02615 143.1282 116.55152 142.41008 C 116.01934 141.56269 116.38547 141.16732 118.77713 140.10248 C 120.39311 139.383 121.99493 138.97964 122.36152 139.28113 Z" fill="#ff0000"/>
        </g>
        <g id="Graphic_78">
          <path d="M 94.60386 153.6534 C 95.58807 153.60247 95.76782 153.83225 95.50264 154.8023 C 95.00814 156.64897 95.89185 156.72023 97.42812 154.9519 C 99.19416 153.00382 101.16258 152.90195 101.36494 154.74817 C 101.50222 155.9263 101.84711 156.0051 103.62823 155.13464 C 105.18665 154.28588 105.75425 154.34298 105.97032 155.1762 C 106.21517 156.07408 106.66057 156.03068 107.83823 155.19654 C 109.27446 154.24728 109.43252 154.25436 109.86466 155.92082 C 110.23217 157.61606 110.419 157.68778 111.63253 156.76022 C 112.5875 155.94777 113.12632 155.94024 113.44289 156.65127 C 113.67312 157.16838 114.25533 157.60624 114.70073 157.56284 C 115.21076 157.49067 115.49855 158.13706 115.5641 159.50202 C 115.68722 160.99626 115.314 161.5497 114.22929 161.72282 C 113.43192 161.84548 111.63664 163.03205 110.21503 164.36207 C 106.9769 167.35283 106.00731 167.78452 107.1699 165.87275 C 108.68402 163.18485 106.72314 163.82554 103.34865 167.03191 C 99.7373 170.5761 97.41737 171.4541 99.73593 168.4855 C 101.01364 166.83228 101.02072 166.67423 99.7638 167.1564 C 98.98813 167.50174 97.24332 168.97565 95.87927 170.43495 C 93.07945 173.54037 91.05394 174.20983 93.33664 171.33464 C 94.98049 169.28606 96.05629 166.4835 94.95742 166.97275 C 94.56959 167.14543 93.20554 168.60472 91.86319 170.2867 C 89.37949 173.4063 84.48951 177.20995 86.11874 174.78062 C 86.52782 174.13377 86.78592 173.32178 86.64203 172.99858 C 86.49813 172.67539 85.92346 172.77634 85.42804 173.22927 C 84.86799 173.71098 84.95387 173.20803 85.72908 172.1658 C 86.75532 170.46966 87.0776 168.93202 86.23729 169.30615 C 86.10801 169.3637 84.28441 171.18251 82.31736 173.375 C 76.89702 179.11875 76.24309 178.86773 81.03828 172.9376 C 83.28513 170.15582 86.14867 165.62788 87.44717 162.80363 C 88.88911 159.6057 90.0734 157.91663 90.63391 158.13179 C 91.19442 158.34695 91.79742 157.61376 92.30654 156.14784 C 93.24598 153.5609 93.0162 153.74066 94.60386 153.6534 Z" fill="#ff0000"/>
        </g>
        <g id="Graphic_77">
          <path d="M 278.45074 91.31757 C 279.8534 93.94608 281.08382 96.88362 281.13475 97.86783 C 281.2074 99.07474 280.46666 97.93293 278.6177 93.95407 C 276.74706 89.75252 275.2944 87.53354 273.13777 85.47308 C 269.31332 81.75415 269.21236 81.17947 272.91416 84.10103 C 274.96274 85.74488 276.60933 87.87752 278.45074 91.31757 Z" fill="#ff0000"/>
        </g>
        <g id="Graphic_76">
          <path d="M 268.60457 85.55507 C 271.88884 87.19093 274.32617 90.05584 276.5134 94.96843 C 278.7294 99.94565 279.23463 103.51588 277.8772 104.12025 C 276.64906 104.66705 274.6151 103.40396 274.3627 101.96728 C 274.26883 101.23455 273.52102 100.2508 272.78075 99.80586 C 270.89777 98.7079 270.1495 97.02728 271.14742 95.96336 C 272.33925 94.8131 271.649 93.95863 269.83157 94.22564 C 268.55294 94.48511 268.30855 94.28411 268.66715 93.34993 C 269.31263 91.66839 268.74458 90.91442 267.65325 91.94248 C 266.95683 92.63981 266.9422 92.25905 267.5589 90.51288 C 268.2832 88.48645 268.17516 88.06983 267.19803 87.96271 C 266.53702 87.86975 265.6821 87.86312 265.29426 88.0358 C 264.55445 88.28773 265.98222 85.40592 266.69326 85.08935 C 266.9518 84.97423 267.82844 85.20355 268.60457 85.55507 Z" fill="#ff0000"/>
        </g>
        <g id="Graphic_75">
          <path d="M 256.4702 96.22442 C 257.3973 96.74108 258.00783 96.5467 259.42236 95.37475 C 260.54247 94.41133 261.51206 93.97964 261.87865 94.28114 C 262.2811 94.48922 261.8791 94.97801 261.0388 95.35214 C 260.1985 95.72627 259.21474 96.47407 258.8703 97.09214 C 258.12386 98.199 258.78487 98.29196 262.1178 97.42767 C 263.7196 97.02431 263.7196 97.02431 262.0319 97.93063 C 260.7679 98.57085 260.43055 99.03086 260.9769 99.56214 C 261.40105 99.99292 261.53078 100.63223 261.13587 100.96296 C 260.76973 101.35833 261.58172 101.61643 262.8174 101.60844 L 265.1307 101.58537 L 263.43593 102.64975 C 262.32998 103.29706 261.9209 103.9439 262.37383 104.43932 C 263.1358 105.10696 261.28296 106.16425 245.167 114.50133 L 238.03543 118.14122 L 237.34473 116.58988 C 236.94182 115.68493 235.63304 113.78915 234.39645 112.4034 L 232.16765 109.8329 L 235.67942 107.80465 C 241.8914 104.18691 252.4838 97.53456 252.59846 97.09625 C 252.95706 96.16206 255.4209 95.60726 256.4702 96.22442 Z" fill="#ff0000"/>
        </g>
        <g id="Graphic_74">
          <path d="M 226.58606 110.69148 C 226.92388 110.92834 226.6233 112.68868 225.81267 114.52119 C 224.47123 117.59692 224.27024 117.84131 223.0341 117.15244 C 221.1799 116.11912 221.028 114.56024 222.47085 112.75605 C 223.97834 110.92309 225.66604 110.01677 226.58606 110.69148 Z" fill="#ff0000"/>
        </g>
        <g id="Graphic_73">
          <path d="M 113.64891 164.07245 C 113.7928 164.39565 113.67814 164.83396 113.2903 165.00664 C 112.96711 165.15053 112.50002 164.97123 112.35612 164.64803 C 112.18345 164.2602 112.39153 163.85775 112.71472 163.71385 C 113.10256 163.54117 113.47623 163.68461 113.64891 164.07245 Z" fill="#ff0000"/>
        </g>
        <g id="Graphic_72">
          <path d="M 231.93353 114.35194 C 232.0274 115.08467 231.92028 116.0618 231.76976 116.59353 C 231.49042 117.87969 226.68678 121.87727 225.84601 121.55453 C 225.50112 121.47573 226.17492 119.16197 227.30828 116.48869 C 229.08004 112.29193 229.48204 111.80314 230.62476 112.45616 C 231.2716 112.86524 231.86844 113.68385 231.93353 114.35194 Z" fill="#ff0000"/>
        </g>
        <g id="Graphic_71">
          <path d="M 76.6757 181.23106 C 77.44474 181.74063 86.20736 178.45889 102.41058 171.70947 C 110.64147 168.2772 114.6925 166.93828 116.68969 166.90105 C 121.66828 166.77566 128.88367 170.45645 136.22307 177.02522 C 140.70145 180.99517 144.23057 183.5289 147.09068 184.73397 C 149.39029 185.72389 151.56061 186.77137 151.83379 187.037 C 152.83307 188.0637 183.58924 188.77635 192.46127 188.00183 C 197.16669 187.6108 201.92966 187.34905 203.03607 187.39862 C 205.81647 187.55485 210.98327 189.59179 211.5013 190.7553 C 211.73153 191.2724 212.7308 192.2991 213.7084 193.1031 C 216.0948 194.9838 215.5489 195.1494 210.03812 194.4274 C 205.7918 193.76204 204.44853 194.0503 205.0529 195.40772 C 205.42703 196.24803 213.9409 197.10456 221.41965 197.02782 C 224.96864 196.99676 228.66153 197.2889 229.75377 197.65458 C 230.7526 197.9844 232.11048 198.0769 232.75687 197.78911 C 233.59718 197.41498 233.935 197.65184 234.0218 198.54263 C 234.1458 201.43061 233.02045 205.33957 231.87864 206.0803 C 231.03125 206.61249 230.82362 207.7118 231.17697 209.72316 C 231.42227 211.3179 231.53876 213.66707 231.44625 215.02495 C 231.2754 217.4246 228.05508 225.6742 225.33543 230.52535 C 224.15868 232.75323 224.16621 233.29205 225.23722 234.1319 C 225.94162 234.67026 227.40754 235.17938 228.4493 235.25772 C 229.5557 235.3073 230.91405 236.09667 231.53965 236.97992 C 233.20794 239.33525 237.22402 239.4835 241.9427 237.3826 C 246.66136 235.28172 247.26435 234.54853 246.14196 232.0276 C 245.6815 230.99337 245.63056 230.00917 246.14768 229.77893 C 248.18735 228.79336 248.2223 227.3062 246.22854 221.6104 L 244.23478 215.9146 L 245.97067 211.81128 C 247.92173 207.14743 247.63348 205.80417 244.47895 204.80762 C 241.88493 204.02624 241.61884 203.60254 242.28556 201.44684 C 242.54366 200.63485 242.96644 198.97501 243.17407 197.8757 L 243.67565 195.87096 L 248.49756 197.8291 C 256.8335 201.24334 258.1272 202.0615 267.31328 209.12477 C 277.8506 217.13548 283.3141 222.44823 287.0682 228.4446 C 289.3767 232.06396 289.92352 233.2921 289.81685 234.9661 C 289.5969 239.16902 288.15906 248.63878 287.53528 250.543 C 286.79684 252.88556 286.11092 269.6109 286.73698 271.19103 C 287.6796 273.4822 288.03615 280.37163 287.2831 282.33342 C 285.7699 286.41506 279.06865 288.93393 266.0588 290.15658 C 255.65668 291.14763 252.78286 290.95554 247.07724 288.92614 C 242.11898 287.1836 240.08593 287.31426 231.7253 290.1072 C 229.28317 290.8847 226.2088 291.6339 224.93727 291.7353 C 222.30076 291.90226 221.30285 292.96618 223.0778 293.64752 C 223.82515 293.9344 224.09125 294.3581 223.86192 295.23472 C 223.56796 296.14013 224.23605 296.07504 227.2741 294.7224 C 229.4072 293.7727 232.33766 292.70032 233.87484 292.32574 L 236.66187 291.62704 L 233.80404 293.9063 C 232.26023 295.13583 230.2998 296.4734 229.52414 296.81873 C 228.68383 297.19286 228.15255 297.7392 228.32523 298.12705 C 228.69936 298.96736 233.0302 297.03915 235.20577 295.1411 C 238.07777 292.5457 240.00233 291.30157 240.26134 291.88332 C 240.37646 292.14188 239.8598 293.06898 239.09166 293.95314 C 237.76348 295.31902 237.98617 295.29732 241.4479 293.6786 C 246.84883 291.1965 247.61742 291.0092 247.934 291.72024 C 248.0779 292.04344 247.12292 292.8559 245.7655 293.46025 C 241.3054 295.446 242.64203 296.0127 248.12974 294.4214 C 251.36924 293.52124 252.612 293.3552 251.28336 294.0242 C 246.4571 296.40533 247.88717 297.00787 253.6476 294.98533 C 256.80076 293.89126 259.3363 293.14962 259.2646 293.33646 C 259.157 293.6167 256.0477 295.85305 252.35664 298.3484 C 244.02662 303.99347 237.69152 306.11697 224.85434 307.72746 C 220.23526 308.3124 215.68082 308.86858 214.8188 309.02 C 213.03016 309.35165 202.40168 304.78944 198.47011 302.04764 C 195.6454 300.05227 188.7354 290.96873 186.74963 286.50862 C 185.96551 284.92142 184.45529 282.57316 183.30503 281.38133 C 182.15477 280.1895 180.95404 278.71034 180.69502 278.1286 C 180.40723 277.4822 178.67476 275.8525 176.80593 274.43843 C 175.00175 272.99558 172.8956 271.22246 172.23414 270.43262 C 171.57267 269.6428 169.9624 268.1136 168.7475 266.95055 C 167.46797 265.81628 165.19623 263.49726 163.68646 261.84587 C 162.24133 260.1657 158.1654 256.40384 154.62167 253.48936 C 146.12538 246.5837 139.12333 239.5549 135.79385 234.68617 C 132.79509 230.21236 122.6954 210.31145 122.96058 209.3414 C 123.23284 208.2133 126.98374 209.3316 129.11158 211.3274 L 131.18186 213.19396 L 130.60582 211.2043 C 130.27463 210.11251 129.59147 209.09998 129.03096 208.88482 C 127.62968 208.34692 127.34897 207.54247 128.3832 207.082 C 129.48206 206.59276 133.94537 209.48508 135.64951 211.747 C 136.84317 213.38423 137.03 213.45595 137.02201 212.22026 C 136.99986 211.3007 136.0506 209.86447 134.25349 208.26356 C 132.06809 206.13846 131.6798 205.61426 132.45547 205.2689 C 132.97258 205.03868 134.46728 205.61244 135.72512 206.52401 C 138.33421 208.38302 139.21792 208.45429 137.83743 206.74534 C 137.32694 206.12065 137.13256 205.51011 137.45576 205.36622 C 138.29607 204.99209 141.94076 208.48124 142.89048 210.61434 C 143.37973 211.7132 144.10583 212.47426 144.42903 212.33036 C 144.81686 212.15769 144.52862 210.81442 143.83791 209.26308 C 142.68674 206.6775 142.7226 206.5841 144.18898 207.79008 C 145.99316 209.23293 148.3782 209.02303 147.65871 207.40705 C 146.47876 204.75683 140.93075 202.03764 136.25366 201.79644 C 130.0894 201.5203 120.41521 206.05988 115.15293 211.8107 C 111.79306 215.39784 104.12496 222.52963 103.09073 222.9901 C 102.57362 223.22033 101.97725 223.09859 101.80457 222.71075 C 101.6319 222.32291 100.99258 222.45265 100.39667 223.02778 C 99.80075 223.6029 99.16144 223.73264 98.98877 223.3448 C 98.55708 222.37522 96.45276 223.38957 95.91486 224.79085 C 95.59212 225.63162 95.20428 225.8043 94.36352 225.48155 C 93.52275 225.1588 93.53691 224.8427 94.23333 224.14537 C 95.19538 223.17487 98.91111 214.47233 98.62332 213.82593 C 98.1053 212.66243 96.13825 214.8549 95.08415 217.88016 C 93.74317 221.65276 91.8266 224.13258 89.37031 225.2262 C 87.23721 226.1759 86.29549 225.2785 88.03321 223.96264 C 88.82304 223.30117 89.33262 222.53213 89.15995 222.1443 C 88.84337 221.43326 88.06062 221.93667 84.51345 224.7552 C 83.72362 225.41668 83.8095 224.91372 84.7494 223.02365 C 86.00496 220.45088 86.10454 218.93494 84.94104 219.45296 C 84.68248 219.56808 83.96482 220.73958 83.39814 222.07622 C 82.83146 223.41286 81.98453 224.64192 81.46742 224.87215 C 80.30391 225.39018 78.73704 224.30638 79.56273 223.5515 C 80.7187 222.49466 79.68356 221.56139 78.49881 222.55359 C 77.87411 223.06408 77.29236 223.3231 77.20602 223.12917 C 77.14846 222.9999 75.84677 220.94605 74.365325 218.66244 C 71.90584 214.87796 71.68269 214.20278 72.22767 212.64345 C 73.03075 210.27212 71.866785 210.09328 70.40269 212.37164 C 69.11082 214.34097 69.08204 214.27633 73.97223 221.78065 C 75.03661 223.47544 75.40366 224.4738 74.951185 224.67526 C 74.62799 224.81916 74.20384 224.38838 74.08118 223.591 C 73.98731 222.85828 73.44804 222.16894 72.973865 222.1477 C 72.12602 221.98302 72.14109 223.06065 73.00401 224.30295 C 73.21255 224.59737 72.86057 224.67663 72.142 224.4544 C 71.452214 224.29679 70.05756 222.90396 69.07952 221.4031 C 67.4254 218.73164 67.26734 218.72456 65.4145 219.78185 C 63.49702 220.86793 63.4036 220.83207 61.07385 217.6869 C 59.758 215.94918 57.7085 212.91159 56.62243 210.9941 C 53.91101 206.4698 54.26116 203.60307 58.509084 195.74792 C 63.30953 186.87225 64.00594 186.17492 70.46987 183.297 C 73.57255 181.9156 76.33788 180.9942 76.6757 181.23106 Z" fill="#ff0000"/>
        </g>
        <g id="Graphic_70">
          <path d="M 216.1106 120.38987 C 216.104 121.2448 216.67158 121.3019 218.31634 120.64706 C 219.89646 120.021 220.14794 120.06394 219.2647 120.68955 C 217.3689 121.99832 218.05207 123.01085 220.2786 122.097 L 222.05263 121.3846 L 220.48758 123.08828 L 218.92253 124.79197 L 220.8263 124.71888 C 223.7143 124.59486 222.3427 125.51534 210.43537 131.82371 C 199.081 137.80843 188.61744 143.70635 187.20291 144.8783 C 186.607 145.45344 185.83795 144.94386 184.34234 142.97636 C 183.23502 141.53305 182.50138 140.23318 182.63774 140.01757 C 182.7741 139.80195 185.02186 138.41392 187.58573 137.04006 C 190.12082 135.60155 193.57503 133.44402 195.14761 132.27914 C 197.40953 130.575 210.57288 122.39072 215.25523 119.68638 C 215.7077 119.48492 216.04552 119.72178 216.1106 120.38987 Z" fill="#ff0000"/>
        </g>
        <g id="Graphic_69">
          <path d="M 181.03775 143.20842 C 183.45338 145.85063 183.64866 147.8549 181.53019 149.18538 C 180.51766 149.86854 180.17984 149.63168 179.29477 147.46981 C 178.75504 146.0836 177.69775 144.23076 177.0075 143.3763 C 175.80676 141.89713 175.81384 141.73907 177.2576 141.32862 C 178.41403 140.96865 179.40578 141.45653 181.03775 143.20842 Z" fill="#ff0000"/>
        </g>
        <g id="Graphic_68">
          <path d="M 235.02616 119.55849 C 234.7402 121.69958 227.8681 126.6181 227.23496 125.19603 C 227.09106 124.87283 228.29705 123.40646 229.91258 121.99011 C 231.43468 120.5379 232.928 119.02104 233.1073 118.55395 C 233.53055 117.59099 235.205 118.39452 235.02616 119.55849 Z" fill="#ff0000"/>
        </g>
        <g id="Graphic_67">
          <path d="M 136.99761 163.97814 C 138.74378 164.59484 139.74306 165.62153 141.3901 168.45104 C 142.53374 170.4978 145.4891 174.52622 147.89057 177.48455 C 152.87327 183.631 152.93083 183.76027 151.96124 184.19196 C 151.63804 184.33586 151.329 184.16364 151.41489 183.66069 C 151.46491 183.25115 150.4373 182.8567 149.14406 182.7354 C 146.52172 182.58626 144.3514 181.53878 146.41323 181.47277 C 149.14315 181.34167 147.6046 179.62564 143.45833 178.14122 C 140.99358 177.30228 139.5706 176.54168 140.2387 176.47658 C 142.55909 176.29546 141.76789 174.86631 139.3036 174.72424 C 136.42978 174.53215 135.94807 173.9721 138.37604 173.51071 C 140.32276 173.18615 140.35816 172.39586 138.55443 171.64988 C 137.92928 171.4635 137.22487 170.92514 137.02342 170.47267 C 136.82196 170.0202 135.50702 169.67621 134.05572 169.54785 C 130.44917 169.44963 129.7089 169.00469 132.07931 168.41403 C 134.73706 167.7729 133.98926 166.78914 130.75638 166.83436 C 129.298 166.86406 128.03354 166.80741 127.9472 166.6135 C 127.86086 166.41957 129.35465 165.5996 131.29382 164.73622 C 134.00867 163.52749 135.1868 163.39022 136.99761 163.97814 Z" fill="#ff0000"/>
        </g>
        <g id="Graphic_66">
          <path d="M 171.6292 147.47483 C 172.8361 147.4022 172.98707 147.56733 172.4775 148.33638 C 171.96792 149.10543 172.05425 149.29935 173.00968 149.18377 C 174.05853 149.10406 174.17365 149.36262 173.93016 150.55536 C 173.68668 151.7481 172.12117 152.75492 165.06133 156.20797 C 160.36436 158.53156 157.00312 160.02808 157.56318 159.54637 C 158.28837 158.91368 158.3167 158.28145 157.74864 157.52748 C 156.57669 156.11295 157.17968 155.37976 162.14183 152.08613 C 167.10398 148.7925 169.66078 147.5767 171.6292 147.47483 Z" fill="#ff0000"/>
        </g>
        <g id="Graphic_65">
          <path d="M 148.69732 158.7691 C 151.86601 159.44952 154.16835 164.62066 152.17961 166.59044 C 151.21756 167.56094 148.2791 167.39763 148.38622 166.4205 C 148.43624 166.01097 147.746 165.1565 146.79011 164.5752 C 145.89887 163.96513 145.02887 162.88088 145.02841 162.184 C 144.96332 161.51591 144.63258 161.121 144.1801 161.32245 C 143.79227 161.49513 143.5191 161.22949 143.56912 160.81996 C 143.74796 159.656 146.97285 158.37509 148.69732 158.7691 Z" fill="#ff0000"/>
        </g>
        <g id="Graphic_64">
          <path d="M 221.06156 132.90157 C 222.34863 134.57466 222.30615 135.523 220.95535 135.27244 C 219.82016 135.15823 218.46754 132.12019 219.30785 131.74606 C 219.63104 131.60216 220.4001 132.11174 221.06156 132.90157 Z" fill="#ff0000"/>
        </g>
        <g id="Graphic_63">
          <path d="M 231.016 128.46957 C 231.41892 129.37452 231.47693 130.20066 231.21837 130.31578 C 230.89518 130.45968 229.67366 130.15156 228.43044 129.62074 L 226.22425 128.66668 L 228.22807 127.77452 C 229.97333 126.99748 230.41164 127.11214 231.016 128.46957 Z" fill="#ff0000"/>
        </g>
        <g id="Graphic_62">
          <path d="M 232.91635 134.1295 C 235.0442 136.12532 234.67097 136.67875 231.26542 136.33614 C 228.23354 136.13697 227.6801 135.76375 226.5077 133.65235 L 225.1914 131.21776 L 228.5974 132.25724 C 230.47285 132.81638 232.39878 133.66286 232.91635 134.1295 Z" fill="#ff0000"/>
        </g>
        <g id="Graphic_61">
          <path d="M 221.20956 139.4966 C 221.49735 140.143 221.49073 140.99792 221.25387 141.33574 C 220.6438 142.22698 218.09888 139.64232 218.01163 138.05467 C 217.96778 136.9124 218.03242 136.88362 219.36198 137.60836 C 220.10224 138.0533 220.95055 138.91485 221.20956 139.4966 Z" fill="#ff0000"/>
        </g>
        <g id="Graphic_60">
          <path d="M 155.20623 169.73516 C 158.38292 171.65127 158.32056 175.1644 155.0886 176.60336 C 153.73117 177.20773 153.42214 177.0355 153.22023 175.88616 C 153.0688 175.02415 152.37101 173.63087 151.58735 172.74054 C 150.86832 171.82143 150.30735 170.9094 150.47957 170.60036 C 150.91697 169.32128 153.7257 168.84528 155.20623 169.73516 Z" fill="#ff0000"/>
        </g>
        <g id="Graphic_59">
          <path d="M 220.20822 146.29355 C 220.10155 147.96754 219.00976 148.29873 217.3207 147.11444 C 216.45823 146.569 216.39313 145.90091 216.8376 144.46377 L 217.4614 142.55954 L 218.899 143.7009 C 219.8478 144.44025 220.28656 145.25178 220.20822 146.29355 Z" fill="#ff0000"/>
        </g>
        <g id="Graphic_58">
          <path d="M 232.26561 138.75657 C 234.49304 139.23646 238.7261 141.61167 238.4751 142.2656 C 237.96597 143.73152 230.76612 141.82522 229.9603 140.01532 C 229.32716 138.59326 229.88013 138.2696 232.26561 138.75657 Z" fill="#ff0000"/>
        </g>
        <g id="Graphic_57">
          <path d="M 171.9864 166.36913 C 178.5659 164.44663 179.5572 164.23764 179.52179 165.02793 C 179.40713 165.46625 179.7808 165.60969 180.26206 165.47287 C 180.90845 165.18508 180.966 165.31436 180.49937 165.83193 C 180.10445 166.16266 179.97563 166.91709 180.20587 167.4342 C 180.69511 168.53307 180.98245 168.4826 173.08093 170.21917 C 166.61609 171.70335 162.65756 171.6844 165.88952 170.24543 C 166.9884 169.75618 167.19647 169.35373 166.52792 168.72195 C 165.8306 168.02554 166.0316 167.78114 167.24558 167.55045 C 168.201 167.43488 170.28408 166.8947 171.9864 166.36913 Z" fill="#ff0000"/>
        </g>
        <g id="Graphic_56">
          <path d="M 186.92653 161.65368 C 189.62196 163.7066 188.74236 169.90718 185.7822 169.52116 C 185.37266 169.47114 185.17075 168.3218 185.33498 166.77708 C 185.52799 165.297 185.41904 163.48664 185.0449 162.64633 C 184.23909 160.83643 185.24454 160.31133 186.92653 161.65368 Z" fill="#ff0000"/>
        </g>
        <g id="Graphic_55">
          <path d="M 203.6199 157.39687 C 211.27703 155.4593 220.13352 152.91028 227.75433 150.36925 C 230.16768 149.52712 232.5381 148.93646 232.94055 149.14454 C 233.31422 149.28798 233.142 149.59701 232.56025 149.85602 C 230.75035 150.66184 232.26766 152.85204 234.34365 152.46992 C 236.92968 152.01562 237.1245 153.32302 234.50262 153.87074 C 233.09472 154.18777 232.2761 154.7846 232.18315 155.4456 C 232.05432 156.20004 230.63934 156.67512 225.74754 157.6913 C 222.23486 158.32581 217.37185 159.40663 214.87216 160.05485 C 212.37247 160.70307 208.14876 161.65415 205.3976 162.25943 C 202.71107 162.83593 198.39394 163.75115 195.89425 164.39937 C 193.36578 164.98295 191.29687 165.20701 191.31103 164.8909 C 191.26055 164.60356 190.8935 163.6052 190.4906 162.70024 C 189.7999 161.1489 189.9004 161.0267 193.04647 160.0907 C 194.8422 159.60099 199.55425 158.35503 203.6199 157.39687 Z" fill="#ff0000"/>
        </g>
        <g id="Graphic_54">
          <path d="M 217.55275 150.41904 C 217.69665 150.74223 217.16537 151.28858 216.45434 151.60515 C 215.29083 152.12318 215.16863 152.02268 215.4409 150.89458 C 215.78488 149.57964 217.03472 149.25553 217.55275 150.41904 Z" fill="#ff0000"/>
        </g>
        <g id="Graphic_53">
          <path d="M 242.44915 144.05906 C 243.10308 144.31008 243.9443 145.32969 244.43355 146.42855 C 245.23937 148.23845 245.2035 148.33187 243.7088 147.75811 C 242.8034 147.46415 240.89917 146.84037 239.3974 146.42467 L 236.76752 145.7367 L 239.06575 144.63601 C 240.2939 144.0892 241.79522 143.80804 242.44915 144.05906 Z" fill="#ff0000"/>
        </g>
        <g id="Graphic_52">
          <path d="M 69.57105 225.9863 C 73.82491 227.19048 76.60531 227.3467 93.28726 227.58724 C 97.46848 227.5845 100.78062 227.89125 100.64426 228.10687 C 100.42202 228.82544 90.55117 229.27014 82.77756 228.85854 C 74.08438 228.4691 64.06118 226.65805 63.514376 225.4299 C 62.96757 224.20176 63.78664 224.3018 69.57105 225.9863 Z" fill="#ff0000"/>
        </g>
        <g id="Graphic_51">
          <path d="M 260.84576 140.67042 C 265.73002 139.11543 274.34212 136.36541 280.12425 134.56557 C 290.21597 131.31169 296.07736 129.86382 292.9676 131.40328 C 292.2207 131.81327 291.20817 132.49644 290.71275 132.94937 C 289.48506 134.19304 291.40346 134.50071 293.85975 133.4071 C 294.82934 132.97541 295.69135 132.82398 295.83524 133.14717 C 295.95036 133.40573 294.8444 134.05303 293.3648 134.5569 C 291.82053 135.08954 290.7792 135.70807 290.9519 136.0959 C 291.12457 136.48374 292.48953 136.41819 294.0267 136.0436 C 295.5639 135.66902 296.92885 135.60346 297.10153 135.9913 C 297.2742 136.37914 296.49145 136.88254 295.0189 137.22835 C 293.611 137.54538 292.5697 138.1639 292.48382 138.66686 C 292.4338 139.0764 292.7716 139.31325 293.25286 139.17644 C 293.73412 139.03962 293.49726 139.37743 292.70743 140.0389 L 291.2929 141.21086 L 293.72133 141.44635 L 296.14975 141.68184 L 293.0683 142.58907 C 291.366 143.11463 287.7816 143.93598 285.03043 144.54126 C 275.0529 146.65996 269.41422 148.08613 263.43817 149.9723 C 258.42463 151.58486 249.50304 153.46579 248.37494 153.19352 C 248.21688 153.18644 247.85646 151.33315 247.6107 149.04154 C 247.16256 144.90371 247.16256 144.90371 249.56883 144.21963 C 250.94795 143.83796 256.02613 142.19663 260.84576 140.67042 Z" fill="#ff0000"/>
        </g>
        <g id="Graphic_50">
          <path d="M 242.28766 149.785 C 245.15485 150.83202 245.62948 151.55013 244.86226 153.82804 C 243.82986 157.07599 242.35686 156.72492 240.6301 152.84657 C 239.76673 150.90739 239.24116 149.20507 239.43508 149.11873 C 239.629 149.0324 240.91516 149.31174 242.28766 149.785 Z" fill="#ff0000"/>
        </g>
        <g id="Graphic_49">
          <path d="M 64.0276 230.23582 C 62.64277 232.86616 63.90015 233.08087 65.974775 230.60813 C 66.95099 229.3215 67.43932 229.02664 67.21708 229.7452 C 66.46402 231.707 67.22599 232.37463 68.03661 230.54212 C 68.53157 229.39232 68.99112 229.0328 69.54455 229.40603 C 69.975785 229.67874 69.41619 230.85733 68.281915 232.13686 C 67.1835 233.32298 65.59013 235.6589 64.729036 237.20407 C 63.45178 239.55415 62.72659 240.18684 60.83743 240.6407 C 55.36388 241.91588 55.10441 240.63726 59.74199 235.3969 C 61.47926 233.3842 63.10141 231.1129 63.29487 230.3297 C 63.488334 229.5465 63.99791 228.77744 64.32111 228.63355 C 64.70894 228.46087 64.58012 229.2153 64.0276 230.23582 Z" fill="#ff0000"/>
        </g>
        <g id="Graphic_48">
          <path d="M 303.90397 123.43599 C 305.67937 124.8142 307.84536 130.20096 308.3869 134.37464 C 309.10204 140.3299 308.92982 140.63894 305.35114 139.21162 C 302.642 138.17168 302.49103 138.00654 303.9565 137.8188 C 305.86734 137.58765 305.63665 136.37366 303.58898 136.12355 C 302.20232 135.9664 302.20232 135.9664 303.2724 135.41252 C 305.01767 134.63548 303.3928 132.72554 301.46777 133.2728 C 299.4781 133.84884 299.6711 132.36876 301.67493 131.4766 C 303.80803 130.52689 303.8071 129.13315 301.7453 129.19916 L 300.02835 129.34397 L 301.1697 127.90637 C 301.90905 126.95757 301.94446 126.16728 301.3981 125.636 C 300.64322 124.81031 301.05892 123.30853 302.19365 122.72587 C 302.4522 122.61075 303.22834 122.96227 303.90397 123.43599 Z" fill="#ff0000"/>
        </g>
        <g id="Graphic_47">
          <path d="M 215.2915 164.12804 C 216.15443 165.37034 216.14735 165.5284 214.8541 165.40712 C 213.11547 165.32923 212.11573 163.60567 213.40852 163.03008 C 213.861 162.82863 214.75932 163.28065 215.2915 164.12804 Z" fill="#ff0000"/>
        </g>
        <g id="Graphic_46">
          <path d="M 211.14226 169.0735 C 210.9488 169.85672 210.5468 170.3455 210.26654 170.23793 C 210.01507 170.19499 210.0146 169.49812 210.20807 168.7149 C 210.40153 167.9317 210.80353 167.4429 211.08379 167.55049 C 211.33526 167.59343 211.33572 168.2903 211.14226 169.0735 Z" fill="#ff0000"/>
        </g>
        <g id="Graphic_45">
          <path d="M 239.94214 155.47645 C 240.17237 155.99356 239.92135 156.6475 239.40424 156.87773 C 238.37 157.3382 237.7661 156.67764 238.2252 155.62126 C 238.59088 154.52901 239.48167 154.44222 239.94214 155.47645 Z" fill="#ff0000"/>
        </g>
        <g id="Graphic_44">
          <path d="M 72.786335 231.99023 C 73.503535 230.12186 74.94022 229.86947 75.17844 231.62227 C 75.308635 232.95845 75.40205 232.9943 76.30655 231.89453 C 77.3474 230.57913 79.07896 230.81508 78.13152 232.16633 C 77.89466 232.50415 77.8017 233.16516 77.97438 233.553 C 78.17583 234.00547 78.53489 233.76815 78.88641 232.99203 C 79.37429 232.00028 79.5682 231.91395 79.97111 232.8189 C 80.51792 234.04704 81.63849 233.7805 81.54415 232.3509 C 81.50076 231.9055 81.70884 231.50304 81.98909 231.61062 C 82.64302 231.86164 82.73392 239.02427 82.08753 239.31206 C 81.82897 239.42718 80.33473 239.5503 78.87635 239.57998 C 77.13063 239.66015 74.04919 240.56738 70.55867 242.12146 C 64.3533 244.88427 63.16764 244.48273 65.787244 240.45066 C 66.56954 239.25038 68.04071 236.81396 68.90889 235.11072 C 70.12151 232.78942 70.8467 232.15674 71.42891 232.5946 C 72.16918 233.03953 72.427735 232.9244 72.786335 231.99023 Z" fill="#ff0000"/>
        </g>
        <g id="Graphic_43">
          <path d="M 215.0069 168.35974 C 215.89815 168.96981 216.18023 171.86488 215.36117 171.76483 C 214.38404 171.6577 213.03141 168.61966 213.80709 168.27431 C 214.19492 168.10164 214.69787 168.18752 215.0069 168.35974 Z" fill="#ff0000"/>
        </g>
        <g id="Graphic_42">
          <path d="M 241.5042 160.20265 C 241.993 160.60465 242.12274 161.24396 241.88588 161.58178 C 241.61316 162.013 241.3546 162.12812 241.26827 161.9342 C 241.2107 161.80493 240.75778 161.30951 240.30485 160.8141 C 239.85192 160.31868 239.7151 159.83743 240.10294 159.66475 C 240.42613 159.52086 241.08006 159.77188 241.5042 160.20265 Z" fill="#ff0000"/>
        </g>
        <g id="Graphic_41">
          <path d="M 209.74645 176.89805 C 209.05095 178.98912 209.30997 179.57088 210.5381 179.02407 C 211.05523 178.79384 211.68038 178.98022 211.88183 179.4327 C 212.45742 180.72548 210.7592 187.52288 209.91136 187.3582 C 209.43718 187.33695 209.20695 186.81984 209.46505 186.00785 C 209.9166 184.41265 207.2792 183.18588 206.66957 184.774 C 206.41855 185.42792 205.959 185.78743 205.58532 185.644 C 205.2763 185.47177 205.3117 184.68148 205.82127 183.91244 C 206.30915 182.9207 206.86212 182.59704 207.32213 182.9344 C 207.75337 183.20712 208.29926 183.04152 208.60076 182.67493 C 208.87348 182.2437 209.25423 182.22908 209.45569 182.68155 C 209.65714 183.13403 209.9374 183.2416 210.04498 182.96135 C 210.15256 182.6811 209.28256 181.59685 208.18986 180.5343 C 206.3064 178.73947 206.24885 178.6102 207.34772 178.12094 C 207.99411 177.83315 208.6976 176.97777 208.91985 176.2592 C 209.1133 175.476 209.5153 174.9872 209.79556 175.09478 C 210.07582 175.20236 210.04042 175.99265 209.74645 176.89805 Z" fill="#ff0000"/>
        </g>
        <g id="Graphic_40">
          <path d="M 239.4088 163.84643 C 241.60836 165.65542 241.8169 165.94984 241.3441 168.0192 C 241.0218 169.55684 240.9284 169.52098 239.03078 168.04227 C 237.5932 166.90092 237.12564 166.02475 237.0313 164.59515 C 236.85727 162.1167 237.11582 162.00158 239.4088 163.84643 Z" fill="#ff0000"/>
        </g>
        <g id="Graphic_39">
          <path d="M 88.75726 232.54733 C 89.13139 233.38764 89.77115 233.95477 90.09435 233.81088 C 90.48219 233.6382 90.41709 232.9701 89.97124 232.31664 C 89.49661 231.59852 89.57541 231.25363 90.13592 231.4688 C 90.63179 231.71273 91.94765 233.45045 93.09836 235.33915 C 94.98272 238.52772 95.09075 238.94433 93.99189 239.43358 C 93.31672 239.65673 91.08221 239.3349 88.89772 238.60355 C 85.46293 237.49942 85.00292 237.16206 85.10251 235.64612 C 85.17377 234.76242 85.61871 234.02215 86.05702 234.1368 C 86.5312 234.15805 86.78222 233.50412 86.65956 232.70675 C 86.27744 230.63076 87.80046 230.5723 88.75726 232.54733 Z" fill="#ff0000"/>
        </g>
        <g id="Graphic_38">
          <path d="M 311.8217 135.47877 C 311.94435 136.27614 311.81552 137.03057 311.4277 137.20324 C 311.1045 137.34714 310.9101 136.7366 310.9814 135.8529 C 311.05265 134.96919 311.18147 134.21476 311.31075 134.1572 C 311.44003 134.09964 311.69904 134.6814 311.8217 135.47877 Z" fill="#ff0000"/>
        </g>
        <g id="Graphic_37">
          <path d="M 98.51344 232.54094 C 99.36175 233.4025 100.14496 233.59595 100.86307 233.12132 C 101.9761 232.31596 105.40426 234.275 106.3252 236.34347 C 107.24613 238.41193 105.63015 239.1314 101.57775 238.37972 C 98.81859 237.7493 97.23756 236.98163 95.8212 235.3661 C 94.31851 233.55666 94.03072 232.91027 94.50444 232.23464 C 95.3226 230.94094 97.02537 231.11225 98.51344 232.54094 Z" fill="#ff0000"/>
        </g>
        <g id="Graphic_36">
          <path d="M 72.78838 246.0857 C 72.8907 248.75098 73.60882 248.27635 74.68416 244.77692 L 75.479705 241.8668 L 75.66791 244.02912 C 75.85657 246.88832 76.611 247.01714 77.392385 244.42312 C 78.05911 242.26742 78.05911 242.26742 78.30442 243.86216 C 78.6002 245.74423 80.00102 245.58526 79.892075 243.7749 C 79.81191 242.0292 81.57178 241.6329 82.26249 243.18425 C 82.75173 244.28311 83.00321 244.32606 83.45523 243.42773 C 83.90725 242.5294 84.19458 242.47893 84.89191 243.17534 C 85.74021 244.0369 85.84071 243.9147 86.19886 242.28364 C 86.37062 241.27774 86.91606 240.41527 87.41901 240.50115 C 87.92196 240.58703 88.09464 240.97487 87.84362 241.6288 C 87.62846 242.1893 87.70817 243.23816 88.02474 243.9492 C 88.60033 245.24197 88.70083 245.11978 89.26705 243.08627 L 89.84036 240.8947 L 90.172 242.68336 C 90.61214 245.5855 90.00914 246.3187 87.79588 245.52269 C 84.82818 244.59786 82.61583 245.1956 78.52277 248.17974 C 74.98976 250.68217 74.76707 250.70386 72.41744 250.12348 C 71.07372 249.71486 70.333455 249.26992 70.69251 249.0326 C 71.14499 248.83115 71.58239 247.55207 71.61025 246.22297 C 71.80235 243.34915 72.59972 243.2265 72.78838 246.0857 Z" fill="#ff0000"/>
        </g>
        <g id="Graphic_35">
          <path d="M 217.3997 179.99663 C 217.53697 181.17476 214.9877 182.92938 214.55602 181.9598 C 214.3258 181.44268 215.19442 180.43632 216.75993 179.4295 C 217.08312 179.2856 217.3563 179.55124 217.3997 179.99663 Z" fill="#ff0000"/>
        </g>
        <g id="Graphic_34">
          <path d="M 238.58767 171.57002 C 239.7521 172.44574 240.24842 173.38655 240.37153 174.88079 C 240.64653 177.9339 238.89373 178.17213 237.31133 175.31384 C 235.02406 171.22033 235.64784 169.3161 238.58767 171.57002 Z" fill="#ff0000"/>
        </g>
        <g id="Graphic_33">
          <path d="M 308.35606 142.13364 C 308.7302 142.97395 308.55798 143.28298 306.87027 144.1893 C 306.44658 144.4554 305.62705 143.65848 304.97975 142.55253 L 303.80025 140.5992 L 305.8767 140.91394 C 307.04067 141.09278 308.1546 141.68116 308.35606 142.13364 Z" fill="#ff0000"/>
        </g>
        <g id="Graphic_32">
          <path d="M 95.74697 242.6797 C 96.1428 243.7427 96.57403 244.01543 97.16286 243.59836 C 97.8522 243.0591 97.93853 243.253 97.43649 244.56087 C 96.96323 245.93337 96.51076 246.13482 94.51356 246.17205 C 92.00634 246.28146 91.76194 246.08046 91.99789 244.3489 C 92.09793 243.52984 92.41405 243.544 93.25527 244.5636 L 94.36967 245.84886 L 94.53344 243.60727 C 94.74723 240.95614 95.17092 240.69005 95.74697 242.6797 Z" fill="#ff0000"/>
        </g>
        <g id="Graphic_31">
          <path d="M 80.4005 252.22323 C 80.95667 256.77768 81.40252 257.43115 82.02585 254.83005 C 82.48449 253.0768 82.68549 252.8324 83.0884 253.73735 C 83.98055 255.74117 84.73407 254.47625 84.62421 251.27215 C 84.51389 247.37118 85.21076 247.37073 85.6372 251.28586 C 85.91882 253.48405 86.17783 254.0658 86.93934 254.03657 C 87.44938 253.9644 88.08915 254.53152 88.4345 255.3072 C 89.01716 256.44192 89.15352 256.2263 89.41779 253.86252 C 89.58202 252.3178 89.7684 251.69265 89.82641 252.5188 C 89.94907 253.31617 90.60437 255.6578 91.4031 257.62576 C 92.1372 259.6225 92.99487 263.81035 93.20523 266.89224 C 93.48023 269.94536 93.88496 273.6378 94.10857 275.00984 C 94.33218 276.38188 94.53501 278.92497 94.5864 280.60605 C 94.64624 284.21968 95.63455 290.44058 97.57349 300.1883 C 98.38068 304.08883 99.27603 310.97074 99.67414 315.5181 C 99.97883 320.0296 100.46282 324.074 100.66428 324.5265 C 100.83695 324.9143 100.77277 325.63997 100.43541 326.09998 C 100.0622 326.6534 99.62342 325.84188 98.6157 322.88263 C 97.44945 319.21944 97.29847 319.0543 96.94741 320.5273 C 96.74687 321.46856 96.75486 322.70425 96.9851 323.22136 C 97.24411 323.8031 97.32382 324.85196 97.16622 325.54175 C 96.91566 326.89255 96.72128 326.282 96.17265 322.2664 C 95.78299 319.6516 94.51944 320.98868 94.54296 323.99886 C 94.66744 327.5837 94.06399 327.62003 93.14214 324.15783 C 92.24907 320.76027 91.30118 321.41465 91.28222 325.3732 C 91.20479 327.8087 91.20479 327.8087 90.18244 324.4687 C 89.30399 321.4519 89.09545 321.15747 88.53585 322.33605 C 88.22019 323.01876 87.97671 324.2115 88.09937 325.00887 C 88.1286 325.77038 87.99978 326.5248 87.67658 326.6687 C 87.35339 326.8126 87.08684 325.69203 87.05714 324.23365 C 86.95436 320.8715 87.07656 320.972 84.78541 321.91463 C 83.2987 322.57656 82.76035 323.28096 82.6249 324.89032 L 82.36771 327.09605 L 81.67655 324.84784 C 80.985395 322.59962 79.82851 322.26272 79.95916 324.29577 C 79.93084 324.928 79.67982 325.58194 79.35662 325.72583 C 78.96878 325.8985 78.81735 325.0365 79.06083 323.84376 C 79.32556 322.17684 79.159965 321.63095 78.40554 321.50212 C 77.744525 321.40916 77.82493 312.54376 78.62369 292.5926 C 79.302985 276.7222 79.64629 263.4024 79.47362 263.01456 C 79.30094 262.62673 79.48024 262.15963 79.80344 262.01574 C 80.19127 261.84306 80.56495 261.9865 80.73762 262.37434 C 80.88152 262.69754 82.05964 262.56026 83.28779 262.01346 C 85.67944 260.94862 86.332 259.10903 84.92273 257.33545 C 83.90175 256.08606 80.87787 257.12257 80.06725 258.95508 C 79.60815 260.01146 79.48595 259.91097 79.47796 258.67528 C 79.41995 257.84913 79.09538 255.90242 78.65615 254.39402 C 77.79186 251.0611 77.88437 249.70322 79.11252 249.1564 C 79.82355 248.83984 80.05378 249.35695 80.4005 252.22323 Z" fill="#ff0000"/>
        </g>
        <g id="Graphic_30">
          <path d="M 237.9255 180.69443 C 239.21213 181.67065 240.3505 186.66295 239.38092 187.09464 C 237.95885 187.72778 235.9089 183.99332 236.20903 181.53611 C 236.55256 179.5243 236.48792 179.55308 237.9255 180.69443 Z" fill="#ff0000"/>
        </g>
        <g id="Graphic_29">
          <path d="M 230.95657 191.31011 C 233.7082 191.4017 234.63575 192.61524 233.86145 195.0512 C 233.35233 196.51712 233.22305 196.57467 231.75713 196.06555 C 230.91637 195.74281 229.22775 195.2554 228.09965 194.98313 C 226.562 194.66084 226.84935 194.61037 229.09094 194.77414 C 233.09994 195.08043 233.42976 194.0816 229.65008 192.89868 C 226.46677 191.8375 227.06976 191.10431 230.95657 191.31011 Z" fill="#ff0000"/>
        </g>
        <g id="Graphic_28">
          <path d="M 238.13998 190.04817 C 239.46246 190.93096 239.39782 190.95974 237.88188 190.86016 C 236.99817 190.7889 236.1574 190.46615 236.0135 190.14296 C 235.52426 189.04409 236.66652 189.00024 238.13998 190.04817 Z" fill="#ff0000"/>
        </g>
        <g id="Graphic_27">
          <path d="M 238.81834 194.7031 C 239.98276 195.57882 240.4791 196.51963 240.6022 198.01387 C 240.78333 200.33426 240.00766 200.67961 237.73637 199.05746 C 236.4139 198.17467 236.1261 197.52828 236.13227 195.97648 C 236.15215 193.4117 236.79854 193.1239 238.81834 194.7031 Z" fill="#ff0000"/>
        </g>
        <g id="Graphic_26">
          <path d="M 239.92406 204.66692 C 240.08965 205.21281 239.60885 206.0465 238.8261 206.5499 C 237.6843 207.29063 237.37526 207.11841 236.51188 205.17923 C 235.99385 204.01573 235.64096 202.70124 235.7844 202.32757 C 236.143 201.39338 239.57117 203.35244 239.92406 204.66692 Z" fill="#ff0000"/>
        </g>
        <g id="Graphic_25">
          <path d="M 235.87622 210.88393 C 237.52235 212.3197 237.47324 214.12298 235.8351 213.9229 C 234.76456 213.7799 232.96608 210.0884 233.74175 209.74304 C 234.06495 209.59914 234.99205 210.1158 235.87622 210.88393 Z" fill="#ff0000"/>
        </g>
        <g id="Graphic_24">
          <path d="M 239.02184 209.25105 C 240.41604 209.947 241.17983 213.40213 240.08096 213.89138 C 239.6285 214.09283 238.8736 213.26714 238.21876 211.62238 C 236.98125 208.8429 237.2252 208.34702 239.02184 209.25105 Z" fill="#ff0000"/>
        </g>
        <g id="Graphic_23">
          <path d="M 244.3524 209.0464 C 244.317 209.8367 243.9655 210.61282 243.6423 210.75672 C 242.6727 211.1884 241.48522 207.99938 242.3109 207.2445 C 243.30174 206.33864 244.45908 207.3724 244.3524 209.0464 Z" fill="#ff0000"/>
        </g>
        <g id="Graphic_22">
          <path d="M 238.19546 219.92018 C 238.21807 221.53662 238.39074 221.92446 239.15225 221.89522 C 240.55307 221.73625 240.69035 222.91438 239.26828 223.54752 C 238.4926 223.89287 237.7608 225.3805 237.47482 227.52158 C 236.96707 231.0781 235.35337 235.28194 234.34792 235.80705 C 234.02473 235.95094 234.06013 235.16065 234.39703 234.00377 C 234.7627 232.91153 235.45022 229.58478 235.9655 226.56706 C 237.4472 218.23956 238.25028 215.86824 238.19546 219.92018 Z" fill="#ff0000"/>
        </g>
        <g id="Graphic_21">
          <path d="M 234.61197 222.13527 C 234.36095 222.7892 232.9398 224.8161 231.49695 226.62028 C 230.0541 228.42446 228.83395 230.20695 228.78393 230.6165 C 228.7339 231.02602 228.20263 231.57237 227.62088 231.83139 C 227.03912 232.0904 227.57702 230.68912 228.77548 228.68393 C 230.06735 226.7146 231.28705 224.23525 231.61687 223.23642 C 231.98255 222.14418 232.77946 221.32466 233.64147 221.17322 C 234.88424 221.00717 235.0352 221.1723 234.61197 222.13527 Z" fill="#ff0000"/>
        </g>
        <g id="Graphic_20">
          <path d="M 243.50524 220.88658 C 243.8218 221.5976 243.82227 222.29448 243.49907 222.43838 C 243.17587 222.58227 242.78758 222.05808 242.66493 221.2607 C 242.54227 220.46334 242.54182 219.76647 242.6711 219.7089 C 242.80038 219.65135 243.18867 220.17555 243.50524 220.88658 Z" fill="#ff0000"/>
        </g>
        <g id="Graphic_19">
          <path d="M 241.15972 226.57803 C 241.55555 227.64104 241.50598 228.74744 241.11815 228.92012 C 240.08392 229.38059 239.99758 229.18667 240.04623 226.68652 C 240.0661 224.12174 240.2888 224.10004 241.15972 226.57803 Z" fill="#ff0000"/>
        </g>
        <g id="Graphic_18">
          <path d="M 243.6272 231.5982 C 243.94377 232.30923 244.03057 233.20002 243.72907 233.5666 C 243.45635 233.99784 242.93878 233.5312 242.53587 232.62625 C 242.13296 231.7213 242.1108 230.80174 242.434 230.65784 C 242.82184 230.48517 243.3394 230.9518 243.6272 231.5982 Z" fill="#ff0000"/>
        </g>
        <g id="Graphic_17">
          <path d="M 238.27013 235.22256 C 238.07667 236.00577 237.67467 236.49456 237.39442 236.38698 C 237.14294 236.34404 237.14249 235.64716 237.33595 234.86396 C 237.5294 234.08075 237.9314 233.59196 238.21166 233.69954 C 238.46314 233.74248 238.4636 234.43935 238.27013 235.22256 Z" fill="#ff0000"/>
        </g>
        <g id="Graphic_16">
          <path d="M 241.96256 234.81782 C 242.13524 235.20566 241.90546 235.38541 241.4313 235.36417 C 241.02175 235.31415 240.46832 234.94093 240.32443 234.61774 C 240.15175 234.2299 240.44617 234.02136 240.8557 234.0714 C 241.32988 234.09263 241.81867 234.49463 241.96256 234.81782 Z" fill="#ff0000"/>
        </g>
        <g id="Graphic_15">
          <path d="M 80.83852 328.7063 C 87.17545 329.3703 92.90848 329.37374 98.7991 328.68738 C 105.32904 327.8713 106.29954 328.83333 100.16497 330.01557 C 92.0837 331.52236 77.99531 331.36635 76.35626 329.77252 C 75.206 328.5807 76.74318 328.2061 80.83852 328.7063 Z" fill="#ff0000"/>
        </g>
        <g id="Graphic_14">
          <path d="M 78.88175 335.61884 C 77.8626 337.15693 76.82175 338.47233 76.56319 338.58744 C 76.23999 338.73134 76.18997 339.14087 76.33387 339.46407 C 76.76556 340.43366 81.77818 337.42737 83.62303 335.1344 C 84.46289 334.0634 85.2815 333.46656 85.45417 333.8544 C 85.59807 334.1776 85.41877 334.6447 84.96629 334.84614 C 84.06134 335.24905 82.36839 339.1009 82.71374 339.87658 C 82.82886 340.13514 83.39645 340.19224 83.91356 339.962 C 84.43068 339.73177 84.73925 339.2071 84.59536 338.88392 C 84.42268 338.4961 85.0186 337.92096 85.85891 337.54683 C 86.69922 337.1727 87.53199 336.25975 87.75423 335.5412 C 88.127 334.2909 90.38183 332.7448 90.72718 333.52047 C 90.81352 333.7144 90.4837 334.7132 89.99582 335.70495 C 89.29986 337.09915 89.33618 337.7026 90.08353 337.9895 C 90.83088 338.27636 91.42679 337.70123 92.40255 335.71775 C 93.62225 333.2384 95.37459 332.3033 94.47809 334.63875 C 93.94019 336.04003 95.57352 339.88253 96.73749 340.06137 C 97.21166 340.0826 97.32632 339.6443 97.03853 338.9979 C 96.08881 336.8648 96.96407 335.00352 98.93249 334.90165 C 99.82327 334.81486 100.75746 335.17346 100.93013 335.5613 C 101.33304 336.46624 104.21486 337.89402 104.99053 337.54867 C 105.31373 337.40477 104.86787 336.7513 104.07713 336.01903 C 101.12268 333.38435 104.32632 332.5776 107.69739 335.10426 C 110.24184 336.99205 109.17929 338.08475 102.70782 340.42386 C 96.2005 342.8564 89.62054 344.082 83.16187 344.0144 C 78.0323 343.97466 71.36418 342.2189 70.70226 340.7322 C 70.32813 339.89187 72.02999 338.66944 74.9246 337.6905 C 75.53513 337.4961 76.71988 336.5039 77.45923 335.5551 C 79.71316 332.6153 80.91298 332.7007 78.88175 335.61884 Z" fill="#ff0000"/>
        </g>
        <g id="Graphic_13">
          <path d="M 79.01788 346.01433 C 81.15896 346.3003 82.53146 346.77356 82.01435 347.0038 C 81.17404 347.37793 74.81541 346.49125 74.58518 345.97413 C 74.35494 345.457 75.20987 345.46364 79.01788 346.01433 Z" fill="#ff0000"/>
        </g>
        <g id="Graphic_12">
          <path d="M 106.40162 342.10974 C 106.00671 342.44047 105.10176 342.84338 104.46245 342.9731 C 103.72972 343.067 104.05999 342.76503 105.09422 342.30457 C 106.19309 341.8153 106.70312 341.74314 106.40162 342.10974 Z" fill="#ff0000"/>
        </g>
        <g id="Graphic_11">
          <path d="M 111.80255 339.62764 C 111.69496 339.9079 111.14199 340.23155 110.60318 340.2391 C 109.99973 340.2754 110.1073 339.99514 110.81834 339.67857 C 111.50059 339.29736 111.97476 339.3186 111.80255 339.62764 Z" fill="#ff0000"/>
        </g>
        <g id="Graphic_10">
          <path d="M 95.96373 233.5987 C 96.28738 234.15167 97.09229 234.56782 97.6311 234.5603 C 98.2992 234.4952 98.41386 234.05688 97.87459 233.36754 C 97.55093 232.81457 96.74603 232.3984 96.20721 232.40595 C 95.53912 232.47104 95.42446 232.90936 95.96373 233.5987 Z" fill="#cccccc"/>
        </g>
        <g id="Graphic_9">
          <path d="M 82.19212 267.3808 C 80.48363 269.45816 81.19649 271.92907 83.39468 271.64745 C 85.62165 271.43046 87.18487 266.9393 85.38822 266.03525 C 83.99402 265.3393 83.80011 265.42563 82.19212 267.3808 Z" fill="#cccccc"/>
        </g>
        <g id="Graphic_8">
          <path d="M 83.27567 276.42504 C 81.97672 278.55243 83.26425 280.92238 85.38318 280.28878 C 87.17892 279.79908 87.60787 276.58744 86.18444 275.12997 C 85.09174 274.06742 84.50999 274.32644 83.27567 276.42504 Z" fill="#cccccc"/>
        </g>
        <g id="Graphic_7">
          <path d="M 86.08279 284.46955 C 84.78384 286.59693 86.07137 288.9669 88.1903 288.3333 C 90.2446 287.72847 90.95335 283.92754 89.1567 283.0235 C 87.57566 282.25583 87.31711 282.37094 86.08279 284.46955 Z" fill="#cccccc"/>
        </g>
        <g id="Graphic_6">
          <path d="M 88.81956 294.7915 C 88.23209 297.2992 88.74304 298.62075 90.49629 299.0794 C 92.62322 299.68148 93.74904 296.4694 92.36809 294.06357 C 90.98715 291.65776 89.35655 291.9965 88.81956 294.7915 Z" fill="#cccccc"/>
        </g>
        <g id="Graphic_5">
          <path d="M 89.49586 307.27008 C 88.69278 309.6414 90.09451 310.87617 92.48617 309.81134 C 94.81318 308.7753 95.44359 306.01613 93.4601 305.04037 C 91.85029 304.20805 90.16258 305.11437 89.49586 307.27008 Z" fill="#cccccc"/>
        </g>
        <g id="Graphic_4">
          <path d="M 80.60099 317.03928 C 79.52519 319.84183 79.89932 320.68214 82.30605 320.69494 C 84.77741 320.67895 85.77487 318.91816 84.65248 316.39723 C 83.55887 313.94093 81.67679 314.23672 80.60099 317.03928 Z" fill="#cccccc"/>
        </g>
      </g>
    </g>
  </g>
</svg>
