<?xml version="1.0" encoding="utf-8"?>
<svg xmlns:xl="http://www.w3.org/1999/xlink" xmlns="http://www.w3.org/2000/svg"
     xmlns:dc="http://purl.org/dc/elements/1.1/"
     xmlns:xlink="http://www.w3.org/1999/xlink"
     version="1.1"
     viewBox="54 67.5 256.5 342"
     width="256.5"
     height="342"
     preserveAspectRatio="xMidYMid meet"
     zoomAndPan="magnify"
     contentScriptType="application/ecmascript"
     contentStyleType="text/css">
   <defs/>
   <metadata  xmlns:svg="http://www.w3.org/2000/svg"
             xmlns:rdf="http://www.w3.org/1999/02/22-rdf-syntax-ns#"
             xmlns:cc="http://creativecommons.org/ns#">
      <rdf:RDF>
         <cc:Work rdf:about="">
            <dc:creator>
               <cc:Agent>
                  <dc:title>http://heraldicart.org Zills, Pair of.svg</dc:title>
               </cc:Agent>
            </dc:creator>
         </cc:Work>
      </rdf:RDF>
   </metadata>
   <g stroke-opacity="1" fill="#ffff00" fill-opacity="1" stroke="#505050"
      stroke-dasharray="none">
      <title>Zills, Pair of</title>
      <g>
         <title>Art</title>
         <g>
            <g>
               <g>
                  <g  id="outline-0">
                     <path 
                           d="M 136.36104 72.70492 C 134.6379 73.09654 131.7399 74.11476 130.01675 74.97633 C 125.55225 77.24774 123.75079 82.57381 123.28084 95.10574 C 123.1242 100.27516 123.28084 105.91452 123.67247 107.63766 C 127.74534 126.5922 129.78178 132.30989 135.73444 141.78716 C 137.45758 144.52852 143.64522 152.36097 146.22993 155.10233 L 148.89296 158.00034 L 146.62155 158.8619 C 145.44669 159.33185 141.92208 160.89834 138.86742 162.30819 C 134.48125 164.34462 132.87767 164.94957 132.87767 164.94957 C 132.87767 164.94957 131.58324 165.04954 124.37739 165.83279 C 109.33908 167.4776 92.96925 170.76723 78.32256 174.99676 C 75.97283 175.70168 72.44822 177.58147 70.09849 179.46126 C 67.827075 181.34105 64.77242 183.61246 63.20593 184.55235 C 60.15127 186.43214 57.801535 190.34837 57.801535 193.638 C 57.801535 195.04784 58.81975 196.37936 61.40446 198.4158 C 63.4409 199.90396 65.399014 201.15715 65.71231 201.15715 C 66.02561 201.15715 67.9054 202.2537 69.86351 203.5069 C 71.7433 204.8384 76.05115 206.56155 79.49743 207.50144 C 89.36632 210.08615 90.14957 210.32112 93.36087 211.73096 C 95.00569 212.43589 101.19333 213.68908 107.06766 214.55065 C 112.942 215.41222 119.83456 216.58709 122.41927 217.21368 C 141.45213 221.52153 219.2284 221.20823 240.68932 216.82206 C 244.60554 216.03881 251.10648 214.94227 255.17935 214.394 C 259.25223 213.92405 264.8916 212.67086 267.71128 211.73096 C 272.95902 209.85118 279.6166 207.89306 283.7678 206.95317 C 285.09933 206.63987 286.2742 206.16992 286.50917 205.93495 C 286.74414 205.69998 288.31063 204.8384 290.03377 204.05516 C 295.43816 201.47045 302.64402 196.30103 304.4455 193.48135 C 305.38538 191.99318 306.4036 189.64345 306.63857 188.15528 C 307.57847 182.35927 297.39628 176.01498 280.32153 171.70713 C 268.1029 168.57415 240.21937 164.34462 231.9953 164.34462 C 231.9953 164.34462 226.9042 163.09143 223.6929 161.60326 C 216.4087 158.2353 203.17187 154.47573 196.43596 153.77081 C 193.61627 153.53584 189.38675 152.93861 189.38675 152.93861 C 189.38675 152.93861 189.77837 150.95113 190.32664 147.89647 C 190.71826 145.54674 191.34486 142.17878 191.57983 140.45564 C 192.28476 136.22612 191.10989 122.36267 189.70005 118.99472 C 189.07345 117.58488 188.6035 115.86174 188.6035 115.31347 C 188.6035 114.21692 186.88036 109.9874 183.43408 102.85987 C 182.41586 100.66678 179.0479 93.77422 178.81294 92.99097 C 178.49964 92.1294 176.38488 88.68313 174.03514 85.23685 C 170.35389 79.83245 169.02237 78.657585 163.53965 75.5246 L 157.22474 73.19445 L 148.50134 72 C 143.64522 72.078325 138.1625 72.39162 136.36104 72.70492 Z M 153.12249 94.94909 C 162.28646 103.01651 171.29378 120.71786 174.50509 136.93104 C 174.8967 138.88915 175.36666 143.197 175.5233 146.56495 C 175.91493 153.61416 175.7289 152.93861 175.7289 152.93861 C 175.7289 152.93861 176.30655 153.30086 166.67263 153.69249 C 161.65986 153.92746 161.18992 154.70091 161.18992 154.70091 C 161.18992 154.70091 157.27369 150.40286 157.19537 149.93291 C 157.19537 149.46296 155.94217 147.50485 154.53233 145.54674 C 152.33924 142.64873 149.83286 138.34088 149.04961 136.14779 C 148.97129 135.91282 148.50134 134.73795 148.0314 133.56308 C 146.38658 129.72518 145.44669 122.67597 145.36836 114.60855 C 145.36836 106.77609 146.54323 93.85254 147.4048 92.36438 C 148.10972 91.26783 149.75453 92.05108 153.12249 94.94909 Z"
                           fill="black"/>
                  </g>
               </g>
               <g>
                  <path d="M 158.32348 76.363975 C 159.49835 76.99057 163.64955 79.18366 164.66777 79.49696 C 168.584 80.75015 174.61498 89.67914 180.95927 103.69924 C 181.74252 105.42238 183.23068 108.79033 184.40555 111.21839 C 187.7735 118.65922 188.7134 123.0454 188.87005 132.36601 C 189.10502 140.82506 188.79173 144.89794 187.53853 149.67574 C 186.99026 151.7905 186.8532 152.99474 186.8532 152.99474 L 178.92283 152.55416 C 178.92283 152.55416 178.76619 152.1038 178.21791 141.68663 C 178.06126 137.37878 177.1997 132.28769 176.33812 129.54633 C 173.3618 120.69566 170.93373 114.27305 169.99384 113.25483 C 169.5239 112.62823 168.19237 110.43515 167.09583 108.32038 C 165.99929 106.20562 164.19782 103.62091 163.1796 102.44604 C 162.16138 101.3495 159.655 97.98155 159.3417 97.1983 C 159.10673 96.49338 156.757 94.30029 154.2506 92.4205 C 151.6659 90.46239 149.55113 88.50428 149.55113 88.11265 C 149.55113 87.64271 150.64768 86.31119 152.05752 85.13632 L 154.64223 83.02156 L 152.21417 82.94324 C 146.5748 82.94324 144.06842 90.69736 142.81523 111.92331 C 142.18863 122.1055 143.52015 129.62466 147.5147 138.55365 C 148.92454 141.84328 155.40896 150.4821 155.89542 151.08558 C 156.13865 151.38731 158.55846 155.47175 160.9082 158.36976 C 164.7461 162.9909 166.31258 166.51551 164.66777 166.8288 C 160.12495 167.69038 159.10673 167.37708 157.38359 164.2441 C 156.36537 162.44263 153.62401 158.99636 151.19595 156.5683 C 144.61669 149.83239 143.28517 148.18757 138.35073 140.82506 C 133.72958 133.77586 132.55471 131.11282 129.81335 121.32226 C 126.21042 108.00709 125.89713 105.5007 126.83702 94.22197 C 127.30697 88.42595 128.01189 83.02156 128.40351 82.31664 C 128.71681 81.61172 129.26508 80.35853 129.50005 79.653605 C 130.20498 77.38219 133.57293 75.8157 139.13397 75.18911 C 146.2615 74.48419 155.73877 75.03246 158.32348 76.363975 Z"/>
               </g>
               <g>
                  <path d="M 204.03344 158.00034 C 208.26296 158.8619 214.37227 160.50672 217.58358 161.60326 C 224.55446 163.953 235.28492 171.0022 239.0445 175.62336 C 241.70753 178.83466 243.74397 182.35927 243.27403 182.67256 C 243.11738 182.75089 239.6711 183.92576 235.59822 185.25727 C 211.00432 193.40302 190.01334 195.83108 167.45588 193.0114 C 148.26637 190.58334 129.5468 187.05874 125.3956 185.0223 C 123.1242 183.92576 121.2444 182.67256 121.2444 182.28094 C 121.2444 179.6179 127.19707 172.882 133.85465 168.1042 C 135.34282 166.92933 139.88564 164.65792 143.8802 163.09143 L 151.16438 160.1151 L 153.27914 162.46483 C 154.37568 163.79635 156.09882 165.83279 157.11704 167.00766 C 158.21358 168.33917 159.44561 168.66693 160.09337 168.7308 C 160.74113 168.79466 163.308 168.49819 164.27394 168.35876 C 166.6083 168.0218 167.67127 165.59782 167.35797 163.6397 C 167.20132 162.85646 166.1831 161.21164 165.00824 160.03677 C 163.83337 158.8619 162.95222 157.65767 162.95222 157.34437 C 162.95222 157.03107 165.5761 156.66882 168.00415 156.5905 C 170.43221 156.51217 172.48114 156.12503 172.86027 156.04222 C 174.42616 155.63399 196.67093 156.51217 204.03344 158.00034 Z"/>
               </g>
               <g>
                  <path d="M 256.43255 169.82734 C 276.64028 172.80367 291.7569 176.95487 299.19774 181.65434 C 305.1504 185.49225 305.38538 188.46858 300.13764 193.24638 C 295.5165 197.4759 289.64215 200.29558 272.41075 206.63987 C 270.45264 207.3448 261.14044 209.57596 253.5646 210.82112 C 245.98874 212.06628 236.2296 214.2368 224.01097 215.33333 C 208.816 216.74317 163.23997 217.71733 146.94847 216.22917 C 139.50763 215.60257 115.91834 212.67086 110.6706 211.33934 C 105.97112 210.16447 99.39186 208.75463 96.18056 208.20636 C 92.96925 207.6581 89.05302 206.79652 87.56486 206.24825 C 70.72508 199.98228 66.65221 198.02417 63.36258 194.5779 C 60.934516 192.0715 60.77787 191.60156 61.56111 189.87842 C 62.657656 187.45036 71.82163 181.34105 78.79251 178.44304 C 85.99837 175.38838 97.98202 172.49037 112.55038 170.21896 C 129.78178 167.4776 129.90906 167.91818 129.90906 167.91818 C 129.90906 167.91818 129.2335 167.39928 124.69068 172.41205 C 122.57592 174.76179 120.06954 177.9731 119.12964 179.69623 C 119.12964 179.69623 118.3965 181.3973 118.62512 182.82921 C 118.85374 184.26113 122.41927 186.42235 122.41927 186.42235 C 128.89531 189.83384 131.80124 190.49002 142.07873 192.46313 C 146.45383 193.38726 155.15893 194.10794 161.58154 194.96951 C 171.29378 196.37936 175.44498 196.536 185.86214 196.14438 C 203.72014 195.43946 208.57626 195.04784 215.62547 193.638 C 223.77122 191.99318 242.49078 185.88387 244.91884 184.0824 C 246.7203 182.59424 246.7203 182.59424 245.3888 179.9312 C 244.60554 178.44304 241.86418 174.99676 239.20115 172.2554 L 234.42335 167.24263 L 240.2977 167.7909 C 243.509 168.1042 250.79318 169.0441 256.43255 169.82734 Z"/>
               </g>
            </g>
            <g>
               <g>
                  <g  id="outline-1">
                     <path 
                           d="M 155.09633 261.3513 C 151.02346 261.6646 142.5644 262.36953 136.29845 262.9178 C 116.32569 264.4843 96.11796 267.93057 86.0141 271.45518 C 70.81914 276.78125 65.17977 279.75758 62.51674 283.75213 C 61.73349 285.00532 61.106895 287.35506 61.106895 289.31317 C 61.106895 295.7358 67.99945 300.51358 85.15253 306.15295 C 89.852 307.71944 95.41304 309.36425 97.60613 309.8342 C 102.9322 311.0874 120.32024 313.6721 128.85762 314.53367 C 133.55709 315.08194 140.293 316.64843 148.9087 319.3898 C 161.6756 323.38434 161.91057 323.541 161.12732 325.26413 C 160.65737 326.28235 158.54261 328.47544 157.5244 330.19858 C 156.5845 331.9217 155.3313 333.56653 154.86136 333.87983 C 153.76482 334.58475 148.04713 343.9837 148.04713 345.15856 C 148.04713 345.5502 147.18556 348.05657 146.16734 350.7196 C 142.25111 360.5885 141.16714 369.67414 141.24546 380.87455 C 141.32379 389.3336 141.71541 392.07496 143.12525 396.22616 C 144.69174 400.769 144.7575 401.4739 147.73383 402.96207 C 152.35497 405.3118 161.37448 405.3015 168.46046 404.55793 C 179.70668 403.39206 181.1784 402.4921 186.2695 397.636 C 191.28227 392.93653 197.54823 383.8509 199.42802 378.60314 C 200.05461 376.80167 200.83786 375.0002 201.15116 374.53026 C 201.77775 373.747 203.97084 367.951 207.0255 359.17865 C 209.53188 352.05112 209.76686 339.9108 207.6521 328.86706 L 207.0255 325.65575 L 217.67763 321.9745 C 223.55197 319.93806 230.13123 317.51 232.246 316.4918 C 234.43908 315.47357 237.57207 314.53367 239.2952 314.2987 C 262.32262 311.00907 268.9802 309.67755 279.63234 306.15295 C 297.0204 300.43526 303.91294 295.5008 303.91294 288.52993 C 303.91294 283.75213 295.21892 276.78125 285.8983 274.0399 C 283.54857 273.4133 281.27715 272.63005 280.8072 272.31675 C 276.3427 269.34042 249.63404 264.4843 228.32977 262.9178 C 221.90716 262.36953 212.66486 261.6646 207.88707 261.273 C 197.7832 260.3331 165.8268 260.41142 155.09633 261.3513 Z M 186.81777 328.3971 L 193.16206 328.86706 L 192.61378 335.21135 C 192.06551 341.164 191.12562 345.15856 188.2276 353.69594 C 186.2695 359.6486 185.3296 361.92 183.84144 364.1131 C 183.13652 365.20964 182.50992 366.54116 182.50992 367.0111 C 182.50992 367.48105 181.41338 369.5175 180.00353 371.55393 C 173.73757 380.7179 166.92334 386.98386 165.2002 385.26072 C 164.02533 384.08586 162.77214 372.49382 162.77214 363.4865 C 162.77214 355.73237 163.79036 348.29154 165.43517 344.3753 C 165.90512 343.27877 166.37507 342.18223 166.4534 341.94726 C 167.39328 338.97092 168.95978 336.0729 172.32773 331.06015 C 174.91244 327.14392 175.22574 326.98727 177.81045 327.3789 C 179.29861 327.6922 183.3715 328.0838 186.81777 328.3971 Z"
                           fill="black"/>
                  </g>
               </g>
               <g>
                  <path d="M 212.27324 264.40597 C 220.26234 264.87592 229.0347 265.58084 231.85437 265.97246 C 234.67406 266.36408 241.4883 267.30398 247.12766 268.0089 C 257.1532 269.2621 279.4757 274.27486 284.48846 276.46795 C 285.8983 277.09454 288.63966 278.1911 290.51945 278.97433 C 294.90562 280.85412 300.2317 285.16197 300.8583 287.5117 C 302.97305 294.95254 288.01306 302.23672 258.4847 308.1894 C 256.5266 308.581 254.41184 309.12928 253.78524 309.36425 C 253.15865 309.59923 245.71782 310.53912 237.3371 311.479 C 218.14758 313.51545 167.39328 314.45535 146.87226 313.0455 C 129.09259 311.87064 113.74098 310.06917 106.1435 308.2677 C 102.69722 307.48446 97.91943 306.38792 95.56969 305.91797 C 88.44216 304.3515 76.69348 300.35693 72.07233 297.92887 C 66.74626 295.1092 63.45663 291.5846 63.45663 288.60825 C 63.45663 285.78857 69.096 280.85412 74.65704 278.896 C 76.92845 278.11276 79.12154 277.2512 79.51316 276.9379 C 80.37473 276.23298 89.38205 273.56994 94.78644 272.39507 C 96.74456 271.92513 100.42581 271.06356 103.01052 270.43696 C 105.59523 269.81036 111.93952 268.71382 117.10894 268.0089 C 122.27835 267.30398 129.32756 266.36408 132.77384 265.89414 C 148.36042 263.8577 187.67934 263.07445 212.27324 264.40597 Z"/>
               </g>
               <g>
                  <path d="M 225.2947 316.44283 C 223.80653 317.931 204.1275 323.77597 197.4699 324.8725 C 188.77588 326.28235 176.94888 325.02916 163.71203 321.19126 C 147.0289 316.33514 145.55053 315.56168 145.55053 315.56168 C 145.55053 315.56168 146.48063 316.4918 177.57547 316.72676 C 199.81964 316.8834 225.7157 315.98267 228.37872 315.1211 C 228.53537 315.1211 225.2947 316.44283 225.2947 316.44283 Z"/>
               </g>
               <g>
                  <path d="M 169.89967 325.57743 C 172.71935 326.59565 172.95433 327.3789 170.76124 329.18036 C 169.89967 329.9636 168.33318 333.0966 167.31496 334.4281 C 165.12187 337.40443 162.30219 345.08024 160.65737 352.9127 C 158.38596 363.72148 161.3623 388.47203 165.43517 392.8582 C 166.29674 393.7981 167.94156 394.4247 169.42972 394.4247 L 171.9361 394.4247 L 169.42972 392.93653 C 168.0982 392.07496 167.07999 390.9001 167.15831 390.2735 C 167.31496 389.09863 170.76124 385.574 173.73757 383.6159 C 175.46071 382.51936 181.10008 375.07853 182.90154 371.63225 C 183.29316 370.7707 184.61762 369.6793 184.85966 369.12587 C 185.06712 368.6515 185.9562 366.0712 187.2094 363.4865 C 188.46258 360.9018 189.90015 356.46617 190.26405 355.65405 C 190.69148 354.96554 191.00148 353.3179 191.90886 350.95458 C 192.81624 348.59125 194.04576 345.37133 194.4544 343.7585 C 195.25347 340.0922 195.66844 340.2241 195.74677 334.34978 C 195.8251 328.9454 195.77614 328.77895 195.77614 328.77895 C 195.77614 328.77895 196.8433 327.6922 201.85608 326.83062 C 204.51911 326.28235 204.59744 326.51732 205.85063 333.33156 C 206.79052 338.34433 206.16393 353.5393 204.8324 358.23876 C 203.57922 362.4683 202.71765 364.50472 197.86153 374.84356 C 196.76498 377.1933 194.6457 382.48167 194.13462 383.3026 C 193.06133 385.02658 187.60101 393.5631 184.62468 396.3045 C 183.52814 397.3227 180.5518 399.12417 178.12375 400.29903 C 173.97255 402.25715 172.79768 402.4138 163.39873 402.57044 C 146.7156 402.7271 145.54074 401.55223 144.05257 382.911 C 143.191 372.57215 143.73928 366.9328 146.40231 359.17865 C 146.79393 358.0821 147.89048 354.40086 148.9087 350.95458 C 150.63183 344.76694 156.34953 335.0547 162.45884 327.6922 C 165.04355 324.5592 166.06177 324.2459 169.89967 325.57743 Z"/>
               </g>
               <g>
                  <g  id="outline-2">
                     <path 
                           d="M 179.76856 275.0581 C 155.25298 277.72114 147.0289 278.97433 146.7156 279.8359 C 146.48063 280.4625 146.48063 281.0891 146.63728 281.32407 C 146.87226 281.48072 153.99979 280.7758 162.45884 279.67925 C 181.96165 277.17287 192.06551 277.17287 206.3989 279.67925 C 213.29146 280.85412 217.5993 281.32407 218.06926 280.85412 C 219.32245 279.60093 218.14758 279.13098 210.39345 277.64282 C 197.23493 275.13643 186.97442 274.27486 179.76856 275.0581 Z"
                           fill="black"/>
                  </g>
               </g>
               <g>
                  <g  id="outline-3">
                     <path 
                           d="M 126.11626 290.4097 C 126.11626 291.19296 129.24924 292.44615 136.53342 294.40427 C 172.79768 304.3515 183.3715 305.3697 205.38068 300.9052 C 217.36434 298.3988 241.33164 292.05453 242.34986 291.0363 C 244.3863 288.99987 240.39175 289.54815 222.61208 294.01264 C 199.663 299.80866 195.04184 300.51358 183.68479 300.51358 C 172.48438 300.51358 167.54993 299.73033 147.26388 294.40427 C 126.66453 289.0782 126.11626 288.92155 126.11626 290.4097 Z"
                           fill="black"/>
                  </g>
               </g>
            </g>
         </g>
      </g>
   </g>
</svg>