<?xml version="1.0" encoding="UTF-8" standalone="no"?>
<!-- Created with Inkscape (http://www.inkscape.org/) -->
<svg xmlns:dc="http://purl.org/dc/elements/1.1/" xmlns:cc="http://creativecommons.org/ns#" xmlns:rdf="http://www.w3.org/1999/02/22-rdf-syntax-ns#" xmlns:svg="http://www.w3.org/2000/svg" xmlns="http://www.w3.org/2000/svg" version="1.0" width="67.092636" height="751.71259" id="svg5612">
  <metadata id="metadata97">
    <rdf:RDF>
      <cc:Work rdf:about="">
        <dc:format>image/svg+xml</dc:format>
        <dc:type rdf:resource="http://purl.org/dc/dcmitype/StillImage"/>
        <dc:title/>
        <dc:creator>
          <cc:Agent>
            <dc:title>Wikimedia Commons User Tchup2</dc:title>
          </cc:Agent>
        </dc:creator>
      </cc:Work>
    </rdf:RDF>
  </metadata>
  <defs id="defs3"/>
  <g id="layer1">
    <g id="g2604" style="fill:#ffff00;fill-opacity:1;display:inline">
      <g id="XMLID_1_" style="fill:#ffff00;fill-opacity:1">
        <g id="g2402" style="fill:#ffff00;fill-opacity:1">
          <path d="m53.23,711.4 -31.88,0.5138 0,-0.01779   c0.06867,-0.3756 1.145,-6.292 1.366,-7.664   l31.32,-0.49   c-0.07201,1.071 -0.5992,5.785 -0.7585,7.232   l-0.04959,0.4256   z " id="path2404" style="fill:#ffff00;fill-opacity:1"/>
          <path d="m41.23,327.1   c2.687,-2.927 2.159,-7.766 -1.174,-10.83 -3.332,-3.06 -8.208,-3.182 -10.9,-0.2549 -2.679,2.918 -2.15,7.774 1.182,10.83 6.735,6.184 11.57,-0.4938 10.89,0.2468   z m12,-193 0.5179,303.8 -34.34,-0.7872 -6.332,-305.1 40.04,2.094   z m-11.75,228.7   c2.679,-2.918 2.159,-7.766 -1.174,-10.83 -3.332,-3.06 -8.216,-3.173 -10.9,-0.2549 -2.687,2.927 -2.15,7.774 1.182,10.83 3.332,3.06 8.199,3.174 10.89,0.2468   z m-0.5986,-76.33   c2.687,-2.927 2.159,-7.766 -1.174,-10.83 -3.332,-3.06 -8.208,-3.182 -10.9,-0.2549 -2.679,2.918 -2.15,7.774 1.182,10.83 3.332,3.06 8.207,3.165 10.89,0.2468   z m-0.3149,-40.71   c2.679,-2.918 2.159,-7.766 -1.174,-10.83 -3.332,-3.06 -8.207,-3.165 -10.89,-0.2468 -2.679,2.918 -2.159,7.766 1.174,10.83 3.332,3.06 8.207,3.165 10.89,0.2468   z m-0.3149,-40.71   c2.679,-2.918 2.159,-7.766 -1.174,-10.83 -3.332,-3.06 -8.207,-3.165 -10.89,-0.2468 -2.687,2.927 -2.159,7.766 1.174,10.83 3.332,3.06 8.199,3.174 10.89,0.2468   z m-0.3142,-40.7   c2.687,-2.927 2.15,-7.774 -1.182,-10.83 -3.332,-3.06 -8.199,-3.174 -10.89,-0.2468 -2.679,2.918 -2.159,7.766 1.174,10.83 3.332,3.06 8.216,3.173 10.9,0.2549   z " id="path2406" style="fill:#ffff00;fill-opacity:1"/>
          <path d="m41.23,327.1   c0.6799,-0.7405 -4.151,5.937 -10.89,-0.2468 -3.332,-3.06 -3.862,-7.916 -1.182,-10.83 2.687,-2.927 7.563,-2.805 10.9,0.2549 3.332,3.06 3.861,7.899 1.174,10.83   z " id="path2408" style="fill:#ffff00;fill-opacity:1"/>
          <path d="m54.13,750.5   c-0.8,1.101 -24.12,0.403 -25.43,-0.3884 -1.304,-0.7914 -0.971,-10.44 -1.156,-11.8   l25.89,0.7923   c0.3803,1.568 1.499,10.31 0.6983,11.4   z " id="path2410" style="fill:#ffff00;fill-opacity:1"/>
          <path d="m53.33,739.1 -25.89,-0.7923   c-0.168,-1.357 -5.758,-5.514 -5.758,-5.514   l34.46,0.2146   c0,0 -3.204,4.516 -2.815,6.092   z " id="path2412" style="fill:#ffff00;fill-opacity:1"/>
          <path d="m61.83,721.7   c0.831,6.173 -5.716,11.53 -5.716,11.53   l-34.46,-0.2146   c0,0 -7.088,-5.127 -8.055,-10.11 -0.8999,-4.612 7.731,-10.77 7.731,-10.77   l31.88,-0.5138   c0,0 7.79,3.903 8.621,10.08   z " id="path2414" style="fill:#ffff00;fill-opacity:1"/>
          <path d="m54.33,703.4 -0.9367,7.621   c0.1585,-1.447 0.6856,-6.162 0.7585,-7.232 0.005294,-0.09425 0.07597,-0.2243 0.1782,-0.3888   z " id="path2416" style="fill:#ffff00;fill-opacity:1"/>
          <path d="m54.13,703.9 -31.32,0.49   c0.05841,-0.4175 -0.6552,-1.658 -1.732,-3.28   l-0.4015,-11.99 35.23,1.427 -1.599,12.96   c-0.1006,0.1644 -0.1712,0.2945 -0.1765,0.3887   z " id="path2418" style="fill:#ffff00;fill-opacity:1"/>
          <path d="m54.33,703.4 1.599,-12.96 9.156,0.3816   c-0.2701,3.018 -9.378,10.5 -10.75,12.58   z " id="path2420" style="fill:#ffff00;fill-opacity:1"/>
          <path d="m65.03,690.9 -9.156,-0.3816 1.188,-9.647   c0.0008816,0.0008094 8.244,6.772 7.967,10.03   z " id="path2422" style="fill:#ffff00;fill-opacity:1"/>
          <path d="m57.33,680.9 -1.188,9.647 0,0 -35.23,-1.427 -0.2644,-7.781   z " id="polygon2424" style="fill:#ffff00"/>
          <path d="m55.73,517.6 1.315,163.1 -36.68,0.4394 -1.614,-163.4 0.2963,-0.004178 36.69,-0.16   z m-11.16,148.2   c2.719,-2.961 2.099,-7.967 -1.392,-11.17 -3.5,-3.213 -8.539,-3.405 -11.26,-0.4426 -2.72,2.962 -2.1,7.968 1.4,11.18 3.491,3.205 8.531,3.397 11.25,0.4337   z " id="path2426" style="fill:#ffff00;fill-opacity:1"/>
          <path d="m21.43,712 -0.3664,-10.94   c1.077,1.623 1.791,2.863 1.732,3.28 -0.2209,1.373 -1.298,7.289 -1.366,7.664   z " id="path2428" style="fill:#ffff00;fill-opacity:1"/>
          <path d="m20.93,689 0.4015,11.99   c-2.572,-3.888 -7.144,-10 -7.546,-12.27   l7.144,0.2879   z " id="path2430" style="fill:#ffff00;fill-opacity:1"/>
          <path d="m43.13,654.7   c3.491,3.205 4.111,8.21 1.392,11.17 -2.72,2.962 -7.76,2.772 -11.25,-0.4337 -3.5,-3.213 -4.12,-8.218 -1.4,-11.18 2.719,-2.961 7.759,-2.771 11.26,0.4426   z " id="path2432" style="fill:#ffff00;fill-opacity:1"/>
          <path d="m21.13,689.1 -7.476,-0.2933   c-0.583,-3.378 7.209,-7.851 7.209,-7.851   l0.2672,8.145   z " id="path2434" style="fill:#ffff00;fill-opacity:1"/>
          <path d="m62.43,506.8   c0.3519,5.863 -6.636,10.82 -6.636,10.82   l-2.56,-11.16 9.133,-0.1443   c0.03222,0.1596 0.04754,0.3198 0.06285,0.4801   z " id="path2436" style="fill:#ffff00;fill-opacity:1"/>
          <path d="m53.83,506.4 2.608,11.33 0,0 -37.25,0.1331 1.518,-10.97   z " id="polygon2438" style="fill:#ffff00"/>
          <path d="m62.33,506.4 -9.133,0.1443 -2.642,-11.49   c0,0 10.86,5.796 11.78,11.35   z " id="path2440" style="fill:#ffff00;fill-opacity:1"/>
          <path d="m50.83,494.9 2.642,11.49 0,0 -32.62,0.5117 1.488,-10.79   z " id="polygon2442" style="fill:#ffff00"/>
          <path d="m58.53,477.4   c1.734,14.04 -8,17.56 -8,17.56   l-28.49,1.216   c0,0 -10.15,-5.14 -12.12,-18.33 -1.969,-13.18 11.43,-19.97 11.43,-19.97   l30.76,1.16   c0,0 4.699,4.314 6.425,18.36   z " id="path2444" style="fill:#ffff00;fill-opacity:1"/>
          <path d="m20.53,507   c0.7579,3.547 -0.6968,7.19 -1.504,10.8 0,0 -7.988,-5.775 -7.562,-10.66   l9.066,-0.1414   z " id="path2446" style="fill:#ffff00;fill-opacity:1"/>
          <path d="m20.53,507 -9.066,0.1414   c0.3546,-3.996 10.55,-10.93 10.55,-10.93 2.838,4.116 2.775,7.779 -1.488,10.79   z " id="path2448" style="fill:#ffff00;fill-opacity:1"/>
          <path d="m62.73,444.6   c-1.349,4.513 -10.65,14.52 -10.65,14.52   l1.149,-14.95 9.506,0.4251   z " id="path2450" style="fill:#ffff00;fill-opacity:1"/>
          <path d="m20.13,442.7 33.33,1.474 0,0 -1.149,14.95 -30.76,-1.16   z " id="polygon2452" style="fill:#ffff00"/>
          <path d="m62.73,444.6 -9.506,-0.4251 0.485,-6.297   c0.0008816,0.0008094 10.11,3.076 9.021,6.722   z " id="path2454" style="fill:#ffff00;fill-opacity:1"/>
          <path d="m19.33,437.1 34.34,0.7872 0,0 -0.485,6.297 -33.33,-1.474   z " id="polygon2456" style="fill:#ffff00"/>
          <path d="m19.93,442.7   c11.65,8.684 15.98,15.01 1.422,15.26 0,0 -8.927,-11.49 -9.715,-15.06 -0.04176,-0.1846 -0.05852,-0.3787 -0.04955,-0.5654   l8.342,0.3639   z " id="path2458" style="fill:#ffff00;fill-opacity:1"/>
          <path d="m19.93,442.7 -8.342,-0.3639   c0.1415,-3.233 7.823,-5.247 7.823,-5.247   l0.519,5.611   z " id="path2460" style="fill:#ffff00;fill-opacity:1"/>
          <path d="m40.43,351.9   c3.332,3.06 3.853,7.908 1.174,10.83 -2.687,2.927 -7.554,2.813 -10.89,-0.2468 -3.332,-3.06 -3.87,-7.907 -1.182,-10.83 2.679,-2.918 7.563,-2.805 10.9,0.2549   z " id="path2462" style="fill:#ffff00;fill-opacity:1"/>
          <path d="m39.73,275.6   c3.332,3.06 3.861,7.899 1.174,10.83 -2.679,2.918 -7.554,2.813 -10.89,-0.2468 -3.332,-3.06 -3.862,-7.916 -1.182,-10.83 2.687,-2.927 7.563,-2.805 10.9,0.2549   z " id="path2464" style="fill:#ffff00;fill-opacity:1"/>
          <path d="m39.43,234.9   c3.332,3.06 3.853,7.908 1.174,10.83 -2.679,2.918 -7.554,2.813 -10.89,-0.2468 -3.332,-3.06 -3.853,-7.908 -1.174,-10.83 2.679,-2.918 7.554,-2.813 10.89,0.2468   z " id="path2466" style="fill:#ffff00;fill-opacity:1"/>
          <path d="m39.13,194.2   c3.332,3.06 3.853,7.908 1.174,10.83 -2.687,2.927 -7.554,2.813 -10.89,-0.2468 -3.332,-3.06 -3.861,-7.899 -1.174,-10.83 2.679,-2.918 7.554,-2.813 10.89,0.2468   z " id="path2468" style="fill:#ffff00;fill-opacity:1"/>
          <path d="m38.73,153.5   c3.332,3.06 3.87,7.907 1.182,10.83 -2.679,2.918 -7.563,2.805 -10.9,-0.2549 -3.332,-3.06 -3.853,-7.908 -1.174,-10.83 2.687,-2.927 7.554,-2.813 10.89,0.2468   z " id="path2470" style="fill:#ffff00;fill-opacity:1"/>
          <path d="m13.23,132 0.005207,-0.07646 0.5853,-7.521 39.07,1.737 0.3812,7.937 0.0007219,0.01691 0,0   z " id="polygon2472" style="fill:#ffff00"/>
          <path d="m53.23,134.1 -0.3812,-7.937 0.7807,0.03443   c-0.01871,1.348 -0.3735,7.521 -0.3996,7.903   z " id="path2474" style="fill:#ffff00;fill-opacity:1"/>
          <path d="m53.23,126.6 -0.8319,-0.04385 -0.5641,-9.722 9.261,0.173   c0.1979,1.57 -7.853,8.097 -7.866,9.594   z " id="path2476" style="fill:#ffff00;fill-opacity:1"/>
          <path d="m52.33,116.9 0.4494,9.137 0,0 -39.07,-1.737 0.6082,-7.776   z " id="polygon2478" style="fill:#ffff00"/>
          <path d="m61.03,117 -8.694,-0.08625 -0.3949,-8.259   c0,0 8.924,6.861 9.089,8.345   z " id="path2480" style="fill:#ffff00;fill-opacity:1"/>
          <path d="m15.23,107.2 37.67,1.391 0,0 0.3954,8.43 -38.8,-0.3511   z " id="polygon2482" style="fill:#ffff00"/>
          <path d="m14.03,53.6 37.24,-0.7426 0,0 0.6912,55.87 -36.91,-1.389   z " id="polygon2484" style="fill:#ffff00"/>
          <path d="m13.73,124.4 -0.5853,7.521   c-0.006036,-0.7367 -0.01979,-6.614 -0.01757,-7.555   l0.6028,0.03356   z " id="path2486" style="fill:#ffff00;fill-opacity:1"/>
          <path d="m15.43,116.2 -0.9259,8.728 -0.6707,-0.01838   c0.05027,-1.13 -7.168,-6.824 -7.013,-8.548   l8.609,-0.1608   z " id="path2488" style="fill:#ffff00;fill-opacity:1"/>
          <path d="m14.73,116.9 -8.12,-0.2675   c0.05347,-1.615 8.644,-9.415 8.644,-9.415   l-0.5243,9.683   z " id="path2490" style="fill:#ffff00;fill-opacity:1"/>
          <path d="m54.33,46.9   c0.2473,3.411 -3.032,5.957 -3.032,5.957   l0.3804,-13.51   c0,0 2.396,4.133 2.652,7.552   z " id="path2492" style="fill:#ffff00;fill-opacity:1"/>
          <path d="m12.63,39.7 39.4,-0.4285 0,0 -0.3523,13.85 -38.2,0.6566   z " id="polygon2494" style="fill:#ffff00"/>
          <path d="m6.133,22.4 54.07,-0.7242 0,0 -8.554,17.69 -38.42,0.5219   z " id="polygon2496" style="fill:#ffff00"/>
          <path d="m64.73,13.6 -4.249,8.42 -54.66,0.7495 -3.703,-9.166 -0.2491,-0.623 62.95,-0.0107 0.1657,0.06996   c-0.1646,0.3582 -0.2585,0.5677 -0.2585,0.5677   z " id="path2498" style="fill:#ffff00;fill-opacity:1"/>
          <path d="m64.73,12.7 -0.1639,-0.06924 -62.27,-0.001268   c0,0 -2.748,-7.625 -1.105,-9.626 3.284,-4.02 63.09,-2.422 64.74,0.1333 1.596,2.473 -0.4539,7.821 -1.193,9.563   z " id="path2500" style="fill:#ffff00;fill-opacity:1"/>
          <path d="m13.23,39.8 0.7979,13.73   c0,0 -3.641,-3.343 -3.566,-6.946 0.03927,-2.255 2.768,-6.784 2.768,-6.784   z " id="path2502" style="fill:#ffff00;fill-opacity:1"/>
        </g>
        <g id="g2504" style="fill:#ffff00;fill-opacity:1">
          <path d="m15.03,107.3 0,0 36.91,1.389 -0.6912,-55.87 -37.24,0.7426   z " id="polygon2506" style="fill:#ffff00;stroke:#000000"/>
          <path d="M6.133,22.4 13.23,39.8 51.63,39.3 60.23,21.6   " id="polyline2508" style="fill:#ffff00;stroke:#000000"/>
          <path d="m56.23,733.1   c0,0 6.547,-5.362 5.716,-11.53 -0.831,-6.173 -8.621,-10.08 -8.621,-10.08   l-31.88,0.5138   c0,0 -8.631,6.162 -7.731,10.77 0.9665,4.982 8.055,10.11 8.055,10.11   " id="path2510" style="fill:#ffff00;fill-opacity:1;stroke:#000000"/>
          <path d="m13.23,39.8   c0,0 -2.729,4.53 -2.768,6.784 -0.07489,3.603 3.566,6.946 3.566,6.946   " id="path2512" style="fill:#ffff00;fill-opacity:1;stroke:#000000"/>
          <path d="m51.33,52.8   c0,0 3.279,-2.546 3.032,-5.957 -0.2561,-3.42 -2.652,-7.552 -2.652,-7.552   " id="path2514" style="fill:#ffff00;fill-opacity:1;stroke:#000000"/>
          <path d="m6.133,22.4 -3.665,-9.068 -0.2465,-0.6163   c0,0 -2.748,-7.625 -1.105,-9.626 3.284,-4.02 63.09,-2.422 64.74,0.1333 1.596,2.473 -0.4539,7.821 -1.193,9.563 -0.1628,0.3542 -0.2556,0.5615 -0.2556,0.5615   l-4.202,8.328   " id="path2516" style="fill:#ffff00;fill-opacity:1;stroke:#000000"/>
          <path d="M2.233,12.7 64.53,12.7   " id="line2518" style="fill:#ffff00;stroke:#000000"/>
          <path d="m53.23,134.1 0,0 0.5422,303.8   L19.43,437 13.13,132   z " id="polygon2520" style="fill:#ffff00;stroke:#000000"/>
          <path d="m19.43,437   c0,0 -7.681,2.014 -7.823,5.247 -0.008969,0.1867 0.007787,0.3808 0.04955,0.5654 0.7875,3.566 9.715,15.06 9.715,15.06   " id="path2522" style="fill:#ffff00;fill-opacity:1;stroke:#000000"/>
          <path d="m53.73,437.8   c0,0 10.11,3.075 9.021,6.722 -1.349,4.513 -10.65,14.52 -10.65,14.52   " id="path2524" style="fill:#ffff00;fill-opacity:1;stroke:#000000"/>
          <path d="m11.63,442.3 8.342,0.3639 33.33,1.474 9.505,0.4243   " id="polyline2526" style="fill:#ffff00;stroke:#000000"/>
          <path d="m21.33,457.9   c0,0 -13.4,6.789 -11.43,19.97 1.978,13.19 12.12,18.33 12.12,18.33   l28.49,-1.216   c0,0 9.734,-3.524 8,-17.56 -1.726,-14.05 -6.425,-18.36 -6.425,-18.36   l-30.76,-1.16   z " id="path2528" style="fill:#ffff00;fill-opacity:1;stroke:#000000"/>
          <path d="m57.03,680.8 -36.68,0.4394 0,0 -1.614,-163.4 0.2963,-0.004178 36.69,-0.16   z " id="polygon2530" style="fill:#ffff00;stroke:#000000"/>
          <path d="m19.03,517.8   c0,0 -7.988,-5.775 -7.562,-10.66 0.3546,-3.996 10.55,-10.93 10.55,-10.93   " id="path2532" style="fill:#ffff00;fill-opacity:1;stroke:#000000"/>
          <path d="m50.53,495   c0,0 10.86,5.796 11.78,11.35 0.03222,0.1596 0.04754,0.3198 0.06285,0.4801 0.3519,5.863 -6.636,10.82 -6.636,10.82   " id="path2534" style="fill:#ffff00;fill-opacity:1;stroke:#000000"/>
          <path d="m11.53,507.1 9.066,-0.1414 32.62,-0.5117 9.133,-0.1443 0.008816,0.008094   " id="polyline2536" style="fill:#ffff00;stroke:#000000"/>
          <path d="m57.03,680.8   c0,0 8.243,6.772 7.967,10.03 -0.2693,3.018 -9.377,10.5 -10.75,12.58 -0.1022,0.1645 -0.172,0.2953 -0.1782,0.3888 -0.07201,1.071 -0.5992,5.785 -0.7585,7.232   " id="path2538" style="fill:#ffff00;fill-opacity:1;stroke:#000000"/>
          <path d="M53.33,711.4 53.33,711   " id="line2540" style="fill:#ffff00;stroke:#000000"/>
          <path d="m20.33,681.2   c0,0 -7.441,4.265 -6.88,7.493 0.4018,2.27 4.974,8.385 7.546,12.27 1.077,1.623 1.791,2.863 1.732,3.28 -0.2209,1.373 -1.298,7.289 -1.366,7.664   " id="path2542" style="fill:#ffff00;fill-opacity:1;stroke:#000000"/>
          <path d="m21.43,712 0,-0.01779   " id="line2544" style="fill:#ffff00;stroke:#000000"/>
          <path d="m65.03,690.8 -9.155,-0.3808 -35.23,-1.426 -7.144,-0.2879   " id="polyline2546" style="fill:#ffff00;stroke:#000000"/>
          <path d="m21.73,732.8   c0,0 5.591,4.157 5.758,5.514 0.1849,1.356 -0.1484,11.01 1.156,11.8 1.304,0.7914 24.63,1.49 25.43,0.3884 0.8007,-1.085 -0.3179,-9.829 -0.6983,-11.4 -0.3891,-1.576 2.815,-6.092 2.815,-6.092   " id="path2548" style="fill:#ffff00;fill-opacity:1;stroke:#000000"/>
          <path d="m27.53,738.4 25.89,0.7923   " id="line2550" style="fill:#ffff00;stroke:#000000"/>
          <path d="m15.03,107.3   c0,0 -8.356,7.65 -8.442,9.195 -0.09531,1.537 6.533,6.811 6.517,7.819 -0.002211,0.9403 0.01154,6.818 0.01757,7.555   " id="path2552" style="fill:#ffff00;fill-opacity:1;stroke:#000000"/>
          <path d="m13.13,132 0.005207,-0.07646   " id="line2554" style="fill:#ffff00;stroke:#000000"/>
          <path d="m52.03,108.7   c0,0 8.924,6.861 9.089,8.345 0.1731,1.475 -7.44,7.678 -7.464,9.085 -0.01871,1.348 -0.3735,7.521 -0.3996,7.903   " id="path2556" style="fill:#ffff00;fill-opacity:1;stroke:#000000"/>
          <path d="m53.23,134.1 -0.0007219,-0.01691   " id="line2558" style="fill:#ffff00;stroke:#000000"/>
          <path d="m6.633,116.5 7.728,0.07667 38.01,0.3762 8.694,0.08625   " id="polyline2560" style="fill:#ffff00;stroke:#000000"/>
          <path d="m13.13,124.3 0.6028,0.03356 39.07,1.737 0.7807,0.03443   " id="polyline2562" style="fill:#ffff00;stroke:#000000"/>
          <path d="m27.93,153.2   c2.687,-2.927 7.554,-2.813 10.89,0.2468 3.332,3.06 3.87,7.907 1.182,10.83 -2.679,2.918 -7.563,2.805 -10.9,-0.2549 -3.332,-3.06 -3.853,-7.908 -1.174,-10.83   z " id="path2564" style="fill:#ffff00;fill-opacity:1;stroke:#000000"/>
          <path d="m28.23,193.9   c2.679,-2.918 7.554,-2.813 10.89,0.2468 3.332,3.06 3.853,7.908 1.174,10.83 -2.687,2.927 -7.554,2.813 -10.89,-0.2468 -3.332,-3.06 -3.861,-7.899 -1.174,-10.83   z " id="path2566" style="fill:#ffff00;fill-opacity:1;stroke:#000000"/>
          <path d="m28.53,234.6   c2.679,-2.918 7.554,-2.813 10.89,0.2468 3.332,3.06 3.853,7.908 1.174,10.83 -2.679,2.918 -7.554,2.813 -10.89,-0.2468 -3.332,-3.06 -3.853,-7.908 -1.174,-10.83   z " id="path2568" style="fill:#ffff00;fill-opacity:1;stroke:#000000"/>
          <path d="m28.83,275.3   c2.687,-2.927 7.563,-2.805 10.9,0.2549 3.332,3.06 3.861,7.899 1.174,10.83 -2.679,2.918 -7.554,2.813 -10.89,-0.2468 -3.332,-3.06 -3.862,-7.916 -1.182,-10.83   z " id="path2570" style="fill:#ffff00;fill-opacity:1;stroke:#000000"/>
          <path d="m29.13,316   c2.687,-2.927 7.563,-2.805 10.9,0.2549 3.332,3.06 3.861,7.899 1.174,10.83 0.6799,-0.7405 -4.151,5.937 -10.89,-0.2468 -3.332,-3.06 -3.862,-7.916 -1.182,-10.83   z " id="path2572" style="fill:#ffff00;fill-opacity:1;stroke:#000000"/>
          <path d="m29.43,351.6   c2.679,-2.918 7.563,-2.805 10.9,0.2549 3.332,3.06 3.853,7.908 1.174,10.83 -2.687,2.927 -7.554,2.813 -10.89,-0.2468 -3.332,-3.06 -3.87,-7.907 -1.182,-10.83   z " id="path2574" style="fill:#ffff00;fill-opacity:1;stroke:#000000"/>
          <path d="m44.53,665.9   c-2.72,2.962 -7.76,2.772 -11.25,-0.4337 -3.5,-3.213 -4.12,-8.218 -1.4,-11.18 2.719,-2.961 7.759,-2.771 11.26,0.4426 3.491,3.205 4.111,8.211 1.392,11.17   z " id="path2576" style="fill:#ffff00;fill-opacity:1;stroke:#000000"/>
        </g>
      </g>
    </g>
  </g>
</svg>
