<?xml version="1.0" encoding="UTF-8" standalone="no"?>
<svg
   xmlns:dc="http://purl.org/dc/elements/1.1/"
   xmlns:cc="http://creativecommons.org/ns#"
   xmlns:rdf="http://www.w3.org/1999/02/22-rdf-syntax-ns#"
   xmlns:svg="http://www.w3.org/2000/svg"
   xmlns="http://www.w3.org/2000/svg"
   version="1.0"
   id="svg3194"
   height="525.45679"
   width="201.28596">
  <metadata
     id="metadata390">
    <rdf:RDF>
      <cc:Work
         rdf:about="">
        <dc:format>image/svg+xml</dc:format>
        <dc:type
           rdf:resource="http://purl.org/dc/dcmitype/StillImage" />
        <dc:title></dc:title>
        <dc:creator>
          <cc:Agent>
            <dc:title>https://commons.wikimedia.org/wiki/User:Jpgibert</dc:title>
          </cc:Agent>
        </dc:creator>
      </cc:Work>
    </rdf:RDF>
  </metadata>

  <path
     d="m 81.031508,66.74873 h 37.359902 v 5.15118 H 81.031508 Z M 79.154548,50.35862 H 116.51445 V 55.5098 H 79.154548 Z m 0.46927,-17.40479 h 37.359902 v 5.15119 H 79.623818 Z"
     style="fill:#e3e4e5;fill-opacity:1;stroke:#000000;stroke-width:2;stroke-linecap:round;stroke-linejoin:round;stroke-miterlimit:4;stroke-dasharray:none;stroke-dashoffset:0;stroke-opacity:1"
     id="rect3859-41" />
  <path
     id="path1395"
     d="m 98.393928,1.0008898 c -1.22673,0.0197 -2.76348,0.75208 -4.87109,2.80469 l -3.27344,0.81641 c -2.41389,3.85569 -6.02359,5.8061002 -10.08984,7.8066402 -0.91039,1.29695 -0.96492,8.40891 -0.68555,17.80468 l -4.40234,3.11133 c -3.84258,4.55524 -1.15635,5.32367 0.3125,7.02344 l 4.60742,3.03125 c 0.0471,1.04881 0.0953,2.11092 0.14453,3.17383 l -4.35937,3.08203 c -3.75014,4.51564 -0.21152,4.92071 0.3125,7.02539 l 4.65039,3.0625 c 0.06,1.31672 0.10634,2.54815 0.16211,3.83594 l -4.37305,3.09179 c -3.75014,4.51562 -0.21152,4.91876 0.3125,7.02344 l 4.52344,2.97461 c 0.0115,0.4904 0.0379,1.07915 0.0469,1.55274 2.25495,2.8614 2.57961,5.07364 3.05078,7.33593 l -1.26757,172.56446 c -28.12674,4.81645 -52.33569,22.41878 -56.48438,53.54297 -3.44709,25.86068 14.43596,42.27409 10.85547,53.15234 -12.9323,32.73029 -75.98239,103.67324 1.0332,145.67383 19.82825,10.81338 41.73705,14.65176 62.044922,13.86718 20.30788,0.78458 42.21471,-3.0538 62.04297,-13.86718 77.01558,-42.00059 13.96551,-112.94354 1.03321,-145.67383 -3.58049,-10.87825 14.30256,-27.29166 10.85547,-53.15234 -4.27574,-32.07738 -29.85801,-49.79251 -59.07813,-53.94922 l -3.58594,-170.12696 0.78125,-3.12304 c -0.13051,-3.51227 2.09542,-5.22743 3.59961,-7.49219 l 0.004,-0.22266 4.05273,-2.50976 c 0.52401,-2.10468 4.06266,-2.50782 0.3125,-7.02344 l -4.19531,-2.81641 0.0586,-4.23632 4.21485,-2.625 c 0.52402,-2.1047 4.06265,-2.50978 0.3125,-7.0254 l -4.35156,-2.9375 0.0605,-4.41796 4.44727,-2.79102 c 0.52402,-2.10469 4.06263,-2.50782 0.3125,-7.02344 l -4.58008,-3.11328 0.25,-18 -2.23828,-1.58203 -2.32422,-0.11133 c -0.0652,0.0919 -3.09276,-3.1687702 -6.2207,-6.5410102 l -3.23243,0.0293 c -1.54861,-1.11174 -2.73669,-3.05824003 -4.781252,-3.02539 z M 89.684948,26.59464 c 1.53239,0.0212 3.79234,1.48681 4.81055,3.72852 l 0.86132,44.42578 c -1.60007,7.05952 -7.49872,7.5034 -8.89062,0 l -1.41602,-44.42578 c 0.72702,-2.5878 2.66455,-3.75578 4.63477,-3.72852 z m 17.605472,0 c 1.94562,0.094 3.76248,1.57896 4.43945,3.72852 l -0.48828,44.42578 c -1.18341,6.8065 -7.81455,5.35316 -8.89258,0 l -0.0625,-44.42578 c 1.19366,-2.7358 3.49065,-3.80162 5.00391,-3.72852 z m -8.279302,292.95899 a 23.699699,22.470633 0 0 1 23.699222,22.4707 23.699699,22.470633 0 0 1 -23.699222,22.4707 23.699699,22.470633 0 0 1 -23.69922,-22.4707 23.699699,22.470633 0 0 1 23.69922,-22.4707 z"
     style="fill:#ffff00;fill-opacity:1;stroke:#000000;stroke-width:2;stroke-linecap:butt;stroke-linejoin:miter;stroke-miterlimit:4;stroke-dasharray:none;stroke-opacity:1" />
  <path
     id="path3857"
     style="fill:none;fill-opacity:1;stroke:#000000;stroke-width:0.99999994px;stroke-linecap:butt;stroke-linejoin:miter;stroke-opacity:1"
     d="m 109.42821,66.92968 -1.06207,22.08366 6.62859,356.52015 m -7.93615,-395.34038 -2.75813,38.82023 5.27556,356.52015 m -4.88705,-412.83063 -4.4542,56.31048 3.92254,356.52015 M 92.149898,32.70286 l 4.01917,56.31048 2.56951,356.52015 m -8.57903,-395.34038 1.94383,38.82023 1.21649,356.52015 m -5.15063,-378.60381 -0.1315,22.08366 -0.13659,356.52015" />
  <path
     d="m 115.49741,257.71574 0.66158,54.69876 m -32.964312,-54.29251 -0.66158,54.69876 m 51.030322,29.1056 c 2e-5,18.48073 -15.26435,33.46232 -34.093902,33.46232 -18.82955,0 -34.09392,-14.98159 -34.09391,-33.46232 0,-18.48074 15.26437,-33.46232 34.09391,-33.46232 18.829542,0 34.093902,14.98158 34.093902,33.46232 z M 49.524008,433.97111 H 151.7619 v 18.30616 H 49.524008 Z m 76.024972,3.70972 h 22.25532 v 10.6824 h -22.25532 z m -72.067412,0 h 24.64411 v 10.6824 h -24.64411 z m 28.60122,4.67894 h 39.509082 v 6.00346 H 82.082788 Z M 116.94081,30.23136 116.29628,76.75089 m -36.822272,-46.51758 1.89063,46.43555 m 1.31985,228.60286 33.733312,0.4415 M 83.016298,298.2076 116.3072,298.6491 M 83.126898,289.59819 H 115.8648 m -32.737902,-8.27825 32.737902,-0.11041 m -32.848502,-9.16125 32.627292,0.33113 m -32.295492,-10.59617 31.963692,0.11041 m -31.521282,-85.65247 29.862282,0.22074 m -29.862282,14.12824 30.304682,0.33113 m -30.415292,13.57635 30.525882,-0.11041 m -31.078882,25.16596 c 0,0 32.295502,1.10378 31.853102,0.22076 M 83.348098,216.97024 H 114.09519 M 82.684488,241.25313 114.98,241.4739 m -31.853102,10.81693 32.074302,0.22074 M 85.117708,88.82271 111.66196,89.04346 m -27.429062,20.53009 27.760872,0.11041 m -27.871462,17.77065 28.424462,0.11041 m -28.535062,17.32913 28.866872,0.22075 m -28.977482,16.22539 29.419892,-0.33112"
     style="fill:none;stroke:#000000;stroke-width:2;stroke-linecap:butt;stroke-linejoin:miter;stroke-miterlimit:4;stroke-dasharray:none;stroke-opacity:1"
     id="path1417" />
</svg>
