<?xml version="1.0" encoding="UTF-8" standalone="no"?>
<!DOCTYPE svg PUBLIC "-//W3C//DTD SVG 1.1//EN" "http://www.w3.org/Graphics/SVG/1.1/DTD/svg11.dtd">
<svg xmlns:dc="http://purl.org/dc/elements/1.1/" xmlns:xl="http://www.w3.org/1999/xlink" version="1.1" xmlns="http://www.w3.org/2000/svg" viewBox="54 61.52127 256.5 329.97873" width="256.5" height="329.97873">
  <defs>
    <clipPath id="artboard_clip_path">
      <path d="M 54 61.52127 L 310.5 61.52127 L 310.5 391.5 L 54 391.5 Z"/>
    </clipPath>
  </defs>
  <metadata> Produced by OmniGraffle 7.7.1 
    <dc:date>2018-03-18 08:21:30 +0000</dc:date><dc:title>Traceable heraldic art http://heraldicart.org/credits.html</dc:title>
  </metadata>
  <g id="Lyre_(2)" fill-opacity="1" stroke-dasharray="none" stroke="none" stroke-opacity="1" fill="#ffff00">
    <title>Lyre (2)</title>
    <g id="Lyre_(2): Layer 2" >
      <title>Layer 2</title>
      <g id="Group_3">
        <g id="Graphic_21">
          <path d="M 79.99588 66.95038 C 75.94374 71.00252 77.01009 75.90774 82.768395 81.45277 C 99.19023 96.80825 97.69733 128.79883 79.56934 148.63299 C 76.37028 152.04532 70.611975 160.7894 66.773106 167.82734 C 60.80153 179.13067 59.73518 183.18281 58.882096 201.3108 C 58.029014 213.89377 58.668826 225.83692 60.16172 231.8085 C 63.78732 246.09762 74.0243 266.99813 82.34185 276.5953 C 88.95324 284.27304 89.80632 286.61902 90.87267 302.18777 C 92.36557 323.94136 94.71154 331.6191 104.94853 347.6144 C 116.25187 364.8893 130.96753 376.19264 151.4415 383.0173 C 185.99133 394.5339 219.68807 386.6429 245.06727 360.83716 C 261.27582 344.6286 267.46067 330.766 269.16683 307.51953 C 270.44646 288.965 270.65973 288.1119 278.55074 280.64744 C 283.02942 276.16876 290.4939 264.65215 295.18584 254.62844 C 303.5034 237.14026 305.78673 232.05566 306 210.30207 C 306 210.30207 304.34066 196.89064 303.10854 192.23048 C 301.87643 187.5703 293.2664 168.89369 293.2664 168.89369 C 287.08156 156.524 279.19055 141.16852 275.77822 134.7704 C 267.46067 118.77511 267.03413 101.07366 274.92514 84.43856 C 284.30904 64.81767 278.764 59.27264 260.84928 70.78925 C 254.45117 74.84139 247.83978 81.66604 243.78764 88.06416 L 237.38953 98.51441 L 179.37994 98.08787 L 121.37036 97.44806 L 115.61206 88.91724 C 104.73526 72.70868 85.96745 60.9788 79.99588 66.95038 Z M 137.15238 181.47665 C 136.2993 211.97433 135.44621 223.0644 133.31351 223.91748 C 131.39407 224.5573 130.75426 215.1734 131.1808 180.19703 C 131.60735 155.88419 132.6737 134.34386 133.74005 132.6377 C 137.57892 127.09266 138.21873 138.60927 137.15238 181.47665 Z M 149.52207 152.04532 C 150.16188 181.47665 147.38936 218.58572 144.1903 219.65207 C 142.0576 220.29188 141.41779 210.6947 141.41779 176.7847 C 141.41779 152.8984 142.0576 132.6377 142.91068 131.78462 C 146.96282 127.73248 148.88226 133.49078 149.52207 152.04532 Z M 160.61214 170.81312 C 160.61214 202.8037 159.97233 209.62836 157.1998 212.40087 C 155.49364 214.3203 153.57421 215.8132 153.14767 215.8132 C 151.86805 215.8132 152.29459 136.2633 153.36094 134.34386 C 154.00075 133.27751 155.92019 132.6377 157.62635 132.6377 C 160.1856 132.6377 160.61214 139.03581 160.61214 170.81312 Z M 169.14296 162.2823 C 169.14296 178.49086 169.78277 195.97904 170.42258 201.3108 C 171.7022 209.84163 171.27566 211.12125 167.22352 212.1876 C 163.17138 213.25396 162.74484 212.40087 162.74484 203.44351 C 162.74484 178.06432 165.73063 132.6377 167.4368 132.6377 C 168.28988 132.6377 169.14296 145.86047 169.14296 162.2823 Z M 181.0861 169.32023 C 180.4463 189.58093 180.01975 207.49565 179.80648 208.77528 C 179.80648 210.26817 178.3136 211.5478 176.60743 211.5478 C 173.8349 211.5478 173.40837 205.7895 173.40837 172.09275 C 173.40837 133.49078 173.40837 132.6377 177.88705 132.6377 C 182.36573 132.6377 182.36573 133.06424 181.0861 169.32023 Z M 191.9629 171.45293 C 191.10982 192.77999 190.04347 210.48144 189.61693 211.12125 C 184.28517 216.23974 181.9392 178.9174 185.35152 145.6472 C 186.41787 136.05003 187.6975 132.6377 190.04347 132.6377 C 192.81599 132.6377 193.02926 137.54292 191.9629 171.45293 Z M 203.26624 172.09275 C 203.26624 210.90798 203.26624 211.5478 198.78756 211.5478 C 194.30888 211.5478 194.30888 211.12125 195.37523 172.51929 C 196.01504 151.19223 196.65486 133.49078 196.65486 133.06424 C 196.86813 132.85097 198.36102 132.6377 200.06718 132.6377 C 202.8397 132.6377 203.26624 138.396 203.26624 172.09275 Z M 213.92977 174.22545 C 213.7165 197.0454 213.28996 215.8132 212.86342 215.8132 C 206.67857 215.8132 205.8255 212.82742 206.67857 192.77999 C 207.1051 181.47665 207.53165 163.13538 207.53165 152.25859 C 207.53165 136.05003 208.17146 132.6377 210.7307 132.6377 C 213.7165 132.6377 213.92977 138.18273 213.92977 174.22545 Z M 226.0862 175.50508 C 225.2331 199.1781 224.16675 219.01226 223.7402 219.65207 C 223.1004 220.07861 220.9677 220.07861 219.04826 219.22553 C 216.06247 218.15918 215.8492 214.10704 216.91556 184.24917 C 217.55537 165.9079 217.9819 146.71355 218.19518 141.59506 C 218.19518 133.91732 218.835 132.6377 222.88713 132.6377 L 227.3658 132.6377 L 226.0862 175.50507 Z M 237.38953 136.90311 C 237.38953 138.18273 240.16204 143.5145 243.57437 149.05953 C 250.82557 161.00268 256.58387 179.13067 256.58387 190.22074 C 256.58387 201.3108 250.82557 219.01226 245.06727 225.62365 C 240.3753 231.38195 240.3753 231.38195 234.19047 227.3298 L 228.2189 223.49094 L 229.28525 180.4103 C 229.92506 156.73727 230.9914 136.2633 231.8445 134.98367 C 233.55066 132.42443 237.38953 133.70405 237.38953 136.90311 Z M 127.76848 227.96962 C 125.20923 234.15447 119.6642 230.3156 114.33243 218.799 C 109.64048 208.562 109.00067 204.72314 109.85375 190.64728 C 110.49356 176.99797 112.19973 171.0264 119.23765 156.09746 L 127.5552 137.96946 L 128.19502 181.68992 C 128.40829 205.57622 128.19502 226.47673 127.76848 227.96962 Z" fill="#cccccc"/>
        </g>
        <g id="Graphic_20">
          <path d="M 275.77822 69.50962 C 275.77822 69.93616 273.43224 75.4812 270.44646 81.87931 C 266.6076 89.98359 265.1147 96.80825 265.1147 105.97888 C 265.1147 123.2538 267.46067 130.71826 280.04363 153.11167 C 291.34697 173.1591 301.04156 195.68571 301.3707 211.5478 C 301.603 222.74456 294.54603 244.60472 289.85408 254.62844 C 287.93464 258.4673 283.66923 264.86542 280.2569 268.7043 L 274.28533 275.9555 L 269.59338 266.14505 C 267.2474 260.81328 265.1147 255.48152 265.1147 254.62844 C 265.1147 253.5621 262.76872 250.78957 259.78293 248.23032 C 256.79714 245.67108 254.45117 242.25875 254.45117 240.55258 C 254.45117 239.0597 253.17154 236.50044 251.46538 235.22082 C 248.90613 233.08812 249.1194 230.74214 253.81136 220.50515 C 258.07677 210.48144 259.14312 205.14968 258.92985 191.50036 C 258.71658 172.73256 255.94406 159.93633 250.39903 151.83205 C 230.9914 123.2538 237.6028 91.68976 267.2474 72.28214 C 272.57916 68.86981 275.77822 67.80346 275.77822 69.50962 Z" fill="#ff0000"/>
        </g>
        <g id="Graphic_19">
          <path d="M 97.05752 77.18736 C 108.57413 84.8651 116.25187 95.52863 121.15709 111.52392 C 124.78269 122.82725 124.78269 123.68034 120.51728 136.90311 C 118.1713 144.58085 113.69262 156.95054 110.49356 164.415 C 101.96274 184.6757 103.0291 212.82742 113.05281 227.54308 C 116.25187 232.4483 116.67841 237.99334 113.69262 236.0739 C 111.13337 234.581 100.89639 245.03127 100.89639 249.0834 C 100.89639 250.78957 100.04331 252.0692 98.76368 252.0692 C 97.69733 252.0692 96.63098 254.41517 96.63098 257.1877 C 96.63098 260.17347 95.7779 263.15926 94.49827 263.79907 C 93.21865 264.43888 92.36557 266.99813 92.36557 269.3441 C 92.36557 275.1024 89.37978 274.4626 82.98167 266.78486 C 70.611975 252.0692 62.720966 229.24925 62.507695 208.34873 C 62.507695 190.22074 71.46506 165.69463 82.98167 152.25859 C 99.61677 132.6377 103.66891 108.11159 93.43192 87.85089 C 90.6594 82.09258 87.24708 76.97409 85.96745 76.12101 C 83.40821 74.628115 83.19494 70.78925 85.54091 70.78925 C 86.60726 70.78925 91.72576 73.77503 97.05752 77.18736 Z" fill="#ff0000"/>
        </g>
        <g id="Graphic_18">
          <path d="M 233.9772 109.60448 C 233.12412 113.44335 232.69757 119.41493 232.69757 122.82725 L 232.91085 129.0121 L 184.49844 127.94575 C 157.83962 127.30594 134.37986 126.02631 132.46043 125.17323 C 129.90118 124.10688 128.83483 121.54763 129.0481 116.85568 C 129.26137 113.23008 128.62156 108.53813 127.76848 106.40542 C 126.06231 102.9931 129.47464 102.77982 180.87284 102.77982 L 235.68336 102.77982 L 233.9772 109.60448 Z" fill="#ff0000"/>
        </g>
        <g id="Graphic_17">
          <path d="M 169.35623 245.03127 C 168.92969 264.2256 167.86333 275.1024 166.15717 275.9555 C 163.38465 277.66166 163.17138 274.88914 162.3183 240.97913 C 161.67849 217.73264 161.67849 217.73264 169.14296 216.02647 C 169.78277 216.02647 169.78277 229.03598 169.35623 245.03127 Z" fill="#ff0000"/>
        </g>
        <g id="Graphic_16">
          <path d="M 179.80648 243.53837 C 179.80648 266.78486 179.37994 271.26354 176.60743 271.26354 C 173.8349 271.26354 173.40837 266.78486 173.40837 243.53837 C 173.40837 220.29188 173.8349 215.8132 176.60743 215.8132 C 179.37994 215.8132 179.80648 220.29188 179.80648 243.53837 Z" fill="#ff0000"/>
        </g>
        <g id="Graphic_15">
          <path d="M 190.47 243.53837 C 190.47 267.2114 190.04347 271.05027 187.27095 269.98392 C 184.7117 268.91756 184.0719 263.79907 184.0719 242.25875 C 184.0719 220.07861 184.49844 215.8132 187.27095 215.8132 C 190.04347 215.8132 190.47 220.29188 190.47 243.53837 Z" fill="#ff0000"/>
        </g>
        <g id="Graphic_14">
          <path d="M 202.41316 234.581 C 201.98662 242.47202 201.56008 255.26825 201.3468 263.15926 C 201.13354 274.88914 200.49373 277.2351 197.93448 276.38203 C 195.37523 275.31568 194.73542 269.98392 194.73542 246.9507 C 194.73542 231.38195 195.37523 217.9459 196.22831 217.3061 C 196.86813 216.45301 198.78756 216.87956 200.28045 218.15918 C 201.98662 219.4388 202.62643 225.1971 202.41316 234.581 Z" fill="#ff0000"/>
        </g>
        <g id="Graphic_13">
          <path d="M 157.62635 253.5621 C 155.70691 307.94607 155.49364 311.78494 153.14767 311.14513 C 151.01496 310.29205 151.4415 225.1971 153.57421 221.5715 C 154.00075 220.71843 155.49364 220.07861 156.56 220.07861 C 157.83962 220.07861 158.26616 232.23503 157.62635 253.5621 Z" fill="#ff0000"/>
        </g>
        <g id="Graphic_12">
          <path d="M 212.2236 257.40096 C 211.5838 290.67116 209.66436 300.69487 206.67857 285.9792 C 204.9724 277.4484 204.9724 223.27767 206.67857 221.5715 C 207.31838 220.9317 209.02455 220.71843 210.30417 221.35824 C 212.2236 221.99805 212.65015 232.23503 212.2236 257.40096 Z" fill="#ff0000"/>
        </g>
        <g id="Graphic_11">
          <path d="M 147.1761 264.2256 C 146.53628 286.40575 145.25666 304.1072 144.1903 303.89393 C 142.27087 303.25412 140.5647 231.59522 142.27087 227.11654 C 142.91068 225.62365 144.61685 224.34402 145.89647 224.34402 C 147.60263 224.34402 148.02918 235.00755 147.1761 264.2256 Z" fill="#ff0000"/>
        </g>
        <g id="Graphic_10">
          <path d="M 222.24732 226.26346 C 225.01984 227.96962 225.01984 235.00755 222.88713 277.02184 C 221.39424 303.68066 220.32788 330.766 220.32788 336.95086 C 220.32788 345.2684 219.4748 348.04093 217.76864 347.6144 C 215.8492 346.97458 214.78285 340.57646 214.3563 328.6333 C 213.28996 304.9603 216.06247 224.34402 217.9819 224.34402 C 218.62172 224.34402 220.54115 225.1971 222.24732 226.26346 Z" fill="#ff0000"/>
        </g>
        <g id="Graphic_9">
          <path d="M 137.15238 264.01234 C 137.15238 291.31097 136.51257 299.20198 134.59313 298.56217 C 130.96753 297.28254 129.47464 239.27296 132.88697 232.87485 C 134.16659 230.52887 135.65949 228.60943 136.08603 228.60943 C 136.72584 228.60943 137.15238 244.60472 137.15238 264.01234 Z" fill="#ff0000"/>
        </g>
        <g id="Graphic_8">
          <path d="M 244.21418 243.9649 C 261.4891 263.79907 269.16683 288.1119 265.32796 311.14513 C 262.76872 326.28734 261.06255 331.19256 251.89192 345.05514 C 233.9772 372.7803 199.00083 388.56233 168.71642 382.3775 C 139.28508 376.6192 118.81111 362.33005 104.94853 338.2305 C 97.9106 325.8608 97.69733 325.221 97.69733 301.1214 C 97.69733 277.2351 97.9106 276.16876 104.94853 263.79907 C 111.98646 251.2161 123.50307 237.14026 126.9154 237.14026 C 127.76848 237.14026 128.62156 249.9365 128.62156 265.7185 C 128.62156 292.37732 128.40829 294.29676 124.35615 295.3631 C 113.90589 298.13563 122.22344 306.8797 151.4415 323.94136 C 159.11924 328.42004 170.84912 335.45797 177.67378 339.5101 C 207.74492 357.42483 221.18097 364.67603 223.31367 363.82295 C 225.01984 363.18314 225.87292 342.92244 226.29946 298.56217 C 226.726 263.15926 227.57908 233.3014 228.00562 232.4483 C 229.7118 229.6758 235.68336 233.9412 244.21418 243.9649 Z" fill="#ff0000"/>
        </g>
        <g id="Graphic_7">
          <path d="M 139.9249 307.093 C 165.73063 321.80865 220.54115 355.07886 221.6075 356.785 C 223.95348 360.83716 226.93927 362.33005 164.66428 326.07407 C 135.65949 309.2257 123.71634 301.1214 127.5552 301.1214 C 128.83483 301.1214 134.37986 303.89393 139.9249 307.093 Z" fill="#ff0000"/>
        </g>
        <g id="Graphic_6">
          <path d="M 209.87763 334.81816 C 209.45109 338.8703 208.17146 341.42954 206.67857 341.003 C 203.69278 339.93665 203.47951 321.5954 206.25203 311.78494 L 208.598 304.32047 L 209.66436 316.05035 C 210.30417 322.44847 210.30417 330.9793 209.87763 334.81816 Z" fill="#ff0000"/>
        </g>
        <g id="Graphic_5">
          <path d="M 199.00083 329.05985 C 199.00083 335.03143 198.14775 337.3774 196.44159 336.95086 C 192.60272 335.67124 191.74963 327.1404 194.73542 323.30155 C 198.5743 318.82287 199.00083 319.46268 199.00083 329.05985 Z" fill="#ff0000"/>
        </g>
        <g id="Graphic_4">
          <path d="M 190.04347 328.6333 C 190.68328 330.33948 189.8302 331.19256 188.12403 330.55275 C 186.63114 330.1262 184.92498 328.42004 184.49844 326.92715 C 183.85862 325.221 184.7117 324.3679 186.41787 325.0077 C 187.91076 325.43425 189.61693 327.1404 190.04347 328.6333 Z" fill="#ff0000"/>
        </g>
      </g>
    </g>
  </g>
</svg>
