<?xml version="1.0" encoding="UTF-8" standalone="no"?>
<svg
   xmlns:dc="http://purl.org/dc/elements/1.1/"
   xmlns:cc="http://creativecommons.org/ns#"
   xmlns:rdf="http://www.w3.org/1999/02/22-rdf-syntax-ns#"
   xmlns:svg="http://www.w3.org/2000/svg"
   xmlns="http://www.w3.org/2000/svg"
   id="svg4888"
   height="348.49991"
   width="117.9657"
   viewBox="0 0 117.9657 348.49991"
   version="1.1">
  <defs
     id="defs4873" />
  <metadata
     id="metadata4875"> Produced by OmniGraffle 7.11.5 
    <dc:date>2020-11-28 02:54:53 +0000</dc:date>
<rdf:RDF>
  <cc:Work
     rdf:about="">
    <dc:format>image/svg+xml</dc:format>
    <dc:type
       rdf:resource="http://purl.org/dc/dcmitype/StillImage" />
    <dc:title></dc:title>
    <dc:creator>
      <cc:Agent>
        <dc:title>http://heraldicart.org/musical-note/</dc:title>
      </cc:Agent>
    </dc:creator>
  </cc:Work>
</rdf:RDF>
</metadata>
  <g
     transform="translate(-53.517159,-64.25)"
     fill-opacity="1"
     stroke-dasharray="none"
     stroke-opacity="1"
     stroke="none"
     id="Musical_Note_(4)">
    <title
       id="title4877">Musical Note (4)</title>
    <g
       clip-path="none"
       id="Musical_Note_(4): Art">
      <title
         id="title4879">Art</title>
      <g
         id="Graphic_767">
        <path
           style="fill:#ffff00;stroke:#808080;stroke-width:2"
           id="path4881"
           d="m 104.81552,94.12675 c 2.06842,2.20396 4.4184,4.4757 7.10862,6.90823 3.07583,2.78119 14.31546,12.35297 14.79306,12.76855 10.01972,8.71847 16.42463,15.46815 21.37673,23.21893 6.07972,9.51569 9.23903,19.82643 9.23903,31.94432 h 13.1499 c 0,-14.68903 -3.90768,-27.44215 -11.30769,-39.0243 -5.77027,-9.03135 -12.93905,-16.58602 -23.82608,-26.05916 -0.60775,-0.52882 -11.70177,-9.9766 -14.60546,-12.60214 C 110.32492,81.86047 105.48794,74.89686 104.81552,67.165985 V 65.25 h -0.0822 -13.14991 -0.08218 V 286.0291 L 54.51714,343.69924 98.15838,411.75 141.79963,343.69924 104.81552,286.0291 Z" />
      </g>
    </g>
  </g>
</svg>
