<?xml version="1.0" encoding="UTF-8" standalone="no"?>
<!-- Created with Inkscape (http://www.inkscape.org/) -->

<svg
   version="1.0"
   width="1000"
   height="1200"
   id="svg2411"
   xmlns="http://www.w3.org/2000/svg"
   xmlns:svg="http://www.w3.org/2000/svg"
   xmlns:rdf="http://www.w3.org/1999/02/22-rdf-syntax-ns#"
   xmlns:cc="http://creativecommons.org/ns#"
   xmlns:dc="http://purl.org/dc/elements/1.1/">
  <defs
     id="defs2413" />
  <g
     transform="matrix(0.49322,0,0,0.782164,406.312,-388.055)"
     id="layer1"
     style="display:inline">
    <path
       d="m 190.55,578.955 419.498,108.379 275.706,-92.173 173.626,102.511 133.58,469.868 c 0,0 -24.63,18.96 -32.83,29.3 -5.9,7.43 -11.55,19 -15.16,27.78 -2.47,6.02 -5.44,14.36 -6.01,20.85 -0.32,3.7 0.26,8.75 1.33,12.31 1.93,6.43 7.2,13.89 10.24,19.87 5.68,11.18 18.18,34.85 18.69,37.38 0.5,2.52 3.59,19.99 1.28,28.63 -2.74,10.28 -10.55,23.61 -19.19,29.8 -4.06,2.92 -12.27,0.91 -16.16,4.05 -6.31,5.08 -6.76,18.01 -11.98,24.21 -6.9,8.2 -28.85,21.08 -28.85,21.08 0,0 28.72,14.8 39.29,23.59 4.76,3.96 10.17,10.35 13.66,15.46 3.74,5.49 8.76,13.2 10.1,19.7 4.15,20.08 1.67,48.65 -4.55,68.19 -9.32,29.29 -38.87,60.35 -53.53,87.37 -16.97,31.28 -25.83,81.94 -51.02,107.08 -29.79,29.73 -86.655,47.37 -126.771,60.1 -33.715,10.71 -116.168,20.21 -116.168,20.21 0,0 -35.841,7.49 -48.487,16.16 -7.456,5.11 -15.911,14.81 -19.193,23.23 -2.093,5.38 -3.213,13.87 -1.01,19.2 3.197,7.73 13.629,14.22 20.708,18.68 9.427,5.95 25.898,6.88 34.345,14.15 3.349,2.88 7.147,8.23 7.576,12.62 0.392,4.01 -1.679,9.8 -4.545,12.63 -39.706,39.17 -121.846,46.34 -175.767,60.61 -40.533,10.73 -95.648,21.57 -137.366,25.76 -86.813,8.72 -290.8,4.31 -290.8,4.31"
       id="path3980"
       style="fill:#ffffff;fill-opacity:1;fill-rule:evenodd;stroke:#000000;stroke-width:3;stroke-linecap:butt;stroke-linejoin:miter;stroke-miterlimit:4;stroke-dasharray:none;stroke-opacity:1" />
    <path
       d="M 190.027,578.934 -229.472,687.313 -505.178,595.14 -678.808,697.651 -812.38,1167.52 c 0,0 24.624,18.96 32.83,29.3 5.901,7.43 11.543,19 15.152,27.78 2.475,6.02 5.447,14.36 6.011,20.85 0.322,3.7 -0.256,8.75 -1.324,12.31 -1.928,6.42 -7.207,13.89 -10.243,19.87 -5.675,11.18 -18.183,34.85 -18.688,37.38 -0.505,2.52 -3.59,19.99 -1.283,28.63 2.741,10.28 10.55,23.61 19.193,29.8 4.063,2.91 12.271,0.91 16.163,4.04 6.309,5.09 6.756,18.02 11.973,24.22 6.902,8.2 28.853,21.08 28.853,21.08 0,0 -28.721,14.8 -39.29,23.59 -4.757,3.96 -10.17,10.35 -13.658,15.46 -3.743,5.49 -8.759,13.2 -10.102,19.7 -4.146,20.08 -1.672,48.65 4.546,68.19 9.324,29.29 38.876,60.35 53.538,87.37 16.97,31.28 25.829,81.94 51.013,107.08 29.79,29.73 86.658,47.37 126.774,60.1 33.715,10.71 116.167,20.21 116.167,20.21 0,0 35.842,7.49 48.488,16.16 7.456,5.11 15.911,14.81 19.193,23.23 2.093,5.38 3.213,13.87 1.01,19.2 -3.197,7.73 -13.629,14.22 -20.708,18.68 -9.427,5.94 -25.899,6.88 -34.346,14.15 -3.348,2.88 -7.146,8.23 -7.576,12.62 -0.391,4.01 1.68,9.8 4.546,12.63 39.706,39.17 121.846,46.34 175.767,60.61 40.532,10.72 95.647,21.57 137.366,25.76 86.8125,8.72 290.8,4.31 290.8,4.31"
       id="path4002"
       style="fill:#ffffff;fill-opacity:1;fill-rule:evenodd;stroke:#000000;stroke-width:3;stroke-linecap:butt;stroke-linejoin:miter;stroke-miterlimit:4;stroke-dasharray:none;stroke-opacity:1" />
    <path
       d="m 519.822,683.825 c 36.837,-9.086 85.7,-22.22 122.219,-32.509 29.399,-8.282 68.098,-21.057 97.579,-29.038 29.801,-8.068 99.973,-24.413 99.973,-24.413 l 41.886,42.824 c 0,0 -113.089,75.521 -169,86.063 -80.128,15.108 -191.055,-8.258 -270.489,-26.673 -7.314,-1.695 -23.444,-8.752 -23.444,-8.752 0,0 24.489,7.58 35.322,7.502 20.291,-0.146 46.253,-10.145 65.954,-15.004 z"
       id="path3989"
       style="fill:#ffffff;fill-opacity:1;fill-rule:evenodd;stroke:#000000;stroke-width:3;stroke-linecap:butt;stroke-linejoin:miter;stroke-miterlimit:4;stroke-dasharray:none;stroke-opacity:1" />
    <g
       id="dexter1-1"
       style="display:inline">
      <path
         d="m -620.41,616.591 c 8.627,0.42 53.85,-8.734 60.578,-3.317 6.017,4.846 31.236,28.01 34.591,34.97 5.509,11.43 4.97,33.775 0.189,45.528 -4.704,11.563 -22.863,20.178 -26.428,32.142 -3.94,13.222 3.968,31.957 5,45.715 0.786,10.479 4.026,24.817 1.428,35 -2.78,10.896 -17.529,21.035 -19.285,32.143 -0.447,2.823 1.054,6.642 2.142,9.285 2.015,4.894 7.713,9.947 9.286,15 5.166,16.593 0.248,40.676 2.857,57.857 2.193,14.439 12.143,47.143 12.143,47.143 0,0 -49.965,-17.195 -70.136,-19.118 -19.341,-1.844 -39.687,1.163 -58.435,6.261 -11.947,3.249 -28.648,8.154 -37.857,16.429 -6.782,6.093 -11.428,18.041 -15,26.428 -3.241,7.613 -6.882,18.213 -7.858,26.433 -0.961,8.09 6.043,20.42 1.429,27.14 -11.734,17.1 -51.242,36.28 -65.714,21.43 -9.839,-10.1 13.322,-30.4 15.714,-44.29 2.145,-12.46 -2.858,-29.826 0,-42.141 2.86,-12.323 13.916,-26.095 18.571,-37.857 13.445,-33.972 35.092,-79.899 35.715,-116.429 0.238,-13.981 -12.587,-31.024 -12.143,-45 0.402,-12.665 15.012,-27.41 13.571,-40 -1.433,-12.525 -14.124,-25.987 -22.143,-35.714 -10.031,-12.169 -32.079,-21.343 -38.571,-35.715 -7.147,-15.823 -8.569,-23.701 0.828,-38.301 11.848,-18.407 39.611,-51.861 61.502,-51.888 22.566,-0.03 24.566,16.723 46.721,21.012 24.197,4.685 27.997,8.719 51.305,9.854 z"
         id="path4032"
         style="fill:#ff0000;fill-opacity:1;fill-rule:evenodd;stroke:#000000;stroke-width:3;stroke-linecap:butt;stroke-linejoin:miter;stroke-miterlimit:4;stroke-dasharray:none;stroke-opacity:1" />
      <path
         d="m -754.271,1377.53 2.5,11.07 c 0,0 16.82,-11.9 25,-15 12.637,-4.78 30.852,-6.76 44.286,-8.21 9.912,-1.08 23.99,2.71 33.214,-1.07 8.91,-3.66 23.572,-21.79 23.572,-21.79 0,0 -19.509,-33.64 -31.429,-45 -8.155,-7.77 -21.246,-16.02 -31.785,-20 -3.757,-1.42 -13.215,-2.14 -13.215,-2.14 0,0 -11.35,49.85 -18.928,70.35 -1.811,4.9 -4.756,11.27 -7.5,15.72 -1.926,3.12 -4.918,7.04 -7.5,9.64 -1.828,1.84 -4.378,4.4 -6.786,5.36 -3.197,1.28 -11.429,1.07 -11.429,1.07 z"
         id="path4060"
         style="fill:#ff0000;fill-opacity:1;fill-rule:evenodd;stroke:#000000;stroke-width:3;stroke-linecap:butt;stroke-linejoin:miter;stroke-miterlimit:4;stroke-dasharray:none;stroke-opacity:1" />
      <path
         d="m -446.307,1820.96 c 0,0 8.309,11.94 11.396,17.05 3.329,5.51 9.597,19.19 9.597,19.19 0,0 13.032,-5.74 17.677,-9.59 4.063,-3.37 11.769,-14.96 11.769,-14.96 0,0 -20.615,-5.76 -29.446,-7.77 -6.269,-1.43 -20.993,-3.92 -20.993,-3.92 z"
         id="path4064"
         style="fill:#ff0000;fill-opacity:1;fill-rule:evenodd;stroke:#000000;stroke-width:3;stroke-linecap:butt;stroke-linejoin:miter;stroke-miterlimit:4;stroke-dasharray:none;stroke-opacity:1" />
      <path
         d="m -4.98715,524.771 c 0,0 -7.79495,0.559 -11.11175,1.01 -7.4294,1.367 -15.1728,2.205 -22.2233,5.051 -5.077,2.449 -10.9319,7.375 -15.1523,11.112 -25.3095,29.382 -53.0665,57.008 -86.8735,75.761 -33.054,18.336 -72.047,23.513 -108.086,35.355 l 108.592,30.81 c 62.0464,-15.872 118.4177,-47.202 174.2507,-77.782 37.4944,-23.434 104.2983,-81.064 104.2983,-81.064 0,0 507.056,-0.253 -143.69415,-0.253 z"
         id="path944"
         style="fill:#ff0000;fill-opacity:1;fill-rule:evenodd;stroke:#000000;stroke-width:3;stroke-linecap:butt;stroke-linejoin:miter;stroke-miterlimit:4;stroke-dasharray:none;stroke-opacity:1" />
    </g>
    <g
       id="sinister1-1"
       style="display:inline">
      <path
         d="m 1134.25,1377.49 -2.5,11.07 c 0,0 -16.82,-11.91 -25,-15 -12.64,-4.79 -30.85,-6.76 -44.29,-8.22 -9.91,-1.07 -23.99,2.71 -33.21,-1.07 -8.91,-3.65 -23.57,-21.78 -23.57,-21.78 0,0 19.51,-33.64 31.43,-45 8.15,-7.78 21.24,-16.02 31.78,-20 3.76,-1.42 13.22,-2.15 13.22,-2.15 0,0 11.35,49.86 18.93,70.36 1.81,4.9 4.75,11.27 7.5,15.71 1.92,3.12 4.91,7.05 7.5,9.65 1.82,1.84 4.37,4.39 6.78,5.35 3.2,1.28 11.43,1.08 11.43,1.08 z"
         id="path3970"
         style="fill:#ff0000;fill-opacity:1;fill-rule:evenodd;stroke:#000000;stroke-width:3;stroke-linecap:butt;stroke-linejoin:miter;stroke-miterlimit:4;stroke-dasharray:none;stroke-opacity:1" />
      <path
         d="m 826.286,1820.92 c 0,0 -8.308,11.93 -11.395,17.04 -3.329,5.51 -9.597,19.2 -9.597,19.2 0,0 -13.032,-5.75 -17.677,-9.6 -4.063,-3.37 -11.769,-14.95 -11.769,-14.95 0,0 20.615,-5.77 29.446,-7.78 6.268,-1.43 20.992,-3.91 20.992,-3.91 z"
         id="path3983"
         style="fill:#ff0000;fill-opacity:1;fill-rule:evenodd;stroke:#000000;stroke-width:3;stroke-linecap:butt;stroke-linejoin:miter;stroke-miterlimit:4;stroke-dasharray:none;stroke-opacity:1" />
      <path
         d="m 1000.39,616.546 c -8.628,0.42 -53.85,-8.735 -60.578,-3.317 -6.018,4.846 -31.237,28.01 -34.591,34.97 -5.509,11.43 -4.97,33.774 -0.189,45.527 4.704,11.564 22.863,20.179 26.428,32.143 3.94,13.222 -3.968,31.957 -5,45.714 -0.786,10.48 -4.026,24.818 -1.428,35 2.78,10.897 17.529,21.036 19.285,32.143 0.447,2.824 -1.054,6.642 -2.143,9.286 -2.014,4.894 -7.712,9.947 -9.285,15 -5.166,16.593 -0.248,40.676 -2.857,57.857 -2.193,14.439 -12.143,47.143 -12.143,47.143 0,0 49.965,-17.196 70.136,-19.119 19.345,-1.844 39.685,1.163 58.435,6.262 11.95,3.249 28.65,8.154 37.86,16.428 6.78,6.094 11.43,18.041 15,26.429 3.24,7.608 6.88,18.218 7.85,26.428 0.97,8.1 -6.04,20.42 -1.42,27.14 11.73,17.1 51.24,36.28 65.71,21.43 9.84,-10.09 -13.32,-30.39 -15.71,-44.28 -2.15,-12.46 2.85,-29.831 0,-42.147 -2.86,-12.322 -13.92,-26.094 -18.58,-37.857 -13.44,-33.971 -35.09,-79.899 -35.71,-116.428 -0.24,-13.981 12.59,-31.024 12.14,-45 -0.4,-12.666 -15.01,-27.411 -13.57,-40 1.43,-12.525 14.13,-25.987 22.14,-35.715 10.04,-12.168 32.08,-21.342 38.58,-35.714 7.14,-15.823 8.56,-23.701 -0.83,-38.301 -11.85,-18.408 -39.61,-51.862 -61.5,-51.888 -22.57,-0.03 -24.57,16.722 -46.73,21.012 -24.19,4.685 -27.99,8.718 -51.3,9.854 z"
         id="path3218"
         style="fill:#ff0000;fill-opacity:1;fill-rule:evenodd;stroke:#000000;stroke-width:3;stroke-linecap:butt;stroke-linejoin:miter;stroke-miterlimit:4;stroke-dasharray:none;stroke-opacity:1" />
      <path
         d="m 385.949,523.857 c 0,0 7.795,0.559 11.111,1.01 7.43,1.367 15.173,2.205 22.224,5.051 5.077,2.45 10.932,7.375 15.152,11.112 25.31,29.383 53.066,57.008 86.873,75.761 33.054,18.336 72.047,23.513 108.086,35.356 L 520.804,682.956 C 458.757,667.084 402.386,635.754 346.553,605.175 309.058,581.74 242.254,524.11 242.254,524.11 c 0,0 -507.055,-0.253 143.695,-0.253 z"
         id="path1870"
         style="fill:#ff0000;fill-opacity:1;fill-rule:evenodd;stroke:#000000;stroke-width:3;stroke-linecap:butt;stroke-linejoin:miter;stroke-miterlimit:4;stroke-dasharray:none;stroke-opacity:1" />
    </g>
    <g
       id="sinister2-1">
      <path
         d="m 1133.89,1377.13 -11.78,-1.43 c 0,0 -8.96,-6.99 -11.43,-11.07 -3.35,-5.55 -6.5,-14.25 -6.07,-20.72 0.47,-7.13 7.44,-14.98 9.64,-21.78 1.75,-5.42 4.91,-12.96 3.93,-18.57 -1.09,-6.21 -6.28,-13.77 -11.07,-17.86 -6.1,-5.21 -24.65,-10.36 -24.65,-10.36 0,0 11.82,52.82 20.36,74.29 2.02,5.08 5.25,11.74 8.57,16.07 2.68,3.49 6.73,8.14 10.72,10 3.23,1.5 11.78,1.43 11.78,1.43 z"
         id="path3968"
         style="fill:#ffff00;fill-opacity:1;fill-rule:evenodd;stroke:#000000;stroke-width:3;stroke-linecap:butt;stroke-linejoin:miter;stroke-miterlimit:4;stroke-dasharray:none;stroke-opacity:1" />
      <path
         d="m 887.729,690.35 c 0,0 6.523,48.179 9.822,68.75 2.033,12.68 4.215,29.729 7.5,42.143 2.457,9.288 5.125,22.365 10.714,30.179 8.43,11.786 25.043,23.233 37.857,30 14.834,7.833 36.74,14.59 53.388,16.607 10.55,1.277 25.1,0.603 35.36,-2.143 16.13,-4.315 49.82,-24.821 49.82,-24.821 l -10.18,-6.965 c 0,0 -26.73,12.734 -39.1,14.822 -15.12,2.55 -36.21,2.301 -51.074,-1.429 -11.386,-2.856 -25.118,-11.162 -35,-17.5 -6.479,-4.155 -15.235,-10.026 -20,-16.071 -10.562,-13.4 -19.934,-34.931 -24.285,-51.429 -4.768,-18.076 -4.643,-62.143 -4.643,-62.143 z"
         id="path3809"
         style="fill:#ffff00;fill-opacity:1;fill-rule:evenodd;stroke:#000000;stroke-width:3;stroke-linecap:butt;stroke-linejoin:miter;stroke-miterlimit:4;stroke-dasharray:none;stroke-opacity:1" />
      <path
         d="m 1043.8,757.315 c 0.62,-1.712 2.78,-3.271 4.29,-4.286 2.17,-1.461 5.46,-2.921 8.03,-3.393 2.85,-0.522 6.8,-0.159 9.64,0.357 2.17,0.393 5.06,1.227 6.97,2.322 1.98,1.132 4.64,2.991 5.71,5 0.97,1.81 1.08,4.741 0.9,6.785 -0.18,1.907 -1.09,4.37 -1.97,6.072 -0.94,1.838 -2.35,4.444 -4.11,5.536 -2.54,1.581 -6.82,1.679 -9.82,1.785 -2.96,0.106 -7.18,0.273 -9.82,-1.071 -3.55,-1.806 -7.31,-6.181 -8.93,-9.822 -1.13,-2.559 -1.84,-6.651 -0.89,-9.285 z"
         id="path3813"
         style="fill:#ffff00;fill-opacity:1;fill-rule:evenodd;stroke:#000000;stroke-width:3;stroke-linecap:butt;stroke-linejoin:miter;stroke-miterlimit:4;stroke-dasharray:none;stroke-opacity:1" />
      <path
         d="m 1055.41,776.958 -4.47,78.75 11.07,-4.108 1.97,-73.75 z"
         id="path3815"
         style="fill:#ffff00;fill-opacity:1;fill-rule:evenodd;stroke:#000000;stroke-width:3;stroke-linecap:butt;stroke-linejoin:miter;stroke-miterlimit:4;stroke-dasharray:none;stroke-opacity:1" />
      <path
         d="m 1068.62,776.6 c 0,0 6.85,11.349 8.22,16.786 1.37,5.459 0.7,13.121 0.71,18.75 0,6.004 -0.71,20 -0.71,20 0,0 2.83,-4.51 4.46,-6.071 0.98,-0.934 3.75,-2.5 3.75,-2.5 0,0 0.14,-18.652 -0.54,-26.607 -0.33,-3.941 -0.6,-9.322 -1.96,-13.036 -1.4,-3.84 -7.14,-11.607 -7.14,-11.607 0,0 -1.09,2.401 -1.97,3.035 -1.21,0.875 -4.82,1.25 -4.82,1.25 z"
         id="path3817"
         style="fill:#ffff00;fill-opacity:1;fill-rule:evenodd;stroke:#000000;stroke-width:3;stroke-linecap:butt;stroke-linejoin:miter;stroke-miterlimit:4;stroke-dasharray:none;stroke-opacity:1" />
      <path
         d="m 1085.23,823.565 -3.57,2.321 -5.18,6.786 0.89,6.25 1.79,3.75 2.85,2.321 10.36,5.357 6.25,-2.857 c 0,0 2.32,-6.071 2.68,-6.785 0.36,-0.715 -0.89,-8.75 -0.89,-8.75 l -5.72,-6.072 -3.93,-2.678 z"
         id="path3819"
         style="fill:#ffff00;fill-opacity:1;fill-rule:evenodd;stroke:#000000;stroke-width:3;stroke-linecap:butt;stroke-linejoin:miter;stroke-miterlimit:4;stroke-dasharray:none;stroke-opacity:1" />
      <path
         d="m 1072.19,862.315 c 0,0 -1.83,4.689 -2.32,6.785 -0.58,2.525 -1.09,5.98 -1.07,8.572 0,2.326 0.36,5.465 1.07,7.678 0.64,1.961 1.66,4.716 3.22,6.072 2.1,1.84 5.96,3.028 8.75,3.214 2.95,0.198 7,-0.796 9.64,-2.143 2.8,-1.432 6.2,-4.282 7.86,-6.964 1.54,-2.501 2.56,-6.528 2.5,-9.464 -0.1,-3.253 -0.94,-8.033 -3.22,-10.357 -1.89,-1.937 -5.9,-2.399 -8.57,-2.858 -2.9,-0.498 -6.88,-0.09 -9.82,-0.178 -2.41,-0.08 -8.04,-0.357 -8.04,-0.357 z"
         id="path3821"
         style="fill:#ffff00;fill-opacity:1;fill-rule:evenodd;stroke:#000000;stroke-width:3;stroke-linecap:butt;stroke-linejoin:miter;stroke-miterlimit:4;stroke-dasharray:none;stroke-opacity:1" />
      <path
         d="m 1091.84,892.315 c -1.99,1.224 -5.45,2.081 -6.61,4.107 -1.07,1.86 0.79,5.229 -0.18,7.143 -1.93,3.817 -9.07,5.073 -11.25,8.75 -1.36,2.287 -1.79,6.115 -1.43,8.75 0.38,2.753 1.47,7.102 3.93,8.393 7.41,3.884 19.59,-1.906 27.5,-4.643 5.08,-1.757 19.16,-8.546 22.71,-12.572 2.33,-2.633 6.45,-6.884 6.29,-10.393 -0.15,-3.47 -3.42,-9.155 -6.68,-10.357 -3.1,-1.144 -13.65,4.115 -15.89,2.965 -1.73,-0.886 -2.41,-4.054 -4.11,-5 -2.07,-1.16 -5.53,-1.56 -7.86,-1.072 -2.21,0.464 -4.5,2.743 -6.42,3.929 z"
         id="path3823"
         style="fill:#ffff00;fill-opacity:1;fill-rule:evenodd;stroke:#000000;stroke-width:3;stroke-linecap:butt;stroke-linejoin:miter;stroke-miterlimit:4;stroke-dasharray:none;stroke-opacity:1" />
      <path
         d="m 1095.59,826.6 c 0,0 8.04,-12.813 10,-18.928 2.56,-7.979 4.85,-19.372 3.75,-27.679 -0.91,-6.855 -11.49,-14.825 -8.93,-21.25 0.73,-1.849 4.51,-1.446 6.07,-2.678 2.01,-1.585 2.62,-6.608 5.18,-6.786 6.61,-0.461 12.59,9.689 15.71,15.536 2.14,3.993 3.08,10.298 2.86,14.821 -0.39,7.924 -3.07,18.779 -7.5,25.357 -5.82,8.631 -27.14,21.607 -27.14,21.607 z"
         id="path3827"
         style="fill:#ffff00;fill-opacity:1;fill-rule:evenodd;stroke:#000000;stroke-width:3;stroke-linecap:butt;stroke-linejoin:miter;stroke-miterlimit:4;stroke-dasharray:none;stroke-opacity:1" />
      <path
         d="m 1092.91,758.565 c 1.91,0.334 4.51,-0.383 6.43,-0.715 2.06,-0.357 5.06,-0.418 6.78,-1.607 1.81,-1.249 3.27,-4.04 4.11,-6.071 0.65,-1.563 1.27,-3.856 1.07,-5.536 -0.21,-1.81 -1.21,-4.249 -2.5,-5.536 -2.04,-2.032 -5.88,-3.661 -8.75,-3.928 -2.96,-0.276 -7.02,0.915 -9.64,2.321 -1.81,0.968 -3.69,3.074 -5,4.643 -1.27,1.515 -3.16,3.603 -3.57,5.536 -0.38,1.748 -0.17,4.45 0.89,5.893 2.01,2.744 6.83,4.414 10.18,5 z"
         id="path3829"
         style="fill:#ffff00;fill-opacity:1;fill-rule:evenodd;stroke:#000000;stroke-width:3;stroke-linecap:butt;stroke-linejoin:miter;stroke-miterlimit:4;stroke-dasharray:none;stroke-opacity:1" />
      <path
         d="m 1072.01,751.958 9.83,-3.929 c 0,0 -0.59,3.823 0.17,5.179 1.29,2.293 7.33,4.821 7.33,4.821 l -9.83,6.25 c 0,0 0.18,-5.264 -0.89,-7.143 -1.24,-2.191 -6.61,-5.178 -6.61,-5.178 z"
         id="path3831"
         style="fill:#ffff00;fill-opacity:1;fill-rule:evenodd;stroke:#000000;stroke-width:3;stroke-linecap:butt;stroke-linejoin:miter;stroke-miterlimit:4;stroke-dasharray:none;stroke-opacity:1" />
      <path
         d="m 918.911,968.375 c -12.669,13.957 -9.912,43.305 -9.286,62.145 0.401,12.05 2.397,28.92 8.572,39.28 5.211,8.75 16.17,18.6 25.714,22.15 3.817,1.41 13.571,0 13.571,0 0,0 -6.91,-5.62 -10,-7.86 -4.379,-3.17 -11.301,-6.05 -15,-10 -4.398,-4.69 -9.959,-12.18 -10.714,-18.57 -0.708,-5.99 1.892,-14.62 5.714,-19.29 7.833,-9.57 24.383,-16.49 36.429,-19.28 20.258,-4.7 48.799,-1.46 69.289,2.14 13.55,2.38 31.27,8.12 43.57,14.29 6.32,3.17 16.9,6.9 19.28,13.57 2.7,7.54 -2.13,19.47 -7.14,25.71 -9.42,11.74 -30.68,17.14 -44.28,23.57 -7.56,3.58 -25.08,2.38 -25.72,10.72 -0.44,5.75 11,8.05 16.43,10 36.88,13.24 92.69,4.57 129.29,18.57 7.93,3.03 19.4,8.3 23.57,15.71 2.52,4.49 -4.24,15.74 0.71,17.15 7.72,2.19 14.83,-14.13 15,-22.15 0.22,-9.81 -12.93,-18.99 -17.14,-27.85 -6.14,-12.92 -5.52,-34.98 -15.72,-45 -15.12,-14.87 -55.77,-3.38 -66.01,-21.96 -0.43,-0.77 -0.88,-3.33 -0.88,-3.33 0,0 -10.12,-1.52 -6.96,-1.39 2.1,-0.1 7.09,1.28 7.09,1.28 0,0 4.35,-23.18 2.48,-32.46 -3.07,-15.23 -12.08,-36.113 -24.29,-45.716 -20.34,-16.007 -57.69,-21.351 -83.569,-21.429 -24.738,-0.07 -63.372,1.683 -80,20 z"
         id="path3957"
         style="fill:#ffff00;fill-opacity:1;fill-rule:evenodd;stroke:#000000;stroke-width:3;stroke-linecap:butt;stroke-linejoin:miter;stroke-miterlimit:4;stroke-dasharray:none;stroke-opacity:1" />
      <path
         d="m 1087.26,930.136 1.07,70.504 8.04,7.82 0.53,-10.145 6.79,8.535 0.1,-9.678 6.61,7.068 2.22,-8.425 5.92,7.965 1.4,-8.858 4.46,8.568 1.61,-10.746 4.46,9.896 -0.35,-10.182 5.35,8.532 1.15,-10.782 6.35,7.214 c 0,0 -1.78,-11 -1.07,-9.928 0.72,1.071 6.75,6.571 6.75,6.571 l -1.14,-9.786 7.25,6.679 -0.22,-10.286 7.4,5.107 -0.47,-9.643 7.75,5.215 -2.32,-9.286 -40.75,-59.143 -14.21,8.643 c 0,0 -13.01,5.156 -15.54,5.821 -4.7,1.24 -9.14,3.465 -9.14,2.75 z"
         id="path3825"
         style="fill:#ffff00;fill-opacity:1;fill-rule:evenodd;stroke:#000000;stroke-width:3;stroke-linecap:butt;stroke-linejoin:miter;stroke-miterlimit:4;stroke-dasharray:none;stroke-opacity:1" />
      <path
         d="m 1131.57,1388.38 c 0,0 -1.96,15.89 -1.96,16.78 0,0.9 0,11.94 1.43,16.79 2.13,7.27 9.21,15.2 11.78,22.32 1.77,4.89 3.57,16.97 3.57,16.97 0,0 -19.19,-16.86 -28.93,-21.61 -10.58,-5.17 -26.3,-8.06 -37.85,-10.36 -17.59,-3.5 -42.69,-0.72 -59.29,-7.5 -13.27,-5.42 -30.144,-16.96 -38.034,-28.93 -3.768,-5.71 -5.536,-22.14 -5.536,-22.14 0,0 8.922,-0.92 11.965,-3.04 7.496,-5.2 11.785,-19.48 16.965,-25.53 4.42,4.26 17.29,18.51 23.39,21.43 13.52,6.45 27.34,-2.94 42.68,-0.9 12.14,1.62 28.45,9.18 39.82,13.58 6.49,2.5 20,12.14 20,12.14 z"
         id="path3972"
         style="fill:#ffff00;fill-opacity:1;fill-rule:evenodd;stroke:#000000;stroke-width:3;stroke-linecap:butt;stroke-linejoin:miter;stroke-miterlimit:4;stroke-dasharray:none;stroke-opacity:1" />
      <path
         d="m 877.194,641.243 21.964,7.143 c 0,0 1.148,25.568 5.967,35.701 5.424,11.407 17.736,24.197 28.214,31.25 29.269,19.705 110.281,41.442 110.281,41.442 l 0.36,10.178 c 0,0 -17.05,-3.027 -24.21,-4.742 -30.42,-7.285 -70.38,-20.818 -96.431,-38.128 -12.463,-8.28 -28.183,-22.047 -35.357,-35.178 -7.199,-13.177 -10.788,-47.666 -10.788,-47.666 z"
         id="path3807"
         style="fill:#ffff00;fill-opacity:1;fill-rule:evenodd;stroke:#000000;stroke-width:3;stroke-linecap:butt;stroke-linejoin:miter;stroke-miterlimit:4;stroke-dasharray:none;stroke-opacity:1" />
      <path
         d="m 922.194,724.457 c 0,0 3.655,26.334 2.142,37.5 -1.458,10.761 -4.843,25.79 -11.607,34.286 -7.565,9.503 -22.573,18.771 -34.464,21.25 -15.627,3.258 -38.326,-0.512 -52.679,-7.5 -13.217,-6.436 -28.837,-20.753 -35.357,-33.929 -11.167,-22.566 -12.481,-58.396 -9.464,-83.393 2.32,-19.216 10.132,-45.5 22.321,-60.535 9.566,-11.8 42.858,-26.965 42.858,-26.965 0,0 -6.165,-4.438 -7.322,-7.321 -0.898,-2.238 0.179,-8.036 0.179,-8.036 0,0 -37.098,17.566 -48.572,30.357 -11.839,13.199 -21.364,36.026 -25.714,53.215 -5.763,22.77 -7.686,55.088 -3.571,78.214 3.125,17.564 11.641,41.095 23.035,54.821 9.263,11.158 26.609,21.993 40.357,26.608 14.912,5.004 36.916,6.568 52.322,3.392 15.252,-3.144 35.335,-12.463 46.25,-23.571 6.767,-6.887 11.888,-19.532 14.107,-28.929 3.645,-15.433 0.536,-51.847 0.536,-51.847 z"
         id="path3811"
         style="fill:#ffff00;fill-opacity:1;fill-rule:evenodd;stroke:#000000;stroke-width:3;stroke-linecap:butt;stroke-linejoin:miter;stroke-miterlimit:4;stroke-dasharray:none;stroke-opacity:1" />
      <path
         d="m 245.005,531.443 c -16.94,15.914 -34.728,30.832 -52.857,45.357 -2.121,2.134 50.714,-49.286 50.714,-49.286 0,0 182.517,129.605 277.942,155.442 -25.828,8.489 -52.13,15.659 -79.371,17.415 -82.098,-8.757 -181.692,-77.941 -250.714,-122.142 11.472,-7.74 54.286,-46.786 54.286,-46.786 z"
         id="path2422"
         style="fill:#ffff00;fill-opacity:1;fill-rule:evenodd;stroke:#000000;stroke-width:3;stroke-linecap:butt;stroke-linejoin:miter;stroke-miterlimit:4;stroke-dasharray:none;stroke-opacity:1" />
      <path
         d="m 804.789,1857.16 c 0,0 -7.924,19.48 -9.596,28.28 -1.756,9.24 -2.621,30.65 -2.621,30.65 0,0 -26.457,-8.3 -36.775,-14.99 -6.656,-4.32 -16.349,-10.78 -19.193,-18.18 -2.072,-5.4 -0.681,-13.86 1.515,-19.2 3.393,-8.25 11.846,-17.66 19.193,-22.73 5.173,-3.56 18.447,-8.42 18.447,-8.42 0,0 8.272,12.04 12.363,15.49 4.351,3.68 16.667,9.1 16.667,9.1 z"
         id="path3985"
         style="fill:#ffff00;fill-opacity:1;fill-rule:evenodd;stroke:#000000;stroke-width:3;stroke-linecap:butt;stroke-linejoin:miter;stroke-miterlimit:4;stroke-dasharray:none;stroke-opacity:1" />
    </g>
    <g
       id="dexter2-1">
      <path
         d="m -507.749,690.396 c 0,0 -6.523,48.178 -9.822,68.75 -2.033,12.679 -4.215,29.728 -7.5,42.143 -2.457,9.287 -5.125,22.364 -10.714,30.178 -8.431,11.786 -25.043,23.234 -37.857,30 -14.834,7.833 -36.74,14.591 -53.393,16.607 -10.55,1.278 -25.092,0.603 -35.357,-2.143 -16.132,-4.315 -49.822,-24.821 -49.822,-24.821 l 10.179,-6.964 c 0,0 26.735,12.734 39.107,14.821 15.114,2.55 36.205,2.301 51.071,-1.428 11.387,-2.857 25.119,-11.163 35,-17.5 6.48,-4.156 15.236,-10.027 20,-16.072 10.563,-13.4 19.935,-34.93 24.286,-51.428 4.768,-18.077 4.643,-62.143 4.643,-62.143 z"
         id="path4034"
         style="fill:#ffff00;fill-opacity:1;fill-rule:evenodd;stroke:#000000;stroke-width:3;stroke-linecap:butt;stroke-linejoin:miter;stroke-miterlimit:4;stroke-dasharray:none;stroke-opacity:1" />
      <path
         d="m -663.821,757.36 c -0.614,-1.711 -2.777,-3.27 -4.286,-4.286 -2.17,-1.461 -5.461,-2.921 -8.035,-3.393 -2.848,-0.521 -6.795,-0.159 -9.643,0.358 -2.167,0.393 -5.054,1.226 -6.964,2.321 -1.977,1.132 -4.64,2.992 -5.715,5 -0.969,1.81 -1.079,4.741 -0.893,6.786 0.174,1.906 1.088,4.369 1.965,6.071 0.946,1.839 2.351,4.444 4.107,5.536 2.543,1.581 6.828,1.679 9.821,1.786 2.962,0.105 7.18,0.273 9.822,-1.072 3.548,-1.806 7.316,-6.18 8.928,-9.821 1.133,-2.559 1.839,-6.652 0.893,-9.286 z"
         id="path4036"
         style="fill:#ffff00;fill-opacity:1;fill-rule:evenodd;stroke:#000000;stroke-width:3;stroke-linecap:butt;stroke-linejoin:miter;stroke-miterlimit:4;stroke-dasharray:none;stroke-opacity:1" />
      <path
         d="m -675.428,777.003 4.464,78.75 -11.071,-4.107 -1.964,-73.75 z"
         id="path4038"
         style="fill:#ffff00;fill-opacity:1;fill-rule:evenodd;stroke:#000000;stroke-width:3;stroke-linecap:butt;stroke-linejoin:miter;stroke-miterlimit:4;stroke-dasharray:none;stroke-opacity:1" />
      <path
         d="m -688.642,776.646 c 0,0 -6.846,11.349 -8.215,16.785 -1.374,5.459 -0.707,13.121 -0.714,18.75 0,6.004 0.714,20 0.714,20 0,0 -2.829,-4.51 -4.464,-6.071 -0.978,-0.934 -3.75,-2.5 -3.75,-2.5 0,0 -0.141,-18.652 0.536,-26.607 0.335,-3.941 0.606,-9.322 1.964,-13.036 1.404,-3.84 7.143,-11.607 7.143,-11.607 0,0 1.085,2.401 1.964,3.036 1.212,0.874 4.822,1.25 4.822,1.25 z"
         id="path4040"
         style="fill:#ffff00;fill-opacity:1;fill-rule:evenodd;stroke:#000000;stroke-width:3;stroke-linecap:butt;stroke-linejoin:miter;stroke-miterlimit:4;stroke-dasharray:none;stroke-opacity:1" />
      <path
         d="m -705.249,823.61 3.571,2.321 5.179,6.786 -0.893,6.25 -1.786,3.75 -2.857,2.322 -10.357,5.357 -6.25,-2.857 c 0,0 -2.322,-6.072 -2.679,-6.786 -0.357,-0.714 0.893,-8.75 0.893,-8.75 l 5.714,-6.072 3.929,-2.678 z"
         id="path4042"
         style="fill:#ffff00;fill-opacity:1;fill-rule:evenodd;stroke:#000000;stroke-width:3;stroke-linecap:butt;stroke-linejoin:miter;stroke-miterlimit:4;stroke-dasharray:none;stroke-opacity:1" />
      <path
         d="m -692.214,862.36 c 0,0 1.837,4.689 2.322,6.786 0.583,2.525 1.09,5.98 1.071,8.571 -0.02,2.326 -0.356,5.466 -1.071,7.679 -0.634,1.961 -1.662,4.715 -3.215,6.071 -2.106,1.84 -5.959,3.028 -8.75,3.214 -2.956,0.198 -7.003,-0.795 -9.642,-2.142 -2.806,-1.432 -6.206,-4.283 -7.858,-6.965 -1.539,-2.5 -2.562,-6.528 -2.5,-9.464 0.07,-3.253 0.938,-8.033 3.215,-10.357 1.896,-1.937 5.9,-2.399 8.571,-2.857 2.905,-0.499 6.876,-0.09 9.822,-0.179 2.411,-0.07 8.035,-0.357 8.035,-0.357 z"
         id="path4044"
         style="fill:#ffff00;fill-opacity:1;fill-rule:evenodd;stroke:#000000;stroke-width:3;stroke-linecap:butt;stroke-linejoin:miter;stroke-miterlimit:4;stroke-dasharray:none;stroke-opacity:1" />
      <path
         d="m -711.857,892.36 c 1.987,1.225 5.448,2.082 6.608,4.107 1.064,1.861 -0.788,5.229 0.178,7.143 1.927,3.817 9.067,5.074 11.25,8.75 1.358,2.287 1.794,6.116 1.429,8.75 -0.383,2.754 -1.467,7.102 -3.929,8.393 -7.41,3.885 -19.594,-1.906 -27.5,-4.643 -5.074,-1.757 -19.161,-8.545 -22.714,-12.571 -2.324,-2.633 -6.442,-6.885 -6.286,-10.393 0.154,-3.471 3.419,-9.156 6.679,-10.357 3.102,-1.145 13.647,4.114 15.893,2.964 1.727,-0.885 2.412,-4.054 4.107,-5 2.077,-1.16 5.528,-1.559 7.857,-1.072 2.212,0.464 4.504,2.743 6.428,3.929 z"
         id="path4046"
         style="fill:#ffff00;fill-opacity:1;fill-rule:evenodd;stroke:#000000;stroke-width:3;stroke-linecap:butt;stroke-linejoin:miter;stroke-miterlimit:4;stroke-dasharray:none;stroke-opacity:1" />
      <path
         d="m -715.607,826.646 c 0,0 -8.038,-12.813 -10,-18.929 -2.559,-7.979 -4.849,-19.371 -3.75,-27.678 0.907,-6.856 11.486,-14.826 8.929,-21.25 -0.736,-1.85 -4.508,-1.447 -6.071,-2.679 -2.012,-1.585 -2.624,-6.608 -5.179,-6.786 -6.613,-0.461 -12.59,9.689 -15.714,15.536 -2.135,3.994 -3.077,10.298 -2.857,14.821 0.385,7.924 3.066,18.779 7.5,25.358 5.816,8.63 27.142,21.607 27.142,21.607 z"
         id="path4048"
         style="fill:#ffff00;fill-opacity:1;fill-rule:evenodd;stroke:#000000;stroke-width:3;stroke-linecap:butt;stroke-linejoin:miter;stroke-miterlimit:4;stroke-dasharray:none;stroke-opacity:1" />
      <path
         d="m -712.928,758.61 c -1.912,0.334 -4.517,-0.383 -6.429,-0.714 -2.061,-0.358 -5.064,-0.419 -6.785,-1.607 -1.81,-1.25 -3.265,-4.04 -4.107,-6.072 -0.648,-1.562 -1.268,-3.856 -1.072,-5.536 0.212,-1.809 1.21,-4.248 2.5,-5.535 2.037,-2.033 5.885,-3.662 8.75,-3.929 2.963,-0.276 7.021,0.915 9.643,2.322 1.804,0.967 3.685,3.074 5,4.642 1.27,1.515 3.157,3.604 3.571,5.536 0.375,1.748 0.164,4.451 -0.892,5.893 -2.011,2.744 -6.828,4.414 -10.179,5 z"
         id="path4050"
         style="fill:#ffff00;fill-opacity:1;fill-rule:evenodd;stroke:#000000;stroke-width:3;stroke-linecap:butt;stroke-linejoin:miter;stroke-miterlimit:4;stroke-dasharray:none;stroke-opacity:1" />
      <path
         d="m -692.035,752.003 -9.822,-3.929 c 0,0 0.583,3.823 -0.178,5.179 -1.287,2.293 -7.322,4.821 -7.322,4.821 l 9.822,6.25 c 0,0 -0.171,-5.263 0.893,-7.143 1.24,-2.191 6.607,-5.178 6.607,-5.178 z"
         id="path4052"
         style="fill:#ffff00;fill-opacity:1;fill-rule:evenodd;stroke:#000000;stroke-width:3;stroke-linecap:butt;stroke-linejoin:miter;stroke-miterlimit:4;stroke-dasharray:none;stroke-opacity:1" />
      <path
         d="m -538.931,968.42 c 12.669,13.958 9.912,43.3 9.286,62.14 -0.401,12.06 -2.397,28.93 -8.572,39.29 -5.211,8.74 -16.17,18.6 -25.714,22.14 -3.817,1.42 -13.572,0 -13.572,0 0,0 6.911,-5.62 10,-7.86 4.38,-3.17 11.302,-6.05 15,-10 4.399,-4.69 9.96,-12.18 10.715,-18.57 0.708,-5.99 -1.892,-14.61 -5.715,-19.28 -7.832,-9.57 -24.383,-16.49 -36.428,-19.29 -20.258,-4.7 -48.804,-1.45 -69.286,2.14 -13.549,2.38 -31.276,8.12 -43.571,14.29 -6.324,3.17 -16.905,6.91 -19.286,13.57 -2.695,7.54 2.131,19.47 7.143,25.72 9.42,11.73 30.681,17.13 44.286,23.57 7.554,3.57 25.079,2.38 25.714,10.71 0.438,5.75 -10.998,8.05 -16.429,10 -36.878,13.24 -92.688,4.57 -129.285,18.57 -7.938,3.04 -19.407,8.31 -23.572,15.72 -2.523,4.48 4.237,15.73 -0.714,17.14 -7.718,2.19 -14.825,-14.12 -15,-22.14 -0.215,-9.81 12.929,-19 17.143,-27.86 6.14,-12.91 5.515,-34.98 15.714,-45 15.128,-14.87 55.778,-3.38 66.015,-21.95 0.426,-0.78 0.884,-3.33 0.884,-3.33 0,0 10.119,-1.53 6.953,-1.39 -2.095,-0.1 -7.085,1.28 -7.085,1.28 0,0 -4.351,-23.19 -2.481,-32.47 3.067,-15.22 12.082,-36.107 24.285,-45.711 20.34,-16.006 57.689,-21.351 83.572,-21.429 24.738,-0.07 63.372,1.683 80,20 z"
         id="path4054"
         style="fill:#ffff00;fill-opacity:1;fill-rule:evenodd;stroke:#000000;stroke-width:3;stroke-linecap:butt;stroke-linejoin:miter;stroke-miterlimit:4;stroke-dasharray:none;stroke-opacity:1" />
      <path
         d="m -707.279,930.182 -1.071,70.498 -7.036,7.82 -1.536,-10.14 -4.785,8.79 -2.482,-9.807 -5.358,9.317 -3.089,-9.55 -4.303,8.46 -2.143,-9.602 -4.59,8.192 -1.357,-8.621 -4.214,7.641 -1.143,-9.927 -5.107,7.787 -0.143,-10.787 -6.482,6.59 c 0,0 2.161,-10.625 1.446,-9.554 -0.714,1.071 -6.25,6.071 -6.25,6.071 l 1.268,-9.16 -7.875,5.053 2.09,-8.66 -9.143,5.357 -0.04,-9.393 -8.625,4.839 2.321,-9.286 40.75,-59.142 14.215,8.642 c 0,0 13.01,5.157 15.535,5.822 4.706,1.239 9.143,3.464 9.143,2.75 z"
         id="path4056"
         style="fill:#ffff00;fill-opacity:1;fill-rule:evenodd;stroke:#000000;stroke-width:3;stroke-linecap:butt;stroke-linejoin:miter;stroke-miterlimit:4;stroke-dasharray:none;stroke-opacity:1" />
      <path
         d="m -753.913,1377.17 11.785,-1.43 c 0,0 8.962,-6.98 11.429,-11.07 3.347,-5.54 6.497,-14.25 6.071,-20.71 -0.47,-7.13 -7.445,-14.99 -9.643,-21.79 -1.751,-5.42 -4.91,-12.96 -3.928,-18.57 1.087,-6.21 6.278,-13.76 11.071,-17.86 6.098,-5.2 24.643,-10.35 24.643,-10.35 0,0 -11.814,52.81 -20.357,74.28 -2.02,5.08 -5.243,11.74 -8.571,16.07 -2.678,3.49 -6.729,8.15 -10.715,10 -3.228,1.51 -11.785,1.43 -11.785,1.43 z"
         id="path4058"
         style="fill:#ffff00;fill-opacity:1;fill-rule:evenodd;stroke:#000000;stroke-width:3;stroke-linecap:butt;stroke-linejoin:miter;stroke-miterlimit:4;stroke-dasharray:none;stroke-opacity:1" />
      <path
         d="m -751.592,1388.42 c 0,0 1.964,15.9 1.964,16.79 0,0.89 0,11.94 -1.428,16.78 -2.132,7.27 -9.213,15.2 -11.786,22.33 -1.767,4.89 -3.571,16.96 -3.571,16.96 0,0 19.195,-16.85 28.928,-21.61 10.58,-5.16 26.309,-8.06 37.857,-10.35 17.583,-3.5 42.691,-0.72 59.286,-7.5 13.27,-5.43 30.146,-16.96 38.036,-28.93 3.768,-5.72 5.536,-22.15 5.536,-22.15 0,0 -8.923,-0.92 -11.965,-3.03 -7.496,-5.2 -11.783,-19.49 -16.964,-25.54 -4.426,4.27 -17.295,18.52 -23.393,21.43 -13.519,6.46 -27.34,-2.94 -42.679,-0.89 -12.144,1.62 -28.448,9.18 -39.821,13.57 -6.49,2.51 -20,12.14 -20,12.14 z"
         id="path4062"
         style="fill:#ffff00;fill-opacity:1;fill-rule:evenodd;stroke:#000000;stroke-width:3;stroke-linecap:butt;stroke-linejoin:miter;stroke-miterlimit:4;stroke-dasharray:none;stroke-opacity:1" />
      <path
         d="m -424.809,1857.2 c 0,0 7.924,19.48 9.596,28.29 1.755,9.24 2.62,30.65 2.62,30.65 0,0 26.458,-8.31 36.776,-15 6.655,-4.31 16.348,-10.78 19.193,-18.18 2.071,-5.39 0.681,-13.85 -1.515,-19.19 -3.393,-8.26 -11.846,-17.66 -19.193,-22.73 -5.173,-3.57 -18.448,-8.42 -18.448,-8.42 0,0 -8.271,12.04 -12.362,15.49 -4.351,3.68 -16.667,9.09 -16.667,9.09 z"
         id="path4066"
         style="fill:#ffff00;fill-opacity:1;fill-rule:evenodd;stroke:#000000;stroke-width:3;stroke-linecap:butt;stroke-linejoin:miter;stroke-miterlimit:4;stroke-dasharray:none;stroke-opacity:1" />
      <path
         d="m -497.214,641.288 -21.964,7.143 c 0,0 -1.148,25.568 -5.967,35.702 -5.424,11.406 -17.737,24.196 -28.214,31.25 -29.269,19.704 -110.283,41.441 -110.283,41.441 l -0.357,10.178 c 0,0 17.051,-3.027 24.211,-4.742 30.418,-7.285 70.377,-20.818 96.429,-38.127 12.463,-8.281 28.183,-22.048 35.357,-35.179 7.199,-13.177 10.788,-47.666 10.788,-47.666 z"
         id="path4072"
         style="fill:#ffff00;fill-opacity:1;fill-rule:evenodd;stroke:#000000;stroke-width:3;stroke-linecap:butt;stroke-linejoin:miter;stroke-miterlimit:4;stroke-dasharray:none;stroke-opacity:1" />
      <path
         d="m -542.214,724.502 c 0,0 -3.656,26.334 -2.143,37.5 1.458,10.761 4.844,25.79 11.608,34.286 7.565,9.503 22.573,18.771 34.464,21.25 15.627,3.258 38.326,-0.512 52.678,-7.5 13.218,-6.435 28.838,-20.753 35.358,-33.928 11.166,-22.567 12.481,-58.396 9.464,-83.393 -2.32,-19.217 -10.132,-45.5 -22.322,-60.536 -9.566,-11.8 -42.857,-26.964 -42.857,-26.964 0,0 6.165,-4.439 7.322,-7.322 0.898,-2.238 -0.179,-8.035 -0.179,-8.035 0,0 37.098,17.566 48.572,30.357 11.839,13.198 21.364,36.026 25.714,53.214 5.763,22.771 7.686,55.089 3.571,78.214 -3.125,17.564 -11.641,41.096 -23.035,54.822 -9.263,11.158 -26.61,21.993 -40.358,26.607 -14.911,5.005 -36.916,6.568 -52.321,3.393 -15.252,-3.144 -35.336,-12.463 -46.25,-23.572 -6.767,-6.887 -11.888,-19.531 -14.107,-28.928 -3.645,-15.434 -0.536,-51.847 -0.536,-51.847 z"
         id="path4074"
         style="fill:#ffff00;fill-opacity:1;fill-rule:evenodd;stroke:#000000;stroke-width:3;stroke-linecap:butt;stroke-linejoin:miter;stroke-miterlimit:4;stroke-dasharray:none;stroke-opacity:1" />
      <path
         d="m 245.005,531.443 c 0,0 -34.728,30.832 -52.857,45.357 -69.877,48.215 -149.4175,105.196 -234.2859,125 -33.2834,0.739 -66.7091,-5.129 -97.8571,-16.786 19.909,-6.296 136.699,-58.619 154.4135,-69.679 C 88.2014,569.268 71.3621,585.531 137.862,526.8 l 105,0.714 c 2.143,3.929 -52.143,50.715 -52.143,50.715 z"
         id="path1948"
         style="fill:#ffff00;fill-opacity:1;fill-rule:evenodd;stroke:#000000;stroke-width:3;stroke-linecap:butt;stroke-linejoin:miter;stroke-miterlimit:4;stroke-dasharray:none;stroke-opacity:1" />
    </g>
    <path
       d="m 893.622,541.127 c -15.233,3.643 -31.526,0.278 -46.72,3.03 -5.231,1.711 -5.883,8.257 -6.313,13.132 1.048,5.445 1.067,10.885 1.01,16.415 4.112,8.669 -5.333,14.716 -3.03,22.981 3.436,6.899 8.89,13.813 13.889,17.678 4.26,3.292 7.438,2.506 10.607,7.828 6.062,7.316 10.968,17.196 19.95,21.466 1.93,0.716 4.798,0.367 6.819,0.758 3.209,0.475 6.04,2.114 9.091,3.03 17.481,-3.245 27.596,-30.253 43.184,-35.355 17.03,-1.75 34.393,2.05 51.265,4.293 20.966,2.709 39.506,-6.568 59.346,-10.354 21.06,-1.928 18.28,-17.047 42.93,-19.698 14.65,-1.575 37.57,18.3 48.74,8.586 4.86,-4.223 4.48,-14.59 2.02,-20.203 -4.65,-10.632 -12.77,-24.025 -25.25,-23.991 -5.81,0.02 -13.39,5.471 -17.43,10.102 -2.19,2.516 -1.61,5.211 -4.8,6.249 -6.62,-4.573 -1.78,-12.118 -3.78,-19.381 -1.9,-4.84 -4.92,-11.485 -8.84,-14.9 -4.71,-4.105 -13.93,-4.722 -19.19,-8.081 -5.61,-3.577 -10.96,-11.103 -16.42,-14.9 -13.92,-8.764 -29.37,-14.752 -45.96,-13.637 -7.002,0.719 -16.376,2.783 -22.73,5.808 -5.622,2.678 -10.923,9.969 -16.667,12.375 -10.892,4.561 -28.032,1.422 -38.891,6.061 -11.129,7.356 -19.55,17.258 -32.83,20.708 z"
       id="path2445"
       style="fill:#ffffff;fill-opacity:1;fill-rule:evenodd;stroke:#000000;stroke-width:3;stroke-linecap:butt;stroke-linejoin:miter;stroke-miterlimit:4;stroke-dasharray:none;stroke-opacity:1" />
    <path
       d="m -139.842,683.87 c -36.837,-9.086 -85.701,-22.22 -122.22,-32.508 -29.398,-8.282 -68.097,-21.058 -97.579,-29.039 -29.8,-8.067 -99.972,-24.413 -99.972,-24.413 l -41.886,42.824 c 0,0 113.089,75.521 168.999,86.063 80.129,15.109 208.056,-6.258 287.4902,-24.673 7.3133,-1.695 6.4436,-10.752 6.4436,-10.752 0,0 -24.4891,7.58 -35.3216,7.502 -20.2914,-0.146 -46.2532,-10.145 -65.9542,-15.004 z"
       id="path4068"
       style="fill:#ffffff;fill-opacity:1;fill-rule:evenodd;stroke:#000000;stroke-width:3;stroke-linecap:butt;stroke-linejoin:miter;stroke-miterlimit:4;stroke-dasharray:none;stroke-opacity:1" />
    <path
       d="m -513.642,541.172 c 15.233,3.643 31.526,0.278 46.72,3.03 5.23,1.711 5.883,8.257 6.313,13.132 -1.048,5.445 -1.067,10.885 -1.01,16.415 -4.112,8.67 5.333,14.716 3.03,22.981 -3.436,6.9 -8.89,13.814 -13.889,17.678 -4.26,3.292 -7.438,2.506 -10.607,7.829 -6.062,7.316 -10.968,17.195 -19.95,21.465 -1.93,0.717 -4.798,0.368 -6.819,0.758 -3.209,0.476 -6.04,2.114 -9.091,3.031 -17.482,-3.246 -27.596,-30.254 -43.184,-35.356 -17.03,-1.749 -34.393,2.051 -51.266,4.293 -20.968,2.71 -39.505,-6.568 -59.346,-10.354 -21.062,-1.928 -18.275,-17.047 -42.932,-19.698 -14.649,-1.575 -37.567,18.301 -48.739,8.587 -4.857,-4.223 -4.477,-14.591 -2.021,-20.203 4.652,-10.633 12.769,-24.025 25.254,-23.992 5.807,0.02 13.394,5.471 17.425,10.102 2.191,2.517 1.609,5.212 4.799,6.249 6.624,-4.573 1.784,-12.117 3.787,-19.381 1.896,-4.839 4.921,-11.485 8.839,-14.9 4.71,-4.105 13.926,-4.721 19.193,-8.081 5.607,-3.576 10.955,-11.102 16.415,-14.9 13.917,-8.763 29.369,-14.752 45.962,-13.637 7.001,0.72 16.375,2.783 22.729,5.809 5.622,2.677 10.923,9.968 16.667,12.374 10.892,4.561 28.032,1.422 38.891,6.061 11.129,7.357 19.549,17.258 32.83,20.708 z"
       id="path4070"
       style="fill:#ffffff;fill-opacity:1;fill-rule:evenodd;stroke:#000000;stroke-width:3;stroke-linecap:butt;stroke-linejoin:miter;stroke-miterlimit:4;stroke-dasharray:none;stroke-opacity:1" />
  </g>
  <metadata
     id="metadata870">
    <rdf:RDF>
      <cc:Work
         rdf:about="">
        <dc:creator>
          <cc:Agent>
            <dc:title>https://commons.wikimedia.org/wiki/User:Bluebear2</dc:title>
          </cc:Agent>
        </dc:creator>
      </cc:Work>
    </rdf:RDF>
  </metadata>
</svg>
