<?xml version="1.0" encoding="UTF-8" standalone="no"?>
<!-- Created with Inkscape (http://www.inkscape.org/) -->

<svg
   version="1.0"
   width="1000"
   height="1200"
   id="svg2411"
   xmlns="http://www.w3.org/2000/svg"
   xmlns:svg="http://www.w3.org/2000/svg"
   xmlns:rdf="http://www.w3.org/1999/02/22-rdf-syntax-ns#"
   xmlns:cc="http://creativecommons.org/ns#"
   xmlns:dc="http://purl.org/dc/elements/1.1/">
  <defs
     id="defs2413" />
  <g
     transform="matrix(0.49321987,0,0,0.7821641,406.31236,-388.0545)"
     id="layer1">
    <path
       d="m 199.69729,578.26009 419.4984,108.37827 275.70592,-92.17278 173.63039,102.51151 133.5723,469.87181 c 0,0 -24.6247,18.9545 -32.8299,29.2944 -5.9009,7.436 -11.5431,18.9991 -15.1523,27.7792 -2.4753,6.0217 -5.4474,14.3667 -6.0115,20.8529 -0.3219,3.701 0.2566,8.7542 1.3246,12.3125 1.9277,6.4226 7.2068,13.8884 10.2427,19.8676 5.6755,11.1778 18.1828,34.8503 18.6878,37.3756 0.5051,2.5254 3.5903,19.9896 1.2831,28.6385 -2.7408,10.2743 -10.5495,23.6055 -19.1929,29.7995 -4.0625,2.9113 -12.2708,0.9047 -16.1625,4.0407 -6.3098,5.0845 -6.7565,18.012 -11.9735,24.2127 -6.9023,8.2037 -28.8528,21.0869 -28.8528,21.0869 0,0 28.7214,14.7949 39.2899,23.5877 4.7575,3.9582 10.1703,10.3481 13.6582,15.4604 3.7428,5.486 8.7585,13.1941 10.1016,19.698 4.1461,20.0774 1.672,48.6499 -4.5457,68.1853 -9.324,29.2947 -38.8759,60.3572 -53.5381,87.3782 -16.9702,31.2745 -25.8287,81.9395 -51.0127,107.0761 -29.7902,29.7341 -86.65774,47.3662 -126.77412,60.1041 -33.71462,10.7052 -116.16756,20.2031 -116.16756,20.2031 0,0 -35.8415,7.4914 -48.4873,16.1624 -7.45627,5.1126 -15.91086,14.8096 -19.1929,23.2335 -2.09316,5.3725 -3.21311,13.8645 -1.0102,19.1929 3.19714,7.7333 13.62887,14.2259 20.7082,18.6878 9.42672,5.9414 25.89846,6.8747 34.3452,14.1422 3.34872,2.8812 7.14637,8.2302 7.5761,12.6269 0.39164,4.007 -1.6797,9.7993 -4.5457,12.6269 -39.70547,39.1731 -121.84584,46.3395 -175.7665,60.6091 -40.53273,10.7266 -95.6479,21.5681 -137.3661,25.758 -86.81282,8.7188 -290.79982,4.3135 -290.79982,4.3135"
       id="background-5"
       style="fill:#00ff00;fill-opacity:1;fill-rule:evenodd;stroke:#000000;stroke-width:3;stroke-linecap:butt;stroke-linejoin:miter;stroke-miterlimit:4;stroke-dasharray:none;stroke-opacity:1" />
    <path
       d="M 200.1819,578.26003 -219.3165,686.6383 -495.02242,594.46552 -668.65284,696.97703 -802.22519,1166.8489 c 0,0 24.6247,18.9545 32.8299,29.2944 5.9009,7.436 11.5431,18.9991 15.1523,27.7792 2.4753,6.0217 5.4474,14.3667 6.0115,20.8529 0.3219,3.701 -0.2566,8.7542 -1.3246,12.3125 -1.9277,6.4226 -7.2068,13.8884 -10.2427,19.8676 -5.6755,11.1778 -18.1828,34.8503 -18.6878,37.3756 -0.5051,2.5254 -3.5903,19.9896 -1.2831,28.6385 2.7408,10.2743 10.5495,23.6055 19.1929,29.7995 4.0625,2.9113 12.2708,0.9047 16.1625,4.0407 6.3098,5.0845 6.7565,18.012 11.9735,24.2127 6.90235,8.2037 28.85285,21.0869 28.85285,21.0869 0,0 -28.72145,14.7949 -39.28995,23.5877 -4.7575,3.9582 -10.1703,10.3481 -13.6582,15.4604 -3.7428,5.486 -8.7585,13.1941 -10.1016,19.698 -4.1461,20.0774 -1.672,48.6499 4.5457,68.1853 9.324,29.2947 38.87595,60.3572 53.53815,87.3782 16.9702,31.2745 25.8287,81.9395 51.0127,107.0761 29.7902,29.7341 86.65777,47.3662 126.77415,60.1041 33.71462,10.7052 116.16756,20.2031 116.16756,20.2031 0,0 35.8415,7.4914 48.4873,16.1624 7.45627,5.1126 15.91086,14.8096 19.1929,23.2335 2.09316,5.3725 3.21311,13.8645 1.0102,19.1929 -3.19714,7.7333 -13.62887,14.2259 -20.7082,18.6878 -9.42672,5.9414 -25.89846,6.8747 -34.3452,14.1422 -3.34872,2.8812 -7.14637,8.2302 -7.5761,12.6269 -0.39164,4.007 1.6797,9.7993 4.5457,12.6269 39.70547,39.1731 121.84584,46.3395 175.7665,60.6091 40.53273,10.7266 95.6479,21.5681 137.366102,25.758 86.8128138,8.7188 290.799828,4.3135 290.799828,4.3135"
       id="background-6"
       style="fill:#00ff00;fill-opacity:1;fill-rule:evenodd;stroke:#000000;stroke-width:3;stroke-linecap:butt;stroke-linejoin:miter;stroke-miterlimit:4;stroke-dasharray:none;stroke-opacity:1" />
    <g
       id="sinister1-2">
      <path
         d="m 1000.3902,616.54561 c -8.62784,0.4202 -53.85008,-8.73427 -60.57809,-3.31659 -6.01772,4.84572 -31.23665,28.00982 -34.59119,34.96978 -5.50893,11.42985 -4.9703,33.77457 -0.18934,45.52753 4.70398,11.56372 22.86357,20.17884 26.4286,32.14285 3.93975,13.22157 -3.96808,31.95686 -5,45.71429 -0.78604,10.4793 -4.02659,24.81746 -1.4286,35 2.78011,10.89634 17.52949,21.03544 19.2857,32.14286 0.44648,2.82384 -1.05442,6.64206 -2.1428,9.28571 -2.01483,4.89394 -7.71244,9.94678 -9.2857,15 -5.16593,16.59272 -0.24786,40.67586 -2.8572,57.85714 -2.19285,14.43891 -12.1428,47.14286 -12.1428,47.14286 0,0 49.96532,-17.19573 70.13604,-19.11874 19.34138,-1.84395 39.68698,1.163 58.43528,6.2616 11.9466,3.24886 28.6481,8.15398 37.8571,16.42857 6.7813,6.09321 11.428,18.04091 15,26.42861 3.2409,7.61022 6.8818,18.21472 7.8572,26.42852 0.9616,8.0972 -6.0429,20.4199 -1.4286,27.1429 11.734,17.0966 51.2419,36.2788 65.7143,21.4286 9.8391,-10.0959 -13.3225,-30.3928 -15.7143,-44.2857 -2.1451,-12.4596 2.8581,-29.82732 0,-42.14292 -2.8597,-12.32264 -13.9162,-26.09473 -18.5714,-37.85715 -13.4447,-33.97117 -35.0919,-79.89895 -35.7143,-116.42858 -0.2382,-13.98084 12.587,-31.02419 12.1429,-45 -0.4025,-12.66549 -15.0123,-27.41029 -13.5715,-40 1.4334,-12.52474 14.1241,-25.98691 22.1429,-35.71428 10.0311,-12.1684 32.0797,-21.3424 38.5714,-35.71429 7.1472,-15.82312 8.5692,-23.70162 -0.8278,-38.30129 -11.8478,-18.40743 -39.6111,-51.86157 -61.5018,-51.88802 -22.5662,-0.0273 -24.5665,16.7224 -46.7213,21.01209 -24.1972,4.68515 -27.9969,8.71851 -51.3047,9.85365 z"
         id="path3218"
         style="fill:#ff0000;fill-opacity:1;fill-rule:evenodd;stroke:#000000;stroke-width:3;stroke-linecap:butt;stroke-linejoin:miter;stroke-miterlimit:4;stroke-dasharray:none;stroke-opacity:1" />
    </g>
    <g
       id="sinister2-3">
      <path
         d="m 1133.8932,1377.1281 -11.7857,-1.4285 c 0,0 -8.9613,-6.985 -11.4286,-11.0715 -3.3471,-5.5436 -6.4972,-14.2526 -6.0714,-20.7143 0.4699,-7.1318 7.445,-14.9847 9.6429,-21.7857 1.7512,-5.4187 4.9103,-12.962 3.9285,-18.5714 -1.0867,-6.2089 -6.2783,-13.7636 -11.0714,-17.8571 -6.0981,-5.208 -24.6429,-10.3572 -24.6429,-10.3572 0,0 11.8137,52.8157 20.3571,74.2857 2.0204,5.0771 5.2433,11.7377 8.5715,16.0715 2.678,3.487 6.7284,8.144 10.7143,10 3.2287,1.5034 11.7857,1.4285 11.7857,1.4285 z"
         id="path3968"
         style="fill:#ffff00;fill-opacity:1;fill-rule:evenodd;stroke:#000000;stroke-width:3;stroke-linecap:butt;stroke-linejoin:miter;stroke-miterlimit:4;stroke-dasharray:none;stroke-opacity:1" />
    </g>
    <path
       d="m 519.82227,683.82481 c 36.83665,-9.08577 85.70014,-22.22018 122.2192,-32.50843 29.39807,-8.2821 68.09768,-21.05766 97.57893,-29.03862 29.8003,-8.06734 99.97231,-24.41274 99.97231,-24.41274 l 41.88586,42.82361 c 0,0 -113.08893,75.52119 -168.9991,86.06324 -80.1286,15.10852 -191.0559,-8.25813 -270.48989,-26.67284 -7.31327,-1.69539 -23.44358,-8.75227 -23.44358,-8.75227 0,0 24.48908,7.57996 35.32166,7.50195 20.29138,-0.14612 46.25314,-10.14453 65.95461,-15.0039 z"
       id="background-3"
       style="fill:#00ff00;fill-opacity:1;fill-rule:evenodd;stroke:#000000;stroke-width:3;stroke-linecap:butt;stroke-linejoin:miter;stroke-miterlimit:4;stroke-dasharray:none;stroke-opacity:1" />
    <path
       d="m 893.62189,541.12672 c -15.23265,3.64347 -31.52621,0.27796 -46.7196,3.03046 -5.2309,1.711 -5.88312,8.25636 -6.3134,13.13198 1.04789,5.44441 1.06736,10.88454 1.0101,16.41497 4.11214,8.66936 -5.33281,14.71578 -3.0304,22.98097 3.43636,6.89915 8.88993,13.81337 13.8896,17.67767 4.25972,3.29238 7.43796,2.50636 10.6066,7.82868 6.06191,7.31595 10.96783,17.19569 19.9505,21.46574 1.92955,0.71607 4.79771,0.3673 6.8185,0.75762 3.20941,0.47566 6.04019,2.11378 9.0914,3.03045 17.48113,-3.24541 27.59553,-30.25334 43.18403,-35.35534 17.03,-1.74954 34.3928,2.05056 51.2652,4.29315 20.96818,2.7093 39.50528,-6.56817 59.34638,-10.35406 21.0621,-1.92847 18.2745,-17.04734 42.9316,-19.69798 14.6498,-1.57486 37.5676,18.30017 48.7398,8.5863 4.857,-4.22301 4.4761,-14.59064 2.0204,-20.20305 -4.6522,-10.63242 -12.7693,-24.0249 -25.2539,-23.99111 -5.807,0.0157 -13.3935,5.47036 -17.4251,10.10152 -2.1908,2.51667 -1.6087,5.21156 -4.7992,6.24905 -6.6235,-4.57274 -1.7832,-12.1175 -3.7871,-19.38103 -1.8952,-4.83939 -4.921,-11.4847 -8.8388,-14.89975 -4.7094,-4.10514 -13.9258,-4.72154 -19.193,-8.08122 -5.6071,-3.57648 -10.9551,-11.10237 -16.415,-14.89975 -13.9171,-8.76357 -29.3685,-14.75189 -45.9619,-13.63706 -7.00078,0.71932 -16.37438,2.78266 -22.72838,5.80838 -5.6227,2.67747 -10.9233,9.96862 -16.6675,12.37437 -10.8915,4.56148 -28.0322,1.42215 -38.89093,6.06091 -11.12853,7.35671 -19.54946,17.25854 -32.8299,20.70813 z"
       id="background-4"
       style="fill:#00ff00;fill-opacity:1;fill-rule:evenodd;stroke:#000000;stroke-width:3;stroke-linecap:butt;stroke-linejoin:miter;stroke-miterlimit:4;stroke-dasharray:none;stroke-opacity:1" />
    <g
       id="dexter1-2">
      <path
         d="m -620.41043,616.59092 c 8.62788,0.4202 53.85012,-8.73427 60.57814,-3.31659 6.01772,4.84572 31.23665,28.00982 34.59119,34.96978 5.50893,11.42985 4.9703,33.77457 0.18934,45.52753 -4.70398,11.56372 -22.86357,20.17884 -26.4286,32.14285 -3.93975,13.22157 3.96808,31.95686 5,45.71429 0.78604,10.4793 4.02659,24.81746 1.4286,35 -2.78011,10.89634 -17.52949,21.03544 -19.28571,32.14286 -0.44648,2.82384 1.05442,6.64206 2.14281,9.28571 2.01483,4.89394 7.71244,9.94678 9.2857,15 5.16593,16.59272 0.24786,40.67586 2.8572,57.85714 2.19285,14.43891 12.1428,47.14286 12.1428,47.14286 0,0 -49.96533,-17.19573 -70.13605,-19.11874 -19.34142,-1.84395 -39.68702,1.163 -58.43532,6.2616 -11.9466,3.24886 -28.6481,8.15398 -37.8571,16.42857 -6.7813,6.09321 -11.428,18.04091 -15,26.42861 -3.2409,7.61021 -6.8818,18.21471 -7.8572,26.42851 -0.9616,8.0972 6.0429,20.4199 1.4286,27.1429 -11.734,17.0966 -51.24189,36.2788 -65.71429,21.4286 -9.8391,-10.0959 13.3225,-30.3928 15.7143,-44.2857 2.1451,-12.4596 -2.8581,-29.82731 0,-42.14291 2.8597,-12.32264 13.91619,-26.09473 18.57139,-37.85715 13.4447,-33.97117 35.0919,-79.89895 35.7143,-116.42858 0.2382,-13.98084 -12.587,-31.02419 -12.1429,-45 0.4025,-12.66549 15.0123,-27.41029 13.5715,-40 -1.4334,-12.52474 -14.1241,-25.98691 -22.1429,-35.71428 -10.0311,-12.1684 -32.07969,-21.3424 -38.57139,-35.71429 -7.1472,-15.82312 -8.5692,-23.70162 0.8278,-38.30129 11.8478,-18.40743 39.61109,-51.86157 61.50179,-51.88802 22.5662,-0.0273 24.5665,16.7224 46.7213,21.01209 24.1972,4.68515 27.9969,8.71851 51.3047,9.85365 z"
         id="path4032"
         style="fill:#ff0000;fill-opacity:1;fill-rule:evenodd;stroke:#000000;stroke-width:3;stroke-linecap:butt;stroke-linejoin:miter;stroke-miterlimit:4;stroke-dasharray:none;stroke-opacity:1" />
    </g>
    <path
       d="m -139.84245,683.87012 c -36.83665,-9.08577 -85.70014,-22.22018 -122.2192,-32.50843 -29.39807,-8.2821 -68.09768,-21.05766 -97.57893,-29.03862 -29.8003,-8.06734 -99.97231,-24.41274 -99.97231,-24.41274 l -41.88586,42.82361 c 0,0 113.08893,75.52119 168.9991,86.06324 80.1286,15.10852 208.0559,-6.25813 287.489891,-24.67284 7.31327,-1.69539 6.44358,-10.75227 6.44358,-10.75227 0,0 -24.48908,7.57996 -35.32166,7.50195 -20.29138,-0.14612 -46.253141,-10.14453 -65.954611,-15.0039 z"
       id="background-7"
       style="fill:#00ff00;fill-opacity:1;fill-rule:evenodd;stroke:#000000;stroke-width:3;stroke-linecap:butt;stroke-linejoin:miter;stroke-miterlimit:4;stroke-dasharray:none;stroke-opacity:1" />
    <path
       d="m -513.64207,541.17202 c 15.23265,3.64347 31.52621,0.27796 46.7196,3.03046 5.2309,1.711 5.88312,8.25636 6.3134,13.13198 -1.04789,5.44441 -1.06736,10.88455 -1.0101,16.41498 -4.11214,8.66936 5.33281,14.71578 3.0304,22.98097 -3.43636,6.89915 -8.88993,13.81337 -13.8896,17.67767 -4.25972,3.29238 -7.43796,2.50636 -10.6066,7.82868 -6.06191,7.31595 -10.96783,17.19569 -19.9505,21.46574 -1.92955,0.71607 -4.79771,0.3673 -6.8185,0.75762 -3.20941,0.47566 -6.04019,2.11378 -9.0914,3.03045 -17.48113,-3.24541 -27.59553,-30.25334 -43.18403,-35.35534 -17.03001,-1.74954 -34.39281,2.05056 -51.26521,4.29315 -20.96822,2.7093 -39.50532,-6.56817 -59.34642,-10.35406 -21.0621,-1.92847 -18.2745,-17.04734 -42.9316,-19.69798 -14.6498,-1.57486 -37.5676,18.30017 -48.73979,8.5863 -4.857,-4.22301 -4.4761,-14.59064 -2.0204,-20.20305 4.65219,-10.63243 12.76929,-24.02491 25.25389,-23.99112 5.807,0.0157 13.3935,5.47036 17.4251,10.10152 2.1908,2.51667 1.6087,5.21157 4.7992,6.24906 6.6235,-4.57275 1.7832,-12.11751 3.7871,-19.38104 1.8952,-4.83939 4.921,-11.4847 8.8388,-14.89975 4.7094,-4.10514 13.9258,-4.72154 19.193,-8.08122 5.6071,-3.57648 10.9551,-11.10237 16.415,-14.89975 13.9171,-8.76357 29.3685,-14.75189 45.9619,-13.63706 7.00082,0.71932 16.37442,2.78266 22.72842,5.80838 5.6227,2.67747 10.9233,9.96862 16.6675,12.37437 10.8915,4.56148 28.03221,1.42215 38.89094,6.06091 11.12853,7.35671 19.54946,17.25854 32.8299,20.70813 z"
       id="background-1"
       style="fill:#00ff00;fill-opacity:1;fill-rule:evenodd;stroke:#000000;stroke-width:3;stroke-linecap:butt;stroke-linejoin:miter;stroke-miterlimit:4;stroke-dasharray:none;stroke-opacity:1" />
    <g
       id="dexter1-1">
      <path
         d="m -754.27063,1377.5306 2.5,11.0714 c 0,0 16.8201,-11.9032 25,-15 12.6371,-4.7842 30.8519,-6.7602 44.2858,-8.2143 9.9116,-1.0729 23.9902,2.711 33.2143,-1.0714 8.9092,-3.6533 23.5716,-21.7857 23.5716,-21.7857 0,0 -19.5088,-33.6394 -31.4287,-45 -8.1555,-7.7729 -21.2463,-16.0186 -31.7857,-20 -3.7569,-1.4193 -13.2143,-2.1429 -13.2143,-2.1429 0,0 -11.3504,49.8552 -18.9286,70.3572 -1.8111,4.8996 -4.7556,11.2696 -7.5001,15.7142 -1.9255,3.1183 -4.918,7.0421 -7.5,9.6429 -1.8273,1.8406 -4.3779,4.393 -6.7857,5.3571 -3.1968,1.2802 -11.4286,1.0715 -11.4286,1.0715 z"
         id="path4060"
         style="fill:#ff0000;fill-opacity:1;fill-rule:evenodd;stroke:#000000;stroke-width:3;stroke-linecap:butt;stroke-linejoin:miter;stroke-miterlimit:4;stroke-dasharray:none;stroke-opacity:1" />
      <path
         d="m -446.30655,1820.9622 c 0,0 8.30814,11.9355 11.39567,17.0465 3.32864,5.5101 9.5965,19.1929 9.5965,19.1929 0,0 13.03218,-5.745 17.6776,-9.5964 4.06263,-3.3682 11.76844,-14.9506 11.76844,-14.9506 0,0 -20.6149,-5.7669 -29.44604,-7.7778 -6.26813,-1.4273 -20.99217,-3.9146 -20.99217,-3.9146 z"
         id="path4064"
         style="fill:#ff0000;fill-opacity:1;fill-rule:evenodd;stroke:#000000;stroke-width:3;stroke-linecap:butt;stroke-linejoin:miter;stroke-miterlimit:4;stroke-dasharray:none;stroke-opacity:1" />
      <path
         d="m -4.98715,524.7711 c 0,0 -7.795,0.55879 -11.1117,1.01015 -7.4294,1.36698 -15.1728,2.20459 -22.2234,5.05076 -5.077,2.44935 -10.9318,7.37489 -15.1523,11.11168 -25.3095,29.3827 -53.0661,57.00851 -86.873,75.76144 -33.0541,18.33539 -72.047,23.51272 -108.0863,35.35534 l 108.5914,30.80965 c 62.0469,-15.87189 118.4182,-47.20253 174.2512,-77.78174 37.4943,-23.43449 104.2983,-81.06475 104.2983,-81.06475 0,0 507.05566,-0.25253 -143.6942,-0.25253 z"
         id="path944"
         style="fill:#ff0000;fill-opacity:1;fill-rule:evenodd;stroke:#000000;stroke-width:3;stroke-linecap:butt;stroke-linejoin:miter;stroke-miterlimit:4;stroke-dasharray:none;stroke-opacity:1" />
    </g>
    <g
       id="sinister2"
       style="fill:#ffff00"
       transform="translate(-0.3572,-0.3572)">
      <path
         d="m 826.28637,1820.9169 c 0,0 -8.30814,11.9355 -11.39567,17.0465 -3.32864,5.5101 -9.5965,19.1929 -9.5965,19.1929 0,0 -13.03218,-5.745 -17.6776,-9.5964 -4.06263,-3.3682 -11.76844,-14.9506 -11.76844,-14.9506 0,0 20.6149,-5.7669 29.44604,-7.7778 6.26813,-1.4273 20.99217,-3.9146 20.99217,-3.9146 z"
         id="path3983"
         style="fill:#ff0000;fill-opacity:1;fill-rule:evenodd;stroke:#000000;stroke-width:3;stroke-linecap:butt;stroke-linejoin:miter;stroke-miterlimit:4;stroke-dasharray:none;stroke-opacity:1" />
      <path
         d="m 887.72925,690.35039 c 0,0 6.5225,48.17844 9.8214,68.75 2.0333,12.67951 4.2156,29.72846 7.5,42.14286 2.4572,9.28769 5.125,22.36455 10.7143,30.17857 8.4305,11.78612 25.0432,23.23352 37.8572,30 14.8337,7.83295 36.7397,14.5905 53.39275,16.60714 10.5496,1.27752 25.0915,0.60314 35.3572,-2.14285 16.1315,-4.31504 49.8214,-24.82143 49.8214,-24.82143 l -10.1786,-6.96429 c 0,0 -26.7355,12.73401 -39.1071,14.82143 -15.1138,2.5501 -36.2048,2.30118 -51.07145,-1.42857 -11.3865,-2.85664 -25.1184,-11.16229 -35,-17.5 -6.4791,-4.15545 -15.2351,-10.02645 -20,-16.07143 -10.5624,-13.39993 -19.9343,-34.93045 -24.2857,-51.42857 -4.7677,-18.07665 -4.6428,-62.14286 -4.6428,-62.14286 z"
         id="path3809"
         style="fill:#ffff00;fill-opacity:1;fill-rule:evenodd;stroke:#000000;stroke-width:3;stroke-linecap:butt;stroke-linejoin:miter;stroke-miterlimit:4;stroke-dasharray:none;stroke-opacity:1" />
      <path
         d="m 1043.8006,757.31468 c 0.6145,-1.71128 2.7773,-3.2704 4.2857,-4.28572 2.1708,-1.46123 5.4619,-2.92117 8.0358,-3.39286 2.8474,-0.52181 6.7944,-0.15936 9.6428,0.35715 2.167,0.39295 5.0534,1.2266 6.9643,2.32143 1.9765,1.13241 4.6395,2.99164 5.7143,5 0.9688,1.81031 1.0795,4.74095 0.8928,6.78571 -0.174,1.90645 -1.0876,4.36952 -1.9642,6.07143 -0.9468,1.83839 -2.351,4.44401 -4.1072,5.53571 -2.5434,1.58101 -6.8286,1.67914 -9.8214,1.78572 -2.962,0.10548 -7.18,0.27305 -9.8214,-1.07143 -3.5487,-1.8063 -7.3164,-6.18041 -8.9286,-9.82143 -1.1331,-2.55893 -1.8387,-6.65183 -0.8929,-9.28571 z"
         id="path3813"
         style="fill:#ffff00;fill-opacity:1;fill-rule:evenodd;stroke:#000000;stroke-width:3;stroke-linecap:butt;stroke-linejoin:miter;stroke-miterlimit:4;stroke-dasharray:none;stroke-opacity:1" />
      <path
         d="m 1055.4078,776.95753 -4.4643,78.75 11.0714,-4.10714 1.9643,-73.75 z"
         id="path3815"
         style="fill:#ffff00;fill-opacity:1;fill-rule:evenodd;stroke:#000000;stroke-width:3;stroke-linecap:butt;stroke-linejoin:miter;stroke-miterlimit:4;stroke-dasharray:none;stroke-opacity:1" />
      <path
         d="m 1068.6221,776.60039 c 0,0 6.8457,11.34896 8.2142,16.78571 1.374,5.45881 0.7076,13.12093 0.7143,18.75001 0.01,6.00382 -0.7143,20 -0.7143,20 0,0 2.8293,-4.51 4.4643,-6.07143 0.9778,-0.93382 3.75,-2.5 3.75,-2.5 0,0 0.1409,-18.65211 -0.5357,-26.60715 -0.3352,-3.94064 -0.6059,-9.32144 -1.9643,-13.03571 -1.4043,-3.83992 -7.1428,-11.60714 -7.1428,-11.60714 0,0 -1.0847,2.40096 -1.9643,3.03571 -1.2117,0.87438 -4.8214,1.25 -4.8214,1.25 z"
         id="path3817"
         style="fill:#ffff00;fill-opacity:1;fill-rule:evenodd;stroke:#000000;stroke-width:3;stroke-linecap:butt;stroke-linejoin:miter;stroke-miterlimit:4;stroke-dasharray:none;stroke-opacity:1" />
      <path
         d="m 1085.2292,823.56468 -3.5714,2.32143 -5.1786,6.78571 0.8929,6.25 1.7857,3.75 2.8571,2.32143 10.3572,5.35714 6.25,-2.85714 c 0,0 2.3214,-6.07143 2.6785,-6.78572 0.3572,-0.71428 -0.8928,-8.75 -0.8928,-8.75 l -5.7143,-6.07142 -3.9286,-2.67858 z"
         id="path3819"
         style="fill:#ffff00;fill-opacity:1;fill-rule:evenodd;stroke:#000000;stroke-width:3;stroke-linecap:butt;stroke-linejoin:miter;stroke-miterlimit:4;stroke-dasharray:none;stroke-opacity:1" />
      <path
         d="m 1072.1935,862.31468 c 0,0 -1.8372,4.68936 -2.3214,6.78571 -0.5832,2.52497 -1.09,5.98005 -1.0715,8.57143 0.017,2.32583 0.3558,5.46552 1.0715,7.67857 0.6341,1.96094 1.662,4.71563 3.2142,6.07143 2.1062,1.83972 5.9597,3.02793 8.75,3.21429 2.9569,0.19748 7.0034,-0.79561 9.6429,-2.14286 2.8055,-1.43197 6.2056,-4.28216 7.8571,-6.96429 1.5397,-2.50065 2.5626,-6.52828 2.5,-9.46428 -0.069,-3.25259 -0.9378,-8.03286 -3.2142,-10.35715 -1.8966,-1.93651 -5.9,-2.39866 -8.5715,-2.85714 -2.9044,-0.49846 -6.8759,-0.0863 -9.8214,-0.17857 -2.4119,-0.0755 -8.0357,-0.35714 -8.0357,-0.35714 z"
         id="path3821"
         style="fill:#ffff00;fill-opacity:1;fill-rule:evenodd;stroke:#000000;stroke-width:3;stroke-linecap:butt;stroke-linejoin:miter;stroke-miterlimit:4;stroke-dasharray:none;stroke-opacity:1" />
      <path
         d="m 1091.8363,892.31468 c -1.9868,1.22458 -5.4478,2.08153 -6.6071,4.10714 -1.0647,1.86039 0.7872,5.22922 -0.1786,7.14286 -1.9264,3.81711 -9.0672,5.07351 -11.25,8.75 -1.3579,2.28703 -1.7943,6.11553 -1.4285,8.75 0.3824,2.75361 1.4663,7.102 3.9285,8.39285 7.4101,3.88494 19.5937,-1.90556 27.5,-4.64285 5.0745,-1.75686 19.1607,-8.5454 22.7143,-12.57143 2.3238,-2.63281 6.4416,-6.88463 6.2857,-10.39286 -0.1542,-3.47046 -3.4191,-9.15528 -6.6785,-10.35714 -3.1028,-1.14412 -13.6474,4.11463 -15.8929,2.96428 -1.7277,-0.88507 -2.4123,-4.0535 -4.1071,-5 -2.077,-1.15997 -5.5288,-1.55922 -7.8572,-1.07142 -2.2122,0.46344 -4.5045,2.74266 -6.4286,3.92857 z"
         id="path3823"
         style="fill:#ffff00;fill-opacity:1;fill-rule:evenodd;stroke:#000000;stroke-width:3;stroke-linecap:butt;stroke-linejoin:miter;stroke-miterlimit:4;stroke-dasharray:none;stroke-opacity:1" />
      <path
         d="m 1095.5863,826.60039 c 0,0 8.0387,-12.81306 10,-18.92857 2.559,-7.97913 4.8492,-19.37154 3.75,-27.67857 -0.907,-6.85511 -11.4854,-14.82526 -8.9285,-21.25 0.7362,-1.8497 4.5075,-1.44667 6.0714,-2.67857 2.0116,-1.58462 2.624,-6.60758 5.1786,-6.78572 6.6132,-0.46116 12.5899,9.68894 15.7143,15.53572 2.1342,3.99381 3.077,10.29847 2.8571,14.82142 -0.3852,7.92356 -3.0665,18.77873 -7.5,25.35715 -5.8167,8.63081 -27.1429,21.60714 -27.1429,21.60714 z"
         id="path3827"
         style="fill:#ffff00;fill-opacity:1;fill-rule:evenodd;stroke:#000000;stroke-width:3;stroke-linecap:butt;stroke-linejoin:miter;stroke-miterlimit:4;stroke-dasharray:none;stroke-opacity:1" />
      <path
         d="m 1092.9078,758.56468 c 1.9115,0.33397 4.5166,-0.38293 6.4285,-0.71429 2.0613,-0.35725 5.0642,-0.41847 6.7858,-1.60714 1.8096,-1.24946 3.265,-4.04001 4.1071,-6.07143 0.6477,-1.5626 1.268,-3.85565 1.0714,-5.53572 -0.2118,-1.80986 -1.2101,-4.24862 -2.5,-5.53571 -2.0369,-2.03242 -5.885,-3.6617 -8.75,-3.92857 -2.9627,-0.27596 -7.0207,0.91502 -9.6428,2.32143 -1.8039,0.96753 -3.6849,3.07422 -5,4.64286 -1.2697,1.51452 -3.157,3.60331 -3.5715,5.53571 -0.375,1.74827 -0.1638,4.45049 0.8929,5.89286 2.0106,2.74441 6.8273,4.41446 10.1786,5 z"
         id="path3829"
         style="fill:#ffff00;fill-opacity:1;fill-rule:evenodd;stroke:#000000;stroke-width:3;stroke-linecap:butt;stroke-linejoin:miter;stroke-miterlimit:4;stroke-dasharray:none;stroke-opacity:1" />
      <path
         d="m 1072.0149,751.95753 9.8214,-3.92857 c 0,0 -0.5822,3.823 0.1786,5.17857 1.2872,2.29336 7.3214,4.82143 7.3214,4.82143 l -9.8214,6.25 c 0,0 0.1712,-5.26363 -0.8928,-7.14286 -1.2408,-2.19155 -6.6072,-5.17857 -6.6072,-5.17857 z"
         id="path3831"
         style="fill:#ffff00;fill-opacity:1;fill-rule:evenodd;stroke:#000000;stroke-width:3;stroke-linecap:butt;stroke-linejoin:miter;stroke-miterlimit:4;stroke-dasharray:none;stroke-opacity:1" />
      <path
         d="m 918.91108,968.37511 c -12.66942,13.9571 -9.91233,43.30339 -9.2858,62.14279 0.40095,12.0563 2.39691,28.9228 8.5715,39.2857 5.2109,8.7455 16.17041,18.6 25.7143,22.1429 3.81691,1.4169 13.5714,0 13.5714,0 0,0 -6.91042,-5.6187 -10,-7.8571 -4.37966,-3.1731 -11.30148,-6.054 -15,-10 -4.39868,-4.693 -9.95955,-12.1838 -10.7143,-18.5715 -0.70807,-5.9927 1.89197,-14.6163 5.7143,-19.2857 7.83274,-9.5685 24.38298,-16.4908 36.4286,-19.2857 20.2575,-4.7002 48.80352,-1.4547 69.28562,2.1429 13.5487,2.3798 31.276,8.117 43.5714,14.2857 6.3234,3.1725 16.9042,6.9096 19.2857,13.5714 2.6951,7.5391 -2.1314,19.4702 -7.1428,25.7143 -9.4204,11.7376 -30.6814,17.1342 -44.2858,23.5714 -7.5541,3.5744 -25.0797,2.3813 -25.7142,10.7143 -0.4381,5.7531 10.9982,8.0501 16.4285,10 36.8785,13.2419 92.6879,4.5725 129.2857,18.5714 7.9379,3.0363 19.4061,8.3062 23.5715,15.7143 2.5228,4.4867 -4.237,15.7358 0.7143,17.1429 7.718,2.1933 14.8245,-14.1212 15,-22.1429 0.2146,-9.8104 -12.9294,-18.995 -17.1429,-27.8571 -6.14,-12.9141 -5.5154,-34.9772 -15.7143,-45 -15.1277,-14.8666 -55.7783,-3.3786 -66.0146,-21.9549 -0.4264,-0.7738 -0.8841,-3.3272 -0.8841,-3.3272 0,0 -10.1191,-1.527 -6.9535,-1.3907 2.0952,-0.066 7.0855,1.2784 7.0855,1.2784 0,0 4.3511,-23.1819 2.481,-32.4628 -3.0675,-15.2235 -12.0819,-36.11059 -24.2857,-45.71429 -20.3397,-16.0063 -57.689,-21.3506 -83.57132,-21.4285 -24.7385,-0.0745 -63.37257,1.6826 -80,20 z"
         id="path3957"
         style="fill:#ffff00;fill-opacity:1;fill-rule:evenodd;stroke:#000000;stroke-width:3;stroke-linecap:butt;stroke-linejoin:miter;stroke-miterlimit:4;stroke-dasharray:none;stroke-opacity:1" />
      <path
         d="m 1087.2585,930.13649 1.0714,70.50001 8.0358,7.8214 0.5357,-10.14278 6.7857,8.53568 0.1071,-9.6786 6.6072,7.0714 2.2143,-8.42854 5.9285,7.96424 1.3929,-8.8571 4.4643,8.5714 1.6071,-10.74997 4.4643,9.89287 -0.3571,-10.17859 5.3571,8.53569 1.1429,-10.78569 6.3571,7.21431 c 0,0 -1.7857,-11.00002 -1.0714,-9.92859 0.7143,1.07143 6.75,6.57143 6.75,6.57143 l -1.1429,-9.78572 7.25,6.67857 -0.2143,-10.28571 7.3929,5.10714 -0.4643,-9.64285 7.75,5.21428 -2.3214,-9.28571 -40.75,-59.14286 -14.2143,8.64286 c 0,0 -13.0103,5.15634 -15.5357,5.82143 -4.7061,1.23938 -9.1429,3.46428 -9.1429,2.75 z"
         id="path3825"
         style="fill:#ffff00;fill-opacity:1;fill-rule:evenodd;stroke:#000000;stroke-width:3;stroke-linecap:butt;stroke-linejoin:miter;stroke-miterlimit:4;stroke-dasharray:none;stroke-opacity:1" />
      <path
         d="m 1131.5718,1388.3781 c 0,0 -1.9643,15.8929 -1.9643,16.7857 0,0.8929 0.01,11.9362 1.4286,16.7858 2.1316,7.2663 9.213,15.1993 11.7857,22.3214 1.767,4.8915 3.5714,16.9643 3.5714,16.9643 0,0 -19.195,-16.8538 -28.9285,-21.6072 -10.5803,-5.1669 -26.3092,-8.0589 -37.8573,-10.3571 -17.5827,-3.4992 -42.691,-0.7168 -59.2857,-7.5 -13.2703,-5.4243 -30.14602,-16.9589 -38.03573,-28.9286 -3.76841,-5.7171 -5.53571,-22.1428 -5.53571,-22.1428 0,0 8.92211,-0.9245 11.96431,-3.0358 7.49601,-5.2022 11.78283,-19.4885 16.96423,-25.5357 4.4259,4.2641 17.2946,18.5161 23.3929,21.4286 13.5194,6.4567 27.34,-2.9372 42.6786,-0.8939 12.1442,1.6178 28.4487,9.182 39.8215,13.5725 6.4902,2.5055 20,12.1428 20,12.1428 z"
         id="path3972"
         style="fill:#ffff00;fill-opacity:1;fill-rule:evenodd;stroke:#000000;stroke-width:3;stroke-linecap:butt;stroke-linejoin:miter;stroke-miterlimit:4;stroke-dasharray:none;stroke-opacity:1" />
      <path
         d="m 877.19355,641.24285 21.9643,7.14286 c 0,0 1.148,25.568 5.9668,35.70159 5.4243,11.40667 17.7367,24.19632 28.2142,31.25 29.26887,19.70428 110.28325,41.44126 110.28325,41.44126 l 0.3571,10.17857 c 0,0 -17.0514,-3.0272 -24.2118,-4.7422 -30.41748,-7.28538 -70.37708,-20.81804 -96.42855,-38.12763 -12.4627,-8.28069 -28.1833,-22.04744 -35.3571,-35.17857 -7.1987,-13.17684 -10.7882,-47.66588 -10.7882,-47.66588 z"
         id="path3807"
         style="fill:#ffff00;fill-opacity:1;fill-rule:evenodd;stroke:#000000;stroke-width:3;stroke-linecap:butt;stroke-linejoin:miter;stroke-miterlimit:4;stroke-dasharray:none;stroke-opacity:1" />
      <path
         d="m 922.19355,724.45714 c 0,0 3.6558,26.33367 2.1428,37.49999 -1.458,10.76082 -4.8437,25.78997 -11.6071,34.28572 -7.5653,9.50305 -22.5733,18.7708 -34.4643,21.25 -15.6269,3.25812 -38.3264,-0.5121 -52.6786,-7.5 -13.2174,-6.4354 -28.8371,-20.75266 -35.3571,-33.92857 -11.1669,-22.56669 -12.4817,-58.39585 -9.4643,-83.39286 2.3196,-19.21647 10.1319,-45.50008 22.3214,-60.53571 9.5661,-11.7997 42.8572,-26.96429 42.8572,-26.96429 0,0 -6.1646,-4.43864 -7.3214,-7.32143 -0.898,-2.23787 0.1785,-8.03571 0.1785,-8.03571 0,0 -37.0974,17.56594 -48.5714,30.35714 -11.8393,13.19848 -21.3641,36.02579 -25.7143,53.21429 -5.763,22.77078 -7.686,55.08874 -3.5714,78.21428 3.125,17.56353 11.641,41.09537 23.0357,54.82143 9.2627,11.15792 26.6092,21.99289 40.3571,26.60714 14.9119,5.00492 36.916,6.56855 52.3215,3.39286 15.2524,-3.14412 35.3356,-12.46302 46.25,-23.57143 6.7671,-6.88734 11.8877,-19.5316 14.10707,-28.92857 3.645,-15.43336 0.5357,-51.84699 0.5357,-51.84699 z"
         id="path3811"
         style="fill:#ffff00;fill-opacity:1;fill-rule:evenodd;stroke:#000000;stroke-width:3;stroke-linecap:butt;stroke-linejoin:miter;stroke-miterlimit:4;stroke-dasharray:none;stroke-opacity:1" />
      <path
         d="m 245.0049,531.44282 c -16.9401,15.91451 -34.7283,30.83215 -52.8571,45.35715 -2.12099,2.13441 50.7142,-49.28572 50.7142,-49.28572 0,0 182.5166,129.60522 277.942,155.44206 -25.8275,8.48884 -52.1298,15.65835 -79.3706,17.41509 -82.0985,-8.75712 -181.6922,-77.94178 -250.7142,-122.14286 11.4714,-7.73994 54.2857,-46.78572 54.2857,-46.78572 z"
         id="path2422"
         style="fill:#ffff00;fill-opacity:1;fill-rule:evenodd;stroke:#000000;stroke-width:3;stroke-linecap:butt;stroke-linejoin:miter;stroke-miterlimit:4;stroke-dasharray:none;stroke-opacity:1" />
      <path
         d="m 804.7892,1857.1563 c 0,0 -7.92428,19.4813 -9.5965,28.2843 -1.75527,9.2402 -2.62034,30.6516 -2.62034,30.6516 0,0 -26.45735,-8.3051 -36.77556,-14.9942 -6.65533,-4.3145 -16.3483,-10.779 -19.1929,-18.1828 -2.07146,-5.3915 -0.6808,-13.8509 1.5152,-19.1929 3.39314,-8.2542 11.84621,-17.6617 19.1929,-22.7284 5.17286,-3.5675 18.44747,-8.4227 18.44747,-8.4227 0,0 8.27149,12.0393 12.36213,15.4938 4.3516,3.6749 16.6676,9.0913 16.6676,9.0913 z"
         id="path3985"
         style="fill:#ffff00;fill-opacity:1;fill-rule:evenodd;stroke:#000000;stroke-width:3;stroke-linecap:butt;stroke-linejoin:miter;stroke-miterlimit:4;stroke-dasharray:none;stroke-opacity:1" />
    </g>
    <g
       id="tails-1"
       transform="matrix(0.51896314,0,0,0.76814785,707.15835,1002.5532)"
       style="fill:#0000ff">
      <path
         d="m -2063.6585,-495.43947 c -14.299,36.07929 -8.681,36.00977 -3.5678,46.80054 l -11.0471,-10.22669 -9.6555,5.47515 -1.8155,-8.10789 -18.8872,3.35633 c 14.862,-6.22332 19.1493,-3.86324 44.9731,-37.29744 z"
         id="path9074"
         style="fill:#0000ff;fill-opacity:1;fill-rule:nonzero;stroke:none;stroke-width:4.83005;stroke-linecap:round;stroke-linejoin:round;stroke-miterlimit:4;stroke-opacity:1" />
      <path
         d="m -1785.9304,-411.73336 c -25.8238,33.43413 -19.4039,24.34095 -34.3205,30.53462 l 8.4933,-1.09633 7.1916,0.0846 6.3811,-0.80325 6.0653,-0.18572 c 12.4459,-2.64091 -8.1099,7.54527 6.1892,-28.53395 z"
         id="path9076"
         style="fill:#0000ff;fill-opacity:1;fill-rule:nonzero;stroke:none;stroke-width:4.83005;stroke-linecap:round;stroke-linejoin:round;stroke-miterlimit:4;stroke-opacity:1" />
      <path
         d="m 78.474028,-501.33063 c 14.299081,36.07928 8.68102,36.00977 3.5678,46.80053 l 11.047161,-10.22669 9.655511,5.47516 1.81548,-8.10789 18.88724,3.35633 c -14.86208,-6.22332 -19.14939,-3.86324 -44.973192,-37.29744 z"
         id="path9082"
         style="fill:#0000ff;fill-opacity:1;fill-rule:nonzero;stroke:none;stroke-width:4.83005;stroke-linecap:round;stroke-linejoin:round;stroke-miterlimit:4;stroke-opacity:1" />
      <path
         d="m -183.62675,-414.29573 c 25.82378,33.43414 19.40392,24.34095 34.32049,30.53463 l -8.49327,-1.09633 -7.19162,0.0846 -6.38106,-0.80325 -6.06537,-0.18573 c -12.44587,-2.6409 8.10989,7.54527 -6.18917,-28.53395 z"
         id="path9084"
         style="fill:#0000ff;fill-opacity:1;fill-rule:nonzero;stroke:none;stroke-width:4.83005;stroke-linecap:round;stroke-linejoin:round;stroke-miterlimit:4;stroke-opacity:1" />
      <path
         d="m 779.05785,-579.97694 c 14.2991,36.07922 8.68132,36.00977 3.56798,46.80058 l 11.047,-10.22678 9.65573,5.47523 1.81522,-8.10797 18.88731,3.35642 c -14.86213,-6.22328 -19.14947,-3.86333 -44.97324,-37.29748 z"
         id="path9094"
         style="fill:#0000ff;fill-opacity:1;fill-rule:nonzero;stroke:none;stroke-width:4.83005;stroke-linecap:round;stroke-linejoin:round;stroke-miterlimit:4;stroke-opacity:1" />
      <path
         d="m 429.96334,-561.44737 c 14.29904,36.07922 8.68104,36.00978 3.56782,46.80057 l 11.04712,-10.22677 9.65557,5.47523 1.8154,-8.10798 18.88728,3.35643 c -14.86203,-6.2233 -19.14943,-3.86335 -44.97319,-37.29748 z"
         id="path9096"
         style="fill:#0000ff;fill-opacity:1;fill-rule:nonzero;stroke:none;stroke-width:4.83005;stroke-linecap:round;stroke-linejoin:round;stroke-miterlimit:4;stroke-opacity:1" />
      <path
         d="m 576.09533,-656.85447 c 1.6272,13.06614 -0.94956,17.7911 -6.06278,28.58189 l 11.04712,-10.22678 9.65558,5.47523 1.81539,-8.10798 18.88728,3.35643 c -16.88953,-6.54292 -20.67005,-9.93624 -35.34259,-19.07879 z"
         id="path9098"
         style="fill:#0000ff;fill-opacity:1;fill-rule:nonzero;stroke:none;stroke-width:4.83005;stroke-linecap:round;stroke-linejoin:round;stroke-miterlimit:4;stroke-opacity:1" />
      <path
         d="m -2776.6957,-581.05645 c -14.2991,36.07922 -8.6813,36.00978 -3.568,46.80058 l -11.047,-10.22678 -9.6557,5.47523 -1.8152,-8.10796 -18.8873,3.35642 c 14.8621,-6.22329 19.1495,-3.86334 44.9732,-37.29749 z"
         id="path9100"
         style="fill:#0000ff;fill-opacity:1;fill-rule:nonzero;stroke:none;stroke-width:4.83005;stroke-linecap:round;stroke-linejoin:round;stroke-miterlimit:4;stroke-opacity:1" />
      <path
         d="m -2404.1604,-562.52688 c -14.299,36.07922 -8.681,36.00979 -3.5678,46.80058 l -11.0471,-10.22678 -9.6556,5.47523 -1.8154,-8.10798 -18.8873,3.35643 c 14.8621,-6.22329 19.1495,-3.86334 44.9732,-37.29748 z"
         id="path9102"
         style="fill:#0000ff;fill-opacity:1;fill-rule:nonzero;stroke:none;stroke-width:4.83005;stroke-linecap:round;stroke-linejoin:round;stroke-miterlimit:4;stroke-opacity:1" />
      <path
         d="m -2550.2923,-657.93398 c -1.6273,13.06615 0.9495,17.7911 6.0627,28.58189 l -11.0471,-10.22678 -9.6556,5.47524 -1.8154,-8.10798 -18.8872,3.35643 c 16.8895,-6.54293 20.67,-9.93624 35.3426,-19.0788 z"
         id="path9104"
         style="fill:#0000ff;fill-opacity:1;fill-rule:nonzero;stroke:none;stroke-width:4.83005;stroke-linecap:round;stroke-linejoin:round;stroke-miterlimit:4;stroke-opacity:1" />
      <path
         d="m -2202.4721,951.03013 c -8.1755,36.82974 -13.3431,35.43834 -24.4944,44.23547 l 16.318,-6.8726 5.6999,7.35741 6.4999,-7.08879 15.518,7.57373 c -10.0828,-9.28092 -15.46,-8.10559 -19.5414,-45.20522 z"
         id="path9118"
         style="fill:#0000ff;fill-opacity:1;fill-rule:nonzero;stroke:none;stroke-width:4.83005;stroke-linecap:round;stroke-linejoin:round;stroke-miterlimit:4;stroke-opacity:1" />
      <path
         d="m -2111.3586,709.55509 c -13.2348,36.24035 -18.1905,34.57024 -30.5152,42.72096 l 17.2058,-5.94964 4.6613,7.64277 7.4549,-6.70461 14.4122,8.39773 c -8.7617,-9.79974 -14.2808,-8.92434 -13.219,-46.10721 z"
         id="path9120"
         style="fill:#0000ff;fill-opacity:1;fill-rule:nonzero;stroke:none;stroke-width:4.83005;stroke-linecap:round;stroke-linejoin:round;stroke-miterlimit:4;stroke-opacity:1" />
      <path
         d="m -2601.7706,484.02556 c -14.2357,36.08911 -19.1445,34.36479 -31.6929,42.37871 l 17.3679,-5.75941 4.449,7.69289 7.6393,-6.6215 14.1776,8.55498 c -8.4891,-9.89473 -14.0316,-9.08019 -11.9409,-46.24567 z"
         id="path9122"
         style="fill:#0000ff;fill-opacity:1;fill-rule:nonzero;stroke:none;stroke-width:4.83005;stroke-linecap:round;stroke-linejoin:round;stroke-miterlimit:4;stroke-opacity:1" />
      <path
         d="m -2699.5384,715.00727 c -10.2089,36.62748 -15.2964,35.1232 -26.9278,43.66961 l 16.6885,-6.50937 5.2892,7.47848 6.8882,-6.94151 15.0895,7.91062 c -9.563,-9.49712 -15.002,-8.44094 -17.0276,-45.60783 z"
         id="path9124"
         style="fill:#0000ff;fill-opacity:1;fill-rule:nonzero;stroke:none;stroke-width:4.83005;stroke-linecap:round;stroke-linejoin:round;stroke-miterlimit:4;stroke-opacity:1" />
      <path
         d="m -2906.3122,202.68562 c -28.6202,32.51607 -23.1652,33.36589 -22.6552,44.6235 l -6.4733,-11.68118 -2.868,-5.82205 -2.5495,-0.90454 -5.4172,-2.72999 c 16.91,-3.58557 1.2966,4.59443 39.9632,-23.48574 z"
         id="path9126"
         style="fill:#0000ff;fill-opacity:1;fill-rule:nonzero;stroke:none;stroke-width:4.83005;stroke-linecap:round;stroke-linejoin:round;stroke-miterlimit:4;stroke-opacity:1" />
      <path
         d="m -1977.4674,240.71268 c -13.2348,36.24035 -18.1905,34.57024 -30.5153,42.72109 l 17.2059,-5.94952 4.6613,7.64264 7.4548,-6.70447 14.4123,8.39747 c -8.7617,-9.79974 -14.2808,-8.92435 -13.219,-46.10721 z"
         id="path9130"
         style="fill:#0000ff;fill-opacity:1;fill-rule:nonzero;stroke:none;stroke-width:4.83005;stroke-linecap:round;stroke-linejoin:round;stroke-miterlimit:4;stroke-opacity:1" />
      <path
         d="m -1885.9964,-238.2707 c -10.2088,36.62742 -15.2964,35.12313 -26.9278,43.66956 l 16.6885,-6.50917 5.2892,7.47826 6.8882,-6.94129 15.0895,7.91039 c -9.563,-9.49713 -15.002,-8.44084 -17.0276,-45.60775 z"
         id="path9132"
         style="fill:#0000ff;fill-opacity:1;fill-rule:nonzero;stroke:none;stroke-width:4.83005;stroke-linecap:round;stroke-linejoin:round;stroke-miterlimit:4;stroke-opacity:1" />
      <path
         d="m -2532.2781,229.60312 c -14.2358,36.0891 -19.1445,34.36478 -31.693,42.3787 l 17.368,-5.7594 4.449,7.69289 7.6393,-6.62151 14.1776,8.55499 c -8.4891,-9.89473 -14.0317,-9.08019 -11.9409,-46.24567 z"
         id="path9134"
         style="fill:#0000ff;fill-opacity:1;fill-rule:nonzero;stroke:none;stroke-width:4.83005;stroke-linecap:round;stroke-linejoin:round;stroke-miterlimit:4;stroke-opacity:1" />
      <path
         d="m -2428.02,-61.859876 c -19.1697,30.061838 -9.2416,17.450392 -20.906,26.378595 l 1.5741,9.314158 3.3689,7.90806 8.5254,-6.176454 12.9412,9.301629 c -7.0892,-10.323665 -12.7232,-9.816738 -5.5036,-46.725988 z"
         id="path9136"
         style="fill:#0000ff;fill-opacity:1;fill-rule:nonzero;stroke:none;stroke-width:4.83005;stroke-linecap:round;stroke-linejoin:round;stroke-miterlimit:4;stroke-opacity:1" />
      <path
         d="m -2372.2823,-268.77252 c -14.2358,36.0891 -19.1445,34.36478 -31.693,42.3787 l 17.3679,-5.7594 4.449,7.69289 7.6394,-6.6215 14.1776,8.55498 c -8.4892,-9.89473 -14.0317,-9.08019 -11.9409,-46.24567 z"
         id="path9138"
         style="fill:#0000ff;fill-opacity:1;fill-rule:nonzero;stroke:none;stroke-width:4.83005;stroke-linecap:round;stroke-linejoin:round;stroke-miterlimit:4;stroke-opacity:1" />
      <path
         d="m 226.28108,948.40472 c 8.1755,36.82974 13.34316,35.43834 24.49447,44.23547 l -16.31806,-6.8726 -5.69987,7.35741 -6.49986,-7.08879 -15.51807,7.57373 c 10.08283,-9.28092 15.45999,-8.10559 19.54139,-45.20522 z"
         id="path9145"
         style="fill:#0000ff;fill-opacity:1;fill-rule:nonzero;stroke:none;stroke-width:4.83005;stroke-linecap:round;stroke-linejoin:round;stroke-miterlimit:4;stroke-opacity:1" />
      <path
         d="m 135.16762,706.92969 c 13.23479,36.24034 18.19047,34.57023 30.51523,42.72095 L 148.477,743.701 l -4.66129,7.64277 -7.45489,-6.70461 -14.41221,8.39773 c 8.76169,-9.79973 14.28083,-8.92434 13.21901,-46.1072 z"
         id="path9147"
         style="fill:#0000ff;fill-opacity:1;fill-rule:nonzero;stroke:none;stroke-width:4.83005;stroke-linecap:round;stroke-linejoin:round;stroke-miterlimit:4;stroke-opacity:1" />
      <path
         d="m 723.3474,712.38187 c 10.20883,36.62748 15.29642,35.12319 26.92775,43.6696 l -16.6885,-6.50937 -5.28913,7.47848 -6.8882,-6.94151 -15.08942,7.91062 c 9.56288,-9.49711 15.00183,-8.44094 17.0275,-45.60782 z"
         id="path9151"
         style="fill:#0000ff;fill-opacity:1;fill-rule:nonzero;stroke:none;stroke-width:4.83005;stroke-linecap:round;stroke-linejoin:round;stroke-miterlimit:4;stroke-opacity:1" />
      <path
         d="m 930.1211,200.06021 c 28.6203,32.51607 23.16533,33.36589 22.65521,44.62351 l 6.47338,-11.68119 2.86789,-5.82205 2.54957,-0.90454 5.41726,-2.72999 c -16.9101,-3.58556 -1.29678,4.59443 -39.96331,-23.48574 z"
         id="path9153"
         style="fill:#0000ff;fill-opacity:1;fill-rule:nonzero;stroke:none;stroke-width:4.83005;stroke-linecap:round;stroke-linejoin:round;stroke-miterlimit:4;stroke-opacity:1" />
      <path
         d="m 18.969626,238.08702 c 13.235477,36.24035 18.19067,34.57024 30.515802,42.72108 l -17.205308,-5.94951 -4.663235,7.64264 -7.453065,-6.70448 -14.4134498,8.39747 c 8.7628258,-9.79973 14.2816628,-8.92434 13.2192558,-46.1072 z"
         id="path9155"
         style="fill:#0000ff;fill-opacity:1;fill-rule:nonzero;stroke:none;stroke-width:4.83005;stroke-linecap:round;stroke-linejoin:round;stroke-miterlimit:4;stroke-opacity:1" />
      <path
         d="m -37.479132,-240.89596 c 10.208854,36.62741 15.296362,35.12312 26.927767,43.66955 l -16.68848,-6.50917 -5.289203,7.47827 -6.888206,-6.9413 -15.089477,7.91039 c 9.563037,-9.49713 15.001971,-8.44084 17.027599,-45.60774 z"
         id="path9157"
         style="fill:#0000ff;fill-opacity:1;fill-rule:nonzero;stroke:none;stroke-width:4.83005;stroke-linecap:round;stroke-linejoin:round;stroke-miterlimit:4;stroke-opacity:1" />
      <path
         d="m 556.08711,226.97771 c 14.23578,36.0891 19.1445,34.36479 31.69296,42.37871 l -17.36791,-5.75941 -4.44901,7.69289 -7.63933,-6.6215 -14.17761,8.55498 c 8.48913,-9.89473 14.03167,-9.08019 11.9409,-46.24567 z"
         id="path9159"
         style="fill:#0000ff;fill-opacity:1;fill-rule:nonzero;stroke:none;stroke-width:4.83005;stroke-linecap:round;stroke-linejoin:round;stroke-miterlimit:4;stroke-opacity:1" />
      <path
         d="m 396.09135,-271.39793 c 14.23578,36.0891 19.1445,34.36479 31.69296,42.37871 l -17.36791,-5.75941 -4.44901,7.69289 -7.63933,-6.6215 -14.17761,8.55498 c 8.48913,-9.89473 14.03167,-9.08019 11.9409,-46.24567 z"
         id="path9163"
         style="fill:#0000ff;fill-opacity:1;fill-rule:nonzero;stroke:none;stroke-width:4.83005;stroke-linecap:round;stroke-linejoin:round;stroke-miterlimit:4;stroke-opacity:1" />
      <path
         d="m -1923.8038,-6.919627 c -14.2358,36.089102 -19.1445,34.364784 -31.693,42.378703 l 17.3679,-5.759405 4.449,7.692887 7.6394,-6.621501 14.1776,8.554983 c -8.4892,-9.894727 -14.0317,-9.080192 -11.9409,-46.245667 z"
         id="path9170"
         style="fill:#0000ff;fill-opacity:1;fill-rule:nonzero;stroke:none;stroke-width:4.83005;stroke-linecap:round;stroke-linejoin:round;stroke-miterlimit:4;stroke-opacity:1" />
      <path
         d="m -23.025842,-29.143608 c -2.025689,37.1668812 -7.395647,36.1238776 -17.027619,45.607693 l 15.089457,-7.9103604 6.888206,6.9413824 5.289202,-7.478482 16.6884802,6.509376 C -7.6642351,5.960279 -12.816988,7.4838723 -23.025842,-29.143608 Z"
         id="path9172"
         style="fill:#0000ff;fill-opacity:1;fill-rule:nonzero;stroke:none;stroke-width:4.83005;stroke-linecap:round;stroke-linejoin:round;stroke-miterlimit:4;stroke-opacity:1" />
      <path
         d="m 79.5952,464.62635 c 14.23578,36.0891 19.1445,34.36479 31.69296,42.37871 l -17.36791,-5.75941 -4.44901,7.69289 -7.63933,-6.6215 -14.17761,8.55498 c 8.48913,-9.89473 14.03167,-9.08019 11.9409,-46.24567 z"
         id="path2336"
         style="fill:#0000ff;fill-opacity:1;fill-rule:nonzero;stroke:none;stroke-width:4.83005;stroke-linecap:round;stroke-linejoin:round;stroke-miterlimit:4;stroke-opacity:1" />
      <path
         d="m -2038.3042,473.65244 c -13.2348,36.24035 -18.1905,34.57024 -30.5153,42.72109 l 17.2059,-5.94952 4.6613,7.64264 7.4548,-6.70447 14.4123,8.39747 c -8.7617,-9.79974 -14.2808,-8.92435 -13.219,-46.10721 z"
         id="path2420"
         style="fill:#0000ff;fill-opacity:1;fill-rule:nonzero;stroke:none;stroke-width:4.83005;stroke-linecap:round;stroke-linejoin:round;stroke-miterlimit:4;stroke-opacity:1" />
      <path
         d="m -1695.4575,1061.3508 c -8.1755,36.8297 -13.3431,35.4383 -24.4944,44.2354 l 16.318,-6.8726 5.6999,7.3574 6.4999,-7.0887 15.518,7.5737 c -10.0828,-9.2809 -15.46,-8.1056 -19.5414,-45.2052 z"
         id="path2423"
         style="fill:#0000ff;fill-opacity:1;fill-rule:nonzero;stroke:none;stroke-width:4.83005;stroke-linecap:round;stroke-linejoin:round;stroke-miterlimit:4;stroke-opacity:1" />
      <path
         d="m -1604.344,819.87572 c -13.2348,36.24035 -18.1905,34.57024 -30.5152,42.72096 l 17.2058,-5.94964 4.6613,7.64277 7.4549,-6.70461 14.4122,8.39773 c -8.7617,-9.79974 -14.2808,-8.92434 -13.219,-46.10721 z"
         id="path2425"
         style="fill:#0000ff;fill-opacity:1;fill-rule:nonzero;stroke:none;stroke-width:4.83005;stroke-linecap:round;stroke-linejoin:round;stroke-miterlimit:4;stroke-opacity:1" />
      <path
         d="m -1470.4528,351.03331 c -13.2348,36.24035 -18.1905,34.57024 -30.5153,42.72109 l 17.2059,-5.94952 4.6613,7.64264 7.4548,-6.70447 14.4123,8.39747 c -8.7617,-9.79974 -14.2808,-8.92435 -13.219,-46.10721 z"
         id="path2427"
         style="fill:#0000ff;fill-opacity:1;fill-rule:nonzero;stroke:none;stroke-width:4.83005;stroke-linecap:round;stroke-linejoin:round;stroke-miterlimit:4;stroke-opacity:1" />
      <path
         d="m -1378.9818,-127.95007 c -10.2088,36.627423 -15.2964,35.123133 -26.9278,43.669563 l 16.6885,-6.50917 5.2892,7.47826 6.8882,-6.94129 15.0895,7.91039 c -9.563,-9.49713 -15.002,-8.44084 -17.0276,-45.607753 z"
         id="path2429"
         style="fill:#0000ff;fill-opacity:1;fill-rule:nonzero;stroke:none;stroke-width:4.83005;stroke-linecap:round;stroke-linejoin:round;stroke-miterlimit:4;stroke-opacity:1" />
      <path
         d="m -1416.7892,103.40101 c -14.2358,36.0891 -19.1445,34.36478 -31.693,42.3787 l 17.3679,-5.75941 4.449,7.69289 7.6394,-6.6215 14.1776,8.55498 c -8.4892,-9.89472 -14.0317,-9.08019 -11.9409,-46.24566 z"
         id="path2431"
         style="fill:#0000ff;fill-opacity:1;fill-rule:nonzero;stroke:none;stroke-width:4.83005;stroke-linecap:round;stroke-linejoin:round;stroke-miterlimit:4;stroke-opacity:1" />
      <path
         d="m -1531.2896,583.97307 c -13.2348,36.24035 -18.1905,34.57024 -30.5153,42.72109 l 17.2059,-5.94952 4.6613,7.64264 7.4548,-6.70447 14.4123,8.39747 c -8.7617,-9.79974 -14.2808,-8.92435 -13.219,-46.10721 z"
         id="path2433"
         style="fill:#0000ff;fill-opacity:1;fill-rule:nonzero;stroke:none;stroke-width:4.83005;stroke-linecap:round;stroke-linejoin:round;stroke-miterlimit:4;stroke-opacity:1" />
      <path
         d="m -254.93597,1047.1538 c 8.1755,36.8298 13.34316,35.4384 24.49447,44.2355 l -16.31806,-6.8726 -5.69987,7.3574 -6.49986,-7.0888 -15.51807,7.5737 c 10.08283,-9.2809 15.45999,-8.1056 19.54139,-45.2052 z"
         id="path2435"
         style="fill:#0000ff;fill-opacity:1;fill-rule:nonzero;stroke:none;stroke-width:4.83005;stroke-linecap:round;stroke-linejoin:round;stroke-miterlimit:4;stroke-opacity:1" />
      <path
         d="m -346.04943,805.67878 c 13.23479,36.24034 18.19047,34.57023 30.51523,42.72095 l -17.20585,-5.94964 -4.66129,7.64277 -7.45489,-6.70461 -14.41221,8.39773 c 8.76169,-9.79973 14.28083,-8.92434 13.21901,-46.1072 z"
         id="path2437"
         style="fill:#0000ff;fill-opacity:1;fill-rule:nonzero;stroke:none;stroke-width:4.83005;stroke-linecap:round;stroke-linejoin:round;stroke-miterlimit:4;stroke-opacity:1" />
      <path
         d="m -462.24742,336.83611 c 13.23547,36.24035 18.19067,34.57024 30.5158,42.72108 l -17.20531,-5.94951 -4.66324,7.64264 -7.45306,-6.70448 -14.41345,8.39747 c 8.76283,-9.79973 14.28166,-8.92434 13.21926,-46.1072 z"
         id="path2439"
         style="fill:#0000ff;fill-opacity:1;fill-rule:nonzero;stroke:none;stroke-width:4.83005;stroke-linecap:round;stroke-linejoin:round;stroke-miterlimit:4;stroke-opacity:1" />
      <path
         d="m -518.69618,-142.14687 c 10.20885,36.62741 15.29636,35.12312 26.92776,43.669551 l -16.68848,-6.509171 -5.2892,7.478271 -6.8882,-6.941301 -15.08948,7.910391 c 9.56304,-9.497131 15.00197,-8.440841 17.0276,-45.607741 z"
         id="path2441"
         style="fill:#0000ff;fill-opacity:1;fill-rule:nonzero;stroke:none;stroke-width:4.83005;stroke-linecap:round;stroke-linejoin:round;stroke-miterlimit:4;stroke-opacity:1" />
      <path
         d="m -504.24289,69.605483 c -2.02569,37.166877 -7.39565,36.123877 -17.02762,45.607697 l 15.08946,-7.91036 6.8882,6.94138 5.2892,-7.47848 16.68848,6.50937 c -11.56612,-8.56572 -16.71887,-7.04213 -26.92772,-43.669607 z"
         id="path2443"
         style="fill:#0000ff;fill-opacity:1;fill-rule:nonzero;stroke:none;stroke-width:4.83005;stroke-linecap:round;stroke-linejoin:round;stroke-miterlimit:4;stroke-opacity:1" />
      <path
         d="m -401.62185,563.37544 c 14.23578,36.0891 19.1445,34.36479 31.69296,42.37871 l -17.36791,-5.75941 -4.44901,7.69289 -7.63933,-6.6215 -14.17761,8.55498 c 8.48913,-9.89473 14.03167,-9.08019 11.9409,-46.24567 z"
         id="path2446"
         style="fill:#0000ff;fill-opacity:1;fill-rule:nonzero;stroke:none;stroke-width:4.83005;stroke-linecap:round;stroke-linejoin:round;stroke-miterlimit:4;stroke-opacity:1" />
      <path
         d="m -997.44165,-220.6916 c 10.20883,36.62748 15.29642,35.12319 26.92775,43.6696 l -16.6885,-6.50937 -5.28913,7.47848 -6.8882,-6.94151 -15.08947,7.91062 c 9.5629,-9.49711 15.00188,-8.44094 17.02755,-45.60782 z"
         id="path2448"
         style="fill:#0000ff;fill-opacity:1;fill-rule:nonzero;stroke:none;stroke-width:4.83005;stroke-linecap:round;stroke-linejoin:round;stroke-miterlimit:4;stroke-opacity:1" />
      <path
         d="m -997.44165,12.324186 c 10.20883,36.627479 15.29642,35.123189 26.92775,43.669599 l -16.6885,-6.50937 -5.28913,7.47848 -6.8882,-6.94151 -15.08947,7.91062 c 9.5629,-9.49711 15.00188,-8.44094 17.02755,-45.607819 z"
         id="path2450"
         style="fill:#0000ff;fill-opacity:1;fill-rule:nonzero;stroke:none;stroke-width:4.83005;stroke-linecap:round;stroke-linejoin:round;stroke-miterlimit:4;stroke-opacity:1" />
      <path
         d="m -997.44165,278.62794 c 10.20883,36.62748 15.29642,35.12319 26.92775,43.6696 l -16.6885,-6.50937 -5.28913,7.47848 -6.8882,-6.94151 -15.08947,7.91062 c 9.5629,-9.49711 15.00188,-8.44094 17.02755,-45.60782 z"
         id="path2452"
         style="fill:#0000ff;fill-opacity:1;fill-rule:nonzero;stroke:none;stroke-width:4.83005;stroke-linecap:round;stroke-linejoin:round;stroke-miterlimit:4;stroke-opacity:1" />
      <path
         d="m -997.44165,544.9317 c 10.20883,36.62748 15.29642,35.12319 26.92775,43.6696 l -16.6885,-6.50937 -5.28913,7.47848 -6.8882,-6.94151 -15.08947,7.91062 c 9.5629,-9.49711 15.00188,-8.44094 17.02755,-45.60782 z"
         id="path2454"
         style="fill:#0000ff;fill-opacity:1;fill-rule:nonzero;stroke:none;stroke-width:4.83005;stroke-linecap:round;stroke-linejoin:round;stroke-miterlimit:4;stroke-opacity:1" />
      <path
         d="m -997.44165,811.23546 c 10.20883,36.62748 15.29642,35.12319 26.92775,43.6696 l -16.6885,-6.50937 -5.28913,7.47848 -6.8882,-6.94151 -15.08947,7.91062 c 9.5629,-9.49711 15.00188,-8.44094 17.02755,-45.60782 z"
         id="path2456"
         style="fill:#0000ff;fill-opacity:1;fill-rule:nonzero;stroke:none;stroke-width:4.83005;stroke-linecap:round;stroke-linejoin:round;stroke-miterlimit:4;stroke-opacity:1" />
      <path
         d="m -997.44165,1110.8273 c 10.20883,36.6275 15.29642,35.1232 26.92775,43.6696 l -16.6885,-6.5094 -5.28913,7.4785 -6.8882,-6.9415 -15.08947,7.9106 c 9.5629,-9.4971 15.00188,-8.4409 17.02755,-45.6078 z"
         id="path2458"
         style="fill:#0000ff;fill-opacity:1;fill-rule:nonzero;stroke:none;stroke-width:4.83005;stroke-linecap:round;stroke-linejoin:round;stroke-miterlimit:4;stroke-opacity:1" />
    </g>
    <g
       id="dexter2">
      <path
         d="m -507.74943,690.3957 c 0,0 -6.5225,48.17844 -9.8214,68.75 -2.0333,12.67951 -4.2156,29.72846 -7.5,42.14286 -2.4572,9.28769 -5.125,22.36455 -10.7143,30.17857 -8.4305,11.78612 -25.0432,23.23352 -37.85721,30 -14.8337,7.83295 -36.7397,14.5905 -53.39279,16.60714 -10.5496,1.27752 -25.0915,0.60314 -35.3572,-2.14285 -16.1315,-4.31504 -49.8214,-24.82143 -49.8214,-24.82143 l 10.1786,-6.96429 c 0,0 26.7355,12.73401 39.1071,14.82143 15.1138,2.5501 36.2048,2.30118 51.07149,-1.42857 11.3865,-2.85664 25.1184,-11.16229 35,-17.5 6.4791,-4.15545 15.23511,-10.02645 20.00001,-16.07143 10.5624,-13.39993 19.9343,-34.93045 24.2857,-51.42857 4.7677,-18.07665 4.6428,-62.14286 4.6428,-62.14286 z"
         id="path4034"
         style="fill:#ffff00;fill-opacity:1;fill-rule:evenodd;stroke:#000000;stroke-width:3;stroke-linecap:butt;stroke-linejoin:miter;stroke-miterlimit:4;stroke-dasharray:none;stroke-opacity:1" />
      <path
         d="m -663.82083,757.35999 c -0.6145,-1.71128 -2.7773,-3.2704 -4.2857,-4.28572 -2.1708,-1.46123 -5.4619,-2.92117 -8.0358,-3.39286 -2.8474,-0.52181 -6.7944,-0.15936 -9.6428,0.35715 -2.167,0.39295 -5.0534,1.2266 -6.9643,2.32143 -1.9765,1.13241 -4.6395,2.99164 -5.7143,5 -0.9688,1.81031 -1.0795,4.74095 -0.8928,6.78571 0.174,1.90645 1.0876,4.36952 1.9642,6.07143 0.9468,1.83839 2.351,4.44401 4.1072,5.53571 2.5434,1.58101 6.8286,1.67914 9.8214,1.78572 2.962,0.10548 7.18,0.27305 9.8214,-1.07143 3.5487,-1.8063 7.3164,-6.18041 8.9286,-9.82143 1.1331,-2.55893 1.8387,-6.65183 0.8929,-9.28571 z"
         id="path4036"
         style="fill:#ffff00;fill-opacity:1;fill-rule:evenodd;stroke:#000000;stroke-width:3;stroke-linecap:butt;stroke-linejoin:miter;stroke-miterlimit:4;stroke-dasharray:none;stroke-opacity:1" />
      <path
         d="m -675.42803,777.00284 4.4643,78.75 -11.0714,-4.10714 -1.9643,-73.75 z"
         id="path4038"
         style="fill:#ffff00;fill-opacity:1;fill-rule:evenodd;stroke:#000000;stroke-width:3;stroke-linecap:butt;stroke-linejoin:miter;stroke-miterlimit:4;stroke-dasharray:none;stroke-opacity:1" />
      <path
         d="m -688.64233,776.6457 c 0,0 -6.8457,11.34896 -8.2142,16.78571 -1.374,5.45881 -0.7076,13.12093 -0.7143,18.75001 -0.007,6.00382 0.7143,20 0.7143,20 0,0 -2.8293,-4.51 -4.4643,-6.07143 -0.9778,-0.93382 -3.75,-2.5 -3.75,-2.5 0,0 -0.1409,-18.65211 0.5357,-26.60715 0.3352,-3.94064 0.6059,-9.32144 1.9643,-13.03571 1.4043,-3.83992 7.1428,-11.60714 7.1428,-11.60714 0,0 1.0847,2.40096 1.9643,3.03571 1.2117,0.87438 4.8214,1.25 4.8214,1.25 z"
         id="path4040"
         style="fill:#ffff00;fill-opacity:1;fill-rule:evenodd;stroke:#000000;stroke-width:3;stroke-linecap:butt;stroke-linejoin:miter;stroke-miterlimit:4;stroke-dasharray:none;stroke-opacity:1" />
      <path
         d="m -705.24943,823.60999 3.5714,2.32143 5.1786,6.78571 -0.8929,6.25 -1.7857,3.75 -2.8571,2.32143 -10.3572,5.35714 -6.25,-2.85714 c 0,0 -2.3214,-6.07143 -2.6785,-6.78572 -0.3572,-0.71428 0.8928,-8.75 0.8928,-8.75 l 5.7143,-6.07142 3.9286,-2.67858 z"
         id="path4042"
         style="fill:#ffff00;fill-opacity:1;fill-rule:evenodd;stroke:#000000;stroke-width:3;stroke-linecap:butt;stroke-linejoin:miter;stroke-miterlimit:4;stroke-dasharray:none;stroke-opacity:1" />
      <path
         d="m -692.21373,862.35999 c 0,0 1.8372,4.68936 2.3214,6.78571 0.5832,2.52497 1.09,5.98005 1.0715,8.57143 -0.0166,2.32583 -0.3558,5.46552 -1.0715,7.67857 -0.6341,1.96094 -1.662,4.71563 -3.2142,6.07143 -2.1062,1.83972 -5.9597,3.02793 -8.75,3.21429 -2.9569,0.19748 -7.0034,-0.79561 -9.6429,-2.14286 -2.8055,-1.43197 -6.2056,-4.28216 -7.8571,-6.96429 -1.5397,-2.50065 -2.5626,-6.52828 -2.5,-9.46428 0.0694,-3.25259 0.9378,-8.03286 3.2142,-10.35715 1.8966,-1.93651 5.9,-2.39866 8.5715,-2.85714 2.9044,-0.49846 6.8759,-0.0864 9.8214,-0.17857 2.4119,-0.0755 8.0357,-0.35714 8.0357,-0.35714 z"
         id="path4044"
         style="fill:#ffff00;fill-opacity:1;fill-rule:evenodd;stroke:#000000;stroke-width:3;stroke-linecap:butt;stroke-linejoin:miter;stroke-miterlimit:4;stroke-dasharray:none;stroke-opacity:1" />
      <path
         d="m -711.85653,892.35999 c 1.9868,1.22458 5.4478,2.08153 6.6071,4.10714 1.0647,1.86039 -0.7872,5.22922 0.1786,7.14286 1.9264,3.81711 9.0672,5.07351 11.25,8.75 1.3579,2.28703 1.7943,6.11553 1.4285,8.75 -0.3824,2.75361 -1.4663,7.102 -3.9285,8.39285 -7.4101,3.88494 -19.5937,-1.90556 -27.5,-4.64285 -5.0745,-1.75686 -19.1607,-8.5454 -22.7143,-12.57143 -2.3238,-2.63281 -6.4416,-6.88463 -6.2857,-10.39286 0.1542,-3.47046 3.4191,-9.15528 6.6785,-10.35714 3.1028,-1.14412 13.6474,4.11463 15.8929,2.96428 1.7277,-0.88507 2.4123,-4.0535 4.1071,-5 2.077,-1.15997 5.5288,-1.55922 7.8572,-1.07142 2.2122,0.46344 4.5045,2.74266 6.4286,3.92857 z"
         id="path4046"
         style="fill:#ffff00;fill-opacity:1;fill-rule:evenodd;stroke:#000000;stroke-width:3;stroke-linecap:butt;stroke-linejoin:miter;stroke-miterlimit:4;stroke-dasharray:none;stroke-opacity:1" />
      <path
         d="m -715.60653,826.6457 c 0,0 -8.0387,-12.81306 -10,-18.92857 -2.559,-7.97913 -4.8492,-19.37154 -3.75,-27.67857 0.907,-6.85511 11.4854,-14.82526 8.9285,-21.25 -0.7362,-1.8497 -4.5075,-1.44667 -6.0714,-2.67857 -2.0116,-1.58462 -2.624,-6.60758 -5.1786,-6.78572 -6.6132,-0.46116 -12.5899,9.68894 -15.7143,15.53572 -2.1342,3.99381 -3.077,10.29847 -2.8571,14.82142 0.3852,7.92356 3.0665,18.77873 7.5,25.35715 5.8167,8.63081 27.1429,21.60714 27.1429,21.60714 z"
         id="path4048"
         style="fill:#ffff00;fill-opacity:1;fill-rule:evenodd;stroke:#000000;stroke-width:3;stroke-linecap:butt;stroke-linejoin:miter;stroke-miterlimit:4;stroke-dasharray:none;stroke-opacity:1" />
      <path
         d="m -712.92803,758.60999 c -1.9115,0.33397 -4.5166,-0.38293 -6.4285,-0.71429 -2.0613,-0.35725 -5.0642,-0.41847 -6.7858,-1.60714 -1.8096,-1.24946 -3.265,-4.04001 -4.1071,-6.07143 -0.6477,-1.5626 -1.268,-3.85565 -1.0714,-5.53572 0.2118,-1.80986 1.2101,-4.24862 2.5,-5.53571 2.0369,-2.03242 5.885,-3.6617 8.75,-3.92857 2.9627,-0.27596 7.0207,0.91502 9.6428,2.32143 1.8039,0.96753 3.6849,3.07422 5,4.64286 1.2697,1.51452 3.157,3.60331 3.5715,5.53571 0.375,1.74827 0.1638,4.45049 -0.8929,5.89286 -2.0106,2.74441 -6.8273,4.41446 -10.1786,5 z"
         id="path4050"
         style="fill:#ffff00;fill-opacity:1;fill-rule:evenodd;stroke:#000000;stroke-width:3;stroke-linecap:butt;stroke-linejoin:miter;stroke-miterlimit:4;stroke-dasharray:none;stroke-opacity:1" />
      <path
         d="m -692.03513,752.00284 -9.8214,-3.92857 c 0,0 0.5822,3.823 -0.1786,5.17857 -1.2872,2.29336 -7.3214,4.82143 -7.3214,4.82143 l 9.8214,6.25 c 0,0 -0.1712,-5.26363 0.8928,-7.14286 1.2408,-2.19155 6.6072,-5.17857 6.6072,-5.17857 z"
         id="path4052"
         style="fill:#ffff00;fill-opacity:1;fill-rule:evenodd;stroke:#000000;stroke-width:3;stroke-linecap:butt;stroke-linejoin:miter;stroke-miterlimit:4;stroke-dasharray:none;stroke-opacity:1" />
      <path
         d="m -538.93126,968.42042 c 12.66942,13.9571 9.91233,43.30338 9.2858,62.14278 -0.40095,12.0563 -2.39691,28.9228 -8.5715,39.2857 -5.2109,8.7455 -16.17041,18.6 -25.71431,22.1429 -3.81691,1.4169 -13.5714,0 -13.5714,0 0,0 6.91042,-5.6187 10,-7.8571 4.37967,-3.1731 11.30149,-6.054 15.00001,-10 4.39868,-4.693 9.95955,-12.1838 10.7143,-18.5715 0.70807,-5.9927 -1.89197,-14.6163 -5.7143,-19.2857 -7.83274,-9.5685 -24.38299,-16.4908 -36.42861,-19.2857 -20.2575,-4.7002 -48.80356,-1.4547 -69.28566,2.1429 -13.5487,2.3798 -31.276,8.117 -43.5714,14.2857 -6.3234,3.1725 -16.9042,6.9096 -19.2857,13.5714 -2.6951,7.5391 2.1314,19.4702 7.1428,25.7143 9.4204,11.7376 30.6814,17.1342 44.2858,23.5714 7.5541,3.5744 25.0797,2.3813 25.7142,10.7143 0.4381,5.7531 -10.9982,8.0501 -16.4285,10 -36.8785,13.2419 -92.6879,4.5725 -129.28569,18.5714 -7.9379,3.0363 -19.4061,8.3062 -23.5715,15.7143 -2.5228,4.4867 4.237,15.7358 -0.7143,17.1429 -7.718,2.1933 -14.8245,-14.1212 -15,-22.1429 -0.2146,-9.8104 12.9294,-18.995 17.1429,-27.8571 6.14,-12.9141 5.5154,-34.9772 15.7143,-45 15.1277,-14.8666 55.77829,-3.3786 66.01459,-21.9549 0.4264,-0.7738 0.8841,-3.3272 0.8841,-3.3272 0,0 10.1191,-1.527 6.9535,-1.3907 -2.0952,-0.066 -7.0855,1.2784 -7.0855,1.2784 0,0 -4.3511,-23.1819 -2.481,-32.4628 3.0675,-15.2235 12.0819,-36.11058 24.2857,-45.71428 20.3397,-16.0063 57.689,-21.3506 83.57136,-21.4285 24.7385,-0.0745 63.37258,1.6826 80.00001,20 z"
         id="path4054"
         style="fill:#ffff00;fill-opacity:1;fill-rule:evenodd;stroke:#000000;stroke-width:3;stroke-linecap:butt;stroke-linejoin:miter;stroke-miterlimit:4;stroke-dasharray:none;stroke-opacity:1" />
      <path
         d="m -707.27873,930.1818 -1.0714,70.5 -7.0358,7.8214 -1.5357,-10.14277 -4.7857,8.78567 -2.4821,-9.80359 -5.3572,9.32139 -3.0893,-9.55353 -4.3035,8.46423 -2.1429,-9.60709 -4.5893,8.19639 -1.3571,-8.62496 -4.2143,7.64286 -1.1429,-9.92858 -5.1071,7.78568 -0.1429,-10.78568 -6.4821,6.58931 c 0,0 2.1607,-10.62502 1.4464,-9.55359 -0.7143,1.07143 -6.24999,6.07143 -6.24999,6.07143 l 1.2679,-9.16072 -7.875,5.05357 2.0893,-8.66071 -9.1429,5.35714 -0.0357,-9.39285 -8.625,4.83928 2.3214,-9.28571 40.74999,-59.14286 14.2143,8.64286 c 0,0 13.0103,5.15634 15.5357,5.82143 4.7061,1.23938 9.1429,3.46428 9.1429,2.75 z"
         id="path4056"
         style="fill:#ffff00;fill-opacity:1;fill-rule:evenodd;stroke:#000000;stroke-width:3;stroke-linecap:butt;stroke-linejoin:miter;stroke-miterlimit:4;stroke-dasharray:none;stroke-opacity:1" />
      <path
         d="m -753.91343,1377.1734 11.7857,-1.4285 c 0,0 8.9613,-6.985 11.4286,-11.0715 3.3471,-5.5436 6.4972,-14.2526 6.0714,-20.7143 -0.4699,-7.1318 -7.445,-14.9847 -9.6429,-21.7857 -1.7512,-5.4187 -4.9103,-12.962 -3.9285,-18.5714 1.0867,-6.2089 6.2783,-13.7636 11.0714,-17.8571 6.0981,-5.208 24.6429,-10.3572 24.6429,-10.3572 0,0 -11.8137,52.8157 -20.3571,74.2857 -2.0204,5.0771 -5.2433,11.7377 -8.5715,16.0715 -2.678,3.487 -6.7284,8.144 -10.7143,10 -3.2287,1.5034 -11.7857,1.4285 -11.7857,1.4285 z"
         id="path4058"
         style="fill:#ffff00;fill-opacity:1;fill-rule:evenodd;stroke:#000000;stroke-width:3;stroke-linecap:butt;stroke-linejoin:miter;stroke-miterlimit:4;stroke-dasharray:none;stroke-opacity:1" />
      <path
         d="m -751.59203,1388.4234 c 0,0 1.9643,15.8929 1.9643,16.7857 0,0.8929 -0.006,11.9362 -1.4286,16.7858 -2.1316,7.2663 -9.213,15.1993 -11.7857,22.3214 -1.76699,4.8915 -3.57139,16.9643 -3.57139,16.9643 0,0 19.19499,-16.8538 28.92849,-21.6072 10.5803,-5.1669 26.3092,-8.0589 37.8573,-10.3571 17.5827,-3.4992 42.691,-0.7168 59.2857,-7.5 13.2703,-5.4243 30.14606,-16.9589 38.03577,-28.9286 3.76841,-5.7171 5.53571,-22.1428 5.53571,-22.1428 0,0 -8.92211,-0.9245 -11.96431,-3.0358 -7.49601,-5.2022 -11.78287,-19.4885 -16.96427,-25.5357 -4.4259,4.2641 -17.2946,18.5161 -23.3929,21.4286 -13.5194,6.4567 -27.34,-2.9372 -42.6786,-0.8939 -12.1442,1.6178 -28.4487,9.182 -39.8215,13.5725 -6.4902,2.5055 -20,12.1428 -20,12.1428 z"
         id="path4062"
         style="fill:#ffff00;fill-opacity:1;fill-rule:evenodd;stroke:#000000;stroke-width:3;stroke-linecap:butt;stroke-linejoin:miter;stroke-miterlimit:4;stroke-dasharray:none;stroke-opacity:1" />
      <path
         d="m -424.80938,1857.2016 c 0,0 7.92428,19.4813 9.5965,28.2843 1.75527,9.2402 2.62034,30.6516 2.62034,30.6516 0,0 26.45735,-8.3051 36.77556,-14.9942 6.65533,-4.3145 16.3483,-10.779 19.1929,-18.1828 2.07146,-5.3915 0.6808,-13.8509 -1.5152,-19.1929 -3.39314,-8.2542 -11.84621,-17.6617 -19.1929,-22.7284 -5.17286,-3.5675 -18.44747,-8.4227 -18.44747,-8.4227 0,0 -8.27149,12.0393 -12.36213,15.4938 -4.3516,3.6749 -16.6676,9.0913 -16.6676,9.0913 z"
         id="path4066"
         style="fill:#ffff00;fill-opacity:1;fill-rule:evenodd;stroke:#000000;stroke-width:3;stroke-linecap:butt;stroke-linejoin:miter;stroke-miterlimit:4;stroke-dasharray:none;stroke-opacity:1" />
      <path
         d="m -497.21373,641.28816 -21.9643,7.14286 c 0,0 -1.148,25.568 -5.9668,35.70159 -5.4243,11.40667 -17.7367,24.19632 -28.2142,31.25 -29.26888,19.70428 -110.2833,41.44126 -110.2833,41.44126 l -0.3571,10.17857 c 0,0 17.0514,-3.0272 24.2118,-4.7422 30.41752,-7.28538 70.37712,-20.81804 96.4286,-38.12763 12.4627,-8.28069 28.1833,-22.04744 35.3571,-35.17857 7.1987,-13.17684 10.7882,-47.66588 10.7882,-47.66588 z"
         id="path4072"
         style="fill:#ffff00;fill-opacity:1;fill-rule:evenodd;stroke:#000000;stroke-width:3;stroke-linecap:butt;stroke-linejoin:miter;stroke-miterlimit:4;stroke-dasharray:none;stroke-opacity:1" />
      <path
         d="m -542.21373,724.50245 c 0,0 -3.6558,26.33367 -2.1428,37.49999 1.458,10.76082 4.8437,25.78997 11.6071,34.28572 7.5653,9.50305 22.5733,18.7708 34.4643,21.25 15.6269,3.25812 38.3264,-0.5121 52.6786,-7.5 13.2174,-6.4354 28.8371,-20.75266 35.3571,-33.92857 11.1669,-22.56669 12.4817,-58.39585 9.4643,-83.39286 -2.3196,-19.21647 -10.1319,-45.50008 -22.3214,-60.53571 -9.5661,-11.7997 -42.8572,-26.96429 -42.8572,-26.96429 0,0 6.1646,-4.43864 7.3214,-7.32143 0.898,-2.23787 -0.1785,-8.03571 -0.1785,-8.03571 0,0 37.0974,17.56594 48.5714,30.35714 11.8393,13.19848 21.3641,36.02579 25.7143,53.21429 5.763,22.77078 7.686,55.08874 3.5714,78.21428 -3.125,17.56353 -11.641,41.09537 -23.0357,54.82143 -9.2627,11.15792 -26.6092,21.99289 -40.3571,26.60714 -14.9119,5.00492 -36.916,6.56855 -52.3215,3.39286 -15.2524,-3.14412 -35.3356,-12.46302 -46.25,-23.57143 -6.7671,-6.88734 -11.8877,-19.5316 -14.10707,-28.92857 -3.645,-15.43336 -0.5357,-51.84699 -0.5357,-51.84699 z"
         id="path4074"
         style="fill:#ffff00;fill-opacity:1;fill-rule:evenodd;stroke:#000000;stroke-width:3;stroke-linecap:butt;stroke-linejoin:miter;stroke-miterlimit:4;stroke-dasharray:none;stroke-opacity:1" />
      <path
         d="m 245.0049,531.44282 c 0,0 -34.7283,30.83215 -52.8571,45.35715 -69.8763,48.21536 -149.4173,105.19651 -234.2857,125 -33.2834,0.73946 -66.7095,-5.12874 -97.8571,-16.78572 19.9092,-6.29587 136.699,-58.61961 154.4135,-69.67964 73.7829,-46.06632 56.9436,-29.80327 123.4436,-88.53464 l 104.9999,0.71428 c 2.1429,3.92857 -52.1428,50.71429 -52.1428,50.71429 z"
         id="path1948"
         style="fill:#fcef3c;fill-opacity:1;fill-rule:evenodd;stroke:#000000;stroke-width:3;stroke-linecap:butt;stroke-linejoin:miter;stroke-miterlimit:4;stroke-dasharray:none;stroke-opacity:1" />
    </g>
    <g
       id="sinister1-3">
      <path
         d="m 385.5915,523.50009 c 0,0 7.795,0.55879 11.1117,1.01015 7.4294,1.36698 15.1728,2.20459 22.2234,5.05076 5.077,2.44935 10.9318,7.37489 15.1523,11.11168 25.3095,29.3827 53.0661,57.00851 86.873,75.76144 33.0541,18.33539 72.047,23.51272 108.0863,35.35534 L 520.4468,682.59911 C 458.3999,666.72722 402.0286,635.39658 346.1956,604.81737 308.7013,581.38288 241.8973,523.75262 241.8973,523.75262 c 0,0 -507.05566,-0.25253 143.6942,-0.25253 z"
         id="path1870"
         style="fill:#ff0000;fill-opacity:1;fill-rule:evenodd;stroke:#000000;stroke-width:3;stroke-linecap:butt;stroke-linejoin:miter;stroke-miterlimit:4;stroke-dasharray:none;stroke-opacity:1" />
      <path
         d="m 1134.2504,1377.4853 -2.5,11.0714 c 0,0 -16.8201,-11.9032 -25,-15 -12.6371,-4.7842 -30.8519,-6.7602 -44.2858,-8.2143 -9.9116,-1.0729 -23.9902,2.711 -33.2143,-1.0714 -8.9092,-3.6533 -23.5716,-21.7857 -23.5716,-21.7857 0,0 19.5088,-33.6394 31.4287,-45 8.1555,-7.7729 21.2463,-16.0186 31.7857,-20 3.7569,-1.4193 13.2143,-2.1429 13.2143,-2.1429 0,0 11.3504,49.8552 18.9286,70.3572 1.8111,4.8996 4.7556,11.2696 7.5001,15.7142 1.9255,3.1183 4.918,7.0421 7.5,9.6429 1.8273,1.8406 4.3779,4.393 6.7857,5.3571 3.1968,1.2802 11.4286,1.0715 11.4286,1.0715 z"
         id="path3970"
         style="fill:#ff0000;fill-opacity:1;fill-rule:evenodd;stroke:#000000;stroke-width:3;stroke-linecap:butt;stroke-linejoin:miter;stroke-miterlimit:4;stroke-dasharray:none;stroke-opacity:1"
         transform="translate(-0.35720378,-0.35720126)" />
    </g>
  </g>
  <metadata
     id="metadata870">
    <rdf:RDF>
      <cc:Work
         rdf:about="">
        <dc:creator>
          <cc:Agent>
            <dc:title>https://commons.wikimedia.org/wiki/User:Bluebear2</dc:title>
          </cc:Agent>
        </dc:creator>
      </cc:Work>
    </rdf:RDF>
  </metadata>
</svg>
