<?xml version="1.0" encoding="utf-8"?>
<svg xmlns="http://www.w3.org/2000/svg" xmlns:dc="http://purl.org/dc/elements/1.1/"
     xmlns:xl="http://www.w3.org/1999/xlink"
     xmlns:xlink="http://www.w3.org/1999/xlink"
     version="1.1"
     viewBox="33.75 60.95833 297 260.79167"
     width="297"
     height="260.79167"
     preserveAspectRatio="xMidYMid meet"
     zoomAndPan="magnify"
     contentScriptType="application/ecmascript"
     contentStyleType="text/css">
   <defs/>
   <metadata xmlns="" xmlns:svg="http://www.w3.org/2000/svg"
             xmlns:rdf="http://www.w3.org/1999/02/22-rdf-syntax-ns#"
             xmlns:cc="http://creativecommons.org/ns#">
      <rdf:RDF>
         <cc:Work rdf:about="">
            <dc:creator>
               <cc:Agent>
                  <dc:title>http://heraldicart.org Boar's Head Couped Close.svg</dc:title>
               </cc:Agent>
            </dc:creator>
         </cc:Work>
      </rdf:RDF>
   </metadata>
   <g stroke-opacity="1" stroke-dasharray="none" stroke="#505050" fill="#ffff00"
      fill-opacity="1">
      <title>Boar's Head Couped Close</title>
      <g>
         <title>Layer 2</title>
         <g>
            <g>
               <g  id="outline-0">
                  <path
                        d="M 281.3321 67.32535 C 280.29297 69.075814 279.37685 74.4314 279.058 79.09992 C 278.6592 88.16212 277.14223 90.46224 275.1969 84.7905 C 274.54844 82.89992 272.1136 79.456455 269.7506 77.04046 C 267.3966 74.7529 265.4189 72.30996 265.374 71.66779 C 265.2752 70.25502 258.20778 67.006435 255.76755 67.17707 C 254.4832 67.26688 254.31345 70.37623 254.97804 79.88032 C 255.68754 90.02658 255.33276 94.18136 253.05506 102.21339 C 251.6252 107.6049 250.05524 114.68401 249.89446 117.9218 C 249.60525 121.16856 249.16965 124.16744 248.93972 124.5707 C 248.71878 125.1024 245.0867 124.84013 241.0424 124.2195 C 232.29366 122.76629 215.71674 123.7964 202.60483 126.39107 C 173.2061 132.31868 158.12271 152.86172 172.43807 167.47715 C 174.37984 169.40635 174.26936 169.6722 172.09497 169.95331 C 168.1315 170.48859 156.78443 170.63674 156.23477 170.15893 C 155.95994 169.92003 156.98383 166.10564 158.61396 161.73262 C 161.9398 152.07856 161.94162 144.72192 158.60234 144.95542 C 157.318 145.04523 151.2825 151.01692 145.20838 158.28193 C 138.99684 165.4275 133.71398 171.08843 133.43915 170.84953 C 132.75208 170.25226 138.18856 153.86847 139.52948 152.7422 C 141.71555 150.78248 147.0631 138.66393 146.4416 137.15865 C 143.09516 129.90709 121.56856 146.89977 111.46984 164.9002 C 105.73072 175.1102 104.23442 175.86014 90.49202 176.8211 C 82.52914 177.37792 82.26329 177.26745 80.7239 170.01858 C 79.54018 164.16452 73.460714 156.58782 68.272184 154.3694 C 62.94624 152.03153 49.53256 154.002 43.738663 157.89181 C 38.06422 161.64421 34.825498 174.38966 36.395404 185.76637 C 38.682907 201.86818 45.818544 220.8575 54.94267 235.06158 C 55.67465 236.301 56.3231 238.1916 56.394946 239.21906 C 56.46679 240.24653 57.17183 241.10066 57.94243 241.04677 C 58.5846 241.00187 62.06757 242.8233 65.449046 245.03901 C 68.830524 247.25473 73.48736 249.2522 75.83509 249.60428 C 79.733 249.97702 80.30062 250.7117 82.81359 257.11812 C 84.25688 261.14716 85.69119 265.04778 86.13936 265.91987 C 86.45909 266.80094 87.26562 267.2608 87.88084 266.8306 C 88.48709 266.27195 90.55999 266.38512 92.41195 267.03 C 95.04348 267.7494 98.7501 267.2321 106.7067 264.73978 C 118.71031 261.06105 121.00416 260.64253 119.1944 262.44688 C 117.28316 264.6455 101.02956 270.29923 95.76378 270.66745 C 90.1127 271.0626 90.13066 271.31948 95.61915 281.51874 L 98.29917 286.62286 L 95.33352 288.50804 C 92.23943 290.4022 91.92597 291.4566 92.9103 301.84178 C 93.35935 308.26346 96.5082 312.6895 102.92448 315.85454 C 108.4058 318.56873 126.12964 317.32936 136.44565 313.5105 C 140.21783 312.0852 144.50375 310.62393 145.89856 310.26827 C 147.29336 309.9126 150.4593 309.04592 152.8726 308.49 C 155.27691 307.8056 157.92013 306.8464 158.52638 306.28777 C 159.26105 305.72015 165.87674 304.3541 173.28996 303.31947 C 184.54722 301.88698 189.44565 301.80257 202.32224 303.22526 C 217.54655 305.00003 228.40413 307.08015 238.8198 310.22367 C 241.7172 311.05355 247.3027 311.5664 251.1647 311.4254 C 256.81578 311.03025 260.2269 311.8242 267.27637 314.81593 L 276.33317 318.82884 L 281.5325 313.81905 C 284.44427 311.16326 287.78894 307.31566 288.93856 305.29934 C 290.2256 303.40248 292.79967 299.60876 294.93186 296.87843 C 299.29772 291.0235 310.41134 269.08024 315.44814 256.20906 C 321.25823 241.47693 326.51333 211.4253 327.1789 189.56733 C 327.3397 186.32955 327.75106 181.13832 328.1777 178.011 C 328.6043 174.8837 328.5792 167.14175 328.26755 160.83952 L 327.5877 149.27152 L 323.2982 146.99024 C 318.74286 144.59848 317.11455 141.61487 318.4043 137.91095 C 319.58355 134.47289 319.06806 123.40964 317.85827 122.71986 C 317.18916 122.37947 316.5497 120.61732 316.41498 118.69081 C 315.9749 112.39757 312.15336 103.8886 301.66947 85.00434 C 298.12904 78.66977 295.14724 72.94144 295.09336 72.17084 C 295.04845 71.52867 294.4898 70.92243 293.7192 70.976316 C 293.07704 71.02122 292.36303 70.03866 292.2732 68.75432 C 292.12054 66.57095 287.2724 63.68342 284.31843 63.889984 C 283.67626 63.93489 282.3623 65.44645 281.3321 67.32535 Z"
                        fill="black"/>
               </g>
            </g>
            <g>
               <path d="M 178.91634 165.99165 L 178.91634 165.99165 C 188.02884 163.41852 193.9395 161.19834 198.16254 158.83805 C 200.6414 157.3741 205.7994 155.46468 209.73594 154.5441 C 218.88437 152.4847 223.5502 154.6106 228.00492 162.94623 C 229.7886 166.30616 231.84713 169.905 232.4417 171.02499 C 233.31108 172.38387 233.24552 173.29189 232.47492 173.34577 C 231.70431 173.39966 229.43383 170.46095 227.36633 166.73367 C 225.29884 163.0064 222.44277 159.07614 221.0776 158.01005 C 216.1666 154.22348 207.40348 156.25594 189.5943 165.5031 C 187.35433 166.69223 183.81208 167.7143 181.75714 167.85799 C 179.7022 168.00168 177.81162 168.65013 177.3428 169.32823 C 175.9812 172.00467 169.72118 174.76552 167.45698 173.7623 C 166.25617 173.20096 162.99145 172.65488 160.15693 172.72403 L 155.12107 172.68898 L 152.63769 183.31663 C 148.85289 199.3268 148.03914 209.8377 149.64497 221.72814 C 149.99793 224.93 150.49458 230.1868 150.85652 233.5171 L 151.2876 239.6819 L 161.5623 238.96343 C 183.53343 237.55612 201.9569 240.78498 215.26457 248.3725 C 229.37877 256.41984 231.55134 263.49537 221.98256 270.61757 C 217.19818 274.17866 216.05126 274.38793 201.53826 275.40277 C 193.05266 275.86708 184.03536 276.11045 181.5592 275.76735 C 172.57155 274.58897 148.89485 275.5993 142.44353 277.4701 C 138.90127 278.49216 130.53243 280.6261 123.93471 282.24902 C 111.23504 285.20205 99.01048 289.41248 96.70496 291.50962 C 95.85083 292.21466 95.13141 294.8462 94.93471 297.57024 C 94.64908 304.55955 99.05891 312.253 104.47736 314.06815 C 111.48193 316.4177 126.04253 314.23797 146.3611 307.6547 C 162.00847 302.5596 166.84404 301.57617 180.06372 300.5227 C 196.3658 299.2537 215.34164 301.1533 230.09442 305.4132 C 240.63854 308.54775 252.48766 310.0423 254.71864 308.72473 C 255.7012 308.0107 257.49927 307.88498 258.56266 308.32686 C 259.76347 308.8882 264.00806 310.5273 268.10626 311.91854 C 277.10917 315.16085 278.7339 314.40193 287.35516 302.9579 C 302.1251 283.46927 316.1433 251.38517 319.62546 229.2012 C 320.41314 223.85459 321.5053 217.32513 321.97683 214.84 C 323.5944 206.596 325.60003 178.0622 325.56505 164.64223 L 325.557 151.60757 L 321.30344 149.84002 C 319.03924 148.8368 317.21422 148.57722 317.25913 149.2194 C 317.30403 149.86156 316.81454 152.08984 316.18763 154.19866 C 315.55175 156.17905 315.17273 158.14148 315.31912 158.38936 C 315.4655 158.63725 314.86825 159.32432 313.8857 160.03834 C 313.03156 160.74337 312.32382 161.6963 312.2313 162.21901 C 312.12712 164.42034 310.12067 168.94874 305.19975 177.93998 C 301.18056 185.0613 299.87556 186.70129 299.35555 184.80173 C 298.88044 183.54433 299.29538 182.09564 300.04802 181.78489 C 300.80066 181.47413 301.38894 180.65863 301.33506 179.88802 C 301.28117 179.11742 302.74425 176.0467 304.58364 172.8206 C 306.42304 169.5945 309.57013 162.92135 311.4212 158.01662 C 319.2108 138.3708 316.4536 117.3975 302.78493 93.57347 C 299.5373 87.73467 294.83467 79.54544 292.4654 75.19396 C 289.50156 69.7225 287.54183 67.53643 285.8722 67.65318 C 282.7898 67.86873 281.65273 73.75601 281.8763 89.87308 C 281.81973 90.90953 281.2018 93.14679 280.41952 94.87929 C 279.64622 96.74023 279.4046 98.82211 279.72435 99.70318 C 280.16353 100.44684 279.62914 102.03295 278.5361 103.01281 C 277.5715 103.9837 276.7982 105.84463 276.888 107.12897 C 277.05864 109.56921 276.7452 110.62362 273.29362 118.47961 C 272.2904 120.74381 271.57098 123.37535 271.64283 124.40282 C 271.7057 125.30186 270.45458 127.71245 268.79123 129.76469 C 267.12787 131.81693 265.8588 133.97066 265.9037 134.61282 C 265.9486 135.25499 265.0801 139.4457 263.85322 144.04864 C 261.03842 155.47384 261.3177 165.00487 264.75936 169.92667 C 267.1942 173.37013 267.3828 176.06724 265.071 176.2289 C 263.27292 176.35463 259.0508 165.8087 258.6736 160.41448 C 258.2066 153.73593 260.66575 140.91593 263.4994 135.2972 C 264.62206 132.89558 265.6253 130.63138 265.59835 130.24608 C 265.5804 129.98921 263.63592 129.86706 261.19568 130.0377 C 258.75544 130.20834 256.2703 129.7368 255.8401 129.12158 C 255.27247 128.3869 254.4839 128.18392 253.86868 128.61413 C 253.25346 129.04433 249.34656 128.54316 245.1379 127.41778 C 237.9034 125.4715 227.61076 125.9331 200.3442 129.13038 C 194.83952 129.77343 180.03191 137.64915 175.8331 142.20179 C 170.79814 147.71633 169.08177 154.54756 171.28399 160.20134 C 173.61463 165.84614 175.11721 167.03168 178.91634 165.99165 Z"/>
            </g>
            <g>
               <path d="M 263.46276 73.86642 C 267.06248 77.35749 273.3126 87.37443 275.67916 93.53297 C 277.25088 97.55303 275.35848 105.55812 269.45588 120.81296 C 266.71205 127.71603 266.23424 128.26569 262.9695 127.71961 C 253.03792 125.96193 253.03792 125.96193 252.89692 122.09994 C 252.71102 117.59578 253.3074 111.35912 254.14627 108.59016 C 257.27182 97.91761 258.99717 91.21482 258.81485 90.4532 C 258.6505 89.94845 258.57864 88.92098 258.66217 88.26983 C 258.73672 87.49025 258.57776 83.37139 258.39186 78.86723 C 258.0865 74.50049 258.34878 70.868424 258.99095 70.82352 C 259.50468 70.7876 261.53896 72.194085 263.46276 73.86642 Z"/>
            </g>
            <g>
               <path d="M 143.63132 139.42015 C 143.67622 140.06232 143.21637 140.86885 142.59216 141.17062 C 140.95845 141.8011 130.07834 167.08363 130.24898 169.52387 C 130.32082 170.55134 129.03379 172.4482 127.31655 173.72983 C 124.49729 175.8629 123.46982 175.93475 118.61898 174.85427 C 115.59316 174.03337 112.70476 173.33191 112.17306 173.11097 C 110.31212 172.33767 116.38267 161.33012 122.81515 153.65286 C 131.40676 143.63058 143.3529 135.43871 143.63132 139.42015 Z"/>
            </g>
            <g>
               <path d="M 66.61781 156.55007 C 68.460784 157.0665 71.91411 160.30969 74.36691 164.01002 C 78.67795 170.2907 78.85129 170.9239 78.81712 181.50934 C 78.75778 202.80866 80.92225 215.30534 85.27461 218.48566 C 88.12439 220.48043 90.74067 219.13593 88.13877 216.99476 C 87.03945 216.03914 85.43809 213.44082 84.52379 211.43977 C 82.50389 206.54761 80.89988 187.30053 82.1537 183.08289 C 83.121 180.30495 83.99309 179.85678 90.53423 179.27032 C 94.6441 178.98293 100.77299 178.0381 104.33321 177.2729 C 111.94942 175.44972 117.84568 176.7152 118.08817 180.18292 C 118.17798 181.46725 117.60766 182.53963 116.82807 182.46508 C 116.03951 182.2621 115.05695 182.97611 114.74349 184.03053 C 114.32855 185.47922 115.24555 185.67322 119.05365 184.76162 C 125.01818 183.31205 125.98278 182.34117 123.01355 180.4838 C 120.98825 179.20575 121.34661 178.7935 125.76096 177.32327 C 128.41316 176.4925 130.707 176.07398 130.74293 176.58772 C 130.77885 177.10145 128.59636 182.80372 125.8166 189.19305 C 119.05987 205.15292 115.63343 220.75086 116.1552 233.7496 L 116.47582 240.18026 L 104.60064 243.85 C 80.59341 251.20747 64.409896 246.78948 55.78424 230.48557 C 49.976025 219.40524 46.784966 212.53 44.0807 205.23351 C 42.94816 201.9571 40.658837 193.21194 41.044137 193.185 C 41.17257 193.17602 42.729036 195.13216 44.431897 197.3362 C 46.015305 199.67765 48.195976 201.33202 49.06807 200.88385 C 50.068594 200.4267 51.203835 201.89606 52.18998 204.92458 C 53.03871 207.83365 54.595174 209.7898 55.89747 209.95685 C 57.97935 210.19846 57.96139 209.9416 55.920835 206.59962 C 54.74967 204.61653 52.97766 199.57797 51.91967 195.52198 C 50.8527 191.33756 49.38246 186.92321 48.769937 185.54637 C 48.02898 184.1785 47.22515 181.9116 46.869495 180.5168 C 46.104294 176.95658 41.701627 176.7482 41.036096 180.15033 C 40.758567 181.71848 40.068794 182.92827 39.55506 182.9642 C 38.013856 183.07196 41.06668 165.82236 43.16294 162.5783 C 44.211073 160.95626 46.397145 158.99653 48.14133 158.1002 C 52.262887 156.13419 62.40016 155.29626 66.61781 156.55007 Z"/>
            </g>
            <g>
               <path d="M 154.18523 166.68853 C 149.42955 181.7341 146.66594 195.73695 145.91506 207.14688 C 144.82736 222.96845 151.28755 258.13772 156.30632 263.4655 C 157.1308 264.1822 158.31993 266.42216 158.97736 268.44118 L 160.39371 272.08492 L 144.96102 274.71282 C 127.36291 277.75026 127.49134 277.74128 124.40448 268.6647 C 119.68302 254.66902 118.09339 231.93627 120.79413 217.03438 C 121.79378 211.02765 122.91288 204.8835 123.18143 203.18692 C 123.45896 201.61877 124.13975 200.28055 124.78192 200.23564 C 125.42408 200.19074 125.85699 198.99891 125.76718 197.71458 C 125.66839 196.3018 126.20279 194.7157 126.81801 194.2855 C 127.56167 193.8463 127.96763 192.26918 127.86884 190.8564 C 127.77903 189.57207 128.21194 188.38025 128.72567 188.34432 C 129.23941 188.3084 130.1591 186.69535 130.78601 184.58652 C 132.4907 179.43392 142.3002 164.68025 149.95415 156.01415 C 156.17467 148.99703 156.55099 148.84165 157.14285 151.76868 C 157.52545 153.5488 156.1854 160.22464 154.18523 166.68853 Z"/>
            </g>
            <g>
               <path d="M 45.70549 186.01878 C 46.23449 188.04677 47.358047 191.19475 48.14391 193.20478 C 50.647896 199.48276 49.775803 199.93093 46.14286 194.11908 C 42.509913 188.30722 41.224696 182.84744 43.40807 182.69476 C 44.050236 182.64986 45.057043 184.1282 45.70549 186.01878 Z"/>
            </g>
            <g>
               <path d="M 116.25575 246.26154 C 116.3725 247.93118 116.99131 251.2435 117.55623 253.78524 C 118.64117 258.22653 118.5307 258.49238 113.96097 259.5863 C 111.42822 260.27965 108.64759 261.1194 107.7755 261.56757 C 105.90288 262.47288 102.20976 253.95494 102.54658 249.5433 C 102.61485 246.82822 103.47796 246.25162 107.68932 245.56995 C 110.50588 245.24394 113.03863 244.55058 113.40597 244.26677 C 114.71097 242.62678 116.07613 243.69287 116.25575 246.26154 Z"/>
            </g>
            <g>
               <path d="M 159.9061 248.50074 C 160.5222 253.62012 160.28958 255.83044 159.13368 255.91127 C 155.4091 256.1717 150.69392 244.11152 153.51318 241.97845 C 157.315 239.13137 159.11936 240.94112 159.9061 248.50074 Z"/>
            </g>
            <g>
               <path d="M 172.4558 241.55728 C 174.41822 241.9363 175.26067 242.9099 174.97416 244.3496 C 174.79812 245.52347 174.3715 248.65078 174.04636 251.3838 C 173.60805 256.18974 173.61704 256.31817 168.80213 255.75143 C 166.19753 255.4173 163.85878 255.19367 163.72137 255.07422 C 163.18069 254.72484 161.69431 242.697 162.17212 242.14733 C 163.0083 241.18543 168.79678 240.90972 172.4558 241.55728 Z"/>
            </g>
            <g>
               <path d="M 186.81071 241.97317 C 189.69014 242.5462 189.8545 243.05094 189.62545 249.0038 C 189.3542 252.50743 189.05601 255.62576 188.93656 255.76317 C 188.68867 255.90957 186.11102 255.96075 183.1301 255.782 C 177.0578 255.69038 176.59167 254.56142 177.6506 245.71119 C 178.25327 241.41 180.13487 240.63313 186.81071 241.97317 Z"/>
            </g>
            <g>
               <path d="M 99.82881 251.28208 C 99.94556 252.9517 100.57335 256.39248 101.27568 259.05366 L 102.38756 263.88025 L 96.19581 263.92604 C 92.32484 263.9386 89.56486 263.22816 88.84187 262.11717 C 87.23152 259.39042 83.08754 251.80743 83.06059 251.42213 C 83.04263 251.16526 86.35496 250.54646 90.44688 250.0022 C 94.41036 249.46692 98.11697 248.9496 98.75016 248.77627 C 99.25491 248.6119 99.72104 249.74087 99.82881 251.28208 Z"/>
            </g>
            <g>
               <path d="M 205.4677 248.5413 C 205.77035 254.7151 204.4833 256.61196 199.73126 256.94426 C 192.41055 257.45617 191.43068 256.36313 192.62433 249.4394 L 193.7524 243.42368 L 199.5382 244.95502 C 203.22416 245.9879 205.37788 247.25697 205.4677 248.5413 Z"/>
            </g>
            <g>
               <path d="M 213.08748 250.46065 C 216.97371 252.512 222.8556 257.26317 222.9454 258.5475 C 222.97235 258.9328 222.20175 258.9867 221.38624 258.3984 C 220.45128 257.94754 218.12151 257.85233 216.21297 258.2439 C 209.8362 259.33513 207.68247 258.06605 207.8729 253.40652 C 207.83966 251.08573 207.96182 249.14127 207.94386 248.8844 C 208.15582 248.22427 209.6045 248.63922 213.08748 250.46065 Z"/>
            </g>
            <g>
               <path d="M 161.21644 261.70246 C 161.28829 262.72993 160.81048 263.2796 160.01293 262.94817 C 159.34382 262.60778 158.61184 261.36835 158.54 260.34088 C 158.46815 259.3134 159.0744 258.75477 159.7435 259.09516 C 160.54105 259.42658 161.1446 260.675 161.21644 261.70246 Z"/>
            </g>
            <g>
               <path d="M 169.89874 258.5141 C 173.94305 259.13473 174.08046 259.25418 174.14421 265.7028 L 174.21694 272.27986 L 169.72176 272.5942 L 165.22659 272.90853 L 164.32039 265.48632 C 163.78511 261.52284 163.9369 258.15662 164.57908 258.11172 C 165.22125 258.06682 167.68843 258.28148 169.89874 258.5141 Z"/>
            </g>
            <g>
               <path d="M 185.40059 258.72072 C 189.70176 259.3234 190.33225 260.9571 189.35684 269.1562 C 188.82873 272.6778 188.22248 273.23642 184.4979 273.49687 C 178.07623 273.94592 176.23595 271.62243 177.41164 264.44183 C 178.39332 258.17823 178.76066 257.89442 185.40059 258.72072 Z"/>
            </g>
            <g>
               <path d="M 201.50597 260.17576 C 203.45942 260.42635 205.03655 260.8323 205.04553 260.96074 C 205.04553 260.96074 204.46353 263.71173 203.66058 266.99442 C 202.49658 272.4964 202.00979 272.91763 197.66999 273.60828 C 192.68802 274.34384 192.5506 274.2244 192.43567 265.1981 C 192.29738 259.52907 192.8677 258.4567 195.6187 259.0387 C 196.92997 259.3342 199.4151 259.80572 201.50597 260.17576 Z"/>
            </g>
            <g>
               <path d="M 120.93947 267.10013 C 121.11281 267.73332 122.07201 270.37654 123.16863 273.1392 C 125.48131 278.52715 124.5706 280.26863 119.17638 280.64583 C 115.58024 280.8973 109.75136 271.36715 112.02096 268.75627 C 114.52947 265.87056 120.76883 264.6599 120.93947 267.10013 Z"/>
            </g>
            <g>
               <path d="M 218.02719 265.7317 C 218.65497 269.17245 218.2041 270.1074 215.4504 271.33246 C 207.82252 274.83427 204.24974 271.7285 207.34295 264.28475 C 208.78807 260.95716 209.4033 260.52696 213.18175 261.0371 C 216.70334 261.56523 217.3994 262.29092 218.02719 265.7317 Z"/>
            </g>
            <g>
               <path d="M 107.00935 270.91358 C 108.75982 271.95273 112.02542 278.0484 112.18708 280.3602 C 112.30383 282.02984 106.34558 285.4149 102.74944 285.66636 C 101.33667 285.76515 95.14045 276.5188 94.96982 274.07857 C 94.93389 273.56484 96.58557 273.19122 98.6405 273.04752 C 100.82388 272.89485 102.83391 272.109 103.17431 271.43987 C 103.96557 269.8358 105.12147 269.75498 107.00935 270.91358 Z"/>
            </g>
            <g>
               <path d="M 224.4902 262.18227 C 224.50815 262.43914 224.20368 263.62198 223.8992 264.80483 C 222.94987 267.83963 220.99642 267.58904 220.78088 264.50664 C 220.68209 263.09387 221.5003 261.8751 222.52776 261.80325 C 223.55523 261.7314 224.47223 261.9254 224.4902 262.18227 Z"/>
            </g>
            <g>
               <g  id="outline-1">
                  <path
                        d="M 287.87313 103.65052 C 288.53056 105.66953 286.25644 117.4441 280.44182 141.33992 C 279.13142 146.59401 279.31996 167.74694 280.6438 171.9134 C 282.12302 176.45618 285.16052 175.59847 293.31653 168.57506 C 303.1718 160.01316 305.13606 153.03554 303.6542 131.84399 C 303.01656 122.7252 301.91636 116.21999 301.09187 115.50328 C 299.99256 114.54766 299.85872 118.17074 300.7236 128.69332 C 301.9953 143.18835 301.83453 146.42614 299.6134 153.42172 C 298.9865 155.53054 298.8374 157.0897 299.2227 157.06276 C 301.0208 156.93703 293.01746 166.1438 288.8393 169.14627 C 284.52376 172.02927 283.89057 172.2026 283.12267 170.44944 C 281.92456 168.08105 282.11862 148.70824 283.2916 143.33469 C 284.19604 139.65772 286.44322 127.49785 286.67584 125.28753 C 286.76835 124.76482 286.9803 124.10469 287.0818 123.71041 C 287.1833 123.31613 287.39526 122.656 287.4788 122.00485 C 287.5713 121.48213 288.4847 117.9336 289.3712 113.99976 C 291.46657 105.2061 291.28965 100.83038 288.8494 101.00102 C 287.6935 101.08185 287.37108 102.00783 287.87313 103.65052 Z"
                        fill="black"/>
               </g>
            </g>
            <g>
               <g  id="outline-2">
                  <path
                        d="M 266.88985 137.64134 C 266.6213 139.33792 266.64912 145.27281 267.04428 150.9239 C 267.655 159.65738 268.53066 162.95175 273.38595 173.32435 C 276.56803 180.07116 279.53187 185.54262 280.0456 185.5067 C 281.5868 185.39893 281.19522 183.49039 277.72933 176.37623 C 270.46884 161.13842 269.79345 158.86254 269.58243 146.61644 C 269.43427 135.26937 268.24785 131.22236 266.88985 137.64134 Z"
                        fill="black"/>
               </g>
            </g>
            <g>
               <g  id="outline-3">
                  <path
                        d="M 195.26063 167.17186 C 191.06723 168.1104 186.67982 169.96593 185.59577 171.07423 C 182.94984 173.84048 182.98935 178.09676 185.68645 177.90816 C 186.71392 177.8363 187.67583 178.67248 187.74767 179.69995 C 188.04404 183.93825 192.2473 188.67774 197.28046 190.51983 C 202.04777 192.25146 202.81837 192.19757 206.0409 190.29443 C 211.4854 186.9453 216.96227 180.36736 217.71133 176.31407 C 218.09035 174.35164 218.77114 173.01342 219.19237 173.5002 C 220.56651 174.69473 221.10537 182.40075 219.93779 184.1602 C 218.31035 186.72617 221.10895 186.14329 222.8738 183.69677 C 223.81146 182.34059 223.99918 179.4881 223.21601 175.67102 C 221.27877 164.57812 214.69543 162.71536 195.26063 167.17186 Z"
                        fill="black"/>
               </g>
            </g>
            <g>
               <path d="M 206.72533 174.24293 C 207.28214 182.20581 198.57918 186.94435 195.3971 180.19754 C 194.6292 178.44437 194.14781 175.2515 194.3984 173.29805 C 194.84299 170.4276 195.81657 169.58515 199.00047 168.97533 C 204.35875 168.0844 206.39303 169.49088 206.72533 174.24293 Z"/>
            </g>
            <g>
               <path d="M 213.23864 167.72157 C 217.45628 168.97539 215.87734 175.92606 209.5733 183.59434 C 205.76876 188.24847 201.217 189.59925 197.3128 187.29103 C 195.69976 186.37133 195.94764 186.22494 198.17592 186.71443 C 199.74407 186.99196 202.66211 186.27166 204.51677 185.10948 C 209.4745 182.18157 211.33455 177.40528 209.91192 171.82605 C 208.68957 167.2653 209.27786 166.4498 213.23864 167.72157 Z"/>
            </g>
            <g>
               <g  id="outline-4">
                  <path
                        d="M 165.2682 177.52908 C 163.23751 179.86512 164.89547 181.42699 168.45569 180.66179 C 171.88747 179.90557 173.90919 177.44109 170.95521 177.64765 C 170.31304 177.69255 168.88231 177.53448 167.95633 177.21204 C 166.90192 176.89859 165.755 177.10785 165.2682 177.52908 Z"
                        fill="black"/>
               </g>
            </g>
            <g>
               <g  id="outline-5">
                  <path
                        d="M 63.29914 173.6892 C 61.964496 176.75095 63.274775 208.4085 64.687545 208.3097 C 65.84345 208.22887 66.8853 204.67135 66.678736 201.71738 C 66.58893 200.43304 67.72329 196.35281 69.27887 192.75937 C 72.703494 184.51808 73.279215 179.8316 71.51619 174.92148 C 69.76214 170.1398 65.32355 169.41768 63.29914 173.6892 Z"
                        fill="black"/>
               </g>
            </g>
            <g>
               <path d="M 69.384 177.6518 C 70.352185 180.42346 68.20022 190.25357 66.07701 193.11233 C 65.727635 193.653 65.32707 191.61603 65.248944 188.65308 C 65.0334 185.57067 64.984916 181.18596 64.95169 178.86518 C 64.73885 173.97572 67.895805 172.9806 69.384 177.6518 Z"/>
            </g>
         </g>
      </g>
   </g>
</svg>