<?xml version="1.0" encoding="utf-8"?>
<svg xmlns="http://www.w3.org/2000/svg" xmlns:dc="http://purl.org/dc/elements/1.1/"
     xmlns:xl="http://www.w3.org/1999/xlink"
     xmlns:xlink="http://www.w3.org/1999/xlink"
     version="1.1"
     viewBox="36 99 292.5 279"
     width="292.5"
     height="279"
     preserveAspectRatio="xMidYMid meet"
     zoomAndPan="magnify"
     contentScriptType="application/ecmascript"
     contentStyleType="text/css">
   <defs/>
   <metadata xmlns="" xmlns:svg="http://www.w3.org/2000/svg"
             xmlns:rdf="http://www.w3.org/1999/02/22-rdf-syntax-ns#"
             xmlns:cc="http://creativecommons.org/ns#">
      <rdf:RDF>
         <cc:Work rdf:about="">
            <dc:creator>
               <cc:Agent>
                  <dc:title>http://heraldicart.org Boar, Winged, Courant (2).svg</dc:title>
               </cc:Agent>
            </dc:creator>
         </cc:Work>
      </rdf:RDF>
   </metadata>
   <g stroke-opacity="1" stroke-dasharray="none" stroke="#505050" fill="#ffff00"
      fill-opacity="1">
      <title>Boar, Winged, Courant (2)</title>
      <g>
         <title>Art</title>
         <g>
            <g>
               <path d="M 105.3536 130.64913 C 110.54525 129.7992 116.70429 131.61313 122.32299 135.64688 C 127.94169 139.68064 132.5014 145.56186 134.8859 151.85083 C 138.80036 164.62705 141.4968 177.42403 142.9162 189.9618 C 143.12471 194.18862 146.67127 197.60588 150.83765 197.59447 C 155.00403 197.58305 158.21251 194.14728 158.004 189.92046 C 155.24715 176.54475 152.2242 163.21864 148.93708 149.95069 C 146.17473 141.0091 139.66005 133.64197 131.20377 129.89699 C 122.74748 126.152 113.25092 126.42831 105.3536 130.64913 Z"/>
               <path d="M 105.3536 130.64913 C 110.54525 129.7992 116.70429 131.61313 122.32299 135.64688 C 127.94169 139.68064 132.5014 145.56186 134.8859 151.85083 C 138.80036 164.62705 141.4968 177.42403 142.9162 189.9618 C 143.12471 194.18862 146.67127 197.60588 150.83765 197.59447 C 155.00403 197.58305 158.21251 194.14728 158.004 189.92046 C 155.24715 176.54475 152.2242 163.21864 148.93708 149.95069 C 146.17473 141.0091 139.66005 133.64197 131.20377 129.89699 C 122.74748 126.152 113.25092 126.42831 105.3536 130.64913 Z"
                     stroke="black"
                     stroke-linecap="round"
                     stroke-linejoin="round"
                     stroke-width="2"/>
            </g>
            <g>
               <path d="M 151.78227 270.41878 C 149.79732 267.13455 149.36296 262.8072 150.61396 258.77945 C 151.86496 254.75172 154.64999 251.51083 158.10487 250.06243 C 163.74912 249.95323 169.39766 246.5677 172.8561 241.2211 C 176.31455 235.8745 177.03775 229.4096 174.74473 224.33794 C 172.45172 219.26628 167.50395 216.3873 161.82357 216.81947 L 150.78362 218.986 C 147.33669 220.02667 143.88799 219.40086 141.45558 217.2933 C 139.02317 215.18574 137.88484 211.83713 138.37662 208.23597 L 138.82531 183.86276 C 136.37797 176.29125 129.41284 171.84148 121.23727 172.62638 C 128.40159 168.49344 136.40441 167.33255 143.38862 169.4131 C 150.37282 171.49366 155.7312 176.63478 158.2203 183.64343 C 161.0853 178.5472 164.5341 173.75765 168.47631 169.40027 C 171.76747 173.78962 173.8372 179.1321 174.50968 184.9738 C 177.04414 178.9897 181.91476 174.08243 187.73504 171.64892 C 188.51006 175.84119 188.28093 180.3352 187.06607 184.76973 C 192.4966 179.8252 198.53472 175.7184 204.93665 172.61513 C 203.4975 178.57326 200.76108 184.33114 196.95005 189.4203 C 200.89443 183.36184 207.5163 179.64604 213.94483 179.88382 C 212.12553 185.67345 208.99325 191.13971 204.83465 195.78236 C 209.36852 190.52657 216.01459 187.97893 221.89202 189.24374 C 218.51957 194.4001 214.0998 198.82135 209.02288 202.11722 C 213.94137 200.06313 219.12089 199.9968 223.43474 201.93264 C 222.27317 206.85092 218.21906 210.93602 213.4677 211.97589 C 219.15952 210.5174 224.7105 211.9632 228.3262 215.84593 C 223.7821 220.4056 218.07577 223.3916 212.2302 224.26854 C 216.5613 225.67232 219.64296 229.25384 220.548 233.93554 C 214.45885 238.15274 207.17368 238.9279 201.55443 235.95647 C 205.97774 238.43476 209.69475 241.9371 212.4719 246.24345 C 203.9054 249.90997 194.86165 248.80776 188.7668 243.3544 C 186.70043 250.19704 189.89262 256.6463 196.07348 258.11627 C 188.93131 260.60606 181.83664 258.17582 178.58839 252.12685 C 174.61756 254.82836 172.15664 259.24722 171.95075 264.04547 C 170.92343 268.98836 167.75005 272.82533 163.60637 274.13475 C 159.4627 275.44417 154.96596 274.03097 151.78227 270.41878 Z"/>
               <path d="M 151.78227 270.41878 C 149.79732 267.13455 149.36296 262.8072 150.61396 258.77945 C 151.86496 254.75172 154.64999 251.51083 158.10487 250.06243 C 163.74912 249.95323 169.39766 246.5677 172.8561 241.2211 C 176.31455 235.8745 177.03775 229.4096 174.74473 224.33794 C 172.45172 219.26628 167.50395 216.3873 161.82357 216.81947 L 150.78362 218.986 C 147.33669 220.02667 143.88799 219.40086 141.45558 217.2933 C 139.02317 215.18574 137.88484 211.83713 138.37662 208.23597 L 138.82531 183.86276 C 136.37797 176.29125 129.41284 171.84148 121.23727 172.62638 C 128.40159 168.49344 136.40441 167.33255 143.38862 169.4131 C 150.37282 171.49366 155.7312 176.63478 158.2203 183.64343 C 161.0853 178.5472 164.5341 173.75765 168.47631 169.40027 C 171.76747 173.78962 173.8372 179.1321 174.50968 184.9738 C 177.04414 178.9897 181.91476 174.08243 187.73504 171.64892 C 188.51006 175.84119 188.28093 180.3352 187.06607 184.76973 C 192.4966 179.8252 198.53472 175.7184 204.93665 172.61513 C 203.4975 178.57326 200.76108 184.33114 196.95005 189.4203 C 200.89443 183.36184 207.5163 179.64604 213.94483 179.88382 C 212.12553 185.67345 208.99325 191.13971 204.83465 195.78236 C 209.36852 190.52657 216.01459 187.97893 221.89202 189.24374 C 218.51957 194.4001 214.0998 198.82135 209.02288 202.11722 C 213.94137 200.06313 219.12089 199.9968 223.43474 201.93264 C 222.27317 206.85092 218.21906 210.93602 213.4677 211.97589 C 219.15952 210.5174 224.7105 211.9632 228.3262 215.84593 C 223.7821 220.4056 218.07577 223.3916 212.2302 224.26854 C 216.5613 225.67232 219.64296 229.25384 220.548 233.93554 C 214.45885 238.15274 207.17368 238.9279 201.55443 235.95647 C 205.97774 238.43476 209.69475 241.9371 212.4719 246.24345 C 203.9054 249.90997 194.86165 248.80776 188.7668 243.3544 C 186.70043 250.19704 189.89262 256.6463 196.07348 258.11627 C 188.93131 260.60606 181.83664 258.17582 178.58839 252.12685 C 174.61756 254.82836 172.15664 259.24722 171.95075 264.04547 C 170.92343 268.98836 167.75005 272.82533 163.60637 274.13475 C 159.4627 275.44417 154.96596 274.03097 151.78227 270.41878 Z"
                     stroke="black"
                     stroke-linecap="round"
                     stroke-linejoin="round"
                     stroke-width="2"/>
            </g>
            <g>
               <path d="M 252.58715 265.28853 C 243.44934 268.65524 237.0307 276.93722 236.0503 286.62604 C 235.06988 296.31485 239.6993 305.71478 247.97743 310.8438 C 250.70228 319.07207 259.58153 323.53346 267.8098 320.8086 C 276.03805 318.08375 280.49944 309.2045 277.7746 300.97625 C 281.6151 304.1465 286.21534 306.26137 291.12203 307.1125 L 306.14472 322.89502 C 307.29033 326.86987 308.63524 330.78454 310.17435 334.6242 C 311.3859 330.62434 314.22926 327.32156 318.00454 325.52883 C 319.49226 324.5921 320.2407 322.8291 319.8812 321.1082 C 319.5217 319.3873 318.1301 318.07138 316.3918 317.80856 C 310.2001 316.1687 305.29347 311.44884 303.41467 305.3254 C 305.19287 298.51826 302.0884 291.37744 295.8976 288.03483 C 294.05183 287.14584 291.8901 287.20417 290.09495 288.1914 C 287.1208 288.0725 284.3543 286.63456 282.54804 284.26874 C 280.7418 281.9029 280.08364 278.85528 280.75266 275.9549 C 273.27563 268.6066 263.0561 264.73643 252.58715 265.28853 Z"/>
               <path d="M 252.58715 265.28853 C 243.44934 268.65524 237.0307 276.93722 236.0503 286.62604 C 235.06988 296.31485 239.6993 305.71478 247.97743 310.8438 C 250.70228 319.07207 259.58153 323.53346 267.8098 320.8086 C 276.03805 318.08375 280.49944 309.2045 277.7746 300.97625 C 281.6151 304.1465 286.21534 306.26137 291.12203 307.1125 L 306.14472 322.89502 C 307.29033 326.86987 308.63524 330.78454 310.17435 334.6242 C 311.3859 330.62434 314.22926 327.32156 318.00454 325.52883 C 319.49226 324.5921 320.2407 322.8291 319.8812 321.1082 C 319.5217 319.3873 318.1301 318.07138 316.3918 317.80856 C 310.2001 316.1687 305.29347 311.44884 303.41467 305.3254 C 305.19287 298.51826 302.0884 291.37744 295.8976 288.03483 C 294.05183 287.14584 291.8901 287.20417 290.09495 288.1914 C 287.1208 288.0725 284.3543 286.63456 282.54804 284.26874 C 280.7418 281.9029 280.08364 278.85528 280.75266 275.9549 C 273.27563 268.6066 263.0561 264.73643 252.58715 265.28853 Z"
                     stroke="black"
                     stroke-linecap="round"
                     stroke-linejoin="round"
                     stroke-width="2"/>
            </g>
            <g>
               <g  id="feature-0">
                  <path
                        d="M 310.09044 334.493 C 311.7644 337.3621 313.50117 340.1941 315.29953 342.98688 C 318.3565 342.96067 320.8529 340.53605 320.96823 337.48113 L 316.28736 332.2324 L 321.00885 337.36954 C 324.17974 336.54846 326.35615 333.63683 326.246 330.3632 L 318.69934 324.9294 C 314.66816 326.8403 311.56845 330.2838 310.09044 334.493 Z"
                        fill="#ff0000"/>
               </g>
               <path d="M 310.09044 334.493 C 311.7644 337.3621 313.50117 340.1941 315.29953 342.98688 C 318.3565 342.96067 320.8529 340.53605 320.96823 337.48113 L 316.28736 332.2324 L 321.00885 337.36954 C 324.17974 336.54846 326.35615 333.63683 326.246 330.3632 L 318.69934 324.9294 C 314.66816 326.8403 311.56845 330.2838 310.09044 334.493 Z"
                     stroke="black"
                     stroke-linecap="round"
                     stroke-linejoin="round"
                     stroke-width="2"/>
            </g>
            <g>
               <path d="M 171.45384 322.1724 C 176.56395 316.95247 178.12678 309.21564 175.4435 302.42144 C 172.76024 295.62724 166.33261 291.04613 159.03474 290.72654 C 144.02473 294.41395 130.30959 302.13766 119.37464 313.06123 C 119.02584 316.05984 117.31291 318.72975 114.7326 320.2967 C 110.58157 321.931 106.03393 322.2744 101.68455 321.282 C 99.5078 319.95156 96.85063 319.66272 94.43886 320.4944 C 92.02709 321.32604 90.11272 323.1913 89.21868 325.58064 C 88.29548 326.1427 87.38835 326.7307 86.49838 327.344 C 86.84001 332.3438 90.43269 336.52185 95.32487 337.60863 C 98.92896 335.1517 102.99972 333.462 107.2843 332.64456 C 129.18361 333.90792 151.0924 330.3325 171.45384 322.1724 Z"/>
               <path d="M 171.45384 322.1724 C 176.56395 316.95247 178.12678 309.21564 175.4435 302.42144 C 172.76024 295.62724 166.33261 291.04613 159.03474 290.72654 C 144.02473 294.41395 130.30959 302.13766 119.37464 313.06123 C 119.02584 316.05984 117.31291 318.72975 114.7326 320.2967 C 110.58157 321.931 106.03393 322.2744 101.68455 321.282 C 99.5078 319.95156 96.85063 319.66272 94.43886 320.4944 C 92.02709 321.32604 90.11272 323.1913 89.21868 325.58064 C 88.29548 326.1427 87.38835 326.7307 86.49838 327.344 C 86.84001 332.3438 90.43269 336.52185 95.32487 337.60863 C 98.92896 335.1517 102.99972 333.462 107.2843 332.64456 C 129.18361 333.90792 151.0924 330.3325 171.45384 322.1724 Z"
                     stroke="black"
                     stroke-linecap="round"
                     stroke-linejoin="round"
                     stroke-width="2"/>
            </g>
            <g>
               <g  id="feature-1">
                  <path
                        d="M 86.16038 327.27496 C 83.04117 329.0975 79.9624 330.9884 76.926285 332.94626 C 76.95453 336.2719 79.59327 338.98724 82.91673 339.11063 L 88.62162 334.01712 L 83.03419 339.15338 C 83.92768 342.6007 87.09368 344.9664 90.65287 344.8462 L 96.56532 336.64235 C 94.48752 332.2554 90.74072 328.8822 86.16038 327.27496 Z"
                        fill="#ff0000"/>
               </g>
               <path d="M 86.16038 327.27496 C 83.04117 329.0975 79.9624 330.9884 76.926285 332.94626 C 76.95453 336.2719 79.59327 338.98724 82.91673 339.11063 L 88.62162 334.01712 L 83.03419 339.15338 C 83.92768 342.6007 87.09368 344.9664 90.65287 344.8462 L 96.56532 336.64235 C 94.48752 332.2554 90.74072 328.8822 86.16038 327.27496 Z"
                     stroke="black"
                     stroke-linecap="round"
                     stroke-linejoin="round"
                     stroke-width="2"/>
            </g>
            <g>
               <path d="M 95.04868 268.55022 C 98.03408 268.14415 100.67485 266.40763 102.23064 263.82752 C 103.78642 261.2474 104.08974 258.10142 103.05556 255.2716 C 102.99619 255.3186 102.93669 255.36542 102.87706 255.4121 C 101.15139 244.60957 91.27121 237.04836 80.39307 238.2053 C 83.06768 238.3835 85.46601 239.9154 86.75228 242.26718 C 88.03855 244.61895 88.03455 247.46478 86.74169 249.81293 C 84.63633 253.29338 84.39216 257.59084 86.08976 261.28735 C 87.78735 264.98386 91.20614 267.59914 95.21808 268.27026 Z"/>
               <path d="M 95.04868 268.55022 C 98.03408 268.14415 100.67485 266.40763 102.23064 263.82752 C 103.78642 261.2474 104.08974 258.10142 103.05556 255.2716 C 102.99619 255.3186 102.93669 255.36542 102.87706 255.4121 C 101.15139 244.60957 91.27121 237.04836 80.39307 238.2053 C 83.06768 238.3835 85.46601 239.9154 86.75228 242.26718 C 88.03855 244.61895 88.03455 247.46478 86.74169 249.81293 C 84.63633 253.29338 84.39216 257.59084 86.08976 261.28735 C 87.78735 264.98386 91.20614 267.59914 95.21808 268.27026 Z"
                     stroke="black"
                     stroke-linecap="round"
                     stroke-linejoin="round"
                     stroke-width="2"/>
            </g>
            <g>
               <path d="M 267.04816 221.87157 C 270.42345 217.19059 276.11573 214.76685 281.82945 215.5778 C 288.55498 215.73254 294.5708 211.41696 296.57948 204.99653 C 292.7024 208.65887 287.5078 210.59558 282.17945 210.3653 C 276.13762 208.4936 269.5596 209.78418 264.67288 213.80002 C 259.78617 217.81586 257.24528 224.01908 257.91064 230.3091 C 260.29712 230.64393 262.7079 229.89 264.47838 228.25515 C 266.24887 226.6203 267.19214 224.27712 267.04816 221.87157 Z"/>
               <path d="M 267.04816 221.87157 C 270.42345 217.19059 276.11573 214.76685 281.82945 215.5778 C 288.55498 215.73254 294.5708 211.41696 296.57948 204.99653 C 292.7024 208.65887 287.5078 210.59558 282.17945 210.3653 C 276.13762 208.4936 269.5596 209.78418 264.67288 213.80002 C 259.78617 217.81586 257.24528 224.01908 257.91064 230.3091 C 260.29712 230.64393 262.7079 229.89 264.47838 228.25515 C 266.24887 226.6203 267.19214 224.27712 267.04816 221.87157 Z"
                     stroke="black"
                     stroke-linecap="round"
                     stroke-linejoin="round"
                     stroke-width="2"/>
            </g>
            <g>
               <path d="M 127.20462 119.71921 C 132.45766 120.00393 138.08351 123.09812 142.70495 128.24431 C 147.32639 133.3905 150.51683 140.11366 151.49524 146.76795 C 152.57488 160.0867 152.46044 173.16418 151.15443 185.71426 C 150.45044 189.88726 153.18045 193.98638 157.2521 194.8699 C 161.32373 195.75342 165.19515 193.08677 165.89915 188.91378 C 166.07885 175.2581 165.988 161.59372 165.62666 147.92942 C 164.84883 138.60324 160.0681 130.00905 152.61327 124.53556 C 145.15843 119.06207 135.82406 117.2927 127.20462 119.71921 Z"/>
               <path d="M 127.20462 119.71921 C 132.45766 120.00393 138.08351 123.09812 142.70495 128.24431 C 147.32639 133.3905 150.51683 140.11366 151.49524 146.76795 C 152.57488 160.0867 152.46044 173.16418 151.15443 185.71426 C 150.45044 189.88726 153.18045 193.98638 157.2521 194.8699 C 161.32373 195.75342 165.19515 193.08677 165.89915 188.91378 C 166.07885 175.2581 165.988 161.59372 165.62666 147.92942 C 164.84883 138.60324 160.0681 130.00905 152.61327 124.53556 C 145.15843 119.06207 135.82406 117.2927 127.20462 119.71921 Z"
                     stroke="black"
                     stroke-linecap="round"
                     stroke-linejoin="round"
                     stroke-width="2"/>
            </g>
            <g>
               <path d="M 149.08778 107.68629 C 154.03908 108.87487 159.12489 113.17235 163.1003 119.52683 C 167.07572 125.8813 169.57382 133.70626 169.98315 141.08635 C 169.97516 155.71031 168.85578 169.87369 166.64948 183.26674 C 165.75398 187.64077 168.01883 192.42838 171.74711 194.04253 C 175.4754 195.65668 179.2995 193.50526 180.3543 189.20019 C 181.5849 174.42116 182.5601 159.58744 183.27926 144.70858 C 183.267 134.4626 179.40729 124.341 172.7731 117.15754 C 166.1389 109.97408 157.43748 106.49457 149.08778 107.68629 Z"/>
               <path d="M 149.08778 107.68629 C 154.03908 108.87487 159.12489 113.17235 163.1003 119.52683 C 167.07572 125.8813 169.57382 133.70626 169.98315 141.08635 C 169.97516 155.71031 168.85578 169.87369 166.64948 183.26674 C 165.75398 187.64077 168.01883 192.42838 171.74711 194.04253 C 175.4754 195.65668 179.2995 193.50526 180.3543 189.20019 C 181.5849 174.42116 182.5601 159.58744 183.27926 144.70858 C 183.267 134.4626 179.40729 124.341 172.7731 117.15754 C 166.1389 109.97408 157.43748 106.49457 149.08778 107.68629 Z"
                     stroke="black"
                     stroke-linecap="round"
                     stroke-linejoin="round"
                     stroke-width="2"/>
            </g>
            <g>
               <path d="M 178.44342 103.32585 C 182.81957 106.27066 186.48313 112.90597 188.53738 121.60766 C 190.59163 130.30934 190.84697 140.27428 189.2409 149.06333 C 185.2788 166.22292 180.38676 182.49355 174.67175 197.51934 C 172.54154 202.382 173.36725 208.84298 176.51602 211.95034 C 179.66478 215.0577 183.94423 213.63475 186.07444 208.7721 C 191.23476 191.81482 196.1676 174.71349 200.86978 157.4791 C 203.62773 145.45212 202.70246 132.36636 198.35114 121.85917 C 193.99982 111.35197 186.68629 104.54336 178.44342 103.32585 Z"/>
               <path d="M 178.44342 103.32585 C 182.81957 106.27066 186.48313 112.90597 188.53738 121.60766 C 190.59163 130.30934 190.84697 140.27428 189.2409 149.06333 C 185.2788 166.22292 180.38676 182.49355 174.67175 197.51934 C 172.54154 202.382 173.36725 208.84298 176.51602 211.95034 C 179.66478 215.0577 183.94423 213.63475 186.07444 208.7721 C 191.23476 191.81482 196.1676 174.71349 200.86978 157.4791 C 203.62773 145.45212 202.70246 132.36636 198.35114 121.85917 C 193.99982 111.35197 186.68629 104.54336 178.44342 103.32585 Z"
                     stroke="black"
                     stroke-linecap="round"
                     stroke-linejoin="round"
                     stroke-width="2"/>
            </g>
            <g>
               <path d="M 238.47844 132.06913 C 240.95453 137.00931 240.9894 144.02037 238.57448 151.3862 C 236.15958 158.75202 231.5178 165.79279 225.7853 170.78512 C 213.85526 179.9833 201.52753 187.95043 189.07173 194.51228 C 184.7896 196.44883 182.3709 201.4528 183.6694 205.68898 C 184.96791 209.92515 189.4919 211.78937 193.77404 209.85282 C 206.67977 201.59074 219.45236 193.078 232.0836 184.32008 C 240.42829 177.85993 245.99463 168.22125 247.2354 158.08318 C 248.47617 147.9451 245.25912 138.3883 238.47844 132.06913 Z"/>
               <path d="M 238.47844 132.06913 C 240.95453 137.00931 240.9894 144.02037 238.57448 151.3862 C 236.15958 158.75202 231.5178 165.79279 225.7853 170.78512 C 213.85526 179.9833 201.52753 187.95043 189.07173 194.51228 C 184.7896 196.44883 182.3709 201.4528 183.6694 205.68898 C 184.96791 209.92515 189.4919 211.78937 193.77404 209.85282 C 206.67977 201.59074 219.45236 193.078 232.0836 184.32008 C 240.42829 177.85993 245.99463 168.22125 247.2354 158.08318 C 248.47617 147.9451 245.25912 138.3883 238.47844 132.06913 Z"
                     stroke="black"
                     stroke-linecap="round"
                     stroke-linejoin="round"
                     stroke-width="2"/>
            </g>
            <g>
               <path d="M 256.94537 153.87397 C 258.01568 159.4202 256.08654 166.374 251.63017 173.03317 C 247.1738 179.69232 240.60154 185.44218 233.5222 188.87522 C 219.12446 194.83987 204.67726 199.4807 190.4965 202.69623 C 185.76933 203.55036 182.05782 207.83153 182.15664 212.31615 C 182.25545 216.80077 186.12808 219.8323 190.85856 219.12812 C 205.96244 214.34816 221.00458 209.28483 235.9753 203.94138 C 246.05467 199.74297 254.27067 191.66358 258.33945 181.94908 C 262.40824 172.23458 261.8961 161.92053 256.94537 153.87397 Z"/>
               <path d="M 256.94537 153.87397 C 258.01568 159.4202 256.08654 166.374 251.63017 173.03317 C 247.1738 179.69232 240.60154 185.44218 233.5222 188.87522 C 219.12446 194.83987 204.67726 199.4807 190.4965 202.69623 C 185.76933 203.55036 182.05782 207.83153 182.15664 212.31615 C 182.25545 216.80077 186.12808 219.8323 190.85856 219.12812 C 205.96244 214.34816 221.00458 209.28483 235.9753 203.94138 C 246.05467 199.74297 254.27067 191.66358 258.33945 181.94908 C 262.40824 172.23458 261.8961 161.92053 256.94537 153.87397 Z"
                     stroke="black"
                     stroke-linecap="round"
                     stroke-linejoin="round"
                     stroke-width="2"/>
            </g>
            <g>
               <path d="M 208.00425 112.45805 C 211.89243 115.9009 214.4048 122.17384 214.92634 129.74129 C 215.44788 137.30874 213.93047 145.47221 210.74554 152.23336 C 203.6947 165.2364 195.86436 177.29378 187.42584 188.14172 C 184.4987 191.59844 184.22645 196.96253 186.81374 200.20168 C 189.40102 203.44084 193.89436 203.36135 196.91601 200.02297 C 205.14211 187.47158 213.16444 174.7484 220.97783 161.86164 C 225.90035 152.74325 227.29712 141.88138 224.77985 132.29557 C 222.26257 122.70975 216.09962 115.42192 208.00425 112.45805 Z"/>
               <path d="M 208.00425 112.45805 C 211.89243 115.9009 214.4048 122.17384 214.92634 129.74129 C 215.44788 137.30874 213.93047 145.47221 210.74554 152.23336 C 203.6947 165.2364 195.86436 177.29378 187.42584 188.14172 C 184.4987 191.59844 184.22645 196.96253 186.81374 200.20168 C 189.40102 203.44084 193.89436 203.36135 196.91601 200.02297 C 205.14211 187.47158 213.16444 174.7484 220.97783 161.86164 C 225.90035 152.74325 227.29712 141.88138 224.77985 132.29557 C 222.26257 122.70975 216.09962 115.42192 208.00425 112.45805 Z"
                     stroke="black"
                     stroke-linecap="round"
                     stroke-linejoin="round"
                     stroke-width="2"/>
            </g>
            <g>
               <path d="M 268.00274 179.04796 C 267.7208 184.374 264.26085 190.4322 258.46964 195.73996 C 252.67843 201.04772 245.09038 205.1152 237.56255 206.94696 C 222.48755 209.73242 207.67547 211.28512 193.4503 211.5711 C 188.78196 211.50246 184.30208 214.74567 183.3522 218.88163 C 182.4023 223.01758 185.32867 226.53855 189.94854 226.81825 C 205.41423 225.26352 220.88767 223.4353 236.3589 221.33477 C 246.91665 219.365 256.6133 213.45634 262.7532 205.25138 C 268.8931 197.04642 270.82165 187.4199 268.00274 179.04796 Z"/>
               <path d="M 268.00274 179.04796 C 267.7208 184.374 264.26085 190.4322 258.46964 195.73996 C 252.67843 201.04772 245.09038 205.1152 237.56255 206.94696 C 222.48755 209.73242 207.67547 211.28512 193.4503 211.5711 C 188.78196 211.50246 184.30208 214.74567 183.3522 218.88163 C 182.4023 223.01758 185.32867 226.53855 189.94854 226.81825 C 205.41423 225.26352 220.88767 223.4353 236.3589 221.33477 C 246.91665 219.365 256.6133 213.45634 262.7532 205.25138 C 268.8931 197.04642 270.82165 187.4199 268.00274 179.04796 Z"
                     stroke="black"
                     stroke-linecap="round"
                     stroke-linejoin="round"
                     stroke-width="2"/>
            </g>
            <g>
               <path d="M 189.79271 220.93004 C 191.49025 223.26216 193.19464 225.58873 194.90584 227.90973 C 202.73192 237.38368 213.96123 242.86013 225.47234 242.81676 C 236.98345 242.7734 247.5493 237.21485 254.23286 227.68623 C 248.82436 231.58266 240.92197 232.73618 232.4601 230.8644 C 223.99822 228.99264 215.7579 224.26835 209.75623 217.848 C 207.94183 215.6428 206.16258 213.4181 204.41954 211.17516 C 200.97165 209.10111 196.8918 209.08381 193.82331 211.13023 C 190.75484 213.17665 189.20294 216.94987 189.79271 220.93004 Z"/>
               <path d="M 189.79271 220.93004 C 191.49025 223.26216 193.19464 225.58873 194.90584 227.90973 C 202.73192 237.38368 213.96123 242.86013 225.47234 242.81676 C 236.98345 242.7734 247.5493 237.21485 254.23286 227.68623 C 248.82436 231.58266 240.92197 232.73618 232.4601 230.8644 C 223.99822 228.99264 215.7579 224.26835 209.75623 217.848 C 207.94183 215.6428 206.16258 213.4181 204.41954 211.17516 C 200.97165 209.10111 196.8918 209.08381 193.82331 211.13023 C 190.75484 213.17665 189.20294 216.94987 189.79271 220.93004 Z"
                     stroke="black"
                     stroke-linecap="round"
                     stroke-linejoin="round"
                     stroke-width="2"/>
            </g>
            <g>
               <g  id="feature-2">
                  <path
                        d="M 158.38884 148.04434 L 161.0253 190.78033 L 163.40892 190.75537 C 162.79463 176.21287 161.80463 161.75434 160.43999 147.39515 C 158.76784 135.92158 152.35847 126.55265 142.81152 121.62666 C 151.1906 127.63736 156.718 137.0113 158.38884 148.04434 Z"
                        fill="#ff0000"/>
               </g>
               <path d="M 158.38884 148.04434 L 161.0253 190.78033 L 163.40892 190.75537 C 162.79463 176.21287 161.80463 161.75434 160.43999 147.39515 C 158.76784 135.92158 152.35847 126.55265 142.81152 121.62666 C 151.1906 127.63736 156.718 137.0113 158.38884 148.04434 Z"
                     stroke="black"
                     stroke-linecap="round"
                     stroke-linejoin="round"
                     stroke-width="2"/>
            </g>
            <g>
               <g  id="feature-3">
                  <path
                        d="M 175.00177 141.60165 L 173.79075 186.7017 L 176.29153 186.88542 C 176.99993 171.56553 177.30637 156.29982 177.21052 141.10452 C 176.52368 128.91356 170.67393 118.50251 161.12058 112.46857 C 169.34973 119.53467 174.27518 129.87194 175.00177 141.60165 Z"
                        fill="#ff0000"/>
               </g>
               <path d="M 175.00177 141.60165 L 173.79075 186.7017 L 176.29153 186.88542 C 176.99993 171.56553 177.30637 156.29982 177.21052 141.10452 C 176.52368 128.91356 170.67393 118.50251 161.12058 112.46857 C 169.34973 119.53467 174.27518 129.87194 175.00177 141.60165 Z"
                     stroke="black"
                     stroke-linecap="round"
                     stroke-linejoin="round"
                     stroke-width="2"/>
            </g>
            <g>
               <g  id="feature-4">
                  <path
                        d="M 194.59298 144.16851 L 182.8876 194.43414 L 185.64766 195.26108 C 189.95586 178.259 193.8015 161.2184 197.18053 144.15744 C 199.21014 130.31664 195.04791 117.19645 185.73246 108.07075 C 193.32772 118.02674 196.47173 130.83547 194.59298 144.16851 Z"
                        fill="#ff0000"/>
               </g>
               <path d="M 194.59298 144.16851 L 182.8876 194.43414 L 185.64766 195.26108 C 189.95586 178.259 193.8015 161.2184 197.18053 144.15744 C 199.21014 130.31664 195.04791 117.19645 185.73246 108.07075 C 193.32772 118.02674 196.47173 130.83547 194.59298 144.16851 Z"
                     stroke="black"
                     stroke-linecap="round"
                     stroke-linejoin="round"
                     stroke-width="2"/>
            </g>
            <g>
               <g  id="feature-5">
                  <path
                        d="M 226.84076 176.92102 L 192.3225 202.2101 L 193.12576 204.60136 C 204.96405 196.28468 216.60947 187.63248 228.04963 178.65399 C 236.99843 170.89025 242.64904 159.45039 243.59132 147.18929 C 241.36764 158.84232 235.42406 169.392 226.84076 176.92102 Z"
                        fill="#ff0000"/>
               </g>
               <path d="M 226.84076 176.92102 L 192.3225 202.2101 L 193.12576 204.60136 C 204.96405 196.28468 216.60947 187.63248 228.04963 178.65399 C 236.99843 170.89025 242.64904 159.45039 243.59132 147.18929 C 241.36764 158.84232 235.42406 169.392 226.84076 176.92102 Z"
                     stroke="black"
                     stroke-linecap="round"
                     stroke-linejoin="round"
                     stroke-width="2"/>
            </g>
            <g>
               <g  id="outline-0">
                  <path
                        d="M 235.24112 193.3377 L 195.65967 209.70735 L 195.7721 212.25878 C 209.24962 206.9907 222.63553 201.34587 235.91558 195.3303 C 246.50677 189.90228 254.97323 180.05438 259.2022 168.24406 C 253.9255 179.1449 245.42328 188.04897 235.24112 193.3377 Z"
                        fill="black"/>
               </g>
            </g>
            <g>
               <g  id="feature-6">
                  <path
                        d="M 214.46685 157.67775 L 191.09693 193.51995 L 192.89568 195.1722 C 201.05962 183.17652 208.8922 170.9835 216.38505 158.60611 C 221.93532 148.30923 222.68886 136.35633 218.45767 125.7298 C 221.17115 136.39647 219.7551 147.73241 214.46685 157.67775 Z"
                        fill="#ff0000"/>
               </g>
               <path d="M 214.46685 157.67775 L 191.09693 193.51995 L 192.89568 195.1722 C 201.05962 183.17652 208.8922 170.9835 216.38505 158.60611 C 221.93532 148.30923 222.68886 136.35633 218.45767 125.7298 C 221.17115 136.39647 219.7551 147.73241 214.46685 157.67775 Z"
                     stroke="black"
                     stroke-linecap="round"
                     stroke-linejoin="round"
                     stroke-width="2"/>
            </g>
            <g>
               <g  id="feature-7">
                  <path
                        d="M 230.9672 213.53543 L 188.09554 214.58275 L 187.20404 216.99263 C 201.6821 216.92584 216.2227 216.4756 230.8103 215.64238 C 242.68947 214.38582 254.3317 208.25552 262.83186 198.7812 C 253.7192 207.02968 242.4128 212.26486 230.9672 213.53543 Z"
                        fill="#ff0000"/>
               </g>
               <path d="M 230.9672 213.53543 L 188.09554 214.58275 L 187.20404 216.99263 C 201.6821 216.92584 216.2227 216.4756 230.8103 215.64238 C 242.68947 214.38582 254.3317 208.25552 262.83186 198.7812 C 253.7192 207.02968 242.4128 212.26486 230.9672 213.53543 Z"
                     stroke="black"
                     stroke-linecap="round"
                     stroke-linejoin="round"
                     stroke-width="2"/>
            </g>
            <g>
               <g  id="feature-8">
                  <path
                        d="M 205.14302 229.2323 L 203.44097 231.54934 C 214.6141 238.24077 228.74215 239.2016 242.43937 234.20158 C 229.10107 237.3378 215.90792 235.57998 205.14302 229.2323 Z"
                        fill="#ff0000"/>
               </g>
               <path d="M 205.14302 229.2323 L 203.44097 231.54934 C 214.6141 238.24077 228.74215 239.2016 242.43937 234.20158 C 229.10107 237.3378 215.90792 235.57998 205.14302 229.2323 Z"
                     stroke="black"
                     stroke-linecap="round"
                     stroke-linejoin="round"
                     stroke-width="2"/>
            </g>
            <g>
               <path d="M 126.30784 304.76283 L 126.28909 304.65033 C 133.24765 297.2811 135.20333 286.50037 131.2766 277.1565 C 135.54969 286.43407 133.6112 297.3898 126.41409 304.63783 C 126.37881 304.6796 126.3434 304.72128 126.30784 304.76283 C 127.50404 314.07917 135.81539 320.80754 145.17663 320.03786 C 146.9182 321.0406 147.7591 323.0959 147.21987 325.03182 C 146.68064 326.96775 144.89831 328.29236 142.88913 328.2504 L 129.87035 328.3879 C 127.23847 327.30875 124.22172 327.82366 122.0968 329.7147 C 119.97189 331.60572 119.11026 334.5423 119.87657 337.28165 C 118.58601 338.02475 117.31675 338.80423 116.07031 339.61916 C 117.47108 344.2877 121.77748 347.47744 126.65159 347.45668 C 129.77543 344.4119 133.49198 342.042 137.57036 340.49416 C 160.58451 337.7896 182.65383 329.7677 202.03301 317.06286 C 201.9913 317.0618 201.9496 317.06543 201.9087 317.07373 C 202.8848 316.0269 203.96753 315.08483 205.13927 314.26285 C 212.61515 308.8099 222.84804 309.16595 229.92683 315.12535 C 240.451 325.69618 256.40318 328.6838 270.03942 322.63787 C 273.18156 327.04823 277.41868 330.56372 282.3332 332.8379 L 293.67072 353.6442 C 292.7984 355.38284 292.01408 357.16426 291.32072 358.9817 C 295.57546 358.37116 299.8902 359.58546 303.202 362.32546 C 305.8296 362.67206 308.39636 361.3514 309.64192 359.01196 C 310.8875 356.6725 310.55023 353.8057 308.79576 351.8192 C 301.7312 348.664 296.79665 342.08458 295.74573 334.41915 C 299.52984 327.77117 298.28057 319.39797 292.72072 314.1441 C 291.03113 312.6892 288.7419 312.1419 286.57696 312.67535 C 283.48943 311.71182 280.99132 309.42346 279.7614 306.43205 C 278.5315 303.44065 278.69756 300.05692 280.21444 297.2003 C 278.04034 281.49827 267.97243 268.0052 253.53938 261.45023 C 257.37593 261.74755 261.1301 260.22993 263.68227 257.35 C 266.23443 254.47008 267.28963 250.56065 266.53316 246.7877 C 264.12003 242.10802 264.71158 236.44287 268.0394 232.36266 C 269.98818 228.62906 274.1775 226.64155 278.30194 227.4939 C 282.43596 229.0135 284.6201 233.53766 283.23883 237.71992 C 281.85755 241.9022 277.40853 244.2356 273.18264 242.99415 C 268.95675 241.7527 266.4767 237.38374 267.5769 233.1189 C 264.96964 236.54308 264.36817 241.09096 265.99566 245.0752 C 270.08836 248.8687 275.96067 250.051 281.20253 248.13687 C 286.4444 246.22273 290.173 241.53451 290.85808 235.99632 C 291.54317 230.45812 289.06937 225.00264 284.45195 221.86889 C 280.18866 219.03617 274.90592 218.19287 269.9726 219.55751 C 265.03926 220.92215 260.94088 224.36042 258.7394 228.9814 C 256.74255 232.98504 255.49895 237.32175 255.07064 241.77518 C 254.57572 245.94657 252.42774 249.74494 249.10812 252.31896 C 238.8593 246.7286 227.9047 242.5431 216.5393 239.87518 C 215.52328 237.44452 213.77396 235.4487 211.48303 234.1064 C 217.38183 234.50394 223.59714 232.81108 229.01432 229.3314 C 226.3954 224.901 221.49998 222.31178 215.8268 222.35639 C 215.6617 222.36413 215.49707 222.3683 215.33304 222.36889 C 215.49795 222.3625 215.66255 222.35834 215.8268 222.35639 C 220.54057 222.1538 225.11364 219.07833 227.22057 214.69387 C 223.42332 211.87832 218.35157 210.83163 213.10804 211.78136 C 218.77324 209.65335 224.03854 206.28554 228.43932 201.9751 C 223.12432 199.54902 216.31226 200.47904 210.81428 204.38134 C 210.66908 204.4885 210.52324 204.59475 210.37678 204.7001 C 210.5213 204.59197 210.66714 204.4857 210.81428 204.38134 C 215.68467 200.78615 219.7626 196.2363 222.69556 191.12506 C 217.0824 189.66977 210.57388 191.3117 205.52677 195.45632 C 205.04261 195.91213 204.54871 196.3581 204.04552 196.79383 C 204.51833 196.32661 205.0128 195.88014 205.52677 195.45632 C 209.67204 191.57149 213.0563 187.01584 215.45804 182.08754 C 208.53716 183.74446 201.75625 186.4602 195.38925 190.12506 C 197.52697 186.05544 198.71504 181.7163 198.858 177.45628 C 192.65292 178.58263 186.84366 182.32735 183.08297 187.62506 C 183.68023 181.77492 182.80545 176.11245 180.53296 171.11877 C 175.74686 174.52924 171.3501 178.46783 167.45793 182.8313 C 166.53121 175.45304 162.4022 169.28249 156.02878 165.75114 C 149.65536 162.2198 141.59147 161.63458 133.70785 164.13125 C 141.85986 165.12104 147.7058 170.96203 148.47039 178.88129 L 142.79537 202.5876 C 141.54185 205.99957 141.93505 209.51484 143.85888 212.09547 C 145.7827 214.6761 149.0174 216.0273 152.6079 215.75012 L 163.85792 216.00637 C 168.50177 216.6589 172.23637 219.40944 174.03604 223.50256 C 175.8357 227.59569 175.51122 232.60103 173.1517 237.14392 C 172.1044 237.25414 171.0585 237.37706 170.01419 237.51267 C 171.56109 232.03953 170.23991 226.15535 166.50168 221.86889 C 165.53408 228.31254 162.71823 234.3372 158.39541 239.21268 C 160.12685 233.23491 160.05074 226.87847 158.17666 220.94388 C 157.21955 228.56708 153.62676 235.61558 148.02039 240.86893 C 150.02641 233.99057 149.90878 226.66677 147.68289 219.85638 C 146.11351 228.43598 142.323 236.45447 136.68911 243.11268 C 138.0394 236.33254 138.15162 229.364 137.02036 222.5439 C 135.72065 230.36078 132.17939 237.6322 126.82659 243.4752 L 124.95783 227.8564 C 124.56995 235.3392 121.97552 242.53968 117.50157 248.5502 C 116.02511 249.1019 114.51851 249.56932 112.98906 249.9502 C 116.05149 239.4429 110.34859 228.37774 100.01403 224.77514 C 102.35846 226.07832 103.87426 228.48928 104.03259 231.1669 C 104.19092 233.8445 102.9698 236.4173 100.79528 237.98767 C 97.40235 240.2332 95.3428 244.01423 95.29648 248.08266 C 95.25016 252.1511 97.2231 255.97804 100.56403 258.30022 L 62.45144 283.68153 C 57.06442 286.6213 50.55304 286.62364 45.1639 283.68778 C 45.629023 281.83066 44.531414 279.94073 42.68788 279.4244 C 40.844343 278.90808 38.924764 279.95298 38.357633 281.78152 C 37.74096 288.15973 39.793123 294.50854 44.026396 299.31906 C 57.45309 299.33378 70.87873 299.07956 84.29524 298.55656 C 75.98367 302.13612 67.31664 304.8261 58.43893 306.5816 C 56.926046 306.8216 55.67751 307.8936 55.21138 309.35278 C 54.745245 310.81194 55.14107 312.40924 56.23461 313.4819 C 57.32815 314.55456 58.93278 314.91952 60.382684 314.42535 C 66.89653 313.66684 73.31944 312.26628 79.55773 310.2441 C 83.8648 307.6953 88.95339 306.80424 93.87026 307.73783 C 103.84953 315.19813 117.85208 313.9139 126.30784 304.76283 Z M 202.03301 317.06286 L 202.03926 317.0566 Z M 202.03301 317.0566 C 211.2703 315.723 220.5939 315.07746 229.92683 315.12535 C 222.787 309.32675 212.66488 308.97455 205.13927 314.26285 C 204.0118 315.084 202.97285 316.0203 202.03926 317.0566 Z"/>
            </g>
            <g>
               <path d="M 126.30784 304.76283 L 126.28909 304.65033 C 133.24765 297.2811 135.20333 286.50037 131.2766 277.1565 C 135.54969 286.43407 133.6112 297.3898 126.41409 304.63783 C 126.37881 304.6796 126.3434 304.72128 126.30784 304.76283 C 127.50404 314.07917 135.81539 320.80754 145.17663 320.03786 C 146.9182 321.0406 147.7591 323.0959 147.21987 325.03182 C 146.68064 326.96775 144.89831 328.29236 142.88913 328.2504 L 129.87035 328.3879 C 127.23847 327.30875 124.22172 327.82366 122.0968 329.7147 C 119.97189 331.60572 119.11026 334.5423 119.87657 337.28165 C 118.58601 338.02475 117.31675 338.80423 116.07031 339.61916 C 117.47108 344.2877 121.77748 347.47744 126.65159 347.45668 C 129.77543 344.4119 133.49198 342.042 137.57036 340.49416 C 160.58451 337.7896 182.65383 329.7677 202.03301 317.06286 C 201.9913 317.0618 201.9496 317.06543 201.9087 317.07373 C 202.8848 316.0269 203.96753 315.08483 205.13927 314.26285 C 212.61515 308.8099 222.84804 309.16595 229.92683 315.12535 C 240.451 325.69618 256.40318 328.6838 270.03942 322.63787 C 273.18156 327.04823 277.41868 330.56372 282.3332 332.8379 L 293.67072 353.6442 C 292.7984 355.38284 292.01408 357.16426 291.32072 358.9817 C 295.57546 358.37116 299.8902 359.58546 303.202 362.32546 C 305.8296 362.67206 308.39636 361.3514 309.64192 359.01196 C 310.8875 356.6725 310.55023 353.8057 308.79576 351.8192 C 301.7312 348.664 296.79665 342.08458 295.74573 334.41915 C 299.52984 327.77117 298.28057 319.39797 292.72072 314.1441 C 291.03113 312.6892 288.7419 312.1419 286.57696 312.67535 C 283.48943 311.71182 280.99132 309.42346 279.7614 306.43205 C 278.5315 303.44065 278.69756 300.05692 280.21444 297.2003 C 278.04034 281.49827 267.97243 268.0052 253.53938 261.45023 C 257.37593 261.74755 261.1301 260.22993 263.68227 257.35 C 266.23443 254.47008 267.28963 250.56065 266.53316 246.7877 C 264.12003 242.10802 264.71158 236.44287 268.0394 232.36266 C 269.98818 228.62906 274.1775 226.64155 278.30194 227.4939 C 282.43596 229.0135 284.6201 233.53766 283.23883 237.71992 C 281.85755 241.9022 277.40853 244.2356 273.18264 242.99415 C 268.95675 241.7527 266.4767 237.38374 267.5769 233.1189 C 264.96964 236.54308 264.36817 241.09096 265.99566 245.0752 C 270.08836 248.8687 275.96067 250.051 281.20253 248.13687 C 286.4444 246.22273 290.173 241.53451 290.85808 235.99632 C 291.54317 230.45812 289.06937 225.00264 284.45195 221.86889 C 280.18866 219.03617 274.90592 218.19287 269.9726 219.55751 C 265.03926 220.92215 260.94088 224.36042 258.7394 228.9814 C 256.74255 232.98504 255.49895 237.32175 255.07064 241.77518 C 254.57572 245.94657 252.42774 249.74494 249.10812 252.31896 C 238.8593 246.7286 227.9047 242.5431 216.5393 239.87518 C 215.52328 237.44452 213.77396 235.4487 211.48303 234.1064 C 217.38183 234.50394 223.59714 232.81108 229.01432 229.3314 C 226.3954 224.901 221.49998 222.31178 215.8268 222.35639 C 215.6617 222.36413 215.49707 222.3683 215.33304 222.36889 C 215.49795 222.3625 215.66255 222.35834 215.8268 222.35639 C 220.54057 222.1538 225.11364 219.07833 227.22057 214.69387 C 223.42332 211.87832 218.35157 210.83163 213.10804 211.78136 C 218.77324 209.65335 224.03854 206.28554 228.43932 201.9751 C 223.12432 199.54902 216.31226 200.47904 210.81428 204.38134 C 210.66908 204.4885 210.52324 204.59475 210.37678 204.7001 C 210.5213 204.59197 210.66714 204.4857 210.81428 204.38134 C 215.68467 200.78615 219.7626 196.2363 222.69556 191.12506 C 217.0824 189.66977 210.57388 191.3117 205.52677 195.45632 C 205.04261 195.91213 204.54871 196.3581 204.04552 196.79383 C 204.51833 196.32661 205.0128 195.88014 205.52677 195.45632 C 209.67204 191.57149 213.0563 187.01584 215.45804 182.08754 C 208.53716 183.74446 201.75625 186.4602 195.38925 190.12506 C 197.52697 186.05544 198.71504 181.7163 198.858 177.45628 C 192.65292 178.58263 186.84366 182.32735 183.08297 187.62506 C 183.68023 181.77492 182.80545 176.11245 180.53296 171.11877 C 175.74686 174.52924 171.3501 178.46783 167.45793 182.8313 C 166.53121 175.45304 162.4022 169.28249 156.02878 165.75114 C 149.65536 162.2198 141.59147 161.63458 133.70785 164.13125 C 141.85986 165.12104 147.7058 170.96203 148.47039 178.88129 L 142.79537 202.5876 C 141.54185 205.99957 141.93505 209.51484 143.85888 212.09547 C 145.7827 214.6761 149.0174 216.0273 152.6079 215.75012 L 163.85792 216.00637 C 168.50177 216.6589 172.23637 219.40944 174.03604 223.50256 C 175.8357 227.59569 175.51122 232.60103 173.1517 237.14392 C 172.1044 237.25414 171.0585 237.37706 170.01419 237.51267 C 171.56109 232.03953 170.23991 226.15535 166.50168 221.86889 C 165.53408 228.31254 162.71823 234.3372 158.39541 239.21268 C 160.12685 233.23491 160.05074 226.87847 158.17666 220.94388 C 157.21955 228.56708 153.62676 235.61558 148.02039 240.86893 C 150.02641 233.99057 149.90878 226.66677 147.68289 219.85638 C 146.11351 228.43598 142.323 236.45447 136.68911 243.11268 C 138.0394 236.33254 138.15162 229.364 137.02036 222.5439 C 135.72065 230.36078 132.17939 237.6322 126.82659 243.4752 L 124.95783 227.8564 C 124.56995 235.3392 121.97552 242.53968 117.50157 248.5502 C 116.02511 249.1019 114.51851 249.56932 112.98906 249.9502 C 116.05149 239.4429 110.34859 228.37774 100.01403 224.77514 C 102.35846 226.07832 103.87426 228.48928 104.03259 231.1669 C 104.19092 233.8445 102.9698 236.4173 100.79528 237.98767 C 97.40235 240.2332 95.3428 244.01423 95.29648 248.08266 C 95.25016 252.1511 97.2231 255.97804 100.56403 258.30022 L 62.45144 283.68153 C 57.06442 286.6213 50.55304 286.62364 45.1639 283.68778 C 45.629023 281.83066 44.531414 279.94073 42.68788 279.4244 C 40.844343 278.90808 38.924764 279.95298 38.357633 281.78152 C 37.74096 288.15973 39.793123 294.50854 44.026396 299.31906 C 57.45309 299.33378 70.87873 299.07956 84.29524 298.55656 C 75.98367 302.13612 67.31664 304.8261 58.43893 306.5816 C 56.926046 306.8216 55.67751 307.8936 55.21138 309.35278 C 54.745245 310.81194 55.14107 312.40924 56.23461 313.4819 C 57.32815 314.55456 58.93278 314.91952 60.382684 314.42535 C 66.89653 313.66684 73.31944 312.26628 79.55773 310.2441 C 83.8648 307.6953 88.95339 306.80424 93.87026 307.73783 C 103.84953 315.19813 117.85208 313.9139 126.30784 304.76283 M 202.03301 317.06286 L 202.03926 317.0566 M 202.03301 317.0566 C 211.2703 315.723 220.5939 315.07746 229.92683 315.12535 C 222.787 309.32675 212.66488 308.97455 205.13927 314.26285 C 204.0118 315.084 202.97285 316.0203 202.03926 317.0566"
                     stroke="black"
                     stroke-linecap="round"
                     stroke-linejoin="round"
                     stroke-width="2"/>
            </g>
            <g>
               <g  id="feature-9">
                  <path
                        d="M 58.56835 306.59784 C 52.82923 299.45254 49.431563 289.25082 49.28285 278.7175 C 49.13414 268.1842 52.24953 258.39226 57.796916 251.95703 C 52.82176 269.8336 57.85575 291.06757 69.709065 302.2039 C 67.399545 307.39295 62.712236 309.24165 58.56835 306.59784 Z"
                        fill="#ff0000"/>
               </g>
               <path d="M 58.56835 306.59784 C 52.82923 299.45254 49.431563 289.25082 49.28285 278.7175 C 49.13414 268.1842 52.24953 258.39226 57.796916 251.95703 C 52.82176 269.8336 57.85575 291.06757 69.709065 302.2039 C 67.399545 307.39295 62.712236 309.24165 58.56835 306.59784 Z"
                     stroke="black"
                     stroke-linecap="round"
                     stroke-linejoin="round"
                     stroke-width="2"/>
            </g>
            <g>
               <path d="M 175.18906 330.93628 C 181.17515 326.8152 182.79617 318.67956 178.84679 312.57884 C 175.30296 307.6373 174.73596 301.15647 177.36786 295.67462"
                     stroke="black"
                     stroke-linecap="round"
                     stroke-linejoin="round"
                     stroke-width="2"/>
            </g>
            <g>
               <path d="M 236.14797 286.02143 C 234.0105 289.68496 232.58215 295.9098 232.3394 302.6196 C 232.09664 309.32942 233.07142 315.6412 234.93857 319.44963"
                     stroke="black"
                     stroke-linecap="round"
                     stroke-linejoin="round"
                     stroke-width="2"/>
            </g>
            <g>
               <path d="M 144.12987 328.143 C 148.07397 326.56625 152.17759 324.11643 155.437 321.39277"
                     stroke="black"
                     stroke-linecap="round"
                     stroke-linejoin="round"
                     stroke-width="2"/>
            </g>
            <g>
               <g  id="feature-10">
                  <path
                        d="M 104.58032 253.25605 C 102.73229 251.0805 101.91576 248.21185 102.34111 245.3892 C 102.76647 242.56656 104.39211 240.06593 106.7992 238.5316 C 104.39854 240.8334 104.28717 244.63504 106.54897 247.07343 C 107.90565 247.85082 108.53564 249.46977 108.06122 250.9597 C 107.58681 252.4496 106.13672 253.40623 104.58032 253.25605 Z"
                        fill="#ff0000"/>
               </g>
               <path d="M 104.58032 253.25605 C 102.73229 251.0805 101.91576 248.21185 102.34111 245.3892 C 102.76647 242.56656 104.39211 240.06593 106.7992 238.5316 C 104.39854 240.8334 104.28717 244.63504 106.54897 247.07343 C 107.90565 247.85082 108.53564 249.46977 108.06122 250.9597 C 107.58681 252.4496 106.13672 253.40623 104.58032 253.25605 Z"
                     stroke="black"
                     stroke-linecap="round"
                     stroke-linejoin="round"
                     stroke-width="2"/>
            </g>
            <g>
               <g  id="feature-11">
                  <path
                        d="M 291.11663 358.8224 C 289.0599 361.79245 287.0687 364.8073 285.1445 367.86486 C 286.57556 370.86697 290.11463 372.21273 293.17885 370.92 L 296.19663 363.89273 L 293.30338 370.9091 C 295.57005 373.65582 299.4392 374.46186 302.61413 372.84876 L 304.50554 362.91483 C 300.7684 359.817 295.94708 358.34334 291.11663 358.8224 Z"
                        fill="#ff0000"/>
               </g>
               <path d="M 291.11663 358.8224 C 289.0599 361.79245 287.0687 364.8073 285.1445 367.86486 C 286.57556 370.86697 290.11463 372.21273 293.17885 370.92 L 296.19663 363.89273 L 293.30338 370.9091 C 295.57005 373.65582 299.4392 374.46186 302.61413 372.84876 L 304.50554 362.91483 C 300.7684 359.817 295.94708 358.34334 291.11663 358.8224 Z"
                     stroke="black"
                     stroke-linecap="round"
                     stroke-linejoin="round"
                     stroke-width="2"/>
            </g>
            <g>
               <g  id="feature-12">
                  <path
                        d="M 114.90113 340.3053 C 112.14579 342.6418 109.44214 345.0386 106.79213 347.4939 C 107.39744 350.76413 110.4676 352.98 113.762 352.5244 L 118.49574 346.51764 L 113.8851 352.5461 C 115.36364 355.7859 118.89233 357.5659 122.37658 356.82947 L 126.77463 347.72357 C 123.9666 343.76406 119.69098 341.09276 114.90113 340.3053 Z"
                        fill="#ff0000"/>
               </g>
               <path d="M 114.90113 340.3053 C 112.14579 342.6418 109.44214 345.0386 106.79213 347.4939 C 107.39744 350.76413 110.4676 352.98 113.762 352.5244 L 118.49574 346.51764 L 113.8851 352.5461 C 115.36364 355.7859 118.89233 357.5659 122.37658 356.82947 L 126.77463 347.72357 C 123.9666 343.76406 119.69098 341.09276 114.90113 340.3053 Z"
                     stroke="black"
                     stroke-linecap="round"
                     stroke-linejoin="round"
                     stroke-width="2"/>
            </g>
            <g>
               <path d="M 85.29957 277.14278 C 86.74213 279.54085 89.31263 281.00275 91.94023 280.91946 C 94.56783 280.83617 96.80192 279.22197 97.7118 276.74933 C 98.62168 274.2767 98.05132 271.36964 96.23832 269.23923 Z"
                     stroke="black"
                     stroke-linecap="round"
                     stroke-linejoin="round"
                     stroke-width="1.5"/>
            </g>
            <g>
               <path d="M 96.42005 269.2545 L 91.2942 272.8742 C 91.28605 273.83393 91.65536 274.7823 92.31477 275.49505 C 92.97419 276.2078 93.86516 276.6216 94.77698 276.6386 C 92.33621 277.4289 89.60601 277.1242 87.22046 275.79532 L 85.34152 277.11097 C 86.72582 279.65536 89.3524 281.26363 92.08002 281.23697 C 94.80764 281.2103 97.14389 279.55354 98.07366 276.98652 C 99.00343 274.4195 98.35887 271.40566 96.42005 269.2545 Z"
                     fill="white"/>
               <path d="M 96.42005 269.2545 L 91.2942 272.8742 C 91.28605 273.83393 91.65536 274.7823 92.31477 275.49505 C 92.97419 276.2078 93.86516 276.6216 94.77698 276.6386 C 92.33621 277.4289 89.60601 277.1242 87.22046 275.79532 L 85.34152 277.11097 C 86.72582 279.65536 89.3524 281.26363 92.08002 281.23697 C 94.80764 281.2103 97.14389 279.55354 98.07366 276.98652 C 99.00343 274.4195 98.35887 271.40566 96.42005 269.2545 Z"
                     stroke="black"
                     stroke-linecap="round"
                     stroke-linejoin="round"
                     stroke-width="2"/>
            </g>
         </g>
      </g>
   </g>
</svg>