<?xml version="1.0" encoding="utf-8"?>
<svg xmlns="http://www.w3.org/2000/svg" xmlns:dc="http://purl.org/dc/elements/1.1/"
     xmlns:xl="http://www.w3.org/1999/xlink"
     xmlns:xlink="http://www.w3.org/1999/xlink"
     version="1.1"
     viewBox="54 61.20833 256.5 344.25"
     width="256.5"
     height="344.25"
     preserveAspectRatio="xMidYMid meet"
     zoomAndPan="magnify"
     contentScriptType="application/ecmascript"
     contentStyleType="text/css">
   <defs/>
   <metadata xmlns="" xmlns:svg="http://www.w3.org/2000/svg"
             xmlns:rdf="http://www.w3.org/1999/02/22-rdf-syntax-ns#"
             xmlns:cc="http://creativecommons.org/ns#">
      <rdf:RDF>
         <cc:Work rdf:about="">
            <dc:creator>
               <cc:Agent>
                  <dc:title>http://heraldicart.org Boar Rampant Regardant.svg</dc:title>
               </cc:Agent>
            </dc:creator>
         </cc:Work>
      </rdf:RDF>
   </metadata>
   <g stroke-opacity="1" stroke-dasharray="none" stroke="#505050" fill="#ffff00"
      fill-opacity="1">
      <title>Boar Rampant Regardant</title>
      <g>
         <title>Layer 2</title>
         <g>
            <g>
               <g  id="outline-0">
                  <path
                        d="M 192.96161 62.5266 C 192.62922 62.85899 192.62922 65.5181 192.85082 68.398806 C 193.0724 71.27951 192.51843 76.37614 191.63206 79.70003 C 190.4133 84.46428 190.0809 85.12905 189.9701 82.46994 C 189.85931 80.14322 188.19737 77.26251 184.76268 73.273845 C 177.56092 64.96412 176.12057 65.407304 176.78535 75.82216 C 177.11773 80.36481 177.00694 84.13189 176.67455 84.13189 C 176.34216 84.02109 173.23986 82.58074 169.91597 80.808 C 163.0466 77.04092 160.49828 76.597735 161.49545 79.25685 C 161.82784 80.254015 162.16023 81.25118 162.16023 81.47277 C 162.16023 81.69437 162.825 81.91596 163.60058 81.91596 C 164.48695 81.91596 167.03527 83.57791 169.362 85.46144 C 171.68871 87.45578 173.90464 89.11772 174.45862 89.11772 C 174.9018 89.11772 175.56659 89.33932 175.89898 89.6717 C 176.23136 90.00409 172.57508 90.33648 167.92164 90.44728 C 155.29085 90.55808 154.40448 90.66887 154.40448 91.88763 C 154.40448 92.55241 155.51245 93.54958 156.9528 94.10356 C 158.28236 94.65754 158.83634 95.10073 158.17156 95.10073 C 157.61758 95.21152 156.06643 95.9871 154.84767 96.98426 C 152.85333 98.64621 152.96413 98.64621 156.842 98.09223 C 162.49262 97.42745 163.0466 98.8678 158.28236 101.74851 C 156.06643 102.96727 154.40448 104.74001 154.62608 105.62638 C 154.84767 106.40195 152.74254 108.72868 150.08343 110.83381 C 144.10042 115.48725 141.9953 118.47875 143.32485 120.58389 C 144.10042 121.91344 144.5436 121.91344 145.98396 120.80548 C 146.98113 119.91911 147.7567 119.47592 147.7567 119.80831 C 147.7567 120.0299 145.76237 125.23733 143.21405 131.22033 C 140.77653 137.31413 137.56344 146.17784 136.23388 151.05288 C 134.01796 158.58703 133.57477 159.3626 132.90999 156.8143 C 132.4668 155.15235 131.69123 153.15801 131.02645 152.49323 C 126.04062 146.39943 110.08594 115.93044 110.08594 112.16336 C 110.08594 110.9446 107.87002 106.62355 103.88135 100.19736 C 102.441 97.75984 100.66825 94.76834 100.11427 93.54958 C 97.01198 87.01259 89.25623 75.82216 87.59429 75.48977 C 86.04314 75.15738 85.71075 76.04375 85.59995 80.47561 C 85.59995 83.35631 85.15677 86.791 84.71358 87.89896 C 83.93801 90.00409 83.82721 90.00409 82.27606 87.89896 C 79.61695 84.24268 67.872535 75.26818 66.653776 75.93296 C 65.54581 76.597735 66.21059 86.34781 67.98333 94.43595 C 68.75891 97.87063 68.53731 98.53541 67.20776 98.31382 C 64.10546 97.75984 64.548645 100.30815 67.65094 101.8593 C 73.07996 104.62921 82.94084 110.9446 83.27323 111.94177 C 83.49482 112.49575 84.1596 112.93894 84.71358 112.93894 C 85.37836 112.93894 86.92951 114.1577 88.25906 115.81964 C 90.58579 118.47875 92.58012 119.36513 97.45516 119.47592 C 99.89268 119.58672 103.32737 124.57255 101.88701 125.90211 C 101.44383 126.45609 98.00914 127.01007 94.24207 127.34246 C 88.36986 127.78565 87.37269 128.22883 87.0403 130.22317 C 86.59712 133.10387 93.2449 141.6352 96.01481 141.6352 C 99.3387 141.74599 108.64559 152.05005 110.30754 157.36827 C 111.19391 160.47057 111.74789 168.33711 111.74789 178.41958 C 111.74789 196.47938 112.41267 198.36292 117.95248 197.69814 C 119.83602 197.47655 121.94115 196.70098 122.82752 196.0362 C 123.6031 195.37142 125.81903 194.37425 127.70256 193.82027 C 131.02645 192.9339 131.13725 192.9339 131.13725 196.59018 C 131.13725 199.69248 130.47247 200.68965 126.4838 203.01637 C 121.71956 205.78628 106.87285 221.63016 106.65126 224.06767 C 106.54046 224.84325 106.54046 226.3944 106.65126 227.72395 C 106.76205 228.94271 105.76489 233.92855 104.43533 238.6928 C 101.99781 247.8889 101.99781 254.86906 104.76772 266.28108 C 106.20807 272.0425 107.98081 273.59364 110.63993 271.3777 C 111.63709 270.60214 112.63426 270.26975 112.96665 270.60214 C 113.29904 270.93453 114.5178 275.2556 115.62576 280.24142 C 118.61726 293.4262 120.6116 294.53415 123.93549 284.78407 C 124.93265 281.79257 126.373 279.02266 127.25938 278.69027 C 129.25371 277.9147 129.25371 262.9572 127.14858 259.5225 C 126.373 258.30375 123.15991 255.53384 120.05762 253.5395 C 114.96098 250.2156 113.52063 248.33208 115.07178 246.78093 C 115.40417 246.44854 117.3985 247.8889 119.39284 249.88322 C 123.04912 253.5395 123.27071 253.6503 126.8162 252.09915 C 132.02362 249.99402 133.46397 245.67296 130.36168 242.34907 C 127.48097 239.24677 125.48664 234.26094 126.26221 232.1558 C 127.03779 230.05068 132.24521 229.3859 143.10326 230.05068 C 150.859 230.60466 152.63174 230.38307 154.40448 228.72112 C 156.50961 226.83758 156.7312 226.94838 161.71704 231.93422 C 166.81367 236.92005 174.34783 240.35474 180.55242 240.35474 C 184.0979 240.35474 184.87348 242.23828 181.54959 243.01385 C 179.99844 243.45704 175.2342 247.00252 171.02394 251.10198 L 163.1574 258.41454 L 166.1489 261.51684 C 167.81084 263.28958 171.24553 266.0595 173.68305 267.72144 C 176.23136 269.38338 178.55809 271.26692 179.00127 271.9317 C 179.44446 272.48568 179.88764 272.59648 179.88764 272.0425 C 179.88764 271.4885 180.8848 271.9317 181.99277 272.92886 C 183.21153 274.03683 184.87348 274.7016 185.64905 274.48 C 186.42463 274.14762 187.64339 274.48 188.30817 275.1448 C 189.19454 275.92037 187.0894 277.8039 180.8848 281.68178 C 171.57792 287.3324 168.47562 290.98867 162.16023 303.50866 C 156.842 313.9235 151.96696 328.10545 153.29652 329.435 C 153.9613 330.09978 154.62608 329.7674 155.06926 328.65943 C 155.40165 327.66226 156.39882 326.7759 157.28519 326.7759 C 158.17156 326.7759 158.83634 326.3327 158.83634 325.8895 C 158.83634 324.67076 166.70288 320.9037 167.47845 321.79005 C 167.81084 322.12244 167.25686 326.9975 166.2597 332.6481 C 164.04377 344.7249 164.04377 345.61127 165.48412 345.61127 C 166.1489 345.61127 167.70005 343.28455 168.9188 340.29304 C 171.24553 334.9748 176.78535 328.77022 179.00127 329.3242 C 179.66605 329.435 180.77401 326.5543 181.54959 322.898 C 182.43596 319.24174 183.87631 314.0343 184.76268 311.3752 C 185.75985 308.7161 186.53542 306.38936 186.53542 306.16777 C 186.53542 305.94618 185.09507 305.0598 183.21153 304.06264 C 179.33366 302.0683 179.00127 300.18477 181.99277 298.30123 C 183.87631 297.08247 184.5411 297.41486 186.9786 300.29556 C 188.52976 302.1791 189.85931 304.28423 189.85931 305.1706 C 189.85931 307.60812 192.85082 309.15927 195.84232 308.3837 C 200.05258 307.38653 201.38214 304.28423 199.277 300.29556 C 197.28267 296.3069 197.17187 291.98584 199.0554 290.5455 C 200.16338 289.5483 206.25717 289.32672 210.13505 290.1023 C 210.57823 290.1023 210.91062 293.86937 210.91062 298.30123 C 210.91062 307.38653 212.35097 313.14794 217.6692 325.33554 C 220.6607 331.9833 221.76866 333.42367 223.6522 333.31287 C 224.87096 333.0913 227.64087 333.42367 229.746 333.97765 C 231.85113 334.53163 234.28865 334.86402 235.06422 334.64243 C 235.729 334.53163 236.39378 334.9748 236.39378 335.6396 C 236.39378 336.19358 237.39095 336.74756 238.6097 336.74756 C 239.82847 336.74756 240.82564 337.07995 240.82564 337.63393 C 240.82564 338.0771 242.1552 339.0743 243.92793 339.84986 C 248.91377 342.28738 253.34562 348.49197 252.45925 351.92666 C 252.12686 353.5886 245.92227 360.67957 238.38812 368.21372 C 227.30848 379.40415 218.66637 389.4866 218.66637 391.25936 C 218.66637 391.92414 223.5414 391.59175 224.76016 390.92698 C 227.0869 389.4866 231.96193 388.82184 231.96193 389.819 C 231.96193 390.4838 229.746 393.4753 226.9761 396.5776 C 222.65503 401.34183 220.9931 404.33333 222.32264 404.33333 C 222.54424 404.33333 227.19768 402.7822 232.5159 400.89865 C 237.94493 399.0151 243.26315 397.79635 244.37112 398.01794 C 245.58988 398.35033 246.36545 398.01794 246.36545 397.13157 C 246.36545 396.356 246.69784 395.46963 247.25182 395.24803 C 247.695 395.13724 249.46775 392.25653 251.1297 389.04344 C 254.232 383.39282 254.232 383.06043 252.34846 381.6201 C 250.5757 380.4013 250.46492 379.84734 251.79447 377.07743 L 253.34562 373.86434 L 254.67518 378.2962 C 255.67235 381.84167 256.55872 382.83884 258.88544 383.06043 C 262.43092 383.5036 262.65252 382.94964 263.3173 372.5348 C 263.76048 365.00063 263.98207 364.33585 267.85994 360.90116 C 270.18667 358.90683 272.6242 357.2449 273.28897 357.2449 C 275.1725 357.2449 276.05887 351.92666 274.39693 350.2647 C 272.73498 348.60277 272.4026 344.0601 273.95374 344.9465 C 274.50772 345.2789 275.1725 344.8357 275.6157 343.94932 C 276.05887 342.84136 273.95374 341.0686 268.7463 337.96632 C 257.4451 331.31854 255.56155 328.77022 254.56438 318.13377 C 254.0104 313.36953 254.3428 311.92918 256.00473 310.37803 C 257.1127 309.27007 258.55305 307.7189 259.10703 306.72175 C 259.7718 305.7246 262.7633 301.18193 265.9764 296.6393 C 269.1895 291.98584 272.0702 287 272.5134 285.33806 C 273.17817 282.45735 275.1725 280.24142 275.1725 282.23576 C 275.1725 283.6761 282.81745 283.23292 285.69816 281.68178 C 286.9169 281.017 288.91125 279.46585 290.0192 278.1363 C 291.12718 276.91753 292.45673 276.14196 292.89992 276.36355 C 293.8971 276.91753 295.55903 273.03966 297.33177 266.1703 C 298.10735 262.9572 298.10735 259.9657 297.33177 256.4202 C 296.113 251.10198 296.4454 245.78376 298.66133 237.36324 C 299.6585 233.37457 299.6585 232.045 298.66133 231.71262 C 297.88575 231.49103 297.33177 229.2751 297.33177 226.83758 C 297.33177 223.2921 296.9994 222.51653 295.66983 223.0705 C 294.34027 223.5137 294.00788 222.62732 294.00788 218.86025 C 294.00788 216.09034 293.6755 213.20963 293.3431 212.21247 C 292.56753 210.10733 289.57603 209.88574 289.46523 211.76928 C 289.46523 212.54485 288.80045 211.65848 288.13568 209.88574 C 285.14417 202.3516 281.8203 199.0277 281.8203 203.57035 C 281.8203 204.67831 281.2663 206.11867 280.49073 206.89424 C 279.49356 207.8914 279.49356 210.66132 280.60152 218.86025 C 281.3771 224.62166 281.7095 229.7183 281.3771 230.16147 C 281.0447 230.49386 280.71232 230.16147 280.71232 229.4967 C 280.71232 228.72112 279.93675 228.16714 279.16117 228.16714 C 277.8316 228.16714 278.164 229.4967 280.26914 234.26094 C 281.8203 237.58483 282.70665 240.79792 282.37427 241.4627 C 281.5987 242.68146 275.83728 239.24677 273.28897 236.14448 C 271.62702 234.15014 271.29463 231.04784 272.84578 231.93422 C 274.39693 232.93138 276.28047 229.93988 275.1725 228.27794 C 274.72932 227.39157 274.50772 226.062 274.8401 225.17564 C 275.1725 224.40006 274.61852 222.51653 273.62135 220.96538 C 272.6242 219.52502 271.8486 217.4199 271.8486 216.31193 C 271.8486 215.20397 269.0787 212.10167 265.7548 209.44256 C 259.21783 204.23513 258.44225 202.57318 263.98207 205.3431 C 267.85994 207.33743 268.52472 207.44822 268.52472 206.11867 C 268.52472 205.56468 266.198 204.01354 263.3173 202.57318 C 260.4366 201.24363 258.66385 199.91407 259.43942 199.58168 C 261.32296 199.0277 261.10137 196.36859 259.10703 195.59301 C 258.22066 195.26062 257.4451 194.04186 257.4451 192.8231 C 257.4451 191.16116 256.44792 190.38558 253.45642 189.8316 C 250.9081 189.38842 249.91094 188.72364 250.5757 188.05886 C 252.68084 185.95373 250.5757 183.9594 245.70067 183.18382 C 243.04156 182.85143 240.82564 182.07586 240.82564 181.52188 C 240.82564 180.9679 241.37962 180.5247 241.9336 180.5247 C 243.70634 180.5247 243.26315 177.5332 241.37962 176.75763 C 240.49325 176.42525 237.16936 175.87126 234.06706 175.42808 C 228.97043 174.7633 228.52724 174.43091 230.18919 173.21215 C 232.7375 171.4394 231.51874 169.44508 227.97326 169.44508 C 226.4221 169.44508 225.53574 169.00189 225.86813 168.33711 C 226.5329 167.22915 222.32264 165.8996 217.4476 165.678 C 215.45327 165.5672 214.7885 165.12402 215.45327 164.45924 C 217.4476 162.4649 216.33964 161.68933 211.243 161.68933 C 206.25717 161.68933 206.14638 161.68933 208.02992 159.5842 C 210.24584 157.14668 209.58106 155.04155 206.70036 155.04155 C 205.3708 155.04155 205.26 154.70916 206.25717 153.712 C 207.03275 152.93642 210.57823 152.49323 215.01009 152.60403 C 223.8738 152.71483 225.64654 153.04722 227.64087 154.70916 C 228.52724 155.37394 230.29998 156.26031 231.62954 156.5927 C 232.8483 157.03588 234.62104 158.03305 235.28582 159.03022 C 236.50458 160.35977 236.94776 160.35977 239.0529 158.47624 C 240.27165 157.25748 243.37395 154.37677 245.70067 152.16084 C 249.80014 148.39377 250.02173 148.06138 247.9166 147.06421 C 244.9251 145.29147 244.5927 145.06988 245.81147 144.1835 C 246.47625 143.74032 248.249 140.85962 249.80014 137.86812 C 252.45925 132.99308 253.12403 132.3283 256.44792 132.2175 C 258.55305 132.2175 262.09853 131.33113 264.53605 130.33396 C 266.86278 129.226 269.1895 128.45043 269.6327 128.45043 C 270.07587 128.45043 272.4026 126.3453 274.72932 123.68618 C 278.4964 119.69751 280.60152 116.04124 284.0362 108.50708 C 285.47656 105.18319 284.4794 96.43028 282.48506 94.21435 C 279.05038 90.44728 277.16684 92.22002 271.9594 104.18603 C 269.5219 109.83664 267.19517 111.49858 265.09004 108.95027 C 264.31446 108.0639 262.8741 107.62071 261.76614 107.9531 C 259.55022 108.72868 258.88544 106.51275 260.65818 104.62921 C 261.21216 103.96443 261.98774 101.9701 262.32013 100.19736 C 262.65252 98.31382 263.2065 95.7655 263.64968 94.32515 C 264.09287 92.55241 263.87128 91.88763 262.65252 91.88763 C 261.65535 91.88763 260.4366 94.21435 259.21783 98.53541 C 257.55588 104.29682 257.0019 105.18319 254.67518 105.18319 C 253.23483 105.18319 251.68368 104.62921 251.2405 103.96443 C 250.7973 103.18886 248.91377 102.96727 246.69784 103.29966 C 243.15236 103.96443 242.81997 103.74284 243.48475 101.52691 C 244.7035 97.42745 245.1467 93.66037 244.5927 91.66604 C 244.14953 90.22569 242.93077 90.00409 237.72334 90.44728 C 233.84547 90.77967 228.41644 90.22569 223.6522 89.11772 C 219.44194 88.12056 214.5669 87.12339 212.90496 86.791 C 210.46744 86.23702 203.15488 78.14888 203.15488 75.93296 C 203.15488 75.378975 196.2855 65.18571 194.29117 62.74819 C 193.95878 62.30501 193.294 62.19421 192.96161 62.5266 Z M 239.49608 130.11237 L 239.49608 130.11237 C 240.82564 130.11237 241.9336 130.22317 241.9336 130.44476 C 241.9336 131.66352 231.85113 140.63802 230.63237 140.52723 C 225.86813 140.30564 214.8993 137.53573 215.34247 136.76015 C 216.89362 133.76865 231.29715 128.22883 234.73184 129.3368 C 235.9506 129.66919 238.05573 130.00158 239.49608 130.11237 Z M 289.02205 255.86623 L 289.02205 255.86623 C 291.57036 255.86623 291.79196 256.19862 291.12718 258.85773 C 290.13 263.1788 287.5817 266.94586 285.69816 266.94586 C 282.04188 266.94586 278.3856 262.07082 277.38843 255.86623 C 276.94524 252.54234 276.16967 248.55367 275.7265 247.00252 C 275.0617 244.7866 276.05887 245.34057 280.49073 249.99402 C 284.4794 254.0935 287.0277 255.86623 289.02205 255.86623 Z"
                        fill="black"/>
               </g>
            </g>
            <g>
               <path d="M 199.277 73.82783 C 200.71736 75.60057 202.04691 77.48411 202.04691 78.14888 C 202.04691 78.81366 203.15488 80.5864 204.37364 82.02676 C 205.7032 83.46711 208.02992 87.34498 209.47027 90.44728 C 210.91062 93.66037 212.68336 96.31949 213.23734 96.31949 C 214.7885 96.31949 214.4561 93.77117 212.57257 91.11206 C 211.02142 88.89613 211.02142 88.78533 214.7885 89.7825 C 216.89362 90.33648 220.4391 91.22285 222.54424 91.77684 C 224.64937 92.33082 226.4221 92.55241 226.4221 92.22002 C 226.4221 91.88763 227.0869 92.10922 227.86246 92.774 C 229.4136 93.99276 238.38812 93.99276 240.60404 92.66321 C 241.6012 91.99843 241.9336 92.774 241.9336 95.65471 C 241.9336 98.64621 241.26882 100.08656 239.1637 101.41612 C 236.50458 103.07806 235.9506 103.07806 232.18352 101.52691 C 225.64654 98.757 222.10105 98.31382 217.6692 99.75417 C 212.79416 101.30532 211.5754 102.41328 212.57257 104.07523 C 213.12655 104.9616 213.79133 104.8508 215.12088 103.85364 C 216.45044 102.74567 216.89362 102.74567 217.226 103.74284 C 217.5584 104.51842 218.99875 105.18319 220.4391 105.18319 C 222.32264 105.18319 223.09822 105.84797 223.09822 107.28832 C 223.09822 111.0554 225.53574 111.27699 228.41644 107.8423 C 230.63237 105.40479 231.96193 104.74001 234.95343 105.0724 C 237.05856 105.18319 239.49608 104.74001 240.38245 103.96443 C 241.9336 102.74567 242.0444 102.85647 241.712 105.18319 C 241.6012 106.62355 242.0444 107.9531 242.81997 108.1747 C 243.48475 108.50708 244.14953 108.1747 244.14953 107.50992 C 244.14953 105.95877 248.249 105.95877 249.13536 107.39912 C 249.46775 107.9531 251.0189 108.50708 252.57005 108.50708 C 255.00757 108.50708 255.22916 108.83947 254.67518 110.9446 C 253.678 114.1577 248.0274 123.57539 245.1467 126.56689 C 243.48475 128.33963 242.70917 128.56122 241.712 127.56406 C 240.93643 126.78848 237.72334 126.2345 234.51024 126.2345 C 227.75167 126.2345 215.67486 131.55272 211.02142 136.64936 C 207.80832 140.08404 208.4731 141.192 213.45894 140.85962 C 217.8908 140.52723 229.8568 144.1835 233.95626 147.06421 C 235.6182 148.28297 238.27732 149.50173 240.05006 149.94492 C 243.92793 150.83129 243.81714 151.82846 239.60688 154.15518 C 236.28298 156.03872 236.1722 156.03872 229.5244 152.71483 C 223.4306 149.61253 221.87946 149.28014 214.8993 149.72333 C 208.02992 150.05571 203.15488 151.49607 196.2855 155.04155 C 193.0724 156.8143 179.77685 152.38244 176.34216 148.50457 C 172.57508 144.2943 171.68871 144.1835 172.57508 148.06138 L 173.23986 151.16368 L 171.02394 148.50457 C 169.0296 146.28864 168.808 144.4051 168.808 132.66069 C 168.808 120.0299 169.0296 119.03274 172.2427 112.05257 C 175.78818 104.74001 176.45296 103.63204 180.33083 99.42178 C 181.54959 97.98143 181.99277 96.87347 181.2172 96.09789 C 179.88764 94.76834 175.1234 100.30815 171.46712 107.73151 C 167.58925 115.26566 165.26253 127.23167 166.1489 134.21184 C 166.70288 138.4221 166.59208 139.64086 165.59491 139.08688 C 164.81934 138.64369 163.48978 138.86528 162.60341 139.64086 C 161.16306 140.85962 161.05226 140.30564 161.60625 135.65219 C 161.93864 132.77148 162.49262 130.00158 162.825 129.4476 C 164.26536 127.01007 161.82784 126.3453 159.16873 128.45043 C 157.61758 129.66919 155.95563 130.44476 155.62324 130.11237 C 155.29085 129.66919 155.51245 129.1152 156.17723 128.67202 C 157.83917 127.67485 159.16873 123.243 158.28236 121.80265 C 157.83917 121.13787 156.62041 121.13787 154.95847 121.80265 C 151.52378 123.1322 151.52378 122.91061 154.95847 118.92194 C 156.50961 117.1492 157.72837 115.37646 157.72837 114.82248 C 157.72837 113.27133 152.63174 114.0469 148.86467 116.37362 L 144.9868 118.70035 L 148.97546 114.71168 C 151.19139 112.60655 155.95563 109.39345 159.7227 107.62071 C 165.8165 104.74001 166.2597 104.18603 164.70854 102.74567 C 163.1574 101.19452 163.37899 100.86214 166.48129 100.19736 C 169.1404 99.64338 169.91597 98.8678 169.91597 96.76267 C 169.91597 94.98993 169.2512 94.10356 168.03243 94.10356 C 166.37049 94.10356 166.2597 93.88197 167.70005 92.9956 C 168.58642 92.33082 171.24553 92.22002 173.57225 92.55241 C 175.89898 92.8848 178.4473 93.32798 179.33366 93.43878 C 180.22003 93.54958 181.2172 93.99276 181.66039 94.32515 C 182.54676 95.32232 185.75985 93.99276 187.311 91.99843 C 188.52976 90.44728 188.64056 90.55808 188.75135 92.774 C 188.75135 95.21152 190.85648 99.20019 194.29117 103.18886 C 195.17754 104.40762 197.39347 105.18319 199.6094 105.18319 C 204.15204 105.18319 205.3708 102.41328 204.04125 95.32232 C 202.6009 87.23418 200.82815 87.01259 201.60373 94.98993 C 202.3793 101.8593 202.3793 101.8593 199.4986 101.8593 C 197.61506 101.8593 195.84232 100.75134 194.18037 98.42462 C 191.63206 94.76834 191.52126 96.20869 195.06674 74.38181 C 195.39913 72.49827 195.84232 70.836325 196.1747 70.836325 C 196.3963 70.836325 197.83665 72.16588 199.277 73.82783 Z"/>
            </g>
            <g>
               <path d="M 187.64339 82.69153 C 187.64339 84.13189 188.19737 86.45861 188.86215 87.67737 C 189.9701 89.6717 189.85931 89.8933 188.19737 89.33932 C 187.2002 88.89613 185.75985 88.56374 184.98428 88.56374 C 184.2087 88.56374 182.54676 86.56941 181.1064 84.13189 C 179.22287 80.808 178.89048 78.81366 179.44446 75.82216 L 180.10924 71.83349 L 183.87631 75.93296 C 185.98144 78.14888 187.64339 81.14039 187.64339 82.69153 Z"/>
            </g>
            <g>
               <path d="M 93.79888 86.56941 C 101.55463 99.31099 107.20524 109.83664 108.5348 114.0469 C 110.41833 120.0299 118.72806 137.20334 122.71673 143.40793 C 124.71106 146.39943 127.25938 151.16368 128.36734 153.93359 C 129.4753 156.7035 131.02645 159.4734 131.80203 160.02739 C 133.24238 161.35694 132.6884 180.19232 131.13725 181.0787 C 130.58327 181.41108 130.47247 183.51621 130.80486 185.84293 L 131.35884 189.9424 L 123.4923 192.7123 C 119.17124 194.15266 115.40417 195.03903 114.96098 194.59585 C 114.5178 194.15266 114.2962 188.16966 114.407 181.18949 C 114.6286 168.6695 113.07745 155.70633 111.08311 153.2688 C 110.52913 152.60403 110.30754 151.27447 110.63993 150.3881 C 111.08311 149.16934 108.75639 147.17501 102.88418 143.40793 C 93.57729 137.64652 90.1426 134.54423 90.1426 131.77432 C 90.1426 130.44476 91.25056 129.89078 94.35286 129.89078 C 101.33303 129.77998 103.21657 129.226 104.65692 126.56689 C 105.76489 124.46176 105.5433 123.57539 102.99498 120.1407 C 101.11144 117.70318 99.1171 116.26283 97.34436 116.26283 C 95.90401 116.26283 89.58862 112.82814 83.16243 108.61788 C 71.63961 100.97293 71.528815 100.86214 70.310055 95.21152 C 69.64528 92.10922 69.091295 87.34498 69.091295 84.57507 C 69.091295 79.70003 69.20209 79.58924 71.41802 81.25118 C 72.747575 82.13755 77.17943 86.12622 81.38969 90.11489 C 85.59995 94.10356 89.47782 97.42745 90.0318 97.42745 C 90.47499 97.42745 91.80455 98.42462 92.91251 99.64338 C 94.02047 100.86214 95.68242 101.8593 96.67959 101.8593 C 98.45233 101.74851 95.90401 99.31099 88.48066 93.54958 C 85.93234 91.55524 85.71075 91.00126 86.70791 88.23135 C 87.37269 86.45861 87.92667 83.57791 87.92667 81.80516 C 87.92667 80.03242 88.14827 78.59207 88.36986 78.59207 C 88.70225 78.59207 91.13977 82.24835 93.79888 86.56941 Z"/>
            </g>
            <g>
               <path d="M 281.8203 101.8593 C 281.8203 110.83381 274.9509 122.24583 267.19517 126.3453 C 262.65252 128.67202 260.76898 129.00441 260.76898 127.34246 C 260.76898 126.67768 261.43376 126.2345 262.20933 126.2345 C 263.5389 126.2345 269.6327 117.1492 269.6327 115.15486 C 269.6327 114.60088 270.07587 113.82531 270.74065 113.49292 C 271.40543 113.16053 271.51622 113.60372 271.18383 114.49009 C 270.85145 115.48725 270.96224 116.26283 271.51622 116.26283 C 272.6242 116.26283 276.28047 110.39062 276.28047 108.61788 C 276.28047 106.40195 274.39693 107.28832 273.51056 109.83664 C 272.84578 112.16336 272.6242 112.16336 272.181 110.27983 C 271.8486 109.17186 272.0702 107.9531 272.6242 107.50992 C 273.28897 107.17753 274.61852 104.51842 275.7265 101.52691 C 277.05604 97.87063 278.2748 96.31949 279.71515 96.31949 C 281.4879 96.31949 281.8203 97.20586 281.8203 101.8593 Z"/>
            </g>
            <g>
               <path d="M 228.63804 102.96727 C 228.63804 103.41045 227.97326 104.40762 227.0869 105.0724 C 225.75733 106.18036 225.20335 105.95877 224.31698 104.29682 C 223.3198 102.41328 223.5414 102.0809 225.86813 102.0809 C 227.41928 102.0809 228.63804 102.52408 228.63804 102.96727 Z"/>
            </g>
            <g>
               <path d="M 263.64968 112.16336 C 264.09287 112.60655 265.42242 112.93894 266.5304 112.93894 C 268.52472 112.93894 268.41393 113.27133 265.7548 118.14637 C 263.98207 121.58105 261.32296 124.35096 258.55305 126.0129 C 253.34562 129.00441 253.12403 128.22883 256.44792 119.58672 C 257.66668 116.26283 258.66385 113.38212 258.66385 113.16053 C 257.77748 110.9446 261.65535 110.16903 263.64968 112.16336 Z"/>
            </g>
            <g>
               <path d="M 153.29652 116.70601 C 153.29652 116.9276 152.41015 117.81398 151.41298 118.58955 C 149.64024 120.0299 149.52944 119.91911 150.9698 118.14637 C 152.41015 116.37362 153.29652 115.81964 153.29652 116.70601 Z"/>
            </g>
            <g>
               <path d="M 250.24332 130.11237 C 246.91943 138.97608 241.15802 147.6182 239.38528 146.51023 C 238.6097 146.17784 236.94776 145.06988 235.5074 144.1835 L 233.0699 142.63236 L 235.5074 140.19484 C 236.94776 138.86528 240.38245 135.209 243.26315 131.99591 C 246.14386 128.78282 248.91377 126.2345 249.57855 126.2345 C 250.24332 126.2345 250.7973 125.45892 250.7973 124.57255 C 250.7973 123.68618 251.2405 122.91061 251.90527 122.91061 C 252.45925 122.91061 251.79447 126.1237 250.24332 130.11237 Z"/>
            </g>
            <g>
               <path d="M 155.06926 126.45609 C 152.96413 129.3368 152.74254 132.4391 154.51528 133.54706 C 155.18006 133.87945 156.28802 133.65785 156.9528 132.99308 C 159.27952 130.66635 159.8335 131.77432 159.16873 137.20334 C 158.83634 140.30564 158.83634 143.51873 159.16873 144.4051 C 160.0551 146.51023 162.9358 145.62386 163.60058 143.07554 C 163.82217 141.74599 164.70854 142.63236 166.0381 145.62386 C 168.9188 151.60686 170.91314 153.93359 173.46146 153.93359 C 175.67738 153.93359 180.33083 156.4819 183.32233 159.3626 C 187.0894 162.9081 189.63772 164.79163 191.96445 165.5672 C 193.294 165.8996 194.29117 166.78596 194.29117 167.33994 C 194.29117 168.00472 194.73435 168.22632 195.28834 167.89393 C 195.73152 167.56154 197.06108 168.22632 198.16904 169.44508 C 199.277 170.66383 200.60656 171.32861 201.16054 170.88543 C 201.82532 170.55304 202.6009 170.66383 203.04408 171.21782 C 203.37647 171.7718 207.25434 173.87693 211.4646 175.98206 C 215.78566 178.0872 220.21751 180.6355 221.43627 181.74347 C 222.65503 182.74064 225.42494 184.181 227.64087 184.84577 C 229.8568 185.51055 233.84547 188.16966 236.39378 190.49638 C 239.0529 192.9339 241.4904 194.92824 241.8228 194.92824 C 243.15236 194.92824 253.678 206.78344 258.22066 213.43123 C 266.0872 224.62166 269.74348 233.15298 272.6242 247.4457 C 276.28047 265.28392 278.3856 269.1618 284.5902 269.1618 C 289.57603 269.1618 291.45957 267.27825 293.3431 260.29808 L 294.89425 254.20428 L 295.00505 259.19012 C 295.11585 266.28108 293.4539 271.3777 289.57603 275.47718 C 283.81462 281.68178 277.49923 281.90337 275.7265 276.03116 C 274.39693 271.26692 273.39976 271.5993 272.6242 276.91753 C 272.2918 279.35505 271.07304 283.45452 269.74348 286.11363 C 266.97357 291.87504 253.01323 311.2644 253.01323 309.27007 C 253.01323 308.6053 252.57005 307.9405 251.90527 307.9405 C 251.3513 307.9405 250.7973 309.15927 250.7973 310.59962 C 250.7973 312.15077 250.24332 313.70192 249.57855 314.1451 C 248.69218 314.6991 248.80297 315.14227 250.02173 315.80705 C 250.9081 316.36103 252.34846 319.46333 253.01323 322.56563 C 255.11836 331.42934 257.2235 334.53163 262.9849 337.63393 C 268.8571 340.73623 270.40826 342.84136 271.18383 348.60277 L 271.8486 354.2534 L 266.97357 358.35285 C 262.43092 362.00913 261.98774 362.8955 261.32296 368.6569 C 260.87977 372.0916 260.215 376.19106 259.661 377.7422 C 258.77464 380.6229 258.77464 380.6229 256.33712 374.08593 C 255.45075 371.4268 254.89677 371.20523 253.01323 372.2024 C 248.80297 374.5291 247.47342 377.853 248.80297 383.06043 C 249.91094 387.6031 249.80014 388.04627 246.58705 391.92414 C 244.7035 394.14007 242.70917 395.9128 242.1552 395.802 C 241.4904 395.6912 238.16652 396.4668 234.62104 397.68555 C 231.18635 398.9043 228.08406 399.6799 227.86246 399.4583 C 227.53007 399.2367 229.8568 396.356 232.9591 393.0321 C 236.0614 389.819 238.6097 386.4951 238.6097 385.71955 C 238.6097 385.05477 239.1637 384.39 239.71767 384.39 C 240.38245 384.39 240.82564 383.6144 240.82564 382.72805 C 240.82564 381.84167 241.37962 381.0661 241.9336 381.0661 C 242.59838 381.0661 243.04156 380.5121 243.04156 379.95814 C 243.04156 377.4098 239.71767 379.07177 237.50174 382.72805 C 236.1722 384.83318 234.17785 386.6059 233.0699 386.6059 C 232.07272 386.6059 229.5244 386.9383 227.64087 387.2707 C 225.75733 387.7139 224.20618 387.4923 224.20618 386.9383 C 224.20618 385.71955 231.96193 377.6314 240.82564 369.4325 C 244.14953 366.3302 248.80297 361.78754 251.1297 359.12842 C 254.67518 354.91816 255.22916 353.5886 255.22916 348.82436 C 255.22916 344.8357 254.78597 343.39534 253.7888 343.61693 C 252.90244 343.83853 250.5757 342.28738 248.47058 340.18225 C 243.92793 335.6396 234.95343 331.20774 230.0784 331.20774 C 228.19485 331.20774 225.75733 330.43217 224.87096 329.435 C 223.8738 328.54863 222.65503 327.99465 222.10105 328.32704 C 221.10389 328.9918 218.99875 323.8952 214.8993 310.37803 C 211.797 300.40636 212.46177 289.9915 216.33964 287.2216 C 217.6692 286.33522 218.44477 285.11646 218.0016 284.56248 C 217.226 283.23292 220.3283 278.2471 223.5414 275.47718 C 229.746 270.15896 237.50174 262.18162 237.50174 261.07366 C 237.61254 260.29808 238.27732 257.86056 239.0529 255.64463 C 240.38245 252.09915 240.27165 250.7696 237.94493 244.1218 C 234.39945 233.59616 225.09255 223.95688 222.54424 228.16714 C 222.21185 228.72112 222.54424 229.2751 223.3198 229.2751 C 225.64654 229.2751 232.7375 237.03085 234.73184 241.6843 C 236.50458 246.00535 235.8398 246.78093 232.18352 244.7866 C 231.18635 244.2326 227.30848 242.34907 223.6522 240.79792 C 217.3368 238.02801 215.89646 237.91722 197.06108 237.58483 C 179.22287 237.36324 176.45296 237.14164 171.57792 234.92572 C 162.49262 230.93705 159.27952 226.616 165.04093 226.1728 C 166.59208 226.062 169.58358 224.28927 171.68871 222.29493 C 174.79101 219.41423 176.00977 216.8659 177.78251 210.43972 C 179.99844 202.0192 180.66322 191.60434 178.89048 191.60434 C 178.4473 191.60434 177.67172 195.26062 177.33933 199.58168 C 176.23136 215.20397 170.46995 223.73529 161.38465 223.73529 C 159.39032 223.73529 155.84484 224.51086 153.6289 225.39723 C 151.52378 226.2836 146.87033 227.05918 143.43564 227.16997 C 140.00096 227.16997 134.90433 227.61316 131.91282 228.05634 C 127.14858 228.83192 126.7054 228.72112 127.25938 226.83758 C 128.14575 224.06767 125.92982 224.28927 124.48947 227.05918 C 122.71673 230.27227 124.26788 238.582 127.37017 243.12465 C 129.6969 246.55933 129.6969 247.11332 128.25655 248.66446 C 127.25938 249.55083 125.70823 250.3264 124.71106 250.3264 C 122.60593 250.3264 117.84169 246.00535 117.84169 244.01102 C 117.84169 241.5735 114.5178 242.45987 113.29904 245.22978 C 111.85869 248.44287 112.85585 253.6503 114.85019 253.6503 C 115.73656 253.6503 118.39567 255.20145 120.94399 257.19578 C 125.37584 260.63047 125.59743 260.96286 125.59743 266.94586 C 125.59743 272.1533 124.26788 277.13913 120.39 286.8892 C 119.83602 288.32956 118.83886 284.56248 114.2962 263.28958 C 112.63426 255.53384 110.63993 254.86906 111.63709 262.514 C 112.08028 265.6163 112.19107 268.05383 111.85869 268.05383 C 111.63709 268.05383 110.63993 268.3862 109.75356 268.7186 C 107.53763 269.49418 105.4325 260.74127 105.4325 250.6588 C 105.4325 243.45704 109.31037 225.50803 111.3047 223.1813 C 111.85869 222.62732 112.30187 221.51936 112.30187 220.74378 C 112.30187 219.9682 113.18824 218.30626 114.2962 217.1983 C 115.29337 216.09034 117.2877 213.9852 118.61726 212.54485 C 125.26504 205.3431 130.69406 202.13 133.02079 204.01354 C 135.34751 205.89707 135.7907 204.45672 134.57194 199.80327 C 132.90999 193.2663 134.90433 162.9081 137.67423 153.3796 C 143.32485 134.21184 147.20272 125.01574 149.30785 125.79131 C 150.19422 126.1237 151.85617 125.90211 152.96413 125.23733 C 156.17723 123.3538 156.842 123.79698 155.06926 126.45609 Z"/>
            </g>
            <g>
               <path d="M 191.74285 158.80863 C 191.41046 160.35977 195.50993 161.02455 196.3963 159.5842 C 197.28267 158.14385 206.47877 156.92509 206.47877 158.25464 C 206.47877 158.69783 205.4816 160.02739 204.26284 161.13535 C 200.82815 164.23765 201.60373 164.90242 207.91912 164.23765 C 213.68053 163.79446 213.68053 163.79446 211.02142 165.678 L 208.2515 167.67233 L 211.4646 168.5587 C 213.23734 169.00189 215.23168 168.8911 215.89646 168.33711 C 216.56123 167.78313 217.78 167.78313 218.66637 168.33711 C 219.99592 169.22348 219.99592 169.44508 218.33398 170.10985 C 214.4561 171.5502 216.56123 172.76897 221.99026 172.21498 C 227.53007 171.5502 229.746 172.99056 225.31415 174.43091 C 224.09539 174.7633 223.09822 175.76047 223.09822 176.42525 C 223.09822 177.31162 225.53574 177.7548 230.74317 177.7548 C 234.95343 177.7548 238.8313 178.19799 239.2745 178.64117 C 240.60404 179.85993 233.95626 184.84577 231.96193 184.0702 C 231.07556 183.7378 224.76016 180.30312 218.0016 176.42525 C 211.243 172.65817 205.26 169.44508 204.70603 169.44508 C 203.26567 169.44508 186.53542 159.03022 186.53542 158.14385 C 186.53542 157.70066 187.75418 157.36827 189.19454 157.47907 C 190.74569 157.58987 191.85365 158.25464 191.74285 158.80863 Z"/>
            </g>
            <g>
               <path d="M 247.36262 185.95373 C 248.58138 186.7293 248.47058 187.1725 246.80864 188.05886 C 243.70634 189.7208 246.91943 193.0447 251.0189 192.49072 C 253.12403 192.15833 254.1212 192.49072 254.1212 193.48788 C 254.1212 194.26346 253.5672 194.92824 252.90244 194.92824 C 252.12686 194.92824 251.90527 196.147 252.34846 198.36292 C 252.90244 201.57602 252.68084 201.35442 244.5927 194.15266 L 236.1722 186.6185 L 240.38245 185.95373 C 242.81997 185.62134 244.9251 185.17816 245.2575 185.17816 C 245.58988 185.06736 246.47625 185.39975 247.36262 185.95373 Z"/>
            </g>
            <g>
               <path d="M 265.31163 212.43406 C 263.64968 212.98804 258.22066 210.10733 257.66668 208.3346 C 257.3343 207.33743 258.66385 207.66982 261.76614 209.44256 C 264.42526 210.8829 265.9764 212.21247 265.31163 212.43406 Z"/>
            </g>
            <g>
               <path d="M 285.47656 215.09317 C 287.2493 215.31476 288.02488 216.42273 288.57886 219.30343 C 289.02205 221.40856 290.13 225.17564 291.23797 227.50236 C 292.67833 230.93705 293.3431 231.49103 294.11868 230.27227 C 294.89425 229.2751 295.00505 230.38307 294.34027 233.70696 C 293.8971 236.47687 293.4539 240.57633 293.5647 242.79226 L 293.5647 246.78093 L 290.5732 244.6758 C 286.9169 242.12748 286.25214 242.01668 286.25214 244.2326 C 286.25214 245.11898 286.69532 245.89456 287.2493 245.89456 C 288.46806 245.89456 291.23797 253.5395 290.2408 254.42587 C 289.90842 254.75826 287.0277 252.43154 283.81462 249.21845 C 280.60152 246.11615 278.6072 243.78942 279.38276 244.2326 C 280.15834 244.565 281.7095 244.565 283.03904 244.2326 C 285.14417 243.56783 285.25497 242.90305 284.5902 233.92855 C 284.2578 228.61033 283.48223 222.29493 282.92825 219.85741 C 282.37427 217.4199 281.93108 213.8744 282.04188 212.10167 C 282.15267 208.88858 282.15267 208.88858 282.59586 211.76928 C 282.92825 213.76361 283.81462 214.87158 285.47656 215.09317 Z"/>
            </g>
            <g>
               <path d="M 265.20083 215.86875 C 265.20083 216.42273 266.198 217.0875 267.30596 217.4199 C 268.41393 217.64149 270.07587 219.08184 270.74065 220.5222 C 272.181 223.0705 272.0702 223.1813 269.96507 221.18697 C 268.7463 220.1898 266.97357 219.30343 265.9764 219.30343 C 264.97924 219.30343 264.09287 219.08184 264.09287 218.86025 C 264.09287 218.63865 263.76048 217.64149 263.4281 216.64432 C 263.0957 215.64715 263.3173 214.87158 263.98207 214.87158 C 264.64685 214.87158 265.20083 215.31476 265.20083 215.86875 Z"/>
            </g>
            <g>
               <path d="M 271.62702 226.94838 C 271.9594 227.83475 271.51622 228.27794 270.62985 227.94555 C 269.85428 227.72395 268.9679 226.83758 268.7463 226.062 C 268.41393 225.17564 268.8571 224.73245 269.74348 225.06484 C 270.51906 225.28643 271.40543 226.1728 271.62702 226.94838 Z"/>
            </g>
            <g>
               <path d="M 217.226 241.9059 C 217.5584 242.23828 216.45044 242.57066 214.5669 242.57066 C 208.8055 242.57066 187.311 251.10198 187.97578 253.09632 C 188.19737 253.6503 190.74569 254.31508 193.6264 254.53667 C 196.3963 254.75826 201.04975 255.86623 203.81965 256.9742 C 207.69753 258.63614 211.4646 259.19012 219.66353 259.19012 C 229.746 259.19012 230.63237 258.96852 233.0699 256.4202 C 236.28298 252.98552 235.3966 251.76676 231.51874 254.20428 C 227.41928 256.9742 206.92195 256.08782 199.83099 252.87473 C 195.06674 250.7696 194.95595 250.6588 197.61506 249.88322 C 199.1662 249.44004 202.04691 248.22128 204.15204 247.3349 C 209.47027 244.8974 226.08972 244.4542 229.08122 246.55933 C 230.29998 247.4457 232.18352 248.11048 233.29148 248.11048 C 235.9506 248.11048 236.83697 250.10482 236.50458 255.09065 C 236.28298 260.40888 233.29148 264.61914 225.64654 270.49134 C 222.43344 272.92886 218.11238 277.5823 215.89646 280.9062 L 211.9078 286.8892 L 205.7032 286.8892 C 197.94745 286.8892 195.39913 288.88354 195.39913 294.75574 C 195.39913 297.08247 195.95311 300.29556 196.7287 301.8467 C 197.83665 304.28423 197.72586 304.949 196.3963 305.83538 C 193.84798 307.38653 193.294 307.05414 191.52126 302.6223 C 188.19737 294.64495 180.9956 292.8722 177.56092 299.2984 C 176.34216 301.51432 176.67455 302.0683 179.88764 304.7274 L 183.54392 307.8297 L 181.2172 314.92068 C 179.88764 318.79855 178.77968 322.67642 178.77968 323.5628 C 178.77968 324.44917 176.00977 328.10545 172.57508 331.65093 C 169.1404 335.1964 166.70288 337.52314 167.14606 336.74756 C 167.58925 336.0828 168.36482 332.4265 168.808 328.65943 C 169.362 324.89235 170.13756 319.35253 170.58075 316.36103 C 171.13473 312.37236 171.02394 311.1536 170.13756 311.7076 C 169.362 312.15077 168.808 313.70192 168.808 315.25307 C 168.808 317.469 167.70005 318.46616 163.0466 320.5713 C 159.05793 322.23324 157.0636 322.67642 156.842 321.79005 C 156.39882 320.1281 163.82217 303.95184 165.48412 302.95467 C 166.0381 302.6223 166.59208 301.29273 166.59208 300.07397 C 166.59208 298.966 167.14606 297.96884 167.70005 297.96884 C 168.36482 297.96884 168.808 297.30406 168.808 296.4177 C 168.808 295.53132 169.47279 294.09097 170.24836 293.3154 C 171.02394 292.53982 172.0211 290.98867 172.46429 289.8807 C 172.79668 288.88354 173.90464 287.99717 174.9018 287.99717 C 175.78818 287.99717 176.56375 287.4432 176.56375 286.8892 C 176.56375 286.22443 176.89614 285.89204 177.45012 286.00283 C 177.8933 286.22443 180.44163 284.78407 183.21153 282.90054 C 189.85931 278.3579 200.71736 273.37205 202.04691 274.14762 C 202.7117 274.48 203.15488 274.14762 203.15488 273.26125 C 203.15488 272.0425 201.60373 271.8209 195.62072 272.2641 C 187.311 272.81807 181.66039 270.82373 174.56942 264.61914 C 172.57508 262.8464 170.46995 261.40604 170.02677 261.40604 C 169.47279 261.40604 168.69721 260.63047 168.36482 259.6333 C 167.58925 257.74976 175.1234 249.21845 177.56092 249.21845 C 178.2257 249.21845 178.77968 248.55367 178.77968 247.7781 C 178.77968 245.89456 182.76835 243.56783 184.65189 244.3434 C 185.53826 244.6758 186.53542 244.2326 186.86781 243.34624 C 187.311 242.23828 188.86215 241.7951 191.52126 241.9059 C 193.73719 242.01668 195.73152 241.6843 196.0639 241.3519 C 196.6179 240.46553 216.22885 240.90872 217.226 241.9059 Z"/>
            </g>
            <g>
               <g  id="outline-1">
                  <path
                        d="M 185.42746 138.5329 C 185.42746 139.08688 186.9786 141.08121 188.86215 142.74316 C 191.41046 145.06988 192.07524 146.51023 191.63206 148.17218 C 190.74569 150.83129 192.07524 151.93925 194.29117 150.6097 C 195.39913 149.94492 195.50993 149.28014 194.62356 148.17218 C 193.95878 147.3966 193.294 146.17784 193.294 145.62386 C 193.294 144.1835 187.5326 137.31413 186.31383 137.31413 C 185.87065 137.31413 185.42746 137.86812 185.42746 138.5329 Z"
                        fill="black"/>
               </g>
            </g>
         </g>
      </g>
   </g>
</svg>