<?xml version="1.0" encoding="utf-8"?>
<svg xmlns="http://www.w3.org/2000/svg" xmlns:dc="http://purl.org/dc/elements/1.1/"
     xmlns:xl="http://www.w3.org/1999/xlink"
     xmlns:xlink="http://www.w3.org/1999/xlink"
     version="1.1"
     viewBox="36 63 292.5 351"
     width="292.5"
     height="351"
     preserveAspectRatio="xMidYMid meet"
     zoomAndPan="magnify"
     contentScriptType="application/ecmascript"
     contentStyleType="text/css">
   <defs/>
   <metadata xmlns="" xmlns:svg="http://www.w3.org/2000/svg"
             xmlns:rdf="http://www.w3.org/1999/02/22-rdf-syntax-ns#"
             xmlns:cc="http://creativecommons.org/ns#">
      <rdf:RDF>
         <cc:Work rdf:about="">
            <dc:creator>
               <cc:Agent>
                  <dc:title>http://heraldicart.org Doe's Head Couped.svg</dc:title>
               </cc:Agent>
            </dc:creator>
         </cc:Work>
      </rdf:RDF>
   </metadata>
   <g stroke-opacity="1" stroke-dasharray="none" stroke="#505050" fill="#ffff00"
      fill-opacity="1">
      <title>Doe's Head Couped</title>
      <g>
         <title>Art</title>
         <g>
            <g>
               <g  id="outline-0">
                  <path
                        d="M 142.05821 69.65706 C 140.35821 70.85706 140.25821 71.75706 141.25821 83.75706 C 142.15821 94.05706 142.75821 97.05706 144.45821 99.35706 C 145.55821 100.85706 146.55821 102.35706 146.55821 102.65706 C 146.55821 102.95706 148.35821 105.95706 150.55821 109.35706 C 152.75821 112.75706 154.55821 116.15706 154.55821 116.85706 C 154.55821 117.65706 152.65821 119.15706 150.35821 120.35706 C 137.85821 126.65706 116.45821 142.65706 104.55821 154.45706 C 94.45821 164.65706 85.75821 170.65706 65.35821 182.05706 C 47.25821 192.15706 44.35821 195.75706 43.05821 209.45706 L 42.35821 217.05706 L 48.75821 223.45706 C 53.65821 228.15706 55.45821 230.65706 55.95821 233.45706 C 56.55821 236.95706 57.25821 237.55706 63.25821 240.45706 C 69.65821 243.55706 70.35821 243.65706 88.05821 244.35706 C 102.05821 244.85706 106.95821 245.35706 109.45821 246.65706 C 111.25821 247.65706 117.55821 249.05706 123.45821 249.75706 C 136.25821 251.45706 136.65821 251.55706 142.85821 255.95706 C 148.05821 259.55706 150.75821 259.65706 152.55821 256.15706 C 153.15821 255.15706 154.05821 254.25706 154.55821 254.25706 C 156.75821 254.25706 155.35821 265.75706 151.45821 280.85706 C 149.25821 289.65706 147.05821 299.45706 146.55821 302.75706 C 142.75821 329.15706 142.45821 333.05706 142.85821 352.65706 C 143.05821 364.05706 143.95821 377.35706 144.85821 383.25706 C 145.75821 389.05706 146.55821 397.05706 146.55821 400.95706 L 146.55821 408.25706 L 150.05821 408.25706 C 152.05821 408.25706 154.95821 407.55706 156.55821 406.75706 C 160.05821 404.95706 171.55821 395.55706 173.35821 393.05706 C 174.05821 392.05706 175.05821 391.25706 175.45821 391.25706 C 175.95821 391.25706 179.15821 388.45706 182.65821 384.95706 C 186.15821 381.45706 203.65821 364.25706 221.5582 346.65706 L 254.0582 314.65706 L 274.6582 301.05706 C 307.0582 279.55706 316.6582 268.85706 321.1582 249.25706 C 324.0582 236.25706 320.8582 222.05706 307.3582 188.75706 C 302.8582 177.75706 298.0582 165.15706 296.5582 160.75706 C 292.8582 149.75706 290.2582 145.05706 282.8582 135.55706 C 273.5582 123.65706 272.6582 123.05706 254.5582 116.75706 C 241.3582 112.15706 241.7582 112.45706 240.5582 108.75706 C 239.9582 106.95706 238.8582 105.15706 238.1582 104.95706 C 237.3582 104.65706 235.5582 101.15706 234.0582 97.05706 C 232.5582 93.05706 230.8582 89.35706 230.4582 88.85706 C 229.9582 88.25706 229.5582 86.05706 229.5582 83.85706 C 229.5582 77.95706 227.7582 72.45706 225.4582 71.25706 C 223.8582 70.35706 222.8582 70.75706 219.4582 73.95706 C 217.2582 76.05706 214.7582 79.05706 213.9582 80.75706 C 213.2582 82.35706 211.0582 85.85706 209.2582 88.35706 C 206.4582 92.25706 205.7582 94.25706 205.3582 99.75706 C 204.9582 103.85706 204.2582 106.85706 203.45821 107.35706 C 202.65821 107.85706 200.05821 107.95706 197.55821 107.65706 C 193.95821 107.25706 192.45821 106.35706 190.05821 103.45706 C 183.95821 95.95706 172.95821 85.05706 170.05821 83.55706 C 168.45821 82.65706 165.25821 80.55706 163.05821 78.75706 C 158.75821 75.35706 149.35821 69.85706 145.95821 68.85706 C 144.85821 68.55706 143.15821 68.85706 142.05821 69.65706 Z"
                        fill="black"/>
               </g>
            </g>
            <g>
               <path d="M 153.75821 75.35706 C 157.45821 77.65706 160.55821 79.85706 160.55821 80.25706 C 160.55821 80.65706 162.05821 81.55706 163.85821 82.35706 C 167.05821 83.65706 178.55821 93.15706 183.75821 98.75706 C 186.95821 102.35706 189.15821 106.05706 188.35821 106.75706 C 188.05821 107.05706 182.85821 108.65706 176.85821 110.25706 C 170.75821 111.85706 164.15821 113.85706 162.05821 114.65706 C 157.05821 116.75706 157.05821 116.75706 155.05821 112.45706 C 154.05821 110.45706 152.25821 107.35706 151.05821 105.75706 C 145.65821 98.45706 143.85821 93.15706 143.35821 83.05706 C 142.85821 73.75706 143.35821 71.25706 145.95821 71.25706 C 146.45821 71.25706 149.95821 73.15706 153.75821 75.35706 Z"/>
            </g>
            <g>
               <path d="M 226.5582 81.75706 C 226.9582 87.75706 227.8582 90.35706 232.6582 99.75706 C 235.8582 106.15706 238.9582 113.95706 239.9582 118.25706 C 241.5582 125.15706 241.5582 126.25706 240.1582 132.25706 C 238.3582 139.65706 238.2582 141.25706 239.3582 141.25706 C 241.0582 141.25706 243.7582 131.85706 243.9582 125.55706 L 244.0582 118.75706 L 247.5582 119.05706 C 249.4582 119.25706 254.6582 120.55706 259.0582 122.05706 C 265.7582 124.25706 268.0582 125.55706 273.0582 130.35706 C 279.9582 136.95706 290.3582 153.45706 293.5582 162.75706 C 294.6582 166.05706 299.3582 178.15706 304.0582 189.75706 C 314.8582 216.55706 317.6582 226.15706 318.2582 238.25706 C 318.7582 246.75706 318.4582 248.45706 316.2582 254.45706 C 313.5582 261.55706 308.4582 269.95706 304.3582 274.45706 C 300.6582 278.35706 283.7582 290.65706 269.6582 299.75706 C 262.2582 304.55706 253.6582 311.25706 248.1582 316.45706 C 243.1582 321.15706 236.8582 326.85706 234.0582 329.05706 C 231.3582 331.15706 218.4582 343.65706 205.5582 356.65706 C 192.65821 369.75706 177.85821 384.15706 172.75821 388.75706 C 161.85821 398.55706 151.65821 405.75706 150.35821 404.45706 C 149.55821 403.65706 150.25821 391.05706 152.55821 368.25706 C 153.45821 358.65706 155.45821 349.35706 158.45821 341.05706 C 159.65821 337.85706 160.55821 334.25706 160.55821 332.85706 C 160.55821 331.55706 161.15821 329.95706 161.85821 329.35706 C 162.65821 328.75706 163.95821 326.55706 164.85821 324.55706 C 171.05821 310.05706 179.15821 291.75706 181.65821 286.55706 C 183.25821 283.05706 184.55821 279.75706 184.55821 279.05706 C 184.55821 278.35706 185.45821 276.25706 186.55821 274.55706 C 189.25821 270.15706 191.15821 258.25706 189.35821 257.15706 C 187.05821 255.65706 186.75821 256.15706 186.05821 261.45706 C 185.05821 268.85706 182.55821 276.15706 177.05821 287.75706 C 174.45821 293.25706 170.55821 301.45706 168.45821 306.05706 C 166.35821 310.55706 164.55821 314.55706 164.55821 314.95706 C 164.55821 315.35706 162.55821 320.45706 160.15821 326.25706 C 153.85821 341.55706 150.65821 352.75706 147.65821 369.75706 C 146.05821 379.15706 146.45821 331.95706 148.05821 320.75706 C 148.85821 315.25706 149.95821 307.55706 150.55821 303.65706 C 151.05821 299.75706 152.25821 294.55706 153.15821 292.15706 C 154.05821 289.75706 155.65821 285.25706 156.75821 282.25706 C 158.25821 278.25706 158.95821 273.35706 159.25821 264.45706 L 159.75821 252.25706 L 166.25821 249.25706 C 171.15821 246.95706 173.15821 246.45706 174.55821 247.25706 C 179.55821 249.95706 182.05821 248.35706 190.25821 237.25706 C 197.45821 227.55706 198.55821 225.15706 198.55821 219.25706 C 198.55821 213.15706 195.35821 206.95706 191.45821 205.75706 C 188.35821 204.75706 188.15821 205.75706 190.75821 209.45706 C 192.15821 211.25706 193.85821 214.65706 194.55821 217.05706 C 195.75821 220.95706 195.75821 221.75706 193.95821 225.05706 C 191.85821 229.15706 179.75821 242.55706 177.85821 243.05706 C 176.25821 243.45706 176.25821 241.85706 177.75821 237.55706 C 178.65821 235.05706 178.65821 233.95706 177.85821 233.15706 C 176.35821 231.65706 173.55821 234.25706 173.55821 237.15706 C 173.55821 239.45706 165.15821 247.05706 161.55821 247.85706 C 157.15821 248.85706 151.05821 251.65706 149.55821 253.55706 C 148.15821 255.25706 147.75821 255.15706 142.15821 251.15706 C 136.45821 247.05706 135.85821 246.85706 126.15821 246.15706 C 120.55821 245.65706 114.05821 244.55706 111.55821 243.65706 C 108.15821 242.35706 103.35821 241.85706 91.55821 241.75706 C 71.85821 241.45706 65.75821 240.35706 60.85821 235.95706 C 58.35821 233.75706 57.95821 230.85706 59.55821 226.85706 C 60.75821 223.45706 64.65821 223.45706 71.75821 226.65706 C 78.15821 229.55706 88.95821 230.55706 104.35821 229.65706 C 114.35821 229.05706 115.25821 228.85706 114.85821 227.15706 C 114.45821 225.65706 113.35821 225.25706 110.15821 225.25706 C 107.95821 225.35706 104.95821 225.95706 103.55821 226.75706 C 100.05821 228.75706 83.65821 228.75706 80.95821 226.75706 C 79.95821 225.95706 78.25821 225.25706 77.25821 225.25706 C 76.25821 225.25706 73.45821 224.05706 70.95821 222.65706 C 66.05821 219.75706 63.25821 219.95706 58.55821 223.45706 L 55.75821 225.55706 L 52.65821 223.35706 C 47.65821 219.75706 45.55821 216.05706 45.55821 210.45706 C 45.55821 200.65706 48.85821 195.35706 56.65821 192.75706 C 60.95821 191.25706 61.85821 191.25706 66.75821 192.75706 C 73.15821 194.65706 76.25821 196.85706 77.05821 200.25706 C 77.95821 203.85706 74.35821 208.25706 70.55821 208.25706 C 67.05821 208.25706 65.65821 206.35706 67.85821 204.75706 C 69.95821 203.25706 70.05821 199.65706 67.95821 198.85706 C 64.75821 197.65706 61.65821 198.35706 58.65821 200.85706 C 56.15821 202.95706 55.55821 204.15706 55.55821 207.35706 C 55.55821 209.45706 56.05821 211.25706 56.55821 211.25706 C 57.15821 211.25706 57.55821 209.85706 57.55821 208.25706 C 57.55821 205.05706 61.55821 200.25706 64.15821 200.25706 C 65.75821 200.25706 65.95821 202.65706 64.55821 205.15706 C 63.25821 207.65706 65.25821 210.05706 69.15821 210.85706 C 71.75821 211.35706 72.85821 210.85706 75.85821 207.95706 C 81.05821 203.05706 81.05821 198.65706 75.85821 194.65706 C 70.95821 190.95706 67.75821 189.25706 65.45821 189.25706 C 61.35821 189.25706 63.25821 187.35706 72.85821 181.85706 C 90.05821 172.05706 96.65821 167.15706 107.55821 156.25706 C 117.55821 146.35706 133.05821 134.55706 148.55821 125.05706 C 152.05821 122.95706 161.45821 119.25706 170.75821 116.15706 C 184.75821 111.65706 187.85821 110.95706 194.25821 111.05706 C 204.7582 111.25706 206.7582 112.65706 208.4582 120.15706 C 209.1582 123.55706 210.1582 126.25706 210.6582 126.25706 C 211.9582 126.25706 211.7582 123.55706 209.8582 116.75706 C 208.9582 113.45706 208.1582 107.35706 208.1582 103.25706 C 208.0582 94.35706 210.1582 89.25706 217.7582 80.05706 C 224.3582 72.25706 225.8582 72.55706 226.5582 81.75706 Z"/>
            </g>
            <g>
               <g  id="outline-1">
                  <path
                        d="M 148.55821 80.75706 C 147.25821 84.15706 147.75821 92.85706 149.35821 94.45706 C 150.05821 95.15706 150.15821 93.45706 149.85821 88.95706 C 149.55821 85.45706 149.75821 82.25706 150.25821 81.95706 C 151.15821 81.35706 158.65821 90.35706 159.85821 93.45706 C 160.15821 94.45706 160.85821 95.25706 161.35821 95.25706 C 161.85821 95.25706 163.05821 97.05706 164.05821 99.25706 C 165.05821 101.45706 166.25821 103.25706 166.75821 103.25706 C 168.05821 103.25706 160.95821 91.55706 156.15821 85.75706 C 154.85821 84.05706 152.85821 81.65706 151.75821 80.25706 L 149.75821 77.75706 L 148.55821 80.75706 Z"
                        fill="black"/>
               </g>
            </g>
            <g>
               <g  id="outline-2">
                  <path
                        d="M 218.0582 88.05706 C 215.4582 89.85706 213.7582 106.65706 215.5582 112.25706 C 216.1582 114.05706 216.3582 112.75706 216.4582 107.65706 C 216.5582 98.55706 217.5582 91.25706 218.6582 91.25706 C 219.1582 91.25706 219.5582 91.95706 219.5582 92.85706 C 219.5582 94.25706 226.4582 108.95706 230.0582 115.25706 C 230.8582 116.65706 231.5582 119.05706 231.5582 120.55706 C 231.5582 124.05706 229.5582 132.45706 228.4582 133.65706 C 227.9582 134.25706 227.5582 136.05706 227.5582 137.65706 C 227.5582 140.45706 227.6582 140.55706 229.2582 139.05706 C 233.4582 134.75706 234.8582 122.25706 232.0582 114.15706 C 231.1582 111.75706 230.1582 109.55706 229.7582 109.25706 C 227.7582 107.75706 222.6582 97.95706 222.0582 94.45706 C 221.2582 89.85706 219.5582 86.95706 218.0582 88.05706 Z"
                        fill="black"/>
               </g>
            </g>
            <g>
               <g  id="outline-3">
                  <path
                        d="M 217.0582 120.25706 C 217.2582 121.65706 217.5582 124.85706 217.5582 127.45706 C 217.5582 130.15706 218.0582 132.25706 218.5582 132.25706 C 220.0582 132.25706 219.6582 124.15706 217.9582 120.75706 C 216.7582 118.15706 216.5582 118.05706 217.0582 120.25706 Z"
                        fill="black"/>
               </g>
            </g>
            <g>
               <g  id="outline-4">
                  <path
                        d="M 156.05821 136.05706 C 155.05821 137.05706 157.05821 139.25706 159.55821 139.75706 L 162.35821 140.35706 L 160.35821 145.55706 C 159.25821 148.45706 157.65821 151.55706 156.75821 152.55706 C 155.55821 153.95706 155.35821 154.75706 156.15821 156.05706 C 157.05821 157.45706 159.15821 157.85706 166.35821 158.05706 C 174.05821 158.25706 176.05821 157.95706 180.25821 156.05706 C 182.95821 154.75706 185.45821 152.75706 186.05821 151.45706 C 186.95821 149.35706 187.55821 149.15706 191.45821 149.65706 C 195.45821 150.25706 195.65821 150.15706 194.45821 148.45706 C 191.95821 145.25706 185.05821 139.05706 182.55821 137.75706 C 180.35821 136.65706 157.05821 135.15706 156.05821 136.05706 Z"
                        fill="black"/>
               </g>
            </g>
            <g>
               <path d="M 178.95821 142.75706 C 181.35821 146.35706 180.95821 148.75706 177.45821 151.65706 C 173.95821 154.65706 171.65821 154.85706 167.55821 152.75706 C 163.55821 150.75706 163.55821 147.05706 167.45821 143.15706 C 171.35821 139.35706 176.55821 139.15706 178.95821 142.75706 Z"/>
            </g>
            <g>
               <path d="M 185.35821 146.55706 C 185.55821 148.35706 185.05821 149.45706 183.45821 150.25706 C 181.55821 151.35706 181.35821 151.25706 181.85821 149.75706 C 182.25821 148.85706 182.55821 146.95706 182.55821 145.55706 C 182.55821 142.25706 184.95821 143.05706 185.35821 146.55706 Z"/>
            </g>
            <g>
               <path d="M 162.55821 151.45706 C 162.55821 152.05706 163.25821 153.45706 164.25821 154.45706 C 165.75821 156.15706 165.65821 156.25706 162.75821 156.25706 C 159.45821 156.25706 158.65821 154.65706 160.15821 150.85706 C 160.85821 149.15706 162.55821 149.65706 162.55821 151.45706 Z"/>
            </g>
            <g>
               <g  id="outline-5">
                  <path
                        d="M 128.95821 181.45706 C 128.55821 182.05706 129.05821 183.15706 130.05821 183.85706 C 131.65821 185.05706 131.65821 185.25706 129.25821 187.55706 C 125.05821 191.85706 119.45821 193.95706 108.85821 195.25706 C 100.95821 196.25706 97.95821 196.35706 96.05821 195.45706 C 92.05821 193.65706 91.75821 194.05706 95.05821 196.75706 C 97.55821 198.75706 99.15821 199.15706 104.95821 199.25706 C 108.75821 199.25706 113.55821 198.75706 115.65821 198.25706 C 117.85821 197.65706 121.45821 196.75706 123.75821 196.15706 C 126.05821 195.55706 129.05821 193.85706 130.45821 192.35706 C 135.05821 187.55706 138.15821 186.25706 144.35821 186.25706 C 149.45821 186.25706 152.55821 185.15706 152.55821 183.25706 C 152.55821 182.95706 148.95821 182.85706 144.65821 183.05706 C 138.85821 183.35706 135.95821 182.95706 133.65821 181.85706 C 130.05821 179.95706 129.85821 179.95706 128.95821 181.45706 Z"
                        fill="black"/>
               </g>
            </g>
            <g>
               <g  id="outline-6">
                  <path
                        d="M 172.45821 143.75706 C 172.35821 144.35706 172.45821 145.75706 172.55821 147.05706 C 172.65821 148.25706 171.95821 149.55706 171.05821 149.85706 C 168.75821 150.75706 167.95821 149.45706 169.35821 147.25706 C 170.05821 146.15706 170.25821 145.25706 169.75821 145.25706 C 169.35821 145.25706 168.45821 146.25706 167.75821 147.35706 C 166.15821 149.85706 167.35821 151.65706 170.15821 151.05706 C 172.65821 150.65706 175.15821 145.45706 173.65821 143.95706 C 173.05821 143.35706 172.55821 143.25706 172.45821 143.75706 Z"
                        fill="black"/>
               </g>
            </g>
         </g>
      </g>
   </g>
</svg>