<?xml version="1.0" encoding="UTF-8" standalone="no"?>
<svg
   id="svg4527"
   height="258.75134"
   width="297"
   viewBox="33.75 60.74866 297 258.75134"
   version="1.1"
   xmlns="http://www.w3.org/2000/svg"
   xmlns:svg="http://www.w3.org/2000/svg"
   xmlns:rdf="http://www.w3.org/1999/02/22-rdf-syntax-ns#"
   xmlns:cc="http://creativecommons.org/ns#"
   xmlns:dc="http://purl.org/dc/elements/1.1/"><defs
   id="defs1895" />

fill:#ff0000
  <metadata
   id="metadata4398"> Produced by OmniGraffle 7.7.1 
    <dc:date>2018-03-13 07:12:51 +0000</dc:date>
<dc:title>Traceable heraldic art http://heraldicart.org/credits.html</dc:title>
<rdf:RDF>
  <cc:Work
     rdf:about="">
    <dc:format>image/svg+xml</dc:format>
    <dc:type
       rdf:resource="http://purl.org/dc/dcmitype/StillImage" />
    <dc:creator>
      <cc:Agent>
        <dc:title>Traceable Heraldic Art</dc:title>
      </cc:Agent>
    </dc:creator>
  </cc:Work>
</rdf:RDF>
</metadata>
<g
   fill="#ffff00"
   stroke-opacity="1"
   stroke="none"
   stroke-dasharray="none"
   fill-opacity="1"
   id="Doe_Trippant">
  <title
     id="title4400">Doe Trippant</title>
  <g
     id="Doe_Trippant: Layer 2">
    <title
       id="title4402">Layer 2</title>
    <g
       id="Group_3">
      <g
         id="Graphic_43">
        <path
           id="path4404"
           fill="#cccccc"
           d="M 121.67101 308.77505 C 121.32755 309.69643 121.16632 310.8906 121.32413 311.98085 C 121.57363 313.7989 122.24863 314.1188 123.14333 312.91416 C 123.88702 311.8832 127.30572 309.44155 129.3625 308.52273 C 130.38947 308.04303 131.4806 307.3141 131.77978 306.92608 C 132.68015 305.8026 133.4406 303.2613 133.34125 301.84062 C 133.28449 301.0288 133.45906 300.6087 133.86496 300.58033 C 134.31146 300.5491 134.4426 300.09126 134.36029 298.91413 C 134.24391 297.2499 135.66772 293.11223 136.39835 293.06114 C 136.6013 293.04695 137.03275 293.3839 137.34527 293.76992 C 137.79092 294.3098 138.70662 294.5721 140.22266 294.67002 C 141.41114 294.75007 142.57039 294.99532 142.74978 295.2275 C 142.97544 295.53804 143.21614 295.48042 143.51816 295.133 C 143.89568 294.6987 143.7021 294.26356 142.71828 293.0271 L 141.42194 291.4046 L 141.58261 286.70263 C 141.6445 284.0878 141.81595 281.8732 141.92921 281.7429 C 142.04247 281.61263 142.6976 281.6484 143.36407 281.84652 C 145.0737 282.3796 145.70414 281.47894 144.92412 279.6572 C 144.5889 278.94643 144.31215 277.90526 144.27241 277.337 C 144.1901 276.15987 142.36977 274.04376 141.20769 273.75792 C 140.83386 273.6617 140.02943 272.65743 139.50062 271.51152 C 138.97465 270.4062 138.21166 268.828 137.8736 268.07664 C 136.96898 266.2228 136.01812 252.62496 136.52736 249.4078 C 137.32897 244.53864 137.96111 242.49577 139.28613 240.44524 C 140.57624 238.47873 146.00603 232.71488 148.17408 231.05408 C 150.53374 229.21672 151.4219 228.502 153.41908 226.73077 C 154.56868 225.67144 155.73247 224.81507 155.93542 224.80088 C 156.17897 224.78385 157.06714 224.06912 157.9062 223.23545 C 158.78585 222.39895 159.63343 221.68705 159.83355 221.63227 C 159.99591 221.62092 160.56503 221.01007 161.08789 220.3209 C 163.76347 216.58514 163.68797 216.672 169.06665 216.01036 C 177.35934 215.0226 183.47207 212.02543 194.17921 203.56758 C 197.03816 201.28742 199.9868 199.12335 200.64846 198.6692 C 201.35355 198.2528 202.4739 197.35867 203.16196 196.69872 C 203.84718 195.99818 205.5622 194.85852 206.9809 194.14748 C 208.39674 193.39585 209.96076 192.42991 210.50348 192.02486 C 211.04337 191.57922 212.10525 191.0155 212.85944 190.71802 C 213.61364 190.42055 215.98947 189.39784 218.12743 188.47335 L 222.00313 186.73393 L 222.48567 187.8015 C 222.92194 188.7907 225.60744 193.9463 225.91428 194.25115 C 226.2617 194.55317 230.08826 204.3605 230.434 205.80472 C 230.96393 208.13343 233.82967 212.9501 235.9889 215.24645 C 237.83563 217.15677 243.22934 221.95982 243.55407 221.93711 C 244.00056 221.9059 247.2776 225.02144 248.71275 226.87897 C 250.86546 229.66525 252.8663 233.19635 253.27533 234.96247 C 254.0962 238.5353 252.33887 246.65284 248.60706 256.86633 C 246.44722 262.72783 245.43472 265.1644 243.93427 268.20614 C 239.2933 277.66742 235.7673 282.07447 231.14591 284.23314 C 227.90547 285.7242 227.18534 286.50875 226.2966 289.5485 C 225.57107 292.0058 224.28664 294.0535 222.7368 295.22238 C 221.57586 296.11934 222.22162 296.60444 223.90088 296.1199 C 224.77968 295.8545 225.11008 295.913 225.1413 296.3595 C 225.22362 297.5366 222.94088 302.22383 221.3638 304.1696 C 220.46058 305.2525 219.71973 306.32404 219.73392 306.527 C 219.76798 307.01408 221.40098 306.4512 224.31953 305.02345 C 228.3783 302.9857 228.2131 302.95646 228.07373 305.04645 C 228.0022 306.3567 227.68798 307.11288 226.88099 307.82194 C 226.1146 308.52815 225.93718 308.90766 226.2846 309.20968 C 226.63204 309.5117 227.07003 309.3587 227.87418 308.60906 C 228.94543 307.596 232.16316 305.78022 235.09307 304.51482 C 238.06357 303.2466 239.7028 300.4399 239.4729 297.15204 C 239.35086 295.40665 239.41784 295.19802 240.08432 295.39615 C 241.67218 295.93774 243.52714 296.21592 243.87543 295.94683 C 244.06987 295.81087 244.0395 294.79326 243.8411 293.70583 C 243.57938 292.2965 243.63303 291.31382 244.04916 290.265 C 244.36055 289.46823 244.58792 288.63655 244.5709 288.393 C 244.51412 287.5812 245.2703 287.89542 246.25128 289.0913 C 247.4088 290.47875 249.28166 290.42936 249.4693 289.0294 C 249.51925 288.57724 250.0949 287.47647 250.80935 286.61073 C 252.15708 284.88493 252.28822 284.42708 252.39524 280.7078 C 252.4262 279.40037 252.6808 277.7918 252.9658 277.2008 C 253.2102 276.61268 254.18494 274.21954 255.0842 271.91326 C 256.94683 267.05148 260.3468 259.67564 262.47485 255.69266 C 265.5853 250.00942 271.8377 240.84334 275.02592 237.43885 C 276.80595 235.47887 278.2641 233.5822 278.23855 233.21687 C 278.213 232.85156 278.43668 232.5504 278.7614 232.52768 C 279.6544 232.46524 286.88604 237.30292 287.91897 238.6583 C 288.9519 240.0137 290.58004 244.63138 291.83635 249.76454 C 292.86217 253.93487 293.45112 265.27384 292.96118 271.10015 C 292.40708 277.17568 291.0074 284.5748 289.9137 287.01705 C 287.86884 291.60605 284.15862 295.12862 281.2304 295.2518 C 279.07344 295.32105 278.12396 296.3256 277.16822 299.57398 C 276.50684 301.78205 274.28712 305.03724 273.39413 305.09968 C 273.23177 305.11103 273.08076 305.28475 273.0978 305.5283 C 273.11198 305.73125 273.8568 305.8831 274.7498 305.82066 C 276.69814 305.68442 276.80203 306.00347 275.37142 308.87717 C 274.30413 311.11362 272.58172 313.3143 270.99414 314.52662 C 270.52976 314.8854 270.11733 315.40372 270.13152 315.60667 C 270.18545 316.3779 273.29475 315.3447 276.588 313.44205 L 279.84347 311.58284 L 280.21105 313.9229 C 280.5125 315.9005 280.69756 316.21386 281.4773 316.2817 C 282.70637 316.3589 288.3479 312.45656 289.99765 310.38332 C 291.15662 308.87466 291.28776 308.4168 291.0638 306.96407 L 290.82 305.2272 L 292.74193 305.29673 C 295.31617 305.36146 295.85038 304.83464 295.44505 302.538 C 295.00764 300.36598 296.1334 297.79912 298.57793 295.42557 L 300.13996 293.84794 L 301.0775 295.00605 C 302.77323 297.0901 304.7386 297.1974 304.5967 295.16786 C 304.5371 294.31545 304.75792 293.9737 305.43377 293.7225 C 306.79114 293.30127 307.73098 290.99215 307.34836 289.02024 C 306.9081 286.80762 306.6053 264.3948 306.92524 257.88696 C 307.248 251.41972 308.5015 244.8466 310.1802 240.85425 C 311.92874 236.69386 311.40078 234.97685 307.4195 231.7066 C 303.61195 228.58735 301.15013 223.1306 300.81123 217.11752 C 300.70423 215.00397 300.5169 212.325 300.39683 211.1913 C 300.27677 210.0576 300.39826 208.29517 300.65486 207.29829 C 300.91147 206.3014 301.55667 203.27869 302.10564 200.6298 L 303.07245 195.78987 L 304.58594 197.60112 C 305.39037 198.60539 306.07586 199.65876 306.09573 199.9429 C 306.1894 201.28238 307.9379 202.95483 311.12696 204.81208 C 315.37335 207.20722 316.65437 207.44395 319.0915 206.13144 C 320.11565 205.61114 321.42108 205.0304 321.98083 204.86888 C 325.13924 203.9546 328.49238 198.82544 328.49835 194.8277 C 328.52163 192.8274 328.311 192.14872 327.06464 190.07405 C 325.49155 187.4104 324.47196 186.82907 325.1935 188.98122 C 325.40695 189.7005 325.67433 191.191 325.74813 192.24635 C 325.8645 193.91057 325.6956 194.41185 324.8188 195.28894 C 322.11 197.9665 315.32713 195.4632 313.47246 191.10609 C 312.7387 189.36268 312.4364 187.9562 310.70184 178.89995 C 309.25536 171.04722 306.61217 164.74659 302.9488 160.18964 C 299.86706 156.36702 290.3967 148.09644 289.21958 148.17876 C 289.01662 148.19295 288.21134 147.75979 287.4004 147.24545 C 285.68877 146.10068 281.6842 144.83072 277.10202 144.04983 C 274.624 143.61127 272.00918 143.54938 266.68613 143.84003 C 258.96256 144.21696 258.80304 144.2689 244.58837 148.64838 C 241.39505 149.64667 237.91476 150.62424 236.78674 150.82549 C 235.6993 151.0239 233.33 151.55668 231.56673 152.00629 C 222.4662 154.27422 218.4006 155.04799 209.82378 156.05563 C 200.11893 157.26452 190.82823 156.81288 188.29998 155.07258 C 187.65706 154.62807 186.8055 154.11657 186.38257 153.90141 C 185.70474 153.54092 185.64996 153.3408 186.04536 152.57895 C 186.6531 151.35357 186.25371 150.89203 184.6301 151.00557 C 183.25 151.10207 179.49467 149.89626 177.91619 148.90534 C 177.23268 148.46366 177.17505 148.22296 177.5469 147.70749 C 177.95934 147.18918 177.77427 146.8758 176.47707 145.82442 C 175.65476 145.14772 174.9372 144.21896 174.90597 143.77246 C 174.87475 143.32596 174.49893 142.61804 174.02121 142.20276 C 172.96756 141.13435 172.12993 139.07189 171.988 137.04236 C 171.92273 136.10878 171.46545 133.65262 171.03372 131.56177 C 170.5614 129.47377 170.23072 127.66138 170.34682 127.57169 C 170.42232 127.48483 171.22193 127.8368 172.1169 128.38606 C 173.00905 128.89472 174.13905 129.30517 174.66673 129.26828 C 175.51913 129.20867 175.5512 129.08406 175.20548 127.63983 C 175.02127 126.75535 174.67441 124.12831 174.4286 121.77974 L 174.04656 117.48281 L 175.40308 117.63269 C 176.43203 117.76468 176.75108 117.66079 176.71702 117.1737 C 176.69431 116.84898 176.37612 116.38176 175.9881 116.08258 C 174.8297 115.26622 174.06104 113.60683 173.09852 109.75839 C 172.5856 107.67322 171.74883 105.03965 171.2606 103.89091 C 170.28985 101.6746 170.32476 101.59058 172.29667 101.20796 C 173.74658 100.94342 173.69549 100.21279 172.08578 98.77536 C 169.26006 96.28088 167.43122 94.04299 165.60692 90.70349 C 164.58052 88.85818 163.52773 87.21865 163.23224 87.07616 C 162.46755 86.64016 162.64297 85.64896 163.49537 85.58935 C 163.94187 85.55813 164.29583 85.37022 164.28164 85.16727 C 164.23623 84.51782 166.94728 84.20588 169.38187 84.60668 C 172.43382 85.08668 172.83973 85.0583 172.79148 84.36826 C 172.76593 84.00294 173.47953 83.70831 175.01062 83.43809 C 176.46053 83.17354 177.57152 82.72875 178.1029 82.16134 C 178.51817 81.68362 179.7745 80.98393 180.85057 80.62316 C 182.04558 80.21329 182.86392 79.66659 182.9573 79.25217 C 183.04502 78.75657 183.6746 78.42702 184.9593 78.13324 C 186.00331 77.89708 186.9897 77.420215 187.2832 76.95101 C 187.53895 76.52524 188.12226 76.11735 188.60367 76.0021 C 189.9318 75.746075 189.92784 74.52268 188.60623 74.28878 C 187.07883 74.02849 183.53014 72.27797 181.0019 70.53768 C 177.27466 67.98386 171.71887 64.94608 168.9113 63.87794 C 166.43983 62.94946 165.74127 62.87594 161.10827 63.11833 C 158.30184 63.233 155.50392 63.46944 154.81956 63.59887 C 153.6132 63.846384 149.66 65.06097 147.02928 65.93834 C 140.45956 68.23325 138.64433 68.52334 137.71813 67.52759 C 136.70791 66.49692 133.03376 65.28544 131.16659 65.416 C 129.13706 65.55792 127.08312 66.51733 125.20204 68.19885 C 121.74757 71.29565 117.6709 73.66096 113.04754 75.20793 C 111.17384 75.82842 109.0708 76.66889 108.36571 77.0853 C 106.59874 78.06543 104.87065 80.184935 104.68302 81.58488 C 104.60666 82.24285 104.47751 83.3124 104.40399 84.01095 C 104.3333 84.7501 104.44855 85.23151 104.69209 85.21448 C 104.93563 85.19745 105.15846 85.46739 105.184 85.83271 C 105.21239 86.23861 104.9802 86.418 104.60353 86.28119 C 104.1891 86.1878 103.9975 86.36435 104.02873 86.81085 C 104.08833 87.66325 95.7045 97.2639 92.88898 99.58181 C 91.84696 100.42967 90.01868 101.6996 88.92472 102.38794 C 86.69053 103.68626 86.1092 104.70585 85.56789 108.04762 C 85.27551 109.69963 85.32093 110.34908 85.7345 111.01357 C 86.09896 111.55913 86.33426 113.17424 86.39216 115.16886 L 86.45971 118.46805 L 87.72284 119.03235 C 88.43559 119.30882 89.06715 119.59097 89.15401 119.66648 C 89.27862 119.69855 89.06062 120.0809 88.72369 120.51235 C 88.19516 121.12036 87.27009 121.30741 83.82273 121.58926 C 79.72308 121.87594 79.52296 121.93072 78.14401 123.21003 C 77.11335 124.22025 76.64244 125.06896 76.34155 126.5992 C 75.903 129.07721 75.9731 130.66308 76.57458 131.68154 C 77.3035 132.77266 77.69806 132.58191 78.94189 130.53706 C 80.48207 128.0636 82.71343 126.72468 84.97713 127.01506 C 85.96266 127.1093 87.38049 126.96937 88.29988 126.70114 C 89.13526 126.39799 90.25192 126.03438 90.68991 125.88138 C 91.17132 125.76614 92.48612 124.73605 93.59512 123.67957 C 94.97407 122.40026 95.98969 121.75819 96.68257 121.75053 C 97.25367 121.75138 98.24857 121.39629 98.91307 120.98272 C 99.61815 120.56632 101.01328 120.10166 102.01953 119.90893 C 104.5597 119.48657 106.26906 118.26573 107.06356 116.21151 C 107.71557 114.45277 107.87226 114.36024 116.1888 109.04716 C 119.11673 107.17006 119.11673 107.17006 121.98361 107.33669 C 129.92347 107.71963 129.21924 107.56493 129.01742 108.76193 C 128.842 109.75313 127.61803 112.08212 124.1451 117.8315 C 122.71534 120.13409 119.30146 123.22804 116.39426 124.81816 C 114.42717 125.85308 115.08712 126.54113 117.71132 126.15369 C 118.96111 125.94392 120.327 125.64447 120.7244 125.49431 C 121.6296 125.02312 121.5768 125.4347 120.53393 126.85367 C 119.33721 128.40576 117.00338 132.36234 117.0346 132.80884 C 117.04879 133.01179 116.39764 134.19942 115.58696 135.43899 C 114.77627 136.67856 114.1308 137.94737 114.14783 138.19091 C 114.1677 138.47505 113.83928 139.02827 113.42116 139.4654 C 113.00305 139.90253 112.67463 140.45575 112.68883 140.6587 C 112.70586 140.90225 111.92157 141.93603 110.97493 142.98116 C 109.9877 144.02913 109.32235 145.01381 109.49323 145.12423 C 109.62635 145.27807 111.14325 144.8049 112.84891 144.11458 C 114.51398 143.4271 116.02803 142.91334 116.2395 143.02092 C 116.40754 143.09075 116.13107 143.8035 115.65164 144.53043 C 114.69563 146.0249 113.97095 147.91108 113.01437 151.73057 C 112.24172 154.68062 111.03478 157.25316 109.42846 159.36415 C 108.79235 160.18362 108.39978 160.98606 108.5735 161.13707 C 108.74438 161.2475 109.94506 160.9188 111.25333 160.37863 L 113.58857 159.35877 L 113.65953 160.37353 C 113.77307 161.99716 111.31292 167.06388 109.44319 168.90776 C 108.49087 169.87171 107.56779 170.67047 107.40542 170.68182 C 107.20247 170.69601 107.06281 171.0321 107.09404 171.47859 C 107.20757 173.10221 99.87856 173.2884 93.45645 171.86117 C 91.63072 171.4178 87.90377 170.6179 85.17086 170.034 C 82.43795 169.45011 78.37208 168.46996 76.16401 167.80859 C 72.12738 166.66324 65.72429 166.09126 63.81 166.71459 C 63.33143 166.87042 61.97036 167.82216 60.820765 168.8815 C 59.66833 169.90023 57.950464 170.99929 57.0745 171.30528 C 56.15795 171.6141 54.979966 172.26752 54.44292 172.75376 C 53.29332 173.81308 51.53997 177.32118 50.97396 179.72653 C 50.437194 181.96667 48.230237 188.32094 46.05621 193.97949 C 43.84159 199.64088 41.640886 203.7513 39.07657 206.74507 C 37.08138 209.12798 36.88325 209.79446 36.88494 214.4851 C 36.891747 215.74907 36.630598 217.84758 36.350433 219.09084 C 35.78159 221.4556 35.72397 221.2149 37.579764 226.7548 C 37.88575 227.63077 38.14859 230.2229 38.226357 232.50164 C 38.329094 237.47073 38.50281 237.62173 41.30215 234.48917 L 43.1926 232.3583 L 43.45913 234.41992 C 43.619787 235.55078 43.93145 236.50792 44.22126 236.56924 C 44.88774 236.76737 47.41772 231.5326 48.24884 228.25215 C 48.73565 226.46418 48.880705 224.45537 48.768023 222.26064 L 48.581544 219.01055 L 50.66302 219.02816 C 52.45752 219.02504 52.81716 218.91832 53.60428 217.92513 C 54.73401 216.58167 54.393106 215.78972 52.34172 215.0358 C 51.460936 214.6895 50.66417 214.37812 50.58015 214.3432 C 50.49613 214.3083 50.615917 213.68808 50.85464 213.01876 C 51.227336 211.93219 51.34343 211.8425 52.102446 212.1973 C 52.78028 212.5578 53.018146 212.45959 53.65142 211.59952 C 54.39511 210.56858 54.393125 209.95688 53.983546 204.68294 C 53.70737 201.31676 54.0602 199.94605 56.347764 195.91112 C 58.08891 192.81177 64.35578 185.60256 66.34927 184.36185 C 68.93458 182.83503 73.47136 182.96647 77.18241 184.70563 C 78.78162 185.40958 83.99737 187.08432 88.6948 188.34662 C 94.47314 189.90043 99.1771 190.6728 102.7312 190.7506 C 106.40706 190.81986 113.28219 191.72593 115.15986 192.32884 C 116.03781 192.63455 117.2754 192.83353 117.92484 192.78812 C 119.22374 192.6973 119.31912 192.89457 120.1505 197.20086 C 120.49821 199.2568 120.45109 199.74955 119.6282 201.39787 C 118.375 203.89206 119.17744 204.28463 121.10564 202.11034 C 121.89844 201.19833 122.5865 200.53838 122.63276 200.61672 C 122.69038 200.85743 124.29128 206.252 125.50586 210.2052 C 126.67985 214.16122 126.84589 219.4522 125.82771 221.80758 C 124.7397 224.331 124.56712 225.3628 125.21657 225.3174 C 126.96197 225.19534 133.14142 214.4028 133.9771 210.02072 C 134.06764 209.5657 134.40741 209.17485 134.77273 209.1493 C 135.50336 209.09821 135.65635 209.5362 135.16841 210.14136 C 134.98249 210.3991 134.50221 211.69714 134.0682 213.07353 C 132.7954 217.0375 129.72838 222.7585 124.56795 230.62454 C 121.3224 235.54223 120.7791 238.2723 122.4504 241.17383 C 123.10666 242.3924 123.17847 242.83606 122.8333 244.89965 C 122.48813 246.96324 122.51935 247.40973 123.28518 249.02853 C 123.76488 250.0555 124.34847 251.40153 124.55909 252.0802 C 125.47137 254.62692 126.91642 265.37577 127.51248 273.8998 L 128.09633 282.83257 L 126.86015 285.5703 C 126.00803 287.38382 125.0435 288.7565 123.88255 289.65348 C 122.95946 290.45223 121.82406 291.7145 121.3909 292.5198 C 119.72526 295.5323 118.90606 296.6501 117.8121 297.33842 C 116.64547 298.1542 116.78058 298.91975 118.07948 298.82892 C 118.48539 298.80054 118.8649 298.97795 118.87909 299.1809 C 118.92734 299.87094 117.55151 302.94475 115.84527 305.9601 C 114.14188 309.016 113.88527 310.0129 115.02834 309.4435 C 115.3823 309.2556 116.36868 308.77872 117.19838 308.3944 C 118.0715 308.0478 119.40901 307.34245 120.27078 306.8335 C 121.09196 306.3274 121.87823 305.90532 122 305.8968 C 122.4465 305.8656 122.26738 307.3873 121.67101 308.77505 Z" />
      </g>
      <g
         id="Graphic_42">
        <path
           style="fill:#ffff00"
           id="path4407"
           fill="#ff0000"
           d="M 139.07397 104.99952 L 139.07397 104.99952 C 138.5548 105.1582 136.64335 105.82212 134.7725 106.4832 L 131.38474 107.61745 L 129.02167 111.73923 C 124.32761 119.85819 123.92085 120.45768 121.56687 122.37622 C 120.29266 123.40347 119.29691 124.32967 119.38377 124.40517 C 119.47063 124.48068 120.43061 124.2096 121.50385 123.80824 C 123.33128 123.10941 125.3032 122.72678 125.32874 123.0921 C 125.33442 123.17328 124.39912 124.38078 123.23448 125.80826 C 120.673 128.84261 119.46692 130.84403 115.67238 138.41062 C 113.84353 142.00558 114.05414 142.68426 116.49128 141.37175 C 118.17991 140.43789 120.78708 139.8069 120.82398 140.33457 C 120.83817 140.53753 119.96987 141.5364 118.9392 142.54661 C 116.68344 144.70302 115.38396 147.11886 114.60762 150.59943 C 114.29538 151.9673 113.48016 154.3085 112.77053 155.82653 C 112.0609 157.34456 111.49944 158.64828 111.50511 158.72946 C 111.53066 159.09478 114.57666 157.73969 115.4214 156.9872 C 116.76827 155.8325 117.21676 156.41298 116.13897 157.91596 C 115.61612 158.60515 115.22923 159.48878 115.25477 159.8541 C 115.31438 160.7065 113.28937 165.57963 112.01062 167.7085 L 110.94703 169.41444 L 112.05149 169.45958 C 112.7472 169.4925 113.85536 169.00712 115.05974 168.14791 C 117.31181 166.52203 117.87071 166.93162 116.52213 169.22854 C 115.97288 170.12351 115.67285 171.08264 115.85224 171.31483 C 116.03163 171.54702 115.90049 172.00487 115.5522 172.27396 C 115.16901 172.62707 114.84825 173.87317 114.689 175.67903 C 114.35376 180.8011 113.99837 183.88514 113.64072 184.60356 C 113.22175 185.6118 113.78718 185.53147 116.18941 184.30297 C 118.4727 183.12358 119.2232 183.35663 118.69297 185.10685 C 118.32595 186.2746 118.68019 187.8406 120.10056 191.8202 C 120.55103 193.01237 120.9487 194.61612 120.99695 195.30616 C 121.04804 196.0368 121.25298 196.6343 121.49652 196.61727 C 121.69947 196.60308 121.82039 197.16567 121.70912 197.90765 C 121.55073 199.1424 121.597 199.22075 122.16896 198.6505 C 122.5144 198.34081 122.79087 197.62806 122.75398 197.10039 C 122.6518 195.63913 123.6765 192.79381 124.32595 192.7484 C 124.77245 192.71718 124.79232 193.0013 124.36115 194.4183 C 123.5516 196.84067 124.40029 203.14442 126.18995 208.32185 C 127.36763 211.74736 127.60663 212.83196 127.68837 216.3341 L 127.76641 220.36676 L 128.80645 218.9072 C 130.10507 217.06247 132.62738 211.13483 132.8329 209.40732 C 132.93849 208.58415 132.71084 207.66192 132.24533 206.8379 C 131.27088 205.15211 130.63705 202.50436 131.20532 202.46462 C 131.44886 202.44759 131.90302 203.10924 132.20333 203.90403 C 132.8559 205.65311 133.87747 206.84614 135.18403 207.4482 C 135.9808 207.75958 136.17808 207.6642 136.83775 206.59835 C 137.756 205.1473 137.75402 204.5356 136.86841 203.53702 C 136.20279 202.76779 135.79831 199.90005 136.1625 198.6917 C 136.55875 197.35874 137.09409 198.01472 137.23601 200.04425 C 137.31548 201.18078 137.60643 202.4249 137.8812 202.85437 C 138.34103 203.5972 138.49771 203.50467 140.37113 201.13027 C 141.86987 199.23075 143.10065 198.16574 145.14324 197.04397 C 146.67518 196.20265 147.8418 195.38686 147.74927 195.23018 C 147.61615 195.07633 146.79298 194.97074 145.85656 194.99543 C 143.78076 195.059 142.76117 194.47767 139.91275 191.65846 C 138.68254 190.39845 137.42878 189.38482 137.14464 189.40468 C 136.81992 189.4274 136.35355 189.17448 136.04671 188.86962 C 135.4302 188.21932 135.50854 188.17305 138.56135 188.08195 C 140.71832 188.0127 140.97124 187.54633 139.27098 186.56392 C 137.61698 185.65985 137.16566 185.03878 135.9437 182.14663 C 134.32889 178.303 133.17135 176.91554 130.69987 175.98706 C 129.5236 175.49826 128.55027 174.99528 128.53892 174.83292 C 128.48499 174.0617 130.63544 174.48237 132.46315 175.53744 C 134.67604 176.85111 135.52957 177.9743 137.41915 182.2474 C 138.6326 185.01778 140.07144 186.34479 141.69506 186.23125 C 142.01978 186.20854 142.5239 186.41803 142.78731 186.68513 C 143.40383 187.33544 142.46003 188.42116 140.86479 188.9406 C 140.2267 189.14838 139.7538 189.3854 139.76231 189.50716 C 139.7907 189.91307 143.03566 193.15323 143.75125 193.4703 C 144.17135 193.64486 145.56846 193.7919 146.87587 193.82285 C 149.69081 193.82995 151.60907 194.43002 151.50064 195.2126 C 151.4186 195.78938 146.3215 198.14446 145.0226 198.2353 C 143.48016 198.34315 137.9601 206.31592 136.46646 210.62164 C 134.76618 215.47207 131.68127 221.52063 127.89214 227.41448 C 122.3363 236.04238 121.7334 237.92005 123.57274 240.8914 C 124.26675 242.06654 124.33857 242.5102 124.03683 244.61154 C 123.64737 247.2085 123.77113 247.81167 125.21308 250.93318 C 127.41518 255.5923 129.43131 272.17485 128.91638 281.14366 C 128.6924 285.52376 127.29301 288.84395 125.06734 290.26405 C 124.17065 290.857 123.291 291.6935 123.07868 292.15704 C 122.90695 292.61772 122.32562 293.6373 121.84903 294.40484 C 120.05594 297.34468 123.38437 297.11193 126.67931 294.06708 C 128.24986 292.6112 128.76335 292.37136 129.0787 292.798 C 129.30436 293.10852 129.50362 293.62485 129.52633 293.94957 C 129.56039 294.43666 129.47921 294.44234 129.16669 294.0563 C 128.53314 293.16245 127.85842 294.59646 128.38723 295.74237 C 129.06336 297.24507 131.28108 299.21103 131.95125 298.87864 C 132.26746 298.73416 133.06395 297.29164 133.64613 295.70094 C 134.58596 293.39182 134.72931 292.52523 134.40346 291.36513 C 134.11819 290.2022 134.17099 289.7906 134.74862 289.30154 C 135.67455 288.54338 136.0163 288.7642 137.0918 290.72846 C 137.56015 291.59307 138.4892 292.6294 139.16703 292.9899 L 140.433 293.5948 L 140.04612 288.64558 C 139.81252 285.88826 139.70354 283.163 139.82616 282.5834 C 139.9346 281.8008 139.68055 281.08437 138.69673 279.84792 C 137.26443 278.031 137.10576 277.51182 137.87698 277.4579 C 138.12052 277.44087 138.72853 277.9694 139.13926 278.5933 C 140.09668 280.03555 140.50542 280.04775 141.02062 278.6657 C 141.26217 278.03696 141.76147 277.59416 142.24856 277.5601 C 142.69505 277.52887 143.05185 277.38156 143.04334 277.2598 C 142.99225 276.52915 141.85458 275.42582 140.29312 274.67844 C 137.46001 273.245 135.61613 271.37526 135.41857 269.71672 C 135.25593 267.97416 135.99877 267.51433 136.28035 269.20778 C 136.40694 269.85155 136.79411 270.72184 137.15006 271.14563 C 137.99791 272.18765 137.93462 271.86576 136.67575 268.44593 C 135.85884 266.0965 135.5801 264.44363 135.21963 259.28863 C 134.60172 249.86877 135.53816 244.01124 138.33637 239.69587 C 140.06815 237.04585 145.33189 231.82387 149.44148 228.76284 C 151.02906 227.55052 153.14517 225.7302 154.09181 224.68506 C 155.0413 223.68052 156.54486 222.43329 157.44438 221.88092 C 158.30615 221.37198 159.3774 220.35892 159.81624 219.63482 C 160.25507 218.91072 161.85486 217.28965 163.35274 215.96124 C 164.89405 214.67057 166.76662 212.86728 167.55658 211.91468 C 168.95057 210.26722 169.02324 210.13977 168.66701 207.96207 C 168.45725 206.71227 168.03602 205.3549 167.72067 204.92827 C 167.2665 204.26662 167.23813 203.8607 167.57591 202.85815 C 168.05051 201.47893 172.39684 197.13688 176.38183 194.04378 C 177.77497 192.96742 179.95523 190.89788 181.28223 189.45904 C 183.47186 186.94016 184.55646 186.70116 182.96717 189.0557 C 182.45283 189.86666 182.33588 190.52746 182.62399 191.73098 C 182.81956 192.77783 182.73667 193.92572 182.40172 194.96886 C 182.09601 195.84681 181.86297 196.59731 181.86865 196.6785 C 181.88 196.84086 183.28364 196.49797 184.27854 196.14288 C 185.34894 195.70092 187.75004 193.28962 187.70746 192.68076 C 187.69327 192.4778 187.88572 191.73015 188.1622 191.0174 C 188.39524 190.2669 188.97458 188.63562 189.37652 187.38384 C 190.1804 184.88028 190.58147 184.1996 190.9431 184.70458 C 191.07622 184.85843 190.67343 186.68131 190.0413 188.72418 C 189.4063 190.72646 188.91666 192.47384 188.92234 192.55502 C 188.92802 192.6362 189.70492 192.66346 190.6385 192.59817 C 192.14035 192.49315 192.53207 192.26182 194.0308 190.3623 C 195.00668 189.15196 196.39302 186.81162 197.13188 185.1284 C 198.93236 181.12752 200.0743 179.37532 201.52506 178.53967 C 203.4402 177.34523 203.25058 178.13349 201.01752 180.61461 C 199.80378 181.92316 198.87132 183.17125 198.88552 183.3742 C 198.90255 183.61774 198.812 184.07276 198.71577 184.44659 C 198.58463 184.90444 199.14154 184.70234 200.82734 183.72788 C 202.07798 182.94702 203.4995 182.27657 203.98376 182.20191 C 205.35248 181.94305 205.32523 182.71995 203.96502 183.10058 C 201.726 183.74662 200.028 185.12982 196.787 188.9459 C 193.39497 192.93568 192.34727 193.70236 189.95243 193.86982 C 189.01884 193.9351 188.1514 194.36286 187.3095 195.15594 C 185.82013 196.60612 183.92855 197.55418 182.3861 197.66204 C 181.65547 197.71313 180.43406 198.3288 179.35145 199.1795 C 177.6563 200.60328 177.41559 200.6609 173.76243 200.91635 C 170.23105 201.1633 169.912 201.26718 169.36275 202.16216 C 168.96167 202.84283 168.89099 203.58197 169.12715 204.62598 C 169.34628 205.42644 169.66844 207.11705 169.8782 208.36684 L 170.2807 210.62289 L 168.27415 212.84344 C 165.88724 215.4577 166.19409 215.76255 170.42772 215.05862 C 176.92023 213.99278 184.35627 210.0873 193.63536 202.78983 C 196.45655 200.5531 199.55337 198.17473 200.52556 197.4949 C 201.49775 196.8151 202.58036 195.9644 202.87953 195.57637 C 203.71008 194.62093 211.59915 190.19431 215.55887 188.4898 C 217.41837 187.66636 219.63184 186.655 220.49645 186.18666 C 221.3639 185.7589 222.4343 185.31695 222.87512 185.20454 C 223.31594 185.09214 225.38975 184.41687 227.46073 183.701 C 229.5317 182.98514 232.2172 182.30788 233.34807 182.14723 C 234.51952 181.98373 235.56353 181.74757 235.67678 181.61729 C 235.83063 181.48416 234.81757 180.4129 233.4741 179.28318 C 232.13065 178.15345 231.19877 177.07652 231.3932 176.94055 C 231.58765 176.8046 232.09177 177.01407 232.5289 177.43219 C 232.96602 177.8503 233.84397 178.156 234.45283 178.11343 C 235.71114 178.02544 235.6677 177.9877 238.5502 181.294 C 239.65863 182.56252 241.32312 184.20006 242.1917 184.9551 C 243.45114 186.04992 243.81844 186.63607 243.90643 187.89438 C 243.96604 188.74678 244.57518 190.45812 245.2286 191.6361 C 245.9226 192.81124 246.9632 194.8595 247.62797 196.19985 C 249.34185 199.71023 252.1914 203.71225 254.4554 205.75655 C 256.37194 207.49883 262.5715 210.41001 264.15454 210.29932 C 264.51986 210.27377 264.81534 210.41627 264.82954 210.61922 C 264.88914 211.47162 263.99615 211.53407 262.1534 210.84714 C 261.06682 210.47444 260.11053 210.215 260.0756 210.29902 C 260.0001 210.38588 260.2777 210.85594 260.72335 211.39582 C 261.12557 211.89795 262.4767 213.72056 263.65693 215.43275 C 267.31944 220.5608 272.28283 226.20972 274.86586 228.15013 C 276.2008 229.1581 277.49516 230.16888 277.75573 230.3954 C 278.05406 230.57848 280.1046 231.9035 282.32316 233.29835 C 289.39896 237.65746 289.62462 237.968 291.6439 244.67936 C 293.0748 249.3924 294.08386 255.0731 294.30922 259.46258 C 294.75427 268.16032 293.17914 282.3835 291.32586 286.79593 C 289.01587 292.26004 285.166 296.1187 281.7564 296.3571 C 281.02576 296.4082 280.1847 296.63018 279.91193 296.8124 C 279.33145 297.2609 276.6025 303.73323 276.9065 303.9975 C 277.25393 304.2995 281.3976 301.72558 281.5957 301.0591 C 281.93066 300.01595 282.39986 300.30945 283.1657 301.92825 C 284.02404 303.70374 285.83103 305.0458 287.17052 304.95212 C 288.42883 304.86413 288.6704 304.2354 287.86312 303.19055 C 287.36837 302.53173 287.28237 301.88512 287.41436 300.85616 C 287.63974 299.4128 287.97866 299.59303 288.39052 301.39974 C 288.5577 302.04067 288.8938 302.18033 290.1464 302.01116 C 291.35846 301.84483 291.64827 301.90614 291.47938 302.4074 C 291.3803 302.74066 291.1765 303.32596 291.07744 303.6592 C 290.90855 304.16048 291.2012 304.26238 292.5407 304.1687 L 294.2049 304.05234 L 294.02807 302.10683 C 293.72748 299.55814 294.8419 296.82892 297.26087 294.09005 C 298.132 293.13178 298.266 292.71452 297.9316 291.43265 C 297.6841 290.2263 297.70482 289.9393 298.2731 289.89958 C 298.679 289.8712 298.94525 290.1789 298.99066 290.82834 C 299.02756 291.356 299.35995 292.0262 299.74513 292.28477 C 300.34462 292.69153 300.507 292.68018 300.9109 292.0401 C 301.53282 291.01767 303.32733 291.01456 304.13176 292.01882 C 304.80022 292.82865 304.8408 292.8258 305.60153 292.0384 C 306.551 291.03387 306.48942 289.56977 305.1369 284.81044 C 303.90244 280.57312 303.25414 275.9685 303.84313 275.6418 C 304.07816 275.503 304.45596 276.8226 304.8471 278.9163 C 305.47922 282.70626 306.24022 283.67278 306.016 280.46612 C 305.41795 271.3304 305.54146 258.51398 306.2477 253.44754 C 306.3797 252.4186 306.62296 250.64764 306.74928 249.5375 C 307.18585 246.4478 308.2415 242.29507 309.12854 240.39753 C 310.86486 236.6459 310.45215 235.4103 306.5776 232.49967 C 305.24266 231.49172 304.1541 230.50732 304.1399 230.30437 C 304.1257 230.10141 303.41183 228.64214 302.52708 227.07244 C 300.28354 222.98726 299.7763 220.98328 299.44024 215.01078 C 299.18933 210.256 299.30714 209.0241 300.42666 202.86823 C 301.10195 199.1092 301.83203 195.5503 301.99524 194.96783 C 303.7577 189.25649 303.7651 176.52977 302.05123 173.0194 C 301.0975 171.04663 301.2928 170.33956 302.4824 171.60241 C 304.38108 173.67225 305.24708 181.97346 304.26834 188.97604 C 303.81672 192.4339 303.8783 193.898 304.6555 195.67917 L 305.19565 196.98744 L 305.55586 194.5557 C 306.01316 191.17901 307.2096 187.873 307.77417 188.3638 C 308.07818 188.62806 307.9405 189.57583 307.29417 191.41575 C 306.4818 193.79753 306.44318 194.41207 306.84198 197.19863 C 307.13207 199.01385 307.66854 200.85264 308.12838 201.59547 L 308.95267 202.88387 L 308.85305 199.7093 C 308.81502 197.9988 308.91863 196.56395 309.081 196.5526 C 309.28395 196.5384 309.61832 197.82027 309.8102 199.39763 C 310.1108 201.94632 310.30437 202.38146 311.33815 203.16574 C 311.9839 203.65085 312.51357 204.22565 312.5306 204.4692 C 312.57318 205.07805 315.16075 205.91683 316.58143 205.8175 L 317.71796 205.73802 L 316.4029 205.0142 C 315.51075 204.50553 314.7063 203.50127 313.84796 201.72578 C 312.47215 198.96675 312.3078 198.3664 312.87607 198.32667 C 313.07902 198.31248 313.6314 199.212 314.07334 200.2824 C 314.51813 201.3934 315.39154 202.80073 316.0052 203.41044 C 316.97485 204.44394 317.34868 204.54017 319.3782 204.39825 C 320.96124 204.28755 322.08075 203.96453 322.9746 203.33098 C 324.3734 202.3358 324.548 201.9157 323.50114 202.11128 C 321.8077 202.39285 320.9354 202.16833 319.64958 201.2793 C 317.97004 200.00992 318.22863 199.62473 320.1347 200.63354 C 321.86986 201.53194 323.17443 201.5223 324.81963 200.55068 C 326.30815 199.6716 327.4952 196.81493 327.30135 194.62588 C 327.24175 193.77347 327.08875 193.3355 326.9897 193.66873 C 326.4972 195.37552 323.9167 197.55463 322.2119 197.67384 C 321.03478 197.75616 316.47416 196.1172 315.22324 195.14415 C 312.93853 193.38682 311.39355 189.37516 310.1699 181.79238 C 309.2704 176.5119 309.03423 175.4679 308.0842 172.96463 C 304.9366 164.7006 304.9857 164.81953 301.07114 159.58674 C 300.35073 158.61739 297.6817 156.03037 295.1628 153.84074 C 290.73306 149.99001 290.3507 149.77201 284.89512 147.58379 C 281.78923 146.33257 278.32087 145.14748 277.2079 144.98057 C 273.9879 144.43075 264.73977 144.58797 260.99323 145.25784 C 257.49023 145.91069 246.76238 148.82267 245.06523 149.63476 C 243.60028 150.26746 236.11486 152.30009 234.6942 152.39943 C 234.04474 152.44485 232.63542 152.70655 231.5565 153.02673 C 228.51703 153.8919 221.31943 155.37414 215.15165 156.41727 C 206.64947 157.90916 202.42237 158.12317 192.99854 157.51769 C 190.86796 157.38115 190.78962 157.42742 191.40614 158.07772 C 192.15579 158.88187 196.77403 160.76154 197.82938 160.68774 C 198.1947 160.6622 198.5393 160.92362 198.56484 161.28894 C 198.67553 162.87197 193.05757 160.6951 189.13392 157.66556 C 187.45154 156.35559 185.48787 155.10607 184.77513 154.8296 C 183.22786 154.28517 183.08054 153.92837 183.9196 153.0947 C 184.72376 152.34506 183.95623 151.86847 182.12965 151.9962 C 181.4396 152.04445 180.69479 151.89259 180.55882 151.69815 C 180.10466 151.03649 179.1041 151.3104 179.43932 152.02117 C 179.63006 152.41572 178.83613 152.14492 177.30959 151.31352 C 174.71719 149.82245 174.36692 149.47984 175.85656 149.78356 C 177.84749 150.25618 174.64424 148.19598 172.1001 147.39495 C 169.35016 146.56752 168.11342 145.79743 168.05382 144.94502 C 167.99989 144.1738 168.57667 144.25584 169.49436 145.12981 C 170.23549 145.8122 173.69534 146.8755 174.95365 146.78752 C 175.23778 146.76765 174.81002 145.9002 173.9159 144.77984 C 172.03227 142.34185 171.11715 139.75455 170.42826 135.15276 C 170.17024 133.21293 169.52222 130.36222 169.00846 128.84816 C 168.0414 126.10134 168.03571 126.02015 168.81914 125.55748 C 169.44588 125.18734 169.86314 125.32132 171.28495 126.40478 C 172.19412 127.15699 173.13252 127.744 173.33548 127.7298 C 173.74138 127.70142 173.43456 121.56372 172.89327 119.07265 C 172.70054 118.0664 171.96877 116.93469 170.65171 115.59917 C 168.85126 113.76719 168.19784 112.58921 168.96906 112.53528 C 169.13142 112.52393 170.16236 113.26762 171.2075 114.21426 C 173.33835 116.10471 174.00483 116.30284 173.54301 114.9483 C 173.38718 114.46973 172.49562 111.63605 171.59554 108.6806 C 170.006 103.44838 168.99748 101.2755 168.33582 101.72966 C 167.94978 102.04218 166.71476 100.12988 167.05453 99.73902 C 167.20838 99.60589 167.78232 99.64734 168.36762 99.85114 C 168.95576 100.09554 169.94412 100.23037 170.5124 100.19063 L 171.60834 100.114 L 170.4735 99.05126 C 169.86266 98.48214 169.02332 97.56189 168.57484 96.98142 C 168.16695 96.3981 167.47492 95.83466 167.01991 95.74411 C 166.60265 95.61013 166.20895 95.22977 166.1834 94.86445 C 166.11812 93.93087 163.51296 89.34072 162.22798 87.88059 C 161.65205 87.22745 160.58051 86.48659 159.9112 86.24787 C 158.5754 85.81102 158.05226 84.7463 159.14821 84.66966 C 159.47293 84.64696 159.74572 84.46472 159.73152 84.26177 C 159.70314 83.85586 158.69774 83.47749 157.76416 83.54277 C 157.43943 83.56548 155.85725 83.10507 154.2694 82.56348 C 152.6787 81.98129 151.18622 81.63698 150.99178 81.77294 C 150.75959 81.95234 149.1283 81.37299 147.31763 80.56146 C 144.20039 79.14787 144.11637 79.11296 145.17002 80.18138 C 148.76525 83.76415 151.26994 85.75082 152.90406 86.37076 L 154.74398 87.01709 L 153.8436 88.14057 C 153.12915 89.00631 153.07068 89.33671 153.47573 89.87943 C 153.7854 90.22488 154.82401 91.66145 155.81919 93.06027 C 156.81436 94.45908 158.325 96.22975 159.15867 97.06881 C 160.85808 98.62233 160.79591 99.48325 159.06755 99.84884 C 158.0613 100.04157 158.05846 100.00098 159.52425 104.63002 C 160.14474 106.50372 160.72464 108.38025 160.83988 108.86166 C 160.99287 109.29964 161.49614 110.08023 161.97953 110.57669 C 162.98691 111.56676 163.23159 112.73254 162.35648 112.46742 C 162.06383 112.36552 160.99428 112.23636 160.00876 112.14212 L 158.20574 112.02346 L 158.33374 115.60395 C 158.52135 120.03684 158.25453 122.05417 157.4833 122.1081 C 157.118 122.13364 156.89233 121.82311 156.93945 121.33034 C 156.94882 120.88101 157.0845 119.32154 157.18528 117.84608 C 157.29258 115.8807 157.15265 114.46287 156.56423 112.46456 C 155.5895 109.02486 155.55828 108.57836 156.3295 108.52443 C 156.65422 108.50173 156.94971 108.64422 156.96674 108.88776 C 157.01216 109.53721 158.6511 110.80944 159.38173 110.75835 C 159.86882 110.72429 159.97356 110.47223 159.72236 109.79638 C 159.52593 109.32064 159.23783 108.11712 159.0451 107.11087 C 158.47258 104.1733 157.3809 101.3944 156.14219 100.01261 C 154.49558 98.04751 154.60969 97.34612 156.38829 98.28226 C 159.0562 99.68648 158.97303 99.08046 156.01873 95.3305 C 154.80924 93.78351 153.7678 92.30635 153.75361 92.1034 C 153.73942 91.90045 153.03604 91.17464 152.21089 90.45735 C 150.38971 88.91234 150.21401 88.14964 151.67527 88.04746 C 152.56826 87.98501 152.64377 87.89815 152.20096 87.39886 C 151.93471 87.09117 151.3409 86.76559 150.88589 86.67504 C 150.46863 86.54106 148.4445 85.01025 146.4005 83.1953 C 143.3548 80.47146 142.77886 79.81832 143.2404 79.41895 C 143.6642 79.063 143.68775 78.81662 143.38375 78.55235 C 143.03632 78.250335 142.39255 78.37693 141.05504 79.08229 C 139.47967 79.88587 139.03601 79.95768 137.70589 79.60201 C 135.79615 79.12372 134.92473 78.32808 134.48363 76.68658 C 133.99626 74.966725 135.01103 74.89577 135.94773 76.624985 C 137.80978 79.92106 142.71358 78.88474 141.77376 75.36102 C 141.43655 74.03856 141.4743 73.99513 142.38717 74.21682 C 145.83282 75.07718 150.25805 74.19669 157.1911 71.26454 C 164.79717 68.04059 169.2962 68.21546 176.7816 72.01567 C 178.7254 72.98105 180.53608 73.79259 180.82022 73.77272 C 181.59144 73.71879 183.94966 74.77756 183.98089 75.224055 C 183.99508 75.42701 183.84407 75.60072 183.60053 75.61775 C 182.70753 75.6802 178.938 74.27144 175.97461 72.72473 C 171.86986 70.6052 170.0413 70.12123 166.0813 70.07183 C 162.97655 70.00341 161.53515 70.38973 157.86525 72.15555 C 157.4301 72.34913 156.0784 72.85154 154.88623 73.30201 C 149.95234 75.07464 147.4292 75.74054 145.59694 75.78709 C 144.5359 75.77971 143.52682 75.93185 143.4164 76.10272 C 142.69627 76.88728 147.98496 80.18848 149.77378 80.10418 C 150.26087 80.07012 151.96482 80.52202 153.51209 81.06645 C 155.05936 81.61088 156.59243 81.95235 156.90864 81.80788 C 157.22485 81.6634 158.83343 81.91802 160.49679 82.37275 C 162.32535 82.85672 163.92825 83.03016 164.56919 82.86297 C 165.1667 82.65803 166.35801 82.77867 167.19253 83.04663 C 168.94843 83.65805 170.70234 83.65777 170.65977 83.04891 C 170.64273 82.80537 171.76792 82.56353 173.22918 82.46135 C 175.46166 82.30524 175.81846 82.15792 175.97316 81.45369 C 176.06088 80.95809 176.48467 80.60214 177.01234 80.56524 C 178.71715 80.44603 181.04671 79.344985 180.80402 78.79091 C 180.47164 78.12074 181.72512 77.38046 183.47052 77.25841 C 184.28233 77.20164 184.99593 76.90701 185.17618 76.56809 C 185.35642 76.22917 185.89347 75.74294 186.40695 75.50309 C 187.31783 75.11308 187.23097 75.03758 184.90482 73.8542 C 180.38281 71.60069 179.61528 71.12411 178.41062 70.22941 C 175.30077 67.75479 169.63456 64.88788 166.77988 64.31251 C 164.62659 63.851245 156.515 63.928994 156.13748 64.363284 C 156.02422 64.49357 154.98305 64.77032 153.8116 64.933815 C 151.91236 65.18899 149.8008 65.90769 147.31739 67.14187 C 146.3716 67.61589 142.08233 68.69082 139.3392 69.12737 C 137.60232 69.371195 137.1879 69.27781 135.73118 68.278365 C 134.44534 67.38934 133.52964 67.12706 131.89466 67.07823 C 129.40444 67.04842 128.10469 67.71036 125.3062 70.27181 C 124.3482 71.15458 123.15234 72.13557 122.64737 72.49719 C 121.5534 73.18552 113.58203 76.43502 112.72963 76.49462 C 112.44549 76.51449 111.14006 77.09524 109.8809 77.75434 C 106.26294 79.67969 105.10226 82.33056 106.42244 85.46058 C 106.91066 86.60933 106.88142 86.77453 105.88284 87.66014 C 105.27028 88.23323 102.46243 91.24402 99.6225 94.37942 C 96.5183 97.81883 93.38571 100.85232 91.79246 101.98346 C 87.66867 104.84154 87.3289 105.2324 86.88751 107.66982 C 86.64793 108.91024 86.64623 110.05246 86.81994 110.20347 C 87.42795 110.732 88.51907 110.00307 89.08053 108.69935 C 90.20345 106.09191 92.68601 105.42884 92.84496 107.70191 C 92.93578 109.00081 92.5611 109.4757 89.65589 111.67751 C 88.06547 112.84924 87.69362 113.36471 87.68908 114.46633 C 87.65246 115.69257 87.74215 115.80866 88.58888 115.66788 C 90.03595 115.36274 90.0087 116.13964 88.56077 117.01588 L 87.22895 117.80243 L 88.49009 117.75503 C 89.99195 117.65001 93.67406 115.47544 95.92982 113.31904 C 96.85007 112.4797 97.82226 111.79988 98.14698 111.77717 C 98.79643 111.73176 100.12854 112.69912 100.16828 113.26739 C 100.17963 113.42975 99.37747 114.7911 98.34027 116.29124 C 96.38198 119.20184 96.06406 120.48853 97.36296 120.3977 C 97.85005 120.36364 98.34083 119.79906 98.67577 118.75592 C 98.98432 117.91856 99.62413 116.56857 100.10355 115.84163 C 100.83873 114.68892 101.03317 114.55295 101.27586 115.10703 C 101.4666 115.50158 101.27415 116.24924 100.83531 116.97334 C 99.84439 118.55183 99.95679 118.99265 101.33687 118.89615 C 104.70589 118.66056 106.24806 116.79879 106.11437 113.13712 C 106.02724 111.30771 106.1791 110.56288 106.8558 109.74057 C 108.0582 108.26966 108.83992 108.9492 107.76781 110.53337 C 106.95429 111.73235 106.81094 112.59895 107.40476 112.92452 C 108.12318 113.28218 117.67619 106.98527 117.61942 106.17346 C 117.59103 105.76755 118.81727 105.80417 123.04919 106.24245 C 129.62316 106.92485 132.04725 106.59219 137.39925 104.38243 C 142.3567 102.36342 144.21422 100.92828 145.8072 98.04323 C 146.85376 96.09375 147.04338 95.3055 146.91849 93.51951 C 146.83618 92.34238 146.43283 90.65744 146.00791 89.83059 C 144.34882 86.52032 143.74734 85.50186 142.69937 84.51463 C 142.12911 83.94267 141.75614 83.27533 141.90147 83.02044 C 142.4422 82.00369 145.04993 84.88052 146.58442 88.15871 C 148.2577 91.67193 148.6829 94.2527 147.94318 96.50704 C 147.33744 98.34411 144.99878 101.64841 143.70755 102.43211 C 143.16198 102.79658 141.30276 105.37393 139.58233 108.18631 L 136.4699 113.25786 L 137.91413 112.91213 C 138.674 112.69584 139.59055 112.38702 139.90676 112.24254 C 140.97432 111.76 140.56585 113.5017 139.09834 115.84772 C 136.08497 120.58602 134.85902 122.30331 134.0086 122.97461 C 132.53428 124.05665 132.97708 124.55594 134.98958 124.17048 C 136.27429 123.8767 136.80764 123.92098 136.83035 124.2457 C 136.85022 124.52984 135.77243 126.03282 134.49453 127.59059 C 133.17604 129.1512 130.87884 131.88154 129.37442 133.69988 L 126.67045 137.02972 L 128.31395 137.20032 C 130.57198 137.40953 130.5013 138.14867 128.06046 139.9917 C 125.50353 141.92443 122.94773 145.03997 120.81118 148.90118 C 119.68911 150.93751 118.90199 151.9307 118.37431 151.9676 C 117.31896 152.0414 117.32549 151.55148 118.31272 150.5035 C 118.77142 150.06354 119.8001 148.44162 120.6721 146.91224 C 121.5035 145.3857 123.25515 143.0198 124.5444 141.6244 C 125.79306 140.23184 126.84161 138.89405 126.82742 138.6911 C 126.81039 138.44756 126.64235 138.37773 126.44791 138.5137 C 125.82684 138.96501 123.54895 138.47167 123.50921 137.9034 C 123.4865 137.57868 124.32273 136.70442 125.37326 135.97834 C 127.00427 134.80377 134.13376 126.51451 134.08551 125.82447 C 134.07416 125.66211 133.18117 125.72455 132.05598 125.96639 C 130.3682 126.32915 130.0378 126.27067 129.99807 125.7024 C 129.97252 125.33709 130.1556 125.03876 130.39915 125.02173 C 131.12978 124.97064 135.29757 119.8253 137.05007 116.8883 C 138.50623 114.37992 138.53831 114.25531 137.6859 114.31492 C 137.15823 114.35182 136.07364 114.59082 135.27602 114.85054 C 134.4784 115.11026 133.71001 115.20478 133.57973 115.09152 C 133.45228 115.01886 134.00437 114.16447 134.83776 113.24962 C 135.63055 112.33761 136.78668 110.78836 137.32742 109.77161 C 137.86816 108.75486 138.71091 107.39068 139.15542 106.74776 C 140.23037 105.20418 140.1878 104.59533 139.07397 104.99952 Z" />
      </g>
      <g
         id="langued">
        <g
           id="Graphic_41">
          <path
             d="M 98.54181 113.34034 C 98.55885 113.58388 97.76236 115.0264 96.728 116.56714 C 95.73424 118.10504 94.90283 119.63158 94.9227 119.91572 C 94.97379 120.64635 92.31127 123.40224 90.47163 124.50982 C 89.33424 125.1604 88.17414 125.48626 86.54768 125.5592 C 84.02539 125.654 83.77049 125.50867 84.03362 124.02186 C 84.17981 123.19586 84.37141 123.0193 84.91895 123.26654 C 86.1009 123.83651 89.54231 121.71957 92.11514 118.84758 C 93.40156 117.41158 95.00702 115.8717 95.62808 115.42038 C 96.28974 114.96622 97.01271 114.22225 97.26846 113.79648 C 97.7828 112.98552 98.49924 112.73148 98.54181 113.34034 Z"
             fill="#ff0000"
             id="path4410" />
        </g>
        <g
           id="Graphic_40">
          <path
             d="M 82.82243 123.61709 C 82.75828 123.8663 82.26183 124.3497 81.71059 124.63298 C 81.16219 124.95685 80.07305 126.29748 79.34639 127.57196 C 78.57914 128.84928 77.7977 129.92366 77.63533 129.93501 C 77.14825 129.96907 77.46787 127.54016 78.16331 125.81918 C 78.515285 125.01958 79.343 124.02355 80.04808 123.60714 C 81.33648 122.78284 83.00921 122.78824 82.82243 123.61709 Z"
             fill="#ff0000"
             id="path4413" />
        </g>
      </g>
      <g
         style="fill:#ffff00"
         id="Graphic_39">
        <path
           style="fill:#ffff00"
           id="path4416"
           fill="#ff0000"
           d="M 77.98235 169.313 L 77.98235 169.313 C 68.59032 166.829 64.14892 166.89483 61.68367 169.55535 C 60.353825 170.9536 57.85253 172.51533 56.837765 172.5863 C 55.74182 172.66293 53.88259 175.24028 52.71255 178.3405 C 52.0577 180.05864 51.527464 181.80886 51.55585 182.21476 C 51.58707 182.66126 51.45877 183.1597 51.270006 183.37684 C 51.04349 183.63742 50.2839 185.60762 49.541343 187.82137 C 46.466363 196.9284 43.37493 203.4669 40.8021 206.33888 C 38.52845 208.82285 38.059525 210.28326 38.05923 214.36219 C 38.065183 216.19728 37.946527 218.0003 37.731367 218.42323 C 37.239735 219.55892 37.404082 220.15926 38.114845 219.82403 C 38.785016 219.49165 39.926377 220.06446 39.97463 220.7545 C 39.99166 220.99805 39.7132 221.0991 39.377123 220.95944 C 39.003293 220.8632 38.768264 221.00202 38.79381 221.36733 C 38.816517 221.69206 38.560766 222.11783 38.209643 222.34633 C 37.58574 222.75706 37.59993 222.96 38.46311 225.38779 C 39.12703 227.29924 39.362337 228.91434 39.40519 231.27712 C 39.411146 233.1122 39.55392 234.57063 39.71628 234.55928 C 39.83805 234.55076 40.67428 233.6765 41.53974 232.63705 L 43.11966 230.73185 L 42.35469 228.54194 C 41.941974 227.30634 41.191197 225.31939 40.65671 224.0923 C 39.78416 222.11386 39.76713 221.87032 40.343914 221.95235 C 41.20767 222.0551 42.132164 224.19307 43.60845 229.55558 L 44.854257 233.95526 L 45.50825 232.80822 C 46.88323 230.30552 47.773683 226.12356 47.71267 222.33444 L 47.619577 218.66993 L 44.949687 216.65402 C 42.494104 214.78627 40.83898 212.6994 41.27214 211.89412 C 41.487297 211.47118 42.64569 212.28754 42.688264 212.8964 C 42.70813 213.18053 43.45778 213.98468 44.36411 214.6963 C 48.39165 218.0449 50.857457 218.8922 52.387414 217.43917 L 53.30766 216.59983 L 51.96051 216.00062 C 51.24492 215.68355 50.37265 215.45902 50.047926 215.48173 C 49.68261 215.50728 48.532736 214.8127 47.44985 213.90948 C 45.54465 212.32956 45.495546 212.21062 45.325243 209.7752 C 45.22874 208.3951 45.271036 207.25006 45.39281 207.24154 C 45.55517 207.23019 46.42091 207.94464 47.338597 208.81862 L 49.04368 210.45332 L 48.63835 208.15668 C 48.183913 205.74112 48.331805 203.7729 48.981255 203.72749 C 49.18421 203.7133 49.435413 204.38914 49.57336 205.19528 C 49.73402 206.32614 49.962516 206.67726 50.4005 206.52427 C 50.719546 206.42038 51.44166 206.24752 52.00709 206.1672 C 52.81323 206.02924 52.964236 205.85552 52.785697 205.05223 C 52.37951 203.3267 52.01138 197.47881 52.272805 197.13422 C 52.423814 196.9605 52.835397 197.0133 53.1394 197.27757 C 53.61144 197.61166 54.1079 197.12827 55.616 194.7794 C 57.71111 191.49215 63.759984 184.66528 65.56187 183.60113 C 66.18577 183.1904 67.57522 182.64456 68.61639 182.36781 C 71.3019 181.69055 73.20029 182.00649 78.39247 183.9276 C 83.46288 185.85723 85.25653 186.42522 86.53471 186.62137 C 87.31728 186.7298 88.688 187.08263 89.64996 187.42325 C 92.40558 188.33187 99.34117 189.51924 103.27193 189.73384 C 105.31849 189.83547 109.34746 190.28794 112.23706 190.7793 C 118.50333 191.72794 118.91208 191.74015 118.43805 190.79435 C 118.25014 190.4404 117.8695 189.08018 117.53513 187.7983 C 117.2036 186.55703 116.84567 185.52155 116.6833 185.5329 C 116.56153 185.54141 115.36936 185.99188 114.05826 186.49145 C 112.74715 186.99103 111.50871 187.36315 111.33783 187.25273 C 111.16979 187.1829 111.32449 186.47867 111.68215 185.76025 C 112.07755 184.9984 112.56067 183.74094 112.74745 182.9121 C 113.19366 181.12696 113.62373 172.69434 113.32824 172.55184 C 113.20079 172.47918 111.98875 172.64551 110.70404 172.9393 C 106.52235 173.80275 100.78773 174.0406 97.23733 173.4323 C 90.46977 172.31476 84.63296 171.09134 77.98235 169.313 Z" />
      </g>
      <g
         style="fill:#ffff00"
         id="Graphic_38">
        <path
           style="fill:#ffff00"
           id="path4419"
           fill="#ff0000"
           d="M 237.22518 183.34452 L 239.49456 183.71609 L 241.66913 187.3982 C 242.87208 189.43511 244.33475 192.26965 244.88343 193.69969 C 245.4727 195.1269 246.14882 196.6296 246.4236 197.05906 C 250.53088 203.2981 251.69126 204.72616 255.2902 207.77841 C 257.6325 209.77644 260.22888 212.49091 261.8491 214.6618 C 264.01032 217.56986 267.49996 221.9758 270.13323 225.21794 C 270.44575 225.60398 270.42503 225.89095 270.03615 226.16288 C 269.45568 226.61136 269.84 227.44106 270.65182 227.3843 C 271.46363 227.32752 272.57206 228.59605 272.95554 229.99686 C 273.44858 231.7979 272.46986 232.96763 270.39974 233.1124 C 269.2632 233.19186 268.86865 233.3826 268.9027 233.8697 C 268.92826 234.235 268.05343 235.7238 267.01623 237.22395 C 264.78516 240.31678 262.4411 245.2938 262.96225 245.74683 C 263.17656 245.895 263.41443 245.7968 263.47858 245.54757 C 263.58048 245.25492 264.40337 243.6066 265.34803 241.94977 C 267.813 237.53534 270.2933 234.50666 271.77528 234.1175 C 273.0949 233.7397 274.45767 231.64575 274.34697 230.0627 C 274.26182 228.845 275.02368 229.2404 275.87068 230.85353 C 276.20307 231.5237 276.46932 231.8314 276.49004 231.54442 C 276.47017 231.26029 276.6646 231.12432 276.9195 231.26965 C 277.89283 231.77264 276.88685 233.71928 273.9016 237.10958 C 270.08578 241.45532 267.6546 244.60292 266.72412 246.4627 C 266.37214 247.2623 265.34914 248.9654 264.5413 250.24558 C 261.33633 255.16043 257.08224 263.7381 254.59682 270.1934 C 254.25052 271.0742 253.7305 271.80397 253.40578 271.82668 C 253.04047 271.85222 252.8253 272.27516 252.86504 272.84343 C 252.90194 273.3711 252.57182 275.06654 252.10857 276.60813 C 251.64532 278.14972 251.23884 280.50313 251.1673 281.81338 C 251.07618 284.5934 249.93623 286.9573 249.20447 285.8256 C 248.65494 284.96666 247.64585 285.1188 246.5831 286.25363 L 245.70913 287.17132 L 245.6041 285.66947 C 245.54734 284.85765 245.6765 283.7881 245.85107 283.368 C 246.06055 282.8639 246.0756 282.49574 245.7801 282.35324 C 245.27315 282.10317 244.2899 284.37454 244.37788 285.63285 C 244.4176 286.2011 243.95436 287.7427 243.35515 289.08986 C 242.5493 290.9817 242.33328 291.97576 242.54872 293.30673 C 242.78686 294.96243 242.75195 295.04645 241.76075 294.87103 C 241.18112 294.7484 240.08603 294.25393 239.3591 293.7745 C 238.0761 292.92608 237.75222 292.37768 237.28274 290.33026 C 236.93417 288.84544 236.15075 289.3081 235.28642 291.53037 C 234.80046 292.74724 234.28527 294.1293 234.19472 294.5843 C 234.0051 295.37257 233.92108 295.33765 232.9137 294.34758 C 231.7732 293.20366 231.5833 292.238 232.00965 290.16873 C 232.34545 288.55448 231.68834 287.907 231.21941 289.36742 C 230.78256 290.70322 229.03177 292.498 227.21853 293.3998 C 226.39167 293.8247 225.64032 294.16277 225.59973 294.1656 C 225.55914 294.16845 226.214 292.4503 227.1246 290.3064 L 228.73062 286.4415 L 231.18764 285.4131 C 234.11754 284.1477 234.77636 283.65296 237.5408 280.6044 C 241.33304 276.50506 247.2329 264.63077 250.3871 254.90635 C 250.78902 253.65457 251.26363 252.27535 251.44103 251.89584 C 251.75526 251.13966 252.74307 247.76667 253.73457 243.86317 C 254.1223 242.40843 254.38148 239.69823 254.34714 237.45723 L 254.31536 233.50291 L 252.34857 230.4589 C 249.1845 225.45915 246.84304 222.89 242.80045 219.90957 C 237.21145 215.8136 232.68037 209.9305 231.45244 205.20325 C 231.1615 203.95913 230.00653 200.85835 228.92904 198.2824 C 227.85155 195.70645 223.0781 187.12725 223.5717 186.60327 C 225.43292 184.6376 229.07044 185.13843 231.5794 184.26957 C 234.20444 183.31102 234.96147 183.05413 234.95864 183.01354 C 234.95864 183.01354 235.9876 183.14554 237.22518 183.34452 Z" />
      </g>
      <g
         style="fill:#ffff00"
         id="Graphic_36">
        <path
           style="fill:#ffff00"
           id="path4425"
           fill="#ff0000"
           d="M 181.4321 193.93536 C 180.89902 195.645 179.24274 198.20815 178.30263 198.76336 C 177.60038 199.22036 172.29436 199.75455 172.26882 199.38923 C 172.24327 199.02392 174.91431 196.3898 176.00828 195.70146 C 176.55668 195.3776 177.98473 194.21721 179.13433 193.1579 C 180.97482 191.4792 181.33162 191.33189 181.57715 191.92655 C 181.76505 192.28052 181.70857 193.22261 181.4321 193.93536 Z" />
      </g>
      <g
         id="unguled">
        <g
           id="Graphic_35">
          <path
             d="M 52.774046 208.9688 C 53.215144 210.6103 52.85096 211.81865 52.275883 210.5944 C 51.75275 209.52968 51.585287 207.13483 52.048814 207.34715 C 52.26028 207.45473 52.598345 208.20609 52.774046 208.9688 Z"
             fill="#ff0000"
             id="path4428" />
        </g>
        <g
           id="Graphic_34">
          <path
             d="M 48.15835 211.20864 C 49.1223 212.16096 49.81262 213.86662 49.28494 213.90352 C 49.08199 213.9177 48.43339 213.39202 47.81687 212.74172 C 46.013577 210.86915 46.32298 209.46069 48.15835 211.20864 Z"
             fill="#ff0000"
             id="path4431" />
        </g>
        <g
           id="Graphic_33">
          <path
             d="M 144.07654 280.3691 C 144.09073 280.57204 143.72258 280.557 143.25905 280.34467 C 142.79553 280.13235 142.39615 279.6708 142.3706 279.3055 C 142.33087 278.73722 142.41205 278.73155 143.1881 279.3299 C 143.66297 279.7046 144.06235 280.16613 144.07654 280.3691 Z"
             fill="#ff0000"
             id="path4434" />
        </g>
        <g
           id="Graphic_32">
          <path
             d="M 248.33644 288.57837 C 247.99298 289.49975 247.94955 289.462 247.8559 288.1225 C 247.7415 287.07 247.84908 286.85852 248.23994 287.1983 C 248.58737 287.5003 248.61292 287.86563 248.33644 288.57837 Z"
             fill="#ff0000"
             id="path4437" />
        </g>
        <g
           id="Graphic_31">
          <path
             d="M 125.24586 296.9002 C 125.25437 297.02195 124.93163 297.65636 124.52771 298.29644 C 124.12379 298.93652 123.49818 300.48946 123.17743 301.73557 C 122.58871 303.8162 122.36788 304.15794 120.17995 305.5346 C 117.09818 307.54483 116.77147 306.95584 118.73999 303.0248 C 119.52512 301.4199 120.15357 299.90756 120.1337 299.62343 C 120.11384 299.3393 120.38094 299.07588 120.70567 299.05317 C 121.03039 299.03047 121.30317 298.84823 121.28898 298.64528 C 121.27479 298.44233 121.9336 297.94758 122.7633 297.56325 C 124.29808 296.7625 125.22031 296.53487 125.24586 296.9002 Z"
             fill="#ff0000"
             id="path4440" />
        </g>
        <g
           id="Graphic_30">
          <path
             d="M 129.597 299.04327 C 131.20103 300.3995 132.08947 301.4387 132.13489 302.08814 C 132.31938 304.72653 130.463 307.34447 127.82375 308.10007 C 126.18508 308.58176 123.39596 310.6939 123.17427 311.60674 C 123.08088 312.02117 122.77886 312.3686 122.45414 312.3913 C 122.04823 312.4197 122.15099 311.55593 122.82741 308.9797 C 123.34914 307.1077 124.08404 304.2011 124.45759 302.5434 C 125.21888 299.431 126.19363 297.03785 126.8025 296.99528 C 126.96486 296.98392 128.25353 297.91354 129.597 299.04327 Z"
             fill="#ff0000"
             id="path4443" />
        </g>
        <g
           id="Graphic_29">
          <path
             d="M 230.61963 293.0396 C 230.63666 293.28314 230.31676 293.95813 229.91 294.55762 C 229.09648 295.7566 228.19836 299.2457 228.30338 300.74754 C 228.3573 301.51876 227.85802 301.96157 225.77768 303.12677 C 224.32408 303.92183 223.09983 304.4969 223.0158 304.462 C 222.96954 304.38365 223.3885 303.3754 224.0019 302.2312 C 224.65307 301.0436 225.56367 298.89967 226.07034 297.39583 C 226.81574 295.22267 227.29517 294.49573 228.50522 293.7177 C 230.258 292.53462 230.57705 292.43073 230.61963 293.0396 Z"
             fill="#ff0000"
             id="path4446" />
        </g>
        <g
           id="Graphic_28">
          <path
             d="M 237.29266 293.38875 C 238.34262 294.98768 238.6066 298.7626 237.7573 300.6167 C 237.0505 302.17534 235.77063 303.1214 231.93836 304.89858 L 229.40868 306.0544 L 229.4771 302.94965 C 229.5492 299.3144 230.1981 295.76115 230.9239 295.05777 C 231.30427 294.66407 231.77063 294.91698 232.99516 296.0958 C 234.79278 297.8872 236.11155 298.0805 235.59494 296.52586 C 235.23417 295.44978 235.70282 292.23546 236.1899 292.2014 C 236.35227 292.19005 236.8385 292.7271 237.29266 293.38875 Z"
             fill="#ff0000"
             id="path4449" />
        </g>
        <g
           id="Graphic_27">
          <path
             d="M 303.26828 293.66998 C 303.41587 295.7807 302.43034 295.68645 302.1204 293.5871 C 301.95973 292.45623 302.05596 292.0824 302.50245 292.05117 C 302.98954 292.0171 303.18313 292.45226 303.26828 293.66998 Z"
             fill="#ff0000"
             id="path4452" />
        </g>
        <g
           id="Graphic_26">
          <path
             d="M 282.2832 302.72416 C 282.2974 302.9271 281.8878 303.486 281.39417 304.01 C 280.8279 304.66144 280.4231 305.87263 280.2091 307.47837 C 279.86874 310.19425 278.92777 311.32056 275.76567 312.76535 C 273.9496 313.62654 273.56725 313.40855 274.7461 312.18402 C 275.1642 311.7469 276.13242 309.84368 276.9326 307.87064 C 277.7762 305.93535 278.64252 304.3248 278.92666 304.3049 C 279.2108 304.28505 279.8347 303.87432 280.33115 303.39092 C 281.24856 302.511 282.2463 302.1965 282.2832 302.72416 Z"
             fill="#ff0000"
             id="path4455" />
        </g>
        <g
           id="Graphic_25">
          <path
             d="M 284.315 304.94785 C 285.378 305.56694 286.41548 305.8207 287.5926 305.7384 C 289.41918 305.61066 289.85347 305.9882 289.9812 307.81476 C 290.08338 309.27602 288.5327 311.01602 285.48868 312.9828 C 283.9681 313.9865 282.7288 314.92973 282.743 315.1327 C 282.75434 315.29505 282.44097 315.4801 282.03507 315.5085 C 281.38562 315.5539 281.36007 315.1886 281.28203 311.15594 C 281.2457 308.30324 281.43135 306.2916 281.81824 305.40797 C 282.13246 304.6518 282.45804 304.05798 282.5798 304.04946 C 282.661 304.0438 283.46344 304.43635 284.315 304.94785 Z"
             fill="#ff0000"
             id="path4458" />
        </g>
      </g>
      <g
         id="Graphic_24">
        <path
           id="path4461"
           fill="#cccccc"
           d="M 112.31076 310.24536 C 112.32495 310.4483 112.54209 310.63708 112.78564 310.62005 C 112.98859 310.60586 113.05558 310.39723 112.91961 310.2028 C 112.78081 309.96776 112.5665 309.8196 112.44473 309.8281 C 112.36355 309.83378 112.29373 310.00182 112.31076 310.24536 Z" />
      </g>
      <g
         id="Graphic_23">
        <path
           id="path4464"
           fill="#cccccc"
           d="M 112.8934 79.41998 C 112.92178 79.82589 112.66035 80.17048 112.29504 80.19603 C 111.76736 80.23293 111.76083 80.72285 112.17098 83.67178 C 112.65295 87.06436 112.65579 87.10495 111.6345 87.66583 C 110.88882 88.08508 110.5235 88.11062 110.13264 87.77085 C 109.82864 87.50659 109.24618 87.34337 108.79968 87.37459 L 107.98787 87.43136 L 108.85645 88.1864 C 109.59474 88.82819 110.41791 88.93379 114.1636 88.83502 C 119.74154 88.68971 121.6124 88.02863 123.87186 85.34171 C 124.77791 84.29941 125.66693 83.01357 125.91417 82.46602 C 126.29255 81.46063 126.88437 81.17451 129.84266 80.31502 C 130.7243 80.09021 131.50773 79.62754 131.5662 79.29714 C 131.69735 78.83929 131.49156 78.81289 130.77796 79.10752 C 130.26163 79.30678 128.36806 79.64314 126.58492 79.80862 C 120.14804 80.50346 118.3876 80.99367 116.50368 82.6346 C 114.5065 84.40582 113.87777 84.16426 114.02652 81.62494 C 114.04526 80.72627 113.82045 79.84463 113.4645 79.42084 C 112.88857 78.7677 112.88857 78.7677 112.8934 79.41998 Z" />
      </g>
      <g
         style="fill:#ffff00"
         id="Graphic_22">
        <path
           style="fill:#ffff00"
           id="path4467"
           fill="#ff0000"
           d="M 113.12984 82.2179 C 112.8298 83.17703 112.78637 83.13927 112.69271 81.79978 C 112.58683 80.86904 112.6859 80.5358 112.9899 80.80006 C 113.2939 81.06433 113.32797 81.55142 113.12984 82.2179 Z" />
      </g>
      <g
         style="fill:#ffffff"
         id="Graphic_21">
        <path
           style="fill:#ffffff"
           id="path4470"
           fill="#ff0000"
           d="M 123.221 82.4504 C 123.44013 83.25086 122.75888 85.1748 122.2312 85.2117 C 122.02825 85.22589 121.97063 84.98518 122.07253 84.69253 C 122.1716 84.35929 122.00157 83.67777 121.75888 83.12369 C 121.51619 82.56962 121.39244 81.96643 121.54628 81.83331 C 121.99931 81.31216 123.0453 81.6877 123.221 82.4504 Z" />
      </g>
      <g
         style="fill:#666666"
         id="Graphic_20">
        <path
           style="fill:#666666"
           id="path4473"
           fill="#ff0000"
           d="M 117.29618 85.80152 C 117.35096 86.00164 117.26041 86.45665 117.08017 86.79556 C 116.64985 87.64144 115.65382 86.81373 115.95385 85.8546 C 116.14914 85.14753 117.00438 85.12851 117.29618 85.80152 Z" />
      </g>
      <g
         id="Graphic_19">
        <path
           id="path4476"
           fill="#cccccc"
           d="M 104.47576 96.12029 C 103.0355 97.68941 100.78257 99.8864 99.51404 100.99484 C 98.24267 102.06268 97.12799 103.03798 97.05249 103.12484 C 96.97698 103.2117 97.34797 103.26733 97.87565 103.23044 C 99.01219 103.15096 107.84365 94.7019 107.77837 93.76832 C 107.71025 92.79414 107.24303 93.11234 104.47576 96.12029 Z" />
      </g>
      <g
         id="Graphic_18">
        <path
           id="path4479"
           fill="#cccccc"
           d="M 110.66227 100.01133 C 109.75707 100.48252 109.8005 100.52027 111.72245 100.58982 C 113.64723 100.69996 113.81527 100.76979 114.70003 102.33948 C 115.683 104.14705 116.27681 104.47262 116.18598 103.17373 C 116.09232 101.83424 114.91775 100.20323 113.70372 99.75786 C 112.40568 99.27758 111.95918 99.3088 110.66227 100.01133 Z" />
      </g>
      <g
         id="Graphic_17">
        <path
           id="path4482"
           fill="#cccccc"
           d="M 96.94489 109.16915 C 95.75555 109.66021 95.50462 110.73827 96.51939 110.66731 C 96.84411 110.6446 97.47937 110.39624 97.86541 110.08372 C 98.52423 109.58897 98.86314 109.76922 100.39167 111.21232 C 101.70306 112.46665 102.12883 112.7224 102.13253 112.19189 C 102.05873 111.13653 99.98634 108.91568 98.9168 108.78653 C 98.42403 108.7394 97.53955 108.92362 96.94489 109.16915 Z" />
      </g>
      <g
         id="Graphic_16">
        <path
           id="path4485"
           fill="#cccccc"
           d="M 161.23695 118.62328 C 161.0831 118.7564 161.50235 119.50208 162.08396 120.2364 C 163.51626 122.05333 163.83501 126.02837 162.90113 130.17258 C 162.43135 132.2041 162.3249 133.59837 162.61585 134.84249 C 163.17417 137.5771 162.1631 137.11755 159.92154 133.64406 C 158.68368 131.69117 157.83497 131.22026 157.54061 132.26057 C 157.40663 132.67783 157.83155 133.50469 158.5406 134.31168 C 159.9153 135.8879 160.18551 137.41899 160.08557 144.15618 C 160.0813 147.01171 160.26098 148.99781 160.61891 150.0333 C 160.92206 150.86867 161.09776 151.63138 161.02226 151.71824 C 160.94675 151.8051 159.91212 151.59192 158.74152 151.1843 C 156.36541 150.4531 153.22858 150.5093 150.76022 151.37531 C 148.3702 152.19506 145.35258 153.95606 144.05197 155.1891 C 142.29266 156.86211 140.74027 159.74432 141.26142 160.19735 C 141.56542 160.46162 142.14022 159.93195 143.0179 158.48375 C 144.66565 155.79882 146.27963 154.3807 149.05001 153.16725 C 153.59872 151.13604 156.86868 151.2337 162.24593 153.46818 C 163.63367 154.06455 163.83662 154.05036 163.99984 153.4679 C 164.13666 153.09123 163.8477 152.45881 163.32371 151.9652 C 161.79802 150.56269 161.04895 147.43352 161.34474 143.49708 C 161.50114 141.65064 161.55934 139.56632 161.50825 138.8357 C 161.4089 137.41502 161.64394 137.27622 162.84008 138.04915 C 163.30928 138.34265 164.0192 138.57853 164.46569 138.54731 C 165.07455 138.50473 165.18213 138.29327 164.8875 137.57967 C 163.5446 134.12492 163.48784 133.3131 164.21422 130.28471 C 165.28208 125.72324 164.61675 120.87507 162.69169 119.01102 C 161.94772 118.28805 161.57389 118.19183 161.23695 118.62328 Z" />
      </g>
      <g
         id="Graphic_15">
        <path
           id="path4488"
           fill="#cccccc"
           d="M 293.96128 154.74054 C 293.97547 154.9435 294.20113 155.25402 294.4126 155.3616 C 294.66465 155.46635 294.82418 155.4144 294.80715 155.17086 C 294.79296 154.9679 294.6079 154.65453 294.35583 154.5498 C 294.14436 154.44221 293.94425 154.497 293.96128 154.74054 Z" />
      </g>
      <g
         id="Graphic_14">
        <path
           id="path4491"
           fill="#cccccc"
           d="M 188.75723 163.36158 C 188.965 163.99968 188.91987 165.10414 188.72742 165.8518 C 188.33968 167.30653 188.63431 168.02013 189.17505 167.00338 C 189.46571 166.4936 189.5469 166.48791 189.57812 166.93441 C 189.59799 167.21854 189.1177 168.5166 188.50998 169.74197 C 187.65785 171.55549 187.5673 172.0105 188.0544 171.97644 C 188.66325 171.93386 188.67177 172.05563 188.2 173.47545 C 187.8943 174.3534 187.13272 175.7119 186.49093 176.4502 C 184.98652 178.26854 185.51334 178.80275 187.06686 177.10334 C 188.50996 175.57481 189.94143 172.13 189.82222 170.4252 C 189.81456 169.73232 189.98998 168.74112 190.27497 168.15014 C 190.94968 166.71613 190.77654 164.2401 189.87958 163.07916 C 188.89008 161.76152 188.37092 161.9202 188.75723 163.36158 Z" />
      </g>
      <g
         id="Graphic_13">
        <path
           id="path4494"
           fill="#cccccc"
           d="M 219.54133 175.44434 C 219.55552 175.6473 220.05964 175.85678 220.7176 175.93313 C 221.66538 176.0708 224.3276 177.39384 226.55185 178.86987 C 227.49026 179.45687 227.67704 178.62803 226.79994 177.75122 C 225.87942 176.83665 226.2561 176.97346 229.07983 178.85625 C 230.8783 180.07653 231.90158 180.12734 230.80166 178.98058 C 229.96516 178.10093 224.54902 174.72707 224.02134 174.76397 C 223.25012 174.8179 223.57967 175.44748 224.67476 175.94195 C 226.56946 176.7884 225.58393 176.69415 223.44285 175.82414 C 221.30177 174.95414 219.49592 174.7949 219.54133 175.44434 Z" />
      </g>
      <g
         id="Graphic_12">
        <path
           id="path4497"
           fill="#cccccc"
           d="M 187.0362 180.16467 C 186.78243 181.20214 182.8335 185.39403 182.06227 185.44796 C 181.4534 185.49053 181.3251 185.98897 181.80283 186.40425 C 182.58455 187.08379 188.13895 181.35202 188.04244 179.97193 C 187.98 179.07894 187.29564 179.20837 187.0362 180.16467 Z" />
      </g>
      <g
         id="Graphic_11">
        <path
           id="path4500"
           fill="#cccccc"
           d="M 139.66935 234.2593 C 139.44851 234.60104 138.67076 235.1449 137.96 235.48012 C 137.24924 235.81535 136.0826 236.63113 135.3568 237.3345 C 134.62815 237.9973 133.3426 238.86218 132.55633 239.28427 C 131.09705 239.99815 131.05646 240.00098 131.43624 241.9323 C 131.63181 242.97914 131.86797 244.02315 131.96902 244.3016 C 132.41665 245.4532 131.48618 247.31297 130.25058 247.72568 C 128.77711 248.2366 128.78563 248.35838 130.28633 252.9034 C 130.85772 254.65816 131.75978 258.2253 132.22841 260.84383 C 132.73763 263.45952 133.30248 265.7042 133.43277 265.81746 C 134.21449 266.497 134.35302 264.97812 133.86168 262.03487 C 132.99056 257.1603 133.57419 246.84065 134.96876 242.86817 C 136.18592 239.2752 137.2901 237.56642 139.33355 235.87354 C 140.18397 235.20224 140.86067 234.37993 140.8408 234.0958 C 140.79538 233.44634 140.18936 233.5295 139.66935 234.2593 Z" />
      </g>
      <g
         style="fill:#ffff00"
         id="Graphic_10">
        <path
           style="fill:#ffff00"
           id="path4503"
           fill="#ff0000"
           d="M 134.06328 241.58545 C 133.68774 242.63143 133.26026 243.5179 133.13849 243.5264 C 133.01672 243.53493 132.88728 242.85056 132.82768 241.99816 C 132.73969 240.73985 132.91426 240.31975 133.62218 239.94394 C 134.09224 239.66633 134.53022 239.51334 134.61424 239.54825 C 134.65767 239.586 134.43598 240.49887 134.06328 241.58545 Z" />
      </g>
      <g
         style="fill:#ffff00"
         id="Graphic_9">
        <path
           style="fill:#ffff00"
           id="path4506"
           fill="#ff0000"
           d="M 132.40046 250.47138 C 132.25284 254.1935 131.6034 254.23892 130.77683 250.5849 C 130.42259 249.0189 130.48674 248.7697 131.31076 248.30417 C 131.82425 248.06432 132.29998 247.8679 132.384 247.9028 C 132.47086 247.97832 132.46915 249.12053 132.40046 250.47138 Z" />
      </g>
      <g
         id="Graphic_8">
        <path
           id="path4509"
           fill="#cccccc"
           d="M 302.52138 232.8241 C 302.41664 233.07616 302.883 233.32907 303.5844 233.44318 C 305.76976 233.77984 307.01813 236.4662 305.83844 238.26183 C 305.61476 238.563 304.86625 238.94165 304.10638 239.15794 C 302.78392 239.49515 302.33373 240.0569 303.2466 240.27858 C 303.57983 240.37765 303.5205 241.27915 303.07713 243.10488 C 302.16397 246.96212 301.94652 250.85228 302.32232 257.39305 C 302.57124 261.53613 302.81876 262.7425 303.30954 262.17792 C 303.3822 262.05047 303.4421 258.82394 303.3811 255.03482 C 303.26077 246.31437 303.81996 242.64504 305.46403 240.49062 C 307.8603 237.42704 308.02523 235.70236 306.14643 233.91665 C 304.8379 232.7029 302.88187 232.14627 302.52138 232.8241 Z" />
      </g>
      <g
         id="Graphic_7">
        <path
           id="path4512"
           fill="#cccccc"
           d="M 65.97972 175.57725 C 64.70268 176.56391 63.01689 177.53836 62.09182 177.72542 C 59.32229 178.36776 57.86301 179.08164 57.47612 179.96527 C 57.26664 180.46938 56.68644 182.67178 56.228015 184.86565 C 55.24985 189.54322 54.303486 192.34227 53.42383 193.17877 C 52.735775 193.83872 52.60662 194.90827 53.21548 194.8657 C 53.94611 194.8146 55.42867 192.10043 56.55244 188.92188 C 58.03756 184.49438 58.711425 183.63148 61.726206 181.8299 C 66.27009 179.14639 67.412304 179.1481 78.67349 182.11323 C 84.95027 183.79535 85.69225 183.90662 85.39762 183.19302 C 85.25314 182.8768 84.23922 182.37666 83.11206 182.0068 C 78.40327 180.58214 77.641415 180.18674 74.73735 177.73852 C 72.22415 175.63007 69.19746 173.76147 68.38564 173.81824 C 68.30446 173.82392 67.21902 174.63402 65.97972 175.57725 Z" />
      </g>
      <g
         style="fill:#ffff00"
         id="Graphic_6">
        <path
           style="fill:#ffff00"
           id="path4515"
           fill="#ff0000"
           d="M 70.71009 176.14383 C 72.9173 177.37632 75.27382 179.5773 74.719745 179.82 C 74.48188 179.9182 73.612445 179.73426 72.69391 179.4314 C 71.81596 179.12568 69.63627 178.87021 67.84177 178.87333 C 64.62092 178.8946 64.53974 178.90028 61.176674 180.97096 C 59.258694 182.1248 57.72675 182.96613 57.721074 182.88495 C 57.650115 181.87019 58.850525 179.78758 59.607554 179.5307 C 60.129555 179.41262 61.40575 178.99707 62.4875 178.71748 C 64.726516 178.07144 65.62888 177.55966 67.158836 176.10664 C 67.77139 175.53354 68.38961 175.04163 68.511386 175.03312 C 68.67375 175.02177 69.64707 175.52475 70.71009 176.14383 Z" />
      </g>
      <g
         id="Graphic_5">
        <path
           id="path4518"
           fill="#cccccc"
           d="M 42.529296 216.45616 C 42.549164 216.7403 42.293414 217.16607 41.94513 217.43516 C 41.40808 217.9214 41.41376 218.00258 42.01609 218.44993 C 42.57499 218.85953 42.73451 218.80758 42.93548 218.1817 C 43.02603 217.72668 43.319533 217.25748 43.51397 217.1215 C 43.93776 216.76557 43.47225 215.94155 42.86339 215.98412 C 42.660436 215.99831 42.512266 216.21262 42.529296 216.45616 Z" />
      </g>
      <g
         id="Graphic_4">
        <path
           id="path4521"
           fill="#cccccc"
           d="M 40.0649 218.54558 C 39.814827 219.05253 40.305884 220.24187 40.75238 220.21065 C 41.40183 220.16523 41.47535 219.46668 40.89658 218.77295 C 40.540634 218.34916 40.247985 218.24725 40.0649 218.54558 Z" />
      </g>
    </g>
  </g>
</g>
<g
   id="unguled-9">
  <path
     style="fill:#ff0000;stroke:none;stroke-width:1px;stroke-linecap:butt;stroke-linejoin:miter;stroke-opacity:1"
     d="m 39.71628,234.55928 c 0,0 -1.786665,-7.44849 -1.506637,-12.21295 0.145616,-2.47754 2.87631,-4.71088 5.304327,-5.22483 1.430926,-0.30289 3.660037,0.15532 4.105607,1.54843 1.148446,3.59071 0.629263,9.58222 -2.111327,14.13829 -2.065547,3.43385 -4.872028,-14.85241 -5.164336,-10.85587 -0.221668,3.03072 3.397813,5.82702 1.985786,9.7321 -0.440373,1.21789 -2.435265,2.16221 -2.435265,2.16221"
     id="path1960" />
</g>
</svg>
