<?xml version="1.0" encoding="UTF-8" standalone="no"?>
<!DOCTYPE svg PUBLIC "-//W3C//DTD SVG 1.1//EN" "http://www.w3.org/Graphics/SVG/1.1/DTD/svg11.dtd">
<svg xmlns:dc="http://purl.org/dc/elements/1.1/" xmlns:xl="http://www.w3.org/1999/xlink" version="1.1" xmlns="http://www.w3.org/2000/svg" viewBox="36 61.426845 346.5 239.0675" width="346.5" height="239.0675">
  <defs>
    <clipPath id="artboard_clip_path">
      <path d="M 36 61.426845 L 382.5 61.426845 L 382.5 300.49433 L 36 300.49433 Z"/>
    </clipPath>
  </defs>
  <metadata> Produced by OmniGraffle 7.7.1 
    <dc:date>2018-03-13 07:12:51 +0000</dc:date><dc:title>Traceable heraldic art http://heraldicart.org/credits.html</dc:title>
  </metadata>
  <g id="Rabbit_Courant" fill-opacity="1" stroke-dasharray="none" stroke="none" stroke-opacity="1" fill="#ffff00">
    <title>Rabbit Courant</title>
    <g id="Rabbit_Courant: Layer 2" >
      <title>Layer 2</title>
      <g id="Group_3">
        <g id="Graphic_11">
          <path d="M 169.86892 67.37493 C 155.59834 71.74817 125.21583 94.30488 108.18322 113.17887 C 100.12725 121.92535 93.4523 129.75114 93.4523 130.67183 C 93.4523 131.5925 88.38855 135.27524 82.40412 138.49762 C 69.74474 145.40274 42.814786 175.55508 42.814786 182.92053 C 42.814786 188.90497 60.30775 197.1911 77.340365 199.26264 C 92.30145 201.104 95.75401 202.94537 95.75401 208.69963 C 95.75401 211.2315 97.3652 217.44611 99.43674 222.50987 C 103.11946 231.71669 103.11946 232.17703 97.82554 237.70112 C 94.83333 240.9235 82.63429 248.7493 70.89559 255.42425 C 58.92672 261.86903 46.727685 270.38533 43.73547 273.8379 C 37.981205 280.743 36.13984 292.02136 41.203593 291.33085 C 47.87854 290.41017 52.02161 291.7912 52.02161 294.7834 C 52.02161 301.68853 75.499 295.7041 80.33258 287.8783 C 81.25326 286.2671 88.61872 281.20335 96.44452 276.8301 C 109.1039 269.925 113.24697 268.77414 134.65283 267.39312 C 163.19397 265.55175 164.11465 265.32158 168.4879 256.80527 C 171.48011 250.59067 177.69471 246.90794 198.8704 238.6218 C 206.23586 235.85976 206.92637 236.08993 214.98234 243.45538 C 225.57018 253.12255 232.24513 257.03544 238.6899 257.03544 C 241.22178 257.03544 246.28553 259.10698 249.7381 261.40868 C 254.57167 264.86124 260.78627 266.0121 280.35077 266.7026 L 304.74885 267.39312 L 324.08317 280.51284 C 334.44084 287.64812 345.48903 294.55324 348.25107 295.93426 C 353.545 298.6963 365.05352 297.0851 365.05352 293.86273 C 365.05352 292.94205 368.04574 291.56102 371.72847 290.8705 C 385.5387 288.10847 382.08614 277.29045 364.82335 269.69482 C 358.60875 266.7026 352.39414 260.94834 345.48903 251.051 C 333.9805 234.93907 328.4564 231.94686 320.8608 237.24078 C 318.09874 239.3123 314.416 240.9235 313.035 240.9235 C 307.5109 240.9235 300.83595 232.63737 299.22475 224.12106 C 297.84373 216.0651 298.0739 215.60475 303.82816 215.60475 C 310.73328 215.60475 315.3367 208.46946 313.49533 200.64367 C 312.8048 197.65145 313.26515 192.35753 314.416 188.90497 C 316.25737 184.53173 316.25737 181.99985 314.416 180.15849 C 313.26515 179.00764 312.1143 176.01542 312.1143 173.71371 C 312.1143 165.65775 304.2885 160.82416 292.31964 161.51468 C 278.96975 162.20519 279.89043 161.97502 274.5965 165.88792 C 271.37412 168.4198 271.14395 170.26116 272.75514 174.86457 C 275.28702 181.53951 276.43787 181.53951 258.02423 173.0232 C 240.9916 165.1974 219.35558 162.8957 186.67137 165.1974 C 154.90783 167.4991 147.77255 166.34826 145.70101 157.83195 C 144.78033 154.37939 145.70101 153.4587 149.84408 153.4587 C 159.28107 153.4587 165.72585 149.77598 180.9171 135.04507 C 189.20324 127.21927 199.10057 119.39347 202.7833 117.5521 C 237.76922 100.51949 246.97604 86.93943 221.42711 89.70147 C 208.3074 91.31267 185.52051 94.99539 175.62318 97.2971 C 170.09909 98.67812 169.63875 98.21778 171.01977 94.53505 C 171.94045 92.00318 176.54386 85.09806 181.37744 78.88346 C 188.28256 70.36715 189.66358 67.14476 187.36188 65.76374 C 183.67915 63.23186 182.06795 63.46203 169.86892 67.37493 Z" fill="#cccccc"/>
        </g>
        <g id="Graphic_10">
          <path d="M 174.24216 79.80414 C 170.09909 84.86789 165.95602 92.00318 164.575 95.45573 C 162.9638 100.28932 158.82073 103.28153 147.54238 108.34528 C 139.4864 111.79784 126.82703 118.24262 119.69174 122.61586 C 112.55646 126.9891 105.191 130.44165 103.34963 130.44165 C 98.28588 130.44165 110.48492 114.79006 125.21583 102.82119 C 132.12095 97.06693 139.02607 91.31267 140.40709 90.16181 C 150.5346 81.18516 177.92489 67.37493 180.68693 69.676636 C 181.14727 70.13698 178.38523 74.74039 174.24216 79.80414 Z" fill="#ff0000"/>
        </g>
        <g id="Graphic_9">
          <path d="M 229.2529 94.53505 C 229.2529 95.91608 197.94972 116.63142 195.87819 116.63142 C 194.9575 116.63142 187.1317 123.30637 178.38523 131.36234 C 168.02755 141.25967 160.20175 146.78376 155.138 147.70444 C 144.31999 149.77598 118.08055 148.16479 117.15987 145.40274 C 116.9297 144.02172 120.38225 140.79933 125.21583 137.80711 C 129.81925 135.04507 137.87521 129.52097 142.93897 125.83824 C 148.00272 122.15552 155.59834 117.32193 159.74141 115.2504 C 164.11465 113.40904 166.8767 111.10733 166.41636 110.41682 C 164.575 108.57545 141.32777 121.23483 126.36669 132.51319 C 117.62021 138.95796 113.0168 144.02172 114.16765 145.17257 C 115.54867 146.5536 115.3185 148.62513 113.93748 150.46649 C 110.94526 153.91905 110.94526 153.68888 126.36669 153.91905 C 136.95453 153.91905 137.87521 154.37939 140.86743 161.51468 C 144.55016 170.49133 152.8363 172.79303 171.94045 170.49133 C 178.84557 169.57064 195.18767 168.64996 208.53757 168.64996 C 235.6977 168.4198 247.43638 171.412 268.84224 184.30156 C 275.97753 188.6748 282.4223 191.66701 283.1128 190.9765 C 283.80333 190.286 282.88265 186.83343 281.04128 183.1507 C 274.82668 171.18184 278.27923 166.11809 292.5498 166.11809 C 303.36782 166.11809 307.74106 169.34047 305.8997 176.24559 C 304.979 179.69815 305.66953 181.07917 308.66174 181.07917 C 311.88413 181.07917 312.34447 182.23002 310.96345 187.29377 C 310.04277 190.9765 309.1221 197.1911 308.8919 201.56435 C 308.43157 211.69185 302.6773 215.83492 296.4627 210.31083 C 294.161 208.2393 290.47827 206.39793 288.17657 206.39793 C 284.724 206.39793 284.95418 207.08844 289.09725 212.8427 C 291.8593 216.52543 294.62134 223.66072 295.31185 228.95464 C 296.4627 237.24078 297.61356 238.85197 305.66953 242.07436 C 313.49533 245.06658 315.79703 245.29675 320.8608 242.5347 C 329.60726 238.39163 333.52016 239.77265 338.5839 249.43982 C 344.33818 260.25783 360.21994 275.4491 365.51386 275.4491 C 367.5854 275.4491 370.5776 277.52062 371.95864 280.0525 C 377.7129 290.8705 358.37858 287.41795 341.34596 274.5284 C 320.6306 258.8768 319.47976 258.64664 303.13765 260.25783 C 261.24662 264.86124 262.39747 264.86124 252.96048 257.95613 C 234.31666 244.37607 227.18138 235.62959 220.7366 217.90645 C 216.1332 205.70742 214.06166 202.25486 213.60132 205.93759 C 213.14098 208.9298 213.8315 214.22373 215.2125 218.13663 C 217.51422 224.81157 217.28405 225.04174 202.0928 232.63737 C 183.44898 241.8442 174.47233 244.1459 170.55943 240.9235 C 168.4879 239.08214 167.33704 240.69334 166.18619 247.82862 C 164.11465 260.71817 159.0509 263.25005 130.27959 264.63107 C 103.5798 265.78192 92.53162 269.69482 79.18173 282.58437 C 75.26883 286.2671 71.35593 289.4895 70.66542 289.4895 C 58.00604 292.02136 56.85519 291.33085 58.23621 283.9654 C 58.92672 279.82233 60.077576 275.90943 60.99826 274.98875 C 64.450816 270.84568 84.24548 262.0992 95.75401 259.33715 C 108.87373 256.34493 124.29515 249.43982 126.59686 245.7571 C 128.43822 242.76487 123.37447 229.1848 120.8426 230.796 C 119.69174 231.48652 119.2314 233.0977 119.92191 234.24856 C 121.5331 236.78044 116.46935 237.0106 112.55646 234.47873 C 108.64356 231.94686 101.04793 213.99356 99.20657 202.25486 C 98.28588 196.27043 96.44452 192.5877 94.37298 192.5877 C 92.53162 192.5877 91.1506 193.50838 91.1506 194.42906 C 91.1506 196.73077 79.18173 195.57991 67.6732 192.12736 C 61.4586 190.286 58.92672 188.21446 58.92672 184.99207 C 58.92672 181.30934 58.46638 181.07917 55.474165 183.38088 C 50.870755 187.29377 48.79922 184.99207 51.100925 178.31712 C 53.40263 170.7215 79.18173 144.71223 88.84889 140.33899 C 93.22213 138.26745 97.82554 136.19592 98.9764 135.5054 C 99.89708 135.04507 100.12725 136.65626 99.20657 139.4183 C 97.3652 145.17257 100.81776 145.86308 105.191 140.56916 C 108.18322 136.88643 133.50197 118.93313 135.80368 118.93313 C 136.26402 118.93313 143.3993 115.94091 151.45527 112.25818 C 164.575 106.27375 193.57648 97.52727 208.53757 95.22556 C 217.05387 93.84454 229.2529 93.3842 229.2529 94.53505 Z" fill="#ff0000"/>
        </g>
        <g id="Graphic_8">
          <path d="M 226.2607 239.77265 C 230.8641 244.1459 233.85632 248.51913 233.1658 249.43982 C 230.8641 251.51135 213.14098 238.6218 213.14098 234.93907 C 213.14098 229.64515 217.51422 231.25635 226.2607 239.77265 Z" fill="#ff0000"/>
        </g>
        <g id="Graphic_7">
          <path d="M 113.70731 240.00283 C 116.46935 241.8442 118.31072 244.37607 117.62021 245.52692 C 116.9297 246.67777 107.95305 250.13033 97.59537 253.5829 C 64.91116 264.17073 47.87854 275.2189 51.331096 283.73523 C 52.02161 285.80676 50.870755 286.9576 47.64837 286.9576 C 41.433763 286.9576 41.663934 285.5766 48.79922 276.1396 C 52.48195 271.30602 62.14911 264.63107 74.57832 258.41647 C 85.6265 252.6622 97.13503 245.52692 100.35742 242.30453 C 107.26253 235.39941 107.26253 235.39941 113.70731 240.00283 Z" fill="#ff0000"/>
        </g>
        <g id="Graphic_6">
          <path d="M 333.75033 274.29823 C 340.8856 280.28267 349.6321 286.03693 353.545 287.1878 C 360.21994 289.71966 361.14062 293.86273 354.926 293.86273 C 352.16397 293.86273 328.4564 278.67147 314.64618 268.08363 L 309.1221 263.94056 L 315.10652 263.94056 C 318.55908 263.94056 325.92453 268.08363 333.75033 274.29823 Z" fill="#ff0000"/>
        </g>
        <g id="Graphic_5">
          <path d="M 80.33258 154.60956 C 72.27661 158.06212 65.83184 167.03877 70.89559 167.4991 C 76.88002 167.95945 85.39633 166.8086 86.77736 165.42757 C 89.07906 162.8957 91.38077 151.157 89.5394 151.157 C 88.38855 151.38717 84.47565 152.7682 80.33258 154.60956 Z" fill="#cccccc"/>
        </g>
        <g id="Graphic_4">
          <path d="M 84.24548 160.13365 C 84.24548 161.2845 82.63429 162.66553 80.79292 163.58621 C 78.72139 164.27672 77.340365 163.58621 77.340365 161.51468 C 77.340365 159.67331 78.95156 158.06212 80.79292 158.06212 C 82.63429 158.06212 84.24548 158.9828 84.24548 160.13365 Z" fill="#ff0000"/>
        </g>
      </g>
    </g>
  </g>
</svg>
