<?xml version="1.0" encoding="UTF-8" standalone="no"?>
<svg
   width="100%"
   height="100%"
   viewBox="0 0 257 349"
   version="1.1"
   xml:space="preserve"
   style="fill-rule:evenodd;clip-rule:evenodd;"
   id="svg4232"
   xmlns="http://www.w3.org/2000/svg"
   xmlns:svg="http://www.w3.org/2000/svg"><defs
     id="defs4236" /><g
     id="g4230"><g
       id="g4228"><g
         id="g4226"><g
           id="g3809"><g
             id="outline-0"><path
               d="M43.09,98.441c-5.446,2.934 -13.401,5.327 -20.446,6.192c-4.604,0.565 -4.809,0.626 -6.463,1.856c-0.908,0.678 -2.72,1.785 -4.02,2.44c-2.395,1.25 -3.762,2.516 -3.655,3.388c0.034,0.279 -1.296,2.424 -2.953,4.787c-1.652,2.398 -2.982,4.544 -2.956,4.753c0.03,0.245 0.482,0.472 1.023,0.547c2.039,0.175 2.078,0.206 1.318,1.219c-1.032,1.402 -0.423,1.752 2.063,1.234c3.179,-0.638 5.783,-1.914 8.12,-3.935l2.078,-1.813l1.354,0.931c1.658,1.106 3.091,1.532 3.519,0.984c0.214,-0.274 0.106,-0.58 -0.294,-0.955c-1.384,-1.176 -1.569,-4.127 -0.381,-5.406c0.721,-0.761 0.807,-0.347 0.307,1.343c-0.461,1.438 -0.444,1.577 0.105,1.722c0.331,0.101 1.007,-0.159 1.527,-0.541c0.938,-0.717 0.973,-0.722 2.278,0.393c1.54,1.298 2.081,1.09 1.859,-0.724c-0.15,-1.504 0.047,-1.918 2.026,-3.966c1.101,-1.127 1.957,-1.657 3.322,-2.072c2.464,-0.692 10.873,-1.406 14.438,-1.206c2.993,0.163 5.472,1.027 5.248,1.798c-0.084,0.471 0.445,1.609 3.305,7.029c0.56,1.099 1.258,2.748 1.518,3.708c0.255,0.924 1.205,2.897 2.161,4.337c0.921,1.445 2.236,3.797 2.909,5.236c0.672,1.44 1.97,3.653 2.905,4.919c0.969,1.261 2.007,3.081 2.336,4.032c0.606,1.767 1.565,3.525 3.39,6.275c1.516,2.257 2.575,4.534 2.759,6.034c0.18,1.465 0.942,1.902 2.964,1.654c1.256,-0.154 1.351,0.33 0.294,1.238c-0.45,0.374 -0.79,0.77 -0.773,0.909c0.055,0.454 2.194,0.864 3.036,0.513l0.881,-0.321l0.278,2.55c0.513,4.469 0.349,6.011 -0.982,8.724c-0.679,1.393 -1.135,2.582 -1.052,2.678c0.113,0.057 0.593,-0.073 1.09,-0.346c1.301,-0.656 2.251,-0.701 2.324,-0.109c0.077,0.628 -3.847,3.27 -8.341,5.592c-1.829,0.968 -3.622,1.931 -3.945,2.183c-0.751,0.517 -6.65,3.224 -7.91,3.627c-2.046,0.64 -3.43,2.05 -4.237,4.414c-0.439,1.329 -1.31,2.887 -2.061,3.688c-1.407,1.518 -2.24,3.673 -3.357,8.413c-0.392,1.712 -0.919,3.759 -1.209,4.574c-0.254,0.81 -0.522,1.798 -0.584,2.16c-0.221,1.089 -2.676,5.887 -3.765,7.401c-1.849,2.529 -3.272,7.66 -3.149,11.256c0.073,2.327 -0.739,4.941 -2.599,8.249c-1.19,2.129 -1.195,2.377 -0.078,1.957c1.047,-0.412 1.056,-0.342 0.545,4.146c-0.604,4.889 -1.202,7.511 -2.077,9.035c-0.407,0.722 -0.74,1.471 -0.714,1.681c0.085,0.697 1.102,0.325 1.967,-0.702c2.137,-2.493 4.181,-4.585 4.495,-4.623c0.349,-0.043 0.925,5.232 0.816,7.511c-0.052,1.6 0.765,0.756 1.668,-1.692c0.531,-1.446 1.727,-4.106 2.668,-5.956c2.394,-4.72 2.394,-4.72 1.814,-6.56l-0.511,-1.566l1.129,-0.032c0.811,-0.029 1.042,-0.164 0.925,-0.539c-0.533,-1.457 -1.244,-5.228 -1.051,-5.394c0.454,-0.339 0.805,0.503 1.617,3.661c0.579,2.407 0.917,3.144 1.301,3.097c0.279,-0.034 0.52,-0.382 0.507,-0.77c0.023,-0.393 0.161,-1.861 0.308,-3.26c0.263,-2.475 0.237,-2.684 -0.988,-6.322l-1.278,-3.773l0.355,-2.875c0.342,-2.698 1.966,-8.208 3.052,-10.323c0.254,-0.527 0.963,-1.96 1.593,-3.17c2.04,-4.145 3.653,-6.007 6.804,-8.022c3.155,-1.981 6.24,-3.386 10.034,-4.489c2.835,-0.844 5.173,-1.697 6.102,-2.201c0.829,-0.456 6.712,-1.851 7.222,-1.736c0.222,0.079 0.831,0.712 1.352,1.498c0.734,1.078 1.072,2.098 1.502,4.736c0.336,1.871 0.681,3.528 0.846,3.72c0.252,0.323 1.789,-0.715 2.187,-1.508c0.994,-1.998 0.959,-1.994 2.573,-0.67c2.288,1.914 5.173,6.375 5.712,8.751c0.604,2.9 1.132,2.588 1.79,-0.998c0.22,-1.089 0.353,-2.309 0.302,-2.728c-0.15,-1.221 0.234,-1.268 2.058,-0.253c2.089,1.16 4.24,1.958 6.602,2.447c1.816,0.379 10.466,3.353 10.827,3.698c0.283,0.284 1.563,0.905 2.255,1.068c0.946,0.203 3.868,1.225 4.068,1.412c0.317,0.28 3.875,1.861 4.602,2.02c0.95,0.237 0.913,1.375 -0.109,1.996c-0.493,0.308 -1.993,0.776 -3.34,1.047c-3.144,0.634 -3.699,1.021 -2.288,1.556l1.072,0.364l-0.817,0.56c-0.419,0.335 -1.758,0.959 -2.975,1.428c-2.399,0.931 -3.116,2.011 -1.277,1.997c0.532,0.006 1.006,0.124 0.997,0.338c0.017,0.423 -3.49,3.579 -5.389,4.839c-2.418,1.642 -9.326,7.66 -10.773,9.43c-1.302,1.505 -1.46,1.95 -1.314,3.136c0.098,0.802 0.736,2.246 1.527,3.494c1.146,1.842 1.419,2.623 1.948,5.779c0.633,3.711 1.45,6.62 2.331,8.317c1.45,2.867 6.984,9.303 10.738,12.489c1.701,1.455 4.334,5.309 5.27,7.743c0.659,1.618 0.948,3.105 1.148,5.594c0.224,2.982 0.153,3.557 -0.49,4.663c-0.971,1.606 -3.586,3.662 -6.946,5.42c-4.124,2.17 -6.505,2.958 -12.518,4.157c-5.18,1.061 -6.153,1.499 -8.084,3.648c-1.936,2.114 -4.589,3.572 -7.17,3.889c-2.441,0.3 -2.738,0.478 -1.741,1.099c1.192,0.774 0.733,1.645 -2.71,5.324c-2.568,2.723 -3.73,3.645 -5.239,4.326c-0.807,0.347 -1.419,0.847 -1.446,1.204c-0.049,0.466 0.243,0.537 1.46,0.352c1.774,-0.254 4.652,-1.032 5.582,-1.535c0.432,-0.23 0.27,0.179 -0.521,1.232c-0.639,0.857 -1.617,1.827 -2.145,2.14c-1.026,0.586 -1.001,1.362 0.067,1.124c0.345,-0.077 2.773,-0.482 5.346,-0.868c3.23,-0.503 5.053,-0.94 5.882,-1.395c1.091,-0.63 3.801,-4.22 5.245,-6.875l0.609,-1.102l1.669,1.778c1.748,1.839 3.312,2.461 5.544,2.187c1.081,-0.133 1.086,-0.381 0.098,-1.216c-0.435,-0.371 -0.908,-1.057 -1.108,-1.528c-0.264,-0.711 -0.132,-1.081 0.803,-2.116c0.585,-0.71 1.258,-1.288 1.432,-1.309c0.209,-0.026 0.369,0.698 0.367,1.831c0.009,1.521 0.13,1.931 0.67,2.29c0.579,0.389 0.745,0.298 1.458,-0.816c0.503,-0.806 1.083,-1.266 1.641,-1.335c0.663,-0.081 1.327,-0.729 2.494,-2.466c1.592,-2.319 3.754,-4.319 7.975,-7.422c3.737,-2.725 9.861,-5.034 15.193,-5.725c3.488,-0.428 3.623,-0.48 4.65,-1.633c1.088,-1.231 1.44,-2.973 0.855,-4.282c-0.191,-0.401 -1.37,-1.637 -2.635,-2.721c-1.306,-1.114 -2.862,-2.835 -3.514,-3.817c-1.094,-1.707 -1.159,-1.947 -1.335,-5.394c-0.24,-3.972 0.075,-12.365 0.549,-15.716c0.172,-1.189 0.687,-3.341 1.183,-4.783c0.89,-2.552 0.947,-2.665 2.814,-3.603c1.065,-0.555 2.618,-1.171 3.473,-1.417c0.859,-0.212 2.107,-0.719 2.774,-1.049c1.401,-0.703 1.688,-0.384 1.005,0.974c-0.197,0.414 -0.614,1.633 -0.943,2.7l-0.536,1.978l0.908,1.34c0.517,0.751 1.06,1.428 1.212,1.515c0.153,0.088 1.274,1.437 2.535,3.052c1.221,1.585 2.942,3.781 3.781,4.846c0.874,1.061 2.143,2.746 2.869,3.755c2.05,2.863 7.198,8.746 9.76,11.157c2.201,2.066 9.576,7.923 12.979,10.266c0.231,0.149 1.719,1.028 3.313,1.895c1.593,0.866 2.916,1.837 2.989,2.146c0.039,0.314 0.7,0.8 1.436,1.028c1.738,0.601 2.13,0.907 3.29,2.57c2.029,2.972 0.687,6.465 -5.466,14.018c-3.536,4.364 -4.243,4.946 -10.004,8.769c-3.737,2.441 -4.021,2.724 -5.355,5.118c-1.969,3.57 -3.026,4.478 -7.201,6.23c-0.371,0.152 -0.353,0.291 0.047,0.667c0.278,0.249 0.727,0.442 0.971,0.412c0.279,-0.034 0.522,0.219 0.565,0.568c0.116,0.941 -3.285,7.555 -4.915,9.56c-0.8,0.984 -1.465,1.915 -1.447,2.054c0.055,0.454 1.207,0.029 3.921,-1.508c1.523,-0.859 2.954,-1.602 3.129,-1.623c0.732,-0.09 0.485,1.356 -0.543,3.076c-1.4,2.438 -0.782,2.857 1.192,0.774c1.411,-1.483 2.463,-2.143 5.687,-3.566c1.946,-0.876 4.313,-2.937 5.083,-4.448c0.337,-0.714 0.593,-2.09 0.591,-3.259c-0.015,-3.007 -0.015,-3.007 1.496,-2.237c1.589,0.832 4.831,1.284 5.259,0.735c0.184,-0.234 -0.111,-0.906 -0.794,-1.849c-0.934,-1.266 -1.047,-1.606 -0.813,-2.591c0.308,-1.525 0.835,-1.554 1.02,-0.054c0.188,1.534 0.887,2.9 1.579,3.063c0.658,0.167 2.095,-1.107 2.201,-1.97c0.062,-0.362 0.364,-0.788 0.696,-0.97c0.864,-0.46 1.931,-2.149 2.011,-3.221c0.189,-2.502 5.851,-10.879 10.193,-15.023c3.669,-3.566 6.838,-5.726 9.145,-6.257c3.335,-0.799 3.611,-1.151 3.204,-4.464c-0.343,-2.791 -0.343,-2.791 -1.544,-3.351c-0.675,-0.307 -1.856,-0.693 -2.648,-0.808c-2.174,-0.406 -4.502,-2.35 -6.718,-5.689c-1.046,-1.607 -2.223,-3.692 -2.587,-4.639c-0.36,-0.912 -1.063,-2.312 -1.588,-3.133c-0.526,-0.82 -1.347,-2.313 -1.824,-3.316c-0.967,-2.112 -5.604,-10.181 -7.247,-12.599l-1.086,-1.637l0.526,-1.197c0.307,-0.675 0.579,-1.629 0.65,-2.204c0.138,-1.185 1.001,-1.362 2.376,-0.54c1.415,0.853 2.135,0.659 1.78,-0.502c-1.048,-3.34 -1.051,-5.96 -0.074,-6.08c0.418,-0.051 0.458,-0.304 0.22,-1.089c-0.273,-0.781 -0.215,-1.177 0.353,-1.743c0.69,-0.722 0.686,-0.756 -0.019,-1.59c-1.617,-1.926 1.37,-0.381 3.292,1.72c0.734,0.794 1.365,1.602 1.395,1.846c0.06,0.205 0.287,0.319 0.487,0.224c0.24,-0.065 1.055,0.224 1.781,0.666c1.141,0.639 1.468,0.705 1.983,0.288c0.707,-0.583 2.586,-0.849 4.839,-0.665c2.179,0.157 4.064,-0.641 5.388,-2.255c0.585,-0.709 1.45,-1.453 1.921,-1.652c1.375,-0.629 2.322,-1.56 3.023,-3.062c0.56,-1.202 0.588,-1.842 0.258,-4.244c-0.292,-2.372 -0.56,-3.118 -1.46,-4.388c-1.195,-1.659 -2.878,-2.975 -4.586,-3.615c-0.596,-0.245 -1.606,-0.687 -2.181,-1.042c-0.871,-0.459 -1.123,-0.499 -1.285,-0.09c-0.171,0.34 0.25,0.89 1.269,1.685c1.527,1.194 2.612,3.114 2.583,4.604c-0.007,1.099 -2.819,3.285 -4.073,3.156c-2.188,-0.227 -7.152,-2.309 -10.112,-4.211c-3.882,-2.497 -6.591,-5.528 -8.382,-9.45c-1.258,-2.749 -7.205,-11.967 -10.447,-16.171c-4.668,-6.012 -5.876,-7.492 -6.264,-7.48c-0.423,0.017 -7.127,-5.851 -8.487,-7.419c-0.409,-0.445 -2.332,-2.263 -4.32,-4.037c-4.097,-3.674 -6.85,-6.487 -10.437,-10.613c-1.365,-1.603 -3.191,-3.503 -4.027,-4.25c-1.792,-1.621 -6.709,-9.089 -8.622,-13.138c-1.441,-3.08 -3.262,-9.264 -3.665,-12.543c-0.359,-2.93 -0.573,-13.029 -0.277,-14.941c0.169,-1.225 0.396,-1.677 0.981,-1.82c0.65,-0.186 0.728,-0.408 0.531,-2.012c-0.222,-1.814 -0.192,-1.853 2.042,-4.712l2.299,-2.902l0.333,0.986c0.208,0.541 0.429,1.186 0.559,1.383c0.256,0.641 1.255,0.412 1.409,-0.35c0.396,-1.961 1.259,-3.872 2.593,-5.7c0.852,-1.131 1.495,-2.237 1.469,-2.446c-0.025,-0.209 0.22,-0.806 0.544,-1.341l0.555,-0.954l0.469,0.934c0.825,1.527 1.707,0.923 1.729,-1.204c-0.022,-1.909 0.519,-4.135 1.157,-4.992c0.371,-0.435 1.477,-3.828 1.829,-5.57c0.101,-0.331 0.486,-0.662 0.869,-0.709c0.628,-0.077 0.672,-0.295 0.462,-2.004c-0.15,-1.22 0.007,-3.116 0.452,-5.259c0.489,-2.362 0.636,-4.044 0.448,-5.578c-0.265,-2.163 -0.265,-2.163 0.711,-2.283c1.151,-0.141 1.177,-0.215 0.452,-1.223c-0.474,-0.686 -1.997,-11.934 -1.656,-12.33c0.21,-0.309 1.491,0.03 2.893,0.778c0.905,0.455 1.807,0.592 2.853,0.464c0.802,-0.099 2.271,0.04 3.229,0.347c1.986,0.606 2.867,0.568 5.562,-0.258c1.025,-0.303 2.678,-0.683 3.689,-0.807c0.972,-0.155 1.862,-0.406 1.945,-0.593c0.088,-0.152 1.209,-0.538 2.486,-0.801c1.723,-0.388 2.46,-0.727 2.784,-1.262c0.262,-0.457 1.257,-1.004 2.483,-1.403c3.507,-1.138 4.652,-2.766 2.016,-2.902c-2.563,-0.11 -6.738,-2.395 -8.72,-4.7c-1.7,-2.022 -9.276,-5.482 -13.354,-6.114c-2.344,-0.349 -10.993,0.429 -13.65,1.287c-1.91,0.588 -2.089,0.575 -2.771,-0.085c-0.401,-0.376 -0.735,-0.795 -0.752,-0.934c-0.082,-0.663 2.872,-2.265 5.572,-3.056c4.649,-1.35 14.195,-3.761 15.281,-3.859c1.613,-0.127 3.332,0.901 6.72,3.989c3.789,3.465 5.243,4.349 8.009,4.965c2.44,0.55 5.488,-0.001 7.766,-1.343c1.352,-0.804 3.538,-3.479 5.182,-6.23l0.731,-1.258l1.93,0.435c2.661,0.63 4.612,1.523 7.768,3.578c1.497,0.949 3.944,2.136 5.455,2.623c2.618,0.847 2.975,0.874 6.602,0.428c2.651,-0.325 4.404,-0.753 5.717,-1.303c3.255,-1.462 5.881,-4.581 4.667,-5.53c-0.353,-0.275 -0.588,-0.175 -0.903,0.43c-0.574,1.097 -3.707,2.685 -5.764,2.938c-2.337,0.287 -5.478,-0.213 -7.359,-1.115l-1.55,-0.801l3.406,-0.807c1.857,-0.441 4.54,-1.372 5.91,-2.036c1.374,-0.629 3.656,-1.652 5.03,-2.281c1.379,-0.594 3.115,-1.445 3.84,-1.888c3.26,-1.993 4.591,-2.688 5.184,-2.761c0.383,-0.047 0.641,-0.255 0.619,-0.43c-0.025,-0.209 0.271,-0.387 0.655,-0.434c0.384,-0.047 0.676,-0.26 0.655,-0.435c-0.026,-0.209 0.271,-0.387 0.655,-0.434c0.348,-0.043 0.994,-0.264 1.426,-0.494c1.894,-1.011 3.695,-1.622 5.74,-1.979c3.401,-0.559 3.436,-0.564 3.397,-0.877c-0.086,-0.698 -2.948,-1.232 -5.79,-1.024c-2.842,0.207 -4.936,0.747 -9.289,2.486c-1.553,0.615 -3.427,0.633 -3.496,0.075c-0.021,-0.175 0.853,-1.415 1.924,-2.785c1.311,-1.719 2.617,-2.906 4.097,-3.831c1.217,-0.752 2.156,-1.469 2.174,-1.613c-0.056,-0.453 -1.642,-0.683 -2.231,-0.292c-0.293,0.213 -0.868,0.425 -1.252,0.472c-1.291,0.159 -5.757,3.575 -10.229,7.806c-0.983,0.935 -2.943,2.273 -5.841,4.045c-2.273,1.376 -6.604,2.723 -10.162,3.159c-2.934,0.325 -9.248,-0.068 -10.066,-0.675c-0.853,-0.604 1.47,-4.748 4.038,-7.187c1.935,-1.831 3.498,-2.944 5.042,-3.629c0.637,-0.29 1.179,-0.782 1.206,-1.139c0.089,-1.002 -2.322,-0.458 -5.129,1.196c-3.53,2.097 -6.334,4.637 -8.249,7.492c-1.885,2.816 -1.819,2.772 -6.528,1.616c-1.494,-0.348 -5.629,-0.867 -9.168,-1.141c-6.04,-0.462 -6.711,-0.45 -10.592,0.239c-3.915,0.693 -5.904,1.22 -11.648,3.165c-1.291,0.442 -3.694,1.055 -5.316,1.396c-2.664,0.504 -3.091,0.486 -4.402,-0.097c-1.942,-0.823 -2.572,-1.631 -1.791,-2.187c0.288,-0.248 1.59,-1.47 2.848,-2.757c2.984,-3.093 9.609,-7.376 21.051,-13.666c0.929,-0.504 2.234,-1.124 2.91,-1.384c0.676,-0.26 1.749,-0.746 2.343,-1.102c0.593,-0.356 3.411,-1.339 6.276,-2.222c5.736,-1.731 17.185,-3.633 20.227,-3.369c0.893,0.067 2.858,0.216 4.358,0.315c3.316,0.194 5.555,0.84 10.75,3.07c2.991,1.296 6.268,1.744 10.448,1.478c6.282,-0.452 8.343,-0.387 10.198,0.306c2.892,1.061 3.33,0.016 0.684,-1.642c-1.689,-1.067 -5.204,-2.299 -7.848,-2.789c-4.017,-0.71 -10.42,-2.686 -10.493,-3.279c-0.017,-0.139 1.462,-0.781 3.29,-1.466c1.797,-0.645 4.183,-1.682 5.279,-2.276c2.395,-1.25 8.09,-2.445 10.526,-2.213c2.043,0.209 2.476,-0.304 0.961,-1.11c-2.577,-1.382 -11.059,-1.262 -16.645,0.239c-7.811,2.127 -9.403,2.429 -14.686,2.936c-3.078,0.307 -6.705,0.469 -8.099,0.357c-1.36,-0.116 -3.465,-0.247 -4.672,-0.276c-1.207,-0.029 -2.423,-0.127 -2.754,-0.228c-0.727,-0.159 -0.56,-1.1 0.502,-2.257c0.778,-0.874 0.773,-0.909 0.067,-0.61c-0.441,0.16 -0.785,0.238 -0.798,0.133c-0.056,-0.453 2.62,-2.304 4.147,-2.845c0.881,-0.321 1.884,-0.798 2.212,-1.015c0.292,-0.213 1.5,-0.751 2.691,-1.145c1.152,-0.425 2.635,-1.032 3.268,-1.357c0.632,-0.326 1.802,-0.894 2.57,-1.272c1.535,-0.755 5.8,-5.527 5.291,-5.924c-0.157,-0.123 -0.567,-0.002 -0.851,0.281c-2.638,2.448 -5.312,3.732 -9.956,4.834c-7.601,1.818 -9.866,2.981 -16.459,8.393c-5.109,4.238 -6.471,5.255 -7.985,5.901c-0.702,0.334 -1.605,0.764 -1.972,0.951c-1.819,1.037 -3.456,1.84 -4.838,2.399c-0.842,0.351 -1.885,0.798 -2.356,0.998c-4.394,1.991 -4.734,2.103 -5.36,1.614c-0.509,-0.398 -0.539,-0.642 -0.293,-1.805c0.189,-0.767 0.837,-2.121 1.471,-3.013c0.595,-0.923 1.081,-1.868 1.047,-2.147c-0.03,-0.244 0.324,-0.818 0.8,-1.266c0.476,-0.448 1.354,-1.37 1.979,-2.049c1.429,-1.627 3.755,-3.152 7.568,-4.965c7.858,-3.762 9.308,-5.214 10.196,-10.386c0.203,-1.229 -0.674,-0.873 -1.619,0.659c-1.268,2.068 -4.493,4.057 -10.762,6.632c-6.539,2.679 -9.516,4.673 -12.418,8.428c-2.929,3.829 -4.596,6.689 -6.966,12.185c-2.343,5.421 -3.885,6.991 -4.254,4.275c-0.249,-1.74 -0.977,-1.898 -1.281,-0.339c-0.308,1.525 -1.479,2.943 -3.736,4.46c-2.126,1.429 -4.542,4.239 -5.48,6.408c-0.6,1.454 -1.264,2.102 -1.349,1.404c-0.018,-0.139 -0.797,-0.433 -1.716,-0.709c-2.858,-0.782 -4.557,-2.804 -4.93,-5.838c-0.149,-1.504 0.04,-2.271 1.292,-5.045c2.05,-4.641 2.476,-6.074 2.224,-8.132c-0.232,-1.884 -1.291,-3.878 -2.023,-3.788c-0.314,0.039 -0.372,0.719 -0.162,2.428c0.376,3.069 0.052,3.887 -3.397,8.382c-5.712,7.393 -5.524,10.945 0.771,16.368c2.767,2.351 3.149,2.87 2.068,3.003c-1.221,0.15 -3.692,2.224 -5.358,4.517c-0.966,1.358 -2.355,2.732 -3.437,3.431c-0.982,0.652 -1.855,1.326 -1.939,1.513c-0.083,0.187 -1.578,0.406 -3.335,0.516c-6.212,0.444 -9.829,2.127 -10.907,5.162c-0.571,1.699 -0.606,1.703 -3.388,2.682c-1.562,0.546 -3.263,1.109 -3.852,1.216c-0.553,0.104 -1.762,0.642 -2.687,1.18c-1.056,0.625 -2.212,1.015 -3.232,1.07c-5.336,0.371 -6.853,0.699 -8.006,1.691c-0.607,0.534 -1.438,1.84 -1.88,2.85c-0.789,1.938 -2.805,4.841 -3.363,4.909c-0.174,0.022 -0.476,0.448 -0.629,0.927c-0.229,0.736 -0.081,1.072 0.784,2.064c0.539,0.641 0.934,1.266 0.847,1.418c-0.127,0.122 -1.625,-0.261 -3.363,-0.862c-1.703,-0.605 -3.598,-1.045 -4.191,-0.972c-1.185,0.146 -4.691,2.736 -5.352,3.985c-0.547,1.023 -0.371,2.17 0.4,2.677c0.535,0.324 0.775,0.259 1.587,-0.336c1.231,-0.931 4.405,-1.32 6.025,-0.811c0.632,0.241 1.694,0.819 2.285,1.312c0.631,0.525 1.35,0.897 1.594,0.867c0.244,-0.03 0.475,0.119 0.496,0.293c0.051,0.419 1.072,0.081 3.851,-1.216c2.042,-0.959 2.727,-1.149 2.499,-0.697c-0.223,0.488 0.791,1.249 1.801,1.408c0.536,0.04 1.679,-0.171 2.49,-0.483c1.352,-0.52 1.636,-0.519 2.62,-0.003c1.824,1.015 2.844,0.961 4.363,-0.217c1.847,-1.395 3.4,-2.011 7.538,-2.908l3.414,-0.738l1.027,0.865c1.54,1.298 5.262,3.071 8.647,4.107c1.659,0.54 1.616,0.475 0.99,1.436c-0.892,1.384 -3.149,2.901 -5.561,3.728c-2.481,0.836 -6.724,1.463 -7.93,1.151c-1.464,-0.387 -1.604,0.197 -0.352,1.459l1.244,1.193l-1.448,0.602c-1.824,0.72 -3.557,1.888 -5.954,3.988c-1.568,1.361 -2.366,1.778 -4.595,2.37c-1.474,0.393 -2.691,0.861 -2.674,1.001c0.022,0.174 0.457,0.546 0.992,0.869c0.57,0.32 1.01,0.726 1.031,0.901c0.022,0.174 -0.747,0.835 -1.664,1.443c-0.947,0.647 -2.349,1.917 -3.122,2.826c-2.303,2.867 -4.351,4.641 -5.79,5.03l-1.365,0.416l0.865,0.708c0.475,0.402 1.158,0.778 1.559,0.87c1.085,0.186 0.861,0.957 -0.913,2.661c-2.048,2.058 -3.213,2.661 -5.218,2.765c-2.245,0.17 -2.208,1.05 0.034,2.014c0.937,0.416 1.733,0.849 1.75,0.989c0.056,0.453 -0.704,1.184 -1.297,1.257c-0.872,0.107 -3.49,-2.475 -5.562,-5.513c-0.991,-1.436 -2.864,-4.003 -4.133,-5.688c-1.269,-1.685 -2.537,-3.654 -2.797,-4.33c-0.295,-0.671 -1.198,-2.26 -2.028,-3.539c-0.83,-1.279 -1.542,-2.466 -1.567,-2.675c-0.026,-0.209 -0.799,-1.601 -1.759,-3.077c-0.925,-1.479 -2.332,-3.714 -3.088,-4.966c-1.333,-2.209 -3.125,-4.113 -4.64,-4.918c-0.378,-0.201 -1.759,-0.492 -3.014,-0.621c-1.434,-0.143 -2.719,-0.516 -3.38,-1.001c-2.098,-1.513 -2.93,-1.658 -5.8,-0.81c-1.435,0.424 -3.494,1.243 -4.589,1.838Zm143.467,-45.443c0.789,0.08 2.153,0.232 3.05,0.334c0.898,0.102 2.545,0.254 3.691,0.361l2.109,0.166l-0.651,1.036c-0.35,0.609 -0.787,1.088 -0.997,1.113c-0.209,0.026 -0.663,0.365 -0.973,0.722c-0.437,0.478 -1.253,0.755 -2.997,0.969c-2.262,0.314 -2.48,0.27 -3.807,-0.736c-0.779,-0.577 -1.792,-1.621 -2.262,-2.271l-0.821,-1.209l0.96,-0.26c0.514,-0.134 0.994,-0.263 1.094,-0.311c0.101,-0.048 0.815,0.006 1.604,0.086Z"
               style="fill-rule:nonzero;stroke:#505050;stroke-width:1px;"
               id="path3806" /></g></g><g
           id="g3813"><path
             d="M186.222,7.016c-0.511,0.452 -1.205,0.856 -1.484,0.89c-0.279,0.034 0,-0.283 0.616,-0.748c1.532,-1.074 2.051,-1.173 0.867,-0.142Z"
             style="fill:#ff0;fill-rule:nonzero;stroke:#505050;stroke-width:1px;"
             id="path3811" /></g><g
           id="g3817"><path
             d="M183.019,8.613c-0.061,0.078 -1.03,0.551 -2.134,1.076c-4.882,2.334 -6.596,3.076 -6.753,2.953c-0.231,-0.149 7.418,-3.885 8.351,-4.07c0.384,-0.047 0.597,-0.038 0.536,0.041Z"
             style="fill:#ff0;fill-rule:nonzero;stroke:#505050;stroke-width:1px;"
             id="path3815" /></g><g
           id="g3821"><path
             d="M177.187,12.727c-0.258,0.209 -0.62,0.43 -0.829,0.456c-0.174,0.021 -0.126,-0.161 0.131,-0.37c0.258,-0.209 0.655,-0.435 0.83,-0.456c0.209,-0.026 0.126,0.162 -0.132,0.37Z"
             style="fill:#ff0;fill-rule:nonzero;stroke:#505050;stroke-width:1px;"
             id="path3819" /></g><g
           id="g3825"><path
             d="M173.04,13.555c0.017,0.14 0.41,0.162 0.885,-0.002c1.33,-0.412 1.063,0.294 -0.671,1.746c-1.702,1.413 -5.23,6.13 -5.809,7.758c-0.18,0.554 -0.548,1.307 -0.753,1.651c-0.298,0.461 -0.356,1.424 -0.154,2.78c0.141,1.151 0.152,2.105 0.012,2.123c-0.174,0.021 -0.626,-0.49 -1.061,-1.145c-0.53,-0.855 -0.839,-1.065 -1.118,-0.747c-0.533,0.561 -2.107,4.754 -2.026,5.417c0.082,0.663 0.57,0.603 1.047,-0.128c0.267,-0.423 0.502,-0.522 0.815,-0.277c0.666,0.52 0.889,0.315 1.149,-1.027c0.282,-1.45 0.749,-1.685 1.06,-0.59c0.281,1.134 1.241,0.874 1.234,-0.329c-0.011,-0.954 0.273,-1.237 0.822,-0.808c0.352,0.275 0.496,0.293 2.527,0.114c0.872,-0.107 1.591,-0.018 1.617,0.191c0.021,0.174 -0.944,0.965 -2.161,1.717c-4.05,2.48 -5.028,3.166 -5.54,3.902c-0.45,0.657 -0.446,0.692 0.112,0.623c0.314,-0.038 0.541,0.075 0.457,0.263c-0.175,0.304 -8.499,6.035 -8.848,6.078c-0.104,0.013 -0.204,-0.223 -0.238,-0.502c-0.034,-0.279 -0.378,-0.484 -0.727,-0.442c-0.384,0.047 -0.824,-0.076 -0.95,-0.237c-0.165,-0.192 -0.453,-0.228 -0.645,-0.063c-1.51,0.965 1.962,-2.188 3.913,-3.595c2.895,-2.091 3.275,-2.456 3.022,-2.779c-0.126,-0.161 -0.859,0.212 -1.64,0.768c-1.558,1.147 -2.325,0.958 -1.272,-0.269c0.931,-1.07 2.099,-3.373 3.099,-6.186c1.061,-2.892 3.587,-7.698 4.727,-9.077c0.463,-0.553 1.146,-1.628 1.513,-2.381c0.395,-0.827 1.522,-2.028 2.845,-3.075c2.296,-1.769 2.693,-1.995 2.757,-1.472Z"
             style="fill:#ff0;fill-rule:nonzero;stroke:#505050;stroke-width:1px;"
             id="path3823" /></g><g
           id="g3829"><path
             d="M203.656,10.61c-0.117,-0.092 -1.176,-0.068 -2.327,0.074c-2.69,0.294 -4.571,1.41 -9.641,5.679c-5.065,4.304 -6.492,5.365 -9.145,6.823c-1.262,0.686 -2.684,1.498 -3.151,1.732c-2.579,1.485 -5.262,2.7 -6.064,2.798c-0.349,0.043 -0.711,0.265 -0.825,0.491c-0.106,0.296 0.073,0.31 0.575,0.071c0.702,-0.334 0.746,-0.269 0.639,0.594c-0.146,1.116 0.281,1.134 2.07,0.135c1.288,-0.759 10.309,-4.274 11.076,-4.369c0.667,-0.046 -1.702,1.13 -5.568,2.808c-4.606,1.982 -11.427,5.829 -10.996,6.165c0.078,0.061 1.252,-0.472 2.609,-1.241c2.251,-1.267 5.248,-2.521 7.874,-3.339c6.76,-2.033 9.473,-2.72 14.626,-3.707c11.106,-2.107 18.088,-1.761 24.754,1.209c3.819,1.691 6.371,2.298 9.266,2.225c7.658,-0.196 8.051,-0.457 1.802,-1.177c-3.124,-0.36 -4.148,-0.623 -4.865,-1.279c-1.075,-0.965 -0.926,-1.479 0.158,-0.727c0.814,0.572 3.341,0.97 3.285,0.517c-0.021,-0.175 -0.4,-0.376 -0.836,-0.464c-0.466,-0.049 -2.308,-0.637 -4.151,-1.225c-3.911,-1.29 -5.871,-1.687 -3.663,-0.718c0.823,0.359 1.554,0.835 1.688,1.067c0.104,0.27 -1.507,-0.169 -3.585,-0.941c-2.112,-0.767 -3.618,-1.503 -3.418,-1.598c0.201,-0.096 1.4,-0.137 2.607,-0.108c3.238,0.134 9.753,-1.587 13.092,-3.519c0.694,-0.404 2.373,-1.141 3.656,-1.653c2.225,-0.91 2.29,-0.953 0.965,-0.791c-0.807,0.064 -2.896,0.639 -4.631,1.206c-4.388,1.459 -8.287,2.292 -9.149,1.902c-0.631,-0.241 -0.64,-0.311 0.158,-0.444c0.484,-0.095 1.208,-0.254 1.587,-0.336c3.685,-0.842 5.015,-1.253 6.464,-1.856l1.679,-0.737l-2.764,0.551c-1.522,0.293 -3.375,0.769 -4.121,1.037c-3.686,1.409 -19.101,3.018 -21.946,2.341c-0.475,-0.119 -1.795,-0.204 -2.959,-0.168l-2.083,0.044l3.263,0.626c1.812,0.344 4.492,0.829 5.977,1.107c3.908,0.688 1.837,1.12 -2.346,0.5c-1.734,-0.282 -4.257,-0.645 -5.586,-0.801c-2.845,-0.394 -4.355,-1.448 -4.26,-2.982c0.157,-1.895 3.004,-4.652 6.84,-6.575c0.868,-0.425 1.488,-0.855 1.37,-0.947Z"
             style="fill:#ff0;fill-rule:nonzero;stroke:#505050;stroke-width:1px;"
             id="path3827" /></g><g
           id="g3833"><path
             d="M135.257,39.436c0.073,2.328 0.164,2.493 1.673,4.397c0.843,1.1 1.477,2.226 1.411,2.553c-0.067,0.327 0.285,0.885 0.873,1.344c1.018,0.796 1.099,1.458 0.063,0.807c-0.805,-0.503 -1.041,-0.12 -0.442,0.727c0.348,0.523 0.369,0.698 -0.014,0.745c-0.628,0.077 -1.324,-0.404 -3.569,-2.536c-1.792,-1.621 -2.018,-2.018 -2.479,-4.05c-0.475,-2.137 -0.431,-4.656 0.093,-4.72c0.139,-0.017 0.325,0.633 0.389,1.439c0.188,1.818 1.195,3.677 1.892,3.591c0.628,-0.077 0.607,-0.251 0.003,-1.133c-0.643,-0.912 -0.933,-3.85 -0.487,-4.826c0.197,-0.413 0.403,-0.757 0.438,-0.762c0.035,-0.004 0.098,1.086 0.156,2.424Z"
             style="fill:#ff0;fill-rule:nonzero;stroke:#505050;stroke-width:1px;"
             id="path3831" /></g><g
           id="g3837"><path
             d="M168.068,35.053c-0.188,0.2 -0.681,0.509 -1.156,0.673l-0.842,0.352l0.808,-0.631c0.903,-0.713 1.653,-0.946 1.19,-0.394Z"
             style="fill:#ff0;fill-rule:nonzero;stroke:#505050;stroke-width:1px;"
             id="path3835" /></g><g
           id="g3841"><path
             d="M156.333,38.087c-0.319,0.287 -0.873,0.674 -1.244,0.826c-0.497,0.273 -0.449,0.09 0.202,-0.662c0.498,-0.557 1.052,-0.944 1.244,-0.826c0.222,0.079 0.152,0.371 -0.202,0.662Z"
             style="fill:#ff0;fill-rule:nonzero;stroke:#505050;stroke-width:1px;"
             id="path3839" /></g><g
           id="g3845"><path
             d="M149.126,41.38c-1.451,1.736 -1.975,2.083 -0.948,0.647c0.577,-0.779 1.202,-1.457 1.377,-1.479c0.209,-0.026 0.007,0.353 -0.429,0.832Z"
             style="fill:#ff0;fill-rule:nonzero;stroke:#505050;stroke-width:1px;"
             id="path3843" /></g><g
           id="g3849"><path
             d="M153.273,42.287c-0.477,0.731 -2.297,2.052 -2.336,1.738c-0.021,-0.175 0.512,-0.736 1.193,-1.244c1.393,-1.056 1.558,-1.147 1.143,-0.494Z"
             style="fill:#ff0;fill-rule:nonzero;stroke:#505050;stroke-width:1px;"
             id="path3847" /></g><g
           id="g3853"><path
             d="M147.973,46.124c-0.132,0.653 0.035,2.297 0.306,3.644c0.488,2.241 0.627,2.507 1.732,3.151c1.293,0.726 1.651,0.753 6.315,0.392c2.28,-0.173 3.453,-0.423 4.993,-1.144c1.108,-0.49 2.29,-0.953 2.674,-1.001c0.349,-0.042 1.88,-0.549 3.406,-1.091c3.996,-1.481 9.965,-2.462 13.913,-2.31c8.433,0.346 12.703,1.096 14.582,2.564c1.175,0.918 1.266,1.084 0.621,1.022c-0.828,-0.111 -1.02,0.337 -0.306,0.675c0.222,0.079 0.287,0.318 0.13,0.479c-0.276,0.353 -3.771,0.145 -6.712,-0.45c-0.98,-0.198 -3.333,-0.334 -5.172,-0.321l-3.365,-0.012l-0.015,-0.989c-0.003,-0.885 -0.081,-0.946 -1.267,-0.8c-0.697,0.085 -1.887,-0.087 -2.701,-0.377c-1.481,-0.526 -2.584,-0.568 -2.951,-0.098c-0.336,0.431 0.63,1.091 1.467,0.988c0.802,-0.098 2.791,1.109 2.873,1.772c0.021,0.174 0.286,0.319 0.566,0.284c0.279,-0.034 0.553,0.18 0.587,0.459c0.038,0.314 0.469,0.651 0.979,0.765c0.875,0.211 3.263,2.644 2.957,3.036c-0.092,0.117 -0.971,-0.412 -1.985,-1.173c-1.645,-1.285 -3.387,-1.92 -3.784,-1.411c-0.092,0.117 0.221,0.362 0.705,0.55c0.853,0.321 2.533,1.601 5.399,4.188c1.588,1.398 4.484,2.494 5.348,2.034c0.733,-0.374 0.333,-0.749 -0.883,-0.848c-1.037,-0.085 -3.04,-1.113 -3.1,-1.602c-0.021,-0.174 0.593,-0.073 1.373,0.221c0.81,0.255 2.217,0.471 3.172,0.46c1.556,-0.014 1.957,-0.205 3.769,-1.595c1.096,-0.878 2.69,-2.596 3.53,-3.832c1.465,-2.198 2.273,-2.829 1.55,-1.217c-0.197,0.413 -0.246,0.879 -0.055,0.998c0.314,0.244 0.83,-0.456 1.74,-2.267c0.258,-0.492 0.608,-0.819 0.764,-0.696c0.392,0.306 -1.447,4.355 -3.114,6.932c-0.752,1.083 -1.936,2.397 -2.652,2.91c-0.72,0.478 -1.523,1.143 -1.768,1.456c-0.245,0.313 -0.843,0.635 -1.361,0.734c-0.524,0.064 -1.492,0.254 -2.15,0.37c-1.796,0.362 -5.31,-1.154 -8.299,-3.584c-1.38,-1.14 -3.581,-2.923 -4.917,-3.998c-1.731,-1.416 -2.388,-2.15 -2.308,-2.655c0.142,-1.151 -2.081,-1.09 -4.912,0.072c-0.742,0.303 -0.735,0.94 -0.002,0.85c0.802,-0.099 0.709,0.585 -0.142,0.867c-0.44,0.16 -2.948,0.787 -5.595,1.43c-7.396,1.758 -11.521,3.043 -13.276,4.038c-0.694,0.403 -1.405,0.668 -1.627,0.589c-0.187,-0.083 -0.558,0.068 -0.842,0.351c-0.406,0.439 -0.55,0.422 -0.954,0.011c-0.326,-0.349 -0.762,-0.437 -1.233,-0.238c-0.846,0.316 -0.938,0.151 -0.539,-0.925c0.355,-0.858 -0.181,-0.898 -0.714,-0.054c-0.503,0.805 -1.174,0.817 -2.472,0.056c-1.48,-0.81 -1.509,-1.337 -0.148,-2.071c0.563,-0.317 1.192,-0.677 1.323,-0.764c0.131,-0.087 0.217,0.044 0.208,0.257c-0.084,0.754 1.855,0.976 2.981,0.343c1.156,-0.674 1.14,-1.38 -0.013,-2.123c-0.688,-0.411 -0.931,-0.948 -1.288,-2.993c-0.543,-2.978 -0.511,-5.318 0.044,-6.272c0.416,-0.652 0.424,-0.583 0.404,0.694c-0.007,1.099 0.119,1.543 0.58,1.841c0.54,0.358 0.601,0.28 0.519,-0.383c-0.111,-0.906 0.627,-3.263 1.01,-3.31c0.175,-0.021 0.204,0.506 0.102,1.121Z"
             style="fill:#ff0;fill-rule:nonzero;stroke:#505050;stroke-width:1px;"
             id="path3851" /></g><g
           id="g3857"><path
             d="M226.957,52.463c0.301,-0.143 1.313,-0.551 2.198,-0.836c0.921,-0.29 2.5,-0.98 3.525,-1.566c1.026,-0.586 4.207,-2.357 7.022,-3.942c2.819,-1.55 5.197,-2.939 5.293,-3.022c0.249,-0.279 -4.473,0.762 -6.205,1.364c-0.85,0.281 -2.281,0.74 -3.24,0.999c-0.929,0.221 -1.431,0.459 -1.069,0.521c1.111,0.111 0.534,0.89 -0.94,1.284c-0.789,0.203 -1.623,0.624 -1.828,0.968c-0.171,0.339 -0.97,0.756 -1.724,0.955c-0.755,0.199 -1.509,0.398 -1.71,0.493c-0.632,0.325 -0.696,-0.481 -0.076,-0.911c2.444,-1.716 3.894,-3.169 6.36,-6.446c1.591,-2.036 3.011,-3.733 3.185,-3.754c0.175,-0.021 0.293,-0.213 0.271,-0.387c-0.077,-0.628 -0.496,-0.293 -4.225,3.068c-8.158,7.374 -12.6,9.548 -20.843,10.17c-2.528,0.169 -5.361,0.163 -6.947,-0.067c-2.994,-0.447 -3.665,-0.435 -2.838,-0.041c0.301,0.14 0.95,0.237 1.369,0.186c0.523,-0.064 0.788,0.08 0.714,0.337c-0.066,0.327 -0.646,0.504 -1.771,0.572c-1.129,0.032 -1.57,0.192 -1.4,0.419c0.165,0.192 0.535,0.324 0.814,0.29c0.314,-0.039 0.519,0.184 0.492,0.541c-0.014,0.462 0.604,0.882 2.054,1.447c2.081,0.807 4.323,2.054 7.627,4.162c3.538,2.291 8.728,2.752 13.038,1.231l2.002,-0.706l-2.293,0.069c-3.953,0.096 -7.264,-0.913 -10.301,-3.16c-1.675,-1.246 -4.079,-2.367 -4.354,-2.015c-0.096,0.083 0.113,0.341 0.456,0.546c0.653,0.416 0.826,0.961 0.303,1.025c-0.209,0.026 -1.028,-0.299 -1.855,-0.693c-1.171,-0.599 -1.536,-0.979 -1.631,-1.747c-0.111,-0.906 -0.045,-0.95 1.232,-0.93c0.71,0.019 1.904,0.227 2.609,0.494c0.701,0.233 2.144,0.445 3.172,0.46c1.029,0.016 2.21,0.119 2.684,0.237c0.658,0.167 0.562,0.25 -0.659,0.4c-1.6,0.232 -1.923,0.767 -0.59,0.957c2.087,0.275 7.63,-1.007 8.015,-1.904c0.14,-0.301 -0.143,-0.301 -0.893,-0.068c-0.781,0.273 -1.138,0.246 -1.36,-0.116c-0.187,-0.366 -0.369,-0.415 -0.649,-0.097c-0.28,0.317 -0.463,0.269 -0.688,-0.128c-0.369,-0.698 -0.382,-0.803 0.071,-0.858c0.175,-0.022 1.318,-0.8 2.479,-1.721c3.423,-2.686 3.937,-2.253 0.827,0.677l-0.729,0.692l1.155,-0.107c0.767,-0.094 1.137,0.038 1.185,0.421c0.047,0.384 0.234,0.467 0.666,0.237Z"
             style="fill:#ff0;fill-rule:nonzero;stroke:#505050;stroke-width:1px;"
             id="path3855" /></g><g
           id="g3861"><path
             d="M143.712,51.497c0.017,0.139 -0.69,0.722 -1.62,1.226c-0.89,0.534 -1.636,1.086 -1.615,1.26c0.081,0.663 0.574,0.638 1.835,-0.048c1.623,-0.908 2.124,-0.58 0.97,0.695c-1.061,1.157 -2.238,1.372 -3.152,0.564c-0.674,-0.59 -0.683,-0.66 -0.158,-1.574c0.289,-0.531 0.621,-0.997 0.796,-1.018c0.139,-0.017 0.214,-0.274 0.18,-0.553c-0.048,-0.384 0.319,-0.57 1.33,-0.695c0.768,-0.094 1.413,-0.031 1.434,0.143Z"
             style="fill:#ff0;fill-rule:nonzero;stroke:#505050;stroke-width:1px;"
             id="path3859" /></g><g
           id="g3865"><path
             d="M137.397,55.423c0.1,0.236 -0.272,0.954 -0.827,1.624c-0.555,0.67 -1.11,1.057 -1.205,0.856c-0.287,-0.602 -0.823,-0.359 -1.571,0.759c-0.385,0.614 -0.773,0.91 -0.803,0.666c-0.073,-0.593 3.108,-4.383 3.679,-4.347c0.283,0.001 0.592,0.211 0.727,0.442Z"
             style="fill:#ff0;fill-rule:nonzero;stroke:#505050;stroke-width:1px;"
             id="path3863" /></g><g
           id="g3869"><path
             d="M202.497,316.032c5.468,-6.796 10.537,-11.065 14.502,-12.224c1.299,-0.372 2.455,-0.762 2.617,-0.888c0.126,-0.122 0.154,-1.046 0.03,-2.057c-0.278,-2.267 -1.104,-3.228 -3.539,-4.026c-0.923,-0.312 -1.725,-0.496 -1.786,-0.418c-0.061,0.078 0.121,0.693 0.416,1.365c0.681,1.509 0.567,3.471 -0.272,4.423c-0.437,0.479 -1.213,0.786 -2.604,0.993c-1.286,0.193 -2.307,0.531 -2.883,1.026c-1.218,1.035 -1.666,0.559 -0.574,-0.637c0.721,-0.761 1.258,-1.004 2.897,-1.206c2.127,-0.261 3.096,-1.017 2.942,-2.273c-0.107,-0.872 -2.557,-4.678 -4.235,-6.525c-0.743,-0.864 -1.616,-2.209 -1.92,-2.95c-2.692,-6.644 -8.916,-18.413 -11.997,-22.743c-1.16,-1.663 -1.439,-1.629 -0.488,0.06c0.811,1.423 0.829,1.562 0.375,1.618c-0.174,0.021 -0.618,-0.42 -1,-0.939c-0.387,-0.555 -0.826,-0.961 -1.001,-0.94c-0.174,0.022 0.856,1.488 2.347,3.252c1.491,1.765 2.708,3.314 2.717,3.384c0.081,0.663 -0.859,-0.071 -2.272,-1.774c-1.991,-2.376 -3.948,-4.189 -3.471,-3.185c0.187,0.366 0.482,1.038 0.611,1.518c0.234,0.75 0.082,0.663 -1.341,-0.543c-2.458,-2.141 -1.842,-0.872 0.894,1.802c2.862,2.834 4.901,5.31 4.999,6.112c0.107,0.872 -0.407,0.723 -1.037,-0.368c-0.712,-1.187 -4.399,-4.983 -6.849,-7.054c-0.948,-0.804 -1.683,-1.599 -1.6,-1.786c0.083,-0.187 0.616,-0.465 1.192,-0.677c2.996,-0.97 6.018,-5.767 5.628,-8.94c-0.055,-0.454 0.029,-1.208 0.191,-1.617c0.163,-0.409 0.119,-2.493 -0.068,-4.594c-0.243,-2.271 -0.244,-4.006 -0.03,-4.28c0.245,-0.313 0.448,0.476 0.782,3.196c0.248,2.023 0.615,3.855 0.784,4.082c0.457,0.545 0.909,-2.98 0.48,-3.883c-0.191,-0.401 -0.155,-1.255 0.108,-1.996c0.36,-1.106 0.344,-1.529 -0.254,-3.225c-0.827,-2.413 -0.865,-3.01 -0.288,-3.789c0.28,-0.317 0.459,-0.87 0.421,-1.184c-0.137,-1.116 -1.598,-4.654 -2.488,-6.138c-0.934,-1.549 -1.328,-3.023 -0.839,-3.083c0.174,-0.022 1.343,1.428 2.586,3.187c1.464,2.121 3.182,3.999 4.796,5.323c1.375,1.106 2.488,2.102 2.497,2.172c0.06,0.488 -1.016,0.089 -2.108,-0.732c-1.601,-1.22 -1.59,-0.549 0.002,0.884c1.392,1.246 1.544,1.616 0.529,1.422c-0.436,-0.088 -0.706,0.016 -0.68,0.226c0.072,0.592 2.709,2.747 2.989,2.429c0.122,-0.156 -0.025,-0.492 -0.269,-0.745c-0.518,-0.468 -0.398,-1.226 0.16,-1.295c0.139,-0.017 0.905,0.739 1.657,1.673c3.125,3.83 5.489,5.203 8.806,5.115c2.253,-0.1 3.379,-0.734 2.54,-1.516c-0.244,-0.253 -0.688,-0.411 -0.932,-0.381c-0.279,0.034 -0.785,-0.045 -1.155,-0.177c-0.339,-0.171 -1.398,-0.43 -2.348,-0.668c-1.855,-0.409 -2.739,-0.973 -2.428,-1.613c0.114,-0.227 0.693,-0.121 1.564,0.339c0.757,0.402 1.711,0.675 2.095,0.628c0.384,-0.047 1.809,0.025 3.142,0.216c2.187,0.227 2.641,0.171 4.019,-0.423c1.104,-0.525 1.777,-1.103 2.201,-1.97c0.661,-1.249 0.782,-2.857 0.202,-2.396c-0.158,0.161 -0.384,0.047 -0.514,-0.15c-0.148,-0.336 -0.322,-0.314 -0.728,0.125c-0.533,0.561 -3.272,1.039 -4.021,0.706c-0.788,-0.363 -0.011,-0.954 1.166,-0.886c0.859,0.071 1.574,-0.158 2.486,-0.801c1.637,-1.086 1.893,-2.746 0.724,-4.196c-0.882,-1.131 -2.627,-2.651 -2.94,-2.613c-0.14,0.017 -0.081,0.789 0.144,1.753c0.578,2.69 0.162,3.626 -2.308,4.85c-2.334,1.172 -2.086,1.177 -7.6,-0.483c-2.94,-0.878 -14.707,-9.063 -13.739,-9.536c0.236,-0.1 0.232,-0.418 -0.046,-0.95c-0.225,-0.397 -0.351,-0.842 -0.255,-0.925c0.582,-0.744 -6.606,-12.571 -7.548,-12.455c-0.279,0.034 -0.644,-0.346 -0.852,-0.887c-0.416,-1.082 -3.683,-6.062 -4.101,-6.294c-0.187,-0.083 -0.726,-0.725 -1.208,-1.48c-0.517,-0.751 -2.935,-3.144 -5.401,-5.355c-2.467,-2.211 -5.66,-5.147 -7.104,-6.527c-1.444,-1.381 -3.771,-3.608 -5.206,-4.919c-2.875,-2.656 -4.293,-4.111 -7.906,-8.163c-1.352,-1.498 -3.348,-3.625 -4.435,-4.695c-2.257,-2.237 -2.67,-2.717 -4.217,-5.218c-0.651,-0.982 -1.659,-2.558 -2.263,-3.439c-1.859,-2.746 -3.811,-7.109 -5.105,-11.588c-1.029,-3.484 -1.339,-5.146 -1.64,-9.038c-0.404,-5.014 -0.394,-11.564 -0.001,-13.843c0.124,-0.723 0.074,-1.708 -0.13,-2.214l-0.355,-0.877l-1.56,1.714c-5.378,5.793 -6.769,8.018 -6.491,10.285c0.107,0.872 -0.006,1.098 -0.473,1.049c-1.285,-0.09 -2.667,-3.85 -2.131,-5.828c0.167,-0.657 0.202,-0.662 0.689,-0.155c0.448,0.476 0.631,0.241 1.682,-1.87c0.652,-1.32 1.96,-3.357 2.947,-4.54c0.953,-1.179 2.576,-3.821 3.596,-5.893c1.952,-3.993 4.674,-8.646 4.909,-8.463c0.078,0.062 -0.606,1.703 -1.573,3.628c-0.963,1.959 -2.023,4.284 -2.365,5.246c-0.346,0.928 -1.729,3.222 -3.093,5.089c-1.364,1.866 -2.37,3.477 -2.252,3.569c0.117,0.091 1.03,-0.552 2.056,-1.421c1.314,-1.117 2.105,-2.17 2.679,-3.551c0.469,-1.084 1.221,-2.168 1.679,-2.472c0.528,-0.312 1.836,-2.349 3.294,-5.183c2.976,-5.747 4.33,-9.135 4.584,-11.397c0.239,-1.799 0.776,-2.325 0.952,-0.895c0.209,1.709 -1.738,7.187 -3.978,11.144c-0.814,1.446 -0.989,2.034 -0.637,2.309c0.235,0.183 0.605,0.315 0.815,0.289c0.558,-0.068 1.847,-1.961 2.19,-3.207c0.176,-0.588 0.565,-1.167 0.901,-1.314c0.676,-0.26 2.803,-4.274 3.396,-6.365c0.22,-0.806 0.338,-3.015 0.277,-4.955c-0.177,-4.899 0.456,-5.508 0.856,-0.813c0.293,3.54 0.332,3.57 1.091,3.406c0.902,-0.146 1.122,-0.952 1.295,-4.443c0.295,-5.382 0.285,-8.921 0.055,-9.07c-0.157,-0.122 -0.636,-0.276 -1.067,-0.329c-0.689,-0.128 -0.846,0.033 -0.922,0.857c-0.075,0.54 -0.435,1.646 -0.799,2.434c-0.897,1.916 -1.925,5.37 -1.826,6.172c0.107,0.872 -0.804,0.949 -1.399,0.137c-0.257,-0.358 -0.609,-0.633 -0.819,-0.608c-0.837,0.103 -2.52,2.54 -4.674,6.911c-0.057,0.114 -0.279,0.035 -0.553,-0.18c-0.548,-0.428 0.502,-2.539 2.994,-5.89c1.425,-1.945 1.705,-2.546 1.502,-3.335c-0.263,-0.995 0.052,-1.6 0.512,-1.019c0.422,0.55 0.919,0.276 0.834,-0.421c-0.047,-0.384 0.176,-2.606 0.455,-4.942c0.656,-4.753 0.653,-9.391 0.073,-15.267c-0.231,-2.167 -0.323,-4.067 -0.196,-4.189c0.459,-0.588 1.014,0.76 1.322,3.272c0.176,1.43 0.681,3.527 1.102,4.644c0.42,1.116 0.874,2.795 1.029,3.768c0.115,0.941 0.392,2.04 0.578,2.407c0.317,0.563 0.409,0.445 0.612,-0.783c0.288,-1.983 0.073,-3.443 -0.7,-4.552c-0.821,-1.209 -0.937,-2.151 -0.274,-2.232c0.662,-0.082 0.624,-0.395 -0.427,-2.32c-0.46,-0.864 -1.154,-2.478 -1.57,-3.56c-0.558,-1.666 -0.605,-2.05 -0.252,-2.341c0.354,-0.291 0.32,-0.57 -0.222,-1.813l-0.673,-1.44l-0.002,1.133c0.049,1.552 -0.483,1.546 -1.103,-0.042c-0.299,-0.706 -0.79,-1.531 -1.151,-1.876c-0.609,-0.634 -0.609,-0.634 -1.138,0.246c-0.59,0.957 -0.961,0.826 -1.703,-0.606c-0.36,-0.628 -0.395,-0.624 -0.606,0.252c-0.207,0.91 -0.242,0.915 -0.816,0.277c-0.326,-0.349 -0.848,-0.568 -1.119,-0.464c-0.305,0.108 -0.514,-0.15 -0.609,-0.634c-0.055,-0.453 -0.241,-1.103 -0.358,-1.478c-0.117,-0.375 -0.433,-1.505 -0.701,-2.534c-0.522,-2.237 0.093,-2.419 1.125,-0.35c0.339,0.737 0.852,1.453 1.156,1.628c0.301,0.14 0.749,0.616 1.044,1.005c0.265,0.427 0.796,0.716 1.18,0.669c0.349,-0.043 0.784,0.045 0.915,0.242c0.126,0.161 0.74,0.263 1.333,0.19c0.732,-0.09 1.055,-0.342 1.135,-0.847c0.057,-0.397 0.333,-0.749 0.612,-0.784c0.453,-0.055 0.44,-0.16 -0.142,-0.867c-0.744,-0.865 -0.968,-1.828 -0.48,-1.888c0.175,-0.022 0.444,0.157 0.54,0.358c0.139,0.266 0.235,0.184 0.188,-0.2c-0.038,-0.597 0.625,-0.962 0.702,-0.334c0.056,0.453 1.976,1.103 2.513,0.86c0.231,-0.135 0.628,-0.077 0.893,0.067c0.344,0.206 1.487,-0.005 3.698,-0.737c1.767,-0.607 3.79,-1.138 4.457,-1.185c0.977,-0.12 0.846,-0.033 -0.655,0.435c-1.605,0.48 -4.309,1.52 -6.054,2.301c-0.371,0.152 -0.354,0.291 0.046,0.667c0.757,0.686 2.623,0.315 7.291,-1.462c4.358,-1.703 7.676,-2.358 11.337,-2.241c1.525,0.025 2.932,0.525 6.877,2.377c2.743,1.292 5.403,2.487 5.952,2.632c0.997,0.338 1.422,1.206 0.62,1.305c-0.279,0.034 -2.286,-0.746 -4.498,-1.749c-2.212,-1.003 -4.564,-1.989 -5.195,-2.23l-1.18,-0.386l1.201,0.844c1.662,1.141 2.357,2.189 1.911,2.881c-0.42,0.618 -1.034,0.516 -3.185,-0.565c-0.901,-0.421 -2.073,-0.737 -2.631,-0.668c-0.558,0.068 -2.144,-0.162 -3.494,-0.492c-3.799,-0.95 -5.054,-0.795 -1.853,0.192c2.944,0.913 5.509,1.908 6.132,2.363c0.744,0.581 -1.257,0.437 -3.033,-0.194c-1.481,-0.526 -1.838,-0.553 -1.787,-0.135c0.107,0.872 -1.492,0.821 -4.411,-0.166c-4.024,-1.347 -4.539,-0.93 -0.676,0.543c1.968,0.75 3.405,1.494 3.517,1.834c0.282,0.85 -0.394,0.827 -1.843,-0.022c-1.907,-1.111 -3.911,-1.573 -5.311,-1.153c-0.959,0.259 -1.425,0.21 -2.313,-0.389c-1.58,-1.045 -2.365,-0.807 -1.125,0.351c0.761,0.721 7.898,3.774 8.408,3.605c0.27,-0.104 1.673,0.078 3.163,0.391c3.237,0.7 9.811,0.317 10.51,-0.618c0.28,-0.318 1.305,-0.621 2.874,-0.813c2.058,-0.253 2.498,-0.413 2.744,-1.01c0.158,-0.444 0.777,-0.874 1.702,-1.129c3.973,-1.09 4.095,-1.247 1.539,-2.172c-0.963,-0.342 -3.383,-1.886 -5.415,-3.442c-3.359,-2.561 -4.112,-2.929 -8.92,-4.604c-2.853,-1.031 -6.015,-1.988 -6.96,-2.19c-2.035,-0.423 -6.015,0.03 -9.678,1.046c-4.139,1.181 -9.366,1.575 -9.468,0.738c-0.026,-0.209 0.829,-0.456 1.91,-0.589c1.744,-0.214 1.91,-0.305 1.47,-0.711c-0.282,-0.284 -0.722,-0.407 -0.954,-0.272c-0.231,0.134 -0.553,0.103 -0.719,-0.089c-0.126,-0.162 -0.518,-0.184 -0.854,-0.037c-0.401,0.191 -0.95,0.046 -1.42,-0.321c-0.47,-0.367 -1.206,-0.596 -1.694,-0.536c-0.489,0.06 -0.894,-0.067 -0.915,-0.241c-0.026,-0.21 -0.322,-0.315 -0.636,-0.276c-0.353,0.008 -1.211,-0.347 -1.942,-0.824c-0.692,-0.446 -1.435,-1.311 -1.648,-1.886l-0.342,-1.056l-1.921,1.652c-1.057,0.909 -2.881,2.195 -4.077,2.837c-1.955,1.09 -2.4,1.216 -4.976,1.284c-4.023,0.105 -9.8,0.92 -11.697,1.613c-1.928,0.733 -3.178,2.09 -3.277,3.589c-0.067,0.61 -0.242,1.198 -0.404,1.324c-0.161,0.126 -1.98,0.88 -4.074,1.704c-4.903,1.876 -5.562,2.276 -5.826,3.3c-0.308,1.241 -1.219,1.601 -2.36,0.962c-1.141,-0.639 -3.842,-1.015 -5.621,-0.797c-1.499,0.184 -3.473,1.701 -4.366,3.369c-0.551,0.988 -0.551,1.271 -0.138,1.468c0.675,0.307 1.478,-0.075 2.884,-1.31c0.642,-0.539 1.432,-1.025 1.781,-1.068c0.906,-0.112 1.91,1.146 1.617,1.925c-0.347,0.928 -3.234,1.92 -5.501,1.915c-1.769,0.005 -1.939,0.061 -2.757,1.188l-0.883,1.171l1.194,0.49c1.898,0.759 2.512,1.143 2.298,1.418c-0.127,0.121 -0.842,0.067 -1.578,-0.161c-1.72,-0.461 -1.943,-0.257 -0.602,0.57c0.879,0.529 1.38,0.574 3.525,0.169c2.773,-0.482 4.471,-1.363 4.224,-2.218c-0.117,-0.375 0.206,-0.627 1.135,-0.848c0.72,-0.194 1.487,-0.288 1.678,-0.17c0.223,0.079 0.693,0.162 1.081,0.15c0.854,0.037 1.011,0.159 2.123,1.722c0.765,1.039 0.826,1.244 0.394,1.474c-0.262,0.174 -0.472,0.483 -0.442,0.727c0.094,0.767 -0.608,1.101 -1.2,0.608c-0.313,-0.245 -0.652,-0.982 -0.772,-1.676c-0.198,-1.321 -1.121,-1.916 -2.62,-1.731c-0.837,0.102 -0.83,0.739 -0.024,0.958c0.841,0.216 1.509,1.621 1.028,2.317c-0.923,1.423 -1.923,2.502 -3.071,3.245c-1.249,0.79 -1.603,1.365 -0.836,1.271c0.558,-0.069 2.519,-1.69 2.764,-2.287c0.145,-0.265 0.734,-0.656 1.38,-0.877l1.155,-0.39l-0.094,1.251c-0.081,1.072 0.058,1.338 0.777,1.71c0.457,0.262 1.045,0.438 1.289,0.408c0.244,-0.03 1.244,-1.109 2.219,-2.397c1.408,-1.801 1.949,-2.292 2.563,-2.191c0.972,0.129 1.058,0.543 0.211,1.143c-1.759,1.242 0.66,1.335 4.407,0.131c2.555,-0.809 3.209,-0.677 5.633,0.902c2.08,1.373 6.957,3.606 7.655,3.521c0.244,-0.03 0.575,0.071 0.805,0.219c0.201,0.188 2.091,0.593 4.183,0.903c2.745,0.442 4.562,0.537 6.445,0.306c2.511,-0.308 5.076,-1.331 4.999,-1.959c-0.021,-0.175 0.289,-0.531 0.712,-0.831c1.729,-1.204 2.632,-7.404 1.797,-12.47c-0.271,-1.631 -0.222,-2.097 0.197,-2.148c1.495,-0.219 2.412,2.925 2.535,8.539c0.083,3.849 -0.682,7.129 -2.081,9c-1.18,1.632 -1.428,1.344 -0.5,-0.611c0.928,-1.955 0.986,-2.352 0.323,-2.27c-0.244,0.03 -0.904,0.996 -1.434,2.158c-1.616,3.562 -3.177,5.843 -4.399,6.559c-1.654,0.947 -2.111,0.684 -0.758,-0.403c1.031,-0.834 1.766,-2.057 1.208,-1.989c-0.105,0.013 -1.292,0.725 -2.597,1.629c-1.707,1.095 -2.401,1.782 -2.407,2.313c-0.009,0.497 -0.289,0.815 -0.873,0.957c-3.236,0.752 -3.142,1.519 0.137,1.116c3.836,-0.471 10.102,-3.647 12.029,-6.114c0.459,-0.588 0.594,-0.64 0.646,-0.221c0.158,1.29 -2.527,3.355 -7.116,5.476c-2.217,0.98 -3.516,1.352 -5.783,1.63c-2.62,0.287 -6.51,1.189 -8.02,1.87c-0.336,0.148 -0.476,0.448 -0.298,0.745c0.139,0.266 0.09,0.732 -0.124,1.006c-0.354,0.575 -0.86,0.779 -3.874,1.609c-1.609,0.445 -1.64,0.484 -0.633,0.609c3.407,0.36 13.978,-2.354 16.947,-4.418c0.82,-0.525 1.025,-0.586 1.072,-0.202c0.086,0.697 -1.245,1.392 -5.48,2.939c-3.084,1.122 -4.842,1.514 -10.161,2.309c-7.411,1.052 -8.685,1.35 -8.599,2.047c0.09,0.733 -1.001,1.362 -2.71,1.572c-0.837,0.103 -2.342,0.535 -3.354,0.943c-1.008,0.442 -2.596,1.062 -3.538,1.461c-0.912,0.36 -2.692,1.428 -3.915,2.428c-2.488,1.934 -3.626,2.18 -2.803,0.521c0.735,-1.506 0.216,-1.407 -1.557,0.298l-1.616,1.543l1.234,-0.045c0.775,-0.024 1.289,0.125 1.328,0.439c0.073,0.593 -3.529,5.283 -4.581,5.943c-0.462,0.27 -1.195,0.643 -1.671,0.807c-1.186,0.429 -1.946,1.16 -1.323,1.331c0.218,0.044 0.487,0.507 0.542,0.96c0.232,1.884 1.629,0.862 9.181,-6.827c2.739,-2.779 5.15,-5.057 5.324,-5.079c0.698,-0.086 -0.146,1.116 -2.317,3.329c-9.645,9.964 -10.532,10.817 -11.002,10.45c-0.352,-0.276 -0.494,0.591 -0.432,2.531c0.073,2.328 -0.25,2.58 -0.52,0.382c-0.167,-1.36 -0.362,-1.796 -0.711,-1.753c-0.488,0.06 -3.048,2.852 -5.47,5.911l-1.04,1.331l0.879,0.53l0.875,0.494l-0.864,0.744c-0.481,0.413 -1.01,1.292 -1.207,1.989c-0.202,0.662 -0.526,1.197 -0.775,1.192c-0.361,-0.062 -1.548,4.403 -1.432,5.345c0.06,0.488 0.606,-0.251 1.145,-1.628c0.737,-1.789 2.588,-5.451 3.314,-6.46c0.599,-0.888 4.067,-4.075 4.45,-4.122c0.698,-0.086 0.033,0.845 -1.622,2.358c-1.214,1.07 -2.307,2.549 -2.994,3.873c-2.832,5.764 -3.394,7.533 -2.598,8.249c0.287,0.319 0.251,0.89 -0.092,2.136c-0.43,1.398 -0.453,2.073 -0.034,3.757c0.799,3.335 1.625,2.278 1.66,-2.045c0.003,-1.417 0.16,-3.312 0.367,-4.223c0.48,-2.148 2.122,-5.783 3.433,-7.502c1.189,-1.562 1.115,-1.305 -0.742,2.605c-0.731,1.541 -1.511,3.549 -1.683,4.455c-0.511,2.187 -0.469,6.855 0.054,7.074c0.226,0.113 0.365,0.663 0.324,1.199c-0.352,5.495 -0.379,5.853 0.013,6.158c0.313,0.245 0.614,0.102 1.051,-0.376c0.529,-0.596 0.635,-1.459 0.568,-4.602c-0.079,-3.53 0.133,-4.972 0.646,-4.257c0.122,0.127 0.237,1.352 0.229,2.734c0.03,4.28 0.168,4.829 1.023,4.583c0.685,-0.191 0.768,-0.378 0.522,-1.516c-0.155,-0.689 -0.123,-1.295 0.051,-1.316c0.174,-0.021 0.303,-0.993 0.301,-2.161c-0.024,-3.077 0.633,-2.344 1.061,1.144c0.347,2.825 0.395,2.925 1.162,2.831c1.325,-0.162 1.653,-0.663 1.102,-1.693c-1.107,-2.094 -0.17,-2.245 1.042,-0.163c0.578,0.956 1.099,1.458 1.483,1.411c0.349,-0.043 1.024,-0.02 1.525,0.025c0.65,0.097 -0.19,-0.685 -3.044,-2.883c-4.26,-3.265 -5.068,-4.37 -5.971,-8.26c-0.648,-2.681 0.153,-1.93 1.162,1.097c1.043,3.023 2.013,4.284 4.754,6.143c1.924,1.25 2.151,1.364 1.886,0.653c-0.199,-0.471 -0.741,-1.998 -1.16,-3.398c-0.455,-1.395 -1.014,-3.061 -1.191,-3.641c-0.312,-0.812 -0.285,-1.169 0.081,-1.356c0.363,-0.221 0.325,-0.818 -0.236,-3.369c-0.354,-1.727 -0.612,-3.253 -0.486,-3.375c0.429,-0.548 0.958,0.591 1.627,3.447c0.428,1.753 1,3.24 1.313,3.485c0.47,0.367 0.511,-0.169 0.253,-3.996c-0.227,-3.866 -0.378,-4.521 -0.935,-5.019c-0.591,-0.493 -0.608,-0.633 -0.198,-1.037c0.249,-0.279 0.694,-0.404 0.92,-0.29c0.336,0.135 0.358,0.026 0.089,-0.436c-0.86,-1.523 -1.3,-3.664 -1.131,-5.172c0.221,-1.655 1.877,-5.47 2.816,-6.47c0.913,-0.927 0.719,0.088 -0.458,2.605c-0.986,2.068 -1.627,4.342 -1.208,4.291c0.104,-0.013 0.537,-0.81 1.015,-1.824c1.278,-2.565 5.95,-8.626 8.225,-10.569c4.677,-4.009 11.607,-7.833 20.933,-11.457c3.342,-1.33 3.307,-1.326 3.483,-0.463c0.087,0.415 -0.268,0.989 -0.979,1.537c-0.577,0.495 -1.175,1.1 -1.289,1.326c-0.144,0.266 -1.506,1.283 -3.082,2.29c-3.771,2.446 -11.696,8.836 -13.011,10.52c-0.761,1.013 -1.002,1.645 -0.89,2.552c0.188,1.534 -0.675,1.428 -1.011,-0.159c-0.225,-0.964 -0.028,-1.378 1.384,-3.144c0.891,-1.101 2.669,-2.771 3.904,-3.666c1.266,-0.934 3.309,-2.46 4.536,-3.424c1.262,-0.97 3.672,-2.682 5.374,-3.811c1.702,-1.13 3.549,-2.525 4.051,-3.047c0.909,-0.961 0.939,-1 0.089,-0.719c-2.312,0.78 -5.662,2.041 -6.26,2.362c-0.366,0.187 -2.404,1.18 -4.511,2.183c-4.721,2.208 -8.369,4.497 -11.505,7.218c-2.083,1.778 -4.818,4.876 -3.888,4.372c0.864,-0.46 7.228,-4.853 7.508,-5.17c0.397,-0.509 0.824,-0.491 0.893,0.067c0.034,0.279 -1.149,1.31 -2.62,2.305c-3.265,2.241 -6.85,5.337 -8.157,7.09c-1.154,1.558 -3.346,5.332 -3.299,5.716c0.077,0.628 0.579,0.106 0.974,-1.005c0.233,-0.701 0.91,-1.528 1.7,-2.014c1.405,-0.952 5.919,-1.966 5.991,-1.373c0.052,0.419 -0.742,0.87 -1.859,1.007c-2.197,0.27 -5.411,3.214 -5.218,4.783c0.055,0.453 0.394,1.191 0.763,1.606c0.913,1.091 0.654,1.866 -0.671,2.029c-1.36,0.167 -1.606,1.047 -1.363,5.336c0.181,2.917 0.268,3.331 1.081,4.187c0.456,0.546 0.873,1.061 0.891,1.2c0.017,0.14 -0.746,0.269 -1.74,0.249l-1.774,-0.03l0.415,1.649c0.885,3.75 0.976,3.916 2.996,5.367c2.907,2.051 4.521,5.11 3.364,6.349c-0.376,0.4 -0.524,0.348 -0.893,-0.35c-0.326,-0.633 -0.892,-0.918 -1.937,-1.072c-0.793,-0.116 -1.46,-0.352 -1.477,-0.492c-0.073,-0.593 -2.961,-1.052 -5.132,-0.857c-1.713,0.175 -2.8,0.557 -4.759,1.611c-1.396,0.738 -2.972,1.746 -3.478,2.233c-0.542,0.491 -1.061,0.874 -1.201,0.891c-0.105,0.013 -1.554,0.899 -3.229,1.954c-4.727,3.023 -11.268,6.553 -15.613,8.361c-5.253,2.202 -5.799,2.659 -6.694,5.459c-0.478,1.581 -1.065,2.574 -1.833,3.235c-1.122,0.952 -2.873,4.282 -2.753,5.259c0.171,1.395 -1.407,7.572 -3.042,11.844c-0.592,1.524 -3.45,7.362 -4.08,8.289c-0.717,1.08 -1.66,3.496 -1.591,4.055c0.03,0.244 -0.128,0.688 -0.381,0.931c-0.249,0.279 -0.361,1.39 -0.29,2.833c0.105,1.722 -0.063,2.946 -0.703,4.653c-0.443,1.294 -0.707,2.317 -0.532,2.296c0.139,-0.017 0.952,-0.896 1.774,-1.988c0.826,-1.057 1.669,-1.975 1.913,-2.005c0.628,-0.077 1.166,0.848 1.68,3.015c0.346,1.374 0.854,2.338 1.71,3.26c0.687,0.694 1.327,1.288 1.431,1.276c0.245,-0.03 -0.968,-5.581 -1.433,-6.48c-0.23,-0.432 -0.268,-0.746 -0.059,-0.772c0.209,-0.026 0.28,-0.601 0.199,-1.263c-0.103,-0.837 0.025,-1.243 0.373,-1.285c0.349,-0.043 0.566,0.284 0.639,0.877c0.069,0.558 0.537,1.492 1.002,2.107c0.5,0.612 1.291,1.86 1.759,2.794c0.473,0.968 0.804,1.353 0.792,0.965c-0.013,-0.388 -0.02,-1.025 0.007,-1.382c0.023,-0.392 -0.427,-2.036 -0.986,-3.702c-1.507,-4.489 -1.348,-7.234 0.893,-13.776c0.496,-1.441 1.14,-3.113 1.46,-3.684c0.284,-0.566 0.696,-1.537 0.907,-2.129c0.534,-1.411 4.426,-7.199 5.789,-8.5c0.602,-0.569 1.353,-1.086 1.737,-1.133c0.349,-0.043 1.252,-0.473 1.981,-0.881c2.007,-1.238 6.033,-2.759 13.182,-5.088c6.538,-2.113 8.989,-2.626 17.246,-3.711c2.507,-0.343 4.922,-0.852 5.455,-1.13c0.663,-0.364 1.039,-1.048 1.452,-2.585c0.801,-3.285 1.937,-4.699 4.341,-5.596c1.866,-0.654 3.345,-1.012 10.683,-2.374c1.901,-0.375 2.913,-0.782 4.611,-1.947c1.991,-1.377 2.571,-1.554 2.656,-0.857c0.043,0.349 -4.474,3.346 -5.172,3.432c-0.418,0.052 -0.406,0.156 -0.005,0.532c0.8,0.751 0.202,1.072 -1.03,0.551c-1.415,-0.57 -3.203,-0.421 -3.117,0.277c0.034,0.279 0.251,0.606 0.439,0.689c0.561,0.25 0.525,0.821 -0.068,0.894c-0.279,0.034 -0.701,-0.233 -0.957,-0.591c-0.517,-0.751 -2.142,-1.295 -2.622,-0.882c-0.162,0.126 -0.123,0.44 0.133,0.798c0.687,0.978 0.072,1.16 -1.06,0.307c-1.288,-0.974 -2.491,-0.685 -1.617,0.376c0.799,1.035 0.162,1.325 -0.904,0.43c-0.635,-0.56 -1.188,-0.74 -1.659,-0.54c-0.371,0.152 -0.663,0.364 -0.655,0.434c0.013,0.105 0.678,0.908 1.491,1.764c1.922,2.101 1.477,2.51 -0.672,0.579c-0.953,-0.839 -1.867,-1.364 -2.063,-1.234c-0.515,0.417 -0.394,0.827 0.771,2.242c0.582,0.707 1.06,1.427 1.086,1.637c0.09,0.732 -0.694,0.403 -1.572,-0.692c-1.078,-1.284 -2.202,-1.5 -1.346,-0.295c1.251,1.829 2.896,3.114 3.802,3.002c0.698,-0.085 0.815,0.006 0.54,0.359c-0.581,0.744 -0.368,1.036 0.748,0.899c1.325,-0.162 4.087,-1.599 5.188,-2.726c0.568,-0.565 1.004,-0.76 1.239,-0.577c0.274,0.215 0.143,0.585 -0.329,1.068c-0.594,0.639 -0.638,0.857 -0.213,1.442c0.426,0.585 0.409,0.729 -0.01,0.78c-0.279,0.034 -0.649,-0.097 -0.775,-0.259c-0.296,-0.388 -1.63,-0.295 -1.578,0.123c0.017,0.14 0.23,0.432 0.504,0.646c0.783,0.612 0.116,0.942 -0.737,0.339c-0.427,-0.302 -0.971,-0.412 -1.303,-0.23c-0.532,0.278 -0.489,0.343 0.146,0.903c1.149,0.991 0.402,1.543 -0.847,0.599c-1.362,-1.001 -1.755,-0.74 -0.624,0.395c0.444,0.442 0.822,0.926 0.843,1.101c0.026,0.209 0.902,0.42 1.978,0.536c2.044,0.209 3.823,-0.293 5.687,-1.548c0.458,-0.304 1.226,-0.682 1.767,-0.89c0.846,-0.316 0.924,-0.255 1.044,0.722c0.124,1.011 -0.552,1.554 -1.135,0.847c-0.33,-0.384 -1.225,0.115 -1.06,0.59c0.065,0.24 -0.267,0.423 -0.834,0.421c-1.059,0.024 -1.229,0.364 -0.446,0.976c0.783,0.612 0.081,0.946 -1.043,0.446c-1.271,-0.552 -1.838,-0.553 -1.172,-0.033c0.587,0.459 0.721,1.257 0.162,1.326c-0.209,0.025 -0.953,-0.273 -1.68,-0.714c-0.875,-0.495 -1.241,-0.592 -1.198,-0.243c0.034,0.279 0.878,0.813 1.919,1.216c1.973,0.785 4.405,0.698 8.116,-0.218c1.923,-0.484 4.393,-1.707 4.337,-2.161c-0.043,-0.348 1.581,-1.256 1.754,-0.994c0.087,0.131 0.326,0.633 0.53,1.139c0.368,0.981 -0.174,1.756 -0.718,1.079c-0.46,-0.581 -1.599,-0.051 -1.478,0.642c0.125,0.445 -0.098,0.649 -0.63,0.644c-1.338,0.058 -1.53,0.223 -1.27,0.899c0.312,0.811 -0.342,0.963 -1.408,0.35c-0.989,-0.551 -1.721,-0.461 -1.395,0.171c0.364,0.664 -0.163,0.693 -1.578,0.123c-1.237,-0.556 -1.831,-0.2 -1.03,0.552c0.839,0.782 2.839,1.209 5.602,1.223c1.979,-0.03 3.156,-0.245 5.572,-1.038c3.363,-1.156 6.346,-1.664 6.414,-1.106c0.022,0.174 -0.166,0.375 -0.445,0.409c-0.244,0.03 -0.655,0.434 -0.917,0.891c-0.429,0.832 -0.464,0.836 -0.99,0.299c-0.488,-0.507 -0.631,-0.525 -0.924,-0.028c-0.298,0.461 0.042,0.632 1.954,1.211c2.644,0.773 4.429,1.758 3.8,2.118c-0.235,0.1 -0.38,0.649 -0.32,1.137c0.072,0.876 0.076,0.911 -0.389,0.295c-0.256,-0.358 -0.809,-0.821 -1.188,-1.022c-0.378,-0.201 -0.709,-0.586 -0.739,-0.83c-0.03,-0.244 -0.421,-0.55 -0.9,-0.703c-0.702,-0.233 -0.837,-0.181 -0.808,0.346c0.008,0.354 0.265,0.711 0.557,0.782c0.583,0.141 0.894,1.519 0.336,1.587c-0.174,0.021 -0.37,-0.131 -0.391,-0.306c-0.026,-0.209 -1.031,-0.9 -2.285,-1.596c-1.981,-1.137 -2.53,-1.282 -5.367,-1.323c-5.64,-0.087 -7.526,-0.457 -9.65,-1.896c-1.044,-0.721 -2.141,-1.294 -2.49,-1.251c-1.221,0.149 -4.399,-1.514 -4.954,-2.578c-0.282,-0.568 -0.648,-0.948 -0.805,-0.787c-0.196,0.131 -0.228,0.453 -0.054,0.715c0.469,0.934 -0.389,0.579 -2.316,-0.99c-2.233,-1.744 -4.069,-2.864 -4.009,-2.376c0.021,0.175 1.726,1.665 3.806,3.321c3.616,2.92 4.903,4.178 4.275,4.255c-0.139,0.017 -1.458,-0.919 -2.872,-2.055c-2.362,-1.94 -2.698,-2.076 -3.762,-1.804c-0.619,0.147 -1.278,0.546 -1.488,0.855c-0.206,0.344 -0.406,0.44 -0.611,0.217c-0.421,-0.55 -0.927,-0.346 -0.846,0.316c0.078,0.345 0.634,1.126 1.273,1.72c1.158,1.062 1.618,1.926 0.99,2.003c-0.175,0.021 -0.601,-0.28 -0.936,-0.699c-0.569,-0.603 -0.639,-0.594 -0.575,-0.071c0.081,0.946 1.216,2.116 2.753,2.813c0.749,0.332 1.585,0.796 1.82,0.98c0.274,0.214 1.676,0.679 3.135,1.031c4.196,1.007 15.697,5.012 18.893,6.531c6.618,3.152 10.514,5.471 15.126,9.011l4.848,3.724l-1.343,-1.994c-0.734,-1.079 -2.373,-3.179 -3.616,-4.654c-1.278,-1.472 -2.321,-2.76 -2.33,-2.83c-0.051,-0.418 2.746,2.177 3.915,3.626c0.669,0.839 2.986,3.847 5.141,6.697c4.437,5.864 4.146,5.51 4.365,5.271c0.057,-0.114 -1.086,-1.92 -2.585,-4.038c-3.506,-4.915 -2.682,-5.122 0.96,-0.259c2.033,2.724 2.599,3.292 2.591,2.656c0.002,-0.85 -3.143,-5.704 -5.846,-8.983c-0.831,-0.995 -1.235,-1.689 -0.956,-1.724c0.489,-0.06 2.958,2.753 5.266,5.974c1.203,1.729 1.477,1.943 1.614,1.324c0.233,-0.984 -0.171,-1.678 -3.54,-5.76c-1.617,-1.926 -2.886,-3.611 -2.79,-3.694c0.24,-0.348 1.754,1.024 3.593,3.312c1.047,1.323 1.982,2.305 2.078,2.223c0.18,-0.27 -0.922,-2.896 -1.335,-3.093c-0.188,-0.084 -1.162,-1.097 -2.223,-2.241c-1.847,-2.074 -2.254,-3.37 -0.74,-2.281c0.657,0.45 0.592,0.21 -0.437,-1.256c-0.687,-0.978 -1.295,-1.895 -1.386,-2.061c-0.087,-0.131 0.074,-0.257 0.353,-0.291c0.942,-0.115 4.961,5.516 6.284,8.787c1.326,3.307 1.829,10.574 1.119,16.325c-1.069,8.593 -2.043,13.35 -3.705,18.263c-0.623,1.847 -0.809,2.932 -0.57,3.433c0.156,0.406 1.247,1.794 2.364,3.109c1.148,1.275 2.661,3.213 3.391,4.257c0.764,1.039 1.734,2.3 2.181,2.776c0.448,0.476 1.343,1.712 1.995,2.694c1.82,2.715 7.142,8.859 10.143,11.677c4.041,3.787 12.456,10.33 15.181,11.766c1.328,0.722 3.043,1.715 3.813,2.222c0.77,0.507 1.954,1.212 2.634,1.553c1.401,0.749 2.88,2.408 3.739,4.214c0.438,0.973 0.506,1.531 0.255,2.659c-0.444,2.144 -3.847,7.589 -7.282,11.622c-2.652,3.193 -7.255,7.228 -9.135,8.06c-0.367,0.187 -1.607,1.047 -2.768,1.969c-1.681,1.304 -2.358,2.13 -3.374,4.238c-0.709,1.432 -1.409,2.651 -1.618,2.677c-0.484,0.094 -1.965,1.586 -1.734,1.735c0.352,0.275 5.874,-1.465 6.407,-2.026c0.284,-0.283 0.9,-1.031 1.354,-1.653c1.272,-1.75 1.51,-0.965 0.507,1.531c-0.487,1.228 -0.777,2.325 -0.62,2.448c0.357,0.31 1.937,-0.946 2.257,-1.8c1.044,-2.748 2.314,-3.647 1.729,-1.203c-0.238,0.949 -0.164,1.259 0.453,1.962c0.67,0.838 2.359,1.622 2.634,1.27c0.096,-0.083 -0.137,-0.833 -0.445,-1.61c-0.555,-1.347 -0.52,-1.635 0.165,-3.56c1.113,-3.04 2.111,-4.72 2.581,-4.353c0.274,0.214 0.22,0.646 -0.221,1.373c-1.089,1.797 -0.504,3.106 0.789,1.814c0.791,-0.769 0.791,-0.769 2.044,-0.074c1.071,0.648 1.285,0.657 1.617,0.191c0.171,-0.339 0.338,-1.28 0.344,-2.095c0.014,-2.48 1.65,-7.036 2.316,-6.516c0.157,0.123 0.194,0.72 0.054,1.304c-0.137,0.618 -0.216,1.124 -0.181,1.12c0.069,-0.009 1.577,-1.858 3.386,-4.134Z"
             style="fill:#ff0;fill-rule:nonzero;stroke:#505050;stroke-width:1px;"
             id="path3867" /></g><g
           id="g3873"><path
             d="M171.303,70.626c1.171,0.599 0.112,0.623 -1.7,-0.004l-1.476,-0.492l1.172,0.034c0.637,-0.008 1.551,0.234 2.004,0.462Z"
             style="fill:#ff0;fill-rule:nonzero;stroke:#505050;stroke-width:1px;"
             id="path3871" /></g><g
           id="g3877"><path
             d="M174.999,70.738c1.14,0.639 1.998,1.277 1.941,1.39c-0.188,0.2 -4.747,-2.037 -4.781,-2.316c-0.06,-0.488 1.012,-0.124 2.84,0.926Z"
             style="fill:#ff0;fill-rule:nonzero;stroke:#505050;stroke-width:1px;"
             id="path3875" /></g><g
           id="g3881"><path
             d="M152.174,74.284c0.022,0.175 -0.105,0.296 -0.314,0.322c-0.174,0.021 -0.392,-0.306 -0.447,-0.759c-0.077,-0.628 -0.012,-0.672 0.319,-0.287c0.208,0.257 0.425,0.585 0.442,0.724Z"
             style="fill:#ff0;fill-rule:nonzero;stroke:#505050;stroke-width:1px;"
             id="path3879" /></g><g
           id="g3885"><path
             d="M167.032,72.743c0.958,0.307 1.228,0.487 0.778,0.577c-0.383,0.047 -1.442,-0.212 -2.374,-0.593c-1.824,-0.732 -0.796,-0.717 1.596,0.016Z"
             style="fill:#ff0;fill-rule:nonzero;stroke:#505050;stroke-width:1px;"
             id="path3883" /></g><g
           id="g3889"><path
             d="M154.323,74.481c0.034,0.279 -0.18,0.553 -0.459,0.587c-0.279,0.034 -0.553,-0.18 -0.588,-0.459c-0.034,-0.279 0.18,-0.553 0.459,-0.587c0.279,-0.035 0.554,0.18 0.588,0.459Z"
             style="fill:#ff0;fill-rule:nonzero;stroke:#505050;stroke-width:1px;"
             id="path3887" /></g><g
           id="g3893"><path
             d="M155.397,79.482c0.898,1.837 1.933,5.073 2.156,6.887c0.09,0.732 0.337,1.304 0.511,1.282c0.209,-0.025 0.255,-0.81 0.139,-1.751c-0.206,-1.675 -1.706,-6.978 -2.262,-8.042c-0.456,-0.83 0.647,-0.788 1.212,0.063c0.834,1.314 1.63,4.048 2.241,7.585c0.529,3.156 0.493,3.444 -0.117,3.66c-0.672,0.295 -0.795,0.735 -0.233,0.985c0.374,0.166 0.78,2.028 1.139,5.241c0.261,2.128 -0.041,4.572 -0.591,4.994c-0.161,0.126 -0.244,0.03 -0.169,-0.227c0.04,-0.253 -0.252,-2.341 -0.67,-4.591c-0.534,-2.908 -0.902,-4.173 -1.229,-4.239c-0.361,-0.062 -0.367,0.753 0.049,3.853c1.007,7.629 1.041,7.908 0.396,8.129c-0.65,0.186 -0.699,2.67 -0.098,2.951c0.636,0.276 -1.029,6.322 -1.762,6.411c-0.244,0.03 -0.33,-0.384 -0.281,-1.133c0.179,-2.005 -0.052,-5.906 -0.633,-11.499c-0.777,-7.198 -0.831,-10.519 -0.238,-10.592c0.732,-0.09 0.803,-0.665 0.117,-1.643c-0.908,-1.34 -1.229,-4.239 -0.496,-4.329c0.523,-0.064 0.515,-0.417 0.011,-3.081c-0.634,-3.144 -0.45,-3.379 0.808,-0.914Z"
             style="fill:#ff0;fill-rule:nonzero;stroke:#505050;stroke-width:1px;"
             id="path3891" /></g><g
           id="g3897"><path
             d="M83.594,88.086c2.043,0.776 2.435,0.799 5.321,0.373c1.735,-0.284 4.295,-0.775 5.699,-1.16c1.404,-0.384 2.612,-0.639 2.691,-0.578c0.665,0.52 -1.689,2.969 -3.168,3.328c-0.414,0.086 -1.932,0.697 -3.411,1.339c-3.158,1.379 -4.257,1.372 -6.699,-0.063c-1.989,-1.207 -2.237,-1.495 -1.687,-1.917c0.913,-0.643 0.408,-1.006 -1.127,-0.817c-0.941,0.115 -2.359,0.679 -3.708,1.517c-2.409,1.429 -3.023,1.327 -0.836,-0.18c1.205,-0.856 1.231,-0.93 0.346,-0.645c-0.951,0.329 -0.925,0.255 0.385,-0.897c1.694,-1.482 2.893,-1.523 6.194,-0.3Z"
             style="fill:#ff0;fill-rule:nonzero;stroke:#505050;stroke-width:1px;"
             id="path3895" /></g><g
           id="g3901"><path
             d="M152.368,81.624c0.021,0.175 -0.027,0.358 -0.097,0.366c-0.105,0.013 -0.3,-0.14 -0.426,-0.302c-0.131,-0.196 -0.078,-0.344 0.096,-0.365c0.209,-0.026 0.401,0.092 0.427,0.301Z"
             style="fill:#ff0;fill-rule:nonzero;stroke:#505050;stroke-width:1px;"
             id="path3899" /></g><g
           id="g3905"><path
             d="M52.497,98.064c-1.202,-0.843 -1.977,-1.102 -2.775,-0.969c-1.425,0.211 -3.716,1.164 -5.762,2.372c-0.891,0.534 -1.999,1.024 -2.452,1.08c-0.454,0.055 -2.325,0.674 -4.113,1.39c-4.869,1.872 -9.879,3.16 -14.936,3.781c-3.872,0.475 -4.626,0.674 -5.36,1.33c-0.476,0.448 -2.052,1.456 -3.513,2.237c-3.02,1.646 -3.592,2.176 -3.044,2.604c0.274,0.215 0.549,0.146 0.863,-0.176c0.905,-0.996 0.946,0.202 0.018,2.157c-0.504,1.089 -1.319,3.101 -1.784,4.503c-0.504,1.372 -1.389,3.109 -1.966,3.888c-0.581,0.744 -0.953,1.462 -0.801,1.55c0.392,0.306 5.077,-1.615 6.505,-2.675c2.658,-1.991 3.288,-2.918 3.083,-4.592c-0.103,-0.837 -0.097,-1.935 0.053,-2.449c0.277,-1.202 2.572,-4.423 3.2,-4.5c0.767,-0.094 0.627,0.206 -0.816,2.295c-1.565,2.246 -1.773,3.723 -0.853,5.734c0.863,1.841 1.63,2.03 1.42,0.321c-0.082,-0.662 0.091,-1.852 0.385,-2.631c0.5,-1.407 3.791,-5.741 4.109,-5.461c0.117,0.092 -0.007,1.098 -0.249,2.296c-0.772,3.812 -0.24,4.101 1.171,0.6c0.517,-1.267 1.099,-2.295 1.282,-2.246c0.579,0.106 0.475,1.853 -0.164,2.994c-0.612,1.066 -0.65,2.487 -0.092,2.418c0.174,-0.021 0.415,-0.369 0.472,-0.766c0.058,-0.396 0.91,-1.528 1.819,-2.489c2.42,-2.492 3.815,-2.946 11.383,-3.592c7.603,-0.651 10.235,-0.549 12.112,0.318c1.389,0.644 1.523,0.875 3.848,5.971c1.349,2.914 2.694,6.077 3.023,7.028c0.333,0.986 1.236,2.857 2.07,4.171c0.803,1.353 1.984,3.474 2.6,4.743c0.581,1.274 1.919,3.518 2.944,4.949c0.995,1.471 2.115,3.387 2.479,4.334c1.084,2.77 3.169,5.912 4.518,6.809c0.727,0.442 1.449,1.132 1.601,1.503c0.187,0.366 0.731,0.76 1.245,0.909c0.548,0.145 0.866,0.425 0.796,0.716c-0.194,0.732 0.972,1.864 1.774,1.765c1.116,-0.137 0.452,-1.507 -1.545,-3.067c-0.979,-0.765 -3.42,-4.501 -5.065,-7.804c-0.759,-1.571 -1.97,-3.936 -2.664,-5.267c-0.695,-1.331 -1.198,-2.543 -1.106,-2.661c0.245,-0.313 0.996,0.905 3.726,6.128c2.361,4.525 4.694,7.955 5.392,7.87c0.558,-0.069 0.077,-1.39 -1.209,-3.215c-0.726,-1.009 -1.234,-1.973 -1.142,-2.09c0.249,-0.279 1.136,0.604 2.253,2.201c1.369,1.921 2.799,3.48 3.013,3.206c0.394,-0.544 -0.005,-1.486 -0.693,-1.614c-0.397,-0.058 -0.741,-0.263 -0.762,-0.438c-0.026,-0.209 -0.665,-1.086 -1.417,-2.021c-1.882,-2.353 -7.663,-11.662 -8.577,-13.922c-0.655,-1.584 0.688,0.128 2.521,3.231c4.06,6.83 6.51,10.352 7.103,10.279c0.14,-0.017 0.415,-0.369 0.612,-0.783c0.311,-0.64 0.068,-1.176 -1.839,-4.022c-2.302,-3.47 -2.389,-3.601 -1.901,-3.661c0.174,-0.022 1.013,1.044 1.913,2.314c0.903,1.305 2.086,2.859 2.655,3.462l1.018,1.079l0.564,-0.884c0.533,-0.844 0.494,-0.875 -0.424,-1.718c-1.283,-1.223 -5.566,-7.565 -4.987,-7.459c0.253,0.039 1.409,1.384 2.6,3.008c3.598,4.798 3.912,5.043 4.416,3.388c0.202,-0.662 -0.001,-1.168 -1.201,-2.862c-1.79,-2.471 -1.139,-2.94 0.716,-0.513c1.308,1.716 1.613,1.891 1.855,0.976c0.097,-0.366 -0.538,-1.208 -1.773,-2.331c-1.075,-0.966 -2.388,-2.433 -2.913,-3.254c-0.561,-0.816 -1.547,-2.217 -2.221,-3.09c-0.643,-0.912 -1.66,-2.275 -2.22,-3.091c-0.561,-0.816 -1.243,-1.759 -1.464,-2.121c-0.257,-0.358 -1.047,-1.606 -1.725,-2.798c-0.677,-1.191 -1.793,-3.072 -2.497,-4.189c-0.668,-1.122 -1.259,-2.182 -1.284,-2.392c-0.026,-0.209 -1.316,-2.352 -2.893,-4.813c-1.572,-2.427 -2.862,-4.57 -2.879,-4.709c-0.022,-0.175 -0.861,-0.957 -1.84,-1.722c-1.562,-1.189 -2.154,-1.399 -4.155,-1.543c-1.825,-0.165 -2.744,-0.442 -4.055,-1.308Z"
             style="fill:#ff0;fill-rule:nonzero;stroke:#505050;stroke-width:1px;"
             id="path3903" /></g><g
           id="g3909"><path
             d="M151.387,93.534c0.392,2.324 0.45,3.379 0.171,3.413c-0.279,0.034 -0.284,0.566 -0.055,1.564c0.293,1.239 0.213,2.028 -0.449,4.127c-0.742,2.321 -1.363,3.318 -1.483,2.342c-0.077,-0.628 0.275,-4.106 0.659,-6.454c0.336,-2.165 0.346,-4.963 0.005,-8.32c-0.256,-2.659 0.611,-0.217 1.152,3.328Z"
             style="fill:#ff0;fill-rule:nonzero;stroke:#505050;stroke-width:1px;"
             id="path3907" /></g><g
           id="g3913"><path
             d="M141.193,95.564c-0.254,0.527 -0.73,0.975 -1.044,1.014c-0.454,0.055 -0.379,-0.202 0.29,-1.098c1.001,-1.362 1.432,-1.309 0.754,0.084Z"
             style="fill:#ff0;fill-rule:nonzero;stroke:#505050;stroke-width:1px;"
             id="path3911" /></g><g
           id="g3917"><path
             d="M130.63,96.33c-0.083,0.187 -0.375,0.4 -0.585,0.426c-0.244,0.03 -0.226,-0.114 0.062,-0.362c0.611,-0.499 0.751,-0.517 0.523,-0.064Z"
             style="fill:#ff0;fill-rule:nonzero;stroke:#505050;stroke-width:1px;"
             id="path3915" /></g><g
           id="g3921"><path
             d="M133.765,95.91c0.296,0.389 -1.137,1.697 -4.943,4.43c-3.152,2.299 -3.384,2.717 -0.884,1.454c1.3,-0.655 1.544,-0.685 2.337,-0.287c1.093,0.539 0.93,0.948 -0.654,1.886c-2.378,1.39 -4.276,2.083 -6.403,2.344c-1.221,0.15 -2.18,0.409 -2.159,0.584c0.022,0.174 0.578,0.672 1.192,1.057c0.653,0.416 1.027,0.865 0.9,0.987c-0.161,0.126 -2.05,0.606 -4.152,1.076c-7.238,1.597 -9.978,2.925 -7.622,3.662l0.815,0.29l-0.851,0.281c-5.871,2.066 -8.898,3.359 -10.361,4.423c-0.939,0.717 -1.837,1.182 -1.994,1.059c-0.431,-0.336 1.176,-1.666 3.021,-2.495c0.973,-0.438 1.982,-1.164 2.318,-1.594c0.538,-0.81 0.538,-0.81 -0.478,-0.437c-1.422,0.528 -5.097,2.608 -6.454,3.66c-0.612,0.5 -1.358,1.052 -1.581,1.256c-0.292,0.213 -0.196,-0.153 0.15,-0.797c1.037,-1.933 5.333,-5.01 6.64,-4.745c0.217,0.044 1.173,-0.25 2.111,-0.684c1.37,-0.664 1.719,-0.99 1.703,-1.696c-0.006,-1.203 4.603,-4.035 7.149,-4.348c1.709,-0.209 2.948,-0.786 2.308,-1.097c-0.187,-0.084 -1.107,-0.077 -2.092,-0.027c-1.718,0.14 -2.193,0.305 -5.021,2.068c-2.209,1.334 -2.478,1.154 -0.762,-0.437c2.638,-2.448 3.777,-2.977 7.565,-3.549c1.042,-0.163 1.269,-0.333 1.293,-1.008c0.023,-0.676 0.219,-0.806 1.405,-0.952c1.012,-0.124 1.412,-0.031 1.459,0.352c0.043,0.349 0.374,0.45 0.858,0.355c0.79,-0.203 5.844,-3.443 7.878,-5.039c0.546,-0.456 1.052,-0.66 1.078,-0.45c0.081,0.662 1.237,0.272 2.207,-0.767c1.005,-1.044 1.611,-1.295 2.024,-0.815Z"
             style="fill:#ff0;fill-rule:nonzero;stroke:#505050;stroke-width:1px;"
             id="path3919" /></g><g
           id="g3925"><path
             d="M136.217,96.848c-0.42,0.618 -3.23,2.238 -3.509,1.989c-0.348,-0.241 3.167,-3.044 3.515,-2.804c0.196,0.153 0.199,0.471 -0.006,0.815Z"
             style="fill:#ff0;fill-rule:nonzero;stroke:#505050;stroke-width:1px;"
             id="path3923" /></g><g
           id="g3929"><path
             d="M125.67,98.32c0.375,0.166 0.134,0.515 -0.905,1.279c-1.715,1.309 -3.338,1.933 -4.231,1.582c-0.527,-0.254 -0.435,-0.371 0.678,-0.827c0.737,-0.338 1.867,-0.937 2.483,-1.402c1.335,-0.943 1.335,-0.943 1.975,-0.632Z"
             style="fill:#ff0;fill-rule:nonzero;stroke:#505050;stroke-width:1px;"
             id="path3927" /></g><g
           id="g3933"><path
             d="M8.988,116.824c-0.71,1.999 -1.438,3.859 -1.621,4.094c-0.175,0.304 -1.03,0.551 -2.155,0.618l-1.857,0.157l3.026,-4.194c1.665,-2.294 3.238,-4.186 3.483,-4.216c0.279,-0.035 -0.021,1.277 -0.876,3.541Z"
             style="fill:#ff0;fill-rule:nonzero;stroke:#505050;stroke-width:1px;"
             id="path3931" /></g><g
           id="g3937"><path
             d="M105.014,111.159c0.413,0.197 0.287,0.318 -0.55,0.421c-0.593,0.073 -1.242,-0.024 -1.369,-0.186c-0.334,-0.419 1.166,-0.603 1.919,-0.235Z"
             style="fill:#ff0;fill-rule:nonzero;stroke:#505050;stroke-width:1px;"
             id="path3935" /></g><g
           id="g3941"><path
             d="M152.457,118.68c-0.071,0.575 -0.632,1.777 -1.257,2.739c-0.66,0.966 -1.382,2.294 -1.623,2.925c-0.237,0.667 -0.557,1.237 -0.696,1.254c-0.349,0.043 0.832,-3.89 1.567,-5.113c1.781,-3.087 2.195,-3.456 2.009,-1.805Z"
             style="fill:#ff0;fill-rule:nonzero;stroke:#505050;stroke-width:1px;"
             id="path3939" /></g><g
           id="g3945"><path
             d="M93.409,126.214c-0.21,0.309 -0.529,0.596 -0.738,0.621c-0.174,0.022 -0.108,-0.305 0.194,-0.732c0.633,-0.892 1.139,-0.812 0.544,0.111Z"
             style="fill:#ff0;fill-rule:nonzero;stroke:#505050;stroke-width:1px;"
             id="path3943" /></g><g
           id="g3949"><path
             d="M89.781,132.996c-0.075,0.257 -0.446,0.692 -0.843,0.918c-0.393,0.261 -1.406,1.235 -2.214,2.148c-0.809,0.914 -1.573,1.609 -1.651,1.548c-0.349,-0.24 1.584,-3.239 2.611,-4.108c1.187,-0.996 2.286,-1.273 2.097,-0.506Z"
             style="fill:#ff0;fill-rule:nonzero;stroke:#505050;stroke-width:1px;"
             id="path3947" /></g><g
           id="g3953"><path
             d="M80.83,144.291c-0.558,0.352 -0.872,0.391 -1.185,0.146c-0.353,-0.275 -0.191,-0.402 0.755,-0.482c1.116,-0.137 1.155,-0.107 0.43,0.336Z"
             style="fill:#ff0;fill-rule:nonzero;stroke:#505050;stroke-width:1px;"
             id="path3951" /></g><g
           id="g3957"><path
             d="M79.799,149.728c-0.114,0.227 -0.484,0.095 -0.928,-0.346c-0.935,-0.983 -0.593,-1.662 0.368,-0.753c0.404,0.41 0.643,0.912 0.56,1.099Z"
             style="fill:#ff0;fill-rule:nonzero;stroke:#505050;stroke-width:1px;"
             id="path3955" /></g><g
           id="g3961"><path
             d="M75.249,151.314c0.043,0.348 0.256,0.641 0.465,0.615c0.419,-0.051 1.45,0.849 1.54,1.298c0.022,0.174 -0.349,0.326 -0.802,0.382c-1.047,0.128 -1.129,0.032 -1.683,-1.882c-0.307,-1.06 -0.319,-1.448 -0.019,-1.308c0.226,0.114 0.452,0.511 0.499,0.895Z"
             style="fill:#ff0;fill-rule:nonzero;stroke:#505050;stroke-width:1px;"
             id="path3959" /></g><g
           id="g3965"><path
             d="M81.619,154.178c0.056,0.453 -0.586,0.992 -1.388,1.091c-0.384,0.047 0.64,-1.424 1.089,-1.514c0.135,-0.052 0.265,0.144 0.299,0.423Z"
             style="fill:#ff0;fill-rule:nonzero;stroke:#505050;stroke-width:1px;"
             id="path3963" /></g><g
           id="g3969"><path
             d="M82.39,164.492c-0.341,0.396 -0.501,-0.045 -0.42,-1.117l0.116,-1.076l0.224,0.964c0.138,0.549 0.168,1.076 0.08,1.229Z"
             style="fill:#ff0;fill-rule:nonzero;stroke:#505050;stroke-width:1px;"
             id="path3967" /></g><g
           id="g3973"><path
             d="M84.479,164.2c-0.144,2 -0.621,2.731 -1.011,1.576c-0.164,-0.476 0.732,-3.56 1.045,-3.598c0.07,-0.009 0.042,0.915 -0.034,2.022Z"
             style="fill:#ff0;fill-rule:nonzero;stroke:#505050;stroke-width:1px;"
             id="path3971" /></g><g
           id="g3977"><path
             d="M82.838,166.986c0.021,0.174 -0.285,0.566 -0.677,0.827c-0.751,0.517 -0.751,0.517 -0.183,-0.332c0.634,-0.892 0.796,-1.018 0.86,-0.495Z"
             style="fill:#ff0;fill-rule:nonzero;stroke:#505050;stroke-width:1px;"
             id="path3975" /></g><g
           id="g3981"><path
             d="M84.342,168.855c-0.341,0.395 -0.54,-0.076 -0.399,-0.943l0.137,-0.902l0.203,0.79c0.126,0.445 0.146,0.902 0.059,1.055Z"
             style="fill:#ff0;fill-rule:nonzero;stroke:#505050;stroke-width:1px;"
             id="path3979" /></g><g
           id="g3985"><path
             d="M106.959,186.399c-0.254,0.527 -2.037,-1.024 -2.14,-1.862c-0.021,-0.457 0.245,-0.313 1.149,0.426c0.636,0.559 1.07,1.214 0.991,1.436Z"
             style="fill:#ff0;fill-rule:nonzero;stroke:#505050;stroke-width:1px;"
             id="path3983" /></g><g
           id="g3989"><path
             d="M95.204,188.692c0.503,0.929 0.372,1.3 -0.237,0.666c-0.322,-0.314 -0.618,-0.703 -0.639,-0.877c-0.056,-0.454 0.598,-0.321 0.876,0.211Z"
             style="fill:#ff0;fill-rule:nonzero;stroke:#505050;stroke-width:1px;"
             id="path3987" /></g><g
           id="g3993"><path
             d="M97.794,188.161c0.405,0.128 0.752,0.652 0.821,1.21l0.115,0.941l-0.957,-0.874c-1.392,-1.245 -1.355,-1.816 0.021,-1.277Z"
             style="fill:#ff0;fill-rule:nonzero;stroke:#505050;stroke-width:1px;"
             id="path3991" /></g><g
           id="g3997"><path
             d="M100.764,189c0.026,0.21 -0.235,0.1 -0.557,-0.214c-0.326,-0.35 -0.63,-0.808 -0.652,-0.982c-0.025,-0.21 0.236,-0.1 0.558,0.214c0.326,0.35 0.63,0.808 0.651,0.982Z"
             style="fill:#ff0;fill-rule:nonzero;stroke:#505050;stroke-width:1px;"
             id="path3995" /></g><g
           id="g4001"><path
             d="M103.007,189.964c0.043,0.349 -0.219,0.239 -0.758,-0.402c-0.456,-0.546 -0.847,-1.136 -0.868,-1.31c-0.038,-0.597 1.549,1.084 1.626,1.712Z"
             style="fill:#ff0;fill-rule:nonzero;stroke:#505050;stroke-width:1px;"
             id="path3999" /></g><g
           id="g4005"><path
             d="M100.888,194.048c1.26,2.182 0.702,2.25 -0.906,0.111c-0.93,-1.231 -1.699,-2.305 -1.712,-2.409c-0.065,-0.524 2.076,1.338 2.618,2.298Z"
             style="fill:#ff0;fill-rule:nonzero;stroke:#505050;stroke-width:1px;"
             id="path4003" /></g><g
           id="g4009"><path
             d="M100.441,197.324c0.657,0.734 1.182,1.555 1.138,1.772c-0.075,0.257 -0.662,-0.201 -1.362,-1.001c-0.7,-0.799 -1.544,-1.616 -1.887,-1.821c-0.349,-0.241 -0.644,-0.629 -0.683,-0.943c-0.09,-0.733 1.19,0.172 2.794,1.993Z"
             style="fill:#ff0;fill-rule:nonzero;stroke:#505050;stroke-width:1px;"
             id="path4007" /></g><g
           id="g4013"><path
             d="M136.551,199.334c0.126,0.162 0.113,0.34 -0.097,0.366c-0.174,0.021 -0.474,-0.119 -0.6,-0.28c-0.131,-0.197 -0.113,-0.341 0.096,-0.366c0.175,-0.022 0.471,0.084 0.601,0.28Z"
             style="fill:#ff0;fill-rule:nonzero;stroke:#505050;stroke-width:1px;"
             id="path4011" /></g><g
           id="g4017"><path
             d="M137.865,214.361c0.021,0.174 -0.258,0.491 -0.664,0.648c-0.502,0.238 -0.585,0.425 -0.272,0.67c0.314,0.245 0.763,0.154 1.631,-0.271c0.868,-0.425 1.317,-0.516 1.631,-0.271c0.274,0.214 -0.263,0.74 -1.878,1.718c-2.763,1.72 -2.053,2.022 0.932,0.381c2.526,-1.337 2.906,-1.419 3.275,-0.721c0.186,0.367 -0.19,0.767 -1.442,1.522c-2.077,1.247 -1.568,1.644 0.744,0.582c1.841,-0.864 3.332,-0.834 3.792,0.03c0.369,0.698 0.177,0.863 -3.742,2.973c-1.798,0.929 -3.247,1.815 -3.229,1.954c0.059,0.488 0.701,0.233 4.458,-1.751c2.661,-1.389 3.848,-1.818 4.261,-1.621c1.089,0.504 0.94,1.018 -0.408,1.573c-2.059,0.819 -2.122,1.464 -0.068,0.893c2.565,-0.74 3.022,-0.76 3.235,-0.185c0.117,0.375 -0.259,0.776 -1.258,1.288c-6.707,3.337 -6.837,3.424 -6.481,3.734c0.118,0.092 1.671,-0.524 3.446,-1.344c2.98,-1.392 4.607,-1.698 4.705,-0.896c0.022,0.174 -0.524,0.631 -1.179,1.065c-1.122,0.669 -1.183,0.747 -0.437,0.762c0.466,0.049 1.255,-0.154 1.787,-0.432c0.768,-0.377 1.121,-0.385 1.591,-0.018c0.783,0.612 0.788,0.646 -0.29,1.381c-0.751,0.517 -1.444,0.637 -3.571,0.615c-1.7,-0.004 -3.025,0.159 -3.802,0.467c-0.637,0.291 -1.618,0.659 -2.164,0.832c-0.815,0.277 -0.907,0.395 -0.441,0.727c0.309,0.21 1.48,0.526 2.639,0.738c1.12,0.181 2.078,0.488 2.095,0.628c0.017,0.139 -0.856,0.813 -1.912,1.438c-1.78,1.069 -2.763,2.004 -2.031,1.914c0.14,-0.018 1.44,-0.673 2.871,-1.415l2.588,-1.415l1.241,0.591c2.364,1.09 2.433,1.365 0.452,2.529c-3.919,2.393 -4.993,3.162 -4.457,3.202c0.322,0.031 1.396,-0.454 2.382,-1.071c3.884,-2.389 6.134,-2.807 6.34,-1.133c0.055,0.454 -0.643,1.106 -2.381,2.24c-2.946,1.955 -2.013,2.053 1.26,0.164c2.147,-1.255 2.352,-1.316 2.839,-0.809c0.9,0.987 0.637,1.444 -1.702,2.864c-1.248,0.791 -2.287,1.556 -2.266,1.73c0.043,0.349 0.951,-0.046 3.329,-1.435c0.986,-0.617 1.859,-1.008 1.972,-0.951c1.057,0.826 -3.173,3.859 -7.905,5.68c-1.898,0.693 -3.173,1.557 -2.196,1.437c0.942,-0.115 7.028,-2.739 8.206,-3.521c1.471,-0.995 1.576,-1.007 1.657,-0.345c0.034,0.279 -0.595,0.923 -1.415,1.449c-2.135,1.359 -1.835,2.066 0.347,0.807c0.432,-0.23 0.514,-0.134 0.47,0.367c-0.116,0.793 -1.481,1.491 -5.52,2.908c-1.632,0.554 -3.15,1.165 -3.377,1.335c-0.965,0.791 -10.126,2.872 -10.744,2.452c-0.614,-0.385 -1.239,0.577 -0.77,1.228c0.217,0.327 0.85,2.019 1.386,3.794c0.94,3.036 1.521,8.063 1.258,10.821c-0.084,0.754 0.05,0.985 0.434,0.938c0.697,-0.086 0.835,-5.024 0.201,-8.451c-0.335,-1.87 -0.308,-2.511 0.006,-2.549c0.314,-0.039 0.368,-0.754 0.197,-2.432c-0.214,-1.744 -0.157,-2.14 0.121,-1.608c0.539,0.925 1.524,0.875 1.408,-0.067c-0.047,-0.383 0.019,-0.71 0.194,-0.732c0.139,-0.017 0.372,1.017 0.531,2.307c0.351,2.86 1.204,3.464 1.044,0.722c-0.097,-1.369 -0,-1.735 0.378,-1.534c0.414,0.197 0.425,1.152 0.072,5.196c-1.055,12.166 -0.772,18.221 1.31,26.816l0.436,1.823l-1.041,-0.12c-2.013,-0.249 -2.684,-0.52 -3.105,-1.354c-0.603,-1.165 -1.109,-0.961 -1.086,0.382c0.024,1.059 -0.129,1.254 -1.796,2.096c-2.169,1.081 -7.756,4.882 -8.01,5.409c-0.363,0.788 0.946,0.203 3.591,-1.609c1.471,-0.995 3.644,-2.324 4.809,-2.927c1.994,-1.059 2.204,-1.085 4.042,-0.815c1.66,0.256 2.009,0.214 2.791,-0.343c0.851,-0.564 0.868,-0.708 0.489,-2.361c-0.264,-0.994 -0.644,-2.647 -0.877,-3.68l-0.445,-1.893l0.926,0.913c0.522,0.502 1.879,1.752 3.032,2.779c2.188,1.961 2.539,2.803 1.873,4.585c-0.5,1.406 -1.037,1.649 -4.529,2.043c-6.186,0.653 -13,3.685 -19.03,8.496c-1.096,0.878 -1.401,0.987 -1.452,0.568c-0.039,-0.314 -0.208,-0.541 -0.348,-0.524c-0.558,0.069 -3.111,3.781 -3.576,5.183c-0.562,1.769 -1.252,2.207 -1.406,0.952c-0.073,-0.593 -0.407,-1.012 -1.074,-1.249c-0.853,-0.32 -0.901,-0.42 -0.46,-0.864c0.533,-0.561 0.592,-1.524 0.069,-1.46c-0.175,0.021 -0.463,0.269 -0.638,0.574c-0.328,0.5 -3.345,2.747 -3.763,2.799c-0.105,0.012 -0.204,-0.223 -0.243,-0.537c-0.107,-0.872 -0.849,-0.285 -1.384,1.126c-0.289,0.814 -0.361,1.673 -0.158,2.462l0.324,1.199l-0.616,-0.986c-0.352,-0.559 -0.673,-1.44 -0.772,-1.959c-0.081,-0.662 -0.255,-0.924 -0.521,-0.785c-0.301,0.143 -0.325,0.818 -0.136,2.07l0.301,1.874l-1.043,-1.288c-0.752,-0.934 -1.008,-1.575 -0.962,-2.36c0.109,-1.996 0.057,-2.414 -0.413,-2.498c-0.257,-0.075 -0.555,0.387 -0.722,1.045c-0.22,1.089 -1.661,2.328 -2.812,2.469c-0.593,0.073 0.641,-1.99 1.584,-2.673c0.881,-0.604 1.049,-1.545 0.282,-1.45c-0.244,0.03 -0.737,0.338 -1.087,0.664c-0.314,0.322 -1.121,0.669 -1.784,0.75c-1.116,0.137 -1.024,0.02 1.604,-2.215c1.507,-1.282 2.743,-2.461 2.721,-2.635c-0.042,-0.349 -2.107,1.002 -3.771,2.446c-0.637,0.573 -1.685,1.269 -2.322,1.559c-1.304,0.621 -4.303,0.706 -4.372,0.148c-0.025,-0.21 0.106,-0.297 0.297,-0.179c0.71,0.303 4.14,-1.747 6.865,-4.064c2.978,-2.561 3.549,-2.808 9.357,-3.946c1.522,-0.293 3.62,-0.798 4.64,-1.136c4.227,-1.333 11.549,-5.419 13.157,-7.315c2.626,-3.12 2.015,-10.408 -1.261,-15.175c-0.608,-0.917 -1.469,-2.156 -1.903,-2.811c-0.469,-0.65 -1.326,-1.572 -1.922,-2.101c-3.393,-2.84 -9.424,-9.57 -9.561,-10.686c-0.021,-0.174 -0.33,-0.667 -0.699,-1.082c-0.996,-1.188 -1.559,-2.889 -2.533,-7.938c-0.746,-3.767 -1.1,-4.928 -2.069,-6.473c-1.724,-2.797 -1.97,-3.935 -1.087,-5.106c1.298,-1.823 6.356,-6.48 9.665,-8.94c1.781,-1.351 3.981,-3.038 4.846,-3.781c0.899,-0.748 2.453,-1.93 3.505,-2.59c1.868,-1.221 2.302,-2.017 1.156,-2.124c-1.216,-0.099 2.48,-2.004 4.293,-2.227c2.023,-0.248 2.081,-0.928 0.103,-1.181l-1.224,-0.168l2.168,-1.081c1.204,-0.572 2.204,-1.084 2.269,-1.128c0.035,-0.004 0.083,0.096 0.104,0.271Z"
             style="fill:#ff0;fill-rule:nonzero;stroke:#505050;stroke-width:1px;"
             id="path4015" /></g><g
           id="g4021"><path
             d="M47.272,229.095c0.073,0.593 0.706,2.002 1.449,3.15c0.873,1.344 1.48,2.828 1.817,4.415l0.505,2.381l-1.65,2.999c-0.897,1.632 -1.746,3.365 -1.9,3.844c-0.408,1.29 -0.818,1.127 -0.858,-0.355c-0.051,-0.701 -0.426,-2.319 -0.868,-3.61c-0.68,-2.076 -0.757,-2.704 -0.606,-5.803c0.087,-1.887 0.199,-3.565 0.282,-3.752c0.053,-0.148 -0.134,-0.231 -0.413,-0.197c-0.767,0.094 -1.162,3.223 -0.9,6.802l0.181,2.916l-1.372,1.797c-0.8,0.983 -1.521,1.745 -1.638,1.653c-0.118,-0.092 0.033,-1.456 0.307,-2.976c0.304,-1.56 0.698,-4.405 0.881,-6.375c0.348,-3.512 0.374,-3.586 2.131,-5.714c0.988,-1.183 1.927,-2.183 2.136,-2.209c0.209,-0.026 0.444,0.441 0.516,1.034Z"
             style="fill:#ff0;fill-rule:nonzero;stroke:#505050;stroke-width:1px;"
             id="path4019" /></g><g
           id="g4025"><path
             d="M151.868,224.607c0.056,0.454 -0.049,0.467 -0.51,0.169c-0.309,-0.21 -0.487,-0.506 -0.404,-0.694c0.223,-0.487 0.833,-0.137 0.914,0.525Z"
             style="fill:#ff0;fill-rule:nonzero;stroke:#505050;stroke-width:1px;"
             id="path4023" /></g><g
           id="g4029"><path
             d="M154.539,229.059c0.047,0.384 -0.376,0.4 -1.055,0.059c-0.492,-0.259 -0.5,-0.328 -0.081,-0.663c0.45,-0.374 1.02,-0.055 1.136,0.604Z"
             style="fill:#ff0;fill-rule:nonzero;stroke:#505050;stroke-width:1px;"
             id="path4027" /></g><g
           id="g4033"><path
             d="M152.123,229.851c1.019,0.229 1.868,0.514 1.89,0.689c0.017,0.139 0.243,0.253 0.522,0.219c0.628,-0.077 3.151,2.303 3.637,3.377c0.299,0.706 0.273,0.78 -0.398,0.509c-1.076,-0.399 -1.225,0.115 -0.238,0.949c0.47,0.368 0.74,0.83 0.617,0.987c-0.122,0.156 -0.379,0.082 -0.549,-0.145c-0.204,-0.223 -0.531,-0.289 -0.727,-0.159c-0.192,0.165 -0.263,0.457 -0.137,0.619c0.161,0.157 0.109,0.305 -0.031,0.322c-0.174,0.022 -1.001,-0.656 -1.814,-1.512c-1.979,-1.987 -4.168,-3.382 -7.06,-4.443c-1.293,-0.443 -2.351,-0.986 -2.381,-1.23c-0.064,-0.523 4.207,-0.623 6.669,-0.182Z"
             style="fill:#ff0;fill-rule:nonzero;stroke:#505050;stroke-width:1px;"
             id="path4031" /></g><g
           id="g4037"><path
             d="M209.136,251.881c1.279,0.905 1.374,1.389 0.363,1.513c-0.942,0.116 -5.306,-3.419 -5.426,-4.396c-0.085,-0.698 0.145,-0.549 5.063,2.883Z"
             style="fill:#ff0;fill-rule:nonzero;stroke:#505050;stroke-width:1px;"
             id="path4035" /></g><g
           id="g4041"><path
             d="M199.332,258.537c0.152,0.371 0.121,0.693 -0.054,0.715c-0.174,0.021 -0.352,-0.276 -0.399,-0.659c-0.047,-0.384 -0.016,-0.706 0.054,-0.715c0.069,-0.008 0.247,0.288 0.399,0.659Z"
             style="fill:#ff0;fill-rule:nonzero;stroke:#505050;stroke-width:1px;"
             id="path4039" /></g><g
           id="g4045"><path
             d="M101.104,307.098c1.285,0.09 2.396,0.202 2.475,0.263c0.379,0.201 -1.624,2.925 -2.584,3.468c-0.628,0.36 -1.104,0.808 -1.078,1.018c0.064,0.523 1.525,0.025 3.908,-1.33c1.091,-0.629 2.024,-1.098 2.138,-1.041c0.317,0.279 -3.369,5.724 -4.473,6.532c-0.773,0.626 -1.933,0.981 -4.153,1.36c-4.403,0.753 -4.595,0.635 -2.737,-1.824c1.766,-2.341 3.556,-5.641 3.614,-6.604c0.056,-1.281 -0.835,-0.464 -2.035,1.879c-0.739,1.471 -1.5,2.485 -1.91,2.606c-0.379,0.082 -1.226,0.398 -1.863,0.689c-2.482,1.119 -2.494,0.731 -0.17,-1.678c1.293,-1.292 2.948,-3.088 3.726,-3.963c0.865,-1.026 1.642,-1.618 2.109,-1.569c0.388,-0.012 1.747,0.105 3.033,0.194Z"
             style="fill:#ff0;fill-rule:nonzero;stroke:#505050;stroke-width:1px;"
             id="path4043" /></g><g
           id="g4049"><path
             d="M118.396,308.091c-0.447,1.258 -1.015,1.824 -1.096,1.161c-0.078,-0.628 0.728,-2.143 1.181,-2.198c0.175,-0.022 0.16,0.44 -0.085,1.037Z"
             style="fill:#ff0;fill-rule:nonzero;stroke:#505050;stroke-width:1px;"
             id="path4047" /></g><g
           id="g4053"><path
             d="M194.762,327.426c0.339,0.454 -0.834,3.005 -1.344,2.891c-0.579,-0.106 -0.852,-0.887 -0.281,-0.85c0.287,0.035 0.401,-0.191 0.28,-0.601c-0.403,-1.261 0.598,-2.34 1.345,-1.44Z"
             style="fill:#ff0;fill-rule:nonzero;stroke:#505050;stroke-width:1px;"
             id="path4051" /></g><g
           id="g4057"><path
             d="M181.313,332.936c-0.486,1.228 -0.428,2.566 0.06,2.506c0.174,-0.021 0.786,-0.521 1.319,-1.082c0.528,-0.596 1.044,-1.013 1.126,-0.917c0.235,0.183 0.468,1.217 0.565,2.586c0.157,2.14 -3.019,5.398 -6.194,6.354c-0.75,0.234 -1.753,0.711 -2.242,1.054c-1.083,0.7 -1.066,0.839 -0.69,-3.314c0.473,-5.085 1.716,-7.645 3.765,-7.968c0.593,-0.072 1.378,-0.31 1.745,-0.497c0.859,-0.495 1.05,-0.094 0.546,1.278Z"
             style="fill:#ff0;fill-rule:nonzero;stroke:#505050;stroke-width:1px;"
             id="path4055" /></g><g
           id="g4061"><path
             d="M175.267,333.572c0.156,0.123 -0.02,0.994 -0.401,1.926c-0.347,0.928 -0.655,2.452 -0.644,3.407c-0.021,1.56 -0.104,1.747 -1.544,2.703c-0.852,0.565 -1.908,1.19 -2.309,1.381c-0.742,0.304 -0.781,0.273 -0.457,-0.546c0.158,-0.444 0.644,-1.389 1.029,-2.002c0.381,-0.649 1.361,-2.469 2.118,-4.084c1.358,-2.786 1.664,-3.178 2.208,-2.785Z"
             style="fill:#ff0;fill-rule:nonzero;stroke:#505050;stroke-width:1px;"
             id="path4059" /></g><g
           id="g4066"><g
             id="outline-1"><path
               d="M201.944,251.844c0.022,0.174 0.218,0.327 0.392,0.306c0.209,-0.026 0.327,-0.217 0.306,-0.392c-0.026,-0.209 -0.182,-0.331 -0.392,-0.306c-0.174,0.022 -0.331,0.183 -0.306,0.392Z"
               style="fill-rule:nonzero;stroke:#505050;stroke-width:1px;"
               id="path4063" /></g></g><g
           id="g4071"><g
             id="outline-2"><path
               d="M196.447,330.476c-0.49,0.627 -0.403,1.041 0.224,0.964c0.279,-0.034 0.485,-0.378 0.438,-0.762c-0.099,-0.802 -0.173,-0.828 -0.662,-0.202Z"
               style="fill-rule:nonzero;stroke:#505050;stroke-width:1px;"
               id="path4068" /></g></g><g
           id="g4076"><g
             id="outline-3"><path
               d="M191.922,19.132c-2.209,1.899 -2.209,1.899 -1.935,2.113c0.121,0.127 0.693,-0.12 1.252,-0.472c1.204,-0.856 1.344,-0.873 1.425,-0.21c0.086,0.697 0.535,0.607 1.138,-0.246c0.665,-0.932 0.596,-1.206 -0.137,-1.116c-0.597,0.038 -0.597,0.038 -0.047,-0.384c0.55,-0.422 0.678,-1.11 0.19,-1.05c-0.14,0.017 -0.982,0.652 -1.886,1.365Z"
               style="fill-rule:nonzero;stroke:#505050;stroke-width:1px;"
               id="path4073" /></g></g><g
           id="g4081"><g
             id="outline-4"><path
               d="M194.43,20.523c0.102,0.837 0.638,0.877 0.854,0.037c0.219,-0.806 0.176,-0.872 -0.417,-0.799c-0.279,0.034 -0.485,0.378 -0.437,0.762Z"
               style="fill-rule:nonzero;stroke:#505050;stroke-width:1px;"
               id="path4078" /></g></g><g
           id="g4086"><g
             id="outline-5"><path
               d="M187.757,24.422c0.218,0.044 0.636,-0.007 0.872,-0.107c0.196,-0.13 0.013,-0.178 -0.475,-0.118c-0.488,0.06 -0.654,0.151 -0.397,0.225Z"
               style="fill-rule:nonzero;stroke:#505050;stroke-width:1px;"
               id="path4083" /></g></g><g
           id="g4091"><g
             id="outline-6"><path
               d="M163.021,53.056c-5.556,1.744 -9.06,3.484 -8.046,3.962c0.227,0.113 1.483,-0.324 2.818,-0.984c1.34,-0.624 2.989,-1.322 3.634,-1.543c3.851,-1.217 6.08,-2.092 5.872,-2.35c-0.291,-0.353 -0.326,-0.349 -4.278,0.915Z"
               style="fill-rule:nonzero;stroke:#505050;stroke-width:1px;"
               id="path4088" /></g></g><g
           id="g4096"><g
             id="outline-7"><path
               d="M185.168,50.62c0.295,0.388 3.846,0.767 4.091,0.453c0.372,-0.435 -0.622,-0.738 -2.465,-0.759c-1.277,-0.02 -1.796,0.079 -1.627,0.306Z"
               style="fill-rule:nonzero;stroke:#505050;stroke-width:1px;"
               id="path4093" /></g></g><g
           id="g4101"><g
             id="outline-8"><path
               d="M148.105,55.56c0.06,0.488 2.319,1.875 2.912,1.802c0.279,-0.034 0.467,-0.234 0.441,-0.444c-0.025,-0.209 0.245,-0.313 0.607,-0.251c0.832,0.146 2.378,-1.39 1.703,-1.696c-0.64,-0.311 -5.71,0.205 -5.663,0.589Z"
               style="fill-rule:nonzero;stroke:#505050;stroke-width:1px;"
               id="path4098" /></g></g><g
           id="g4106"><g
             id="outline-9"><path
               d="M136.371,62.347c-0.865,0.743 -0.891,0.817 -0.194,0.731c1.116,-0.137 1.806,-0.575 1.737,-1.133c-0.081,-0.663 -0.391,-0.59 -1.543,0.402Z"
               style="fill-rule:nonzero;stroke:#505050;stroke-width:1px;"
               id="path4103" /></g></g><g
           id="g4111"><g
             id="outline-10"><path
               d="M139.548,62.275c-0.083,0.187 -0.611,0.5 -1.152,0.708c-0.986,0.334 -1.244,0.825 -0.643,1.106c0.413,0.197 3.076,-1.475 3.02,-1.929c-0.051,-0.418 -0.997,-0.338 -1.225,0.115Z"
               style="fill-rule:nonzero;stroke:#505050;stroke-width:1px;"
               id="path4108" /></g></g><g
           id="g4116"><g
             id="outline-11"><path
               d="M141.018,63.865c-0.507,0.487 -0.612,0.783 -0.312,0.923c0.488,0.223 2.046,-0.924 1.982,-1.447c-0.068,-0.558 -0.849,-0.285 -1.67,0.524Z"
               style="fill-rule:nonzero;stroke:#505050;stroke-width:1px;"
               id="path4113" /></g></g><g
           id="g4121"><g
             id="outline-12"><path
               d="M143.81,64.407c-0.318,0.287 -0.559,0.635 -0.542,0.775c0.047,0.383 1.251,0.094 1.649,-0.415c0.826,-1.057 -0.098,-1.369 -1.107,-0.36Z"
               style="fill-rule:nonzero;stroke:#505050;stroke-width:1px;"
               id="path4118" /></g></g><g
           id="g4126"><g
             id="outline-13"><path
               d="M115.831,69.506c-0.412,0.971 0.06,2.223 1.118,3.049c0.587,0.459 0.73,0.76 0.485,1.074c-0.611,0.783 -0.259,1.058 0.901,0.703c0.955,-0.294 1.169,-0.285 1.163,0.247c0.021,0.458 0.396,0.624 1.463,0.67c0.785,0.045 2.149,0.196 3.046,0.299c1.259,0.164 2.131,0.057 3.867,-0.511c1.265,-0.367 2.717,-0.652 3.249,-0.646c0.754,0.084 1.016,-0.09 1.091,-0.63c0.04,-0.536 0.302,-0.71 0.947,-0.647c0.536,0.04 0.937,-0.151 1.008,-0.443c0.163,-0.692 0.829,-0.739 2.288,-0.104c0.784,0.329 1.464,0.387 1.9,0.192c0.628,-0.36 0.628,-0.36 -0.19,-0.685c-0.444,-0.158 -0.805,-0.503 -0.766,-0.755c0.005,-0.249 -0.618,-0.42 -1.572,-0.409c-1.595,-0.017 -2.658,-0.311 -4.404,-1.265c-0.531,-0.289 -1.947,-0.575 -3.189,-0.6c-1.887,-0.087 -2.576,0.069 -4.491,0.906c-1.243,0.542 -2.74,1.328 -3.329,1.718c-0.982,0.652 -1.122,0.669 -2.093,0.257c-0.788,-0.363 -1.084,-0.752 -1.29,-1.859c-0.298,-1.557 -0.746,-1.749 -1.202,-0.561Z"
               style="fill-rule:nonzero;stroke:#505050;stroke-width:1px;"
               id="path4123" /></g></g><g
           id="g4130"><path
             d="M129.487,71.158c0.034,0.279 -0.006,0.531 -0.076,0.54c-0.069,0.008 -0.239,-0.219 -0.413,-0.481c-0.138,-0.266 -0.099,-0.518 0.076,-0.54c0.209,-0.025 0.378,0.202 0.413,0.481Z"
             style="fill:#ff0;fill-rule:nonzero;stroke:#505050;stroke-width:1px;"
             id="path4128" /></g><g
           id="g4134"><path
             d="M123.592,72.165c0.094,0.767 -0.268,0.988 -1.083,0.699c-0.596,-0.245 -0.648,-0.381 -0.295,-0.672c0.677,-0.543 1.314,-0.551 1.378,-0.027Z"
             style="fill:#ff0;fill-rule:nonzero;stroke:#505050;stroke-width:1px;"
             id="path4132" /></g><g
           id="g4139"><g
             id="outline-14"><path
               d="M162.993,67.822c0.257,0.075 0.567,0.002 0.659,-0.116c0.126,-0.122 -0.096,-0.201 -0.475,-0.119c-0.384,0.047 -0.476,0.165 -0.184,0.235Z"
               style="fill-rule:nonzero;stroke:#505050;stroke-width:1px;"
               id="path4136" /></g></g><g
           id="g4144"><g
             id="outline-15"><path
               d="M165.435,67.523c0.257,0.074 0.566,0.001 0.658,-0.117c0.127,-0.121 -0.095,-0.2 -0.475,-0.118c-0.383,0.047 -0.475,0.164 -0.183,0.235Z"
               style="fill-rule:nonzero;stroke:#505050;stroke-width:1px;"
               id="path4141" /></g></g><g
           id="g4149"><g
             id="outline-16"><path
               d="M110.79,74.586c-0.48,0.13 -1.91,0.589 -3.236,1.035c-1.296,0.407 -2.966,0.93 -3.646,1.155c-0.79,0.204 -1.274,0.582 -1.24,0.861c0.103,0.837 0.591,0.777 3.021,-0.194c1.278,-0.547 3.511,-1.387 4.973,-1.885c3.397,-1.161 3.512,-1.954 0.128,-0.972Z"
               style="fill-rule:nonzero;stroke:#505050;stroke-width:1px;"
               id="path4146" /></g></g><g
           id="g4154"><g
             id="outline-17"><path
               d="M112.228,80.534c0.026,0.209 0.448,0.476 0.958,0.591c0.658,0.167 1.067,0.612 1.491,1.764c0.668,1.688 1.626,1.995 1.433,0.426c-0.205,-1.674 -0.727,-2.46 -1.802,-2.859c-1.224,-0.452 -2.139,-0.41 -2.08,0.078Z"
               style="fill-rule:nonzero;stroke:#505050;stroke-width:1px;"
               id="path4151" /></g></g><g
           id="g4159"><g
             id="outline-18"><path
               d="M138.973,114.105c-0.812,4.631 -2.809,9.125 -4.927,10.907c-0.703,0.618 -2.062,2.236 -3.024,3.629c-0.997,1.396 -1.985,2.58 -2.194,2.605c-0.244,0.03 -0.637,0.574 -0.874,1.241c-0.237,0.666 -0.801,1.55 -1.238,2.028c-1.354,1.37 -3.38,3.035 -3.537,2.913c-0.078,-0.062 0.268,-0.706 0.749,-1.402c0.515,-0.701 0.791,-1.337 0.569,-1.416c-0.191,-0.118 1.382,-2.01 3.479,-4.25c3.665,-3.884 6.651,-7.827 6.181,-8.194c-0.118,-0.092 -1.206,1.14 -2.425,2.741c-1.185,1.597 -3.016,3.698 -4.025,4.707c-1.009,1.009 -2.485,2.535 -3.232,3.371c-0.747,0.835 -1.485,1.457 -1.603,1.365c-0.231,-0.149 0.109,-1.996 0.979,-5.289c0.818,-3.145 4.74,-8.973 8.238,-12.199c1.59,-1.47 3.093,-3.354 2.858,-3.537c-0.352,-0.276 -4.589,4.139 -7.347,7.628c-2.574,3.255 -4.928,7.155 -4.821,8.027c0.022,0.174 -0.313,1.773 -0.735,3.524l-0.783,3.141l-0.798,-1.601c-1.406,-2.801 -1.452,-5.77 -0.109,-8.094c1.054,-1.794 0.384,-2.065 -0.819,-0.324c-0.866,1.31 -1.151,2.159 -1.171,3.436c-0.028,0.924 -0.17,1.791 -0.331,1.917c-0.127,0.122 -0.706,-0.268 -1.206,-0.879c-1.082,-1.318 -2.21,-1.569 -1.35,-0.33c0.265,0.428 1.082,1.319 1.77,2.013c2.378,2.364 2.691,2.892 2.974,5.193c0.377,3.07 -0.013,3.649 -1.054,1.511c-0.82,-1.776 -2.273,-2.943 -3.459,-2.797c-0.662,0.081 -0.615,0.181 0.477,1.003c1.175,0.918 2.382,2.965 3.935,6.668c0.65,1.549 0.98,1.933 1.504,1.869c0.523,-0.064 0.641,-0.256 0.446,-0.692c-0.426,-0.868 0.212,-3.46 1.165,-4.922c0.836,-1.271 3.972,-4.276 4.565,-4.349c0.174,-0.021 0.561,0.25 0.852,0.603c0.748,0.9 1.328,0.722 1.78,-0.501c0.456,-1.189 2.208,-3.352 5.445,-6.687c2.232,-2.292 3.339,-4.234 3.176,-5.559c-0.094,-0.768 -0.678,-0.625 -0.859,0.211c-0.207,1.194 -1.921,3.67 -3.904,5.684c-1.04,1.048 -2.477,2.605 -3.185,3.471l-1.294,1.575l0.217,-1.407c0.19,-1.05 1.108,-2.508 3.805,-5.919c2.849,-3.607 3.768,-5.065 4.562,-7.252c1.196,-3.227 1.859,-7.061 1.398,-7.641c-0.248,-0.289 -0.507,0.487 -0.82,2.26Z"
               style="fill-rule:nonzero;stroke:#505050;stroke-width:1px;"
               id="path4156" /></g></g><g
           id="g4164"><g
             id="outline-19"><path
               d="M132.79,155.436c-0.619,1.881 -1.591,4.054 -2.168,4.833c-1.023,1.471 -1.199,2.059 -0.536,1.978c1.22,-0.15 4.488,-7.561 4.064,-9.279c-0.168,-0.794 -0.4,-0.376 -1.36,2.468Z"
               style="fill-rule:nonzero;stroke:#505050;stroke-width:1px;"
               id="path4161" /></g></g><g
           id="g4169"><g
             id="outline-20"><path
               d="M131.927,161.383c-0.575,1.664 -2.821,4.418 -4.003,4.882c-1.217,0.468 -1.048,0.978 0.277,0.815c0.697,-0.085 1.028,0.016 0.993,0.303c-0.106,0.58 -3.751,3.187 -4.584,3.325c-0.383,0.047 -0.571,0.247 -0.437,0.478c0.33,0.668 1.617,0.191 3.795,-1.386c1.725,-1.239 1.939,-1.513 1.854,-2.494c-0.103,-0.837 0.177,-1.438 1.143,-2.512c1.345,-1.44 1.99,-3.112 1.648,-4.168c-0.165,-0.475 -0.318,-0.279 -0.686,0.757Z"
               style="fill-rule:nonzero;stroke:#505050;stroke-width:1px;"
               id="path4166" /></g></g><g
           id="g4174"><g
             id="outline-21"><path
               d="M100.461,170.38c-0.337,0.431 -0.111,0.828 0.412,0.764c0.279,-0.034 0.506,-0.204 0.485,-0.378c-0.056,-0.454 -0.653,-0.699 -0.897,-0.386Z"
               style="fill-rule:nonzero;stroke:#505050;stroke-width:1px;"
               id="path4171" /></g></g><g
           id="g4179"><g
             id="outline-22"><path
               d="M98.245,173.095c-0.349,0.326 -1.527,0.825 -2.626,1.102c-2.303,0.565 -2.387,1.319 -0.111,0.827c1.796,-0.362 5.489,-2.869 3.859,-2.598c-0.245,0.03 -0.738,0.339 -1.122,0.669Z"
               style="fill-rule:nonzero;stroke:#505050;stroke-width:1px;"
               id="path4176" /></g></g><g
           id="g4184"><g
             id="outline-23"><path
               d="M86.327,178.099c0.03,0.244 -0.861,0.778 -2.047,1.207l-2.133,0.793l2.55,-0.278c2.027,-0.213 2.503,-0.378 2.451,-0.796c-0.051,-0.419 0.494,-0.592 3.005,-0.9c1.919,-0.236 3.292,-0.582 3.607,-0.903c0.445,-0.409 -0.156,-0.406 -3.474,-0.034c-2.999,0.368 -4.002,0.562 -3.959,0.911Z"
               style="fill-rule:nonzero;stroke:#505050;stroke-width:1px;"
               id="path4181" /></g></g><g
           id="g4189"><g
             id="outline-24"><path
               d="M103.163,176.244c-0.144,0.266 -0.35,0.893 -0.43,1.398c-0.287,1.699 -1.378,4.347 -1.91,4.625c-0.301,0.143 -1.44,0.389 -2.521,0.522c-1.983,0.279 -6.079,1.525 -6.446,1.995c-0.463,0.552 0.417,0.515 3.095,-0.168c1.583,-0.371 3.781,-0.924 4.919,-1.17c1.687,-0.384 2.15,-0.654 2.876,-1.663c0.485,-0.662 0.844,-1.485 0.806,-1.799c-0.035,-0.279 0.221,-1.372 0.593,-2.374c0.373,-1.001 0.658,-1.851 0.649,-1.92c-0.034,-0.279 -1.36,0.167 -1.631,0.554Z"
               style="fill-rule:nonzero;stroke:#505050;stroke-width:1px;"
               id="path4186" /></g></g><g
           id="g4194"><g
             id="outline-25"><path
               d="M79.312,180.943c0.135,0.231 0.587,0.459 1.01,0.442c0.571,0.036 0.763,-0.129 0.62,-0.43c-0.134,-0.231 -0.587,-0.459 -1.01,-0.442c-0.571,-0.037 -0.763,0.129 -0.62,0.43Z"
               style="fill-rule:nonzero;stroke:#505050;stroke-width:1px;"
               id="path4191" /></g></g><g
           id="g4199"><g
             id="outline-26"><path
               d="M74.785,182.136c0.022,0.174 0.497,0.293 1.055,0.224c0.593,-0.072 1.129,-0.315 1.212,-0.503c0.114,-0.226 -0.321,-0.314 -1.054,-0.224c-0.697,0.086 -1.238,0.294 -1.213,0.503Z"
               style="fill-rule:nonzero;stroke:#505050;stroke-width:1px;"
               id="path4196" /></g></g><g
           id="g4204"><g
             id="outline-27"><path
               d="M63.361,192.318c-0.944,1.533 -1.691,2.084 -4.225,3.068c-0.812,0.312 -1.501,0.751 -1.506,0.999c-0.544,3.36 -0.812,4.632 -1.167,5.206c-0.231,0.418 -0.407,1.006 -0.369,1.32c0.039,0.314 -0.352,1.743 -0.848,3.184c-0.5,1.407 -0.899,2.766 -0.873,2.975c0.119,0.977 0.933,-0.185 1.805,-2.593c1.32,-3.667 2.182,-5.012 5.099,-7.778c2.918,-2.766 6.44,-4.933 9.593,-5.78c2.699,-0.792 4.916,-1.772 4.93,-2.234c0.009,-0.214 -1.765,-0.244 -4.293,-0.075c-2.385,0.187 -4.956,0.29 -5.776,0.249c-1.386,-0.042 -1.486,0.006 -2.37,1.459Z"
               style="fill-rule:nonzero;stroke:#505050;stroke-width:1px;"
               id="path4201" /></g></g><g
           id="g4209"><g
             id="outline-28"><path
               d="M183.959,218.968c-0.114,0.226 0.742,1.714 1.854,3.277c3.572,4.872 5.543,10.259 6.889,18.626c0.594,3.68 0.64,4.63 0.242,6.874c-0.812,4.631 -2.271,8.315 -3.966,10.081c-1.948,2.009 -4.126,3.303 -5.338,3.24c-0.501,-0.045 -1.18,-0.103 -1.468,-0.139c-0.288,-0.035 -0.589,0.108 -0.598,0.322c-0.048,0.183 0.662,0.485 1.603,0.652c1.594,0.3 1.734,0.283 3.405,-0.807c3.998,-2.615 5.547,-5.284 7.079,-12.127c0.691,-3.024 0.727,-3.878 0.355,-6.912c-0.865,-7.045 -3.42,-14.591 -6.453,-19.104c-2.419,-3.562 -3.324,-4.584 -3.604,-3.983Z"
               style="fill-rule:nonzero;stroke:#505050;stroke-width:1px;"
               id="path4206" /></g></g><g
           id="g4214"><g
             id="outline-29"><path
               d="M189.217,219.986c0.048,0.384 0.165,0.476 0.235,0.184c0.075,-0.257 0.002,-0.567 -0.116,-0.659c-0.122,-0.126 -0.201,0.096 -0.119,0.475Z"
               style="fill-rule:nonzero;stroke:#505050;stroke-width:1px;"
               id="path4211" /></g></g><g
           id="g4219"><g
             id="outline-30"><path
               d="M47.224,103.279c-0.37,0.151 -0.89,0.534 -1.204,0.856c-0.9,1.031 -3.683,2.01 -7.398,2.607c-2.01,0.353 -3.71,0.633 -3.815,0.646c-0.07,0.008 0.056,0.17 0.33,0.384c0.666,0.52 5.065,0.016 7.577,-0.859c3.974,-1.373 4.597,-1.485 6.523,-1.085c2.287,0.463 5.942,3.13 6.105,4.455c0.06,0.488 0.433,1.505 0.849,2.303c0.417,0.799 1.072,2.382 1.492,3.499c0.992,2.604 2.99,5.899 3.457,5.665c0.436,-0.195 0.117,-1.643 -0.483,-2.207c-0.566,-0.567 -1.721,-6.232 -1.759,-8.847c0.002,-1.133 -0.786,-3.514 -1.368,-4.222c-0.409,-0.445 -2.247,-1.282 -4.498,-2.032c-4.351,-1.413 -4.857,-1.492 -5.808,-1.163Z"
               style="fill-rule:nonzero;stroke:#505050;stroke-width:1px;"
               id="path4216" /></g></g><g
           id="g4224"><g
             id="outline-31"><path
               d="M12.348,113.048c-0.603,0.853 -0.577,1.063 0.051,0.986c0.279,-0.035 0.622,0.171 0.766,0.472c0.273,0.497 0.343,0.489 0.902,-0.146c0.804,-0.949 0.709,-1.433 -0.358,-1.762c-0.736,-0.228 -0.976,-0.163 -1.361,0.45Z"
               style="fill-rule:nonzero;stroke:#505050;stroke-width:1px;"
               id="path4221" /></g></g></g></g></g><rect
     style="fill:none;stroke:none;stroke-width:3"
     id="crowned"
     width="31.7772"
     height="17.2769"
     x="132.48"
     y="31.0943"
     transform="rotate(7.39066)" /></svg>
