<?xml version="1.0" encoding="utf-8"?>
<svg xmlns="http://www.w3.org/2000/svg" xmlns:dc="http://purl.org/dc/elements/1.1/"
     xmlns:xl="http://www.w3.org/1999/xlink"
     xmlns:xlink="http://www.w3.org/1999/xlink"
     version="1.1"
     viewBox="58.5 63 247.5 292.5"
     width="247.5"
     height="292.5"
     preserveAspectRatio="xMidYMid meet"
     zoomAndPan="magnify"
     contentScriptType="application/ecmascript"
     contentStyleType="text/css">
   <defs/>
   <metadata xmlns="" xmlns:svg="http://www.w3.org/2000/svg"
             xmlns:rdf="http://www.w3.org/1999/02/22-rdf-syntax-ns#"
             xmlns:cc="http://creativecommons.org/ns#">
      <rdf:RDF>
         <cc:Work rdf:about="">
            <dc:creator>
               <cc:Agent>
                  <dc:title>http://heraldicart.org Stag Lodged Regardant.svg</dc:title>
               </cc:Agent>
            </dc:creator>
         </cc:Work>
      </rdf:RDF>
   </metadata>
   <g stroke-opacity="1" stroke-dasharray="none" stroke="#505050" fill="#ffff00"
      fill-opacity="1">
      <title>Stag Lodged Regardant</title>
      <g>
         <title>Art</title>
         <g>
            <g>
               <g  id="outline-0">
                  <path
                        d="M 145.32322 68.134655 C 143 69.41643 139.75551 72.30042 137.0718 75.42475 C 133.3867 79.71068 128.7002 85.47866 127.93915 86.68033 C 127.61871 87.2411 125.89632 89.28393 124.17394 91.2867 C 121.12973 94.73147 116.80374 100.90001 116.80374 101.78123 C 116.80374 101.98151 116.44324 102.50223 116.00263 102.90278 C 115.08135 103.74395 112.4377 103.50362 109.63381 102.2619 C 108.67248 101.86134 106.2291 101.22046 105.78849 100.85996 C 105.34788 100.53951 104.30644 100.0989 103.46527 99.85857 C 102.62411 99.61824 100.381 98.49668 98.53845 97.37513 C 96.6959 96.21352 91.30636 92.60758 90.58537 92.24708 C 88.58259 91.12553 87.36298 88.56293 85.84088 85.79911 C 84.51905 83.31567 84.47899 83.15545 84.39888 77.86813 C 84.31877 73.5822 84.15855 72.100144 83.55772 70.73826 C 82.87677 69.21615 82.6765 69.05593 81.35467 69.05593 C 80.11295 69.05593 79.83256 69.21615 79.35189 70.37776 C 78.71101 71.93992 77.94995 78.34879 77.94995 82.35434 C 77.94995 85.83916 79.31184 90.72593 81.03422 93.20937 C 81.9555 94.57125 82.15577 95.3323 82.15577 97.17486 C 82.15577 99.13757 81.99555 99.61824 80.99417 100.65968 C 78.91128 102.82267 76.62812 103.62378 72.94302 103.4235 C 71.18058 103.3434 69.37809 103.063 68.93748 102.78262 C 68.49687 102.54229 67.17504 102.06162 66.01343 101.70112 C 64.05071 101.06023 63.850435 101.06023 62.889104 101.70112 C 62.04794 102.2619 61.88772 102.6224 62.007884 104.02434 C 62.12805 105.50639 62.32833 105.82683 64.25099 107.18872 C 67.49548 109.43182 69.89881 109.79232 74.70546 108.79094 C 78.190285 108.06994 82.07566 106.90833 84.15855 105.90694 C 86.12126 104.94561 89.80637 103.90417 91.16825 103.90417 C 93.85197 103.90417 100.381 106.50777 102.78433 108.51055 C 103.10477 108.79094 103.94594 109.31166 104.58683 109.6321 C 107.03021 110.87382 110.75536 113.99814 112.27747 116.04097 C 114.16008 118.64458 115.0413 120.76751 116.00263 125.33384 C 116.44324 127.29655 117.08413 129.94021 117.40457 131.14188 C 118.3659 134.66675 118.28579 134.9872 116.2029 135.54797 C 114.96119 135.90847 113.2388 135.98858 110.79542 135.7883 L 107.19043 135.50792 L 107.19043 136.74964 C 107.19043 138.71236 107.87137 139.55352 110.2747 140.59496 C 112.19736 141.47618 113.03853 141.59635 116.36313 141.51624 L 120.1684 141.43613 L 121.53028 144.40023 C 122.29133 146.0425 123.29272 148.16544 123.73333 149.12677 C 124.17394 150.0881 125.33555 151.73038 126.33693 152.73176 C 127.29827 153.73315 128.41982 155.01492 128.78032 155.5757 C 130.8632 158.9003 134.66847 163.3064 140.87706 169.83544 C 146.96549 176.12414 148.16715 177.64625 149.40887 180.2098 C 150.20998 181.85207 150.85087 183.49435 150.85087 183.8148 C 150.85087 184.13523 149.9296 184.89629 148.76799 185.53717 C 145.92405 187.01923 143.04006 189.743 142.03867 191.86594 C 141.23756 193.46815 141.03728 193.62838 139.71545 193.62838 C 137.23202 193.66843 133.86736 194.66982 129.74165 196.59248 C 124.935 198.87564 125.61594 198.43503 121.41011 202.04002 C 117.80512 205.1243 115.8424 206.56628 112.91836 208.0884 C 111.23603 208.9696 110.59514 210.0511 111.75675 210.0511 C 112.03714 210.0511 112.5178 210.29144 112.75814 210.61189 C 113.43908 211.413 112.5178 211.97377 108.51226 213.25554 C 104.26638 214.57737 103.86583 215.33843 107.3106 215.69893 C 108.59237 215.85915 109.75398 216.09948 109.9142 216.2597 C 110.07442 216.37987 109.63381 216.9006 108.99293 217.38126 C 104.86721 220.2252 100.34095 226.79429 99.13928 231.60094 C 97.73734 237.2888 97.49701 239.4518 97.13651 249.10517 C 96.81607 258.63837 96.61579 260.48092 95.45418 265.12735 C 94.29258 269.77378 93.49147 275.58182 93.29119 281.3498 C 93.0108 288.11918 93.09091 288.39957 96.57574 293.16616 C 97.81745 294.9286 99.17934 297.0115 99.61995 297.85265 L 100.34095 299.29465 L 95.73457 302.33886 C 93.17102 304.0212 90.88786 305.38308 90.68759 305.38308 C 90.12681 305.38308 82.43616 312.1124 81.67511 313.23394 C 81.35467 313.75467 80.63367 315.437 80.11295 316.99916 C 78.91128 320.40387 79.071505 323.2478 80.59361 326.25197 C 82.19583 329.4564 83.4776 330.1774 88.36437 330.69812 C 89.3257 330.8183 89.36576 330.9785 89.60609 333.8625 C 89.96659 338.10838 90.48731 339.39015 92.89063 341.6733 C 95.77463 344.4772 96.73596 344.79764 101.70283 344.51725 C 105.74843 344.2769 107.03021 343.95647 112.79819 341.6733 C 116.5634 340.1512 121.41011 339.0697 130.02204 337.828 C 135.70991 337.0269 145.36327 336.62633 158.86196 336.62633 L 172.4007 336.62633 L 175.12447 337.66777 C 180.73223 339.75065 183.7364 341.8736 186.0596 345.3584 C 186.38005 345.83908 187.62177 346.88052 188.82343 347.7217 C 189.98504 348.56285 191.4671 349.64435 192.10798 350.125 C 192.9091 350.7659 193.75025 351.0463 195.03203 351.0463 C 197.55552 351.0463 198.4768 350.16507 199.03757 347.241 L 199.51824 344.8377 L 201.7213 344.95786 C 204.7655 345.15814 206.60805 344.31697 207.24894 342.47442 C 207.88983 340.712 208.69094 340.27137 211.89537 339.7907 C 215.70064 339.18987 240.93557 338.46888 260.20224 338.38877 C 269.7755 338.3487 278.06697 338.30866 278.5877 338.2686 C 279.1084 338.22854 280.06975 337.6277 280.79074 336.86666 C 281.75207 335.8252 282.47307 335.4647 284.03523 335.26444 C 287.3999 334.8639 289.24244 332.10006 288.2811 328.85557 C 286.2383 321.68564 286.2383 319.9232 288.08084 315.39694 C 289.80322 311.111 289.84327 311.07095 290.52422 312.35272 C 290.84466 312.95356 291.1651 313.39417 291.28527 313.274 C 291.36538 313.1939 291.6057 311.79195 291.806 310.18973 C 292.00627 308.5875 292.3267 307.1455 292.527 306.94524 C 292.72727 306.74496 293.969 307.90657 295.41098 309.62895 C 296.77287 311.27123 298.13475 312.553 298.3751 312.4729 C 299.21625 312.1925 299.13614 309.90934 298.0947 306.9052 C 297.33364 304.62202 297.25353 303.94108 297.6541 303.86097 C 298.0146 303.78086 298.29497 302.69936 298.4552 300.65653 C 298.65547 298.85404 299.21625 296.41066 299.85714 294.7684 C 300.45797 293.20622 301.0588 290.64267 301.25908 288.96034 C 301.37924 287.31807 301.7798 284.91474 302.1403 283.63297 C 302.98146 280.30837 302.54085 278.54593 299.93725 274.54038 C 298.69553 272.65777 297.33364 270.7351 296.89303 270.25445 C 294.97037 268.21162 294.64993 267.85112 294.64993 267.65084 C 294.64993 266.9699 285.55734 257.75715 284.8764 257.7171 C 284.67612 257.7171 283.95512 257.31654 283.27418 256.79582 C 279.90952 254.27232 273.02 251.54855 266.1705 250.0665 C 262.60557 249.2654 260.84313 249.14523 253.79337 249.10517 C 246.98395 249.10517 245.34167 249.22534 244.18006 249.74606 C 243.419 250.10656 241.41624 250.62728 239.77396 250.90767 C 238.1317 251.148 235.6883 251.62866 234.36648 251.90905 C 229.88027 252.9505 223.07084 253.43116 216.38158 253.15077 C 206.68816 252.79027 204.48511 252.38972 193.02926 249.2654 L 188.503 247.98362 L 187.70188 246.18112 C 187.22122 245.17974 185.29855 241.37447 183.3759 237.68937 C 177.80819 227.11473 176.8869 224.59124 176.8869 219.5843 C 176.8869 216.1796 176.20597 212.61466 174.76397 208.04834 C 174.24325 206.40606 173.88275 204.8439 174.04297 204.56351 C 174.16314 204.32318 175.16453 203.52207 176.24602 202.76102 C 178.36896 201.35908 179.97118 198.95575 180.57201 196.27203 C 180.77229 195.43087 181.25295 194.2292 181.6535 193.66843 C 182.05406 193.10765 182.45462 192.30655 182.53473 191.86594 C 182.69495 191.10488 183.77645 190.62422 192.02787 187.66011 C 196.6743 185.97778 201.0804 183.65457 202.963 181.93218 C 204.28484 180.69047 206.80833 177.00536 207.56938 175.24292 C 207.88983 174.52193 208.13016 173.11999 208.13016 172.15865 L 208.13016 170.39621 L 206.6481 170.39621 C 205.32628 170.39621 204.88567 170.6766 203.16328 172.63932 C 201.20057 174.88243 197.35524 178.16697 197.0348 177.88658 C 196.9547 177.76642 197.43536 176.56475 198.1163 175.16281 C 200.51962 170.236 201.12046 167.39206 199.9188 166.95145 C 198.4768 166.39067 196.55414 167.19178 195.43258 168.83405 C 193.83036 171.15727 193.02926 171.95838 190.06515 174.32165 C 187.26127 176.48464 184.21706 178.4073 183.456 178.4073 C 182.77506 178.4073 182.21428 176.76503 181.25295 172.1987 C 180.4118 168.03294 180.45185 163.78707 181.37312 161.58402 C 182.45462 158.94036 182.89523 157.97903 184.05684 155.5757 C 184.73778 154.1337 185.89939 151.8906 186.66044 150.56877 C 187.4215 149.24694 188.2226 147.80494 188.42288 147.36433 C 188.66321 146.92372 190.14526 145.12123 191.78754 143.35879 C 195.27236 139.59358 198.07624 135.7082 199.2779 132.98443 C 201.20057 128.57833 199.87874 127.81727 195.1522 130.66121 C 191.94776 132.58387 187.30133 137.19025 184.898 140.79524 C 184.25711 141.75657 182.97534 143.55906 182.014 144.80078 C 181.05268 146.0425 179.93112 147.64472 179.49051 148.40577 C 177.36758 151.9707 176.96702 152.49143 176.04575 153.01215 C 173.96286 154.17376 173.32198 153.93343 166.1921 149.12677 C 164.02911 147.68478 161.26529 145.84223 160.06362 145.04112 C 158.86196 144.24 157.09952 143.03834 156.13819 142.3574 C 155.21691 141.71651 154.29564 141.15574 154.13542 141.15574 C 153.93514 141.15574 153.49453 140.9154 153.13403 140.63502 C 152.45309 140.1944 152.49314 139.99413 153.2542 137.79108 C 154.17547 135.10736 154.29564 130.14049 153.53458 127.13633 C 153.13403 125.65428 152.8937 125.29378 152.01248 125.21367 C 151.13126 125.0935 150.89092 125.33384 150.2901 126.81589 C 149.88954 127.77722 149.04837 129.65982 148.40749 131.06176 C 147.7666 132.42365 147.24588 133.98581 147.24588 134.46648 C 147.24588 134.9872 147.00555 135.74825 146.6851 136.1488 C 146.16438 136.8698 146.08427 136.8698 144.28178 136.18886 C 141.23756 135.02725 140.87706 134.54659 140.19612 130.54104 C 139.87568 128.53827 139.15468 125.41395 138.5939 123.53134 C 136.63118 116.96225 135.50963 115.52025 133.42675 116.88214 C 131.78448 117.96363 131.54414 118.84485 132.02481 122.24957 C 132.62564 126.65567 132.26514 128.49822 130.30242 130.62115 C 129.4212 131.58249 128.49993 132.34354 128.17948 132.34354 C 127.8991 132.34354 127.41843 131.42226 127.09799 130.2206 C 125.61594 124.733 125.2955 118.92496 125.97644 109.87243 C 126.33693 105.30611 126.37699 105.226 128.94054 100.01879 C 132.02481 93.73009 132.86597 92.3682 137.0718 86.72038 C 140.55662 82.11401 142.51934 79.79079 146.04421 76.26591 C 148.20721 74.10292 150.45031 70.57804 150.45031 69.33632 C 150.45031 68.49515 148.88815 67.45371 147.64643 67.45371 C 147.08566 67.45371 146.04421 67.77416 145.32322 68.134655 Z M 131.89963 139.7538 L 131.89963 139.7538 C 131.89963 139.7538 132.99598 139.32258 134.30921 138.96847 C 135.20218 138.75127 138.15329 139.3933 140.11601 140.39468 C 141.15745 140.9154 142.03867 141.5563 142.03867 141.75657 C 142.03867 142.31735 139.71545 143.15851 138.07318 143.15851 C 135.58974 143.15851 131.89963 139.7538 131.89963 139.7538 Z M 151.4517 146.80356 L 151.4517 146.80356 C 151.89231 147.20411 152.8937 147.80494 153.65475 148.12539 C 154.4158 148.44583 155.61747 149.20688 156.25835 149.80771 C 156.9393 150.36849 158.7418 151.8906 160.2639 153.21243 C 162.98767 155.49559 166.95316 159.66135 169.63687 163.10612 C 171.63965 165.66967 172.4007 168.91416 172.20042 173.80093 C 171.87998 181.57169 171.5996 182.0123 167.1935 182.0123 C 165.19072 182.0123 163.74872 181.77196 162.58712 181.25124 C 160.58434 180.32997 156.9393 176.72498 155.8578 174.56198 C 155.41719 173.72082 154.57603 172.35893 154.01525 171.59788 C 153.41442 170.83682 152.49314 169.27466 151.89231 168.19317 C 151.29148 167.07161 150.49037 165.62962 150.08982 164.98873 C 149.6492 164.30779 148.52765 162.26496 147.60638 160.38235 C 146.64505 158.49975 145.56355 156.45692 145.12294 155.85609 C 143.64089 153.65304 145.2431 149.60744 148.76799 146.56322 C 149.88954 145.6019 150.12987 145.6019 151.4517 146.80356 Z M 166.833 191.70571 L 166.833 191.70571 C 166.5526 192.22643 166.03188 193.0676 165.63133 193.58832 C 164.91033 194.5096 164.87028 194.5096 164.87028 193.70849 C 164.87028 192.14632 165.63133 190.8245 166.4725 190.8245 C 167.1935 190.8245 167.23355 190.94466 166.833 191.70571 Z M 199.87874 327.4937 L 199.87874 327.4937 C 205.24617 328.05446 204.52517 328.53513 198.27652 328.5752 C 194.31103 328.61524 193.75025 328.53513 193.10937 327.81413 C 192.38837 327.013 192.42842 327.013 193.95053 327.013 C 194.7917 327.013 197.4754 327.2133 199.87874 327.4937 Z"
                        fill="black"/>
               </g>
            </g>
            <g>
               <g  id="feature-0">
                  <path
                        d="M 148.72793 69.29626 C 148.8481 69.61671 148.80804 70.25759 148.60776 70.65815 C 148.20721 71.49931 144.442 75.74519 140.79695 79.43029 C 137.8729 82.39439 135.95024 84.83778 134.62841 87.28116 C 133.98752 88.36266 132.7458 90.36543 131.82453 91.68726 C 129.70159 94.73147 127.69882 98.65691 126.77754 101.50084 C 126.41705 102.70251 125.7361 104.70528 125.2955 105.90694 C 124.5745 107.90972 124.49438 109.03127 124.5745 117.52302 C 124.61455 126.09489 124.69466 127.21644 125.53583 129.90016 C 126.89771 134.34631 129.38115 139.19302 130.90326 140.43474 C 136.11046 144.76073 136.11046 144.76073 138.2334 144.76073 C 139.91573 144.76073 140.71684 144.48034 143.04006 143.03834 C 145.48344 141.51624 146.00416 140.99552 147.00555 138.91263 C 147.64643 137.63086 148.5677 135.10736 149.04837 133.34493 C 150.3702 128.57833 151.0912 127.05622 151.93237 127.21644 C 152.57325 127.33661 152.65336 127.89738 152.77353 131.54243 C 152.93375 136.98997 152.05253 139.99413 149.36882 143.31873 C 143.12017 151.00938 142.83978 151.61021 143.96133 155.61575 C 144.40194 157.0978 145.76383 159.94174 147.24588 162.38513 C 148.60776 164.70834 150.61054 168.03294 151.65198 169.83544 C 152.69342 171.59788 154.29564 174.16143 155.21691 175.48326 C 156.09813 176.80509 156.85919 178.0468 156.85919 178.24708 C 156.85919 178.7678 153.13403 182.41285 152.6133 182.41285 C 152.33292 182.41285 151.33153 181.0109 150.41026 179.28852 C 149.48898 177.6062 147.60638 175.04265 146.28455 173.60065 C 143.48067 170.5965 137.75274 164.30779 135.18919 161.4238 C 134.22786 160.38235 133.26653 159.18069 133.06625 158.82019 C 132.6657 158.13925 128.49993 153.21243 127.73887 152.57154 C 126.97782 151.8906 123.73333 146.60328 122.65183 144.1599 C 122.051 142.91818 121.41011 141.03557 121.16978 140.03419 C 120.8894 138.99274 120.44878 137.35047 120.12834 136.34908 C 119.8079 135.3477 119.40734 133.70542 119.20706 132.70404 C 119.04684 131.70265 118.44601 129.37944 117.88523 127.49683 C 117.32446 125.65428 116.64352 123.05067 116.36313 121.72885 C 115.8424 119.32552 114.52058 116.6418 112.47775 113.75781 C 111.7968 112.75642 110.19459 111.47465 107.91143 110.15282 C 105.98877 109.03127 102.544 107.0285 100.30089 105.70667 C 95.21385 102.74256 92.36991 101.9014 89.76631 102.6224 C 88.76492 102.90278 87.48315 103.10306 86.92237 103.10306 C 86.3616 103.10306 84.87955 103.66384 83.63783 104.38484 C 80.5135 106.10722 75.14607 107.62933 71.420914 107.8296 C 68.857366 107.94977 68.0162 107.8296 66.53415 107.1086 C 62.969215 105.38622 62.04794 104.10445 63.329714 102.70251 C 63.930546 102.06162 64.21093 102.10168 67.85598 103.3434 C 72.98308 105.14589 76.58807 105.226 78.95134 103.66384 C 84.27871 100.0989 84.75938 97.21491 81.27455 90.16515 C 79.63228 86.96072 79.39195 86.15961 79.31184 83.59606 C 79.27178 81.95378 79.39195 79.43029 79.55217 77.94824 C 80.03284 74.30319 80.31322 71.7797 80.31322 70.93854 C 80.35328 70.57804 80.59361 70.25759 80.874 70.25759 C 82.03561 70.25759 82.63644 71.69959 82.91683 74.86397 C 83.03699 76.62641 83.27733 79.59051 83.43755 81.47312 C 83.63783 84.31706 83.91821 85.31844 85.07982 87.48144 C 87.16271 91.32676 88.52459 92.88892 90.64753 93.89031 C 91.64892 94.37097 93.77185 95.61269 95.33402 96.65413 C 96.89618 97.69558 99.70006 99.33785 101.58267 100.25912 C 103.46527 101.22046 105.26777 102.22184 105.58821 102.46217 C 107.15037 103.70389 111.15592 104.70528 114.60069 104.70528 C 116.36313 104.70528 118.0054 103.82406 118.0054 102.86273 C 118.0054 102.02156 124.77477 92.16792 127.5386 89.0436 C 133.66708 82.0339 138.31351 76.46619 139.03451 75.264525 C 139.91573 73.82253 142.51934 71.37915 145.00277 69.69682 C 146.72516 68.53521 148.36743 68.33493 148.72793 69.29626 Z"
                        fill="#ff0000"/>
               </g>
            </g>
            <g>
               <g  id="feature-1">
                  <path
                        d="M 136.27069 121.20812 C 137.83285 125.65428 138.83423 129.82005 138.83423 131.7427 C 138.83423 133.34493 139.03451 133.74548 140.55662 135.26759 C 141.558 136.26897 142.91989 137.19025 143.92128 137.47064 C 146.00416 138.07147 146.3246 138.55213 145.40333 139.59358 C 144.5221 140.5549 144.20166 140.5549 141.59806 139.43335 C 137.99307 137.87119 135.02897 137.31041 133.3867 137.91125 C 131.46403 138.59219 130.99839 138.40193 130.99839 138.40193 C 130.99839 138.40193 130.11717 137.84616 129.19589 135.9235 C 128.79534 135.08233 128.74527 133.89569 128.74527 133.89569 C 128.74527 133.89569 130.1422 132.98443 131.38392 131.38221 C 131.38392 131.38221 132.85928 129.71439 133.34811 128.45816 C 133.83694 127.20193 133.58697 123.81173 133.58697 123.81173 C 133.54692 121.28824 133.66708 118.96502 133.8273 118.72469 C 134.46819 117.68324 135.38947 118.64458 136.27069 121.20812 Z"
                        fill="#ff0000"/>
               </g>
            </g>
            <g>
               <g  id="feature-2">
                  <path
                        d="M 198.71713 131.14188 C 198.95746 131.54243 197.7558 133.86565 196.75441 134.86703 C 196.47402 135.10736 195.71297 136.1488 195.03203 137.1502 C 194.35109 138.15158 193.4298 139.3933 192.94915 139.91402 C 192.50854 140.43474 191.5472 141.71651 190.86626 142.79801 C 190.18532 143.8795 189.04996 144.73233 188.876 144.93597 C 188.18012 145.75054 184.5375 151.40993 182.53473 155.5757 C 179.89107 161.1434 179.29024 163.58679 179.29024 168.95422 C 179.29024 172.63932 179.45046 173.84098 180.33168 176.32442 C 180.89246 177.9667 181.2129 179.44875 181.01262 179.60897 C 180.4919 180.04958 177.6079 180.77058 175.44491 180.97085 L 173.40209 181.17113 L 173.60236 175.88381 C 173.80264 169.63516 173.40209 167.23183 171.43937 163.38651 C 169.71698 160.02185 164.3095 154.33398 159.46279 150.76905 C 156.2183 148.36572 154.68595 147.51154 151.9524 145.3866 C 150.58798 144.36477 150.37521 144.26003 150.37521 144.26003 C 150.37521 144.26003 150.81081 143.59912 151.21137 142.83807 C 151.77214 141.75657 151.9524 141.7816 151.9524 141.7816 C 151.9524 141.7816 152.37298 141.75657 153.65475 142.75796 C 154.21553 143.19857 154.89647 143.55906 155.17686 143.55906 C 155.81774 143.55906 159.1023 145.80217 159.5429 146.52317 C 159.94346 147.16405 167.07333 151.9707 167.67416 151.9707 C 167.87443 151.9707 168.75565 152.57154 169.55676 153.29254 C 171.39931 154.93481 174.24325 155.81603 175.7253 155.2152 C 176.64658 154.89476 179.29024 152.05082 179.29024 151.40993 C 179.29024 150.84916 183.8165 143.71929 185.41872 141.83668 C 186.38005 140.71513 187.98227 138.63224 189.0237 137.27036 C 191.06654 134.58664 194.20694 132.7345 196.35386 131.38221 C 198.14573 130.26824 198.43674 130.66121 198.71713 131.14188 Z"
                        fill="#ff0000"/>
               </g>
            </g>
            <g>
               <g  id="feature-3">
                  <path
                        d="M 118.83154 138.40193 C 119.02504 139.36489 119.50748 139.97911 119.50748 139.97911 C 119.50748 139.97911 118.80191 140.20163 117.25436 140.37177 C 115.62173 140.51532 116.06717 140.54553 113.88829 140.34603 C 112.55419 140.20163 111.41628 139.76882 110.495 139.52848 C 109.25329 139.20804 108.98406 138.75127 108.51373 137.99136 C 108.15194 137.40681 108.24189 136.59943 108.24189 136.59943 C 108.24189 136.59943 109.93238 137.18934 113.19875 137.27537 C 116.46512 137.3614 118.38092 136.59943 118.38092 136.59943 L 118.80651 138.27175 C 118.80651 138.27175 118.63805 137.43897 118.83154 138.40193 Z"
                        fill="#ff0000"/>
               </g>
            </g>
            <g>
               <g  id="feature-4">
                  <path
                        d="M 198.67707 169.83544 C 198.59696 173.2001 193.95053 180.24986 190.7461 181.89213 C 190.06515 182.21257 189.14388 182.8134 188.70327 183.21396 C 188.26266 183.61451 187.18116 184.13523 186.29994 184.41562 C 185.41872 184.696 184.49745 185.0565 184.29717 185.25679 C 183.05545 186.21812 175.80541 188.10072 171.35926 188.62144 C 164.71005 189.42255 163.02773 190.34383 163.34817 193.02754 C 163.5084 194.26926 163.38822 194.42948 162.58712 194.42948 C 161.62578 194.42948 158.86196 192.86732 158.86196 192.30655 C 158.86196 192.14632 159.1824 191.50544 159.5429 190.94466 C 160.06362 190.1836 160.30395 188.78167 160.38407 185.93773 C 160.50423 183.77473 160.6244 182.0123 160.66445 182.0123 C 160.7045 182.0123 161.38545 182.25263 162.10645 182.57307 C 164.99044 183.77473 168.27499 184.09518 170.83854 183.41424 C 172.12031 183.0938 173.72253 182.8134 174.40347 182.8134 C 175.76536 182.8134 179.81096 181.89213 182.49467 180.9308 C 186.54027 179.4888 191.1066 175.76365 196.51408 169.47494 C 197.23508 168.63378 198.03619 168.03294 198.27652 168.11305 C 198.51685 168.19317 198.71713 168.99427 198.67707 169.83544 Z"
                        fill="#ff0000"/>
               </g>
            </g>
            <g>
               <g  id="feature-5">
                  <path
                        d="M 206.9285 172.63932 C 206.9285 173.2001 206.68816 174.16143 206.36772 174.7222 C 206.04728 175.32304 205.60667 176.32442 205.32628 177.00536 C 205.08595 177.64625 204.12462 179.0482 203.20334 180.08963 C 201.76134 181.69185 200.75996 182.29268 196.3138 184.13523 C 193.46987 185.3369 189.50438 186.89906 187.5016 187.58 C 180.53196 190.02338 176.28608 191.82588 174.72392 193.02754 C 173.88275 193.66843 172.44076 195.43087 171.55954 196.91292 C 170.19765 199.23614 169.8772 199.55658 169.23632 199.19608 C 168.7957 198.9958 168.47527 198.6353 168.47527 198.39497 C 168.47527 198.15464 167.95455 197.43364 167.2736 196.7527 C 166.63272 196.11181 166.07194 195.35076 166.07194 195.11043 C 166.07194 194.83004 166.75288 193.62838 167.59405 192.42671 C 168.7957 190.70433 169.35649 190.1836 170.31782 190.14355 C 172.60098 189.94327 177.5278 189.14216 178.88968 188.7416 C 182.09412 187.78028 187.34138 185.3369 190.7461 183.13385 C 192.74887 181.85207 194.67153 180.81063 195.03203 180.81063 C 196.11353 180.81063 198.95746 178.60758 202.5224 175.04265 C 204.405 173.16004 206.16744 171.59788 206.44783 171.59788 C 206.68816 171.59788 206.9285 172.07854 206.9285 172.63932 Z"
                        fill="#ff0000"/>
               </g>
            </g>
            <g>
               <path d="M 159.42273 184.01507 C 159.66307 185.81756 159.5429 186.4184 158.3813 188.94189 C 157.50007 190.9046 156.41858 192.46677 154.97658 193.82865 C 153.2542 195.47093 152.85364 196.11181 152.85364 197.15325 C 152.85364 198.6353 153.3343 198.83558 153.93514 197.51375 C 154.65614 195.9516 156.49869 194.02893 157.2998 194.02893 C 157.70035 194.02893 158.62163 194.38943 159.34262 194.83004 C 160.06362 195.27065 160.9849 195.63115 161.4255 195.63115 C 162.54706 195.63115 164.71005 197.07314 167.91449 199.91708 C 170.19765 201.91985 171.07887 203.08146 172.16037 205.36462 C 172.96148 206.96684 173.80264 209.04972 174.08303 210.0511 C 174.32336 211.0525 174.72392 212.25416 174.9242 212.77488 C 175.3648 213.89643 175.40486 217.66164 174.96425 217.66164 C 174.80403 217.66164 173.8427 216.86054 172.88137 215.85915 C 170.43798 213.33566 168.39516 212.77488 164.87028 213.53593 C 161.14512 214.33704 161.065 214.41715 161.58573 214.93787 C 161.86612 215.21826 162.70728 215.37848 163.46834 215.33843 C 164.79016 215.21826 164.87028 215.29837 164.87028 216.58015 C 164.87028 218.02214 166.5526 220.06497 167.75427 220.06497 C 168.07471 220.06497 169.19626 220.50558 170.2377 221.06636 C 171.2391 221.58708 172.08026 221.98763 172.12031 221.94758 C 172.12031 221.90752 172.16037 221.18652 172.24048 220.34536 C 172.4007 218.38264 172.60098 218.22242 174.2032 219.02353 C 175.48497 219.5843 175.60514 219.8647 175.88552 221.90752 C 176.32613 225.59262 177.1673 227.91584 180.73223 235.246 C 182.57478 239.0913 184.0969 242.2557 184.0969 242.3358 C 184.0969 242.4159 183.29578 242.49602 182.2944 242.49602 C 180.89246 242.49602 180.25157 242.73635 179.08996 243.73774 C 177.12724 245.46013 177.12724 247.22257 179.0499 248.264 C 180.01124 248.74467 180.77229 248.9049 181.6535 248.70462 C 182.89523 248.46428 182.89523 248.46428 182.89523 250.02645 C 182.89523 250.90767 183.0154 252.18944 183.13556 252.87038 C 183.49606 254.67288 182.3745 254.51266 180.53196 252.54994 C 179.45046 251.38833 178.6093 250.90767 177.04713 250.58722 C 174.68386 250.0665 172.64103 248.985 170.07748 246.90212 C 167.6341 244.89935 166.75288 244.45874 166.03188 244.9394 C 165.67138 245.13968 165.63133 245.2999 165.95177 245.2999 C 166.1921 245.2999 167.39377 246.14107 168.59543 247.1825 C 171.27915 249.54578 174.32336 251.18805 176.52641 251.54855 C 177.44769 251.70878 178.64935 252.2295 179.21013 252.71016 C 180.1314 253.51127 180.21151 253.71155 179.7709 254.67288 C 179.37035 255.5541 179.0499 255.71432 177.64796 255.71432 C 175.96563 255.71432 172.32059 253.99194 169.47665 251.90905 C 168.03466 250.8676 164.7501 249.30545 163.949 249.30545 C 163.62856 249.30545 162.4269 248.66456 161.30534 247.86345 C 159.86334 246.90212 158.58157 246.3814 157.21969 246.22118 C 155.41719 246.0209 155.0567 245.78057 153.49453 243.93802 C 151.25142 241.3344 150.45031 239.7322 150.33015 237.60926 C 150.20998 235.60649 149.32876 235.12582 149.00832 236.8482 C 148.64782 238.61064 148.24726 238.3703 147.72654 236.0471 C 146.76521 231.92138 147.20582 230.23906 149.84948 228.3965 C 151.93237 226.91445 151.73209 226.11334 149.44893 226.8744 C 148.52765 227.19484 147.64643 227.87578 146.96549 228.91723 C 145.9641 230.39928 145.92405 230.67966 146.16438 234.48493 C 146.36466 238.69075 146.76521 239.69214 148.20721 239.69214 C 148.8481 239.69214 149.2887 240.25292 150.0097 241.93525 C 151.69203 245.86068 152.57325 246.58168 156.61885 247.34273 C 157.70035 247.543 159.14235 248.14384 159.82329 248.66456 C 160.50423 249.14523 162.10645 249.94634 163.38822 250.427 C 164.67 250.8676 166.87305 251.98916 168.23493 252.87038 C 173.40209 256.23504 178.6093 257.59693 180.37173 255.9947 C 180.89246 255.5541 181.81373 255.31377 183.0955 255.31377 C 184.8179 255.31377 185.17839 255.15354 186.54027 253.7516 C 187.34138 252.87038 188.1425 251.5886 188.30271 250.94772 C 188.46293 250.26678 188.70327 249.706 188.82343 249.706 C 188.98366 249.706 190.78615 250.26678 192.82898 250.90767 C 197.23508 252.3096 204.72545 253.63144 212.53626 254.4726 C 216.58186 254.9132 230.96177 254.3925 232.96454 253.7516 C 235.6082 252.91044 245.582 250.98778 249.908 250.46706 C 253.35276 250.10656 255.1152 250.0665 258.31964 250.46706 C 269.415 251.7889 273.14015 252.6701 276.7051 254.87316 C 277.70647 255.51404 278.98825 256.15493 279.50897 256.31515 C 279.98963 256.47537 280.87085 256.95604 281.39158 257.3566 C 281.9123 257.7972 282.67335 258.11765 283.03385 258.11765 C 284.4358 258.11765 290.6444 263.6453 290.6444 264.88702 C 290.6444 265.0072 291.12505 265.68813 291.76594 266.36907 C 292.36677 267.00996 293.3281 268.21162 293.92893 268.97267 C 294.52976 269.73373 295.45104 270.85528 296.0118 271.49617 C 296.5726 272.13705 297.05326 272.8981 297.05326 273.1785 C 297.05326 273.49894 297.41375 273.93955 297.89442 274.21994 C 298.33503 274.50033 299.29636 275.94232 300.0574 277.38432 C 301.17897 279.62742 301.3392 280.30837 301.1389 282.11086 C 300.93863 284.43408 300.53808 284.91474 299.49664 283.99347 C 298.33503 282.95203 297.7342 283.2324 298.5353 284.43408 C 299.65686 286.1164 299.49664 291.92445 298.33503 293.92722 C 297.6541 295.08883 297.4538 296.05016 297.4538 298.37337 C 297.4538 300.93692 297.33364 301.4176 296.6527 301.7781 C 295.77148 302.25875 295.6513 302.9397 296.2121 304.7422 C 297.2936 308.26707 297.57398 309.42868 297.3737 309.5889 C 297.0132 309.9494 294.4096 306.9853 293.48832 305.1828 C 293.00766 304.22147 292.3267 302.45903 292.00627 301.29742 C 291.28527 298.814 290.8046 293.28633 291.28527 292.2449 C 291.4455 291.8844 291.5256 291.40372 291.48555 291.20345 C 291.4455 291.00317 291.72588 290.5225 292.08638 290.12195 C 292.44688 289.7214 292.6071 289.20068 292.44688 288.96034 C 292.00627 288.1993 291.1651 289.24073 290.20377 291.6841 C 289.48278 293.60677 289.40267 294.488 289.60294 297.29188 C 289.7231 299.09437 290.12366 301.33748 290.4441 302.2988 C 291.085 304.1814 291.2452 306.9853 290.68444 306.9853 C 290.48416 306.9853 290.20377 306.46457 290.04355 305.8237 C 289.76316 304.5419 287.8405 301.37753 285.5974 298.41343 C 284.7963 297.372 283.875 295.84988 283.59463 295.0087 C 282.87363 293.046 282.91368 289.84156 283.63468 287.75868 C 284.39573 285.5957 284.39573 285.11502 283.59463 285.79596 C 282.59324 286.63713 282.2728 287.8388 282.1927 291.3236 C 282.15263 293.1261 281.9924 294.5681 281.79213 294.5681 C 281.6319 294.5681 281.1112 293.72694 280.59047 292.6855 C 279.4689 290.3623 279.06836 285.11502 279.8294 282.27108 C 280.1098 281.1896 280.5504 279.1868 280.87085 277.78487 C 281.15124 276.38293 281.71202 274.90088 282.03246 274.54038 C 282.75346 273.73927 283.31424 270.9354 282.75346 270.9354 C 282.2728 270.9354 280.22997 273.539 279.54902 274.94094 C 278.9482 276.18265 278.70786 278.3857 278.38742 285.3954 C 278.10703 291.56395 278.26725 292.12472 281.51174 296.21038 C 283.59463 298.814 285.03662 300.89687 285.03662 301.29742 C 285.03662 301.45764 283.39435 304.86236 281.35152 308.82784 L 277.66642 316.11794 L 277.5062 319.8431 C 277.34598 323.40803 277.4261 323.8086 278.98825 328.17463 C 280.8308 333.30172 281.03108 335.34455 279.86947 336.42605 C 279.14847 337.06694 277.5863 337.107 260.72296 337.2672 C 236.6897 337.42744 217.38297 337.74788 212.0556 338.06832 C 208.25033 338.30866 207.7296 338.2686 207.7296 337.70782 C 207.7296 336.50616 206.40778 334.3031 205.4865 333.8625 C 204.20473 333.30172 204.24478 333.9426 205.5666 335.26444 C 206.36772 336.0255 206.52794 336.386 206.12739 336.62633 C 205.72683 336.86666 205.72683 337.22716 206.12739 338.42882 C 206.52794 339.59043 206.52794 339.991 206.12739 340.3515 C 205.72683 340.712 205.5666 340.712 205.44645 340.31143 C 205.32628 340.03104 204.72545 339.55037 204.08456 339.18987 C 203.40362 338.86943 202.72267 338.10838 202.48234 337.5476 C 202.1619 336.6664 201.92157 336.5462 200.7199 336.7465 C 199.35802 336.98683 199.31796 336.94677 198.87735 335.26444 C 198.63702 334.3031 197.91602 332.74095 197.3152 331.81967 C 196.6743 330.85834 196.2337 329.93707 196.35386 329.7368 C 196.47402 329.57657 199.47818 329.41635 203.04312 329.41635 C 206.60805 329.3763 214.05837 329.21607 219.54596 329.05585 C 227.9576 328.7354 230.08055 328.5752 232.76426 327.81413 C 237.61097 326.4923 238.4922 325.93152 238.81263 324.28925 C 239.05297 323.04753 238.9328 322.7271 237.8513 321.7257 C 237.1303 321.12487 236.08886 320.48398 235.48803 320.3638 C 233.04465 319.763 229.07916 317.3997 226.99628 315.31683 C 223.95206 312.15245 222.55012 309.669 222.55012 307.18557 C 222.55012 305.74358 222.42996 305.34302 222.14957 305.78363 C 221.54874 306.74496 221.6689 310.26984 222.42996 312.43284 C 223.51145 315.5972 225.2739 317.11932 231.60265 320.24365 C 234.76703 321.8058 237.4107 323.3279 237.53086 323.64836 C 238.01152 324.89008 233.28498 326.73263 227.67722 327.41357 C 223.8319 327.89424 220.98796 327.81413 211.73515 327.05307 C 208.77105 326.7727 203.52378 326.4122 200.11907 326.2119 C 193.02926 325.81136 190.8262 325.4108 189.6646 324.36936 C 188.46293 323.28786 187.54166 321.3652 187.62177 320.08343 C 187.782 318.28093 186.13972 316.99916 183.77645 316.99916 L 181.77367 316.99916 L 183.33584 313.39417 C 184.65767 310.34995 188.503 298.6137 188.503 297.69243 C 188.503 297.49215 188.26266 297.372 187.94221 297.372 C 187.62177 297.372 187.02094 298.77393 186.29994 301.25737 C 184.29717 308.4273 182.89523 311.9121 181.33307 313.6345 C 180.53196 314.5157 179.4104 315.91766 178.76952 316.71877 C 178.00846 317.7602 177.2474 318.24088 176.16591 318.44115 C 175.3648 318.60137 174.48358 318.8417 174.24325 319.042 C 174.00292 319.24226 171.83992 320.0033 169.4366 320.7243 C 167.03327 321.48537 164.54983 322.3666 163.86889 322.68703 C 160.74456 324.28925 155.8578 324.80997 139.23479 325.4108 C 130.10215 325.73124 127.57865 325.6912 124.41427 325.21052 C 120.20845 324.56964 116.00263 324.4094 116.00263 324.93014 C 116.00263 325.1304 117.84518 325.4909 120.12834 325.7713 C 122.37144 326.0517 125.3756 326.45224 126.77754 326.69257 C 128.17948 326.9329 130.5027 326.97296 131.98475 326.8528 C 133.42675 326.69257 139.3149 326.4122 145.04283 326.2119 C 157.2998 325.7713 160.50423 325.3307 167.47388 322.84725 C 170.5982 321.7257 173.36203 321.0047 174.40347 321.0047 C 175.32475 321.0047 176.68663 320.7243 177.36758 320.3638 C 178.56924 319.763 178.6093 319.763 179.85101 320.9246 C 180.57201 321.6456 181.73362 322.24642 182.6549 322.4467 C 183.7364 322.64697 184.61761 323.1677 185.57894 324.2492 C 186.38005 325.1304 188.06238 326.37213 189.3041 327.05307 C 192.6287 328.8155 193.14942 329.5365 193.4298 332.6208 C 193.63009 335.18433 193.63009 335.26444 191.78754 338.02827 C 188.82343 342.43437 186.38005 343.63603 184.4574 341.5932 C 182.69495 339.67054 178.72946 337.14705 176.12586 336.26583 C 173.68247 335.4647 172.7612 335.42466 159.70312 335.42466 C 152.09259 335.42466 143.60083 335.62494 140.837 335.86527 C 138.07318 336.06555 133.7472 336.42605 131.2237 336.62633 C 125.61594 337.0269 120.00817 337.70782 118.04546 338.22854 C 117.24435 338.42882 115.96257 338.74926 115.16146 338.94954 C 114.36036 339.1498 112.91836 339.7106 111.95703 340.1512 C 106.46943 342.6747 106.2291 342.7548 101.62272 343.07525 C 99.09923 343.23548 96.85612 343.27553 96.61579 343.15536 C 95.93485 342.87498 92.6503 338.74926 91.80914 337.107 C 90.72764 335.0241 90.48731 330.69812 91.32847 328.49507 C 92.57019 325.21052 98.69867 320.40387 105.42799 317.47982 C 109.59376 315.63727 119.4474 311.79195 119.96812 311.79195 C 120.56895 311.79195 120.5289 311.111 119.92806 310.87067 C 119.32723 310.6704 118.40596 310.9508 114.60069 312.39278 C 113.07858 312.9936 110.43492 313.95494 108.79265 314.47566 C 107.15037 315.03644 105.06749 315.83755 104.18627 316.2381 C 98.21801 319.16215 90.20692 325.7713 89.6862 328.2147 C 89.48592 329.33623 89.3257 329.41635 87.68343 329.41635 C 85.48038 329.41635 83.91821 328.61524 82.6765 326.9329 C 80.43339 323.76853 79.75245 320.44392 80.91406 318.28093 C 81.2345 317.6801 81.71516 316.5986 81.99555 315.83755 C 82.6765 313.995 86.56187 309.669 89.00526 308.02674 C 95.21385 303.86097 101.06195 300.17587 101.4625 300.17587 C 101.74289 300.17587 102.06333 300.8568 102.22355 301.65792 C 102.544 303.42036 103.50533 305.22285 104.94732 306.5447 C 106.06888 307.58613 107.19043 307.4259 107.19043 306.22424 C 107.19043 305.78363 107.35065 305.34302 107.55093 305.22285 C 108.07165 304.9024 108.79265 306.86513 108.79265 308.5875 C 108.79265 310.4701 109.11309 311.3914 109.79403 311.3914 C 110.07442 311.3914 113.03853 308.74773 116.32307 305.4632 C 122.772 299.09437 126.0966 296.3706 127.01788 296.7311 C 127.33832 296.85127 127.77893 297.65237 128.01926 298.5336 C 128.2596 299.45487 128.6201 300.17587 128.82037 300.17587 C 129.18087 300.17587 129.26098 299.93554 130.02204 296.97143 C 130.30242 295.97005 131.18364 294.24766 131.98475 293.16616 C 132.82592 292.0446 133.70714 290.72278 133.98752 290.20206 C 134.34802 289.52112 134.62841 289.40095 134.94886 289.7214 C 135.54969 290.32223 136.4309 290.28217 136.4309 289.68134 C 136.4309 289.441 137.35218 287.79873 138.51379 286.07635 C 140.3964 283.1523 140.55662 282.7117 140.71684 280.02798 C 140.91712 277.26415 140.43645 274.94094 139.71545 274.94094 C 139.51518 274.94094 139.3149 276.74343 139.3149 278.98654 C 139.3149 281.9106 139.15468 283.19236 138.71407 283.67302 C 138.39362 284.07358 137.83285 284.9548 137.4323 285.71585 C 136.87152 286.8374 136.67124 286.99763 136.39085 286.4769 C 136.19057 286.1164 136.19057 285.43546 136.3508 284.9548 C 137.03174 283.1523 135.50963 277.5846 133.66708 274.981 C 132.98614 274.01966 132.86597 273.57905 133.22647 272.97822 C 133.42675 272.5376 133.62703 271.89672 133.62703 271.49617 C 133.62703 270.85528 133.58697 270.85528 132.82592 271.53622 C 131.66431 272.57766 131.74442 275.3415 132.94608 276.82354 C 135.10908 279.42715 135.46958 283.8733 133.8273 287.15785 C 131.70436 291.3236 129.62148 294.44794 128.49993 295.12888 C 128.05932 295.40927 127.97921 294.72833 128.05932 291.48384 C 128.17948 287.71862 127.97921 286.557 127.25821 286.557 C 127.05793 286.557 126.85766 288.23934 126.73749 290.32223 C 126.53721 293.92722 126.49716 294.08744 125.21538 295.32916 C 124.49438 296.0101 123.73333 296.57088 123.57311 296.57088 C 123.01233 296.57088 119.92806 299.45487 119.20706 300.6966 C 118.56618 301.73803 110.47498 308.98807 109.95426 308.98807 C 109.83409 308.98807 109.59376 307.94663 109.47359 306.66485 C 109.11309 303.3002 110.03437 300.97698 112.91836 298.01287 C 115.28163 295.60955 116.80374 293.20622 116.80374 291.8844 C 116.80374 291.28356 116.64352 291.3236 116.00263 292.16478 C 115.56202 292.72555 115.20152 293.36644 115.20152 293.64683 C 115.20152 293.92722 114.40041 294.68827 113.39902 295.3692 C 111.63658 296.57088 109.59376 298.8941 109.59376 299.6151 C 109.59376 300.21592 106.02882 304.98252 105.58821 304.98252 C 104.94732 304.98252 102.70422 300.17587 102.74428 298.814 C 102.74428 298.13304 102.86444 296.21038 103.02466 294.5681 C 103.22494 291.9645 103.42522 291.40372 104.46666 290.32223 C 105.34788 289.3609 105.5081 288.96034 105.1476 288.72 C 104.26638 288.1993 102.10339 291.1634 101.78294 293.3264 C 101.38239 296.3706 101.14206 296.41066 99.01912 294.16755 C 95.9749 290.883 95.05363 288.43962 94.85335 282.95203 C 94.73319 278.98654 94.89341 277.2241 96.17518 270.13428 C 96.97629 265.60802 97.7774 260.80136 97.97768 259.39942 C 98.1379 257.99748 98.37823 256.75576 98.4984 256.67565 C 98.61856 256.55548 100.0205 257.7972 101.62272 259.39942 C 105.02744 262.76408 107.7512 267.05 109.23326 271.33595 C 109.87414 273.2586 110.51503 274.38016 110.91559 274.46027 C 111.47636 274.58044 111.59653 274.26 111.59653 272.61772 C 111.59653 269.81384 112.39764 269.29312 113.71947 271.21578 C 114.24019 272.05694 115.36174 273.4589 116.2029 274.3401 C 118.52612 276.8636 118.76645 275.66193 117.20429 268.73234 C 116.76368 266.76962 117.16424 264.12596 118.64629 259.39942 C 118.88662 258.5182 118.84657 258.47815 118.04546 258.99887 C 117.12418 259.55964 117.08413 259.5997 116.40318 264.12596 C 116.00263 266.72957 116.00263 267.53068 116.60346 269.8539 C 116.96396 271.33595 117.20429 272.7379 117.12418 273.01827 C 116.60346 274.58044 110.59514 264.04585 110.35481 261.1218 C 110.19459 259.27926 110.71531 256.11487 111.27609 255.43393 C 111.47636 255.15354 111.47636 254.9132 111.23603 254.753 C 111.03575 254.63282 110.47498 255.1135 110.03437 255.8345 C 109.31337 256.9961 109.23326 257.63698 109.39348 260.36075 C 109.51365 262.08314 109.87414 264.4464 110.23464 265.5279 C 110.55509 266.64946 110.79542 268.492 110.71531 269.73373 L 110.59514 271.93678 L 109.83409 269.73373 C 108.91281 267.05 107.59098 264.7268 105.10755 261.4022 C 102.98461 258.5182 102.544 256.75576 102.9045 252.63005 C 103.10477 250.7074 103.02466 250.10656 102.66416 250.22672 C 101.94317 250.46706 101.18211 254.8331 101.66278 256.15493 C 101.86306 256.79582 101.98322 257.51682 101.90311 257.7972 C 101.66278 258.47815 99.17934 254.5527 99.17934 253.51127 C 99.17934 253.07066 100.0205 250.1466 101.06195 247.0223 C 102.06333 243.8579 102.78433 241.1742 102.62411 241.01397 C 102.10339 240.49325 101.34233 241.93525 100.78156 244.37863 C 100.50117 245.6604 100.10062 246.86207 99.90034 247.06234 C 99.74012 247.30268 99.5799 247.7433 99.5799 248.10379 C 99.5799 248.46428 99.29951 249.10517 98.97906 249.54578 C 98.41829 250.22672 98.37823 249.94634 98.57851 246.50157 C 99.05917 238.61064 99.66 234.80538 100.98184 231.68105 C 103.6255 225.47246 105.06749 223.10919 107.59098 220.6658 C 108.95287 219.34397 110.43492 217.90198 110.83548 217.50142 C 111.7167 216.6202 111.83686 215.01798 111.11586 214.7376 C 110.83548 214.65749 110.67525 214.49726 110.79542 214.41715 C 110.91559 214.29699 112.03714 213.33566 113.35897 212.25416 C 115.4018 210.57183 115.60207 210.25139 115.0413 209.85083 C 114.6808 209.57044 114.40041 209.25 114.40041 209.1699 C 114.40041 209.04972 115.60207 208.1685 117.08413 207.20717 C 118.56618 206.24584 120.68912 204.72373 121.81067 203.80246 C 129.14082 197.87425 134.5483 195.47093 139.99584 195.71126 L 142.59945 195.83142 L 143.40056 193.38804 C 143.88122 192.02616 144.48205 190.62422 144.8025 190.26372 C 145.56355 189.34244 148.4876 187.33967 150.81081 186.09795 C 151.85225 185.57723 152.85364 184.93634 153.05392 184.65595 C 153.29425 184.33551 154.45586 183.29407 155.65752 182.25263 C 157.82052 180.41008 157.86057 180.37002 158.50146 181.17113 C 158.86196 181.61174 159.26251 182.89351 159.42273 184.01507 Z"/>
            </g>
            <g>
               <g  id="feature-6">
                  <path
                        d="M 180.4919 191.94605 C 180.4919 192.74716 178.80957 197.1132 177.8883 198.67536 C 176.8068 200.47786 173.52225 203.00135 172.64103 202.6809 C 172.36064 202.56074 171.9601 202.16019 171.71976 201.71958 C 170.79848 199.95714 175.08442 194.02893 178.52918 192.30655 C 180.09135 191.5455 180.4919 191.46538 180.4919 191.94605 Z"
                        fill="#ff0000"/>
               </g>
            </g>
            <g>
               <path d="M 167.59405 215.93926 C 167.554 216.78042 167.67416 217.7818 167.87443 218.22242 C 168.15482 218.8633 168.11477 218.90336 167.35371 218.5028 C 166.35233 217.9821 165.79155 215.85915 166.4725 215.05804 C 167.2736 214.05665 167.67416 214.3771 167.59405 215.93926 Z"/>
            </g>
            <g>
               <path d="M 170.9587 215.93926 C 171.35926 216.29976 171.6797 216.86054 171.6797 217.22103 C 171.63965 217.7818 171.5996 217.7818 171.11893 217.14092 C 170.5181 216.33981 169.67693 216.21965 169.67693 216.94065 C 169.67693 217.2611 169.55676 217.30115 169.27638 217.02076 C 168.7957 216.5401 169.1562 215.25832 169.7971 215.25832 C 170.03743 215.25832 170.55815 215.5387 170.9587 215.93926 Z"/>
            </g>
            <g>
               <path d="M 184.49745 243.6977 C 185.53889 244.25846 187.30133 247.58306 187.30133 249.02506 C 187.30133 250.427 185.85933 252.91044 185.05822 252.91044 C 184.29717 252.91044 183.69634 251.26817 183.69634 249.14523 C 183.69634 247.0223 182.85517 246.101 181.6535 246.822 C 180.57201 247.50295 179.29024 247.42284 179.00985 246.6618 C 178.64935 245.7405 179.3303 244.81924 180.9325 244.01813 C 182.49467 243.21702 183.41595 243.1369 184.49745 243.6977 Z"/>
            </g>
            <g>
               <path d="M 289.0021 306.74496 L 289.7231 309.10823 L 288.04078 312.75328 C 285.07668 319.1221 284.7963 322.6069 286.87917 327.2133 C 287.8405 329.25612 287.88056 329.65668 287.48 331.0586 C 286.91923 332.94122 285.35706 334.223 283.63468 334.223 C 282.31285 334.223 282.31285 334.223 280.71063 329.65668 C 278.42747 323.2478 277.98686 320.96465 278.5877 318.1207 C 279.0283 315.99777 283.63468 306.3444 285.55734 303.4604 L 286.43856 302.17864 L 287.35984 303.26014 C 287.8405 303.90102 288.60156 305.4632 289.0021 306.74496 Z"/>
            </g>
            <g>
               <g  id="feature-7">
                  <path
                        d="M 185.49883 318.60137 C 186.46016 319.68287 185.77922 321.40526 184.37728 321.40526 C 183.25573 321.40526 180.89246 320.2837 180.89246 319.763 C 180.89246 319.5627 180.89246 319.2823 180.89246 319.08204 C 180.89246 318.7616 183.17562 317.88038 184.13695 317.84032 C 184.49745 317.80027 185.09828 318.16076 185.49883 318.60137 Z"
                        fill="#ff0000"/>
               </g>
            </g>
            <g>
               <g  id="feature-8">
                  <path
                        d="M 196.83452 335.5849 C 197.63563 337.34732 197.4754 347.04074 196.63425 347.04074 C 195.55275 347.04074 192.34831 344.1167 191.66737 342.5946 C 191.30687 341.63326 191.42704 341.3128 192.6287 339.7106 C 193.38976 338.66915 194.35109 337.14705 194.75164 336.22577 C 195.55275 334.38322 196.19364 334.18294 196.83452 335.5849 Z"
                        fill="#ff0000"/>
               </g>
            </g>
            <g>
               <g  id="feature-9">
                  <path
                        d="M 201.32073 339.22993 C 201.60112 339.55037 202.12184 339.83076 202.48234 339.83076 C 203.76412 339.83076 204.96578 341.03243 204.84561 342.15398 C 204.7655 343.0352 204.44506 343.3156 203.20334 343.59597 C 201.96162 343.9164 201.521 343.8363 200.59974 343.15536 C 199.39807 342.27414 198.95746 340.1512 199.75857 339.18987 C 200.3594 338.46888 200.67985 338.46888 201.32073 339.22993 Z"
                        fill="#ff0000"/>
               </g>
            </g>
            <g>
               <g  id="feature-10">
                  <path
                        d="M 189.70465 344.0366 C 190.3856 344.87775 194.75164 347.8018 195.9533 348.28246 C 197.15497 348.72307 197.0348 349.6043 195.79308 349.7645 C 194.31103 350.00485 190.78615 347.7217 188.90354 345.3584 C 187.74194 343.87636 188.503 342.5946 189.70465 344.0366 Z"
                        fill="#ff0000"/>
               </g>
            </g>
            <g>
               <g  id="outline-1">
                  <path
                        d="M 155.4973 186.0579 C 154.65614 186.69878 153.6948 187.2195 153.45447 187.2195 C 153.17408 187.2195 152.73347 187.4999 152.45309 187.82034 C 152.1727 188.14078 151.65198 188.42117 151.29148 188.42117 C 150.25004 188.42117 147.56632 190.9046 146.56494 192.82727 C 145.64366 194.5096 145.28316 197.1132 146.04421 196.63253 C 146.28455 196.51237 146.44477 196.07176 146.44477 195.6712 C 146.44477 195.3107 146.96549 194.1491 147.60638 193.1477 C 148.4876 191.74577 149.60915 190.8245 152.29286 189.26233 C 154.21553 188.10072 155.93791 187.25956 156.13819 187.29961 C 156.73902 187.4999 154.13542 191.14494 152.8937 191.78582 C 151.61192 192.46677 150.2901 194.10904 149.9296 195.51098 C 149.6492 196.7527 150.20998 196.6726 151.0912 195.3107 C 151.4517 194.70987 152.81359 193.22782 154.09536 192.02616 C 156.25835 189.90322 157.46002 187.9405 157.7404 185.97778 C 157.90063 184.696 157.25974 184.696 155.4973 186.0579 Z"
                        fill="black"/>
               </g>
            </g>
            <g>
               <g  id="outline-2">
                  <path
                        d="M 125.61594 215.5387 C 124.49438 217.9821 123.9336 222.58846 124.41427 225.47246 C 124.81483 227.91584 127.45849 236.0471 129.02065 239.57197 C 130.66292 243.25708 130.94331 241.6148 129.38115 237.36892 C 125.89632 227.99595 125.49577 226.47384 125.45571 222.66858 C 125.45571 220.46553 125.7361 218.0622 126.13666 216.50004 C 126.53721 215.0981 126.73749 213.85638 126.65738 213.77627 C 126.57727 213.6561 126.0966 214.4572 125.61594 215.5387 Z"
                        fill="black"/>
               </g>
            </g>
            <g>
               <g  id="outline-3">
                  <path
                        d="M 163.86889 227.27495 C 163.46834 227.91584 164.18933 228.91723 165.87166 230.07883 C 166.99321 230.8399 167.6341 231.641 167.79432 232.40205 C 168.11477 234.00427 170.07748 236.80815 172.20042 238.77087 C 174.00292 240.4532 176.92697 241.41453 177.76813 240.57336 C 178.00846 240.33303 177.64796 240.13275 176.76674 239.97253 C 174.5637 239.61203 172.08026 237.72942 170.39793 235.12582 C 168.63549 232.40205 168.55538 231.80122 169.7971 231.32055 C 170.63826 230.96005 170.5982 230.92 169.19626 230.31917 C 168.3551 229.95867 167.51394 229.67828 167.31366 229.67828 C 167.11338 229.67828 166.27222 229.07745 165.51116 228.3164 C 164.71005 227.5954 163.98906 227.11473 163.86889 227.27495 Z"
                        fill="black"/>
               </g>
            </g>
            <g>
               <g  id="outline-4">
                  <path
                        d="M 147.24588 243.25708 C 147.24588 243.45735 147.88677 244.01813 148.68787 244.4988 C 150.04976 245.38 150.53043 246.14107 151.0912 248.38417 C 151.33153 249.3455 151.29148 249.38556 150.3702 249.18528 C 148.8481 248.78473 148.68787 249.3455 150.08982 250.18667 C 151.73209 251.18805 152.45309 253.11072 152.45309 256.51543 C 152.45309 259.11903 152.05253 260.12042 151.49176 258.71848 C 151.37159 258.39804 151.01109 258.11765 150.69065 258.11765 C 150.20998 258.11765 150.08982 258.67842 150.16993 261.00164 C 150.20998 264.40635 149.6492 269.53345 149.24865 269.0528 C 149.12848 268.89256 148.76799 268.01134 148.4876 267.13012 C 147.88677 265.24752 146.64505 263.40497 146.20444 263.80552 C 145.68372 264.32624 148.9282 272.7379 149.68926 272.7379 C 149.96965 272.7379 150.53043 271.77656 150.93098 270.53484 C 151.49176 268.7724 151.57187 267.53068 151.37159 264.32624 L 151.13126 260.3207 L 152.13264 261.20192 C 152.65336 261.72264 153.2542 262.1232 153.49453 262.1232 C 154.17547 262.1232 154.3357 256.03476 153.73486 252.50988 C 153.05392 248.6245 151.61192 245.6604 149.68926 244.2184 C 147.96688 242.85652 147.24588 242.6162 147.24588 243.25708 Z"
                        fill="black"/>
               </g>
            </g>
            <g>
               <g  id="outline-5">
                  <path
                        d="M 136.83146 304.78224 C 135.83008 305.30297 133.90741 306.14413 132.54553 306.58474 C 131.14359 307.0654 130.02204 307.62618 130.02204 307.82646 C 130.02204 308.34718 130.98337 308.26707 132.70575 307.62618 C 133.54692 307.30574 134.98891 306.82507 135.87013 306.58474 C 137.71268 306.14413 139.75551 304.70213 139.43507 304.14136 C 139.11462 303.62064 138.87429 303.70075 136.83146 304.78224 Z"
                        fill="black"/>
               </g>
            </g>
            <g>
               <g  id="outline-6">
                  <path
                        d="M 102.42383 314.75605 C 102.1835 315.03644 100.82161 315.83755 99.45973 316.5185 C 96.85612 317.7602 94.49285 319.80304 95.65446 319.80304 C 95.9749 319.80304 96.93624 319.24226 97.7774 318.60137 C 98.61856 317.92043 99.49978 317.3997 99.74012 317.3997 C 100.381 317.35966 103.42522 314.67594 103.14483 314.39555 C 102.98461 314.2754 102.70422 314.4356 102.42383 314.75605 Z"
                        fill="black"/>
               </g>
            </g>
            <g>
               <g  id="outline-7">
                  <path
                        d="M 83.11711 316.91905 C 82.99694 317.7602 83.23727 319.80304 83.67788 321.3652 C 84.27871 323.56825 86.56187 325.4108 88.64476 325.4108 C 89.44587 325.4108 89.92653 325.25058 89.76631 325.01025 C 89.64614 324.7699 89.08537 324.6097 88.6047 324.6097 C 86.44171 324.6097 84.35882 321.68564 84.35882 318.64143 C 84.35882 317.64004 84.15855 316.99916 83.75799 316.83893 C 83.43755 316.71877 83.15716 316.75882 83.11711 316.91905 Z"
                        fill="black"/>
               </g>
            </g>
            <g>
               <g  id="outline-8">
                  <path
                        d="M 269.81555 322.40664 C 269.81555 322.76714 270.2161 323.56825 270.6567 324.20914 C 271.61805 325.45086 271.77827 327.09313 271.0172 327.97435 C 270.77688 328.2948 269.6954 328.89562 268.694 329.25612 C 267.65256 329.65668 266.65117 330.0973 266.4509 330.29757 C 265.89012 330.77823 268.3335 330.69812 269.6954 330.1774 C 270.9371 329.69673 273.02 327.89424 273.02 327.25335 C 273.06004 326.61246 270.45644 321.8058 270.136 321.8058 C 269.93572 321.8058 269.81555 322.0862 269.81555 322.40664 Z"
                        fill="black"/>
               </g>
            </g>
            <g>
               <g  id="outline-9">
                  <path
                        d="M 174.44353 323.9688 C 174.04297 324.36936 158.70174 328.2147 154.29564 329.0158 C 152.45309 329.3763 149.68926 329.4564 146.04421 329.29618 C 141.15745 329.0959 138.91435 329.33623 139.91573 329.93707 C 140.07595 330.05723 142.31906 330.2575 144.84255 330.41773 C 150.97104 330.8183 155.25697 330.21745 164.83022 327.77407 C 175.88552 324.89008 175.7253 324.93014 175.56508 324.48953 C 175.40486 324.00886 174.72392 323.6884 174.44353 323.9688 Z"
                        fill="black"/>
               </g>
            </g>
            <g>
               <g  id="outline-10">
                  <path
                        d="M 94.37269 334.90394 C 94.37269 336.06555 96.37546 338.9896 97.57712 339.6305 C 98.89895 340.31143 103.82577 340.4316 104.7871 339.83076 C 105.18766 339.55037 104.34649 339.4302 102.06333 339.4302 C 98.01773 339.4302 96.81607 338.74926 95.73457 336.0255 C 95.05363 334.223 94.37269 333.66222 94.37269 334.90394 Z"
                        fill="black"/>
               </g>
            </g>
         </g>
      </g>
   </g>
</svg>