<?xml version="1.0" encoding="UTF-8" standalone="no"?>
<svg
   version="1.1"
   viewBox="85.5 63 193.5 351"
   width="193.5"
   height="351"
   id="svg46"
   xmlns="http://www.w3.org/2000/svg"
   xmlns:svg="http://www.w3.org/2000/svg"
   xmlns:rdf="http://www.w3.org/1999/02/22-rdf-syntax-ns#"
   xmlns:cc="http://creativecommons.org/ns#"
   xmlns:dc="http://purl.org/dc/elements/1.1/">

  <metadata
     id="metadata7"> Produced by OmniGraffle 7.11.5 
    <dc:date>2021-10-30 05:07:14 +0000</dc:date>
<rdf:RDF>
  <cc:Work
     rdf:about="">
    <dc:creator>
      <cc:Agent>
        <dc:title>http://heraldicart.org/pennsic-traceable-art/</dc:title>
      </cc:Agent>
    </dc:creator>
  </cc:Work>
</rdf:RDF>
</metadata>
  <g
     id="Stag_s_Head_Erased"
     stroke-opacity="1"
     stroke-dasharray="none"
     fill-opacity="1">
    <title
       id="title9">Stag's Head Erased</title>
    <g
       id="Stag_s_Head_Erased: Layer 2"
       clip-path="none">
      <title
         id="title11">Layer 2</title>
      <g
         id="Group_3">
        <g
           id="Graphic_11"
           style="fill:#ffff00;stroke:#808080;stroke-width:2">
          <path
             d="m 218.75,369.19 v 0 c 0.49,-4.23 0.32,-5.21 -1.68,-7.65 -1.69,-1.95 -1.91,-2.58 -0.77,-2.44 0.82,0.19 2.72,2.09 4.12,4.31 3.31,4.79 11.15,9.9 15.43,10.05 8.46,0.3 7.9,0.95 8.2,-8.17 0.48,-10.61 -0.29,-14.96 -3.02,-17.72 -2.58,-2.57 -1.42,-3 2.12,-0.71 1.49,0.86 7.24,2.31 12.78,3.23 8.53,1.41 10.09,1.36 9.17,0 -3.28,-5.24 -4.73,-9.69 -5.42,-17.41 l -0.81,-8.37 -3.68,-1.81 c -3.68,-1.82 -8.64,-7.1 -7.74,-8.38 0.26,-0.38 1.2,0.46 2.23,1.85 2.4,3.49 7.01,5.48 14.43,6.3 3.43,0.4 7.21,0.86 8.26,1.12 1.75,0.36 1.78,-0.1 0.59,-3.69 -3.17,-9.07 -14.15,-27.52 -20.18,-33.73 -7.23,-7.35 -9.06,-11.4 -5.2,-11.74 1.34,0 2.39,-0.42 2.33,-0.75 -0.17,-0.98 -5.31,-6 -11.11,-10.92 -5.39,-4.54 -6.29,-5.83 -3.51,-5.31 0.94,0.28 2.45,-0.1 3.26,-0.58 1.42,-0.81 1.18,-1.55 -1.79,-5.06 -1.98,-2.34 -4.08,-5.33 -4.78,-6.77 -0.59,-1.47 -3.88,-6.15 -7.13,-10.62 -5.57,-7.41 -6.33,-7.95 -10.65,-8.31 -2.51,-0.23 -6.04,0.1 -7.72,0.69 -2.31,0.86 -2.9,0.73 -2.76,-0.41 0.36,-2.41 4.03,-3.17 12.07,-2.69 12.48,0.94 16.64,-0.91 26.83,-11.67 l 4.62,-4.96 -3.22,-0.44 c -1.7,-0.15 -5.22,-1.66 -7.64,-3.36 -7.98,-5.2 -14.9,-5.1 -20.45,0.25 -6.98,6.83 -16.59,12 -17.07,9.28 -0.12,-0.65 0.79,-1.26 1.98,-1.47 3.04,-0.53 2.45,-2 -2.04,-4.57 -3.01,-1.82 -4.15,-1.95 -5.73,-0.78 -0.98,0.85 -1.78,2 -1.67,2.65 0.12,0.65 -0.41,0.85 -1.11,0.64 2.78,-3.29 -11.84,-8.66 -11.84,-8.66 -2.47,3.12 -4.77,5.32 -5.28,4.96 -0.51,-0.36 -0.12,-1.32 0.72,-2.25 2.55,-2.69 0.7,-3.04 -8.21,-1.47 -8.9,1.57 -14.4,4.67 -15.8,8.84 -2.04,6.18 -5.56,12.29 -8.77,15.65 -3.59,3.77 -7.92,6.55 -9.73,6.42 -0.48,-0.14 -3.29,1.03 -6.29,2.46 -2.89,1.4 -7.5,3.22 -10.26,4.04 -5.5,1.87 -6.7,3.31 -6.79,8.48 -0.16,2.94 0.14,3.34 1.56,2.53 0.92,-0.5 1.51,-1.61 1.36,-2.48 -0.16,-0.87 0.27,-1.62 0.81,-1.71 1.96,-0.35 1.58,1.96 -0.87,5.19 -1.27,1.68 -2,3.93 -1.59,4.98 0.63,1.68 1.98,1.67 12.62,-0.21 12.94,-2.17 18.17,-1.74 18.76,1.62 0.43,2.39 -3.45,6.44 -6.91,7.16 -1.3,0.23 -4.82,1.86 -7.78,3.5 -2.94,1.75 -6.37,3.25 -7.57,3.46 -4.02,0.71 -1.21,3.91 3.82,4.48 4.12,0.5 5.08,0.22 7.47,-2.1 1.54,-1.4 4.63,-2.95 6.91,-3.35 2.28,-0.4 6.2,-2.32 8.86,-4.36 2.68,-1.93 7.92,-4.65 11.59,-6.08 5.78,-2.14 7.97,-2.41 14.65,-2.02 4.29,0.25 12.29,-0.15 17.63,-0.98 9.16,-1.39 12.91,0.23 15.62,-2.83 1.58,-1.84 0.57,-6.97 1.13,-8.86 0.83,-2.95 1.22,-3.24 2.14,-1.83 1.27,2.12 -1.82,8.72 -5.47,11.49 -1.68,1.3 -6.94,0.64 -13.35,1.77 -7.06,1.24 -8.92,4.06 -8.75,5.04 0.14,0.76 -0.19,2.72 -0.68,4.37 -2.91,8.92 -6.25,17.9 -8.3,22.18 -12.06,24.98 -16.84,37.24 -17.26,44.37 -0.15,2.94 0,3.03 1.95,1.56 1.88,-1.45 2.11,-1.38 2.5,0.79 0.53,3.05 -1.07,15.54 -2.57,20.39 -1.21,3.91 -1.93,18.26 -0.94,19.43 0.4,0.38 0.57,2.59 0.28,4.77 -0.21,2.61 0.1,4.13 0.78,4.45 2.53,1.01 8.11,-2.32 11.28,-6.58 1.91,-2.47 5.67,-5.93 8.48,-7.77 3.32,-2.15 5.47,-4.55 6.21,-6.69 0.56,-1.89 1.51,-3.52 2.16,-3.63 0.87,-0.15 0.95,0.28 0.25,1.41 -1.44,2.61 -2.93,15.75 -2.26,19.55 0.43,1.83 1.56,4.43 2.7,5.8 2.42,2.93 3.42,7.34 2.41,11.11 -0.79,3.16 2.06,11.73 3.92,12.07 0.69,0.11 1.75,-2.1 2.51,-4.81 1.03,-3.65 3.36,-6.97 8.5,-12.14 10.83,-10.98 15.48,-17.62 16.15,-23.34 z"
             id="path19" />
        </g>
        <g
           id="langued"
           style="fill:#ff0000;stroke:#808080;stroke-width:2">
          <path
             d="M 93.65798 263.13028 C 100.34067 264.19177 103.34988 264.10914 115.80857 262.3603 C 125.87774 261.0328 135.73597 260.41445 136.63034 261.0407 C 136.88587 261.2196 135.35241 262.04996 133.12895 262.778 C 130.79688 263.52518 127.99835 264.80258 126.79073 265.57547 C 125.27642 266.51443 123.39166 266.62278 120.90008 265.8302 C 117.24575 264.7947 112.05139 265.8226 101.08103 269.6608 C 98.6595 270.53576 96.4489 270.70157 95.31815 270.00502 C 93.58687 269.07838 87.48635 262.42663 88.24666 262.29257 C 88.46389 262.25427 90.87886 262.6124 93.65798 263.13028 Z"
             id="path28" />
        </g>
        <g
           id="Graphic_7"
           style="stroke-width:2">
          <path
             d="M 153.77869 212.21234 C 153.06928 213.90532 156.16006 224.4475 157.46973 224.88853 C 157.96165 225.13777 159.96158 223.7772 161.8849 221.98217 C 163.68046 220.09768 165.84016 218.37297 166.45355 218.04083 C 167.06693 217.7087 166.0385 216.32214 163.99424 214.89073 C 161.56668 213.19094 159.69478 212.73706 158.0144 213.36933 C 156.33402 214.0016 155.3885 213.72036 154.9606 212.5639 C 154.55185 211.51605 154.07908 211.37543 153.77869 212.21234 Z"
             id="path31"
             style="fill:#4d4d4d" />
        </g>
        <g
           id="Graphic_6"
           style="stroke-width:2;fill:white">
          <path
             d="M 162.43507 216.84554 C 163.25256 218.94122 158.6902 223.5534 157.58517 221.7324 C 157.23388 221.0104 157.16384 219.34288 157.34932 217.85428 C 157.93753 214.83878 161.39405 214.1173 162.43507 216.84554 Z"
             id="path34" />
        </g>
        <g
           id="Graphic_5"
           style="fill:#666666;stroke-width:2">
          <path
             d="M 217.65571 209.90844 C 212.3076 213.87523 209.98787 217.868 212.03213 219.2994 C 212.79873 219.8362 213.73796 219.4466 214.3259 218.335 C 215.0033 217.09564 216.46645 216.50167 218.47897 216.48278 C 221.85233 216.55992 229.6028 211.60956 226.84284 211.20029 C 226.04424 211.11712 224.40216 211.96662 223.14338 213.0845 C 220.95167 215.26284 216.22377 215.76052 215.8982 213.91407 C 215.57262 212.06761 221.77678 208.50983 227.0989 207.5714 C 230.57458 206.95854 232.34442 206.1985 231.79505 205.62342 C 230.2364 203.77041 222.80574 206.08857 217.65571 209.90844 Z"
             id="path37" />
        </g>
        <g
           id="Graphic_4"
           style="fill:#666666;stroke-width:2">
          <path
             d="M 203.20597 241.01422 C 202.34964 242.5091 200.64355 244.26583 199.634 244.8918 C 198.29862 245.57524 198.17715 246.15662 199.03321 246.56563 C 200.47065 247.09611 206.89258 239.69222 205.63406 238.9062 C 205.25076 238.6378 204.1709 239.50017 203.20597 241.01422 Z"
             id="path40" />
        </g>
        <g
           id="attired">
          <g
             id="Graphic_12"
             style="fill:#0000ff;stroke:#808080;stroke-width:2">
            <path
               d="M 203.39537 73.77713 C 208.31452 76.26951 215.32855 83.65611 215.9414 87.13178 C 216.59257 90.82468 217.5638 89.98148 221.80714 82.28977 C 226.8365 73.33956 232.6899 65.251965 233.35417 66.478736 C 234.18452 68.0122 231.90858 78.60476 228.3164 89.98936 C 226.3797 96.15443 225.17128 102.63904 225.31137 105.9741 C 225.41316 109.09192 225.24026 111.9222 224.8441 112.21603 C 224.4671 112.61848 222.81244 112.1263 221.2984 111.16136 C 219.67573 110.21557 218.09137 109.48701 217.6569 109.56362 C 217.22245 109.64022 216.18773 107.58284 215.40224 105.03354 C 212.7328 96.88087 203.42003 80.26831 198.58432 75.07342 C 194.18936 70.47276 194.00414 70.057455 196.49572 70.85003 C 198.02262 71.25275 201.06357 72.62041 203.39537 73.77713 Z"
               id="path16" />
          </g>
          <g
             id="Graphic_10"
             style="fill:#0000ff;stroke:#808080;stroke-width:2">
            <path
               d="M 175.61881 101.07324 C 176.6921 101.44395 180.11006 102.40915 183.05525 103.23374 C 189.30978 105.04268 195.436 110.56998 202.93513 121.34279 C 205.61797 125.12542 207.82174 128.09659 208.03897 128.05828 C 208.2562 128.01998 209.51524 124.99818 210.78714 121.41416 C 212.05904 117.83014 213.53531 114.77004 214.0784 114.67428 C 215.05592 114.50191 217.7259 118.84677 219.4375 123.4726 C 220.53596 126.52668 220.0758 127.72773 215.2831 134.84436 C 212.34996 139.16926 208.95666 144.69523 207.69132 147.04619 L 205.44818 151.47342 L 203.7303 146.17674 C 198.09127 128.8044 196.6032 124.8111 194.36113 121.6227 C 189.7109 114.93922 182.2241 107.412 177.06228 104.17847 C 172.02823 101.0344 171.51087 100.00571 175.61881 101.07324 Z"
               id="path22" />
          </g>
          <g
             id="Graphic_9"
             style="fill:#0000ff;stroke:#808080;stroke-width:2">
            <path
               d="M 163.77947 151.42928 C 170.95328 158.45173 176.48475 168.2276 177.88282 176.15648 C 178.26586 178.32877 179.0642 180.31585 179.66473 180.54593 C 180.99355 181.09557 187.8376 170.36947 190.10016 164.14695 L 191.85139 159.47049 L 191.92746 163.71276 C 192.04131 171.98007 187.8612 184.47628 182.3848 192.16142 C 178.16089 198.05783 176.70403 199.32264 175.0302 198.72184 C 173.8483 198.37029 170.40464 198.52953 167.36342 199.06578 C 161.71545 200.06167 161.71545 200.06167 161.95866 196.995 C 161.99723 195.30833 162.7069 191.71145 163.35256 189.0218 C 164.17715 186.0766 164.25455 180.79934 163.64825 176.0906 C 162.54428 166.65397 158.27868 150.71934 156.54111 149.12186 C 155.86398 148.45732 154.8547 147.17939 154.33734 146.1507 C 152.54887 142.9943 158.74568 146.38131 163.77947 151.42928 Z"
               id="path25" />
          </g>
          <g
             id="g903"
             style="fill:#0000ff;stroke:#808080;stroke-width:2"
             transform="translate(-60)">
            <path
               d="m 258.58,198.27 c 3.08,-2.23 8.25,-7.84 11.94,-12.97 3.61,-4.9 12.37,-16.86 19.53,-26.41 15.47,-20.87 15.06,-20.01 23.73,-47.07 1.55,-5.2 4.06,-11.25 5.55,-13.636 3.28,-5.507 4.39,-9.397 4.88,-16.764 0.21,-3.283 0,-6.274 -0.48,-6.523 -1.66,-1.163 -11.88,18.335 -12.61,24.398 -0.42,3.325 -2.05,2.935 -3.52,-0.946 -1.73,-4.064 -6.94,-10.76 -8.35,-10.511 -0.54,0.1 -0.25,2.396 0.57,5.162 2.51,7.85 3.13,12.66 2.38,19.85 -1.2,12.87 -5.37,22.9 -6.55,16.16 -1.04,-5.86 -11.29,-15.7 -18.89,-18.17 -2.49,-0.79 -2.6,-0.77 -1.51,0.94 5.76,9.18 10.18,24.75 9.47,33.38 -0.45,4.45 -5.36,12.82 -10.09,17.12 -2.05,1.71 -6.37,10.2 -7.85,15.16 -0.97,2.75 -1.71,3.67 -2.6,3.04 -1.02,-0.72 -0.95,-2.86 0.1,-7.18 2.16,-8.67 0.2,-24.23 -4.27,-33.07 -5.08,-10.42 -8.08,-11.57 -6.51,-2.66 0.44,3.17 0.81,7.81 0.8,10.27 -1.09,30.66 -2.41,35.26 -15.83,52.52 0.38,6.73 11.84,8.66 20.13,-2.09 z"
               id="path901" />
          </g>
        </g>
      </g>
    </g>
  </g>
</svg>
