<?xml version="1.0" encoding="utf-8"?>
<svg xmlns="http://www.w3.org/2000/svg" xmlns:dc="http://purl.org/dc/elements/1.1/"
     xmlns:xl="http://www.w3.org/1999/xlink"
     xmlns:xlink="http://www.w3.org/1999/xlink"
     version="1.1"
     viewBox="40.5 60.75 283.5 348.75"
     width="283.5"
     height="348.75"
     preserveAspectRatio="xMidYMid meet"
     zoomAndPan="magnify"
     contentScriptType="application/ecmascript"
     contentStyleType="text/css">
   <defs/>
   <metadata xmlns="" xmlns:svg="http://www.w3.org/2000/svg"
             xmlns:rdf="http://www.w3.org/1999/02/22-rdf-syntax-ns#"
             xmlns:cc="http://creativecommons.org/ns#">
      <rdf:RDF>
         <cc:Work rdf:about="">
            <dc:creator>
               <cc:Agent>
                  <dc:title>http://heraldicart.org Stag, Winged, Segreant.svg</dc:title>
               </cc:Agent>
            </dc:creator>
         </cc:Work>
      </rdf:RDF>
   </metadata>
   <g stroke-opacity="1" stroke-dasharray="none" stroke="#505050" fill="#ffff00"
      fill-opacity="1">
      <title>Stag, Winged, Segreant</title>
      <g>
         <title>Layer 2</title>
         <g/>
         <g>
            <g>
               <g  id="outline-0">
                  <path
                        d="M 262.45212 205.95293 C 262.52136 205.95293 264.80622 206.57608 267.43728 207.3377 C 273.66873 209.1379 274.43035 209.06866 276.57674 206.92227 C 278.1 205.39903 278.3077 204.70664 277.9615 202.21406 C 277.7538 200.62158 277.33837 198.82138 277.13065 198.26747 C 276.8537 197.43661 277.82303 197.09042 281.76962 196.39804 C 288.0703 195.35946 295.75577 191.55135 299.63312 187.60477 C 302.3334 184.90447 302.40266 184.62752 301.5718 182.82732 C 301.0179 181.44255 299.0792 180.05778 295.13263 178.04987 L 289.59356 175.28034 L 292.43233 174.38024 C 300.60246 171.9569 312.7884 162.60971 312.7884 158.8016 C 312.7884 157.62455 312.30374 156.58598 311.54212 156.17055 C 309.8804 155.27045 301.43332 153.33177 299.2177 153.33177 C 296.44816 153.33177 297.34826 152.01624 300.6717 151.18538 C 306.28 149.80062 317.6351 137.54542 317.6351 132.90645 C 317.6351 131.31397 315.00404 130.34463 309.46497 129.85997 L 304.2721 129.44454 L 306.76467 127.71358 C 311.74984 124.11318 319.0891 113.10428 319.15834 108.94998 C 319.2968 105.2111 317.15043 104.44948 310.0881 105.97273 L 307.80325 106.4574 L 310.2266 103.06472 C 316.25033 94.5484 318.39672 88.17847 315.90414 86.17055 C 314.10394 84.64731 305.44914 86.30903 292.29385 90.60181 C 286.9625 92.33277 282.18505 93.78678 281.76962 93.78678 C 281.28495 93.78678 281.3542 93.02515 282.04658 91.36343 C 282.53124 90.0479 283.0159 88.52466 283.0159 87.97075 C 283.0159 86.44751 280.6618 85.96284 277.47684 86.93218 C 275.9536 87.41685 274.56883 87.62456 274.36112 87.41685 C 274.1534 87.27837 274.36112 86.10132 274.7073 84.78579 C 275.0535 83.5395 275.53817 78.90053 275.7459 74.53851 C 276.09208 67.68391 275.9536 66.36838 274.98426 65.26057 C 273.2533 63.39113 271.4531 63.73732 265.70632 66.99153 C 258.02086 71.42278 242.30375 82.15473 226.37893 93.92525 C 224.02482 95.65621 222.7093 96.21012 222.22462 95.72545 C 221.73996 95.24078 219.87052 95.4485 216.27012 96.27936 C 213.36211 96.97174 210.8003 97.31793 210.59258 97.04098 C 210.38486 96.83326 211.63115 93.99449 213.36211 90.80953 C 218.555 81.32387 217.23946 78.90053 210.93877 86.30903 C 204.63808 93.71754 196.95262 101.12604 192.5906 103.89558 C 186.9823 107.49597 167.45707 117.32782 165.93383 117.32782 C 164.34135 117.32782 163.02582 114.90448 163.51049 112.89657 C 164.13363 110.47322 178.53521 96.9025 184.90514 92.81744 C 188.02087 90.74029 193.1445 87.83228 196.26024 86.23979 C 202.21474 83.26254 207.89228 78.55433 207.40761 77.03109 C 206.92294 75.57708 204.70732 75.57708 202.76864 77.03109 C 197.85272 80.631485 191.62127 82.57016 191.62127 80.42377 C 191.62127 79.9391 193.00603 77.51576 194.737 75.02318 C 197.78348 70.59192 197.92196 68.99944 195.08318 69.89954 C 193.00603 70.59192 186.70534 77.10033 184.00504 81.46235 C 181.44322 85.68589 177.28892 89.42476 176.38882 88.52466 C 175.48873 87.62456 177.0812 83.40102 180.47389 77.37728 C 182.06637 74.60775 183.31266 72.04593 183.31266 71.6305 C 183.31266 69.96878 180.26617 71.14583 177.56588 73.846125 C 173.61929 77.79271 171.4729 81.87778 169.53423 88.94009 C 167.73403 95.4485 166.48774 97.94108 164.9645 97.94108 C 162.40267 97.94108 161.77953 90.87876 163.57973 82.36244 C 164.82602 76.47718 164.82602 76.47718 163.7182 76.47718 C 160.464 76.47718 157.83294 84.92426 157.14056 97.94108 C 156.58665 107.14978 155.75579 110.40398 153.74788 110.40398 C 152.36311 110.40398 151.32453 105.69577 151.60149 100.5029 C 151.8092 95.79469 151.73996 95.51773 150.28596 95.31002 C 148.0011 94.96383 146.40861 98.63346 146.2009 104.86491 C 146.06242 107.70369 146.27013 111.37332 146.68556 113.03504 C 147.51642 116.70468 147.03176 117.60477 145.02384 116.35848 C 143.08517 115.18143 136.36905 113.45047 135.81514 114.07362 C 135.60742 114.28133 136.0921 116.5662 136.85372 119.12802 C 138.30772 123.4208 138.30772 123.76699 137.1999 125.01328 C 136.02285 126.32881 125.70634 133.25265 118.50555 137.61466 C 112.62029 141.14582 111.78943 142.25363 111.44323 147.10032 C 111.16628 151.18538 111.16628 151.32386 113.79734 153.7472 C 116.35916 156.1013 116.70535 156.17055 120.02879 155.82435 C 122.0367 155.61664 125.2909 154.6473 127.29882 153.67796 C 132.07627 151.46234 137.5461 151.32386 139.3463 153.33177 C 140.45411 154.57806 140.52335 154.78578 139.41553 156.37826 C 138.79239 157.3476 136.85372 158.94008 135.05352 159.97866 C 123.42147 166.69478 115.1821 173.4109 115.87449 175.69577 C 116.15144 176.59586 115.32058 177.84216 112.96648 180.05778 C 111.09704 181.7195 109.2276 182.9658 108.81218 182.82732 C 108.32751 182.6196 107.08122 181.30407 106.04264 179.85007 C 104.93483 178.39606 102.58072 175.41881 100.71129 173.27242 C 97.59556 169.60279 97.11089 169.2566 92.6104 168.28726 C 87.48676 167.1102 73.63908 161.43266 68.44621 158.38617 C 63.11485 155.27045 55.91406 149.73138 55.91406 148.76204 C 55.91406 148.27737 54.80625 145.9925 53.49072 143.70764 C 50.85966 139.20715 48.990224 138.2378 48.990224 141.35353 C 48.990224 143.0845 48.990224 143.15373 47.605457 141.90744 C 46.843835 141.21506 46.012975 140.86887 45.73602 141.07658 C 44.9744 141.8382 45.38983 155.96283 46.22069 158.52465 C 46.98231 160.80952 49.474893 162.33276 52.52138 162.33276 C 54.39082 162.33276 54.875486 163.64829 53.42148 164.7561 C 52.17519 165.6562 52.17519 165.72544 53.283003 166.14087 C 55.0832 166.83325 54.80625 167.87183 52.798335 167.87183 C 51.829 167.87183 51.067376 168.28726 51.067376 168.77193 C 51.067376 170.43365 54.460056 171.33375 60.483794 171.33375 C 66.9922 171.33375 68.7924 171.9569 69.761735 174.51871 C 70.2464 175.69577 70.93879 176.18043 72.323555 176.18043 C 77.93186 176.24967 88.66381 180.54245 91.64106 183.8659 C 94.20288 186.7739 94.68755 188.15867 93.44126 189.05877 C 92.47192 189.75115 92.74887 190.3743 95.93384 193.83622 C 98.5649 196.74423 99.465 198.129 99.18804 199.09833 C 98.84185 200.1369 99.67271 201.31396 102.37301 203.87578 C 106.11188 207.3377 106.04264 207.12999 104.65787 211.90743 C 104.38092 213.01525 104.65787 213.49992 105.69645 213.77687 C 106.73502 213.98458 107.15045 214.67697 107.15045 215.9925 C 107.15045 216.96183 107.49665 218.48508 107.98132 219.31594 C 108.39675 220.1468 109.2276 222.57014 109.71227 224.6473 L 110.61237 228.4554 L 108.60446 230.18636 C 107.49665 231.1557 102.99615 233.71752 98.63414 235.8639 C 91.64106 239.39507 90.32553 240.3644 86.86361 244.5187 C 83.81712 248.1191 82.43236 250.61168 80.7014 255.3199 C 79.52435 258.71257 77.65491 262.65916 76.61633 264.11316 C 72.46203 269.7907 71.63117 272.2833 72.25432 276.85302 C 73.36213 285.23087 72.9467 288.9005 70.177165 294.43957 C 68.72316 297.2091 67.33839 300.39407 66.9922 301.5019 C 66.29982 303.78675 67.199916 304.82532 68.72316 303.57903 C 69.48478 302.9559 69.6925 303.1636 69.90021 304.7561 C 70.03869 306.27933 70.45412 306.62552 71.492694 306.48705 C 73.29289 306.14085 79.52435 300.04788 82.70931 295.47814 L 85.13265 291.87775 L 83.60941 288.76202 C 82.01693 285.36934 82.22464 283.91534 84.37103 284.53848 C 85.34037 284.88467 85.68656 284.67696 85.68656 283.77686 C 85.68656 282.80752 85.89428 282.7383 86.51742 283.36143 C 87.556 284.4 89.14848 284.46924 89.14848 283.43067 C 89.14848 282.946 88.17914 280.66113 87.00209 278.30703 C 84.44027 273.3911 84.57875 271.66015 87.69447 268.129 C 88.80229 266.8827 89.9101 264.7363 90.18705 263.42078 C 90.87944 260.16658 93.1643 255.04294 94.54907 253.45045 C 96.41851 251.44254 100.64205 249.5731 103.34234 249.5731 C 104.93483 249.5731 106.38883 249.0192 107.35817 248.1191 C 110.1277 245.48804 112.75876 244.5187 116.0822 244.93414 C 118.85174 245.28033 119.54412 245.0726 121.69051 243.2724 C 124.737 240.7106 125.77558 240.77983 129.7914 243.54937 C 134.8458 247.0113 136.92295 247.91139 137.5461 246.94205 C 138.16924 245.9727 142.73898 247.42672 150.07824 250.8194 C 152.57082 251.99645 154.71721 252.68883 154.78645 252.2734 C 154.92493 251.9272 155.47884 251.65026 155.9635 251.65026 C 157.62523 251.65026 163.92592 254.76598 163.92592 255.5276 C 163.92592 257.39704 159.01 260.51277 152.64006 262.65916 C 138.79239 267.29813 132.97637 270.4831 133.80723 273.0449 C 134.01494 273.80654 133.59951 274.77587 132.69941 275.60673 C 131.2454 276.92226 127.92197 282.87676 127.92197 284.1923 C 127.92197 284.53848 128.3374 284.88467 128.8913 284.88467 C 129.72216 284.88467 129.72216 285.36934 128.61435 287.86192 C 126.60644 292.5009 126.26024 295.2012 127.50654 295.68586 C 128.26816 295.9628 128.61435 297.0014 128.61435 299.07854 C 128.61435 300.74026 128.96054 302.9559 129.37597 304.0637 C 129.99912 305.72542 129.92988 306.14085 128.54511 307.04095 C 127.64501 307.59486 124.59852 309.87973 121.69051 312.0261 C 118.57479 314.38022 112.89724 317.5652 107.49665 319.98853 C 102.58072 322.2734 97.24937 324.90445 95.72612 325.8738 C 94.20288 326.7739 91.57182 327.81246 89.84086 328.02018 C 82.36312 329.128 79.52435 330.9282 83.67865 332.036 L 85.34037 332.45143 L 83.47093 333.00534 C 80.97835 333.6285 81.04759 334.32087 83.88636 336.46726 C 87.2098 339.02908 92.12573 340.4831 95.79536 340.06765 C 98.28794 339.7907 99.32652 339.2368 101.19595 337.0904 C 103.34234 334.59782 105.0733 334.32087 105.0733 336.5365 C 105.0733 337.0904 105.4195 337.50584 105.76569 337.50584 C 106.18112 337.50584 106.45807 337.9905 106.45807 338.5444 C 106.45807 339.65222 107.63512 339.85994 109.5738 339.16756 C 110.19694 338.8906 111.44323 337.0904 112.34333 335.15173 C 114.48972 330.51276 117.39773 327.81246 120.72118 327.3278 C 122.86756 327.05084 123.8369 326.4277 125.2909 324.2813 C 127.4373 321.30406 131.38388 318.53452 134.56885 317.84214 C 136.646 317.35747 136.71524 317.4267 136.36905 319.2269 C 136.0921 320.88863 136.23057 321.0271 137.47686 320.6809 C 138.79239 320.40396 138.93087 320.54243 138.58467 321.99644 C 137.96153 324.48902 139.69249 324.0736 142.53126 321.0271 C 145.71623 317.70366 146.7548 315.90346 148.34728 311.19525 C 150.14748 306.14085 153.0555 301.84807 156.24046 299.77092 C 157.62523 298.8016 161.57181 297.13987 165.03373 296.03205 C 176.11187 292.5009 176.31959 292.57013 174.93482 297.48606 C 173.96548 301.0172 174.03472 306.4178 175.0733 307.1102 C 175.48873 307.38714 175.6272 308.49496 175.35025 310.08744 C 175.0733 311.4722 175.281 315.14184 175.76568 318.25757 C 176.45806 322.6196 176.94273 323.9351 177.91207 324.21207 C 178.60445 324.35054 179.36607 325.3199 179.57379 326.35846 C 180.6816 331.8283 182.89723 337.6443 184.90514 340.3446 C 186.84382 343.0449 187.12077 343.1834 187.32849 341.7986 C 187.67468 339.72146 188.50554 339.85994 189.54411 342.2833 C 189.95954 343.3911 191.27507 345.12206 192.38289 346.22987 C 195.8448 349.48407 196.12176 352.3921 193.76765 358.762 C 191.89822 363.8164 187.74392 371.77883 183.52038 378.5642 C 176.80425 389.36537 173.75777 393.31196 169.6727 396.49693 C 164.0644 400.9282 162.19496 403.8362 165.65688 403.00533 C 167.52631 402.52066 168.08022 403.55924 166.34926 404.2516 C 165.79535 404.45934 165.31068 405.01325 165.31068 405.42868 C 165.31068 406.9519 176.94273 405.77487 181.30475 403.8362 C 184.90514 402.17447 185.1821 401.8975 185.66677 399.1972 C 185.87448 397.60474 185.94372 396.01226 185.736 395.59683 C 185.45905 395.25064 185.80524 394.9737 186.42839 394.9737 C 187.05153 394.9737 187.74392 395.5276 187.95163 396.21997 C 188.0901 396.91236 189.19792 397.81245 190.30574 398.2279 C 192.10593 398.92027 192.45213 398.85103 193.69842 397.1893 C 195.77557 394.6275 196.05252 392.75805 195.08318 387.7729 C 194.32156 384.034 194.32156 382.99544 195.22166 380.7106 C 195.77557 379.18733 196.88338 377.73333 197.71424 377.38714 C 198.61434 376.90247 199.65292 374.9638 200.8992 371.29416 C 202.83788 365.2704 205.67665 360.3545 207.13066 360.3545 C 207.68457 360.3545 208.3077 359.38516 208.58467 358.27735 C 209.06933 355.92324 209.9002 355.6463 210.93877 357.37725 C 211.63115 358.48506 211.7004 358.48506 212.11582 357.1003 C 212.6005 355.36933 213.5006 355.02314 213.98526 356.33867 C 214.46993 357.79268 215.71622 356.13096 215.92393 353.77685 C 216.27012 348.72245 215.8547 347.68388 209.96943 339.65222 C 208.51543 337.71355 208.23847 336.5365 208.23847 332.65915 C 208.23847 325.38912 210.66182 320.95786 220.28595 310.84906 C 223.33244 307.6641 225.89426 304.0637 227.7637 300.18635 L 230.6717 294.43957 L 231.64104 297.27834 C 232.2642 299.217 233.0258 300.1171 233.78743 300.1171 C 234.47982 300.1171 235.93382 301.3634 236.9724 302.88665 C 240.50355 308.0103 245.6272 310.64135 245.6272 307.3179 C 245.6272 306.5563 245.97339 306.34857 246.735 306.62552 C 251.5817 308.49496 258.2978 307.38714 257.95162 304.7561 C 257.81315 303.64827 258.22858 303.23284 260.02877 302.74817 C 261.20583 302.40198 262.31364 301.77884 262.31364 301.29417 C 262.38288 300.8095 262.45212 300.1171 262.52136 299.77092 C 262.52136 299.3555 263.90612 297.763 265.56784 296.23977 C 268.68357 293.19328 269.51443 290.7007 267.16033 291.46232 C 265.98327 291.8085 265.8448 291.6008 266.191 288.96974 L 266.60642 286.13097 L 262.52136 288.41583 C 258.92096 290.49298 257.8824 290.7007 252.89722 290.76994 C 247.56587 290.76994 247.15044 290.63146 244.3809 288.41583 C 240.50355 285.43858 238.91107 282.11514 236.55697 272.56024 C 235.44915 268.129 233.30276 262.10525 231.64104 258.71257 C 229.14846 253.65817 227.55598 251.58102 221.73996 245.69576 C 217.93185 241.88765 212.94668 237.4564 210.66182 235.93315 C 205.7459 232.6097 204.29189 231.08646 205.19199 230.18636 C 205.60742 229.77093 207.1999 230.39408 209.48476 231.91732 C 216.20089 236.48705 219.3166 235.93315 219.3166 230.11712 C 219.3166 228.2477 219.52433 226.72444 219.73204 226.72444 C 219.93976 226.72444 221.463 227.69378 223.12472 228.8016 C 227.4175 231.77885 229.91008 232.12504 231.3641 230.11712 C 231.98723 229.21703 232.4719 227.48607 232.4719 226.23978 C 232.4719 223.53948 233.1643 223.401 237.1801 225.33968 C 243.41157 228.38617 246.45805 226.58597 246.31958 220.00832 C 246.25034 217.7927 246.25034 215.78478 246.25034 215.50783 C 246.31958 215.23087 248.25825 215.9925 250.61236 217.16955 C 252.96646 218.3466 256.0822 219.5929 257.5362 219.8006 C 259.8903 220.28528 260.37497 220.07756 261.62126 218.48508 C 262.9368 216.8926 263.07526 216.06174 262.72907 211.2843 C 262.52136 208.37628 262.45212 205.95293 262.45212 205.95293 Z M 215.71622 101.81843 L 215.71622 101.81843 C 215.5085 102.02614 212.87744 104.03405 209.9002 106.31892 C 204.4996 110.40398 204.36113 110.47322 200.96845 110.05779 C 199.099 109.78084 197.36805 109.43465 197.16033 109.29617 C 196.60643 108.67302 201.52235 104.93415 204.08417 104.10329 C 208.58467 102.51081 216.54708 100.98757 215.71622 101.81843 Z M 198.5451 116.08153 L 198.5451 116.08153 C 198.47586 116.5662 197.4373 118.15868 196.191 119.54345 L 193.90613 122.10527 L 190.02878 121.48212 C 186.01296 120.85898 183.31266 119.75116 183.31266 118.78183 C 183.31266 118.29716 186.6361 116.63544 189.54411 115.6661 C 191.89822 114.97372 198.5451 115.25067 198.5451 116.08153 Z M 181.51246 125.35947 L 181.51246 125.35947 C 182.27409 125.49795 184.76667 125.91338 187.05153 126.32881 C 189.26716 126.675 191.20583 127.09043 191.41355 127.2289 C 191.55203 127.36738 191.34431 128.33672 190.92888 129.3753 L 190.2365 131.24473 L 187.81315 129.3753 C 184.8359 127.09043 178.39674 125.49795 174.51939 126.05186 C 171.54214 126.46729 168.08022 125.42871 170.15737 124.66709 C 172.16528 123.9747 175.35025 123.90547 177.70435 124.45937 C 178.95064 124.80556 180.6816 125.221 181.51246 125.35947 Z M 188.85173 135.12208 L 188.85173 135.12208 C 188.85173 135.46827 188.22859 137.6839 187.46696 140.17648 C 186.70534 142.66906 185.45905 147.30803 184.69743 150.56224 C 181.72018 163.3021 180.61236 165.6562 175.35025 171.0568 C 169.94966 176.52663 166.28002 179.64235 165.1722 179.64235 C 164.13363 179.64235 165.10297 173.0647 166.48774 170.36441 C 167.04164 169.18736 169.18803 165.58696 171.1267 162.33276 C 176.25035 153.95492 176.73502 152.50091 176.73502 145.23088 L 176.73502 138.79172 L 180.19693 138.09933 C 182.1356 137.6839 184.6282 136.7838 185.736 136.02218 C 187.95163 134.56817 188.85173 134.29122 188.85173 135.12208 Z"
                        fill="black"/>
               </g>
            </g>
            <g>
               <path d="M 274.4996 67.96086 C 275.12274 70.7304 273.5995 83.74721 272.21473 86.58598 C 271.52234 87.97075 270.3453 89.35552 269.58367 89.63247 C 252.55103 96.21012 250.82007 96.76403 248.11977 96.62555 C 246.5273 96.55631 243.89623 96.97174 242.30375 97.52565 C 240.71127 98.07955 239.39574 98.28727 239.39574 97.94108 C 239.39574 97.11022 242.85766 94.47916 244.0347 94.47916 C 244.58862 94.47916 244.79633 94.13297 244.58862 93.78678 C 244.3809 93.37134 244.86557 93.09439 245.76567 93.09439 C 247.01196 93.09439 247.15044 92.95591 246.31958 92.40201 C 244.86557 91.50191 247.56587 88.87085 253.10494 85.75512 C 258.2978 82.84711 258.4363 81.80854 253.2434 84.4396 L 249.64302 86.23979 L 248.60444 84.78579 C 247.77358 83.60873 247.0812 83.33178 245.55795 83.67797 C 242.9269 84.16264 242.99614 83.40102 245.8349 81.60082 C 247.01196 80.8392 252.1356 77.51576 257.05152 74.261555 C 270.13758 65.60676 273.53026 64.36047 274.4996 67.96086 Z"/>
            </g>
            <g>
               <path d="M 192.10593 76.26947 C 190.2365 79.31596 189.3364 82.15473 189.95954 83.60873 C 190.30574 84.50883 190.5827 84.50883 192.17517 83.67797 C 193.21375 83.12407 194.46004 82.70864 194.9447 82.70864 C 195.42938 82.70864 197.78348 81.7393 200.13758 80.56225 C 204.43036 78.41586 204.43036 78.41586 202.76864 80.21605 C 201.86854 81.18539 198.26815 83.47026 194.80623 85.20122 C 191.34431 87.00141 186.6361 89.70171 184.35124 91.22496 C 179.64303 94.34068 170.2266 102.44157 166.90317 106.18044 C 165.72612 107.56521 164.54906 108.46531 164.34135 108.2576 C 163.85668 107.77293 166.00307 102.09538 166.69545 102.09538 C 167.45707 102.09538 168.56489 98.91041 169.53423 94.13297 C 170.0189 91.8481 171.1267 88.38618 172.0268 86.44751 C 172.85767 84.50883 173.61929 82.70864 173.61929 82.50092 C 173.61929 81.67006 179.36607 73.70765 179.91998 73.70765 C 180.88932 73.70765 180.75084 74.05384 177.84283 79.45443 C 176.31959 82.15473 174.93482 85.54741 174.7271 86.86294 C 174.03472 90.87876 177.0812 95.03307 178.11978 91.57115 C 178.39674 90.67105 179.7815 88.73237 181.2355 87.20913 C 182.62028 85.68589 185.1821 82.57016 186.77458 80.28529 C 189.54411 76.40794 193.07527 72.87679 193.55994 73.36146 C 193.69842 73.49993 193.07527 74.74622 192.10593 76.26947 Z"/>
            </g>
            <g>
               <path d="M 161.918 83.88569 C 161.08714 86.7937 161.0179 94.61764 161.77953 97.24869 C 162.12572 98.42575 161.84877 99.94899 160.74095 102.09538 C 159.84085 103.82634 158.59456 107.3575 157.97142 110.05779 C 157.27903 112.68885 156.3097 115.25067 155.82503 115.6661 C 155.34036 116.08153 153.6094 116.42772 152.01692 116.35848 C 149.1089 116.22 149.03967 116.22 148.27805 113.17352 C 146.89328 107.49597 148.07033 97.24869 150.009 97.24869 C 150.21672 97.24869 150.42444 99.67204 150.42444 102.64929 C 150.42444 106.59587 150.77063 108.67302 151.8092 110.75018 C 153.33245 113.8659 155.61731 114.90448 155.61731 112.48113 C 155.61731 111.71951 156.10198 110.26551 156.79437 109.29617 C 157.55599 108.11912 157.97142 105.69577 158.1099 101.88766 C 158.45609 92.60972 159.77162 84.02417 161.3641 80.97768 C 162.40267 78.96976 162.74887 80.76996 161.918 83.88569 Z"/>
            </g>
            <g>
               <path d="M 213.08516 88.38618 C 211.008 92.40201 208.37695 95.86393 207.40761 95.65621 C 205.9536 95.37926 206.09208 97.17946 207.61533 97.94108 C 209.13857 98.77194 213.77754 98.56422 217.17022 97.52565 C 218.34728 97.17946 218.7627 97.24869 218.48575 97.94108 C 218.13956 99.11813 212.04658 101.12604 207.1999 101.74919 C 205.0535 101.9569 202.28397 102.99548 200.48378 104.10329 C 198.82206 105.14187 196.60643 106.24968 195.56785 106.52664 C 194.25232 106.80359 193.69842 107.3575 193.8369 108.18836 C 194.18308 110.12703 197.645 111.23484 204.8458 111.58104 C 215.5085 112.20418 212.32354 113.38123 198.61434 113.93514 C 192.2444 114.14286 186.6361 114.55829 186.22067 114.83524 C 185.87448 115.04295 184.21276 115.31991 182.68952 115.38915 C 180.40465 115.45838 179.85074 115.73534 179.85074 116.77391 C 179.85074 120.51279 186.91306 123.35156 197.92196 124.04394 C 201.66083 124.25166 204.77656 124.66709 204.77656 124.94404 C 204.77656 125.63642 194.18308 126.60576 192.52136 126.05186 C 191.27507 125.63642 182.41256 123.9747 176.04263 122.93613 C 174.1732 122.58994 172.09605 122.1745 171.4729 121.89755 C 170.84975 121.6206 169.88042 121.82831 169.39575 122.31298 C 167.80327 123.83623 161.29486 127.02119 159.77162 127.02119 C 157.69446 127.02119 155.61731 125.7749 155.61731 124.59785 C 155.61731 124.04394 156.03274 122.58994 156.58665 121.34365 C 157.14056 120.09736 157.90218 117.05087 158.31761 114.55829 C 159.2177 109.78084 162.33343 101.403 163.37201 101.403 C 164.13363 101.403 164.0644 101.88766 162.88734 105.83425 C 161.57181 110.12703 161.57181 113.93514 162.8181 116.98163 C 164.6183 121.27441 168.7726 121.82831 170.98823 118.08944 C 171.61138 116.84315 172.9269 115.87381 174.10396 115.6661 C 175.281 115.38915 178.3275 113.93514 180.95856 112.4119 C 183.58961 110.81941 187.46696 108.67302 189.54411 107.63445 C 195.36014 104.58796 200.62225 100.08747 207.61533 92.05582 C 211.07725 88.03999 214.12374 84.85503 214.2622 85.06274 C 214.4007 85.20122 213.91602 86.72446 213.08516 88.38618 Z"/>
            </g>
            <g>
               <path d="M 247.21968 85.20122 C 248.11977 86.10132 245.6272 89.494 240.7805 94.06373 C 235.37991 99.11813 232.1257 101.403 230.25628 101.403 C 228.73303 101.403 228.59455 100.1567 229.97932 99.6028 C 230.53323 99.39508 230.87942 98.84118 230.6717 98.35651 C 230.464 97.87184 231.71028 96.21012 233.44124 94.61764 C 237.3186 91.08648 236.90316 90.87876 232.40266 94.2022 C 229.5639 96.27936 229.00998 96.48707 229.00998 95.37926 C 229.00998 91.77886 244.86557 82.91635 247.21968 85.20122 Z"/>
            </g>
            <g>
               <path d="M 314.7271 89.1478 C 315.1425 92.67896 308.14944 103.34167 303.5797 106.1112 C 301.08713 107.70369 288.13955 112.68885 282.73896 114.14286 C 280.8003 114.69676 277.0614 115.73534 274.4996 116.49696 C 271.52234 117.32782 268.68357 117.74325 266.9526 117.53554 L 264.2523 117.1201 L 266.60642 114.62752 C 267.8527 113.24276 269.37595 111.37332 269.9991 110.40398 C 270.76072 109.15769 272.49168 108.18836 276.1613 107.0113 C 283.63906 104.58796 292.29385 101.33376 293.05548 100.57214 C 293.4709 100.22594 292.0169 100.57214 289.93975 101.403 C 287.8626 102.3031 282.94667 103.82634 279.06933 104.93415 L 272.007 106.94207 L 270.27605 105.2111 C 269.3067 104.24177 267.92195 103.48015 267.0911 103.48015 C 264.9447 103.48015 265.42937 102.37233 267.9912 101.403 C 269.16824 100.98757 271.31463 100.1567 272.63016 99.67204 C 284.8161 94.89459 293.88634 91.64039 298.24835 90.46333 C 301.08713 89.63247 305.0337 88.52466 306.90315 87.97075 C 308.84182 87.41685 311.3344 87.00141 312.44222 87.07065 C 314.17318 87.20913 314.5886 87.55532 314.7271 89.1478 Z"/>
            </g>
            <g>
               <path d="M 280.52333 91.08648 C 279.96942 92.19429 279.06933 93.09439 278.51542 93.09439 C 277.9615 93.09439 277.47684 93.37134 277.47684 93.78678 C 277.47684 94.13297 277.0614 94.47916 276.64598 94.47916 C 274.91502 94.5484 267.645 98.49498 268.5451 98.84118 C 269.099 99.04889 268.33738 99.25661 266.9526 99.25661 C 265.56784 99.32584 264.18308 99.6028 263.97536 100.01823 C 263.76765 100.36442 262.45212 100.71061 261.06735 100.71061 C 259.26715 100.71061 258.57477 101.0568 258.2978 102.09538 C 258.02086 103.13395 257.32848 103.48015 255.3898 103.48015 C 253.9358 103.48015 252.55103 103.68786 252.27408 103.96482 C 251.65093 104.58796 246.11186 106.24968 245.76567 105.97273 C 245.6272 105.83425 246.80425 103.96482 248.39673 101.88766 C 250.47388 99.11813 252.06636 97.8026 254.1435 97.04098 C 255.736 96.48707 262.17516 94.13297 268.47586 91.8481 C 280.8003 87.34761 282.53124 87.27837 280.52333 91.08648 Z"/>
            </g>
            <g>
               <path d="M 228.3176 95.65621 C 228.3176 96.0024 228.04065 96.69479 227.62522 97.24869 C 226.8636 98.49498 225.89426 97.73336 226.44816 96.21012 C 226.8636 95.17154 228.3176 94.75611 228.3176 95.65621 Z"/>
            </g>
            <g>
               <path d="M 249.0891 98.77194 C 249.0891 99.11813 247.15044 101.403 244.79633 103.7571 C 240.2266 108.18836 229.7716 114.28133 227.90217 113.58895 C 226.5174 113.03504 226.72512 111.58104 228.24836 110.75018 C 233.99515 107.70369 236.6262 106.18044 236.6262 105.90349 C 236.6262 105.76501 235.44915 106.1112 234.06439 106.73435 C 230.81018 108.04988 224.64797 109.78084 224.30178 109.36541 C 224.1633 109.22693 225.0634 107.84216 226.3097 106.31892 C 228.8715 103.27243 234.47982 100.64137 242.85766 98.56422 C 247.4274 97.45641 249.0891 97.52565 249.0891 98.77194 Z"/>
            </g>
            <g>
               <path d="M 227.7637 101.74919 C 227.4175 104.51872 209.06933 120.44355 207.7538 119.12802 C 207.5461 118.9203 207.5461 118.0202 207.82304 117.1201 C 208.1 115.94305 209.13857 115.11219 211.49268 114.2121 C 216.4086 112.4119 218.83194 109.7116 216.4086 108.8115 C 215.78546 108.60379 216.13165 108.04988 217.23946 107.08054 C 219.87052 104.79568 218.48575 105.28034 214.46993 107.98064 C 207.68457 112.55037 207.1999 110.54246 213.91602 105.5573 C 220.28595 100.84909 222.08615 99.94899 225.20187 100.1567 C 227.55598 100.36442 227.9714 100.57214 227.7637 101.74919 Z"/>
            </g>
            <g>
               <path d="M 269.02976 107.63445 C 269.51443 112.13494 256.56686 120.09736 240.43432 125.29023 C 231.77952 128.05977 231.5718 128.05977 230.39475 126.675 C 229.70237 125.84414 229.70237 125.42871 230.39475 124.66709 C 231.29485 123.49004 239.74193 120.09736 241.81908 120.02812 C 242.64994 120.02812 242.85766 119.8204 242.30375 119.61269 C 241.81908 119.40497 239.18802 119.8204 236.55697 120.51279 C 232.33343 121.6206 231.64104 121.6206 231.08714 120.78974 C 230.6717 120.23583 230.39475 119.54345 230.39475 119.19726 C 230.39475 118.57411 250.61236 108.67302 255.66676 106.87283 C 258.02086 105.97273 260.65192 105.62654 263.97536 105.76501 C 268.61433 105.90349 268.82205 105.97273 269.02976 107.63445 Z"/>
            </g>
            <g>
               <path d="M 316.9427 107.98064 C 318.11977 109.36541 317.35814 111.37332 313.3423 117.32782 C 309.25725 123.4208 304.75676 127.36738 299.9793 129.16758 C 293.1247 131.79864 276.57674 135.60675 266.0525 137.06076 C 264.3908 137.26847 261.55202 136.92228 258.92096 136.16066 L 254.55894 134.91437 L 258.4363 133.32188 C 260.58268 132.42179 263.21374 130.96778 264.18308 130.13692 C 265.91404 128.68291 277.1999 125.01328 287.1702 122.58994 C 289.6628 122.03603 292.917 121.06669 294.44024 120.44355 C 297.69445 119.19726 296.65587 119.40497 285.43926 122.24374 C 280.86952 123.35156 275.46893 124.73633 273.53026 125.221 C 270.62224 125.98262 269.86062 125.98262 269.86062 125.29023 C 269.86062 124.80556 270.3453 124.25166 270.8992 123.9747 C 271.4531 123.76699 271.93777 122.79765 271.93777 121.82831 C 271.93777 119.75116 272.42244 119.54345 283.29287 116.5662 C 292.5708 114.00438 297.7637 112.20418 301.0179 110.26551 C 303.372 108.94998 310.50355 107.14978 314.2424 107.0113 C 315.281 106.94207 316.45805 107.42673 316.9427 107.98064 Z"/>
            </g>
            <g>
               <path d="M 243.41157 109.43465 C 242.78842 110.05779 241.95756 110.33475 241.54213 110.12703 C 240.15736 109.22693 240.7805 108.32683 242.64994 108.32683 C 244.3809 108.32683 244.45014 108.39607 243.41157 109.43465 Z"/>
            </g>
            <g>
               <path d="M 225.13264 112.89657 C 225.75578 113.10428 226.24045 113.72743 226.24045 114.28133 C 226.24045 115.52762 221.60148 120.09736 220.28595 120.09736 C 219.73204 120.09736 219.3166 120.51279 219.3166 120.99745 C 219.3166 121.48212 218.00108 122.45146 216.4086 123.21308 C 214.81612 123.90547 212.46201 125.221 211.14649 126.1211 C 209.83096 126.95195 208.1 127.71358 207.33838 127.71358 C 205.9536 127.71358 205.9536 127.71358 207.26914 126.25957 C 207.96152 125.42871 210.73106 123.69775 213.36211 122.38222 C 215.92393 121.06669 217.93185 119.8204 217.72413 119.68193 C 217.51642 119.47421 215.43926 120.30507 213.08516 121.48212 C 210.73106 122.65918 208.6539 123.49004 208.4462 123.35156 C 207.61533 122.45146 210.1079 119.8204 214.46993 116.91239 C 217.17022 115.18143 219.4551 113.45047 219.73204 113.10428 C 220.14747 112.4119 223.47092 112.27342 225.13264 112.89657 Z"/>
            </g>
            <g>
               <path d="M 232.4719 115.25067 C 232.4719 115.59686 232.2642 115.94305 231.98723 115.94305 C 231.64104 115.94305 230.74094 116.15077 229.91008 116.35848 C 229.00998 116.63544 228.3176 116.49696 228.3176 116.08153 C 228.3176 115.38915 229.63313 114.83524 231.64104 114.62752 C 232.05647 114.62752 232.4719 114.83524 232.4719 115.25067 Z"/>
            </g>
            <g>
               <path d="M 206.43828 115.73534 C 206.646 116.01229 205.7459 117.39706 204.29189 118.85106 C 201.86854 121.34365 202.07626 122.24374 204.77656 120.78974 C 206.23056 120.02812 207.7538 121.34365 206.99218 122.65918 C 206.2998 123.76699 196.46795 123.00537 196.46795 121.89755 C 196.46795 120.7205 200.96845 116.15077 202.42245 115.73534 C 204.4996 115.25067 205.88437 115.18143 206.43828 115.73534 Z"/>
            </g>
            <g>
               <path d="M 139.0001 116.22 C 139.0001 116.42772 138.72315 116.77391 138.30772 116.98163 C 137.96153 117.18934 137.61534 117.05087 137.61534 116.70468 C 137.61534 116.28925 137.96153 115.94305 138.30772 115.94305 C 138.72315 115.94305 139.0001 116.08153 139.0001 116.22 Z"/>
            </g>
            <g>
               <path d="M 145.92394 119.33573 C 145.92394 119.95888 144.26222 120.78974 142.9467 120.78974 C 142.53126 120.78974 142.80821 120.30507 143.56984 119.75116 C 145.09308 118.57411 145.92394 118.43563 145.92394 119.33573 Z"/>
            </g>
            <g>
               <path d="M 269.6529 120.51279 C 270.13758 121.82831 265.98327 126.25957 261.20583 129.44454 C 256.9823 132.21407 243.61928 135.74523 229.35618 137.75314 C 225.9635 138.2378 225.9635 138.2378 227.14055 136.92228 C 227.7637 136.16066 228.3176 135.05284 228.3176 134.4297 C 228.3176 133.66808 229.28694 133.04493 231.29485 132.56026 C 235.65687 131.45245 235.93382 131.10626 232.33343 131.52169 C 227.90217 131.93712 228.10989 130.8293 232.67962 129.79073 C 237.38783 128.68291 248.189 124.66709 254.282 121.75908 C 258.4363 119.75116 259.8903 119.40497 264.18308 119.40497 C 268.12966 119.40497 269.3067 119.61269 269.6529 120.51279 Z"/>
            </g>
            <g>
               <path d="M 154.23255 120.7205 C 154.23255 121.13593 153.9556 121.6206 153.54016 121.82831 C 152.29387 122.58994 152.77854 124.94404 154.57874 126.675 C 155.82503 127.99053 157.00208 128.40596 159.42542 128.40596 C 161.71029 128.40596 162.54115 128.68291 162.54115 129.44454 C 162.54115 130.89854 165.44916 130.76006 170.15737 129.09834 C 174.45015 127.5751 176.8735 127.29815 174.65786 128.54444 C 173.89624 128.95987 172.16528 130.20616 170.78052 131.31397 C 169.04956 132.6295 167.38784 133.25265 165.72612 133.25265 C 164.0644 133.25265 163.23353 133.59884 163.23353 134.22198 C 163.23353 134.70665 162.61039 135.3298 161.84877 135.53751 C 161.08714 135.74523 160.464 136.2299 160.464 136.71456 C 160.464 137.19923 161.0179 137.33771 161.918 137.06076 C 162.8181 136.71456 163.64896 136.92228 163.92592 137.47619 C 164.41059 138.16857 164.75678 138.16857 165.5184 137.54542 C 167.38784 136.02218 174.31167 139.55334 174.31167 142.04592 C 174.31167 142.53059 174.58863 142.94602 174.93482 142.94602 C 175.281 142.94602 175.41949 145.02317 175.21177 147.58499 C 174.86558 152.57015 172.9269 157.3476 168.56489 163.64829 C 164.89525 168.97964 163.30277 173.82633 163.23353 179.50388 C 163.23353 182.27341 163.57973 185.25066 163.99516 186.01228 C 165.1722 188.15867 163.64896 188.71258 158.31761 188.2279 C 154.5095 187.88172 153.67864 187.95096 153.33245 188.9203 C 153.0555 189.68192 153.2632 190.0281 154.09407 190.0281 C 154.78645 190.0281 155.68655 190.3743 156.17122 190.85897 C 157.00208 191.68983 165.5184 190.09735 170.15737 188.15867 C 178.25826 184.766 185.66677 180.47321 187.8824 177.9114 C 191.41355 173.82633 191.48279 173.7571 193.76765 169.46431 C 197.85272 161.8481 198.5451 160.25561 200.6915 153.88568 C 204.43036 142.66906 208.3077 135.19132 212.87744 130.69083 C 219.24737 124.25166 229.70237 118.64335 229.70237 121.68984 C 229.70237 122.86689 226.5174 125.70566 223.2632 127.29815 C 219.87052 129.0291 220.3552 129.3753 224.37101 127.99053 C 226.1712 127.36738 228.17912 127.09043 228.8715 127.36738 C 229.91008 127.78281 229.70237 128.129 227.69446 129.79073 C 226.44816 130.8293 224.02482 132.0756 222.3631 132.49102 C 220.70138 132.90645 219.3166 133.39112 219.3166 133.59884 C 219.3166 133.73731 220.83986 133.80655 222.77853 133.73731 C 224.64797 133.66808 226.24045 133.87579 226.37893 134.22198 C 226.72512 135.3298 223.19396 137.40695 220.009 138.0301 C 216.89327 138.65324 216.89327 138.65324 219.38585 138.72248 C 225.34035 138.86095 223.54015 142.7383 217.10099 143.56916 L 213.43135 144.05383 L 216.4086 144.60774 C 221.2553 145.50784 219.52433 147.65423 213.22364 148.48509 C 209.76172 148.90052 209.62324 149.039 212.04658 149.10823 C 215.71622 149.17747 216.9625 150.35452 215.37003 152.08548 C 214.53917 152.98558 213.1544 153.33177 210.03867 153.40101 C 205.3997 153.40101 206.43828 154.57806 211.21572 154.6473 C 212.87744 154.71654 213.77754 155.06273 213.77754 155.68588 C 213.77754 157.27836 211.9081 158.31694 208.1 158.87084 C 204.91503 159.28627 204.77656 159.42475 206.99218 159.49399 C 211.97735 159.63246 210.86953 162.60971 205.3997 163.64829 C 202.6994 164.2022 202.63017 164.27144 204.56884 164.34067 C 205.7459 164.40991 206.99218 164.7561 207.26914 165.24077 C 208.03076 166.41782 204.77656 168.7027 202.90712 168.3565 C 200.82997 167.94107 200.82997 168.97964 202.90712 169.53355 L 204.43036 169.94898 L 202.6994 171.40299 C 201.52235 172.44156 200.27606 172.78775 198.47586 172.58004 C 195.2909 172.30309 195.6371 173.20318 198.8913 173.82633 C 200.20682 174.03405 201.31464 174.51871 201.31464 174.8649 C 201.31464 175.90348 198.26815 177.5652 196.12176 177.63444 C 194.18308 177.63444 194.18308 177.70368 195.6371 178.25759 C 198.8913 179.64235 196.39871 182.0657 192.31365 181.51179 C 188.9902 181.09636 188.85173 181.30407 191.62127 182.75808 C 194.46004 184.21209 193.55994 185.45838 190.09802 184.9737 C 187.46696 184.62752 187.39772 184.62752 188.50554 185.8738 C 190.37497 187.88172 189.12868 188.85106 185.1821 188.43563 C 181.78942 188.15867 181.72018 188.15867 183.31266 189.33572 C 184.97438 190.58202 184.76667 190.9282 181.78942 192.03602 C 180.40465 192.5207 179.36607 192.38221 177.35816 191.2744 L 174.65786 189.88963 L 176.59654 191.96678 L 178.60445 194.04393 L 177.01197 195.15175 C 174.79634 196.675 173.827 196.53652 171.88833 194.45936 C 170.64204 193.0746 170.15737 192.86688 170.15737 193.69774 C 170.15737 194.25165 170.71128 195.29022 171.33442 195.9826 C 172.44224 197.02118 172.44224 197.15966 171.19595 198.05976 C 169.39575 199.3753 167.8725 199.2368 165.72612 197.5751 C 163.7182 195.9826 162.54115 196.12108 164.13363 197.71357 C 164.6183 198.26747 165.93383 200.20615 167.04164 202.14482 C 169.53423 206.36836 175.21177 212.7383 179.85074 216.5464 C 181.78942 218.13889 184.282 220.97766 185.38981 222.98557 C 188.02087 227.48607 193.21375 232.402 197.50653 234.27143 C 201.10692 235.8639 203.0456 236.07162 203.73798 235.03305 C 204.4996 233.856 205.19199 234.2022 211.56192 239.1181 C 218.7627 244.72642 227.48674 254.2813 230.1178 259.40495 C 232.2642 263.6285 234.47982 270.06766 234.54905 272.07558 C 234.54905 272.8372 235.5184 276.29912 236.6262 279.76104 C 238.28793 284.60772 239.3265 286.5464 241.3344 288.48507 C 245.14252 292.08546 249.01987 293.2625 255.0436 292.57013 C 257.67467 292.22394 260.58268 291.67003 261.3443 291.18537 C 262.17516 290.76994 263.21374 290.42374 263.6984 290.42374 C 265.08318 290.42374 262.7983 292.63937 260.30573 293.67795 C 257.60543 294.78576 257.95162 295.9628 261.06735 295.9628 L 263.28298 295.9628 L 261.20583 297.34758 C 260.02877 298.1092 257.8824 298.73235 256.35914 298.73235 L 253.5896 298.8016 L 255.66676 299.9094 L 257.7439 301.08645 L 255.45904 301.77884 C 253.79732 302.2635 252.41255 302.19427 250.6816 301.57112 C 249.36607 301.08645 248.11977 300.87874 247.91206 301.08645 C 247.49663 301.5019 251.85865 304.2714 253.10494 304.2714 C 253.52037 304.2714 253.9358 304.54837 253.9358 304.9638 C 253.9358 305.31 253.2434 305.6562 252.41255 305.6562 C 249.9892 305.6562 245.6272 304.2714 245.6272 303.57903 C 245.6272 303.1636 245.21176 302.88665 244.7271 302.88665 C 244.1732 302.88665 242.9269 301.7096 241.95756 300.32483 C 240.5728 298.31692 240.01889 298.03996 239.74193 298.87082 C 239.46498 299.49397 239.81117 300.94798 240.36508 302.12503 C 241.88832 305.03304 241.74984 305.44847 239.8804 303.7175 C 237.73402 301.7096 235.31068 296.72444 234.20286 292.22394 C 233.7182 290.28527 233.30276 289.38517 233.23353 290.21603 C 233.1643 291.11613 232.8181 291.8085 232.40266 291.8085 C 231.98723 291.8085 231.84876 291.0469 232.05647 289.93908 C 232.95657 285.854 232.8181 270.06766 231.84876 268.3367 C 230.39475 265.7749 229.49465 267.57508 230.74094 270.55233 C 232.1257 273.87577 232.1257 283.22295 230.6717 285.57706 C 229.7716 287.16954 229.70237 287.03106 230.1178 282.7383 C 230.53323 277.96084 230.04856 273.80654 229.00998 273.80654 C 228.6638 273.80654 228.73303 274.70663 229.07922 275.81445 C 229.5639 277.1992 229.5639 278.30703 229.07922 279.20713 C 228.73303 279.8995 228.52532 281.07656 228.73303 281.8382 C 228.94075 282.5998 228.80227 284.60772 228.38684 286.26944 C 227.9714 288.2081 227.9714 289.66212 228.38684 290.0083 C 228.80227 290.42374 229.00998 290.42374 229.00998 289.86984 C 229.00998 289.38517 229.35618 289.03898 229.7716 289.03898 C 230.74094 289.03898 230.1178 291.11613 226.79436 298.03996 C 225.2711 301.29417 223.8171 303.5098 223.67863 303.09437 C 223.47092 302.6097 224.23254 300.39407 225.34035 298.17844 C 227.0713 294.71652 227.27903 293.7472 226.8636 290.42374 C 226.44816 286.47716 226.37893 286.5464 225.82502 291.8085 C 225.6173 293.53947 225.13264 295.2012 224.78644 295.5474 C 224.44025 295.9628 224.1633 296.6552 224.1633 297.13987 C 224.1633 298.1092 223.67863 298.87082 220.5629 302.33274 C 219.4551 303.5098 218.62423 304.7561 218.62423 305.03304 C 218.62423 305.37923 217.58565 306.69476 216.4086 307.94105 C 209.06933 315.55727 204.70732 322.1349 204.8458 325.3199 C 204.8458 326.6354 204.91503 326.6354 205.67665 325.04293 C 206.09208 324.0736 206.8537 322.89654 207.33838 322.41187 C 207.82304 321.9272 208.23847 321.2348 208.23847 320.88863 C 208.23847 319.98853 211.07725 315.90346 213.36211 313.54936 C 214.4007 312.44155 216.7548 309.87973 218.62423 307.80257 C 220.49367 305.79466 222.3631 304.2714 222.77853 304.4099 C 223.2632 304.54837 220.97833 307.38714 217.79337 310.77982 C 214.67764 314.1725 211.3542 317.9806 210.4541 319.2269 C 205.0535 327.25856 204.63808 336.05183 209.48476 342.21404 C 213.08516 346.78378 215.78546 352.946 212.94668 350.1072 C 211.56192 348.72245 210.4541 349.1379 210.86953 351.0073 C 211.14649 352.53056 210.93877 352.73828 209.554 352.5998 C 208.23847 352.3921 207.89228 352.8075 207.5461 354.81543 C 207.26914 356.13096 206.16132 358.27735 204.91503 359.52364 C 203.73798 360.76993 202.42245 362.84708 202.00702 364.1626 C 201.17616 366.72443 199.51444 367.62453 200.13758 365.2012 C 200.8992 362.29317 199.099 364.02413 197.36805 367.83224 C 196.46795 369.97863 195.15242 372.88664 194.52928 374.20217 C 193.97537 375.5177 192.79832 377.5256 191.96746 378.70266 C 189.6826 381.74915 188.71325 383.89554 189.47488 383.89554 C 189.8903 383.89554 190.65193 382.99544 191.27507 381.8184 C 191.89822 380.7106 192.5906 379.74124 192.86756 379.74124 C 193.62918 379.74124 193.69842 394.21206 192.9368 394.6275 C 192.5906 394.90444 192.31365 394.55825 192.31365 394.00434 C 192.31365 392.41186 190.85964 391.85795 190.09802 393.1735 C 189.61335 394.0736 189.19792 394.1428 188.50554 393.5889 C 187.74392 392.96577 186.56686 393.10425 183.45114 394.21206 C 181.2355 395.0429 178.25826 395.66607 176.8735 395.66607 L 174.31167 395.66607 L 177.28892 391.2348 C 183.45114 381.88763 188.29782 373.99446 190.16726 370.18635 C 193.55994 363.33175 195.6371 358.69278 196.46795 355.9925 C 196.95262 354.46924 197.71424 352.46132 198.26815 351.492 C 199.37596 349.3456 199.51444 346.6453 198.5451 345.12206 C 197.9912 344.2912 197.78348 344.2912 196.60643 345.32977 C 195.36014 346.4376 195.22166 346.4376 193.8369 344.91434 C 193.00603 344.0835 191.1366 340.8985 189.6826 337.92127 C 187.05153 332.65915 186.9823 332.5899 186.56686 334.66706 C 186.2899 335.8441 185.80524 336.81345 185.45905 336.81345 C 184.00504 336.81345 180.61236 325.5276 180.54313 320.40396 C 180.54313 317.4267 179.64303 315.9727 178.8814 317.7729 C 178.6737 318.3268 178.11978 318.81148 177.70435 318.81148 C 176.8735 318.81148 177.21968 308.07953 178.18902 302.0558 C 178.53521 299.9094 178.39674 299.42473 177.49664 299.42473 C 176.8735 299.42473 176.38882 299.217 176.38882 298.87082 C 176.38882 298.24768 178.05054 292.5009 181.5817 280.38418 C 183.9358 272.35253 184.07428 265.01326 181.99713 258.43562 C 181.16627 255.94304 179.91998 253.10426 179.15836 252.20416 C 177.63511 250.33473 177.35816 251.51178 178.74293 254.2813 C 179.2276 255.3199 179.71227 257.1201 179.71227 258.29714 L 179.7815 260.51277 L 177.63511 258.5741 C 176.5273 257.53552 175.21177 255.94304 174.7271 255.04294 C 173.75777 253.03502 172.23452 252.55036 172.16528 254.21208 C 172.16528 255.25065 172.0268 255.25065 171.40366 253.93512 C 170.98823 253.03502 170.2266 252.34264 169.6727 252.34264 C 169.18803 252.34264 168.7726 251.99645 168.7726 251.65026 C 168.7726 251.23483 168.42641 250.95787 168.01098 250.95787 C 167.59555 250.95787 166.34926 250.05777 165.1722 248.88072 C 164.0644 247.7729 162.8181 246.80357 162.54115 246.80357 C 161.64105 246.80357 162.54115 248.94996 164.13363 250.75016 C 166.14155 252.9658 165.24145 253.38122 161.71029 251.78873 C 160.1178 251.09635 157.27903 249.85006 155.47884 249.15768 C 153.6094 248.4653 152.1554 247.49595 152.1554 247.0113 C 152.1554 246.52662 150.77063 245.00337 149.03967 243.54937 C 147.30871 242.1646 145.92394 240.77983 145.92394 240.50288 C 145.92394 240.08745 149.93977 239.74126 153.74788 239.8105 C 154.37102 239.8105 154.92493 239.53354 154.92493 239.1181 C 154.92493 238.77192 155.34036 238.49497 155.82503 238.49497 C 156.3097 238.49497 157.7637 237.59487 159.07923 236.48705 C 161.08714 234.82533 161.3641 234.27143 160.60248 233.5098 C 159.84085 232.74818 159.5639 232.81742 159.07923 233.71752 C 158.6638 234.34066 157.55599 235.1023 156.51741 235.44848 C 154.23255 236.07162 154.1633 236.07162 152.84778 236.62553 C 152.29387 236.83325 149.93977 237.17944 147.6549 237.31791 C 145.37003 237.52563 142.9467 237.87182 142.18507 238.14878 C 141.21573 238.5642 141.00802 238.42573 141.21573 237.80258 C 141.63116 236.48705 145.8547 234.2022 146.7548 234.7561 C 147.101 234.9638 148.76271 234.2022 150.42444 233.02514 C 152.08616 231.84808 153.74788 230.87875 154.1633 230.87875 C 154.57874 230.87875 154.92493 230.39408 154.92493 229.84017 C 154.92493 229.3555 155.34036 228.59388 155.82503 228.31693 C 156.79437 227.69378 158.04066 225.7551 159.07923 223.33176 C 159.49466 222.43167 160.94867 220.7007 162.40267 219.38518 C 164.41059 217.51574 164.68754 217.03107 163.64896 217.03107 C 162.2642 217.03107 157.69446 221.2546 157.69446 222.63938 C 157.69446 223.7472 153.19397 228.1092 152.01692 228.1092 C 151.53225 228.1092 150.3552 228.59388 149.4551 229.21703 C 148.2088 230.11712 147.72414 230.18636 147.30871 229.49398 C 146.89328 228.87083 146.61633 229.0093 146.27013 230.11712 C 146.06242 230.87875 145.43927 231.57113 144.9546 231.57113 C 144.4007 231.57113 143.63908 232.47123 143.1544 233.64828 C 142.2543 235.8639 141.07726 236.41782 141.07726 234.68686 C 141.07726 233.3021 140.93878 233.3021 137.1999 235.72543 C 133.25332 238.218 131.66084 238.5642 123.14452 238.70268 C 116.4284 238.84116 113.93581 239.94897 118.2286 240.9183 C 121.34432 241.6107 119.82108 242.85698 115.66677 242.99546 C 112.2741 243.13394 107.42741 245.14185 105.83493 247.08052 C 105.28102 247.7729 103.82701 248.18834 102.23453 248.18834 C 98.70337 248.18834 93.78745 250.68092 92.2642 253.1735 C 91.64106 254.2813 90.46401 255.45837 89.70239 255.73532 C 88.4561 256.22 84.30179 262.58992 84.30179 264.11316 C 84.30179 264.45936 83.40169 266.3288 82.22464 268.26747 C 81.11683 270.1369 80.49368 271.7294 80.90911 271.7294 C 81.2553 271.7294 82.22464 270.62157 82.98626 269.30604 C 84.71722 266.39803 86.17123 266.05184 84.64798 268.95985 C 83.33246 271.52167 83.33246 276.0914 84.57875 278.58398 C 85.54808 280.38418 85.47885 280.52266 83.54017 281.6997 C 82.43236 282.32285 81.53226 283.36143 81.53226 283.91534 C 81.53226 285.02315 75.716235 291.11613 74.60842 291.11613 C 74.19299 291.11613 74.12375 289.93908 74.33147 288.06964 C 74.60842 286.33868 74.40071 282.46133 73.98528 279.41484 C 73.08518 273.1834 73.22365 272.56024 78.07034 264.8748 C 79.59358 262.45144 81.80921 257.8817 82.98626 254.83522 C 85.96351 247.0113 89.9101 242.99546 99.53423 238.14878 C 111.30476 232.19428 125.15243 220.90842 123.14452 218.9005 C 122.59061 218.3466 122.10594 218.48508 121.34432 219.52365 C 120.5827 220.56223 120.16727 220.63147 119.75184 219.93908 C 119.40565 219.45442 118.64402 219.2467 117.95164 219.52365 C 116.84383 219.93908 116.77459 219.73137 117.12078 217.65422 C 117.53621 215.36935 117.25926 215.6463 116.01297 219.03899 C 115.5283 220.28528 115.1821 220.493 114.6282 219.93908 C 113.38191 218.6928 112.20486 218.96975 111.72019 220.63147 C 111.30476 222.22395 111.23552 222.22395 110.26618 220.90842 C 109.36608 219.66213 108.95065 217.7927 108.95065 214.26154 C 108.95065 213.70763 109.2276 211.97667 109.50456 210.45343 C 109.91999 208.2378 109.85075 207.82237 109.15837 208.51475 C 107.49665 210.17647 107.15045 209.41485 107.15045 204.01426 C 107.15045 198.19824 108.95065 193.0746 111.9279 190.44354 C 113.38191 189.128 113.93581 187.25857 112.828 187.25857 C 112.55105 187.25857 111.9279 187.60477 111.44323 188.08943 C 111.0278 188.50486 110.4739 188.71258 110.19694 188.50486 C 109.5738 187.81248 111.78943 184.0736 114.21277 181.92722 C 122.86756 174.10328 122.79833 174.17252 121.55204 173.13395 C 120.44422 172.30309 120.72118 171.9569 124.32157 169.2566 C 126.46796 167.66412 130.06835 165.44849 132.35322 164.34067 C 134.56885 163.3021 136.78448 162.0558 137.33838 161.57114 C 137.82305 161.1557 138.58467 161.01723 139.0001 161.29419 C 139.3463 161.5019 139.69249 161.22495 139.69249 160.6018 C 139.69249 159.77094 140.10792 159.56323 141.00802 159.90942 C 141.83888 160.11713 142.6005 159.90942 142.9467 159.35551 C 143.77755 157.9015 152.36311 154.02416 154.71721 154.02416 C 157.48675 154.02416 161.50257 151.73929 161.50257 150.07757 C 161.57181 149.38519 162.2642 147.65423 163.09506 146.26946 C 165.31068 142.7383 164.9645 142.32287 162.05648 145.0924 C 157.90218 148.90052 152.84778 150.97767 148.48576 150.70071 C 147.86262 150.70071 147.44719 150.90843 147.6549 151.32386 C 147.93185 151.67005 148.97043 151.947 150.14748 151.947 C 151.2553 151.947 152.1554 152.22396 152.1554 152.63939 C 152.1554 153.67796 146.89328 153.47025 144.0545 152.2932 C 142.66974 151.67005 140.38487 150.35452 139.06934 149.31595 C 135.7459 146.82337 132.1455 147.30803 127.92197 150.97767 C 125.84481 152.70863 122.31366 154.02416 119.40565 154.02416 C 116.35916 154.02416 118.02088 152.63939 121.62127 152.15472 C 123.14452 151.947 124.46005 151.46234 124.46005 151.0469 C 124.46005 150.42376 123.21376 150.493 116.9823 151.67005 C 113.7281 152.2932 112.828 151.25462 113.17419 146.96184 C 113.45115 142.66906 113.79734 142.25363 118.7825 139.41486 C 124.25233 136.36837 134.56885 129.44454 138.30772 126.32881 C 141.56192 123.62851 145.02384 121.6206 148.0011 120.7205 C 150.49367 119.95888 154.23255 119.95888 154.23255 120.7205 Z"/>
            </g>
            <g>
               <path d="M 141.42345 122.1745 C 141.21573 122.5207 140.73106 122.86689 140.31563 122.86689 C 139.96944 122.86689 139.69249 122.5207 139.69249 122.1745 C 139.69249 121.75908 140.17716 121.48212 140.8003 121.48212 C 141.35421 121.48212 141.63116 121.75908 141.42345 122.1745 Z"/>
            </g>
            <g>
               <path d="M 199.92987 127.71358 C 199.92987 128.05977 199.37596 128.68291 198.75282 129.0291 C 196.67567 130.20616 199.30672 129.9292 201.5916 128.75215 C 202.97636 127.99053 203.87646 127.92129 204.36113 128.40596 C 205.3997 129.44454 202.21474 132.49102 198.06043 134.36046 C 196.05252 135.26056 194.3908 136.16066 194.3908 136.29913 C 194.3908 136.43761 195.6371 136.2299 197.16033 135.8837 C 200.48378 135.05284 201.52235 135.60675 199.37596 137.06076 C 198.61434 137.6839 197.50653 138.51476 197.02186 139.06867 C 196.46795 139.55334 195.15242 140.52267 194.0446 141.14582 C 192.79832 141.8382 192.52136 142.1844 193.35222 141.97668 C 198.47586 140.73039 198.75282 140.66115 198.26815 141.49201 C 197.9912 141.90744 197.22957 142.25363 196.60643 142.32287 C 195.6371 142.32287 195.70633 142.46135 196.81414 142.94602 C 197.57576 143.29221 197.78348 143.56916 197.2988 143.56916 C 196.81414 143.6384 196.5372 143.91535 196.81414 144.33078 C 197.02186 144.67698 196.05252 145.57708 194.59852 146.3387 L 191.96746 147.65423 L 193.90613 148.1389 C 195.36014 148.55433 195.6371 148.83128 194.9447 149.24671 C 194.25232 149.73138 194.3908 149.86985 195.42938 149.86985 C 196.81414 149.9391 196.81414 149.9391 195.49861 150.90843 C 194.737 151.46234 193.55994 151.947 192.79832 151.947 C 192.10593 151.947 191.75974 152.2932 191.96746 152.63939 C 192.17517 153.05482 191.6905 153.60873 190.7904 153.95492 C 189.05945 154.71654 189.54411 154.92426 192.65984 154.78578 C 194.46004 154.71654 194.59852 154.78578 193.62918 155.5474 C 193.00603 156.03207 192.65984 156.7937 192.79832 157.20912 C 192.9368 157.62455 191.6905 158.38617 189.95954 158.94008 L 186.91306 159.84018 L 188.64402 160.74028 C 189.61335 161.22495 190.92888 161.64038 191.55203 161.64038 C 192.31365 161.70962 192.10593 161.98657 190.92888 162.67895 C 189.8903 163.3021 189.61335 163.71753 190.2365 163.71753 C 191.6905 163.78677 189.19792 165.17153 186.42839 165.86392 L 184.35124 166.34859 L 186.35915 166.41782 C 188.02087 166.48706 188.22859 166.62554 187.46696 167.52564 C 186.9823 168.07955 186.84382 168.56421 187.19 168.56421 C 187.46696 168.56421 187.12077 169.04888 186.35915 169.60279 C 185.66677 170.1567 184.35124 170.64137 183.45114 170.64137 C 181.44322 170.64137 182.1356 172.02613 184.21276 172.02613 C 185.32057 172.02613 185.45905 172.23385 184.8359 172.64928 C 184.282 172.92623 184.00504 173.48014 184.14352 173.82633 C 184.21276 174.10328 183.3819 174.58795 182.27409 174.79567 C 181.09703 175.07262 179.57379 175.55729 178.8814 175.97272 C 177.7736 176.59586 177.7736 176.73434 178.74293 177.70368 C 179.64303 178.67302 179.36607 178.8115 175.6272 179.22692 C 172.85767 179.57311 171.54214 179.98854 171.74985 180.54245 C 172.0268 181.44255 168.70336 183.10427 166.62621 183.10427 C 164.54906 183.10427 165.03373 182.13493 168.28793 179.85007 C 169.88042 178.67302 173.61929 175.41881 176.5273 172.64928 C 181.5817 167.8026 181.99713 167.17945 184.00504 161.43266 C 185.1821 158.03998 186.2899 154.43959 186.42839 153.40101 C 186.49763 152.36244 187.12077 149.52366 187.67468 147.10032 C 188.29782 144.60774 188.9902 141.49201 189.19792 140.17648 C 189.75183 137.40695 192.86756 129.16758 193.90613 127.85205 C 194.66775 126.88272 199.92987 126.675 199.92987 127.71358 Z"/>
            </g>
            <g>
               <path d="M 208.93086 130.76006 C 208.93086 130.89854 208.16924 131.1755 207.1999 131.31397 C 206.23056 131.52169 205.46894 131.38321 205.46894 131.10626 C 205.46894 130.76006 206.23056 130.48311 207.1999 130.48311 C 208.16924 130.48311 208.93086 130.62159 208.93086 130.76006 Z"/>
            </g>
            <g>
               <path d="M 187.81315 132.6295 C 187.60544 132.9757 185.94372 134.0835 184.21276 135.12208 C 181.51246 136.71456 180.19693 136.99152 176.11187 136.99152 C 173.41157 136.99152 170.29585 136.57609 169.1188 136.02218 L 167.04164 135.12208 L 170.84975 134.56817 C 172.9269 134.22198 175.0733 134.15274 175.55796 134.29122 C 175.9734 134.4297 176.38882 134.29122 176.38882 134.01427 C 176.38882 133.66808 178.11978 133.39112 180.19693 133.46036 C 182.75875 133.5296 184.07428 133.32188 184.35124 132.69874 C 184.55895 132.21407 184.97438 131.93712 185.32057 132.21407 C 185.66677 132.42179 186.15143 132.28331 186.42839 131.86788 C 186.70534 131.45245 187.19 131.31397 187.5362 131.59092 C 187.8824 131.79864 188.02087 132.28331 187.81315 132.6295 Z"/>
            </g>
            <g>
               <path d="M 314.17318 132.56026 C 316.1811 133.66808 314.7271 136.7838 309.5342 142.25363 C 302.6796 149.52366 296.93282 151.46234 279.2078 152.2932 C 256.15143 153.33177 257.46695 153.33177 254.55894 151.80853 C 253.10494 151.0469 251.85865 150.21605 251.85865 149.9391 C 251.85865 149.73138 253.79732 148.83128 256.22066 148.00042 C 258.57477 147.16956 262.38288 145.85403 264.5985 145.0924 C 266.88337 144.26155 269.86062 143.6384 271.31463 143.6384 C 272.76863 143.6384 274.08416 143.36145 274.29188 143.0845 C 274.4996 142.80754 272.63016 142.59983 270.27605 142.66906 C 266.0525 142.80754 265.91404 142.80754 265.91404 141.14582 C 265.91404 139.27638 265.77556 139.34562 278.8616 136.7838 C 286.7548 135.26056 288.0703 134.91437 294.09405 132.9757 C 297.7637 131.79864 312.2345 131.52169 314.17318 132.56026 Z"/>
            </g>
            <g>
               <path d="M 257.46695 137.54542 C 260.7904 138.51476 264.0446 141.07658 263.35222 142.1844 C 262.65983 143.22297 255.32056 146.68489 251.44322 147.72346 C 247.6351 148.76204 242.71918 148.6928 233.1643 147.44651 C 224.09406 146.26946 222.08615 145.92327 221.463 145.36936 C 220.5629 144.46926 224.02482 143.29221 229.70237 142.53059 L 235.58763 141.76897 L 230.60247 141.63049 C 227.90217 141.63049 225.47883 141.2843 225.2711 140.9381 C 224.85568 140.31496 229.00998 139.06867 233.85667 138.51476 C 235.58763 138.30705 239.3265 137.61466 242.16527 137.06076 C 247.49663 136.02218 253.10494 136.2299 257.46695 137.54542 Z"/>
            </g>
            <g>
               <path d="M 204.08417 138.09933 C 204.08417 138.44552 203.53026 138.79172 202.90712 138.79172 C 201.86854 138.79172 201.7993 138.65324 202.6994 138.09933 C 204.01493 137.26847 204.08417 137.26847 204.08417 138.09933 Z"/>
            </g>
            <g>
               <path d="M 203.0456 140.17648 C 202.83788 140.52267 202.35321 140.86887 201.93778 140.86887 C 201.5916 140.86887 201.31464 140.52267 201.31464 140.17648 C 201.31464 139.76105 201.7993 139.4841 202.42245 139.4841 C 202.97636 139.4841 203.2533 139.76105 203.0456 140.17648 Z"/>
            </g>
            <g>
               <path d="M 51.552044 149.52366 C 53.55996 151.46234 53.698434 151.87777 53.144527 154.23187 C 52.86757 155.68588 52.729096 157.41684 52.93681 158.17846 C 53.283003 159.56323 53.213765 159.56323 50.305753 158.03998 L 47.259265 156.4475 L 46.774597 150.90843 C 46.28993 144.67698 46.63612 143.29221 48.2286 145.78479 C 48.85175 146.68489 50.305753 148.41585 51.552044 149.52366 Z"/>
            </g>
            <g>
               <path d="M 52.729096 145.4386 C 53.35224 146.96184 52.52138 147.65423 51.75976 146.40794 C 50.9289 145.0924 50.9289 144.33078 51.69052 144.33078 C 52.03671 144.33078 52.52138 144.81545 52.729096 145.4386 Z"/>
            </g>
            <g>
               <path d="M 201.31464 145.71555 C 201.31464 146.06174 200.82997 146.40794 200.27606 146.40794 C 199.72215 146.40794 199.23749 146.06174 199.23749 145.71555 C 199.23749 145.30012 199.72215 145.02317 200.27606 145.02317 C 200.82997 145.02317 201.31464 145.30012 201.31464 145.71555 Z"/>
            </g>
            <g>
               <path d="M 235.93382 149.5929 C 239.53422 150.1468 243.827 150.56224 245.41948 150.56224 C 248.25825 150.56224 250.75083 151.67005 256.22066 155.27045 C 259.3364 157.3476 259.47487 158.45541 256.56686 159.97866 C 254.8359 160.87875 252.41255 161.08647 245.69643 161.08647 C 236.34925 161.08647 230.6717 159.97866 221.18605 156.37826 C 217.03175 154.78578 216.54708 154.43959 216.9625 153.05482 C 217.72413 150.56224 218.34728 150.35452 223.05548 151.25462 C 225.54807 151.73929 227.9714 151.947 228.45608 151.80853 C 228.8715 151.67005 227.27903 151.11614 224.85568 150.56224 C 219.59357 149.52366 219.17814 149.31595 219.73204 148.34661 C 220.2167 147.58499 224.85568 147.93118 235.93382 149.5929 Z"/>
            </g>
            <g>
               <path d="M 159.42542 150.8392 C 157.48675 152.15472 154.92493 152.8471 154.92493 152.08548 C 154.92493 151.32386 157.97142 150.00833 159.77162 149.9391 C 160.464 149.86985 160.32552 150.1468 159.42542 150.8392 Z"/>
            </g>
            <g>
               <path d="M 199.23749 151.53158 C 199.23749 151.73929 198.96053 152.08548 198.5451 152.2932 C 198.1989 152.50091 197.85272 152.36244 197.85272 152.01624 C 197.85272 151.60081 198.1989 151.25462 198.5451 151.25462 C 198.96053 151.25462 199.23749 151.3931 199.23749 151.53158 Z"/>
            </g>
            <g>
               <path d="M 62.69942 157.62455 C 69.48478 162.19428 81.6015 167.38716 92.12573 170.29517 C 95.10298 171.12603 96.90318 172.1646 98.70337 174.03405 C 102.16529 177.5652 108.53522 185.59685 108.53522 186.42771 C 108.53522 186.7739 107.91208 187.60477 107.15045 188.29715 C 106.38883 188.98953 105.76569 190.09735 105.76569 190.85897 C 105.76569 191.55135 105.4195 192.10526 105.00407 192.10526 C 104.58864 192.10526 104.45016 191.6206 104.65787 191.06668 C 104.86559 190.44354 104.58864 189.8204 104.03473 189.61268 C 103.48082 189.33572 102.99615 188.64334 102.99615 187.95096 C 102.99615 187.18934 102.7192 186.42771 102.30377 186.22 C 101.95758 186.01228 101.61139 185.04295 101.61139 184.14285 C 101.61139 182.89656 101.33443 182.55036 100.50357 182.89656 C 99.74195 183.1735 99.465 183.93513 99.67271 185.18142 C 99.88043 186.70467 99.74195 187.05086 98.91109 186.7739 C 98.08023 186.5662 98.14947 186.70467 99.04957 187.25857 C 99.67271 187.674 100.22662 188.64334 100.22662 189.40496 C 100.22662 190.78973 101.54215 193.49003 102.58072 194.25165 C 102.92691 194.5286 102.99615 195.29022 102.7192 195.91337 C 102.44225 196.60575 102.7192 197.64433 103.2731 198.26747 C 104.38092 199.51377 105.9734 203.1834 105.35026 203.1834 C 105.14254 203.1834 104.03473 202.56025 102.92691 201.7294 C 101.61139 200.8293 100.98824 199.85996 101.19595 199.16757 C 101.47291 198.40595 100.50357 196.675 98.70337 194.59784 C 96.34927 191.8283 95.79536 190.7205 96.00308 188.9203 C 96.28003 185.3199 93.1643 181.44255 88.1099 179.0192 C 83.0555 176.59586 77.17024 174.79567 74.19299 174.79567 C 72.66975 174.79567 71.908125 174.44948 71.70041 173.54938 C 71.00803 171.0568 64.08419 169.11812 58.89131 170.01822 C 58.61436 170.08746 57.7835 170.08746 57.091114 170.01822 C 55.9833 169.94898 55.9833 169.8105 56.95264 168.28726 C 57.71426 167.17945 57.852736 166.48706 57.36807 166.14087 C 56.95264 165.93316 56.606445 165.17153 56.606445 164.47915 C 56.606445 163.78677 56.121776 162.26352 55.56787 161.22495 C 54.32158 158.87084 54.25234 156.51674 55.290916 154.6473 C 56.121776 153.12406 55.706346 152.91634 62.69942 157.62455 Z"/>
            </g>
            <g>
               <path d="M 198.1989 154.02416 C 197.9912 154.37035 197.4373 154.71654 197.0911 154.71654 C 196.67567 154.71654 196.60643 154.37035 196.81414 154.02416 C 197.02186 153.60873 197.57576 153.33177 197.92196 153.33177 C 198.33739 153.33177 198.40663 153.60873 198.1989 154.02416 Z"/>
            </g>
            <g>
               <path d="M 297.9714 154.71654 C 305.65686 156.23978 310.71126 157.97074 310.71126 158.94008 C 310.71126 160.32485 304.2721 166.48706 300.46398 168.7027 C 294.7172 172.1646 292.5708 172.71852 285.57773 172.71852 C 279.83095 172.71852 278.51542 172.44156 268.5451 168.97964 C 255.3898 164.40991 253.2434 163.50981 253.2434 162.9559 C 253.2434 162.7482 254.69742 162.12505 256.42838 161.64038 C 258.644 161.01723 259.75182 160.25561 260.2365 159.1478 C 260.85963 157.41684 261.41354 157.41684 268.12966 158.87084 C 273.0456 159.97866 274.22264 160.18637 281.97734 161.29419 C 286.20088 161.91733 291.25528 162.81743 293.33243 163.37134 C 295.40958 163.92524 296.79435 164.06372 296.44816 163.71753 C 295.68653 163.02514 288.0703 161.43266 278.51542 159.84018 C 274.7073 159.28627 270.06834 158.31694 268.1989 157.76303 C 266.32947 157.20912 263.97536 156.7937 263.00602 156.7937 C 260.85963 156.7937 258.92096 155.68588 259.75182 154.92426 C 260.02877 154.6473 267.16033 154.16263 275.6074 153.95492 C 284.0545 153.7472 291.04756 153.53949 291.04756 153.47025 C 291.1168 153.40101 294.23253 153.95492 297.9714 154.71654 Z"/>
            </g>
            <g>
               <path d="M 228.17912 160.25561 C 236.83392 162.7482 237.5263 163.09438 240.08812 165.93316 C 243.06537 169.18736 243.4808 170.91832 241.61137 171.9569 C 238.63412 173.54938 226.03273 170.57213 216.7548 166.14087 C 212.66973 164.13296 211.7004 163.44057 211.7004 162.12505 C 211.7004 159.07856 212.87744 158.87084 217.8626 161.08647 C 220.3552 162.19428 223.33244 163.57905 224.44025 164.13296 C 225.54807 164.68687 226.58664 165.03306 226.72512 164.82534 C 226.93283 164.68687 224.37101 163.23286 221.1168 161.57114 C 217.8626 159.97866 215.1623 158.2477 215.1623 157.69379 C 215.1623 156.58598 215.3008 156.65521 228.17912 160.25561 Z"/>
            </g>
            <g>
               <path d="M 245.281 163.64829 C 246.11186 165.1023 268.61433 176.87282 270.41453 176.87282 C 270.69148 176.87282 266.88337 174.6572 261.8982 172.02613 C 253.17418 167.31792 248.67368 164.47915 250.1277 164.40991 C 250.54312 164.40991 254.62818 165.86392 259.12868 167.59488 C 270.27605 171.88766 274.98426 173.4109 279.7617 174.17252 C 283.56982 174.79567 299.14845 181.7195 300.04855 183.24275 C 300.74094 184.35056 298.38683 187.05086 294.09405 189.88963 C 289.6628 192.86688 283.98525 194.8748 280.1079 194.8748 C 277.54608 194.8748 272.3532 192.65917 270.2068 190.78973 C 269.4452 190.09735 265.56784 187.53553 261.55202 185.18142 C 257.5362 182.75808 252.20484 179.15768 249.71226 177.14977 C 245.48872 173.7571 245.0733 173.27242 244.79633 170.29517 C 244.51938 168.0103 243.827 166.48706 242.44223 165.03306 L 240.50355 163.02514 L 242.71918 163.02514 C 243.89623 163.02514 245.00405 163.3021 245.281 163.64829 Z"/>
            </g>
            <g>
               <path d="M 193.35222 165.86392 C 193.07527 166.2101 192.45213 166.48706 191.82898 166.48706 C 190.92888 166.48706 190.92888 166.27935 191.62127 165.44849 C 192.52136 164.40991 194.0446 164.68687 193.35222 165.86392 Z"/>
            </g>
            <g>
               <path d="M 213.77754 166.83325 C 215.3008 167.8026 218.62423 169.32584 221.18605 170.29517 C 223.8171 171.26451 226.8636 172.58004 228.04065 173.20318 C 230.18704 174.311 232.19495 177.35749 232.61038 179.98854 C 232.8181 181.23484 232.4719 181.37331 229.42541 181.23484 C 225.68654 181.09636 222.08615 179.57311 215.1623 175.00338 C 207.82304 170.22593 207.13066 169.53355 208.16924 168.28726 C 208.93086 167.31792 209.48476 167.4564 212.87744 169.2566 C 218.00108 172.02613 218.34728 171.88766 213.98526 168.9104 C 208.4462 165.17153 208.23847 163.37134 213.77754 166.83325 Z"/>
            </g>
            <g>
               <path d="M 190.92888 170.91832 C 190.92888 171.12603 190.65193 171.47223 190.2365 171.67994 C 189.8903 171.88766 189.54411 171.74918 189.54411 171.40299 C 189.54411 170.98756 189.8903 170.64137 190.2365 170.64137 C 190.65193 170.64137 190.92888 170.77984 190.92888 170.91832 Z"/>
            </g>
            <g>
               <path d="M 211.49268 174.8649 C 214.0545 176.80358 217.3087 178.94997 218.69347 179.7116 C 221.39376 181.09636 223.67863 184.28132 224.37101 187.74324 C 225.6173 193.9747 217.93185 191.75907 205.67665 182.20417 C 203.2533 180.33474 201.31464 178.60378 201.31464 178.32682 C 201.31464 178.04987 201.73007 177.219 202.28397 176.52663 C 203.18407 175.28034 203.3918 175.28034 204.56884 176.24967 C 206.71523 178.04987 211.008 180.33474 211.008 179.64235 C 211.008 179.22692 210.8003 178.94997 210.4541 178.94997 C 210.17715 178.94997 208.51543 177.77292 206.71523 176.24967 C 203.73798 173.82633 203.5995 173.54938 204.63808 172.44156 C 205.26122 171.81842 206.02285 171.33375 206.2998 171.33375 C 206.57675 171.33375 208.93086 172.92623 211.49268 174.8649 Z"/>
            </g>
            <g>
               <path d="M 238.0802 176.6651 C 240.01889 178.1191 244.9348 181.92722 249.01987 185.11218 C 257.19 191.55135 262.65983 195.4287 262.0367 194.39013 C 261.75973 193.9747 259.05944 191.68983 255.9437 189.26649 C 252.82798 186.84314 248.95063 183.72742 247.35815 182.41189 C 245.76567 181.09636 243.1346 178.94997 241.54213 177.70368 C 240.01889 176.38815 238.70336 175.14186 238.70336 174.79567 C 238.70336 174.51871 239.94965 174.51871 241.40365 174.79567 C 243.06537 175.07262 246.04262 176.73434 249.2276 179.08845 C 254.55894 183.10427 264.0446 189.33572 264.80622 189.33572 C 265.01394 189.33572 266.26023 190.09735 267.50652 191.06668 C 268.7528 192.03602 270.06834 192.79764 270.41453 192.79764 C 271.4531 192.79764 273.87645 195.84413 275.0535 198.4752 C 276.43827 201.9371 276.36903 204.0835 274.7073 205.60674 C 273.39178 206.85303 273.0456 206.85303 267.9912 205.74522 C 259.95954 204.01426 249.91997 197.64433 240.29584 188.36639 C 236.90316 185.04295 235.24144 182.9658 235.24144 181.85798 C 235.24144 181.02712 234.6183 179.08845 233.85667 177.5652 C 233.09505 176.04196 232.4719 174.6572 232.4719 174.44948 C 232.4719 173.4109 234.89525 174.38024 238.0802 176.6651 Z"/>
            </g>
            <g>
               <path d="M 202.35321 182.20417 C 203.5995 183.31199 206.23056 185.25066 208.16924 186.5662 C 213.36211 190.09735 217.03175 197.64433 214.0545 198.82138 C 211.21572 199.85996 202.76864 194.94403 197.0911 188.9203 C 194.9447 186.70467 194.66775 185.94304 195.15242 184.62752 L 195.77557 183.03503 L 198.33739 184.48904 C 199.7914 185.25066 201.73007 186.35847 202.6994 186.98162 C 204.36113 188.08943 204.36113 188.0202 202.56093 186.35847 C 201.52235 185.38914 200.06835 184.14285 199.23749 183.58894 C 198.33739 182.9658 197.9912 182.20417 198.26815 181.44255 C 198.8913 179.85007 199.72215 180.05778 202.35321 182.20417 Z"/>
            </g>
            <g>
               <path d="M 170.64204 184.21209 C 170.43432 184.4198 169.81118 184.48904 169.32651 184.28132 C 168.7726 184.0736 168.98032 183.8659 169.74194 183.8659 C 170.50356 183.79666 170.919 184.00437 170.64204 184.21209 Z"/>
            </g>
            <g>
               <path d="M 231.0179 188.43563 C 234.2721 192.10526 244.9348 201.7294 245.90415 201.79863 C 246.1811 201.79863 245.41948 200.8293 244.1732 199.72148 C 235.86458 192.24374 232.4719 188.9203 232.4719 188.2279 C 232.4719 187.81248 231.71028 186.91238 230.74094 186.28924 C 228.3176 184.69675 228.59455 183.72742 231.29485 184.28132 C 232.74886 184.55828 235.44915 186.5662 239.53422 190.3743 C 242.78842 193.4208 248.60444 198.05976 252.34332 200.62158 C 258.2978 204.6374 259.3364 205.60674 260.02877 207.96085 C 261.41354 212.53058 261.1366 215.4386 259.12868 216.75412 C 257.5362 217.7927 256.9823 217.7927 254.4897 216.96183 C 252.89722 216.47717 249.85073 214.88468 247.77358 213.49992 C 243.61928 210.86886 233.85667 202.8372 233.0258 201.52168 C 232.8181 201.10625 231.15637 199.2368 229.42541 197.43661 C 226.58664 194.39013 226.37893 193.83622 226.44816 190.85897 C 226.5174 189.05877 226.3097 186.70467 225.9635 185.59685 C 225.4096 183.79666 225.47883 183.72742 226.79436 184.4198 C 227.55598 184.83523 229.49465 186.63543 231.0179 188.43563 Z"/>
            </g>
            <g>
               <path d="M 166.69545 185.18142 C 166.69545 185.52761 166.55698 185.8738 166.4185 185.8738 C 166.21078 185.8738 165.8646 185.52761 165.65688 185.18142 C 165.44916 184.766 165.58764 184.48904 165.93383 184.48904 C 166.34926 184.48904 166.69545 184.766 166.69545 185.18142 Z"/>
            </g>
            <g>
               <path d="M 198.06043 192.24374 C 204.01493 197.43661 206.09208 200.27539 206.16132 203.25264 C 206.16132 206.36836 204.77656 206.7838 200.96845 204.9836 C 197.2988 203.25264 186.0822 192.7284 186.0822 190.99745 C 186.0822 189.19725 189.26716 189.95887 192.17517 192.5207 C 195.08318 194.94403 196.39871 194.8748 193.62918 192.38221 C 191.75974 190.7205 190.72117 188.78182 191.27507 187.95096 C 191.48279 187.53553 191.82898 187.25857 192.0367 187.25857 C 192.2444 187.25857 194.9447 189.4742 198.06043 192.24374 Z"/>
            </g>
            <g>
               <path d="M 224.85568 195.15175 C 227.9714 199.16757 238.35716 209.4841 240.5728 210.86886 C 242.0268 211.8382 243.06537 213.15372 243.55004 214.81544 C 245.21176 220.97766 243.75776 224.99348 240.15736 223.9549 C 234.47982 222.36243 229.42541 218.0004 220.77062 207.3377 C 216.54708 202.14482 215.99317 200.89853 217.17022 199.09833 C 217.51642 198.54443 217.58565 197.43661 217.23946 196.53652 C 216.0624 193.55927 217.6549 194.25165 220.97833 198.19824 C 225.47883 203.59883 231.15637 209.55333 231.50257 209.27638 C 231.64104 209.1379 230.87942 208.03008 229.84085 206.92227 C 223.19396 199.51377 219.4551 195.01327 218.7627 193.69774 C 217.93185 192.24374 218.00108 192.1745 220.49367 192.58993 C 222.29386 192.86688 223.67863 193.6285 224.85568 195.15175 Z"/>
            </g>
            <g>
               <path d="M 197.645 208.37628 C 197.85272 209.83028 197.71424 211.21505 197.16033 211.8382 C 196.12176 213.08449 193.4907 212.11515 188.4363 208.584 C 184.35124 205.67598 178.25826 197.64433 178.8814 195.9826 C 179.50455 194.45936 180.95856 194.59784 182.20485 196.3288 C 183.17418 197.71357 186.0822 200.1369 186.0822 199.51377 C 186.0822 199.3753 185.11286 197.99052 183.9358 196.53652 C 182.1356 194.25165 181.99713 193.83622 183.0357 193.49003 C 183.86657 193.14384 186.01296 194.8748 190.72117 199.51377 C 195.77557 204.56817 197.36805 206.57608 197.645 208.37628 Z"/>
            </g>
            <g>
               <path d="M 179.7815 202.49101 C 181.78942 205.1913 184.07428 207.6839 184.8359 208.09932 C 187.32849 209.41485 189.19792 216.26945 187.39772 217.37726 C 187.05153 217.65422 185.94372 217.65422 185.04362 217.4465 C 180.40465 216.26945 167.24936 201.79863 169.53423 200.34463 C 171.05747 199.3753 171.61138 199.583 174.03472 202.21406 C 176.66578 204.91436 177.0812 204.6374 175.00406 201.45244 C 174.03472 199.99843 173.89624 199.16757 174.45015 198.54443 C 174.86558 198.05976 175.35025 197.64433 175.6272 197.64433 C 175.83492 197.64433 177.70435 199.85996 179.7815 202.49101 Z"/>
            </g>
            <g>
               <path d="M 214.88536 203.04492 C 216.61632 205.67598 221.32453 211.2843 225.13264 215.30011 C 230.81018 221.2546 232.1257 224.23186 230.39475 227.48607 C 229.97932 228.17845 229.2177 228.8016 228.59455 228.8016 C 225.13264 228.8016 215.43926 220.56223 209.69248 212.80753 C 207.06142 209.20714 206.92294 208.7917 207.33838 205.39903 C 207.5461 203.39111 207.96152 201.79863 208.23847 201.79863 C 208.51543 201.79863 210.66182 204.4297 213.08516 207.6839 C 215.5085 210.9381 217.72413 213.56915 218.13956 213.56915 C 218.555 213.56915 218.555 213.2922 218.13956 212.66906 C 214.53917 208.16856 209.76172 201.17549 210.03867 200.96777 C 210.86953 200.1369 213.84678 201.45244 214.88536 203.04492 Z"/>
            </g>
            <g>
               <path d="M 202.56093 208.09932 C 203.87646 208.584 205.53818 210.17647 207.26914 212.7383 C 208.6539 214.88468 211.3542 218.20812 213.1544 220.1468 C 219.52433 226.86292 219.4551 234.89457 213.01592 232.2635 C 210.17715 231.08646 201.31464 222.22395 199.02977 218.27736 C 197.22957 215.0924 197.16033 215.02316 198.40663 212.946 C 199.02977 211.76896 199.72215 210.79962 199.92987 210.79962 C 200.13758 210.79962 201.10692 212.11515 202.21474 213.77687 C 204.1534 216.75412 208.86162 222.36243 207.89228 220.493 C 207.5461 219.93908 206.02285 217.58498 204.4996 215.30011 C 200.48378 209.27638 199.37596 207.3377 200.20682 207.3377 C 200.27606 207.3377 201.38388 207.6839 202.56093 208.09932 Z"/>
            </g>
            <g>
               <path d="M 192.31365 213.22296 C 193.42146 213.77687 195.49861 216.06174 196.88338 218.27736 C 198.26815 220.42375 200.20682 223.12405 201.10692 224.23186 C 202.42245 225.82435 202.6994 226.86292 202.56093 229.42474 C 202.35321 232.6097 202.35321 232.6097 199.92987 232.402 C 196.60643 232.19428 192.52136 229.1478 189.3364 224.6473 L 186.77458 220.90842 L 188.4363 219.17746 L 190.16726 217.4465 L 191.48279 219.17746 C 192.2444 220.07756 193.55994 221.6008 194.3908 222.57014 L 195.91404 224.3011 L 194.52928 221.87776 C 188.29782 211.07657 188.29782 211.1458 192.31365 213.22296 Z"/>
            </g>
            <g>
               <path d="M 138.65391 242.64927 C 138.86163 242.99546 138.79239 243.34165 138.37696 243.34165 C 138.03077 243.34165 137.47686 242.99546 137.26915 242.64927 C 137.06143 242.23384 137.13067 241.95689 137.5461 241.95689 C 137.89229 241.95689 138.4462 242.23384 138.65391 242.64927 Z"/>
            </g>
            <g>
               <path d="M 143.98527 244.5187 C 144.88537 245.34957 145.23156 245.4188 145.23156 244.72642 C 145.23156 244.03404 145.50851 244.10327 146.47785 244.8649 C 147.101 245.4188 148.48576 246.1112 149.59358 246.38814 C 151.46301 246.80357 152.01692 247.7729 150.83987 248.4653 C 149.38586 249.43463 140.66183 245.28033 141.42345 244.03404 C 142.0466 243.0647 142.53126 243.20318 143.98527 244.5187 Z"/>
            </g>
            <g>
               <path d="M 167.38784 253.7274 C 167.38784 254.0736 167.11088 254.4198 166.69545 254.4198 C 166.34926 254.4198 166.00307 254.0736 166.00307 253.7274 C 166.00307 253.31198 166.34926 253.03502 166.69545 253.03502 C 167.11088 253.03502 167.38784 253.31198 167.38784 253.7274 Z"/>
            </g>
            <g>
               <path d="M 169.81118 255.80456 C 170.0189 256.15075 169.88042 256.49694 169.53423 256.49694 C 169.1188 256.49694 168.7726 256.15075 168.7726 255.80456 C 168.7726 255.38913 168.91108 255.11218 169.04956 255.11218 C 169.25727 255.11218 169.60346 255.38913 169.81118 255.80456 Z"/>
            </g>
            <g>
               <path d="M 168.49565 258.64333 C 169.46499 259.75115 169.60346 260.2358 168.91108 260.44353 C 168.28793 260.72048 168.49565 261.4821 169.81118 263.14383 C 171.95757 265.9826 171.33442 266.1903 168.56489 263.55926 C 167.04164 262.1745 166.69545 262.036 167.24936 263.0746 C 167.59555 263.8362 168.56489 265.01326 169.32651 265.7749 C 170.15737 266.46727 170.5728 267.4366 170.36509 267.9905 C 170.15737 268.54442 170.36509 268.95985 170.84975 268.95985 C 172.09605 268.95985 176.5273 271.17548 176.04263 271.5909 C 175.90416 271.79862 176.04263 272.35253 176.45806 272.90644 C 177.9813 274.70663 175.90416 273.7373 173.96548 271.7294 C 172.9269 270.62157 171.74985 269.85995 171.4729 270.06766 C 171.19595 270.20614 169.88042 269.30604 168.63413 268.05975 C 167.11088 266.46727 165.44916 265.56717 163.57973 265.29022 L 160.8102 264.8748 L 163.23353 267.0904 C 167.18012 270.76005 171.1267 276.57607 170.29585 277.40693 C 169.81118 277.8916 169.25727 277.5454 168.56489 276.16064 C 168.01098 275.05283 166.90317 273.52958 166.0723 272.8372 C 165.24145 272.07558 164.6183 270.96776 164.6183 270.34462 C 164.6183 269.72147 163.78744 268.75213 162.74887 268.26747 C 161.64105 267.71356 160.25628 266.81346 159.63314 266.25955 C 158.80228 265.6364 158.38685 265.56717 158.38685 266.05184 C 158.38685 266.5365 158.73304 266.8827 159.07923 266.8827 C 159.49466 266.8827 159.77162 267.2289 159.77162 267.64432 C 159.77162 267.9905 159.49466 268.19823 159.14847 267.9905 C 158.80228 267.71356 158.38685 267.9905 158.17913 268.40594 C 157.97142 269.09833 157.62523 269.09833 156.58665 268.26747 C 155.75579 267.64432 155.89427 267.9905 156.93284 269.16756 C 157.90218 270.20614 158.31761 271.037 157.83294 271.037 C 157.41751 271.037 156.51741 270.27538 155.75579 269.30604 C 154.99417 268.3367 153.9556 267.57508 153.47092 267.57508 C 152.98626 267.57508 153.81712 268.8906 155.27112 270.41386 C 157.41751 272.62948 157.62523 273.11415 156.3097 272.42177 C 154.92493 271.66015 155.0634 272.07558 157.41751 274.91435 C 158.94075 276.7838 161.22562 279.83027 162.47191 281.63047 C 165.5184 286.13097 163.02582 284.53848 159.5639 279.76104 C 156.03274 274.77587 150.42444 269.44452 151.11682 271.52167 C 151.46301 272.76796 151.32453 273.0449 150.49367 272.69872 C 148.97043 272.07558 149.52434 274.2912 151.73996 276.9915 C 153.0555 278.65322 153.33245 279.3456 152.57082 279.3456 C 152.01692 279.3456 151.32453 278.9994 151.11682 278.65322 C 150.56291 277.75312 148.69348 277.75312 148.69348 278.72246 C 148.69348 279.06865 149.03967 279.20713 149.52434 278.93017 C 150.009 278.65322 150.07824 278.72246 149.80129 279.20713 C 149.52434 279.6918 150.21672 281.00733 151.39377 282.2536 C 154.1633 285.23087 154.09407 286.06173 151.32453 284.12305 L 149.03967 282.5998 L 151.04758 284.7462 C 152.22463 285.9925 152.77854 286.96183 152.36311 286.96183 C 151.94768 286.96183 151.2553 286.47716 150.77063 285.92325 C 150.28596 285.3001 149.73205 285.02315 149.52434 285.23087 C 149.31662 285.43858 149.87053 286.33868 150.77063 287.30802 C 152.43235 289.1082 154.5095 289.5929 155.27112 288.3466 C 155.75579 287.58497 157.55599 287.93116 160.53324 289.38517 C 163.02582 290.56222 164.6183 289.66212 163.37201 287.6542 C 162.2642 285.78477 163.02582 285.854 164.68754 287.7927 C 165.44916 288.83126 165.93383 289.03898 166.00307 288.41583 C 166.00307 287.7927 166.28002 287.72345 166.90317 288.2081 C 167.3186 288.5543 168.84184 288.96974 170.29585 289.17745 C 172.44224 289.38517 172.9269 289.17745 173.96548 287.51573 C 175.281 285.23087 175.76568 285.0924 176.8735 286.96183 C 177.91207 288.5543 176.94273 291.947 175.55796 291.67003 C 173.827 291.39308 163.51049 294.09338 159.42542 295.9628 C 157.14056 296.93215 154.23255 298.73235 152.91702 299.77092 C 150.70139 301.7096 146.61633 309.04887 146.61633 311.126 C 146.61633 312.5108 143.22365 318.1191 142.46202 318.1191 C 142.0466 318.1191 141.76964 317.63442 141.76964 317.0805 C 141.76964 315.83423 140.66183 315.69575 140.17716 316.8728 C 139.96944 317.49595 139.55401 317.35747 138.86163 316.45737 C 137.47686 314.65717 132.83789 315.2803 129.44521 317.70366 C 127.92197 318.74224 126.74491 319.15767 126.5372 318.74224 C 125.91405 317.7729 123.14452 318.94995 120.44422 321.51177 C 119.19793 322.68882 117.8824 323.65816 117.46697 323.65816 C 117.12078 323.65816 116.84383 323.9351 116.84383 324.21207 C 116.84383 324.55826 115.25134 325.66607 113.31267 326.70465 C 109.64304 328.71256 109.08913 329.75114 112.34333 328.50485 C 114.83591 327.5355 115.11287 327.8817 113.52038 329.95885 C 112.828 330.85895 111.9279 332.52067 111.44323 333.6285 C 110.61237 335.49792 110.54313 335.56716 109.5738 334.32087 C 108.6737 333.1438 108.46598 333.1438 107.84284 334.0439 C 107.28893 334.87478 107.01198 334.87478 106.59655 334.1824 C 106.25036 333.6285 104.31168 333.1438 102.02682 333.00534 C 98.01099 332.79763 94.68755 331.2744 94.75679 329.6819 C 94.75679 328.36637 98.14947 326.01227 102.99615 324.00435 C 113.17419 319.7808 120.92889 315.4188 127.4373 310.2259 C 134.15342 304.82532 134.15342 304.7561 133.73799 302.2635 C 133.18408 299.217 132.97637 298.94006 131.93779 299.97864 C 131.45312 300.4633 130.82998 300.8095 130.55302 300.8095 C 129.72216 300.8095 130.6915 295.9628 131.93779 293.81642 C 133.32256 291.32384 132.63017 289.38517 130.6915 290.42374 C 128.75283 291.46232 128.96054 290.56222 131.73008 285.9925 C 133.0456 283.77686 134.15342 281.8382 134.15342 281.63047 C 134.15342 281.492 133.46104 281.1458 132.63017 280.7996 C 131.17617 280.31494 131.2454 280.10723 134.15342 276.9915 C 135.81514 275.1913 138.1 273.25263 139.20782 272.69872 C 140.73106 271.86786 141.00802 271.45243 140.38487 270.6908 C 139.3463 269.44452 142.80821 267.64432 150.07824 265.56717 C 155.89427 263.90545 159.63314 262.036 163.23353 259.128 C 166.14155 256.7739 166.7647 256.70466 168.49565 258.64333 Z"/>
            </g>
            <g>
               <path d="M 88.73305 260.30505 C 88.4561 260.85896 88.17914 261.34363 88.04066 261.34363 C 87.90219 261.34363 87.76371 260.85896 87.76371 260.30505 C 87.76371 259.75115 88.04066 259.26648 88.4561 259.26648 C 88.80229 259.26648 88.94076 259.75115 88.73305 260.30505 Z"/>
            </g>
            <g>
               <path d="M 87.90219 263.76697 C 87.62523 265.49793 86.58666 266.60574 85.96351 265.9826 C 85.7558 265.84412 85.82504 264.8748 86.10199 263.8362 C 86.6559 261.4821 88.38686 261.41287 87.90219 263.76697 Z"/>
            </g>
            <g>
               <path d="M 165.5184 275.95292 C 166.62621 277.47617 167.18012 278.65322 166.7647 278.65322 C 166.34926 278.65322 166.00307 278.37627 166.00307 278.03008 C 166.00307 277.6839 164.47982 275.8837 162.54115 274.0835 C 160.67171 272.2833 159.07923 270.4831 159.07923 270.1369 C 159.07923 269.16756 163.37201 273.0449 165.5184 275.95292 Z"/>
            </g>
            <g>
               <path d="M 171.54214 272.76796 C 172.0268 273.3911 172.09605 273.80654 171.68061 273.80654 C 171.33442 273.80654 170.84975 273.32187 170.5728 272.76796 C 170.36509 272.21405 170.29585 271.7294 170.43432 271.7294 C 170.5728 271.7294 171.05747 272.21405 171.54214 272.76796 Z"/>
            </g>
            <g>
               <path d="M 163.51049 277.8916 C 163.1643 278.2378 161.50257 276.22988 160.39476 274.15273 C 159.97933 273.3911 160.60248 273.87577 161.77953 275.1913 C 162.88734 276.50683 163.7182 277.75312 163.51049 277.8916 Z"/>
            </g>
            <g>
               <path d="M 180.88932 275.12206 C 181.37399 276.71455 180.61236 280.038 179.7815 280.038 C 178.95064 280.038 179.01988 279.55332 179.91998 277.82236 C 180.47389 276.85302 180.47389 276.22988 179.91998 275.67597 C 179.01988 274.77587 178.95064 273.80654 179.7815 273.80654 C 180.1277 273.80654 180.61236 274.42968 180.88932 275.12206 Z"/>
            </g>
            <g>
               <path d="M 177.7736 275.1913 C 177.7736 275.5375 177.49664 275.8837 177.0812 275.8837 C 176.73502 275.8837 176.38882 275.5375 176.38882 275.1913 C 176.38882 274.77587 176.73502 274.49892 177.0812 274.49892 C 177.49664 274.49892 177.7736 274.77587 177.7736 275.1913 Z"/>
            </g>
            <g>
               <path d="M 156.37894 277.40693 C 158.17913 279.48408 158.87152 280.73037 158.1099 280.73037 C 157.97142 280.73037 156.79437 279.48408 155.61731 277.96084 C 152.98626 274.6374 153.54016 274.22197 156.37894 277.40693 Z"/>
            </g>
            <g>
               <path d="M 174.58863 276.9915 C 175.21177 278.65322 174.7271 278.7917 173.75777 277.26845 C 173.2731 276.50683 173.20386 275.8837 173.55005 275.8837 C 173.89624 275.8837 174.38091 276.36835 174.58863 276.9915 Z"/>
            </g>
            <g>
               <path d="M 167.24936 282.46133 C 167.04164 282.7383 166.14155 281.8382 165.31068 280.5919 L 163.7182 278.30703 L 165.65688 280.17647 C 166.7647 281.21504 167.45707 282.2536 167.24936 282.46133 Z"/>
            </g>
            <g>
               <path d="M 169.46499 281.492 C 169.46499 281.8382 169.18803 282.11514 168.7726 282.11514 C 168.42641 282.11514 168.08022 281.63047 168.08022 281.00733 C 168.08022 280.45342 168.42641 280.17647 168.7726 280.38418 C 169.18803 280.5919 169.46499 281.07656 169.46499 281.492 Z"/>
            </g>
            <g>
               <path d="M 179.15836 283.56915 C 178.3275 286.33868 177.84283 286.82335 177.0812 285.57706 C 176.1811 284.12305 176.25035 283.77686 177.49664 282.53057 C 179.15836 280.7996 179.7815 281.21504 179.15836 283.56915 Z"/>
            </g>
            <g>
               <path d="M 161.3641 283.8461 C 162.12572 284.9539 162.2642 285.43858 161.71029 285.23087 C 160.67171 284.81544 158.80228 282.11514 159.5639 282.11514 C 159.9101 282.11514 160.67171 282.946 161.3641 283.8461 Z"/>
            </g>
            <g>
               <path d="M 80.56292 290.28527 C 81.80921 291.0469 81.2553 294.855 79.52435 297.2091 C 77.93186 299.42473 73.154415 303.7175 72.66975 303.30208 C 72.60051 303.1636 72.9467 301.08645 73.569846 298.73235 C 74.19299 296.37824 74.46994 294.23185 74.26223 293.9549 C 73.63908 293.401 71.077264 296.6552 71.492694 297.34758 C 71.70041 297.69377 71.56193 298.1092 71.1465 298.38616 C 70.73107 298.6631 70.592596 299.07854 70.80031 299.42473 C 71.00803 299.7017 70.66183 300.32483 70.10793 300.8095 C 68.44621 302.19427 68.7924 299.63245 70.80031 296.23977 C 71.97736 294.23185 73.22365 293.0548 74.885375 292.5009 C 76.2009 292.08546 77.65491 291.2546 78.07034 290.7007 C 79.03968 289.5929 79.45511 289.52365 80.56292 290.28527 Z"/>
            </g>
            <g>
               <path d="M 131.52236 304.4099 C 131.03769 304.89456 130.6915 304.9638 130.6915 304.54837 C 130.6915 304.13294 130.89922 303.57903 131.17617 303.37132 C 131.38388 303.09437 131.79931 303.02513 132.00703 303.23284 C 132.1455 303.44056 131.93779 303.99446 131.52236 304.4099 Z"/>
            </g>
            <g>
               <path d="M 122.65985 323.7274 C 121.1366 325.38912 120.02879 324.69674 121.4828 322.96578 C 122.10594 322.2734 122.9368 321.78873 123.21376 322.06568 C 123.55995 322.2734 123.35223 322.96578 122.65985 323.7274 Z"/>
            </g>
            <g>
               <path d="M 88.4561 330.582 C 87.14057 331.4821 86.37894 331.4821 86.37894 330.582 C 86.37894 330.16657 87.07133 329.8896 87.97143 329.8896 C 89.21772 329.8896 89.28696 330.0281 88.4561 330.582 Z"/>
            </g>
            <g>
               <path d="M 96.90318 334.32087 C 97.18013 334.7363 96.97241 335.4287 96.34927 335.91335 C 95.72612 336.39802 95.44917 337.0904 95.79536 337.57507 C 96.55698 338.8906 89.84086 337.85203 86.72514 336.1903 L 84.16332 334.80554 L 87.69447 333.2823 C 89.70239 332.45143 91.22563 331.34362 91.22563 330.7897 C 91.22563 330.0281 91.91801 330.2358 93.85669 331.6898 C 95.24146 332.7284 96.62622 333.97468 96.90318 334.32087 Z"/>
            </g>
            <g>
               <path d="M 199.16825 371.1557 C 198.40663 374.34065 197.02186 376.2793 195.56785 376.2793 C 195.15242 376.2793 195.36014 375.7254 195.91404 375.03303 C 196.5372 374.4099 197.22957 372.74817 197.50653 371.43264 C 197.9912 369.07853 199.16825 367.0014 199.72215 367.5553 C 199.86063 367.69376 199.65292 369.28625 199.16825 371.1557 Z"/>
            </g>
            <g>
               <path d="M 181.2355 397.1893 C 181.2355 397.3278 180.82008 398.6433 180.26617 400.0973 C 179.50455 402.31295 178.81217 403.07457 176.66578 403.76695 C 175.14253 404.32086 172.9269 404.5978 171.68061 404.5286 L 169.46499 404.32086 L 171.19595 402.31295 C 172.09605 401.20513 173.06538 399.75113 173.2731 399.05875 C 173.55005 398.15865 174.51939 397.7432 176.94273 397.5355 C 178.74293 397.39702 180.40465 397.25855 180.75084 397.1893 C 181.0278 397.12007 181.2355 397.12007 181.2355 397.1893 Z"/>
            </g>
            <g>
               <path d="M 170.84975 398.85103 C 170.29585 399.40494 169.25727 400.2358 168.49565 400.65123 C 167.18012 401.3436 167.24936 401.20513 168.70336 399.5434 C 170.50356 397.674 172.373 396.9816 170.84975 398.85103 Z"/>
            </g>
            <g>
               <g  id="outline-1">
                  <path
                        d="M 236.83392 130.96778 C 237.45707 131.10626 238.4264 131.10626 238.91107 130.96778 C 239.3265 130.76006 238.84183 130.62159 237.66478 130.62159 C 236.55697 130.62159 236.14154 130.76006 236.83392 130.96778 Z"
                        fill="black"/>
               </g>
            </g>
            <g>
               <g  id="outline-2">
                  <path
                        d="M 144.67765 129.9292 C 143.63908 130.48311 143.22365 131.03702 143.56984 131.79864 C 143.84679 132.42179 144.12374 133.66808 144.19298 134.56817 C 144.4007 137.06076 145.57775 137.13 150.07824 134.70665 C 152.29387 133.5296 154.57874 132.76798 155.20188 132.9757 C 157.2098 133.73731 156.37894 131.93712 154.23255 130.8293 C 151.46301 129.3753 146.61633 128.95987 144.67765 129.9292 Z"
                        fill="black"/>
               </g>
            </g>
            <g>
               <path d="M 150.83987 131.59092 C 151.53225 132.49102 151.53225 132.76798 150.70139 133.32188 C 149.17814 134.29122 147.79338 134.0835 148.27805 132.90645 C 148.48576 132.28331 148.27805 131.86788 147.58566 131.86788 C 147.03176 131.86788 146.7548 131.52169 146.96252 131.1755 C 147.58566 130.13692 149.80129 130.34463 150.83987 131.59092 Z"/>
            </g>
            <g>
               <g  id="outline-3">
                  <path
                        d="M 133.3918 135.53751 C 132.07627 136.43761 130.06835 137.54542 128.82206 138.0301 C 126.60644 138.9302 123.97538 141.2843 124.52929 141.90744 C 125.01395 142.32287 131.93779 138.65324 134.36113 136.57609 C 137.1999 134.22198 136.50752 133.5296 133.3918 135.53751 Z"
                        fill="black"/>
               </g>
            </g>
            <g>
               <g  id="outline-4">
                  <path
                        d="M 117.8824 142.66906 C 116.22068 143.9846 116.01297 144.46926 116.77459 144.95393 C 117.3285 145.30012 117.53621 146.06174 117.3285 146.68489 C 117.05154 147.30803 117.19002 147.7927 117.60545 147.7927 C 117.95164 147.7927 118.43631 147.30803 118.64402 146.75413 C 118.92098 146.20022 119.6826 145.71555 120.37498 145.71555 C 122.0367 145.71555 122.86756 143.84612 121.89823 142.39211 C 120.85965 140.73039 120.16727 140.79963 117.8824 142.66906 Z"
                        fill="black"/>
               </g>
            </g>
            <g>
               <path d="M 120.30574 143.29221 C 120.30574 143.84612 120.16727 144.33078 120.02879 144.33078 C 119.89031 144.33078 119.61336 143.84612 119.33641 143.29221 C 119.12869 142.7383 119.26717 142.25363 119.61336 142.25363 C 120.02879 142.25363 120.30574 142.7383 120.30574 143.29221 Z"/>
            </g>
            <g>
               <g  id="outline-5">
                  <path
                        d="M 170.84975 145.30012 C 170.84975 147.03108 170.50356 148.62356 170.08813 148.90052 C 169.6727 149.10823 169.53423 150.07757 169.74194 150.97767 C 170.08813 152.2932 169.94966 152.50091 168.98032 152.15472 C 168.28793 151.87777 168.01098 152.01624 168.35717 152.50091 C 168.56489 152.91634 168.49565 153.40101 168.08022 153.67796 C 167.73403 153.88568 167.38784 154.71654 167.38784 155.47816 C 167.38784 156.17055 167.11088 156.7937 166.83393 156.7937 C 166.48774 156.7937 165.8646 157.9015 165.31068 159.21703 C 164.75678 160.53256 164.13363 161.64038 163.78744 161.64038 C 163.51049 161.64038 163.23353 162.402 163.23353 163.37134 C 163.23353 164.34067 162.95658 165.1023 162.61039 165.1023 C 162.2642 165.1023 161.57181 166.27935 161.08714 167.66412 C 160.67171 169.11812 159.97933 170.7106 159.63314 171.12603 C 159.2177 171.6107 159.07923 172.64928 159.28695 173.4109 C 159.49466 174.17252 159.35619 174.79567 159.01 174.79567 C 158.6638 174.79567 158.38685 175.62653 158.45609 176.6651 C 158.52532 177.77292 158.52532 178.88073 158.38685 179.29616 C 157.97142 180.68093 159.28695 184.48904 160.53324 185.59685 C 161.29486 186.22 161.84877 186.42771 161.84877 186.08152 C 161.84877 185.6661 161.3641 184.9737 160.8102 184.48904 C 160.04857 183.8659 159.97933 183.38122 160.67171 182.41189 C 161.29486 181.37331 161.22562 180.54245 160.25628 178.53454 C 159.5639 177.14977 159.2177 175.83424 159.42542 175.62653 C 159.63314 175.41881 159.77162 175.62653 159.77162 176.04196 C 159.77162 176.52663 160.1178 176.87282 160.53324 176.87282 C 160.94867 176.87282 161.22562 175.765 161.08714 174.24176 C 160.94867 171.81842 162.88734 167.17945 164.13363 167.17945 C 164.41059 167.17945 164.6183 166.5563 164.6183 165.86392 C 164.6183 165.1023 164.89525 164.27144 165.31068 164.06372 C 165.65688 163.856 167.24936 161.08647 168.7726 157.97074 C 171.68061 151.947 173.20386 143.6384 171.61138 142.66906 C 171.1267 142.32287 170.84975 143.15373 170.84975 145.30012 Z"
                        fill="black"/>
               </g>
            </g>
            <g>
               <g  id="outline-6">
                  <path
                        d="M 142.80821 194.45936 C 139.9002 195.22099 139.62325 195.35946 141.07726 195.70565 C 142.32355 195.9826 141.97735 196.12108 139.9002 196.19032 C 138.30772 196.19032 136.85372 196.53652 136.646 196.8827 C 136.43828 197.15966 135.39971 197.64433 134.2919 197.85204 C 132.07627 198.33671 127.78349 201.86787 127.50654 203.39111 C 127.4373 204.0835 127.71425 204.36045 128.3374 204.0835 C 128.8913 203.87578 129.30673 203.32188 129.30673 202.76797 C 129.30673 202.21406 129.86064 201.79863 130.62226 201.79863 C 131.31465 201.79863 132.28398 201.31396 132.76865 200.76006 C 133.25332 200.20615 134.22266 199.72148 134.91504 199.72148 C 135.60742 199.72148 136.36905 199.3753 136.57676 199.0291 C 136.78448 198.61367 137.89229 198.33671 138.93087 198.33671 C 140.03868 198.33671 141.83888 197.85204 142.87745 197.29814 C 143.98527 196.74423 146.47785 196.05185 148.34728 195.7749 L 151.8092 195.35946 L 149.73205 194.45936 C 147.23947 193.35155 147.23947 193.35155 142.80821 194.45936 Z"
                        fill="black"/>
               </g>
            </g>
            <g>
               <path d="M 140.59259 197.43661 C 140.10792 197.5751 139.27706 197.5751 138.86163 197.43661 C 138.37696 197.2289 138.72315 197.09042 139.69249 197.09042 C 140.66183 197.09042 141.00802 197.2289 140.59259 197.43661 Z"/>
            </g>
            <g>
               <g  id="outline-7">
                  <path
                        d="M 190.2365 262.86687 C 190.2365 265.7749 189.95954 268.3367 189.61335 268.54442 C 189.3364 268.75213 188.85173 269.85995 188.64402 270.96776 C 188.22859 272.8372 186.22067 277.96084 184.6282 280.86885 C 183.79733 282.46133 183.86657 282.80752 184.69743 282.80752 C 185.11286 282.80752 185.38981 282.46133 185.38981 282.0459 C 185.38981 281.63047 186.77458 279.20713 188.36706 276.71455 C 190.02878 274.15273 191.48279 271.45243 191.55203 270.6908 C 192.10593 267.0904 191.75974 260.16658 191.06736 258.9203 C 190.44421 257.81247 190.30574 258.50486 190.2365 262.86687 Z"
                        fill="black"/>
               </g>
            </g>
            <g>
               <g  id="outline-8">
                  <path
                        d="M 213.63907 287.37726 C 213.29287 287.6542 213.08516 288.48507 213.08516 289.31593 C 213.08516 290.28527 213.29287 290.49298 213.84678 289.93908 C 214.2622 289.52365 214.46993 288.62355 214.33145 288.0004 C 214.2622 287.37726 213.91602 287.1003 213.63907 287.37726 Z"
                        fill="black"/>
               </g>
            </g>
            <g>
               <g  id="outline-9">
                  <path
                        d="M 210.4541 295.89358 C 209.2078 298.52463 207.68457 300.87874 207.13066 301.08645 C 206.57675 301.29417 206.16132 301.77884 206.16132 302.12503 C 206.16132 303.02513 203.0456 307.6641 201.73007 308.70267 C 200.55301 309.672 199.099 313.9648 199.9991 313.9648 C 200.3453 313.9648 200.62225 313.48012 200.62225 312.9262 C 200.62225 312.30307 201.10692 311.67992 201.66083 311.4722 C 202.21474 311.2645 202.83788 310.50287 203.0456 309.74125 C 203.32255 309.04887 203.9457 308.42572 204.43036 308.42572 C 204.98427 308.42572 205.60742 307.38714 205.88437 305.93314 C 206.16132 304.2714 206.78447 303.30208 207.61533 303.09437 C 208.37695 302.88665 208.93086 302.19427 208.93086 301.57112 C 208.93086 300.94798 209.554 300.04788 210.31562 299.5632 C 211.14649 299.07854 211.7004 297.97073 211.7004 296.79367 C 211.7004 295.7551 212.32354 294.37033 213.08516 293.67795 C 214.4007 292.57013 214.46993 291.11613 213.22364 291.11613 C 212.94668 291.11613 211.7004 293.2625 210.4541 295.89358 Z"
                        fill="black"/>
               </g>
            </g>
            <g>
               <g  id="outline-10">
                  <path
                        d="M 203.3918 330.16657 C 203.3918 330.72047 203.66874 331.34362 204.01493 331.55134 C 204.36113 331.8283 204.4996 331.34362 204.29189 330.582 C 203.87646 328.9895 203.3918 328.7818 203.3918 330.16657 Z"
                        fill="black"/>
               </g>
            </g>
            <g>
               <g  id="outline-11">
                  <path
                        d="M 282.32353 141.97668 L 275.0535 142.80754 L 281.63115 142.46135 C 288.90117 142.04592 296.44816 141.00734 292.0169 141.07658 C 290.70137 141.07658 286.33935 141.49201 282.32353 141.97668 Z"
                        fill="black"/>
               </g>
            </g>
            <g>
               <g  id="outline-12">
                  <path
                        d="M 230.25628 152.43167 C 230.74094 152.63939 231.3641 152.57015 231.5718 152.36244 C 231.84876 152.15472 231.43333 151.947 230.6717 152.01624 C 229.91008 152.01624 229.70237 152.22396 230.25628 152.43167 Z"
                        fill="black"/>
               </g>
            </g>
         </g>
      </g>
   </g>
</svg>