<svg width="200" height="200" ><g class="treatment">  <path d="M 100,25 A 25,25 0 0 0 125,50 25,25 0 0 0 100,75 25,25 0 0 0 75,50 25,25 0 0 0 100,25" />
        <path d="m 97,50 0,50 6,0 0,-50 -6,0 z" />
        <path d="m 175,100 a 25,25 0 0 0 -25,25 25,25 0 0 0 -25,-25 25,25 0 0 0 25,-25 25,25 0 0 0 25,25" />
        <path d="m 100,97 0,6 50,0 0,-6 -50,0 z" />
        <path d="m 100,175 a 25,25 0 0 0 -25,-25 25,25 0 0 0 25,-25 25,25 0 0 0 25,25 25,25 0 0 0 -25,25"/>
        <path d="m 97,100 0,50 6,0 0,-50 -6,0 z"/>
        <path d="M 25,100 A 25,25 0 0 0 50,75 25,25 0 0 0 75,100 25,25 0 0 0 50,125 25,25 0 0 0 25,100"/>
        <path d="m 50,97 0,6 50,0 0,-6 -50,0 z"/>
        <path d="M 125,0 A 25,25 0 0 0 150,-25 25,25 0 0 0 175,0 25,25 0 0 0 150,25 25,25 0 0 0 125,0"/>
        <path d="m 150,-3 0,6 50,0 0,-6 -50,0 z"/>
        <path d="M 200,75 A 25,25 0 0 0 175,50 25,25 0 0 0 200,25 25,25 0 0 0 225,50 25,25 0 0 0 200,75"/>
        <path d="m 197,0 0,50 6,0 0,-50 -6,0 z"/>
        <path d="M 75,0 A 25,25 0 0 0 50,25 25,25 0 0 0 25,0 25,25 0 0 0 50,-25 25,25 0 0 0 75,0"/>
        <path d="M 0,-3 0,3 50,3 50,-3 0,-3 z"/>
        <path d="M 0,75 A 25,25 0 0 0 -25,50 25,25 0 0 0 0,25 25,25 0 0 0 25,50 25,25 0 0 0 0,75"/>
        <path d="M -3,0 -3,50 3,50 3,0 -3,0 z"/>
        <path d="M 0,125 A 25,25 0 0 0 25,150 25,25 0 0 0 0,175 25,25 0 0 0 -25,150 25,25 0 0 0 0,125"/>
        <path d="m -3,150 0,50 6,0 0,-50 -6,0 z"/>
        <path d="M 75,200 A 25,25 0 0 0 50,225 25,25 0 0 0 25,200 25,25 0 0 0 50,175 25,25 0 0 0 75,200" />
        <path d="m 0,197 0,6 50,0 0,-6 -50,0 z" />
        <path d="m 200,125 a 25,25 0 0 0 25,25 25,25 0 0 0 -25,25 25,25 0 0 0 -25,-25 25,25 0 0 0 25,-25" />
        <path d="m 197,150 0,50 6,0 0,-50 -6,0 z" />
        <path d="m 125,200 a 25,25 0 0 0 25,-25 25,25 0 0 0 25,25 25,25 0 0 0 -25,25 25,25 0 0 0 -25,-25" />
        <path d="m 150,197 0,6 50,0 0,-6 -50,0 z" /></g></svg>