<svg width="300" height="347" ><g class="treatment"><path d="m 153.4422,92.600196 -46.21319,80.043594 45.12205,81.13837 95.02852,1.00289 46.35761,-82.54424 -45.99123,-79.659144 -94.30376,0.01853 z m -6.68594,-10.028905 -52.060166,90.170859 53.401696,91.51979 105.30491,0 52.25179,-90.1727 -53.28385,-92.224757 -105.61438,0.706808 z" fill-rule="evenodd" />
          <path d="M 3.4422,6.600196 -42.77099,86.64379 2.35106,167.78216 97.37958,168.78505 143.73719,86.24081 97.74596,6.581666 3.4422,6.600196 z m -6.68594,-10.028905 -52.060166,90.170859 53.401696,91.51979 105.30491,0 52.25179,-90.1727 -53.28385,-92.224757 -105.61438,0.706808 z" fill-rule="evenodd" />
          <path d="m 3.4422,180.6002 -46.21319,80.04359 45.12205,81.13837 95.02852,1.00289 46.35761,-82.54424 -45.99123,-79.65914 -94.30376,0.0185 z m -6.68594,-10.02891 -52.060166,90.17086 53.401696,91.51979 105.30491,0 52.25179,-90.1727 -53.28385,-92.22476 -105.61438,0.70681 z" fill-rule="evenodd" />
          <path d="m 303.4422,8.600196 -46.21319,80.043594 45.12205,81.13837 95.02852,1.00289 46.35761,-82.54424 -45.99123,-79.659144 -94.30376,0.01853 z m -6.68594,-10.028905 -52.06017,90.170859 53.4017,91.51979 105.30491,0 52.25179,-90.1727 -53.28385,-92.224757 -105.61438,0.706808 z" fill-rule="evenodd" />
          <path d="m 303.4422,178.6002 -46.21319,80.04359 45.12205,81.13837 95.02852,1.00289 46.35761,-82.54424 -45.99123,-79.65914 -94.30376,0.0185 z m -6.68594,-10.02891 -52.06017,90.17086 53.4017,91.51979 105.30491,0 52.25179,-90.1727 -53.28385,-92.22476 -105.61438,0.70681 z" fill-rule="evenodd" />
         </g></svg>