<?xml version="1.0" encoding="UTF-8"?>
<!DOCTYPE svg PUBLIC "-//W3C//DTD SVG 1.1//EN" "http://www.w3.org/Graphics/SVG/1.1/DTD/svg11.dtd">
<svg version="1.1" xmlns="http://www.w3.org/2000/svg" xmlns:xlink="http://www.w3.org/1999/xlink" x="0" y="0" width="200" height="200" viewBox="0, 0, 200, 200">
  <g id="Layer_1">
    <path d="M82.373,138.615 L84.119,114.677 L60.392,111.052 L80.196,97.492 L68.237,76.681 L91.186,83.71 L100,61.385 L108.814,83.71 L131.763,76.682 L119.804,97.492 L139.608,111.052 L115.881,114.677 L117.627,138.615 L100,122.325 z" />
    <path d="M-17.627,238.615 L-15.881,214.677 L-39.608,211.052 L-19.804,197.492 L-31.763,176.681 L-8.814,183.71 L0,161.385 L8.814,183.71 L31.763,176.682 L19.804,197.492 L39.608,211.052 L15.881,214.677 L17.627,238.615 L-0,222.325 z" />
    <path d="M182.373,238.615 L184.119,214.677 L160.392,211.052 L180.196,197.492 L168.237,176.681 L191.186,183.71 L200,161.385 L208.814,183.71 L231.763,176.682 L219.804,197.492 L239.608,211.052 L215.881,214.677 L217.627,238.615 L200,222.325 z" />
    <path d="M182.373,38.615 L184.119,14.677 L160.392,11.052 L180.196,-2.508 L168.237,-23.319 L191.186,-16.29 L200,-38.615 L208.814,-16.29 L231.763,-23.318 L219.804,-2.508 L239.608,11.052 L215.881,14.677 L217.627,38.615 L200,22.325 z" />
    <path d="M-17.627,38.615 L-15.881,14.677 L-39.608,11.052 L-19.804,-2.508 L-31.763,-23.319 L-8.814,-16.29 L0,-38.615 L8.814,-16.29 L31.763,-23.318 L19.804,-2.508 L39.608,11.052 L15.881,14.677 L17.627,38.615 L-0,22.325 z" />
  </g>
</svg>
