<?xml version="1.0" encoding="UTF-8" standalone="no"?>
<svg
   xmlns:dc="http://purl.org/dc/elements/1.1/"
   xmlns:cc="http://creativecommons.org/ns#"
   xmlns:rdf="http://www.w3.org/1999/02/22-rdf-syntax-ns#"
   xmlns:svg="http://www.w3.org/2000/svg"
   xmlns="http://www.w3.org/2000/svg"
   version="1.1"
   x="0"
   y="0"
   width="100"
   height="100"
   viewBox="0, 0, 100, 100"
   id="svg1221">
  <metadata
     id="metadata1227">
    <rdf:RDF>
      <cc:Work
         rdf:about="">
        <dc:format>image/svg+xml</dc:format>
        <dc:type
           rdf:resource="http://purl.org/dc/dcmitype/StillImage" />
        <dc:title></dc:title>
        <dc:creator>
          <cc:Agent>
            <dc:title>From an idea by Soul’s Verdict on r/Heraldry</dc:title>
          </cc:Agent>
        </dc:creator>
      </cc:Work>
    </rdf:RDF>
  </metadata>
  <defs
     id="defs1225" />
  <path
     id="path1387"
     style="color:#000000;font-style:normal;font-variant:normal;font-weight:normal;font-stretch:normal;font-size:medium;line-height:normal;font-family:sans-serif;font-variant-ligatures:normal;font-variant-position:normal;font-variant-caps:normal;font-variant-numeric:normal;font-variant-alternates:normal;font-variant-east-asian:normal;font-feature-settings:normal;font-variation-settings:normal;text-indent:0;text-align:start;text-decoration:none;text-decoration-line:none;text-decoration-style:solid;text-decoration-color:#000000;letter-spacing:normal;word-spacing:normal;text-transform:none;writing-mode:lr-tb;direction:ltr;text-orientation:mixed;dominant-baseline:auto;baseline-shift:baseline;text-anchor:start;white-space:normal;shape-padding:0;shape-margin:0;inline-size:0;clip-rule:nonzero;display:inline;overflow:visible;visibility:visible;isolation:auto;mix-blend-mode:normal;color-interpolation:sRGB;color-interpolation-filters:linearRGB;solid-color:#000000;solid-opacity:1;vector-effect:none;fill-opacity:1;fill-rule:nonzero;color-rendering:auto;image-rendering:auto;shape-rendering:auto;text-rendering:auto;enable-background:accumulate;stop-color:#000000;stop-opacity:1;opacity:1"
     d="M 50.998047 -54.302734 C 31.950163 -54.488424 14.184779 -43.998554 5.1523438 -27.166016 C -17.7562 -27.36298 -38.815494 -12.132821 -45.017578 11.013672 C -48.60542 24.40368 -46.549246 37.977597 -40.330078 49.232422 C -43.804008 56.163341 -45.771484 63.978861 -45.771484 72.253906 C -45.771482 100.45739 -23.051372 123.38268 5.0683594 123.73828 C 11.62964 135.37694 22.674937 144.47711 36.587891 148.20508 C 59.013008 154.21387 81.969914 144.42657 93.640625 125.67969 C 121.91485 125.50302 144.81445 102.50301 144.81445 74.1875 C 144.81445 65.435035 142.61983 57.193199 138.76172 49.972656 C 143.10717 42.422104 145.60547 33.67591 145.60547 24.345703 C 145.60547 -3.4811116 123.48742 -26.166451 95.888672 -27.109375 C 89.401722 -39.207859 78.137864 -48.708966 63.84375 -52.539062 C 59.553697 -53.688579 55.244583 -54.261337 50.998047 -54.302734 z M 50.958984 -51.306641 C 54.960149 -51.265783 59.023005 -50.726528 63.068359 -49.642578 C 75.987282 -46.180963 86.277768 -37.828525 92.486328 -27.113281 C 74.157135 -26.544689 58.23805 -16.388493 49.570312 -1.4882812 C 49.470293 -1.4874579 49.371368 -1.4838158 49.271484 -1.4824219 C 42.674966 -12.860392 31.752267 -21.732611 18.056641 -25.402344 C 14.866169 -26.257228 11.666424 -26.780392 8.4882812 -27.015625 C 17.187323 -42.143259 33.490069 -51.485022 50.958984 -51.306641 z M 94.054688 -24.152344 C 99.043886 -13.989305 100.52464 -2.0478154 97.361328 9.7578125 C 96.265392 13.847901 94.677548 17.672135 92.681641 21.189453 C 83.947642 8.2815127 69.514049 -0.45361824 53.005859 -1.40625 C 61.572052 -15.056896 76.739716 -24.13453 94.054688 -24.152344 z M 3.65625 -24.148438 C 2.4956052 -21.595501 1.5191146 -18.92053 0.76953125 -16.123047 C -2.6787753 -3.2537916 -0.92662278 9.7919165 4.7363281 20.779297 C -13.722896 21.130167 -29.812016 31.201195 -38.621094 46.09375 C -43.766391 35.846601 -45.323239 23.74692 -42.119141 11.789062 C -36.403143 -9.5433326 -17.355258 -23.700693 3.65625 -24.148438 z M 6.9472656 -24.107422 C 10.372332 -23.946261 13.832371 -23.429984 17.28125 -22.505859 C 29.652055 -19.191112 39.604436 -11.386397 45.878906 -1.3222656 C 30.194157 -0.076622063 16.4858 8.2020016 7.9042969 20.363281 C 2.1761087 9.8265996 0.31582678 -2.8372921 3.6679688 -15.347656 C 4.4925206 -18.424925 5.6020438 -21.347895 6.9472656 -24.107422 z M 97.421875 -24.029297 C 122.67441 -22.325461 142.60547 -1.3419389 142.60547 24.345703 C 142.60547 32.51834 140.57956 40.210127 137.01562 46.962891 C 128.23488 32.905701 112.86964 23.38859 95.246094 22.736328 C 97.386545 18.98337 99.089628 14.902171 100.25977 10.535156 C 103.46655 -1.432724 102.1729 -13.553497 97.421875 -24.029297 z M 51.294922 1.5332031 C 67.47359 1.957559 81.669214 10.273607 90.162109 22.792969 C 75.157666 23.701593 61.886201 31.044506 53.060547 42.097656 C 53.588842 40.655332 54.067522 39.183857 54.472656 37.671875 C 57.798703 25.258898 56.273238 12.68709 51.080078 1.9511719 C 51.152491 1.8122258 51.221207 1.6713541 51.294922 1.5332031 z M 47.542969 1.5605469 C 47.607479 1.6817368 47.676747 1.8001366 47.740234 1.921875 C 44.452299 8.7021138 42.605469 16.309836 42.605469 24.345703 C 42.605469 29.255018 43.308438 33.999213 44.59375 38.498047 C 36.251482 28.902948 24.427781 22.413733 11.089844 21.03125 C 19.471512 9.7870222 32.612971 2.3038768 47.542969 1.5605469 z M 49.40625 5.4785156 C 53.463687 15.07452 54.484153 26.041798 51.576172 36.894531 C 50.991372 39.077034 50.254037 41.177569 49.402344 43.203125 C 46.957233 37.407577 45.605469 31.035435 45.605469 24.345703 C 45.605469 17.652251 46.958562 11.276646 49.40625 5.4785156 z M 5.7011719 23.753906 C 1.1330151 31.442777 -1.5 40.414777 -1.5 50 C -1.5 58.201645 0.43127032 65.952822 3.8476562 72.837891 C -0.012804587 72.763622 -3.9253166 72.234161 -7.8242188 71.189453 C -20.539606 67.782375 -30.702409 59.634584 -36.939453 49.162109 C -28.740022 34.032361 -12.728124 23.764106 5.7011719 23.753906 z M 10.060547 23.955078 C 25.162517 25.290432 38.26293 33.52949 46.191406 45.505859 C 43.456373 45.257151 40.706782 44.787958 37.962891 44.052734 C 26.04025 40.858073 16.363623 33.493539 10.060547 23.955078 z M 95.425781 25.740234 C 112.49724 26.470491 127.26185 36.008504 135.31445 49.929688 C 127.10066 63.139756 112.71768 72.099113 96.175781 72.792969 C 99.578087 65.919222 101.5 58.183605 101.5 50 C 101.5 41.229811 99.298486 32.971238 95.425781 25.740234 z M 89.666016 25.837891 C 81.319705 37.253476 68.300557 44.515542 54.152344 45.574219 C 62.298921 34.438533 75.077731 26.922041 89.666016 25.837891 z M 7.8496094 26.005859 C 14.549579 35.942217 24.711422 43.608741 37.185547 46.951172 C 38.396768 47.275718 39.609776 47.538004 40.822266 47.771484 C 26.67936 50.323851 14.039987 58.738394 6.296875 71.068359 C 3.2232571 64.698334 1.5 57.551907 1.5 50 C 1.5 41.265437 3.8156632 33.081652 7.8496094 26.005859 z M 92.636719 26.851562 C 96.376096 33.729552 98.5 41.614183 98.5 50 C 98.5 57.622331 96.740966 64.829362 93.613281 71.244141 C 86.949112 60.538394 76.376612 52.233154 63.246094 48.714844 C 62.032869 48.389761 60.81801 48.126296 59.603516 47.892578 C 72.869539 45.500005 84.815126 37.953794 92.636719 26.851562 z M 52.974609 50.050781 C 56.124903 50.254112 59.301686 50.764669 62.46875 51.613281 C 74.817306 54.922066 84.758733 62.70235 91.035156 72.740234 C 74.965548 71.737481 61.034136 62.927229 52.974609 50.050781 z M 45.824219 50.119141 C 37.728359 63.046053 23.939488 71.406434 8.8203125 72.681641 C 16.916174 59.754725 30.705038 51.394344 45.824219 50.119141 z M -38.492188 52.324219 C -31.80524 62.660839 -21.418556 70.653588 -8.6015625 74.087891 C -4.5094525 75.184368 -0.39974199 75.743828 3.65625 75.830078 C 2.2256559 78.760308 1.0471925 81.86413 0.171875 85.130859 C -3.1384536 97.485177 -1.6417854 109.9948 3.4921875 120.69727 C -22.271143 119.52988 -42.771482 98.307621 -42.771484 72.253906 C -42.771484 65.146467 -41.233999 58.404145 -38.492188 52.324219 z M 49.980469 52.396484 C 52.701951 58.45772 54.228516 65.174436 54.228516 72.253906 C 54.228515 80.095297 52.36094 87.493091 49.0625 94.044922 C 46.341018 87.983686 44.814453 81.266971 44.814453 74.1875 C 44.814453 66.346109 46.682029 58.948314 49.980469 52.396484 z M 136.92773 52.941406 C 140.0559 59.356578 141.81445 66.564549 141.81445 74.1875 C 141.81445 100.29821 121.22355 121.55481 95.380859 122.63672 C 97.174408 119.25964 98.63061 115.63867 99.662109 111.78906 C 103.01662 99.269866 101.43581 86.590774 96.134766 75.794922 C 113.14024 75.133703 128.03836 66.220663 136.92773 52.941406 z M 44.929688 56.523438 C 42.915354 62.033643 41.814453 67.983235 41.814453 74.1875 C 41.814453 82.488981 43.794308 90.328044 47.289062 97.275391 C 47.066202 97.645001 46.830015 98.006059 46.597656 98.369141 C 30.657231 97.265396 16.852749 88.480051 8.8515625 75.677734 C 23.011301 74.534531 36.098805 67.53479 44.929688 56.523438 z M 55.240234 58.101562 C 64.070263 68.257673 76.802685 74.926926 91.099609 75.751953 C 82.745255 89.065025 68.109168 98.015359 51.328125 98.466797 C 51.113623 98.096419 50.8924 97.730023 50.6875 97.353516 C 54.846887 89.924364 57.228515 81.366884 57.228516 72.253906 C 57.228516 67.344591 56.525547 62.600397 55.240234 58.101562 z M 6.3066406 77.236328 C 14.5141 90.367749 28.465289 99.546278 44.638672 101.22266 C 36.003176 112.8074 22.311109 120.384 6.8203125 120.72656 C 1.4671982 110.37185 -0.18731267 98.063876 3.0703125 85.90625 C 3.8860636 82.861826 4.9809185 79.969963 6.3066406 77.236328 z M 93.595703 77.388672 C 98.473084 87.489655 99.897441 99.316334 96.763672 111.01172 C 95.645766 115.1838 94.01359 119.07914 91.960938 122.6543 C 75.806563 122.21141 61.634997 113.8988 53.152344 101.39453 C 70.194971 100.36248 85.002451 91.03054 93.595703 77.388672 z M 48.134766 101.45312 C 48.64264 101.47128 49.15061 101.48888 49.662109 101.49219 C 58.241699 115.17145 73.064855 124.53572 90.128906 125.58008 C 78.878387 142.2763 57.911031 150.81239 37.363281 145.30664 C 24.810511 141.94314 14.750531 133.95707 8.4941406 123.67773 C 24.934393 122.80581 39.331995 114.20733 48.134766 101.45312 z " />
</svg>
