<?xml version="1.0" encoding="UTF-8" standalone="no"?>
<!DOCTYPE svg PUBLIC "-//W3C//DTD SVG 1.1//EN" "http://www.w3.org/Graphics/SVG/1.1/DTD/svg11.dtd">
<svg width="100%" height="100%" viewBox="0 0 295 329" version="1.1" xmlns:dc="http://purl.org/dc/elements/1.1/" xmlns="http://www.w3.org/2000/svg" xmlns:xlink="http://www.w3.org/1999/xlink" xml:space="preserve" xmlns:serif="http://www.serif.com/" style="fill-rule:evenodd;clip-rule:evenodd;stroke-linejoin:round;stroke-miterlimit:1.41421;">
<metadata> Produced by OmniGraffle 7.8 
    <dc:title>Traceable heraldic art http://heraldicart.org/credits.html</dc:title>
  </metadata>
    <g id="Group_3">
        <path id="Graphic_13" d="M286.544,2.942C282.774,9.1 246.424,16.309 231.185,14.136L216.493,11.982L216.14,22.088C215.615,37.111 206.455,48.824 189.526,55.89C181.745,59.447 172.626,62.136 169.349,62.022C160.608,61.717 159.693,64.419 165.162,72.268C172.213,81.812 171.345,106.668 163.55,118.429C157.188,128.325 156.077,128.833 154.092,123.021C153.358,120.534 155.413,116.504 159.634,113.096C168.077,106.28 168.55,100.554 161.509,90.736C152.633,78.667 136.676,81.392 130.688,96.223C129.793,98.38 129.212,91.523 129.584,80.87L129.997,61.195L114.74,59.568C95.131,57.242 86.94,49.026 84.359,28.972C83.543,21.013 82.142,14.127 81.625,13.288C81.097,12.723 76.972,13.399 72.817,14.895C57.038,20.361 36.836,19.382 19.282,13.026C10.109,9.424 1.982,7.226 1.124,8.289C0.276,9.08 3.081,14.921 7.222,21.629C18.903,39.539 21.094,47.273 20.369,68.032C19.768,85.24 20.257,86.898 24.704,84.865C32.495,81.035 53.038,80.112 60.044,83.091C69.48,86.976 74.663,103.018 71.915,119.057C69.176,134.823 69.986,135.125 100.705,124.712C108.722,122.257 128.801,126.787 131.624,132.081C132.669,133.485 132.358,134.568 131.001,134.247C113.625,130.632 102.102,139.528 102.613,156.228C102.835,165.534 104.378,168.322 110.283,171.537C116.46,174.761 118.928,174.573 125.598,171.525C134.773,167.196 141.787,154.314 139.341,146.024C138.373,142.435 138.995,140.269 141.181,140.346C145.824,140.508 141.812,161.425 135.574,167.771C133.02,170.416 125.172,175.885 118.483,179.48C106.226,185.889 106.217,186.162 110.943,191.797C114.623,196.027 115.516,201.802 115.02,216.005C114.428,232.94 113.514,235.642 106.437,242.506C99.926,248.842 99.03,250.998 101.958,253.288C129.046,276.385 137.357,288.982 143.28,315.169C146.56,330.871 149.282,331.24 151.982,316.567C153.955,307.064 169.82,275.622 174.296,272.77C178.771,269.918 188.884,254.409 189.027,250.312C189.103,248.127 186.759,244.764 183.812,243.02C177.381,239.24 170.737,225.881 171.042,217.141C171.29,210.039 181.302,189.605 185.768,187.026C191.062,184.203 188.728,180.566 178.539,174.741C168.341,169.189 159.086,160.114 163.73,160.276C165.096,160.324 168.58,162.36 171.235,164.64C179.21,171.209 191.275,170.263 198.908,163.146C205.127,157.346 205.457,155.717 202.993,147.974C201.281,142.171 197.337,137.658 191.95,135.282L183.607,131.435L196.238,129.962C203.378,129.117 213.767,129.207 219.484,129.953C229.561,131.126 229.844,130.862 230.988,121.604C233.663,99.819 242.727,90.838 268.612,85.725L280.999,83.423L280.8,65.64C280.534,49.77 282.185,41.623 293.532,6.468C295.05,2.145 289.136,-0.796 286.544,2.942ZM147.095,119.768C146.99,122.773 141.762,123.684 140.209,121.169C139.438,119.774 140.578,118.447 142.763,118.523C145.221,118.609 147.114,119.222 147.095,119.768Z" style="fill:rgb(204,204,204);fill-rule:nonzero;"/>
        <path id="Graphic_12" d="M284.816,13.274C284.769,14.639 282.618,21.401 279.893,28.963C277.45,36.262 275.052,50.125 274.727,59.412L274.136,76.347L260.326,80.24C241.533,85.874 228.53,97.999 225.566,112.39L223.517,124.078L208.221,123.544C197.296,123.162 188.762,124.778 178.757,129.352C171.249,132.918 163.778,135.392 162.422,135.071C161.349,134.487 163.715,129.373 167.739,123.771C174.911,114.176 175.261,112.001 174.639,90.648L174.075,67.656L184.822,65.297C200.817,61.48 217.505,45.654 220.186,31.527C222.498,20.122 222.498,20.122 233.688,20.786C247.335,21.536 274.011,17.272 277.686,13.845C281.078,10.682 284.912,10.542 284.816,13.274Z" style="fill:rgb(255,0,0);fill-rule:nonzero;"/>
        <path id="Graphic_11" d="M77.933,32.85C81.588,53.488 93.771,64.852 112.891,65.52C120.812,65.796 121.066,66.352 121.625,81.686C121.866,90.446 124.441,102.842 127.226,109.229C132.835,120.911 130.468,126.024 122.192,120.266C116.58,116.515 101.538,116.536 90.45,120.798C85.184,122.802 80.201,124.543 79.654,124.523C79.108,124.504 78.762,118.749 79.001,111.921C79.554,96.079 71.132,78.829 61.658,76.037C57.862,75.084 48.575,74.76 40.899,75.312L26.629,76.728L24.143,53.943C22.943,41.321 20.602,30.027 19.021,28.331C17.703,26.918 16.404,24.958 16.442,23.865C16.471,23.046 29.873,22.967 46.535,23.549L76.581,24.598L77.933,32.85Z" style="fill:rgb(255,0,0);fill-rule:nonzero;"/>
        <g id="fructed">
            <path id="Graphic_10" d="M154.029,93.483C160.639,100.004 159.552,107.623 151.497,111.171C146.231,113.175 143.773,113.089 140.591,110.243C135.281,105.682 135.7,93.664 141.163,93.855C143.348,93.931 145.308,92.632 145.356,91.266C145.499,87.169 148.475,88.093 154.029,93.483Z" style="fill:rgb(255,0,0);fill-rule:nonzero;"/>
            <path id="Graphic_8" d="M193.284,144.079C199.893,150.6 198.806,158.22 190.752,161.767C182.151,165.295 171.641,160.826 169.742,152.556C167.158,140.432 183.502,134.44 193.284,144.079Z" style="fill:rgb(255,0,0);fill-rule:nonzero;"/>
            <path id="Graphic_7" d="M130.16,142.696C137.664,147.06 136.19,157.947 127.221,164.197C120.757,169.168 119.109,169.384 114.316,165.661C106.84,160.477 106.24,154.167 111.716,146.154C116.89,138.951 121.845,138.03 130.16,142.696Z" style="fill:rgb(255,0,0);fill-rule:nonzero;"/>
        </g>
        <path id="Graphic_9" d="M157.168,152.39C158.991,162.846 162.586,169.534 168.932,175.773L178.186,184.847L172.059,195.845C168.562,202.013 165.761,211.76 165.503,219.135C165.15,229.241 166.655,233.123 174.262,242.413L183.45,253.399L176.618,261.091C172.641,265.328 164.3,277.07 157.929,287.239L146.628,305.441L143.497,293.298C141.324,285.018 135.611,276.341 125.321,265.59L110.55,250.033L116.121,239.289C121.409,228.808 122.719,206.976 118.562,192.883C117.349,188.465 119.922,185.273 131.124,177.734C144.022,168.613 145.172,167.012 147.307,152.866C148.685,144.71 150.836,137.948 151.928,137.986C153.021,138.024 155.523,144.675 157.168,152.39Z" style="fill:rgb(255,0,0);fill-rule:nonzero;"/>
        <path id="Graphic_6" d="M206.006,85.18C193.559,97.052 181.648,109.215 179.895,112.436C178.141,115.656 189.118,106.742 204.11,92.498C219.365,78.536 231.285,66.099 230.485,65.524C229.694,64.676 218.717,73.591 206.006,85.18Z" style="fill:rgb(204,204,204);fill-rule:nonzero;"/>
        <path id="Graphic_5" d="M72.587,68.488C72.774,70.956 116.167,112.672 120.48,114.463C127.75,117.725 116.726,104.487 99.478,89.391C72.946,66.039 72.409,65.747 72.587,68.488Z" style="fill:rgb(204,204,204);fill-rule:nonzero;"/>
        <path id="Graphic_4" d="M147.554,169.283C146.687,170.62 146.254,190.842 146.809,214.107C147.433,251.048 148.691,262.03 151.292,258.019C152.753,255.335 149.279,166.882 147.554,169.283Z" style="fill:rgb(204,204,204);fill-rule:nonzero;"/>
    </g>
</svg>
