<?xml version="1.0" encoding="utf-8"?>
<svg xmlns:dc="http://purl.org/dc/elements/1.1/" xmlns:xl="http://www.w3.org/1999/xlink"
     xmlns="http://www.w3.org/2000/svg"
     xmlns:xlink="http://www.w3.org/1999/xlink"
     version="1.1"
     viewBox="81 63 202.5 351"
     width="202.5"
     height="351"
     preserveAspectRatio="xMidYMid meet"
     zoomAndPan="magnify"
     contentScriptType="application/ecmascript"
     contentStyleType="text/css">
   <defs/>
   <metadata xmlns="" xmlns:svg="http://www.w3.org/2000/svg"
             xmlns:rdf="http://www.w3.org/1999/02/22-rdf-syntax-ns#"
             xmlns:cc="http://creativecommons.org/ns#">
      <rdf:RDF>
         <cc:Work rdf:about="">
            <dc:creator>
               <cc:Agent>
                  <dc:title>http://heraldicart.org Olive.svg</dc:title>
               </cc:Agent>
            </dc:creator>
         </cc:Work>
      </rdf:RDF>
   </metadata>
   <g stroke="#505050" fill="#ffff00" stroke-opacity="1" stroke-dasharray="none"
      fill-opacity="1">
      <title>Olive</title>
      <g>
         <title>Art</title>
         <g>
            <g>
               <path d="M 192.32465 142.73893 C 189.79425 119.96538 192.84747 103.34229 199.1762 91.73964 C 200.7165 88.91573 202.3057 86.69087 203.8184 85.01008 C 204.27914 84.49816 204.67212 84.10517 204.98104 83.82568 C 205.06097 83.75336 205.0238 83.78391 204.8526 83.91232 L 214.67981 73.42996 L 184.3397 67.47925 C 181.48477 70.651405 178.7063 74.541256 176.17014 79.190885 C 167.21208 95.614 163.16787 117.6325 166.27902 145.6329 L 167.726 158.6557 L 193.77163 155.76175 Z"/>
               <path d="M 192.32465 142.73893 C 189.79425 119.96538 192.84747 103.34229 199.1762 91.73964 C 200.7165 88.91573 202.3057 86.69087 203.8184 85.01008 C 204.27914 84.49816 204.67212 84.10517 204.98104 83.82568 C 205.06097 83.75336 205.0238 83.78391 204.8526 83.91232 L 214.67981 73.42996 L 184.3397 67.47925 C 181.48477 70.651405 178.7063 74.541256 176.17014 79.190885 C 167.21208 95.614 163.16787 117.6325 166.27902 145.6329 L 167.726 158.6557 L 193.77163 155.76175 Z"
                     stroke="black"
                     stroke-linecap="round"
                     stroke-linejoin="round"
                     stroke-width="2"/>
            </g>
            <g>
               <path d="M 256.9403 178.0105 C 294.9344 230.97164 277.2454 316.83855 239.25132 369.7997 C 201.25744 422.7611 163.24256 422.7611 125.24868 369.7997 C 87.2546 316.83855 69.56561 230.97164 107.55969 178.0105 C 145.55357 125.04909 218.94643 125.04909 256.9403 178.0105 Z"/>
               <path d="M 256.9403 178.0105 C 294.9344 230.97164 277.2454 316.83855 239.25132 369.7997 C 201.25744 422.7611 163.24256 422.7611 125.24868 369.7997 C 87.2546 316.83855 69.56561 230.97164 107.55969 178.0105 C 145.55357 125.04909 218.94643 125.04909 256.9403 178.0105 Z"
                     stroke="black"
                     stroke-linecap="round"
                     stroke-linejoin="round"
                     stroke-width="2"/>
            </g>
         </g>
      </g>
   </g>
</svg>