<?xml version="1.0" encoding="UTF-8" standalone="no"?>
<svg
   version="1.1"
   viewBox="0 0 193.669 344.04166"
   width="193.66891"
   height="344.0415"
   id="svg24"
   xmlns="http://www.w3.org/2000/svg"
   xmlns:svg="http://www.w3.org/2000/svg"
   xmlns:rdf="http://www.w3.org/1999/02/22-rdf-syntax-ns#"
   xmlns:cc="http://creativecommons.org/ns#"
   xmlns:dc="http://purl.org/dc/elements/1.1/">
  <g
     id="Olive"
     stroke-opacity="1"
     stroke="none"
     stroke-dasharray="none"
     fill="none"
     fill-opacity="1"
     style="fill:none;stroke:#000000"
     transform="translate(-85.415546,-66.479259)">
    <title
       id="title7">Olive</title>
    <g
       id="Olive_Art"
       style="fill:none;stroke:#000000">
      <title
         id="title9">Art</title>
      <g
         id="Group_53"
         style="fill:none;stroke:#000000">
        <g
           id="Graphic_55"
           style="fill:none;stroke:#000000">
          <path
             d="m 192.32465,142.73893 c -2.5304,-22.77355 0.52282,-39.39664 6.85155,-50.99929 1.5403,-2.82391 3.1295,-5.04877 4.6422,-6.72956 0.46074,-0.51192 0.85372,-0.90491 1.16264,-1.1844 0.0799,-0.07232 0.0428,-0.04177 -0.12844,0.08664 l 9.82721,-10.48236 -30.34011,-5.95071 c -2.85493,3.172155 -5.6334,7.062006 -8.16956,11.711635 C 167.21208,95.614 163.16787,117.6325 166.27902,145.6329 l 1.44698,13.0228 26.04563,-2.89395 z"
             fill="#FFFFFF"
             id="path11"
             style="fill:none;stroke:#000000" />
          <path
             d="m 192.32465,142.73893 c -2.5304,-22.77355 0.52282,-39.39664 6.85155,-50.99929 1.5403,-2.82391 3.1295,-5.04877 4.6422,-6.72956 0.46074,-0.51192 0.85372,-0.90491 1.16264,-1.1844 0.0799,-0.07232 0.0428,-0.04177 -0.12844,0.08664 l 9.82721,-10.48236 -30.34011,-5.95071 c -2.85493,3.172155 -5.6334,7.062006 -8.16956,11.711635 C 167.21208,95.614 163.16787,117.6325 166.27902,145.6329 l 1.44698,13.0228 26.04563,-2.89395 z"
             stroke="black"
             stroke-linecap="round"
             stroke-linejoin="round"
             stroke-width="2"
             id="path13"
             style="fill:none;stroke:#000000" />
        </g>
        <g
           id="Graphic_54"
           style="fill:none;stroke:#000000">
          <path
             d="m 256.9403,178.0105 c 37.9941,52.96114 20.3051,138.82805 -17.68898,191.7892 -37.99388,52.9614 -76.00876,52.9614 -114.00264,0 C 87.2546,316.83855 69.56561,230.97164 107.55969,178.0105 c 37.99388,-52.96141 111.38674,-52.96141 149.38061,0 z"
             fill="#FFFFFF"
             id="path16"
             style="fill:none;stroke:#000000" />
          <path
             d="m 256.9403,178.0105 c 37.9941,52.96114 20.3051,138.82805 -17.68898,191.7892 -37.99388,52.9614 -76.00876,52.9614 -114.00264,0 C 87.2546,316.83855 69.56561,230.97164 107.55969,178.0105 c 37.99388,-52.96141 111.38674,-52.96141 149.38061,0 z"
             stroke="black"
             stroke-linecap="round"
             stroke-linejoin="round"
             stroke-width="2"
             id="path18"
             style="fill:none;stroke:#000000" />
        </g>
      </g>
    </g>
  </g>
  <path
     style="fill:none;fill-rule:evenodd;stroke:#000000;stroke-width:1.16907"
     d="m 108.58056,73.837933 c -1.64837,0.790265 0.0258,3.772528 -0.35693,5.228599 0.068,3.547971 1.39417,7.412117 0.48475,10.815339 -8.855256,1.375621 -17.868305,2.792414 -26.825508,2.751768 -1.415344,-2.955264 -1.030488,-7.009187 -1.635953,-10.356535 -0.515016,-2.22125 0.371872,-7.49565 -3.282736,-7.150109 -19.990558,4.68826 -37.715235,16.801191 -50.580471,32.662195 -18.8891925,23.27337 -25.47796421,54.29504 -24.0628201,83.72628 2.083849,45.14233 19.2927091,89.65851 48.6059771,124.10672 11.395372,13.01003 26.242198,25.56821 44.338613,26.36235 18.537048,0.59484 34.364098,-11.67963 46.149378,-24.8045 27.9268,-31.93578 44.7281,-72.99125 49.32046,-115.02018 0.60773,-17.89445 1.53853,-36.21854 -3.46426,-53.63315 -7.44312,-30.35421 -28.70146,-57.98292 -58.26389,-69.426762 -6.56062,-2.455776 -13.42136,-4.668029 -20.42661,-5.262015 z"
     id="path317" />
  <path
     style="fill:none;fill-rule:evenodd;stroke:#000000;stroke-width:1.16907"
     d="m 109.0834,74.454126 c -1.18206,1.199244 0.1138,3.8911 -0.14219,5.547368 -0.003,3.26033 1.18115,7.065071 0.12773,10.047991 -8.95244,2.324348 -18.293716,2.5506 -27.488735,3.072526 -2.14332,-5.463696 -1.229791,-11.769967 -3.146081,-17.188297 -3.937223,-0.523888 -7.836457,1.913185 -11.606383,2.915764 -30.487734,11.631224 -53.180839,39.825832 -60.1568485,71.451842 -7.7654069,33.59784 -3.0228861,69.07161 8.2121465,101.32318 9.971201,26.72192 24.446262,52.32202 44.99896,72.34331 11.180533,10.55435 26.246814,19.55602 42.207431,16.89407 18.47803,-2.43244 32.3463,-16.58167 43.8193,-30.11615 23.103,-28.59819 37.51153,-63.81944 43.08239,-100.0391 2.58541,-24.5556 3.04751,-50.23837 -5.96234,-73.64511 -10.47591,-29.03642 -34.87645,-53.54749 -65.28611,-60.846841 -2.85616,-0.671685 -5.71898,-1.583528 -8.65927,-1.760553 z"
     id="path319" />
  <path
     style="fill:none;fill-rule:evenodd;stroke:#000000;stroke-width:1.16907"
     d="m 109.62725,75.065496 c -0.90143,2.492705 0.34455,5.900345 0.23514,8.648412 -0.14178,2.248966 1.1942,6.831376 -2.16452,7.242382 -8.618626,1.517311 -17.476595,2.913415 -26.215338,2.39604 -2.421365,-4.248595 -1.845252,-9.782498 -3.014649,-14.529381 0.09113,-1.674453 -1.016585,-2.996892 -2.721619,-2.112663 -33.975467,8.728298 -60.036806,38.572734 -68.0899665,72.186264 -8.9783971,37.14516 -2.7807086,76.63247 11.4845365,111.63784 11.403339,27.07779 27.479142,53.25304 51.261068,71.12921 10.234485,7.24602 23.558102,11.38067 35.929738,7.6982 17.52926,-4.2787 30.21067,-18.40561 41.20899,-31.8238 23.67487,-30.40018 37.92555,-67.85273 41.7287,-106.11187 1.16494,-20.33108 1.22749,-41.27313 -5.68085,-60.70853 -8.67452,-26.91851 -29.21713,-50.432105 -55.78632,-60.710986 -5.95775,-1.913483 -11.98761,-3.967651 -18.17491,-4.941118 z"
     id="path321" />
  <path
     style="fill:none;fill-rule:evenodd;stroke:#000000;stroke-width:1.16907"
     d="m 110.63052,76.014506 c -1.69662,0.716144 -0.0653,3.721653 -0.46184,5.165895 -0.0879,3.189318 1.32223,7.563136 -1.28906,10.070119 -9.038916,1.982585 -18.374694,2.564868 -27.622587,2.616711 C 78.43053,88.81196 79.317153,82.537172 77.192089,77.328891 71.265798,77.703323 65.803383,81.00226 60.341431,83.170066 39.124583,93.079869 22.700226,111.93024 13.514354,133.25658 1.1251434,163.96944 2.2070745,198.55536 9.8617785,230.29831 c 7.9934815,31.20148 22.3987705,61.20664 43.8824045,85.38647 10.638693,11.20304 23.314159,22.77263 39.427933,24.24015 17.205544,1.42103 32.635214,-9.29161 43.881914,-21.28365 28.68294,-30.60182 45.69867,-71.11708 51.02874,-112.47251 1.16907,-15.44158 1.69174,-31.11579 -0.4944,-46.49065 -3.84028,-24.01351 -15.116,-47.31438 -33.9449,-63.101329 -11.8974,-10.651946 -26.84825,-17.60203 -42.48599,-20.55505 -0.17524,-0.0062 -0.35151,-0.02182 -0.52696,-0.0072 z"
     id="path323" />
  <path
     style="fill:none;fill-rule:evenodd;stroke:#000000;stroke-width:1.16907"
     d="m 110.52923,76.973163 c -0.3889,4.561049 1.58474,9.913768 -0.9876,14.038597 -3.99205,2.493666 -9.20229,1.904982 -13.709736,2.694858 C 90.782275,94.190443 85.69309,94.131353 80.625162,93.874466 78.720313,88.762628 78.099259,83.151539 76.914741,77.992113 68.170195,79.466678 60.132839,83.793317 52.47562,88.09479 27.26757,103.51161 11.110774,131.10185 6.7606905,160.00484 c -6.10579611,37.54945 2.303457,76.27738 18.1466085,110.44339 11.105923,22.70381 25.576137,44.66049 46.099945,59.88892 9.834502,7.21091 22.594514,11.23782 34.658766,7.85617 17.69616,-4.49646 30.45522,-18.86281 41.54786,-32.47698 21.76335,-28.15124 35.05221,-62.46339 39.91386,-97.59288 2.37133,-24.83872 2.54626,-50.87935 -7.47015,-74.22762 -10.88717,-27.17753 -34.66009,-49.206927 -63.33866,-56.110144 -1.83992,-0.371157 -4.02683,-1.158376 -5.78969,-0.812533 z"
     id="path325" />
  <path
     style="fill:none;fill-rule:evenodd;stroke:#000000;stroke-width:1.16907"
     d="m 110.92354,77.578504 c -0.1566,4.461707 2.13281,10.643957 -1.87751,14.060302 -6.75149,2.701538 -14.377542,2.588708 -21.565563,3.055644 -3.025509,-0.01436 -7.788948,0.570756 -8.320418,-3.566928 -1.28519,-4.007879 -1.479739,-8.548836 -3.091818,-12.341955 -8.719244,1.845665 -16.839578,6.224544 -24.505039,10.704613 -22.615033,14.4957 -38.002351,38.86433 -43.1001755,65.08114 -3.6592123,17.11337 -3.4224641,34.86229 -1.7497,52.20158 5.4851095,37.89715 20.2357205,75.01 44.9459385,104.51532 11.138615,12.7676 24.919251,25.97379 42.706658,27.39106 16.433177,0.84255 30.739677,-9.59634 41.564707,-20.91922 23.83153,-25.14406 39.46962,-57.43655 47.18533,-91.03988 5.06635,-23.72451 6.27811,-48.50682 2.12774,-72.4639 -5.90638,-30.67271 -26.47539,-58.833168 -55.50273,-71.242975 -6.01031,-2.35031 -12.48124,-5.113755 -18.81742,-5.434801 z"
     id="path327" />
  <path
     style="fill:none;fill-rule:evenodd;stroke:#000000;stroke-width:1.16907"
     d="m 111.39865,78.277901 c 0.16991,4.442415 2.02219,10.900004 -2.37313,13.949364 -8.26572,2.598504 -17.192086,3.206493 -25.821024,2.867529 -4.888363,-0.271808 -5.061599,-6.47401 -6.070868,-9.997275 C 76.449117,83.421035 76.764003,80.391116 74.958839,79.54164 56.094683,85.176542 39.062966,96.957811 27.545627,112.9803 14.056319,130.68678 7.6018415,152.80023 6.4705545,174.83098 c -2.2868413,40.38536 9.7833785,80.86867 30.6388195,115.24137 10.443564,16.36999 22.885764,32.38157 39.798977,42.45127 6.722891,3.96451 14.501936,6.02969 22.318373,5.14877 14.484856,-0.65061 26.520416,-10.47826 36.245286,-20.37689 34.5052,-37.15073 53.00457,-88.38994 51.50258,-138.95913 -0.33926,-19.10864 -4.19087,-38.46468 -13.97008,-55.08483 -12.81502,-22.82657 -35.48745,-40.308211 -61.37313,-45.188281 z"
     id="path329" />
  <path
     style="fill:none;fill-rule:evenodd;stroke:#000000;stroke-width:1.16907"
     d="m 112.20778,78.958005 c -0.40818,4.363027 1.73637,11.187371 -3.30646,13.63584 -8.64459,3.03125 -18.233826,3.442681 -27.268056,2.728857 -4.058047,-2.068326 -4.02101,-7.625749 -5.377528,-11.422288 0.0075,-3.796092 -2.101998,-4.339826 -5.275022,-2.414931 -31.60113,10.602893 -54.22308,40.151127 -60.9922875,72.193507 -4.325457,19.5961 -3.505816,40.0003 -0.785014,59.76472 4.8265445,30.6054 17.1166905,59.92654 34.5800095,85.44982 10.636287,14.68765 23.239628,29.3114 40.40264,36.3587 9.518233,3.29312 20.366188,1.95376 29.454278,-2.09216 15.1687,-7.60109 26.29377,-21.1179 36.22008,-34.50347 28.02638,-39.39631 41.12931,-89.36993 35.12042,-137.41344 -3.7097,-31.37619 -23.06898,-60.91449 -51.59217,-75.051214 -6.76279,-2.951076 -14.01206,-6.20682 -21.18089,-7.233941 z"
     id="path331" />
  <path
     style="fill:none;fill-rule:evenodd;stroke:#000000;stroke-width:1.16907"
     d="M 100.67737,2.7345263 C 96.235654,3.1478546 94.994168,8.550448 92.587274,11.538494 82.666211,28.980696 79.892114,49.690332 81.212418,69.47273 c -0.07371,1.347066 0.478646,3.321336 2.162103,2.36107 7.282299,-0.774941 14.835793,-0.348022 21.998459,-1.050307 -1.04505,-17.716496 0.41103,-36.92669 11.47451,-51.560483 3.04632,-3.995778 6.98146,-7.402173 9.74256,-11.568584 -8.12998,-1.9869564 -16.54302,-3.7079049 -24.89011,-4.9126645 -0.34051,-0.023405 -0.68183,-0.019142 -1.02257,-0.00724 z"
     id="path359" />
  <path
     style="fill:#ff0000;fill-rule:evenodd;stroke:#000000;stroke-width:1.16907"
     d="m 112.69013,80.020366 c -0.32701,4.231325 1.35376,10.857842 -3.72249,12.923178 -8.23589,3.334993 -17.401818,3.109852 -26.103195,2.83256 -5.643998,-0.358588 -5.731601,-7.363329 -7.018014,-11.477562 -0.17131,-1.844771 -1.522315,-4.079018 -3.598357,-2.682826 -29.363052,9.532774 -51.366075,35.561114 -59.69026,64.826694 -6.7636435,22.4269 -5.4345615,46.32111 -2.376301,69.24845 6.426569,35.59647 21.803339,69.90087 45.640362,97.25421 9.384647,10.13353 20.388803,20.46023 34.387447,23.2405 10.514548,0.95609 21.411128,-1.299 30.017418,-7.62223 18.02795,-12.79818 30.99835,-31.41676 41.60712,-50.52734 19.42927,-35.66047 27.62435,-77.53316 22.36484,-117.84659 -4.0707,-30.40432 -22.86433,-59.2792 -50.54056,-73.146648 -6.71208,-2.870279 -13.44034,-6.184756 -20.73649,-7.220157 z"
     id="path432" />
  <path
     style="fill:#ff0000;fill-rule:evenodd;stroke:#000000;stroke-width:1.16907"
     d="M 100.70028,3.5725975 C 96.711254,3.7041117 95.693984,8.732269 93.559196,11.312999 84.115457,27.140329 81.2514,46.088423 81.591057,64.271863 c 0.535257,2.94381 -1.156283,8.657222 3.707076,6.833215 6.352944,-0.547442 12.917231,-0.439687 19.148747,-0.805132 -0.36561,-18.276374 1.03437,-38.431166 13.40161,-52.979217 2.30824,-3.155589 5.42178,-5.865629 7.35723,-9.241841 -7.4767,-2.1110714 -15.36018,-3.5430033 -23.12473,-4.5171432 -0.46082,-0.01045 -0.92026,-0.020873 -1.38071,0.010853 z"
     id="path434" />
  <g
     id="stemmed"
     transform="translate(-85.415546,-66.479259)">
    <path
       style="fill:#008000;fill-rule:evenodd;stroke:#000000;stroke-width:1.16907"
       d="m 100.63245,76.405563 c -4.768301,0.389745 -9.951785,-0.05304 -14.454615,1.508528 -0.08983,5.284748 0.75482,10.718461 1.502499,15.888383 1.982997,1.5215 4.989007,-0.369153 7.271313,-0.05356 5.488773,-0.726669 11.246263,-0.987341 16.546793,-2.184512 -0.53474,-4.894613 -0.69933,-9.983226 -1.72076,-14.729553 -3.04386,-0.280475 -6.08472,-0.559073 -9.14523,-0.429286 z"
       id="path361"
       transform="translate(81,63)" />
    <path
       style="fill:#008000;fill-rule:evenodd;stroke:#000000;stroke-width:1.16907"
       d="m 105.7887,7.54867 c -4.84319,0.3255249 -6.19754,6.159686 -8.594148,9.46719 -9.291542,16.548753 -11.234506,36.048775 -10.781575,54.692884 -0.468175,4.730025 5.105563,1.911462 7.916477,2.397201 4.57078,-0.34349 9.336916,-0.322227 13.772086,-1.033372 0.66049,-16.989323 1.24126,-35.43231 11.84755,-49.628285 2.35224,-4.059642 6.64636,-7.097553 8.19863,-11.526795 C 122.57985,9.6327515 116.21657,9.0219078 110.2564,7.8995746 108.77493,7.7187236 107.2848,7.5103719 105.7887,7.54867 Z"
       id="path436"
       transform="translate(81,63)" />
  </g>
  <metadata
     id="metadata193">
    <rdf:RDF>
      <cc:Work
         rdf:about="">
        <dc:creator>
          <cc:Agent>
            <dc:title>vlk2020</dc:title>
          </cc:Agent>
        </dc:creator>
      </cc:Work>
    </rdf:RDF>
  </metadata>
</svg>
