<?xml version="1.0" encoding="UTF-8" standalone="no"?>
<svg
   xmlns:i="&amp;ns_ai;"
   xmlns:dc="http://purl.org/dc/elements/1.1/"
   xmlns:cc="http://creativecommons.org/ns#"
   xmlns:rdf="http://www.w3.org/1999/02/22-rdf-syntax-ns#"
   xmlns:svg="http://www.w3.org/2000/svg"
   xmlns="http://www.w3.org/2000/svg"
   xml:space="preserve"
   enable-background="new 0 0 579.484 657.067"
   viewBox="0 0 193.12115 284.2091"
   height="284.20911"
   width="193.12115"
   y="0px"
   x="0px"
   id="Layer_1"
   version="1.1"><defs
     id="defs7510" /><metadata
     id="metadata7471"><rdf:RDF><cc:Work
         rdf:about=""><dc:format>image/svg+xml</dc:format><dc:type
           rdf:resource="http://purl.org/dc/dcmitype/StillImage" /><dc:title></dc:title><dc:creator><cc:Agent><dc:title>https://de.wikipedia.org/wiki/Benutzer:TUBS</dc:title></cc:Agent></dc:creator></cc:Work></rdf:RDF></metadata><g
     transform="translate(-194.64584,-297.41885)"
     id="g7503"
     i:extraneous="self"><g
       id="g7481"><path
         style="fill:#999999;stroke:#999999;stroke-width:6"
         id="path7477"
         d="m 297.104,336.728 c 5.782,-11.193 20.784,-33.013 33.249,-36.415" /><path
         style="fill:#ff0000;stroke:#999999;stroke-width:3"
         id="path7479"
         d="m 358.503,420.793 c 0.277,10.814 1,21.557 4.924,31.902 5.527,14.621 17.569,26.057 20.456,41.797 2.842,15.533 4.809,44.869 -4.21,56.145 -10.657,13.324 -26.95,20.514 -42.904,25.242 -6.624,1.963 -15.768,5.354 -22.569,3.861 -6.767,-1.486 -10.984,-9.703 -18.597,-10.357 -17.643,-1.488 -21.031,13.613 -41.931,5.256 -23.16,-9.264 -50.235,-30.195 -55.719,-55.322 -5.483,-25.111 1.416,-55.463 22.747,-71.428 14.621,-10.941 22.459,-15.668 26.689,-33.852 4.951,-21.259 1.235,-46.018 12.799,-65.338 12.953,-21.646 45.242,-28.385 66.502,-15.279 22.341,13.765 29.367,43.006 31.146,67.322 0.477,6.667 0.484,13.368 0.667,20.051 z" /></g><path
       style="fill:none;stroke:#999999"
       id="path7501"
       d="m 296.129,432.622 c 15.089,58.771 11.863,110.291 -7.21,115.188" /></g></svg>