<?xml version="1.0" encoding="UTF-8" standalone="no"?>
<svg
   xmlns:dc="http://purl.org/dc/elements/1.1/"
   xmlns:cc="http://creativecommons.org/ns#"
   xmlns:rdf="http://www.w3.org/1999/02/22-rdf-syntax-ns#"
   xmlns:svg="http://www.w3.org/2000/svg"
   xmlns="http://www.w3.org/2000/svg"
   version="1.0"
   id="Layer_1"
   width="242.724"
   height="307.316"
   viewBox="0 0 242.724 307.317"
   overflow="visible"
   enable-background="new 0 0 720 432"
   xml:space="preserve"><metadata
     id="metadata5578"><rdf:RDF><cc:Work
         rdf:about=""><dc:format>image/svg+xml</dc:format><dc:type
           rdf:resource="http://purl.org/dc/dcmitype/StillImage" /><dc:description>This is the Appeal to Heaven flag flown during the American Revolution. Multiple versions of this flag exist given the original was destroyed by the British. The pine tree is a traditional symbol of New England.</dc:description><dc:publisher><cc:Agent><dc:title>Devin Cook (www.devincook.com)</dc:title></cc:Agent></dc:publisher><dc:title></dc:title><dc:contributor><cc:Agent><dc:title>Devin Cook,
IMeowbot at en.wikipedia</dc:title></cc:Agent></dc:contributor><dc:subject><rdf:Bag><rdf:li>Maine</rdf:li><rdf:li>flag</rdf:li><rdf:li>1901</rdf:li></rdf:Bag></dc:subject><dc:creator><cc:Agent><dc:title>https://commons.wikimedia.org/wiki/File:An_Appeal_to_Heaven_Flag.svg</dc:title></cc:Agent></dc:creator></cc:Work></rdf:RDF></metadata><defs
     id="defs5576">
	
	
	
	
	
	
	
	
	
	
	
	
	
	
	
	
	

	
	
	
	
	
	
	
	
	
	
	
	
	
	
	
	
	

	
	
	
	
	
	
	
	
	
	
	
	
	
	
	
	
	
</defs><g
     id="g2252"
     transform="translate(-237.937,-94.3608)"><g
       id="trunked"><path
         style="fill:#ff0000;stroke:#808080;stroke-width:1.6"
         d="m 370.135,321.094 c 0.02,12.726 -0.808,25.219 -0.872,37.777 -0.02,4.45 0.159,9.858 0.9,14.191 0.628,3.674 2.673,7.354 2.726,11.321 2.715,0.409 2.398,4.422 4.891,4.776 5.546,12.735 -7.194,8.593 -13.766,8.566 -4.394,-0.02 -9,1.004 -13.047,0.797 -4.303,-0.217 -7.352,-0.211 -11.824,1.478 1.312,-1.842 3.242,-2.431 4.491,-4.42 2.226,-3.542 1.662,-8.489 2.126,-12.684 0.813,-7.348 0.863,-14.329 0.919,-21.797 0.05,-6.866 1.094,-13.841 1.717,-20.33 0.641,-6.702 0.03,-14.001 0.02,-20.769"
         id="path2202" /></g><g
       transform="matrix(1,0,0,0.981087,-0.85664,9.66434)"
       id="leaved"><path
         id="path2204"
         d="m 352.43,333.737 c -1.13,1.112 -3.63,4.19 -5.69,4.263 -1.162,0.04 -1.357,-1.106 -2.371,-1.204 -2.218,-0.216 -5.061,-0.189 -7.297,-0.121 -5.349,0.161 -10.593,0.274 -15.934,-0.281 -9.296,-0.968 -16.624,-1.212 -25.424,1.448 -3.771,1.14 -7.669,1.433 -11.822,1.091 -4.518,-0.37 -9.457,-0.467 -13.895,-1.322 -3.506,-0.675 -9.193,-2.367 -5.359,-6.113 3.578,-3.493 10.137,-1.441 13.566,-4.294 -10.149,-0.831 -19.752,2.84 -29.583,1.741 -3.817,-0.426 -11.115,-0.593 -7.764,-5.247 2.122,-2.946 6.928,-5.545 7.856,-9.061 2.476,-0.333 4.56,-3.889 6.807,-5.12 2.428,-1.328 5.979,-2.611 8.713,-3.294 1.381,-3.148 -2.287,-4.114 -3.379,-6.456 -1.616,-3.467 2.715,-4.492 3.703,-7.334 0.474,-0.1 0.947,-0.191 1.423,-0.284 0.109,-0.398 0.221,-0.799 0.336,-1.197 1.621,-0.116 3.956,-2.337 5.112,-3.278 1.645,-1.337 5.608,-4.176 6.098,-5.604 -5.501,0.07 -1.341,-4.601 0.362,-5.907 2.783,-2.137 5.298,-3.173 8.257,-4.805 1.791,-0.99 5.472,-3.962 4.693,-6.063 -0.96,-2.593 -5.726,-1.565 -6.93,-4.171 -1.927,-4.169 6.481,-11.051 9.085,-14.43 1.75,-2.273 4.093,-3.876 6.404,-5.688 3.041,-2.387 4.937,-5.57 7.844,-8.022 -5.631,0.469 -10.997,-0.924 -16.303,-0.761 -2.253,-5.593 10.514,-10.796 14.029,-13.746 2.628,-2.206 4.769,-5.317 7.565,-7.63 2.417,-2 5.817,-5.829 8.773,-6.674 -4.718,-0.07 -8.778,2.985 -13.64,2.146 -1.132,-2.921 5.8,-9.455 7.45,-12.105 2.357,-3.781 7.233,-7.888 8.325,-12.262 1.781,-7.126 -5.981,-4.049 -8.575,-8.281 -2.548,-4.155 6.891,-5.916 8.51,-7.862 1.388,-1.665 1.479,-5.496 0.04,-7.134 -1.43,-1.624 -3.48,-1.061 -3.609,-3.419 -0.226,-4.229 6.16,-8.257 7.702,-11.743 1.004,-2.267 -0.302,-4.436 -0.578,-6.603 -0.298,-2.324 0.688,-5.268 1.856,-7.262 0.791,-1.349 2.551,-2.721 3.397,-4.404 0.611,-1.22 1.122,-2.41 1.757,-3.634 1.302,-2.515 2.698,-4.771 3.998,-7.495 1.639,-3.431 6.269,-5.117 8.276,-8.298 1.408,-2.233 0.501,-4.871 1.99,-7.1983 1.122,-1.7479 2.3,-2.7892 2.955,-4.6957 -0.317,-0.1529 -0.476,-0.3995 -0.487,-0.7427 L 357.712,88 c 1.206,1.5316 1.479,4.0136 2.41,5.7384 0.841,1.5575 1.695,3.1093 2.656,4.6207 1.317,2.0749 2.611,4.1089 3.575,6.0569 2.367,4.793 3.835,9.283 6.705,13.91 1.301,2.095 3.002,3.855 4.04,5.883 1.337,2.608 1.352,5.115 2.15,7.815 0.737,2.499 2.386,4.625 3.084,7.039 0.715,2.466 3.856,6.425 3.441,8.778 -1.35,0.04 -2.864,0.02 -4.197,0.261 2.664,4.669 8.997,8.013 12.718,12.063 1.825,1.99 2.122,3.438 3.071,5.512 0.718,1.575 1.95,3.053 1.72,4.788 -0.103,0.78 -0.972,1.479 -1.019,2.529 -0.489,0.08 -0.976,0.163 -1.463,0.25 -0.995,2.538 1.645,5.147 2.923,7.28 1.884,3.141 1.174,2.915 -0.667,5.864 -1.915,3.072 -1.568,5.102 -0.628,8.196 0.525,1.73 0.225,2.486 1.726,4.081 1.051,1.116 2.489,1.755 2.823,3.176 0.472,0.103 0.949,0.193 1.429,0.272 0.46,2.677 5.394,5.723 4.62,8.773 -0.914,3.598 -6.553,2.473 -0.966,6.947 3.951,3.165 14.057,7.874 13.127,13.647 -3.512,0.166 -6.071,1.86 -9.457,1.721 0.429,2.562 5.57,3.973 7.522,5.957 2.776,2.821 5.073,6.705 9.104,8.41 4.566,1.929 18.885,5.96 7.934,10.643 -3.09,1.319 -17.563,0.859 -15.465,5.242 1.753,3.662 8.637,2.44 2.254,6.017 -4.662,2.613 -8.352,2.551 -13.885,3.144 1.644,2.581 7.092,5.954 9.794,6.988 2,0.768 4.707,0.436 6.868,0.955 5.456,1.307 10.041,4.181 15.295,5.896 3.965,1.293 8.111,2.744 11.664,4.319 3.367,1.494 6.694,4.697 10.157,6.066 -4.704,1.965 -14.346,5.313 -20.148,5.128 -2.103,-0.07 -3.035,-0.668 -5.323,-0.48 -3.422,0.281 -5.937,1.379 -9.445,1.125 5.836,2.002 13.83,1.068 18.818,4.416 3.87,2.596 3.855,6.903 9.226,8.539 3.594,1.093 7.34,1.087 11.111,2.002 3.038,0.738 5.754,0.914 8.684,1.524 3.184,0.66 3.36,1.772 4.302,4.13 -1.601,0.905 -3.527,1.218 -5.225,2.019 -2.918,1.382 -4.454,4.121 -7.034,5.432 -3.708,1.883 -10.605,3.576 -14.945,3.097 -6.265,-0.69 -11.135,0.54 -17.554,0.716 -3.874,0.108 -7.383,1.484 -11.259,1.596 2.503,1.914 4.824,3.857 7.638,5.496 2.858,1.666 6.237,2.613 8.712,4.921 -1.688,4.106 -14.869,1.938 -18.662,1.224 -3.422,-0.646 -6.568,-0.637 -10.166,-0.65 -5.632,-0.02 -9.502,-1.021 -14.974,-1.888 -16.607,-2.632 -28.636,-14.861 -46.655,-12.821 -0.03,1.138 0.641,1.683 1.669,2.112 z"
         style="fill:#ffff00;stroke:#808080;stroke-width:2.42302" /><path
         id="path2206"
         d="m 372.244,120.567 c -0.656,-1.591 -5.953,-1.702 -7.847,-2.815 -2.227,-1.314 -4.388,-3.732 -6.702,-0.864 -1.94,2.406 -0.469,5.881 -2.272,8.47 -2.115,3.039 -7.949,2.716 -8.932,-0.904"
         style="fill:none;stroke:#808080;stroke-width:2.42178" /><path
         id="path2208"
         d="m 354.415,134.445 c -0.132,2.295 7.793,9.804 9.859,10.77 2.816,1.321 5.453,-1.826 8.404,-0.777 5.532,1.963 7.922,4.201 12.112,7.555"
         style="fill:none;stroke:#808080;stroke-width:2.42178" /><path
         id="path2210"
         d="m 349.183,141.98 c -1.16,0.514 1.161,-0.527 0,0 -1.982,0.9 -3.654,0.752 -5.679,1.555 -3.997,1.584 -6.587,4.544 -9.229,7.349 -2.839,3.016 -6.115,6.235 -8.186,9.54 0.396,0.163 0.815,0.199 1.252,0.113"
         style="fill:none;stroke:#808080;stroke-width:2.42178" /><path
         id="path2212"
         d="m 351.773,156.095 c -0.311,-0.338 -0.582,-0.695 -0.813,-1.077 -1.503,0.235 -2.359,2.157 -3.519,3.073 -1.83,1.445 -4.479,1.707 -6.278,2.953 -1.421,0.986 -1.863,2.498 -3.021,3.695 -1.084,1.119 -1.477,1.592 -2.35,2.863 -1.51,2.195 -2.826,3.18 -5.412,4.377 -1.956,0.904 -5.543,1.777 -6.914,3.143 -0.116,0.33 0.07,0.465 0.573,0.402"
         style="fill:none;stroke:#808080;stroke-width:2.42178" /><path
         id="path2214"
         d="m 359.038,157.761 c -0.631,1.406 5.786,5.194 7.508,6.328 1.673,1.102 3.598,1.641 5.366,2.584 2.249,1.197 4.167,2.882 6.377,4.16 2.544,1.471 5.361,3.595 8.455,4.137 2.941,0.515 5.011,-0.221 7.95,0"
         style="fill:none;stroke:#808080;stroke-width:2.42178" /><path
         id="path2216"
         d="m 355.736,183.851 c 1.286,4.394 -30.378,20.73 -34.431,20.32"
         style="fill:none;stroke:#808080;stroke-width:2.42178" /><path
         id="path2218"
         d="m 363.659,196.619 c -2.024,3.383 8.024,10.524 10.451,12.169 2.529,1.709 4.937,1.367 7.845,2.186 3.964,1.113 5.654,0.949 9.821,0.668 2.916,-0.198 5.901,0.611 8.81,0.927 2.079,0.225 4.406,0.07 4.675,1.262"
         style="fill:none;stroke:#808080;stroke-width:2.42178" /><path
         id="path2220"
         d="m 384.13,217.159 c 2.069,1.901 5.68,4.735 8.696,6.737 3.304,2.193 7.271,3.522 10.649,5.696 1.983,1.275 4.069,2.611 6.615,3.007 1.729,0.271 0.865,-1.353 1.444,0.602"
         style="fill:none;stroke:#808080;stroke-width:2.42178" /><path
         id="path2222"
         d="m 420.631,263.454 c -0.849,-1.61 -4.321,-4.169 -6.149,-4.9 -5.529,-2.214 -4.522,-3.427 -10.388,-4.051 -7.151,-0.76 -11.236,-4.987 -17.528,-7.215 -4.464,-1.581 -8.469,2.105 -13.273,1.557 -3.64,-0.417 -8.711,-5.888 -6.331,-8.925"
         style="fill:none;stroke:#808080;stroke-width:2.42178" /><path
         id="path2224"
         d="m 295.647,231.039 c 8.764,-0.02 18.739,1.104 27.179,-0.876 5.54,-1.3 11.326,-2.923 17.153,-2.427 3.814,0.325 7.365,1.582 11.085,2.081 5.886,0.789 7.229,-2.113 11.983,-4.4 -0.02,0.209 -0.03,0.416 -0.05,0.625"
         style="fill:none;stroke:#808080;stroke-width:2.42178" /><path
         id="path2226"
         d="m 290.838,265.293 c 1.127,-0.643 4.013,-7.326 6.706,-8.245 4.803,-1.637 9.649,-3.05 14.374,-4.847 0.936,-0.357 1.885,-1.116 3.016,-1.132 5.638,-0.07 0.984,6.918 -0.664,8.858 1.732,0.238 3.803,0.812 5.539,0.695 2.468,-0.166 6.261,-2 8.445,-2.651 3.798,-1.133 7.591,-1.984 11.483,-2.834 0.08,-0.444 0.127,-0.891 0.148,-1.339"
         style="fill:none;stroke:#808080;stroke-width:2.42178" /><path
         id="path2228"
         d="m 264.233,306.221 c 0.431,-1.239 9.31,-5.753 10.423,-6.594 2.179,-1.647 3.699,-2.867 6.418,-3.913 3.944,-1.521 7.476,-3.334 11.284,-5.145 3.373,-1.607 6.474,-4.444 10.418,-5.051 4.445,-0.688 8.776,-0.77 13.259,-1.775 3.707,-0.832 7.275,-2.142 10.984,-2.905 4.836,-0.993 6.551,0.309 10.195,-0.51 7.625,-1.713 14.974,-5.633 20.084,-10.708 1.695,-1.682 2.653,-5.016 5.559,-5.502 -0.754,0.542 -1.587,0.989 -2.5,1.338"
         style="fill:none;stroke:#808080;stroke-width:2.42178" /><path
         id="path2230"
         d="m 278.206,327.203 c 0.526,-0.844 8.302,-5.625 9.738,-6.177 7.946,-3.065 18.05,-6.419 24.053,-11.848 3.038,-2.747 6.469,-4.427 10.131,-6.548 3.961,-2.295 7.579,-6.099 11.938,-7.751 3.211,-1.215 6.989,-0.308 10.377,-0.494 2.194,-0.12 8.903,-0.851 9.973,-2.839"
         style="fill:none;stroke:#808080;stroke-width:2.42178" /><path
         id="path2232"
         d="m 376.206,276.003 c 4.901,-0.07 7.675,1.899 11.938,3.869 8.095,3.74 16.657,7.747 23.631,12.857 3.216,2.358 4.599,5.066 8.524,6.61 3.002,1.178 5.705,2.784 9.198,2.107 -0.154,-0.153 -0.311,-0.306 -0.465,-0.46"
         style="fill:none;stroke:#808080;stroke-width:2.42178" /><path
         id="path2234"
         d="m 423.748,334.848 c -0.953,-0.994 -4.324,-1.763 -6.024,-2.21 -2.8,-0.738 -5.483,-0.943 -7.974,-2.322 -2.451,-1.361 -4.858,-3.265 -7.112,-4.884 -5.021,-3.613 -9.183,-7.962 -14.401,-11.34 -2.452,-1.586 -11.787,-4.374 -9.392,-8.111"
         style="fill:none;stroke:#808080;stroke-width:2.42178" /></g></g></svg>
