<?xml version="1.0" encoding="UTF-8" standalone="no"?>
<svg
   xmlns:dc="http://purl.org/dc/elements/1.1/"
   xmlns:cc="http://creativecommons.org/ns#"
   xmlns:rdf="http://www.w3.org/1999/02/22-rdf-syntax-ns#"
   xmlns:svg="http://www.w3.org/2000/svg"
   xmlns="http://www.w3.org/2000/svg"
   version="1.0"
   width="297.14435"
   height="599.6062"
   id="svg2">
  <metadata
     id="metadata18029">
    <rdf:RDF>
      <cc:Work
         rdf:about="">
        <dc:format>image/svg+xml</dc:format>
        <dc:type
           rdf:resource="http://purl.org/dc/dcmitype/StillImage" />
        <dc:title></dc:title>
        <dc:creator>
          <cc:Agent>
            <dc:title>https://commons.wikimedia.org/wiki/User:Peter17</dc:title>
          </cc:Agent>
        </dc:creator>
      </cc:Work>
    </rdf:RDF>
  </metadata>
  <defs
     id="defs4" />
  <g
     transform="translate(-217.59687,-244.76711)"
     id="leaved">
    <path
       d="m 272.85714,330.21932 c -34.88042,-45.91959 30.92674,-90.75631 62.85715,-66.42857 29.38005,-29.86183 94.20004,-20.73468 98.57142,13.57143 76.0904,-10.4178 111.33063,85.07046 42.85715,76.42857 3.89558,22.42398 -2.07851,39.91313 -28.57143,47.14286 34.0116,34.24214 14.29786,75.51342 -42.85714,64.28571 -17.29081,12.62622 -48.00295,11.12472 -101.42858,-14.28571 -22.55225,41.19678 -83.83465,22.97043 -65,-30.71429 -24.61306,-21.0744 -30.92982,-41.53893 1.42858,-60.71428 -3.10387,-22.71642 4.82411,-35.09049 32.14285,-29.28572 z"
       style="fill:#00ff00;fill-rule:evenodd;stroke:#808080;stroke-width:2;stroke-linecap:butt;stroke-linejoin:miter;stroke-miterlimit:4;stroke-dasharray:none;stroke-opacity:1"
       id="path1884" />
  </g>
  <g
     transform="translate(-217.59687,-244.76711)"
     style="display:inline"
     id="layer2">
    <g
       style="fill:#ffffff;fill-opacity:1;stroke-width:2;stroke-miterlimit:4;stroke-dasharray:none"
       id="trunked">
      <path
         d="m 395.67782,585.29822 0.30198,10.22247 c 7.53405,-5.38748 13.93669,-11.90637 22.60216,-16.16244 5.39314,-1.9855 15.48901,-3.03045 23.23351,-4.54568 1.07088,-2.5926 -24.40446,0.35144 -21.97082,-2.02031 1.42224,-3.37528 3.83865,-7.56396 1.76777,-8.08122 -8.96728,11.34064 -17.46061,14.38653 -25.9346,20.58718 z"
         style="fill:#ff0000;fill-opacity:1;fill-rule:evenodd;stroke:#808080;stroke-width:2;stroke-linecap:butt;stroke-linejoin:miter;stroke-miterlimit:4;stroke-dasharray:none;stroke-opacity:1"
         id="path1890" />
      <path
         d="m 161.125,81.3125 c 8.39582,9.357421 30.06031,49.48135 34.84375,74.125 -7.33173,16.95398 -13.59445,34.96359 -22.125,50.71875 -13.55583,-11.92815 -24.2947,-28.0773 -36.4375,-42.125 -14.36489,-21.61213 -18.42313,-46.98219 -27.5,-66.78125 -1.22207,-1.484438 -2.97603,-1.93186 -4.65625,-2.5 5.24309,15.86136 14.56033,42.58571 12.875,54.28125 -1.07158,0.73966 -3.48527,0.32768 -17.6875,-10.1875 -0.788383,2.4332 -2.00942,4.63666 -3.75,6.59375 l 30,27.875 c 13.71884,15.95238 22.73921,31.20657 30,47.84375 0.92741,2.98869 -0.44148,7.12773 -0.71875,10.71875 C 130.64072,207.1538 93.12974,199.19802 68.125,174.75 c -0.0043,3.60711 0.47847,3.64213 1.3125,5.21875 5.960008,11.26653 72.9749,41.3365 86.53125,62.625 L 157.40625,354.75 144.5625,344.53125 c -0.15756,-0.41963 -4.37331,1.71292 -2.53125,3.375 2.95837,2.66934 10.21272,10.10211 13.9375,13.96875 l -1.89183,236.46157 27.14183,0.25718 c 0,0 -0.32678,-217.28079 -2.71875,-314.5 5.91867,-6.37516 31.54288,-25.82395 40.3125,-30.46875 8.12709,-4.30448 2.73289,-2.68071 2.15625,-4.71875 -14.04762,7.58027 -28.07738,14.82707 -42.125,25 0.2381,-17.57695 -0.56191,-35.17304 0.6875,-52.75 6.72693,-21.08024 20.0506,-50.80655 29.8125,-73.1875 -1.91897,3.51811 19.12031,13.41582 15.90625,10.34375 -1.83478,-0.33469 -17.36578,-15.8622 -16.4375,-17.71875 13.35752,-13.47559 22.69263,-32.67442 39.3125,-33.71875 l -3.25,-1.75 c -15.45936,-2.45521 -37.97405,35.65991 -40.78125,32.53125 0.28509,-9.92464 0.1067,-18.83104 -1.96875,-23.5625 -0.85752,10.28715 -2.79341,17.89803 -4.5625,25.90625 -5.63768,-14.05036 -22.44573,-45.49031 -28.75,-55.5 -1.42941,-2.269562 -6.61106,-2.496978 -7.6875,-3.1875 z"
         transform="translate(217.59658,244.77003)"
         style="fill:#ff0000;fill-opacity:1;fill-rule:evenodd;stroke:#808080;stroke-width:2;stroke-linecap:butt;stroke-linejoin:miter;stroke-miterlimit:4;stroke-dasharray:none;stroke-opacity:1"
         id="path1886" />
      <path
         d="m 374.13525,535.79543 -0.12627,-10.10153 c -11.21356,-6.02355 -33.16845,-14.29694 -34.47145,-17.67767 -4.09239,-3.51916 -9.42809,-19.65589 -15.5311,-23.61232 4.84144,9.74903 8.26779,18.1773 8.08122,23.23351 l -24.87501,-6.81853 c -0.44626,0.58926 -0.80064,1.17851 -1.89403,1.76777 11.87055,3.28174 21.65058,8.654 32.32488,13.13198 11.17019,5.03605 24.32632,13.38199 36.49176,20.07679 z"
         style="fill:#ff0000;fill-opacity:1;fill-rule:evenodd;stroke:#808080;stroke-width:2;stroke-linecap:butt;stroke-linejoin:miter;stroke-miterlimit:4;stroke-dasharray:none;stroke-opacity:1"
         id="path1888" />
    </g>
  </g>
</svg>
