<?xml version="1.0" encoding="UTF-8" standalone="no"?>
<svg
   xmlns:dc="http://purl.org/dc/elements/1.1/"
   xmlns:cc="http://creativecommons.org/ns#"
   xmlns:rdf="http://www.w3.org/1999/02/22-rdf-syntax-ns#"
   xmlns:svg="http://www.w3.org/2000/svg"
   xmlns="http://www.w3.org/2000/svg"
   id="svg2"
   height="250"
   width="210"
   version="1.0">
  <metadata
     id="metadata32973">
    <rdf:RDF>
      <cc:Work
         rdf:about="">
        <dc:format>image/svg+xml</dc:format>
        <dc:type
           rdf:resource="http://purl.org/dc/dcmitype/StillImage" />
        <dc:title></dc:title>
        <dc:creator>
          <cc:Agent>
            <dc:title>Bruno Vallette</dc:title>
          </cc:Agent>
        </dc:creator>
      </cc:Work>
    </rdf:RDF>
  </metadata>
  <defs
     id="defs4" />
  <g
     id="layer1">
    <g
       id="g10963"
       transform="translate(-226.1081,-212.891)">
      <path
         id="path2791"
         style="fill:red;fill-opacity:1;fill-rule:evenodd;stroke:black;stroke-width:2;stroke-linecap:butt;stroke-linejoin:miter;stroke-miterlimit:4;stroke-dasharray:none;stroke-opacity:1"
         d="M 337.05344,245.24768 C 306.39346,276.0208 306.34602,328.57116 337.05344,359.61409 C 367.25988,328.61666 368.00952,274.86927 337.05344,245.24768 z " />
      <g
         id="fructed">
        <path
           id="path10902"
           style="fill:#ff0000;fill-opacity:1;fill-rule:evenodd;stroke:#808080;stroke-width:1;stroke-miterlimit:4;stroke-dasharray:none;stroke-opacity:1"
           transform="translate(11.4045,-24.94891)"
           d="M 345.61831 284.29349 A 9.320611 9.320611 0 1 1  326.97709,284.29349 A 9.320611 9.320611 0 1 1  345.61831 284.29349 z" />
        <path
           id="path10868"
           style="fill:#ff0000;fill-opacity:1;fill-rule:evenodd;stroke:#808080;stroke-width:1;stroke-miterlimit:4;stroke-dasharray:none;stroke-opacity:1"
           transform="translate(-4.983078,-28.51135)"
           d="M 345.61831 284.29349 A 9.320611 9.320611 0 1 1  326.97709,284.29349 A 9.320611 9.320611 0 1 1  345.61831 284.29349 z" />
        <path
           id="path3698"
           style="fill:#ff0000;fill-opacity:1;fill-rule:evenodd;stroke:#808080;stroke-width:1;stroke-miterlimit:4;stroke-dasharray:none;stroke-opacity:1"
           transform="translate(-11.54457,-12.44522)"
           d="M 345.61831 284.29349 A 9.320611 9.320611 0 1 1  326.97709,284.29349 A 9.320611 9.320611 0 1 1  345.61831 284.29349 z" />
        <path
           id="path3708"
           style="fill:#ff0000;fill-opacity:1;fill-rule:evenodd;stroke:#808080;stroke-width:1;stroke-miterlimit:4;stroke-dasharray:none;stroke-opacity:1"
           transform="translate(16.37404,-7.809172)"
           d="M 345.61831 284.29349 A 9.320611 9.320611 0 1 1  326.97709,284.29349 A 9.320611 9.320611 0 1 1  345.61831 284.29349 z" />
        <path
           id="path3688"
           style="fill:#ff0000;fill-opacity:1;fill-rule:evenodd;stroke:#808080;stroke-width:1;stroke-miterlimit:4;stroke-dasharray:none;stroke-opacity:1"
           transform="translate(2.519084,-18.64122)"
           d="M 345.61831 284.29349 A 9.320611 9.320611 0 1 1  326.97709,284.29349 A 9.320611 9.320611 0 1 1  345.61831 284.29349 z" />
        <path
           id="path3706"
           style="fill:#ff0000;fill-opacity:1;fill-rule:evenodd;stroke:#808080;stroke-width:1;stroke-miterlimit:4;stroke-dasharray:none;stroke-opacity:1"
           transform="translate(16.87791,8.816789)"
           d="M 345.61831 284.29349 A 9.320611 9.320611 0 1 1  326.97709,284.29349 A 9.320611 9.320611 0 1 1  345.61831 284.29349 z" />
        <path
           id="path3690"
           style="fill:#ff0000;fill-opacity:1;fill-rule:evenodd;stroke:#808080;stroke-width:1;stroke-miterlimit:4;stroke-dasharray:none;stroke-opacity:1"
           transform="translate(2.519084,1.374046e-6)"
           d="M 345.61831 284.29349 A 9.320611 9.320611 0 1 1  326.97709,284.29349 A 9.320611 9.320611 0 1 1  345.61831 284.29349 z" />
        <path
           id="path3692"
           style="fill:#ff0000;fill-opacity:1;fill-rule:evenodd;stroke:#808080;stroke-width:1;stroke-miterlimit:4;stroke-dasharray:none;stroke-opacity:1"
           transform="translate(0.755686,17.88549)"
           d="M 345.61831 284.29349 A 9.320611 9.320611 0 1 1  326.97709,284.29349 A 9.320611 9.320611 0 1 1  345.61831 284.29349 z" />
        <path
           id="path3694"
           style="fill:#ff0000;fill-opacity:1;fill-rule:evenodd;stroke:#808080;stroke-width:1;stroke-miterlimit:4;stroke-dasharray:none;stroke-opacity:1"
           transform="translate(-0.755747,36.52671)"
           d="M 345.61831 284.29349 A 9.320611 9.320611 0 1 1  326.97709,284.29349 A 9.320611 9.320611 0 1 1  345.61831 284.29349 z" />
        <path
           id="path3710"
           style="fill:#ff0000;fill-opacity:1;fill-rule:evenodd;stroke:#808080;stroke-width:1;stroke-miterlimit:4;stroke-dasharray:none;stroke-opacity:1"
           transform="translate(16.87789,26.95419)"
           d="M 345.61831 284.29349 A 9.320611 9.320611 0 1 1  326.97709,284.29349 A 9.320611 9.320611 0 1 1  345.61831 284.29349 z" />
        <path
           id="path10904"
           style="fill:#ff0000;fill-opacity:1;fill-rule:evenodd;stroke:#808080;stroke-width:1;stroke-miterlimit:4;stroke-dasharray:none;stroke-opacity:1"
           transform="translate(-12.98305,61.67677)"
           d="M 345.61831 284.29349 A 9.320611 9.320611 0 1 1  326.97709,284.29349 A 9.320611 9.320611 0 1 1  345.61831 284.29349 z" />
        <path
           id="path10866"
           style="fill:#ff0000;fill-opacity:1;fill-rule:evenodd;stroke:#808080;stroke-width:1;stroke-miterlimit:4;stroke-dasharray:none;stroke-opacity:1"
           transform="translate(9.979512,62.6892)"
           d="M 345.61831 284.29349 A 9.320611 9.320611 0 1 1  326.97709,284.29349 A 9.320611 9.320611 0 1 1  345.61831 284.29349 z" />
        <path
           id="path3712"
           style="fill:#ff0000;fill-opacity:1;fill-rule:evenodd;stroke:#808080;stroke-width:1;stroke-miterlimit:4;stroke-dasharray:none;stroke-opacity:1"
           transform="translate(15.87021,45.59541)"
           d="M 345.61831 284.29349 A 9.320611 9.320611 0 1 1  326.97709,284.29349 A 9.320611 9.320611 0 1 1  345.61831 284.29349 z" />
        <path
           id="path3700"
           style="fill:#ff0000;fill-opacity:1;fill-rule:evenodd;stroke:#808080;stroke-width:1;stroke-miterlimit:4;stroke-dasharray:none;stroke-opacity:1"
           transform="translate(-15.36638,5.793881)"
           d="M 345.61831 284.29349 A 9.320611 9.320611 0 1 1  326.97709,284.29349 A 9.320611 9.320611 0 1 1  345.61831 284.29349 z" />
        <path
           id="path3702"
           style="fill:#ff0000;fill-opacity:1;fill-rule:evenodd;stroke:#808080;stroke-width:1;stroke-miterlimit:4;stroke-dasharray:none;stroke-opacity:1"
           transform="translate(-16.37407,24.93893)"
           d="M 345.61831 284.29349 A 9.320611 9.320611 0 1 1  326.97709,284.29349 A 9.320611 9.320611 0 1 1  345.61831 284.29349 z" />
        <path
           id="path3704"
           style="fill:#ff0000;fill-opacity:1;fill-rule:evenodd;stroke:#808080;stroke-width:1;stroke-miterlimit:4;stroke-dasharray:none;stroke-opacity:1"
           transform="translate(-18.8931,43.58014)"
           d="M 345.61831 284.29349 A 9.320611 9.320611 0 1 1  326.97709,284.29349 A 9.320611 9.320611 0 1 1  345.61831 284.29349 z" />
        <path
           id="path3696"
           style="fill:#ff0000;fill-opacity:1;fill-rule:evenodd;stroke:#808080;stroke-width:1;stroke-miterlimit:4;stroke-dasharray:none;stroke-opacity:1"
           transform="translate(-2.770965,54.1603)"
           d="M 345.61831 284.29349 A 9.320611 9.320611 0 1 1  326.97709,284.29349 A 9.320611 9.320611 0 1 1  345.61831 284.29349 z" />
      </g>
      <g
         id="body">
        <path
           d="M 339.5625,215.53125 C 332.76445,220.62049 326.18991,225.75163 325.96875,232.15625 C 323.56738,228.22923 316.45836,223.25957 303.3125,228.125 C 307.8859,233.64978 312.58217,237.48791 317.03125,246.5 C 293.24799,254.62868 276.12499,277.16368 276.125,303.6875 C 276.125,337.04643 303.20357,364.12501 336.5625,364.125 C 369.92143,364.125 396.96876,337.04643 396.96875,303.6875 C 396.96875,278.09444 381.03887,256.21411 358.5625,247.40625 C 362.612,241.15313 368.57789,236.53977 375.34375,232.65625 C 368.43984,228.60619 360.73676,227.3382 351.15625,232.65625 C 351.98744,225.38173 346.74159,220.13568 339.5625,215.53125 z M 336.8125,245.5 C 336.9902,245.50424 337.16582,245.49458 337.34375,245.5 C 368.02479,275.17524 367.18072,328.71808 337.0625,359.625 C 306.43848,328.66639 306.40164,276.30724 336.8125,245.5 z "
           style="opacity:1;fill:#ffff00;fill-opacity:1;fill-rule:evenodd;stroke:#808080;stroke-width:1;stroke-miterlimit:4;stroke-dasharray:none;stroke-opacity:1"
           id="path1900" />
      </g>
      <g
         id="leaved">
        <path
           d="M 228.22901,319.30875 C 231.02781,389.39408 258.51543,419.84736 312.36641,407.9805 C 314.10152,391.93135 310.01301,375.12259 281.12977,355.07974 C 273.77227,351.75871 267.47189,348.70196 262.05593,345.86632 C 240.00097,334.31897 232.6124,326.43821 228.22901,319.30875 z "
           style="fill:#00ff00;fill-opacity:1;fill-rule:evenodd;stroke:#808080;stroke-width:1;stroke-linecap:butt;stroke-linejoin:miter;stroke-miterlimit:4;stroke-dasharray:none;stroke-opacity:1"
           id="path8194" />
        <path
           d="M 351.16031,405.96524 C 349.31136,391.85864 350.2965,378.11938 374.33588,360.11791 C 386.7419,351.44947 398.54026,344.60398 409.60305,339.96524 C 422.66778,332.9118 429.07926,325.85837 432.77863,318.80493 C 443.01104,412.92988 354.73899,421.08481 351.16031,405.96524 z "
           style="opacity:1;fill:#00ff00;fill-opacity:1;fill-rule:evenodd;stroke:#808080;stroke-width:1;stroke-linecap:butt;stroke-linejoin:miter;stroke-miterlimit:4;stroke-dasharray:none;stroke-opacity:1"
           id="path9081" />
        <path
           d="M 327.48092,363.64463 C 329.92465,389.13835 327.29338,401.09871 325.96947,416.54539 C 304.35299,393.0044 290.86775,387.35215 275.58779,377.7515 C 260.61611,368.96153 251.16369,357.96389 242.83969,346.51485 C 251.95758,362.42646 266.24629,374.84279 279.1145,383.29348 L 296.24427,397.40035 C 317.38572,415.00231 332.0151,433.98563 309.34351,460.88127 C 322.61196,458.92622 334.84662,453.52522 344.10687,438.20951 C 330.05302,420.9118 364.08262,402.10264 379.37405,386.8202 C 392.60589,377.82217 407.62578,363.73657 426.22901,343.99577 C 411.4107,357.97745 397.06695,372.11732 378.36641,384.80493 C 367.47459,392.51559 357.8782,399.449 340.58015,411.0034 C 344.58929,395.21714 343.88182,379.43089 342.59542,363.64463 L 327.48092,363.64463 z "
           style="opacity:1;fill:#00ff00;fill-opacity:1;fill-rule:evenodd;stroke:#808080;stroke-width:1;stroke-linecap:butt;stroke-linejoin:miter;stroke-miterlimit:4;stroke-dasharray:none;stroke-opacity:1"
           id="path6419" />
      </g>
    </g>
  </g>
</svg>
