<?xml version="1.0" encoding="UTF-8" standalone="no"?>
<!DOCTYPE svg PUBLIC "-//W3C//DTD SVG 1.1//EN" "http://www.w3.org/Graphics/SVG/1.1/DTD/svg11.dtd">
<svg xmlns:dc="http://purl.org/dc/elements/1.1/" xmlns:xl="http://www.w3.org/1999/xlink" version="1.1" xmlns="http://www.w3.org/2000/svg" viewBox="33.75 62.33333 297 261" width="297" height="261">
  <defs>
    <clipPath id="artboard_clip_path">
      <path d="M 33.75 62.33333 L 330.75 62.33333 L 330.75 323.33333 L 33.75 323.33333 Z"/>
    </clipPath>
  </defs>
  <metadata> Produced by OmniGraffle 7.8 
    <dc:date>2018-07-22 17:54:47 +0000</dc:date><dc:title>Traceable heraldic art http://heraldicart.org/credits.html</dc:title>
  </metadata>
  <g id="Strawberry_Leaves,_3_(2)" fill-opacity="1" stroke-dasharray="none" stroke="none" stroke-opacity="1" fill="#ffff00">
    <title>Strawberry Leaves, 3 (2)</title>
    <g id="Strawberry_Leaves,_3_(2): Layer 2" >
      <title>Layer 2</title>
      <g id="Group_3">
        <g id="Graphic_43">
          <path d="M 216.3814 162.33606 C 217.1025 161.38298 218.42752 159.90493 219.189 158.9983 C 220.66553 157.22544 219.82965 156.07622 217.6727 156.97253 C 215.86917 157.80629 216.3237 156.92183 219.36752 153.94964 C 221.99326 151.34089 222.94269 149.61842 225.89237 141.75302 C 226.31259 140.73527 226.1046 140.58983 223.8347 140.60563 L 221.31037 140.51637 L 222.71827 138.47692 C 223.45152 137.35017 224.22515 136.26987 224.45743 136.06796 C 224.6897 135.86605 225.2514 134.07284 225.69195 132.14027 C 226.17896 130.16732 226.7871 128.33373 227.06584 128.09143 C 227.57684 127.64723 223.8711 127.60625 221.74451 128.06838 C 220.6378 128.2964 220.74286 128.04196 222.1204 126.4367 C 223.07377 125.2817 223.87382 123.19975 224.2336 121.17427 C 224.5348 119.36285 225.00359 117.6504 225.2823 117.40811 C 225.51458 117.2062 224.56545 117.05257 223.03063 117.1634 L 220.36086 117.28212 L 221.10838 115.32738 C 221.6801 114.01481 221.59356 112.13265 220.97598 109.73341 C 220.46133 107.73404 219.97492 105.9548 219.85377 105.81544 C 219.73263 105.67608 217.88052 107.20453 215.6911 109.18933 C 213.4552 111.21451 211.92828 112.46029 212.1384 111.95141 C 214.21304 107.86432 216.63534 101.92541 216.24154 101.94151 C 215.94065 101.87684 215.54714 100.01683 215.35768 97.73479 C 215.21466 95.41237 214.8676 93.51199 214.6071 93.49377 C 214.38697 93.52201 212.1936 94.93933 209.84264 96.73832 L 205.47197 99.96677 L 206.56713 96.16023 C 207.30463 93.72485 207.47678 90.63912 207.1622 87.65024 L 206.65605 83.03363 L 202.3358 86.78917 C 198.67197 89.89253 198.03375 90.28421 198.41965 89.13317 C 199.68241 85.4256 199.84242 82.51354 199.11796 79.14696 C 198.64976 77.10721 198.13299 75.76215 197.92895 76.18419 C 197.68454 76.55978 196.8605 77.11298 196.09507 77.45213 C 194.9762 77.85383 194.63494 77.74271 194.60882 76.86827 C 194.60487 76.300795 194.02555 74.60232 193.34725 73.07145 L 192.14003 70.369195 L 190.09604 72.14601 L 188.00559 73.96321 L 187.85043 71.81446 C 187.7053 70.14635 187.21068 69.10826 185.5368 67.46414 C 183.62062 65.54129 183.3258 65.38978 182.51785 66.33679 C 181.47157 67.572545 180.888 67.18269 180.963 65.48634 C 180.98333 64.57152 180.80359 64.646215 179.93704 65.80728 C 179.01798 67.09556 178.79785 67.1238 178.12957 66.07356 C 177.4209 64.97687 177.10787 65.085875 175.12855 66.5618 C 173.37542 67.92265 172.74115 68.8818 172.15517 71.02236 L 171.43984 73.764695 L 169.60654 71.280446 L 167.7268 68.83658 L 166.57546 70.32677 C 164.84845 72.56206 164.03019 74.90452 164.06208 77.56822 L 164.11218 79.97141 L 161.56598 77.69909 C 160.25553 76.47306 158.96725 75.55399 158.87434 75.63476 C 158.73498 75.75591 158.26224 76.900875 157.69052 78.21345 C 156.53493 81.01226 156.5064 82.66823 157.38631 86.30747 L 158.02606 89.01367 L 156.56623 87.42815 C 155.79897 86.54551 154.10686 85.1619 152.8125 84.32967 L 150.47217 82.8571 L 150.54626 86.78904 C 150.5982 90.41401 152.04134 95.35792 153.57586 97.12319 C 154.66618 98.37746 153.52121 97.90472 151.1587 96.12518 C 149.9108 95.25257 148.1258 93.94973 147.2131 93.27507 L 145.46847 92.01868 L 144.94078 95.82128 C 144.62532 98.46069 144.82086 100.65589 145.63033 102.80676 L 146.84757 105.98965 L 143.79644 104.0747 C 142.1265 102.99806 140.54948 101.84065 140.2668 101.51547 C 139.33801 100.44701 139.12064 108.54711 140.01695 110.70405 L 140.83249 112.76809 L 139.25941 112.17815 C 138.40926 111.85692 137.36327 111.21658 136.913 110.79242 C 136.26688 110.04915 136.07499 110.29751 135.5051 112.83187 C 134.71902 115.96194 135.09431 118.08245 136.62883 119.84772 C 137.92106 121.33426 137.64841 121.48971 134.74242 121.24288 L 132.27061 121.0264 L 132.56301 123.70831 C 132.99053 127.5777 133.95545 130.00123 136.20471 132.77635 C 138.00977 135.04047 138.04408 135.17376 136.7476 134.99584 C 135.49758 134.77754 131.67464 135.16468 131.25655 135.52812 C 131.2101 135.5685 131.44025 136.0209 131.75723 136.47937 C 132.1146 136.9843 133.45723 138.99793 134.75341 141.05194 C 136.00921 143.0595 137.95758 145.76995 139.08828 147.07068 C 140.98017 149.34087 141.02055 149.38733 139.36064 148.79132 C 138.4701 148.42363 136.90097 148.40117 135.92148 148.68172 L 134.18263 149.21459 L 138.34412 153.34508 C 140.58335 155.63956 143.57164 159.07719 145.00718 161.01006 C 147.19177 164.08607 147.45623 164.67176 146.5575 165.04522 C 145.74561 165.42476 145.81423 165.69134 147.0096 166.69117 C 147.789 167.40013 151.97054 172.4919 156.29539 178.03 C 162.4939 186.0988 170.17047 195.4926 180.92216 208.33012 C 181.68942 209.21275 180.2879 209.28927 178.29885 208.40846 C 176.3098 207.52765 175.98674 207.15602 174.49685 204.12858 C 172.3165 199.74395 163.14319 189.92177 159.96228 186.66834 C 154.6384 181.28504 141.37312 167.43142 138.94441 162.8549 C 138.2479 161.58454 136.86488 159.52445 135.77456 158.27018 L 133.83621 156.04037 L 133.0887 157.9951 C 132.66848 159.01286 132.43804 160.43655 132.5692 161.05655 C 132.76292 162.02997 132.4681 161.87846 131.44852 160.23647 C 129.86967 157.85727 126.57654 153.7875 123.88096 151.15569 L 122.092 149.28537 L 121.48384 151.11896 C 121.19692 152.1024 120.9604 153.61293 120.99259 154.40053 C 120.98834 155.70916 120.78036 155.56372 118.46643 153.0895 C 116.31403 150.80108 113.67279 149.26384 110.16714 148.23335 C 109.6522 148.11008 109.34858 152.45191 109.82497 153.75051 C 110.1116 154.64317 109.48765 154.20686 107.74514 152.29616 C 106.41253 150.76316 103.55936 148.51301 101.50777 147.27878 L 97.6994 144.96184 L 96.978 147.79101 C 96.44453 149.80435 96.14759 150.30715 95.89528 149.54779 C 95.3785 148.20273 92.29094 146.8088 88.40758 146.1882 L 85.08563 145.6505 L 85.7111 149.18468 L 86.29013 152.75925 L 84.59195 151.46248 C 82.102225 149.63042 80.0142 148.91721 75.25033 148.40956 L 71.00748 147.93835 L 72.07928 151.32923 C 72.65253 153.11454 73.75682 155.41692 74.52408 156.29955 C 75.24489 157.22257 75.46897 157.7618 75.053 157.47093 C 70.40663 154.65908 69.08191 154.26104 64.628956 154.2987 L 59.91549 154.31815 L 61.508314 157.74545 L 63.054685 161.21314 L 59.95893 160.56036 C 58.280794 160.22486 55.148604 160.0931 52.999854 160.24826 L 49.096155 160.54248 L 50.75365 163.6689 L 52.41722 166.70848 L 50.19985 166.59706 C 48.93768 166.55243 46.68995 166.87519 45.18337 167.20614 L 42.42464 167.9731 L 43.876275 170.29978 C 44.746467 171.58228 45.71564 172.69719 46.097296 172.85477 C 47.167573 173.14776 46.44252 173.53337 44.61288 173.49269 C 43.73844 173.5188 41.605783 174.06776 39.988074 174.74 C 36.978856 175.96938 36.978856 175.96938 37.82081 177.03176 C 38.25894 177.6296 38.905058 178.37286 39.193805 178.6112 C 39.93283 179.27371 39.22994 179.96628 37.456775 180.36586 C 35.95019 180.69681 36.220723 181.19567 38.54497 182.27444 C 40.5744 183.2017 40.438986 183.89032 37.999365 184.46145 L 36 184.9761 L 37.29618 187.03011 C 39.0648 189.81525 42.113806 192.38452 44.797546 193.3139 C 46.925956 194.07356 47.224725 194.79254 45.31432 194.65896 C 44.7933 194.62252 43.541154 195.05853 42.503063 195.55314 C 41.4589 196.13458 40.15423 196.6978 39.661446 196.8815 C 38.76879 197.16813 39.045394 197.58015 41.33716 199.7474 C 43.54816 201.82177 44.60022 202.37527 46.678226 202.60784 C 48.19483 202.75752 48.964216 202.98585 48.477506 203.0827 C 47.990797 203.17956 46.64969 204.2638 45.55695 205.53995 L 43.516905 207.88424 L 45.35657 208.40555 C 46.426845 208.69855 48.64209 209.46428 50.24948 210.1875 C 51.862944 210.8239 54.36299 211.2605 55.810974 211.1436 L 58.40605 210.84513 L 54.83908 214.4352 C 52.910163 216.43822 51.25997 218.19894 51.28821 218.41907 C 51.2457 219.02693 55.351015 220.84107 58.69514 221.68574 C 60.70847 222.2192 63.1985 222.17517 65.81179 221.6162 L 69.757995 220.7141 L 68.079564 222.2547 C 67.15048 223.06235 65.49421 224.9099 64.43578 226.31934 C 62.22601 229.21896 62.42185 229.53807 67.74895 231.35038 C 70.60029 232.37875 77.109085 232.2667 78.45019 231.18244 C 79.5065 230.42733 75.03626 237.57557 73.82844 238.6255 L 72.80645 239.51392 L 75.24182 240.2514 C 81.77249 242.3224 86.15682 242.01817 93.43348 239.03655 L 96.71535 237.6517 L 94.3905 240.32513 C 93.06549 241.80318 91.65759 243.84263 91.27776 244.90683 C 90.81109 245.96497 90.16468 247.0978 89.74659 247.46123 C 88.86396 248.2285 89.10625 248.50722 91.01666 248.6408 C 91.83857 248.7419 93.91658 248.97448 95.5604 249.1767 C 99.0621 249.6397 105.08844 248.3159 106.06003 246.9004 C 106.44988 246.31682 106.95481 245.95945 107.29608 246.07058 C 107.55052 246.17563 107.14245 247.0197 106.32844 248.05355 C 105.33468 249.1621 104.73867 250.822 104.65761 252.6052 L 104.50368 255.43042 L 107.82169 255.40065 C 111.40628 255.30226 116.3684 253.5986 118.73151 251.62596 C 119.52123 250.93946 120.38565 250.4327 120.69261 250.41054 C 120.95312 250.42876 120.94068 252.47853 120.63737 254.94426 L 120.10149 259.488 L 123.53274 258.46265 C 127.72336 257.185 131.999 254.6916 135.54775 251.36205 L 138.29463 248.89266 L 138.02958 252.05917 C 137.86775 253.74944 138.15013 255.95072 138.65688 256.81514 C 139.16363 257.67955 139.68648 258.93777 139.81765 259.55777 C 140.05174 260.57765 140.37085 260.3818 143.39039 257.75696 C 146.60182 254.88376 148.2763 252.7757 149.18747 250.35246 C 149.45617 249.62952 149.92679 249.13887 150.1873 249.15708 C 150.53465 249.18137 150.58505 249.70846 150.32242 250.34456 C 150.14662 250.98672 150.1363 252.38218 150.41078 253.4485 L 150.87898 255.48826 L 153.06233 253.5903 C 155.98896 251.04622 163.51517 240.7521 165.70095 236.32374 C 166.6686 234.34076 168.03611 232.25486 168.81977 231.6552 C 169.9286 230.77286 171.97501 226.46564 176.60343 215.18354 C 177.61358 212.59271 178.43761 212.0395 179.44717 213.20087 C 180.17405 214.03705 181.21672 222.83608 181.3309 228.69057 C 181.3467 230.96046 181.45723 234.37138 181.49732 236.29393 C 181.5374 238.21648 181.61545 242.7159 181.67345 246.25403 C 181.73145 249.79216 181.88755 258.791 182.10648 266.26713 C 182.23859 273.7372 182.44083 284.57174 182.56109 290.3394 C 182.68741 296.0202 182.61123 305.22093 182.4892 310.70986 C 182.1443 320.63352 182.1443 320.63352 183.88104 320.75496 C 185.48448 320.9107 185.62385 320.78957 186.08657 319.16396 C 187.06453 315.78553 187.00283 297.32547 185.95158 266.18696 C 185.2383 243.31827 184.8256 222.39035 185.00807 217.90915 C 185.09125 215.47166 185.59435 213.8925 186.38408 213.206 C 187.03444 212.64066 187.66658 212.33581 187.82811 212.52163 C 187.94926 212.661 188.51431 215.18745 189.09546 218.1077 C 189.6766 221.02797 190.7806 225.20645 191.584 227.44416 C 194.8662 236.66158 202.5841 252.95192 203.37381 252.26542 C 203.88481 251.8212 204.73343 249.04457 204.97208 246.87972 C 205.24503 244.84817 205.344 244.68057 205.70533 245.75297 C 207.15666 249.95573 214.31434 258.6588 217.80572 260.51728 C 219.11222 261.17583 220.661 262.11312 221.28496 262.54942 C 222.36526 263.32306 222.4703 263.06862 222.70318 259.11452 L 222.96033 254.81307 L 224.1718 256.2067 C 225.989 258.29715 230.36484 260.61015 233.8887 261.38013 C 235.60723 261.76208 237.11776 261.9986 237.2975 261.9239 C 237.94787 261.35856 236.70663 256.6469 235.255 254.32024 L 233.56107 251.71485 L 236.50714 253.88424 C 240.62035 256.83333 245.09518 258.97872 249.22083 259.87805 L 252.79115 260.60764 L 252.44623 258.05295 C 252.32933 256.60496 251.9076 254.52483 251.5059 253.40598 C 251.15672 252.1599 251.1467 251.67927 251.63735 252.14988 C 252.48538 253.12543 256.516 254.75982 258.80806 255.051 C 260.4519 255.2532 268.17245 254.65868 268.59054 254.29524 C 268.68344 254.21448 268.44115 253.93575 268.0191 253.7317 C 267.64353 253.4873 266.87232 252.0372 266.37376 250.43163 C 265.96204 248.83213 264.8456 246.70343 264.00365 245.64105 L 262.43482 243.7425 L 264.73478 245.1686 C 267.83236 247.04317 272.93538 248.31625 276.44528 248.03812 C 277.9801 247.9273 279.7229 247.9619 280.1914 248.12555 C 281.56257 248.48322 281.07068 243.03863 279.50397 240.48576 L 278.335 238.48427 L 281.5498 239.93072 C 283.32478 240.75293 286.45485 241.539 288.4521 241.67867 L 292.09316 242.02054 L 291.4434 238.8337 L 290.88046 235.65293 L 293.5481 236.1885 C 295.1394 236.51794 297.8617 236.272 300.39423 235.6201 C 302.66625 234.95 304.6717 234.3485 304.81105 234.22737 C 304.90396 234.1466 303.01814 231.78957 300.54875 229.0427 C 296.26217 224.20536 296.1471 223.97916 297.96854 224.76098 C 299.03274 225.14082 301.10468 225.46022 302.67988 225.39585 C 305.61016 225.29534 313.86813 223.25496 313.9167 222.56026 C 313.92885 222.3866 312.57407 220.54663 310.83764 218.5491 L 307.7343 214.88526 L 310.9776 214.67575 C 313.0395 214.51452 315.44482 213.8101 317.39986 212.68153 C 319.16907 211.71448 320.9322 210.83426 321.33816 210.6445 C 322.77005 210.1338 317.83918 205.77498 313.4512 203.63565 C 312.56673 203.18113 312.75255 203.0196 315.0932 202.61608 C 317.4803 202.17217 318.5305 201.5039 323.1699 197.5525 L 328.5 193.08223 L 326.9755 191.7976 C 325.49138 190.55942 325.49745 190.47258 327.2445 189.19857 C 328.3008 188.44345 328.6846 187.94672 328.23826 188.09003 C 327.79193 188.23335 326.58836 187.97466 325.5706 187.55445 L 323.65626 186.85339 L 325.3286 185.39963 C 326.72225 184.18816 326.83338 183.84689 326.02573 182.9178 C 324.4912 181.15253 319.0894 179.16047 315.8643 179.10947 C 313.28746 179.14743 312.99264 178.99592 313.8288 178.26904 C 314.38627 177.78446 315.469 176.02768 316.27905 174.42636 C 317.6669 171.42564 317.71337 171.38526 315.9988 171.57078 C 315.07183 171.72411 312.8484 171.69952 311.11166 171.57808 C 309.2881 171.45056 306.25883 171.71867 304.2716 172.05965 L 300.73135 172.77197 L 302.25433 170.95871 C 303.06834 169.92487 304.2057 167.38657 304.74524 165.2864 C 305.6889 161.77467 305.62635 161.42125 304.4328 161.6432 C 303.6795 161.80868 301.7852 162.0689 300.2443 162.26656 C 296.6758 162.75875 293.7595 163.90737 291.6226 165.76495 C 289.9967 167.17833 289.9563 167.13187 290.54017 165.64563 C 291.28162 163.77773 290.72535 156.75793 289.88918 157.48481 C 289.564 157.76749 287.79083 158.16706 286.0298 158.39296 C 284.2284 158.57241 282.4027 159.0992 281.93817 159.50303 C 281.3807 159.98762 280.993 159.91687 280.7689 159.37764 C 280.51052 158.7051 279.84407 158.87666 278.0627 160.01738 C 276.69336 160.8815 275.25935 162.04651 274.8695 162.63008 C 274.23523 163.58923 274.12623 163.2762 274.1751 160.7054 C 274.2501 159.00906 274.3776 157.18549 274.4605 156.62409 C 274.80207 154.85912 267.26308 156.60073 263.68214 159.14269 L 260.69903 161.24651 L 261.2832 157.88417 L 261.9542 154.5279 L 258.74914 155.43818 C 254.25155 156.73801 252.02994 157.93521 250.86038 159.68591 C 249.88272 161.18825 249.84233 161.1418 249.99202 159.62519 C 250.0992 158.71644 250.12773 157.06047 250.11983 155.92553 L 250.08582 153.91614 L 247.34106 155.73121 C 245.60008 156.9184 244.38012 158.142 244.0589 158.99215 C 243.52755 160.35118 243.52755 160.35118 243.05328 158.39827 C 242.6194 156.4918 242.49218 156.43928 241.27434 157.00858 C 239.3779 157.9231 236.6714 160.43895 235.8149 162.08065 L 235.01697 163.5083 L 234.567 161.20803 L 234.07663 158.86132 L 232.25488 159.9556 C 230.07365 161.19924 228.43955 163.35377 228.12621 165.33887 C 227.9483 166.63534 227.86146 166.62927 226.92872 164.99335 L 225.96167 163.22413 L 224.0121 168.01806 L 222.10294 172.85845 L 221.37423 170.80048 C 221.01899 169.64125 220.6516 168.65568 220.57083 168.56278 C 220.4497 168.42341 219.52455 169.79853 218.52867 171.56138 C 216.4036 175.12138 211.1154 182.736 210.0934 183.6244 C 209.72177 183.94746 209.34012 183.78988 209.1625 183.21026 C 208.7608 182.0914 208.48814 182.24687 207.5952 184.40959 C 206.27595 187.6769 202.2402 192.9794 194.85972 201.18943 C 190.79177 205.70434 187.73975 209.41768 188.04064 209.48235 C 188.3476 209.46019 187.53571 209.83972 186.28964 210.1889 C 183.70458 210.968 183.2947 210.5903 183.87673 207.88226 C 184.18794 206.55148 185.49686 204.67963 188.32056 201.73567 C 193.4105 196.33236 200.86992 186.99345 202.18703 184.38046 C 202.74053 183.3284 203.86364 181.61807 204.67765 180.58423 C 205.53205 179.59684 208.1338 175.45934 210.5558 171.39653 C 212.9778 167.33373 215.57346 163.28307 216.3814 162.33606 Z" fill="#ff0000"/>
          <path d="M 216.3814 162.33606 C 217.1025 161.38298 218.42752 159.90493 219.189 158.9983 C 220.66553 157.22544 219.82965 156.07622 217.6727 156.97253 C 215.86917 157.80629 216.3237 156.92183 219.36752 153.94964 C 221.99326 151.34089 222.94269 149.61842 225.89237 141.75302 C 226.31259 140.73527 226.1046 140.58983 223.8347 140.60563 L 221.31037 140.51637 L 222.71827 138.47692 C 223.45152 137.35017 224.22515 136.26987 224.45743 136.06796 C 224.6897 135.86605 225.2514 134.07284 225.69195 132.14027 C 226.17896 130.16732 226.7871 128.33373 227.06584 128.09143 C 227.57684 127.64723 223.8711 127.60625 221.74451 128.06838 C 220.6378 128.2964 220.74286 128.04196 222.1204 126.4367 C 223.07377 125.2817 223.87382 123.19975 224.2336 121.17427 C 224.5348 119.36285 225.00359 117.6504 225.2823 117.40811 C 225.51458 117.2062 224.56545 117.05257 223.03063 117.1634 L 220.36086 117.28212 L 221.10838 115.32738 C 221.6801 114.01481 221.59356 112.13265 220.97598 109.73341 C 220.46133 107.73404 219.97492 105.9548 219.85377 105.81544 C 219.73263 105.67608 217.88052 107.20453 215.6911 109.18933 C 213.4552 111.21451 211.92828 112.46029 212.1384 111.95141 C 214.21304 107.86432 216.63534 101.92541 216.24154 101.94151 C 215.94065 101.87684 215.54714 100.01683 215.35768 97.73479 C 215.21466 95.41237 214.8676 93.51199 214.6071 93.49377 C 214.38697 93.52201 212.1936 94.93933 209.84264 96.73832 L 205.47197 99.96677 L 206.56713 96.16023 C 207.30463 93.72485 207.47678 90.63912 207.1622 87.65024 L 206.65605 83.03363 L 202.3358 86.78917 C 198.67197 89.89253 198.03375 90.28421 198.41965 89.13317 C 199.68241 85.4256 199.84242 82.51354 199.11796 79.14696 C 198.64976 77.10721 198.13299 75.76215 197.92895 76.18419 C 197.68454 76.55978 196.8605 77.11298 196.09507 77.45213 C 194.9762 77.85383 194.63494 77.74271 194.60882 76.86827 C 194.60487 76.300795 194.02555 74.60232 193.34725 73.07145 L 192.14003 70.369195 L 190.09604 72.14601 L 188.00559 73.96321 L 187.85043 71.81446 C 187.7053 70.14635 187.21068 69.10826 185.5368 67.46414 C 183.62062 65.54129 183.3258 65.38978 182.51785 66.33679 C 181.47157 67.572545 180.888 67.18269 180.963 65.48634 C 180.98333 64.57152 180.80359 64.646215 179.93704 65.80728 C 179.01798 67.09556 178.79785 67.1238 178.12957 66.07356 C 177.4209 64.97687 177.10787 65.085875 175.12855 66.5618 C 173.37542 67.92265 172.74115 68.8818 172.15517 71.02236 L 171.43984 73.764695 L 169.60654 71.280446 L 167.7268 68.83658 L 166.57546 70.32677 C 164.84845 72.56206 164.03019 74.90452 164.06208 77.56822 L 164.11218 79.97141 L 161.56598 77.69909 C 160.25553 76.47306 158.96725 75.55399 158.87434 75.63476 C 158.73498 75.75591 158.26224 76.900875 157.69052 78.21345 C 156.53493 81.01226 156.5064 82.66823 157.38631 86.30747 L 158.02606 89.01367 L 156.56623 87.42815 C 155.79897 86.54551 154.10686 85.1619 152.8125 84.32967 L 150.47217 82.8571 L 150.54626 86.78904 C 150.5982 90.41401 152.04134 95.35792 153.57586 97.12319 C 154.66618 98.37746 153.52121 97.90472 151.1587 96.12518 C 149.9108 95.25257 148.1258 93.94973 147.2131 93.27507 L 145.46847 92.01868 L 144.94078 95.82128 C 144.62532 98.46069 144.82086 100.65589 145.63033 102.80676 L 146.84757 105.98965 L 143.79644 104.0747 C 142.1265 102.99806 140.54948 101.84065 140.2668 101.51547 C 139.33801 100.44701 139.12064 108.54711 140.01695 110.70405 L 140.83249 112.76809 L 139.25941 112.17815 C 138.40926 111.85692 137.36327 111.21658 136.913 110.79242 C 136.26688 110.04915 136.07499 110.29751 135.5051 112.83187 C 134.71902 115.96194 135.09431 118.08245 136.62883 119.84772 C 137.92106 121.33426 137.64841 121.48971 134.74242 121.24288 L 132.27061 121.0264 L 132.56301 123.70831 C 132.99053 127.5777 133.95545 130.00123 136.20471 132.77635 C 138.00977 135.04047 138.04408 135.17376 136.7476 134.99584 C 135.49758 134.77754 131.67464 135.16468 131.25655 135.52812 C 131.2101 135.5685 131.44025 136.0209 131.75723 136.47937 C 132.1146 136.9843 133.45723 138.99793 134.75341 141.05194 C 136.00921 143.0595 137.95758 145.76995 139.08828 147.07068 C 140.98017 149.34087 141.02055 149.38733 139.36064 148.79132 C 138.4701 148.42363 136.90097 148.40117 135.92148 148.68172 L 134.18263 149.21459 L 138.34412 153.34508 C 140.58335 155.63956 143.57164 159.07719 145.00718 161.01006 C 147.19177 164.08607 147.45623 164.67176 146.5575 165.04522 C 145.74561 165.42476 145.81423 165.69134 147.0096 166.69117 C 147.789 167.40013 151.97054 172.4919 156.29539 178.03 C 162.4939 186.0988 170.17047 195.4926 180.92216 208.33012 C 181.68942 209.21275 180.2879 209.28927 178.29885 208.40846 C 176.3098 207.52765 175.98674 207.15602 174.49685 204.12858 C 172.3165 199.74395 163.14319 189.92177 159.96228 186.66834 C 154.6384 181.28504 141.37312 167.43142 138.94441 162.8549 C 138.2479 161.58454 136.86488 159.52445 135.77456 158.27018 L 133.83621 156.04037 L 133.0887 157.9951 C 132.66848 159.01286 132.43804 160.43655 132.5692 161.05655 C 132.76292 162.02997 132.4681 161.87846 131.44852 160.23647 C 129.86967 157.85727 126.57654 153.7875 123.88096 151.15569 L 122.092 149.28537 L 121.48384 151.11896 C 121.19692 152.1024 120.9604 153.61293 120.99259 154.40053 C 120.98834 155.70916 120.78036 155.56372 118.46643 153.0895 C 116.31403 150.80108 113.67279 149.26384 110.16714 148.23335 C 109.6522 148.11008 109.34858 152.45191 109.82497 153.75051 C 110.1116 154.64317 109.48765 154.20686 107.74514 152.29616 C 106.41253 150.76316 103.55936 148.51301 101.50777 147.27878 L 97.6994 144.96184 L 96.978 147.79101 C 96.44453 149.80435 96.14759 150.30715 95.89528 149.54779 C 95.3785 148.20273 92.29094 146.8088 88.40758 146.1882 L 85.08563 145.6505 L 85.7111 149.18468 L 86.29013 152.75925 L 84.59195 151.46248 C 82.102225 149.63042 80.0142 148.91721 75.25033 148.40956 L 71.00748 147.93835 L 72.07928 151.32923 C 72.65253 153.11454 73.75682 155.41692 74.52408 156.29955 C 75.24489 157.22257 75.46897 157.7618 75.053 157.47093 C 70.40663 154.65908 69.08191 154.26104 64.628956 154.2987 L 59.91549 154.31815 L 61.508314 157.74545 L 63.054685 161.21314 L 59.95893 160.56036 C 58.280794 160.22486 55.148604 160.0931 52.999854 160.24826 L 49.096155 160.54248 L 50.75365 163.6689 L 52.41722 166.70848 L 50.19985 166.59706 C 48.93768 166.55243 46.68995 166.87519 45.18337 167.20614 L 42.42464 167.9731 L 43.876275 170.29978 C 44.746467 171.58228 45.71564 172.69719 46.097296 172.85477 C 47.167573 173.14776 46.44252 173.53337 44.61288 173.49269 C 43.73844 173.5188 41.605783 174.06776 39.988074 174.74 C 36.978856 175.96938 36.978856 175.96938 37.82081 177.03176 C 38.25894 177.6296 38.905058 178.37286 39.193805 178.6112 C 39.93283 179.27371 39.22994 179.96628 37.456775 180.36586 C 35.95019 180.69681 36.220723 181.19567 38.54497 182.27444 C 40.5744 183.2017 40.438986 183.89032 37.999365 184.46145 L 36 184.9761 L 37.29618 187.03011 C 39.0648 189.81525 42.113806 192.38452 44.797546 193.3139 C 46.925956 194.07356 47.224725 194.79254 45.31432 194.65896 C 44.7933 194.62252 43.541154 195.05853 42.503063 195.55314 C 41.4589 196.13458 40.15423 196.6978 39.661446 196.8815 C 38.76879 197.16813 39.045394 197.58015 41.33716 199.7474 C 43.54816 201.82177 44.60022 202.37527 46.678226 202.60784 C 48.19483 202.75752 48.964216 202.98585 48.477506 203.0827 C 47.990797 203.17956 46.64969 204.2638 45.55695 205.53995 L 43.516905 207.88424 L 45.35657 208.40555 C 46.426845 208.69855 48.64209 209.46428 50.24948 210.1875 C 51.862944 210.8239 54.36299 211.2605 55.810974 211.1436 L 58.40605 210.84513 L 54.83908 214.4352 C 52.910163 216.43822 51.25997 218.19894 51.28821 218.41907 C 51.2457 219.02693 55.351015 220.84107 58.69514 221.68574 C 60.70847 222.2192 63.1985 222.17517 65.81179 221.6162 L 69.757995 220.7141 L 68.079564 222.2547 C 67.15048 223.06235 65.49421 224.9099 64.43578 226.31934 C 62.22601 229.21896 62.42185 229.53807 67.74895 231.35038 C 70.60029 232.37875 77.109085 232.2667 78.45019 231.18244 C 79.5065 230.42733 75.03626 237.57557 73.82844 238.6255 L 72.80645 239.51392 L 75.24182 240.2514 C 81.77249 242.3224 86.15682 242.01817 93.43348 239.03655 L 96.71535 237.6517 L 94.3905 240.32513 C 93.06549 241.80318 91.65759 243.84263 91.27776 244.90683 C 90.81109 245.96497 90.16468 247.0978 89.74659 247.46123 C 88.86396 248.2285 89.10625 248.50722 91.01666 248.6408 C 91.83857 248.7419 93.91658 248.97448 95.5604 249.1767 C 99.0621 249.6397 105.08844 248.3159 106.06003 246.9004 C 106.44988 246.31682 106.95481 245.95945 107.29608 246.07058 C 107.55052 246.17563 107.14245 247.0197 106.32844 248.05355 C 105.33468 249.1621 104.73867 250.822 104.65761 252.6052 L 104.50368 255.43042 L 107.82169 255.40065 C 111.40628 255.30226 116.3684 253.5986 118.73151 251.62596 C 119.52123 250.93946 120.38565 250.4327 120.69261 250.41054 C 120.95312 250.42876 120.94068 252.47853 120.63737 254.94426 L 120.10149 259.488 L 123.53274 258.46265 C 127.72336 257.185 131.999 254.6916 135.54775 251.36205 L 138.29463 248.89266 L 138.02958 252.05917 C 137.86775 253.74944 138.15013 255.95072 138.65688 256.81514 C 139.16363 257.67955 139.68648 258.93777 139.81765 259.55777 C 140.05174 260.57765 140.37085 260.3818 143.39039 257.75696 C 146.60182 254.88376 148.2763 252.7757 149.18747 250.35246 C 149.45617 249.62952 149.92679 249.13887 150.1873 249.15708 C 150.53465 249.18137 150.58505 249.70846 150.32242 250.34456 C 150.14662 250.98672 150.1363 252.38218 150.41078 253.4485 L 150.87898 255.48826 L 153.06233 253.5903 C 155.98896 251.04622 163.51517 240.7521 165.70095 236.32374 C 166.6686 234.34076 168.03611 232.25486 168.81977 231.6552 C 169.9286 230.77286 171.97501 226.46564 176.60343 215.18354 C 177.61358 212.59271 178.43761 212.0395 179.44717 213.20087 C 180.17405 214.03705 181.21672 222.83608 181.3309 228.69057 C 181.3467 230.96046 181.45723 234.37138 181.49732 236.29393 C 181.5374 238.21648 181.61545 242.7159 181.67345 246.25403 C 181.73145 249.79216 181.88755 258.791 182.10648 266.26713 C 182.23859 273.7372 182.44083 284.57174 182.56109 290.3394 C 182.68741 296.0202 182.61123 305.22093 182.4892 310.70986 C 182.1443 320.63352 182.1443 320.63352 183.88104 320.75496 C 185.48448 320.9107 185.62385 320.78957 186.08657 319.16396 C 187.06453 315.78553 187.00283 297.32547 185.95158 266.18696 C 185.2383 243.31827 184.8256 222.39035 185.00807 217.90915 C 185.09125 215.47166 185.59435 213.8925 186.38408 213.206 C 187.03444 212.64066 187.66658 212.33581 187.82811 212.52163 C 187.94926 212.661 188.51431 215.18745 189.09546 218.1077 C 189.6766 221.02797 190.7806 225.20645 191.584 227.44416 C 194.8662 236.66158 202.5841 252.95192 203.37381 252.26542 C 203.88481 251.8212 204.73343 249.04457 204.97208 246.87972 C 205.24503 244.84817 205.344 244.68057 205.70533 245.75297 C 207.15666 249.95573 214.31434 258.6588 217.80572 260.51728 C 219.11222 261.17583 220.661 262.11312 221.28496 262.54942 C 222.36526 263.32306 222.4703 263.06862 222.70318 259.11452 L 222.96033 254.81307 L 224.1718 256.2067 C 225.989 258.29715 230.36484 260.61015 233.8887 261.38013 C 235.60723 261.76208 237.11776 261.9986 237.2975 261.9239 C 237.94787 261.35856 236.70663 256.6469 235.255 254.32024 L 233.56107 251.71485 L 236.50714 253.88424 C 240.62035 256.83333 245.09518 258.97872 249.22083 259.87805 L 252.79115 260.60764 L 252.44623 258.05295 C 252.32933 256.60496 251.9076 254.52483 251.5059 253.40598 C 251.15672 252.1599 251.1467 251.67927 251.63735 252.14988 C 252.48538 253.12543 256.516 254.75982 258.80806 255.051 C 260.4519 255.2532 268.17245 254.65868 268.59054 254.29524 C 268.68344 254.21448 268.44115 253.93575 268.0191 253.7317 C 267.64353 253.4873 266.87232 252.0372 266.37376 250.43163 C 265.96204 248.83213 264.8456 246.70343 264.00365 245.64105 L 262.43482 243.7425 L 264.73478 245.1686 C 267.83236 247.04317 272.93538 248.31625 276.44528 248.03812 C 277.9801 247.9273 279.7229 247.9619 280.1914 248.12555 C 281.56257 248.48322 281.07068 243.03863 279.50397 240.48576 L 278.335 238.48427 L 281.5498 239.93072 C 283.32478 240.75293 286.45485 241.539 288.4521 241.67867 L 292.09316 242.02054 L 291.4434 238.8337 L 290.88046 235.65293 L 293.5481 236.1885 C 295.1394 236.51794 297.8617 236.272 300.39423 235.6201 C 302.66625 234.95 304.6717 234.3485 304.81105 234.22737 C 304.90396 234.1466 303.01814 231.78957 300.54875 229.0427 C 296.26217 224.20536 296.1471 223.97916 297.96854 224.76098 C 299.03274 225.14082 301.10468 225.46022 302.67988 225.39585 C 305.61016 225.29534 313.86813 223.25496 313.9167 222.56026 C 313.92885 222.3866 312.57407 220.54663 310.83764 218.5491 L 307.7343 214.88526 L 310.9776 214.67575 C 313.0395 214.51452 315.44482 213.8101 317.39986 212.68153 C 319.16907 211.71448 320.9322 210.83426 321.33816 210.6445 C 322.77005 210.1338 317.83918 205.77498 313.4512 203.63565 C 312.56673 203.18113 312.75255 203.0196 315.0932 202.61608 C 317.4803 202.17217 318.5305 201.5039 323.1699 197.5525 L 328.5 193.08223 L 326.9755 191.7976 C 325.49138 190.55942 325.49745 190.47258 327.2445 189.19857 C 328.3008 188.44345 328.6846 187.94672 328.23826 188.09003 C 327.79193 188.23335 326.58836 187.97466 325.5706 187.55445 L 323.65626 186.85339 L 325.3286 185.39963 C 326.72225 184.18816 326.83338 183.84689 326.02573 182.9178 C 324.4912 181.15253 319.0894 179.16047 315.8643 179.10947 C 313.28746 179.14743 312.99264 178.99592 313.8288 178.26904 C 314.38627 177.78446 315.469 176.02768 316.27905 174.42636 C 317.6669 171.42564 317.71337 171.38526 315.9988 171.57078 C 315.07183 171.72411 312.8484 171.69952 311.11166 171.57808 C 309.2881 171.45056 306.25883 171.71867 304.2716 172.05965 L 300.73135 172.77197 L 302.25433 170.95871 C 303.06834 169.92487 304.2057 167.38657 304.74524 165.2864 C 305.6889 161.77467 305.62635 161.42125 304.4328 161.6432 C 303.6795 161.80868 301.7852 162.0689 300.2443 162.26656 C 296.6758 162.75875 293.7595 163.90737 291.6226 165.76495 C 289.9967 167.17833 289.9563 167.13187 290.54017 165.64563 C 291.28162 163.77773 290.72535 156.75793 289.88918 157.48481 C 289.564 157.76749 287.79083 158.16706 286.0298 158.39296 C 284.2284 158.57241 282.4027 159.0992 281.93817 159.50303 C 281.3807 159.98762 280.993 159.91687 280.7689 159.37764 C 280.51052 158.7051 279.84407 158.87666 278.0627 160.01738 C 276.69336 160.8815 275.25935 162.04651 274.8695 162.63008 C 274.23523 163.58923 274.12623 163.2762 274.1751 160.7054 C 274.2501 159.00906 274.3776 157.18549 274.4605 156.62409 C 274.80207 154.85912 267.26308 156.60073 263.68214 159.14269 L 260.69903 161.24651 L 261.2832 157.88417 L 261.9542 154.5279 L 258.74914 155.43818 C 254.25155 156.73801 252.02994 157.93521 250.86038 159.68591 C 249.88272 161.18825 249.84233 161.1418 249.99202 159.62519 C 250.0992 158.71644 250.12773 157.06047 250.11983 155.92553 L 250.08582 153.91614 L 247.34106 155.73121 C 245.60008 156.9184 244.38012 158.142 244.0589 158.99215 C 243.52755 160.35118 243.52755 160.35118 243.05328 158.39827 C 242.6194 156.4918 242.49218 156.43928 241.27434 157.00858 C 239.3779 157.9231 236.6714 160.43895 235.8149 162.08065 L 235.01697 163.5083 L 234.567 161.20803 L 234.07663 158.86132 L 232.25488 159.9556 C 230.07365 161.19924 228.43955 163.35377 228.12621 165.33887 C 227.9483 166.63534 227.86146 166.62927 226.92872 164.99335 L 225.96167 163.22413 L 224.0121 168.01806 L 222.10294 172.85845 L 221.37423 170.80048 C 221.01899 169.64125 220.6516 168.65568 220.57083 168.56278 C 220.4497 168.42341 219.52455 169.79853 218.52867 171.56138 C 216.4036 175.12138 211.1154 182.736 210.0934 183.6244 C 209.72177 183.94746 209.34012 183.78988 209.1625 183.21026 C 208.7608 182.0914 208.48814 182.24687 207.5952 184.40959 C 206.27595 187.6769 202.2402 192.9794 194.85972 201.18943 C 190.79177 205.70434 187.73975 209.41768 188.04064 209.48235 C 188.3476 209.46019 187.53571 209.83972 186.28964 210.1889 C 183.70458 210.968 183.2947 210.5903 183.87673 207.88226 C 184.18794 206.55148 185.49686 204.67963 188.32056 201.73567 C 193.4105 196.33236 200.86992 186.99345 202.18703 184.38046 C 202.74053 183.3284 203.86364 181.61807 204.67765 180.58423 C 205.53205 179.59684 208.1338 175.45934 210.5558 171.39653 C 212.9778 167.33373 215.57346 163.28307 216.3814 162.33606 Z" stroke="#cccccc" stroke-linecap="round" stroke-linejoin="round" stroke-width="2"/>
        </g>
        <g id="Graphic_42">
          <path d="M 179.9885 110.61952 C 180.06927 110.71243 180.0207 111.40712 179.88528 112.09574 C 179.66697 113.34576 179.58014 113.33969 179.53793 112.07145 C 179.49572 110.80321 179.66544 110.24788 179.9885 110.61952 Z" fill="white"/>
        </g>
        <g id="Graphic_41">
          <path d="M 171.252 201.24022 C 171.4357 201.733 171.17519 201.71478 170.73098 201.20378 C 170.24032 200.73317 170.1374 200.3333 170.43829 200.39796 C 170.6988 200.41618 171.1087 200.79389 171.252 201.24022 Z" fill="white"/>
        </g>
        <g id="Graphic_40">
          <path d="M 169.6762 205.05678 C 169.81952 205.5031 169.5247 205.3516 168.95935 204.70124 C 168.394 204.05088 168.285 203.73784 168.66665 203.89542 C 169.04223 204.13984 169.52682 204.6973 169.6762 205.05678 Z" fill="white"/>
        </g>
        <g id="Line_39">
          <line x1="182.0688" y1="204.63331" x2="179.2747" y2="71.035424" stroke="#cccccc" stroke-linecap="round" stroke-linejoin="round" stroke-width="1"/>
        </g>
        <g id="Line_38">
          <path d="M 175.09932 209.80955 L 133.36712 195.85664 L 47.664285 184.56038" stroke="#cccccc" stroke-linecap="round" stroke-linejoin="round" stroke-width="1"/>
        </g>
        <g id="Line_37">
          <path d="M 192.6413 208.67638 L 260.84154 197.39543 L 320.33586 189.95988" stroke="#cccccc" stroke-linecap="round" stroke-linejoin="round" stroke-width="1"/>
        </g>
        <g id="Line_36">
          <path d="M 192.6413 208.67638 C 192.6413 208.67638 190.82648 207.43288 209.83807 216.46082 C 228.84966 225.48875 259.74773 240.54286 259.74773 240.54286" stroke="#cccccc" stroke-linecap="round" stroke-linejoin="round" stroke-width="1"/>
        </g>
        <g id="Line_35">
          <line x1="192.6413" y1="208.67638" x2="211.44173" y2="186.73283" stroke="#cccccc" stroke-linecap="round" stroke-linejoin="round" stroke-width="1"/>
        </g>
        <g id="Line_34">
          <line x1="189.1894" y1="210.79482" x2="231.207" y2="249.6118" stroke="#cccccc" stroke-linecap="round" stroke-linejoin="round" stroke-width="1"/>
        </g>
        <g id="Line_33">
          <line x1="224.0665" y1="203.47836" x2="279.99948" y2="224.28914" stroke="#cccccc" stroke-linecap="round" stroke-linejoin="round" stroke-width="1"/>
        </g>
        <g id="Line_32">
          <path d="M 260.84154 197.39543 C 260.84154 197.39543 273.10708 203.27437 286.8175 205.98724 C 300.52793 208.70011 309.2361 206.97122 309.2361 206.97122" stroke="#cccccc" stroke-linecap="round" stroke-linejoin="round" stroke-width="1"/>
        </g>
        <g id="Line_31">
          <path d="M 209.063 205.96007 C 209.063 205.96007 214.15956 195.95167 225.76892 183.76058 C 237.37828 171.5695 250.0413 162.92841 250.0413 162.92841" stroke="#cccccc" stroke-linecap="round" stroke-linejoin="round" stroke-width="1"/>
        </g>
        <g id="Line_30">
          <path d="M 232.2866 202.11868 C 232.2866 202.11868 236.57135 193.52724 249.6006 182.98977 C 262.62987 172.4523 278.27683 164.92391 278.27683 164.92391" stroke="#cccccc" stroke-linecap="round" stroke-linejoin="round" stroke-width="1"/>
        </g>
        <g id="Line_29">
          <path d="M 260.84154 197.39543 C 260.84154 197.39543 269.3941 187.48552 277.99534 180.51876 C 286.5966 173.552 291.2019 172.8044 291.2019 172.8044" stroke="#cccccc" stroke-linecap="round" stroke-linejoin="round" stroke-width="1"/>
        </g>
        <g id="Line_28">
          <path d="M 290.705 193.66312 C 290.705 193.66312 291.2926 187.83838 296.2226 183.61147 C 301.1526 179.38456 308.10674 178.74313 308.10674 178.74313" stroke="#cccccc" stroke-linecap="round" stroke-linejoin="round" stroke-width="1"/>
        </g>
        <g id="Line_27">
          <path d="M 288.45532 193.94428 C 288.45532 193.94428 298.48203 195.77359 304.7415 196.71108 C 311.001 197.64858 310.5498 197.25343 310.5498 197.25343" stroke="#cccccc" stroke-linecap="round" stroke-linejoin="round" stroke-width="1"/>
        </g>
        <g id="Line_26">
          <path d="M 181.91396 197.22954 C 181.91396 197.22954 195.71553 180.23262 205.5657 166.69049 C 215.41589 153.14835 216.68277 149.42898 216.68277 149.42898" stroke="#cccccc" stroke-linecap="round" stroke-linejoin="round" stroke-width="1"/>
        </g>
        <g id="Line_25">
          <line x1="181.9004" y1="196.5809" x2="146.56036" y2="155.0417" stroke="#cccccc" stroke-linecap="round" stroke-linejoin="round" stroke-width="1"/>
        </g>
        <g id="Line_24">
          <path d="M 144.5372 121.0431 C 144.5372 121.0431 145.23833 131.40148 155.71812 147.76298 C 166.19792 164.12448 181.52842 178.79534 181.52842 178.79534" stroke="#cccccc" stroke-linecap="round" stroke-linejoin="round" stroke-width="1"/>
        </g>
        <g id="Line_23">
          <path d="M 181.52842 178.79534 C 181.52842 178.79534 186.84148 176.30958 195.79948 160.7059 C 204.75747 145.10223 213.14803 123.71805 213.14803 123.71805" stroke="#cccccc" stroke-linecap="round" stroke-linejoin="round" stroke-width="1"/>
        </g>
        <g id="Line_22">
          <path d="M 180.9846 152.79271 C 180.9846 152.79271 172.3286 148.79742 163.77126 136.89288 C 155.21392 124.98835 150.77918 110.7725 150.77918 110.7725" stroke="#cccccc" stroke-linecap="round" stroke-linejoin="round" stroke-width="1"/>
        </g>
        <g id="Line_21">
          <path d="M 180.592 134.02117 C 180.592 134.02117 172.79294 129.04914 166.48315 119.29525 C 160.17336 109.54136 158.31993 99.59223 158.31993 99.59223" stroke="#cccccc" stroke-linecap="round" stroke-linejoin="round" stroke-width="1"/>
        </g>
        <g id="Line_20">
          <path d="M 180.07725 109.4089 C 180.07725 109.4089 174.75353 106.64848 170.60594 100.09882 C 166.45835 93.54916 165.43724 86.29013 165.43724 86.29013" stroke="#cccccc" stroke-linecap="round" stroke-linejoin="round" stroke-width="1"/>
        </g>
        <g id="Line_19">
          <path d="M 179.6239 87.73242 C 179.6239 87.73242 176.14973 86.56394 174.35303 84.15965 C 172.55633 81.75536 173.282 79.24585 173.282 79.24585" stroke="#cccccc" stroke-linecap="round" stroke-linejoin="round" stroke-width="1"/>
        </g>
        <g id="Line_18">
          <path d="M 181.13992 160.21934 C 181.13992 160.21934 187.13319 153.68836 194.4721 139.30522 C 201.811 124.92208 207.04454 109.45025 207.04454 109.45025" stroke="#cccccc" stroke-linecap="round" stroke-linejoin="round" stroke-width="1"/>
        </g>
        <g id="Line_17">
          <path d="M 180.59898 134.3548 C 180.59898 134.3548 185.8599 127.62364 191.2077 117.2135 C 196.55547 106.80336 199.4754 97.60945 199.4754 97.60945" stroke="#cccccc" stroke-linecap="round" stroke-linejoin="round" stroke-width="1"/>
        </g>
        <g id="Line_16">
          <path d="M 180.0371 107.48863 C 180.0371 107.48863 183.88636 101.91783 187.02438 95.8114 C 190.1624 89.70498 191.11358 85.93439 191.11358 85.93439" stroke="#cccccc" stroke-linecap="round" stroke-linejoin="round" stroke-width="1"/>
        </g>
        <g id="Line_15">
          <line x1="179.51178" y1="82.37108" x2="184.32418" y2="74.70053" stroke="#cccccc" stroke-linecap="round" stroke-linejoin="round" stroke-width="1"/>
        </g>
        <g id="Line_14">
          <line x1="175.60183" y1="209.37272" x2="125.97079" y2="252.51634" stroke="#cccccc" stroke-linecap="round" stroke-linejoin="round" stroke-width="1"/>
        </g>
        <g id="Line_13">
          <line x1="171.48169" y1="208.60002" x2="134.27092" y2="166.27552" stroke="#cccccc" stroke-linecap="round" stroke-linejoin="round" stroke-width="1"/>
        </g>
        <g id="Line_12">
          <path d="M 164.39656 206.23115 C 164.39656 206.23115 162.67202 206.95973 152.83907 210.79482 C 143.00612 214.62992 148.20107 213.0237 129.68857 219.76812 C 111.17607 226.51255 87.4943 234.60106 87.4943 234.60106" stroke="#cccccc" stroke-linecap="round" stroke-linejoin="round" stroke-width="1"/>
        </g>
        <g id="Line_11">
          <path d="M 136.99335 197.06905 C 136.99335 197.06905 134.7416 199.89596 123.62665 204.08952 C 112.51168 208.28308 113.37327 208.38317 97.76014 211.87133 C 82.14702 215.35948 68.515976 216.40189 68.515976 216.40189" stroke="#cccccc" stroke-linecap="round" stroke-linejoin="round" stroke-width="1"/>
        </g>
        <g id="Line_10">
          <path d="M 107.8927 192.49892 C 107.8927 192.49892 98.28659 200.29134 85.21735 204.23836 C 72.1481 208.1854 61.76134 206.431 61.76134 206.431" stroke="#cccccc" stroke-linecap="round" stroke-linejoin="round" stroke-width="1"/>
        </g>
        <g id="Line_9">
          <path d="M 92.83603 190.51434 C 92.83603 190.51434 79.73248 195.06236 68.90918 197.13264 C 58.08588 199.20293 54.63234 197.82196 54.63234 197.82196" stroke="#cccccc" stroke-linecap="round" stroke-linejoin="round" stroke-width="1"/>
        </g>
        <g id="Line_8">
          <line x1="68.19269" y1="187.26617" x2="47.664285" y2="189.42792" stroke="#cccccc" stroke-linecap="round" stroke-linejoin="round" stroke-width="1"/>
        </g>
        <g id="Line_7">
          <path d="M 143.77353 199.33596 C 143.77353 199.33596 142.34898 194.74777 134.16504 185.45784 C 125.9811 176.1679 125.51919 175.20203 114.88615 166.5447 C 104.25311 157.88736 96.63292 154.89949 96.63292 154.89949" stroke="#cccccc" stroke-linecap="round" stroke-linejoin="round" stroke-width="1"/>
        </g>
        <g id="Line_6">
          <path d="M 123.75856 194.59016 C 123.75856 194.59016 119.89674 190.1265 112.82036 184.8356 C 105.74398 179.54471 108.8512 182.31974 98.78061 175.91454 C 88.71002 169.50933 77.27356 162.22675 77.27356 162.22675" stroke="#cccccc" stroke-linecap="round" stroke-linejoin="round" stroke-width="1"/>
        </g>
        <g id="Line_5">
          <path d="M 90.91444 190.26106 C 90.91444 190.26106 88.21477 185.44437 81.19704 180.52226 C 74.179315 175.60016 73.03953 175.96165 66.143514 172.8872 C 59.2475 169.81275 56.855725 169.67017 56.855725 169.67017" stroke="#cccccc" stroke-linecap="round" stroke-linejoin="round" stroke-width="1"/>
        </g>
        <g id="Line_4">
          <path d="M 72.54611 187.83998 C 72.54611 187.83998 63.77927 183.6488 57.095765 181.31128 C 50.41226 178.97376 48.95491 179.5891 48.95491 179.5891" stroke="#cccccc" stroke-linecap="round" stroke-linejoin="round" stroke-width="1"/>
        </g>
      </g>
    </g>
  </g>
</svg>
