<?xml version="1.0" encoding="utf-8"?>
<svg xmlns:dc="http://purl.org/dc/elements/1.1/" xmlns:xl="http://www.w3.org/1999/xlink"
     xmlns="http://www.w3.org/2000/svg"
     xmlns:xlink="http://www.w3.org/1999/xlink"
     version="1.1"
     viewBox="44 67 277 285"
     width="277"
     height="285"
     preserveAspectRatio="xMidYMid meet"
     zoomAndPan="magnify"
     contentScriptType="application/ecmascript"
     contentStyleType="text/css">
   <defs/>
   <metadata xmlns="" xmlns:svg="http://www.w3.org/2000/svg"
             xmlns:rdf="http://www.w3.org/1999/02/22-rdf-syntax-ns#"
             xmlns:cc="http://creativecommons.org/ns#">
      <rdf:RDF>
         <cc:Work rdf:about="">
            <dc:creator>
               <cc:Agent>
                  <dc:title>http://heraldicart.org Tree Blasted (1).svg</dc:title>
               </cc:Agent>
            </dc:creator>
         </cc:Work>
      </rdf:RDF>
   </metadata>
   <g stroke="#505050" fill="#ffff00" stroke-opacity="1" stroke-dasharray="none"
      fill-opacity="1">
      <title>Tree Blasted (1)</title>
      <g>
         <title>Layer 2</title>
         <g>
            <g>
               <title>path18</title>
               <path d="M 179.15575 130.38448 L 182.3624 136.11811 C 191.43966 120.42612 196.45367 102.71534 196.9492 84.59381 C 193.55795 100.72649 187.54724 116.1948 179.15575 130.38448 Z"/>
               <path d="M 179.15575 130.38448 L 182.3624 136.11811 C 191.43966 120.42612 196.45367 102.71534 196.9492 84.59381 C 193.55795 100.72649 187.54724 116.1948 179.15575 130.38448 Z"
                     stroke="black"
                     stroke-linecap="round"
                     stroke-linejoin="round"
                     stroke-width="1.5"/>
            </g>
            <g>
               <title>path23</title>
               <path d="M 163.32377 161.31649 L 166.40843 157.36917 C 162.24272 150.27216 159.78182 142.30482 159.2196 134.09479 C 157.84668 143.37493 159.27577 152.85365 163.32377 161.31649 Z"/>
               <path d="M 163.32377 161.31649 L 166.40843 157.36917 C 162.24272 150.27216 159.78182 142.30482 159.2196 134.09479 C 157.84668 143.37493 159.27577 152.85365 163.32377 161.31649 Z"
                     stroke="black"
                     stroke-linecap="round"
                     stroke-linejoin="round"
                     stroke-width="1.5"/>
            </g>
            <g>
               <title>path28</title>
               <path d="M 203.84786 155.37372 C 185.64031 135.44845 173.1077 111.0061 167.55516 84.59207 C 168.31734 112.54995 179.81268 139.1415 199.65655 158.8505 C 200.2328 159.53791 200.74607 160.27574 201.19017 161.05507 Z"/>
               <path d="M 203.84786 155.37372 C 185.64031 135.44845 173.1077 111.0061 167.55516 84.59207 C 168.31734 112.54995 179.81268 139.1415 199.65655 158.8505 C 200.2328 159.53791 200.74607 160.27574 201.19017 161.05507 Z"
                     stroke="black"
                     stroke-linecap="round"
                     stroke-linejoin="round"
                     stroke-width="1.5"/>
            </g>
            <g>
               <title>path33</title>
               <path d="M 176.30723 177.97714 L 181.56162 182.17716 C 198.70675 172.6504 208.15495 153.49715 205.2804 134.09479 C 204.21248 149.7023 196.32303 164.04674 183.7139 173.30658 C 181.11807 174.65239 178.6404 176.21478 176.30723 177.97714 Z"/>
               <path d="M 176.30723 177.97714 L 181.56162 182.17716 C 198.70675 172.6504 208.15495 153.49715 205.2804 134.09479 C 204.21248 149.7023 196.32303 164.04674 183.7139 173.30658 C 181.11807 174.65239 178.6404 176.21478 176.30723 177.97714 Z"
                     stroke="black"
                     stroke-linecap="round"
                     stroke-linejoin="round"
                     stroke-width="1.5"/>
            </g>
            <g>
               <title>path38</title>
               <path d="M 182.25 208.33492 C 177.88575 205.8282 175.00416 201.36467 174.51621 196.35545 C 174.02827 191.34623 175.99428 186.4105 179.79273 183.10866 C 180.38889 182.81042 180.97865 182.49956 181.56162 182.1763 L 176.30723 177.97627 C 174.05197 179.67787 171.93916 181.56046 169.98978 183.60534 C 165.9641 181.52104 163.08575 177.74079 162.14742 173.30571 C 160.45241 168.34792 161.4737 162.86472 164.83996 158.84963 C 171.65908 152.0784 177.55141 144.4339 182.36328 136.1155 L 179.15662 130.38186 C 173.6877 139.63299 167.2466 148.27371 159.94284 156.15709 C 157.91485 157.2374 156.40958 159.0915 155.76897 161.29819 C 151.881 157.17314 148.80643 152.3514 146.70669 147.08609 C 143.05308 138.87085 145.72167 129.21868 153.07642 124.04698 C 147.1329 125.00784 142.27117 129.3 140.58093 135.07857 C 137.39101 130.50032 135.14017 125.33522 133.9585 119.88182 C 133.15894 114.35194 133.74889 108.71 135.6751 103.46515 C 137.2515 99.49809 137.92135 95.22887 137.63569 90.96965 C 140.8149 90.46621 143.55461 88.45688 144.99008 85.57585 C 146.8057 82.15066 149.11645 79.01191 151.84779 76.26087 C 148.158 78.19633 144.8393 80.768685 142.04484 83.85925 C 141.0108 85.20965 139.31062 85.87157 137.63569 85.57585 C 133.3376 80.98213 131.67573 74.51531 133.22654 68.41851 C 129.86743 74.54524 129.96 81.98317 133.47053 88.02441 C 134.3668 92.29988 133.9382 96.747 132.24189 100.7726 C 130.03306 103.33049 129.12938 106.76513 129.79333 110.07887 C 118.9047 102.63655 110.1248 92.5059 104.30566 80.67002 C 107.83035 93.88576 115.57435 105.58896 126.36012 114.00005 C 127.66997 121.2478 129.81023 128.32058 132.73857 135.07857 C 128.42473 131.08845 121.93638 130.5802 117.05385 133.84993 C 125.04744 134.39577 132.39622 138.43027 137.14772 144.88152 L 161.16277 191.93567 C 162.34951 193.4661 162.71688 195.47845 162.14742 197.32947 C 161.34549 198.25384 160.18194 198.7848 158.9582 198.7848 C 157.73445 198.7848 156.5709 198.25384 155.76897 197.32947 L 132.73857 182.6207 C 129.23565 173.30244 128.55377 163.15908 130.77798 153.45583 C 125.77746 160.67063 124.08236 169.67208 126.11614 178.21154 C 118.89515 172.69047 112.95813 165.6683 108.71481 157.6297 C 111.22902 144.83004 108.00596 131.57156 99.89651 121.35444 C 97.4567 116.59065 98.03284 110.83952 101.36914 106.65437 C 98.85296 107.50106 96.79656 109.34666 95.68373 111.75697 C 94.57089 114.16729 94.49987 116.92953 95.48737 119.39385 C 89.33429 118.09966 84.5257 113.2945 83.22714 107.14234 C 81.5042 101.26212 80.11361 95.28957 79.06198 89.25305 C 77.83602 95.3265 77.9192 101.59155 79.30596 107.63031 C 76.65612 102.71629 70.96775 100.27841 65.581836 101.74854 C 71.48526 103.25178 76.42067 107.29071 79.06198 112.78013 C 82.84005 118.64922 88.71441 122.85632 95.48737 124.54366 C 102.76559 133.14707 104.3906 145.19185 99.65253 155.41642 C 93.8109 152.15305 90.5929 145.61994 91.56619 138.99975 C 88.93353 143.57134 89.3189 149.27957 92.54212 153.45583 C 78.33542 150.29502 68.68443 137.0776 69.9997 122.58307 C 67.08735 128.3084 66.816885 135.0192 69.25903 140.96034 C 65.61225 139.47048 61.49649 139.64873 57.992175 141.4483 C 62.28675 141.08336 66.58424 142.11647 70.24368 144.39355 C 75.42026 153.52364 84.58383 159.69292 94.99068 161.0542 C 99.22836 161.66858 103.07954 163.85548 105.77828 167.17996 C 111.63296 178.6016 120.8764 187.9333 132.24189 193.89626 L 165.82461 218.408 C 168.57872 221.66823 169.823 225.94248 169.24911 230.17153 C 156.7208 222.49701 142.67086 217.6442 128.07673 215.95072 C 123.95605 213.45665 121.0345 209.386 119.99038 204.68386 C 117.64347 199.5479 113.16722 195.69564 107.73887 194.14025 C 101.48612 190.51936 97.51368 183.95778 97.20397 176.73892 C 94.42623 184.64908 98.1465 193.3713 105.77828 196.8415 C 112.33975 200.0588 116.91452 206.27997 118.02979 213.50216 C 89.3655 211.97844 67.050494 188.03815 67.542426 159.3376 C 64.75181 162.8611 63.67545 167.44443 64.6059 171.8418 C 60.679275 166.48869 53.73188 164.30462 47.44856 166.448 C 54.60483 166.9664 61.119 170.76553 65.09387 176.73892 C 66.6078 184.06822 69.79581 190.94824 74.40885 196.8415 C 70.53973 196.05773 66.54269 197.35701 63.873945 200.266 C 68.87243 199.63567 73.94543 199.96993 78.818 201.25065 C 86.83219 210.26308 97.76665 216.16226 109.69946 217.9113 C 87.32394 227.64316 61.23072 218.44989 49.89712 196.8415 C 49.649104 202.77579 52.18934 208.48486 56.76354 212.27352 C 52.113615 211.89944 47.62125 214.05245 45 217.9113 C 50.304245 214.73843 56.94546 214.83287 62.15734 218.1553 C 75.5561 229.27408 93.88443 232.36316 110.18743 226.25035 C 130.99842 222.40856 152.33354 229.42613 166.80055 244.8716 C 149.95908 240.52187 132.33153 240.18759 115.33725 243.89566 C 108.84687 242.85737 103.3168 238.61808 100.62847 232.6201 C 100.1641 237.6992 102.28216 242.6719 106.26625 245.85625 C 99.10755 253.80317 86.90662 254.56234 78.818 247.56414 C 74.89355 243.83378 69.17437 242.6913 64.11793 244.6276 C 58.06821 243.65106 53.43699 238.7192 52.84236 232.6201 C 51.530414 235.46025 51.604056 238.7472 53.041884 241.52574 C 54.47971 244.3043 57.120465 246.26282 60.19675 246.83219 C 55.14205 246.80712 50.89701 250.62954 50.3938 255.6592 C 56.6525 250.01996 65.52302 248.31835 73.424195 251.24133 C 84.10406 261.31742 100.72206 261.53328 111.66005 251.73802 C 118.03511 249.527 124.76754 248.52806 131.50994 248.79278 C 128.90236 255.70023 123.01768 260.84933 115.82522 262.5169 C 126.64706 263.54688 136.94791 257.66217 141.55687 247.81684 C 153.01308 248.14124 163.36696 254.72703 168.51716 264.96546 L 168.51716 312.5163 C 164.5832 325.119 152.79604 333.6069 139.59628 333.34212 C 130.18223 334.77833 122.39594 341.42672 119.50241 350.49946 C 124.60085 345.14458 131.31836 341.61437 138.62034 340.45253 C 147.02826 340.71147 155.2903 338.2145 162.14742 333.34212 C 161.95652 336.5096 160.49601 339.46615 158.09648 341.54257 C 155.69695 343.619 152.56128 344.63972 149.39923 344.3737 C 144.8053 344.4533 140.56298 346.84983 138.12366 350.74344 C 143.30321 349.292 148.70326 348.79303 154.06108 349.27082 C 160.18741 350.72942 166.39725 347.19617 168.27317 341.1845 C 170.16262 337.63837 172.37667 334.275 174.8869 331.13755 C 177.39365 333.65618 178.65155 337.1585 178.3201 340.6965 C 177.28814 344.2733 178.68233 348.1073 181.77074 350.18577 L 181.77074 350.74344 C 181.92438 350.6548 182.07548 350.5618 182.22386 350.4646 C 182.38915 350.5632 182.5577 350.6562 182.72926 350.74344 L 182.72926 350.10734 C 185.77812 347.81113 187.14064 343.90248 186.1799 340.20854 C 185.80715 336.78403 186.97569 333.371 189.36912 330.89356 C 191.968 334.10467 194.26372 337.5497 196.22683 341.1845 C 198.10275 347.19617 204.3126 350.72942 210.43892 349.27082 C 215.79674 348.79303 221.1968 349.292 226.37634 350.74344 C 223.93702 346.84983 219.6947 344.4533 215.10077 344.3737 C 211.93872 344.63972 208.80305 343.619 206.40352 341.54257 C 204.00399 339.46615 202.54348 336.5096 202.35258 333.34212 C 209.2097 338.2145 217.47174 340.71147 225.87966 340.45253 C 233.18164 341.61437 239.89915 345.14458 244.9976 350.49946 C 242.10406 341.42672 234.31777 334.77833 224.90372 333.34212 C 211.70396 333.6069 199.9168 325.119 195.98284 312.5163 L 195.98284 264.96546 C 201.12488 254.88433 211.38525 248.43897 222.69915 248.1828 C 227.45863 257.96994 237.85714 263.70813 248.67478 262.5169 C 241.5204 260.829 235.68146 255.6799 233.11206 248.79278 C 239.81415 248.53564 246.5052 249.53457 252.83995 251.73802 C 257.81395 257.04748 264.79267 260.0187 272.06744 259.9242 C 279.3422 259.8297 286.2414 256.6782 291.0758 251.24133 C 298.97698 248.31835 307.8475 250.01996 314.1062 255.6592 C 313.603 250.62954 309.35795 246.80712 304.30325 246.83219 C 307.37954 246.26282 310.0203 244.3043 311.4581 241.52574 C 312.89594 238.7472 312.9696 235.46025 311.65764 232.6201 C 311.063 238.7192 306.4318 243.65106 300.38207 244.6276 C 295.37266 242.6167 289.65345 243.66427 285.682 247.32015 C 277.7595 254.4879 265.55845 253.99986 258.23375 246.22222 C 262.2791 242.92346 264.3971 237.8134 263.87153 232.6201 C 261.1832 238.61808 255.65313 242.85737 249.16275 243.89566 C 232.16847 240.18759 214.54092 240.52187 197.69945 244.8716 C 211.9709 229.42977 233.12253 222.31683 253.8246 225.99765 C 270.23323 232.2754 288.7474 229.2828 302.34266 218.1553 C 307.55454 214.83287 314.19576 214.73843 319.5 217.9113 C 316.87875 214.05245 312.3864 211.89944 307.73646 212.27352 C 312.31316 208.48298 314.85366 202.77009 314.6029 196.8328 C 303.2723 218.44447 277.1783 227.6418 254.80054 217.9113 C 266.73335 216.16226 277.6678 210.26308 285.682 201.25065 C 290.55457 199.96993 295.62757 199.63567 300.62606 200.266 C 297.95914 197.35384 293.96183 196.05116 290.09115 196.8328 C 294.70298 190.94207 297.89093 184.06516 299.40613 176.73892 C 303.381 170.76553 309.89517 166.9664 317.05144 166.448 C 310.76812 164.30462 303.82072 166.48869 299.8941 171.8418 C 300.82455 167.44443 299.7482 162.8611 296.95757 159.3376 C 297.4495 188.03815 275.1345 211.97844 246.4702 213.50216 C 247.58548 206.27997 252.16025 200.0588 258.72172 196.8415 C 266.3535 193.3713 270.07377 184.64908 267.29603 176.73892 C 266.98632 183.95778 263.01388 190.51936 256.76113 194.14025 C 251.33278 195.69564 246.85653 199.5479 244.50962 204.68386 C 243.4655 209.386 240.54395 213.45665 236.42327 215.95072 C 221.82914 217.6442 207.7792 222.49701 195.2509 230.17153 C 194.677 225.94248 195.92128 221.66823 198.67539 218.408 L 232.2581 193.89626 C 243.6236 187.9333 252.86704 178.6016 258.72172 167.17996 C 261.42046 163.85548 265.27164 161.66858 269.50932 161.0542 C 279.91617 159.69292 289.07974 153.52364 294.2563 144.39355 C 297.91576 142.11647 302.21325 141.08336 306.50782 141.4483 C 303.0035 139.64873 298.88775 139.47048 295.24097 140.96034 C 297.6831 135.0192 297.41265 128.3084 294.5003 122.58307 C 295.81557 137.0776 286.16458 150.29502 271.95788 153.45583 C 275.1811 149.27957 275.56647 143.57134 272.9338 138.99975 C 273.9071 145.61994 270.6891 152.15305 264.84747 155.41642 C 260.1094 145.19185 261.7344 133.14707 269.01263 124.54366 C 275.7856 122.85632 281.65995 118.64922 285.43802 112.78013 C 288.07933 107.29071 293.01474 103.25178 298.91816 101.74854 C 293.53225 100.27841 287.8439 102.71629 285.19404 107.63031 C 286.5808 101.59155 286.66398 95.3265 285.43802 89.25305 C 284.3864 95.28957 282.9958 101.26212 281.27286 107.14234 C 279.9743 113.2945 275.1657 118.09966 269.01263 119.39385 C 270.00013 116.92953 269.9291 114.16729 268.81627 111.75697 C 267.70344 109.34666 265.64704 107.50106 263.13086 106.65437 C 266.46716 110.83952 267.0433 116.59065 264.6035 121.35444 C 256.49404 131.57156 253.27098 144.83004 255.7852 157.6297 C 251.54187 165.6683 245.60485 172.69047 238.38386 178.21154 C 240.41764 169.67208 238.72254 160.67063 233.72202 153.45583 C 235.94623 163.15908 235.26435 173.30244 231.76143 182.6207 L 208.73103 197.32947 C 207.9291 198.25384 206.76555 198.7848 205.5418 198.7848 C 204.31806 198.7848 203.15451 198.25384 202.35258 197.32947 C 201.78312 195.47845 202.15049 193.4661 203.33723 191.93567 L 227.35228 144.88152 C 232.10378 138.43027 239.45256 134.39577 247.44615 133.84993 C 242.56362 130.5802 236.07527 131.08845 231.76143 135.07857 C 234.68977 128.32058 236.83003 121.2478 238.13988 114.00005 C 248.92565 105.58896 256.66965 93.88576 260.19434 80.67002 C 254.3752 92.5059 245.5953 102.63655 234.70667 110.07887 C 235.37062 106.76513 234.46694 103.33049 232.2581 100.7726 C 230.5618 96.747 230.1332 92.29988 231.02947 88.02441 C 234.54 81.98317 234.63257 74.54524 231.27346 68.41851 C 232.82427 74.51531 231.1624 80.98213 226.8643 85.57585 C 225.18938 85.87157 223.4892 85.20965 222.45516 83.85925 C 219.6607 80.768685 216.342 78.19633 212.6522 76.26087 C 215.38355 79.01191 217.6943 82.15066 219.50992 85.57585 C 220.94753 88.45352 223.68687 90.45934 226.8643 90.96094 C 226.57734 95.22305 227.24722 99.4954 228.8249 103.46515 C 230.7511 108.71 231.34106 114.35194 230.5415 119.88182 C 229.35983 125.33522 227.109 130.50032 223.91907 135.07857 C 222.22883 129.3 217.3671 125.00784 211.42358 124.04698 C 218.77833 129.21868 221.44692 138.87085 217.79331 147.08609 C 215.69357 152.3514 212.619 157.17314 208.73103 161.29819 C 208.09042 159.0915 206.58515 157.2374 204.55716 156.15709 C 204.31806 155.89651 204.07989 155.6351 203.84263 155.37285 L 201.19365 161.0542 C 203.32146 164.78527 203.74357 169.25073 202.35258 173.31442 C 201.41188 177.74625 198.53383 181.5229 194.51022 183.60534 C 190.53687 179.4388 185.89905 175.96117 180.7861 173.31442 C 174.95867 169.03247 170.06631 163.6064 166.40843 157.3683 L 163.32377 161.31561 C 167.8346 170.75242 175.35774 178.41964 184.70727 183.10866 C 188.50572 186.4105 190.47173 191.34623 189.98379 196.35545 C 189.49584 201.36467 186.61425 205.8282 182.25 208.33492 Z"/>
               <path d="M 182.25 208.33492 C 177.88575 205.8282 175.00416 201.36467 174.51621 196.35545 C 174.02827 191.34623 175.99428 186.4105 179.79273 183.10866 C 180.38889 182.81042 180.97865 182.49956 181.56162 182.1763 L 176.30723 177.97627 C 174.05197 179.67787 171.93916 181.56046 169.98978 183.60534 C 165.9641 181.52104 163.08575 177.74079 162.14742 173.30571 C 160.45241 168.34792 161.4737 162.86472 164.83996 158.84963 C 171.65908 152.0784 177.55141 144.4339 182.36328 136.1155 L 179.15662 130.38186 C 173.6877 139.63299 167.2466 148.27371 159.94284 156.15709 C 157.91485 157.2374 156.40958 159.0915 155.76897 161.29819 C 151.881 157.17314 148.80643 152.3514 146.70669 147.08609 C 143.05308 138.87085 145.72167 129.21868 153.07642 124.04698 C 147.1329 125.00784 142.27117 129.3 140.58093 135.07857 C 137.39101 130.50032 135.14017 125.33522 133.9585 119.88182 C 133.15894 114.35194 133.74889 108.71 135.6751 103.46515 C 137.2515 99.49809 137.92135 95.22887 137.63569 90.96965 C 140.8149 90.46621 143.55461 88.45688 144.99008 85.57585 C 146.8057 82.15066 149.11645 79.01191 151.84779 76.26087 C 148.158 78.19633 144.8393 80.768685 142.04484 83.85925 C 141.0108 85.20965 139.31062 85.87157 137.63569 85.57585 C 133.3376 80.98213 131.67573 74.51531 133.22654 68.41851 C 129.86743 74.54524 129.96 81.98317 133.47053 88.02441 C 134.3668 92.29988 133.9382 96.747 132.24189 100.7726 C 130.03306 103.33049 129.12938 106.76513 129.79333 110.07887 C 118.9047 102.63655 110.1248 92.5059 104.30566 80.67002 C 107.83035 93.88576 115.57435 105.58896 126.36012 114.00005 C 127.66997 121.2478 129.81023 128.32058 132.73857 135.07857 C 128.42473 131.08845 121.93638 130.5802 117.05385 133.84993 C 125.04744 134.39577 132.39622 138.43027 137.14772 144.88152 L 161.16277 191.93567 C 162.34951 193.4661 162.71688 195.47845 162.14742 197.32947 C 161.34549 198.25384 160.18194 198.7848 158.9582 198.7848 C 157.73445 198.7848 156.5709 198.25384 155.76897 197.32947 L 132.73857 182.6207 C 129.23565 173.30244 128.55377 163.15908 130.77798 153.45583 C 125.77746 160.67063 124.08236 169.67208 126.11614 178.21154 C 118.89515 172.69047 112.95813 165.6683 108.71481 157.6297 C 111.22902 144.83004 108.00596 131.57156 99.89651 121.35444 C 97.4567 116.59065 98.03284 110.83952 101.36914 106.65437 C 98.85296 107.50106 96.79656 109.34666 95.68373 111.75697 C 94.57089 114.16729 94.49987 116.92953 95.48737 119.39385 C 89.33429 118.09966 84.5257 113.2945 83.22714 107.14234 C 81.5042 101.26212 80.11361 95.28957 79.06198 89.25305 C 77.83602 95.3265 77.9192 101.59155 79.30596 107.63031 C 76.65612 102.71629 70.96775 100.27841 65.581836 101.74854 C 71.48526 103.25178 76.42067 107.29071 79.06198 112.78013 C 82.84005 118.64922 88.71441 122.85632 95.48737 124.54366 C 102.76559 133.14707 104.3906 145.19185 99.65253 155.41642 C 93.8109 152.15305 90.5929 145.61994 91.56619 138.99975 C 88.93353 143.57134 89.3189 149.27957 92.54212 153.45583 C 78.33542 150.29502 68.68443 137.0776 69.9997 122.58307 C 67.08735 128.3084 66.816885 135.0192 69.25903 140.96034 C 65.61225 139.47048 61.49649 139.64873 57.992175 141.4483 C 62.28675 141.08336 66.58424 142.11647 70.24368 144.39355 C 75.42026 153.52364 84.58383 159.69292 94.99068 161.0542 C 99.22836 161.66858 103.07954 163.85548 105.77828 167.17996 C 111.63296 178.6016 120.8764 187.9333 132.24189 193.89626 L 165.82461 218.408 C 168.57872 221.66823 169.823 225.94248 169.24911 230.17153 C 156.7208 222.49701 142.67086 217.6442 128.07673 215.95072 C 123.95605 213.45665 121.0345 209.386 119.99038 204.68386 C 117.64347 199.5479 113.16722 195.69564 107.73887 194.14025 C 101.48612 190.51936 97.51368 183.95778 97.20397 176.73892 C 94.42623 184.64908 98.1465 193.3713 105.77828 196.8415 C 112.33975 200.0588 116.91452 206.27997 118.02979 213.50216 C 89.3655 211.97844 67.050494 188.03815 67.542426 159.3376 C 64.75181 162.8611 63.67545 167.44443 64.6059 171.8418 C 60.679275 166.48869 53.73188 164.30462 47.44856 166.448 C 54.60483 166.9664 61.119 170.76553 65.09387 176.73892 C 66.6078 184.06822 69.79581 190.94824 74.40885 196.8415 C 70.53973 196.05773 66.54269 197.35701 63.873945 200.266 C 68.87243 199.63567 73.94543 199.96993 78.818 201.25065 C 86.83219 210.26308 97.76665 216.16226 109.69946 217.9113 C 87.32394 227.64316 61.23072 218.44989 49.89712 196.8415 C 49.649104 202.77579 52.18934 208.48486 56.76354 212.27352 C 52.113615 211.89944 47.62125 214.05245 45 217.9113 C 50.304245 214.73843 56.94546 214.83287 62.15734 218.1553 C 75.5561 229.27408 93.88443 232.36316 110.18743 226.25035 C 130.99842 222.40856 152.33354 229.42613 166.80055 244.8716 C 149.95908 240.52187 132.33153 240.18759 115.33725 243.89566 C 108.84687 242.85737 103.3168 238.61808 100.62847 232.6201 C 100.1641 237.6992 102.28216 242.6719 106.26625 245.85625 C 99.10755 253.80317 86.90662 254.56234 78.818 247.56414 C 74.89355 243.83378 69.17437 242.6913 64.11793 244.6276 C 58.06821 243.65106 53.43699 238.7192 52.84236 232.6201 C 51.530414 235.46025 51.604056 238.7472 53.041884 241.52574 C 54.47971 244.3043 57.120465 246.26282 60.19675 246.83219 C 55.14205 246.80712 50.89701 250.62954 50.3938 255.6592 C 56.6525 250.01996 65.52302 248.31835 73.424195 251.24133 C 84.10406 261.31742 100.72206 261.53328 111.66005 251.73802 C 118.03511 249.527 124.76754 248.52806 131.50994 248.79278 C 128.90236 255.70023 123.01768 260.84933 115.82522 262.5169 C 126.64706 263.54688 136.94791 257.66217 141.55687 247.81684 C 153.01308 248.14124 163.36696 254.72703 168.51716 264.96546 L 168.51716 312.5163 C 164.5832 325.119 152.79604 333.6069 139.59628 333.34212 C 130.18223 334.77833 122.39594 341.42672 119.50241 350.49946 C 124.60085 345.14458 131.31836 341.61437 138.62034 340.45253 C 147.02826 340.71147 155.2903 338.2145 162.14742 333.34212 C 161.95652 336.5096 160.49601 339.46615 158.09648 341.54257 C 155.69695 343.619 152.56128 344.63972 149.39923 344.3737 C 144.8053 344.4533 140.56298 346.84983 138.12366 350.74344 C 143.30321 349.292 148.70326 348.79303 154.06108 349.27082 C 160.18741 350.72942 166.39725 347.19617 168.27317 341.1845 C 170.16262 337.63837 172.37667 334.275 174.8869 331.13755 C 177.39365 333.65618 178.65155 337.1585 178.3201 340.6965 C 177.28814 344.2733 178.68233 348.1073 181.77074 350.18577 L 181.77074 350.74344 C 181.92438 350.6548 182.07548 350.5618 182.22386 350.4646 C 182.38915 350.5632 182.5577 350.6562 182.72926 350.74344 L 182.72926 350.10734 C 185.77812 347.81113 187.14064 343.90248 186.1799 340.20854 C 185.80715 336.78403 186.97569 333.371 189.36912 330.89356 C 191.968 334.10467 194.26372 337.5497 196.22683 341.1845 C 198.10275 347.19617 204.3126 350.72942 210.43892 349.27082 C 215.79674 348.79303 221.1968 349.292 226.37634 350.74344 C 223.93702 346.84983 219.6947 344.4533 215.10077 344.3737 C 211.93872 344.63972 208.80305 343.619 206.40352 341.54257 C 204.00399 339.46615 202.54348 336.5096 202.35258 333.34212 C 209.2097 338.2145 217.47174 340.71147 225.87966 340.45253 C 233.18164 341.61437 239.89915 345.14458 244.9976 350.49946 C 242.10406 341.42672 234.31777 334.77833 224.90372 333.34212 C 211.70396 333.6069 199.9168 325.119 195.98284 312.5163 L 195.98284 264.96546 C 201.12488 254.88433 211.38525 248.43897 222.69915 248.1828 C 227.45863 257.96994 237.85714 263.70813 248.67478 262.5169 C 241.5204 260.829 235.68146 255.6799 233.11206 248.79278 C 239.81415 248.53564 246.5052 249.53457 252.83995 251.73802 C 257.81395 257.04748 264.79267 260.0187 272.06744 259.9242 C 279.3422 259.8297 286.2414 256.6782 291.0758 251.24133 C 298.97698 248.31835 307.8475 250.01996 314.1062 255.6592 C 313.603 250.62954 309.35795 246.80712 304.30325 246.83219 C 307.37954 246.26282 310.0203 244.3043 311.4581 241.52574 C 312.89594 238.7472 312.9696 235.46025 311.65764 232.6201 C 311.063 238.7192 306.4318 243.65106 300.38207 244.6276 C 295.37266 242.6167 289.65345 243.66427 285.682 247.32015 C 277.7595 254.4879 265.55845 253.99986 258.23375 246.22222 C 262.2791 242.92346 264.3971 237.8134 263.87153 232.6201 C 261.1832 238.61808 255.65313 242.85737 249.16275 243.89566 C 232.16847 240.18759 214.54092 240.52187 197.69945 244.8716 C 211.9709 229.42977 233.12253 222.31683 253.8246 225.99765 C 270.23323 232.2754 288.7474 229.2828 302.34266 218.1553 C 307.55454 214.83287 314.19576 214.73843 319.5 217.9113 C 316.87875 214.05245 312.3864 211.89944 307.73646 212.27352 C 312.31316 208.48298 314.85366 202.77009 314.6029 196.8328 C 303.2723 218.44447 277.1783 227.6418 254.80054 217.9113 C 266.73335 216.16226 277.6678 210.26308 285.682 201.25065 C 290.55457 199.96993 295.62757 199.63567 300.62606 200.266 C 297.95914 197.35384 293.96183 196.05116 290.09115 196.8328 C 294.70298 190.94207 297.89093 184.06516 299.40613 176.73892 C 303.381 170.76553 309.89517 166.9664 317.05144 166.448 C 310.76812 164.30462 303.82072 166.48869 299.8941 171.8418 C 300.82455 167.44443 299.7482 162.8611 296.95757 159.3376 C 297.4495 188.03815 275.1345 211.97844 246.4702 213.50216 C 247.58548 206.27997 252.16025 200.0588 258.72172 196.8415 C 266.3535 193.3713 270.07377 184.64908 267.29603 176.73892 C 266.98632 183.95778 263.01388 190.51936 256.76113 194.14025 C 251.33278 195.69564 246.85653 199.5479 244.50962 204.68386 C 243.4655 209.386 240.54395 213.45665 236.42327 215.95072 C 221.82914 217.6442 207.7792 222.49701 195.2509 230.17153 C 194.677 225.94248 195.92128 221.66823 198.67539 218.408 L 232.2581 193.89626 C 243.6236 187.9333 252.86704 178.6016 258.72172 167.17996 C 261.42046 163.85548 265.27164 161.66858 269.50932 161.0542 C 279.91617 159.69292 289.07974 153.52364 294.2563 144.39355 C 297.91576 142.11647 302.21325 141.08336 306.50782 141.4483 C 303.0035 139.64873 298.88775 139.47048 295.24097 140.96034 C 297.6831 135.0192 297.41265 128.3084 294.5003 122.58307 C 295.81557 137.0776 286.16458 150.29502 271.95788 153.45583 C 275.1811 149.27957 275.56647 143.57134 272.9338 138.99975 C 273.9071 145.61994 270.6891 152.15305 264.84747 155.41642 C 260.1094 145.19185 261.7344 133.14707 269.01263 124.54366 C 275.7856 122.85632 281.65995 118.64922 285.43802 112.78013 C 288.07933 107.29071 293.01474 103.25178 298.91816 101.74854 C 293.53225 100.27841 287.8439 102.71629 285.19404 107.63031 C 286.5808 101.59155 286.66398 95.3265 285.43802 89.25305 C 284.3864 95.28957 282.9958 101.26212 281.27286 107.14234 C 279.9743 113.2945 275.1657 118.09966 269.01263 119.39385 C 270.00013 116.92953 269.9291 114.16729 268.81627 111.75697 C 267.70344 109.34666 265.64704 107.50106 263.13086 106.65437 C 266.46716 110.83952 267.0433 116.59065 264.6035 121.35444 C 256.49404 131.57156 253.27098 144.83004 255.7852 157.6297 C 251.54187 165.6683 245.60485 172.69047 238.38386 178.21154 C 240.41764 169.67208 238.72254 160.67063 233.72202 153.45583 C 235.94623 163.15908 235.26435 173.30244 231.76143 182.6207 L 208.73103 197.32947 C 207.9291 198.25384 206.76555 198.7848 205.5418 198.7848 C 204.31806 198.7848 203.15451 198.25384 202.35258 197.32947 C 201.78312 195.47845 202.15049 193.4661 203.33723 191.93567 L 227.35228 144.88152 C 232.10378 138.43027 239.45256 134.39577 247.44615 133.84993 C 242.56362 130.5802 236.07527 131.08845 231.76143 135.07857 C 234.68977 128.32058 236.83003 121.2478 238.13988 114.00005 C 248.92565 105.58896 256.66965 93.88576 260.19434 80.67002 C 254.3752 92.5059 245.5953 102.63655 234.70667 110.07887 C 235.37062 106.76513 234.46694 103.33049 232.2581 100.7726 C 230.5618 96.747 230.1332 92.29988 231.02947 88.02441 C 234.54 81.98317 234.63257 74.54524 231.27346 68.41851 C 232.82427 74.51531 231.1624 80.98213 226.8643 85.57585 C 225.18938 85.87157 223.4892 85.20965 222.45516 83.85925 C 219.6607 80.768685 216.342 78.19633 212.6522 76.26087 C 215.38355 79.01191 217.6943 82.15066 219.50992 85.57585 C 220.94753 88.45352 223.68687 90.45934 226.8643 90.96094 C 226.57734 95.22305 227.24722 99.4954 228.8249 103.46515 C 230.7511 108.71 231.34106 114.35194 230.5415 119.88182 C 229.35983 125.33522 227.109 130.50032 223.91907 135.07857 C 222.22883 129.3 217.3671 125.00784 211.42358 124.04698 C 218.77833 129.21868 221.44692 138.87085 217.79331 147.08609 C 215.69357 152.3514 212.619 157.17314 208.73103 161.29819 C 208.09042 159.0915 206.58515 157.2374 204.55716 156.15709 C 204.31806 155.89651 204.07989 155.6351 203.84263 155.37285 L 201.19365 161.0542 C 203.32146 164.78527 203.74357 169.25073 202.35258 173.31442 C 201.41188 177.74625 198.53383 181.5229 194.51022 183.60534 C 190.53687 179.4388 185.89905 175.96117 180.7861 173.31442 C 174.95867 169.03247 170.06631 163.6064 166.40843 157.3683 L 163.32377 161.31561 C 167.8346 170.75242 175.35774 178.41964 184.70727 183.10866 C 188.50572 186.4105 190.47173 191.34623 189.98379 196.35545 C 189.49584 201.36467 186.61425 205.8282 182.25 208.33492 Z"
                     stroke="black"
                     stroke-linecap="round"
                     stroke-linejoin="round"
                     stroke-width="1.5"/>
            </g>
         </g>
      </g>
   </g>
</svg>