<?xml version="1.0" encoding="utf-8"?>
<svg xmlns="http://www.w3.org/2000/svg" xmlns:dc="http://purl.org/dc/elements/1.1/"
     xmlns:xl="http://www.w3.org/1999/xlink"
     xmlns:xlink="http://www.w3.org/1999/xlink"
     version="1.1"
     viewBox="99 63 166.5 324"
     width="166.5"
     height="324"
     preserveAspectRatio="xMidYMid meet"
     zoomAndPan="magnify"
     contentScriptType="application/ecmascript"
     contentStyleType="text/css">
   <defs/>
   <metadata xmlns="" xmlns:svg="http://www.w3.org/2000/svg"
             xmlns:rdf="http://www.w3.org/1999/02/22-rdf-syntax-ns#"
             xmlns:cc="http://creativecommons.org/ns#">
      <rdf:RDF>
         <cc:Work rdf:about="">
            <dc:creator>
               <cc:Agent>
                  <dc:title>http://heraldicart.org Bear Statant Erect (1).svg</dc:title>
               </cc:Agent>
            </dc:creator>
         </cc:Work>
      </rdf:RDF>
   </metadata>
   <g stroke-opacity="1" stroke-dasharray="none" stroke="#505050" fill="#ffff00"
      fill-opacity="1">
      <title>Bear Statant Erect (1)</title>
      <g>
         <title>Layer 2</title>
         <g>
            <g>
               <path d="M 151.58334 211.31745 L 151.58335 211.31747 C 151.61012 211.3569 151.62464 211.37753 151.62464 211.37753 C 151.79222 211.35673 151.7759 211.34863 151.58334 211.31745 Z M 119.49262 152.64653 C 119.66699 153.8252 120.0754 155.92561 120.91841 156.82798 C 121.32081 157.33208 119.60803 145.27334 122.55602 150.0874 C 123.37556 151.51128 124.91146 160.21816 126.63898 162.25964 C 127.77248 163.68352 126.55054 154.57277 127.77248 155.19037 C 129.10792 155.82124 130.73373 162.0577 132.80027 166.14067 C 134.62655 169.71952 136.97167 166.77006 139.23868 167.77827 C 140.57411 168.39588 142.09822 168.39588 143.03126 169.00022 L 145.37491 170.75132 L 146.30648 172.17667 L 146.09275 174.028 C 143.21993 174.22994 134.94199 169.31712 127.57054 170.24869 C 120.3126 171.05644 114.46674 174.73552 109.86788 178.43967 C 108.83461 179.14571 107.61267 180.58138 107.00833 182.219 C 106.6929 182.93682 109.86788 178.9423 101.88031 188.85933 C 98.21301 193.35796 107.71438 189.3767 106.8064 191.11454 C 104.55119 194.89386 104.95359 198.9901 103.63141 200.94313 C 100.35473 206.05936 106.404 199.6077 108.54571 199.30552 C 109.26354 199.19203 110.38525 199.40575 109.57898 201.347 C 108.83609 202.89765 107.83967 205.44176 108.83609 205.22803 L 111.40673 205.32826 C 116.53475 204.42176 117.14056 202.89765 119.91167 199.19203 C 122.0416 196.23077 123.69099 194.8069 127.77395 194.8069 C 129.7152 194.8069 131.47957 195.8269 132.80175 198.08358 C 133.40608 199.10359 134.32586 200.1118 135.1454 201.44724 L 136.46757 203.79089 C 138.5341 205.0261 140.17171 206.89217 141.78426 207.79867 C 147.41742 210.72548 150.83418 211.19614 151.58334 211.31745 C 151.38571 211.02638 150.5204 209.71052 149.8986 208.10084 C 148.86533 205.7572 148.04579 202.9846 148.76362 203.61548 L 156.9546 210.97366 C 160.83563 214.4508 160.11337 213.46913 160.11337 213.46913 C 160.11337 213.46913 159.79941 218.0282 160.00135 219.66727 C 160.31679 222.3131 160.63222 218.33183 162.1696 222.72876 C 163.27804 226.2177 164.10937 229.885 164.51324 233.87952 C 165.03062 238.38994 164.81541 245.44594 165.95039 246.78138 C 166.15233 246.98332 164.91712 251.99785 165.42122 256.00563 C 165.95039 260.491 160.50693 247.18526 160.63222 249.85613 C 160.7074 251.69568 160.00135 255.17283 158.06157 260.90666 C 157.1418 263.75442 153.67644 269.28632 150.29952 276.1404 C 149.65686 277.47583 149.16455 278.91297 148.44819 280.12164 C 145.48694 285.86727 146.69708 292.7228 146.69708 298.45518 C 146.69708 301.922 143.6474 308.8881 145.285 307.1488 C 146.41132 305.9249 150.20022 301.89907 151.05052 300.79225 C 151.05328 301.21213 151.13115 302.04632 150.6017 303.05404 C 148.04431 308.06856 146.59538 318.62825 148.64865 327.72574 C 150.80216 336.723 148.15781 345.3164 147.82911 346.24647 C 146.0898 350.43114 140.67287 356.77963 139.1355 356.6794 C 136.77858 356.47746 134.01927 357.09506 131.95273 357.09506 C 121.11593 357.4105 116.2149 360.15655 113.0517 363.93734 C 110.15384 367.32753 108.22585 370.18707 106.68848 371.4223 C 105.16437 372.6442 111.28734 370.2873 111.40083 372.1401 C 111.61456 374.48377 109.47285 378.16285 109.25912 381.84194 L 121.11593 375.50377 C 122.24943 376.3351 118.16794 383.2658 117.13467 384.92996 C 116.7308 385.73623 120.20795 383.07715 123.9003 382.45954 C 125.51285 382.15738 135.85734 381.7535 133.81733 381.94217 C 130.73079 382.2576 134.72383 382.66 136.46315 382.66 C 138.52969 382.55978 139.56296 382.45807 144.06158 383.07567 C 148.33322 383.69328 154.07884 382.1559 157.64443 381.34963 C 158.89143 381.12263 162.77246 379.58526 165.83394 376.42207 C 171.1639 371.11716 174.9447 359.7394 177.7158 351.86533 C 178.11968 350.6419 178.21991 356.0603 179.1279 355.14055 C 182.20264 351.86533 183.63979 344.39366 185.59135 341.01674 C 186.51113 339.39093 188.65284 348.3882 188.96827 346.4484 C 189.37067 343.87776 187.74633 338.1572 189.15694 335.91525 L 190.99649 337.62803 C 192.25675 331.6053 197.35972 327.51054 198.37972 322.70974 L 197.75033 321.7767 C 197.35972 321.3743 196.84235 321.68826 197.04428 320.46632 L 196.33824 319.43305 L 195.82087 318.8022 C 195.00133 314.92116 194.59893 313.91442 193.99312 312.9814 C 193.14852 311.9481 194.18179 309.20206 193.86783 307.6647 C 193.7676 306.95864 195.4052 305.19575 195.30497 302.348 C 195.10303 299.27324 196.1363 301.83062 199.7019 314.11636 C 200.62167 317.37978 202.25927 321.17237 204.41425 324.2206 C 206.8714 327.62404 205.54775 330.57202 207.5008 336.0155 C 208.509 339.29217 209.22684 329.14814 210.76422 332.52506 C 213.21547 337.62803 215.78022 342.5556 219.35907 346.4484 L 221.39318 349.49663 C 222.2201 350.32796 223.03816 351.46146 223.03816 352.81016 L 222.736 355.0403 C 223.2401 355.456 221.6128 357.48567 220.06364 359.12475 C 218.7459 360.4587 218.21673 360.15655 216.47741 360.37175 C 212.5905 360.76383 207.60103 360.87586 203.5947 363.03083 L 200.73516 364.468 C 197.96258 366.00535 197.24475 370.6042 195.82087 371.61243 C 193.14852 373.66717 201.75517 369.8864 199.38646 372.0281 C 197.87562 373.56547 197.87562 375.50524 196.6404 377.3448 C 195.30497 379.18433 196.1363 381.2391 195.73243 383.9984 C 195.73243 384.09863 196.43847 384.09863 197.67368 383.2673 C 201.13904 380.92364 201.98216 378.58 201.5547 380.21907 C 201.42941 380.62147 202.0588 382.0586 201.35277 386.36858 C 201.04912 388.5103 204.62798 384.61747 208.91288 383.38226 C 210.86592 382.89142 212.9074 382.36226 215.26432 382.0601 C 216.0765 381.9466 216.6882 382.66443 222.8377 382.7912 C 224.77747 382.89142 225.91097 383.6977 227.75052 383.6977 C 231.74504 383.49576 236.5591 383.89964 240.023 383.49576 L 243.0093 382.3608 C 246.37295 382.15885 248.52793 380.62147 249.9518 379.9169 L 250.98508 380.11884 C 252.52245 378.37953 256.08804 370.7059 258.73386 359.85733 C 259.0493 358.4202 260.1828 356.78258 260.38474 355.2452 C 260.58667 354.01147 261.83367 352.88976 262.22428 351.5661 C 264.0771 345.31785 265.0971 339.2951 264.89663 332.74174 C 264.7964 330.70026 261.9221 326.08813 262.02382 324.14836 C 262.12405 322.40905 264.48096 326.6055 264.59446 324.8544 C 264.6947 322.3088 261.69512 319.63794 261.83515 317.19406 L 263.66142 317.19406 C 263.86336 314.01907 260.38474 311.6489 260.18427 308.68764 L 263.66142 310.7424 C 263.14405 301.83357 254.9678 290.99677 252.62416 284.1309 C 252.29546 283.29957 255.16975 283.42486 256.80735 285.46487 C 257.94233 287.00225 258.94907 288.4276 259.16427 288.53962 L 259.9838 287.60806 C 264.99834 272.46277 262.44096 260.69293 261.83662 255.6784 C 261.11878 249.1265 255.67385 240.63483 255.80062 230.71633 C 255.88906 215.45755 256.08952 199.80816 256.30472 195.41123 C 256.30472 194.08906 259.5814 199.93492 260.47465 198.68792 C 263.2605 195.1975 260.47465 200.74267 260.18575 189.17477 C 260.18575 187.73762 259.88358 187.32196 261.6966 187.6374 L 262.22575 181.08549 L 264.69617 181.90503 C 263.46096 178.33944 261.5212 175.45483 262.33925 174.53506 L 263.35925 175.55506 L 264.59446 176.67677 L 264.48096 173.62708 C 263.25902 172.29164 263.76313 169.92294 263.66142 168.1851 C 263.35925 165.0337 263.66142 162.06213 262.75492 159.59171 C 261.31777 155.50875 259.8821 151.93137 259.57994 148.45274 C 259.16427 144.86062 258.94907 140.67153 258.54667 138.11415 C 258.131 135.24724 256.6069 132.79746 256.49192 131.46792 C 256.49192 130.75155 256.3251 130.29416 255.9972 130.05858 C 255.8172 129.9207 253.47064 120.31714 253.45587 119.96805 C 253.4791 118.99442 253.51515 117.73684 252.52245 115.39549 C 251.7029 113.56184 250.5694 113.95835 249.0453 110.89097 C 248.61637 110.06553 248.11226 112.93834 245.75682 104.541 C 244.82379 101.57385 249.53614 107.31211 250.2422 105.15713 L 247.079 101.57238 C 246.25946 101.57238 246.0472 100.24284 245.56815 99.0209 C 243.5134 94.51637 242.48014 90.31991 238.58732 87.35276 C 226.74378 78.25527 231.83495 76.30813 226.01268 65.97691 C 223.14134 61.05672 219.6686 63.30603 217.82317 65.15147 C 215.37782 67.496595 214.75432 70.06724 214.75432 70.16747 C 211.80485 69.44964 206.3496 70.46374 206.3496 69.7577 C 205.9472 61.77013 197.46732 61.05819 195.7398 69.2418 C 194.80823 73.538495 190.72527 70.87941 186.10135 74.05439 C 182.10683 76.82697 176.79014 87.95857 172.90911 87.56207 C 169.83436 87.2658 163.5979 88.99184 164.51767 88.37424 L 163.18223 88.58207 C 162.06052 88.07797 160.83858 87.16409 159.09927 88.89014 C 157.35995 90.73558 157.86406 94.1007 160.51135 98.10112 C 161.43112 99.42919 161.54462 101.57238 162.17402 102.29611 C 164.1138 104.74736 168.09652 105.36496 167.18854 105.98846 C 166.75961 106.28474 162.17402 108.52815 163.88827 108.52815 L 164.20223 109.04405 L 166.4825 110.5947 L 167.56589 113.56184 C 167.99482 114.37401 167.79288 116.11333 169.61916 116.0131 C 171.48376 115.90549 175.05082 116.22093 176.4865 118.1666 L 177.09083 119.18808 C 178.64 120.51614 180.27908 123.37717 181.81646 127.15796 C 182.5225 128.79557 182.73623 132.26682 181.70296 134.83747 C 178.72844 141.78587 176.57493 148.64142 153.46566 137.59678 C 149.98851 135.95918 148.8668 130.54077 147.5063 123.67344 C 144.35638 107.50668 137.90471 84.69515 113.76365 78.96721 C 109.98433 78.041545 116.22079 81.6263 117.64467 84.07607 C 120.81965 89.3176 117.5695 87.04322 113.76365 84.59345 C 107.22354 80.50459 99.63837 76.6044 107.71438 85.82128 C 109.78091 88.07649 112.42673 89.80254 111.21658 90.52774 C 110.28502 91.25148 106.9081 88.99037 104.66468 88.78843 C 99.92727 88.473 95.54214 87.04322 106.00012 92.27148 C 110.28502 94.4073 112.42673 98.30748 114.07613 102.81201 C 116.43305 109.66018 118.17089 119.1866 116.53328 128.48455 C 115.19676 136.21953 119.54155 154.22978 119.49262 152.64654 Z"/>
               <path d="M 151.58334 211.31745 L 151.58335 211.31747 C 151.61012 211.3569 151.62464 211.37753 151.62464 211.37753 C 151.79222 211.35673 151.7759 211.34863 151.58334 211.31745 Z M 119.49262 152.64653 C 119.66699 153.8252 120.0754 155.92561 120.91841 156.82798 C 121.32081 157.33208 119.60803 145.27334 122.55602 150.0874 C 123.37556 151.51128 124.91146 160.21816 126.63898 162.25964 C 127.77248 163.68352 126.55054 154.57277 127.77248 155.19037 C 129.10792 155.82124 130.73373 162.0577 132.80027 166.14067 C 134.62655 169.71952 136.97167 166.77006 139.23868 167.77827 C 140.57411 168.39588 142.09822 168.39588 143.03126 169.00022 L 145.37491 170.75132 L 146.30648 172.17667 L 146.09275 174.028 C 143.21993 174.22994 134.94199 169.31712 127.57054 170.24869 C 120.3126 171.05644 114.46674 174.73552 109.86788 178.43967 C 108.83461 179.14571 107.61267 180.58138 107.00833 182.219 C 106.6929 182.93682 109.86788 178.9423 101.88031 188.85933 C 98.21301 193.35796 107.71438 189.3767 106.8064 191.11454 C 104.55119 194.89386 104.95359 198.9901 103.63141 200.94313 C 100.35473 206.05936 106.404 199.6077 108.54571 199.30552 C 109.26354 199.19203 110.38525 199.40575 109.57898 201.347 C 108.83609 202.89765 107.83967 205.44176 108.83609 205.22803 L 111.40673 205.32826 C 116.53475 204.42176 117.14056 202.89765 119.91167 199.19203 C 122.0416 196.23077 123.69099 194.8069 127.77395 194.8069 C 129.7152 194.8069 131.47957 195.8269 132.80175 198.08358 C 133.40608 199.10359 134.32586 200.1118 135.1454 201.44724 L 136.46757 203.79089 C 138.5341 205.0261 140.17171 206.89217 141.78426 207.79867 C 147.41742 210.72548 150.83418 211.19614 151.58334 211.31745 C 151.38571 211.02638 150.5204 209.71052 149.8986 208.10084 C 148.86533 205.7572 148.04579 202.9846 148.76362 203.61548 L 156.9546 210.97366 C 160.83563 214.4508 160.11337 213.46913 160.11337 213.46913 C 160.11337 213.46913 159.79941 218.0282 160.00135 219.66727 C 160.31679 222.3131 160.63222 218.33183 162.1696 222.72876 C 163.27804 226.2177 164.10937 229.885 164.51324 233.87952 C 165.03062 238.38994 164.81541 245.44594 165.95039 246.78138 C 166.15233 246.98332 164.91712 251.99785 165.42122 256.00563 C 165.95039 260.491 160.50693 247.18526 160.63222 249.85613 C 160.7074 251.69568 160.00135 255.17283 158.06157 260.90666 C 157.1418 263.75442 153.67644 269.28632 150.29952 276.1404 C 149.65686 277.47583 149.16455 278.91297 148.44819 280.12164 C 145.48694 285.86727 146.69708 292.7228 146.69708 298.45518 C 146.69708 301.922 143.6474 308.8881 145.285 307.1488 C 146.41132 305.9249 150.20022 301.89907 151.05052 300.79225 C 151.05328 301.21213 151.13115 302.04632 150.6017 303.05404 C 148.04431 308.06856 146.59538 318.62825 148.64865 327.72574 C 150.80216 336.723 148.15781 345.3164 147.82911 346.24647 C 146.0898 350.43114 140.67287 356.77963 139.1355 356.6794 C 136.77858 356.47746 134.01927 357.09506 131.95273 357.09506 C 121.11593 357.4105 116.2149 360.15655 113.0517 363.93734 C 110.15384 367.32753 108.22585 370.18707 106.68848 371.4223 C 105.16437 372.6442 111.28734 370.2873 111.40083 372.1401 C 111.61456 374.48377 109.47285 378.16285 109.25912 381.84194 L 121.11593 375.50377 C 122.24943 376.3351 118.16794 383.2658 117.13467 384.92996 C 116.7308 385.73623 120.20795 383.07715 123.9003 382.45954 C 125.51285 382.15738 135.85734 381.7535 133.81733 381.94217 C 130.73079 382.2576 134.72383 382.66 136.46315 382.66 C 138.52969 382.55978 139.56296 382.45807 144.06158 383.07567 C 148.33322 383.69328 154.07884 382.1559 157.64443 381.34963 C 158.89143 381.12263 162.77246 379.58526 165.83394 376.42207 C 171.1639 371.11716 174.9447 359.7394 177.7158 351.86533 C 178.11968 350.6419 178.21991 356.0603 179.1279 355.14055 C 182.20264 351.86533 183.63979 344.39366 185.59135 341.01674 C 186.51113 339.39093 188.65284 348.3882 188.96827 346.4484 C 189.37067 343.87776 187.74633 338.1572 189.15694 335.91525 L 190.99649 337.62803 C 192.25675 331.6053 197.35972 327.51054 198.37972 322.70974 L 197.75033 321.7767 C 197.35972 321.3743 196.84235 321.68826 197.04428 320.46632 L 196.33824 319.43305 L 195.82087 318.8022 C 195.00133 314.92116 194.59893 313.91442 193.99312 312.9814 C 193.14852 311.9481 194.18179 309.20206 193.86783 307.6647 C 193.7676 306.95864 195.4052 305.19575 195.30497 302.348 C 195.10303 299.27324 196.1363 301.83062 199.7019 314.11636 C 200.62167 317.37978 202.25927 321.17237 204.41425 324.2206 C 206.8714 327.62404 205.54775 330.57202 207.5008 336.0155 C 208.509 339.29217 209.22684 329.14814 210.76422 332.52506 C 213.21547 337.62803 215.78022 342.5556 219.35907 346.4484 L 221.39318 349.49663 C 222.2201 350.32796 223.03816 351.46146 223.03816 352.81016 L 222.736 355.0403 C 223.2401 355.456 221.6128 357.48567 220.06364 359.12475 C 218.7459 360.4587 218.21673 360.15655 216.47741 360.37175 C 212.5905 360.76383 207.60103 360.87586 203.5947 363.03083 L 200.73516 364.468 C 197.96258 366.00535 197.24475 370.6042 195.82087 371.61243 C 193.14852 373.66717 201.75517 369.8864 199.38646 372.0281 C 197.87562 373.56547 197.87562 375.50524 196.6404 377.3448 C 195.30497 379.18433 196.1363 381.2391 195.73243 383.9984 C 195.73243 384.09863 196.43847 384.09863 197.67368 383.2673 C 201.13904 380.92364 201.98216 378.58 201.5547 380.21907 C 201.42941 380.62147 202.0588 382.0586 201.35277 386.36858 C 201.04912 388.5103 204.62798 384.61747 208.91288 383.38226 C 210.86592 382.89142 212.9074 382.36226 215.26432 382.0601 C 216.0765 381.9466 216.6882 382.66443 222.8377 382.7912 C 224.77747 382.89142 225.91097 383.6977 227.75052 383.6977 C 231.74504 383.49576 236.5591 383.89964 240.023 383.49576 L 243.0093 382.3608 C 246.37295 382.15885 248.52793 380.62147 249.9518 379.9169 L 250.98508 380.11884 C 252.52245 378.37953 256.08804 370.7059 258.73386 359.85733 C 259.0493 358.4202 260.1828 356.78258 260.38474 355.2452 C 260.58667 354.01147 261.83367 352.88976 262.22428 351.5661 C 264.0771 345.31785 265.0971 339.2951 264.89663 332.74174 C 264.7964 330.70026 261.9221 326.08813 262.02382 324.14836 C 262.12405 322.40905 264.48096 326.6055 264.59446 324.8544 C 264.6947 322.3088 261.69512 319.63794 261.83515 317.19406 L 263.66142 317.19406 C 263.86336 314.01907 260.38474 311.6489 260.18427 308.68764 L 263.66142 310.7424 C 263.14405 301.83357 254.9678 290.99677 252.62416 284.1309 C 252.29546 283.29957 255.16975 283.42486 256.80735 285.46487 C 257.94233 287.00225 258.94907 288.4276 259.16427 288.53962 L 259.9838 287.60806 C 264.99834 272.46277 262.44096 260.69293 261.83662 255.6784 C 261.11878 249.1265 255.67385 240.63483 255.80062 230.71633 C 255.88906 215.45755 256.08952 199.80816 256.30472 195.41123 C 256.30472 194.08906 259.5814 199.93492 260.47465 198.68792 C 263.2605 195.1975 260.47465 200.74267 260.18575 189.17477 C 260.18575 187.73762 259.88358 187.32196 261.6966 187.6374 L 262.22575 181.08549 L 264.69617 181.90503 C 263.46096 178.33944 261.5212 175.45483 262.33925 174.53506 L 263.35925 175.55506 L 264.59446 176.67677 L 264.48096 173.62708 C 263.25902 172.29164 263.76313 169.92294 263.66142 168.1851 C 263.35925 165.0337 263.66142 162.06213 262.75492 159.59171 C 261.31777 155.50875 259.8821 151.93137 259.57994 148.45274 C 259.16427 144.86062 258.94907 140.67153 258.54667 138.11415 C 258.131 135.24724 256.6069 132.79746 256.49192 131.46792 C 256.49192 130.75155 256.3251 130.29416 255.9972 130.05858 C 255.8172 129.9207 253.47064 120.31714 253.45587 119.96805 C 253.4791 118.99442 253.51515 117.73684 252.52245 115.39549 C 251.7029 113.56184 250.5694 113.95835 249.0453 110.89097 C 248.61637 110.06553 248.11226 112.93834 245.75682 104.541 C 244.82379 101.57385 249.53614 107.31211 250.2422 105.15713 L 247.079 101.57238 C 246.25946 101.57238 246.0472 100.24284 245.56815 99.0209 C 243.5134 94.51637 242.48014 90.31991 238.58732 87.35276 C 226.74378 78.25527 231.83495 76.30813 226.01268 65.97691 C 223.14134 61.05672 219.6686 63.30603 217.82317 65.15147 C 215.37782 67.496595 214.75432 70.06724 214.75432 70.16747 C 211.80485 69.44964 206.3496 70.46374 206.3496 69.7577 C 205.9472 61.77013 197.46732 61.05819 195.7398 69.2418 C 194.80823 73.538495 190.72527 70.87941 186.10135 74.05439 C 182.10683 76.82697 176.79014 87.95857 172.90911 87.56207 C 169.83436 87.2658 163.5979 88.99184 164.51767 88.37424 L 163.18223 88.58207 C 162.06052 88.07797 160.83858 87.16409 159.09927 88.89014 C 157.35995 90.73558 157.86406 94.1007 160.51135 98.10112 C 161.43112 99.42919 161.54462 101.57238 162.17402 102.29611 C 164.1138 104.74736 168.09652 105.36496 167.18854 105.98846 C 166.75961 106.28474 162.17402 108.52815 163.88827 108.52815 L 164.20223 109.04405 L 166.4825 110.5947 L 167.56589 113.56184 C 167.99482 114.37401 167.79288 116.11333 169.61916 116.0131 C 171.48376 115.90549 175.05082 116.22093 176.4865 118.1666 L 177.09083 119.18808 C 178.64 120.51614 180.27908 123.37717 181.81646 127.15796 C 182.5225 128.79557 182.73623 132.26682 181.70296 134.83747 C 178.72844 141.78587 176.57493 148.64142 153.46566 137.59678 C 149.98851 135.95918 148.8668 130.54077 147.5063 123.67344 C 144.35638 107.50668 137.90471 84.69515 113.76365 78.96721 C 109.98433 78.041545 116.22079 81.6263 117.64467 84.07607 C 120.81965 89.3176 117.5695 87.04322 113.76365 84.59345 C 107.22354 80.50459 99.63837 76.6044 107.71438 85.82128 C 109.78091 88.07649 112.42673 89.80254 111.21658 90.52774 C 110.28502 91.25148 106.9081 88.99037 104.66468 88.78843 C 99.92727 88.473 95.54214 87.04322 106.00012 92.27148 C 110.28502 94.4073 112.42673 98.30748 114.07613 102.81201 C 116.43305 109.66018 118.17089 119.1866 116.53328 128.48455 C 115.19676 136.21953 119.54155 154.22978 119.49262 152.64654 Z"
                     stroke="black"
                     stroke-linecap="round"
                     stroke-linejoin="round"
                     stroke-width="4"/>
            </g>
            <g>
               <g  id="feature-0">
                  <path
                        d="M 191.51976 84.80275 L 194.00196 84.99142 L 195.92994 86.1323 L 197.05165 87.66378 L 196.74948 88.07944 L 196.54755 88.07944 L 194.90994 88.17967 L 193.87667 88.07944 L 187.95416 88.07944 L 187.652 87.95857 L 188.35804 86.54207 C 189.0626 85.7299 190.29781 84.99142 191.51976 84.80275"
                        fill="#ff0000"/>
               </g>
               <path d="M 191.51976 84.80275 L 194.00196 84.99142 L 195.92994 86.1323 L 197.05165 87.66378 L 196.74948 88.07944 L 196.54755 88.07944 L 194.90994 88.17967 L 193.87667 88.07944 L 187.95416 88.07944 L 187.652 87.95857 L 188.35804 86.54207 C 189.0626 85.7299 190.29781 84.99142 191.51976 84.80275"
                     stroke="black"
                     stroke-linecap="round"
                     stroke-linejoin="round"
                     stroke-width="2"/>
            </g>
            <g>
               <path d="M 175.90317 116.46192 C 175.90317 116.46192 178.2969 118.23574 187.48749 118.35757 C 196.67808 118.4794 208.3438 116.89195 208.3438 116.89195"
                     stroke="black"
                     stroke-linecap="round"
                     stroke-linejoin="round"
                     stroke-width="2"/>
            </g>
            <g>
               <line x1="195.7656" y1="300.02677" x2="190.23843" y2="285.0627" stroke="black"
                     stroke-linecap="round"
                     stroke-linejoin="round"
                     stroke-width="2"/>
            </g>
            <g>
               <path d="M 145.54663 174.85129 C 149.01582 175.25999 150.16654 175.78883 155.95524 175.58399 C 161.74393 175.37914 172.17724 174.47966 180.28228 173.12857 C 188.38733 171.77748 198.3543 170.93903 204.59036 167.47665 C 210.8264 164.01428 212.7895 155.12561 217.70233 152.35224"
                     stroke="black"
                     stroke-linecap="round"
                     stroke-linejoin="round"
                     stroke-width="2"/>
            </g>
            <g>
               <path d="M 242.49014 173.27531 C 242.69373 188.1374 218.1623 195.53652 221.00333 199.38027 C 223.84436 203.22401 221.83892 204.39385 221.83892 204.39385 C 221.83892 204.39385 205.62834 202.2213 208.8036 206.06504 C 211.97888 209.9088 209.91118 209.50238 209.91118 209.50238 C 209.91118 209.50238 191.08894 205.06233 192.4259 209.24031 C 193.76286 213.4183 191.5903 212.74982 191.5903 212.74982 C 191.5903 212.74982 177.82536 207.34308 179.11395 211.4236 C 180.40253 215.5041 179.973 215.4325 179.973 215.4325 C 179.973 215.4325 166.80084 210.06342 168.161 214.57345 C 169.52117 219.0835 167.73148 216.86427 167.73148 216.86427 C 167.73148 216.86427 160.28634 213.0061 160.28634 213.0061"
                     stroke="black"
                     stroke-linecap="round"
                     stroke-linejoin="round"
                     stroke-width="2"/>
            </g>
            <g>
               <path d="M 167.58205 104.85423 C 167.58205 104.85423 170.34136 105.32019 173.51303 105.55291 C 176.6847 105.78564 178.7773 105.6757 178.7773 105.6757"
                     stroke="black"
                     stroke-linecap="round"
                     stroke-linejoin="round"
                     stroke-width="2"/>
            </g>
         </g>
      </g>
   </g>
</svg>