<?xml version="1.0" encoding="UTF-8" standalone="no"?>
<svg
   version="1.1"
   x="0"
   y="0"
   width="346.192"
   height="283.274"
   viewBox="400 -466 346.192 283.274"
   xml:space="preserve"
   id="svg26"
   xmlns="http://www.w3.org/2000/svg"
   xmlns:svg="http://www.w3.org/2000/svg"
   xmlns:rdf="http://www.w3.org/1999/02/22-rdf-syntax-ns#"
   xmlns:cc="http://creativecommons.org/ns#"
   xmlns:dc="http://purl.org/dc/elements/1.1/"><defs
     id="defs30" /><path
     style="clip-rule:evenodd;fill:#0d6793;fill-rule:evenodd;stroke:#000;stroke-width:3;stroke-miterlimit:10"
     d="M623.692-455.726s4.2-5.7 12.6-7.8c4.4-1.1 17.3-2.3 28.6 3.1 10.2 4.8 19.1 15.9 20.5 21.5"
     id="path2" /><path
     style="clip-rule:evenodd;fill:#f6f6f6;fill-rule:evenodd;stroke:#000;stroke-width:3;stroke-linejoin:round;stroke-miterlimit:10"
     d="M425.692-329.126s5.9 16.4 18.7 23c-1.5-5.8-1.1-14.4-.1-20.6M488.692-277.626c-2.9-1.7-6-4-9.1-6.8-2.1 3.9-1.3 10.3 0 15.6m-7.6 4.2c-3.2-2.5-6.5-6.2-9-11.7-4.3 5.3-3.2 12.8-1.3 18.6"
     id="path4" /><path
     style="clip-rule:evenodd;fill:#bc2e2e;fill-rule:evenodd;stroke:#000;stroke-width:3;stroke-miterlimit:10"
     d="M545.192-311.526s-22.3-7.4-43.1-5c-25.3 4-35.4 14-50.7 17-15 3.2-25.4-1.6-32.1-5.2-14.8-7.9-13.8-16.5-17.1-15.1-2.5 4.3 1.8 18.2 13.9 27.1 11.8 8.6 23.6 13.7 48 8.9 14.8-2.9 19.9-8.7 36.7-11.1 7.7-1.1 18.4-.5 30.4 1.1"
     id="path6" /><path
     style="clip-rule:evenodd;fill:#0d6793;fill-rule:evenodd;stroke:#000;stroke-width:3;stroke-linejoin:round;stroke-miterlimit:10"
     d="M729.992-299.526c2.8-10.2-2.1-22.5-2.1-22.5s15.9 2.2 16.8-9c-5-1.6-13.3-.2-18.8-11.5-5.2-12.1.6-20.5-3.7-36.6-3.7-14-8.3-16.8-8.3-16.8s5.5-6.4 5.5-18.7c0-5.8-6.1-18.6-14.8-25.7-9.8-7.9-22.5-9.8-27.1-9.8-8.7 0-14.1 4.6-14.1 4.6s-10.4-17.3-47.3-17.3c-57.9 0-78.1 21.4-89.2 22.4-7.6 2.3-6.7 1.5-11.8 1.7-5.1.2-11.8 10.7-14.7 12.3-12.6 6.7-5 12.7-7.9 16-2.9 3.3-11.9 2-18.4 4.3-6.5 2.4-8.2 4.9-15.9 6.4-7.8 1.5-4.8 7.7-21.6 14.4-3.9 1.4-25.9.6-29.5 7.3-2.2 4-.4 11.1 3 14.9 4.2 10.7 3.5 13.7 2.3 18-1.7 6.2-1.5 11.3-.1 13 2.3 4.1 8.2 4 15.3 5.4 7.2 1.4 15.7 4.2 24.5 4 11.8-.3 20.8-2 28-3.1 19.4-2 28.9 11.1 29.1 28.6.2 12.3-13 11.5-17.4 15.5-4.4 4-9.3 10.5-12.9 10.7-3.6.1-4.1 5.6-8.2 6.5-1.8.4-8.1 1.3-13.8 5.7-2.3 1.8-4.3 2.5-6 2.8-2.6.2-5.3 4.7-1.8 7.5 3.7 3.8 4.2 5.2 12.6 5.6 8.4.4 15.8 11.6 21.2 11.4 5.4-.2 7.9-9 18-6.8 11.7 2.6 16-3 26.5 4.3 6.7 4.6 23.2 2.3 28.8 9.1 0 0 5.1 7 2.9 13.6-2.7 7.1 8-.2 9.6-1.5 2.2-1.9 9.1-8.6 10.7-10.9.4-.6-6.4 14.4-.2 12.7 2.6-.7-1.5 1.4.6 1.6 16.1 1.2 22.1-.5 22.1-.5 1.1 1.9 1.8 6.5 1.8 8.7 0 4.8-2.1 7.7-3.8 9.5 5.3.5 12.4-2.2 16.4-5.7 3.1-2.7 5.5-6.2 8.7-8.7 0 0-.7 4.8-.5 7.3.5 6.5 5.4 12.9 8.7 14.6 2-5.4 1.8-16 12.1-18.7 4.7-1.3 7.5-4.2 8.7-4.8-.4 7.2 6.9 17.7 13.2 20.5-1.4-11.3 8.4-19.2 8.7-33.6 1.2 10.2 5 7.9 10 15.4s3.8 14.3 4.9 12.5c13.3-13.3 10.6-28.2 10.5-32.2 0 0 8.5 12.9 23.9 7.1 1.5-2.9-8.3-4.1-7.7-16.8.6-13.6 11.9-13.2 8.2-29.9 1.9.2 12.3 2 16.8-7.2-20.5-6.5-15.4-17.4-12.5-27.6z"
     id="path8" /><path
     d="M674.292-220.026c0-.1-.1-.2-.1-.3 0-.2-.1-.4-.1-.6-.1-.5-.1-1 0-1.7.1-1.3.4-2.9.8-4.5s.9-3.1 1.2-4.3c.4-1.1.7-1.9.7-1.9l.3.1s-.1.8-.2 2-.3 2.8-.3 4.3c-.1 1.6 0 3.1.2 4.2.1.5.2.9.3 1.2 0 .1.1.2.1.2v-.1z"
     id="path10" /><path
     style="clip-rule:evenodd;fill:#913a6a;fill-rule:evenodd;stroke:#000;stroke-width:3;stroke-miterlimit:10"
     d="M518.292-393.826c.7-2.2 6.2-9 11.6-9.2 5.3-.2 9 5.1 14.5 9.7-1.6 1.7-3.2 6.5-12.4 6.8-9.1.4-13.2-4.5-13.7-7.3z"
     id="path12" /><path
     d="M653.092-431.826c0-1.2.2-2.3.5-3.4.2-.6.4-1.1.7-1.7l.4-.8c.1-.3.2-.5.4-.8l1-1.5 1.1-1.5.1-.2.1-.1.1-.1c.1-.1.1-.1.2-.3l.3-.6c.1-.3.3-.6.5-.9.2-.3.6-.7.9-.9.5-.4.9-.7 1.5-1.1.5-.4 1-.7 1.7-1.1l1.2 2.8c-.9.3-2 .8-3 1.4-.2.1-.3.2-.5.3-.1.1-.3.3-.4.6-.2.3-.4.6-.6.8l-.4.4-.1.1c.1-.1 0 0 0 0l-.2.2-1.3 1.2-1.2 1.3c-.1.1-.3.4-.5.7l-.5.7-.9 1.5c-.5.8-.9 1.9-1.1 3zM513.492-400.126c-.5-.3-1.1-.5-1.7-.7l-.9-.3c-.3-.1-.5-.1-.8-.1-.6 0-1.1.2-1.8.2-.3 0-.7 0-1-.1-.3-.1-.7-.2-.9-.3-.6-.3-1.1-.5-1.7-.9-.3-.2-.5-.3-.8-.6l-.4-.4c-.1-.1-.2-.3-.3-.4-.7-1.1-1.1-2.3-1.6-3.4v.1c-.2-.5-.3-1-.4-1.4l-.1-.6v-.7c0-.8-.1-1.7 0-2.5.1-.9.2-1.7.3-2.5.1-.8.3-1.7.5-2.5.4-1.7 1.1-3.3 2-4.8l.3-.6.3-.5c.3-.4.5-.7.8-1.1.5-.7 1.1-1.3 1.7-2 .6-.6 1.3-1.2 2-1.7s1.5-1 2.2-1.4c.8-.4 1.6-.8 2.4-1.1l1.1-.5.1-.1h.2l.3-.1.6-.2 1.2-.4c.4-.1.8-.2 1.3-.3.2 0 .5-.1.7-.1l.6-.1 1.2-.2c.8-.1 1.7-.2 2.6-.2l2.4-.1h.2l1.6.1h.7c.4 0 .6.1 1 .1 1.2.2 2.2.5 3.3.7h.2c.3.1.8.2 1.2.4l1.4.3c.5.1.9.2 1.4.4.5.2 1 .3 1.6.6l-.1-.1c2 1 3.8 2.4 5.4 3.8.4.4.8.7 1.2 1.1.4.4.8.8 1.1 1.2.7.8 1.4 1.7 2 2.5.3.4.6.9.9 1.3l.9 1.3c.6.9 1.2 1.7 1.8 2.6 1.2 1.7 2.5 3.4 3.7 5.1-1.5-1.5-3-3-4.4-4.5l-2.1-2.4-2-2.4c-.7-.8-1.4-1.5-2.1-2.2-.4-.4-.7-.7-1.1-1l-1.2-1c-1.6-1.3-3.3-2.4-5.1-3.1l-.1-.1c-.2-.1-.6-.2-1.1-.4-.4-.1-.9-.2-1.3-.3l-1.4-.3c-.5-.1-1-.2-1.5-.4l.2.1c-1.1-.2-2.1-.5-3.1-.6h-1.6l-1.6-.1h.1l-2.5.1c-.7 0-1.5.1-2.3.2l-1.2.2-.6.1c-.2 0-.3.1-.5.1-.3.1-.7.2-1.1.3l-1.1.3-.6.2-.3.1h-.1.1l-.1.1-1.1.4-2.1.9c-.7.4-1.3.8-1.9 1.2-.6.4-1.2.9-1.8 1.4-.6.5-1.1 1.1-1.6 1.6-.2.3-.5.6-.7.9-.1.1-.2.3-.3.5l-.3.5c-.8 1.3-1.5 2.7-2 4.1-.3.7-.5 1.5-.6 2.2-.2.7-.3 1.5-.4 2.3-.1.8-.1 1.5-.2 2.4v1.1c0 .4.1.7.1 1v.1c.3 1.1.7 2.3 1.1 3.2.1.1.1.2.2.3.1.1.1.1.2.3.2.2.4.4.6.5.4.4.9.7 1.4 1 .5.3.9.5 1.5.5.5.1 1.1 0 1.8 0 .3 0 .7.1 1 .2l.8.4c1 .6 1.6.9 2.1 1.2zM521.192-294.526c.4.7.8 1.3 1.2 1.9.2.3.4.6.6 1l.1.1s0 .1.1.1l.2.2.4.4c1 1.2 1.9 2.4 2.8 3.7.9 1.3 1.6 2.6 2.3 4 .3.7.7 1.4 1 2.1.3.7.6 1.4.9 2.2.2.7.5 1.5.7 2.3.2.8.3 1.6.5 2.3.3 1.5.4 3 .7 4.5.1.7.3 1.4.4 2.1l.6 2.1c.2.7.5 1.4.8 2.1l.9 2.1-.1-.1c.4.4.7.8 1.1 1.3-.5-.3-1-.5-1.5-.8l-.1-.1-1.5-1.8c-.5-.6-.9-1.3-1.3-2l-.6-1.1-.5-1.1c-.3-.7-.6-1.5-.8-2.3-.4-1.5-.7-3-1.1-4.5-.2-.7-.3-1.4-.5-2.1-.2-.7-.4-1.3-.6-2.1-.2-.7-.5-1.4-.7-2.1l-.8-2.1-.9-2.1-.9-2c-.6-1.4-1.3-2.7-2-4.1l-.3-.5-.2.1-.1-.2v-.1c-.1-.4-.2-.7-.3-1.1-.2-.7-.4-1.5-.5-2.3zM552.892-258.426l-.8-3.2c-.3-1-.6-2.2-1.1-3.6-.4-1.4-1-2.9-1.6-4.6-.6-1.6-1.4-3.4-2.3-5.2-.9-1.8-1.9-3.7-3-5.5-1.1-1.9-2.4-3.7-3.7-5.7-1.3-1.9-2.7-3.9-4-5.9l-3.9-6c-1.2-2-2.3-4.1-3.4-6.1-1-2-2-4-2.8-5.9-.8-1.9-1.6-3.7-2.2-5.4-1.3-3.4-2.1-6.2-2.7-8.3-.5-2-.7-3.2-.7-3.2s.5 1.1 1.3 3c.4.9.9 2.1 1.6 3.4.6 1.3 1.3 2.8 2.1 4.4.8 1.6 1.7 3.3 2.6 5.1.9 1.8 2 3.7 3.1 5.6.5 1 1.1 1.9 1.7 2.9.6 1 1.2 1.9 1.8 2.9 1.2 1.9 2.6 3.9 3.9 5.9 1.3 2 2.6 4 3.9 5.9 1.3 2 2.5 4 3.6 6s2 4 2.8 5.9c.8 1.9 1.4 3.8 1.8 5.6.5 1.8.8 3.4 1 4.8.3 1.5.4 2.7.5 3.8.4 2.2.5 3.4.5 3.4zM507.492-365.126l.9 2.9.4 1.5.2.7.1.4v.2l.1.2c.3 1 .7 1.9 1 2.9l.2.7.3.7.5 1.4v-.1l1.1 2.5.5 1.3.3.6c0 .1.1.3.1.3l.2.3 1.2 2.5 1.2 2.4c.4.8.9 1.6 1.3 2.3l1.5 2.3 1.5 2.3 1.6 2.1 1.7 2.2.2.3c0 .1-.1-.1 0-.1l.1.1.1.1.5.5.9 1 1.8 2.1c.5.6 1.2 1.3 1.8 2 1.2 1.4 2.5 2.7 3.7 4.1l1.8 2.1 1.7 2.2v.1l1.5 2.4c.5.8.9 1.7 1.3 2.5l-.9-1.1c-.3-.4-.6-.7-.9-1.1-.6-.7-1.3-1.4-1.9-2.1v.1l-2-1.9c-.6-.7-1.3-1.3-2-1.9-1.4-1.2-2.7-2.5-4.1-3.7-.7-.6-1.3-1.2-2-1.9l-1.9-2-1-1-.5-.5-.1-.1-.1-.1-.1-.1-.2-.3-1.7-2.2-.9-1.1-.4-.5-.2-.3-.1-.1-.1-.2v-.1l-1.5-2.3-1.4-2.3c-.5-.9-.9-1.7-1.4-2.5-.4-.9-.8-1.7-1.2-2.6l-1.1-2.6-.1-.3c-.1-.2-.1-.2-.1-.4l-.2-.7-.4-1.3-.8-2.6v-.1l-.3-1.5-.2-.7-.2-.8-.6-3v-.8l-.1-.8-.2-1.5c-.3-1-.4-2-.4-3zM534.892-333.726s-.2-.1-.5-.3c-.3-.2-.8-.4-1.4-.8-.6-.4-1.3-.8-2-1.3s-1.7-1.1-2.6-1.9c-.9-.8-1.7-1.6-2.7-2.6l-1.4-1.4c-.2-.2-.5-.5-.7-.8l-.4-.4-.2-.2-.2-.3c-.4-.6-.9-1.1-1.4-1.7-.5-.6-.9-1.1-1.4-1.8-.9-1.2-1.7-2.4-2.7-3.7l-2.4-3.9-2.1-3.9c-.7-1.3-1.2-2.6-1.7-3.8-.5-1.2-1-2.4-1.3-3.5-.4-1.1-.7-2.1-1-3-.3-.9-.5-1.7-.6-2.3-.3-1.3-.4-2.1-.4-2.1s.3.7 1 1.9c.3.6.7 1.3 1.1 2.1.4.8.9 1.7 1.5 2.7.6 1 1.1 2.1 1.8 3.2s1.3 2.3 2.1 3.5c.7 1.1 1.5 2.4 2.3 3.7.8 1.3 1.6 2.5 2.4 3.8.8 1.2 1.7 2.5 2.5 3.7.1.2.4.6.6.9l.6.9 1.2 1.8c.9 1.1 1.7 2.2 2.5 3.2.8.9 1.6 2 2.3 2.8.6.8 1.4 1.5 2.1 2.2l1.7 1.7 1.1 1.1c.1.4.3.5.3.5zM529.692-359.326s-.4.1-1.2.1c-.4 0-.9 0-1.4-.1-.6-.1-1.1-.2-1.8-.4l-.9-.3c-.2-.1-.3-.1-.5-.2l-.2-.1h-.1c-.1-.1-.1 0-.1 0l-.1-.1c-.8-.4-1.4-.8-2.1-1.3-.7-.5-1.4-1-2-1.6-.7-.6-1.3-1.2-1.9-1.9-.6-.7-1.1-1.4-1.6-2.1-.5-.7-.9-1.5-1.3-2.2-.8-1.5-1.3-3-1.6-4.2-.2-.6-.3-1.2-.4-1.8-.1-.5-.1-1-.1-1.4v-1.2s.2.4.5 1.1c.2.3.4.7.6 1.2.3.4.5.9.9 1.5.7 1.1 1.4 2.3 2.3 3.5.5.7.9 1.3 1.4 1.9.5.6 1 1.3 1.5 1.9.5.6 1.1 1.2 1.6 1.8.5.6 1.1 1.1 1.6 1.6.6.5 1.1 1 1.6 1.4.6.4 1.1.8 1.6 1.2.5.3 1 .6 1.4.9.4.2.8.5 1.2.6.7 0 1.1.2 1.1.2zM523.392-376.526s-.3.1-.7.1c-.5 0-1.1-.1-1.9-.3-.3-.1-.8-.3-1.2-.5-.4-.2-.8-.4-1.2-.7l-1.2-.9c-.4-.3-.7-.7-1.1-1.1l-.5-.6c-.2-.2-.3-.4-.5-.6-.3-.4-.5-.9-.8-1.3-.2-.4-.4-.9-.5-1.3-.1-.4-.2-.9-.3-1.2-.1-.4-.1-.8-.1-1.1v-.8c.1-.5.2-.7.2-.7s.2.2.4.6c.1.2.3.4.5.6.2.2.4.5.6.8.2.3.4.6.7.9.2.3.5.6.8 1 .3.3.6.7.8 1 .3.3.6.7.9 1 .3.3.6.7.9 1 .3.3.6.7.9 1 .3.3.6.6.8.9l.8.8c.5.5.9.9 1.2 1.3.3 0 .5.1.5.1zM595.892-329.826c-1.1-.1-2.2-.3-3.3-.5l-1.2-.1c-.2 0-.4-.1-.6-.1l-.6-.2c-.8-.2-1.5-.5-2.2-.6-.2 0-.3-.1-.5-.1h-.6l-1.2-.1h-2.3c-.7 0-1.5.1-2.2.1h-1.5.1-.8c-1.6.1-3.1.2-4.7.3l-2.3.1H570.692l-1.2-.1-2.3-.1h-.6l-.6-.1-1.2-.2c-1.6-.3-3.1-.6-4.6-.9-.8-.2-1.5-.3-2.3-.5l-.2-.1c-.1 0-.2-.1-.3-.1l-.3-.1-.5-.3-1-.5-.1-.1-1-.8-.5-.4-.5-.4c-.7-.6-1.3-1.2-1.8-1.9l-.8-1c-.1-.2-.3-.4-.4-.6l-.3-.5c-.4-.7-.8-1.5-1.2-2.2.6.6 1.2 1.2 1.7 1.8l.4.5c.2.2.3.2.4.4l1 .8c.7.5 1.3 1 1.9 1.4l.5.3.6.3 1.1.6-.1-.1 1.1.4.5.2.3.1h.1l2.3.3c1.5.2 3.1.4 4.6.6l1.1.1h1.1l2.3.1 1.2.1H572.092h-.1.1l2.3-.1c1.6 0 3.1-.1 4.7-.1h1.3l1.1.1c.8 0 1.6.1 2.4.2l2.4.3 1.1.2.6.1c.3 0 .5.1.7.2.8.3 1.5.7 2.2 1l.5.2c.1.1.3.1.5.2l1.1.3c.5.2 1 .4 1.5.7zM558.292-393.226c.5-.2 1-.4 1.6-.6.7-.1 1.4-.2 2.1-.1.4 0 .9.1 1.3.2.2 0 .5.1.7.2l.3.1.2.1h.1c-.1-.1 0 0-.1 0 .8.2 1.7.5 2.5.8h.1c.1 0 .2 0 .3.1.1 0 .4 0 .7.1h.8c.3 0 .6-.1.8-.3.3-.1.5-.3.8-.5l1-.7 2-1.3c.3-.2.4-.2.6-.3l.6-.3c.4-.2.9-.4 1.3-.5l-.2.1c.1 0 .2-.1.2-.1h2.2s.1 0 0 0l.2.1.3.1.1.1.1.1h.2l.1.1.3.5-.8 1.5H577.992h.5l1-1.4-.5-.7-.1-.1h-.1l.2.1.2.1h.1l.1.1.2.2c.4.3.6.7.8 1 .2.3.3.6.4 1v.1c0 .3.1.5.1.7v.4c0 .1 0 .3-.1.5v-.1c-.1.4-.3.9-.5 1.3-.1.2-.2.4-.4.6l-.4.5c-.2.3-.5.6-.8.9l-.2.2-.1.1s-.1.1 0 0l-.1.1s-.2-.1-.3-.1h.5l1.2-.1c.8 0 1.6-.1 2.4-.1-.8.3-1.5.6-2.3.8l-1.1.4c-.2.1-.3.1-.6.2-.3 0-.6-.1-.8-.3-.2-.2-.2-.4-.3-.5-.1-.3-.1-.6.1-1 .1-.2 0-.1.1-.2l.1-.1.1-.3c.2-.3.4-.7.6-1 0-.1.2-.4.3-.5.1-.2.1-.3.2-.5.1-.3.2-.6.2-.9v-.1c0 .1 0 0 0 0v-.2c0-.1 0-.3-.1-.4v.1c0-.1-.1-.3-.2-.4l-.2-.2-.2-.2h.1-.1s-.1 0 0 0h-.1l.2.1h-.2l-.1-.1-.5-.7 1-1.4h.5H578.192l-.8 1.5.4.5.1.1H578.192h-.1l-.3-.1.2.1-.3-.1H576.992s.1 0 .1-.1l-.2.1c-.3.1-.6.2-.9.4-.1.1-.3.2-.5.3-.1.1-.4.2-.5.3l-2 1.3-.5.3-.3.2-.2.1c-.4.3-.8.5-1.3.7-.5.2-.9.3-1.4.3h-.8c-.3 0-.5 0-.9-.2h.2c-.1 0-.3-.1-.5-.1-.2-.1-.5-.1-.8-.3h.1c-.8-.4-1.6-.7-2.4-1.1h-.2l-.1-.1-.3-.1-.6-.3c-.4-.2-.8-.3-1.2-.5-.6-.2-1.2-.3-1.9-.4-.4-.2-1-.2-1.6-.2zM458.692-387.126l.9-.3h.2l.2-.1c.1-.1.3-.2.5-.3l-.2.1.6-.4.2-.2.1-.1.1-.1c.3-.3.7-.6 1.1-.9.7-.6 1.5-1.1 2.2-1.6l4.4-2.9c.8-.5 1.7-1 2.6-1.3.2-.1.5-.2.7-.2h.1c-.1.1 0 0-.1 0l.2-.1.4-.1c.5-.1 1-.2 1.4-.2.6-.1 1.1-.1 1.6 0h.7c.3 0 .5.1.7.2l.8-.2c.3.1.5.2.7.3l.3.2c.2.1.2.1.3.2.2.1.4.3.6.4l-1.4-.1h-.6l-.7.1c-.2 0-.4.1-.6.1h-.1s-.1 0 0 0h-.1l-.3.1c-.4.1-.9.2-1.1.3-.5.2-.9.3-1.2.5l-.2.1-.1.1h-.2l-.5.3c-.7.4-1.4.8-2.1 1.3l-.5.3c-.2.1-.4.3-.6.4-.4.3-.8.5-1.2.7-.8.5-1.6.9-2.4 1.2-.8.4-1.7.7-2.5 1.1l-1.2.5-.3.1c-.1.1-.3.1-.4.1l-.6.2-.2.1H459.892c-.6.2-.9.1-1.2.1zM410.092-363.126c.1-.5.4-1 .7-1.5.3-.5.7-.9 1.2-1.2.5-.3 1-.6 1.6-.8.6-.2 1.2-.3 1.7-.4h-.2c.7-.2 1.3 0 1.8.2l.1.1c.7.4 1.3 1 1.7 1.9v-.1c.4.6.6 1.2.8 1.8.2.6.3 1.1.5 1.7l.2.8.1.4.1.3.3.6c0 .1.1.1 0 .1l-.1-.1s-.1 0-.1-.1H419.592c-.4.1-.8.4-.9.7-.1.2-.2.5-.2.7 0 .3.1.6.2.7l1.8.6c.1 0 .2-.1.2-.1l.1-.1c.1-.1.5-.4.5-.8.1-.4.1-.6 0-.9-.1-.3-.3-.6-.6-.7-.2-.1-.2-.1-.3-.1H420.092h.8c.2.1-.5-.2.6.2-1.4 5.6-.5 1.6-.8 2.8h-.5s-.1 0-.3-.1c-.7 1-1.1-3.2.1-2.8.4-.1.3-.1.4-.1h.1l-.5.1h.6c.1 0 .2-.1.4-.3.2-.1.3-.2.5-.4l.4-.4c.3-.3.6-.6.9-1l.9-1.1 1-1.1.5-.5.5-.5 1.1-1 .2-.2.1-.1.1-.1.3-.2.6-.4.1-.1.8-.5.4-.3.4-.2c.6-.3 1.2-.5 1.9-.6h-.1c.7-.2 1.4-.1 1.9-.1.4.1.7.2 1.1.3-.4 0-.7 0-1 .1-.6.2-1.2.3-1.6.6h-.1c-.5.2-.9.5-1.4.9l-.3.3-.1.1-.2.2-.7.6.1-.1-.5.5-.2.3-.1.1-.1.1.1-.1-.9 1.1-.4.6c-.1.2-.3.4-.4.5l-.9 1.2-.9 1.2c-.3.4-.6.8-1 1.2l-.6.6c-.2.2-.4.4-.7.5-.2.2-.5.3-.8.5-.3.2-.7.3-1.3.4h.3-.1l-.5.1h.1c.1 0 .1 0 .4-.1 1.3.5.8-3.8.1-2.8-.2-.1-.2-.1-.3-.1h-.2.2c-.3 1.3.6-2.8-.8 2.8 1.1.3.4.1.6.2h-.5s-.1 0 0 0h-.9c-.1 0-.1 0-.3-.2-.2-.1-.5-.4-.6-.7-.1-.3-.1-.5 0-.9s.4-.7.6-.8l.1-.1c.1 0 .2-.1.3-.1l1.1-.4.7 1c.1.2.2.5.2.7 0 .3-.1.6-.2.7-.1.3-.5.6-.9.7-.2.1-.2 0-.2 0H419.192c-.1 0-.1 0-.2-.1-.1 0-.1-.1-.2-.1-.1-.1-.2-.1-.3-.2-.1-.1-.2-.1-.3-.2l-.1-.1c-.2-.3-.3-.5-.5-.6-.2-.4-.3-.7-.4-1-.1-.2-.1-.3-.1-.5l-.1-.5-.2-.9-.3-1.7c-.1-.5-.2-1-.4-1.4v-.1c-.1-.4-.4-.8-.7-1l.1.1c-.2-.1-.5-.2-.5-.2h-.2c-.5 0-.9-.1-1.4 0-.2 0-.5 0-.7.1-.2 0-.5.1-.7.2-.4.4-1.2.9-1.9 1.8z"
     id="path14" /><path
     d="m 518.692,-392.126 h -0.6 c -0.1,0 -0.1,0.1 -0.2,0.1 -0.1,0 -0.3,0.1 -0.4,0.1 -0.2,0.1 -0.4,0.1 -0.6,0.2 -0.5,0.2 -1,0.4 -1.5,0.7 -0.6,0.2 -1.2,0.5 -1.9,0.8 -0.7,0.3 -1.4,0.5 -2.2,0.7 -0.8,0.2 -1.6,0.4 -2.4,0.5 -0.8,0.2 -1.7,0.2 -2.5,0.2 h -2.5 c -0.8,-0.1 -1.6,-0.1 -2.4,-0.2 -0.8,-0.1 -1.5,-0.2 -2.2,-0.4 -0.7,-0.1 -1.4,-0.3 -2,-0.4 -0.6,-0.1 -1.2,-0.3 -1.6,-0.4 -0.5,-0.1 -0.9,-0.3 -1.2,-0.4 -0.7,-0.2 -1.1,-0.3 -1.1,-0.3 0,0 0.4,0.1 1.1,0.2 0.4,0.1 0.8,0.1 1.3,0.2 0.5,0.1 1.1,0.2 1.7,0.2 0.6,0.1 1.3,0.2 2,0.2 0.7,0 1.4,0.1 2.2,0.1 0.8,0 1.5,0 2.3,-0.1 l 2.4,-0.3 c 0.8,-0.2 1.6,-0.3 2.3,-0.5 0.8,-0.2 1.5,-0.4 2.2,-0.7 0.7,-0.3 1.3,-0.5 1.9,-0.9 0.6,-0.3 1.2,-0.6 1.7,-0.9 0.5,-0.3 1,-0.6 1.5,-0.8 0.2,-0.1 0.5,-0.2 0.7,-0.4 0.2,-0.1 0.4,-0.2 0.7,-0.3 0.3,-0.1 0.5,-0.2 0.7,-0.2 0.2,0 0.3,-0.1 0.4,-0.1 0.2,0 0.3,-0.1 0.3,-0.1 z"
     id="path423" /><path
     d="m 552.192,-396.126 c 0,0 -1.4,1.7 -3.4,2.8 -0.5,0.3 -1,0.6 -1.5,0.8 -0.3,0.1 -0.5,0.2 -0.8,0.3 -0.3,0.1 -0.5,0.2 -0.7,0.2 -0.5,0.1 -0.9,0.2 -1.2,0.2 h -0.5 l 0.4,-3 c 0,0 0.4,0.2 1.1,0.3 0.2,0 0.4,0 0.6,0.1 h 0.6 c 0.5,0 1,-0.1 1.5,-0.2 1,-0.2 2,-0.5 2.8,-0.9 0.6,-0.4 1.1,-0.6 1.1,-0.6 z"
     id="path421" /><path
     d="m 471.292,-247.726 c 0,0 0.2,0.6 -0.1,1.6 -0.1,0.2 -0.1,0.5 -0.3,0.8 -0.1,0.3 -0.3,0.5 -0.4,0.8 -0.2,0.2 -0.4,0.5 -0.6,0.8 -0.2,0.3 -0.5,0.5 -0.8,0.7 -0.3,0.2 -0.6,0.4 -0.8,0.6 -0.3,0.2 -0.6,0.4 -0.9,0.5 -0.3,0.1 -0.6,0.3 -0.8,0.4 -0.3,0.1 -0.5,0.2 -0.8,0.3 -0.5,0.2 -0.9,0.3 -1.2,0.4 -0.3,0.1 -0.5,0.1 -0.5,0.1 l -0.4,-3 h 1.5 c 0.2,0 0.5,0 0.7,-0.1 0.3,0 0.5,-0.1 0.8,-0.1 0.3,0 0.5,-0.1 0.8,-0.2 0.3,-0.1 0.6,-0.2 0.8,-0.3 0.3,-0.1 0.5,-0.2 0.8,-0.4 0.3,-0.1 0.5,-0.3 0.7,-0.5 l 0.6,-0.6 c 0.2,-0.2 0.3,-0.4 0.4,-0.6 0.4,-0.6 0.5,-1.2 0.5,-1.2 z"
     id="path419" /><path
     d="m 544.092,-385.326 c 0,0 -0.1,0.3 -0.4,0.9 -0.3,0.6 -0.8,1.3 -1.5,2 -0.4,0.4 -0.8,0.7 -1.2,1 -0.3,0.2 -0.5,0.3 -0.8,0.5 -0.2,0.2 -0.5,0.3 -0.8,0.5 l -0.3,0.1 -0.2,0.1 -0.5,0.2 c -0.3,0.1 -0.6,0.3 -0.9,0.4 -0.6,0.2 -1.3,0.4 -2,0.5 -0.7,0.1 -1.4,0.2 -2,0.2 h -2 c -0.6,0 -1.3,-0.1 -1.8,-0.2 -0.6,-0.1 -1.1,-0.3 -1.6,-0.4 -0.5,-0.2 -0.9,-0.4 -1.3,-0.5 -0.4,-0.2 -0.7,-0.4 -0.9,-0.5 -0.5,-0.3 -0.7,-0.6 -0.7,-0.6 h 1.9 c 0.4,0 0.8,0 1.3,-0.1 0.5,0 1,-0.1 1.5,-0.1 0.5,0 1,-0.1 1.6,-0.2 0.6,-0.1 1.1,-0.1 1.7,-0.2 0.6,-0.1 1.2,-0.2 1.7,-0.3 0.6,-0.1 1.2,-0.2 1.8,-0.4 0.5,-0.1 1.1,-0.3 1.6,-0.4 0.3,-0.1 0.6,-0.2 0.8,-0.3 l 0.4,-0.1 0.2,-0.1 h 0.2 c -0.2,0.1 -0.1,0 -0.1,0.1 0.5,-0.2 1,-0.4 1.4,-0.6 0.9,-0.4 1.6,-0.7 2,-1 0.6,-0.4 0.9,-0.5 0.9,-0.5 z"
     id="path417" /><g
     id="eyes"><path
       d="m 532.592,-389.826 c 2.6,0 0.3,-3.8 0.3,-7.8 0,-4 2.7,-5.9 -0.9,-5.9 -3.6,0 -6.1,2.5 -6.1,6.8 0,5.4 4.1,6.9 6.7,6.9 z"
       id="path415"
       style="fill:#0000ff" /></g><path
     d="m 427.892,-360.726 c -0.1,0.5 -0.1,0.9 -0.1,1.4 0,0.5 -0.1,1 -0.3,1.5 l -0.3,0.6 -0.3,0.6 c -0.2,0.4 -0.4,0.9 -0.7,1.3 -0.1,0.2 -0.3,0.4 -0.5,0.6 l -0.6,0.6 c -0.2,0.2 -0.4,0.3 -0.6,0.5 -0.2,0.2 -0.4,0.3 -0.6,0.4 -0.9,0.5 -2,0.9 -3.2,0.9 h 0.1 -1.2 l -0.2,-0.1 h -0.1 c 0,0 -0.1,0 -0.3,-0.1 -0.2,-0.1 -0.4,-0.1 -0.5,-0.2 -0.1,-0.1 -0.3,-0.1 -0.4,-0.2 l -0.4,-0.2 c -0.3,-0.2 -0.5,-0.4 -0.7,-0.6 -0.2,-0.2 -0.4,-0.4 -0.5,-0.7 -0.3,-0.5 -0.5,-1 -0.7,-1.5 -0.1,-0.5 -0.2,-1.1 0,-1.6 0.3,0.5 0.6,0.8 0.9,1.1 0.3,0.3 0.7,0.6 1.1,0.8 0.2,0.1 0.4,0.2 0.5,0.3 0.2,0.1 0.4,0.2 0.5,0.2 l 0.3,0.1 c 0.1,0 0.2,0 0.3,0.1 h 0.6 -0.1 0.5 -0.1 0.2 -0.2 0.5 c 0.6,-0.1 1.2,-0.3 1.8,-0.6 l 0.5,-0.3 0.5,-0.3 c 0.1,0 0.2,-0.2 0.4,-0.3 0.1,-0.1 0.3,-0.2 0.4,-0.4 l 0.9,-0.9 0.5,-0.5 0.5,-0.5 c 0.3,-0.2 0.6,-0.5 0.8,-0.9 0.1,-0.4 0.4,-0.8 0.8,-1.1 z"
     id="path16" /><path
     d="M517.892-398.626c-.1-.8-.3-1.7 0-2.6l.2-.8.1-.4v-.4c.1-.3.3-.6.4-.8l.2-.3.2-.3c.3-.6.7-1.1 1.1-1.5.4-.4.8-.8 1.1-1.2l.2-.1c.9-.6 1.8-1.5 3.2-2l-.2.1c1.2-.6 2.5-.9 3.6-1.2h.1l2.1-.3c.4 0 .7-.1 1.1-.1h1.1c.7 0 1.5 0 2.2.1h.5-.1l.6.1c.4 0 .8.1 1.1.2.4.1.7.2 1 .3l.6.1.5.2 2 .7H541.092l.2.1.5.2c.3.2.6.3.9.5.6.4 1.2.8 1.7 1.3-.7-.2-1.4-.4-2-.5l-1-.2-.5-.1h-.5.1l-2.1-.2-.5-.1h-.1.1-.4l-1-.1h-2c-.7 0-1.3 0-1.9.1l-1 .1c-.3 0-.6.1-.9.1-.6.1-1.3.2-2 .3h.1c-1.2.3-2.2.5-3.1.9l-.1.1c-.8.2-1.7.8-2.9 1.4l.2-.1-1.3.9c-.4.3-.7.6-1 .9l-.3.3-.3.3c-.2.2-.3.4-.4.5v.1-.1l-.1.2-.2.4-.4.7c-.2.3-.4.6-.5 1-.2.4-.3.8-.5 1.2zM644.892-415.126s1.6.6 4.4 1.4c1.4.4 3.1.8 5.1.9 2 .2 4.3.2 6.4-.8.3-.1.5-.3.8-.4.2-.2.5-.3.7-.5.5-.4.8-.9 1.3-1.4.8-1 1.4-2.2 2-3.5 1.2-2.5 2.1-5.4 3.5-8.3.7-1.4 1.6-2.9 2.8-4.2.6-.6 1.3-1.2 2.2-1.6.8-.4 1.8-.7 2.7-.8H679.392c.9.1 1.8.1 2.6.4 1.7.3 3.4.9 5 1.7 1.6.8 3 1.9 4.3 3.1 1.3 1.2 2.2 2.7 3.1 4.2 1.6 3.1 2.2 6.5 2.3 9.7 0 .8.1 1.6 0 2.4 0 .8-.1 1.5-.1 2.3 0 .7-.2 1.5-.3 2.3-.1.7-.2 1.5-.4 2.2-.7 2.9-1.9 5.4-3.1 7.6-1.3 2.2-2.8 4-4.2 5.5-1.5 1.5-2.8 2.6-4 3.5-1.2.9-2.2 1.5-2.9 1.8-.7.4-1.1.5-1.1.5s.4-.2 1-.6c.7-.4 1.6-1.1 2.7-2 1.1-.9 2.4-2.2 3.7-3.7 1.3-1.6 2.6-3.4 3.7-5.6.3-.5.5-1.1.8-1.7.1-.3.3-.6.4-.9l.3-.9c.2-.6.5-1.2.6-1.9.2-.7.3-1.3.5-2s.2-1.4.3-2.1c.1-.7.2-1.4.2-2.1 0-.8.1-1.5.1-2.3.1-.7-.1-1.5-.1-2.2-.2-3-.9-6.1-2.3-8.9-.8-1.4-1.6-2.6-2.7-3.7s-2.4-2-3.8-2.7c-1.4-.7-2.9-1.2-4.5-1.5-.8-.2-1.5-.2-2.3-.3l-1.2-.1h-1.1c-1.4.1-2.7.8-3.7 1.8s-1.8 2.3-2.5 3.6c-1.4 2.7-2.4 5.6-3.7 8.2-1.3 2.6-3 5.1-5.6 6.2-2.5 1-5 .8-7 .5-2-.3-3.8-.8-5.1-1.3-1.4-.5-2.4-.9-3.2-1.2-.9-.4-1.2-.6-1.2-.6z"
     id="path18" /><path
     d="M671.492-400.026s0-.1.1-.2.2-.4.3-.6c.1-.3.2-.6.3-1 .1-.4.1-.8.1-1.3s-.1-1-.3-1.5c-.1-.5-.4-1.1-.6-1.7-.5-1.2-1-2.5-1.5-3.8-.5-1.4-.9-2.8-1-4.2-.1-.7-.1-1.4-.1-2 0-.3 0-.6.1-.9 0-.3.1-.6.1-.9.1-.5.2-1 .4-1.5.1-.4.3-.8.4-1.1.3-.6.5-.9.5-.9s0 .4-.1 1c0 .3-.1.7-.1 1.1v1.4c0 .5.1 1.1.2 1.6.1.6.2 1.2.4 1.8.1.6.3 1.2.5 1.9.2.6.4 1.3.7 1.9.5 1.3 1 2.6 1.3 4 .4 1.3.5 2.7.3 3.9-.1.6-.3 1.1-.5 1.5-.2.4-.5.7-.7 1-.2.3-.4.4-.6.5-.2-.1-.2 0-.2 0zM687.292-403.326c.1-.4.1-.7.2-1.1.1-.4.1-.7.1-1.1 0-.7-.1-1.4-.2-2.1-.2-.7-.4-1.3-.7-1.9-.3-.6-.7-1.1-1.1-1.6l-.1-.1-.3-.4-.4-.4c-.3-.2-.5-.4-.9-.6-.6-.4-1.3-.7-2.1-1-.4-.2-.8-.3-1.2-.6-.4-.3-1-.6-1.3-1.4-.2-.7 0-1.4.2-1.9s.5-.9.8-1.3c.6-.7 1.2-1.3 1.9-1.8s1.3-1.1 2-1.5c.7-.5 1.3-1 1.9-1.5.3-.3.6-.6.7-.9.2-.3.2-.7-.1-1.1.4.2.6.7.5 1.2-.1.5-.3.9-.5 1.2-.5.7-1 1.4-1.6 2-.6.6-1.2 1.2-1.7 1.8-.5.6-1.1 1.2-1.5 1.8-.2.3-.4.6-.5.9-.1.3-.1.4-.1.6 0 0 .1.2.4.3.3.2.7.3 1 .5.8.3 1.6.7 2.3 1.3.4.3.7.6 1.1.9l.5.6.4.6-.1-.1c.6.7.9 1.4 1.2 2.2l.3 1.2c.1.4.1.8.1 1.2 0 .8 0 1.6-.2 2.3 0 .2-.1.4-.2.5-.1.2-.1.4-.2.5-.2.2-.4.5-.6.8zM695.292-377.926s.2-.4.4-1c.1-.3.4-.7.6-1.1.2-.5.6-.9.9-1.4.3-.5.8-1 1.3-1.6.5-.5 1-1.1 1.6-1.6 1.1-1.1 2.4-2.1 3.7-3.2 1.3-1 2.5-2.1 3.7-3 1.1-1 2.1-2 2.9-2.8.4-.4.7-.8 1-1.2.3-.4.5-.7.7-1 .4-.5.6-.9.6-.9l2.5 1.7s-.3.3-.8.9c-.2.3-.6.6-.9 1-.4.4-.8.8-1.3 1.2-.9.9-2.1 1.8-3.4 2.7-1.3.9-2.7 1.8-4 2.6-1.4.9-2.7 1.8-3.9 2.7-.6.4-1.2.9-1.7 1.4-.5.5-1 .9-1.4 1.4-.4.4-.8.9-1.1 1.3-.3.4-.6.7-.7 1.1-.5.5-.7.8-.7.8zM469.992-252.526s.1-.1.3-.4c.2-.2.4-.5.9-.9.4-.3 1-.7 1.7-1.1.7-.4 1.4-.7 2.3-1.1.8-.3 1.7-.7 2.7-1.1.9-.4 1.9-.8 2.9-1.3.5-.2 1-.5 1.5-.7.5-.3 1-.6 1.4-.8.5-.3.9-.6 1.4-.9l1.4-1 1.3-1.1c.4-.4.9-.8 1.3-1.2l1.2-1.2c.4-.4.8-.8 1.1-1.2.7-.8 1.4-1.6 1.9-2.4.6-.8 1.1-1.6 1.6-2.4.5-.8 1-1.5 1.6-2 .5-.6 1.1-1 1.6-1.2.5-.3.9-.4 1.1-.5.3-.1.4-.2.4-.2l-.3.3c-.1.1-.2.2-.4.3l-.5.5c-.3.4-.7.9-1 1.5-.3.6-.6 1.3-1 2.2-.3.8-.7 1.8-1.2 2.7-.5 1-1.1 2-1.8 2.9-.7 1-1.5 1.9-2.3 2.8l-1.3 1.3-1.4 1.2-1.5 1.1c-.5.3-1.1.7-1.6 1-1.1.6-2.2 1.1-3.3 1.5-1.1.4-2.2.7-3.2 1-1 .3-2 .5-2.9.6-.9.2-1.7.3-2.4.5s-1.3.3-1.8.5c-.4.2-.8.4-1.1.5l-.6.3zM725.692-262.826h-.2c-.1 0-.3 0-.5-.1-.4-.1-.9-.2-1.5-.4-1.2-.4-2.7-1-4-1.8-.7-.4-1.4-.8-2-1.2-.6-.4-1.1-.8-1.6-1.2-.5-.4-.8-.7-1.1-.9-.3-.2-.4-.4-.4-.4l.2-.2s.2.1.5.3c.3.2.7.4 1.2.7.5.3 1.1.5 1.8.8.7.3 1.4.5 2.1.7 1.4.4 2.9.7 3.9.8.5 0 1 .1 1.3.1h.4zM727.892-320.626s-.2 0-.6-.1c-.2 0-.4-.1-.7-.1-.3-.1-.7-.2-1.1-.3-.4-.1-.8-.3-1.1-.4-.4-.1-.8-.3-1.2-.6-.4-.2-.8-.5-1.2-.7-.4-.2-.8-.6-1.1-.8-.7-.6-1.4-1.3-1.9-1.9-.6-.6-1-1.3-1.4-1.8-.8-1.1-1.2-1.9-1.2-1.9l.3-.2s.5.7 1.5 1.6c.5.5 1 1 1.7 1.5.6.5 1.4 1 2.1 1.4.4.2.7.4 1.1.5.4.2.7.3 1.1.4.4.1.7.2 1.1.3.3.1.7.1.9.1.3 0 .5 0 .7.1H728.192z"
     id="path20" /><path
     style="clip-rule:evenodd;fill:none;fill-rule:evenodd;stroke:#000;stroke-width:2.5;stroke-linecap:round;stroke-linejoin:round;stroke-miterlimit:10"
     d="M652.492-301.826c-.9 1.1-1.3-1.4-2.4-3.3-1-1.7-2.8-2.8-2.8-2.8s-1.8 19.8-14.3 30.6c-1.9 1.3-1-1.9-1.4-5.4-.4-3.2-2-6.7-2-6.7s-5.4 21.9-20.4 34.7c-2.5 2.1-3 2.1-2.1-1.1m.3 18.4s.2 9.7-1 14.5c6.2-1.5 13.2-15.4 13.2-15.4s2.2 3.6 1.8 8.5"
     id="path22" /><path
     d="M605.792-255.926s.1-.3.2-.7c.2-.5.3-1 .5-1.8.3-1.6.7-3.7.9-5.9.3-2.2.6-4.4 1.1-6 .1-.4.3-.8.4-1.1.1-.3.3-.6.4-.8.3-.4.4-.6.4-.6s-.1.2-.3.7c-.1.2-.2.5-.3.8-.1.3-.2.7-.2 1.1-.3 1.6-.3 3.8-.3 6s0 4.4-.1 6.1c-.1.8-.2 1.6-.2 2.1-.1.5-.1.8-.1.8zM652.492-321.626s2 4.8 2.7 9.9c.4 2.6.4 5.3-.2 7.3-.1.5-.3 1-.5 1.4l-.5 1c-.2.3-.3.5-.4.6l-.2.2-1.9-1.7.1-.1c.1-.1.2-.2.3-.4.1-.2.3-.4.5-.7.2-.3.3-.6.5-1 .7-1.6 1-4.1.9-6.6 0-2.5-.4-5-.8-6.9-.2-1.7-.5-3-.5-3zM620.592-230.726l.3-.3c.1-.1.2-.2.4-.3l.4-.4c.3-.3.6-.7 1-1.2s.8-1.1 1.2-1.8c1.7-2.7 3.5-6.7 5-10.8 3.1-8.2 5.2-16.7 5.2-16.7s-1.5 8.7-4 17.1c-1.3 4.2-2.8 8.4-4.4 11.4-.4.8-.8 1.4-1.2 2-.2.3-.4.6-.6.8-.2.3-.4.5-.5.7-.2.2-.3.4-.5.6l-.3.3-.3.3zM671.992-281.326c-.5 1.8-.9 3.6-1.2 5.4-.3 1.8-.5 3.7-.7 5.5-.1.9-.1 1.8-.1 2.7v2.7c0 .9.1 1.8.2 2.7.1.9.2 1.8.4 2.7.2.9.4 1.8.6 2.6.1.4.2.9.4 1.3.1.4.3.8.4 1.3.2.4.3.8.5 1.2l.6 1.2c.4.8.8 1.6 1.3 2.3l1.5 2.1c.3.3.6.7.9 1l.9.9.9.9 1 .8c.7.6 1.4 1 2.1 1.6l.1.1c.1 0 .1.1.2.1h.1s-.1 0-.1.1l-.1.1v-.2l-.1-.3c-.1-.7-.3-1.3-.4-2-.1-.7-.2-1.3-.2-2-.1-.7 0-1.3 0-2s.1-1.3.2-2 .2-1.3.4-2c.2-.6.4-1.3.6-1.9.5-1.2 1-2.4 1.7-3.5l.2-.4v.1-.1l.1-.2c.1-.3.3-.6.4-.8.2-.5.4-1.1.6-1.7.4-1.1.7-2.3.9-3.5.4-2.4.7-4.9.6-7.3l.5-.1c.5 2.5.6 5 .4 7.6-.1.6-.1 1.3-.2 1.9-.1.6-.2 1.3-.4 1.9-.1.6-.3 1.3-.5 1.9l-.3.9-.1.2V-257.226l-.2.4c-.5 1.1-1 2.2-1.3 3.3-.2.6-.3 1.1-.4 1.7-.1.6-.2 1.1-.3 1.7-.1.6-.1 1.2-.1 1.7 0 .6 0 1.2.1 1.7 0 .6.1 1.1.3 1.7.1.6.3 1.1.4 1.7l-.1-.3c.3.5.4 1.2.3 1.9 0 .3-.2.7-.3 1-.2.3-.4.6-.8.9-.3.2-.7.4-1.1.5-.4.1-.7 0-1.1 0-.2 0-.3-.1-.5-.1s-.3-.1-.4-.2c-.3-.1-.5-.3-.7-.4l.1.1c-.8-.6-1.6-1.1-2.4-1.7l-1.1-.9c-.4-.3-.7-.7-1.1-1-.4-.3-.7-.7-1-1.1-.3-.4-.7-.7-1-1.1-.6-.8-1.2-1.6-1.7-2.4-.5-.8-1-1.7-1.4-2.6-.4-.9-.8-1.8-1.1-2.7-.2-.5-.3-.9-.4-1.4-.1-.5-.3-.9-.4-1.4-.2-.9-.4-1.9-.5-2.9-.1-1-.2-1.9-.2-2.9-.1-1 0-1.9 0-2.9s.1-1.9.2-2.9c.1-.9.2-1.9.4-2.8.7-3.7 1.8-7.4 3.5-10.7zM660.092-259.526c1.8 3.3 3.1 6.9 4 10.5.2.9.4 1.9.6 2.8.2.9.3 1.9.4 2.8.1 1 .2 1.9.2 2.9v2.9c-.1 1-.2 1.9-.3 2.9-.1.5-.2 1-.3 1.4-.1.5-.2 1-.3 1.4-.2.9-.6 1.9-.9 2.8-.4.9-.8 1.8-1.3 2.7-.4.9-1 1.7-1.5 2.5l-.9 1.2c-.3.4-.6.8-.9 1.1-.3.4-.7.7-1 1.1l-1.1 1c-.7.7-1.5 1.2-2.3 1.9l.1-.1c-.2.2-.4.3-.7.5-.1.1-.2.1-.4.2s-.3.1-.5.2c-.3.1-.7.1-1.1.1-.4 0-.8-.2-1.1-.4-.3-.2-.6-.5-.8-.8-.2-.3-.3-.7-.4-1-.1-.7 0-1.4.2-1.9l-.1.3c.1-.6.3-1.1.3-1.7.1-.6.1-1.1.1-1.7v-1.7c-.1-.6-.1-1.1-.2-1.7-.1-.6-.2-1.1-.4-1.7-.1-.6-.3-1.1-.5-1.7-.4-1.1-.9-2.1-1.5-3.2l-.2-.4v-.1l-.1-.1v-.1l-.1-.2c-.1-.3-.3-.6-.4-.9-.2-.6-.5-1.2-.7-1.9-.2-.6-.4-1.2-.5-1.9-.1-.6-.2-1.3-.3-1.9-.4-2.5-.4-5.1-.1-7.6h.5c.1 2.5.5 4.9 1.1 7.3.3 1.2.7 2.3 1.1 3.4.2.6.5 1.1.7 1.6.1.3.3.5.4.8l.1.2.1.1c-.1-.1 0 0 0-.1l.3.4c.7 1.1 1.4 2.2 1.9 3.4.3.6.5 1.2.7 1.9.2.6.4 1.3.5 1.9.2.7.2 1.3.3 2 0 .7.1 1.3.1 2s0 1.3-.1 2c0 .7-.2 1.3-.3 2l-.1.3v.2s0-.1-.1-.1c-.1-.1-.2 0-.1 0h.1c.1 0 .1-.1.2-.1l.1-.1c.7-.6 1.4-1.1 2-1.7l1-.9.9-1c.3-.3.6-.6.9-1 .3-.3.6-.7.8-1 .5-.7 1-1.4 1.4-2.2.5-.7.8-1.6 1.2-2.4l.5-1.2c.2-.4.3-.8.4-1.3.1-.4.3-.8.4-1.3.1-.4.2-.9.3-1.3.2-.9.3-1.8.4-2.6.1-.9.2-1.8.2-2.7.1-.9 0-1.8 0-2.7 0-.9-.1-1.8-.1-2.7l-.3-2.7c-.3-1.8-.6-3.6-1-5.4-.5-1.9-.9-3.7-1.5-5.5zM683.392-306.426c0 1.9.2 3.7.5 5.5.2 1.8.6 3.6 1 5.4.2.9.4 1.8.7 2.7.3.9.5 1.7.8 2.6.3.9.6 1.7 1 2.5.3.8.8 1.6 1.2 2.4.4.8.8 1.6 1.3 2.3.2.4.5.7.7 1.1.3.4.5.7.8 1.1.3.3.5.7.8 1l.9 1c.6.6 1.2 1.3 1.9 1.8.7.6 1.4 1.1 2.1 1.6.4.2.7.5 1.1.7.4.2.7.4 1.1.6l1.2.6 1.2.5c.8.4 1.7.6 2.5.9h.1c.1 0 .2.1.2.1h.1s-.1 0-.1.1c-.1.1 0 .1 0 .1s0-.1-.1-.2l-.2-.2c-.3-.6-.7-1.1-1-1.8-.3-.6-.6-1.2-.8-1.8-.3-.6-.4-1.3-.6-1.9-.1-.7-.3-1.3-.4-2-.1-.7-.1-1.3-.2-2v-2c.1-1.3.3-2.6.6-3.9l.1-.4v-.1.1V-288.326c0-.3.1-.6.1-.9.1-.6.1-1.2.1-1.8 0-1.2 0-2.4-.2-3.6-.3-2.4-.8-4.8-1.5-7.2l.4-.2c1.2 2.2 2.1 4.6 2.6 7.1.1.6.3 1.3.3 1.9.1.6.2 1.3.2 1.9 0 .6.1 1.3 0 2V-287.726l-.1.5c-.2 1.2-.3 2.4-.3 3.5 0 .6 0 1.2.1 1.7.1.6.1 1.2.3 1.7.1.6.3 1.1.4 1.7.2.5.3 1.1.6 1.6.2.5.5 1.1.7 1.6l.9 1.5-.2-.2c.4.4.8 1 .9 1.7.1.3 0 .7 0 1.1-.1.4-.2.7-.5 1-.2.3-.6.6-.9.7-.3.2-.7.3-1 .3h-.5c-.2 0-.3 0-.4-.1-.3 0-.5-.1-.8-.2h.1c-.9-.3-1.9-.6-2.8-.9l-1.4-.6c-.4-.2-.9-.4-1.3-.7-.4-.2-.9-.5-1.3-.7-.4-.3-.8-.5-1.2-.8-.8-.6-1.6-1.2-2.3-1.8-.8-.6-1.4-1.4-2.1-2.1-.6-.7-1.3-1.5-1.8-2.3-.3-.4-.6-.8-.8-1.2-.3-.4-.5-.8-.8-1.2-.5-.8-.9-1.7-1.3-2.6-.4-.9-.7-1.8-1.1-2.7-.3-.9-.6-1.8-.8-2.7-.3-.9-.5-1.9-.6-2.8-.2-.9-.3-1.9-.4-2.8-.4-3.8-.5-7.6.1-11.3zM679.992-337.826c.1 1.5.2 3 .5 4.4.2 1.5.5 2.9.8 4.3l.6 2.1c.2.7.4 1.4.7 2.1.2.7.5 1.4.8 2 .3.7.6 1.3.9 1.9.3.6.7 1.2 1.1 1.8.4.6.8 1.2 1.2 1.7.4.6.9 1.1 1.4 1.6.5.5 1 1 1.5 1.4.5.5 1.1.8 1.6 1.2.6.4 1.2.7 1.8 1l.9.5 1 .4c.6.3 1.3.5 2 .7h.2s-.2.1-.3.2c-.1.1-.1.3-.1.3 0 .1 0 .1 0 0l-.2-.2c-.3-.5-.6-.9-.8-1.4-.2-.5-.5-1-.6-1.5-.2-.5-.3-1-.5-1.6-.1-.5-.2-1.1-.3-1.6-.1-.5-.1-1.1-.1-1.6v-1.6c.1-1.1.2-2.1.5-3.1l.1-.3v.1V-323.326c0-.2.1-.5.1-.7 0-.4.1-.9.1-1.4 0-.9 0-1.9-.1-2.9-.2-1.9-.6-3.9-1.1-5.8l.4-.2c1 1.8 1.7 3.7 2.2 5.7.2 1 .4 2 .5 3.1 0 .5.1 1.1.1 1.6V-322.626l-.1.4c-.1 1-.2 1.9-.2 2.8 0 .5 0 .9.1 1.4.1.5.1.9.2 1.3s.2.9.3 1.3c.2.4.3.9.5 1.3l.6 1.2c.2.4.5.8.7 1.2l-.2-.2c.4.4.7.9.8 1.5.1.6 0 1.4-.5 1.9-.4.6-1.2.9-1.8.9h-.8c-.3 0-.5-.1-.7-.2h.1c-.8-.3-1.5-.4-2.3-.8l-1.1-.5c-.4-.2-.7-.4-1.1-.5-.7-.4-1.4-.8-2-1.2-.6-.5-1.3-.9-1.9-1.5-.6-.5-1.2-1.1-1.7-1.7-.5-.6-1-1.2-1.5-1.9-.5-.6-.9-1.3-1.3-2s-.7-1.4-1.1-2.1c-.3-.7-.6-1.4-.8-2.2-.3-.7-.5-1.5-.7-2.2-.4-1.5-.6-3-.8-4.5-.3-3-.3-6.1.2-9zM595.392-227.326s.2-.1.6-.2c.2-.1.5-.2.7-.3.3-.2.6-.3.9-.5.3-.2.7-.4 1-.7.3-.3.7-.5 1-.8.7-.6 1.4-1.3 2.1-2 1.3-1.4 2.5-3 3.4-4.2.4-.6.8-1.1 1-1.5.2-.3.4-.5.4-.5.4-.6 1.2-.7 1.7-.4.6.4.7 1.2.4 1.7 0 .1-.1.1-.1.2l-.5.5c-.3.3-.7.8-1.3 1.3-1.1 1.1-2.6 2.5-4.2 3.8-.8.6-1.6 1.2-2.4 1.7-.4.3-.8.5-1.2.7-.4.2-.8.4-1.1.5-.3.2-.7.3-1 .4-.3.1-.5.2-.8.2-.4.1-.6.1-.6.1zM623.792-207.126s.1-.1.3-.2c.2-.1.5-.3.8-.5.7-.4 1.6-1.1 2.5-1.8.9-.7 1.8-1.4 2.4-2l1-1s-.2.5-.7 1.3c-.4.8-1 1.8-1.7 2.7-.7 1-1.3 1.9-1.9 2.6-.3.3-.5.7-.7.9l-.3.3zM600.892-210.926l.6-.3c.2-.1.5-.2.8-.4.3-.1.7-.3 1-.4 1.5-.6 3.5-1.2 5.5-1.9s3.9-1.4 5.3-2.1c.7-.3 1.3-.7 1.6-.9.2-.1.3-.3.4-.4l.1-.1s0 .1-.1.2-.1.3-.3.4c-.3.3-.8.8-1.5 1.2-1.3.9-3.1 2-4.9 3-1.8 1-3.7 2-5 2.8-.3.2-.6.4-.9.5-.2.2-.4.3-.6.4-.4.3-.6.4-.6.4zM653.092-209.026s.5-.1 1.3-.3c.8-.2 1.8-.4 2.8-.7 2-.6 4-1.4 4-1.4s-1.6 1.4-3.3 2.7c-.9.6-1.8 1.3-2.4 1.7-.7.4-1.1.7-1.1.7zM577.992-224.326s.2-.2.4-.5c.3-.3.7-.8 1.1-1.5.4-.6.9-1.4 1.4-2.2.5-.8 1-1.7 1.4-2.7.2-.5.4-1 .6-1.4.2-.5.3-1 .4-1.4.1-.5.2-.9.3-1.4 0-.4.1-.9.1-1.2v-1.1c0-.3-.1-.6-.1-.8-.1-.5-.1-.7-.1-.7s.1.3.2.7c.1.2.2.5.2.8.1.3.1.7.2 1.1 0 .4.1.8.1 1.3v1.5c-.1.5-.1 1-.2 1.6-.1.5-.2 1.1-.3 1.6-.3 1.1-.6 2.1-.9 3.1-.4 1-.7 1.8-1.1 2.6-.4.7-.7 1.4-.9 1.8-.2.4-.4.7-.4.7zM699.492-224.926v-2.7c0-1.6 0-3.7-.1-5.9-.1-2.1-.3-4.3-.5-5.8 0-.4-.1-.8-.2-1.1-.1-.3-.1-.6-.2-.8-.1-.5-.2-.7-.2-.7l.3-.1s.1.3.3.7c.1.2.2.5.3.8.1.3.2.7.3 1.1.5 1.6 1 3.7 1.4 5.8.4 2.1.8 4.3 1 5.9.2 1.6.4 2.7.4 2.7z"
     id="path24" /><path
     style="fill:#ffff00;fill-rule:evenodd;stroke:#000000;stroke-width:0.750847"
     d="m 215.60912,4.4368215 c -16.49192,-0.1034631 -33.06539,1.6254616 -48.91841,6.3107735 -11.98683,3.370278 -22.99485,9.288598 -34.31598,14.319513 -5.3651,1.871676 -10.92769,3.433843 -16.66408,3.257624 -4.06114,0.483658 -6.53163,4.284997 -9.33572,6.845592 -2.6002,2.841745 -5.43642,5.46278 -8.731926,7.46964 -2.422829,1.71821 -4.230414,4.560349 -3.575645,7.626223 0.284175,2.528579 0.430488,6.214626 -2.455262,7.289172 -6.614478,2.474743 -14.1782,1.354839 -20.500784,4.84376 -4.595216,2.450256 -9.488508,4.286219 -14.54717,5.497048 -3.892697,2.379754 -6.43548,6.47519 -10.31148,8.93497 -4.668823,3.171662 -9.991102,5.551559 -15.696196,5.749285 -6.723491,0.847125 -13.834394,0.814034 -20.06701,3.76895 -2.1703363,1.015715 -3.3851292,3.323404 -3.0133178,5.688008 -0.089247,3.447786 0.7202379,7.243886 3.2739538,9.68155 0.567643,-0.23618 0.16079,1.35639 0.676635,1.74399 2.562253,5.6583 3.65289,12.12298 1.948051,18.17522 -0.889283,3.82421 -1.655036,8.13888 -0.02832,11.86179 2.112299,2.97313 6.268603,2.99694 9.494107,3.83274 8.288226,1.30771 16.365725,3.91449 24.745275,4.60496 10.746941,0.47367 21.441988,-1.10887 32.01624,-2.71988 7.066488,-0.73245 14.832342,0.21054 20.458379,4.95695 3.58001,2.94966 6.24525,6.73393 7.79792,11.10351 1.91678,5.2348 2.8998,11.16032 2.10627,16.74328 -0.8289,5.21884 -5.85206,8.06942 -10.333364,9.82113 -2.880753,1.30249 -6.314764,1.67656 -8.256536,4.45054 -3.607835,3.13888 -6.621311,7.30887 -10.990024,9.38226 -2.460756,0.3372 -4.13224,2.19477 -5.540695,4.08354 -2.076699,3.12892 -6.214141,2.94601 -9.371584,4.21951 -5.045288,1.27519 -8.661191,5.49253 -13.630428,6.8692 -2.406842,0.15463 -4.498462,3.61355 -2.277738,5.41405 2.356188,2.63055 5.129027,5.4959 8.954967,5.4216 3.6932,0.1151 8.024763,2.09806 11.2747,-0.60882 0.550941,-0.45662 1.025305,-0.97299 0.437283,-0.0207 -0.351045,1.1795 -2.18438,1.58358 -2.110425,2.82434 4.585581,2.8377 8.425056,6.8518 13.299799,9.2196 2.776494,1.01107 5.110089,-1.65091 7.209835,-3.05098 3.151245,-2.74328 7.434324,-4.23102 11.55334,-3.52959 5.35913,1.09453 10.81485,0.62006 16.23412,0.58327 5.00756,-0.19472 9.30392,2.60848 13.53644,4.85744 8.10577,3.24062 17.63459,1.86987 25.1671,6.68389 3.86434,3.15764 5.57726,8.36608 5.45937,13.27847 0.0297,1.57578 -0.6306,3.13286 -0.75725,4.67613 1.80389,-0.01 3.61562,-1.33839 5.23207,-2.26974 5.40268,-3.80642 10.01634,-8.6709 14.24502,-13.71575 1.86024,-2.65546 3.41766,-5.55654 4.37349,-8.663 -0.37987,7.71227 -6.16855,14.21982 -6.06196,22.02146 1.23752,0.0824 3.23701,-0.83427 3.65157,1.04988 1.84925,1.15401 4.33018,0.53404 6.41593,0.85457 6.51091,0.18557 13.1874,-0.12205 19.25867,-2.72497 1.67033,-0.58504 3.33875,-1.1766 4.99053,-1.81251 -2.6998,1.89276 -6.05023,3.00375 -8.39036,5.32138 0.8784,3.87422 1.67386,7.85614 0.72725,11.83864 -0.0603,1.4501 -1.58157,2.96409 -1.13854,4.41949 2.15498,0.37981 4.31412,-1.06262 6.34794,-1.67114 6.32353,-2.18834 10.05004,-8.0586 15.04426,-12.11861 1.45779,-1.30795 2.98464,-2.53716 4.59214,-3.65691 -1.26387,2.2385 -3.54835,4.15157 -3.26896,6.96987 -0.43361,4.16971 -0.074,8.54519 2.27588,12.14573 1.11319,1.79641 2.19622,3.85351 4.0374,4.98696 1.17575,-0.53611 0.94394,-2.46619 1.48316,-3.53441 1.16047,-5.46307 3.91768,-11.21847 9.4648,-13.34373 3.58222,-1.11494 6.95711,-2.75747 9.94096,-5.04467 1.78803,-1.07892 4.01417,-1.02374 5.93931,-1.80779 -1.25394,1.28509 -3.56861,2.15258 -3.91355,4.05753 1.07181,6.31614 4.92004,11.98726 9.71222,16.11948 1.40589,0.5204 1.25447,-1.86139 1.55515,-2.69903 1.72512,-9.61854 8.64523,-17.93678 8.24638,-28.04209 -0.12461,-3.56498 0.91346,-7.01771 1.83912,-10.4188 0.17288,5.51156 -0.57041,11.64189 2.55971,16.50876 3.61639,4.45001 8.71004,8.12582 10.41346,13.79241 0.71294,1.76372 0.99112,3.75463 1.89178,5.39405 1.93973,-1.28583 3.23229,-3.67395 4.51215,-5.68535 3.9845,-6.7804 5.02906,-14.83049 4.4299,-22.56768 -0.1752,-4.77043 -0.38549,-9.54281 -0.80698,-14.29873 1.10425,3.71368 1.35397,7.59493 2.40172,11.28469 2.5215,4.91465 7.90615,7.94716 13.21714,8.88698 2.66944,0.31182 5.60177,0.27142 8.08174,-0.78924 0.73723,-1.45865 -1.5875,-2.44268 -2.19908,-3.5176 -4.32245,-4.2754 -5.36107,-10.8681 -3.97088,-16.56675 1.32179,-6.88772 8.20548,-11.74616 8.26867,-19.04951 -0.1533,-1.9904 0.74515,-5.25371 -1.77075,-6.10026 -2.32071,-0.70079 -4.5902,-2.15867 -6.40793,-3.42894 3.02032,1.15014 6.3096,2.35908 9.5297,1.66482 3.59573,-0.15642 7.56659,0.29395 10.63531,-2.05744 1.12309,-0.93349 3.20008,-1.8204 3.11164,-3.50359 -2.41867,-1.61971 -5.45002,-2.34292 -7.74178,-4.27351 -3.58802,-2.50616 -6.66941,-6.50794 -6.21956,-11.05472 -0.42627,-7.39245 4.16657,-14.10439 3.25925,-21.54378 -0.41538,-4.36191 -0.72579,-8.9823 -2.73436,-12.94158 -1.24143,-0.6794 -2.8266,-0.92113 -4.00287,-1.87712 -1.88032,-1.07599 -3.39491,-2.65746 -4.6748,-4.38482 4.39902,4.51777 11.29196,4.75214 17.13336,3.84222 3.26959,-0.60026 7.24913,-2.45717 7.82243,-6.09196 -0.81677,-1.65271 -3.27166,-1.14105 -4.75478,-1.73914 -5.88195,-1.07264 -10.81482,-5.23458 -13.3478,-10.58344 -3.17332,-6.23899 -2.15309,-13.4815 -2.47915,-20.25565 -0.022,-6.199415 0.22164,-12.549264 -1.945,-18.47255 -1.5138,-4.661195 -3.10601,-9.471403 -6.20395,-13.353126 -1.34705,-0.119545 -2.23086,1.789868 -3.45227,2.422385 -3.8658,3.047724 -8.18884,5.474 -11.94996,8.656334 5.39796,-5.67751 12.87025,-9.786219 16.09148,-17.300003 2.39488,-5.414841 3.92935,-11.611114 2.69769,-17.511981 -2.10892,-7.55705 -6.40463,-14.497106 -11.92129,-20.044353 -8.2101,-7.333887 -19.319,-11.475523 -30.3305,-11.236703 -5.38686,0.352442 -10.20866,3.255943 -14.66631,6.060634 -2.6268,2.032894 -4.95762,4.487265 -6.72389,7.307157 1.43955,-3.422075 3.67705,-6.538332 6.21661,-9.229602 2.5056,-0.918998 0.2011,-2.495753 -0.84311,-3.554987 C 250.62613,9.6430881 238.55481,6.0662484 226.82983,4.8174442 223.10063,4.473196 219.3518,4.4246333 215.60912,4.4368215 Z m 62.74144,27.7034705 c 8.79518,-0.197317 17.16219,7.031053 17.61863,15.913498 0.60431,6.348747 0.13338,13.027812 -3.25076,18.614214 -1.21374,2.181981 -2.70639,4.208615 -4.42502,6.01961 5.24544,-6.030375 7.51703,-14.208061 6.8126,-22.105812 -0.30287,-6.012237 -3.00593,-12.335301 -8.63878,-15.134553 -3.65391,-1.81803 -8.27656,-2.961754 -12.16088,-1.240529 -3.9246,2.764278 -5.08167,7.819082 -7.26716,11.851965 -1.55665,3.330377 -3.84228,7.185244 -7.93242,7.549132 -1.38524,0.282271 -2.81262,0.231452 -4.19684,-0.02466 3.56218,0.501337 7.42965,-0.757605 9.38825,-3.920215 3.50603,-5.127918 4.12123,-12.123081 9.08761,-16.232794 1.43307,-1.022045 3.24195,-1.299803 4.96477,-1.289851 z m -153.26632,1.885783 c 6.67352,-0.181127 14.03121,1.100309 18.77383,6.246612 3.0469,2.999735 5.41357,6.585209 7.88043,10.052841 -4.81694,-5.558992 -9.83296,-11.909086 -17.40666,-13.588433 -7.6947,-1.827147 -16.34186,-1.610949 -23.19866,2.731019 -6.82876,3.963375 -9.85093,12.790554 -8.33771,20.312991 0.43825,1.785967 1.84633,3.274889 3.33962,4.140189 -2.76953,-1.078602 -4.12565,-4.267127 -4.51415,-7.016526 -0.22774,-5.357506 0.76814,-10.813237 4.21618,-15.052262 3.12649,-4.176901 8.28184,-6.612786 13.23581,-7.539131 1.99529,-0.27146 3.99092,-0.274504 6.01131,-0.2873 z m 160.6248,9.157611 c -1.42878,2.200476 -3.83314,3.912498 -4.70213,6.403262 0.93465,1.815895 3.48283,1.985201 4.6888,3.641579 1.84561,1.712569 2.79482,4.78959 2.26107,7.029188 0.0467,-3.961075 -2.90901,-7.342831 -6.52725,-8.523684 -2.04307,-0.488337 -2.0609,-2.973233 -0.78457,-4.230178 1.4791,-1.832356 3.60269,-2.972435 5.27072,-4.612134 l -0.19716,0.278578 z m -15.93216,4.63213 c 0.21731,5.156409 3.46314,9.745178 3.30362,14.92028 -0.0107,0.544132 -0.73093,2.386931 -0.51461,1.006551 -0.2353,-5.023704 -3.87984,-9.355871 -3.17164,-14.521659 0.005,-0.573124 0.34021,-3.841816 0.38263,-1.405172 z m -135.89632,8.231051 c 2.92209,-0.01297 5.69802,1.15412 8.35103,2.257073 -6.91859,-1.054974 -14.60551,-1.089042 -20.59496,3.06498 -1.47186,0.797249 -2.45981,2.499897 -3.20963,3.716237 0.77826,-5.723144 6.85284,-8.965997 12.19926,-8.928301 1.07487,-0.05293 2.16474,-0.103695 3.2543,-0.109989 z m -3.67891,5.956648 c 5.38473,0.02496 8.90892,4.804488 12.74653,7.852427 1.40692,1.242699 3.1019,2.682076 5.12274,1.918444 0.42133,0.04906 2.50953,-0.795369 1.61648,-0.22864 -2.28412,1.571273 -5.17864,2.257319 -6.80255,4.694792 -4.21892,4.616428 -11.24691,4.714028 -16.97804,3.720238 -3.48247,-0.810072 -6.34915,-3.26204 -8.3757,-6.020641 -2.4844,0.141828 -4.60445,2.035293 -7.12651,2.283738 -3.57523,0.463904 -7.21694,0.395027 -10.788091,0.006 6.258351,0.413672 12.878031,-1.027015 17.731291,-5.166737 2.87953,-3.822059 6.31321,-7.804212 11.18204,-8.952966 0.55206,-0.09198 1.11333,-0.105542 1.67181,-0.106655 z m 46.7786,8.361702 c 2.26163,-0.483954 3.93851,2.054136 3.1463,4.071528 0.0777,1.444411 -2.09004,2.179981 -1.58315,3.540259 0.71945,0.32694 0.6448,0.232555 -0.18798,0.407287 -1.74968,0.328417 -0.44893,-1.844284 -0.0533,-2.521708 0.97833,-1.271187 1.20647,-4.029583 -0.97589,-4.096197 -3.39529,0.598674 -5.86941,4.715696 -9.61022,3.609586 -2.63157,-0.749887 -4.99989,-2.353392 -7.71712,-2.793678 3.6081,-0.769963 7.29984,2.881954 10.69211,0.653257 2.02048,-1.104735 3.81042,-3.052267 6.28927,-2.870334 z M 75.779259,70.65185 c 0.802648,0.01105 1.672357,0.0364 2.427051,0.192643 -4.932121,0.137739 -8.588707,4.045432 -12.997167,5.758005 -1.337013,0.620516 -2.705888,1.150099 -4.140189,1.554484 3.994361,-2.906828 7.931545,-6.37648 12.85585,-7.461805 0.603258,-0.02985 1.23403,-0.04669 1.854455,-0.04333 z m 40.063381,11.347358 c 1.90531,2.37901 4.06058,4.758379 5.97064,7.015857 -4.25589,-0.954039 -7.93746,-4.916209 -7.92509,-9.410249 0.65149,0.79813 1.30297,1.596259 1.95445,2.394392 z m 27.31285,-0.249974 c -2.53809,3.084513 -6.42539,5.150795 -10.45213,4.766119 -2.05902,0.109644 -4.18652,-0.08568 -6.01664,-1.115205 5.58208,-0.71027 11.42218,-1.077721 16.51076,-3.708237 z m -30.28584,8.041739 c 3.60015,6.348187 8.3069,12.533367 14.39834,16.496767 -5.54896,-0.94077 -9.77976,-5.43492 -12.44324,-10.127501 -0.91443,-2.009577 -1.70731,-4.187326 -1.9551,-6.369266 z m -3.77224,6.173288 c 5.60171,10.060079 11.51487,20.031479 18.65585,29.086649 1.52341,1.81816 3.11837,3.59158 4.76345,5.28939 -8.73079,-5.72524 -14.86385,-14.64663 -19.54707,-23.81192 -1.73276,-3.53676 -3.08216,-7.207971 -4.11953,-10.996733 l 0.16938,0.296298 z m -76.84713,2.10976 c -4.561088,2.050509 -6.300556,7.355069 -10.17416,10.154159 0.158436,-0.58469 -0.337607,-1.38803 -0.637927,-1.50316 2.785074,-3.08684 5.452104,-6.731241 9.433453,-8.32864 0.433665,-0.158794 1.130446,-0.327704 1.378634,-0.322359 z m -16.217463,1.305848 c 2.862344,1.032471 3.048318,4.666541 4.229512,7.039191 0.541414,0.51537 0.786005,0.36435 0.434617,1.14386 0.537556,0.81664 -0.778263,0.91374 -0.700586,1.57982 -3.311682,-1.06046 -2.357504,-5.1888 -3.738902,-7.66778 -0.634193,-1.728169 -3.095128,-1.13488 -4.049533,-0.9019 1.133154,-0.718273 2.477783,-1.182218 3.824892,-1.193191 z m 92.591983,6.731891 c 3.5663,11.65654 9.47039,22.69164 17.96149,31.51321 3.51832,4.1207 7.51612,7.91527 10.31925,12.5957 -7.63372,-8.00027 -16.69828,-14.85662 -21.9862,-24.79572 -3.40915,-6.04681 -5.42587,-12.64869 -6.3512,-19.5105 z m -81.235293,0.43395 c -0.549512,3.87961 -4.301372,7.70425 -8.445693,6.42926 -1.394919,-0.48574 -2.444583,-1.83451 -2.667692,-3.27696 2.069056,2.20728 5.816529,2.36824 7.883091,0.0587 1.140909,-0.97325 2.309891,-2.16178 3.230294,-3.21096 z m 124.055023,20.65162 c 5.58525,5.19855 13.78836,4.87508 20.90092,4.99295 5.46843,0.13297 11.10713,-0.21235 16.40751,1.24671 1.79407,0.69324 3.5985,1.31659 5.34665,2.11937 -3.78637,-0.70949 -7.53239,-1.76967 -11.43066,-1.4132 -7.68416,-0.0671 -15.57217,1.07131 -23.0487,-1.18917 -3.63602,-0.43727 -6.15938,-3.24981 -8.35503,-5.92398 z m 128.5445,4.77478 c 1.24712,8.18831 4.18455,17.28742 11.87796,21.56684 1.36973,0.73172 2.79216,1.72165 4.36884,1.7578 0.0703,-1.73569 -1.38212,-3.46646 -1.5105,-5.33272 -0.7446,-4.89399 1.32768,-9.84531 0.14894,-14.76705 -0.55437,-2.32022 -0.002,-0.84953 0.49099,0.51337 2.0218,5.99551 -0.59015,13.02684 3.12764,18.57919 1.11452,1.28576 0.52758,3.84313 -1.44717,3.61558 -7.85401,-1.3644 -14.02108,-8.1352 -15.93483,-15.6222 -1.00326,-3.60353 -1.4203,-7.33642 -1.24452,-11.09672 0.0409,0.26197 0.0818,0.52394 0.12265,0.78591 z M 122.68451,144.47 c 4.6532,9.7968 9.83089,19.34929 15.97111,28.30142 5.01,7.56283 10.26549,15.29596 12.15298,24.31518 0.3426,1.47516 0.62233,2.97423 0.83724,4.45082 -4.58472,-15.68108 -16.25252,-27.85807 -23.26211,-42.34362 -2.52187,-4.97653 -4.61044,-10.19474 -6.0905,-15.56104 0.13043,0.27908 0.26085,0.55816 0.39128,0.83724 z m 131.23087,5.79333 c 1.12689,4.73463 2.16692,10.49981 -1.13854,14.62098 -1.70107,0.97891 -2.22554,-1.37726 -2.865,-2.44905 -0.36841,-0.58372 -1.22217,-2.65383 -2.02911,-1.49316 -1.44776,6.01986 -3.00572,12.10092 -6.07596,17.54601 -2.35545,4.13834 -5.00946,8.46625 -9.02029,11.16534 -1.98315,0.46334 -1.73345,-2.23433 -1.88579,-3.4336 -0.31245,-1.64567 0.2572,-3.76239 -0.84656,-5.12741 -1.38955,-0.0574 -1.46506,2.10666 -2.06561,2.99347 -4.11025,10.27195 -9.71573,20.354 -18.14258,27.70834 -0.95637,0.57808 -2.59707,2.64237 -3.6024,1.25917 -0.73112,-2.95354 1.07781,-5.82802 1.19253,-8.78365 0.30962,-1.91274 0.55864,-3.83526 0.91323,-5.74067 -0.0645,4.05157 -0.47056,8.18887 -0.22798,12.18859 1.64117,-0.43484 2.69006,-2.60662 4.09821,-3.69616 8.10217,-8.29604 12.84532,-19.12082 16.48142,-29.96729 0.0408,-1.30986 1.54203,-1.31859 1.83379,-0.21398 1.52856,3.33719 1.99489,7.08507 2.18241,10.67811 1.38827,-0.28727 2.18946,-2.17912 3.26259,-3.17398 6.00656,-7.30691 8.87825,-16.58986 10.48716,-25.74402 -0.0276,-1.14511 1.13015,-1.60052 1.85112,-0.69525 1.68136,1.19844 2.6966,3.06867 3.7389,4.73612 2.00139,-1.80243 1.93287,-5.01419 2.0648,-7.6004 0.0214,-1.69478 -0.0654,-3.39187 -0.27967,-5.07348 z m 29.41593,13.69842 c 1.21388,9.58718 4.42709,19.83455 12.33125,26.00167 2.61342,1.64326 5.32812,3.61842 8.39903,4.16219 0.93338,-0.92195 -0.70257,-2.22436 -0.8839,-3.2603 -1.83486,-4.13605 -1.84131,-8.74707 -0.92923,-13.10782 0.52365,-3.93058 0.0671,-7.93582 -0.95189,-11.75064 2.00305,4.03394 2.19477,8.4969 1.96374,12.93048 -0.22238,3.94365 -0.0349,8.01383 1.92648,11.55269 0.78733,1.50011 2.59839,3.95615 0.65326,5.32006 -2.57248,0.94135 -5.22592,-0.80792 -7.53646,-1.80713 -8.99753,-4.66731 -14.20348,-14.65758 -14.70631,-24.5505 -0.1635,-1.80454 -0.29004,-3.78024 -0.26597,-5.4907 z m -161.07675,9.8862 c 4.82282,5.87421 8.75756,12.61337 9.68703,20.26821 0.64422,3.49955 1.36751,7.07311 2.93752,10.27893 -2.94922,-3.07325 -4.22746,-7.12142 -5.18906,-11.1851 -1.56855,-6.7466 -4.30394,-13.13426 -7.43815,-19.28406 l -0.0673,-0.17131 z m 148.18691,16.08214 c -1.17016,9.10642 -1.54742,19.39807 4.07686,27.21619 2.13821,2.55562 4.36428,5.36689 7.37315,6.85255 0.57124,-1.39104 -0.3818,-3.19672 -0.22797,-4.78812 -0.33581,-4.92345 1.9633,-9.32362 3.89479,-13.706 1.1417,-3.06756 1.69437,-6.34294 1.69456,-9.61331 0.97959,5.63175 -1.00165,11.15703 -2.69655,16.46802 -1.07078,3.64468 -1.14671,7.54614 -0.009,11.18012 0.25613,2.12289 -2.36604,3.41214 -4.01487,2.12309 -7.89293,-4.56923 -12.54735,-13.8155 -12.13005,-22.90399 -0.15772,-4.48112 0.61573,-8.90633 2.08588,-13.13851 z m -172.857394,2.44038 c -2.1182,4.02328 -3.799871,8.44052 -7.147842,11.63799 -4.286335,4.78276 -10.594321,6.6263 -16.685408,7.71378 -0.459576,0.0124 -2.847269,0.98543 -1.567819,0.27597 5.809898,-3.08357 12.542154,-4.9327 17.177349,-9.90152 3.296019,-2.84598 5.233722,-6.8549 8.318375,-9.86887 z m 164.396374,19.27978 c 2.72614,7.29358 3.78287,15.42969 1.78406,22.96271 -1.82529,5.63526 -5.4043,10.98024 -10.61505,13.9697 -1.53251,0.64674 -3.43147,-0.6918 -2.95766,-2.44372 0.28483,-4.57718 0.49812,-9.481 -2.0111,-13.56844 -1.99532,-4.23228 -3.09982,-8.85866 -2.87167,-13.5371 0.63032,5.00483 2.18628,9.92855 5.04809,14.11304 2.23187,3.90176 2.06863,8.51236 1.80045,12.83785 0.68458,1.06472 1.89948,-0.8079 2.6497,-1.21853 5.20782,-4.82731 8.68462,-11.74513 8.35304,-18.94914 0.10822,-4.89228 0.008,-9.83594 -1.33585,-14.57899 l 0.12069,0.31924 z m -30.90044,3.78956 c -2.15295,7.36316 -3.80925,15.4527 -9.16361,21.28488 -1.12128,1.07334 -1.18016,-1.28102 -1.30052,-1.93045 -0.3799,-1.16523 0.27526,-3.43758 -1.19853,-3.90621 -1.99539,1.12634 -2.7178,3.73444 -4.22029,5.40973 -2.28796,3.11897 -4.99276,6.66588 -8.95085,7.54477 -1.20157,-0.3516 -0.12962,-2.24268 -0.28397,-3.1103 0.3046,-2.96972 0.63651,-6.05432 0.25264,-8.98697 -1.69651,0.42958 -2.94672,2.40273 -4.49615,3.35162 -0.67034,0.52828 -1.35073,1.04841 -2.08243,1.48983 2.82783,-2.51309 5.07345,-5.57074 7.36115,-8.53635 1.16262,-0.95538 1.30447,1.14725 1.26345,1.84463 0.21175,3.71877 -0.45867,7.38984 -0.47287,11.10054 0.9062,0.82187 1.72197,-1.05929 2.46505,-1.44983 3.63478,-3.58169 6.10625,-8.12045 8.82965,-12.35924 1.50172,-0.32313 2.01375,1.90908 2.44971,2.96299 0.43661,0.84005 0.084,3.25372 1.52449,2.897 2.99494,-3.89526 4.64063,-8.69537 6.45235,-13.22911 0.55832,-1.50823 1.09421,-3.02473 1.61539,-4.54617 z"
     id="path328"
     transform="translate(400,-466)" /><path
     style="fill:#ffff00;fill-rule:evenodd;stroke:#000000;stroke-width:0.750847"
     d="m 245.01707,2.7403505 c -2.55896,0.2162995 -5.39186,-0.256379 -7.75711,0.8938969 -0.40914,1.28402 1.80644,0.8591444 2.53489,1.3174356 8.87178,2.4402749 17.44263,6.71439 23.61743,13.655504 2.41046,-0.547105 4.64553,-2.269983 7.17717,-2.835673 1.41349,-0.631281 3.10078,-0.455524 4.47215,-0.967888 0.1662,-1.365832 -1.84071,-2.013883 -2.57303,-2.987656 C 264.9056,5.4470709 254.855,2.3923256 245.01707,2.7403505 Z"
     id="path468"
     transform="translate(400,-466)" /><g
     id="g6761"
     style="fill:#ffffff"><path
       style="fill:#ffffff;fill-rule:evenodd;stroke:#000000;stroke-width:0.750847"
       d="m 133.44127,65.206477 c -1.32978,0.840308 -0.64553,2.972948 -0.77105,4.316198 -0.13849,1.995 1.13343,4.140942 0.43309,6.029942 -3.28014,0.72007 -6.95955,-2.357825 -6.70656,-5.748003 -0.35908,-1.400581 0.6308,-2.912147 0.092,-4.202849 -1.44114,-0.347648 -2.46585,1.554968 -3.52693,2.286403 -1.13522,1.479117 -3.28135,2.763126 -3.35494,4.766117 1.26648,2.886617 4.49572,4.547807 7.42781,5.278058 4.20088,0.279913 8.88554,0.808541 12.53389,-1.760464 1.2366,-0.848049 2.87399,-2.075622 2.98632,-3.552257 -2.92383,-2.473235 -5.3974,-5.755319 -8.90964,-7.409812 -0.0675,-0.01018 -0.13624,-0.01117 -0.20398,-0.0033 z"
       id="path470"
       transform="translate(400,-466)" /></g><g
     id="armed"><path
       style="fill:#00ffff;fill-rule:evenodd;stroke:#000000;stroke-width:0.750847"
       d="m 29.720571,140.97907 c -1.128235,0.76594 0.633737,2.24662 0.858568,3.12831 2.858419,4.93608 6.827629,9.1074 11.080722,12.86184 1.301459,0.0575 0.431002,-2.01545 0.703136,-2.84698 -0.113866,-3.42406 0.301799,-7.05308 -0.200251,-10.3468 -4.058489,-0.9945 -8.326048,-1.8742 -12.442175,-2.79637 z"
       id="path610"
       transform="translate(400,-466)" /><path
       style="fill:#00ffff;fill-rule:evenodd;stroke:#000000;stroke-width:0.750847"
       d="m 62.549451,192.74043 c -1.355787,3.02942 -1.819895,6.7561 -0.77911,9.90259 2.179863,-0.4742 4.383954,-1.3134 6.491117,-2.15148 0.514345,-1.18598 -1.309425,-2.05179 -1.828455,-3.02032 -1.36067,-1.48531 -2.227435,-3.40819 -3.554257,-4.85877 l -0.318112,0.12363 z"
       id="path681"
       transform="translate(400,-466)" /><path
       style="fill:#00ffff;fill-rule:evenodd;stroke:#000000;stroke-width:0.750847"
       d="m 80.233411,184.25608 c -1.024251,1.27679 -0.364495,3.36396 -0.589266,4.92676 0.248957,1.16536 -0.410122,3.32817 0.971221,3.85689 2.0999,-1.1029 3.784046,-3.09237 5.248062,-4.87277 -1.703305,-1.36089 -3.550572,-3.1537 -5.630017,-3.91088 z"
       id="path683"
       transform="translate(400,-466)" /></g><g
     id="langued"><path
       style="fill:#ff0000;fill-rule:evenodd;stroke:#000000;stroke-width:0.750847"
       d="m 3.1223065,148.06892 c -1.2631906,0.75312 -0.2555349,2.72818 -0.2071944,3.87541 2.2794217,10.91374 10.8234849,19.26545 20.2118849,24.60149 8.477968,5.05438 18.549651,7.10969 28.347064,6.12844 9.761253,-0.53402 19.370333,-2.82146 28.356077,-6.6653 8.41149,-3.46809 17.259342,-6.04688 26.380942,-6.51451 2.60704,0.40557 1.88057,-2.056 1.72713,-3.71957 -0.56604,-5.06471 -1.66607,-10.35161 -4.52481,-14.63632 -2.00129,-1.18092 -4.423793,0.32481 -6.541628,0.4545 -14.083042,2.5317 -26.622079,9.89242 -39.958199,14.56089 -7.386956,2.54458 -15.369576,2.5534 -23.038148,1.77934 -7.975594,-1.9633 -15.80641,-5.29307 -22.230668,-10.48028 -3.2128163,-2.5686 -5.6157241,-5.91294 -8.0231748,-9.18811 -0.1322201,-0.12623 -0.3082387,-0.22858 -0.4992757,-0.19598 z"
       id="path685"
       transform="translate(400,-466)" /></g><metadata
     id="metadata38"><rdf:RDF><cc:Work
         rdf:about=""><dc:creator><cc:Agent><dc:title>vlk2020</dc:title></cc:Agent></dc:creator></cc:Work></rdf:RDF></metadata></svg>
