<?xml version="1.0" encoding="UTF-8" standalone="no"?>
<svg
   xmlns:dc="http://purl.org/dc/elements/1.1/"
   xmlns:cc="http://creativecommons.org/ns#"
   xmlns:rdf="http://www.w3.org/1999/02/22-rdf-syntax-ns#"
   xmlns:svg="http://www.w3.org/2000/svg"
   xmlns="http://www.w3.org/2000/svg"
   version="1.0"
   height="955"
   width="682.88"
   id="svg2052">
  <metadata
     id="metadata2057">
    <rdf:RDF>
      <cc:Work
         rdf:about="">
        <dc:format>image/svg+xml</dc:format>
        <dc:type
           rdf:resource="http://purl.org/dc/dcmitype/StillImage" />
        <dc:title></dc:title>
        <dc:creator>
          <cc:Agent>
            <dc:title>By Rinaldum - Own work, CC BY-SA 3.0, https://commons.wikimedia.org/w/index.php?curid=8391155</dc:title>
          </cc:Agent>
        </dc:creator>
      </cc:Work>
    </rdf:RDF>
  </metadata>
  <defs
     id="defs2055" />
  <g
     transform="translate(-6.357,-16.483)"
     id="g2390">
    <g
       id="langued">
      <path
         id="path2199"
         d="m 197.78,124.03 c -27.3,4.6 -10.38,42.36 10.86,48.48 24.5,10.64 51.43,0.82 77.02,3.2 13.36,-3.59 43.32,7.52 44.39,-10.11 -24.58,-5.73 -51.31,0.95 -76.7,0 -22.25,3.66 -56.51,-2.97 -51.31,-32.67 -1.96,-2.04 3,-7.05 -4.26,-8.86 z"
         style="fill:#ff0000;fill-opacity:1;fill-rule:nonzero;stroke:#808080;stroke-opacity:1" />
    </g>
    <path
       style="fill:#808080;fill-opacity:1"
       d="m 496.19,967.62 c -2.71,-9.05 -1.14,-16.74 4.65,-22.76 1.12,-1.17 2.19,-3.42 2.37,-4.99 0.25,-2.23 1.32,-3.4 4.82,-5.27 9.38,-5 9.55,-5.1 7.87,-5.11 -0.9,0 -2.87,-0.65 -4.38,-1.43 -1.5,-0.78 -3.47,-1.15 -4.36,-0.81 -2.23,0.83 -12.97,8.17 -13.71,9.37 -0.33,0.54 -1.93,0.69 -3.55,0.33 -3.64,-0.8 -5.99,0.65 -13.93,8.6 -3.71,3.71 -5.94,6.77 -5.94,8.17 0,2.2 0,2.19 -2.5,-0.46 -2.4,-2.59 -2.46,-2.97 -1.52,-9.59 1.1,-7.78 1.73,-9.76 3.96,-12.56 2.4,-3.01 9.47,-9.6 10.31,-9.61 0.42,0 0.75,-0.89 0.75,-1.96 0,-1.28 1.64,-2.86 4.79,-4.63 4.16,-2.34 7.21,-5.99 7.21,-8.63 0,-1.84 -5.45,-0.58 -9.5,2.2 -4.72,3.26 -9.5,4 -9.5,1.49 0,-2.49 -16.96,9.32 -17.03,11.86 0,0.63 -0.69,2.03 -1.5,3.09 -1.45,1.93 -1.48,1.93 -2.93,0 -2.21,-2.91 -1.93,-11.98 0.51,-17.03 1.12,-2.32 3.91,-5.72 6.19,-7.56 2.28,-1.84 4.85,-4.18 5.71,-5.19 3.12,-3.69 12.65,-10.29 16.55,-11.46 2.2,-0.65 5.77,-1.31 7.93,-1.44 6.1,-0.4 5.57,-2.49 -0.83,-3.29 -5.1,-0.64 -6.02,-0.41 -12.06,2.9 -3.59,1.98 -6.54,3.21 -6.54,2.73 -3.93,-5 -11.77,3.94 -14.47,7.14 -1.6,1.82 -2.98,2.53 -4.09,2.1 -1.43,-0.55 -1.58,-1.59 -1.04,-6.89 0.35,-3.44 1.09,-7.53 1.63,-9.1 9.2,-12.19 28.61,-17.36 43.19,-18.33 4,0.11 8.59,0.15 10.18,0.1 l 2.9,-0.11 c -4.57,-3.18 -6.94,-9.47 -11.8,-11.59 -4.43,-1.11 -8.96,0.46 -13.27,4.6 -2.28,2.2 -4.62,3.99 -5.19,3.99 -1.46,0 -1.29,-2.61 0.38,-5.8 3.48,-6.67 11.65,-11.2 20.2,-11.2 2.39,0 6.37,-0.54 8.83,-1.19 l 5.05,0.89 c 5.46,4.08 8.15,7.3 11.43,12.95 1.9,3.11 1.97,3.13 6.72,2.12 12.98,-3.55 25.04,-8.8 34.12,-18.85 6.32,-7.15 7.09,-8.43 5.92,-9.82 -3.65,-4 -6.54,-8.92 -10.98,-12.1 -0.61,0 -0.75,2.3 -0.36,6 0.72,6.94 0,7.36 -5.94,3.75 -5.6,-3.37 -9.77,-7.91 -20.43,-22.25 -5.32,-7.15 -10.67,-13.88 -11.89,-14.96 -1.21,-1.08 -4.3,-5.8 -6.86,-10.48 -4.17,-7.66 -4.71,-8.27 -5.33,-6.04 -0.38,1.36 -0.74,4.85 -0.8,7.73 -0.11,5.9 -1.19,6.54 -5.41,3.22 -4.32,-3.4 -8.05,-9.86 -14.12,-24.5 -3.07,-3.52 -11.85,-36.34 -13.07,-35.47 -2.75,3.68 -5.11,7.68 -9.39,10 -5.67,-19.89 -13.99,-41.04 -14.34,-62 -0.1,-12.39 -0.93,-14.01 -7.17,-13.97 -3.56,0 -5.16,0.9 -12.26,6.75 -9.23,7.6 -20.53,20.27 -24.72,27.72 -3.22,5.74 -4.9,13.46 -4.73,21.75 0.1,4.96 -0.13,5.75 -1.71,5.75 -3,-2.71 -4.92,-7.84 -9.05,-8 -1.39,14.76 -5.77,29.35 -5.38,44.25 0.33,3.79 0.13,5.75 -0.59,5.75 -8.31,-1.79 -12.78,-8.71 -18.78,-13.7 -0.14,0.13 -0.97,5.86 -1.86,12.72 -2.06,16.02 -7.24,46.62 -8.53,50.38 -0.54,1.6 -0.99,4.41 -0.99,6.25 0,2.67 -0.4,3.35 -1.96,3.35 -12.09,-7.39 -13.11,-26.2 -25.54,-33 -6.09,0 -9.03,6.17 -9.92,20.81 -0.68,13.47 -6.14,25.63 -7.81,38.94 -1.3,11.37 -2.32,12.52 -6.84,7.63 -2.55,-2.75 -10.79,-6.84 -11.79,-5.85 -0.32,0.32 -0.75,3.59 -0.95,7.28 -0.3,5.32 0.46,10.16 3.72,23.56 2.25,9.27 4.09,17.93 4.09,19.25 0,3.14 -2.37,3.09 -6.58,-0.12 -4.62,-3.52 -7.23,-3.25 -4.04,0.42 2.24,2.59 9.63,20.39 9.58,23.08 -2.25,14.24 -15.04,22.16 -26.31,28.74 -14.51,3.1 -41.28,-3.86 -56.15,-7.28 -14.84,-6.52 -35.25,-4.65 -49.49,-10.93 -10.75,-5.04 -21.14,-9.88 -31.62,-15.75 -4.8,-2.67 -4.24,-3.78 -12.16,-3.78 -5.21,0 -8.2,0.41 -8.44,1.16 -0.54,1.59 -8.39,3.81 -13.57,3.83 -4.661,0 -9.216,-2.32 -9.216,-4.73 0,-2.48 -9.863,-0.74 -13.054,2.31 -3.814,3.63 -5.313,3.21 -4.471,-1.28 1.141,-6.09 3.191,-8.95 7.998,-11.18 5.11,-2.32 10.022,-5.15 15.593,-6.11 6.47,0 11.93,-3.14 11.93,-6.81 0,-2.17 -5.26,-1.84 -10.04,0.62 -9.676,1.37 -5.881,0.48 -12.741,-1.31 -1.024,-1.46 -0.911,-1.96 -5.738,-1.66 -4.631,0.29 -5.838,0.8 -8.006,3.38 -3.071,3.65 -3.971,3.03 -3.971,-2.73 0,-9.22 6.267,-13.37 20.291,-13.44 7.943,0 9.72,-0.36 12.245,-2.24 1.63,-1.2 2.96,-2.72 2.96,-3.38 0,-1.43 -4.792,-2.54 -5.235,-1.21 -0.171,0.51 -3.137,1.19 -6.591,1.5 -5.819,0.53 -6.323,0.41 -6.842,-1.57 -0.379,-1.45 -1.348,-2.15 -2.984,-2.15 -3.217,0 -10.044,3.55 -11.59,6.03 -0.679,1.08 -2.026,1.97 -2.994,1.97 -1.419,0 -1.76,-0.87 -1.76,-4.5 0.345,-9.37 10.353,-13.36 18.362,-15.94 9.452,-2.73 14.896,-3.17 19.134,-1.56 1.74,0.66 3.26,0.67 4.48,0 1.59,-0.86 1.7,-1.46 0.79,-4.43 -1.16,-3.77 -2.79,-4.55 -9.541,-4.57 -3.975,0 -4.318,-0.23 -4.894,-3.11 -0.561,-2.81 -0.896,-3.04 -3.555,-2.51 -1.615,0.32 -4.782,2.16 -7.036,4.09 -5.477,4.69 -7.174,4.64 -6.27,-0.17 0.964,-5.15 5.764,-11.73 10.029,-13.75 2.01,-0.95 6.32,-1.77 9.795,-1.85 5.722,-0.14 22.852,1.5 30.412,2.9 2.85,0.53 3.28,0.3 3.88,-2.08 0.83,-4.87 -5.36,-8.1 -9.51,-8.5 -1.88,0 -4.19,-0.74 -5.14,-1.6 -1.58,-1.43 -2.02,-1.3 -5.21,1.5 -1.92,1.69 -4.22,3.06 -5.11,3.06 -2.19,0 -2.07,-3.53 0.22,-6.84 1.69,-2.86 2.53,-5.25 5.68,-6.57 15.63,-6.27 20.57,-8.29 33.52,5.5 7.2,8.59 6.03,10.5 7.96,16.86 2.36,10.18 14.42,11.15 23.65,12.63 4.59,0.53 9.59,2.25 18.96,6.54 4.68,2.14 6.7,2.32 9.46,0.85 2.16,-1.16 2.39,-4.24 1.3,-17.19 -0.56,-6.56 -0.86,-7.46 -2.42,-7.05 -0.98,0.25 -2.95,1.77 -4.37,3.37 -5.1,5.71 -5.42,4.7 -4.92,-15.35 0.29,-11.51 1.22,-22.97 2.53,-31.04 1.13,-7.03 1.87,-12.98 1.63,-13.22 -3.24,1.17 -5.36,4.46 -8.87,4.98 -3.26,-19.1 5.47,-40.87 14.36,-57.32 0.92,-1.12 6.69,-13.95 6.69,-14.87 -3.82,-1 -6.32,4.13 -7.78,6.97 -1.29,3.04 -2.96,3.57 -3.86,1.24 -1.27,-3.3 1.89,-18.14 5.84,-27.49 3.67,-9.32 8.9,-17.67 15.1,-25.5 l 6.49,-8 c -3.7,-0.55 -6.75,-0.62 -9.71,1.93 -3.36,3.22 -4.08,3.23 -4.08,0 8.16,-28.44 38.08,-42.38 55.5,-64.02 -4.01,1.49 -9.87,1.79 -10.59,0.63 12.02,-23.84 39.63,-35.32 61.65,-48.56 7.39,-2.06 11.91,-9.15 18.51,-12.14 4.41,-1.76 4.97,-3.74 2.11,-7.47 -7.94,-11.76 -14.5,-24.35 -21.6,-36.61 -12.46,5.54 -24.44,12.17 -36.58,18.39 -8.47,4.24 -14.77,4.99 -17.65,2.1 -1.64,-1.64 -1.62,-1.84 0.36,-4 1.78,-1.92 4.75,-9.65 4,-10.39 -6.25,3.04 -12.72,5.04 -19.59,6.25 -8.77,1.32 -13.23,2.92 -17.32,6.23 -4.09,3.3 -23.79,5.41 -27.01,2.89 -1.83,-1.43 -0.77,-5.72 1.43,-5.78 l 4.55,-7.01 c -7.32,0.1 -13.82,3.68 -20.92,4.75 -11.35,4.94 -21.8,9.88 -34.73,11.31 -4.82,0 -14.94,-3.16 -15.62,-4.92 4.56,-3.58 6.77,-7.32 6.68,-11.22 l -10.84,0.63 c -9.36,0.54 -11.51,0.36 -15.84,-1.34 -2.79,-1.09 -5.14,-2.7 -5.33,-3.64 1.82,-5.27 9.9,-3.64 11.83,-10 0,-1.02 -5.33,-4.43 -14,-8.96 -8.37,-4.54 -13.636,-14.67 -23.378,-16.57 -0.815,0 -5.509,-2.03 -10.432,-4.51 -4.982,-2.51 -9.64,-4.25 -10.508,-3.92 -3.771,3.24 -4.467,5.55 -10.005,4.94 -2.845,-0.36 -5.96,-0.87 -6.923,-1.15 -2.09,-0.16 -2.453,2.66 -3.796,4.18 -2.94,2.67 -5.235,8 -4.472,10.4 1.005,3.17 -2.671,2.65 -5.168,-0.73 -5.722,-9.06 -3.524,-20.45 3.062,-28.22 6.283,-7.17 9.735,-9.92 14.477,-11.54 2.785,-0.95 3.723,-1.87 3.966,-3.87 l 0.318,-2.62 -7.818,0.33 c -18.578,-1.1 -13.228,10.7 -17.696,13.71 -2.443,0 -3.663,-2.62 -4.277,-9.2 -0.712,-16.13 10.076,-25.38 26.033,-25.65 l 8.462,0.35 0.36,-3.09 c 0.353,-3.02 0.228,-3.12 -5.397,-4.37 -3.166,-0.7 -6.273,-1.9 -6.903,-2.66 -4.247,-3.02 -13.138,7.15 -14.901,11.19 0,2.6 -1.835,3.2 -3.8,1.23 -2.024,-2.02 -1.45,-12.27 0.982,-17.56 6.1,-12.97 15.61,-15.99 28.568,-16.21 h 9.25 v -2.75 c 0,-2.49 -0.355,-2.76 -3.695,-2.83 -3.143,-0.58 -6.487,-1.84 -9.303,-3.42 -7.128,-3.07 -16.705,3.97 -22.605,8 -0.217,0 -0.391,-2.13 -0.387,-4.75 3.952,-18.99 22.198,-21.34 38.146,-21.95 15.018,-0.5 18.268,-0.35 21.77,1.06 4.35,1.74 10.56,2.24 9.66,0.78 -0.3,-0.48 -2.46,-1.13 -4.81,-1.44 -6.164,-1.19 -7.338,-6.35 -13.927,-4.75 -2.73,0.7 -5.204,1.03 -5.497,0.74 1.314,-9.13 11.009,-13.54 19.324,-13.69 l 12.38,5.16 c 2.72,2.83 4.94,5.98 4.94,6.99 0,1.01 1.63,3.96 3.61,6.56 3.15,4.12 3.55,5.26 3.13,8.95 -0.4,3.58 -0.1,4.6 2.02,6.54 8.5,8.26 14,18.86 21.2,28.1 12.54,12.69 8.77,11.72 35.04,15.75 13.58,1.16 15.46,1.1 29.5,-1 8.25,-1.24 19.05,-2.79 24,-3.45 9.64,-1.28 9.62,-1.41 -0.5,-4.06 -8.36,-3.77 -37.76,-7.35 -42.96,-16.04 0,-0.55 1.61,-2.57 3.54,-4.49 3.05,-3.04 3.27,-3.57 1.71,-4.1 -14.74,-3.52 -28.88,-9.94 -43.36,-13.91 -4.01,0 -9.93,-2.47 -9.93,-4.15 0,-0.91 2.29,-3.3 5.08,-5.31 5.98,-4.3 5.82,-4.77 -3.48,-10.11 -9.68,-3.29 -16.41,-12.8 -26.15,-15.55 -6.9,-2.74 -1.35,-5.48 2.81,-8.22 -6.07,-5.1 -13.4,-8.32 -17.26,-15.69 -5.91,-10.99 -13.602,-20.61 -21.694,-30.1 -4.565,-5.29 -8.3,-10.36 -8.3,-11.25 0,-1.09 -0.897,-1.63 -2.75,-1.66 -1.512,0 -5.225,-1.55 -8.25,-3.41 -9.994,-6.13 -24.651,-12.95 -25.182,-11.71 -1.557,3.62 -12.818,6.99 -12.818,3.84 -4.486,-3.77 -8.689,1.82 -8.968,6.07 -0.02,2.47 -0.472,3.25 -1.848,3.25 -1.429,0 -2.082,-1.33 -3.061,-6.26 -4.5555,-13.81 13.274,-21.74 23.849,-24.46 3.246,-0.44 3.898,-0.93 4.235,-3.23 0.39,-2.66 0.229,-2.75 -7.039,-4.04 -5.785,-1.03 -7.547,-1.74 -7.93,-3.21 -0.428,-1.63 -1.104,-1.79 -5.115,-1.2 -2.564,0.38 -5.882,1.73 -7.45,3.04 -2.929,2.45 -7.3305,4.04 -8.35,3.02 1.6931,-11.95 9.162,-20.15 21.305,-21.66 1.72,0 3.732,-0.73 4.472,-1.62 3.258,-3.65 10.032,1.59 12.9,-1.77 0,-0.75 0.675,-1.92 1.5,-2.61 2.53,-2.1 1.671,-3.49 -2.255,-3.65 -5.566,-0.23 -9.245,-1.95 -9.245,-4.32 0,-1.77 -0.645,-2.03 -5.095,-2.03 -5.02,0 -10.181,2.41 -12.204,5.7 -1.761,2.86 -3.701,1.38 -3.701,-2.83 -0.224,-18.68 19.341,-17.33 33.5,-17.1 l 8,0.49 -2.937,-3.13 c -1.941,-2.07 -3.891,-3.13 -5.75,-3.13 -2.032,0 -2.813,-0.49 -2.813,-1.78 0,-1.42 -1.439,-2.05 -7.044,-3.09 -7.603,-1.4 -8.078,-1.26 -12.487,3.62 -3.168,3.51 -4.841,2.94 -4.134,-1.42 2.814,-10.52 12.2,-15.65 22.368,-14.84 5.001,0.47 7.297,0.34 7.297,-0.4 0,-1.81 5.821,-1.22 10.29,1.05 9.318,6.63 12.538,3.65 30.682,17.7 5.75,3.78 6.544,4.05 7.116,2.46 0.692,-8.8 -7.856,-17.01 -14.795,-19.69 -1.397,0 -4.293,0.71 -4.293,-0.96 0,-3.81 6.241,-6.07 14.388,-5.2 9.516,1.6 19.436,9.39 22.746,18.56 1.71,4.88 2.89,10.19 2.78,12.49 -0.37,8.12 0.11,11.15 2.12,13.31 3.93,4 8.35,0.98 12.51,-0.81 4.9,25.72 19.72,1.06 23.35,12.98 0.71,2.74 2.81,8.03 4.69,11.75 l 7.04,15.19 c 1.05,-2.68 1.97,-5.38 2.37,-8.24 0,-2.52 3.69,-2.06 4.67,0.57 5.86,13.37 16.67,20.27 27.22,27.89 3.36,2.62 3.72,2.39 3.29,-2.14 -0.41,-4.27 0.9,-5.12 4.59,-3 15.69,10.07 25.4,21.89 47.73,30.02 0.57,-3.9 -1.29,-9.87 3.97,-10.02 6.13,0.9 11.7,6.45 16.38,10.27 l 6.92,5.76 c 12.05,-7.49 30.35,-4.91 41.65,-13.89 0.68,-1.1 -6.07,-4.75 -10.42,-5.64 -4.06,-0.83 -10,-4.97 -10,-6.98 0,-1.42 7.56,-5.35 14.5,-7.53 10.15,-3.18 14.27,-5.83 15.79,-10.15 1.82,-5.18 -16.24,-3.31 -30.79,3.19 -8.07,3.61 -19.1,5.3 -29.92,4.59 -9.21,-0.6 -10.63,-0.98 -16.54,-4.39 -8.44,-4.86 -11,-9.11 -11.02,-18.32 0,-5.14 0.39,-6.96 1.81,-8.25 1.01,-0.91 2.3,-1.66 2.86,-1.66 0.57,0 1.29,-2.76 1.59,-6.15 0.47,-5.08 1.04,-6.55 3.3,-8.5 4.46,-3.83 4.39,-3.91 9.52,9.65 2.81,7.41 4.02,9.5 5.5,9.5 1.69,0 1.87,-0.64 1.56,-5.73 -0.7,-11.75 1.75,-16.61 7.72,-15.3 2.81,0.62 3.75,2.81 7.29,17.03 0.69,2.75 1.34,5.14 1.44,5.32 0.1,0.17 1.81,0 3.79,-0.36 4.28,-0.81 4.43,-1.87 1.2,-8.23 l -3.76,-14.51 c 8.78,0.15 14.11,4.67 18.1,12.36 2.51,5.83 3.02,6.2 5.58,4.08 7.81,-10.79 1.33,-22.12 -1.99,-33.15 -0.66,-5.13 -9.71,-11.28 -13.53,-7.62 0,2.55 -3.29,11.61 -4.22,11.61 -4.15,5.34 -4.29,6.04 -7.72,1.05 -1.83,-1.58 -2.27,-3.07 -2.38,-8 l -0.14,-6.05 h -6.23 c -6.96,0 -6.6,-0.24 -15.56,10.75 -2.8,3.44 -5.64,6.25 -6.32,6.25 -2.99,-2.71 -6.22,-4.81 -7.43,-12 h -27.98 l -3.46,-4.75 c -2.57,-3.53 -3.61,-6.16 -4.06,-10.25 -0.97,-8.84 -1.19,-9.37 -6.98,-16.43 -5.29,-6.46 -5.52,-6.97 -5.52,-12.58 0,-5.68 0.13,-5.95 4.25,-9.28 8.66,-5.635 19.14,-8.837 29.02,-11.78 12.96,-4.058 25.67,-8.864 37.85,-14.902 5.42,-0.942 10.84,-3.58 16.26,-2.321 l 9.8,-9.273 c 12.96,-12.268 10.62,-11.589 56.82,-16.489 13.48,-1.429 15,-1.815 15.01,-3.801 0,-4.395 9.57,-14.972 19.11,-21.135 4.99,-3.226 7.11,-4.006 10.89,-4.006 9.51,0 18.16,4.219 21.66,10.567 1.2,2.163 2.21,4.705 2.25,5.649 0.1,1.588 0.33,1.574 3.33,-0.179 3.43,-1.996 15.49,-4.037 23.87,-4.037 3.1,0 6.54,0.805 9.17,2.143 8.55,4.699 17.06,12.191 16.4,22.626 -1.32,15.299 -4.32,23.694 -11.15,31.136 l -4.04,4.404 10.75,-0.598 c 11.66,-0.65 12.35,-0.31 8.75,4.289 -3,6.549 -8.45,11.627 -12,17.857 0,1.21 12.88,2.26 18.39,1.5 5.37,-0.73 5.52,-0.36 2.86,7.18 -2.87,8.14 -6.72,13.8 -11.03,16.22 -2.19,1.24 -4.66,2.24 -5.49,2.24 -9.08,4.81 9.52,24.64 13.27,26.96 9.13,3.94 18,13.17 18,18.74 0,2.37 -0.19,2.44 -4.25,1.73 -4.61,-0.82 -5.56,-0.87 -10.58,-0.61 l -3.33,0.18 c 10.37,10.68 25.13,12.79 37.32,20.74 4.51,3.13 8.84,9.78 8.84,13.58 0,1.99 -2.88,2.22 -5.32,0.43 -1.05,-0.76 -3.87,-1.11 -7.32,-0.9 l -5.61,0.35 8.45,8.65 c 11.53,11.24 21.07,24.23 31.81,36.15 7.74,8.51 11.99,14.17 11.99,15.95 0,1.53 -6.64,1.29 -9.83,-0.36 -2.83,-1.46 -10.17,-3.16 -10.17,-2.35 0,1.13 3.57,7.58 5.94,10.76 8.43,11.09 12.59,23.73 17.28,36.5 2.45,6.21 5.52,18 6.39,24.56 0.59,4.5 0.47,4.94 -1.36,4.94 -1.93,0 -8.25,-5.51 -8.25,-7.19 0,-0.44 -1.12,-0.81 -2.5,-0.81 -2.47,0 -2.49,0.1 -2.42,8.25 0,4.54 0.46,10.73 0.94,13.75 0.48,3.03 1.38,10 1.99,15.5 0.62,5.5 1.76,12.29 2.56,15.09 0.79,2.8 1.43,5.39 1.43,5.75 0,1.2 -3.88,0.69 -4.7,-0.61 -1.26,-2.02 -5.49,-4.35 -9.21,-5.07 -3.18,-0.63 -3.31,-0.55 -1.92,1.09 1.81,2.13 6.83,13.8 6.83,15.87 0,0.82 1.28,4.51 2.85,8.19 1.56,3.68 3.16,8.37 3.54,10.43 0.39,2.05 1.97,5.13 3.53,6.83 1.91,2.09 3.02,4.61 3.43,7.76 0.33,2.57 0.89,5.69 1.25,6.92 0.93,3.28 -2.25,2.89 -6.56,-0.79 -4.85,-4.15 -6.44,-3.93 -5.56,0.76 2.11,11.26 10.65,19.03 34.52,31.41 4.71,2.44 6.5,3.92 6.5,5.37 0,1.53 -0.83,2.12 -3.5,2.5 -3.99,0.57 -10,3.58 -10,5.02 0,0.52 1.69,2.03 3.75,3.34 2.07,1.31 4.61,3.34 5.66,4.51 1.05,1.17 2.32,2.13 2.84,2.13 1.49,0 11.73,7.4 11.76,8.5 0,0.55 1.88,3.03 4.14,5.5 4.47,4.89 8.85,13.33 9.16,17.63 0.2,2.8 0.15,2.83 -8.37,4.74 -2.52,0.57 -2.47,0.67 3.32,6.85 7.12,7.63 11.74,14.22 11.74,16.79 0,2.12 -2.63,2.83 -12.11,3.25 l -5.61,0.24 2.61,5.18 c 6.75,13.38 14.61,28.63 18.99,36.85 4.31,8.08 4.87,9.87 5.37,17.25 0.5,7.24 0.37,8.22 -1.1,8.22 -0.92,0 -2.12,-1 -2.66,-2.23 -0.9,-2.04 -5.89,-4.74 -6.85,-3.7 -1.09,1.18 0.8,7.23 2.39,7.65 1.89,0.49 2.43,2.33 3.53,12.03 0.66,5.84 0.57,6.25 -1.32,6.25 -1.11,0 -2.28,-0.68 -2.61,-1.52 -0.42,-1.11 -1.35,-1.34 -3.35,-0.86 -1.53,0.36 -2.93,0.79 -3.12,0.95 -0.33,0.28 0.45,1.41 11.87,17.19 3.29,4.54 5.97,8.63 5.97,9.1 0,0.46 2.25,3.82 5,7.45 2.75,3.63 5,7.5 5,8.59 0,1.09 0.46,2.27 1.02,2.61 1.57,0.97 3.98,7.41 3.98,10.61 0,3.75 -3.04,3.91 -5.87,0.31 -1.4,-1.77 -2.79,-2.47 -4.48,-2.25 -2.43,0.32 -2.43,0.36 -0.8,3.51 1.64,3.16 13.31,23.44 15.15,26.31 4.73,7.42 7.26,22.07 3.93,22.76 -0.91,0.18 -2.06,-0.75 -2.73,-2.22 -0.72,-1.58 -1.97,-2.54 -3.32,-2.54 -2.07,0 -2.14,0.3 -1.53,6.75 0.35,3.72 0.64,9.79 0.65,13.5 v 6.75 h 4.31 c 4.81,0 6.23,1.18 15.7,13 l 5.2,6.5 -0.55,6.5 c -0.31,3.58 -1.21,8.3 -2.01,10.5 -0.8,2.2 -2,6.03 -2.67,8.5 -6.52,24.19 -4.48,20.78 -35.21,58.7 -6.91,8.53 -12.78,13.81 -18.27,16.43 -2.2,1.05 -6.25,3.21 -9,4.8 -2.75,1.59 -6.55,3.63 -8.46,4.52 -1.9,0.9 -4.15,2.21 -5,2.92 -3.78,3.19 -12.67,5.59 -30.04,8.1 -10.17,1.47 -19.17,3.24 -20,3.94 -2.02,1.7 -11.46,5.59 -13.55,5.59 -1.99,0 -14.45,8.67 -14.45,10.05 0,0.53 -1.03,0.95 -2.3,0.95 -1.26,0 -2.81,0.52 -3.44,1.15 -0.86,0.86 -1.88,0.84 -4.11,-0.1 -2.5,-1.03 -3.37,-0.96 -5.55,0.47 -1.43,0.94 -2.6,2.02 -2.6,2.41 0,0.39 -1.66,2.65 -3.7,5.03 -2.04,2.39 -4.72,6.52 -5.96,9.18 -1.23,2.67 -2.87,4.85 -3.63,4.85 -0.76,0 -1.91,-1.74 -2.55,-3.86 z"
       id="path2175" />
    <path
       style="fill:#ffffff;fill-opacity:1"
       d="m 286.03,191.48 c -0.55,0 -1,-1.68 -1.01,-3.75 0,-8.68 -2.65,-10.97 -4.77,-4.17 -1.11,3.55 -0.98,8.48 0.33,12.67 2.61,3.35 8.04,-1.94 5.45,-4.75 z"
       id="path2173" />
    <path
       style="fill:#ffffff;fill-opacity:1"
       d="m 266.03,195 c 0,-2.54 -4.23,-14.52 -5.14,-14.52 -0.94,4.25 -2.59,12.12 0.89,15.31 3.31,0.87 4.25,0.69 4.25,-0.79 z"
       id="path2171" />
    <path
       style="fill:#ffffff;fill-opacity:1"
       d="m 306.45,193.88 c 4.22,-3.5 -2.98,-10.9 -5.93,-13.25 -1.54,-0.3 -2.21,0.29 -1.16,3.49 2,3.9 1.55,11.36 7.09,9.76 z"
       id="path2169" />
    <path
       style="fill:#ffffff;fill-opacity:1"
       d="m 293.9,149.48 c -4.82,1.67 -3.66,8.14 -2.41,12 3.96,-2.33 8.17,-9.64 2.41,-12 z"
       id="path2167" />
    <path
       style="fill:#ffff00;fill-opacity:1"
       d="m 520,939.15 c 1.37,-6.92 11.78,-9.8 8.53,-16.76 -1.71,-3.29 -9.07,-7.2 -15.14,-8.05 -3.76,-0.52 -4.17,-0.36 -4.73,1.89 -0.99,3.92 -7.41,7.77 -12.96,7.77 -4.03,0 -4.7,-0.28 -4.7,-2 0,-1.1 0.66,-2 1.47,-2 2.77,0 10.03,-4.74 12.28,-8.02 2.51,-3.65 2.81,-6.79 1.1,-11.53 -1.15,-3.18 -1.18,-3.19 -9.75,-3.74 -7.55,-0.48 -8.85,-0.31 -10.66,1.37 -2.77,2.57 -4.44,2.42 -4.44,-0.38 0,-3.18 1.82,-4.7 5.64,-4.7 1.78,0 3.54,-0.48 3.9,-1.06 0.41,-0.67 2.6,-0.82 5.99,-0.39 4.83,0.6 5.59,0.42 7.84,-1.83 1.8,-1.8 2.34,-3.16 1.91,-4.86 -1.01,-4.08 -4.28,-7.8 -7.59,-8.66 -2.2,-0.57 -3.19,-1.43 -3.19,-2.76 0,-1.8 0.84,-1.95 11.5,-2.08 25.65,-0.31 40.97,-3.01 45.06,-7.93 1.14,-1.38 11.1,-9.69 18.15,-15.16 1.26,-0.97 5.55,-5.05 9.54,-9.06 10.74,-10.8 10.72,-10.9 -5.78,-30.63 -11.98,-14.32 -13.29,-15.58 -16.32,-15.58 -3.38,0 -7.65,3.31 -7.65,5.94 0,2.09 -2.61,-0.51 -6.72,-6.71 -1.98,-2.98 -5.72,-7.74 -8.31,-10.57 -3.95,-4.33 -12.36,-17.75 -17.84,-28.47 -2.67,-5.21 -7.3,-9.19 -10.7,-9.19 -1.75,0 -3.75,0.67 -4.43,1.5 -1.73,2.09 -2.75,1.87 -3.55,-0.75 -0.38,-1.24 -1.7,-4.5 -2.95,-7.25 -1.24,-2.75 -3.95,-13.77 -6.02,-24.5 -2.11,-10.9 -4.44,-20.27 -5.28,-21.25 -2.44,-2.82 -8.6,-2.32 -11.14,0.9 -2.34,2.97 -2.29,2.99 -3.83,-1.15 -3.17,-8.53 -4.81,-20.79 -6.93,-51.8 -0.53,-7.8 -0.88,-9.01 -3.09,-10.75 -3.52,-2.77 -8.59,-2.55 -10.97,0.47 l -1.9,2.41 -1.11,-3.16 c -0.61,-1.74 -1.41,-4.97 -1.78,-7.17 -0.37,-2.2 -1.7,-6.48 -2.95,-9.5 -1.25,-3.02 -2.86,-7.47 -3.58,-9.87 -0.73,-2.4 -2.05,-5.33 -2.95,-6.5 -0.9,-1.17 -2.23,-4.38 -2.95,-7.13 -0.73,-2.75 -2.16,-6.77 -3.17,-8.94 -1.02,-2.16 -1.85,-4.92 -1.85,-6.12 0,-1.21 -0.28,-3.61 -0.63,-5.35 -0.6,-3.01 -0.72,-3.08 -2.5,-1.47 -1.34,1.21 -1.87,3.08 -1.87,6.61 0,4.88 7.56,45.3 8.83,47.25 0.37,0.56 0.73,5.81 0.8,11.67 0.13,10.6 0.12,10.66 -2.71,12.75 -1.56,1.16 -3.27,2.1 -3.8,2.1 -1.76,0 -7.37,5.36 -8.84,8.45 -0.8,1.68 -2.65,5.13 -4.12,7.66 -1.46,2.54 -4.78,8.39 -7.36,13 -2.59,4.62 -5.63,9.17 -6.75,10.13 -1.13,0.96 -2.05,2.45 -2.05,3.31 0,1.42 -0.21,1.42 -2.22,0 -2.97,-2.08 -8.1,-1.98 -9.99,0.19 -0.84,0.96 -1.78,3.55 -2.1,5.75 -2.25,15.72 -4.85,32.29 -5.31,33.79 -0.44,1.45 -1.19,0.94 -4.01,-2.75 -3.16,-4.15 -3.84,-4.54 -7.76,-4.54 -5.9,0 -7.09,1.77 -8.46,12.5 -2.26,17.73 -5.08,37.12 -6.4,43.92 l -1.34,6.92 -3.7,-4.52 c -2.04,-2.49 -3.74,-4.93 -3.77,-5.42 0,-0.5 -2.7,-2.82 -5.92,-5.17 -5.36,-3.9 -6.24,-4.22 -10.01,-3.62 -6.13,0.98 -8.15,3.17 -10.17,11 -0.97,3.79 -2.5,9.37 -3.4,12.39 -0.89,3.02 -2.24,8.25 -2.99,11.6 -0.74,3.36 -1.82,7.18 -2.38,8.5 -0.85,1.97 -4.07,22.52 -4.07,25.93 0,1.64 -2.84,1.08 -8.1,-1.58 -4.09,-2.07 -5.86,-2.43 -9.41,-1.9 -9.07,1.36 -9.87,5.87 -4.97,27.95 1.95,8.8 3.8,17.18 4.11,18.62 0.53,2.47 0.29,2.67 -4.13,3.33 l -4.69,0.7 0.35,9.32 c 0.25,6.86 0.77,9.81 1.98,11.18 0.91,1.02 3.04,5.14 4.73,9.15 l 3.09,7.31 -3.64,4.87 c -2.07,2.78 -5.71,6 -8.45,7.49 -2.64,1.44 -5.04,3 -5.32,3.45 -0.29,0.46 -3.34,0.23 -6.78,-0.51 -3.45,-0.73 -8.79,-1.36 -11.87,-1.37 -5.83,0 -27.02,-4.71 -36.9,-8.14 -1.38,-0.48 -9.7,-1.8 -18.5,-2.94 -12.69,-1.65 -16.72,-2.56 -19.5,-4.38 -1.93,-1.26 -8.9,-4.47 -15.5,-7.12 -10.18,-4.09 -12.7,-5.56 -16.59,-9.68 l -4.6,-4.85 -8.18,0.68 -8.19,0.68 1.03,-2.71 c 0.57,-1.49 1.03,-5.12 1.03,-8.07 0,-4.34 -0.5,-5.96 -2.66,-8.51 -2.4,-2.86 -2.63,-3.86 -2.43,-10.33 0.2,-6.5 0.51,-7.47 3.3,-10.37 3.03,-3.14 3.08,-3.34 2.52,-10.75 l -0.58,-7.55 h 2.68 c 1.47,0 4.47,0.66 6.67,1.45 2.2,0.79 5.58,1.46 7.51,1.49 1.93,0 5.62,1.16 8.2,2.54 2.59,1.37 5.21,2.5 5.84,2.5 0.63,0 2.57,0.61 4.3,1.35 5.66,2.42 10.41,3.72 15.83,4.33 2.92,0.33 6.64,1.27 8.26,2.08 3.51,1.77 7.62,3.13 13.06,4.31 2.2,0.48 7.5,1.66 11.78,2.63 7.98,1.8 10.21,1.46 11.79,-1.77 3.14,-6.43 3.18,-6.86 2.44,-31.29 -0.66,-22.02 -0.92,-24.7 -2.58,-26.2 -1.23,-1.12 -3.01,-1.53 -5.39,-1.26 -3.4,0.4 -3.54,0.29 -3.54,-2.77 0,-1.76 0.63,-6.51 1.4,-10.55 2.46,-12.92 3.59,-20.42 4.25,-28.25 0.74,-8.74 -0.7,-11.61 -5.8,-11.61 -1.57,0 -2.85,-0.27 -2.85,-0.6 0,-1.27 10.25,-24.97 11.41,-26.4 0.67,-0.83 3.38,-6.67 6.01,-13 2.63,-6.33 5.41,-12.21 6.18,-13.08 0.77,-0.87 1.4,-3.38 1.4,-5.59 0,-4.85 -2.31,-7.33 -6.83,-7.33 -3.65,0 -4.07,-1.54 -1.38,-5.12 0.98,-1.31 2.29,-3.51 2.91,-4.88 0.61,-1.38 5.32,-7.79 10.46,-14.26 15.95,-20.08 16.84,-21.37 16.84,-24.49 0,-3.46 -2.42,-5.95 -6.22,-6.42 -2.52,-0.31 -1.9,-1.04 8.21,-9.83 6.01,-5.23 18.14,-15.94 26.97,-23.8 14.23,-12.69 16.04,-14.66 16.04,-17.43 0,-1.71 -0.7,-3.88 -1.55,-4.82 -1.41,-1.57 -1.22,-1.96 2.25,-4.7 2.09,-1.64 6.28,-4.41 9.3,-6.16 7.04,-4.07 8.45,-4.91 14.5,-8.68 2.75,-1.71 7.66,-4.55 10.91,-6.31 3.26,-1.77 7.03,-4.09 8.39,-5.16 1.36,-1.07 3.01,-1.94 3.68,-1.94 0.67,0 2.02,-0.9 3.02,-2 1,-1.1 2.3,-2 2.9,-1.99 0.61,0 4.25,3.89 8.1,8.64 14.29,17.63 18.76,22.86 19.86,23.26 1.12,0.4 17.97,13.53 22.36,17.42 2.06,1.82 2.28,1.84 2.89,0.26 0.43,-1.12 -0.1,-2.21 -1.39,-3.15 -2.02,-1.42 -7.29,-7.76 -28.72,-34.61 -17.6,-22.05 -19.15,-24.37 -26.48,-39.45 -1.1,-2.26 -2.64,-4.65 -3.42,-5.3 -0.79,-0.65 -1.73,-3.41 -2.11,-6.13 -0.37,-2.72 -1.13,-5.23 -1.69,-5.57 -0.55,-0.34 -1.66,-2.03 -2.46,-3.75 -0.8,-1.72 -2.54,-4.93 -3.88,-7.13 -1.33,-2.2 -2.43,-4.28 -2.44,-4.63 0,-0.34 1.44,-1.21 3.23,-1.93 1.79,-0.72 4.36,-2.16 5.73,-3.19 l 2.47,-1.89 0.79,2.82 c 0.9,3.22 0.19,7.32 -1.26,7.32 -1.08,0 -1.33,4.93 -0.37,7.42 0.99,2.59 13.37,1.86 13.4,-0.79 0,-0.62 10.25,-5.35 22.75,-10.52 12.51,-5.16 24.01,-10.26 25.57,-11.33 1.55,-1.08 3.02,-1.76 3.27,-1.52 0.24,0.24 1.04,2.76 1.77,5.59 1.12,4.32 1.12,5.58 0,7.77 -0.74,1.43 -1.35,3.01 -1.35,3.49 0,1.19 4.24,1.13 7.5,-0.11 4.94,-1.88 44.74,-36.62 47.03,-41.06 0.83,-1.6 2.76,-4.38 4.29,-6.18 4.27,-5.01 5.72,-10.16 5.38,-19.2 l -0.29,-7.94 -2.1,3.44 c -4.17,6.82 -5.81,10.02 -5.81,11.36 0,2.38 -9.11,12.58 -11.24,12.58 -1.1,0 -6.33,3.74 -11.63,8.31 -18.94,16.33 -20.17,17.24 -21.18,15.65 -0.5,-0.8 -0.93,-2.4 -0.93,-3.56 0,-6.66 -12.87,-7.16 -21.02,-0.81 -1.13,0.88 -28.68,12.75 -39.75,17.13 -0.91,0.36 -1.25,-1 -1.25,-4.98 0,-10.84 -5.47,-13.3 -17.16,-7.7 -9.77,4.68 -16.19,7.9 -17.84,8.95 -0.82,0.52 -7.06,3.77 -13.84,7.23 -6.79,3.45 -14.22,7.27 -16.5,8.47 -5.75,3.03 -6.66,2.89 -6.66,-1.04 0,-5.04 -2.45,-6.65 -10.15,-6.65 -5.58,0 -7.55,0.54 -13.92,3.84 -5.79,2.99 -9.39,4.09 -16.33,4.98 -4.9,0.63 -9.94,1.83 -11.21,2.66 -3.19,2.09 -3.39,1.98 -3.39,-1.83 0,-2.06 -0.76,-4.03 -1.99,-5.14 -1.83,-1.66 -2.81,-1.71 -12.25,-0.64 -13.65,1.55 -19.45,2.63 -24.26,4.49 -2.2,0.85 -5.4,1.57 -7.1,1.6 -1.71,0 -4.63,1.15 -6.5,2.52 -4.93,3.59 -9.77,5.98 -10.55,5.2 -0.37,-0.37 -0.15,-1.82 0.49,-3.22 1.83,-4.02 1.4,-7.89 -1.15,-10.29 -2.51,-2.35 -5.21,-2.67 -10.69,-1.26 -1.93,0.49 -5.64,1.15 -8.25,1.47 l -4.75,0.58 v -4.36 c 0,-3.94 -0.42,-4.71 -4.42,-7.98 -2.43,-1.99 -4.87,-3.62 -5.41,-3.62 -2.8,0 -16.68,-8.62 -21.81,-13.54 -3.22,-3.09 -7.21,-6.34 -8.86,-7.21 -5.555,-2.94 -15.947,-6.36 -23.768,-7.82 -6.855,-1.27 -8.191,-1.26 -11.372,0.1 -4.682,1.96 -5.36,1.91 -5.36,-0.43 0,-2.59 3.7,-5.06 7.574,-5.06 h 3.13 l 0.597,-9.22 c 0.431,-6.65 0.263,-9.44 -0.602,-9.99 -0.659,-0.42 -3.471,-0.77 -6.249,-0.77 -5.065,0 -7.45,-1.23 -7.45,-3.79 0,-1.07 1.174,-1.24 5.25,-0.77 7.596,0.88 10.968,-0.36 12.381,-4.53 3.265,-9.64 3.717,-11.98 2.539,-13.16 -0.644,-0.64 -1.17,-1.97 -1.17,-2.96 0,-1.31 -1.06,-1.96 -3.972,-2.42 -2.713,-0.44 -4.168,-1.26 -4.591,-2.59 -0.794,-2.5 -0.627,-2.63 4.645,-3.65 2.43,-0.47 5.993,-1.74 7.918,-2.83 3.481,-1.97 3.502,-2.03 3.795,-9.79 0.26,-6.92 0.04,-8.08 -1.925,-10.17 -1.22,-1.3 -2.703,-2.36 -3.294,-2.37 -0.592,0 -2.763,-0.47 -4.826,-1.04 -6.651,-1.85 -3.996,-4.92 4.25,-4.92 4.713,0 8,0.96 8,2.34 0,0.62 2.813,1.98 6.25,3.01 11.74,3.54 14.25,4.73 19.93,9.42 4.78,3.96 18.82,20.89 18.82,22.7 0,0.31 2.53,3.93 5.63,8.04 4.16,5.53 6.77,7.98 9.99,9.41 2.39,1.06 6.72,3.48 9.62,5.38 5.08,3.33 5.77,3.49 20.29,4.69 18.39,1.52 27.13,1.04 53.47,-2.94 11.28,-1.7 23.65,-3.55 27.5,-4.11 12.6,-1.83 14.78,-3.25 14.34,-9.34 -0.2,-2.68 0.18,-4.2 1.19,-4.74 4.47,-2.39 24.66,-13.68 27.53,-15.39 9.74,-5.79 13.1,-7.92 14.69,-9.29 2.46,-2.13 2.32,-8.39 -0.24,-10.7 -1.95,-1.76 -1.78,-2 10.5,-14.68 6.87,-7.09 12.49,-13.48 12.49,-14.21 0,-0.73 2.25,-4.29 5,-7.93 2.75,-3.63 5,-6.89 5,-7.25 0,-0.36 1.41,-2.43 3.14,-4.61 12.05,-15.22 -18.97,8.22 -42.89,32.41 -13.05,13.2 -14.25,14.72 -14.25,18.03 0,1.99 0.52,3.93 1.15,4.32 0.73,0.46 0,1.3 -1.9,2.31 -1.68,0.88 -7.49,4.13 -12.9,7.22 -10.31,5.88 -11.85,6.72 -20.15,11.02 -4.73,2.44 -5.21,2.51 -6.6,0.97 -1.91,-2.11 -10.29,-4.89 -27.63,-9.15 -5.77,-1.42 -10.33,-3.62 -9.1,-4.38 2.07,-1.28 1.33,-8.05 -1.12,-10.25 -2.27,-2.05 -14.62,-7.33 -17.13,-7.33 -0.74,0 -3.55,-0.84 -6.24,-1.86 -2.68,-1.03 -7.58,-2.65 -10.88,-3.61 -13.06,-3.79 -14.57,-4.52 -13.49,-6.54 2.62,-4.9 0.18,-11.07 -5.39,-13.64 -1.72,-0.79 -5.82,-3.1 -9.12,-5.14 -5.75,-3.56 -5.99,-3.86 -5.69,-7.4 0.28,-3.38 -0.1,-3.99 -4.5,-7.29 -10.64,-7.98 -20.91,-15.16 -22.57,-15.79 -0.97,-0.37 -2.3,-1.92 -2.95,-3.45 -0.66,-1.53 -2.45,-4.4 -3.97,-6.39 -1.52,-1.98 -3.19,-4.68 -3.71,-6 -1.22,-3.09 -12.241,-16.7 -19.752,-24.39 -7.702,-7.89 -15.945,-14.62 -20.327,-16.59 -1.942,-0.88 -4.149,-2.34 -4.903,-3.25 -0.755,-0.91 -2.128,-1.66 -3.05,-1.66 -0.923,0 -2.157,-0.48 -2.742,-1.06 -0.585,-0.59 -3.478,-1.29 -6.429,-1.57 -2.951,-0.27 -5.56,-0.69 -5.799,-0.93 -1.029,-1.03 2.015,-5.44 3.754,-5.44 2.226,0 3.116,-2.58 3.099,-9 -0.01,-4.23 -0.238,-4.6 -3.814,-6.25 -2.091,-0.96 -4.33,-1.75 -4.975,-1.75 -0.644,0 -1.172,-0.9 -1.172,-2 0,-1.42 0.667,-2 2.3,-2 3.251,-0.83 8.385,-1.66 9.541,-5 0.188,-1.38 0.917,-3.18 1.62,-4 1.967,-2.31 2.534,-7.06 0.915,-7.69 -1.459,-2.04 -3.065,-5.37 -3.376,-8 0,-2.47 0.188,-2.56 4.351,-1.99 3.858,0.53 4.655,0.28 7.035,-2.2 2.261,-2.36 2.531,-3.21 1.711,-5.36 -1.115,-2.35 -2.753,-3.7 -3.097,-6.32 0,-2.09 0.47,-2.44 3.263,-2.44 4.123,0 5.647,4.02 9.402,5 3.924,0.92 5.511,5.92 7.802,9 11.633,15.14 14.073,20.73 10.63,24.4 -1.153,1.22 -2.111,3.1 -2.127,4.16 -0.06,3.61 -6.516,13.31 -11.279,16.95 -3.916,2.99 -4.691,4.13 -4.691,6.88 0,6.56 5.84,8.43 13.308,4.28 4.614,-2.38 9.512,-3.62 13.742,-6.71 3.66,-2.9 3.68,-2.96 4.43,-12.69 0.42,-5.37 0.73,-11.91 0.71,-14.52 0,-3.38 0.34,-4.75 1.32,-4.75 2.44,1.25 4.58,1.9 7.51,2 5.87,-0.51 7.15,4.22 10.21,8.25 2.81,3.58 3.2,3.75 8.89,3.75 4.27,0.8 7.55,-1.84 11.25,-2.89 0.17,0.22 0.84,3.54 1.49,7.39 0.86,8.91 3.76,13.27 9.71,19.22 5,4.79 6.23,4.88 10.7,0.73 3.16,-2.93 6.06,-2.61 7.86,0.87 2.8,5.1 7.29,9.2 9.35,14.72 0.35,1.39 1.48,2.97 2.51,3.5 5.33,2.72 15,8.63 15.53,9.48 0.97,1.57 9.08,1.17 10.48,-0.52 1.94,-2.34 3.51,-1.84 9.49,3.04 9.12,9.18 23.64,11.77 32.95,20.36 2.31,0.86 3.78,2.46 13.57,-3.26 3.01,3.24 5.54,5.45 10.16,5.12 4.07,-0.43 15.51,-4.03 18.83,-5.92 2.4,-1.37 3.09,-1.54 11.28,-2.79 15.37,-2.35 29.72,-11.58 29.72,-19.1 0,-4.3 -0.84,-5.65 -6.05,-9.8 l -4.84,-3.85 c 3.49,-4.17 9.23,-3.31 13.27,-6.17 4.69,-5.18 7.43,-21.38 4.1,-24.15 -5.98,-3.1 -14.02,2.42 -19.61,-1.6 -2.33,-2.1 -2.39,-6.03 -0.17,-10.47 2.28,-4.58 2.32,-17.69 0.1,-24.41 -5.21,-17.04 -3.9,-20.97 -19.76,-29 -3.16,-1.81 -36.81,-2.07 -45.35,-0.36 -4.92,0.99 -5.92,0.92 -7.49,-0.5 -2,-1.81 -9.1,-2.23 -11.92,-0.7 -9.94,5.76 -18.63,6.94 -19.24,-6.11 0,-3.35 -2.22,-8.19 -5.43,-11.83 -1.21,-1.38 -2.95,-3.7 -3.86,-5.18 -1.65,-2.66 -1.64,-2.68 1.5,-3.37 1.73,-0.38 4.54,-1.45 6.22,-2.39 2.89,-1.6 8.87,-3.65 18.07,-6.19 8.45,-2.33 10.06,-2.944 23.09,-8.79 7.08,-3.376 14.61,-5.85 22.38,-6.983 7.65,-1.006 8.81,-1.452 12.11,-4.676 3.98,-3.886 4.92,-3.377 4.92,2.661 0,2.446 -0.4,2.918 -2.5,2.918 -2.73,0 -3.35,2.053 -1.17,3.862 0.74,0.609 3.77,1.455 6.75,1.881 5.07,0.724 5.44,0.967 5.75,3.766 0.38,3.403 6.98,12.481 10.97,15.101 8.24,2.75 10,6.49 33.11,-1.87 2.29,2.69 4.57,5.39 6.75,8.17 1.04,1.4 1.38,1.37 3.25,-0.33 5.23,-6.91 0.48,-17.025 -0.93,-24.58 -0.12,-3.236 -6.59,-9.174 -12.06,-11.064 -6.21,-2.142 -21.52,-2.576 -28.92,-0.819 -6,1.425 -13.15,1.256 -14.16,-0.334 -0.92,-3.933 -2.23,-9.911 1.41,-12.763 5.46,-3.543 15.11,-5.511 32.25,-6.571 6.89,2.392 62.84,-15.668 63.5,-4.368 0,2.832 2.94,9.135 5.51,11.806 2.02,2.094 4.49,0.606 4.49,-2.701 4,-11.307 11.91,-20.175 23.8,-22.096 12.9,-2.641 20.68,5.589 19.04,18.04 -1.62,12.92 -12.06,19.374 -24.34,20.87 -6.11,0 -8.37,1.067 -5,2.362 4.22,5.826 10.02,10.781 15.98,15.191 1.99,1.347 4.71,2.447 6.06,2.447 2.98,0 3.12,1.09 0.46,3.5 -4.14,4.84 -2.09,11.19 2.39,14.7 2.42,1.82 5.23,3.81 6.25,4.44 0.71,4.66 -9.11,-0.95 -9.49,9.56 0.45,2.39 -2,6.47 -2.07,6.77 9.27,10.11 8.27,21.34 20.72,31.94 1.32,0.74 1.24,1.23 -0.63,3.61 -4.3,5.46 -2.42,11.13 6.72,20.27 4.13,4.14 5.11,5.76 5.11,8.5 0,3.07 1.63,4.97 17.36,20.3 9.54,9.3 21,21.26 25.47,26.57 5.09,4.1 6.76,11.1 15.51,12.11 -8.63,3.78 -13.15,8.93 -8.86,18.23 9.9,14.89 18.77,24.98 22.69,43.75 0.73,1.43 0.46,1.75 -1.48,1.75 -1.31,0 -3.12,0.82 -4.04,1.83 -2.79,3.08 -2.11,39.52 0.97,51.78 0.58,2.31 0.52,2.33 -6.03,1.72 -7.82,-0.73 -10.59,0.87 -10.59,6.15 1.01,11.4 9.59,19.94 12,30.85 10.44,24.47 0.71,9.87 -0.25,31.4 1.06,16.18 13.89,28.9 27.7,36.25 2.99,1.14 3.05,1.57 0.98,6.54 -2.48,5.94 -1.45,7.94 6.71,12.97 0.91,0.55 5.29,3.84 9.75,7.3 8.99,5.59 11.45,7.06 20.06,13.87 6.56,3.41 6.42,5.5 -0.46,6.57 -4.47,0.51 -8.48,2.52 -12.74,3.82 -6.05,1.77 -6.35,4.15 -0.73,5.84 4.12,1.23 10.29,5.96 12.04,9.22 1.41,2.63 -0.87,5.89 -4.13,5.89 -3.42,0 -6.93,3.86 -6.93,7.63 6.14,16.85 15.1,32.58 23.57,48.37 2.06,3.14 -1.64,3.19 -3.82,4.76 -2.5,2.22 -2.35,6.23 0.78,19.99 0.45,1.99 0.12,2.25 -2.86,2.25 -11.14,1.29 -6.08,16.48 -2.27,22.78 5.65,13.17 21.14,22.42 24.76,36.22 -0.55,0 -2.44,1.21 -4.19,2.68 -4.41,3.31 -2.95,8.89 -0.66,13.11 l 15.35,26.71 -0.84,8 c -0.46,4.4 -0.57,14.95 -0.24,23.44 0.58,15.2 0.64,15.5 3.51,18.98 2.69,3.87 2.62,5.93 7.66,6.08 4.57,0 4.91,0.21 9,5.51 4.48,5.8 4.94,7.6 3.14,12.17 -0.61,1.55 -1.95,5.97 -2.97,9.82 -3.6,22.68 -19.78,38.37 -33.57,55.52 -7.93,10.79 -20.56,15.47 -31.85,21.9 -10.02,5.76 -13.75,7.04 -24.82,8.55 -12.75,0.27 -23.64,3.3 -34.7,8.61 -6.68,5.36 -13.18,10.87 -19.98,15.92 -3.2,2.5 -6,2.57 -6,0.15 z m -184.43,-840.721 c -0.89,-0.896 -1.57,-3.262 -1.57,-5.5 0,-3.824 0.1,-3.929 3.5,-3.929 2.44,0 3.5,0.452 3.5,1.5 0,0.825 0.68,1.5 1.5,1.5 0.82,0 1.5,-0.675 1.5,-1.5 0,-1 1,-1.5 3,-1.5 3.3,0 3.56,0.797 1.83,5.596 -1.83,5.058 -9.75,7.344 -13.26,3.833 z"
       id="path2155" />
    <path
       style="fill:#ffffff;fill-opacity:1"
       d="m 261.73,157.23 c 4.53,-6.69 4.2,-7.48 -2.57,-6.12 -2.63,0.52 -3.13,1.08 -3.13,3.5 -0.3,2.23 1.43,2.69 2,4.37 0,2.38 1.33,1.75 3.7,-1.75 z"
       id="path2165" />
    <path
       style="fill:#ffffff;fill-opacity:1"
       d="m 350.5,99.251 c 3.34,-3.896 3.48,-4.331 1.89,-5.5 -2.47,-1.806 -3.24,-1.591 -3.91,1.106 -1.07,4.243 -9.65,6.283 -12.87,3.054 -0.87,-0.864 -1.58,-2.847 -1.58,-4.406 0,-2.343 -0.34,-2.744 -2,-2.312 -1.55,0.408 -2,1.364 -2,4.334 0,5.493 3.42,7.953 11.06,7.953 5.57,0 5.93,-0.16 9.41,-4.229 z"
       id="path2163" />
    <path
       style="fill:#ffffff;fill-opacity:1"
       d="m 344.03,89.983 c 0,-0.825 -0.67,-1.5 -1.5,-1.5 -0.82,0 -1.5,0.675 -1.5,1.5 0,0.825 0.68,1.5 1.5,1.5 0.83,0 1.5,-0.675 1.5,-1.5 z"
       id="path2157" />
  </g>
</svg>
