<?xml version="1.0" encoding="UTF-8" standalone="no"?>
<svg
   xmlns:dc="http://purl.org/dc/elements/1.1/"
   xmlns:cc="http://creativecommons.org/ns#"
   xmlns:rdf="http://www.w3.org/1999/02/22-rdf-syntax-ns#"
   xmlns:svg="http://www.w3.org/2000/svg"
   xmlns="http://www.w3.org/2000/svg"
   id="svg3486"
   height="202.5"
   width="340.62813"
   viewBox="33.99687 81 340.62813 202.5"
   version="1.1">
fill:#ff0000
  <metadata
     id="metadata3240"> Produced by OmniGraffle 7.8 
    <dc:date>2018-07-22 20:54:18 +0000</dc:date>
<dc:title>Traceable heraldic art http://heraldicart.org/credits.html</dc:title>
<rdf:RDF>
  <cc:Work
     rdf:about="">
    <dc:format>image/svg+xml</dc:format>
    <dc:type
       rdf:resource="http://purl.org/dc/dcmitype/StillImage" />
    <dc:title></dc:title>
  </cc:Work>
</rdf:RDF>
</metadata>
  <g
     fill="#ffff00"
     stroke-opacity="1"
     stroke="none"
     stroke-dasharray="none"
     fill-opacity="1"
     id="Bear_Couchant">
    <title
       id="title3242">Bear Couchant</title>
    <g
       id="Bear_Couchant: Layer 2">
      <title
         id="title3244">Layer 2</title>
      <g
         id="Group_3">
        <g
           id="Graphic_52">
          <path
             id="path3246"
             fill="#cccccc"
             d="M 105.78583 79.1262 C 105.83233 79.13866 105.96894 79.00083 106.11178 78.83974 C 106.23138 78.67243 106.22848 78.49721 106.11223 78.46606 C 105.97273 78.42868 105.83612 78.56652 105.78628 78.75252 C 105.73644 78.93853 105.73933 79.11374 105.78583 79.1262 Z" />
        </g>
        <g
           id="Graphic_51">
          <path
             id="path3249"
             fill="#ff0000"
             d="M 127.58533 135.3813 C 158.05173 119.57347 193.94999 118.05096 225.64546 131.2224 C 235.6421 135.06616 246.63828 135.45016 256.8787 132.31309 C 281.90497 125.2327 308.80636 130.44928 329.37226 146.37066 C 349.93815 162.29204 361.7278 187.02869 361.1429 213.0307 C 336.2748 234.026 305.6606 247.0461 273.28763 250.3951 C 244.60093 256.34787 214.72394 250.7649 190.1227 234.8545 C 167.97408 231.16327 148.46229 218.17394 136.5113 199.16445 C 124.5603 180.15496 121.31171 156.94119 127.58533 135.3813 Z" />
          <path
             id="path3251"
             stroke-width="2.2499676"
             stroke-linejoin="round"
             stroke-linecap="round"
             stroke="#cccccc"
             d="M 127.58533 135.3813 C 158.05173 119.57347 193.94999 118.05096 225.64546 131.2224 C 235.6421 135.06616 246.63828 135.45016 256.8787 132.31309 C 281.90497 125.2327 308.80636 130.44928 329.37226 146.37066 C 349.93815 162.29204 361.7278 187.02869 361.1429 213.0307 C 336.2748 234.026 305.6606 247.0461 273.28763 250.3951 C 244.60093 256.34787 214.72394 250.7649 190.1227 234.8545 C 167.97408 231.16327 148.46229 218.17394 136.5113 199.16445 C 124.5603 180.15496 121.31171 156.94119 127.58533 135.3813 Z" />
        </g>
        <g
           id="Graphic_50">
          <path
             id="path3254"
             fill="#ff0000"
             d="M 73.69384 234.82915 C 74.70362 224.65597 80.6298 215.62156 89.55887 210.6431 C 98.48793 205.66464 109.28863 205.37285 118.47346 209.86196 C 120.11839 223.73936 117.18257 237.7741 110.11317 249.82863 C 112.28966 251.6056 113.56266 254.25885 113.58679 257.0685 C 113.61091 259.87816 112.38365 262.55288 110.23799 264.36696 C 100.18444 272.20286 85.96023 271.70614 76.47777 263.18802 C 71.086145 254.71796 70.05224 244.18598 73.69384 234.82915 Z" />
          <path
             id="path3256"
             stroke-width="2.2499676"
             stroke-linejoin="round"
             stroke-linecap="round"
             stroke="#cccccc"
             d="M 73.69384 234.82915 C 74.70362 224.65597 80.6298 215.62156 89.55887 210.6431 C 98.48793 205.66464 109.28863 205.37285 118.47346 209.86196 C 120.11839 223.73936 117.18257 237.7741 110.11317 249.82863 C 112.28966 251.6056 113.56266 254.25885 113.58679 257.0685 C 113.61091 259.87816 112.38365 262.55288 110.23799 264.36696 C 100.18444 272.20286 85.96023 271.70614 76.47777 263.18802 C 71.086145 254.71796 70.05224 244.18598 73.69384 234.82915 Z" />
        </g>
        <g
           id="Graphic_49">
          <path
             id="path3259"
             fill="#ff0000"
             d="M 75.83096 263.15342 C 73.03978 265.14184 71.72429 268.61798 72.49972 271.95612 C 73.27515 275.29427 75.98823 277.8346 79.3701 278.38905 C 77.40061 277.18462 76.20092 275.04108 76.20427 272.7325 C 76.20761 270.42392 77.413505 268.28387 79.38648 267.08515 C 80.400165 266.0881 80.44752 264.46914 79.49383 263.41455 C 78.54015 262.35996 76.9246 262.2448 75.83096 263.15342 Z" />
          <path
             id="path3261"
             stroke-width="2.2499676"
             stroke-linejoin="round"
             stroke-linecap="round"
             stroke="#cccccc"
             d="M 75.83096 263.15342 C 73.03978 265.14184 71.72429 268.61798 72.49972 271.95612 C 73.27515 275.29427 75.98823 277.8346 79.3701 278.38905 C 77.40061 277.18462 76.20092 275.04108 76.20427 272.7325 C 76.20761 270.42392 77.413505 268.28387 79.38648 267.08515 C 80.400165 266.0881 80.44752 264.46914 79.49383 263.41455 C 78.54015 262.35996 76.9246 262.2448 75.83096 263.15342 Z" />
        </g>
        <g
           id="Graphic_48">
          <path
             id="path3264"
             fill="#ff0000"
             d="M 83.43572 266.94856 C 81.11895 269.47385 80.55494 273.14753 82.00746 276.2515 C 83.45998 279.35548 86.64194 281.27622 90.06519 281.11543 C 87.88832 280.3468 86.26918 278.49953 85.79247 276.2407 C 85.31576 273.98188 86.05036 271.63786 87.73099 270.05514 C 88.51523 268.86912 88.22495 267.2757 87.07284 266.44243 C 85.92074 265.60916 84.31655 265.8324 83.43572 266.94856 Z" />
          <path
             id="path3266"
             stroke-width="2.2499676"
             stroke-linejoin="round"
             stroke-linecap="round"
             stroke="#cccccc"
             d="M 83.43572 266.94856 C 81.11895 269.47385 80.55494 273.14753 82.00746 276.2515 C 83.45998 279.35548 86.64194 281.27622 90.06519 281.11543 C 87.88832 280.3468 86.26918 278.49953 85.79247 276.2407 C 85.31576 273.98188 86.05036 271.63786 87.73099 270.05514 C 88.51523 268.86912 88.22495 267.2757 87.07284 266.44243 C 85.92074 265.60916 84.31655 265.8324 83.43572 266.94856 Z" />
        </g>
        <g
           id="Graphic_47">
          <path
             id="path3269"
             fill="#ff0000"
             d="M 91.99169 267.86365 C 90.04892 270.6868 90.00167 274.40322 91.87205 277.27484 C 93.74242 280.14645 97.16073 281.60566 100.52828 280.97 C 98.26563 280.5118 96.40516 278.90786 95.61872 276.73737 C 94.83228 274.56687 95.23351 272.14343 96.67751 270.3422 C 97.28905 269.0586 96.77983 267.52107 95.52297 266.85625 C 94.26611 266.19144 92.7086 266.63577 91.99169 267.86365 Z" />
          <path
             id="path3271"
             stroke-width="2.2499676"
             stroke-linejoin="round"
             stroke-linecap="round"
             stroke="#cccccc"
             d="M 91.99169 267.86365 C 90.04892 270.6868 90.00167 274.40322 91.87205 277.27484 C 93.74242 280.14645 97.16073 281.60566 100.52828 280.97 C 98.26563 280.5118 96.40516 278.90786 95.61872 276.73737 C 94.83228 274.56687 95.23351 272.14343 96.67751 270.3422 C 97.28905 269.0586 96.77983 267.52107 95.52297 266.85625 C 94.26611 266.19144 92.7086 266.63577 91.99169 267.86365 Z" />
        </g>
        <g
           id="Graphic_46">
          <path
             id="path3274"
             fill="#ff0000"
             d="M 100.01885 266.17116 C 98.87296 269.40093 99.7892 273.00295 102.33908 275.29263 C 104.88895 277.5823 108.56845 278.10706 111.65674 276.6215 C 109.3526 276.76453 107.14038 275.69675 105.81898 273.80376 C 104.49757 271.91076 104.2579 269.46606 105.1865 267.35247 C 105.44498 265.9543 104.55517 264.60098 103.16907 264.28412 C 101.78298 263.96726 100.39353 264.79956 100.01885 266.17116 Z" />
          <path
             id="path3276"
             stroke-width="2.2499676"
             stroke-linejoin="round"
             stroke-linecap="round"
             stroke="#cccccc"
             d="M 100.01885 266.17116 C 98.87296 269.40093 99.7892 273.00295 102.33908 275.29263 C 104.88895 277.5823 108.56845 278.10706 111.65674 276.6215 C 109.3526 276.76453 107.14038 275.69675 105.81898 273.80376 C 104.49757 271.91076 104.2579 269.46606 105.1865 267.35247 C 105.44498 265.9543 104.55517 264.60098 103.16907 264.28412 C 101.78298 263.96726 100.39353 264.79956 100.01885 266.17116 Z" />
        </g>
        <g
           id="Graphic_45">
          <path
             id="path3279"
             fill="#ff0000"
             d="M 107.06449 262.40814 C 106.79357 265.82443 108.61087 269.06658 111.66647 270.61828 C 114.72207 272.17 118.41201 271.72454 121.01058 269.49027 C 118.82196 270.2248 116.40877 269.76597 114.64245 268.27948 C 112.87612 266.793 112.01188 264.49362 112.36181 262.21172 C 112.24961 260.7943 111.03985 259.71738 109.61897 259.77006 C 108.1981 259.82275 107.07141 260.9863 107.06449 262.40814 Z" />
          <path
             id="path3281"
             stroke-width="2.2499676"
             stroke-linejoin="round"
             stroke-linecap="round"
             stroke="#cccccc"
             d="M 107.06449 262.40814 C 106.79357 265.82443 108.61087 269.06658 111.66647 270.61828 C 114.72207 272.17 118.41201 271.72454 121.01058 269.49027 C 118.82196 270.2248 116.40877 269.76597 114.64245 268.27948 C 112.87612 266.793 112.01188 264.49362 112.36181 262.21172 C 112.24961 260.7943 111.03985 259.71738 109.61897 259.77006 C 108.1981 259.82275 107.07141 260.9863 107.06449 262.40814 Z" />
        </g>
        <g
           id="Graphic_44">
          <path
             id="path3284"
             fill="#ff0000"
             d="M 120.14243 140.50735 C 133.39928 128.97329 151.7191 125.20415 168.45255 130.56797 C 185.186 135.9318 197.90068 149.6489 201.9817 166.74054 C 209.05616 189.09062 209.64604 212.98891 203.68284 235.6608 C 206.8872 242.06716 212.00042 247.32142 218.31723 250.69886 C 206.4391 252.5159 194.60878 247.14625 188.15648 237.0092 C 186.91235 244.5531 190.94686 251.9792 197.9529 255.0409 C 189.50637 253.8123 181.9168 249.21716 176.91303 242.30227 C 175.04131 246.94387 177.05776 252.24407 181.54138 254.4678 C 178.87437 255.39505 175.93534 255.11065 173.4956 253.68923 C 171.05586 252.2678 169.35902 249.8513 168.85038 247.0739 C 150.2268 252.9777 130.40356 254.02488 111.26163 250.11603 C 107.63355 249.16957 103.78407 250.3861 101.35877 253.24558 C 90.74462 256.97052 79.203825 257.12402 68.49436 253.6827 C 66.71635 255.85823 64.06256 257.1299 61.25298 257.15268 C 58.44339 257.17546 55.76933 255.947 53.956274 253.80058 C 46.124206 243.74838 46.62077 229.52868 55.134965 220.0473 C 62.094126 216.94262 70.11604 217.33892 76.73532 221.11439 C 90.82891 221.8447 104.96022 221.08472 118.8942 218.84711 C 118.48898 219.15602 118.03994 219.40272 117.5619 219.57907 C 105.02253 210.08521 97.87242 195.09487 98.38543 179.37527 C 98.89844 163.65567 107.01073 149.16342 120.14243 140.50735 Z" />
          <path
             id="path3286"
             stroke-width="2.2499676"
             stroke-linejoin="round"
             stroke-linecap="round"
             stroke="#cccccc"
             d="M 120.14243 140.50735 C 133.39928 128.97329 151.7191 125.20415 168.45255 130.56797 C 185.186 135.9318 197.90068 149.6489 201.9817 166.74054 C 209.05616 189.09062 209.64604 212.98891 203.68284 235.6608 C 206.8872 242.06716 212.00042 247.32142 218.31723 250.69886 C 206.4391 252.5159 194.60878 247.14625 188.15648 237.0092 C 186.91235 244.5531 190.94686 251.9792 197.9529 255.0409 C 189.50637 253.8123 181.9168 249.21716 176.91303 242.30227 C 175.04131 246.94387 177.05776 252.24407 181.54138 254.4678 C 178.87437 255.39505 175.93534 255.11065 173.4956 253.68923 C 171.05586 252.2678 169.35902 249.8513 168.85038 247.0739 C 150.2268 252.9777 130.40356 254.02488 111.26163 250.11603 C 107.63355 249.16957 103.78407 250.3861 101.35877 253.24558 C 90.74462 256.97052 79.203825 257.12402 68.49436 253.6827 C 66.71635 255.85823 64.06256 257.1299 61.25298 257.15268 C 58.44339 257.17546 55.76933 255.947 53.956274 253.80058 C 46.124206 243.74838 46.62077 229.52868 55.134965 220.0473 C 62.094126 216.94262 70.11604 217.33892 76.73532 221.11439 C 90.82891 221.8447 104.96022 221.08472 118.8942 218.84711 C 118.48898 219.15602 118.03994 219.40272 117.5619 219.57907 C 105.02253 210.08521 97.87242 195.09487 98.38543 179.37527 C 98.89844 163.65567 107.01073 149.16342 120.14243 140.50735 Z" />
        </g>
        <g
           id="Graphic_43">
          <path
             id="path3289"
             fill="#ff0000"
             d="M 55.11564 220.9599 C 53.127224 218.16872 49.65108 216.85323 46.31294 217.62866 C 42.9748 218.4041 40.434467 221.11717 39.88001 224.49904 C 41.084443 222.52955 43.227984 221.32986 45.53656 221.3332 C 47.84514 221.33655 49.9852 222.54245 51.183917 224.51542 C 52.180966 225.5291 53.799926 225.57646 54.85452 224.62277 C 55.90911 223.6691 56.02428 222.05354 55.11564 220.9599 Z" />
          <path
             id="path3291"
             stroke-width="2.2499676"
             stroke-linejoin="round"
             stroke-linecap="round"
             stroke="#cccccc"
             d="M 55.11564 220.9599 C 53.127224 218.16872 49.65108 216.85323 46.31294 217.62866 C 42.9748 218.4041 40.434467 221.11717 39.88001 224.49904 C 41.084443 222.52955 43.227984 221.32986 45.53656 221.3332 C 47.84514 221.33655 49.9852 222.54245 51.183917 224.51542 C 52.180966 225.5291 53.799926 225.57646 54.85452 224.62277 C 55.90911 223.6691 56.02428 222.05354 55.11564 220.9599 Z" />
        </g>
        <g
           id="Graphic_42">
          <path
             id="path3294"
             fill="#ff0000"
             d="M 51.3205 228.56466 C 48.79522 226.2479 45.12153 225.68388 42.017557 227.1364 C 38.913583 228.58892 36.992844 231.77088 37.153635 235.19413 C 37.922267 233.01726 39.76954 231.39812 42.028364 230.9214 C 44.28719 230.4447 46.6312 231.1793 48.21393 232.85993 C 49.39995 233.64417 50.993374 233.3539 51.82664 232.20178 C 52.6599 231.04968 52.436664 229.44549 51.3205 228.56466 Z" />
          <path
             id="path3296"
             stroke-width="2.2499676"
             stroke-linejoin="round"
             stroke-linecap="round"
             stroke="#cccccc"
             d="M 51.3205 228.56466 C 48.79522 226.2479 45.12153 225.68388 42.017557 227.1364 C 38.913583 228.58892 36.992844 231.77088 37.153635 235.19413 C 37.922267 233.01726 39.76954 231.39812 42.028364 230.9214 C 44.28719 230.4447 46.6312 231.1793 48.21393 232.85993 C 49.39995 233.64417 50.993374 233.3539 51.82664 232.20178 C 52.6599 231.04968 52.436664 229.44549 51.3205 228.56466 Z" />
        </g>
        <g
           id="Graphic_41">
          <path
             id="path3299"
             fill="#ff0000"
             d="M 50.40541 237.12063 C 47.58227 235.17785 43.86584 235.1306 40.994226 237.001 C 38.12261 238.87136 36.66341 242.28967 37.29906 245.65722 C 37.75725 243.39457 39.3612 241.5341 41.5317 240.74766 C 43.7022 239.96122 46.12563 240.36245 47.926856 241.80645 C 49.21048 242.418 50.748 241.90877 51.41281 240.6519 C 52.07762 239.39505 51.6333 237.83754 50.40541 237.12063 Z" />
          <path
             id="path3301"
             stroke-width="2.2499676"
             stroke-linejoin="round"
             stroke-linecap="round"
             stroke="#cccccc"
             d="M 50.40541 237.12063 C 47.58227 235.17785 43.86584 235.1306 40.994226 237.001 C 38.12261 238.87136 36.66341 242.28967 37.29906 245.65722 C 37.75725 243.39457 39.3612 241.5341 41.5317 240.74766 C 43.7022 239.96122 46.12563 240.36245 47.926856 241.80645 C 49.21048 242.418 50.748 241.90877 51.41281 240.6519 C 52.07762 239.39505 51.6333 237.83754 50.40541 237.12063 Z" />
        </g>
        <g
           id="Graphic_40">
          <path
             id="path3304"
             fill="#ff0000"
             d="M 52.09791 245.1478 C 48.86814 244.0019 45.266116 244.91814 42.97644 247.46802 C 40.68676 250.0179 40.162 253.6974 41.64758 256.78568 C 41.50454 254.48153 42.572313 252.26932 44.46531 250.94792 C 46.358303 249.6265 48.803007 249.38683 50.91659 250.31544 C 52.31475 250.57392 53.668087 249.6841 53.98495 248.298 C 54.30181 246.91191 53.46951 245.52247 52.09791 245.1478 Z" />
          <path
             id="path3306"
             stroke-width="2.2499676"
             stroke-linejoin="round"
             stroke-linecap="round"
             stroke="#cccccc"
             d="M 52.09791 245.1478 C 48.86814 244.0019 45.266116 244.91814 42.97644 247.46802 C 40.68676 250.0179 40.162 253.6974 41.64758 256.78568 C 41.50454 254.48153 42.572313 252.26932 44.46531 250.94792 C 46.358303 249.6265 48.803007 249.38683 50.91659 250.31544 C 52.31475 250.57392 53.668087 249.6841 53.98495 248.298 C 54.30181 246.91191 53.46951 245.52247 52.09791 245.1478 Z" />
        </g>
        <g
           id="Graphic_39">
          <path
             id="path3309"
             fill="#ff0000"
             d="M 55.86093 252.19343 C 52.44463 251.9225 49.202485 253.7398 47.65078 256.7954 C 46.09908 259.851 46.544524 263.54095 48.77879 266.1395 C 48.04427 263.9509 48.503096 261.5377 49.989584 259.7714 C 51.47607 258.00506 53.77544 257.14082 56.05735 257.49075 C 57.47477 257.37855 58.55169 256.1688 58.499004 254.7479 C 58.44632 253.32704 57.282765 252.20035 55.86093 252.19343 Z" />
          <path
             id="path3311"
             stroke-width="2.2499676"
             stroke-linejoin="round"
             stroke-linecap="round"
             stroke="#cccccc"
             d="M 55.86093 252.19343 C 52.44463 251.9225 49.202485 253.7398 47.65078 256.7954 C 46.09908 259.851 46.544524 263.54095 48.77879 266.1395 C 48.04427 263.9509 48.503096 261.5377 49.989584 259.7714 C 51.47607 258.00506 53.77544 257.14082 56.05735 257.49075 C 57.47477 257.37855 58.55169 256.1688 58.499004 254.7479 C 58.44632 253.32704 57.282765 252.20035 55.86093 252.19343 Z" />
        </g>
        <g
           id="Graphic_38">
          <path
             id="path3314"
             fill="#ff0000"
             d="M 359.0641 209.16565 C 359.19766 188.0443 345.74396 169.22846 325.71447 162.52407 C 305.685 155.81969 283.6151 162.74488 271.00664 179.69055 C 258.39818 196.63622 258.10614 219.76527 270.28273 237.02388 C 276.57096 237.71465 282.86475 238.3538 289.16346 238.9413 C 279.4081 237.45575 269.5474 236.772 259.68036 236.8969 C 256.74243 243.39812 256.8567 250.87082 259.99203 257.27915 C 263.12737 263.6875 268.95712 268.36384 275.89305 270.03418 C 287.42272 266.42745 298.51507 261.54848 308.9652 255.4874 C 312.8133 254.34178 315.87686 251.41745 317.2001 247.62676 C 318.5233 243.83607 317.94512 239.6405 315.6459 236.349 C 317.14455 240.5238 317.52672 245.01767 316.75456 249.3856 C 321.1839 247.78986 324.55514 244.13212 325.78513 239.58763 C 327.37118 241.29235 328.1888 243.57287 328.04723 245.897 C 327.90564 248.22113 326.8172 250.38553 325.03595 251.8851 C 328.06595 251.0838 330.6258 249.05768 332.1016 246.29272 C 333.5774 243.52775 333.836 240.27335 332.8154 237.31002 C 334.1269 241.95863 335.653 246.54402 337.3887 251.05145 C 341.20546 245.2115 342.49056 238.07332 340.95018 231.26893 C 341.2565 230.45878 341.48813 229.6223 341.64216 228.76998 C 340.74596 232.2437 341.384 235.935 343.39428 238.90634 C 345.40454 241.87766 348.59356 243.8431 352.15137 244.30346 C 359.7841 246.0521 367.53125 241.87534 370.2652 234.53765 C 372.99917 227.19997 369.87382 218.9722 362.95777 215.3001 C 360.4897 214.28862 358.92885 211.8295 359.0641 209.16565 Z" />
          <path
             id="path3316"
             stroke-width="2.2499676"
             stroke-linejoin="round"
             stroke-linecap="round"
             stroke="#cccccc"
             d="M 359.0641 209.16565 C 359.19766 188.0443 345.74396 169.22846 325.71447 162.52407 C 305.685 155.81969 283.6151 162.74488 271.00664 179.69055 C 258.39818 196.63622 258.10614 219.76527 270.28273 237.02388 C 276.57096 237.71465 282.86475 238.3538 289.16346 238.9413 C 279.4081 237.45575 269.5474 236.772 259.68036 236.8969 C 256.74243 243.39812 256.8567 250.87082 259.99203 257.27915 C 263.12737 263.6875 268.95712 268.36384 275.89305 270.03418 C 287.42272 266.42745 298.51507 261.54848 308.9652 255.4874 C 312.8133 254.34178 315.87686 251.41745 317.2001 247.62676 C 318.5233 243.83607 317.94512 239.6405 315.6459 236.349 C 317.14455 240.5238 317.52672 245.01767 316.75456 249.3856 C 321.1839 247.78986 324.55514 244.13212 325.78513 239.58763 C 327.37118 241.29235 328.1888 243.57287 328.04723 245.897 C 327.90564 248.22113 326.8172 250.38553 325.03595 251.8851 C 328.06595 251.0838 330.6258 249.05768 332.1016 246.29272 C 333.5774 243.52775 333.836 240.27335 332.8154 237.31002 C 334.1269 241.95863 335.653 246.54402 337.3887 251.05145 C 341.20546 245.2115 342.49056 238.07332 340.95018 231.26893 C 341.2565 230.45878 341.48813 229.6223 341.64216 228.76998 C 340.74596 232.2437 341.384 235.935 343.39428 238.90634 C 345.40454 241.87766 348.59356 243.8431 352.15137 244.30346 C 359.7841 246.0521 367.53125 241.87534 370.2652 234.53765 C 372.99917 227.19997 369.87382 218.9722 362.95777 215.3001 C 360.4897 214.28862 358.92885 211.8295 359.0641 209.16565 Z" />
        </g>
        <g
           id="Graphic_37">
          <path
             id="path3319"
             fill="#ff0000"
             d="M 261.56417 235.14503 C 258.61797 233.2636 254.8275 233.34657 251.96644 235.35512 C 249.1054 237.36367 247.73965 240.90052 248.5083 244.31066 C 248.89326 241.9877 250.46095 240.03327 252.64502 239.15343 C 254.8291 238.27358 257.3138 238.5955 259.20154 240.00292 C 260.5256 240.55882 262.05328 239.98324 262.68135 238.69185 C 263.30942 237.40046 262.81896 235.84336 261.56417 235.14503 Z" />
          <path
             id="path3321"
             stroke-width="2.2499676"
             stroke-linejoin="round"
             stroke-linecap="round"
             stroke="#cccccc"
             d="M 261.56417 235.14503 C 258.61797 233.2636 254.8275 233.34657 251.96644 235.35512 C 249.1054 237.36367 247.73965 240.90052 248.5083 244.31066 C 248.89326 241.9877 250.46095 240.03327 252.64502 239.15343 C 254.8291 238.27358 257.3138 238.5955 259.20154 240.00292 C 260.5256 240.55882 262.05328 239.98324 262.68135 238.69185 C 263.30942 237.40046 262.81896 235.84336 261.56417 235.14503 Z" />
        </g>
        <g
           id="Graphic_36">
          <path
             id="path3324"
             fill="#ff0000"
             d="M 260.88093 243.78433 C 257.60794 242.55656 253.91755 243.4258 251.53662 245.9853 C 249.1557 248.5448 248.55515 252.28833 250.016 255.46413 C 249.9096 253.1119 251.03667 250.87424 252.99008 249.55952 C 254.9435 248.2448 257.44085 248.0431 259.57994 249.02727 C 260.99065 249.29574 262.36528 248.41512 262.71112 247.02136 C 263.05697 245.6276 262.2535 244.2065 260.88093 243.78433 Z" />
          <path
             id="path3326"
             stroke-width="2.2499676"
             stroke-linejoin="round"
             stroke-linecap="round"
             stroke="#cccccc"
             d="M 260.88093 243.78433 C 257.60794 242.55656 253.91755 243.4258 251.53662 245.9853 C 249.1557 248.5448 248.55515 252.28833 250.016 255.46413 C 249.9096 253.1119 251.03667 250.87424 252.99008 249.55952 C 254.9435 248.2448 257.44085 248.0431 259.57994 249.02727 C 260.99065 249.29574 262.36528 248.41512 262.71112 247.02136 C 263.05697 245.6276 262.2535 244.2065 260.88093 243.78433 Z" />
        </g>
        <g
           id="Graphic_35">
          <path
             id="path3329"
             fill="#ff0000"
             d="M 263.2838 252.22304 C 259.87178 251.46273 256.33827 252.83712 254.33673 255.70307 C 252.33518 258.56903 252.26148 262.3597 254.15012 265.30128 C 253.71736 262.98676 254.52205 260.614 256.27348 259.04022 C 258.0249 257.46644 260.4699 256.91913 262.72513 257.59602 C 264.15947 257.66554 265.39817 256.60218 265.54668 255.17386 C 265.6952 253.74553 264.70175 252.4501 263.2838 252.22304 Z" />
          <path
             id="path3331"
             stroke-width="2.2499676"
             stroke-linejoin="round"
             stroke-linecap="round"
             stroke="#cccccc"
             d="M 263.2838 252.22304 C 259.87178 251.46273 256.33827 252.83712 254.33673 255.70307 C 252.33518 258.56903 252.26148 262.3597 254.15012 265.30128 C 253.71736 262.98676 254.52205 260.614 256.27348 259.04022 C 258.0249 257.46644 260.4699 256.91913 262.72513 257.59602 C 264.15947 257.66554 265.39817 256.60218 265.54668 255.17386 C 265.6952 253.74553 264.70175 252.4501 263.2838 252.22304 Z" />
        </g>
        <g
           id="Graphic_34">
          <path
             id="path3334"
             fill="#ff0000"
             d="M 267.94978 259.16533 C 264.45725 259.31402 261.39986 261.5561 260.20828 264.84245 C 259.0167 268.1288 259.9266 271.80936 262.51223 274.1619 C 261.49518 272.03825 261.65834 269.53808 262.94276 267.56462 C 264.2272 265.59116 266.4472 264.4297 268.8008 264.49982 C 270.20425 264.19574 271.12552 262.848 270.8993 261.42992 C 270.67306 260.01183 269.3782 259.01764 267.94978 259.16533 Z" />
          <path
             id="path3336"
             stroke-width="2.2499676"
             stroke-linejoin="round"
             stroke-linecap="round"
             stroke="#cccccc"
             d="M 267.94978 259.16533 C 264.45725 259.31402 261.39986 261.5561 260.20828 264.84245 C 259.0167 268.1288 259.9266 271.80936 262.51223 274.1619 C 261.49518 272.03825 261.65834 269.53808 262.94276 267.56462 C 264.2272 265.59116 266.4472 264.4297 268.8008 264.49982 C 270.20425 264.19574 271.12552 262.848 270.8993 261.42992 C 270.67306 260.01183 269.3782 259.01764 267.94978 259.16533 Z" />
        </g>
        <g
           id="Graphic_33">
          <path
             id="path3339"
             fill="#ff0000"
             d="M 274.19857 264.38875 C 270.86353 265.4363 268.49062 268.3933 268.1902 271.87608 C 267.8898 275.35884 269.7213 278.6785 272.8277 280.28168 C 271.29567 278.49362 270.80617 276.0364 271.53606 273.79776 C 272.26595 271.5591 274.1097 269.86263 276.40126 269.32122 C 277.6782 268.66425 278.21925 267.124 277.6337 265.8128 C 277.04815 264.50157 275.5401 263.8764 274.19857 264.38875 Z" />
          <path
             id="path3341"
             stroke-width="2.2499676"
             stroke-linejoin="round"
             stroke-linecap="round"
             stroke="#cccccc"
             d="M 274.19857 264.38875 C 270.86353 265.4363 268.49062 268.3933 268.1902 271.87608 C 267.8898 275.35884 269.7213 278.6785 272.8277 280.28168 C 271.29567 278.49362 270.80617 276.0364 271.53606 273.79776 C 272.26595 271.5591 274.1097 269.86263 276.40126 269.32122 C 277.6782 268.66425 278.21925 267.124 277.6337 265.8128 C 277.04815 264.50157 275.5401 263.8764 274.19857 264.38875 Z" />
        </g>
        <g
           id="Graphic_32">
          <path
             id="path3344"
             fill="#ff0000"
             d="M 75.93516 263.19302 C 73.14398 265.18144 71.82849 268.65758 72.60392 271.99572 C 73.37935 275.33386 76.092425 277.8742 79.4743 278.42865 C 77.50481 277.22422 76.30512 275.08068 76.30846 272.7721 C 76.31181 270.46352 77.5177 268.32346 79.49067 267.12474 C 80.50436 266.1277 80.55171 264.50873 79.59803 263.45414 C 78.64435 262.39955 77.0288 262.28438 75.93516 263.19302 Z" />
          <path
             id="path3346"
             stroke-width="1.1249838"
             stroke-linejoin="round"
             stroke-linecap="round"
             stroke="#cccccc"
             d="M 75.93516 263.19302 C 73.14398 265.18144 71.82849 268.65758 72.60392 271.99572 C 73.37935 275.33386 76.092425 277.8742 79.4743 278.42865 C 77.50481 277.22422 76.30512 275.08068 76.30846 272.7721 C 76.31181 270.46352 77.5177 268.32346 79.49067 267.12474 C 80.50436 266.1277 80.55171 264.50873 79.59803 263.45414 C 78.64435 262.39955 77.0288 262.28438 75.93516 263.19302 Z" />
        </g>
        <g
           id="Graphic_31">
          <path
             id="path3349"
             fill="#ff0000"
             d="M 83.53992 266.98816 C 81.22315 269.51344 80.65914 273.18713 82.11166 276.2911 C 83.56418 279.39508 86.74614 281.3158 90.16939 281.15502 C 87.99252 280.3864 86.37338 278.53912 85.89667 276.2803 C 85.41996 274.02147 86.15456 271.67746 87.83519 270.09473 C 88.61943 268.9087 88.32914 267.3153 87.17704 266.48202 C 86.02494 265.64876 84.42074 265.872 83.53992 266.98816 Z" />
          <path
             id="path3351"
             stroke-width="1.1249838"
             stroke-linejoin="round"
             stroke-linecap="round"
             stroke="#cccccc"
             d="M 83.53992 266.98816 C 81.22315 269.51344 80.65914 273.18713 82.11166 276.2911 C 83.56418 279.39508 86.74614 281.3158 90.16939 281.15502 C 87.99252 280.3864 86.37338 278.53912 85.89667 276.2803 C 85.41996 274.02147 86.15456 271.67746 87.83519 270.09473 C 88.61943 268.9087 88.32914 267.3153 87.17704 266.48202 C 86.02494 265.64876 84.42074 265.872 83.53992 266.98816 Z" />
        </g>
        <g
           id="Graphic_30">
          <path
             id="path3354"
             fill="#ff0000"
             d="M 92.09588 267.90325 C 90.15311 270.7264 90.10587 274.44282 91.97624 277.31443 C 93.84662 280.18605 97.26492 281.64525 100.63248 281.0096 C 98.36983 280.5514 96.50935 278.94746 95.72292 276.77696 C 94.93648 274.60646 95.3377 272.18303 96.78171 270.3818 C 97.39325 269.09818 96.88403 267.56066 95.62717 266.89585 C 94.37031 266.23104 92.8128 266.67536 92.09588 267.90325 Z" />
          <path
             id="path3356"
             stroke-width="1.1249838"
             stroke-linejoin="round"
             stroke-linecap="round"
             stroke="#cccccc"
             d="M 92.09588 267.90325 C 90.15311 270.7264 90.10587 274.44282 91.97624 277.31443 C 93.84662 280.18605 97.26492 281.64525 100.63248 281.0096 C 98.36983 280.5514 96.50935 278.94746 95.72292 276.77696 C 94.93648 274.60646 95.3377 272.18303 96.78171 270.3818 C 97.39325 269.09818 96.88403 267.56066 95.62717 266.89585 C 94.37031 266.23104 92.8128 266.67536 92.09588 267.90325 Z" />
        </g>
        <g
           id="Graphic_29">
          <path
             id="path3359"
             fill="#ff0000"
             d="M 100.12305 266.21075 C 98.97715 269.44052 99.8934 273.04254 102.44328 275.33222 C 104.99315 277.6219 108.67265 278.14666 111.76094 276.66108 C 109.45679 276.80412 107.24458 275.73635 105.92317 273.84335 C 104.60177 271.95036 104.36209 269.50565 105.2907 267.39207 C 105.54918 265.9939 104.65937 264.64057 103.27327 264.3237 C 101.88717 264.00685 100.49773 264.83915 100.12305 266.21075 Z" />
          <path
             id="path3361"
             stroke-width="1.1249838"
             stroke-linejoin="round"
             stroke-linecap="round"
             stroke="#cccccc"
             d="M 100.12305 266.21075 C 98.97715 269.44052 99.8934 273.04254 102.44328 275.33222 C 104.99315 277.6219 108.67265 278.14666 111.76094 276.66108 C 109.45679 276.80412 107.24458 275.73635 105.92317 273.84335 C 104.60177 271.95036 104.36209 269.50565 105.2907 267.39207 C 105.54918 265.9939 104.65937 264.64057 103.27327 264.3237 C 101.88717 264.00685 100.49773 264.83915 100.12305 266.21075 Z" />
        </g>
        <g
           id="Graphic_28">
          <path
             id="path3364"
             fill="#ff0000"
             d="M 107.16869 262.44773 C 106.89777 265.86403 108.71507 269.10617 111.77067 270.65788 C 114.82627 272.20958 118.51621 271.76414 121.11477 269.52987 C 118.92616 270.2644 116.51297 269.80556 114.74665 268.31908 C 112.98032 266.8326 112.11608 264.53322 112.466 262.2513 C 112.35381 260.8339 111.14405 259.75697 109.72317 259.80966 C 108.30229 259.86234 107.17561 261.0259 107.16869 262.44773 Z" />
          <path
             id="path3366"
             stroke-width="1.1249838"
             stroke-linejoin="round"
             stroke-linecap="round"
             stroke="#cccccc"
             d="M 107.16869 262.44773 C 106.89777 265.86403 108.71507 269.10617 111.77067 270.65788 C 114.82627 272.20958 118.51621 271.76414 121.11477 269.52987 C 118.92616 270.2644 116.51297 269.80556 114.74665 268.31908 C 112.98032 266.8326 112.11608 264.53322 112.466 262.2513 C 112.35381 260.8339 111.14405 259.75697 109.72317 259.80966 C 108.30229 259.86234 107.17561 261.0259 107.16869 262.44773 Z" />
        </g>
        <g
           id="Graphic_27">
          <path
             id="path3369"
             fill="#ff0000"
             d="M 55.21956 220.99963 C 53.231144 218.20845 49.755 216.89296 46.41686 217.6684 C 43.07872 218.44382 40.538387 221.1569 39.98393 224.53877 C 41.18836 222.56928 43.331904 221.3696 45.64048 221.37294 C 47.94906 221.37629 50.089117 222.58218 51.287836 224.55515 C 52.284885 225.56884 53.903846 225.6162 54.958436 224.6625 C 56.01303 223.70883 56.1282 222.09327 55.21956 220.99963 Z" />
          <path
             id="path3371"
             stroke-width="1.1249838"
             stroke-linejoin="round"
             stroke-linecap="round"
             stroke="#cccccc"
             d="M 55.21956 220.99963 C 53.231144 218.20845 49.755 216.89296 46.41686 217.6684 C 43.07872 218.44382 40.538387 221.1569 39.98393 224.53877 C 41.18836 222.56928 43.331904 221.3696 45.64048 221.37294 C 47.94906 221.37629 50.089117 222.58218 51.287836 224.55515 C 52.284885 225.56884 53.903846 225.6162 54.958436 224.6625 C 56.01303 223.70883 56.1282 222.09327 55.21956 220.99963 Z" />
        </g>
        <g
           id="Graphic_26">
          <path
             id="path3374"
             fill="#ff0000"
             d="M 51.42442 228.6044 C 48.89914 226.28762 45.22545 225.7236 42.121477 227.17613 C 39.0175 228.62866 37.096764 231.8106 37.257555 235.23386 C 38.026187 233.057 39.873457 231.43786 42.132283 230.96115 C 44.39111 230.48444 46.73512 231.21904 48.31785 232.89967 C 49.503867 233.6839 51.097294 233.39362 51.93056 232.24152 C 52.76382 231.0894 52.540583 229.48522 51.42442 228.6044 Z" />
          <path
             id="path3376"
             stroke-width="1.1249838"
             stroke-linejoin="round"
             stroke-linecap="round"
             stroke="#cccccc"
             d="M 51.42442 228.6044 C 48.89914 226.28762 45.22545 225.7236 42.121477 227.17613 C 39.0175 228.62866 37.096764 231.8106 37.257555 235.23386 C 38.026187 233.057 39.873457 231.43786 42.132283 230.96115 C 44.39111 230.48444 46.73512 231.21904 48.31785 232.89967 C 49.503867 233.6839 51.097294 233.39362 51.93056 232.24152 C 52.76382 231.0894 52.540583 229.48522 51.42442 228.6044 Z" />
        </g>
        <g
           id="Graphic_25">
          <path
             id="path3379"
             fill="#ff0000"
             d="M 50.50933 237.16036 C 47.68619 235.2176 43.96976 235.17034 41.098146 237.04072 C 38.22653 238.9111 36.767328 242.3294 37.40298 245.69696 C 37.86117 243.4343 39.46512 241.57383 41.63562 240.7874 C 43.806117 240.00095 46.22955 240.40218 48.030776 241.84618 C 49.3144 242.45773 50.85192 241.9485 51.51673 240.69165 C 52.18154 239.4348 51.737217 237.87727 50.50933 237.16036 Z" />
          <path
             id="path3381"
             stroke-width="1.1249838"
             stroke-linejoin="round"
             stroke-linecap="round"
             stroke="#cccccc"
             d="M 50.50933 237.16036 C 47.68619 235.2176 43.96976 235.17034 41.098146 237.04072 C 38.22653 238.9111 36.767328 242.3294 37.40298 245.69696 C 37.86117 243.4343 39.46512 241.57383 41.63562 240.7874 C 43.806117 240.00095 46.22955 240.40218 48.030776 241.84618 C 49.3144 242.45773 50.85192 241.9485 51.51673 240.69165 C 52.18154 239.4348 51.737217 237.87727 50.50933 237.16036 Z" />
        </g>
        <g
           id="Graphic_24">
          <path
             id="path3384"
             fill="#ff0000"
             d="M 52.20183 245.18752 C 48.97206 244.04163 45.370036 244.95788 43.08036 247.50775 C 40.79068 250.05763 40.26592 253.73712 41.7515 256.8254 C 41.60846 254.52127 42.67623 252.30906 44.56923 250.98765 C 46.46222 249.66624 48.906926 249.42657 51.02051 250.35518 C 52.41867 250.61366 53.772006 249.72385 54.08887 248.33775 C 54.40573 246.95165 53.57343 245.5622 52.20183 245.18752 Z" />
          <path
             id="path3386"
             stroke-width="1.1249838"
             stroke-linejoin="round"
             stroke-linecap="round"
             stroke="#cccccc"
             d="M 52.20183 245.18752 C 48.97206 244.04163 45.370036 244.95788 43.08036 247.50775 C 40.79068 250.05763 40.26592 253.73712 41.7515 256.8254 C 41.60846 254.52127 42.67623 252.30906 44.56923 250.98765 C 46.46222 249.66624 48.906926 249.42657 51.02051 250.35518 C 52.41867 250.61366 53.772006 249.72385 54.08887 248.33775 C 54.40573 246.95165 53.57343 245.5622 52.20183 245.18752 Z" />
        </g>
        <g
           id="Graphic_23">
          <path
             id="path3389"
             fill="#ff0000"
             d="M 55.964846 252.23317 C 52.54855 251.96225 49.306405 253.77954 47.7547 256.83515 C 46.203 259.89075 46.648444 263.5807 48.88271 266.17925 C 48.14819 263.99064 48.607015 261.57745 50.093503 259.81112 C 51.57999 258.0448 53.87936 257.18055 56.16127 257.53048 C 57.57869 257.4183 58.65561 256.20853 58.60292 254.78765 C 58.55024 253.36677 57.386684 252.2401 55.964846 252.23317 Z" />
          <path
             id="path3391"
             stroke-width="1.1249838"
             stroke-linejoin="round"
             stroke-linecap="round"
             stroke="#cccccc"
             d="M 55.964846 252.23317 C 52.54855 251.96225 49.306405 253.77954 47.7547 256.83515 C 46.203 259.89075 46.648444 263.5807 48.88271 266.17925 C 48.14819 263.99064 48.607015 261.57745 50.093503 259.81112 C 51.57999 258.0448 53.87936 257.18055 56.16127 257.53048 C 57.57869 257.4183 58.65561 256.20853 58.60292 254.78765 C 58.55024 253.36677 57.386684 252.2401 55.964846 252.23317 Z" />
        </g>
        <g
           id="Graphic_22">
          <path
             id="path3394"
             fill="#ff0000"
             d="M 261.66836 235.1847 C 258.72216 233.30327 254.9317 233.38624 252.07064 235.39478 C 249.2096 237.40333 247.84385 240.9402 248.6125 244.35033 C 248.99746 242.02738 250.56515 240.07294 252.74922 239.1931 C 254.9333 238.31324 257.418 238.63517 259.30573 240.04258 C 260.6298 240.59848 262.15748 240.0229 262.78555 238.7315 C 263.4136 237.44012 262.92316 235.88302 261.66836 235.1847 Z" />
          <path
             id="path3396"
             stroke-width="1.1249838"
             stroke-linejoin="round"
             stroke-linecap="round"
             stroke="#cccccc"
             d="M 261.66836 235.1847 C 258.72216 233.30327 254.9317 233.38624 252.07064 235.39478 C 249.2096 237.40333 247.84385 240.9402 248.6125 244.35033 C 248.99746 242.02738 250.56515 240.07294 252.74922 239.1931 C 254.9333 238.31324 257.418 238.63517 259.30573 240.04258 C 260.6298 240.59848 262.15748 240.0229 262.78555 238.7315 C 263.4136 237.44012 262.92316 235.88302 261.66836 235.1847 Z" />
        </g>
        <g
           id="Graphic_21">
          <path
             id="path3399"
             fill="#ff0000"
             d="M 260.98513 243.824 C 257.71214 242.59622 254.02175 243.46547 251.64082 246.02497 C 249.2599 248.58447 248.65934 252.328 250.1202 255.5038 C 250.01378 253.15157 251.14087 250.9139 253.09428 249.5992 C 255.0477 248.28447 257.54505 248.08277 259.68414 249.06694 C 261.09484 249.3354 262.46947 248.45478 262.81532 247.06103 C 263.16117 245.66727 262.3577 244.24617 260.98513 243.824 Z" />
          <path
             id="path3401"
             stroke-width="1.1249838"
             stroke-linejoin="round"
             stroke-linecap="round"
             stroke="#cccccc"
             d="M 260.98513 243.824 C 257.71214 242.59622 254.02175 243.46547 251.64082 246.02497 C 249.2599 248.58447 248.65934 252.328 250.1202 255.5038 C 250.01378 253.15157 251.14087 250.9139 253.09428 249.5992 C 255.0477 248.28447 257.54505 248.08277 259.68414 249.06694 C 261.09484 249.3354 262.46947 248.45478 262.81532 247.06103 C 263.16117 245.66727 262.3577 244.24617 260.98513 243.824 Z" />
        </g>
        <g
           id="Graphic_20">
          <path
             id="path3404"
             fill="#ff0000"
             d="M 263.38798 252.2627 C 259.97597 251.5024 256.44247 252.87678 254.44093 255.74274 C 252.43938 258.6087 252.36568 262.39936 254.2543 265.34095 C 253.82156 263.02642 254.62625 260.65367 256.37768 259.0799 C 258.1291 257.5061 260.5741 256.9588 262.82933 257.6357 C 264.26367 257.7052 265.50236 256.64185 265.65087 255.21352 C 265.79938 253.7852 264.80594 252.48975 263.38798 252.2627 Z" />
          <path
             id="path3406"
             stroke-width="1.1249838"
             stroke-linejoin="round"
             stroke-linecap="round"
             stroke="#cccccc"
             d="M 263.38798 252.2627 C 259.97597 251.5024 256.44247 252.87678 254.44093 255.74274 C 252.43938 258.6087 252.36568 262.39936 254.2543 265.34095 C 253.82156 263.02642 254.62625 260.65367 256.37768 259.0799 C 258.1291 257.5061 260.5741 256.9588 262.82933 257.6357 C 264.26367 257.7052 265.50236 256.64185 265.65087 255.21352 C 265.79938 253.7852 264.80594 252.48975 263.38798 252.2627 Z" />
        </g>
        <g
           id="Graphic_19">
          <path
             id="path3409"
             fill="#ff0000"
             d="M 268.05398 259.205 C 264.56144 259.35368 261.50406 261.59577 260.31248 264.8821 C 259.1209 268.16845 260.0308 271.84903 262.61643 274.20157 C 261.59938 272.07792 261.76253 269.57775 263.04696 267.6043 C 264.33138 265.63083 266.5514 264.46936 268.905 264.53948 C 270.30845 264.2354 271.2297 262.88767 271.0035 261.46958 C 270.77726 260.0515 269.4824 259.0573 268.05398 259.205 Z" />
          <path
             id="path3411"
             stroke-width="1.1249838"
             stroke-linejoin="round"
             stroke-linecap="round"
             stroke="#cccccc"
             d="M 268.05398 259.205 C 264.56144 259.35368 261.50406 261.59577 260.31248 264.8821 C 259.1209 268.16845 260.0308 271.84903 262.61643 274.20157 C 261.59938 272.07792 261.76253 269.57775 263.04696 267.6043 C 264.33138 265.63083 266.5514 264.46936 268.905 264.53948 C 270.30845 264.2354 271.2297 262.88767 271.0035 261.46958 C 270.77726 260.0515 269.4824 259.0573 268.05398 259.205 Z" />
        </g>
        <g
           id="Graphic_18">
          <path
             id="path3414"
             fill="#ff0000"
             d="M 274.30277 264.42842 C 270.96773 265.47597 268.5948 268.43298 268.2944 271.91574 C 267.994 275.3985 269.8255 278.71817 272.9319 280.32134 C 271.39986 278.53328 270.91037 276.07607 271.64026 273.83742 C 272.37015 271.59877 274.2139 269.9023 276.50545 269.36088 C 277.7824 268.70392 278.32345 267.16367 277.7379 265.85245 C 277.15235 264.54123 275.64428 263.91606 274.30277 264.42842 Z" />
          <path
             id="path3416"
             stroke-width="1.1249838"
             stroke-linejoin="round"
             stroke-linecap="round"
             stroke="#cccccc"
             d="M 274.30277 264.42842 C 270.96773 265.47597 268.5948 268.43298 268.2944 271.91574 C 267.994 275.3985 269.8255 278.71817 272.9319 280.32134 C 271.39986 278.53328 270.91037 276.07607 271.64026 273.83742 C 272.37015 271.59877 274.2139 269.9023 276.50545 269.36088 C 277.7824 268.70392 278.32345 267.16367 277.7379 265.85245 C 277.15235 264.54123 275.64428 263.91606 274.30277 264.42842 Z" />
        </g>
        <g
           id="Graphic_17">
          <path
             id="path3419"
             fill="#ff0000"
             d="M 92.14216 83.23557 C 101.11999 83.39228 108.27091 90.79728 108.1142 99.77511 C 107.9575 108.75293 100.55249 115.90386 91.57467 115.74715 C 85.76703 115.64578 80.45464 112.45377 77.63861 107.37353 C 74.822585 102.29328 74.93075 96.09661 77.92236 91.11773 C 80.91397 86.13886 86.33452 83.1342 92.14216 83.23557 Z" />
          <path
             id="path3421"
             stroke-width="2.2499676"
             stroke-linejoin="round"
             stroke-linecap="round"
             stroke="#cccccc"
             d="M 92.14216 83.23557 C 101.11999 83.39228 108.27091 90.79728 108.1142 99.77511 C 107.9575 108.75293 100.55249 115.90386 91.57467 115.74715 C 85.76703 115.64578 80.45464 112.45377 77.63861 107.37353 C 74.822585 102.29328 74.93075 96.09661 77.92236 91.11773 C 80.91397 86.13886 86.33452 83.1342 92.14216 83.23557 Z" />
        </g>
        <g
           id="Graphic_16">
          <path
             id="path3424"
             fill="#ff0000"
             d="M 54.23838 165.48544 C 56.932 173.19321 65.14873 177.48397 73.01322 175.28961 C 75.30952 175.59812 77.341115 176.93363 78.53485 178.91937 C 79.72859 180.9051 79.95505 183.32578 79.15035 185.49848 C 81.61473 185.18084 83.79623 183.74777 85.06634 181.61215 C 86.33644 179.47652 86.55411 176.87551 85.65663 174.5585 C 90.64467 176.41908 94.04096 181.07688 94.28731 186.39492 C 96.15616 185.69835 97.64801 184.25114 98.401 182.4043 C 99.154 180.55746 99.09936 178.4797 98.25034 176.675 C 100.79889 177.07775 102.97163 178.7404 104.0265 181.0951 C 105.08136 183.4498 104.87563 186.17797 103.47957 188.34784 C 109.08965 184.52316 112.78403 178.4706 113.62122 171.73263 C 116.74761 175.77558 117.53856 181.15657 115.70781 185.92816 C 122.54378 183.80622 126.41875 176.59808 124.418 169.72566 C 130.08075 173.62305 133.28146 180.20734 132.84837 187.068 C 137.29922 180.18472 138.17059 171.5817 135.19034 163.94575 C 142.5342 160.74844 147.63245 153.89735 148.58593 145.94462 C 149.5394 137.99189 146.20515 130.1298 139.82523 125.2871 C 146.98393 122.49144 151.45304 115.32223 150.81112 107.66386 C 150.1692 100.00549 144.569 93.68027 137.0448 92.11532 C 129.5206 90.55037 121.86278 94.11806 118.22048 100.88536 C 110.84855 95.71332 101.54495 94.1219 92.87306 96.54956 C 84.20117 98.97722 77.07611 105.16778 73.46101 113.41559 C 69.96478 121.10486 68.93401 129.68775 70.510165 137.9862 L 57.02535 150.70106 C 52.25776 154.06889 51.02415 160.61298 54.23838 165.48544 Z" />
          <path
             id="path3426"
             stroke-width="2.2499676"
             stroke-linejoin="round"
             stroke-linecap="round"
             stroke="#cccccc"
             d="M 54.23838 165.48544 C 56.932 173.19321 65.14873 177.48397 73.01322 175.28961 C 75.30952 175.59812 77.341115 176.93363 78.53485 178.91937 C 79.72859 180.9051 79.95505 183.32578 79.15035 185.49848 C 81.61473 185.18084 83.79623 183.74777 85.06634 181.61215 C 86.33644 179.47652 86.55411 176.87551 85.65663 174.5585 C 90.64467 176.41908 94.04096 181.07688 94.28731 186.39492 C 96.15616 185.69835 97.64801 184.25114 98.401 182.4043 C 99.154 180.55746 99.09936 178.4797 98.25034 176.675 C 100.79889 177.07775 102.97163 178.7404 104.0265 181.0951 C 105.08136 183.4498 104.87563 186.17797 103.47957 188.34784 C 109.08965 184.52316 112.78403 178.4706 113.62122 171.73263 C 116.74761 175.77558 117.53856 181.15657 115.70781 185.92816 C 122.54378 183.80622 126.41875 176.59808 124.418 169.72566 C 130.08075 173.62305 133.28146 180.20734 132.84837 187.068 C 137.29922 180.18472 138.17059 171.5817 135.19034 163.94575 C 142.5342 160.74844 147.63245 153.89735 148.58593 145.94462 C 149.5394 137.99189 146.20515 130.1298 139.82523 125.2871 C 146.98393 122.49144 151.45304 115.32223 150.81112 107.66386 C 150.1692 100.00549 144.569 93.68027 137.0448 92.11532 C 129.5206 90.55037 121.86278 94.11806 118.22048 100.88536 C 110.84855 95.71332 101.54495 94.1219 92.87306 96.54956 C 84.20117 98.97722 77.07611 105.16778 73.46101 113.41559 C 69.96478 121.10486 68.93401 129.68775 70.510165 137.9862 L 57.02535 150.70106 C 52.25776 154.06889 51.02415 160.61298 54.23838 165.48544 Z" />
        </g>
        <g
           id="Graphic_15">
          <path
             id="path3429"
             fill="#ff0000"
             d="M 67.82377 166.13974 C 70.257275 162.59113 69.70009 157.79124 66.51839 154.89445 C 63.33669 151.99766 58.50573 151.8919 55.2003 154.64666 C 54.08015 156.07098 53.94783 158.03639 54.866954 159.598 C 53.88171 160.80013 53.63071 162.44398 54.21232 163.88536 C 54.79393 165.32673 56.1155 166.33603 57.65914 166.51774 C 59.202775 166.69944 60.72259 166.0246 61.623 164.75767 C 61.850445 163.62994 62.66976 162.71327 63.76499 162.36116 C 64.86022 162.00905 66.06024 162.27651 66.902265 163.06041 C 67.74429 163.84431 68.09677 165.02216 67.82377 166.13974 Z" />
          <path
             id="path3431"
             stroke-width="1.6874757"
             stroke-linejoin="round"
             stroke-linecap="round"
             stroke="#cccccc"
             d="M 67.82377 166.13974 C 70.257275 162.59113 69.70009 157.79124 66.51839 154.89445 C 63.33669 151.99766 58.50573 151.8919 55.2003 154.64666 C 54.08015 156.07098 53.94783 158.03639 54.866954 159.598 C 53.88171 160.80013 53.63071 162.44398 54.21232 163.88536 C 54.79393 165.32673 56.1155 166.33603 57.65914 166.51774 C 59.202775 166.69944 60.72259 166.0246 61.623 164.75767 C 61.850445 163.62994 62.66976 162.71327 63.76499 162.36116 C 64.86022 162.00905 66.06024 162.27651 66.902265 163.06041 C 67.74429 163.84431 68.09677 165.02216 67.82377 166.13974 Z" />
        </g>
        <g
           id="Graphic_14">
          <path
             id="path3434"
             fill="#ff0000"
             d="M 109.35892 151.1451 C 107.88159 146.71162 104.55553 143.13589 100.24038 141.34209 C 95.92524 139.54829 91.04449 139.71246 86.85964 141.79218 C 87.50595 144.61598 90.04343 146.59993 92.93975 146.54596 C 95.83607 146.49198 98.29787 144.41486 98.83852 141.56894 C 104.19472 141.80886 108.61783 145.835 109.35892 151.1451 Z" />
          <path
             id="path3436"
             stroke-width="2.2499676"
             stroke-linejoin="round"
             stroke-linecap="round"
             stroke="#cccccc"
             d="M 109.35892 151.1451 C 107.88159 146.71162 104.55553 143.13589 100.24038 141.34209 C 95.92524 139.54829 91.04449 139.71246 86.85964 141.79218 C 87.50595 144.61598 90.04343 146.59993 92.93975 146.54596 C 95.83607 146.49198 98.29787 144.41486 98.83852 141.56894 C 104.19472 141.80886 108.61783 145.835 109.35892 151.1451 Z" />
        </g>
        <g
           id="Graphic_13">
          <path
             id="path3439"
             fill="#ff0000"
             d="M 86.03432 141.98412 C 87.3938 145.2417 90.54156 147.39548 94.07036 147.4826 C 97.59917 147.56971 100.84936 145.57387 102.36792 142.38733 C 97.45232 139.12826 91.10474 138.97156 86.03432 141.98412 Z" />
          <path
             id="path3441"
             stroke-width="1.1249838"
             stroke-linejoin="round"
             stroke-linecap="round"
             stroke="#cccccc"
             d="M 86.03432 141.98412 C 87.3938 145.2417 90.54156 147.39548 94.07036 147.4826 C 97.59917 147.56971 100.84936 145.57387 102.36792 142.38733 C 97.45232 139.12826 91.10474 138.97156 86.03432 141.98412 Z" />
        </g>
        <g
           id="Graphic_12">
          <path
             id="path3444"
             fill="#ff0000"
             d="M 53.40807 158.96439 C 53.23673 164.0939 56.25623 168.79458 60.9925 170.77167 C 65.728776 172.74876 71.19422 171.59 74.720715 167.86105 C 77.96338 165.0246 82.7899 164.9761 86.0889 167.74684" />
          <path
             id="path3446"
             stroke-width="1.6874757"
             stroke-linejoin="round"
             stroke-linecap="round"
             stroke="#cccccc"
             d="M 53.40807 158.96439 C 53.23673 164.0939 56.25623 168.79458 60.9925 170.77167 C 65.728776 172.74876 71.19422 171.59 74.720715 167.86105 C 77.96338 165.0246 82.7899 164.9761 86.0889 167.74684" />
        </g>
        <g
           id="Group_6">
          <g
             id="Graphic_11">
            <path
               id="path3449"
               fill="#ff0000"
               d="M 99.06307 141.00292 C 99.1075 140.31166 99.50756 139.45663 100.13462 138.71274 C 100.76169 137.96884 101.5367 137.42988 102.21048 137.26913" />
            <path
               id="path3451"
               stroke-width="1.1249838"
               stroke-linejoin="round"
               stroke-linecap="round"
               stroke="#cccccc"
               d="M 99.06307 141.00292 C 99.1075 140.31166 99.50756 139.45663 100.13462 138.71274 C 100.76169 137.96884 101.5367 137.42988 102.21048 137.26913" />
          </g>
          <g
             id="Graphic_10">
            <path
               id="path3454"
               fill="#ff0000"
               d="M 96.77075 139.21435 C 96.56308 137.79108 97.3698 136.20136 98.64112 135.5286" />
            <path
               id="path3456"
               stroke-width="1.1249838"
               stroke-linejoin="round"
               stroke-linecap="round"
               stroke="#cccccc"
               d="M 96.77075 139.21435 C 96.56308 137.79108 97.3698 136.20136 98.64112 135.5286" />
          </g>
          <g
             id="Graphic_9">
            <path
               id="path3459"
               fill="#ff0000"
               d="M 93.83103 138.54744 C 93.59754 137.23504 93.90637 135.6848 94.62497 134.56206" />
            <path
               id="path3461"
               stroke-width="1.1249838"
               stroke-linejoin="round"
               stroke-linecap="round"
               stroke="#cccccc"
               d="M 93.83103 138.54744 C 93.59754 137.23504 93.90637 135.6848 94.62497 134.56206" />
          </g>
          <g
             id="Graphic_8">
            <path
               id="path3464"
               fill="#ff0000"
               d="M 90.90939 138.9856 C 90.18268 137.79084 89.86078 136.37368 90.00003 134.98221" />
            <path
               id="path3466"
               stroke-width="1.1249838"
               stroke-linejoin="round"
               stroke-linecap="round"
               stroke="#cccccc"
               d="M 90.90939 138.9856 C 90.18268 137.79084 89.86078 136.37368 90.00003 134.98221" />
          </g>
          <g
             id="Graphic_7">
            <path
               id="path3469"
               fill="#ff0000"
               d="M 88.21646 140.52303 C 87.15049 139.33059 86.33254 137.93766 85.8105 136.42581" />
            <path
               id="path3471"
               stroke-width="1.1249838"
               stroke-linejoin="round"
               stroke-linecap="round"
               stroke="#cccccc"
               d="M 88.21646 140.52303 C 87.15049 139.33059 86.33254 137.93766 85.8105 136.42581" />
          </g>
        </g>
        <g
           id="Graphic_5">
          <path
             id="path3475"
             fill="#ff0000"
             d="M 124.24897 101.52622 C 127.4645 98.14663 132.54281 97.33436 136.65206 99.54236 C 140.76132 101.75036 142.88685 106.43343 141.8434 110.98012 C 140.79995 115.52681 136.84515 118.81446 132.18435 119.00975" />
          <path
             id="path3477"
             stroke-width="1.6874757"
             stroke-linejoin="round"
             stroke-linecap="round"
             stroke="#cccccc"
             d="M 124.24897 101.52622 C 127.4645 98.14663 132.54281 97.33436 136.65206 99.54236 C 140.76132 101.75036 142.88685 106.43343 141.8434 110.98012 C 140.79995 115.52681 136.84515 118.81446 132.18435 119.00975" />
        </g>
        <g
           id="Graphic_4">
          <circle
             id="circle3480"
             stroke-width="1"
             stroke-linejoin="round"
             stroke-linecap="round"
             stroke="#cccccc"
             r="2.25000359527927"
             cy="143.37155"
             cx="92.71404" />
        </g>
      </g>
    </g>
  </g>
</svg>
