<?xml version="1.0" encoding="UTF-8" standalone="no"?>
<svg
   xmlns:v="http://schemas.microsoft.com/visio/2003/SVGExtensions/"
   xmlns:dc="http://purl.org/dc/elements/1.1/"
   xmlns:cc="http://creativecommons.org/ns#"
   xmlns:rdf="http://www.w3.org/1999/02/22-rdf-syntax-ns#"
   xmlns:svg="http://www.w3.org/2000/svg"
   xmlns="http://www.w3.org/2000/svg"
   style="font-size:12px;overflow:visible;color-interpolation-filters:sRGB;fill:none;fill-rule:evenodd;stroke-linecap:square;stroke-miterlimit:3"
   id="svg368"
   version="1.1"
   class="st13"
   xml:space="preserve"
   viewBox="0 0 387.91806 265.6525"
   height="265.6525"
   width="387.91806"><metadata
     id="metadata374"><rdf:RDF><cc:Work
         rdf:about=""><dc:format>image/svg+xml</dc:format><dc:type
           rdf:resource="http://purl.org/dc/dcmitype/StillImage" /><dc:title>Bear Passant Guardant</dc:title><dc:creator><cc:Agent><dc:title>http://www.vikinganswerlady.com</dc:title></cc:Agent></dc:creator></cc:Work></rdf:RDF></metadata><defs
     id="defs372" /><title
     id="title2">Bear Passant Guardant</title><v:documentProperties
     v:viewMarkup="false"
     v:langID="1033" /><style
     id="style4"
     type="text/css"><![CDATA[
		.st1 {fill:#ffffff;stroke:#000000;stroke-linecap:round;stroke-linejoin:round;stroke-width:2.25}
		.st2 {fill:#3f3f3f;stroke:#000000;stroke-linecap:round;stroke-linejoin:round;stroke-width:3}
		.st3 {stroke:#000000;stroke-linecap:round;stroke-linejoin:round;stroke-width:2.25}
		.st4 {fill:#ff0000;stroke:#000000;stroke-linecap:round;stroke-linejoin:round;stroke-width:1.5}
		.st5 {fill:#000000;stroke:#000000;stroke-linecap:round;stroke-linejoin:round;stroke-width:1.5}
		.st6 {fill:#3f3f3f;stroke:#000000;stroke-linecap:round;stroke-linejoin:round;stroke-width:1.5}
		.st7 {fill:#ffffff;stroke:#000000;stroke-linecap:round;stroke-linejoin:round;stroke-width:1.5}
		.st8 {fill:#000000;stroke:#000000;stroke-linecap:round;stroke-linejoin:round;stroke-width:1}
		.st9 {fill:#ffff00;stroke:#000000;stroke-linecap:round;stroke-linejoin:round;stroke-width:1.5}
		.st10 {fill:#000000;stroke:#000000;stroke-linecap:round;stroke-linejoin:round;stroke-width:0.24}
		.st11 {fill:#ffffff;stroke:#000000;stroke-linecap:round;stroke-linejoin:round;stroke-width:0.24}
		.st12 {stroke:#000000;stroke-linecap:round;stroke-linejoin:round;stroke-width:3}
		.st13 {fill:none;fill-rule:evenodd;font-size:12px;overflow:visible;stroke-linecap:square;stroke-miterlimit:3}
	]]></style><g
     transform="translate(-11.751904,-1.4867732)"
     id="g366"
     v:groupContext="foregroundPage"
     v:index="1"
     v:mID="0"><title
       id="title6">Page-1</title><v:pageProperties
       v:shadowOffsetY="-9"
       v:shadowOffsetX="9"
       v:drawingUnits="19"
       v:pageScale="1"
       v:drawingScale="1" /><g
       v:groupContext="group"
       v:mID="43"
       transform="translate(12.8894,-13.0016)"
       id="group43-1"><title
         id="title8">Sheet.43</title><g
         style="stroke:#808080"
         v:groupContext="group"
         v:mID="49"
         transform="rotate(-70,40.831896,175.22811)"
         id="group49-2"><title
           id="title10">Sheet.49</title><g
           style="stroke:#808080;fill:#0000ff"
           v:groupContext="group"
           v:mID="50"
           transform="rotate(50,123.76982,214.28899)"
           id="armed-2"><title
             id="title12">Sheet.50</title><g
             style="stroke:#808080;fill:#0000ff"
             transform="rotate(80,39.295165,254.52619)"
             v:groupContext="shape"
             v:mID="51"
             id="shape51-4"><title
               id="title14">Claw</title><path
               style="fill:#0000ff;stroke:#808080;stroke-width:2.25;stroke-linecap:round;stroke-linejoin:round"
               id="path16"
               class="st1"
               d="m 8.41,259.46 a 10.7313,10.7313 -180 0 0 -3.42,19.55 8.39806,8.39806 0 0 1 5.62,-13.2 3.36573,3.36573 -180 0 0 -2.2,-6.35 z" /></g><g
             style="stroke:#808080;fill:#0000ff"
             transform="rotate(68,34.713644,256.60317)"
             v:groupContext="shape"
             v:mID="52"
             id="shape52-6"><title
               id="title19">Claw.7</title><path
               style="fill:#0000ff;stroke:#808080;stroke-width:2.25;stroke-linecap:round;stroke-linejoin:round"
               id="path21"
               class="st1"
               d="m 8.41,259.46 a 10.7313,10.7313 -180 0 0 -3.42,19.55 8.39806,8.39806 0 0 1 5.62,-13.2 3.36573,3.36573 -180 0 0 -2.2,-6.35 z" /></g><g
             style="stroke:#808080;fill:#0000ff"
             transform="rotate(60,27.25895,260.38789)"
             v:groupContext="shape"
             v:mID="53"
             id="shape53-8"><title
               id="title24">Claw.8</title><path
               style="fill:#0000ff;stroke:#808080;stroke-width:2.25;stroke-linecap:round;stroke-linejoin:round"
               id="path26"
               class="st1"
               d="m 8.41,259.46 a 10.7313,10.7313 -180 0 0 -3.42,19.55 8.39806,8.39806 0 0 1 5.62,-13.2 3.36573,3.36573 -180 0 0 -2.2,-6.35 z" /></g><g
             style="stroke:#808080;fill:#0000ff"
             transform="rotate(45,20.008472,268.83868)"
             v:groupContext="shape"
             v:mID="54"
             id="shape54-10"><title
               id="title29">Claw.9</title><path
               style="fill:#0000ff;stroke:#808080;stroke-width:2.25;stroke-linecap:round;stroke-linejoin:round"
               id="path31"
               class="st1"
               d="m 8.41,259.46 a 10.7313,10.7313 -180 0 0 -3.42,19.55 8.39806,8.39806 0 0 1 5.62,-13.2 3.36573,3.36573 -180 0 0 -2.2,-6.35 z" /></g><g
             style="stroke:#808080;fill:#0000ff"
             transform="rotate(30,6.667577,285.26743)"
             v:groupContext="shape"
             v:mID="55"
             id="shape55-12"><title
               id="title34">Claw.10</title><path
               style="fill:#0000ff;stroke:#808080;stroke-width:2.25;stroke-linecap:round;stroke-linejoin:round"
               id="path36"
               class="st1"
               d="m 8.41,259.46 a 10.7313,10.7313 -180 0 0 -3.42,19.55 8.39806,8.39806 0 0 1 5.62,-13.2 3.36573,3.36573 -180 0 0 -2.2,-6.35 z" /></g></g><g
           style="stroke:#808080"
           transform="translate(13.8375,-3.36214)"
           v:groupContext="shape"
           v:mID="56"
           id="shape56-14"><title
             id="title40">Sheet.56</title><path
             style="fill:#ffff00;stroke:#808080;stroke-width:3;stroke-linecap:round;stroke-linejoin:round"
             id="path42"
             class="st2"
             d="m 72.87,218.01 a 412.954,412.954 174.33 0 1 -35.3,-23.63 601.628,601.628 -176.52 0 0 7.32,-32.53 11.5036,11.5036 -180 0 0 -9.96,-14.95 37.3714,37.3714 -180 0 0 -34.89,21.18 21.6057,21.6057 -180 0 0 3.32,12.87 14.6425,14.6425 0 0 1 -1.66,10.8 25.2446,25.2446 -180 0 0 4.57,24.92 l 19.93,19.52 a 202.646,202.646 -180 0 0 -14.95,1.66 228.298,228.298 -180 0 0 21.6,12.88 L 16.24,249.9 a 185.454,185.454 -180 0 0 51.5,23.26 31.9451,31.9451 -135 1 0 5.13,-55.15 z" /></g><g
           style="stroke:#808080"
           transform="translate(21.7678,-62.8786)"
           v:groupContext="shape"
           v:mID="57"
           id="shape57-16"><title
             id="title45">Sheet.57</title><path
             style="stroke:#808080;stroke-width:2.25;stroke-linecap:round;stroke-linejoin:round"
             id="path47"
             class="st3"
             d="m 0,276.19 a 15.6738,15.6738 -180 0 0 23.67,-18.28 33.2728,33.2728 0 0 1 7.06,-32.39" /></g></g><g
         style="stroke:#808080"
         v:groupContext="group"
         v:mID="58"
         transform="rotate(-30,137.77644,-138.13752)"
         id="group58-19"><title
           id="title51">Sheet.58</title><g
           style="stroke:#808080"
           v:groupContext="group"
           v:mID="6"
           transform="translate(0,-10.4258)"
           id="group6-20"><title
             id="title53">Sheet.6</title><g
             style="stroke:#808080"
             transform="rotate(80,37.409622,255.70015)"
             v:groupContext="shape"
             v:mID="7"
             id="shape7-21"><title
               id="title55">Claw</title><path
               style="fill:#ffffff;stroke:#808080;stroke-width:2.25;stroke-linecap:round;stroke-linejoin:round"
               id="path57"
               class="st1"
               d="M 8.01,260.4 A 10.2164,10.2164 -180 0 0 4.75,279.01 7.99514,7.99514 0 0 1 10.1,266.45 3.20424,3.20424 -180 0 0 8.01,260.4 Z" /></g><g
             style="stroke:#808080"
             transform="rotate(68,33.048467,257.67781)"
             v:groupContext="shape"
             v:mID="8"
             id="shape8-23"><title
               id="title60">Claw.7</title><path
               style="fill:#ffffff;stroke:#808080;stroke-width:2.25;stroke-linecap:round;stroke-linejoin:round"
               id="path62"
               class="st1"
               d="M 8.01,260.4 A 10.2164,10.2164 -180 0 0 4.75,279.01 7.99514,7.99514 0 0 1 10.1,266.45 3.20424,3.20424 -180 0 0 8.01,260.4 Z" /></g><g
             style="stroke:#808080"
             transform="rotate(60,25.950996,261.28044)"
             v:groupContext="shape"
             v:mID="9"
             id="shape9-25"><title
               id="title65">Claw.8</title><path
               style="fill:#ffffff;stroke:#808080;stroke-width:2.25;stroke-linecap:round;stroke-linejoin:round"
               id="path67"
               class="st1"
               d="M 8.01,260.4 A 10.2164,10.2164 -180 0 0 4.75,279.01 7.99514,7.99514 0 0 1 10.1,266.45 3.20424,3.20424 -180 0 0 8.01,260.4 Z" /></g><g
             style="stroke:#808080"
             transform="rotate(45,19.048593,269.32679)"
             v:groupContext="shape"
             v:mID="10"
             id="shape10-27"><title
               id="title70">Claw.9</title><path
               style="fill:#ffffff;stroke:#808080;stroke-width:2.25;stroke-linecap:round;stroke-linejoin:round"
               id="path72"
               class="st1"
               d="M 8.01,260.4 A 10.2164,10.2164 -180 0 0 4.75,279.01 7.99514,7.99514 0 0 1 10.1,266.45 3.20424,3.20424 -180 0 0 8.01,260.4 Z" /></g><g
             style="stroke:#808080"
             transform="rotate(30,6.3477138,284.96714)"
             v:groupContext="shape"
             v:mID="11"
             id="shape11-29"><title
               id="title75">Claw.10</title><path
               style="fill:#ffffff;stroke:#808080;stroke-width:2.25;stroke-linecap:round;stroke-linejoin:round"
               id="path77"
               class="st1"
               d="M 8.01,260.4 A 10.2164,10.2164 -180 0 0 4.75,279.01 7.99514,7.99514 0 0 1 10.1,266.45 3.20424,3.20424 -180 0 0 8.01,260.4 Z" /></g></g><g
           style="stroke:#808080;fill:#0000ff"
           id="armed-3"
           transform="translate(0,-10.4258)"
           v:mID="6"
           v:groupContext="group"><title
             id="title1234">Sheet.6</title><g
             style="stroke:#808080;fill:#0000ff"
             id="g1240"
             v:mID="7"
             v:groupContext="shape"
             transform="rotate(80,37.409622,255.70015)"><title
               id="title1236">Claw</title><path
               style="fill:#0000ff;stroke:#808080;stroke-width:2.25;stroke-linecap:round;stroke-linejoin:round"
               d="M 8.01,260.4 A 10.2164,10.2164 -180 0 0 4.75,279.01 7.99514,7.99514 0 0 1 10.1,266.45 3.20424,3.20424 -180 0 0 8.01,260.4 Z"
               class="st1"
               id="path1238" /></g><g
             style="stroke:#808080;fill:#0000ff"
             id="g1246"
             v:mID="8"
             v:groupContext="shape"
             transform="rotate(68,33.048467,257.67781)"><title
               id="title1242">Claw.7</title><path
               style="fill:#0000ff;stroke:#808080;stroke-width:2.25;stroke-linecap:round;stroke-linejoin:round"
               d="M 8.01,260.4 A 10.2164,10.2164 -180 0 0 4.75,279.01 7.99514,7.99514 0 0 1 10.1,266.45 3.20424,3.20424 -180 0 0 8.01,260.4 Z"
               class="st1"
               id="path1244" /></g><g
             style="stroke:#808080;fill:#0000ff"
             id="g1252"
             v:mID="9"
             v:groupContext="shape"
             transform="rotate(60,25.950996,261.28044)"><title
               id="title1248">Claw.8</title><path
               style="fill:#0000ff;stroke:#808080;stroke-width:2.25;stroke-linecap:round;stroke-linejoin:round"
               d="M 8.01,260.4 A 10.2164,10.2164 -180 0 0 4.75,279.01 7.99514,7.99514 0 0 1 10.1,266.45 3.20424,3.20424 -180 0 0 8.01,260.4 Z"
               class="st1"
               id="path1250" /></g><g
             style="stroke:#808080;fill:#0000ff"
             id="g1258"
             v:mID="10"
             v:groupContext="shape"
             transform="rotate(45,19.048593,269.32679)"><title
               id="title1254">Claw.9</title><path
               style="fill:#0000ff;stroke:#808080;stroke-width:2.25;stroke-linecap:round;stroke-linejoin:round"
               d="M 8.01,260.4 A 10.2164,10.2164 -180 0 0 4.75,279.01 7.99514,7.99514 0 0 1 10.1,266.45 3.20424,3.20424 -180 0 0 8.01,260.4 Z"
               class="st1"
               id="path1256" /></g><g
             style="stroke:#808080;fill:#0000ff"
             id="g1264"
             v:mID="11"
             v:groupContext="shape"
             transform="rotate(30,6.3477138,284.96714)"><title
               id="title1260">Claw.10</title><path
               style="fill:#0000ff;stroke:#808080;stroke-width:2.25;stroke-linecap:round;stroke-linejoin:round"
               d="M 8.01,260.4 A 10.2164,10.2164 -180 0 0 4.75,279.01 7.99514,7.99514 0 0 1 10.1,266.45 3.20424,3.20424 -180 0 0 8.01,260.4 Z"
               class="st1"
               id="path1262" /></g></g><g
           style="stroke:#808080"
           transform="translate(13.9354)"
           v:groupContext="shape"
           v:mID="12"
           id="shape12-31"><title
             id="title81">Sheet.12</title><path
             style="fill:#ffff00;stroke:#808080;stroke-width:3;stroke-linecap:round;stroke-linejoin:round"
             id="path83"
             class="st2"
             d="m 102.24,163.93 -40.23,6.66 a 37.3947,37.3947 -180 0 0 -26.84,26.85 l -2.63,34.27 -12.58,-8.98 a 16.0561,16.0561 -180 0 0 -12.65,-3.16 36.4626,36.4626 -180 0 0 -3.96,37.16 44.4268,44.4268 -180 0 0 33.22,22.15 16.9372,16.9372 -180 0 0 18.97,-18.19 7.94953,7.94953 -180 0 0 3.56,-3.96 17.109,17.109 -180 0 0 5.93,7.12 l 1.59,-19.77 a 6.98848,6.98848 0 0 1 4.74,3.96 l 3.16,-15.43 a 9.45512,9.45512 0 0 1 8.7,-7.51 l 26.89,-7.11 a 27.9024,27.9024 -180 1 0 -7.87,-54.06 z" /></g><g
           style="stroke:#808080"
           transform="translate(26.777,-0.921249)"
           v:groupContext="shape"
           v:mID="44"
           id="shape44-33"><title
             id="title86">Sheet.44</title><path
             style="stroke:#808080;stroke-width:2.25;stroke-linecap:round;stroke-linejoin:round"
             id="path88"
             class="st3"
             d="m 0,226.81 a 26.6008,26.6008 -180 0 0 17,17.4 22.004,22.004 0 0 1 15.82,34.8" /></g></g><g
         transform="rotate(-30,-24.013408,-291.68437)"
         v:groupContext="shape"
         v:mID="5"
         id="shape5-36"><title
           id="title92">Lion Rampant.5</title><path
           style="fill:#ffff00;stroke:#808080;stroke-width:1.5;stroke-linecap:round;stroke-linejoin:round"
           id="path94"
           class="st4"
           d="M 31.79,277.23 A 8.2598,8.2598 0 0 1 19.3,267.01 49.9308,49.9308 -180 0 0 0,246.57 a 29.8535,29.8535 0 0 1 29.52,11.36 9.89384,9.89384 3.18 1 1 2.27,19.3 z" /></g><g
         style="stroke:#808080"
         transform="translate(80.3108,-11.6588)"
         v:groupContext="shape"
         v:mID="3"
         id="shape3-38"><title
           id="title97">Sheet.3</title><path
           style="fill:#ffff00;stroke:#808080;stroke-width:3;stroke-linecap:round;stroke-linejoin:round"
           id="path99"
           class="st2"
           d="m 267.31,139.92 a 25.1268,25.1268 -117.03 0 0 27.57,10.12 15.6257,15.6257 -135 0 0 -2.25,-27 44.3057,44.3057 -45 0 0 -26.44,-7.87 87.4057,87.4057 -180 0 0 -97.88,-31.5 97.8623,97.8623 0 0 1 -65.25,-2.25 54.0483,54.0483 -180 0 0 -64.68,1.12 39.2752,39.2752 0 0 1 -20.82,3.38 50.8971,50.8971 -180 0 0 -3.93,73.12 110.038,110.038 -180 0 0 52.59,27.94 31.9451,31.9451 -82.45 0 0 4.5,3.88 412.954,412.954 54.83 0 1 -2.82,42.38 601.628,601.628 -114.86 0 0 -31.83,9.93 11.5036,11.5036 -117.64 0 0 -7.97,16.11 37.3714,37.3714 -118.63 0 0 35.79,19.62 21.6057,21.6057 -118.63 0 0 9.49,-9.32 14.6425,14.6425 0 0 1 10.18,-3.96 25.2446,25.2446 -180 0 0 19.3,-16.41 l 6.93,-27.03 a 202.646,202.646 -180 0 0 8.92,12.12 228.298,228.298 -180 0 0 0.35,-25.14 l 7.59,14.8 a 274.865,274.865 -31.72 0 0 1.16,-40.17 47.8988,47.8988 -93.69 0 0 -47.25,-46.12 47.1524,47.1524 78.84 0 1 47.25,45 93.8165,93.8165 0 0 1 87.87,-5.23 61.7713,61.7605 148.1 0 1 -25.99,-40.9 61.4005,61.4005 -62.32 0 0 45.8,49.95 443.785,443.707 120 0 1 19.8,40.32 646.545,646.432 -60 0 0 -24.29,26.35 12.3624,12.3603 -60 0 0 1.24,19.27 40.1615,40.1545 -60 0 0 43.84,-0.97 23.2188,23.2147 -60 0 0 3.83,-13.77 15.7357,15.733 120 0 1 7.35,-9.16 27.1294,27.1247 -60 0 0 9.13,-25.64 l -8.06,-28.88 a 217.775,217.737 -60 0 0 14.81,6.49 245.343,245.3 -60 0 0 -13.18,-23.59 l 15.01,9.7 a 199.3,199.265 -60 0 0 -16.72,-27.25 882.805,882.651 -70.06 0 0 -20.94,-19.44 z" /></g><g
         style="stroke:#808080;fill:#0000ff"
         id="armed-1"><g
           style="stroke:#808080;fill:#0000ff"
           id="group59-40"
           transform="rotate(-70,80.128855,174.77968)"
           v:mID="59"
           v:groupContext="group"><title
             id="title102">Sheet.59</title><g
             style="stroke:#808080;fill:#0000ff"
             id="shape60-41"
             v:mID="60"
             v:groupContext="shape"
             transform="rotate(80,39.295165,254.52619)"><title
               id="title104">Claw</title><path
               style="fill:#0000ff;stroke:#808080;stroke-width:2.25;stroke-linecap:round;stroke-linejoin:round"
               d="m 8.41,259.46 a 10.7313,10.7313 -180 0 0 -3.42,19.55 8.39806,8.39806 0 0 1 5.62,-13.2 3.36573,3.36573 -180 0 0 -2.2,-6.35 z"
               class="st1"
               id="path106" /></g><g
             style="stroke:#808080;fill:#0000ff"
             id="shape61-43"
             v:mID="61"
             v:groupContext="shape"
             transform="rotate(68,34.713644,256.60317)"><title
               id="title109">Claw.7</title><path
               style="fill:#0000ff;stroke:#808080;stroke-width:2.25;stroke-linecap:round;stroke-linejoin:round"
               d="m 8.41,259.46 a 10.7313,10.7313 -180 0 0 -3.42,19.55 8.39806,8.39806 0 0 1 5.62,-13.2 3.36573,3.36573 -180 0 0 -2.2,-6.35 z"
               class="st1"
               id="path111" /></g><g
             style="stroke:#808080;fill:#0000ff"
             id="shape62-45"
             v:mID="62"
             v:groupContext="shape"
             transform="rotate(60,27.25895,260.38789)"><title
               id="title114">Claw.8</title><path
               style="fill:#0000ff;stroke:#808080;stroke-width:2.25;stroke-linecap:round;stroke-linejoin:round"
               d="m 8.41,259.46 a 10.7313,10.7313 -180 0 0 -3.42,19.55 8.39806,8.39806 0 0 1 5.62,-13.2 3.36573,3.36573 -180 0 0 -2.2,-6.35 z"
               class="st1"
               id="path116" /></g><g
             style="stroke:#808080;fill:#0000ff"
             id="shape63-47"
             v:mID="63"
             v:groupContext="shape"
             transform="rotate(45,20.008472,268.83868)"><title
               id="title119">Claw.9</title><path
               style="fill:#0000ff;stroke:#808080;stroke-width:2.25;stroke-linecap:round;stroke-linejoin:round"
               d="m 8.41,259.46 a 10.7313,10.7313 -180 0 0 -3.42,19.55 8.39806,8.39806 0 0 1 5.62,-13.2 3.36573,3.36573 -180 0 0 -2.2,-6.35 z"
               class="st1"
               id="path121" /></g><g
             style="stroke:#808080;fill:#0000ff"
             id="shape64-49"
             v:mID="64"
             v:groupContext="shape"
             transform="rotate(30,6.667577,285.26743)"><title
               id="title124">Claw.10</title><path
               style="fill:#0000ff;stroke:#808080;stroke-width:2.25;stroke-linecap:round;stroke-linejoin:round"
               d="m 8.41,259.46 a 10.7313,10.7313 -180 0 0 -3.42,19.55 8.39806,8.39806 0 0 1 5.62,-13.2 3.36573,3.36573 -180 0 0 -2.2,-6.35 z"
               class="st1"
               id="path126" /></g></g><g
           style="stroke:#808080;fill:#0000ff"
           id="group18-51"
           transform="rotate(-100,183.09879,121.05577)"
           v:mID="18"
           v:groupContext="group"><title
             id="title130">Sheet.18</title><g
             style="stroke:#808080;fill:#0000ff"
             id="shape19-52"
             v:mID="19"
             v:groupContext="shape"
             transform="rotate(80,39.295165,254.52619)"><title
               id="title132">Claw</title><path
               style="fill:#0000ff;stroke:#808080;stroke-width:2.25;stroke-linecap:round;stroke-linejoin:round"
               d="m 8.41,259.46 a 10.7313,10.7313 -180 0 0 -3.42,19.55 8.39806,8.39806 0 0 1 5.62,-13.2 3.36573,3.36573 -180 0 0 -2.2,-6.35 z"
               class="st1"
               id="path134" /></g><g
             style="stroke:#808080;fill:#0000ff"
             id="shape20-54"
             v:mID="20"
             v:groupContext="shape"
             transform="rotate(68,34.713644,256.60317)"><title
               id="title137">Claw.7</title><path
               style="fill:#0000ff;stroke:#808080;stroke-width:2.25;stroke-linecap:round;stroke-linejoin:round"
               d="m 8.41,259.46 a 10.7313,10.7313 -180 0 0 -3.42,19.55 8.39806,8.39806 0 0 1 5.62,-13.2 3.36573,3.36573 -180 0 0 -2.2,-6.35 z"
               class="st1"
               id="path139" /></g><g
             style="stroke:#808080;fill:#0000ff"
             id="shape21-56"
             v:mID="21"
             v:groupContext="shape"
             transform="rotate(60,27.25895,260.38789)"><title
               id="title142">Claw.8</title><path
               style="fill:#0000ff;stroke:#808080;stroke-width:2.25;stroke-linecap:round;stroke-linejoin:round"
               d="m 8.41,259.46 a 10.7313,10.7313 -180 0 0 -3.42,19.55 8.39806,8.39806 0 0 1 5.62,-13.2 3.36573,3.36573 -180 0 0 -2.2,-6.35 z"
               class="st1"
               id="path144" /></g><g
             style="stroke:#808080;fill:#0000ff"
             id="shape22-58"
             v:mID="22"
             v:groupContext="shape"
             transform="rotate(45,20.008472,268.83868)"><title
               id="title147">Claw.9</title><path
               style="fill:#0000ff;stroke:#808080;stroke-width:2.25;stroke-linecap:round;stroke-linejoin:round"
               d="m 8.41,259.46 a 10.7313,10.7313 -180 0 0 -3.42,19.55 8.39806,8.39806 0 0 1 5.62,-13.2 3.36573,3.36573 -180 0 0 -2.2,-6.35 z"
               class="st1"
               id="path149" /></g><g
             style="stroke:#808080;fill:#0000ff"
             id="shape23-60"
             v:mID="23"
             v:groupContext="shape"
             transform="rotate(30,6.667577,285.26743)"><title
               id="title152">Claw.10</title><path
               style="fill:#0000ff;stroke:#808080;stroke-width:2.25;stroke-linecap:round;stroke-linejoin:round"
               d="m 8.41,259.46 a 10.7313,10.7313 -180 0 0 -3.42,19.55 8.39806,8.39806 0 0 1 5.62,-13.2 3.36573,3.36573 -180 0 0 -2.2,-6.35 z"
               class="st1"
               id="path154" /></g></g></g><g
         v:groupContext="group"
         v:mID="42"
         transform="translate(33.4687,-156.356)"
         id="group42-62"><title
           id="title158">Sheet.42</title><g
           transform="translate(0,-13.2376)"
           v:groupContext="shape"
           v:mID="40"
           id="shape40-63"><title
             id="title160">Sheet.40</title><path
             style="fill:#ffff00;stroke:#666666;stroke-width:3;stroke-linecap:round;stroke-linejoin:round"
             id="path162"
             class="st2"
             d="m 50.48,196.14 a 12.1269,12.1269 90 0 1 -6.18,-0.9 16.279,16.279 -90 0 0 -13.91,3.35 116.284,116.284 90 0 1 -3.95,4.81 16.279,16.279 90 0 1 3.95,-4.81 116.284,116.284 -90 0 0 0.41,-0.53 19.0711,19.0711 -90 0 0 -6.75,-9 10.7864,10.7864 -90 0 0 -18.7,7.31 43.0749,43.0749 -90 0 0 4.22,21.65 5.34704,5.34704 -90 0 0 -4.92,4.79 38.4252,38.4252 -90 0 0 3.79,7.87 37.6871,37.6871 92.28 0 1 -8.29,-2.81 12.7216,12.7216 -88.53 0 0 5.76,11.81 l -5.9,-0.28 a 7.06735,7.06735 -90 0 0 6.04,7.31 l -5.2,1.41 a 7.24656,7.24656 -180 0 0 9.14,5.9 l -5.06,2.82 a 9.61609,9.61609 -90 0 0 9.98,2.81 3.03709,3.03709 0 0 1 -3.09,3.94 46.2342,46.2342 -90 0 0 38.88,15.21 46.2342,46.2342 -180 0 0 38.88,-15.21 3.03709,3.03709 0 0 1 -3.1,-3.94 9.61609,9.61609 -180 0 0 9.99,-2.81 l -5.06,-2.82 a 7.24656,7.24656 -180 0 0 9.14,-5.9 l -5.21,-1.41 a 7.06735,7.06735 -180 0 0 6.05,-7.31 l -5.91,0.28 a 12.7216,12.7216 -91.47 0 0 5.77,-11.81 37.6871,37.6871 87.72 0 1 -8.3,2.81 38.4252,38.4252 -180 0 0 3.8,-7.87 5.34704,5.34704 -180 0 0 -4.92,-4.79 43.0749,43.0749 -180 0 0 4.22,-21.65 10.7864,10.7864 -180 0 0 -18.71,-7.31 19.0711,19.0711 -180 0 0 -6.75,9 116.284,116.284 -180 0 0 0.42,0.53 16.279,16.279 0 0 1 3.94,4.81 116.284,116.284 0 0 1 -3.94,-4.81 16.279,16.279 -180 0 0 -13.92,-3.35 12.1269,12.1269 0 0 1 -6.18,0.9 v -0.05 a 12.1269,12.1269 90 0 1 -0.21,0.03 12.1269,12.1269 0 0 1 -0.22,-0.03 z" /></g><g
           v:groupContext="group"
           v:mID="15"
           transform="translate(28.6313)"
           id="group15-65"><title
             id="title165">Sheet.15</title><g
             v:groupContext="group"
             v:mID="4"
             id="group4-66"><title
               id="title167">Sheet.4</title><g
               transform="translate(1.04633,-8.23335)"
               v:groupContext="shape"
               v:mID="90"
               id="shape90-67"><title
                 id="title169">Rounded rectangle.114</title><v:userDefs><v:ud
                   v:val="VT0(14):26"
                   v:nameU="visVersion" /></v:userDefs><path
                 style="fill:#000000;stroke:#000000;stroke-width:1.5;stroke-linecap:round;stroke-linejoin:round"
                 id="path171"
                 class="st5"
                 d="m 32.11,279.01 a 8.87052,8.87052 -180 0 0 8.87,-8.87 8.87052,8.87052 -180 0 0 -8.87,-8.87 H 8.87 a 8.87052,8.87052 -180 0 0 -8.87,8.87 8.87052,8.87052 -180 0 0 8.87,8.87 z" /></g><g
               v:groupContext="shape"
               v:mID="91"
               id="shape91-69"><title
                 id="title174">Sheet.91</title><path
                 style="fill:#3f3f3f;stroke:#000000;stroke-width:1.5;stroke-linecap:round;stroke-linejoin:round"
                 id="path176"
                 class="st6"
                 d="m 35.93,254.01 a 11.7367,9.59731 -180 0 1 -1.8,15.44 l -12.59,0.73 -12.58,-0.73 a 11.7367,9.59731 -180 0 1 -1.8,-15.44 16.9541,13.8637 -180 0 0 7.04,25 h 7.34 v -0.17 l 0.01,0.17 h 7.34 a 16.9541,13.8637 0 0 0 7.04,-25 z" /></g><g
               style="fill:#ff0000;stroke:#808080"
               v:groupContext="group"
               v:mID="95"
               transform="translate(11.4684,-1.66627)"
               id="langued"><title
                 id="title179">Sheet.95</title><g
                 style="fill:#ff0000;stroke:#808080"
                 transform="translate(10.0694)"
                 v:groupContext="shape"
                 v:mID="96"
                 id="shape96-72"><title
                   id="title181">Sheet.96</title><path
                   style="fill:#ff0000;stroke:#808080;stroke-width:1.5;stroke-linecap:round;stroke-linejoin:round"
                   id="path183"
                   class="st4"
                   d="m 0,258.37 v 20.64 a 13.233,8.58021 -180 0 0 8.58,-7.5 157.622,102.201 0 0 1 1.49,-11.93 A 12.2594,7.94892 -180 0 0 0,258.37 Z" /></g><g
                 style="fill:#ff0000;stroke:#808080"
                 transform="matrix(-1,0,0,1,10.0694,0)"
                 v:groupContext="shape"
                 v:mID="97"
                 id="shape97-74"><title
                   id="title186">Sheet.97</title><path
                   style="fill:#ff0000;stroke:#808080;stroke-width:1.5;stroke-linecap:round;stroke-linejoin:round"
                   id="path188"
                   class="st4"
                   d="m 0,258.37 v 20.64 a 13.233,8.58021 -180 0 0 8.58,-7.5 157.622,102.201 0 0 1 1.49,-11.93 A 12.2594,7.94892 -180 0 0 0,258.37 Z" /></g></g><g
               transform="translate(4.9513,-21.3348)"
               v:groupContext="shape"
               v:mID="99"
               id="shape99-76"><title
                 id="title192">Sheet.99</title><path
                 style="fill:#000000;stroke:#000000;stroke-width:1.5;stroke-linecap:round;stroke-linejoin:round"
                 id="path194"
                 class="st5"
                 d="M 16.22,269.56 2.29,269.44 A 38.5635,26.7926 -180 0 0 0,276.3 39.3972,27.3718 -180 0 0 16.14,279 v 0.01 h 0.08 0.09 V 279 a 39.3972,27.3718 -180 0 0 16.14,-2.7 38.5635,26.7926 -180 0 0 -2.29,-6.86 z" /></g></g><g
             v:groupContext="group"
             v:mID="14"
             transform="translate(1.38166,-7.90404)"
             id="group14-78"><title
               id="title198">Sheet.14</title><g
               v:groupContext="group"
               v:mID="2"
               transform="translate(5.29971)"
               id="group2-79"><title
                 id="title200">Sheet.2</title><g
                 transform="matrix(0.93969262,0.34202014,0.34202014,-0.93969262,-93.5128,529.984)"
                 v:groupContext="shape"
                 v:mID="93"
                 id="shape93-80"><title
                   id="title202">Claw</title><path
                   style="fill:#ffffff;stroke:#000000;stroke-width:1.5;stroke-linecap:round;stroke-linejoin:round"
                   id="path204"
                   class="st7"
                   d="m 4.29,269.03 a 5.47725,5.47725 -180 0 0 -1.74,9.98 4.28638,4.28638 0 0 1 2.86,-6.74 1.71787,1.71787 -180 0 0 -1.12,-3.24 z" /></g><g
                 transform="rotate(165,14.662904,275.34612)"
                 v:groupContext="shape"
                 v:mID="94"
                 id="shape94-82"><title
                   id="title207">Claw.13</title><path
                   style="fill:#ffffff;stroke:#000000;stroke-width:1.5;stroke-linecap:round;stroke-linejoin:round"
                   id="path209"
                   class="st7"
                   d="m 4.29,269.03 a 5.47725,5.47725 -180 0 0 -1.74,9.98 4.28638,4.28638 0 0 1 2.86,-6.74 1.71787,1.71787 -180 0 0 -1.12,-3.24 z" /></g></g><g
               v:groupContext="group"
               v:mID="104"
               transform="translate(7.15517,-8.15923)"
               id="group104-84"><title
                 id="title213">Sheet.104</title><g
                 v:groupContext="group"
                 v:mID="105"
                 id="group105-85"><title
                   id="title215">Sheet.105</title><g
                   v:groupContext="shape"
                   v:mID="106"
                   id="shape106-86"><title
                     id="title217">Sheet.106</title><path
                     style="fill:#ffffff;stroke:#000000;stroke-width:1.5;stroke-linecap:round;stroke-linejoin:round"
                     id="path219"
                     class="st7"
                     d="m 4.78,272.15 a 2.50572,2.41248 -180 0 0 -4.78,0 l 2.16,6.86 a 60.3839,58.1371 -180 0 0 2.62,-6.86 z" /></g><g
                   transform="translate(4.87464,-2.30641)"
                   v:groupContext="shape"
                   v:mID="107"
                   id="shape107-88"><title
                     id="title222">Sheet.107</title><path
                     style="fill:#ffffff;stroke:#000000;stroke-width:1.5;stroke-linecap:round;stroke-linejoin:round"
                     id="path224"
                     class="st7"
                     d="m 4.03,273.22 a 2.11266,2.03405 -180 0 0 -4.03,0 l 1.82,5.79 a 50.9119,49.0175 -180 0 0 2.21,-5.79 z" /></g><g
                   transform="translate(8.99934,-3.17352)"
                   v:groupContext="shape"
                   v:mID="108"
                   id="shape108-90"><title
                     id="title227">Sheet.108</title><path
                     style="fill:#ffffff;stroke:#000000;stroke-width:1.5;stroke-linecap:round;stroke-linejoin:round"
                     id="path229"
                     class="st7"
                     d="m 4.03,273.22 a 2.11266,2.03405 -180 0 0 -4.03,0 l 1.82,5.79 a 50.9119,49.0175 -180 0 0 2.21,-5.79 z" /></g></g><g
                 v:groupContext="group"
                 v:mID="109"
                 transform="matrix(-1,0,0,1,26.3418,0)"
                 id="group109-92"><title
                   id="title233">Sheet.109</title><g
                   v:groupContext="shape"
                   v:mID="110"
                   id="shape110-93"><title
                     id="title235">Sheet.110</title><path
                     style="fill:#ffffff;stroke:#000000;stroke-width:1.5;stroke-linecap:round;stroke-linejoin:round"
                     id="path237"
                     class="st7"
                     d="m 4.78,272.15 a 2.50572,2.41248 -180 0 0 -4.78,0 l 2.16,6.86 a 60.3839,58.1371 -180 0 0 2.62,-6.86 z" /></g><g
                   transform="translate(4.87464,-2.30641)"
                   v:groupContext="shape"
                   v:mID="111"
                   id="shape111-95"><title
                     id="title240">Sheet.111</title><path
                     style="fill:#ffffff;stroke:#000000;stroke-width:1.5;stroke-linecap:round;stroke-linejoin:round"
                     id="path242"
                     class="st7"
                     d="m 4.03,273.22 a 2.11266,2.03405 -180 0 0 -4.03,0 l 1.82,5.79 a 50.9119,49.0175 -180 0 0 2.21,-5.79 z" /></g><g
                   transform="translate(8.99934,-3.17352)"
                   v:groupContext="shape"
                   v:mID="112"
                   id="shape112-97"><title
                     id="title245">Sheet.112</title><path
                     style="fill:#ffffff;stroke:#000000;stroke-width:1.5;stroke-linecap:round;stroke-linejoin:round"
                     id="path247"
                     class="st7"
                     d="m 4.03,273.22 a 2.11266,2.03405 -180 0 0 -4.03,0 l 1.82,5.79 a 50.9119,49.0175 -180 0 0 2.21,-5.79 z" /></g></g></g><g
               v:groupContext="group"
               v:mID="13"
               transform="translate(0,-4.44598)"
               id="group13-99"><title
                 id="title252">Sheet.13</title><g
                 transform="rotate(-15,4.3266927,272.3344)"
                 v:groupContext="shape"
                 v:mID="102"
                 id="shape102-100"><title
                   id="title254">Claw.102</title><path
                   style="fill:#ffffff;stroke:#000000;stroke-width:1.5;stroke-linecap:round;stroke-linejoin:round"
                   id="path256"
                   class="st7"
                   d="M 5.81,265.5 A 7.41596,7.41596 -180 0 0 3.45,279.01 5.80358,5.80358 0 0 1 7.33,269.89 2.32592,2.32592 -180 0 0 5.81,265.5 Z" /></g><g
                 transform="matrix(-0.96592583,-0.25881905,-0.25881905,0.96592583,111.028,10.3994)"
                 v:groupContext="shape"
                 v:mID="103"
                 id="shape103-102"><title
                   id="title259">Claw.103</title><path
                   style="fill:#ffffff;stroke:#000000;stroke-width:1.5;stroke-linecap:round;stroke-linejoin:round"
                   id="path261"
                   class="st7"
                   d="M 5.81,265.5 A 7.41596,7.41596 -180 0 0 3.45,279.01 5.80358,5.80358 0 0 1 7.33,269.89 2.32592,2.32592 -180 0 0 5.81,265.5 Z" /></g></g></g></g><g
           transform="translate(33.6094,-25.3314)"
           v:groupContext="shape"
           v:mID="38"
           id="shape38-104"><title
             id="title267">Sheet.38</title><path
             style="fill:#3f3f3f;stroke:#000000;stroke-width:1.5;stroke-linecap:round;stroke-linejoin:round"
             id="path269"
             class="st6"
             d="m 17.04,276.53 a 29.7636,29.7636 0 0 1 9.12,1.96 5.56835,5.56835 -180 0 0 7.87,-5.62 l -0.14,-4.78 a 8.20571,8.20571 -180 0 0 -4.36,-7.88 442.596,442.596 0 0 1 -5.34,-14.06 9.87562,9.87562 -180 0 0 -7.15,-3.66 0.0344263,0.0344263 -90 0 0 -0.01456,-7.9e-4 L 17.02,242.49 a 9.88465,9.88465 -90 0 0 -7.15,3.66 442.596,442.596 90 0 1 -5.34,14.06 8.20571,8.20571 -90 0 0 -4.36,7.88 l -0.14,4.78 a 5.56835,5.56835 -90 0 0 7.87,5.62 29.7636,29.7636 90 0 1 9.12,-1.96 l 0.01,-0.01 z" /></g><g
           style="stroke:#666666"
           v:groupContext="group"
           v:mID="35"
           transform="translate(11.25,-74.3183)"
           id="group35-106"><title
             id="title272">Sheet.35</title><g
             style="stroke:#666666"
             transform="translate(65.9062)"
             v:groupContext="shape"
             v:mID="113"
             id="shape113-107"><title
               id="title274">Wolf's Head Cabossed.78</title><path
               style="fill:#000000;stroke:#666666;stroke-width:1;stroke-linecap:round;stroke-linejoin:round"
               id="path276"
               class="st8"
               d="m 5.65,252.07 a 13.9382,13.9382 0 0 1 -3.23,10.91 9.1441,9.1441 -180 0 0 -2.42,5.65 7.56539,7.56539 0 0 1 4.34,-1.61 6.56053,6.56053 -180 0 0 -1.31,8.48 3.27983,3.27983 0 0 1 3.43,-3.03 3.63449,3.63449 -180 1 0 5.65,1.82 2.74048,2.74048 0 1 1 -3.02,-2.83 4.39454,4.39454 -180 0 0 -4.95,0.2 8.29443,8.29443 0 0 1 3.03,-5.86 1.73876,1.73876 0 0 1 -2.32,-2.42 14.1801,14.1801 -180 0 0 0.8,-11.31 z" /></g><g
             style="stroke:#666666"
             transform="matrix(-1,0,0,1,12.2813,0)"
             v:groupContext="shape"
             v:mID="34"
             id="shape34-109"><title
               id="title279">Wolf's Head Cabossed.34</title><path
               style="fill:#000000;stroke:#666666;stroke-width:1;stroke-linecap:round;stroke-linejoin:round"
               id="path281"
               class="st8"
               d="m 5.65,252.07 a 13.9382,13.9382 0 0 1 -3.23,10.91 9.1441,9.1441 -180 0 0 -2.42,5.65 7.56539,7.56539 0 0 1 4.34,-1.61 6.56053,6.56053 -180 0 0 -1.31,8.48 3.27983,3.27983 0 0 1 3.43,-3.03 3.63449,3.63449 -180 1 0 5.65,1.82 2.74048,2.74048 0 1 1 -3.02,-2.83 4.39454,4.39454 -180 0 0 -4.95,0.2 8.29443,8.29443 0 0 1 3.03,-5.86 1.73876,1.73876 0 0 1 -2.32,-2.42 14.1801,14.1801 -180 0 0 0.8,-11.31 z" /></g></g><g
           transform="translate(40.3538,-29.4095)"
           v:groupContext="shape"
           v:mID="37"
           id="shape37-111"><title
             id="title285">Sheet.37</title><path
             style="fill:#000000;stroke:#000000;stroke-width:1.5;stroke-linecap:round;stroke-linejoin:round"
             id="path287"
             class="st5"
             d="m 9.85,278.98 v 0.03 a 3.66276,3.66276 -103.7 0 0 0.23,-0.01 3.66276,3.66276 -76.3 0 0 0.23,0.01 v -0.03 a 3.66276,3.66276 -103.7 0 0 3.23,-3.34 23.1131,23.1131 89.99 0 1 1.76,0.34 2.64612,2.64612 -90 0 0 3.06,-0.7 5.17886,5.17886 -90 0 0 -2.36,-9 44.0807,44.0807 0 0 1 -5.92,0.43 44.0807,44.0807 0 0 1 -5.93,-0.43 5.17886,5.17886 -180 0 0 -2.35,9 2.64612,2.64612 -180 0 0 3.06,0.7 23.1131,23.1131 90.01 0 1 1.75,-0.34 3.66276,3.66276 -76.3 0 0 3.24,3.34 z M 8.37,271.7 a 2.634,2.634 90.01 0 1 -5.06,1.2 1.36236,1.36236 -90.01 0 0 1.34,-0.71 4.18545,4.18545 90.03 0 1 -2.25,-1.82 3.78517,3.78517 90 0 1 5.97,1.33 z m 3.41,0 a 3.78517,3.78517 90 0 1 5.98,-1.33 4.18545,4.18545 89.97 0 1 -2.25,1.82 1.36236,1.36236 -89.99 0 0 1.34,0.71 2.634,2.634 89.99 0 1 -5.07,-1.2 z" /></g><g
           style="stroke:#666666"
           v:groupContext="group"
           v:mID="36"
           transform="translate(55.8211,-54.2699)"
           id="group36-113"><title
             id="title290">Sheet.36</title><g
             style="stroke:#666666"
             v:groupContext="group"
             v:mID="26"
             transform="translate(4.08516)"
             id="group26-114"><title
               id="title292">Sheet.26</title><g
               style="stroke:#666666"
               transform="matrix(-1,0,0,1,16.1719,0)"
               v:groupContext="shape"
               v:mID="87"
               id="shape87-115"><title
                 id="title294">Sheet.87</title><path
                 style="fill:#ffffff;stroke:#666666;stroke-width:1.5;stroke-linecap:round;stroke-linejoin:round"
                 id="path296"
                 class="st7"
                 d="m 0.23,267.83 a 12.7504,12.7504 0 0 1 15.94,7.85 9.12739,9.12739 0 0 1 -15.94,-7.85 z" /></g><g
               style="stroke:#666666"
               v:groupContext="group"
               v:mID="25"
               transform="translate(3.23437,-1.15983)"
               id="group25-117"><title
                 id="title299">Sheet.25</title><g
                 style="stroke:#666666"
                 transform="matrix(-1,0,0,1,9.5625,0)"
                 v:groupContext="shape"
                 v:mID="16"
                 id="shape16-118"><title
                   id="title301">Circle.16</title><v:userDefs><v:ud
                     v:val="VT0(14):26"
                     v:nameU="visVersion" /></v:userDefs><path
                   style="fill:#ffff00;stroke:#666666;stroke-width:1.5;stroke-linecap:round;stroke-linejoin:round"
                   id="path303"
                   class="st9"
                   d="m 0,274.23 a 4.78125,4.78125 0 0 1 9.56,0 4.78125,4.78125 0 1 1 -9.56,0 z" /></g><g
                 style="stroke:#666666"
                 v:groupContext="group"
                 v:mID="24"
                 transform="translate(1.74921,-2.25485)"
                 id="group24-120"><title
                   id="title306">Sheet.24</title><g
                   style="stroke:#666666"
                   transform="matrix(-1,0,0,1,5.77488,0)"
                   v:groupContext="shape"
                   v:mID="88"
                   id="shape88-121"><title
                     id="title308">Circle.109</title><v:userDefs><v:ud
                       v:val="VT0(14):26"
                       v:nameU="visVersion" /></v:userDefs><path
                     style="fill:#000000;stroke:#666666;stroke-width:0.23999999;stroke-linecap:round;stroke-linejoin:round"
                     id="path310"
                     class="st10"
                     d="m 0,276.12 a 2.88744,2.88744 0 0 1 5.77,0 2.88744,2.88744 0 0 1 -5.77,0 z" /></g><g
                   style="stroke:#666666"
                   transform="matrix(-1,0,0,1,5.21639,-3.50618)"
                   v:groupContext="shape"
                   v:mID="17"
                   id="shape17-123"><title
                     id="title313">Circle.17</title><v:userDefs><v:ud
                       v:val="VT0(14):26"
                       v:nameU="visVersion" /></v:userDefs><path
                     style="fill:#ffffff;stroke:#666666;stroke-width:0.23999999;stroke-linecap:round;stroke-linejoin:round"
                     id="path315"
                     class="st11"
                     d="m 0,278.09 a 0.916395,0.916395 0 0 1 1.83279,0 0.916395,0.916395 0 1 1 -1.83279,0 z" /></g></g></g></g><g
             style="stroke:#666666"
             transform="translate(0,-3.54713)"
             v:groupContext="shape"
             v:mID="1"
             id="shape1-125"><title
               id="title321">Sheet.1</title><path
               style="stroke:#666666;stroke-width:3;stroke-linecap:round;stroke-linejoin:round"
               id="path323"
               class="st12"
               d="m 0.01,276.34 a 2.48381,2.48381 -180 0 0 4.64,1.4 13.3119,13.3119 0 0 1 16.03,-6.19 7.25658,7.25658 -180 0 0 6.61,-6.46" /></g></g><g
           style="stroke:#666666"
           v:groupContext="group"
           v:mID="27"
           transform="matrix(-1,0,0,1,44.8664,-54.2699)"
           id="group27-128"><title
             id="title327">Sheet.27</title><g
             style="stroke:#666666"
             v:groupContext="group"
             v:mID="28"
             transform="translate(4.08516)"
             id="group28-129"><title
               id="title329">Sheet.28</title><g
               style="stroke:#666666"
               transform="matrix(-1,0,0,1,16.1719,0)"
               v:groupContext="shape"
               v:mID="29"
               id="shape29-130"><title
                 id="title331">Sheet.29</title><path
                 style="fill:#ffffff;stroke:#666666;stroke-width:1.5;stroke-linecap:round;stroke-linejoin:round"
                 id="path333"
                 class="st7"
                 d="m 0.23,267.83 a 12.7504,12.7504 0 0 1 15.94,7.85 9.12739,9.12739 0 0 1 -15.94,-7.85 z" /></g><g
               style="stroke:#666666"
               v:groupContext="group"
               v:mID="30"
               transform="translate(3.23437,-1.15983)"
               id="group30-132"><title
                 id="title336">Sheet.30</title><g
                 style="stroke:#666666"
                 transform="matrix(-1,0,0,1,9.5625,0)"
                 v:groupContext="shape"
                 v:mID="31"
                 id="shape31-133"><title
                   id="title338">Circle.16</title><v:userDefs><v:ud
                     v:val="VT0(14):26"
                     v:nameU="visVersion" /></v:userDefs><path
                   style="fill:#ffff00;stroke:#666666;stroke-width:1.5;stroke-linecap:round;stroke-linejoin:round"
                   id="path340"
                   class="st9"
                   d="m 0,274.23 a 4.78125,4.78125 0 0 1 9.56,0 4.78125,4.78125 0 1 1 -9.56,0 z" /></g><g
                 style="stroke:#666666"
                 v:groupContext="group"
                 v:mID="32"
                 transform="matrix(-1,0,0,1,7.5241,-2.25485)"
                 id="group32-135"><title
                   id="title343">Sheet.32</title><g
                   style="stroke:#666666"
                   transform="matrix(-1,0,0,1,5.77488,0)"
                   v:groupContext="shape"
                   v:mID="33"
                   id="shape33-136"><title
                     id="title345">Circle.109</title><v:userDefs><v:ud
                       v:val="VT0(14):26"
                       v:nameU="visVersion" /></v:userDefs><path
                     style="fill:#000000;stroke:#666666;stroke-width:0.23999999;stroke-linecap:round;stroke-linejoin:round"
                     id="path347"
                     class="st10"
                     d="m 0,276.12 a 2.88744,2.88744 0 0 1 5.77,0 2.88744,2.88744 0 0 1 -5.77,0 z" /></g><g
                   style="stroke:#666666"
                   transform="matrix(-1,0,0,1,5.21639,-3.50618)"
                   v:groupContext="shape"
                   v:mID="39"
                   id="shape39-138"><title
                     id="title350">Circle.17</title><v:userDefs><v:ud
                       v:val="VT0(14):26"
                       v:nameU="visVersion" /></v:userDefs><path
                     style="fill:#ffffff;stroke:#666666;stroke-width:0.23999999;stroke-linecap:round;stroke-linejoin:round"
                     id="path352"
                     class="st11"
                     d="m 0,278.09 a 0.916395,0.916395 0 0 1 1.83279,0 0.916395,0.916395 0 1 1 -1.83279,0 z" /></g></g></g></g><g
             style="stroke:#666666"
             transform="translate(0,-3.54713)"
             v:groupContext="shape"
             v:mID="41"
             id="shape41-140"><title
               id="title358">Sheet.41</title><path
               style="stroke:#666666;stroke-width:3;stroke-linecap:round;stroke-linejoin:round"
               id="path360"
               class="st12"
               d="m 0.01,276.34 a 2.48381,2.48381 -180 0 0 4.64,1.4 13.3119,13.3119 0 0 1 16.03,-6.19 7.25658,7.25658 -180 0 0 6.61,-6.46" /></g></g></g></g></g></svg>