<?xml version="1.0" encoding="UTF-8" standalone="no"?>
<!-- Created with Inkscape (http://www.inkscape.org/) -->

<svg
   width="83.532"
   height="425.01"
   id="svg2"
   version="1.1"
   xmlns:xlink="http://www.w3.org/1999/xlink"
   xmlns="http://www.w3.org/2000/svg"
   xmlns:svg="http://www.w3.org/2000/svg"
   xmlns:rdf="http://www.w3.org/1999/02/22-rdf-syntax-ns#"
   xmlns:cc="http://creativecommons.org/ns#"
   xmlns:dc="http://purl.org/dc/elements/1.1/">

  <metadata
     id="metadata7">
    <rdf:RDF>
      <cc:Work
         rdf:about="">
        <dc:format>image/svg+xml</dc:format>
        <dc:type
           rdf:resource="http://purl.org/dc/dcmitype/StillImage" />
        <dc:creator>
          <cc:Agent>
            <dc:title>https://commons.wikimedia.org/wiki/User:Cryonic07</dc:title>
          </cc:Agent>
        </dc:creator>
      </cc:Work>
    </rdf:RDF>
  </metadata>
  <g
     id="layer1"
     transform="translate(-319.08,-169.22)">
    <g
       id="g4063"
       transform="matrix(0.95385,0,0,0.9579,2.5097,31.382)">
      <g
         transform="matrix(-0.00306,-0.99577,1.0042,-0.00306,6.0301,736.68)"
         id="g9999">
        <g
           id="g3945">
          <g
             id="feathered-1">
            <path
               id="path3868"
               d="m 419.91,360.31 34.02,-34.02 h 133.79 c 0,0 0.93,1.34 -0.19,2.68 -1.12,1.34 -29.83,29.83 -29.83,29.83 z"
               style="color:#000000;fill:#ffff00" />
          </g>
          <path
             style="color:#000000;-inkscape-font-specification:Sans;fill:#999999;stroke-width:2"
             d="m 586.33,326.82 -32,32 1.41,1.43 32,-32.03 z"
             id="path3891-1" />
          <path
             style="color:#000000;fill:#ffffff"
             d="m 453.94,326.03 -34.03,34.03 h 4.03 l 32,-32 h 131.97 c 0.41,-1.08 -0.19,-2 -0.19,-2 H 453.94 Z"
             transform="translate(0,0.25398)"
             id="path3886" />
          <g
             id="g3914">
            <g
               id="g3897">
              <path
                 style="color:#000000;-inkscape-font-specification:Sans;fill:#999999;stroke-width:2"
                 d="m 474.47,326.82 -32,32 1.4,1.43 32,-32.03 z"
                 id="path3891" />
              <path
                 id="path3895"
                 d="m 479.34,327.94 -30.87,30.88 -4.6,1.43 32,-32.03 z"
                 style="color:#000000;-inkscape-font-specification:Sans;fill:#ffffff;stroke-width:2" />
            </g>
            <use
               x="0"
               y="0"
               xlink:href="#g3897"
               id="use3919"
               transform="translate(22.501)"
               width="744.09"
               height="1052.4" />
            <use
               height="1052.4"
               width="744.09"
               transform="translate(45.002)"
               id="use3921"
               xlink:href="#g3897"
               y="0"
               x="0" />
            <use
               x="0"
               y="0"
               xlink:href="#g3897"
               id="use3923"
               transform="translate(67.503)"
               width="744.09"
               height="1052.4" />
            <use
               height="1052.4"
               width="744.09"
               transform="translate(90.004)"
               id="use3925"
               xlink:href="#g3897"
               y="0"
               x="0" />
          </g>
        </g>
        <g
           transform="matrix(1,0,0,-1,0,739.37)"
           id="g3958">
          <g
             id="feathered-2">
            <path
               style="color:#000000;fill:#ffff00"
               d="m 419.91,360.31 34.02,-34.02 h 133.79 c 0,0 0.93,1.34 -0.19,2.68 -1.12,1.34 -29.83,29.83 -29.83,29.83 z"
               id="path3960" />
          </g>
          <use
             height="1052.4"
             width="744.09"
             transform="translate(-67.617,0.25399)"
             id="use4020"
             xlink:href="#path4014"
             y="0"
             x="0" />
          <use
             height="1052.4"
             width="744.09"
             transform="translate(-110.23,0.25399)"
             id="use4024"
             xlink:href="#path4014"
             y="0"
             x="0" />
          <path
             transform="matrix(1,0,0,-1,0,739.12)"
             id="path3997"
             d="m 419.91,378.81 34.03,34.03 2,-2 -32,-32 h -4.03 z"
             style="color:#000000;fill:#ffffff" />
          <path
             id="path3980"
             d="m 453.94,326.29 v 0"
             style="color:#000000;fill:#ffffff" />
          <path
             id="path3962"
             transform="matrix(1,0,0,-1,0,739.12)"
             d="m 555.75,378.87 -1.41,1.44 29.75,29.75 H 455.94 l -2,2.19 h 133.78 c 0,0 0.38,-1.2 -0.18,-1.66 0,0 -31.79,-31.72 -31.79,-31.72 z"
             style="color:#000000;-inkscape-font-specification:Sans;fill:#999999;stroke-width:2" />
          <use
             x="0"
             y="0"
             xlink:href="#path4014"
             id="use4022"
             transform="translate(-89.967,0.25399)"
             width="744.09"
             height="1052.4" />
          <path
             id="path4014"
             d="m 556.61,357.21 c 0,0 -11.65,0 -14.47,0 -2.81,0 -4.95,-1.07 -4.95,-1.07 l -2.82,2.55 21.7,0.13 z"
             style="color:#000000;fill:#999999" />
          <use
             height="1052.4"
             width="744.09"
             transform="translate(-22.35,0.25399)"
             id="use4016"
             xlink:href="#path4014"
             y="0"
             x="0" />
          <use
             x="0"
             y="0"
             xlink:href="#path4014"
             id="use4018"
             transform="translate(-45.078,0.25399)"
             width="744.09"
             height="1052.4" />
          <g
             id="g3964">
            <g
               id="g3966">
              <path
                 id="path3968"
                 d="m 474.47,326.82 -32,32 1.4,1.43 32,-32.03 z"
                 style="color:#000000;-inkscape-font-specification:Sans;fill:#999999;stroke-width:2" />
              <path
                 style="color:#000000;-inkscape-font-specification:Sans;fill:#ffffff;stroke-width:2"
                 d="m 479.34,327.94 -30.87,30.88 -4.6,1.43 32,-32.03 z"
                 id="path3970" />
            </g>
            <use
               height="1052.4"
               width="744.09"
               transform="translate(22.501)"
               id="use3972"
               xlink:href="#g3897"
               y="0"
               x="0" />
            <use
               x="0"
               y="0"
               xlink:href="#g3897"
               id="use3974"
               transform="translate(45.002)"
               width="744.09"
               height="1052.4" />
            <use
               height="1052.4"
               width="744.09"
               transform="translate(67.503)"
               id="use3976"
               xlink:href="#g3897"
               y="0"
               x="0" />
            <use
               x="0"
               y="0"
               xlink:href="#g3897"
               id="use3978"
               transform="translate(90.004)"
               width="744.09"
               height="1052.4" />
          </g>
        </g>
      </g>
      <g
         id="g3863"
         style="fill:#ff0000;stroke:#808080"
         transform="matrix(-0.00306,-0.99577,1.0042,-0.00306,6.2852,736.68)">
        <path
           id="path3789"
           d="m 593.64,377.42 c 0,2.18 0.1,3.32 -3.5,3.32 -3.6,0 -212.03,0 -230.22,0 -18.18,0 -30.3,0 -59.09,11.36 -28.79,11.37 -45.26,15.53 -69.51,15.53 -24.24,0 -59.4,0 -64.66,0 -5.26,0 -5.41,-2.65 -5.41,-6.06 0,-3.41 0,-17.8 0,-17.8 l -12.13,-8.47 v -12.23 l 12.13,-8.47 c 0,0 0,-14.4 0,-17.8 0,-3.41 0.15,-6.07 5.41,-6.07 5.26,0 40.42,0 64.66,0 24.25,0 40.72,4.17 69.51,15.54 28.79,11.36 40.91,11.36 59.09,11.36 18.19,0 226.62,0 230.22,0 3.59,0 3.5,1.14 3.5,3.31 z"
           style="color:#000000" />
        <path
           style="color:#000000"
           d="m 150.25,369.69 11.37,2.28 v 1.69 l -11.56,-1.13 11.75,3.41 v 2.09 l -11.56,-3.69 11.94,7.35 v -0.85 l 0.15,0.38 h 70.29 c 35.09,0 53.09,-3.59 76.5,-6.1 -22.98,1.25 -39.78,5.33 -79.44,5.25 h -67.5 l 0.34,-10.25 z m 166.12,6.18 c -24.09,3.02 -41.74,12.95 -83.34,12.75 H 162 l 0.41,2.07 h 73.71 c 36.82,0 55.7,-8.74 80.25,-14.82 z m 237.07,0.25 c -60.41,0 -179.87,0.1 -193.5,0.1 -18.19,0 -34.09,-0.76 -65.53,12.87 -28.4,12.32 -53.63,12.5 -77.87,12.5 H 164 l -0.47,3.66 h 65.38 c 24.24,0 39.11,-3.11 67.9,-14.47 28.79,-11.36 44.94,-11.88 63.13,-11.88 18.18,0 224.52,-0.12 228.12,-0.12 3.6,0 3.5,-1.16 3.5,-2.44 l -3.5,-0.12 c -0.9,0 -14.49,-0.1 -34.62,-0.1 z m -231.78,1.63 c -24.1,3.01 -45.91,18.66 -87.5,18.47 h -71 l 0.37,2.03 h 73.72 c 36.81,0 59.85,-14.42 84.41,-20.5 z"
           id="path3810" />
        <path
           style="color:#000000"
           d="m 166.94,333.53 c -5.26,0 -5.69,-0.16 -5.69,3.25 v 17.81 l -12.13,8.47 v 2.56 l 12.13,-5.71 v 41.65 c 0,2.76 0.1,5.02 2.91,5.78 0.48,0.14 0.21,-50.55 0.21,-54.37 0,-3.82 0.93,-6.01 3.85,-6.01 h 63.09 c 24.25,0 29.24,1.34 55.45,8.36 30.57,8.19 54.99,9.43 73.18,9.43 h 227.53 c 3.52,0 3.5,-1.1 3.5,-3.19 -0.35,-0.73 -1.18,-1.12 -3.25,-1.12 H 360.19 c -18.19,0 -30.31,0 -59.1,-11.38 -28.79,-11.36 -45.25,-15.53 -69.5,-15.53 z m 0,7.25 h 64.65 c 24.25,0 39.5,4.75 67.1,13.38 10.52,3.29 35.4,7.83 42.92,8.97 -15.53,-0.2 -41.02,-6.06 -54.58,-9.69 -26.2,-7.02 -31.47,-9.16 -55.72,-9.16 -24.24,0 -66.19,0.1 -66.19,0.1 0,0 -0.98,-3.56 1.82,-3.56 z"
           id="path3804" />
      </g>
    </g>
  </g>
</svg>
