<?xml version="1.0" encoding="UTF-8" standalone="no"?>
<!-- Created with Inkscape (http://www.inkscape.org/) -->
<svg xmlns:dc="http://purl.org/dc/elements/1.1/" xmlns:cc="http://creativecommons.org/ns#" xmlns:rdf="http://www.w3.org/1999/02/22-rdf-syntax-ns#" xmlns:svg="http://www.w3.org/2000/svg" xmlns="http://www.w3.org/2000/svg" xmlns:sodipodi="http://sodipodi.sourceforge.net/DTD/sodipodi-0.dtd" xmlns:inkscape="http://www.inkscape.org/namespaces/inkscape" id="svg2" sodipodi:version="0.32" inkscape:version="0.48.4 r9939" width="607.96759" height="512.20667" sodipodi:docname="compass.svg" version="1.0">
  <metadata id="metadata7">
    <rdf:RDF>
      <cc:Work rdf:about="">
        <dc:format>image/svg+xml</dc:format>
        <dc:type rdf:resource="http://purl.org/dc/dcmitype/StillImage"/>
        <dc:title/>
        <dc:creator>
          <cc:Agent>
            <dc:title>http://commons.wikimedia.org/wiki/User:Rinaldum</dc:title>
          </cc:Agent>
        </dc:creator>
      </cc:Work>
    </rdf:RDF>
  </metadata>
  <defs id="defs5"/>
  <sodipodi:namedview inkscape:window-height="700" inkscape:window-width="1024" inkscape:pageshadow="2" inkscape:pageopacity="0.0" borderopacity="1.0" bordercolor="#666666" pagecolor="#ffffff" id="base" inkscape:zoom="0.71078191" inkscape:cx="100.70421" inkscape:cy="268.24319" inkscape:window-x="0" inkscape:window-y="0" inkscape:current-layer="g1879" showgrid="false" inkscape:window-maximized="0"/>
  <g id="g1879">
    <path style="fill:#ffff00;fill-opacity:1;fill-rule:evenodd;stroke:#000000;stroke-width:3;stroke-linecap:butt;stroke-linejoin:miter;stroke-miterlimit:4;stroke-opacity:1;stroke-dasharray:none" d="m 308.08406,114.10403 c 0,0 25.71405,48.63659 26.73112,48.18638 23.90704,-10.58255 53.39079,15.035 29.54493,45.02084 -1.40178,1.76271 243.39393,302.48378 243.39393,302.48378 L 354.5118,72.24872 318.63582,100.73847 z" id="path1310" sodipodi:nodetypes="csscccc" inkscape:connector-curvature="0"/>
    <path style="fill:#ffff00;fill-opacity:1;stroke:#000000;stroke-width:2.7479763;stroke-miterlimit:4;stroke-opacity:1" d="m359.3, 51.15   c0,27.14 -22.01,49.15 -49.15,49.15 -27.14,0 -49.15,-22.01 -49.15,-49.15 0,-27.14 22.01,-49.15 49.15,-49.15 27.14,0 49.15,22.01 49.15,49.15   z " id="path1316" inkscape:connector-curvature="0" sodipodi:nodetypes="sssss"/>
    <path style="fill:#ffff00;fill-opacity:1;stroke:#000000;stroke-width:5.41732979;stroke-miterlimit:4;stroke-opacity:1" d="m331.8, 50.79   c0,12.86 -9.813,23.29 -21.92,23.29 -12.11,0 -21.92,-10.43 -21.92,-23.29 0,-12.86 9.813,-23.29 21.92,-23.29 12.1,0 21.92,10.43 21.92,23.29   z " id="path1314" inkscape:connector-curvature="0" sodipodi:nodetypes="sssss"/>
    <path style="fill:#ffff00;fill-opacity:1;fill-rule:evenodd;stroke:#000000;stroke-width:3;stroke-linecap:butt;stroke-linejoin:miter;stroke-miterlimit:4;stroke-opacity:1;stroke-dasharray:none" d="M 2.786474,511.20193 263.06322,68.02802 l 52.05535,33.76563 c 0,0 -35.5691,58.17656 -36.57944,57.68295 -25.14486,-12.28483 -49.20955,16.27076 -25.32422,43.61395 0.43222,0.4948 -250.428436,308.11138 -250.428436,308.11138 z" id="path1308" sodipodi:nodetypes="cccssc" inkscape:connector-curvature="0"/>
    <path sodipodi:nodetypes="cs" id="path2193" d="m 318.76684,103.31091 c 8.93515,-6.09409 24.96303,-10.41554 34.46908,-24.62078" style="fill:none;stroke:#000000;stroke-width:3;stroke-linecap:butt;stroke-linejoin:miter;stroke-miterlimit:4;stroke-opacity:1;stroke-dasharray:none" inkscape:connector-curvature="0"/>
  </g>
</svg>
