<?xml version="1.0" encoding="UTF-8" standalone="no"?>
<svg
   xmlns:dc="http://purl.org/dc/elements/1.1/"
   xmlns:cc="http://creativecommons.org/ns#"
   xmlns:rdf="http://www.w3.org/1999/02/22-rdf-syntax-ns#"
   xmlns:svg="http://www.w3.org/2000/svg"
   xmlns="http://www.w3.org/2000/svg"
   xmlns:sodipodi="http://sodipodi.sourceforge.net/DTD/sodipodi-0.dtd"
   xmlns:inkscape="http://www.inkscape.org/namespaces/inkscape"
   height="375.09555"
   width="437.03622"
   id="svg3028"
   version="1.1"
   inkscape:version="0.48.4 r9939"
   sodipodi:docname="pair-of-keys.svg">
  <metadata
     id="metadata3069">
    <rdf:RDF>
      <cc:Work
         rdf:about="">
        <dc:format>image/svg+xml</dc:format>
        <dc:type
           rdf:resource="http://purl.org/dc/dcmitype/StillImage" />
        <dc:title></dc:title>
        <dc:creator>
          <cc:Agent>
            <dc:title>http://commons.wikimedia.org/wiki/User:Wagner51</dc:title>
          </cc:Agent>
        </dc:creator>
      </cc:Work>
    </rdf:RDF>
  </metadata>
  <defs
     id="defs3067" />
  <sodipodi:namedview
     pagecolor="#ffffff"
     bordercolor="#666666"
     borderopacity="1"
     objecttolerance="10"
     gridtolerance="10"
     guidetolerance="10"
     inkscape:pageopacity="0"
     inkscape:pageshadow="2"
     inkscape:window-width="1680"
     inkscape:window-height="997"
     id="namedview3065"
     showgrid="false"
     inkscape:zoom="0.44607204"
     inkscape:cx="-116.0864"
     inkscape:cy="14.622694"
     inkscape:window-x="-8"
     inkscape:window-y="-8"
     inkscape:window-maximized="1"
     inkscape:current-layer="body"
     fit-margin-top="0"
     fit-margin-left="0"
     fit-margin-right="0"
     fit-margin-bottom="0" />
  <g
     id="body">
    <path
       inkscape:connector-curvature="0"
       id="path3105"
       d="m 64.5,355.3 c 12.98,12.85 27.4,2.553 32.09,-2.552 4.633,-5.05 6.245,-5.529 9.177,-13.43 2.932,-7.9 1.799,-9.273 2.549,-18.17 0.7482,-8.87 6.993,-17.13 6.588,-17.74 -0.6702,-0.5006 -8.702,6.094 -17.55,7.098 -8.871,1.007 -9.642,0.5305 -17.45,3.689 -7.812,3.158 -8.878,4.168 -13.79,8.945 -4.968,4.829 -14.71,19.19 -1.607,32.16 z"
       style="fill:#ffff00;stroke:#000000;stroke-width:3.0999999"
       sodipodi:nodetypes="cccccccccc" />
    <path
       inkscape:connector-curvature="0"
       id="path3107"
       d="m 413.8,124.2 -16.68,17.17 -28.8,-27.54 12.27,-12.83 -9.441,-9.028 -12.27,12.83 -12.78,-12.22 -9.028,9.441 12.78,12.22 -12.27,12.83 9.441,9.028 12.27,-12.83 28.8,27.54 -16.41,17.43 -15.11,-14.45 -9.028,9.441 15.11,14.45 -15.4,16.1 -28.93,-27.67 14.45,-15.11 -9.441,-9.028 -14.45,15.11 -27.64,-26.44 90.95,-95.11 27.45,26.25 -12.53,13.1 9.683,9.26 12.53,-13.1 28.89,27.62 -15.38,16.08 -15.11,-14.45 -9.028,9.441 15.11,14.45 z"
       style="fill:#ffff00;stroke:#000000;stroke-width:3.0999999"
       sodipodi:nodetypes="cccccccccccccccccccccccccccccccccc" />
    <path
       inkscape:connector-curvature="0"
       id="path3109"
       d="m 103.5,285.7 7.431,7.106 9.17,8.769 7.453,7.127 31.25,-32.68 -7.453,-7.127 224.1,-234.3 -9.17,-8.769 -224.1,234.3 -7.431,-7.106 z"
       style="fill:#ffff00;stroke:#000000;stroke-width:3.0999999"
       sodipodi:nodetypes="ccccccccccc" />
    <path
       inkscape:connector-curvature="0"
       id="path3111"
       d="m 390.3,4.6 c 2.716,-0.5605 6.295,3.481 5.863,5.607 -0.4552,2.237 -1.898,5.958 -7.402,14.78 -5.417,8.685 -11.39,15.34 -11.39,15.34 l -16.96,-16.22 c 0,0 6.8,-6.614 15.04,-11.85 8.243,-5.234 12.33,-7.149 14.84,-7.667 z"
       style="fill:#ffff00;stroke:#000000;stroke-width:3.0999999"
       sodipodi:nodetypes="cccccccc" />
    <path
       style="fill:#ffff00;stroke:#000000;stroke-width:3.0999999"
       d="m 64.5,355.3 c 12.98,12.85 27.4,2.553 32.09,-2.552 4.633,-5.05 6.245,-5.529 9.177,-13.43 2.932,-7.9 1.799,-9.273 2.549,-18.17 0.7482,-8.87 6.993,-17.13 6.588,-17.74 -0.6702,-0.5006 -8.702,6.094 -17.55,7.098 -8.871,1.007 -9.642,0.5305 -17.45,3.689 -7.812,3.158 -8.878,4.168 -13.79,8.945 -4.968,4.829 -14.71,19.19 -1.607,32.16 z"
       id="path3039"
       inkscape:connector-curvature="0"
       sodipodi:nodetypes="cccccccccc" />
    <path
       style="fill:#ffff00;stroke:#000000;stroke-width:3.0999999"
       d="m 413.8,124.2 -16.68,17.17 -28.8,-27.54 12.27,-12.83 -9.441,-9.028 -12.27,12.83 -12.78,-12.22 -9.028,9.441 12.78,12.22 -12.27,12.83 9.441,9.028 12.27,-12.83 28.8,27.54 -16.41,17.43 -15.11,-14.45 -9.028,9.441 15.11,14.45 -15.4,16.1 -28.93,-27.67 14.45,-15.11 -9.441,-9.028 -14.45,15.11 -27.64,-26.44 90.95,-95.11 27.45,26.25 -12.53,13.1 9.683,9.26 12.53,-13.1 28.89,27.62 -15.38,16.08 -15.11,-14.45 -9.028,9.441 15.11,14.45 z"
       id="path3041"
       inkscape:connector-curvature="0"
       sodipodi:nodetypes="cccccccccccccccccccccccccccccccccc" />
    <path
       style="fill:#ffff00;stroke:#000000;stroke-width:3.0999999"
       d="m 103.5,285.7 7.431,7.106 9.17,8.769 7.453,7.127 31.25,-32.68 -7.453,-7.127 224.1,-234.3 -9.17,-8.769 -224.1,234.3 -7.431,-7.106 z"
       id="path3043"
       inkscape:connector-curvature="0"
       sodipodi:nodetypes="ccccccccccc" />
    <path
       style="fill:#ffff00;stroke:#000000;stroke-width:3.0999999"
       d="m 390.3,4.6 c 2.716,-0.5605 6.295,3.481 5.863,5.607 -0.4552,2.237 -1.898,5.958 -7.402,14.78 -5.417,8.685 -11.39,15.34 -11.39,15.34 l -16.96,-16.22 c 0,0 6.8,-6.614 15.04,-11.85 8.243,-5.234 12.33,-7.149 14.84,-7.667 z"
       id="path3045"
       inkscape:connector-curvature="0"
       sodipodi:nodetypes="cccccccc" />
    <path
       inkscape:connector-curvature="0"
       style="fill:#ffff00;stroke:#000000;stroke-width:0.99995726"
       d="m 271.89325,121.42511 3.77478,-3.94739 12.56053,12.01132 -3.77479,3.94739 z"
       id="rect3047"
       sodipodi:nodetypes="ccccc" />
    <path
       inkscape:connector-curvature="0"
       style="fill:#ffff00;stroke:#000000;stroke-width:0.99995726"
       d="m 359.06169,30.27096 3.77479,-3.94739 12.56053,12.01132 -3.77479,3.94738 z"
       id="rect3049"
       sodipodi:nodetypes="ccccc" />
    <path
       inkscape:connector-curvature="0"
       style="fill:#ffff00;stroke:#000000;stroke-width:0.99995726"
       d="m 330.00785,60.65326 3.77479,-3.94738 12.56052,12.01131 -3.77479,3.94739 z"
       id="rect3051"
       sodipodi:nodetypes="ccccc" />
    <path
       inkscape:connector-curvature="0"
       style="fill:#ffff00;stroke:#000000;stroke-width:0.99995726"
       d="m 300.94709,91.0428 3.77479,-3.94739 12.56053,12.01132 -3.77479,3.94739 z"
       id="rect3053"
       sodipodi:nodetypes="ccccc" />
    <path
       style="fill:#ffff00;stroke:#000000;stroke-width:3.0999999"
       inkscape:connector-curvature="0"
       id="path3055"
       d="m 95.2,239.7 c 17.37,-0.4316 27.08,6.852 31.51,14.89 4.333,7.874 -2.268,25.93 -12.09,26.76 -9.802,0.8336 -12.63,-4.1 -11.65,-12.3 0.946,-7.988 11.22,-7.769 11.22,-7.769 0,0 -5.395,-4.964 -12.95,-4.748 -7.554,0.2158 -12.63,1.079 -19.42,4.1 -6.539,2.906 -15.49,12.3 -15.49,12.3 0,0 6.908,1.295 10.31,3.669 3.399,2.374 2.374,5.827 2.374,5.827 0,0 -14.46,0.7554 -19.86,6.69 -5.395,5.935 -6.367,12.63 -3.453,19.64 2.914,7.014 16.62,9.928 16.62,9.928 0,0 -2.326,-10.69 3.021,-13.38 5.431,-2.734 8.736,-2.982 12.95,2.806 4.136,5.683 0.9712,17.16 -3.885,22.23 -4.749,4.96 -9.82,7.446 -17.27,5.827 -7.493,-1.629 -22.09,-10.93 -26.33,-21.8 -4.208,-10.79 -4.519,-25.33 2.158,-39.28 3.318,-6.933 9.227,-16.54 19.28,-23.6 10.06,-7.061 24.26,-11.58 32.94,-11.8 z"
       sodipodi:nodetypes="cccccccccccccccccccccc" />
    <path
       style="fill:#ffff00;stroke:#000000;stroke-width:3.0999999"
       inkscape:connector-curvature="0"
       id="path3057"
       d="m 122,375.8 c -17.37,0.4316 -27.08,-6.852 -31.51,-14.89 -4.333,-7.874 2.268,-25.93 12.09,-26.76 9.802,-0.8336 12.63,4.1 11.65,12.3 -0.946,7.988 -11.22,7.769 -11.22,7.769 0,0 5.395,4.964 12.95,4.748 7.554,-0.2158 12.63,-1.079 19.42,-4.1 6.539,-2.906 15.49,-12.3 15.49,-12.3 0,0 -6.908,-1.295 -10.31,-3.669 -3.399,-2.374 -2.374,-5.827 -2.374,-5.827 0,0 14.46,-0.7554 19.86,-6.69 5.395,-5.935 6.367,-12.63 3.453,-19.64 -2.914,-7.014 -16.62,-9.928 -16.62,-9.928 0,0 2.326,10.69 -3.021,13.38 -5.431,2.734 -8.736,2.982 -12.95,-2.806 -4.136,-5.683 -0.9712,-17.16 3.885,-22.23 4.749,-4.96 9.82,-7.446 17.27,-5.827 7.493,1.629 22.09,10.93 26.33,21.8 4.208,10.79 4.519,25.33 -2.158,39.28 -3.318,6.933 -9.227,16.54 -19.28,23.6 -10.06,7.061 -24.26,11.58 -32.94,11.8 z"
       sodipodi:nodetypes="cccccccccccccccccccccc" />
    <path
       sodipodi:nodetypes="cccccccccc"
       style="fill:#ffff00;stroke:#000000;stroke-width:3.09123111"
       d="m 375.87316,356.02851 c -12.90643,12.85024 -27.24469,2.55305 -31.90811,-2.55205 -4.60674,-5.05009 -6.2096,-5.5291 -9.12498,-13.43025 -2.91538,-7.90015 -1.78881,-9.27318 -2.53456,-18.17035 -0.74395,-8.87017 -6.95336,-17.13033 -6.55065,-17.74034 0.6664,-0.50061 8.65267,6.09412 17.45052,7.09814 8.82072,1.00702 9.58735,0.53051 17.35109,3.68907 7.76772,3.15806 8.82768,4.16808 13.71184,8.94517 4.93984,4.82909 14.62662,19.19036 1.59789,32.16061 z"
       id="path3684"
       inkscape:connector-curvature="0" />
    <path
       sodipodi:nodetypes="cccccccccccccccccccccccccccccccccc"
       style="fill:#ffff00;stroke:#000000;stroke-width:3.09123111"
       d="m 28.5531,124.92412 16.5854,17.17032 28.6368,-27.54052 -12.2005,-12.83025 9.3875,-9.02817 12.2005,12.83025 12.7075,-12.22024 8.9768,9.44118 -12.7075,12.22024 12.2004,12.83024 -9.3875,9.02817 -12.2004,-12.83024 -28.6368,27.54052 16.317,17.43033 15.0244,-14.45027 8.9768,9.44118 -15.0243,14.45027 15.3127,16.10031 28.76598,-27.67053 -14.36808,-15.11029 9.3875,-9.02817 14.36807,15.11029 27.48333,-26.4405 -90.4345,-95.11181 -27.2944,26.2505 12.459,13.10025 -9.6281,9.26017 -12.459,-13.10025 -28.7263,27.62053 15.2929,16.08031 15.0243,-14.45028 8.9769,9.44118 -15.0244,14.45027 z"
       id="path3686"
       inkscape:connector-curvature="0" />
    <path
       sodipodi:nodetypes="ccccccccccc"
       style="fill:#ffff00;stroke:#000000;stroke-width:3.09123111"
       d="m 337.09422,286.42719 -7.38888,7.10613 -9.11803,8.76917 -7.41075,7.12713 -31.07287,-32.68062 7.41076,-7.12713 L 66.6847,35.31741 l 9.118,-8.76917 222.82977,234.30446 7.38888,-7.10614 z"
       id="path3688"
       inkscape:connector-curvature="0" />
    <path
       sodipodi:nodetypes="cccccccc"
       style="fill:#ffff00;stroke:#000000;stroke-width:3.09123111"
       d="m 51.9199,5.32184 c -2.7007,-0.56051 -6.2594,3.48107 -5.8298,5.60711 0.4526,2.23704 1.8872,5.95811 7.36,14.78028 5.3863,8.68516 11.3255,15.34029 11.3255,15.34029 L 81.6394,24.82921 c 0,0 -6.7614,-6.61412 -14.9547,-11.85022 C 58.4884,7.74489 54.4246,5.82985 51.9288,5.31184 z"
       id="path3690"
       inkscape:connector-curvature="0" />
    <path
       sodipodi:nodetypes="cccccccccc"
       inkscape:connector-curvature="0"
       id="path3692"
       d="m 375.87316,356.02851 c -12.90643,12.85024 -27.24469,2.55305 -31.90811,-2.55205 -4.60674,-5.05009 -6.2096,-5.5291 -9.12498,-13.43025 -2.91538,-7.90015 -1.78881,-9.27318 -2.53456,-18.17035 -0.74395,-8.87017 -6.95336,-17.13033 -6.55065,-17.74034 0.6664,-0.50061 8.65267,6.09412 17.45052,7.09814 8.82072,1.00702 9.58735,0.53051 17.35109,3.68907 7.76772,3.15806 8.82768,4.16808 13.71184,8.94517 4.93984,4.82909 14.62662,19.19036 1.59789,32.16061 z"
       style="fill:#ffff00;stroke:#000000;stroke-width:3.09123111" />
    <path
       sodipodi:nodetypes="cccccccccccccccccccccccccccccccccc"
       inkscape:connector-curvature="0"
       id="path3694"
       d="m 28.5531,124.92412 16.5854,17.17032 28.6368,-27.54052 -12.2005,-12.83025 9.3875,-9.02817 12.2005,12.83025 12.7075,-12.22024 8.9768,9.44118 -12.7075,12.22024 12.2004,12.83024 -9.3875,9.02817 -12.2004,-12.83024 -28.6368,27.54052 16.317,17.43033 15.0244,-14.45027 8.9768,9.44118 -15.0243,14.45027 15.3127,16.10031 28.76598,-27.67053 -14.36808,-15.11029 9.3875,-9.02817 14.36807,15.11029 27.48333,-26.4405 -90.4345,-95.11181 -27.2944,26.2505 12.459,13.10025 -9.6281,9.26017 -12.459,-13.10025 -28.7263,27.62053 15.2929,16.08031 15.0243,-14.45028 8.9769,9.44118 -15.0244,14.45027 z"
       style="fill:#ffff00;stroke:#000000;stroke-width:3.09123111" />
    <path
       sodipodi:nodetypes="ccccccccccc"
       inkscape:connector-curvature="0"
       id="path3696"
       d="m 337.09422,286.42719 -7.38888,7.10613 -9.11803,8.76917 -7.41075,7.12713 -31.07287,-32.68062 7.41076,-7.12713 L 66.6847,35.31741 l 9.118,-8.76917 222.82977,234.30446 7.38888,-7.10614 z"
       style="fill:#ffff00;stroke:#000000;stroke-width:3.09123111" />
    <path
       sodipodi:nodetypes="cccccccc"
       inkscape:connector-curvature="0"
       id="path3698"
       d="m 51.9199,5.32184 c -2.7007,-0.56051 -6.2594,3.48107 -5.8298,5.60711 0.4526,2.23704 1.8872,5.95811 7.36,14.78028 5.3863,8.68516 11.3255,15.34029 11.3255,15.34029 L 81.6394,24.82921 c 0,0 -6.7614,-6.61412 -14.9547,-11.85022 C 58.4884,7.74489 54.4246,5.82985 51.9288,5.31184 z"
       style="fill:#ffff00;stroke:#000000;stroke-width:3.09123111" />
    <path
       sodipodi:nodetypes="ccccc"
       id="path3700"
       d="m 169.65545,122.14917 -3.75338,-3.94746 -12.48934,12.01155 3.7534,3.94746 z"
       style="fill:#ffff00;stroke:#000000;stroke-width:0.99712873"
       inkscape:connector-curvature="0" />
    <path
       sodipodi:nodetypes="ccccc"
       id="path3702"
       d="m 82.9811,30.99329 -3.7534,-3.94747 -12.4893,12.01155 3.7534,3.94746 z"
       style="fill:#ffff00;stroke:#000000;stroke-width:0.99712873"
       inkscape:connector-curvature="0" />
    <path
       sodipodi:nodetypes="ccccc"
       id="path3704"
       d="m 111.8703,61.37617 -3.7534,-3.94746 -12.4894,12.01154 3.7534,3.94747 z"
       style="fill:#ffff00;stroke:#000000;stroke-width:0.99712873"
       inkscape:connector-curvature="0" />
    <path
       sodipodi:nodetypes="ccccc"
       id="path3706"
       d="m 140.76629,91.76628 -3.75339,-3.94746 -12.48933,12.01155 3.75339,3.94746 z"
       style="fill:#ffff00;stroke:#000000;stroke-width:0.99712873"
       inkscape:connector-curvature="0" />
    <path
       sodipodi:nodetypes="cccccccccccccccccccccc"
       d="m 345.34717,240.42631 c -17.27154,-0.43161 -26.9265,6.85213 -31.33139,14.89028 -4.30844,7.87415 2.25514,25.9305 12.02147,26.76051 9.74644,0.83362 12.55841,-4.10007 11.58396,-12.30023 -0.94064,-7.98815 -11.1564,-7.76915 -11.1564,-7.76915 0,0 5.36442,-4.96409 12.8766,-4.74809 7.51118,0.21581 12.55841,1.07902 19.30992,4.10008 6.50194,2.90605 15.4022,12.30023 15.4022,12.30023 0,0 -6.86884,1.29503 -10.25156,3.66907 -3.37973,2.37405 -2.36054,5.82711 -2.36054,5.82711 0,0 14.37803,0.75542 19.74743,6.69013 5.36442,5.93511 6.33091,12.63024 3.43342,19.64037 -2.89748,7.01414 -16.52579,9.92819 -16.52579,9.92819 0,0 2.31281,-10.6902 -3.00388,-13.38025 -5.40021,-2.73405 -8.68648,-2.98206 -12.87659,2.80605 -4.11256,5.68311 -0.9657,17.16033 3.86297,22.23043 4.72209,4.96009 9.76434,7.44614 17.17211,5.82711 7.45053,-1.62903 21.96479,-10.93021 26.18076,-21.80042 4.18415,-10.7902 4.49339,-25.33048 -2.14577,-39.28075 -3.29919,-6.93313 -9.1747,-16.54031 -19.17071,-23.60044 -10.00298,-7.06114 -24.12249,-11.58022 -32.75329,-11.80023 z"
       id="path3708"
       inkscape:connector-curvature="0"
       style="fill:#ffff00;stroke:#000000;stroke-width:3.09123111" />
    <path
       sodipodi:nodetypes="cccccccccccccccccccccc"
       d="m 318.69908,376.5289 c 17.27154,0.43161 26.9265,-6.85213 31.33139,-14.89028 4.30844,-7.87415 -2.25514,-25.9305 -12.02147,-26.76051 -9.74644,-0.83362 -12.55841,4.10008 -11.58396,12.30023 0.94063,7.98815 11.1564,7.76915 11.1564,7.76915 0,0 -5.36442,4.96409 -12.8766,4.74809 -7.51118,-0.2158 -12.55841,-1.07902 -19.30992,-4.10008 -6.50194,-2.90605 -15.4022,-12.30023 -15.4022,-12.30023 0,0 6.86884,-1.29503 10.25156,-3.66907 3.37973,-2.37405 2.36054,-5.82711 2.36054,-5.82711 0,0 -14.37803,-0.75542 -19.74743,-6.69013 -5.36442,-5.93511 -6.33091,-12.63024 -3.43342,-19.64037 2.89748,-7.01414 16.52579,-9.92819 16.52579,-9.92819 0,0 -2.31282,10.6902 3.00388,13.38025 5.40021,2.73405 8.68648,2.98206 12.87659,-2.80605 4.11256,-5.68311 0.9657,-17.16033 -3.86297,-22.23042 -4.72209,-4.9601 -9.76434,-7.44615 -17.17212,-5.82711 -7.45052,1.62903 -21.96479,10.9302 -26.18075,21.80041 -4.18415,10.7902 -4.49339,25.33048 2.14577,39.28075 3.29919,6.93313 9.1747,16.54031 19.17071,23.60045 10.00298,7.06113 24.12249,11.58022 32.75329,11.80022 z"
       id="path3710"
       inkscape:connector-curvature="0"
       style="fill:#ffff00;stroke:#000000;stroke-width:3.09123111" />
  </g>
</svg>
