<?xml version="1.0" encoding="UTF-8" standalone="no"?>
<!-- Created with Inkscape (http://www.inkscape.org/) -->

<svg
   xmlns:dc="http://purl.org/dc/elements/1.1/"
   xmlns:cc="http://creativecommons.org/ns#"
   xmlns:rdf="http://www.w3.org/1999/02/22-rdf-syntax-ns#"
   xmlns:svg="http://www.w3.org/2000/svg"
   xmlns="http://www.w3.org/2000/svg"
   version="1.1"
   width="415"
   height="456"
   id="svg2">
  <defs
     id="defs13" />
  <metadata
     id="metadata4">
    <rdf:RDF>
      <cc:Work
         rdf:about="">
        <dc:format>image/svg+xml</dc:format>
        <dc:type
           rdf:resource="http://purl.org/dc/dcmitype/StillImage" />
        <cc:license
           rdf:resource="" />
        <dc:title></dc:title>
        <dc:creator>
          <cc:Agent>
            <dc:title>commons.wikimedia.org by Zigeuner</dc:title>
          </cc:Agent>
        </dc:creator>
      </cc:Work>
    </rdf:RDF>
  </metadata>
  <g
     id="body"
     style="fill:#ffff00;fill-opacity:1;fill-rule:evenodd;stroke:#000000;stroke-width:3;stroke-linecap:butt;stroke-linejoin:miter;stroke-miterlimit:4;stroke-opacity:1;stroke-dasharray:none">
    <path
       d="m 191,40.7 c -4,0.1 -8,0.7 -10,1.9 -2,1.3 -7,3.6 -10,5.3 -13,6 -21,25.2 -21,48.5 0,12.6 0,14.6 -3,16.6 -2,2 -5,3 -6,3 -2,0 -8,8 -8,11 0,2 -3,5 -7,7 -5,4 -7,6 -8,11 -2,4 -5,8 -8,11 -4,3 -7,6 -7,7 0,2 2,1 5,-2 2,-2 5,-5 7,-6 2,-2 4,-4 5,-6 1,-1 4,-4 8,-6 4,-2 7,-5 9,-10 2,-5 5,-8 8,-9 3,-1 7,-4 9,-7 3,-3 3,-5 3,-10 -1,-4 -1,-6 0,-6 1,0 2,1 1,3 0,2 0,5 1,5 1,1 1,4 -1,9 -1,4 -2,9 -1,11 0,3 0,3 -6,3 -7,1 -13,5 -27,25 -6,8 -16,19 -22,24 l -11.2,10 -10.3,-4 c -5.6,-2 -13.8,-6 -18.2,-9 -6.7,-4 -8,-6 -7.9,-10 0.1,-3 -0.5,-8 -1.4,-12 -1,-5 -1,-8 0.2,-10 1.2,-2 1.2,-3 -0.2,-3 -1.3,-1 -0.9,-3 1.5,-8 3.2,-6 3.3,-7 0.6,-9 -2.6,-2 -2.3,-2 3.9,-6 8.7,-6 12.8,-11 14.9,-18 C 78.6,88.5 72.8,72.2 59.7,62.9 53.9,58.7 52.1,58.3 41.6,58.3 31.3,58.3 29,58.8 22.3,62.9 6.68,72.4 2.14,91.4 11.6,108 c 5.1,8 10.4,12 20.9,15 5.5,1 7.2,2 5.5,3 -6.8,3 -9,20 -4.7,37 3.1,12 5.4,16 14.6,28 12,15 30.5,31 38.9,33 4.8,1 17.2,-6 29.2,-16 l 7,-6 0,4 c 1,2 -1,7 -2,11 -2,4 -4,9 -4,11 -1,3 -4,11 -8,18 l -6,13 0,33 c 1,36 3,52 9,69 11,30 38,58 63,63 4,0 15,1 26,1 27,0 45,-5 95,-26 12,-5 15,-5 26,-6 7,0 13,0 13,-1 0,-2 -9,-6 -17,-7 -8,-2 -9,-3 -8,-5 0,-2 0,-3 -1,-3 -1,0 -1,-2 1,-4 10,-14 19,-41 27,-81 6,-28 17,-56 30,-73 13,-18 24,-26 37,-26 8,0 6,-2 -2,-4 -9,-1 -28,2 -38,6 -8,4 -16,12 -21,21 -6,11 -11,10 -15,-3 -3,-9 -14,-20 -27,-26 -9,-5 -12,-7 -10,-8 0,-1 5,-2 11,-3 10,-2 11,-2 13,-7 2,-6 1,-21 -1,-37 -4,-19 -12,-43.3 -21,-56.2 -4,-6.5 -5,-7.5 -10,-7.5 -4,0 -5,-0.9 -7,-5.4 -2,-2.9 -3,-5.7 -4,-6.3 -1,-0.5 -6,1.7 -12,5 -8,4.5 -10,6.8 -10,8.9 0,2.4 0,2.6 -4,1.7 -7,-1.7 -14,-6.7 -17,-12.3 -2,-2.9 -5,-5.6 -6,-6.1 -1,-0.5 -2,-1.7 -2,-2.8 0,-1.1 -4,-3.7 -8,-5.8 -6,-2.9 -15,-4.5 -22,-4.5 z M 248,99 c 10,-0.4 17,4 21,12 4,7 4,9 3,14 -1,3 -2,10 -1,14 1,8 1,8 -6,7 -3,-1 -3,-1 -3,-9 1,-10 -2,-23 -9,-31 -6,-9.1 -7,-7.7 -1,1 2,4 5,9 5,11 1,2 -1,0 -3,-4 -5,-10 -9,-14 -10,-12 -1,2 -1,1 -2,0 0,-1 0,-2.5 2,-2.7 1,-0.2 3,-0.3 4,-0.3 z m -26,3 c 1,0 4,4 6,8 1,3 2,10 2,16 l 0,10 -8,0 c -12,0 -13,-1 -9,-8 2,-4 4,-11 6,-16 1,-5 3,-10 3,-10 z m 69,8 c 4,0 5,20 2,30 -1,4 -4,7 -5,7 -2,0 -3,-1 -2,-9 1,-5 2,-13 2,-18 1,-7 2,-10 3,-10 z m -117,12 3,3 c 2,3 2,4 1,6 -3,3 -8,3 -8,0 0,-1 1,-3 2,-5 l 2,-4 z m 76,58 c 3,0 5,2 8,10 4,9 5,11 4,19 0,6 -1,11 -2,13 -4,7 -8,20 -8,25 0,4 2,11 4,18 4,10 4,13 4,35 0,13 0,24 1,24 2,1 1,-47 0,-53 -1,-1 -1,-1 -1,-1 1,0 1,1 2,4 2,6 3,35 2,38 -1,1 0,3 0,4 1,3 1,2 2,-3 0,-4 0,-7 1,-8 3,-1 2,-18 -2,-34 -5,-19 -5,-27 2,-43 8,-23 9,-28 5,-40 l -3,-8 4,0 c 4,0 5,0 6,8 2,8 2,12 0,22 -2,14 -2,22 2,36 2,5 2,8 0,17 -2,7 -3,17 -3,27 1,14 1,14 3,10 1,-3 2,-10 3,-15 0,-6 1,-13 1,-16 1,-6 -1,-5 -3,1 0,2 0,1 0,-2 2,-14 2,-19 0,-29 -2,-7 -3,-12 -2,-19 1,-5 2,-14 2,-19 1,-5 0,-11 -1,-14 -1,-2 -1,-4 0,-4 2,0 4,12 3,20 -3,21 -3,27 -1,35 2,4 3,12 3,16 0,10 2,10 4,1 1,-4 1,-9 0,-16 -3,-11 -3,-15 1,-31 2,-6 2,-13 2,-15 l -1,-5 6,7 c 20,23 26,67 13,108 -4,12 -16,33 -20,36 -2,1 -4,0 -4,-4 0,-1 -3,-6 -7,-10 -4,-4 -6,-6 -6,-4 3,8 3,18 -1,27 -3,10 -7,14 -16,19 -11,7 -28,6 -36,-1 -6,-6 -5,-19 4,-37 2,-4 4,-10 4,-13 0,-6 -19,-45 -28,-59 -7,-11 -7,-12 2,-26 4,-6 8,-14 10,-18 2,-4 4,-8 6,-9 2,-1 7,-6 11,-11 7,-9 8,-9 9,-5 1,4 -2,11 -12,27 l -4,8 3,7 c 2,4 3,11 3,14 -1,33 -1,48 0,48 1,0 1,-7 1,-20 0,-6 1,-12 2,-14 1,-2 2,-6 3,-9 l 1,-7 2,8 c 3,9 4,21 2,30 -1,4 -1,9 1,17 2,6 3,15 3,18 l 0,7 2,-7 c 1,-5 1,-11 0,-17 -1,-5 -1,-12 0,-20 1,-10 1,-13 -1,-21 -4,-13 -3,-26 1,-44 2,-8 4,-15 3,-16 -2,-16 -2,-17 1,-17 z"
       id="path7" />
    <path
       d="m 176,424 c -25,-5 -53,-33 -64,-63 -6,-17 -8,-33 -8,-69 l -1,-33 7,-13 c 3,-7 7,-15 7,-18 1,-2 3,-7 4,-11 2,-4 3,-9 3,-11 l -1,-4 -6,6 c -12,10 -25,17 -29.7,16 -8.4,-2 -26.9,-18 -38.9,-33 -9.3,-12 -11.5,-16 -14.6,-28 -4.4,-17 -2.1,-34 4.7,-37 1.7,-1 0,-2 -5.5,-3 C 22.5,120 17.2,116 12.1,108 2.6,91.4 7.14,72.4 22.7,62.9 c 6.7,-4.1 9.1,-4.6 19.4,-4.6 10.5,0 12.3,0.4 18.1,4.6 13,9.3 18.9,25.6 14.2,39.1 -2.2,7 -6.2,12 -15,18 -6.1,4 -6.4,4 -3.8,6 2.6,2 2.6,3 -0.6,9 -2.5,5 -2.9,7 -1.6,8 1.4,0 1.5,1 0.2,3 -1.1,2 -1.2,5 -0.1,10 0.8,4 1.5,9 1.4,12 -0.1,4 1.2,6 7.9,10 4.4,3 12.6,7 18.2,9 l 10.2,4 11.8,-10 c 6,-5 15,-16 21,-24 15,-20 20,-24 28,-25 5,0 6,0 5,-3 0,-2 0,-7 2,-11 1,-5 1,-8 0,-9 -1,0 -1,-3 0,-5 0,-2 0,-3 -1,-3 -1,0 -2,2 -1,6 1,5 0,7 -3,10 -2,3 -6,6 -8,7 -3,1 -6,4 -8,9 -3,5 -6,8 -10,10 -3,2 -7,5 -8,6 -1,2 -3,4 -4,6 -2,1 -5,4 -8,6 -2,3 -4,4 -4,2 0,-1 3,-4 6,-7 4,-3 7,-7 8,-11 2,-5 4,-7 9,-11 3,-2 6,-5 6,-7 0,-3 6,-11 9,-11 1,0 3,-1 5,-3 3,-2 4,-4 4,-16.7 -1,-23.2 7,-42.3 20,-48.4 3,-1.6 8,-4 10,-5.3 6,-3.4 22,-2.1 32,2.6 5,2.1 8,4.7 8,5.8 0,1.1 1,2.3 3,2.8 1,0.5 3,3.2 5,6.1 4,5.6 11,10.6 18,12.3 3,1 4,0.7 3,-1.7 0,-2.1 3,-4.4 10,-8.8 6,-3.3 11,-5.6 12,-5.1 1,0.6 3,3.4 4,6.4 2,4.5 4,5.3 8,5.3 4,0 6,1 10,7.5 8,12.9 17,37.2 20,56.2 3,16 3,31 1,37 -2,5 -2,5 -12,7 -6,1 -11,2 -12,3 -1,1 2,3 10,8 13,6 25,17 28,26 4,13 9,14 14,3 5,-9 14,-17 22,-21 10,-4 28,-7 37,-6 9,2 10,4 3,4 -14,0 -25,8 -38,26 -12,17 -24,45 -29,72 -9,41 -18,68 -27,82 -2,2 -3,4 -2,4 1,0 2,1 1,3 -1,2 1,3 9,5 8,1 17,5 17,7 0,1 -6,1 -13,1 -11,1 -14,1 -27,6 -50,21 -67,26 -95,26 -10,0 -22,-1 -25,-1 z m 31,-4 c 2,-2 2,-3 -3,-3 -4,0 -10,3 -10,6 0,1 11,-1 13,-3 z m -25,0 c 1,0 -1,-1 -4,-1 -5,0 -5,0 -1,1 2,1 4,2 4,2 0,0 0,-1 1,-2 z m 11,0 c 0,0 -1,-1 -4,-1 -3,0 -5,1 -5,1 0,2 8,2 9,0 z m 31,0 c 6,0 9,-3 4,-5 -2,0 -3,0 -4,2 -1,1 -2,2 -3,1 0,0 -2,-1 -5,-1 -3,-1 -4,0 -5,2 -2,3 -2,3 2,2 3,-1 7,-1 11,-1 z m 14,-5 c -5,-1 -7,0 -5,2 0,1 2,1 5,0 l 4,-2 -4,0 z m -70,-3 c -2,-2 -3,-2 -5,0 -2,4 1,6 5,4 3,-2 3,-2 0,-4 z m 15,4 c 1,0 0,-2 0,-3 -2,-1 -1,-2 2,-2 6,0 8,-1 5,-4 -1,-2 -1,-2 2,-2 5,0 8,-2 6,-4 -1,-2 -2,-2 -4,-1 -1,1 -4,1 -5,1 -1,-1 -2,0 -1,1 1,1 -5,6 -7,5 -1,0 -1,1 -1,2 0,3 -2,4 -4,4 -7,1 -7,4 0,4 3,0 7,0 7,-1 z m 13,0 c 2,0 4,-1 4,-2 0,-2 -12,-1 -12,1 -1,3 3,3 8,1 z m 17,-2 c 1,0 0,-1 -1,-1 -3,-2 -9,-1 -9,1 0,1 2,1 10,0 z m 35,0 c 1,-3 -1,-5 -3,-3 -1,1 -1,5 1,5 1,0 2,-1 2,-2 z m -87,-6 c -1,-1 -3,0 -4,1 -2,2 -2,3 0,4 1,1 3,0 4,-1 2,-2 2,-3 0,-4 z m 63,5 c 2,-1 2,-2 1,-2 -3,-2 -8,0 -8,2 0,2 4,2 7,0 z m 8,0 c 2,-1 3,-3 3,-3 -1,-1 0,-2 1,-3 3,-3 2,-6 -1,-4 -1,1 -4,1 -6,1 -2,0 -4,1 -4,2 0,1 1,1 3,1 2,0 2,0 1,3 -2,5 -1,5 3,3 z m 23,-3 c -1,-1 0,-2 1,-4 3,-2 3,-4 0,-4 -2,0 -5,7 -5,10 0,1 1,2 2,1 1,0 2,-2 2,-3 z m -13,0 c 3,-1 3,-2 1,-3 -3,-2 -6,0 -6,4 0,2 2,2 5,-1 z m -66,0 c 2,-1 2,-2 0,-5 -2,-2 -3,-4 -2,-5 1,-4 0,-6 -3,-5 -2,1 -2,2 -1,5 0,4 0,5 -2,6 -3,1 -3,1 1,3 4,3 5,3 7,1 z m 27,0 c 4,-1 2,-3 -4,-3 -4,0 -5,0 -5,2 0,2 5,3 9,1 z m 60,-3 c 0,-3 -2,-2 -4,0 -3,3 -2,4 1,3 2,-1 3,-3 3,-3 z m -43,1 c 2,-2 2,-3 -3,-3 -3,-1 -8,1 -8,3 0,2 8,2 11,0 z m -71,-2 c 0,-1 0,-1 1,0 4,3 6,2 6,-1 0,-3 1,-3 4,-1 2,2 3,3 4,1 1,0 2,-2 1,-3 -1,-2 -8,-3 -10,-1 -2,3 -9,3 -10,1 -1,-1 -2,-2 -3,-2 -1,0 0,2 3,4 5,5 6,5 4,2 z m 103,-5 c -1,-2 -2,-2 -4,1 -3,4 -1,7 2,4 2,-1 2,-3 2,-5 z m 18,6 c 0,-1 2,-2 4,-2 2,-1 11,-4 20,-7 9,-4 19,-7 23,-8 6,-1 7,-1 3,-2 -2,-1 -7,-1 -12,0 l -9,0 5,-4 c 6,-6 2,-5 -14,4 -14,8 -18,9 -15,6 3,-3 2,-6 -1,-6 -1,0 -2,1 -1,2 0,1 -1,4 -2,6 -4,3 -6,12 -4,12 1,0 2,0 3,-1 z m -2,-1 c 0,-3 4,-8 5,-7 1,1 0,3 -2,5 -2,2 -3,3 -3,2 z m -83,-4 c 0,-1 2,-3 5,-3 6,-1 7,-7 1,-6 -2,0 -5,2 -6,3 -2,2 -4,3 -5,3 -4,0 -6,4 -3,5 3,1 8,0 8,-2 z m 29,0 c 1,-1 0,-2 -5,-2 -4,0 -6,1 -7,3 -1,2 0,2 5,2 3,-1 6,-2 7,-3 z m 13,-1 c 2,-1 -4,-3 -8,-3 -4,2 -3,5 2,5 2,-1 5,-2 6,-2 z m 19,0 c 1,-1 1,-3 1,-5 -1,-2 -1,-2 -3,1 -2,2 -2,5 -3,5 0,2 3,2 5,-1 z m -87,-3 c 3,1 4,-1 2,-4 -2,-3 -2,-3 -5,0 -1,1 -4,2 -6,1 -3,-1 -5,3 -2,5 2,1 4,1 6,-1 1,-1 3,-2 5,-1 z m 74,3 c 1,-1 2,-2 2,-3 0,-2 -1,-2 -2,-2 -2,1 -3,1 -3,1 -1,0 -1,1 -1,3 0,2 0,2 4,1 z m 32,-1 c 0,-2 -1,-3 -2,-3 -1,-1 -1,-1 -1,-1 0,1 -1,2 -1,3 -1,2 -1,3 1,3 1,0 3,-1 3,-2 z M 164,389 c -5,-11 -4,-12 3,-8 7,4 7,3 0,-4 -9,-7 -12,-16 -13,-29 0,-8 0,-9 1,-3 1,6 1,6 2,-6 0,-11 1,-14 8,-27 7,-14 17,-26 21,-26 1,0 0,2 -3,4 -4,4 -14,18 -14,20 0,1 1,1 3,0 2,-1 3,0 3,1 0,2 3,2 6,-1 2,-2 4,-2 6,-1 3,2 4,1 6,-2 3,-3 4,-4 7,-3 3,1 7,-5 4,-6 -2,-1 -3,-1 -4,0 -1,0 -2,0 -2,-1 0,-1 1,-2 2,-2 1,0 4,-2 6,-4 2,-3 4,-5 5,-5 1,0 0,2 -3,5 -3,4 -3,5 -2,6 4,2 6,2 7,-3 2,-5 1,-6 -4,-18 -4,-7 -9,-16 -12,-20 -3,-4 -5,-8 -5,-10 0,-1 3,-7 6,-13 4,-5 9,-14 11,-19 3,-6 7,-11 12,-16 8,-7 17,-16 15,-18 0,0 -3,-1 -6,-1 -3,-1 -6,-1 -8,1 -1,2 -2,2 -3,1 -1,-2 6,-6 10,-6 5,0 5,-1 2,-9 -1,-4 -2,-11 -2,-17 l 0,-10 -5,0 c -3,0 -8,0 -11,-1 -3,-1 -6,-1 -6,0 -1,1 -2,1 -3,1 -1,0 1,-3 3,-6 6,-8 12,-26 9,-28 -1,-1 -1,-2 1,-4 3,-2.3 3,-2.5 -2,-5.5 -3,-1.8 -8,-6.4 -10,-10.3 -5,-6.8 -6,-7.2 -15,-8.8 -6,-1 -12,-2.9 -14,-4.4 -1,-1.5 -3,-2.4 -3,-2 -7,9.6 -12,20 -11,22.8 1,2.6 1,3 3,1.6 1,-0.9 2,-2.4 1,-3.1 0,-0.8 1,-1.4 2,-1.4 5,0 10,8.6 10,16.1 0,5 3,6 6,4 1,-2 2,-2 4,0 1,1 0,2 -3,3 -5,3 -8,1 -9,-5 -1,-4 -2,-5 -6,-5 l -4,0 5,9 c 10,18 24,22 34,9 5,-5 5,-2 1,3 -4,5 -13,8 -19,7 -6,-1 -6,0 -10,9 -1,3 -1,3 -2,0 0,-3 -1,-3 -13,-4 -16,-1 -17,-1 -29,14 -15,21 -23,29 -29,34 -4.1,3 -8.5,7 -10.1,10 -2,3 -3.2,4 -3.5,3 -0.2,-2 -5.5,-5 -11.6,-7 -6.1,-2 -14.4,-7 -18.4,-10 -5.3,-5 -8.3,-6 -11.1,-6 -5.5,2 -8.8,-4 -7.6,-13 0.5,-3 1.9,-7 3.1,-8 1.8,-2 2,-1 1.2,2 -0.8,3 -0.5,4 1.4,4 2.7,0 2.9,0 1,-5 -0.9,-2 -0.4,-4 1.6,-6 2.8,-3 2.8,-3 0,-3 -1.7,0 -2.7,0 -2.4,1 0.4,0 -1.4,2 -3.9,4 -6.8,5 -5.7,1 1.5,-6 4.5,-4 5.5,-6 3.9,-7 -1.3,0 -2.1,0 -1.9,0 0.2,1 -2.7,5 -6.4,8 -6.2,7 -6.6,7 -5.7,13 2.6,16 8.2,26 26.4,44 13.2,13 24.3,20 29.4,18 5.9,-2 19.1,-10 26.1,-17 9,-7 10,-13 6,-21 -5,-10 -5,-12 5,-21 5,-4 10,-9 11,-12 1,-2 2,-3 2,-2 0,5 -4,11 -10,15 -9,6 -10,13 -2,23 2,3 2,5 1,5 -1,1 -2,7 -3,13 -1,12 -7,31 -12,38 -7,10 -8,16 -9,37 0,11 1,26 2,34 1,14 1,14 4,12 4,-2 4,-2 0,-5 -3,-2 -3,-2 1,-1 2,0 4,0 5,-1 0,0 3,-1 5,-2 5,-1 5,-1 5,2 -1,3 3,6 5,3 0,-1 -5,-7 -11,-13 -12,-12 -13,-15 -3,-7 15,11 27,33 29,54 1,11 1,11 2,3 l 1,-7 1,9 c 0,9 -3,18 -8,23 -2,3 -2,3 1,2 2,-1 4,-3 5,-4 1,-2 3,-3 3,-3 1,0 4,5 8,12 3,6 6,11 6,11 0,-1 -1,-5 -3,-11 z m -27,-79 c -1,-1 1,-2 5,-2 7,0 9,0 16,-6 5,-4 10,-7 10,-6 1,0 -4,4 -10,8 -10,7 -17,8 -21,6 z m 41,-7 c 0,-1 1,-1 3,-1 1,0 2,-1 1,-3 0,-1 0,-2 2,-2 3,0 2,2 -1,5 -3,3 -5,3 -5,1 z m 11,-3 c 0,-1 2,-2 4,-4 l 4,-3 -2,4 c -1,1 -3,3 -4,3 -1,0 -2,0 -2,0 z m -60,-27 c 0,-1 0,-3 0,-4 2,-2 7,-2 8,0 1,1 0,1 -2,1 -3,0 -4,1 -4,3 1,3 -1,3 -2,0 z m 57,-75 c -5,-3 -9,-9 -10,-15 -1,-3 -1,-3 2,3 4,7 9,10 16,10 6,0 15,-5 15,-8 0,-1 1,-2 2,-2 4,0 -2,8 -8,11 -6,3 -12,3 -17,1 z m 9,-18 c 0,-1 1,-2 2,-2 0,0 1,1 1,2 0,0 -1,1 -1,1 -1,0 -2,-1 -2,-1 z m -12,-57 c 0,-1 1,-3 2,-4 1,-2 1,-2 -1,0 -2,2 -3,2 -5,1 -1,-2 0,-3 3,-4 5,-2 8,-2 8,0 0,1 0,2 -1,2 -1,0 -1,1 -1,2 0,2 -1,3 -3,4 -1,0 -2,0 -2,-1 z m 3,-27.8 c -1,-2.1 -2,-4.5 -2,-5.3 0,-2.3 8,-7.7 12,-7.6 3,0.1 3,0.1 -1,1.5 -3,1.6 -4,4.6 -1,4.6 4,0 5,3 2,7 -3,4.6 -8,4.6 -10,-0.2 z m 9,-1.4 c 2,-1.9 1,-2.3 -1,-2.3 -2,0 -3,0.7 -3,2.3 2,2.9 2,2.9 4,0 z M 241,396 c 1,-3 0,-3 -1,-3 -2,0 -3,2 -3,4 0,3 0,4 2,3 1,0 2,-2 2,-4 z m 17,2 c 2,-2 2,-3 0,-5 -1,-2 -1,-2 0,-3 3,-2 1,-7 -1,-7 -2,0 -2,2 -2,8 0,3 0,5 -1,5 -2,2 -1,4 1,4 1,0 2,-1 3,-2 z m -112,-3 c 1,-2 3,-2 4,-2 2,2 6,0 7,-3 1,-2 -8,-2 -11,1 -1,1 -4,2 -6,1 -3,-1 -4,0 -4,2 0,5 4,6 10,1 z m 61,2 c 1,-4 -1,-6 -5,-4 -2,1 -3,2 -4,2 0,0 0,1 1,2 1,3 7,2 8,0 z m -25,-2 c 3,-2 3,-5 0,-5 -1,0 -4,-1 -6,-3 -4,-2 -5,-1 -7,1 -3,2 -3,6 0,6 1,0 3,-1 4,-3 2,-2 4,-2 4,-2 0,1 -1,2 -2,3 -1,1 -1,2 1,3 4,3 4,3 6,0 z m 39,1 c 2,-3 -2,-5 -6,-3 -3,1 -4,2 -4,3 0,2 8,2 10,0 z m 33,-4 c 0,-4 -3,-4 -5,-1 -2,4 0,7 3,5 1,-1 2,-3 2,-4 z m -23,2 c 1,-1 1,-2 0,-3 -1,-1 -8,1 -8,3 0,2 7,2 8,0 z m 39,-2 c 1,-1 0,-3 -1,-4 -3,-2 -2,-6 1,-6 0,0 1,1 0,2 -1,3 2,4 4,2 2,-3 1,-5 -5,-6 -4,-1 -4,0 -4,3 0,2 0,4 1,4 1,1 2,3 1,5 -1,3 0,4 1,3 1,0 2,-1 2,-3 z m -5,0 c 1,-3 -2,-5 -4,-3 -1,2 0,5 2,5 1,0 2,-1 2,-2 z m -129,-7 c -1,0 -2,0 -3,1 -2,2 -2,3 -1,5 2,2 2,1 3,-2 1,-1 1,-3 1,-4 z m 102,6 c 1,-1 2,-2 3,-2 2,0 3,-2 3,-7 0,-4 -1,-6 -2,-6 -1,0 -2,1 -1,3 0,3 -1,5 -3,7 -3,2 -4,5 -4,5 0,2 2,2 4,0 z m 9,-3 c 0,-2 0,-3 -1,-2 0,2 -1,4 -2,5 -1,1 -1,2 1,2 2,0 3,-2 2,-5 z m -54,0 c 1,-2 0,-3 -3,-3 -4,0 -7,3 -5,5 2,2 8,0 8,-2 z m 10,0 c 0,-2 1,-3 4,-3 3,-1 4,-2 5,-4 0,-2 0,-2 -3,-1 -2,0 -5,2 -7,4 -2,2 -5,4 -5,3 -1,0 -2,0 -2,2 0,1 1,2 4,2 3,0 4,-1 4,-3 z m 12,1 c 0,-3 -1,-4 -5,-2 -5,2 -5,4 1,4 2,0 4,-1 4,-2 z m 71,-5 c -1,-3 -1,-3 1,0 1,2 2,2 4,1 4,-2 4,-4 -1,-9 -2,-2 -4,-3 -4,-2 0,1 1,2 2,2 1,1 1,2 1,3 0,1 -1,1 -3,-1 -3,-3 -3,-3 -3,4 0,3 0,4 -1,4 -1,0 -1,-1 -1,-2 1,-2 0,-4 -2,-5 -2,-1 -4,-3 -4,-5 0,-2 0,-3 -1,-3 -2,0 0,6 3,10 1,1 1,3 1,4 -1,1 0,2 1,4 3,3 8,0 7,-5 z m -140,3 c 1,-2 1,-2 -2,-1 -1,1 -3,1 -4,1 -2,-1 -2,0 -1,1 1,2 6,2 7,-1 z m 80,-1 c 0,-1 1,-3 1,-3 1,0 2,-1 3,-2 0,-2 2,-3 3,-3 1,0 2,0 2,1 -1,0 0,2 0,3 2,3 5,0 4,-4 -2,-5 -15,-1 -15,4 0,2 -1,3 -3,4 -4,1 -4,4 1,4 3,0 4,-1 4,-4 z m -59,-2 c -2,-1 -4,0 -2,2 0,1 2,2 3,1 1,-1 1,-1 -1,-3 z m 17,1 c 3,-4 2,-5 -2,-4 -4,0 -4,1 -3,5 1,3 3,3 5,-1 z m 49,2 c 1,-1 2,-2 1,-4 -2,-2 -2,-2 -3,0 -3,5 -2,6 2,4 z m -79,-3 c 0,-1 -1,-3 -1,-3 0,-1 -1,0 -2,1 -3,2 -2,4 2,4 1,0 2,0 1,-2 z m 98,-1 c -1,-2 0,-5 0,-6 2,-2 2,-2 1,0 0,2 1,3 2,3 0,1 1,-1 2,-3 0,-3 0,-3 -3,-2 -2,0 -5,1 -6,1 -3,0 -4,5 -1,8 4,3 6,3 5,-1 z m -120,0 c 0,-2 -1,-3 -2,-3 -2,0 -3,3 -2,4 2,2 4,1 4,-1 z m 8,-4 c -1,0 -3,0 -5,1 -2,0 -2,1 0,3 3,2 4,2 5,-1 2,-2 2,-3 0,-3 z m 61,4 c 0,-1 0,-4 0,-6 -1,-3 -1,-3 -3,2 -3,6 -3,6 -1,6 2,0 3,-1 4,-2 z m 19,0 c 2,-1 3,-3 3,-4 0,-2 1,-3 3,-3 2,-1 2,-1 0,-1 -1,-1 -4,-3 -7,-5 l -5,-4 0,5 c -1,6 2,8 5,4 1,-2 2,-2 2,-1 0,2 -3,6 -6,7 -1,0 -1,1 -1,2 2,2 2,2 6,0 z m 42,-2 c 0,-3 0,-4 1,-3 1,1 2,-1 2,-3 0,-5 -3,-6 -5,-3 -2,2 -2,2 0,2 2,-2 2,2 0,4 -2,2 -2,3 0,5 3,3 4,3 2,-2 z m -86,-2 c -1,-1 -2,-2 -3,-2 -1,0 -1,1 0,3 3,2 5,2 3,-1 z m 19,1 c 1,-2 1,-3 -2,-3 -2,-1 -4,-1 -4,0 0,1 -1,2 -2,2 0,0 -1,-1 0,-2 0,-2 -1,-3 -3,-3 -2,-1 -4,-1 -4,0 0,1 -2,2 -3,2 -2,0 -2,-1 0,-3 3,-3 3,-4 0,-4 -3,-2 -10,2 -9,4 1,2 10,6 14,6 2,0 4,0 5,1 1,3 6,2 8,0 z m 102,-3 c -2,-2 -3,-1 -2,2 1,2 1,3 3,1 1,-1 1,-2 -1,-3 z m -170,2 c 0,-2 -3,-5 -5,-5 -1,0 0,2 1,3 2,3 4,4 4,2 z m 8,-4 c 0,-2 -6,-3 -7,-1 -1,2 2,5 5,4 0,0 1,-1 2,-3 z m 75,1 c 3,-4 3,-4 -3,-4 -5,0 -8,2 -3,2 1,0 2,1 1,1 -3,1 -3,4 1,4 2,0 4,-2 4,-3 z m 62,1 c 0,-1 -4,-6 -5,-6 -1,0 0,5 1,7 0,2 4,1 4,-1 z m -129,-2 c 1,-2 0,-3 -1,-3 -3,-2 -6,1 -5,4 2,2 5,2 6,-1 z m 139,0 c 0,-1 -1,-3 -2,-3 -1,-1 -2,0 -2,2 0,2 1,3 2,3 1,0 2,-1 2,-2 z m 19,0 c -1,-1 -1,-1 1,0 3,1 3,0 1,-2 -2,-2 -2,-2 1,-2 2,1 2,1 1,-1 -2,-4 -2,-7 0,-3 2,3 4,2 4,-2 0,-2 1,-3 3,-4 1,0 2,-2 1,-3 0,-1 0,-2 1,-3 1,0 1,-2 -1,-3 -2,-3 -2,-3 -1,0 1,2 0,2 -1,1 -1,0 -2,0 -2,1 0,1 0,1 -1,1 -2,-1 -1,0 0,2 1,2 1,4 0,6 -1,2 -2,2 -2,-1 0,-4 -1,-8 -3,-8 -1,0 -3,-2 -5,-4 -2,-2 -3,-4 -2,-4 1,0 4,2 6,5 2,2 4,3 4,2 0,-1 1,-2 2,-1 1,0 2,-1 2,-3 1,-1 2,-3 3,-3 0,0 0,-1 0,-2 -1,-2 0,-2 1,-2 1,1 1,3 1,4 -1,1 0,4 1,5 1,2 1,2 1,0 -1,-2 -1,-3 0,-3 2,0 1,-11 -2,-14 -3,-2 -3,-2 -1,1 1,2 1,4 0,4 -2,0 -5,-4 -4,-6 2,-1 2,-5 0,-6 -1,0 -2,1 -2,2 1,2 0,3 -3,2 -2,0 -3,1 -3,2 0,2 1,3 2,2 2,-1 2,0 1,2 -2,4 -1,8 1,8 1,0 2,-1 2,-1 0,-1 0,-3 0,-4 0,-4 3,-4 3,-1 0,2 -1,3 -2,3 -1,0 -1,0 0,1 1,1 1,2 0,3 -2,1 -3,1 -3,0 -1,-1 -2,-1 -3,-1 -1,0 -1,1 0,2 2,3 2,3 -1,1 -2,-2 -3,-3 -1,-4 1,0 1,-1 0,-1 0,0 -2,0 -3,-1 -3,-1 -8,8 -6,10 1,0 3,2 4,4 1,3 1,3 -3,0 -2,-3 -4,-3 -3,-3 0,1 0,3 -1,4 -4,3 -3,4 0,5 2,1 1,1 -1,1 -2,0 -4,0 -4,1 -1,3 6,3 7,0 1,-1 0,-3 -1,-3 -2,-1 -2,-2 0,-4 1,-1 2,-1 3,-1 0,0 0,2 0,3 1,2 1,6 1,9 0,5 1,7 7,9 1,0 0,-1 0,-2 z m -3,-3 c -2,-2 -2,-6 0,-7 1,0 2,1 3,2 1,1 0,1 -2,0 -2,0 -2,0 -1,2 3,2 2,6 0,3 z m 0,-10 c -1,-1 0,-3 2,-3 1,0 2,1 2,2 0,2 -2,3 -4,1 z m 5,-2 c -1,-2 -2,-3 -4,-3 -1,0 -2,-1 -2,-2 0,-1 -1,-3 -3,-4 -1,-1 -2,-2 0,-2 3,0 11,9 10,12 0,1 -1,0 -1,-1 z m 7,-1 c 0,0 -1,-2 -1,-2 0,-1 1,-1 2,0 1,1 2,2 1,2 0,1 -1,1 -2,0 z m -111,14 c 2,-2 2,-3 -1,-4 -4,-1 -9,3 -5,5 2,2 3,2 6,-1 z m 90,0 c 1,1 2,1 2,-1 0,-2 -1,-3 -3,-2 -2,0 -4,0 -5,-1 -3,-2 -3,-3 2,-11 4,-9 5,-13 3,-13 -1,0 -2,-1 -2,-3 0,-4 -5,-16 -6,-16 -1,0 -1,2 0,4 3,9 -2,26 -11,34 -4,4 -4,5 -2,6 2,0 5,0 7,-1 4,-1 5,0 7,2 2,2 3,3 4,2 1,-1 2,-1 4,0 z m -162,-3 c 0,-3 -4,-4 -6,-1 -1,1 -1,2 0,3 4,1 6,1 6,-2 z m 21,-4 c 0,-1 -1,0 0,3 0,2 0,3 0,2 1,-2 1,-4 0,-5 z m 110,1 c 8,-5 12,-9 16,-19 3,-9 4,-19 1,-27 -1,-2 2,0 6,4 4,4 7,9 7,10 0,4 2,5 4,4 4,-3 15,-24 19,-36 13,-41 8,-85 -13,-108 l -6,-7 1,5 c 1,2 0,9 -1,15 -4,16 -4,20 -2,31 2,7 2,12 1,16 -3,9 -4,9 -5,-1 0,-4 -1,-12 -2,-16 -3,-8 -3,-14 0,-35 1,-8 0,-20 -2,-20 -1,0 -1,2 0,4 1,3 1,9 1,14 -1,5 -2,14 -2,19 -1,6 -1,12 1,19 3,10 3,15 0,29 0,3 0,4 1,2 1,-6 4,-7 3,-1 -1,3 -2,10 -2,16 0,5 -2,12 -3,15 -2,4 -2,4 -2,-10 0,-10 0,-20 2,-27 2,-9 2,-12 1,-17 -4,-14 -5,-22 -2,-36 1,-10 1,-14 0,-22 -2,-8 -2,-8 -6,-8 l -5,0 3,8 c 4,12 4,17 -5,40 -6,16 -6,24 -2,43 4,16 5,33 3,34 -1,1 -2,4 -2,8 0,5 0,6 -1,3 -1,-1 -1,-3 -1,-4 2,-3 0,-32 -2,-38 -1,-4 -2,-5 -1,-3 2,6 2,54 1,53 -1,0 -2,-11 -2,-24 0,-22 0,-25 -4,-35 -2,-7 -4,-15 -4,-18 0,-5 4,-18 8,-25 1,-2 2,-7 3,-13 0,-8 0,-10 -4,-19 -4,-8 -6,-10 -8,-10 -4,0 -4,1 -1,17 0,1 -1,8 -3,16 -5,18 -5,31 -1,44 2,8 2,11 0,21 -1,8 -1,15 0,20 1,6 1,12 0,17 l -1,7 0,-7 c -1,-3 -2,-12 -3,-18 -2,-8 -3,-13 -2,-17 2,-9 2,-21 -1,-30 l -3,-8 -1,7 c -1,3 -2,7 -3,9 -1,2 -1,8 -1,14 0,13 -1,20 -2,20 -1,0 -1,-15 0,-48 0,-3 -1,-10 -2,-14 l -3,-7 4,-8 c 9,-16 12,-23 11,-27 -1,-4 -1,-3 -8,5 -5,5 -10,10 -11,11 -2,1 -5,5 -7,9 -1,4 -6,12 -9,18 -10,14 -10,15 -3,26 10,14 28,53 28,59 0,3 -2,9 -4,13 -8,18 -10,31 -4,37 8,7 26,8 37,1 z m -123,1 c 0,-2 -1,-3 -2,-3 -3,0 -4,1 -3,4 1,3 5,2 5,-1 z m 57,1 c 3,-3 2,-4 -3,-4 -5,-1 -9,2 -7,4 1,3 7,2 10,0 z m 18,0 c 3,-2 3,-4 -1,-5 -3,0 -7,5 -4,6 3,1 3,1 5,-1 z m -67,-1 c 3,-2 3,-4 0,-5 -4,-1 -6,1 -4,4 0,3 2,3 4,1 z m 27,-1 c 1,-1 1,-2 -3,-3 -4,-2 -4,-2 -2,2 1,4 3,4 5,1 z m 36,-5 c 0,-1 -1,-1 -2,-1 -1,1 -3,0 -4,-1 0,-1 -1,0 -3,2 -2,3 -2,3 0,5 2,1 8,-2 9,-5 z m -85,1 c 0,-1 -1,-3 -2,-3 -2,-1 -3,-2 -3,-4 0,-1 0,-2 -1,-2 -1,0 -1,2 0,4 1,3 2,5 2,6 1,3 4,3 4,-1 z m 62,0 c 1,-2 1,-3 1,-2 -1,0 -3,0 -4,-1 -3,-1 -8,2 -6,5 2,3 7,2 9,-2 z m -53,-1 c 1,-2 -3,-5 -5,-4 0,1 -1,2 -1,4 0,3 4,4 6,0 z m 8,-2 c 1,-2 1,-3 0,-4 -2,-1 -7,3 -6,6 2,2 4,2 6,-2 z m 57,1 c 2,-2 6,-3 7,-3 4,1 9,-2 9,-4 0,-3 -8,-2 -10,0 -2,2 -4,3 -7,3 -3,-1 -9,3 -7,5 1,2 4,2 8,-1 z m -21,-2 c 3,-3 2,-3 -1,-4 -4,-1 -10,3 -8,5 1,3 6,2 9,-1 z m 40,-2 c -1,-5 -1,-5 -2,-2 -1,2 -3,4 -3,4 -1,0 -2,0 -2,1 0,1 2,2 4,2 2,0 3,-1 3,-5 z m -70,0 c 0,-2 -1,-3 -1,-2 -2,1 -2,5 0,5 0,0 1,-1 1,-3 z m -20,-2 c 0,-2 -1,-2 -3,-2 -2,0 -3,0 -3,2 0,4 5,5 6,0 z m 33,-1 c 0,-1 0,-1 0,2 0,2 0,3 0,2 1,-2 1,-3 0,-4 z m 30,2 c 2,-3 1,-3 -1,-4 -4,-1 -8,3 -7,6 1,2 7,1 8,-2 z m -54,-2 c 1,-3 -4,-5 -6,-3 -1,1 -1,2 0,4 2,3 5,2 6,-1 z m 33,1 c 2,-3 2,-3 -3,-5 -3,-1 -4,0 -3,2 1,1 1,3 1,4 0,2 3,1 5,-1 z m -24,-3 c 3,-2 3,-4 -1,-5 -1,0 -3,1 -4,2 -3,5 1,7 5,3 z m 36,0 c 4,-2 4,-4 0,-5 -2,0 -2,0 1,0 3,-1 7,-3 7,-6 0,-1 -1,-1 -1,0 -1,0 -2,0 -4,-1 -2,-1 -3,-1 -6,4 -2,3 -4,5 -5,5 -1,0 -1,1 0,3 3,2 4,3 8,0 z m 17,1 c 0,-1 1,-2 2,-2 1,0 1,1 0,2 0,0 0,1 1,1 3,0 3,-4 0,-7 -7,-4 -10,-4 -13,-1 -2,3 -2,3 1,4 2,1 4,0 6,-1 4,-4 4,-2 1,2 -3,3 -3,3 0,3 1,0 2,-1 2,-1 z m -77,-4 c 0,-2 -1,-3 -2,-3 0,0 -2,-1 -3,-3 -1,-2 -1,-4 1,-6 3,-3 3,-5 0,-5 -4,0 -5,3 -3,11 1,6 2,8 4,8 2,0 3,-1 3,-2 z m 95,0 c 1,0 2,-1 2,-2 0,-2 -1,-3 -3,-3 -5,0 -8,2 -8,5 0,2 1,2 4,1 2,0 4,-1 5,-1 z m -86,-2 c 0,-1 -1,-2 -3,-3 -2,0 -3,0 -3,3 0,3 5,3 6,0 z m 42,1 c 2,-1 3,-3 3,-4 0,0 -1,-1 -1,0 -1,0 -2,0 -4,-1 -2,-1 -3,-1 -4,2 -3,4 0,6 6,3 z m -33,-2 c 0,-1 0,-2 -1,-3 -2,-2 -7,1 -5,4 1,1 4,1 6,-1 z m 7,-3 c 0,-2 -1,-2 -3,-2 -2,1 -2,2 0,3 2,3 3,3 3,-1 z m 61,1 c 3,-2 2,-3 -1,-4 -2,-1 -3,0 -4,2 -3,4 1,6 5,2 z m -41,-4 c 0,-3 -1,-3 -2,-1 -2,3 -2,6 0,5 1,-1 2,-2 2,-4 z m -43,2 c 2,-3 -2,-5 -5,-3 -1,1 -1,2 -1,3 1,2 5,2 6,0 z m 12,-3 c 0,-3 -5,-3 -8,-1 -2,2 -2,3 0,4 2,1 8,-1 8,-3 z m 43,0 c 2,-2 2,-3 -2,-4 -2,0 -5,0 -6,1 -3,2 -3,3 -1,4 3,2 7,2 9,-1 z m 22,1 c 1,-1 0,-3 -1,-4 -3,-2 -3,-2 1,-2 2,0 4,-1 5,-2 1,-4 1,-4 -3,-5 -3,0 -4,1 -6,6 -2,4 -3,7 -4,8 -1,1 7,1 8,-1 z m 20,-1 c 1,-4 -4,-5 -7,-2 -3,4 -3,5 2,5 3,0 5,-1 5,-3 z m 84,1 c -1,0 0,-1 1,-2 1,0 1,-1 -1,-1 -2,-1 -2,-1 -2,0 1,1 0,2 -1,2 -1,0 -1,0 1,1 2,2 3,2 2,0 z m -160,-3 c 0,-2 -1,-2 -3,-2 -4,0 -5,1 -4,4 2,2 6,1 7,-2 z m 180,1 c -1,-2 -1,-3 0,-2 3,1 3,0 1,-4 -2,-2 -2,-2 -2,0 0,2 0,2 -2,0 -1,-1 -3,-3 -4,-3 -1,0 -1,1 1,3 1,1 3,4 4,5 2,4 3,4 2,1 z m -132,-1 c 2,-3 2,-4 -2,-5 -4,-1 -7,1 -7,5 0,2 6,2 9,0 z m 19,-1 c 3,-3 3,-5 0,-5 -4,0 -7,4 -6,6 1,2 3,2 6,-1 z m -83,-2 c 1,-3 -2,-4 -5,-2 -2,1 -2,2 -1,3 1,3 6,2 6,-1 z m 44,-3 c 0,-2 -1,-3 -2,-3 -2,0 -3,-1 -4,-2 0,-1 1,-1 3,0 3,0 5,0 7,-1 3,-3 3,-5 -1,-5 -3,0 -6,-4 -4,-6 0,0 1,1 2,2 1,3 6,3 8,0 1,-2 2,-2 1,-2 -1,1 -3,0 -6,-1 l -5,-2 -4,8 c -1,4 -3,10 -3,12 0,4 1,5 4,4 2,0 3,-1 4,-4 z m -36,1 c 0,-1 2,-1 3,0 5,1 4,-1 0,-2 -4,-2 -9,0 -8,3 1,2 5,1 5,-1 z m 46,0 c 5,-4 -1,-9 -6,-5 -3,2 -3,3 -1,5 2,2 5,3 7,0 z m 43,-4 c 2,-3 2,-5 1,-4 -1,1 -3,2 -5,2 -4,0 -7,5 -5,6 4,3 7,1 9,-4 z m -110,1 c 0,-1 -1,-1 -2,-1 -1,0 -1,1 -1,2 0,2 0,2 1,2 1,-1 2,-2 2,-3 z m 213,-5 c 0,-1 -1,0 -2,1 -1,1 -1,1 -2,0 -1,-1 0,-2 1,-2 0,0 1,-1 0,-2 -1,-3 -5,-1 -4,2 1,3 -2,4 -3,2 -1,-1 0,-2 1,-2 1,0 0,-1 -2,-2 l -4,-3 4,1 c 4,1 4,1 1,-1 -4,-3 -5,-3 -6,0 -1,1 0,3 2,4 2,1 2,1 -1,0 -4,-1 -8,6 -4,8 1,0 1,0 1,-1 -2,-4 2,-5 8,-1 3,2 5,2 5,1 0,-1 1,-1 2,1 2,3 2,3 3,-1 1,-1 1,-4 0,-5 z m -204,4 c 0,-2 -4,-4 -7,-2 0,1 -1,2 0,3 1,3 6,2 7,-1 z m 73,-2 c 1,-2 0,-3 -3,-3 -5,-1 -10,5 -5,7 3,1 6,-1 8,-4 z m -64,0 c 1,-2 1,-3 -1,-3 -4,-1 -7,2 -6,5 2,2 5,2 7,-2 z m 83,0 c 1,-2 3,-3 4,-2 2,1 9,-5 9,-8 0,-1 -9,2 -10,4 -1,1 -4,2 -6,2 -2,1 -3,2 -3,3 0,2 -1,2 -2,2 -1,-1 -2,-2 -1,-5 2,-3 1,-3 -1,-3 -3,0 -8,4 -6,5 2,1 10,5 12,5 1,0 2,-1 4,-3 z m -78,-3 c -1,-2 -2,-1 -2,0 0,3 2,6 3,3 0,-1 0,-2 -1,-3 z m 49,-1 c 2,-2 2,-2 0,-4 -3,-2 -4,-1 -6,2 -2,5 3,7 6,2 z m -60,-1 c 1,-2 1,-2 -1,-3 -4,-1 -5,0 -5,3 0,3 4,3 6,0 z m 204,-10 c -1,-1 -1,-2 -1,-4 1,-1 0,-2 -1,-2 -1,0 -1,-1 -1,-1 1,-1 2,-1 3,0 2,2 3,1 4,-2 0,-2 0,-4 0,-5 -1,-1 -1,-4 -2,-6 0,-2 0,-3 2,-2 4,3 4,-3 0,-7 -2,-2 -2,-4 -2,-4 1,0 3,-1 4,-3 1,-3 1,-4 0,-4 -1,0 -1,-2 -1,-3 0,-4 2,-4 3,-2 1,1 1,2 0,2 -1,0 -2,0 -1,1 2,4 2,8 0,7 -1,-1 -1,-1 0,1 1,2 2,2 8,-15 11,-33 27,-58 44,-68 l 5,-2 -6,1 c -3,0 -8,2 -11,4 -5,4 -13,12 -13,14 0,0 -1,1 -2,1 -1,0 0,-3 2,-7 3,-4 4,-7 3,-7 -2,0 -9,10 -13,19 -5,10 -5,7 -1,-4 3,-8 3,-8 0,-4 -5,6 -9,17 -13,34 -4,15 -7,24 -5,12 l 1,-5 -2,5 c -3,6 -3,6 -2,-5 1,-14 -1,-28 -5,-33 -2,-2 -3,-5 -3,-6 0,-3 -6,-14 -7,-13 -1,1 0,4 1,7 2,8 0,9 -2,1 -3,-8 -7,-13 -14,-17 l -7,-4 5,5 c 8,8 12,15 17,28 4,14 6,26 6,44 0,11 1,15 2,16 2,2 2,2 0,1 -3,-1 -3,0 -1,2 1,2 1,2 0,4 -2,1 -2,1 -1,0 0,-1 0,-2 0,-3 -1,0 -2,1 -2,3 0,1 0,3 1,3 1,0 2,0 2,1 0,1 -1,1 -2,1 -2,-1 -2,-1 0,1 2,2 1,6 -2,5 -1,-1 -2,1 -3,3 0,4 0,5 3,8 3,3 4,4 2,5 -1,0 -1,0 -1,-1 1,-1 0,-2 -2,-3 -2,-1 -3,-1 -2,-1 0,1 0,2 -2,3 -3,1 -3,3 2,6 5,2 9,2 7,-1 0,-1 1,-2 3,-2 2,0 3,0 3,1 0,1 -1,1 -1,1 -3,-2 -4,4 -2,6 2,2 2,2 3,-3 1,-4 1,-7 0,-7 z m -12,3 c -4,-3 -4,-3 -1,-4 2,0 2,0 2,0 -1,1 0,3 1,4 3,4 2,4 -2,0 z m 5,-8 c -1,-1 -1,-2 0,-3 1,-1 0,-1 -3,-1 -2,1 -2,1 -1,0 1,0 1,-1 1,-2 -1,-1 -1,-2 0,-2 3,1 5,3 5,6 0,4 -1,5 -2,2 z m 6,-6 c -1,-1 0,-2 1,-1 1,1 1,0 1,0 0,-1 0,-2 -1,-2 -1,0 -2,-1 -2,-2 0,-1 1,-1 3,1 2,2 2,3 1,4 -1,1 -2,1 -3,0 z m 2,-15 c 0,-2 2,-2 3,0 0,0 0,1 -1,1 -1,0 -2,-1 -2,-1 z m -133,35 c 3,-3 3,-5 -1,-6 -3,0 -7,4 -5,6 1,2 4,2 6,0 z m 19,-2 c 1,-4 -3,-6 -5,-3 -3,4 -3,5 1,5 1,0 3,-1 4,-2 z m -26,-3 c 1,-2 1,-2 -2,-3 -4,-1 -8,1 -4,3 3,2 4,2 6,0 z m 18,0 c 3,-2 2,-6 0,-6 -3,0 -6,4 -5,6 1,2 3,2 5,0 z m 16,-1 c 3,-2 3,-3 -2,-13 -5,-11 -6,-11 -6,-2 -1,1 1,2 2,2 2,-1 3,0 3,1 0,0 -2,1 -3,1 -3,0 -5,3 -5,6 0,3 5,2 6,-1 1,-2 3,-3 3,-3 1,1 0,3 -1,5 -5,4 -2,7 3,4 z m -22,-4 c 3,-2 2,-3 -1,-4 -2,-1 -6,3 -6,6 0,1 5,0 7,-2 z m 9,-4 c 3,-3 3,-6 0,-6 -2,1 -6,5 -5,7 1,1 3,1 5,-1 z m 124,-12 c 0,-1 -1,-2 -2,-2 0,0 -1,1 0,2 1,2 2,2 2,0 z m -89,-21 c 1,-6 1,-5 -1,2 -1,4 -2,10 -2,13 0,5 0,5 1,-2 1,-4 2,-10 2,-13 z m 36,3 c 0,-2 -1,0 -1,3 0,4 1,5 1,3 0,-2 0,-5 0,-6 z m 55,5 c -1,-2 -3,-2 -3,-2 -1,1 0,2 1,3 3,2 4,1 2,-1 z m -78,-29 c 0,-8 -1,-11 -1,-7 -1,8 -1,8 1,15 1,10 2,6 0,-8 z m -14,7 c 0,-1 -1,0 -1,2 0,3 1,3 1,2 0,-1 0,-2 0,-4 z m -11,-14 c 0,-1 -1,0 -1,2 0,2 1,2 1,1 1,-1 1,-3 0,-3 z m 53,-12 c -1,-4 -1,-11 -1,-15 1,-5 0,-7 0,-5 -1,1 -2,5 -2,9 0,6 3,20 4,19 1,-1 0,-4 -1,-8 z m -47,-16 c 1,-4 2,-6 1,-6 -2,2 -2,-1 1,-5 1,-2 2,-5 2,-6 0,-2 -1,-1 -2,2 -1,2 -2,3 -2,3 -1,-1 -3,1 -5,4 -3,5 -3,5 0,2 3,-3 4,-1 0,3 -3,3 -3,3 1,0 4,-3 4,-2 0,4 -3,6 -4,12 -2,19 1,3 2,2 2,-5 1,-5 3,-11 4,-15 z m -1,15 c -1,-1 -1,0 -1,3 0,3 0,4 1,3 0,-2 0,-4 0,-6 z m 27,-12 c 1,-1 -1,1 -3,5 -2,4 -3,9 -3,11 0,3 3,-6 6,-16 z m -36,11 c -2,-3 -2,-2 -1,2 1,1 2,2 2,2 1,-1 0,-2 -1,-4 z m 11,-7 c 1,-4 1,-4 0,-3 -1,1 -2,4 -2,5 0,4 1,3 2,-2 z m -10,-6 c 0,-2 0,-3 -1,-2 -1,0 -1,2 -1,3 0,3 1,3 2,-1 z m 39,-13 c 0,-6 -9,-33 -10,-31 0,0 2,6 4,13 4,10 5,13 4,21 0,6 0,8 1,6 0,-1 1,-6 1,-9 z m 19,3 c 0,-1 0,-2 1,-2 1,0 2,-1 2,-3 0,-2 -1,-2 -1,-1 -1,2 -1,2 -2,0 -1,-1 -2,0 -2,2 0,3 1,5 1,5 2,2 2,2 1,-1 z m 1,-13 c -1,0 -1,1 -1,2 0,2 0,3 1,1 0,-1 0,-2 0,-3 z m -42,-7 c 0,-1 -1,1 -1,3 0,3 1,4 1,2 1,-2 0,-4 0,-5 z m -3,1 c -1,0 -1,1 -1,2 0,2 1,2 1,1 0,-1 0,-2 0,-3 z m 45,4 c 0,-1 1,-2 1,-4 1,-2 1,-2 -1,0 -1,2 -1,2 -1,-1 0,-2 -1,-4 -2,-4 -1,0 -1,1 -1,3 1,1 1,3 1,4 0,1 1,2 2,2 1,0 1,0 1,0 z m -23,-15 c -3,-7 -5,-16 -6,-23 l -1,-12 0,13 c 0,10 1,14 6,23 2,6 5,11 5,11 1,-1 -1,-6 -4,-12 z m -16,-7 c -2,-5 -3,-9 -2,-17 1,-8 1,-10 -1,-10 -3,0 -6,9 -6,16 0,8 4,16 7,17 5,1 5,1 2,-6 z m 5,1 c -1,-2 -2,-8 -3,-13 l -1,-8 0,9 c 1,5 2,11 3,14 2,5 3,4 1,-2 z m 37,2 c 10,-1 19,-3 20,-4 3,-2 3,-22 0,-38 -6,-27 -19,-60.6 -26,-60.6 -1,0 -1,0.7 1,3.5 2,1.9 4,3.9 5,4.5 0,0.6 1,1.6 0,2.2 -1,0.6 -3,-0.4 -5,-2.2 -2,-1.9 -5,-3.4 -6,-3.4 -2,0 -1,1.4 3,4.8 4,2.6 7,5.4 7,6.3 0,0.8 -2,0.1 -4,-1.7 -6,-4.8 -8,-3.9 -3,1.4 4,4.2 4,4.7 1,4.7 -1,0 -4,-1.1 -6,-2.5 -2,-1.4 -4,-2.2 -4,-1.8 -1,0.7 7,5 12,6.5 1,0.4 4,3.4 5,6.3 1,4 3,7 4,8 3,4 3,20 0,30 -1,5 -2,11 -2,15 1,5 1,5 -1,3 -1,-2 -2,-4 -2,-4 -1,-1 -5,-2 -11,-2 -5,0 -12,-1 -14,-2 -4,-1 -4,0 -4,5 0,5 3,18 5,22 1,2 5,2 25,-1 z M 51.4,168 c 0,-3 -0.8,-4 -2.7,-4 -2,0 -2.2,0 -0.6,1 1.5,1 1.2,2 -1.3,3 -4,1 -2.7,4 1.6,4 2.2,0 3,-1 3,-4 z m 205.6,-12 -1,-16 0,12 c -1,11 0,21 2,19 0,0 -1,-7 -1,-15 z m -17,-15 -1,-26 -1,18 c 0,17 0,33 1,33 1,0 1,-12 1,-25 z M 50.2,161 c -1.1,0 -2.5,0 -3,1 -0.5,0 0.4,0 2,0 1.8,0 2.2,0 1,-1 z M 36.9,145 c 1.4,-3 4,-7 5.8,-9 3.3,-3 3.3,-3 0.1,-2 -1.8,1 -4.1,3 -5.3,5 -1.3,1 -2.4,1 -3.1,0 -0.5,-1 -1.1,1 -1.2,5 -0.2,3 0,6 0.4,6 0.4,0 1.9,-2 3.3,-5 z M 253,137 c 0,-3 0,0 0,5 0,5 0,7 0,4 1,-3 1,-7 0,-9 z m 18,2 c 0,-5 0,-11 1,-14 2,-5 1,-7 -2,-14 -5,-10 -13,-13.4 -26,-11.6 -1,0.2 -2,1.6 -1,2.6 0,1 1,2 1,0 2,-2 5,2 10,12 3,4 4,6 4,4 -1,-2 -3,-7 -6,-11 -6,-8.7 -5,-10.1 2,-1 6,8 10,21 9,31 -1,8 -1,8 2,9 7,1 7,1 6,-7 z m 7,5 c -1,-2 0,-6 1,-9 0,-4 2,-10 2,-14 l 1,-7 -3,8 c -1,5 -3,11 -3,13 -1,4 0,12 2,12 0,0 0,-1 0,-3 z m 4,-7 c 0,-6 0,-8 0,-6 -2,3 -3,17 -1,16 0,0 1,-5 1,-10 z m 11,3 c 4,-10 3,-30 -1,-30 -2,0 -3,3 -3,10 -1,5 -2,13 -2,18 -1,8 -1,9 1,9 2,0 4,-3 5,-7 z m -170,1 c -1,-2 -2,-2 -2,1 0,1 1,2 2,1 0,0 1,-1 0,-2 z m 126,-6 0,-7 -2,5 c 0,3 -1,6 0,7 1,4 2,2 2,-5 z m -118,1 c 1,0 1,1 0,2 -1,1 -1,1 0,1 0,0 2,-2 3,-4 l 2,-5 -5,4 c -7,5 -9,6 -4,4 1,-1 3,-2 4,-2 z m 125,-6 c 0,-2 0,-1 0,3 0,4 0,6 0,4 1,-2 1,-5 0,-7 z m 5,4 c -1,-1 -1,0 -1,2 0,1 1,2 1,1 0,-2 0,-3 0,-3 z M 45.9,129 c 2.3,1 2.6,1 1.1,0 -1.7,-1 -1.6,-2 0.8,-3 4.4,-3 1.3,-2 -4.7,0 -2.9,2 -6.1,5 -7.1,7 l -1.8,4 4.2,-4 c 3,-3 5.2,-4 7.5,-4 z M 231,126 c 0,-6 -1,-13 -2,-16 -2,-4 -5,-8 -7,-8 0,0 -1,5 -3,10 -1,5 -4,12 -6,16 -3,7 -2,8 9,8 l 9,0 0,-10 z m 47,-6 c 0,-2 0,-4 -1,-4 -1,0 -2,3 -2,6 -1,3 -1,8 -2,10 0,2 0,1 1,-2 2,-3 3,-7 4,-10 z M 50.7,132 c 0.5,-1 -0.1,-1 -1.5,-1 -2.7,1 -3.2,2 -0.9,2 0.8,0 1.8,-1 2.4,-1 z M 178,131 c 2,-2 2,-3 -1,-6 l -3,-3 -2,4 c -1,2 -2,4 -2,5 0,3 6,3 8,0 z m 74,-6 c -1,-1 -1,0 -1,2 0,2 0,3 1,2 0,-1 0,-3 0,-4 z m 7,-1 c 0,-2 0,-1 0,1 0,3 0,3 0,2 1,-1 1,-2 0,-3 z m 27,-6 1,5 1,-6 c 0,-4 -1,-6 -2,-5 -1,0 -2,4 -2,8 l 0,8 1,-8 c 1,-7 1,-8 1,-2 z m -32,0 c -2,-2 -2,-2 -1,0 0,2 1,4 1,6 0,2 0,2 1,0 0,-2 0,-4 -1,-6 z M 49.8,121 C 64.3,116 72,106 72,92.3 72,79.2 63,65.7 51.8,62 44.9,59.7 29.9,61 24.1,64.4 16.7,68.8 10.8,78.6 10,87.7 c -0.48,6.4 0.2,9.9 3.3,16.3 4.3,10 8.1,13 20.1,17 4.4,1 8,3 8,3 0,0 3.8,-1 8.4,-3 z M 28,115 C 19.5,110 15.2,102 15.1,90.4 15.1,75 23.4,66.5 39.5,65.5 c 8.2,-0.5 10.4,0 15,3.1 11.4,7.7 16.3,25.8 10,36.4 C 58,116 39.6,121 28,115 z m 20.5,-1 c 17.3,-5 21.4,-25 8.4,-39.3 -5.1,-5.5 -5.5,-5.6 -16.1,-5.6 -10.5,0 -11.2,0.2 -16.5,5.5 -7.3,7.3 -9.1,15.1 -5.9,25 4.3,13.4 16.8,19.4 30.1,14.4 z m 195.5,6 c -1,-1 -1,0 -1,2 0,2 1,2 1,1 0,-1 0,-3 0,-3 z m -93,-5 c 1,-1 2,-3 2,-4 0,-1 0,-1 -1,1 -1,1 -3,3 -4,4 -2,1 -2,2 -1,2 1,0 3,-1 4,-3 z m 97,-1 c -1,-4 0,-4 1,-3 1,0 2,0 1,0 -2,-3 -5,-2 -4,0 0,2 1,4 1,5 1,3 2,2 1,-2 z m -10,-4 c -1,0 -1,1 -1,2 0,2 0,3 1,1 0,-1 0,-2 0,-3 z m 49,-3 c 3,-1 2,-7.9 -2,-10.5 -3,-2.3 -8,-2.5 -9,-0.4 0,0.9 0,1.1 2,0.6 2,-0.9 2,-0.3 3,4.3 0,1 1,3 1,3 2,1 1,2 -6,7 -2,2 1,1 11,-4 z m -49,-1 c 1,1 1,0 1,-1 -2,-4 -5,-3 -4,1 0,2 1,2 1,1 1,-1 2,-1 2,-1 z m 32,-5 c 0,-1 -1,-1.1 -2,-1.1 -2,0 -3,0.1 -2,1.1 1,2 3,2 4,0 z m 8,0 c 0,-1.1 0,-1.4 -2,-1 -2,1 -3,2 -1,2 1,0 2,0 3,-1 z m -39,-2.1 c -1,-0.7 -1,-1 -2,-0.5 -1,0.4 -3,-0.6 -4,-2.3 -2,-1.7 -3,-2.6 -4,-2.1 -3,1.5 3,6 7,6 2,0 3,-0.4 3,-1.1 z m -9,-2.4 c -2,-2.5 -1,-2.5 1,-0.6 3,2 3,3.3 2,3.3 0,0 -1,-1.2 -3,-2.7 z m -58,-1.3 c 0,-0.4 -1,0 -3,0.9 -2,0.9 -3,2 -3,2.4 0,0.5 1,0.1 3,-0.8 2,-1 3,-2.1 3,-2.5 z m 86,0.9 c -1,-0.8 -3,-1.5 -4,-1.4 -2,0 -1,0.5 1,1.4 4,1.8 6,1.8 3,0 z m 14,-0.8 c 5,-2.9 4,-2.9 -3,0 -3,1.2 -4,2.2 -3,2.2 1,0 4,-1 6,-2.2 z M 235,94 c 0,-0.3 -1,-1.6 -2,-2.7 -3,-1.9 -3,-1.9 -1,0.6 2,2.5 3,3.3 3,2.1 z m -80,-5.6 c 1,-1.7 1,-2.7 0,-2.2 -1,0.4 -2,1.8 -2,3 0,3.2 1,2.8 2,-0.8 z m 57,1 c -1,-1.1 -1,-2.6 0,-3.3 0,-0.7 0,-0.8 -1,-0.2 -1,0.6 -3,-0.7 -4,-3.6 -3,-5 -7,-7.9 -11,-7.7 -2,0.1 -1,0.8 2,1.6 3,0.8 5,2 5,2.6 0,1.4 9,12.7 10,12.7 1,0 0,-1 -1,-2.1 z m 28,1.5 c 0,-0.4 -1,-1.1 -3,-1.6 -1,-0.5 -2,-0.2 -1,0.6 1,1.5 4,2.2 4,1 z m -19,-5.2 c -2,-2.4 -6,-7.8 -8,-12.1 l -4,-7.8 -8,-0.2 c -8,-0.1 -8,-0.1 -2,1 8,1.3 11,3.6 14,10.1 2,4.6 10,13.2 11,13.2 1,0 -1,-1.9 -3,-4.2 z m 39,3.2 c -2,-0.4 -4,-0.4 -5,0 -1,0.4 0,0.8 3,0.7 2,0 3,-0.4 2,-0.7 z m -9,-1.6 c -1,-0.4 -2,-0.4 -3,0.1 0,0.6 0,0.9 2,0.9 2,-0.1 2,-0.5 1,-1 z m 13,-1.9 c 0,-0.7 -1,-1 -2,-0.6 -4,1 -5,2 -1,2 1,0 2,-0.6 3,-1.4 z m -51,-5.5 c -2,-3 -3,-5.1 -4,-4.7 0,0.4 -2,-0.4 -5,-1.6 -2,-1.3 -6,-2.1 -7,-1.7 -2,0.5 -2,0.7 1,0.9 4,0.2 13,8.5 11,10.3 0,0.6 0,0.7 1,0.1 1,-0.6 2,-0.3 3,0.5 2,3.7 2,1.2 0,-3.8 z m 27,4.7 c 0,-0.4 -2,-1.9 -5,-3.2 -5,-2.9 -5,-5 0,-2.4 4,1.7 4,1.6 0,-1 -7,-5.5 -12,-10.1 -11,-10.9 0,-0.5 2,0.8 5,2.9 2,2.3 2,1.6 -1,-2.1 -6,-5.6 -6,-5.7 -7,-2.7 -1,1.8 -3,2.7 -3,2 -1,-0.6 -1,0.2 0,1.9 1,3 1,3 -3,0 -2,-1.7 -3,-2.1 -2,-0.9 1,2.4 10,10.4 15,13.9 3,2.1 3,2.1 1,-0.4 -3,-3.4 -1,-3.3 5,0.5 5,3.3 6,3.5 6,2.4 z m -19,-9.3 c -4,-4.9 -2,-5.1 3,-0.4 4,2.7 3,2.4 0,-1.6 -6,-6.2 -3,-6.7 3,-0.6 3,3.8 3,4.6 1,5.4 -3,1.3 -3,1.5 -7,-2.8 z m 27,7.6 c -9,-2.7 -10,-2.7 -4,0.1 2,1.2 6,2.1 7,2.1 2,0 0,-1 -3,-2.2 z m -25,-1.2 c 0,-0.3 -2,-1.9 -4,-3.5 l -3,-2.9 3,3.4 c 3,3.3 4,4.2 4,3 z m 21,-3.2 c -1,-1.4 -10,-5.6 -10,-4.9 0,1 8,5.4 10,5.5 0,0 1,-0.2 0,-0.6 z m 18,-1.8 c 3,-2.3 3,-2.3 0,-0.8 -5,2.6 -7,2.1 -5,-1 2,-2.5 2,-2.5 -1,-0.6 -2,2 -7,1.8 -14,-0.7 -2,-0.6 -2,-0.6 -2,0 2,1.7 12,5.4 16,5.4 2,0.1 5,-1 6,-2.3 z M 225,59.8 c -8,-9 -13,-12.9 -15,-12.3 -1,0.5 -3,0.2 -3,-0.7 -1,-0.9 -3,-1.7 -5,-1.6 -2,0 -2,0.7 3,3.5 5,3 6,4.2 6,9.3 1,5.1 0,5.5 -2,3.8 -2,-1.8 -2,-1.7 0,0.7 1,1.5 2,2.3 3,1.9 1,-0.4 2,-0.1 2,0.7 1,0.8 2,1.1 4,0.6 2,-0.8 2,-1.2 -1,-3.8 -1,-1.6 -2,-2.9 -1,-2.9 1,0 3,0.7 3,1.6 1,0.9 2,1.2 2,0.8 1,-0.5 5,1.9 9,5.3 4,3.4 7,6.2 8,6.2 0,0 -6,-5.9 -13,-13.1 z m -10,-4.6 c -3,-3 -5,-5.7 -4,-6.2 0,-0.4 3,1.7 6,4.6 3,3 5,5.7 4,6.2 0,0.4 -3,-1.7 -6,-4.6 z m -47,14.3 c 1,0.6 1,0.2 0,-0.9 -1,-1.5 -1,-1.6 -3,-0.2 -1,1 -2,2.2 -2,2.6 0,0.4 1,0 2,-1 1,-0.9 2,-1.2 3,-0.5 z m 98,-1.3 c 2,2.7 3,2.7 5,0 2,-2.2 2,-3.2 1,-5.3 -2,-2.3 -3,-2.2 -11,1.8 -5,2.4 -9,4.9 -9,5.6 0,0.6 3,-0.2 6,-1.9 6,-3 6,-3 8,-0.2 z m 10,2.1 c -1,-0.4 -3,-0.4 -3,0.2 -1,0.5 0,0.8 2,0.8 2,-0.1 2,-0.5 1,-1 z m -97,-3.1 c -2,-2.1 -3,-2.2 -4,-0.7 -2,1.6 -2,1.8 0,1 2,-0.5 3,-0.2 4,0.7 0,0.9 1,1.6 2,1.6 0,0 0,-1.1 -2,-2.6 z m -15,-2.8 c -1,-0.5 -1,0.4 -2,1.9 -1,2.2 -1,2.4 1,0.9 1,-1.1 1,-2.3 1,-2.8 z m 22,1.5 c 0,-0.4 -1,-0.7 -2,-0.7 -1,0 -1,0.7 -1,1.6 0,0.9 0,1.3 1,0.7 1,-0.5 2,-1.2 2,-1.6 z M 170,63 c 2,-1.6 2,-2.4 0,-3.3 -1,-0.6 -1,-0.6 -1,0.1 1,0.7 1,2.2 0,3.3 -1,1.2 -2,2.1 -1,2.1 0,0 1,-1 2,-2.2 z m 37,1.5 c 0,-2.2 -6,-3.6 -10,-2.3 l -4,1.5 4,-0.7 c 3,-0.4 6,0 7,0.7 3,1.7 3,1.8 3,0.8 z m -23,-2.4 c -5,-1.7 -9,-1.8 -8,-0.2 0,0.7 3,1.3 6,1.3 5,0.1 6,0 2,-1.1 z M 165,59 c 2,-1.7 2,-3.1 2,-3.1 0,0 -2,1.4 -4,3.1 -1,1.7 -2,3.1 -2,3.1 1,0 2,-1.4 4,-3.1 z m 32,0 c -2,-0.8 -7,-1.5 -11,-1.5 -6,0 -8,0.5 -6,1.5 1,0.9 6,1.5 10,1.5 6,0 8,-0.4 7,-1.5 z m 12,0.2 c 1,-1 0,-1.9 -4,-3.4 -3,-1.1 -5,-2.6 -5,-3.3 0,-1.7 1,-1.5 6,1.4 5,2.2 5,2.2 3,0.1 -3,-4 -10,-6.3 -13,-4.4 -3,1.5 -3,1.6 -1,1.7 2,0 3,1.1 3,2.7 0,1.6 0,1.9 -1,0.8 0,-1.2 -3,-1.9 -7,-1.8 l -7,0.1 7,2 c 4,1.1 9,2.8 11,3.7 5,2 5,2 8,0.4 z"
       id="path9"
       style="fill:#000000" />
  </g>
  <rect
     width="86.735664"
     height="61.862938"
     x="136.35115"
     y="17.286779"
     transform="matrix(0.99670522,-0.0811092,0.0811092,0.99670522,0,0)"
     id="crowned"
     style="fill:none;stroke:none" />
</svg>
