<?xml version="1.0" encoding="UTF-8" standalone="no"?>
<!-- Created with Inkscape (http://www.inkscape.org/) -->
<svg xmlns:dc="http://purl.org/dc/elements/1.1/" xmlns:cc="http://creativecommons.org/ns#" xmlns:rdf="http://www.w3.org/1999/02/22-rdf-syntax-ns#" xmlns:svg="http://www.w3.org/2000/svg" xmlns="http://www.w3.org/2000/svg" xmlns:sodipodi="http://sodipodi.sourceforge.net/DTD/sodipodi-0.dtd" xmlns:inkscape="http://www.inkscape.org/namespaces/inkscape" width="94.885902" height="397.75443" id="svg2" version="1.1" inkscape:version="0.48.2 r9819" sodipodi:docname="claymore.svg">
  <defs id="defs4">
    <inkscape:perspective sodipodi:type="inkscape:persp3d" inkscape:vp_x="0 : 530 : 1" inkscape:vp_y="0 : 1000 : 0" inkscape:vp_z="740 : 530 : 1" inkscape:persp3d-origin="370 : 350 : 1" id="perspective10"/>
  </defs>
  <sodipodi:namedview id="base" pagecolor="#ffffff" bordercolor="#666666" borderopacity="1.0" inkscape:pageopacity="0.0" inkscape:pageshadow="2" inkscape:zoom="2.0225" inkscape:cx="-50.184139" inkscape:cy="72.22086" inkscape:document-units="px" inkscape:current-layer="svg2" showgrid="false" inkscape:window-width="827" inkscape:window-height="874" inkscape:window-x="2565" inkscape:window-y="99" inkscape:window-maximized="0" borderlayer="true" fit-margin-top="0" fit-margin-left="0" fit-margin-right="0" fit-margin-bottom="0"/>
  <metadata id="metadata7">
    <rdf:RDF>
      <cc:Work rdf:about="">
        <dc:format>image/svg+xml</dc:format>
        <dc:type rdf:resource="http://purl.org/dc/dcmitype/StillImage"/>
        <dc:title/>
      </cc:Work>
    </rdf:RDF>
  </metadata>
  <g id="body" inkscape:label="#g3074">
    <g id="g3070">
      <path style="fill:#ff0000;fill-opacity:1;stroke:#000000;stroke-width:2;stroke-miterlimit:4;stroke-opacity:1;stroke-dasharray:none" d="M47.31,1   C44.84,7.162 43.21,16.92 43.77,28.78 41.94,54.46 38.72,305.1 38.72,305.1   l9.091,0   L55.9,304 54.89,28.78   C55.3,15.59 51.6,7.648 47.31,1   z " id="path3066" inkscape:connector-curvature="0" sodipodi:nodetypes="ccccccc"/>
      <path style="fill:#ff0000;fill-opacity:1;stroke:#000000;stroke-width:1;stroke-miterlimit:4;stroke-opacity:1;stroke-dasharray:none" d="m48.08,118.4 -1.071,12.86 -1.071,174.3   c0,0 3.755,-0.2346 3.398,-2.02 -0.3571,-1.786 0.5305,-176.2 0.5305,-176.2   z " id="path3068" inkscape:connector-curvature="0" sodipodi:nodetypes="cccscc"/>
    </g>
  </g>
  <g id="pomell" inkscape:label="#g3001">
    <path sodipodi:nodetypes="sccsss" inkscape:connector-curvature="0" id="path2996" d="m56.65,382.2   c0,2.318 -5.069,10.08 -6.227,15.05   l-4.652,0.0417   c-1.043,-4.451 -6.978,-10.46 -6.978,-15.1 0,-4.635 3.997,-8.393 8.929,-8.393 4.931,0 8.929,3.758 8.929,8.393   z " style="fill:#ff0000;fill-opacity:1;stroke:#000000;stroke-width:1;stroke-miterlimit:4;stroke-opacity:1"/>
    <path d="m53.44,382.7   c0,2.564 -2.638,4.643 -5.893,4.643 -3.255,0 -5.893,-2.079 -5.893,-4.643 0,-2.564 2.638,-4.643 5.893,-4.643 3.255,0 5.893,2.079 5.893,4.643   z " sodipodi:ry="4.6428571" sodipodi:rx="5.8928571" sodipodi:cy="385.71429" sodipodi:cx="51.25" id="path2999" style="opacity:0.5;fill:#333333;fill-opacity:1" sodipodi:type="arc"/>
  </g>
  <g id="hilt" inkscape:label="#g3068">
    <path id="path3011" d="m4.703,294.1   c0,1.229 -0.9408,2.225 -2.101,2.225 -1.161,0 -2.101,-0.9961 -2.101,-2.225 0,-1.229 0.9408,-2.225 2.101,-2.225 1.161,0 2.101,0.9962 2.101,2.225   z " style="fill:#ff0000;fill-opacity:1;stroke:#000000;stroke-opacity:1" inkscape:connector-curvature="0"/>
    <path inkscape:connector-curvature="0" style="fill:#ff0000;fill-opacity:1;stroke:#000000;stroke-opacity:1" d="m8.411,292.7   c0,1.229 -0.9408,2.225 -2.101,2.225 -1.161,0 -2.101,-0.9961 -2.101,-2.225 0,-1.229 0.9408,-2.225 2.101,-2.225 1.161,0 2.101,0.9962 2.101,2.225   z " id="path3014"/>
    <path id="path3016" d="m6.433,298.1   c0,1.229 -0.9408,2.225 -2.101,2.225 -1.161,0 -2.101,-0.9961 -2.101,-2.225 0,-1.229 0.9408,-2.225 2.101,-2.225 1.161,0 2.101,0.9962 2.101,2.225   z " style="fill:#ff0000;fill-opacity:1;stroke:#000000;stroke-opacity:1" inkscape:connector-curvature="0"/>
    <path inkscape:connector-curvature="0" style="fill:#ff0000;fill-opacity:1;stroke:#000000;stroke-opacity:1" d="m10.39,296.9   c0,1.229 -0.9408,2.225 -2.101,2.225 -1.161,0 -2.101,-0.9961 -2.101,-2.225 0,-1.229 0.9408,-2.225 2.101,-2.225 1.161,0 2.101,0.9962 2.101,2.225   z " id="path3018"/>
    <path inkscape:connector-curvature="0" id="path3020" d="m10.64,295.4   c0.9889,-0.2472 28.92,9.147 28.92,9.147   l8.653,0.2472 8.405,-0.4944 28.92,-10.14 1.236,3.214 -31.4,12.36   c0,0 -2.225,2.719 -1.978,3.708 0.2472,0.9889 -0.9889,60.82 -0.9889,60.82   l-8.405,-0.7417 -1.236,-60.32 -3.708,-2.719 -29.17,-11.87   z " style="fill:#ff0000;fill-opacity:1;stroke:#000000;stroke-opacity:1"/>
    <path sodipodi:nodetypes="cc" inkscape:connector-curvature="0" id="path3024" d="m53.4,315.9   c-0.9543,2.52 -7.852,2.715 -10.63,-1.731   " style="fill:#ff0000;fill-opacity:1;stroke:#000000;stroke-opacity:1"/>
    <path sodipodi:nodetypes="cc" inkscape:connector-curvature="0" id="path3026" d="m54.15,323.1   c-3.323,2.269 -9.245,1.772 -11.12,-1.236   " style="fill:#ff0000;fill-opacity:1;stroke:#000000;stroke-opacity:1"/>
    <path sodipodi:nodetypes="cc" inkscape:connector-curvature="0" id="path3028" d="m54.39,331.5   c-2.851,2.853 -7.981,1.882 -11.62,-1.236   " style="fill:#ff0000;fill-opacity:1;stroke:#000000;stroke-opacity:1"/>
    <path sodipodi:nodetypes="cc" inkscape:connector-curvature="0" id="path3030" d="m54.15,338.9   c-2.584,3.42 -6.631,2.562 -11.12,-0.2472   " style="fill:#ff0000;fill-opacity:1;stroke:#000000;stroke-opacity:1"/>
    <path sodipodi:nodetypes="cc" inkscape:connector-curvature="0" id="path3032" d="m53.9,347.5   c-5.496,1.697 -9.639,0.5024 -10.38,-1.731   " style="fill:#ff0000;fill-opacity:1;stroke:#000000;stroke-opacity:1"/>
    <path sodipodi:nodetypes="cc" inkscape:connector-curvature="0" id="path3034" d="m54.15,355.4   c-4.828,2.531 -9.89,0.2435 -10.88,-2.719   " style="fill:#ff0000;fill-opacity:1;stroke:#000000;stroke-opacity:1"/>
    <path sodipodi:nodetypes="cc" inkscape:connector-curvature="0" id="path3036" d="m53.16,362.6   c-4.81,2.076 -8.437,0.1689 -9.642,-1.236   " style="fill:#ff0000;fill-opacity:1;stroke:#000000;stroke-opacity:1"/>
    <path sodipodi:nodetypes="cccccc" inkscape:connector-curvature="0" id="path3038" d="m15.58,298.8 28.92,10.88 1.236,3.708 4.203,0.4944 2.719,-4.45 27.44,-10.88   " style="fill:none;stroke:#000000;stroke-opacity:1"/>
    <path inkscape:connector-curvature="0" style="fill:#ff0000;fill-opacity:1;stroke:#000000;stroke-opacity:1" d="m90.04,292.7   c-0.8277,0.9082 -2.194,1.011 -3.052,0.2291 -0.8578,-0.7817 -0.8822,-2.152 -0.05446,-3.06 0.8277,-0.9082 2.194,-1.011 3.052,-0.2291 0.8578,0.7817 0.8822,2.152 0.05446,3.06   z " id="path3040"/>
    <path id="path3042" d="m93.78,294.1   c-0.8277,0.9082 -2.194,1.011 -3.052,0.2291 -0.8578,-0.7817 -0.8822,-2.152 -0.05446,-3.06 0.8277,-0.9082 2.194,-1.011 3.052,-0.2291 0.8578,0.7817 0.8822,2.152 0.05446,3.06   z " style="fill:#ff0000;fill-opacity:1;stroke:#000000;stroke-opacity:1" inkscape:connector-curvature="0"/>
    <path inkscape:connector-curvature="0" style="fill:#ff0000;fill-opacity:1;stroke:#000000;stroke-opacity:1" d="m88.66,296.8   c-0.8277,0.9083 -2.194,1.011 -3.052,0.2291 -0.8578,-0.7817 -0.8822,-2.152 -0.05446,-3.06 0.8277,-0.9082 2.194,-1.011 3.052,-0.2291 0.8578,0.7817 0.8822,2.152 0.05446,3.06   z " id="path3044"/>
    <path id="path3046" d="m92.41,298.6   c-0.8277,0.9082 -2.194,1.011 -3.052,0.2291 -0.8578,-0.7817 -0.8822,-2.152 -0.05446,-3.06 0.8277,-0.9082 2.194,-1.011 3.052,-0.2291 0.8578,0.7817 0.8822,2.152 0.05446,3.06   z " style="fill:#ff0000;fill-opacity:1;stroke:#000000;stroke-opacity:1" inkscape:connector-curvature="0"/>
  </g>
</svg>
