<?xml version="1.0" encoding="UTF-8" standalone="no"?>
<!-- Created with Inkscape (http://www.inkscape.org/) -->
<svg xmlns:dc="http://purl.org/dc/elements/1.1/" xmlns:cc="http://creativecommons.org/ns#" xmlns:rdf="http://www.w3.org/1999/02/22-rdf-syntax-ns#" xmlns:svg="http://www.w3.org/2000/svg" xmlns="http://www.w3.org/2000/svg" xmlns:sodipodi="http://sodipodi.sourceforge.net/DTD/sodipodi-0.dtd" xmlns:inkscape="http://www.inkscape.org/namespaces/inkscape" width="69.693832" height="373.13379" id="svg2" version="1.1" inkscape:version="0.48.2 r9819" sodipodi:docname="rapier.svg">
  <defs id="defs4">
    <inkscape:perspective sodipodi:type="inkscape:persp3d" inkscape:vp_x="0 : 530 : 1" inkscape:vp_y="0 : 1000 : 0" inkscape:vp_z="740 : 530 : 1" inkscape:persp3d-origin="370 : 350 : 1" id="perspective10"/>
  </defs>
  <sodipodi:namedview id="base" pagecolor="#ffffff" bordercolor="#666666" borderopacity="1.0" inkscape:pageopacity="0.0" inkscape:pageshadow="2" inkscape:zoom="0.98994949" inkscape:cx="118.84647" inkscape:cy="72.357953" inkscape:document-units="px" inkscape:current-layer="svg2" showgrid="false" inkscape:window-width="827" inkscape:window-height="874" inkscape:window-x="2565" inkscape:window-y="99" inkscape:window-maximized="0" borderlayer="true" fit-margin-top="0" fit-margin-left="0" fit-margin-right="0" fit-margin-bottom="0"/>
  <metadata id="metadata7">
    <rdf:RDF>
      <cc:Work rdf:about="">
        <dc:format>image/svg+xml</dc:format>
        <dc:type rdf:resource="http://purl.org/dc/dcmitype/StillImage"/>
        <dc:title/>
      </cc:Work>
    </rdf:RDF>
  </metadata>
  <g inkscape:label="body" inkscape:groupmode="layer" id="layer1"/>
  <g id="body" inkscape:label="#g2998">
    <path inkscape:connector-curvature="0" id="path2994" d="m34.86,1.5 5,5.714 5.714,297.9 -13.57,-1.429 -0.7143,-293.6   z " style="fill:#ff0000;fill-opacity:1;stroke:#000000;stroke-width:3;stroke-miterlimit:4;stroke-opacity:1;stroke-dasharray:none"/>
    <path inkscape:connector-curvature="0" id="path2996" d="M35.58,10.79 39.15,302.9   l0,0   " style="fill:#ff0000;fill-opacity:1;stroke:#000000;stroke-width:2;stroke-miterlimit:4;stroke-opacity:1;stroke-dasharray:none"/>
  </g>
  <g id="hilt" inkscape:label="#g3023">
    <path sodipodi:nodetypes="cssccsssssssssc" inkscape:connector-curvature="0" d="m32.48,317.1   c0.7879,9.173 0.5051,17.02 0.5051,24.24 0,5.924 -33.73,-5.157 -19.7,-19.19 6.109,-6.109 8.18,-6.886 19.19,-5.051   z m25.76,-29.29   c9.717,28.28 -27.79,7.071 -45.96,21.21 -4.449,3.463 -9.054,9.045 -10.61,14.65 -6.001,21.66 30.09,28.28 32.14,30.33 3.289,3.289 3.312,18.16 11.8,18.16 9.1,0 10.1,-11.51 10.1,-18.69 0,-1.42 -2.528,-2.017 -3.536,-1.01 -0.5406,0.5405 -2.623,8.994 -4.041,7.576 -4.048,-4.048 -1.211,-19.9 -1.515,-24.75 -0.09818,-1.563 -0.9323,-15.23 0.5051,-16.67 2.293,-2.293 39.09,-26.15 11.11,-30.81   z " style="fill:#ff0000;fill-opacity:1;stroke:#000000;stroke-width:2;stroke-miterlimit:4;stroke-opacity:1;stroke-dasharray:none" id="path3010"/>
    <path sodipodi:nodetypes="cc" inkscape:connector-curvature="0" id="path3013" d="m32.36,319.8   c3.603,2.937 15.07,1.457 14.39,0.8009   " style="fill:#ff0000;fill-opacity:1;stroke:#000000;stroke-width:2;stroke-miterlimit:4;stroke-opacity:1;stroke-dasharray:none"/>
    <path sodipodi:nodetypes="cc" inkscape:connector-curvature="0" id="path3015" d="m32.93,326   c2.885,1.744 9.234,1.765 12.6,1.934   " style="fill:#ff0000;fill-opacity:1;stroke:#000000;stroke-width:2;stroke-miterlimit:4;stroke-opacity:1;stroke-dasharray:none"/>
    <path sodipodi:nodetypes="cc" inkscape:connector-curvature="0" id="path3017" d="m32.72,332.2   c3.386,2.408 15.11,1.126 13.17,2.587   " style="fill:#ff0000;fill-opacity:1;stroke:#000000;stroke-width:2;stroke-miterlimit:4;stroke-opacity:1;stroke-dasharray:none"/>
    <path sodipodi:nodetypes="cc" inkscape:connector-curvature="0" id="path3019" d="m32.57,338.4   c4.041,3.685 11.87,2.088 13.82,1.995   " style="fill:#ff0000;fill-opacity:1;stroke:#000000;stroke-width:2;stroke-miterlimit:4;stroke-opacity:1;stroke-dasharray:none"/>
    <path sodipodi:nodetypes="cc" inkscape:connector-curvature="0" id="path3021" d="m48.05,360.2   c1.475,3.976 -2.082,4.601 -2.439,6.923   " style="fill:#ff0000;fill-opacity:1;stroke:#000000;stroke-width:2;stroke-miterlimit:4;stroke-opacity:1;stroke-dasharray:none"/>
  </g>
</svg>
