<?xml version="1.0" encoding="UTF-8" standalone="no"?>
<svg
   width="263.61368pt"
   height="1311.2709pt"
   version="1.1"
   viewBox="0 0 263.61368 1311.2709"
   id="svg134"
   sodipodi:docname="shamshir.svg"
   inkscape:version="1.2.2 (b0a84865, 2022-12-01)"
   xmlns:inkscape="http://www.inkscape.org/namespaces/inkscape"
   xmlns:sodipodi="http://sodipodi.sourceforge.net/DTD/sodipodi-0.dtd"
   xmlns="http://www.w3.org/2000/svg"
   xmlns:svg="http://www.w3.org/2000/svg">
  <defs
     id="defs138" />
  <sodipodi:namedview
     id="namedview136"
     pagecolor="#ffffff"
     bordercolor="#000000"
     borderopacity="0.25"
     inkscape:showpageshadow="2"
     inkscape:pageopacity="0.0"
     inkscape:pagecheckerboard="0"
     inkscape:deskcolor="#d1d1d1"
     inkscape:document-units="pt"
     showgrid="false"
     inkscape:zoom="0.34178835"
     inkscape:cx="-46.812596"
     inkscape:cy="763.63047"
     inkscape:window-width="1440"
     inkscape:window-height="760"
     inkscape:window-x="0"
     inkscape:window-y="25"
     inkscape:window-maximized="0"
     inkscape:current-layer="svg134" />
  <path
     d="m 116.29493,6.4398903 c -0.16849,-0.1685 -0.42538,-0.2541 -0.59387,-0.4226 -4.25091,-3.2179 -8.9106,-2.8008 -12.55942,-0.1685 -0.33975,0.1685 -0.50826,0.337 -0.84795,0.5054 -0.4254,0.4254 -0.84796,0.6767 -1.18772,1.0165 -4.07418,3.2233997 -6.19518,8.5705997 -2.71515,14.4264997 73.14383,122.6965 75.51899,286.80254 73.39767,425.19748 -2.20617,148.66213 -18.41306,299.10617 -53.37242,444.03477 -0.25412,0.25412 -0.42261,0.59386 -0.59384,0.93083 -18.24053,36.06244 -52.94986,46.66876 -89.68943,28.59681 -6.7948,-3.40295 -15.79111,-0.68731 -17.73586,7.3834 -2.0384504,8.48528 -4.1570104,17.05619 -6.1949604,25.5414 -1.52743,6.27833 2.03583,13.23909 8.5762104,14.8573 l 79.41375,19.33796 c -2.02742,7.98253 -4.15963,16.03676 -6.2784,23.92776 -0.85072,3.0549 -0.33977,6.1071 1.10485,8.7394 -12.04839,62.2812 -22.98804,125.8437 -22.57085,189.3914 0,0.099 0.0498,0.1713 0.0497,0.2707 1.27845,36.2916 5.34502,68.9012 38.85198,87.8304 33.53453,18.9399 85.05716,9.6895 102.2045,-26.9909 2.98032,-6.3889 1.01965,-16.3101 -7.3392,-17.7249 -16.21346,-2.7399 -29.95234,-8.1098 -43.27423,-17.4097 -7.49343,-6.8637 -13.2635,-13.5839 -16.56977,-23.5967 -0.008,-0.025 0,-0.05 -0.008,-0.075 -0.17125,-0.6795 -0.348,-1.3645 -0.42539,-2.1213 -0.0773,-1.0938 -0.25414,-2.1214 -0.5828,-3.3008 -0.17678,-0.8563 -0.42537,-1.6131 -0.5939,-2.2898 -16.64176,-56.3501 -5.25875,-114.0429 16.46145,-167.4995 l 0.0856,-0.086 c 1.87547,-1.5163 3.39468,-3.5659 4.07138,-6.1098 2.20419,-8.4853 4.49656,-17.0532 6.78964,-25.4558 l 74.50077,18.1585 c 6.27833,1.5274 13.23909,-2.0359 14.76609,-8.485 2.03568,-8.1455 3.98009,-16.21633 6.02384,-24.3535 0.93366,-4.32552 -0.17954,-7.81403 -2.46109,-10.4381 -1.87549,-2.72622 -4.92209,-4.75085 -9.25037,-4.83647 -35.29948,-0.67953 -59.90467,-19.85414 -64.91268,-51.67649 38.08477,-185.24744 72.78957,-378.4573 62.52238,-567.93363 -6.95723,-127.9559 -41.83245,-250.5703 -127.79542,-348.2288997 -0.41413,-0.4311 -0.92257,-0.6021 -1.26233,-0.9418 z"
     id="path132"
     style="fill:#ffff00"
     sodipodi:nodetypes="ccccccccccccccccccccccscccccccccccccccccc" />
  <path
     d="m 116.29516,6.4390253 c -0.1685,-0.1685 -0.42539,-0.2542 -0.59382,-0.4226 -4.25092,-3.2178 -8.91061,-2.8008 -12.55942,-0.1685 -0.33977,0.1685 -0.50827,0.337 -0.84796,0.5054 -0.4254,0.4254 -0.84797,0.6767 -1.18773,1.0165 -4.07421,3.2233997 -6.19518,8.5705997 -2.71515,14.4264997 73.14383,122.696505 75.51898,286.802575 73.39766,425.197515 -2.20617,148.66214 -18.41306,299.10618 -53.37242,444.03478 -0.25412,0.25412 -0.4226,0.59387 -0.59383,0.93084 -18.24052,36.06244 -52.94985,46.66876 -89.68942,28.59681 -6.7948,-3.40295 -15.79111,-0.68731 -17.73586,7.3834 -2.0384504,8.48528 -4.1570104,17.05619 -6.1949704,25.5414 -1.52742,6.27833 2.03583,13.23909 8.5762204,14.8573 l 79.41375,19.33796 c -2.02742,7.98253 -4.15963,16.03677 -6.2784,23.92777 -0.85072,3.0549 -0.33977,6.1071 1.10485,8.7394 -12.04839,62.2812 -22.98804,125.8437 -22.57085,189.3914 -2.1e-4,0.099 0.0497,0.1712 0.0497,0.2707 1.27845,36.2915 5.34502,68.9012 38.85198,87.8304 33.53454,18.9399 85.05717,9.6895 102.20451,-26.991 2.98031,-6.3888 1.01964,-16.3101 -7.33921,-17.7249 -16.21346,-2.7398 -29.95233,-8.1098 -43.27423,-17.4096 -7.49343,-6.8637 -13.26351,-13.584 -16.56977,-23.5968 -0.008,-0.024 7e-5,-0.05 -0.009,-0.075 -0.1712,-0.6795 -0.348,-1.3645 -0.42539,-2.1214 -0.0773,-1.0938 -0.25414,-2.1213 -0.5828,-3.3007 -0.17673,-0.8563 -0.42537,-1.6131 -0.5939,-2.2899 -16.64176,-56.35 -5.25875,-114.0428 16.46145,-167.4994 l 0.0856,-0.086 c 1.87546,-1.5164 3.39468,-3.5659 4.07138,-6.1098 2.20419,-8.4853 4.49656,-17.0532 6.78964,-25.4559 l 74.50077,18.1585 c 6.27833,1.5275 13.23909,-2.0358 14.76609,-8.485 2.03569,-8.1455 3.98009,-16.21626 6.02384,-24.35344 0.93366,-4.32551 -0.17953,-7.81402 -2.46109,-10.43809 -1.87548,-2.72623 -4.92209,-4.75085 -9.25037,-4.83647 C 212.44754,974.54197 187.84234,955.36735 182.83433,923.545 220.9191,738.29717 255.6239,545.08731 245.3567,355.61097 238.3995,227.65504 203.52427,105.04065 117.56129,7.3821473 c -0.41408,-0.4311 -0.92256,-0.6021 -1.26232,-0.9419 z M 105.434,1270.3499 c -12.96558,-10.9657 -15.44321,-29.8003 -16.2578,-47.0607 9.68955,1.0164 19.3825,2.0357 29.08542,3.0554 4.75918,10.5652 11.28606,19.0587 20.50914,27.3648 0.51654,0.4667 1.07723,0.6021 1.60481,0.9419 0.36459,0.3315 0.54136,0.7292 0.96676,1.0331 10.57068,7.6373 21.34006,12.8217 33.01552,16.4536 -18.50887,15.7689 -50.28165,13.9873 -68.92382,-1.7868 z m 5.34785,-69.1034 c -7.30583,-0.6877 -14.59207,-1.5271 -21.98678,-2.2981 0.6767,-56.6824 10.26648,-113.1067 20.87379,-168.5176 0.16853,-1.0192 0.33977,-2.0357 0.51647,-3.0467 6.44959,1.5274 12.81341,2.9692 19.25452,4.4887 -0.5082,1.1878 -0.93352,2.2926 -1.35623,3.3947 -20.44529,53.2098 -31.05189,109.9777 -17.30291,165.9792 z m 27.23775,-192.1916 c -0.32866,1.196 -0.5939,2.4611 -0.93084,3.6488 -8.31677,-2.2069 -16.45119,-4.4028 -24.69075,-6.5322 0.25409,-0.9336 0.51103,-2.0357 0.76509,-2.9693 0.84796,-3.22343 1.78155,-6.53248 2.63227,-9.75865 l 24.85339,6.01606 c -0.93083,3.14609 -1.78155,6.37229 -2.62951,9.59569 z m 32.24513,-27.32295 c -23.92849,-5.76999 -47.94255,-11.62554 -71.78477,-17.4818 -17.22463,-4.1597 -34.53439,-8.39972 -51.75951,-12.55892 21.2132,3.73494 41.66414,0.42568 58.803,-10.26719 11.11791,-6.70401 20.95942,-16.54552 28.76475,-29.44428 1.1877,0.33696 2.37545,0.50827 3.56594,0.84796 6.61809,1.69592 13.32196,3.31202 19.94041,5.00773 0.0856,1.78156 0.25689,3.64874 0.5082,5.25911 1.36422,13.75513 5.52462,25.88647 11.97414,36.24205 8.2315,13.83306 20.44833,24.35396 35.71476,31.13511 -11.88243,-2.88337 -23.84859,-5.85555 -35.72515,-8.73913 z m 51.67536,-607.4613 c 6.10941,173.94828 -23.33452,349.67845 -57.86962,520.14776 -6.78935,-1.69593 -13.74707,-3.39461 -20.5365,-5.09046 35.12977,-148.32202 51.2511,-302.58514 52.60874,-454.47168 0.85136,-97.58074 -1.27279,-207.46515 -28.08627,-306.74294 35.64241,75.85989 50.91521,160.3683 53.88152,246.15803 z"
     id="path515"
     style="fill:none;stroke:#cccccc;stroke-width:6.5;stroke-linecap:square;stroke-dasharray:none;stroke-opacity:1"
     sodipodi:nodetypes="ccccccccccccccccccccccscccccccccccccccccccccccccccccccccccccccccccccccccccccccccccccc" />
</svg>
