<?xml version="1.0" encoding="UTF-8" standalone="no"?>
<svg
   xmlns:dc="http://purl.org/dc/elements/1.1/"
   xmlns:cc="http://creativecommons.org/ns#"
   xmlns:rdf="http://www.w3.org/1999/02/22-rdf-syntax-ns#"
   xmlns:svg="http://www.w3.org/2000/svg"
   xmlns="http://www.w3.org/2000/svg"
   width="121.76031"
   height="395.94934"
   id="svg2"
   version="1.1">

  <metadata
     id="metadata7">
    <rdf:RDF>
      <cc:Work
         rdf:about="">
        <dc:format>image/svg+xml</dc:format>
        <dc:type
           rdf:resource="http://purl.org/dc/dcmitype/StillImage" />
        <dc:title></dc:title>
      </cc:Work>
    </rdf:RDF>
  </metadata>
  <g
     id="blade">
    <path
       id="path2994"
       d="m43.99,298.5 28.28,0   L70.76,16.65 58.64,1.5 49.55,14.63   z "
       style="fill:#ffff00;stroke:#000000;stroke-width:3" />
    <path
       id="path2996"
       d="M60.66,19.68 59.65,293.4   "
       style="fill:#ffff00;fill-opacity:1;stroke:#000000;stroke-width:3;stroke-miterlimit:4;stroke-opacity:1;stroke-dasharray:none" />
  </g>
  <g
     id="hilt">
    <path
       id="path3001"
       d="m71.1,340.2   c0,22.71 -5.354,41.13 -11.96,41.13 -6.604,0 -11.96,-18.41 -11.96,-41.13 0,-22.71 5.354,-41.13 11.96,-41.13 6.604,0 11.96,18.41 11.96,41.13   z "
       style="fill:#ffff00;fill-opacity:1;stroke:#000000;stroke-width:2.9344058;stroke-miterlimit:4;stroke-opacity:1" />
    <path
       id="path3007"
       d="M48.98,324   C54.09,333.2 61.74,335.1 70.05,338.7   "
       style="fill:#ffff00;fill-opacity:1;stroke:#000000;stroke-width:3;stroke-miterlimit:4;stroke-opacity:1;stroke-dasharray:none" />
    <path
       id="path3009"
       d="m46.84,336.9   c7.034,6.792 16.86,12.14 24.29,12.14   "
       style="fill:#ffff00;fill-opacity:1;stroke:#000000;stroke-width:3;stroke-miterlimit:4;stroke-opacity:1;stroke-dasharray:none" />
    <path
       id="path3011"
       d="m46.84,348   c5.917,8.63 14.39,10.71 22.86,10.71   "
       style="fill:#ffff00;fill-opacity:1;stroke:#000000;stroke-width:3;stroke-miterlimit:4;stroke-opacity:1;stroke-dasharray:none" />
    <path
       id="path3013"
       d="m49.34,360.1   c4.217,5.373 12.41,7.143 19.29,7.143   "
       style="fill:#ffff00;fill-opacity:1;stroke:#000000;stroke-width:3;stroke-miterlimit:4;stroke-opacity:1;stroke-dasharray:none" />
    <path
       id="path3008"
       style="fill:#ffff00;fill-opacity:1;stroke:#000000;stroke-width:3.156919;stroke-miterlimit:4;stroke-opacity:1;stroke-dasharray:none"
       d="m97.18,317.5   c7.018,4.195 -2.209,23.64 10.66,24.16 15.04,0.6008 13.11,-17.24 10.66,-28.18 -4.616,-20.7 -42.77,-14.59 -61.59,-14.29 -19.1,-2.047 -24.04,6.367 -34.64,-0.704 -6.315,-4.21 1.987,-23.73 -9.596,-24.24 -13.54,-0.603 -11.79,17.3 -9.596,28.28 4.154,20.77 38.49,14.65 55.43,14.31 16.5,1.493 26.88,-6.377 38.66,0.6687   z " />
  </g>
  <g
     id="pomell">
    <path
       id="path3004"
       d="m72.78,382.3   c0,6.695 -5.653,12.12 -12.63,12.12 -6.974,0 -12.63,-5.427 -12.63,-12.12 0,-6.695 5.653,-12.12 12.63,-12.12 6.974,0 12.63,5.427 12.63,12.12   z "
       style="fill:#ffff00;fill-opacity:1;stroke:#000000;stroke-width:3;stroke-miterlimit:4;stroke-opacity:1" />
    <path
       id="path3015"
       d="m57.91,374   c-8.832,3.557 -8.605,12.84 0,16.07   "
       style="fill:#ffff00;fill-opacity:1;stroke:#000000;stroke-width:3;stroke-miterlimit:4;stroke-opacity:1;stroke-dasharray:none" />
  </g>
  <circle
     style="fill:#3250b0;stroke-width:3;stroke-linecap:round;stroke-linejoin:round;stroke-miterlimit:3"
     id="hold-point"
     cx="58.812222"
     cy="335.98251"
     r="13.16503" />
</svg>
