<?xml version="1.0" encoding="UTF-8" standalone="no"?>
<svg
   xmlns:dc="http://purl.org/dc/elements/1.1/"
   xmlns:cc="http://creativecommons.org/ns#"
   xmlns:rdf="http://www.w3.org/1999/02/22-rdf-syntax-ns#"
   xmlns:svg="http://www.w3.org/2000/svg"
   xmlns="http://www.w3.org/2000/svg"
   xmlns:xlink="http://www.w3.org/1999/xlink"
   xmlns:sodipodi="http://sodipodi.sourceforge.net/DTD/sodipodi-0.dtd"
   xmlns:inkscape="http://www.inkscape.org/namespaces/inkscape"
   width="115"
   height="165"
   viewBox="0 0 115 165"
   id="svg2"
   sodipodi:version="0.32"
   inkscape:version="0.92.2 2405546, 2018-03-11"
   sodipodi:docname="archer.svg"
   inkscape:output_extension="org.inkscape.output.svg.inkscape"
   version="1.0">
  <metadata
     id="metadata28">
    <rdf:RDF>
      <cc:Work
         rdf:about="">
        <dc:format>image/svg+xml</dc:format>
        <dc:type
           rdf:resource="http://purl.org/dc/dcmitype/StillImage" />
        <dc:title></dc:title>
        <dc:creator>
          <cc:Agent>
            <dc:title>https://commons.wikimedia.org/wiki/User:Spedona</dc:title>
          </cc:Agent>
        </dc:creator>
      </cc:Work>
    </rdf:RDF>
  </metadata>
  <sodipodi:namedview
     inkscape:window-height="977"
     inkscape:window-width="1280"
     inkscape:pageshadow="2"
     inkscape:pageopacity="0.0"
     guidetolerance="10.0"
     gridtolerance="10.0"
     objecttolerance="10.0"
     borderopacity="1.0"
     bordercolor="#666666"
     pagecolor="#ffffff"
     id="base"
     showgrid="false"
     inkscape:zoom="1.1863636"
     inkscape:cx="300"
     inkscape:cy="330"
     inkscape:window-x="-4"
     inkscape:window-y="-4"
     inkscape:current-layer="g3814"
     inkscape:object-nodes="true"
     fit-margin-top="0"
     fit-margin-left="0"
     fit-margin-right="0"
     fit-margin-bottom="0" />
  <defs
     id="defs4">
    <radialGradient
       id="Gradient1"
       gradientUnits="userSpaceOnUse"
       cx="-80"
       cy="-80"
       r="405">
      <stop
         style="stop-color:#fff;stop-opacity:0.31"
         offset="0"
         id="stop7" />
      <stop
         style="stop-color:#fff;stop-opacity:0.25"
         offset="0.19"
         id="stop9" />
      <stop
         style="stop-color:#6b6b6b;stop-opacity:0.125"
         offset="0.6"
         id="stop11" />
      <stop
         style="stop-color:#000;stop-opacity:0.125"
         offset="1"
         id="stop13" />
    </radialGradient>
    <g
       id="s-4">
      <g
         id="c-6">
        <path
           transform="rotate(18,3.16,-0.5)"
           d="M 0,0 V 1 H 0.5 Z"
           id="t-0"
           inkscape:connector-curvature="0" />
        <use
           height="540"
           width="810"
           y="0"
           x="0"
           id="use2144-7"
           transform="scale(-1,1)"
           xlink:href="#t-0" />
      </g>
      <g
         id="a-1">
        <use
           height="540"
           width="810"
           y="0"
           x="0"
           id="use2147-7"
           transform="rotate(72)"
           xlink:href="#c-6" />
        <use
           height="540"
           width="810"
           y="0"
           x="0"
           id="use2149-7"
           transform="rotate(144)"
           xlink:href="#c-6" />
      </g>
      <use
         height="540"
         width="810"
         y="0"
         x="0"
         id="use2151-7"
         transform="scale(-1,1)"
         xlink:href="#a-1" />
    </g>
    <g
       id="f">
      <rect
         id="rect1964"
         style="fill:#28166f"
         y="-30"
         x="-50"
         height="60"
         width="100" />
      <g
         id="g1966"
         style="fill:#ffffff"
         transform="translate(0,-20)">
        <path
           id="path1968"
           d="M -1.21,27.8 C -1.21,22.2 -2.09,20.5 -4.54,14 -5.71,10.9 -5.02,7.1 -2.86,3.6 -2.08,2.35 -1.11,1.21 0,0 1.11,1.21 2.08,2.35 2.86,3.6 5.02,7.1 5.71,10.9 4.54,14 2.09,20.5 1.21,22.2 1.21,27.8 Z"
           inkscape:connector-curvature="0" />
        <path
           id="rwi"
           d="m 2.92,27.7 c 0,-6 2.32,-9.9 5.58,-11 1.45,-0.6 3.3,-0.3 5,1.4 2.1,2.1 2.8,8 -3.5,9.1 0.7,-0.9 0.7,-3.1 -0.68,-3.8 -0.99,-0.5 -2.11,-0.2 -2.67,0.2 -0.83,0.5 -1.73,2.1 -1.68,4.1 z"
           inkscape:connector-curvature="0" />
        <path
           id="path1971"
           d="m 1.78,30.2 c 0,2 1.02,3.3 2.74,4.1 C 4.29,35 3.26,36.4 1.83,36.3 1.55,37.8 1.28,38.6 0,40 c -1.28,-1.4 -1.55,-2.2 -1.83,-3.7 -1.43,0.1 -2.46,-1.3 -2.69,-2 1.72,-0.8 2.73,-2.1 2.74,-4.1 z"
           inkscape:connector-curvature="0" />
        <use
           xlink:href="#rwi"
           height="400"
           width="800"
           y="0"
           x="0"
           id="use1973"
           transform="scale(-1,1)" />
        <rect
           id="rect1975"
           y="27.3"
           x="-7.92"
           height="3.22"
           width="15.8" />
      </g>
    </g>
    <g
       id="s">
      <g
         id="c">
        <path
           transform="rotate(18,3.16,-0.5)"
           d="M 0,0 V 1 H 0.5 Z"
           id="t"
           inkscape:connector-curvature="0" />
        <use
           height="540"
           width="810"
           y="0"
           x="0"
           id="use2144"
           transform="scale(-1,1)"
           xlink:href="#t" />
      </g>
      <g
         id="a">
        <use
           height="540"
           width="810"
           y="0"
           x="0"
           id="use2147"
           transform="rotate(72)"
           xlink:href="#c" />
        <use
           height="540"
           width="810"
           y="0"
           x="0"
           id="use2149"
           transform="rotate(144)"
           xlink:href="#c" />
      </g>
      <use
         height="540"
         width="810"
         y="0"
         x="0"
         id="use2151"
         transform="scale(-1,1)"
         xlink:href="#a" />
    </g>
  </defs>
  <g
     id="layer3"
     inkscape:label="Meubles"
     inkscape:groupmode="layer"
     transform="translate(272,286)">
    <g
       id="g4144">
      <g
         transform="matrix(-1.1,0,0,1.1,-451,18.1)"
         id="g3814"
         style="fill:#ffff00;stroke:#808080">
        <path
           style="fill:#cccccc;fill-rule:evenodd;stroke:#808080;stroke-width:0.682;stroke-linecap:butt;stroke-linejoin:miter;stroke-miterlimit:4;stroke-dasharray:none;stroke-opacity:1"
           d="m -220,-230 c 0,-1 -2,-2 -1,-3 0,-1 -1,-2 -1,-3 -1,-2 -2,-4 -3,-4 -3,-1 -5,-1 -7,0 -1,1 -2,3 -3,4 -1,5 2,6 3,9 1,1 1,3 1,4 0,2 -2,5 -1,7 0,4 1,9 4,10 1,2 5,2 7,0 3,-2 1,-9 0,-12 -1,-2 -5,-4 -4,-6 0,-1 2,0 3,-1 0,0 1,-3 0,-3 0,0 0,-1 0,-1 1,0 2,0 2,-1 z"
           id="path3341"
           sodipodi:nodetypes="cssssccsssssssccs"
           inkscape:connector-curvature="0" />
        <g
           id="armed-2"
           transform="matrix(-0.146,-0.039,-0.039,0.146,-146,-246)"
           style="fill:#ff0000;stroke:#808080;stroke-width:4.512;stroke-miterlimit:4;stroke-dasharray:none"
           inkscape:label="#g3383">
          <g
             transform="translate(-20,16)"
             style="opacity:1;fill:#ff0000;stroke:#808080;stroke-width:4.512;stroke-miterlimit:4;stroke-dasharray:none;stroke-opacity:1"
             id="g3328">
            <path
               sodipodi:nodetypes="cccccccccc"
               id="path3324"
               d="m 719,444 -50,27 -22,-4 -104,57 -5,-10 104,-56 11,-17 50,-26 -7,23 z"
               style="fill:#ff0000;fill-rule:evenodd;stroke:#808080;stroke-width:4.512;stroke-linecap:butt;stroke-linejoin:miter;stroke-miterlimit:4;stroke-dasharray:none;stroke-opacity:1"
               inkscape:connector-curvature="0" />
            <path
               sodipodi:nodetypes="cccccccccc"
               id="path3326"
               d="m 712,434 -49,27 -22,-4 -105,57 -5,-10 105,-56 11,-17 50,-26 -8,22 z"
               style="fill:#ff0000;fill-rule:evenodd;stroke:#808080;stroke-width:4.512;stroke-linecap:butt;stroke-linejoin:miter;stroke-miterlimit:4;stroke-dasharray:none;stroke-opacity:1"
               inkscape:connector-curvature="0" />
            <path
               style="fill:#ff0000;fill-rule:evenodd;stroke:#808080;stroke-width:4.512;stroke-linecap:butt;stroke-linejoin:miter;stroke-miterlimit:4;stroke-dasharray:none;stroke-opacity:1"
               d="m 702,415 -48,30 -22,-2 -101,63 -6,-9 101,-63 10,-18 48,-29 -6,23 z"
               id="path3322"
               sodipodi:nodetypes="cccccccccc"
               inkscape:connector-curvature="0" />
          </g>
          <path
             sodipodi:nodetypes="ccccc"
             id="path3320"
             d="m 247,643 c 7,-3 304,-164 304,-164 l 21,40 -311,150 z"
             style="opacity:1;fill:#ff0000;fill-rule:evenodd;stroke:#808080;stroke-width:4.512;stroke-linecap:butt;stroke-linejoin:miter;stroke-miterlimit:4;stroke-dasharray:none;stroke-opacity:1"
             inkscape:connector-curvature="0" />
        </g>
        <g
           id="trousered"
           inkscape:label="#g1768"
           style="stroke-width:0.682">
          <path
             inkscape:connector-curvature="0"
             sodipodi:nodetypes="cccccsccccccccccc"
             id="path3333"
             d="m -208,-145 c 0,-4 -1,-8 -3,-12 v -2 c -3,-9 -3,-17 -8,-27 l -1,-4 c 0,0 -14,1 -15,0 0,0 -7,19 -7,21 l -3,8 v 3 c -4,5 -3,11 -5,16 l 5,1 c 3,-6 8,-11 9,-19 5,-6 7,-12 9,-18 0,7 4,11 7,17 l 1,3 c 1,5 2,10 6,15 z"
             style="fill:#00ff00;fill-rule:evenodd;stroke:#808080;stroke-width:0.682;stroke-linecap:butt;stroke-linejoin:miter;stroke-miterlimit:4;stroke-dasharray:none;stroke-opacity:1" />
        </g>
        <g
           id="booted"
           inkscape:label="#g1765"
           style="fill:#0000ff;stroke-width:0.682">
          <path
             inkscape:connector-curvature="0"
             sodipodi:nodetypes="ccssccscccc"
             id="path3312"
             d="m -193,-128 c -2,1 -9,1 -10,0 -1,0 -1,-1 -2,-1 0,0 -1,1 -2,1 -1,0 -2,0 -3,-1 -1,-1 -1,-4 -1,-6 -1,-3 -5,-5 -3,-7 1,-3 8,-4 8,-3 0,3 2,7 5,11 1,1 4,1 5,2 2,0 5,2 3,4 z"
             style="fill:#0000ff;fill-rule:evenodd;stroke:#808080;stroke-width:0.682;stroke-linecap:butt;stroke-linejoin:miter;stroke-miterlimit:4;stroke-dasharray:none;stroke-opacity:1" />
          <path
             inkscape:connector-curvature="0"
             sodipodi:nodetypes="cscccsc"
             id="path3314"
             d="m -206,-145 c 0,2 -8,5 -9,4 -1,-1 -2,-7 -1,-6 0,-1 6,1 7,-1 1,0 0,-1 0,-1 1,0 1,0 2,0 1,1 1,3 1,4 z"
             style="fill:#0000ff;fill-rule:evenodd;stroke:#808080;stroke-width:0.682;stroke-linecap:butt;stroke-linejoin:miter;stroke-miterlimit:4;stroke-dasharray:none;stroke-opacity:1" />
          <path
             inkscape:connector-curvature="0"
             sodipodi:nodetypes="ccssssccc"
             id="path3316"
             d="m -260,-129 c 2,3 4,2 8,1 0,-1 1,-2 2,-2 1,0 3,0 4,-1 0,0 1,-2 1,-3 1,-3 3,-6 2,-9 0,-3 -7,-2 -7,-2 -1,3 -1,6 -3,9 -2,2 -7,3 -7,7 z"
             style="fill:#0000ff;fill-rule:evenodd;stroke:#808080;stroke-width:0.682;stroke-linecap:butt;stroke-linejoin:miter;stroke-miterlimit:4;stroke-dasharray:none;stroke-opacity:1" />
          <path
             inkscape:connector-curvature="0"
             sodipodi:nodetypes="ccccccc"
             id="path3318"
             d="m -243,-140 c -2,0 -7,-2 -7,-2 -1,-3 0,-8 1,-7 1,3 6,4 7,3 0,0 0,-1 1,-2 1,0 1,2 1,3 0,1 -1,4 -3,5 z"
             style="fill:#0000ff;fill-rule:evenodd;stroke:#808080;stroke-width:0.682;stroke-linecap:butt;stroke-linejoin:miter;stroke-miterlimit:4;stroke-dasharray:none;stroke-opacity:1" />
        </g>
        <path
           sodipodi:nodetypes="ccccc"
           id="path3379"
           d="m -243,-191 c -4,-4 7,-26 14,-35 l 2,1 c -7,9 -18,30 -15,34 z"
           style="fill:#999999;fill-rule:evenodd;stroke:#808080;stroke-width:0.682;stroke-linecap:butt;stroke-linejoin:miter;stroke-miterlimit:4;stroke-dasharray:none;stroke-opacity:1"
           inkscape:connector-curvature="0" />
        <path
           style="fill:#ffff00;fill-rule:evenodd;stroke:#808080;stroke-width:0.682;stroke-linecap:butt;stroke-linejoin:miter;stroke-miterlimit:4;stroke-dasharray:none;stroke-opacity:1"
           d="m -232,-225 c -2,-1 -6,-3 -9,-3 -2,0 -6,1 -8,1 -2,1 -5,1 -5,3 -1,2 3,4 5,6 2,2 7,2 9,4 1,1 1,3 1,4 0,2 2,5 2,8 1,2 2,5 2,7 0,1 0,3 -1,4 0,0 -1,1 -1,1 -2,2 -4,5 -5,7 0,2 -3,5 -3,8 1,3 8,2 9,2 1,0 10,-1 10,-1 1,0 13,3 15,-1 1,-1 -1,-2 -1,-3 -4,-11 -4,-9 -4,-10 0,0 -2,-2 -3,-4 0,-1 0,-2 1,-3 0,-1 1,-2 1,-3 1,-2 0,-4 1,-6 1,-2 2,-5 3,-7 0,-1 2,-1 2,-2 -1,0 -2,0 -3,-1 0,1 1,1 3,1 2,1 4,0 7,0 0,0 2,0 3,0 1,0 0,-1 0,-2 0,1 1,1 2,2 3,1 9,-1 11,-1 l 1,-6 c 0,0 -7,-1 -8,-1 -1,1 -7,2 -11,1 -3,0 -7,-1 -10,-1 -2,-1 -4,-1 -5,-2 -4,-3 -4,14 -4,15 -1,-3 -2,-16 -4,-17 -1,0 -2,0 -3,0 z"
           id="path3335"
           sodipodi:nodetypes="csssssssssssssssssssssscccsccsccsssscss"
           inkscape:connector-curvature="0" />
        <g
           id="armed-1"
           style="fill:#ff0000;stroke:#808080;stroke-width:4.209;stroke-miterlimit:4;stroke-dasharray:none"
           transform="matrix(-0.162,0,0,0.162,-160,-274)"
           inkscape:label="#g3305">
          <path
             id="path3291"
             d="m 61.6,305 -20.8,8 -15.9,5 20.2,9 15.5,6 0.3,-11 313.1,2 v -8 L 61.2,314 Z"
             style="fill:#ff0000;fill-opacity:1;fill-rule:evenodd;stroke:#808080;stroke-width:4.209;stroke-linecap:butt;stroke-linejoin:miter;stroke-miterlimit:4;stroke-dasharray:none;stroke-opacity:1"
             inkscape:connector-curvature="0" />
          <path
             id="path3285"
             d="m 266,28.4 -6,2.2 114,301.4 -111,308 6,2 111,-309 v -1 -1 z"
             style="fill:#ff0000;fill-opacity:1;fill-rule:evenodd;stroke:#808080;stroke-width:4.209;stroke-linecap:butt;stroke-linejoin:miter;stroke-miterlimit:4;stroke-dasharray:none;stroke-opacity:1"
             inkscape:connector-curvature="0" />
          <path
             sodipodi:nodetypes="ccccccc"
             d="m 131,328 c 0,148 157,209 138,332 l -12,6 C 256,520 91.5,490 106,328 88.6,165 256,135 257,-10.5 l 12,5.72 C 288,118 131,173 131,328 Z"
             style="fill:#ff0000;fill-rule:evenodd;stroke:#808080;stroke-width:4.209;stroke-linecap:butt;stroke-linejoin:miter;stroke-miterlimit:4;stroke-dasharray:none;stroke-opacity:1"
             id="path2510"
             inkscape:connector-curvature="0" />
          <path
             sodipodi:nodetypes="ccccc"
             id="path3301"
             d="m 252,32.6 17,6.1 c 1,-5 1,-9.3 1,-13.7 l -16,-3.5 c -2,3.7 -3,7.4 -2,11.1 z"
             style="fill:#ff0000;fill-rule:evenodd;stroke:#808080;stroke-width:4.209;stroke-linecap:butt;stroke-linejoin:miter;stroke-miterlimit:4;stroke-dasharray:none;stroke-opacity:1"
             inkscape:connector-curvature="0" />
          <path
             style="fill:#ff0000;fill-rule:evenodd;stroke:#808080;stroke-width:4.209;stroke-linecap:butt;stroke-linejoin:miter;stroke-miterlimit:4;stroke-dasharray:none;stroke-opacity:1"
             d="m 253,636 18,-6 c 1,5 1,9 1,13 l -16,4 c -2,-4 -3,-8 -3,-11 z"
             id="path3303"
             sodipodi:nodetypes="ccccc"
             inkscape:connector-curvature="0" />
        </g>
        <path
           style="fill:#cccccc;fill-rule:evenodd;stroke:#808080;stroke-width:0.682;stroke-linecap:butt;stroke-linejoin:miter;stroke-miterlimit:4;stroke-dasharray:none;stroke-opacity:1"
           d="m -187,-219 c 0,0 1,0 1,0 1,-1 1,-3 2,-3 2,0 4,1 5,2 0,1 -1,1 -2,1 0,-1 -1,-1 -1,-1 -1,0 -1,0 -1,0 -1,1 -1,1 -1,2 0,-1 1,-2 1,-2 1,0 1,0 1,0 0,0 0,0 0,0 0,0 0,0 0,0 0,2 0,4 0,6 -1,0 -2,-1 -3,-1 -1,-1 -1,-1 -2,-1 z"
           id="path3353"
           sodipodi:nodetypes="cscsscscsssccccc"
           inkscape:connector-curvature="0" />
        <path
           style="fill:#999999;fill-rule:evenodd;stroke:#808080;stroke-width:0.682;stroke-linecap:butt;stroke-linejoin:miter;stroke-miterlimit:4;stroke-dasharray:none;stroke-opacity:1"
           d="m -221,-223 c 2,5 -13,24 -21,31 l -2,-1 c 8,-7 23,-25 21,-30 z"
           id="path3377"
           sodipodi:nodetypes="ccccc"
           inkscape:connector-curvature="0" />
        <path
           style="fill:#cccccc;fill-rule:evenodd;stroke:#808080;stroke-width:0.682;stroke-linecap:butt;stroke-linejoin:miter;stroke-miterlimit:4;stroke-dasharray:none;stroke-opacity:1"
           d="m -231,-220 c 1,0 3,0 4,1 0,0 2,1 3,1 1,0 2,0 4,-1 0,0 0,0 0,0 0,-1 0,-2 0,-2 0,0 1,-1 0,-1 0,0 2,0 2,-1 0,0 -1,-1 -2,-1 0,0 -2,2 -2,1 0,0 1,0 1,0 0,-1 0,-1 0,-1 -1,-1 -3,-1 -4,-1 -1,0 -2,1 -3,1 -1,0 -2,0 -3,0 -1,1 0,2 0,4 z"
           id="path3368"
           sodipodi:nodetypes="cssccccssccssccc"
           inkscape:connector-curvature="0" />
        <path
           style="fill:#ffff00;fill-rule:evenodd;stroke:#808080;stroke-width:0.682;stroke-linecap:butt;stroke-linejoin:miter;stroke-miterlimit:4;stroke-dasharray:none;stroke-opacity:1"
           d="m -246,-222 c 0,2 8,2 9,1 2,0 4,2 7,2 -2,-2 -2,-4 -1,-6 v 0"
           id="path3337"
           sodipodi:nodetypes="ccccc"
           inkscape:connector-curvature="0" />
        <path
           style="fill:#0000ff;fill-rule:evenodd;stroke:#808080;stroke-width:0.682;stroke-linecap:butt;stroke-linejoin:miter;stroke-miterlimit:4;stroke-dasharray:none;stroke-opacity:1"
           d="m -219,-195 c -4,2 -16,0 -16,0 l -1,3 c 3,2 18,2 18,1 z"
           id="belted"
           sodipodi:nodetypes="ccccc"
           inkscape:connector-curvature="0"
           inkscape:label="#path3339" />
        <path
           style="fill:#ffff00;fill-rule:evenodd;stroke:#808080;stroke-width:0.682;stroke-linecap:butt;stroke-linejoin:miter;stroke-miterlimit:4;stroke-dasharray:none;stroke-opacity:1"
           d="M -220,-230 Z"
           id="path3343"
           inkscape:connector-curvature="0" />
        <g
           id="hatted"
           inkscape:label="#g1759"
           style="fill:#0000ff;stroke-width:0.682">
          <path
             inkscape:connector-curvature="0"
             sodipodi:nodetypes="csssss"
             id="path3345"
             d="m -221,-236 c -4,0 -13,1 -15,-1 -1,-1 -3,-4 -2,-3 0,0 10,-3 14,-2 1,1 3,3 4,4 0,1 -1,2 -1,2 z"
             style="fill:#0000ff;fill-rule:evenodd;stroke:#808080;stroke-width:0.682;stroke-linecap:butt;stroke-linejoin:miter;stroke-miterlimit:4;stroke-dasharray:none;stroke-opacity:1" />
        </g>
        <path
           style="fill:#ffff00;fill-rule:evenodd;stroke:#808080;stroke-width:0.682;stroke-linecap:butt;stroke-linejoin:miter;stroke-miterlimit:4;stroke-dasharray:none;stroke-opacity:1"
           d="m -222,-228 c 0,0 -1,0 -2,-1"
           id="path3349"
           sodipodi:nodetypes="cc"
           inkscape:connector-curvature="0" />
        <path
           style="fill:#cccccc;fill-rule:evenodd;stroke:#808080;stroke-width:0.682;stroke-linecap:butt;stroke-linejoin:miter;stroke-miterlimit:4;stroke-dasharray:none;stroke-opacity:1"
           d="m -222,-226 c 1,1 -2,1 -4,1 -1,0 -2,-1 -3,-2"
           id="path3351"
           sodipodi:nodetypes="ccc"
           inkscape:connector-curvature="0" />
        <path
           id="path3357"
           style="fill:#cccccc;fill-rule:evenodd;stroke:#808080;stroke-width:0.682;stroke-linecap:butt;stroke-linejoin:miter;stroke-miterlimit:4;stroke-dasharray:none;stroke-opacity:1"
           d="m -176,-219 c 0,-1 -2,-2 -3,-1 -1,1 1,1 2,1 0,1 1,1 1,0 z m 0,2 c -1,-2 -3,-2 -4,-2 0,1 1,1 2,2 1,0 2,0 2,0 z m 0,1 c -1,-1 -3,-2 -4,-1 0,1 1,1 2,1 1,0 2,0 2,0 z m -1,1 c 0,-1 -2,-2 -3,-1 0,1 1,1 2,1 1,0 1,1 1,0 z"
           inkscape:connector-curvature="0" />
        <path
           style="fill:#b3b3b3;fill-rule:evenodd;stroke:#808080;stroke-width:0.682;stroke-linecap:butt;stroke-linejoin:miter;stroke-miterlimit:4;stroke-dasharray:none;stroke-opacity:1"
           d="m -229,-231 c 0,0 1,0 1,1 -1,0 -1,1 -1,0 -1,0 -1,-1 -2,-1 0,-1 0,-2 0,-2 1,-1 2,-1 2,0 0,0 0,1 0,1 0,0 0,0 0,0"
           id="path3364"
           sodipodi:nodetypes="csssssss"
           inkscape:connector-curvature="0" />
        <g
           id="g3390"
           transform="matrix(-0.139,0,0,0.139,-170,-268)"
           style="fill:#ffff00;stroke:#808080;stroke-width:4.905">
          <path
             sodipodi:nodetypes="cccc"
             id="path3347"
             d="m 384,249 c 7,-3 15,6 18,4 -6,-2 -13,7 -21,7 3,-4 4,-7 3,-11 z"
             style="opacity:1;fill:#ffff00;fill-rule:evenodd;stroke:#808080;stroke-width:4.905;stroke-linecap:butt;stroke-linejoin:miter;stroke-miterlimit:4;stroke-dasharray:none;stroke-opacity:1"
             inkscape:connector-curvature="0" />
          <ellipse
             id="path3366"
             style="opacity:1;fill:#ffff00;stroke:#808080;stroke-width:4.905;stroke-miterlimit:4;stroke-dasharray:none;stroke-opacity:1"
             cx="388"
             cy="254"
             rx="2.27"
             ry="2.15" />
        </g>
        <path
           id="path3562"
           style="fill:#cccccc;fill-rule:evenodd;stroke:#808080;stroke-width:0.682;stroke-linecap:butt;stroke-linejoin:miter;stroke-miterlimit:4;stroke-dasharray:none;stroke-opacity:1"
           d="m -220,-220 c -1,1 -2,1 -3,1 m 3,-2 c -1,1 -2,1 -3,1 m 3,-2 c 0,0 -1,1 -2,1 -1,0 -2,-1 -2,-1"
           inkscape:connector-curvature="0" />
        <ellipse
           style="fill:#666666;stroke:#808080;stroke-width:4.203;stroke-miterlimit:4;stroke-dasharray:none;stroke-opacity:1"
           id="path3381"
           transform="matrix(-0.171,-0.053,0.023,0.161,-154,-227)"
           cx="570"
           cy="398"
           rx="12.1"
           ry="7.14" />
      </g>
    </g>
    <g
       transform="translate(-24.9,4.1)"
       style="opacity:0.7"
       inkscape:label="gabarit"
       id="layer1-3" />
  </g>
</svg>
