<?xml version="1.0" encoding="UTF-8" standalone="no"?>
<!-- Created with Inkscape (http://www.inkscape.org/) -->

<svg
   id="svg2"
   height="802.37"
   width="648.76"
   version="1.0"
   viewBox="0 0 648.76 802.37"
   xmlns:xlink="http://www.w3.org/1999/xlink"
   xmlns="http://www.w3.org/2000/svg"
   xmlns:svg="http://www.w3.org/2000/svg"
   xmlns:rdf="http://www.w3.org/1999/02/22-rdf-syntax-ns#"
   xmlns:cc="http://creativecommons.org/ns#"
   xmlns:dc="http://purl.org/dc/elements/1.1/">
  <metadata
     id="metadata3318">
    <rdf:RDF>
      <cc:Work
         rdf:about="">
        <dc:format>image/svg+xml</dc:format>
        <dc:type
           rdf:resource="http://purl.org/dc/dcmitype/StillImage" />
      </cc:Work>
    </rdf:RDF>
  </metadata>
  <defs
     id="defs4">
    <linearGradient
       id="linearGradient4321">
      <stop
         id="stop4323"
         stop-color="#5b7b32"
         offset="0" />
      <stop
         id="stop4325"
         stop-color="#405623"
         offset="1" />
    </linearGradient>
    <radialGradient
       id="radialGradient5383"
       xlink:href="#linearGradient4321"
       gradientUnits="userSpaceOnUse"
       cy="707"
       cx="-176.5"
       gradientTransform="matrix(0.63284,0.30809,-0.91038,1.87,1027.2,-702.43)"
       r="13.589" />
    <radialGradient
       id="radialGradient5386"
       xlink:href="#linearGradient4321"
       gradientUnits="userSpaceOnUse"
       cy="705.77"
       cx="-164.86"
       gradientTransform="matrix(0.57935,-0.02009,0.06469,1.8656,336.99,-755.56)"
       r="13.589" />
  </defs>
  <g
     id="g41040"
     transform="translate(-825.11,187.5)">
    <title
       id="title41042">Layer 1</title>
  </g>
  <g
     id="g3900"
     transform="translate(-269.68,1071.3)">
    <path
       d="m 567.12,-1018.8 -34,43.51 -20,26.24 h -0.4 c -1.5,-2.17 -3.5,-3.95 -5.2,-6.08 -0.9,-1.26 -1.8,-3.08 -3.4,-3.64 -1.1,-0.4 -2.1,0.18 -3.2,0.12 -1.1,-0.1 -2,-0.74 -3.2,-0.51 -4.6,0.9 -9.5,6.2 -12.1,9.79 -8.5,11.62 -16.8,30.09 -3.9,41.28 v 0.32 c -3.8,3.3 -6.6,8.37 -9.4,12.48 -1.2,1.79 -3.1,3.59 -3.6,5.76 -1,4.23 2.6,8.99 6.9,9.15 2.4,0.1 3.8,-2.14 5.2,-3.71 3.8,-4.42 9.2,-9.48 11.8,-14.72 h 0.3 c 0,7.15 1.5,14.25 4.4,20.8 3.3,7.29 8,14.2 9.8,22.08 2,8.83 1.5,17.72 2.9,26.56 2.5,16.08 7.6,32.12 14.7,46.72 2.5,5.4 5,10.69 8.4,15.68 1.3,1.89 2.6,4.45 4.6,5.63 2.3,1.28 5.5,0.71 8,0.77 6.9,0.16 13.3,-0.74 20.2,-1.28 -1.1,5.6 -1.3,12.29 5.4,14.11 2.4,0.64 5.2,-0.35 7.3,0.23 1.1,0.28 2,1.63 2.9,2.27 2.1,1.34 4.4,1.82 6.8,1.57 3,-0.29 5.5,-2.53 8.3,-2.82 3.8,-0.42 7.2,1.73 11.2,0.42 2.4,-0.77 3.4,-3.68 5.6,-4.42 1.7,-0.58 3.6,0.93 5.6,0 2.7,-1.28 3.2,-5.31 5.8,-6.34 3.4,-1.37 8.5,-0.19 12.1,-0.19 6.2,0 12.4,-1.54 18.6,-1.6 0.6,7.26 5.3,15.94 8.5,22.4 8.7,17.41 19.9,34.3 32.7,48.96 -4.6,0.19 -9.4,0.83 -14,0.64 -5.2,-0.22 -11.6,-1.41 -16.4,1.18 -4.1,2.28 -9,6.34 -11.9,10.02 -3,3.74 -5.5,8.74 -10.5,9.22 -22.6,2.2 -45.2,5.53 -67.8,8.8 -7.3,1.02 -14.5,2.14 -21.8,3.13 -1.8,0.26 -4.9,1.83 -6.5,1.67 -2.1,-0.16 -4.1,-4.16 -5.3,-5.54 -3.6,-3.94 -7.7,-7.94 -12.2,-10.72 -1.5,-0.96 -3.2,-2.34 -5.1,-2.27 -8.8,0.32 -17.9,3.23 -26.5,4.8 -17.4,3.13 -34.8,6.01 -52.2,9.28 -12.45,2.33 -25.01,2.94 -37.43,5.57 -2.18,0.44 -4.61,0.28 -6.72,0.96 -3.52,1.12 -6.07,8.44 -7.6,11.58 -0.73,1.5 -1.13,3.71 -2.97,4.13 -16.73,4 -34.12,4.99 -50.87,8.96 -13.18,3.13 -25.54,8.19 -37.12,15.13 -5.86,3.52 -11.74,6.98 -17.28,11.01 -2.01,1.44 -5.09,3.14 -5.39,5.89 -0.27,2.56 2.75,5.12 4.43,6.69 5.39,5.09 11.84,8.96 18.24,12.61 21.03,11.96 46.37,15.16 69.44,21.4 6.83,1.83 18.98,3.14 21.14,11.14 0.68,2.53 0,4.86 -0.34,7.36 -33.9,0 -68.96,1.66 -96.64,23.81 -7.72,6.17 -14.83,13.63 -19.13,22.59 -2.34,4.9 -4.98,9.79 -6.42,15.04 -2.46,8.96 -1.02,19.3 -1.01,28.48 0,19.42 0.64,38.78 0.64,58.24 0,15.84 0.49,31.9 -1.01,47.68 -0.73,7.65 -2.17,18.88 2.43,25.28 7.87,10.98 21.17,15.26 32.82,20.74 18.25,8.54 38.24,12.7 57.92,16.25 19.72,3.55 39.52,6.59 59.52,7.49 13,0.54 25.75,-0.7 38.75,-1.28 9.7,-0.42 19.4,-0.1 29.1,-1.02 8.3,-0.77 16.4,-2.56 24.6,-3.68 17,-2.28 33.4,-5.28 49.9,-9.89 11.3,-3.14 21.9,-7.11 32.7,-11.68 4,-1.7 9.9,-3.23 12.6,-6.75 1.1,-1.51 0.8,-3.59 0.8,-5.38 0,-4 -0.3,-8.16 0.1,-12.16 1.8,-18.59 0.8,-37.06 -0.1,-55.68 -0.6,-14.59 -0.6,-29.92 0.4,-44.48 0.6,-9.18 0.2,-17.73 -0.6,-26.88 -0.4,-3.94 0,-8.03 -1.3,-11.84 -3.1,-9.31 -10.6,-16.74 -17.4,-23.36 -10.8,-10.56 -23.7,-16.32 -37.1,-22.66 -10.9,-5.15 -21.7,-9.6 -33.3,-12.99 -5.3,-1.57 -11.3,-3.45 -16.9,-3.71 0,-4.83 -0.4,-9.92 0.1,-14.72 0.5,-4.74 2,-9.22 3.3,-13.76 3.7,-12.77 8.3,-23.46 18.4,-32.58 8.8,-7.93 18.9,-12.35 29.1,-17.88 3.1,-1.7 9.6,-2.92 11.6,-5.89 2.2,-3.11 1.1,-9.44 1.5,-13.09 19,0 38.4,-0.96 57.3,-2.27 7.5,-0.51 15.5,-1.79 23.1,-1.57 2.3,0.1 4.1,2.05 6,3.1 2.9,1.54 6.5,2.76 9.6,3.72 6.1,1.82 13.8,-0.58 19.6,-2.63 10.1,-3.55 15.7,-14.78 22.3,-22.43 2.6,-2.98 4.9,-6.69 8.7,-8 -3.2,11.58 -3,23.97 -4.6,35.84 -4.4,32.8 -8,65.57 -10.5,98.56 -0.6,8.77 -3.2,17.25 -4.5,25.92 -0.4,2.82 -1.8,6.91 -0.7,9.6 2.2,5.31 10.2,8.8 15.2,10.88 -3.1,11.94 -3.8,24.38 -6.3,36.48 -3.6,18.11 -8.9,36 -14.9,53.44 -2.3,6.53 -3.9,12.83 -6.7,19.2 -2.9,-0.48 -5.9,1.73 -8.3,3.3 -4.7,3.13 -8.1,6.84 -11.4,11.42 -2.3,3.1 -4.5,7.33 -8.1,9.02 -7.1,3.43 -16.1,3.01 -23.7,1.25 -3.1,-0.7 -8.4,-5.12 -11.2,-3.01 -4,3.04 -4,8.71 -3.5,13.22 1.3,11.52 11.2,22.21 22.1,25.86 9.5,3.23 23.6,4.54 33.3,1.12 8.7,-3.11 17,-9.64 26.2,-11.2 3,-0.52 6.3,1.44 9.3,2.08 5.8,1.21 12.7,1.18 18.2,-1.38 5.5,-2.53 6.6,-6.56 7.6,-12 1.8,-9.47 1.5,-20.54 0.3,-30.08 -0.2,-2.11 -0.4,-4.35 -1.1,-6.4 -0.4,-1.18 -1.4,-2.75 -1.2,-4.03 0.6,-3.23 4.7,-7.2 6.7,-9.73 4.8,-6.21 8.8,-12.99 13.6,-19.2 3.9,-5.02 8.5,-9.66 12.8,-14.4 2.1,-2.34 4.5,-5.86 7.4,-7.26 1.9,-0.93 4.6,-0.36 6.7,-0.42 4.8,-0.22 9.6,-0.67 14.4,-0.99 15.3,-1.06 30.5,-1.19 45.5,-5.41 2.4,10.34 9.6,20.54 15.1,29.44 2,3.2 7.1,8.03 5.2,12.16 -4.5,9.6 -13.8,12.42 -21.3,18.94 -7.5,6.53 -11,15.3 -21.8,16.8 -3.7,0.55 -9.7,1.44 -13.4,0.2 -2.6,-0.87 -3.7,-4.48 -6.7,-4.16 -3.9,0.38 -3.1,5.82 -2.9,8.54 0.4,5.63 4.4,9.47 7.9,13.44 2.3,2.66 5.1,4.74 8.1,6.53 4,2.33 9.1,5.12 13.8,5.57 7.3,0.7 14.4,-2.08 21.1,-4.58 10.9,-4.13 22.8,-9.5 34.5,-10.94 5.1,-0.61 9.7,1.53 14.4,2.62 6.8,1.54 15,0.64 20.2,-4.38 1.4,-1.38 2.6,-3.49 3.3,-5.38 5.1,-13.41 1.1,-30.02 -5.5,-42.24 -2,-3.55 -6.2,-6.43 -7.5,-10.24 -2,-6.05 -3,-12.38 -4.5,-18.56 -5.6,-22.3 -8.5,-44.96 -10.7,-67.84 -3.4,-35.23 5.6,-70.02 4.7,-105.28 -0.2,-8.32 -1.4,-16.67 -2.1,-24.96 -1.8,-18.43 -4.5,-36.86 -10.7,-54.4 -3.8,-10.75 -7.9,-21.7 -12.9,-32 -1,-2.24 -2.1,-4.7 -3.6,-6.72 -0.9,-1.28 -2.5,-2.3 -3.1,-3.84 -0.7,-2.08 -0.4,-4.86 -0.6,-7.04 -0.2,-3.58 -0.7,-7.36 -1.4,-10.88 -1.8,-8.35 -4.8,-16.19 -7.3,-24.32 -2.3,-7.78 -4,-15.81 -7,-23.36 -2.3,-5.82 -4.8,-12.32 -8.2,-17.6 -7.7,-12.03 -17.9,-22.48 -27.8,-32.67 -1.7,-1.71 -2.4,-4.12 -3.8,-6.05 -3.9,-5.46 -8.6,-11.53 -13.9,-15.8 -12.6,-10.36 -29.6,-13.77 -45.1,-17.44 -7.4,-1.76 -14.7,-4.55 -22.4,-5.16 v -0.32 c 6.2,-2.3 12.1,-4.88 18.3,-7.29 2.6,-1.05 4.8,0.75 7,-2.02 2.3,-2.86 2.5,-6.88 0.5,-9.88 -1.3,-1.86 -4.6,-3.65 -6.8,-2.19 -3.2,2.14 2.5,3.65 3.2,4.52 1,1.21 0.4,3.3 -1.1,3.81 -1.5,0.53 -2.8,-0.73 -3.8,-1.62 -2.7,-2.29 -5.3,-4.57 -6.2,-8.05 -1.9,-6.96 1,-10.89 3.1,-17.28 2.2,-6.86 2.1,-14.65 -2.3,-20.48 5,-2.39 7.3,-10.06 1.9,-13.44 -1.9,-1.16 -7.5,-2.56 -7.3,1.28 0.1,3.07 5.1,1.13 5.5,4.16 0.3,2.25 -2,3.87 -4,3.42 -3.5,-0.77 -7.5,-3.41 -10.2,-5.75 -5.1,-4.42 -4.7,-11.23 -6.4,-17.19 -0.7,-2.39 -2.3,-5.24 -3.6,-7.36 -11.8,-19.34 -36,-25.89 -56.6,-17.92 -0.1,-3.09 -1.5,-5.91 -4.5,-7.19 -3.2,-1.39 -9.1,-0.19 -10,3.67 -0.5,1.64 1,3.11 2.7,2.74 1.6,-0.38 7.2,-4.9 6.9,0.46 -0.1,2.42 -3.6,3.51 -5.3,4.54 -5.2,3.12 -11.4,5.69 -15.1,10.82 h -0.3 c -3.7,-4.76 -10.9,-4.8 -16.3,-4.8 -2.7,0 -6.2,-0.6 -8.6,0.44 -12.3,5.16 -16.8,21.73 -16,34.12 0.6,8.6 3.3,16.39 0.4,24.96 -0.4,1.27 -2.2,3.79 -3.7,2.44 -0.9,-0.78 -2,-2.85 -1.5,-4.01 0.5,-1.19 2.3,-2.24 1,-3.66 -1.9,-2.18 -4.6,0.52 -5.4,2.35 -2.1,5.32 2.8,11.91 8.5,10.56 -0.4,9.17 -0.1,18.7 5.2,26.56 2.4,3.48 9.6,5.8 10.5,9.92 1.2,5.07 -9.3,-0.82 -6.6,4.8 2,4.27 6.9,1.41 9.5,-0.32 1.4,11.41 11.1,20.64 21.1,25.6 v 0.32 l -18.2,-0.31 -4.8,0.99 -10,-4.42 -6.5,2.35 -9.8,-0.8 -4.9,1.98 -2.3,3.05 -2.7,0.22 -3.5,2.38 c -0.9,-10.24 -6.2,-22.5 -12.2,-30.72 -6.6,-9.05 -15.4,-17.39 -20.5,-27.52 -3,-6.01 -0.9,-11.51 -0.6,-17.6 0.2,-4.77 -2.6,-8.63 -2.6,-13.12 -0.1,-4.77 2.6,-9.71 2.6,-14.72 0,-2.77 -0.6,-5.33 -2.1,-7.68 -0.8,-1.11 -2.9,-2.77 -2.7,-4.16 0.2,-1.82 2.8,-4 3.8,-5.44 3.6,-4.78 7.3,-9.43 11,-14.08 9,-11.19 17.8,-22.54 26.4,-33.95 4.3,-5.6 9.8,-11.09 12.9,-17.59 3.6,1.6 6.8,4.1 10.2,6.1 8,4.7 15.8,9.49 23.7,14.19 3.6,2.17 9.8,7.25 14.1,7.01 2.7,-0.16 5.6,-3.7 7.7,-5.41 2.7,-2.3 6.6,-5.1 8.3,-8.5 0.8,-1.7 0.2,-4.19 0.1,-5.99 -0.5,-4.7 0.1,-11.9 -2.6,-16 -2.2,-3.4 -7.8,-5.6 -11.2,-7.5 -8.6,-4.9 -17.2,-11.1 -26.3,-15 1.3,-1.9 2.9,-3.7 4,-5.7 3.3,-6.2 -3.4,-13.9 -10,-10.7 -3.3,1.6 -4,6.7 -7.1,8.1 -1.5,0.7 -4.2,-1.5 -5.4,-2.2 -8.3,-4.6 -16.6,-9.3 -24.7,-14.2 -2.1,-1.2 -6.9,-5.2 -9.3,-4.6 -2.6,0.7 -6.2,5.1 -8.3,6.9 -2.3,2.1 -7.8,5.6 -8.7,8.7 -0.7,2.5 1.7,7.7 2.5,10.2 0.9,3 1.1,7 3,9.6 1.8,2.3 5.5,3.9 8,5.4 6.1,3.7 12.8,9.2 19.5,11.6 z"
       id="path1081"
       style="fill:#ffff00" />
    <path
       style="fill:#808080"
       d="m 567.12,-1018.8 -34,43.51 -20,26.24 h -0.4 c -1.5,-2.17 -3.5,-3.95 -5.2,-6.08 -0.9,-1.26 -1.8,-3.08 -3.4,-3.64 -1.1,-0.4 -2.1,0.18 -3.2,0.12 -1.1,-0.1 -2,-0.74 -3.2,-0.51 -4.6,0.9 -9.5,6.2 -12.1,9.79 -8.5,11.62 -16.8,30.09 -3.9,41.28 v 0.32 c -3.8,3.3 -6.6,8.37 -9.4,12.48 -1.2,1.79 -3.1,3.59 -3.6,5.76 -1,4.23 2.6,8.99 6.9,9.15 2.4,0.1 3.8,-2.14 5.2,-3.71 3.8,-4.42 9.2,-9.48 11.8,-14.72 h 0.3 c 0,7.15 1.5,14.25 4.4,20.8 3.3,7.29 8,14.2 9.8,22.08 2,8.83 1.5,17.72 2.9,26.56 2.5,16.08 7.6,32.12 14.7,46.72 2.5,5.4 5,10.69 8.4,15.68 1.3,1.89 2.6,4.45 4.6,5.63 2.3,1.28 5.5,0.71 8,0.77 6.9,0.16 13.3,-0.74 20.2,-1.28 -1.1,5.6 -1.3,12.29 5.4,14.11 2.4,0.64 5.2,-0.35 7.3,0.23 1.1,0.28 2,1.63 2.9,2.27 2.1,1.34 4.4,1.82 6.8,1.57 3,-0.29 5.5,-2.53 8.3,-2.82 3.8,-0.42 7.2,1.73 11.2,0.42 2.4,-0.77 3.4,-3.68 5.6,-4.42 1.7,-0.58 3.6,0.93 5.6,0 2.7,-1.28 3.2,-5.31 5.8,-6.34 3.4,-1.37 8.5,-0.19 12.1,-0.19 6.2,0 12.4,-1.54 18.6,-1.6 0.6,7.26 5.3,15.94 8.5,22.4 8.7,17.41 19.9,34.3 32.7,48.96 -4.6,0.19 -9.4,0.83 -14,0.64 -5.2,-0.22 -11.6,-1.41 -16.4,1.18 -4.1,2.28 -9,6.34 -11.9,10.02 -3,3.74 -5.5,8.74 -10.5,9.22 -22.6,2.2 -45.2,5.53 -67.8,8.8 -7.3,1.02 -14.5,2.14 -21.8,3.13 -1.8,0.26 -4.9,1.83 -6.5,1.67 -2.1,-0.16 -4.1,-4.16 -5.3,-5.54 -3.6,-3.94 -7.7,-7.94 -12.2,-10.72 -1.5,-0.96 -3.2,-2.34 -5.1,-2.27 -8.8,0.32 -17.9,3.23 -26.5,4.8 -17.4,3.13 -34.8,6.01 -52.2,9.28 -12.45,2.33 -25.01,2.94 -37.43,5.57 -2.18,0.44 -4.61,0.28 -6.72,0.96 -3.52,1.12 -6.07,8.44 -7.6,11.58 -0.73,1.5 -1.13,3.71 -2.97,4.13 -16.73,4 -34.12,4.99 -50.87,8.96 -13.18,3.13 -25.54,8.19 -37.12,15.13 -5.86,3.52 -11.74,6.98 -17.28,11.01 -2.01,1.44 -5.09,3.14 -5.39,5.89 -0.27,2.56 2.75,5.12 4.43,6.69 5.39,5.09 11.84,8.96 18.24,12.61 21.03,11.96 46.37,15.16 69.44,21.4 6.83,1.83 18.98,3.14 21.14,11.14 0.68,2.53 0,4.86 -0.34,7.36 -33.9,0 -68.96,1.66 -96.64,23.81 -7.72,6.17 -14.83,13.63 -19.13,22.59 -2.34,4.9 -4.98,9.79 -6.42,15.04 -2.46,8.96 -1.02,19.3 -1.01,28.48 0,19.42 0.64,38.78 0.64,58.24 0,15.84 0.49,31.9 -1.01,47.68 -0.73,7.65 -2.17,18.88 2.43,25.28 7.87,10.98 21.17,15.26 32.82,20.74 18.25,8.54 38.24,12.7 57.92,16.25 19.72,3.55 39.52,6.59 59.52,7.49 13,0.54 25.75,-0.7 38.75,-1.28 9.7,-0.42 19.4,-0.1 29.1,-1.02 8.3,-0.77 16.4,-2.56 24.6,-3.68 17,-2.28 33.4,-5.28 49.9,-9.89 11.3,-3.14 21.9,-7.11 32.7,-11.68 4,-1.7 9.9,-3.23 12.6,-6.75 1.1,-1.51 0.8,-3.59 0.8,-5.38 0,-4 -0.3,-8.16 0.1,-12.16 1.8,-18.59 0.8,-37.06 -0.1,-55.68 -0.6,-14.59 -0.6,-29.92 0.4,-44.48 0.6,-9.18 0.2,-17.73 -0.6,-26.88 -0.4,-3.94 0,-8.03 -1.3,-11.84 -3.1,-9.31 -10.6,-16.74 -17.4,-23.36 -10.8,-10.56 -23.7,-16.32 -37.1,-22.66 -10.9,-5.15 -21.7,-9.6 -33.3,-12.99 -5.3,-1.57 -11.3,-3.45 -16.9,-3.71 0,-4.83 -0.4,-9.92 0.1,-14.72 0.5,-4.74 2,-9.22 3.3,-13.76 3.7,-12.77 8.3,-23.46 18.4,-32.58 8.8,-7.93 18.9,-12.35 29.1,-17.88 3.1,-1.7 9.6,-2.92 11.6,-5.89 2.2,-3.11 1.1,-9.44 1.5,-13.09 19,0 38.4,-0.96 57.3,-2.27 7.5,-0.51 15.5,-1.79 23.1,-1.57 2.3,0.1 4.1,2.05 6,3.1 2.9,1.54 6.5,2.76 9.6,3.72 6.1,1.82 13.8,-0.58 19.6,-2.63 10.1,-3.55 15.7,-14.78 22.3,-22.43 2.6,-2.98 4.9,-6.69 8.7,-8 -3.2,11.58 -3,23.97 -4.6,35.84 -4.4,32.8 -8,65.57 -10.5,98.56 -0.6,8.77 -3.2,17.25 -4.5,25.92 -0.4,2.82 -1.8,6.91 -0.7,9.6 2.2,5.31 10.2,8.8 15.2,10.88 -3.1,11.94 -3.8,24.38 -6.3,36.48 -3.6,18.11 -8.9,36 -14.9,53.44 -2.3,6.53 -3.9,12.83 -6.7,19.2 -2.9,-0.48 -5.9,1.73 -8.3,3.3 -4.7,3.13 -8.1,6.84 -11.4,11.42 -2.3,3.1 -4.5,7.33 -8.1,9.02 -7.1,3.43 -16.1,3.01 -23.7,1.25 -3.1,-0.7 -8.4,-5.12 -11.2,-3.01 -4,3.04 -4,8.71 -3.5,13.22 1.3,11.52 11.2,22.21 22.1,25.86 9.5,3.23 23.6,4.54 33.3,1.12 8.7,-3.11 17,-9.64 26.2,-11.2 3,-0.52 6.3,1.44 9.3,2.08 5.8,1.21 12.7,1.18 18.2,-1.38 5.5,-2.53 6.6,-6.56 7.6,-12 1.8,-9.47 1.5,-20.54 0.3,-30.08 -0.2,-2.11 -0.4,-4.35 -1.1,-6.4 -0.4,-1.18 -1.4,-2.75 -1.2,-4.03 0.6,-3.23 4.7,-7.2 6.7,-9.73 4.8,-6.21 8.8,-12.99 13.6,-19.2 3.9,-5.02 8.5,-9.66 12.8,-14.4 2.1,-2.34 4.5,-5.86 7.4,-7.26 1.9,-0.93 4.6,-0.36 6.7,-0.42 4.8,-0.22 9.6,-0.67 14.4,-0.99 15.3,-1.06 30.5,-1.19 45.5,-5.41 2.4,10.34 9.6,20.54 15.1,29.44 2,3.2 7.1,8.03 5.2,12.16 -4.5,9.6 -13.8,12.42 -21.3,18.94 -7.5,6.53 -11,15.3 -21.8,16.8 -3.7,0.55 -9.7,1.44 -13.4,0.2 -2.6,-0.87 -3.7,-4.48 -6.7,-4.16 -3.9,0.38 -3.1,5.82 -2.9,8.54 0.4,5.63 4.4,9.47 7.9,13.44 2.3,2.66 5.1,4.74 8.1,6.53 4,2.33 9.1,5.12 13.8,5.57 7.3,0.7 14.4,-2.08 21.1,-4.58 10.9,-4.13 22.8,-9.5 34.5,-10.94 5.1,-0.61 9.7,1.53 14.4,2.62 6.8,1.54 15,0.64 20.2,-4.38 1.4,-1.38 2.6,-3.49 3.3,-5.38 5.1,-13.41 1.1,-30.02 -5.5,-42.24 -2,-3.55 -6.2,-6.43 -7.5,-10.24 -2,-6.05 -3,-12.38 -4.5,-18.56 -5.6,-22.3 -8.5,-44.96 -10.7,-67.84 -3.4,-35.23 5.6,-70.02 4.7,-105.28 -0.2,-8.32 -1.4,-16.67 -2.1,-24.96 -1.8,-18.43 -4.5,-36.86 -10.7,-54.4 -3.8,-10.75 -7.9,-21.7 -12.9,-32 -1,-2.24 -2.1,-4.7 -3.6,-6.72 -0.9,-1.28 -2.5,-2.3 -3.1,-3.84 -0.7,-2.08 -0.4,-4.86 -0.6,-7.04 -0.2,-3.58 -0.7,-7.36 -1.4,-10.88 -1.8,-8.35 -4.8,-16.19 -7.3,-24.32 -2.3,-7.78 -4,-15.81 -7,-23.36 -2.3,-5.82 -4.8,-12.32 -8.2,-17.6 -7.7,-12.03 -17.9,-22.48 -27.8,-32.67 -1.7,-1.71 -2.4,-4.12 -3.8,-6.05 -3.9,-5.46 -8.6,-11.53 -13.9,-15.8 -12.6,-10.36 -29.6,-13.77 -45.1,-17.44 -7.4,-1.76 -14.7,-4.55 -22.4,-5.16 v -0.32 c 6.2,-2.3 12.1,-4.88 18.3,-7.29 2.6,-1.05 4.8,0.75 7,-2.02 2.3,-2.86 2.5,-6.88 0.5,-9.88 -1.3,-1.86 -4.6,-3.65 -6.8,-2.19 -3.2,2.14 2.5,3.65 3.2,4.52 1,1.21 0.4,3.3 -1.1,3.81 -1.5,0.53 -2.8,-0.73 -3.8,-1.62 -2.7,-2.29 -5.3,-4.57 -6.2,-8.05 -1.9,-6.96 1,-10.89 3.1,-17.28 2.2,-6.86 2.1,-14.65 -2.3,-20.48 5,-2.39 7.3,-10.06 1.9,-13.44 -1.9,-1.16 -7.5,-2.56 -7.3,1.28 0.1,3.07 5.1,1.13 5.5,4.16 0.3,2.25 -2,3.87 -4,3.42 -3.5,-0.77 -7.5,-3.41 -10.2,-5.75 -5.1,-4.42 -4.7,-11.23 -6.4,-17.19 -0.7,-2.39 -2.3,-5.24 -3.6,-7.36 -11.8,-19.34 -36,-25.89 -56.6,-17.92 -0.1,-3.09 -1.5,-5.91 -4.5,-7.19 -3.2,-1.39 -9.1,-0.19 -10,3.67 -0.5,1.64 1,3.11 2.7,2.74 1.6,-0.38 7.2,-4.9 6.9,0.46 -0.1,2.42 -3.6,3.51 -5.3,4.54 -5.2,3.12 -11.4,5.69 -15.1,10.82 h -0.3 c -3.7,-4.76 -10.9,-4.8 -16.3,-4.8 -2.7,0 -6.2,-0.6 -8.6,0.44 -12.3,5.16 -16.8,21.73 -16,34.12 0.6,8.6 3.3,16.39 0.4,24.96 -0.4,1.27 -2.2,3.79 -3.7,2.44 -0.9,-0.78 -2,-2.85 -1.5,-4.01 0.5,-1.19 2.3,-2.24 1,-3.66 -1.9,-2.18 -4.6,0.52 -5.4,2.35 -2.1,5.32 2.8,11.91 8.5,10.56 -0.4,9.17 -0.1,18.7 5.2,26.56 2.4,3.48 9.6,5.8 10.5,9.92 1.2,5.07 -9.3,-0.82 -6.6,4.8 2,4.27 6.9,1.41 9.5,-0.32 1.4,11.41 11.1,20.64 21.1,25.6 v 0.32 l -18.2,-0.31 -4.8,0.99 -10,-4.42 -6.5,2.35 -9.8,-0.8 -4.9,1.98 -2.3,3.05 -2.7,0.22 -3.5,2.38 c -0.9,-10.24 -6.2,-22.5 -12.2,-30.72 -6.6,-9.05 -15.4,-17.39 -20.5,-27.52 -3,-6.01 -0.9,-11.51 -0.6,-17.6 0.2,-4.77 -2.6,-8.63 -2.6,-13.12 -0.1,-4.77 2.6,-9.71 2.6,-14.72 0,-2.77 -0.6,-5.33 -2.1,-7.68 -0.8,-1.11 -2.9,-2.77 -2.7,-4.16 0.2,-1.82 2.8,-4 3.8,-5.44 3.6,-4.78 7.3,-9.43 11,-14.08 9,-11.19 17.8,-22.54 26.4,-33.95 4.3,-5.6 9.8,-11.09 12.9,-17.59 3.6,1.6 6.8,4.1 10.2,6.1 8,4.7 15.8,9.49 23.7,14.19 3.6,2.17 9.8,7.25 14.1,7.01 2.7,-0.16 5.6,-3.7 7.7,-5.41 2.7,-2.3 6.6,-5.1 8.3,-8.5 0.8,-1.7 0.2,-4.19 0.1,-5.99 -0.5,-4.7 0.1,-11.9 -2.6,-16 -2.2,-3.4 -7.8,-5.6 -11.2,-7.5 -8.6,-4.9 -17.2,-11.1 -26.3,-15 1.3,-1.9 2.9,-3.7 4,-5.7 3.3,-6.2 -3.4,-13.9 -10,-10.7 -3.3,1.6 -4,6.7 -7.1,8.1 -1.5,0.7 -4.2,-1.5 -5.4,-2.2 -8.3,-4.6 -16.6,-9.3 -24.7,-14.2 -2.1,-1.2 -6.9,-5.2 -9.3,-4.6 -2.6,0.7 -6.2,5.1 -8.3,6.9 -2.3,2.1 -7.8,5.6 -8.7,8.7 -0.7,2.5 1.7,7.7 2.5,10.2 0.9,3 1.1,7 3,9.6 1.8,2.3 5.5,3.9 8,5.4 6.1,3.7 12.8,9.2 19.5,11.6 m 69.5,0 -11.5,12.2 h -0.4 c -12.2,-8.8 -26.6,-15.5 -39.6,-23.1 -15.5,-8.8 -30.8,-18.7 -46.8,-26.6 l 10,-7.8 4.1,-3 6.1,3.3 17,9.5 41.2,24.2 19.9,11.3 m -36.5,-25.3 -6.1,-3.2 c 0.8,-2.2 3.5,-6.6 5.8,-7.5 2,-0.8 5.5,1.4 5.2,3.7 -0.4,2.3 -3.5,5.1 -4.9,7 m -61.8,-8 22.1,12.8 35.9,20.7 18.8,10.8 7.5,4.6 0.5,4.29 0.7,10.53 -41.9,-25.32 c 0.5,-1.7 2.1,-2.9 2.1,-4.8 0.3,-4.4 -5.4,-8.2 -9.5,-7.1 -2.1,0.6 -4.5,4.5 -6.4,3.9 -3.7,-1.2 -7.5,-4.4 -10.9,-6.4 -3.4,-2 -6.8,-4.1 -10.2,-6.1 -1.5,-0.8 -3.8,-1.6 -4.8,-3 -1.7,-2.2 -1.9,-6.5 -2.6,-9.1 -0.4,-1.8 -1.5,-4 -1.3,-5.8 m -21.4,106.6 c 1.1,-3.37 4.5,-6.45 6.6,-9.28 5.1,-6.77 10.4,-13.35 15.5,-20.16 5,-6.81 10.4,-13.39 15.5,-20.17 5.8,-7.79 11.1,-16.69 17.5,-23.99 2,-2.3 7.4,-3.5 7.8,1 0.1,1.8 -1.6,3.6 -2.7,4.9 -2.9,3.3 -5.7,6.6 -8.5,10.1 -11,13.79 -21.8,27.92 -32.6,41.92 -3.6,4.59 -7,9.23 -10.7,13.76 -0.9,1.14 -2.5,4.24 -4,4.52 -1.4,0.26 -3.3,-1.86 -4.4,-2.6 m 122.6,-70.7 0.6,13.1 0.2,4.99 -3.4,2.8 -8.6,6.93 c -0.5,-3.83 -2.5,-10.33 -1.5,-14.02 0.3,-1.4 2.2,-2.8 3.2,-3.9 2.8,-3.3 6,-7.3 9.5,-9.9 m 92.1,106.54 h -0.3 c -2,-5.4 -7.3,-9.18 -12.5,-11.18 -3.6,-1.36 -7.8,-2.1 -10.4,-5.23 -3.2,-3.91 -1.1,-9.7 -1.8,-14.31 -1.3,-7.36 -6.9,-14.28 -13.1,-18.17 -6.4,-4.05 -13.4,-7.39 -21.1,-7.77 -1.3,-0.1 -7.3,-1.29 -7.3,1 0,2.31 7,2.61 8.6,2.92 8.5,1.63 18.2,5.41 23.8,12.42 2.6,3.3 4.8,7.26 5.3,11.52 0.5,5.33 -1.3,10.02 2.4,14.72 6.3,8.03 19.1,5.84 23,16.64 1.9,5.28 -0.7,8.66 -1.2,13.76 -0.5,4.7 1.1,9.42 2.7,13.76 -3.5,-2.55 -7.2,-8.3 -6.7,-12.8 0.6,-5.26 3.7,-9.64 1.3,-15.04 -4,-8.76 -16,-8.16 -21.6,-15.13 -3.6,-4.43 -2.8,-9.83 -3.9,-14.95 -0.9,-4.18 -3.5,-7.96 -6.5,-10.87 -7.1,-6.77 -20.6,-12.29 -30.4,-12.49 -3.9,-0.1 -8.4,1.09 -12.2,2 -5.4,1.27 -10.2,3.76 -14.7,6.97 -1.3,0.93 -4.1,3.2 -2.7,5.03 1.2,1.56 3.1,0.21 4.3,-0.54 3.9,-2.46 7.9,-4.81 12.5,-6.05 3.7,-1.03 8.6,-2.32 12.4,-2.21 7.9,0.22 18.4,4.28 24.7,8.86 3.1,2.32 6,5.51 7.3,9.3 1.9,5.79 1.1,11.33 4.4,16.96 3.1,5.24 11,7.63 16.1,10.31 2.1,1.12 4.4,1.96 5.8,4.09 3.2,5.14 -1.9,10.45 -1.2,15.68 0.7,5.64 5,11.62 9.2,15.25 1.9,1.62 4.2,2.6 6.1,4.27 -5.3,3.08 -11.4,4.53 -17.3,5.64 -1.9,0.34 -6,0.71 -6.3,-2.12 -0.2,-2.36 2.9,-4.78 3.9,-6.72 3.2,-6.21 3.4,-11.51 -0.8,-17.28 -6.1,-8.42 -18.9,-4.93 -22.3,-16.32 -1.7,-5.82 0.6,-10.31 1.1,-16 0.5,-5.73 -2,-12.46 -6.3,-16.21 -10,-8.54 -27.4,-9.52 -39.7,-7.75 -3.6,0.52 -7.1,1.72 -10.3,3.41 -1,0.56 -2.7,1.36 -3,2.63 -0.3,1.5 1.4,1.7 2.4,1.46 3.1,-0.73 5.9,-2.27 9,-2.86 9.5,-1.84 20.2,-1.01 29.4,2.04 3.5,1.15 7.1,2.35 9.8,4.95 6.6,6.34 2.8,13.8 2.1,21.29 -0.4,4.09 0.9,9 3,12.48 2.1,3.33 5.1,6.41 8.8,7.94 6,2.51 13.6,2.17 15.2,10.3 1.5,7.75 -9.8,12.2 -7.2,20.16 l -6.4,-0.64 c 2.8,-6.67 4.3,-13.18 -3.2,-17.59 -3.5,-2.05 -8.4,-2.23 -10.4,-6.41 -1.1,-2.38 -0.2,-5.24 0.2,-7.68 0.5,-2.76 0.4,-5.85 0.2,-8.64 -0.7,-10.18 -9.1,-19.4 -17.5,-24.19 -8.8,-4.95 -19.1,-7.49 -29.2,-7.49 -2,0 -8.7,-0.82 -9.5,1.94 -0.7,2.71 6.5,2.45 7.9,2.68 9.3,1.44 18.4,2.08 26.9,6.34 6.8,3.39 15.6,10.78 15.9,19.12 0.3,6.76 -2.9,12.29 0.4,18.88 3.1,6.15 16.8,8.23 14.9,16.32 -0.4,1.82 -1.8,3.78 -2.7,5.44 -7.7,-1.78 -17.9,-6.88 -20.2,-15.04 -1.1,-4.29 0.9,-10.29 1,-14.72 0.2,-7.88 -5.1,-17.09 -11.5,-21.56 -3.5,-2.43 -7.6,-4.04 -11.9,-4.33 -3.6,-0.25 -7.3,0.41 -10.8,-0.5 -4,-1.04 -6.3,-5 -10,-6.2 -1.2,-0.41 -1.8,0.84 -1.4,1.87 3.8,10.19 16.4,8.16 24.5,9.68 3.4,0.64 8.3,2.74 9.9,6 -10.2,0 -20.7,-0.1 -30.4,-3.89 -3.5,-1.36 -5.3,-6.35 -9,-7.07 -2.3,-0.46 -3,2.9 -3.5,4.56 h -0.3 c 0,-3 -1.1,-7.07 0,-9.92 0.2,-0.69 2.2,-2.62 1.1,-3.23 -1.7,-1.02 -4,1.85 -4.4,3.23 -0.8,2.7 0.3,5.61 0,8.32 -0.3,3.34 -2.6,7.47 -4.4,10.24 h -0.3 c 1.4,-3.54 2.9,-7.31 2.5,-11.2 -0.5,-4.74 -2.8,-9.99 -1.5,-14.72 0.5,-1.73 1.6,-3.43 3.5,-3.77 1.1,-0.2 5,1.23 4.8,-1.04 -0.5,-4.53 -7.4,-3.42 -9.6,-1.44 -7.3,6.6 -1.1,16.16 -2.1,24.17 -0.9,7.73 -6.3,12.54 -8.7,19.52 -3.1,9.28 -1.7,18.64 -0.1,27.84 -3.4,-1.08 -8.2,-6.83 -7.9,-10.56 1,-12.65 9.5,-22.28 11.3,-34.56 1.4,-9.95 -4.1,-20.48 1.1,-29.76 2.9,-5.09 7.9,-5.99 13.4,-5.75 1.2,0 5.9,2.05 6,0 0.1,-1.97 -2.9,-3.37 -4.4,-3.9 -4.9,-1.73 -11.3,-0.62 -15.4,2.6 -8.8,6.93 -6.8,18.03 -5.6,27.58 0.7,4.91 0.7,9.9 -0.7,14.72 -1.6,5.76 -4.8,10.97 -6.5,16.64 -1.7,-5.49 3.3,-12.7 3.8,-18.24 0.7,-6.62 -1,-12.75 -1.5,-19.2 -0.3,-4.11 0.6,-8.44 1.2,-12.48 1,-5.84 3.7,-12.1 9.3,-14.83 4.8,-2.29 12.8,-1.7 17.6,0 2.6,0.9 6.4,4.23 9,3.19 6.2,-2.48 11.7,-7.42 17.6,-10.52 12.4,-6.42 27.4,-8.43 40.3,-2.67 5.6,2.46 8.5,6.2 12.6,10.33 2.9,2.92 6.1,5.39 7.7,9.37 2.1,5.08 1.4,10.8 4.4,15.68 5.5,8.87 18.2,9.68 18.2,21.76 m -232.6,-46.07 c -1.7,5.15 -3,9.68 -0.7,14.72 -3.7,-1.3 -2.8,1.64 -0.9,3.52 2.2,2.25 4.2,4.83 6.7,6.78 1.5,1.15 3.9,1.98 4.7,3.83 0.8,1.7 -0.8,4.99 -0.6,6.99 -4.8,-3.04 -8.6,-7.96 -13.1,-11.58 -1.1,-0.89 -3.5,-3.71 -5,-3.49 -2.5,0.37 1.6,4.33 2.1,4.83 4.3,4.26 8.6,9.37 13.5,12.8 l -4.2,5.76 h -0.6 c -4,-4.84 -9.6,-8.41 -13.8,-13.13 -0.7,-0.82 -3.6,-4.64 -4.7,-2.16 -0.6,1.55 1.8,4.22 2.7,5.37 3.4,4.79 8.9,7.84 12.3,12.48 -1.5,0.68 -3.2,2.44 -4.8,2.29 -4.7,-0.4 -7.8,-5.34 -10.6,-8.36 -1.2,-1.17 -2.8,-1.98 -3.5,-3.53 -0.5,-1.15 -0.1,-2.65 0,-3.84 1,-7.97 6.2,-17.99 11,-24.32 2.5,-3.33 5.8,-5.81 8.2,-9.28 l 1.2,0.32 m 4.5,0.64 c 3,5.23 8.3,10.99 12.8,14.95 3.5,3.02 7.7,4.56 9.8,9.05 1.3,2.78 -0.4,7.55 -0.5,10.56 0,1.64 0.4,3.52 0.1,5.12 -0.2,1.34 -1,2.42 -0.9,3.84 0.2,3.78 1.8,6.91 1.4,10.88 -0.5,4.64 -3.1,8.31 -2.1,13.12 0.5,2.17 1.8,3.74 2.6,5.76 3.3,8.49 8.2,16.29 13.5,23.68 4.3,5.94 8.7,11.34 11.5,18.24 3.6,9.09 7.3,20.19 6,30.08 -0.3,2.87 -0.5,5.77 -0.8,8.64 -0.2,1.23 -0.5,2.78 0.8,3.57 1.3,0.83 2.7,-0.63 3.5,-1.65 1.9,-2.74 2.7,-6.34 3.1,-9.6 h 0.3 c 3.4,5.75 4.7,11.6 6.4,17.92 2,7.45 4.2,16.26 -0.1,23.33 -1.4,2.43 -5.5,1.47 -7.9,1.69 -6.1,0.58 -12.5,1.16 -18.5,-0.35 -2.4,-0.57 -4.8,-0.86 -6.3,-2.91 -7.4,-10 -11.9,-22.23 -15.7,-33.92 -3.1,-9.46 -6.2,-18.67 -7.9,-28.48 -1.6,-8.5 -0.4,-17.02 -2.3,-25.6 -1.3,-5.76 -4.7,-11.02 -7.2,-16.32 -2.9,-6.05 -5.2,-12.02 -6.8,-18.56 -0.7,-3.15 -0.2,-7 -3.1,-8.96 l 5.7,-2.88 c 0.2,0.94 0.8,3.18 2.2,2.54 2,-0.91 1.7,-6.11 2.3,-7.98 1.7,-6.17 9.6,-9.56 5.5,-16.64 4.4,-0.9 -1.1,-4.62 -2.1,-6.4 -0.7,-1.08 -0.7,-3.19 -1.9,-3.85 -0.8,-0.46 -1.3,0.12 -1.8,0.65 h -0.3 c 0.4,-2.92 -2.6,-4.57 -3.8,-7.04 -1.5,-3.31 -0.1,-9.88 2.5,-12.48 m 115.8,38.4 -0.3,0.32 0.3,-0.32 m 4.2,1.92 c 6.5,5.68 13.6,9.34 22.4,10.19 3.7,0.35 7.5,0.68 11.2,0.69 2.3,0 5,-0.41 7,0.77 4.5,2.6 2.9,9.17 2.9,13.31 0,1.95 0.4,4.27 -1.3,5.66 -4.1,3.36 -1.7,-5.17 -1.9,-5.62 -1.5,-3.12 -5,0.2 -5.5,2.2 -0.8,3.36 1.9,8.12 5.5,8.51 1.5,0.15 2.8,-0.67 4.2,-1.15 2.9,14.12 22.7,21.42 35.5,22.01 3.6,0.17 7.9,-2.06 11.5,-1.29 3.1,0.65 7.3,2.92 10.3,4.24 -9.4,10.78 -11.3,25.9 -14.3,39.36 -0.8,3.49 -1.4,7 -1.7,10.56 -0.1,1.39 0.3,3.16 -0.7,4.36 -1.5,1.98 -5.1,3.03 -7.3,4.03 -8.7,3.98 -19.1,4.99 -28.5,3.86 -2.8,-0.33 -8.3,-0.39 -10.4,-2.55 -1.1,-1.23 -1.3,-4.25 -1.6,-5.86 -0.8,-4.84 -1.8,-9.6 -2.7,-14.4 6.9,-1.62 11.5,-5.4 15.3,-11.52 1.2,-1.9 1.8,-4.57 3.2,-6.27 1.4,-1.77 4.8,-2.82 6.7,-4.26 1,-0.73 8,-6.59 3.8,-7.44 -1.2,-0.26 -2.3,1.21 -3.1,1.96 -1.8,1.67 -3.8,3.53 -6.1,4.49 0.1,-1.1 1.1,-5.93 -1.3,-5.56 -1.3,0.21 -1.8,2.61 -2.1,3.64 -1.1,3.37 -2.1,7.32 -4.2,10.24 -1.8,2.48 -4,5.67 -6.5,7.42 -2.1,1.47 -5.2,1.88 -7.7,2.46 -5.6,1.35 -10.3,3 -15.6,-0.64 -1.7,-1.12 -2.3,-2.91 -3.4,-4.44 -1.2,-1.51 -2.7,-2.69 -3.4,-4.48 3.2,-1.97 6.6,-3.72 10,-5.36 2.4,-1.19 5,-1.95 7.6,-2.73 2.3,-0.67 5.8,-0.95 7.7,-2.38 1.7,-1.34 0.9,-3.81 -1.3,-4.03 -1.9,-0.19 -4.3,0.88 -6,1.49 -4.9,1.67 -9.4,3.7 -13.8,6.35 -1.7,1.04 -5.4,5.1 -7.4,4.07 -11.2,-6 -19.5,-15.31 -21.8,-27.81 -0.4,-2.55 -3.4,-3.66 -3.7,-6.4 -0.6,-7.1 9.6,-7.64 14.3,-6.72 0.9,6.16 2.6,12.33 3.5,18.56 0.3,2.63 0.5,6.52 2.4,8.58 3.7,4.06 10.2,2.69 13,-1.54 0.7,-1.06 1.8,-2.81 1.5,-4.15 -0.2,-1.29 -1.4,-1.56 -2.4,-0.83 -2.1,1.65 -6.5,7.35 -9.6,3.16 -1.1,-1.41 -0.3,-4.81 -0.4,-6.5 -0.8,-8.23 0.1,-21.88 -11.2,-22.39 -2,-0.1 -3.8,0.23 -5.7,0.76 -2.8,0.79 -4.9,1.96 -7.4,3.39 l 1,-15.36 1,-5.09 9.5,-5.82 6.7,-8.61 2.3,-5.12 m -133.8,12.8 c -0.5,1.96 -2,3.48 -3.2,5.12 -2.7,3.95 -5.7,9.57 -9.5,12.61 -2.2,1.79 -5.2,-1.84 -5.1,-3.97 0.1,-1.92 2.5,-3.47 3.7,-4.8 3.1,-3.6 6.2,-7.34 9,-11.2 l 5.1,2.24 m 154,13.59 c -3.7,0.65 -7.6,2.3 -10.1,5.11 -0.8,0.81 -3.2,5.02 -0.5,5.02 1.7,0 3.3,-2.4 4.5,-3.32 2.6,-1.96 6.2,-3.42 9.6,-3.07 1.9,0.21 5.3,2.93 7,1.67 1.6,-1.31 0.1,-3.14 -1.3,-3.97 -2.5,-1.63 -6.4,-1.95 -9.2,-1.44 m -5.8,12.54 c -2.2,0.68 -3.9,3.59 -1.9,5.39 1.4,1.14 3.6,0.87 5.1,0.33 1.5,-0.53 4,-3.12 2.6,-4.81 -1.1,-1.39 -4.3,-1.39 -5.8,-0.91 m -25,7.96 c -4.6,1 -3.7,6.26 1,5.1 3.6,-0.89 3.1,-5.98 -1,-5.1 m 127.7,17.75 c -11.6,20.81 -14.8,42.74 -12.5,66.24 1,10.34 2.8,21.09 6.9,30.72 0.6,1.5 1.8,2.69 2.5,4.16 1.4,3.2 -0.8,4.93 -1.4,8 -1.3,6.46 1.8,11.74 8,13.76 -1.1,6.66 -2.3,11.33 4.5,15.36 v 0.32 l -10.9,6.72 -8,6.72 -0.7,-25.6 -2.2,-11.2 h -0.3 c -0.7,9.22 -0.9,18.62 -0.6,27.84 0.1,3.1 1.6,8.99 0,11.78 -1.5,2.56 -6.9,4.22 -9.6,4.86 -2.4,-3.55 -3.1,-7.62 -4.7,-11.52 -0.4,-0.9 -1.1,-3.36 -2.2,-3.58 -1.4,-0.26 -0.6,3.36 -0.4,3.9 1,4.32 2.6,8.1 4.4,12.16 -3.1,0.1 -6.2,0.64 -9.3,1.09 -1,0.16 -2.7,0.73 -3.7,0.16 -1,-0.67 -1.7,-2.79 -2.5,-3.81 -3,-3.94 -5.4,-8.06 -8.1,-12.16 -9.9,-14.91 -18.6,-29.6 -25.6,-46.08 -2.9,-6.88 -5.5,-13.89 -8.4,-20.8 -0.7,-1.6 -1.8,-6.47 -3.8,-6.75 -1.6,-0.21 -1.9,2.49 -1.9,3.55 0.3,3.9 2.1,7.87 3.5,11.52 h -20.2 c -3.9,0 -7.8,-0.45 -11.5,0.96 0,-4.26 -0.5,-8.67 -1.6,-12.8 -0.3,-0.96 -2.4,-5.04 -3.2,-2.21 -0.4,1.25 0.4,2.88 0.5,4.13 0.4,2.75 0.4,5.63 1.1,8.32 0.6,2.62 2.1,3.9 0.1,6.4 -0.7,0.93 -2,2.3 -3.3,2.34 -1.5,0 -2.6,-1.35 -4.1,-0.58 -2.4,1.15 -2.5,4.64 -5.2,5.7 -3.5,1.31 -6.7,-1.06 -9.9,-1.28 -3.3,-0.23 -6,3.1 -9.6,2.75 -2.7,-0.26 -3.7,-2.95 -6.1,-3.78 -2.9,-0.99 -7.8,0.9 -10,-1.76 -1.2,-1.37 -0.7,-5.79 0.3,-7.13 0.9,-1.12 2.4,-1.38 3.2,-2.66 1.7,-2.69 2.9,-6.78 3.2,-9.92 0.9,-8.09 -1.9,-19.13 -5.1,-26.56 -2.1,-4.89 -5.6,-9.63 -7.1,-14.72 -0.5,-1.73 -0.1,-3.67 -0.2,-5.44 1,-0.7 2,-1.71 3.2,-1.81 1.3,-0.11 2.3,0.66 3.5,0.1 2.1,-1 2.1,-3.8 4.2,-4.64 4.4,-1.78 8.5,0.23 12.8,0.62 1.5,0.14 2.4,-1.42 3.8,-1.49 5.2,-0.23 9.6,5.09 11.6,9.18 2.4,4.97 4.1,11.54 5.1,16.96 0.3,1.3 0.2,5.53 1.9,5.79 2.1,0.3 1.5,-5.33 1.3,-6.43 -0.9,-7.03 -3.2,-13.81 -5.5,-20.48 5.5,-1.29 12.1,-0.32 17.6,-0.32 1.9,0 5.7,-0.47 7.3,0.13 2.1,0.74 3.9,4.24 5.9,5.56 1.5,1.08 4.3,1.69 5.5,3.11 1.2,1.45 0.5,4.77 0.5,6.56 0.2,4.06 1.5,8.25 2.5,12.16 0.3,1.14 1.1,5.9 3,5.33 1.7,-0.55 0.5,-4.41 0.3,-5.65 -1,-5.85 -1.9,-11.65 -1.9,-17.6 l 6.7,-0.96 c 0,5.4 0.6,10.69 1.7,16 0.4,2 0.5,4.47 1.9,6.05 3.1,3.45 9.3,4.64 13.7,5.28 12.4,1.85 29.4,0 39.3,-8.34 3,-2.53 3.2,-8.94 4.2,-12.59 2.6,-10.39 4.6,-21.29 8.3,-31.36 1.7,-4.53 6.6,-9.03 7.1,-13.76 l 10.2,3.52 m 69.8,75.84 c -8.1,0 -19.7,-1.6 -25.6,5.44 4.8,1.28 9.2,-0.45 14,-1.15 2.4,-0.32 4.7,0 7.1,-0.19 2.2,-0.2 5.9,-1.12 8,-0.36 2.9,1.12 5.5,4.64 7.7,6.82 2.9,2.91 5,6.24 4.4,10.56 -0.4,3.17 -3.8,5.18 -5.1,8 -8.8,-2.53 -16.8,-4.38 -25.9,-5.57 -1.7,-0.22 -8.3,-0.86 -8.7,1.76 -0.4,2.69 5.8,3.04 7.4,3.23 8.8,0.93 17.8,2.76 26.6,3.14 0.5,3.55 4,6.75 3.9,10.24 -0.1,3.55 -4.3,5.31 -3.1,9.28 0.4,1.6 1.9,2.59 2.9,3.84 2,2.53 2.9,5.18 2.7,8.32 -4.2,-1.92 -7.7,-5.09 -12.2,-6.69 -13.7,-4.93 -28.6,-5.34 -42.9,-3.81 -5.8,0.61 -11.3,2.95 -16.9,4.55 -2.4,0.67 -4.7,2.11 -6.7,-0.16 -1.6,-1.89 0,-9.83 2.5,-10.75 2.7,-1.03 6.1,-0.8 9,-1.16 6.8,-0.83 13.6,-1.5 20.5,-1.5 2.4,0 5.3,0.38 7.6,-0.22 0.9,-0.23 2.4,-0.84 2,-1.99 -1.3,-2.97 -9.3,-1.95 -11.9,-1.95 -7.8,0 -15.7,1.06 -23.3,2.34 -4.6,0.76 -7.9,2.94 -12.1,-0.68 -2,-1.69 -1.1,-6.94 -0.1,-9.02 0.4,-1.02 1.6,-2.02 1.7,-3.2 0.1,-1.06 -1,-2.24 -1.4,-3.2 -1.1,-2.62 -1.9,-5.25 -2.6,-8 -3.8,-15.14 -8,-30.63 -7.3,-46.4 0.7,-15.9 6,-31.67 12.5,-46.08 7.8,1.51 15.2,3.92 22.7,6.4 6.9,2.27 12.7,3.93 18.6,8.53 10.5,8.27 13.6,19.47 17.5,31.47 2.9,8.94 6,18.7 6.5,28.16 m -161.6,-59.28 c -1.7,0.11 -5.5,1.26 -6.6,2.46 -1.4,1.47 -0.2,3.67 1.8,3.56 2.1,-0.12 5.1,-1.44 6.6,-2.98 1.7,-1.76 0.2,-3.17 -1.8,-3.04 m -50.9,56.08 c 4,-1.19 2.3,-7.56 2,-10.56 -1.2,-9.16 -3.1,-17.97 -5.5,-26.88 -0.6,-2.26 -1.2,-7.77 -3.7,-8.85 -1.4,-0.63 -1.3,1.34 -1.1,2.13 0.5,2.78 1.3,5.56 1.9,8.32 1.6,6.76 3,13.57 3.8,20.48 0.6,5.18 0.7,10.45 2.6,15.36 m 146.5,-38.77 c -1.9,0.55 -2.7,3.18 -3.4,4.85 -1.8,4.88 -3.2,10.17 -3.8,15.36 -0.2,1.12 -0.8,6.7 1.2,6.43 1.9,-0.27 2.5,-3.98 2.7,-5.47 1.2,-6.11 2.8,-12.04 4.8,-17.92 0.4,-1.22 0.7,-3.85 -1.5,-3.25 m 64.4,9.65 c 6,7 11.8,14.1 17,21.76 1.5,2.17 3.5,4.05 4.7,6.4 7.1,13.92 10.1,28.93 15.3,43.52 2.9,8.22 5.3,16.61 6.5,25.28 0.3,2.56 1.4,6.43 0.8,8.96 -0.4,1.76 -2.9,2.91 -4.3,3.84 -4.2,2.59 -8.2,5.76 -12.8,7.46 -1.3,0.44 -4.7,2.04 -5.9,1.15 -1,-0.67 -0.6,-3.39 -0.7,-4.45 -0.6,-4.32 -1.1,-8.54 -2.1,-12.8 4.4,-1.92 5.9,-8.7 3.7,-12.8 -1.3,-2.66 -3.9,-4.61 -5.9,-6.72 v -0.32 c 5.6,-4.45 3.8,-8.48 1.3,-14.4 -0.5,-1.12 -2,-2.59 -1.9,-3.84 0.1,-1.41 2.5,-2.85 3.4,-3.84 2.2,-2.53 3.4,-6.34 2.4,-9.6 -1.2,-3.94 -3.4,-8.06 -6.5,-10.82 -2.1,-1.92 -5.4,-3.42 -7.2,-5.63 -1.5,-1.89 -1.2,-6.18 -1.6,-8.51 -1.1,-5.62 -2.5,-11.2 -4.2,-16.64 -0.7,-2.19 -2.6,-5.74 -2,-8 m -225,3.52 c -0.7,2.95 0.7,7.16 0.9,10.24 0.5,7.67 0.9,15.5 -0.8,23.04 -0.4,1.7 -3.8,9.06 -1.4,9.66 1.3,0.32 2,-1.08 2.5,-1.98 1.2,-2.5 1.8,-5.31 2.4,-8 2.3,-10.54 1.1,-23.04 -3,-32.96 h -0.6 m 37.4,17.6 c 0.3,5.19 10.1,11.71 15.1,12.13 1.2,0.1 8.6,-0.13 5.9,-2.98 -1.2,-1.24 -4,-0.71 -5.6,-1.13 -2.3,-0.63 -4.5,-2.29 -6.4,-3.67 -2.8,-1.99 -5.4,-4.32 -9,-4.35 m 135.1,25.28 c 4.7,0.9 10.3,-1.92 14.7,-3.71 0.9,-0.35 4.8,-1.83 4.1,-3.17 -0.8,-1.54 -4.2,-0.61 -5.4,-0.26 -3.6,1.06 -12.8,2.82 -13.4,7.14 m -59.9,5.12 c 0,7.87 2.2,16.99 4.1,24.64 0.3,0.99 2.1,8.61 3.6,6.85 1.3,-1.44 -0.6,-5.83 -0.9,-7.49 -1.3,-6.05 -2.2,-12.16 -3.2,-18.24 -0.4,-2.34 -0.8,-5.34 -3.6,-5.76 m 54.1,7.04 v 0.64 c 1.6,0.45 3.2,0 4.8,0 4.1,0 9.8,0.64 13.5,-1.28 v -0.64 c -4.5,-2.24 -13.9,-0.93 -18.3,1.28 m -64.6,121.6 c 1.7,-3.81 4.4,-7.14 4.5,-11.52 -3.6,1.22 -5.5,6.34 -7.4,9.28 -2.3,3.39 -4.2,4.38 -8,5.44 0.9,-2.02 2.1,-3.81 3.1,-5.76 1.2,-2.34 2.3,-4.77 2.8,-7.36 0.2,-0.96 0,-2.62 -1.4,-1.7 -1.4,0.93 -1.7,3.14 -2.4,4.58 -1.3,3.01 -3.6,9.41 -6.9,10.69 -1.7,0.64 -3.9,-0.42 -5.4,-1.09 4,-5.79 8.6,-10.78 8.6,-18.24 -2.4,0.7 -2.6,3.17 -3.7,5.12 -2.5,4.32 -5.6,7.81 -8.5,11.84 l -3.5,-1.28 v -0.64 c 8.2,-4.74 10.2,-16.1 11.3,-24.64 0.7,-4.32 0.6,-9.7 -2.7,-13.06 -2.6,-2.52 -8.4,-2.62 -11.8,-2.62 3.1,-4.83 9.3,-12.13 14.7,-14.18 4.7,-1.76 10,-0.19 14.8,-0.22 6.7,0 13.4,-0.77 20.1,-1.25 4.3,-0.32 9,-0.32 13.1,-1.63 5.6,-1.76 11.1,-4.58 15.7,-8.22 6.1,-4.8 11.3,-10.47 18.6,-13.7 6,-2.69 14.4,-1.95 20.5,0.29 1.2,0.48 5.4,2.65 6.1,0.45 0.5,-1.54 -1.6,-3.01 -2.6,-3.72 -3.6,-2.36 -7.9,-2.4 -11.9,-3.58 4.1,-1.92 8.8,-1.89 13.2,-2.3 10.9,-1.03 21.9,-0.32 32.6,2.72 3.8,1.05 8.3,2.24 11.5,4.67 2,1.6 2.7,5.57 2.9,8.03 0.6,5.89 0.9,11.36 0.6,17.28 -0.1,2.59 -0.1,6.14 -2.1,8.13 -1.9,1.85 -5.4,2.81 -7.8,3.71 -7.1,2.59 -14,3.62 -21.4,4.96 -11,1.98 -22.5,3.2 -33.6,3.97 -5.8,0.41 -11.8,-0.35 -17.6,0.1 -9.3,0.64 -18.3,2.56 -27.2,5.22 -14.2,4.25 -15.9,24.13 -28.8,30.27 m 169.6,-68.48 4.5,8.64 c -10.6,6.24 -22.5,12.54 -34.6,15.04 2.6,-3.74 3.3,-6.46 4.2,-10.88 6.5,-0.54 12.6,-3.97 17.9,-7.58 2.5,-1.67 5.1,-4.42 8,-5.22 m 6.7,12.8 c 4.9,14.24 11.1,27.87 14.7,42.56 6.2,24.67 8.3,51.46 8.7,76.8 0.2,18.78 -3.5,37.02 -4.8,55.68 -1.4,19.9 0.6,39.49 5.1,58.88 -7.3,2.14 -14.4,7.33 -21.1,10.78 -11.3,5.8 -22.3,10.5 -34.6,13.57 -12,3.01 -24.6,2.37 -36.8,3.2 -20.3,1.38 -40.8,3.07 -61.1,2.21 -5.7,-0.26 -11.4,-0.58 -17,-1.38 -2.7,-0.38 -5.3,-1.37 -8,-1.5 l 3.8,-21.76 2.9,-24.96 c 4.9,2.02 9.6,4.45 14.8,5.79 12.4,3.27 26.5,3.81 39.3,3.81 4.9,0 9.3,-0.61 14.1,-1.7 2.2,-0.51 4.6,-0.83 6.2,-2.52 3.1,-3.24 1.8,-9.89 1.8,-14.02 0,-12.83 -0.7,-25.31 -1.6,-38.08 -2.4,-35.74 -0.6,-71.68 -0.6,-107.52 0,-12.35 0.6,-24.48 -0.4,-36.8 4.1,-0.51 7.9,-0.29 11.9,-0.7 3.2,-0.32 6.4,-1.41 9.6,-1.96 8.6,-1.4 17.2,-2.81 25.6,-5.69 5.6,-1.95 10.6,-5.15 16,-7.65 1,7.74 1.3,14.94 1.3,22.72 0,5.25 0.1,10.46 -0.6,15.68 -0.7,5.54 -1.6,11.04 -1.8,16.64 0,1.22 0.1,5.66 2.4,4.51 1.3,-0.67 1.9,-2.53 2.4,-3.87 1.3,-3.62 2,-7.39 2.6,-11.2 1.5,-10.05 2.3,-20.9 1.3,-31.04 -0.3,-3.3 -0.6,-6.66 -1.4,-9.92 -0.3,-1.6 -1.4,-3.52 -1.4,-5.12 -0.1,-1.73 5.3,-4.58 6.7,-5.44 m -323.2,31.04 c -3.6,-2.5 -6.7,-5.47 -10.6,-7.58 -5.4,-2.95 -11.2,-3.62 -17.2,-3.62 l 10.5,-2.21 4.2,-0.61 3.8,3.78 9.3,10.24 m 125.1,-8.32 c -9.8,0 -20,2.14 -29.7,3.42 -18,2.37 -35.9,4.93 -53.8,7.08 -6.3,0.76 -12.6,1.66 -18.9,2.81 -5.2,0.93 -9.5,1.38 -13.4,5.25 h -0.3 l -2.9,-3.2 c 5,-7.01 18.1,-6.14 25.9,-7.1 22.1,-2.63 44.3,-5.54 66.2,-9.25 6.5,-1.09 13,-2.85 19.6,-2.85 3.5,0 6.5,-0.45 7.3,3.84 m -162.9,-0.96 v 0.32 c -2.5,1.06 -5,2.62 -7,4.54 -1.3,1.22 -2.3,3.36 -4.2,3.75 -13.7,2.94 -28.6,3.42 -42.5,5.09 -4,0.48 -7.9,1.34 -11.86,1.88 -1.76,0.26 -4.2,0.29 -5.72,1.35 -1.91,1.31 -1.49,5.02 -1.69,7.07 -0.19,1.82 -1.02,4.35 -0.17,6.08 0.74,1.47 2.46,2.37 3.74,3.33 3.02,2.24 6.15,4.32 9.3,6.4 1.4,0.93 2.6,2.56 4.1,3.17 3,1.12 7.5,0.1 10.6,-0.1 8.5,-0.35 17.1,-0.7 25.6,-1.7 4.7,-0.54 11.6,-3.26 13.4,2.66 -22.8,4.42 -46,6.91 -68.76,11.36 -2.59,0.48 -3.99,2.94 -6.4,3.84 -5.81,2.11 -13.69,2.4 -19.84,2.98 -4.87,0.48 -9.84,0.1 -14.72,0.41 -11.35,0.77 -22.87,1.76 -34.24,1.89 -18.8,0.22 -37.54,-0.96 -56.32,-0.96 3.88,-4.67 11.47,-7.52 16.64,-10.62 18.35,-11.01 40.38,-13.83 61.12,-17.09 7.48,-1.19 15,-3.2 22.4,-4.71 3.75,-0.8 5.92,-8.35 7.58,-11.42 0.69,-1.28 1.18,-3.14 2.7,-3.62 12.47,-4 26.74,-3.8 39.64,-5.79 18.9,-2.94 37.6,-8.61 56.6,-10.11 m 283.2,1.6 c -1.2,6.62 -1,13.15 -1.2,19.84 -0.6,12.38 -1,24.67 -1,37.12 0,9.54 -0.8,18.98 -1,28.48 -0.2,18.08 0.8,36.03 1,54.08 0.2,12.48 1.9,24.93 1.9,37.44 0,3.49 1.3,10.18 -0.2,13.31 -0.6,1.35 -3.3,1.67 -4.6,2.05 -4.8,1.41 -10.4,2.24 -15.3,2.24 -17.2,0 -35.1,-2.05 -50.6,-9.86 -3.3,-1.63 -6.4,-3.52 -9.6,-5.28 -1,-0.54 -3.2,-1.18 -3.7,-2.27 -1,-2.46 1,-7.58 1.5,-10.11 1.7,-8.58 4.8,-17.54 5.4,-26.24 0.6,-9.41 2.5,-18.72 3.2,-28.16 1.1,-16.51 1.7,-33.22 4.3,-49.6 2,-12.48 3.5,-24.86 4.4,-37.44 0.4,-5.82 1.6,-12.48 0.3,-18.24 l 10.2,-2.56 c -2.8,9.98 -2.9,19.84 -3.6,30.08 -0.6,8.7 -1.2,18.94 3,26.88 h 0.3 c 2.1,-4.74 1.2,-9.06 1.4,-14.05 0.1,-9.28 0.3,-18.59 0.5,-27.87 0.1,-3.84 0.4,-7.71 0.9,-11.52 0.2,-1.12 0,-3.36 0.9,-4.19 0.9,-0.87 2.8,-0.55 4,-0.71 3.7,-0.44 7.1,-0.83 10.8,-0.54 -2,5.76 0.5,14.05 2.7,19.52 1,2.46 2.1,4.74 4.7,5.76 1.2,-5.28 -2.8,-12.29 -3.7,-17.6 -0.5,-2.72 0.2,-5.34 -0.8,-8 l 16.7,-0.38 17.2,-2.18 m -241.6,17.92 c -6.9,0.77 2.4,7.55 1,0.96 h 0.3 c 2.5,3.17 6.3,7.9 9.9,9.6 2.3,1.09 5.3,0.54 7.7,0.64 6,0.29 11.9,0.16 17.9,0 26.1,-0.64 52.4,-1.47 78.4,-3.52 -3.4,6.24 -8.8,5.44 -15,5.44 -7.9,0 -15.8,0.35 -23.7,0.64 -16.1,0.61 -32.2,1.76 -48.3,1.92 -5,0.1 -11.8,2.24 -16.6,0.8 -3.8,-1.12 -7.2,-6.27 -10.1,-8.8 -8.3,-7.26 -15.1,-14.3 -25.5,-18.43 -4.5,-1.79 -10.6,-2.98 -15,-0.23 -3.5,2.18 -5.5,5.12 -7.7,8.42 -8.7,-2.98 2.7,-11.58 7.1,-13.47 14.4,-6.31 32,3.77 39.6,16.03 m 122.3,-15.04 c -0.2,5.86 -1.5,13.66 -4.2,18.88 -8.4,-1.57 -18.4,-0.29 -26.9,0.29 -15.4,1.05 -31.2,1.6 -46.7,1.63 -4.4,0 -9,0.29 -13.4,0.7 -2.2,0.2 -5.6,1.12 -7.6,0.39 -2.9,-0.99 -7,-5.73 -8.7,-8.13 l 13.7,-1.38 30.4,-3.84 44.2,-5.76 19.2,-2.78 m -153.6,34.56 v -0.32 c 2.7,-0.77 2.5,-4.67 2.5,-7.04 0.1,-2.78 0.8,-6.05 -0.7,-8.61 -2.2,-3.97 -7.6,-6.11 -10.5,-9.63 8.4,-5.18 17.8,-1.06 25.3,4.16 1.8,1.22 6.1,3.87 6.6,6.08 0.4,1.6 -3.1,4.54 -4.1,5.76 -4.7,6.24 -10.7,11.68 -19.1,9.6 m -22.7,-26.56 c -0.2,1.47 -0.6,3.07 0.1,4.48 2.8,5.73 9.2,3.1 11.7,-0.96 2.8,1.28 6.2,4.54 8,7.04 l -43.2,3.58 -13.4,1.25 -6.4,0.1 -11.56,-9.09 6.08,-0.7 12.18,-1.28 36.5,-4.42 m -57.64,8.32 8.64,6.34 3,2.68 -0.4,7.3 c -3.04,-1.15 -5.76,-3.9 -8.36,-5.82 -1,-0.71 -2.54,-1.51 -3.19,-2.6 -0.8,-1.37 -0.29,-6.46 0.31,-7.9 m 125.44,6.4 c -2.9,0 -5.5,-2.88 -6.7,-5.44 l 0.3,-0.32 c 2.3,1.09 4.9,3.65 6.4,5.76 m -150.7,-5.06 c -1.57,0.2 -1.15,2.15 -0.8,3.14 0.7,2.02 3.55,8.03 6.18,7.84 1.29,-0.13 0.74,-1.7 0.39,-2.4 -0.87,-1.76 -3.42,-8.86 -5.77,-8.58 m 131.5,3.78 c 1.1,0.83 4.1,2.69 4.1,4.16 0,1.28 -1.8,2.98 -2.6,3.84 -2.8,3.14 -6,6.18 -9.2,8.83 -7.8,6.4 -18.9,5.63 -27.2,1.06 -2,-1.12 -4.3,-1.92 -5.7,-3.81 2.1,-0.64 5.7,-1.06 8,-0.45 3.9,1.12 7.1,3.81 11.5,3.62 11.1,-0.51 14.4,-10.59 21.1,-17.25 m -27.2,1.28 0.3,8.64 -41.3,2.85 -22,1.95 -1,-8.96 32.6,-2.53 31.4,-1.95 m -98.24,23.36 c -0.83,-6.18 -5.31,-11.17 -8.92,-16 -0.72,-0.96 -3,-4.96 -4.64,-3.81 -1.41,0.96 1.47,4.48 2.06,5.41 2.69,4.26 6.88,12.19 11.5,14.4 m 132.44,-17.92 3.2,2.88 -5.7,0.32 2.5,-3.2 m -130.84,5.44 c 0.11,4.45 4.42,9.38 6.66,13.12 1.01,1.7 1.79,3.52 3.9,3.84 -0.11,-4.35 -4.37,-10.11 -6.66,-13.76 -0.98,-1.57 -2.03,-2.82 -3.9,-3.2 m 149.14,1.92 c 0,1.95 0.4,7.26 -0.7,8.77 -1.1,1.41 -5,1.79 -6.7,2.53 -5.7,2.59 -11.4,5.44 -16.9,8.32 -10.4,5.34 -20.6,14.62 -27,24.22 -4.7,6.94 -7.4,14.98 -9.5,23.04 -6.2,23.52 -6.1,52.77 11.2,72 6.2,6.85 14.3,11.87 22.1,16.74 3.4,2.17 9.1,4.6 11.2,8.22 -16.6,3.1 -32.8,8.16 -49,12.67 -24.4,6.79 -49,13.15 -73.6,19.3 -10.76,2.69 -21.56,5.15 -32.32,7.84 -2.99,0.73 -5.97,1.47 -8.96,2.24 -0.98,0.25 -2.42,0.96 -3.42,0.61 -1.62,-0.55 -3.08,-3.56 -4.03,-4.9 -3.23,-4.51 -6.6,-8.93 -9.83,-13.44 -8.94,-12.51 -18.24,-24.8 -27.48,-37.12 -3.85,-5.12 -9.84,-10.56 -12.52,-16.32 13.81,-4.48 28.4,-7.97 42.56,-11.2 -3.38,4.19 -8.83,6.94 -13.76,8.9 -1.88,0.73 -5.88,1.5 -6.28,3.9 -0.55,3.26 3.54,2.56 5.32,2.27 5.23,-0.93 10.57,-3.39 14.72,-6.69 11.02,-8.8 19.61,-18.56 26.69,-30.78 3.21,-5.54 6.71,-12.64 6.87,-19.2 0.1,-2.4 -0.9,-4.7 -1.24,-7.04 8.2,1.6 19.68,5.41 23.87,13.12 2.46,4.54 0.64,11.84 -0.16,16.64 -2.64,15.84 -8.73,30.08 -17.96,43.2 -4.3,6.11 -9.97,11.2 -14.95,16.74 -1.3,1.44 -4.88,4.48 -2.25,6.43 1.8,1.31 4.96,-1.51 6.33,-2.53 5.25,-3.9 9.72,-9.31 13.99,-14.24 11.89,-13.73 18.53,-31.94 21.5,-49.6 1.08,-6.37 2.64,-15.01 -1.2,-20.8 -2.87,-4.32 -8.01,-7.1 -12.53,-9.38 -9.68,-4.83 -20.01,-7.71 -30.4,-10.59 -7.39,-2.05 -14.63,-4.64 -22.08,-6.46 -26.2,-6.47 -51.23,-11.94 -73.6,-27.97 3.08,-1.12 8.23,0.48 11.52,0.64 8.42,0.35 16.88,0 25.28,0.61 21.61,1.47 44.1,-0.23 65.6,-2.27 8.11,-0.77 16.02,-2.05 24,-3.52 1.18,-0.23 2.35,0.25 3.52,0 1.92,-0.48 2.96,-2.46 4.83,-2.94 5.16,-1.25 10.99,-0.99 16.27,-2.02 14.8,-2.84 29.6,-4.99 44.5,-7.45 5.6,-0.93 11.1,-2.59 16.6,-3.33 2.6,-0.32 5.8,1.02 8.4,1.5 2.6,0.48 5.3,0.23 8,-0.16 3.1,-0.48 6.5,-1.72 9.2,-3.42 1.8,-1.12 3.5,-3.01 5.5,-3.68 8.8,-2.91 19.6,-3.36 28.8,-3.36 m -171.54,93.76 c -2.61,6.24 -6.77,11.9 -10.81,17.28 -1.52,2.02 -2.82,4.83 -5.19,6.02 -3.26,1.63 -8.85,0.92 -12.48,1.44 -6.3,0.83 -12.7,3.1 -18.88,4.67 -6.82,1.69 -13.9,3.2 -20.48,5.66 -2.01,0.74 -5.85,1.09 -6.33,3.65 -0.51,2.72 -1.62,8.58 -1.02,11.2 0.72,3.23 4.43,6.88 6.28,9.6 5.66,8.32 11.75,16.35 17.9,24.32 8.24,10.69 16.42,21.47 24.45,32.32 2.31,3.14 4.7,6.21 7.08,9.28 1.16,1.5 2.31,3.39 4.12,4.16 2.66,1.15 5.99,-0.26 8.64,-0.9 6.95,-1.63 13.87,-3.39 20.8,-5.15 26.95,-6.75 53.76,-14.11 80.66,-21.18 16.7,-4.42 33.6,-8.51 50.2,-13.51 4,-1.18 7.9,-2.2 11.9,-3.52 1.7,-0.6 3.9,-1.37 4.7,-3.1 0.9,-1.7 0.3,-4.54 0.4,-6.4 0.1,-2.98 0.5,-6.43 -0.8,-9.28 -1.3,-2.56 -4.6,-4.48 -6.9,-5.92 -3.8,-2.27 -7.5,-4.7 -11.2,-7.1 -5,-3.24 -10.5,-6.76 -14.6,-11.04 -8.2,-8.42 -13,-21.09 -13.9,-32.58 10.3,1.38 20.6,5.57 30.1,9.44 14.5,5.92 27.4,13.02 40.3,22.02 3.2,2.2 6.6,4 9.6,6.49 7.6,6.27 18.4,15.71 19.2,26.37 0.8,12 -9.6,21.63 -16.5,30.08 -4.5,5.5 -8.6,11.65 -14.8,15.39 -6.3,3.75 -14.2,5.09 -21.2,7.04 -15.9,4.51 -31.2,7.84 -47.6,8.96 -33,2.24 -66.26,5.12 -99.24,2.88 -7.08,-0.48 -14.33,-0.19 -21.44,-1.05 -13.88,-1.67 -28.3,-3.01 -41.92,-6.72 -5.75,-1.54 -11.11,-3.94 -16.64,-6.08 -6.63,-2.56 -13.68,-4.68 -19.52,-8.9 -3.14,-2.3 -5.77,-6.37 -8.37,-9.28 -3.18,-3.55 -6.78,-7.07 -9.25,-11.2 -3.51,-5.82 -5.09,-13.06 -6.93,-19.52 -1.82,-6.43 -3.56,-12.8 -2.19,-19.52 0.73,-3.55 2.45,-6.66 3.92,-9.92 6.1,-13.54 15.98,-24.13 28.58,-32.16 23.55,-14.94 52.52,-14.24 79.36,-14.24 m 438.44,34.24 c 0.6,4.7 3.4,8.7 5.6,12.8 4.9,8.8 10.1,17.44 15.5,25.92 1.7,2.82 3.5,5.76 5.6,8.32 0.9,1.02 2.2,2.43 3.6,1.41 1.4,-0.99 0.8,-2.72 0.2,-3.97 -1.5,-3.01 -3.6,-5.79 -5.4,-8.64 -5.1,-8.26 -10,-16.74 -15.2,-24.96 -2.5,-3.94 -5.5,-9.02 -9.9,-10.88 m 35.5,9.95 c -1.9,0.9 -0.2,4.55 0,6.05 1.1,6.14 1.7,12.35 2.2,18.56 0.1,1.22 0.4,6.59 2.6,5.98 1.9,-0.57 1.6,-4.48 1.6,-5.98 -0.1,-6.21 -1,-12.8 -2.4,-18.88 -0.3,-1.54 -1.3,-6.91 -3.9,-5.73 m -544.73,0.93 13.4,17.6 24.64,32.32 11.24,15.04 4.78,6.72 1.94,8.32 h -0.32 l -16.17,-21.76 -27.95,-37.12 -8.94,-11.2 -3.53,-4.48 0.91,-5.44 m 227.53,31.36 0.6,5.12 -16.9,3.71 -42.9,11.04 -108.81,28.77 -0.32,-5.44 11.84,-2.72 48,-12.35 44.49,-12 64,-16.13 m 338.9,6.4 c 0.2,11.81 2,23.74 4.9,35.2 1.8,7.14 5,15.07 5.3,22.4 -5.4,0.22 -10.1,2.43 -15,4.26 -2,0.7 -4.6,1.02 -5.9,2.81 -1,1.41 -0.3,2.56 -0.4,4.13 -0.1,2.88 -0.6,5.98 -1.7,8.64 -4.6,11.33 -17.8,15.01 -28.5,10.56 v -0.64 c 6.4,-3.94 12.9,-8.74 16.7,-15.36 1,-1.7 2.4,-3.46 2.7,-5.44 0.9,-5.7 -3.2,-10.27 -6,-14.72 -5.8,-9.18 -11.2,-18.56 -16.3,-28.16 15.8,-4.48 30.3,-15.14 44.2,-23.68 m -160.4,3.36 c -5.4,0.86 -9.8,8.35 -13,12.32 -0.7,0.9 -4,5.15 -0.7,5.09 1.6,0 3.3,-1.7 4.5,-2.66 3.5,-3.01 6.8,-6.78 9.7,-10.43 1.1,-1.44 3,-4.86 -0.5,-4.32 m -447.31,8.8 c 1.65,5.79 5.56,8.61 8.99,13.15 2.92,3.84 5.61,7.87 9.25,11.11 18.07,16.12 43.37,20.76 66.56,23.52 20.27,2.4 40.61,4.92 61.12,5.34 22.09,0.45 44.49,-1.89 66.59,-2.88 20.2,-0.86 39.4,-3.52 58.8,-9.38 9.5,-2.84 18.8,-5.85 27.2,-11.13 11,-6.85 20.8,-17.44 27.9,-28.13 h 0.3 c 0,3.68 -1,7.23 -1.2,10.88 -0.6,7.42 -0.8,14.98 -1,22.4 -0.5,19.33 0.6,38.62 0.6,57.92 0,7.49 -0.1,14.94 -0.3,22.4 0,1.95 0.9,6.85 -0.5,8.32 -1.6,1.66 -5.1,2.78 -7.2,3.65 -4.8,1.95 -9.6,3.93 -14.4,5.76 -22.3,8.45 -45.5,11.29 -68.8,15.42 -12.1,2.15 -23.9,3.43 -36.2,4.26 -4.8,0.35 -9.8,-0.29 -14.7,0.1 -19.1,1.31 -38.13,2.05 -57.25,0.23 -8.79,-0.84 -17.51,-2.66 -26.24,-3.97 -15.27,-2.24 -30.32,-4.74 -45.12,-9.19 -14.43,-4.32 -30.26,-8.92 -42.88,-17.21 -3.61,-2.4 -10.03,-6.11 -12.15,-9.95 -0.82,-1.48 -0.33,-4.07 -0.33,-5.7 0,-4.8 0,-9.6 0.29,-14.4 1.06,-15.1 0.99,-30.27 0.99,-45.44 0,-11.1 0.13,-22.18 0,-33.28 0,-3.17 -0.25,-6.4 -0.33,-9.6 0,-1.41 -0.54,-2.82 0,-4.16 m 484.82,19.84 c -4.3,5.57 -10.3,10.08 -15,15.36 -5.7,6.46 -10,13.95 -15.1,20.8 -2.3,3.01 -4.6,6.05 -7,8.96 -1,1.25 -2.8,2.56 -3.2,4.16 -0.6,2.66 1.2,5.7 2.2,8 -6.6,1.57 -14.6,0 -21.1,2.75 -3.4,1.44 -4.7,4.64 -7.1,7.11 -4.9,4.86 -12.9,8.8 -19.5,4.54 -1.8,-1.15 -6.4,-4.93 -4.7,-7.36 3,-4.19 9.8,-4.9 12.4,-8.96 4.1,-6.56 5.8,-13.57 8.2,-20.8 4.3,-13.38 7.9,-26.94 12.3,-40.32 4.3,0.99 8.4,2.66 12.8,3.39 14.6,2.47 30,2.24 44.8,2.37 m 138.9,35.84 c -5.1,1.31 -12.8,1.76 -16.6,5.82 -2.8,2.95 -2.6,11.65 1.5,13.38 1.8,0.74 4.3,-0.16 6.1,-0.51 5.5,-1.09 10.2,-2.95 15.4,-4.93 1.2,3.71 2.5,7.58 2.5,11.52 0,5.6 0.9,13.34 -3.3,17.76 -7.3,7.62 -19.6,0.13 -28,-0.7 -5.4,-0.55 -11.8,2.04 -17,3.48 -8.2,2.24 -16.5,6.02 -24.3,9.35 -4.4,1.89 -10.5,4.7 -15.4,4.32 -2.7,-0.19 -5,-2.05 -7.3,-3.23 -6.5,-3.24 -15.4,-8.04 -17.6,-15.62 3.9,1.47 8.3,1.09 12.4,0.7 7.7,-0.73 13.7,-2.08 19.8,-7.07 3.1,-2.49 5.1,-8.67 9,-9.85 1.3,-0.36 2.9,1.05 3.9,1.56 2.5,1.32 5.4,2.44 8.3,2.5 16.2,0.29 29.1,-11.07 29.1,-27.52 4.4,-1.22 8.8,-3.33 13.1,-4.8 1.3,-0.42 3.4,-1.79 4.7,-1.38 1.7,0.55 3,3.72 3.7,5.22 m 1.9,2.88 3.2,8 -17.6,4.48 -0.3,-6.72 14.7,-5.76 m -177.9,23.04 0.9,5.12 c -3.4,0.64 -7.1,1.02 -10.5,1.25 -1.8,0.13 -3.9,-0.13 -5.5,0.89 -2.5,1.73 -3.7,11.24 -0.6,12.77 5,2.5 11.9,0.16 17.3,0.13 -0.2,4.83 1.3,12.54 -3.6,15.52 -4.6,2.91 -12.5,2.4 -17.6,0.99 -3.1,-0.89 -6.5,-2.59 -9.9,-1.95 -10.5,1.95 -19.4,9.18 -29.7,11.78 -3.2,0.76 -6.4,0.22 -9.6,0.22 -5.6,0 -12,-0.22 -17.3,-2.08 -11.2,-3.97 -19.2,-14.69 -19.2,-26.4 10.8,6.02 27.1,7.52 38.1,0.48 4.1,-2.66 6.9,-7.04 9.6,-11.04 h 0.6 c 0.9,1.92 2.3,3.1 3.8,4.51 8,7.39 18,5.28 25.6,-1.41 1.7,-1.44 3.1,-3.13 4.2,-5.02 0.6,-1.06 1.2,-3.07 2.4,-3.65 2.4,-1.18 6.5,-0.73 9.1,-0.83 4,-0.19 7.9,-1.28 11.9,-1.28 m 1.2,9.28 -0.3,6.5 -3.8,0.6 -10.6,0.9 0.3,-6.08 z"
       id="outline" />
  </g>
</svg>
