<?xml version="1.0" encoding="UTF-8" standalone="no"?>
<!DOCTYPE svg PUBLIC "-//W3C//DTD SVG 1.1//EN" "http://www.w3.org/Graphics/SVG/1.1/DTD/svg11.dtd">
<svg xmlns:dc="http://purl.org/dc/elements/1.1/" xmlns:xl="http://www.w3.org/1999/xlink" version="1.1" xmlns="http://www.w3.org/2000/svg" viewBox="98.00456 61.875 169.13829 353.25" width="169.13829" height="353.25">
  <defs>
    <clipPath id="artboard_clip_path">
      <path d="M 98.00456 61.875 L 267.14285 61.875 L 267.14285 415.125 L 98.00456 415.125 Z"/>
    </clipPath>
  </defs>
  <metadata> Produced by OmniGraffle 7.7.1 
    <dc:date>2018-03-18 08:29:39 +0000</dc:date><dc:title>Traceable heraldic art http://heraldicart.org/credits.html</dc:title>
  </metadata>
  <g id="Hand_of_Benediction" fill-opacity="1" stroke-dasharray="none" stroke="none" stroke-opacity="1" fill="#ffff00">
    <title>Hand of Benediction</title>
    <g id="Hand_of_Benediction: Layer 2" >
      <title>Layer 2</title>
      <g id="Group_255">
        <g id="Graphic_290">
          <path d="M 178.39279 66.27173 C 171.52246 69.764935 170.62587 73.36241 168.78872 106.96019 C 167.79341 124.17464 167.18092 143.3413 167.21073 149.5953 C 167.37703 155.99066 167.14838 161.12842 166.59269 161.11872 C 166.17591 161.11145 163.83118 160.09776 161.3548 158.66487 C 156.12176 155.93316 146.536 155.76584 140.92812 158.58625 C 135.03997 161.54073 126.80778 171.40261 126.73018 175.84818 C 126.64531 180.71052 124.11073 182.6118 118.14185 182.22969 C 115.50229 182.18361 111.32002 182.9444 108.93406 184.29243 C 101.64697 187.77835 99.91198 191.63913 99.98856 203.17467 C 100.02806 208.87298 99.60957 216.92572 98.83978 221.22024 C 98.05301 226.48722 98.25811 230.6598 99.30888 234.1523 C 100.0915 237.08425 100.87967 247.65944 100.98293 257.66682 C 101.09729 282.9607 102.10996 296.59706 105.10637 308.0446 C 108.8757 322.9798 113.91231 336.96434 116.77394 340.2105 C 120.86407 344.72883 122.24431 353.22987 122.16327 373.79547 C 121.99908 391.1634 122.2357 393.52995 124.94386 397.60724 C 128.32724 402.80805 133.52875 407.34577 136.58023 407.67696 C 137.6892 407.8353 142.40049 408.61235 146.97043 409.5259 C 172.59862 414.14225 215.1336 413.49504 227.59241 408.2928 C 237.25092 404.2924 237.4044 403.4613 237.39743 379.97588 C 237.40745 355.51798 240.02135 341.1111 246.48147 329.27277 C 248.63808 325.14142 251.83748 316.99825 253.46506 311.32904 C 255.09265 305.65983 258.43825 297.10232 260.74348 292.4177 C 267.07438 280.02124 267.79012 270.86196 264.70673 240.51348 C 263.28456 226.45306 261.8527 212.94833 261.47714 210.57935 C 261.2405 208.2128 258.83688 202.61218 256.27492 198.12054 C 253.43997 193.3462 250.38779 185.09391 248.84437 177.9797 C 245.87948 164.72614 243.8514 161.49451 238.4455 160.70532 C 234.42397 160.21823 234.29717 159.52118 232.29192 139.05813 C 231.95275 134.60529 231.34785 129.45298 231.10395 127.50319 C 230.86005 125.5534 230.01853 118.03454 229.31108 110.79594 C 226.79864 87.54471 225.63077 82.79947 221.53823 78.42008 C 216.89726 73.61421 211.06973 73.095595 205.85922 77.03467 C 201.07033 80.70317 200.1027 80.40835 198.11585 74.81501 C 194.94172 65.58783 186.6669 61.969236 178.39279 66.27173 Z" fill="#cccccc"/>
        </g>
        <g id="Graphic_289">
          <path d="M 192.40784 75.41021 C 194.1508 79.05376 195.0481 83.37738 194.8243 88.23729 C 194.75398 92.26609 194.29356 94.75944 193.89376 93.7797 C 193.22824 92.10049 187.96368 91.1748 187.93458 92.84189 C 187.91275 94.0922 191.742 97.6332 193.27017 97.65987 C 195.35403 97.69625 197.16074 105.64886 197.53942 115.80001 C 197.68874 123.16784 197.3818 124.83007 195.5685 125.21532 C 194.31334 125.47135 192.24403 124.60143 191.15447 123.33171 C 189.78705 122.05715 188.6805 121.7599 188.11026 122.58374 C 187.54002 123.40759 186.70162 123.67089 186.01428 123.24199 C 184.6396 122.3842 177.59882 127.68099 177.56487 129.62592 C 177.53092 131.57086 184.7865 129.89094 186.4948 127.55833 C 187.49394 126.04714 188.32506 126.20062 190.3774 128.043 C 191.74724 129.17864 192.82226 131.2819 192.798 132.67114 C 192.77376 134.06038 193.31006 135.18148 193.86575 135.19117 C 195.39392 135.21785 199.10505 153.48721 199.87382 165.1738 C 200.19844 170.4602 200.77667 177.14067 201.00844 179.78507 L 201.47927 184.65711 L 199.34135 179.75597 C 198.13954 176.95567 196.91105 175.68353 196.61622 176.65115 C 196.18248 177.61634 197.64517 181.39396 199.6684 184.90344 C 204.1268 192.2075 207.28325 194.48606 205.98374 189.32163 C 205.34004 186.3921 205.48139 186.2556 207.53372 188.09798 C 210.54883 190.51304 210.88002 187.46156 208.0184 184.21539 C 204.7497 180.40624 200.58847 116.27014 202.44642 97.40315 C 203.47881 86.02593 204.0733 83.81285 206.89786 81.22179 C 211.41618 77.13167 216.53211 78.61063 219.6231 84.64013 C 221.3709 88.00583 221.99278 92.18568 221.84 100.93789 C 221.5653 108.71521 222.0434 113.17047 223.27673 114.16477 C 224.78307 115.44176 228.0168 137.17695 226.886 138.26894 C 226.60574 138.40301 224.6705 137.81337 222.46227 136.94103 C 216.8076 134.4799 215.00645 134.17052 214.97735 135.83761 C 214.94825 137.5047 220.55926 142.46646 222.77962 142.64418 C 224.30778 142.67086 226.63382 152.71703 225.87858 156.17801 C 225.72268 157.14805 226.26383 157.9913 226.95844 158.00342 C 227.65306 158.01555 228.6619 155.94866 228.9834 153.45288 C 229.4705 149.43136 229.60942 149.43378 229.65862 154.5764 C 229.73692 158.05192 228.54309 162.75594 226.24513 167.02378 C 223.6572 171.9814 222.74848 176.27349 222.50044 182.52264 C 222.418 187.24606 221.6482 191.54058 220.9463 191.94523 C 219.40116 192.89102 220.53266 199.72012 222.31685 201.00196 C 224.10103 202.2838 227.54816 211.79368 227.4827 215.54463 C 227.37842 221.51836 225.95765 223.30012 221.09531 223.21525 C 218.45576 223.16917 216.08435 223.68365 215.65788 224.23207 C 215.37033 224.78291 217.03257 225.08986 219.67697 224.8581 C 225.10713 224.25804 226.46485 226.0883 225.24434 232.32048 C 224.3429 236.1958 223.07075 237.4243 217.60665 239.96928 C 209.06196 243.85015 190.5404 262.00938 190.4628 266.45495 C 190.43128 268.26096 188.82552 272.67985 186.95403 276.39927 C 183.21591 283.56027 179.79342 304.48445 182.43298 304.53052 C 183.26652 304.54507 184.33114 299.28293 184.85946 292.8997 C 185.72624 283.04823 186.7569 279.73103 191.6428 270.50557 C 195.23472 263.7589 200.07453 257.173 204.1688 253.49238 C 207.84145 250.08233 209.389 248.99761 207.54662 251.04995 C 202.3046 256.79504 205.2123 257.40166 210.86867 251.80277 C 215.53561 247.15938 220.86322 244.47304 222.22821 245.88653 C 222.6377 246.31058 221.06832 248.6456 218.8019 251.10745 C 213.9839 256.44303 210.833 261.80772 211.925 262.9385 C 213.1535 264.21065 215.55642 261.89017 215.6025 259.2506 C 215.62674 257.86137 217.77365 254.28572 220.46898 251.13654 L 225.29182 245.5231 L 226.29894 251.51624 C 226.79886 254.7212 227.29878 257.92614 227.42316 258.7621 C 227.54996 259.45916 227.93763 261.13352 228.335 262.2522 C 228.8713 263.37328 229.53197 265.33034 229.92934 266.449 C 230.32671 267.56767 230.64336 265.34974 230.5699 261.59636 C 230.49888 257.70407 230.9884 253.54362 231.56592 252.303 C 232.14344 251.0624 232.04574 248.69826 231.09995 247.15312 C 229.2229 243.2293 231.2312 215.74902 233.96534 210.37706 C 236.41434 205.41702 236.41434 205.41702 233.7748 205.37095 C 232.6634 205.35155 230.6256 202.67562 229.15565 199.31477 C 223.54878 186.15407 224.9439 169.91936 231.9701 165.45611 C 235.34066 163.43045 235.6185 163.4353 237.93657 165.97716 C 240.52763 168.80171 244.76707 180.68785 244.69433 184.85557 C 244.57066 191.9407 236.3419 185.68254 236.32908 178.45607 C 236.3703 176.09436 235.73146 172.88698 235.06352 171.3467 C 234.125 169.38478 233.95697 171.04945 234.26947 177.03045 C 234.76283 188.57327 236.5179 191.5222 242.49165 191.62647 C 246.52044 191.6968 247.6197 192.41081 249.49917 196.1957 C 250.70584 198.71816 252.59743 201.80844 253.687 203.07816 C 255.8637 205.7565 256.85627 212.58319 260.1666 245.85392 C 263.01093 273.97476 262.52383 277.99628 253.59288 296.04498 C 246.10452 311.0616 245.95832 311.47595 246.33144 313.98385 C 246.57291 316.07256 242.3179 321.00108 235.98145 325.7543 C 233.5882 327.5191 233.72714 327.5215 237.78988 325.6469 C 240.171 324.57673 242.26455 324.0574 242.25242 324.75203 C 242.19665 327.94728 230.11582 335.37955 221.88293 337.32034 C 218.5342 338.0957 218.25393 338.22976 220.89106 338.41476 C 222.55572 338.5828 226.60634 337.4028 229.69177 335.78905 C 235.85777 332.8394 235.85535 332.97834 231.71258 339.43745 C 228.85408 343.97344 227.73784 344.2319 211.33753 344.3625 C 203.41402 344.50215 201.3156 345.2993 204.33798 347.2976 C 207.36036 349.2959 203.72167 350.761 197.20194 350.09133 C 192.20795 349.58726 189.7243 348.57115 187.54273 346.17064 C 184.82003 342.9269 184.66898 343.6191 187.06291 349.7754 C 187.59436 351.17433 187.02654 351.85925 185.0816 351.8253 C 181.46958 351.76225 176.98693 345.84742 175.29974 339.00862 C 173.47605 332.02847 172.08924 331.8653 173.07938 338.8309 L 173.96213 343.98806 L 170.5545 340.1765 C 167.2858 336.36735 164.58421 323.9522 166.5825 320.9298 C 167.0114 320.24246 166.74567 319.543 166.05105 319.53087 C 165.2175 319.5163 164.48894 321.44913 164.4453 323.94976 C 164.38467 327.42286 163.9582 327.9713 162.7297 326.69914 C 161.63771 325.56835 161.15961 321.1131 161.26874 314.8615 C 161.52648 308.05665 161.28258 306.10687 160.53704 309.01215 C 158.15178 318.28126 158.73 324.96173 162.27898 328.6368 C 164.18997 330.6157 165.67449 333.143 165.65509 334.2544 C 165.59446 337.7275 171.16668 344.91203 173.26508 344.11486 C 174.38375 343.7175 175.21487 343.87096 175.20275 344.5656 C 175.1494 347.6219 182.27645 353.30497 185.8909 353.2291 C 192.28867 352.92386 193.39522 353.2211 192.52287 355.42935 C 191.93808 357.08673 193.18112 357.52533 199.15485 357.6296 C 205.96213 357.74842 215.18446 354.85214 222.3496 350.39132 C 227.9696 346.8763 234.15814 350.59744 230.32717 355.11646 C 229.33288 356.3498 229.18426 356.90307 229.88615 356.49842 C 230.7294 355.95728 231.32702 361.52636 231.28407 371.9481 C 231.40673 380.84407 231.66345 390.02033 232.039 392.3893 C 233.04127 398.6603 228.09648 403.29883 217.7773 405.34217 C 208.29168 407.40006 168.55214 407.1233 151.2206 404.87525 C 139.7093 403.5626 129.21898 399.48843 127.89279 395.85215 C 126.43494 391.7967 126.12933 353.5756 127.6575 353.6023 C 128.35212 353.6144 129.45138 354.32843 129.85603 355.03032 C 130.39718 355.87357 134.38232 358.44452 139.06452 360.88868 C 144.9849 364.04928 147.75125 364.7924 149.01854 363.84175 C 150.00556 363.0252 151.26073 362.76916 151.67022 363.1932 C 152.07972 363.61725 155.83067 363.68273 159.87159 363.05843 L 167.25396 362.07556 L 161.02178 360.85504 C 156.72726 360.08525 153.83653 358.50616 151.79875 355.83023 C 150.03153 353.57593 148.6617 352.4403 148.64957 353.1349 C 148.63744 353.82953 149.57839 355.6525 150.94338 357.066 C 154.07558 360.7338 152.25502 361.5358 147.29983 358.80896 C 144.82102 357.515 142.19117 356.91323 141.34792 357.45438 C 140.50468 357.99552 140.22926 357.85175 140.80193 356.889 C 141.23325 356.0627 140.17278 353.1259 138.27877 350.17456 C 136.38233 347.36213 134.88569 345.52944 134.87114 346.363 C 134.85902 347.0576 135.79996 348.8806 136.88468 350.42816 C 139.46361 353.94733 139.44179 355.19764 136.80223 355.15157 C 135.69084 355.13217 134.04557 353.85276 133.09736 352.44654 C 132.28806 351.04275 130.9158 350.04604 129.93848 350.3069 C 126.7214 351.50145 123.41077 342.13292 123.4513 331.85012 C 123.47969 322.26194 122.67767 320.44138 120.76739 326.3836 C 120.32394 327.90448 120.37971 324.70922 120.74971 319.43496 C 121.28045 312.9128 121.04625 310.40733 120.18846 311.782 C 119.47444 312.8813 118.73617 315.3698 118.5633 317.3123 C 118.52935 319.25724 117.78623 322.0236 117.06494 323.53963 C 116.0561 325.6065 115.92687 325.0484 116.41396 321.02688 C 116.87924 318.25567 116.64261 315.8891 115.80907 315.87457 C 115.11445 315.86244 114.54178 316.8252 114.51995 318.07552 C 114.4472 322.24324 111.87312 318.44622 109.91536 311.1858 C 107.0506 300.15746 105.78433 285.127 105.76524 262.33618 L 105.84871 241.63166 L 110.55758 242.54765 C 113.32878 243.01292 116.67266 242.51542 118.63699 241.43798 C 120.5989 240.49946 125.19794 239.74594 128.95132 239.6725 C 135.06397 239.7792 135.4759 240.0643 133.77243 242.11907 C 132.21274 243.8984 132.06412 244.45168 133.58258 245.03405 C 134.96455 245.47507 134.8135 246.16727 132.97112 248.2196 C 131.69655 249.58702 131.11903 250.82763 131.81365 250.83976 C 132.50827 250.85188 134.765 248.94574 136.88766 246.75934 C 139.01274 244.434 140.00704 243.20066 139.15894 244.01965 C 137.04356 245.7893 135.23755 245.75777 135.26907 243.95176 C 135.2812 243.25714 137.82063 241.078 140.9109 239.1864 C 144.28145 237.16075 146.54789 234.69892 146.57456 233.17076 C 146.59881 231.78152 147.45903 230.2679 148.5777 229.87053 C 151.37557 228.80764 152.45787 230.49412 150.61306 232.68538 C 149.33849 234.0528 149.47014 234.472 150.72046 234.49382 C 151.69292 234.5108 152.09272 235.49054 151.65655 236.59465 C 151.08145 237.69635 151.33748 238.9515 152.16132 239.52176 C 152.98517 240.092 152.9682 241.06447 151.83498 242.2954 C 150.55799 243.80173 150.68963 244.22092 152.49565 244.25245 C 155.96875 244.31307 155.09398 246.66023 150.17344 249.90953 C 147.64128 251.6719 145.38455 253.57803 145.097 254.12888 C 144.80946 254.67972 143.24492 256.7369 141.54146 258.79167 C 135.71948 265.9163 137.93741 266.23294 145.69948 259.4201 C 154.59233 251.5153 159.067 249.9258 162.75975 253.32545 C 165.76758 256.15728 168.54606 256.20578 174.70236 253.81184 C 180.30055 251.54713 182.44503 248.1104 184.70833 237.8664 L 186.36987 230.25226 L 198.14376 224.48222 C 204.72896 221.40094 209.2206 218.83898 208.38705 218.82444 C 206.44212 218.79049 194.69006 223.3102 189.3576 226.2744 C 187.25434 227.3494 184.88293 227.86388 184.19558 227.43498 C 181.86055 225.8656 182.7426 223.10166 186.1083 221.35385 L 189.1913 219.87904 L 186.12042 220.65923 C 181.65545 221.69302 182.12072 218.92182 186.8902 216.3647 C 190.39968 214.34147 189.00802 214.45615 183.69253 216.44786 C 182.2936 216.9793 181.60867 216.4115 181.64262 214.46655 C 181.6693 212.9384 180.86243 211.39568 179.7583 210.9595 C 178.5177 210.38198 177.85217 208.70277 178.17367 206.207 C 178.4879 204.12798 178.11477 201.62007 177.43712 200.63548 C 176.62055 199.64846 176.77645 198.67842 177.75862 198.1397 C 178.59944 197.73748 178.89669 196.63093 178.49204 195.92904 C 177.94847 195.22472 178.65279 194.68115 179.9031 194.70297 C 181.15342 194.7248 181.72124 194.03988 181.3166 193.33798 C 180.91437 192.49716 181.75761 191.95602 183.28578 191.9827 C 184.81394 192.00936 186.47133 192.59416 186.87355 193.43498 C 187.2782 194.13687 188.5164 194.85332 189.34993 194.86787 C 191.99191 194.77502 185.94958 190.63952 183.1711 190.59103 C 181.64294 190.56435 180.68744 189.5749 180.71897 187.7689 C 180.74564 186.24073 180.21177 184.98072 179.37823 184.96617 C 178.6836 184.95404 178.00596 183.96945 178.02536 182.85806 C 178.07628 179.94066 175.29295 180.17 175.1031 183.08498 C 175.07643 184.61315 174.39636 183.76748 173.60404 181.39122 C 170.56399 172.44431 174.0238 77.72968 177.5939 72.23334 C 178.73681 70.44673 180.83522 69.64956 184.44724 69.712605 C 189.17066 69.79505 189.9945 70.3653 192.40784 75.41021 Z" fill="#ff0000"/>
        </g>
        <g id="Graphic_288">
          <path d="M 159.85644 164.8922 C 161.62607 167.00758 162.97167 169.53246 162.9547 170.50493 C 162.93772 171.4774 163.73246 173.71473 164.81475 175.40122 C 165.75812 177.08528 167.32579 182.81026 168.20368 188.24527 C 169.084 193.54136 170.63227 200.37773 171.55382 203.31211 C 172.47779 206.10757 172.97528 209.45144 172.53911 210.55556 C 171.96402 211.65725 172.2249 212.63457 173.05843 212.64912 C 175.00337 212.68307 177.78255 220.65266 176.76644 223.13632 C 176.32784 224.37936 176.86171 225.63937 177.96583 226.07554 C 180.03514 226.94546 180.86696 235.02003 178.92203 234.98608 C 178.36633 234.97638 176.58942 233.27777 174.9587 231.1648 C 172.10435 227.50186 171.82892 227.3581 169.29192 229.3983 C 167.88085 230.62437 165.21462 232.10646 163.26241 232.48928 L 159.77234 233.40112 L 163.29636 230.54434 C 166.39876 227.95814 166.40119 227.8192 163.7398 229.02345 C 162.05817 229.8279 159.26757 230.47402 157.46155 230.4425 C 154.54658 230.25265 154.68792 230.11615 158.46797 228.51453 L 162.66722 226.78127 L 158.23862 225.7312 C 155.74769 225.13186 153.6808 224.12302 153.6905 223.56732 C 153.7002 223.01163 155.80346 221.9366 158.32107 221.0078 C 160.69975 220.07654 164.34815 218.05573 166.31976 216.56152 C 168.29137 215.0673 169.00054 214.24588 167.87945 214.78218 C 166.75836 215.31848 164.52345 215.9743 162.99286 216.08655 C 161.32092 216.3353 158.3914 216.979 156.30026 217.3594 C 150.99932 218.51756 151.32324 215.88285 156.64115 213.75222 C 161.11825 212.0238 164.08657 209.15732 159.89218 210.61274 C 157.65485 211.40748 157.51835 211.26614 159.5045 208.93838 C 161.34932 206.74712 161.07147 206.74227 155.8852 209.2921 C 150.41867 211.976 148.33481 211.93963 148.38089 209.30008 C 148.39059 208.74438 149.79438 207.9351 151.60524 207.68876 C 153.97422 207.31322 153.84015 207.03294 150.5084 206.83582 C 146.75987 206.63142 145.8068 205.50306 141.39206 195.69836 C 138.5765 189.81262 136.06789 182.26466 135.56797 179.0597 C 134.9461 174.87986 134.27573 173.4785 132.87679 174.00994 C 129.66214 175.06556 130.68795 172.0262 134.9357 167.51446 C 139.32963 162.58837 148.42274 159.13397 153.4046 160.33266 C 155.3447 160.64445 158.22572 162.77924 159.85644 164.8922 Z" fill="#ff0000"/>
        </g>
        <g id="Graphic_287">
          <path d="M 126.95296 186.96937 L 129.84126 188.68739 L 126.48284 190.01843 L 122.98549 191.34704 L 127.13866 192.25334 C 130.73856 193.011 132.09628 194.84127 137.18624 205.76948 C 143.6218 219.22258 144.98022 228.97394 141.15167 233.35403 C 138.59527 236.50563 129.56764 236.2091 126.84493 232.96534 C 123.84922 229.4389 120.36572 222.01287 120.41665 219.09547 C 120.4409 217.70623 119.22453 215.73947 117.71334 214.74033 C 115.6513 213.45364 114.99063 211.49658 115.06338 207.32886 C 115.15553 202.04974 114.88253 201.76705 112.76957 203.39776 C 110.65419 205.1674 110.52254 204.7482 111.44338 199.76149 C 112.36664 194.63585 112.23014 194.4945 110.38291 196.82468 C 108.25298 199.42787 108.25298 199.42787 108.31117 196.0937 C 108.35725 193.45413 108.08425 193.17144 106.94376 194.81913 C 105.80327 196.46681 105.52784 196.32304 105.56907 193.96133 C 105.61999 191.04393 108.73937 187.48525 112.65349 186.1639 C 116.42869 184.84014 123.9233 185.38786 126.95296 186.96937 Z" fill="#ff0000"/>
        </g>
        <g id="Graphic_286">
          <path d="M 109.70425 211.8212 C 112.17093 213.80978 113.57785 220.78266 111.36234 220.3271 C 110.67014 220.17604 108.87383 219.58882 107.63079 219.15022 C 106.11232 218.56785 105.13743 218.6898 105.12046 219.66227 C 105.09378 221.19043 107.72364 221.7922 113.01002 221.46758 C 115.23523 221.36745 116.33208 222.2204 116.98305 224.73315 C 117.36587 226.68536 118.57739 228.92997 119.6718 229.92184 C 123.2329 232.9023 121.78304 236.35114 115.90701 238.611 C 112.82886 239.80797 109.33878 240.71981 108.08847 240.698 C 105.72676 240.65677 102.11403 232.67263 102.20618 227.39351 C 102.25953 224.3372 102.68115 224.06661 104.88211 225.35573 C 106.67357 226.2208 108.75501 226.3961 110.85342 225.59892 L 114.07292 224.26546 L 110.59982 224.20483 C 105.60098 223.9786 103.69969 221.44403 103.80639 215.33138 C 103.90339 209.77442 105.7288 208.69455 109.70425 211.8212 Z" fill="#ff0000"/>
        </g>
        <g id="Graphic_285">
          <path d="M 158.0692 211.55368 C 158.06434 211.83153 156.80433 212.3654 155.26889 212.7555 C 153.73345 213.1456 152.76583 212.85078 153.33365 212.16586 C 154.0501 210.92766 158.0886 210.4423 158.0692 211.55368 Z" fill="#ff0000"/>
        </g>
        <g id="Graphic_284">
          <path d="M 161.43075 218.0048 C 161.00185 218.69215 159.7394 219.36495 158.90586 219.3504 C 157.9334 219.33343 158.08202 218.78016 159.34689 217.96844 C 162.01554 216.34742 162.57124 216.35712 161.43075 218.0048 Z" fill="#ff0000"/>
        </g>
        <g id="Graphic_283">
          <path d="M 160.07756 239.7989 C 160.86746 242.31408 161.10893 244.4028 160.41431 244.39067 C 159.44185 244.3737 156.24832 236.2579 156.28954 233.8962 C 156.32834 231.6734 158.627 235.32666 160.07756 239.7989 Z" fill="#ff0000"/>
        </g>
        <g id="Graphic_282">
          <path d="M 171.52268 236.94142 C 171.50328 238.0528 170.65276 239.01073 169.8168 239.1351 C 168.56648 239.11328 168.56163 239.39113 169.94117 239.97107 C 170.90636 240.40482 172.96355 241.96936 174.46504 243.5242 C 177.05852 246.20982 177.05367 246.48767 174.64831 248.94708 C 173.37375 250.3145 170.8513 251.52116 169.1842 251.49206 C 165.57218 251.429 161.88428 247.75152 164.53838 246.96405 C 165.79598 246.5691 165.67403 245.5942 164.32601 243.20825 C 162.5685 240.39825 162.71712 239.84498 165.8171 237.3977 C 169.76274 234.27034 171.57118 234.16294 171.52268 236.94142 Z" fill="#ff0000"/>
        </g>
        <g id="Graphic_281">
          <path d="M 180.34107 241.26433 C 179.76597 242.36603 179.1933 243.3288 178.91545 243.32394 C 178.6376 243.3191 178.37673 242.34178 178.39613 241.23038 C 178.41553 240.119 178.9882 239.15622 179.82175 239.17077 C 180.51637 239.1829 180.77724 240.16022 180.34107 241.26433 Z" fill="#ff0000"/>
        </g>
        <g id="Graphic_280">
          <path d="M 211.27206 348.11347 C 211.25993 348.8081 210.27534 349.48573 209.16395 349.46633 C 208.05256 349.44693 207.09222 348.73534 207.10434 348.0407 C 207.1189 347.20718 208.10106 346.66845 209.21245 346.68785 C 210.32384 346.70725 211.2866 347.27992 211.27206 348.11347 Z" fill="#ff0000"/>
        </g>
        <g id="Graphic_279">
          <path d="M 198.00153 352.0508 C 198.40618 352.7527 197.83836 353.43763 196.72697 353.41823 C 195.47665 353.3964 194.5163 352.6848 194.52843 351.9902 C 194.54298 351.15665 195.10838 350.61066 195.803 350.6228 C 196.63654 350.63733 197.5993 351.21 198.00153 352.0508 Z" fill="#ff0000"/>
        </g>
        <g id="Graphic_278">
          <path d="M 209.8125 352.118 C 209.78582 353.64618 205.44765 355.377 204.35566 354.24623 C 203.94617 353.82218 204.51884 352.8594 205.64235 352.1842 C 208.311 350.56318 209.83917 350.58985 209.8125 352.118 Z" fill="#ff0000"/>
        </g>
        <g id="Graphic_277">
          <path d="M 213.19323 190.28127 C 211.21192 192.33118 213.08169 196.67177 215.9991 196.7227 C 218.49972 196.76634 218.86002 192.04778 216.53226 190.06162 C 215.29892 189.06732 214.32402 189.18927 213.19323 190.28127 Z" fill="#cccccc"/>
        </g>
        <g id="Graphic_276">
          <path d="M 190.4097 189.88358 C 190.40485 190.16143 191.36034 191.15087 192.45476 192.14274 C 193.6881 193.13703 194.51922 193.2905 194.53377 192.45696 C 194.5459 191.76234 193.5904 190.7729 192.4887 190.1978 C 191.3846 189.76163 190.41455 189.60573 190.4097 189.88358 Z" fill="#cccccc"/>
        </g>
        <g id="Graphic_275">
          <path d="M 192.09102 212.98133 C 191.6597 213.8076 192.21297 213.95623 193.33164 213.55885 C 195.84924 212.63004 196.283 211.66484 194.33805 211.6309 C 193.5045 211.61634 192.52234 212.15506 192.09102 212.98133 Z" fill="#cccccc"/>
        </g>
        <g id="Graphic_274">
          <path d="M 203.60474 214.15507 C 204.56993 214.58882 205.82267 214.47172 206.24672 214.06222 C 206.8097 213.65515 205.98342 213.22383 204.45283 213.33608 C 202.92467 213.3094 202.50062 213.7189 203.60474 214.15507 Z" fill="#cccccc"/>
        </g>
        <g id="Graphic_273">
          <path d="M 198.1001 226.98285 C 196.9766 227.65808 196.68662 228.34785 197.38124 228.35997 C 198.21478 228.37452 199.75507 227.70657 200.87859 227.03135 C 202.0021 226.35613 202.431 225.6688 201.59746 225.65424 C 200.90284 225.6421 199.22362 226.30763 198.1001 226.98285 Z" fill="#cccccc"/>
        </g>
        <g id="Graphic_272">
          <path d="M 168.91504 266.91263 C 163.95812 272.2458 161.25067 276.0896 161.78212 277.48853 C 162.17949 278.6072 161.15367 281.64655 159.57944 284.25943 C 155.4294 291.1353 156.11189 291.84205 160.67628 285.11237 C 162.81349 282.09242 166.09119 277.42478 167.80435 274.81432 L 171.21855 270.28803 L 167.53862 274.11485 C 165.55731 276.16476 163.8684 277.38598 163.88053 276.69136 C 163.9072 275.1632 168.60081 268.99164 174.4034 262.9784 C 176.6674 260.6555 178.23194 258.5983 177.81517 258.59103 C 177.3984 258.58376 173.44063 262.40573 168.91504 266.91263 Z" fill="#cccccc"/>
        </g>
        <g id="Graphic_271">
          <path d="M 132.70508 271.42233 C 131.14054 273.47952 128.71093 277.32817 127.27562 279.94347 C 124.40014 285.45193 126.80792 282.8536 132.80035 273.9254 C 136.93584 267.88306 136.82602 266.21354 132.70508 271.42233 Z" fill="#cccccc"/>
        </g>
        <g id="Graphic_270">
          <path d="M 161.13498 290.67903 C 158.5519 295.3588 156.51724 300.46504 156.62949 301.99562 C 156.60282 303.5238 157.73846 302.15395 159.05182 298.56375 C 160.36276 295.11247 162.67042 290.28893 164.1033 287.81255 C 165.53862 285.19724 166.5523 282.8525 166.27931 282.5698 C 166.00631 282.2871 163.57913 285.99684 161.13498 290.67903 Z" fill="#cccccc"/>
        </g>
        <g id="Graphic_269">
          <path d="M 162.18402 302.23155 C 162.15735 303.7597 162.56685 304.18376 163.00302 303.07964 C 163.43676 302.11445 163.31967 300.8617 162.91017 300.43766 C 162.5031 299.8747 162.07177 300.70096 162.18402 302.23155 Z" fill="#cccccc"/>
        </g>
        <g id="Graphic_268">
          <path d="M 119.66116 302.18414 C 119.09091 303.008 118.93744 303.8391 119.34694 304.26315 C 119.61751 304.68477 120.32425 304.00227 120.76285 302.75923 C 121.77654 300.4145 120.95027 299.98318 119.66116 302.18414 Z" fill="#cccccc"/>
        </g>
        <g id="Graphic_267">
          <path d="M 116.9149 308.25072 C 116.47631 309.49376 116.02801 311.2925 116.15239 312.12847 C 116.13541 313.10094 116.84458 312.2795 117.57073 310.48563 C 118.29687 308.69174 118.74517 306.893 118.33324 306.60788 C 118.06025 306.3252 117.49243 307.0101 116.9149 308.25072 Z" fill="#cccccc"/>
        </g>
        <g id="Graphic_266">
          <path d="M 128.16329 340.5483 C 128.13661 342.07644 128.54611 342.5005 128.98228 341.39637 C 129.41603 340.4312 129.29893 339.17844 128.88943 338.7544 C 128.48236 338.19142 128.05104 339.0177 128.16329 340.5483 Z" fill="#cccccc"/>
        </g>
        <g id="Graphic_265">
          <path d="M 129.45553 346.1295 C 129.42886 347.65765 129.83835 348.0817 130.27452 346.9776 C 130.70827 346.0124 130.59117 344.75965 130.18167 344.3356 C 129.7746 343.77263 129.34328 344.5989 129.45553 346.1295 Z" fill="#cccccc"/>
        </g>
        <g id="Graphic_264">
          <path d="M 218.097 355.1809 C 216.1254 356.67513 213.60295 357.8818 212.35263 357.85997 C 211.10231 357.83815 209.69853 358.64744 209.26235 359.75156 C 208.8286 360.71675 206.7205 362.0696 204.49044 362.4476 C 200.58117 363.4911 195.6582 366.8793 195.62426 368.82425 C 195.61456 369.37994 198.12974 368.59005 201.07624 366.9739 C 207.52737 363.61233 210.55702 365.19384 205.0711 368.98914 C 199.58273 372.92337 194.50144 377.42056 196.88498 376.21147 C 198.00607 375.67517 200.95742 373.78116 203.2093 372.15287 C 207.43037 369.1693 218.5072 363.52605 220.03538 363.55273 C 222.11924 363.5891 218.45386 366.5824 209.31953 372.3985 C 203.97737 375.91837 199.75388 379.04087 200.02688 379.32357 C 200.84345 380.3106 221.37127 366.6333 224.3493 363.21113 C 225.76763 361.5683 226.05518 361.01744 224.92924 361.8316 C 223.80087 362.78466 222.39708 363.59395 221.8414 363.58425 C 220.03538 363.55273 220.65655 359.81148 222.77193 358.04184 C 224.74354 356.54763 224.53601 352.514 222.45215 352.4776 C 222.03538 352.47033 220.06862 353.6867 218.097 355.1809 Z" fill="#cccccc"/>
        </g>
        <g id="Graphic_263">
          <path d="M 195.37206 383.27234 C 194.37777 384.5057 193.80268 385.60738 194.07325 386.029 C 194.48517 386.3141 195.47461 385.35863 196.47133 383.98636 C 198.47447 380.68614 197.92362 380.3986 195.37206 383.27234 Z" fill="#cccccc"/>
        </g>
        <g id="Graphic_262">
          <path d="M 197.20303 389.8357 L 194.5077 392.9849 L 197.74902 390.4011 C 200.71008 387.9514 201.56302 386.85456 200.45163 386.83516 C 200.17378 386.8303 198.7603 388.1953 197.20303 389.8357 Z" fill="#cccccc"/>
        </g>
        <g id="Graphic_261">
          <path d="M 156.78665 205.41678 C 155.52178 206.2285 155.37316 206.78177 156.34563 206.79874 C 157.17917 206.8133 158.44161 206.1405 158.87051 205.45315 C 160.011 203.80546 159.4553 203.79576 156.78665 205.41678 Z" fill="#cccccc"/>
        </g>
        <g id="Graphic_260">
          <path d="M 165.42074 220.29792 C 162.88616 222.1992 162.88374 222.33813 165.96674 220.8633 C 167.64838 220.05887 169.0546 219.11065 169.05944 218.8328 C 169.07884 217.7214 168.37937 217.98713 165.42074 220.29792 Z" fill="#cccccc"/>
        </g>
        <g id="Graphic_259">
          <path d="M 159.24989 223.5254 C 157.98502 224.33711 157.8364 224.89039 158.80887 224.90736 C 159.64241 224.9219 160.90485 224.24911 161.33375 223.56177 C 162.47424 221.91408 161.91854 221.90438 159.24989 223.5254 Z" fill="#cccccc"/>
        </g>
        <g id="Graphic_258">
          <path d="M 135.78316 214.49987 C 135.77103 215.1945 136.69985 217.7121 137.90652 220.23455 C 139.11561 222.61808 139.62038 225.5452 139.18421 226.6493 C 138.74804 227.75342 139.00891 228.73074 139.70353 228.74287 C 141.7874 228.77924 141.4846 222.24254 139.2029 217.61682 C 137.1918 213.41273 135.82196 212.27709 135.78316 214.49987 Z" fill="#cccccc"/>
        </g>
        <g id="Graphic_257">
          <path d="M 126.8411 217.26208 C 125.00114 219.1755 124.83796 220.5623 125.76193 223.35776 C 126.4226 225.31482 127.7779 227.284 128.46281 227.85183 C 130.38835 228.99717 130.4029 228.16362 128.39421 223.8206 C 127.19725 220.74245 127.35314 219.7724 129.47823 217.44708 C 130.89414 215.94316 131.47166 214.70255 130.63812 214.688 C 129.9435 214.67587 128.25701 215.75816 126.8411 217.26208 Z" fill="#cccccc"/>
        </g>
        <g id="Graphic_256">
          <path d="M 132.73308 230.01086 C 131.60957 230.68608 131.3196 231.37585 132.01422 231.38797 C 132.84776 231.40252 134.38805 230.73458 135.51156 230.05936 C 136.63508 229.38414 137.06398 228.6968 136.23043 228.68224 C 135.53581 228.67012 133.8566 229.33564 132.73308 230.01086 Z" fill="#cccccc"/>
        </g>
      </g>
    </g>
  </g>
</svg>
