<?xml version="1.0" encoding="UTF-8" standalone="no"?>
<svg
   xmlns:dc="http://purl.org/dc/elements/1.1/"
   xmlns:cc="http://creativecommons.org/ns#"
   xmlns:rdf="http://www.w3.org/1999/02/22-rdf-syntax-ns#"
   xmlns:svg="http://www.w3.org/2000/svg"
   xmlns="http://www.w3.org/2000/svg"
   id="svg2"
   version="1.0"
   width="600"
   height="660">
  <metadata
     id="metadata49">
    <rdf:RDF>
      <cc:Work
         rdf:about="">
        <dc:format>image/svg+xml</dc:format>
        <dc:type
           rdf:resource="http://purl.org/dc/dcmitype/StillImage" />
        <dc:title></dc:title>
        <dc:date />
        <dc:creator>
          <cc:Agent>
            <dc:title />
          </cc:Agent>
        </dc:creator>
        <cc:license
           rdf:resource="" />
        <dc:language />
        <dc:subject>
          <rdf:Bag />
        </dc:subject>
      </cc:Work>
    </rdf:RDF>
  </metadata>
  <desc
     id="desc4">Flag of Canton of Valais (Wallis)</desc>
  <defs
     id="defs6">
    <linearGradient
       id="linearGradient2893">
      <stop
         id="stop2895"
         offset="0"
         style="stop-color:white;stop-opacity:0.3137255;" />
      <stop
         style="stop-color:white;stop-opacity:0.25098041;"
         offset="0.19"
         id="stop2897" />
      <stop
         id="stop2901"
         offset="0.60000002"
         style="stop-color:#6b6b6b;stop-opacity:0.1254902;" />
      <stop
         id="stop2899"
         offset="1"
         style="stop-color:black;stop-opacity:0.1254902;" />
    </linearGradient>
    <style
       id="style6"
       type="text/css">
   
    .str0 {stroke:#1F1A17;stroke-linejoin:round}
    .str3 {stroke:#1F1A17;stroke-width:4}
    .str2 {stroke:#1F1A17;stroke-width:8}
    .str1 {stroke:#1F1A17;stroke-width:8;stroke-linejoin:round}
    .str4 {stroke:#1F1A17;stroke-width:17;stroke-linejoin:round}
    .fil6 {fill:none}
    .fil8 {fill:#007CC3}
    .fil0 {fill:#00923F}
    .fil4 {fill:#1F1A17}
    .fil2 {fill:#FFF500}
    .fil1 {fill:#FEFEFE}
   
  </style>
  </defs>
  <g
     id="layer4">
    <g
       style="fill-rule:evenodd"
       transform="matrix(0.144,0.016,-0.016,0.14,1970,318)"
       id="g3355" />
    <g
       style="fill-rule:evenodd"
       id="g2531"
       transform="matrix(0.084,0.009,-0.009,0.084,2000,370)" />
    <g
       transform="matrix(-1,0,0,1,611,0)"
       id="g5779">
      <path
         style="fill:#000000"
         d="m 433,538 c 3,0 6,-1 6,-1 1,-1 -7,-12 -12,-17 -2,-2 -6,-5 -9,-6 -2,-1 -6,-4 -8,-7 -7,-7 -8,-11 -6,-39 1,-20 2,-24 4,-30 2,-6 3,-10 4,-22 0,-15 1,-17 8,-39 0,-1 1,-1 3,1 9,6 21,7 32,3 10,-4 27,-12 32,-14 3,-2 7,-2 10,0 5,5 4,33 -2,38 -1,1 -4,3 -7,4 -4,3 -4,3 -4,6 0,3 0,4 2,5 3,1 3,2 0,4 -2,1 -7,1 -15,-1 -6,-2 -7,-1 -11,6 -4,8 -6,26 -4,26 4,0 13,-4 18,-7 4,-4 6,-4 17,-5 7,-1 13,-2 14,-3 7,-3 9,-11 12,-33 2,-17 3,-24 6,-35 2,-9 2,-14 -3,-21 -5,-9 -11,-10 -26,-7 -13,2 -33,2 -39,1 l -3,-1 5,-10 c 6,-15 8,-28 8,-43 -1,-7 -2,-18 -3,-25 -1,-7 -1,-13 -1,-13 0,-1 5,-1 11,-1 5,0 11,-1 12,-1 4,-1 6,3 5,9 -1,5 1,9 5,12 5,3 9,3 10,0 1,-5 1,-15 -1,-18 -1,-3 -1,-3 1,-4 2,0 5,5 6,13 1,6 3,8 8,9 3,1 8,-1 8,-3 0,-1 3,-5 8,-9 6,-7 7,-9 7,-12 0,-2 -1,-5 -2,-7 -5,-6 -8,-11 -11,-23 -3,-14 -4,-26 -2,-30 3,-7 1,-14 -13,-34 l -7,-11 2,-6 c 1,-3 4,-8 6,-12 2,-3 3,-7 3,-7 0,0 -5,0 -12,-1 -11,0 -17,2 -24,8 -3,2 -4,2 -8,1 -5,-1 -12,0 -17,3 -1,0 -5,1 -8,1 -5,0 -10,1 -13,4 0,1 -3,2 -4,3 -5,1 -11,4 -13,6 -2,2 -3,3 -4,3 -1,0 -4,1 -7,2 -6,3 -12,10 -16,18 -1,2 -2,3 -3,3 -1,0 -3,1 -5,3 -4,3 -7,9 -8,14 0,2 -2,5 -4,8 -4,4 -7,12 -8,18 -1,5 -2,7 -3,7 -3,0 -5,1 -5,1 1,14 -1,14 -1,14 -58,35 -69,28 -105,17 -11,-4 -25,-8 -35,-9 -28,-4 -45,-2 -61,7 l -8,5 -5,-5 c -6,-5 -18,-11 -26,-13 -6,-2 -18.4,-2 -24.1,-1 -6.8,2 -13.2,8 -16.7,14 -2.7,6 -2.9,7 -2.6,15 0.4,8 1.5,12 5.4,24 6.4,19 8.5,31 8.7,53 0.1,18 -1.1,51 -2.1,58 -0.4,3 -0.3,4 0,4 0.7,0 9.7,-18 12.8,-25 1.1,-3 3.1,-9 4.5,-14 l 2.1,-8 v 12 c 0,13 -2.6,24 -7.5,41 -1.5,5 -3,10 -3.4,11 -0.6,2 -0.5,2 1.6,0 1.3,-1 2.3,-3 2.3,-3 0,0 2.6,-4 6,-9 3,-4 7,-11 9,-14 2,-4 4,-7 4,-6 0,0 -1,7 -3,15 -2,8 -3,15 -3,15 0,2 10,-15 14,-23 8,-16 11,-29 11,-46 0,-16 -3,-27 -12,-49 -6,-13 -6,-14 -6,-22 0,-8 2,-13 6,-14 2,-1 13,3 14,5 0,0 0,4 -1,9 -4,19 0,41 10,60 6,12 7,14 3,26 -4,20 -12,37 -20,44 -6,4 -9,12 -9,21 0,5 0,7 3,10 6,7 16,38 19,61 3,16 3,15 6,17 4,1 7,0 7,-3 0,-3 4,-1 6,2 2,2 3,6 3,11 1,5 1,9 1,9 0,0 5,0 10,1 11,2 24,1 24,-2 2,-6 -9,-19 -19,-25 -7,-3 -8,-5 -17,-19 -6,-11 -10,-20 -13,-38 -3,-18 -3,-20 -1,-26 3,-7 6,-9 19,-16 5,-3 11,-7 12,-8 2,-2 4,-3 4,-3 1,0 0,5 -4,14 l -3,8 2,6 c 3,9 6,10 21,11 11,1 26,3 36,6 5,1 8,5 8,10 0,5 1,7 5,7 3,0 3,0 4,-3 0,-2 1,-3 1,-3 2,0 4,9 3,12 0,2 -1,6 -1,10 l -1,6 5,3 c 5,3 19,6 24,5 3,-1 4,-1 4,-1 0,-2 -3,-11 -8,-21 -4,-7 -6,-14 -7,-19 -3,-16 -9,-21 -28,-24 -23,-4 -34,-9 -34,-17 0,-4 1,-5 11,-15 6,-6 14,-14 17,-19 3,-4 6,-8 7,-8 2,0 14,9 18,12 l 3,4 3,-4 c 2,-2 5,-5 6,-5 1,0 6,0 10,2 10,3 23,5 32,6 43,1 49,-4 57,-4 3,18 9,39 9,54 0,8 0,17 1,23 2,9 2,15 1,29 0,23 0,27 1,30 3,5 7,5 9,1 l 1,-4 3,3 c 2,3 2,4 2,14 0,7 0,7 3,8 5,2 24,3 30,1 z"
         id="path3874" />
      <path
         style="fill:#ffffff"
         d="m 408,535 -5,-1 v -5 -5 l 6,-2 c 10,-3 12,-3 15,0 3,2 10,11 10,12 0,2 -19,2 -26,1 z"
         id="path3872" />
      <path
         style="fill:#ffffff"
         d="m 168,533 c -2,-1 -2,-2 -2,-6 0,-6 0,-6 11,-8 6,-1 6,-1 10,2 2,2 4,6 5,8 l 2,4 -4,1 c -5,1 -19,0 -22,-1 z"
         id="path3870" />
      <path
         style="fill:#ffffff"
         d="m 103,238 c -1,0 -2,0 -3.2,0 -11.9,0 -18.2,4 -22.8,11 -2.5,5 -2.9,6 -2.9,14 0,8 0.6,11 4,21 9,25 11.5,46 9.5,81 -0.6,12 -0.9,22 -0.7,22 0.8,1 4.5,-7 8.2,-18 3.4,-10 3.5,-10 3.6,-27 0,-16 0.2,-17 1.3,-13 3,11 6,25 6,35 0,10 -3,31 -6,36 -0.9,3 -0.9,3 1,1 4,-4 12,-20 15,-29 4,-9 4,-9 4,-4 0,4 -2,18 -4,29 l -1,3 2,-4 c 4,-5 9,-19 11,-29 2,-12 1,-31 -2,-43 -1,-4 -5,-14 -8,-22 -6,-14 -6,-15 -6,-24 0,-8 0,-9 3,-13 4,-5 7,-6 15,-2 10,4 10,3 8,10 -5,19 -2,42 9,63 4,9 14,20 26,29 11,8 15,16 14,29 -1,8 -5,23 -8,26 -1,2 1,9 5,13 2,2 3,3 11,3 9,0 28,3 39,6 7,2 7,2 9,7 1,2 2,5 2,7 0,4 3,4 3,0 0,-2 1,-3 3,-3 4,-1 6,2 7,9 l 1,5 h 7 c 4,0 7,0 7,0 0,0 -2,-3 -3,-7 -2,-4 -3,-9 -3,-11 0,-5 -4,-11 -10,-14 -2,-2 -11,-4 -20,-6 -17,-3 -22,-5 -27,-10 -3,-3 -4,-5 -4,-8 0,-6 2,-9 13,-19 9,-8 15,-16 22,-28 l 4,-7 v -13 c 0,-16 2,-14 3,3 v 11 l 11,5 c 14,7 30,12 45,15 12,2 38,1 47,0 v 1 l 18,-2 c 2,0 5,-1 5,-1 0,0 0,-4 -1,-8 -1,-12 -2,-30 -1,-27 1,3 3,15 6,41 2,17 6,27 7,50 0,7 1,18 2,24 1,10 1,17 1,35 -1,19 -1,22 1,24 1,1 1,1 2,-2 2,-5 7,-4 11,3 2,4 2,4 9,2 l 5,-1 -4,-3 c -5,-4 -8,-8 -10,-15 -2,-6 -3,-11 -1,-36 1,-15 2,-20 4,-26 2,-6 3,-10 3,-20 1,-13 1,-15 9,-43 4,-13 5,-18 5,-30 1,-8 1,-15 2,-15 1,-1 0,32 -1,36 l -1,3 5,-2 c 11,-6 18,-14 26,-31 7,-16 8,-22 8,-39 0,-9 -1,-20 -2,-29 -1,-8 -2,-15 -2,-15 0,0 -7,0 -15,-1 -7,0 -17,-1 -21,-2 -11,-1 -30,-6 -33,-7 -2,-1 0,2 0,5 0,2 0,4 -1,6 0,2 -1,1 -3,-4 -2,-5 -2,-8 -7,-9 -5,-2 -9,-5 -8,-2 1,1 5,9 6,11 v 3 l -4,-4 c -2,-2 -4,-4 -4,-5 -1,0 -4,-6 -5,-7 -2,-2 -7,3 -7,3 -36,19 -60,30 -92,20 -5,-1 -38,-12 -44,-13 -17,-3 -40,-3 -49,0 -8,2 -15,5 -21,9 l -4,4 -5,-6 c -7,-6 -14,-10 -24,-13 -5,-2 -8,-2 -13,-2 z"
         id="path3868" />
      <path
         style="fill:#ffffff"
         d="m 165,518 c 0,-1 -2,-3 -4,-5 -4,-4 -10,-5 -11,-1 -1,2 -3,2 -4,0 0,-1 -1,-6 -2,-11 -2,-14 -11,-46 -16,-57 -1,-2 -3,-5 -4,-7 -3,-4 -3,-4 -3,-10 1,-8 4,-14 9,-18 2,-1 4,-3 5,-5 9,-17 14,-31 17,-44 0,-4 1,-8 2,-8 0,0 2,1 3,3 2,1 7,6 11,9 5,4 10,9 11,10 3,4 6,15 5,18 -1,3 -11,11 -22,17 -14,8 -21,18 -20,30 4,27 9,44 17,54 1,2 3,5 4,8 3,5 6,7 12,11 2,2 3,3 3,3 0,1 -10,3 -13,4 0,0 0,0 0,-1 z"
         id="path3866" />
      <path
         style="fill:#ffffff"
         d="m 271,488 c -3,-1 -7,-2 -10,-3 -4,-2 -4,-3 -4,-7 0,-6 1,-8 9,-8 3,0 6,0 7,0 3,2 10,17 8,18 -1,1 -3,1 -10,0 z"
         id="path3864" />
      <path
         style="fill:#000000"
         d="m 113,322 c -1,-1 -3,-8 -6,-15 -6,-17 -8.5,-30 -7,-38 2,-7 5,-10 11,-12 5,-2 13,0 23,4 9,4 10,2 0,-2 -15,-8 -31,-10 -39.6,-7 -5.7,2 -8,7 -7.9,17 0,4 0.7,10 1.5,13 l 1.6,5 -0.6,-4 c -1.2,-9 -0.7,-19 1.1,-23 2.3,-5 5.2,-6 12.9,-7 7,-1 11,1 5,2 -4,1 -8.4,6 -9.4,11 -0.4,2 -0.4,8 -0.1,14 0.6,10 2.5,15 9.5,34 4,10 6,13 5,8 z"
         id="path3860" />
      <path
         style="fill:#ffffff"
         d="m 459,449 c 0,-5 3,-17 5,-20 2,-4 3,-4 6,-4 5,1 6,3 5,10 0,8 -1,10 -8,13 -6,3 -8,3 -8,1 z"
         id="path3858" />
      <path
         style="fill:#ffffff"
         d="m 478,435 v -7 h 3 c 6,0 11,-3 11,-6 1,-3 0,-5 -4,-5 -3,0 -1,-3 2,-5 9,-4 12,-9 13,-24 1,-11 -1,-20 -5,-24 -3,-3 -8,-3 -20,3 -4,2 -10,5 -13,6 -20,9 -31,9 -41,1 l -3,-2 8,-4 c 8,-4 15,-10 19,-18 1,-2 3,-3 3,-3 1,1 5,1 9,2 9,1 24,0 39,-3 10,-2 15,1 20,10 2,4 2,8 1,13 -2,5 -5,27 -7,44 -2,13 -4,21 -8,24 -1,1 -14,3 -25,4 -2,0 -2,-1 -2,-6 z"
         id="path3856" />
      <path
         style="fill:#ffffff"
         d="m 496,269 c -3,-1 -4,-3 -3,-10 0,-2 0,-5 -1,-6 -1,-2 0,-4 4,-4 3,0 7,19 5,21 -1,1 -1,1 -5,-1 z"
         id="path3822" />
      <path
         style="fill:#ffffff"
         d="m 513,261 c 0,-3 -2,-7 -3,-10 -3,-6 -2,-7 9,-14 9,-6 10,-7 10,-4 0,0 2,4 5,7 2,3 4,7 4,9 0,1 -2,4 -6,8 -3,3 -7,7 -9,9 -3,4 -3,4 -6,2 -3,-1 -4,-2 -4,-7 z"
         id="path3820" />
      <path
         style="fill:#000000"
         d="m 527,254 c 3,-5 1,-11 -3,-11 -3,0 -5,1 -6,4 -2,3 -2,4 1,1 2,-2 3,-3 4,-2 2,1 3,4 2,7 0,3 1,4 2,1 z"
         id="path3818" />
      <path
         style="fill:#ffffff"
         d="m 412,245 c -14,-4 -49,-9 -53,-16 v -6 l 5,1 c 3,1 11,3 18,5 7,2 15,4 17,4 6,2 24,5 37,7 8,2 18,2 35,2 13,0 23,1 23,1 0,1 0,2 1,3 0,2 -5,2 -40,2 -23,0 -32,-1 -43,-3 z"
         id="path3816" />
      <path
         style="fill:#ffffff"
         d="m 499,246 c -3,-1 -3,-7 0,-8 5,-3 10,3 6,7 -2,3 -3,3 -6,1 z"
         id="path3814" />
      <path
         style="fill:#ffffff"
         d="m 508,236 c 1,-1 5,-4 9,-6 6,-4 9,-5 9,-4 1,2 1,3 -8,8 -7,5 -9,5 -9,4 -1,-1 -1,-2 -1,-2 z"
         id="path3806" />
      <path
         style="fill:#ffffff"
         d="m 482,236 c -2,-2 -6,-6 -9,-7 -6,-4 -12,-12 -15,-19 -2,-5 -2,-19 0,-25 0,-3 0,-3 -1,-3 -4,1 -7,25 -6,41 1,5 1,11 2,13 1,4 1,4 -3,3 -22,-3 -42,-6 -55,-9 -3,-1 -7,-2 -8,-2 -4,-1 -5,-6 -5,-15 v -7 l 2,3 c 2,4 7,8 13,11 2,1 5,4 7,6 4,4 4,4 4,2 0,-3 0,-4 -8,-16 -2,-4 -3,-6 -3,-13 0,-8 0,-10 3,-14 l 4,-5 v 7 c 1,8 3,11 10,13 2,1 5,2 6,3 1,1 2,1 2,1 0,-1 -2,-5 -5,-8 -3,-5 -3,-12 1,-18 6,-9 8,-11 7,-7 -1,4 1,8 4,10 5,2 6,1 6,-5 v -6 l 6,-5 c 5,-3 7,-4 6,-3 -2,5 -2,10 -1,13 2,3 5,4 6,0 0,-2 1,-3 2,-1 1,1 3,2 3,2 2,0 5,6 5,9 0,1 0,1 1,1 0,0 2,2 3,5 3,8 13,25 20,37 4,6 7,11 7,11 0,1 -2,1 -3,1 -3,0 -5,-1 -8,-4 z"
         id="path3804" />
      <path
         style="fill:#000000"
         d="m 469,217 c -4,-5 -7,-12 -8,-20 l -1,-6 v 7 c 0,3 0,8 1,10 1,4 6,9 10,12 2,1 1,0 -2,-3 z"
         id="path3802" />
      <path
         style="fill:#000000"
         d="m 462,189 c 0,-1 0,-2 -1,-1 0,0 0,1 0,2 1,1 1,0 1,-1 z"
         id="path3800" />
      <path
         style="fill:#ffffff"
         d="m 486,222 c -4,-7 -11,-20 -16,-29 l -8,-16 3,-2 3,-1 2,4 c 3,7 16,33 23,45 6,10 6,11 4,12 -2,2 -2,2 -11,-13 z"
         id="path3796" />
      <path
         style="fill:#ffffff"
         d="m 494,220 c -9,-17 -22,-44 -23,-48 -1,-3 0,-3 5,-5 3,-1 12,-5 20,-8 7,-2 13,-5 14,-5 0,0 7,11 11,18 1,3 3,7 3,10 0,3 0,3 -3,3 -4,0 -6,-1 -9,-7 -3,-5 -8,-9 -12,-9 -2,0 -5,1 -7,2 l -5,2 h 6 c 9,-1 11,0 16,6 2,3 6,7 8,8 3,2 3,2 3,10 0,5 1,12 2,15 1,3 2,7 2,8 0,2 -20,15 -22,14 0,0 -4,-7 -9,-14 z"
         id="path3794" />
      <path
         style="fill:#000000"
         d="m 510,192 c 0,-4 -1,-6 -3,-9 -1,-1 -3,-2 -3,-3 -1,-2 -1,-2 -7,-1 -5,0 -6,0 -6,1 0,0 1,1 1,3 0,1 0,2 2,4 1,1 2,1 4,1 2,0 4,-1 5,-1 1,-1 2,-2 2,-2 2,0 3,2 4,5 1,5 2,6 1,2 z"
         id="path3792" />
      <path
         style="fill:#ffffff"
         d="m 495,185 c -1,0 -1,-1 -1,-2 v -2 l 2,2 c 1,1 2,2 2,2 1,0 3,-2 2,-3 0,-1 0,-1 1,-1 1,0 1,4 0,5 -1,1 -5,1 -6,-1 z"
         id="path3790" />
      <path
         style="fill:#ffffff"
         d="m 373,224 c -4,-2 -8,-3 -8,-3 0,0 0,-4 1,-8 2,-8 4,-14 9,-19 1,-2 3,-6 4,-9 0,-4 2,-6 5,-9 4,-4 6,-5 6,-1 0,3 1,2 2,-2 3,-11 12,-21 21,-24 2,0 2,0 1,2 -1,3 1,3 2,-1 2,-4 11,-10 15,-10 2,0 2,0 0,4 -2,5 0,3 3,-3 2,-3 5,-6 7,-7 2,-1 10,-2 10,-1 0,1 -1,3 -2,6 -4,7 -2,7 1,0 3,-4 5,-6 8,-7 5,-2 15,-3 18,-1 1,1 0,3 -4,9 -1,2 -3,5 -3,8 -2,9 -4,13 -10,16 -4,2 -6,4 -7,7 -2,3 -3,4 -3,3 -2,-2 -1,-8 2,-13 1,-3 2,-7 2,-8 v -4 l -2,4 c -2,5 -8,11 -13,13 -5,1 -6,4 -6,9 1,3 0,4 -2,4 -5,-1 -4,-13 2,-20 2,-4 2,-4 -2,0 -7,8 -15,19 -16,23 -2,4 -1,12 1,14 3,2 2,3 -1,2 -2,-1 -4,-2 -6,-4 -3,-4 -2,-13 2,-21 2,-4 3,-7 3,-7 -1,0 -2,2 -3,4 -2,2 -5,7 -7,10 -10,12 -11,22 -3,35 4,7 5,9 2,6 -1,0 -4,-3 -7,-4 -7,-4 -9,-7 -12,-14 -1,-3 -2,-6 -2,-6 -1,-1 -2,21 -1,25 1,2 1,4 1,4 0,0 -4,-1 -8,-2 z"
         id="path3788" />
      <path
         style="fill:#ffffff"
         d="m 458,172 c -4,-1 -3,-2 3,-6 l 6,-3 v 4 c 0,5 -4,8 -9,5 z"
         id="path3786" />
      <path
         style="fill:#ffffff"
         d="m 470,163 c 0,-3 -1,-2 21,-11 l 13,-5 2,2 c 1,1 2,3 1,3 0,0 -8,3 -17,6 -9,4 -17,7 -18,7 -1,0 -2,-1 -2,-2 z"
         id="path3784" />
      <path
         style="fill:#ffffff"
         d="m 470,152 c 0,-3 1,-7 2,-10 2,-3 2,-3 3,-1 0,2 1,1 1,-2 2,-9 10,-16 21,-18 3,-1 8,-1 11,0 h 4 l -3,6 c -2,3 -4,8 -5,11 l -1,6 -16,7 c -9,3 -16,6 -17,6 0,0 0,-2 0,-5 z"
         id="path3782" />
      <path
         style="fill:#000000"
         d="m 499,142 c 0,0 2,-4 3,-8 2,-4 3,-7 3,-8 -1,-1 -7,-1 -12,2 -4,2 -7,5 -10,10 -2,2 -1,1 2,-2 4,-4 6,-5 11,-6 3,-1 6,-1 6,-1 1,0 0,3 -2,6 -1,4 -2,7 -1,8 0,1 0,1 0,-1 z"
         id="path3780" />
      <path
         style="fill:#ffffff"
         d="m 258,373 c -3,-3 -7,-5 -9,-6 -5,-3 -5,-3 -3,-5 0,-1 3,0 12,4 7,3 12,6 12,6 1,0 -1,2 -2,3 -4,3 -3,3 -10,-2 z"
         id="path3832" />
      <g
         id="layer4-0"
         style="display:inline;stroke-width:6.048;stroke-miterlimit:4;stroke-dasharray:none"
         transform="matrix(-0.166,0.012,0.012,0.166,348,25.2)">
        <g
           style="display:inline;stroke-width:3.316;stroke-miterlimit:4;stroke-dasharray:none"
           id="g5575"
           transform="matrix(1.82,0,0,1.82,29.8,56.4)">
          <g
             transform="translate(-583,-288)"
             id="g3250"
             style="stroke-width:3.316;stroke-miterlimit:4;stroke-dasharray:none">
            <path
               d="m 809,518 c 1,-2 -12,-37 -11,-39 6,-14 18,-27 22,-34 5,-8 4,-9 5,-12 8,-26 0,-50 -17,-64 -13,-10 -20,-17 -39,-25 -28,-10 -62,-5 -83,16 -5,5 -9,13 -13,19 -5,6 -10,10 -11,15 -1,5 3,11 2,16 -4,7 -35,37 -24,45 3,1 9,0 14,0 5,0 9,2 9,2 0,0 -4,-2 -6,0 -2,2 -2,8 -1,11 1,3 3,3 3,5 0,2 -2,6 -1,8 1,2 5,2 7,3 2,1 2,3 1,5 -1,2 -3,4 -3,8 0,4 2,10 7,12 5,2 13,0 20,1 7,1 24,-4 28,0 4,4 -1,14 2,17 3,2 3,6 7,7 z"
               class="Fleisch Rand2"
               id="carlo-1"
               style="fill:#ffffff;stroke:#000000;stroke-width:6.587;stroke-miterlimit:4;stroke-dasharray:none" />
            <path
               d="m 658,456 c 3,1 6,2 9,0 2,-1 4,-5 4,-8 0,-3 -2,-5 -4,-6 -2,-1 -4,-1 -6,-1"
               class="Rand2"
               id="clinie-1"
               style="fill:none;stroke:#000000;stroke-width:6.632;stroke-miterlimit:4;stroke-dasharray:none" />
            <path
               d="m 674,474 -13,-1"
               class="Rand2"
               id="clinie-2"
               style="fill:none;stroke:#000000;stroke-width:6.632;stroke-miterlimit:4;stroke-dasharray:none" />
            <path
               d="m 793,429 c -2,6 -4,12 -6,17 -3,5 -6,9 -9,12 -3,4 -6,7 -9,9 -4,2 -8,3 -10,2 -3,-1 -4,-4 -5,-7"
               class="Rand2"
               id="clinie-3"
               style="fill:none;stroke:#000000;stroke-width:6.632;stroke-miterlimit:4;stroke-dasharray:none" />
            <path
               d="m 690,429 c -3,0 -6,-1 -8,-2 -2,-1 -2,-2 -2,-4 -1,-2 -1,-4 0,-5 1,-1 3,-1 6,0 3,1 7,3 10,4 3,1 5,1 7,1"
               class="Rand2"
               id="clinie-4"
               style="fill:none;stroke:#000000;stroke-width:4.94;stroke-miterlimit:4;stroke-dasharray:none" />
            <path
               d="m 673,405 c 3,-1 6,-2 10,-3 3,0 7,0 12,1 4,2 9,5 14,8"
               class="Rand2"
               id="clinie-5"
               style="fill:none;stroke:#000000;stroke-width:6.632;stroke-miterlimit:4;stroke-dasharray:none" />
            <path
               d="m 772,429 c 2,-1 4,-2 6,0 1,3 2,9 1,13 -2,5 -6,8 -9,9 -3,1 -5,0 -7,-1"
               class="Rand2"
               id="clinie-6"
               style="fill:none;stroke:#000000;stroke-width:6.632;stroke-miterlimit:4;stroke-dasharray:none" />
            <path
               d="m 687,423 c 0,-2 -1,-3 -3,-3 -1,0 -3,1 -3,3 0,1 2,2 3,2 2,0 3,-1 3,-2 z"
               class="Schwarz"
               id="auge-1"
               style="fill:#000000;stroke:none" />
          </g>
          <g
             style="stroke-width:3.316;stroke-miterlimit:4;stroke-dasharray:none"
             id="g4772">
            <path
               d="m 116,14.7 c 5,0 9,-1.8 14,-1.5 5,0.3 9,-1.2 14,-0.6 5,0.6 9,5.4 14,6.3 5,1 7,2.1 12,3.4 4,1.2 9,2.7 13,4.3 5,1.6 13,-0.6 17,1.3 4,2 5,8.1 8,10.4 4,2.3 12,-1.2 16,1.5 3,2.7 3,11.6 6,14.7 3,3 10,2.3 13,5.7 3,3.5 -1,9.1 2,13 2,3.8 10,3.9 12,8.1 2,4.3 -3,12.8 -2,17.4 2,4.3 8,5.3 9,10.3 0,6 -1,15 -2,20 -8,12 -36,38 -46,63 -1,-2 -2,-13 -4,-17 -2,-3 -5,-5 -7,-8 -1,-2 -1,-5 0,-10 1,-4 3,-10 3,-15 0,-5 -2,-9 -6,-12 -4,-3 -10,-5 -15,-2 -5,3 -9,11 -13,15 -4,4 -8,4 -11,-2 -3,-6 -5,-18 -5,-24 0,-6 2,-6 4,-8 2,-2 14,-26 7,-35.4 C 163,64.5 115,69 111,63 113,19.2 93.9,12.1 102,13.1 c 5,-0.2 9,1.6 14,1.6 z"
               class="Schwarz Rand2"
               id="haar-1"
               style="fill:#ffffff;stroke:#000000;stroke-width:6.632;stroke-miterlimit:4;stroke-dasharray:none" />
            <path
               style="fill:none;stroke:#000000;stroke-width:3.316;stroke-linecap:butt;stroke-linejoin:miter;stroke-miterlimit:4;stroke-dasharray:none;stroke-opacity:1"
               d="m 109,17.5 c 8,14.2 10,28.6 10,46.5"
               id="path4630" />
            <path
               style="fill:none;stroke:#000000;stroke-width:3.316;stroke-linecap:butt;stroke-linejoin:miter;stroke-miterlimit:4;stroke-dasharray:none;stroke-opacity:1"
               d="m 118,18 c 6,13.1 5,34.6 7,45.5"
               id="path4632" />
            <path
               style="fill:none;stroke:#000000;stroke-width:3.316;stroke-linecap:butt;stroke-linejoin:miter;stroke-miterlimit:4;stroke-dasharray:none;stroke-opacity:1"
               d="m 128,20.5 c 4,14.5 3,32.4 3,46.5"
               id="path4634" />
            <path
               style="fill:none;stroke:#000000;stroke-width:3.316;stroke-linecap:butt;stroke-linejoin:miter;stroke-miterlimit:4;stroke-dasharray:none;stroke-opacity:1"
               d="m 136,66.5 c -2,-13 -2,-30.9 0,-43"
               id="path4636" />
            <path
               style="fill:none;stroke:#000000;stroke-width:3.316;stroke-linecap:butt;stroke-linejoin:miter;stroke-miterlimit:4;stroke-dasharray:none;stroke-opacity:1"
               d="m 143,67.5 c -1,-15.1 -2,-32 0,-46.5"
               id="path4638" />
            <path
               style="fill:none;stroke:#000000;stroke-width:3.316;stroke-linecap:butt;stroke-linejoin:miter;stroke-miterlimit:4;stroke-dasharray:none;stroke-opacity:1"
               d="m 150,68 c -1,-11.9 0,-24.6 2,-35.5"
               id="path4640" />
            <path
               style="fill:none;stroke:#000000;stroke-width:3.316;stroke-linecap:butt;stroke-linejoin:miter;stroke-miterlimit:4;stroke-dasharray:none;stroke-opacity:1"
               d="m 156,69 c 1,-16.7 2,-34.8 6,-49.5"
               id="path4680" />
            <path
               style="fill:none;stroke:#000000;stroke-width:3.316;stroke-linecap:butt;stroke-linejoin:miter;stroke-miterlimit:4;stroke-dasharray:none;stroke-opacity:1"
               d="m 163,69 c -1,-16.5 4,-31.5 8,-43"
               id="path4682" />
            <path
               style="fill:none;stroke:#000000;stroke-width:3.316;stroke-linecap:butt;stroke-linejoin:miter;stroke-miterlimit:4;stroke-dasharray:none;stroke-opacity:1"
               d="M 167,71.5 C 168,54.2 177,37.2 182,29"
               id="path4684" />
            <path
               style="fill:none;stroke:#000000;stroke-width:3.316;stroke-linecap:butt;stroke-linejoin:miter;stroke-miterlimit:4;stroke-dasharray:none;stroke-opacity:1"
               d="m 171,75 c 3,-17.6 14,-30.6 26,-40.5"
               id="path4686" />
            <path
               style="fill:none;stroke:#000000;stroke-width:3.316;stroke-linecap:butt;stroke-linejoin:miter;stroke-miterlimit:4;stroke-dasharray:none;stroke-opacity:1"
               d="m 171,78 c 2,-21.6 22,-29.3 33,-40.5"
               id="path4688" />
            <path
               style="fill:none;stroke:#000000;stroke-width:3.316;stroke-linecap:butt;stroke-linejoin:miter;stroke-miterlimit:4;stroke-dasharray:none;stroke-opacity:1"
               d="m 211,145 c 14,-4 40,-25 47,-40"
               id="path4716" />
            <path
               style="fill:none;stroke:#000000;stroke-width:3.316;stroke-linecap:butt;stroke-linejoin:miter;stroke-miterlimit:4;stroke-dasharray:none;stroke-opacity:1"
               d="m 210,154 c 15,-4 36,-22 42,-35"
               id="path4718" />
            <path
               style="fill:none;stroke:#000000;stroke-width:3.316;stroke-linecap:butt;stroke-linejoin:miter;stroke-miterlimit:4;stroke-dasharray:none;stroke-opacity:1"
               d="m 208,164 c 18,-9 41,-29 48,-46"
               id="path4720" />
            <path
               style="fill:none;stroke:#000000;stroke-width:3.316;stroke-linecap:butt;stroke-linejoin:miter;stroke-miterlimit:4;stroke-dasharray:none;stroke-opacity:1"
               d="m 214,174 c 21,-14 33,-35 43,-56"
               id="path4722" />
            <path
               style="fill:none;stroke:#000000;stroke-width:3.316;stroke-linecap:butt;stroke-linejoin:miter;stroke-miterlimit:4;stroke-dasharray:none;stroke-opacity:1"
               d="m 211,138 c 19,-4 29,-19 39,-32"
               id="path4724" />
            <path
               style="fill:none;stroke:#000000;stroke-width:3.316;stroke-linecap:butt;stroke-linejoin:miter;stroke-miterlimit:4;stroke-dasharray:none;stroke-opacity:1"
               d="m 207,128 c 10,-12 36,-33.8 39,-50.5"
               id="path4726" />
            <path
               style="fill:none;stroke:#000000;stroke-width:3.316;stroke-linecap:butt;stroke-linejoin:miter;stroke-miterlimit:4;stroke-dasharray:none;stroke-opacity:1"
               d="m 208,135 c 12,-13 39,-29 43,-47"
               id="path4728" />
            <path
               style="fill:none;stroke:#000000;stroke-width:3.316;stroke-linecap:butt;stroke-linejoin:miter;stroke-miterlimit:4;stroke-dasharray:none;stroke-opacity:1"
               d="m 201,124 c 9,-11 33,-42.6 39,-54.2"
               id="path4730" />
            <path
               style="fill:none;stroke:#000000;stroke-width:3.316;stroke-linecap:butt;stroke-linejoin:miter;stroke-miterlimit:4;stroke-dasharray:none;stroke-opacity:1"
               d="m 164,137 c 22,-13 51,-49.4 62,-80.5"
               id="path4732" />
            <path
               style="fill:none;stroke:#000000;stroke-width:3.316;stroke-linecap:butt;stroke-linejoin:miter;stroke-miterlimit:4;stroke-dasharray:none;stroke-opacity:1"
               d="m 160,131 c 21,-12 56,-56.3 61,-81.5"
               id="path4734" />
            <path
               style="fill:none;stroke:#000000;stroke-width:3.316;stroke-linecap:butt;stroke-linejoin:miter;stroke-miterlimit:4;stroke-dasharray:none;stroke-opacity:1"
               d="m 160,121 c 16,-13 54,-51.9 57,-75"
               id="path4736" />
            <path
               style="fill:none;stroke:#000000;stroke-width:3.316;stroke-linecap:butt;stroke-linejoin:miter;stroke-miterlimit:4;stroke-dasharray:none;stroke-opacity:1"
               d="m 184,128 c 14,-13 43,-50.7 47,-69.2"
               id="path4740" />
            <path
               style="fill:none;stroke:#000000;stroke-width:3.316;stroke-linecap:butt;stroke-linejoin:miter;stroke-miterlimit:4;stroke-dasharray:none;stroke-opacity:1"
               d="M 163,109 C 185,97.6 197,68.3 213,48.8"
               id="path4744" />
            <path
               style="fill:none;stroke:#000000;stroke-width:3.316;stroke-linecap:butt;stroke-linejoin:miter;stroke-miterlimit:4;stroke-dasharray:none;stroke-opacity:1"
               d="m 169,96.5 c 9,-22.6 33,-36.3 45,-53.2"
               id="path4746" />
            <path
               style="fill:none;stroke:#000000;stroke-width:3.316;stroke-linecap:butt;stroke-linejoin:miter;stroke-miterlimit:4;stroke-dasharray:none;stroke-opacity:1"
               d="m 172,80.3 c 4,-21.7 27,-26.6 37,-39"
               id="path4748" />
            <path
               style="fill:none;stroke:#000000;stroke-width:3.316;stroke-linecap:butt;stroke-linejoin:miter;stroke-miterlimit:4;stroke-dasharray:none;stroke-opacity:1"
               d="m 147,44.1 c 0,-9.1 1,-18.6 4,-26.5"
               id="path4750" />
            <path
               style="fill:none;stroke:#000000;stroke-width:3.316;stroke-linecap:butt;stroke-linejoin:miter;stroke-miterlimit:4;stroke-dasharray:none;stroke-opacity:1"
               d="m 176,50.5 c 3,-7.6 6,-18.8 13,-22.3"
               id="path4752" />
            <path
               style="fill:none;stroke:#000000;stroke-width:3.316;stroke-linecap:butt;stroke-linejoin:miter;stroke-miterlimit:4;stroke-dasharray:none;stroke-opacity:1"
               d="m 225,101 c 4,-5.7 7,-11.3 12,-16.2"
               id="path4754" />
            <path
               style="fill:none;stroke:#000000;stroke-width:3.316;stroke-linecap:butt;stroke-linejoin:miter;stroke-miterlimit:4;stroke-dasharray:none;stroke-opacity:1"
               d="m 227,79.1 c 1,-5 3,-8.9 6,-12.7"
               id="path4756" />
            <path
               style="fill:none;stroke:#000000;stroke-width:3.316;stroke-linecap:butt;stroke-linejoin:miter;stroke-miterlimit:4;stroke-dasharray:none;stroke-opacity:1"
               d="m 223,126 c 4,-1 8,-4 10,-8"
               id="path4758" />
            <path
               style="fill:none;stroke:#000000;stroke-width:3.316;stroke-linecap:butt;stroke-linejoin:miter;stroke-miterlimit:4;stroke-dasharray:none;stroke-opacity:1"
               d="m 167,141 c 3,-1 5,-2 7,-5"
               id="path4760" />
          </g>
        </g>
      </g>
      <path
         class="fil1 str2"
         d="m 244,248 c 8,1 11,25 9,31 -14,47 45,54 79,46 7,-1 34,-46 34,-58 0,-6 -9,-33 -16,-29 -16,11 -94,16 -106,10 z"
         id="path15"
         style="fill:#ffffff;fill-rule:evenodd;stroke:#000000;stroke-width:3.227" />
      <path
         class="fil1 str1"
         d="m 367,306 c -11,-1 -33,-15 -37,-6 -8,16 4,42 4,59 0,11 -14,35 8,35 8,0 14,-3 21,-3 10,0 28,8 30,-5 2,-6 -35,-12 -38,-28 -1,-9 3,-23 4,-32 2,-5 8,-16 8,-20 z"
         id="path17"
         style="fill:#e20909;fill-opacity:1;fill-rule:evenodd;stroke:#000000;stroke-width:3.227;stroke-linejoin:round" />
      <path
         class="fil1 str2"
         d="m 367,306 c 0,-6 4,-22 3,-25 -3,-6 -39,-51 -45,-51 -14,15 -43,14 -56,28 -2,3 56,24 63,30 -5,21 18,15 35,18 z"
         id="path53"
         style="fill:#e20909;fill-rule:evenodd;stroke:#000000;stroke-width:3.227" />
      <path
         class="fil1 str1"
         d="m 367,306 c -8,0 -15,-4 -22,-6 -5,-2 -9,-4 -13,-5 -6,-1 -7,11 -7,14 0,7 0,8 8,11 4,2 9,2 14,4 6,2 14,6 16,-1 2,-4 4,-13 4,-17 z"
         id="path69"
         style="fill:#e20909;fill-opacity:1;fill-rule:evenodd;stroke:#000000;stroke-width:3.227;stroke-linejoin:round" />
      <path
         id="path3664"
         d="m 315,187 c -1,0 12,-28 11,-44 0,-6 -12,-30 -19,-30 0,1 -30,-18.5 -31,7 -24,59 -38,105 -34,123 21,17 16,22 45,12 8,-6 42,-15 42,-27 -6,-4 -18,-15 -22,-18 0,0 -3,-4 -2,-6 0,-2 10,-17 10,-17 z"
         style="fill:#e20909;fill-rule:evenodd;stroke:#000000;stroke-width:3.227" />
      <path
         style="color:#000000;display:inline;overflow:visible;visibility:visible;fill:#fcef3c;fill-opacity:1;fill-rule:nonzero;stroke:#000000;stroke-width:3;stroke-linecap:butt;stroke-linejoin:miter;stroke-miterlimit:4;stroke-dashoffset:0;stroke-opacity:1;marker:none;enable-background:accumulate"
         d="m 297,108 16,7 3,7 -23,-6 z"
         id="rect3510" />
      <g
         style="fill:#fcef3c"
         transform="matrix(-3.22,0.257,0.259,3.19,4260,-914)"
         id="g3490">
        <path
           d="m 1240,243 c 0,-4 0,-4 10,-1 0,4 0,8 0,12 0,4 0,5 0,1 0,-3 -10,-8 -10,-12 z"
           style="fill:#e20909;fill-opacity:1;fill-rule:nonzero;stroke:#000000;stroke-width:0.934;stroke-miterlimit:4;stroke-dasharray:none;stroke-opacity:1"
           id="rect4549" />
        <path
           d="m 1240,241 c 0,1 0,1 0,1 h 10 c 0,0 0,0 0,0 z m 0,2 c 0,0 0,0 0,0 l 10,1 c 0,0 0,0 0,0 z m 0,2 c 0,0 0,0 0,0 l 10,1 c 0,0 0,0 0,0 z m 0,1 c 0,1 0,1 0,1 l 10,1 c 0,0 0,0 0,0 z m 0,2 c 0,0 0,0 0,0 l 10,2 c 0,0 0,0 0,0 z m 0,2 c 0,0 0,0 0,0 l 10,2 c 0,0 0,-1 0,-1 z m 10,2 c 0,0 0,0 0,0 v 1 c 0,0 0,0 0,0 0,0 0,0 0,0 z m 0,2 c 0,0 0,0 0,0 v 1 c 0,0 0,0 0,0 z"
           style="fill:#000000;fill-opacity:1;fill-rule:nonzero;stroke:none"
           id="path16111" />
        <path
           id="path5443"
           style="fill:#e20909;fill-opacity:1;fill-rule:nonzero;stroke:#000000;stroke-width:0.934;stroke-miterlimit:4;stroke-dasharray:none;stroke-opacity:1"
           d="m 1250,242 c 0,2 0,3 0,3 -10,1 -10,0 -10,-1 0,-1 0,-3 0,-3 0,-1 10,0 10,1 z" />
        <path
           id="path5441"
           style="fill:#e20909;fill-opacity:1;fill-rule:nonzero;stroke:#000000;stroke-width:0.302;stroke-miterlimit:4;stroke-dasharray:none;stroke-opacity:1"
           d="m 1250,243 c 0,0 0,1 -10,1 0,0 0,0 0,0 0,-1 0,-1 0,-2 0,0 0,0 10,1 z" />
        <path
           id="rect2770"
           style="fill:#e20909;fill-opacity:1;fill-rule:nonzero;stroke:#000000;stroke-width:1.004;stroke-miterlimit:4;stroke-opacity:1"
           d="m 1250,257 v -2 l 10,35 v 3 -2 z" />
        <rect
           width="12.7"
           height="2.18"
           x="1060"
           y="691"
           style="fill:#e20909;fill-opacity:1;fill-rule:nonzero;stroke:#000000;stroke-width:0.934;stroke-miterlimit:4;stroke-dasharray:none;stroke-opacity:1"
           id="rect1882"
           transform="rotate(-21.3)" />
        <path
           style="display:inline;overflow:visible;visibility:visible;fill:#fcef3c;fill-opacity:1;fill-rule:nonzero;stroke:#000000;stroke-width:0.622;stroke-linecap:butt;stroke-linejoin:miter;stroke-miterlimit:4;stroke-dasharray:none;stroke-dashoffset:0;stroke-opacity:1;marker:none"
           d="m 1250,261 v -2"
           id="path2418" />
        <path
           style="display:inline;overflow:visible;visibility:visible;fill:#fcef3c;fill-opacity:1;fill-rule:nonzero;stroke:#000000;stroke-width:0.67;stroke-linecap:butt;stroke-linejoin:miter;stroke-miterlimit:4;stroke-dasharray:none;stroke-dashoffset:0;stroke-opacity:1;marker:none"
           d="m 1260,288 v -1"
           id="path2420" />
      </g>
      <g
         id="g3734"
         transform="rotate(7,281,130)">
        <path
           style="fill:#ffffff;fill-rule:evenodd;stroke:#000000;stroke-width:3.227;stroke-miterlimit:4;stroke-dasharray:none"
           id="path81"
           d="m 371,211 c -5,-3 -9,-4 -15,-9 -6,-4 -24,-4 -26,-1 0,2 -1,4 -1,7 6,5 11,10 19,14 3,1 27,1 19,-5 -2,-1 -7,-4 -8,-6 2,1 11,6 12,0 z"
           class="fil1 str2" />
        <path
           style="fill:#e20909;fill-rule:evenodd;stroke:#000000;stroke-width:3"
           d="m 276,168 3,23 18,10 c 5,0 19,7 25,10 9,3 9,3 12,-6 1,-3 7,-11 2,-12 -7,-3 -34,-14 -36,-14 l 1,-37"
           id="path83" />
      </g>
      <path
         class="fil1 str1"
         d="m 359,333 c 0,8 0,13 3,21 2,5 5,12 5,19 0,4 4,22 -1,22 l -9,1 c -5,-5 -1,-20 -2,-27 -1,-6 -1,-13 -1,-19 0,-4 1,-7 2,-10 1,-3 2,-6 3,-7 z"
         id="path37"
         style="fill:#fefefe;fill-rule:evenodd;stroke:#000000;stroke-width:3.227;stroke-linejoin:round" />
      <g
         id="g4366"
         transform="matrix(1.22,0.356,-0.356,1.22,-737,-300)">
        <path
           class="fil1 str2"
           d="m 868,81.4 c -11,0.3 -18,2.7 -21,23.6 -10,99 -44,90 -60,119 28,-5 61,46 72,26 9,-29 -7,-114 9,-168.6 z"
           id="path87"
           style="fill:#fcef3c;fill-rule:evenodd;stroke:#000000;stroke-width:2.531" />
        <path
           class="fil6 str2"
           d="M 866,85.5 C 852,99.2 856,181 838,212 c 11,-3 21,27 22,36"
           id="path89"
           style="fill:none;stroke:#000000;stroke-width:2.531" />
      </g>
      <g
         id="layer3-3"
         style="display:inline"
         transform="matrix(0.168,0.063,-0.063,0.168,279,160)">
        <g
           id="g5810">
          <g
             id="g4456">
            <path
               transform="matrix(4.56,-1.7,1.7,4.56,-1560,-299)"
               id="path1411-1"
               style="fill:#fcef3c;stroke:#000000;stroke-width:3;stroke-linecap:butt;stroke-linejoin:miter;stroke-miterlimit:4;stroke-dasharray:none;stroke-opacity:1"
               d="m 287,316 c 0,0 -49,-42 -28,-97 20,-54 18,-49 18,-49 l 114,42 -18,50 c -21,54 -86,54 -86,54 z" />
            <path
               d="M 1.5,101 448,553 c 31,-28 62,-63 87,-104 L 93.7,2.19 H 1.5 Z"
               style="fill:#000000;fill-opacity:1;fill-rule:evenodd;stroke:#000000;stroke-width:14.609;stroke-linecap:butt;stroke-linejoin:miter;stroke-miterlimit:4;stroke-dasharray:none;stroke-opacity:1"
               id="path2855-4" />
          </g>
          <rect
             id="rect4923"
             style="fill:none;stroke:none"
             y="3.38e-14"
             x="0"
             height="660"
             width="600" />
        </g>
      </g>
    </g>
  </g>
</svg>
