<?xml version="1.0" encoding="UTF-8" standalone="no"?>
<!DOCTYPE svg PUBLIC "-//W3C//DTD SVG 1.1//EN" "http://www.w3.org/Graphics/SVG/1.1/DTD/svg11.dtd">
<svg xmlns:dc="http://purl.org/dc/elements/1.1/" xmlns:xl="http://www.w3.org/1999/xlink" version="1.1" xmlns="http://www.w3.org/2000/svg" viewBox="94.5 60.75 175.5 330.75" width="175.5" height="330.75">
  <defs>
    <clipPath id="artboard_clip_path">
      <path d="M 94.5 60.75 L 270 60.75 L 270 391.5 L 94.5 391.5 Z"/>
    </clipPath>
  </defs>
  <metadata> Produced by OmniGraffle 7.7.1 
    <dc:date>2018-03-18 08:29:39 +0000</dc:date><dc:title>Traceable heraldic art http://heraldicart.org/credits.html</dc:title>
  </metadata>
  <g id="Leg_Couped_Below_The_Knee" fill-opacity="1" stroke-dasharray="none" stroke="none" stroke-opacity="1" fill="#ffff00">
    <title>Leg Couped Below The Knee</title>
    <g id="Leg_Couped_Below_The_Knee: Layer 2" >
      <title>Layer 2</title>
      <g id="Group_3">
        <g id="Graphic_72">
          <path d="M 188.8718 65.33101 C 186.07646 66.14019 182.25125 67.09649 180.4122 67.4643 C 178.57316 67.83211 174.8215 69.0091 171.9526 70.03896 C 169.15725 71.14239 165.33204 72.39294 163.493 72.68719 C 160.55052 73.27568 152.23804 76.36528 151.3553 77.17446 C 150.69324 77.91008 152.45872 88.79722 153.8564 92.62243 C 154.88626 95.5649 155.47476 99.31656 155.769 105.64287 C 156.13681 114.02891 156.06325 114.61741 154.66558 115.35303 C 152.9001 116.30933 152.75297 118.07481 154.29777 119.69317 C 155.03339 120.57591 155.54832 124.10688 156.06325 131.24237 C 156.43106 136.90663 157.16668 142.42376 157.53449 143.60075 C 158.56435 146.24898 158.56435 148.8972 157.46093 151.83967 C 156.79887 153.82584 156.79887 154.78215 157.82873 157.06256 C 158.4908 158.60736 159.88846 165.15436 160.91833 171.6278 C 162.02176 178.10123 163.56655 185.23673 164.30217 187.44358 C 165.03779 189.65043 165.69985 192.0044 165.69985 192.74003 C 165.69985 193.47565 166.50903 195.97675 167.46533 198.33072 C 168.42163 200.61114 169.74574 206.12827 170.48136 210.61554 C 171.80547 219.51652 173.42383 225.9164 174.89507 228.27037 C 175.48356 229.07955 176.43987 233.34614 177.02836 237.8334 C 178.72028 249.30904 180.19152 257.98934 181.88344 266.5225 C 182.69262 270.5684 183.35468 275.12923 183.35468 276.67403 C 183.35468 278.21883 183.72248 280.205 184.23742 281.08774 C 184.82591 282.19116 185.19372 287.85542 185.26728 298.00695 L 185.4144 313.23424 L 183.20755 315.4411 C 182.03056 316.69164 180.0444 318.16288 178.94097 318.75137 C 177.76398 319.33987 176.66055 320.4433 176.3663 321.25247 C 176.14562 321.9881 174.89507 323.0915 173.57096 323.60645 C 170.48136 324.93056 163.12518 332.581 160.84477 336.92114 C 158.8586 340.89347 156.7253 342.51183 152.9001 343.1739 C 150.7668 343.46813 149.58981 343.10033 146.50022 341.11416 C 143.41062 339.128 141.86583 338.6866 138.55555 338.61306 C 133.18554 338.46593 132.59704 338.7602 132.59704 341.1877 C 132.59704 342.29115 132.15567 343.5417 131.7143 343.9095 C 131.19937 344.35088 127.30059 344.8658 123.03401 345.0865 C 118.76742 345.38074 114.13303 345.89567 112.6618 346.33704 C 109.5722 347.2198 107.95384 349.7209 107.95384 353.61966 C 107.95384 356.12076 107.80672 356.2679 104.57 357.0035 C 100.96547 357.8127 99.12643 358.9161 97.94944 361.19653 C 96.4782 363.9183 100.74479 374.58477 104.86425 378.5571 C 107.29179 380.9111 107.6596 381.0582 111.70549 380.6904 C 114.13303 380.4697 117.00194 380.1019 118.17893 379.80766 C 120.01798 379.29273 120.60647 379.58697 123.18113 382.4559 L 126.1236 385.6926 L 134.36252 385.5455 C 141.27733 385.39835 143.11638 385.5455 146.50022 386.94315 C 150.03119 388.34083 150.7668 388.4144 154.2242 387.6052 C 160.69764 385.98685 165.18491 383.48575 166.80327 380.54328 C 168.863 376.57094 174.30658 372.08367 180.85357 368.84695 C 184.0903 367.2286 187.17989 365.6838 187.76838 365.316 C 188.35688 365.02174 189.681 364.2861 190.71085 363.84475 C 191.74072 363.3298 193.35908 362.3735 194.38894 361.71146 C 195.4188 361.0494 197.40498 360.3138 198.80265 360.0931 C 200.20033 359.94598 203.21636 359.3575 205.49677 358.9161 C 211.08747 357.73912 218.81146 357.66556 224.54928 358.69542 C 235.36286 360.6816 234.9215 360.6816 240.5122 357.88625 C 246.54425 354.79665 249.9281 352.14843 251.4729 349.20595 C 252.87057 346.33704 252.2085 338.9073 249.85453 331.84537 C 248.89823 328.97646 248.08905 326.1811 248.08905 325.73974 C 248.08905 325.29837 247.27987 323.82714 246.39713 322.5766 C 245.44083 321.25247 244.19028 319.04562 243.67534 317.64795 C 243.1604 316.25027 242.13055 314.41123 241.4685 313.60205 C 236.98122 308.23204 235.73067 295.35872 237.4226 270.42128 C 238.01108 260.564 238.89383 250.70672 239.26164 248.49986 C 240.07081 243.57122 241.39493 229.88873 241.39493 226.652 C 241.39493 225.40146 241.90986 223.26817 242.64548 221.8705 C 243.3811 220.54638 244.3374 216.72117 244.85233 213.4109 C 245.36726 210.02705 246.54425 205.76047 247.64768 203.62717 C 248.67754 201.56744 249.5603 199.43415 249.5603 198.99278 C 249.63385 198.47785 250.22234 196.78593 251.03152 195.16757 C 251.8407 193.5492 252.4292 191.34235 252.50276 190.3125 C 252.50276 189.20906 253.90043 186.2666 255.6659 183.61837 C 260.96236 175.52657 261.62442 174.1289 261.40373 170.6715 C 261.33017 168.906 261.91867 165.52217 262.72785 163.16819 C 263.53703 160.88777 264.5669 156.17982 264.9347 152.79598 C 265.74388 146.54322 266.4795 120.42879 266.70018 92.18106 L 266.8473 76.80665 L 262.0658 75.92391 C 257.2107 75.11473 253.7533 73.86418 251.76714 72.24582 C 251.17865 71.730885 248.3833 70.77458 245.5144 70.112526 C 242.71904 69.45047 237.86396 68.27348 234.77437 67.4643 C 228.44805 65.84594 219.3264 64.88964 204.31979 64.301144 C 195.34525 63.933335 193.35908 64.08046 188.8718 65.33101 Z" fill="#cccccc"/>
        </g>
        <g id="Graphic_71">
          <path d="M 223.81366 71.21595 C 225.94695 71.58376 229.25723 71.95157 231.2434 71.95157 C 233.156 71.95157 234.99505 72.24582 235.21574 72.68719 C 235.43642 73.055 236.90766 73.42281 238.45246 73.42281 C 241.2478 73.42281 244.26384 75.48254 243.1604 76.659525 C 242.7926 77.02733 243.67534 77.02733 244.9259 76.73309 C 246.8385 76.36528 248.30974 76.73309 252.13495 78.719255 C 255.00386 80.11693 256.8429 81.5146 256.76934 82.1031 C 256.40153 84.0157 243.30753 90.34202 234.48012 92.84312 C 223.07804 96.22696 208.88062 97.99244 199.75895 97.25683 C 194.60963 96.81546 193.65333 96.59477 193.65333 95.41778 C 193.65333 94.75573 193.21196 94.02011 192.77058 93.79942 C 192.1821 93.57874 192.62346 93.13737 193.80045 92.696 C 195.4188 92.03394 197.1843 90.48914 196.44867 90.26846 C 196.30155 90.26846 192.62346 89.90065 188.1362 89.53284 C 175.33644 88.42941 172.3204 88.0616 172.3204 87.39955 C 172.3204 86.59037 180.26508 86.149 190.56373 86.36968 C 195.051 86.44324 198.80265 86.29612 198.80265 85.92831 C 198.80265 85.11913 193.43264 83.72146 190.26948 83.72146 C 184.53166 83.72146 179.67659 82.83872 179.67659 81.80885 C 179.67659 80.77899 187.25345 80.26405 196.44867 80.5583 C 198.1406 80.63186 199.53827 80.41118 199.53827 80.11693 C 199.53827 79.23419 188.28332 77.83651 185.0466 78.35145 C 182.98687 78.64569 181.88344 78.49857 181.88344 77.98364 C 181.88344 76.659525 186.9592 75.62966 193.43264 75.62966 C 196.74292 75.62966 199.61183 75.33541 199.83252 74.9676 C 200.49457 73.93774 198.36128 73.42281 193.35908 73.42281 C 189.23962 73.42281 187.03277 72.61363 187.03277 71.14239 C 187.03277 70.77458 188.43044 70.480335 190.19592 70.25965 C 195.86018 69.81828 219.84132 70.480335 223.81366 71.21595 Z" fill="#ff0000"/>
        </g>
        <g id="Graphic_70">
          <path d="M 177.83754 73.349245 C 178.05823 73.71705 177.9111 74.30555 177.46973 74.52623 C 176.3663 75.18829 174.30658 74.30555 174.89507 73.42281 C 175.48356 72.4665 177.24905 72.4665 177.83754 73.349245 Z" fill="#ff0000"/>
        </g>
        <g id="Graphic_69">
          <path d="M 169.23081 78.20432 C 170.04 78.93994 169.8193 79.23419 167.9067 79.96981 C 165.7734 80.70542 165.62628 80.99967 166.06766 82.76515 C 167.17108 86.66393 166.9504 88.50297 165.4056 88.28229 C 164.08149 88.0616 158.56435 84.16283 157.46093 82.61803 C 156.28394 81.07323 157.38736 79.67556 161.28614 78.13076 C 165.33204 76.43884 167.46533 76.43884 169.23081 78.20432 Z" fill="#ff0000"/>
        </g>
        <g id="Graphic_68">
          <path d="M 255.44523 88.6501 C 255.37167 90.5627 249.11892 94.02011 237.05478 98.80162 C 223.88722 103.95095 222.63667 104.83369 229.18367 104.09807 C 233.52382 103.6567 242.4248 100.78779 249.11892 97.6982 C 253.60618 95.63847 256.4751 93.50517 257.13715 91.66613 C 257.35784 90.93051 257.65208 90.93051 258.3877 91.59257 C 259.12332 92.32819 259.19688 92.91668 258.53482 94.31435 C 257.65208 96.30052 257.65208 96.30052 246.17644 102.18547 C 238.23177 106.23136 236.2456 107.04054 225.13777 110.35082 C 221.97461 111.30713 219.39995 112.48412 219.39995 112.92549 C 219.39995 114.17604 219.84132 114.17604 228.44805 111.96918 C 238.23177 109.46808 243.45466 107.77616 247.2063 105.86356 C 250.73727 104.02451 251.76714 103.95095 251.76714 105.34862 C 251.76714 106.59917 241.68917 112.55768 237.4226 113.88179 C 235.80423 114.39672 234.18587 115.05878 233.7445 115.35303 C 233.3767 115.64727 231.53765 116.45645 229.6986 117.04495 C 225.43202 118.51618 227.93312 118.58974 234.1123 117.19207 C 239.1145 116.01508 240.2915 115.57371 246.02932 112.7048 C 249.7074 110.86576 252.13495 110.49795 252.797 111.60137 C 253.0177 111.96918 252.797 112.55768 252.28207 112.99905 C 250.6637 114.32316 242.35123 118.2955 241.17424 118.2955 C 240.5122 118.2955 238.59958 119.03112 236.90766 119.91386 C 232.64107 122.19427 228.96298 123.44482 226.609 123.44482 C 225.43202 123.44482 224.54928 123.73907 224.54928 124.18044 C 224.54928 125.50455 228.08024 124.98962 236.98122 122.41496 C 246.17644 119.76673 248.08905 118.95755 254.41536 114.91166 C 256.76934 113.36686 258.46126 112.7048 258.7555 113.21973 C 259.49113 114.32316 258.6084 116.08864 257.4314 116.08864 C 256.8429 116.08864 255.96016 116.60358 255.37167 117.26563 C 253.23838 119.91386 243.52822 124.03332 232.64107 127.04935 C 229.99285 127.78497 227.12394 128.74127 226.38832 129.18264 C 225.0642 129.91826 225.21133 129.99182 227.49175 130.06538 C 230.36066 130.06538 238.01108 128.22634 246.8385 125.35743 C 249.9281 124.40113 252.50276 123.73907 252.50276 123.8862 C 252.50276 125.57811 246.25 129.32977 243.3811 129.32977 C 242.4248 129.32977 241.10068 129.8447 240.43862 130.4332 C 239.85013 131.09525 237.56971 132.12511 235.43642 132.78717 C 233.30313 133.44923 231.2434 134.2584 230.80203 134.62621 C 229.3308 135.95033 237.27547 135.06759 241.90986 133.44923 C 244.63165 132.41936 247.2063 131.83087 247.50056 131.97799 C 249.3396 133.08142 242.57192 136.9802 235.58355 138.8928 C 233.7445 139.33417 231.68477 140.06979 231.02271 140.4376 C 230.2871 140.8054 229.18367 141.09965 228.44805 141.09965 C 227.49175 141.09965 227.4182 141.32034 228.08024 141.9824 C 229.47792 143.38007 239.40876 140.58472 248.60398 136.24457 C 250.73727 135.28827 253.23838 134.18484 254.26824 133.74347 C 255.37167 133.37566 256.32797 132.27224 256.62222 131.16881 C 256.8429 130.13895 257.50496 129.32977 258.0199 129.32977 C 259.41757 129.32977 260.00606 131.3895 259.12332 133.08142 C 258.53482 134.03772 258.6084 134.92046 259.12332 136.02389 C 260.81524 139.11348 259.78537 139.92266 246.6178 146.91103 C 242.13055 149.19145 231.8319 152.86954 229.62504 152.86954 C 228.81586 152.86954 228.22737 153.16379 228.22737 153.60516 C 228.22737 157.06256 252.797 148.8972 255.73948 144.4835 C 257.7992 141.24678 258.6084 142.12952 258.24058 147.42597 C 258.0199 151.3983 257.65208 152.50173 256.2544 153.5316 C 254.78317 154.63502 254.7096 154.92927 255.73948 155.73845 C 256.62222 156.47407 256.76934 157.50393 256.4751 159.78435 C 255.8866 163.60956 255.73948 163.68312 254.04755 162.13832 C 252.72344 160.88777 252.35563 160.96134 246.8385 163.75668 C 239.26164 167.65546 235.80423 169.05313 233.67094 169.05313 C 232.71464 169.05313 231.90546 169.42094 231.90546 169.86231 C 231.90546 171.48067 238.9674 169.78875 247.2063 166.33135 C 249.78097 165.22792 252.2085 165.52217 251.39933 166.84628 C 250.73727 167.9497 244.04315 171.25999 238.52602 173.1726 C 235.95135 174.1289 233.67094 175.23232 233.52382 175.60013 C 233.22957 176.55643 236.76053 176.70356 237.34903 175.74726 C 237.56971 175.453 239.04095 174.93808 240.58575 174.64383 C 244.48452 174.05533 251.4729 170.89218 251.98782 169.4945 C 252.64988 167.87614 254.04755 168.02327 253.45906 169.56806 C 252.28207 172.87835 243.7489 177.88055 239.3352 177.88055 C 238.59958 177.88055 236.53985 178.5426 234.77437 179.35178 C 233.00888 180.16096 230.2871 180.82302 228.66874 180.82302 C 225.8734 180.82302 225.8734 180.74946 226.31476 178.61616 C 226.97682 175.0852 225.6527 176.0415 221.8275 181.70576 C 219.91488 184.57467 217.26666 188.10564 216.0161 189.57687 C 214.76556 191.0481 212.63227 194.21126 211.38172 196.6388 C 210.0576 199.06634 208.21856 202.15594 207.26226 203.5536 C 206.2324 204.95129 205.42321 206.93745 205.42321 207.96732 C 205.42321 209.7328 205.79102 209.51212 209.98404 205.24553 C 213.29432 201.8617 214.76556 200.75826 215.6483 201.19963 C 217.41378 202.08238 224.54928 201.641 226.53545 200.61114 C 228.81586 199.43415 229.55148 200.3169 228.22737 202.67087 C 226.97682 204.87772 226.16764 205.3191 221.6068 206.49608 C 219.76776 206.93745 216.75173 207.74663 214.83912 208.26157 C 210.6461 209.29143 210.0576 210.61554 214.1035 209.87993 C 219.17927 208.99718 224.18147 209.07075 224.18147 210.1006 C 224.18147 211.57185 221.16544 212.89596 214.61844 214.44076 C 208.80705 215.76487 208.80705 215.76487 212.04377 215.98555 C 213.88282 216.13268 217.1931 215.83843 219.39995 215.39706 C 221.6068 214.88213 225.13777 214.22007 227.12394 213.7787 C 229.18367 213.33733 231.90546 212.38103 233.22957 211.6454 C 237.4226 209.21787 239.1145 210.24773 236.68697 213.70514 C 236.09848 214.58788 235.80423 215.76487 236.02492 216.35336 C 237.12834 219.3694 218.1494 227.90256 210.42541 227.90256 C 209.24843 227.90256 208.36568 228.1968 208.36568 228.63818 C 208.36568 230.99216 222.7838 228.1968 229.6986 224.51872 C 231.53765 223.56242 233.30313 222.75324 233.59738 222.75324 C 234.333 222.75324 233.45025 229.44736 232.64107 230.40366 C 232.27327 230.6979 231.68477 230.77147 231.16984 230.47723 C 230.58134 230.10942 230.6549 229.44736 231.53765 228.1968 C 233.00888 225.9164 231.90546 225.9164 228.3745 228.1968 C 226.90325 229.22668 223.3723 230.9186 220.50338 232.09559 C 214.76556 234.376 215.6483 235.25874 221.90105 233.49326 C 226.53545 232.09559 227.49175 232.02202 227.49175 233.0519 C 227.49175 233.86107 222.93092 236.06792 217.34022 237.8334 C 215.20693 238.56902 213.29432 239.3782 213.07364 239.746 C 212.33802 240.923 216.16323 240.40807 221.97461 238.56902 C 227.786 236.72998 230.43422 235.11162 230.43422 233.27257 C 230.43422 232.75764 231.09628 232.31627 231.90546 232.31627 C 234.7008 232.31627 233.3767 234.81737 229.03655 237.61272 C 224.6964 240.40807 217.41378 244.0126 216.08967 244.08616 C 215.72186 244.08616 214.692 244.67465 213.88282 245.26315 C 212.48514 246.44013 212.5587 246.44013 215.35405 245.99876 C 219.17927 245.41027 229.99285 241.36437 230.2871 240.40807 C 230.72847 239.23108 232.64107 239.52533 232.64107 240.77588 C 232.64107 241.43793 231.90546 242.17355 230.94915 242.54136 C 229.99285 242.90917 228.81586 243.71835 228.30093 244.3804 C 226.8297 246.1459 220.8712 249.45617 216.89885 250.78028 C 214.83912 251.44234 213.07364 252.39864 212.92651 252.91357 C 212.1909 255.12043 225.21133 250.9274 227.85956 248.0585 C 229.62504 246.1459 231.53765 245.77808 232.34683 247.17575 C 232.64107 247.69068 232.1997 248.49986 231.2434 249.16192 C 230.36066 249.82398 228.52161 251.22165 227.27106 252.25152 C 224.40215 254.6055 220.13557 256.7388 215.72186 257.98934 C 209.91048 259.68126 210.0576 259.6077 211.8231 260.49044 C 214.39775 261.66742 226.38832 257.62153 228.3745 254.89974 C 229.25723 253.6492 230.50778 252.91357 231.6112 252.91357 C 233.7445 252.91357 233.89162 253.72275 231.90546 255.48823 C 231.09628 256.22385 230.43422 257.25372 230.43422 257.8422 C 230.43422 258.35714 229.99285 258.7985 229.47792 258.7985 C 228.88942 258.7985 226.53545 260.04907 224.1079 261.59386 C 221.75393 263.13866 218.3701 264.83058 216.67817 265.3455 C 214.91268 265.934 213.515 266.66963 213.515 267.03744 C 213.515 267.92018 213.88282 267.8466 219.62064 266.00757 C 222.71023 264.9777 225.79983 263.35935 227.34463 261.96167 C 228.96298 260.41687 230.2871 259.82838 230.6549 260.1962 C 231.53765 261.07893 230.72847 264.68346 229.6986 264.68346 C 229.25723 264.68346 226.68257 266.1547 223.96078 267.92018 C 221.239 269.68566 217.85515 271.37758 216.45748 271.67183 C 215.0598 271.96608 213.22076 272.7017 212.41158 273.2902 C 211.08747 274.32005 211.2346 274.3936 214.61844 273.95224 C 216.6046 273.73156 218.59077 273.14306 218.95858 272.77525 C 219.39995 272.3339 220.20913 272.03964 220.94475 272.03964 C 221.6068 272.03964 223.66654 270.86265 225.57914 269.3914 C 229.77216 266.22826 231.16984 266.5225 231.16984 270.5684 C 231.16984 273.73156 228.7423 277.18896 226.46188 277.18896 C 225.8734 277.18896 224.91709 277.63033 224.40215 278.14527 C 222.93092 279.54294 218.00228 282.3383 216.89885 282.3383 C 216.31036 282.3383 215.50118 282.85322 214.98624 283.4417 C 214.25063 284.32446 214.25063 284.54514 215.2805 284.54514 C 216.97241 284.54514 226.16764 280.86705 227.63887 279.54294 C 229.3308 278.14527 230.43422 279.028 230.36066 281.82336 C 230.21354 285.7957 229.40436 287.63474 227.12394 288.8853 C 225.8734 289.54734 223.5194 291.01858 221.8275 292.122 C 220.062 293.22543 218.22296 294.10817 217.5609 294.10817 C 216.97241 294.10817 216.45748 294.40242 216.45748 294.8438 C 216.45748 296.9771 226.8297 293.299 227.71243 290.87146 C 228.00668 290.2094 228.59518 289.69447 229.1101 289.69447 C 229.84573 289.69447 230.0664 291.68063 229.99285 298.00695 C 229.9193 305.65737 229.18367 309.92396 227.34463 313.45492 C 226.16764 315.8089 227.5653 315.88246 229.40436 313.60205 L 231.2434 311.3952 L 233.81806 314.33767 C 239.48232 320.73754 245.8822 335.37634 245.8822 341.7762 C 245.8822 346.0428 243.3811 350.53007 239.99725 352.222 C 235.58355 354.42884 230.58134 354.64953 223.1516 352.9576 C 219.39995 352.14843 215.57474 351.70705 214.61844 351.92774 C 213.66213 352.14843 212.48514 352.14843 212.11734 351.85418 C 210.86678 351.11856 212.41158 348.7646 214.4713 348.24965 C 215.94255 347.88184 216.08967 347.51403 215.86899 345.2336 C 215.57474 342.7325 214.17707 341.7762 213.1472 343.39457 C 212.1909 344.93937 210.71966 344.05663 209.61623 341.4084 L 208.43925 338.61306 L 208.36568 342.65895 C 208.21856 347.9554 206.82089 352.51623 205.20253 352.8105 C 204.17266 353.03117 203.95198 352.44267 204.0991 348.7646 C 204.17266 344.20375 203.5106 341.1877 202.40718 341.1877 C 202.03937 341.1877 201.74512 342.9532 201.67156 345.01293 C 201.598 349.79445 200.20033 353.98747 198.58197 354.2817 C 197.11073 354.57596 197.03717 353.3254 198.06703 348.7646 C 198.58197 346.55773 198.5084 345.0865 197.77279 343.39457 L 196.81648 341.0406 L 196.30155 345.16006 C 195.86018 349.42664 192.99127 356.7828 191.44647 357.73912 C 190.26948 358.47474 189.53387 357.51844 190.56373 356.48857 C 191.5936 355.4587 191.74072 348.5439 190.78442 348.5439 C 189.53387 348.5439 189.01893 350.16226 188.79825 354.3553 C 188.65112 357.51844 188.35688 358.5483 187.32701 358.69542 C 185.56153 359.06323 184.89947 357.66556 185.4144 354.20816 C 185.92934 350.01513 184.31098 350.89788 182.47193 355.75295 C 180.78001 360.16666 179.67659 360.6816 179.67659 356.92994 C 179.67659 355.38514 179.38234 354.5024 178.94097 354.79665 C 178.57316 355.01734 178.20535 356.12076 178.20535 357.2242 C 178.13179 359.43104 176.66055 361.785 175.33644 361.785 C 174.89507 361.785 174.30658 360.75515 174.01233 359.57817 C 173.4974 356.7828 173.20315 357.07707 171.43767 361.93214 C 170.55492 364.5068 169.01013 366.7872 166.87683 368.7734 C 165.11135 370.39175 163.05162 372.67216 162.316 373.9227 C 158.8586 379.43985 157.01956 380.6904 152.23804 381.20533 C 148.41283 381.6467 146.57378 381.426 141.86583 379.8812 C 136.49582 378.1893 135.90732 378.11574 133.11197 379.1456 C 131.42005 379.7341 129.2132 380.02834 128.18333 379.80766 C 125.7558 379.21916 121.56277 375.0997 121.56277 373.3342 C 121.56277 372.15723 121.93058 372.0101 123.6225 372.4515 C 126.56497 373.1871 129.2132 373.03997 129.50745 372.15723 C 130.46375 369.3619 132.37636 368.4056 138.70267 367.66996 C 142.23364 367.2286 146.27953 367.08147 147.60365 367.3757 C 150.1783 367.8171 153.56215 366.6401 152.82653 365.4631 C 152.60585 365.0953 151.42886 364.65393 150.25187 364.3597 C 148.55995 363.99187 147.8979 363.3298 147.3094 361.19653 C 146.94159 359.7253 146.57378 357.592 146.57378 356.415 C 146.57378 354.57596 146.3531 354.42884 143.852 354.42884 C 142.3072 354.3553 139.07048 353.9139 136.64294 353.3254 C 131.34649 352.0013 124.13744 351.92774 119.65017 353.03117 C 115.75139 354.06103 114.13303 353.1783 116.26632 351.2657 C 118.32605 349.35308 125.53511 348.3232 132.22923 348.9117 C 145.7646 350.0887 146.50022 350.0887 148.04502 348.5439 C 149.66338 346.92554 151.57598 346.70485 154.15065 347.88184 C 156.65175 349.05883 161.80107 346.4106 162.46313 343.5417 C 163.493 339.56936 174.0859 327.7259 180.70645 323.16508 C 187.98907 318.23644 189.16606 316.9859 189.681 314.11698 C 190.49017 309.6297 190.93154 309.4826 193.28552 312.94 C 194.53607 314.70547 195.86018 316.0296 196.228 315.95603 C 197.47854 315.51465 197.47854 312.7193 196.228 310.29177 C 195.4188 308.74697 194.97744 305.8045 194.90388 301.46435 L 194.75675 294.91735 L 193.21196 296.3886 C 191.07866 298.37476 190.6373 298.15407 190.78442 294.9909 C 190.85798 293.51968 190.6373 289.40022 190.34305 285.7957 C 189.97524 282.04404 190.0488 279.3958 190.4166 279.3958 C 190.78442 279.3958 192.10853 280.5728 193.28552 282.04404 C 196.9636 286.45775 197.99347 287.4876 198.94977 287.4876 C 199.4647 287.4876 198.65553 286.23706 197.1843 284.69226 C 195.49237 283.00034 193.94757 280.35212 193.1384 277.77746 C 192.1821 274.6143 191.3729 273.51087 190.19592 273.14306 C 188.79825 272.84882 188.504 272.26032 188.504 270.12703 C 188.504 267.8466 188.72469 267.55237 189.97524 267.99374 C 191.15223 268.36155 191.3729 268.21442 190.93154 267.111 C 190.71085 266.37538 189.60743 264.75702 188.504 263.50647 C 186.88564 261.66742 186.29715 259.75482 185.26728 252.84 C 184.53166 248.20562 183.42824 242.32067 182.9133 239.67245 C 182.3248 237.02423 181.66275 233.86107 181.44207 232.68408 C 181.0007 230.5508 179.60302 225.9164 178.57316 223.26817 C 177.69042 221.13488 179.60302 221.79694 183.134 224.9601 C 185.0466 226.652 187.25345 227.90256 188.20975 227.90256 C 190.34305 227.90256 190.49017 226.72557 188.504 226.06352 C 187.25345 225.6957 182.47193 221.20844 178.64672 216.8683 C 177.24905 215.24994 176.66055 213.1902 177.5433 213.1902 C 177.98466 213.1902 179.30878 213.85226 180.48577 214.735 C 181.66275 215.54418 183.79605 216.42692 185.19372 216.6476 C 188.72469 217.2361 188.79825 215.02925 185.19372 213.48445 C 182.47193 212.38103 182.10413 211.79253 183.5018 210.39486 C 183.94317 209.95349 184.23742 209.43855 184.01673 209.29143 C 183.8696 209.1443 181.80988 207.74663 179.4559 206.20184 C 177.10192 204.58348 174.96863 203.03868 174.8215 202.74443 C 174.23301 201.78813 175.33644 200.61114 176.21918 201.19963 C 177.3226 201.93525 182.03056 203.62717 182.9133 203.62717 C 183.28111 203.62717 183.134 203.11224 182.61906 202.52375 C 182.10413 201.93525 181.22138 201.42032 180.70645 201.42032 C 178.94097 201.42032 174.01233 197.8158 173.12959 195.82962 C 171.80547 192.8136 172.98246 192.2251 175.55713 194.65263 C 176.80768 195.90319 179.16165 197.2273 180.70645 197.66867 C 183.72248 198.47785 185.4144 198.1836 182.9133 197.30086 C 178.57316 195.6825 175.70425 191.85729 178.94097 191.85729 C 181.07426 191.85729 180.70645 190.97455 177.98466 189.28262 C 174.8215 187.29646 174.89507 185.60453 178.13179 185.60453 C 181.66275 185.60453 181.66275 184.35398 178.05823 182.66206 C 176.3663 181.85288 174.0859 180.52877 173.05603 179.64603 C 172.02616 178.83685 170.62849 177.9541 169.96643 177.65986 C 168.4952 177.14493 168.20095 174.57027 169.37794 173.83465 C 169.8193 173.5404 170.7756 173.76109 171.43767 174.27602 C 172.46753 175.0852 172.5411 175.0852 171.80547 174.20246 C 171.29054 173.61396 170.84917 172.5841 170.84917 171.84848 C 170.84917 171.11286 170.55492 170.52437 170.11355 170.52437 C 169.74574 170.52437 169.01013 169.78875 168.56876 168.83245 L 167.68601 167.21409 L 169.4515 168.68532 C 173.12959 171.77492 176.14562 173.5404 177.98466 173.68752 C 180.33864 173.83465 181.07426 172.28985 178.94097 171.6278 C 175.92493 170.6715 167.61245 161.69695 169.74574 161.69695 C 170.33424 161.69695 173.12959 163.31531 175.18932 164.78655 C 177.02836 166.18422 180.0444 166.55203 180.70645 165.4486 C 180.92714 165.0808 178.79384 163.38887 175.9985 161.6234 C 167.75958 156.47407 161.21258 149.92707 164.30217 149.92707 C 164.74354 149.92707 166.65615 150.95693 168.56876 152.20748 C 171.58479 154.34077 178.20535 156.0327 178.20535 154.78215 C 178.20535 154.56146 176.43987 153.5316 174.38014 152.5753 C 170.11355 150.66268 163.493 144.55706 163.493 142.64445 C 163.493 141.46746 164.96423 141.68815 165.4056 142.86514 C 165.9941 144.33637 171.06986 146.24898 174.38014 146.24898 L 177.10192 146.24898 L 172.76178 144.11569 C 165.92053 140.65828 160.18271 134.2584 162.61025 132.71361 C 162.9045 132.56648 164.4493 133.66991 165.9941 135.21471 C 168.93656 138.15718 172.76178 139.92266 175.0422 139.4813 C 175.9985 139.2606 175.11576 138.37787 172.02616 136.31814 C 167.5389 133.3021 165.69985 131.24237 166.65615 130.35963 C 166.9504 130.06538 168.71588 130.50675 170.55492 131.3895 C 172.9089 132.56648 174.23301 132.86073 175.11576 132.3458 C 176.14562 131.7573 175.77781 131.46306 173.20315 130.4332 C 171.14342 129.55045 169.23081 128.00565 167.46533 125.50455 C 165.9941 123.51838 164.96423 121.7529 165.18491 121.53222 C 165.4056 121.31153 167.17108 122.04715 169.23081 123.22414 C 171.29054 124.32756 173.20315 124.98962 173.57096 124.69537 C 173.8652 124.32756 173.4974 123.73907 172.68822 123.2977 C 170.26068 122.04715 162.46313 113.58754 163.41943 113.2933 C 163.93436 113.14617 166.28834 114.17604 168.64232 115.64727 C 170.9963 117.11851 173.64452 118.2955 174.52726 118.2955 C 176.587 118.2955 175.85137 117.19207 172.83534 115.72084 C 169.59862 114.17604 161.50682 106.81986 162.24244 106.08424 C 162.53669 105.71643 163.05162 105.78999 163.34587 106.23136 C 164.22861 107.55548 170.48136 110.2037 172.76178 110.13014 C 174.60082 110.13014 174.38014 109.83589 170.4078 107.92329 C 166.28834 105.86356 163.34587 102.77396 164.4493 101.67053 C 164.66998 101.37629 166.06766 101.89122 167.5389 102.77396 C 169.01013 103.6567 170.55492 104.17163 170.92273 103.95095 C 171.73191 103.43602 171.80547 101.37629 170.9963 101.37629 C 169.89287 101.37629 165.69985 97.03614 165.69985 95.93271 C 165.69985 94.24079 167.83314 94.46148 172.46753 96.59477 C 174.67438 97.55107 179.75015 99.31656 183.79605 100.34642 C 192.84415 102.77396 206.89445 103.14177 213.515 101.22916 C 215.72186 100.56711 220.062 99.46368 223.07804 98.80162 C 226.09408 98.066 229.9193 97.1097 231.53765 96.59477 C 233.156 96.07984 236.31916 95.27066 238.52602 94.75573 C 240.73287 94.24079 245.07302 92.54887 248.08905 91.00407 C 253.60618 88.20873 255.44523 87.62023 255.44523 88.6501 Z" fill="#ff0000"/>
        </g>
        <g id="Graphic_67">
          <path d="M 175.26288 90.70983 C 175.26288 92.25462 172.98246 92.696 171.06986 91.44544 C 170.11355 90.78339 169.4515 90.04777 169.67218 89.67996 C 170.26068 88.79722 175.26288 89.67996 175.26288 90.70983 Z" fill="#ff0000"/>
        </g>
        <g id="Graphic_66">
          <path d="M 190.26948 92.25462 C 191.88784 92.91668 191.74072 94.02011 190.0488 94.02011 C 188.504 94.02011 187.5477 93.0638 188.28332 92.25462 C 188.8718 91.73969 188.8718 91.73969 190.26948 92.25462 Z" fill="#ff0000"/>
        </g>
        <g id="Graphic_65">
          <path d="M 259.12332 99.68437 C 259.12332 101.00848 254.78317 104.31876 253.1648 104.31876 C 252.0614 104.31876 256.99003 98.58094 258.24058 98.50738 C 258.68195 98.43381 259.12332 99.02231 259.12332 99.68437 Z" fill="#ff0000"/>
        </g>
        <g id="Graphic_64">
          <path d="M 258.9762 106.96698 C 259.19688 108.80603 258.3877 109.90945 256.40153 110.49795 C 254.3418 111.16 254.12112 109.54164 255.8866 106.81986 C 257.28427 104.76013 258.68195 104.83369 258.9762 106.96698 Z" fill="#ff0000"/>
        </g>
        <g id="Graphic_63">
          <path d="M 163.34587 118.95755 C 163.56655 119.54605 163.2723 119.8403 162.68381 119.61961 C 162.16888 119.47249 161.58039 118.88399 161.43326 118.36906 C 161.21258 117.78057 161.50682 117.48632 162.09532 117.707 C 162.61025 117.85413 163.19875 118.44262 163.34587 118.95755 Z" fill="#ff0000"/>
        </g>
        <g id="Graphic_62">
          <path d="M 258.9762 120.50235 C 258.82907 121.90003 259.19688 123.00345 259.78537 123.37126 C 260.66812 123.95976 260.521 124.40113 259.27044 125.94592 C 257.7992 127.85853 249.5603 132.56648 248.89823 131.90443 C 248.45686 131.3895 250.36947 129.32977 251.32577 129.32977 C 251.8407 129.32977 253.31194 128.15278 254.7096 126.7551 C 256.4751 124.91606 256.99003 123.95976 256.40153 123.37126 C 255.81304 122.78277 255.81304 121.97359 256.40153 120.42879 C 257.50496 117.55988 259.344 117.55988 258.9762 120.50235 Z" fill="#ff0000"/>
        </g>
        <g id="Graphic_61">
          <path d="M 161.80107 125.06318 C 161.58039 125.65168 161.3597 125.43099 161.3597 124.62181 C 161.28614 123.81263 161.50682 123.37126 161.7275 123.66551 C 161.9482 123.8862 162.02176 124.54825 161.80107 125.06318 Z" fill="#ff0000"/>
        </g>
        <g id="Graphic_60">
          <path d="M 164.96423 127.85853 C 164.96423 128.22634 164.66998 128.59415 164.22861 128.59415 C 163.8608 128.59415 163.493 128.22634 163.493 127.85853 C 163.493 127.41716 163.8608 127.12291 164.22861 127.12291 C 164.66998 127.12291 164.96423 127.41716 164.96423 127.85853 Z" fill="#ff0000"/>
        </g>
        <g id="Graphic_59">
          <path d="M 251.03152 178.68973 C 250.59015 179.4989 249.63385 180.38165 248.9718 180.52877 C 248.30974 180.74946 246.4707 181.55864 244.99945 182.36782 C 243.23397 183.32412 242.13055 183.5448 241.8363 183.02987 C 241.10068 181.85288 242.71904 180.23452 245.14658 179.7196 C 246.32357 179.4989 247.64768 178.76329 248.1626 178.1748 C 248.60398 177.5863 249.63385 177.14493 250.44303 177.14493 C 251.62002 177.14493 251.69358 177.36561 251.03152 178.68973 Z" fill="#ff0000"/>
        </g>
        <g id="Graphic_58">
          <path d="M 239.99725 182.66206 C 239.99725 183.91261 237.71684 184.7218 236.8341 183.83905 C 236.31916 183.32412 236.39273 182.73563 236.98122 182 C 238.01108 180.74946 239.99725 181.19083 239.99725 182.66206 Z" fill="#ff0000"/>
        </g>
        <g id="Graphic_57">
          <path d="M 232.49395 183.5448 C 232.34683 184.35398 231.46409 184.94248 230.21354 185.0896 C 228.08024 185.38385 227.63887 184.64823 229.1101 183.177 C 230.50778 181.77932 232.7882 182.07357 232.49395 183.5448 Z" fill="#ff0000"/>
        </g>
        <g id="Graphic_56">
          <path d="M 225.2849 184.5011 C 225.2849 186.2666 223.3723 187.29646 222.1953 186.11947 C 221.6068 185.53097 221.6068 185.01604 222.34242 184.1333 C 223.66654 182.5885 225.2849 182.73563 225.2849 184.5011 Z" fill="#ff0000"/>
        </g>
        <g id="Graphic_55">
          <path d="M 248.45686 184.42755 C 248.67754 184.79536 248.23617 185.60453 247.50056 186.11947 C 246.69138 186.70796 246.17644 187.95851 246.17644 189.20906 C 246.25 190.38605 245.73507 191.6366 244.99945 192.07797 C 243.23397 193.25496 242.49835 192.15153 243.89603 190.53317 C 244.63165 189.79756 245.14658 188.91482 245.14658 188.62057 C 245.14658 187.81139 238.7467 188.84125 235.73067 190.0918 C 233.59738 190.97455 233.22957 190.90098 232.86176 189.94468 C 232.34683 188.47344 234.62724 186.78152 237.4226 186.6344 C 243.0133 186.41371 244.63165 186.0459 245.73507 184.94248 C 247.13275 183.61837 247.7948 183.47124 248.45686 184.42755 Z" fill="#ff0000"/>
        </g>
        <g id="Graphic_54">
          <path d="M 230.0664 188.98838 C 230.72847 190.01824 228.30093 192.5929 226.609 192.5929 C 225.0642 192.5929 224.76996 190.45961 226.16764 189.06194 C 227.27106 187.95851 229.47792 187.88495 230.0664 188.98838 Z" fill="#ff0000"/>
        </g>
        <g id="Graphic_53">
          <path d="M 223.07804 190.53317 C 223.07804 190.97455 222.5631 191.93085 221.90105 192.66647 C 221.239 193.40208 220.8712 194.57907 221.16544 195.24113 C 221.6068 196.34456 221.75393 196.41812 222.93092 195.24113 C 224.47572 193.91702 226.46188 193.69633 227.12394 194.79976 C 227.93312 196.12387 226.09408 198.25716 223.22517 199.06634 C 220.13557 200.02265 214.98624 200.24333 214.98624 199.50771 C 214.98624 199.21347 215.57474 197.8158 216.38392 196.34456 C 217.11954 194.87332 218.1494 192.8136 218.59077 191.6366 C 219.1057 190.23893 219.91488 189.65043 221.239 189.65043 C 222.26886 189.65043 223.07804 190.01824 223.07804 190.53317 Z" fill="#ff0000"/>
        </g>
        <g id="Graphic_52">
          <path d="M 233.3767 194.43195 C 233.3767 196.271 231.02271 198.1836 229.6986 197.37442 C 228.59518 196.71236 228.81586 195.6825 230.43422 194.06414 C 232.4204 192.07797 233.3767 192.2251 233.3767 194.43195 Z" fill="#ff0000"/>
        </g>
        <g id="Graphic_51">
          <path d="M 238.52602 194.5055 C 238.52602 195.16757 238.1582 195.53538 237.64328 195.38825 C 236.31916 194.94688 236.09848 193.32852 237.34903 193.32852 C 238.01108 193.32852 238.52602 193.84346 238.52602 194.5055 Z" fill="#ff0000"/>
        </g>
        <g id="Graphic_50">
          <path d="M 243.67534 196.34456 C 243.67534 198.1836 242.05698 199.94908 240.36506 199.94908 C 238.08465 199.94908 238.08465 199.43415 240.14438 197.2273 C 241.76274 195.46181 243.67534 194.94688 243.67534 196.34456 Z" fill="#ff0000"/>
        </g>
        <g id="Graphic_49">
          <path d="M 237.05478 200.53758 C 237.05478 200.90539 235.8778 201.71457 234.48012 202.37662 C 231.75833 203.70073 230.36066 202.89156 231.90546 201.0525 C 232.86176 199.87552 237.05478 199.50771 237.05478 200.53758 Z" fill="#ff0000"/>
        </g>
        <g id="Graphic_48">
          <path d="M 239.1145 204.80416 C 238.82026 206.2754 236.6134 207.8202 235.8778 207.08458 C 235.2893 206.49608 237.64328 203.62717 238.67314 203.62717 C 239.04095 203.62717 239.26164 204.1421 239.1145 204.80416 Z" fill="#ff0000"/>
        </g>
        <g id="Graphic_47">
          <path d="M 233.3767 208.04088 C 233.3767 209.07075 230.80203 210.24773 228.66874 210.24773 C 226.46188 210.24773 226.16764 209.21787 228.08024 208.11444 C 229.6986 207.15814 233.3767 207.08458 233.3767 208.04088 Z" fill="#ff0000"/>
        </g>
        <g id="Graphic_46">
          <path d="M 151.106 350.23245 C 150.81175 350.45313 144.85812 346.7407 143.53401 346.44645 C 143.53401 346.44645 138.81661 345.04394 136.65039 344.38137 C 134.48416 343.7188 136.72684 342.31628 136.72684 342.31628 C 141.49255 341.22116 151.98874 347.21106 151.106 348.16736 Z" fill="#ff0000"/>
        </g>
        <g id="Graphic_45">
          <path d="M 137.23143 355.53227 C 138.70267 356.12076 140.68884 356.6357 141.7187 356.6357 C 143.63131 356.6357 144.88186 357.8127 143.99912 358.69542 C 143.70487 358.98967 140.98308 359.2839 137.89349 359.2839 C 129.94882 359.43104 124.65237 360.24022 121.26853 361.8586 C 119.65017 362.66776 117.88468 363.25626 117.36975 363.25626 C 116.78126 363.25626 115.08934 363.9183 113.54454 364.7275 C 111.99974 365.4631 110.5285 365.9045 110.23426 365.6838 C 109.27795 364.65393 109.86645 363.1827 111.55837 362.3735 C 113.0296 361.71146 113.32385 361.19653 112.95604 359.5046 C 112.6618 357.73912 112.80892 357.3713 114.28016 357.15063 C 115.23646 356.92994 118.0318 356.34145 120.45935 355.6794 C 126.41785 354.20816 133.99472 354.1346 137.23143 355.53227 Z" fill="#ff0000"/>
        </g>
        <g id="Graphic_44">
          <path d="M 108.32165 361.785 C 108.32165 362.88845 107.80672 363.25626 106.4826 363.25626 C 104.49644 363.25626 104.12863 362.5942 105.5263 361.19653 C 106.85041 359.8724 108.32165 360.16666 108.32165 361.785 Z" fill="#ff0000"/>
        </g>
        <g id="Graphic_43">
          <path d="M 144.14624 362.8149 C 145.3968 364.06544 142.52788 365.02174 137.23143 365.02174 C 126.93278 365.02174 119.7855 365.4519 119.7855 364.8634 C 119.7855 363.68642 128.69827 362.0057 136.128 362.15283 C 140.24747 362.2264 143.852 362.52064 144.14624 362.8149 Z" fill="#ff0000"/>
        </g>
        <g id="Graphic_42">
          <path d="M 120.53291 366.8608 C 119.79729 367.66996 118.76742 369.58257 118.25249 371.12737 C 117.0755 374.80546 112.88248 377.15943 110.01357 375.8353 C 107.80672 374.80546 108.32165 374.06984 112.22043 372.8193 C 114.28016 372.15723 114.94221 371.56874 114.94221 370.3182 C 114.94221 368.4056 116.04564 366.93435 118.6203 365.24242 C 120.97428 363.62406 124.25986 364.3439 124.25986 364.3439 C 124.25986 364.3439 122.37195 364.80105 120.53291 366.8608 Z" fill="#ff0000"/>
        </g>
        <g id="Graphic_41">
          <path d="M 111.52515 365.03224 C 111.74584 365.4736 106.40904 367.15503 105.74699 367.3757 C 104.34931 367.9642 103.54013 367.3757 104.27575 366.2723 C 104.86425 365.24242 111.9692 362.6992 112.5577 363.6555 Z" fill="#ff0000"/>
        </g>
        <g id="Graphic_40">
          <path d="M 127.6684 367.08147 C 128.18333 368.62627 127.37415 369.8768 125.97648 369.8768 C 124.13744 369.8768 123.40182 368.5527 124.50524 367.30215 C 125.60867 365.97804 127.22703 365.9045 127.6684 367.08147 Z" fill="#ff0000"/>
        </g>
        <g id="Graphic_39">
          <path d="M 112.80892 368.84695 C 113.54454 369.80325 113.54454 370.0975 112.6618 370.686 C 111.41125 371.49518 111.117 371.49518 109.86645 370.686 C 108.6159 369.8768 109.35152 367.66996 110.74919 367.66996 C 111.33768 367.66996 112.22043 368.1849 112.80892 368.84695 Z" fill="#ff0000"/>
        </g>
        <g id="Graphic_38">
          <path d="M 220.8712 77.68939 C 220.8712 77.98364 221.31256 78.719255 221.75393 79.16063 C 223.07804 80.48474 221.31256 81.44104 217.5609 81.588165 C 215.42762 81.66173 215.94255 81.88241 219.76776 82.32378 C 225.21133 82.98584 229.9193 82.61803 232.05258 81.22036 C 234.25943 79.82268 233.52382 79.45487 230.0664 80.19049 C 226.0205 81.07323 223.96078 80.5583 225.2849 78.93994 C 225.72627 78.42501 226.8297 77.76295 227.71243 77.61583 C 228.59518 77.468705 227.4182 77.24802 225.13777 77.17446 C 222.7838 77.17446 220.8712 77.39514 220.8712 77.68939 Z" fill="#cccccc"/>
        </g>
        <g id="Graphic_37">
          <path d="M 235.21574 83.50077 C 233.22957 84.08927 230.0664 85.04557 228.22737 85.63406 L 224.91709 86.66393 L 229.99285 86.44324 C 232.7882 86.36968 234.99505 86.59037 234.99505 86.95818 C 234.9215 87.84092 229.84573 89.6064 227.34463 89.6064 C 226.2412 89.6064 224.47572 89.97421 223.29873 90.41558 C 222.1953 90.85695 217.34022 91.44544 212.5587 91.66613 C 207.85075 91.96038 203.87841 92.47531 203.7313 92.91668 C 203.65773 93.35805 206.30595 93.72586 210.35185 93.87298 C 217.34022 94.09367 222.12174 93.21093 234.1123 89.31215 C 238.82026 87.84092 239.62944 87.32598 239.40876 86.07543 C 239.26164 85.26625 239.55588 84.38351 239.99725 84.08927 C 240.80643 83.57433 240.2915 82.17666 239.40876 82.32378 C 239.1145 82.32378 237.27547 82.91228 235.21574 83.50077 Z" fill="#cccccc"/>
        </g>
        <g id="Graphic_36">
          <path d="M 219.39995 105.05438 C 219.39995 105.42218 220.20913 105.78999 221.16544 105.78999 C 222.1953 105.78999 223.22517 105.42218 223.44585 105.05438 C 223.7401 104.613 222.93092 104.31876 221.68037 104.31876 C 220.42982 104.31876 219.39995 104.613 219.39995 105.05438 Z" fill="#cccccc"/>
        </g>
        <g id="Graphic_35">
          <path d="M 207.1887 125.2103 C 206.67376 125.72524 205.42321 126.7551 204.31979 127.56428 C 202.9221 128.59415 202.03937 130.28607 201.30375 133.00786 C 200.0532 138.01006 199.90608 142.79157 201.15663 142.42376 C 201.89225 142.12952 207.5565 129.62401 208.88062 125.43099 C 209.32199 123.95976 208.36568 123.81263 207.1887 125.2103 Z" fill="#cccccc"/>
        </g>
        <g id="Graphic_34">
          <path d="M 209.76336 133.52279 C 208.7335 134.69978 206.968 137.05375 205.86458 138.8928 C 204.83472 140.73184 202.9221 143.74788 201.67156 145.66048 C 199.83252 148.45583 199.31758 150.22131 199.0969 154.34077 C 198.87621 157.13612 199.02334 159.4901 199.31758 159.4901 C 200.20033 159.4901 205.6439 148.8972 206.968 144.77774 C 207.48294 142.9387 209.02774 139.55485 210.35185 137.20088 C 211.67596 134.77334 212.7794 132.56648 212.7794 132.19868 C 212.7794 131.02169 211.6024 131.53662 209.76336 133.52279 Z" fill="#cccccc"/>
        </g>
        <g id="Graphic_33">
          <path d="M 251.91426 137.348 C 246.25 140.95253 235.43642 145.51336 232.4204 145.51336 C 231.16984 145.51336 230.72847 146.61679 231.75833 147.20528 C 232.93532 147.86734 245.07302 144.77774 249.78097 142.57089 C 254.5625 140.29047 256.18085 138.74568 256.18085 136.3917 C 256.18085 134.8469 255.6659 134.92046 251.91426 137.348 Z" fill="#cccccc"/>
        </g>
        <g id="Graphic_32">
          <path d="M 211.67596 147.57309 C 210.42541 148.67652 208.58637 150.73625 207.63007 152.13392 C 206.67376 153.5316 205.6439 154.8557 205.34965 155.0764 C 204.54047 155.73845 198.80265 168.1704 198.80265 169.34738 C 198.80265 170.96574 199.75895 170.81862 201.37731 169.05313 C 202.11293 168.24395 202.99567 167.5819 203.43704 167.5819 C 204.83472 167.5819 203.06924 171.70136 200.93594 173.31972 C 199.4647 174.4967 198.80265 175.6737 198.80265 177.2185 C 198.80265 182.07357 202.40718 178.76329 207.1887 169.42094 C 208.58637 166.55203 210.6461 163.09463 211.67596 161.69695 C 213.515 159.26941 213.29432 157.5775 211.2346 158.38667 C 210.6461 158.60736 209.1013 160.4464 207.70363 162.43257 C 205.12897 166.33135 203.65773 166.69915 204.61403 163.31531 C 205.71746 159.4901 212.7794 147.72021 214.39775 147.13172 C 215.13337 146.76391 215.20693 145.51336 214.4713 145.51336 C 214.1035 145.51336 212.85295 146.46966 211.67596 147.57309 Z" fill="#cccccc"/>
        </g>
        <g id="Graphic_31">
          <path d="M 252.797 149.8535 C 251.62002 150.58912 247.35343 152.5753 243.30753 154.26721 C 233.67094 158.38667 232.5675 158.9016 233.00888 159.34298 C 233.22957 159.56366 235.58355 159.1223 238.30533 158.46023 C 241.10068 157.79818 244.7052 156.84188 246.4707 156.4005 C 250.22234 155.4442 251.17865 155.95913 248.30974 157.50393 C 247.2063 158.09243 244.26384 159.63722 241.90986 160.88777 C 239.48232 162.13832 236.76053 163.16819 235.8778 163.16819 C 234.9215 163.16819 233.9652 163.536 233.67094 164.05093 C 233.30313 164.63942 233.9652 164.71299 236.02492 164.41874 C 241.54205 163.536 244.77877 162.65326 247.35343 161.54983 C 248.7511 160.88777 250.59015 160.15216 251.4729 159.93147 C 253.3855 159.34298 255.22454 155.81201 253.90043 155.0764 C 252.94413 154.41434 253.60618 151.91324 255.15098 150.36844 C 256.76934 148.67652 255.22454 148.38227 252.797 149.8535 Z" fill="#cccccc"/>
        </g>
        <g id="Graphic_30">
          <path d="M 215.13337 165.30148 C 211.67596 168.97957 211.67596 168.97957 206.67376 176.48287 C 204.39335 179.94028 201.89225 183.32412 201.08307 184.05974 C 199.39115 185.60453 198.36128 189.5033 199.31758 190.45961 C 200.20033 191.34235 205.57034 184.28042 207.7772 179.4989 C 209.4691 175.74726 215.42762 167.28765 217.85515 165.0808 C 218.7379 164.27162 219.39995 163.38887 219.39995 163.02107 C 219.39995 161.69695 217.63447 162.5797 215.13337 165.30148 Z" fill="#cccccc"/>
        </g>
        <g id="Graphic_29">
          <path d="M 175.18932 177.88055 C 176.80768 179.27822 180.4122 179.94028 180.4122 178.76329 C 180.4122 178.02767 176.73411 176.40931 174.96863 176.40931 C 173.4974 176.48287 173.4974 176.48287 175.18932 177.88055 Z" fill="#cccccc"/>
        </g>
        <g id="Graphic_28">
          <path d="M 215.79542 179.20466 C 214.17707 180.6759 212.7794 182.2207 212.7794 182.51494 C 212.7794 182.80919 211.67596 184.1333 210.35185 185.45741 C 204.98184 190.6803 202.48074 195.97675 204.61403 197.30086 C 205.34965 197.8158 209.61623 192.29866 211.67596 188.1792 C 212.41158 186.78152 214.4713 183.83905 216.2368 181.70576 C 219.03214 178.24836 219.98845 176.40931 219.1057 176.40931 C 218.95858 176.40931 217.48735 177.65986 215.79542 179.20466 Z" fill="#cccccc"/>
        </g>
        <g id="Graphic_27">
          <path d="M 230.8756 215.24994 C 230.6549 215.61774 226.68257 217.16254 221.97461 218.70734 C 217.34022 220.25214 213.515 221.8705 213.515 222.2383 C 213.515 222.60611 214.25063 222.75324 215.20693 222.53255 C 216.08967 222.31187 218.95858 221.72337 221.6068 221.20844 C 224.25503 220.76707 226.68257 220.03145 227.12394 219.7372 C 227.49175 219.3694 228.22737 219.07515 228.81586 219.07515 C 230.36066 219.07515 234.18587 216.13268 233.7445 215.3235 C 233.156 214.51432 231.39052 214.44076 230.8756 215.24994 Z" fill="#cccccc"/>
        </g>
        <g id="Graphic_26">
          <path d="M 183.35468 231.13928 C 183.35468 232.02202 185.19372 234.52312 185.78221 234.52312 C 185.85578 234.52312 187.10633 234.81737 188.504 235.25874 L 191.07866 235.99436 L 187.9155 233.0519 C 184.60523 229.9623 183.35468 229.44736 183.35468 231.13928 Z" fill="#cccccc"/>
        </g>
        <g id="Graphic_25">
          <path d="M 209.1013 234.44956 C 209.1013 235.3323 211.2346 236.14148 212.11734 235.553 C 212.48514 235.3323 212.63227 234.81737 212.41158 234.44956 C 211.8231 233.56682 209.1013 233.56682 209.1013 234.44956 Z" fill="#cccccc"/>
        </g>
        <g id="Graphic_24">
          <path d="M 184.0903 238.71615 C 184.16386 239.45176 185.78221 241.2908 187.69482 242.76204 C 191.74072 245.85164 192.1821 246.07233 192.1821 244.45397 C 192.1821 243.86547 191.88784 243.35054 191.44647 243.35054 C 191.07866 243.35054 189.4603 242.02643 187.84194 240.40807 C 184.60523 237.0978 184.0903 236.8771 184.0903 238.71615 Z" fill="#cccccc"/>
        </g>
        <g id="Graphic_23">
          <path d="M 185.92934 247.02863 C 185.48797 247.76425 186.73852 249.45617 190.93154 253.72275 C 193.65333 256.44454 195.12456 257.25372 195.12456 256.00317 C 195.12456 255.194 187.69482 246.293 186.9592 246.293 C 186.66496 246.293 186.22359 246.58726 185.92934 247.02863 Z" fill="#cccccc"/>
        </g>
        <g id="Graphic_22">
          <path d="M 188.504 259.68126 C 188.504 261.8881 189.16606 262.6973 191.66716 263.80072 C 195.051 265.27195 195.34525 264.83058 192.5499 262.1088 C 191.15223 260.63756 189.97524 259.16632 189.97524 258.7985 C 189.97524 258.35714 189.681 258.0629 189.23962 258.0629 C 188.8718 258.0629 188.504 258.7985 188.504 259.68126 Z" fill="#cccccc"/>
        </g>
        <g id="Graphic_21">
          <path d="M 220.50338 275.9384 C 215.2805 278.58664 215.35405 278.51307 215.86899 279.10157 C 216.45748 279.6165 222.85736 277.4832 225.13777 276.01197 C 226.90325 274.835 227.34463 273.4373 225.8734 273.58443 C 225.35846 273.658 222.93092 274.68786 220.50338 275.9384 Z" fill="#cccccc"/>
        </g>
        <g id="Graphic_20">
          <path d="M 222.34242 286.3842 C 220.94475 287.3405 219.25283 288.14967 218.66433 288.22323 C 217.41378 288.2968 214.54487 290.28296 215.0598 290.72433 C 215.72186 291.3864 222.41599 289.17953 224.54928 287.63474 C 228.7423 284.54514 226.75613 283.36815 222.34242 286.3842 Z" fill="#cccccc"/>
        </g>
        <g id="Graphic_19">
          <path d="M 221.239 298.00695 C 217.26666 300.06668 217.04597 300.36093 218.81146 300.5816 C 221.38612 300.87586 227.49175 298.22763 227.49175 296.7564 C 227.49175 295.13804 226.38832 295.4323 221.239 298.00695 Z" fill="#cccccc"/>
        </g>
        <g id="Graphic_18">
          <path d="M 214.1035 301.24367 C 214.61844 301.46435 215.2805 301.3908 215.50118 301.1701 C 215.79542 300.94942 215.35405 300.72873 214.54487 300.8023 C 213.7357 300.8023 213.515 301.02298 214.1035 301.24367 Z" fill="#cccccc"/>
        </g>
        <g id="Graphic_17">
          <path d="M 207.99787 311.0274 C 207.26226 312.27794 209.6898 315.95603 211.9702 316.91233 C 215.0598 318.16288 216.2368 319.70768 214.61844 320.29617 C 212.7794 321.0318 207.40938 319.19274 206.0117 317.42726 C 204.76116 315.8089 204.6876 315.8089 204.6876 317.3537 C 204.6876 319.1192 206.74732 321.10535 211.0139 323.38577 C 214.25063 325.0777 216.2368 324.857 221.53324 322.20878 C 224.99065 320.51686 225.50558 318.75137 222.41599 319.487 C 220.6505 319.8548 220.13557 319.70768 220.13557 318.8985 C 220.13557 318.31 220.79763 317.64795 221.53324 317.42726 C 223.3723 316.9859 225.50558 313.6756 225.0642 311.9837 C 224.76996 310.8067 224.62284 310.8067 224.18147 312.27794 C 223.00448 315.95603 213.88282 315.36753 210.6461 311.46876 C 209.54267 310.14464 208.65993 309.99752 207.99787 311.0274 Z" fill="#cccccc"/>
        </g>
        <g id="Graphic_16">
          <path d="M 194.38894 324.41563 C 194.38894 325.0777 194.75675 325.88687 195.19812 326.1811 C 195.78662 326.54892 195.86018 328.46153 195.56593 332.28674 C 195.12456 337.3625 195.19812 337.7303 196.228 336.47976 C 197.9199 334.2729 197.69922 327.28454 195.86018 325.00413 C 194.75675 323.5329 194.38894 323.45933 194.38894 324.41563 Z" fill="#cccccc"/>
        </g>
        <g id="Graphic_15">
          <path d="M 201.52444 326.9903 C 200.6417 328.38797 200.12676 334.56716 200.86238 334.56716 C 201.74512 334.56716 203.21636 330.59482 203.21636 328.24084 C 203.21636 326.54892 202.1865 325.88687 201.52444 326.9903 Z" fill="#cccccc"/>
        </g>
        <g id="Graphic_14">
          <path d="M 231.53765 328.46153 C 233.08245 334.56716 232.5675 340.59922 229.99285 346.85198 C 229.1101 348.98527 231.16984 347.5876 232.71464 345.01293 C 234.25943 342.65895 234.48012 341.4084 234.333 335.96483 C 234.25943 329.71208 233.3767 326.47536 231.75833 326.47536 C 231.31696 326.47536 231.16984 327.21098 231.53765 328.46153 Z" fill="#cccccc"/>
        </g>
        <g id="Graphic_13">
          <path d="M 190.71085 331.9925 C 190.71085 333.61085 190.34305 335.4499 189.97524 336.0384 C 189.4603 336.92114 189.01893 336.47976 187.98907 334.05223 C 187.25345 332.28674 186.44427 330.88907 186.22359 330.88907 C 185.56153 330.88907 184.89947 344.35088 185.56153 345.0865 C 185.85578 345.38074 186.51783 345.16006 187.03277 344.498 C 187.5477 343.9095 188.504 343.39457 189.23962 343.39457 C 189.97524 343.39457 190.93154 342.87964 191.44647 342.29115 C 192.69702 340.74635 192.84415 331.25688 191.66716 330.0799 C 190.85798 329.34427 190.71085 329.71208 190.71085 331.9925 Z" fill="#cccccc"/>
        </g>
        <g id="Graphic_12">
          <path d="M 219.6942 336.55333 C 219.76776 339.7165 219.47351 343.39457 219.17927 344.64512 C 218.5172 347.29335 219.25283 347.8083 221.16544 345.89567 C 222.63667 344.498 222.85736 333.1695 221.45968 331.7718 C 219.91488 330.227 219.6942 330.8155 219.6942 336.55333 Z" fill="#cccccc"/>
        </g>
        <g id="Graphic_11">
          <path d="M 227.49175 336.25908 C 226.97682 339.20155 225.72627 343.10033 224.6964 345.0865 C 223.66654 346.9991 223.07804 348.7646 223.29873 349.05883 C 224.18147 349.868 226.90325 346.85198 228.30093 343.5417 C 229.77216 340.2314 230.21354 332.06606 229.1101 331.33044 C 228.7423 331.10975 228.00668 333.3166 227.49175 336.25908 Z" fill="#cccccc"/>
        </g>
        <g id="Graphic_10">
          <path d="M 238.52602 335.74415 C 238.52602 336.33264 238.89383 336.6269 239.26164 336.4062 C 239.703 336.11196 239.85013 335.59702 239.62944 335.2292 C 238.9674 334.19935 238.52602 334.42003 238.52602 335.74415 Z" fill="#cccccc"/>
        </g>
        <g id="Graphic_9">
          <path d="M 181.957 335.30278 C 181.88344 335.52346 181.66275 337.06826 181.51563 338.6866 C 181.3685 340.37854 180.92714 342.43827 180.48577 343.24745 C 179.52946 345.0865 179.38234 348.5439 180.33864 348.5439 C 181.66275 348.5439 182.69262 344.20375 182.39837 339.64292 C 182.25125 337.06826 182.10413 335.0821 181.957 335.30278 Z" fill="#cccccc"/>
        </g>
        <g id="Graphic_8">
          <path d="M 213.515 338.39237 C 213.515 338.9073 213.88282 339.8636 214.25063 340.4521 C 214.83912 341.33484 214.98624 341.11416 214.98624 339.4958 C 214.98624 338.39237 214.692 337.50963 214.25063 337.50963 C 213.88282 337.50963 213.515 337.951 213.515 338.39237 Z" fill="#cccccc"/>
        </g>
        <g id="Graphic_7">
          <path d="M 175.70425 338.98087 C 175.48356 339.56936 175.18932 341.92334 175.0422 344.1302 C 174.89507 346.33704 174.4537 348.9117 174.15945 349.79445 C 173.71808 351.11856 173.8652 351.48637 174.8215 351.48637 C 176.43987 351.48637 177.46973 348.5439 177.46973 343.9095 C 177.46973 339.8636 176.43987 336.92114 175.70425 338.98087 Z" fill="#cccccc"/>
        </g>
        <g id="Graphic_6">
          <path d="M 237.34903 343.7624 C 236.53985 346.4106 236.02492 348.5439 236.2456 348.5439 C 237.34903 348.5439 239.99725 343.39457 239.99725 341.33484 C 239.99725 337.65675 239.04095 338.5395 237.34903 343.7624 Z" fill="#cccccc"/>
        </g>
        <g id="Graphic_5">
          <path d="M 169.37794 348.3232 C 169.37794 349.5002 168.64232 351.7806 167.75958 353.47254 C 166.87683 355.16446 166.3619 356.7828 166.65615 357.07707 C 166.87683 357.3713 168.2745 356.70926 169.74574 355.60583 C 171.87904 353.98747 172.3204 353.1783 172.3204 350.8243 C 172.3204 348.24965 171.29054 346.33704 169.96643 346.33704 C 169.67218 346.33704 169.37794 347.2198 169.37794 348.3232 Z" fill="#cccccc"/>
        </g>
        <g id="Graphic_4">
          <path d="M 153.48859 373.48134 C 150.25187 374.58477 147.16228 375.76176 146.7209 376.056 C 144.88186 377.15943 146.79447 377.9686 151.20817 377.9686 C 155.4012 377.9686 155.98969 377.74793 158.19654 375.4675 C 160.4034 373.1871 161.28614 371.2745 160.03559 371.4216 C 159.66778 371.4216 156.79887 372.3779 153.48859 373.48134 Z" fill="#cccccc"/>
        </g>
      </g>
    </g>
  </g>
</svg>
