<?xml version="1.0" encoding="utf-8"?>
<svg xmlns:xl="http://www.w3.org/1999/xlink" xmlns="http://www.w3.org/2000/svg"
     xmlns:dc="http://purl.org/dc/elements/1.1/"
     xmlns:xlink="http://www.w3.org/1999/xlink"
     version="1.1"
     viewBox="78.75 67.5 207 342"
     width="207"
     height="342"
     preserveAspectRatio="xMidYMid meet"
     zoomAndPan="magnify"
     contentScriptType="application/ecmascript"
     contentStyleType="text/css">
   <defs/>
   <metadata  xmlns:svg="http://www.w3.org/2000/svg"
             xmlns:rdf="http://www.w3.org/1999/02/22-rdf-syntax-ns#"
             xmlns:cc="http://creativecommons.org/ns#">
      <rdf:RDF>
         <cc:Work rdf:about="">
            <dc:creator>
               <cc:Agent>
                  <dc:title>http://heraldicart.org Man, Nude.svg</dc:title>
               </cc:Agent>
            </dc:creator>
         </cc:Work>
      </rdf:RDF>
   </metadata>
   <g stroke-opacity="1" fill="#ffff00" fill-opacity="1" stroke="#505050"
      stroke-dasharray="none">
      <title>Man, Nude</title>
      <g>
         <title>Art</title>
         <g>
            <g>
               <g  id="outline-0">
                  <path 
                        d="M 161.7133 70.9674 C 155.30316 74.14885 153.44166 76.01002 150.63996 82.00212 C 149.19243 85.1296 148.3991 86.44965 147.6568 86.95243 C 146.33375 87.8572 143.3077 92.22047 143.32536 93.23247 C 143.32935 93.46098 143.01372 94.08693 142.59845 94.61666 C 141.4483 96.07355 141.14066 97.15654 141.18226 99.53962 C 141.22272 101.85741 141.67901 103.67812 142.37937 104.51493 C 142.61244 104.7721 142.9165 105.35458 143.05506 105.80933 C 144.02326 108.89465 149.48302 114.87316 152.51029 116.19183 C 153.89163 116.7555 155.68825 116.78945 158.5851 116.24907 C 159.33423 116.13802 159.3365 116.2686 158.69769 118.95746 C 158.36537 120.49804 157.16532 122.83749 156.5502 123.14212 C 155.80563 123.51432 151.97615 126.74869 151.36843 127.4777 C 150.53847 128.5698 148.79444 129.67786 147.4617 130.02767 C 146.94166 130.16737 145.61233 130.71305 144.51152 131.25474 C 143.37863 131.82965 142.2761 132.27341 142.0476 132.2774 C 140.7418 132.3002 135.08859 137.68897 133.31062 140.59364 C 132.35862 142.17769 130.88169 147.36295 130.91132 149.06048 C 130.92728 149.97454 130.784 151.11997 130.59724 151.6457 C 130.40992 152.1388 130.1858 154.26528 130.05961 156.39005 C 129.93741 158.74334 129.67381 160.47865 129.38855 160.97346 C 129.13423 161.36975 128.82032 162.09364 128.69771 162.55295 C 128.57511 163.01226 128.25892 163.60557 128.03553 163.90336 C 127.33102 164.69938 126.35647 168.73294 126.38895 170.5937 C 126.37169 171.4757 126.19519 172.58904 125.94201 173.05063 C 125.68883 173.51221 125.51062 174.52763 125.49222 175.34432 C 125.50647 176.16045 125.30188 177.53552 125.02403 178.45471 C 124.68602 179.66884 124.61544 181.23751 124.73714 184.46822 L 124.87879 188.84151 L 123.10383 190.04807 C 121.39302 191.1882 116.39328 196.59822 116.40525 197.28377 C 116.42633 198.49163 112.86753 204.13774 111.86181 204.5145 C 111.53707 204.61813 110.83768 205.70796 110.30323 206.89286 C 109.23376 209.23003 107.15628 211.81337 105.38018 212.95464 C 104.79884 213.324 104.22149 213.92186 104.12925 214.25002 C 104.03701 214.57818 103.61947 214.97733 103.26265 215.11418 C 102.87319 215.2516 101.80673 215.89065 100.93615 216.5263 C 100.03348 217.19515 98.0581 218.14396 96.53233 218.66042 C 95.00656 219.17688 93.35136 219.7609 92.79981 219.96646 C 92.28034 220.1388 91.20875 220.48405 90.46134 220.69303 C 89.68128 220.90258 89.06615 221.2072 89.069 221.37043 C 89.07926 221.95804 86.53677 224.09234 84.2097 225.4718 C 81.398075 227.15363 80.88772 227.8483 81.88075 228.61468 C 83.03985 229.54144 87.37707 229.2045 91.56605 227.85783 C 92.70235 227.4788 93.13927 228.18957 92.3391 229.11788 C 92.05043 229.4168 91.73765 230.206 91.65055 230.82795 C 91.53079 231.4505 91.25237 232.33703 91.03241 232.8307 C 90.77979 233.32493 90.59589 234.0139 90.60159 234.34034 C 90.61526 235.12382 89.48734 237.85386 88.6923 239.07597 C 88.34118 239.53927 88.09199 240.22937 88.09826 240.58847 C 88.10395 240.91492 87.66231 241.8043 87.11931 242.49954 C 86.57688 243.22742 85.94108 244.21816 85.6896 244.7777 C 85.47021 245.304 85.09043 245.99638 84.89969 246.2936 C 84.38991 247.0209 85.76083 248.8583 86.80547 248.84008 C 87.68689 248.8247 88.1536 249.37168 87.6404 249.9031 C 87.09512 250.46777 87.27658 251.50956 88.07772 252.50787 C 88.71109 253.24788 89.0066 253.3407 89.85252 253.16265 C 90.40577 253.05503 91.4058 252.35182 92.07938 251.6543 C 93.07314 250.592 93.52618 250.3555 94.50553 250.33842 C 96.13778 250.30993 97.75236 249.26944 98.57492 247.75296 C 99.55558 245.93982 100.7452 244.8741 101.56532 245.08836 C 102.05727 245.2104 102.67183 244.87312 103.70051 243.94083 C 104.50467 243.24104 105.2779 242.63975 105.40847 242.63747 C 105.5717 242.63462 106.20921 241.7418 106.84274 240.6205 C 107.69794 239.10343 107.9775 238.28218 107.95699 237.10696 C 107.94217 236.2582 108.14334 234.68724 108.38569 233.6054 C 108.66069 232.523 108.98959 230.78654 109.13401 229.7064 C 109.279 228.65892 109.58664 227.57593 109.8421 227.24493 C 110.09814 226.94656 110.44526 226.25475 110.59937 225.72958 C 110.75291 225.17177 111.39213 224.3769 112.03706 223.90847 C 113.06859 223.1394 116.44845 220.3374 117.83053 219.07238 C 118.15242 218.80552 118.8632 218.3686 119.44568 218.06454 C 120.02873 217.79312 121.31915 216.8889 122.28425 216.0557 C 123.24935 215.22247 125.02147 213.8527 126.21508 213.01548 C 127.4087 212.17828 128.50382 211.31013 128.6304 211.07934 C 128.79021 210.88062 130.10643 209.5841 131.61796 208.25152 L 134.35118 205.82 L 134.6646 210.68012 C 134.89962 214.79053 134.85143 215.77102 134.38853 217.31388 C 132.81481 222.56614 132.32106 229.82415 132.56608 243.8615 C 132.71708 252.5124 132.86402 255.31817 133.24591 256.6177 C 133.5236 257.55984 133.95294 259.70757 134.17844 261.4017 C 134.40394 263.0958 134.87733 265.89587 135.26606 267.58715 C 135.62214 269.279 136.12817 272.07848 136.35367 273.7726 C 136.61182 275.46615 136.91286 277.74674 137.06225 278.82174 C 137.35703 280.74324 138.43056 284.25123 139.34787 286.29248 C 139.5855 286.8108 139.89926 287.94825 140.012 288.7953 C 140.1574 289.6418 140.67785 291.3961 141.15767 292.6939 C 142.70077 296.9121 143.646 300.55296 143.68076 302.5443 C 143.73221 303.62102 143.99434 305.5431 144.3098 306.77847 C 144.62583 308.0465 145.08554 310.06307 145.33628 311.33224 C 145.6191 312.5682 146.00668 314.19417 146.21509 314.90894 C 146.63133 316.30584 147.07891 319.4982 147.67514 325.59427 C 148.10888 329.8645 148.40024 331.5901 148.87152 332.39826 C 149.0078 332.72243 149.32553 334.0884 149.51269 335.45663 C 149.69985 336.82487 150.01645 338.12554 150.18309 338.31857 C 150.34973 338.5116 150.72592 339.48467 151.00418 340.45946 C 151.28243 341.43425 151.76852 343.09117 152.08056 344.13068 C 152.3926 345.1702 152.64106 346.30877 152.64733 346.66787 C 152.6536 347.02696 152.8603 347.6438 153.12829 348.03098 C 153.36364 348.41873 153.78786 350.27266 154.04943 352.16207 C 154.49986 355.51767 155.14559 358.8372 155.87672 361.43683 C 156.6777 364.2965 156.95692 367.1979 156.84824 372.196 C 156.77561 377.3894 156.71887 377.8802 155.59836 381.03464 C 154.60386 383.92564 153.74752 385.3774 152.70972 385.78737 C 152.19139 386.025 151.51382 386.494 151.19364 386.8588 C 150.90553 387.19037 150.2904 387.495 149.86602 387.5024 C 149.44163 387.5098 148.66214 387.752 148.17703 388.0217 C 147.49718 388.36013 146.16102 388.51407 143.2224 388.5327 L 139.17385 388.57073 L 137.07358 389.84827 C 135.91033 390.55433 134.52483 391.62347 133.9469 392.1887 C 132.85635 393.318 132.8592 393.4812 133.93046 396.85864 C 134.48127 398.48177 136.1048 399.82493 137.54118 399.79986 C 138.0635 399.79075 138.8819 399.9071 139.30914 400.0629 C 140.68935 400.5613 146.4045 400.59215 147.50645 400.11574 C 149.19202 399.40057 154.54767 397.5437 156.952 396.84865 C 161.01382 395.70014 163.36369 395.62647 167.26496 396.50536 C 168.44531 396.77866 172.58113 394.25735 173.27482 392.84108 C 173.7789 391.7873 173.70222 391.13556 172.24224 386.06688 C 171.92735 384.86414 171.35375 381.9352 171.01834 379.55725 C 170.68294 377.1793 170.16437 373.6616 169.8696 371.74012 C 168.57545 363.0765 169.51412 343.8917 171.69401 335.95114 C 171.84755 335.39333 172.03504 333.0389 172.12516 330.71883 C 172.298 325.6543 171.71585 322.2357 169.93398 317.43387 C 168.22252 312.9247 167.7353 311.2025 167.67302 309.50553 C 167.60675 307.58005 168.08757 297.70987 168.30526 297.08563 C 168.5831 296.16644 169.65396 297.64987 169.84567 299.27927 C 169.96013 300.22427 170.5768 301.8789 171.45463 303.529 C 173.37865 307.1201 173.37865 307.1201 173.78976 308.2232 C 173.9621 308.74266 174.67728 310.42823 175.32431 311.9517 C 176.9923 315.8412 177.27226 316.9139 177.46096 320.24143 C 177.60904 323.11247 177.50182 324.4532 176.85258 328.41578 C 176.67551 329.49648 176.56072 332.27415 176.5691 334.62516 C 176.61282 339.00016 177.08849 341.9308 179.08943 349.929 C 179.58064 351.8797 179.97963 354.1586 179.99387 354.9747 C 179.9846 356.3137 179.88958 362.0953 179.72097 371.14365 C 179.65722 373.10406 179.47486 375.7523 179.30122 377.02887 C 179.06912 378.6983 179.08678 379.7103 179.36789 380.84833 C 179.82304 382.60375 181.50315 385.31744 182.15605 385.30604 C 182.7763 385.2952 185.13969 387.86635 185.81823 389.324 C 186.15721 390.03647 186.66455 391.0399 186.96804 391.58976 C 188.88978 395.0503 190.0768 397.57665 190.29261 398.7158 C 190.83414 401.67795 192.22045 404.39677 193.16715 404.38024 C 193.4936 404.37455 193.92198 404.59565 194.15505 404.85282 C 194.38812 405.11 194.84914 405.33053 195.1756 405.32483 C 195.53469 405.31857 196.35993 405.82664 197.08894 406.43436 C 198.5149 407.683 199.30123 407.83256 199.57908 406.91337 C 199.67132 406.5852 200.21716 406.0532 200.76757 405.78236 C 201.64158 405.3426 201.9348 405.3048 202.65984 405.684 C 203.35165 406.03115 203.6128 406.0266 204.35567 405.55645 C 205.26004 404.98554 205.60717 404.2937 206.1526 401.86774 C 206.66598 399.47497 207.06676 394.3738 206.81716 393.16993 C 206.4588 391.3475 204.87833 388.73005 203.75587 388.03123 C 203.19464 387.68182 201.8746 386.8885 200.85177 386.2859 C 199.3668 385.3975 198.83479 384.85164 198.29138 383.6529 C 197.9169 382.77774 197.48055 382.0996 197.31733 382.10246 C 196.99088 382.10815 194.66886 378.1648 194.65803 377.54453 C 194.65347 377.28337 194.08084 376.28106 193.41085 375.3131 C 192.23864 373.6355 192.16823 373.34285 192.02243 370.6024 C 191.88232 368.18836 191.9626 367.17466 192.60654 364.7796 C 193.06887 363.2041 193.3949 361.30443 193.38123 360.52095 C 193.35388 358.954 194.25973 354.7257 194.9815 353.0477 C 195.23183 352.4229 195.59565 350.81644 195.8008 349.474 C 195.9733 348.13214 196.27412 346.65742 196.42994 346.2302 C 196.6184 345.8024 196.9192 344.32766 197.15643 342.952 C 197.98445 338.00667 198.46916 335.843 199.12394 334.0682 C 199.77985 332.3587 200.15653 327.74776 200.01888 323.603 C 199.9938 322.1666 199.35662 319.33676 198.56647 317.09736 C 198.32713 316.4811 197.84047 314.79153 197.48895 313.36085 C 197.10478 311.93074 196.61926 310.30647 196.38163 309.78814 C 196.00715 308.913 195.85206 307.51154 195.60906 302.9441 C 195.46725 300.43214 196.29812 295.65 197.47766 292.13535 C 197.6312 291.57754 198.24592 289.37893 198.76327 287.21467 C 199.31327 285.04985 199.89763 282.9824 200.1193 282.58666 C 200.3089 282.22414 200.54215 280.61998 200.6116 278.98602 C 200.71425 277.38414 201.17788 274.0126 201.62368 271.49038 C 202.6969 265.62642 202.74851 264.8418 202.85053 257.59063 C 203.02215 246.84416 203.53487 238.8021 204.28547 235.03368 C 204.46425 234.05091 204.4386 232.5819 204.20911 230.65926 C 203.98532 229.06307 203.86289 227.66105 203.92647 227.56197 C 203.99005 227.4629 203.80574 226.25788 203.55386 224.92343 C 203.26934 223.58954 202.9643 221.08044 202.83617 219.35196 L 202.65088 216.22033 L 204.64695 214.5854 C 206.44943 213.08446 206.64017 212.78724 206.5257 211.84224 C 206.32716 209.8211 204.29137 207.30955 201.9187 206.07743 C 201.3254 205.76123 201.1542 205.30705 200.92414 203.35177 C 200.77076 202.04825 200.41411 200.32377 200.1387 199.5122 C 199.8633 198.70064 199.51235 197.3026 199.36639 196.42346 C 199.0418 194.66576 198.52535 193.14 197.6796 191.4567 C 197.23926 190.55005 197.1992 190.12624 197.50059 188.68416 C 197.71258 187.73347 197.99743 185.34469 198.1591 183.38257 C 198.32022 181.3878 198.4876 179.75214 198.55175 179.6857 C 198.80778 179.38735 199.7023 180.1228 199.71142 180.64512 C 199.71769 181.0042 200.29772 182.4309 201.03984 183.78945 C 201.74932 185.14858 202.6953 186.96074 203.10185 187.80267 C 203.54162 188.67668 204.24425 189.64406 204.67434 189.9631 C 205.13706 190.28158 205.64099 191.08915 205.81618 191.77185 C 206.02344 192.42133 206.66136 193.4225 207.22715 194.03306 C 207.82502 194.61042 208.9583 195.92949 209.79267 196.95988 C 210.62646 197.95763 211.8256 199.3082 212.4899 199.9497 C 213.15363 200.55857 214.09333 202.01164 214.60352 203.1783 C 215.1137 204.34498 215.95605 205.8324 216.5224 206.47561 C 217.05612 207.1194 217.4919 207.7649 217.49418 207.89547 C 217.49646 208.02605 219.32498 209.88812 221.58245 212.00394 C 226.59732 216.81464 230.157 220.57313 231.43226 222.54282 C 232.53918 224.22156 238.6845 230.1881 239.30474 230.17728 C 239.5006 230.17386 240.25942 230.61778 240.95408 231.12814 C 241.68196 231.67057 243.43494 232.94616 244.92277 233.9978 C 246.37795 235.05002 248.36685 236.746 249.2997 237.80734 C 252.1968 241.02227 255.75046 248.17697 256.60858 252.4398 C 256.7179 253.09098 257.12333 253.86762 257.48812 254.1878 C 257.85292 254.508 258.15584 255.02518 258.16097 255.31898 C 258.17806 256.29833 259.50608 257.5487 261.38166 258.36498 C 263.58654 259.3388 267.67082 263.21875 268.75364 265.38773 C 269.56447 266.941 270.0255 267.16155 271.0908 266.4572 C 271.60743 266.12164 271.8686 266.11708 272.3313 266.43555 C 273.32263 267.104 275.49486 268.0784 276.1151 268.06756 C 277.09447 268.05046 277.1106 267.1032 276.1984 265.35575 C 274.88023 262.79902 273.5856 259.7194 273.57476 259.09914 C 273.56906 258.7727 273.332 258.287 273.0325 257.9657 C 272.733 257.64436 272.56236 257.22283 272.62366 256.99317 C 272.7474 256.59916 272.98105 256.88897 275.26302 260.40853 C 277.57763 263.9275 278.04378 264.44185 279.36097 265.07196 C 281.1054 265.85788 282.7388 265.89468 282.95306 265.07457 C 283.59644 262.64687 283.5615 262.51686 281.69522 260.36156 C 280.72857 259.2355 279.6262 257.81794 279.25686 257.2366 C 278.8875 256.65525 278.21524 255.55672 277.7451 254.81386 C 277.27497 254.071 276.33754 252.74852 275.6687 251.84586 C 274.09905 249.84865 273.9863 249.0016 275.29722 249.2726 C 275.7886 249.362 277.09897 249.60036 278.24553 249.80893 L 280.30843 250.13212 L 281.49578 248.93582 C 282.58577 247.77387 282.61727 247.708 282.05205 247.1301 C 281.75198 246.77612 281.0928 246.42842 280.60143 246.33904 C 279.68395 246.15912 276.6631 243.33822 274.72526 240.82496 C 273.48947 239.24644 273.3566 239.11814 271.8481 238.7526 C 271.1918 238.56814 270.2039 238.09556 269.70738 237.71236 C 269.2103 237.29653 267.89253 236.63378 266.8399 236.19498 C 265.6235 235.7264 264.1706 234.80476 263.04187 233.74685 C 262.01278 232.78516 260.68646 231.63274 260.09088 231.18596 C 259.46265 230.73976 257.62557 228.38802 256.01645 225.99964 C 254.3741 223.5792 252.66534 221.09459 252.16484 220.48288 C 251.69698 219.8706 250.022 217.45072 248.41458 215.16028 C 244.96326 210.12635 244.9627 210.0937 239.8442 204.95826 C 237.61766 202.74394 235.35392 200.26902 234.81793 199.49466 C 234.2825 198.75294 233.48022 197.68934 233.04615 197.14178 C 232.0795 196.01573 229.94765 191.7425 229.9334 190.92637 C 229.9277 190.59992 229.654 189.88629 229.3511 189.3691 C 229.0476 188.81926 228.70234 187.74767 228.52487 186.9344 C 227.94785 183.8096 225.38095 177.06218 223.765 174.28206 C 223.5972 174.02375 222.17768 171.27286 220.5566 168.19894 C 217.27892 161.88844 215.50502 157.54365 215.1622 154.7413 C 214.86515 152.68923 213.78234 150.52025 210.66487 145.90502 C 209.59117 144.25836 208.08283 142.0315 207.3447 140.90146 C 206.20343 139.12536 205.50705 138.51707 202.30345 136.45042 C 200.28875 135.14673 198.33933 133.84191 198.00775 133.5538 C 197.67617 133.2657 196.95115 132.88649 196.35955 132.66823 C 195.76795 132.44998 195.10764 132.03699 194.874 131.74717 C 194.64093 131.49 193.48639 130.8244 192.30148 130.28995 C 191.116 129.72285 189.79824 129.0601 189.33608 128.77427 C 188.87392 128.48845 188.15004 128.17453 187.69073 128.05193 C 186.70625 127.77522 181.9886 123.15526 180.64805 121.1867 C 179.33957 119.18494 179.36025 118.49883 180.7674 118.6702 C 181.32407 118.75844 182.79595 118.89603 184.00552 118.97288 C 186.09822 119.13228 186.22823 119.09735 186.9316 118.23605 C 187.34687 117.70632 188.02045 117.00881 188.40535 116.61023 C 188.82347 116.24373 190.4295 114.71357 191.9376 113.18512 C 193.47835 111.6561 195.24761 110.12309 195.86217 109.78582 C 199.9699 107.52624 201.47834 102.27512 199.40266 97.47842 C 198.92683 96.40911 198.5495 95.37074 198.5455 95.14223 C 198.53468 94.52197 196.95193 91.77393 194.6396 88.38553 C 194.0034 87.4823 193.49662 86.51149 193.4915 86.21769 C 193.48636 85.92388 193.18572 85.53727 192.8232 85.34767 C 192.42805 85.15864 192.15834 84.67352 192.15036 84.21649 C 192.14239 83.75946 192.00098 83.14149 191.79941 82.81846 C 191.63106 82.5275 191.3826 81.38892 191.23322 80.31391 L 191.00316 78.35863 L 187.78246 75.31263 C 183.56532 71.30438 181.65482 70.35808 178.03123 70.42133 C 176.59485 70.4464 174.8028 70.67361 174.05652 70.947875 C 172.82342 71.39391 172.65962 71.36412 171.76738 70.75925 C 170.77607 70.0908 167.7934 69.45711 165.80206 69.491866 C 165.08387 69.5044 163.46131 70.08786 161.7133 70.9674 Z"
                        fill="black"/>
               </g>
            </g>
            <g>
               <g  id="feature-0">
                  <path 
                        d="M 171.92246 72.1607 C 172.21798 72.25351 172.32788 72.93734 172.22693 74.63716 C 172.1294 76.53285 171.91399 77.28767 171.15216 78.54186 C 170.26318 79.99419 170.10166 80.094975 167.85827 80.65661 C 166.55817 81.00585 164.89727 81.26343 164.17908 81.27597 C 163.46089 81.2885 162.4861 81.56676 162.00212 81.90175 C 160.77586 82.73953 159.18464 85.11846 159.20173 86.09781 C 159.20971 86.55484 159.0854 86.91621 158.88953 86.91963 C 158.7263 86.92248 158.50349 87.25292 158.41296 87.67901 C 158.32186 88.07246 157.5887 89.09756 156.78624 89.89529 C 155.98436 90.72566 154.93044 92.08291 154.48823 92.93965 C 154.01394 93.82961 153.50302 94.49163 153.306 94.42976 C 152.74762 94.24358 151.4976 91.84893 151.07451 90.0603 C 150.65371 88.40224 150.68465 88.30374 151.78676 85.966 C 152.3848 84.68202 153.07392 83.00459 153.25726 82.28298 C 154.39105 78.01805 157.08536 75.22801 161.72453 73.48163 C 162.6329 73.139225 163.96279 72.62619 164.67585 72.31985 C 165.64893 71.94366 166.69186 71.82749 168.75077 71.92217 C 170.2868 71.99332 171.72545 72.09883 171.92246 72.1607 Z"
                        fill="#ff0000"/>
               </g>
            </g>
            <g>
               <g  id="feature-1">
                  <path 
                        d="M 180.99076 73.471886 C 183.44597 73.82089 184.50144 74.42291 187.15976 77.05421 C 189.15265 78.97872 189.43546 80.21467 189.37082 85.8651 L 189.31431 90.11123 L 188.25298 91.04409 C 187.06336 92.10981 185.8629 92.55528 185.3979 92.10623 C 185.1986 91.91378 184.58592 90.48766 184.00304 88.89774 C 183.42015 87.30782 182.60476 85.49338 182.16898 84.84789 C 181.43028 83.6852 179.77353 82.30996 179.12063 82.32136 C 178.43508 82.33332 176.01268 80.12242 174.90634 78.47633 C 173.86585 76.86174 173.76222 76.537 173.93245 75.06456 C 174.01443 74.14879 174.26134 73.32811 174.45493 73.19411 C 174.87419 72.8929 177.94623 73.0352 180.99076 73.471886 Z"
                        fill="#ff0000"/>
               </g>
            </g>
            <g>
               <path d="M 174.4108 80.01976 C 175.0527 81.24944 175.91515 82.01811 178.0948 83.41688 C 179.84492 84.52925 183.09524 89.27279 184.36294 92.67943 C 185.0466 94.43086 185.12159 94.98468 184.87695 95.93595 C 184.6919 96.55962 184.3258 98.03548 184.05252 99.21583 C 183.8113 100.36296 183.37764 101.70938 183.1256 102.23626 C 182.87298 102.7305 182.69307 103.64797 182.70446 104.30087 C 182.71586 104.95377 182.53594 105.87125 182.28333 106.36548 C 182.03072 106.85972 181.72136 107.84476 181.60332 108.56523 C 181.33915 110.2679 179.7673 113.75676 178.93163 114.52241 C 178.35314 115.05498 177.08626 115.4363 171.23238 116.81202 L 169.50847 117.20132 L 167.5264 115.89706 C 166.43602 115.16503 165.15033 114.46907 164.65894 114.37968 C 162.3641 113.8646 160.47542 112.29748 159.12575 109.80661 C 158.5852 108.77109 157.44425 103.27232 157.48504 101.86745 C 157.51256 101.57307 157.50344 101.05075 157.53039 100.72373 C 157.54822 99.87439 156.7903 95.74045 156.37805 94.57207 C 155.86217 93.07895 156.11478 92.58471 158.64644 89.83016 C 159.86415 88.50271 160.94901 87.04696 161.07161 86.58765 C 161.31397 85.50581 162.61936 83.58904 163.6824 82.75411 C 164.29468 82.28625 165.2374 82.04121 167.29175 81.87473 C 170.22695 81.66022 171.8793 80.91297 172.73679 79.5265 C 173.3073 78.53689 173.66868 78.66121 174.4108 80.01976 Z"/>
            </g>
            <g>
               <g  id="feature-2">
                  <path 
                        d="M 149.34376 90.05785 C 149.7972 91.71534 150.9138 93.94904 151.57582 94.45996 C 151.80776 94.65184 152.66393 95.06141 153.48576 95.37362 C 155.09619 95.96595 155.79256 96.57424 155.80851 97.4883 C 155.83245 98.85939 151.70208 97.95183 149.87527 96.1877 C 148.6131 94.96884 147.89223 92.95682 147.85007 90.54109 C 147.80676 88.06008 148.7157 87.75032 149.34376 90.05785 Z"
                        fill="#ff0000"/>
               </g>
            </g>
            <g>
               <g  id="feature-3">
                  <path 
                        d="M 193.01402 90.66709 C 193.00474 92.0061 192.84892 92.43334 191.9514 93.396 C 190.4765 94.95652 186.15637 96.27282 186.13643 95.13024 C 186.13244 94.90173 186.54999 94.50258 187.03624 94.29817 C 188.52709 93.6517 190.93101 91.06265 191.62014 89.38523 C 192.21532 87.93802 192.27947 87.87159 192.64883 88.45293 C 192.85096 88.80861 192.9992 89.81832 193.01402 90.66709 Z"
                        fill="#ff0000"/>
               </g>
            </g>
            <g>
               <g  id="feature-4">
                  <path 
                        d="M 146.95807 93.69154 C 147.4641 96.49103 150.90647 99.1413 154.04039 99.0866 C 155.5747 99.05981 156.10785 99.67095 155.70683 101.0168 C 155.46048 101.87013 154.15468 101.89292 151.2024 101.12808 C 148.41332 100.36039 147.28858 99.531 146.0059 97.13692 C 145.02672 95.29268 144.9878 94.93416 145.50801 92.93313 C 145.7515 91.91658 146.70733 92.42237 146.95807 93.69154 Z"
                        fill="#ff0000"/>
               </g>
            </g>
            <g>
               <g  id="feature-5">
                  <path 
                        d="M 195.25765 93.86077 C 195.25406 95.52623 194.84392 96.34976 193.42863 97.5827 C 192.43145 98.44913 192.23615 98.4852 189.94872 98.3945 C 187.36692 98.27629 186.24787 97.77335 186.85502 97.01169 C 187.0469 96.77975 187.89055 96.47113 188.7044 96.32631 C 191.11442 95.95769 192.79657 95.04665 193.58934 93.69396 C 194.57284 92.04404 195.22745 92.13058 195.25765 93.86077 Z"
                        fill="#ff0000"/>
               </g>
            </g>
            <g>
               <g  id="feature-6">
                  <path 
                        d="M 145.45191 99.07323 C 146.0549 99.94439 146.88642 100.81156 147.24893 101.00116 C 147.64409 101.19019 148.20532 101.5396 148.53633 101.79506 C 149.03341 102.2109 149.7871 102.36102 154.0412 102.87455 C 155.67744 103.07458 156.4746 103.84438 156.1326 104.83 C 155.9762 105.22459 155.6509 105.29557 154.70077 105.11623 C 154.04616 105.02969 152.08405 104.86801 150.38423 104.76706 C 148.68441 104.66611 146.9491 104.40251 146.58658 104.2129 C 145.43261 103.57995 144.0818 101.02379 143.85117 99.03586 C 143.5839 96.82 143.91093 96.84694 145.45191 99.07323 Z"
                        fill="#ff0000"/>
               </g>
            </g>
            <g>
               <g  id="feature-7">
                  <path 
                        d="M 197.60719 97.50976 C 197.64195 99.5011 195.46425 101.95558 193.02728 102.65122 C 191.17506 103.17337 189.5394 103.00599 188.18442 102.08265 C 187.65527 101.70003 186.7991 101.29046 186.30714 101.16843 C 185.81518 101.04639 185.38453 100.6947 185.3141 100.40204 C 185.2082 99.94672 185.63144 99.87402 188.9618 99.84855 C 192.9777 99.8111 193.23715 99.70861 195.77508 97.31316 C 196.7064 96.41522 197.5901 96.53041 197.60719 97.50976 Z"
                        fill="#ff0000"/>
               </g>
            </g>
            <g>
               <g  id="feature-8">
                  <path 
                        d="M 197.68525 101.98212 C 197.68867 102.17799 197.41025 103.06454 197.03276 103.8875 C 195.84068 106.68397 192.0165 108.35082 188.5098 107.62831 C 187.1336 107.35843 184.02622 105.19214 184.01425 104.5066 C 184.00741 104.11486 184.43123 104.0748 186.55714 104.26628 C 191.95439 104.79251 193.80945 104.43358 196.15778 102.40064 C 197.15495 101.53421 197.675 101.39451 197.68525 101.98212 Z"
                        fill="#ff0000"/>
               </g>
            </g>
            <g>
               <g  id="feature-9">
                  <path 
                        d="M 146.89691 105.15448 C 147.32586 105.40823 149.02624 105.54183 151.08345 105.53857 C 155.03406 105.50227 156.873 106.09061 157.4221 107.61581 C 157.90022 108.8157 157.51247 109.05105 156.06355 108.35793 C 155.17416 107.91629 154.06138 107.77244 151.74302 107.78025 C 147.72655 107.78505 148.0215 107.84521 146.66254 106.69335 C 144.972 105.25339 145.14964 104.20533 146.89691 105.15448 Z"
                        fill="#ff0000"/>
               </g>
            </g>
            <g>
               <g  id="feature-10">
                  <path 
                        d="M 148.3599 108.52506 C 149.31345 108.90027 150.16393 108.98339 151.79333 108.79167 C 154.49773 108.45057 155.81208 108.91746 157.28037 110.7205 C 158.18059 111.7824 158.25044 112.04242 157.8289 112.21305 C 157.5368 112.31612 157.21092 112.35446 157.07864 112.2588 C 156.78198 112.10071 153.05362 111.77393 150.53824 111.71987 C 148.93807 111.71515 148.67463 111.58912 147.5104 110.36856 C 145.48202 108.2814 145.82801 107.52429 148.3599 108.52506 Z"
                        fill="#ff0000"/>
               </g>
            </g>
            <g>
               <g  id="feature-11">
                  <path 
                        d="M 185.121 108.04666 C 186.34425 108.907 187.95126 109.30346 190.56628 109.45374 C 192.98542 109.60744 193.25684 110.1905 191.48302 111.46235 L 190.3862 112.23255 L 187.99058 111.55596 C 185.43116 110.84957 182.7945 109.45878 182.7831 108.80588 C 182.75689 107.30421 183.63374 107.02767 185.121 108.04666 Z"
                        fill="#ff0000"/>
               </g>
            </g>
            <g>
               <g  id="feature-12">
                  <path 
                        d="M 185.05994 112.03163 C 185.81647 112.34497 186.96303 112.55354 187.55064 112.54329 C 188.8238 112.52106 189.65189 113.19236 189.00867 113.75872 C 188.783 113.92594 188.00523 114.26606 187.25781 114.47504 C 184.85348 115.1701 180.91386 113.96533 181.38188 112.71627 C 181.50733 112.42019 181.75653 111.73009 181.9112 111.23756 C 182.2217 110.3178 182.25434 110.31724 182.95072 110.92552 C 183.3155 111.2457 184.27133 111.7515 185.05994 112.03163 Z"
                        fill="#ff0000"/>
               </g>
            </g>
            <g>
               <g  id="feature-13">
                  <path 
                        d="M 152.8107 112.82313 C 153.14056 113.0133 154.48185 113.15316 155.72293 113.16415 C 157.25839 113.20266 158.04414 113.31956 158.0487 113.58072 C 158.05896 114.16833 156.15912 115.70362 155.44093 115.71616 C 154.49422 115.73268 152.4835 114.65751 151.38628 113.53374 L 150.38926 112.53884 L 151.30332 112.52289 C 151.793 112.51434 152.4814 112.6656 152.8107 112.82313 Z"
                        fill="#ff0000"/>
               </g>
            </g>
            <g>
               <g  id="feature-14">
                  <path 
                        d="M 184.10663 115.41173 C 185.05505 115.49314 185.90724 115.67419 186.00802 115.8357 C 186.34359 116.35233 184.92088 117.16088 183.13168 117.55131 C 181.56985 117.87247 181.1449 117.84723 180.45137 117.40217 C 179.692 116.9256 179.37653 115.69022 179.8571 115.15935 C 179.9854 115.0265 180.60507 114.98302 181.25968 115.06956 C 181.88165 115.15667 183.1903 115.2971 184.10663 115.41173 Z"
                        fill="#ff0000"/>
               </g>
            </g>
            <g>
               <path d="M 163.8157 116.58228 C 166.85437 118.55384 170.19043 118.85482 174.51056 117.53852 C 176.13426 117.02036 177.56608 116.73412 177.69894 116.86242 C 178.26473 117.47299 178.6191 119.0669 178.30177 119.59492 C 177.6986 120.58509 179.54935 123.72031 182.20426 126.15575 C 184.16222 127.95025 185.3179 128.68114 188.70825 130.22205 C 190.979 131.22737 193.4811 132.39193 194.2714 132.76999 C 195.06173 133.14806 196.7162 134.39272 197.94458 135.54685 C 199.1403 136.70156 201.0645 138.43134 202.22416 139.39074 C 203.38383 140.35015 204.90829 141.62974 205.60466 142.23803 C 206.3331 142.8131 206.90004 143.48896 206.90402 143.71747 C 206.90744 143.91334 207.3455 144.68941 207.84714 145.36641 C 209.4517 147.49363 211.60538 151.14604 211.61564 151.73365 C 211.6504 153.725 214.279 162.13674 215.24678 163.32808 C 215.47986 163.58525 216.02155 164.68606 216.46474 165.75594 C 216.90793 166.82581 217.3832 167.86247 217.5172 168.05606 C 218.75469 169.73252 220.95695 174.29842 222.77033 179.03439 C 223.24901 180.26692 223.82962 181.72626 224.06782 182.27723 C 224.74693 183.7675 226.30257 188.7039 226.31397 189.3568 C 226.32308 189.87912 227.94173 194.6838 228.72561 196.5641 C 228.86246 196.9209 229.20316 197.73134 229.44193 198.31496 C 230.0231 199.80694 233.21458 203.04938 238.88348 207.91398 C 243.19342 211.62672 245.5923 214.36051 247.91432 218.30388 C 248.1159 218.6269 248.5173 219.17504 248.81682 219.49636 C 249.11575 219.78504 249.82466 221.11152 250.40184 222.37498 C 251.6255 225.1293 252.89735 226.9031 256.79317 231.21087 C 261.05492 235.9041 263.80035 237.91344 265.9549 237.87583 C 267.19542 237.85418 270.19005 239.1734 271.48315 240.29376 C 272.04666 240.77375 272.91366 241.80357 273.41644 242.54586 C 274.05265 243.4491 274.68202 243.9606 275.33777 244.11242 C 276.6155 244.35135 278.24358 245.95568 278.26068 246.93503 C 278.28005 248.04496 277.5315 248.18864 276.27503 247.29624 C 275.68 246.8821 275.02085 246.5344 274.79233 246.5384 C 274.5638 246.5424 273.6733 246.03545 272.84576 245.3968 C 271.9856 244.75872 270.60026 243.96652 269.7458 243.6549 C 268.9234 243.31004 267.69958 242.41706 267.03358 241.67763 C 265.96843 240.52064 265.77028 240.39348 265.28744 240.79377 C 264.99762 241.0274 264.7748 241.35785 264.7771 241.48843 C 264.7879 242.10868 267.9084 245.0258 268.89344 245.33517 C 269.5171 245.5202 270.2427 245.93206 270.5422 246.25338 C 271.10744 246.8313 273.42376 250.44822 273.42832 250.70938 C 273.42946 250.77467 274.33537 252.16302 275.44115 253.77647 C 276.5475 255.42256 277.4557 256.9415 277.46025 257.20265 C 277.4648 257.4638 277.93437 258.17402 278.46752 258.78515 C 279.16617 259.52402 279.47194 260.20444 279.48562 260.98792 C 279.49644 261.60817 279.37498 262.13277 279.21176 262.13562 C 279.04853 262.13847 277.08544 260.05017 274.8853 257.47618 C 272.08613 254.25954 270.69053 252.87974 270.36636 253.01602 C 269.75067 253.288 269.7558 253.5818 270.53227 255.03773 C 270.87012 255.68493 271.2463 256.658 271.38657 257.2107 C 271.52627 257.73074 272.1733 259.25422 272.88108 260.5154 C 273.72626 262.16606 274.00167 262.97763 273.77714 263.21013 C 273.0394 263.97407 272.20562 262.97632 269.97242 258.50892 C 268.44926 255.4333 267.47464 253.8502 267.1482 253.8559 C 266.4953 253.8673 266.46036 253.7373 267.67832 256.16516 C 270.01117 260.72878 271.36768 263.6114 271.37338 263.93784 C 271.3768 264.1337 270.7497 263.7528 269.98747 263.113 C 268.16465 261.5774 265.61297 257.5727 264.65162 254.87914 C 263.51792 251.6661 261.92036 248.06928 261.62655 248.0744 C 260.97365 248.0858 261.08355 248.76964 262.24705 251.8189 C 262.89864 253.60354 263.52215 255.64992 263.59998 256.36697 L 263.786 257.6699 L 262.58798 256.38463 C 259.85924 253.46066 259.4876 252.74874 258.19883 248.13424 C 257.57076 245.8267 256.4124 243.07125 255.77847 242.2986 C 255.57804 242.04086 255.27398 241.45838 255.136 241.03627 C 254.5142 239.08783 250.29364 234.8837 249.02048 234.90593 C 248.8246 234.90935 248.23244 234.65844 247.7365 234.3079 C 247.24113 233.99 245.755 233.0363 244.4344 232.2103 C 241.264 230.17574 236.52398 226.14395 235.25156 224.3375 C 233.77814 222.24064 231.176 219.08587 228.9134 216.67625 C 227.8156 215.51983 226.7831 214.36228 226.58267 214.10454 C 226.41545 213.87887 224.68714 212.14567 222.76011 210.25267 C 219.37164 206.94836 218.27042 205.59608 217.28896 203.62126 C 216.6459 202.32628 215.17648 200.45795 213.11431 198.30606 C 212.18316 197.34267 211.41637 196.44172 211.4141 196.31114 C 211.41124 196.1479 210.91017 195.50356 210.3438 194.86035 C 207.713 191.93467 203.47837 185.05309 202.2101 181.6138 C 201.93583 180.86753 201.196 179.63955 200.56092 178.80161 C 199.89378 177.99688 199.25586 176.99572 199.15109 176.60569 C 199.0131 176.18358 198.64375 175.60224 198.34367 175.24827 C 197.87753 174.73393 197.79115 173.5272 197.70373 164.77721 C 197.64179 159.35758 197.73794 153.64129 197.90646 152.07091 C 198.4659 146.70574 197.07366 139.90516 195.47918 140.22689 C 194.63326 140.40493 194.60216 142.36477 195.43367 143.23193 C 196.06532 143.874 196.10196 144.10195 195.80913 146.0337 C 195.63377 147.21234 195.56888 149.10746 195.62204 150.28211 C 195.70785 151.45619 195.63555 152.92692 195.5158 153.54946 C 195.24194 154.69716 192.63058 158.49806 192.10826 158.50717 C 191.94504 158.51002 191.81787 158.70817 191.82243 158.96933 C 191.83212 159.5243 186.75188 162.19271 185.6093 162.21265 C 184.49937 162.23203 181.82892 160.77651 181.65316 160.06117 C 181.44475 159.3464 178.8544 158.73852 176.34074 158.7824 C 175.42668 158.79835 173.7578 158.5989 172.70803 158.32333 C 170.96987 157.8965 163.58697 157.73147 159.4777 158.03178 C 157.97774 158.15593 155.41075 158.8865 154.3443 159.52555 C 153.5688 159.99625 152.62494 160.176 150.89475 160.2062 C 148.6096 160.2461 148.5111 160.21516 147.34744 159.02724 C 145.8522 157.5512 145.23782 156.02715 144.68603 152.4774 C 144.46338 150.9465 144.13083 148.73177 143.91387 147.52733 C 143.72956 146.32231 143.57163 144.75763 143.55853 144.0068 C 143.53346 142.57042 142.90351 142.02628 142.09879 142.69343 C 141.39085 143.29357 141.30944 144.24199 141.88207 145.2443 C 142.21992 145.8915 142.4792 147.65033 142.70454 151.20579 C 142.9293 154.7286 143.22522 156.71538 143.63463 157.72054 C 144.31659 159.37403 144.45766 163.71468 143.91678 166.40182 C 143.28765 169.64564 143.09356 175.36364 143.40055 181.726 C 143.67375 188.02362 143.67944 188.35007 142.91574 191.36765 C 142.48834 193.07317 141.70812 195.14405 141.20061 196.00194 C 140.21597 197.58656 137.45637 200.37774 134.33368 202.94668 C 133.33593 203.78047 131.82441 205.11305 130.95724 205.94456 C 130.09007 206.77606 128.77043 207.8767 128.02929 208.44478 C 127.28757 208.9802 124.9381 210.94786 122.81488 212.78094 C 120.659 214.6146 118.11709 216.78153 117.11877 217.58267 C 112.70852 221.21904 109.17228 224.41564 108.98552 224.94138 C 108.89272 225.2369 108.38122 225.86626 107.86631 226.29977 C 105.71272 228.264 105.74365 228.1655 105.89784 233.25697 C 106.05373 238.44638 105.87324 239.3312 104.33306 240.89288 C 103.75571 241.49074 103.08384 242.2862 102.7648 242.71627 C 102.35124 243.34394 102.15651 243.41264 101.82493 243.12454 C 101.49279 242.8038 101.54896 242.28033 102.00786 240.50895 C 102.68047 237.88482 102.71026 237.72102 102.1851 237.56691 C 101.79108 237.44317 101.03267 238.89323 100.19285 241.2917 C 99.75747 242.54018 96.66955 247.10046 96.15065 247.30545 C 95.53381 247.51214 95.61237 246.4005 96.27797 245.24597 C 96.91321 244.22257 98.52584 239.32884 98.51274 238.578 C 98.4945 237.53337 97.76133 238.55847 96.75772 240.92714 C 94.87766 245.46634 91.65402 249.7351 90.08706 249.76244 C 89.04242 249.78068 89.56662 248.00816 91.72095 244.21524 C 94.54031 239.23514 95.01346 238.27988 94.77526 237.7289 C 94.43342 236.8532 93.69683 237.68242 92.37304 240.4159 C 90.82814 243.57773 89.07198 245.86157 88.15792 245.87753 C 87.17857 245.89462 87.38942 244.87864 88.72347 242.73278 C 89.39021 241.64353 90.27407 239.8974 90.64701 238.81327 C 91.01994 237.72915 91.82883 235.42918 92.45209 233.72025 C 93.04272 232.01188 93.62707 229.94442 93.74341 229.12602 L 93.91364 227.65358 L 95.50925 227.39714 C 97.23545 227.13843 98.9548 226.48797 98.94797 226.09623 C 98.94569 225.96565 97.57346 225.9243 95.94121 225.95279 C 92.90637 226.07107 90.17444 226.70654 87.97396 227.85522 C 87.19732 228.26064 86.70878 228.33447 86.01868 228.08528 C 84.86927 227.71348 84.78574 226.66998 85.85391 226.12886 C 86.24166 225.8935 87.23998 225.09236 88.00979 224.2952 C 89.10091 223.19855 89.65018 222.86241 90.33686 222.91574 C 90.82767 222.97248 91.80417 222.79216 92.51781 222.51846 C 93.23144 222.24477 94.62947 221.89382 95.5739 221.7467 C 96.55097 221.59904 98.01201 221.11637 98.78809 220.6783 C 99.5968 220.23968 100.50459 219.86463 100.83104 219.85893 C 101.87568 219.8407 108.08915 212.8747 110.98405 208.48107 C 112.06492 206.7968 113.46768 204.84568 114.0754 204.11666 C 114.68312 203.38764 115.89912 201.96226 116.76344 200.96752 C 117.62776 199.97279 118.61525 198.5514 118.96181 197.82693 C 119.34102 197.1019 120.10626 196.0436 120.68362 195.44572 C 121.26097 194.84786 122.25644 193.88349 122.86587 193.2524 C 123.4753 192.62133 124.37625 191.85454 124.82815 191.55275 C 125.53836 191.08319 125.69418 190.65595 125.9796 188.29982 C 126.14983 186.82738 126.37509 184.76618 126.45479 183.71983 C 126.53449 182.67349 126.79866 180.97082 127.04216 179.95427 C 127.82996 176.44644 128.42872 173.33377 128.65114 171.10935 C 128.93542 168.68793 130.19751 164.29014 131.14609 162.51021 C 131.49436 161.8837 131.99844 160.82994 132.28199 160.2372 C 132.8153 158.987 133.26126 154.60346 133.22895 150.88136 C 133.18963 148.62886 133.94308 145.02366 134.82636 143.24488 C 136.499 139.91754 137.06837 138.86264 137.55064 138.42971 C 139.89497 136.16826 141.0216 135.23425 141.3154 135.22912 C 141.51127 135.2257 141.86637 134.99092 142.09033 134.72577 C 142.28164 134.4612 143.99986 133.74545 145.88301 133.12479 C 149.03248 132.09017 149.5176 131.82046 151.44495 129.9908 C 152.6008 128.86036 153.95251 127.7265 154.46913 127.39093 C 154.95311 127.05593 155.6897 126.2267 156.13476 125.53318 C 156.54661 124.80758 157.18812 124.14329 157.54493 124.00644 C 158.3565 123.73103 159.81372 121.15851 159.79378 120.01594 C 159.7727 118.80807 161.25173 115.61473 161.83934 115.60447 C 162.1005 115.59992 162.9899 116.04156 163.8157 116.58228 Z"/>
            </g>
            <g>
               <path d="M 165.04558 158.97955 C 166.8084 158.94878 167.29979 159.03817 167.47042 159.4597 C 168.32301 161.53474 165.1584 165.44326 161.0461 167.44168 C 157.87254 168.96655 154.80888 171.17525 154.66104 172.0595 C 153.8594 176.6452 153.8765 177.62454 154.62203 179.17896 C 155.12994 180.21506 155.56288 180.69732 155.98726 180.68991 C 156.64016 180.67852 156.79199 180.02277 156.26055 179.50957 C 156.09448 179.3492 155.78529 178.4729 155.60668 177.59434 C 155.2878 176.1631 155.34625 175.77021 156.0388 174.28865 C 157.10884 171.98413 157.65469 171.45212 161.7533 168.67022 C 165.98136 165.82075 166.65665 165.22118 167.0611 164.0712 C 167.40366 163.11822 168.28109 162.87432 168.58857 163.65267 C 168.7237 163.91155 168.98886 164.13551 169.21737 164.13152 C 170.13143 164.11557 179.13907 171.3057 179.91384 172.66368 C 180.38568 173.50447 180.23084 175.85833 179.68214 176.2271 C 179.1976 176.52946 178.42022 178.76356 178.68594 179.02017 C 178.85144 179.1479 179.47455 179.3003 180.09594 179.35476 C 181.24023 179.43275 181.24023 179.43275 181.37724 177.92823 C 181.46036 177.07775 181.70613 176.19178 181.89744 175.9272 C 182.12197 175.6947 182.24115 175.03952 182.23147 174.48455 C 182.18913 173.93016 182.27624 173.3082 182.40283 173.0774 C 182.72074 172.58203 180.33041 170.3379 177.39025 168.39728 C 171.77393 164.67469 171.14456 164.1632 170.60344 163.09503 C 169.8264 161.60646 169.8019 160.20273 170.55216 160.15698 C 170.8454 160.1192 172.51085 160.12279 174.20896 160.1258 C 176.56054 160.15007 177.64067 160.29449 178.59593 160.76764 C 180.14391 161.52433 183.32928 162.54635 184.08069 162.56588 C 184.3745 162.56076 185.06402 162.7773 185.55826 163.02992 C 186.77695 163.62909 187.98481 163.608 188.8554 162.97237 C 189.30673 162.63794 189.89263 162.52975 190.41723 162.65121 C 191.40057 162.86263 192.07813 162.39363 192.35143 161.21329 C 192.62415 160.0003 194.06126 158.14653 194.77945 158.134 C 195.62822 158.11918 195.84175 159.12776 195.42347 161.3556 C 194.88829 164.36919 195.3917 170.76076 196.67861 177.13867 C 197.1074 179.25375 197.40046 181.07731 197.3048 181.2096 C 197.2418 181.34132 197.03721 182.7164 196.8349 184.22206 C 196.66582 185.75979 196.31226 187.95384 196.07047 189.06833 C 195.61556 191.06822 195.65105 191.23087 196.2941 192.52585 C 196.63366 193.27098 197.11462 194.6341 197.29323 195.51266 C 197.47184 196.39122 198.1354 198.86142 198.69533 201.00687 C 199.2879 203.15175 199.85125 205.49307 199.89643 206.2107 C 200.01602 207.4495 199.9845 207.51535 198.39801 208.2941 C 195.9375 209.51263 192.49749 212.60958 190.68117 215.18837 C 188.99315 217.6343 185.27472 221.6178 183.59712 222.79 C 183.01578 223.15935 181.88745 223.99542 181.0495 224.6305 C 180.17892 225.26613 179.17604 225.8061 178.81809 225.87767 C 178.42692 225.91715 177.48591 226.26013 176.67605 226.63347 C 174.05233 227.85484 173.17148 227.90287 170.9649 226.83112 C 169.87792 226.29496 168.72737 225.85788 168.36828 225.86414 C 167.48686 225.87953 164.91092 224.22644 164.86745 223.60675 C 164.8629 223.3456 164.6579 222.8267 164.39048 222.47215 C 163.9232 221.89252 163.8579 221.89366 161.52855 223.14255 C 158.93974 224.49394 157.73473 224.67825 155.82878 223.9931 C 155.13868 223.7439 154.05627 223.4689 153.4343 223.3818 C 152.19038 223.2076 150.96599 222.28197 147.81229 219.33276 C 146.35141 217.9541 145.51477 216.79313 144.36382 214.46206 C 142.26575 210.25354 141.74132 208.27075 141.42334 203.14948 C 141.18604 198.90848 141.18262 198.7126 141.88713 197.9166 C 142.2709 197.45272 142.81047 196.56162 143.0608 195.9368 C 143.34379 195.31143 143.97617 194.12481 144.51689 193.299 C 145.62926 191.54887 146.00464 188.734 145.52898 185.80336 C 145.34809 184.79421 145.12487 183.23067 145.04419 182.3504 C 144.96295 181.43748 144.7792 180.2651 144.67159 179.71185 C 144.56453 179.19124 144.64025 177.91638 144.78638 176.93418 C 144.96515 175.95141 145.2185 173.6285 145.31603 171.7328 C 145.47258 169.47688 145.73846 167.87215 146.08502 167.1477 C 146.52667 166.2583 146.64186 165.3746 146.5401 163.28647 C 146.48182 161.81801 146.55867 160.60844 146.7219 160.6056 C 146.85247 160.60331 147.28085 160.82442 147.6445 161.07931 C 148.73603 161.87663 153.69522 161.6268 156.35501 160.60072 C 157.58811 160.15468 158.88365 159.54428 159.27084 159.27628 C 159.75424 158.90864 160.40486 158.76666 161.41914 158.87958 C 162.20432 158.96384 163.83771 159.00064 165.04558 158.97955 Z"/>
            </g>
            <g>
               <path d="M 139.42402 202.7272 C 139.50014 203.34632 139.4451 203.93507 139.31623 204.03528 C 138.86433 204.33707 139.0851 207.63136 139.62908 208.86275 C 139.93428 209.51052 140.07683 210.19379 139.98174 210.35872 C 139.88609 210.491 140.59898 212.046 141.57703 213.82495 C 144.27524 218.7414 149.62567 224.06873 154.13792 226.2758 C 155.09317 226.74896 155.7472 226.80285 158.2248 226.56368 C 159.8227 226.43782 161.87307 226.04283 162.74935 225.73364 L 164.30605 225.11868 L 164.8747 225.89247 C 166.48211 228.1829 169.38507 229.86295 171.637 229.791 C 173.13867 229.76478 176.19875 229.22154 177.2039 228.81213 C 181.22567 227.2398 186.76482 222.80002 191.8253 217.1277 C 196.08559 212.38368 196.95162 211.48688 198.46826 210.4481 C 200.59776 208.97412 202.35945 208.87806 204.01392 210.12272 C 205.40438 211.20871 205.58698 212.3158 204.3087 212.04421 C 202.40675 211.5876 197.50853 215.33044 193.38394 220.36598 C 191.36947 222.8176 186.71858 227.63375 184.85138 229.16847 C 182.27625 231.30334 177.81854 234.0915 176.3237 234.50945 C 175.54365 234.719 173.92222 235.36775 172.75726 235.97587 C 170.29676 237.1944 169.6936 238.18457 169.74317 241.02468 C 169.77052 242.59164 169.87245 242.81845 170.89812 243.58426 C 172.9821 245.11532 173.53878 245.20357 175.15735 244.3916 C 177.48898 243.2733 177.75185 243.36666 177.52488 245.32992 C 177.26698 247.39168 175.99764 249.50375 174.82698 249.78543 C 174.37166 249.89134 173.3665 250.30074 172.58987 250.70616 C 171.10187 251.51585 171.16716 251.5147 168.692 250.02313 C 167.6354 249.35582 167.44751 249.81627 168.09968 251.63356 C 168.71862 253.41878 168.62696 253.7796 167.32384 255.82694 C 166.62389 256.8841 166.1084 257.28497 165.26249 257.463 C 164.54658 257.60612 163.95783 257.5511 163.72532 257.32657 C 163.52603 257.1341 163.06616 256.97887 162.67442 256.9857 C 161.793 257.0011 159.84245 255.63098 159.20225 254.49923 C 158.93254 254.0141 158.61252 252.51757 158.49123 251.18084 L 158.28526 248.7353 L 156.9806 248.8234 C 156.26299 248.86858 155.18798 249.01796 154.57 249.15937 C 153.69144 249.33798 153.10155 249.21765 151.71736 248.49075 C 149.41056 247.29013 148.80357 246.19046 149.12449 243.99698 C 149.41732 242.06523 150.06509 241.76002 151.55292 242.81167 C 152.61123 243.5769 155.72333 244.14303 156.27032 243.67632 C 156.46334 243.50967 157.00178 242.55328 157.507 241.56482 C 158.29464 239.91832 158.35309 239.52544 158.1551 237.53695 L 157.88841 235.35372 L 155.59716 233.17318 C 154.23593 231.89075 153.01268 231.03041 152.5883 231.03782 C 152.2292 231.0441 151.83347 230.8224 151.73098 230.56296 C 151.62848 230.3035 150.70132 229.56863 149.67736 228.90075 C 144.03125 225.34196 140.08381 221.81882 138.73072 219.13208 C 138.3253 218.35544 137.78589 217.3852 137.51675 216.93273 C 135.83493 214.1211 135.29568 211.28954 135.67294 206.71127 C 135.82892 204.4227 135.9223 204.15983 137.1085 202.89824 C 138.67962 201.23807 139.23401 201.19574 139.42402 202.7272 Z"
                     fill="#ccc"/>
            </g>
            <g>
               <path d="M 201.47736 229.4334 C 201.64944 239.29218 201.6085 242.5584 201.27903 244.2622 C 200.88655 246.09772 200.5465 250.93658 200.25317 258.45234 C 199.8278 269.62774 199.64088 272.0148 199.23872 273.29538 C 198.9586 274.084 198.7483 275.1326 198.75743 275.65493 C 198.76597 276.1446 198.49325 277.3576 198.18333 278.31 C 197.37559 280.67526 196.42228 284.05535 196.15298 285.4642 C 196.03323 286.08675 195.81725 286.80893 195.65915 287.10558 C 193.86107 290.729 192.15708 305.3555 193.2456 307.85093 C 193.4838 308.4019 193.63033 309.3137 193.57473 309.8698 C 193.48648 310.42646 193.80536 311.8577 194.35218 313.25233 C 195.62044 316.6916 196.9356 320.94645 196.94927 321.72993 C 196.95554 322.08903 197.12902 322.6738 197.33116 323.02946 C 197.7698 323.83818 197.95109 326.7413 197.64743 328.0528 C 197.52654 328.61004 197.29615 330.37743 197.16141 332.01253 C 197.02668 333.64763 196.63705 335.64638 196.29163 336.43613 C 195.94622 337.22587 195.5171 338.83345 195.3091 340.01266 C 195.1011 341.19187 194.67143 342.7668 194.35865 343.556 C 194.01323 344.34573 193.61848 346.05068 193.47805 347.35933 C 193.33818 348.7006 193.00758 350.33914 192.75839 351.02924 C 192.50976 351.752 192.2399 353.1282 192.1264 354.10983 C 192.04557 355.0909 191.8015 356.0748 191.64226 356.30616 C 191.44981 356.50545 191.12035 358.20926 190.89167 360.0746 C 190.663 361.9399 190.34663 364.39454 190.20392 365.5726 C 189.83025 368.48542 189.925 372.04315 190.38586 374.12503 C 191.16217 377.44228 194.02531 382.4538 197.32384 386.21686 C 200.05657 389.36935 201.21396 390.19817 202.81356 390.17025 C 203.7929 390.15316 204.0237 390.27975 204.03282 390.80207 C 204.04308 391.38968 203.91364 391.45724 202.735 391.2819 C 201.65486 391.13747 201.42692 391.1741 201.4349 391.63113 C 201.44003 391.92494 201.60724 392.1506 201.77046 392.14775 C 202.19485 392.14034 203.75708 393.71317 203.76392 394.1049 C 203.76677 394.26813 203.40995 394.405 202.95293 394.41296 C 201.97358 394.43005 201.9432 394.5612 202.81078 395.62367 C 203.4785 396.46104 204.06936 398.508 203.71654 398.87335 C 203.6203 398.973 202.3329 398.1791 200.84451 397.0948 C 198.42952 395.3083 197.57448 394.964 197.58987 395.8454 C 197.59272 396.00865 197.82522 396.23317 198.08866 396.3592 C 199.4683 396.82494 202.2405 400.3686 202.02852 401.3193 C 201.66128 402.72985 199.58527 401.6558 197.975 399.20216 C 197.33823 398.2663 196.60465 397.3974 196.37443 397.30345 C 195.42146 396.9609 195.70427 398.19683 196.97726 400.03594 C 198.1489 401.6809 198.31953 402.10243 198.0377 402.7931 C 197.60231 404.0416 196.8807 403.85826 194.92217 402.0311 C 193.19614 400.4285 191.41467 397.52065 191.3936 396.3128 C 191.3765 395.33343 190.0344 391.4056 189.12392 389.7561 C 188.38123 388.3649 185.7956 386.15685 183.15722 384.6681 C 181.87096 383.9395 181.02464 382.22357 180.99159 380.33016 C 180.96253 378.66527 181.47402 378.0359 182.14344 378.9712 C 183.6833 381.1322 184.48272 382.0326 185.0079 382.1867 C 185.86122 382.43304 187.1505 381.46355 187.394 380.447 C 187.669 379.3646 187.10434 378.8193 186.4302 379.48417 C 185.53266 380.44683 184.18795 380.1111 183.77398 378.8448 C 183.63713 378.48796 183.17042 377.94098 182.7409 377.6546 L 181.9483 377.14594 L 181.91665 365.9785 C 181.88882 356.90092 181.8123 354.38783 181.39036 352.6645 C 181.1087 351.49382 180.61462 349.37988 180.29575 347.94863 C 179.97687 346.51738 179.4158 344.30664 179.10034 343.07126 C 178.25931 339.7878 178.12557 330.2549 178.86363 325.76828 C 179.514 321.871 179.30667 315.60487 178.46262 314.0195 C 178.15913 313.46967 177.67817 312.10656 177.36385 310.93647 C 177.08275 309.79845 176.60691 308.72915 176.34347 308.60313 C 175.81603 308.31844 173.12124 303.59786 173.1104 302.9776 C 173.107 302.78173 172.6695 302.0383 172.16786 301.3613 C 171.63357 300.68488 171.1251 299.61614 170.98483 299.06346 C 170.844 298.47813 170.61296 294.59623 170.40944 290.41995 C 170.23857 286.2431 169.85644 281.18826 169.52845 279.2347 C 168.20109 270.539 167.8683 264.56895 168.63826 261.91046 C 168.88404 261.0245 169.0909 259.78 169.08007 259.15974 C 169.06925 258.53948 169.50177 257.12777 170.00529 256.04137 C 170.54145 254.9544 170.94532 253.77177 170.93848 253.38003 C 170.92196 252.43333 171.50672 252.25985 172.62747 252.86073 C 173.38572 253.272 173.6801 253.29952 174.75054 252.88898 C 176.92408 252.06732 178.59597 250.56867 179.63736 248.49323 C 181.05738 245.66012 180.92411 243.63784 179.12766 241.74256 C 178.22973 240.81124 177.34945 240.89191 175.86716 242.02806 L 174.64317 242.9964 L 173.15705 242.0427 C 172.36446 241.53406 171.70244 241.02314 171.7013 240.95785 C 171.69161 240.40288 172.74212 238.84977 173.10121 238.8435 C 173.36237 238.83894 173.68198 238.4415 173.83723 237.98162 C 174.02284 237.3906 174.60248 236.9233 176.0286 236.31063 C 177.09847 235.86744 178.20214 235.48897 178.4633 235.4844 C 178.72445 235.47985 179.72676 234.90722 180.69414 234.20458 C 181.62945 233.53516 182.66156 232.79874 182.95251 232.63038 C 185.24523 231.15355 188.97507 227.82295 192.53484 224.10346 C 197.8576 218.49187 199.65723 216.82771 200.53865 216.81233 L 201.2242 216.80036 L 201.47736 229.4334 Z"/>
            </g>
            <g>
               <path d="M 139.716 223.19674 C 141.27596 224.63899 143.0707 226.43633 143.67142 227.1769 C 144.2727 227.95013 144.90378 228.55956 145.09965 228.55614 C 145.29552 228.55272 145.9564 228.99836 146.61899 229.54193 C 147.24893 230.08606 148.23967 230.72187 148.76598 230.94127 C 149.88389 231.37892 153.48834 233.96105 155.3461 235.62668 C 156.24175 236.42742 156.6111 237.00876 156.4868 237.37014 C 156.39342 237.633 156.30745 238.32026 156.31657 238.84258 C 156.32967 239.59342 156.07478 239.95707 154.97739 240.69463 C 153.0077 241.9699 151.6664 241.83004 149.90659 240.1627 C 148.01392 238.36706 147.75845 238.69807 147.63666 242.94533 L 147.56477 246.31005 L 148.70034 247.7597 C 149.66927 249.01633 150.13143 249.30215 152.26475 249.918 C 155.58013 250.9051 155.67863 250.93604 155.80107 252.33806 C 155.84625 253.05568 156.25508 254.0282 156.72294 254.64047 C 158.15858 256.4441 160.84784 258.97688 161.30487 258.9689 C 161.56603 258.96435 161.89476 259.08923 162.09348 259.24903 C 162.26012 259.44206 163.11174 259.59047 163.9943 259.64037 C 165.49767 259.7121 165.6294 259.7751 165.9065 260.6846 C 166.07885 261.20408 166.24117 264.89125 166.31012 268.8413 C 166.4013 274.0645 166.57518 276.54322 166.92385 277.81068 C 167.55135 280.08557 167.82381 288.2119 167.3917 291.51758 C 167.21918 292.85944 166.72063 296.101 166.27654 298.72113 C 165.1276 305.85996 165.3492 312.9422 166.834 315.69196 C 167.2045 316.3386 167.79137 318.15702 168.21104 319.7498 C 168.63127 321.3752 169.18436 323.1289 169.48842 323.7114 C 169.89497 324.55332 169.98363 325.89063 169.94593 331.21404 C 169.9175 335.19843 169.73857 338.04253 169.48824 338.66735 C 168.64557 340.9026 167.9242 344.47457 167.63234 348.33294 C 167.2809 352.5189 167.28472 354.60876 167.7786 371.67866 C 168.02412 380.132 167.98505 381.6348 167.54625 382.6874 C 167.07652 383.83854 166.75406 384.07276 165.83829 383.99078 C 164.98781 383.90766 163.75984 384.6475 163.77066 385.26775 C 163.7832 385.98594 165.2418 387.23403 166.09057 387.2192 C 166.80876 387.20667 167.60893 386.27837 167.85072 385.1639 C 168.09478 384.17997 168.90293 383.7087 169.43437 384.2219 C 169.79973 384.57473 170.56692 387.36966 170.89663 389.42117 C 171.15363 391.04943 170.23143 392.4697 168.5098 392.98956 C 167.7956 393.2306 165.44971 393.5328 163.36214 393.6672 C 161.24193 393.80217 158.86398 394.13757 158.08505 394.4124 C 157.27349 394.6878 155.9711 394.9065 155.15498 394.92072 C 154.33943 394.9676 153.0697 395.1857 152.35606 395.4594 C 151.64243 395.7331 150.66707 395.9787 150.1774 395.98726 C 149.68772 395.9958 149.2009 396.16757 149.10581 396.3325 C 148.97865 396.53066 148.30222 397.06494 147.55994 397.56772 C 146.39782 398.33907 146.03987 398.41063 144.27362 398.24553 C 143.16141 398.13433 141.65803 398.0626 140.87512 398.1089 C 138.98229 398.1746 138.19368 397.8945 138.18057 397.14365 C 138.17487 396.8172 138.26768 396.5217 138.4309 396.51884 C 138.56148 396.51656 139.07754 396.14835 139.59188 395.6822 C 140.39604 394.9824 140.85079 394.84386 142.71155 394.81138 C 146.20456 394.7504 147.43482 394.14114 150.64119 390.75437 C 152.17966 389.09477 153.5606 387.76447 153.69118 387.7622 C 154.08292 387.75535 156.3259 385.29974 157.1513 383.9465 C 157.5958 383.2203 158.45328 381.83384 159.02437 380.87688 L 160.10467 379.15996 L 159.9097 375.47336 C 159.71929 372.0479 158.67588 364.65346 157.82117 360.5865 C 157.32083 358.11348 156.63334 354.2722 156.36722 352.1216 C 156.21954 351.14455 155.86745 349.68122 155.5594 348.87023 C 154.42855 345.8204 153.52508 342.7013 153.19595 340.68244 C 152.718 337.62122 151.7923 333.22896 151.37948 332.02794 C 151.17279 331.4111 151.0589 330.49875 151.18036 329.97415 C 151.26918 329.45012 151.19021 328.6678 151.01901 328.2136 C 150.64396 327.3058 150.22 316.11258 150.54075 315.78043 C 150.66962 315.6802 151.7154 315.72727 152.8946 315.93527 C 154.59841 316.26473 155.18602 316.25448 156.02852 315.88057 C 157.38992 315.30167 157.96614 314.6385 157.95075 313.7571 C 157.94334 313.3327 158.2269 312.73998 158.58029 312.40726 C 158.93369 312.07454 159.22008 311.64503 159.21723 311.4818 C 159.21382 311.28593 158.89021 311.45486 158.50474 311.8208 C 157.18624 312.98673 155.43937 313.93156 154.49266 313.94808 C 153.02307 313.94108 150.06052 312.58863 149.5549 311.6831 C 149.3184 311.23007 148.94278 310.28964 148.76759 309.60694 C 147.68836 305.7725 147.44616 304.993 146.90732 304.05542 C 146.60326 303.47294 146.32785 302.66138 146.32045 302.237 C 146.31247 301.77996 146.06686 300.8046 145.79202 300.02568 C 145.00415 297.91686 143.98793 293.9507 143.68859 291.76805 C 143.50656 290.6936 143.22261 289.39237 142.9844 288.8414 C 142.74678 288.32306 142.36147 286.82766 142.1113 285.59114 C 141.8932 284.3214 141.50733 282.79336 141.23535 282.17767 C 140.996 281.5614 140.67884 280.2281 140.53116 279.251 C 140.38349 278.27394 139.95927 276.42002 139.57852 275.18578 C 138.60634 271.87194 138.28632 270.3754 137.86341 266.72544 C 137.6362 264.93338 137.32774 262.2284 137.1051 260.6975 C 136.91509 259.16605 136.57627 256.59222 136.38512 254.99547 C 136.1934 253.36607 135.8339 251.47836 135.59285 250.76416 C 134.93727 248.751 134.8006 233.43822 135.37487 228.92182 C 135.63448 226.958 135.81798 224.37505 135.7969 223.1672 C 135.7365 219.70682 135.99766 219.70226 139.716 223.19674 Z"/>
            </g>
            <g>
               <path d="M 146.45865 390.5988 C 146.88987 390.98313 146.82743 391.1475 146.05477 391.7814 C 145.25005 392.44857 144.92417 392.4869 142.66824 392.33036 C 140.2491 392.17665 140.15116 392.17836 138.70037 393.24864 C 137.31373 394.2525 137.15165 394.32064 136.03488 393.94827 C 134.52467 393.4848 134.58027 392.9287 136.22123 391.52855 C 137.25105 390.66155 137.86789 390.45485 139.7911 390.258 C 143.08254 389.874 145.894 390.0535 146.45865 390.5988 Z"/>
            </g>
            <g>
               <path d="M 205.73971 395.05007 C 205.74256 395.2133 205.51633 395.34786 205.25517 395.3524 C 204.7655 395.36097 204.59543 394.97208 204.94826 394.6067 C 205.20486 394.341 205.7323 394.6257 205.73971 395.05007 Z"/>
            </g>
            <g>
               <g  id="outline-1">
                  <path 
                        d="M 161.2867 89.55549 C 161.06217 89.788 160.90635 90.21523 160.91205 90.54168 C 160.9206 91.03136 161.2161 91.12416 162.61984 91.09966 C 164.1868 91.07231 164.38438 91.16682 165.74676 92.51455 C 166.77755 93.57417 167.1807 94.22023 167.1938 94.97107 C 167.20747 95.75455 167.34147 95.94814 167.7968 95.84222 C 168.21947 95.73688 168.31227 95.44137 168.22704 94.29993 C 168.01823 91.69118 166.95194 90.46891 164.25966 89.63422 C 162.22485 89.04929 161.7999 89.02406 161.2867 89.55549 Z"
                        fill="black"/>
               </g>
            </g>
            <g>
               <g  id="outline-2">
                  <path 
                        d="M 175.36563 91.69355 C 174.81864 92.16027 174.18398 93.21631 173.90499 94.0702 C 173.47132 95.41663 173.47588 95.67778 173.87445 96.06269 C 174.53875 96.70419 175.0531 96.23804 175.03315 95.09547 C 175.02118 94.40992 175.33624 93.75133 176.01038 93.08646 C 176.90849 92.15645 177.10322 92.08774 178.60774 92.22475 C 179.88374 92.36575 180.20905 92.29476 180.20278 91.93567 C 180.19822 91.67451 179.90043 91.45112 179.54134 91.45739 C 179.18224 91.46366 178.88559 91.30556 178.88274 91.14234 C 178.87077 90.45679 176.33073 90.86033 175.36563 91.69355 Z"
                        fill="black"/>
               </g>
            </g>
            <g>
               <g  id="outline-3">
                  <path 
                        d="M 161.59327 94.02387 L 160.82062 94.6578 L 161.80624 94.9998 C 162.36462 95.18598 163.0553 95.46782 163.35252 95.65856 C 164.01168 96.00626 165.88914 95.05915 165.87774 94.40625 C 165.8578 93.26368 162.78404 93.02343 161.59327 94.02387 Z"
                        fill="black"/>
               </g>
            </g>
            <g>
               <path d="M 164.48112 94.49882 C 164.5504 94.72619 164.39002 94.89227 164.09622 94.89739 C 163.80241 94.90252 163.56991 94.678 163.56478 94.38419 C 163.5551 93.82923 164.275 93.91463 164.48112 94.49882 Z"
                     fill="#ccc"/>
            </g>
            <g>
               <g  id="outline-4">
                  <path 
                        d="M 181.74035 93.96609 C 181.55018 94.29596 182.45552 95.65166 182.91255 95.64369 C 183.07578 95.64084 183.20294 95.44269 183.19895 95.21417 C 183.1887 94.62656 181.99467 93.56979 181.74035 93.96609 Z"
                        fill="black"/>
               </g>
            </g>
            <g>
               <g  id="outline-5">
                  <path 
                        d="M 176.27138 94.94324 C 175.95063 95.27538 176.77798 97.77537 177.2705 97.93005 C 177.50073 98.024 177.98756 97.85222 178.30888 97.55272 C 179.04775 96.85407 179.4074 96.88045 180.13928 97.65139 C 180.5052 98.03686 181.06473 98.28833 181.42269 98.21678 C 183.53948 97.88593 180.21971 94.77635 177.77077 94.78644 C 177.052 94.76634 176.3676 94.84359 176.27138 94.94324 Z"
                        fill="black"/>
               </g>
            </g>
            <g>
               <path d="M 178.39051 96.16118 C 178.4598 96.38855 178.29941 96.55463 178.0056 96.55975 C 177.7118 96.56488 177.4793 96.34036 177.47417 96.04655 C 177.46449 95.49159 178.18439 95.57699 178.39051 96.16118 Z"
                     fill="#ccc"/>
            </g>
            <g>
               <g  id="outline-6">
                  <path 
                        d="M 167.63136 101.33114 C 167.65187 102.50636 169.43408 103.58552 171.78964 103.83829 C 173.1315 104.0108 173.55418 103.90546 174.52213 103.23546 C 175.94142 102.23104 175.99303 101.44642 174.6563 101.56772 C 174.13455 101.60948 173.22562 101.91924 172.67578 102.22273 C 171.7382 102.76158 171.64026 102.76329 170.12378 101.94073 C 168.67372 101.18232 167.62395 100.90675 167.63136 101.33114 Z"
                        fill="black"/>
               </g>
            </g>
            <g>
               <g  id="outline-7">
                  <path 
                        d="M 166.1104 105.86407 C 165.56682 106.52665 165.93504 107.0427 167.01232 107.0239 C 168.4487 106.99883 173.04122 108.19221 173.67116 108.73634 C 174.46718 109.44086 174.95001 109.04057 174.92608 107.66948 L 174.9067 106.55955 L 173.0133 106.5926 C 171.38105 106.6211 169.80896 106.35464 167.18255 105.55146 C 166.75588 105.42828 166.36585 105.53306 166.1104 105.86407 Z"
                        fill="black"/>
               </g>
            </g>
            <g>
               <g  id="outline-8">
                  <path 
                        d="M 171.85084 124.18124 C 171.1784 124.94404 171.18353 125.23785 171.77114 125.22759 C 172.0323 125.22303 172.35362 124.92353 172.44471 124.53008 C 172.72256 123.61089 172.4912 123.45166 171.85084 124.18124 Z"
                        fill="black"/>
               </g>
            </g>
            <g>
               <g  id="outline-9">
                  <path 
                        d="M 165.11669 125.63764 C 165.1355 126.71492 166.56088 127.93093 167.8014 127.90928 C 169.07454 127.88705 171.20746 126.60894 170.70924 126.12781 C 170.50995 125.93536 170.05292 125.94333 169.33929 126.21703 C 167.97675 126.73064 166.86625 126.71737 166.53068 126.20075 C 166.39668 126.00715 165.9981 125.62225 165.69974 125.36622 C 165.17058 124.9836 165.10586 125.01738 165.11669 125.63764 Z"
                        fill="black"/>
               </g>
            </g>
            <g>
               <g  id="outline-10">
                  <path 
                        d="M 185.17492 152.29314 C 184.45827 154.26494 185.2805 156.47113 186.64817 156.25132 C 187.29936 156.142 187.3618 155.97763 187.19988 154.18443 C 187.11578 153.10829 186.9011 152.03442 186.7339 151.80876 C 186.16754 151.16555 185.4854 151.37338 185.17492 152.29314 Z"
                        fill="black"/>
               </g>
            </g>
            <g>
               <g  id="outline-11">
                  <path 
                        d="M 149.61412 154.1874 C 149.19885 154.71713 149.31445 155.72741 149.83962 155.88152 C 150.46329 156.06656 151.7148 154.80383 151.47602 154.2202 C 151.2029 153.53922 150.15768 153.52481 149.61412 154.1874 Z"
                        fill="black"/>
               </g>
            </g>
            <g>
               <g  id="outline-12">
                  <path 
                        d="M 129.10537 189.64942 C 128.68384 189.82005 128.36366 190.18484 128.36879 190.47865 C 128.3762 190.90303 128.70378 190.96263 130.07373 190.8734 C 131.76956 190.74584 131.80278 190.77791 131.98253 191.72177 C 132.34032 193.51154 133.41345 195.12556 134.22957 195.11131 C 135.86182 195.08282 135.27722 193.39497 132.58056 190.43779 C 131.51483 189.24816 130.56414 189.03617 129.10537 189.64942 Z"
                        fill="black"/>
               </g>
            </g>
            <g>
               <g  id="outline-13">
                  <path 
                        d="M 167.85312 164.5472 C 167.69388 164.77856 167.38339 165.69832 167.20347 166.6158 C 166.99034 167.5012 166.41112 169.86246 165.92356 171.86292 C 165.40278 173.8313 164.8562 176.192 164.70893 177.10891 C 164.59373 177.9926 164.32443 179.40147 164.1428 180.221 C 163.96118 181.04055 163.81847 182.21862 163.8293 182.83888 C 163.8407 183.49178 163.6585 184.27867 163.4036 184.64233 C 163.18136 185.0054 162.90237 185.8593 162.81583 186.51392 C 162.61353 188.01957 160.67575 191.12296 159.29082 192.22475 C 158.71062 192.6594 157.70831 193.23202 157.02675 193.4725 C 156.3452 193.71298 155.76329 194.04969 155.7667 194.24556 C 155.62 195.1951 159.88168 194.2717 160.77637 193.1458 C 161.2873 192.4838 161.9419 192.57033 162.1503 193.2851 C 162.2545 193.64249 162.24409 194.91621 162.10252 196.15957 C 161.99302 197.36971 162.0255 199.23048 162.17431 200.27284 C 162.32712 201.5437 162.27607 202.36098 162.02118 202.72463 C 161.79836 203.05507 161.48787 203.97482 161.27303 204.7623 C 161.0914 205.58184 160.5541 206.60352 160.1377 207.06795 C 159.08093 208.26198 158.63855 210.98006 159.16583 213.12608 C 160.11448 216.9628 160.28455 217.3517 161.2656 217.43253 C 162.31252 217.54488 162.37097 217.152 161.5888 215.36963 C 160.43272 212.74476 160.84148 208.10063 162.46192 205.52526 C 163.06622 204.60037 163.66084 203.12052 163.80868 202.23626 C 163.95651 201.352 164.23095 200.23694 164.41827 199.74384 C 164.63596 199.1196 164.6126 197.78116 164.30813 195.3047 C 163.9636 192.40442 163.9505 191.6536 164.328 190.83063 C 164.9581 189.51343 165.41456 189.4728 166.15327 190.6355 C 166.82611 191.76667 168.7721 192.87562 170.01262 192.85397 C 170.89403 192.83859 172.7916 191.17272 172.77792 190.38924 C 172.76652 189.73634 172.04833 189.74888 170.78657 190.424 C 170.10673 190.76241 169.39025 190.87288 168.37597 190.75997 C 167.06619 190.55425 166.90125 190.45916 166.25536 189.00096 C 165.84823 188.12639 165.5362 187.08688 165.52935 186.69514 C 165.52252 186.3034 165.34448 185.45748 165.1057 184.87386 C 164.7633 183.9655 164.7576 183.63905 165.13908 183.0446 C 165.36076 182.64887 165.7967 181.43303 166.10435 180.35005 C 166.412 179.26706 167.08916 176.90409 167.61279 175.09893 C 168.66117 171.5539 169.20735 167.29922 168.84671 165.34622 C 168.62862 164.07649 168.36347 163.85253 167.85312 164.5472 Z"
                        fill="black"/>
               </g>
            </g>
            <g>
               <g  id="outline-14">
                  <path 
                        d="M 187.57954 303.14956 C 186.91508 304.3694 185.5273 305.30795 183.03016 306.29853 C 181.70027 306.81157 181.83996 307.3316 183.41376 307.696 C 184.3318 307.90855 184.91828 307.833 185.98758 307.35717 C 188.15827 306.3723 188.15827 306.3723 189.00737 302.6348 C 189.28066 301.45446 188.30701 301.798 187.57954 303.14956 Z"
                        fill="black"/>
               </g>
            </g>
            <g>
               <g  id="outline-15">
                  <path 
                        d="M 188.69622 310.9999 C 188.31587 311.65964 185.52094 312.42683 183.5296 312.4616 C 182.28909 312.48324 181.90419 312.88182 182.56677 313.4254 C 182.931 313.71293 183.64976 313.73304 185.34274 313.44225 C 188.01336 313.03643 189.72872 312.15746 189.84107 311.11054 C 189.95626 310.22684 189.2043 310.17466 188.69622 310.9999 Z"
                        fill="black"/>
               </g>
            </g>
         </g>
      </g>
   </g>
</svg>