<?xml version="1.0" encoding="UTF-8" standalone="no"?>
<svg
   xmlns:dc="http://purl.org/dc/elements/1.1/"
   xmlns:cc="http://creativecommons.org/ns#"
   xmlns:rdf="http://www.w3.org/1999/02/22-rdf-syntax-ns#"
   xmlns:svg="http://www.w3.org/2000/svg"
   xmlns="http://www.w3.org/2000/svg"
   height="100.99551"
   width="76.341408"
   id="svg4176"
   xml:space="preserve"
   enable-background="new 0 0 75.344 100"
   viewBox="0 0 76.341406 100.99551"
   y="0px"
   x="0px"
   version="1.0"><metadata
     id="metadata4182"><rdf:RDF><cc:Work
         rdf:about=""><dc:format>image/svg+xml</dc:format><dc:type
           rdf:resource="http://purl.org/dc/dcmitype/StillImage" /><dc:title></dc:title><dc:creator><cc:Agent><dc:title>https://commons.wikimedia.org/wiki/File:Tooth_-_The_Noun_Project.svg</dc:title></cc:Agent></dc:creator></cc:Work></rdf:RDF></metadata><path
     style="fill:#ff0000;stroke:#808080"
     id="path4174"
     d="m 38.172602,54.621505 c 7.482,0 10.953,5.679 11.683,13.745 0.174,1.93 -0.008,4.743 -0.255,8.001 -0.841,10.825 -1.808,24.127995 5.4,24.127995 6.096,0 9.228,-11.694995 11.035,-25.026995 1.745,-13.197 -0.103,-19.765 0.806,-25.625 1.733,-11.103 11.425,-21.058 8.431,-35.214 -1.658,-7.8530002 -5.982,-11.5470002 -10.266,-13.1000002 -9.868,-3.592 -16.239,3.329 -26.834,3.329 -10.595,0 -16.966,-6.921 -26.839,-3.329 -4.2800002,1.553 -8.6040002,5.247 -10.2660002,13.1000002 -2.99,14.156 6.698,24.111 8.435,35.214 0.9080002,5.86 -0.939,12.427 0.8060002,25.625 1.807,13.331 4.94,25.026995 11.035,25.026995 7.205,0 6.242,-13.302995 5.4,-24.126995 -0.248,-3.258 -0.428,-6.071 -0.255,-8.001 0.727,-8.067 4.244,-13.746 11.684,-13.746 z" /></svg>
