<?xml version="1.0" encoding="UTF-8" standalone="no"?>
<!DOCTYPE svg PUBLIC "-//W3C//DTD SVG 1.1//EN" "http://www.w3.org/Graphics/SVG/1.1/DTD/svg11.dtd">
<svg xmlns:dc="http://purl.org/dc/elements/1.1/" xmlns:xl="http://www.w3.org/1999/xlink" version="1.1" xmlns="http://www.w3.org/2000/svg" viewBox="37.340446 61.375 250.56 304.2825" width="250.56" height="304.2825">
  <defs>
    <clipPath id="artboard_clip_path">
      <path d="M 37.340446 61.375 L 287.90045 61.375 L 287.90045 365.6575 L 37.340446 365.6575 Z"/>
    </clipPath>
  </defs>
  <metadata> Produced by OmniGraffle 7.7.1 
    <dc:date>2018-03-13 06:57:05 +0000</dc:date><dc:title>Traceable heraldic art http://heraldicart.org/credits.html</dc:title>
  </metadata>
  <g id="Moor_s_Head" fill-opacity="1" stroke-dasharray="none" stroke="none" stroke-opacity="1" fill="#ffff00">
    <title>Moor&apos;s Head</title>
    <g id="Moor_s_Head: Layer 2" >
      <title>Layer 2</title>
      <g id="Group_1305">
        <g id="Graphic_1490">
          <path d="M 169.46282 65.35656 C 166.55631 67.15583 164.20343 67.57104 161.43532 66.87902 C 157.69839 65.91018 146.34917 69.64712 144.6883 72.41522 C 144.27309 73.10725 142.0586 73.93768 139.84412 74.35289 C 137.62964 74.76811 134.72313 76.29056 133.47749 77.67462 C 130.57098 80.58112 122.40508 83.62604 117.5609 83.62604 C 115.06961 83.62604 112.43991 85.56371 108.56457 90.13108 C 105.51965 93.5912 101.92112 97.46655 100.53707 98.7122 C 97.07694 101.6187 94.03203 109.09258 94.86246 112.2759 C 95.27767 113.93676 93.2016 118.64253 89.46466 124.59395 C 86.00453 129.85335 81.99078 136.21998 80.32992 138.71127 C 78.807465 141.20257 76.45458 146.60037 75.34734 150.61412 C 72.99445 158.78002 66.351 168.8836 60.399584 173.58937 C 58.32351 175.25023 52.92571 178.43355 48.35834 180.78643 C 39.085195 185.3538 37.83955 187.70669 39.085195 198.50229 C 39.915625 205.56095 43.652564 210.54353 50.711225 214.00366 C 56.109025 216.63336 56.109025 218.84784 50.57282 222.16956 C 46.420666 224.52245 45.590236 225.9065 45.590236 229.78185 C 45.590236 232.41154 46.28226 234.48762 46.974287 234.48762 C 47.80472 234.48762 48.35834 235.31805 48.35834 236.2869 C 48.35834 237.39413 49.880794 239.055 51.818466 240.02382 C 56.24743 242.3767 56.109025 242.93033 51.12644 247.3593 C 46.55907 251.51145 46.143856 253.31072 48.63515 258.70852 C 49.603984 260.923 51.264846 262.16864 53.47933 262.16864 C 57.90829 262.16864 60.26118 268.12006 58.1851 273.93308 C 56.52424 278.77726 57.90829 286.25114 61.783635 292.89458 C 63.85971 296.4931 65.52057 297.60036 69.11911 297.87717 C 71.7488 298.15398 76.73139 299.53803 80.19152 301.1989 C 91.81755 306.5967 99.98345 309.2264 103.30517 308.39596 C 107.45733 307.2887 111.33267 310.74884 114.65439 318.22272 C 118.52974 327.08065 118.94495 328.4647 119.63698 337.59944 C 120.4674 347.2878 122.9587 354.48486 126.97245 358.0834 C 131.1246 361.82033 148.84046 364.58844 168.49398 364.45003 C 194.65255 364.45003 225.7937 362.78917 231.0531 361.1283 C 232.16034 360.8515 236.1741 360.15947 239.77262 359.74426 C 249.46098 358.637 252.9211 356.83775 255.96602 351.85516 C 258.0421 348.39504 258.59572 345.76534 258.0421 340.64435 C 257.62688 336.9074 257.07326 333.4473 256.79645 332.89366 C 255.82762 331.3712 251.67546 301.3373 250.98344 290.5417 C 250.56822 285.1439 250.153 278.77726 249.7378 276.28597 C 248.49215 266.4592 255.6892 247.3593 264.27033 237.67094 C 268.28408 232.96516 269.80653 230.05866 269.80653 226.73693 C 269.80653 224.24564 270.49856 221.75435 271.329 221.33913 C 274.5123 219.26306 279.4949 205.00733 282.95502 187.42988 C 289.46006 155.5967 287.9376 132.06783 278.38765 113.38314 C 276.03477 108.81577 267.73046 97.88176 264.13192 94.69845 C 262.88628 93.5912 261.36382 91.65353 260.6718 90.40789 C 258.73412 86.80935 246.27766 77.67462 238.66538 74.07608 C 227.45457 68.81669 225.10168 68.12466 218.04302 67.43264 C 214.44449 67.15583 209.04669 66.048585 206.14018 65.07975 C 203.09527 63.97251 199.77354 63.8341 197.97428 64.52613 C 196.31341 65.07975 192.29967 64.941344 189.11635 64.24932 C 180.25842 62.31165 174.03019 62.58846 169.46282 65.35656 Z" fill="#cccccc"/>
        </g>
        <g id="Graphic_1489">
          <path d="M 204.75613 69.64712 C 204.75613 71.03117 197.69747 72.69203 196.0366 71.58479 C 195.48298 71.30798 195.34458 70.33914 195.7598 69.64712 C 196.86703 67.98626 204.75613 67.98626 204.75613 69.64712 Z" fill="#ff0000"/>
        </g>
        <g id="Graphic_1488">
          <path d="M 183.99536 71.58479 C 183.99536 72.69203 185.79463 73.38406 188.83954 73.38406 C 195.06777 73.38406 199.08152 76.98259 196.45182 80.16591 C 195.20617 81.68836 193.4069 82.10358 191.33083 81.54996 C 189.11635 80.99634 188.14751 81.41155 188.14751 82.93401 C 188.14751 84.04125 188.83954 85.01009 189.53156 85.01009 C 190.362 85.01009 190.91561 85.70211 190.91561 86.53254 C 190.91561 87.50138 189.53156 87.77819 187.17868 87.08616 C 183.58014 86.25573 183.44174 86.25573 185.79463 88.74703 C 188.97794 92.34556 186.48665 95.11366 181.78088 93.03758 C 178.04394 91.37672 177.62872 89.30065 180.25842 86.53254 C 181.64247 85.01009 181.50407 84.73328 179.428 85.56371 C 178.04394 85.97892 175.55265 86.39414 173.89178 86.39414 C 171.12368 86.53254 171.12368 86.67095 173.33816 87.9166 C 176.10627 89.57746 176.52148 93.3144 173.89178 93.3144 C 172.92295 93.3144 171.4005 92.62237 170.43166 91.65353 C 168.21717 89.43905 166.55631 91.37672 168.49398 93.72961 C 170.43166 95.94409 169.32442 97.46655 165.72588 97.46655 C 163.92662 97.46655 163.23459 96.49771 163.23459 93.86802 C 163.23459 91.65353 162.54256 90.54629 161.57373 90.96151 C 160.6049 91.23832 159.91287 92.48396 160.18968 93.5912 C 160.6049 96.35931 153.40783 99.40422 149.53248 98.15857 C 146.48757 97.18974 145.38033 99.54263 148.42524 100.64987 C 149.67089 101.06508 149.67089 101.75711 148.56365 102.86435 C 146.48757 105.07883 142.75063 103.41797 141.64339 99.81944 C 140.39774 95.94409 133.06227 89.02384 131.95503 90.6847 C 130.57098 92.89918 132.50865 96.0825 135.96878 97.32814 C 138.18326 98.15857 139.1521 99.81944 139.42891 102.86435 C 139.56731 105.21724 139.2905 107.15491 138.59848 107.15491 C 136.6608 107.15491 134.16951 103.97159 134.16951 101.20349 C 134.16951 99.81944 133.6159 99.12741 132.78546 99.54263 C 132.09344 99.95784 131.40141 101.89551 131.40141 103.83318 C 131.40141 105.63245 130.84779 107.15491 130.15577 107.15491 C 128.2181 107.15491 126.97245 102.03392 127.94128 98.8506 C 128.91012 95.66728 126.55723 94.97526 125.31159 98.15857 C 124.20435 101.20349 121.71305 100.64987 121.71305 97.46655 C 121.71305 95.94409 122.68189 94.28323 123.78913 93.86802 C 125.44999 93.17599 125.5884 92.48396 124.34275 91.09991 C 123.0971 89.57746 123.78913 88.74703 128.07969 86.94776 C 130.9862 85.70211 135.27676 83.21082 137.35283 81.41155 C 139.56731 79.61229 142.47382 78.08983 143.85787 78.08983 C 145.24192 78.08983 146.90279 77.39781 147.4564 76.567375 C 148.14843 75.46013 148.84046 75.73694 149.67089 77.2594 C 151.33175 80.30431 154.51507 80.0275 155.3455 76.70578 C 155.76071 75.18332 157.14476 73.93768 158.39041 73.93768 C 160.05127 73.93768 160.46649 74.6297 159.77446 76.70578 C 159.35925 78.22824 159.49765 79.47388 160.18968 79.47388 C 161.0201 79.47388 161.85054 78.64345 162.12735 77.67462 C 162.81937 76.01375 177.0751 70.33914 181.64247 69.92393 C 182.88812 69.92393 183.99536 70.615954 183.99536 71.58479 Z" fill="#ff0000"/>
        </g>
        <g id="Graphic_1487">
          <path d="M 215.1365 72.55363 C 215.55173 73.24565 214.7213 73.93768 213.06043 73.93768 C 211.39957 73.93768 210.56914 73.24565 210.98436 72.55363 C 211.39957 71.723195 212.3684 71.169575 213.06043 71.169575 C 213.75246 71.169575 214.7213 71.723195 215.1365 72.55363 Z" fill="#ff0000"/>
        </g>
        <g id="Graphic_1486">
          <path d="M 227.45457 76.15216 C 231.46832 77.67462 229.66905 78.92026 224.13284 78.36664 C 221.08793 78.08983 219.01185 77.2594 219.42707 76.567375 C 220.2575 75.18332 224.27125 74.90651 227.45457 76.15216 Z" fill="#ff0000"/>
        </g>
        <g id="Graphic_1485">
          <path d="M 204.2025 81.96517 C 202.95686 83.21082 199.08152 80.85793 199.91195 79.47388 C 200.60397 78.36664 201.4344 78.50505 202.81846 79.61229 C 203.9257 80.44272 204.47932 81.54996 204.2025 81.96517 Z" fill="#ff0000"/>
        </g>
        <g id="Graphic_1484">
          <path d="M 211.67638 80.99634 C 211.67638 82.518795 212.3684 85.01009 213.19884 86.67095 C 214.9981 89.99267 214.16768 91.09991 210.56914 89.99267 C 207.24742 88.88543 205.44815 85.14849 207.38582 83.21082 C 208.07785 82.518795 208.35466 80.99634 207.93944 80.0275 C 207.52423 78.92026 208.07785 78.08983 209.4619 78.08983 C 210.84595 78.08983 211.67638 79.19707 211.67638 80.99634 Z" fill="#ff0000"/>
        </g>
        <g id="Graphic_1483">
          <path d="M 224.13284 80.85793 C 224.13284 81.54996 223.57922 82.24198 222.7488 82.24198 C 222.05677 82.24198 221.36474 81.54996 221.36474 80.85793 C 221.36474 80.0275 222.05677 79.47388 222.7488 79.47388 C 223.57922 79.47388 224.13284 80.0275 224.13284 80.85793 Z" fill="#ff0000"/>
        </g>
        <g id="Graphic_1482">
          <path d="M 248.76896 87.77819 C 250.42982 87.77819 251.81387 88.33181 251.81387 89.16224 C 251.81387 91.09991 250.70663 90.96151 242.1255 87.77819 C 237.97336 86.25573 234.37482 85.01009 233.9596 85.01009 C 233.6828 85.01009 234.23642 84.04125 235.20525 82.93401 C 236.5893 81.13474 237.41974 81.41155 241.29508 84.31806 C 243.78637 86.25573 247.2465 87.77819 248.76896 87.77819 Z" fill="#ff0000"/>
        </g>
        <g id="Graphic_1481">
          <path d="M 218.59664 84.45647 C 218.59664 85.56371 218.04302 86.11733 217.2126 85.70211 C 216.52056 85.2869 215.82854 84.31806 215.82854 83.48763 C 215.82854 82.79561 216.52056 82.24198 217.2126 82.24198 C 218.04302 82.24198 218.59664 83.21082 218.59664 84.45647 Z" fill="#ff0000"/>
        </g>
        <g id="Graphic_1480">
          <path d="M 201.71121 85.2869 C 203.9257 87.50138 203.7873 89.57746 201.4344 88.74703 C 199.77354 88.055 199.63514 88.88543 200.18876 92.76077 C 200.88078 97.32814 199.08152 99.26581 197.14385 96.0825 C 195.8982 94.14483 193.68372 95.66728 194.37574 97.88176 C 195.20617 99.81944 192.85329 103.97159 191.60764 102.72594 C 191.19242 102.31073 190.5004 99.81944 190.08518 97.32814 C 189.39316 93.4528 189.94678 91.79194 193.2685 88.1934 C 197.55906 83.34923 199.21992 82.79561 201.71121 85.2869 Z" fill="#ff0000"/>
        </g>
        <g id="Graphic_1479">
          <path d="M 228.4234 85.01009 C 232.57556 87.36297 231.60672 89.57746 226.90095 88.47022 C 221.77996 87.36297 221.50315 88.74703 226.34733 90.54629 C 229.39224 91.79194 229.66905 92.34556 228.285 94.00642 C 227.31616 95.11366 226.90095 97.60495 227.45457 99.54263 C 228.285 102.72594 227.31616 103.69478 224.54806 102.58754 C 223.99444 102.44913 223.71763 100.92668 223.85603 99.26581 C 224.40965 95.39047 221.77996 90.54629 219.28866 90.54629 C 218.18142 90.54629 217.2126 89.85427 217.2126 89.16224 C 217.2126 88.33181 218.18142 87.77819 219.28866 87.77819 C 220.5343 87.77819 221.77996 86.80935 222.19517 85.70211 C 223.164 83.21082 224.68646 83.07242 228.4234 85.01009 Z" fill="#ff0000"/>
        </g>
        <g id="Graphic_1478">
          <path d="M 209.3235 95.39047 C 208.49307 97.60495 207.10901 98.02017 205.72496 96.49771 C 204.47932 95.39047 207.52423 91.79194 209.04669 92.62237 C 209.6003 93.03758 209.87712 94.28323 209.3235 95.39047 Z" fill="#ff0000"/>
        </g>
        <g id="Graphic_1477">
          <path d="M 221.36474 97.05133 C 221.36474 98.43538 220.3959 98.989 218.59664 98.43538 C 216.79737 98.02017 215.82854 98.43538 215.82854 99.68103 C 215.82854 102.31073 210.43074 105.07883 208.63147 103.27956 C 207.80104 102.44913 209.04669 100.23465 212.3684 96.91293 C 216.38216 92.76077 217.90461 92.06875 219.42707 93.4528 C 220.5343 94.28323 221.36474 95.94409 221.36474 97.05133 Z" fill="#ff0000"/>
        </g>
        <g id="Graphic_1476">
          <path d="M 246.9697 93.3144 C 247.3849 94.00642 246.83128 94.69845 245.72404 94.69845 C 244.4784 94.69845 243.50956 94.00642 243.50956 93.3144 C 243.50956 92.48396 244.06318 91.93034 244.7552 91.93034 C 245.58564 91.93034 246.55447 92.48396 246.9697 93.3144 Z" fill="#ff0000"/>
        </g>
        <g id="Graphic_1475">
          <path d="M 254.58197 94.69845 C 254.58197 95.39047 254.30516 96.0825 254.02835 96.0825 C 253.61314 96.0825 252.9211 95.39047 252.5059 94.69845 C 252.09068 93.86802 252.3675 93.3144 253.0595 93.3144 C 253.88995 93.3144 254.58197 93.86802 254.58197 94.69845 Z" fill="#ff0000"/>
        </g>
        <g id="Graphic_1474">
          <path d="M 183.30333 96.35931 C 185.65622 97.46655 186.76346 98.8506 186.48665 100.78827 C 185.93303 104.52521 182.6113 105.35564 182.6113 101.75711 C 182.6113 100.09625 182.05769 98.8506 181.22726 98.8506 C 180.53523 98.8506 179.8432 99.68103 179.8432 100.64987 C 179.8432 101.75711 178.59756 103.69478 177.0751 105.07883 C 174.1686 107.70853 174.4454 107.98534 172.23092 100.92668 C 171.5389 98.57379 174.99903 94.69845 177.76713 94.69845 C 178.87437 94.69845 181.36566 95.39047 183.30333 96.35931 Z" fill="#ff0000"/>
        </g>
        <g id="Graphic_1473">
          <path d="M 236.03568 97.88176 C 235.48206 100.09625 236.1741 101.4803 237.97336 102.72594 C 239.4958 103.69478 240.74146 105.49405 240.74146 106.73969 C 240.74146 108.53896 240.32624 108.67736 239.0806 107.43172 C 238.11176 106.46288 236.3125 105.77086 235.06685 105.77086 C 231.46832 105.77086 230.63788 103.41797 232.43715 98.7122 C 234.51323 94.00642 237.28133 93.3144 236.03568 97.88176 Z" fill="#ff0000"/>
        </g>
        <g id="Graphic_1472">
          <path d="M 117.28409 101.4803 C 117.28409 103.83318 116.73047 106.04767 116.03844 106.60129 C 113.68556 107.98534 112.85513 106.04767 114.7928 103.69478 C 116.17685 102.03392 116.03844 101.4803 114.23918 100.78827 C 112.43991 100.09625 112.3015 99.54263 113.54715 98.02017 C 115.76163 95.39047 117.14568 96.63612 117.28409 101.4803 Z" fill="#ff0000"/>
        </g>
        <g id="Graphic_1471">
          <path d="M 243.50956 97.60495 C 243.50956 98.43538 246.00085 101.4803 249.04577 104.3868 C 256.79645 111.86068 256.65805 117.6737 248.90736 110.89185 C 242.54073 105.35564 238.25017 96.0825 242.1255 96.0825 C 242.95594 96.0825 243.50956 96.77452 243.50956 97.60495 Z" fill="#ff0000"/>
        </g>
        <g id="Graphic_1470">
          <path d="M 253.61314 100.37306 C 252.6443 103.69478 250.153 103.69478 248.07693 100.37306 C 246.00085 97.18974 246.83128 96.35931 250.98344 97.05133 C 253.33633 97.60495 254.02835 98.43538 253.61314 100.37306 Z" fill="#ff0000"/>
        </g>
        <g id="Graphic_1469">
          <path d="M 258.73412 98.8506 C 258.73412 99.54263 258.4573 100.23465 258.1805 100.23465 C 257.7653 100.23465 257.07326 99.54263 256.65805 98.8506 C 256.24283 98.02017 256.51964 97.46655 257.21167 97.46655 C 258.0421 97.46655 258.73412 98.02017 258.73412 98.8506 Z" fill="#ff0000"/>
        </g>
        <g id="Graphic_1468">
          <path d="M 170.70847 101.75711 C 173.47657 104.2484 168.49398 107.15491 162.26575 106.60129 C 158.1136 106.18607 156.31433 106.46288 156.72955 107.57012 C 157.00636 108.53896 159.49765 109.09258 162.40416 109.09258 C 166.83312 108.95417 167.38674 109.36939 167.38674 112.13749 C 167.38674 113.93676 167.52515 115.87443 167.80196 116.42805 C 167.94036 117.12008 166.69472 117.6737 164.89545 117.9505 C 162.68097 118.36572 161.43532 117.6737 161.0201 115.87443 C 160.46649 114.07516 158.80563 113.10633 155.89912 112.96792 C 150.50132 112.5527 150.36291 112.5527 151.47015 106.8781 C 152.16218 103.41797 153.40783 101.6187 156.03752 100.64987 C 159.91287 99.12741 168.49398 99.68103 170.70847 101.75711 Z" fill="#ff0000"/>
        </g>
        <g id="Graphic_1467">
          <path d="M 204.75613 102.17232 C 204.75613 102.44913 205.17134 103.69478 205.58656 104.94042 C 206.8322 108.12374 203.7873 107.70853 201.98802 104.3868 C 200.74238 102.17232 200.88078 101.6187 202.68005 101.6187 C 203.7873 101.6187 204.75613 101.89551 204.75613 102.17232 Z" fill="#ff0000"/>
        </g>
        <g id="Graphic_1466">
          <path d="M 221.36474 102.86435 C 221.36474 104.3868 217.351 107.70853 216.52056 106.8781 C 215.1365 105.63245 217.4894 101.6187 219.42707 101.6187 C 220.5343 101.6187 221.36474 102.17232 221.36474 102.86435 Z" fill="#ff0000"/>
        </g>
        <g id="Graphic_1465">
          <path d="M 261.50223 106.60129 C 261.50223 108.26215 260.9486 108.40055 258.59572 107.0165 C 256.24283 105.77086 255.96602 105.21724 257.48848 104.3868 C 259.70296 102.86435 261.50223 103.83318 261.50223 106.60129 Z" fill="#ff0000"/>
        </g>
        <g id="Graphic_1464">
          <path d="M 200.60397 107.0165 C 202.54164 110.61503 202.40324 112.69111 200.18876 112.69111 C 199.21992 112.69111 197.83587 114.76719 197.14385 117.12008 C 196.0366 120.71861 194.92936 121.82585 192.02286 122.10266 C 186.90187 122.65628 187.17868 120.71861 192.71488 116.42805 C 196.59022 113.52154 197.28225 112.13749 196.72863 108.67736 C 196.0366 103.83318 198.3895 102.86435 200.60397 107.0165 Z" fill="#ff0000"/>
        </g>
        <g id="Graphic_1463">
          <path d="M 124.48116 107.0165 C 124.48116 108.26215 118.80655 110.19982 117.83771 109.23098 C 117.5609 108.95417 117.6993 108.12374 118.25293 107.29331 C 119.36017 105.49405 124.48116 105.21724 124.48116 107.0165 Z" fill="#ff0000"/>
        </g>
        <g id="Graphic_1462">
          <path d="M 232.16034 109.09258 C 232.57556 110.75344 232.02194 111.44547 230.7763 111.03025 C 229.80745 110.61503 228.7002 109.23098 228.5618 107.98534 C 228.1466 106.32448 228.7002 105.63245 229.94586 106.04767 C 230.9147 106.46288 232.02194 107.84693 232.16034 109.09258 Z" fill="#ff0000"/>
        </g>
        <g id="Graphic_1461">
          <path d="M 147.1796 110.06141 C 146.76438 110.75344 145.79554 111.03025 145.10352 110.47663 C 144.4115 110.06141 144.13468 109.09258 144.6883 108.40055 C 145.10352 107.70853 146.07235 107.43172 146.76438 107.98534 C 147.4564 108.40055 147.73322 109.36939 147.1796 110.06141 Z" fill="#ff0000"/>
        </g>
        <g id="Graphic_1460">
          <path d="M 187.7323 109.36939 C 188.42432 111.44547 184.9642 115.044 181.36566 116.15124 C 178.45915 117.12008 178.18234 116.84327 178.87437 113.93676 C 179.428 112.13749 179.8432 109.92301 179.8432 108.95417 C 179.8432 107.0165 187.04027 107.43172 187.7323 109.36939 Z" fill="#ff0000"/>
        </g>
        <g id="Graphic_1459">
          <path d="M 193.96053 108.81577 C 195.06777 111.58387 193.68372 114.07516 191.33083 114.07516 C 189.94678 114.07516 189.53156 113.24473 190.08518 111.86068 C 190.5004 110.61503 190.91561 109.09258 190.91561 108.40055 C 190.91561 106.60129 193.2685 106.8781 193.96053 108.81577 Z" fill="#ff0000"/>
        </g>
        <g id="Graphic_1458">
          <path d="M 216.10535 111.03025 C 218.31983 114.76719 218.31983 115.044 215.55173 116.70486 C 213.19884 118.08891 212.50681 118.08891 211.12276 116.01283 C 209.87712 114.35197 209.04669 114.07516 208.35466 115.1824 C 206.5554 118.08891 204.47932 116.98167 205.44815 113.65995 C 206.417 110.33822 209.87712 107.15491 212.3684 107.15491 C 213.19884 107.15491 214.8597 108.95417 216.10535 111.03025 Z" fill="#ff0000"/>
        </g>
        <g id="Graphic_1457">
          <path d="M 224.68646 111.72228 C 223.71763 114.35197 221.91836 114.76719 220.67272 112.69111 C 219.42707 110.61503 222.8872 106.73969 224.40965 108.26215 C 225.10168 108.95417 225.24009 110.47663 224.68646 111.72228 Z" fill="#ff0000"/>
        </g>
        <g id="Graphic_1456">
          <path d="M 177.0751 110.47663 C 177.0751 112.96792 173.33816 115.87443 171.5389 114.76719 C 170.84687 114.35197 170.15485 112.69111 170.15485 111.16866 C 170.15485 109.23098 171.12368 108.53896 173.61497 108.53896 C 175.69105 108.53896 177.0751 109.36939 177.0751 110.47663 Z" fill="#ff0000"/>
        </g>
        <g id="Graphic_1455">
          <path d="M 131.1246 111.58387 C 130.15577 114.21357 125.8652 114.62878 125.8652 112.13749 C 125.8652 110.75344 127.11085 109.92301 128.77171 109.92301 C 130.43258 109.92301 131.40141 110.61503 131.1246 111.58387 Z" fill="#ff0000"/>
        </g>
        <g id="Graphic_1454">
          <path d="M 141.08977 111.58387 C 141.08977 113.38314 137.07602 118.22732 135.41516 118.22732 C 134.72313 118.22732 134.44632 116.42805 134.58473 114.07516 C 134.86154 110.75344 135.55357 109.92301 138.04486 109.92301 C 139.70572 109.92301 141.08977 110.61503 141.08977 111.58387 Z" fill="#ff0000"/>
        </g>
        <g id="Graphic_1453">
          <path d="M 236.86612 114.35197 C 234.79004 116.42805 233.5444 115.1824 234.65163 112.13749 C 235.34366 110.47663 236.03568 110.19982 237.00452 111.16866 C 238.11176 112.2759 238.11176 113.10633 236.86612 114.35197 Z" fill="#ff0000"/>
        </g>
        <g id="Graphic_1452">
          <path d="M 244.34 117.12008 C 243.92478 120.4418 243.64797 123.48671 243.64797 124.04033 C 243.50956 124.73236 242.54073 125.14757 241.29508 125.14757 C 239.4958 125.14757 239.219 124.17874 239.77262 120.16499 C 240.46465 115.73602 242.81754 111.30706 244.4784 111.30706 C 244.8936 111.30706 244.7552 113.93676 244.34 117.12008 Z" fill="#ff0000"/>
        </g>
        <g id="Graphic_1451">
          <path d="M 262.05585 113.52154 C 263.3015 116.56646 263.1631 116.84327 260.8102 116.01283 C 259.70296 115.45921 258.73412 114.35197 258.73412 113.24473 C 258.73412 110.61503 260.9486 110.75344 262.05585 113.52154 Z" fill="#ff0000"/>
        </g>
        <g id="Graphic_1450">
          <path d="M 115.48482 116.01283 C 116.31525 116.98167 119.91379 118.50413 123.51232 119.61137 C 128.4949 120.85701 131.95503 123.2099 137.35283 128.88451 C 141.36658 133.03666 147.59481 138.01925 151.19334 139.81852 C 158.1136 143.41705 160.18968 146.73877 164.61864 161.1329 C 165.58748 164.59303 168.49398 169.57562 170.98528 172.20531 C 173.33816 174.83501 175.69105 179.26398 176.24467 182.03208 C 177.0751 186.73785 180.81204 190.7516 188.70113 195.31897 C 192.43807 197.39505 198.3895 194.35013 201.296 188.95233 C 205.86337 180.0944 220.94953 175.94225 226.90095 181.89367 C 230.49948 185.4922 230.36107 188.53712 226.48573 198.22548 C 224.68646 202.51604 222.19517 208.88267 220.81112 212.3428 C 219.56548 215.80293 215.41332 221.89275 211.67638 226.0449 L 204.75613 233.38038 L 197.14385 232.41154 C 189.66997 231.5811 189.39316 231.4427 190.08518 227.84417 C 191.33083 221.89275 188.97794 219.81668 186.20984 224.10724 C 182.74971 229.50504 184.41057 235.04124 190.6388 238.63977 L 195.7598 241.6847 L 192.57648 244.17598 C 190.91561 245.56003 190.08518 247.0825 190.7772 247.4977 C 191.46924 248.05132 192.43807 247.7745 192.9917 246.94408 C 193.4069 246.25206 194.65255 245.56003 195.48298 245.56003 C 196.45182 245.69843 194.37574 248.18973 190.91561 251.09623 C 187.17868 254.41796 185.51781 256.63244 186.90187 256.63244 C 189.39316 256.63244 189.11635 263.2759 186.34825 268.9505 C 183.85695 274.2099 176.24467 281.26855 170.43166 283.75984 C 167.66355 285.0055 166.0027 286.25114 166.97153 286.66635 C 167.94036 286.94316 170.01644 286.52795 171.5389 285.6975 C 175.96786 283.34463 176.9367 285.4207 172.92295 288.46562 C 170.98528 289.98807 170.15485 291.23372 171.12368 291.23372 C 174.307 291.23372 198.8047 268.12006 204.3409 259.81576 C 205.44815 258.1549 206.5554 253.58753 206.8322 249.71218 C 207.38582 243.20714 207.93944 242.0999 214.5829 236.14848 C 218.45823 232.54995 222.33358 229.36663 222.8872 229.22823 C 225.5169 228.2594 223.99444 232.27314 219.84229 237.39413 C 214.44449 244.31438 216.93578 244.4528 222.6104 237.67094 C 225.3785 234.2108 226.90095 233.24197 226.90095 234.76443 C 226.90095 236.01008 225.24009 239.055 223.30241 241.40788 C 218.31983 247.2209 220.2575 248.32813 225.3785 242.65352 C 228.5618 239.3318 229.66905 238.63977 229.66905 240.30064 C 229.66905 241.6847 227.86978 244.03757 225.5169 245.83684 C 220.94953 249.15856 219.70388 252.06507 224.13284 249.43537 C 229.25383 246.25206 228.7002 249.71218 223.30241 254.55636 C 220.3959 257.18606 218.59664 259.26214 219.56548 259.40054 C 220.3959 259.40054 221.64155 258.70852 222.05677 258.0165 C 222.47198 257.32447 223.71763 256.63244 224.54806 256.63244 C 225.5169 256.63244 224.13284 258.5701 221.64155 260.7846 C 216.10535 265.90558 219.42707 266.4592 225.3785 261.3382 C 227.73138 259.40054 229.66905 258.4317 229.66905 259.12373 C 229.66905 260.50778 222.05677 267.70485 215.1365 272.82584 C 212.23 275.04032 211.67638 275.87075 213.33724 276.00916 C 214.5829 276.00916 218.87345 272.96424 223.0256 269.2273 C 230.36107 262.58386 239.4958 257.73968 235.34366 262.58386 C 234.37482 263.8295 232.99077 264.52153 232.29875 264.24472 C 231.74513 263.8295 230.22267 265.21356 229.11543 267.42804 C 227.17776 271.16498 218.59664 279.4693 215.27492 280.57653 C 214.44449 280.85334 214.16768 281.54536 214.7213 282.09898 C 215.82854 283.34463 221.64155 280.43812 223.164 277.94683 C 223.71763 276.8396 224.96327 276.00916 225.7937 276.00916 C 228.285 276.00916 218.45823 285.6975 214.44449 287.35838 C 212.3684 288.1888 211.67638 289.01924 212.64522 289.43445 C 213.61405 289.84967 216.65897 288.74243 219.28866 287.08157 C 221.91836 285.4207 224.13284 284.59027 224.13284 285.2823 C 224.13284 286.94316 214.44449 296.0779 210.56914 298.15398 C 208.76988 298.9844 207.66263 300.09165 207.93944 300.50686 C 209.6003 302.02932 214.7213 298.9844 221.22634 292.61777 C 227.59297 286.11273 231.0531 284.17506 231.0531 286.80476 C 231.0531 287.35838 230.36107 288.60402 229.39224 289.57286 C 227.31616 291.64894 228.97702 291.78734 232.57556 289.84967 C 237.55814 287.08157 235.34366 291.92575 229.66905 295.8011 C 227.86978 297.04674 227.17776 298.15398 228.1466 298.15398 C 231.46832 298.15398 242.1255 285.97433 242.1255 282.2374 C 242.1255 280.2997 242.67913 278.77726 243.37116 278.77726 C 244.06318 278.77726 245.03202 282.9294 245.44723 288.0504 C 246.00085 293.3098 246.9697 301.4757 247.66172 306.4583 C 252.9211 342.58202 253.0595 348.39504 248.49215 350.4711 C 244.4784 352.2704 238.25017 353.51603 228.97702 354.20805 C 188.97794 357.11456 169.87804 357.8066 167.52515 356.42253 C 166.4179 355.7305 163.78821 355.7305 161.43532 356.42253 C 158.39041 357.25296 156.31433 357.11456 154.09985 355.5921 C 152.43899 354.48486 146.90279 353.2392 141.9202 352.6856 C 135.13835 351.99357 132.23184 351.02473 130.01736 348.67185 C 127.11085 345.62693 127.11085 345.35012 129.46374 341.89 C 131.95503 337.87625 131.263 335.52336 128.2181 338.15306 C 126.55723 339.3987 126.41883 339.1219 126.97245 336.2154 C 127.24926 334.2777 128.07969 332.34004 128.77171 331.92483 C 130.84779 330.6792 130.15577 328.6031 127.94128 329.43353 C 124.34275 330.8176 125.5884 327.77267 130.15577 324.03573 C 132.50865 322.09806 134.03111 319.88358 133.47749 319.05315 C 133.06227 318.22272 133.33908 317.5307 134.30792 317.5307 C 135.27676 317.5307 135.69197 317.2539 135.27676 316.83867 C 134.86154 316.42345 132.78546 316.70026 130.57098 317.5307 C 127.80288 318.63793 127.11085 319.32996 128.4949 320.1604 C 129.74055 320.99082 129.87896 321.68285 128.77171 322.23647 C 127.94128 322.7901 126.41883 322.37487 125.44999 321.40604 C 123.23551 318.91475 119.77538 312.1329 120.4674 311.44087 C 120.74422 311.02565 125.03478 310.47203 130.01736 309.9184 C 138.73688 309.08798 138.87529 309.08798 134.58473 311.16406 C 127.66447 314.34738 129.18693 315.0394 136.6608 312.2713 C 140.25934 310.88725 143.16585 309.08798 143.16585 308.25755 C 143.16585 307.2887 145.38033 304.79742 148.28684 302.72135 C 151.05494 300.64527 154.93028 296.90833 157.00636 294.41704 L 160.6049 289.98807 L 156.03752 291.37213 C 143.85787 295.24747 141.7818 295.52428 137.49124 294.83225 C 134.03111 294.14023 132.64706 294.41704 131.67822 296.2163 C 130.57098 298.15398 129.04852 298.4308 122.9587 297.73876 C 118.80655 297.32355 114.37758 296.63152 113.13194 296.0779 C 111.60948 295.52428 110.64064 295.6627 110.64064 296.63152 C 110.64064 297.60036 112.0247 298.846 113.82396 299.53803 C 116.59206 300.64527 116.45366 300.78367 112.43991 300.78367 C 109.25659 300.92208 107.87254 300.23005 107.87254 298.846 C 107.87254 297.60036 106.6269 296.76993 104.68922 296.76993 C 102.88996 296.76993 100.81388 296.0779 99.84504 295.10906 C 98.7378 294.00182 98.18418 294.00182 98.18418 294.97066 C 98.18418 295.8011 99.56823 297.46195 101.3675 298.5692 L 104.41241 300.78367 L 99.98345 300.78367 C 97.63056 300.92208 95.13927 300.23005 94.72405 299.53803 C 94.30884 298.7076 92.78638 298.15398 91.40233 298.15398 C 88.08061 298.15398 69.53432 290.5417 67.31984 288.1888 C 63.72131 284.59027 63.5829 281.13015 66.627814 271.5802 C 69.67273 262.03024 69.67273 261.89183 67.04303 259.95416 C 64.41333 258.0165 64.41333 257.8781 67.458245 257.18606 C 70.77997 256.21722 71.33359 254.55636 68.8423 253.0339 C 68.011865 252.4803 66.904624 252.7571 66.627814 253.58753 C 66.351 254.55636 63.72131 255.2484 60.676394 255.2484 C 54.30976 255.2484 53.61773 253.0339 58.1851 246.80568 C 61.230014 242.51512 62.19885 242.51512 73.686475 245.83684 C 78.11544 247.2209 78.807465 247.91292 78.530655 250.95783 C 78.25384 253.58753 78.66906 254.41796 80.19152 254.00274 C 93.06319 250.81942 94.17043 251.09623 92.92479 257.32447 C 92.50957 259.53895 93.2016 261.0614 95.27767 262.16864 C 96.93854 262.99908 97.90737 264.24472 97.49216 264.93675 C 96.66173 266.1824 100.39866 270.47295 102.33634 270.47295 C 104.27401 270.47295 105.79646 267.28963 104.1356 266.736 C 103.30517 266.4592 102.88996 264.93675 103.30517 263.5527 C 103.72039 262.03024 103.30517 260.7846 102.47474 260.7846 C 101.64431 260.7846 101.09069 260.36938 101.2291 259.67735 C 101.92112 257.73968 95.41608 245.97525 91.95595 242.79193 C 89.04944 240.16223 88.49582 239.88542 88.49582 241.8231 C 88.49582 245.69843 86.28134 244.4528 79.7763 237.11732 C 75.34734 231.99633 72.856045 230.19706 71.19518 230.8891 C 69.11911 231.5811 69.25751 232.27314 72.02561 236.7021 C 75.07053 241.6847 75.07053 241.6847 72.16402 240.16223 C 70.64156 239.3318 68.8423 237.94775 68.42708 237.25572 C 68.011865 236.4253 66.351 235.87167 64.96695 235.87167 C 63.02928 235.87167 62.47566 236.5637 63.167686 238.08615 C 63.85971 239.88542 63.4445 240.16223 60.676394 239.3318 C 58.87713 238.77818 57.35467 238.22456 57.216266 238.08615 C 57.216266 238.08615 56.109025 236.2869 54.86338 234.2108 C 53.61773 232.13473 52.51049 229.92025 52.51049 229.22823 C 52.51049 228.5362 56.52424 228.12098 61.506825 228.2594 C 67.87346 228.5362 70.50316 228.12098 70.08794 227.01374 C 69.67273 226.1833 66.904624 225.6297 63.02928 225.7681 C 55.97062 226.1833 55.417 225.35288 59.43075 220.5087 C 61.64523 217.879 62.337255 217.6022 63.4445 219.12465 C 65.38217 222.03116 66.627814 218.57103 65.10536 214.55728 C 64.13652 212.066 62.060445 210.68194 57.769886 209.4363 C 54.448163 208.60586 52.7873 207.49862 53.89454 207.2218 C 55.001784 206.8066 56.939456 206.25297 58.0467 205.83776 C 61.506825 204.4537 63.99812 205.42254 68.42708 209.5747 C 72.856045 213.86526 79.6379 217.04857 81.71397 215.66452 C 82.406 215.2493 84.62048 217.7406 86.83496 221.20073 C 91.67914 229.36663 94.03203 229.50504 93.06319 221.61594 C 92.64798 218.43263 91.81755 215.1109 91.26393 214.41888 C 90.84871 213.58845 90.4335 209.8515 90.71031 206.11457 C 90.84871 202.23923 90.15669 197.53345 89.04944 195.59578 C 86.83496 191.16682 79.36109 187.70669 77.1466 189.92117 C 75.62415 191.44363 75.62415 191.58203 82.26759 193.6581 C 83.37483 193.93492 84.62048 195.8726 85.1741 197.81026 C 88.21901 209.8515 75.48574 215.1109 68.15027 204.73052 C 66.76622 202.65444 64.41333 199.47112 62.890876 197.53345 L 59.98437 194.07332 L 55.278594 196.84143 C 51.818466 198.7791 50.57282 200.30155 50.711225 202.51604 C 51.264846 206.52979 49.18877 206.11457 47.11269 201.824 C 44.759805 196.4262 47.3895 189.92117 54.30976 183.96975 C 57.35467 181.34005 60.53799 179.12557 61.36842 179.12557 C 63.02928 179.12557 70.36475 172.62053 75.62415 166.6691 C 77.42341 164.73144 79.91471 158.3648 81.43716 152.55179 C 83.51324 143.97067 85.72772 139.68011 92.50957 130.26856 C 97.07694 123.76352 101.92112 118.22732 103.02836 117.6737 C 104.1356 117.25848 105.10444 115.87443 105.10444 114.76719 C 105.10444 112.96792 105.93487 112.69111 109.67181 113.38314 C 112.0247 113.93676 114.7928 115.044 115.48482 116.01283 Z" fill="#ff0000"/>
        </g>
        <g id="Graphic_1449">
          <path d="M 151.33175 117.53529 C 153.54623 120.85701 153.54623 121.13382 150.50132 122.24107 C 146.07235 123.90193 144.27309 121.82585 146.62598 117.53529 C 147.59481 115.59762 148.56365 114.07516 148.84046 114.07516 C 148.97886 114.07516 150.0861 115.59762 151.33175 117.53529 Z" fill="#ff0000"/>
        </g>
        <g id="Graphic_1448">
          <path d="M 157.69839 116.28965 C 157.69839 117.39689 157.00636 117.9505 156.31433 117.53529 C 155.4839 116.98167 155.2071 116.01283 155.6223 115.32081 C 156.86795 113.38314 157.69839 113.79835 157.69839 116.28965 Z" fill="#ff0000"/>
        </g>
        <g id="Graphic_1447">
          <path d="M 228.285 116.15124 C 228.285 117.25848 227.31616 118.22732 226.07052 118.22732 C 224.13284 118.22732 224.13284 117.8121 225.5169 116.15124 C 226.48573 115.044 227.45457 114.07516 227.73138 114.07516 C 228.0082 114.07516 228.285 115.044 228.285 116.15124 Z" fill="#ff0000"/>
        </g>
        <g id="Graphic_1446">
          <path d="M 250.0146 117.6737 C 249.5994 120.4418 250.153 121.41063 252.5059 122.37947 C 255.5508 123.48671 258.3189 129.29973 255.82762 129.29973 C 252.22908 129.29973 245.30883 118.22732 247.1081 115.32081 C 248.63055 112.69111 250.70663 114.21357 250.0146 117.6737 Z" fill="#ff0000"/>
        </g>
        <g id="Graphic_1445">
          <path d="M 178.45915 118.08891 C 178.45915 120.16499 174.5838 122.65628 172.09252 122.10266 C 168.35558 121.41063 168.21717 118.50413 171.8157 117.8121 C 177.35191 116.70486 178.45915 116.84327 178.45915 118.08891 Z" fill="#ff0000"/>
        </g>
        <g id="Graphic_1444">
          <path d="M 260.6718 119.88818 C 263.7167 124.17874 261.77904 125.8396 257.9037 122.24107 C 256.10443 120.5802 254.9972 118.64253 255.4124 118.08891 C 256.65805 116.01283 258.4573 116.70486 260.6718 119.88818 Z" fill="#ff0000"/>
        </g>
        <g id="Graphic_1443">
          <path d="M 233.5444 123.3483 C 232.16034 125.14757 232.16034 125.7012 233.5444 126.11641 C 234.37482 126.53162 235.20525 127.36205 235.20525 128.19249 C 235.20525 128.88451 233.9596 129.02292 232.43715 128.6077 C 230.49948 127.91568 229.66905 128.33089 229.66905 129.85335 C 229.66905 131.099 230.36107 132.06783 231.0531 132.06783 C 231.88353 132.06783 232.43715 133.03666 232.43715 134.1439 C 232.43715 136.6352 225.6553 137.05041 225.3785 134.42072 C 225.10168 131.099 225.7937 128.88451 227.73138 126.94684 C 228.83862 125.8396 229.66905 124.31714 229.66905 123.48671 C 229.66905 121.41063 234.37482 118.08891 234.92844 119.74977 C 235.20525 120.4418 234.65163 122.10266 233.5444 123.3483 Z" fill="#ff0000"/>
        </g>
        <g id="Graphic_1442">
          <path d="M 271.4674 120.5802 C 273.9587 122.79469 274.92752 126.53162 272.98985 126.53162 C 271.329 126.53162 267.03843 121.96426 267.03843 120.02658 C 267.03843 117.6737 268.42248 117.6737 271.4674 120.5802 Z" fill="#ff0000"/>
        </g>
        <g id="Graphic_1441">
          <path d="M 169.32442 126.80843 C 168.63239 127.91568 163.23459 128.33089 163.23459 127.36205 C 163.23459 126.94684 163.92662 125.00917 164.75705 122.79469 L 166.2795 118.91934 L 168.07877 122.37947 C 169.0476 124.31714 169.60123 126.25481 169.32442 126.80843 Z" fill="#ff0000"/>
        </g>
        <g id="Graphic_1440">
          <path d="M 184.68738 120.99542 C 184.27217 121.68744 182.88812 122.37947 181.78088 122.37947 C 180.67364 122.37947 180.12002 121.68744 180.53523 120.99542 C 180.95045 120.16499 182.3345 119.61137 183.44174 119.61137 C 184.54898 119.61137 185.1026 120.16499 184.68738 120.99542 Z" fill="#ff0000"/>
        </g>
        <g id="Graphic_1439">
          <path d="M 203.23367 121.54904 C 205.30975 124.04033 203.64889 127.91568 200.60397 127.91568 C 198.5279 127.91568 198.11268 127.08524 198.5279 124.04033 C 198.8047 121.96426 199.08152 120.16499 199.08152 119.88818 C 199.35833 118.91934 201.84962 119.88818 203.23367 121.54904 Z" fill="#ff0000"/>
        </g>
        <g id="Graphic_1438">
          <path d="M 213.06043 123.0715 C 213.06043 125.56279 209.04669 129.57654 207.52423 128.6077 C 206.8322 128.19249 206.5554 126.94684 206.8322 125.8396 C 207.24742 124.73236 207.80104 122.79469 208.21625 121.68744 C 208.90828 119.19615 213.06043 120.4418 213.06043 123.0715 Z" fill="#ff0000"/>
        </g>
        <g id="Graphic_1437">
          <path d="M 223.0256 122.37947 C 224.68646 123.90193 225.5169 125.56279 224.96327 126.11641 C 224.40965 126.80843 223.0256 125.978 221.91836 124.59395 C 220.94953 123.0715 219.56548 122.37947 219.01185 122.79469 C 218.45823 123.3483 218.87345 124.59395 219.70388 125.42438 C 222.6104 128.33089 221.64155 132.06783 218.04302 132.06783 C 216.24375 132.06783 214.44449 132.89826 214.02927 133.72869 C 213.61405 135.11274 213.06043 135.11274 211.67638 133.8671 C 210.29233 132.62145 210.56914 131.51421 212.92203 128.4693 C 214.44449 126.39322 215.82854 123.62512 215.82854 122.24107 C 215.82854 118.78094 219.28866 118.91934 223.0256 122.37947 Z" fill="#ff0000"/>
        </g>
        <g id="Graphic_1436">
          <path d="M 162.40416 122.93309 C 161.71213 124.59395 157.69839 126.39322 154.65347 126.53162 C 152.8542 126.53162 153.40783 122.65628 155.3455 121.96426 C 159.08244 120.4418 163.09618 120.99542 162.40416 122.93309 Z" fill="#ff0000"/>
        </g>
        <g id="Graphic_1435">
          <path d="M 185.3794 126.94684 C 185.3794 130.40697 181.22726 131.65261 179.15118 128.88451 C 177.0751 125.978 175.69105 125.8396 175.69105 128.4693 C 175.69105 131.099 171.95411 133.8671 169.46282 132.89826 C 164.34183 130.96059 173.47657 123.90193 180.81204 124.17874 C 184.13376 124.45555 185.3794 125.14757 185.3794 126.94684 Z" fill="#ff0000"/>
        </g>
        <g id="Graphic_1434">
          <path d="M 152.5774 127.50046 C 153.82304 128.7461 149.39408 133.59029 147.87162 132.62145 C 145.51873 131.2374 146.48757 126.53162 149.11727 126.53162 C 150.50132 126.53162 152.16218 126.94684 152.5774 127.50046 Z" fill="#ff0000"/>
        </g>
        <g id="Graphic_1433">
          <path d="M 247.80012 128.33089 C 247.66172 128.88451 247.66172 130.40697 247.66172 131.65261 C 247.66172 133.72869 247.3849 133.8671 246.27766 132.06783 C 244.4784 129.29973 244.4784 126.11641 246.41607 126.80843 C 247.2465 127.08524 247.80012 127.77727 247.80012 128.33089 Z" fill="#ff0000"/>
        </g>
        <g id="Graphic_1432">
          <path d="M 160.46649 129.29973 C 160.46649 129.99175 159.77446 130.68378 158.94403 130.68378 C 158.252 130.68378 157.9752 129.99175 158.39041 129.29973 C 158.80563 128.4693 159.49765 127.91568 159.91287 127.91568 C 160.18968 127.91568 160.46649 128.4693 160.46649 129.29973 Z" fill="#ff0000"/>
        </g>
        <g id="Graphic_1431">
          <path d="M 195.06777 133.45188 C 195.06777 134.83593 196.175 136.21998 197.55906 136.6352 C 199.77354 137.18882 199.77354 137.32722 197.28225 138.29606 C 195.34458 139.12649 194.09893 138.57287 192.29967 136.21998 L 189.80837 132.89826 L 189.25475 136.35839 C 188.97794 138.15765 188.0091 139.5417 187.04027 139.4033 C 186.07144 139.12649 185.51781 140.23373 185.79463 141.8946 C 185.93303 143.55545 185.241 145.21632 184.13376 145.63153 C 180.95045 146.73877 183.16493 135.11274 186.90187 131.2374 C 189.25475 128.7461 190.5004 128.33089 192.43807 129.43813 C 193.96053 130.13016 195.06777 131.92942 195.06777 133.45188 Z" fill="#ff0000"/>
        </g>
        <g id="Graphic_1430">
          <path d="M 242.26392 136.6352 C 241.29508 137.60403 240.18784 137.46563 238.66538 136.21998 C 236.1741 134.1439 236.03568 131.79102 238.25017 129.57654 C 239.63422 128.19249 240.32624 128.6077 241.8487 131.51421 C 243.23275 134.0055 243.37116 135.52796 242.26392 136.6352 Z" fill="#ff0000"/>
        </g>
        <g id="Graphic_1429">
          <path d="M 265.7928 129.85335 C 264.82395 130.96059 264.27033 132.62145 264.40873 133.72869 C 264.96236 138.29606 264.13192 140.37214 261.50223 140.37214 C 258.73412 140.37214 258.73412 140.23373 260.9486 136.91201 C 262.33266 134.83593 262.60947 133.45188 261.64063 133.45188 C 260.8102 133.45188 260.11818 132.20623 260.11818 130.68378 C 260.11818 128.6077 261.087 127.91568 263.7167 127.91568 C 266.76162 127.91568 267.03843 128.33089 265.7928 129.85335 Z" fill="#ff0000"/>
        </g>
        <g id="Graphic_1428">
          <path d="M 272.57464 134.1439 C 272.57464 137.74244 270.63697 138.71127 269.1145 136.21998 C 267.86886 134.28231 269.2529 130.68378 271.1906 130.68378 C 271.8826 130.68378 272.57464 132.20623 272.57464 134.1439 Z" fill="#ff0000"/>
        </g>
        <g id="Graphic_1427">
          <path d="M 208.07785 135.11274 C 208.76988 136.35839 209.04669 137.88084 208.49307 138.43446 C 207.38582 139.5417 201.98802 135.11274 201.98802 133.17507 C 201.98802 131.099 206.417 132.48304 208.07785 135.11274 Z" fill="#ff0000"/>
        </g>
        <g id="Graphic_1426">
          <path d="M 163.23459 134.69753 C 163.23459 136.35839 159.22084 137.88084 157.55998 136.7736 C 155.06869 135.38955 156.31433 133.45188 159.77446 133.45188 C 161.71213 133.45188 163.23459 134.0055 163.23459 134.69753 Z" fill="#ff0000"/>
        </g>
        <g id="Graphic_1425">
          <path d="M 179.8432 135.38955 C 179.8432 138.01925 177.49032 139.4033 174.72222 138.43446 C 173.06135 137.74244 172.92295 137.18882 174.307 135.52796 C 176.52148 132.89826 179.8432 132.89826 179.8432 135.38955 Z" fill="#ff0000"/>
        </g>
        <g id="Graphic_1424">
          <path d="M 251.53706 140.51054 L 251.12184 143.83226 L 249.32258 140.64895 C 248.35374 138.98809 247.93853 136.91201 248.49215 136.08158 C 249.8762 133.72869 252.09068 136.91201 251.53706 140.51054 Z" fill="#ff0000"/>
        </g>
        <g id="Graphic_1423">
          <path d="M 257.48848 136.6352 C 257.35007 138.29606 255.4124 137.88084 254.85878 136.08158 C 254.44357 135.25115 254.9972 134.69753 255.96602 134.97434 C 256.79645 135.38955 257.48848 136.08158 257.48848 136.6352 Z" fill="#ff0000"/>
        </g>
        <g id="Graphic_1422">
          <path d="M 172.92295 140.64895 C 172.92295 141.34097 174.307 141.75619 175.96786 141.75619 C 178.32075 141.75619 178.59756 142.1714 177.35191 143.41705 C 175.96786 144.8011 174.99903 144.8011 172.92295 143.41705 C 171.4005 142.44821 168.63239 142.033 166.83312 142.58662 C 162.40416 143.69386 161.0201 141.06416 164.75705 138.43446 C 167.10993 136.91201 168.21717 136.7736 170.29325 138.01925 C 171.8157 138.98809 172.92295 140.09533 172.92295 140.64895 Z" fill="#ff0000"/>
        </g>
        <g id="Graphic_1421">
          <path d="M 221.36474 138.29606 C 221.36474 139.4033 220.81112 140.37214 219.9807 140.37214 C 219.28866 140.37214 218.59664 139.4033 218.59664 138.29606 C 218.59664 137.18882 219.28866 136.21998 219.9807 136.21998 C 220.81112 136.21998 221.36474 137.18882 221.36474 138.29606 Z" fill="#ff0000"/>
        </g>
        <g id="Graphic_1420">
          <path d="M 234.92844 140.37214 C 232.85237 143.69386 229.94586 143.83226 226.20892 140.92576 C 223.44082 138.71127 223.44082 138.71127 226.48573 139.68011 C 228.285 140.09533 230.7763 139.95692 232.02194 139.12649 C 235.89728 136.91201 236.7277 137.32722 234.92844 140.37214 Z" fill="#ff0000"/>
        </g>
        <g id="Graphic_1419">
          <path d="M 204.47932 142.033 C 204.75613 143.27864 203.64889 144.6627 202.12643 145.21632 C 200.05035 145.76994 199.21992 147.2924 199.21992 149.92209 C 199.21992 154.21265 196.0366 157.81118 193.68372 156.28873 C 191.46924 154.90467 192.02286 152.13657 195.06777 149.36847 C 196.59022 147.98442 197.83587 145.76994 197.83587 144.52429 C 197.83587 139.68011 203.64889 137.46563 204.47932 142.033 Z" fill="#ff0000"/>
        </g>
        <g id="Graphic_1418">
          <path d="M 215.82854 140.78735 C 215.82854 141.8946 214.30608 143.41705 212.3684 144.24748 C 209.3235 145.63153 209.04669 146.32356 210.29233 148.67644 C 211.12276 150.1989 211.39957 152.13657 210.98436 152.8286 C 209.6003 155.04308 205.17134 154.48946 204.2025 151.99817 C 203.51048 150.0605 207.80104 142.44821 210.98436 140.09533 C 213.19884 138.43446 215.82854 138.84968 215.82854 140.78735 Z" fill="#ff0000"/>
        </g>
        <g id="Graphic_1417">
          <path d="M 276.17317 142.72502 C 274.78912 144.10907 273.54347 142.033 274.78912 140.23373 C 275.61955 138.71127 275.89636 138.71127 276.44998 140.23373 C 276.7268 141.20257 276.5884 142.3098 276.17317 142.72502 Z" fill="#ff0000"/>
        </g>
        <g id="Graphic_1416">
          <path d="M 246.00085 144.10907 C 245.44723 148.81485 242.1255 150.0605 242.1255 145.49313 C 242.1255 142.033 243.09435 140.37214 245.17042 140.37214 C 245.86245 140.37214 246.27766 142.033 246.00085 144.10907 Z" fill="#ff0000"/>
        </g>
        <g id="Graphic_1415">
          <path d="M 270.36016 142.58662 C 271.329 145.07791 270.36016 147.2924 268.28408 147.2924 C 267.59205 147.2924 267.03843 145.76994 267.03843 143.83226 C 267.03843 139.95692 269.1145 139.12649 270.36016 142.58662 Z" fill="#ff0000"/>
        </g>
        <g id="Graphic_1414">
          <path d="M 194.65255 143.97067 C 194.92936 144.6627 194.23734 146.60037 193.1301 147.98442 C 190.2236 151.85976 187.17868 148.95325 189.53156 144.52429 C 191.05402 141.61778 193.82212 141.34097 194.65255 143.97067 Z" fill="#ff0000"/>
        </g>
        <g id="Graphic_1413">
          <path d="M 221.36474 144.52429 C 221.36474 145.21632 220.81112 145.90834 219.9807 145.90834 C 219.28866 145.90834 218.59664 145.21632 218.59664 144.52429 C 218.59664 143.69386 219.28866 143.14024 219.9807 143.14024 C 220.81112 143.14024 221.36474 143.69386 221.36474 144.52429 Z" fill="#ff0000"/>
        </g>
        <g id="Graphic_1412">
          <path d="M 264.27033 145.90834 C 264.27033 147.7076 263.3015 148.67644 261.64063 148.67644 C 258.59572 148.67644 256.79645 146.60037 258.0421 144.52429 C 259.70296 141.8946 264.27033 143.00183 264.27033 145.90834 Z" fill="#ff0000"/>
        </g>
        <g id="Graphic_1411">
          <path d="M 227.59297 145.90834 C 228.0082 146.60037 227.86978 147.2924 227.03935 147.2924 C 226.34733 147.2924 225.24009 146.60037 224.82487 145.90834 C 224.40965 145.07791 224.54806 144.52429 225.3785 144.52429 C 226.07052 144.52429 227.17776 145.07791 227.59297 145.90834 Z" fill="#ff0000"/>
        </g>
        <g id="Graphic_1410">
          <path d="M 237.28133 147.2924 C 236.86612 147.98442 235.62047 148.26123 234.51323 147.7076 C 231.60672 146.73877 231.88353 145.90834 235.34366 145.90834 C 236.86612 145.90834 237.83495 146.46196 237.28133 147.2924 Z" fill="#ff0000"/>
        </g>
        <g id="Graphic_1409">
          <path d="M 178.32075 149.36847 C 176.9367 150.89093 174.86062 151.16774 171.8157 150.61412 C 165.17226 149.23006 166.4179 147.2924 173.89178 147.2924 C 179.7048 147.2924 180.25842 147.5692 178.32075 149.36847 Z" fill="#ff0000"/>
        </g>
        <g id="Graphic_1408">
          <path d="M 219.70388 150.47571 C 219.9807 151.85976 219.28866 152.8286 218.04302 152.8286 C 215.55173 152.8286 214.02927 150.61412 215.1365 148.53804 C 216.38216 146.60037 219.15026 147.7076 219.70388 150.47571 Z" fill="#ff0000"/>
        </g>
        <g id="Graphic_1407">
          <path d="M 278.52606 148.12282 C 280.0485 149.64528 275.34274 156.98075 272.98985 156.98075 C 270.91378 156.98075 270.91378 156.84235 272.98985 154.48946 C 274.3739 153.1054 275.34274 150.89093 275.34274 149.64528 C 275.34274 147.2924 276.8652 146.60037 278.52606 148.12282 Z" fill="#ff0000"/>
        </g>
        <g id="Graphic_1406">
          <path d="M 187.8707 150.3373 C 188.56273 151.30614 189.39316 153.38222 189.66997 154.90467 C 189.94678 156.42713 191.60764 158.2264 193.4069 159.05683 C 196.59022 160.44088 197.42066 163.07058 195.20617 164.45463 C 194.51415 164.86984 191.88445 162.79377 189.39316 159.74885 C 184.27217 153.65903 181.78088 152.967 177.62872 156.70394 C 176.24467 157.94959 173.47657 158.91842 171.6773 158.64161 L 168.49398 158.088 L 172.23092 156.15032 C 174.307 155.04308 176.65989 154.21265 177.62872 154.21265 C 178.45915 154.21265 179.9816 152.967 180.95045 151.44455 C 182.88812 148.26123 185.79463 147.84601 187.8707 150.3373 Z" fill="#ff0000"/>
        </g>
        <g id="Graphic_1405">
          <path d="M 249.04577 153.38222 C 247.1081 155.31989 245.72404 153.38222 246.83128 150.47571 C 247.66172 148.39963 247.93853 148.39963 249.04577 150.0605 C 249.8762 151.30614 249.7378 152.6902 249.04577 153.38222 Z" fill="#ff0000"/>
        </g>
        <g id="Graphic_1404">
          <path d="M 233.12918 151.44455 C 233.5444 152.13657 232.71396 152.8286 231.1915 152.8286 C 229.53064 152.8286 228.285 152.13657 228.285 151.44455 C 228.285 150.61412 229.11543 150.0605 230.22267 150.0605 C 231.3299 150.0605 232.71396 150.61412 233.12918 151.44455 Z" fill="#ff0000"/>
        </g>
        <g id="Graphic_1403">
          <path d="M 257.07326 152.6902 C 257.48848 153.79743 256.93486 154.35105 255.82762 153.93584 C 254.85878 153.65903 253.75154 152.55179 253.47473 151.58295 C 253.0595 150.47571 253.61314 149.92209 254.72038 150.3373 C 255.6892 150.61412 256.79645 151.72136 257.07326 152.6902 Z" fill="#ff0000"/>
        </g>
        <g id="Graphic_1402">
          <path d="M 269.2529 151.58295 C 270.49856 153.79743 267.86886 155.87351 265.10076 154.76627 C 263.3015 154.07424 263.1631 153.52062 264.40873 151.99817 C 266.3464 149.64528 267.86886 149.50687 269.2529 151.58295 Z" fill="#ff0000"/>
        </g>
        <g id="Graphic_1401">
          <path d="M 215.82854 155.5967 C 215.82854 156.28873 215.55173 156.98075 215.27492 156.98075 C 214.8597 156.98075 214.16768 156.28873 213.75246 155.5967 C 213.33724 154.76627 213.61405 154.21265 214.30608 154.21265 C 215.1365 154.21265 215.82854 154.76627 215.82854 155.5967 Z" fill="#ff0000"/>
        </g>
        <g id="Graphic_1400">
          <path d="M 224.68646 156.28873 C 224.13284 157.39597 223.57922 158.3648 223.30241 158.3648 C 223.0256 158.3648 222.7488 157.39597 222.7488 156.28873 C 222.7488 155.18148 223.30241 154.21265 224.13284 154.21265 C 224.82487 154.21265 225.10168 155.18148 224.68646 156.28873 Z" fill="#ff0000"/>
        </g>
        <g id="Graphic_1399">
          <path d="M 204.3409 157.81118 C 204.47932 158.5032 204.0641 160.02566 203.37208 161.1329 C 201.71121 163.901 198.5279 160.8561 199.77354 157.67278 C 200.60397 155.31989 203.51048 155.4583 204.3409 157.81118 Z" fill="#ff0000"/>
        </g>
        <g id="Graphic_1398">
          <path d="M 256.38124 161.27131 C 255.1356 166.11549 253.19792 165.56187 253.19792 160.30247 C 253.19792 156.15032 253.47473 155.5967 255.1356 156.84235 C 256.24283 157.81118 256.79645 159.74885 256.38124 161.27131 Z" fill="#ff0000"/>
        </g>
        <g id="Graphic_1397">
          <path d="M 234.92844 159.61045 C 235.34366 160.71769 234.79004 161.27131 233.6828 160.8561 C 232.71396 160.57928 231.60672 159.47204 231.3299 158.5032 C 230.9147 157.39597 231.46832 156.84235 232.57556 157.25756 C 233.5444 157.53437 234.65163 158.64161 234.92844 159.61045 Z" fill="#ff0000"/>
        </g>
        <g id="Graphic_1396">
          <path d="M 184.68738 160.8561 C 184.68738 163.34739 181.91928 162.93217 181.50407 160.30247 C 181.08885 158.91842 181.64247 158.2264 182.88812 158.64161 C 183.85695 159.05683 184.68738 160.02566 184.68738 160.8561 Z" fill="#ff0000"/>
        </g>
        <g id="Graphic_1395">
          <path d="M 213.06043 160.30247 C 213.89087 161.40972 215.55173 161.96334 216.65897 161.54812 C 218.73504 160.71769 222.7488 163.34739 222.7488 165.56187 C 222.7488 166.3923 221.77996 166.5307 220.3959 165.83868 C 219.01185 165.28506 215.69013 164.73144 213.06043 164.73144 C 209.1851 164.59303 208.07785 164.03941 207.80104 161.40972 C 207.24742 157.94959 210.43074 157.25756 213.06043 160.30247 Z" fill="#ff0000"/>
        </g>
        <g id="Graphic_1394">
          <path d="M 250.42982 159.61045 C 250.42982 161.40972 246.41607 164.45463 245.30883 163.4858 C 244.34 162.37855 247.3849 158.3648 249.18417 158.3648 C 249.8762 158.3648 250.42982 158.91842 250.42982 159.61045 Z" fill="#ff0000"/>
        </g>
        <g id="Graphic_1393">
          <path d="M 265.23917 164.86984 C 263.7167 166.2539 261.64063 163.7626 262.47106 161.68653 C 263.1631 159.61045 263.4399 159.74885 264.54714 161.82493 C 265.37757 163.07058 265.51598 164.45463 265.23917 164.86984 Z" fill="#ff0000"/>
        </g>
        <g id="Graphic_1392">
          <path d="M 228.5618 164.59303 C 228.5618 165.28506 227.86978 166.11549 227.03935 166.3923 C 226.20892 166.6691 225.5169 165.83868 225.5169 164.59303 C 225.5169 163.34739 226.20892 162.51696 227.03935 162.79377 C 227.86978 163.07058 228.5618 163.901 228.5618 164.59303 Z" fill="#ff0000"/>
        </g>
        <g id="Graphic_1391">
          <path d="M 243.09435 166.2539 C 243.50956 167.22273 242.54073 167.49954 240.87986 167.08433 C 239.219 166.6691 238.38857 165.83868 238.8038 165.00825 C 239.77262 163.4858 242.40232 164.17782 243.09435 166.2539 Z" fill="#ff0000"/>
        </g>
        <g id="Graphic_1390">
          <path d="M 272.57464 165.83868 C 272.57464 168.05316 269.2529 171.09807 268.00727 169.99083 C 267.03843 169.022 269.94494 163.901 271.4674 163.901 C 272.15942 163.901 272.57464 164.73144 272.57464 165.83868 Z" fill="#ff0000"/>
        </g>
        <g id="Graphic_1389">
          <path d="M 188.28592 168.46838 C 186.48665 170.26764 184.68738 168.8836 186.07144 166.80751 C 186.48665 165.97708 187.5939 165.70027 188.42432 166.11549 C 189.25475 166.6691 189.25475 167.49954 188.28592 168.46838 Z" fill="#ff0000"/>
        </g>
        <g id="Graphic_1388">
          <path d="M 204.75613 168.19157 C 204.75613 169.71402 204.2025 170.54445 203.37208 170.12924 C 202.68005 169.71402 201.98802 168.32997 201.98802 167.22273 C 201.98802 166.11549 202.68005 165.28506 203.37208 165.28506 C 204.2025 165.28506 204.75613 166.5307 204.75613 168.19157 Z" fill="#ff0000"/>
        </g>
        <g id="Graphic_1387">
          <path d="M 250.84503 167.49954 C 250.2914 169.1604 251.53706 171.09807 254.72038 173.72777 C 259.01094 177.3263 259.14934 177.60311 256.38124 177.74152 C 254.44357 177.74152 253.19792 176.91109 253.19792 175.66544 C 253.19792 174.4198 252.09068 173.03575 250.84503 172.48212 C 247.93853 171.37488 247.2465 165.28506 249.8762 165.28506 C 250.98344 165.28506 251.39865 166.11549 250.84503 167.49954 Z" fill="#ff0000"/>
        </g>
        <g id="Graphic_1386">
          <path d="M 261.50223 168.74519 C 261.50223 169.85243 260.9486 170.82126 260.11818 170.82126 C 259.42615 170.82126 258.73412 169.85243 258.73412 168.74519 C 258.73412 167.63795 259.42615 166.6691 260.11818 166.6691 C 260.9486 166.6691 261.50223 167.63795 261.50223 168.74519 Z" fill="#ff0000"/>
        </g>
        <g id="Graphic_1385">
          <path d="M 200.05035 169.57562 C 200.46557 170.40605 200.18876 171.6517 199.21992 172.20531 C 198.25109 172.75894 197.97428 174.4198 198.5279 176.21906 C 199.08152 177.87992 198.8047 179.12557 197.97428 179.12557 C 197.14385 179.12557 196.45182 176.63428 196.45182 173.58937 C 196.45182 168.19157 198.11268 166.3923 200.05035 169.57562 Z" fill="#ff0000"/>
        </g>
        <g id="Graphic_1384">
          <path d="M 215.82854 170.95967 C 215.82854 172.48212 212.0916 172.62053 211.12276 170.95967 C 210.70755 170.40605 210.70755 169.43721 211.12276 169.022 C 212.23 167.91476 215.82854 169.43721 215.82854 170.95967 Z" fill="#ff0000"/>
        </g>
        <g id="Graphic_1383">
          <path d="M 225.5169 170.68286 C 225.5169 172.62053 223.0256 173.86618 221.22634 172.75894 C 220.1191 172.20531 220.2575 171.51329 221.50315 170.68286 C 223.99444 169.1604 225.5169 169.1604 225.5169 170.68286 Z" fill="#ff0000"/>
        </g>
        <g id="Graphic_1382">
          <path d="M 239.91103 175.66544 C 239.91103 178.98717 239.4958 182.30889 238.9422 182.7241 C 238.38857 183.27772 237.97336 180.50962 237.97336 176.63428 C 237.97336 172.62053 238.38857 169.43721 239.0806 169.43721 C 239.63422 169.43721 240.04943 172.20531 239.91103 175.66544 Z" fill="#ff0000"/>
        </g>
        <g id="Graphic_1381">
          <path d="M 183.99536 172.20531 C 183.99536 172.89734 183.02652 173.58937 181.91928 173.58937 C 180.81204 173.58937 179.8432 172.89734 179.8432 172.20531 C 179.8432 171.37488 180.81204 170.82126 181.91928 170.82126 C 183.02652 170.82126 183.99536 171.37488 183.99536 172.20531 Z" fill="#ff0000"/>
        </g>
        <g id="Graphic_1380">
          <path d="M 277.0036 175.25023 C 274.92752 177.3263 273.40507 175.80385 274.5123 172.75894 C 275.20433 170.95967 275.75796 170.68286 277.0036 171.9285 C 278.24925 173.17415 278.24925 174.00458 277.0036 175.25023 Z" fill="#ff0000"/>
        </g>
        <g id="Graphic_1379">
          <path d="M 192.29967 174.97342 C 192.29967 176.49587 191.33083 177.74152 190.2236 177.74152 C 189.11635 177.74152 188.14751 176.49587 188.14751 174.97342 C 188.14751 173.45096 189.11635 172.20531 190.2236 172.20531 C 191.33083 172.20531 192.29967 173.45096 192.29967 174.97342 Z" fill="#ff0000"/>
        </g>
        <g id="Graphic_1378">
          <path d="M 235.20525 175.25023 C 235.20525 176.08066 234.23642 176.21906 232.99077 175.80385 C 231.74513 175.38863 230.22267 174.97342 229.53064 174.97342 C 228.7002 174.97342 228.4234 174.4198 228.83862 173.72777 C 229.94586 172.0669 235.20525 173.45096 235.20525 175.25023 Z" fill="#ff0000"/>
        </g>
        <g id="Graphic_1377">
          <path d="M 244.8936 175.80385 C 244.8936 177.74152 243.23275 178.43355 241.7103 176.91109 C 240.46465 175.66544 242.26392 172.0669 243.64797 173.03575 C 244.34 173.45096 244.8936 174.6966 244.8936 175.80385 Z" fill="#ff0000"/>
        </g>
        <g id="Graphic_1376">
          <path d="M 207.52423 174.97342 C 207.52423 175.66544 206.9706 176.35747 206.14018 176.35747 C 205.44815 176.35747 204.75613 175.66544 204.75613 174.97342 C 204.75613 174.14299 205.44815 173.58937 206.14018 173.58937 C 206.9706 173.58937 207.52423 174.14299 207.52423 174.97342 Z" fill="#ff0000"/>
        </g>
        <g id="Graphic_1375">
          <path d="M 249.8762 180.0944 C 248.49215 181.47846 247.2465 179.40238 248.49215 177.60311 C 249.32258 176.08066 249.5994 176.08066 250.153 177.60311 C 250.42982 178.57195 250.2914 179.6792 249.8762 180.0944 Z" fill="#ff0000"/>
        </g>
        <g id="Graphic_1374">
          <path d="M 182.05769 182.8625 C 180.67364 184.24656 179.428 182.17048 180.67364 180.37122 C 181.50407 178.84876 181.78088 178.84876 182.3345 180.37122 C 182.6113 181.34005 182.4729 182.4473 182.05769 182.8625 Z" fill="#ff0000"/>
        </g>
        <g id="Graphic_1373">
          <path d="M 267.03843 180.50962 C 267.03843 181.20165 266.4848 181.89367 265.65438 181.89367 C 264.96236 181.89367 264.27033 181.20165 264.27033 180.50962 C 264.27033 179.6792 264.96236 179.12557 265.65438 179.12557 C 266.4848 179.12557 267.03843 179.6792 267.03843 180.50962 Z" fill="#ff0000"/>
        </g>
        <g id="Graphic_1372">
          <path d="M 188.14751 181.89367 C 188.14751 182.5857 187.5939 183.27772 186.76346 183.27772 C 186.07144 183.27772 185.3794 182.5857 185.3794 181.89367 C 185.3794 181.06324 186.07144 180.50962 186.76346 180.50962 C 187.5939 180.50962 188.14751 181.06324 188.14751 181.89367 Z" fill="#ff0000"/>
        </g>
        <g id="Graphic_1371">
          <path d="M 258.4573 183.69294 C 259.14934 187.01466 256.38124 186.59945 255.5508 183.13932 C 255.1356 181.34005 255.4124 180.50962 256.38124 180.92484 C 257.35007 181.20165 258.1805 182.4473 258.4573 183.69294 Z" fill="#ff0000"/>
        </g>
        <g id="Graphic_1370">
          <path d="M 276.7268 181.06324 C 276.7268 181.47846 276.17317 182.17048 275.34274 182.5857 C 274.6507 183.00091 273.9587 182.7241 273.9587 182.03208 C 273.9587 181.20165 274.6507 180.50962 275.34274 180.50962 C 276.17317 180.50962 276.7268 180.78643 276.7268 181.06324 Z" fill="#ff0000"/>
        </g>
        <g id="Graphic_1369">
          <path d="M 253.75154 184.80018 C 253.33633 185.4922 252.3675 185.76902 251.67546 185.2154 C 250.98344 184.80018 250.70663 183.83135 251.26025 183.13932 C 251.67546 182.4473 252.6443 182.17048 253.33633 182.7241 C 254.02835 183.13932 254.30516 184.10816 253.75154 184.80018 Z" fill="#ff0000"/>
        </g>
        <g id="Graphic_1368">
          <path d="M 195.06777 187.29147 C 195.06777 188.53712 194.09893 188.81393 192.02286 188.2603 C 190.2236 187.8451 188.28592 187.42988 187.7323 187.42988 C 187.04027 187.42988 186.90187 186.87626 187.31708 186.18423 C 188.56273 184.24656 195.06777 185.077 195.06777 187.29147 Z" fill="#ff0000"/>
        </g>
        <g id="Graphic_1367">
          <path d="M 244.6168 186.59945 C 244.34 186.59945 242.67913 187.9835 240.87986 189.50596 C 238.8038 191.16682 237.97336 191.44363 238.66538 190.19798 C 240.74146 186.59945 242.81754 184.93859 243.92478 185.63061 C 244.6168 186.04583 244.8936 186.46104 244.6168 186.59945 Z" fill="#ff0000"/>
        </g>
        <g id="Graphic_1366">
          <path d="M 265.10076 189.78277 C 263.7167 191.16682 262.47106 189.09074 263.7167 187.29147 C 264.54714 185.76902 264.82395 185.76902 265.37757 187.29147 C 265.65438 188.2603 265.51598 189.36755 265.10076 189.78277 Z" fill="#ff0000"/>
        </g>
        <g id="Graphic_1365">
          <path d="M 270.63697 192.27406 C 269.66813 194.76535 267.03843 195.04216 267.03843 192.55087 C 267.03843 190.05958 270.36016 186.87626 270.91378 188.81393 C 271.1906 189.64436 271.05218 191.16682 270.63697 192.27406 Z" fill="#ff0000"/>
        </g>
        <g id="Graphic_1364">
          <path d="M 259.28775 195.31897 C 259.84137 196.56462 259.42615 198.22548 258.59572 199.0559 C 257.35007 200.16315 257.21167 200.16315 257.9037 198.7791 C 258.4573 197.81026 258.1805 196.1494 257.35007 195.04216 C 256.38124 193.79651 256.24283 192.96608 257.07326 192.96608 C 257.7653 192.96608 258.87253 194.07332 259.28775 195.31897 Z" fill="#ff0000"/>
        </g>
        <g id="Graphic_1363">
          <path d="M 234.098 198.7791 C 232.02194 200.85518 230.7763 199.60953 231.88353 196.56462 C 232.57556 194.90375 233.26758 194.62694 234.23642 195.59578 C 235.34366 196.70302 235.34366 197.53345 234.098 198.7791 Z" fill="#ff0000"/>
        </g>
        <g id="Graphic_1362">
          <path d="M 240.74146 197.11824 C 240.74146 197.81026 240.04943 198.50229 239.219 198.50229 C 238.52698 198.50229 238.25017 197.81026 238.66538 197.11824 C 239.0806 196.2878 239.77262 195.73419 240.18784 195.73419 C 240.46465 195.73419 240.74146 196.2878 240.74146 197.11824 Z" fill="#ff0000"/>
        </g>
        <g id="Graphic_1361">
          <path d="M 250.42982 200.02474 C 250.42982 200.85518 249.8762 200.99358 249.04577 200.57836 C 248.35374 200.16315 247.66172 199.0559 247.66172 198.36388 C 247.66172 197.53345 248.35374 197.39505 249.04577 197.81026 C 249.8762 198.22548 250.42982 199.33272 250.42982 200.02474 Z" fill="#ff0000"/>
        </g>
        <g id="Graphic_1360">
          <path d="M 270.91378 200.71677 C 269.52972 202.10082 267.73046 202.65444 265.7928 201.96242 C 261.77904 200.71677 262.05585 198.22548 266.208 199.33272 C 268.00727 199.74793 269.94494 199.47112 270.49856 198.50229 C 271.05218 197.67186 271.8826 197.25664 272.29783 197.81026 C 272.71304 198.22548 272.15942 199.60953 270.91378 200.71677 Z" fill="#ff0000"/>
        </g>
        <g id="Graphic_1359">
          <path d="M 245.86245 202.93125 C 245.44723 204.0385 245.03202 203.62328 245.03202 202.10082 C 244.8936 200.57836 245.30883 199.74793 245.72404 200.30155 C 246.13926 200.71677 246.27766 201.96242 245.86245 202.93125 Z" fill="#ff0000"/>
        </g>
        <g id="Graphic_1358">
          <path d="M 242.1255 204.3153 C 242.1255 205.14573 241.7103 205.42254 241.15667 205.00733 C 240.74146 204.4537 239.4958 204.73052 238.38857 205.56095 C 237.00452 206.8066 236.5893 206.6682 236.5893 204.86892 C 236.5893 203.62328 237.69655 202.65444 239.3574 202.65444 C 240.87986 202.65444 242.1255 203.34647 242.1255 204.3153 Z" fill="#ff0000"/>
        </g>
        <g id="Graphic_1357">
          <path d="M 268.42248 206.945 C 268.42248 209.2979 265.7928 209.5747 263.7167 207.36022 C 260.8102 204.4537 260.9486 204.3153 264.96236 205.14573 C 266.90003 205.42254 268.42248 206.25297 268.42248 206.945 Z" fill="#ff0000"/>
        </g>
        <g id="Graphic_1356">
          <path d="M 233.12918 208.05224 C 233.5444 208.74427 233.26758 209.7131 232.43715 210.26672 C 231.74513 210.68194 231.0531 210.12832 231.0531 209.02108 C 231.0531 206.52979 231.88353 206.11457 233.12918 208.05224 Z" fill="#ff0000"/>
        </g>
        <g id="Graphic_1355">
          <path d="M 257.21167 212.89642 C 255.96602 214.00366 255.82762 213.86526 256.51964 211.92758 C 256.93486 210.54353 257.48848 208.60586 257.48848 207.77543 C 257.62688 206.8066 257.9037 207.2218 258.3189 208.74427 C 258.73412 210.12832 258.1805 211.92758 257.21167 212.89642 Z" fill="#ff0000"/>
        </g>
        <g id="Graphic_1354">
          <path d="M 253.19792 209.5747 C 253.19792 210.26672 252.6443 210.95875 251.95227 210.95875 C 251.12184 210.95875 250.153 210.26672 249.7378 209.5747 C 249.32258 208.74427 249.8762 208.19065 250.98344 208.19065 C 252.22908 208.19065 253.19792 208.74427 253.19792 209.5747 Z" fill="#ff0000"/>
        </g>
        <g id="Graphic_1353">
          <path d="M 246.9697 212.3428 C 247.3849 213.03483 246.83128 213.72685 245.72404 213.72685 C 244.4784 213.72685 243.50956 213.03483 243.50956 212.3428 C 243.50956 211.51237 244.06318 210.95875 244.7552 210.95875 C 245.58564 210.95875 246.55447 211.51237 246.9697 212.3428 Z" fill="#ff0000"/>
        </g>
        <g id="Graphic_1352">
          <path d="M 267.03843 213.72685 C 267.03843 214.41888 266.3464 215.1109 265.51598 215.1109 C 264.82395 215.1109 264.54714 214.41888 264.96236 213.72685 C 265.37757 212.89642 266.0696 212.3428 266.4848 212.3428 C 266.76162 212.3428 267.03843 212.89642 267.03843 213.72685 Z" fill="#ff0000"/>
        </g>
        <g id="Graphic_1351">
          <path d="M 239.77262 217.18698 C 239.219 219.26306 234.79004 218.84784 234.098 216.77176 C 233.6828 215.52612 234.51323 214.9725 236.7277 215.38771 C 238.52698 215.52612 239.91103 216.35655 239.77262 217.18698 Z" fill="#ff0000"/>
        </g>
        <g id="Graphic_1350">
          <path d="M 249.46098 217.04857 C 250.0146 218.43263 249.5994 218.84784 248.35374 218.29422 C 247.2465 217.879 246.69288 217.04857 247.1081 216.35655 C 248.07693 214.6957 248.63055 214.8341 249.46098 217.04857 Z" fill="#ff0000"/>
        </g>
        <g id="Graphic_1349">
          <path d="M 260.11818 217.879 C 260.11818 218.57103 259.56456 219.26306 258.73412 219.26306 C 258.0421 219.26306 257.35007 218.57103 257.35007 217.879 C 257.35007 217.04857 258.0421 216.49495 258.73412 216.49495 C 259.56456 216.49495 260.11818 217.04857 260.11818 217.879 Z" fill="#ff0000"/>
        </g>
        <g id="Graphic_1348">
          <path d="M 254.58197 219.26306 C 254.58197 219.95508 253.88995 220.6471 253.0595 220.6471 C 252.3675 220.6471 252.09068 219.95508 252.5059 219.26306 C 252.9211 218.43263 253.61314 217.879 254.02835 217.879 C 254.30516 217.879 254.58197 218.43263 254.58197 219.26306 Z" fill="#ff0000"/>
        </g>
        <g id="Graphic_1347">
          <path d="M 244.06318 223.83043 C 243.09435 226.46012 241.29508 226.87534 240.04943 224.79926 C 238.8038 222.72318 242.26392 218.84784 243.78637 220.3703 C 244.4784 221.06232 244.6168 222.58478 244.06318 223.83043 Z" fill="#ff0000"/>
        </g>
        <g id="Graphic_1346">
          <path d="M 265.65438 220.5087 C 265.65438 221.20073 264.68555 222.44637 263.5783 223.4152 C 261.36382 225.35288 261.087 224.79926 262.33266 221.47754 C 263.1631 219.12465 265.65438 218.43263 265.65438 220.5087 Z" fill="#ff0000"/>
        </g>
        <g id="Graphic_1345">
          <path d="M 225.24009 222.16956 L 228.97702 222.30797 L 224.82487 223.55362 C 221.64155 224.38405 220.2575 224.24564 218.59664 222.44637 C 216.79737 220.5087 216.79737 220.3703 219.01185 221.20073 C 220.3959 221.61594 223.30241 222.03116 225.24009 222.16956 Z" fill="#ff0000"/>
        </g>
        <g id="Graphic_1344">
          <path d="M 236.5893 224.79926 C 236.5893 227.15215 232.85237 229.78185 231.3299 228.2594 C 230.22267 227.15215 234.098 220.6471 235.48206 221.47754 C 236.03568 221.89275 236.5893 223.2768 236.5893 224.79926 Z" fill="#ff0000"/>
        </g>
        <g id="Graphic_1343">
          <path d="M 251.81387 223.2768 C 251.81387 224.10724 251.26025 225.07607 250.42982 225.4913 C 249.7378 225.9065 249.04577 225.35288 249.04577 224.24564 C 249.04577 223 249.7378 222.03116 250.42982 222.03116 C 251.26025 222.03116 251.81387 222.58478 251.81387 223.2768 Z" fill="#ff0000"/>
        </g>
        <g id="Graphic_1342">
          <path d="M 255.96602 226.1833 C 255.96602 226.87534 255.4124 227.56736 254.58197 227.56736 C 253.88995 227.56736 253.19792 226.87534 253.19792 226.1833 C 253.19792 225.35288 253.88995 224.79926 254.58197 224.79926 C 255.4124 224.79926 255.96602 225.35288 255.96602 226.1833 Z" fill="#ff0000"/>
        </g>
        <g id="Graphic_1341">
          <path d="M 261.50223 229.64344 C 260.5334 230.75068 259.28775 231.71952 258.59572 231.71952 C 257.9037 231.71952 257.7653 230.75068 258.1805 229.64344 C 258.73412 228.5362 259.97977 227.56736 261.087 227.56736 C 262.88628 227.56736 262.88628 227.98258 261.50223 229.64344 Z" fill="#ff0000"/>
        </g>
        <g id="Graphic_1340">
          <path d="M 247.66172 229.92025 C 247.66172 230.61228 246.9697 231.99633 246.27766 233.10357 C 245.17042 234.76443 244.8936 234.62603 244.8936 231.99633 C 244.8936 230.33547 245.58564 228.95142 246.27766 228.95142 C 247.1081 228.95142 247.66172 229.36663 247.66172 229.92025 Z" fill="#ff0000"/>
        </g>
        <g id="Graphic_1339">
          <path d="M 242.1255 231.71952 C 242.1255 232.41154 241.15667 233.10357 240.04943 233.10357 C 238.9422 233.10357 237.97336 232.41154 237.97336 231.71952 C 237.97336 230.8891 238.9422 230.33547 240.04943 230.33547 C 241.15667 230.33547 242.1255 230.8891 242.1255 231.71952 Z" fill="#ff0000"/>
        </g>
        <g id="Graphic_1338">
          <path d="M 214.9981 233.38038 C 212.78362 237.25572 211.26117 238.50137 210.01552 237.67094 C 209.1851 237.25572 209.87712 235.73327 211.8148 234.34921 C 215.82854 231.3043 216.38216 231.1659 214.9981 233.38038 Z" fill="#ff0000"/>
        </g>
        <g id="Graphic_1337">
          <path d="M 249.04577 242.2383 C 249.04577 243.48395 248.35374 244.17598 247.3849 243.89917 C 244.8936 243.06874 244.4784 240.02382 246.83128 240.02382 C 248.07693 240.02382 249.04577 240.99266 249.04577 242.2383 Z" fill="#ff0000"/>
        </g>
        <g id="Graphic_1336">
          <path d="M 240.18784 246.39046 C 239.0806 250.5426 235.34366 256.63244 233.9596 256.63244 C 231.60672 256.63244 231.3299 254.69477 233.406 251.64986 C 234.79004 249.43537 234.92844 248.32813 233.9596 248.32813 C 232.71396 248.32813 232.71396 247.6361 233.8212 245.56003 C 234.65163 244.03757 236.5893 242.79193 238.11176 242.79193 C 240.60305 242.79193 240.87986 243.34555 240.18784 246.39046 Z" fill="#ff0000"/>
        </g>
        <g id="Graphic_1335">
          <path d="M 248.35374 248.32813 C 248.76896 249.02016 248.49215 249.71218 247.80012 249.71218 C 246.9697 249.71218 246.27766 249.02016 246.27766 248.32813 C 246.27766 247.4977 246.55447 246.94408 246.83128 246.94408 C 247.2465 246.94408 247.93853 247.4977 248.35374 248.32813 Z" fill="#ff0000"/>
        </g>
        <g id="Graphic_1334">
          <path d="M 238.38857 266.4592 C 234.92844 272.27222 232.71396 274.0715 230.9147 272.27222 C 229.80745 271.16498 230.7763 270.05774 233.6828 268.25847 C 236.03568 266.87442 237.97336 264.93675 237.97336 263.9679 C 237.97336 262.99908 238.66538 262.16864 239.4958 262.16864 C 240.18784 262.16864 239.77262 264.10632 238.38857 266.4592 Z" fill="#ff0000"/>
        </g>
        <g id="Graphic_1333">
          <path d="M 233.8212 279.4693 C 230.08426 283.34463 228.285 283.89825 228.285 280.85334 C 228.285 279.7461 229.53064 278.77726 230.9147 278.77726 C 232.43715 278.77726 234.098 278.08523 234.51323 277.3932 C 234.92844 276.56278 235.75887 276.00916 236.1741 276.00916 C 236.7277 276.00916 235.62047 277.5316 233.8212 279.4693 Z" fill="#ff0000"/>
        </g>
        <g id="Graphic_1332">
          <path d="M 145.24192 298.846 C 143.30425 301.1989 138.87529 301.6141 137.62964 299.67643 C 136.93762 298.29238 139.70572 297.18514 144.4115 296.90833 C 146.48757 296.76993 146.62598 297.18514 145.24192 298.846 Z" fill="#ff0000"/>
        </g>
        <g id="Graphic_1331">
          <path d="M 148.01003 301.6141 C 148.01003 304.3822 124.75797 309.9184 122.54348 307.70393 C 121.71305 307.0119 119.36017 306.4583 117.28409 306.4583 C 114.9312 306.4583 113.40875 305.76626 113.40875 304.5206 C 113.40875 302.44454 115.06961 302.44454 127.24926 304.3822 C 131.53982 304.93583 135.27676 304.659 139.0137 303.13656 C 144.82671 301.0605 148.01003 300.50686 148.01003 301.6141 Z" fill="#ff0000"/>
        </g>
        <g id="Graphic_1330">
          <path d="M 175.69105 79.47388 C 175.69105 80.16591 176.65989 80.85793 177.90553 80.85793 C 179.01277 80.85793 179.5664 80.16591 179.15118 79.47388 C 178.73596 78.64345 177.76713 78.08983 176.9367 78.08983 C 176.24467 78.08983 175.69105 78.64345 175.69105 79.47388 Z" fill="#cccccc"/>
        </g>
        <g id="Graphic_1329">
          <path d="M 143.85787 83.34923 C 143.85787 84.04125 144.82671 85.4253 145.93395 86.39414 C 147.59481 87.77819 148.84046 87.77819 151.74696 86.53254 C 153.68464 85.70211 155.06869 84.73328 154.79188 84.45647 C 153.26942 83.21082 143.85787 82.24198 143.85787 83.34923 Z" fill="#cccccc"/>
        </g>
        <g id="Graphic_1328">
          <path d="M 164.61864 83.62604 C 163.5114 84.45647 161.15851 85.01009 159.35925 85.01009 C 157.55998 85.01009 156.59114 85.56371 157.00636 86.39414 C 158.252 88.33181 162.26575 88.055 165.44907 85.84052 C 168.49398 83.62604 167.66355 81.68836 164.61864 83.62604 Z" fill="#cccccc"/>
        </g>
        <g id="Graphic_1327">
          <path d="M 139.70572 89.16224 C 139.70572 91.23832 140.67455 91.93034 143.16585 91.93034 C 147.1796 91.93034 147.59481 90.8231 144.27309 88.33181 C 140.81296 85.70211 139.70572 85.97892 139.70572 89.16224 Z" fill="#cccccc"/>
        </g>
        <g id="Graphic_1326">
          <path d="M 151.05494 91.79194 C 151.60856 93.5912 153.54623 94.00642 153.68464 92.34556 C 153.68464 91.79194 152.99261 91.09991 152.16218 90.6847 C 151.19334 90.40789 150.63972 90.96151 151.05494 91.79194 Z" fill="#cccccc"/>
        </g>
        <g id="Graphic_1325">
          <path d="M 92.09436 139.68011 C 87.52699 145.63153 87.66539 151.44455 92.37117 153.52062 C 94.03203 154.21265 95.41608 155.87351 95.41608 156.98075 C 95.41608 158.088 96.38492 160.8561 97.49216 162.93217 C 99.42983 166.6691 99.29142 166.94592 96.66173 167.63795 C 92.50957 168.74519 94.03203 172.62053 99.29142 173.72777 C 101.78272 174.2814 105.10444 175.80385 106.6269 177.1879 C 110.08702 180.37122 116.86887 180.23281 123.92754 176.77268 C 127.52607 174.97342 131.1246 174.2814 134.86154 174.5582 C 139.2905 175.11182 140.95137 174.5582 143.02744 172.34372 C 145.65714 169.43721 145.65714 169.43721 141.64339 170.26764 C 138.46007 170.82126 136.10719 169.99083 130.70939 166.11549 C 126.83404 163.34739 122.54348 160.57928 121.02103 159.88726 C 119.36017 159.19523 117.4225 157.67278 116.45366 156.56554 C 115.48482 155.4583 112.85513 153.79743 110.64064 152.8286 C 102.61315 149.50687 106.9037 145.35472 118.39133 145.63153 C 121.57465 145.63153 125.44999 146.32356 126.97245 147.15399 C 128.63331 147.98442 130.70939 148.67644 131.81663 148.67644 C 135.27676 148.67644 148.01003 161.27131 148.01003 164.86984 C 148.01003 166.5307 148.70205 168.05316 149.39408 168.05316 C 150.2245 168.05316 150.77813 167.36114 150.77813 166.6691 C 150.77813 165.83868 151.47015 165.28506 152.16218 165.28506 C 154.23826 165.28506 153.82304 167.63795 151.33175 170.12924 C 150.0861 171.37488 149.53248 172.75894 149.9477 173.31256 C 151.19334 174.4198 156.17593 168.19157 156.31433 165.56187 C 156.31433 164.45463 155.06869 163.34739 153.54623 162.93217 C 151.88537 162.51696 149.8093 160.16407 148.70205 157.81118 C 144.4115 148.81485 140.81296 144.6627 136.6608 144.52429 C 135.27676 144.52429 134.16951 143.83226 134.16951 143.14024 C 134.16951 142.3098 133.20068 141.75619 132.09344 141.75619 C 130.9862 141.75619 130.01736 141.06416 130.01736 140.23373 C 130.01736 139.2649 128.63331 138.98809 126.55723 139.5417 C 124.48116 140.09533 123.0971 139.81852 123.0971 138.98809 C 123.0971 138.01925 122.26667 137.88084 120.4674 138.98809 C 118.66814 139.81852 117.4225 139.95692 116.86887 138.98809 C 116.45366 138.15765 114.7928 138.15765 112.85513 138.98809 C 111.05586 139.68011 109.25659 139.81852 108.84138 139.5417 C 108.42616 139.12649 106.6269 139.81852 104.82763 140.92576 C 102.88996 142.1714 100.95228 142.72502 100.53707 142.3098 C 99.98345 141.75619 98.7378 142.1714 97.63056 143.00183 C 94.72405 145.49313 93.2016 142.1714 95.9697 139.12649 C 98.46099 136.35839 98.7378 134.83593 96.93854 134.83593 C 96.24651 134.83593 94.03203 137.05041 92.09436 139.68011 Z" fill="#cccccc"/>
        </g>
        <g id="Graphic_1324">
          <path d="M 112.1631 158.5032 C 117.6993 162.37855 117.14568 164.73144 111.47107 161.27131 C 108.97978 159.61045 105.79646 158.3648 104.55082 158.3648 C 103.16677 158.3648 102.61315 157.67278 103.02836 156.98075 C 104.41241 154.76627 107.73414 155.31989 112.1631 158.5032 Z" fill="#ff0000"/>
        </g>
        <g id="Graphic_1323">
          <path d="M 108.84138 167.49954 C 108.42616 172.34372 112.3015 174.97342 116.31525 172.48212 C 119.63698 170.40605 121.02103 171.09807 119.91379 174.2814 C 118.66814 177.4647 109.94862 177.0495 106.48849 173.58937 C 102.75155 169.85243 102.75155 163.901 106.35008 163.901 C 108.42616 163.901 108.97978 164.73144 108.84138 167.49954 Z" fill="#ff0000"/>
        </g>
        <g id="Graphic_1322">
          <path d="M 93.61681 175.94225 C 93.34 176.49587 94.44724 180.0944 96.1081 183.96975 C 98.7378 189.78277 100.26026 191.30522 105.65806 193.6581 C 109.67181 195.45738 112.0247 197.25664 112.0247 198.7791 C 112.0247 201.4088 117.5609 203.48487 121.02103 202.10082 C 122.12827 201.6856 123.0971 200.02474 123.0971 198.50229 C 123.0971 196.2878 122.12827 195.73419 118.94495 195.73419 C 116.73047 195.73419 114.7928 195.04216 114.7928 194.35013 C 114.7928 193.5197 113.96237 192.96608 112.85513 192.96608 C 108.70297 192.96608 103.30517 188.81393 100.95228 183.69294 C 98.46099 178.15673 94.72405 174.14299 93.61681 175.94225 Z" fill="#cccccc"/>
        </g>
        <g id="Graphic_1321">
          <path d="M 116.86887 181.75527 C 111.60948 182.5857 111.60948 182.7241 115.06961 183.69294 C 118.94495 184.80018 123.0971 183.83135 123.0971 181.75527 C 123.0971 181.06324 122.9587 180.64803 122.8203 180.64803 C 122.54348 180.78643 119.91379 181.34005 116.86887 181.75527 Z" fill="#cccccc"/>
        </g>
        <g id="Graphic_1320">
          <path d="M 215.1365 183.55453 C 209.4619 186.59945 204.75613 192.13565 204.75613 195.73419 C 204.75613 197.67186 203.51048 200.30155 201.84962 201.6856 C 200.05035 203.34647 199.35833 205.00733 199.91195 206.945 C 200.46557 208.46746 200.05035 210.68194 199.08152 211.78918 C 197.83587 213.31164 197.83587 214.28047 198.9431 215.38771 C 199.91195 216.35655 200.60397 217.879 200.60397 218.98625 C 200.60397 220.5087 200.18876 220.6471 198.6663 219.40146 C 197.00544 218.0174 196.31341 218.29422 195.20617 220.2319 C 193.2685 223.96883 195.48298 227.29055 198.3895 224.93767 C 199.91195 223.55362 201.1576 223.55362 203.51048 224.79926 C 206.00177 226.1833 207.10901 226.0449 210.01552 223.83043 C 213.89087 220.92392 217.07418 210.68194 214.44449 209.8515 C 213.75246 209.5747 213.47565 207.91384 213.89087 206.11457 C 214.44449 204.1769 213.75246 201.5472 212.50681 199.60953 C 209.4619 195.31897 209.7387 194.35013 213.75246 194.35013 C 216.65897 194.35013 217.2126 193.79651 216.93578 191.16682 C 216.65897 189.50596 217.2126 188.1219 217.90461 188.1219 C 219.42707 188.1219 219.56548 200.16315 218.04302 205.42254 C 217.07418 208.60586 217.07418 208.74427 219.15026 206.39138 C 220.2575 205.00733 221.91836 199.47112 222.7488 194.07332 C 224.13284 186.04583 224.13284 184.10816 222.6104 183.13932 C 220.1191 181.61686 218.45823 181.61686 215.1365 183.55453 Z" fill="#cccccc"/>
        </g>
        <g id="Graphic_1319">
          <path d="M 210.84595 220.7855 C 207.10901 224.93767 203.37208 224.24564 203.37208 219.40146 C 203.37208 215.80293 203.9257 215.2493 207.93944 214.8341 C 213.19884 214.28047 214.44449 216.77176 210.84595 220.7855 Z" fill="#ff0000"/>
        </g>
        <g id="Graphic_1318">
          <path d="M 183.30333 285.83592 C 182.74971 286.66635 179.8432 289.15764 176.7983 291.37213 C 173.61497 293.5866 171.5389 295.38587 172.09252 295.38587 C 173.89178 295.38587 183.85695 287.912 184.54898 285.97433 C 185.3794 283.89825 184.54898 283.75984 183.30333 285.83592 Z" fill="#cccccc"/>
        </g>
        <g id="Graphic_1317">
          <path d="M 142.47382 289.84967 C 142.47382 290.5417 143.71947 291.23372 145.24192 291.23372 C 146.76438 291.23372 148.01003 290.5417 148.01003 289.84967 C 148.01003 289.01924 146.76438 288.46562 145.24192 288.46562 C 143.71947 288.46562 142.47382 289.01924 142.47382 289.84967 Z" fill="#cccccc"/>
        </g>
        <g id="Graphic_1316">
          <path d="M 233.12918 298.7076 C 229.39224 302.44454 227.45457 304.79742 228.97702 303.967 C 232.16034 302.30613 241.5719 292.89458 240.60305 292.20256 C 240.32624 291.92575 237.00452 294.83225 233.12918 298.7076 Z" fill="#cccccc"/>
        </g>
        <g id="Graphic_1315">
          <path d="M 172.36933 300.78367 C 170.98528 302.30613 166.69472 304.79742 162.81937 306.5967 C 158.80563 308.25755 156.31433 309.9184 157.28317 310.19522 C 158.1136 310.47203 161.43532 309.3648 164.75705 307.56552 C 167.94036 305.76626 171.6773 303.8286 173.06135 302.99816 C 175.82946 301.6141 177.76713 298.15398 175.82946 298.15398 C 175.27584 298.15398 173.61497 299.39962 172.36933 300.78367 Z" fill="#cccccc"/>
        </g>
        <g id="Graphic_1314">
          <path d="M 233.26758 305.90466 C 226.34733 313.79376 227.45457 313.79376 235.20525 305.76626 C 238.52698 302.30613 240.74146 299.53803 240.04943 299.67643 C 239.219 299.67643 236.3125 302.58294 233.26758 305.90466 Z" fill="#cccccc"/>
        </g>
        <g id="Graphic_1313">
          <path d="M 200.05035 309.2264 C 197.14385 312.2713 195.34458 314.7626 196.0366 314.7626 C 197.69747 314.7626 206.8322 305.35104 206.00177 304.5206 C 205.58656 304.1054 202.95686 306.31988 200.05035 309.2264 Z" fill="#cccccc"/>
        </g>
        <g id="Graphic_1312">
          <path d="M 125.17318 314.7626 C 124.75797 315.4546 124.89637 316.14664 125.7268 316.14664 C 126.41883 316.14664 127.52607 315.4546 127.94128 314.7626 C 128.3565 313.93216 128.2181 313.37854 127.38766 313.37854 C 126.69564 313.37854 125.5884 313.93216 125.17318 314.7626 Z" fill="#cccccc"/>
        </g>
        <g id="Graphic_1311">
          <path d="M 198.5279 317.5307 C 196.31341 319.74518 193.54531 321.68285 192.43807 321.68285 C 190.91561 321.68285 191.05402 322.09806 192.9917 323.6205 C 195.48298 325.4198 195.34458 325.6966 190.91561 328.4647 C 188.28592 329.98715 184.9642 331.3712 183.71855 331.3712 C 180.95045 331.3712 179.28958 333.5857 181.22726 334.83133 C 182.74971 335.80017 189.80837 332.20164 194.23734 328.1879 C 195.7598 326.94224 197.42066 325.835 198.11268 325.835 C 198.6663 325.835 199.21992 325.2814 199.21992 324.45095 C 199.21992 323.75892 198.25109 323.4821 197.14385 323.89733 C 194.09893 325.14298 194.65255 322.6517 197.83587 320.714 C 200.18876 319.19156 204.3409 313.37854 202.95686 313.37854 C 202.68005 313.37854 200.74238 315.1778 198.5279 317.5307 Z" fill="#cccccc"/>
        </g>
        <g id="Graphic_1310">
          <path d="M 229.66905 316.14664 C 227.73138 317.5307 226.48573 319.05315 226.90095 319.32996 C 227.31616 319.74518 229.11543 318.91475 230.9147 317.3923 C 235.20525 313.93216 234.098 312.82492 229.66905 316.14664 Z" fill="#cccccc"/>
        </g>
        <g id="Graphic_1309">
          <path d="M 238.8038 317.11548 C 237.97336 319.05315 238.11176 319.19156 239.4958 317.9459 C 240.46465 316.97707 240.87986 315.86983 240.46465 315.4546 C 240.04943 315.0394 239.219 315.73143 238.8038 317.11548 Z" fill="#cccccc"/>
        </g>
        <g id="Graphic_1308">
          <path d="M 230.7763 324.17414 C 228.5618 325.5582 226.90095 326.94224 226.90095 327.49586 C 226.90095 329.57194 229.25383 328.6031 232.43715 325.14298 C 236.1741 321.12923 235.89728 321.12923 230.7763 324.17414 Z" fill="#cccccc"/>
        </g>
        <g id="Graphic_1307">
          <path d="M 231.60672 333.4473 C 229.25383 335.24655 229.25383 335.38495 231.3299 335.52336 C 232.57556 335.52336 234.098 334.83133 234.51323 334.0009 C 236.03568 331.648 234.51323 331.2328 231.60672 333.4473 Z" fill="#cccccc"/>
        </g>
        <g id="Graphic_1306">
          <path d="M 186.90187 336.3538 C 185.1026 337.59944 180.81204 339.3987 177.35191 340.22913 C 173.89178 341.19797 170.70847 342.72043 170.43166 343.55086 C 170.01644 344.7965 170.98528 345.0733 173.75338 344.3813 C 176.38308 343.68926 177.2135 343.82767 176.52148 345.0733 C 175.96786 345.90374 174.5838 346.59577 173.47657 346.59577 C 172.36933 346.59577 171.5389 347.1494 171.5389 347.97982 C 171.5389 350.6095 174.5838 349.36387 178.45915 345.2117 C 180.53523 342.85883 182.88812 341.05956 183.58014 341.05956 C 185.241 341.05956 193.2685 334.2777 191.60764 334.1393 C 190.7772 334.1393 188.70113 335.10814 186.90187 336.3538 Z" fill="#cccccc"/>
        </g>
      </g>
    </g>
  </g>
</svg>
