<?xml version="1.0" encoding="UTF-8" standalone="no"?>
<svg
   xmlns:dc="http://purl.org/dc/elements/1.1/"
   xmlns:cc="http://creativecommons.org/ns#"
   xmlns:rdf="http://www.w3.org/1999/02/22-rdf-syntax-ns#"
   xmlns:svg="http://www.w3.org/2000/svg"
   xmlns="http://www.w3.org/2000/svg"
   xmlns:sodipodi="http://sodipodi.sourceforge.net/DTD/sodipodi-0.dtd"
   xmlns:inkscape="http://www.inkscape.org/namespaces/inkscape"
   version="1.0"
   width="342.82468"
   height="452.7493"
   id="svg2"
   inkscape:version="0.92.2 5c3e80d, 2017-08-06"
   sodipodi:docname="skull.svg">
  <metadata
     id="metadata60">
    <rdf:RDF>
      <cc:Work
         rdf:about="">
        <dc:format>image/svg+xml</dc:format>
        <dc:type
           rdf:resource="http://purl.org/dc/dcmitype/StillImage" />
        <dc:title></dc:title>
        <dc:creator>
          <cc:Agent>
            <dc:title>https://commons.wikimedia.org/wiki/User:Poeticbent</dc:title>
          </cc:Agent>
        </dc:creator>
      </cc:Work>
    </rdf:RDF>
  </metadata>
  <defs
     id="defs58" />
  <sodipodi:namedview
     pagecolor="#ffffff"
     bordercolor="#666666"
     borderopacity="1"
     objecttolerance="10"
     gridtolerance="10"
     guidetolerance="10"
     inkscape:pageopacity="0"
     inkscape:pageshadow="2"
     inkscape:window-width="1440"
     inkscape:window-height="853"
     id="namedview56"
     showgrid="false"
     inkscape:zoom="2.2882421"
     inkscape:cx="171.41234"
     inkscape:cy="226.37465"
     inkscape:window-x="-4"
     inkscape:window-y="-4"
     inkscape:window-maximized="1"
     inkscape:current-layer="svg2"
     fit-margin-top="0"
     fit-margin-left="0"
     fit-margin-right="0"
     fit-margin-bottom="0"
     showborder="true"
     showguides="false"
     inkscape:pagecheckerboard="false" />
  <path
     d="m 44.506946,223.11229 c -19.136,-18.603 -32.51,-50.888 -34.366,-85.752 -2.0149996,-38.420006 18.218,-76.570105 48.537,-98.319205 33.969,-23.9094 90.766004,-30.5219993 126.082004,-28.7375 23.921,0.0166 77.206,12.4202 96.015,26.4277 32.994,23.9901 50.688,58.04 51.914,96.850005 1.813,38.983 -14.606,68.675 -34.711,87.206"
     style="fill:#ffff00;stroke:#808080;stroke-width:20;stroke-miterlimit:5;stroke-dasharray:none"
     id="path8"
     inkscape:connector-curvature="0" />
  <path
     d="m 46.408956,216.55129 c 0,0 -23.13,70.03 21.44,81.97 l 16.25,93.66 c 17.150004,73.72 154.400004,73.77 174.600004,0 l 16.25,-93.66 c 45.7,-12.2 22.5,-82 22.5,-82 z"
     style="fill:#ffff00;stroke-width:0.2;stroke-miterlimit:4;stroke-dasharray:none"
     id="path10"
     inkscape:connector-curvature="0" />
  <path
     d="m 45.670946,113.81829 c -7.752,6.782 -6.774,16.977 -5.378,32.192 1.102,11.56 8.478,22.939 8.866,33.5 2.712,22.285 -3.876,44.57 -6.977,62.786 -2.132,20.928 3.877,38.95 11.628,45.926 7.751,6.88 17.756,9.729 28.268,12.936 9.551,2.498 14.504,6.842 21.728004,12.228 8.606,9.137 10.659,16.694 10.465,25.996"
     style="fill:none;stroke:#808080;stroke-width:12.5"
     id="path12"
     inkscape:connector-curvature="0" />
  <path
     d="m 298.06975,113.2369 c 7.752,6.782 6.774,16.977 5.378,32.192 -1.102,11.56 -8.478,22.939 -8.866,33.5 -2.712,22.285 3.876,44.57 6.977,62.786 2.132,20.928 -3.877,38.95 -11.628,45.926 -7.751,6.88 -21.937,10.575 -28.268,12.936 -7.377,2.581 -14.92,7.258 -21.728,12.644 -8.19,7.888 -10.659,16.278 -10.465,25.58"
     style="fill:none;stroke:#808080;stroke-width:12.5"
     id="path14"
     inkscape:connector-curvature="0" />
  <path
     d="m 67.829946,298.51029 c 6.938,16.79 14.292,33.164 14.986,50.37 -3.191,13.876 -2.22,30.25 1.249,43.294 4.441,17.9 21.786004,39.13 39.132004,46.207 17.761,6.452 28.862,8.118 48.704,8.118"
     style="fill:none;stroke:#808080;stroke-width:12.5"
     id="path16"
     inkscape:connector-curvature="0" />
  <path
     d="m 274.93175,298.51026 c -6.938,16.79 -14.292,33.164 -14.986,50.37 3.191,13.876 2.22,30.25 -1.249,43.294 -4.441,17.9 -21.994,38.506 -39.34,45.583 -17.345,7.077 -28.445,8.742 -48.288,8.742"
     style="fill:none;stroke:#808080;stroke-width:12.5"
     id="path18"
     inkscape:connector-curvature="0" />
  <path
     d="m 171.8371,247.26229 c -11.19223,7.373 -13.68208,9.849 -19.86689,18.008 -2.23822,3.149 -6.41799,10.508 -7.56076,15.445 -1.14161,4.936 -1.99696,12.098 -1.9935,15.891 0.0138,12.853 4.73615,20.916 9.89362,20.635 4.60803,-0.458 10.47194,-4.621 19.35785,-14.076"
     style="fill:#808080;stroke:none;stroke-width:1.07438993pt"
     id="path20"
     inkscape:connector-curvature="0" />
  <path
     d="m 170.07876,247.47039 c 11.52472,7.373 14.08855,9.849 20.4571,18.008 2.3047,3.149 6.60865,10.508 7.78536,15.445 1.17553,4.936 2.0563,12.098 2.05273,15.891 -0.0142,12.853 -4.87685,20.916 -10.18754,20.635 -4.74491,-0.458 -10.78304,-4.621 -19.93291,-14.076"
     style="fill:#808080;stroke:none;stroke-width:1.09023204pt"
     id="path22"
     inkscape:connector-curvature="0" />
  <path
     d="m 85.485666,191.11226 c 13.46,-2.359 26.503004,-3.885 39.963004,-5.411 17.623,-4.441 26.504,15.68 21.647,30.805 -6.105,13.46 -14.708,25.255 -24.56,36.633 -7.632,8.603 -16.724,9.995 -25.394004,7.076 -6.998,-1.94 -13.461,-6.243 -20.399,-16.234 -3.052,-8.604 -5.688,-13.045 -9.574,-23.729 -3.052,-9.852 1.695,-24.6 18.317,-29.14 z"
     style="fill:#808080;stroke:none;stroke-width:1.00000003pt"
     id="path24"
     inkscape:connector-curvature="0" />
  <path
     d="m 257.56775,191.11226 c -13.46,-2.359 -26.503,-3.885 -39.963,-5.411 -17.623,-4.441 -26.504,15.68 -21.647,30.805 6.105,13.46 14.708,25.255 24.56,36.633 7.632,8.603 16.724,9.995 25.394,7.076 6.998,-1.94 13.461,-6.243 20.399,-16.234 3.052,-8.604 5.688,-13.045 9.574,-23.729 3.052,-9.852 -1.695,-24.6 -18.317,-29.14 z"
     style="fill:#808080;stroke:none;stroke-width:1.00000003pt"
     id="path26"
     inkscape:connector-curvature="0" />
  <path
     d="m 85.240946,306.08129 c 5.69,13.344 7.45,18.415 11.553,31.718 3.496004,12.289 4.781004,19.794 6.941004,37.258"
     style="fill:none;stroke:#808080;stroke-width:7.05000019;stroke-miterlimit:4;stroke-dasharray:none"
     id="path28"
     inkscape:connector-curvature="0" />
  <path
     d="m 257.09525,305.3454 c -5.69,13.344 -7.45,18.415 -11.553,31.718 -3.496,12.289 -4.781,19.794 -6.941,37.258"
     style="fill:none;stroke:#808080;stroke-width:7.05000019;stroke-miterlimit:4;stroke-dasharray:none"
     id="path30"
     inkscape:connector-curvature="0" />
  <path
     d="m 109.52495,337.28329 c 14.718,9.027 40.161,10.419 62.956,10.009 25.394,-0.129 47.133,-1.963 61.409,-10.597"
     style="fill:none;stroke:#808080;stroke-width:5"
     id="path32"
     inkscape:connector-curvature="0" />
  <path
     d="m 114.67595,360.83329 c 16.238,10.204 35.334,13.708 57.326,12.878 22.842,-0.556 40.351,-2.478 56.001,-13.172"
     style="fill:none;stroke:#808080;stroke-width:5"
     id="path34"
     inkscape:connector-curvature="0" />
  <path
     d="m 102.90195,373.19529 c 17.367,20.948 41.608,24.585 69.173,25.315 29.519,1.077 59.166,-10.645 66.819,-25.314"
     style="fill:none;stroke:#808080;stroke-width:6.25"
     id="path36"
     inkscape:connector-curvature="0" />
  <path
     d="m 114.45295,341.80729 -0.416,41.212"
     style="stroke:#808080;stroke-width:7;stroke-miterlimit:4;stroke-dasharray:none"
     id="path38"
     inkscape:connector-curvature="0" />
  <path
     d="m 127.98195,346.17829 -0.208,44.126"
     style="stroke:#808080;stroke-width:7;stroke-miterlimit:4;stroke-dasharray:none"
     id="path40"
     inkscape:connector-curvature="0" />
  <path
     d="m 142.96795,348.05129 -0.416,46.208"
     style="stroke:#808080;stroke-width:7;stroke-miterlimit:4;stroke-dasharray:none"
     id="path42"
     inkscape:connector-curvature="0" />
  <path
     d="m 156.49795,349.09229 -0.209,46.832"
     style="stroke:#808080;stroke-width:7;stroke-miterlimit:4;stroke-dasharray:none"
     id="path44"
     inkscape:connector-curvature="0" />
  <path
     d="m 171.69195,349.50829 v 46.832"
     style="stroke:#808080;stroke-width:7;stroke-miterlimit:4;stroke-dasharray:none"
     id="path46"
     inkscape:connector-curvature="0" />
  <path
     d="m 186.26195,349.30029 0.208,46.832"
     style="stroke:#808080;stroke-width:7;stroke-miterlimit:4;stroke-dasharray:none"
     id="path48"
     inkscape:connector-curvature="0" />
  <path
     d="m 199.37469,348.05126 0.416,46"
     style="stroke:#808080;stroke-width:7;stroke-miterlimit:4;stroke-dasharray:none"
     id="path50"
     inkscape:connector-curvature="0" />
  <path
     d="m 214.56895,345.55429 0.208,44.126"
     style="stroke:#808080;stroke-width:7;stroke-miterlimit:4;stroke-dasharray:none"
     id="path52"
     inkscape:connector-curvature="0" />
  <path
     d="m 228.30595,340.14229 0.417,41.628"
     style="stroke:#808080;stroke-width:7;stroke-miterlimit:4;stroke-dasharray:none"
     id="path54"
     inkscape:connector-curvature="0" />
  <path
     style="fill:none;stroke:#808080;stroke-width:13;stroke-linecap:butt;stroke-linejoin:miter;stroke-miterlimit:4;stroke-dasharray:none;stroke-opacity:1"
     d="m 114.17642,360.72981 c 36.0101,15.36312 73.65695,17.63224 113.79147,0"
     id="path3826"
     inkscape:connector-curvature="0"
     sodipodi:nodetypes="cc" />
  <path
     style="fill:#000000;fill-opacity:1;stroke-width:14;stroke-miterlimit:4;stroke-dasharray:none;marker-start:none;marker-mid:none"
     d="m 232.47184,358.24717 v -17.59953 l 1.83483,-0.83601 c 1.537,-0.7003 1.90049,-1.56002 2.23928,-5.29631 0.55716,-6.14441 2.85929,-10.9048 7.53452,-15.58004 2.18094,-2.18094 4.0901,-3.8406 4.24257,-3.68813 0.15247,0.15247 -1.10781,4.2828 -2.80061,9.17851 -4.51937,13.07037 -6.71322,22.07032 -8.86846,36.38155 -1.18978,7.90039 -2.35429,13.20489 -3.05282,13.90601 -0.98981,0.99347 -1.12931,-1.04052 -1.12931,-16.46605 z"
     id="path3832"
     inkscape:connector-curvature="0" />
  <path
     style="fill:#808080;fill-opacity:1;stroke-width:14;stroke-miterlimit:4;stroke-dasharray:none"
     d="m 109.77936,383.25384 c -1.39425,-1.23585 -3.18886,-7.27329 -5.04231,-16.96336 -3.66679,-19.17057 -12.150634,-43.46663 -20.963304,-60.03476 -3.67412,-6.90749 15.52129,7.27302 20.071144,14.82745 1.80152,2.99118 3.67172,8.01893 4.156,11.17282 0.58025,3.77872 1.74284,6.26223 3.40905,7.28233 2.39349,1.46534 2.47529,2.72543 1.53131,23.59115 -0.92425,20.4304 -1.15558,21.90274 -3.16189,20.12437 z"
     id="path4194"
     inkscape:connector-curvature="0" />
  <path
     style="fill:#808080;fill-opacity:1;stroke-width:14;stroke-miterlimit:4;stroke-dasharray:none"
     d="m 229.79205,362.98048 c -2.98066,-21.10977 -2.9237,-22.98517 0.76557,-25.19674 2.44197,-1.46388 4.9763,-5.87877 6.54281,-11.39774 1.90046,-6.69569 4.43067,-10.616 9.85566,-15.27047 6.75661,-5.79691 13.17367,-10.02895 14.52106,-9.57651 0.31053,0.10426 -2.61996,7.10836 -6.51217,15.56465 -8.79915,19.1169 -10.73584,25.02291 -15.25992,46.53539 -1.98484,9.43799 -4.30264,18.28247 -5.15069,19.65439 -0.89545,1.44855 -2.89216,-7.06818 -4.76232,-20.31297 z"
     id="path4196"
     inkscape:connector-curvature="0" />
</svg>
