<?xml version="1.0" encoding="UTF-8" standalone="no"?>
<svg
   xmlns:dc="http://purl.org/dc/elements/1.1/"
   xmlns:cc="http://creativecommons.org/ns#"
   xmlns:rdf="http://www.w3.org/1999/02/22-rdf-syntax-ns#"
   xmlns:svg="http://www.w3.org/2000/svg"
   xmlns="http://www.w3.org/2000/svg"
   xmlns:xlink="http://www.w3.org/1999/xlink"
   version="1.0"
   width="1030.589"
   height="184.01358"
   id="svg2816">
  <metadata
     id="metadata17005">
    <rdf:RDF>
      <cc:Work
         rdf:about="">
        <dc:format>image/svg+xml</dc:format>
        <dc:type
           rdf:resource="http://purl.org/dc/dcmitype/StillImage" />
        <dc:title></dc:title>
        <dc:creator>
          <cc:Agent>
            <dc:title>https://commons.wikimedia.org/wiki/User:JMvanDijk</dc:title>
          </cc:Agent>
        </dc:creator>
      </cc:Work>
    </rdf:RDF>
  </metadata>
  <defs
     id="defs2818">
    <g
       id="s">
      <g
         id="c">
        <path
           d="M 0,0 V 1 H 0.5 Z"
           transform="rotate(18.000001,3.1568757,-0.50000014)"
           id="t" />
        <use
           transform="scale(-1,1)"
           id="use5409"
           x="0"
           y="0"
           width="549"
           height="632"
           xlink:href="#t" />
      </g>
      <g
         id="a">
        <use
           transform="rotate(71.999999)"
           id="use5412"
           x="0"
           y="0"
           width="549"
           height="632"
           xlink:href="#c" />
        <use
           transform="rotate(144)"
           id="use5414"
           x="0"
           y="0"
           width="549"
           height="632"
           xlink:href="#c" />
      </g>
      <use
         transform="scale(-1,1)"
         id="use5416"
         x="0"
         y="0"
         width="549"
         height="632"
         xlink:href="#a" />
    </g>
    <g
       id="s-0">
      <g
         id="c-9">
        <path
           d="M 0,0 V 1 H 0.5 Z"
           transform="rotate(18.000001,3.1568757,-0.50000014)"
           id="t-4" />
        <use
           transform="scale(-1,1)"
           id="use5409-8"
           x="0"
           y="0"
           width="549"
           height="632"
           xlink:href="#t-4" />
      </g>
      <g
         id="a-8">
        <use
           transform="rotate(71.999999)"
           id="use5412-2"
           x="0"
           y="0"
           width="549"
           height="632"
           xlink:href="#c-9" />
        <use
           transform="rotate(144)"
           id="use5414-4"
           x="0"
           y="0"
           width="549"
           height="632"
           xlink:href="#c-9" />
      </g>
      <use
         transform="scale(-1,1)"
         id="use5416-5"
         x="0"
         y="0"
         width="549"
         height="632"
         xlink:href="#a-8" />
    </g>
  </defs>
  <g
     transform="matrix(0.99984379,0,0,0.99984379,181.22169,-737.19732)"
     id="pedestal">
    <path
       d="m 123.25,779.4375 c -49.856858,0.0649 -97.953161,2.48904 -138.21875,8.78125 -20.166707,6.99213 -26.48265,31.0952 -14.40625,45.625 5.902248,6.95774 14.576029,12.47875 21.5,13.15625 12.3095122,1.2043 21.062528,-8.90054 22.46875,-17.8125 1.406247,-8.91198 -5.1560531,-16.73707 -13.28125,-18.90625 -8.1249882,-2.16935 -20.420776,1.45578 -21.6875,7.875 -1.266716,6.41922 4.81751,12.03149 10.6875,12.28125 5.6879248,0.24137 7.2812377,-7.34374 7.28125,-7.34375 1.7913166,7.53534 -6.6632347,9.80164 -9.6875,9.46875 -17.764954,-6.6919 -10.177324,-25.76407 2.4375,-25.46875 4.9925807,0.11688 30.57892,3.5522 38.5,2.59375 0.460074,18.91493 20.890246,13.15871 19.90625,-0.375 l 56.125,0.5 c -14.63149,8.66611 -42.826835,27.91007 -5.875,46.84375 -7.639013,-10.63977 6.89866,-21.45659 40.3125,-18.5625 h 18.40625 l 62.53125,24.75 61.1875,-5.65625 h 26.15625 l 26.53125,-18.375 26.53125,18.375 h 26.15625 l 61.15625,5.65625 62.5625,-24.75 h 18.40625 c 33.41384,-2.89409 47.95151,7.92273 40.3125,18.5625 36.95183,-18.93368 8.75649,-38.17764 -5.875,-46.84375 l 56.125,-0.5 c -0.984,13.53371 19.44617,19.28993 19.90625,0.375 7.92108,0.95845 33.50742,-2.47687 38.5,-2.59375 12.61482,-0.29532 20.20246,18.77685 2.4375,25.46875 -3.02426,0.33289 -11.51007,-1.93341 -9.71875,-9.46875 10e-6,10e-6 1.62458,7.58512 7.3125,7.34375 5.86999,-0.24976 11.95422,-5.86203 10.6875,-12.28125 -1.26672,-6.41922 -13.56251,-10.04435 -21.6875,-7.875 -8.12519,2.16918 -14.6875,9.99427 -13.28125,18.90625 1.40622,8.91196 10.12799,19.0168 22.4375,17.8125 6.92397,-0.6775 15.629,-6.19851 21.53125,-13.15625 12.0764,-14.5298 5.76046,-38.63287 -14.40625,-45.625 C 584.10346,772.73023 437.52098,780.62118 334.125,789.65625 272.73364,784.29168 196.11772,779.34257 123.25,779.4375 Z"
       id="path5653-0"
       style="fill:#747474;fill-opacity:1;stroke:#525252;stroke-width:2;stroke-linecap:butt;stroke-linejoin:miter;stroke-miterlimit:4;stroke-dasharray:none;stroke-opacity:1" />
    <path
       d="m -1.40625,751.6875 c -52.866677,14.01804 -111.53228,21.00421 -177.59375,19 170.0425233,15.50965 342.08462,7.05837 513.125,10.59375 171.04038,-3.53538 343.08248,4.9159 513.125,-10.59375 -66.06147,2.00421 -124.72707,-4.98196 -177.59375,-19 H 334.125 Z"
       id="path17280"
       style="fill:#b3b3b3;fill-opacity:1;stroke:#525252;stroke-width:2;stroke-linecap:butt;stroke-linejoin:miter;stroke-miterlimit:4;stroke-dasharray:none;stroke-opacity:1" />
    <path
       d="m -0.66757757,738.3125 v 13.5 H 334.125 668.91758 v -13.5 H 334.125 Z"
       id="rect17275"
       style="fill:#969696;fill-opacity:1;stroke:#525252;stroke-width:2;stroke-miterlimit:4;stroke-dasharray:none;stroke-opacity:1" />
    <path
       d="m 334.125,784.1875 -19.375,5.75 c -3.46512,13.68449 16.51902,38.38557 -8.25,42.5 -4.29591,0.7136 -10.48029,8.86342 -13.75,13 l 13,-1 c -3.21881,8.2179 -20.15491,0.11043 -21.5,11.75 0.13555,2.5762 4.37089,7.3127 11.21875,6.8437 -2.06377,0.5634 -4.46873,1.0123 -7.28125,1.2813 -8.8599,0.8473 -18.44862,17.1094 -2.1875,23.625 -0.58346,-8.1347 6.26089,-12.8001 14.25,-15 14.05767,-2.3264 19.67569,-13.7958 26,-24.5 -3.83361,9.8491 -7.92104,19.5575 -19.25,25.25 -12.37,-1.7666 -15.16479,29.8897 -0.5,10.75 -3.80401,8.1148 -8.89625,18.1794 4,18.25 -0.69744,-12.7274 7.45222,-7.0635 14.75,-19 -2.26079,5.5255 -4.81073,10.6172 -4.5,20 4.13428,5.7421 6.83545,12.5619 13.375,16.5 6.53955,-3.9381 9.24072,-10.7579 13.375,-16.5 0.31073,-9.3828 -2.23921,-14.4745 -4.5,-20 7.29778,11.9365 15.44744,6.2726 14.75,19 12.89625,-0.071 7.80401,-10.1352 4,-18.25 14.66479,19.1397 11.87,-12.5166 -0.5,-10.75 -11.32896,-5.6925 -15.41639,-15.4009 -19.25,-25.25 6.32431,10.7042 11.94233,22.1736 26,24.5 7.98911,2.1999 14.83346,6.8653 14.25,15 16.26112,-6.5156 6.6724,-22.7777 -2.1875,-23.625 -2.75916,-0.2639 -5.11895,-0.7321 -7.15625,-1.2813 6.75835,0.3891 10.95921,-4.2867 11.09375,-6.8437 -1.34509,-11.63957 -18.28119,-3.5321 -21.5,-11.75 l 13,1 c -3.26971,-4.13658 -9.45409,-12.2864 -13.75,-13 -24.76902,-4.11443 -4.78488,-28.81551 -8.25,-42.5 z"
       id="path17460"
       style="fill:#cccccc;fill-opacity:1;stroke:#808080;stroke-width:2;stroke-linecap:butt;stroke-linejoin:miter;stroke-miterlimit:4;stroke-dasharray:none;stroke-opacity:1" />
    <path
       d="M -180.25,769.56878 V 793.875 H 334.125 848.5 V 769.56878 H 334.125 Z"
       id="rect17282"
       style="fill:#c8c8c8;fill-opacity:1;stroke:#525252;stroke-width:2;stroke-linecap:round;stroke-linejoin:round;stroke-miterlimit:4;stroke-dasharray:none;stroke-opacity:1" />
    <path
       d="m 290.15625,794.84375 c -7.42867,-0.10076 -15.47278,2.26926 -19.59375,6.15625 -7.32617,6.91042 -5.8109,17.68048 -1.09375,23.3125 4.71715,5.63203 13.03949,5.79475 18.71875,1.96875 5.67925,-3.82579 10.04314,-13.31877 6.78125,-17.53125 -3.2619,-4.21248 -9.95557,-3.469 -13.25,0 -3.19186,3.36176 0.59375,8.40624 0.59375,8.40625 -5.58332,-2.9329 -2.44766,-9.35326 -0.625,-11.03125 17.84273,-9.87289 22.90952,14.21253 16.90625,27.6875 -7.50848,6.00835 -20.0458,1.81065 -26.25,4.375 l 7.34375,8.25 L 254.5,834.5 c -6.65448,13.4585 12.875,20.4062 12.875,20.4062 -14.90832,-1.8691 -20.15433,-19.12657 -28.1875,-22.9062 -4.05476,2.0251 -5.3125,8.25 -5.3125,8.25 -9.16179,-4.70988 -6.78125,-18.875 -6.78125,-18.875 C 206.92534,828.43067 223,853.6875 223,853.6875 c -0.96173,0.5335 -15.02136,-24.46475 -40.34375,-29.78125 0,0 -4.38073,6.49955 -1.3125,18.5 -7.39333,-13.35533 -21.28125,-15.3125 -21.28125,-15.3125 0,0 -1.33414,5.19383 1.03125,8.40625 0,0 -9.18736,-3.73343 -16.0625,-5.25 -15.41687,-0.78706 -18.45217,14.82263 -3.25,19.7187 -4.59443,-7.29648 -3.01426,-9.91096 6.25,-11.0312 5.93593,-0.47475 51.04976,34.4777 106.4375,30.25 28.9979,-2.9305 44.90457,-18.9217 55.97718,-41.10017 6.50022,-16.11877 -4.90988,-32.88015 -20.28973,-33.24353 z"
       id="path5653"
       style="fill:#cccccc;fill-opacity:1;stroke:#808080;stroke-width:2;stroke-linecap:butt;stroke-linejoin:miter;stroke-miterlimit:4;stroke-dasharray:none;stroke-opacity:1" />
    <path
       d="m 378.08593,794.84375 c 7.42867,-0.10076 15.47278,2.26926 19.59375,6.15625 7.32617,6.91042 5.8109,17.68048 1.09375,23.3125 -4.71715,5.63203 -13.03949,5.79475 -18.71875,1.96875 -5.67925,-3.82579 -10.04314,-13.31877 -6.78125,-17.53125 3.2619,-4.21248 9.95557,-3.469 13.25,0 3.19186,3.36176 -0.59375,8.40624 -0.59375,8.40625 5.58332,-2.9329 2.44766,-9.35326 0.625,-11.03125 -17.84273,-9.87289 -22.90952,14.21253 -16.90625,27.6875 7.50848,6.00835 20.0458,1.81065 26.25,4.375 l -7.34375,8.25 25.1875,-11.9375 c 6.65448,13.4585 -12.875,20.4062 -12.875,20.4062 14.90832,-1.8691 20.15433,-19.12657 28.1875,-22.9062 4.05476,2.0251 5.3125,8.25 5.3125,8.25 9.16179,-4.70988 6.78125,-18.875 6.78125,-18.875 20.16841,7.05567 4.09375,32.3125 4.09375,32.3125 0.96173,0.5335 15.02136,-24.46475 40.34375,-29.78125 0,0 4.38073,6.49955 1.3125,18.5 7.39333,-13.35533 21.28125,-15.3125 21.28125,-15.3125 0,0 1.33414,5.19383 -1.03125,8.40625 0,0 9.18736,-3.73343 16.0625,-5.25 15.41687,-0.78706 18.45217,14.82263 3.25,19.7187 4.59443,-7.29648 3.01426,-9.91096 -6.25,-11.0312 -5.93593,-0.47475 -51.04976,34.4777 -106.4375,30.25 -28.9979,-2.9305 -44.90457,-18.9217 -55.97718,-41.10017 -6.50022,-16.11877 4.90988,-32.88015 20.28973,-33.24353 z"
       id="path17467"
       style="fill:#cccccc;fill-opacity:1;stroke:#808080;stroke-width:2;stroke-linecap:butt;stroke-linejoin:miter;stroke-miterlimit:4;stroke-dasharray:none;stroke-opacity:1" />
  </g>
</svg>
