<?xml version="1.0" encoding="UTF-8"?>
<!DOCTYPE svg PUBLIC "-//W3C//DTD SVG 1.1//EN" "http://www.w3.org/Graphics/SVG/1.1/DTD/svg11.dtd">
<svg version="1.1" xmlns:dc="http://purl.org/dc/elements/1.1/" xmlns:cc="http://creativecommons.org/ns#" xmlns:rdf="http://www.w3.org/1999/02/22-rdf-syntax-ns#" xmlns="http://www.w3.org/2000/svg" xmlns:xlink="http://www.w3.org/1999/xlink" x="0" y="0" width="469.935" height="391" viewBox="0, 0, 469.935, 391">
<metadata id="metadata3071">
    <rdf:RDF>
      <cc:Work rdf:about="">
        <dc:format>image/svg+xml</dc:format>
        <dc:type rdf:resource="http://purl.org/dc/dcmitype/StillImage"/>
        <dc:title/>
        <dc:creator>
          <cc:Agent>
            <dc:title>http://commons.wikimedia.org/wiki/User:Andrew_c</dc:title>
          </cc:Agent>
        </dc:creator>
      </cc:Work>
    </rdf:RDF>
  </metadata>
  <g id="body">
    <g>
      <g>
        <path d="M128.942,101.398 C128.942,101.398 196.034,-32.788 343.355,9.101 C490.308,50.885 469.204,198.867 466.182,206.12 C453.757,235.939 414.733,321.984 402.994,334.628 C398.38,339.598 392.909,339.521 388.439,339.952 C358.974,342.792 265.208,376.315 249.284,382.905 C238.989,387.165 218.405,368.508 210.59,356.991 C203.846,347.051 198.77,321.121 211.655,298.418 C226.565,272.148 209.17,227.421 202.069,222.095 C194.79,216.636 115.453,159.263 115.453,159.263 L128.942,101.398 z" fill="#FFFF00"/>
        <path d="M128.942,101.398 C128.942,101.398 196.034,-32.788 343.355,9.101 C490.308,50.885 469.204,198.867 466.182,206.12 C453.757,235.939 414.733,321.984 402.994,334.628 C398.38,339.598 392.909,339.521 388.439,339.952 C358.974,342.792 265.208,376.315 249.284,382.905 C238.989,387.165 218.405,368.508 210.59,356.991 C203.846,347.051 198.77,321.121 211.655,298.418 C226.565,272.148 209.17,227.421 202.069,222.095 C194.79,216.636 115.453,159.263 115.453,159.263 L128.942,101.398 z" fill-opacity="0" stroke="#000000" stroke-width="1"/>
      </g>
      <g>
        <path d="M321.71,286.766 C324.309,295.854 317.949,305.641 307.506,308.627 C297.063,311.613 286.491,306.666 283.893,297.578 C281.294,288.49 287.654,278.703 298.097,275.717 C308.54,272.731 319.112,277.678 321.71,286.766 z" fill="#000009"/>
        <path d="M321.71,286.766 C324.309,295.854 317.949,305.641 307.506,308.627 C297.063,311.613 286.491,306.666 283.893,297.578 C281.294,288.49 287.654,278.703 298.097,275.717 C308.54,272.731 319.112,277.678 321.71,286.766 z" fill-opacity="0" stroke="#000000" stroke-width="1"/>
      </g>
      <g>
        <path d="M142.371,173.046 C142.371,173.046 142.371,181.567 139.887,189.731 C137.402,197.896 131.721,213.871 132.077,224.876 C132.431,235.881 139.176,258.954 157.991,267.475 C176.805,275.996 213.724,273.51 213.724,273.51 L205.204,211.387 L142.371,173.046 z" fill="#FFFF00"/>
        <path d="M142.371,173.046 C142.371,173.046 142.371,181.567 139.887,189.731 C137.402,197.896 131.721,213.871 132.077,224.876 C132.431,235.881 139.176,258.954 157.991,267.475 C176.805,275.996 213.724,273.51 213.724,273.51 L205.204,211.387 L142.371,173.046 z" fill-opacity="0" stroke="#000000" stroke-width="1"/>
      </g>
      <g>
        <path d="M142.371,173.046 C142.371,173.046 142.371,181.567 139.887,189.731 C137.402,197.896 131.721,213.871 132.077,224.876 C132.431,235.881 139.176,258.954 157.991,267.475 C176.805,275.996 213.724,273.51 213.724,273.51 L205.204,211.387 L142.371,173.046 z" fill="#949494" fill-opacity="0.53"/>
        <path d="M142.371,173.046 C142.371,173.046 142.371,181.567 139.887,189.731 C137.402,197.896 131.721,213.871 132.077,224.876 C132.431,235.881 139.176,258.954 157.991,267.475 C176.805,275.996 213.724,273.51 213.724,273.51 L205.204,211.387 L142.371,173.046 z" fill-opacity="0" stroke="#000000" stroke-width="1"/>
      </g>
      <path d="M266.259,274.445 C265.831,272.87 265.491,271.713 265.491,271.713 C265.491,271.713 231.676,281.587 220.053,289.109 C214.018,293.013 212.953,295.499 212.953,295.499 L199.109,312.538 C199.109,312.538 194.849,316.087 193.784,316.087 C192.833,316.087 187.645,316.371 186.546,316.432 L185.219,318.663 L179.523,330.056 C182.39,330.395 190.656,331.277 194.14,330.643 C201.949,329.223 209.404,321.059 209.404,321.059 C209.404,321.059 223.133,302.657 225.378,301.534 C225.378,301.534 247.588,291.105 259.814,285.917 C259.84,285.99 268.699,310.786 275.788,325.319 L250.938,336.677 C250.938,336.677 247.743,338.453 245.259,338.808 C242.774,339.161 176.036,339.872 176.036,339.872 C176.036,339.872 175.376,339.866 174.86,339.382 L179.523,330.056 C178.893,329.982 178.52,329.933 178.52,329.933 L185.22,318.663 L186.33,316.443 C186.33,316.443 186.415,316.438 186.547,316.431 L229.515,244.155 C229.927,244.403 230.339,244.805 230.705,245.445 C232.125,247.93 246.678,264.259 246.678,264.259 C246.678,264.259 253.07,271.713 252.713,272.779 C252.359,273.842 252.359,275.264 252.359,275.264 L252.714,275.598 C259.578,273.346 264.749,271.828 265.116,271.72 C264.545,270.321 264.179,269.335 264.073,268.872 C263.008,264.259 260.168,261.062 250.938,249.703 C249.355,247.757 226.089,226.275 226.089,226.275 C226.089,226.275 177.732,201.045 141.371,176.636 C144.256,168.677 140.643,171.141 137.571,174.057 C128.211,167.634 119.834,161.331 113.557,155.631 C97.2,140.777 96.162,126.877 96.162,126.877 C96.162,126.877 94.018,121.017 92.967,120.842 C86.578,119.777 86.223,127.588 85.157,127.588 C84.091,127.588 87.427,136.682 88.708,140.012 C90.483,144.627 100.282,158.301 102.196,161.312 C103.002,162.576 107.382,166.149 113.295,170.63 L111.782,174.09 L108.942,180.836 C108.942,180.836 79.123,186.515 61.018,188.29 C42.913,190.065 25.874,205.685 25.874,205.685 C25.874,205.685 22.68,205.33 17.354,206.75 C12.03,208.17 1.91,256.435 0.669,273.487 C-0.751,293.01 -0.063,323.762 4.219,349.454 C7.77,370.755 82.317,387.439 100.777,390.279 C119.236,393.118 134.855,386.729 138.76,385.664 C142.664,384.599 148.344,376.435 150.83,375.724 C153.314,375.015 164.674,353.005 164.674,353.005 C164.674,353.005 248.452,350.521 250.936,350.165 C253.421,349.811 272.235,340.581 273.655,340.226 C275.075,339.871 279.336,337.031 279.336,337.031 C279.336,337.031 285.726,335.967 287.501,335.256 C289.275,334.547 292.116,330.642 292.116,330.642 C292.116,330.642 272.89,289.911 266.259,274.445 z M267.288,283.079 C267.361,283.066 267.424,283.059 267.476,283.058 C267.428,283.104 267.366,283.111 267.288,283.079 z M121.792,176.936 C123.396,178.106 125.035,179.291 126.683,180.477 C125.08,183.585 118.612,196.015 116.751,197.876 C114.622,200.007 110.716,203.201 110.716,203.201 L121.792,176.936 z M106.811,215.271 C106.811,215.271 114.975,215.271 116.75,214.56 C118.47,213.873 124.852,211.187 136.541,187.468 C142.94,191.947 148.633,195.811 151.895,197.876 C162.876,204.832 214.727,232.664 216.147,234.795 C217.567,236.925 216.147,238.345 216.147,238.345 C216.147,238.345 188.459,286.978 187.393,289.109 C186.328,291.238 185.264,291.238 185.264,291.238 C185.264,291.238 124.285,287.46 82.071,270.025 C84.145,266.005 86.759,259.354 87.997,257.87 C89.771,255.739 97.581,236.926 97.581,236.926 L132.37,232.311 L136.63,219.887 L103.972,222.727 L106.811,215.271 z M40.783,208.881 C55.693,196.812 101.486,196.101 101.486,196.101 L101.486,202.847 C101.486,202.847 73.797,205.33 58.533,208.171 C49.745,209.806 38.959,214.616 31.387,218.404 C33.095,215.919 35.98,212.768 40.783,208.881 z M31.554,232.664 C31.554,232.664 45.753,223.79 58.533,220.595 C74.072,216.711 93.322,215.981 93.322,215.981 L91.546,224.501 C91.546,224.501 86.685,227.314 85.511,229.825 C83.027,235.15 86.576,236.926 85.867,237.991 C85.315,238.819 77.397,256.22 72.292,265.548 C69.716,264.236 67.25,262.862 64.923,261.419 C41.558,246.947 33.371,237.294 30.605,231.752 L31.554,232.664 z M24.099,245.444 C24.099,245.444 38.679,264.208 81.962,282.717 C121.724,299.723 159.941,304.001 178.721,304.651 L172.429,316.161 C155.023,315.038 126.003,311.928 100.421,303.308 C67.763,292.303 20.548,267.558 20.548,252.189 C20.548,241.894 24.099,245.444 24.099,245.444 z M19.484,351.94 C19.484,351.94 9.898,344.841 10.963,312.891 C12.028,280.943 15.223,268.872 18.418,270.648 C18.418,270.648 27.801,282.111 30.842,284.138 C31.907,284.848 27.293,299.402 24.098,313.247 C22.859,318.617 19.484,351.94 19.484,351.94 z M142.664,367.915 C141.244,369.69 135.565,373.95 133.08,375.016 C130.595,376.079 111.07,380.34 92.257,377.501 C77.443,375.264 35.866,365.333 31.198,358.331 C29.069,355.135 31.015,334.751 34.038,319.637 C36.168,308.988 40.399,293.073 41.848,292.658 C44.333,291.947 60.842,304.458 84.091,311.471 C123.896,323.479 150.743,327.686 165.249,329.154 L169.327,323.547 L165.987,329.227 C165.741,329.203 165.503,329.18 165.249,329.155 C161.413,336.04 158.122,341.81 157.574,342.357 C156.154,343.776 144.084,366.141 142.664,367.915 z" fill="#EBEBEB"/>
    </g>
  </g>
</svg>
