<?xml version="1.0" encoding="UTF-8"?>
<!DOCTYPE svg PUBLIC "-//W3C//DTD SVG 1.1//EN" "http://www.w3.org/Graphics/SVG/1.1/DTD/svg11.dtd">
<svg version="1.1"
xmlns:dc="http://purl.org/dc/elements/1.1/"
xmlns:cc="http://creativecommons.org/ns#"
xmlns:rdf="http://www.w3.org/1999/02/22-rdf-syntax-ns#"
xmlns="http://www.w3.org/2000/svg" xmlns:xlink="http://www.w3.org/1999/xlink" x="0" y="0" width="200" height="200" viewBox="0, 0, 200, 200">
 <metadata
     id="metadata1917">
     <rdf:RDF>
         <cc:Work
             rdf:about="">
             <dc:format>image/svg+xml</dc:format>
             <dc:type
                 rdf:resource="http://purl.org/dc/dcmitype/StillImage" />
             <cc:license
                 rdf:resource="" />
             <dc:title />
             <dc:creator>
                 <cc:Agent>
                     <dc:title>https://commons.wikimedia.org/wiki/User:Pumbaa80</dc:title>
                 </cc:Agent>
             </dc:creator>
         </cc:Work>
     </rdf:RDF>
 </metadata>
  <g id="layer1">
    <path d="M100,200 C44.772,200 0,155.228 0,100 C0,44.772 44.772,0 100,-0 C155.228,-0 200,44.772 200,100 C200,155.228 155.228,200 100,200 z" fill="#FFFF00"/>
    <path d="M100.482,-1.013 C44.984,-1.013 -0.017,43.989 -0.017,99.488 C-0.017,154.986 44.984,199.988 100.482,199.988 C155.981,199.988 200.982,154.986 200.982,99.488 C200.982,43.989 155.981,-1.013 100.482,-1.013 z M100.482,-0.013 C113.556,-0.013 126.017,2.528 137.451,7.112 C137.964,12.027 137.793,17.553 136.951,23.519 C124.087,24.216 112.476,26.797 102.107,31.237 C92.731,25.229 80.108,21.586 65.482,21.55 C65.452,15.273 65.127,10.299 64.514,6.706 C75.668,2.381 87.8,-0.013 100.482,-0.013 z M138.514,7.55 C161.644,17.136 180.395,35.174 190.857,57.831 L188.045,61.706 C181.321,57.033 172.814,54.016 164.17,52.019 C164.167,52.014 164.142,52.024 164.139,52.019 C155.079,38.515 146.351,29.091 137.92,23.769 C138.757,17.894 138.976,12.465 138.514,7.55 z M65.264,22.55 C65.282,22.543 65.308,22.556 65.326,22.55 C79.865,22.56 92.355,26.134 101.576,32.05 C103.5,43.031 105.12,54.635 106.42,66.862 C90.522,80.114 79.268,90.571 73.857,97.3 C61.653,93.471 50.07,90.578 39.108,88.612 C35.799,79.349 33.398,66.137 32.733,50.175 C43.258,35.788 54.09,26.561 65.264,22.55 z M22.858,49.206 C25.712,49.23 28.683,49.621 31.733,50.331 C32.408,66.297 34.826,79.548 38.17,88.925 C30.484,99.299 25.936,109.984 24.545,120.988 C18.625,122.296 12.003,122.73 5.451,121.425 C5.448,121.42 5.423,121.43 5.42,121.425 C4.212,119.686 3.188,117.707 2.295,115.519 C1.45,110.3 0.983,104.945 0.983,99.488 C0.983,81.609 5.699,64.83 13.951,50.331 C16.81,49.556 19.769,49.181 22.858,49.206 z M164.139,53.081 C172.627,55.059 180.98,57.974 187.482,62.487 C194.772,80.379 198.097,94.312 197.482,104.3 C192.845,117.549 186.357,127.571 179.764,134.175 C170.382,129.807 162.506,126.315 156.107,123.738 C155.42,111.046 152.174,95.882 146.857,79.925 C153.84,69.748 159.606,60.809 164.139,53.081 z M107.045,67.612 C119.994,70.248 132.94,74.459 145.889,80.237 C151.201,96.182 154.441,111.336 155.107,123.925 C155.108,123.935 155.107,123.946 155.107,123.956 C146.047,134.873 136.042,143.912 125.107,151.081 C109.169,148.425 94.592,143.82 83.326,137.862 C79.461,122.357 76.548,109.044 74.576,97.956 C79.857,91.366 91.118,80.889 107.045,67.612 z M198.389,104.8 L199.826,105.269 C198.405,130.086 187.874,152.452 171.545,169.113 L168.732,166.081 C175.156,155.068 179.047,144.675 180.42,134.925 C187.122,128.223 193.703,118.118 198.389,104.8 z M24.701,122.019 C29.379,133.712 37.877,144.124 50.201,153.269 C50.862,163.794 52.956,173.655 57.514,181.675 C53.382,182.536 48.858,182.439 43.951,181.363 C26.184,169.071 12.589,151.153 5.795,130.175 C5.792,130.166 5.798,130.153 5.795,130.144 C5.603,127.462 5.502,124.901 5.483,122.425 C12.104,123.707 18.752,123.326 24.701,122.019 z M82.951,138.769 C94.259,144.738 108.763,149.344 124.639,152.019 C127.175,160.317 129.399,168.923 131.326,177.831 C124.12,186.328 112.588,192.472 97.483,194.488 C82.841,193.156 69.865,188.829 58.545,181.519 C53.965,173.635 51.865,163.787 51.201,153.206 C62.71,148.702 73.294,143.89 82.951,138.769 z M168.076,166.831 L170.857,169.831 C152.85,187.84 127.965,198.988 100.482,198.988 C99.655,198.988 98.836,198.976 98.014,198.956 L97.608,195.456 C112.932,193.413 124.716,187.192 132.107,178.456 C147.554,177.724 159.548,173.853 168.076,166.831 z" fill="#000000" id="soccer_foodball"/>
  </g>
</svg>
