<?xml version="1.0" encoding="UTF-8" standalone="no"?>
<!-- Created with Inkscape (http://www.inkscape.org/) -->

<svg
   width="555"
   height="280"
   id="svg9845"
   version="1.1"
   xmlns:xlink="http://www.w3.org/1999/xlink"
   xmlns="http://www.w3.org/2000/svg"
   xmlns:svg="http://www.w3.org/2000/svg"
   xmlns:rdf="http://www.w3.org/1999/02/22-rdf-syntax-ns#"
   xmlns:cc="http://creativecommons.org/ns#"
   xmlns:dc="http://purl.org/dc/elements/1.1/">

  <metadata
     id="metadata9850">
    <rdf:RDF>
      <cc:Work
         rdf:about="">
        <dc:format>image/svg+xml</dc:format>
        <dc:type
           rdf:resource="http://purl.org/dc/dcmitype/StillImage" />
        <dc:creator>
          <cc:Agent>
            <dc:title>https://commons.wikimedia.org/wiki/User:HansenBCN</dc:title>
          </cc:Agent>
        </dc:creator>
      </cc:Work>
    </rdf:RDF>
  </metadata>
  <g
     id="layer1"
     transform="translate(-107.14279,-248.0614)">
    <g
       transform="matrix(0.3926312,0,0,0.3724982,-776.34311,326.05706)"
       id="g8962">
      <g
         id="g8964">
        <path
           style="fill:#ffff00;fill-rule:evenodd;stroke:#000000;stroke-width:2.61484241px"
           d="M 2417.1034,230.14367 C 2437.7792,270.6352 2462.5092,322.51272 2481.6213,316.16759 C 2485.7434,314.43156 2487.0843,304.35185 2480.9162,271.7454 L 2443.5452,198.06097 C 2438.3744,189.68547 2423.6845,196.02838 2422.7443,204.75956 L 2417.1034,230.14367 z"
           id="path8966" />
        <path
           id="path8968"
           d="M 2448.75,274.90625 L 2455.5625,254.9375 C 2441.7476,237.16261 2420.399,204.75627 2397.5312,164.46875 C 2392.8035,156.13161 2376.6047,161.05119 2380.4688,170.3125 C 2411.3378,228.77386 2433.2735,259.52906 2448.75,274.90625 z"
           style="fill:#ffff00;fill-rule:evenodd;stroke:#000000;stroke-width:2.61484241px" />
      </g>
      <g
         id="g8970">
        <path
           id="path8972"
           d="M 3496.7613,230.14367 C 3476.0855,270.6352 3451.3555,322.51272 3432.2434,316.16759 C 3428.1213,314.43156 3426.7804,304.35185 3432.9485,271.7454 L 3470.3195,198.06097 C 3475.4903,189.68547 3490.1802,196.02838 3491.1204,204.75956 L 3496.7613,230.14367 z"
           style="fill:#ffff00;fill-rule:evenodd;stroke:#000000;stroke-width:2.61484241px" />
        <path
           id="path8974"
           d="M 3458.0938,255.1875 L 3464.9062,275.15625 C 3480.3943,259.85543 3502.3878,229.05677 3533.4062,170.3125 C 3537.2703,161.05119 3521.0714,156.13161 3516.3438,164.46875 C 3493.369,204.94474 3471.9008,237.46949 3458.0938,255.1875 z"
           style="fill:#ffff00;fill-rule:evenodd;stroke:#000000;stroke-width:2.61484241px" />
      </g>
    </g>
    <g
       id="g8976"
       transform="matrix(1,0,0,0.948723,-948.45248,212.22159)">
      <g
         id="g8978"
         transform="matrix(0.3926312,0,0,0.3676466,172.09834,125.47082)">
        <path
           id="path8980"
           d="M 2259.2204,-21.283662 L 2272.7331,-31.983432 C 2311.4576,-42.015166 2345.9865,-5.1561647 2345.7584,10.682852 C 2355.4378,1.8771125 2365.1172,4.8946739 2374.7966,5.4031796 C 2369.0715,24.323836 2374.6588,38.417724 2367.933,58.727869 C 2376.9018,61.51248 2383.922,65.466286 2385.8839,72.455017 L 2394.8593,66.647377 L 2405.9466,66.11941 C 2408.0682,118.87278 2390.8664,107.27819 2394.3314,126.83564 L 2412.8102,104.13305 L 2432.873,106.24492 C 2442.6926,108.10919 2445.4997,119.70711 2456.1035,121.028 C 2448.6204,131.14379 2444.0648,148.93881 2437.0967,161.15351 C 2428.5411,167.36573 2421.0214,166.32701 2413.8661,162.73741 C 2437.1998,171.32522 2443.3152,191.47487 2452.4078,202.33495 C 2442.8483,202.86292 2434.266,203.91886 2430.2332,204.44683 C 2444.9709,225.47479 2453.3864,242.30591 2467.7188,254.07574 L 2459.2713,255.65964 L 2415.45,234.01299 L 2378.4923,195.99935 L 2333.0872,125.77971 L 2331.5033,14.90659 C 2308.3522,3.1126595 2311.8969,-24.252425 2259.2204,-21.283662 z"
           style="fill:#ffff00;fill-rule:evenodd;stroke:#000000;stroke-width:2.70223188;stroke-linecap:round;stroke-linejoin:round" />
        <path
           id="path8982"
           d="M 2257.8362,-20.616681 C 2320.8919,-14.029177 2320.8477,75.112868 2333.4215,127.79032 L 2373.7398,196.05653 C 2399.2369,220.69513 2415.7195,251.3466 2431.4908,254.96012 C 2446.7667,258.46014 2445.7086,251.94142 2461.2488,255.61765 C 2430.8241,242.09199 2444.7548,210.8707 2381.5285,191.93307 C 2401.9742,180.60654 2401.973,211.81094 2442.9223,202.92897 C 2431.6909,174.84125 2407.5516,173.48559 2396.6479,163.06883 C 2413.3552,157.67181 2415.1875,168.41133 2427.3448,163.52699 C 2440.8438,158.10362 2437.7298,137.19185 2448.4202,123.2087 C 2434.4273,117.03541 2423.0526,98.644076 2405.8111,107.63117 C 2399.8195,112.59968 2390.997,129.36741 2381.0704,133.28827 C 2376.8935,110.90798 2390.9375,108.9002 2393.8989,97.551597 C 2396.8332,86.306746 2392.1444,82.889922 2394.8152,66.854712 C 2349.3929,83.616844 2366.535,113.93871 2345.784,127.22348 C 2345.5707,95.009209 2354.6819,108.70922 2371.4489,73.268986 C 2365.119,63.848012 2360.6556,65.626272 2355.4133,62.73125 C 2363.7426,44.729945 2356.2087,33.76933 2365.0347,8.6680782 C 2348.3559,3.0956661 2342.6789,12.13391 2338.0031,17.831328 C 2336.3081,2.2387072 2299.8417,-48.125251 2257.8362,-20.616681 z"
           style="fill:#ffff00;fill-rule:evenodd;stroke:#000000;stroke-width:2.70223212px;stroke-linejoin:round" />
        <path
           d="M 2348.0296,39.81348 C 2334.5871,69.907521 2335.9366,100.00156 2336.9179,130.0956 M 2369.5584,114.12261 C 2366.8543,129.24347 2357.3088,137.52288 2347.3351,145.37411 M 2416.7829,136.3459 C 2392.8246,138.12342 2391.0707,153.39837 2355.6689,158.56919 M 2362.6136,168.29188 C 2379.7719,171.73644 2396.7323,175.37895 2408.4492,184.26487 M 2371.6419,189.8207 C 2395.0107,218.01822 2414.6198,220.55458 2421.6443,234.96176"
           style="fill:none;fill-rule:evenodd;stroke:#000000;stroke-width:1.35111606"
           id="path8984" />
        <g
           transform="matrix(-0.9278259,0.6104274,0.6104274,0.9278259,3844.2704,-1752.9019)"
           id="g8986">
          <path
             id="path8988"
             d="M 2069.0625,730.6875 C 2069.2863,730.69541 2069.4934,730.78125 2069.7188,730.78125 C 2082.4774,730.78125 2092.8126,718.0152 2092.8125,702.28125 C 2092.8125,686.5473 2082.4773,673.78126 2069.7188,673.78125 C 2069.4934,673.78125 2069.2863,673.86709 2069.0625,673.875 L 2069.0625,730.6875 z"
             style="fill:#e3e4e5;stroke:#000000;stroke-width:2.43307877" />
          <path
             id="path8990"
             d="M 2066.2861,668.73151 L 2073.2364,668.73151 L 2073.2364,735.26088 L 2066.2861,735.26088 C 2063.8276,709.57117 2063.4237,685.13585 2066.2861,668.73151 z"
             style="fill:#ffff00;stroke:#000000;stroke-width:2.43307877" />
        </g>
      </g>
      <g
         transform="matrix(-0.3926312,0,0,0.3676466,2494.0922,125.47082)"
         id="g8992">
        <path
           style="fill:#ffff00;fill-rule:evenodd;stroke:#000000;stroke-width:2.70223188;stroke-linecap:round;stroke-linejoin:round"
           d="M 2259.2204,-21.283662 L 2272.7331,-31.983432 C 2311.4576,-42.015166 2345.9865,-5.1561647 2345.7584,10.682852 C 2355.4378,1.8771125 2365.1172,4.8946739 2374.7966,5.4031796 C 2369.0715,24.323836 2374.6588,38.417724 2367.933,58.727869 C 2376.9018,61.51248 2383.922,65.466286 2385.8839,72.455017 L 2394.8593,66.647377 L 2405.9466,66.11941 C 2408.0682,118.87278 2390.8664,107.27819 2394.3314,126.83564 L 2412.8102,104.13305 L 2432.873,106.24492 C 2442.6926,108.10919 2445.4997,119.70711 2456.1035,121.028 C 2448.6204,131.14379 2444.0648,148.93881 2437.0967,161.15351 C 2428.5411,167.36573 2421.0214,166.32701 2413.8661,162.73741 C 2437.1998,171.32522 2443.3152,191.47487 2452.4078,202.33495 C 2442.8483,202.86292 2434.266,203.91886 2430.2332,204.44683 C 2444.9709,225.47479 2453.3864,242.30591 2467.7188,254.07574 L 2459.2713,255.65964 L 2415.45,234.01299 L 2378.4923,195.99935 L 2333.0872,125.77971 L 2331.5033,14.90659 C 2308.3522,3.1126595 2311.8969,-24.252425 2259.2204,-21.283662 z"
           id="path8994" />
        <path
           style="fill:#ffff00;fill-rule:evenodd;stroke:#000000;stroke-width:2.70223212px;stroke-linejoin:round"
           d="M 2257.8362,-20.616681 C 2320.8919,-14.029177 2320.8477,75.112868 2333.4215,127.79032 L 2373.7398,196.05653 C 2399.2369,220.69513 2415.7195,251.3466 2431.4908,254.96012 C 2446.7667,258.46014 2445.7086,251.94142 2461.2488,255.61765 C 2430.8241,242.09199 2444.7548,210.8707 2381.5285,191.93307 C 2401.9742,180.60654 2401.973,211.81094 2442.9223,202.92897 C 2431.6909,174.84125 2407.5516,173.48559 2396.6479,163.06883 C 2413.3552,157.67181 2415.1875,168.41133 2427.3448,163.52699 C 2440.8438,158.10362 2437.7298,137.19185 2448.4202,123.2087 C 2434.4273,117.03541 2423.0526,98.644076 2405.8111,107.63117 C 2399.8195,112.59968 2390.997,129.36741 2381.0704,133.28827 C 2376.8935,110.90798 2390.9375,108.9002 2393.8989,97.551597 C 2396.8332,86.306746 2392.1444,82.889922 2394.8152,66.854712 C 2349.3929,83.616844 2366.535,113.93871 2345.784,127.22348 C 2345.5707,95.009209 2354.6819,108.70922 2371.4489,73.268986 C 2365.119,63.848012 2360.6556,65.626272 2355.4133,62.73125 C 2363.7426,44.729945 2356.2087,33.76933 2365.0347,8.6680782 C 2348.3559,3.0956661 2342.6789,12.13391 2338.0031,17.831328 C 2336.3081,2.2387072 2299.8417,-48.125251 2257.8362,-20.616681 z"
           id="path8996" />
        <path
           id="path8998"
           style="fill:none;fill-rule:evenodd;stroke:#000000;stroke-width:1.35111606"
           d="M 2348.0296,39.81348 C 2334.5871,69.907521 2335.9366,100.00156 2336.9179,130.0956 M 2369.5584,114.12261 C 2366.8543,129.24347 2357.3088,137.52288 2347.3351,145.37411 M 2416.7829,136.3459 C 2392.8246,138.12342 2391.0707,153.39837 2355.6689,158.56919 M 2362.6136,168.29188 C 2379.7719,171.73644 2396.7323,175.37895 2408.4492,184.26487 M 2371.6419,189.8207 C 2395.0107,218.01822 2414.6198,220.55458 2421.6443,234.96176" />
        <g
           id="g9000"
           transform="matrix(-0.9278259,0.6104274,0.6104274,0.9278259,3844.2704,-1752.9019)">
          <path
             style="fill:#e3e4e5;stroke:#000000;stroke-width:2.43307877"
             d="M 2069.0625,730.6875 C 2069.2863,730.69541 2069.4934,730.78125 2069.7188,730.78125 C 2082.4774,730.78125 2092.8126,718.0152 2092.8125,702.28125 C 2092.8125,686.5473 2082.4773,673.78126 2069.7188,673.78125 C 2069.4934,673.78125 2069.2863,673.86709 2069.0625,673.875 L 2069.0625,730.6875 z"
             id="path9002" />
          <path
             style="fill:#ffff00;stroke:#000000;stroke-width:2.43307877"
             d="M 2066.2861,668.73151 L 2073.2364,668.73151 L 2073.2364,735.26088 L 2066.2861,735.26088 C 2063.8276,709.57117 2063.4237,685.13585 2066.2861,668.73151 z"
             id="path9004" />
        </g>
      </g>
    </g>
    <path
       id="path9006"
       d="M 384.69173,355.7638 C 383.32303,355.7806 381.94003,356.64275 381.89423,358.28981 C 380.63393,374.59315 373.96163,400.00532 349.19532,404.60763 C 324.63092,409.17245 302.97252,374.47336 302.05512,360.67612 C 302.06872,358.6164 300.40212,357.81687 298.71772,357.90567 C 296.80882,358.00631 294.87132,359.24537 295.34352,361.0719 C 299.00732,379.90993 295.17182,403.90463 278.16592,408.19293 C 261.23142,412.46323 242.73002,392.422 229.54102,367.43929 C 228.31952,362.71577 221.28752,364.56651 222.63312,368.03296 C 233.37992,394.00719 229.74902,412.28867 222.00742,416.14344 C 212.60532,419.00817 192.99392,396.14178 181.98352,375.98347 C 180.11102,373.25544 173.21622,374.67218 174.85482,378.1719 C 182.86812,393.65791 190.82592,409.14058 191.19812,424.88551 C 190.27862,423.97233 189.08892,422.60982 187.78712,421.02084 L 185.11232,428.45916 C 191.57282,434.54909 195.16402,434.15638 196.96492,432.545 C 200.56782,429.32131 200.63942,422.6543 195.81152,407.79715 C 204.69852,416.76649 218.66922,427.76945 227.66372,421.70763 C 236.65832,415.64582 237.48722,404.71805 236.66972,391.48871 C 247.67292,405.1519 264.40342,419.24744 279.41742,415.74766 C 294.62892,412.20184 301.26852,398.79633 303.30662,381.74555 C 311.68852,397.20028 328.96222,414.86916 350.25062,412.16237 C 370.70223,409.56197 382.45043,386.7482 384.64263,379.24283 C 386.83483,386.7482 398.59523,409.56197 419.04693,412.16237 C 440.33533,414.86916 457.59673,397.20028 465.97863,381.74555 C 468.01673,398.79633 474.65623,412.20184 489.86783,415.74766 C 504.88173,419.24744 521.61223,405.1519 532.61553,391.48871 C 531.79793,404.71805 532.62683,415.64582 541.62153,421.70763 C 550.61603,427.76945 564.58673,416.76649 573.47373,407.79715 C 568.64573,422.6543 568.71733,429.32131 572.32033,432.545 C 574.11303,434.14904 577.68203,434.55534 584.08703,428.55229 L 581.41223,421.11396 C 580.14253,422.65975 578.98873,423.99013 578.08713,424.88551 C 578.45933,409.14058 586.41703,393.65791 594.43033,378.1719 C 596.06903,374.67218 589.18643,373.25544 587.31393,375.98347 C 576.30353,396.14178 556.69223,419.00817 547.29013,416.14344 C 539.54863,412.28867 535.90543,394.00719 546.65203,368.03296 C 547.99773,364.56651 540.96573,362.71577 539.74423,367.43929 C 526.55513,392.422 508.06603,412.46323 491.13153,408.19293 C 474.12563,403.90463 470.27783,379.90993 473.94163,361.0719 C 474.83053,357.63372 467.21333,356.28205 467.24243,360.67612 C 466.32503,374.47336 444.65433,409.17245 420.08983,404.60763 C 395.32363,400.00532 388.66383,374.59315 387.40333,358.28981 C 387.41453,356.57555 386.06033,355.747 384.69173,355.7638 z"
       style="fill:#ffff00;fill-rule:evenodd;stroke:#000000;stroke-width:1.00000012px" />
    <g
       transform="matrix(0.3932193,0,0,0.4030856,-778.8946,312.22841)"
       id="g9036">
      <path
         style="fill:#ffff00;fill-rule:evenodd;stroke:#000000;stroke-width:2.51179409px"
         d="M 2841.4937,4.1306535 C 2841.4937,4.1306535 2870.3725,-1.0198606 2885.9857,22.30469 C 2901.327,45.222815 2938.7491,42.823763 2938.7491,42.823763 L 2922.9201,94.414577 L 2820.911,55.721467 C 2820.2013,55.721467 2827.1702,45.987473 2840.2575,46.927578 C 2853.3448,47.867683 2860.7576,64.760657 2880.7094,56.893986 L 2841.4937,4.1306535 z"
         id="path9038" />
      <path
         id="path9040"
         d="M 3076.5136,4.1306535 C 3076.5136,4.1306535 3047.6348,-1.0198606 3032.0216,22.30469 C 3016.6803,45.222815 2979.2582,42.823763 2979.2582,42.823763 L 2995.0872,94.414577 L 3097.0963,55.721467 C 3097.806,55.721467 3090.8371,45.987473 3077.7498,46.927578 C 3064.6625,47.867683 3057.2497,64.760657 3037.2979,56.893986 L 3076.5136,4.1306535 z"
         style="fill:#ffff00;fill-rule:evenodd;stroke:#000000;stroke-width:2.51179409px" />
      <path
         style="fill:#ffff00;fill-rule:evenodd;stroke:#000000;stroke-width:2.51179409px"
         d="M 2958.754,-131.54692 C 2941.2045,-112.59027 2923.3146,-91.282943 2922.3478,-63.28125 C 2908.2775,-77.947352 2894.1992,-67.690728 2880.129,-65.0625 C 2887.1978,-55.547581 2879.9284,-29.470697 2889.504,-11.6875 C 2879.2621,-10.882304 2874.638,-1.8445669 2868.4102,3.53125 C 2872.6033,19.129459 2920.4561,21.337073 2928.7852,49.84375 C 2876.6841,44.648028 2893.1849,6.9569935 2840.8478,4.125 C 2832.4824,47.226669 2865.8127,38.694181 2868.4102,62.15625 C 2852.497,65.140495 2848.5232,49.066344 2834.6602,49.71875 C 2815.2305,50.633129 2806.8222,71.882706 2794.5352,79.15625 C 2813.4759,84.316103 2820.5909,102.35247 2839.5978,106.71875 C 2849.8698,109.07848 2854.7068,90.913139 2870.754,99.09375 C 2855.0156,120.91851 2839.3164,114.50627 2847.2852,145.40625 C 2906.8551,150.66413 2882.5095,110.07262 2922.3478,116.09375 C 2862.175,153.11712 2895.2352,167.18713 2880.129,195.84375 C 2911.1275,183.2055 2922.2777,191.85297 2959.004,165.53125 C 2995.7303,191.85297 3006.8806,183.2055 3037.879,195.84375 C 3022.7728,167.18713 3055.833,153.11712 2995.6602,116.09375 C 3035.4985,110.07262 3011.153,150.66413 3070.7228,145.40625 C 3078.6916,114.50627 3062.9924,120.91851 3047.254,99.09375 C 3063.3012,90.913139 3068.1382,109.07848 3078.4102,106.71875 C 3097.4171,102.35247 3104.5319,84.316103 3123.4728,79.15625 C 3111.1858,71.882706 3102.7775,50.633129 3083.3478,49.71875 C 3069.4848,49.066344 3065.511,65.140495 3049.5978,62.15625 C 3052.1954,38.694181 3085.5256,47.226669 3077.1602,4.125 C 3024.823,6.9569935 3041.3236,44.648028 2989.2228,49.84375 C 2997.5519,21.337073 3045.4047,19.129459 3049.5978,3.53125 C 3043.37,-1.8445669 3038.7459,-10.882304 3028.504,-11.6875 C 3038.0796,-29.470697 3030.8103,-55.547581 3037.879,-65.0625 C 3023.8088,-67.690728 3009.7305,-77.947352 2995.6602,-63.28125 C 2994.6934,-91.282943 2976.8036,-112.59027 2959.254,-131.54692 L 2959.004,-131.79692 L 2958.754,-131.54692 z"
         id="path9042" />
      <path
         id="path9044"
         style="fill:none;fill-rule:evenodd;stroke:#000000;stroke-width:1.25589705;stroke-linecap:round"
         d="M 2959.4071,53.359306 C 2957.5932,50.094116 2959.4071,-104.41158 2959.4071,-104.41158 M 2949.8963,108.65233 C 2945.1948,127.17986 2928.4754,156.83977 2908.8617,167.3589 M 2929.4579,92.017613 C 2913.8965,92.806823 2885.0981,108.45969 2873.5807,115.80364 M 2926.7369,84.957807 C 2871.7259,89.956102 2849.2762,67.738082 2832.2578,74.662274 M 2929.015,68.946004 C 2929.015,68.946004 2915.5084,65.006384 2899.6694,60.675393 C 2889.4912,57.892275 2883.3286,45.433674 2876.831,38.587737 M 2951.865,50.005519 C 2951.865,50.005519 2951.0501,39.703609 2938.7252,10.834398 C 2926.7798,-17.145053 2911.2512,-32.067432 2911.2512,-32.067432 M 2968.1117,108.65233 C 2972.8133,127.17986 2989.5325,156.83977 3009.1463,167.3589 M 2988.5502,92.017613 C 3004.1116,92.806823 3032.91,108.45969 3044.4273,115.80364 M 2991.2712,84.957807 C 3046.2822,89.956102 3068.7319,67.738082 3085.7503,74.662274 M 2988.9931,68.946004 C 2988.9931,68.946004 3002.4997,65.006384 3018.3387,60.675393 C 3028.5168,57.892275 3034.6795,45.433674 3041.1771,38.587737 M 2966.1429,50.005519 C 2966.1429,50.005519 2966.9579,39.703609 2979.2829,10.834398 C 2991.2283,-17.145053 3006.7569,-32.067432 3006.7569,-32.067432" />
      <g
         id="g9046">
        <path
           style="fill:#ffff00;fill-rule:evenodd;stroke:#000000;stroke-width:1.98300004;stroke-linecap:round;stroke-linejoin:round"
           id="path9048"
           d="M 2989.9221,81.516876 A 27.554184,27.554184 0 1 1 2934.8137,81.516876 A 27.554184,27.554184 0 1 1 2989.9221,81.516876 z"
           transform="matrix(1.3114524,0,0,1.2234043,-925.15005,-19.090606)" />
        <path
           transform="matrix(1.0425532,0,0,0.972312,-128.57176,1.3776492)"
           d="M 2989.9221,81.516876 A 27.554184,27.554184 0 1 1 2934.8137,81.516876 A 27.554184,27.554184 0 1 1 2989.9221,81.516876 z"
           id="path9050"
           style="fill:#e3e4e5;fill-rule:evenodd;stroke:#000000;stroke-width:2.49477887;stroke-linecap:round;stroke-linejoin:round" />
      </g>
    </g>
    <path
       style="fill:#ffff00;fill-rule:evenodd;stroke:#000000;stroke-width:1.00000012px"
       d="M 384.46833,410.76611 C 327.85572,411.33058 270.59252,411.3832 214.99332,422.70669 C 202.58582,426.44552 184.84722,428.53331 180.18972,441.77659 C 178.66182,452.838 192.69032,457.52597 201.45312,460.56594 C 243.19752,472.52938 287.30612,473.5422 330.55842,475.41244 C 397.84893,476.70113 465.57313,477.22427 532.36473,468.29064 C 550.61183,464.92542 570.70413,462.84845 585.70923,451.51081 C 594.66883,443.13191 584.75133,431.41591 574.84683,429.00607 C 540.86963,416.55925 503.81093,415.22362 467.87493,412.68946 C 440.10163,411.24245 412.28003,410.78449 384.46833,410.76611 z"
       id="path9052" />
    <path
       style="fill:#ffff00;fill-rule:evenodd;stroke:#000000;stroke-width:1px"
       d="M 384.64293,424.36335 C 353.78581,424.36335 327.76301,424.93715 305.83044,425.93467 C 301.44377,426.13418 297.20907,426.35638 293.14294,426.58692 C 244.37166,429.3537 218.22029,434.24488 204.20544,438.71278 C 203.03739,439.08519 201.92977,439.44472 200.92419,439.80974 C 195.91267,441.63094 192.83058,443.37454 190.95544,444.79054 C 190.58667,445.0691 190.26908,445.33665 189.98669,445.59102 C 189.6938,445.85485 189.44927,446.09747 189.23669,446.33221 C 187.98352,447.71544 188.01793,448.55578 188.01794,448.55578 L 198.67419,485.28915 L 233.51794,485.28915 L 535.76793,485.28915 L 570.61173,485.28915 L 581.26793,448.55578 C 581.26793,448.55578 581.30233,447.71544 580.04913,446.33221 C 579.83663,446.09747 579.59203,445.85485 579.29913,445.59102 C 577.58453,444.04179 574.37743,441.99588 568.36173,439.80974 C 568.35313,439.80665 568.33893,439.81284 568.33043,439.80974 C 555.25903,435.06547 528.97943,429.58431 476.14293,426.58692 C 476.13293,426.58635 476.12163,426.58749 476.11173,426.58692 C 472.04563,426.35638 467.84193,426.13418 463.45543,425.93467 C 441.52213,424.93714 415.50183,424.36335 384.64293,424.36335 z"
       id="path9054" />
    <g
       transform="matrix(0.4140904,0,0,0.3928571,-275.81251,166.1504)"
       id="g9056">
      <path
         transform="matrix(1.3345865,0,0,1.4473316,-589.58751,-320.19715)"
         d="M 1796.3478,707.07074 A 23.065676,23.065676 0 1 1 1750.2164,707.07074 A 23.065676,23.065676 0 1 1 1796.3478,707.07074 z"
         id="path9058"
         style="fill:#ffff00;fill-rule:evenodd;stroke:#000000;stroke-width:1.78393018px;stroke-linecap:round;stroke-linejoin:round" />
      <path
         style="fill:#ffff00;fill-rule:evenodd;stroke:#000000;stroke-width:1.80437696px;stroke-linecap:round;stroke-linejoin:round"
         id="path9060"
         d="M 1796.3478,707.07074 A 23.065676,23.065676 0 1 1 1750.2164,707.07074 A 23.065676,23.065676 0 1 1 1796.3478,707.07074 z"
         transform="matrix(1.3045113,0,0,1.4473316,-532.96062,-320.19715)" />
      <path
         transform="matrix(1.1541354,0,0,1.2518797,-265.60797,-181.99885)"
         d="M 1796.3478,707.07074 A 23.065676,23.065676 0 1 1 1750.2164,707.07074 A 23.065676,23.065676 0 1 1 1796.3478,707.07074 z"
         id="path9062"
         style="fill:#e3e4e5;fill-rule:evenodd;stroke:#000000;stroke-width:2.06264997px;stroke-linecap:round;stroke-linejoin:round" />
    </g>
    <g
       id="g9064"
       transform="matrix(-0.4140904,0,0,0.3928571,1045.0982,166.1504)">
      <path
         style="fill:#ffff00;fill-rule:evenodd;stroke:#000000;stroke-width:1.78393018px;stroke-linecap:round;stroke-linejoin:round"
         id="path9066"
         d="M 1796.3478,707.07074 A 23.065676,23.065676 0 1 1 1750.2164,707.07074 A 23.065676,23.065676 0 1 1 1796.3478,707.07074 z"
         transform="matrix(1.3345865,0,0,1.4473316,-589.58751,-320.19715)" />
      <path
         transform="matrix(1.3045113,0,0,1.4473316,-532.96062,-320.19715)"
         d="M 1796.3478,707.07074 A 23.065676,23.065676 0 1 1 1750.2164,707.07074 A 23.065676,23.065676 0 1 1 1796.3478,707.07074 z"
         id="path9068"
         style="fill:#ffff00;fill-rule:evenodd;stroke:#000000;stroke-width:1.80437696px;stroke-linecap:round;stroke-linejoin:round" />
      <path
         style="fill:#e3e4e5;fill-rule:evenodd;stroke:#000000;stroke-width:2.06264997px;stroke-linecap:round;stroke-linejoin:round"
         id="path9070"
         d="M 1796.3478,707.07074 A 23.065676,23.065676 0 1 1 1750.2164,707.07074 A 23.065676,23.065676 0 1 1 1796.3478,707.07074 z"
         transform="matrix(1.1541354,0,0,1.2518797,-265.60797,-181.99885)" />
    </g>
    <g
       id="g9072"
       transform="matrix(-0.4051001,7.3613439e-2,0,0.3939808,1031.105,29.023539)">
      <path
         style="fill:none;fill-rule:evenodd;stroke:#000000;stroke-width:2.50311732px;stroke-linecap:round;stroke-linejoin:round"
         d="M 1880.9956,701.45346 L 1931.3921,667.05598 L 1934.6204,667.05598 L 1886.5553,701.45346 L 1880.9956,701.45346 z"
         id="path9074" />
      <path
         id="path9076"
         d="M 1880.9956,701.45346 L 1931.3921,735.85094 L 1934.6204,735.85094 L 1886.5553,701.45346 L 1880.9956,701.45346 z"
         style="fill:none;fill-rule:evenodd;stroke:#000000;stroke-width:2.50311732px;stroke-linecap:round;stroke-linejoin:round" />
      <path
         style="fill:none;fill-rule:evenodd;stroke:#000000;stroke-width:2.50311732px;stroke-linecap:round;stroke-linejoin:round"
         d="M 1934.694,735.73249 L 1979.9545,702.33542 L 1934.7968,667.23235"
         id="path9078" />
      <g
         id="g9080"
         transform="translate(2,0)">
        <path
           id="path9082"
           d="M 1897.0477,701.80623 L 1933.2092,728.44222 L 1968.8414,701.62983 L 1933.0328,675.52302 L 1897.0477,701.80623 z"
           style="fill:#b3b3b3;fill-rule:evenodd;stroke:#000000;stroke-width:2.50311732px;stroke-linecap:round;stroke-linejoin:round" />
        <path
           style="fill:none;fill-rule:evenodd;stroke:#000000;stroke-width:1.50187039;stroke-linecap:round;stroke-linejoin:round"
           d="M 1921.3647,701.8897 L 1940.4932,715.91798 L 1959.3417,701.79679 L 1940.3999,688.04721 L 1921.3647,701.8897 z"
           id="path9084" />
        <path
           id="path9086"
           d="M 1933.0328,728.26583 L 1940.5299,715.91763"
           style="fill:none;fill-rule:evenodd;stroke:#000000;stroke-width:1.50187039;stroke-linecap:round;stroke-linejoin:round" />
        <path
           id="path9088"
           d="M 1968.3123,701.62983 L 1959.2714,701.76241"
           style="fill:none;fill-rule:evenodd;stroke:#000000;stroke-width:1.50187039;stroke-linecap:round;stroke-linejoin:round" />
        <path
           id="path9090"
           d="M 1921.3906,701.80623 L 1897.7533,701.80623"
           style="fill:none;fill-rule:evenodd;stroke:#000000;stroke-width:1.50187039;stroke-linecap:round;stroke-linejoin:round" />
        <path
           id="path9092"
           d="M 1940.4853,688.1802 L 1933.0328,675.52302"
           style="fill:none;fill-rule:evenodd;stroke:#000000;stroke-width:1.50187039;stroke-linecap:round;stroke-linejoin:round" />
      </g>
    </g>
    <g
       transform="matrix(0.4051001,7.3613439e-2,0,0.3939808,-261.81962,29.023539)"
       id="g9094">
      <path
         id="path9096"
         d="M 1880.9956,701.45346 L 1931.3921,667.05598 L 1934.6204,667.05598 L 1886.5553,701.45346 L 1880.9956,701.45346 z"
         style="fill:none;fill-rule:evenodd;stroke:#000000;stroke-width:2.50311732px;stroke-linecap:round;stroke-linejoin:round" />
      <path
         style="fill:none;fill-rule:evenodd;stroke:#000000;stroke-width:2.50311732px;stroke-linecap:round;stroke-linejoin:round"
         d="M 1880.9956,701.45346 L 1931.3921,735.85094 L 1934.6204,735.85094 L 1886.5553,701.45346 L 1880.9956,701.45346 z"
         id="path9098" />
      <path
         id="path9100"
         d="M 1934.694,735.73249 L 1979.9545,702.33542 L 1934.7968,667.23235"
         style="fill:none;fill-rule:evenodd;stroke:#000000;stroke-width:2.50311732px;stroke-linecap:round;stroke-linejoin:round" />
      <g
         transform="translate(2,0)"
         id="g9102">
        <path
           style="fill:#b3b3b3;fill-rule:evenodd;stroke:#000000;stroke-width:2.50311732px;stroke-linecap:round;stroke-linejoin:round"
           d="M 1897.0477,701.80623 L 1933.2092,728.44222 L 1968.8414,701.62983 L 1933.0328,675.52302 L 1897.0477,701.80623 z"
           id="path9104" />
        <path
           id="path9106"
           d="M 1921.3647,701.8897 L 1940.4932,715.91798 L 1959.3417,701.79679 L 1940.3999,688.04721 L 1921.3647,701.8897 z"
           style="fill:none;fill-rule:evenodd;stroke:#000000;stroke-width:1.25155854;stroke-linecap:round;stroke-linejoin:round" />
        <path
           style="fill:none;fill-rule:evenodd;stroke:#000000;stroke-width:1.25155854;stroke-linecap:round;stroke-linejoin:round"
           d="M 1933.0328,728.26583 L 1940.5299,715.91763"
           id="path9108" />
        <path
           style="fill:none;fill-rule:evenodd;stroke:#000000;stroke-width:1.25155854;stroke-linecap:round;stroke-linejoin:round"
           d="M 1968.3123,701.62983 L 1959.2714,701.76241"
           id="path9110" />
        <path
           style="fill:none;fill-rule:evenodd;stroke:#000000;stroke-width:1.25155854;stroke-linecap:round;stroke-linejoin:round"
           d="M 1921.3906,701.80623 L 1897.7533,701.80623"
           id="path9112" />
        <path
           style="fill:none;fill-rule:evenodd;stroke:#000000;stroke-width:1.25155854;stroke-linecap:round;stroke-linejoin:round"
           d="M 1940.4853,688.1802 L 1933.0328,675.52302"
           id="path9114" />
      </g>
    </g>
    <g
       id="g9116"
       transform="matrix(0.4140904,0,0,0.3928571,-276.00608,164.6709)">
      <rect
         rx="32.551369"
         ry="33.918144"
         y="669.16895"
         x="1531.7725"
         height="67.836288"
         width="127.29893"
         id="rect9118"
         style="fill:#ffff00;stroke:#000000;stroke-width:2.47933507" />
      <rect
         style="fill:#999999;stroke:#000000;stroke-width:2.47933507"
         id="rect9120"
         width="114.54353"
         height="58.579422"
         x="1538.15"
         y="673.79742"
         ry="29.289711"
         rx="29.289711" />
    </g>
    <path
       id="path9122"
       d="M 186.98992,421.32734 L 184.28992,426.98929 C 184.94352,427.64796 185.63152,428.29029 186.34372,428.92118 L 188.13092,422.20183 C 187.83382,421.80406 187.38272,421.26314 186.98992,421.32734 z M 582.35013,421.30934 C 581.86143,421.31768 581.83613,421.33195 581.00133,422.36696 L 583.09143,428.80496 C 583.63233,428.33759 584.17873,427.815 584.70853,427.2732 L 582.35013,421.30934 z"
       style="fill:#ffff00;fill-rule:evenodd;stroke:#000000;stroke-width:1.00000012px;stroke-opacity:0" />
    <g
       transform="matrix(1,0,0,0.948723,1.98706,-70.025894)"
       id="g9124">
      <g
         id="g9126"
         transform="matrix(0.3926312,0,0,0.3926312,-779.60271,412.54467)">
        <path
           id="path9128"
           d="M 2485.2329,-95.278002 L 2496.7533,-100.22003 C 2531.3159,-105.48512 2547.9637,-66.292738 2551.1811,-44.180687 C 2564.464,-48.6434 2582.1477,-53.756284 2602.0537,-48.949992 C 2597.0611,-27.845287 2600.806,-24.752331 2592.9125,3.1149283 C 2612.5774,6.9504256 2613.1813,13.536487 2618.7463,17.422845 C 2594.7465,37.417263 2559.2206,43.064075 2557.5402,68.29544 L 2596.0921,61.538923 C 2614.5069,46.303641 2614.3569,16.371977 2651.3365,15.833077 C 2655.176,59.546917 2630.4067,46.4404 2621.1309,77.834051 C 2650.4091,80.218704 2711.1755,75.75812 2708.9656,84.98801 C 2681.8065,102.72176 2683.7401,108.32786 2669.6189,117.97571 L 2660.4777,118.77059 C 2651.2456,114.60041 2645.7909,99.853448 2631.8619,108.83454 C 2631.8613,108.83437 2639.5592,114.56429 2661.2725,123.5399 C 2682.3089,132.23566 2678.3626,155.33527 2678.3626,155.33527 C 2647.3775,160.12493 2635.0525,151.74265 2621.5284,144.20689 C 2657.9201,170.50465 2647.9813,187.36708 2668.4265,208.59252 L 2663.2598,208.19507 C 2622.0867,210.29206 2601.1447,192.46813 2574.2328,183.15621 C 2577.738,194.24596 2559.2662,213.22859 2553.9632,224.4902 L 2549.9888,224.4902 L 2526.9371,170.43807 C 2524.0489,177.74983 2519.6569,176.03962 2515.8088,177.59203 L 2491.1673,111.21919 C 2474.9846,105.70586 2477.5697,93.936571 2476.462,83.398241 C 2480.2429,83.865074 2480.3041,82.100032 2488.7827,85.385452 L 2477.6543,57.564502 L 2475.6671,38.089837 C 2480.1287,41.105558 2488.4158,39.020665 2487.1929,49.615659 C 2490.2126,61.726044 2494.7397,70.82172 2498.7187,81.013588 L 2511.8343,37.294952 L 2487.1929,-38.219054 L 2501.1034,-43.783244 C 2495.8519,-60.950924 2522.5427,-80.4002 2485.2329,-95.278002 z"
           style="fill:#ffff00;fill-rule:evenodd;stroke:#000000;stroke-width:2.61484241px" />
        <path
           id="path9130"
           d="M 2483.4644,-94.739902 C 2519.0934,-107.49148 2540.9688,-73.142584 2542.7719,-44.705989 C 2559.8595,-49.57461 2576.9904,-53.924315 2594.9882,-47.870609 C 2583.9957,-23.761773 2594.0405,-10.326653 2581.8023,7.5102364 C 2603.4152,9.3453396 2598.5694,14.141763 2610.2838,18.586405 C 2577.1608,47.152116 2548.1357,41.150341 2545.9366,72.384941 C 2599.4456,55.904201 2577.9622,43.277373 2602.8997,28.607701 C 2614.382,21.629729 2628.1807,16.96811 2646.1495,16.476659 C 2650.0431,63.156599 2620.7241,48.633397 2612.921,78.186744 C 2639.8781,74.526694 2643.4502,59.178898 2659.6732,56.761939 C 2675.8963,54.34498 2691.0067,72.173639 2708.387,82.933673 C 2677.2313,95.120135 2673.9193,120.28888 2658.4807,118.10305 C 2644.2664,116.36759 2642.5324,105.38624 2625.5795,112.99756 C 2640.6027,126.3985 2666.3799,124.433 2673.5762,153.61018 C 2636.3291,166.17273 2610.3184,136.68385 2573.3633,135.67734 C 2664.1463,160.73008 2631.0973,188.35054 2663.5549,208.46359 C 2638.7083,205.69625 2618.3646,212.85813 2572.3084,186.31125 C 2573.6017,198.96571 2556.8625,208.85284 2549.1012,224.81412 C 2544.2982,199.6341 2519.5227,187.14674 2524.3117,147.80838 C 2514.8906,148.93606 2529.754,176.48911 2514.2904,177.34483 C 2501.2249,166.07779 2500.2832,150.88886 2500.0496,140.42426 C 2492.4897,131.28203 2502.8971,157.01966 2471.0406,116.16218 C 2468.2233,111.92152 2472.7761,85.457809 2476.3149,83.46111 C 2478.9153,90.039726 2481.3731,96.903509 2487.3911,96.647025 C 2485.2894,86.913368 2483.0733,77.255994 2476.8424,70.275194 C 2473.5372,68.191778 2474.0867,50.203966 2475.7875,38.628997 C 2487.1117,52.528597 2479.1606,74.00408 2497.9398,77.659307 C 2496.8211,42.42572 2466.7756,53.254246 2483.699,19.641279 C 2481.4135,1.5326217 2480.9012,-55.910304 2493.1929,-33.62982 C 2492.1297,-63.929326 2506.1405,-85.336909 2483.4644,-94.739902 z"
           style="fill:#ffff00;fill-rule:evenodd;stroke:#000000;stroke-width:2.61484241px;stroke-linecap:round;stroke-linejoin:round" />
        <path
           d="M 2515.2425,74.654516 C 2499.6142,-14.366177 2526.0441,-41.009267 2508.2366,-83.955084 M 2566.6814,-13.577642 C 2532.8545,15.833077 2524.7876,45.243795 2522.1678,74.654514 M 2554.7581,102.47546 C 2597.9399,105.40856 2618.0849,84.577393 2662.8624,83.398241 M 2551.5786,91.347084 C 2586.4423,86.389686 2595.4342,66.906646 2606.4256,51.60287 M 2556.3479,111.21919 C 2585.0061,111.90028 2609.5709,120.04477 2622.3233,129.50153 M 2543.6297,135.06572 C 2572.3191,167.81286 2590.5363,165.65265 2613.5795,179.57924 M 2538.0655,134.27084 C 2533.814,159.84892 2543.8826,176.4624 2546.8092,189.11785 M 2515.0139,129.50153 C 2511.8706,134.04216 2509.6789,139.53428 2508.6548,146.1941 M 2504.6804,113.60384 C 2491.5851,118.75125 2493.1865,112.11859 2478.4492,115.19361 M 2504.6804,93.731737 C 2499.3812,92.890693 2494.0819,90.266548 2488.7827,81.013588 M 2510.2446,77.834051 C 2506.3268,54.999858 2501.8241,31.288219 2489.5776,-4.0390303"
           style="fill:none;fill-rule:evenodd;stroke:#000000;stroke-width:1.30742121;stroke-linecap:round;stroke-linejoin:round"
           id="path9132" />
        <g
           transform="matrix(-0.748008,0.507597,0.4813713,0.8831979,3520.4688,-1419.3176)"
           id="g9134">
          <path
             transform="matrix(1.3345865,0,0,1.4473316,-589.58751,-320.19715)"
             d="M 1796.3478,707.07074 A 23.065676,23.065676 0 1 1 1750.2164,707.07074 A 23.065676,23.065676 0 1 1 1796.3478,707.07074 z"
             id="path9136"
             style="fill:#ffff00;fill-rule:evenodd;stroke:#000000;stroke-width:1.97773588px;stroke-linecap:round;stroke-linejoin:round" />
          <path
             style="fill:#ffff00;fill-rule:evenodd;stroke:#000000;stroke-width:2.00040388px;stroke-linecap:round;stroke-linejoin:round"
             id="path9138"
             d="M 1796.3478,707.07074 A 23.065676,23.065676 0 1 1 1750.2164,707.07074 A 23.065676,23.065676 0 1 1 1796.3478,707.07074 z"
             transform="matrix(1.3045113,0,0,1.4473316,-532.96062,-320.19715)" />
          <path
             transform="matrix(1.1541354,0,0,1.2518797,-265.60797,-181.99885)"
             d="M 1796.3478,707.07074 A 23.065676,23.065676 0 1 1 1750.2164,707.07074 A 23.065676,23.065676 0 1 1 1796.3478,707.07074 z"
             id="path9140"
             style="fill:#e3e4e5;fill-rule:evenodd;stroke:#000000;stroke-width:2.28673577px;stroke-linecap:round;stroke-linejoin:round" />
        </g>
      </g>
      <g
         transform="matrix(-0.3926312,0,0,0.3926312,1544.9142,412.54467)"
         id="g9142">
        <path
           style="fill:#ffff00;fill-rule:evenodd;stroke:#000000;stroke-width:2.61484241px"
           d="M 2485.2329,-95.278002 L 2496.7533,-100.22003 C 2531.3159,-105.48512 2547.9637,-66.292738 2551.1811,-44.180687 C 2564.464,-48.6434 2582.1477,-53.756284 2602.0537,-48.949992 C 2597.0611,-27.845287 2600.806,-24.752331 2592.9125,3.1149283 C 2612.5774,6.9504256 2613.1813,13.536487 2618.7463,17.422845 C 2594.7465,37.417263 2559.2206,43.064075 2557.5402,68.29544 L 2596.0921,61.538923 C 2614.5069,46.303641 2614.3569,16.371977 2651.3365,15.833077 C 2655.176,59.546917 2630.4067,46.4404 2621.1309,77.834051 C 2650.4091,80.218704 2711.1755,75.75812 2708.9656,84.98801 C 2681.8065,102.72176 2683.7401,108.32786 2669.6189,117.97571 L 2660.4777,118.77059 C 2651.2456,114.60041 2645.7909,99.853448 2631.8619,108.83454 C 2631.8613,108.83437 2639.5592,114.56429 2661.2725,123.5399 C 2682.3089,132.23566 2678.3626,155.33527 2678.3626,155.33527 C 2647.3775,160.12493 2635.0525,151.74265 2621.5284,144.20689 C 2657.9201,170.50465 2647.9813,187.36708 2668.4265,208.59252 L 2663.2598,208.19507 C 2622.0867,210.29206 2601.1447,192.46813 2574.2328,183.15621 C 2577.738,194.24596 2559.2662,213.22859 2553.9632,224.4902 L 2549.9888,224.4902 L 2526.9371,170.43807 C 2524.0489,177.74983 2519.6569,176.03962 2515.8088,177.59203 L 2491.1673,111.21919 C 2474.9846,105.70586 2477.5697,93.936571 2476.462,83.398241 C 2480.2429,83.865074 2480.3041,82.100032 2488.7827,85.385452 L 2477.6543,57.564502 L 2475.6671,38.089837 C 2480.1287,41.105558 2488.4158,39.020665 2487.1929,49.615659 C 2490.2126,61.726044 2494.7397,70.82172 2498.7187,81.013588 L 2511.8343,37.294952 L 2487.1929,-38.219054 L 2501.1034,-43.783244 C 2495.8519,-60.950924 2522.5427,-80.4002 2485.2329,-95.278002 z"
           id="path9144" />
        <path
           style="fill:#ffff00;fill-rule:evenodd;stroke:#000000;stroke-width:2.61484241px;stroke-linecap:round;stroke-linejoin:round"
           d="M 2483.4644,-94.739902 C 2519.0934,-107.49148 2540.9688,-73.142584 2542.7719,-44.705989 C 2559.8595,-49.57461 2576.9904,-53.924315 2594.9882,-47.870609 C 2583.9957,-23.761773 2594.0405,-10.326653 2581.8023,7.5102364 C 2603.4152,9.3453396 2598.5694,14.141763 2610.2838,18.586405 C 2577.1608,47.152116 2548.1357,41.150341 2545.9366,72.384941 C 2599.4456,55.904201 2577.9622,43.277373 2602.8997,28.607701 C 2614.382,21.629729 2628.1807,16.96811 2646.1495,16.476659 C 2650.0431,63.156599 2620.7241,48.633397 2612.921,78.186744 C 2639.8781,74.526694 2643.4502,59.178898 2659.6732,56.761939 C 2675.8963,54.34498 2691.0067,72.173639 2708.387,82.933673 C 2677.2313,95.120135 2673.9193,120.28888 2658.4807,118.10305 C 2644.2664,116.36759 2642.5324,105.38624 2625.5795,112.99756 C 2640.6027,126.3985 2666.3799,124.433 2673.5762,153.61018 C 2636.3291,166.17273 2610.3184,136.68385 2573.3633,135.67734 C 2664.1463,160.73008 2631.0973,188.35054 2663.5549,208.46359 C 2638.7083,205.69625 2618.3646,212.85813 2572.3084,186.31125 C 2573.6017,198.96571 2556.8625,208.85284 2549.1012,224.81412 C 2544.2982,199.6341 2519.5227,187.14674 2524.3117,147.80838 C 2514.8906,148.93606 2529.754,176.48911 2514.2904,177.34483 C 2501.2249,166.07779 2500.2832,150.88886 2500.0496,140.42426 C 2492.4897,131.28203 2502.8971,157.01966 2471.0406,116.16218 C 2468.2233,111.92152 2472.7761,85.457809 2476.3149,83.46111 C 2478.9153,90.039726 2481.3731,96.903509 2487.3911,96.647025 C 2485.2894,86.913368 2483.0733,77.255994 2476.8424,70.275194 C 2473.5372,68.191778 2474.0867,50.203966 2475.7875,38.628997 C 2487.1117,52.528597 2479.1606,74.00408 2497.9398,77.659307 C 2496.8211,42.42572 2466.7756,53.254246 2483.699,19.641279 C 2481.4135,1.5326217 2480.9012,-55.910304 2493.1929,-33.62982 C 2492.1297,-63.929326 2506.1405,-85.336909 2483.4644,-94.739902 z"
           id="path9146" />
        <path
           id="path9148"
           style="fill:none;fill-rule:evenodd;stroke:#000000;stroke-width:1.30742121;stroke-linecap:round;stroke-linejoin:round"
           d="M 2515.2425,74.654516 C 2499.6142,-14.366177 2526.0441,-41.009267 2508.2366,-83.955084 M 2566.6814,-13.577642 C 2532.8545,15.833077 2524.7876,45.243795 2522.1678,74.654514 M 2554.7581,102.47546 C 2597.9399,105.40856 2618.0849,84.577393 2662.8624,83.398241 M 2551.5786,91.347084 C 2586.4423,86.389686 2595.4342,66.906646 2606.4256,51.60287 M 2556.3479,111.21919 C 2585.0061,111.90028 2609.5709,120.04477 2622.3233,129.50153 M 2543.6297,135.06572 C 2572.3191,167.81286 2590.5363,165.65265 2613.5795,179.57924 M 2538.0655,134.27084 C 2533.814,159.84892 2543.8826,176.4624 2546.8092,189.11785 M 2515.0139,129.50153 C 2511.8706,134.04216 2509.6789,139.53428 2508.6548,146.1941 M 2504.6804,113.60384 C 2491.5851,118.75125 2493.1865,112.11859 2478.4492,115.19361 M 2504.6804,93.731737 C 2499.3812,92.890693 2494.0819,90.266548 2488.7827,81.013588 M 2510.2446,77.834051 C 2506.3268,54.999858 2501.8241,31.288219 2489.5776,-4.0390303" />
        <g
           id="g9150"
           transform="matrix(-0.748008,0.507597,0.4813713,0.8831979,3520.4688,-1419.3176)">
          <path
             style="fill:#ffff00;fill-rule:evenodd;stroke:#000000;stroke-width:1.97773588px;stroke-linecap:round;stroke-linejoin:round"
             id="path9152"
             d="M 1796.3478,707.07074 A 23.065676,23.065676 0 1 1 1750.2164,707.07074 A 23.065676,23.065676 0 1 1 1796.3478,707.07074 z"
             transform="matrix(1.3345865,0,0,1.4473316,-589.58751,-320.19715)" />
          <path
             transform="matrix(1.3045113,0,0,1.4473316,-532.96062,-320.19715)"
             d="M 1796.3478,707.07074 A 23.065676,23.065676 0 1 1 1750.2164,707.07074 A 23.065676,23.065676 0 1 1 1796.3478,707.07074 z"
             id="path9154"
             style="fill:#ffff00;fill-rule:evenodd;stroke:#000000;stroke-width:2.00040388px;stroke-linecap:round;stroke-linejoin:round" />
          <path
             style="fill:#e3e4e5;fill-rule:evenodd;stroke:#000000;stroke-width:2.28673577px;stroke-linecap:round;stroke-linejoin:round"
             id="path9156"
             d="M 1796.3478,707.07074 A 23.065676,23.065676 0 1 1 1750.2164,707.07074 A 23.065676,23.065676 0 1 1 1796.3478,707.07074 z"
             transform="matrix(1.1541354,0,0,1.2518797,-265.60797,-181.99885)" />
        </g>
      </g>
    </g>
    <g
       id="g9166"
       transform="matrix(1,0,0,0.948723,-641.85791,-155.61797)">
      <g
         id="g9168">
        <g
           id="g9170"
           transform="matrix(-0.4483888,0.1430547,0.1430547,0.4483888,1663.1061,44.924678)">
          <path
             style="fill:#999999;stroke:#000000;stroke-width:2.18135715"
             d="M 2069.0625,730.6875 C 2069.2863,730.69541 2069.4934,730.78125 2069.7188,730.78125 C 2082.4774,730.78125 2092.8126,718.0152 2092.8125,702.28125 C 2092.8125,686.5473 2082.4773,673.78126 2069.7188,673.78125 C 2069.4934,673.78125 2069.2863,673.86709 2069.0625,673.875 L 2069.0625,730.6875 z"
             id="path9172" />
          <path
             style="fill:#ffff00;stroke:#000000;stroke-width:2.18135715"
             d="M 2066.2861,668.73151 L 2073.2364,668.73151 L 2073.2364,735.26088 L 2066.2861,735.26088 C 2063.8276,709.57117 2063.4237,685.13585 2066.2861,668.73151 z"
             id="path9174" />
        </g>
        <g
           id="g9176"
           transform="matrix(-0.4546188,0.1218147,0.1218147,0.4546188,1690.3983,77.273629)">
          <path
             style="fill:#ffff00;fill-rule:evenodd;stroke:#000000;stroke-width:2.18135715px;stroke-linecap:round;stroke-linejoin:round"
             d="M 2030.1562,670.59375 C 2024.1464,672.34864 2019.4687,685.97673 2019.4688,702.5 C 2019.4688,719.02208 2024.147,732.61853 2030.1562,734.375 L 2030.4062,734.4375 C 2030.7581,734.52049 2031.1088,734.5625 2031.4688,734.5625 L 2042.3125,734.53901 L 2042.3125,716.1875 C 2043.0508,712.02671 2043.4687,707.4081 2043.4688,702.5 C 2043.4688,697.5919 2043.0508,692.94205 2042.3125,688.78125 L 2042.3125,670.60269 L 2030.1562,670.59375 z"
             id="path9178" />
          <path
             style="fill:#ffff00;fill-rule:evenodd;stroke:#000000;stroke-width:1.55531836px;stroke-linecap:round;stroke-linejoin:round"
             id="path9180"
             d="M 2048.3786,702.48627 A 6.0690784,32.088638 0 1 1 2036.2405,702.48627 A 6.0690784,32.088638 0 1 1 2048.3786,702.48627 z"
             transform="matrix(1.9787234,0,0,0.9940993,-1999.3727,4.3345166)" />
          <path
             style="fill:#e3e4e5;fill-rule:evenodd;stroke:#000000;stroke-width:2.18135715px;stroke-linecap:round;stroke-linejoin:round"
             d="M 2042.9551,674.40063 C 2068.1076,682.18138 2066.5129,724.06415 2042.9551,732.3797 C 2026.6088,728.90772 2028.8882,674.66099 2042.9551,674.40063 z"
             id="path9182" />
        </g>
      </g>
      <g
         transform="matrix(-1,0,0,1,2053.0014,0)"
         id="g9184">
        <g
           transform="matrix(-0.4483888,0.1430547,0.1430547,0.4483888,1663.1061,44.924678)"
           id="g9186">
          <path
             id="path9188"
             d="M 2069.0625,730.6875 C 2069.2863,730.69541 2069.4934,730.78125 2069.7188,730.78125 C 2082.4774,730.78125 2092.8126,718.0152 2092.8125,702.28125 C 2092.8125,686.5473 2082.4773,673.78126 2069.7188,673.78125 C 2069.4934,673.78125 2069.2863,673.86709 2069.0625,673.875 L 2069.0625,730.6875 z"
             style="fill:#999999;stroke:#000000;stroke-width:2.18135715" />
          <path
             id="path9190"
             d="M 2066.2861,668.73151 L 2073.2364,668.73151 L 2073.2364,735.26088 L 2066.2861,735.26088 C 2063.8276,709.57117 2063.4237,685.13585 2066.2861,668.73151 z"
             style="fill:#ffff00;stroke:#000000;stroke-width:2.18135715" />
        </g>
        <g
           transform="matrix(-0.4546188,0.1218147,0.1218147,0.4546188,1690.3983,77.273629)"
           id="g9192">
          <path
             id="path9194"
             d="M 2030.1562,670.59375 C 2024.1464,672.34864 2019.4687,685.97673 2019.4688,702.5 C 2019.4688,719.02208 2024.147,732.61853 2030.1562,734.375 L 2030.4062,734.4375 C 2030.7581,734.52049 2031.1088,734.5625 2031.4688,734.5625 L 2042.3125,734.53901 L 2042.3125,716.1875 C 2043.0508,712.02671 2043.4687,707.4081 2043.4688,702.5 C 2043.4688,697.5919 2043.0508,692.94205 2042.3125,688.78125 L 2042.3125,670.60269 L 2030.1562,670.59375 z"
             style="fill:#ffff00;fill-rule:evenodd;stroke:#000000;stroke-width:2.18135715px;stroke-linecap:round;stroke-linejoin:round" />
          <path
             transform="matrix(1.9787234,0,0,0.9940993,-1999.3727,4.3345166)"
             d="M 2048.3786,702.48627 A 6.0690784,32.088638 0 1 1 2036.2405,702.48627 A 6.0690784,32.088638 0 1 1 2048.3786,702.48627 z"
             id="path9196"
             style="fill:#ffff00;fill-rule:evenodd;stroke:#000000;stroke-width:1.55531836px;stroke-linecap:round;stroke-linejoin:round" />
          <path
             id="path9198"
             d="M 2042.9551,674.40063 C 2068.1076,682.18138 2066.5129,724.06415 2042.9551,732.3797 C 2026.6088,728.90772 2028.8882,674.66099 2042.9551,674.40063 z"
             style="fill:#e3e4e5;fill-rule:evenodd;stroke:#000000;stroke-width:2.18135715px;stroke-linecap:round;stroke-linejoin:round" />
        </g>
      </g>
    </g>
    <g
       id="g9200"
       transform="matrix(0.921613,0,0,0.8743555,-843.9554,230.35394)">
      <path
         style="fill:#ffff00;fill-rule:evenodd;stroke:#000000;stroke-width:1.11399102px"
         d="M 1146.9818,293.41513 C 1146.9818,293.41513 1187.1956,272.9797 1333.0953,272.9797 C 1478.5116,272.9797 1519.2087,293.41513 1519.2087,293.41513 C 1519.2087,293.41513 1485.1951,313.85057 1333.0953,313.85057 C 1180.5118,313.85057 1146.9818,293.41513 1146.9818,293.41513 z"
         id="path9202" />
      <g
         id="g9204"
         transform="translate(181.95199,-177.54891)">
        <path
           d="M 1103.7725,494.66239 L 1103.7725,447.38113"
           style="fill:none;stroke:#000000;stroke-width:0.57936627"
           id="path9206" />
        <path
           d="M 1095.2202,494.66239 L 1095.2202,447.38113"
           style="fill:none;stroke:#000000;stroke-width:0.85295802"
           id="path9208" />
        <path
           d="M 1087.1469,494.66239 L 1087.1469,447.38113"
           style="fill:none;stroke:#000000;stroke-width:1.14264381"
           id="path9210" />
        <path
           d="M 1079.1436,494.66239 L 1079.1436,447.38113"
           style="fill:none;stroke:#000000;stroke-width:1.43232906"
           id="path9212" />
        <path
           d="M 1072.0123,494.66239 L 1072.0123,447.38113"
           style="fill:none;stroke:#000000;stroke-width:1.7220099"
           id="path9214" />
        <path
           d="M 1058.4116,492.11312 L 1058.2232,449.07937 M 1064.8594,492.67927 L 1064.8594,447.666"
           style="fill:none;stroke:#000000;stroke-width:2.01169538"
           id="path9216" />
        <path
           d="M 1045.8549,490.17809 L 1045.8549,450.52974 M 1052.2167,491.31025 L 1052.0283,449.11637"
           style="fill:none;stroke:#000000;stroke-width:2.28528762"
           id="path9218" />
        <path
           d="M 1029.0088,487.91377 L 1029.0088,453.079 M 1034.5362,488.47985 L 1034.5362,451.94677 M 1040.2306,489.61201 L 1040.2306,451.6619"
           style="fill:none;stroke:#000000;stroke-width:2.57497263"
           id="path9220" />
        <path
           d="M 1023.1045,487.62889 L 1023.1045,453.92996"
           style="fill:none;stroke:#000000;stroke-width:2.86465812"
           id="path9222" />
        <path
           d="M 1017.5986,485.93058 L 1017.5986,454.49604"
           style="fill:none;stroke:#000000;stroke-width:3.15433908"
           id="path9224" />
        <path
           d="M 1011.6944,485.07956 L 1011.6944,455.9094"
           style="fill:none;stroke:#000000;stroke-width:3.44402456"
           id="path9226" />
        <path
           d="M 999.60603,482.53403 L 999.41755,459.3097 M 1005.8008,483.66627 L 1005.8008,457.61139"
           style="fill:none;stroke:#000000;stroke-width:3.71761703"
           id="path9228" />
        <path
           d="M 993.41113,480.55084 L 993.41113,460.15691"
           style="fill:none;stroke:#000000;stroke-width:3.92683411"
           id="path9230" />
        <path
           d="M 987.73833,478.89702 L 987.73833,461.91433"
           style="fill:none;stroke:#000000;stroke-width:4.21651554"
           id="path9232" />
        <path
           d="M 981.54344,476.6327 L 981.54344,463.33144"
           style="fill:none;stroke:#000000;stroke-width:4.49010658"
           id="path9234" />
        <path
           d="M 975.17634,475.50054 L 975.17634,465.59583"
           style="fill:none;stroke:#000000;stroke-width:4.76371717"
           id="path9236" />
        <path
           d="M 968.43748,473.23838 L 968.43748,468.42508"
           style="fill:none;stroke:#000000;stroke-width:5.6166563"
           id="path9238" />
        <path
           d="M 1137.7985,492.11312 L 1137.7985,448.79823 M 1123.3098,493.53022 L 1123.4981,447.666 M 1112.7499,494.0963 L 1112.7499,447.38113"
           style="fill:none;stroke:#000000;stroke-width:0.28968406"
           id="path9240" />
        <path
           id="path9242"
           style="fill:none;stroke:#000000;stroke-width:0.57936627"
           d="M 1198.5142,494.66239 L 1198.5142,447.38113" />
        <path
           id="path9244"
           style="fill:none;stroke:#000000;stroke-width:0.85295802"
           d="M 1207.0664,494.66239 L 1207.0664,447.38113" />
        <path
           id="path9246"
           style="fill:none;stroke:#000000;stroke-width:1.14264381"
           d="M 1215.1397,494.66239 L 1215.1397,447.38113" />
        <path
           id="path9248"
           style="fill:none;stroke:#000000;stroke-width:1.43232906"
           d="M 1223.143,494.66239 L 1223.143,447.38113" />
        <path
           id="path9250"
           style="fill:none;stroke:#000000;stroke-width:1.7220099"
           d="M 1230.2743,494.66239 L 1230.2743,447.38113" />
        <path
           id="path9252"
           style="fill:none;stroke:#000000;stroke-width:2.01169538"
           d="M 1243.8751,492.11312 L 1244.0635,449.07937 M 1237.4272,492.67927 L 1237.4272,447.666" />
        <path
           id="path9254"
           style="fill:none;stroke:#000000;stroke-width:2.28528762"
           d="M 1256.4317,490.17809 L 1256.4317,450.52974 M 1250.07,491.31025 L 1250.2583,449.11637" />
        <path
           id="path9256"
           style="fill:none;stroke:#000000;stroke-width:2.57497263"
           d="M 1273.2779,487.91377 L 1273.2779,453.079 M 1267.7504,488.47985 L 1267.7504,451.94677 M 1262.056,489.61201 L 1262.056,451.6619" />
        <path
           id="path9258"
           style="fill:none;stroke:#000000;stroke-width:2.86465812"
           d="M 1279.1822,487.62889 L 1279.1822,453.92996" />
        <path
           id="path9260"
           style="fill:none;stroke:#000000;stroke-width:3.15433908"
           d="M 1284.6881,485.93058 L 1284.6881,454.49604" />
        <path
           id="path9262"
           style="fill:none;stroke:#000000;stroke-width:3.44402456"
           d="M 1290.5923,485.07956 L 1290.5923,455.9094" />
        <path
           id="path9264"
           style="fill:none;stroke:#000000;stroke-width:3.71761703"
           d="M 1302.6806,482.53403 L 1302.8691,459.3097 M 1296.4858,483.66627 L 1296.4858,457.61139" />
        <path
           id="path9266"
           style="fill:none;stroke:#000000;stroke-width:3.92683411"
           d="M 1308.8755,480.55084 L 1308.8755,460.15691" />
        <path
           id="path9268"
           style="fill:none;stroke:#000000;stroke-width:4.21651554"
           d="M 1314.5483,478.89702 L 1314.5483,461.91433" />
        <path
           id="path9270"
           style="fill:none;stroke:#000000;stroke-width:4.49010658"
           d="M 1320.7432,476.6327 L 1320.7432,463.33144" />
        <path
           id="path9272"
           style="fill:none;stroke:#000000;stroke-width:4.76371717"
           d="M 1327.1103,475.50054 L 1327.1103,465.59583" />
        <path
           id="path9274"
           style="fill:none;stroke:#000000;stroke-width:5.6166563"
           d="M 1333.8491,473.23838 L 1333.8491,468.42508" />
        <path
           id="path9276"
           style="fill:none;stroke:#000000;stroke-width:0.28968406"
           d="M 1164.4881,492.11312 L 1164.4881,448.79823 M 1178.9769,493.53022 L 1178.7886,447.666 M 1189.5367,494.0963 L 1189.5367,447.38113" />
      </g>
      <path
         style="fill:#ffff00;fill-rule:evenodd;stroke:#000000;stroke-width:1.11399102px"
         d="M 1332.9288,258.95109 C 1276.3163,259.54605 1219.0593,259.60934 1163.4601,271.54484 C 1151.0525,275.48574 1133.3051,277.67952 1128.6476,291.63859 C 1127.1196,303.29783 1141.1347,308.24681 1149.8976,311.45109 C 1191.6419,324.06113 1235.7702,325.13602 1279.0225,327.10734 C 1346.313,328.46567 1414.0122,328.99258 1480.8038,319.57609 C 1499.0509,316.02897 1519.1424,313.83902 1534.1475,301.88859 C 1543.1071,293.05682 1533.2083,280.70993 1523.3038,278.16984 C 1489.3266,265.0503 1452.271,263.65346 1416.3351,260.98234 C 1388.5618,259.45713 1360.7405,258.97046 1332.9288,258.95109 z M 1333.0851,272.98234 C 1478.5013,272.98236 1519.2101,293.41984 1519.2101,293.41984 C 1519.21,293.41983 1485.1848,313.85734 1333.0851,313.85734 C 1180.5015,313.85734 1146.9913,293.41984 1146.9913,293.41984 C 1146.9913,293.41983 1187.1853,272.98234 1333.0851,272.98234 z"
         id="path9278" />
    </g>
  </g>
</svg>
