<?xml version="1.0" encoding="UTF-8" standalone="no"?>
<!-- Created with Inkscape (http://www.inkscape.org/) -->
<svg xmlns:dc="http://purl.org/dc/elements/1.1/" xmlns:cc="http://creativecommons.org/ns#" xmlns:rdf="http://www.w3.org/1999/02/22-rdf-syntax-ns#" xmlns:svg="http://www.w3.org/2000/svg" xmlns="http://www.w3.org/2000/svg" xmlns:sodipodi="http://sodipodi.sourceforge.net/DTD/sodipodi-0.dtd" xmlns:inkscape="http://www.inkscape.org/namespaces/inkscape" width="446.69608" height="332.59109" id="svg2" sodipodi:version="0.32" inkscape:version="0.48.2 r9819" version="1.0" sodipodi:docname="earl.svg" inkscape:output_extension="org.inkscape.output.svg.inkscape">
  <defs id="defs4">
    <inkscape:perspective sodipodi:type="inkscape:persp3d" inkscape:vp_x="0 : 526.18109 : 1" inkscape:vp_y="0 : 1000 : 0" inkscape:vp_z="744.09448 : 526.18109 : 1" inkscape:persp3d-origin="372.04724 : 350.78739 : 1" id="perspective10"/>
  </defs>
  <sodipodi:namedview id="base" pagecolor="#ffffff" bordercolor="#666666" borderopacity="1.0" gridtolerance="10000" guidetolerance="10" objecttolerance="10" inkscape:pageopacity="0.0" inkscape:pageshadow="2" inkscape:zoom="1.31" inkscape:cx="69.921374" inkscape:cy="83.50565" inkscape:document-units="px" inkscape:current-layer="body" showgrid="false" inkscape:window-width="1151" inkscape:window-height="874" inkscape:window-x="119" inkscape:window-y="5" inkscape:window-maximized="0" inkscape:snap-global="false" showguides="true" inkscape:guide-bbox="true" fit-margin-top="0" fit-margin-left="0" fit-margin-right="0" fit-margin-bottom="0">
    <sodipodi:guide orientation="0,1" position="50.455725,-7.9313" id="guide3145"/>
  </sodipodi:namedview>
  <metadata id="metadata7">
    <rdf:RDF>
      <cc:Work rdf:about="">
        <dc:format>image/svg+xml</dc:format>
        <dc:type rdf:resource="http://purl.org/dc/dcmitype/StillImage"/>
        <dc:title/>
      </cc:Work>
    </rdf:RDF>
  </metadata>
  <g inkscape:label="Layer 1" inkscape:groupmode="layer" id="layer1">
    <g id="body">
      <path sodipodi:nodetypes="ccccccccc" inkscape:connector-curvature="0" d="M41.8,320.6   C4.4,309.6 40.7,296.6 28.9,270 18.5,230.2 4.4,257.2 2,224.4 33.7,196.3 146.7,199.8 218.7,196.3   c71,3.49 184,0 216,28.11 -2,32.8 -16,5.8 -27,45.6 -12,26.6 25,39.6 -13,50.6 -28,9 -176,10 -176,10 0,0 -149,-1 -176.9,-10   z " style="fill:#ff0000;stroke:#000000;stroke-width:4;stroke-miterlimit:4;stroke-opacity:1;stroke-dasharray:none" id="path3764"/>
      <path sodipodi:nodetypes="cc" inkscape:connector-curvature="0" id="path3767" d="m16.29,245.8   c88.1,-44.5 305.7,-38.6 411.7,-4.7   " style="fill:#ff0000;stroke:#000000;stroke-width:4;stroke-miterlimit:4;stroke-opacity:1;stroke-dasharray:none"/>
      <path sodipodi:nodetypes="cc" inkscape:connector-curvature="0" id="path3769" d="m30.1,296.6   c120.3,-29.26 216,-31.27 382,6.527   " style="fill:#ff0000;stroke:#000000;stroke-width:4;stroke-miterlimit:4;stroke-opacity:1;stroke-dasharray:none"/>
      <path sodipodi:nodetypes="ccccccc" inkscape:connector-curvature="0" id="path3771" d="m29,298.6   c107.7,-56.2 377.7,2 377.7,2 0,0 34,31 -90,30 -31,-6 56,-18 33,-29 -84,-15.2 -199,-18.1 -266,3 -23,13 103,17 84,28   C-13.67,326.9 29,298.6 29,298.6   z " style="opacity:0.5;fill:#333333;fill-opacity:1;stroke:none"/>
      <path sodipodi:nodetypes="ccccc" inkscape:connector-curvature="0" id="path3773" d="M22.8,254.5   C130.7,194.8 343.7,226.4 419.7,248.6   l9,-8.2   C400.7,227.5 144.7,176 13.4,247.5   z " style="opacity:0.5;fill:#333333;fill-opacity:1;fill-rule:evenodd;stroke:none"/>
      <path sodipodi:nodetypes="ccsccccccccc" inkscape:connector-curvature="0" id="path3796" d="M4.012,221.8   C23.91,195.8 20.1,143.6 27.9,108.6 31.6,136.6 21,196.6 40.5,196.6 71.7,195.6 84.59,175 108.1,86 127.5,161.1 112.2,176.8 149.7,179.6 215.7,157.6 193.7,109.6 213.7,44.09 237.7,117.6 212.7,157.6 263.7,176.6   c53,2 54,-67 67,-83.5 4,28.5 -3,95.5 36,94.5 58,17 42,-52 54,-68 6,43 -17.52,94.96 17.48,104   C379.7,191.9 93.31,183.8 4.012,221.8   z " style="fill:#ff0000;stroke:#000000;stroke-width:4;stroke-miterlimit:4;stroke-opacity:1;stroke-dasharray:none">
        <title id="title3798">ducal points</title>
      </path>
      <path sodipodi:nodetypes="ccccc" inkscape:connector-curvature="0" id="path3067" d="m49.77,255.3   c25.62,-11.16 38.02,-10.74 38.02,-10.74   l4.132,9.091   c-8.678,7.025 -39.67,14.05 -39.67,14.05   z " style="fill:none;stroke:#000000;stroke-width:2;stroke-linecap:butt;stroke-linejoin:miter;stroke-opacity:1"/>
      <path inkscape:connector-curvature="0" id="path3069" d="m114.2,238.4 -6.198,9.917 9.091,7.438 6.612,-9.091   z " style="fill:none;stroke:#000000;stroke-width:2;stroke-linecap:butt;stroke-linejoin:miter;stroke-opacity:1"/>
      <path style="fill:none;stroke:#000000;stroke-width:2;stroke-linecap:butt;stroke-linejoin:miter;stroke-opacity:1" d="m341.8,245.3   c32.23,2.479 34.23,2.992 52.41,10.02   l-8.264,10.33   C367.3,258.2 344.3,257.7 344.3,257.7   z " id="path3071" inkscape:connector-curvature="0" sodipodi:nodetypes="ccccc"/>
      <path sodipodi:nodetypes="ccccc" style="fill:none;stroke:#000000;stroke-width:2;stroke-linecap:butt;stroke-linejoin:miter;stroke-opacity:1" d="m318.4,238 -9.504,7.438 6.198,11.57 10.74,-8.678   z " id="path3073" inkscape:connector-curvature="0"/>
      <path inkscape:connector-curvature="0" id="path3075" d="m218.4,230 -9.504,7.438 9.091,11.98 7.851,-9.091   z " style="fill:none;stroke:#000000;stroke-width:2;stroke-linecap:butt;stroke-linejoin:miter;stroke-opacity:1" sodipodi:nodetypes="ccccc"/>
      <path style="fill:none;stroke:#000000;stroke-width:2;stroke-linecap:butt;stroke-linejoin:miter;stroke-opacity:1" d="m144.2,236.7   c28.51,-5.785 37.6,-2.893 37.6,-2.893   l0,10.74   c-16.12,0.8264 -36.78,2.893 -36.78,2.893   z " id="path3077" inkscape:connector-curvature="0" sodipodi:nodetypes="ccccc"/>
      <path sodipodi:nodetypes="ccccc" inkscape:connector-curvature="0" id="path3079" d="m244.2,232.7   c21.07,1.653 37.6,5.107 37.6,5.107   l0,10.74   c-20.25,-4.132 -36.78,-5.107 -36.78,-5.107   z " style="fill:none;stroke:#000000;stroke-width:2;stroke-linecap:butt;stroke-linejoin:miter;stroke-opacity:1"/>
      <path sodipodi:nodetypes="zzz" inkscape:connector-curvature="0" id="path3081" d="M215.1,47.87   C245.6,49.32 246.5,2.516 218,2.004 189.4,1.493 184.5,46.43 215.1,47.87   z " style="fill:#f2f2f2;stroke:#000000;stroke-width:4;stroke-linecap:butt;stroke-linejoin:miter;stroke-opacity:1"/>
      <path style="fill:#f2f2f2;stroke:#000000;stroke-width:4;stroke-linecap:butt;stroke-linejoin:miter;stroke-opacity:1" d="m327.1,101.9   c30.58,1.446 31.42,-45.36 2.893,-45.87 -28.53,-0.5114 -33.47,44.42 -2.893,45.87   z " id="path3083" inkscape:connector-curvature="0" sodipodi:nodetypes="zzz"/>
      <path sodipodi:nodetypes="zzz" inkscape:connector-curvature="0" id="path3085" d="m421.1,123.9   c30.58,1.446 31.42,-45.36 2.893,-45.87 -28.53,-0.5114 -33.47,44.42 -2.893,45.87   z " style="fill:#f2f2f2;stroke:#000000;stroke-width:4;stroke-linecap:butt;stroke-linejoin:miter;stroke-opacity:1"/>
      <path style="fill:#f2f2f2;stroke:#000000;stroke-width:4;stroke-linecap:butt;stroke-linejoin:miter;stroke-opacity:1" d="m107.1,95.87   c30.58,1.446 31.42,-45.36 2.893,-45.87 -28.53,-0.5114 -33.47,44.42 -2.893,45.87   z " id="path3087" inkscape:connector-curvature="0" sodipodi:nodetypes="zzz"/>
      <path sodipodi:nodetypes="zzz" inkscape:connector-curvature="0" id="path3089" d="M23.06,115.9   C53.64,117.3 54.48,70.52 25.96,70 -2.569,69.49 -7.515,114.4 23.06,115.9   z " style="fill:#f2f2f2;stroke:#000000;stroke-width:4;stroke-linecap:butt;stroke-linejoin:miter;stroke-opacity:1"/>
      <path sodipodi:nodetypes="ccc" inkscape:connector-curvature="0" id="path3091" d="m3.891,97.01   c0.05827,14.45 32.06,34.35 41.22,-2.29 -3.629,4.234 -37.59,8.944 -41.22,2.29   z " style="opacity:0.5;fill:#333333;stroke:none"/>
      <path style="opacity:0.5;fill:#333333;stroke:none" d="m87.79,77.23   c-3.571,12.03 34.16,34.13 43.32,-2.507 -9.073,3.629 -35.46,14 -43.32,2.507   z " id="path3093" inkscape:connector-curvature="0" sodipodi:nodetypes="ccc"/>
      <path sodipodi:nodetypes="ccc" inkscape:connector-curvature="0" id="path3095" d="m193.8,29.23   c-3.571,12.03 34.16,34.13 43.32,-2.507 -9.073,3.629 -35.46,14 -43.32,2.507   z " style="opacity:0.5;fill:#333333;stroke:none"/>
      <path style="opacity:0.5;fill:#333333;stroke:none" d="m305.8,83.23   c-3.571,12.03 34.16,34.13 43.32,-2.507 -9.073,3.629 -35.46,14 -43.32,2.507   z " id="path3097" inkscape:connector-curvature="0" sodipodi:nodetypes="ccc"/>
      <path sodipodi:nodetypes="ccc" inkscape:connector-curvature="0" id="path3099" d="m399.8,105.2   c-3.571,12.03 34.16,34.13 43.32,-2.507 -9.073,3.629 -35.46,14 -43.32,2.507   z " style="opacity:0.5;fill:#333333;stroke:none"/>
      <path sodipodi:nodetypes="cccccccccccccccccccccccccc" inkscape:connector-curvature="0" id="path3103" d="m45.88,195.5 -1.527,-16.03 -7.634,5.344 -3.817,-7.634 2.29,-5.344 -2.29,-10.69 9.16,1.527 -2.29,-8.397 1.527,-9.16 -1.527,-11.45 4.58,-5.344 7.634,5.344 3.817,-9.16 3.817,5.344 6.107,6.87 -3.817,9.16 9.924,0 6.87,3.817 -4.58,9.16 3.053,8.397 -13.74,5.344 0,9.924 -8.397,-8.397 -3.817,5.344 3.053,16.03   z " style="fill:#ff0000;stroke:#000000;stroke-width:4;stroke-linecap:butt;stroke-linejoin:miter;stroke-opacity:1"/>
      <path style="fill:#ff0000;stroke:#000000;stroke-width:4;stroke-linecap:butt;stroke-linejoin:miter;stroke-opacity:1" d="m145.9,175.5 -1.527,-16.03 -7.634,5.344 -3.817,-7.634 2.29,-5.344 -2.29,-10.69 9.16,1.527 -2.29,-8.397 1.527,-9.16 -1.527,-11.45 4.58,-5.344 7.634,5.344 3.817,-9.16 3.817,5.344 6.107,6.87 -3.817,9.16 9.924,0 6.87,3.817 -4.58,9.16 3.053,8.397 -13.74,5.344 0,9.924 -8.397,-8.397 -3.817,5.344 3.053,16.03   z " id="path3105" inkscape:connector-curvature="0" sodipodi:nodetypes="cccccccccccccccccccccccccc"/>
      <path sodipodi:nodetypes="cccccccccccccccccccccccccc" inkscape:connector-curvature="0" id="path3107" d="m265.9,175.5 -1.527,-16.03 -7.634,5.344 -3.817,-7.634 2.29,-5.344 -2.29,-10.69 9.16,1.527 -2.29,-8.397 1.527,-9.16 -1.527,-11.45 4.58,-5.344 7.634,5.344 3.817,-9.16 3.817,5.344 6.107,6.87 -3.817,9.16 9.924,0 6.87,3.817 -4.58,9.16 3.053,8.397 -13.74,5.344 0,9.924 -8.397,-8.397 -3.817,5.344 3.053,16.03   z " style="fill:#ff0000;stroke:#000000;stroke-width:4;stroke-linecap:butt;stroke-linejoin:miter;stroke-opacity:1"/>
      <path style="fill:#ff0000;stroke:#000000;stroke-width:4;stroke-linecap:butt;stroke-linejoin:miter;stroke-opacity:1" d="m365.9,187.5 -1.527,-16.03 -7.634,5.344 -3.817,-7.634 2.29,-5.344 -2.29,-10.69 9.16,1.527 -2.29,-8.397 1.527,-9.16 -1.527,-11.45 4.58,-5.344 7.634,5.344 3.817,-9.16 3.817,5.344 6.107,6.87 -3.817,9.16 9.924,0 6.87,3.817 -4.58,9.16 3.053,8.397 -13.74,5.344 0,9.924 -8.397,-8.397 -3.817,5.344 3.053,16.03   z " id="path3109" inkscape:connector-curvature="0" sodipodi:nodetypes="cccccccccccccccccccccccccc"/>
      <path inkscape:connector-curvature="0" id="path3111" d="m49.69,145.9 -1.527,27.48   " style="fill:none;stroke:#000000;stroke-width:1px;stroke-linecap:butt;stroke-linejoin:miter;stroke-opacity:1"/>
      <path inkscape:connector-curvature="0" id="path3113" d="m64.2,152.7 -13.74,6.107   " style="fill:none;stroke:#000000;stroke-width:1px;stroke-linecap:butt;stroke-linejoin:miter;stroke-opacity:1"/>
      <path inkscape:connector-curvature="0" id="path3115" d="m38.24,164.9 8.397,6.107   " style="fill:none;stroke:#000000;stroke-width:1px;stroke-linecap:butt;stroke-linejoin:miter;stroke-opacity:1"/>
      <path inkscape:connector-curvature="0" id="path3117" d="m48.17,166.5 16.03,-3.053   " style="fill:none;stroke:#000000;stroke-width:1px;stroke-linecap:butt;stroke-linejoin:miter;stroke-opacity:1"/>
      <path inkscape:connector-curvature="0" id="path3119" d="m151.2,122.2 -0.7633,32.82   " style="fill:none;stroke:#000000;stroke-width:1px;stroke-linecap:butt;stroke-linejoin:miter;stroke-opacity:1"/>
      <path inkscape:connector-curvature="0" id="path3121" d="m169.5,132.9 -16.79,0.7634   " style="fill:none;stroke:#000000;stroke-width:1px;stroke-linecap:butt;stroke-linejoin:miter;stroke-opacity:1"/>
      <path inkscape:connector-curvature="0" id="path3123" d="m140.5,148.2 9.16,3.817   " style="fill:none;stroke:#000000;stroke-width:1px;stroke-linecap:butt;stroke-linejoin:miter;stroke-opacity:1"/>
      <path inkscape:connector-curvature="0" id="path3125" d="m152.7,142.8 10.69,-3.053   " style="fill:none;stroke:#000000;stroke-width:1px;stroke-linecap:butt;stroke-linejoin:miter;stroke-opacity:1"/>
      <path inkscape:connector-curvature="0" id="path3127" d="m274.1,119.9 -3.817,29.77   " style="fill:none;stroke:#000000;stroke-width:1px;stroke-linecap:butt;stroke-linejoin:miter;stroke-opacity:1"/>
      <path inkscape:connector-curvature="0" id="path3129" d="m291.7,131.4 -15.27,3.053   " style="fill:none;stroke:#000000;stroke-width:1px;stroke-linecap:butt;stroke-linejoin:miter;stroke-opacity:1"/>
      <path inkscape:connector-curvature="0" id="path3131" d="m266.5,123 6.107,17.56   " style="fill:none;stroke:#000000;stroke-width:1px;stroke-linecap:butt;stroke-linejoin:miter;stroke-opacity:1"/>
      <path inkscape:connector-curvature="0" id="path3133" d="m262.7,150.4 7.634,-5.344   " style="fill:none;stroke:#000000;stroke-width:1px;stroke-linecap:butt;stroke-linejoin:miter;stroke-opacity:1"/>
      <path inkscape:connector-curvature="0" id="path3135" d="M289.4,142.8 274.9,140.5   " style="fill:none;stroke:#000000;stroke-width:1px;stroke-linecap:butt;stroke-linejoin:miter;stroke-opacity:1"/>
      <path inkscape:connector-curvature="0" id="path3137" d="m374.1,132.1 -5.344,31.3   " style="fill:none;stroke:#000000;stroke-width:1px;stroke-linecap:butt;stroke-linejoin:miter;stroke-opacity:1"/>
      <path inkscape:connector-curvature="0" id="path3139" d="m387.9,145.1 -15.27,0.7634   " style="fill:none;stroke:#000000;stroke-width:1px;stroke-linecap:butt;stroke-linejoin:miter;stroke-opacity:1"/>
      <path inkscape:connector-curvature="0" id="path3141" d="m384.8,155.8 -11.45,0   " style="fill:none;stroke:#000000;stroke-width:1px;stroke-linecap:butt;stroke-linejoin:miter;stroke-opacity:1"/>
      <path inkscape:connector-curvature="0" id="path3143" d="m363.4,135.9 5.344,16.03 -7.634,11.45   " style="fill:none;stroke:#000000;stroke-width:1px;stroke-linecap:butt;stroke-linejoin:miter;stroke-opacity:1"/>
    </g>
  </g>
</svg>
