<?xml version="1.0" encoding="UTF-8" standalone="no"?>
<svg
   width="100"
   height="65"
   version="1.0"
   id="svg531"
   xmlns="http://www.w3.org/2000/svg"
   xmlns:svg="http://www.w3.org/2000/svg"
   xmlns:rdf="http://www.w3.org/1999/02/22-rdf-syntax-ns#"
   xmlns:cc="http://creativecommons.org/ns#"
   xmlns:dc="http://purl.org/dc/elements/1.1/">
  <defs
     id="defs535" />
  <g
     transform="translate(-323.99601 113.40243)"
     id="g529">
    <path
       d="M359.99052-111.99107c.00413.13164.22845 7.1192.22845 7.1192l.06056.96394 1.94458-.11518 2.55286-.13712c.01101.13712-2.19918.3661-2.19918.3661l.30277 4.284955.40873 6.104512c.06881.002742.46791 6.83124.46791 6.83124l-.64682.053475.02697-.001097-8.7337.963331c-.08395.047991-.07109-.002032-.07109-.000662l-1.79319-13.557644-.13588-1.46268-.11973-.68285.7693-.22761-.0633-1.91967-.0578-.50733v-.4566l-.06055-.7857-6.59479-5.58894-21.59819 3.32923.0578.91046.06056.33732.8271 5.4203.41974.11518 2.99786-.25344 2.40788 22.846433.06055.564929 1.00188 6.038695-.26285-.006856c-1.18492.431922-2.00927.991366-2.49782 1.700267-.26836.41684-.4046.892641-.46928 1.641308.00137 0 .11697.739068.11697.739068.00138 0 .3991.969428.41424 1.00782.01376.016455.08808.126149.35919.527907 1.18767 1.028387 3.08683 1.490477 3.16665 1.509674.05092.078156.15001.847391.15001.847391l.55323 5.198158-.00963.171399.11698.899497c-.17065.020567-.32754.054847-.37433.071301-.00413 0-.22157.097354-.22157.097354s-.57663.285206-.57801.285206c0 .004114-.47892.470316-.47892.470316.00138 0-.40598.608806-.40598.608806-.23808.519679-.35919 1.143568-.35919 1.855212 0 .128892.00413.260525.01239.396273.06743 1.043471.26148 1.774311.41424 2.204863.00275-.002742.63718.718501.63718.718501.82435.575897 1.84274.640343 2.24184.640343l.87665-.053476c-.00551 0 1.12436-.108324 1.12436-.108324 5.58602-.536133 11.4638-.935148 17.47232-1.184702l9.23572-.341426c.00138 0 9.47931-.113808 9.47931-.113808 7.94897-.117922 16.10988.013712 24.24877.390787l2.65608.105582.22845.013712 2.14137.101467c.00138 0 1.80283.065816 1.80283.065816l6.76681.337312h.71013c.10046.005485 2.38496.13849 3.66071-1.055811.53809-.501854.81058-1.172363.81058-1.992331l-.1156-1.079121c-.56975-2.198009-2.39185-2.416028-2.46891-2.424254-.06193-.078158-.00138-1.066782-.00138-1.066782.01789-.234472.22157-2.410541.29451-3.233251 0 .005485.0633-.349653.0633-.349653-.00825-.00137-.01238-.038393-.01238-.10421 0-.468944.18441-2.361179.18441-2.361179.09771-.049361.32754-.067188.34543-.068559.00825-.00137.07018-.016455.31377-.075414.79407-.255041 2.21432-.856992 2.75792-2.008785.06331-.060332.0867-.101468.0867-.145346-.00138-.006856-.00138-.015083-.00138-.026053 0-.198821.17478-.918693.17478-.918693l-.02064-.322228c-.13762-1.792138-.87114-2.609363-1.29639-2.938448.00551.004114-1.14225-.564928-1.14225-.564928l-.05092-.020568-.13762-.100096.15138-.946116.71013-4.742927c.03027-.207048.31102-1.905945.41148-2.544916l.5381-3.392311c0 .004114.38947-2.561371.38947-2.561371l.54635-3.533542c.02477-.22076.33029-2.122593.44039-2.839722l.50094-3.203086c.00137-.001371.76654-4.800514.76654-4.800514l2.70975-.73359-.05917-.18511c-.00964-.01508.87802-5.30922.87802-5.30922l.1734-1.41232-7.53473-1.07501-13.89006-1.91555-6.23072 5.60452-.64756.3862v.39626l-.06606.95983.42897 1.16358 1.46209.79848c.03027.06444-1.75775 15.516799-1.75775 15.516799-.07432.060331-9.89257-.701416-9.89257-.701416l.07706-.063484-.96826-1.013898c-.00964-.001372.7407.110398.7407-.051401 0-1.114774-.56179-5.710316-.56179-5.710316-.00964-.00137.6721.104914.6721-.066484 0-1.180589.18854-6.100878.18854-6.100878l.12524-3.610342.20178-.71871c-.00275-.00411-.00275-.00823-.00275-.01234 0-.05759 1.33038-.05899 1.33038-.05899s.31728-7.81763.31728-7.82586c-.0055.03702-1.53344-.2408-1.53344-.2408.00413 0-1.20693-.08637-1.20693-.08637-2.69599-.19334-8.30816-.59647-12.21521-.59647-.00826 0-12.05007.71164-12.42715.73358zM328.5731-101.0874l.00688-.13439 17.41177-2.68751.05642.46483c-.05917.06308-12.77808 1.84835-12.77808 1.84835-.00275 0-4.11486.60606-4.11486.60606l-.14725.01647-.43488-.11381zm21.25138 21.002419 2.38359-.234472c3.11436-.330455 8.32743-.885785 11.8863-.888527l.00413.292062-3.1061.165913c-.00137 0-11.35233.999594-11.35233.999594l.18441-.33457zm-1.07619.474431c.09496-.069932.55874-.10284.55874-.10284l.15964-.010968-.09496.122034-.45002.545731c-.1211-.03565-.1734-.553957-.1734-.553957zm46.17174-.270124c.01238-.137119 1.50144-.023309 1.50144-.023309l.91105.112436c.00137 0 .83948.11655.83948.11655-.01789.135748-1.75741-.054847-1.75741-.054847l-1.49456-.15083zm3.66759.374334-.09496-.145346.04129.005484.77067.190595.08395.001371.139.082272-.16515.837792-.7748-.972168z"
       id="path451"
       style="fill:#ffff00" />
    <path
       fill="none"
       stroke="#000"
       stroke-miterlimit="2.41420007"
       stroke-width="1.24753141"
       d="M385.82381-112.04239c-1.69962-.1101-8.76506-.6826-13.41389-.6826-5.23647.22983-12.41751.73627-12.41751.73627"
       id="path453" />
    <path
       fill="none"
       stroke="#000"
       stroke-miterlimit="2.41420007"
       stroke-width="1.24753434"
       d="m415.84027171-108.75600584-13.83087834-1.97898538-.05504827.05642448"
       id="path455" />
    <path
       fill="none"
       stroke="#000"
       stroke-miterlimit="2.41420007"
       stroke-width="1.24753141"
       d="m418.96283-95.203125.76935-4.819485"
       id="path457" />
    <path
       fill="none"
       stroke="#000"
       stroke-miterlimit="2.41420007"
       stroke-width="1.24753434"
       d="m415.4315383-72.30441633.7087465-4.75892312.94132545-5.9520944.93857304-6.12136785m-4.35018969 32.08488533.05504826-1.01976924.22707413-3.23683839m-60.90540815-40.1329427-.76379477.22982653.11835379.68122237 2.00238089 15.07221687 8.70863663-.96472096.64544099-.05504827h.11835378"
       id="path459" />
    <path
       fill="none"
       stroke="#000"
       stroke-miterlimit="2.41420007"
       stroke-width="1.24753434"
       d="M364.17196362-80.58505265v-.2229455l-.06192931-.2821224-.35230894-5.38784961-.47479135-6.85626228-.405981-6.12274406-.29588447-4.30477487-.35230894-.22982653m23.42303974.11560137-9.5329845-.5683734-2.41111432-.17340207-4.00338558.22845033m16.18143955.3440517v.16927344h-.17477826"
       id="path461" />
    <path
       fill="none"
       stroke="#000"
       stroke-miterlimit="2.41420007"
       stroke-width="1.24753141"
       d="m367.46383-104.2737-5.23509.28212-1.94045.1156h-.06193v-.9661l-.23258-7.14526s5.00114-.79132 13.71528-.79132c7.47418 0 11.12663.56699 12.11888.73627.17615.05505 1.56663.1702 1.56663.1702l-.17891 7.9027-1.32579-.1432"
       id="path463" />
    <path
       fill="none"
       stroke="#000"
       stroke-miterlimit="2.41420007"
       stroke-width=".90649998"
       d="m364.56 6.26-.515.495v.044l-.127.123h-.043l-.048.083-.254 11.823-.039.736v.741l-.087 3.34"
       transform="matrix(1.38358 0 0 1.35092 -117.79964 -112.80007)"
       id="path465" />
    <path
       fill="none"
       stroke="#000"
       stroke-miterlimit="2.41420007"
       stroke-width="1.24753141"
       d="M333.29719-64.854057s11.15234-1.667544 24.51531-2.462991c5.41537-.338547 11.29728-.566998 17.18744-.566998 4.11899 0 8.48019.173402 12.65422.397724 3.41162.163769 6.75856.392219 9.82474.620669 10.0064.796824 17.65123 1.760169 17.65123 1.760169m-82.43527-6.964061s4.57913-1.085373 11.63907-1.98954c4.47267-.62067 10.18255-1.241339 16.95349-1.639063 4.11899-.165144 8.59441-.339923 13.42077-.339923 12.18218 0 22.42391.966097 29.60358 1.868889 2.88315.397724 5.29702.791319 7.12462 1.080322 1.88128.338547 3.23959.62067 3.94696.789943h.05505c.34818.053672.52709.11973.52709.11973m-81.71208 14.567163s4.13668-.743166 9.84519-1.195938c2.70975-.167897 5.88328-.397724 9.4738-.619293 3.05931-.114225 6.3567-.283499 9.82887-.392219 3.71163-.11973 7.59529-.169273 11.59592-.169273 6.88241 0 12.76845.10872 17.71453.33717 12.35696.458277 18.95175 1.307397 20.95826 1.590895h.05504c.41424.059177.64269.114225.64269.114225"
       id="path467" />
    <path
       fill="none"
       stroke="#000"
       stroke-miterlimit="2.41420007"
       stroke-width="1.24753434"
       d="m324.79731086-106.14396534.82021925 5.44014548v.17340206l.41423825-.06468172"
       id="path469" />
    <path
       fill="none"
       stroke="#000"
       stroke-miterlimit="2.41420007"
       stroke-width=".90649998"
       d="m339.884 9.129.17-3.114-4.79-4.077-.511.08-15.182 2.348h-.044l.085.658.732 4.341.253-.059 1.798-.328 12.659-2.056.039.328 2.053 17.381.045.416.383-.495.171-.163 2.824-3.379.04-.047"
       transform="matrix(1.38302 0 0 1.35072 -117.29749 -113.35697)"
       id="path471" />
    <path
       fill="none"
       stroke="#000"
       stroke-miterlimit="2.41420007"
       stroke-width="1.24753141"
       d="M362.58105-103.76176s1.94458-.28349 4.88278-.50644c.7115-.05918 1.47392-.12111 2.24047-.12111 1.23308-.05504 2.59277-.10734 4.00201-.10734.82572 0 1.64594 0 2.41662.05505 4.58965 0 8.12099.22982 9.47518.45139m-51.54127 42.572974s2.21664-.514715 4.74749-.737661c1.35281-.169273 3.05655-.342675 4.99976-.513325 1.41061-.114225 2.88728-.22845 4.53185-.337171 3.00563-.229826 6.3567-.452772 10.00364-.62755 1.52897-.055048 3.12262-.163769 4.76718-.22845 1.52897-.055049 3.17629-.110097 4.76718-.110097 2.34919-.055048 4.70526-.11973 7.11775-.11973 4.11761 0 8.47881.11973 12.65284.344052 1.76155.053672 3.53272.167897 5.29564.283498 1.41062.114226 2.88453.169274 4.23459.283499 3.77081.284875 7.24023.572502 10.0642.850496 3.18317.284875 5.53786.566997 6.77094.682598m-24.2928-18.647601c2.29001.167897 4.53047.390843 6.70488.681222.76517.053672 1.47254.10872 2.18129.229827.22707 0 .46928.053672.69911.053672h.1734c1.88403.22845 3.65108.452772 5.35344.681222 1.53172.169274 2.94509.338547 4.24147.566997 3.75842.513325 6.35533.911049 6.99802 1.025274h.1211m-83.74493-.229826s2.94095-.517454 7.65308-1.193171c1.12299-.169274 2.35469-.338547 3.71163-.452773 1.52759-.229826 3.23822-.451395 5.06169-.572502.17891-.055048.35093-.10872.58489-.10872 3.52997-.397724 7.42051-.741775 11.53536-1.023898.99913-.055048 2.05743-.110096 3.17629-.169273 3.17628-.163769 6.4778-.283499 9.76832-.283499 3.94283 0 8.29302.228451 12.65422.572502"
       id="path473" />
    <path
       fill="none"
       stroke="#000"
       stroke-miterlimit="2.41420007"
       stroke-width=".90649998"
       d="m334.88 2.677.174 3.706 1.111.087 3.849 1.853"
       transform="matrix(1.35185 0 0 1.69597 -106.89552 -114.74426)"
       id="path475" />
    <path
       fill="none"
       stroke="#000"
       stroke-miterlimit="2.41420007"
       stroke-width="1.24753434"
       d="m404.84025076-103.4837576-2.83085739-.39221893-2.52396327 24.54602448-.11972999-.4665341-.76241857-.27524136-.06605792-.1211062-3.24784805-5.26949584"
       id="path477" />
    <path
       fill="none"
       stroke="#000"
       stroke-miterlimit="2.41420007"
       stroke-width="1.24753434"
       d="m385.18251283-86.47797016 10.18255411.7913189 1.8207216-15.5249889-1.59364747-.73627064-.52158238-2.3257895 6.88378641-6.40486644 21.41790643 3.00150703-.17340206 1.417493-.58488789 5.44014548-.2449648-.05367206-14.4694383-2.09871537"
       id="path479" />
    <path
       fill="none"
       stroke="#000"
       stroke-miterlimit="2.41420007"
       stroke-width="1.24753141"
       d="m402.18964-104.49802-5.22956 3.31665m5.54196-8.82975-.4927 5.86127m-70.0888 20.736687s1.41199-.338547 4.00201-.791319c1.76292-.344051 4.18092-.734894 7.06132-1.07757 1.52896-.229826 3.23959-.392218 5.11949-.622045.23258 0 .52846-.059177.76379-.059177m15.3048-1.75604h10.53761c2.35194 0 3.58915-.060553 4.5346-.060553 1.34869-.055048 2.16891-.055048 5.11261.229827.29451 0 .58902 0 .88353.059177h.05505m15.59655 1.804207c1.71062.22845 3.35794.458277 4.82498.626174 3.00426.451396 5.4773.849119 7.35445 1.252348 1.94595.339923 3.29739.616541 3.94421.791319h.06055c.29451.055048.47066.10872.47066.10872m-86.68451-6.572763s1.41199-.335795 4.00063-.794072c1.17253-.22845 2.52947-.452772 4.18092-.734894 2.29414-.3991 5.11811-.796824 8.29164-1.194548m15.77684-1.129865h.17202c1.76705-.114225 3.5341-.169274 5.35345-.169274 1.70925-.055048 3.46942-.055048 5.2984-.055048h.76654c1.53034 0 3.05793 0 4.53047.055048 1.82486 0 3.58502 0 5.2984.169274.23533-.059177.53535 0 .76517 0m16.13052 1.531718c1.75742.229826 3.46667.452772 4.99838.682598 1.47392.173402 2.76893.397724 4.00477.626174 1.52621.229827 2.82397.458277 3.94558.682599 1.70099.282122 2.8804.506444 3.5864.681222h.05504c.41424.053672.58902.114226.58902.114226m-88.27678-6.586526s1.29226-.283499 3.70475-.62755c1.17665-.228451 2.59002-.452772 4.23596-.681223 1.00188-.163768 2.06018-.338547 3.17904-.506444 1.58814-.174778 3.35381-.397723 5.23509-.62755m16.19245-1.411988c3.6497-.22845 7.3572-.22845 11.06332-.22845 1.76155 0 3.58777 0 5.30253.060553 1.9377 0 3.75704.053672 5.46629.162392h.58489m16.66036 1.538599c1.82622.22845 3.53135.452772 5.06582.681223 3.46941.506444 6.35532.96472 8.41688 1.362444 1.70512.338547 2.88728.566997 3.46941.681223h.05918c.29726.055048.41561.10872.41561.10872"
       id="path481" />
    <path
       fill="none"
       stroke="#000"
       stroke-miterlimit="2.41420007"
       stroke-width="1.24753434"
       d="m329.0346516-100.9336464 4.23596453-.62066926 12.7711991-1.87026504.41561446-.0591769m73.98212515 2.5501112-12.53999636-2.03816226-3.05930772-.51194893-1.8220978-.27799378m-69.74753683 2.32028467.76517098 5.21307136v.11835378m.82710029 5.83924546 1.05967923 6.06081474v.0605531"
       id="path483" />
    <path
       fill="none"
       stroke="#000"
       stroke-miterlimit="2.41420007"
       stroke-width="1.24753141"
       d="m336.68909-77.805122.82022 4.596534m3.41296-29.256782.53263 5.04792"
       id="path485" />
    <path
       fill="none"
       stroke="#000"
       stroke-miterlimit="2.41420007"
       stroke-width="1.24753434"
       d="m338.27175164-96.90548909.77205201 5.89842235.05367207.5064441m3.12123702-.5064441.76517098 5.72364408.05504827.3440517m-3.70612491.5064441.76517098 5.94658958v.17477827"
       id="path487" />
    <path
       fill="none"
       stroke="#000"
       stroke-miterlimit="2.41420007"
       stroke-width="1.24753141"
       d="m343.8096-78.823517.52429 4.595162m23.77951-29.763225.2945 4.306155"
       id="path489" />
    <path
       fill="none"
       stroke="#000"
       stroke-miterlimit="2.41420007"
       stroke-width="1.24753434"
       d="M368.6418833-93.55855415v.05504827l.29726067 5.78419718"
       id="path491" />
    <path
       fill="none"
       stroke="#000"
       stroke-miterlimit="2.41420007"
       stroke-width="1.24753141"
       d="m352.81412-75.253632-.53125-4.584144m9.00317 4.077698-.29452-4.824982m8.48019-.276611.23257 4.8181"
       id="path493" />
    <path
       fill="none"
       stroke="#000"
       stroke-miterlimit="2.41420007"
       stroke-width="1.24753434"
       d="m379.4685022-103.9915779-.22707412 4.36670417v.16789723"
       id="path495" />
    <path
       fill="none"
       stroke="#000"
       stroke-miterlimit="2.41420007"
       stroke-width="1.24753141"
       d="M373.94025-99.456978v5.898415"
       id="path497" />
    <path
       fill="none"
       stroke="#000"
       stroke-miterlimit="2.41420007"
       stroke-width="1.24753434"
       d="M379.24142808-93.55855415v5.83924545"
       id="path499" />
    <path
       fill="none"
       stroke="#000"
       stroke-miterlimit="2.41420007"
       stroke-width="1.24753141"
       d="M373.94025-87.719315v6.629197m5.0025.228447v4.588272"
       id="path501" />
    <path
       fill="none"
       stroke="#000"
       stroke-miterlimit="2.41420007"
       stroke-width="1.24753434"
       d="m407.7812047-102.46536456-.77342823 5.2227048-.05367206.33717067m-.52846341 5.60941892v.16927343l-.7087465 6.06631958-.05504828.39909997m3.94420869.51194893-.53672065 6.06081475v.2834986m-21.4124016-2.77993774v.1211062l-.2408362 4.42037624m9.00589731-3.79420214v.2243217l-.52846341 4.35982315"
       id="path503" />
    <path
       fill="none"
       stroke="#000"
       stroke-miterlimit="2.41420007"
       stroke-width="1.24753141"
       d="m404.84021-78.540016-.53534 4.311661m11.88904-27.213115-.76239 5.555743"
       id="path505" />
    <path
       fill="none"
       stroke="#000"
       stroke-miterlimit="2.41420007"
       stroke-width="1.24753434"
       d="m411.42264789-96.39904499-.9922451 5.89842235-.06605793.22982653m4.01301903.50782031-1.2950106 5.95622303-.06605793.39359515m-1.05830303 5.89842234-.53534444 4.42037625v.10872033m-72.85501179 7.65308602.23670757 3.1776615v.39221894m9.24122866-4.58414486.29726067 3.34280632v.2229455"
       id="path507" />
    <path
       fill="none"
       stroke="#000"
       stroke-miterlimit="2.41420007"
       stroke-width="1.24753141"
       d="m357.81387-67.087227.52985 3.291893"
       id="path509" />
    <path
       fill="none"
       stroke="#000"
       stroke-miterlimit="2.41420007"
       stroke-width="1.24753434"
       d="m367.58082786-67.37209116.29726067 3.4019832v.17477827"
       id="path511" />
    <path
       fill="none"
       stroke="#000"
       stroke-miterlimit="2.41420007"
       stroke-width="1.24753141"
       d="M387.65689-67.372101v3.576767"
       id="path513" />
    <path
       fill="none"
       stroke="#000"
       stroke-miterlimit="2.41420007"
       stroke-width="1.24753434"
       d="m397.4802968-66.86427085-.29450826 3.68961043v.39359514m10.59541616-2.834986-.53259204 3.29326287v.05367206"
       id="path515" />
    <path
       fill="none"
       stroke="#000"
       stroke-miterlimit="2.41420007"
       stroke-width="1.24753141"
       d="M376.82617-67.600548v3.516205M343.8096-62.55262l.28897 3.569878"
       id="path517" />
    <path
       fill="none"
       stroke="#000"
       stroke-miterlimit="2.41420007"
       stroke-width="1.24753434"
       d="M353.57792367-63.05905905v3.84787421m9.53436071-4.58414485.28900343 3.96898041v.33717067"
       id="path519" />
    <path
       fill="none"
       stroke="#000"
       stroke-miterlimit="2.41420007"
       stroke-width="1.24753141"
       d="M382.65305-63.795334v3.794201"
       id="path521" />
    <path
       fill="none"
       stroke="#000"
       stroke-miterlimit="2.41420007"
       stroke-width="1.24753434"
       d="M392.95120022-63.79532969v.33854688l-.2408362 3.73915387"
       id="path523" />
    <path
       fill="none"
       stroke="#000"
       stroke-miterlimit="2.41420007"
       stroke-width="1.24753141"
       d="m403.0181-62.55262-.29859 3.341427m-30.37014-4.584141v3.56575m-22.71154-19.608194h.05367c.8849-.11973 9.36371-1.253724 14.41989-1.253724h.05643m20.60044.506444s.70324.059177 1.82622.059177c.35369.055048.70875.055048 1.06106.055048.64406.055049 1.35144.107344 2.06018.169274 2.22946.114225 4.69837.282122 6.70488.506444.81884.11973 1.58952.180283 2.11385.289003.29451.053672.58902.121106.76655.174779"
       id="path525" />
    <path
       fill="none"
       stroke="#000"
       stroke-miterlimit="2.41420007"
       stroke-width="1.23649001"
       d="m422.95388-100.78096-3.10371.68266-.11286.05406h-.06606s-.29592 1.888463-.76527 4.733992l-.9373 5.957361c-.29592 2.002009-.64966 4.064849-.94832 6.012786-.3496 2.114207-.64414 4.117568-.9373 5.846514-.34823 2.002008-.58359 3.672827-.69783 4.674507-.12111.497461-.18168.835409-.18168 1.000328h.06057c.12111.059479.70332.224398 1.29516.616419.81893.562347 1.70669 1.669468 1.29929 3.618756 0 .171678-.06744.279822-.18857.450148.06194.108144 0 .16627-.05229.225749-.53542 1.11388-1.94757 1.723539-2.6509 1.943883-.17892.06083-.29453.112198-.41704.112198-.05229.054072-.11836.054072-.11836.054072s-.1748 1.061159-.40878 2.452157c0 .054071 0 .170325-.06057.33119-.12111 1.007086-.23948 2.173685-.29453 3.175366-.05919.337949-.05919.669139-.05919 1.007087h.05919c.41566 0 2.06179.112199 2.47058 2.39403v.054071c.05918.337949.11424.667787.11424 1.059808 0 3.28351-4.47045 3.005041-4.47045 3.005041h-.71021l-2.52977-.054073-38.49427-.669138-34.14495 1.445069-.76526.059478h-.11699c-.41015 0-1.41215-.059478-2.23246-.616417-.23537-.112199-.41155-.27847-.58635-.497461-.11561-.117606-.17755-.225751-.23536-.392021 0 0-.05367 0-.05367-.05272-.23536-.390669-.41566-.836761-.47071-1.451828 0-1.226078.23535-2.112856.64826-2.730626.0578-.278471.23398-.450148.41429-.611011l1.46308-.894889c.0578-.05272.11698-.05272.11698-.05272 0-.283878 0-.563699-.05918-.835409v-.166271c-.11837-2.5603-.70332-5.960065-.70332-5.960065s-1.94343-.444741-3.17941-1.497789c-.17618-.171678-.29454-.337949-.35097-.508275-.23537-.22575-.41292-.498812-.47073-.777282-.05781-.336597-.05781-.669138-.05781-.940849.05781-.670491.17618-1.1666.46936-1.615396.58632-1.167951 1.82506-1.504548 2.41138-1.611339.06057 0 .06057 0 .11838-.058128h.23397l-.71707-5.950602-.26978-1.461291-.83821-10.468302-1.64751-11.248288"
       id="path527" />
  </g>
  <metadata
     id="metadata1208">
    <rdf:RDF>
      <cc:Work
         rdf:about="">
        <dc:creator>
          <cc:Agent>
            <dc:title>https://commons.wikimedia.org/wiki/File:Mural_crown_(Bundesadler).svg</dc:title>
          </cc:Agent>
        </dc:creator>
      </cc:Work>
    </rdf:RDF>
  </metadata>
</svg>
