<?xml version="1.0" encoding="UTF-8" standalone="no"?>
<svg xmlns:dc="http://purl.org/dc/elements/1.1/"
                xmlns:cc="http://creativecommons.org/ns#"
                xmlns:rdf="http://www.w3.org/1999/02/22-rdf-syntax-ns#"
                xmlns:svg="http://www.w3.org/2000/svg"
                xmlns="http://www.w3.org/2000/svg"
                width="125"
                height="121"
                version="1.1" >
  <metadata>
    <rdf:RDF>
      <cc:Work rdf:about="">
        <dc:format>image/svg+xml</dc:format>
        <dc:type rdf:resource="http://purl.org/dc/dcmitype/StillImage"/>
        <cc:license rdf:resource=""/>
        <dc:title/>
        <dc:creator>
          <cc:Agent>
            <dc:title>(Drawshield internal)</dc:title>
          </cc:Agent>
        </dc:creator>
      </cc:Work>
    </rdf:RDF>
  </metadata>
<g style="fill:#ffff00;fill-opacity:1;fill-rule:evenodd;stroke:#000000;stroke-width:3;stroke-linecap:butt;stroke-linejoin:miter;stroke-miterlimit:4;stroke-opacity:1;stroke-dasharray:none" id="body"><path fill-rule="evenodd"  stroke-width="2" d="M 50.31,70.54 C 50.17,63.15 37.93,65.13 35.38,70.69 C 35.05,71.42 18.83,84.54 9.30,67.45 C 7.50,56.66 0.48,60.62 1.02,50.19 C 1.50,41.04 3.00,47.67 13.08,39.93 C 18.16,31.81 26.80,31.59 35.92,35.79 C 43.04,39.07 38.62,59.18 53.61,53.66 C 60.11,51.26 54.75,40.92 48.73,39.82 C 47.94,39.67 31.25,27.17 45.48,13.74 C 55.51,9.35 49.95,3.52 60.20,1.48 C 69.18,-0.29 63.13,2.79 73.09,10.66 C 82.21,13.59 84.54,21.92 82.70,31.79 C 81.27,39.50 56.73,44.36 71.15,54.49 C 85.44,64.52 80.66,40.09 87.23,35.81 C 95.65,30.33 104.23,29.28 110.44,36.58 C 121.53,42.77 122.05,35.99 123.85,44.98 C 125.90,55.22 118.39,52.32 118.17,63.26 C 111.23,81.56 93.28,70.93 92.84,70.26 C 89.51,65.12 79.37,65.60 77.17,71.25 C 74.76,77.43 83.38,82.49 88.86,79.78 C 89.58,79.43 110.44,79.49 107.04,98.77 C 101.62,108.27 109.56,109.63 102.55,117.38 C 96.41,124.17 99.43,118.08 86.73,117.72 C 77.66,120.81 70.83,115.52 66.41,106.50 C 62.95,99.46 79.16,86.58 63.64,81.54 C 56.82,79.32 54.47,90.83 58.48,95.46 C 59.00,96.06 64.22,116.26 44.72,117.85 C 34.15,115.01 34.84,123.04 25.57,118.22 C 17.44,114.00 24.10,115.37 21.24,103.00 C 15.95,95.01 19.34,87.06 26.94,80.50 C 32.88,75.37 50.61,87.27 50.31,70.54 z M 59.85,62.24 C 62.74,58.24 70.82,64.04 65.96,67.99 C 61.19,71.88 56.79,66.47 59.85,62.24 z"/></g>
</svg>
