<?xml version="1.0" encoding="UTF-8" standalone="no"?>
<!DOCTYPE svg PUBLIC "-//W3C//DTD SVG 1.1//EN" "http://www.w3.org/Graphics/SVG/1.1/DTD/svg11.dtd">
<svg xmlns:dc="http://purl.org/dc/elements/1.1/" xmlns:xl="http://www.w3.org/1999/xlink" version="1.1" xmlns="http://www.w3.org/2000/svg" viewBox="36 63 292.5 351" width="292.5" height="351">
  <metadata> Produced by OmniGraffle 7.8 
    <dc:date>2018-07-22 17:54:47 +0000</dc:date><dc:title>Traceable heraldic art http://heraldicart.org/credits.html</dc:title>
  </metadata>
  <g id="Columbine_Slipped_and_Leaved" fill-opacity="1" stroke-dasharray="none" stroke="none" stroke-opacity="1" fill="#ffff00">
    <title>Columbine Slipped and Leaved</title>
    <g id="Columbine_Slipped_and_Leaved: Layer 2" >
      <title>Layer 2</title>
      <g id="Group_3">
        <g id="Graphic_20">
          <path d="M 183.95177 71.18706 C 195.62977 82.86506 200.761 96.1355 200.761 114.89107 C 200.93795 127.27683 200.2302 130.46173 195.62977 139.48564 C 189.4369 151.51751 185.0134 154.87936 187.84444 145.50158 C 191.56016 132.23113 187.6675 108.34432 180.58992 100.73593 C 176.34338 96.1355 166.9656 91.71202 165.1962 93.30448 C 164.66538 94.01223 166.61172 97.0202 169.79662 100.20511 C 181.12074 111.70616 182.89013 132.40807 174.2201 149.74812 C 169.08887 159.65672 165.72702 162.13387 147.50227 169.0345 C 130.69303 175.40432 118.8381 177.35065 91.05863 178.4123 C 63.45609 179.65086 60.094245 178.58923 57.440155 169.56532 C 54.786065 160.0106 50.71646 159.83366 45.9391 169.0345 C 42.93113 174.8735 42.400313 178.76617 42.93113 186.90538 C 43.992767 202.12216 52.83973 211.85382 71.5953 218.40058 C 76.5496 219.99303 76.5496 220.3469 73.71857 223.53182 C 69.47203 228.30918 53.72443 236.4484 50.008703 235.74063 C 48.06237 235.38675 46.469917 235.74063 46.469917 236.4484 C 45.40828 240.87187 46.646856 243.87984 51.07034 247.94944 C 61.33282 257.50417 78.67287 263.34316 89.64311 260.866 C 95.65905 259.4505 95.83599 259.62744 94.77435 263.16622 C 93.53578 267.0589 89.82005 281.21404 86.81208 292.7151 C 84.33493 302.2698 84.68881 312.1784 87.51984 313.24005 C 88.93535 313.77087 93.88966 312.5323 98.49008 310.58596 C 102.91356 308.4627 107.51398 306.87024 108.22174 306.87024 C 109.10644 306.87024 113.8838 304.0392 118.66116 300.67736 C 128.21588 293.95367 131.04691 293.95367 131.04691 300.50042 C 131.04691 311.29372 147.67921 333.41114 155.81842 333.41114 C 159.18027 333.41114 167.8503 325.6258 179.52829 312.5323 C 182.35932 309.3474 185.0134 307.04718 185.72116 307.40106 C 201.29182 315.89414 207.13082 317.4866 216.68555 316.42496 C 228.36354 315.00945 243.40338 306.16248 243.40338 300.67736 C 243.40338 298.73103 244.11114 296.07694 244.8189 294.83836 C 246.94217 291.65346 244.64196 292.18427 239.51072 296.25388 C 233.49478 301.03124 230.30987 298.90797 219.1627 282.62955 C 202.70734 258.5658 200.40713 229.90163 211.90818 193.98295 C 213.67758 189.02865 215.44697 184.7821 216.33167 184.7821 C 217.03942 184.7821 219.87045 182.65883 222.52454 180.18168 C 230.13293 173.1041 241.2801 168.85757 251.89647 168.85757 C 261.62813 168.85757 265.34386 170.98084 267.821 178.05841 C 269.23652 182.12802 271.3598 182.12802 275.07552 177.88147 C 281.62228 170.8039 273.66 157.71039 259.85874 152.75609 C 254.19668 150.80976 252.0734 150.9867 241.2801 154.34854 C 234.55642 156.47181 228.54048 158.2412 227.83272 158.2412 C 225.8864 158.2412 233.49478 147.62485 238.9799 142.84749 C 244.28808 137.89318 274.5447 122.85334 278.79125 122.85334 C 280.56064 122.85334 284.98412 123.73804 288.8768 124.97661 C 298.25457 127.80764 304.6244 139.83952 305.68602 156.47181 C 306.57072 168.1498 302.855 182.83577 292.0617 212.2077 C 285.338 230.6094 259.32792 281.5679 248.35768 298.2002 C 227.12497 330.22623 221.28597 341.01953 213.50064 362.60612 C 211.02349 369.3298 208.19246 379.41536 207.4847 384.72354 C 205.53837 396.04766 207.13082 413.3877 209.96185 414.2724 C 211.02349 414.6263 213.3237 412.14913 214.91615 408.61035 C 216.68555 405.07156 218.98576 401.88665 220.0474 401.35584 C 221.4629 400.825 222.17066 395.51684 222.17066 385.9621 C 222.3476 371.9839 222.70148 370.5684 231.90233 351.98976 C 242.34175 330.5801 258.44323 308.9935 270.82898 299.61573 C 295.95436 280.86016 306.0399 268.4744 312.40972 249.71884 C 315.9485 238.92554 314.88687 237.51002 309.40175 245.64923 C 305.68602 250.9574 293.8311 260.866 291.00006 260.866 C 289.05373 260.866 293.30027 250.4266 301.0856 236.27145 C 309.2248 221.58548 317.18708 197.52174 319.31035 180.35862 C 319.84117 176.46596 320.72587 170.09614 321.43362 166.02654 C 322.84914 156.47181 319.31035 134.17746 314.88687 125.50743 C 307.4554 110.99841 294.3619 101.62062 275.25246 97.19714 C 263.2206 94.36611 251.5426 98.08184 237.03357 108.87514 C 226.94803 116.30659 224.29394 117.36822 225.8864 113.12168 C 228.00966 107.8135 222.87842 82.51118 218.98576 79.14933 C 215.44697 75.96442 215.44697 75.96442 216.68555 82.51118 C 217.92412 89.58875 214.91615 119.31456 212.61594 121.61477 C 211.73124 122.49946 210.84655 116.8374 210.31573 109.22901 C 209.2541 90.47345 200.761 72.77951 190.32159 66.76358 C 186.42892 64.640305 181.47462 62.69397 179.35135 62.69397 C 175.9895 62.69397 176.52032 63.93255 183.95177 71.18706 Z" fill="#cccccc"/>
        </g>
        <g id="Graphic_19">
          <path d="M 195.62977 75.78748 C 204.47673 87.28854 207.66164 100.38205 206.77694 121.43783 C 205.89225 143.20136 206.06919 143.3783 219.69351 128.69234 C 245.34972 101.44368 265.34386 94.54305 288.8768 105.15941 C 298.96233 109.58289 312.58666 124.4458 315.59463 134.3544 C 316.8332 138.424 317.54096 149.74812 317.36402 160.8953 C 317.01014 187.79007 311.3481 209.37667 297.72375 236.0945 C 291.88476 247.2417 286.7535 258.38886 286.2227 260.866 C 284.98412 265.8203 266.9363 279.97546 265.87468 276.79055 C 265.5208 275.72892 267.2902 271.1285 269.76734 266.52807 C 286.04576 236.9792 301.0856 201.23746 307.27848 176.81984 C 311.70196 159.65672 309.5787 144.61688 300.37784 128.69234 C 291.00006 112.06004 284.8072 107.8135 269.94428 107.8135 C 261.4512 107.8135 257.55853 108.87514 250.48096 112.94474 C 240.04154 119.13762 223.05536 134.70828 223.05536 138.24706 C 223.05536 141.25503 207.13082 158.2412 204.2998 158.2412 C 201.6457 158.2412 194.56813 174.51962 196.33752 176.46596 C 199.3455 179.65086 185.72116 233.61736 180.76686 237.8639 C 180.23604 238.39472 176.34338 243.17208 172.27378 248.48026 C 163.95763 259.4505 160.59578 262.9893 152.1027 270.59768 C 127.862 291.8304 112.46828 302.2698 98.49008 307.2241 C 93.53578 308.9935 89.28923 310.40902 88.93535 310.40902 C 86.63514 310.40902 94.95129 270.7746 99.0209 261.92765 C 100.96723 257.85805 103.44438 252.01905 104.68295 248.6572 C 110.52195 232.9096 137.23979 200.70664 144.31736 200.70664 C 147.1484 200.70664 163.60375 187.79007 169.97356 180.7125 C 173.15847 176.99677 176.52032 174.16575 177.40502 174.16575 C 179.88217 174.16575 193.32955 163.37245 192.26792 162.13387 C 191.7371 161.60305 189.61383 162.66469 187.6675 164.43408 C 182.53626 169.0345 183.24401 166.20348 189.79077 156.8257 C 192.97568 152.22527 195.62977 147.62485 195.62977 146.74015 C 195.8067 145.67851 197.5761 141.0781 199.8763 136.30073 C 207.13082 120.02231 203.4151 90.65039 191.91404 75.61054 C 189.4369 72.425635 188.19831 69.771545 189.25995 69.771545 C 190.14465 69.771545 193.15262 72.425635 195.62977 75.78748 Z" fill="#ff0000"/>
        </g>
        <g id="Graphic_18">
          <path d="M 222.3476 112.7678 C 221.4629 119.66843 219.87045 123.5611 216.86248 126.39213 L 212.61594 130.2848 L 214.91615 122.6764 C 216.33167 118.42986 217.92412 109.75983 218.63188 103.39002 C 220.0474 92.41978 220.22433 92.24284 221.81679 97.55102 C 222.70148 100.55899 222.87842 107.45962 222.3476 112.7678 Z" fill="#ff0000"/>
        </g>
        <g id="Graphic_17">
          <path d="M 184.1287 117.01434 C 187.6675 132.05419 185.54422 151.51751 180.0591 155.0563 C 175.9895 157.53345 175.81256 154.34854 179.1744 147.4479 C 184.1287 137.00849 184.65953 130.46173 181.47462 119.31456 C 177.05114 103.21308 176.8742 102.8592 179.52829 104.98247 C 180.76686 106.04411 182.89013 111.52923 184.1287 117.01434 Z" fill="#ff0000"/>
        </g>
        <g id="Graphic_16">
          <path d="M 280.56064 112.23698 L 284.09943 113.82944 L 280.56064 114.00638 C 267.11325 114.89107 261.27425 116.66047 249.24238 122.85334 C 241.634 126.746 235.4411 129.57704 235.4411 129.22316 C 235.4411 127.6307 255.96607 112.59086 259.32792 111.70616 C 264.98998 110.29065 276.66798 110.64453 280.56064 112.23698 Z" fill="#ff0000"/>
        </g>
        <g id="Graphic_15">
          <path d="M 278.79125 119.13762 C 277.7296 120.02231 273.1292 121.96865 268.1749 123.5611 C 253.13505 128.5154 236.85663 140.1934 225.0017 154.70242 C 218.98576 161.95693 214.56227 169.0345 215.0931 170.27308 C 215.6239 171.51166 215.0931 174.16575 214.03146 176.11208 C 209.07715 185.48986 201.82264 220.3469 201.82264 234.85593 C 201.82264 254.67314 206.42306 270.59768 216.33167 284.92976 C 221.28597 292.18427 226.24027 298.02327 227.12497 298.02327 C 228.36354 298.02327 228.36354 298.73103 226.94803 300.14654 C 225.35557 301.739 222.52454 301.03124 214.7392 296.96164 C 206.24613 292.7151 203.76897 290.41488 200.05325 282.98343 C 197.04528 276.9675 195.45283 275.1981 195.09895 277.32137 C 194.74507 279.09076 196.51446 283.86813 198.99161 288.11467 C 204.65367 297.84633 220.22433 305.63166 231.01763 303.86227 C 239.51072 302.44675 238.27214 304.74697 227.47884 310.2321 C 213.50064 317.30966 199.69937 313.9478 184.30565 300.14654 C 175.63562 292.3612 172.27378 283.6912 170.68132 266.1742 C 169.79662 256.7964 170.1505 256.08865 177.7589 245.82617 C 182.18238 239.98717 186.7828 232.55572 187.84444 229.01694 C 188.90607 225.6551 190.8524 220.3469 192.09098 217.51588 C 194.21425 212.91546 195.98364 204.42237 203.06122 164.78796 C 203.59204 161.95693 205.1845 160.0106 206.77694 160.0106 C 208.19246 160.0106 215.0931 153.99466 221.81679 146.74015 C 228.54048 139.48564 234.73336 133.4697 235.795 133.4697 C 236.85663 133.4697 240.57235 131.70031 244.11114 129.57704 C 247.64993 127.27683 250.83483 125.50743 251.36565 125.3305 C 251.89647 125.3305 254.7275 124.26886 257.55853 123.03028 C 260.5665 121.7917 264.45916 120.02231 266.4055 119.31456 C 271.18286 117.19128 280.91452 117.19128 278.79125 119.13762 Z" fill="#ff0000"/>
        </g>
        <g id="Graphic_14">
          <path d="M 268.1749 161.95693 C 273.83695 167.08817 275.96022 172.04247 273.30613 174.69656 C 272.59837 175.22738 269.94428 173.45799 267.2902 170.62696 C 258.2663 160.8953 235.61805 164.0802 220.75515 177.35065 C 215.9778 181.5972 215.6239 179.12005 219.87045 169.21144 C 223.40924 160.8953 226.59415 157.35651 226.59415 161.78 C 226.59415 162.66469 230.30987 161.95693 235.08723 160.0106 C 239.68766 158.2412 247.473 156.64875 252.60423 156.64875 C 260.5665 156.47181 262.68977 157.35651 268.1749 161.95693 Z" fill="#ff0000"/>
        </g>
        <g id="Graphic_13">
          <path d="M 184.1287 159.83366 C 184.1287 160.71836 177.22808 168.50369 168.73499 177.17371 C 126.09261 220.3469 72.48 230.78633 50.53952 200.17583 C 44.346645 191.32886 43.28501 177.70453 48.41625 169.9192 C 52.308915 164.0802 54.963005 165.31878 54.963005 172.92717 C 54.963005 183.3666 67.34876 198.7603 75.841845 198.93725 C 77.96512 198.93725 79.73451 198.05255 79.73451 197.16786 C 79.73451 196.10622 78.318995 195.39846 76.37266 195.39846 C 73.89551 195.39846 60.271184 183.18965 60.271184 180.7125 C 60.271184 180.53556 70.356726 180.53556 82.56554 180.88944 C 119.19198 181.95108 143.6096 176.81984 169.97356 162.66469 C 178.28971 158.41815 184.1287 157.17957 184.1287 159.83366 Z" fill="#ff0000"/>
        </g>
        <g id="Graphic_12">
          <path d="M 119.7228 218.75445 C 118.13034 221.05467 113.52992 227.77836 109.63726 233.7943 C 102.55968 244.5876 102.38274 244.76454 98.31314 242.11045 C 93.71272 239.10248 89.82005 230.78633 90.70475 226.1859 C 91.05863 223.8857 94.77435 222.1163 103.44438 219.8161 C 110.16807 218.0467 116.00707 216.2773 116.53789 215.74649 C 117.0687 215.21567 118.66116 214.8618 120.07668 214.8618 C 122.19995 214.8618 122.19995 215.56955 119.7228 218.75445 Z" fill="#ff0000"/>
        </g>
        <g id="Graphic_11">
          <path d="M 86.81208 228.13224 C 86.81208 232.73266 88.40454 235.91757 93.88966 241.57963 C 97.78232 245.64923 100.96723 250.07271 100.96723 251.3113 C 100.96723 253.25762 97.95926 256.2656 95.65905 256.44253 C 95.12823 256.61947 91.76638 257.1503 88.2276 257.85805 C 79.55757 259.62744 70.356726 256.97335 59.38649 249.89578 C 49.477886 243.34902 46.823796 237.8639 53.54749 237.8639 C 58.14791 237.8639 71.94918 229.90163 76.01878 224.94733 C 77.25736 223.35488 80.26533 221.93936 82.56554 221.93936 C 86.28126 221.93936 86.81208 222.82406 86.81208 228.13224 Z" fill="#ff0000"/>
        </g>
        <g id="Graphic_10">
          <path d="M 303.56275 262.1046 C 296.30824 273.60564 290.82312 279.44464 278.0835 289.70712 C 261.80507 302.97757 255.78914 308.9935 245.34972 322.61784 C 231.01763 341.7273 219.69351 368.4451 218.278 387.37763 C 217.74718 394.1013 215.9778 401.7097 214.38533 404.00993 L 211.5543 408.4334 L 210.49267 401.7097 C 209.07715 393.0397 212.439 374.99188 218.45494 358.3596 C 224.82475 340.8426 228.36354 334.29583 243.22644 311.29372 C 250.30402 300.50042 257.3816 289.70712 258.97404 286.8761 C 260.74344 284.222 263.39753 282.09873 264.98998 282.09873 C 266.58243 282.09873 269.41346 280.86016 271.00592 279.2677 C 277.02185 273.95952 301.79336 257.6811 304.2705 257.50417 C 306.0399 257.32723 305.86296 258.38886 303.56275 262.1046 Z" fill="#ff0000"/>
        </g>
        <g id="Graphic_9">
          <path d="M 167.8503 271.83625 C 169.08887 276.9675 170.50438 282.98343 171.0352 285.1067 C 171.9199 288.46855 171.38908 289.1763 168.38111 289.1763 C 163.60375 289.1763 148.74085 281.9218 148.74085 279.62158 C 148.74085 277.8522 162.896 262.9893 164.66538 262.81235 C 165.1962 262.6354 166.61172 266.88195 167.8503 271.83625 Z" fill="#ff0000"/>
        </g>
        <g id="Graphic_8">
          <path d="M 152.63351 286.69915 C 156.70311 289.35324 162.896 291.8304 166.43478 292.18427 C 171.0352 292.89203 174.2201 294.83836 177.7589 299.0849 L 182.35932 304.9239 L 170.68132 317.4866 C 164.13457 324.2103 157.58781 329.87235 155.99536 329.87235 C 152.81045 329.87235 142.37103 319.7868 137.59367 311.82454 C 135.82427 308.9935 134.05488 303.1545 133.34712 298.73103 C 132.46243 291.29958 132.63937 290.23794 137.41673 286.34528 C 143.78654 281.21404 143.78654 281.21404 152.63351 286.69915 Z" fill="#ff0000"/>
        </g>
        <g id="Graphic_7">
          <path d="M 198.4608 154.70242 C 196.33752 157.71039 195.45283 160.0106 196.33752 160.0106 C 198.10692 160.0106 204.2998 151.16363 203.23816 150.102 C 202.70734 149.74812 200.761 151.8714 198.4608 154.70242 Z" fill="#cccccc"/>
        </g>
        <g id="Graphic_6">
          <path d="M 97.42844 227.42448 C 97.42844 228.84 98.66702 231.67103 100.08253 233.61736 C 102.02886 236.27145 102.55968 236.4484 102.73662 234.14818 C 102.73662 232.73266 101.49805 229.90163 100.08253 227.9553 C 98.1362 225.3012 97.60538 225.12427 97.42844 227.42448 Z" fill="#cccccc"/>
        </g>
        <g id="Graphic_5">
          <path d="M 158.4725 276.79055 C 159.00333 277.67525 160.77272 278.55995 162.18823 278.55995 C 163.60375 278.55995 164.3115 277.67525 163.78069 276.79055 C 163.24987 275.72892 161.48048 275.02116 160.06496 275.02116 C 158.64945 275.02116 157.94169 275.72892 158.4725 276.79055 Z" fill="#cccccc"/>
        </g>
        <g id="Graphic_4">
          <path d="M 152.27963 293.95367 C 152.27963 294.83836 153.16433 296.60776 154.04903 298.02327 C 155.46454 300.14654 155.81842 299.9696 155.81842 296.60776 C 155.81842 294.4845 155.11066 292.7151 154.04903 292.7151 C 153.16433 292.7151 152.27963 293.2459 152.27963 293.95367 Z" fill="#cccccc"/>
        </g>
      </g>
    </g>
  </g>
</svg>
