<?xml version="1.0" encoding="UTF-8" standalone="no"?>
<!DOCTYPE svg PUBLIC "-//W3C//DTD SVG 1.1//EN" "http://www.w3.org/Graphics/SVG/1.1/DTD/svg11.dtd">
<svg xmlns:dc="http://purl.org/dc/elements/1.1/" xmlns:xl="http://www.w3.org/1999/xlink" version="1.1" xmlns="http://www.w3.org/2000/svg" viewBox="33.75 61.05454 265.5 275.5" width="265.5" height="275.5">
  <defs>
    <clipPath id="artboard_clip_path">
      <path d="M 33.75 61.05454 L 299.25 61.05454 L 299.25 336.55454 L 33.75 336.55454 Z"/>
    </clipPath>
  </defs>
  <metadata> Produced by OmniGraffle 7.8 
    <dc:date>2018-07-22 17:54:47 +0000</dc:date><dc:title>Traceable heraldic art http://heraldicart.org/credits.html</dc:title>
  </metadata>
  <g id="Daffodil_Bell_to_Dexter" fill-opacity="1" stroke-dasharray="none" stroke="none" stroke-opacity="1" fill="#ffff00">
    <title>Daffodil Bell to Dexter</title>
    <g id="Daffodil_Bell_to_Dexter: Layer 2" >
      <title>Layer 2</title>
      <g id="Group_3">
        <g id="Graphic_14">
          <path d="M 150.22972 196.31218 L 150.22972 196.37716 L 150.22972 196.42915 C 149.86286 208.88425 141.72859 219.77326 129.88918 223.65818 C 118.50462 227.72375 106.10237 227.95198 94.57593 224.30803 C 79.18729 224.32194 63.924165 227.07705 49.50183 232.44425 C 47.03382 233.37312 44.47088 234.02694 41.859506 234.39382 C 41.230415 235.0113 40.31041 235.22827 39.471705 234.95693 C 38.633 234.68558 38.014427 233.97084 37.866247 233.10188 C 37.718067 232.23292 38.06481 231.35357 38.766185 230.8196 C 40.05103 229.6377 40.262204 227.6871 39.260077 226.2576 C 38.28747 225.14423 38.02039 223.5799 38.5685 222.2069 C 39.116605 220.83388 40.387545 219.88354 41.859506 219.74603 C 42.423324 218.87713 42.70895 217.85703 42.678326 216.82168 C 39.745972 215.27663 37.613156 212.55268 36.816613 209.33532 C 38.266742 207.2452 38.13351 204.44198 36.491684 202.49882 C 35.904864 200.50799 35.842187 198.39934 36.309724 196.37716 C 35.842187 194.355 35.904864 192.24634 36.491684 190.2555 C 38.13351 188.31235 38.266742 185.50912 36.816613 183.419 C 37.613156 180.20165 39.745972 177.4777 42.678326 175.93265 C 42.711617 174.8929 42.42588 173.86788 41.859506 172.9953 C 40.392645 172.85433 39.12724 171.90617 38.57995 170.53795 C 38.03266 169.16973 38.295086 167.61043 39.260077 166.49672 C 40.262204 165.06723 40.05103 163.11663 38.766185 161.93472 C 38.06481 161.40076 37.718067 160.5214 37.866247 159.65245 C 38.014427 158.78348 38.633 158.06874 39.471705 157.7974 C 40.31041 157.52605 41.230415 157.74302 41.859506 158.3605 C 44.47088 158.7274 47.03382 159.3812 49.50183 160.31008 C 63.924165 165.67728 79.18729 168.43239 94.57593 168.4463 C 106.10237 164.80234 118.50462 165.03058 129.88918 169.09615 C 141.72578 172.97726 149.86002 183.86102 150.22972 196.31218 Z" fill="#ff0000"/>
          <path d="M 150.22972 196.31218 L 150.22972 196.37716 L 150.22972 196.42915 C 149.86286 208.88425 141.72859 219.77326 129.88918 223.65818 C 118.50462 227.72375 106.10237 227.95198 94.57593 224.30803 C 79.18729 224.32194 63.924165 227.07705 49.50183 232.44425 C 47.03382 233.37312 44.47088 234.02694 41.859506 234.39382 C 41.230415 235.0113 40.31041 235.22827 39.471705 234.95693 C 38.633 234.68558 38.014427 233.97084 37.866247 233.10188 C 37.718067 232.23292 38.06481 231.35357 38.766185 230.8196 C 40.05103 229.6377 40.262204 227.6871 39.260077 226.2576 C 38.28747 225.14423 38.02039 223.5799 38.5685 222.2069 C 39.116605 220.83388 40.387545 219.88354 41.859506 219.74603 C 42.423324 218.87713 42.70895 217.85703 42.678326 216.82168 C 39.745972 215.27663 37.613156 212.55268 36.816613 209.33532 C 38.266742 207.2452 38.13351 204.44198 36.491684 202.49882 C 35.904864 200.50799 35.842187 198.39934 36.309724 196.37716 C 35.842187 194.355 35.904864 192.24634 36.491684 190.2555 C 38.13351 188.31235 38.266742 185.50912 36.816613 183.419 C 37.613156 180.20165 39.745972 177.4777 42.678326 175.93265 C 42.711617 174.8929 42.42588 173.86788 41.859506 172.9953 C 40.392645 172.85433 39.12724 171.90617 38.57995 170.53795 C 38.03266 169.16973 38.295086 167.61043 39.260077 166.49672 C 40.262204 165.06723 40.05103 163.11663 38.766185 161.93472 C 38.06481 161.40076 37.718067 160.5214 37.866247 159.65245 C 38.014427 158.78348 38.633 158.06874 39.471705 157.7974 C 40.31041 157.52605 41.230415 157.74302 41.859506 158.3605 C 44.47088 158.7274 47.03382 159.3812 49.50183 160.31008 C 63.924165 165.67728 79.18729 168.43239 94.57593 168.4463 C 106.10237 164.80234 118.50462 165.03058 129.88918 169.09615 C 141.72578 172.97726 149.86002 183.86102 150.22972 196.31218 Z" stroke="#cccccc" stroke-linecap="round" stroke-linejoin="round" stroke-width="2"/>
        </g>
        <g id="Graphic_13">
          <path d="M 234.52271 202.94501 C 246.20496 201.31027 257.30766 208.5273 260.556 219.8673 L 282.3522 334.41115 C 288.4465 335.4628 294.47774 332.2465 297 326.59987 L 273.2412 215.95516 C 270.39112 198.4658 254.42942 186.2099 236.79722 187.9723 Z" fill="#ff0000"/>
          <path d="M 234.52271 202.94501 C 246.20496 201.31027 257.30766 208.5273 260.556 219.8673 L 282.3522 334.41115 C 288.4465 335.4628 294.47774 332.2465 297 326.59987 L 273.2412 215.95516 C 270.39112 198.4658 254.42942 186.2099 236.79722 187.9723 Z" stroke="#cccccc" stroke-linecap="round" stroke-linejoin="round" stroke-width="2"/>
        </g>
        <g id="Graphic_12">
          <path d="M 250.33296 196.27306 L 250.46294 196.27306 L 250.39795 196.37703 L 250.46294 196.481 L 250.33296 196.481 C 241.42096 211.42355 224.40643 219.55158 207.18244 217.09449 L 196.77172 211.88263 C 176.42271 212.02294 156.21871 215.32012 136.88087 221.65649 C 139.72456 213.51088 141.3707 204.9956 141.7678 196.37703 C 141.3707 187.75846 139.72456 179.24319 136.88087 171.09758 C 156.21941 177.42953 176.4234 180.72233 196.77172 180.85844 L 207.18244 175.65958 C 224.40643 173.2025 241.42096 181.33052 250.33296 196.27306 Z" fill="#ff0000"/>
          <path d="M 250.33296 196.27306 L 250.46294 196.27306 L 250.39795 196.37703 L 250.46294 196.481 L 250.33296 196.481 C 241.42096 211.42355 224.40643 219.55158 207.18244 217.09449 L 196.77172 211.88263 C 176.42271 212.02294 156.21871 215.32012 136.88087 221.65649 C 139.72456 213.51088 141.3707 204.9956 141.7678 196.37703 C 141.3707 187.75846 139.72456 179.24319 136.88087 171.09758 C 156.21941 177.42953 176.4234 180.72233 196.77172 180.85844 L 207.18244 175.65958 C 224.40643 173.2025 241.42096 181.33052 250.33296 196.27306 Z" stroke="#cccccc" stroke-linecap="round" stroke-linejoin="round" stroke-width="2"/>
        </g>
        <g id="Graphic_11">
          <path d="M 146.65147 177.88828 C 161.29722 167.90855 169.09397 150.54671 166.82305 132.97014 C 162.80024 123.22312 153.85134 116.38861 143.38919 115.07307 C 139.92973 136.00149 141.04265 157.43082 146.65147 177.88828 Z" fill="#ff0000"/>
          <path d="M 146.65147 177.88828 C 161.29722 167.90855 169.09397 150.54671 166.82305 132.97014 C 162.80024 123.22312 153.85134 116.38861 143.38919 115.07307 C 139.92973 136.00149 141.04265 157.43082 146.65147 177.88828 Z" stroke="#cccccc" stroke-linecap="round" stroke-linejoin="round" stroke-width="2"/>
        </g>
        <g id="Graphic_10">
          <path d="M 139.97302 212.05258 C 130.6275 223.65923 127.69667 239.16674 132.16173 253.3835 C 133.30856 256.98672 135.19431 260.31112 137.69852 263.14437 C 139.36325 263.84116 140.3122 265.60892 139.97302 267.38144 C 140.5917 268.76094 141.99184 269.62103 143.50202 269.54925 C 145.0122 269.47747 146.32446 268.48847 146.80952 267.0565 C 157.19735 260.95544 162.96255 249.2617 161.47665 237.3067 C 159.99075 225.3517 151.53833 215.42507 139.97302 212.05258 Z" fill="#ff0000"/>
          <path d="M 139.97302 212.05258 C 130.6275 223.65923 127.69667 239.16674 132.16173 253.3835 C 133.30856 256.98672 135.19431 260.31112 137.69852 263.14437 C 139.36325 263.84116 140.3122 265.60892 139.97302 267.38144 C 140.5917 268.76094 141.99184 269.62103 143.50202 269.54925 C 145.0122 269.47747 146.32446 268.48847 146.80952 267.0565 C 157.19735 260.95544 162.96255 249.2617 161.47665 237.3067 C 159.99075 225.3517 151.53833 215.42507 139.97302 212.05258 Z" stroke="#cccccc" stroke-linecap="round" stroke-linejoin="round" stroke-width="2"/>
        </g>
        <g id="Graphic_9">
          <path d="M 143.39248 207.49838 C 140.61935 212.39725 136.91497 216.70653 132.48787 220.1836 C 131.3359 220.98866 130.69235 222.34034 130.79362 223.74208 C 130.89489 225.14383 131.72604 226.38897 132.98176 227.0201 L 168.29501 306.7576 C 169.70513 310.1578 169.98757 313.92063 169.10083 317.49324 C 169.61765 322.2613 171.88175 326.66913 175.45644 329.86652 C 182.5003 320.07844 184.60327 307.5758 181.1492 296.02195 C 177.0501 263.57455 163.97369 232.9159 143.39248 207.49838 Z" fill="#ff0000"/>
          <path d="M 143.39248 207.49838 C 140.61935 212.39725 136.91497 216.70653 132.48787 220.1836 C 131.3359 220.98866 130.69235 222.34034 130.79362 223.74208 C 130.89489 225.14383 131.72604 226.38897 132.98176 227.0201 L 168.29501 306.7576 C 169.70513 310.1578 169.98757 313.92063 169.10083 317.49324 C 169.61765 322.2613 171.88175 326.66913 175.45644 329.86652 C 182.5003 320.07844 184.60327 307.5758 181.1492 296.02195 C 177.0501 263.57455 163.97369 232.9159 143.39248 207.49838 Z" stroke="#cccccc" stroke-linecap="round" stroke-linejoin="round" stroke-width="2"/>
        </g>
        <g id="Graphic_8">
          <path d="M 146.64614 196.10222 C 146.05686 194.62805 144.87353 193.47054 143.38672 192.91391 C 141.89992 192.3573 140.24736 192.45312 138.83486 193.17786 C 136.5519 195.61724 135.63977 199.03651 136.4044 202.28886 C 133.57564 211.16665 135.21208 220.86422 140.79743 228.32215 L 148.76468 248.50672 C 149.6375 254.3058 152.84166 259.49653 157.63452 262.87582 C 162.42737 266.25512 168.39279 267.52957 174.1481 266.4038 C 180.64017 264.009 185.31587 258.27267 186.35243 251.43108 C 181.74125 237.00088 172.17428 224.66695 159.34436 216.61172 Z" fill="#ff0000"/>
          <path d="M 146.64614 196.10222 C 146.05686 194.62805 144.87353 193.47054 143.38672 192.91391 C 141.89992 192.3573 140.24736 192.45312 138.83486 193.17786 C 136.5519 195.61724 135.63977 199.03651 136.4044 202.28886 C 133.57564 211.16665 135.21208 220.86422 140.79743 228.32215 L 148.76468 248.50672 C 149.6375 254.3058 152.84166 259.49653 157.63452 262.87582 C 162.42737 266.25512 168.39279 267.52957 174.1481 266.4038 C 180.64017 264.009 185.31587 258.27267 186.35243 251.43108 C 181.74125 237.00088 172.17428 224.66695 159.34436 216.61172 Z" stroke="#cccccc" stroke-linecap="round" stroke-linejoin="round" stroke-width="2"/>
        </g>
        <g id="Graphic_7">
          <path d="M 149.41186 249.15572 C 154.47408 258.33788 165.78017 262.03464 175.28918 257.61686 C 178.89764 254.68896 179.80095 249.55172 177.40771 245.5685 C 169.38743 239.37132 162.69179 231.62824 157.71704 222.7975 C 154.34001 214.54554 149.55036 206.94543 143.56314 200.33843 C 142.39248 200.11923 137.77986 197.0112 137.1351 198.0126 C 136.49032 199.01398 135.71997 202.15523 136.404 203.13022" fill="#ff0000"/>
          <path d="M 149.41186 249.15572 C 154.47408 258.33788 165.78017 262.03464 175.28918 257.61686 C 178.89764 254.68896 179.80095 249.55172 177.40771 245.5685 C 169.38743 239.37132 162.69179 231.62824 157.71704 222.7975 C 154.34001 214.54554 149.55036 206.94543 143.56314 200.33843 C 142.39248 200.11923 137.77986 197.0112 137.1351 198.0126 C 136.49032 199.01398 135.71997 202.15523 136.404 203.13022" stroke="#cccccc" stroke-linecap="round" stroke-linejoin="round" stroke-width="1"/>
        </g>
        <g id="Graphic_6">
          <path d="M 138.83564 198.06635 C 148.10351 195.67912 154.42489 187.11677 153.97732 177.55685 C 153.98892 175.75997 154.37399 173.98513 155.10807 172.345 C 158.12808 156.24891 158.5668 139.77472 156.40778 123.54071 C 157.97 116.6247 156.16182 109.37755 151.53385 104.006 C 151.48208 99.88453 149.49352 96.02778 146.16603 93.59528 C 145.2563 93.11913 144.13422 93.39825 143.5536 94.24514 C 143.31043 90.64836 142.43029 87.12336 140.95417 83.83443 C 141.67873 76.47384 139.7774 69.09412 135.58635 63 C 133.53712 63.209276 131.76931 64.52926 130.98651 66.43462 C 130.20371 68.33998 130.53294 70.521515 131.84317 72.111 C 133.45106 73.46739 133.97928 75.717625 133.14289 77.647785 C 135.44586 105.08843 134.73545 132.6988 131.02435 159.98471 C 128.56794 167.36562 129.46057 175.45149 133.46782 182.11885 C 135.07154 185.64588 136.22017 189.36256 136.88607 193.17942 C 136.0332 193.97277 135.75556 195.20869 136.18717 196.29058 C 136.61878 197.37247 137.67089 198.0779 138.83564 198.06635 Z" fill="#ff0000"/>
          <path d="M 138.83564 198.06635 C 148.10351 195.67912 154.42489 187.11677 153.97732 177.55685 C 153.98892 175.75997 154.37399 173.98513 155.10807 172.345 C 158.12808 156.24891 158.5668 139.77472 156.40778 123.54071 C 157.97 116.6247 156.16182 109.37755 151.53385 104.006 C 151.48208 99.88453 149.49352 96.02778 146.16603 93.59528 C 145.2563 93.11913 144.13422 93.39825 143.5536 94.24514 C 143.31043 90.64836 142.43029 87.12336 140.95417 83.83443 C 141.67873 76.47384 139.7774 69.09412 135.58635 63 C 133.53712 63.209276 131.76931 64.52926 130.98651 66.43462 C 130.20371 68.33998 130.53294 70.521515 131.84317 72.111 C 133.45106 73.46739 133.97928 75.717625 133.14289 77.647785 C 135.44586 105.08843 134.73545 132.6988 131.02435 159.98471 C 128.56794 167.36562 129.46057 175.45149 133.46782 182.11885 C 135.07154 185.64588 136.22017 189.36256 136.88607 193.17942 C 136.0332 193.97277 135.75556 195.20869 136.18717 196.29058 C 136.61878 197.37247 137.67089 198.0779 138.83564 198.06635 Z" stroke="#cccccc" stroke-linecap="round" stroke-linejoin="round" stroke-width="2"/>
        </g>
        <g id="Graphic_5">
          <path d="M 140.63214 83.83206 C 136.26711 79.26076 134.8144 73.6734 136.40009 67.55492" fill="#ff0000"/>
          <path d="M 140.63214 83.83206 C 136.26711 79.26076 134.8144 73.6734 136.40009 67.55492" stroke="#cccccc" stroke-linecap="round" stroke-linejoin="round" stroke-width="2"/>
        </g>
        <g id="Graphic_4">
          <path d="M 133.30538 73.74297 C 140.3266 88.97571 144.19917 105.46953 144.69088 122.23533 C 143.82957 136.23697 146.51631 150.2295 152.50216 162.9164 C 154.29929 173.94689 151.79653 185.2465 145.5097 194.48647" fill="#ff0000"/>
          <path d="M 133.30538 73.74297 C 140.3266 88.97571 144.19917 105.46953 144.69088 122.23533 C 143.82957 136.23697 146.51631 150.2295 152.50216 162.9164 C 154.29929 173.94689 151.79653 185.2465 145.5097 194.48647" stroke="#cccccc" stroke-linecap="round" stroke-linejoin="round" stroke-width="1"/>
        </g>
      </g>
    </g>
  </g>
</svg>
