<?xml version="1.0" encoding="UTF-8" standalone="no"?>
<!DOCTYPE svg PUBLIC "-//W3C//DTD SVG 1.1//EN" "http://www.w3.org/Graphics/SVG/1.1/DTD/svg11.dtd">
<svg xmlns:dc="http://purl.org/dc/elements/1.1/" xmlns:xl="http://www.w3.org/1999/xlink" version="1.1" xmlns="http://www.w3.org/2000/svg" viewBox="76.5 63 211.5 351" width="211.5" height="351">
  <defs>
    <clipPath id="artboard_clip_path">
      <path d="M 76.5 63 L 288 63 L 288 414 L 76.5 414 Z"/>
    </clipPath>
  </defs>
  <metadata> Produced by OmniGraffle 7.8 
    <dc:date>2018-07-22 17:54:47 +0000</dc:date><dc:title>Traceable heraldic art http://heraldicart.org/credits.html</dc:title>
  </metadata>
  <g id="Jasmine_Slipped___Leaved" fill-opacity="1" stroke-dasharray="none" stroke="none" stroke-opacity="1" fill="#ffff00">
    <title>Jasmine Slipped &amp; Leaved</title>
    <g id="Jasmine_Slipped___Leaved: Layer 2" >
      <title>Layer 2</title>
      <g id="Group_3">
        <g id="Graphic_14">
          <path d="M 180.08071 63.971724 C 175.99929 67.03517 167.98388 81.94269 168.22038 86.06797 C 168.29 88.38075 167.12274 89.04388 163.9781 88.43263 C 161.97698 88.04365 161.74667 87.70221 161.43084 84.74822 C 160.49523 75.44354 154.80284 63.13751 152.17054 64.85092 C 151.98593 65.03754 152.69676 67.10411 153.78085 69.53991 C 156.2071 74.610015 159.07438 84.66101 158.9773 87.83142 C 158.92976 89.60224 158.50497 90.26136 156.8811 90.98408 L 154.84432 91.92321 L 151.7233 87.75643 C 147.75251 82.23776 144.62161 78.88491 141.79851 77.00111 C 136.92658 73.82903 135.47745 75.17907 140.06552 78.66682 C 143.54974 81.34665 150.34765 89.4916 151.49131 92.38399 C 152.90897 95.77466 151.22552 96.04079 146.3556 93.23994 C 139.8101 89.52004 133.10792 88.51395 126.47739 90.19187 C 120.07515 91.84 112.70432 96.5633 109.3595 101.17914 C 106.32634 105.33638 105.221 112.1676 107.0119 115.9275 C 107.97882 117.82134 107.96894 118.63528 107.18881 119.59617 C 106.67865 120.31287 105.72395 123.31657 105.14048 126.31826 C 104.23749 130.96373 104.30109 132.1628 105.45865 134.98373 C 107.22378 139.2578 113.7912 144.39118 120.71581 146.92389 L 125.69486 148.78175 L 126.44152 152.19033 C 127.26365 156.35527 130.30133 160.95087 133.81334 163.48777 C 137.59734 166.1517 146.1736 167.81876 150.33653 166.62538 C 152.06166 166.14485 153.759 165.80726 154.18781 165.89061 C 154.96008 166.1149 156.68202 178.2425 156.01503 179.00288 C 155.74505 179.24708 154.38514 178.6119 153.0371 177.534 C 151.68907 176.45611 148.22275 174.44728 145.3163 172.9923 C 139.28899 170.04064 136.27541 169.89988 131.77706 172.43727 C 129.62713 173.57692 129.11697 174.29362 128.91462 176.47936 L 128.6289 179.09391 L 132.69075 180.32847 C 134.92218 181.0589 138.67036 182.38082 140.98916 183.4249 C 144.89618 185.07438 145.5851 185.72747 149.34147 191.20447 C 153.76098 197.84873 155.53598 201.30886 156.97557 206.113 C 157.4561 207.83813 158.92932 210.94293 160.2258 213.04917 C 163.55337 218.4428 165.0266 221.5476 165.23715 223.51693 C 165.36033 225.1726 165.28886 225.1587 162.37053 224.14642 C 158.20743 222.66967 156.24195 220.95258 151.13754 214.3977 C 145.55863 207.2314 145.24095 206.57629 145.69738 203.84658 C 146.26696 200.91636 144.76796 198.32574 142.02034 197.1983 C 140.0311 196.36662 139.40378 196.54135 136.9581 198.43938 C 135.39382 199.6187 133.49212 201.7708 132.78546 203.11682 C 130.42531 207.62738 127.89796 204.9852 126.61103 196.72479 C 126.28331 194.2135 126.36666 193.78469 127.97262 192.39096 C 129.66394 190.93966 129.69172 190.79672 128.90942 188.71626 C 127.88291 186.36582 125.41716 184.55148 123.37636 184.74815 C 122.62 184.82363 120.52966 186.41988 118.75499 188.3 C 116.17039 190.9127 115.3069 192.3024 114.80679 194.8753 C 114.0705 198.66314 113.30025 198.8101 109.07154 195.76304 C 107.63815 194.74272 105.6469 193.5398 104.61654 193.11701 C 101.96818 191.86053 99.39312 188.31906 97.78282 183.63006 C 96.2162 179.0979 93.42072 174.40104 89.36859 169.68242 C 86.09274 165.93055 84.35172 166.11132 83.66113 170.42723 C 81.07735 186.39055 82.08628 193.41023 88.53889 203.71313 C 91.7215 208.70775 93.53216 210.83977 98.30684 214.51213 L 104.11389 218.97852 L 100.02845 221.2995 C 95.13107 223.98183 93.59072 226.94586 94.69874 231.16638 C 95.42949 234.2752 97.77608 235.17633 100.29322 233.2922 C 102.12748 231.86868 103.19951 232.07707 106.78099 234.25662 C 111.86732 237.47038 114.25559 238.15712 116.74896 237.1584 C 120.06816 235.72685 120.29847 236.0683 117.94418 239.02244 C 115.9869 241.46042 115.88966 241.9607 116.08046 245.5579 C 116.61304 254.26505 120.31569 257.72904 124.31761 253.16675 C 126.6878 250.51236 129.11373 250.24222 133.122 252.1339 C 138.33337 254.70443 141.63282 254.90076 146.73473 253.07405 C 149.28568 252.1607 151.79496 251.46173 152.29524 251.55898 C 152.79552 251.65622 154.0463 253.2344 155.11248 254.9992 C 156.09329 256.82157 157.73121 258.6975 158.6901 259.1064 C 163.92925 261.534 168.6087 266.07788 172.26984 272.4264 C 180.68808 287.1165 181.72647 289.02424 183.42013 293.28442 C 184.43274 295.70633 185.73324 298.55504 186.3249 299.7084 C 186.91657 300.8618 187.43677 302.00128 187.3673 302.35862 C 187.31174 302.6445 185.48334 302.5116 183.21023 301.9956 C 179.52164 301.13025 178.99357 301.17595 176.71862 302.9588 C 173.74689 305.27377 173.50871 306.1175 175.26781 309.27787 C 176.03221 310.68733 176.5961 311.98364 176.55442 312.19805 C 176.51274 312.41245 174.97022 312.33512 173.11203 311.97393 C 164.39283 310.2791 161.1292 311.42476 160.15675 316.42758 C 159.48993 319.8581 160.39927 321.66656 163.53402 323.09176 C 166.18239 324.34824 165.27723 325.95236 161.42795 327.05836 C 157.02282 328.353 156.3083 330.8842 159.14144 334.6242 L 161.26977 337.4113 L 158.3655 338.99767 C 154.3932 341.11813 153.87919 343.76248 156.79568 347.07365 C 158.4475 348.8781 159.24955 349.3307 159.93244 348.8701 C 160.70069 348.3519 160.46837 347.6392 159.30295 346.00346 L 157.66302 343.7563 L 161.12114 341.61005 C 163.05666 340.42873 164.6904 338.89206 164.82932 338.17738 C 164.95435 337.53416 164.0728 335.58274 162.90737 333.947 C 160.8644 331.1023 160.76314 330.8601 162.20239 330.324 C 167.38965 328.4397 168.74154 327.58995 169.23379 326.20225 C 170.02179 324.05618 168.9993 322.4482 165.9499 320.96544 C 160.26605 318.1547 164.94885 312.76058 171.1012 315.069 C 174.14858 316.18055 179.78658 315.7931 181.77767 314.32588 C 183.78264 312.7872 183.45292 309.9047 181.01695 308.31865 C 179.9707 307.5961 179.09516 306.7584 179.16462 306.40104 C 179.35911 305.40048 182.90076 305.49555 186.16254 306.64876 C 190.03977 308.06994 191.02058 309.8923 192.3373 318.38103 L 193.372 324.88654 L 190.45232 334.1835 C 188.86645 339.2896 187.06617 344.354 186.41508 345.41416 C 185.764 346.4743 184.22565 349.80957 183.04265 352.84306 C 181.63335 356.2776 179.62452 359.7439 177.59578 362.168 C 175.77943 364.2625 173.03013 368.1041 171.50167 370.6254 C 169.02436 374.594 168.51822 376.0532 167.78997 381.32598 C 166.2481 391.92914 168.15265 403.4989 172.05581 407.076 C 173.24702 408.1976 174.12657 409.77777 174.17628 411.0483 C 174.21812 413.50403 175.49468 414.56803 177.14633 413.70237 C 177.98605 413.19807 178.73036 410.89517 179.96877 404.9057 C 181.48502 397.4868 181.94949 396.24205 185.48678 390.2544 C 191.94007 379.56756 194.22072 373.55816 194.83566 365.81576 C 195.29394 360.78716 195.7246 358.57163 196.88383 356.42355 C 199.14473 352.04202 202.1501 348.02772 202.93626 348.18054 C 203.2936 348.25 204.91546 347.15604 206.37848 345.73453 C 208.7229 343.5943 209.20326 342.64932 209.26268 340.4358 C 209.28042 338.43668 209.9156 337.07676 211.8729 334.6388 C 214.10014 331.9566 214.52293 330.92626 214.79073 327.6407 C 214.92162 325.44107 214.73283 322.2151 214.33766 320.4324 C 213.87102 318.6358 213.45794 316.1821 213.38045 315.0545 C 213.26914 312.9561 213.3545 312.89854 215.48669 313.758 C 218.57775 315.02637 223.08414 313.97393 226.99485 311.02563 C 232.37058 307.02707 235.1776 305.94098 236.76984 307.28884 C 241.25865 310.90564 237.33824 317.338 228.46254 321.0271 C 227.49378 321.43213 226.10223 322.86753 225.338 324.1282 C 223.74007 327.00687 224.3873 327.87437 228.46103 328.6662 C 231.31978 329.2219 234.6092 327.56206 236.12175 324.74096 C 236.57434 323.9389 238.20808 322.40224 239.75847 321.2944 C 242.26172 319.48173 242.80368 319.36457 244.4078 320.26973 C 247.1872 321.9967 247.5248 323.69405 245.51195 326.4179 C 242.08178 331.0913 244.31354 337.162 249.04622 335.7085 C 249.91573 335.4325 251.9207 333.89384 253.55445 332.35718 C 259.42043 326.59968 265.36037 329.23767 259.62344 335.09442 C 256.3004 338.45362 257.01725 341.6339 261.16244 342.43965 C 263.73532 342.93976 265.6034 342.487 269.80398 340.33676 C 273.7624 338.28777 276.74818 338.57147 277.5047 341.1661 C 277.88197 342.2778 277.74907 344.1062 277.2846 345.35097 C 276.24253 348.041 277.21933 349.1209 279.06547 347.2547 C 281.3384 345.1006 281.8007 340.81446 280.13098 338.339 C 279.39637 337.15783 278.19128 336.10772 277.4766 335.9688 C 274.97518 335.48258 270.03998 336.45167 266.30787 338.09964 C 264.2135 338.9534 262.41692 339.42005 262.27197 339.02103 C 262.11313 338.69348 262.86146 337.13305 263.95325 335.71355 C 266.3492 332.545 266.71242 331.05803 265.6859 328.7076 C 264.1392 325.21767 259.99603 324.78316 255.4421 327.60643 C 252.32543 329.52236 250.89404 328.8733 251.21942 325.6731 C 251.58647 322.25848 248.7791 318.00433 245.38827 316.75186 C 242.89875 315.82293 242.7836 315.6522 243.0236 312.5096 C 243.34497 308.56692 242.33035 305.77378 239.69187 303.70335 C 236.2791 301.0374 233.21197 301.55376 226.32552 306.07453 C 221.06092 309.50135 219.93533 309.95008 217.57686 309.49164 C 213.28873 308.6581 210.9639 306.50032 207.11614 299.9672 C 203.7151 294.18843 198.0227 281.8824 198.2311 280.81036 C 198.28666 280.5245 197.43289 278.43013 196.32102 276.13727 C 193.18795 269.74306 192.95362 268.65915 194.25563 263.86873 C 195.09519 260.6943 196.48071 258.1452 199.38684 254.25994 L 203.31327 248.9413 L 207.67287 249.7887 C 211.40314 250.43963 212.34814 250.92 214.41688 253.25052 C 216.18385 255.2257 217.57356 256.0892 219.86056 256.53374 C 225.57807 257.6451 228.0952 255.76098 227.412 250.88135 C 226.95322 247.89957 227.4274 243.17075 228.21356 243.32356 C 228.42796 243.36524 229.93082 244.0282 231.56272 244.79043 C 234.21108 246.0469 234.93966 246.11436 237.41914 245.1871 C 240.99644 243.95407 241.997 244.14856 242.86467 246.17145 C 243.5735 247.86678 250.71653 251.18364 252.3126 250.60386 C 254.39307 249.82156 253.9599 243.6555 251.28143 236.83046 C 250.5726 235.13513 250.68574 234.9346 251.95427 234.51367 C 252.9945 234.1225 257.13752 231.8869 259.69233 229.0459 C 261.2248 227.26704 262.9439 225.6728 263.57123 225.49806 C 265.48097 224.8309 265.1295 223.20503 262.36982 219.85018 L 259.59627 216.5668 L 261.31738 215.3438 C 266.7507 211.43058 271.70096 197.41065 269.98136 190.99452 C 269.15136 188.01475 268.76004 184.3044 268.67836 179.7642 C 268.64054 178.05096 268.33876 177.69562 266.33764 177.30664 C 265.12267 177.07048 263.467 177.19366 262.72653 177.56892 C 260.3483 178.73836 257.3846 182.53825 256.8845 185.11113 C 256.09064 188.81362 253.02768 192.74256 249.06928 194.79155 C 247.16154 195.82994 244.58481 197.25748 243.46123 198.07744 L 241.3272 199.51686 L 240.531 197.50786 C 239.5184 195.08596 236.89966 191.38765 233.45108 187.3797 C 230.70732 184.32462 227.61625 183.05625 227.24116 184.9859 C 227.13003 185.55766 225.81396 187.74943 224.38274 189.77047 C 222.42747 192.57968 221.52432 194.55503 220.91507 198.0709 C 220.42885 200.5723 219.82747 202.903 219.5436 203.21866 C 219.18827 203.52043 218.22737 202.7403 217.29225 201.446 C 215.7238 199.21272 215.30887 199.0579 206.77429 197.17643 C 198.4541 195.33665 197.86847 195.29698 197.1896 196.50006 C 196.25665 198.24712 196.5268 200.67304 198.12906 203.8771 C 199.99143 207.65088 200.31932 212.83229 199.05513 219.33595 C 198.041 224.55317 197.6599 225.36912 193.94384 229.98698 C 191.77417 232.7545 189.45955 235.12302 188.84612 235.2263 C 185.46533 235.83 183.66524 211.8943 186.3506 201.51342 C 188.4068 193.60615 197.39715 182.07742 202.98344 180.04818 C 205.44903 179.1924 206.46533 177.01653 205.25622 175.22395 C 204.27742 173.77281 198.74653 172.84606 195.83824 173.68996 C 188.61018 175.77091 180.7034 181.72508 178.24802 187.10717 C 177.75376 188.12363 176.94384 188.85623 176.44356 188.75898 C 174.79977 188.43946 170.61409 174.86875 171.21145 171.7956 C 171.4893 170.36622 172.04514 170.17759 175.70194 170.44338 C 182.72965 170.9194 188.19878 168.3482 190.54302 163.53786 C 191.1921 162.10648 192.27987 159.9445 192.8297 158.64217 C 193.85989 156.39483 194.10208 156.29357 197.2606 156.83336 C 201.30453 157.3969 205.8387 156.20152 208.36773 153.87469 C 211.96276 150.64253 214.00876 138.20896 212.1263 130.7228 C 211.5862 128.54108 211.16123 126.53008 211.2307 126.17274 C 211.28626 125.88686 212.57856 124.5805 214.18452 123.18678 C 216.57261 121.2034 217.25149 120.00031 218.1605 116.46855 C 219.53197 111.32078 218.48756 108.29934 213.97883 103.6403 C 208.33648 97.94505 199.47234 95.85119 185.62747 96.86848 C 181.33147 97.22013 181.26 97.20624 180.15014 95.28461 C 178.82387 92.95008 179.83415 89.6605 183.57195 83.786 C 186.43239 79.37268 187.26005 76.64096 185.83068 76.36312 C 185.25893 76.25198 184.2346 76.9429 183.52593 77.91769 C 180.37963 82.27545 177.16788 87.73302 176.87614 89.23386 C 176.6122 90.59177 176.19928 90.80818 174.48403 90.47477 C 170.26737 89.65514 170.20979 89.56978 173.22287 81.70017 C 175.05294 76.86406 177.07366 72.95504 179.39815 69.77258 C 182.60204 65.50019 183.40393 63.28265 181.97455 63.004805 C 181.68868 62.949236 180.86285 63.382065 180.08071 63.971724 Z" fill="#cccccc"/>
        </g>
        <g id="Graphic_13">
          <path d="M 174.4308 96.47213 C 181.5422 101.85958 181.21346 114.9978 173.8207 118.30762 C 172.68121 118.82781 170.64443 119.76695 169.4057 120.4162 L 167.08505 121.671 L 161.73075 119.07267 C 158.8104 117.68915 155.70142 115.74979 154.76831 114.82672 C 152.68568 112.56766 151.76027 107.78929 152.62158 103.35822 C 153.39954 99.35597 156.92495 93.81103 158.80892 93.65805 C 159.49381 93.56867 161.19115 93.23108 162.4458 92.8816 C 165.63997 92.09328 170.68848 93.59379 174.4308 96.47213 Z" fill="#ff0000"/>
        </g>
        <g id="Graphic_12">
          <path d="M 205.82352 103.24178 C 208.01327 104.18661 210.0641 105.84613 211.97602 108.22033 C 214.65033 111.63276 214.7377 111.94642 214.0431 115.51986 C 213.5013 118.30715 212.76686 119.79611 211.43088 120.94564 C 210.45023 121.79339 209.35443 122.47041 209.06855 122.41485 C 208.7112 122.34538 207.40485 121.05309 206.14017 119.54638 C 202.23098 114.85555 196.2989 111.03238 190.3213 109.35126 C 185.4733 107.96389 185.0008 107.72371 184.36144 105.67103 C 184.06954 104.50175 183.87489 102.8322 184.0277 102.04604 C 184.33333 100.47372 184.4048 100.48762 194.21778 101.13419 C 201.4738 101.58042 202.11701 101.70545 205.82352 103.24178 Z" fill="#ff0000"/>
        </g>
        <g id="Graphic_11">
          <path d="M 145.10313 96.63077 C 149.02605 98.58002 149.58993 99.87633 148.6036 104.95062 C 147.47833 110.7396 148.78485 114.70202 152.90242 118.32082 C 156.25961 121.27264 164.13323 125.02819 166.53137 124.90099 C 172.92574 124.43803 173.95208 124.11835 176.62204 121.44806 C 178.18431 119.89751 180.36788 117.0585 181.5708 115.06726 C 183.73646 111.55725 183.80793 111.57114 186.88109 112.1685 C 188.52487 112.48802 191.97328 113.82585 194.37945 115.18359 C 205.87823 121.27553 212.05533 138.71928 206.6026 149.60062 C 205.02058 152.77905 200.24622 154.44693 196.72634 153.09522 C 193.90726 151.95389 193.64716 151.38415 192.94 144.7198 C 192.38383 139.56819 192.06615 138.91308 187.11857 132.31451 C 184.24175 128.4177 181.74017 125.26136 181.4543 125.20579 C 181.2399 125.16411 180.90046 125.76565 180.74764 126.55181 C 180.60872 127.2665 182.2269 130.77031 184.28777 134.28601 C 187.52997 139.73723 188.2249 141.50404 188.7215 146.19905 C 189.45845 153.0917 187.8786 159.3115 184.27368 163.3576 C 181.59184 166.47059 180.46625 166.91932 176.0531 166.729 C 171.78287 166.56648 167.60186 164.41873 165.7435 161.38742 C 162.97782 156.91885 163.07674 151.44956 166.41286 134.66828 C 167.14915 130.88043 167.07567 130.4953 165.67608 130.44576 C 163.47645 130.31487 161.96991 134.24967 160.7059 143.42346 C 159.29308 154.12587 159.2653 154.26881 156.56755 157.08204 C 151.45593 162.39282 147.16395 163.48694 140.3704 161.42472 C 135.7507 160.00755 133.15389 157.72273 130.75743 152.88092 C 129.58799 150.5027 129.58196 149.38899 130.45315 144.14398 C 131.40769 138.47016 131.66177 137.9262 134.59969 134.64047 C 138.47458 130.35017 140.86067 127.99555 145.50983 124.30076 C 149.0354 121.42594 150.0835 119.84961 148.79706 119.59956 C 147.7965 119.40507 141.78943 122.8359 140.11401 124.58697 C 139.2763 125.4625 137.18797 127.42999 135.46887 129.02422 C 133.39443 130.92024 131.45305 133.65798 129.80157 137.19376 C 128.33269 140.17168 126.6474 142.7367 125.82157 143.16952 C 123.85626 144.12255 119.92146 142.61601 115.14878 139.31488 C 110.00286 135.64453 107.69779 131.85885 108.10451 127.8586 C 108.4021 124.80135 108.57283 124.6862 114.59178 120.81265 C 117.90696 118.63863 125.19846 115.08662 130.75495 112.82908 C 136.23998 110.55765 140.74034 108.3915 140.73833 108.02026 C 140.67875 107.56366 139.51935 107.04162 138.00461 106.82135 C 135.07439 106.25178 132.03905 107.36766 121.31521 112.55173 C 117.61289 114.428 114.22222 115.84565 113.93634 115.79009 C 111.22053 115.26218 109.51499 111.44471 110.25127 107.65686 C 111.22372 102.65404 118.15972 96.73369 125.27463 94.85324 C 132.70321 92.88543 138.46038 93.41116 145.10313 96.63077 Z" fill="#ff0000"/>
        </g>
        <g id="Graphic_10">
          <path d="M 161.89222 162.12218 C 162.52758 163.4324 163.9233 165.40959 165.1284 166.4597 C 166.50623 167.76588 167.25673 169.24681 167.27866 170.66029 C 167.2569 171.91693 168.29746 176.86603 169.58021 181.71386 C 171.16876 187.6595 172.0247 192.79521 172.13617 197.5637 C 172.33718 205.68722 173.42344 211.16438 174.99575 211.47 C 176.35366 211.73395 176.67318 210.09017 176.20436 205.25222 C 175.84083 201.39892 176.2596 199.6261 180.019 189.82483 C 181.99001 184.64526 187.70518 180.04515 195.18732 177.42023 C 199.0068 176.08592 201.54788 175.9865 201.29782 177.27294 C 201.22836 177.63029 199.1956 179.3119 196.7916 180.99551 C 194.3876 182.67913 191.5747 185.32163 190.5405 186.8265 C 189.42093 188.38893 187.7753 190.3683 186.7093 191.27362 C 183.4557 194.27548 180.5504 211.51135 181.68653 220.92917 C 181.84938 221.9992 182.2407 225.70955 182.6737 229.2055 C 183.0928 232.7729 183.85535 236.48126 184.33187 237.4639 C 185.09626 238.87337 185.06061 240.2015 184.34609 242.7327 C 183.49064 245.60734 183.55223 246.43518 184.80502 248.3846 C 185.58331 249.72258 186.48864 250.78858 186.7884 250.77268 C 187.07428 250.82825 190.24452 248.2552 193.68273 245.06673 C 201.62515 237.78445 213.03372 229.84088 216.94058 228.82023 C 222.38794 227.50568 229.56429 223.78294 237.03236 218.55937 C 244.50044 213.33579 246.46174 211.64029 246.85273 210.0104 C 247.21392 208.1522 245.2625 209.03377 236.38296 214.6505 C 225.9808 221.23216 223.7594 222.35791 219.38207 223.5096 C 214.00617 224.83806 196.2551 237.55648 190.0815 244.51506 C 189.0314 245.72016 187.75098 246.5838 187.32217 246.50046 C 185.67838 246.18094 186.89118 243.37574 190.19833 239.71678 C 191.9869 237.7652 195.25037 233.9494 197.42004 231.18186 C 201.05073 226.6216 201.54499 225.60512 202.43408 221.03112 C 203.87886 213.59836 203.81292 206.6878 202.3258 203.65448 C 201.5753 202.17356 201.2536 200.77598 201.53748 200.46031 C 202.38908 199.5133 211.0189 200.52325 213.08162 201.74007 C 214.47132 202.60355 215.20794 204.15595 215.9248 207.33623 C 217.4181 214.15339 217.92642 215.73558 218.6411 215.8745 C 219.64167 216.069 223.53196 204.06808 223.93668 199.6966 C 224.1628 196.62545 224.62727 195.3807 226.4992 193.0003 C 227.70412 191.38028 229.21082 190.1156 229.7111 190.21284 C 230.92607 190.449 235.131 194.38147 236.1694 196.2892 C 236.71739 197.28575 236.62817 199.27098 235.77674 202.8881 C 235.08012 206.0903 234.86387 208.34752 235.30859 208.73064 C 236.31317 209.6676 240.69436 206.58826 242.9474 203.3919 C 243.9955 201.81558 245.75827 200.37817 247.08438 200.04259 C 252.44438 198.41437 259.36046 191.45178 260.30512 186.5919 C 260.62464 184.94811 261.58336 182.68689 262.46275 181.59695 C 264.023 179.67515 264.10838 179.61758 264.7874 181.08461 C 265.22024 181.91044 265.4129 183.20876 265.27397 183.92345 C 265.13505 184.63814 265.4072 187.4353 265.89375 190.27414 C 267.0138 196.72206 266.35887 199.70986 262.73823 206.12632 C 259.6833 211.5402 257.82327 213.4779 255.96508 213.1167 C 254.3074 212.86865 251.97287 214.19493 251.70892 215.55283 C 251.47275 216.7678 253.0074 218.0303 256.35657 219.49718 C 258.88978 220.58294 259.08443 222.2525 256.90086 225.0915 C 255.9798 226.39585 254.88802 227.81535 254.491 228.33153 C 253.79623 229.23485 246.99297 230.6567 245.0633 230.2816 C 242.41896 229.7676 242.73078 231.9791 245.61748 235.06198 C 249.1792 238.8694 250.71804 243.5445 248.75474 244.86878 C 247.7165 245.63117 247.31548 245.40488 245.5465 243.05845 C 243.20176 239.85842 242.00069 239.5508 237.88143 240.901 C 234.6178 242.04667 232.64446 241.51475 225.01102 237.2867 C 221.93184 235.57563 221.63207 235.59153 220.09557 236.6279 C 217.96155 238.06733 218.4282 239.86392 221.5273 242.61723 C 223.67939 244.51894 223.85412 245.14626 223.71152 250.45872 C 223.69377 252.45784 223.38212 252.91645 221.92697 253.15278 C 220.61475 253.4169 219.26873 252.71024 216.08427 250.0145 C 212.31216 246.90787 211.4962 246.52675 206.60854 245.72503 C 199.93416 244.576 197.95295 245.22926 196.53177 249.10648 C 195.92638 250.6947 194.07036 253.37486 192.30958 255.1835 C 190.5627 256.92068 188.76224 259.31497 188.29778 260.55973 C 187.36885 263.04926 188.71922 269.83863 191.21493 274.5514 C 191.99523 276.26062 193.25405 279.32374 193.9371 281.53325 C 194.63405 283.6713 195.63478 286.5359 196.18477 287.90368 C 196.82012 289.2139 197.97768 292.0348 198.83145 294.12917 C 199.7567 296.23742 201.38876 299.66977 202.51452 301.89116 C 204.77993 306.26248 207.11094 312.2041 209.30505 319.23165 C 211.20926 325.46115 210.33807 330.70616 206.91175 333.45193 C 205.3058 334.84566 204.58323 335.8919 204.63294 337.16245 C 204.68064 338.06176 204.81772 339.64595 204.85153 340.61672 C 204.88735 341.95873 204.19258 342.86205 201.731 344.4603 L 198.58654 346.51917 L 197.88758 344.0099 C 197.48053 342.6699 196.7737 341.3458 196.22974 341.09172 C 194.9552 340.39896 194.90983 345.21114 196.2023 346.5749 C 197.30813 347.75406 196.93706 350.4262 195.65464 350.9186 C 195.09879 351.10724 194.52503 350.62486 194.29271 349.9122 C 193.88566 348.5722 191.18173 347.60158 190.95946 348.74508 C 190.90389 349.03095 191.32483 350.2995 191.9165 351.45286 C 192.941 353.43206 193.0543 355.90167 192.12521 355.72107 C 191.9108 355.6794 190.87844 354.88537 189.8024 353.9345 C 188.46825 352.78516 188.12078 351.90176 188.52968 350.94287 C 192.5512 342.08258 194.7207 336.64492 195.0958 334.71526 C 195.35974 333.35736 196.11594 330.61175 196.80469 328.59472 C 197.7316 325.73396 197.76324 323.66337 197.17928 318.6547 C 195.72732 306.2829 193.91248 300.73828 187.76952 289.60554 C 178.91644 273.71836 173.7742 265.45023 170.8736 262.43883 C 169.194 260.7773 168.37204 259.28248 168.58243 258.58168 C 168.86428 257.89478 168.47514 257.2258 167.6453 256.91614 C 164.52645 255.7907 160.3374 252.15802 159.58288 249.93462 C 158.77079 247.62586 156.47977 246.43883 155.3304 247.77297 C 154.88971 248.13233 153.64696 248.0391 151.85823 247.32056 C 149.29723 246.37774 148.84064 246.43732 146.9786 248.00378 L 144.93194 249.75685 L 135.641 247.95088 C 126.42152 246.1588 126.35005 246.1449 124.18824 247.72725 C 118.65568 251.7695 118.14519 247.14596 123.30635 240.4356 C 127.38962 235.07326 127.85408 233.8285 126.24796 232.5521 C 124.9575 231.55956 124.21503 231.56358 119.70865 232.61603 C 116.84202 233.24552 113.38374 232.72163 110.73337 231.09392 C 109.67322 230.44283 101.11085 228.7043 99.45518 228.8275 C 98.86954 228.78782 98.16674 228.2062 97.87685 227.40816 C 97.37054 226.1972 97.68219 225.7386 99.61771 224.55727 C 100.87034 223.83656 103.28036 223.26665 104.82288 223.34398 C 108.22159 223.41127 110.49855 221.99963 110.59964 219.5717 C 110.70677 218.25748 109.71608 217.24905 105.76136 214.70027 C 103.0673 212.91572 99.95632 210.60511 98.85048 209.42596 C 97.80221 208.33217 96.44029 207.32575 95.86854 207.2146 C 95.29679 207.10347 93.5576 204.98535 91.95935 202.52377 C 87.43857 195.63732 87.29363 195.2383 85.4706 185.53862 C 84.63256 181.0739 86.47234 172.75373 88.33053 173.11493 C 89.25963 173.29553 93.83999 180.63858 93.6455 181.63914 C 93.43711 182.71117 96.91967 190.36002 98.37097 192.05133 C 100.55486 194.55258 109.15522 200.67447 112.11724 201.84358 C 113.49105 202.4073 115.34924 202.7685 116.26243 202.64933 C 117.86052 202.44078 117.98756 202.1688 118.29503 198.2976 C 118.52317 195.59768 119.18212 193.35235 120.20043 191.54772 C 122.09611 188.28192 123.99196 187.68624 122.63824 190.83488 C 122.1023 192.06575 121.98129 193.45144 122.24139 194.02118 C 122.50149 194.59093 122.97415 197.50123 123.27609 200.5267 C 123.77269 205.2217 124.14995 206.3334 126.36163 208.69171 C 130.5408 213.13835 132.00984 212.83055 134.76098 206.6901 C 137.47044 200.76404 143.05472 198.36356 142.04059 203.58079 C 141.52658 206.22513 143.49222 210.61235 148.52918 217.89582 C 151.9401 222.86064 153.41918 224.40902 156.8994 226.34638 C 159.2341 227.69024 162.09686 228.9884 163.24037 229.21067 C 164.88415 229.53019 166.11904 230.8086 168.98398 235.1481 C 173.79264 242.46137 173.40767 245.20497 168.25573 240.4209 C 162.96084 235.60905 160.49509 233.7947 155.49813 231.26585 C 152.5202 229.79697 148.85739 228.41747 147.27118 228.1833 C 143.59849 227.61775 135.25438 223.99325 133.31669 222.13322 C 132.49873 221.38087 130.92441 220.704 129.5963 220.66835 C 126.81102 220.4978 116.10241 215.30115 111.8578 211.95433 C 110.12264 210.57868 107.41067 208.12313 105.86012 206.56085 C 102.70143 203.35095 99.51898 201.02645 99.36617 201.8126 C 99.14389 202.9561 104.37735 209.61025 107.99263 212.76057 C 112.88447 216.9749 120.94873 221.65753 128.01628 224.21803 C 131.04977 225.40103 134.75627 226.93736 136.24523 227.6718 C 137.7342 228.40624 141.46848 229.79964 144.54365 230.76824 C 152.99689 233.44975 157.31882 235.25405 159.88584 237.31058 C 161.1763 238.3031 164.05898 240.6435 166.3818 242.43006 C 171.21406 246.1878 172.73683 247.893 172.4451 249.39384 C 172.16726 250.82322 173.7953 253.5131 175.08174 253.76315 C 177.44021 254.2216 177.0941 243.02894 174.56256 236.97417 C 173.59363 234.7091 172.79342 231.95762 172.7874 230.84391 C 172.7238 229.64484 171.63369 226.09534 170.24582 222.93296 C 168.87185 219.69912 166.25295 213.3307 164.41435 208.6715 C 162.50428 203.9984 160.46315 198.85482 159.74043 197.23095 C 158.13414 193.28443 154.3083 188.16479 150.7506 185.09982 C 147.90959 182.54502 144.1733 180.78039 137.0065 178.34894 C 132.27164 176.76105 131.63629 175.45084 135.01508 174.4759 C 138.23703 173.54462 139.65252 173.89394 145.18156 177.11958 C 156.71214 183.81105 160.6789 188.58724 164.19543 199.87698 C 166.60796 207.68868 167.2433 208.99888 168.16638 208.06577 C 169.4011 206.67406 166.28159 194.86814 162.9778 188.58909 C 161.78056 186.3538 161.34171 184.41427 161.63345 182.91342 C 161.8835 181.62698 161.84367 179.5425 161.50809 178.2164 C 161.25786 176.83271 160.91625 174.3929 160.86454 172.75112 C 160.74135 171.09546 160.40761 167.47046 160.14935 164.60183 C 159.64874 159.16434 160.1728 158.37618 161.89222 162.12218 Z" fill="#ff0000"/>
        </g>
        <g id="Graphic_9">
          <path d="M 190.04876 357.24585 C 190.9382 358.0121 191.08314 358.4111 190.41012 358.0578 C 189.73711 357.70446 188.49235 357.24 187.77766 357.10107 C 186.9915 356.94826 186.63215 356.50756 186.91602 356.1919 C 187.66837 355.37394 188.15476 355.54265 190.04876 357.24585 Z" fill="#ff0000"/>
        </g>
        <g id="Graphic_8">
          <path d="M 190.57716 362.5404 C 191.59965 364.14837 191.67714 365.27597 190.79993 369.40727 C 189.85526 374.26715 185.46854 384.24316 183.69186 385.75204 C 181.75835 387.3046 178.2311 395.14843 177.30033 399.93684 C 176.00836 406.58344 175.09918 407.4451 173.33807 403.9135 C 170.6954 398.43046 170.19229 384.61137 172.38155 377.54583 C 173.8285 373.15443 176.22246 369.61463 181.10779 364.7049 C 182.67006 363.15433 184.04571 361.41916 184.17074 360.77594 C 184.29577 360.1327 184.56374 359.5173 184.81982 359.34455 C 185.83026 358.7251 189.38194 360.67636 190.57716 362.5404 Z" fill="#ff0000"/>
        </g>
        <g id="Graphic_7">
          <path d="M 133.32211 149.22597 C 133.25265 149.58331 133.54053 150.01012 133.89788 150.07958 C 134.32669 150.16293 134.68203 149.86116 134.75149 149.50381 C 134.83484 149.075 134.60453 148.73355 134.17572 148.6502 C 133.81837 148.58074 133.40546 148.79716 133.32211 149.22597 Z" fill="#cccccc"/>
        </g>
        <g id="Graphic_6">
          <path d="M 204.91599 323.49617 C 205.06495 324.63767 206.66705 325.1716 206.9469 324.11345 C 207.03026 323.68464 206.61333 323.15858 205.91253 322.9482 C 205.23952 322.59486 204.8266 322.81128 204.91599 323.49617 Z" fill="#cccccc"/>
        </g>
        <g id="Graphic_5">
          <path d="M 202.4129 327.97896 C 202.0378 329.9086 203.7929 332.3265 204.9026 331.578 C 205.50012 331.17497 205.65293 330.3888 205.33124 328.99124 C 204.73354 326.72415 202.80188 325.97783 202.4129 327.97896 Z" fill="#cccccc"/>
        </g>
        <g id="Graphic_4">
          <path d="M 199.73942 337.91714 C 199.5866 338.7033 199.92018 339.65817 200.43636 340.05518 C 201.82607 340.91866 202.45138 340.3727 202.22694 338.47483 C 202.03027 336.43404 200.10062 336.05895 199.73942 337.91714 Z" fill="#cccccc"/>
        </g>
      </g>
    </g>
  </g>
</svg>
