<?xml version="1.0" encoding="UTF-8" standalone="no"?>
<!DOCTYPE svg PUBLIC "-//W3C//DTD SVG 1.1//EN" "http://www.w3.org/Graphics/SVG/1.1/DTD/svg11.dtd">
<svg xmlns:dc="http://purl.org/dc/elements/1.1/" xmlns:xl="http://www.w3.org/1999/xlink" version="1.1" xmlns="http://www.w3.org/2000/svg" viewBox="85.5 62 194 356.5" width="194" height="356.5">
  <defs>
    <clipPath id="artboard_clip_path">
      <path d="M 85.5 62 L 279.5 62 L 279.5 418.5 L 85.5 418.5 Z"/>
    </clipPath>
  </defs>
  <metadata> Produced by OmniGraffle 7.8 
    <dc:date>2018-07-22 17:54:47 +0000</dc:date><dc:title>Traceable heraldic art http://heraldicart.org/credits.html</dc:title>
  </metadata>
  <g id="Rue_Sprig" fill-opacity="1" stroke-dasharray="none" stroke="none" stroke-opacity="1" fill="#ffff00">
    <title>Rue Sprig</title>
    <g id="Rue_Sprig: Layer 2" >
      <title>Layer 2</title>
      <g id="Group_3">
        <g id="Graphic_72">
          <path d="M 184.6395 105.41426 C 188.03485 98.62354 199.57907 70.102534 205.01164 67.38625 C 210.4442 64.66996 216.55586 62.63275 218.59307 68.74439 C 220.63029 74.85604 217.23493 81.64675 211.12328 85.72118 C 205.01164 89.79561 181.24413 112.20498 184.6395 105.41426 Z" fill="#f5f5f5"/>
          <path d="M 184.6395 105.41426 C 188.03485 98.62354 199.57907 70.102534 205.01164 67.38625 C 210.4442 64.66996 216.55586 62.63275 218.59307 68.74439 C 220.63029 74.85604 217.23493 81.64675 211.12328 85.72118 C 205.01164 89.79561 181.24413 112.20498 184.6395 105.41426 Z" stroke="#cccccc" stroke-linecap="round" stroke-linejoin="round" stroke-width="1.5"/>
        </g>
        <g id="Graphic_71">
          <path d="M 183.96042 109.48869 C 183.96042 109.48869 179.88599 94.54911 176.49063 90.47468 C 173.09527 86.40025 168.34177 76.21418 160.87198 71.46068 C 153.4022 66.70718 154.76034 70.78161 155.4394 76.89325 C 156.11848 83.0049 164.26734 95.22819 169.02084 99.98169 C 173.77434 104.73519 182.60227 111.5259 182.60227 111.5259 Z" fill="#f5f5f5"/>
          <path d="M 183.96042 109.48869 C 183.96042 109.48869 179.88599 94.54911 176.49063 90.47468 C 173.09527 86.40025 168.34177 76.21418 160.87198 71.46068 C 153.4022 66.70718 154.76034 70.78161 155.4394 76.89325 C 156.11848 83.0049 164.26734 95.22819 169.02084 99.98169 C 173.77434 104.73519 182.60227 111.5259 182.60227 111.5259 Z" stroke="#cccccc" stroke-linecap="round" stroke-linejoin="round" stroke-width="1.5"/>
        </g>
        <g id="Graphic_70">
          <path d="M 194.1465 139.36784 C 194.1465 139.36784 197.54185 142.7632 203.6535 144.80042 C 209.76514 146.83763 214.56894 148.00966 219.95121 152.94927 C 225.33349 157.8889 227.04374 160.63536 221.30936 161.09813 C 215.57498 161.5609 206.36978 157.0237 200.9372 152.2702 C 195.50464 147.5167 191.4302 140.72599 191.4302 140.72599 Z" fill="#f5f5f5"/>
          <path d="M 194.1465 139.36784 C 194.1465 139.36784 197.54185 142.7632 203.6535 144.80042 C 209.76514 146.83763 214.56894 148.00966 219.95121 152.94927 C 225.33349 157.8889 227.04374 160.63536 221.30936 161.09813 C 215.57498 161.5609 206.36978 157.0237 200.9372 152.2702 C 195.50464 147.5167 191.4302 140.72599 191.4302 140.72599 Z" stroke="#cccccc" stroke-linecap="round" stroke-linejoin="round" stroke-width="1.5"/>
        </g>
        <g id="Graphic_69">
          <path d="M 216.55586 194.37264 C 216.55586 194.37264 219.27214 184.18657 219.27214 180.79121 C 219.27214 177.39585 224.02564 164.4935 229.45822 160.41906 C 234.8908 156.34463 237.60708 158.38185 237.60708 163.13535 C 237.60708 167.88885 232.85358 174.67957 230.81636 178.754 C 228.77915 182.82843 219.95121 192.33543 219.95121 192.33543 Z" fill="#f5f5f5"/>
          <path d="M 216.55586 194.37264 C 216.55586 194.37264 219.27214 184.18657 219.27214 180.79121 C 219.27214 177.39585 224.02564 164.4935 229.45822 160.41906 C 234.8908 156.34463 237.60708 158.38185 237.60708 163.13535 C 237.60708 167.88885 232.85358 174.67957 230.81636 178.754 C 228.77915 182.82843 219.95121 192.33543 219.95121 192.33543 Z" stroke="#cccccc" stroke-linecap="round" stroke-linejoin="round" stroke-width="1.5"/>
        </g>
        <g id="Graphic_68">
          <path d="M 209.08607 197.768 C 209.08607 197.768 219.95121 205.2378 224.70472 207.275 C 229.45822 209.31222 242.36058 216.10294 244.3978 221.5355 C 246.435 226.96808 246.435 232.40066 239.6443 230.36344 C 232.85358 228.32623 223.85655 215.93651 220.63029 213.38665 C 217.40403 210.8368 207.72793 199.12615 207.72793 199.12615 Z" fill="#f5f5f5"/>
          <path d="M 209.08607 197.768 C 209.08607 197.768 219.95121 205.2378 224.70472 207.275 C 229.45822 209.31222 242.36058 216.10294 244.3978 221.5355 C 246.435 226.96808 246.435 232.40066 239.6443 230.36344 C 232.85358 228.32623 223.85655 215.93651 220.63029 213.38665 C 217.40403 210.8368 207.72793 199.12615 207.72793 199.12615 Z" stroke="#cccccc" stroke-linecap="round" stroke-linejoin="round" stroke-width="1.5"/>
        </g>
        <g id="Graphic_67">
          <path d="M 185.99763 143.44227 C 185.99763 143.44227 183.28135 135.97248 183.96042 130.53991 C 184.6395 125.10734 185.99763 116.2794 188.03485 112.88405 C 190.07206 109.48869 192.78835 105.41426 194.82556 110.84683 C 196.86278 116.2794 197.54185 123.07012 195.50464 127.82362 C 193.46742 132.57713 188.03485 142.08413 188.03485 142.08413 Z" fill="#f5f5f5"/>
          <path d="M 185.99763 143.44227 C 185.99763 143.44227 183.28135 135.97248 183.96042 130.53991 C 184.6395 125.10734 185.99763 116.2794 188.03485 112.88405 C 190.07206 109.48869 192.78835 105.41426 194.82556 110.84683 C 196.86278 116.2794 197.54185 123.07012 195.50464 127.82362 C 193.46742 132.57713 188.03485 142.08413 188.03485 142.08413 Z" stroke="#cccccc" stroke-linecap="round" stroke-linejoin="round" stroke-width="1.5"/>
        </g>
        <g id="Graphic_66">
          <path d="M 170.37898 146.15856 C 170.37898 146.15856 157.47662 129.18177 158.1557 121.03291 C 158.83477 112.88405 161.55105 112.88405 165.62548 117.63755 C 169.69991 122.39105 173.09527 146.83763 173.09527 146.83763 Z" fill="#f5f5f5"/>
          <path d="M 170.37898 146.15856 C 170.37898 146.15856 157.47662 129.18177 158.1557 121.03291 C 158.83477 112.88405 161.55105 112.88405 165.62548 117.63755 C 169.69991 122.39105 173.09527 146.83763 173.09527 146.83763 Z" stroke="#cccccc" stroke-linecap="round" stroke-linejoin="round" stroke-width="1.5"/>
        </g>
        <g id="Graphic_65">
          <path d="M 161.55105 144.12134 C 161.55105 144.12134 147.04974 137.9487 137.10447 119.67476 C 127.1592 101.40083 143.89519 111.5259 148.6487 117.63755 C 153.4022 123.7492 162.9092 144.12134 162.9092 144.12134 Z" fill="#f5f5f5"/>
          <path d="M 161.55105 144.12134 C 161.55105 144.12134 147.04974 137.9487 137.10447 119.67476 C 127.1592 101.40083 143.89519 111.5259 148.6487 117.63755 C 153.4022 123.7492 162.9092 144.12134 162.9092 144.12134 Z" stroke="#cccccc" stroke-linecap="round" stroke-linejoin="round" stroke-width="1.5"/>
        </g>
        <g id="Graphic_64">
          <path d="M 166.30456 146.15856 C 166.30456 146.15856 156.11848 154.98649 144.57426 155.66556 C 133.03004 156.34463 132.35097 150.23299 139.14169 145.47949 C 145.9324 140.72599 163.58827 144.80042 163.58827 144.80042 Z" fill="#f5f5f5"/>
          <path d="M 166.30456 146.15856 C 166.30456 146.15856 156.11848 154.98649 144.57426 155.66556 C 133.03004 156.34463 132.35097 150.23299 139.14169 145.47949 C 145.9324 140.72599 163.58827 144.80042 163.58827 144.80042 Z" stroke="#cccccc" stroke-linecap="round" stroke-linejoin="round" stroke-width="1.5"/>
        </g>
        <g id="Graphic_63">
          <path d="M 175.13249 148.87484 C 175.13249 148.87484 157.47662 157.70278 154.76034 167.88885 C 152.04405 178.07493 152.72312 180.79121 161.55105 176.71678 C 170.37898 172.64235 177.1697 149.55392 177.1697 149.55392 Z" fill="#f5f5f5"/>
          <path d="M 175.13249 148.87484 C 175.13249 148.87484 157.47662 157.70278 154.76034 167.88885 C 152.04405 178.07493 152.72312 180.79121 161.55105 176.71678 C 170.37898 172.64235 177.1697 149.55392 177.1697 149.55392 Z" stroke="#cccccc" stroke-linecap="round" stroke-linejoin="round" stroke-width="1.5"/>
        </g>
        <g id="Graphic_62">
          <path d="M 194.82556 204.55872 C 194.1465 201.16336 192.78835 186.22379 194.1465 182.14936 C 195.50464 178.07493 197.54185 165.85164 202.29535 162.45628 C 207.04885 159.06092 209.76514 157.70278 209.76514 165.85164 C 209.76514 174.0005 203.6535 187.58193 202.29535 190.97729 C 200.9372 194.37264 198.9 203.20058 198.9 203.20058 C 198.9 203.20058 195.50464 207.95408 194.82556 204.55872 Z" fill="#f5f5f5"/>
          <path d="M 194.82556 204.55872 C 194.1465 201.16336 192.78835 186.22379 194.1465 182.14936 C 195.50464 178.07493 197.54185 165.85164 202.29535 162.45628 C 207.04885 159.06092 209.76514 157.70278 209.76514 165.85164 C 209.76514 174.0005 203.6535 187.58193 202.29535 190.97729 C 200.9372 194.37264 198.9 203.20058 198.9 203.20058 C 198.9 203.20058 195.50464 207.95408 194.82556 204.55872 Z" stroke="#cccccc" stroke-linecap="round" stroke-linejoin="round" stroke-width="1.5"/>
        </g>
        <g id="Graphic_61">
          <path d="M 188.71392 209.9913 C 188.71392 209.9913 208.407 216.782 212.48143 220.85644 C 216.55586 224.93087 226.74193 231.0425 227.421 239.87044 C 228.10007 248.69838 228.10007 248.0193 222.6675 245.9821 C 217.23493 243.94487 205.01164 228.32623 201.61628 224.93087 C 198.22092 221.5355 186.6767 211.34944 186.6767 211.34944 Z" fill="#f5f5f5"/>
          <path d="M 188.71392 209.9913 C 188.71392 209.9913 208.407 216.782 212.48143 220.85644 C 216.55586 224.93087 226.74193 231.0425 227.421 239.87044 C 228.10007 248.69838 228.10007 248.0193 222.6675 245.9821 C 217.23493 243.94487 205.01164 228.32623 201.61628 224.93087 C 198.22092 221.5355 186.6767 211.34944 186.6767 211.34944 Z" stroke="#cccccc" stroke-linecap="round" stroke-linejoin="round" stroke-width="1.5"/>
        </g>
        <g id="Graphic_60">
          <path d="M 162.9092 211.34944 C 162.9092 211.34944 173.77434 193.0145 173.77434 188.261 C 173.77434 183.5075 175.13249 172.64235 173.09527 168.56792 C 171.05806 164.4935 165.62548 163.13535 162.9092 169.247 C 160.19291 175.35864 158.83477 190.29822 158.83477 193.69357 C 158.83477 197.08893 157.47662 207.95408 157.47662 207.95408 Z" fill="#f5f5f5"/>
          <path d="M 162.9092 211.34944 C 162.9092 211.34944 173.77434 193.0145 173.77434 188.261 C 173.77434 183.5075 175.13249 172.64235 173.09527 168.56792 C 171.05806 164.4935 165.62548 163.13535 162.9092 169.247 C 160.19291 175.35864 158.83477 190.29822 158.83477 193.69357 C 158.83477 197.08893 157.47662 207.95408 157.47662 207.95408 Z" stroke="#cccccc" stroke-linecap="round" stroke-linejoin="round" stroke-width="1.5"/>
        </g>
        <g id="Graphic_59">
          <path d="M 147.29055 199.12615 C 147.29055 199.12615 149.32776 178.754 146.61148 171.2842 C 143.89519 163.81442 140.49983 161.09813 137.78355 168.56792 C 135.06726 176.03771 145.25333 199.12615 145.25333 199.12615 Z" fill="#f5f5f5"/>
          <path d="M 147.29055 199.12615 C 147.29055 199.12615 149.32776 178.754 146.61148 171.2842 C 143.89519 163.81442 140.49983 161.09813 137.78355 168.56792 C 135.06726 176.03771 145.25333 199.12615 145.25333 199.12615 Z" stroke="#cccccc" stroke-linecap="round" stroke-linejoin="round" stroke-width="1.5"/>
        </g>
        <g id="Graphic_58">
          <path d="M 151.36498 205.2378 C 151.36498 205.2378 140.49983 199.12615 130.99283 201.16336 C 121.48583 203.20058 105.86718 207.275 105.86718 210.67036 C 105.86718 214.06572 125.56026 214.06572 133.03004 213.38665 C 140.49983 212.70758 152.72312 207.275 152.72312 207.275 Z" fill="#f5f5f5"/>
          <path d="M 151.36498 205.2378 C 151.36498 205.2378 140.49983 199.12615 130.99283 201.16336 C 121.48583 203.20058 105.86718 207.275 105.86718 210.67036 C 105.86718 214.06572 125.56026 214.06572 133.03004 213.38665 C 140.49983 212.70758 152.72312 207.275 152.72312 207.275 Z" stroke="#cccccc" stroke-linecap="round" stroke-linejoin="round" stroke-width="1.5"/>
        </g>
        <g id="Graphic_57">
          <path d="M 172.4162 216.782 C 172.4162 216.782 156.79755 216.782 150.6859 216.782 C 144.57426 216.782 137.10447 215.42387 131.6719 217.46108 C 126.23933 219.4983 119.44861 220.17737 119.44861 222.89365 C 119.44861 225.60994 137.78355 229.0053 145.25333 228.32623 C 152.72312 227.64716 163.14044 227.32363 169.02084 222.89365 C 174.90124 218.46368 173.77434 218.14015 173.77434 218.14015 Z" fill="#f5f5f5"/>
          <path d="M 172.4162 216.782 C 172.4162 216.782 156.79755 216.782 150.6859 216.782 C 144.57426 216.782 137.10447 215.42387 131.6719 217.46108 C 126.23933 219.4983 119.44861 220.17737 119.44861 222.89365 C 119.44861 225.60994 137.78355 229.0053 145.25333 228.32623 C 152.72312 227.64716 163.14044 227.32363 169.02084 222.89365 C 174.90124 218.46368 173.77434 218.14015 173.77434 218.14015 Z" stroke="#cccccc" stroke-linecap="round" stroke-linejoin="round" stroke-width="1.5"/>
        </g>
        <g id="Graphic_56">
          <path d="M 211.12328 284.0101 C 214.51864 284.68917 218.59307 284.68917 225.3838 288.7636 C 232.1745 292.83803 244.3978 309.81482 243.71872 317.9637 C 243.03965 326.11254 241.00244 330.86604 235.56986 324.7544 C 230.1373 318.64276 220.85985 292.78024 214.51864 289.44267 C 208.17743 286.1051 209.08607 286.7264 209.08607 286.7264 C 209.08607 286.7264 207.72793 283.33103 211.12328 284.0101 Z" fill="#f5f5f5"/>
          <path d="M 211.12328 284.0101 C 214.51864 284.68917 218.59307 284.68917 225.3838 288.7636 C 232.1745 292.83803 244.3978 309.81482 243.71872 317.9637 C 243.03965 326.11254 241.00244 330.86604 235.56986 324.7544 C 230.1373 318.64276 220.85985 292.78024 214.51864 289.44267 C 208.17743 286.1051 209.08607 286.7264 209.08607 286.7264 C 209.08607 286.7264 207.72793 283.33103 211.12328 284.0101 Z" stroke="#cccccc" stroke-linecap="round" stroke-linejoin="round" stroke-width="1.5"/>
        </g>
        <g id="Graphic_55">
          <path d="M 200.25814 292.83803 C 200.25814 292.83803 208.407 294.19618 212.48143 298.2706 C 216.55586 302.34504 226.74193 318.64276 225.3838 328.14976 C 224.02564 337.65676 218.59307 338.33583 215.87678 329.5079 C 213.1605 320.67997 207.72793 301.66596 203.6535 299.62875 C 199.57907 297.59153 197.54185 294.19618 197.54185 294.19618 Z" fill="#f5f5f5"/>
          <path d="M 200.25814 292.83803 C 200.25814 292.83803 208.407 294.19618 212.48143 298.2706 C 216.55586 302.34504 226.74193 318.64276 225.3838 328.14976 C 224.02564 337.65676 218.59307 338.33583 215.87678 329.5079 C 213.1605 320.67997 207.72793 301.66596 203.6535 299.62875 C 199.57907 297.59153 197.54185 294.19618 197.54185 294.19618 Z" stroke="#cccccc" stroke-linecap="round" stroke-linejoin="round" stroke-width="1.5"/>
        </g>
        <g id="Graphic_54">
          <path d="M 205.01164 287.40546 C 205.01164 287.40546 201.61628 281.9729 202.29535 273.82403 C 202.97442 265.67517 206.36978 252.7728 211.12328 248.0193 C 215.87678 243.2658 219.27214 241.2286 217.914 252.09373 C 216.55586 262.95888 217.23493 267.71238 215.19771 272.46588 C 213.1605 277.2194 208.407 284.68917 208.407 284.68917 Z" fill="#f5f5f5"/>
          <path d="M 205.01164 287.40546 C 205.01164 287.40546 201.61628 281.9729 202.29535 273.82403 C 202.97442 265.67517 206.36978 252.7728 211.12328 248.0193 C 215.87678 243.2658 219.27214 241.2286 217.914 252.09373 C 216.55586 262.95888 217.23493 267.71238 215.19771 272.46588 C 213.1605 277.2194 208.407 284.68917 208.407 284.68917 Z" stroke="#cccccc" stroke-linecap="round" stroke-linejoin="round" stroke-width="1.5"/>
        </g>
        <g id="Graphic_53">
          <path d="M 202.29535 288.7636 C 202.29535 288.7636 203.6535 288.08453 199.57907 281.2938 C 195.50464 274.5031 194.1465 273.82403 196.1837 269.7496 C 198.22092 265.67517 199.57907 259.56352 196.1837 258.88445 C 192.78835 258.20538 190.75113 262.95888 189.393 267.71238 C 188.03485 272.46588 187.35578 277.2194 188.71392 280.61474 C 190.07206 284.0101 193.46742 281.2938 196.1837 285.36824 C 198.9 289.44267 200.25814 290.80082 200.25814 290.80082 Z" fill="#f5f5f5"/>
          <path d="M 202.29535 288.7636 C 202.29535 288.7636 203.6535 288.08453 199.57907 281.2938 C 195.50464 274.5031 194.1465 273.82403 196.1837 269.7496 C 198.22092 265.67517 199.57907 259.56352 196.1837 258.88445 C 192.78835 258.20538 190.75113 262.95888 189.393 267.71238 C 188.03485 272.46588 187.35578 277.2194 188.71392 280.61474 C 190.07206 284.0101 193.46742 281.2938 196.1837 285.36824 C 198.9 289.44267 200.25814 290.80082 200.25814 290.80082 Z" stroke="#cccccc" stroke-linecap="round" stroke-linejoin="round" stroke-width="1.5"/>
        </g>
        <g id="Graphic_52">
          <path d="M 221.30936 276.5403 C 219.95121 271.7868 221.30936 265.67517 222.6675 260.92167 C 224.02564 256.16816 234.21172 242.58673 236.24893 243.94487 C 238.28615 245.30302 239.6443 244.62395 238.28615 251.41466 C 236.928 258.20538 234.8908 263.63795 230.81636 266.35424 C 226.74193 269.07053 224.02564 275.86124 224.02564 275.86124 C 224.02564 275.86124 222.6675 281.2938 221.30936 276.5403 Z" fill="#f5f5f5"/>
          <path d="M 221.30936 276.5403 C 219.95121 271.7868 221.30936 265.67517 222.6675 260.92167 C 224.02564 256.16816 234.21172 242.58673 236.24893 243.94487 C 238.28615 245.30302 239.6443 244.62395 238.28615 251.41466 C 236.928 258.20538 234.8908 263.63795 230.81636 266.35424 C 226.74193 269.07053 224.02564 275.86124 224.02564 275.86124 C 224.02564 275.86124 222.6675 281.2938 221.30936 276.5403 Z" stroke="#cccccc" stroke-linecap="round" stroke-linejoin="round" stroke-width="1.5"/>
        </g>
        <g id="Graphic_51">
          <path d="M 179.20692 150.91206 C 179.88599 151.59113 186.6767 175.35864 193.46742 180.11214 C 200.25814 184.86564 202.29535 181.47028 199.57907 174.0005 C 196.86278 166.5307 188.71392 152.94927 186.6767 152.2702 C 184.6395 151.59113 179.88599 148.19577 179.88599 148.19577 C 179.88599 148.19577 178.52784 150.23299 179.20692 150.91206 Z" fill="#f5f5f5"/>
          <path d="M 179.20692 150.91206 C 179.88599 151.59113 186.6767 175.35864 193.46742 180.11214 C 200.25814 184.86564 202.29535 181.47028 199.57907 174.0005 C 196.86278 166.5307 188.71392 152.94927 186.6767 152.2702 C 184.6395 151.59113 179.88599 148.19577 179.88599 148.19577 C 179.88599 148.19577 178.52784 150.23299 179.20692 150.91206 Z" stroke="#cccccc" stroke-linecap="round" stroke-linejoin="round" stroke-width="1.5"/>
        </g>
        <g id="Graphic_50">
          <path d="M 139.82076 296.2334 C 139.82076 296.2334 120.12768 263.63795 122.84397 256.84724 C 125.56026 250.05652 126.9184 245.9821 131.6719 252.09373 C 136.4254 258.20538 141.85798 274.5031 142.53705 279.93567 C 143.21612 285.36824 141.85798 296.2334 141.85798 296.2334 Z" fill="#f5f5f5"/>
          <path d="M 139.82076 296.2334 C 139.82076 296.2334 120.12768 263.63795 122.84397 256.84724 C 125.56026 250.05652 126.9184 245.9821 131.6719 252.09373 C 136.4254 258.20538 141.85798 274.5031 142.53705 279.93567 C 143.21612 285.36824 141.85798 296.2334 141.85798 296.2334 Z" stroke="#cccccc" stroke-linecap="round" stroke-linejoin="round" stroke-width="1.5"/>
        </g>
        <g id="Graphic_49">
          <path d="M 144.57426 295.55432 C 144.57426 295.55432 150.00684 285.36824 152.04405 281.9729 C 154.08127 278.57753 162.9092 269.7496 166.30456 268.39145 C 169.69991 267.0333 173.09527 266.35424 171.05806 272.46588 C 169.02084 278.57753 161.55105 281.9729 159.51384 284.68917 C 157.47662 287.40546 146.61148 298.2706 146.61148 298.2706 Z" fill="#f5f5f5"/>
          <path d="M 144.57426 295.55432 C 144.57426 295.55432 150.00684 285.36824 152.04405 281.9729 C 154.08127 278.57753 162.9092 269.7496 166.30456 268.39145 C 169.69991 267.0333 173.09527 266.35424 171.05806 272.46588 C 169.02084 278.57753 161.55105 281.9729 159.51384 284.68917 C 157.47662 287.40546 146.61148 298.2706 146.61148 298.2706 Z" stroke="#cccccc" stroke-linecap="round" stroke-linejoin="round" stroke-width="1.5"/>
        </g>
        <g id="Graphic_48">
          <path d="M 118.76954 290.80082 C 118.76954 290.80082 111.97882 278.57753 110.62068 275.18217 C 109.26254 271.7868 105.18811 263.63795 106.54625 258.20538 C 107.9044 252.7728 111.29975 251.41466 113.33697 256.16816 C 115.37418 260.92167 120.12768 269.07053 120.12768 275.86124 C 120.12768 282.65196 120.80676 290.80082 120.80676 290.80082 Z" fill="#f5f5f5"/>
          <path d="M 118.76954 290.80082 C 118.76954 290.80082 111.97882 278.57753 110.62068 275.18217 C 109.26254 271.7868 105.18811 263.63795 106.54625 258.20538 C 107.9044 252.7728 111.29975 251.41466 113.33697 256.16816 C 115.37418 260.92167 120.12768 269.07053 120.12768 275.86124 C 120.12768 282.65196 120.80676 290.80082 120.80676 290.80082 Z" stroke="#cccccc" stroke-linecap="round" stroke-linejoin="round" stroke-width="1.5"/>
        </g>
        <g id="Graphic_47">
          <path d="M 119.87047 292.83803 C 119.87047 292.83803 117.40117 294.12072 111.04254 296.2334 C 104.68391 298.34606 102.89368 296.91246 93.38668 298.2706 C 83.87967 299.62875 86.8576 304.8773 97.46111 306.41947 C 108.06461 307.96163 114.51878 304.97936 117.15418 303.0241 C 119.78959 301.06886 122.58676 293.5171 122.58676 293.5171 Z" fill="#f5f5f5"/>
          <path d="M 119.87047 292.83803 C 119.87047 292.83803 117.40117 294.12072 111.04254 296.2334 C 104.68391 298.34606 102.89368 296.91246 93.38668 298.2706 C 83.87967 299.62875 86.8576 304.8773 97.46111 306.41947 C 108.06461 307.96163 114.51878 304.97936 117.15418 303.0241 C 119.78959 301.06886 122.58676 293.5171 122.58676 293.5171 Z" stroke="#cccccc" stroke-linecap="round" stroke-linejoin="round" stroke-width="1.5"/>
        </g>
        <g id="Graphic_46">
          <path d="M 141.23007 297.8716 C 141.23007 297.8716 123.5742 306.69954 120.85792 316.8856 C 118.14163 327.0717 118.8207 329.78797 127.64863 325.71354 C 136.47656 321.6391 143.26728 298.55068 143.26728 298.55068 Z" fill="#f5f5f5"/>
          <path d="M 141.23007 297.8716 C 141.23007 297.8716 123.5742 306.69954 120.85792 316.8856 C 118.14163 327.0717 118.8207 329.78797 127.64863 325.71354 C 136.47656 321.6391 143.26728 298.55068 143.26728 298.55068 Z" stroke="#cccccc" stroke-linecap="round" stroke-linejoin="round" stroke-width="1.5"/>
        </g>
        <g id="Graphic_45">
          <path d="M 179.74772 305.52244 L 97.03925 284.34964 C 97.03925 284.34964 89.23447 283.3998 96.36018 286.38685 C 102.96766 289.15668 169.1656 305.3379 179.9444 308.1213 C 181.37761 327.70145 181.35214 361.47028 181.9232 368.89406 C 182.60227 377.722 181.9232 404.2058 181.9232 404.2058 C 181.9232 404.2058 189.393 415.75 190.07206 415.75 C 190.54116 415.75 187.18355 361.11316 184.22246 304.8741 C 193.35498 298.73197 226.70438 276.26225 229.45822 273.82403 C 232.65183 270.99643 228.10007 271.7868 228.10007 271.7868 L 183.9838 300.33264 C 182.78178 277.4135 181.9232 260.28645 181.9232 257.5263 C 181.9232 251.22365 182.5201 230.2968 182.92248 214.53165 C 190.5849 210.4516 221.9887 193.65433 224.70472 190.97729 C 227.8004 187.92601 223.34657 189.61914 223.34657 189.61914 L 183.00918 211.08905 C 183.16911 204.63586 183.28135 199.43144 183.28135 197.08893 C 183.28135 190.57342 180.67657 163.65386 180.3266 148.26458 C 184.82697 145.80596 201.4605 136.66087 203.6535 134.61434 C 206.1932 132.24428 202.29535 133.2562 202.29535 133.2562 L 180.28813 144.90708 C 180.29315 142.58556 180.37705 140.6839 180.56506 139.36784 C 181.9232 129.86084 183.28135 114.92126 184.6395 110.84683 C 185.99763 106.7724 185.99763 105.41426 185.99763 105.41426 C 185.99763 105.41426 184.6395 100.66076 182.60227 106.09333 C 180.56506 111.5259 177.84877 122.39105 177.1697 130.53991 C 176.9631 133.01924 177.0708 139.33316 177.30154 147.18655 L 160.87198 142.7632 L 160.87198 144.12134 L 177.41445 150.86087 C 177.97743 168.5122 178.96895 191.59258 178.52784 197.768 C 178.12799 203.36601 178.19903 210.14126 178.32504 217.12328 C 175.098 216.36895 167.60218 214.32047 162.9092 210.67036 C 156.79755 205.91686 148.6487 202.5215 146.61148 198.44707 C 144.57426 194.37264 139.82076 196.40986 144.57426 201.16336 C 149.32776 205.91686 160.19291 214.06572 165.62548 216.782 C 169.43773 218.68813 175.25637 219.92545 178.3882 220.49398 C 178.45971 224.27207 178.52784 228.06496 178.52784 231.72159 C 178.52784 243.2658 177.84877 288.08453 179.20692 299.62875 C 179.36964 301.01187 179.55185 303.0286 179.74772 305.52244 Z" fill="#f5f5f5"/>
          <path d="M 179.74772 305.52244 L 97.03925 284.34964 C 97.03925 284.34964 89.23447 283.3998 96.36018 286.38685 C 102.96766 289.15668 169.1656 305.3379 179.9444 308.1213 C 181.37761 327.70145 181.35214 361.47028 181.9232 368.89406 C 182.60227 377.722 181.9232 404.2058 181.9232 404.2058 C 181.9232 404.2058 189.393 415.75 190.07206 415.75 C 190.54116 415.75 187.18355 361.11316 184.22246 304.8741 C 193.35498 298.73197 226.70438 276.26225 229.45822 273.82403 C 232.65183 270.99643 228.10007 271.7868 228.10007 271.7868 L 183.9838 300.33264 C 182.78178 277.4135 181.9232 260.28645 181.9232 257.5263 C 181.9232 251.22365 182.5201 230.2968 182.92248 214.53165 C 190.5849 210.4516 221.9887 193.65433 224.70472 190.97729 C 227.8004 187.92601 223.34657 189.61914 223.34657 189.61914 L 183.00918 211.08905 C 183.16911 204.63586 183.28135 199.43144 183.28135 197.08893 C 183.28135 190.57342 180.67657 163.65386 180.3266 148.26458 C 184.82697 145.80596 201.4605 136.66087 203.6535 134.61434 C 206.1932 132.24428 202.29535 133.2562 202.29535 133.2562 L 180.28813 144.90708 C 180.29315 142.58556 180.37705 140.6839 180.56506 139.36784 C 181.9232 129.86084 183.28135 114.92126 184.6395 110.84683 C 185.99763 106.7724 185.99763 105.41426 185.99763 105.41426 C 185.99763 105.41426 184.6395 100.66076 182.60227 106.09333 C 180.56506 111.5259 177.84877 122.39105 177.1697 130.53991 C 176.9631 133.01924 177.0708 139.33316 177.30154 147.18655 L 160.87198 142.7632 L 160.87198 144.12134 L 177.41445 150.86087 C 177.97743 168.5122 178.96895 191.59258 178.52784 197.768 C 178.12799 203.36601 178.19903 210.14126 178.32504 217.12328 C 175.098 216.36895 167.60218 214.32047 162.9092 210.67036 C 156.79755 205.91686 148.6487 202.5215 146.61148 198.44707 C 144.57426 194.37264 139.82076 196.40986 144.57426 201.16336 C 149.32776 205.91686 160.19291 214.06572 165.62548 216.782 C 169.43773 218.68813 175.25637 219.92545 178.3882 220.49398 C 178.45971 224.27207 178.52784 228.06496 178.52784 231.72159 C 178.52784 243.2658 177.84877 288.08453 179.20692 299.62875 C 179.36964 301.01187 179.55185 303.0286 179.74772 305.52244 Z" stroke="#cccccc" stroke-linecap="round" stroke-linejoin="round" stroke-width="1.5"/>
        </g>
        <g id="Graphic_44">
          <path d="M 151.3125 298.6875 C 155.38693 296.6503 158.83477 290.80082 163.58827 291.4799 C 168.34177 292.15896 174.45341 292.4985 178.52784 297.252 C 182.60227 302.0055 187.35578 305.06132 187.35578 309.13575 C 187.35578 313.2102 189.01573 318.7333 181.24413 313.88925 C 173.47253 309.0452 174.21403 310.6144 171.73713 306.759 C 169.26023 302.9036 164.94641 296.91246 161.55105 296.91246 C 158.1557 296.91246 155.4394 298.94968 155.4394 298.94968 Z" fill="#f5f5f5"/>
          <path d="M 151.3125 298.6875 C 155.38693 296.6503 158.83477 290.80082 163.58827 291.4799 C 168.34177 292.15896 174.45341 292.4985 178.52784 297.252 C 182.60227 302.0055 187.35578 305.06132 187.35578 309.13575 C 187.35578 313.2102 189.01573 318.7333 181.24413 313.88925 C 173.47253 309.0452 174.21403 310.6144 171.73713 306.759 C 169.26023 302.9036 164.94641 296.91246 161.55105 296.91246 C 158.1557 296.91246 155.4394 298.94968 155.4394 298.94968 Z" stroke="#cccccc" stroke-linecap="round" stroke-linejoin="round" stroke-width="1.5"/>
        </g>
        <g id="Graphic_43">
          <path d="M 183.28135 112.88405 L 182.60227 115.60033 C 182.60227 115.60033 197.54185 115.60033 202.97442 116.2794 C 208.407 116.95848 221.98843 118.99569 228.10007 116.2794 C 234.21172 113.56312 238.28615 112.88405 230.1373 107.45147 C 221.98843 102.0189 209.08607 104.05612 204.33257 104.05612 C 199.57907 104.05612 183.28135 112.88405 183.28135 112.88405 Z" fill="#f5f5f5"/>
          <path d="M 183.28135 112.88405 L 182.60227 115.60033 C 182.60227 115.60033 197.54185 115.60033 202.97442 116.2794 C 208.407 116.95848 221.98843 118.99569 228.10007 116.2794 C 234.21172 113.56312 238.28615 112.88405 230.1373 107.45147 C 221.98843 102.0189 209.08607 104.05612 204.33257 104.05612 C 199.57907 104.05612 183.28135 112.88405 183.28135 112.88405 Z" stroke="#cccccc" stroke-linecap="round" stroke-linejoin="round" stroke-width="1.5"/>
        </g>
        <g id="Graphic_42">
          <path d="M 200.01332 135.0486 C 200.01332 135.0486 210.1994 127.57881 214.27383 125.5416 C 218.34826 123.50438 229.89248 120.7881 234.64598 120.7881 C 239.39948 120.7881 240.75762 124.18345 237.36226 127.57881 C 233.9669 130.97417 225.81805 137.76489 214.9529 137.76489 C 204.08775 137.76489 200.01332 135.0486 200.01332 135.0486 Z" fill="#f5f5f5"/>
          <path d="M 200.01332 135.0486 C 200.01332 135.0486 210.1994 127.57881 214.27383 125.5416 C 218.34826 123.50438 229.89248 120.7881 234.64598 120.7881 C 239.39948 120.7881 240.75762 124.18345 237.36226 127.57881 C 233.9669 130.97417 225.81805 137.76489 214.9529 137.76489 C 204.08775 137.76489 200.01332 135.0486 200.01332 135.0486 Z" stroke="#cccccc" stroke-linecap="round" stroke-linejoin="round" stroke-width="1.5"/>
        </g>
        <g id="Graphic_41">
          <path d="M 222.784 192.36694 C 222.784 192.36694 232.9701 186.2553 241.79802 183.539 C 250.62595 180.82272 261.4911 180.14365 264.88645 182.85993 C 268.2818 185.57622 269.63995 186.93436 264.88645 190.32972 C 260.13295 193.72508 245.87245 198.47858 236.36544 198.47858 C 226.85844 198.47858 220.7468 193.046 220.7468 193.046 Z" fill="#f5f5f5"/>
          <path d="M 222.784 192.36694 C 222.784 192.36694 232.9701 186.2553 241.79802 183.539 C 250.62595 180.82272 261.4911 180.14365 264.88645 182.85993 C 268.2818 185.57622 269.63995 186.93436 264.88645 190.32972 C 260.13295 193.72508 245.87245 198.47858 236.36544 198.47858 C 226.85844 198.47858 220.7468 193.046 220.7468 193.046 Z" stroke="#cccccc" stroke-linecap="round" stroke-linejoin="round" stroke-width="1.5"/>
        </g>
        <g id="Graphic_40">
          <path d="M 143.89519 198.44707 C 143.89519 198.44707 135.88225 181.47456 128.27654 176.03771 C 120.67083 170.60086 103.82996 164.4935 100.4346 169.92607 C 97.03925 175.35864 111.97882 184.18657 117.4114 186.90286 C 122.84397 189.61914 143.89519 198.44707 143.89519 198.44707 Z" fill="#f5f5f5"/>
          <path d="M 143.89519 198.44707 C 143.89519 198.44707 135.88225 181.47456 128.27654 176.03771 C 120.67083 170.60086 103.82996 164.4935 100.4346 169.92607 C 97.03925 175.35864 111.97882 184.18657 117.4114 186.90286 C 122.84397 189.61914 143.89519 198.44707 143.89519 198.44707 Z" stroke="#cccccc" stroke-linecap="round" stroke-linejoin="round" stroke-width="1.5"/>
        </g>
        <g id="Graphic_39">
          <path d="M 99.90295 285.0085 C 99.90295 285.0085 87.00059 268.03172 87.67966 259.88286 C 88.35874 251.734 91.07502 251.734 95.14945 256.4875 C 99.22388 261.241 102.61924 285.6876 102.61924 285.6876 Z" fill="#f5f5f5"/>
          <path d="M 99.90295 285.0085 C 99.90295 285.0085 87.00059 268.03172 87.67966 259.88286 C 88.35874 251.734 91.07502 251.734 95.14945 256.4875 C 99.22388 261.241 102.61924 285.6876 102.61924 285.6876 Z" stroke="#cccccc" stroke-linecap="round" stroke-linejoin="round" stroke-width="1.5"/>
        </g>
        <g id="Graphic_38">
          <path d="M 230.1373 272.12635 C 230.1373 272.12635 246.435 266.0147 253.22573 266.0147 C 260.01644 266.0147 268.84437 269.41006 274.27695 272.80542 C 279.70952 276.20078 277.6723 279.59614 270.20252 280.2752 C 262.73273 280.95428 249.1513 278.91706 245.07687 278.91706 C 241.00244 278.91706 230.1373 273.4845 230.1373 273.4845 Z" fill="#f5f5f5"/>
          <path d="M 230.1373 272.12635 C 230.1373 272.12635 246.435 266.0147 253.22573 266.0147 C 260.01644 266.0147 268.84437 269.41006 274.27695 272.80542 C 279.70952 276.20078 277.6723 279.59614 270.20252 280.2752 C 262.73273 280.95428 249.1513 278.91706 245.07687 278.91706 C 241.00244 278.91706 230.1373 273.4845 230.1373 273.4845 Z" stroke="#cccccc" stroke-linecap="round" stroke-linejoin="round" stroke-width="1.5"/>
        </g>
        <g id="Line_37">
          <path d="M 188.74167 100.88333 C 188.74167 100.88333 210.92682 72.82708 209.40833 74.05" stroke="#cccccc" stroke-linecap="round" stroke-linejoin="round" stroke-width=".5"/>
        </g>
        <g id="Line_36">
          <path d="M 185.625 113.625 C 191.8125 111.9375 211.63945 109.74596 222.11602 111.6086" stroke="#cccccc" stroke-linecap="round" stroke-linejoin="round" stroke-width=".5"/>
        </g>
        <g id="Line_35">
          <path d="M 180 106.3125 C 180 106.3125 160.53854 78.03698 160.53854 78.03698" stroke="#cccccc" stroke-linecap="round" stroke-linejoin="round" stroke-width=".5"/>
        </g>
        <g id="Line_34">
          <path d="M 187.3125 138.375 C 187.3125 138.375 187.24167 125.88333 190.75664 119.28242" stroke="#cccccc" stroke-linecap="round" stroke-linejoin="round" stroke-width=".5"/>
        </g>
        <g id="Line_33">
          <path d="M 204.1875 134.4375 C 207.5625 133.875 225.2828 129.34219 228.79766 127.38984 C 232.3125 125.4375 232.1668 125.61771 232.1668 125.61771" stroke="#cccccc" stroke-linecap="round" stroke-linejoin="round" stroke-width=".5"/>
        </g>
        <g id="Line_32">
          <path d="M 194.625 142.3125 C 199.6875 145.6875 209.36536 153.49922 218.11927 157.4608" stroke="#cccccc" stroke-linecap="round" stroke-linejoin="round" stroke-width=".5"/>
        </g>
        <g id="Line_31">
          <path d="M 220.5 189 C 220.5 189 226.61406 172.61576 232.42852 163.86836" stroke="#cccccc" stroke-linecap="round" stroke-linejoin="round" stroke-width=".5"/>
        </g>
        <g id="Line_30">
          <path d="M 225.5625 192.9375 C 230.625 194.0625 248.1017 191.36706 257.38424 187.13594" stroke="#cccccc" stroke-linecap="round" stroke-linejoin="round" stroke-width=".5"/>
        </g>
        <g id="Line_29">
          <path d="M 213.1875 203.0625 C 213.1875 203.0625 235.56263 218.88268 239.69023 224.75768" stroke="#cccccc" stroke-linecap="round" stroke-linejoin="round" stroke-width=".5"/>
        </g>
        <g id="Line_28">
          <path d="M 196.875 200.25 C 196.875 196.3125 198.52161 179.7401 203.78008 169.1112" stroke="#cccccc" stroke-linecap="round" stroke-linejoin="round" stroke-width=".5"/>
        </g>
        <g id="Line_27">
          <path d="M 182.8125 153.5625 C 184.5 155.25 193.65833 170.24531 195.94023 176.71406" stroke="#cccccc" stroke-linecap="round" stroke-linejoin="round" stroke-width=".5"/>
        </g>
        <g id="Line_26">
          <path d="M 169.875 141.75 C 169.875 141.75 163.66615 127.31888 162.83216 121.84948" stroke="#cccccc" stroke-linecap="round" stroke-linejoin="round" stroke-width=".5"/>
        </g>
        <g id="Line_25">
          <path d="M 158.625 140.625 C 158.625 140.625 142.71172 117.85078 139.81198 115.35208" stroke="#cccccc" stroke-linecap="round" stroke-linejoin="round" stroke-width=".5"/>
        </g>
        <g id="Line_24">
          <path d="M 161.4375 146.25 C 155.8125 149.0625 148.3556 151.25052 139.81198 150.66198" stroke="#cccccc" stroke-linecap="round" stroke-linejoin="round" stroke-width=".5"/>
        </g>
        <g id="Line_23">
          <path d="M 174.375 151.875 C 174.375 151.875 160.8914 167.21341 157.13555 174.07214" stroke="#cccccc" stroke-linecap="round" stroke-linejoin="round" stroke-width=".5"/>
        </g>
        <g id="Line_22">
          <path d="M 191.25 213.1875 C 199.125 217.6875 217.76836 231.69193 223.07174 240.59102" stroke="#cccccc" stroke-linecap="round" stroke-linejoin="round" stroke-width=".5"/>
        </g>
        <g id="Line_21">
          <path d="M 161.4375 206.4375 C 161.4375 206.4375 168.01706 190.46927 168.1974 172.69974" stroke="#cccccc" stroke-linecap="round" stroke-linejoin="round" stroke-width=".5"/>
        </g>
        <g id="Line_20">
          <path d="M 145.125 195.1875 C 145.125 195.1875 142.25404 170.62812 142.25404 170.62812" stroke="#cccccc" stroke-linecap="round" stroke-linejoin="round" stroke-width=".5"/>
        </g>
        <g id="Line_19">
          <path d="M 139.5 194.625 C 135.5625 191.8125 122.67721 178.72122 107.08737 174.00573" stroke="#cccccc" stroke-linecap="round" stroke-linejoin="round" stroke-width=".5"/>
        </g>
        <g id="Line_18">
          <path d="M 147.375 205.875 C 136.6875 208.6875 127.36602 206.619 115.55326 209.6366" stroke="#cccccc" stroke-linecap="round" stroke-linejoin="round" stroke-width=".5"/>
        </g>
        <g id="Line_17">
          <path d="M 167.625 219.375 C 157.5 223.875 139.65312 220.8013 127.53984 222.70104" stroke="#cccccc" stroke-linecap="round" stroke-linejoin="round" stroke-width=".5"/>
        </g>
        <g id="Line_16">
          <path d="M 200.25 287.4375 C 196.875 282.375 189.29635 275.21406 193.9435 264.65417" stroke="#cccccc" stroke-linecap="round" stroke-linejoin="round" stroke-width=".5"/>
        </g>
        <g id="Line_15">
          <path d="M 206.4375 283.5 C 206.4375 283.5 210.2371 260.119 214.21122 250.60143" stroke="#cccccc" stroke-linecap="round" stroke-linejoin="round" stroke-width=".5"/>
        </g>
        <g id="Line_14">
          <path d="M 223.3125 272.25 C 224.4375 266.625 231.1362 259.0552 235.24102 249.28372" stroke="#cccccc" stroke-linecap="round" stroke-linejoin="round" stroke-width=".5"/>
        </g>
        <g id="Line_13">
          <path d="M 233.4375 273.375 C 237.9375 273.375 258.0522 271.82734 271.16354 276.5806" stroke="#cccccc" stroke-linecap="round" stroke-linejoin="round" stroke-width=".5"/>
        </g>
        <g id="Line_12">
          <path d="M 214.3125 286.875 C 221.0625 289.6875 236.50794 308.54414 239.33542 321.8" stroke="#cccccc" stroke-linecap="round" stroke-linejoin="round" stroke-width=".5"/>
        </g>
        <g id="Line_11">
          <path d="M 201.375 295.3125 C 208.6875 299.25 216.79115 307.66133 221.21107 330.56758" stroke="#cccccc" stroke-linecap="round" stroke-linejoin="round" stroke-width=".5"/>
        </g>
        <g id="Line_10">
          <path d="M 157.5 296.1875 C 164.25 292.25 168.8276 293.00508 182.52292 309.5116" stroke="#cccccc" stroke-linecap="round" stroke-linejoin="round" stroke-width=".5"/>
        </g>
        <g id="Line_9">
          <path d="M 146.8125 295.3125 C 149.0625 291.9375 167.08411 271.90937 167.08411 271.90937" stroke="#cccccc" stroke-linecap="round" stroke-linejoin="round" stroke-width=".5"/>
        </g>
        <g id="Line_8">
          <path d="M 140.0625 292.5 C 139.5 290.25 132.74167 264.55 127.53984 258.21667" stroke="#cccccc" stroke-linecap="round" stroke-linejoin="round" stroke-width=".5"/>
        </g>
        <g id="Line_7">
          <path d="M 140.625 300.375 C 137.8125 303.75 125.40833 316.21667 123.38555 323.21667" stroke="#cccccc" stroke-linecap="round" stroke-linejoin="round" stroke-width=".5"/>
        </g>
        <g id="Line_6">
          <path d="M 119.8125 294.75 C 115.3125 300.375 108.22474 303.3293 93.0724 302.2297" stroke="#cccccc" stroke-linecap="round" stroke-linejoin="round" stroke-width=".5"/>
        </g>
        <g id="Line_5">
          <path d="M 118.6875 287.4375 C 118.6875 287.4375 114.93177 269.4953 110.91378 260.20885" stroke="#cccccc" stroke-linecap="round" stroke-linejoin="round" stroke-width=".5"/>
        </g>
        <g id="Line_4">
          <path d="M 100.6875 283.5 C 100.6875 283.5 93.03854 264.76484 91.81263 259.8254" stroke="#cccccc" stroke-linecap="round" stroke-linejoin="round" stroke-width=".5"/>
        </g>
      </g>
    </g>
  </g>
</svg>
