<?xml version="1.0" encoding="UTF-8" standalone="no"?>
<!-- Created with Inkscape (http://www.inkscape.org/) -->
<svg xmlns:dc="http://purl.org/dc/elements/1.1/" xmlns:cc="http://creativecommons.org/ns#" xmlns:rdf="http://www.w3.org/1999/02/22-rdf-syntax-ns#" xmlns:svg="http://www.w3.org/2000/svg" xmlns="http://www.w3.org/2000/svg" xmlns:sodipodi="http://sodipodi.sourceforge.net/DTD/sodipodi-0.dtd" xmlns:inkscape="http://www.inkscape.org/namespaces/inkscape" width="109.26572" height="106.39613" id="svg3188" version="1.1" inkscape:version="0.48.4 r9939" sodipodi:docname="sixfoil.svg">
  <defs id="defs3190"/>
  <sodipodi:namedview id="base" pagecolor="#ffffff" bordercolor="#666666" borderopacity="1.0" inkscape:pageopacity="0.0" inkscape:pageshadow="2" inkscape:zoom="0.35" inkscape:cx="-257.51064" inkscape:cy="-109.68074" inkscape:document-units="px" inkscape:current-layer="layer1" showgrid="false" fit-margin-top="0" fit-margin-left="0" fit-margin-right="0" fit-margin-bottom="0"/>
  <metadata id="metadata3193">
    <rdf:RDF>
      <cc:Work rdf:about="">
        <dc:format>image/svg+xml</dc:format>
        <dc:type rdf:resource="http://purl.org/dc/dcmitype/StillImage"/>
        <cc:license rdf:resource=""/>
        <dc:title/>
        <dc:creator>
          <cc:Agent>
            <dc:title>http://commons.wikimedia.org/wiki/User:Spedona</dc:title>
          </cc:Agent>
        </dc:creator>
      </cc:Work>
    </rdf:RDF>
  </metadata>
  <g inkscape:label="Layer 1" inkscape:groupmode="layer" id="layer1">
    <g style="fill:#ffff00;stroke:#000000;stroke-width:2;stroke-miterlimit:4;stroke-opacity:1;stroke-dasharray:none;display:inline" id="g3680">
      <g style="fill:#ffff00;stroke:#000000;stroke-width:2;stroke-miterlimit:4;stroke-opacity:1;stroke-dasharray:none" id="g3682">
        <path inkscape:connector-curvature="0" inkscape:transform-center-x="0.12400794" inkscape:transform-center-y="-18.018593" style="fill:#ffff00;stroke:#000000;stroke-width:2;stroke-miterlimit:4;stroke-opacity:1;stroke-dasharray:none" d="m54.62,2.115   c-4.237,-0.05892 -6.494,-0.946 -9.017,-0.4387 -8.35,1.679 -11.48,6.102 -15.01,11.83 -1.072,2.873 -1.994,5.728 -0.008838,8.219   l9.163,12.59 15.15,20.35 14.11,-20.35 9.327,-12.59   c2.151,-3.081 1.779,-4.811 -0.1258,-8.276 -4.114,-5.865 -8.257,-10.78 -16.3,-11.78 -2.425,-0.301 -3.047,0.4977 -7.284,0.4387   z " id="path3684" sodipodi:nodetypes="cscccccccsz"/>
        <path inkscape:connector-curvature="0" inkscape:transform-center-x="0.19432044" inkscape:transform-center-y="-18.038124" style="fill:#ffff00;stroke:#000000;stroke-width:2;stroke-miterlimit:4;stroke-opacity:1;stroke-dasharray:none" d="m54.62,2.115   c-4.237,-0.05892 -6.494,-0.946 -9.017,-0.4387 -8.35,1.679 -11.48,6.102 -15.01,11.83 -1.072,2.873 -1.994,5.728 -0.008838,8.219   l9.163,12.59 15.15,20.35 14.11,-20.35 9.327,-12.59   c2.151,-3.081 1.779,-4.811 -0.1258,-8.276 -4.114,-5.865 -8.257,-10.78 -16.3,-11.78 -2.425,-0.301 -3.047,0.4977 -7.284,0.4387   z " id="path3686" sodipodi:nodetypes="cscccccccsz"/>
        <path inkscape:connector-curvature="0" inkscape:transform-center-x="0.19432044" inkscape:transform-center-y="-18.038124" style="fill:#ffff00;stroke:#000000;stroke-width:2;stroke-miterlimit:4;stroke-opacity:1;stroke-dasharray:none" d="m104.7,37.81   c-1.277,-4.04 -1.145,-6.462 -2.421,-8.697 -4.221,-7.398 -9.405,-8.98 -15.95,-10.52 -3.065,-0.1133 -6.065,-0.09103 -7.805,2.577   l-9.068,12.66 -14.55,20.78 23.75,6.993 14.88,4.892   c3.601,1.073 5.127,0.1749 7.816,-2.723 4.273,-5.75 7.633,-11.23 6.05,-19.18 -0.4771,-2.396 -1.431,-2.736 -2.708,-6.776   z " id="path3688" sodipodi:nodetypes="cscccccccsz"/>
        <path inkscape:connector-curvature="0" inkscape:transform-center-x="0.19432044" inkscape:transform-center-y="-18.038124" style="fill:#ffff00;stroke:#000000;stroke-width:2;stroke-miterlimit:4;stroke-opacity:1;stroke-dasharray:none" d="m86.12,96.91   c3.456,-2.452 5.801,-3.068 7.539,-4.966 5.751,-6.282 5.671,-11.7 5.133,-18.41 -0.83,-2.952 -1.769,-5.801 -4.842,-6.642   l-14.83,-4.759 -24.23,-7.492 0.6118,24.75 -0.1025,15.67   c0.08072,3.757 1.402,4.934 4.984,6.608 6.781,2.308 13.03,3.831 20.11,-0.11 2.135,-1.188 2.167,-2.2 5.623,-4.652   z " id="path3690" sodipodi:nodetypes="cscccccccsz"/>
        <path inkscape:connector-curvature="0" inkscape:transform-center-x="14.558747" inkscape:transform-center-y="17.075897" style="fill:#ffff00;stroke:#000000;stroke-width:2;stroke-miterlimit:4;stroke-opacity:1;stroke-dasharray:none" d="m24.22,97.21   c3.388,2.545 4.689,4.591 7.027,5.668 7.736,3.565 12.87,1.837 19.1,-0.7183 2.559,-1.69 4.987,-3.452 4.851,-6.635   l0.0165,-15.57 -0.2462,-25.36 -23.39,8.123 -14.95,4.675   c-3.554,1.221 -4.273,2.839 -4.775,6.76 -0.1327,7.162 0.3192,13.57 6.231,19.12 1.782,1.672 2.755,1.394 6.144,3.938   z " id="path3692" sodipodi:nodetypes="cscccccccsz"/>
        <path inkscape:connector-curvature="0" sodipodi:nodetypes="cscccccccsz" id="path3694" d="m4.818,38.91   c-1.347,4.018 -2.879,5.897 -3.164,8.455 -0.9443,8.465 2.315,12.8 6.702,17.9 2.41,1.896 4.848,3.644 7.826,2.512   l14.78,-4.893 23.99,-8.229 -15.08,-19.64 -9.151,-12.72   c-2.279,-2.988 -4.041,-3.16 -7.921,-2.401 -6.839,2.132 -12.78,4.582 -16.18,11.94 -1.025,2.218 -0.4541,3.054 -1.801,7.072   z " style="fill:#ffff00;stroke:#000000;stroke-width:2;stroke-miterlimit:4;stroke-opacity:1;stroke-dasharray:none" inkscape:transform-center-y="-7.3515871" inkscape:transform-center-x="18.146858"/>
      </g>
      <path inkscape:connector-curvature="0" style="fill:#ffff00;stroke:#000000;stroke-width:2;stroke-miterlimit:4;stroke-opacity:1;stroke-dasharray:none" d="m52.02,37.11   c-0.09766,0.005892 -0.1883,0.02327 -0.2863,0.04301 -2.597,0.5221 -3.558,1.911 -4.653,3.694 -0.3333,0.8937 -0.4026,1.745 -0.01473,2.548 -0.4419,-0.293 -0.9003,-0.7101 -1.532,-0.6729 -0.2321,0.01326 -0.4857,0.05553 -0.7874,0.1146 -2.127,0.6631 -3.981,1.419 -5.04,3.708 -0.3189,0.6898 -0.1395,0.9552 -0.5584,2.205 -0.4189,1.25 -0.8992,1.825 -0.9879,2.62 -0.2937,2.633 0.7259,3.983 2.09,5.569 0.6679,0.5254 1.339,0.8456 2.133,0.859 -0.7344,0.3658 -0.9119,0.8794 -1.045,1.919 -0.04124,2.228 0.09398,4.23 1.933,5.956 0.5541,0.5201 0.8503,0.4255 1.904,1.217 1.054,0.7914 1.464,1.44 2.191,1.775 2.406,1.109 4.006,0.6229 5.942,-0.1718 0.7602,-0.502 2.025,-1.06 1.503,-1.933 -0.2824,0.7406 0.5571,1.134 1.532,1.589 2.109,0.7179 4.053,1.197 6.257,-0.02858 0.6641,-0.3694 0.6719,-0.6833 1.747,-1.446 1.075,-0.7627 1.807,-0.9558 2.348,-1.546 1.789,-1.954 1.757,-3.641 1.589,-5.727 -0.2288,-0.8139 -0.5225,-1.449 -1.203,-1.961 0.8215,0.1391 1.271,-0.1702 1.99,-0.9449 1.329,-1.788 2.382,-3.497 1.89,-5.97 -0.1484,-0.7453 -0.4475,-0.8479 -0.8447,-2.105 -0.3972,-1.257 -0.3621,-2.011 -0.7588,-2.706 -1.313,-2.301 -2.917,-2.8 -4.954,-3.279 -0.8543,-0.03152 -1.531,0.1364 -2.248,0.5727 0.3894,-0.7374 0.2367,-1.265 -0.272,-2.191 -1.279,-1.824 -2.566,-3.355 -5.068,-3.665 -0.7542,-0.09368 -0.9586,0.1615 -2.276,0.1432 -0.9884,-0.01326 -1.629,-0.1742 -2.219,-0.1861 -0.0984,0 -0.203,-0.005892 -0.3007,0   z " id="path3696" sodipodi:nodetypes="csccscssscccssscccssscccssscccsssc"/>
    </g>
  </g>
</svg>
