<?xml version="1.0" encoding="UTF-8" standalone="no"?>
<svg
   version="1.1"
   preserveAspectRatio="xMidYMid"
   height="822.50189"
   width="793.24927"
   viewBox="0 0 793.24927 822.50189"
   id="svg157"
   xmlns="http://www.w3.org/2000/svg"
   xmlns:svg="http://www.w3.org/2000/svg"
   xmlns:rdf="http://www.w3.org/1999/02/22-rdf-syntax-ns#"
   xmlns:cc="http://creativecommons.org/ns#"
   xmlns:dc="http://purl.org/dc/elements/1.1/">
  <defs
     id="defs2">
    <defs
       id="defs153">
      <mask
         id="mask3">
        <path
           fill="#ffffff"
           d="m 0,0 v 800 c -2.5063876,43.11115 1.2341419,84.33503 21.489586,125.13639 20.255443,40.80137 53.477613,79.98631 98.039434,115.63581 44.56181,35.6494 100.44867,67.7517 164.92346,94.7345 64.47479,26.9828 137.51639,48.8374 215.54752,64.4933 78.03113,-15.6559 151.07273,-37.5105 215.54752,-64.4933 64.47479,-26.9828 120.36165,-59.0851 164.92346,-94.7345 44.56182,-35.6495 77.78399,-74.83444 98.03943,-115.63581 C 998.76586,884.33503 1000.1453,841.93063 1000,800 V 0 Z"
           id="path150" />
      </mask>
    </defs>
  </defs>
  <g
     id="g2224"
     transform="translate(-103.37537,-88.749039)">
    <g
       id="g2155">
      <g
         id="leaved">
        <g
           id="g16"
           transform="matrix(2.6936027,0,0,2.6936027,9.0909889,-78.262313)"
           style="fill:#00ff00;fill-opacity:1;stroke:none;stroke-dasharray:none;stroke-opacity:1">
          <path
             d="m 180.56675,196.21674 c 16.67727,46.49351 67.88793,73.7907 116.95535,62.34156 2.0581,-1.08957 3.20305,-3.3104 2.87382,-5.5744 -0.32922,-2.264 -2.06364,-4.09688 -4.35346,-4.60063 -6.2902,-0.79205 -11.79672,-4.5281 -14.74693,-10.00545 -21.34199,-33.11228 -61.48722,-49.91548 -100.72878,-42.16108 z"
             id="path12"
             style="fill:#00ff00" />
          <path
             d="m 180.56675,196.21674 c 16.67727,46.49351 67.88793,73.7907 116.95535,62.34156 2.0581,-1.08957 3.20305,-3.3104 2.87382,-5.5744 -0.32922,-2.264 -2.06364,-4.09688 -4.35346,-4.60063 -6.2902,-0.79205 -11.79672,-4.5281 -14.74693,-10.00545 -21.34199,-33.11228 -61.48722,-49.91548 -100.72878,-42.16108 z"
             stroke="#000000"
             stroke-linecap="round"
             stroke-linejoin="round"
             stroke-width="2"
             id="path14"
             style="fill:#00ff00" />
        </g>
        <g
           id="g20"
           transform="matrix(2.6936027,0,0,2.6936027,9.0909889,-78.262313)"
           style="fill:#00ff00;fill-opacity:1;stroke:none;stroke-dasharray:none;stroke-opacity:1">
          <path
             d="m 180.58649,195.18853 c 29.52355,24.05589 63.28611,42.87282 99.27461,55.32887"
             stroke="#000000"
             stroke-linecap="round"
             stroke-linejoin="round"
             stroke-width="1"
             id="path18"
             style="fill:#00ff00" />
        </g>
        <g
           id="g26"
           transform="matrix(2.6936027,0,0,2.6936027,9.0909889,-78.262313)"
           style="fill:#00ff00;fill-opacity:1;stroke:none;stroke-dasharray:none;stroke-opacity:1">
          <path
             d="m 180.4923,196.30953 c 31.92593,-37.68968 29.96066,-95.68801 -4.4883,-132.457054 -1.97264,-1.237606 -4.46842,-1.118736 -6.26448,0.298374 -1.79605,1.41711 -2.51618,3.835614 -1.80752,6.07053 2.45916,5.8435 1.9769,12.4803 -1.29152,17.77394 -18.00508,35.03884 -12.48446,78.20723 13.85182,108.31421 z"
             id="path22"
             style="fill:#00ff00" />
          <path
             d="m 180.4923,196.30953 c 31.92593,-37.68968 29.96066,-95.68801 -4.4883,-132.457054 -1.97264,-1.237606 -4.46842,-1.118736 -6.26448,0.298374 -1.79605,1.41711 -2.51618,3.835614 -1.80752,6.07053 2.45916,5.8435 1.9769,12.4803 -1.29152,17.77394 -18.00508,35.03884 -12.48446,78.20723 13.85182,108.31421 z"
             stroke="#000000"
             stroke-linecap="round"
             stroke-linejoin="round"
             stroke-width="2"
             id="path24"
             style="fill:#00ff00" />
        </g>
        <g
           id="g30"
           transform="matrix(2.6936027,0,0,2.6936027,9.0909889,-78.262313)"
           style="fill:#00ff00;fill-opacity:1;stroke:none;stroke-dasharray:none;stroke-opacity:1">
          <path
             d="m 179.59198,196.80655 c 6.07124,-37.59608 5.4859,-76.24379 -1.7211,-113.63877"
             stroke="#000000"
             stroke-linecap="round"
             stroke-linejoin="round"
             stroke-width="1"
             id="path28"
             style="fill:#00ff00" />
        </g>
        <g
           id="g36"
           transform="matrix(2.6936027,0,0,2.6936027,9.0909889,-78.262313)"
           style="fill:#00ff00;fill-opacity:1;stroke:none;stroke-dasharray:none;stroke-opacity:1">
          <path
             d="m 176.51827,200.56784 c -48.60319,-8.80382 -97.84858,21.89732 -112.46703,70.11552 -0.08547,2.32717 1.26536,4.42914 3.39064,5.27601 2.125285,0.84688 4.57983,0.26127 6.161,-1.4699 3.83104,-5.05145 9.8198,-7.9522 16.03844,-7.76849 39.34707,-1.92656 73.97168,-28.29175 86.87695,-66.15314 z"
             id="path32"
             style="fill:#00ff00" />
          <path
             d="m 176.51827,200.56784 c -48.60319,-8.80382 -97.84858,21.89732 -112.46703,70.11552 -0.08547,2.32717 1.26536,4.42914 3.39064,5.27601 2.125285,0.84688 4.57983,0.26127 6.161,-1.4699 3.83104,-5.05145 9.8198,-7.9522 16.03844,-7.76849 39.34707,-1.92656 73.97168,-28.29175 86.87695,-66.15314 z"
             stroke="#000000"
             stroke-linecap="round"
             stroke-linejoin="round"
             stroke-width="2"
             id="path34"
             style="fill:#00ff00" />
        </g>
        <g
           id="g40"
           transform="matrix(2.6936027,0,0,2.6936027,9.0909889,-78.262313)"
           style="fill:#00ff00;fill-opacity:1;stroke:none;stroke-dasharray:none;stroke-opacity:1">
          <path
             d="m 177.39886,201.09904 c -35.59478,13.5402 -68.77201,33.37096 -97.55351,58.3099"
             stroke="#000000"
             stroke-linecap="round"
             stroke-linejoin="round"
             stroke-width="1"
             id="path38"
             style="fill:#00ff00" />
        </g>
      </g>
      <g
         id="g2087">
        <g
           id="g1995">
          <g
             id="g46"
             transform="matrix(2.6936027,0,0,2.6936027,9.0909889,-78.262313)"
             style="fill:#ff0000;fill-opacity:1;stroke:none;stroke-dasharray:none;stroke-opacity:1">
            <path
               d="m 181.28209,198.507 24.19553,18.8994 c 20.06274,13.21878 32.16938,35.6092 32.24506,59.6351 0.0757,24.0259 -11.88963,46.49214 -31.86868,59.83707 -9.97707,5.21538 -17.4617,14.195 -20.79472,24.94829 0.16359,2.27991 -1.50501,4.28104 -3.77719,4.52994 -2.27758,-0.2422 -3.95379,-2.24534 -3.79064,-4.52994 -3.33302,-10.75329 -10.81765,-19.73291 -20.79472,-24.94829 -19.97757,-13.34717 -31.94037,-35.81477 -31.86198,-59.84067 0.0784,-24.02593 12.18755,-46.41498 32.2518,-59.6315 z"
               id="path42"
               style="fill:#ff0000" />
            <path
               d="m 181.28209,198.507 24.19553,18.8994 c 20.06274,13.21878 32.16938,35.6092 32.24506,59.6351 0.0757,24.0259 -11.88963,46.49214 -31.86868,59.83707 -9.97707,5.21538 -17.4617,14.195 -20.79472,24.94829 0.16359,2.27991 -1.50501,4.28104 -3.77719,4.52994 -2.27758,-0.2422 -3.95379,-2.24534 -3.79064,-4.52994 -3.33302,-10.75329 -10.81765,-19.73291 -20.79472,-24.94829 -19.97757,-13.34717 -31.94037,-35.81477 -31.86198,-59.84067 0.0784,-24.02593 12.18755,-46.41498 32.2518,-59.6315 z"
               stroke="#000000"
               stroke-linecap="round"
               stroke-linejoin="round"
               stroke-width="2"
               id="path44"
               style="fill:#ff0000" />
          </g>
          <g
             id="g50"
             transform="matrix(2.6936027,0,0,2.6936027,9.0909889,-78.262313)"
             style="fill:#ff0000;fill-opacity:1;stroke:none;stroke-dasharray:none;stroke-opacity:1">
            <path
               d="M 185.05932,344.81437 C 180.0446,337.81214 173.43185,332.1072 165.7701,328.1732 141.48764,312.0885 131.08847,281.66376 140.44544,254.0811"
               stroke="#000000"
               stroke-linecap="round"
               stroke-linejoin="round"
               stroke-width="1"
               id="path48"
               style="fill:#ff0000" />
          </g>
          <g
             id="g54"
             transform="matrix(2.6936027,0,0,2.6936027,9.0909889,-78.262313)"
             style="fill:#ff0000;fill-opacity:1;stroke:none;stroke-dasharray:none;stroke-opacity:1">
            <line
               x1="181.27541"
               y1="201.90948"
               x2="181.27541"
               y2="301.71606"
               stroke="#000000"
               stroke-linecap="round"
               stroke-linejoin="round"
               stroke-width="1"
               id="line52"
               style="fill:#ff0000" />
          </g>
          <g
             id="g58"
             transform="matrix(2.6936027,0,0,2.6936027,9.0909889,-78.262313)"
             style="fill:#ff0000;fill-opacity:1;stroke:none;stroke-dasharray:none;stroke-opacity:1">
            <line
               x1="163.83527"
               y1="257.10574"
               x2="179.33565"
               y2="202.66527"
               stroke="#000000"
               stroke-linecap="round"
               stroke-linejoin="round"
               stroke-width="1"
               id="line56"
               style="fill:#ff0000" />
          </g>
          <g
             id="g62"
             transform="matrix(2.6936027,0,0,2.6936027,9.0909889,-78.262313)"
             style="fill:#ff0000;fill-opacity:1;stroke:none;stroke-dasharray:none;stroke-opacity:1">
            <line
               x1="198.71635"
               y1="257.10574"
               x2="183.21597"
               y2="202.66527"
               stroke="#000000"
               stroke-linecap="round"
               stroke-linejoin="round"
               stroke-width="1"
               id="line60"
               style="fill:#ff0000" />
          </g>
          <g
             id="g66"
             transform="matrix(2.6936027,0,0,2.6936027,9.0909889,-78.262313)"
             style="fill:#ff0000;fill-opacity:1;stroke:none;stroke-dasharray:none;stroke-opacity:1">
            <path
               d="m 213.41149,310.0327 c 15.86059,-30.12902 11.97948,-66.85006 -9.82911,-92.99776"
               stroke="#000000"
               stroke-linecap="round"
               stroke-linejoin="round"
               stroke-width="1"
               id="path64"
               style="fill:#ff0000" />
          </g>
        </g>
        <g
           id="g1918"
           style="fill:#ff0000">
          <g
             id="g72"
             transform="matrix(2.6936027,0,0,2.6936027,9.0909889,-78.262313)"
             style="fill:#ff0000;fill-opacity:1;stroke:none;stroke-dasharray:none;stroke-opacity:1">
            <path
               d="m 181.72307,197.0417 -28.46513,11.50424 C 131.77877,219.3114 106.33479,218.60083 85.4899,206.65343 64.64501,194.70603 51.17133,173.11064 49.60381,149.1358 c 0.471885,-11.24809 -3.56238,-22.21978 -11.20849,-30.4829 -2.056257,-0.99828 -2.954987,-3.4439 -2.034447,-5.53611 1.348553,-1.85133 3.921414,-2.30141 5.818362,-1.01782 10.979125,2.49017 22.49802,0.4981 32.003205,-5.53461 21.54778,-10.6275 46.9867,-9.75379 67.75455,2.32706 20.76785,12.08084 34.10276,33.76221 35.51649,57.74662 z"
               id="path68"
               style="fill:#ff0000" />
            <path
               d="m 181.72307,197.0417 -28.46513,11.50424 C 131.77877,219.3114 106.33479,218.60083 85.4899,206.65343 64.64501,194.70603 51.17133,173.11064 49.60381,149.1358 c 0.471885,-11.24809 -3.56238,-22.21978 -11.20849,-30.4829 -2.056257,-0.99828 -2.954987,-3.4439 -2.034447,-5.53611 1.348553,-1.85133 3.921414,-2.30141 5.818362,-1.01782 10.979125,2.49017 22.49802,0.4981 32.003205,-5.53461 21.54778,-10.6275 46.9867,-9.75379 67.75455,2.32706 20.76785,12.08084 34.10276,33.76221 35.51649,57.74662 z"
               stroke="#000000"
               stroke-linecap="round"
               stroke-linejoin="round"
               stroke-width="2"
               id="path70"
               style="fill:#ff0000" />
          </g>
          <g
             id="g76"
             transform="matrix(2.6936027,0,0,2.6936027,9.0909889,-78.262313)"
             style="fill:#ff0000;fill-opacity:1;stroke:none;stroke-dasharray:none;stroke-opacity:1">
            <path
               d="m 53.12855,127.15918 c 8.57146,-0.84175 16.81847,-3.71609 24.05627,-8.38438 26.07099,-12.98687 57.61918,-6.78044 76.82798,15.11426"
               stroke="#000000"
               stroke-linecap="round"
               stroke-linejoin="round"
               stroke-width="1"
               id="path74"
               style="fill:#ff0000" />
          </g>
          <g
             id="g80"
             transform="matrix(2.6936027,0,0,2.6936027,9.0909889,-78.262313)"
             style="fill:#ff0000;fill-opacity:1;stroke:none;stroke-dasharray:none;stroke-opacity:1">
            <line
               x1="178.77975"
               y1="195.33466"
               x2="92.344719"
               y2="145.43137"
               stroke="#000000"
               stroke-linecap="round"
               stroke-linejoin="round"
               stroke-width="1"
               id="line78"
               style="fill:#ff0000" />
          </g>
          <g
             id="g84"
             transform="matrix(2.6936027,0,0,2.6936027,9.0909889,-78.262313)"
             style="fill:#ff0000;fill-opacity:1;stroke:none;stroke-dasharray:none;stroke-opacity:1">
            <line
               x1="139.69849"
               y1="152.63293"
               x2="179.09512"
               y2="193.27689"
               stroke="#000000"
               stroke-linecap="round"
               stroke-linejoin="round"
               stroke-width="1"
               id="line82"
               style="fill:#ff0000" />
          </g>
          <g
             id="g88"
             transform="matrix(2.6936027,0,0,2.6936027,9.0909889,-78.262313)"
             style="fill:#ff0000;fill-opacity:1;stroke:none;stroke-dasharray:none;stroke-opacity:1">
            <line
               x1="122.25794"
               y1="182.84084"
               x2="177.15495"
               y2="196.63734"
               stroke="#000000"
               stroke-linecap="round"
               stroke-linejoin="round"
               stroke-width="1"
               id="line86"
               style="fill:#ff0000" />
          </g>
          <g
             id="g92"
             transform="matrix(2.6936027,0,0,2.6936027,9.0909889,-78.262313)"
             style="fill:#ff0000;fill-opacity:1;stroke:none;stroke-dasharray:none;stroke-opacity:1">
            <path
               d="m 69.07427,169.10371 c 18.1622,28.80019 51.90411,43.79957 85.45298,37.98663"
               stroke="#000000"
               stroke-linecap="round"
               stroke-linejoin="round"
               stroke-width="1"
               id="path90"
               style="fill:#ff0000" />
          </g>
        </g>
        <g
           id="g2043">
          <g
             id="g98"
             transform="matrix(2.6936027,0,0,2.6936027,9.0909889,-78.262313)"
             style="fill:#ff0000;fill-opacity:1;stroke:none;stroke-dasharray:none;stroke-opacity:1">
            <path
               d="m 182.7715,198.15628 4.2696,-30.40365 c 1.41643,-23.98423 14.75378,-45.66409 35.52298,-57.74259 20.7692,-12.0785 46.20819,-12.94935 67.75477,-2.31945 9.50519,6.03271 21.02408,8.02478 32.00321,5.53461 1.89267,-1.28163 4.46,-0.83714 5.81164,1.00618 0.92902,2.09354 0.0324,4.54674 -2.02773,5.54775 -7.64611,8.26312 -11.68037,19.23481 -11.20847,30.4829 -1.57022,23.97467 -15.04633,45.56857 -35.89258,57.51363 -20.84624,11.94507 -46.29032,12.65275 -67.76829,1.88487 z"
               id="path94"
               style="fill:#ff0000" />
            <path
               d="m 182.7715,198.15628 4.2696,-30.40365 c 1.41643,-23.98423 14.75378,-45.66409 35.52298,-57.74259 20.7692,-12.0785 46.20819,-12.94935 67.75477,-2.31945 9.50519,6.03271 21.02408,8.02478 32.00321,5.53461 1.89267,-1.28163 4.46,-0.83714 5.81164,1.00618 0.92902,2.09354 0.0324,4.54674 -2.02773,5.54775 -7.64611,8.26312 -11.68037,19.23481 -11.20847,30.4829 -1.57022,23.97467 -15.04633,45.56857 -35.89258,57.51363 -20.84624,11.94507 -46.29032,12.65275 -67.76829,1.88487 z"
               stroke="#000000"
               stroke-linecap="round"
               stroke-linejoin="round"
               stroke-width="2"
               id="path96"
               style="fill:#ff0000" />
          </g>
          <g
             id="g102"
             transform="matrix(2.6936027,0,0,2.6936027,9.0909889,-78.262313)"
             style="fill:#ff0000;fill-opacity:1;stroke:none;stroke-dasharray:none;stroke-opacity:1">
            <path
               d="m 307.5888,121.73141 c -3.55676,7.84399 -5.191,16.42327 -4.76706,25.02553 -1.78854,29.07158 -22.93754,53.2899 -51.50331,58.97786"
               stroke="#000000"
               stroke-linecap="round"
               stroke-linejoin="round"
               stroke-width="1"
               id="path100"
               style="fill:#ff0000" />
          </g>
          <g
             id="g106"
             transform="matrix(2.6936027,0,0,2.6936027,9.0909889,-78.262313)"
             style="fill:#ff0000;fill-opacity:1;stroke:none;stroke-dasharray:none;stroke-opacity:1">
            <line
               x1="185.7215"
               y1="196.46082"
               x2="272.15652"
               y2="146.55753"
               stroke="#000000"
               stroke-linecap="round"
               stroke-linejoin="round"
               stroke-width="1"
               id="line104"
               style="fill:#ff0000" />
          </g>
          <g
             id="g110"
             transform="matrix(2.6936027,0,0,2.6936027,9.0909889,-78.262313)"
             style="fill:#ff0000;fill-opacity:1;stroke:none;stroke-dasharray:none;stroke-opacity:1">
            <line
               x1="242.2429"
               y1="183.96629"
               x2="187.3459"
               y2="197.76282"
               stroke="#000000"
               stroke-linecap="round"
               stroke-linejoin="round"
               stroke-width="1"
               id="line108"
               style="fill:#ff0000" />
          </g>
          <g
             id="g114"
             transform="matrix(2.6936027,0,0,2.6936027,9.0909889,-78.262313)"
             style="fill:#ff0000;fill-opacity:1;stroke:none;stroke-dasharray:none;stroke-opacity:1">
            <line
               x1="224.80235"
               y1="153.75841"
               x2="185.40573"
               y2="194.40234"
               stroke="#000000"
               stroke-linecap="round"
               stroke-linejoin="round"
               stroke-width="1"
               id="line112"
               style="fill:#ff0000" />
          </g>
          <g
             id="g118"
             transform="matrix(2.6936027,0,0,2.6936027,9.0909889,-78.262313)"
             style="fill:#ff0000;fill-opacity:1;stroke:none;stroke-dasharray:none;stroke-opacity:1">
            <path
               d="m 263.2909,114.56855 c -34.0228,1.32883 -63.8836,23.05049 -75.62387,55.01114"
               stroke="#000000"
               stroke-linecap="round"
               stroke-linejoin="round"
               stroke-width="1"
               id="path116"
               style="fill:#ff0000" />
          </g>
        </g>
      </g>
      <g
         id="seeded">
        <g
           id="g124"
           transform="matrix(2.6936027,0,0,2.6936027,9.0909889,-78.262313)"
           style="fill:#ffff00;fill-opacity:1;stroke:none;stroke-dasharray:none;stroke-opacity:1">
          <path
             d="m 175.02203,196.05249 c 0.24134,0.12935 0.47475,0.27299 0.69898,0.43014 0.0412,-0.12673 0.086,-0.25224 0.13442,-0.37637 -0.27863,-0.001 -0.55694,-0.019 -0.8334,-0.0538 z m 7.6888,-5.86069 c -0.0795,0.54399 -0.22395,1.0765 -0.43013,1.58614 0.39665,0.002 0.79242,0.0377 1.18288,0.10754 -0.3261,-0.52806 -0.57931,-1.09778 -0.75275,-1.69368 z m 8.15927,4.75845 c -0.90893,0.20974 -1.851,0.2326 -2.76904,0.0672 0.20424,0.33394 0.37961,0.68471 0.52424,1.04847 0.6737,-0.50612 1.43457,-0.88428 2.2448,-1.11568 z m -14.04685,11.80205 c -1.91823,2.09442 -4.9256,2.7962 -7.57271,1.7671 -2.64712,-1.0291 -4.39078,-3.57791 -4.39064,-6.41803 4e-5,-1.98022 0.85261,-3.86457 2.34001,-5.17183 1.48739,-1.30727 3.46561,-1.91088 5.42945,-1.65669 -2.22821,-1.20229 -3.61684,-3.53045 -3.61589,-6.06232 0.0121,-3.41298 2.52248,-6.30208 5.90037,-6.79041 3.37788,-0.48833 6.60375,1.5715 7.58192,4.84132 0.52599,-3.56404 3.71039,-6.12013 7.30383,-5.8627 3.59344,0.25743 6.38096,3.24134 6.39353,6.84396 0.002,3.0784 -2.03964,5.78407 -5.00041,6.6269 2.04543,-0.4745 4.19559,0.0103 5.83954,1.31653 1.64395,1.30627 2.60203,3.29127 2.60202,5.39101 -0.0116,3.28368 -2.34031,6.10226 -5.56287,6.73306 -3.22255,0.63078 -6.44211,-1.1018 -7.69091,-4.13877 -0.24016,0.17747 -0.49161,0.3391 -0.75275,0.48392 2.26701,1.19105 3.68575,3.5418 3.6831,6.10265 0.0778,2.50967 -1.21667,4.86274 -3.37807,6.14058 -2.16141,1.27784 -4.84703,1.27784 -7.00843,0 -2.16141,-1.27784 -3.45588,-3.63091 -3.37807,-6.14058 -0.002,-1.43572 0.44411,-2.83626 1.27698,-4.0057 z m 0.52424,-0.64522 c 0.49025,-0.53448 1.06186,-0.98813 1.69369,-1.3442 -0.26575,-0.1443 -0.5217,-0.30596 -0.7662,-0.48391 -0.21621,0.65223 -0.52884,1.26843 -0.92749,1.82811 z"
             id="path120"
             style="fill:#ffff00" />
          <path
             d="m 175.02203,196.05249 c 0.24134,0.12935 0.47475,0.27299 0.69898,0.43014 0.0412,-0.12673 0.086,-0.25224 0.13442,-0.37637 -0.27863,-0.001 -0.55694,-0.019 -0.8334,-0.0538 z m 7.6888,-5.86069 c -0.0795,0.54399 -0.22395,1.0765 -0.43013,1.58614 0.39665,0.002 0.79242,0.0377 1.18288,0.10754 -0.3261,-0.52806 -0.57931,-1.09778 -0.75275,-1.69368 z m 8.15927,4.75845 c -0.90893,0.20974 -1.851,0.2326 -2.76904,0.0672 0.20424,0.33394 0.37961,0.68471 0.52424,1.04847 0.6737,-0.50612 1.43457,-0.88428 2.2448,-1.11568 z m -14.04685,11.80205 c -1.91823,2.09442 -4.9256,2.7962 -7.57271,1.7671 -2.64712,-1.0291 -4.39078,-3.57791 -4.39064,-6.41803 4e-5,-1.98022 0.85261,-3.86457 2.34001,-5.17183 1.48739,-1.30727 3.46561,-1.91088 5.42945,-1.65669 -2.22821,-1.20229 -3.61684,-3.53045 -3.61589,-6.06232 0.0121,-3.41298 2.52248,-6.30208 5.90037,-6.79041 3.37788,-0.48833 6.60375,1.5715 7.58192,4.84132 0.52599,-3.56404 3.71039,-6.12013 7.30383,-5.8627 3.59344,0.25743 6.38096,3.24134 6.39353,6.84396 0.002,3.0784 -2.03964,5.78407 -5.00041,6.6269 2.04543,-0.4745 4.19559,0.0103 5.83954,1.31653 1.64395,1.30627 2.60203,3.29127 2.60202,5.39101 -0.0116,3.28368 -2.34031,6.10226 -5.56287,6.73306 -3.22255,0.63078 -6.44211,-1.1018 -7.69091,-4.13877 -0.24016,0.17747 -0.49161,0.3391 -0.75275,0.48392 2.26701,1.19105 3.68575,3.5418 3.6831,6.10265 0.0778,2.50967 -1.21667,4.86274 -3.37807,6.14058 -2.16141,1.27784 -4.84703,1.27784 -7.00843,0 -2.16141,-1.27784 -3.45588,-3.63091 -3.37807,-6.14058 -0.002,-1.43572 0.44411,-2.83626 1.27698,-4.0057 z m 0.52424,-0.64522 c 0.49025,-0.53448 1.06186,-0.98813 1.69369,-1.3442 -0.26575,-0.1443 -0.5217,-0.30596 -0.7662,-0.48391 -0.21621,0.65223 -0.52884,1.26843 -0.92749,1.82811 z"
             stroke="#000000"
             stroke-linecap="round"
             stroke-linejoin="round"
             stroke-width="2"
             id="path122"
             style="fill:#ffff00" />
        </g>
        <g
           id="g130"
           transform="matrix(2.6936027,0,0,2.6936027,9.0909889,-78.262313)"
           style="fill:#ffff00;fill-opacity:1;stroke:none;stroke-dasharray:none;stroke-opacity:1">
          <path
             d="m 175.36485,198.65938 c -0.0778,2.50968 1.21667,4.86275 3.37807,6.14058 2.16141,1.27784 4.84703,1.27784 7.00843,0 2.16141,-1.27783 3.45588,-3.6309 3.37807,-6.14058 -0.11526,-3.71794 -3.16255,-6.67222 -6.88228,-6.67222 -3.71974,0 -6.76702,2.95428 -6.88229,6.67222 z"
             id="path126"
             style="fill:#ffff00" />
          <path
             d="m 175.36485,198.65938 c -0.0778,2.50968 1.21667,4.86275 3.37807,6.14058 2.16141,1.27784 4.84703,1.27784 7.00843,0 2.16141,-1.27783 3.45588,-3.6309 3.37807,-6.14058 -0.11526,-3.71794 -3.16255,-6.67222 -6.88228,-6.67222 -3.71974,0 -6.76702,2.95428 -6.88229,6.67222 z"
             stroke="#000000"
             stroke-linecap="round"
             stroke-linejoin="round"
             stroke-width="2"
             id="path128"
             style="fill:#ffff00" />
        </g>
      </g>
    </g>
  </g>
  <metadata
     id="metadata9907">
    <rdf:RDF>
      <cc:Work
         rdf:about="">
        <dc:creator>
          <cc:Agent>
            <dc:title>Genuensium praesidium</dc:title>
          </cc:Agent>
        </dc:creator>
      </cc:Work>
    </rdf:RDF>
  </metadata>
</svg>
