<?xml version="1.0" encoding="UTF-8" standalone="no"?>
<svg
   xmlns:dc="http://purl.org/dc/elements/1.1/"
   xmlns:cc="http://creativecommons.org/ns#"
   xmlns:rdf="http://www.w3.org/1999/02/22-rdf-syntax-ns#"
   xmlns:svg="http://www.w3.org/2000/svg"
   xmlns="http://www.w3.org/2000/svg"
   xmlns:sodipodi="http://sodipodi.sourceforge.net/DTD/sodipodi-0.dtd"
   xmlns:inkscape="http://www.inkscape.org/namespaces/inkscape"
   height="192.62"
   width="198.95"
   xml:space="preserve"
   viewBox="0 0 198.95 192.62"
   y="0px"
   x="0px"
   id="Layer_1"
   version="1.1"
   sodipodi:docname="rose-tudor.svg"
   inkscape:version="0.92.2 5c3e80d, 2017-08-06"><sodipodi:namedview
     pagecolor="#ffffff"
     bordercolor="#666666"
     borderopacity="1"
     objecttolerance="10"
     gridtolerance="10"
     guidetolerance="10"
     inkscape:pageopacity="0"
     inkscape:pageshadow="2"
     inkscape:window-width="640"
     inkscape:window-height="480"
     id="namedview4909"
     showgrid="false"
     inkscape:zoom="4.1719"
     inkscape:cx="99.475"
     inkscape:cy="96.31"
     inkscape:current-layer="body" /><metadata
     id="metadata31094"><rdf:RDF><cc:Work
         rdf:about=""><dc:format>image/svg+xml</dc:format><dc:type
           rdf:resource="http://purl.org/dc/dcmitype/StillImage" /><dc:title></dc:title><dc:creator><cc:Agent><dc:title>https://commons.wikimedia.org/wiki/User:Sodacan</dc:title></cc:Agent></dc:creator></cc:Work></rdf:RDF></metadata><g
     transform="translate(-0.52459,-3.687)"
     id="toplevel"><g
       id="body"><g
         id="leaved"><path
           style="fill:#00ff00;stroke:#808080"
           class="st0"
           d="m 100,125.2 c 16,10.8 20.8,38.3 15.4,61 -3.6,-0.3 -4.9,-1.4 -6.6,-3.6 0.6,5.2 -2.6,6.8 -8.8,13 -6.1,-6.2 -9.4,-7.8 -8.8,-13 -1.7,2.2 -3,3.2 -6.6,3.6 -5.4,-22.7 -0.6,-50.2 15.4,-61 z"
           id="path31001" /><path
           style="fill:#00ff00;stroke:#808080"
           class="st0"
           d="m 80.4,64.9 c -19.3,0.7 -39.4,-18.7 -48.3,-40.3 3.1,-1.9 4.8,-1.8 7.4,-1 -3.5,-3.9 -1.8,-7.1 -0.5,-15.7 8.6,1.4 12.2,0.8 14.7,5.4 0.1,-2.8 0.5,-4.4 3.3,-6.8 17.8,15.2 30,40.3 23.4,58.4 z"
           id="path31011" /><path
           style="fill:#00ff00;stroke:#808080"
           class="st0"
           d="m 119.6,64.9 c -6.6,-18.1 5.6,-43.2 23.4,-58.4 2.7,2.4 3.2,4 3.3,6.8 2.6,-4.6 6.1,-4 14.7,-5.4 1.3,8.6 3,11.8 -0.6,15.7 2.7,-0.7 4.3,-0.8 7.4,1 -8.8,21.6 -28.9,41 -48.2,40.3 z"
           id="path31021" /><path
           style="fill:#00ff00;stroke:#808080"
           class="st0"
           d="m 68.3,102.2 c -5.3,18.5 -30,31.7 -53.3,33.5 -0.8,-3.5 -0.2,-5.1 1.3,-7.4 -4.8,2.2 -7.3,-0.4 -15.1,-4.3 4,-7.8 4.5,-11.3 9.7,-12.4 -2.6,-1 -4,-1.9 -5.4,-5.2 19.9,-12.2 47.6,-16.1 62.8,-4.2 z"
           id="path31031" /><path
           style="fill:#00ff00;stroke:#808080"
           class="st0"
           d="m 131.7,102.2 c 15.2,-11.9 42.8,-8 62.8,4.2 -1.4,3.3 -2.8,4.2 -5.4,5.2 5.1,1 5.7,4.6 9.7,12.4 -7.8,3.9 -10.3,6.5 -15.1,4.3 1.5,2.3 2.1,3.8 1.3,7.4 -23.3,-1.9 -48,-15 -53.3,-33.5 z"
           id="path31041" /></g><path
         style="fill:#ff0000"
         id="path31051"
         d="m 179.5,110.7 c 13.6,-9.5 5.9,-30.6 0.9,-46.4 -5,-15.8 -10.8,-37.5 -27.3,-37 -16.8,0.5 -9.2,25.3 -24.9,24 -6.1,-15 19.3,-15.2 14.5,-31.8 -4.7,-16.2 -26.5,-15.2 -42.7,-15.2 -16.2,0 -38,-1 -42.7,15.2 -4.8,16.6 20.6,16.8 14.5,31.8 -15.7,1.3 -8.1,-23.5 -24.9,-24 -16.4,-0.5 -22.3,21.2 -27.3,37 -5,15.8 -12.6,36.8 0.9,46.4 13.9,9.8 21.9,-14.9 33.9,-4.4 -3.6,15.8 -24.3,0.7 -29.9,17 -5.5,15.9 12.8,28.3 25.8,38.1 13.1,9.8 30.2,23.8 43.2,13.5 13.3,-10.6 -7,-26.1 6.4,-34.5 13.5,8.4 -6.9,23.9 6.4,34.5 13,10.3 30.1,-3.7 43.2,-13.5 13.1,-9.8 31.3,-22.2 25.8,-38.1 -5.6,-16.3 -26.3,-1.2 -29.9,-17 12.1,-10.5 20.2,14.2 34.1,4.4 z"
         class="st5" /><path
         style="fill:none;stroke:#999999;stroke-width:1.2"
         id="path31053"
         d="m 179.5,110.7 c 13.6,-9.5 5.9,-30.6 0.9,-46.4 -5,-15.8 -10.8,-37.5 -27.3,-37 -16.8,0.5 -9.2,25.3 -24.9,24 -6.1,-15 19.3,-15.2 14.5,-31.8 -4.7,-16.2 -26.5,-15.2 -42.7,-15.2 -16.2,0 -38,-1 -42.7,15.2 -4.8,16.6 20.6,16.8 14.5,31.8 -15.7,1.3 -8.1,-23.5 -24.9,-24 -16.4,-0.5 -22.3,21.2 -27.3,37 -5,15.8 -12.6,36.8 0.9,46.4 13.9,9.8 21.9,-14.9 33.9,-4.4 -3.6,15.8 -24.3,0.7 -29.9,17 -5.5,15.9 12.8,28.3 25.8,38.1 13.1,9.8 30.2,23.8 43.2,13.5 13.3,-10.6 -7,-26.1 6.4,-34.5 13.5,8.4 -6.9,23.9 6.4,34.5 13,10.3 30.1,-3.7 43.2,-13.5 13.1,-9.8 31.3,-22.2 25.8,-38.1 -5.6,-16.3 -26.3,-1.2 -29.9,-17 12.1,-10.5 20.2,14.2 34.1,4.4 z"
         class="st6" /><path
         style="fill:#f2f2f2"
         id="path31057"
         d="m 26.8,125.8 c 0,0 -0.4,3.2 0.4,5.8 1.2,3.8 2.9,7 5.9,9.6 3.7,3.1 6.9,4.5 11.5,5.5 4.5,1 9.4,3.1 12.5,5.5 3.2,2.4 6.6,6.5 8.9,10.6 2.4,4.1 4.6,6.9 8.6,9.5 3.4,2.2 6.9,2.8 10.7,2.8 2.6,0 5.5,-1.4 5.5,-1.4 -2.4,-1.5 -7.1,1.8 -14.9,-3.5 -3.4,-2.3 -6.4,-5.1 -8.8,-9.2 -2.4,-4.1 -5.5,-7.4 -9.2,-10.2 -3.7,-2.8 -7.7,-4.8 -12.2,-5.9 -4.5,-1 -8,-3.1 -11.2,-5.7 -7.2,-5.9 -5.6,-11.5 -7.7,-13.4 z m 146.8,-0.3 c -2.1,1.9 -0.5,7.5 -7.8,13.5 -3.2,2.6 -6.7,4.7 -11.2,5.7 -4.5,1 -8.5,3.1 -12.2,5.8 -3.7,2.8 -6.8,6.1 -9.2,10.2 -2.4,4.1 -5.4,6.9 -8.8,9.2 -7.8,5.3 -12.5,2 -14.9,3.5 0,0 2.8,1.3 5.5,1.3 3.8,0 7.4,-0.6 10.7,-2.8 4,-2.6 6.3,-5.4 8.6,-9.5 2.4,-4.1 5.8,-8.2 8.9,-10.5 3.2,-2.4 8,-4.5 12.5,-5.5 4.5,-1 7.8,-2.4 11.5,-5.5 3.1,-2.6 4.8,-5.9 5.9,-9.6 0.9,-2.6 0.5,-5.8 0.5,-5.8 z m -128.4,-95.3 c 0,0 -3,0.6 -5.2,2.2 -3.1,2.3 -5.6,5 -7.1,8.8 -1.8,4.6 -2,8.2 -1.5,12.9 0.4,4.7 0,10.1 -1.2,13.9 -1.2,3.8 -3.9,8.4 -7,12 -3.1,3.6 -5,6.6 -6.2,11.4 -1,4 -0.5,7.6 0.7,11.4 0.8,2.6 3,4.9 3,4.9 0.6,-2.8 -3.9,-6.4 -1.4,-15.7 1.1,-4 2.7,-7.8 5.8,-11.4 3,-3.6 5.1,-7.6 6.6,-12.1 1.4,-4.5 2.1,-9 1.6,-13.7 -0.4,-4.7 0.4,-8.8 1.8,-12.8 3.3,-8.9 9,-9.1 10.1,-11.8 z m 109.4,-0.4 c 1.1,2.7 6.8,2.8 10,11.8 1.4,3.9 2.2,8 1.8,12.8 -0.4,4.7 0.2,9.3 1.6,13.7 1.4,4.5 3.5,8.6 6.6,12.1 3.1,3.6 4.7,7.4 5.8,11.4 2.5,9.2 -2,12.8 -1.4,15.7 0,0 2.2,-2.4 3,-4.9 1.2,-3.8 1.7,-7.4 0.7,-11.4 -1.2,-4.8 -3.1,-7.8 -6.2,-11.4 -3.1,-3.6 -5.8,-8.2 -7,-12 -1.2,-3.8 -1.7,-9.2 -1.2,-14 0.4,-4.7 0.2,-8.3 -1.5,-12.9 -1.5,-3.8 -4,-6.4 -7.1,-8.8 -2,-1.5 -5.1,-2.1 -5.1,-2.1 z m -78.8,-19.7 c -0.6,0 -1.1,0 -1.7,0 -4,0.3 -7.2,1.9 -10.3,4.3 -2.1,1.6 -3.7,4.4 -3.7,4.4 2.8,-0.3 4.7,-5.8 14.1,-6.2 4.1,-0.2 8.1,0.3 12.4,2.2 4.2,1.9 8.6,2.7 13.2,2.7 4.6,0 9,-0.8 13.3,-2.7 4.2,-1.9 8.3,-2.3 12.4,-2.2 9.3,0.4 11.2,5.9 14,6.2 0,0 -1.5,-2.8 -3.6,-4.4 -3.1,-2.3 -6.3,-4 -10.3,-4.3 -4.8,-0.3 -8.2,0.6 -12.4,2.5 -4.3,1.9 -9.4,3.1 -13.3,3.1 -3.9,0 -9,-1.2 -13.3,-3.1 -3.9,-1.6 -6.9,-2.5 -10.8,-2.5 z"
         class="st8" /><path
         style="fill:#f2f2f2"
         id="path31059"
         d="m 89.1,137.4 c -5.2,9.9 1.2,29.4 1.2,29.4 -11.5,0 -12,-5.3 -14.6,-13.6 -1.4,-4.4 -1.4,-10.8 -8.4,-15.4 -6.5,-5.4 -12.3,-3.4 -16.9,-3.4 -8.6,0 -13.6,1.2 -17.2,-10.1 0,0 20.1,0.1 27.6,-7.9 6.2,-6.7 6.5,-14.1 6.5,-14.1 0,0 -4.8,-5.8 -13.6,-7.4 -10.7,-2.1 -26.8,10.1 -26.8,10.1 -3.5,-11.3 1.2,-13.4 8.1,-18.5 3.7,-2.7 9.5,-4.7 11.7,-12.9 3,-8 -0.7,-13.1 -2.1,-17.5 -2.7,-8.4 -5.3,-12.9 4,-19.9 0,0 6.1,19.6 15.9,24.5 8.1,4 15.1,2 15.1,2 0,0 3.9,-6.4 2.7,-15.6 -1.5,-11.1 -17.8,-23.1 -17.8,-23.1 9.3,-6.9 12.7,-3 19.6,2.2 3.6,2.7 7.3,7.9 15.6,7.4 8.3,0.4 11.9,-4.7 15.6,-7.4 6.9,-5.2 10.3,-9.2 19.7,-2.2 0,0 -16.3,12 -17.8,23.1 -1.2,9.2 2.9,15.3 2.9,15.3 0,0 7.2,1.8 15.3,-2.2 9.8,-4.9 15.9,-24.5 15.9,-24.5 9.3,7 6.7,11.5 4,19.9 -1.4,4.4 -5,9.5 -2.1,17.5 2.2,8.2 8,10.2 11.7,12.9 6.9,5.2 11.7,7.3 8.1,18.5 0,0 -16.1,-12.2 -26.9,-10.2 -8.8,1.6 -13.3,7.5 -13.3,7.5 0,0 0.5,7.6 6.8,14.2 7.6,8.1 27.6,8 27.6,8 -3.6,11.3 -8.6,10.1 -17.1,10.1 -4.5,0 -10.4,-2 -16.9,3.4 -7,4.7 -7,11 -8.4,15.4 -2.6,8.4 -3.1,13.6 -14.6,13.6 0,0 6.3,-19.6 1.2,-29.4 -4.2,-8.1 -11.1,-10.7 -11.1,-10.7 0,0 -6.9,2.9 -11.2,11 z"
         class="st8" /><path
         style="fill:#ff0000"
         id="path31061"
         d="m 73.1,23.8 c -0.6,0 -1.5,0.2 -2.5,0.6 1.5,1.3 3,2.6 4.8,4.4 4.5,4.6 9.5,10.6 10.5,17.8 1.4,10.4 -3.2,18 -3.2,18 -0.5,0.8 -1.2,1.3 -2,1.5 0,0 -8.4,2.4 -17.6,-2.2 -6.3,-3.1 -10.3,-9.9 -13.2,-15.7 -1.1,-2.2 -1.8,-4.1 -2.5,-5.9 -1,1.3 -1.6,2.4 -1.6,3.4 -0.1,1.8 0.9,4.8 2.3,9.1 1.1,3.4 5.4,10.4 2.1,19.6 0,0.1 0,0.1 -0.1,0.2 0,0.1 0,0.1 0,0.2 -2.6,9.4 -10.1,12.4 -12.9,14.6 -3.6,2.7 -6.1,4.4 -7.1,6 -0.6,0.9 -0.8,2.1 -0.7,3.8 1.6,-1 3.2,-2.1 5.4,-3.2 5.7,-3 12.8,-6 19.7,-4.7 10,1.9 15.6,8.7 15.6,8.7 0.5,0.7 0.8,1.5 0.8,2.4 0,0 -0.3,8.9 -7.4,16.5 -4.9,5.2 -12.4,7 -18.6,8.1 -2.4,0.4 -4.3,0.5 -6.2,0.7 0.9,1.4 1.7,2.3 2.7,2.6 1.7,0.7 4.7,0.6 9.2,0.6 3.5,0 11.2,-2 18.7,4 0.1,0.1 0.2,0.1 0.3,0.2 7.9,5.5 8.4,13.7 9.5,17.1 1.4,4.3 2.2,7.4 3.3,8.8 0.7,0.8 1.7,1.4 3.3,1.8 -0.4,-1.9 -0.9,-3.8 -1.3,-6.3 -1,-6.4 -1.6,-14.3 1.7,-20.7 4.8,-9.2 12.8,-12.6 12.8,-12.6 0.8,-0.4 1.7,-0.4 2.5,-0.1 0,0 8.1,3.1 12.9,12.4 3.3,6.4 2.7,14.2 1.7,20.7 -0.4,2.5 -0.8,4.4 -1.3,6.3 1.5,-0.4 2.6,-1 3.3,-1.8 1.1,-1.4 2,-4.4 3.3,-8.8 1.1,-3.4 1.6,-11.6 9.5,-17.1 0,0 0.1,0 0.1,-0.1 0.1,0 0.1,-0.1 0.2,-0.2 7.5,-6 15.3,-4 18.7,-4 4.4,0 7.5,0.1 9.2,-0.6 1,-0.4 1.8,-1.2 2.7,-2.6 -1.9,-0.1 -3.8,-0.3 -6.2,-0.7 -6.3,-1 -13.8,-2.9 -18.6,-8.1 -7.1,-7.6 -7.7,-16.5 -7.7,-16.5 -0.1,-0.9 0.2,-1.8 0.7,-2.5 0,0 5.4,-7 15.4,-8.9 6.9,-1.3 14,1.8 19.7,4.7 2.2,1.1 3.8,2.2 5.4,3.2 0.1,-1.7 -0.1,-2.9 -0.7,-3.8 -1,-1.6 -3.5,-3.3 -7.1,-6 -2.8,-2.1 -10.2,-5.2 -12.9,-14.6 0,-0.1 -0.1,-0.2 -0.1,-0.3 -3.2,-9.2 1,-16.2 2.1,-19.6 1.4,-4.3 2.4,-7.3 2.3,-9.1 -0.1,-1.1 -0.6,-2.2 -1.6,-3.4 -0.7,1.8 -1.4,3.7 -2.5,5.9 -2.9,5.8 -6.9,12.5 -13.2,15.7 -9.2,4.6 -17.6,2.5 -17.6,2.5 -0.8,-0.2 -1.6,-0.7 -2.1,-1.5 0,0 -4.8,-7.4 -3.4,-17.9 0.9,-7.1 6,-13.1 10.5,-17.8 1.7,-1.8 3.3,-3.1 4.7,-4.3 -1.5,-0.6 -2.7,-0.8 -3.7,-0.5 -1.7,0.5 -4.2,2.4 -7.7,5 -2.8,2.1 -8,8.4 -17.5,8.1 -0.1,0 -0.2,0 -0.4,0 -9.5,0.3 -14.6,-6 -17.5,-8.1 -2.2,-1.7 -4.1,-3.1 -5.5,-4 -1.3,-0.7 -2.3,-1 -3.4,-1 z"
         class="st9" /><path
         style="fill:#b9b9b9"
         id="path31063"
         d="m 34.8,120.5 c 0,0 -1.7,1.6 -2.3,3.5 -1.8,5.5 1.3,9.5 6.5,11.3 3.7,1.3 7.4,1 10.9,0.7 3.6,-0.3 7.4,-1.3 10.8,-0.6 2.1,0.4 4.5,1.9 6.1,3.1 1.5,1.1 3.7,3.1 4.7,5 1.7,3.1 1.9,7.1 2.7,10.7 0.8,3.6 1.7,7.3 4,10.5 3.3,4.5 7.9,6.3 12.5,2.9 1.5,-1.2 2.5,-3.3 2.5,-3.3 l -5.4,1.5 c -1.9,0.5 -5.5,-1.7 -6.8,-3.5 -2.1,-2.8 -3.7,-5.2 -4.5,-8.8 -0.8,-3.5 -1.5,-7.3 -3.4,-10.8 -1.3,-2.4 -3.6,-4.4 -5.4,-5.7 -1.8,-1.3 -4.3,-3 -6.9,-3.5 -3.8,-0.8 -7.5,-0.3 -11,0.1 -3.5,0.3 -6.3,-0.6 -9.5,-1.7 -2,-0.7 -5.2,-3.6 -5.3,-5.6 z m 130.8,-0.3 -0.3,5.8 c -0.1,2 -3.3,4.9 -5.3,5.6 -3.2,1.1 -6,2 -9.5,1.7 -3.5,-0.3 -7.3,-0.8 -11.1,-0.1 -2.7,0.5 -5.2,2.2 -6.9,3.5 -1.8,1.3 -4.1,3.3 -5.4,5.7 -1.9,3.5 -2.6,7.3 -3.3,10.8 -0.8,3.5 -2.5,6 -4.5,8.8 -1.3,1.8 -4.9,4 -6.8,3.5 l -5.4,-1.5 c 0,0 0.9,2.1 2.5,3.3 4.6,3.5 9.2,1.6 12.5,-2.9 2.4,-3.2 3.3,-6.9 4,-10.5 0.8,-3.6 1,-7.6 2.7,-10.7 1,-1.9 3.2,-3.8 4.8,-5 1.5,-1.1 4,-2.7 6.1,-3.1 3.4,-0.7 7.2,0.3 10.8,0.6 3.6,0.3 7.3,0.6 11,-0.7 5.2,-1.9 8.3,-5.8 6.5,-11.3 -0.8,-1.9 -2.4,-3.5 -2.4,-3.5 z m -116.8,-84.9 c -5.7,0 -8.4,4.2 -8.5,9.9 -0.1,4 1.3,7.6 2.7,10.9 1.4,3.4 3.5,6.8 4,10.3 0.3,2.2 -0.4,5 -1,6.9 -0.6,1.9 -1.7,4.6 -3.2,6.2 -2.4,2.6 -6,4.1 -9.1,6 -3.1,1.9 -6.2,3.9 -8.5,7.2 -3.1,4.7 -3.4,9.7 1.2,13.1 1.6,1.1 3.9,1.4 3.9,1.4 l -3.1,-4.8 c -1.1,-1.7 -0.1,-5.9 1.1,-7.7 2,-2.9 3.7,-5.2 6.7,-7.1 3,-1.8 6.3,-3.7 9,-6.6 1.9,-2 3,-4.9 3.6,-7 0.7,-2.1 1.4,-5.1 1.1,-7.9 -0.5,-4 -2.1,-7.4 -3.5,-10.8 -1.4,-3.3 -1.4,-6.3 -1.4,-9.8 0,-2.2 1.7,-6.2 3.5,-6.9 l 5.3,-2 c 0.1,-0.1 -1.9,-1.3 -3.8,-1.3 z m 102.3,-0.5 c -1.9,0 -3.9,1.2 -3.9,1.2 l 5.2,2 c 1.8,0.7 3.5,4.7 3.5,6.9 0.1,3.5 0.1,6.5 -1.4,9.8 -1.4,3.3 -3,6.8 -3.5,10.8 -0.3,2.8 0.4,5.8 1.1,7.9 0.7,2.1 1.7,5 3.6,7 2.7,2.9 5.9,4.8 9,6.6 3,1.8 4.8,4.3 6.8,7.1 1.2,1.8 2.2,6.1 1.1,7.7 l -3.1,4.8 c 0,0 2.3,-0.3 3.9,-1.4 4.6,-3.4 4.4,-8.4 1.2,-13.1 -2.2,-3.3 -5.4,-5.3 -8.4,-7.2 -3,-1.9 -6.8,-3.4 -9.1,-6 -1.5,-1.6 -2.5,-4.3 -3.1,-6.2 -0.6,-1.9 -1.3,-4.7 -1,-6.9 0.4,-3.5 2.5,-6.9 3.9,-10.3 1.4,-3.4 2.8,-6.9 2.8,-10.9 -0.3,-5.6 -2.9,-9.8 -8.6,-9.8 z m -79.5,-16.9 c -3.6,-0.1 -6.6,1.7 -7.9,5.9 -0.6,1.9 -0.1,4.2 -0.1,4.2 l 3.5,-4.5 c 1.2,-1.6 5.4,-2 7.5,-1.3 3.3,1 6,2 8.7,4.4 2.7,2.4 5.4,5.1 8.9,6.8 2.5,1.2 5.5,1.4 7.6,1.4 2.2,0 5.1,-0.2 7.6,-1.4 3.5,-1.7 6.3,-4.3 8.9,-6.8 2.7,-2.4 5.4,-3.3 8.7,-4.4 2,-0.7 6.3,-0.3 7.5,1.3 l 3.5,4.5 c 0,0 0.4,-2.3 -0.1,-4.2 -1.7,-5.6 -6.5,-6.9 -11.7,-5.2 -3.8,1.2 -6.6,3.6 -9.3,6.1 -2.7,2.4 -5.2,5.5 -8.3,7.1 -1.9,0.9 -4.8,1.2 -6.7,1.2 -1.9,0 -4.8,-0.2 -6.7,-1.2 -3.1,-1.5 -5.6,-4.6 -8.3,-7.1 -2.7,-2.4 -5.5,-4.9 -9.3,-6.1 -1.5,-0.5 -2.8,-0.7 -4,-0.7 z"
         class="st10" /><path
         style="fill:#ffffff"
         id="path31065"
         d="m 142.4,81.1 c 7.2,5.1 3.1,16.3 0.5,24.8 -2.7,8.4 -5.8,20 -14.5,19.7 -9,-0.3 -4.9,-13.5 -13.3,-12.8 -3.2,8 10.3,8.1 7.7,17 -2.5,8.6 -14.1,8.1 -22.8,8.1 -8.6,0 -20.3,0.5 -22.8,-8.1 -2.5,-8.8 11,-9 7.7,-17 -8.4,-0.7 -4.3,12.5 -13.3,12.8 -8.8,0.2 -11.9,-11.3 -14.5,-19.7 -2.7,-8.4 -6.8,-19.7 0.5,-24.8 7.4,-5.2 11.7,8 18.1,2.3 -1.9,-8.4 -12.9,-0.4 -16,-9 -2.9,-8.5 6.8,-15.1 13.8,-20.3 7,-5.2 16.1,-12.7 23.1,-7.2 7.1,5.6 -3.7,13.9 3.4,18.4 7.2,-4.5 -3.7,-12.8 3.4,-18.4 6.9,-5.5 16.1,2 23.1,7.2 7,5.2 16.7,11.8 13.8,20.3 -3,8.7 -14,0.6 -16,9 6.4,5.6 10.7,-7.6 18.1,-2.3 z"
         class="st5" /><path
         style="fill:none;stroke:#999999;stroke-width:1.2"
         id="path31067"
         d="m 142.4,81.1 c 7.2,5.1 3.1,16.3 0.5,24.8 -2.7,8.4 -5.8,20 -14.5,19.7 -9,-0.3 -4.9,-13.5 -13.3,-12.8 -3.2,8 10.3,8.1 7.7,17 -2.5,8.6 -14.1,8.1 -22.8,8.1 -8.6,0 -20.3,0.5 -22.8,-8.1 -2.5,-8.8 11,-9 7.7,-17 -8.4,-0.7 -4.3,12.5 -13.3,12.8 -8.8,0.2 -11.9,-11.3 -14.5,-19.7 -2.7,-8.4 -6.8,-19.7 0.5,-24.8 7.4,-5.2 11.7,8 18.1,2.3 -1.9,-8.4 -12.9,-0.4 -16,-9 -2.9,-8.5 6.8,-15.1 13.8,-20.3 7,-5.2 16.1,-12.7 23.1,-7.2 7.1,5.6 -3.7,13.9 3.4,18.4 7.2,-4.5 -3.7,-12.8 3.4,-18.4 6.9,-5.5 16.1,2 23.1,7.2 7,5.2 16.7,11.8 13.8,20.3 -3,8.7 -14,0.6 -16,9 6.4,5.6 10.7,-7.6 18.1,-2.3 z"
         class="st6" /><g
         id="inner"
         inkscape:label="#g5477"><path
           class="st7"
           d="m 100,135.6 c -4.4,0 -9.3,0.1 -13.2,-0.8 -3.9,-0.9 -6.5,-2.4 -7.5,-5.8 -0.5,-1.7 -0.2,-2.5 0.3,-3.4 0.6,-0.9 1.7,-1.9 3.1,-3 1.3,-1.1 2.9,-2.2 3.9,-4 1.1,-1.8 1.4,-4.3 0.4,-6.8 -0.3,-0.8 -1,-1.3 -1.8,-1.4 -2.6,-0.2 -4.9,0.9 -6.2,2.5 -1.3,1.6 -1.9,3.4 -2.5,5 -0.6,1.6 -1.1,3 -1.8,3.9 -0.7,0.9 -1.3,1.3 -3.1,1.4 -3.4,0.1 -5.6,-1.9 -7.6,-5.5 -2,-3.6 -3.4,-8.4 -4.8,-12.7 -1.3,-4.3 -3,-9.1 -3.4,-13.2 -0.4,-4.1 0.2,-7.1 3,-9 1.4,-1 2.2,-1 3.3,-0.7 1,0.3 2.3,1.1 3.7,2.1 1.4,1 2.9,2.1 4.9,2.6 2,0.5 4.4,0 6.4,-1.8 0.6,-0.5 0.9,-1.4 0.7,-2.2 -0.6,-2.6 -2.3,-4.5 -4.2,-5.3 -1.9,-0.8 -3.7,-0.8 -5.4,-0.8 -1.7,-0.1 -3.2,-0.2 -4.2,-0.6 -1,-0.4 -1.7,-0.9 -2.2,-2.6 -1.2,-3.3 0.1,-6.1 2.7,-9.1 2.7,-3.1 6.8,-6 10.3,-8.6 3.5,-2.6 7.5,-5.7 11.1,-7.4 3.7,-1.7 6.6,-2 9.3,0.1 1.4,1.1 1.6,1.9 1.7,3 0.1,1.1 -0.3,2.6 -0.8,4.3 -0.5,1.7 -1,3.5 -0.9,5.6 0.1,2.1 1.4,4.3 3.6,5.7 0.7,0.4 1.6,0.4 2.3,0 2.3,-1.4 3.5,-3.6 3.6,-5.7 0.1,-2.1 -0.5,-3.9 -0.9,-5.6 -0.5,-1.7 -0.8,-3.2 -0.8,-4.3 0.1,-1.1 0.3,-1.9 1.7,-3 2.7,-2.2 5.6,-1.8 9.3,-0.1 3.7,1.7 7.6,4.8 11.1,7.4 3.5,2.6 7.6,5.5 10.3,8.6 2.7,3.1 3.9,5.8 2.8,9.1 -0.6,1.7 -1.2,2.1 -2.2,2.6 -1,0.4 -2.5,0.5 -4.2,0.6 -1.7,0.1 -3.6,0.1 -5.4,0.8 -1.9,0.8 -3.6,2.6 -4.2,5.3 -0.2,0.8 0.1,1.7 0.7,2.2 2,1.8 4.4,2.2 6.4,1.8 2,-0.5 3.5,-1.6 4.9,-2.6 1.4,-1 2.7,-1.8 3.7,-2.1 1,-0.3 1.9,-0.3 3.3,0.7 2.8,2 3.4,4.9 3,9 -0.4,4.1 -2,8.9 -3.4,13.2 -1.3,4.2 -2.8,9.1 -4.8,12.7 -2,3.6 -4.2,5.6 -7.6,5.5 -1.7,-0.1 -2.4,-0.5 -3.1,-1.4 -0.7,-0.9 -1.2,-2.3 -1.8,-3.9 -0.6,-1.6 -1.1,-3.4 -2.4,-5 -1.3,-1.6 -3.6,-2.7 -6.2,-2.5 -0.8,0.1 -1.5,0.6 -1.8,1.4 -1,2.5 -0.7,5 0.4,6.8 1.1,1.8 2.6,2.9 3.9,4 1.3,1.1 2.5,2.1 3.1,3 0.6,0.9 0.8,1.7 0.3,3.4 -1,3.4 -3.5,4.9 -7.4,5.8 -4.1,0.9 -9,0.8 -13.4,0.8 z"
           id="path31069"
           style="fill:#0000ff" /><path
           class="st8"
           d="m 94.2,66.8 c -2.8,-5.3 0.6,-15.7 0.6,-15.7 -6.1,0 -6.4,2.8 -7.8,7.3 -0.7,2.4 -0.7,5.7 -4.5,8.2 -3.4,2.9 -6.6,1.8 -9,1.8 -4.6,0 -7.2,-0.6 -9.1,5.4 0,0 10.7,-0.1 14.7,4.2 3.3,3.6 3.5,7.5 3.5,7.5 0,0 -2.5,3.1 -7.3,4 -5.7,1.1 -14.3,-5.4 -14.3,-5.4 -1.9,6 0.6,7.1 4.3,9.9 2,1.5 5.1,2.5 6.2,6.9 1.6,4.3 -0.4,7 -1.1,9.3 -1.4,4.5 -2.8,6.9 2.1,10.6 0,0 3.2,-10.5 8.5,-13.1 4.3,-2.1 8,-1 8,-1 0,0 2.1,3.4 1.4,8.3 -0.8,5.9 -9.5,12.3 -9.5,12.3 5,3.7 6.8,1.6 10.5,-1.2 1.9,-1.5 3.9,-4.2 8.3,-4 4.4,-0.2 6.4,2.5 8.3,4 3.7,2.8 5.5,4.9 10.5,1.2 0,0 -8.7,-6.4 -9.5,-12.3 -0.6,-4.9 1.5,-8.2 1.5,-8.2 0,0 3.8,-1 8.1,1.2 5.2,2.6 8.5,13.1 8.5,13.1 5,-3.7 3.6,-6.1 2.1,-10.6 -0.8,-2.4 -2.7,-5.1 -1.1,-9.3 1.2,-4.4 4.3,-5.4 6.2,-6.9 3.7,-2.8 6.2,-3.9 4.3,-9.9 0,0 -8.6,6.5 -14.3,5.5 -4.7,-0.9 -7.1,-4 -7.1,-4 0,0 0.3,-4 3.6,-7.6 4,-4.3 14.7,-4.2 14.7,-4.2 -1.9,-6 -4.6,-5.4 -9.1,-5.4 -2.4,0 -5.5,1 -9,-1.8 -3.7,-2.5 -3.7,-5.9 -4.5,-8.2 -1.4,-4.5 -1.7,-7.3 -7.8,-7.3 0,0 3.4,10.4 0.6,15.7 -2.3,4.3 -5.9,5.7 -5.9,5.7 0,0 -3.3,-1.7 -5.6,-6 z"
           id="path31073"
           style="fill:#0000ff" /></g><path
         style="fill:#b9b9b9"
         id="path31077"
         d="m 65.2,75.8 c 0,0 -0.9,-0.8 -1.2,-1.8 -1,-3 0.7,-5.1 3.5,-6.1 2,-0.7 3.9,-0.5 5.8,-0.4 1.9,0.2 4,0.7 5.8,0.3 1.1,-0.2 2.4,-1 3.2,-1.6 0.8,-0.6 2,-1.6 2.5,-2.7 0.9,-1.7 1,-3.8 1.4,-5.7 0.4,-1.9 0.9,-3.9 2.2,-5.6 1.8,-2.4 4.2,-3.4 6.7,-1.5 0.8,0.6 1.4,1.8 1.4,1.8 l -2.9,-0.8 c -1,-0.3 -3,0.9 -3.6,1.8 -1.1,1.5 -2,2.8 -2.4,4.7 -0.4,1.9 -0.8,3.9 -1.8,5.8 -0.7,1.3 -1.9,2.3 -2.9,3 -0.9,0.7 -2.3,1.6 -3.7,1.9 -2,0.4 -4,0.1 -5.9,0 -1.9,-0.2 -3.4,0.3 -5.1,0.9 -1.1,0.4 -2.8,1.9 -2.8,3 z m 69.8,0.2 -0.1,-3.1 c 0,-1.1 -1.8,-2.6 -2.8,-3 -1.7,-0.6 -3.2,-1.1 -5.1,-0.9 -1.9,0.2 -3.9,0.4 -5.9,0 -1.4,-0.3 -2.8,-1.2 -3.7,-1.9 -0.9,-0.7 -2.2,-1.7 -2.9,-3 -1,-1.9 -1.4,-3.9 -1.8,-5.8 -0.4,-1.9 -1.3,-3.2 -2.4,-4.7 -0.7,-0.9 -2.6,-2.1 -3.6,-1.9 l -2.9,0.8 c 0,0 0.5,-1.1 1.3,-1.8 2.4,-1.8 4.9,-0.9 6.7,1.5 1.3,1.7 1.7,3.7 2.2,5.6 0.4,1.9 0.6,4.1 1.4,5.7 0.6,1 1.7,2 2.5,2.7 0.8,0.6 2.1,1.4 3.2,1.6 1.8,0.4 3.8,-0.2 5.8,-0.3 1.9,-0.2 3.9,-0.3 5.9,0.4 2.8,1 4.4,3.1 3.5,6.1 -0.4,1.1 -1.3,2 -1.3,2 z m -62.3,45.2 c -3,0 -4.5,-2.2 -4.5,-5.3 0,-2.1 0.7,-4 1.4,-5.8 0.8,-1.8 1.9,-3.6 2.1,-5.5 0.1,-1.2 -0.2,-2.7 -0.5,-3.7 -0.3,-1 -0.9,-2.4 -1.7,-3.3 -1.3,-1.4 -3.2,-2.2 -4.9,-3.2 -1.6,-1 -3.3,-2.1 -4.5,-3.8 -1.7,-2.5 -1.8,-5.2 0.6,-7 0.8,-0.6 2.1,-0.8 2.1,-0.8 l -1.6,2.6 c -0.6,0.9 -0.1,3.2 0.6,4.1 1,1.5 2,2.8 3.6,3.8 1.6,1 3.4,2 4.8,3.5 1,1.1 1.6,2.6 1.9,3.7 0.4,1.1 0.8,2.7 0.6,4.2 -0.3,2.1 -1.1,4 -1.9,5.8 -0.8,1.8 -0.8,3.4 -0.7,5.2 0,1.2 0.9,3.3 1.9,3.7 l 2.8,1.1 c 0,0.1 -1.1,0.7 -2.1,0.7 z m 54.5,0.3 c -1,0 -2.1,-0.6 -2.1,-0.6 l 2.8,-1.1 c 1,-0.4 1.9,-2.5 1.9,-3.7 0,-1.9 0,-3.5 -0.7,-5.2 -0.8,-1.8 -1.6,-3.6 -1.9,-5.8 -0.2,-1.5 0.2,-3.1 0.6,-4.2 0.4,-1.1 0.9,-2.7 1.9,-3.7 1.4,-1.6 3.2,-2.6 4.8,-3.5 1.6,-1 2.6,-2.3 3.6,-3.8 0.7,-1 1.2,-3.2 0.6,-4.1 l -1.7,-2.6 c 0,0 1.2,0.2 2.1,0.8 2.5,1.8 2.3,4.5 0.6,7 -1.2,1.8 -2.9,2.8 -4.5,3.8 -1.6,1 -3.6,1.8 -4.9,3.2 -0.8,0.9 -1.4,2.3 -1.7,3.3 -0.3,1 -0.7,2.5 -0.5,3.7 0.2,1.9 1.3,3.7 2.1,5.5 0.8,1.8 1.5,3.7 1.5,5.8 0,3 -1.4,5.2 -4.5,5.2 z m -42.3,9 c -1.9,0 -3.5,-0.9 -4.2,-3.1 -0.3,-1 -0.1,-2.2 -0.1,-2.2 l 1.9,2.4 c 0.6,0.8 2.9,1.1 4,0.7 1.7,-0.6 3.2,-1 4.6,-2.3 1.4,-1.3 2.9,-2.7 4.8,-3.6 1.3,-0.6 2.9,-0.7 4.1,-0.7 1.2,0 2.7,0.1 4.1,0.7 1.9,0.9 3.3,2.3 4.8,3.6 1.4,1.3 2.9,1.8 4.6,2.3 1.1,0.3 3.4,0.1 4,-0.7 l 1.9,-2.4 c 0,0 0.2,1.2 -0.1,2.2 -0.9,3 -3.4,3.7 -6.3,2.8 -2,-0.6 -3.5,-1.9 -4.9,-3.2 -1.4,-1.3 -2.8,-3 -4.4,-3.8 -1,-0.5 -2.5,-0.6 -3.6,-0.6 -1,0 -2.5,0.1 -3.6,0.6 -1.7,0.8 -3,2.5 -4.4,3.8 -1.4,1.3 -2.9,2.6 -4.9,3.2 -1,0.2 -1.7,0.3 -2.3,0.3 z"
         class="st10" /><g
         id="seeded"><path
           class="st11"
           d="m 100,110.4 c -3.7,1.9 -5.8,0.6 -7.4,-1.5 -2.5,-0.1 -5,0.3 -6.1,-4.1 -3.5,-0.9 -5,-2.9 -4.1,-6.1 -2.6,-1.7 -3.4,-4.1 -1.5,-7.5 -1.9,-4.2 0.1,-6 1.5,-7.4 -0.5,-2.8 0.3,-5 4.1,-6.1 0.9,-3.8 3.4,-4.1 6.1,-4.1 1.7,-2 4,-3 7.4,-1.5 3.2,-1.5 5.6,-0.7 7.4,1.5 3.5,-0.7 5.1,1.3 6.1,4.1 3.6,1.4 4.3,3.6 4.1,6.1 2.5,2.4 3,4.9 1.5,7.5 1.5,3 1.8,5.6 -1.5,7.5 0.1,3.6 -1.5,5.5 -4.1,6.1 -1,2.2 -1.4,4.7 -6.1,4.1 -1.7,1.5 -3.2,3.2 -7.4,1.4 z"
           id="path31079"
           style="fill:#ffff00;stroke:#808080" /></g></g></g></svg>