<?xml version="1.0" encoding="UTF-8" standalone="no"?>
<!-- Created with Inkscape (http://www.inkscape.org/) -->
<svg xmlns:v="http://schemas.microsoft.com/visio/2003/SVGExtensions/" xmlns:dc="http://purl.org/dc/elements/1.1/" xmlns:cc="http://creativecommons.org/ns#" xmlns:rdf="http://www.w3.org/1999/02/22-rdf-syntax-ns#" xmlns:svg="http://www.w3.org/2000/svg" xmlns="http://www.w3.org/2000/svg" version="1.1" width="123.62" height="273.36725" id="svg2" xml:space="preserve" style="font-size:12px;fill:none;stroke-linecap:square;stroke-miterlimit:3;overflow:visible"><title id="title4">Amphora</title><metadata id="metadata52">
    <rdf:RDF>
      <cc:Work
         rdf:about="">
        <dc:format>image/svg+xml</dc:format>
        <dc:type
           rdf:resource="http://purl.org/dc/dcmitype/StillImage" />
        <dc:title></dc:title>
        <cc:license
           rdf:resource="" />
        <dc:creator>
          <cc:Agent>
            <dc:title> http://www.vikinganswerlady.com/Stars/Heraldry_SVG_Images/index.htm</dc:title>
          </cc:Agent>
        </dc:creator>
      </cc:Work>
    </rdf:RDF>
</metadata><defs id="defs50">
					
					
					
				
						
						
					
						
						
					
					
					
				
					
					
				
				
				
				
				
			</defs>
	
	<v:documentProperties v:viewMarkup="false" v:langID="1033"/>

	<style type="text/css" id="style6"/>

	<g id="g8" style="fill:#ffff00"><title id="title10">Page-1</title>
		
		<v:pageProperties v:shadowOffsetY="-9" v:shadowOffsetX="9" v:drawingUnits="19" v:pageScale="1" v:drawingScale="1"/>
		<g id="group1-1" style="fill:#ffff00"><title id="title13">Amphora</title>
			
			<g id="shape2-2" style="fill:#ffff00"><title id="title16">Sheet.2</title>
				
				
				
			</g>
			<path d="m81.88,10.08   c1.128,-0.7062 1.852,-2.015 1.852,-3.345 0,-1.33 -0.7244,-2.639 -1.852,-3.345 -12.71,-3.86 -26.57,-3.86 -39.28,0   l-0.28,0   c-1.065,0.7534 -1.731,2.041 -1.731,3.345 0,1.304 0.666,2.592 1.731,3.345 3.947,-2.431 11.79,-4.027 19.78,-4.027 7.995,0 15.83,1.596 19.78,4.027   z " id="path28" style="fill:#ffff00;stroke:#000000;stroke-width:1;stroke-linecap:round;stroke-linejoin:round"/><path d="m81.73,29.6   c3.484,-5.214 8.293,-9.534 13.85,-12.44 1.016,-0.6061 2.375,-0.581 3.367,0.0621 0.9926,0.6431 1.571,1.873 1.433,3.048 -4.388,28.19 -5.999,56.82 -4.8,85.33 0.9256,2.115 2.932,3.723 5.198,4.165 2.266,0.4423 4.729,-0.2929 6.382,-1.905 -1.278,-32.05 -0.0465,-64.2 3.68,-96.06 -0.008,-1.678 -0.7891,-3.336 -2.078,-4.41 -1.289,-1.074 -3.061,-1.544 -4.712,-1.25 -8.722,0.04358 -17.42,2.517 -24.86,7.07   z " id="path36" style="fill:#ffff00;stroke:#000000;stroke-width:1;stroke-linecap:round;stroke-linejoin:round"/><path d="m42.46,29.6   c-3.484,-5.214 -8.293,-9.534 -13.85,-12.44 -1.016,-0.6061 -2.375,-0.581 -3.367,0.0621 -0.9926,0.6431 -1.571,1.873 -1.433,3.048 4.388,28.19 5.999,56.82 4.8,85.33 -0.9256,2.115 -2.932,3.723 -5.198,4.165 -2.266,0.4423 -4.729,-0.2929 -6.382,-1.905 1.278,-32.05 0.04651,-64.2 -3.68,-96.06 0.0077,-1.678 0.7891,-3.336 2.078,-4.41 1.289,-1.074 3.061,-1.544 4.712,-1.25 8.722,0.04358 17.42,2.517 24.86,7.07   z " id="path41" style="fill:#ffff00;stroke:#000000;stroke-width:1;stroke-linecap:round;stroke-linejoin:round"/><path d="m61.81,6.063   c-0.09333,0 -0.1867,0 -0.28,0 -7.799,0.0693 -15.35,1.649 -19.21,4.02   l0,78.07   c-0.4588,2.067 -2.72,5.68 -2.72,5.68 0,0 -21.47,12.15 -28.39,22.03   C4.283,125.8 0.5,137.7 0.5,149.7   c2.746,42.09 18.98,83.33 46.06,117 3.475,4.472 9.551,6.883 15.25,6.05 5.702,0.8365 11.78,-1.575 15.26,-6.05 27.08,-33.69 43.31,-74.93 46.05,-117 0,-11.96 -3.781,-23.89 -10.7,-33.77   C105.5,106 95.47,98.18 84.03,93.83 82.71,92.18 81.77,90.22 81.31,88.15   l0,-78.07   C77.45,7.713 69.9,6.13 62.1,6.063 62.01,6.061 61.91,6.06 61.82,6.061   z " id="path46" style="fill:#ffff00;stroke:#000000;stroke-width:1;stroke-linecap:round;stroke-linejoin:round"/>
		</g>
	</g>
</svg>
