<?xml version="1.0" encoding="UTF-8" standalone="no"?>
<svg
   width="144.9"
   height="188.1"
   version="1.1"
   id="svg4440"
   xmlns="http://www.w3.org/2000/svg"
   xmlns:svg="http://www.w3.org/2000/svg"
   xmlns:rdf="http://www.w3.org/1999/02/22-rdf-syntax-ns#"
   xmlns:cc="http://creativecommons.org/ns#"
   xmlns:dc="http://purl.org/dc/elements/1.1/">
  <defs
     id="defs4444" />
  <metadata
     id="metadata4430">
    <rdf:RDF>
      <cc:Work
         rdf:about="">
        <dc:format>image/svg+xml</dc:format>
        <dc:type
           rdf:resource="http://purl.org/dc/dcmitype/StillImage" />
        <cc:license
           rdf:resource="" />
        <dc:creator>
          <cc:Agent>
            <dc:title>commons.wikimedia.org by LeMorvandiau</dc:title>
          </cc:Agent>
        </dc:creator>
      </cc:Work>
    </rdf:RDF>
  </metadata>
  <g
     id="g5294">
    <g
       style="fill:#ffff00;fill-opacity:1;fill-rule:evenodd;stroke:#000000;stroke-width:3;stroke-linecap:butt;stroke-linejoin:miter;stroke-miterlimit:4;stroke-dasharray:none;stroke-opacity:1"
       id="body"
       transform="translate(-0.7,-1.5)">
      <path
         stroke-width="1.2"
         d="M 14.5,2.1 H 132 c 0,0 6,20.3 10,43.9 2,18 3,38 3,50 0,12 -1,32 -3,50 -4,23 -10,43 -10,43 H 14.5 c 0,0 -5.6,-19 -9.1,-42 C 2.7,129 1.9,108 1.9,96 1.9,84 2.5,64 5.1,46 8.7,22.3 14.5,2.1 14.5,2.1 Z"
         id="path4432" />
      <path
         stroke-width="1.2"
         d="m 58.5,2.7 c 0,0 -2.6,65.3 -2.6,93.3 0,28 2.6,93 2.6,93 M 44.1,2.3 c 0,0 -6.7,65.7 -6.7,92.7 0,28 6.7,94 6.7,94 M 28.1,2.7 c 0,0 -8.9,65.3 -8.9,93.3 0,28 8.9,93 8.9,93 M 88,2.7 c 0,0 3,65.3 3,93.3 0,28 -3,93 -3,93 M 103,2.3 c 0,0 6,65.7 6,92.7 0,28 -6,94 -6,94 M 119,2.7 c 0,0 9,65.3 9,93.3 0,28 -9,93 -9,93 M 73,2.1 V 188"
         id="path4434" />
    </g>
    <g
       style="fill:#ffff00;fill-opacity:1;fill-rule:evenodd;stroke:#000000;stroke-width:3;stroke-linecap:butt;stroke-linejoin:miter;stroke-miterlimit:4;stroke-dasharray:none;stroke-opacity:1"
       id="hooped"
       transform="translate(-0.7,-1.5)">
      <path
         stroke-width="1.2"
         d="m 1.3,100 c 0,-3 0,-5 0,-9 H 144 c 1,3 1,5 0,9 z m 7.3,64 C 7.9,161 7.4,158 6.8,155 H 140 c -1,4 -1,6 -2,9 z m 4.5,20 c -0.7,-3 -1.5,-5 -2.2,-9 H 136 c -1,3 -2,6 -2,9 z M 8.5,27.4 C 7.8,30.3 7.6,32 6.8,36 H 140 c -1,-3 -1,-5.6 -2,-8.6 z M 13,7.6 c -0.7,3 -1.2,4.5 -2.1,8.8 H 136 c -1,-3.7 -1,-5.9 -2,-8.8 z"
         id="path4437" />
    </g>
  </g>
</svg>
