<?xml version="1.0" encoding="UTF-8" standalone="no"?>
<!DOCTYPE svg PUBLIC "-//W3C//DTD SVG 1.1//EN" "http://www.w3.org/Graphics/SVG/1.1/DTD/svg11.dtd">
<svg width="100%" height="100%" viewBox="0 0 194 338" version="1.1" xmlns="http://www.w3.org/2000/svg" xmlns:xlink="http://www.w3.org/1999/xlink" xml:space="preserve" xmlns:serif="http://www.serif.com/" style="fill-rule:evenodd;clip-rule:evenodd;stroke-linecap:round;stroke-linejoin:round;">
    <g id="Group_3">
        <g id="Group_23">
            <g id="Graphic_26">
                <path d="M36.982,316.159C37.239,305.585 58.569,297.067 84.794,297.067C111.018,297.067 132.349,305.585 132.605,316.159C132.349,326.733 111.018,335.25 84.794,335.25C58.569,335.25 37.239,326.733 36.982,316.159Z" style="fill:rgb(255,0,0);fill-rule:nonzero;"/>
                <path d="M36.982,316.159C37.239,305.585 58.569,297.067 84.794,297.067C111.018,297.067 132.349,305.585 132.605,316.159C132.349,326.733 111.018,335.25 84.794,335.25C58.569,335.25 37.239,326.733 36.982,316.159Z" style="fill:rgb(255,255,0);fill-rule:nonzero;stroke:rgb(204,204,204);stroke-width:3px;"/>
            </g>
            <g id="Graphic_25">
                <path d="M52.144,312.043C51.493,312.886 51.149,313.747 51.121,314.612C51.121,320.149 66.198,324.638 84.797,324.638C103.396,324.638 118.474,320.149 118.474,314.612C118.471,313.886 118.205,313.163 117.678,312.455C113.708,309.307 110.671,305.135 108.895,300.39C107.374,297.053 106.271,293.541 105.614,289.934C102.821,281.03 94.876,274.734 85.57,274.048L85.57,274.003C85.441,274.008 85.314,274.014 85.186,274.021C85.055,274.014 84.924,274.008 84.793,274.003L84.793,274.048C75.487,274.734 67.542,281.03 64.749,289.934C64.091,293.541 62.989,297.053 61.467,300.39C60.277,304.038 58.119,307.294 55.225,309.813C54.282,310.561 53.254,311.305 52.144,312.043Z" style="fill:rgb(255,0,0);fill-rule:nonzero;"/>
                <path d="M52.144,312.043C51.493,312.886 51.149,313.747 51.121,314.612C51.121,320.149 66.198,324.638 84.797,324.638C103.396,324.638 118.474,320.149 118.474,314.612C118.471,313.886 118.205,313.163 117.678,312.455C113.708,309.307 110.671,305.135 108.895,300.39C107.374,297.053 106.271,293.541 105.614,289.934C102.821,281.03 94.876,274.734 85.57,274.048L85.57,274.003C85.441,274.008 85.314,274.014 85.186,274.021C85.055,274.014 84.924,274.008 84.793,274.003L84.793,274.048C75.487,274.734 67.542,281.03 64.749,289.934C64.091,293.541 62.989,297.053 61.467,300.39C60.277,304.038 58.119,307.294 55.225,309.813C54.282,310.561 53.254,311.305 52.144,312.043Z" style="fill:rgb(255,255,0);fill-rule:nonzero;stroke:rgb(204,204,204);stroke-width:3px;"/>
            </g>
            <path id="Graphic_24" d="M87.367,277.343C94.389,280.465 99.728,286.459 102.018,293.795C103.751,301.066 107.287,307.784 112.301,313.328" style="fill:rgb(255,255,0);fill-rule:nonzero;stroke:rgb(204,204,204);stroke-width:1px;"/>
        </g>
        <g id="Graphic_22">
            <path d="M59.861,266.14C59.989,255.764 71.115,247.404 84.795,247.404C98.475,247.404 109.601,255.764 109.729,266.14C109.601,276.516 98.475,284.876 84.795,284.876C71.115,284.876 59.989,276.516 59.861,266.14Z" style="fill:rgb(255,0,0);fill-rule:nonzero;"/>
            <path d="M59.861,266.14C59.989,255.764 71.115,247.404 84.795,247.404C98.475,247.404 109.601,255.764 109.729,266.14C109.601,276.516 98.475,284.876 84.795,284.876C71.115,284.876 59.989,276.516 59.861,266.14Z" style="fill:rgb(255,255,0);fill-rule:nonzero;stroke:rgb(204,204,204);stroke-width:3px;"/>
        </g>
        <path id="Graphic_21" d="M89.167,250.605C94.922,251.692 100.009,255.022 103.309,259.86C106.229,263.984 105.796,269.602 102.279,273.229C97.702,277.244 91.906,279.599 85.826,279.912" style="fill:rgb(255,255,0);fill-rule:nonzero;stroke:rgb(204,204,204);stroke-width:1px;"/>
        <g id="Graphic_20">
            <path d="M137.235,51.121C134.59,50.737 132.536,48.617 132.236,45.961C131.935,43.305 133.463,40.781 135.955,39.815C140.915,38.176 146.3,40.645 148.294,45.473C150.899,53.899 147.152,62.988 139.366,67.131C131.579,71.275 121.948,69.304 116.414,62.436C110.011,54.723 107.963,44.285 110.977,34.724C113.99,25.162 121.653,17.785 131.321,15.137C147.013,12.312 163.131,16.863 175.029,27.476C193.634,49.105 196.128,80.278 181.198,104.59L163.969,135.959C157.841,144.736 157.739,156.378 163.714,165.262C164.849,161.428 168.878,159.241 172.712,160.376C176.546,161.512 178.733,165.541 177.597,169.375C176.054,177.3 168.649,182.686 160.633,181.714C151.434,179.083 145.535,170.128 146.75,160.637C147.683,148.804 151.381,137.356 157.544,127.212C163.049,115.231 168.88,103.403 175.029,91.739C184.947,70.652 179.819,45.552 162.425,30.044C151.747,21.448 136.585,21.237 125.673,29.532C118.452,35.524 117.102,46.083 122.583,53.699C124.654,55.846 127.657,56.823 130.595,56.306C133.533,55.79 136.021,53.846 137.235,51.121Z" style="fill:rgb(255,0,0);fill-rule:nonzero;"/>
            <path d="M137.235,51.121C134.59,50.737 132.536,48.617 132.236,45.961C131.935,43.305 133.463,40.781 135.955,39.815C140.915,38.176 146.3,40.645 148.294,45.473C150.899,53.899 147.152,62.988 139.366,67.131C131.579,71.275 121.948,69.304 116.414,62.436C110.011,54.723 107.963,44.285 110.977,34.724C113.99,25.162 121.653,17.785 131.321,15.137C147.013,12.312 163.131,16.863 175.029,27.476C193.634,49.105 196.128,80.278 181.198,104.59L163.969,135.959C157.841,144.736 157.739,156.378 163.714,165.262C164.849,161.428 168.878,159.241 172.712,160.376C176.546,161.512 178.733,165.541 177.597,169.375C176.054,177.3 168.649,182.686 160.633,181.714C151.434,179.083 145.535,170.128 146.75,160.637C147.683,148.804 151.381,137.356 157.544,127.212C163.049,115.231 168.88,103.403 175.029,91.739C184.947,70.652 179.819,45.552 162.425,30.044C151.747,21.448 136.585,21.237 125.673,29.532C118.452,35.524 117.102,46.083 122.583,53.699C124.654,55.846 127.657,56.823 130.595,56.306C133.533,55.79 136.021,53.846 137.235,51.121Z" style="fill:rgb(255,255,0);fill-rule:nonzero;stroke:rgb(204,204,204);stroke-width:3px;"/>
        </g>
        <g id="Graphic_19">
            <path d="M153.261,109.869C150.432,118.063 120.835,124.397 85.125,124.449C49.416,124.501 19.47,118.255 16.188,110.07C13.584,159.188 28.23,207.672 57.592,247.133C64.503,254.899 74.402,259.342 84.798,259.342C95.193,259.342 105.093,254.899 112.003,247.133C141.404,207.615 156.046,159.053 153.389,109.869L153.261,109.869Z" style="fill:rgb(255,0,0);fill-rule:nonzero;"/>
            <path d="M153.261,109.869C150.432,118.063 120.835,124.397 85.125,124.449C49.416,124.501 19.47,118.255 16.188,110.07C13.584,159.188 28.23,207.672 57.592,247.133C64.503,254.899 74.402,259.342 84.798,259.342C95.193,259.342 105.093,254.899 112.003,247.133C141.404,207.615 156.046,159.053 153.389,109.869L153.261,109.869Z" style="fill:rgb(255,255,0);fill-rule:nonzero;stroke:rgb(204,204,204);stroke-width:3px;"/>
        </g>
        <g id="Graphic_18">
            <path d="M20.787,14.109C28.201,16.615 35.856,18.336 43.628,19.245C69.115,22.768 95.08,19.554 118.942,9.923C118.15,9.69 117.354,9.468 116.556,9.255C103.816,5.89 90.342,6.609 78.031,11.312C59.344,16.171 39.858,17.123 20.787,14.109Z" style="fill:rgb(225,225,225);fill-rule:nonzero;"/>
            <path d="M20.787,14.109C28.201,16.615 35.856,18.336 43.628,19.245C69.115,22.768 95.08,19.554 118.942,9.923C118.15,9.69 117.354,9.468 116.556,9.255C103.816,5.89 90.342,6.609 78.031,11.312C59.344,16.171 39.858,17.123 20.787,14.109Z" style="fill:rgb(255,255,0);fill-rule:nonzero;stroke:rgb(204,204,204);stroke-width:3px;"/>
        </g>
        <g id="Graphic_17">
            <path d="M21.387,14.325C40.277,17.226 59.561,16.2 78.037,11.309C91.153,6.383 105.521,5.898 118.939,9.929C120.959,8.967 122.958,7.961 124.934,6.913C121.757,5.891 118.529,5.03 115.264,4.335C102.527,0.972 89.056,1.691 76.748,6.392C53.44,12.563 28.929,12.563 5.621,6.392C10.575,9.598 15.861,12.258 21.387,14.325Z" style="fill:rgb(255,0,0);fill-rule:nonzero;"/>
            <path d="M21.387,14.325C40.277,17.226 59.561,16.2 78.037,11.309C91.153,6.383 105.521,5.898 118.939,9.929C120.959,8.967 122.958,7.961 124.934,6.913C121.757,5.891 118.529,5.03 115.264,4.335C102.527,0.972 89.056,1.691 76.748,6.392C53.44,12.563 28.929,12.563 5.621,6.392C10.575,9.598 15.861,12.258 21.387,14.325Z" style="fill:rgb(255,255,0);fill-rule:nonzero;stroke:rgb(204,204,204);stroke-width:3px;"/>
        </g>
        <g id="Graphic_16">
            <path d="M16.376,110.472C20.494,118.455 49.943,124.46 84.865,124.439C119.788,124.418 149.1,118.377 153.037,110.39C125.764,96.75 110.592,66.903 115.645,36.831C116.956,28.571 119.743,20.614 123.871,13.341C125.04,12.782 125.869,11.694 126.097,10.419C126.325,9.143 125.926,7.836 125.023,6.906C123.819,6.137 122.253,6.244 121.166,7.171C83.581,21.019 42.246,20.743 4.85,6.394C3.366,7.288 2.503,8.934 2.61,10.663C2.718,12.392 3.778,13.917 5.362,14.62C16.624,17.569 27.595,21.537 38.138,26.475C46.805,30.694 53.007,38.715 54.91,48.164C54.97,74.574 40.031,98.729 16.376,110.472Z" style="fill:rgb(255,0,0);fill-rule:nonzero;"/>
            <path d="M16.376,110.472C20.494,118.455 49.943,124.46 84.865,124.439C119.788,124.418 149.1,118.377 153.037,110.39C125.764,96.75 110.592,66.903 115.645,36.831C116.956,28.571 119.743,20.614 123.871,13.341C125.04,12.782 125.869,11.694 126.097,10.419C126.325,9.143 125.926,7.836 125.023,6.906C123.819,6.137 122.253,6.244 121.166,7.171C83.581,21.019 42.246,20.743 4.85,6.394C3.366,7.288 2.503,8.934 2.61,10.663C2.718,12.392 3.778,13.917 5.362,14.62C16.624,17.569 27.595,21.537 38.138,26.475C46.805,30.694 53.007,38.715 54.91,48.164C54.97,74.574 40.031,98.729 16.376,110.472Z" style="fill:rgb(255,255,0);fill-rule:nonzero;stroke:rgb(204,204,204);stroke-width:3px;"/>
        </g>
        <path id="Graphic_15" d="M116.155,17.194C99.728,50.037 109.652,89.951 139.548,111.277" style="fill:none;stroke:rgb(204,204,204);stroke-width:1px;"/>
        <path id="Graphic_14" d="M110.505,19.249C94.329,52.201 105.066,92.717 135.44,113.332" style="fill:none;stroke:rgb(204,204,204);stroke-width:1px;"/>
        <path id="Graphic_13" d="M105.363,20.791C89.72,51.541 97.634,88.974 124.385,110.76" style="fill:none;stroke:rgb(204,204,204);stroke-width:1px;"/>
        <path id="Graphic_12" d="M99.19,22.077C86.727,49.404 90.913,80.07 110.244,103.056" style="fill:none;stroke:rgb(204,204,204);stroke-width:1px;"/>
        <path id="Graphic_11" d="M92.508,23.876C84.744,42.372 84.567,61.798 91.994,80.432" style="fill:rgb(255,255,0);fill-rule:nonzero;stroke:rgb(204,204,204);stroke-width:1px;"/>
        <path id="Graphic_10" d="M46.238,25.933C56.676,32.272 62.415,44.152 60.892,56.269" style="fill:rgb(255,255,0);fill-rule:nonzero;stroke:rgb(204,204,204);stroke-width:1px;"/>
        <path id="Graphic_9" d="M53.95,26.19C61.241,32.421 65.056,40.76 65.003,50.352" style="fill:rgb(255,255,0);fill-rule:nonzero;stroke:rgb(204,204,204);stroke-width:1px;"/>
        <path id="Graphic_8" d="M148.463,115.049C149.818,161.242 135.446,206.474 107.675,243.412" style="fill:rgb(255,255,0);fill-rule:nonzero;stroke:rgb(204,204,204);stroke-width:1px;"/>
        <path id="Graphic_7" d="M143.922,116.675C142.915,165.006 126.157,212.016 96.367,250.087" style="fill:rgb(255,255,0);fill-rule:nonzero;stroke:rgb(204,204,204);stroke-width:1px;"/>
        <path id="Graphic_6" d="M138.523,118.478C137.27,162.776 122.849,205.772 97.137,241.867" style="fill:rgb(255,255,0);fill-rule:nonzero;stroke:rgb(204,204,204);stroke-width:1px;"/>
        <path id="Graphic_5" d="M132.611,120.017C131.852,160.024 119.921,199.023 98.165,232.607" style="fill:rgb(255,255,0);fill-rule:nonzero;stroke:rgb(204,204,204);stroke-width:1px;"/>
        <path id="Graphic_4" d="M127.469,121.048C125.642,157.011 115.43,192.05 97.649,223.363" style="fill:rgb(255,255,0);fill-rule:nonzero;stroke:rgb(204,204,204);stroke-width:1px;"/>
    </g>
</svg>
