<?xml version="1.0" encoding="utf-8"?>
<svg xmlns:dc="http://purl.org/dc/elements/1.1/" xmlns:xl="http://www.w3.org/1999/xlink"
     xmlns="http://www.w3.org/2000/svg"
     xmlns:xlink="http://www.w3.org/1999/xlink"
     version="1.1"
     viewBox="73.34135 63 79.18269 351.00004"
     width="79.18269"
     height="351.00004"
     preserveAspectRatio="xMidYMid meet"
     zoomAndPan="magnify"
     contentScriptType="application/ecmascript"
     contentStyleType="text/css">
   <defs/>
   <metadata  xmlns:svg="http://www.w3.org/2000/svg"
             xmlns:rdf="http://www.w3.org/1999/02/22-rdf-syntax-ns#"
             xmlns:cc="http://creativecommons.org/ns#">
      <rdf:RDF>
         <cc:Work rdf:about="">
            <dc:creator>
               <cc:Agent>
                  <dc:title>http://heraldicart.org Mash Rake.svg</dc:title>
               </cc:Agent>
            </dc:creator>
         </cc:Work>
      </rdf:RDF>
   </metadata>
   <g stroke="#505050" fill="#ffff00" stroke-opacity="1" stroke-dasharray="none"
      fill-opacity="1">
      <title>Mash Rake</title>
      <g>
         <title>Layer 2</title>
         <g>
            <g>
               <path d="M 86.19194 399.2623 C 85.70198 398.91006 85.17831 399.4913 84.79964 401.006 C 84.18517 403.46384 84.18517 407.4488 84.79964 409.90663 C 85.17831 411.42134 85.70198 412.00257 86.19194 411.65033 L 86.19194 411.75 L 139.6884 411.75 L 139.6884 411.65033 C 140.17836 412.00257 140.70203 411.42134 141.0807 409.90663 C 141.69517 407.4488 141.69517 403.46384 141.0807 401.006 C 140.70203 399.4913 140.17836 398.91006 139.6884 399.2623 L 139.6884 399.1626 L 86.19194 399.1626 Z"/>
               <path d="M 86.19194 399.2623 C 85.70198 398.91006 85.17831 399.4913 84.79964 401.006 C 84.18517 403.46384 84.18517 407.4488 84.79964 409.90663 C 85.17831 411.42134 85.70198 412.00257 86.19194 411.65033 L 86.19194 411.75 L 139.6884 411.75 L 139.6884 411.65033 C 140.17836 412.00257 140.70203 411.42134 141.0807 409.90663 C 141.69517 407.4488 141.69517 403.46384 141.0807 401.006 C 140.70203 399.4913 140.17836 398.91006 139.6884 399.2623 L 139.6884 399.1626 L 86.19194 399.1626 Z"
                     stroke="black"
                     stroke-linecap="round"
                     stroke-linejoin="round"
                     stroke-width="1"/>
            </g>
            <g>
               <rect x="83.04508" y="171.01592" width="59.79017" height="6.293702"/>
               <rect x="83.04508" y="171.01592" width="59.79017" height="6.293702" stroke="black"
                     stroke-linecap="round"
                     stroke-linejoin="round"
                     stroke-width="1"/>
            </g>
            <g>
               <rect x="86.19193" y="140.59636" width="53.49647" height="6.293702"/>
               <rect x="86.19193" y="140.59636" width="53.49647" height="6.293702" stroke="black"
                     stroke-linecap="round"
                     stroke-linejoin="round"
                     stroke-width="1"/>
            </g>
            <g>
               <rect x="89.33879" y="110.1768" width="47.202765" height="6.293702"/>
               <rect x="89.33879" y="110.1768" width="47.202765" height="6.293702" stroke="black"
                     stroke-linecap="round"
                     stroke-linejoin="round"
                     stroke-width="1"/>
            </g>
            <g>
               <rect x="92.48564" y="79.75725" width="40.909063" height="6.293702"/>
               <rect x="92.48564" y="79.75725" width="40.909063" height="6.293702" stroke="black"
                     stroke-linecap="round"
                     stroke-linejoin="round"
                     stroke-width="1"/>
            </g>
            <g>
               <path d="M 85.2855 66.99652 L 85.25656 66.99399 L 74.54562 189.42058 L 83.95025 190.24338 L 94.66119 67.816786 L 94.63225 67.81425 C 94.82468 67.36996 94.41685 66.85492 93.39626 66.41204 C 91.61353 65.63842 88.63619 65.377936 86.7462 65.83023 C 85.66421 66.08916 85.17314 66.52556 85.2855 66.99652 Z"/>
               <path d="M 85.2855 66.99652 L 85.25656 66.99399 L 74.54562 189.42058 L 83.95025 190.24338 L 94.66119 67.816786 L 94.63225 67.81425 C 94.82468 67.36996 94.41685 66.85492 93.39626 66.41204 C 91.61353 65.63842 88.63619 65.377936 86.7462 65.83023 C 85.66421 66.08916 85.17314 66.52556 85.2855 66.99652 Z"
                     stroke="black"
                     stroke-linecap="round"
                     stroke-linejoin="round"
                     stroke-width="1"/>
            </g>
            <g>
               <path d="M 76.02 188.43122 C 74.13 188.88351 74.04305 189.8773 75.8258 190.65093 C 77.60854 191.42455 80.58588 191.68503 82.47587 191.23273 C 84.36587 190.78044 84.45282 189.78664 82.67007 189.01303 C 80.88733 188.2394 77.90999 187.97892 76.02 188.43122"/>
               <path d="M 76.02 188.43122 C 74.13 188.88351 74.04305 189.8773 75.8258 190.65093 C 77.60854 191.42455 80.58588 191.68503 82.47587 191.23273 C 84.36587 190.78044 84.45282 189.78664 82.67007 189.01303 C 80.88733 188.2394 77.90999 187.97892 76.02 188.43122"
                     stroke="black"
                     stroke-linecap="round"
                     stroke-linejoin="round"
                     stroke-width="1"/>
            </g>
            <g>
               <path d="M 131.24789 67.81188 L 131.21895 67.814415 L 141.91533 190.0746 L 151.31995 189.2518 L 140.62358 66.99162 L 140.59464 66.99415 C 140.70705 66.52381 140.21604 66.08806 139.13409 65.82961 C 137.24417 65.378144 134.26683 65.63863 132.48402 66.41141 C 131.46339 66.85382 131.0555 67.36821 131.24789 67.81188 Z"/>
               <path d="M 131.24789 67.81188 L 131.21895 67.814415 L 141.91533 190.0746 L 151.31995 189.2518 L 140.62358 66.99162 L 140.59464 66.99415 C 140.70705 66.52381 140.21604 66.08806 139.13409 65.82961 C 137.24417 65.378144 134.26683 65.63863 132.48402 66.41141 C 131.46339 66.85382 131.0555 67.36821 131.24789 67.81188 Z"
                     stroke="black"
                     stroke-linecap="round"
                     stroke-linejoin="round"
                     stroke-width="1"/>
            </g>
            <g>
               <path d="M 143.19564 188.84575 C 141.41282 189.61853 141.49964 190.61098 143.38957 191.06244 C 145.2795 191.5139 148.25683 191.25342 150.03964 190.48063 C 151.82246 189.70785 151.73564 188.7154 149.8457 188.26394 C 147.95579 187.81248 144.97845 188.07296 143.19564 188.84575"/>
               <path d="M 143.19564 188.84575 C 141.41282 189.61853 141.49964 190.61098 143.38957 191.06244 C 145.2795 191.5139 148.25683 191.25342 150.03964 190.48063 C 151.82246 189.70785 151.73564 188.7154 149.8457 188.26394 C 147.95579 187.81248 144.97845 188.07296 143.19564 188.84575"
                     stroke="black"
                     stroke-linecap="round"
                     stroke-linejoin="round"
                     stroke-width="1"/>
            </g>
            <g>
               <path d="M 108.23992 399.1626 C 108.11562 399.61283 108.5698 400.07748 109.60243 400.42216 C 111.44582 401.03746 114.43453 401.03746 116.2779 400.42216 C 117.31055 400.07748 117.76472 399.61283 117.64042 399.1626 L 117.66044 399.1626 L 117.66045 67.16984 L 117.6314 67.16984 C 117.78437 66.71109 117.33321 66.234204 116.2779 65.88244 C 114.43453 65.267974 111.44582 65.267974 109.60243 65.88244 C 108.54713 66.234204 108.09597 66.71109 108.24894 67.16984 L 108.24894 67.16984 L 108.2199 67.16984 L 108.21989 399.1626 Z"/>
               <path d="M 108.23992 399.1626 C 108.11562 399.61283 108.5698 400.07748 109.60243 400.42216 C 111.44582 401.03746 114.43453 401.03746 116.2779 400.42216 C 117.31055 400.07748 117.76472 399.61283 117.64042 399.1626 L 117.66044 399.1626 L 117.66045 67.16984 L 117.6314 67.16984 C 117.78437 66.71109 117.33321 66.234204 116.2779 65.88244 C 114.43453 65.267974 111.44582 65.267974 109.60243 65.88244 C 108.54713 66.234204 108.09597 66.71109 108.24894 67.16984 L 108.24894 67.16984 L 108.2199 67.16984 L 108.21989 399.1626 Z"
                     stroke="black"
                     stroke-linecap="round"
                     stroke-linejoin="round"
                     stroke-width="1"/>
            </g>
         </g>
      </g>
   </g>
</svg>