<?xml version="1.0" encoding="UTF-8" standalone="no"?>
<!DOCTYPE svg PUBLIC "-//W3C//DTD SVG 1.1//EN" "http://www.w3.org/Graphics/SVG/1.1/DTD/svg11.dtd">
<svg xmlns:dc="http://purl.org/dc/elements/1.1/" xmlns:xl="http://www.w3.org/1999/xlink" version="1.1" xmlns="http://www.w3.org/2000/svg" viewBox="76.5 63 72 351" width="72" height="351">

  <metadata> Produced by OmniGraffle 7.7.1 
    <dc:date>2018-03-18 08:21:30 +0000</dc:date><dc:title>Traceable heraldic art http://heraldicart.org/credits.html</dc:title>
  </metadata>
  <g id="Meat,_Spit_of" fill-opacity="1" stroke-dasharray="none" stroke="none" stroke-opacity="1" fill="#ffff00">
    <title>Meat, Spit of</title>
    <g id="Meat,_Spit_of: Layer 2" >
      <title>Layer 2</title>
      <g id="Group_3">
        <g id="Graphic_12">
          <path d="M 119.71738 218.81008 C 119.69968 218.8903 119.68435 218.95243 119.67145 218.99595 C 118.68999 222.30685 114.64345 223.61587 112.29336 220.32274 C 112.28109 220.30554 112.26869 220.28785 112.25618 220.26968 L 111.61793 346.93105 L 79.89979 350.3873 L 87.99981 407.92876 C 87.99981 407.92876 88.91241 409.8662 91.96007 409.18197 C 95.00774 408.49773 95.01026 406.2935 95.01026 406.2935 L 91.11894 357.92186 L 121.79334 354.21627 Z" fill="#ff0000"/>
          <path d="M 119.71738 218.81008 C 119.69968 218.8903 119.68435 218.95243 119.67145 218.99595 C 118.68999 222.30685 114.64345 223.61587 112.29336 220.32274 C 112.28109 220.30554 112.26869 220.28785 112.25618 220.26968 L 111.61793 346.93105 L 79.89979 350.3873 L 87.99981 407.92876 C 87.99981 407.92876 88.91241 409.8662 91.96007 409.18197 C 95.00774 408.49773 95.01026 406.2935 95.01026 406.2935 L 91.11894 357.92186 L 121.79334 354.21627 Z" stroke="#cccccc" stroke-linecap="round" stroke-linejoin="round" stroke-width="2"/>
        </g>
        <g id="Graphic_11">
          <path d="M 120.91903 198.05844 L 120.91903 198.05844 C 112.30069 197.73424 108.07905 199.86504 108.07905 199.86504 C 108.07905 199.86504 103.68206 200.35814 98.60679 200.87493 C 93.53151 201.39171 92.06083 207.8946 92.06083 207.8946 C 92.06083 207.8946 85.74742 211.85018 83.94944 218.70405 C 82.15145 225.55793 85.40506 231.21674 85.40506 231.21674 C 85.40506 231.21674 82.39262 242.18768 84.73539 250.9343 C 87.07815 259.6809 91.2189 261.57362 91.2189 261.57362 C 91.2189 261.57362 88.85676 261.99566 95.9475 270.57647 C 103.03824 279.15727 106.40201 280.01256 115.29468 280.0875 C 124.18736 280.1624 131.25599 273.22772 138.91181 266.02013 C 146.56763 258.81254 142.24723 244.85127 142.24723 244.85127 C 142.24723 244.85127 146.45473 238.93192 146.54517 231.79812 C 146.6356 224.6643 140.50308 214.35227 140.50308 214.35227 C 140.50308 214.35227 141.01556 209.58062 138.53498 206.61125 C 136.0544 203.64188 133.01398 204.0876 133.01398 204.0876 C 133.01398 204.0876 129.53737 198.38263 120.91903 198.05844 Z" fill="#ff0000"/>
          <path d="M 120.91903 198.05844 L 120.91903 198.05844 C 112.30069 197.73424 108.07905 199.86504 108.07905 199.86504 C 108.07905 199.86504 103.68206 200.35814 98.60679 200.87493 C 93.53151 201.39171 92.06083 207.8946 92.06083 207.8946 C 92.06083 207.8946 85.74742 211.85018 83.94944 218.70405 C 82.15145 225.55793 85.40506 231.21674 85.40506 231.21674 C 85.40506 231.21674 82.39262 242.18768 84.73539 250.9343 C 87.07815 259.6809 91.2189 261.57362 91.2189 261.57362 C 91.2189 261.57362 88.85676 261.99566 95.9475 270.57647 C 103.03824 279.15727 106.40201 280.01256 115.29468 280.0875 C 124.18736 280.1624 131.25599 273.22772 138.91181 266.02013 C 146.56763 258.81254 142.24723 244.85127 142.24723 244.85127 C 142.24723 244.85127 146.45473 238.93192 146.54517 231.79812 C 146.6356 224.6643 140.50308 214.35227 140.50308 214.35227 C 140.50308 214.35227 141.01556 209.58062 138.53498 206.61125 C 136.0544 203.64188 133.01398 204.0876 133.01398 204.0876 C 133.01398 204.0876 129.53737 198.38263 120.91903 198.05844 Z" stroke="#cccccc" stroke-linecap="round" stroke-linejoin="round" stroke-width="2"/>
        </g>
        <g id="Line_10">
          <path d="M 141.58801 245.4207 C 141.58801 245.4207 138.20136 250.83613 133.56549 255.69664 C 128.92962 260.55716 125.22447 262.57715 125.22447 262.57715" stroke="#cccccc" stroke-linecap="round" stroke-linejoin="round" stroke-width="2"/>
        </g>
        <g id="Line_9">
          <path d="M 85.40043 231.08418 C 85.40043 231.08418 90.39288 236.43953 96.89184 240.151 C 103.39079 243.86244 108.3402 244.18475 108.3402 244.18475" stroke="#cccccc" stroke-linecap="round" stroke-linejoin="round" stroke-width="2"/>
        </g>
        <g id="Line_8">
          <path d="M 91.23016 261.50222 C 91.23016 261.50222 93.82487 264.241 100.11115 266.27383 C 106.39742 268.30667 113.41923 268.67768 113.41923 268.67768" stroke="#cccccc" stroke-linecap="round" stroke-linejoin="round" stroke-width="2"/>
        </g>
        <g id="Line_7">
          <path d="M 140.36873 214.09875 C 140.36873 214.09875 139.22268 217.3024 134.68674 222.2561 C 130.1508 227.2098 124.35793 231.58415 124.35793 231.58415" stroke="#cccccc" stroke-linecap="round" stroke-linejoin="round" stroke-width="2"/>
        </g>
        <g id="Line_6">
          <path d="M 92.40718 208.08935 C 92.40718 208.08935 95.58856 213.84467 100.21354 217.88055 C 104.83852 221.91642 108.73227 222.33502 108.73227 222.33502" stroke="#cccccc" stroke-linecap="round" stroke-linejoin="round" stroke-width="2"/>
        </g>
        <g id="Line_5">
          <path d="M 133.30026 204.04069 C 133.30026 204.04069 133.08167 205.73017 131.21389 208.0891 C 129.34612 210.44802 126.70745 212.36714 126.70745 212.36714" stroke="#cccccc" stroke-linecap="round" stroke-linejoin="round" stroke-width="2"/>
        </g>
        <g id="Graphic_4">
          <path d="M 118.78251 208.1244 L 116.73298 74.65411 L 114.1088 67.55003 L 112.00019 74.85625 L 111.3213 209.584 C 111.33382 209.60218 111.34621 209.61987 111.35848 209.63706 C 113.70858 212.9302 117.75511 211.62118 118.73657 208.31028 C 118.74947 208.26676 118.7648 208.20464 118.78251 208.1244 Z" fill="#ff0000"/>
          <path d="M 118.78251 208.1244 L 116.73298 74.65411 L 114.1088 67.55003 L 112.00019 74.85625 L 111.3213 209.584 C 111.33382 209.60218 111.34621 209.61987 111.35848 209.63706 C 113.70858 212.9302 117.75511 211.62118 118.73657 208.31028 C 118.74947 208.26676 118.7648 208.20464 118.78251 208.1244 Z" stroke="#cccccc" stroke-linecap="round" stroke-linejoin="round" stroke-width="2"/>
        </g>
      </g>
    </g>
  </g>
</svg>
