<?xml version="1.0" encoding="UTF-8" standalone="no"?>
<svg
   width="440"
   height="310"
   version="1.1"
   id="svg57"
   xmlns="http://www.w3.org/2000/svg"
   xmlns:svg="http://www.w3.org/2000/svg"
   xmlns:rdf="http://www.w3.org/1999/02/22-rdf-syntax-ns#"
   xmlns:cc="http://creativecommons.org/ns#"
   xmlns:dc="http://purl.org/dc/elements/1.1/">
  <defs
     id="defs61" />
  <metadata
     id="metadata2">
    <rdf:RDF>
      <cc:Work
         rdf:about="">
        <dc:format>image/svg+xml</dc:format>
        <dc:type
           rdf:resource="http://purl.org/dc/dcmitype/StillImage" />
        <cc:license
           rdf:resource="" />
        <dc:creator>
          <cc:Agent>
            <dc:title>by http://commons.wikimedia.org/wiki/User:Syryatsu</dc:title>
          </cc:Agent>
        </dc:creator>
      </cc:Work>
    </rdf:RDF>
  </metadata>
  <g
     style="fill:#ffff00;fill-opacity:1;fill-rule:evenodd;stroke:#000000;stroke-width:2;stroke-linecap:butt;stroke-linejoin:miter;stroke-miterlimit:4;stroke-opacity:1;stroke-dasharray:none"
     id="body">
    <path
       stroke-width="2.999"
       d="m 299,175 c 2,17 28,30 31,38 4,7 7,14 4,20 0,14 -6,27 -14,40 -2,3 -4,6 -6,10 -2,6 7,9 11,10 4,-6 11,-5 12,-5 1,-4 2,-8 2,-12 1,-7 0,-11 3,-16 3,-10 9,-19 12,-29 1,-7 7,-7 9,-13 3,-6 -1,-20 3,-26 5,-8 17,-8 23,-26"
       id="path4"
       style="stroke:#000000;stroke-width:2;stroke-dasharray:none" />
    <path
       stroke-width="2.999"
       d="m 96,104 c 0,9 -5,14 -15.5,20"
       id="path10"
       style="stroke:#000000;stroke-width:2;stroke-dasharray:none" />
    <path
       stroke-width="2.999"
       d="m 202,165 c -5,12 -6,24 -6,36 0,15 -4,26 -5,39 -1,12 -4,21 0,34 1,5 -9,3 -5,9 1,2 1,2 -2,5 -5,0 -11,2 -16,0 0,3 -4,2 -3,-1 8,-10 7,-18 7,-28 -1,-11 -5,-21 -5,-32 -1,-5 -4,-10 -5,-14 -9,-15 -7,-19 -13,-28 -1,-1 -1,-1 -2,-2"
       id="path12"
       style="stroke:#000000;stroke-width:2;stroke-dasharray:none" />
    <path
       stroke-width="2.999"
       d="m 47.4,112 c 4.3,14 0.6,22 8.5,29 8.6,9 22,-2 32.1,19 l 12,-65 z"
       id="path18"
       style="stroke:#000000;stroke-width:2;stroke-dasharray:none" />
    <g
       id="g1"
       style="fill:#0000ff">
      <path
         stroke-width="2.999"
         d="m 9.7,25 c 3.1,9 10.1,11 17.1,11 7.1,1 14.3,1 21.5,0 C 63.8,34 89,41 84,60 83,64 77.4,65 73.7,66 69.6,66 70.6,61 70,58 65.8,41 48.7,46 34.2,46 22.3,45 6.6,40 9.7,25 z"
         id="path20"
         style="fill:#0000ff;stroke-linejoin:round;stroke:#000000;stroke-width:2;stroke-dasharray:none" />
    </g>
    <path
       stroke-width="2.999"
       d="m 150,62 c 16,0 63,26 69,29 2,1 12,6 25,6 23,-1 57,-10 63,-11 22,-1 52,-7 71,4 27,21 53,15 53,-5 0,-5 -1,-11 -7,-17 -17,-17 -30,-20 -53,-22 -34,-4 -60,9 -89,19 -14,7 -27,7 -49,2 9,-6 16,-5 25,-4 -14,-3 0,0 -20,-5 8,-3 16,-9 23,-6 9,3 16,7 21,6 29,-9 47,-18 80,-18 27,1 48,5 68,25 4,6 7,12 8,19 0,12 -4,20 -14,25 -7,3 -20,4 -29,-1 9,14 14,32 13,41 2,19 -11,24 -12,33 -1,7 8,18 8,26 1,5 -5,8 -4,14 1,10 -1,20 0,30 0,6 2,12 3,18 2,4 3,9 3,12 -1,1 -8,2 -8,9 -5,0 -14,2 -14,-5 0,-4 1,-8 2,-12 1,-14 2,-28 -3,-43 0,-6 -6,-11 -11,-15 -7,-7 -21,-8 -26,-17 -2,-4 -6,-10 -8,-12 -21,2 -43,7 -45,7 -54,21 -38,6 -105,19 -29,6 -64,7 -86,-17 -6,-2 -20.3,-42 -21,-64 -10.6,5 -6,-7 -13.2,-5 -5.3,0 -10.8,0 -16.2,0 -6,-1 -7.6,4 -13.3,4 -5.5,1 -10.5,2 -15.1,1 -4.9,-1 -9.2,-5 -12.4,-10 -3,-4 3,-10 5.5,-15 L 25.4,89 C 29,82 28.3,75 30.2,66 33,54 43.3,52 46.4,49 50,44 53.5,41 58.5,38 c 9.7,-7 21.6,-7 31.5,0 22,-1 42,3 60,24 z"
       id="path22"
       style="fill:#ffff00;stroke-linejoin:round;stroke:#000000;stroke-width:2;stroke-dasharray:none" />
    <path
       stroke-width="2.999"
       d="m 189,175 c -7,9 -12,21 -14,33 -5,14 -11,23 -16,36 -3,11 -4,21 -4,33 0,5 -8,2 -6,7 0,4 0,3 -4,5 -5,-1 -11,0 -15,-4 -1,3 -5,2 -3,-1 11,-8 11,-16 14,-25 2,-12 -7,-23 -3,-34 0,-5 -1,-10 -1,-15 -6,-16 -3,-20 -7,-30 0,-1 0,-1 0,-3"
       id="path24"
       style="fill:#ffff00;stroke-linejoin:round;stroke:#000000;stroke-width:2;stroke-dasharray:none" />
    <path
       stroke-width="2.999"
       d="m 309,156 c 1,0 1,1 2,2 14,8 22,19 27,29"
       id="path30"
       style="stroke:#000000;stroke-width:2;stroke-dasharray:none" />
    <g
       id="armed-1"
       style="fill:#0000ff">
      <path
         stroke-width="2.999"
         d="m 25,6 c 1.7,9 8.4,12 15.2,13 7,2 14.1,3 21.3,3 15.6,1 39.5,12 31.5,30 -1,4 -7,4 -11.2,4 -4.2,0 -2.2,-6 -2.4,-9 C 78,30 60.2,32 46,30 34.4,27 19.7,20 25,6 z"
         id="path32"
         style="fill:#0000ff;stroke-linejoin:round;stroke:#000000;stroke-width:2;stroke-dasharray:none" />
    </g>
    <path
       fill="none"
       stroke-width="2.999"
       d="m 113,127 c -7,29 2,48 12,65"
       id="path34"
       style="fill:#ffff00;stroke-linejoin:round;stroke:#000000;stroke-width:2;stroke-dasharray:none" />
    <path
       fill="none"
       stroke-width="2.999"
       d="m 86,72 c 1,7 -1,16 -6,27"
       id="path36"
       style="fill:#ffff00;stroke-linejoin:round;stroke:#000000;stroke-width:2;stroke-dasharray:none" />
    <path
       stroke-width="2.999"
       d="M 39.7,80 C 42.3,77 42,77 44.1,77 52.6,75 57.9,88 65.3,76 64,73 56.6,69 51.5,72 50.2,74 49.9,77 46,77"
       id="path38"
       style="fill:#ffffff;stroke-linejoin:round;stroke:#000000;stroke-width:2;stroke-dasharray:none" />
    <path
       stroke-width="2.999"
       d="m 53,72 c 7.4,-1 11.5,0 16.3,-4"
       id="path40"
       style="fill:#ffff00;stroke-linejoin:round;stroke:#000000;stroke-width:2;stroke-dasharray:none" />
    <g
       id="eyes">
      <path
         stroke-width="2.999"
         d="m 54.1,75 c 0.8,-2 2.8,-4 4.6,-3 1.8,1 2.8,3 2,5 -0.8,2 -2.8,3 -4.6,3 -1.8,-1 -2.8,-3 -2,-5 z"
         id="path42"
         style="fill:#ff0000;stroke-linejoin:round;stroke:#000000;stroke-width:2;stroke-dasharray:none" />
    </g>
    <path
       stroke-width="2.999"
       d="m 75.5,58 c 0.8,-2 3.1,-3 7.5,-5 5,-3 13,0 20,-2 8,-2 14,-7 20,-11 -1,7 -12,36 -35,25 -3,-1 -7.9,5 -11.5,2"
       id="path44"
       style="fill:#ffff00;stroke-linejoin:round;stroke:#000000;stroke-width:2;stroke-dasharray:none" />
    <path
       stroke-width="2.999"
       d="m 28.3,111 c -2.8,6 -14.7,9 0.3,11 0.7,1 4.2,-4 3.6,-4"
       id="path46"
       style="fill:#ffff00;stroke-linejoin:round;stroke:#000000;stroke-width:2;stroke-dasharray:none" />
    <path
       fill="none"
       stroke-width="2.999"
       d="m 33.5,132 c 2.5,-1 4.8,0 7,-2 6.9,-3 12.7,-9 18.7,-18"
       id="path48"
       style="fill:#ffff00;stroke-linejoin:round;stroke:#000000;stroke-width:2;stroke-dasharray:none" />
    <g
       id="unguled">
      <path
         stroke-width="2.999"
         d="m 304,298 c 8,3 17,3 25,0 0,-3 8,-7 0,-10 0,-2 -8,-3 -8,-3 -8,4 -8,8 -17,13 z"
         id="path6"
         style="fill:#ff00ff;stroke-linejoin:round;stroke:#000000;stroke-width:2;stroke-dasharray:none" />
      <path
         stroke-width="2.999"
         d="m 312,301 c 9,4 17,3 17,-1 8,-4 8,-9 8,-13 -8,-1 -16,-2 -16,-2 0,6 -8,11 -9,16 z"
         id="path8"
         style="fill:#ff00ff;stroke-linejoin:round;stroke:#000000;stroke-width:2;stroke-dasharray:none" />
      <path
         stroke-width="2.999"
         d="m 159,292 c 9,2 17,1 25,-4 -1,-2 7,-8 -2,-10 0,-1 -8,-2 -8,-2 -8,6 -7,10 -15,16 z"
         id="path14"
         style="fill:#ff00ff;stroke:#000000;stroke-width:2;stroke-linejoin:round;stroke-dasharray:none" />
      <path
         stroke-width="2.999"
         d="m 168,294 c 9,3 17,0 16,-4 8,-5 7,-10 6,-14 -8,1 -16,0 -16,1 1,6 -7,12 -6,17 z"
         id="path16"
         style="fill:#ff00ff;stroke:#000000;stroke-width:2;stroke-linejoin:round;stroke-dasharray:none" />
      <path
         stroke-width="2.999"
         d="m 113,297 c 9,4 17,4 25,0 0,-2 9,-6 0,-9 0,-2 -8,-4 -8,-4 -8,4 -8,8 -17,13 z"
         id="path26"
         style="fill:#ff00ff;stroke:#000000;stroke-width:2;stroke-linejoin:round;stroke-dasharray:none" />
      <path
         stroke-width="2.999"
         d="m 122,301 c 8,4 16,2 16,-2 9,-3 9,-8 9,-12 -9,-1 -17,-3 -17,-2 0,6 -8,11 -8,16 z"
         id="path28"
         style="fill:#ff00ff;stroke:#000000;stroke-width:2;stroke-linejoin:round;stroke-dasharray:none" />
      <path
         stroke-width="2.999"
         d="m 369.6387,294.36511 c 9,4 17,4 25,0 0,-2 9,-6 0,-9 0,-2 -8,-4 -8,-4 -8,4 -8,8 -17,13 z"
         id="path50"
         style="fill:#ff00ff;stroke:#000000;stroke-width:2;stroke-linejoin:round;stroke-dasharray:none" />
      <path
         stroke-width="2.999"
         d="m 380.8791,298.01005 c 8,4 16,2 16,-2 9,-3 9,-8 9,-12 -9,-1 -17,-3 -17,-2 0,6 -8,11 -8,16 z"
         id="path52"
         style="fill:#ff00ff;stroke:#000000;stroke-width:2;stroke-linejoin:round;stroke-dasharray:none" />
    </g>
    <path
       fill="none"
       stroke-width="2.999"
       d="M 80.5,67 C 82,54 104,61 121,43"
       id="path54"
       style="fill:#ffff00;stroke-linejoin:round;stroke:#000000;stroke-width:2;stroke-dasharray:none" />
  </g>
</svg>
