<?xml version="1.0" encoding="UTF-8" standalone="no"?>
<svg
   version="1.1"
   viewBox="0 0 266.42 238.81142"
   width="266.42001"
   height="238.81143"
   preserveAspectRatio="xMidYMid"
   zoomAndPan="magnify"
   contentScriptType="application/ecmascript"
   contentStyleType="text/css"
   id="svg255"
   xmlns:svg="http://www.w3.org/2000/svg"
   xmlns:rdf="http://www.w3.org/1999/02/22-rdf-syntax-ns#"
   xmlns:cc="http://creativecommons.org/ns#"
   xmlns:dc="http://purl.org/dc/elements/1.1/">
  <defs
     id="defs2" />
  <metadata>
    <rdf:RDF>
      <cc:Work
         rdf:about="">
        <dc:creator>
          <cc:Agent>
            <dc:title>http://heraldicart.org Bull Statant (1).svg</dc:title>
          </cc:Agent>
        </dc:creator>
      </cc:Work>
    </rdf:RDF>
  </metadata>
  <g
     stroke-opacity="1"
     stroke-dasharray="none"
     stroke="#505050"
     fill="#ffff00"
     fill-opacity="1"
     id="g253"
     style="stroke:#000000;stroke-width:0.3"
     transform="translate(-38.8615,-78.322)">
    <title
       id="title4">Bull Statant (1)</title>
    <g
       id="g251">
      <title
         id="title6">Layer 2</title>
      <g
         id="g249">
        <g
           id="g11"
           transform="translate(-1.4925,1.791)">
          <g
             id="outline-0">
            <path
               d="m 267.04,77.907 c 0,0.606 -0.22,1.516 -0.48,2.036 -0.82,1.646 -4.42,5.111 -6.02,5.76 -2.86,1.257 -5.2,2.556 -5.2,2.859 0,0.217 -0.3,0.347 -0.65,0.347 -0.47,0 -0.65,-0.477 -0.65,-1.69 0,-0.909 -0.3,-2.252 -0.65,-2.902 -0.34,-0.693 -0.65,-1.689 -0.65,-2.252 0,-1.17 -1.43,-2.686 -2.55,-2.686 -1.09,0 -2.21,1.127 -2.21,2.253 0,0.953 -3.38,4.678 -4.29,4.678 -0.61,0 -3.55,1.646 -3.94,2.209 -0.13,0.173 -1.17,0.433 -2.38,0.606 -1.17,0.174 -2.47,0.563 -2.82,0.867 -0.35,0.26 -1.82,0.779 -3.25,1.082 -6.67,1.43 -10.91,3.726 -13.38,7.321 -0.65,0.909 -1.65,2.125 -2.21,2.645 -1,0.91 -1.04,1.21 -0.82,4.29 0.3,4.93 1.12,10.17 1.56,10.48 0.21,0.13 0.43,0.56 0.51,0.91 0.31,2.12 11.35,13.86 14.39,15.29 0.78,0.34 1.55,0.86 1.68,1.08 0.31,0.48 2.78,1.73 3.51,1.73 0.31,0 1.43,0.7 2.52,1.52 1.08,0.82 2.51,1.6 3.16,1.77 0.69,0.18 1.9,0.65 2.73,1.04 1.82,0.91 4.89,2 6.8,2.39 0.73,0.13 1.6,0.56 1.9,0.91 0.26,0.34 1.35,0.82 2.38,1.08 1.04,0.26 1.91,0.61 1.91,0.78 0,0.65 6.67,2.9 9.75,3.29 2.03,0.26 6.75,2.21 7.06,2.9 0.1,0.22 0.34,0.35 0.56,0.35 0.22,0 1.34,0.56 2.47,1.3 1.17,0.69 2.42,1.3 2.81,1.3 0.39,0 0.87,0.26 1.04,0.56 0.18,0.26 0.91,0.82 1.61,1.17 1.95,1 7.58,6.19 9.01,8.27 1.17,1.74 1.25,2.17 1.12,4.64 -0.13,2.38 -0.34,2.9 -1.56,4.11 l -1.38,1.39 h -4.9 c -4.24,0 -5.11,-0.17 -7.06,-1.08 -1.21,-0.61 -2.38,-1.48 -2.6,-1.95 -0.21,-0.48 -0.78,-0.91 -1.25,-1 -0.48,-0.1 -1.61,-0.74 -2.47,-1.43 -0.87,-0.69 -1.73,-1.25 -1.91,-1.25 -0.17,0 -1.25,-0.78 -2.38,-1.74 -1.13,-0.95 -2.21,-1.73 -2.34,-1.73 -0.17,0 -0.61,-0.39 -1,-0.87 -1.42,-1.73 -11.99,-7.79 -13.55,-7.79 -0.26,0 -1.04,-0.35 -1.82,-0.74 -0.78,-0.39 -1.47,-0.78 -1.6,-0.78 -0.13,0 -0.52,-0.17 -0.87,-0.35 -0.35,-0.13 -1.43,-0.34 -2.38,-0.47 -3.99,-0.61 -11.74,-2.12 -12.56,-2.47 -0.74,-0.3 -8.97,-1.86 -13,-2.43 -0.69,-0.1 -1.69,-0.34 -2.16,-0.56 -0.48,-0.22 -3.38,-0.78 -6.5,-1.3 -3.08,-0.52 -5.94,-1.04 -6.28,-1.17 -0.35,-0.17 -1.17,-0.3 -1.82,-0.34 -0.61,0 -1.39,-0.26 -1.73,-0.52 -0.31,-0.26 -2.43,-0.83 -4.68,-1.22 -2.26,-0.43 -4.51,-0.91 -4.98,-1.08 -0.48,-0.17 -3.77,-0.87 -7.37,-1.56 -3.55,-0.65 -6.71,-1.34 -7.01,-1.56 -0.26,-0.22 -2.04,-0.52 -3.9,-0.61 -1.87,-0.13 -3.77,-0.39 -4.25,-0.6 -0.86,-0.39 -2.9,-0.65 -9.09,-1.13 -1.65,-0.13 -3.25,-0.43 -3.51,-0.65 -0.26,-0.21 -1.73,-0.47 -3.25,-0.6 -1.52,-0.1 -3.9,-0.44 -5.24,-0.83 -1.34,-0.34 -3.38,-0.73 -4.55,-0.91 -1.13,-0.13 -2.47,-0.43 -2.95,-0.65 -2.38,-0.99 -7.53,-1.3 -14.85,-0.86 -6.28,0.39 -8.06,0.34 -11,-0.22 -4.47,-0.82 -11.27,-0.82 -14.515,0 -1.343,0.35 -3.335,0.65 -4.331,0.65 -1.04,0 -1.863,0.17 -1.863,0.43 0,0.26 -1.343,0.44 -3.205,0.44 -1.776,0 -3.379,-0.22 -3.509,-0.44 -0.346,-0.56 -3.985,-0.56 -4.331,0 -0.13,0.22 -0.78,0.44 -1.43,0.44 -1.472,0 -3.725,0.82 -5.847,2.03 -0.91,0.57 -1.949,1 -2.296,1 -0.346,0 -1.689,-1.04 -2.945,-2.3 -3.855,-3.68 -3.769,-6.8 0.216,-11.26 2.426,-2.77 2.556,-3.77 0.347,-3.77 -2.426,0 -4.635,0.96 -6.411,2.78 -5.717,5.89 -6.064,6.41 -6.584,9 -0.26,1.39 -0.649,2.52 -0.866,2.52 -1.429,0 -2.166,-5.24 -1.473,-10.53 l 0.304,-2.47 h -1.3 c -0.693,0 -1.516,0.31 -1.819,0.65 -0.303,0.35 -1.3,0.87 -2.252,1.17 -1.733,0.52 -2.946,1.73 -2.946,2.95 0,0.34 -0.303,1.21 -0.65,1.86 -1.342,2.56 -1.732,6.06 -1.126,10.31 0.26,2.21 0.737,4.29 0.953,4.59 0.26,0.26 0.347,0.74 0.217,0.95 -0.174,0.22 -0.09,0.52 0.173,0.7 0.217,0.13 0.606,0.99 0.866,1.9 0.563,2.21 1.906,3.81 3.812,4.72 1.906,0.87 2.209,2 0.953,3.34 -0.65,0.69 -0.823,1.3 -0.65,2.03 0.173,0.61 0.09,2.65 -0.216,4.51 -0.304,2.25 -0.304,3.46 -0.04,3.55 0.26,0.1 0.347,0.95 0.174,2.08 -0.217,1.73 -0.174,1.99 0.693,2.21 0.736,0.17 0.823,0.35 0.433,0.82 -0.26,0.35 -0.347,0.61 -0.174,0.61 0.174,0 0.09,0.3 -0.216,0.65 -0.303,0.39 -0.693,1.38 -0.91,2.29 -0.433,2.17 -1.299,4.34 -2.382,6.15 -0.52,0.83 -1.17,2.3 -1.473,3.25 -0.303,0.96 -1.429,2.99 -2.555,4.55 -1.127,1.56 -2.296,3.47 -2.599,4.2 -0.303,0.78 -0.737,1.43 -0.953,1.43 -0.217,0 -0.39,0.78 -0.39,1.73 0,0.96 0.173,1.74 0.347,1.74 0.173,0 0.519,0.6 0.736,1.34 0.26,0.69 1.689,3.03 3.248,5.11 l 2.816,3.81 h 4.895 4.894 l 2.253,-1.56 c 2.598,-1.78 4.591,-3.6 4.634,-4.2 0,-0.83 4.202,-3.95 5.804,-4.38 0.607,-0.13 1.257,-0.43 1.386,-0.65 0.347,-0.61 3.119,-0.48 7.147,0.3 2.556,0.48 4.982,0.61 8.014,0.48 l 4.418,-0.22 1.213,1.3 c 0.693,0.7 1.905,1.56 2.642,1.87 1.039,0.43 1.429,0.91 1.429,1.6 0,0.56 0.303,1.38 0.65,1.82 0.346,0.47 0.65,1.3 0.65,1.86 0,0.56 0.173,1 0.346,1 0.217,0 0.607,0.95 0.91,2.12 0.303,1.21 0.823,2.38 1.168,2.68 0.35,0.26 0.61,0.74 0.61,1 0,0.26 1.25,1.78 2.81,3.29 1.82,1.82 2.82,3.12 2.82,3.77 0,0.56 -0.17,1 -0.43,1 -0.26,0 -0.44,1.43 -0.48,3.33 0,1.86 -0.17,4.33 -0.39,5.55 -0.22,1.17 -0.74,4.59 -1.08,7.53 -0.39,2.99 -0.87,5.63 -1.04,5.85 -0.22,0.26 -0.52,1.26 -0.7,2.21 -0.39,2.25 -1.43,5.72 -2.16,7.36 -0.305,0.7 -0.695,2.39 -0.825,3.69 -0.13,1.29 -0.52,2.59 -0.823,2.81 -0.563,0.39 -2.469,4.12 -2.469,4.77 0,0.39 -1.169,3.07 -2.209,5.02 -0.433,0.87 -0.823,1.86 -0.823,2.25 0,0.35 -0.303,0.87 -0.65,1.17 -0.346,0.31 -0.649,0.82 -0.649,1.21 0,0.39 -0.347,1.09 -0.78,1.56 -0.433,0.52 -1.17,2.17 -1.603,3.73 -0.433,1.56 -1.169,3.2 -1.602,3.72 -0.434,0.48 -0.78,1.22 -0.78,1.61 0,0.39 -0.173,0.73 -0.39,0.73 -0.216,0 -0.52,0.35 -0.65,0.78 -0.13,0.39 -0.693,0.96 -1.212,1.17 -1.386,0.61 -3.855,4.51 -3.726,5.85 0.09,0.87 0.39,1.13 1.517,1.21 1.299,0.13 1.342,0.18 1.299,2.13 -0.09,1.86 0,2.03 1.213,2.38 0.736,0.26 4.028,0.47 7.363,0.47 5.501,0.1 6.238,0 8.059,-0.91 1.08,-0.52 2.16,-0.95 2.42,-0.95 0.44,0 1.17,-1.56 1.04,-2.34 0,-0.17 0.1,-0.56 0.31,-0.86 0.21,-0.26 0.56,-1.65 0.73,-3.08 0.57,-4.68 1.95,-6.15 5.29,-5.63 2.64,0.39 3.16,-0.35 3.07,-4.25 0,-1.64 -0.26,-3.07 -0.43,-3.16 -0.48,-0.3 -0.43,-9.96 0,-10.91 0.22,-0.39 0.74,-2.6 1.13,-4.85 1.08,-6.2 1.6,-8.36 2.21,-9.32 0.26,-0.47 0.65,-1.51 0.82,-2.25 0.17,-0.82 0.56,-1.43 0.91,-1.43 0.35,0 0.61,-0.43 0.61,-0.99 0,-0.57 0.17,-1.17 0.39,-1.43 0.21,-0.22 0.73,-1.52 1.17,-2.95 0.39,-1.39 1.3,-3.16 1.99,-3.9 0.65,-0.73 1.21,-1.6 1.21,-1.9 0,-0.31 0.35,-0.52 0.74,-0.44 0.52,0.1 0.86,0.74 1.08,1.87 1.3,6.75 1.34,7.4 0.82,14.94 -0.56,8.14 -1.25,14.21 -1.69,14.9 -0.13,0.26 -0.21,1.17 -0.13,2.04 0,0.86 -0.1,1.94 -0.3,2.42 -0.26,0.43 -0.69,1.95 -0.95,3.38 -0.3,1.43 -0.82,3.29 -1.17,4.11 -0.39,0.83 -0.74,1.87 -0.78,2.3 -0.13,1.3 -1.78,3.12 -2.95,3.25 -0.91,0.13 -1.25,0.56 -1.86,2.29 -0.43,1.22 -1.43,2.95 -2.21,3.86 -0.78,0.91 -1.43,1.86 -1.43,2.08 0,0.22 -0.3,0.52 -0.65,0.69 -0.99,0.35 -0.91,4.68 0.13,5.59 0.44,0.43 1.13,0.74 1.52,0.74 0.43,0 0.74,0.34 0.74,0.86 0,1.69 1.38,2.47 5.02,2.77 3.72,0.31 10.01,-0.6 11.74,-1.73 0.52,-0.34 1.3,-0.6 1.69,-0.6 1.34,0 1.86,-1.39 1.9,-4.9 0,-1.9 0.31,-4.33 0.7,-5.54 0.78,-2.3 0.86,-2.34 4.37,-2.13 1,0 2.43,0 3.16,-0.21 1.17,-0.26 1.3,-0.48 1.3,-1.91 0,-0.86 -0.3,-2.03 -0.69,-2.55 -1.26,-1.82 -2.69,-11.05 -2.73,-17.5 0,-2.08 -0.22,-3.9 -0.48,-4.03 -0.52,-0.35 -0.6,-12.65 -0.1,-12.95 0.21,-0.13 0.52,-2.21 0.65,-4.64 0.17,-2.42 0.47,-4.63 0.73,-4.89 0.22,-0.22 0.44,-1.3 0.44,-2.43 0,-3.12 0.95,-11 1.43,-11.61 0.21,-0.3 0.78,-0.43 1.21,-0.3 1.04,0.35 9.49,-1 10.22,-1.56 0.26,-0.26 0.95,-0.39 1.52,-0.34 0.56,0.1 1.25,0 1.56,-0.22 0.3,-0.17 2.94,-0.69 5.84,-1.17 2.91,-0.48 5.68,-1 6.15,-1.26 0.48,-0.21 2.86,-0.56 5.33,-0.78 4.25,-0.39 7.41,-0.13 9.4,0.7 0.48,0.21 2.34,0.82 4.12,1.38 1.77,0.57 3.46,1.17 3.68,1.35 0.26,0.17 1.21,-0.1 2.12,-0.52 0.95,-0.44 1.99,-0.83 2.3,-0.83 0.3,0 1.38,-0.39 2.42,-0.82 1.82,-0.87 5.5,-1.95 5.68,-1.69 0,0.1 0.34,2.34 0.65,5.02 0.65,6.11 1.47,9.97 2.86,13.13 0.6,1.34 1.08,2.77 1.08,3.2 0,0.39 0.39,1.3 0.86,2 0.52,0.65 1.3,2.12 1.78,3.2 0.48,1.08 1.04,1.95 1.21,1.95 0.22,0 0.61,0.56 0.83,1.3 0.26,0.69 1.12,2.21 1.9,3.34 1.3,1.9 1.43,2.42 1.56,6.06 0.13,2.21 0,4.33 -0.13,4.76 -0.35,0.78 -0.48,1.56 -0.73,3.6 -0.1,0.61 -0.26,1.26 -0.39,1.52 -0.18,0.21 -0.52,1.77 -0.83,3.46 -0.52,2.82 -1.73,5.81 -2.86,7.02 -0.26,0.26 -0.6,1.38 -0.73,2.47 -0.18,1.12 -0.61,2.51 -1.04,3.12 -0.39,0.65 -0.83,1.94 -1,2.94 -0.17,1.3 -0.43,1.82 -1.04,1.91 -1.04,0.21 -1.56,0.78 -2.42,2.47 -0.35,0.69 -1.95,2.55 -3.56,4.11 -3.42,3.34 -4.11,5.07 -2.46,6.24 0.56,0.39 1.34,0.69 1.77,0.69 0.48,0 1.04,0.61 1.43,1.6 0.39,0.91 0.91,1.78 1.21,1.95 0.31,0.18 2.21,0.35 4.29,0.35 2.6,0 3.81,0.17 3.94,0.52 0.13,0.43 0.39,0.43 1.13,0 1.08,-0.69 2.9,-0.73 3.29,-0.13 0.43,0.7 2.08,0.48 3.16,-0.34 0.7,-0.52 1.17,-1.61 1.61,-3.64 0.34,-1.69 0.95,-3.25 1.47,-3.77 0.48,-0.48 0.99,-1.39 1.17,-1.99 0.34,-1.39 1.6,-1.74 4.89,-1.35 2.04,0.22 2.65,0.18 3.12,-0.43 0.52,-0.61 0.43,-0.82 -0.43,-1.52 -0.52,-0.43 -1.43,-1.51 -2.04,-2.33 -0.95,-1.43 -1.04,-1.95 -1.04,-6.98 0,-2.94 0.18,-5.72 0.39,-6.15 0.26,-0.39 0.74,-2.03 1.17,-3.68 0.39,-1.6 0.91,-2.9 1.09,-2.9 0.21,0 0.39,-0.39 0.39,-0.87 0,-1.21 1.99,-5.11 3.5,-6.84 0.7,-0.78 1.26,-1.69 1.26,-2.04 0,-0.34 0.17,-0.65 0.39,-0.65 0.22,0 0.78,-0.73 1.26,-1.64 0.73,-1.43 0.86,-2.52 0.86,-7.84 0,-4.86 0.18,-6.37 0.69,-7.19 0.39,-0.57 0.7,-1.35 0.7,-1.74 0,-0.34 0.17,-0.65 0.43,-0.65 0.35,0 2.99,2.13 4.33,3.47 1.43,1.43 4.46,3.46 5.16,3.46 0.52,0 1.04,0.31 1.17,0.65 0.13,0.35 1.08,1.04 2.03,1.52 1,0.52 3.08,2.08 4.64,3.46 1.56,1.43 3.07,2.6 3.38,2.6 0.26,0 0.52,0.18 0.52,0.44 0,0.21 0.26,0.43 0.56,0.43 0.35,0 0.95,0.39 1.34,0.82 0.43,0.48 1.6,1.26 2.56,1.74 4.03,2.03 5.71,3.63 7.19,6.84 0.21,0.48 0.65,1.04 0.86,1.21 0.26,0.13 0.48,0.61 0.48,1 0,0.43 0.39,1.51 0.91,2.42 1.43,2.69 2.17,7.41 1.65,10.83 -0.22,1.61 -0.61,3.29 -0.83,3.73 -0.26,0.43 -0.43,1.12 -0.43,1.56 0,1.04 -2.08,5.15 -3.08,6.06 -0.47,0.43 -1.69,0.87 -2.68,1 -1.34,0.21 -1.95,0.52 -2.25,1.21 -0.22,0.56 -0.57,1 -0.7,1 -0.17,0 -1.38,1.6 -2.73,3.59 -2.98,4.46 -3.24,6.2 -0.91,6.63 l 1.48,0.26 -1.04,1.43 c -1.39,1.77 -1.34,2.38 0.13,3.81 1.56,1.52 6.02,2.12 12.6,1.78 6.24,-0.31 7.5,-0.91 8.06,-3.95 0.22,-1.25 0.69,-2.51 1,-2.81 0.26,-0.26 0.51,-1.13 0.51,-1.86 0,-1.74 0.91,-3.64 1.74,-3.77 0.34,-0.1 1.69,-0.1 2.99,-0.1 2.16,0 2.38,-0.13 3.11,-1.43 0.83,-1.43 0.83,-1.73 -0.21,-4.89 -0.35,-1.09 -0.82,-3.73 -1.13,-5.85 -0.26,-2.17 -0.65,-4.51 -0.82,-5.24 -0.22,-0.78 -0.22,-1.65 0,-1.95 0.48,-0.78 0.52,-2.86 0,-3.16 -0.43,-0.26 -0.39,-1.82 0.1,-2.26 0.17,-0.17 0.3,-1.12 0.3,-2.16 0,-2.56 1.3,-11.87 1.86,-13.17 0.22,-0.6 0.52,-1.51 0.61,-2.08 0.21,-1.21 -2.04,-6.11 -2.82,-6.15 -0.3,0 -0.65,-0.26 -0.78,-0.56 -0.1,-0.3 -1.56,-1.26 -3.2,-2.08 -1.65,-0.82 -3.03,-1.6 -3.03,-1.73 0,-0.18 -0.61,-0.96 -1.3,-1.69 -1.39,-1.52 -3.64,-5.94 -3.95,-7.71 0,-0.18 -0.21,-0.52 -0.43,-0.78 -0.52,-0.65 -0.74,-21.4 -0.26,-22.18 0.22,-0.3 0.43,-1.86 0.52,-3.46 0.1,-1.61 0.39,-4.51 0.65,-6.5 0.39,-2.69 0.39,-4.42 0,-7.15 -0.26,-1.95 -0.56,-4.55 -0.65,-5.72 -0.1,-1.21 -0.35,-2.73 -0.61,-3.37 -1.08,-2.78 -1.16,-2.78 6.16,-2.73 6.45,0 6.62,0 9.31,-1.26 1.47,-0.69 2.68,-1.43 2.68,-1.6 0,-0.22 0.26,-0.35 0.57,-0.35 1.21,0 4.11,-3.51 5.97,-7.19 l 1.91,-3.85 v -5.2 c 0,-4.81 -0.1,-5.37 -1.17,-7.63 -0.65,-1.29 -2.86,-4.28 -4.89,-6.58 -2.04,-2.34 -3.69,-4.5 -3.69,-4.85 0,-0.35 -0.17,-0.65 -0.43,-0.65 -0.22,0 -1.26,-0.82 -2.29,-1.86 -1.04,-1 -2.47,-2.13 -3.17,-2.47 -0.69,-0.35 -1.64,-0.95 -2.12,-1.39 -2.08,-1.86 -3.59,-2.9 -5.63,-3.81 -1.17,-0.52 -2.6,-1.34 -3.16,-1.78 -0.57,-0.43 -2.38,-1.21 -4.12,-1.73 -1.73,-0.52 -3.29,-1.08 -3.55,-1.25 -0.22,-0.13 -2.16,-0.83 -4.33,-1.52 -2.12,-0.69 -3.99,-1.39 -4.12,-1.52 -0.13,-0.17 -1.29,-0.56 -2.59,-0.82 -1.3,-0.3 -3.34,-1 -4.55,-1.56 -1.17,-0.56 -3.64,-1.51 -5.42,-2.12 -3.55,-1.17 -10.09,-4.38 -11.95,-5.85 -0.65,-0.52 -1.34,-0.91 -1.52,-0.91 -0.6,0 -3.72,-3.29 -4.07,-4.29 -0.13,-0.47 -0.82,-1.3 -1.51,-1.77 -0.7,-0.48 -1.39,-1.35 -1.56,-1.86 -0.13,-0.52 -0.57,-1.26 -0.91,-1.65 -0.52,-0.61 -0.48,-0.91 0.34,-2.3 1.61,-2.73 3.12,-3.03 6.37,-1.38 1.95,0.99 3.94,3.29 4.16,4.76 0.17,1.3 0.99,1.69 2.99,1.39 1.9,-0.31 4.54,-2.34 4.07,-3.16 -0.13,-0.18 0,-0.83 0.34,-1.43 0.57,-1.04 0.78,-1.09 4.77,-1.13 4.07,-0.1 4.29,-0.13 8.27,-2.12 3.42,-1.73 4.64,-2.64 7.24,-5.42 1.73,-1.859 3.16,-3.765 3.2,-4.198 0.1,-1.126 0.3,-1.992 0.69,-2.599 0.61,-0.996 0.91,-10.655 0.35,-12.301 -0.52,-1.603 -3.81,-4.721 -4.98,-4.721 -0.43,0 -0.69,0.389 -0.69,1.126 z"
               fill="#000000"
               id="path8" />
          </g>
        </g>
        <g
           id="g15">
          <path
             d="m 269.28932,86.35316 c -0.25989,6.62718 -1.94917,10.56884 -6.02077,14.16398 -2.85878,2.51226 -5.54431,3.72508 -9.52928,4.20154 -4.02827,0.51978 -6.45392,-0.3032 -7.75337,-2.59889 -0.69303,-1.21282 -2.25237,-1.94917 -4.3748,-1.94917 -1.68928,0 -1.86254,0.0866 -1.86254,1.03956 0,0.82298 0.3032,1.08287 1.42939,1.29944 2.29569,0.43315 3.42188,1.94918 3.50851,4.67801 0.0433,1.25614 -0.0866,2.55558 -0.30321,2.81547 -0.56309,0.77967 -1.60265,0.69304 -1.60265,-0.0866 0,-0.38983 -1.03956,-1.68928 -2.339,-2.94541 -2.85879,-2.81547 -4.9379,-3.63845 -8.0999,-3.07536 -1.94916,0.34652 -2.3823,0.64972 -3.59513,2.25238 -1.86254,2.6422 -1.86254,5.45767 -0.0433,8.53303 0.73634,1.1695 1.38608,2.55558 1.51602,2.98873 0.12995,0.47646 0.60642,1.03956 1.08287,1.29945 0.47647,0.25989 2.0358,1.51602 3.4652,2.81547 3.2053,2.90209 6.32397,4.9379 9.83248,6.36729 1.51602,0.60641 3.50851,1.4727 4.46143,1.90585 0.95294,0.47647 2.51227,1.03956 3.4652,1.29945 1.68928,0.47646 3.94164,1.29945 6.49724,2.42563 1.81922,0.77967 4.9379,1.77592 6.6705,2.12243 0.77966,0.17326 2.0791,0.64973 2.81546,1.08288 0.73634,0.43315 2.12244,0.90961 3.07534,1.08287 0.95294,0.17326 2.12244,0.51978 2.5989,0.77967 0.47647,0.25989 1.08288,0.51977 1.34277,0.56309 0.25989,0.0433 1.81923,0.82298 3.46519,1.7326 1.64597,0.95293 3.50851,1.94917 4.20154,2.29568 0.64973,0.34653 1.1695,0.77968 1.1695,0.99625 0,0.60641 1.47272,1.81923 3.29194,2.72884 2.29569,1.16951 5.24111,3.46519 7.32022,5.8042 0.95294,1.08287 3.03204,3.37856 4.67801,5.15447 1.60265,1.7326 2.9021,3.37856 2.9021,3.59514 0,0.25989 0.38983,1.25613 0.8663,2.20906 0.56309,1.21282 0.73635,1.94917 0.43313,2.25237 -0.21656,0.21657 -0.43313,1.60265 -0.43313,3.03205 0,4.28817 -1.94917,9.35602 -4.37481,11.52176 -3.81171,3.33525 -6.45392,4.76464 -8.92286,4.76464 -0.823,0 -1.90586,0.21657 -2.38233,0.47646 -0.60641,0.34652 -0.99624,0.34652 -1.34277,0 -0.25988,-0.25989 -1.516,-0.47646 -2.81546,-0.47646 -3.98497,0 -5.63094,-0.73635 -7.23359,-3.24862 -3.11867,-4.85126 -7.14695,-7.53679 -7.14695,-4.76464 0,0.60641 0.25988,1.21282 0.6064,1.34276 0.64973,0.25989 4.80796,5.93415 6.32398,8.61967 1.86254,3.29193 2.9021,14.2506 2.20906,22.74033 -0.99624,11.56507 -1.38608,22.65369 -0.95294,28.11137 0.38985,5.32773 1.29946,9.18275 2.20907,9.48595 0.21658,0.0866 0.43315,0.43316 0.43315,0.77968 0,0.3032 1.68928,2.29569 3.81171,4.41812 2.68553,2.72884 4.33149,4.0283 5.76087,4.54807 2.38233,0.90961 3.4652,2.46893 2.51228,3.59513 -0.34652,0.38984 -0.56308,0.8663 -0.56308,0.99625 0.0433,0.12995 0,0.43315 -0.0433,0.69303 -0.21657,0.69304 -0.64972,2.81547 -1.1695,5.501 -0.25989,1.38607 -0.69304,2.51226 -0.95293,2.51226 -0.73634,0 -0.64974,16.97946 0.0866,17.45591 0.25989,0.17325 0.51978,1.12619 0.51978,2.0358 0,0.90961 0.3032,2.81545 0.69305,4.20155 0.99623,3.59513 0.9529,3.8117 -0.2599,3.94165 -2.20906,0.21657 -2.98873,0.56309 -4.28818,1.64595 -1.42939,1.16952 -3.03204,1.25615 -6.32397,0.30322 -2.85879,-0.77967 -5.45768,-3.16199 -3.4652,-3.16199 0.38985,0 0.64973,-0.38983 0.64973,-0.90961 0,-0.47646 0.47646,-1.68928 1.03955,-2.68552 0.5631,-0.99625 1.25614,-2.9021 1.55934,-4.20155 0.30321,-1.29945 0.69303,-2.59889 0.90963,-2.85878 0.21656,-0.25989 0.25987,-0.60641 0.0866,-0.73637 -0.12993,-0.17325 0,-0.56308 0.2599,-0.9096 0.38984,-0.43315 0.47647,-1.60265 0.3032,-3.59514 -0.38983,-4.80796 -0.5631,-6.02076 -0.8663,-6.54056 -0.17325,-0.3032 -0.6064,-1.516 -0.95292,-2.77214 -0.99624,-3.46519 -4.0716,-9.52928 -4.98121,-9.74586 -0.43315,-0.12994 -0.82297,-0.64972 -0.90962,-1.1695 -0.0866,-0.69304 -1.21281,-1.4294 -4.54805,-3.11867 -2.46896,-1.1695 -4.80796,-2.51226 -5.1978,-2.9021 -2.72884,-2.64221 -10.26563,-8.53303 -10.91535,-8.53303 -0.77967,0 -3.89835,-2.07912 -6.06409,-4.0716 -3.7684,-3.37857 -7.32022,-6.32398 -7.71006,-6.32398 -0.51977,0 -2.72883,-2.29569 -2.72883,-2.81547 0,-0.21658 -0.30321,-0.69305 -0.64973,-1.08287 -0.34652,-0.38984 -1.08287,-2.12243 -1.64596,-3.85503 -0.5631,-1.7326 -1.29945,-3.50851 -1.64598,-3.89835 -1.03955,-1.29944 -1.68927,-2.59889 -1.68927,-3.46518 0,-0.43315 -0.38983,-1.29945 -0.8663,-1.90586 -0.56309,-0.73636 -0.8663,-1.7326 -0.8663,-3.07536 0,-1.08287 -0.17326,-1.99248 -0.43315,-1.99248 -0.21658,0 -0.56308,-0.51978 -0.69303,-1.16951 -0.47647,-1.90585 -3.20531,-7.10364 -4.59138,-8.83624 -0.73637,-0.95292 -1.86254,-1.77591 -2.55558,-1.90585 -0.90962,-0.21658 -1.34277,-0.60642 -1.51603,-1.42939 -0.17326,-0.64973 -0.90961,-1.7326 -1.64596,-2.38233 -0.8663,-0.82298 -1.29945,-1.55933 -1.21282,-2.20905 0.0866,-0.73635 -0.25988,-1.16951 -1.81922,-1.94917 -1.08288,-0.51978 -2.25238,-1.34277 -2.55558,-1.77592 -0.30321,-0.43314 -1.12618,-0.95292 -1.81923,-1.12618 -1.21282,-0.25989 -5.89083,-2.25238 -7.66675,-3.24862 -1.08286,-0.56309 -1.64595,-0.47646 -1.64595,0.25989 0,0.38983 0.47645,0.8663 1.03955,1.08287 0.5631,0.21658 1.1695,0.60641 1.34277,0.82298 0.12993,0.2599 0.56309,0.47647 0.90961,0.47647 0.38983,0 1.51602,0.56309 2.51226,1.29945 1.03956,0.69303 1.99249,1.1695 2.07912,1.03955 0.12994,-0.0866 0.8663,0.51978 1.64596,1.4294 0.82298,0.90961 1.99248,1.99248 2.68553,2.38231 0.8663,0.5631 1.21282,1.12619 1.21282,1.94918 0,0.73634 0.34652,1.42939 0.86629,1.77591 0.51978,0.3032 0.8663,0.99623 0.8663,1.73259 0,0.8663 0.73636,1.86254 2.81547,3.94166 1.55934,1.55934 2.72884,2.85878 2.64221,2.98873 -0.25989,0.25989 -1.94917,-0.73635 -4.46144,-2.5989 -2.46894,-1.90585 -5.32773,-2.68552 -5.32773,-1.4727 0,0.86629 -0.99624,0.90961 -1.73259,0.0433 -0.5631,-0.69304 -2.16575,-0.90961 -2.16575,-0.25989 0,0.21658 0.8663,1.08287 1.99249,1.99249 2.81546,2.339 1.94917,2.46894 -0.99625,0.12994 -2.25237,-1.7759 -4.89457,-3.37856 -5.5443,-3.37856 -0.12995,0 -0.21657,0.34652 -0.21657,0.77966 0,0.38984 0.95292,1.51603 2.16574,2.46896 2.72883,2.16574 3.11866,2.98873 0.95292,2.07911 -0.86629,-0.34652 -1.90586,-0.90961 -2.29569,-1.25613 -0.77967,-0.69304 -2.55557,-0.82298 -2.55557,-0.21657 0,0.34652 1.34276,1.51603 3.42187,2.94541 0.0866,0.0866 0.0866,0.25989 -0.0866,0.38983 -0.12994,0.12995 -0.82298,-0.12994 -1.51602,-0.64971 -0.73635,-0.5198 -1.47271,-0.90962 -1.7326,-0.90962 -0.21657,0 -0.64972,-0.30321 -0.95292,-0.64973 -0.82299,-0.95292 -1.81923,-0.77966 -2.94542,0.51978 -0.95292,1.12619 -1.08288,1.16951 -1.55933,0.43315 -0.77967,-1.03956 -1.55935,-0.90961 -1.55935,0.21658 0,0.73634 0.5631,1.29944 2.2957,2.16574 1.90586,0.99624 2.68552,1.1695 5.02453,1.03956 1.55934,-0.0866 3.24862,0.0433 3.81171,0.3032 0.73636,0.34652 1.29945,0.30321 2.07912,-0.12994 0.86629,-0.43315 1.21281,-0.47647 1.60264,-0.0866 0.8663,0.86629 2.07912,0.6064 2.07912,-0.38985 0,-0.77966 0.17326,-0.86629 1.42939,-0.6064 2.29569,0.47645 2.9021,0.69303 2.9021,1.08287 0,0.47646 -1.47271,0.82298 -5.93414,1.25613 -3.63845,0.38984 -4.28817,0.51978 -6.06409,1.21282 -1.03955,0.34653 -5.84751,1.73259 -8.87955,2.51226 -2.20906,0.60641 -2.68553,0.60641 -4.33149,-0.0433 -4.89459,-1.81922 -13.34099,-2.38232 -19.1885,-1.25613 -1.90586,0.38983 -4.89459,0.86629 -6.6705,1.08287 -1.77591,0.25989 -3.42188,0.64972 -3.72508,0.8663 -0.30321,0.25989 -0.73636,0.43314 -0.90961,0.38984 -0.21658,-0.0433 -0.69305,0 -1.03956,0.12994 -1.08287,0.38983 -9.57259,1.77591 -11.99823,1.99248 -1.29945,0.0866 -2.29569,0 -2.29569,-0.25989 0,-0.8663 1.03956,-3.42188 2.0358,-4.85127 0.56309,-0.82298 1.21282,-2.29569 1.47271,-3.24862 0.25989,-0.95292 0.8663,-2.25237 1.29944,-2.85878 1.03956,-1.47271 1.03956,-2.55558 0.0433,-2.55558 -1.55934,0 -2.20906,0.8663 -5.58762,7.36353 -0.77967,1.51603 -1.4294,3.07536 -1.4294,3.46519 0,0.38984 -0.17325,0.8663 -0.38983,1.08288 -0.56309,0.56309 -1.77591,7.32022 -2.25237,12.30142 -0.21658,2.2524 -0.60642,4.3315 -0.82299,4.6347 -0.90961,1.03957 -1.73259,14.2073 -1.42939,22.48044 0.12995,4.28818 0.25989,8.27316 0.25989,8.87956 -0.0866,2.20906 0.8663,10.61215 1.25613,11.0886 0.21658,0.30322 0.47647,1.51604 0.64973,2.72885 l 0.25989,2.20905 -1.34277,-0.25988 c -2.20906,-0.43315 -4.28817,0.17326 -5.80419,1.7326 l -1.4294,1.47271 -3.5085,-0.69303 c -3.68177,-0.77968 -4.9379,-1.4294 -4.9379,-2.68554 0,-0.73636 1.51602,-6.02076 2.16574,-7.5801 0.51978,-1.21282 1.7326,-7.75336 1.7326,-9.35602 0,-1.4294 0.73635,-4.85127 1.29944,-6.23734 0.34653,-0.73636 0.8663,-7.19028 1.08288,-12.99448 0.12994,-2.98872 -0.56309,-11.08862 -0.99624,-11.6084 -0.43315,-0.56309 -1.16951,-3.46519 -1.60266,-6.06408 -0.12994,-0.8663 -0.43314,-1.60265 -0.64972,-1.60265 -0.25989,0 -0.43315,-0.43315 -0.43315,-0.99625 0,-0.56309 -0.17326,-1.1695 -0.38983,-1.42939 -0.21658,-0.21657 -0.82298,-1.64596 -1.34276,-3.2053 -0.51978,-1.55935 -1.29945,-3.46519 -1.7326,-4.24485 -1.25613,-2.12244 -0.21657,-1.6893 2.77215,1.2128 1.51603,1.4294 2.94542,2.5989 3.20531,2.5989 0.82298,0 0.60641,-1.81923 -0.34652,-3.03204 -0.47646,-0.60641 -0.8663,-1.4294 -0.8663,-1.86254 0,-0.38984 -0.17326,-0.73636 -0.43315,-0.73636 -0.21657,0 -0.43315,-0.3032 -0.43315,-0.64972 0,-0.34652 -0.51978,-0.95294 -1.12619,-1.38608 -0.6064,-0.43316 -1.55933,-1.21282 -2.12243,-1.77591 -0.56309,-0.51978 -1.12618,-0.95293 -1.25613,-0.95293 -0.56309,0 -5.45768,-3.2053 -6.45392,-4.24486 -0.60641,-0.64972 -1.60265,-2.20906 -2.25237,-3.46519 -0.82299,-1.64597 -1.38608,-2.25237 -2.0358,-2.25237 -0.8663,0 -0.8663,0.17325 -0.64973,2.68552 0.30321,2.72884 0.30321,2.72884 3.55182,5.89083 2.12243,2.07911 3.24862,3.46519 3.24862,4.11491 0,0.51978 0.38984,1.21282 0.8663,1.51602 2.29569,1.4294 -0.38983,1.68928 -3.03204,0.25989 -0.60641,-0.3032 -1.99249,-0.8663 -3.11868,-1.29944 -1.12618,-0.38983 -2.29569,-0.99625 -2.59889,-1.34277 -0.30321,-0.34652 -0.99624,-0.82298 -1.51602,-1.03956 -0.5631,-0.21657 -1.12619,-0.73635 -1.29945,-1.12618 -0.12995,-0.43315 -0.77967,-1.38608 -1.47271,-2.07912 -2.12243,-2.339 -4.28817,-7.23359 -4.59138,-10.4822 -0.12994,-1.64597 -0.43315,-3.162 -0.64972,-3.4652 -0.21657,-0.25989 -1.1695,-0.6064 -2.12243,-0.77966 -0.90961,-0.17326 -1.81923,-0.51978 -1.94917,-0.73636 -0.34652,-0.56309 2.339,-2.9021 3.29193,-2.94541 0.95293,0 4.72133,-3.81171 5.76088,-5.84751 0.8663,-1.7326 1.4294,-3.7684 1.90586,-6.71381 0.12994,-0.82299 0.69304,-2.51227 1.25613,-3.7684 1.7326,-3.72508 1.34276,-5.32773 -1.34276,-5.32773 -1.03956,0 -1.08287,0.12994 -1.94917,6.06408 -0.56309,3.94166 -0.95293,5.63094 -1.34276,5.89083 -0.21658,0.12994 -0.38984,0.73635 -0.38984,1.34277 0,0.77966 -0.60641,1.68927 -2.0358,3.03204 -1.12618,0.99624 -2.29569,1.86254 -2.64221,1.86254 -0.3032,0 -0.64972,0.3032 -0.77966,0.64972 -0.17326,0.34652 -0.51978,0.64972 -0.82299,0.64972 -0.25989,0 -0.8663,0.34652 -1.25613,0.82298 -1.64597,1.81923 -4.33149,2.339 -10.179,2.07912 -6.54055,-0.3032 -9.44265,-0.8663 -11.56508,-2.29569 -1.7326,-1.1695 -2.77216,-1.12619 -2.77216,0.17327 0,1.1695 -1.1695,2.12242 -1.81922,1.4727 -0.736355,-0.73636 -2.81547,-0.64973 -3.118675,0.17326 -0.129945,0.38984 -0.25989,1.12619 -0.25989,1.64596 0,0.51978 -0.519775,1.4294 -1.169505,2.0358 -0.693035,0.60641 -2.38232,2.29569 -3.768394,3.7684 -1.429392,1.47271 -2.728836,2.68553 -2.945416,2.68553 -0.47646,0 0.51978,-2.16575 1.47271,-3.29194 1.03956,-1.21281 0.99624,-2.33901 -0.08663,-2.33901 -1.03956,0 -3.46519,1.6893 -3.46519,2.38233 0,0.25989 -0.34652,0.73635 -0.736356,1.08287 -0.952928,0.82298 -3.811714,2.5989 -4.158231,2.5989 -0.129943,0 -1.429393,-1.34277 -2.815469,-2.94542 -1.86254,-2.20906 -2.642209,-3.46518 -2.815468,-4.72132 -0.303206,-1.90586 0.476464,-4.46144 1.862541,-5.97746 0.433149,-0.47646 1.212817,-1.86254 1.732593,-3.03204 0.51978,-1.21282 1.429395,-3.16199 1.99249,-4.33149 1.51602,-3.33525 2.29569,-5.15447 2.20906,-5.41437 -0.04332,-0.12994 0.34652,-0.77967 0.90961,-1.4727 0.51978,-0.69304 0.95293,-1.64597 0.95293,-2.12243 0,-0.77967 0.34652,-2.12243 1.212817,-4.6347 0.129943,-0.34652 0.259889,-0.8663 0.303203,-1.08287 0.04332,-0.51978 0.563095,-1.81923 1.21282,-3.16199 0.25989,-0.56309 0.99624,-1.12619 1.68928,-1.25613 0.77967,-0.17326 1.21282,-0.51978 1.21282,-0.99624 0,-0.47647 0.56309,-1.03956 1.299444,-1.38608 0.736356,-0.30321 1.299446,-0.90961 1.299446,-1.29945 0,-0.43315 0.17326,-0.77967 0.34652,-0.77967 0.303205,0 1.94917,-2.42564 2.079116,-3.03204 0,-0.12994 0.259889,-0.77967 0.519779,-1.4294 0.389835,-0.95292 0.736355,-1.1695 1.342765,-0.95292 0.47646,0.12994 1.25613,0 1.73259,-0.3032 0.73636,-0.43315 1.082875,-0.43315 1.77591,0 0.95293,0.6064 6.75713,0.73635 7.10365,0.12994 0.12994,-0.21657 0.90961,-0.51978 1.73259,-0.64972 2.035805,-0.38984 4.80796,-3.16199 5.19779,-5.1978 0.47647,-2.55557 -0.08663,-5.15447 -1.51602,-6.67049 -1.47271,-1.55933 -1.21282,-1.86254 1.77591,-1.90585 1.21282,-0.0433 2.29569,-0.21658 2.42564,-0.43315 0.3032,-0.47647 2.25237,-0.43315 2.55558,0.0866 0.12994,0.21657 0.90961,0.43315 1.68928,0.43315 2.12243,0 5.71756,1.21281 7.10364,2.38231 1.51602,1.25614 1.94917,1.34277 2.68553,0.43316 0.99624,-1.16951 0.17326,-2.72884 -1.7326,-3.29194 -2.16575,-0.64972 -2.20906,-1.08287 -0.08663,-1.4727 4.54806,-0.90962 16.45966,0.17326 19.96817,1.81922 0.82299,0.34652 2.20906,0.77967 3.11867,0.8663 1.12619,0.17326 1.90586,0.56309 2.33901,1.25613 0.99624,1.51603 2.38232,1.38608 2.38232,-0.21657 0,-0.69304 -0.30321,-1.55934 -0.64973,-1.94917 -0.34651,-0.34652 -0.64972,-0.73636 -0.64972,-0.8663 0,-0.38983 3.68177,-0.3032 4.0716,0.0433 0.17326,0.17326 0.99624,0.25989 1.81923,0.17326 0.82298,-0.0433 1.77591,0.12995 2.12243,0.38984 0.34652,0.3032 0.90961,0.43315 1.25613,0.3032 0.34652,-0.12994 1.7326,0 3.16199,0.30321 1.38608,0.34652 3.81171,0.73635 5.45768,0.8663 1.60265,0.17325 3.46519,0.51977 4.11491,0.77966 0.64973,0.25989 1.42939,0.43315 1.7326,0.38984 0.34652,-0.0433 1.21282,0.17325 1.94917,0.56309 0.77967,0.34652 2.5989,0.77967 4.0716,0.90961 1.77591,0.21658 2.94541,0.60641 3.42188,1.12619 0.38983,0.43315 0.90962,0.69304 1.12619,0.5631 0.64972,-0.38984 3.89833,0.69303 4.67801,1.55933 0.38982,0.38983 1.1695,0.8663 1.81922,0.99624 0.64972,0.17326 1.4294,0.60641 1.81923,0.95293 0.34652,0.34652 0.82298,0.64973 1.08287,0.64973 0.25989,0 0.82298,0.17326 1.25613,0.38983 0.38984,0.21657 1.86254,0.95293 3.24862,1.60265 1.34276,0.64973 2.68552,1.42939 2.94541,1.77591 0.30321,0.30321 0.69304,0.5631 0.90962,0.5631 0.25989,0 0.99624,0.38983 1.68928,0.90961 0.82298,0.56309 1.64596,0.82298 2.29569,0.64973 0.56309,-0.12995 1.34275,0.0433 1.81922,0.38983 1.16951,0.8663 1.90586,0.77967 1.90586,-0.25989 0,-0.5631 -0.47646,-1.08287 -1.42939,-1.47271 -0.77967,-0.3032 -2.5989,-1.42939 -3.98497,-2.46895 -3.59514,-2.59889 -4.85127,-3.37856 -5.501,-3.37856 -0.34652,0 -1.08287,-0.56309 -1.64597,-1.21282 -0.6064,-0.69304 -1.38607,-1.34276 -1.73259,-1.4727 -0.34651,-0.12995 -0.51978,-0.38984 -0.34651,-0.51978 0.12994,-0.17326 0.9096,-0.0433 1.73259,0.34652 0.77967,0.34651 2.94541,0.86629 4.76464,1.08286 1.81922,0.2599 4.02828,0.8663 4.89458,1.34277 0.99624,0.56309 3.03204,1.03956 5.54431,1.29945 12.2148,1.29944 16.11314,1.81922 16.54629,2.16574 0.21658,0.17326 1.99249,0.5631 3.89834,0.82299 1.90585,0.25989 4.54807,0.77966 5.84752,1.12618 1.29944,0.34652 2.90209,0.64973 3.59513,0.64973 0.64973,0 1.51602,0.17326 1.94917,0.43314 0.77967,0.43315 7.96995,1.94918 11.69503,2.42564 1.21282,0.17326 2.25237,0.43315 2.25237,0.64972 0,0.21658 0.5631,0.38984 1.21283,0.38984 0.6497,0 2.25237,0.25989 3.5518,0.6064 1.29946,0.30321 3.50852,0.82299 4.8946,1.1262 1.34276,0.3032 2.46895,0.73635 2.46895,0.95292 0,0.17326 0.34652,0.34652 0.82298,0.34652 0.43315,0 1.38607,0.30321 2.0358,0.64972 0.69304,0.34652 1.55934,0.64973 1.90587,0.69304 0.3465,0 1.25612,0.38984 1.94916,0.8663 0.73634,0.43315 2.46894,1.38608 3.89834,2.12243 3.2053,1.60265 3.8117,1.99249 6.32397,3.98497 1.12619,0.90962 2.25238,1.64597 2.51227,1.64597 0.25989,0 0.47646,0.21657 0.47646,0.47646 0,0.21657 1.21282,0.99625 2.72884,1.7326 1.51602,0.69304 3.16199,1.81923 3.63846,2.51227 0.51977,0.69303 2.42563,1.94916 4.33148,2.85878 2.98872,1.4727 3.85502,1.64596 7.5368,1.86254 4.46142,0.21658 8.27314,-0.38984 9.57259,-1.55934 0.43315,-0.34652 1.38608,-1.90585 2.12243,-3.42188 2.12243,-4.33149 1.7759,-6.19403 -2.20906,-12.47469 -0.90961,-1.42939 -7.62342,-6.80044 -9.74584,-7.75337 -0.95294,-0.43314 -2.07913,-1.08287 -2.46896,-1.4727 -0.43314,-0.34652 -0.77967,-0.47647 -0.77967,-0.30321 0,0.21657 -0.43315,-0.0433 -0.95293,-0.51978 -0.56309,-0.51977 -1.68928,-1.21281 -2.51226,-1.60265 -0.82298,-0.38983 -2.38232,-1.1695 -3.46518,-1.7326 -1.0829,-0.56309 -2.8155,-1.1695 -3.89836,-1.34276 -2.12244,-0.3032 -4.33149,-1.12618 -4.33149,-1.60264 0,-0.12995 -1.12618,-0.60642 -2.46895,-0.99625 -1.38607,-0.38983 -2.85878,-1.03955 -3.2486,-1.38608 -0.38985,-0.34652 -0.90963,-0.51977 -1.16952,-0.38983 -0.47646,0.3032 -4.72132,-0.99624 -7.66673,-2.33901 -0.95293,-0.47646 -3.11868,-1.29944 -4.76465,-1.81922 -2.68552,-0.95293 -4.59137,-1.94917 -8.05657,-4.33149 -0.64973,-0.43315 -1.4727,-0.77967 -1.81923,-0.77967 -0.3465,0 -0.69303,-0.12995 -0.77966,-0.34652 -0.17326,-0.38983 -2.81547,-2.25237 -3.2053,-2.25237 -0.69304,0 -5.28442,-4.15824 -8.05658,-7.27691 -2.94541,-3.24862 -4.85126,-6.58386 -5.41436,-9.18276 -0.12994,-0.73635 -0.43315,-1.42939 -0.6064,-1.55933 -0.51979,-0.30321 -0.51979,-5.67426 0,-5.97746 0.21657,-0.12995 0.51977,-0.95293 0.64972,-1.77591 0.47646,-2.42564 6.32398,-7.58011 8.66298,-7.58011 0.25989,0 0.95292,-0.25989 1.60265,-0.56309 0.60641,-0.34652 3.33525,-1.12619 6.06408,-1.81923 4.76464,-1.1695 6.23735,-1.60265 7.84,-2.42564 0.43315,-0.21657 0.99625,-0.38983 1.25613,-0.38983 0.43314,0 2.46894,-1.68928 4.54807,-3.81171 0.56309,-0.56309 1.21282,-0.90961 1.42939,-0.73635 0.77968,0.43314 0.5631,3.46519 -0.25989,4.20154 -0.43315,0.34652 -2.81547,1.21282 -5.32773,1.86254 -2.51227,0.64973 -4.80796,1.42939 -5.15447,1.68928 -0.34653,0.25989 -0.64973,0.43315 -0.64973,0.34652 -0.0433,-0.08663 -0.6064,0.04332 -1.25613,0.30321 -0.69304,0.25989 -1.34277,0.47646 -1.51602,0.47646 -0.17325,0 -1.03955,0.21658 -1.90585,0.47647 -1.4294,0.38983 -1.64597,0.6064 -1.64597,1.68928 0,1.1695 0.12994,1.29944 1.42939,1.29944 0.82298,0 1.60265,-0.12994 1.77591,-0.3032 0.3032,-0.34652 2.29569,-0.90961 7.2769,-2.0358 1.38607,-0.34652 2.77217,-0.77967 3.03205,-1.03956 0.69302,-0.56309 3.11867,-1.1695 7.19027,-1.86254 1.7326,-0.3032 3.33525,-0.77967 3.59515,-1.12619 0.25988,-0.3032 0.8663,-0.56309 1.34275,-0.56309 0.77967,0 2.64221,-0.99624 3.72508,-2.0358 0.30321,-0.30321 1.29945,-0.8663 2.16575,-1.29945 1.81922,-0.8663 4.41812,-3.2053 4.41812,-3.98497 0,-0.3032 0.2599,-0.47646 0.5631,-0.34652 0.3465,0.12995 0.47645,1.03956 0.38982,2.94541 z"
             id="path13"
             style="fill:#ffff00;stroke-linejoin:round" />
        </g>
        <g
           id="horned">
          <g
             id="g19">
            <path
               d="m 50.93889,128.28199 c 0.17326,3.33525 0.216576,3.42188 2.339007,5.93414 1.169503,1.38608 2.382319,2.72884 2.685523,2.9021 0.303205,0.17326 0.563095,0.73636 0.563095,1.21282 0,0.77967 -0.17326,0.69304 -1.429395,-0.56309 -1.60265,-1.55934 -3.2053,-2.9021 -4.46143,-3.63846 -0.476466,-0.25989 -0.8663,-0.90961 -0.95293,-1.42939 -0.08663,-0.51978 -0.389834,-0.8663 -0.649724,-0.77967 -0.693036,0.21658 -0.909613,2.9021 -0.346519,3.4652 0.259889,0.25989 0.476463,0.99624 0.476463,1.64596 0,0.60641 0.34652,1.60265 0.822984,2.16575 1.169502,1.51602 2.29569,4.11491 2.12243,4.9379 -0.173259,0.95292 -0.952928,0.86629 -1.169504,-0.0866 -0.08663,-0.43315 -0.606407,-1.34277 -1.1695,-1.99249 -0.563094,-0.69303 -1.12619,-1.77591 -1.25613,-2.38232 -0.12995,-0.64972 -0.51978,-1.73259 -0.8663,-2.38232 -0.69304,-1.34276 -0.8663,-4.46143 -0.25989,-4.80795 0.17326,-0.12994 0.476464,-1.12619 0.60641,-2.20906 0.25989,-1.86254 1.905854,-5.41437 2.51226,-5.41437 0.17326,0 0.34652,1.51603 0.43315,3.42188 z"
               id="path17"
               style="fill:#00ffff;stroke-linejoin:round" />
          </g>
          <g
             id="g23">
            <path
               d="m 64.23657,132.48354 c 0.866296,1.60265 4.72132,5.19779 6.23734,5.76088 0.5631,0.21658 2.20906,0.51978 3.63846,0.69304 1.38607,0.17326 2.94541,0.60641 3.42187,0.90961 0.47647,0.34652 1.12619,0.60641 1.47271,0.60641 0.90961,0 2.20906,1.29945 2.20906,2.29569 0,1.68928 -1.81923,3.7684 -3.89834,4.41812 -0.12995,0.0433 -0.77967,0.30321 -1.51602,0.60641 -3.03205,1.25613 -10.872044,-1.51602 -12.388066,-4.41812 -0.476464,-0.8663 -1.602654,-2.38232 -3.118674,-4.20155 -0.60641,-0.73635 -0.60641,-6.02077 0.04332,-6.45392 0.216574,-0.12994 0.563094,-0.73635 0.736354,-1.34276 0.17326,-0.60641 0.64972,-1.55934 1.03956,-2.12243 l 0.693036,-1.08287 0.346519,1.51602 c 0.216575,0.82298 0.693035,2.07911 1.082875,2.81547 z"
               id="path21"
               style="fill:#00ffff;stroke-linejoin:round" />
          </g>
        </g>
        <g
           id="g27">
          <path
             d="m 57.26287,142.2727 c -0.12995,0.34652 -0.25989,0.21658 -0.25989,-0.25988 -0.04332,-0.47647 0.08663,-0.73636 0.21657,-0.5631 0.12995,0.12995 0.17326,0.51978 0.04332,0.82298 z"
             id="path25"
             style="fill:#00ffff;stroke-linejoin:round" />
        </g>
        <g
           id="g31">
          <path
             d="m 54.36077,145.65127 c 0,0.73635 -0.129945,0.77967 -1.082873,0.34652 -1.169503,-0.51979 -1.039557,-1.21282 0.259889,-1.21282 0.519779,0 0.822984,0.3032 0.822984,0.8663 z"
             id="path29"
             style="fill:#00ffff;stroke-linejoin:round" />
        </g>
        <g
           id="maned">
          <path
             d="m 61.204524,146.9074 c 0.519776,0.47646 0.952926,1.03956 0.952926,1.29945 0,0.21657 0.34652,0.60641 0.736355,0.8663 0.693039,0.34651 0.693039,0.56309 -0.08663,2.81546 -0.476466,1.34277 -0.952926,2.42564 -1.126186,2.42564 -0.476466,0 -1.94917,1.47271 -2.25238,2.25237 -0.12994,0.43315 -0.47646,0.77968 -0.73635,0.77968 -0.25989,0 -1.42939,0.69303 -2.598894,1.51601 -1.212816,0.82299 -2.165746,1.34277 -2.165746,1.12619 0,-0.25989 0.216575,-0.5631 0.43315,-0.69304 0.25989,-0.12994 0.43315,-0.90961 0.43315,-1.68928 0,-0.77967 0.25989,-1.77591 0.60641,-2.20906 0.3032,-0.43315 0.519776,-1.34276 0.38983,-1.99248 -0.08663,-0.64973 0.04332,-1.29945 0.303206,-1.47271 0.216574,-0.12995 0.433149,-0.60641 0.433149,-0.99624 0.04331,-0.77967 2.858785,-4.85127 3.378565,-4.85127 0.17326,0.0433 0.73635,0.38983 1.299445,0.82298 z"
             id="path33"
             style="fill:#803300;stroke-linejoin:round" />
        </g>
        <g
           id="g39">
          <path
             d="m 213.62967,207.02849 c 0.12995,0.30321 -0.12994,0.38983 -0.69304,0.25989 -0.51978,-0.12995 -0.90961,-0.43315 -0.90961,-0.64973 0,-0.56309 1.38608,-0.25989 1.60265,0.38984 z"
             id="path37" />
        </g>
        <g
           id="g43">
          <path
             d="m 218.69752,212.6161 c 0.95292,0.38984 0.86629,1.03957 -0.12995,1.03957 -0.90961,0 -1.47271,-0.5631 -1.03956,-1.03957 0.34652,-0.3032 0.34652,-0.3032 1.16951,0 z"
             id="path41" />
        </g>
        <g
           id="g47">
          <path
             d="m 216.79166,213.65567 c 0,0.21657 -0.17326,0.43315 -0.43316,0.43315 -0.21656,0 -0.43314,-0.21658 -0.43314,-0.43315 0,-0.25989 0.21658,-0.43315 0.43314,-0.43315 0.2599,0 0.43316,0.17326 0.43316,0.43315 z"
             id="path45" />
        </g>
        <g
           id="g51">
          <path
             d="m 225.8878,216.90429 c 0.3032,0.38983 0.47645,0.73635 0.38982,0.82298 -0.43314,0.34653 -4.89458,-0.47647 -5.06784,-0.95293 -0.25988,-0.82298 3.98497,-0.69304 4.67802,0.12995 z"
             id="path49" />
        </g>
        <g
           id="g55">
          <path
             d="m 218.22105,217.29412 c -0.3032,1.12618 -0.43315,1.1695 -1.55933,0.64972 -1.60266,-0.73634 -1.47272,-1.29944 0.25988,-1.08287 0.73636,0.0866 1.34277,0.25989 1.29945,0.43315 z"
             id="path53" />
        </g>
        <g
           id="g59">
          <path
             d="m 212.11365,219.63312 -0.17325,2.07912 2.42563,1.68928 c 2.38232,1.64598 3.5085,3.2053 1.25613,1.68928 -2.9021,-1.90585 -4.46144,-2.38232 -4.46144,-1.38607 0,0.3032 1.08288,1.12617 2.38232,1.86254 2.51226,1.34276 2.81546,1.68928 1.68928,2.12243 -1.21282,0.47646 -0.51978,2.16574 1.34277,3.07535 0.90961,0.47647 1.90585,0.99625 2.16574,1.21282 0.21657,0.17326 1.25613,0.90962 2.29569,1.60265 0.99624,0.73636 1.81923,1.47271 1.81923,1.7326 0,0.43315 -3.68177,-1.90586 -4.11492,-2.64222 -0.17326,-0.21656 -0.56309,-0.38982 -0.95293,-0.38982 -0.51978,0 -0.6064,0.25989 -0.34652,1.1695 0.34652,1.42939 1.4294,2.72884 2.25238,2.72884 0.69304,0 3.81171,1.90585 4.24486,2.59888 0.47646,0.77968 -0.38983,0.47648 -2.38232,-0.8663 -2.07912,-1.38606 -3.37856,-1.12617 -1.99249,0.38985 1.12619,1.25613 9.48597,6.93038 11.95492,8.09989 0.34652,0.17326 1.25613,0.77966 1.99247,1.34276 0.73637,0.5631 1.64598,0.99624 2.0358,0.99624 1.1262,0 0.8663,-1.25614 -0.3465,-1.7326 -0.60641,-0.21657 -1.21282,-0.69304 -1.34277,-1.03954 -0.12993,-0.34653 -0.82298,-0.823 -1.51603,-1.0829 -0.69303,-0.21656 -1.25612,-0.6497 -1.25612,-0.86628 0,-0.69304 0.3032,-0.60642 2.07912,0.6064 2.12242,1.4294 3.85502,1.4294 2.77215,0 -0.17325,-0.25989 -1.08287,-0.82298 -2.0358,-1.29944 -0.90962,-0.47648 -2.81547,-1.68928 -4.20155,-2.72884 -1.38608,-0.99624 -2.6422,-1.81924 -2.85878,-1.81924 -0.43315,-0.0433 -2.9021,-2.59888 -2.46895,-2.59888 0.17326,0 1.21282,0.64972 2.339,1.42938 1.08288,0.77968 2.9021,1.86255 4.02829,2.42564 1.08287,0.51978 2.25237,1.25614 2.51226,1.60266 0.30321,0.3032 0.90962,0.6064 1.34277,0.6064 1.03955,0 1.08287,-1.55933 0.0866,-1.86254 -1.03956,-0.34652 -4.28818,-2.29569 -5.97746,-3.59513 -0.77966,-0.5631 -1.51602,-1.03956 -1.68928,-1.03956 -0.17326,0 -0.51978,-0.21657 -0.82298,-0.43315 -0.3032,-0.25989 -0.99625,-0.77967 -1.60266,-1.25612 -0.90961,-0.69305 -0.95292,-0.90963 -0.47646,-1.51603 0.3032,-0.34652 0.90962,-0.60641 1.38608,-0.5631 0.90961,0.17326 1.64596,0.73636 0.90961,0.73636 -0.30321,0 -0.51977,0.34651 -0.51977,0.77967 0,0.77966 0.64971,1.29944 3.85502,3.03204 1.08288,0.56309 3.07535,1.86254 4.46143,2.94541 2.81547,2.12243 3.37856,2.29569 3.37856,1.03955 0,-0.95292 0.30321,-1.08286 1.25614,-0.47646 0.47645,0.30321 0.38983,0.64973 -0.5631,1.60266 -1.60265,1.7326 -1.73259,2.55558 -1.42939,8.79292 0.21658,4.28818 0.12994,5.71758 -0.34652,6.54055 -0.34652,0.60641 -0.73634,1.38608 -0.90961,1.7326 -0.17326,0.34653 -0.64973,0.95293 -1.03956,1.29943 -0.38983,0.34653 -1.12619,1.51604 -1.64597,2.5989 -0.51977,1.08288 -1.29944,2.16575 -1.7759,2.46896 -0.5631,0.34652 -1.03956,1.42939 -1.34277,3.03204 -0.3032,1.38608 -0.69303,2.72884 -0.90961,2.98873 -1.08287,1.29945 -1.68928,5.71757 -1.77592,12.86453 l -0.12994,7.53679 -2.16574,0.82298 c -1.1695,0.43317 -2.85879,0.73637 -3.68177,0.64973 -2.51226,-0.17326 -6.02077,-1.34276 -6.58386,-2.16576 -0.30321,-0.38982 -0.90962,-0.8663 -1.34277,-1.03955 -0.60641,-0.21657 -0.73635,-0.56309 -0.47646,-1.25613 0.17326,-0.56309 0.43314,-1.08287 0.60641,-1.21282 0.17326,-0.12994 0.56309,-0.99624 0.8663,-1.94917 0.3032,-0.95293 0.69303,-2.12243 0.90961,-2.59889 0.51978,-1.29944 2.0358,-6.71381 2.339,-8.44641 0.17326,-0.82298 0.47647,-1.73259 0.64972,-1.94917 0.51979,-0.73636 1.21282,-4.11491 1.7326,-8.4464 0.3032,-2.25238 0.64973,-4.33149 0.82299,-4.54806 0.34651,-0.47647 0.30321,-0.95294 -0.0866,-1.94918 -0.12996,-0.34652 -0.34652,-1.86254 -0.47646,-3.37856 -0.2599,-2.64221 -1.08288,-4.85126 -2.25238,-6.06409 -0.34652,-0.3032 -1.08287,-1.64597 -1.64597,-2.9021 -0.60641,-1.25613 -1.29945,-2.42563 -1.51602,-2.59889 -0.25989,-0.12995 -0.47646,-0.64972 -0.47646,-1.12618 0,-0.43316 -0.30321,-0.823 -0.64973,-0.823 -0.34652,0 -0.64972,-0.25988 -0.64972,-0.56309 0,-0.30321 -0.34652,-1.21281 -0.82298,-2.03581 -0.43315,-0.82297 -1.21282,-3.07534 -1.7326,-4.9812 -0.56309,-1.90586 -1.1695,-3.85503 -1.42939,-4.28818 -0.64973,-1.25612 -1.25613,-6.71381 -0.95293,-8.79292 0.25988,-1.90586 0.60641,-2.16575 3.03204,-2.25238 l 1.34277,-0.0433 z"
             id="path57" />
        </g>
        <g
           id="g63">
          <path
             d="m 110.67014,218.4203 c 0,0.21658 -0.21657,0.43316 -0.47646,0.43316 -0.34652,0 -0.38983,0.77966 -0.17326,2.46894 0.30321,2.339 0.47647,2.64221 2.94541,5.02453 2.20907,2.07912 7.06033,5.06785 8.22984,5.06785 0.60641,0 0.25989,-1.21282 -0.5631,-1.94918 -1.68928,-1.55933 -0.38983,-1.81922 1.42939,-0.3032 0.95293,0.8663 0.95293,1.60265 -0.12994,2.68553 -0.82298,0.82297 -0.99624,0.82297 -2.07912,0.3032 -0.64972,-0.34653 -2.0358,-1.03956 -3.11867,-1.51603 -1.08287,-0.51977 -2.68552,-1.64596 -3.59513,-2.46894 -2.0358,-1.86254 -2.46896,-1.90586 -2.46896,-0.21657 0,0.69303 0.21658,1.29944 0.43316,1.29944 0.3032,0 0.34651,0.5631 0.21657,1.47271 -0.25989,1.1695 -0.0866,1.64596 0.82298,2.55558 1.47271,1.47271 1.42939,1.77591 -0.17326,0.95293 -1.03956,-0.51978 -1.34276,-0.5631 -1.4727,-0.12995 -1.12619,3.89834 -1.16951,4.41812 -0.69304,7.2336 0.56309,3.42187 0.95292,4.15822 1.94917,3.7684 0.60641,-0.2166 0.69304,-0.60642 0.51978,-1.7326 -0.17326,-1.1262 -0.0433,-1.6893 0.64972,-2.25238 0.56309,-0.5631 0.77967,-1.16951 0.69304,-1.99249 -0.17326,-1.08287 -0.12995,-1.1695 0.51978,-0.56309 0.38983,0.34652 1.03956,0.64972 1.42939,0.64972 1.1695,0 0.8663,-1.42939 -0.56309,-2.81546 -1.90586,-1.86255 -1.55934,-2.12244 0.6064,-0.5198 1.25614,0.90963 1.94917,1.7326 1.94917,2.33902 0.0433,0.56308 -0.0866,0.99624 -0.25988,0.99624 -0.21658,0 -0.73636,1.21282 -1.16951,2.68553 -0.47646,1.51601 -1.12618,3.24861 -1.42939,3.85501 -0.60641,1.1695 -1.77591,5.24112 -2.16574,7.32023 -0.0866,0.60641 -0.34652,1.47271 -0.51978,1.94917 -1.21282,2.98873 -2.33901,11.8683 -2.20906,17.1094 0.17325,5.5876 0.17325,5.63093 -1.34277,5.63093 -1.25613,0 -3.5085,0.95292 -4.50475,1.94917 -0.21657,0.21657 -0.69303,0.95292 -1.03955,1.64596 -0.60641,1.08288 -0.77967,1.16951 -3.63845,1.16951 -3.07536,0 -5.24111,-0.69304 -7.10365,-2.33901 -1.29945,-1.08286 -1.25613,-2.46896 0.04332,-4.02829 0.6064,-0.69303 1.21281,-1.86254 1.38607,-2.55557 0.17326,-0.69304 0.43315,-1.34277 0.5631,-1.4727 0.6064,-0.5198 1.77591,-3.03205 1.77591,-3.81172 0,-0.51978 0.17326,-1.03956 0.43315,-1.16951 0.21657,-0.12994 0.60641,-1.03955 0.86629,-1.99247 0.25989,-0.95294 0.77967,-1.86255 1.12619,-1.9925 0.30321,-0.12994 0.60641,-0.47646 0.60641,-0.77966 0,-0.30321 0.38983,-1.38608 0.82298,-2.42564 0.47647,-1.03956 0.8663,-2.12243 0.90962,-2.339 0,-0.2599 0.3032,-0.823 0.60641,-1.29945 0.3032,-0.47647 0.69303,-2.12243 0.86629,-3.68177 0.30321,-2.81548 0.82299,-5.06784 1.55934,-6.71381 1.08287,-2.38232 1.7326,-5.19779 2.12243,-9.22607 0.21657,-2.46895 0.64972,-4.72133 0.90961,-5.06785 0.64973,-0.77967 1.7326,-7.49348 1.7326,-10.65546 0,-1.34277 0.12994,-2.55559 0.3032,-2.68553 0.43315,-0.47646 1.86254,-0.34652 1.86254,0.12994 z"
             id="path61" />
        </g>
        <g
           id="g67">
          <path
             d="m 227.18724,223.79136 c 0,0.73634 -0.60641,1.25614 -0.99624,0.86629 -0.34652,-0.34652 0.12994,-1.4727 0.6064,-1.4727 0.21658,0 0.38984,0.25989 0.38984,0.60641 z"
             id="path65" />
        </g>
        <g
           id="g71">
          <path
             d="m 121.49887,226.00042 c 1.08287,1.1695 0.51978,1.51602 -0.60641,0.38983 -0.60641,-0.60641 -0.95293,-1.47271 -0.56309,-1.47271 0.0866,0 0.60641,0.47646 1.1695,1.08288 z"
             id="path69" />
        </g>
        <g
           id="g75">
          <path
             d="m 118.46683,226.43356 c 0.3032,0.38984 0.43315,0.77967 0.3032,0.90962 -0.3032,0.34652 -2.0358,-0.60641 -2.0358,-1.12618 0,-0.64973 1.12619,-0.5198 1.7326,0.21656 z"
             id="path73" />
        </g>
        <g
           id="g79">
          <path
             d="m 222.4226,226.73677 c 0,0.56309 -0.99625,0.21657 -1.21282,-0.43315 -0.0866,-0.3032 0.0866,-0.43315 0.51978,-0.25989 0.38984,0.12995 0.69304,0.47647 0.69304,0.69304 z"
             id="path77" />
        </g>
        <g
           id="g83">
          <path
             d="m 226.06105,226.43356 c 0.47646,0.34652 0.73635,0.73636 0.60641,0.90962 -0.30321,0.25989 -2.07912,-0.73636 -2.07912,-1.21282 0,-0.51978 0.5631,-0.38983 1.47271,0.3032 z"
             id="path81" />
        </g>
        <g
           id="g87">
          <path
             d="m 218.9574,227.1266 c 0,0.6064 -0.73635,0.43315 -0.99624,-0.21657 -0.17326,-0.43315 -0.0433,-0.5631 0.38984,-0.38983 0.3032,0.12994 0.6064,0.38983 0.6064,0.6064 z"
             id="path85" />
        </g>
        <g
           id="g91">
          <path
             d="m 230.65243,229.89876 c 0,0.25989 -1.42939,-0.25989 -2.0358,-0.77966 -1.1695,-0.90962 -0.47646,-1.16951 0.73635,-0.30322 0.73636,0.51978 1.29945,0.99625 1.29945,1.08288 z"
             id="path89" />
        </g>
        <g
           id="g95">
          <path
             d="m 220.90658,228.81588 c 0.12994,0.21658 -0.0433,0.43315 -0.43315,0.43315 -0.38983,0 -0.5631,-0.21657 -0.43315,-0.43315 0.12994,-0.25988 0.34652,-0.43314 0.43315,-0.43314 0.0866,0 0.3032,0.17326 0.43315,0.43314 z"
             id="path93" />
        </g>
        <g
           id="g99">
          <path
             d="m 227.31718,230.0287 c 0.99624,0.64973 2.55558,1.55934 3.46519,2.0358 1.34277,0.73636 2.12243,1.51602 1.38608,1.51602 -0.51978,0 -5.32773,-2.72884 -6.49723,-3.68176 -1.77592,-1.47271 -0.5631,-1.34276 1.64596,0.12994 z"
             id="path97" />
        </g>
        <g
           id="g103">
          <path
             d="m 223.50547,230.11533 c 0.12995,0.21657 0.0866,0.43315 -0.17327,0.43315 -0.21656,0 -0.56308,-0.21658 -0.69303,-0.43315 -0.12994,-0.25989 -0.0866,-0.43315 0.17326,-0.43315 0.21657,0 0.5631,0.17326 0.69304,0.43315 z"
             id="path101" />
        </g>
        <g
           id="g107">
          <path
             d="m 116.90749,233.14737 c 0.56309,0.0433 2.42564,1.51603 2.42564,1.94918 0,0.56309 -1.99249,-0.38985 -3.55183,-1.68929 -1.81922,-1.51602 -2.29569,-2.55558 -0.51978,-1.1695 0.64973,0.51978 1.38608,0.90961 1.64597,0.90961 z"
             id="path105" />
        </g>
        <g
           id="g111">
          <path
             d="m 222.85575,232.3244 c 0,0.25988 -0.17325,0.3032 -0.43315,0.17325 -0.21658,-0.12995 -0.43315,-0.47645 -0.43315,-0.69305 0,-0.25988 0.21657,-0.3032 0.43315,-0.17325 0.2599,0.12995 0.43315,0.47647 0.43315,0.69305 z"
             id="path109" />
        </g>
        <g
           id="g115">
          <path
             d="m 235.7636,237.73875 c 1.29944,1.16951 1.42938,1.38608 0.6497,1.16951 -0.56308,-0.12996 -0.99623,-0.38984 -0.99623,-0.60641 0,-0.21658 -0.30321,-0.38985 -0.64972,-0.38985 -0.34652,0 -0.8663,-0.38982 -1.16951,-0.86628 -0.3032,-0.47647 -0.82298,-0.8663 -1.12618,-0.8663 -0.60641,0 -5.28442,-2.85879 -5.28442,-3.24862 0,-0.47646 7.10364,3.5085 8.57636,4.80795 z"
             id="path113" />
        </g>
        <g
           id="unguled">
          <g
             id="g119">
            <path
               d="m 90.09557,284.25896 c -0.17326,0.25989 -0.43315,0.34652 -0.64973,0.21658 -0.17326,-0.0866 -0.99624,0.77966 -1.77591,1.94916 -0.82298,1.1695 -1.81923,2.16575 -2.20906,2.16575 -0.43315,0 -0.77967,-0.0866 -0.77967,-0.17325 0,-0.5198 4.50475,-4.5914 5.06785,-4.5914 0.34652,0 0.47646,0.2166 0.34652,0.43316 z"
               id="path117"
               style="fill:#ff00ff;stroke-linejoin:round" />
          </g>
          <g
             id="g123">
            <path
               d="m 92.91103,284.9087 c 0.60641,0.3465 1.94917,0.6064 3.07536,0.6497 1.08287,0 2.16575,0.2166 2.46895,0.5198 0.38984,0.38982 0.73636,0.38982 1.55934,-0.0433 1.34276,-0.73635 1.99248,-0.3032 1.99248,1.29945 0,4.11492 -3.59513,5.93414 -10.61215,5.37105 -3.2053,-0.25989 -3.68176,-0.43315 -3.68176,-1.12619 0,-0.47648 0.17325,-0.82298 0.38983,-0.82298 0.73635,0 3.16199,-4.50475 2.94541,-5.501 -0.21657,-1.1262 0.30321,-1.25613 1.86254,-0.3465 z"
               id="path121"
               style="fill:#ff00ff;stroke-linejoin:round" />
          </g>
          <g
             id="g127">
            <path
               d="m 123.88119,289.0236 c 1.60265,0.69304 4.33149,1.29945 5.97746,1.29945 h 1.60265 v 2.38232 c 0,4.76463 -1.51602,5.76088 -9.05282,6.06408 -4.20154,0.12995 -4.28817,0.12995 -4.02828,-0.77965 0.12994,-0.5198 0.34652,-1.1695 0.51978,-1.3861 0.51978,-0.6497 1.73259,-5.02452 1.73259,-6.1074 0,-1.34275 -1.60265,-1.81922 -2.38232,-0.73635 -0.34652,0.43315 -0.64972,1.12619 -0.64972,1.51603 0,0.43315 -0.17326,0.77966 -0.38983,0.77966 -0.21658,0 -0.5631,0.73636 -0.77967,1.60266 -0.25989,1.2128 -0.64973,1.68928 -1.29945,1.7759 -0.8663,0.12995 -0.82298,-0.0433 0.64972,-2.98872 0.8663,-1.7326 2.07912,-3.59514 2.68553,-4.11492 1.12619,-0.99624 1.55933,-0.95293 5.41436,0.69304 z"
               id="path125"
               style="fill:#ff00ff;stroke-linejoin:round" />
          </g>
          <g
             id="g131">
            <path
               d="m 210.72757,293.1385 c 0.69303,0.823 4.24486,3.24863 4.76464,3.24863 0.21659,0 1.34277,0.43317 2.55559,0.95293 2.46894,1.12619 2.68552,1.7326 1.51601,4.67801 l -0.69303,1.7326 h -4.76464 c -7.5368,0 -8.48973,-1.08287 -5.06784,-5.97747 1.86253,-2.6422 2.0358,-3.33524 0.95292,-4.50474 -0.38983,-0.43316 -0.47646,-0.77966 -0.25989,-0.77966 0.25989,0 0.69304,0.3032 0.99624,0.6497 z"
               id="path129"
               style="fill:#ff00ff;stroke-linejoin:round" />
          </g>
          <g
             id="g135">
            <path
               d="m 205.96293,297.68658 c 0,0.21658 -0.21657,0.43315 -0.47646,0.43315 -0.21657,0 -0.3032,-0.21657 -0.17327,-0.43315 0.12996,-0.25988 0.34653,-0.43315 0.47647,-0.43315 0.0866,0 0.17326,0.17327 0.17326,0.43315 z"
               id="path133"
               style="fill:#ff00ff;stroke-linejoin:round" />
          </g>
          <g
             id="g139">
            <path
               d="m 274.87695,301.15177 c 1.25613,0.99623 2.81545,1.90586 3.42187,2.0358 0.60641,0.12995 1.47271,0.51978 1.94918,0.82299 0.47646,0.25989 1.516,0.64972 2.2957,0.82298 1.55932,0.30321 1.8192,1.34276 0.86628,3.55182 -0.25988,0.64974 -0.51978,1.38608 -0.51978,1.60264 -0.0433,0.2166 -0.73635,0.7797 -1.55933,1.25615 -1.64597,0.90961 -8.35977,1.55935 -9.83247,0.95292 -0.43316,-0.17327 -1.29946,-0.3032 -1.9492,-0.25987 -2.29568,0.17325 -1.73258,-1.34278 1.7326,-4.80797 0.64973,-0.69303 0.99625,-1.21283 0.823,-1.21283 -0.21658,0 0.0433,-0.56308 0.5631,-1.29943 1.08286,-1.51603 1.03954,-3.59514 -0.0866,-3.81171 -0.38984,-0.0866 -0.82299,0.21657 -0.95293,0.69304 -0.34653,1.03955 -3.59513,3.68176 -4.24486,3.4652 -0.43315,-0.17327 4.28817,-5.501 4.89458,-5.54432 0.12995,0 1.29945,0.77967 2.5989,1.73259 z"
               id="path137"
               style="fill:#ff00ff;stroke-linejoin:round" />
          </g>
        </g>
        <g
           id="g144">
          <g
             id="outline-1">
            <path
               d="m 89.79236,142.48928 c -0.99624,0.25989 -1.08287,2.51226 -0.12994,2.9021 0.38983,0.12994 0.64972,0.77967 0.64972,1.55934 0,1.42938 0.95293,2.12243 1.86254,1.38608 0.30321,-0.2599 3.07536,-0.60642 6.15072,-0.73636 5.19779,-0.30321 5.8042,-0.25989 7.66674,0.60641 1.12618,0.47646 2.42563,0.90961 2.85878,0.90961 1.60265,0 3.55182,0.51978 3.29193,0.90961 -0.3032,0.51978 -3.94165,0.47647 -4.98121,-0.0433 -0.60641,-0.34652 -1.1695,-0.25989 -2.16575,0.21657 -0.73635,0.38984 -2.339,0.77967 -3.55182,0.82299 -1.25613,0.0866 -2.68552,0.17326 -3.2053,0.21657 -0.64973,0.0433 -0.99625,0.30321 -0.99625,0.8663 0,1.21281 -1.08287,1.42939 -2.339,0.43315 -0.82298,-0.64973 -1.60265,-0.82299 -3.16199,-0.73636 l -2.07911,0.12995 0.08663,2.339 c 0.08663,1.29945 0.21657,2.42564 0.34652,2.55558 0.12994,0.12995 1.03955,0.0433 2.0358,-0.21657 1.99248,-0.51978 3.81171,-0.0866 3.81171,0.90961 0,0.34652 0.51978,0.99625 1.12618,1.42939 0.60641,0.43316 1.68929,1.34276 2.38232,2.0358 1.21282,1.21282 1.25614,1.21282 6.84376,1.21282 4.59138,0 5.8042,-0.12994 6.36729,-0.69304 0.43315,-0.47646 1.47271,-0.69304 3.11867,-0.69304 1.77591,0 2.77216,-0.25988 3.55183,-0.86629 0.6064,-0.47647 1.42939,-0.8663 1.86254,-0.8663 1.21281,0 2.46895,-1.60265 2.46895,-3.16199 0,-2.42563 -0.82299,-4.50475 -2.51227,-6.19403 -1.77591,-1.86254 -6.71381,-4.50475 -8.35977,-4.50475 -0.5631,0 -1.51603,-0.25989 -2.12244,-0.56309 -0.6064,-0.30321 -2.25237,-0.60641 -3.68176,-0.69304 -1.42939,-0.0433 -2.77216,-0.30321 -3.03205,-0.51979 -0.64972,-0.64972 -5.28441,-0.47646 -5.5443,0.21658 -0.30321,0.69304 -1.51603,0.64972 -1.99249,-0.0866 -0.51978,-0.8663 -4.76464,-1.60265 -6.62718,-1.08287 z"
               fill="#000000"
               id="path141" />
          </g>
        </g>
        <g
           id="g148">
          <path
             d="m 119.20318,153.0148 c 1.1695,1.25613 1.25613,2.25238 0.34652,3.03205 -0.34652,0.3032 -0.64972,0.38983 -0.64972,0.21657 0,-0.12995 -0.51978,0.12994 -1.12619,0.60641 -0.8663,0.64972 -1.77591,0.90961 -3.50851,0.90961 -1.68928,0 -2.72884,0.25989 -3.59514,0.8663 -0.77966,0.56309 -1.34276,0.69304 -1.51602,0.43315 -0.34652,-0.56309 -2.20906,-0.56309 -3.24862,0 -0.56309,0.30321 -0.95292,0.25989 -1.38607,-0.17326 -0.34652,-0.30321 -1.08287,-0.73635 -1.64597,-0.90961 -3.07536,-0.8663 -3.85502,-1.60266 -3.89834,-3.59514 0,-1.08288 1.64597,-0.47647 2.77215,0.99624 0.77967,0.99624 1.51603,1.51602 2.25238,1.51602 0.64972,0 1.03956,0.25989 1.03956,0.64973 0,0.34652 0.3032,0.64972 0.69304,0.64972 0.56309,0 0.64972,-0.34652 0.51977,-1.51602 -0.17326,-1.34277 -0.0866,-1.47271 0.73636,-1.25613 0.47646,0.12994 1.03956,0.43315 1.29945,0.64972 0.6064,0.60641 1.94917,0.47646 2.20906,-0.21657 0.25988,-0.73636 1.42939,-0.47647 2.20906,0.51977 0.3032,0.34652 0.82298,0.51978 1.25613,0.34652 0.56309,-0.21658 0.64972,-0.60641 0.43315,-1.64596 l -0.25989,-1.38608 0.99624,0.95293 c 0.56309,0.51978 1.42939,0.95293 1.94917,0.95293 0.77967,0 0.95293,-0.2599 0.95293,-1.4294 0,-0.9096 -0.30321,-1.55933 -0.8663,-1.94917 -0.47646,-0.3032 -0.8663,-0.73635 -0.8663,-0.95293 0,-0.6064 1.7326,0.43315 2.9021,1.7326 z"
             id="path146" />
        </g>
        <g
           id="g153">
          <g
             id="outline-2">
            <path
               d="m 136.22594,150.93569 c 0.0433,0.64972 0.60641,1.38607 1.68928,2.16574 1.38608,0.95293 1.64597,1.34277 1.47271,2.25237 -0.17326,0.8663 0.0433,1.34277 0.90961,2.0358 0.82298,0.64973 1.12619,1.29945 1.12619,2.46896 0,0.99624 0.34652,1.90585 0.90961,2.55558 0.51978,0.51977 0.99624,1.55933 1.03956,2.29569 0.12994,1.42939 1.29944,3.03204 2.20906,3.03204 0.8663,0 1.12619,0.73635 0.51978,1.68928 -0.43315,0.69304 -0.43315,0.99625 0,1.42939 0.25989,0.25989 0.51978,0.8663 0.51978,1.25613 0,0.38983 0.3032,0.95293 0.64972,1.25613 0.38983,0.30321 0.60641,0.823 0.47646,1.1695 -0.3032,0.69305 0.38984,2.0358 1.90586,3.7251 0.56309,0.64971 1.03956,1.64596 1.08287,2.20905 0,0.56309 0.38984,1.42939 0.82298,1.94917 0.43315,0.47647 0.82299,1.47271 0.77967,2.20906 0,0.69304 0.12995,1.29945 0.25989,1.29945 0.38983,0 1.64597,2.38232 2.0358,3.7684 0.17326,0.56309 0.60641,0.99624 1.08288,0.99624 1.12618,0 1.60265,-2.77216 0.69303,-4.11492 -0.38983,-0.60641 -0.69303,-1.51602 -0.69303,-2.0358 0,-0.56309 -0.30321,-1.42939 -0.64973,-1.94917 -0.69304,-0.99624 -0.3032,-1.60265 0.82298,-1.1695 1.1695,0.43315 0.82299,-1.03956 -0.56309,-2.51227 -0.82298,-0.86629 -1.38608,-2.0358 -1.55934,-3.24861 -0.17326,-1.21282 -0.47646,-1.86254 -0.90961,-1.86254 -0.34652,0 -0.60641,0.34652 -0.60641,0.73634 -0.0433,0.64973 -0.17325,0.60642 -0.90961,-0.25988 -0.60641,-0.73635 -0.73635,-1.12619 -0.34652,-1.38608 0.3032,-0.17326 0.38983,-0.73635 0.21658,-1.4727 -0.21658,-0.8663 -0.0866,-1.34277 0.43314,-1.68929 0.64973,-0.47645 0.60641,-0.64972 -0.34652,-1.68928 -0.77966,-0.82297 -0.99624,-1.4727 -0.86629,-2.55557 0.12994,-1.21282 -0.12995,-1.77592 -1.81923,-3.59514 -1.08287,-1.21282 -1.99248,-2.46896 -1.99248,-2.81547 0,-1.25613 -5.45768,-6.1074 -10.04906,-8.92287 -0.17326,-0.12995 -0.34652,0.21658 -0.34652,0.77967 z"
               fill="#000000"
               id="path150" />
          </g>
        </g>
        <g
           id="g157">
          <path
             d="m 146.62152,161.89436 c 0.86629,1.03955 0.25988,1.21281 -0.64972,0.21657 -0.43316,-0.47646 -0.5631,-0.8663 -0.34653,-0.8663 0.25989,0 0.69304,0.30321 0.99625,0.64973 z"
             id="path155" />
        </g>
        <g
           id="g161">
          <path
             d="m 149.65356,171.46695 c 0,0.34652 -0.21658,0.51978 -0.43315,0.38984 -0.25989,-0.17326 -0.34652,-0.47647 -0.21657,-0.69304 0.38983,-0.60641 0.64972,-0.47647 0.64972,0.3032 z"
             id="path159" />
        </g>
        <g
           id="g166">
          <g
             id="outline-3">
            <path
               d="m 65.05955,158.47248 c -1.34276,0.8663 -1.645966,1.34276 -1.51602,2.25237 0.21657,1.7326 1.42939,1.68929 3.11867,-0.0866 0.77967,-0.8663 1.64597,-1.55934 1.94917,-1.55934 0.25989,0 0.47647,-0.38984 0.47647,-0.8663 0,-1.25613 -1.99249,-1.12619 -4.02829,0.25989 z"
               fill="#000000"
               id="path163" />
          </g>
        </g>
        <g
           id="g171">
          <g
             id="outline-4">
            <path
               d="m 234.3342,159.55535 c -0.38984,0.5631 1.1695,2.51227 1.99248,2.55558 0.34652,0 1.12619,0.47647 1.68928,1.08287 0.77967,0.82299 1.34277,1.03956 2.16574,0.8663 0.77968,-0.17326 1.51603,0.0433 2.25238,0.64973 1.34277,1.03955 2.5989,1.1695 2.25238,0.21657 -0.5631,-1.38608 0.69304,-0.5631 2.20906,1.51602 1.25613,1.68928 1.86254,2.16575 2.77215,2.16575 1.21283,0 2.64221,1.12618 2.64221,2.07911 0,0.64972 1.55934,0.69304 1.94917,0.0866 0.43315,-0.69304 1.42939,0.30321 2.16575,2.0358 0.34652,0.77967 0.9096,1.42939 1.29944,1.42939 0.90962,0 4.37481,3.42188 5.93416,5.89083 0.6497,1.03957 1.4727,1.90586 1.8192,1.90586 0.30322,0 0.90963,0.73635 1.25614,1.68928 0.38984,0.95293 1.03956,1.77591 1.55934,1.90585 0.5631,0.12995 0.90962,0.5631 0.90962,1.12619 0,0.51979 0.38983,1.25613 0.8663,1.64597 0.47646,0.43315 0.8663,1.03956 0.8663,1.34276 0,0.34652 0.25988,0.51978 0.5631,0.38983 0.47645,-0.17325 0.56308,-1.51602 0.17324,-2.90209 -0.64972,-2.12243 -0.86629,-2.5989 -1.1695,-2.5989 -0.17326,0 -0.43314,-0.73635 -0.60641,-1.64596 -0.17326,-1.16951 -0.56309,-1.81922 -1.25613,-2.12243 -0.5631,-0.25989 -1.60265,-1.68929 -2.42563,-3.33525 -1.25614,-2.46895 -1.64597,-2.85879 -2.64221,-2.85879 -1.16951,0 -2.5989,-1.12618 -2.5989,-2.07911 0,-0.30321 -0.38983,-0.51978 -0.8663,-0.51978 -0.47646,0 -1.03956,-0.34652 -1.1695,-0.77966 -0.69304,-1.86255 -2.46896,-3.98498 -3.33526,-3.98498 -0.56308,0 -1.29943,-0.60641 -1.94916,-1.51602 -1.1695,-1.7326 -2.07911,-1.94917 -2.29569,-0.5631 -0.12995,0.8663 -0.38983,0.64973 -1.99248,-1.51602 -1.38607,-1.81922 -2.07912,-2.42563 -2.64221,-2.25238 -0.38984,0.12995 -1.12619,-0.0866 -1.60266,-0.43314 -1.08287,-0.82298 -2.339,-0.82298 -2.339,0 0,0.64972 -0.69304,0.90961 -0.95293,0.3032 -0.0433,-0.17326 -0.77967,-0.77966 -1.55933,-1.29944 -1.34276,-0.95293 -1.47271,-0.99625 -1.99249,-0.30321 -0.47645,0.64973 -0.69304,0.69304 -1.60265,0.17326 -1.34276,-0.73635 -2.07911,-0.82298 -2.339,-0.34652 z"
               fill="#000000"
               id="path168" />
          </g>
        </g>
        <g
           id="g176">
          <g
             id="outline-5">
            <path
               d="m 67.485185,161.59115 c -1.126185,1.29945 -1.386075,1.99249 -1.429395,3.59514 0,2.51226 1.08288,3.24861 4.158234,2.81547 2.728836,-0.34652 4.764636,-1.94917 5.111156,-3.98497 0.38984,-1.99249 -0.38983,-2.94542 -2.988725,-3.59514 -2.815469,-0.69304 -3.335245,-0.60641 -4.85127,1.1695 z"
               fill="black"
               id="path173"
               style="fill:#000000;stroke-linejoin:round" />
          </g>
        </g>
        <g
           id="g181">
          <g
             id="outline-6">
            <path
               d="m 75.15192,160.63823 c 0,0.38983 0.60641,1.38607 1.29945,2.20906 l 1.34276,1.51601 -1.55933,1.38608 c -2.68553,2.46895 -1.602655,3.55182 2.339,2.38232 1.29945,-0.38983 1.81923,-0.8663 2.598895,-2.55558 l 0.996245,-2.07912 -0.909615,-1.7759 -0.909615,-1.77591 h -2.59889 c -2.12243,0 -2.5989,0.12994 -2.5989,0.69304 z"
               fill="#000000"
               id="path178" />
          </g>
        </g>
        <g
           id="g186">
          <g
             id="outline-7">
            <path
               d="m 62.15745,165.74938 c 0,1.51602 1.47271,3.89835 2.29569,3.59514 0.649726,-0.21657 0.77967,-2.51226 0.17326,-3.89834 -0.34652,-0.77967 -0.82298,-1.1695 -1.472705,-1.1695 -0.822985,0 -0.996245,0.21657 -0.996245,1.4727 z"
               fill="#000000"
               id="path183" />
          </g>
        </g>
        <g
           id="g191">
          <g
             id="outline-8">
            <path
               d="m 98.54197,169.17126 c 0,0.56309 0.17326,1.1695 0.38983,1.38608 0.17327,0.25989 0.47647,0.95293 0.64973,1.60265 0.21657,1.03956 0.12994,1.16951 -0.90961,1.29945 -1.60266,0.17326 -1.77592,1.77591 -0.60641,4.41812 1.03956,2.20906 1.1695,3.46519 0.38983,3.16198 -0.3032,-0.0866 -0.56309,-0.38983 -0.56309,-0.64972 0,-0.21657 -0.12995,-0.60641 -0.30321,-0.77967 -0.21657,-0.17325 -0.34652,-0.69304 -0.34652,-1.12618 0,-0.47647 -0.3032,-0.77967 -0.86629,-0.77967 -1.03956,0 -1.08288,0.64972 -0.25989,2.25237 0.34652,0.64973 0.47646,1.29945 0.3032,1.42939 -0.21657,0.0866 -0.56309,-0.3032 -0.8663,-0.90961 -0.47646,-1.08287 -1.68928,-1.21282 -1.42939,-0.17325 0.04332,0.25988 -0.3032,0.6064 -0.82298,0.73634 -0.73636,0.21658 -0.8663,0.47646 -0.64973,1.47271 0.17326,0.95293 0.08663,1.25613 -0.38983,1.25613 -0.47646,0 -0.64972,0.51978 -0.64972,1.94917 0,2.12243 -0.69304,2.64221 -1.12619,0.8663 -0.25989,-1.12618 -1.25613,-1.4727 -1.60265,-0.56309 -0.17326,0.38984 -0.34652,0.38984 -0.60641,0.12994 -0.60641,-0.73635 -3.68177,-0.64972 -4.98121,0.12995 -1.12619,0.64972 -1.29945,0.64972 -2.55558,-0.0866 -1.08288,-0.64972 -1.51603,-0.69304 -2.55558,-0.25989 -0.95293,0.38983 -1.38608,0.38983 -2.07912,-0.0433 -0.51978,-0.30321 -1.03956,-0.47646 -1.1695,-0.30321 -0.43315,0.43316 0.3032,2.51227 0.90961,2.51227 0.30321,0 0.736355,0.25989 0.909615,0.5631 0.303205,0.47646 1.472705,1.1695 2.29569,1.34276 0.129945,0.0433 0.433145,0.21657 0.736355,0.38983 0.25989,0.17326 0.82298,0.17326 1.21282,0.0433 0.38983,-0.17326 1.21281,-0.0433 1.77591,0.3032 0.95292,0.47647 1.1695,0.47647 1.51602,-0.0433 0.3032,-0.51977 0.47646,-0.51977 0.73635,-0.12995 0.25989,0.38984 0.73635,0.43315 1.81923,0.12995 0.99624,-0.30321 1.55933,-0.25989 1.73259,0.0433 0.38984,0.5631 2.38232,0.0866 3.07536,-0.73635 0.25989,-0.34653 0.8663,-0.60641 1.29945,-0.60641 0.47646,0 0.82298,-0.3032 0.82298,-0.64972 0,-0.34652 0.38984,-0.64973 0.8663,-0.64973 0.60641,0 0.8663,-0.3032 0.8663,-1.03955 0,-0.8663 0.17326,-0.99625 0.90961,-0.82299 0.82298,0.21657 0.90961,0.12995 0.60641,-1.21281 -0.12995,-0.82299 -0.38983,-1.81922 -0.47646,-2.25238 -0.12995,-0.38984 -0.04332,-0.73635 0.21657,-0.73635 0.25989,0 0.47646,0.30321 0.47646,0.64972 0,1.08287 1.64597,0.77967 1.81923,-0.34651 0.08663,-0.51979 0.38983,-0.90962 0.69304,-0.8663 0.3032,0.0866 0.51978,-0.34653 0.51978,-1.1262 0,-0.69303 0.25989,-1.34276 0.64972,-1.51602 0.34652,-0.12994 0.64972,-0.73635 0.64972,-1.34276 0,-0.60641 0.21658,-1.4727 0.51978,-1.90585 0.38984,-0.64973 0.34652,-1.34277 -0.3032,-3.33525 -0.47646,-1.42939 -0.82298,-2.64221 -0.8663,-2.77215 -0.12994,-1.51603 -2.38232,-1.77592 -2.38232,-0.30321 z"
               fill="#000000"
               id="path188" />
          </g>
        </g>
        <g
           id="g195">
          <path
             d="m 95.20672,183.63844 c 0.21658,1.1695 0.08663,1.77591 -0.3032,1.38608 -0.47646,-0.43315 -0.73635,-2.55558 -0.34652,-2.55558 0.21657,0 0.51978,0.51978 0.64972,1.1695 z"
             id="path193" />
        </g>
        <g
           id="g199">
          <path
             d="m 93.90728,186.93037 c -0.34652,0.5631 -0.99625,-0.12994 -0.99625,-1.12619 0,-0.86629 0,-0.86629 0.60641,-0.0866 0.34652,0.47647 0.51978,0.99625 0.38984,1.21282 z"
             id="path197" />
        </g>
        <g
           id="g204">
          <g
             id="outline-9">
            <path
               d="m 105.47236,186.4106 c 0,0.99624 0.25989,2.16574 0.56309,2.51226 0.3032,0.38984 0.95293,1.86254 1.42939,3.29194 0.43315,1.42938 1.42939,3.5085 2.20906,4.63468 0.77967,1.12619 1.4294,2.38232 1.4294,2.77216 0,0.8663 1.25613,0.64972 1.90585,-0.34652 0.34652,-0.56309 0.34652,-0.99624 -0.0433,-1.55934 -0.25988,-0.43315 -0.6064,-1.90585 -0.77966,-3.24861 -0.21658,-1.81923 -0.77967,-3.16199 -2.12243,-5.19779 -0.95293,-1.51602 -1.99249,-3.11868 -2.25238,-3.59514 -0.25989,-0.43314 -0.90961,-0.8663 -1.42939,-0.95293 -0.82298,-0.12994 -0.90961,0.0433 -0.90961,1.68929 z"
               fill="#000000"
               id="path201" />
          </g>
        </g>
        <g
           id="g209">
          <g
             id="outline-10">
            <path
               d="m 47.90685,189.78916 c -0.303206,0.21657 -0.69304,1.25613 -0.77967,2.38232 l -0.25989,1.99248 h 1.38608 c 1.212815,0 1.34276,0.12994 1.34276,1.29944 0,1.29946 0.563094,1.60266 1.60265,0.95294 0.303206,-0.17326 0.649725,-1.64597 0.822985,-3.29194 0.216575,-2.29569 0.173259,-3.03204 -0.303205,-3.33524 -0.77967,-0.47646 -3.032043,-0.47646 -3.81171,0 z"
               fill="#000000"
               id="path206" />
          </g>
        </g>
        <g
           id="g214">
          <g
             id="outline-11">
            <path
               d="m 100.27457,193.73081 c 0,0.73636 0.21657,1.68929 0.43315,2.16575 0.25989,0.47646 0.60641,1.21281 0.82298,1.68928 0.21657,0.43315 0.56309,2.20906 0.73635,3.89834 0.21658,2.42563 0.47647,3.2053 1.12619,3.55182 0.43315,0.21658 1.12619,1.21282 1.47271,2.16575 0.38983,0.90961 0.95293,1.68928 1.29945,1.68928 0.34651,0 0.6064,0.34652 0.6064,0.77967 0,0.99624 0.82299,1.81922 1.81923,1.81922 0.38983,0 0.90961,0.30321 1.12619,0.69304 0.21657,0.34652 1.1695,0.77967 2.16574,0.90961 1.42939,0.17326 1.86254,0.0866 2.07912,-0.47647 0.34652,-0.9096 -1.77591,-3.29192 -2.94542,-3.29192 -0.43314,0 -0.77966,-0.25988 -0.77966,-0.60641 0,-0.30321 -0.30321,-0.82298 -0.64973,-1.12619 -0.34652,-0.3032 -0.64972,-0.8663 -0.64972,-1.29945 0,-0.43314 -0.69304,-1.51602 -1.51602,-2.42563 -0.82299,-0.90961 -1.51603,-2.0358 -1.51603,-2.55558 0,-0.47646 -0.3032,-1.29945 -0.64972,-1.81922 -0.38983,-0.5631 -0.56309,-1.38608 -0.43315,-1.9925 0.21658,-0.73634 -0.17326,-1.51601 -1.38607,-3.03203 -1.94917,-2.38232 -3.16199,-2.68553 -3.16199,-0.73636 z"
               fill="#000000"
               id="path211" />
          </g>
        </g>
        <g
           id="g219">
          <g
             id="outline-12">
            <path
               d="m 147.57444,196.84948 c -0.3032,0.30322 -0.51978,0.95293 -0.51978,1.47272 0,1.03955 -2.38232,4.9379 -3.03204,4.9379 -0.17326,0 -0.47646,0.69303 -0.60641,1.51601 -0.34651,1.68929 -2.51226,3.50851 -3.98497,3.33525 -0.69304,-0.0866 -0.99624,0.17326 -1.21282,0.95294 -0.21657,0.9096 -0.51977,1.12618 -1.60265,1.12618 -0.95293,0 -1.38607,0.25988 -1.55933,0.82298 -0.12995,0.47646 -0.5631,0.90961 -1.03956,1.03956 -0.47647,0.12994 -0.82298,0.6064 -0.82298,1.08288 0,0.51977 -0.17326,1.03955 -0.43315,1.1695 -0.60641,0.38983 -0.51978,2.46894 0.21657,3.37855 0.77967,1.03955 2.07912,0.77967 2.38232,-0.47645 l 0.21657,-0.99625 0.73636,0.90961 c 0.99624,1.12619 2.07911,1.12619 2.07911,0 0,-0.56309 0.30321,-0.8663 0.8663,-0.8663 0.47647,0 0.99624,-0.3032 1.12619,-0.64972 0.17326,-0.34652 0.60641,-0.64973 0.99624,-0.64973 0.95293,0 1.77591,-0.82298 1.51602,-1.51601 -0.12994,-0.3032 0.25989,-0.90962 0.82299,-1.38608 0.69304,-0.51978 1.1695,-1.47272 1.38608,-2.68552 0.21657,-1.4294 0.6064,-2.0358 1.55933,-2.5989 0.73635,-0.43315 1.34277,-1.21282 1.51602,-1.99249 0.12995,-0.73635 0.47647,-1.55933 0.77967,-1.90585 0.25989,-0.34652 0.43315,-0.69304 0.38983,-0.73636 -0.0433,-0.0866 -0.0433,-0.38983 0.0433,-0.69304 0.38983,-1.25613 0.64973,-3.89834 0.38983,-4.50475 -0.25989,-0.73635 -1.51602,-0.77966 -2.20906,-0.0866 z"
               fill="#000000"
               id="path216" />
          </g>
        </g>
        <g
           id="g223">
          <path
             d="m 136.91898,214.39202 c -0.43315,0.43315 -0.82298,-0.21657 -0.43315,-0.77967 0.25989,-0.47645 0.34652,-0.47645 0.51977,0 0.0866,0.30321 0.0433,0.64973 -0.0866,0.77967 z"
             id="path221" />
        </g>
        <g
           id="g228">
          <g
             id="outline-13">
            <path
               d="m 272.6679,237.2623 c -0.69305,0.8663 -0.38985,4.24485 0.6497,6.49723 0.43316,0.95292 1.1262,2.51227 1.55935,3.5085 0.47645,0.95293 0.82298,2.07912 0.82298,2.51227 0,0.43315 0.47647,1.34276 1.08287,2.0358 0.64973,0.82298 1.1695,2.12243 1.34276,3.4652 0.25989,1.99248 0.38984,2.16574 1.29944,1.94916 1.0829,-0.3032 1.47272,0.12994 1.86255,2.07912 0.21658,1.03955 0.60641,1.42939 1.68928,1.73259 2.0358,0.5631 2.5989,-0.12994 1.86254,-2.25237 -1.03955,-3.03205 -1.81922,-4.41812 -2.46894,-4.41812 -0.38983,0 -0.77967,-0.38984 -0.90963,-0.8663 -0.25988,-0.99624 -1.42938,-1.1695 -1.42938,-0.21658 0,0.34652 -0.17326,0.64973 -0.43315,0.64973 -0.21657,0 -0.43315,-0.51978 -0.43315,-1.21283 0,-1.38607 -1.34276,-5.2411 -2.339,-6.62717 -0.38984,-0.56309 -0.69304,-1.55933 -0.69304,-2.20906 0,-0.73635 -0.30321,-1.34277 -0.8663,-1.64597 -0.64972,-0.34651 -0.82298,-0.82298 -0.69304,-2.51226 0.17326,-2.77214 -0.73634,-3.89834 -1.90584,-2.46894 z"
               fill="#000000"
               id="path225" />
          </g>
        </g>
        <g
           id="g233">
          <g
             id="outline-14">
            <path
               d="m 285.40247,257.57698 c -0.30321,0.73635 1.08287,2.81547 1.90585,2.85878 0.73636,0 0.64973,-1.34276 -0.17326,-2.51226 -0.77966,-1.08287 -1.38606,-1.21282 -1.73259,-0.34652 z"
               fill="#000000"
               id="path230" />
          </g>
        </g>
        <g
           id="g238">
          <g
             id="outline-15">
            <path
               d="m 221.98945,243.19643 c 0,0.77967 0.56309,1.29945 2.339,2.20907 2.42565,1.29944 5.19779,3.68176 3.50851,3.07535 -0.47646,-0.17325 -1.81923,-0.99625 -2.98873,-1.77591 -1.4727,-0.99624 -2.29569,-1.29944 -2.59889,-0.99624 -0.25989,0.2599 -0.12994,0.73635 0.47646,1.38607 0.77967,0.8663 0.82299,1.08288 0.3032,1.55933 -0.5631,0.47647 -0.47646,0.73636 0.34653,1.77592 0.56309,0.64973 1.73259,1.64598 2.59889,2.20906 0.8663,0.5631 2.0358,1.68928 2.59889,2.55558 1.25614,1.94917 2.94542,2.38232 2.94542,0.73634 0,-0.6064 0.21657,-1.12617 0.43315,-1.12617 0.99624,0 0.38982,-2.46895 -0.8663,-3.68177 -0.69304,-0.69304 -1.29945,-1.47271 -1.25613,-1.68928 0,-0.25988 0.12995,-0.21658 0.25989,0.0866 0.25989,0.64973 2.42563,1.81923 3.37856,1.81923 0.99624,0 0.77967,-1.21281 -0.3032,-1.77591 -0.5631,-0.3032 -1.94918,-1.38607 -3.11868,-2.42562 -1.12619,-0.99625 -2.339,-1.86255 -2.68552,-1.86255 -0.34652,0 -0.6064,-0.21658 -0.6064,-0.43315 0,-0.2599 -0.21659,-0.43315 -0.5198,-0.43315 -0.25988,0 -1.12618,-0.47645 -1.90585,-1.08287 -1.73259,-1.34276 -2.339,-1.38608 -2.339,-0.12995 z"
               fill="#000000"
               id="path235" />
          </g>
        </g>
        <g
           id="g242">
          <path
             d="m 227.83696,250.86317 c 0.95294,0.73635 2.12244,1.64597 2.55558,1.99249 0.47646,0.34652 0.69304,0.77966 0.51978,0.95292 -0.17326,0.21658 -0.56309,0 -0.8663,-0.43315 -0.3032,-0.38983 -0.69304,-0.73635 -0.8663,-0.73635 -0.17326,0 -0.60641,-0.25988 -0.90962,-0.56308 -1.25612,-1.08288 -1.81922,-1.51603 -2.72883,-1.9925 -0.51977,-0.2599 -0.95293,-0.69304 -0.95293,-0.95293 0,-0.51977 0.99625,0 3.24862,1.7326 z"
             id="path240" />
        </g>
        <g
           id="g247">
          <g
             id="outline-16">
            <path
               d="m 223.72204,253.2888 c 0,0.34652 0.8663,1.51603 1.94918,2.55558 2.29568,2.29569 2.72883,3.89835 0.69303,2.46895 -1.60265,-1.12618 -2.20905,-1.1695 -2.20905,-0.0433 0,0.47646 0.21657,0.8663 0.47646,0.8663 0.90961,0 2.98873,2.42563 3.24862,3.76838 0.17326,1.03957 0.51977,1.4294 1.08287,1.4294 1.25613,0 1.42939,-0.99624 0.43315,-2.72883 l -0.8663,-1.55934 1.25613,0.25989 c 2.20907,0.43315 1.55934,-1.03956 -1.90585,-4.46144 -3.20531,-3.2053 -4.15824,-3.76838 -4.15824,-2.55558 z"
               fill="#000000"
               id="path244" />
          </g>
        </g>
      </g>
    </g>
  </g>
</svg>
