<?xml version="1.0" encoding="utf-8"?>
<svg xmlns="http://www.w3.org/2000/svg" xmlns:dc="http://purl.org/dc/elements/1.1/"
     xmlns:xl="http://www.w3.org/1999/xlink"
     xmlns:xlink="http://www.w3.org/1999/xlink"
     version="1.1"
     viewBox="33.75 60.95833 297 290.04167"
     width="297"
     height="290.04167"
     preserveAspectRatio="xMidYMid meet"
     zoomAndPan="magnify"
     contentScriptType="application/ecmascript"
     contentStyleType="text/css">
   <defs/>
   <metadata xmlns="" xmlns:svg="http://www.w3.org/2000/svg"
             xmlns:rdf="http://www.w3.org/1999/02/22-rdf-syntax-ns#"
             xmlns:cc="http://creativecommons.org/ns#">
      <rdf:RDF>
         <cc:Work rdf:about="">
            <dc:creator>
               <cc:Agent>
                  <dc:title>http://heraldicart.org Bull Passant Guardant.svg</dc:title>
               </cc:Agent>
            </dc:creator>
         </cc:Work>
      </rdf:RDF>
   </metadata>
   <g stroke-opacity="1" stroke-dasharray="none" stroke="#505050" fill="#ffff00"
      fill-opacity="1">
      <title>Bull Passant Guardant</title>
      <g>
         <title>Layer 2</title>
         <g>
            <g>
               <g  id="outline-0">
                  <path
                        d="M 76.93291 68.59007 C 76.93291 72.69835 74.78095 77.00226 70.085775 82.0887 C 60.69542 92.65285 57.565305 99.49998 58.7391 106.93401 C 59.71726 113.19424 59.52163 113.38987 51.10944 114.56367 C 46.21863 115.3462 40.740923 115.3462 38.7846 114.56367 C 33.502526 112.41171 35.850115 115.9331 44.8492 124.14965 C 49.348746 128.0623 54.63082 131.38805 56.97841 131.38805 C 60.108525 131.38805 61.08669 133.14874 62.06485 141.9522 C 63.23864 150.16875 64.60807 153.29887 68.32508 155.64646 C 72.628996 158.58095 73.02026 160.146 73.02026 172.2752 C 73.02026 181.8612 73.80279 186.36074 75.954745 188.12143 C 77.91107 189.88212 78.88923 194.38166 78.88923 202.59822 C 78.88923 209.0541 79.86739 215.90122 80.84555 217.46628 C 83.78004 222.16146 70.085775 232.92124 51.5007 240.35527 C 47.19679 242.11596 46.022997 244.65918 42.89288 260.70103 C 37.02391 290.2415 36.828276 292.78473 41.523453 297.4799 C 43.87104 299.8275 45.240467 302.56635 44.65357 303.5445 C 41.914717 308.04406 58.93473 330.54178 63.04301 327.99856 C 67.34692 325.45534 68.71635 302.9576 64.999334 298.45807 C 63.82554 296.893 64.02117 294.3498 65.3906 291.21968 C 66.95566 287.89393 66.95566 285.3507 65.58623 282.61185 C 64.41244 280.4599 64.02117 273.61276 64.60807 266.76563 L 65.78186 254.63643 L 74.97658 254.63643 C 81.43245 254.63643 85.73636 253.46263 89.45338 250.52815 C 95.32235 246.0286 97.27867 246.6155 101.38695 254.83206 C 103.14764 257.96218 107.64719 262.65735 111.75546 265.20057 C 121.92835 271.65644 126.81916 285.9376 125.44973 306.28337 C 124.6672 319.39073 123.68904 322.1296 117.03754 331.71557 C 107.84282 345.2142 108.62535 349.12685 120.36329 347.95306 C 135.81824 346.19236 143.25227 340.51903 143.4479 330.1505 C 143.4479 326.62913 145.40423 322.1296 148.72998 318.80384 L 154.01205 313.32613 L 150.6863 303.93578 C 147.36055 294.15416 147.75182 273.02587 151.66446 265.78747 C 154.01205 261.0923 175.14034 251.31068 186.29139 249.55 L 194.70358 248.18056 L 191.57346 253.07137 C 188.63898 257.37528 188.63898 258.1578 191.1822 259.13597 C 192.94289 259.9185 194.70358 259.52724 195.29048 258.54907 C 196.073 257.37528 197.63806 256.59275 199.0075 256.59275 C 200.96381 256.59275 201.35508 258.94034 200.57255 265.59184 C 199.79002 272.43897 200.57255 275.5691 203.50703 279.67737 L 207.41968 284.95944 L 201.5507 297.28428 C 198.4206 304.1314 193.92105 310.58728 191.57346 311.76107 C 186.48702 314.3043 174.74908 325.2597 174.74908 327.41166 C 174.74908 329.95488 185.31323 334.2588 189.4215 333.47626 C 201.35508 331.12867 206.44152 328.1942 208.2022 323.10775 C 209.9629 318.41257 218.3751 312.15234 222.28774 312.93487 C 223.07027 313.1305 223.65717 310.00038 223.65717 305.8921 C 223.65717 296.1105 231.0912 281.6337 237.7427 278.50357 C 240.8728 277.13415 243.2204 275.17782 243.2204 274.00403 C 243.2204 270.09138 246.35052 272.6346 251.6326 280.85116 C 261.4142 296.3061 257.30593 309.80475 236.96017 329.368 C 225.0266 340.71466 224.04843 344.6273 232.65625 344.6273 C 235.59074 344.6273 237.35143 345.8011 237.35143 347.5618 C 237.35143 351.47444 238.9165 351.2788 250.85006 346.19236 C 260.04478 342.47535 261.21858 341.30156 263.37053 333.47626 C 264.73996 327.99856 266.69628 325.06407 268.6526 325.06407 C 270.4133 325.06407 273.73905 323.30338 275.891 321.34706 C 279.21675 318.21694 279.99928 315.28245 279.80365 305.50084 C 279.80365 295.5236 280.39055 293.176 283.91193 290.63278 C 289.194 286.91576 289.194 283.98128 284.3032 274.19966 C 278.04296 261.87482 279.4124 243.28975 288.41147 220.40077 C 289.7809 216.68375 289.97653 216.68375 289.97653 220.79203 C 290.17216 227.44353 301.3232 238.98584 307.58344 238.98584 C 314.23494 238.98584 322.06024 231.16055 326.36415 220.0095 C 331.4506 207.09777 327.3423 189.49086 315.2131 171.29705 C 309.93103 163.47175 305.82275 155.2552 305.82275 152.9076 C 305.82275 150.36439 308.5616 143.71289 311.88735 137.84392 C 317.95196 127.27977 317.95196 127.27977 315.40874 114.56367 C 313.84368 106.54274 311.69172 101.06504 309.53977 100.08687 C 307.77907 99.10871 303.86643 94.2179 300.93194 89.13146 C 297.21493 82.87123 295.06297 80.71927 293.69355 82.0887 C 292.1285 83.65376 292.51975 85.80571 295.06297 89.52273 C 298.97562 95.3917 298.1931 110.65102 293.10665 124.54092 C 287.4333 140.38714 291.5416 168.75383 299.75815 171.49268 C 304.45332 173.05774 317.5607 195.35983 317.5607 202.01133 C 317.5607 205.14144 315.8 211.40168 313.4524 215.90122 C 308.17034 226.26974 305.62712 223.72652 303.47516 206.31524 C 302.10574 194.38166 301.3232 192.42534 294.86734 186.55637 C 281.56434 174.81843 257.1103 166.99314 228.1567 165.62371 C 182.37874 163.47175 159.0985 158.58095 136.2095 146.45174 C 124.27593 140.1915 124.86283 135.69196 138.5571 129.43173 C 150.0994 124.14965 152.05573 121.60643 144.6217 121.60643 C 137.9702 121.60643 134.84008 117.10689 137.57893 111.82482 C 140.70905 105.95584 140.31779 92.65285 136.7964 84.24065 C 134.64445 78.95858 134.25318 75.4372 135.62261 70.54639 C 136.60077 67.02501 137.18767 63.69926 136.60077 63.30799 C 134.84008 61.5473 129.55801 67.611905 126.62352 74.45904 C 124.0803 80.52364 123.88467 83.06686 126.03663 92.06595 C 128.38421 101.65193 128.18858 102.82573 124.86283 105.17332 C 120.16766 108.6947 118.0157 108.6947 118.0157 105.17332 C 118.0157 103.60826 116.45064 101.84757 114.68995 101.06504 C 109.01661 98.71745 87.88832 98.32618 85.3451 100.47814 C 83.97567 101.65193 82.80188 101.84757 82.80188 101.06504 C 82.80188 100.28251 81.43245 100.67377 79.86739 102.0432 C 73.80279 107.12964 74.19405 101.4563 80.84555 89.52273 C 86.51889 78.76295 87.10579 76.21973 85.54073 70.54639 C 82.99751 61.742935 76.93291 60.37351 76.93291 68.59007 Z"
                        fill="black"/>
               </g>
            </g>
            <g>
               <path d="M 81.62808 77.00226 C 81.04119 80.52364 78.30233 86.58824 75.75911 90.30526 C 71.06394 97.15239 70.085775 102.82573 72.23773 108.6947 C 73.80279 112.60734 78.88923 112.80298 78.88923 108.89033 C 78.88923 107.32527 80.06302 105.95584 81.62808 105.95584 C 85.73636 105.95584 82.60625 118.47631 78.30233 119.25884 C 73.411525 120.237 65.3906 114.56367 63.23864 108.6947 C 60.69542 102.43446 63.04301 96.95676 72.82463 85.61008 C 77.32417 80.52364 80.84555 75.04593 80.84555 73.480875 C 80.84555 71.91582 81.43245 70.74202 82.01935 70.74202 C 82.60625 70.74202 82.41061 73.67651 81.62808 77.00226 Z"/>
            </g>
            <g>
               <path d="M 135.03571 105.17332 C 133.47065 111.23792 130.7318 115.73746 127.40605 118.28068 C 120.95018 122.97586 119.97202 122.38896 121.34145 115.15056 C 121.92835 111.82482 123.68904 109.86849 125.841 109.86849 C 131.70996 109.86849 133.86192 97.93492 129.55801 89.91399 C 128.38421 87.76204 127.99295 83.65376 128.77548 80.9149 C 129.94927 76.0241 130.34054 76.41536 133.66629 86.00135 C 136.7964 94.60917 136.99204 97.54365 135.03571 105.17332 Z"/>
            </g>
            <g>
               <path d="M 105.69086 105.36895 C 106.27776 104.58642 108.03845 104.97768 109.60351 106.15148 C 110.97294 107.32527 112.14673 107.71654 112.14673 106.73837 C 112.14673 105.95584 113.32052 106.93401 114.88558 108.89033 C 116.45064 111.04229 117.03754 113.97677 116.45064 115.54183 C 115.66811 117.69379 115.08121 117.30252 113.90742 114.1724 C 111.75546 108.49907 106.86466 108.6947 105.10396 114.1724 L 103.5389 118.67195 L 102.56074 114.1724 C 101.19132 108.6947 97.66994 108.30343 96.88741 113.19424 C 95.51798 119.84574 92.5835 120.62827 92.5835 114.1724 C 92.5835 109.86849 91.60533 107.91217 89.45338 107.91217 C 87.88832 107.91217 87.10579 106.93401 87.69269 105.95584 C 88.47522 104.78205 90.62717 104.39079 92.5835 104.97768 C 94.53982 105.56458 96.69177 105.17332 97.4743 103.99952 C 98.45247 102.43446 99.62626 102.43446 101.58258 104.19515 C 103.14764 105.36895 104.90833 105.95584 105.69086 105.36895 Z"/>
            </g>
            <g>
               <path d="M 306.0184 120.62827 C 306.99655 119.84574 307.77907 115.73746 307.77907 111.23792 C 307.9747 104.39079 308.17034 103.60826 310.12666 106.73837 C 311.4961 109.2816 311.4961 112.41171 309.93103 117.69379 C 306.99655 127.67103 307.3878 131.38805 310.71356 125.51908 C 312.47425 122.38896 313.4524 121.80206 313.64804 123.75839 C 313.64804 125.32345 310.9092 130.99678 307.77907 136.08323 C 299.3669 149.1906 299.17125 157.01589 306.8009 165.81934 C 309.53977 168.94946 314.6262 176.97039 317.95196 183.62189 C 323.42966 194.77293 323.82093 197.12052 323.0384 209.83662 C 322.06024 221.57456 321.08207 224.50905 316.3869 229.39985 C 313.4524 232.52997 309.53977 235.0732 307.58344 235.0732 C 302.10574 235.0732 295.06297 224.70468 292.32412 212.37984 C 288.80274 196.72925 288.6071 195.94672 286.8464 195.94672 C 285.86825 195.94672 285.08572 201.03316 284.8901 207.09777 C 284.8901 213.358 283.32503 221.96583 281.56434 226.26974 C 274.52158 244.46355 268.26134 282.02496 272.36962 282.02496 C 273.5434 282.02496 274.52158 278.30794 274.52158 273.61276 L 274.7172 265.3962 L 279.60802 275.17782 C 284.3032 284.1769 284.3032 284.95944 281.17308 287.30703 C 279.21675 288.67646 276.86916 289.85025 275.891 289.85025 C 274.91284 289.85025 274.32594 292.78473 274.7172 296.3061 C 274.91284 299.63187 274.91284 306.28337 274.7172 310.7829 C 274.52158 318.21694 273.93468 319.1951 269.8264 319.1951 C 264.15306 319.1951 261.21858 322.52085 259.65352 330.54178 C 258.2841 337.19328 254.37144 341.4972 247.71994 343.4535 C 242.6335 345.01857 241.85097 342.47535 246.1549 338.75834 C 247.71994 337.3889 249.08937 335.23695 249.08937 333.6719 C 249.08937 331.71557 247.32868 332.10684 242.24224 335.04132 C 233.04752 340.51903 233.43878 336.2151 242.82914 329.5636 C 247.91558 325.8466 252.61075 319.58637 257.6972 309.4135 L 265.13122 294.74106 L 261.60984 288.67646 C 259.4579 285.3507 255.15397 278.30794 251.6326 273.2215 C 248.30684 267.93943 244.3942 259.9185 243.2204 255.41896 C 241.85097 250.9194 238.52522 244.2679 235.59074 240.94216 L 230.5043 234.68193 L 205.46336 234.87756 C 184.5307 234.87756 178.85736 235.6601 171.2277 238.98584 C 163.79367 242.3116 162.61987 243.48538 165.1631 245.05044 C 167.31505 246.22424 170.6408 245.83297 174.94471 244.07228 C 178.66173 242.50722 186.48702 240.74653 192.356 239.964 C 201.74634 238.59457 202.7245 238.7902 200.57255 241.33343 C 199.20312 243.09412 193.33415 244.8548 187.46518 245.4417 C 181.59621 246.0286 171.8146 248.76746 165.75 251.5063 C 159.68539 254.24516 154.01205 256.59275 153.03389 256.59275 C 150.6863 256.59275 154.40332 247.59366 159.88102 240.35527 C 165.94562 232.1387 167.70632 226.26974 165.1631 221.96583 C 163.20677 218.64008 163.20677 218.64008 163.01114 222.16146 C 163.01114 225.68284 147.94745 252.6801 146.18676 252.6801 C 145.59986 252.6801 145.7955 250.52815 146.57802 247.7893 C 147.36055 244.2679 146.96929 242.8985 144.81733 242.8985 C 143.25227 242.8985 141.49158 244.07228 140.90468 245.4417 C 139.144 249.94125 141.88285 258.54907 144.81733 258.54907 C 146.96929 258.54907 147.55618 259.9185 146.77365 262.853 C 146.18676 265.3962 145.01296 274.19966 144.23043 282.41622 C 143.25227 294.15416 143.64354 299.2406 145.99113 305.3052 L 149.12124 313.1305 L 143.25227 317.4344 C 138.16583 320.9558 137.57893 322.52085 138.5571 327.41166 C 139.53526 331.9112 138.94836 334.2588 135.42698 337.9758 C 131.3187 342.47535 122.31961 344.82294 124.86283 340.71466 C 126.42789 338.17144 124.6672 338.17144 119.77639 340.71466 C 114.49432 343.64914 115.08121 341.69282 122.51524 331.51994 C 128.18858 323.30338 128.77548 321.34706 129.55801 305.10957 C 129.94927 292.78473 129.36238 285.15507 127.21042 279.48173 C 123.88467 270.09138 121.14582 250.9194 121.14582 234.4863 C 120.95018 225.29158 120.36329 223.33525 117.62443 223.33525 C 115.66811 223.33525 112.73363 221.1833 110.97294 218.44444 C 107.84282 213.55363 104.32144 211.98858 104.32144 215.31433 C 104.32144 216.2925 106.86466 219.81387 109.99477 222.944 C 114.68995 227.44353 115.86374 230.57365 116.25501 238.59457 C 116.8419 250.52815 115.27685 253.267 112.538 245.05044 C 110.38604 238.7902 105.49523 236.247 107.45155 242.3116 C 109.99477 250.13688 112.92926 254.4408 116.25501 255.22332 C 119.38513 256.00585 121.92835 262.46172 118.99386 262.46172 C 112.34236 262.46172 102.36511 251.5063 102.36511 244.2679 C 102.36511 242.3116 100.80005 241.7247 97.66994 242.3116 L 92.77913 243.28975 L 92.19223 218.8357 L 91.60533 194.38166 L 97.86557 192.42534 L 103.93017 190.46902 L 100.01752 199.66374 C 97.08304 206.51087 96.49614 211.40168 97.27867 219.4226 C 97.86557 225.29158 98.25683 230.9649 98.25683 231.74744 C 98.45247 232.7256 99.43063 233.11687 100.80005 232.7256 C 102.36511 232.1387 102.95201 227.44353 102.56074 218.8357 C 102.16948 205.72834 106.08213 190.27339 111.3642 184.79568 C 112.73363 183.42625 113.71179 178.33981 113.71179 173.64464 C 113.71179 162.4936 115.66811 156.82025 119.1895 156.82025 C 120.75455 156.82025 123.29777 153.88577 124.86283 150.36439 C 126.42789 147.03864 127.60168 145.47358 127.60168 147.03864 C 126.81916 159.95037 127.99295 174.42717 129.94927 173.449 C 131.3187 172.47084 131.70996 167.3844 130.92743 159.5591 C 130.34054 152.12508 130.7318 147.03864 131.70996 147.03864 C 132.88376 147.03864 133.66629 152.71198 133.66629 159.5591 C 133.66629 166.7975 134.64445 172.8621 135.81824 173.64464 C 137.3833 174.6228 137.57893 172.07958 136.60077 165.03681 C 135.03571 153.88577 136.40514 149.58186 140.51342 152.9076 C 144.42607 156.23336 170.44517 164.44992 180.42242 165.62371 C 195.4861 167.3844 214.46245 169.1451 243.2204 171.49268 C 256.71903 172.47084 282.5425 181.8612 291.15033 188.70833 C 296.82366 193.20787 297.99746 195.55546 298.97562 205.14144 C 300.54068 217.85755 305.04022 229.20422 308.75724 229.20422 C 312.47425 229.20422 321.47334 210.81478 321.47334 202.79386 C 321.47334 194.5773 310.3223 172.8621 304.06206 168.94946 C 294.86734 163.47175 291.34596 142.14783 297.0193 126.49724 C 298.58435 122.19333 300.54068 114.7593 301.3232 109.86849 L 302.88827 101.06504 L 303.47516 111.43355 C 303.86643 117.30252 304.8446 121.21517 306.0184 120.62827 Z"/>
            </g>
            <g>
               <path d="M 60.891055 118.86758 C 65.58623 120.237 66.95566 123.56276 62.651746 123.56276 C 59.71726 123.56276 51.5007 117.88942 54.43519 117.69379 C 55.60898 117.69379 58.347834 118.28068 60.891055 118.86758 Z"/>
            </g>
            <g>
               <path d="M 96.49614 131.38805 C 97.66994 131.38805 98.45247 129.2361 98.45247 126.49724 C 98.45247 123.75839 99.43063 121.60643 100.40879 121.60643 C 103.5389 121.60643 102.75638 130.01862 99.235 135.10506 C 96.10488 139.40898 96.30051 139.6046 99.62626 138.82208 C 101.77822 138.43081 104.32144 135.49633 105.49523 131.77931 C 107.25592 126.30161 107.84282 125.71471 109.79914 128.0623 C 111.75546 130.40989 111.16857 131.97495 106.86466 136.67012 C 101.77822 142.14783 101.38695 143.32162 101.97385 157.01589 C 102.56074 168.36256 103.5389 171.88395 106.47339 174.0359 C 111.55983 177.55728 111.16857 182.05683 105.49523 184.20878 C 102.95201 185.18694 100.21316 186.94764 99.43063 187.9258 C 97.4743 191.25155 90.62717 190.46902 83.58441 185.96947 C 75.56348 181.07867 75.17222 176.38349 82.60625 172.2752 C 87.49705 169.34072 88.27958 167.58003 89.06211 157.60278 C 89.84464 147.62553 89.45338 145.27795 84.95383 138.82208 C 79.67176 131.38805 75.36785 128.84483 77.91107 134.7138 C 78.6936 136.67012 79.2805 140.38714 79.08486 142.73473 C 78.88923 146.06048 80.25866 147.82117 82.99751 148.40806 C 86.51889 149.38623 87.10579 150.56002 86.12763 157.60278 C 85.54073 161.9067 83.38877 166.60187 81.43245 168.16693 C 78.30233 170.51452 77.91107 170.12325 77.32417 164.25428 C 76.93291 160.34164 74.97658 156.23336 72.0421 153.88577 C 68.52072 150.95128 66.95566 147.4299 66.56439 141.16967 C 65.3906 128.45356 68.32508 123.17149 75.75911 123.75839 C 79.08486 124.14965 83.58441 123.36712 85.73636 121.9977 C 89.06211 120.04137 90.04027 120.62827 92.19223 125.51908 C 93.36602 128.84483 95.51798 131.38805 96.49614 131.38805 Z"/>
            </g>
            <g>
               <path d="M 134.84008 125.12781 C 130.53617 126.10598 128.97111 124.54092 130.7318 121.60643 C 131.70996 120.04137 132.88376 120.237 135.03571 121.9977 C 137.9702 124.34529 137.77457 124.54092 134.84008 125.12781 Z"/>
            </g>
            <g>
               <path d="M 122.90651 135.69196 C 121.34145 141.16967 120.36329 146.2561 120.55892 147.03864 C 120.75455 147.82117 118.6026 150.75565 115.66811 153.4945 C 112.34236 156.42899 110.1904 160.7329 110.1904 163.66739 C 110.1904 166.40624 109.40788 168.5582 108.23408 168.5582 C 104.90833 168.5582 105.8865 147.62553 109.21224 146.2561 C 110.7773 145.66921 112.14673 143.12599 112.14673 140.7784 C 112.34236 135.69196 116.45064 129.43173 119.77639 129.43173 C 120.95018 129.43173 121.92835 128.45356 121.92835 127.4754 C 121.92835 126.30161 122.71088 125.51908 123.68904 125.51908 C 124.6672 125.51908 124.27593 130.01862 122.90651 135.69196 Z"/>
            </g>
            <g>
               <path d="M 89.45338 204.16328 C 90.23591 208.66283 89.84464 213.16237 88.86648 214.14053 C 85.14947 217.85755 82.80188 212.96674 82.80188 201.2288 C 82.99751 190.66465 83.19314 189.49086 85.54073 192.62097 C 86.91016 194.38166 88.67085 199.66374 89.45338 204.16328 Z"/>
            </g>
            <g>
               <path d="M 88.67085 236.05135 C 88.67085 245.83297 88.27958 247.00677 83.58441 248.76746 C 80.84555 249.94125 75.17222 250.72378 71.06394 250.72378 C 66.95566 250.72378 62.84738 251.5063 62.26048 252.6801 C 61.673584 253.65827 60.891055 262.2661 60.69542 271.65644 C 60.30416 281.24243 59.52163 290.04588 58.54347 291.4153 C 57.76094 292.78473 58.347834 295.91485 60.108525 298.6537 C 61.86922 301.19693 63.23864 306.28337 63.23864 309.80475 C 63.04301 315.08682 62.84738 315.6737 61.08669 312.73923 C 60.108525 310.97854 58.347834 309.4135 57.36967 309.4135 C 56.19588 309.4135 55.41335 310.97854 55.41335 312.73923 C 55.41335 315.6737 54.63082 315.28245 51.5007 311.3698 C 49.348746 308.63095 47.78369 305.10957 47.97932 303.5445 C 48.17495 301.97945 46.805526 298.0668 44.8492 295.13232 C 41.13219 289.6546 41.13219 289.26335 45.63173 268.72196 C 47.97932 257.17965 50.913805 246.6155 51.89197 245.24607 C 53.06576 244.07228 56.782776 242.8985 60.108525 242.8985 C 64.60807 242.8985 68.32508 240.74653 74.78095 234.09503 C 86.51889 222.3571 88.67085 222.55272 88.67085 236.05135 Z"/>
            </g>
            <g>
               <path d="M 231.0912 241.52906 C 235.3951 244.8548 233.63442 245.83297 222.87464 246.22424 C 217.2013 246.22424 209.57164 247.98493 206.05026 249.74562 C 202.7245 251.5063 199.39876 252.6801 199.0075 252.28884 C 198.61623 251.89757 200.57255 248.3762 203.3114 244.46355 C 208.39784 237.42078 208.7891 237.22515 218.57073 238.39894 C 224.04843 238.98584 229.72177 240.35527 231.0912 241.52906 Z"/>
            </g>
            <g>
               <path d="M 208.59348 258.35344 C 207.61531 261.87482 208.39784 262.07046 217.98383 261.28793 C 228.35234 260.11413 228.54797 260.30977 232.06936 266.57 C 235.59074 272.83024 235.59074 273.02587 231.6781 276.9385 L 227.5698 280.85116 L 229.3305 274.59093 C 230.30867 271.06954 231.0912 268.3307 230.89556 268.13506 C 223.2659 265.00494 222.28774 267.1569 220.91831 289.85025 C 219.74452 307.6528 216.6144 314.10866 211.1367 309.6091 C 208.00658 307.0659 207.22405 307.84843 205.26773 316.2606 C 203.3114 323.89028 200.57255 327.0204 195.68174 327.0204 C 191.96473 327.0204 191.7691 326.82476 195.29048 323.10775 C 197.2468 320.9558 198.4206 318.6082 197.63806 318.0213 C 197.05117 317.4344 199.98565 310.39165 204.28956 302.37072 C 213.09302 285.54634 213.48428 283.00312 207.81095 276.9385 C 204.28956 273.2215 203.8983 271.06954 204.87646 263.6355 C 205.659 258.7447 207.02842 254.63643 208.00658 254.63643 C 208.7891 254.63643 209.18037 256.39712 208.59348 258.35344 Z"/>
            </g>
            <g>
               <path d="M 240.67718 266.76563 C 240.09028 268.13506 239.69902 267.1569 239.69902 264.41804 C 239.69902 261.6792 240.09028 260.70103 240.67718 261.87482 C 241.06844 263.24425 241.06844 265.59184 240.67718 266.76563 Z"/>
            </g>
            <g>
               <path d="M 194.31231 318.80384 C 194.31231 319.782 192.16036 321.5427 189.4215 322.7165 C 183.74817 325.2597 182.96564 323.69464 188.05208 319.97763 C 191.96473 317.04315 194.31231 316.45625 194.31231 318.80384 Z"/>
            </g>
            <g>
               <g  id="outline-1">
                  <path
                        d="M 248.30684 193.20787 C 245.76362 199.66374 246.93742 207.48903 250.65443 207.2934 C 252.41512 207.2934 255.74087 207.68466 258.08846 208.27156 C 263.95743 209.641 275.49974 206.90213 275.49974 204.16328 C 275.49974 202.79386 274.7172 201.8157 273.73905 202.01133 C 272.7609 202.01133 271.39146 201.42443 270.80456 200.44627 C 270.21766 199.66374 266.69628 197.90305 263.37053 196.53362 C 257.1103 194.38166 256.91466 194.5773 256.71903 199.4681 C 256.32777 204.55455 256.32777 204.55455 255.54524 200.055 C 254.95834 197.51178 253.39328 194.18603 252.02386 192.8166 C 249.8719 190.66465 249.285 190.66465 248.30684 193.20787 Z"
                        fill="black"/>
               </g>
            </g>
            <g>
               <g  id="outline-2">
                  <path
                        d="M 142.46974 231.16055 C 141.68721 232.33434 148.33871 240.94216 150.0994 240.94216 C 150.6863 240.94216 151.2732 238.39894 151.2732 235.26882 C 151.2732 230.57365 150.49067 229.5955 147.16492 229.79112 C 145.01296 229.98675 142.861 230.57365 142.46974 231.16055 Z"
                        fill="black"/>
               </g>
            </g>
            <g>
               <g  id="outline-3">
                  <path
                        d="M 86.71452 135.49633 C 89.06211 139.99587 91.4097 143.12599 91.9966 142.5391 C 93.95292 140.58277 88.27958 127.4754 85.54073 127.4754 C 83.38877 127.4754 83.58441 129.04046 86.71452 135.49633 Z"
                        fill="black"/>
               </g>
            </g>
            <g>
               <g  id="outline-4">
                  <path
                        d="M 79.86739 176.38349 C 78.30233 179.12234 80.45429 182.25246 83.97567 182.25246 C 85.54073 182.25246 86.71452 183.03499 86.71452 184.01315 C 86.71452 188.31706 94.53982 188.12143 100.80005 183.81752 C 104.32144 181.2743 107.64719 179.12234 108.03845 178.73108 C 108.62535 178.53544 107.84282 177.16602 106.66902 175.99222 C 104.90833 174.23153 103.34327 174.6228 99.82189 177.94855 C 94.14855 183.23062 91.4097 183.42625 88.67085 178.33981 C 86.51889 174.23153 81.82372 173.05774 79.86739 176.38349 Z"
                        fill="black"/>
               </g>
            </g>
            <g>
               <g  id="outline-5">
                  <path
                        d="M 53.261393 270.287 C 52.478864 278.30794 52.28323 285.3507 52.674496 285.74197 C 54.82645 288.08956 55.60898 283.19875 55.022084 270.09138 L 54.43519 255.6146 L 53.261393 270.287 Z"
                        fill="black"/>
               </g>
            </g>
         </g>
      </g>
   </g>
</svg>