<?xml version="1.0" encoding="utf-8"?>
<svg xmlns="http://www.w3.org/2000/svg" xmlns:dc="http://purl.org/dc/elements/1.1/"
     xmlns:xl="http://www.w3.org/1999/xlink"
     xmlns:xlink="http://www.w3.org/1999/xlink"
     version="1.1"
     viewBox="85.5 63 193.5 324"
     width="193.5"
     height="324"
     preserveAspectRatio="xMidYMid meet"
     zoomAndPan="magnify"
     contentScriptType="application/ecmascript"
     contentStyleType="text/css">
   <defs/>
   <metadata  xmlns:svg="http://www.w3.org/2000/svg"
             xmlns:rdf="http://www.w3.org/1999/02/22-rdf-syntax-ns#"
             xmlns:cc="http://creativecommons.org/ns#">
      <rdf:RDF>
         <cc:Work rdf:about="">
            <dc:creator>
               <cc:Agent>
                  <dc:title>http://heraldicart.org Cock's Head Couped.svg</dc:title>
               </cc:Agent>
            </dc:creator>
         </cc:Work>
      </rdf:RDF>
   </metadata>
   <g stroke-opacity="1" stroke-dasharray="none" stroke="#505050" fill="#ffff00"
      fill-opacity="1">
      <title>Cock's Head Couped</title>
      <g>
         <title>Layer 2</title>
         <g>
            <g>
               <path d="M 190.73182 66.23855 C 191.55482 66.758335 192.6377 68.01449 193.20081 69.01075 L 194.19707 70.83001 L 197.0559 69.44391 C 199.35164 68.40433 200.69442 68.057805 203.46662 67.92786 C 208.01477 67.667964 210.39713 68.62091 212.38965 71.43643 L 213.73244 73.38563 L 216.28806 72.346055 C 219.49342 71.046585 223.8683 70.95995 226.42392 72.12948 C 230.14907 73.81879 232.05496 77.630565 231.75175 82.6985 L 231.53517 85.86054 L 233.96085 85.55733 C 238.33573 85.03754 242.23414 86.07712 244.26997 88.28622 C 247.47533 91.70815 247.34538 97.0793 243.7935 105.26595 L 243.05713 106.91195 L 244.22666 106.00232 C 246.5657 104.18306 250.03095 105.09269 253.06305 108.428 C 256.5283 112.15314 257.95772 117.39434 256.2684 120.16654 C 255.18552 121.9858 251.72027 124.67137 243.5336 130.12914 C 238.11915 133.72434 234.82716 136.27996 231.96833 139.05216 L 227.93997 142.99389 L 232.40148 151.8736 C 234.82716 156.76827 238.2924 163.87204 240.06835 167.68381 C 246.0459 180.3753 249.2946 183.10419 255.18552 180.46193 L 257.0914 179.59562 L 256.87483 181.5015 C 256.61493 183.79724 255.57536 185.26997 253.27963 186.61276 C 249.77106 188.60528 242.9272 187.5657 237.9892 184.31703 C 236.99294 183.62397 236.16995 183.23413 236.16995 183.4074 C 236.16995 184.2737 242.7106 196.7053 244.9197 199.95398 C 247.21544 203.41923 250.76732 207.1877 254.49247 210.13316 L 256.09515 211.43263 L 254.49247 212.51552 C 253.10637 213.46846 252.45663 213.5984 249.20796 213.5984 C 245.95928 213.5984 245.1363 213.42515 242.88387 212.34225 C 241.36782 211.6059 239.0721 209.82995 237.33947 208.18395 C 235.7368 206.6246 234.52395 205.62833 234.6539 206.01817 C 234.74053 206.3647 235.65016 210.17647 236.6031 214.46472 C 239.28867 226.37653 241.19456 231.44446 244.6598 235.4295 C 246.5657 237.6386 250.724 240.45412 253.14968 241.19048 C 254.0593 241.45038 254.79568 241.84022 254.79568 242.01348 C 254.79568 243.22632 247.9085 243.65947 244.18334 242.6632 C 238.509 241.14717 232.05496 236.42576 227.59345 230.49151 L 226.59719 229.19204 L 227.2036 230.7081 C 231.8817 242.40332 235.69347 248.94398 240.28493 253.1456 C 242.79724 255.44133 247.77854 258.21353 250.29085 258.69 C 252.54326 259.12316 251.72027 259.59964 247.77854 260.16274 C 242.45072 260.94242 238.16247 260.6392 235.30363 259.2098 C 234.00416 258.56006 232.92127 258.0836 232.87796 258.1269 C 232.748 258.34348 240.93467 272.94086 242.36408 274.9767 C 244.14003 277.57563 247.82186 281.3441 249.81438 282.68688 C 251.72027 283.98635 256.31173 285.28582 258.82403 285.28582 L 260.98982 285.28582 L 260.03687 286.3254 C 258.7374 287.7115 255.27215 289.18423 252.58658 289.48744 C 249.901 289.79065 246.08923 289.01097 242.84056 287.4516 C 241.45446 286.75855 240.24162 286.23876 240.1983 286.3254 C 240.15499 286.3687 241.36782 288.0147 242.9272 290.00723 C 247.1288 295.2051 252.6299 299.58 259.69035 303.30513 L 263.11228 305.08107 L 261.94276 306.034 C 260.4267 307.16023 256.91814 308.2431 254.5791 308.2431 C 249.94432 308.2431 244.26997 305.7308 239.85178 301.65914 C 238.2924 300.22972 237.03626 299.19014 237.03626 299.3634 C 237.03626 300.22972 240.67477 305.08107 243.70687 308.1565 C 251.15716 315.82336 259.3005 320.8913 267.14064 322.75386 L 268.4401 323.1004 L 266.70748 323.88007 C 262.0294 326.00254 252.71653 324.833 245.1363 321.2378 C 243.7935 320.58808 242.6673 320.24155 242.6673 320.4148 C 242.6673 321.2378 248.255 326.4357 251.11385 328.25495 C 252.75984 329.33784 257.3513 331.85015 261.29303 333.79935 C 265.23475 335.74856 269.7829 338.26087 271.4722 339.30044 C 274.7642 341.4229 278.18613 344.49832 278.18613 345.36463 C 278.18613 346.27426 276.62677 346.79405 273.638 346.79405 C 268.1369 346.79405 259.99356 344.49832 251.8069 340.68654 C 249.3379 339.517 247.21544 338.6074 247.17212 338.69402 C 247.0855 338.78065 249.77106 342.11596 253.14968 346.1443 C 267.44385 363.34063 270.73584 369.44814 267.66043 373.04334 C 265.6679 375.3824 260.47003 374.8626 257.00478 371.96045 L 255.53204 370.7476 L 253.62615 371.8305 C 252.49995 372.4369 249.5978 373.30323 246.43576 373.90965 C 238.8122 375.4257 238.33573 375.64228 238.33573 377.115 C 238.33573 377.8947 237.81594 378.93427 237.03626 379.8872 C 235.4769 381.66315 232.4448 382.78936 226.20734 383.91557 C 220.31642 384.95514 201.1709 384.95514 192.42113 383.91557 C 163.35633 380.32037 142.95465 371.5273 135.37441 359.31227 C 134.55142 357.9695 133.3819 356.6267 132.73216 356.3668 C 130.73964 355.41387 126.32144 351.6454 124.5455 349.30636 C 115.01606 336.87477 113.7599 321.67097 120.34388 299.40672 C 123.46261 288.8377 128.48722 277.2291 139.2295 255.8745 C 144.90386 244.5691 149.53863 235.25624 149.53863 235.1696 C 149.53863 235.1263 148.23916 235.03966 146.59317 235.03966 C 143.21455 234.99634 141.30866 234.38992 137.8434 232.26746 C 136.4573 231.40114 134.94126 230.7081 134.5081 230.7081 C 134.03163 230.7081 132.38563 230.10167 130.86959 229.322 C 127.62091 227.7193 123.46261 223.69096 121.72998 220.4856 C 118.13478 213.81499 118.52462 206.1048 122.68293 200.25719 C 125.58508 196.18551 127.36102 195.79567 134.89794 197.39835 C 137.23699 197.91814 139.66266 198.17804 140.26908 198.04809 C 142.21829 197.5283 142.73808 195.40583 142.91134 187.17586 L 143.04129 179.8122 L 140.22577 177.42984 C 128.05407 167.25066 116.05563 163.13567 102.49783 164.43514 C 96.99674 164.95493 95.04754 165.38808 90.71597 167.0774 C 87.94377 168.16029 87.12077 168.68007 86.77425 169.5897 C 86.16783 171.2357 86.16783 166.5576 86.73093 161.8362 C 87.33735 157.1581 88.76677 154.6458 93.44486 149.88108 C 99.3791 143.90352 106.52619 141.13132 114.62621 141.60779 C 116.792 141.69442 118.91446 141.95431 119.34762 142.12758 C 120.08399 142.43079 120.08399 142.34415 119.26099 140.78479 C 118.22141 138.83559 118.09147 135.89012 118.95778 134.20081 C 120.82035 130.64893 128.53054 129.65267 133.59847 132.33824 L 135.0712 133.16124 L 134.89794 128.56978 C 134.81131 125.97084 134.89794 123.19863 135.15784 122.24569 C 135.591 120.68633 135.54768 120.42643 133.90168 118.04407 C 131.56264 114.62214 129.35354 109.8141 128.7038 106.95526 C 127.96744 103.79322 128.74712 101.45418 130.9129 99.98144 C 132.25569 99.07181 132.73216 98.98518 134.94126 99.24508 L 137.49688 99.50497 L 136.32736 97.55577 C 135.54768 96.2563 135.24447 95.13009 135.3311 94.17715 C 135.50436 92.09799 138.40651 90.75521 143.43113 90.40868 L 147.15627 90.14879 L 147.11296 88.84932 C 147.06964 88.11295 146.89638 85.86054 146.72312 83.8247 C 146.33327 79.623085 146.63648 78.67014 148.80227 77.37067 C 150.8381 76.11452 153.91351 76.24446 158.33171 77.80383 C 160.41086 78.49688 162.23012 79.1033 162.36007 79.1033 C 162.49001 79.1033 162.49001 78.15035 162.31675 76.98083 C 161.66702 72.346055 163.09643 68.750856 166.17185 67.23481 C 167.64458 66.49844 168.16437 66.455126 170.50341 66.88828 C 171.97614 67.14818 174.48845 68.057805 176.13445 68.92412 L 179.0799 70.48348 L 181.20238 68.49096 C 184.79758 65.155656 188.00294 64.375974 190.73182 66.23855 Z"/>
            </g>
            <g>
               <path d="M 137.80009 170.75923 C 137.80009 171.2357 137.67014 171.36564 137.5402 171.01912 C 137.41025 170.7159 137.45357 170.32607 137.58351 170.19612 C 137.71346 170.02286 137.8434 170.28275 137.80009 170.75923 Z"/>
            </g>
            <g>
               <path d="M 146.76643 132.07834 C 146.20333 132.98797 147.41617 134.37407 148.41243 133.98423 C 149.53863 133.55108 149.75521 132.33824 148.8889 131.64519 C 147.93595 130.95214 147.37285 131.08208 146.76643 132.07834 Z"/>
            </g>
            <g>
               <path d="M 152.44078 122.15906 C 151.6611 122.50558 150.10174 123.71842 148.97553 124.88795 L 146.89638 127.05373 L 149.06216 127.31362 C 153.26378 127.83341 158.98145 131.42861 160.67076 134.67728 C 161.6237 136.53986 161.79696 135.80349 161.23386 132.38155 C 160.54081 128.39651 158.15845 123.50184 156.29588 122.37564 C 154.6932 121.37938 154.26004 121.37938 152.44078 122.15906 Z"/>
            </g>
            <g>
               <path d="M 157.2055 121.07617 C 160.19428 122.93874 162.53333 128.43983 162.53333 133.63771 C 162.53333 138.0559 162.1868 138.18585 158.98145 134.93718 C 157.4654 133.42113 155.60283 131.81845 154.86646 131.42861 L 153.52367 130.64893 L 153.74025 132.5115 C 153.91351 134.07086 153.78357 134.50402 152.7873 135.5436 C 151.61778 136.6698 150.88142 136.88638 148.67232 136.71312 L 147.58943 136.62649 L 148.75895 137.53612 C 151.57447 139.74522 156.16593 140.43827 159.4146 139.09548 C 160.93065 138.44575 160.97397 138.44575 160.28092 139.1388 C 159.89108 139.52864 158.63492 140.09174 157.4654 140.39495 C 153.39373 141.47784 148.45574 139.61527 146.20333 136.23665 C 144.81723 134.1575 144.34075 130.47567 145.33701 129.1762 C 145.90012 128.39651 145.94343 128.48314 145.72686 129.82593 L 145.51028 131.25535 L 146.89638 130.08582 C 147.67606 129.43609 148.629 128.9163 149.01885 128.9163 C 149.40869 128.87299 149.06216 128.56978 148.23916 128.22325 C 146.28996 127.40025 146.33327 127.48688 147.19959 125.79757 C 149.66858 120.98954 153.78357 119.04033 157.2055 121.07617 Z"/>
            </g>
            <g>
               <path d="M 149.36537 194.84273 C 149.01885 202.94276 148.71564 204.89196 147.37285 206.58127 C 146.50654 207.66416 146.33327 207.70748 141.82845 207.66416 C 138.27656 207.62085 136.76051 207.7941 135.37441 208.35721 C 130.26317 210.523 129.13696 215.98077 132.38563 222.78133 C 135.6343 229.53857 142.21829 234.17335 148.45574 234.17335 L 150.275 234.17335 L 153.35041 227.76263 C 158.8515 216.28398 160.75739 210.73958 161.10391 205.36843 C 161.27718 202.29302 161.19054 201.6866 160.28092 200.08392 C 159.24134 198.13472 150.44826 187.39244 149.97179 187.39244 C 149.79853 187.39244 149.53863 190.77106 149.36537 194.84273 Z"/>
            </g>
            <g>
               <path d="M 143.9076 185.48655 C 144.55733 192.72026 143.9076 197.05183 141.87176 198.6545 C 140.52898 199.69408 138.40651 199.7374 134.37815 198.87109 C 132.81879 198.52456 130.47974 198.26467 129.13696 198.22135 C 126.79791 198.22135 126.58134 198.30798 125.06529 199.9973 C 123.02945 202.2497 121.38346 205.8449 120.99362 208.79037 C 119.95404 216.97703 125.49844 226.41984 133.33858 229.66852 L 134.89794 230.31825 L 133.90168 228.97547 C 129.65675 223.30112 128.31396 220.00913 128.31396 215.37435 C 128.35728 207.96737 133.77173 204.50212 143.30118 205.71496 L 145.98675 206.06148 L 146.46322 204.63207 C 146.76643 203.85239 147.28622 200.47376 147.63274 197.13846 C 147.97927 193.80315 148.54237 190.078 148.84558 188.86517 L 149.40869 186.65607 L 146.59317 183.53734 C 145.07712 181.80472 143.73434 180.50525 143.6477 180.59188 C 143.56107 180.6785 143.69102 182.8443 143.9076 185.48655 Z"/>
            </g>
            <g>
               <path d="M 185.75052 68.01449 C 184.97084 68.3177 183.32484 69.48722 182.112 70.57011 L 179.9029 72.56263 L 176.5676 71.046585 C 172.58256 69.18401 168.90073 68.40433 167.21142 69.09738 C 165.08895 69.92038 164.48253 71.43643 164.48253 76.0712 L 164.48253 80.18619 L 163.09643 80.31614 C 162.36007 80.40277 159.71781 79.96961 157.24882 79.36319 C 154.82314 78.75677 152.52741 78.23698 152.2242 78.23698 C 151.05468 78.23698 148.71564 79.623085 148.41243 80.4894 C 148.28248 80.92255 148.41243 83.34823 148.71564 85.81722 C 149.23542 90.06216 149.1921 90.40868 148.45574 91.23168 C 147.806 91.92473 147.15627 92.09799 144.68728 92.09799 C 141.04876 92.09799 138.14662 92.79104 137.15036 93.87394 C 136.4573 94.65362 136.50062 94.82688 138.01667 97.25256 C 140.3124 101.02102 139.79261 101.71407 135.28778 100.67449 C 133.51184 100.28465 132.8621 100.28465 131.95248 100.76113 C 129.5268 102.10391 129.00701 105.09269 130.52306 109.5542 C 131.43269 112.23977 135.24447 119.82001 135.67762 119.82001 C 135.80757 119.82001 136.19741 119.12696 136.50062 118.30397 C 138.01667 114.14566 143.43113 109.12105 149.01885 106.782 C 154.4333 104.52959 159.28466 103.66327 166.99484 103.57664 L 173.7954 103.49001 L 175.09487 102.27717 C 177.26065 100.19802 178.60344 97.90229 179.5997 94.6103 C 180.55264 91.53489 180.59596 91.49157 180.89917 92.87768 C 181.59222 95.82314 180.11949 99.67823 177.47723 101.97396 C 176.61092 102.75365 175.7446 103.36006 175.48471 103.36006 C 175.22482 103.36006 175.1815 103.53333 175.31145 103.79322 C 175.4414 104.0098 176.13445 104.22638 176.78418 104.22638 C 178.64675 104.22638 186.18368 106.2189 189.99546 107.73495 C 192.76766 108.86115 193.4607 108.9911 193.80723 108.51463 C 195.84307 105.3959 197.8356 101.58412 199.17837 98.16219 C 200.0447 95.90977 200.82437 93.96057 200.95432 93.83062 C 201.08426 93.70067 201.08426 94.91351 200.95432 96.51619 C 200.69442 100.19802 198.442 105.13601 195.9297 107.64831 L 194.19707 109.38094 L 197.09922 111.02694 C 198.7019 111.93656 201.56074 113.88577 203.4233 115.40182 L 206.84525 118.17402 L 210.48376 114.36224 C 212.5196 112.28309 214.90196 109.42426 215.8549 108.08147 C 217.84742 105.13601 218.41053 104.65953 218.41053 106.04564 C 218.41053 109.07773 213.16933 115.70503 209.14098 117.74086 L 207.19177 118.73712 L 209.09766 121.50932 C 210.13724 123.02537 212.30302 125.3211 213.86238 126.62057 L 216.72122 129.00293 L 220.74957 125.10452 C 224.90787 121.07617 228.19986 118.60718 228.67634 119.12696 C 229.1528 119.60344 221.05278 127.31362 217.58753 129.65267 C 217.5009 129.69598 218.5838 130.99545 219.9699 132.46819 C 221.356 133.98423 223.69504 136.9297 225.12445 139.00885 L 227.68008 142.82063 L 228.5464 141.60779 C 230.5389 138.70564 236.9063 133.16124 243.2737 128.74304 C 247.04217 126.1441 251.2438 122.98206 252.6732 121.68259 C 255.1422 119.38686 255.22883 119.2136 255.22883 117.17776 C 255.22883 111.50341 248.94806 105.52585 244.39992 106.82532 C 243.62024 107.0419 242.88387 107.17184 242.79724 107.08521 C 242.7106 106.99858 242.9705 105.61248 243.36034 103.96648 C 243.7935 102.14723 244.0967 99.0285 244.14003 96.08303 L 244.18334 91.18837 L 242.58066 89.71563 C 240.63146 87.89638 237.38278 86.90012 233.48437 86.90012 L 230.5389 86.90012 L 230.5389 84.38781 C 230.5389 78.36693 227.98329 74.42521 223.43514 73.47226 C 220.87952 72.95247 217.67416 73.299 214.90196 74.46852 C 213.42923 75.03163 213.42923 75.03163 211.48002 73.039105 C 208.05808 69.53054 203.38 69.1407 197.44575 71.86958 L 194.45697 73.21237 L 193.76392 72.17279 C 192.3345 70.00701 190.90508 68.57759 189.60562 68.01449 C 187.9163 67.27812 187.48315 67.27812 185.75052 68.01449 Z"/>
            </g>
            <g>
               <title>path6524</title>
               <g  id="outline-0">
                  <path 
                        d="M 136.00294 134.46943 C 136.20123 134.4227 134.11016 129.16693 136.4395 121.48594 L 136.4395 121.48593 C 137.34526 118.47229 139.19886 115.22854 142.2214 112.57046 C 144.88482 110.22199 148.2538 108.43188 152.16677 107.16159 C 156.0786 105.8954 160.32316 105.22312 164.8363 105.04697 C 165.6067 105.01731 166.38198 105.00163 167.16162 105.00034 C 176.56328 104.98463 185.04329 107.04589 192.02734 109.99215 C 199.315 113.08708 204.08737 116.77557 207.22196 120.17323 C 210.2109 123.41299 211.32065 125.78715 211.45134 125.7218 C 211.50468 125.69514 210.72925 123.16087 207.81977 119.65072 C 204.81198 116.02198 199.96585 111.9906 192.57091 108.73536 C 185.4824 105.5951 176.80286 103.40062 167.1589 103.41767 C 166.35941 103.41909 165.56438 103.43579 164.77433 103.46737 C 160.14014 103.65015 155.75147 104.37531 151.69543 105.7271 C 147.63294 107.07728 144.11114 109.0292 141.32344 111.56913 C 138.14725 114.46993 136.27423 117.97523 135.41968 121.19807 L 135.41968 121.19807 C 133.15788 129.81214 136.57494 134.3346 136.00294 134.46943 Z"
                        fill="black"/>
               </g>
            </g>
            <g>
               <title>path6528</title>
               <g  id="outline-1">
                  <path 
                        d="M 198.76726 119.37975 C 198.69 119.65558 204.31046 120.97337 211.21445 126.3166 C 214.4184 128.79445 217.62825 131.98546 220.80762 136.12971 C 224.03763 140.33714 226.87296 145.0346 229.6845 150.45877 C 231.30638 153.58777 232.8292 156.78144 234.23228 159.7687 C 236.12853 163.81286 237.6008 167.0651 239.41678 170.57754 C 241.05515 173.75827 242.54985 176.36027 244.50834 178.65706 C 245.36538 179.66446 246.26875 180.51808 247.2728 181.18296 C 248.2579 181.83702 249.3027 182.23426 250.32638 182.36748 C 251.5973 182.52284 252.74832 182.257 253.61747 181.90812 C 256.17097 180.8813 256.9132 179.4871 256.93906 179.51977 C 256.8487 179.40566 255.70975 180.45668 253.3498 181.1363 C 252.54422 181.36831 251.51974 181.51904 250.49293 181.31192 C 249.65734 181.15172 248.81134 180.7577 247.98773 180.15446 C 247.13795 179.53063 246.37526 178.72597 245.60877 177.7543 C 243.8416 175.50907 242.52712 173.0014 240.96439 169.80113 C 239.19738 166.1678 237.91016 163.1636 235.9889 158.95588 C 234.6114 155.93376 233.10096 152.72082 231.45134 149.54237 C 228.6033 144.05488 225.643 139.2578 222.2602 134.99557 C 218.92292 130.79333 215.48793 127.57465 212.07937 125.14997 C 204.538 119.78898 198.77526 119.35118 198.76726 119.37975 Z"
                        fill="black"/>
               </g>
            </g>
            <g>
               <title>path6532</title>
               <g  id="outline-2">
                  <path 
                        d="M 227.41578 168.36653 C 227.18047 168.51529 228.5923 171.11298 230.5709 175.41557 C 232.554 179.72787 234.97905 185.8682 238.278 192.4336 C 238.39712 192.67065 238.51673 192.90645 238.63693 193.14105 C 240.86049 197.49155 243.13473 201.06178 245.76887 204.0684 C 251.07627 210.1232 256.18594 211.64274 256.283 211.44866 C 256.44454 211.12554 251.7335 208.79153 247.07497 202.97285 C 244.66584 199.966 242.6036 196.53258 240.41004 192.23537 C 240.29256 192.00464 240.17533 191.7727 240.05824 191.53948 C 236.8157 185.08033 234.15787 178.98034 231.82535 174.77965 C 229.4876 170.56954 227.64462 168.22186 227.41578 168.36653 Z"
                        fill="black"/>
               </g>
            </g>
            <g>
               <title>path6536</title>
               <g  id="outline-3">
                  <path 
                        d="M 231.5709 175.58333 C 231.16423 175.66211 231.4813 179.1944 235.65733 182.63699 C 237.74126 184.39605 240.4955 186.0053 243.8302 186.94618 C 243.98536 186.98995 244.1405 187.03191 244.29556 187.07206 C 247.49776 187.93852 250.55707 187.90882 253.08886 186.74542 C 254.49702 186.0828 255.50686 185.06845 256.12562 184.03983 C 257.73128 181.3167 256.8929 179.5162 256.93906 179.51976 C 256.7037 179.50166 256.64833 181.38926 255.1082 183.35503 L 255.1082 183.35503 C 254.51182 184.13177 253.6211 184.86325 252.4664 185.31892 C 250.32346 186.1952 247.74185 186.0553 244.75527 185.30861 C 244.6122 185.27106 244.469 185.23203 244.32573 185.19152 C 241.24852 184.3217 238.66503 182.9279 236.61865 181.4212 C 232.88883 178.6022 231.89204 175.52117 231.5709 175.58337 Z"
                        fill="black"/>
               </g>
            </g>
            <g>
               <title>path6540</title>
               <g  id="outline-4">
                  <path 
                        d="M 226.32232 190.8917 C 226.1239 191.10044 230.22288 195.44423 232.57397 203.81338 C 233.81734 208.28792 234.71628 213.7246 236.09103 219.51935 C 236.09103 219.51933 236.09332 219.52917 236.09332 219.52917 C 237.43404 225.23635 239.02607 229.95895 241.82714 233.9575 L 241.82714 233.9575 C 243.45558 236.27312 245.33344 237.985 247.1769 239.17727 C 251.6887 242.08502 254.98533 241.77944 254.97088 241.8469 C 255.01474 241.64224 251.75795 241.17985 247.79035 238.28205 C 246.12022 237.06658 244.43935 235.39228 242.97355 233.17495 C 240.4113 229.316 239.00678 224.81864 237.65095 219.15963 L 237.64866 219.14981 C 236.08903 212.57171 235.55887 208.80465 233.8815 203.42753 C 231.17212 194.65623 226.71487 190.47862 226.32234 190.89159 Z"
                        fill="black"/>
               </g>
            </g>
            <g>
               <title>path6544</title>
               <g  id="outline-5">
                  <path 
                        d="M 231.5709 199.20196 C 231.47016 199.24884 233.39714 206.31213 241.1929 211.34123 C 241.23685 211.36974 241.28097 211.39811 241.3253 211.42636 C 243.76256 212.97982 246.27805 213.81868 248.67745 213.9174 C 254.23983 214.11408 256.14353 210.8195 256.283 211.01127 C 256.13843 210.81248 253.28084 213.17518 248.74588 212.77745 C 246.5781 212.602 244.32062 211.77143 242.02356 210.32454 C 241.98185 210.29826 241.94028 210.27188 241.89885 210.2454 C 238.34324 207.95835 235.84714 205.13922 234.1829 202.8886 C 232.53988 200.66667 231.73305 199.1265 231.5709 199.20197 Z"
                        fill="black"/>
               </g>
            </g>
            <g>
               <title>path6548</title>
               <g  id="outline-6">
                  <path 
                        d="M 217.1373 212.32342 C 216.9236 212.4977 220.2841 217.20423 223.5467 225.2678 C 224.976 228.8133 227.38336 235.33777 229.5216 239.94796 C 229.52155 239.94786 229.56 240.03093 229.55995 240.03076 C 231.96744 245.2243 234.58696 249.43857 237.96557 252.75443 C 245.20464 259.83016 251.95543 258.82253 251.90917 259.12323 C 251.95242 258.8421 245.10148 258.2423 238.9082 251.8175 C 235.7569 248.56327 233.3368 244.50153 230.947 239.38535 C 230.94695 239.38522 230.90907 239.30402 230.909 239.30385 C 228.48745 234.09057 226.61086 228.99822 224.74867 224.76128 C 221.19862 216.65712 217.57575 211.96574 217.1373 212.3233 Z"
                        fill="black"/>
               </g>
            </g>
            <g>
               <title>path6552</title>
               <g  id="outline-7">
                  <path 
                        d="M 224.79149 225.44487 C 224.62418 225.56188 228.02736 233.41986 236.9856 239.3522 C 237.1727 239.4761 237.36036 239.5977 237.54855 239.717 C 242.0318 242.57924 246.52365 243.46706 249.9257 243.3021 C 253.2664 243.14008 255.03797 242.06255 254.97088 241.8469 C 254.88448 241.56912 252.96545 242.0519 249.94205 241.82268 C 246.7954 241.5842 242.8641 240.52213 238.70206 237.89895 C 238.5251 237.78652 238.3484 237.67225 238.1719 237.556 C 229.97572 232.158 225.2787 225.10393 224.79149 225.4448 Z"
                        fill="black"/>
               </g>
            </g>
            <g>
               <title>path6556</title>
               <g  id="outline-8">
                  <path 
                        d="M 227.41578 143.65445 C 227.59612 143.76756 231.29332 138.0382 240.9968 131.6878 C 244.58947 129.34818 251.10217 125.58235 255.52937 121.25043 C 257.01204 119.69958 257.37658 117.4334 256.93426 115.38599 C 256.48692 113.11848 255.39064 110.97818 253.87313 109.11864 C 252.5212 107.41935 250.6855 105.82251 248.3558 105.08989 C 246.44214 104.61495 244.25272 105.34365 242.83756 107.17266 C 244.09185 104.55715 245.37214 101.73323 246.24416 98.78262 C 246.70578 96.43675 246.94098 93.78105 246.145 91.20162 C 245.377 88.89339 243.5613 87.03743 241.2869 86.11978 C 238.10765 85.00147 234.67097 85.29636 231.3997 85.9105 C 232.60928 81.25987 231.92377 75.24352 227.32856 72.46612 C 223.08033 70.06662 217.78087 71.09277 213.65918 73.60032 C 212.73611 71.16638 210.86493 69.09146 208.34906 68.23169 C 206.2738 67.57005 204.09765 67.544795 202.0308 67.90122 C 201.72523 67.953914 201.42263 68.01486 201.12373 68.08311 C 199.13983 68.52016 197.22859 69.238665 195.46467 70.21004 L 195.46466 70.21004 C 194.94574 70.48904 194.38467 70.82127 193.84034 71.27512 L 193.84033 71.27513 C 193.84036 71.275125 193.84036 71.275125 193.84036 71.275125 C 194.0876 71.3235 194.2298 71.54562 194.32767 71.974734 C 194.32768 71.97476 194.32768 71.97477 194.32768 71.97477 C 194.319 72.000755 194.31312 72.03293 194.33275 72.05775 C 194.35336 72.08394 194.39384 72.090516 194.43 72.0922 C 193.77032 69.60515 192.51763 66.97827 190.09285 65.70253 L 190.09284 65.702525 C 188.13151 64.924314 186.01924 65.21265 184.33007 66.08922 C 182.75071 66.890164 181.4255 68.00674 180.2878 69.18529 C 179.8768 69.606875 179.48798 70.03849 179.1146 70.47124 L 179.11462 70.471245 C 179.23833 70.56259 179.37311 70.64373 179.51424 70.710465 L 179.51424 70.71047 C 179.48773 70.74225 179.46139 70.77416 179.43226 70.80347 C 179.4208 70.81509 179.40836 70.838556 179.39396 70.83024 C 176.01734 68.65614 172.25396 66.44825 168.0132 66.689565 C 166.79365 66.77115 165.55693 67.2028 164.54453 68.04798 L 164.54452 68.04799 C 163.6682 68.826325 163.0917 69.81056 162.76561 70.813925 L 162.7656 70.81394 C 162.09187 72.88238 162.11856 75.000545 162.30106 76.91797 C 162.36538 77.66433 162.45833 78.38023 162.532 79.07138 L 162.532 79.07139 C 162.5523 79.28632 162.57488 79.45008 162.57063 79.56437 C 162.57064 79.56436 162.57064 79.56436 162.57064 79.56436 C 162.7248 79.49351 162.9088 79.32459 163.10716 79.05327 C 163.10718 79.05323 163.10718 79.05324 163.10718 79.05324 C 163.1039 79.078405 163.09016 79.10663 163.06774 79.10377 C 160.75559 79.03312 158.23943 77.63645 155.67517 76.80657 C 154.35656 76.437335 152.92902 76.19376 151.4481 76.36101 C 149.84047 76.57445 148.40603 77.35808 147.33576 78.445345 C 146.34063 79.62349 146.24731 81.01303 146.3751 82.03806 C 146.4404 83.48899 146.70074 84.88496 146.91538 86.17504 C 147.10878 87.41082 147.34083 88.51336 147.25416 89.54412 C 147.20147 89.8829 147.19165 90.13779 147.09739 90.212 L 147.0974 90.212 C 147.13651 90.2298 147.0308 90.25089 146.93752 90.26469 C 143.58126 90.25536 140.27674 90.2189 137.2291 91.64626 L 137.22908 91.64626 C 136.51887 91.95432 135.80667 92.49369 135.35827 93.32941 C 135.03945 94.04132 135.02785 94.78204 135.21328 95.41562 C 135.61864 96.80177 136.47957 97.8633 137.17064 98.75556 C 137.47513 99.16989 137.7553 99.51602 137.92405 99.8672 L 137.92405 99.8672 C 137.9 100.1203 138.06462 100.12067 138.1018 99.82817 C 138.33086 99.83292 138.12651 99.67559 137.70949 99.73655 C 137.18796 99.67518 136.6376 99.54038 136.07798 99.41364 C 135.08253 99.13105 133.86835 98.66898 132.5088 99.05605 C 131.355 99.44438 130.30665 100.11613 129.56622 101.06851 C 128.87994 101.98425 128.55036 103.0566 128.46395 104.06989 C 128.24314 106.73863 129.20451 109.26982 130.0172 111.11843 L 130.0172 111.11843 C 131.19243 113.82889 132.67323 116.21044 133.66906 117.72554 C 135.34084 120.27084 136.43583 121.48821 136.43956 121.48597 C 136.5294 121.43193 135.67436 120.02437 134.18596 117.40895 C 133.30709 115.86464 131.93819 113.40243 130.90794 110.75207 C 130.90794 110.75206 130.90794 110.75206 130.90792 110.75206 C 130.2017 108.90794 129.35578 106.4804 129.6498 104.19314 C 129.75568 103.35623 130.03432 102.50029 130.56891 101.85043 C 131.11833 101.14879 131.9725 100.65669 132.93647 100.33912 C 133.61895 100.04452 134.5347 100.55333 135.74455 100.80103 C 136.28896 100.93961 136.88292 101.09558 137.51602 101.18811 L 137.51602 101.18811 C 137.79406 101.33874 138.41706 101.37205 139.15279 100.87914 C 139.6015 100.15042 139.55405 99.51341 139.27765 99.21159 L 139.27765 99.21158 C 139.01727 98.67673 138.69601 98.24291 138.40693 97.84833 C 137.72983 96.87604 136.96813 95.96149 136.76213 95.01058 C 136.68685 94.6475 136.67409 94.27854 136.81908 94.04957 C 136.95933 93.69122 137.41857 93.42296 137.93886 93.1503 L 137.93888 93.15029 C 140.51458 91.92388 143.5335 92.08194 146.93752 92.07258 L 146.93753 92.07258 C 147.52917 92.08633 148.12652 91.82394 148.5717 91.28265 L 148.5717 91.28264 C 148.94368 90.71508 149.07586 90.14865 149.08645 89.68935 C 149.18906 88.33147 148.96715 87.07315 148.77665 85.88076 C 148.5782 84.55805 148.34142 83.23118 148.3066 81.9668 C 148.36126 81.00638 148.28893 80.09109 148.72626 79.83591 C 149.53552 79.043635 150.591 78.4658 151.68695 78.35533 C 152.75949 78.21666 153.92083 78.45465 155.13399 78.7797 C 157.7525 79.37152 160.766 80.56062 164.0484 80.48963 C 164.08015 80.491125 164.1029 80.46154 164.11582 80.43501 L 164.11584 80.435 C 164.34762 80.0592 164.53383 79.77847 164.6897 79.59791 L 164.6897 79.59791 C 164.69134 79.29919 164.66712 79.05147 164.64503 78.85441 L 164.64503 78.8544 C 164.57335 78.13009 164.48711 77.42739 164.43396 76.74289 C 164.30926 74.91781 164.26278 73.08467 164.82809 71.516755 L 164.82809 71.51675 C 165.089 70.79744 165.45763 70.1335 165.97575 69.71327 L 165.97577 69.71327 C 166.51892 69.22145 167.33392 68.97373 168.18253 68.89653 C 171.99483 68.51941 175.7483 70.57866 179.6509 72.58003 C 179.66744 72.58756 179.68208 72.56342 179.69575 72.55113 C 179.73036 72.52002 179.7624 72.48631 179.79454 72.45271 L 179.79455 72.45271 C 180.15158 72.27856 180.49577 72.11246 180.83149 71.958985 L 180.8315 71.958975 C 181.18612 71.55153 181.54527 71.155045 181.91542 70.778614 C 182.96873 69.718755 184.09436 68.75443 185.35265 68.14079 C 186.60956 67.5487 188.08203 67.28735 189.18596 67.821094 L 189.18596 67.8211 C 191.44747 68.550844 192.96316 70.79246 194.3569 73.06759 C 194.32973 73.06334 194.29832 73.05417 194.28685 73.0254 C 194.27605 72.99816 194.29061 72.96359 194.308 72.93522 L 194.30802 72.93521 C 194.52264 73.12137 194.88652 73.168504 195.33948 73.04237 L 195.33949 73.042364 C 195.33952 73.04236 195.33952 73.042355 195.33952 73.042355 C 195.665 72.75827 196.09856 72.514625 196.58237 72.24201 L 196.58238 72.242 C 198.1501 71.38062 199.85544 70.74096 201.62374 70.35042 C 201.8883 70.2944 202.15414 70.24377 202.42054 70.19945 C 204.22261 69.899655 206.02655 69.89256 207.62622 70.435945 C 209.96687 71.16867 211.91886 73.01294 213.15851 75.1174 C 217.4396 73.15819 222.50293 72.26139 226.19314 74.43642 C 230.14383 76.58389 230.9491 82.26546 230.4299 86.80437 C 234.02856 86.69825 237.49824 86.75457 240.48954 88.10935 C 242.20671 88.79132 243.631 90.18848 244.1532 91.84914 C 244.84795 93.85574 244.61768 96.18798 244.24616 98.41899 C 244.01122 101.55021 243.33268 104.62353 242.61067 107.53088 C 244.01166 106.54447 246.08798 106.26748 247.82455 106.8774 C 249.6584 107.38215 251.2315 108.75834 252.49942 110.24741 C 253.87895 111.91355 254.88947 113.77733 255.29167 115.71765 C 255.60225 117.3997 255.44956 119.16441 254.41225 120.13342 C 250.3243 124.31559 243.8727 128.26297 240.34424 130.71906 C 230.5323 137.51629 227.02622 143.4102 227.41572 143.6545 Z"
                        fill="black"/>
               </g>
            </g>
            <g>
               <title>path6560</title>
               <g  id="outline-9">
                  <path 
                        d="M 180.48831 91.68492 C 179.98096 91.71181 180.08567 95.33868 178.06275 98.59029 C 177.98895 98.70892 177.91318 98.82509 177.83536 98.93887 C 175.8122 102.01715 172.95752 103.7976 173.22033 104.2106 C 173.31181 104.3543 176.7421 103.69602 179.3541 99.9733 C 179.44804 99.83489 179.53888 99.69345 179.62635 99.54907 C 182.22974 95.25196 180.66866 91.67536 180.48831 91.68492 Z"
                        fill="black"/>
               </g>
            </g>
            <g>
               <title>path6564</title>
               <g  id="outline-10">
                  <path 
                        d="M 201.05515 93.84985 C 200.5539 93.76528 199.64582 97.62718 197.68698 101.8857 C 195.72814 106.14422 193.13784 108.9358 193.4779 109.31364 C 193.8524 109.72976 197.1868 107.34731 199.36808 102.664 C 201.54875 97.98202 201.4623 93.91855 201.05515 93.84985 Z"
                        fill="black"/>
               </g>
            </g>
            <g>
               <title>path6568</title>
               <g  id="outline-11">
                  <path 
                        d="M 206.46748 118.74655 C 206.72999 119.12742 210.75995 117.52068 214.47277 113.4443 C 218.19497 109.35762 219.0538 105.03811 218.3746 104.82912 C 217.79038 104.64937 216.20897 108.29817 212.83466 111.93994 C 209.46035 115.58171 206.1206 118.24326 206.46748 118.74655 Z"
                        fill="black"/>
               </g>
            </g>
            <g>
               <title>path6572</title>
               <g  id="outline-12">
                  <path 
                        d="M 216.67358 129.72584 C 217.04377 130.19577 220.12217 127.9832 223.48917 124.81053 C 226.79912 121.69162 229.41282 119.0402 229.19925 118.74654 C 228.84755 118.26296 225.6712 120.348 222.28698 123.53415 C 218.9532 126.67278 216.448 129.4395 216.67358 129.72584 Z"
                        fill="black"/>
               </g>
            </g>
            <g>
               <title>path6576</title>
               <g  id="outline-13">
                  <path 
                        d="M 219.92097 241.99294 C 219.71622 242.27693 224.45242 246.31142 228.94605 254.4138 C 231.22155 258.54504 233.55397 263.57378 236.42444 268.81366 C 236.59864 269.13165 236.77363 269.44762 236.9497 269.76174 C 239.91876 275.09435 242.8547 279.31232 246.83174 282.39346 C 249.04918 284.1046 251.33405 285.12895 253.43676 285.6304 L 253.43676 285.6304 C 258.55558 286.83628 261.3502 285.21168 261.36393 285.29154 C 261.32317 285.05438 258.22845 285.81464 253.76742 284.41677 L 253.76742 284.41677 C 251.86555 283.82703 249.83636 282.77707 247.84543 281.125 C 244.20506 278.11807 241.58648 274.1051 238.62036 268.82725 C 238.44777 268.51803 238.2758 268.20686 238.1041 267.89347 C 235.27501 262.7296 232.83555 257.70926 230.37434 253.59346 C 225.47332 245.34495 220.3652 241.37679 219.92097 241.99294 Z"
                        fill="black"/>
               </g>
            </g>
            <g>
               <title>path6584</title>
               <g  id="outline-14">
                  <path 
                        d="M 221.77662 270.13704 C 221.73262 270.29823 222.62883 270.78024 224.10755 272.10744 C 225.345 273.24904 225.9087 273.8359 227.58348 275.47626 C 229.8951 277.7433 233.40042 281.13176 237.1799 283.87813 C 237.8503 284.3686 238.5499 284.8557 239.27577 285.3258 C 242.5545 287.44916 245.78958 288.84307 249.0937 289.33148 L 249.0937 289.33148 C 251.45253 289.67325 253.59678 289.4349 255.3694 288.87544 C 259.71627 287.4872 261.03356 284.95815 261.05466 284.98226 C 260.8879 284.79174 258.89027 286.73914 255.02417 287.6248 C 253.3922 288.005 251.4693 288.0972 249.3581 287.71006 L 249.3581 287.71006 C 246.35668 287.1702 243.42832 285.8101 240.2788 283.77522 C 239.58337 283.3259 238.90384 282.86138 238.24587 282.39627 C 234.70754 279.87748 230.8639 276.45296 228.519 274.45346 C 226.95699 273.1201 225.8577 272.21116 224.6816 271.39165 C 223.0132 270.20194 221.852 269.86095 221.77662 270.13704 Z"
                        fill="black"/>
               </g>
            </g>
            <g>
               <title>path6588</title>
               <g  id="outline-15">
                  <path 
                        d="M 227.41578 250.81304 C 227.28193 250.90092 227.86522 252.39758 229.51834 254.45796 C 231.12454 256.45987 233.9013 259.10605 237.81333 260.14945 C 238.1483 260.2388 238.48555 260.3147 238.8248 260.37707 L 238.8248 260.37707 C 242.36874 260.9749 246.07444 260.38853 248.19295 260.02472 C 250.51688 259.6257 251.92293 259.30216 251.90917 259.1233 C 251.89266 258.9086 250.4431 258.8649 248.07643 258.99647 C 246.00834 259.11135 242.20355 259.48376 239.08748 258.8991 L 239.08748 258.8991 C 238.7866 258.8477 238.487 258.78422 238.18852 258.70863 C 234.73909 257.835 232.04613 255.47846 230.32186 253.74205 C 228.55416 251.9619 227.58943 250.69924 227.41578 250.81314 Z"
                        fill="black"/>
               </g>
            </g>
            <g>
               <title>path6592</title>
               <g  id="outline-16">
                  <path 
                        d="M 135.33406 357.66208 C 135.48887 357.41284 126.70554 353.68143 121.31938 341.05137 C 118.9229 335.47693 117.82526 328.6519 118.41129 320.54355 C 118.9538 313.12985 120.7643 305.5375 123.60584 297.1405 L 123.60584 297.14048 C 126.32538 289.1176 129.75754 281.13826 133.84964 272.5572 C 137.62898 264.63427 141.6262 256.96108 145.99838 248.59106 C 147.52649 245.66627 149.1138 242.64154 150.65842 239.6425 C 152.84046 235.4058 154.93027 231.2345 156.89503 227.0163 C 159.58963 221.252 162.07243 215.59266 163.39365 209.49668 C 163.8794 207.28651 164.1725 204.982 163.95475 202.6385 L 163.95475 202.63848 C 163.78922 200.73802 163.15161 198.8156 161.89278 197.2299 C 157.34861 191.66566 153.18517 186.6395 148.53329 181.89733 L 148.53329 181.89732 C 143.24517 176.5012 137.89103 172.09768 132.12923 168.80616 C 125.06251 164.77205 117.9443 162.94362 111.6538 162.62931 C 94.47794 161.80102 87.04778 169.37124 86.6231 168.3853 C 86.74813 168.67574 95.77123 163.05434 111.54629 164.3158 C 117.57169 164.78681 124.33087 166.70628 131.03358 170.6882 C 136.52257 173.94647 141.62124 178.28757 146.74702 183.62965 L 146.74702 183.62965 C 151.25437 188.332 155.30126 193.32332 159.80584 198.92166 C 160.66314 199.9464 161.08632 201.38735 161.24396 202.8955 L 161.24396 202.8955 C 161.43103 204.8219 161.1407 206.83954 160.69456 208.90898 C 159.4407 214.6395 157.00542 220.07955 154.32783 225.81724 C 152.3763 229.98385 150.2989 234.1175 148.1251 238.33764 C 146.59193 241.31404 144.99871 244.3565 143.47903 247.27758 C 139.12754 255.64016 135.12652 263.3991 131.37706 271.38723 C 127.31092 280.04754 123.906 288.1752 121.23972 296.35393 C 118.44686 304.90632 116.7179 312.7546 116.29759 320.4085 C 115.8291 328.80246 117.19479 335.9424 119.87206 341.69943 C 126.42976 355.70067 135.9598 356.65472 135.33406 357.66208 Z"
                        fill="black"/>
               </g>
            </g>
            <g>
               <title>path6596</title>
               <g  id="outline-17">
                  <path 
                        d="M 170.9935 176.02072 C 171.06895 175.92613 167.40524 172.29187 160.16087 168.18425 C 152.71236 163.9609 142.4034 159.83277 129.4589 158.04052 C 127.36772 157.75098 125.30505 157.53653 123.27992 157.38941 L 123.2799 157.38941 C 114.61183 156.75034 107.26049 157.43626 100.91619 159.22736 C 90.184 162.22135 86.27612 168.12535 86.62311 168.38531 C 86.82314 168.53518 91.26677 162.98353 101.23628 160.42132 C 107.48403 158.83672 114.61941 158.29472 123.16191 158.95381 C 125.15443 159.10974 127.18352 159.32693 129.24089 159.61267 C 141.9944 161.384 152.11974 165.24856 159.62684 169.16535 C 166.8747 172.94688 170.8572 176.19147 170.9935 176.02072 Z"
                        fill="black"/>
               </g>
            </g>
            <g>
               <title>path6600</title>
               <g  id="outline-18">
                  <path 
                        d="M 120.69457 142.561 C 120.77034 142.37454 117.9346 141.49445 113.47778 141.3842 C 108.29761 141.23832 101.29885 142.84037 94.94687 148.22823 C 91.56976 151.09274 89.10959 154.44407 87.49687 157.78168 C 87.21459 158.38512 87.1045 158.98276 87.0216 159.48697 C 86.87333 160.3116 86.77896 161.12844 86.70424 161.88513 C 86.50799 163.86615 86.42053 165.7988 86.37286 167.29585 C 86.52538 168.71364 86.62418 169.62903 86.63069 170.61594 L 86.63069 170.61594 C 86.65229 170.65739 86.67357 170.69622 86.69042 170.73352 L 86.69042 170.73352 C 86.69533 170.74481 86.69697 170.74743 86.70352 170.73941 C 86.76668 170.64865 86.83754 170.55026 86.89732 170.43773 C 86.80355 169.11967 86.73646 168.38666 86.62341 168.3853 C 86.5298 168.38418 86.39988 169.11125 86.31387 170.43937 C 86.37295 170.52846 86.43251 170.63285 86.52195 170.75523 C 86.53013 170.76636 86.54191 170.76717 86.55059 170.75948 L 86.55059 170.75948 C 86.57939 170.73436 86.60508 170.70983 86.63241 170.68684 C 86.77298 169.93043 87.0314 168.51463 87.3154 167.3596 C 87.46448 165.92091 87.666 163.91939 87.93152 162.03199 C 88.03576 161.29236 88.15517 160.5075 88.31936 159.74198 C 88.4349 159.23627 88.52571 158.74956 88.72258 158.3945 C 90.34431 155.26316 92.72695 152.11902 95.93681 149.39483 C 101.97656 144.26893 108.50502 142.57179 113.478 142.42572 C 118.07288 142.31547 120.61898 142.74752 120.69478 142.56107 Z"
                        fill="black"/>
               </g>
            </g>
            <g>
               <title>path6604</title>
               <g  id="outline-19">
                  <path 
                        d="M 120.69457 142.561 C 120.86789 142.45744 120.55662 141.72398 120.1399 140.41919 C 119.7662 139.24915 119.15286 137.18667 119.97357 135.58962 L 119.97357 135.58962 C 120.4913 134.30925 121.92264 133.44123 123.7096 132.90588 C 123.78455 132.88344 123.85933 132.86181 123.93402 132.84096 C 126.19887 132.26769 128.50565 132.38745 130.38065 132.67456 C 133.88595 133.26433 135.77916 134.6932 136.00295 134.46943 C 136.2806 134.19178 134.61895 132.12014 130.6793 131.19717 C 128.68094 130.70093 126.13761 130.46155 123.50283 131.10571 C 123.412 131.12597 123.32108 131.14783 123.22991 131.17132 C 121.06075 131.73013 119.25501 133.0754 118.4705 134.97386 C 118.4705 134.97386 118.4705 134.97386 118.4705 134.97386 C 117.63551 137.42858 118.56803 139.6635 119.21987 140.82368 C 119.93696 142.1001 120.57192 142.63427 120.69457 142.56098 Z"
                        fill="black"/>
               </g>
            </g>
            <g>
               <title>path6608</title>
               <g  id="outline-20">
                  <path 
                        d="M 149.71537 186.3233 C 149.4088 186.20635 148.05244 190.61094 147.60496 197.48057 L 147.60496 197.48057 C 147.48926 199.1063 147.35482 201.05594 146.9355 202.82375 C 146.74661 204.07232 146.46152 205.39152 145.7373 206.15042 C 143.01616 205.46011 139.81586 204.94787 136.58441 205.50916 C 134.43926 205.8874 132.20885 206.85988 130.55171 208.66425 C 130.2054 209.0577 129.89709 209.4787 129.62663 209.92162 C 128.80169 211.27262 128.35136 212.79012 128.22126 214.28177 C 128.01793 216.57484 128.42224 218.79522 129.09515 220.7666 C 130.84047 225.94537 134.23193 229.79155 137.69159 232.15956 C 139.98088 233.7317 142.28444 234.5921 144.34424 234.94808 C 149.24535 235.78658 151.55965 233.915 151.57103 233.95177 C 151.49493 233.70612 148.7798 234.68796 144.63262 233.60017 C 142.78984 233.12096 140.78025 232.20212 138.76347 230.67178 C 135.70749 228.34575 132.74514 224.73254 131.25887 220.05703 C 130.704 218.2845 130.36362 216.3688 130.55965 214.50652 C 130.68631 213.32693 131.0301 212.14269 131.63565 211.1455 C 131.83432 210.81833 132.05954 210.51406 132.3118 210.23811 C 133.45557 208.91026 135.24528 208.1575 137.02048 207.78436 C 140.11609 207.13314 143.3971 207.4622 146.27083 207.93914 C 147.73653 206.50833 148.45783 204.74668 148.85347 203.22893 C 149.23172 201.21978 149.27146 199.1946 149.2822 197.54545 L 149.2822 197.54545 C 149.3745 190.45938 150.02193 186.44027 149.71537 186.3233 Z"
                        fill="black"/>
               </g>
            </g>
            <g>
               <title>path6612</title>
               <g  id="outline-21">
                  <path 
                        d="M 143.22058 179.51924 C 143.01171 179.5261 143.27425 183.26245 143.0805 189.25745 L 143.0805 189.25745 C 143.03009 190.79608 142.93321 192.62966 142.56366 194.38342 C 142.29318 195.552 141.9791 196.84943 141.17384 197.57549 C 140.70995 198.14978 139.66768 198.06422 138.54071 198.02096 C 137.05231 197.8738 135.62972 197.49487 133.9773 197.12921 C 132.44558 196.7835 130.7518 196.41522 128.99107 196.38564 C 127.57986 196.32954 125.94117 196.64779 124.70088 197.80342 C 123.94674 198.5534 123.2429 199.37336 122.6061 200.25542 C 120.86346 202.66923 119.73527 205.38922 119.32844 208.17246 C 118.78524 211.99408 119.56031 215.68337 120.91087 218.70404 C 123.51839 224.58389 127.96049 227.96236 131.22197 229.4947 C 134.56831 231.06694 136.71695 230.91604 136.72572 230.859 C 136.74945 230.70436 134.64893 230.43968 131.60952 228.73905 C 128.59839 227.05424 124.57916 223.6781 122.2421 218.12814 C 121.05587 215.285 120.3888 211.8602 120.92409 208.4091 C 121.30148 205.9041 122.34683 203.4352 123.94585 201.22327 C 124.53023 200.4149 125.17502 199.66 125.86416 198.9667 C 126.53006 198.21635 127.78187 198.03977 128.97553 198.00866 C 130.51427 198.01062 132.11174 198.34931 133.64598 198.66501 C 135.26277 199.00462 136.76559 199.36978 138.40595 199.5065 C 139.62246 199.67581 141.07652 199.56455 142.17442 198.57608 C 143.27573 197.39504 143.64978 195.87077 143.841 194.62802 C 144.17164 192.7249 144.19784 190.83343 144.17111 189.26582 L 144.17111 189.26581 C 144.07096 183.15178 143.16528 179.52105 143.22051 179.51924 Z"
                        fill="black"/>
               </g>
            </g>
            <g>
               <title>path6616</title>
               <g  id="outline-22">
                  <path 
                        d="M 161.77713 137.76701 C 162.27562 137.54578 160.87096 133.08601 155.95554 129.89355 C 151.01228 126.68302 146.36804 126.89596 146.31332 127.25163 C 146.23804 127.7414 150.65872 128.62594 154.9881 131.39424 C 159.31748 134.16255 161.3242 137.96802 161.77713 137.76701 Z"
                        fill="black"/>
               </g>
            </g>
            <g>
               <title>path6620</title>
               <g  id="outline-23">
                  <path 
                        d="M 146.62261 127.25163 C 146.79389 127.35695 147.39603 126.56605 148.52326 125.25185 C 149.52866 124.07967 151.32978 121.99975 153.61211 121.69441 C 154.35586 121.56482 155.19466 121.69147 155.92623 122.07902 C 156.62604 122.43792 157.24527 123.02074 157.81894 123.72314 C 157.8767 123.79382 157.93365 123.86527 157.98967 123.93727 C 159.56914 125.98488 160.39884 128.5289 160.9204 130.61308 C 161.93173 134.80164 161.48312 137.69661 161.77713 137.76702 C 162.1265 137.85067 163.15295 134.9283 162.31864 130.319 C 161.93148 128.0808 161.12082 125.31096 159.3205 122.92313 C 159.25667 122.8378 159.19105 122.75292 159.12359 122.66869 C 158.45322 121.83186 157.6409 121.11032 156.67638 120.6159 C 155.59628 120.07455 154.40021 119.94425 153.31395 120.17343 C 150.34617 120.9006 148.58598 123.29623 147.73447 124.67809 C 146.79274 126.2064 146.50736 127.18076 146.62261 127.25163 Z"
                        fill="black"/>
               </g>
            </g>
            <g>
               <title>path6624</title>
               <g  id="outline-24">
                  <path 
                        d="M 161.77713 137.76701 C 161.64948 137.62545 159.25515 140.04106 155.12998 139.9388 C 153.39387 139.90104 151.47603 139.38531 149.71426 138.26015 C 149.54169 138.14994 149.3733 138.0355 149.2093 137.91717 C 147.41272 136.61047 146.23608 134.93323 145.76061 133.24279 C 144.75233 129.78126 146.76626 127.3561 146.62261 127.25163 C 147.02435 127.5438 143.85226 128.75211 144.94988 133.45377 C 145.41268 135.36877 146.66379 137.28233 148.63586 138.70807 C 148.81476 138.83835 148.99864 138.964 149.1873 139.08466 C 151.11531 140.31778 153.22688 140.8378 155.12714 140.81181 C 160.15583 140.72992 161.61666 137.589 161.77713 137.76701 Z"
                        fill="black"/>
               </g>
            </g>
            <g>
               <title>path6628</title>
               <ellipse cx="149.71124" cy="132.89591" rx="3.89542930457884" ry="3.65934255608274"
                        fill="black"/>
               <ellipse cx="149.71124" cy="132.89591" rx="3.89542930457884" ry="3.65934255608274"
                        stroke="black"
                        stroke-linecap="round"
                        stroke-linejoin="round"
                        stroke-width=".4580112"/>
            </g>
            <g>
               <title>path6630</title>
               <circle cx="148.01436" cy="132.66396" r="1.23710510108555"/>
               <circle cx="148.01436" cy="132.66396" r="1.23710510108555" stroke="#fffff0"
                       stroke-linecap="round"
                       stroke-linejoin="round"
                       stroke-width=".3"/>
            </g>
            <g>
               <title>path6632</title>
               <g  id="outline-25">
                  <path 
                        d="M 238.56902 284.05406 C 238.4208 284.1246 238.97802 285.9438 240.55822 288.5548 C 242.18436 291.24168 244.6918 294.40742 248.37886 297.46805 C 255.76014 303.5953 263.19028 305.50325 263.2811 305.2671 C 263.41957 304.9071 256.25402 302.17093 249.26962 296.39316 C 242.28523 290.61538 238.91723 283.8882 238.56902 284.05406 Z"
                        fill="black"/>
               </g>
            </g>
            <g>
               <title>path6636</title>
               <g  id="outline-26">
                  <path 
                        d="M 228.72792 282.52323 C 228.5199 282.57953 228.7604 285.2675 230.54607 289.26674 C 232.35936 293.3278 235.63745 298.3142 240.96104 302.59322 C 241.13053 302.72954 241.30063 302.86376 241.4713 302.99614 C 244.9896 305.7479 248.67883 307.4083 252.2904 307.92473 C 260.15473 309.01412 263.1272 304.58785 263.2811 304.8297 C 263.08564 304.52254 258.85422 307.4556 252.57027 306.22914 C 249.31868 305.61258 246.0331 303.99248 242.70526 301.41188 C 242.54363 301.28538 242.38238 301.15735 242.22154 301.02763 C 237.16593 296.95002 233.89757 292.38762 231.81775 288.63337 C 229.79187 284.97647 228.9955 282.45074 228.72792 282.52323 Z"
                        fill="black"/>
               </g>
            </g>
            <g>
               <title>path6640</title>
               <g  id="outline-27">
                  <path 
                        d="M 235.06996 295.426 C 234.6459 295.51486 235.37825 300.0813 239.54335 305.63963 C 241.65937 308.4792 244.36766 311.3369 247.77385 314.1226 C 248.09377 314.38423 248.41434 314.64073 248.7351 314.89216 L 248.7351 314.89216 C 252.48428 317.83585 256.04683 319.929 259.38933 321.36494 C 264.75534 323.70673 268.5706 323.51285 268.5297 322.98106 C 268.5094 322.71752 264.91975 322.6109 259.9286 320.19264 C 256.74386 318.6253 253.39706 316.53137 249.72675 313.6328 L 249.72675 313.63277 C 249.41475 313.38594 249.1026 313.13492 248.79076 312.87968 C 245.461 310.15423 242.80238 307.46755 240.6313 304.79373 C 236.5175 299.6982 235.35634 295.36592 235.06996 295.426 Z"
                        fill="black"/>
               </g>
            </g>
            <g>
               <title>path6644</title>
               <g  id="outline-28">
                  <path 
                        d="M 232.88305 309.4222 C 232.50475 309.6203 234.11257 314.04857 239.81226 318.0751 C 242.12801 319.72026 244.86948 321.18846 248.0435 322.36913 C 248.87347 322.67787 249.6997 322.95454 250.51654 323.20215 L 250.51655 323.20215 C 254.48295 324.41173 258.00364 324.8912 261.06483 324.85917 L 261.06483 324.85917 C 265.7003 324.90434 268.25946 323.29288 267.87362 322.76236 C 267.68117 322.49774 265.37327 323.47104 261.1199 323.2243 L 261.1199 323.2243 C 258.1958 322.98926 254.9712 322.37764 251.15112 321.16342 L 251.15112 321.16342 C 250.3729 320.91455 249.58564 320.64425 248.79463 320.34998 C 245.76247 319.2219 243.15588 317.9205 240.88282 316.4821 C 235.56434 313.09584 233.25394 309.228 232.88305 309.4222 Z"
                        fill="black"/>
               </g>
            </g>
            <g>
               <title>path6648</title>
               <g  id="outline-29">
                  <path 
                        d="M 241.1933 318.38855 C 240.90498 318.50687 241.88183 323.2637 247.4695 328.03997 C 250.30516 330.4676 253.61962 332.44954 257.66714 334.46376 C 257.66715 334.46376 257.6861 334.47357 257.6861 334.47357 C 261.6794 336.4663 265.46303 338.0917 268.58715 339.62625 C 274.50603 342.548 277.86098 345.36037 278.1521 345.06926 C 278.54837 344.673 275.47315 341.28306 269.49748 337.9061 C 265.95563 335.8958 263.0837 334.61914 258.70433 332.43332 C 258.70435 332.43334 258.68566 332.4235 258.68567 332.4235 C 254.66132 330.4078 251.5383 328.68152 248.70422 326.51626 C 243.47972 322.52003 241.57895 318.23014 241.1933 318.38847 Z"
                        fill="black"/>
               </g>
            </g>
            <g>
               <title>path6652</title>
               <g  id="outline-30">
                  <path 
                        d="M 233.53912 323.41845 C 233.36528 323.43563 233.13885 325.6844 235.3799 328.7766 C 236.6088 330.49026 238.26077 332.15008 240.5337 333.90948 L 240.5337 333.90948 C 243.88988 336.51314 247.88877 338.8647 252.72864 341.02787 C 253.7588 341.4883 254.78326 341.9208 255.7927 342.32784 C 261.7506 344.73985 266.60925 346.0682 271.01398 346.62153 C 273.17946 346.9026 274.72334 346.92795 276.15805 346.605 C 276.81174 346.4659 277.31327 346.23694 277.68373 345.91956 C 278.47662 345.235 278.0363 344.73607 278.0974 344.7408 C 278.00603 344.73424 277.922 345.2004 277.37683 345.4912 C 277.03443 345.68243 276.6463 345.76156 276.03316 345.82463 C 274.64606 345.9498 273.36328 345.77864 271.21363 345.37016 C 266.8926 344.5284 262.40446 343.12137 256.46998 340.6712 C 255.48035 340.26095 254.47548 339.83083 253.4657 339.37924 C 248.69927 337.24767 244.82115 335.07927 241.45102 332.677 C 239.17154 331.0484 237.5523 329.62253 236.24985 328.097 C 234.0619 325.50725 233.74598 323.39786 233.53912 323.4184 Z"
                        fill="black"/>
               </g>
            </g>
            <g>
               <title>path6660</title>
               <g  id="outline-31">
                  <path 
                        d="M 132.72257 345.06885 C 133.21263 345.1181 130.25828 350.23518 135.0216 358.57126 C 137.19212 362.3481 140.59091 365.9086 145.39736 369.146 C 154.50346 375.29256 165.54299 379.05567 179.38158 381.71687 C 180.41073 381.9164 181.44776 382.1078 182.49235 382.2905 C 194.62717 384.41286 205.82317 385.0234 215.83192 384.64467 L 215.83193 384.64467 C 220.90546 384.45534 225.2739 384.03465 229.41712 383.1462 L 229.41712 383.1462 C 231.0977 382.7873 232.64554 382.3639 234.11184 381.765 C 235.215 381.33004 236.26798 380.77826 237.1142 379.91675 C 238.05188 378.96306 238.54102 377.7007 238.44383 376.4733 C 238.29215 375.1878 237.61105 374.169 236.94892 373.468 C 233.73778 369.9637 231.10294 370.85447 231.13352 370.6557 C 231.10475 370.8427 233.7314 371.11986 236.14526 374.1567 C 236.65294 374.8205 237.16598 375.6885 237.1775 376.56856 C 237.23172 377.35394 236.7937 378.1997 236.0874 378.88993 C 235.45888 379.50307 234.57768 379.87427 233.53419 380.26717 C 232.16762 380.76075 230.70942 381.0931 229.0711 381.387 L 229.07108 381.387 C 225.02456 382.1092 220.79692 382.3913 215.7725 382.4789 L 215.7725 382.4789 C 205.88646 382.6459 194.89865 381.9303 182.92135 379.83684 C 181.89122 379.6568 180.8683 379.46906 179.85284 379.27416 C 166.14212 376.6203 155.47621 373.1989 146.51153 367.45306 C 141.81903 364.43905 138.51003 361.25666 136.3091 357.7939 C 131.85041 350.8235 133.00359 345.0971 132.72257 345.06885 Z"
                        fill="black"/>
               </g>
            </g>
            <g>
               <title>path6664</title>
               <g  id="outline-32">
                  <path 
                        d="M 245.67648 336.4579 C 245.34488 336.53677 245.74724 338.0924 247.15545 340.43358 C 248.10298 342.03494 249.22988 343.65423 250.83097 345.8077 C 253.449 349.33073 256.904 353.54973 260.42673 358.3263 C 261.08888 359.22462 261.7581 360.1482 262.40693 361.08676 C 263.1333 362.1375 263.81346 363.1771 264.44215 364.22707 C 265.41538 365.87197 266.24688 367.3786 266.64782 368.97083 C 266.79145 369.55996 266.88322 370.1026 266.8261 370.5876 C 266.78033 370.97886 266.66027 371.34345 266.44996 371.585 C 266.2244 371.89416 265.8029 372.11513 265.35138 372.28818 C 264.65444 372.54176 263.84737 372.61184 263.0624 372.63936 C 260.85857 372.7323 258.81474 371.5821 257.47853 370.54944 C 254.73522 368.41863 253.40256 366.57094 253.2213 366.71924 C 253.24625 366.6988 253.9247 368.8809 256.6584 371.4957 C 258.01633 372.7987 260.2411 374.26456 263.0624 374.358 C 263.935 374.3855 264.91885 374.3323 265.91782 374.0366 C 266.6022 373.8417 267.3148 373.4622 267.89923 372.82416 C 268.39362 372.2415 268.68693 371.53855 268.772 370.81624 C 268.86754 370.0019 268.78035 369.21643 268.6014 368.49127 C 268.1403 366.5721 267.25474 364.847 266.24905 363.1554 C 265.59934 362.04996 264.89703 360.96486 264.14956 359.88264 C 263.4811 358.91482 262.79467 357.97553 262.1148 357.07024 C 258.86936 352.7463 254.50516 347.66315 252.10156 344.8033 C 250.27747 342.6315 249.2556 341.40526 248.05044 339.83037 C 246.44968 337.698 245.86817 336.4123 245.67648 336.4579 Z"
                        fill="black"/>
               </g>
            </g>
            <g>
               <title>path6668</title>
               <g  id="outline-33">
                  <path 
                        d="M 255.96272 369.69034 C 255.78152 369.42014 254.70355 369.87693 252.99377 370.2987 C 251.2626 370.72574 248.7554 371.0327 245.89947 371.55065 C 245.77243 371.5737 245.646 371.5971 245.52012 371.62118 C 242.52978 372.09605 240.23304 372.85545 238.51783 374.11428 C 236.93095 375.2789 236.49246 376.4226 236.70983 376.60378 C 236.9476 376.802 237.776 376.0939 239.29565 375.46835 C 241.20658 374.68178 242.7413 374.5017 245.92025 373.87866 C 245.88716 373.88357 246.3256 373.81205 246.29252 373.81745 C 249.34564 373.31278 251.59114 372.79797 253.5606 371.8019 C 255.33955 370.90216 256.13163 369.94223 255.96272 369.69036 Z"
                        fill="black"/>
               </g>
            </g>
            <g>
               <title>path6672</title>
               <g  id="outline-34">
                  <path 
                        d="M 120.69457 142.561 C 120.58493 142.68092 126.6205 148.27635 131.58577 156.93015 C 131.7324 157.18566 131.87666 157.4405 132.01867 157.69454 L 132.01867 157.69454 C 134.46962 162.08534 135.96891 165.6437 136.96903 168.81054 C 137.90055 171.76014 138.19422 173.655 138.27216 173.643 C 138.32666 173.63465 138.19885 171.71158 137.35824 168.69494 C 136.46652 165.4945 134.98275 161.80443 132.53233 157.40803 C 132.38963 157.1517 132.2445 156.89466 132.09678 156.63703 C 127.03602 147.81134 120.89322 142.34381 120.69457 142.561 Z"
                        fill="black"/>
               </g>
            </g>
         </g>
      </g>
   </g>
</svg>