<?xml version="1.0" encoding="utf-8"?>
<svg xmlns="http://www.w3.org/2000/svg" xmlns:dc="http://purl.org/dc/elements/1.1/"
     xmlns:xl="http://www.w3.org/1999/xlink"
     xmlns:xlink="http://www.w3.org/1999/xlink"
     version="1.1"
     viewBox="58.5 63 306 234"
     width="306"
     height="234"
     preserveAspectRatio="xMidYMid meet"
     zoomAndPan="magnify"
     contentScriptType="application/ecmascript"
     contentStyleType="text/css">
   <defs/>
   <metadata xmlns="" xmlns:svg="http://www.w3.org/2000/svg"
             xmlns:rdf="http://www.w3.org/1999/02/22-rdf-syntax-ns#"
             xmlns:cc="http://creativecommons.org/ns#">
      <rdf:RDF>
         <cc:Work rdf:about="">
            <dc:creator>
               <cc:Agent>
                  <dc:title>http://heraldicart.org Goat Courant.svg</dc:title>
               </cc:Agent>
            </dc:creator>
         </cc:Work>
      </rdf:RDF>
   </metadata>
   <g stroke-opacity="1" stroke-dasharray="none" stroke="#505050" fill="#ffff00"
      fill-opacity="1">
      <title>Goat Courant</title>
      <g>
         <title>Layer 2</title>
         <g>
            <g>
               <g  id="outline-0">
                  <path
                        d="M 145.40726 64.689155 C 135.3296 65.35722 120.05891 69.27398 117.23393 71.90714 C 116.87064 72.24159 113.94577 73.851154 110.73531 75.54773 C 105.89842 78.05196 104.35827 79.10418 102.05986 81.35903 C 100.56859 82.86154 98.76219 85.10781 98.12621 86.26728 C 97.49095 87.46776 96.73125 88.58839 96.48811 88.75669 C 96.24425 88.88399 95.58108 88.48543 94.9949 87.79843 C 94.40871 87.11143 92.83064 85.9906 91.54672 85.27477 C 88.73146 83.76539 87.64539 82.63597 85.52807 78.81766 C 84.63985 77.27465 83.71493 75.97836 83.42792 75.98337 C 82.4849 75.99983 79.69406 82.93882 79.73342 85.19387 C 79.76276 86.87491 80.6293 89.52567 81.55494 90.86296 C 81.97497 91.42981 82.31944 92.36711 82.32946 92.94113 C 82.33876 93.47414 82.63794 94.16615 82.97095 94.44743 C 83.63627 94.96899 83.8196 96.07315 83.24559 96.08317 C 82.83558 96.09033 75.13893 103.93522 75.14609 104.34523 C 75.14895 104.50923 75.40569 105.11995 75.74372 105.68824 C 76.71895 107.51683 76.86342 108.74471 76.32447 110.76378 C 75.74381 112.74256 74.26971 115.2291 72.53959 117.14592 C 70.97133 118.93688 68.24838 122.71664 67.5757 124.12284 C 67.21886 124.8263 66.29301 125.82678 65.52186 126.29139 C 63.33214 127.72407 62.159364 131.02562 63.53172 132.10903 C 64.446625 132.8313 64.33006 133.20246 62.765376 135.19842 C 61.07983 137.31953 60.66174 139.21345 61.55712 141.16647 C 62.96812 144.46394 67.209624 147.79402 69.37481 147.30508 C 70.927835 146.99088 70.89614 147.5246 69.16244 149.23642 C 67.71145 150.69722 67.483334 151.72654 68.170125 153.47814 C 68.726755 154.82187 69.42807 155.0557 74.60278 155.45754 L 79.12077 155.82983 L 79.10481 157.26558 C 79.091725 158.86534 77.99165 161.63244 76.19741 164.57572 C 74.64203 167.1047 74.63968 169.31946 76.10978 171.30347 C 77.70432 173.36732 78.86523 174.0853 80.66927 174.05381 C 81.5713 174.03807 82.96891 174.21874 83.75151 174.41015 C 85.02898 174.75697 85.27427 174.71167 85.99654 173.79677 C 86.43825 173.25588 87.20725 172.66827 87.69712 172.53668 C 89.20556 172.01819 90.65727 170.59839 90.63938 169.57336 C 90.61791 168.34333 89.13185 167.79508 88.24629 168.75385 C 87.68229 169.33789 87.68372 169.41989 88.34404 169.65444 C 89.00435 169.889 89.00578 169.971 88.36193 170.67947 C 87.51737 171.63752 86.45206 171.69713 85.74072 170.88928 C 85.07111 170.1217 85.48992 168.26879 86.42721 167.92432 C 87.4868 167.5367 90.14563 164.7834 90.13275 164.04538 C 90.12702 163.71738 90.40258 163.05635 90.72272 162.59961 C 91.16371 162.01773 91.23283 161.27828 91.04306 159.8051 C 90.85973 158.70094 90.91955 157.42848 91.11597 156.93288 C 92.73546 153.37745 92.7006 149.03063 91.14635 146.92506 C 90.64217 146.23663 90.22071 145.58777 90.21856 145.46477 C 90.20854 144.89075 93.39588 144.21991 97.90027 143.81318 C 103.34696 143.34899 104.89498 142.74778 108.12354 139.73845 C 110.18167 137.8159 111.40096 137.17942 111.82314 137.86928 C 112.03315 138.1527 111.8396 138.8123 111.35904 139.4769 C 109.95907 141.511 111.53408 144.8056 113.91214 144.7641 C 114.73216 144.74979 114.8163 144.87136 114.5429 145.65539 C 113.60682 148.41963 114.89983 152.00625 117.13106 152.95163 C 118.12296 153.38546 118.41713 153.79046 118.51917 154.93706 C 118.8074 157.35183 119.10729 158.08483 120.53353 159.90555 C 121.32972 160.87597 122.05322 162.38085 122.23154 163.198 C 122.59533 165.24233 123.8957 166.90118 125.9658 168.01343 C 127.45614 168.80768 127.75102 169.25369 128.6147 171.74043 C 129.26335 173.65675 129.94012 174.83433 130.68744 175.35446 C 131.26861 175.75445 131.77208 176.40188 131.7778 176.72988 C 131.80643 178.36992 132.95568 180.76966 134.5855 182.5048 C 136.21531 184.23993 136.34332 184.52479 136.55456 187.228 C 136.66447 188.8256 137.0664 190.7052 137.49001 191.47707 C 138.46596 193.34665 138.14224 193.59839 133.73489 194.8647 C 131.81643 195.39036 129.4534 196.29289 128.43696 196.8028 C 127.42124 197.3537 125.46607 198.12607 124.16048 198.51798 C 122.81389 198.9106 120.97886 199.51682 120.08185 199.81958 C 119.18484 200.12233 116.24135 200.66587 113.53958 200.9591 C 110.8378 201.25235 108.10004 201.83331 107.40875 202.1735 C 105.82402 203.02142 102.75232 205.61787 102.76091 206.10989 C 102.77737 207.0529 96.75174 214.29444 91.19165 220.01034 C 87.80625 223.43254 85.07257 226.59728 85.07973 227.0073 C 85.10263 228.31933 83.98394 230.0204 82.08409 231.61208 C 79.740385 233.62164 79.0677 235.02784 79.1178 237.8979 C 79.151435 239.82496 78.88017 240.732 77.76936 242.88408 C 76.14199 245.9885 75.93392 248.16585 77.29268 248.47024 C 78.48743 248.7775 82.17037 248.30307 83.30838 247.70902 C 83.99967 247.36885 84.32768 247.36312 84.70313 247.7257 C 85.49574 248.4911 87.0092 248.25963 91.73884 246.65957 C 98.71065 244.28213 99.71993 243.36222 99.65123 239.42612 C 99.61759 237.49907 99.35226 236.39634 98.67549 235.21876 C 97.70241 233.51318 97.8521 232.6903 98.93745 233.77872 C 99.3129 234.14128 100.26093 234.41183 101.08095 234.39752 C 102.967 234.3646 105.10212 232.1536 105.47277 229.8914 C 105.73115 228.24635 107.03981 225.68067 107.65483 225.66993 C 107.85983 225.66636 108.01453 225.13048 108.0038 224.51546 C 107.97875 223.08043 109.37872 221.04633 111.36415 219.65823 C 112.17415 219.0699 115.42847 217.5366 118.64465 216.16804 C 123.6117 214.07168 124.91801 213.72077 128.1118 213.41894 C 131.87888 213.0661 136.90196 211.83003 137.34152 211.16614 C 137.46023 210.918 138.0774 211.03026 138.78085 211.3871 C 140.3942 212.1792 141.37752 212.12103 146.15603 210.97127 C 149.9131 210.0444 154.5412 209.67653 157.95215 210.06814 C 159.8015 210.28194 159.69137 211.0221 157.73334 211.63047 C 156.75433 211.93466 155.81846 212.36113 155.57532 212.52943 C 155.17103 212.8646 148.3897 216.7562 144.4081 218.9174 C 139.8575 221.3756 138.43105 221.89267 135.24085 222.3995 C 128.28642 223.42319 127.10312 223.77195 126.51172 225.13572 C 126.23688 225.83774 125.47646 226.91737 124.87362 227.62512 C 124.27005 228.29187 122.74923 230.45112 121.42983 232.4018 C 119.99101 234.5596 116.69477 238.39038 112.86551 242.23047 C 106.90185 248.32253 106.53785 248.61598 104.13024 249.31422 C 100.49833 250.36194 98.56893 252.61035 98.06147 256.43346 C 97.88223 257.91308 97.40739 258.9057 96.36284 260.15433 C 92.02419 265.35675 91.79157 268.47784 95.84065 267.83297 C 97.60012 267.5972 97.68212 267.59576 97.6993 268.5798 C 97.71361 269.3998 98.00563 269.6818 99.3241 270.0279 C 101.79704 270.723 102.94292 270.57995 105.58294 269.0984 C 107.65467 267.95486 109.18909 266.57464 113.00976 262.24254 C 113.57375 261.6585 114.18376 261.36076 114.71963 261.51546 C 116.65527 261.97384 119.67238 258.59908 119.62657 255.97502 C 119.60868 254.95 119.97053 254.53354 121.43011 253.56475 C 123.57955 252.1738 124.86582 250.67485 125.2882 249.02694 C 125.59474 247.79118 125.83573 247.49988 126.41333 247.69487 C 127.6498 248.0424 129.31295 246.98804 130.14534 245.33297 C 130.65903 244.21663 131.42589 243.50602 132.6869 242.90982 C 133.90762 242.35534 134.99819 241.393 135.95788 239.98178 C 137.078 238.3627 137.64414 237.90167 138.50588 237.92764 C 139.1209 237.9169 140.63006 237.43942 141.85007 236.84393 C 147.82927 233.99166 151.70218 232.65264 155.42612 232.1775 C 159.35434 231.65778 162.98769 230.69207 166.61244 229.23434 C 168.36404 228.54755 169.05962 228.45338 170.50038 228.75634 C 172.22958 229.1363 174.77021 229.00992 184.35014 228.02243 C 189.55011 227.52153 191.42829 227.0376 192.5987 225.95081 C 193.32528 225.28192 193.40728 225.28048 193.78702 225.88906 C 194.3365 226.82278 197.18274 227.75742 200.42826 228.0699 C 202.81133 228.3154 203.38463 228.26437 204.4385 227.54874 C 205.61392 226.74897 205.73693 226.74682 209.3169 227.42258 C 212.56743 228.02206 213.30545 228.00917 215.96264 227.51164 C 217.63796 227.1543 220.25844 226.90348 221.7762 226.918 C 224.2377 226.95707 224.85628 227.15134 226.51636 228.27074 C 229.50493 230.31026 232.3066 231.04061 235.82625 230.61006 C 237.42314 230.45914 239.01502 230.02122 239.3783 229.68677 C 239.94373 229.18474 240.43574 229.17615 243.0691 229.66336 C 247.14324 230.45353 250.2083 229.82584 252.5103 227.776 C 253.03472 227.27468 253.36272 227.26896 254.10718 227.62508 C 255.14223 228.1812 258.45902 227.87723 259.83945 227.07388 C 260.32717 226.81928 262.70094 226.53177 265.07828 226.44926 C 268.27493 226.31143 269.7884 226.07995 270.72282 225.57148 C 271.4544 225.18958 272.5557 224.84225 273.21172 224.8308 C 273.86773 224.81935 275.09275 224.51087 275.94733 224.12684 C 277.12778 223.61407 277.74208 223.56233 278.73183 223.87317 C 280.79476 224.5754 282.0212 224.34892 283.63763 222.96726 L 285.1332 221.71075 L 286.9127 222.623 C 288.32105 223.4187 288.6555 223.78197 288.58925 224.68543 C 288.56327 225.54716 288.89844 225.95145 290.59737 226.94713 C 291.71657 227.62483 292.63076 228.3061 292.63362 228.4701 C 292.6782 228.6744 293.05723 229.24197 293.51754 229.7671 C 294.18787 230.57568 294.84818 230.81023 297.1061 230.93487 C 299.77546 231.13436 299.85818 231.17393 301.03626 232.87593 C 302.55095 235.06422 303.71186 235.7822 306.17764 236.06727 C 307.945 236.2825 308.15285 236.44293 308.29303 237.4248 C 308.43536 238.5297 311.6504 241.79566 312.63514 241.8195 C 315.99937 241.8838 316.8237 242.1155 318.28234 243.44348 C 319.11596 244.2082 320.1546 244.96932 320.60774 245.08445 C 321.2256 245.23771 321.81824 246.29372 322.80993 249.06533 C 323.9735 252.2851 324.15396 253.22525 323.9876 255.44288 C 323.85222 257.0858 324.0017 258.60068 324.3476 259.61998 C 324.99554 261.4953 324.4933 263.26763 322.26237 267.0388 C 320.112 270.72654 319.02 271.6069 316.76496 271.64625 C 314.5099 271.6856 312.15546 273.08015 311.9755 274.51877 C 311.90352 275.0942 310.65468 276.38743 308.71382 277.97982 C 305.5587 280.4957 302.22 284.2452 302.2372 285.22922 C 302.25866 286.45925 303.3707 286.72694 305.6963 286.03013 C 308.47006 285.16144 308.38806 285.16287 308.40738 286.2699 C 308.4167 286.8029 308.6763 287.57764 309.01145 287.98192 C 309.55735 288.71064 310.05008 288.74305 314.27103 288.54633 C 317.13967 288.41423 319.30843 288.1303 319.958 287.74984 C 321.137 287.15507 323.70025 283.62418 325.3262 280.43776 C 326.5557 278.0375 327.40743 277.48947 329.0582 278.07586 C 330.1314 278.46726 330.49896 278.37882 331.8377 277.53518 C 333.82526 276.27008 334.57136 274.37044 334.3091 271.09393 C 334.19418 269.20932 334.30215 268.34615 334.78415 267.76355 C 335.8697 266.5142 336.0518 265.19858 335.3362 264.14472 C 334.70542 263.25344 334.74427 263.12972 336.4794 261.4999 C 337.48797 260.539 338.29153 259.58165 338.28795 259.37665 C 338.28438 259.17164 337.6162 258.48607 336.82644 257.88466 C 335.03835 256.4804 334.80543 254.88493 336.3513 254.16072 C 336.92102 253.9047 337.36416 253.4458 337.35987 253.1998 C 337.35557 252.9538 336.89168 252.22365 336.3055 251.53666 C 335.008 250.0418 334.9498 249.0585 336.16266 248.053 C 337.69923 246.79577 337.73308 246.38505 336.59027 244.35432 C 335.31873 241.99773 335.2181 240.93314 336.30797 239.9298 C 337.96253 238.3834 337.60017 236.4211 335.35105 234.45068 C 334.64258 233.80683 334.22183 233.19897 334.4247 233.0724 C 334.58655 232.94653 336.19203 233.28763 337.92337 233.79058 C 341.3868 234.8375 343.75533 236.60074 345.11173 239.1199 C 345.53534 239.89177 346.1523 242.3418 346.47795 244.55085 C 346.93806 247.41377 347.37526 248.96465 348.0456 249.77322 C 348.92737 250.94722 348.92737 250.94722 348.3558 255.7968 C 347.9923 258.469 347.759 261.5491 347.779 262.69713 C 347.832 265.7312 346.90306 268.90546 345.49665 270.57055 C 344.73266 271.44517 344.25854 272.47878 344.2707 273.1758 C 344.2979 274.73383 341.75563 277.11598 338.09703 278.98444 C 335.3326 280.38614 334.1643 281.59592 334.18936 283.03095 C 334.19794 283.52297 333.23682 284.85218 331.98797 286.1454 C 329.85214 288.31538 329.2996 289.55543 330.2109 290.0727 C 330.45907 290.1914 330.63166 290.68055 330.63882 291.09056 C 330.66172 292.4026 332.27364 293.1127 335.1027 293.06332 C 337.43977 293.02253 337.6872 293.10024 337.45194 293.71955 C 336.82383 295.33004 337.03528 295.69547 338.55446 295.792 C 340.32037 295.92522 345.99446 294.3907 347.45404 293.42192 C 350.2099 291.5282 352.9307 287.62544 353.29705 285.11723 C 353.44173 284.00734 353.7864 282.60686 354.1037 281.98612 C 354.6181 280.9108 354.86266 280.8245 357.0357 280.78656 C 359.8648 280.73718 360.59493 280.2733 361.37344 277.8809 C 362.1131 275.61226 362.09306 274.46423 361.21293 271.03446 C 360.63697 268.5837 360.6291 268.1327 361.1385 266.77035 C 361.80474 264.99514 361.53297 263.5234 360.05785 261.2524 C 359.3415 260.15753 359.25092 259.66695 359.5682 259.0462 C 360.24303 257.763 360.0454 255.83883 359.07087 254.05124 C 358.4761 252.87223 358.34237 252.25937 358.62293 251.88535 C 358.86393 251.59405 359.12875 250.318 359.27057 249.0441 C 359.4441 247.2365 359.34634 246.3359 358.75014 245.07488 C 358.2395 244.01745 358.10005 243.07657 358.2476 242.13068 C 358.84922 239.00316 358.90618 237.5667 358.44014 236.71354 C 358.01796 236.02368 358.1288 235.32451 358.95045 233.05443 C 360.3175 229.13428 360.25 227.61796 358.41735 226.0094 C 357.62473 225.244 356.42354 224.56773 355.72366 224.4159 C 354.2829 224.11293 353.22996 222.53178 353.1963 220.60473 C 353.18344 219.86672 352.8001 219.05314 352.2578 218.52943 C 351.4666 217.846 350.97317 217.7726 348.885 217.9731 C 346.7565 218.21532 346.13934 218.10305 344.7317 217.34836 L 343.0745 216.39297 L 342.9841 213.5646 C 342.95262 211.76057 342.6384 210.20754 342.2141 209.39467 C 341.1547 207.44452 337.40236 203.94184 335.0417 202.6296 C 333.92392 202.0339 332.26742 201.1195 331.4381 200.6008 L 329.9039 199.64327 L 330.57943 198.40107 C 331.17584 197.3243 331.542 197.15386 333.58774 196.87207 C 334.9789 196.68374 336.1615 196.29397 336.52336 195.87752 C 337.56863 194.66988 338.3371 191.7035 338.2906 189.03843 C 338.24766 186.57837 338.16208 186.3748 336.3611 184.23252 C 335.3146 183.02038 333.8991 181.81468 333.23808 181.53912 C 332.2886 181.18658 331.8686 180.61972 331.5184 179.35441 C 330.47067 175.7225 330.26137 175.48007 327.5324 174.21527 C 324.76315 172.9922 324.0461 171.85633 325.97314 171.8227 C 327.6542 171.79335 330.45606 170.18593 331.69846 168.5237 C 332.9013 166.9442 334.6891 163.6319 337.5007 157.88195 C 339.04605 154.77896 339.20647 154.5711 340.7588 154.2159 C 348.1535 152.56932 349.39017 150.57908 344.4271 148.2049 C 343.0202 147.49122 340.87454 146.74941 339.6402 146.52488 C 336.5537 145.92254 330.32797 146.40033 328.45767 147.33527 C 325.48964 148.82255 322.64012 152.39945 321.7148 155.77871 C 321.1737 157.67478 318.23 160.5561 316.75467 160.62286 C 315.27935 160.68962 310.5449 159.6649 310.2083 159.17861 C 310.04074 158.97647 309.8667 158.40532 309.85812 157.9133 C 309.8431 157.05229 308.17013 155.19487 307.51698 155.37032 C 306.74154 155.58892 304.51317 154.80755 301.36775 153.1809 C 299.54653 152.22836 297.39873 151.36356 296.61685 151.21315 C 295.83497 151.06274 293.97704 150.35693 292.48812 149.64468 C 289.5513 148.21945 285.51243 147.10056 283.46238 147.13634 C 282.72436 147.14923 280.63975 147.55474 278.7623 148.07967 L 275.37424 149.00009 L 272.73228 148.02087 C 268.3151 146.3754 269.4653 146.47837 252.03198 146.33152 C 250.67895 146.35514 248.59076 146.55564 247.44774 146.86269 C 245.85443 147.2186 244.5021 147.28322 242.32333 146.99315 C 240.679 146.77577 238.2542 146.48998 236.9796 146.30716 C 235.6647 146.16606 232.91692 146.17301 230.82802 146.33251 C 226.1179 146.70182 224.6426 146.76859 220.4569 146.63658 C 218.65143 146.58607 215.28791 146.56275 212.99257 146.64383 C 209.38591 146.78881 208.69104 146.92398 208.0472 147.63245 C 207.3235 148.46535 207.2825 148.46607 203.44792 147.3026 C 201.34542 146.68308 199.36735 146.14342 199.08035 146.14843 C 198.83434 146.15272 197.226 145.64762 195.5738 144.97923 C 193.50942 144.195 192.3981 143.96831 192.0751 144.26104 C 191.46868 144.76379 189.7359 144.17883 188.07153 142.81343 C 187.4055 142.25086 186.57903 141.89617 186.29417 142.02418 C 186.0093 142.1522 185.38714 141.75292 184.8851 141.18749 C 183.96304 140.0552 178.9554 137.47674 177.72537 137.49821 C 177.27436 137.50608 176.03073 136.74853 174.98853 135.7824 C 173.90461 134.77598 172.16396 133.74001 171.00878 133.35004 C 169.8536 132.96007 168.2431 132.33197 167.4152 131.89527 C 166.58803 131.49957 165.59757 131.14774 165.26956 131.15346 C 164.90055 131.1599 164.14679 130.27076 163.55345 129.17376 C 163.00111 128.07603 161.9949 126.82218 161.37201 126.3819 C 159.79537 125.34307 156.4571 124.41702 153.58203 124.1801 C 152.22685 124.08072 151.03352 123.85547 150.90766 123.69361 C 150.7818 123.53175 150.43732 122.59446 150.13314 121.61544 C 149.82896 120.63643 149.11047 119.41856 148.56887 118.93586 C 147.11093 117.64887 144.1424 116.75738 141.39533 116.80533 C 139.18127 116.84397 139.05684 116.76412 137.55074 115.06784 C 136.08493 113.32984 134.59602 112.61759 130.97433 111.90155 C 130.31545 111.749 129.81914 111.51158 129.81628 111.34758 C 129.81342 111.18357 131.03128 110.46508 132.53687 109.78259 C 135.26318 108.54561 139.0996 105.11554 140.65355 102.50456 C 142.32835 99.76843 143.33549 98.72552 144.27851 98.70906 C 144.85252 98.69904 145.17695 98.48831 145.08923 98.16173 C 144.87492 97.6323 139.16862 97.32176 137.45445 97.80283 C 136.96458 97.93442 135.78915 98.7342 134.86116 99.61168 C 133.28717 101.07463 133.0836 101.16021 130.5401 101.12258 C 128.16061 101.08208 127.46645 101.25826 124.41643 102.74697 C 120.8384 104.53199 120.26724 104.70601 120.25651 104.091 C 120.25078 103.76299 126.51126 100.5777 128.38801 100.01176 C 128.95916 99.83774 131.03661 99.02222 132.99106 98.20885 C 137.91927 96.23621 142.86822 95.45259 153.93349 94.97235 C 163.85144 94.55315 169.18801 94.82912 177.33055 96.08146 C 182.05998 96.81917 188.8006 97.64483 196.85255 98.40658 C 199.44134 98.6895 202.9753 99.07896 204.66135 99.33662 C 209.10163 99.95635 220.4589 99.75811 222.4975 99.06631 C 227.4293 97.29867 234.18107 94.06379 236.3255 92.38582 C 237.0132 91.84064 238.31164 91.03872 239.24608 90.53024 C 241.31852 89.42772 241.99693 88.34952 241.36045 87.13023 C 241.02242 86.56194 240.65055 86.40438 240.2024 86.57625 C 236.9855 87.90382 226.91 88.6949 221.68926 88.00677 C 219.5522 87.75697 217.21442 87.75677 208.7725 88.1502 C 206.7649 88.26727 204.34297 88.14549 203.39493 87.87495 C 202.48862 87.64469 200.63713 87.30788 199.28052 87.12649 C 197.9649 86.94439 195.74155 86.45002 194.38064 86.02263 C 193.01974 85.59524 188.9456 84.80507 185.3275 84.29403 C 181.70867 83.742 177.80213 83.15397 176.6088 82.92872 C 173.76971 82.40408 154.54883 83.23175 147.59297 84.17343 C 136.54488 85.6377 133.31582 86.26825 127.97045 87.83804 C 121.40149 89.79831 116.22513 91.65224 113.66426 92.96836 C 111.46881 94.07304 111.34652 94.11618 110.80063 93.38747 C 110.12815 92.4559 110.4261 90.72813 111.35624 89.97365 C 113.21724 88.50569 125.34751 83.2493 128.45285 82.57989 C 129.71888 82.2707 131.47548 81.87091 132.37464 81.69117 C 133.27308 81.47042 135.19512 81.14977 136.66901 81.001 C 138.14218 80.81124 140.3498 80.40358 141.57482 80.0951 C 144.7593 79.26026 150.57644 78.87163 153.3321 79.31569 C 154.6477 79.49779 160.14828 79.7709 165.564 79.88144 C 170.98042 80.032975 176.88958 80.21692 178.69577 80.30844 C 187.35772 80.77245 196.2435 79.96113 202.1183 78.17703 C 203.3016 77.82827 205.9452 76.55172 208.0162 75.36719 C 210.08722 74.18266 212.5251 72.86869 213.42067 72.483935 C 214.31554 72.05818 215.61326 71.21526 216.25926 70.62979 C 217.34982 69.66745 217.38796 69.50273 216.80607 69.061735 C 216.3069 68.66031 214.74815 68.64651 210.03733 68.97482 C 201.6407 69.61354 194.09724 69.78623 191.63073 69.46016 C 190.52084 69.31548 188.17806 69.02826 186.49273 68.8116 C 184.8081 68.63594 182.87462 68.300565 182.17474 68.14873 C 181.51514 67.95517 179.54065 67.62052 177.8546 67.36285 C 176.16926 67.14619 173.4956 66.700695 171.89085 66.4006 C 170.32637 66.058785 167.53114 65.69744 165.72352 65.523925 C 163.9159 65.35041 160.13593 64.96524 157.30042 64.64561 C 154.46562 64.36699 152.08327 64.16249 151.96098 64.20564 C 151.8387 64.248786 148.88948 64.46432 145.40726 64.689155 Z"
                        fill="black"/>
               </g>
            </g>
            <g>
               <path d="M 153.51932 68.89499 C 154.98083 70.38698 156.1942 71.76026 156.19778 71.965265 C 156.20207 72.21127 157.66359 73.70326 159.41497 75.35424 L 162.6243 78.29221 L 160.73825 78.32513 C 159.71322 78.34302 157.24815 78.09896 155.31538 77.804585 C 153.34089 77.46993 150.30323 77.31788 148.5819 77.38894 C 145.50826 77.52462 145.34354 77.48648 142.35998 75.73397 C 139.21098 73.90231 138.96068 73.6606 138.30917 71.58028 C 138.00713 70.72427 137.38138 70.11999 135.97518 69.447306 C 134.85885 68.933616 133.9878 68.37463 133.98494 68.21063 C 133.9735 67.55461 140.5992 66.49565 145.6006 66.367334 L 150.8883 66.19301 L 153.51932 68.89499 Z"/>
            </g>
            <g>
               <path d="M 161.6456 66.866524 C 165.05298 67.05313 169.11995 67.43329 170.68443 67.7751 C 173.3178 68.26231 175.70373 68.671814 186.39477 70.24878 C 189.52015 70.7274 195.14588 71.12137 200.06886 71.19949 C 200.6436 71.23047 203.30437 70.93795 206.00542 70.60371 C 208.7072 70.31047 211.28525 69.97837 211.73555 69.9295 C 213.57773 69.73329 212.3296 71.06751 208.717 73.22225 C 203.92755 76.09477 201.44295 77.08145 198.0866 77.46815 C 196.65442 77.6572 194.1598 78.06986 192.52549 78.4265 C 188.2757 79.32095 185.5272 79.2869 183.58225 78.29551 C 181.5546 77.26455 178.8063 74.892725 176.21128 71.90302 C 174.28587 69.68089 172.3755 68.31977 171.85107 68.82109 C 171.73093 68.98724 172.56956 70.03895 173.6959 71.12666 C 174.86397 72.25465 176.24349 73.74807 176.74838 74.4775 C 177.29428 75.20621 178.6285 76.45434 179.75055 77.29604 C 180.8726 78.13774 181.74723 78.90173 181.66594 78.94416 C 181.62637 79.02688 178.38586 79.001415 174.5289 78.904685 L 167.55443 78.78034 L 164.65717 77.2724 C 163.0841 76.43858 161.2593 75.28104 160.59327 74.71847 C 159.0929 73.3502 153.23538 66.72623 153.22894 66.35722 C 153.22608 66.19322 153.71809 66.18463 154.37625 66.29618 C 154.99342 66.40845 158.27922 66.6792 161.6456 66.866524 Z"/>
            </g>
            <g>
               <path d="M 132.65266 69.42327 C 134.63002 69.921934 137.62646 72.41247 138.64627 74.44534 C 139.02816 75.17692 140.10993 76.060335 141.43413 76.73445 C 142.63461 77.36971 143.50708 78.0107 143.38766 78.21785 C 143.26823 78.425 141.75549 78.69749 139.99531 78.89227 C 138.27613 79.08633 134.84063 79.63846 132.34673 80.09213 C 126.82805 81.13177 127.15606 81.12604 126.03257 80.20234 C 125.5334 79.80092 124.83138 79.52608 124.4228 79.61524 C 124.05593 79.74468 123.10575 79.35113 122.31672 78.79071 C 121.52768 78.2303 120.45378 77.79789 119.96177 77.80648 C 119.01874 77.82294 115.29358 75.8783 115.24328 75.34601 C 115.24041 75.182 116.08927 74.46996 117.18342 73.71261 C 119.16813 72.28351 129.27412 68.538935 130.26387 68.84977 C 130.55231 68.92676 131.62334 69.19516 132.65266 69.42327 Z"/>
            </g>
            <g>
               <path d="M 116.76369 77.862305 C 117.63616 78.50329 118.91721 79.05512 119.53222 79.044385 C 120.18824 79.03293 121.09742 79.4272 121.68145 79.99119 C 122.26549 80.55519 123.2171 81.03074 123.83355 81.10201 C 125.84617 81.27194 125.07932 81.98256 121.33013 83.36043 C 116.35806 85.16979 111.80388 87.423 110.43346 88.80037 C 109.1429 90.0533 108.93861 90.09788 106.54624 89.31937 C 105.22633 88.89126 104.36388 88.82428 103.05757 89.17519 C 102.11813 89.39666 100.52267 89.62958 99.57964 89.64604 L 97.7756 89.67753 L 98.84827 87.69015 C 100.47922 84.79074 104.06605 81.15996 107.71606 78.79949 C 110.47407 77.02878 111.24808 76.728175 113.05212 76.696685 C 114.69216 76.66806 115.43448 76.90118 116.76369 77.862305 Z"/>
            </g>
            <g>
               <path d="M 83.89948 79.5023 C 85.04801 81.86104 87.80489 84.72488 90.79204 86.6824 C 94.98324 89.48019 95.6917 90.12404 94.96084 90.54693 C 94.67741 90.75694 93.49483 91.14671 92.39209 91.41204 C 91.28936 91.67736 89.53777 92.36416 88.48176 92.95678 C 86.45103 94.09959 84.89442 94.20879 84.38452 93.19235 C 84.21479 92.8672 83.57687 91.56591 82.98139 90.3459 C 81.57897 87.54044 81.06355 83.85822 81.70904 80.89398 C 82.46894 77.43558 82.75309 77.26657 83.89948 79.5023 Z"/>
            </g>
            <g>
               <path d="M 182.87889 84.99299 C 184.93681 85.40822 187.69462 85.97528 189.05337 86.27967 C 190.41213 86.58406 192.63406 86.99643 193.99067 87.17782 C 195.34728 87.3592 197.2822 87.77658 198.27267 88.12841 C 199.26314 88.48024 201.0722 88.73576 202.26194 88.75601 C 203.53368 88.77482 204.686 89.00079 204.93774 89.3245 C 205.22975 89.6065 205.64406 89.84535 205.89006 89.84106 C 206.7928 89.86631 208.50605 91.68202 210.4429 94.56017 C 212.12732 97.0736 212.5862 97.51674 213.52923 97.50028 L 214.67726 97.48024 L 213.80335 96.75725 C 213.3049 96.39683 212.38284 95.26455 211.74993 94.25026 C 211.11702 93.23597 210.02595 91.81954 209.31677 91.13469 C 208.60687 90.40884 208.1437 89.71969 208.22354 89.59526 C 208.74725 89.05294 215.8347 88.60112 219.4888 88.82443 C 225.27854 89.21553 234.2189 89.18252 237.08253 88.76341 C 239.33258 88.43704 239.4563 88.4759 238.7283 89.0628 C 238.32402 89.39796 236.21486 90.74721 234.06328 92.01517 C 226.99996 96.1988 215.82007 99.51097 212.43723 98.38063 C 211.69492 98.1475 209.9283 97.97327 208.53426 97.9976 C 207.14023 98.02194 203.9767 97.70803 201.5095 97.34096 C 199.04156 96.93289 195.9176 96.53627 194.5207 96.3966 C 193.16481 96.25622 191.80748 96.03383 191.55862 95.87412 C 191.26875 95.71512 190.83798 94.53325 190.6115 93.3068 C 190.1564 90.73089 188.67629 88.17288 187.01764 87.13548 C 185.52442 86.17722 184.71084 86.56054 186.0012 87.64538 C 186.58309 88.08637 187.457 88.80936 187.91516 89.2115 C 188.6222 89.77335 188.92423 90.62936 189.16645 92.75783 L 189.54384 95.58118 L 186.71048 95.38455 C 185.1503 95.28875 182.6845 95.00368 181.20417 94.78344 C 179.72384 94.56319 177.05234 94.2407 175.24471 94.06719 C 173.4378 93.93467 170.31457 93.57906 168.26023 93.36883 C 165.79444 93.08377 162.22592 93.06403 157.59567 93.3089 C 140.8787 94.25691 141.288 94.20876 133.17388 96.93424 C 130.7267 97.7152 128.80681 98.15885 128.18894 98.00558 C 127.61277 97.89259 126.32099 96.72575 125.23063 95.35032 C 124.18199 94.01518 122.92905 92.72462 122.47446 92.52749 C 122.06016 92.28864 121.68471 91.92607 121.68113 91.72106 C 121.67397 91.31105 128.03363 89.10836 129.54996 89.04088 C 130.04125 88.99129 130.69369 88.77483 130.93612 88.56553 C 132.63598 87.26444 136.68199 88.79334 138.90442 91.58448 C 140.28823 93.32391 141.36284 93.79732 141.67296 92.76656 C 141.9068 92.06525 139.81739 89.84598 137.86887 88.64959 L 136.16993 87.6539 L 137.39352 87.26342 C 140.168 86.43574 149.33075 85.0454 150.60608 85.26922 C 152.49785 85.5643 154.74912 87.65771 155.8998 90.13945 C 156.9649 92.41762 157.7158 93.14275 158.1928 92.27314 C 158.67192 91.52654 157.6147 89.69938 155.31813 87.36068 C 154.2745 86.31255 153.55887 85.25869 153.72 85.09182 C 154.12358 84.71566 165.47585 84.23041 167.28562 84.52693 C 168.0675 84.67733 169.26655 85.23059 169.97359 85.79244 C 171.01364 86.63557 171.22724 87.124 171.253 88.60004 C 171.2852 90.44509 172.51002 92.47438 173.61705 92.45506 C 174.43707 92.44075 174.3019 91.74588 173.34241 90.81931 C 172.75838 90.25532 172.49878 89.48059 172.4773 88.25056 C 172.45083 86.73352 172.23866 86.32709 171.20004 85.56597 C 170.49443 85.08612 170.03269 84.47898 170.19311 84.27111 C 170.55067 83.60865 178.4336 84.08626 182.87889 84.99299 Z"/>
            </g>
            <g>
               <path d="M 106.77844 90.87383 L 106.77844 90.87383 C 105.65567 89.99113 103.64018 89.65719 103.07618 90.24122 C 102.91504 90.40809 101.3613 90.68129 99.56011 90.87678 C 97.51293 91.07657 95.71675 91.55907 94.66003 92.11069 C 93.7256 92.61916 92.42072 93.05208 91.7647 93.06353 C 91.02668 93.07641 90.05053 93.5446 89.24268 94.25593 C 88.51611 94.92483 87.05439 95.77061 85.99552 96.19923 C 84.65107 96.71486 83.1145 97.97208 80.6571 100.5168 C 77.15299 104.18716 76.83214 104.60289 77.65717 104.87558 C 78.4822 105.14828 78.62503 108.63193 77.97096 111.10416 C 77.506855 112.71179 76.71117 114.12014 75.425615 115.66008 C 70.683396 121.23866 69.60213 122.73402 69.37473 123.80434 C 69.2229 124.50422 68.46105 125.50184 67.328054 126.3829 C 65.14334 128.1026 64.268515 129.67638 64.90357 130.81367 C 65.579624 131.95025 66.44351 132.09922 67.53479 131.17788 C 68.91022 130.08752 69.69067 130.15592 70.53216 131.37164 C 71.07949 132.18235 71.12621 132.50965 70.72479 133.00882 C 70.44351 133.34183 69.874504 133.63886 69.42349 133.64673 C 65.856405 133.709 62.576116 136.10402 62.62049 138.64609 C 62.64983 140.32713 63.449604 141.50256 66.36977 144.32254 C 68.12116 145.97352 68.28659 146.05266 70.08706 145.81616 C 71.56023 145.6264 72.20981 145.24593 73.2558 144.0793 C 74.62407 142.57893 75.80522 142.10716 75.8224 143.09119 C 75.82813 143.4192 75.388565 144.08308 74.823855 144.62612 C 73.53329 145.87905 74.07704 146.48476 76.07965 146.08068 C 77.1421 145.85707 77.66867 145.47876 77.98236 144.65301 C 78.9666 142.29806 81.93319 140.72878 82.5344 142.2768 C 82.87815 143.1731 82.12204 144.49873 81.17901 144.51519 C 80.769 144.52234 79.91585 144.98838 79.26914 145.53285 C 77.41029 147.1238 76.47299 147.46828 73.97193 147.51193 C 71.63487 147.55273 71.51258 147.59587 70.87875 148.87836 C 70.52263 149.62282 69.96507 150.57586 69.72551 150.94916 C 69.08524 151.86264 69.63614 152.87836 71.12578 153.63161 C 72.119104 154.14745 75.97177 153.99817 78.1758 153.38551 C 79.07353 153.12376 79.27997 153.20219 79.28999 153.7762 C 79.29643 154.1452 79.68047 154.99979 80.18393 155.64722 C 81.31887 157.22693 81.01877 158.8317 78.60001 163.59047 C 76.45824 167.77022 76.24015 169.37356 77.58081 170.9907 C 78.7546 172.4467 79.44589 172.10652 79.24897 170.22333 C 79.10664 169.11845 79.33762 168.25314 80.05703 167.17423 C 81.29371 165.184 82.46648 161.88244 82.08817 161.35587 C 81.96087 161.11201 82.1213 160.90414 82.44931 160.89842 C 82.90032 160.89055 83.11176 161.25598 83.12393 161.953 C 83.1547 163.71604 82.02794 167.30388 81.18052 168.09793 C 80.21224 169.01713 80.18841 170.00187 81.03634 171.5866 C 81.71383 172.80517 83.85948 173.54698 85.20321 172.99035 C 85.81393 172.7336 85.81178 172.6106 84.97745 171.8049 C 83.64037 170.39276 83.77074 168.46285 85.34401 166.9589 C 86.07058 166.29 86.79929 165.7441 86.9223 165.74196 C 87.0863 165.7391 87.60715 165.03278 88.08485 164.20417 C 88.80139 162.96126 88.91152 162.2211 88.74629 159.80418 C 88.63637 158.20657 88.36174 156.57082 88.19058 156.16368 C 87.93599 155.67596 88.01441 155.46952 88.50642 155.46093 C 90.43347 155.4273 89.14905 152.33269 86.62007 150.7773 C 85.66703 150.21975 84.87227 149.33133 84.69824 148.76018 C 84.39191 147.65816 84.86746 146.70655 85.21193 147.64385 C 85.42696 148.21428 89.65773 150.92935 90.31374 150.9179 C 91.05176 150.90502 90.69012 148.9837 89.68033 147.52484 L 88.62954 146.0667 L 89.7561 144.81662 C 91.08337 143.31697 93.20468 142.66474 96.85377 142.60104 C 99.51884 142.55452 99.64113 142.51138 99.50238 141.6115 C 99.36578 140.83463 99.07591 140.67563 96.77699 140.5517 C 93.53362 140.36224 93.27473 139.62852 96.34694 139.41084 C 99.09186 139.23988 101.48423 140.0184 101.71 141.20385 C 101.8466 141.98072 101.9286 141.97929 103.39461 141.3795 C 104.20891 141.03719 104.89805 140.574 104.89448 140.369 C 104.89161 140.205 104.64418 140.12729 104.35932 140.2553 C 104.03345 140.38403 103.53786 140.18762 103.24442 139.82362 C 102.95168 139.50062 102.20865 139.2265 101.63464 139.23651 C 101.01963 139.24725 100.1536 138.97527 99.69686 138.65513 C 98.98982 138.09329 99.11211 138.05014 101.16645 138.26036 C 102.39863 138.3619 104.04368 138.62027 104.78599 138.8534 C 107.09422 139.51034 108.14092 138.3847 106.5974 136.89414 C 106.01265 136.28915 105.39692 136.25888 102.69515 136.55212 C 100.77096 136.74976 99.49922 136.73095 99.49492 136.48494 C 99.48705 136.03393 100.83293 135.6003 102.34925 135.53282 L 103.37356 135.47393 L 102.42195 134.99838 C 101.17975 134.32283 101.6646 133.90423 103.79666 133.86702 C 104.78068 133.84984 105.67913 133.62909 105.79855 133.42194 C 105.91726 133.17379 105.66839 133.01408 105.21738 133.02195 C 103.70034 133.04843 104.30248 132.29968 106.1008 131.94018 C 108.83999 131.44122 111.34392 131.56156 112.0531 132.24641 C 112.97015 133.09169 112.40401 133.55272 111.12296 133.0009 C 109.84191 132.44907 108.03715 132.43955 107.22643 132.98688 C 106.78043 133.28176 107.06958 133.39975 108.34062 133.37757 C 110.43167 133.34107 112.5945 135.0669 112.62527 136.82994 C 112.63887 137.60896 112.80716 137.8521 113.25531 137.68023 C 114.39547 137.20918 114.41479 138.3162 113.28322 139.27927 C 112.03008 140.32648 112.09112 141.47379 113.51522 143.1715 C 114.18555 143.98007 114.39198 144.0585 114.95741 143.55646 C 115.9674 142.67755 116.18243 143.24798 115.68735 145.43034 C 115.34553 146.99482 115.3577 147.69184 115.78417 148.6277 C 116.67955 150.58073 118.31222 152.47986 119.13224 152.46555 C 119.95226 152.45123 120.12772 153.10439 119.39399 153.36328 C 118.98685 153.53444 119.16158 154.14659 119.92823 155.77375 C 121.50395 159.10935 121.58739 159.18992 122.87723 157.89599 C 123.88508 156.89407 124.86768 156.7949 124.88342 157.69692 C 124.887 157.90192 124.36687 158.64924 123.68202 159.35843 C 123.03817 160.0669 122.47703 160.81493 122.48133 161.06094 C 122.51067 162.74198 126.02776 166.86397 127.67352 167.16335 C 128.16697 167.23676 128.67258 168.0072 129.19107 169.51564 C 130.27263 172.73683 130.9084 173.91513 132.0276 174.59282 C 132.73248 175.03167 132.98851 175.60139 133.0064 176.62641 C 133.03646 178.34845 134.63816 180.82232 136.6744 182.3453 C 138.08704 183.38698 138.12948 183.46827 137.91925 185.52262 C 137.78244 187.08352 137.92477 188.1884 138.61013 189.858 C 140.111 193.60503 140.0333 193.85247 137.22355 195.00888 C 135.8791 195.5245 133.39379 196.4702 131.72205 197.03254 C 130.05103 197.6359 126.54641 198.92748 123.9791 199.8746 C 120.59748 201.16402 118.39273 201.73568 116.01753 201.9412 C 114.21563 202.09569 111.51458 202.42993 110.00183 202.70241 C 107.42593 203.15751 107.10078 203.32724 104.84409 205.62238 C 103.51395 206.95803 101.6277 209.32872 100.67087 210.90394 C 99.63276 212.52158 96.13652 216.64295 92.23027 220.77147 C 88.52402 224.6094 85.50906 228.10716 85.51622 228.51717 C 85.54699 230.28022 84.63116 231.85472 82.88601 232.91052 C 80.005 234.68337 79.86175 235.87527 82.35759 237.88238 C 83.4818 238.84708 82.9948 239.14267 81.54688 238.4297 C 80.88442 238.07214 80.76285 238.1563 80.775015 238.8533 C 80.7836 239.34532 80.1555 240.9558 79.40367 242.52745 C 77.4619 246.4166 77.50791 246.7029 80.33698 246.65352 C 82.55103 246.61488 82.59132 246.57316 83.22086 245.04467 C 83.57555 244.2182 83.83536 242.65516 83.85776 241.58842 C 83.88015 240.52168 83.98598 239.5355 84.14783 239.40964 C 84.30897 239.24277 85.04842 239.3119 85.79074 239.54502 C 89.54473 240.79192 96.73392 236.77015 96.67595 233.44907 C 96.66235 232.67005 96.94578 232.46004 98.33624 232.2307 C 99.3174 232.04952 100.22085 232.11577 100.55316 232.35606 C 101.8428 233.3999 104.42678 231.05804 104.38957 228.92598 C 104.36094 227.28594 105.03076 225.71574 106.16305 224.79368 C 106.76947 224.29093 107.1666 223.54575 107.15587 222.93074 C 107.14513 222.31572 107.54226 221.57055 108.14869 221.0678 C 108.71483 220.60677 109.15582 220.02488 109.15153 219.77888 C 109.14294 219.28686 110.07737 218.7784 115.45015 216.42887 C 117.03773 215.74494 119.2339 214.68127 120.3309 214.08793 C 123.13421 212.5625 126.07412 211.81397 128.12918 212.0652 C 129.23835 212.16887 130.63024 212.02153 131.85311 211.59005 C 132.91342 211.24344 134.5873 210.80408 135.52746 210.62362 C 136.50862 210.44244 137.36463 210.1404 137.52506 209.93253 C 137.84305 209.3528 138.91122 209.4572 139.5794 210.14276 C 140.37202 210.90818 142.05306 210.87884 144.09023 210.10503 C 144.98724 209.80228 146.78485 209.40178 148.0933 209.17388 C 151.40723 208.7059 151.65109 208.5786 151.34404 207.43558 C 150.99528 206.25228 151.28157 206.20627 152.77693 207.28753 C 154.314 208.40908 157.0258 208.68985 157.7085 207.85766 C 158.1092 207.3175 158.05819 206.7442 157.48796 204.62145 C 156.39495 200.74424 156.47164 195.73925 157.69973 193.257 C 158.21342 192.14068 159.0911 190.7309 159.61267 190.06558 C 160.13423 189.40026 160.89321 188.23863 161.24934 187.49417 C 161.64575 186.708 162.04717 186.20883 162.17232 186.32968 C 162.29747 186.45054 161.39381 188.72206 160.2103 191.4086 C 158.86708 194.344 157.89072 197.14996 157.7489 198.42385 C 157.50197 200.72492 158.22025 204.28056 159.23219 205.86242 C 159.65365 206.51128 159.79097 207.32915 159.64557 208.39804 C 159.38934 210.1661 159.43034 210.16538 163.0463 210.5534 C 164.77264 210.76936 165.1855 210.9262 165.19696 211.58222 C 165.2127 212.48424 165.04942 212.5281 163.97194 211.8907 C 162.56288 211.054 154.77963 213.93777 150.93177 216.71183 C 148.82548 218.22508 139.27183 223.06738 137.51523 223.46716 C 136.49378 223.69006 134.20488 224.14015 132.40513 224.41765 C 127.98775 225.10995 127.29431 225.32713 127.30433 225.90114 C 127.30934 226.18815 126.82878 226.85275 126.26479 227.43678 C 125.70008 227.97982 124.0584 230.26422 122.66272 232.54432 C 120.78649 235.48903 118.37581 238.36104 114.14656 242.7823 C 108.14476 249.03908 107.09234 249.8367 104.11358 250.70897 C 101.78725 251.36478 100.45497 252.57743 99.71317 254.72308 C 98.81166 257.1176 99.20428 258.4642 100.80976 258.8053 C 101.46864 258.95784 102.04695 259.19383 102.05053 259.39883 C 102.05768 259.80884 99.64721 260.34308 99.10847 260.02438 C 98.61074 259.70496 95.70805 262.58556 94.9145 264.1169 C 93.9634 266.02013 94.17198 266.22156 96.75147 265.97146 C 98.71737 265.8141 99.49067 265.4725 101.63724 263.91753 C 103.45938 262.5733 104.14352 261.8231 104.13135 261.1261 C 104.11704 260.30607 104.3199 260.1795 105.83694 260.153 C 107.14897 260.1301 107.84169 259.87194 108.68768 258.9959 C 110.05882 257.65952 110.51484 257.93866 109.68244 259.59373 C 108.92919 261.08336 107.0279 262.59303 105.83887 262.6138 C 105.34686 262.62238 104.98072 262.79282 104.98358 262.95683 C 104.98716 263.16183 103.8153 264.1666 102.35644 265.1764 C 99.11501 267.4477 98.76747 268.68418 101.50953 268.34922 C 102.4504 268.20976 104.04157 267.73084 105.05801 267.22093 C 106.88874 266.3687 110.44029 263.06665 111.99925 260.74268 L 112.79924 259.58034 L 111.73822 259.88595 C 111.08507 260.0614 110.67362 259.98656 110.66933 259.74055 C 110.66504 259.49455 111.27433 259.1558 112.0512 259.0192 C 112.94964 258.79845 113.51721 258.41943 113.63163 257.92527 C 113.89931 256.81323 114.7222 256.96292 114.74224 258.11095 C 114.7723 259.833 115.6326 259.77696 117.28287 257.98457 C 118.40943 256.7345 118.80512 255.90733 118.78795 254.9233 C 118.80032 253.28255 119.31974 252.49422 121.02603 251.56214 C 122.81362 250.58763 124.41787 248.50895 124.39354 247.11492 C 124.36635 245.55688 125.37706 244.71897 126.45525 245.39738 C 127.65645 246.07364 128.6326 245.60545 129.82971 243.69794 C 130.42898 242.78518 131.80083 241.4898 132.8554 240.8152 C 134.7207 239.59324 135.47968 238.4316 135.77333 236.45784 C 135.88345 235.71767 136.21003 235.62995 138.7521 235.58557 C 141.13015 235.54406 142.0696 235.3226 144.26433 234.17692 C 149.3868 231.5857 150.97582 230.98376 153.63802 230.77324 C 157.93812 230.41109 161.61605 229.64966 165.07966 228.3588 C 167.89156 227.3254 168.74971 227.14636 171.33636 227.30627 C 175.52347 227.52028 190.05664 225.99519 190.90407 225.20114 C 191.26735 224.8667 191.7832 223.87336 192.05445 222.96633 C 192.55884 221.31698 193.84367 219.73604 194.30256 220.17918 C 194.4277 220.30004 194.35358 220.75248 194.15573 221.16607 C 193.4809 222.44927 194.10573 225.35032 195.22492 226.028 C 196.30311 226.70642 202.0087 226.97595 203.47543 226.41718 C 204.69759 225.9447 204.64513 225.2894 203.36408 224.73757 C 202.78578 224.50158 202.32618 224.01744 202.32045 223.68943 C 202.304 222.7464 204.6115 223.36235 207.59578 225.15586 C 210.12475 226.71125 210.33047 226.74867 213.89756 226.6864 C 217.46465 226.62414 217.99408 226.40983 217.07632 225.52356 C 216.82602 225.28184 216.73686 224.87326 216.85557 224.6251 C 217.05556 224.33453 217.79644 224.48565 219.07964 225.16048 C 221.47988 226.39 222.87535 226.44767 222.8553 225.29964 C 222.836 224.19261 223.37043 224.2653 224.9931 225.59044 C 227.15806 227.43927 229.97118 228.82564 232.1924 229.197 C 234.16688 229.53166 237.81025 229.13995 238.41524 228.5552 C 238.57639 228.38834 237.86434 227.53948 236.82428 226.69635 C 234.8269 225.04966 234.76657 223.94335 236.71867 225.34475 C 240.08197 227.70584 244.65456 228.85643 248.66407 228.29428 C 251.7737 227.87088 252.29884 227.41057 251.12935 226.20058 C 249.79298 224.82944 250.444 224.53099 252.59393 225.5188 C 253.8757 226.11162 255.23374 226.37501 256.91478 226.34567 C 259.49785 226.30058 259.82228 226.08985 258.65922 225.24887 C 257.37244 224.36904 258.47518 224.1037 260.4964 224.76566 C 261.65158 225.15563 263.74764 225.40613 265.7164 225.41278 C 270.26823 225.37434 271.52924 224.77814 269.37715 223.66733 C 268.3421 223.1112 268.00265 222.46092 268.74067 222.44803 C 268.98667 222.44374 269.811 222.67543 270.59573 222.98984 C 272.12422 223.61938 276.3869 223.46295 277.03146 222.79548 C 277.27317 222.54518 278.46077 222.44242 279.77495 222.54253 C 281.9926 222.70888 282.23787 222.6636 283.65 221.3265 C 285.0233 220.11315 285.43044 219.94198 287.3179 219.99107 C 290.14913 220.06469 293.2011 221.03675 293.46356 221.97548 C 293.81376 223.2408 298.38205 224.14537 303.01087 223.8185 C 305.96008 223.60296 306.90453 223.6685 306.91097 224.0375 C 306.93245 225.26754 304.6011 225.63634 299.34583 225.31794 C 294.78827 225.02837 294.1294 224.87582 292.59375 223.83627 C 291.68027 223.196 290.80422 222.35 290.63306 221.94286 C 290.46047 221.4537 289.96488 221.2573 288.81685 221.27733 C 287.95583 221.29236 286.88766 221.18797 286.4755 221.07212 C 286.06334 220.95627 286.39636 221.23756 287.18397 221.71597 C 287.97158 222.19438 290.26313 224.24607 292.22525 226.2215 L 295.81503 229.80903 L 298.19094 229.64452 C 300.52585 229.48072 300.60857 229.5203 301.57593 230.89787 C 303.1762 233.28973 304.2558 234.05014 306.6439 234.58265 C 308.82625 235.07773 308.9514 235.19858 309.59647 236.9099 C 310.32927 238.94778 311.36575 239.5859 315.4046 240.7048 C 316.8468 241.08976 318.29615 241.88473 319.46207 242.8897 C 320.42012 243.73427 321.58318 244.57526 322.03634 244.6904 C 322.4902 244.84652 322.86566 245.2091 322.8714 245.5371 C 322.8771 245.8651 323.264 246.8837 323.7725 247.81812 C 324.95987 250.05314 325.65075 254.3885 325.06723 256.2033 C 324.79596 257.11033 324.8074 257.76634 325.05915 258.09006 C 325.81434 259.0612 325.97527 261.2321 325.39604 263.2929 C 324.7024 265.84784 321.75134 270.6569 319.97377 272.20544 C 318.84292 273.2095 318.43434 273.29866 316.74972 273.123 C 314.73566 272.87106 313.51637 273.50755 313.53855 274.77858 C 313.55287 275.5986 311.62347 277.847 310.1603 278.6108 C 308.69787 279.41557 303.29892 284.9646 303.67437 285.32718 C 303.79952 285.44803 304.4944 285.31286 305.2274 285.01297 C 305.9604 284.7131 307.471 284.3176 308.61617 284.13355 C 310.17063 283.90135 311.1065 283.47488 312.19635 282.47153 C 313.0035 281.7192 313.8545 281.13016 314.0595 281.12658 C 315.04352 281.1094 314.32554 282.2703 312.18612 284.2353 C 310.81427 285.53066 310.01215 286.57 310.22216 286.85343 C 310.6012 287.421 316.29675 287.1165 318.04834 286.42972 C 319.1885 285.95867 323.6199 281.36984 323.28544 281.00655 C 323.161 280.9267 322.58985 281.10072 321.93813 281.35818 C 321.08355 281.74222 320.26353 281.75653 318.82277 281.45357 C 314.83064 280.66197 312.9131 278.89085 315.86375 278.7573 C 317.01106 278.69628 317.30093 278.85527 317.31166 279.4703 C 317.3224 280.0853 317.61227 280.2443 318.8423 280.22283 C 321.38436 280.17845 324.97027 278.84444 325.44367 277.76983 C 325.9955 276.48878 327.78738 275.76027 329.06843 276.3121 C 330.63935 277.02292 331.1278 276.80933 332.24575 275.06725 C 333.2443 273.53232 333.27886 273.1626 333.0266 270.4601 C 332.7341 267.79933 332.80894 267.3879 333.57365 266.55427 C 334.33835 265.72065 334.37434 265.43293 333.94143 264.12805 C 333.37693 262.3333 333.5719 261.75572 334.8732 261.1178 C 336.2975 260.47774 336.4465 259.61386 335.44028 258.36 C 334.22477 256.86372 333.85883 254.6964 334.6624 253.73905 C 335.50695 252.781 335.5048 252.658 334.20443 250.99914 C 332.9472 249.46257 333.043 247.9024 334.38316 247.14075 C 335.35788 246.59056 335.37884 245.44182 334.47416 242.95579 C 333.8701 241.24376 333.8651 240.95675 334.41906 239.7987 C 334.7766 239.13625 335.21546 238.43136 335.4593 238.30406 C 336.06718 237.88332 335.922 236.61443 335.17324 236.0123 C 334.7985 235.69073 334.04474 234.8016 333.4974 233.99088 C 332.57034 232.57159 332.4459 232.49173 329.53054 232.29654 C 327.88764 232.16116 324.38752 231.36097 321.78943 230.54504 C 319.19133 229.7291 315.85236 228.76205 314.3699 228.4188 C 310.2519 227.46534 307.4676 225.38124 309.00847 224.37002 C 309.25233 224.24273 309.95507 224.55857 310.5391 225.12256 C 311.5813 226.0887 314.2211 226.9449 324.6459 229.71592 C 326.0888 230.14188 327.85758 230.43912 328.5546 230.42695 C 330.93265 230.38544 338.9212 232.21465 341.1963 233.32332 C 342.9341 234.19528 345.22564 236.24697 345.9887 237.66912 C 346.7935 239.13156 347.8081 243.2152 347.88344 245.18254 C 347.89703 245.96156 348.16236 247.0643 348.5004 247.63258 C 349.6029 249.70502 350.34717 252.39892 350.07448 253.22395 C 349.91834 253.67783 349.6023 256.71834 349.41354 260.00272 C 348.95976 266.9009 348.31284 269.78315 346.66544 271.73954 C 345.94173 272.57244 345.5079 273.56434 345.52078 274.30235 C 345.53366 275.04037 345.17897 275.86683 344.65454 276.36815 C 343.44455 277.53765 338.25725 281.11434 337.76524 281.12293 C 337.56023 281.1265 336.9538 281.62926 336.3898 282.2133 C 335.38196 283.2152 335.3834 283.2972 336.094 284.06406 C 337.47352 285.55748 340.28756 284.64708 342.21124 282.07066 C 343.2522 280.61702 344.80167 280.0978 344.82028 281.16384 C 344.826 281.49185 343.54045 283.0318 341.9679 284.57673 C 340.35504 286.1634 338.7508 288.24208 338.31695 289.23397 C 337.52914 291.09333 337.67862 292.60822 338.70365 292.59033 C 339.03165 292.5846 339.2841 292.94932 339.2927 293.44133 C 339.3063 294.22035 339.47172 294.2995 340.81975 293.98887 C 344.0891 293.3166 346.60897 292.0012 348.54124 289.9168 C 350.59436 287.70724 351.43248 286.38018 351.4563 285.39544 C 351.4477 284.90343 350.99527 284.8293 349.11065 284.94422 C 346.44845 285.15474 346.5233 284.7433 349.37548 283.66818 C 351.20836 282.93895 354.2405 280.42522 354.2269 279.6462 C 354.2233 279.4412 355.28505 279.17658 356.59565 279.07168 C 358.84856 278.9093 358.97084 278.86616 359.68167 277.29524 C 360.39392 275.80632 360.3875 275.4373 359.85253 272.98584 C 359.18384 269.9215 359.11206 268.15917 359.52013 265.69124 C 359.70295 264.41663 359.6505 263.76133 359.2319 263.27647 C 358.05954 261.90248 357.7489 260.55445 358.0397 258.41668 C 358.33837 256.7299 358.2442 256.03432 357.56314 254.61074 C 356.75406 252.9023 356.7519 252.7793 357.44413 250.14234 C 358.09463 247.4651 358.0932 247.3831 357.2014 245.6351 C 356.3096 243.88708 356.30818 243.80508 356.9594 241.16884 C 357.49476 238.94477 357.52288 238.20604 357.08567 236.65515 C 356.60675 235.064 356.63773 234.48926 357.37452 232.0566 C 358.8107 227.397 358.81355 227.561 357.52892 226.80418 C 354.2555 224.89266 353.29815 224.0891 352.8278 222.98995 C 352.52936 222.33894 351.772 221.2448 351.10384 220.55923 C 350.14292 219.55067 349.5646 219.31468 347.6354 219.22531 C 346.32196 219.16621 344.67404 218.74383 343.7217 218.22728 L 342.0652 217.31288 L 340.4078 218.69526 C 338.22522 220.53795 337.39375 219.89624 339.2023 217.773 C 340.931 215.77416 341.6635 213.0955 341.05584 211.17847 C 339.9297 207.753 334.8474 203.2482 329.6412 201.0423 C 328.44288 200.53005 327.36683 199.97465 327.23953 199.73079 C 327.07195 199.52864 327.51294 198.94676 328.20137 198.44258 C 330.1041 197.0149 330.7322 195.40442 330.47494 192.41492 C 330.31616 190.36702 330.05655 189.5923 329.26322 188.78587 C 328.5116 188.01973 328.38216 187.65287 328.74473 187.27742 C 329.1073 186.90197 329.43674 186.97825 330.1035 187.5818 C 331.7693 189.02922 332.2878 190.53767 332.13502 193.53432 C 332.0385 195.0535 332.1427 196.3231 332.3067 196.32024 C 333.2087 196.3045 335.55242 194.29494 336.1057 193.0959 C 337.0532 190.98767 336.8305 187.62844 335.57114 185.96887 C 333.72487 183.5813 331.40234 182.10434 328.35538 181.41928 C 326.25574 180.96377 325.22213 180.48965 324.42736 179.60123 C 323.8419 178.95523 323.3377 178.2668 323.33342 178.0208 C 323.32126 177.32378 324.39158 177.55118 325.18563 178.3986 C 326.0214 179.2863 328.95036 180.26052 329.3942 179.84264 C 329.75606 179.42619 328.7198 176.45029 328.01276 175.88844 C 327.67974 175.60716 326.68784 175.17332 325.8628 174.90063 C 324.5839 174.4718 324.2509 174.19052 324.151 173.16693 C 324.0518 172.18434 323.5922 171.7002 322.22487 170.9038 C 320.07063 169.66998 319.3183 168.86284 319.632 168.0371 C 319.827 167.4595 320.15642 167.53578 321.81292 168.45017 C 322.9307 169.04587 324.4563 169.5114 325.23533 169.4978 C 326.95737 169.46774 329.8441 168.0229 331.1714 166.52324 C 332.62022 164.93944 332.4045 164.328 330.43643 164.36235 C 328.4684 164.3967 328.62094 163.73783 330.70483 163.29132 C 332.58444 162.88939 333.5103 161.8889 335.20963 158.20904 C 336.9874 154.32274 339.0484 152.5642 342.32132 152.09693 C 343.5492 151.95246 345.0605 151.59797 345.67124 151.34123 C 346.8121 150.91118 346.7704 150.8709 343.66812 149.36653 C 341.14416 148.09815 339.8257 147.75205 336.90817 147.43385 C 330.21213 146.81249 326.87724 148.42921 324.58506 153.39084 C 321.6605 159.71696 319.3642 162.0948 316.24814 162.1492 C 315.2641 162.16638 314.07223 162.02313 313.5349 161.78642 C 312.99833 161.59072 311.80286 161.24247 310.85554 161.01292 C 309.29106 160.67111 309.1242 160.50997 309.14587 159.40223 C 309.17327 158.62249 308.8734 157.88948 308.37493 157.52906 C 307.3356 156.72693 305.10436 155.78155 304.28434 155.79587 C 303.91533 155.8023 301.89197 155.01736 299.78302 154.02883 C 297.63308 153.04102 295.5277 152.2575 295.0767 152.26537 C 294.6257 152.27324 293.0159 151.68614 291.5673 150.93217 C 286.7668 148.47313 282.74082 148.09225 278.6262 149.68157 C 277.11918 150.28207 273.0968 150.1062 272.2236 149.4242 C 270.68437 148.17966 267.88772 147.73631 261.89942 147.7178 C 258.5359 147.69448 254.76024 147.55532 253.5259 147.33078 C 251.71614 147.03426 250.65155 147.13487 247.99793 147.8374 C 244.56816 148.71754 243.2964 148.69873 238.31525 147.6373 C 236.1336 147.18321 234.08284 147.178 227.23996 147.54352 C 222.61043 147.8294 218.55276 147.98225 218.22403 147.94698 C 217.64787 147.834 212.31846 147.96803 209.94326 148.17354 C 208.30465 148.28417 208.4391 148.93804 210.29918 149.76686 C 213.15044 150.9885 213.89633 151.42664 214.10992 151.91507 C 214.37096 152.7718 212.60362 152.55657 211.1917 151.55587 C 210.44437 151.03574 209.20217 150.3602 208.41814 150.08679 C 207.63411 149.81338 206.02362 149.18527 204.908 148.71258 C 203.75068 148.19961 201.7309 147.61966 200.37356 147.39727 C 192.47417 145.97664 189.05248 144.97002 187.26367 143.52476 C 186.88894 143.20319 186.51707 143.04563 186.4365 143.12906 C 186.39693 143.21178 186.1588 143.66708 185.92066 144.12239 C 185.68252 144.5777 185.15667 144.997 184.7891 145.08545 C 184.21722 145.21847 184.13021 144.9329 184.1476 143.57915 C 184.21385 142.6757 184.15854 141.85639 184.0341 141.77653 C 183.70109 141.49525 178.19785 138.72037 177.99285 138.72394 C 177.86984 138.72609 177.91872 139.17639 178.05174 139.74825 C 178.53353 141.50343 177.33448 140.95017 175.86008 138.72016 C 174.30225 136.40958 172.51702 135.16932 169.09175 133.9577 C 167.81284 133.52887 166.53036 132.89504 166.27863 132.57132 C 165.9859 132.24832 165.44787 131.97062 165.07887 131.97706 C 164.54585 131.98637 164.4703 132.3568 164.57806 133.83141 C 164.77069 135.46859 164.69227 135.67503 163.91325 135.68862 C 163.17523 135.7015 163.04793 135.45765 163.02431 134.10461 C 162.98925 132.09556 161.77895 128.54851 160.86262 127.74424 C 159.57155 126.6184 155.82113 125.5765 153.19707 125.6223 C 150.245 125.67383 149.78754 125.31269 148.49882 121.97208 C 147.77032 120.1802 147.30857 119.57306 146.15124 119.06008 C 142.92668 117.59887 139.2006 117.951 139.68167 119.66517 C 140.16345 121.42034 139.12125 120.45421 137.93028 118.01419 C 136.40057 114.96488 135.36195 114.20375 132.11213 113.64527 C 130.75409 113.38188 129.31118 112.95592 128.93644 112.63435 C 128.39484 112.15164 127.5741 112.12496 125.15863 112.37219 C 123.15315 112.61226 122.04541 112.59058 122.0404 112.30357 C 122.02752 111.56556 123.04396 111.05565 125.90114 110.26754 C 127.49374 109.87062 130.54735 108.58691 132.74208 107.44124 C 136.43954 105.44906 136.80282 105.11461 138.88406 102.16632 C 140.08475 100.46381 140.95958 98.89003 140.833 98.68717 C 140.5374 98.20017 138.28377 98.32153 137.26805 98.87244 C 136.78033 99.12703 135.64877 100.0901 134.76177 100.96686 C 133.06836 102.63696 132.08934 102.94114 129.6617 102.49136 C 128.38565 102.22653 127.61164 102.52714 123.95519 104.5186 C 118.87658 107.27312 117.5307 107.70675 117.1438 106.68817 C 116.97336 106.32202 117.0892 105.90986 117.33378 105.82357 C 117.61935 105.73656 117.8172 105.32297 117.81005 104.91296 C 117.80289 104.50295 118.28345 103.83834 118.93231 103.41688 C 120.67532 102.23808 125.22735 99.86187 125.76036 99.85256 C 126.86739 99.83324 126.64879 99.0578 125.06212 97.44495 C 124.14364 96.51767 123.38773 95.50553 123.382 95.17752 C 123.377 94.89052 122.87353 94.24309 122.29165 93.8021 C 120.04753 92.1187 115.47474 93.30588 111.51246 96.5741 C 110.50175 97.41201 109.44718 98.08663 109.20117 98.09093 C 108.34015 98.10596 108.57041 97.19964 109.6574 96.03229 C 110.66382 94.94837 110.6631 94.90737 109.98418 93.60679 C 109.60229 92.87521 108.97511 92.18893 108.60395 92.07237 C 108.23208 91.9148 107.40276 91.3961 106.77844 90.87383 Z"/>
            </g>
            <g>
               <path d="M 109.323 135.61616 C 109.32873 135.94417 109.57974 136.22688 109.86675 136.22187 C 110.15447 136.25787 110.07605 136.4643 109.63076 136.80018 C 108.98405 137.34465 108.69561 137.26765 107.36855 136.42953 C 106.53851 135.86983 105.79119 135.3497 105.66604 135.22885 C 105.5826 135.14828 106.36019 135.05268 107.38522 135.03478 C 108.82025 135.00974 109.31513 135.16515 109.323 135.61616 Z"/>
            </g>
            <g>
               <path d="M 97.5611 237.16585 C 98.41762 239.2426 98.1254 241.29836 96.79884 242.83902 C 96.15642 243.6295 95.186 244.42568 94.69613 244.55728 C 94.20698 244.72987 92.25038 245.42024 90.4175 246.14946 C 87.93219 247.09514 86.86974 247.31875 86.536 246.99647 C 86.2857 246.75476 85.74911 246.55905 85.3801 246.5655 C 84.27308 246.58482 84.14077 246.05395 84.75742 243.78745 C 85.18196 242.26254 85.58195 241.68136 86.2761 241.5052 C 91.58476 240.18213 94.75851 238.73227 95.75634 237.15634 C 96.59446 235.82928 97.04547 235.8214 97.5611 237.16585 Z"/>
            </g>
            <g>
               <path d="M 337.81942 286.57678 C 337.86186 286.65807 337.4733 287.89525 336.96535 289.3396 L 336.06885 292.02112 L 334.50866 291.9253 C 333.6462 291.85834 332.6579 291.6295 332.36587 291.3475 C 331.5344 290.7058 332.03163 288.64646 333.36033 287.2288 C 334.32646 286.1866 334.65233 286.05787 336.09165 286.27883 C 336.95482 286.3868 337.7367 286.5372 337.81942 286.57678 Z"/>
            </g>
            <g>
               <g  id="outline-1">
                  <path
                        d="M 193.9588 73.6029 C 193.97024 74.25892 195.68349 76.07462 196.2985 76.06388 C 197.15952 76.048855 196.98622 75.518705 195.69371 74.31086 C 194.48465 73.18359 193.94805 72.987885 193.9588 73.6029 Z"
                        fill="black"/>
               </g>
            </g>
            <g>
               <g  id="outline-2">
                  <path
                        d="M 84.72368 89.12609 C 84.72726 89.3311 84.93369 89.40952 85.13655 89.28294 C 85.38041 89.15564 85.54084 88.94777 85.53869 88.82477 C 85.53726 88.74277 85.37182 88.66363 85.12582 88.66792 C 84.92081 88.6715 84.71938 88.88009 84.72368 89.12609 Z"
                        fill="black"/>
               </g>
            </g>
            <g>
               <g  id="outline-3">
                  <path
                        d="M 220.93365 91.71117 C 220.98396 92.24347 223.67407 93.63199 224.5761 93.61624 C 225.51912 93.59978 225.05737 92.99264 223.40087 92.07824 C 221.57893 91.08471 220.92077 90.97315 220.93365 91.71117 Z"
                        fill="black"/>
               </g>
            </g>
            <g>
               <g  id="outline-4">
                  <path
                        d="M 91.31346 111.85559 C 89.84172 112.12736 88.74901 112.9667 87.22747 115.08495 C 86.50734 116.12286 85.66063 116.95791 85.37363 116.96292 C 84.1846 116.98367 84.48592 117.79868 85.84897 118.34908 C 86.63371 118.66349 87.2976 119.10305 87.30118 119.30806 C 87.31192 119.92307 89.9553 120.9843 91.39034 120.95925 C 92.78438 120.93491 93.46565 120.02073 93.43559 118.29868 C 93.41054 116.86365 92.46895 116.96211 91.92141 118.48917 C 91.29617 120.26366 89.65542 120.25129 88.51618 118.42557 C 88.05301 117.73642 87.67111 117.00484 87.66825 116.84084 C 87.65823 116.26682 90.55735 113.18122 91.13136 113.1712 C 92.32039 113.15045 93.6906 114.11085 93.9545 115.13159 C 94.39814 117.05148 95.82367 118.83119 96.88969 118.81258 C 98.03772 118.79254 99.98072 117.32315 99.96569 116.46213 C 99.95281 115.72411 98.96879 115.74129 98.32637 116.53176 C 97.32281 117.77968 96.32949 117.26385 95.09895 114.90654 C 93.82454 112.38595 92.82549 111.5421 91.31346 111.85559 Z"
                        fill="black"/>
               </g>
            </g>
            <g>
               <g  id="outline-5">
                  <path
                        d="M 89.57311 115.53617 C 89.41126 115.66204 89.29684 116.1562 89.304 116.5662 C 89.32547 117.79624 91.53308 117.38858 91.6749 116.11469 C 91.78574 115.41552 91.61815 115.21338 90.79813 115.2277 C 90.26512 115.237 89.69325 115.37002 89.57311 115.53617 Z"
                        fill="black"/>
               </g>
            </g>
            <g>
               <g  id="outline-6">
                  <path
                        d="M 115.66846 123.20135 C 115.67419 123.52936 115.8842 123.81279 116.0892 123.80921 C 116.33521 123.80491 116.4942 123.51504 116.48848 123.18704 C 116.48276 122.85903 116.31374 122.57488 116.06774 122.57918 C 115.86273 122.58276 115.66274 122.87334 115.66846 123.20135 Z"
                        fill="black"/>
               </g>
            </g>
            <g>
               <g  id="outline-7">
                  <path
                        d="M 113.19224 127.01782 C 111.80465 127.41116 112.47068 127.97372 114.27473 127.94223 C 115.34075 127.92362 116.23848 127.66187 116.56005 127.28714 C 117.00176 126.74625 116.83632 126.66711 115.484 126.73173 C 114.5827 126.78848 113.5591 126.88837 113.19224 127.01782 Z"
                        fill="black"/>
               </g>
            </g>
            <g>
               <g  id="outline-8">
                  <path
                        d="M 109.04735 129.22287 C 108.92793 129.43002 109.50623 129.666 110.3694 129.77398 C 111.19157 129.88267 112.4669 130.10649 113.12578 130.25904 L 114.36082 130.52458 L 113.56605 129.63615 C 112.9813 129.03116 112.27999 128.79732 111.00896 128.8195 C 110.02493 128.83668 109.16678 129.01571 109.04735 129.22287 Z"
                        fill="black"/>
               </g>
            </g>
            <g>
               <g  id="outline-9">
                  <path
                        d="M 144.03524 197.55586 C 144.06387 199.1959 148.4067 203.63158 149.92373 203.6051 C 150.37475 203.59723 150.82576 203.58936 150.99048 203.6275 C 151.77093 203.6959 151.42717 202.7996 150.60214 202.5269 C 149.32467 202.18009 147.41 200.57297 145.98304 198.71125 C 144.80782 197.17325 144.02021 196.69484 144.03524 197.55586 Z"
                        fill="black"/>
               </g>
            </g>
            <g>
               <g  id="outline-10">
                  <path
                        d="M 335.76343 215.78234 C 335.6023 215.9492 335.7763 216.52036 336.1129 217.00664 C 336.70267 217.89865 336.66453 218.06337 334.9337 219.93919 C 333.92656 220.9821 333.12443 222.02144 333.128 222.22645 C 333.1416 223.00547 334.73063 222.40354 335.8982 221.15276 C 336.86503 220.15155 337.18016 219.4078 337.16155 218.34178 C 337.13507 216.82475 336.28786 215.28102 335.76343 215.78234 Z"
                        fill="black"/>
               </g>
            </g>
            <g>
               <g  id="outline-11">
                  <path
                        d="M 132.95112 232.20068 C 133.0777 232.40354 133.36828 232.60354 133.61429 232.59924 C 133.8193 232.59566 133.97972 232.3878 133.97614 232.1828 C 133.97185 231.93678 133.68198 231.7778 133.31297 231.78423 C 132.98496 231.78996 132.82382 231.95682 132.95112 232.20068 Z"
                        fill="black"/>
               </g>
            </g>
         </g>
      </g>
   </g>
</svg>