<?xml version="1.0" encoding="UTF-8" standalone="no"?>
<svg
   xmlns:dc="http://purl.org/dc/elements/1.1/"
   xmlns:cc="http://creativecommons.org/ns#"
   xmlns:rdf="http://www.w3.org/1999/02/22-rdf-syntax-ns#"
   xmlns:svg="http://www.w3.org/2000/svg"
   xmlns="http://www.w3.org/2000/svg"
   xml:space="preserve"
   enable-background="new 0 0 820 952"
   viewBox="0 0 603.09491 765.28552"
   height="765.28552"
   width="603.09491"
   y="0px"
   x="0px"
   id="Layer_1"
   version="1.1"><metadata
   id="metadata65"><rdf:RDF><cc:Work
       rdf:about=""><dc:format>image/svg+xml</dc:format><dc:type
         rdf:resource="http://purl.org/dc/dcmitype/StillImage" /><dc:title></dc:title><dc:creator><cc:Agent><dc:title>http://wappenwiki.org/index.php?title=File:Bydelsbak.svg</dc:title></cc:Agent></dc:creator></cc:Work></rdf:RDF></metadata><defs
   id="defs63" />

<path
   style="fill:#ffff00;stroke:#808080;stroke-width:3;stroke-miterlimit:10"
   stroke-miterlimit="10"
   d="m 592.11784,221.21722 c 16.457,-26.143 -12.215,-45.629 -21.447,-71.825 15.773,-35.39 -36.863,-49.625 -68.431,-79.712 -7.421,-47.26 -62.848,-32.011 -119.244,-49.102 -13.304,-41.527 -63.638,-3.225 -118.134,3.075 -28.278,-26.9389997 -61.663,25.703 -102.13,43.038 -39.441,-14.742 -52.199,44.526 -89.124005,85.547 -41.567,7.306 -30.066,55.609 -51.177,101.201 -41.33,28.462 -6.977,66.739 -11.103,119.536 -29.731,33.276 15.72,62.827 34.336,116.648 -18.269,48.953 49.915,84.912 85.148005,123.408 3.638,66.77 204.818,147.777 205.041,147.706 23.748,13.088 66.198,-16.058 110.401,-84.36 45.129,-69.731 69.25,-145.926 45.812,-161.094 -4.714,-2.797 -12.17,-2.979 -13.661,-2.839 -27.108,0.456 -117.77,0 -192.188,-53.822 -75.436,-54.56 -115.511,-166.082 -57.521,-246.262 40.184,-55.561 129.488,-72.717 190.835,-28.349 59.704,43.181 60.869,106.173 35.6,141.113 -25.269,34.94 -83.327,43.301 -113.502,21.477 -27.329,-19.767 -45.419,-57.322 -20.724,-91.468 27.566,-38.116 75.308,-17.73 69.426,-31.223 -16.807,-38.554 -94.737,-40.363 -129.637,7.893 -39.047,53.989 -20.667,121.979 18.024,164.532 1.924,27.709 29.636,23.341 63.574,43.266 10.13,28.451 47.169,11.572 75.807,12.797 23.485,17.295 44.329,-7.661 64.425,-17.627 30.301,8.92 37.597,-23.047 53.238,-39.229 27.342,-0.046 20.788,-33.433 35.47,-49.915 24.988,-6.816 15.622,-38.394 19.221,-59.355 26.176,-20.526 -2.554,-42.011 1.665,-65.055 z"
   id="path7" />
<g
   transform="translate(-111.01916,-67.63778)"
   id="g9">
	<g
   id="g11" style="fill:none;stroke:#808080;stroke-width:3;stroke-miterlimit:10">
		<path
   d="m 388.239,463.99 c 0,0 0.017,-0.416 0.043,-1.145 0.014,-0.363 0.03,-0.806 0.05,-1.312 0.005,-0.497 0.145,-1.156 0.229,-1.815 0.097,-0.673 0.193,-1.4 0.422,-2.119 0.22,-0.724 0.355,-1.509 0.696,-2.262 0.316,-0.757 0.574,-1.563 1.008,-2.307 0.199,-0.377 0.4,-0.758 0.603,-1.142 0.205,-0.379 0.466,-0.728 0.696,-1.092 0.451,-0.737 0.993,-1.407 1.524,-2.062 0.515,-0.668 1.125,-1.236 1.661,-1.825 0.599,-0.53 1.13,-1.087 1.713,-1.527 0.559,-0.467 1.104,-0.882 1.628,-1.24 0.505,-0.38 1.013,-0.667 1.438,-0.949 0.447,-0.253 0.824,-0.49 1.155,-0.655 0.646,-0.351 1.04,-0.513 1.04,-0.513 l 0.134,0.278 c 0,0 -0.358,0.192 -0.956,0.6 -0.304,0.19 -0.65,0.462 -1.06,0.751 -0.388,0.319 -0.85,0.646 -1.303,1.063 -0.472,0.397 -0.957,0.853 -1.448,1.355 -0.516,0.477 -0.972,1.065 -1.488,1.624 -0.452,0.613 -0.974,1.204 -1.393,1.881 -0.437,0.666 -0.876,1.337 -1.224,2.062 -0.179,0.359 -0.388,0.701 -0.539,1.068 -0.148,0.368 -0.297,0.735 -0.442,1.099 -0.33,0.711 -0.482,1.474 -0.699,2.179 -0.243,0.699 -0.284,1.427 -0.417,2.085 -0.144,0.667 -0.154,1.288 -0.179,1.854 -0.012,0.582 -0.094,1.055 -0.048,1.572 0.031,0.506 0.061,0.947 0.084,1.311 0.046,0.728 0.072,1.143 0.072,1.143 z"
   id="path13" />
		<path
   d="m 451.825,507.438 c 0,0 -0.059,-0.591 -0.162,-1.623 -0.052,-0.518 -0.113,-1.146 -0.186,-1.864 -0.007,-0.765 -0.014,-1.625 -0.021,-2.564 -0.038,-0.945 0.062,-1.936 0.156,-2.98 0.046,-0.522 0.094,-1.061 0.143,-1.608 0.092,-0.542 0.187,-1.096 0.281,-1.659 0.099,-0.562 0.197,-1.132 0.299,-1.71 0.141,-0.567 0.281,-1.144 0.426,-1.723 0.256,-1.166 0.64,-2.314 1.01,-3.463 0.335,-1.16 0.841,-2.26 1.245,-3.371 0.466,-1.088 0.937,-2.152 1.425,-3.164 0.514,-1 0.98,-1.979 1.503,-2.867 0.491,-0.902 0.993,-1.732 1.468,-2.494 0.461,-0.768 0.938,-1.438 1.332,-2.048 0.426,-0.592 0.776,-1.117 1.098,-1.53 0.617,-0.84 1.009,-1.297 1.009,-1.297 l 0.242,0.191 c 0,0 -0.351,0.472 -0.901,1.347 -0.287,0.429 -0.599,0.977 -0.976,1.588 -0.349,0.63 -0.771,1.323 -1.17,2.113 -0.415,0.781 -0.852,1.634 -1.271,2.556 -0.45,0.906 -0.841,1.9 -1.272,2.912 -0.406,1.023 -0.793,2.095 -1.17,3.184 -0.314,1.108 -0.73,2.206 -0.974,3.35 -0.278,1.134 -0.569,2.262 -0.733,3.396 -0.099,0.562 -0.194,1.121 -0.291,1.672 -0.057,0.557 -0.111,1.104 -0.166,1.646 -0.054,0.539 -0.105,1.068 -0.156,1.587 -0.01,0.521 -0.018,1.029 -0.024,1.524 -0.021,0.989 -0.049,1.926 0.049,2.758 0.062,0.838 0.119,1.606 0.171,2.287 0.121,0.713 0.229,1.334 0.316,1.846 0.176,1.023 0.276,1.608 0.276,1.608 z"
   id="path15" />
		<path
   d="m 528.078,521.114 c 0,0 -0.548,-0.558 -1.507,-1.531 -0.479,-0.515 -1.057,-1.211 -1.714,-1.971 -0.579,-0.808 -1.301,-1.664 -1.933,-2.707 -0.681,-1.011 -1.32,-2.164 -1.952,-3.399 -0.618,-1.243 -1.2,-2.586 -1.708,-4.004 -0.502,-1.421 -0.958,-2.907 -1.301,-4.443 -0.376,-1.526 -0.621,-3.104 -0.827,-4.681 -0.193,-1.577 -0.311,-3.16 -0.352,-4.718 -0.045,-1.559 -0.02,-3.088 0.059,-4.564 0.144,-2.955 0.524,-5.687 0.936,-8.005 0.839,-4.641 1.883,-7.611 1.883,-7.611 l 0.295,0.095 c 0,0 -0.875,2.999 -1.457,7.628 -0.28,2.312 -0.512,5.021 -0.496,7.924 0.003,1.45 0.06,2.946 0.186,4.458 0.12,1.513 0.316,3.04 0.584,4.551 0.281,1.508 0.598,3.008 1.036,4.445 0.403,1.446 0.915,2.832 1.459,4.145 0.551,1.312 1.163,2.538 1.802,3.665 0.651,1.119 1.301,2.156 1.98,3.056 0.633,0.932 1.346,1.684 1.911,2.396 0.628,0.645 1.136,1.205 1.609,1.667 1.01,0.921 1.587,1.446 1.587,1.446 z"
   id="path17" />
		<path
   d="m 593.153,503.854 c 0,0 -0.842,-0.247 -2.312,-0.682 -0.725,-0.183 -1.666,-0.578 -2.711,-0.949 -1.071,-0.354 -2.166,-0.939 -3.416,-1.481 -1.197,-0.653 -2.512,-1.323 -3.801,-2.21 -0.668,-0.403 -1.304,-0.896 -1.953,-1.394 -0.666,-0.476 -1.298,-1.026 -1.929,-1.598 -1.281,-1.115 -2.476,-2.412 -3.604,-3.785 -0.567,-0.685 -1.067,-1.43 -1.602,-2.149 -0.468,-0.768 -0.99,-1.503 -1.411,-2.299 -0.893,-1.56 -1.638,-3.193 -2.274,-4.833 -0.62,-1.646 -1.145,-3.293 -1.524,-4.916 -0.8,-3.238 -1.145,-6.331 -1.271,-8.976 -0.244,-5.303 0.374,-8.8 0.374,-8.8 l 0.307,0.045 c 0,0 -0.105,0.864 -0.158,2.39 -0.043,1.525 -0.051,3.712 0.206,6.313 0.249,2.598 0.734,5.616 1.663,8.726 0.446,1.561 1.03,3.13 1.702,4.686 0.69,1.547 1.479,3.075 2.398,4.518 0.434,0.738 0.967,1.41 1.439,2.113 0.539,0.657 1.042,1.337 1.607,1.955 1.124,1.238 2.296,2.397 3.544,3.382 0.614,0.503 1.224,0.988 1.868,1.401 0.628,0.436 1.237,0.862 1.881,1.209 1.234,0.768 2.495,1.33 3.633,1.887 1.188,0.442 2.254,0.953 3.229,1.221 0.985,0.294 1.774,0.604 2.551,0.761 1.49,0.363 2.343,0.57 2.343,0.57 z"
   id="path19" />
		<path
   d="m 646.864,464.674 c 0,0 -0.778,0.022 -2.144,0.062 -0.678,0.023 -1.593,-0.044 -2.588,-0.075 -0.509,-0.007 -1.021,-0.101 -1.575,-0.151 -0.551,-0.069 -1.134,-0.104 -1.73,-0.232 -0.598,-0.113 -1.22,-0.23 -1.863,-0.353 -0.635,-0.164 -1.29,-0.334 -1.965,-0.509 -0.666,-0.201 -1.34,-0.441 -2.031,-0.669 -0.686,-0.25 -1.366,-0.553 -2.066,-0.835 -0.687,-0.316 -1.372,-0.664 -2.066,-1.007 -0.672,-0.393 -1.365,-0.758 -2.031,-1.184 -1.328,-0.852 -2.646,-1.766 -3.86,-2.799 -1.24,-1.003 -2.381,-2.116 -3.471,-3.231 -1.062,-1.146 -2.08,-2.292 -2.974,-3.475 -1.823,-2.334 -3.274,-4.684 -4.414,-6.744 -2.271,-4.135 -3.237,-7.135 -3.237,-7.135 l 0.291,-0.104 c 0,0 0.278,0.722 0.864,1.946 0.592,1.223 1.479,2.952 2.712,4.923 1.231,1.97 2.781,4.199 4.683,6.376 0.933,1.104 1.981,2.164 3.065,3.215 1.11,1.021 2.265,2.029 3.501,2.924 1.213,0.925 2.513,1.723 3.808,2.46 0.649,0.367 1.323,0.675 1.97,1.009 0.671,0.285 1.329,0.577 1.984,0.837 0.67,0.228 1.316,0.477 1.966,0.673 0.655,0.176 1.29,0.366 1.916,0.52 0.632,0.128 1.246,0.252 1.84,0.373 0.601,0.08 1.181,0.156 1.737,0.229 0.553,0.091 1.095,0.09 1.604,0.128 0.51,0.02 0.999,0.083 1.443,0.062 0.904,-0.026 1.647,0.006 2.332,-0.056 1.36,-0.111 2.138,-0.176 2.138,-0.176 z"
   id="path21" />
		<path
   d="m 682.464,414.747 c 0,0 -0.767,0.088 -2.105,0.242 -0.671,0.077 -1.483,0.171 -2.417,0.277 -0.978,0.026 -2.081,0.056 -3.284,0.087 -1.209,0.069 -2.484,-0.029 -3.836,-0.118 -0.675,-0.043 -1.368,-0.087 -2.076,-0.134 -0.701,-0.099 -1.42,-0.199 -2.148,-0.303 -0.729,-0.104 -1.467,-0.211 -2.216,-0.318 -0.739,-0.158 -1.487,-0.317 -2.241,-0.479 -1.517,-0.284 -3.018,-0.721 -4.519,-1.146 -1.515,-0.381 -2.964,-0.971 -4.421,-1.438 -1.433,-0.539 -2.834,-1.095 -4.173,-1.665 -1.323,-0.606 -2.619,-1.153 -3.8,-1.773 -1.198,-0.583 -2.308,-1.179 -3.321,-1.745 -1.024,-0.546 -1.924,-1.121 -2.739,-1.592 -0.794,-0.51 -1.499,-0.931 -2.057,-1.316 -1.131,-0.743 -1.749,-1.215 -1.749,-1.216 l 0.18,-0.251 c 0,0 0.633,0.431 1.796,1.106 0.571,0.353 1.296,0.732 2.107,1.194 0.836,0.422 1.755,0.94 2.8,1.427 1.033,0.507 2.161,1.035 3.376,1.545 1.197,0.548 2.507,1.019 3.841,1.543 1.349,0.488 2.754,0.959 4.186,1.411 1.455,0.38 2.898,0.881 4.396,1.169 1.485,0.334 2.968,0.681 4.45,0.874 0.737,0.116 1.47,0.231 2.192,0.344 0.728,0.064 1.446,0.128 2.153,0.19 0.706,0.061 1.399,0.121 2.078,0.18 0.682,0.005 1.349,0.012 1.996,0.018 1.296,0.015 2.522,0.044 3.621,-0.084 1.105,-0.085 2.118,-0.164 3.017,-0.233 0.926,-0.158 1.732,-0.296 2.397,-0.41 1.329,-0.227 2.089,-0.356 2.089,-0.356 z"
   id="path23" />
		<path
   d="m 702.24,355.194 c 0,0 -0.771,0.436 -2.117,1.197 -0.683,0.378 -1.598,0.803 -2.599,1.303 -1.024,0.44 -2.158,0.967 -3.446,1.421 -0.646,0.224 -1.307,0.48 -2.008,0.701 -0.704,0.208 -1.432,0.424 -2.179,0.645 -0.758,0.182 -1.535,0.369 -2.331,0.561 -0.799,0.169 -1.622,0.309 -2.454,0.467 -0.839,0.117 -1.69,0.235 -2.554,0.355 -0.867,0.077 -1.743,0.165 -2.628,0.228 -1.771,0.093 -3.569,0.141 -5.363,0.067 -7.19,-0.211 -14.198,-1.888 -19.231,-3.627 -5.058,-1.718 -8.19,-3.428 -8.19,-3.428 l 0.143,-0.275 c 0,0 0.789,0.386 2.225,0.953 1.434,0.569 3.506,1.326 6.044,2.056 5.059,1.483 12.041,2.798 19.029,2.668 1.743,-0.013 3.481,-0.143 5.184,-0.312 0.847,-0.114 1.687,-0.227 2.517,-0.338 0.821,-0.155 1.634,-0.308 2.432,-0.458 0.789,-0.191 1.567,-0.361 2.321,-0.557 0.748,-0.219 1.479,-0.432 2.191,-0.639 0.699,-0.244 1.38,-0.48 2.038,-0.71 0.653,-0.239 1.269,-0.515 1.867,-0.753 1.192,-0.483 2.247,-1.038 3.18,-1.491 0.903,-0.511 1.683,-0.906 2.336,-1.311 1.311,-0.826 2.059,-1.297 2.059,-1.297 z"
   id="path25" />
		<path
   d="m 704.355,289.73 c 0,0 -0.57,0.758 -1.566,2.086 -0.544,0.663 -1.296,1.479 -2.122,2.382 -0.901,0.812 -1.856,1.796 -3.08,2.658 -0.298,0.226 -0.601,0.456 -0.908,0.69 -0.328,0.207 -0.662,0.417 -1.002,0.632 -0.342,0.212 -0.688,0.429 -1.038,0.647 -0.354,0.214 -0.74,0.385 -1.117,0.583 -0.379,0.19 -0.765,0.386 -1.154,0.582 -0.396,0.18 -0.812,0.332 -1.223,0.502 -0.415,0.162 -0.828,0.341 -1.256,0.492 -0.434,0.134 -0.87,0.269 -1.312,0.404 -1.76,0.556 -3.633,0.888 -5.532,1.152 -1.906,0.189 -3.849,0.314 -5.78,0.237 -1.936,-0.024 -3.854,-0.246 -5.729,-0.488 -1.869,-0.291 -3.697,-0.627 -5.438,-1.062 -1.749,-0.404 -3.409,-0.905 -4.977,-1.392 -1.561,-0.509 -3.022,-1.021 -4.354,-1.543 -5.337,-2.066 -8.647,-3.974 -8.647,-3.975 l 0.148,-0.271 c 0,0 0.839,0.431 2.354,1.097 1.515,0.668 3.708,1.557 6.394,2.463 1.341,0.458 2.811,0.9 4.371,1.334 1.566,0.411 3.224,0.832 4.957,1.152 1.729,0.351 3.531,0.6 5.363,0.802 1.836,0.154 3.703,0.286 5.564,0.228 1.863,-0.008 3.71,-0.212 5.509,-0.47 1.785,-0.333 3.528,-0.722 5.14,-1.312 0.402,-0.144 0.804,-0.287 1.198,-0.428 0.391,-0.157 0.764,-0.341 1.139,-0.507 0.372,-0.173 0.747,-0.329 1.104,-0.51 0.349,-0.196 0.693,-0.391 1.032,-0.582 0.337,-0.197 0.683,-0.366 0.997,-0.576 0.311,-0.214 0.616,-0.426 0.919,-0.633 0.3,-0.208 0.596,-0.412 0.886,-0.612 0.271,-0.226 0.535,-0.448 0.796,-0.666 1.075,-0.826 1.9,-1.766 2.687,-2.531 0.69,-0.839 1.288,-1.526 1.771,-2.166 0.938,-1.371 1.473,-2.154 1.473,-2.154 z"
   id="path27" />
		<path
   d="m 682.929,217.876 c 0,0 -0.561,0.784 -1.54,2.157 -0.459,0.687 -1.199,1.518 -1.95,2.467 -0.765,0.958 -1.72,1.919 -2.736,3.006 -0.539,0.511 -1.101,1.044 -1.682,1.596 -0.577,0.555 -1.241,1.056 -1.887,1.609 -0.64,0.562 -1.364,1.055 -2.081,1.585 -0.708,0.544 -1.485,1.024 -2.269,1.52 -1.562,0.997 -3.259,1.888 -5.019,2.701 -0.874,0.42 -1.796,0.75 -2.697,1.13 -0.925,0.321 -1.848,0.661 -2.787,0.942 -1.882,0.554 -3.783,1.039 -5.684,1.35 -1.895,0.342 -3.775,0.55 -5.599,0.67 -3.646,0.233 -7.054,0.095 -9.942,-0.229 -5.794,-0.625 -9.492,-1.866 -9.492,-1.866 l 0.092,-0.296 c 0,0 0.919,0.264 2.569,0.576 1.648,0.311 4.023,0.681 6.894,0.859 2.866,0.195 6.227,0.183 9.781,-0.201 1.776,-0.195 3.601,-0.478 5.425,-0.891 1.832,-0.382 3.65,-0.933 5.439,-1.545 0.893,-0.311 1.766,-0.678 2.64,-1.023 0.85,-0.405 1.718,-0.756 2.535,-1.195 1.646,-0.852 3.227,-1.769 4.667,-2.782 0.723,-0.503 1.438,-0.987 2.088,-1.535 0.657,-0.533 1.323,-1.025 1.904,-1.586 0.587,-0.552 1.193,-1.047 1.716,-1.598 0.526,-0.544 1.034,-1.071 1.521,-1.576 0.91,-1.065 1.787,-2.027 2.447,-2.936 0.663,-0.925 1.272,-1.643 1.721,-2.379 0.92,-1.414 1.444,-2.222 1.444,-2.222 z"
   id="path29" />
		<path
   d="m 614.75,137.477 c 0,0 -0.105,0.798 -0.29,2.193 -0.118,0.716 -0.327,1.632 -0.54,2.65 -0.308,0.98 -0.564,2.112 -1.053,3.278 -0.423,1.187 -1.005,2.426 -1.68,3.693 -0.683,1.265 -1.485,2.552 -2.418,3.801 -0.466,0.625 -0.939,1.259 -1.474,1.854 -0.51,0.618 -1.059,1.209 -1.63,1.787 -1.123,1.176 -2.368,2.256 -3.634,3.3 -1.295,1.006 -2.61,1.98 -3.973,2.834 -1.344,0.881 -2.726,1.645 -4.066,2.369 -2.704,1.408 -5.32,2.51 -7.6,3.347 -4.565,1.661 -7.751,2.272 -7.751,2.272 l -0.066,-0.302 c 0,0 3.125,-0.772 7.551,-2.649 2.206,-0.943 4.729,-2.166 7.302,-3.682 1.273,-0.778 2.584,-1.593 3.844,-2.517 1.278,-0.898 2.5,-1.907 3.693,-2.938 1.162,-1.066 2.297,-2.16 3.303,-3.331 0.514,-0.575 1.003,-1.161 1.45,-1.768 0.475,-0.586 0.887,-1.204 1.291,-1.811 0.811,-1.212 1.49,-2.444 2.06,-3.644 0.561,-1.202 1.034,-2.363 1.363,-3.469 0.392,-1.085 0.565,-2.134 0.803,-3.036 0.134,-0.911 0.278,-1.67 0.355,-2.346 0.11,-1.404 0.176,-2.206 0.176,-2.206 z"
   id="path31" />
		<path
   d="m 495.457,87.806 c 0,0 0.195,0.769 0.538,2.113 0.157,0.684 0.413,1.462 0.587,2.452 0.172,0.987 0.365,2.101 0.577,3.315 0.197,1.211 0.283,2.513 0.442,3.892 0.175,1.376 0.163,2.837 0.257,4.34 0.09,1.504 0.019,3.058 0.033,4.634 -0.021,1.576 -0.131,3.173 -0.192,4.769 -0.14,1.592 -0.243,3.185 -0.416,4.745 -0.188,1.559 -0.337,3.095 -0.57,4.571 -0.203,1.479 -0.43,2.904 -0.672,4.25 -0.219,1.35 -0.487,2.615 -0.711,3.786 -0.946,4.676 -1.83,7.732 -1.83,7.732 l -0.299,-0.078 c 0,0 0.717,-3.086 1.41,-7.781 0.16,-1.176 0.36,-2.445 0.505,-3.795 0.171,-1.348 0.319,-2.771 0.442,-4.247 0.155,-1.472 0.221,-3 0.325,-4.549 0.089,-1.549 0.106,-3.125 0.162,-4.698 -0.023,-1.573 0.003,-3.146 -0.061,-4.69 -0.099,-1.542 -0.105,-3.064 -0.271,-4.523 -0.171,-1.456 -0.232,-2.877 -0.474,-4.196 -0.225,-1.317 -0.375,-2.586 -0.622,-3.71 -0.254,-1.117 -0.486,-2.141 -0.693,-3.048 -0.202,-0.905 -0.517,-1.722 -0.703,-2.38 -0.414,-1.324 -0.65,-2.081 -0.65,-2.081 z"
   id="path33" />
		<path
   d="m 376.745,90.065 c 0,0 0.643,0.48 1.769,1.32 0.562,0.43 1.252,0.906 2.025,1.538 0.757,0.686 1.609,1.46 2.542,2.304 0.23,0.211 0.468,0.427 0.708,0.646 0.218,0.235 0.439,0.475 0.667,0.719 0.449,0.488 0.915,0.992 1.393,1.511 0.992,1.006 1.874,2.201 2.827,3.399 0.985,1.175 1.828,2.515 2.742,3.83 0.466,0.652 0.894,1.335 1.3,2.037 0.415,0.693 0.833,1.39 1.25,2.086 0.801,1.41 1.543,2.853 2.276,4.266 0.662,1.449 1.389,2.838 1.954,4.245 0.599,1.391 1.162,2.74 1.639,4.043 0.51,1.289 0.919,2.534 1.314,3.675 1.537,4.585 2.191,7.747 2.191,7.747 l -0.301,0.07 c 0,0 -0.814,-3.103 -2.576,-7.568 -0.452,-1.111 -0.921,-2.322 -1.493,-3.571 -0.537,-1.264 -1.165,-2.567 -1.827,-3.909 -0.629,-1.357 -1.418,-2.688 -2.143,-4.077 -0.794,-1.351 -1.596,-2.726 -2.45,-4.063 -0.443,-0.658 -0.886,-1.317 -1.327,-1.972 -0.431,-0.663 -0.882,-1.306 -1.369,-1.916 -0.956,-1.23 -1.837,-2.486 -2.848,-3.568 -0.98,-1.106 -1.885,-2.212 -2.886,-3.122 -0.482,-0.471 -0.951,-0.929 -1.405,-1.373 -0.227,-0.221 -0.45,-0.438 -0.668,-0.651 -0.233,-0.19 -0.461,-0.376 -0.686,-0.559 -0.889,-0.73 -1.704,-1.399 -2.427,-1.993 -0.77,-0.566 -1.511,-1.023 -2.085,-1.418 -1.168,-0.78 -1.836,-1.225 -1.836,-1.225 z"
   id="path35" />
		<path
   d="m 274.274,132.923 c 0,0 0.754,0.303 2.074,0.834 0.66,0.266 1.461,0.588 2.38,0.958 0.919,0.438 1.955,0.979 3.08,1.544 0.556,0.294 1.163,0.562 1.737,0.911 0.571,0.351 1.163,0.713 1.77,1.086 0.607,0.373 1.229,0.756 1.865,1.147 0.62,0.417 1.229,0.877 1.86,1.326 0.627,0.453 1.266,0.914 1.912,1.38 0.614,0.505 1.235,1.017 1.862,1.532 0.62,0.523 1.266,1.025 1.873,1.576 l 1.799,1.684 c 1.229,1.094 2.318,2.327 3.446,3.481 1.1,1.181 2.121,2.398 3.117,3.564 0.941,1.212 1.903,2.341 2.709,3.493 0.414,0.567 0.816,1.119 1.206,1.652 0.37,0.547 0.727,1.076 1.07,1.583 0.7,1.004 1.266,1.977 1.805,2.811 0.502,0.859 0.957,1.596 1.295,2.225 0.701,1.242 1.054,1.983 1.053,1.983 l -0.274,0.141 c 0,0 -0.384,-0.71 -1.145,-1.908 -0.368,-0.604 -0.856,-1.315 -1.397,-2.139 -0.578,-0.801 -1.188,-1.733 -1.933,-2.692 -0.365,-0.484 -0.746,-0.989 -1.139,-1.511 -0.413,-0.507 -0.838,-1.032 -1.277,-1.572 -0.854,-1.096 -1.861,-2.162 -2.85,-3.307 -1.042,-1.098 -2.106,-2.243 -3.246,-3.345 -1.167,-1.075 -2.293,-2.227 -3.55,-3.233 l -1.839,-1.552 c -0.619,-0.505 -1.274,-0.96 -1.902,-1.438 -0.634,-0.469 -1.262,-0.934 -1.883,-1.393 -0.649,-0.418 -1.29,-0.832 -1.919,-1.238 -0.632,-0.402 -1.242,-0.816 -1.859,-1.186 -0.632,-0.344 -1.25,-0.681 -1.852,-1.009 -0.601,-0.328 -1.186,-0.646 -1.75,-0.955 -0.565,-0.305 -1.139,-0.519 -1.672,-0.769 -1.079,-0.474 -2.049,-0.924 -2.935,-1.296 -0.937,-0.322 -1.753,-0.603 -2.426,-0.833 -1.345,-0.462 -2.114,-0.726 -2.114,-0.726 z"
   id="path37" />
		<path
   d="m 184.243,218.426 c 0,0 0.854,-0.205 2.351,-0.563 0.729,-0.197 1.711,-0.351 2.794,-0.56 1.092,-0.232 2.32,-0.346 3.659,-0.533 0.669,-0.083 1.375,-0.114 2.1,-0.176 0.726,-0.069 1.478,-0.101 2.251,-0.106 1.545,-0.057 3.18,-0.006 4.86,0.108 1.681,0.125 3.412,0.333 5.149,0.66 0.867,0.168 1.742,0.327 2.605,0.56 l 1.301,0.324 1.286,0.388 c 1.717,0.509 3.386,1.16 5.002,1.847 1.6,0.727 3.158,1.475 4.595,2.326 1.45,0.825 2.803,1.705 4.042,2.594 1.25,0.875 2.365,1.791 3.386,2.641 4.045,3.467 6.111,6.379 6.111,6.379 l -0.248,0.185 c 0,0 -0.534,-0.687 -1.602,-1.785 -1.06,-1.103 -2.66,-2.601 -4.723,-4.213 -1.044,-0.789 -2.183,-1.636 -3.448,-2.435 -1.257,-0.812 -2.619,-1.609 -4.072,-2.346 -1.438,-0.762 -2.991,-1.416 -4.574,-2.047 -1.599,-0.59 -3.239,-1.141 -4.917,-1.552 l -1.255,-0.314 -1.266,-0.251 c -0.839,-0.185 -1.688,-0.296 -2.526,-0.417 -1.679,-0.233 -3.343,-0.353 -4.953,-0.396 -1.609,-0.031 -3.167,-0.006 -4.638,0.12 -0.736,0.04 -1.45,0.104 -2.138,0.204 -0.688,0.093 -1.355,0.152 -1.989,0.263 -1.263,0.24 -2.44,0.404 -3.435,0.669 -1.01,0.246 -1.87,0.414 -2.618,0.654 -1.479,0.43 -2.322,0.675 -2.322,0.675 z"
   id="path39" />
		<path
   d="m 132.679,319.791 c 0,0 0.952,-0.546 2.618,-1.503 0.851,-0.47 1.995,-0.98 3.245,-1.591 0.637,-0.277 1.326,-0.527 2.045,-0.814 0.359,-0.141 0.729,-0.285 1.107,-0.432 0.389,-0.121 0.785,-0.245 1.19,-0.371 1.61,-0.538 3.402,-0.96 5.305,-1.333 0.96,-0.139 1.939,-0.329 2.95,-0.435 1.014,-0.073 2.045,-0.211 3.099,-0.233 2.106,-0.069 4.285,-0.045 6.478,0.186 0.548,0.056 1.098,0.111 1.648,0.167 l 1.646,0.254 c 1.104,0.146 2.189,0.407 3.281,0.625 1.088,0.238 2.162,0.535 3.231,0.816 1.056,0.336 2.124,0.612 3.148,0.994 2.072,0.693 4.059,1.513 5.957,2.35 1.89,0.855 3.687,1.743 5.35,2.658 1.674,0.895 3.205,1.831 4.61,2.701 5.598,3.539 8.883,6.502 8.883,6.502 l -0.202,0.233 c 0,0 -0.84,-0.698 -2.394,-1.818 -1.559,-1.114 -3.827,-2.649 -6.665,-4.293 -1.426,-0.81 -2.977,-1.677 -4.664,-2.497 -1.677,-0.84 -3.482,-1.648 -5.374,-2.418 -1.898,-0.752 -3.878,-1.481 -5.931,-2.081 -1.016,-0.335 -2.07,-0.564 -3.109,-0.853 -1.054,-0.233 -2.108,-0.483 -3.173,-0.674 -1.068,-0.17 -2.128,-0.385 -3.2,-0.481 l -1.597,-0.186 c -0.533,-0.032 -1.064,-0.065 -1.594,-0.1 -2.114,-0.142 -4.199,-0.083 -6.201,0.059 -1.002,0.061 -1.978,0.231 -2.936,0.335 -0.955,0.137 -1.874,0.354 -2.774,0.519 -1.783,0.423 -3.454,0.883 -4.948,1.448 -0.376,0.133 -0.744,0.263 -1.104,0.39 -0.35,0.152 -0.691,0.302 -1.024,0.447 -0.663,0.295 -1.307,0.555 -1.885,0.833 -1.128,0.612 -2.105,1.08 -2.919,1.568 -1.628,1.021 -2.559,1.603 -2.559,1.603 z"
   id="path41" />
		<path
   d="m 121.095,439.789 c 0,0 0.513,-0.742 1.411,-2.041 0.544,-0.646 1.178,-1.489 1.976,-2.333 0.408,-0.41 0.841,-0.845 1.298,-1.304 0.469,-0.446 1.007,-0.866 1.542,-1.328 0.525,-0.479 1.155,-0.868 1.769,-1.318 0.606,-0.462 1.296,-0.843 1.987,-1.258 1.387,-0.823 2.926,-1.541 4.546,-2.185 0.806,-0.333 1.656,-0.581 2.5,-0.88 0.858,-0.242 1.727,-0.494 2.609,-0.708 1.771,-0.398 3.58,-0.745 5.403,-0.938 7.298,-0.878 14.596,-0.133 19.938,0.781 5.359,0.921 8.818,2.021 8.818,2.021 l -0.087,0.297 c 0,0 -3.486,-0.932 -8.839,-1.596 -5.332,-0.662 -12.58,-1.048 -19.601,0.135 -1.756,0.27 -3.479,0.686 -5.151,1.146 -0.833,0.242 -1.646,0.521 -2.45,0.788 -0.783,0.32 -1.576,0.59 -2.317,0.938 -1.49,0.677 -2.892,1.411 -4.134,2.229 -0.619,0.414 -1.236,0.79 -1.771,1.24 -0.541,0.439 -1.102,0.817 -1.557,1.277 -0.467,0.445 -0.938,0.844 -1.342,1.269 -0.393,0.434 -0.766,0.846 -1.116,1.231 -0.674,0.786 -1.159,1.506 -1.614,2.081 -0.836,1.339 -1.313,2.104 -1.313,2.104 z"
   id="path43" />
		<path
   d="m 155.229,556.896 c 0,0 0.266,-0.973 0.729,-2.674 0.205,-0.842 0.631,-1.921 1.025,-3.123 0.192,-0.613 0.463,-1.228 0.736,-1.882 0.282,-0.648 0.542,-1.347 0.881,-2.047 0.347,-0.694 0.709,-1.418 1.083,-2.167 0.382,-0.745 0.851,-1.477 1.291,-2.248 0.925,-1.518 1.985,-3.067 3.201,-4.577 1.196,-1.521 2.562,-2.984 4.016,-4.396 0.734,-0.698 1.511,-1.362 2.279,-2.037 0.812,-0.623 1.588,-1.298 2.433,-1.88 1.658,-1.206 3.393,-2.301 5.151,-3.272 1.759,-0.973 3.541,-1.831 5.304,-2.562 1.752,-0.756 3.5,-1.348 5.158,-1.891 1.669,-0.507 3.256,-0.951 4.741,-1.28 5.934,-1.366 10.008,-1.43 10.009,-1.43 l 0.012,0.31 c 0,0 -0.999,0.06 -2.735,0.316 -1.735,0.263 -4.209,0.707 -7.106,1.512 -1.452,0.386 -3,0.891 -4.621,1.458 -1.608,0.603 -3.3,1.253 -4.984,2.064 -1.696,0.787 -3.399,1.698 -5.07,2.716 -1.671,1.017 -3.306,2.146 -4.856,3.377 -0.792,0.595 -1.511,1.276 -2.266,1.906 -0.71,0.681 -1.428,1.347 -2.102,2.043 -1.333,1.41 -2.578,2.857 -3.653,4.354 -1.094,1.479 -2.037,2.993 -2.854,4.465 -0.386,0.749 -0.8,1.456 -1.131,2.175 -0.323,0.724 -0.637,1.421 -0.938,2.091 -0.292,0.674 -0.509,1.347 -0.75,1.97 -0.232,0.627 -0.466,1.22 -0.615,1.786 -0.32,1.146 -0.66,2.072 -0.838,2.953 -0.392,1.72 -0.616,2.701 -0.616,2.701 z"
   id="path45" />
		<path
   d="m 240.345,680.861 c 0,0 -0.148,-1.319 -0.408,-3.627 -0.023,-1.212 -0.129,-2.712 -0.076,-4.389 0.05,-0.833 0.103,-1.72 0.157,-2.654 0.069,-0.934 0.252,-1.902 0.383,-2.918 0.109,-1.021 0.393,-2.055 0.623,-3.133 0.209,-1.085 0.558,-2.171 0.902,-3.288 0.31,-1.13 0.757,-2.242 1.199,-3.386 0.406,-1.157 0.975,-2.271 1.499,-3.429 0.507,-1.165 1.186,-2.266 1.782,-3.422 0.644,-1.132 1.354,-2.241 2.051,-3.369 1.482,-2.196 3.05,-4.384 4.779,-6.436 1.688,-2.086 3.533,-4.029 5.373,-5.911 1.865,-1.855 3.76,-3.621 5.66,-5.246 1.889,-1.643 3.784,-3.143 5.604,-4.529 1.823,-1.384 3.585,-2.643 5.236,-3.762 6.608,-4.491 11.392,-6.855 11.392,-6.855 l 0.142,0.275 c 0,0 -4.687,2.504 -11.113,7.177 -1.605,1.166 -3.315,2.47 -5.082,3.899 -1.762,1.435 -3.592,2.979 -5.407,4.661 -1.829,1.667 -3.644,3.47 -5.421,5.355 -1.752,1.909 -3.507,3.876 -5.092,5.97 -1.63,2.062 -3.088,4.242 -4.461,6.419 -0.64,1.115 -1.294,2.212 -1.88,3.324 -0.54,1.136 -1.164,2.215 -1.611,3.35 -0.468,1.126 -0.979,2.211 -1.331,3.328 -0.388,1.104 -0.782,2.179 -1.04,3.261 -0.293,1.071 -0.593,2.11 -0.755,3.143 -0.185,1.025 -0.426,2.007 -0.494,2.972 -0.092,0.961 -0.238,1.876 -0.274,2.753 -0.022,0.878 -0.046,1.71 -0.067,2.492 0.002,1.556 0.141,2.874 0.187,3.979 0.333,2.299 0.522,3.61 0.522,3.61 z"
   id="path47" />
	</g>
</g>
<g
   transform="translate(-111.01916,-67.63778)"
   id="g49">
	<g
   id="g51" style="fill:none;stroke:#808080;stroke-width:3;stroke-miterlimit:10">
		<path
   d="m 527.644,598.038 c 0,0 -2.065,-0.258 -5.916,-0.894 -3.847,-0.647 -9.485,-1.648 -16.598,-3.234 -7.111,-1.584 -15.712,-3.688 -25.462,-6.527 -9.756,-2.815 -20.656,-6.388 -32.319,-10.908 -11.645,-4.558 -24.091,-9.979 -36.784,-16.674 -12.685,-6.688 -25.711,-14.51 -38.233,-23.955 -12.525,-9.411 -24.716,-20.24 -35.533,-32.701 -10.82,-12.436 -20.359,-26.396 -27.734,-41.474 -7.297,-15.104 -12.562,-31.191 -15.495,-47.43 -0.343,-2.033 -0.794,-4.045 -1.044,-6.084 -0.282,-2.034 -0.565,-4.062 -0.848,-6.087 -0.254,-2.027 -0.414,-4.061 -0.624,-6.081 l -0.295,-3.029 -0.175,-3.029 c -0.607,-8.039 -0.474,-16.095 -0.261,-23.863 0.529,-15.729 2.92,-30.785 6.625,-44.696 3.652,-13.93 9.013,-26.556 15.1,-37.533 3.113,-5.451 6.305,-10.566 9.751,-15.137 1.653,-2.337 3.452,-4.469 5.139,-6.587 0.856,-1.049 1.761,-2.032 2.619,-3.028 0.864,-0.992 1.71,-1.971 2.604,-2.881 0.877,-0.924 1.739,-1.833 2.588,-2.727 0.88,-0.863 1.746,-1.71 2.595,-2.543 1.675,-1.691 3.436,-3.168 5.053,-4.664 3.358,-2.853 6.497,-5.412 9.483,-7.52 5.906,-4.311 10.953,-7.092 14.416,-8.903 3.487,-1.777 5.454,-2.517 5.454,-2.517 l 0.169,0.432 c 0,0 -1.918,0.775 -5.34,2.623 -3.403,1.872 -8.325,4.786 -14.12,9.152 -2.927,2.144 -5.995,4.738 -9.272,7.624 -1.577,1.512 -3.294,3.004 -4.924,4.709 -0.827,0.839 -1.668,1.694 -2.525,2.563 -0.823,0.899 -1.662,1.815 -2.515,2.745 -0.867,0.916 -1.688,1.9 -2.525,2.896 -0.83,1 -1.708,1.988 -2.536,3.04 -1.632,2.125 -3.372,4.262 -4.964,6.601 -3.324,4.573 -6.446,9.643 -9.455,15.06 -5.895,10.901 -11.051,23.412 -14.51,37.199 -0.433,1.723 -0.869,3.456 -1.308,5.201 -0.355,1.765 -0.713,3.54 -1.074,5.327 -0.798,3.558 -1.245,7.227 -1.836,10.908 -0.322,1.837 -0.458,3.711 -0.673,5.583 -0.206,1.874 -0.413,3.756 -0.622,5.647 -0.124,1.896 -0.248,3.8 -0.373,5.712 -0.099,1.918 -0.303,3.818 -0.317,5.774 -0.039,1.95 -0.077,3.908 -0.117,5.873 -0.021,0.983 -0.04,1.968 -0.06,2.954 -0.028,0.928 0.028,1.948 0.038,2.92 0.041,1.968 0.083,3.943 0.124,5.924 0.083,1.979 0.23,3.962 0.343,5.953 l 0.182,2.99 0.301,2.988 c 0.214,1.992 0.377,3.999 0.633,5.996 0.284,1.995 0.569,3.994 0.855,5.999 0.252,2.011 0.703,3.991 1.048,5.994 2.935,15.994 8.175,31.8 15.385,46.641 7.188,14.861 16.52,28.649 27.14,40.964 10.617,12.339 22.618,23.099 34.979,32.471 12.383,9.365 25.177,17.313 37.705,24.103 12.529,6.798 24.849,12.34 36.388,17.015 11.569,4.607 22.356,8.381 32.03,11.379 9.666,3.016 18.21,5.277 25.277,6.992 7.072,1.699 12.668,2.881 16.497,3.612 3.829,0.731 5.886,1.041 5.886,1.041 z"
   id="path53" />
	</g>
</g>
<g
   transform="translate(-111.01916,-67.63778)"
   id="g55">
	<g
   id="g57" style="fill:none;stroke:#808080;stroke-width:3;stroke-miterlimit:10">
		<path
   d="m 447.34,815.428 c 0,0 -0.174,-0.231 -0.512,-0.682 -0.168,-0.225 -0.377,-0.504 -0.626,-0.835 -0.239,-0.337 -0.449,-0.778 -0.727,-1.252 -1.062,-1.913 -2.233,-4.959 -2.82,-9.014 -1.231,-8.092 -0.509,-19.928 2.747,-33.517 3.229,-13.599 8.585,-29.072 15.912,-44.92 3.666,-7.922 7.754,-15.971 12.291,-23.936 4.525,-7.969 9.43,-15.889 14.62,-23.616 l 3.984,-5.773 c 1.388,-1.86 2.773,-3.72 4.158,-5.575 2.798,-3.691 5.642,-7.329 8.517,-10.893 5.738,-7.138 11.668,-13.935 17.589,-20.341 5.915,-6.413 11.911,-12.359 17.812,-17.765 5.901,-5.406 11.713,-10.271 17.333,-14.437 5.604,-4.186 11.056,-7.626 16.157,-10.183 5.095,-2.553 9.874,-4.226 14.002,-4.688 4.13,-0.545 7.489,0.467 9.328,1.724 0.945,0.604 1.557,1.215 1.952,1.628 0.378,0.434 0.573,0.655 0.573,0.655 l -0.357,0.297 c 0,0 -0.195,-0.205 -0.574,-0.603 -0.394,-0.379 -0.999,-0.933 -1.912,-1.461 -1.784,-1.113 -4.942,-1.896 -8.885,-1.271 -3.938,0.568 -8.547,2.337 -13.461,4.998 -4.919,2.675 -10.176,6.233 -15.655,10.447 -10.965,8.44 -22.638,19.707 -34.294,32.512 -5.836,6.4 -11.61,13.246 -17.317,20.329 -2.85,3.547 -5.665,7.166 -8.438,10.841 -1.373,1.851 -2.749,3.702 -4.126,5.558 l -3.901,5.678 c -5.186,7.644 -10.087,15.479 -14.611,23.363 -4.521,7.888 -8.718,15.795 -12.427,23.616 -3.703,7.824 -7.023,15.513 -9.817,22.938 -2.796,7.425 -5.083,14.579 -6.817,21.278 -1.729,6.699 -2.921,12.942 -3.55,18.523 -0.626,5.581 -0.662,10.504 -0.189,14.503 0.459,4 1.438,7.058 2.401,8.976 0.25,0.476 0.436,0.917 0.659,1.265 0.233,0.343 0.431,0.631 0.588,0.863 0.315,0.464 0.479,0.703 0.479,0.703 z"
   id="path59" />
	</g>
</g>
</svg>