<?xml version="1.0" encoding="UTF-8" standalone="no"?>
<svg
   xmlns:dc="http://purl.org/dc/elements/1.1/"
   xmlns:cc="http://creativecommons.org/ns#"
   xmlns:rdf="http://www.w3.org/1999/02/22-rdf-syntax-ns#"
   xmlns:svg="http://www.w3.org/2000/svg"
   xmlns="http://www.w3.org/2000/svg"
   id="svg2010"
   height="285.35019"
   width="347.80942"
   version="1.0">
  <metadata
     id="metadata4414">
    <rdf:RDF>
      <cc:Work
         rdf:about="">
        <dc:format>image/svg+xml</dc:format>
        <dc:type
           rdf:resource="http://purl.org/dc/dcmitype/StillImage" />
        <dc:title></dc:title>
        <dc:creator>
          <cc:Agent>
            <dc:title>https://fr.wikipedia.org/wiki/Utilisateur:Rinaldum</dc:title>
          </cc:Agent>
        </dc:creator>
      </cc:Work>
    </rdf:RDF>
  </metadata>
  <defs
     id="defs2013" />
  <path
     style="fill:#4d4d4d;fill-opacity:1;stroke:#999999;stroke-width:3.66269207;stroke-miterlimit:4;stroke-opacity:1;stroke-dasharray:none"
     id="path2231"
     d="m 132.21426,270.09881 -7.83959,2.2795 c -5.11047,-1.87847 -9.28306,-5.54386 -12.41195,-10.90316 l -2.11231,-3.61809 -2.46958,5.42689 c -2.64598,9.73612 -5.32044,11.03905 -3.38705,15.59318 1.46306,3.44624 28.33999,3.30076 27.12314,3.52026 l 1.09734,-12.29858 z" />
  <path
     style="fill:#4d4d4d;fill-opacity:1;stroke:#999999;stroke-width:3.14598536;stroke-miterlimit:4;stroke-opacity:1;stroke-dasharray:none"
     id="path2229"
     d="m 242.15365,269.31837 2.37205,-4.43757 -4.42948,-0.8216 c -9.26782,-1.71903 -10.85446,-2.41065 -13.35739,-5.82252 l -2.56942,-3.50255 -2.38272,5.17731 c -2.91217,6.32769 -2.99072,8.61348 -0.35768,10.40788 2.17102,1.47952 9.27962,3.04853 14.90121,3.28899 3.00417,0.12851 3.75874,-0.42736 5.82343,-4.28994 z" />
  <path
     style="fill:#4d4d4d;fill-opacity:1;stroke:#999999;stroke-width:3.60578656;stroke-miterlimit:4;stroke-opacity:1;stroke-dasharray:none"
     id="path2227"
     d="m 335.53738,278.53055 c 1.86606,-2.81231 3.39283,-5.4026 3.39283,-5.75621 0,-0.3536 -3.18985,-0.88536 -7.08856,-1.18167 -4.50647,-0.34253 -7.81758,-1.32627 -9.08991,-2.70068 -1.89207,-2.04385 -2.10547,-1.86144 -3.90794,3.34038 -1.04862,3.02626 -2.0325,6.07426 -2.18639,6.77336 -0.3403,1.54578 7.20634,4.39816 12.00417,4.53718 2.7836,0.0806 4.16425,-0.92582 6.8758,-5.01236 z" />
  <path
     style="fill:#ff0000;fill-opacity:1;stroke:#999999;stroke-width:3;stroke-miterlimit:4;stroke-opacity:1;stroke-dasharray:none"
     id="path2213"
     d="M 13.320469,57.656924 C 15.545493,55.4319 20.258778,59.053635 19.257171,52.411285 21.1788,42.330705 30.369911,31.947231 13.847598,22.635148 6.4615013,32.509141 -1.7962502,47.436503 2.8491533,59.80031 c 1.805436,1.843877 7.6882037,0.639726 10.4713157,-2.143386 z" />
  <path
     style="fill:#ff0000;fill-opacity:1;stroke:#999999;stroke-width:3;stroke-miterlimit:4;stroke-opacity:1;stroke-dasharray:none"
     id="path2219"
     d="m 68.409849,233.29477 c 1.401017,-2.74622 3.498154,-4.78749 6.619971,-6.44361 2.513133,-1.33321 4.569333,-2.69253 4.569333,-3.02071 0,-1.61463 -21.361964,-31.94284 -23.017115,-32.67807 -1.080569,-0.48 0.696125,-11.70727 2.362636,-14.92995 2.201405,-4.25705 8.320856,-9.11842 13.154479,-10.45009 8.177543,-2.25293 18.86937,-0.48722 23.85468,3.9395 37.715007,0.24466 -9.424202,-36.28442 -14.22628,-39.56284 -1.060048,-1.37236 -6.221854,3.54438 -7.674058,5.57958 -0.904548,1.26769 -8.071978,7.41331 -15.927622,13.65695 -16.751114,13.31372 -19.52672,16.50126 -19.52672,22.42472 0,5.85422 2.594444,17.79461 5.614117,25.83781 2.411048,6.42207 15.194148,32.20525 16.497087,33.2742 0.336163,0.27579 0.934863,2.69647 1.330446,5.37929 1.119948,7.59543 1.733034,8.48047 3.113149,4.49411 0.662893,-1.91472 2.128047,-5.29012 3.255897,-7.50089 z" />
  <path
     style="fill:#ff0000;fill-opacity:1;stroke:#999999;stroke-width:3;stroke-miterlimit:4;stroke-opacity:1;stroke-dasharray:none"
     id="path2225"
     d="m 129.78261,271.1737 c 14.97799,-13.30368 -4.03459,-29.74663 2.46343,-45.58256 0.91163,-18.02981 7.8875,-35.39446 5.5156,-53.57901 -1.11758,-14.22645 1.1586,-7.57359 0.0815,2.25564 -1.83986,10.43185 15.96199,3.74744 22.011,5.56796 23.7025,-0.3646 48.2614,0.17667 71.54305,-4.7334 30.6562,22.54226 6.9845,58.56908 -8.24698,81.11153 4.82791,5.38411 16.78284,9.28 22.03219,5.75316 4.61583,-11.37089 6.85164,-24.51639 16.86033,-32.67497 6.27178,-10.13393 10.61268,-22.69275 12.26576,-35.6422 3.53725,-10.6743 -3.08596,-20.05443 2.91676,-25.53253 16.38858,22.41379 34.20214,44.49752 44.8796,70.35347 9.08706,11.08719 -11.46934,35.31883 10.19119,34.32245 10.05334,3.35419 8.01615,-11.45222 7.9498,-17.63282 -3.56912,-25.71388 -19.49007,-48.2152 -19.99204,-74.62636 -2.18364,-17.73809 2.15196,-35.14412 6.19439,-52.21795 1.2813,-8.86074 -4.58587,-17.91116 -6.61834,-25.15739 4.41767,8.62788 21.17399,33.18328 26.47957,13.72009 C 339.991,97.335015 323.84315,82.386476 307.7572,70.414473 c -5.90473,-3.860048 -11.46995,-5.013802 -19.42145,-6.501999 -47.70123,-2.836655 -60.61359,-0.508429 -90.27125,0.351236 -21.09004,1.49485 -44.82604,-0.190731 -65.02506,7.07944 4.29726,6.756261 3.63263,19.263185 1.71661,4.57763 C 131.04229,67.654978 121.30787,54.781882 113.70471,48.045453 112.69694,47.15256 103.16626,37.587638 97.642943,32.54547 c -1.36185,-1.243211 10.320117,11.385652 9.207677,11.141831 1.85096,8.509131 -0.46224,11.84351 -6.08317,11.275215 C 97.297243,53.250307 89.234303,49.112225 83.266454,42.368502 78.669253,37.467384 69.219145,20.964138 68.069662,16.677143 74.399895,32.504278 85.698536,48.961303 101.9342,55.457642 116.7889,49.857351 96.150893,30.907357 89.296493,24.05022 81.425794,16.711978 72.461289,10.589403 62.746309,5.9645732 50.338772,-0.360706 39.228478,0.1932856 26.707428,6.6241742 9.1323653,16.169834 13.857379,34.8014 16.926207,50.904139 c 2.644397,9.540604 -4.060157,27.234469 5.38674,30.997375 -0.614943,-6.203927 8.427107,-17.137318 1.560803,-5.957389 -6.367664,13.84972 21.930547,12.34239 14.566531,-0.352613 5.635774,-19.152225 -4.040624,16.863333 7.946062,3.406165 10.877432,-8.200272 17.000897,-21.26426 22.21281,-33.073982 -3.53327,9.619085 -8.954106,18.120356 -12.956897,24.782712 12.14028,21.905478 12.227777,51.658843 29.023904,71.156423 10.525383,8.01715 13.513913,29.6109 22.55143,34.62843 1.84554,-5.33243 0.74863,-19.47292 0.94331,-6.82458 -2.46378,28.96837 9.12967,57.77479 2.36518,86.65586 -3.19924,9.063 11.50206,22.87084 19.25653,14.85116 z" />
  <path
     style="fill:#000000;stroke:#999999;stroke-width:0;stroke-miterlimit:4;stroke-opacity:1;stroke-dasharray:none"
     id="path2223"
     d="m 88.557998,35.173695 c -3.981294,-4.2625 -7.911701,-8.776544 -8.734239,-10.031208 -2.422603,-3.695338 -0.550568,-3.767077 2.462336,-0.09436 1.523026,1.856562 5.591521,6.336596 9.041098,9.955629 3.44958,3.619034 6.27196,6.881534 6.27196,7.25 0,1.88694 -2.47878,-0.05418 -9.041155,-7.080061 z" />
  <path
     style="fill:#4d4d4d;fill-opacity:1;stroke:#999999;stroke-width:3.50072622;stroke-miterlimit:4;stroke-opacity:1;stroke-dasharray:none"
     id="path2221"
     d="m 79.830378,243.26923 c 1.750764,-4.34828 1.827378,-18.27075 0.110348,-20.05257 -0.415739,-0.43143 -3.02643,0.59641 -5.801534,2.2841 -3.833465,2.33133 -5.63468,4.48944 -7.497476,8.98302 -4.248063,10.24751 -2.792513,12.95465 7.056971,13.12509 3.966975,0.0686 4.512102,-0.31715 6.131691,-4.33964 z" />
  <path
     style="fill:#ffffff;fill-opacity:1;stroke:#000000;stroke-width:3;stroke-linecap:butt;stroke-linejoin:miter;stroke-miterlimit:4;stroke-opacity:1;stroke-dasharray:none"
     id="path3599"
     d="m 43.253663,38.407777 c -3.998129,-8.158975 -4.398289,-13.778206 1.536472,-14.925729 2.419888,1.602396 3.897559,4.461079 7.901857,3.950928 -0.67664,5.201686 -4.082093,8.697863 -9.438329,10.974801 z" />
  <path
     style="fill:#ffffff;fill-opacity:1;stroke:#000000;stroke-width:3;stroke-miterlimit:4;stroke-opacity:1;stroke-dasharray:none"
     id="path3601"
     transform="translate(-11.400847,-12.076305)"
     d="m 57.426638,44.642853 a 2.1728997,2.3281069 0 1 1 -4.345799,0 2.1728997,2.3281069 0 1 1 4.345799,0 z" />
  <path
     style="fill:#ffffff;fill-opacity:1;stroke:#999999;stroke-width:3;stroke-linecap:butt;stroke-linejoin:miter;stroke-miterlimit:4;stroke-opacity:1;stroke-dasharray:none"
     id="path3603"
     d="m 231.65351,62.831936 c 5.8755,2.525959 12.20571,4.710884 14.89988,9.622842" />
  <path
     style="fill:none;stroke:#999999;stroke-width:3;stroke-linecap:butt;stroke-linejoin:miter;stroke-opacity:1"
     id="path3605"
     d="M 277.01693,167.91044 C 264.85331,157.56166 255.75592,149.26431 250.6774,136.96149" />
  <path
     style="fill:none;stroke:#999999;stroke-width:3;stroke-linecap:butt;stroke-linejoin:miter;stroke-opacity:1"
     id="path3607"
     d="m 231.14226,174.71481 c 13.38787,-3.14785 26.45784,-6.69307 37.53382,-12.73077" />
</svg>
