<?xml version="1.0" encoding="utf-8"?>
<svg xmlns="http://www.w3.org/2000/svg" xmlns:dc="http://purl.org/dc/elements/1.1/"
     xmlns:xl="http://www.w3.org/1999/xlink"
     xmlns:xlink="http://www.w3.org/1999/xlink"
     version="1.1"
     viewBox="58.5 63 247.5 351"
     width="247.5"
     height="351"
     preserveAspectRatio="xMidYMid meet"
     zoomAndPan="magnify"
     contentScriptType="application/ecmascript"
     contentStyleType="text/css">
   <defs/>
   <metadata xmlns="" xmlns:svg="http://www.w3.org/2000/svg"
             xmlns:rdf="http://www.w3.org/1999/02/22-rdf-syntax-ns#"
             xmlns:cc="http://creativecommons.org/ns#">
      <rdf:RDF>
         <cc:Work rdf:about="">
            <dc:creator>
               <cc:Agent>
                  <dc:title>http://heraldicart.org Sow Rampant (2).svg</dc:title>
               </cc:Agent>
            </dc:creator>
         </cc:Work>
      </rdf:RDF>
   </metadata>
   <g stroke-opacity="1" stroke-dasharray="none" stroke="#505050" fill="#ffff00"
      fill-opacity="1">
      <title>Sow Rampant (2)</title>
      <g>
         <title>Art</title>
         <g>
            <g>
               <g  id="outline-0">
                  <path
                        d="M 267.8409 264.82246 L 265.95788 264.82246 L 266.62528 263.9882 C 266.9828 263.5115 268.41295 262.39122 269.7716 261.46163 L 272.22666 259.79314 L 273.6568 261.89068 C 275.51598 264.63178 277.2083 266.34794 278.70996 266.9915 C 279.8064 267.46822 280.16393 267.49206 282.90503 267.34904 C 284.5497 267.27753 286.74257 267.13452 287.79134 267.063 C 290.46094 266.8485 292.01025 267.30137 296.63437 269.61343 C 299.04177 270.8052 300.68643 271.49645 301.04397 271.44878 C 301.5922 271.37727 301.61602 271.30576 301.5922 269.6611 C 301.52068 265.9904 300.42424 262.9156 297.94533 259.5071 C 297.1826 258.4345 296.46752 257.2904 296.37218 256.9567 C 295.5141 254.04874 293.46423 252.16573 290.05573 251.1408 C 289.34066 250.92627 288.41107 250.56874 287.98203 250.33038 C 283.6916 248.01832 282.5475 247.5416 280.97434 247.4701 C 278.90064 247.35092 277.6612 247.75613 274.6579 249.59148 C 273.37077 250.4019 271.3924 251.59367 270.27213 252.26107 C 265.38582 255.16902 263.26445 256.74217 260.4995 259.60245 C 258.97403 261.15177 257.25786 263.15397 256.6858 264.05972 L 255.6132 265.70438 L 253.34882 265.87123 C 252.10936 265.94274 250.6554 266.01424 250.131 266.01424 L 249.15374 266.01424 L 247.8666 263.583 C 247.15154 262.2482 245.7929 260.00766 244.86332 258.6252 C 242.93263 255.7649 239.19043 248.9479 238.38002 246.85038 C 238.094 246.08763 237.5696 244.41914 237.2359 243.17968 L 236.61618 240.9153 L 236.99755 232.19145 C 237.21207 227.40048 237.5696 221.5369 237.80797 219.17718 C 238.28468 214.0525 238.3562 197.77275 237.9033 192.00452 C 237.73646 190.02617 237.52194 186.713 237.37892 184.61547 C 237.11673 180.44423 236.64002 176.36833 236.06796 173.41271 C 235.85344 172.36394 235.37673 168.9316 234.97152 165.7853 C 233.18385 151.57925 231.277 143.47512 228.2737 137.39703 C 227.08192 134.94196 222.24328 127.29071 221.67123 126.95701 C 221.5282 126.86167 220.14574 125.26468 218.59643 123.4055 C 215.68847 119.9255 208.03723 111.27315 205.79668 108.93725 C 205.12928 108.22218 203.62763 106.31533 202.45968 104.69451 C 196.57228 96.3997 190.32733 90.3216 184.9643 87.62818 C 181.31746 85.79283 172.71278 83.00406 165.39524 81.28789 C 164.60866 81.09721 163.84592 80.73967 163.46455 80.3583 C 162.20126 79.07117 158.8881 76.377745 157.8155 75.73418 C 156.29001 74.85226 154.0733 74.18486 151.21302 73.75582 C 149.90206 73.56514 148.68644 73.35062 148.51959 73.302945 C 148.35274 73.23144 147.37548 73.136095 146.37438 73.06459 C 142.8467 72.8024 135.21929 71.96815 133.09792 71.61061 C 130.02312 71.110064 126.18558 70.03746 122.3242 68.65499 C 118.62967 67.34403 117.41405 67.20102 116.43679 67.96376 C 115.45953 68.7265 115.55487 70.56184 116.77049 73.684315 C 118.72502 78.71364 119.72611 80.38214 123.0631 84.14817 C 124.70777 86.00735 124.82694 86.19804 124.46941 86.57941 C 123.3968 87.77119 116.22227 89.03448 109.11925 89.249 C 105.11485 89.39201 100.91978 89.94023 100.0617 90.46462 C 99.94252 90.55996 99.84717 91.13202 99.84717 91.75174 C 99.84717 93.13421 100.37156 93.89695 103.06499 96.61422 C 105.5439 99.09313 109.26226 101.83423 112.4324 103.52656 C 113.86254 104.2893 115.53104 105.26656 116.15076 105.71944 L 117.2472 106.50602 L 115.29268 109.08027 C 112.21788 113.13233 108.42801 115.87343 103.01732 117.9948 L 100.56224 118.94823 L 98.7269 118.47152 C 96.48635 117.87563 96.12881 117.87563 93.88826 118.47152 C 91.93374 118.9959 91.12332 119.5918 90.12223 121.3318 C 89.62168 122.18988 89.47866 122.71427 89.47866 123.83454 C 89.5025 126.40879 91.05182 130.12716 93.29237 133.01127 C 95.29456 135.58552 96.77237 137.25402 97.51128 137.82607 C 98.56005 138.63649 100.60992 139.58991 101.94471 139.92361 C 102.56444 140.09046 102.94581 140.30498 102.94581 140.54334 C 102.94581 141.73512 105.99677 145.19129 107.71294 145.9302 C 108.71404 146.35924 109.33377 146.38307 116.65131 146.3354 L 124.51708 146.31157 L 131.31024 148.59979 C 139.41437 151.36473 143.41876 152.43733 146.73191 152.8187 C 148.20973 152.98555 149.18699 153.20007 149.18699 153.36692 C 149.18699 153.50994 148.97247 154.86857 148.71027 156.37022 C 148.44808 157.87186 148.23356 159.49269 148.23356 159.9694 C 148.23356 160.54146 148.06671 160.9705 147.70918 161.28036 C 146.61274 162.25762 142.53684 167.59681 141.60725 169.2653 C 141.08286 170.24257 140.0341 172.57846 139.29519 174.48532 C 138.55628 176.39217 137.91272 177.96532 137.88889 177.98916 C 137.86505 178.013 136.33957 176.96422 134.52806 175.65326 C 128.97435 171.6727 126.4716 170.31408 122.9916 169.36065 C 122.2527 169.16996 120.2505 168.64558 118.53433 168.1927 C 116.79433 167.73982 114.69679 167.09626 113.88638 166.76256 C 113.05213 166.42886 111.28829 165.7853 109.97733 165.30859 C 108.66637 164.8557 106.37814 163.75927 104.90033 162.92502 C 101.68252 161.06584 95.62826 156.41789 92.67264 153.50994 C 90.40825 151.29322 89.43099 150.79267 88.33455 151.29322 C 87.97702 151.46007 84.97372 151.26938 78.37125 150.6735 L 68.932325 149.83924 L 67.883556 150.29212 C 67.3115 150.55431 66.42958 151.12637 65.95287 151.57925 L 65.04711 152.36582 L 65.04711 154.36802 C 65.04711 155.44062 65.16629 156.41789 65.28547 156.4894 C 65.78602 156.79926 65.523826 157.32364 64.83259 157.32364 C 64.47506 157.32364 63.879165 157.53816 63.52163 157.82419 C 62.92574 158.27707 62.9019 158.42008 62.9019 160.39844 C 62.9019 162.3768 62.949574 162.54365 63.64081 163.42557 C 64.02218 163.94995 65.02328 164.99872 65.83369 165.7853 C 67.6452 167.57297 76.8696 174.6045 78.08522 175.15271 C 78.82412 175.48641 79.77755 175.55792 83.40057 175.55792 C 87.59565 175.55792 87.90551 175.58176 89.95538 176.24915 C 91.14716 176.63053 92.31511 177.0119 92.5773 177.13107 C 93.81675 177.60779 94.93703 177.8223 97.60662 178.06066 C 103.18417 178.56121 102.70745 178.0845 108.23733 188.66753 C 112.45624 196.70015 115.1735 201.3481 117.08036 203.63633 L 118.00995 204.78044 L 116.03159 204.63742 C 113.505 204.44674 111.71733 204.11304 110.47788 203.56482 C 107.85596 202.46838 103.85156 202.37304 99.87101 203.32646 C 96.79621 204.06537 95.81895 204.70893 91.93374 208.5703 C 90.02688 210.47716 88.09619 212.33634 87.64332 212.67004 C 85.68879 214.1717 80.6118 218.6528 77.51316 221.6084 C 75.10576 223.8728 74.10466 224.96924 74.10466 225.3506 C 74.10466 226.11335 75.74932 228.37774 76.79809 229.04514 C 77.63234 229.59336 77.65618 229.64103 77.29864 230.04624 C 76.46439 230.952 77.537 233.38323 79.11015 234.19364 C 79.65837 234.47967 80.87399 234.55118 85.35509 234.55118 C 91.71921 234.52734 94.29347 234.33665 99.96635 233.45474 C 106.2113 232.47747 106.545 232.21528 111.90802 223.8728 C 113.07596 222.0613 114.64912 220.7265 115.62638 220.7265 C 116.48446 220.7265 133.40778 225.66047 134.59956 226.25637 C 134.9571 226.44705 135.12395 226.73308 135.12395 227.18596 C 135.12395 227.56733 135.21929 228.0917 135.33847 228.40158 C 135.45765 228.71144 135.696 229.59336 135.86285 230.37994 C 136.0297 231.1665 136.22039 231.90542 136.31573 232.04843 C 136.6971 232.59665 137.98423 236.72022 137.98423 237.38762 C 137.98423 237.79283 137.7697 238.67474 137.50751 239.36598 C 137.24532 240.0572 136.9593 241.1775 136.88779 241.86872 C 136.74477 242.989 136.79244 243.17968 137.38834 243.89475 C 138.27026 244.94352 138.86615 245.2534 140.05793 245.27722 C 140.60615 245.27722 141.13053 245.42024 141.24971 245.56325 C 141.46423 245.92078 143.94314 252.57093 144.11 253.26217 C 144.20533 253.6912 143.99081 253.8104 142.46533 254.19176 C 133.86066 256.40847 130.02312 258.363 127.85407 261.65232 C 127.35352 262.41506 126.51928 263.6545 126.01873 264.39342 C 124.80311 266.20493 124.04037 267.9211 123.42064 270.20932 C 123.13461 271.23425 122.68173 272.83124 122.3957 273.76083 C 121.919 275.38166 121.89516 275.8822 121.919 289.3732 C 121.919 301.2195 121.96667 303.60308 122.30036 305.2239 C 122.87242 308.06035 123.51598 309.53816 125.20831 311.7787 C 127.16284 314.40063 129.37956 316.23598 132.81189 318.07132 C 137.6267 320.62174 139.86724 323.05298 139.89108 325.72257 C 139.89108 326.77134 137.93656 330.94258 136.9593 332.0152 C 135.91053 333.1593 134.52806 333.51683 124.3979 335.376 C 120.48885 336.0911 117.22337 336.94916 115.12583 337.80725 C 111.19295 339.40424 104.32828 345.55384 103.04115 348.62864 C 102.82663 349.1292 102.56444 350.65467 102.4691 351.98947 L 102.30225 354.39687 L 97.36827 362.2388 C 94.67484 366.55305 92.45812 370.29525 92.45812 370.5813 C 92.45812 370.84347 92.76798 371.41553 93.14935 371.82073 C 93.81675 372.5358 93.9121 372.55964 95.91429 372.55964 L 97.96416 372.55964 L 98.29786 373.3462 C 98.4647 373.77526 98.89375 374.2758 99.25128 374.4188 C 100.15704 374.82403 110.74007 374.77636 113.67186 374.37115 C 119.53543 373.51307 121.89516 370.9865 125.20831 362.07195 C 125.68503 360.80866 126.35243 359.54537 126.82914 358.99715 C 129.30805 356.1607 131.76312 352.7522 133.66997 349.5344 L 134.67107 347.84206 L 137.93656 346.2689 C 141.41656 344.6004 143.80013 343.7185 144.77739 343.7185 C 145.37328 343.7185 153.76343 340.7867 157.02892 339.42807 C 162.67797 337.116 164.79934 334.7563 164.32263 331.39546 C 163.9651 328.9404 161.81989 323.05298 161.10482 322.62393 C 160.43742 322.21873 161.43852 318.97708 162.58263 317.80913 C 164.34647 315.99762 164.65633 315.87844 168.73223 315.75926 C 173.90457 315.5924 176.28813 314.9727 182.98595 312.06474 C 184.17773 311.54035 185.17883 311.20665 185.17883 311.302 C 185.17883 312.25542 189.3024 319.57297 191.1139 321.8612 C 194.06953 325.57956 200.17146 331.20477 203.65147 333.4215 C 206.2734 335.1138 211.04052 336.99684 217.11861 338.73684 C 218.50108 339.14205 220.50328 339.73794 221.55205 340.0478 L 223.50657 340.6437 L 223.67342 344.14753 C 223.84027 347.96124 223.3874 353.0144 222.67232 355.2788 C 222.02876 357.3048 220.40794 360.95167 219.76437 361.80976 C 219.43067 362.2388 216.046 365.4566 212.25614 368.9366 C 208.44243 372.41662 204.03284 376.56403 202.43585 378.1372 C 199.9331 380.66376 199.50406 381.212 199.05119 382.45144 C 198.35995 384.38213 197.97858 386.95638 198.16927 388.4342 L 198.31228 389.6498 L 193.54515 397.2534 C 190.8994 401.4246 188.75418 405.0953 188.75418 405.3575 C 188.75418 405.64353 189.06404 406.2156 189.44541 406.6208 C 190.11281 407.33586 190.20816 407.3597 192.21035 407.3597 L 194.26022 407.3597 L 194.59392 408.1463 C 194.76077 408.5753 195.1898 409.07587 195.54734 409.2189 C 196.4531 409.6241 207.03613 409.5764 209.96792 409.1712 C 215.8315 408.31313 218.19122 405.78655 221.50438 396.89585 C 222.21945 394.989 222.55314 394.48844 224.5315 392.22406 C 230.7526 385.19254 231.3485 383.88158 231.6822 376.85006 C 231.96823 370.77196 232.30193 367.07744 232.70714 365.33743 C 233.51755 361.9051 235.47207 359.11633 240.66825 354.087 C 245.7214 349.17686 250.17867 344.3144 250.8699 342.95575 C 251.32278 342.05 251.44196 341.4541 251.44196 339.92862 C 251.44196 337.52122 251.0606 336.4486 248.10497 330.72806 C 246.0551 326.72367 245.9121 326.36613 246.03127 325.3412 C 246.1266 324.55462 246.93702 322.76695 248.67703 319.3823 C 251.58498 313.75707 252.5384 311.39734 253.70635 306.98774 C 254.51676 303.86527 254.5406 303.69842 254.5406 299.1458 C 254.5406 294.9984 254.0162 286.79894 253.34882 280.6255 C 253.2058 279.43372 253.11046 277.64605 253.11046 276.69262 C 253.11046 275.04796 253.15813 274.8811 253.82553 274.23755 L 254.5406 273.5463 L 254.5406 276.76413 C 254.5406 281.60277 255.49402 284.177 258.33047 287.01346 C 260.92855 289.61155 263.81267 290.80333 267.60254 290.80333 C 273.34693 290.80333 278.0664 287.39483 279.92557 281.91263 C 280.4023 280.50633 280.52147 279.6244 280.52147 277.8844 C 280.52147 274.09453 279.3297 271.21042 276.7316 268.61233 C 274.22885 266.1096 271.20172 264.82246 267.8409 264.82246 Z M 266.4346 272.56905 L 266.4346 272.56905 C 269.55706 273.2126 270.15295 273.64166 270.96337 275.78686 C 272.29816 279.31454 270.62967 281.98414 267.05432 281.98414 C 265.19514 281.98414 263.97952 281.31674 263.00226 279.7436 C 262.33486 278.64714 262.2872 278.38495 262.21568 275.97755 C 262.0965 272.3307 262.14417 272.2115 263.59815 272.2115 C 264.2417 272.2115 265.505 272.37837 266.4346 272.56905 Z"
                        fill="black"/>
               </g>
            </g>
            <g>
               <path d="M 121.41845 70.8002 C 129.8086 73.25527 132.59737 73.80349 144.01465 75.09062 C 148.61493 75.615 152.95302 76.18706 153.62042 76.40158 C 155.31275 76.90213 156.93358 77.641035 157.29111 78.07008 C 157.45796 78.26076 157.69632 78.42761 157.8155 78.42761 C 158.17303 78.42761 159.484 79.50022 161.24783 81.21638 C 162.10591 82.0268 162.964 82.74187 163.20235 82.81337 C 163.41688 82.88488 165.49058 83.4331 167.7788 84.02899 C 178.6002 86.88927 182.93828 88.5101 187.01418 91.20352 C 189.65994 92.94353 195.47584 98.59258 198.1216 102.02491 C 199.1942 103.40738 200.88653 105.6956 201.8638 107.12574 C 202.84105 108.55588 204.10434 110.24822 204.6764 110.89178 C 205.22462 111.53534 205.6775 112.13123 205.6775 112.22658 C 205.6775 112.32192 206.22572 112.94165 206.89312 113.58521 C 207.56052 114.2526 208.3471 115.03918 208.63312 115.34905 C 208.8953 115.65891 209.94408 116.73151 210.92134 117.73261 C 214.40135 121.28413 220.21725 128.38715 222.863 132.34387 C 224.7222 135.08497 227.3441 140.1858 228.41672 143.06992 C 229.37014 145.62033 230.3474 149.26719 230.6811 151.4839 C 230.80028 152.27048 231.18165 154.63021 231.51535 156.72775 C 232.0874 160.3031 233.06467 167.42996 233.56522 171.74422 C 233.6844 172.79298 233.89892 174.17545 234.04193 174.84285 C 234.59015 177.56012 235.54358 187.09438 235.73426 191.52781 C 235.8296 194.14973 235.99646 198.17796 236.0918 200.46618 C 236.354 207.04483 235.80577 219.6539 235.04303 225.25527 C 234.47097 229.37884 234.39947 230.59446 234.4233 236.21967 L 234.44714 242.53612 L 235.18604 244.94352 C 236.497 249.1386 238.1655 252.33258 245.03017 263.7737 C 246.84168 266.82466 248.41483 269.49425 248.51018 269.7326 C 248.58168 269.9948 248.77237 270.257 248.8677 270.3285 C 249.1299 270.49535 250.44087 275.59618 250.7269 277.57454 C 250.84607 278.3611 251.0606 279.6959 251.2036 280.554 C 251.75183 283.7718 251.89484 285.39264 252.15703 292.1143 C 252.5384 301.19568 252.44306 303.46006 251.4658 307.3691 C 251.03676 309.06144 250.5362 310.7061 250.36936 310.9683 C 250.17867 311.25432 249.4636 312.80364 248.7247 314.42447 C 248.00963 316.0453 246.60332 318.95324 245.62606 320.88393 C 243.0518 325.8656 243.07565 326.29463 246.55565 332.1582 C 249.08223 336.4486 250.0595 339.92862 249.29675 341.9308 C 249.15374 342.28835 246.22195 345.4585 242.74195 348.98617 C 234.32796 357.54317 232.25426 360.21277 231.18165 363.74045 C 230.46658 366.07634 229.96603 370.4621 229.7515 375.89663 C 229.46549 383.4287 229.0126 384.45363 223.33972 390.62707 L 221.3137 392.81995 L 220.00273 392.81995 C 218.2389 392.81995 209.63422 392.1764 207.22682 391.8665 C 204.62873 391.509 203.38928 391.0561 201.88763 389.88816 C 200.29064 388.6487 200.02845 387.9098 200.4575 385.6931 C 200.7912 383.85774 201.31557 382.6898 202.38818 381.47418 C 203.55612 380.1632 212.3038 372.0591 213.47176 371.22484 C 214.75888 370.29525 221.6474 363.5736 221.6474 363.21606 C 221.6474 363.07305 222.1956 361.9051 222.83917 360.61797 C 223.67342 358.9733 224.2693 357.32865 224.81753 355.2311 C 225.58027 352.18015 225.58027 352.18015 225.58027 346.0544 C 225.55644 340.83438 225.50877 339.8571 225.1989 339.54725 C 224.98438 339.33273 221.83807 338.1648 218.16738 336.94916 C 205.24846 332.6349 204.39037 332.18203 198.43146 326.676 C 192.18652 320.9316 191.18542 319.73982 189.13555 315.5924 C 187.51473 312.3746 186.70431 310.2294 186.39445 308.3702 C 185.8939 305.43842 185.41719 296.5239 185.41719 289.61155 C 185.39335 278.6948 184.94048 276.64495 181.77033 273.45097 C 179.72047 271.37727 178.45718 270.8052 177.78978 271.61562 C 177.52759 271.9255 177.7421 272.23535 179.05307 273.5463 C 179.91115 274.42823 181.10293 275.85837 181.72266 276.7403 C 183.34349 279.10002 183.51034 280.43482 183.51034 292.28114 C 183.51034 297.50115 183.46266 301.76773 183.415 301.76773 C 183.34349 301.76773 182.67609 301.50554 181.91335 301.19568 C 181.1506 300.8858 179.88732 300.38526 179.10074 300.0754 C 177.19389 299.36033 173.71388 297.5965 172.68895 296.8099 C 172.21223 296.45238 171.33031 295.785 170.73442 295.3321 C 170.1147 294.87923 168.75606 293.49676 167.7073 292.28114 C 166.56318 290.94634 165.58592 290.01675 165.20455 289.9214 C 164.87085 289.8499 163.98893 289.89757 163.25003 290.0406 C 161.48619 290.42196 161.10482 290.39812 160.58043 289.9214 C 159.9607 289.3732 160.03221 289.13483 161.224 287.82387 C 162.67797 286.20305 162.7018 285.32113 161.27167 283.17592 C 160.69961 282.31784 159.12646 279.52906 157.76782 276.97865 C 156.4092 274.42823 154.76453 271.3296 154.09713 270.09014 L 152.88151 267.8496 L 151.45137 267.42055 C 150.6648 267.1822 149.61603 266.96767 149.13932 266.96767 C 148.23356 266.96767 147.5185 266.49096 147.5185 265.87123 C 147.5185 265.70438 147.9952 264.8463 148.5911 263.96438 C 149.94973 261.98602 149.94973 261.46163 148.5911 258.67286 C 147.39931 256.24162 145.73082 252.1419 144.15766 247.77997 C 142.91821 244.3238 142.25081 243.53722 140.7015 243.75174 C 139.89108 243.87092 139.62889 243.77558 138.98533 243.2512 C 137.9604 242.3931 137.98423 241.5112 139.033 239.93803 C 140.62999 237.53063 140.62999 237.36378 138.93765 232.04843 C 138.12724 229.47418 137.50751 227.32897 137.57902 227.25746 C 137.65053 227.18596 140.01026 227.78185 142.79903 228.6161 C 147.44698 229.97473 148.11438 230.0939 150.6648 230.21309 C 152.69083 230.2846 153.64426 230.21309 154.19248 229.99856 C 154.57385 229.80788 154.90755 229.59336 154.90755 229.49802 C 154.90755 229.37884 155.05056 229.30733 155.2174 229.30733 C 155.38426 229.30733 155.69412 229.11665 155.90864 228.8783 C 156.12316 228.66377 156.69522 228.13938 157.19577 227.758 C 157.69632 227.3528 159.05495 226.16102 160.19906 225.06458 C 161.367 223.96814 162.77331 222.8717 163.32153 222.63335 C 163.89359 222.395 165.80044 222.03745 167.7788 221.7991 C 174.5958 221.01252 178.86238 218.93882 184.70212 213.48045 C 185.03582 213.19443 186.60897 211.88346 188.2298 210.62017 C 191.25692 208.18894 191.54295 207.7599 190.73254 206.85414 C 190.51802 206.61578 190.11281 206.4251 189.85062 206.4251 C 189.54076 206.4251 187.9676 207.6884 185.8939 209.52373 C 179.12457 215.60183 177.76594 216.67443 175.31087 217.86621 C 173.3325 218.81964 171.47333 219.29635 168.49387 219.5347 C 165.51441 219.7969 162.94016 220.3213 162.2251 220.798 C 161.93906 220.98869 160.2229 222.41883 158.43522 223.96814 C 155.09823 226.8761 153.57275 227.9487 152.4763 228.23473 C 151.61822 228.44925 146.87493 227.5435 142.98972 226.42322 C 141.22588 225.92267 135.86285 224.37335 131.07189 223.01472 C 126.28092 221.63225 121.20392 220.1306 119.77378 219.67772 C 118.36748 219.201 116.81816 218.77197 116.38912 218.67663 C 115.29268 218.48594 113.79103 219.058 111.55048 220.5358 C 108.64253 222.4665 108.83322 222.395 105.71075 222.15663 C 102.73129 221.89444 99.4658 221.27471 97.63046 220.55964 C 95.53292 219.77307 90.78962 214.9106 90.78962 213.5758 C 90.78962 212.88456 92.76798 210.21497 94.55566 208.52264 C 96.74854 206.4251 98.44087 205.44784 100.8006 204.97112 C 103.8754 204.32756 106.18746 204.39907 108.92856 205.20948 C 113.98172 206.73496 114.41076 206.78263 124.04037 206.78263 C 128.90284 206.78263 133.33627 206.6873 133.93217 206.59195 L 135.00477 206.40126 L 136.79244 202.56372 C 140.79684 193.93521 143.03739 190.40754 146.9226 186.49849 C 149.7352 183.66204 151.64206 182.25574 158.79276 177.72697 C 159.98454 176.96422 160.17523 176.77354 160.10372 176.20148 C 159.9607 175.0097 159.19796 175.24806 155.31275 177.72697 C 143.65711 185.1637 141.13053 187.88096 136.41107 198.05878 L 134.52806 202.13468 L 134.45655 200.22783 C 134.3612 197.82043 135.05244 194.69795 137.38834 186.87986 C 141.20204 174.19929 142.75136 170.33791 145.46862 166.97708 C 146.87493 165.23708 150.02124 162.0431 153.19138 159.15899 C 154.24015 158.18173 154.43083 157.8957 154.43083 157.18063 C 154.43083 156.37022 154.38316 156.32254 153.8111 156.46556 C 153.45357 156.5609 152.57165 157.1568 151.80891 157.82419 C 151.07 158.46775 150.4026 158.99214 150.3311 158.99214 C 150.28343 158.99214 150.45028 157.6335 150.71247 155.965 L 151.21302 152.96172 L 155.02672 152.19897 C 160.05605 151.17404 160.74728 150.98336 161.51002 150.29212 C 162.15359 149.7439 162.15359 149.72007 161.65304 149.69623 C 161.367 149.69623 161.05715 149.57705 160.9618 149.43404 C 160.77112 149.10034 159.84153 149.21952 155.38426 150.1491 C 151.80891 150.91185 151.57055 150.93569 148.04288 150.79267 C 143.56177 150.60199 142.25081 150.26829 132.69271 147.0743 L 125.61352 144.69074 L 117.19953 144.54773 L 108.78555 144.40471 L 107.71294 143.71348 C 106.23513 142.80773 105.13869 141.5921 104.97184 140.75786 C 104.85266 140.16197 104.97184 139.8521 105.71075 138.99402 C 107.02171 137.49237 108.18965 137.06333 111.12144 137.06333 C 113.19514 137.06333 113.86254 137.15867 115.65022 137.7784 C 117.41405 138.3743 118.12912 138.49347 120.01214 138.49347 L 122.27653 138.49347 L 123.44448 137.39703 C 124.46941 136.4436 124.63626 136.15758 124.63626 135.371 C 124.63626 134.82278 124.51708 134.44141 124.35023 134.44141 C 124.20722 134.44141 123.51598 134.9658 122.82475 135.6332 L 121.56146 136.82498 L 119.82146 136.82498 C 118.00995 136.82498 116.26994 136.41977 115.29268 135.7762 C 114.60145 135.32333 109.6198 134.87045 108.40418 135.13264 C 107.18856 135.41867 105.80609 136.25292 104.80499 137.32552 C 103.99458 138.1836 103.80389 138.25511 102.68362 138.25511 C 101.06279 138.25511 99.84717 137.65922 98.17868 136.06223 C 93.93593 131.9625 91.48086 127.98195 91.31401 124.85947 C 91.21867 123.45317 91.29017 123.11947 91.83839 122.18988 C 92.36278 121.30796 92.69648 121.04577 93.81675 120.61673 C 95.93813 119.83015 96.36717 119.80631 98.60772 120.4022 L 100.72909 120.95043 L 103.68472 119.78248 C 111.28829 116.82686 112.83761 115.61124 119.20173 107.34027 C 120.08365 106.21999 121.2516 105.3619 121.94283 105.3619 C 122.2527 105.3619 122.84858 105.52876 123.22996 105.74328 C 123.63516 105.93396 125.82804 106.57752 128.11627 107.17342 C 131.2149 107.95999 132.71655 108.22218 134.07518 108.22218 C 135.76751 108.22218 136.00587 108.15068 138.65163 106.83972 L 141.4404 105.48108 L 145.2541 105.55259 C 148.63877 105.6241 149.23466 105.57643 150.49795 105.12355 C 153.76343 103.97944 154.78837 103.90793 156.26618 104.78985 C 157.57714 105.55259 158.33988 105.48108 158.43522 104.59916 C 158.50673 104.05094 158.33988 103.83642 157.36262 103.2167 C 155.26508 101.8819 154.69302 101.85806 151.68973 102.883 C 149.09164 103.78875 149.04397 103.78875 144.68205 103.8841 L 140.27245 103.97944 L 138.3656 104.86136 C 134.3612 106.6967 133.2171 106.72054 128.02092 105.02821 C 124.08804 103.74108 121.68064 103.40738 120.79872 104.02711 C 119.84529 104.69451 118.86803 104.47999 115.4357 102.85916 C 110.64473 100.59477 108.59486 99.11696 104.92417 95.37476 C 103.18417 93.61093 101.77786 92.13312 101.82553 92.10928 C 101.84937 92.08544 104.23294 91.89476 107.11705 91.68024 C 114.38693 91.13202 119.44009 90.60763 121.53762 90.20243 C 122.89626 89.9164 124.51708 89.249 128.21161 87.38982 C 133.2171 84.91091 135.38614 84.14817 137.60286 84.14817 C 140.12944 84.14817 143.80013 85.24461 150.49795 87.96187 C 152.4763 88.74845 154.38316 89.46352 154.76453 89.53503 C 156.2185 89.77339 157.52947 90.70298 158.12536 91.84709 C 158.76892 93.13421 159.91303 92.84818 159.91303 91.39421 C 159.91303 89.5827 159.12646 88.86763 155.86097 87.62818 C 154.88371 87.2468 153.85878 86.86543 153.59658 86.77009 C 153.3344 86.65091 152.3333 86.34105 151.37987 86.05502 C 150.4026 85.76899 149.06781 85.29228 148.40041 85.00625 C 145.39712 83.64762 140.96369 82.47967 138.1034 82.31282 C 135.17162 82.14597 133.64614 82.50351 130.57134 84.02899 C 129.2127 84.72023 128.02092 85.14927 127.42503 85.1731 C 126.56695 85.22077 126.42393 85.14927 126.01873 84.38653 C 125.75653 83.93365 124.9938 82.95639 124.30256 82.24132 C 122.13351 79.92926 120.89406 78.33227 120.22666 77.02131 C 119.67844 75.90103 117.48556 70.061295 117.48556 69.679925 C 117.48556 69.60842 117.67625 69.63225 117.9146 69.7276 C 118.12912 69.82294 119.72611 70.29965 121.41845 70.8002 Z"/>
            </g>
            <g>
               <g  id="feature-0">
                  <path
                        d="M 73.62795 152.17514 C 83.13838 153.03322 86.38003 153.34309 86.47537 153.4146 C 86.52304 153.46226 86.21318 153.91514 85.80797 154.4157 C 85.40276 154.94008 85.06907 155.44062 85.06907 155.53597 C 85.06907 155.65515 84.80687 156.06035 84.52085 156.46556 C 83.16221 158.25323 82.47098 162.61516 83.16221 164.95105 C 83.30523 165.40393 83.51975 166.47653 83.63893 167.33462 C 83.73427 168.1927 84.06797 169.88503 84.37783 171.10065 C 84.80687 172.81682 84.85454 173.36504 84.61619 173.6034 C 84.44934 173.77025 83.44824 173.88942 81.77974 173.88942 C 79.32467 173.88942 79.15782 173.86559 77.75152 173.10285 C 76.94111 172.64997 75.03425 171.2675 73.50877 170.00421 C 71.98329 168.71709 70.26712 167.33462 69.74274 166.90558 C 69.19452 166.47653 67.78821 165.26092 66.6441 164.18831 L 64.54656 162.25762 L 64.61807 160.80365 L 64.68958 159.34967 L 72.31699 159.15899 C 76.51206 159.06364 80.18276 158.87296 80.49262 158.75378 C 80.92166 158.5631 81.04084 158.34857 80.96933 157.84803 L 80.89783 157.20446 L 74.55754 157.13296 C 67.40684 157.06145 67.85972 157.18063 67.09698 155.13076 C 66.52492 153.5576 66.6441 153.03322 67.78821 152.38966 C 68.90849 151.76993 68.83698 151.76993 73.62795 152.17514 Z"
                        fill="#ff0000"/>
               </g>
            </g>
            <g>
               <path d="M 90.71812 154.20117 C 91.33784 154.70172 92.19593 155.46446 92.5773 155.8935 C 92.9825 156.2987 93.9836 157.20446 94.84169 157.87186 C 95.69977 158.53926 96.9869 159.6357 97.70196 160.32693 C 101.25348 163.75927 109.85815 167.95435 117.36638 169.95654 C 121.70447 171.10065 124.9938 172.38778 127.61572 173.96093 C 131.50093 176.29683 136.12505 179.3478 136.74477 180.03902 L 137.293 180.63492 L 135.83902 185.35438 C 132.66888 195.55604 132.6212 195.74672 132.6212 200.6092 L 132.6212 204.6851 L 129.06969 204.85194 C 127.11517 204.92345 124.54092 204.99496 123.37297 204.99496 L 121.22776 204.99496 L 120.27433 203.97003 C 117.29488 200.77605 113.05213 194.31658 111.07377 190.05 C 107.6891 182.61328 105.9491 179.65765 103.97074 177.79847 C 102.75512 176.65436 100.87211 176.15381 96.86772 175.9393 C 95.15155 175.84395 93.62607 175.6771 93.48305 175.6056 C 93.36387 175.53408 92.41045 175.24806 91.36168 174.96203 C 87.97702 174.05627 87.07126 173.41271 86.52304 171.6012 C 86.35619 171.02915 86.04633 170.05188 85.85564 169.40832 C 85.28359 167.54914 84.78304 164.7127 84.66386 162.73434 C 84.56852 161.28036 84.66386 160.5653 85.06907 159.3735 C 85.35509 158.51542 85.73646 157.70501 85.92715 157.562 C 86.11783 157.39515 86.26085 157.13296 86.26085 156.9661 C 86.26085 156.37022 88.88277 153.29542 89.40716 153.27158 C 89.47866 153.27158 90.07455 153.67679 90.71812 154.20117 Z"/>
            </g>
            <g>
               <g  id="feature-1">
                  <path
                        d="M 90.31291 216.5791 C 93.88826 221.48923 96.24799 222.7287 104.18526 223.96814 C 106.44965 224.30184 108.3565 224.63554 108.40418 224.6832 C 108.54719 224.82623 106.64034 228.16322 105.90143 229.04514 C 104.73348 230.40377 103.32718 230.952 99.41813 231.59555 C 94.29347 232.4298 91.52853 232.64432 85.49811 232.64432 C 80.37344 232.64432 80.03974 232.6205 79.58686 232.1676 C 79.32467 231.90542 79.11015 231.54788 79.11015 231.3572 C 79.11015 231.07117 82.20879 228.11555 88.62058 222.32348 C 89.55017 221.48923 89.62168 221.32238 89.38332 220.82184 C 88.93044 219.7969 88.19154 220.10677 85.80797 222.2758 C 84.56852 223.3961 82.70934 225.11225 81.63673 226.06568 L 79.70604 227.82952 L 78.63344 227.63883 C 77.84686 227.49582 77.39398 227.23363 76.91727 226.66157 C 76.5359 226.23253 76.24987 225.75582 76.24987 225.6128 C 76.24987 225.32678 82.63783 219.34403 85.78414 216.69827 C 87.02359 215.6495 88.26304 214.79141 88.52524 214.79141 C 88.85894 214.79141 89.43099 215.36347 90.31291 216.5791 Z"
                        fill="#ff0000"/>
               </g>
            </g>
            <g>
               <path d="M 282.83353 249.78216 C 283.38175 250.04435 284.66887 250.78326 285.6938 251.42682 C 286.71874 252.07038 288.07737 252.73778 288.72093 252.8808 C 289.34066 253.04765 290.60395 253.5482 291.5097 254.00107 C 293.34505 254.90683 293.82176 255.50272 294.5845 257.81478 C 294.87053 258.6252 295.34725 259.53095 295.68095 259.8408 C 296.70588 260.79424 298.3267 263.41616 298.82725 264.94164 C 299.3278 266.37178 299.75684 268.87452 299.54232 268.87452 C 299.4708 268.87452 298.0645 268.1833 296.41985 267.34904 C 292.7015 265.4422 290.67546 264.94164 287.71984 265.15616 C 281.3557 265.63287 280.18777 265.60904 279.18667 265.1085 C 277.9472 264.46493 276.89845 263.29698 274.82474 260.19834 C 273.3946 258.07697 273.01323 257.67176 272.5127 257.67176 C 271.96446 257.67176 270.8442 258.31533 267.6502 260.4367 C 266.26774 261.3663 262.7639 264.89397 262.0965 266.03808 C 261.07157 267.82575 260.6187 270.5907 260.6187 275.31015 C 260.6187 279.8866 260.66636 280.12495 262.23952 281.8888 C 264.59925 284.60606 269.53323 284.58222 271.9168 281.86496 C 273.20392 280.38715 273.44228 279.5529 273.27543 277.1455 C 273.10858 274.61892 272.7272 273.71316 271.22556 272.37837 C 270.1768 271.44878 269.93843 271.35343 267.74555 270.97206 C 266.45843 270.7337 264.7661 270.49535 264.00335 270.4 C 262.4302 270.23316 262.40637 270.16165 263.59815 268.04028 L 264.26555 266.8485 L 267.3165 266.8485 C 270.36748 266.8485 270.41515 266.8485 272.20282 267.70658 C 274.63406 268.87452 276.4694 270.70987 277.6135 273.1411 C 278.37626 274.7381 278.49544 275.19097 278.56694 277.24084 C 278.7338 281.3644 277.35132 284.34387 274.10967 286.8466 C 272.1313 288.3721 269.9861 288.968 266.9828 288.8488 C 264.9091 288.7773 264.45623 288.68196 262.85924 287.89538 C 260.428 286.75127 258.59266 284.91592 257.4247 282.4847 L 256.56663 280.67317 L 256.56663 275.6677 C 256.56663 270.4715 256.8765 267.75425 257.6154 266.3241 C 258.23513 265.13233 261.88198 260.60355 263.21678 259.41177 C 264.3609 258.363 270.9872 253.85806 271.36857 253.85806 C 271.4639 253.85806 272.56036 253.19066 273.7998 252.38025 C 277.58968 249.949 278.92448 249.32928 280.4738 249.32928 C 281.2842 249.32928 282.23763 249.51997 282.83353 249.78216 Z"/>
            </g>
            <g>
               <path d="M 146.63657 259.14958 C 147.2563 260.5082 147.75685 261.86684 147.75685 262.1767 C 147.75685 262.48657 147.37548 263.27314 146.89876 263.94054 C 146.35054 264.70328 145.96917 265.5137 145.9215 266.13342 C 145.82616 267.01534 145.87383 267.13452 146.82726 267.8496 C 147.70918 268.517 148.04288 268.63617 149.21082 268.63617 C 150.7363 268.63617 150.6648 268.5885 151.80891 270.9959 C 152.0711 271.56795 152.50014 272.30686 152.7385 272.6644 C 152.97686 272.9981 154.00179 274.85727 154.97905 276.76413 C 155.95631 278.67098 157.41029 281.34057 158.2207 282.67537 C 160.10372 285.774 160.24673 286.4414 159.2218 287.7047 C 158.64974 288.4436 158.4829 288.8488 158.4829 289.7069 C 158.4829 290.68415 158.5544 290.851 159.36481 291.39922 C 160.03221 291.8521 160.5566 291.9951 161.51002 291.9951 C 162.17742 291.9951 162.82098 291.87593 162.8925 291.75676 C 162.964 291.61374 163.3692 291.5184 163.77441 291.5184 C 164.34647 291.5184 164.704 291.75676 165.3714 292.5195 C 169.63798 297.4773 172.16456 299.24115 180.65006 303.10253 C 181.77033 303.60308 183.12897 304.38966 183.70102 304.8187 L 184.70212 305.6291 L 184.70212 307.46446 L 184.70212 309.27597 L 183.31965 309.84802 C 174.73881 313.4472 173.76155 313.68556 167.87414 313.9001 L 163.58373 314.0431 L 162.58263 314.8535 C 160.2944 316.6412 158.98344 319.0009 158.79276 321.62284 C 158.67358 322.88613 158.74509 323.31517 159.03111 323.64887 C 159.24564 323.88722 159.627 324.55462 159.8892 325.1505 C 160.15139 325.7464 160.58043 326.50915 160.84262 326.819 C 161.24783 327.3434 162.0344 329.70312 162.41578 331.4908 C 162.79715 333.39765 161.53386 335.13765 158.74509 336.5678 C 155.86097 337.99793 146.89876 341.2634 144.30068 341.81164 C 142.48917 342.16917 135.86285 345.02945 134.09902 346.1974 C 132.97874 346.96014 132.57353 347.413 131.5486 349.2722 C 130.35682 351.39357 127.18667 355.99386 125.89955 357.47167 L 125.23215 358.21057 L 120.46502 357.87687 C 114.1009 357.44783 109.14308 356.8996 107.99897 356.4944 C 107.47458 356.3037 106.40198 355.684 105.6154 355.11194 C 104.35211 354.2062 104.16143 353.96783 104.01841 353.10974 C 103.85156 351.8703 103.99458 351.17905 104.99568 349.0815 C 105.92527 347.0793 107.09321 345.83987 110.83541 342.8604 C 115.38802 339.21355 116.81816 338.713 129.11736 336.4248 L 136.57792 335.0423 L 137.93656 333.94587 C 138.98533 333.11162 139.50971 332.44423 140.15327 331.13326 C 141.67875 328.05846 141.89328 327.2004 141.67875 324.57846 C 141.4404 321.24147 141.08286 320.76475 136.26806 317.61845 C 128.5453 312.54145 126.32859 310.39624 125.35133 307.13076 C 125.20831 306.60637 124.9938 305.9628 124.87462 305.7006 C 124.75544 305.43842 124.54092 303.50774 124.3979 301.4102 C 124.25489 299.31266 124.04037 296.61923 123.92119 295.4513 C 123.46831 291.2562 124.01653 275.69152 124.75544 272.23535 C 125.42284 269.0652 127.4727 265.08465 129.61791 262.79643 C 131.4771 260.81807 135.00477 258.45834 136.84012 258.00546 C 139.08067 257.4334 142.96588 256.766 144.30068 256.74217 L 145.5163 256.71834 L 146.63657 259.14958 Z"/>
            </g>
            <g>
               <path d="M 255.0173 268.3263 C 255.0173 270.23316 254.75512 270.78138 253.34882 271.85398 L 251.96635 272.9266 L 251.7995 272.2592 C 251.728 271.90165 251.32278 270.82905 250.9414 269.87562 C 250.56004 268.89836 250.25018 268.08795 250.25018 268.04028 C 250.25018 267.94493 251.89484 267.80192 253.89704 267.7304 C 254.96964 267.68274 255.0173 267.70658 255.0173 268.3263 Z"/>
            </g>
            <g>
               <g  id="feature-2">
                  <path
                        d="M 104.56663 357.04263 C 106.545 358.5681 108.49952 358.9018 121.82365 360.06975 L 123.659 360.21277 L 123.51598 360.9755 C 123.37297 361.6429 122.53872 363.7643 121.22776 366.69607 C 120.15516 369.10347 117.15186 371.36786 113.69569 372.3928 C 112.38473 372.77416 111.16911 372.89334 106.44965 372.96485 C 100.4669 373.08402 100.08553 373.03635 100.08553 372.0114 C 100.08553 371.4632 100.20471 371.2725 103.94691 365.36127 C 106.99787 360.5703 107.26006 359.80756 105.9491 359.80756 C 105.30554 359.80756 105.01951 360.14126 102.5406 363.9788 C 101.06279 366.26703 99.56115 368.7221 99.20361 369.3895 L 98.53621 370.6528 L 96.70087 370.6528 C 95.69977 370.6528 94.81785 370.55744 94.74634 370.4621 C 94.62716 370.2476 102.34992 357.66235 103.1365 356.7566 C 103.58937 356.2322 103.5417 356.2322 104.56663 357.04263 Z"
                        fill="#ff0000"/>
               </g>
            </g>
            <g>
               <g  id="feature-3">
                  <path
                        d="M 200.8627 391.8427 C 202.84105 393.36817 204.79558 393.70187 218.1197 394.8698 L 219.95506 395.01283 L 219.81204 395.77557 C 219.66903 396.44297 218.83478 398.56434 217.52382 401.49613 C 216.45122 403.90353 213.44792 406.1679 209.99175 407.19285 C 208.6808 407.5742 207.46517 407.6934 202.74571 407.7649 C 196.76296 407.8841 196.3816 407.8364 196.3816 406.8115 C 196.3816 406.26326 196.50077 406.07257 200.24297 400.16133 C 203.29393 395.37036 203.55612 394.6076 202.24516 394.6076 C 201.6016 394.6076 201.31557 394.9413 198.83666 398.77886 C 197.35885 401.0671 195.8572 403.52216 195.49967 404.18956 L 194.83227 405.45285 L 192.99693 405.45285 C 191.99583 405.45285 191.1139 405.3575 191.0424 405.26216 C 190.92323 405.04764 198.64598 392.4624 199.43256 391.55666 C 199.88543 391.03227 199.83776 391.03227 200.8627 391.8427 Z"
                        fill="#ff0000"/>
               </g>
            </g>
            <g>
               <g  id="outline-1">
                  <path
                        d="M 122.18119 109.34246 C 121.2516 109.79534 120.75105 110.17671 120.6557 110.55808 C 120.46502 111.36849 120.94173 111.74986 121.48995 111.24931 C 122.22886 110.58191 122.41954 110.7726 122.53872 112.27425 C 122.61023 113.41836 122.77708 113.87124 123.37297 114.5863 C 124.82694 116.39782 125.8042 116.27864 128.33079 113.91891 C 130.18997 112.20274 131.2864 111.55918 132.38285 111.55918 C 133.05025 111.55918 133.19326 112.15507 132.69271 113.06082 C 132.2875 113.82356 131.90613 114.15726 130.57134 114.87233 C 129.23654 115.5874 129.09353 115.80192 129.68942 116.15946 C 130.95271 116.96987 134.17052 114.41946 134.17052 112.60795 C 134.17052 112.20274 134.38504 111.58301 134.64724 111.24931 C 135.17162 110.60575 135.2908 109.89068 134.8856 109.89068 C 134.74258 109.89068 134.2897 110.05753 133.8845 110.27205 C 133.00258 110.72493 131.90613 110.55808 129.76093 109.60465 C 129.11736 109.31863 126.78147 108.91342 124.9938 108.79424 C 123.77818 108.6989 123.34913 108.79424 122.18119 109.34246 Z"
                        fill="black"/>
               </g>
            </g>
            <g>
               <path d="M 127.7349 111.46383 C 127.7349 112.4411 126.85298 113.5137 126.09023 113.41836 C 125.16064 113.32302 125.13681 112.4411 126.04256 111.55918 C 126.94832 110.65342 127.7349 110.60575 127.7349 111.46383 Z"/>
            </g>
            <g>
               <g  id="outline-2">
                  <path
                        d="M 122.87242 116.35014 C 122.80091 116.75535 122.7294 117.30357 122.7294 117.56576 C 122.7294 117.82796 122.3957 118.61453 121.96667 119.3296 C 121.39461 120.25919 120.89406 120.75974 120.10748 121.14111 C 118.48666 121.97536 117.70008 122.52358 117.86693 122.78577 C 118.05762 123.09564 119.22556 122.83344 120.41735 122.18988 C 121.27543 121.737 121.75214 121.21262 123.37297 118.9959 C 123.9927 118.11398 124.18338 116.42165 123.68283 115.96877 C 123.13461 115.46823 123.03927 115.5159 122.87242 116.35014 Z"
                        fill="black"/>
               </g>
            </g>
            <g>
               <g  id="outline-3">
                  <path
                        d="M 99.48964 123.23865 C 99.3943 123.38166 99.60882 123.71536 99.94252 123.97756 C 100.27622 124.23975 100.56224 124.59728 100.56224 124.7403 C 100.56224 124.90715 101.34882 126.17044 102.32608 127.60058 C 104.32828 130.53236 104.85266 131.91483 104.39978 133.15428 C 104.04225 134.10771 104.23294 134.91812 104.82883 134.91812 C 105.56773 134.91812 105.80609 134.39374 105.80609 132.74908 C 105.80609 130.8899 105.13869 129.45976 102.96965 126.59948 C 102.23074 125.64605 101.44416 124.52578 101.18197 124.09673 C 100.56224 123.02413 99.84717 122.6666 99.48964 123.23865 Z"
                        fill="black"/>
               </g>
            </g>
            <g>
               <g  id="outline-4">
                  <path
                        d="M 95.55676 124.38276 C 95.03237 124.8118 95.03237 124.88331 95.3184 126.0751 C 95.62826 127.38605 96.86772 129.26907 97.48744 129.38825 C 97.70196 129.41209 97.98799 129.17373 98.13101 128.84003 C 98.4647 128.12496 98.77457 128.07729 99.29895 128.72085 C 100.08553 129.6266 100.56224 129.19756 100.56224 127.62441 C 100.56224 126.98085 100.32389 126.57564 99.15594 125.38386 C 97.96416 124.16824 97.63046 123.95372 96.91539 123.95372 C 96.46251 123.95372 95.84278 124.1444 95.55676 124.38276 Z"
                        fill="black"/>
               </g>
            </g>
            <g>
               <g  id="outline-5">
                  <path
                        d="M 174.35744 136.01456 C 172.9273 137.58772 171.1158 139.06553 168.56538 140.82937 C 167.49277 141.5921 162.98783 142.95074 160.6281 143.23677 C 159.50783 143.37978 158.00618 143.5943 157.29111 143.71348 C 156.57604 143.83266 154.93138 143.95184 153.64426 143.95184 C 151.54672 143.97567 151.30836 144.02334 151.37987 144.38088 C 151.45137 144.76225 151.92809 144.83376 155.26508 145.02444 C 158.05385 145.19129 159.46016 145.16746 160.50893 144.95293 C 161.2955 144.78609 162.7018 144.57156 163.60756 144.47622 C 164.53715 144.38088 165.7051 144.11869 166.22948 143.88033 C 168.66072 142.76005 169.80483 142.188 170.49607 141.71129 C 170.90127 141.4491 171.73552 140.92471 172.37908 140.56717 C 172.9988 140.20964 173.49936 139.80443 173.49936 139.70909 C 173.49936 139.54224 174.16676 138.61265 175.12018 137.42087 C 176.02594 136.27675 176.86019 134.82278 176.741 134.53675 C 176.50265 133.91702 176.0021 134.20305 174.35744 136.01456 Z"
                        fill="black"/>
               </g>
            </g>
            <g>
               <g  id="outline-6">
                  <path
                        d="M 128.8075 136.58662 C 128.71216 136.72963 128.879 137.13484 129.16503 137.49237 C 129.42723 137.84991 130.16613 138.82717 130.76202 139.66142 C 132.40668 141.90197 134.05134 143.09375 136.74477 143.95184 C 138.98533 144.69074 139.89108 144.8576 139.89108 144.50006 C 139.89108 144.40471 138.4371 143.5943 136.64943 142.68855 C 133.12175 140.90087 131.38175 139.5184 130.11846 137.54004 C 129.35572 136.34826 129.06969 136.15758 128.8075 136.58662 Z"
                        fill="black"/>
               </g>
            </g>
            <g>
               <g  id="outline-7">
                  <path
                        d="M 141.79793 229.52185 C 141.79793 229.85555 142.03629 230.11774 142.46533 230.30843 C 146.73191 232.07227 148.68644 233.5739 149.68754 235.9098 C 150.56946 237.93584 150.92699 245.1342 150.21192 246.03996 C 150.0689 246.2068 149.83055 246.75503 149.68754 247.23175 C 149.52069 247.70846 149.13932 248.49504 148.80562 248.97175 C 148.28123 249.75833 148.2574 249.90134 148.56726 250.44956 L 148.87712 251.0693 L 149.7352 249.90134 C 151.68973 247.25558 152.78617 242.44078 152.28562 238.7701 C 151.95192 236.36269 150.64096 233.6931 149.02014 232.14377 C 147.85219 231.0235 145.23027 229.78404 143.39492 229.45034 C 142.89437 229.355 142.32232 229.212 142.13163 229.14048 C 141.91711 229.06897 141.79793 229.18815 141.79793 229.52185 Z"
                        fill="black"/>
               </g>
            </g>
            <g>
               <g  id="outline-8">
                  <path
                        d="M 151.04617 253.04765 C 150.61713 253.45285 150.92699 253.83422 152.02343 254.31094 C 152.667 254.57313 153.42973 254.8115 153.6681 254.8115 C 154.90755 254.8115 158.84043 257.8863 159.38865 259.26875 C 159.8892 260.5082 160.43742 263.74986 160.5566 266.03808 C 160.67577 268.13562 160.6281 268.44548 160.07988 269.61343 C 159.50783 270.85288 158.9596 272.95042 158.9596 273.88 C 158.9596 274.2137 159.12646 274.35673 159.50783 274.35673 C 159.98454 274.35673 160.15139 274.0707 160.79495 272.2592 C 161.81989 269.3989 162.15359 266.8485 161.93906 263.7022 C 161.84372 262.27205 161.60537 260.6989 161.39084 260.1745 C 160.31824 257.38574 157.31495 254.12025 155.28892 253.50052 C 153.85878 253.07148 151.28453 252.78545 151.04617 253.04765 Z"
                        fill="black"/>
               </g>
            </g>
            <g>
               <g  id="outline-9">
                  <path
                        d="M 162.58263 276.31125 C 162.65413 276.8118 162.82098 276.8833 164.4418 277.02632 C 165.89578 277.1455 166.56318 277.36002 168.06483 278.17043 C 170.1147 279.24304 171.99771 280.98304 172.21223 281.93646 C 172.28374 282.294 172.49826 283.05674 172.66511 283.65263 C 172.8558 284.24852 173.07032 286.5129 173.14182 288.7058 C 173.30867 292.8532 173.64237 294.4502 174.35744 294.5932 C 174.73881 294.6647 174.76265 294.30717 174.5958 288.6343 C 174.45279 283.08058 174.38128 282.50852 173.90457 281.5551 C 173.11799 279.93427 171.42566 278.31344 169.23278 276.97865 L 167.23058 275.78686 L 164.87085 275.78686 C 162.5588 275.78686 162.51112 275.78686 162.58263 276.31125 Z"
                        fill="black"/>
               </g>
            </g>
         </g>
      </g>
   </g>
</svg>