<?xml version="1.0" encoding="utf-8"?>
<svg xmlns="http://www.w3.org/2000/svg" xmlns:dc="http://purl.org/dc/elements/1.1/"
     xmlns:xl="http://www.w3.org/1999/xlink"
     xmlns:xlink="http://www.w3.org/1999/xlink"
     version="1.1"
     viewBox="54 72 310.5 218.42695"
     width="310.5"
     height="218.42695"
     preserveAspectRatio="xMidYMid meet"
     zoomAndPan="magnify"
     contentScriptType="application/ecmascript"
     contentStyleType="text/css">
   <defs/>
   <metadata xmlns="" xmlns:svg="http://www.w3.org/2000/svg"
             xmlns:rdf="http://www.w3.org/1999/02/22-rdf-syntax-ns#"
             xmlns:cc="http://creativecommons.org/ns#">
      <rdf:RDF>
         <cc:Work rdf:about="">
            <dc:creator>
               <cc:Agent>
                  <dc:title>http://heraldicart.org Sow Statant.svg</dc:title>
               </cc:Agent>
            </dc:creator>
         </cc:Work>
      </rdf:RDF>
   </metadata>
   <g stroke-opacity="1" stroke-dasharray="none" stroke="#505050" fill="#ffff00"
      fill-opacity="1">
      <title>Sow Statant</title>
      <g>
         <title>Art</title>
         <g>
            <g>
               <g>
                  <g  id="outline-0">
                     <path
                           d="M 177.3478 195.1757 C 149.93888 196.09023 154.97252 192.15417 135.10873 184.42936 C 134.95435 184.36932 134.79945 184.31203 134.64404 184.25745 L 135.32572 193.0411 C 136.45043 199.9666 141.66308 210.5706 141.66308 210.5706 L 140.40374 211.64419 L 138.91907 213.45743 C 137.69691 214.91887 136.07083 216.82892 135.30958 217.67437 L 133.91137 219.22724 L 131.17892 221.58258 L 131.47399 221.59756 L 130.081 222.93643 C 128.29619 224.64108 126.88946 225.71764 125.68476 226.25753 C 123.18216 227.44084 120.50315 230.27738 118.59886 233.78024 C 117.12964 236.48762 116.20423 239.13305 116.46708 244.46223 C 116.60456 247.0854 115.79744 248.75276 115.61046 249.4041 C 115.43734 250.0563 115.24167 250.95465 115.04404 252.00253 L 140.8069 247.50253 C 141.88207 243.95106 140.93768 244.83 140.47048 240.22634 C 140.24854 238.01008 140.82644 234.42373 141.4634 233.7163 C 142.02268 233.09516 156.62458 224.06065 157.83272 223.58633 C 157.83715 223.58473 157.84157 223.58315 157.84599 223.5816 C 165.08461 219.20096 172.12816 214.78967 173.06458 212.92346 C 175.05703 208.9527 173.4336 202.46504 174.39412 199.82836 C 175.00132 198.16156 176.03241 197.19346 177.34782 195.1757 Z"
                           fill="black"/>
                  </g>
               </g>
               <g>
                  <path d="M 175.28963 194.39725 C 151.14568 195.01295 154.25097 191.37736 137.14058 184.36947 C 137.04378 185.87138 137.06113 187.1612 137.1483 188.7002 C 137.44566 194.06047 138.53891 197.98163 142.1749 206.50422 L 143.78763 210.2995 L 143.22656 211.20023 C 142.90719 211.69372 140.08657 214.96512 136.9173 218.48496 C 130.6409 225.4556 130.32675 225.7351 125.92894 228.3987 C 123.5557 229.8547 121.99698 231.48174 120.45874 234.12697 C 119.2658 236.14584 119.54284 238.03343 118.95926 240.96235 C 118.47357 243.33586 117.24403 245.3645 117.7444 245.81503 C 118.71063 246.68502 126.36667 248.29185 128.30319 247.28616 C 130.01706 246.42367 138.97357 244.21086 138.97357 244.21086 C 138.97357 244.21086 138.23446 239.85354 138.73223 236.49016 C 139.12283 233.90507 139.68747 232.4452 140.54015 231.7758 C 140.8888 231.52737 142.2092 230.6855 143.47088 229.97822 C 144.73084 229.23815 149.12694 226.54178 153.25034 223.97478 C 157.35649 221.39224 161.97352 218.51989 163.4855 217.56933 C 166.82875 215.4871 170.576 212.64389 170.98 211.88292 C 171.48758 210.9028 171.70543 209.09944 171.77542 204.78852 C 171.81908 202.48465 171.9024 200.31021 171.9508 199.97888 C 172.07179 199.15055 173.37005 196.94532 175.1222 194.61767 C 175.17894 194.54353 175.23475 194.47007 175.28965 194.39725 Z"/>
                  <path d="M 175.28963 194.39725 C 151.14568 195.01295 154.25097 191.37736 137.14058 184.36947 C 137.04378 185.87138 137.06113 187.1612 137.1483 188.7002 C 137.44566 194.06047 138.53891 197.98163 142.1749 206.50422 L 143.78763 210.2995 L 143.22656 211.20023 C 142.90719 211.69372 140.08657 214.96512 136.9173 218.48496 C 130.6409 225.4556 130.32675 225.7351 125.92894 228.3987 C 123.5557 229.8547 121.99698 231.48174 120.45874 234.12697 C 119.2658 236.14584 119.54284 238.03343 118.95926 240.96235 C 118.47357 243.33586 117.24403 245.3645 117.7444 245.81503 C 118.71063 246.68502 126.36667 248.29185 128.30319 247.28616 C 130.01706 246.42367 138.97357 244.21086 138.97357 244.21086 C 138.97357 244.21086 138.23446 239.85354 138.73223 236.49016 C 139.12283 233.90507 139.68747 232.4452 140.54015 231.7758 C 140.8888 231.52737 142.2092 230.6855 143.47088 229.97822 C 144.73084 229.23815 149.12694 226.54178 153.25034 223.97478 C 157.35649 221.39224 161.97352 218.51989 163.4855 217.56933 C 166.82875 215.4871 170.576 212.64389 170.98 211.88292 C 171.48758 210.9028 171.70543 209.09944 171.77542 204.78852 C 171.81908 202.48465 171.9024 200.31021 171.9508 199.97888 C 172.07179 199.15055 173.37005 196.94532 175.1222 194.61767 C 175.17894 194.54353 175.23475 194.47007 175.28965 194.39725 Z"
                        stroke="black"
                        stroke-linecap="round"
                        stroke-linejoin="round"
                        stroke-width="4.2523"/>
               </g>
               <g>
                  <g  id="feature-0">
                     <path
                           d="M 119.68977 246.88365 C 125.09725 249.28438 127.72898 248.67548 135.20906 246.95723 C 137.33595 246.4494 139.15725 246.01675 139.22069 246.03374 C 139.41098 246.08473 138.77694 249.17664 138.58315 250.28048 C 138.25961 251.9954 138.34453 257.07187 136.63666 258.5558 C 134.39484 260.49657 128.94211 261.64122 123.31132 263.6559 C 118.52626 265.368 118.83636 265.41912 118.23375 265.25765 C 117.88488 265.16417 117.52978 264.96704 117.43691 264.8062 C 117.29761 264.5649 118.47203 260.56248 121.05989 252.55368 C 121.43776 251.3972 121.41682 251.22162 120.97196 250.91545 C 120.09075 250.27142 119.61834 250.89268 118.66404 253.8833 C 118.16409 255.432 117.43157 257.7852 116.9911 259.11188 L 116.22148 261.54012 L 115.2238 261.90166 C 114.49061 262.1641 113.98088 262.1635 113.30012 261.9131 C 112.76945 261.73692 112.29599 261.47408 112.22634 261.35344 C 112.08703 261.11216 114.56191 252.9541 115.92747 249.18986 C 116.46225 247.7015 117.0899 246.37398 117.31107 246.24628 C 117.59257 246.08376 118.35376 246.28772 119.68977 246.88365 Z"
                           fill="#ff0000"/>
                  </g>
                  <path d="M 119.68977 246.88365 C 125.09725 249.28438 127.72898 248.67548 135.20906 246.95723 C 137.33595 246.4494 139.15725 246.01675 139.22069 246.03374 C 139.41098 246.08473 138.77694 249.17664 138.58315 250.28048 C 138.25961 251.9954 138.34453 257.07187 136.63666 258.5558 C 134.39484 260.49657 128.94211 261.64122 123.31132 263.6559 C 118.52626 265.368 118.83636 265.41912 118.23375 265.25765 C 117.88488 265.16417 117.52978 264.96704 117.43691 264.8062 C 117.29761 264.5649 118.47203 260.56248 121.05989 252.55368 C 121.43776 251.3972 121.41682 251.22162 120.97196 250.91545 C 120.09075 250.27142 119.61834 250.89268 118.66404 253.8833 C 118.16409 255.432 117.43157 257.7852 116.9911 259.11188 L 116.22148 261.54012 L 115.2238 261.90166 C 114.49061 262.1641 113.98088 262.1635 113.30012 261.9131 C 112.76945 261.73692 112.29599 261.47408 112.22634 261.35344 C 112.08703 261.11216 114.56191 252.9541 115.92747 249.18986 C 116.46225 247.7015 117.0899 246.37398 117.31107 246.24628 C 117.59257 246.08376 118.35376 246.28772 119.68977 246.88365 Z"
                        stroke="black"
                        stroke-linecap="round"
                        stroke-linejoin="round"
                        stroke-width="4.2523"/>
               </g>
            </g>
            <g>
               <g  id="outline-1">
                  <path
                        d="M 325.3167 114.4583 C 324.5467 114.96972 323.46666 115.58137 322.88543 115.8162 C 321.57228 116.34675 321.48574 116.25651 320.26266 112.91939 C 319.4488 110.71906 319.39617 110.46487 319.59885 109.2311 C 319.90742 107.45372 320.76177 106.40739 322.44088 105.72899 C 325.66993 104.42436 328.15094 106.22657 328.23266 109.89963 C 328.2835 112.13277 327.9019 112.7377 325.3167 114.4583 Z M 152.01882 211.03858 C 153.14353 217.96407 158.35618 228.56806 158.35618 228.56806 L 157.09684 229.64166 L 155.61217 231.4549 C 154.39001 232.91634 152.76392 234.8264 152.00268 235.67184 L 150.60447 237.2247 L 147.87202 239.58005 L 148.16708 239.59503 L 146.7741 240.9339 C 144.98929 242.63855 143.58256 243.7151 142.37786 244.255 C 139.87525 245.4383 137.19625 248.27485 135.29196 251.7777 C 133.82274 254.4851 132.89733 257.13052 133.16018 262.4597 C 133.29766 265.08288 132.49054 266.75023 132.30356 267.40158 C 132.13044 268.05377 131.93477 268.95212 131.73714 270 L 157.5 265.5 C 158.57516 261.94853 157.63077 262.8275 157.16357 258.2238 C 156.94163 256.00755 157.51954 252.4212 158.1565 251.71378 C 158.71578 251.09263 173.31768 242.05812 174.52581 241.5838 C 174.53025 241.5822 174.53467 241.58062 174.53909 241.57907 C 181.7777 237.19843 188.82125 232.78714 189.75768 230.92093 C 191.75013 226.95017 190.1267 220.46251 191.08722 217.82583 C 191.75105 216.00357 192.92154 215.01642 194.4163 212.57975 C 197.7361 212.59464 202.72768 212.13243 204.57155 211.89426 C 206.69598 211.61986 214.188 210.31416 214.83454 210.3821 C 215.22708 210.42337 217.51016 211.70981 218.91768 211.3023 C 220.98707 210.69314 221.2946 210.0659 221.4143 209.04306 C 221.45995 208.57163 222.48985 208.22903 222.64053 208.12814 C 222.93378 207.99162 229.52422 206.09264 229.52422 206.09264 L 236.30268 203.97432 C 237.68193 203.5123 238.3779 203.4263 239.07127 203.31295 C 239.76464 203.1996 240.928 204.89203 243.15288 204.1455 C 245.22056 203.46162 245.1134 201.7847 245.81613 201.38763 C 246.73396 200.869 245.85665 201.03309 248.30528 200.16986 C 248.88614 199.97411 249.64563 199.63372 250.01626 199.43922 C 250.1603 199.3576 250.57197 199.17176 251.14328 198.92853 C 253.47336 208.24515 254.0442 210.28221 254.69362 211.6356 C 255.9027 214.18163 256.8592 215.4267 258.98667 217.14555 C 261.45182 219.16304 263.97942 220.37533 267.65595 221.30116 C 272.8076 222.57705 275.49816 224.34692 276.14977 226.86443 C 276.3969 227.85567 275.53257 232.25865 274.86168 233.5027 C 274.14006 234.83118 272.9177 235.49488 263.7814 239.63923 C 260.25532 241.23623 257.3712 242.81675 255.59094 244.12204 C 252.25015 246.5582 247.21124 253.98807 246.7193 257.1975 C 246.6345 257.72114 246.74617 259.2247 246.9706 260.50875 L 247.3802 262.8234 L 244.56487 271.3978 C 243.03585 276.11006 241.8226 280.16932 241.89 280.43966 C 241.9518 280.68747 242.37945 281.15512 242.8354 281.44823 C 243.63468 281.9668 243.7304 281.96685 245.62276 281.49504 L 247.56017 281.012 L 248.0609 281.67678 C 248.3197 282.04296 248.84317 282.41495 249.2148 282.46586 C 250.16634 282.6354 260.15754 280.09646 262.833 279.0226 C 268.17267 276.82985 269.80755 273.8858 270.83824 264.6796 C 270.9911 263.37328 271.3242 262.02203 271.64557 261.39155 C 273.32007 258.12656 274.83725 254.32652 275.8812 250.8359 L 276.4286 249.0005 L 279.1442 246.74414 C 282.0401 244.34712 284.0851 242.9519 285.00874 242.7216 C 285.57194 242.5812 292.8109 237.8331 295.5771 235.7795 C 300.3714 232.2631 301.8203 229.53293 300.57777 226.46882 C 299.6613 224.23269 296.24643 219.1738 295.4695 218.9368 C 294.86844 218.75 294.88966 216.45785 295.37175 214.8945 C 298.0622 215.66878 301.53038 216.36604 305.5356 216.92716 C 306.92403 217.1306 308.9361 217.43397 309.98976 217.59069 L 311.95586 217.90051 L 312.5918 221.25767 C 313.26975 224.91373 313.51793 229.84936 313.13515 232.1305 C 312.78903 234.17205 311.72 237.9095 311.21553 238.82445 C 310.9518 239.28354 308.1232 242.84626 304.9393 246.71682 C 301.7324 250.5906 298.04117 255.18896 296.714 256.9229 C 294.64238 259.6993 294.30284 260.28628 294.03403 261.54324 C 293.629 263.49928 293.6101 266.03408 293.9944 267.4337 L 294.29713 268.5869 L 290.72957 276.5675 C 288.74296 280.94973 287.17132 284.78127 287.20687 285.03418 C 287.24564 285.31008 287.6221 285.81987 288.0449 286.15903 C 288.7856 286.7583 288.8808 286.76837 290.8121 286.49694 L 292.78938 286.21905 L 293.2179 286.93254 C 293.437 287.32377 293.9187 287.74844 294.28297 287.83792 C 295.2116 288.106 305.41344 286.62532 308.1865 285.837 C 313.7261 284.21442 315.65978 281.4574 317.65036 272.43235 C 318.0816 270.49608 318.33564 269.968 319.93698 267.5156 C 324.9846 259.8897 325.38166 258.54437 324.7503 251.71658 C 324.20224 245.81492 324.02328 242.20597 324.17826 240.47264 C 324.49467 237.05198 326.00193 234.09698 330.33232 228.54132 C 334.54092 223.12 338.1812 217.82544 338.66377 216.4212 C 338.9778 215.48613 339.012 214.89518 338.8052 213.4237 C 338.47884 211.10155 337.96556 210.11862 334.3391 205.0013 C 331.81895 201.41658 331.63253 201.0911 331.60854 200.0863 C 331.59388 199.31464 332.13325 197.4804 333.3528 193.9797 C 335.3952 188.15944 335.995 185.754 336.5238 181.3422 C 336.8822 178.22043 336.8826 178.05626 336.2654 173.66485 C 335.70317 169.66429 334.0858 161.82623 332.60512 155.96186 C 332.3056 154.83166 331.9713 153.1202 331.84205 152.20054 C 331.8188 152.03521 331.79825 151.8853 331.7807 151.74857 L 331.7807 151.74857 C 331.5771 151.24698 331.3775 150.77482 331.18344 150.339 C 328.31195 143.88953 330.03484 147.75921 325.5863 141.2391 C 325.46457 141.06066 325.3609 140.85913 325.27442 140.6359 L 325.00667 140.26598 C 324.13597 139.07539 322.5217 137.09835 321.4376 135.89085 C 319.37695 133.60381 315.40086 128.32167 313.92716 125.97882 L 313.92716 125.97882 C 314.5208 125.76787 315.2654 125.51142 315.94233 125.28231 L 318.0483 124.60674 L 319.61713 125.70072 C 320.4643 126.31001 322.7448 127.49206 324.6879 128.33468 C 328.2287 129.90901 330.71866 130.55572 336.1928 131.39903 C 337.4481 131.59301 339.6697 131.94747 341.1279 132.20973 C 344.51 132.77142 345.77726 132.68511 347.60663 131.8208 C 349.0013 131.18218 349.86066 130.33416 352.89187 126.68049 C 353.1924 126.30867 353.90148 125.64656 354.469 125.19189 C 357.1734 123.02249 358.3376 120.57387 358.0515 117.63446 C 358.01583 117.2983 358.24416 116.00407 358.54164 114.75704 C 359.5367 110.77413 359.405 107.59706 358.13015 104.2558 C 357.55155 102.76174 357.50393 102.70586 356.9827 102.84132 C 356.6424 102.92873 355.40928 104.15314 353.66992 106.10794 C 350.33733 109.88337 349.10333 110.85772 346.61402 111.6381 C 345.64074 111.9562 343.60807 112.62721 342.0966 113.16276 C 339.5688 114.0338 339.2546 114.1858 338.4383 115.01642 C 337.31694 116.14559 336.41474 118.31306 335.73585 121.46707 L 335.2096 123.8833 L 332.3835 123.27225 C 330.81725 122.92845 329.11685 122.43853 328.62 122.13845 L 327.71282 121.62853 L 329.41346 120.94143 L 329.41346 120.94143 C 332.44877 119.71509 334.71304 117.44805 336.06014 114.27447 C 337.45856 110.98 337.4825 107.94035 336.0996 104.51756 C 335.4647 102.94608 335.03526 102.19307 334.09157 101.09692 C 330.41204 96.82411 324.90594 95.46785 319.71793 97.56394 C 316.29513 98.94684 314.12523 101.07559 312.7268 104.37006 C 311.2001 107.96678 311.27835 110.6396 313.04394 115.00959 L 314.2181 117.91573 L 311.1545 118.31789 C 310.63476 118.10835 308.10113 118.63894 306.6096 119.14254 C 293.05194 110.6435 272.66272 112.38714 264.21965 113.59243 L 264.21965 113.59243 C 259.771 113.71632 254.82157 114.35595 252.00215 115.38182 C 242.17955 118.9559 232.1992 115.92815 228.6329 115.38208 C 225.06662 114.83601 219.43566 114.01225 219.43566 114.01225 C 214.81632 113.31663 209.17247 112.37325 206.91078 111.90208 C 201.99487 110.91849 186.23136 109.19164 180.59736 109.04305 C 178.66386 109.00325 175.43244 108.87372 173.38592 108.7987 C 169.3184 108.62798 165.32139 108.67479 162.39992 108.92803 C 161.95754 108.97109 161.09076 109.01621 160.00252 109.0594 L 160.00251 109.0594 C 158.33843 107.14896 156.67262 105.5836 155.04584 104.41607 C 151.81694 102.09462 143.96351 98.10043 137.18495 95.3343 C 136.45726 95.03099 135.77792 94.57079 135.46913 94.14577 C 134.44987 92.71495 131.67277 89.6188 130.7389 88.8362 C 129.40565 87.75528 127.3747 86.77541 124.68825 85.92679 C 123.45606 85.54357 122.31923 85.15195 122.16597 85.08066 C 122.01634 84.98644 121.09067 84.7458 120.13843 84.52446 C 116.78447 83.73467 109.57341 81.7698 107.58696 81.102575 C 104.70503 80.15247 101.17646 78.53578 97.67216 76.61735 C 94.31749 74.79313 93.16976 74.47031 92.11333 75.05521 C 91.05691 75.64012 90.86897 77.42039 91.56269 80.60969 C 92.67674 85.74613 93.38563 87.5039 96.02222 91.63562 C 97.32122 93.67491 97.40682 93.87652 97.00473 94.18895 C 95.7912 95.1721 88.69622 95.29424 81.82986 94.41828 C 77.95552 93.94569 73.83599 93.83388 72.93054 94.20762 C 72.80135 94.28119 72.622454 94.81703 72.52802 95.41325 C 72.31736 96.7433 72.70564 97.55702 74.88288 100.58167 C 76.89005 103.34431 80.04973 106.54806 82.84179 108.65928 C 84.10147 109.61102 85.55778 110.80547 86.085 111.33561 L 87.02001 112.25943 L 84.74734 114.43824 C 81.17169 117.86811 77.10785 119.92777 71.57907 121.14423 L 69.07182 121.6874 L 67.37871 120.9491 C 65.31392 120.0344 64.96994 119.97991 62.72355 120.2118 C 60.76324 120.41847 59.89276 120.86827 58.66448 122.38975 C 58.05216 123.13902 57.834665 123.62173 57.66396 124.69953 C 57.29463 127.17979 58.2186 130.99324 59.93471 134.1094 C 61.46872 136.89112 62.63625 138.72154 63.25997 139.3845 C 64.14548 140.32398 65.97233 141.55361 67.205665 142.07805 C 67.77647 142.333 68.11069 142.5975 68.07437 142.82682 C 67.892766 143.97341 70.30139 147.76343 71.83989 148.73582 C 72.73765 149.30114 73.33024 149.4185 80.37757 150.48768 L 87.9487 151.66332 L 94.13559 154.8999 C 101.51108 158.79489 105.20018 160.437 108.32959 161.30876 C 109.72594 161.69447 110.04497 161.86292 110.40174 162.27329 C 111.62947 169.3401 116.756 172.0644 121.14749 176.5221 C 123.93888 179.35557 126.5464 181.97296 128.7486 184.10802 C 128.44965 184.2348 151.3125 201.9375 151.3125 201.9375 Z"
                        fill="black"/>
               </g>
            </g>
            <g>
               <path d="M 312.6409 124.37779 C 313.23426 124.2193 314.34513 123.8564 315.59346 123.40316 C 316.57958 123.05483 316.61393 123.01591 316.3878 122.4562 C 315.692 120.73404 314.6854 119.744 314.6854 119.744 C 314.6854 119.744 314.3954 119.79902 313.59368 119.87903 L 306.77527 120.93996 C 308.3947 122.11765 311.29807 122.84307 312.64092 124.37779 Z"/>
               <path d="M 312.6409 124.37779 C 313.23426 124.2193 314.34513 123.8564 315.59346 123.40316 C 316.57958 123.05483 316.61393 123.01591 316.3878 122.4562 C 315.692 120.73404 314.6854 119.744 314.6854 119.744 C 314.6854 119.744 314.3954 119.79902 313.59368 119.87903 L 306.77527 120.93996 C 308.3947 122.11765 311.29807 122.84307 312.64092 124.37779 Z"
                     stroke="black"
                     stroke-linecap="round"
                     stroke-linejoin="round"
                     stroke-width="4.2523"/>
            </g>
            <g>
               <path d="M 348.2765 129.05427 C 348.67594 128.61743 349.56878 127.48043 350.2596 126.52521 C 350.95044 125.56999 351.93395 124.47147 352.463 124.10748 C 352.9618 123.73065 353.9201 122.81762 354.57287 122.0781 C 355.89995 120.59037 356.11306 119.87824 355.95826 117.5118 C 355.92087 116.67551 356.0209 115.68353 356.20922 115.28192 C 356.787 114.04684 357.2941 111.08744 357.18953 109.52706 C 357.11975 108.0528 356.594 105.6359 356.40025 105.71418 C 356.33567 105.74027 355.3178 106.87771 354.13685 108.23128 C 351.47443 111.31025 349.8273 112.5016 347.07965 113.38635 C 341.158 115.27804 340.11186 115.72574 339.39037 116.5431 C 338.5058 117.5766 337.9848 119.01412 337.2426 122.56931 C 336.72506 125.00707 336.5285 125.51219 336.0764 125.69483 C 335.5813 125.89488 334.3347 125.72243 330.676 124.97199 C 329.08822 124.63689 324.63652 122.72942 323.6163 121.93965 C 322.0383 120.69911 320.41685 118.59985 318.69474 114.3375 C 317.02483 110.2043 317.18445 109.73902 317.96162 107.57199 C 319.1013 104.25685 323.56608 102.478 326.7103 104.06233 C 328.412 104.92734 328.93168 105.59382 329.65944 107.82893 C 330.43068 110.17168 330.41675 111.12886 329.5476 112.88232 C 328.93962 114.10456 328.75914 114.27765 326.9178 115.42225 C 325.84233 116.10718 324.4009 116.93997 323.7468 117.3044 C 322.3869 118.02912 322.64637 117.89569 322.64637 117.89569 C 322.64637 117.89569 322.39147 118.1024 324.2419 119.58343 L 325.27953 120.41626 L 328.035 119.30298 C 330.79045 118.1897 330.8335 118.1723 332.13492 116.74502 C 333.9045 114.80305 334.89238 112.47576 335.03853 109.86253 C 335.14467 108.1419 335.08705 107.6894 334.40365 105.81198 C 333.04967 102.02692 330.7139 99.8405 326.873 98.76301 C 324.52962 98.10718 322.37475 98.35177 319.70583 99.55529 C 317.85907 100.37655 317.48485 100.62791 316.32956 101.92104 C 314.55128 103.84148 313.5634 106.16877 313.39572 108.7907 C 313.39572 108.7907 313.1846 110.21077 313.35304 111.37229 C 313.5215 112.53381 313.3812 113.26627 314.7593 115.72578 C 316.13738 118.1853 318.27565 122.29445 319.46483 123.31645 C 320.4594 124.16667 325.40557 126.92609 327.04596 127.51538 C 328.46194 128.04509 336.0903 129.6958 336.4347 129.55664 C 336.52082 129.52185 337.7546 129.72452 339.1697 130.00417 C 343.47966 130.81703 344.9113 130.88967 346.31057 130.32434 C 347.0425 130.02862 347.834 129.5085 348.2765 129.05427 Z"/>
               <path d="M 348.2765 129.05427 C 348.67594 128.61743 349.56878 127.48043 350.2596 126.52521 C 350.95044 125.56999 351.93395 124.47147 352.463 124.10748 C 352.9618 123.73065 353.9201 122.81762 354.57287 122.0781 C 355.89995 120.59037 356.11306 119.87824 355.95826 117.5118 C 355.92087 116.67551 356.0209 115.68353 356.20922 115.28192 C 356.787 114.04684 357.2941 111.08744 357.18953 109.52706 C 357.11975 108.0528 356.594 105.6359 356.40025 105.71418 C 356.33567 105.74027 355.3178 106.87771 354.13685 108.23128 C 351.47443 111.31025 349.8273 112.5016 347.07965 113.38635 C 341.158 115.27804 340.11186 115.72574 339.39037 116.5431 C 338.5058 117.5766 337.9848 119.01412 337.2426 122.56931 C 336.72506 125.00707 336.5285 125.51219 336.0764 125.69483 C 335.5813 125.89488 334.3347 125.72243 330.676 124.97199 C 329.08822 124.63689 324.63652 122.72942 323.6163 121.93965 C 322.0383 120.69911 320.41685 118.59985 318.69474 114.3375 C 317.02483 110.2043 317.18445 109.73902 317.96162 107.57199 C 319.1013 104.25685 323.56608 102.478 326.7103 104.06233 C 328.412 104.92734 328.93168 105.59382 329.65944 107.82893 C 330.43068 110.17168 330.41675 111.12886 329.5476 112.88232 C 328.93962 114.10456 328.75914 114.27765 326.9178 115.42225 C 325.84233 116.10718 324.4009 116.93997 323.7468 117.3044 C 322.3869 118.02912 322.64637 117.89569 322.64637 117.89569 C 322.64637 117.89569 322.39147 118.1024 324.2419 119.58343 L 325.27953 120.41626 L 328.035 119.30298 C 330.79045 118.1897 330.8335 118.1723 332.13492 116.74502 C 333.9045 114.80305 334.89238 112.47576 335.03853 109.86253 C 335.14467 108.1419 335.08705 107.6894 334.40365 105.81198 C 333.04967 102.02692 330.7139 99.8405 326.873 98.76301 C 324.52962 98.10718 322.37475 98.35177 319.70583 99.55529 C 317.85907 100.37655 317.48485 100.62791 316.32956 101.92104 C 314.55128 103.84148 313.5634 106.16877 313.39572 108.7907 C 313.39572 108.7907 313.1846 110.21077 313.35304 111.37229 C 313.5215 112.53381 313.3812 113.26627 314.7593 115.72578 C 316.13738 118.1853 318.27565 122.29445 319.46483 123.31645 C 320.4594 124.16667 325.40557 126.92609 327.04596 127.51538 C 328.46194 128.04509 336.0903 129.6958 336.4347 129.55664 C 336.52082 129.52185 337.7546 129.72452 339.1697 130.00417 C 343.47966 130.81703 344.9113 130.88967 346.31057 130.32434 C 347.0425 130.02862 347.834 129.5085 348.2765 129.05427 Z"
                     stroke="black"
                     stroke-linecap="round"
                     stroke-linejoin="round"
                     stroke-width="4.2523"/>
            </g>
            <g>
               <path d="M 252.8578 197.88049 C 253.2992 199.6124 253.70712 201.04228 254.0268 201.91293 C 254.41466 202.98872 255.25212 205.48383 255.88157 207.4326 C 256.51102 209.38135 257.16874 211.15557 257.34316 211.3753 C 257.5176 211.59501 257.872 212.15272 258.13073 212.61463 C 259.8239 215.47068 262.4245 216.97583 270.91997 219.95443 C 276.21205 221.79352 276.6623 222.15982 277.67395 225.25757 C 278.49455 227.6851 278.494 228.54666 277.7768 231.81225 C 277.47746 233.20294 277.13912 233.9573 276.34448 234.99292 L 275.31876 236.34937 L 268.59327 239.41407 C 257.50805 244.47505 256.27432 245.28515 252.83086 249.80476 C 249.99607 253.5026 249.18428 254.94928 248.7775 257.0607 C 248.3256 259.27906 248.35333 259.96608 248.8031 261.0982 C 249.14048 261.87552 249.37687 262.05586 250.7843 262.61423 C 251.66252 262.96955 252.82232 263.30252 253.36287 263.35917 C 254.5397 263.47254 259.3547 262.82238 265.4708 261.72818 L 270.05502 260.9202 L 270.51168 260.06456 C 271.37995 258.3645 273.29212 253.26957 273.9186 250.98373 C 274.4492 248.98503 274.72546 248.4615 275.60454 247.47662 C 276.99638 245.9571 282.58514 241.69226 284.213 240.92745 C 286.53938 239.79707 294.2404 234.5988 296.62927 232.56748 C 298.92803 230.55863 299.712 228.6164 298.9022 226.90402 C 298.12047 225.3043 296.82098 223.25938 296.31443 222.85925 C 295.9936 222.62817 295.40836 222.00838 295.02014 221.50696 C 294.6319 221.00555 294.1142 220.46464 293.85527 220.2899 C 293.5063 220.04192 293.3376 219.65326 293.15255 218.4312 C 292.9064 217.01208 293.01477 215.58785 293.4666 214.2166 C 292.71176 213.96015 292.0412 213.69708 291.46274 213.4293 C 287.80544 211.76284 281.157 207.164 277.80194 203.97798 C 275.74436 202.01635 270.7748 195.5169 270.64555 194.59724 C 270.64417 194.58745 270.6325 194.58389 270.61145 194.58615 L 270.61143 194.58616 C 270.50125 194.15114 270.38774 193.73517 270.2764 193.37652 C 269.73005 191.6166 269.55268 190.60756 269.55268 190.60756 L 269.19782 189.75823 C 269.1436 189.8348 269.1643 190.01537 269.0852 190.14486 C 268.78276 190.63998 268.3955 191.76614 268.3773 192.1226 C 268.35132 192.63185 267.48894 193.24285 267.01247 193.5846 C 266.43506 194 265.83104 194.09707 265.2133 194.0679 C 264.67092 194.04228 263.8786 193.66063 263.3984 193.64768 C 262.56315 193.60608 263.10397 193.44269 259.91048 194.95134 C 258.5349 195.6005 255.80073 196.7372 253.854 197.48977 C 253.5181 197.61961 253.18343 197.75098 252.8578 197.8805 Z"/>
               <path d="M 252.8578 197.88049 C 253.2992 199.6124 253.70712 201.04228 254.0268 201.91293 C 254.41466 202.98872 255.25212 205.48383 255.88157 207.4326 C 256.51102 209.38135 257.16874 211.15557 257.34316 211.3753 C 257.5176 211.59501 257.872 212.15272 258.13073 212.61463 C 259.8239 215.47068 262.4245 216.97583 270.91997 219.95443 C 276.21205 221.79352 276.6623 222.15982 277.67395 225.25757 C 278.49455 227.6851 278.494 228.54666 277.7768 231.81225 C 277.47746 233.20294 277.13912 233.9573 276.34448 234.99292 L 275.31876 236.34937 L 268.59327 239.41407 C 257.50805 244.47505 256.27432 245.28515 252.83086 249.80476 C 249.99607 253.5026 249.18428 254.94928 248.7775 257.0607 C 248.3256 259.27906 248.35333 259.96608 248.8031 261.0982 C 249.14048 261.87552 249.37687 262.05586 250.7843 262.61423 C 251.66252 262.96955 252.82232 263.30252 253.36287 263.35917 C 254.5397 263.47254 259.3547 262.82238 265.4708 261.72818 L 270.05502 260.9202 L 270.51168 260.06456 C 271.37995 258.3645 273.29212 253.26957 273.9186 250.98373 C 274.4492 248.98503 274.72546 248.4615 275.60454 247.47662 C 276.99638 245.9571 282.58514 241.69226 284.213 240.92745 C 286.53938 239.79707 294.2404 234.5988 296.62927 232.56748 C 298.92803 230.55863 299.712 228.6164 298.9022 226.90402 C 298.12047 225.3043 296.82098 223.25938 296.31443 222.85925 C 295.9936 222.62817 295.40836 222.00838 295.02014 221.50696 C 294.6319 221.00555 294.1142 220.46464 293.85527 220.2899 C 293.5063 220.04192 293.3376 219.65326 293.15255 218.4312 C 292.9064 217.01208 293.01477 215.58785 293.4666 214.2166 C 292.71176 213.96015 292.0412 213.69708 291.46274 213.4293 C 287.80544 211.76284 281.157 207.164 277.80194 203.97798 C 275.74436 202.01635 270.7748 195.5169 270.64555 194.59724 C 270.64417 194.58745 270.6325 194.58389 270.61145 194.58615 L 270.61143 194.58616 C 270.50125 194.15114 270.38774 193.73517 270.2764 193.37652 C 269.73005 191.6166 269.55268 190.60756 269.55268 190.60756 L 269.19782 189.75823 C 269.1436 189.8348 269.1643 190.01537 269.0852 190.14486 C 268.78276 190.63998 268.3955 191.76614 268.3773 192.1226 C 268.35132 192.63185 267.48894 193.24285 267.01247 193.5846 C 266.43506 194 265.83104 194.09707 265.2133 194.0679 C 264.67092 194.04228 263.8786 193.66063 263.3984 193.64768 C 262.56315 193.60608 263.10397 193.44269 259.91048 194.95134 C 258.5349 195.6005 255.80073 196.7372 253.854 197.48977 C 253.5181 197.61961 253.18343 197.75098 252.8578 197.8805 Z"
                     stroke="black"
                     stroke-linecap="round"
                     stroke-linejoin="round"
                     stroke-width="4.2523"/>
            </g>
            <g>
               <path d="M 114.00814 167.02445 C 116.5092 171.58027 124.28869 176.0954 126.99708 178.90572 C 130.99331 183.05236 130.33315 182.67765 132.15288 184.44847 C 133.9726 186.21929 134.64762 186.83293 136.26325 188.12792 C 137.87888 189.4229 138.26026 189.39203 139.65617 190.3158 C 141.05208 191.23958 145.35397 194.29977 146.89639 195.83927 C 148.21239 197.15325 149.64622 198.25639 151.86242 199.50832 C 152.25965 197.32927 154.02292 189.77152 154.97884 190.44478 C 155.43955 190.76587 155.4533 191.0282 155.22864 192.38803 C 153.84623 200.51603 153.62136 202.81296 153.8414 206.69768 C 154.13875 212.05794 155.232 215.9791 158.868 224.5017 L 160.48073 228.29698 L 159.91966 229.1977 C 159.60028 229.6912 156.77967 232.9626 153.6104 236.48243 C 147.334 243.45308 147.01985 243.73258 142.62203 246.39616 C 140.2488 247.85217 138.69008 249.4792 137.15184 252.12445 C 135.95889 254.1433 136.23594 256.0309 135.65236 258.95983 C 135.16667 261.33333 133.93713 263.36197 134.4375 263.8125 C 135.40373 264.6825 143.05977 266.28932 144.99629 265.28363 C 146.71016 264.42114 155.66667 262.20833 155.66667 262.20833 C 155.66667 262.20833 154.92756 257.85102 155.42533 254.48763 C 155.81592 251.90254 156.38057 250.44268 157.23324 249.77327 C 157.5819 249.52484 158.9023 248.68297 160.16398 247.9757 C 161.42394 247.23562 165.82004 244.53925 169.94344 241.97225 C 174.04959 239.3897 178.66662 236.51736 180.1786 235.5668 C 183.52185 233.48457 187.2691 230.64136 187.6731 229.8804 C 188.18068 228.90027 188.39853 227.0969 188.46852 222.786 C 188.51218 220.48212 188.5955 218.30769 188.6439 217.97635 C 188.76488 217.14802 190.06314 214.9428 191.8153 212.61514 C 193.58472 210.30302 194.45142 208.6465 195.05071 206.59298 C 195.78818 204.03903 195.89728 202.35644 195.9096 193.4947 C 195.93265 190.79734 196.04353 188.83518 196.2455 188.61088 C 196.41639 188.42109 196.81853 188.25205 197.1309 188.25212 C 197.52594 188.25336 197.80298 188.30838 197.98887 188.52145 C 197.60793 194.20655 198.7179 202.09825 196.2365 208.04381 C 195.84868 208.97302 195.47282 209.78064 195.1109 210.49162 L 195.11089 210.49163 C 199.52525 210.35016 204.43641 209.5551 204.48887 209.61986 C 204.55086 209.69642 206.6921 209.31448 209.26838 208.79151 C 214.58987 207.6933 215.48455 207.51783 216.39263 208.4777 C 216.9855 209.10724 217.61964 209.50424 218.40607 209.4476 C 218.89396 209.40594 219.75297 208.63344 219.72003 207.83623 C 219.66996 206.3135 221.56527 206.18526 225.03958 205.33646 C 229.42531 204.25661 233.56676 203.0577 236.04333 202.15073 C 238.88325 201.11852 239.9593 201.3612 240.8581 202.0445 C 241.259 202.3445 242.01142 202.67004 242.67304 202.46471 C 243.33465 202.25939 243.4528 201.51934 243.545 200.6419 C 243.59355 200.1801 243.71517 200.1818 244.42705 199.3955 C 245.13894 198.60922 247.66428 197.97932 247.66428 197.97932 C 248.93293 197.45899 252.10215 196.18124 254.71117 195.12476 C 257.32018 194.06829 260.18194 192.82826 261.07144 192.36146 C 263.2952 191.19446 264.10972 191.9849 264.63578 192.1396 C 265.063 192.26833 265.93105 192.42624 266.44282 192.10807 C 266.88482 191.84152 267.1867 191.6544 267.3227 190.73702 C 267.3877 190.35574 267.66998 189.59806 268.00648 189.23835 C 268.18405 189.06097 268.42588 188.8034 268.7624 188.48711 C 268.3216 186.79615 268.00323 185.7789 267.78955 183.5859 C 267.35656 179.14192 266.35074 171.089 266.0636 170.44406 C 265.77644 169.79911 265.15324 164.43883 264.13438 162.93286 C 263.12078 161.43467 262.97707 161.76908 258.17376 157.82338 C 258.2387 157.8046 258.3042 157.78406 258.37032 157.76177 C 258.41626 157.79955 258.46178 157.83694 258.5069 157.87396 C 258.47524 157.76867 258.498 157.67857 258.55812 157.5832 C 259.09203 156.71102 260.38814 157.09156 262.64655 158.81395 C 266.13743 161.46508 266.85216 163.38097 268.35508 173.90794 C 269.29215 180.57553 270.96048 189.1098 271.84075 191.86992 C 272.39168 193.62127 273.4642 195.58066 275.46387 198.4648 C 278.0034 202.18748 279.1306 203.20135 285.93318 207.89576 C 292.42753 212.39902 293.31662 212.71954 306.363 215.12968 C 310.0685 215.80465 313.26174 216.5047 313.49774 216.68255 C 313.83864 216.93944 314.0171 217.87564 314.74775 222.9076 C 315.5782 228.81646 315.5782 228.81646 315.25605 231.8628 C 315.0116 233.96038 314.65976 235.6276 314.078 237.3271 C 313.63172 238.6559 313.26125 239.85682 313.28063 239.99477 C 313.3291 240.33965 307.59572 247.75715 306.4802 248.8283 C 305.4667 249.79135 298.12737 258.7944 297.1785 260.21728 C 296.30866 261.53527 295.96118 262.73295 295.8881 264.54855 C 295.77476 266.74494 296.12784 267.42214 297.8363 268.4012 C 299.44312 269.32423 300.70008 269.59305 303.25465 269.58572 C 305.6188 269.55825 314.00606 269.01254 315.70745 268.77342 L 316.972 268.5957 L 318.629 266.2058 C 323.26413 259.4819 323.56203 258.43188 322.81685 251.12772 C 322.28704 245.85654 322.1753 241.5582 322.5484 239.20808 C 323.1048 235.6599 324.74318 232.8037 331.6992 223.40905 C 334.57778 219.53451 336.976 216.07917 337.0655 215.7149 C 337.5298 213.6802 336.11536 210.4559 333.0966 206.6599 C 328.94493 201.47571 328.86378 201.0651 330.67154 195.91085 C 331.35247 193.91604 332.31477 190.9204 332.7848 189.26004 C 333.2778 187.59643 333.75753 186.00503 333.9027 185.70328 C 334.0281 185.42775 334.28795 183.77347 334.47238 182.0829 C 334.8851 178.17977 334.6701 175.98264 333.07112 167.2745 C 331.907 160.82639 331.5493 159.28234 330.5843 156.25278 C 330.33 155.44446 329.94214 154.18601 329.72055 153.44344 C 329.17645 151.5739 327.2204 146.8314 326.9449 146.706 C 326.84323 146.64995 326.62375 146.4229 326.51923 146.17968 C 326.39495 145.96269 324.5156 143.60088 322.35462 140.90352 C 314.182 130.79811 312.53694 127.41087 310.2829 124.67173 C 308.0289 121.9326 308.3306 122.18137 302.99573 119.47861 C 297.66085 116.77586 290.9823 114.90555 282.34035 114.81185 C 273.6984 114.71816 276.19327 114.9379 271.1555 115.19725 C 266.48668 115.4376 264.55157 115.3547 259.69235 115.9425 C 259.69823 115.90558 259.66833 115.97629 259.67408 115.94029 L 259.67407 115.94028 C 252.03682 117.04478 248.05808 121.41122 228.89666 117.76466 L 228.89666 117.76466 L 223.0314 116.71582 C 217.57962 116.16616 216.4093 115.97312 212.47289 114.9991 C 207.12429 113.68988 194.96525 111.87496 188.56559 111.45913 C 186.3392 111.31851 182.41992 111.07 179.87026 110.8954 C 175.55602 110.62872 166.22275 110.58157 163.53462 110.83599 C 162.87353 110.90658 161.51244 110.97363 160.48432 110.9823 C 159.96905 110.98786 159.41264 110.99602 158.82639 111.00641 C 157.85924 109.8312 156.97305 108.8492 156.3004 108.23648 C 152.78949 105.0241 148.86288 102.80371 138.88768 98.40295 C 136.77703 97.48098 134.8655 96.63756 134.67001 96.53607 C 134.45159 96.43096 133.735 95.61225 133.03295 94.70182 C 131.5975 92.78195 130.4997 91.55026 130.15572 91.49578 C 130.04106 91.47762 129.83717 91.28078 129.7057 91.0719 C 129.4271 90.60465 127.98033 89.64678 126.42844 88.90734 C 125.81904 88.59925 121.73262 87.38786 117.38669 86.18238 C 106.59848 83.20431 103.999 82.25193 96.3011 78.61148 C 94.74922 77.87203 93.28543 77.17005 93.09357 77.04563 C 92.87878 76.91759 92.69896 76.8656 92.68806 76.93439 C 92.62995 77.3013 93.84983 83.25374 94.20655 84.41508 C 94.64888 85.77802 95.59799 87.50332 97.33247 90.05822 C 97.88853 90.8515 98.47344 91.90793 98.65668 92.38359 C 98.9303 93.17915 99.05699 93.26974 99.8898 93.35463 C 100.46673 93.4225 101.67869 93.19133 103.09113 92.73333 C 106.28179 91.73423 107.8039 91.6227 110.59909 92.22997 C 113.32548 92.82633 117.41283 94.62555 120.09521 96.3903 C 120.69372 96.76718 121.90526 97.42921 122.80188 97.85331 C 123.67557 98.27377 124.59148 98.72443 124.82557 98.87904 C 125.0633 99.01072 125.99125 99.53381 126.87334 100.04963 C 129.82613 101.73967 130.47392 102.54748 130.19789 104.2903 C 129.97633 105.68914 128.83202 105.78999 128.409 104.4536 C 128.01004 103.26208 126.89044 102.16797 125.52792 101.7171 C 125.1719 101.59019 123.44632 100.61167 121.66284 99.55347 C 115.63305 95.91864 112.26863 94.30444 109.83786 93.91944 C 107.7052 93.58166 105.50218 93.98497 100.30877 95.60714 C 96.47104 96.83286 94.80998 97.22797 93.45928 97.29613 C 91.37954 97.36635 86.43809 97.10085 79.36035 96.52051 C 76.55292 96.28742 74.23068 96.10767 74.20412 96.12697 C 74.15462 96.14264 75.28241 97.7787 76.68766 99.7408 C 79.64893 103.90042 81.39588 105.63455 85.66013 108.54311 C 88.71533 110.62549 89.62284 110.98079 90.64181 110.48398 C 90.76114 110.42553 90.90165 110.3855 90.76667 112.0509 C 90.11184 112.27157 89.30068 112.78006 88.60053 113.42815 C 81.21742 120.41574 79.54162 121.34917 71.776 123.0341 L 68.75448 123.70738 L 66.79709 122.8567 C 64.7323 121.94199 64.315896 121.89955 62.15511 122.33305 C 61.011936 122.57511 60.65094 122.77651 60.01205 123.54509 C 59.34297 124.35589 59.22333 124.66604 59.100765 126.03354 C 58.78549 129.06303 60.540915 133.26674 63.998066 137.85752 C 65.359945 139.6482 66.43867 140.40672 67.99803 140.6537 C 69.07582 140.8244 69.270175 140.78467 70.18061 140.08261 C 71.30719 139.20323 72.76435 138.61127 73.97746 138.52132 C 75.18693 138.45431 79.91067 139.64911 80.50669 140.19014 C 81.34883 140.95822 83.28734 141.26426 84.24507 141.15212 C 85.20279 141.03997 87.069 139.74015 87.069 139.74015 C 87.069 139.74015 87.94274 140.07933 87.77498 141.15212 C 87.77498 141.15212 85.52528 142.81074 84.66052 142.78198 C 83.79576 142.75322 82.15172 143.01296 80.54557 142.1709 C 78.92012 141.30226 78.29256 141.10884 76.29749 140.79285 C 73.47688 140.34611 72.28784 140.58091 70.797775 141.82586 C 69.956136 142.5388 69.79426 142.81876 69.81812 143.41022 C 69.85152 144.23825 70.72115 145.57485 72.0049 146.67144 L 72.931505 147.49991 L 81.00464 148.91961 L 85.1741 149.65283 L 89.07777 150.33931 L 95.52532 153.7112 C 104.23428 158.24052 105.44468 158.76133 109.7268 159.6276 C 112.67748 160.21836 113.22461 160.30244 115.69771 160.1876 C 115.50579 160.35381 115.31764 160.51691 115.13345 160.67682 C 114.609 161.13214 114.20338 161.5962 113.90358 162.06691 L 111.60354 162.08879 L 112.01783 163.48056 C 112.79407 165.10122 113.47935 166.24608 114.00814 167.02446 Z"/>
               <path d="M 114.00814 167.02445 C 116.5092 171.58027 124.28869 176.0954 126.99708 178.90572 C 130.99331 183.05236 130.33315 182.67765 132.15288 184.44847 C 133.9726 186.21929 134.64762 186.83293 136.26325 188.12792 C 137.87888 189.4229 138.26026 189.39203 139.65617 190.3158 C 141.05208 191.23958 145.35397 194.29977 146.89639 195.83927 C 148.21239 197.15325 149.64622 198.25639 151.86242 199.50832 C 152.25965 197.32927 154.02292 189.77152 154.97884 190.44478 C 155.43955 190.76587 155.4533 191.0282 155.22864 192.38803 C 153.84623 200.51603 153.62136 202.81296 153.8414 206.69768 C 154.13875 212.05794 155.232 215.9791 158.868 224.5017 L 160.48073 228.29698 L 159.91966 229.1977 C 159.60028 229.6912 156.77967 232.9626 153.6104 236.48243 C 147.334 243.45308 147.01985 243.73258 142.62203 246.39616 C 140.2488 247.85217 138.69008 249.4792 137.15184 252.12445 C 135.95889 254.1433 136.23594 256.0309 135.65236 258.95983 C 135.16667 261.33333 133.93713 263.36197 134.4375 263.8125 C 135.40373 264.6825 143.05977 266.28932 144.99629 265.28363 C 146.71016 264.42114 155.66667 262.20833 155.66667 262.20833 C 155.66667 262.20833 154.92756 257.85102 155.42533 254.48763 C 155.81592 251.90254 156.38057 250.44268 157.23324 249.77327 C 157.5819 249.52484 158.9023 248.68297 160.16398 247.9757 C 161.42394 247.23562 165.82004 244.53925 169.94344 241.97225 C 174.04959 239.3897 178.66662 236.51736 180.1786 235.5668 C 183.52185 233.48457 187.2691 230.64136 187.6731 229.8804 C 188.18068 228.90027 188.39853 227.0969 188.46852 222.786 C 188.51218 220.48212 188.5955 218.30769 188.6439 217.97635 C 188.76488 217.14802 190.06314 214.9428 191.8153 212.61514 C 193.58472 210.30302 194.45142 208.6465 195.05071 206.59298 C 195.78818 204.03903 195.89728 202.35644 195.9096 193.4947 C 195.93265 190.79734 196.04353 188.83518 196.2455 188.61088 C 196.41639 188.42109 196.81853 188.25205 197.1309 188.25212 C 197.52594 188.25336 197.80298 188.30838 197.98887 188.52145 C 197.60793 194.20655 198.7179 202.09825 196.2365 208.04381 C 195.84868 208.97302 195.47282 209.78064 195.1109 210.49162 L 195.11089 210.49163 C 199.52525 210.35016 204.43641 209.5551 204.48887 209.61986 C 204.55086 209.69642 206.6921 209.31448 209.26838 208.79151 C 214.58987 207.6933 215.48455 207.51783 216.39263 208.4777 C 216.9855 209.10724 217.61964 209.50424 218.40607 209.4476 C 218.89396 209.40594 219.75297 208.63344 219.72003 207.83623 C 219.66996 206.3135 221.56527 206.18526 225.03958 205.33646 C 229.42531 204.25661 233.56676 203.0577 236.04333 202.15073 C 238.88325 201.11852 239.9593 201.3612 240.8581 202.0445 C 241.259 202.3445 242.01142 202.67004 242.67304 202.46471 C 243.33465 202.25939 243.4528 201.51934 243.545 200.6419 C 243.59355 200.1801 243.71517 200.1818 244.42705 199.3955 C 245.13894 198.60922 247.66428 197.97932 247.66428 197.97932 C 248.93293 197.45899 252.10215 196.18124 254.71117 195.12476 C 257.32018 194.06829 260.18194 192.82826 261.07144 192.36146 C 263.2952 191.19446 264.10972 191.9849 264.63578 192.1396 C 265.063 192.26833 265.93105 192.42624 266.44282 192.10807 C 266.88482 191.84152 267.1867 191.6544 267.3227 190.73702 C 267.3877 190.35574 267.66998 189.59806 268.00648 189.23835 C 268.18405 189.06097 268.42588 188.8034 268.7624 188.48711 C 268.3216 186.79615 268.00323 185.7789 267.78955 183.5859 C 267.35656 179.14192 266.35074 171.089 266.0636 170.44406 C 265.77644 169.79911 265.15324 164.43883 264.13438 162.93286 C 263.12078 161.43467 262.97707 161.76908 258.17376 157.82338 C 258.2387 157.8046 258.3042 157.78406 258.37032 157.76177 C 258.41626 157.79955 258.46178 157.83694 258.5069 157.87396 C 258.47524 157.76867 258.498 157.67857 258.55812 157.5832 C 259.09203 156.71102 260.38814 157.09156 262.64655 158.81395 C 266.13743 161.46508 266.85216 163.38097 268.35508 173.90794 C 269.29215 180.57553 270.96048 189.1098 271.84075 191.86992 C 272.39168 193.62127 273.4642 195.58066 275.46387 198.4648 C 278.0034 202.18748 279.1306 203.20135 285.93318 207.89576 C 292.42753 212.39902 293.31662 212.71954 306.363 215.12968 C 310.0685 215.80465 313.26174 216.5047 313.49774 216.68255 C 313.83864 216.93944 314.0171 217.87564 314.74775 222.9076 C 315.5782 228.81646 315.5782 228.81646 315.25605 231.8628 C 315.0116 233.96038 314.65976 235.6276 314.078 237.3271 C 313.63172 238.6559 313.26125 239.85682 313.28063 239.99477 C 313.3291 240.33965 307.59572 247.75715 306.4802 248.8283 C 305.4667 249.79135 298.12737 258.7944 297.1785 260.21728 C 296.30866 261.53527 295.96118 262.73295 295.8881 264.54855 C 295.77476 266.74494 296.12784 267.42214 297.8363 268.4012 C 299.44312 269.32423 300.70008 269.59305 303.25465 269.58572 C 305.6188 269.55825 314.00606 269.01254 315.70745 268.77342 L 316.972 268.5957 L 318.629 266.2058 C 323.26413 259.4819 323.56203 258.43188 322.81685 251.12772 C 322.28704 245.85654 322.1753 241.5582 322.5484 239.20808 C 323.1048 235.6599 324.74318 232.8037 331.6992 223.40905 C 334.57778 219.53451 336.976 216.07917 337.0655 215.7149 C 337.5298 213.6802 336.11536 210.4559 333.0966 206.6599 C 328.94493 201.47571 328.86378 201.0651 330.67154 195.91085 C 331.35247 193.91604 332.31477 190.9204 332.7848 189.26004 C 333.2778 187.59643 333.75753 186.00503 333.9027 185.70328 C 334.0281 185.42775 334.28795 183.77347 334.47238 182.0829 C 334.8851 178.17977 334.6701 175.98264 333.07112 167.2745 C 331.907 160.82639 331.5493 159.28234 330.5843 156.25278 C 330.33 155.44446 329.94214 154.18601 329.72055 153.44344 C 329.17645 151.5739 327.2204 146.8314 326.9449 146.706 C 326.84323 146.64995 326.62375 146.4229 326.51923 146.17968 C 326.39495 145.96269 324.5156 143.60088 322.35462 140.90352 C 314.182 130.79811 312.53694 127.41087 310.2829 124.67173 C 308.0289 121.9326 308.3306 122.18137 302.99573 119.47861 C 297.66085 116.77586 290.9823 114.90555 282.34035 114.81185 C 273.6984 114.71816 276.19327 114.9379 271.1555 115.19725 C 266.48668 115.4376 264.55157 115.3547 259.69235 115.9425 C 259.69823 115.90558 259.66833 115.97629 259.67408 115.94029 L 259.67407 115.94028 C 252.03682 117.04478 248.05808 121.41122 228.89666 117.76466 L 228.89666 117.76466 L 223.0314 116.71582 C 217.57962 116.16616 216.4093 115.97312 212.47289 114.9991 C 207.12429 113.68988 194.96525 111.87496 188.56559 111.45913 C 186.3392 111.31851 182.41992 111.07 179.87026 110.8954 C 175.55602 110.62872 166.22275 110.58157 163.53462 110.83599 C 162.87353 110.90658 161.51244 110.97363 160.48432 110.9823 C 159.96905 110.98786 159.41264 110.99602 158.82639 111.00641 C 157.85924 109.8312 156.97305 108.8492 156.3004 108.23648 C 152.78949 105.0241 148.86288 102.80371 138.88768 98.40295 C 136.77703 97.48098 134.8655 96.63756 134.67001 96.53607 C 134.45159 96.43096 133.735 95.61225 133.03295 94.70182 C 131.5975 92.78195 130.4997 91.55026 130.15572 91.49578 C 130.04106 91.47762 129.83717 91.28078 129.7057 91.0719 C 129.4271 90.60465 127.98033 89.64678 126.42844 88.90734 C 125.81904 88.59925 121.73262 87.38786 117.38669 86.18238 C 106.59848 83.20431 103.999 82.25193 96.3011 78.61148 C 94.74922 77.87203 93.28543 77.17005 93.09357 77.04563 C 92.87878 76.91759 92.69896 76.8656 92.68806 76.93439 C 92.62995 77.3013 93.84983 83.25374 94.20655 84.41508 C 94.64888 85.77802 95.59799 87.50332 97.33247 90.05822 C 97.88853 90.8515 98.47344 91.90793 98.65668 92.38359 C 98.9303 93.17915 99.05699 93.26974 99.8898 93.35463 C 100.46673 93.4225 101.67869 93.19133 103.09113 92.73333 C 106.28179 91.73423 107.8039 91.6227 110.59909 92.22997 C 113.32548 92.82633 117.41283 94.62555 120.09521 96.3903 C 120.69372 96.76718 121.90526 97.42921 122.80188 97.85331 C 123.67557 98.27377 124.59148 98.72443 124.82557 98.87904 C 125.0633 99.01072 125.99125 99.53381 126.87334 100.04963 C 129.82613 101.73967 130.47392 102.54748 130.19789 104.2903 C 129.97633 105.68914 128.83202 105.78999 128.409 104.4536 C 128.01004 103.26208 126.89044 102.16797 125.52792 101.7171 C 125.1719 101.59019 123.44632 100.61167 121.66284 99.55347 C 115.63305 95.91864 112.26863 94.30444 109.83786 93.91944 C 107.7052 93.58166 105.50218 93.98497 100.30877 95.60714 C 96.47104 96.83286 94.80998 97.22797 93.45928 97.29613 C 91.37954 97.36635 86.43809 97.10085 79.36035 96.52051 C 76.55292 96.28742 74.23068 96.10767 74.20412 96.12697 C 74.15462 96.14264 75.28241 97.7787 76.68766 99.7408 C 79.64893 103.90042 81.39588 105.63455 85.66013 108.54311 C 88.71533 110.62549 89.62284 110.98079 90.64181 110.48398 C 90.76114 110.42553 90.90165 110.3855 90.76667 112.0509 C 90.11184 112.27157 89.30068 112.78006 88.60053 113.42815 C 81.21742 120.41574 79.54162 121.34917 71.776 123.0341 L 68.75448 123.70738 L 66.79709 122.8567 C 64.7323 121.94199 64.315896 121.89955 62.15511 122.33305 C 61.011936 122.57511 60.65094 122.77651 60.01205 123.54509 C 59.34297 124.35589 59.22333 124.66604 59.100765 126.03354 C 58.78549 129.06303 60.540915 133.26674 63.998066 137.85752 C 65.359945 139.6482 66.43867 140.40672 67.99803 140.6537 C 69.07582 140.8244 69.270175 140.78467 70.18061 140.08261 C 71.30719 139.20323 72.76435 138.61127 73.97746 138.52132 C 75.18693 138.45431 79.91067 139.64911 80.50669 140.19014 C 81.34883 140.95822 83.28734 141.26426 84.24507 141.15212 C 85.20279 141.03997 87.069 139.74015 87.069 139.74015 C 87.069 139.74015 87.94274 140.07933 87.77498 141.15212 C 87.77498 141.15212 85.52528 142.81074 84.66052 142.78198 C 83.79576 142.75322 82.15172 143.01296 80.54557 142.1709 C 78.92012 141.30226 78.29256 141.10884 76.29749 140.79285 C 73.47688 140.34611 72.28784 140.58091 70.797775 141.82586 C 69.956136 142.5388 69.79426 142.81876 69.81812 143.41022 C 69.85152 144.23825 70.72115 145.57485 72.0049 146.67144 L 72.931505 147.49991 L 81.00464 148.91961 L 85.1741 149.65283 L 89.07777 150.33931 L 95.52532 153.7112 C 104.23428 158.24052 105.44468 158.76133 109.7268 159.6276 C 112.67748 160.21836 113.22461 160.30244 115.69771 160.1876 C 115.50579 160.35381 115.31764 160.51691 115.13345 160.67682 C 114.609 161.13214 114.20338 161.5962 113.90358 162.06691 L 111.60354 162.08879 L 112.01783 163.48056 C 112.79407 165.10122 113.47935 166.24608 114.00814 167.02446 Z"
                     stroke="black"
                     stroke-linecap="round"
                     stroke-linejoin="round"
                     stroke-width="4.2523"/>
            </g>
            <g>
               <g  id="feature-1">
                  <path
                        d="M 250.24803 264.68614 C 252.47733 265.66174 254.40326 265.51654 267.27163 263.4806 L 269.04 263.18326 L 269.08456 263.93786 C 269.10667 264.60234 268.8181 266.80392 268.26992 269.8838 C 267.82346 272.41188 265.51854 275.25976 262.4935 277.0429 C 261.34434 277.7123 260.2235 278.1114 255.7798 279.2911 C 250.15336 280.81358 249.78168 280.8584 249.54015 279.8897 C 249.41097 279.37155 249.47867 279.16324 251.62258 272.69445 C 253.37718 267.44737 253.44525 266.6647 252.2062 266.9736 C 251.59795 267.12527 251.40625 267.50806 249.96765 271.71922 C 249.11014 274.23015 248.2694 276.9044 248.08876 277.61943 L 247.75567 278.9707 L 246.02102 279.4032 C 245.07484 279.6391 244.21884 279.7568 244.1288 279.68355 C 243.9656 279.50888 248.29896 265.79424 248.82895 264.75282 C 249.1334 264.15048 249.08835 264.16172 250.24803 264.68614 Z"
                        fill="#ff0000"/>
               </g>
               <path d="M 250.24803 264.68614 C 252.47733 265.66174 254.40326 265.51654 267.27163 263.4806 L 269.04 263.18326 L 269.08456 263.93786 C 269.10667 264.60234 268.8181 266.80392 268.26992 269.8838 C 267.82346 272.41188 265.51854 275.25976 262.4935 277.0429 C 261.34434 277.7123 260.2235 278.1114 255.7798 279.2911 C 250.15336 280.81358 249.78168 280.8584 249.54015 279.8897 C 249.41097 279.37155 249.47867 279.16324 251.62258 272.69445 C 253.37718 267.44737 253.44525 266.6647 252.2062 266.9736 C 251.59795 267.12527 251.40625 267.50806 249.96765 271.71922 C 249.11014 274.23015 248.2694 276.9044 248.08876 277.61943 L 247.75567 278.9707 L 246.02102 279.4032 C 245.07484 279.6391 244.21884 279.7568 244.1288 279.68355 C 243.9656 279.50888 248.29896 265.79424 248.82895 264.75282 C 249.1334 264.15048 249.08835 264.16172 250.24803 264.68614 Z"
                     stroke="black"
                     stroke-linecap="round"
                     stroke-linejoin="round"
                     stroke-width="4.2523"/>
            </g>
            <g>
               <g  id="feature-2">
                  <path
                        d="M 297.12925 270.3822 C 299.24436 271.58546 301.1749 271.64238 314.1856 270.9627 L 315.97536 270.85184 L 315.9408 271.60696 C 315.89333 272.2701 315.3762 274.42947 314.5091 277.43517 C 313.80084 279.90274 311.21086 282.4941 308.016 283.95127 C 306.80316 284.49685 305.64674 284.7766 301.10408 285.48538 C 295.34932 286.4114 294.975 286.4171 294.83605 285.42846 C 294.76173 284.89965 294.85083 284.69956 297.65918 278.4903 C 299.95263 273.45537 300.10214 272.6841 298.8376 272.8618 C 298.2168 272.94906 297.98615 273.30972 296.11525 277.34743 C 294.99997 279.75498 293.8843 282.3267 293.6299 283.01893 L 293.1574 284.32796 L 291.38704 284.57677 C 290.4214 284.7125 289.55777 284.74007 289.47587 284.6578 C 289.33183 284.46703 295.07503 271.28048 295.71097 270.30017 C 296.07672 269.73295 296.03074 269.73942 297.12925 270.3822 Z"
                        fill="#ff0000"/>
               </g>
               <path d="M 297.12925 270.3822 C 299.24436 271.58546 301.1749 271.64238 314.1856 270.9627 L 315.97536 270.85184 L 315.9408 271.60696 C 315.89333 272.2701 315.3762 274.42947 314.5091 277.43517 C 313.80084 279.90274 311.21086 282.4941 308.016 283.95127 C 306.80316 284.49685 305.64674 284.7766 301.10408 285.48538 C 295.34932 286.4114 294.975 286.4171 294.83605 285.42846 C 294.76173 284.89965 294.85083 284.69956 297.65918 278.4903 C 299.95263 273.45537 300.10214 272.6841 298.8376 272.8618 C 298.2168 272.94906 297.98615 273.30972 296.11525 277.34743 C 294.99997 279.75498 293.8843 282.3267 293.6299 283.01893 L 293.1574 284.32796 L 291.38704 284.57677 C 290.4214 284.7125 289.55777 284.74007 289.47587 284.6578 C 289.33183 284.46703 295.07503 271.28048 295.71097 270.30017 C 296.07672 269.73295 296.03074 269.73942 297.12925 270.3822 Z"
                     stroke="black"
                     stroke-linecap="round"
                     stroke-linejoin="round"
                     stroke-width="4.2523"/>
            </g>
            <g>
               <g  id="feature-3">
                  <path
                        d="M 136.38286 264.88112 C 141.79034 267.28186 144.42208 266.67295 151.90216 264.9547 C 154.02905 264.44686 155.85035 264.01422 155.91378 264.0312 C 156.10408 264.0822 155.47004 267.1741 155.27625 268.27795 C 154.9527 269.9929 155.03763 275.06934 153.32975 276.55326 C 151.08794 278.49404 145.6352 279.6387 140.00441 281.65338 C 135.21935 283.36546 135.52945 283.4166 134.92685 283.25512 C 134.57798 283.16164 134.22288 282.9645 134.13001 282.80366 C 133.9907 282.56237 135.16513 278.55995 137.75299 270.55115 C 138.13086 269.39466 138.10992 269.2191 137.66506 268.91293 C 136.78385 268.2689 136.31144 268.89015 135.35714 271.88078 C 134.85718 273.42947 134.12467 275.78267 133.6842 277.10935 L 132.91458 279.5376 L 131.9169 279.89913 C 131.1837 280.16158 130.67397 280.16097 129.99322 279.91058 C 129.46255 279.7344 128.98909 279.47155 128.91943 279.3509 C 128.78013 279.10963 131.25501 270.9516 132.62056 267.18733 C 133.15534 265.69896 133.783 264.37145 134.00417 264.24375 C 134.28567 264.08123 135.04685 264.2852 136.38286 264.88112 Z"
                        fill="#ff0000"/>
               </g>
               <path d="M 136.38286 264.88112 C 141.79034 267.28186 144.42208 266.67295 151.90216 264.9547 C 154.02905 264.44686 155.85035 264.01422 155.91378 264.0312 C 156.10408 264.0822 155.47004 267.1741 155.27625 268.27795 C 154.9527 269.9929 155.03763 275.06934 153.32975 276.55326 C 151.08794 278.49404 145.6352 279.6387 140.00441 281.65338 C 135.21935 283.36546 135.52945 283.4166 134.92685 283.25512 C 134.57798 283.16164 134.22288 282.9645 134.13001 282.80366 C 133.9907 282.56237 135.16513 278.55995 137.75299 270.55115 C 138.13086 269.39466 138.10992 269.2191 137.66506 268.91293 C 136.78385 268.2689 136.31144 268.89015 135.35714 271.88078 C 134.85718 273.42947 134.12467 275.78267 133.6842 277.10935 L 132.91458 279.5376 L 131.9169 279.89913 C 131.1837 280.16158 130.67397 280.16097 129.99322 279.91058 C 129.46255 279.7344 128.98909 279.47155 128.91943 279.3509 C 128.78013 279.10963 131.25501 270.9516 132.62056 267.18733 C 133.15534 265.69896 133.783 264.37145 134.00417 264.24375 C 134.28567 264.08123 135.04685 264.2852 136.38286 264.88112 Z"
                     stroke="black"
                     stroke-linecap="round"
                     stroke-linejoin="round"
                     stroke-width="4.2523"/>
            </g>
            <g>
               <g  id="outline-2">
                  <path
                        d="M 91.16191 115.80843 C 90.19856 116.10249 89.65888 116.39312 89.50904 116.7455 C 89.2021 117.49613 89.60262 117.93568 90.20633 117.53765 C 91.01891 117.00815 91.17331 117.22066 91.05915 118.68352 C 90.9536 119.79515 91.04512 120.25627 91.50945 121.03503 C 92.63226 122.9994 93.59062 123.03366 96.38097 121.1484 C 98.43115 119.78061 99.58408 119.32853 100.63894 119.4956 C 101.28104 119.5973 101.32783 120.19239 100.70824 120.98752 C 100.20217 121.6596 99.78442 121.92253 98.39127 122.40709 C 96.99813 122.89165 96.82785 123.07624 97.34667 123.51102 C 98.43856 124.4832 101.92299 122.51982 102.19902 120.777 C 102.26076 120.38716 102.56158 119.82363 102.86468 119.54253 C 103.46725 119.00328 103.69087 118.33348 103.30103 118.27174 C 103.16344 118.24995 102.70231 118.34146 102.27978 118.4861 C 101.36229 118.78742 100.33285 118.45983 98.41427 117.21567 C 97.8387 116.84242 95.65313 116.09664 93.9514 115.70958 C 92.79641 115.43262 92.36911 115.45897 91.16191 115.80843 Z"
                        fill="black"/>
               </g>
            </g>
            <g>
               <path d="M 96.18177 118.69563 C 96.03286 119.63583 95.02094 120.53338 94.30165 120.32542 C 93.42184 120.09205 93.53329 119.23994 94.53908 118.52948 C 95.54851 117.79609 96.31252 117.87008 96.18177 118.69563 Z"
                     fill="white"/>
            </g>
            <g>
               <g  id="outline-3">
                  <path
                        d="M 90.75911 122.65571 C 90.62857 123.03465 90.47624 123.55119 90.43629 123.80344 C 90.39634 124.05569 89.95543 124.76159 89.4337 125.38417 C 88.74169 126.19134 88.18385 126.59663 87.36898 126.84369 C 85.6825 127.39932 84.84221 127.8069 84.96278 128.08457 C 85.09902 128.41174 86.26263 128.33746 87.50729 127.8999 C 88.40184 127.59495 88.94038 127.1631 90.83753 125.27741 C 91.56814 124.52337 92.00947 122.92427 91.59691 122.41229 C 91.14575 121.84719 91.04676 121.87852 90.75911 122.65571 Z"
                        fill="black"/>
               </g>
            </g>
            <g>
               <g  id="outline-4">
                  <path
                        d="M 67.21335 125.71997 C 67.09983 125.84303 67.25537 126.19677 67.536464 126.49986 C 67.81756 126.80296 68.03826 127.19052 68.016466 127.32812 C 67.99104 127.48864 68.55529 128.82388 69.277574 130.3487 C 70.757105 133.4744 71.05095 134.88436 70.42638 136.0078 C 69.93712 136.8706 69.99708 137.67933 70.57038 137.77013 C 71.28126 137.88272 71.59049 137.41455 71.8411 135.83225 C 72.1244 134.04357 71.70023 132.56596 70.04928 129.48363 C 69.483675 128.45377 68.89763 127.25611 68.71076 126.80339 C 68.27797 125.67703 67.6445 125.22409 67.21335 125.71997 Z"
                        fill="black"/>
               </g>
            </g>
            <g>
               <g  id="outline-5">
                  <path
                        d="M 63.25527 126.22141 C 62.68539 126.55428 62.674495 126.62307 62.768074 127.81325 C 62.866425 129.12171 63.77195 131.12219 64.350015 131.33128 C 64.55277 131.3869 64.86427 131.20117 65.05271 130.90192 C 65.48272 130.26481 65.788095 130.26617 66.19453 130.96523 C 66.81326 131.9565 67.337274 131.61636 67.57699 130.10286 C 67.67505 129.4837 67.50748 129.05754 66.565424 127.73298 C 65.60407 126.38186 65.31571 126.12462 64.62776 126.01566 C 64.19205 125.94665 63.56677 126.03568 63.25527 126.22141 Z"
                        fill="black"/>
               </g>
            </g>
            <g>
               <g  id="outline-6">
                  <path
                        d="M 137.29538 149.41966 C 135.67976 150.71524 133.71175 151.86097 130.98928 153.1693 C 129.84112 153.73967 125.29998 154.36033 122.98615 154.27594 C 121.88656 154.24282 120.40917 154.2204 119.70306 154.22609 C 118.99694 154.23179 117.39649 154.09584 116.15817 153.8997 C 114.13654 153.60302 113.89996 153.61256 113.91427 153.96743 C 113.92496 154.34524 114.3727 154.48668 117.55409 155.17862 C 120.21169 155.76409 121.5683 155.95545 122.60999 155.90887 C 123.39216 155.8682 124.77782 155.8761 125.66376 155.9224 C 126.57263 155.97232 127.73624 155.89804 128.27706 155.74863 C 130.78681 155.0413 131.9747 154.66528 132.71237 154.31197 C 133.14216 154.12146 134.02468 153.74409 134.69832 153.49817 C 135.34903 153.24863 135.89234 152.93506 135.90687 152.84334 C 135.9323 152.68281 136.71603 151.89017 137.8149 150.88886 C 138.86065 149.92615 139.88482 148.65443 139.81375 148.36109 C 139.67886 147.72854 139.15371 147.92745 137.29538 149.41966 Z"
                        fill="black"/>
               </g>
            </g>
            <g>
               <g  id="outline-7">
                  <path
                        d="M 93.38553 143.02919 C 93.27201 143.15225 93.37079 143.56752 93.59149 143.95508 C 93.78926 144.33901 94.35123 145.3918 94.7974 146.28522 C 96.03829 148.69142 97.43898 150.08862 99.89952 151.32459 C 101.94252 152.37689 102.7885 152.67543 102.84298 152.33145 C 102.85751 152.23972 101.58216 151.23849 100.00029 150.09468 C 96.87879 147.83725 95.41542 146.24206 94.5015 144.14623 C 93.94928 142.88341 93.70316 142.65637 93.38553 143.02919 Z"
                        fill="black"/>
               </g>
            </g>
         </g>
      </g>
   </g>
</svg>