<?xml version="1.0" encoding="utf-8"?>
<svg xmlns="http://www.w3.org/2000/svg" xmlns:dc="http://purl.org/dc/elements/1.1/"
     xmlns:xl="http://www.w3.org/1999/xlink"
     xmlns:xlink="http://www.w3.org/1999/xlink"
     version="1.1"
     viewBox="54 71.86985 310.5 218.42695"
     width="310.5"
     height="218.42695"
     preserveAspectRatio="xMidYMid meet"
     zoomAndPan="magnify"
     contentScriptType="application/ecmascript"
     contentStyleType="text/css">
   <defs/>
   <metadata xmlns="" xmlns:svg="http://www.w3.org/2000/svg"
             xmlns:rdf="http://www.w3.org/1999/02/22-rdf-syntax-ns#"
             xmlns:cc="http://creativecommons.org/ns#">
      <rdf:RDF>
         <cc:Work rdf:about="">
            <dc:creator>
               <cc:Agent>
                  <dc:title>http://heraldicart.org Sow Passant.svg</dc:title>
               </cc:Agent>
            </dc:creator>
         </cc:Work>
      </rdf:RDF>
   </metadata>
   <g stroke-opacity="1" stroke-dasharray="none" stroke="#505050" fill="#ffff00"
      fill-opacity="1">
      <title>Sow Passant</title>
      <g>
         <title>Art</title>
         <g>
            <g>
               <g  id="outline-0">
                  <path
                        d="M 325.3167 114.32815 C 324.5467 114.83957 323.46666 115.45123 322.88543 115.68606 C 321.57228 116.2166 321.48574 116.12636 320.26266 112.78924 C 319.4488 110.58892 319.39617 110.33472 319.59885 109.10095 C 319.90742 107.32357 320.76177 106.27724 322.44088 105.59884 C 325.66993 104.29422 328.15094 106.09642 328.23266 109.76948 C 328.2835 112.00263 327.9019 112.60755 325.3167 114.32815 Z M 151.80748 202.13882 C 151.76205 202.47488 151.72252 202.80246 151.68906 203.1251 C 151.44363 203.072 151.36073 202.92782 151.51961 202.65157 Z M 313.92714 125.84868 C 314.52077 125.63773 315.2654 125.38128 315.94233 125.15217 L 318.0483 124.4766 L 319.61713 125.57057 C 320.4643 126.17986 322.7448 127.36191 324.6879 128.20453 C 328.2287 129.77887 330.71866 130.42557 336.1928 131.26889 C 337.4481 131.46286 339.6697 131.81732 341.1279 132.07958 C 344.51 132.64128 345.77726 132.55497 347.60663 131.69065 C 349.0013 131.05204 349.86066 130.20402 352.89187 126.55035 C 353.1924 126.17852 353.90148 125.51641 354.469 125.06175 C 357.1734 122.89234 358.3376 120.44372 358.0515 117.50432 C 358.01583 117.16815 358.24416 115.87392 358.54164 114.62689 C 359.5367 110.64398 359.405 107.46691 358.13015 104.12566 C 357.55155 102.6316 357.50393 102.57571 356.9827 102.71117 C 356.6424 102.79858 355.40928 104.02299 353.66992 105.97779 C 350.33733 109.75322 349.10333 110.72757 346.61402 111.50795 C 345.64074 111.82606 343.60807 112.49706 342.0966 113.03261 C 339.5688 113.90366 339.2546 114.05565 338.4383 114.88627 C 337.31694 116.01544 336.41474 118.18291 335.73585 121.33692 L 335.2096 123.75315 L 332.3835 123.1421 C 330.81725 122.7983 329.11685 122.30838 328.62 122.0083 L 327.71282 121.49839 L 329.41346 120.81128 L 329.41346 120.81128 C 332.44877 119.58494 334.71304 117.3179 336.06014 114.14432 C 337.45856 110.84985 337.4825 107.81021 336.0996 104.38741 C 335.4647 102.81593 335.03526 102.06292 334.09157 100.96678 C 330.41204 96.69396 324.90594 95.3377 319.71793 97.43379 C 316.29513 98.81669 314.12523 100.94544 312.7268 104.23991 C 311.2001 107.83663 311.27835 110.50945 313.04394 114.87944 L 314.2181 117.78559 L 311.1545 118.18774 C 310.63476 117.9782 308.10113 118.5088 306.6096 119.0124 C 293.05194 110.51335 272.66272 112.257 264.21965 113.46228 L 264.21965 113.46228 C 259.771 113.58617 254.82157 114.2258 252.00215 115.25168 C 242.17955 118.82575 232.1992 115.798 228.6329 115.25193 C 225.06662 114.70586 219.43566 113.8821 219.43566 113.8821 C 214.81632 113.18648 209.17247 112.2431 206.91078 111.77193 C 201.99487 110.78834 186.23136 109.06149 180.59736 108.9129 C 178.66386 108.8731 175.43244 108.74357 173.38592 108.66855 C 169.3184 108.49784 165.32139 108.54464 162.39992 108.79788 C 161.95754 108.84094 161.09076 108.88606 160.00252 108.92925 L 160.00251 108.92925 C 158.33843 107.01881 156.67262 105.45345 155.04584 104.28592 C 151.81694 101.96447 143.96351 97.97028 137.18495 95.20416 C 136.45726 94.90084 135.77792 94.44064 135.46913 94.01562 C 134.44987 92.5848 131.67277 89.48866 130.7389 88.70606 C 129.40565 87.62513 127.3747 86.64526 124.68825 85.79664 C 123.45606 85.41343 122.31923 85.0218 122.16597 84.95052 C 122.01634 84.8563 121.09067 84.61566 120.13843 84.39432 C 116.78447 83.60452 109.57341 81.63966 107.58696 80.97243 C 104.70503 80.02233 101.17646 78.40564 97.67216 76.4872 C 94.31749 74.66299 93.16976 74.34016 92.11333 74.925065 C 91.05691 75.50997 90.86897 77.29025 91.56269 80.47955 C 92.67674 85.61599 93.38563 87.37376 96.02222 91.50547 C 97.32122 93.54476 97.40682 93.74637 97.00473 94.0588 C 95.7912 95.04195 88.69622 95.16409 81.82986 94.28813 C 77.95552 93.81554 73.83599 93.70373 72.93054 94.07748 C 72.80135 94.15104 72.622454 94.68688 72.52802 95.28311 C 72.31736 96.61315 72.70564 97.42687 74.88288 100.45152 C 76.89005 103.21416 80.04973 106.41792 82.84179 108.52914 C 84.10147 109.48088 85.55778 110.67532 86.085 111.20546 L 87.02001 112.12928 L 84.74734 114.30809 C 81.17169 117.73796 77.10785 119.79763 71.57907 121.01409 L 69.07182 121.55726 L 67.37871 120.81895 C 65.31392 119.90425 64.96994 119.84977 62.72355 120.08165 C 60.76324 120.28832 59.89276 120.73813 58.66448 122.2596 C 58.05216 123.00888 57.834665 123.49158 57.66396 124.56938 C 57.29463 127.04965 58.2186 130.86309 59.93471 133.97925 C 61.46872 136.76098 62.63625 138.59139 63.25997 139.25435 C 64.14548 140.19384 65.97233 141.42346 67.205665 141.9479 C 67.77647 142.20286 68.11069 142.46736 68.07437 142.69668 C 67.892766 143.84327 70.30139 147.63328 71.83989 148.60567 C 72.73765 149.171 73.33024 149.28836 80.37757 150.35753 L 87.9487 151.53317 L 94.13559 154.76976 C 101.51108 158.66474 105.20018 160.30685 108.32959 161.17862 C 109.72594 161.56433 110.04497 161.73277 110.40174 162.14314 C 111.62947 169.20995 116.756 171.93424 121.14749 176.39195 C 123.93888 179.22542 126.5464 181.84281 128.7486 183.97788 C 123.6981 186.11963 121.4808 187.44756 119.12207 189.62249 C 118.58315 190.13444 117.11648 191.5177 115.85653 192.7016 C 114.58427 193.90517 112.96994 195.30567 112.27597 195.80287 C 111.56969 196.31976 110.12761 197.4446 109.05712 198.28147 C 108.00633 199.13063 105.91947 200.45488 104.46751 201.24502 C 101.27075 202.94346 94.30618 205.54546 90.3784 206.48595 C 87.37843 207.21225 86.4605 207.76115 86.30803 208.92525 C 86.2613 209.30672 84.55355 211.6892 80.65324 216.83565 L 75.09192 224.20215 L 74.92467 225.30226 C 74.84598 225.91015 74.8633 226.93395 74.99133 227.5615 L 75.17356 228.71573 L 76.827495 229.74923 C 77.71353 230.30288 78.58233 230.70888 78.70291 230.64734 C 79.21725 230.3938 79.51509 230.88106 79.158285 231.45207 C 78.97373 231.7474 78.84335 232.35038 78.89508 232.79337 C 78.96159 233.51938 79.06743 233.6129 80.70167 234.63408 C 82.33592 235.65527 82.49835 235.702 83.58367 235.58624 C 84.2137 235.54188 85.59679 235.25627 86.66487 234.99283 C 89.07666 234.41918 99.64657 230.4288 100.72691 229.7076 C 101.38397 229.26947 101.93518 228.5188 103.80531 225.52596 C 105.97072 222.06058 106.15036 221.81692 107.75977 220.4681 C 108.68998 219.68047 109.60788 218.91253 109.84167 218.75746 C 110.87524 217.97967 111.63071 217.16499 113.2056 215.08278 C 116.4981 210.73376 115.85823 210.88149 127.45486 211.77622 C 136.268 212.43742 141.51009 212.59198 144.38458 212.19794 L 152.01882 210.90843 C 153.14353 217.83393 158.35618 228.4379 158.35618 228.4379 L 157.09684 229.5115 L 155.61217 231.32476 C 154.39001 232.7862 152.76392 234.69624 152.00268 235.5417 L 150.60447 237.09456 L 147.87202 239.4499 L 148.16708 239.46488 L 146.7741 240.80376 C 144.98929 242.5084 143.58256 243.58496 142.37786 244.12485 C 139.87525 245.30816 137.19625 248.1447 135.29196 251.64756 C 133.82274 254.35494 132.89733 257.00037 133.16018 262.32956 C 133.29766 264.95274 132.49054 266.62008 132.30356 267.27143 C 131.54179 270.1412 130.34341 277.77697 130.46329 281.94642 C 130.53332 285.16497 134.11144 285.24517 135.27813 284.921 C 136.21872 284.6744 157.43972 264.84694 157.5 265.36985 C 157.6119 266.5641 158.19834 268.29005 157.16357 258.09367 C 156.94163 255.8774 157.51954 252.29105 158.1565 251.58363 C 158.71578 250.9625 173.31768 241.92797 174.52581 241.45366 C 174.53025 241.45205 174.53467 241.45047 174.53909 241.44892 C 181.7777 237.0683 188.82125 232.657 189.75768 230.79078 C 191.75013 226.82003 190.1267 220.33237 191.08722 217.69568 C 191.75105 215.87342 192.92154 214.88627 194.4163 212.4496 C 197.7361 212.4645 202.72768 212.00228 204.57155 211.76412 C 206.69598 211.48972 214.188 210.184 214.83454 210.25196 C 215.22708 210.29322 217.51016 211.57967 218.91768 211.17215 C 220.98707 210.563 221.2946 209.93576 221.4143 208.9129 C 221.45995 208.4415 222.48985 208.09888 222.64053 207.998 C 222.93378 207.86147 229.52422 205.9625 229.52422 205.9625 L 236.30268 203.84417 C 237.68193 203.38215 238.3779 203.29616 239.07127 203.1828 C 239.76464 203.06944 240.928 204.76188 243.15288 204.01535 C 245.22056 203.33147 245.1134 201.65456 245.81613 201.25748 C 246.73396 200.73884 245.85665 200.90294 248.30528 200.03971 C 248.88614 199.84397 249.64563 199.50357 250.01626 199.30907 C 250.1603 199.22745 250.57197 199.0416 251.14328 198.79838 C 253.47336 208.115 254.0442 210.15207 254.69362 211.50546 C 255.9027 214.05148 256.8592 215.29656 258.98667 217.0154 C 261.45182 219.0329 263.97942 220.24518 267.65595 221.171 C 272.8076 222.4469 275.49816 224.21677 276.14977 226.7343 C 276.3969 227.72552 275.53257 232.1285 274.86168 233.37255 C 274.14006 234.70104 272.9177 235.36473 263.7814 239.50908 C 260.25532 241.1061 257.3712 242.6866 255.59094 243.9919 C 252.25015 246.42805 247.21124 253.85793 246.7193 257.06735 C 246.6345 257.591 246.74617 259.09457 246.9706 260.3786 L 247.3802 262.69325 L 244.56487 271.26764 C 243.03585 275.9799 241.8226 280.03918 241.89 280.3095 C 241.9518 280.55732 242.37945 281.02497 242.8354 281.31808 C 243.63468 281.83665 243.7304 281.8367 245.62276 281.3649 L 247.56017 280.88184 L 248.0609 281.54663 C 248.3197 281.9128 248.84317 282.2848 249.2148 282.3357 C 250.16634 282.50525 260.15754 279.9663 262.833 278.89246 C 268.17267 276.6997 269.80755 273.75567 270.83824 264.54946 C 270.9911 263.24314 271.3242 261.89188 271.64557 261.2614 C 273.32007 257.99642 274.83725 254.19638 275.8812 250.70575 L 276.4286 248.87035 L 279.1442 246.614 C 282.0401 244.21698 284.0851 242.82175 285.00874 242.59146 C 285.57194 242.45104 292.8109 237.70297 295.5771 235.64936 C 300.3714 232.13295 301.8203 229.40278 300.57777 226.33867 C 299.6613 224.10254 296.24643 219.04364 295.4695 218.80664 C 294.86844 218.61986 294.88966 216.3277 295.37175 214.76435 C 298.0622 215.53863 301.53038 216.2359 305.5356 216.797 C 306.92403 217.00046 308.9361 217.30382 309.98976 217.46054 L 311.95586 217.77037 L 312.5918 221.12753 C 313.26975 224.78358 313.51793 229.71922 313.13515 232.00036 C 312.78903 234.0419 311.72 237.77936 311.21553 238.6943 C 310.9518 239.1534 308.1232 242.71611 304.9393 246.58668 C 301.7324 250.46047 298.04117 255.0588 296.714 256.79276 C 294.64238 259.56916 294.30284 260.15613 294.03403 261.4131 C 293.629 263.36913 293.6101 265.90393 293.9944 267.30357 L 294.29713 268.45676 L 290.72957 276.43737 C 288.74296 280.8196 287.17132 284.65112 287.20687 284.90403 C 287.24564 285.17993 287.6221 285.68972 288.0449 286.02888 C 288.7856 286.62816 288.8808 286.63822 290.8121 286.3668 L 292.78938 286.0889 L 293.2179 286.8024 C 293.437 287.19363 293.9187 287.6183 294.28297 287.70777 C 295.2116 287.97584 305.41344 286.49517 308.1865 285.70687 C 313.7261 284.08427 315.65978 281.32726 317.65036 272.3022 C 318.0816 270.36593 318.33564 269.83787 319.93698 267.38546 C 324.9846 259.75955 325.38166 258.41422 324.7503 251.58643 C 324.20224 245.68477 324.02328 242.07582 324.17826 240.3425 C 324.49467 236.92183 326.00193 233.96684 330.33232 228.41117 C 334.54092 222.98985 338.1812 217.6953 338.66377 216.29106 C 338.9778 215.35598 339.012 214.76503 338.8052 213.29356 C 338.47884 210.9714 337.96556 209.98848 334.3391 204.87115 C 331.81895 201.28643 331.63253 200.96094 331.60854 199.95614 C 331.59388 199.1845 332.13325 197.35025 333.3528 193.84955 C 335.3952 188.02929 335.995 185.62386 336.5238 181.21206 C 336.8822 178.09029 336.8826 177.92611 336.2654 173.5347 C 335.70317 169.53414 334.0858 161.69609 332.60512 155.83171 C 332.3056 154.70151 331.9713 152.99006 331.84205 152.0704 C 331.8188 151.90507 331.79825 151.75515 331.7807 151.61842 L 331.7807 151.61842 C 331.5771 151.11684 331.3775 150.64468 331.18344 150.20885 C 328.31195 143.75938 330.03484 147.62906 325.5863 141.10895 C 325.46457 140.93051 325.3609 140.72898 325.27442 140.50575 L 325.00667 140.13584 C 324.13597 138.94524 322.5217 136.9682 321.4376 135.7607 C 319.37695 133.47366 315.40086 128.19152 313.92716 125.84867 Z"
                        fill="black"/>
               </g>
            </g>
            <g>
               <path d="M 312.6409 124.24764 C 313.23426 124.08916 314.34513 123.72625 315.59346 123.27302 C 316.57958 122.92468 316.61393 122.88576 316.3878 122.32606 C 315.692 120.6039 314.6854 119.61386 314.6854 119.61386 C 314.6854 119.61386 314.3954 119.66887 313.59368 119.74888 L 306.77527 120.80982 C 308.3947 121.9875 311.29807 122.71292 312.64092 124.24764 Z"/>
               <path d="M 312.6409 124.24764 C 313.23426 124.08916 314.34513 123.72625 315.59346 123.27302 C 316.57958 122.92468 316.61393 122.88576 316.3878 122.32606 C 315.692 120.6039 314.6854 119.61386 314.6854 119.61386 C 314.6854 119.61386 314.3954 119.66887 313.59368 119.74888 L 306.77527 120.80982 C 308.3947 121.9875 311.29807 122.71292 312.64092 124.24764 Z"
                     stroke="black"
                     stroke-linecap="round"
                     stroke-linejoin="round"
                     stroke-width="4.2523"/>
            </g>
            <g>
               <path d="M 348.2765 128.92412 C 348.67594 128.48728 349.56878 127.35028 350.2596 126.39506 C 350.95044 125.43984 351.93395 124.34133 352.463 123.97733 C 352.9618 123.6005 353.9201 122.68747 354.57287 121.94795 C 355.89995 120.46022 356.11306 119.7481 355.95826 117.38165 C 355.92087 116.54536 356.0209 115.55339 356.20922 115.15177 C 356.787 113.9167 357.2941 110.9573 357.18953 109.39692 C 357.11975 107.92265 356.594 105.50576 356.40025 105.58403 C 356.33567 105.61013 355.3178 106.74756 354.13685 108.10113 C 351.47443 111.1801 349.8273 112.37146 347.07965 113.2562 C 341.158 115.14789 340.11186 115.5956 339.39037 116.41296 C 338.5058 117.44646 337.9848 118.88397 337.2426 122.43917 C 336.72506 124.87692 336.5285 125.38204 336.0764 125.56469 C 335.5813 125.76473 334.3347 125.59228 330.676 124.84184 C 329.08822 124.50674 324.63652 122.59927 323.6163 121.8095 C 322.0383 120.56896 320.41685 118.4697 318.69474 114.20735 C 317.02483 110.07416 317.18445 109.60887 317.96162 107.44184 C 319.1013 104.1267 323.56608 102.34785 326.7103 103.93219 C 328.412 104.7972 328.93168 105.46367 329.65944 107.69878 C 330.43068 110.04153 330.41675 110.99872 329.5476 112.75217 C 328.93962 113.97442 328.75914 114.1475 326.9178 115.2921 C 325.84233 115.97703 324.4009 116.80983 323.7468 117.17425 C 322.3869 117.89898 322.64637 117.76554 322.64637 117.76554 C 322.64637 117.76554 322.39147 117.97226 324.2419 119.45329 L 325.27953 120.28611 L 328.035 119.17283 C 330.79045 118.05955 330.8335 118.04216 332.13492 116.61487 C 333.9045 114.6729 334.89238 112.34562 335.03853 109.73238 C 335.14467 108.01175 335.08705 107.55925 334.40365 105.68183 C 333.04967 101.89677 330.7139 99.71035 326.873 98.63287 C 324.52962 97.97703 322.37475 98.22163 319.70583 99.42515 C 317.85907 100.24641 317.48485 100.49777 316.32956 101.79089 C 314.55128 103.71133 313.5634 106.03862 313.39572 108.66055 C 313.39572 108.66055 313.1846 110.08062 313.35304 111.24214 C 313.5215 112.40366 313.3812 113.13612 314.7593 115.59564 C 316.13738 118.05515 318.27565 122.1643 319.46483 123.1863 C 320.4594 124.03652 325.40557 126.79594 327.04596 127.38523 C 328.46194 127.91494 336.0903 129.56565 336.4347 129.4265 C 336.52082 129.3917 337.7546 129.59437 339.1697 129.87402 C 343.47966 130.68688 344.9113 130.75953 346.31057 130.19419 C 347.0425 129.89847 347.834 129.37836 348.2765 128.92412 Z"/>
               <path d="M 348.2765 128.92412 C 348.67594 128.48728 349.56878 127.35028 350.2596 126.39506 C 350.95044 125.43984 351.93395 124.34133 352.463 123.97733 C 352.9618 123.6005 353.9201 122.68747 354.57287 121.94795 C 355.89995 120.46022 356.11306 119.7481 355.95826 117.38165 C 355.92087 116.54536 356.0209 115.55339 356.20922 115.15177 C 356.787 113.9167 357.2941 110.9573 357.18953 109.39692 C 357.11975 107.92265 356.594 105.50576 356.40025 105.58403 C 356.33567 105.61013 355.3178 106.74756 354.13685 108.10113 C 351.47443 111.1801 349.8273 112.37146 347.07965 113.2562 C 341.158 115.14789 340.11186 115.5956 339.39037 116.41296 C 338.5058 117.44646 337.9848 118.88397 337.2426 122.43917 C 336.72506 124.87692 336.5285 125.38204 336.0764 125.56469 C 335.5813 125.76473 334.3347 125.59228 330.676 124.84184 C 329.08822 124.50674 324.63652 122.59927 323.6163 121.8095 C 322.0383 120.56896 320.41685 118.4697 318.69474 114.20735 C 317.02483 110.07416 317.18445 109.60887 317.96162 107.44184 C 319.1013 104.1267 323.56608 102.34785 326.7103 103.93219 C 328.412 104.7972 328.93168 105.46367 329.65944 107.69878 C 330.43068 110.04153 330.41675 110.99872 329.5476 112.75217 C 328.93962 113.97442 328.75914 114.1475 326.9178 115.2921 C 325.84233 115.97703 324.4009 116.80983 323.7468 117.17425 C 322.3869 117.89898 322.64637 117.76554 322.64637 117.76554 C 322.64637 117.76554 322.39147 117.97226 324.2419 119.45329 L 325.27953 120.28611 L 328.035 119.17283 C 330.79045 118.05955 330.8335 118.04216 332.13492 116.61487 C 333.9045 114.6729 334.89238 112.34562 335.03853 109.73238 C 335.14467 108.01175 335.08705 107.55925 334.40365 105.68183 C 333.04967 101.89677 330.7139 99.71035 326.873 98.63287 C 324.52962 97.97703 322.37475 98.22163 319.70583 99.42515 C 317.85907 100.24641 317.48485 100.49777 316.32956 101.79089 C 314.55128 103.71133 313.5634 106.03862 313.39572 108.66055 C 313.39572 108.66055 313.1846 110.08062 313.35304 111.24214 C 313.5215 112.40366 313.3812 113.13612 314.7593 115.59564 C 316.13738 118.05515 318.27565 122.1643 319.46483 123.1863 C 320.4594 124.03652 325.40557 126.79594 327.04596 127.38523 C 328.46194 127.91494 336.0903 129.56565 336.4347 129.4265 C 336.52082 129.3917 337.7546 129.59437 339.1697 129.87402 C 343.47966 130.68688 344.9113 130.75953 346.31057 130.19419 C 347.0425 129.89847 347.834 129.37836 348.2765 128.92412 Z"
                     stroke="black"
                     stroke-linecap="round"
                     stroke-linejoin="round"
                     stroke-width="4.2523"/>
            </g>
            <g>
               <path d="M 151.5027 201.53574 C 150.2291 200.82844 149.01694 200.10465 148.4024 199.68674 C 146.88071 198.61632 142.12345 194.12423 141.28838 192.96256 C 141.0246 192.58466 140.62597 192.37934 140.0718 192.3211 C 139.60998 192.27256 136.20065 190.19353 134.25844 188.97368 C 133.45566 188.46948 132.07776 187.27806 130.29794 185.60767 L 130.29794 185.60766 C 128.70552 186.34802 126.93495 187.2072 125.32674 188.02607 C 122.67384 189.3799 119.91272 191.4327 116.72838 194.42565 C 111.19885 199.5944 103.29191 204.53697 98.62337 205.69903 C 97.68327 205.93292 96.11316 206.4302 95.11892 206.79453 C 94.12468 207.15887 92.85973 207.5183 92.31584 207.64387 C 91.76457 207.73744 90.69158 208.05256 89.9582 208.30611 C 89.19284 208.56706 88.55053 208.85014 88.51362 208.9092 C 88.26263 209.3547 89.44921 213.1077 89.94146 213.4153 C 90.07928 213.50141 90.22205 213.7549 90.26145 213.99853 C 90.28116 214.22987 90.75375 214.96322 91.31494 215.64243 C 92.09027 216.59232 92.63174 217.0402 93.88203 217.71194 C 95.57779 218.63468 98.17924 219.6853 100.01031 220.17243 C 100.64036 220.3471 101.60759 220.59559 102.16626 220.75304 C 103.94566 221.23524 104.94481 220.81923 107.44012 218.49083 C 108.21775 217.77212 108.94616 217.13218 109.06675 217.07064 C 109.19964 216.9894 110.12489 215.8154 111.0895 214.44695 C 113.33369 211.24981 114.71915 209.9527 116.29173 209.5391 C 118.84871 208.86452 122.18839 208.9528 130.07867 209.99556 C 134.62431 210.56364 142.15023 210.39312 146.32659 209.58057 L 147.66538 209.32204 L 151.36275 208.45624 C 151.08728 205.83107 151.15448 203.92287 151.50271 201.53574 Z"/>
               <path d="M 151.5027 201.53574 C 150.2291 200.82844 149.01694 200.10465 148.4024 199.68674 C 146.88071 198.61632 142.12345 194.12423 141.28838 192.96256 C 141.0246 192.58466 140.62597 192.37934 140.0718 192.3211 C 139.60998 192.27256 136.20065 190.19353 134.25844 188.97368 C 133.45566 188.46948 132.07776 187.27806 130.29794 185.60767 L 130.29794 185.60766 C 128.70552 186.34802 126.93495 187.2072 125.32674 188.02607 C 122.67384 189.3799 119.91272 191.4327 116.72838 194.42565 C 111.19885 199.5944 103.29191 204.53697 98.62337 205.69903 C 97.68327 205.93292 96.11316 206.4302 95.11892 206.79453 C 94.12468 207.15887 92.85973 207.5183 92.31584 207.64387 C 91.76457 207.73744 90.69158 208.05256 89.9582 208.30611 C 89.19284 208.56706 88.55053 208.85014 88.51362 208.9092 C 88.26263 209.3547 89.44921 213.1077 89.94146 213.4153 C 90.07928 213.50141 90.22205 213.7549 90.26145 213.99853 C 90.28116 214.22987 90.75375 214.96322 91.31494 215.64243 C 92.09027 216.59232 92.63174 217.0402 93.88203 217.71194 C 95.57779 218.63468 98.17924 219.6853 100.01031 220.17243 C 100.64036 220.3471 101.60759 220.59559 102.16626 220.75304 C 103.94566 221.23524 104.94481 220.81923 107.44012 218.49083 C 108.21775 217.77212 108.94616 217.13218 109.06675 217.07064 C 109.19964 216.9894 110.12489 215.8154 111.0895 214.44695 C 113.33369 211.24981 114.71915 209.9527 116.29173 209.5391 C 118.84871 208.86452 122.18839 208.9528 130.07867 209.99556 C 134.62431 210.56364 142.15023 210.39312 146.32659 209.58057 L 147.66538 209.32204 L 151.36275 208.45624 C 151.08728 205.83107 151.15448 203.92287 151.50271 201.53574 Z"
                     stroke="black"
                     stroke-linecap="round"
                     stroke-linejoin="round"
                     stroke-width="4.2523"/>
            </g>
            <g>
               <path d="M 252.8578 197.75034 C 253.2992 199.48225 253.70712 200.91213 254.0268 201.78278 C 254.41466 202.85857 255.25212 205.35368 255.88157 207.30244 C 256.51102 209.2512 257.16874 211.02542 257.34316 211.24514 C 257.5176 211.46487 257.872 212.02257 258.13073 212.48449 C 259.8239 215.34053 262.4245 216.84568 270.91997 219.82428 C 276.21205 221.66337 276.6623 222.02968 277.67395 225.12743 C 278.49455 227.55495 278.494 228.4165 277.7768 231.6821 C 277.47746 233.0728 277.13912 233.82715 276.34448 234.86277 L 275.31876 236.21922 L 268.59327 239.28392 C 257.50805 244.3449 256.27432 245.155 252.83086 249.6746 C 249.99607 253.37245 249.18428 254.81914 248.7775 256.93054 C 248.3256 259.1489 248.35333 259.83593 248.8031 260.96807 C 249.14048 261.74537 249.37687 261.92572 250.7843 262.4841 C 251.66252 262.8394 252.82232 263.17237 253.36287 263.22902 C 254.5397 263.3424 259.3547 262.69223 265.4708 261.59803 L 270.05502 260.79005 L 270.51168 259.9344 C 271.37995 258.23437 273.29212 253.13942 273.9186 250.8536 C 274.4492 248.85488 274.72546 248.33136 275.60454 247.34647 C 276.99638 245.82695 282.58514 241.5621 284.213 240.7973 C 286.53938 239.66693 294.2404 234.46865 296.62927 232.43733 C 298.92803 230.42848 299.712 228.48624 298.9022 226.77388 C 298.12047 225.17415 296.82098 223.12923 296.31443 222.7291 C 295.9936 222.49802 295.40836 221.87823 295.02014 221.37682 C 294.6319 220.8754 294.1142 220.3345 293.85527 220.15976 C 293.5063 219.91177 293.3376 219.52312 293.15255 218.30105 C 292.9064 216.88194 293.01477 215.4577 293.4666 214.08646 C 292.71176 213.83 292.0412 213.56693 291.46274 213.29916 C 287.80544 211.6327 281.157 207.03386 277.80194 203.84783 C 275.74436 201.8862 270.7748 195.38676 270.64555 194.4671 C 270.64417 194.4573 270.6325 194.45374 270.61145 194.456 L 270.61143 194.45601 C 270.50125 194.021 270.38774 193.60503 270.2764 193.24637 C 269.73005 191.48646 269.55268 190.47742 269.55268 190.47742 L 269.19782 189.62808 C 269.1436 189.70465 269.1643 189.88522 269.0852 190.0147 C 268.78276 190.50984 268.3955 191.636 268.3773 191.99246 C 268.35132 192.5017 267.48894 193.1127 267.01247 193.45445 C 266.43506 193.86985 265.83104 193.96692 265.2133 193.93775 C 264.67092 193.91213 263.8786 193.53048 263.3984 193.51753 C 262.56315 193.47594 263.10397 193.31254 259.91048 194.8212 C 258.5349 195.47036 255.80073 196.60706 253.854 197.35962 C 253.5181 197.48947 253.18343 197.62083 252.8578 197.75034 Z"/>
               <path d="M 252.8578 197.75034 C 253.2992 199.48225 253.70712 200.91213 254.0268 201.78278 C 254.41466 202.85857 255.25212 205.35368 255.88157 207.30244 C 256.51102 209.2512 257.16874 211.02542 257.34316 211.24514 C 257.5176 211.46487 257.872 212.02257 258.13073 212.48449 C 259.8239 215.34053 262.4245 216.84568 270.91997 219.82428 C 276.21205 221.66337 276.6623 222.02968 277.67395 225.12743 C 278.49455 227.55495 278.494 228.4165 277.7768 231.6821 C 277.47746 233.0728 277.13912 233.82715 276.34448 234.86277 L 275.31876 236.21922 L 268.59327 239.28392 C 257.50805 244.3449 256.27432 245.155 252.83086 249.6746 C 249.99607 253.37245 249.18428 254.81914 248.7775 256.93054 C 248.3256 259.1489 248.35333 259.83593 248.8031 260.96807 C 249.14048 261.74537 249.37687 261.92572 250.7843 262.4841 C 251.66252 262.8394 252.82232 263.17237 253.36287 263.22902 C 254.5397 263.3424 259.3547 262.69223 265.4708 261.59803 L 270.05502 260.79005 L 270.51168 259.9344 C 271.37995 258.23437 273.29212 253.13942 273.9186 250.8536 C 274.4492 248.85488 274.72546 248.33136 275.60454 247.34647 C 276.99638 245.82695 282.58514 241.5621 284.213 240.7973 C 286.53938 239.66693 294.2404 234.46865 296.62927 232.43733 C 298.92803 230.42848 299.712 228.48624 298.9022 226.77388 C 298.12047 225.17415 296.82098 223.12923 296.31443 222.7291 C 295.9936 222.49802 295.40836 221.87823 295.02014 221.37682 C 294.6319 220.8754 294.1142 220.3345 293.85527 220.15976 C 293.5063 219.91177 293.3376 219.52312 293.15255 218.30105 C 292.9064 216.88194 293.01477 215.4577 293.4666 214.08646 C 292.71176 213.83 292.0412 213.56693 291.46274 213.29916 C 287.80544 211.6327 281.157 207.03386 277.80194 203.84783 C 275.74436 201.8862 270.7748 195.38676 270.64555 194.4671 C 270.64417 194.4573 270.6325 194.45374 270.61145 194.456 L 270.61143 194.45601 C 270.50125 194.021 270.38774 193.60503 270.2764 193.24637 C 269.73005 191.48646 269.55268 190.47742 269.55268 190.47742 L 269.19782 189.62808 C 269.1436 189.70465 269.1643 189.88522 269.0852 190.0147 C 268.78276 190.50984 268.3955 191.636 268.3773 191.99246 C 268.35132 192.5017 267.48894 193.1127 267.01247 193.45445 C 266.43506 193.86985 265.83104 193.96692 265.2133 193.93775 C 264.67092 193.91213 263.8786 193.53048 263.3984 193.51753 C 262.56315 193.47594 263.10397 193.31254 259.91048 194.8212 C 258.5349 195.47036 255.80073 196.60706 253.854 197.35962 C 253.5181 197.48947 253.18343 197.62083 252.8578 197.75034 Z"
                     stroke="black"
                     stroke-linecap="round"
                     stroke-linejoin="round"
                     stroke-width="4.2523"/>
            </g>
            <g>
               <path d="M 114.00814 166.8943 C 116.5092 171.45013 124.28869 175.96524 126.99708 178.77557 C 130.99331 182.92221 130.33315 182.5475 132.15288 184.31832 C 133.9726 186.08914 134.64762 186.70278 136.26325 187.99777 C 137.87888 189.29276 139.65132 190.23184 139.65617 190.18566 C 139.66345 190.11639 139.22342 189.41646 138.6752 188.63513 C 138.10633 187.82828 137.61887 186.91326 137.56291 186.5572 C 137.48261 185.98847 137.53365 185.94714 138.31872 186.02966 C 139.01144 186.10246 139.2691 186.3163 140.10903 187.4318 C 142.5802 190.79648 145.35397 194.16963 146.89639 195.70913 C 148.21239 197.0231 149.64622 198.12624 151.86242 199.37817 C 152.25965 197.19912 154.02292 189.64137 154.97884 190.31463 C 155.43955 190.63572 155.4533 190.89804 155.22864 192.25789 C 153.84623 200.38588 153.62136 202.6828 153.8414 206.56753 C 154.13875 211.9278 155.232 215.84895 158.868 224.37154 L 160.48073 228.16683 L 159.91966 229.06755 C 159.60028 229.56105 156.77967 232.83245 153.6104 236.35228 C 147.334 243.32293 147.01985 243.60243 142.62203 246.26601 C 140.2488 247.72202 138.69008 249.34906 137.15184 251.9943 C 135.95889 254.01317 135.56328 255.87517 135.65236 258.82968 C 135.71222 261.22677 134.61217 263.99697 135.11254 264.4475 C 136.07877 265.3175 141.0087 265.95823 144.99629 266.1535 C 148.5 266.36985 154.61747 264.91712 155.13474 264.12358 C 155.66667 263.28652 154.92756 257.72087 155.42533 254.35748 C 155.81592 251.7724 156.38057 250.31253 157.23324 249.64313 C 157.5819 249.3947 158.9023 248.55282 160.16398 247.84554 C 161.42394 247.10548 165.82004 244.4091 169.94344 241.8421 C 174.04959 239.25956 178.66662 236.3872 180.1786 235.43666 C 183.52185 233.35442 187.2691 230.5112 187.6731 229.75024 C 188.18068 228.77013 188.39853 226.96676 188.46852 222.65584 C 188.51218 220.35197 188.5955 218.17754 188.6439 217.8462 C 188.76488 217.01787 190.06314 214.81264 191.8153 212.485 C 193.58472 210.17288 194.45142 208.51635 195.05071 206.46283 C 195.78818 203.90888 195.89728 202.2263 195.9096 193.36455 C 195.93265 190.6672 196.04353 188.70504 196.2455 188.48073 C 196.41639 188.29094 196.81853 188.1219 197.1309 188.12198 C 197.52594 188.12322 197.80298 188.17824 197.98887 188.3913 C 197.60793 194.0764 198.7179 201.9681 196.2365 207.91367 C 195.84868 208.84287 195.47282 209.6505 195.1109 210.36147 L 195.11089 210.36148 C 199.52525 210.22 204.43641 209.42494 204.48887 209.48972 C 204.55086 209.56627 206.6921 209.18434 209.26838 208.66137 C 214.58987 207.56314 215.48455 207.3877 216.39263 208.34755 C 216.9855 208.9771 217.61964 209.3741 218.40607 209.31746 C 218.89396 209.2758 219.75297 208.5033 219.72003 207.70608 C 219.66996 206.18336 221.56527 206.05512 225.03958 205.20631 C 229.42531 204.12647 233.56676 202.92756 236.04333 202.02058 C 238.88325 200.98837 239.9593 201.23106 240.8581 201.91435 C 241.259 202.21436 242.01142 202.5399 242.67304 202.33457 C 243.33465 202.12924 243.4528 201.3892 243.545 200.51176 C 243.59355 200.04995 243.71517 200.05166 244.42705 199.26536 C 245.13894 198.47907 247.66428 197.84917 247.66428 197.84917 C 248.93293 197.32884 252.10215 196.0511 254.71117 194.99462 C 257.32018 193.93814 260.18194 192.69812 261.07144 192.23131 C 263.2952 191.0643 264.10972 191.85475 264.63578 192.00946 C 265.063 192.13818 265.93105 192.2961 266.44282 191.97792 C 266.88482 191.71137 267.1867 191.52424 267.3227 190.60687 C 267.3877 190.2256 267.66998 189.46792 268.00648 189.1082 C 268.18405 188.93083 268.42588 188.67325 268.7624 188.35697 C 268.3216 186.666 268.00323 185.64876 267.78955 183.45575 C 267.35656 179.01177 266.35074 170.95886 266.0636 170.31391 C 265.77644 169.66897 265.15324 164.30868 264.13438 162.80272 C 263.12078 161.30452 262.97707 161.63894 258.17376 157.69323 C 258.2387 157.67444 258.3042 157.6539 258.37032 157.63162 C 258.41626 157.6694 258.46178 157.7068 258.5069 157.74381 C 258.47524 157.63852 258.498 157.54842 258.55812 157.45306 C 259.09203 156.58087 260.38814 156.96141 262.64655 158.6838 C 266.13743 161.33493 266.85216 163.25082 268.35508 173.77779 C 269.29215 180.44538 270.96048 188.97965 271.84075 191.73978 C 272.39168 193.49112 273.4642 195.4505 275.46387 198.33466 C 278.0034 202.05733 279.1306 203.0712 285.93318 207.7656 C 292.42753 212.26887 293.31662 212.5894 306.363 214.99954 C 310.0685 215.6745 313.26174 216.37456 313.49774 216.5524 C 313.83864 216.8093 314.0171 217.7455 314.74775 222.77744 C 315.5782 228.6863 315.5782 228.6863 315.25605 231.73265 C 315.0116 233.83024 314.65976 235.49745 314.078 237.19697 C 313.63172 238.52576 313.26125 239.72668 313.28063 239.86463 C 313.3291 240.2095 307.59572 247.627 306.4802 248.69816 C 305.4667 249.6612 298.12737 258.66426 297.1785 260.08714 C 296.30866 261.40512 295.96118 262.6028 295.8881 264.4184 C 295.77476 266.6148 296.12784 267.292 297.8363 268.27106 C 299.44312 269.1941 300.70008 269.4629 303.25465 269.45557 C 305.6188 269.4281 314.00606 268.8824 315.70745 268.64328 L 316.972 268.46556 L 318.629 266.07566 C 323.26413 259.35177 323.56203 258.30173 322.81685 250.99758 C 322.28704 245.7264 322.1753 241.42806 322.5484 239.07793 C 323.1048 235.52976 324.74318 232.67356 331.6992 223.2789 C 334.57778 219.40437 336.976 215.94902 337.0655 215.58476 C 337.5298 213.55006 336.11536 210.32575 333.0966 206.52976 C 328.94493 201.34557 328.86378 200.93495 330.67154 195.7807 C 331.35247 193.7859 332.31477 190.79026 332.7848 189.1299 C 333.2778 187.46628 333.75753 185.87489 333.9027 185.57313 C 334.0281 185.2976 334.28795 183.64332 334.47238 181.95275 C 334.8851 178.04963 334.6701 175.8525 333.07112 167.14435 C 331.907 160.69624 331.5493 159.15219 330.5843 156.12263 C 330.33 155.31432 329.94214 154.05586 329.72055 153.3133 C 329.17645 151.44376 327.2204 146.70125 326.9449 146.57586 C 326.84323 146.5198 326.62375 146.29275 326.51923 146.04953 C 326.39495 145.83254 324.5156 143.47073 322.35462 140.77337 C 314.182 130.66796 312.53694 127.28072 310.2829 124.54158 C 308.0289 121.80245 308.3306 122.05122 302.99573 119.34847 C 297.66085 116.64571 290.9823 114.7754 282.34035 114.68171 C 273.6984 114.58802 276.19327 114.80775 271.1555 115.0671 C 266.48668 115.30745 264.55157 115.22455 259.69235 115.81235 C 259.69823 115.77543 259.66833 115.84614 259.67408 115.81014 L 259.67407 115.81014 C 252.03682 116.91463 248.05808 121.28107 228.89666 117.63451 L 228.89666 117.63451 L 223.0314 116.58568 C 217.57962 116.03602 216.4093 115.84297 212.47289 114.86895 C 207.12429 113.55973 194.96525 111.74482 188.56559 111.32898 C 186.3392 111.18836 182.41992 110.93985 179.87026 110.76525 C 175.55602 110.49857 166.22275 110.45143 163.53462 110.70584 C 162.87353 110.77643 161.51244 110.84348 160.48432 110.85215 C 159.96905 110.85771 159.41264 110.86587 158.82639 110.87626 C 157.85924 109.70106 156.97305 108.71906 156.3004 108.10633 C 152.78949 104.89396 148.86288 102.67356 138.88768 98.2728 C 136.77703 97.35083 134.8655 96.50741 134.67001 96.40593 C 134.45159 96.30081 133.735 95.4821 133.03295 94.57167 C 131.5975 92.65181 130.4997 91.42011 130.15572 91.36563 C 130.04106 91.34747 129.83717 91.15063 129.7057 90.94175 C 129.4271 90.4745 127.98033 89.51663 126.42844 88.77719 C 125.81904 88.46911 121.73262 87.25771 117.38669 86.05223 C 106.59848 83.07416 103.999 82.12178 96.3011 78.48133 C 94.74922 77.74189 93.28543 77.0399 93.09357 76.91549 C 92.87878 76.78744 92.69896 76.73545 92.68806 76.80425 C 92.62995 77.17116 93.84983 83.1236 94.20655 84.28493 C 94.64888 85.64787 95.59799 87.37317 97.33247 89.92807 C 97.88853 90.72136 98.47344 91.77779 98.65668 92.25344 C 98.9303 93.049 99.05699 93.13959 99.8898 93.22448 C 100.46673 93.29235 101.67869 93.06118 103.09113 92.60318 C 106.28179 91.60408 107.8039 91.49256 110.59909 92.09982 C 113.32548 92.69619 117.41283 94.4954 120.09521 96.26016 C 120.69372 96.63703 121.90526 97.29906 122.80188 97.72316 C 123.67557 98.14362 124.59148 98.59428 124.82557 98.7489 C 125.0633 98.88057 125.99125 99.40366 126.87334 99.91948 C 129.82613 101.60953 130.47392 102.41734 130.19789 104.16016 C 129.97633 105.559 128.83202 105.65984 128.409 104.32346 C 128.01004 103.13193 126.89044 102.03783 125.52792 101.58695 C 125.1719 101.46005 123.44632 100.48153 121.66284 99.42332 C 115.63305 95.78849 112.26863 94.17429 109.83786 93.7893 C 107.7052 93.45152 105.50218 93.85482 100.30877 95.477 C 96.47104 96.70271 94.80998 97.09782 93.45928 97.16598 C 91.37954 97.2362 86.43809 96.97071 79.36035 96.39037 C 76.55292 96.15728 74.23068 95.97753 74.20412 95.99683 C 74.15462 96.01249 75.28241 97.64856 76.68766 99.61065 C 79.64893 103.77028 81.39588 105.5044 85.66013 108.41296 C 88.71533 110.49534 89.62284 110.85064 90.64181 110.35383 C 90.76114 110.29538 90.90165 110.25535 90.76667 111.92075 C 90.11184 112.14143 89.30068 112.64991 88.60053 113.29801 C 81.21742 120.28559 79.54162 121.21903 71.776 122.90395 L 68.75448 123.57724 L 66.79709 122.72655 C 64.7323 121.81185 64.315896 121.7694 62.15511 122.2029 C 61.011936 122.44497 60.65094 122.64637 60.01205 123.41494 C 59.34297 124.22574 59.22333 124.53589 59.100765 125.9034 C 58.78549 128.93289 60.540915 133.1366 63.998066 137.72737 C 65.359945 139.51805 66.43867 140.27657 67.99803 140.52355 C 69.07582 140.69426 69.270175 140.65452 70.18061 139.95247 C 71.30719 139.07308 72.76435 138.48112 73.97746 138.39118 C 75.18693 138.32416 79.91067 139.51896 80.50669 140.06 C 81.34883 140.82807 83.28734 141.13412 84.24507 141.02197 C 85.20279 140.90983 87.069 139.61 87.069 139.61 C 87.069 139.61 87.94274 139.94918 87.77498 141.02197 C 87.77498 141.02197 85.52528 142.6806 84.66052 142.65183 C 83.79576 142.62307 82.15172 142.88281 80.54557 142.04075 C 78.92012 141.17212 78.29256 140.9787 76.29749 140.6627 C 73.47688 140.21597 72.28784 140.45077 70.797775 141.69571 C 69.956136 142.40866 69.79426 142.68861 69.81812 143.28007 C 69.85152 144.1081 70.72115 145.4447 72.0049 146.5413 L 72.931505 147.36976 L 81.00464 148.78946 L 85.1741 149.52268 L 89.07777 150.20916 L 95.52532 153.58106 C 104.23428 158.11037 105.44468 158.63118 109.7268 159.49746 C 112.67748 160.08822 113.22461 160.1723 115.69771 160.05745 C 115.50579 160.22366 115.31764 160.38676 115.13345 160.54667 C 114.609 161.002 114.20338 161.46605 113.90358 161.93676 L 111.60354 161.95864 L 112.01783 163.35042 C 112.79407 164.97107 113.47935 166.11593 114.00814 166.89431 Z"/>
               <path d="M 114.00814 166.8943 C 116.5092 171.45013 124.28869 175.96524 126.99708 178.77557 C 130.99331 182.92221 130.33315 182.5475 132.15288 184.31832 C 133.9726 186.08914 134.64762 186.70278 136.26325 187.99777 C 137.87888 189.29276 139.65132 190.23184 139.65617 190.18566 C 139.66345 190.11639 139.22342 189.41646 138.6752 188.63513 C 138.10633 187.82828 137.61887 186.91326 137.56291 186.5572 C 137.48261 185.98847 137.53365 185.94714 138.31872 186.02966 C 139.01144 186.10246 139.2691 186.3163 140.10903 187.4318 C 142.5802 190.79648 145.35397 194.16963 146.89639 195.70913 C 148.21239 197.0231 149.64622 198.12624 151.86242 199.37817 C 152.25965 197.19912 154.02292 189.64137 154.97884 190.31463 C 155.43955 190.63572 155.4533 190.89804 155.22864 192.25789 C 153.84623 200.38588 153.62136 202.6828 153.8414 206.56753 C 154.13875 211.9278 155.232 215.84895 158.868 224.37154 L 160.48073 228.16683 L 159.91966 229.06755 C 159.60028 229.56105 156.77967 232.83245 153.6104 236.35228 C 147.334 243.32293 147.01985 243.60243 142.62203 246.26601 C 140.2488 247.72202 138.69008 249.34906 137.15184 251.9943 C 135.95889 254.01317 135.56328 255.87517 135.65236 258.82968 C 135.71222 261.22677 134.61217 263.99697 135.11254 264.4475 C 136.07877 265.3175 141.0087 265.95823 144.99629 266.1535 C 148.5 266.36985 154.61747 264.91712 155.13474 264.12358 C 155.66667 263.28652 154.92756 257.72087 155.42533 254.35748 C 155.81592 251.7724 156.38057 250.31253 157.23324 249.64313 C 157.5819 249.3947 158.9023 248.55282 160.16398 247.84554 C 161.42394 247.10548 165.82004 244.4091 169.94344 241.8421 C 174.04959 239.25956 178.66662 236.3872 180.1786 235.43666 C 183.52185 233.35442 187.2691 230.5112 187.6731 229.75024 C 188.18068 228.77013 188.39853 226.96676 188.46852 222.65584 C 188.51218 220.35197 188.5955 218.17754 188.6439 217.8462 C 188.76488 217.01787 190.06314 214.81264 191.8153 212.485 C 193.58472 210.17288 194.45142 208.51635 195.05071 206.46283 C 195.78818 203.90888 195.89728 202.2263 195.9096 193.36455 C 195.93265 190.6672 196.04353 188.70504 196.2455 188.48073 C 196.41639 188.29094 196.81853 188.1219 197.1309 188.12198 C 197.52594 188.12322 197.80298 188.17824 197.98887 188.3913 C 197.60793 194.0764 198.7179 201.9681 196.2365 207.91367 C 195.84868 208.84287 195.47282 209.6505 195.1109 210.36147 L 195.11089 210.36148 C 199.52525 210.22 204.43641 209.42494 204.48887 209.48972 C 204.55086 209.56627 206.6921 209.18434 209.26838 208.66137 C 214.58987 207.56314 215.48455 207.3877 216.39263 208.34755 C 216.9855 208.9771 217.61964 209.3741 218.40607 209.31746 C 218.89396 209.2758 219.75297 208.5033 219.72003 207.70608 C 219.66996 206.18336 221.56527 206.05512 225.03958 205.20631 C 229.42531 204.12647 233.56676 202.92756 236.04333 202.02058 C 238.88325 200.98837 239.9593 201.23106 240.8581 201.91435 C 241.259 202.21436 242.01142 202.5399 242.67304 202.33457 C 243.33465 202.12924 243.4528 201.3892 243.545 200.51176 C 243.59355 200.04995 243.71517 200.05166 244.42705 199.26536 C 245.13894 198.47907 247.66428 197.84917 247.66428 197.84917 C 248.93293 197.32884 252.10215 196.0511 254.71117 194.99462 C 257.32018 193.93814 260.18194 192.69812 261.07144 192.23131 C 263.2952 191.0643 264.10972 191.85475 264.63578 192.00946 C 265.063 192.13818 265.93105 192.2961 266.44282 191.97792 C 266.88482 191.71137 267.1867 191.52424 267.3227 190.60687 C 267.3877 190.2256 267.66998 189.46792 268.00648 189.1082 C 268.18405 188.93083 268.42588 188.67325 268.7624 188.35697 C 268.3216 186.666 268.00323 185.64876 267.78955 183.45575 C 267.35656 179.01177 266.35074 170.95886 266.0636 170.31391 C 265.77644 169.66897 265.15324 164.30868 264.13438 162.80272 C 263.12078 161.30452 262.97707 161.63894 258.17376 157.69323 C 258.2387 157.67444 258.3042 157.6539 258.37032 157.63162 C 258.41626 157.6694 258.46178 157.7068 258.5069 157.74381 C 258.47524 157.63852 258.498 157.54842 258.55812 157.45306 C 259.09203 156.58087 260.38814 156.96141 262.64655 158.6838 C 266.13743 161.33493 266.85216 163.25082 268.35508 173.77779 C 269.29215 180.44538 270.96048 188.97965 271.84075 191.73978 C 272.39168 193.49112 273.4642 195.4505 275.46387 198.33466 C 278.0034 202.05733 279.1306 203.0712 285.93318 207.7656 C 292.42753 212.26887 293.31662 212.5894 306.363 214.99954 C 310.0685 215.6745 313.26174 216.37456 313.49774 216.5524 C 313.83864 216.8093 314.0171 217.7455 314.74775 222.77744 C 315.5782 228.6863 315.5782 228.6863 315.25605 231.73265 C 315.0116 233.83024 314.65976 235.49745 314.078 237.19697 C 313.63172 238.52576 313.26125 239.72668 313.28063 239.86463 C 313.3291 240.2095 307.59572 247.627 306.4802 248.69816 C 305.4667 249.6612 298.12737 258.66426 297.1785 260.08714 C 296.30866 261.40512 295.96118 262.6028 295.8881 264.4184 C 295.77476 266.6148 296.12784 267.292 297.8363 268.27106 C 299.44312 269.1941 300.70008 269.4629 303.25465 269.45557 C 305.6188 269.4281 314.00606 268.8824 315.70745 268.64328 L 316.972 268.46556 L 318.629 266.07566 C 323.26413 259.35177 323.56203 258.30173 322.81685 250.99758 C 322.28704 245.7264 322.1753 241.42806 322.5484 239.07793 C 323.1048 235.52976 324.74318 232.67356 331.6992 223.2789 C 334.57778 219.40437 336.976 215.94902 337.0655 215.58476 C 337.5298 213.55006 336.11536 210.32575 333.0966 206.52976 C 328.94493 201.34557 328.86378 200.93495 330.67154 195.7807 C 331.35247 193.7859 332.31477 190.79026 332.7848 189.1299 C 333.2778 187.46628 333.75753 185.87489 333.9027 185.57313 C 334.0281 185.2976 334.28795 183.64332 334.47238 181.95275 C 334.8851 178.04963 334.6701 175.8525 333.07112 167.14435 C 331.907 160.69624 331.5493 159.15219 330.5843 156.12263 C 330.33 155.31432 329.94214 154.05586 329.72055 153.3133 C 329.17645 151.44376 327.2204 146.70125 326.9449 146.57586 C 326.84323 146.5198 326.62375 146.29275 326.51923 146.04953 C 326.39495 145.83254 324.5156 143.47073 322.35462 140.77337 C 314.182 130.66796 312.53694 127.28072 310.2829 124.54158 C 308.0289 121.80245 308.3306 122.05122 302.99573 119.34847 C 297.66085 116.64571 290.9823 114.7754 282.34035 114.68171 C 273.6984 114.58802 276.19327 114.80775 271.1555 115.0671 C 266.48668 115.30745 264.55157 115.22455 259.69235 115.81235 C 259.69823 115.77543 259.66833 115.84614 259.67408 115.81014 L 259.67407 115.81014 C 252.03682 116.91463 248.05808 121.28107 228.89666 117.63451 L 228.89666 117.63451 L 223.0314 116.58568 C 217.57962 116.03602 216.4093 115.84297 212.47289 114.86895 C 207.12429 113.55973 194.96525 111.74482 188.56559 111.32898 C 186.3392 111.18836 182.41992 110.93985 179.87026 110.76525 C 175.55602 110.49857 166.22275 110.45143 163.53462 110.70584 C 162.87353 110.77643 161.51244 110.84348 160.48432 110.85215 C 159.96905 110.85771 159.41264 110.86587 158.82639 110.87626 C 157.85924 109.70106 156.97305 108.71906 156.3004 108.10633 C 152.78949 104.89396 148.86288 102.67356 138.88768 98.2728 C 136.77703 97.35083 134.8655 96.50741 134.67001 96.40593 C 134.45159 96.30081 133.735 95.4821 133.03295 94.57167 C 131.5975 92.65181 130.4997 91.42011 130.15572 91.36563 C 130.04106 91.34747 129.83717 91.15063 129.7057 90.94175 C 129.4271 90.4745 127.98033 89.51663 126.42844 88.77719 C 125.81904 88.46911 121.73262 87.25771 117.38669 86.05223 C 106.59848 83.07416 103.999 82.12178 96.3011 78.48133 C 94.74922 77.74189 93.28543 77.0399 93.09357 76.91549 C 92.87878 76.78744 92.69896 76.73545 92.68806 76.80425 C 92.62995 77.17116 93.84983 83.1236 94.20655 84.28493 C 94.64888 85.64787 95.59799 87.37317 97.33247 89.92807 C 97.88853 90.72136 98.47344 91.77779 98.65668 92.25344 C 98.9303 93.049 99.05699 93.13959 99.8898 93.22448 C 100.46673 93.29235 101.67869 93.06118 103.09113 92.60318 C 106.28179 91.60408 107.8039 91.49256 110.59909 92.09982 C 113.32548 92.69619 117.41283 94.4954 120.09521 96.26016 C 120.69372 96.63703 121.90526 97.29906 122.80188 97.72316 C 123.67557 98.14362 124.59148 98.59428 124.82557 98.7489 C 125.0633 98.88057 125.99125 99.40366 126.87334 99.91948 C 129.82613 101.60953 130.47392 102.41734 130.19789 104.16016 C 129.97633 105.559 128.83202 105.65984 128.409 104.32346 C 128.01004 103.13193 126.89044 102.03783 125.52792 101.58695 C 125.1719 101.46005 123.44632 100.48153 121.66284 99.42332 C 115.63305 95.78849 112.26863 94.17429 109.83786 93.7893 C 107.7052 93.45152 105.50218 93.85482 100.30877 95.477 C 96.47104 96.70271 94.80998 97.09782 93.45928 97.16598 C 91.37954 97.2362 86.43809 96.97071 79.36035 96.39037 C 76.55292 96.15728 74.23068 95.97753 74.20412 95.99683 C 74.15462 96.01249 75.28241 97.64856 76.68766 99.61065 C 79.64893 103.77028 81.39588 105.5044 85.66013 108.41296 C 88.71533 110.49534 89.62284 110.85064 90.64181 110.35383 C 90.76114 110.29538 90.90165 110.25535 90.76667 111.92075 C 90.11184 112.14143 89.30068 112.64991 88.60053 113.29801 C 81.21742 120.28559 79.54162 121.21903 71.776 122.90395 L 68.75448 123.57724 L 66.79709 122.72655 C 64.7323 121.81185 64.315896 121.7694 62.15511 122.2029 C 61.011936 122.44497 60.65094 122.64637 60.01205 123.41494 C 59.34297 124.22574 59.22333 124.53589 59.100765 125.9034 C 58.78549 128.93289 60.540915 133.1366 63.998066 137.72737 C 65.359945 139.51805 66.43867 140.27657 67.99803 140.52355 C 69.07582 140.69426 69.270175 140.65452 70.18061 139.95247 C 71.30719 139.07308 72.76435 138.48112 73.97746 138.39118 C 75.18693 138.32416 79.91067 139.51896 80.50669 140.06 C 81.34883 140.82807 83.28734 141.13412 84.24507 141.02197 C 85.20279 140.90983 87.069 139.61 87.069 139.61 C 87.069 139.61 87.94274 139.94918 87.77498 141.02197 C 87.77498 141.02197 85.52528 142.6806 84.66052 142.65183 C 83.79576 142.62307 82.15172 142.88281 80.54557 142.04075 C 78.92012 141.17212 78.29256 140.9787 76.29749 140.6627 C 73.47688 140.21597 72.28784 140.45077 70.797775 141.69571 C 69.956136 142.40866 69.79426 142.68861 69.81812 143.28007 C 69.85152 144.1081 70.72115 145.4447 72.0049 146.5413 L 72.931505 147.36976 L 81.00464 148.78946 L 85.1741 149.52268 L 89.07777 150.20916 L 95.52532 153.58106 C 104.23428 158.11037 105.44468 158.63118 109.7268 159.49746 C 112.67748 160.08822 113.22461 160.1723 115.69771 160.05745 C 115.50579 160.22366 115.31764 160.38676 115.13345 160.54667 C 114.609 161.002 114.20338 161.46605 113.90358 161.93676 L 111.60354 161.95864 L 112.01783 163.35042 C 112.79407 164.97107 113.47935 166.11593 114.00814 166.89431 Z"
                     stroke="black"
                     stroke-linecap="round"
                     stroke-linejoin="round"
                     stroke-width="4.2523"/>
            </g>
            <g>
               <g  id="feature-0">
                  <path
                        d="M 79.462985 221.37782 C 85.0809 213.96456 87.01014 211.4467 87.11843 211.40486 C 87.18241 211.3901 87.39657 211.87982 87.60089 212.47292 C 87.82491 213.07832 88.06614 213.61235 88.1449 213.66157 C 88.24335 213.72308 88.44274 214.14883 88.62982 214.59426 C 89.40525 216.63934 92.65166 219.46188 94.93805 220.09662 C 95.38597 220.21224 96.38274 220.5887 97.15309 220.93317 C 97.91113 221.29734 99.48135 221.89523 100.64547 222.26674 C 102.28459 222.79818 102.76206 223.04178 102.83592 223.3617 C 102.88762 223.58566 102.46932 224.47414 101.60808 225.85242 C 100.34082 227.88046 100.23501 228.00598 98.87903 228.77397 C 98.08661 229.20965 95.96033 230.07122 94.12935 230.67928 C 92.27869 231.27503 90.25083 231.97908 89.62574 232.1908 C 88.98835 232.4222 87.25827 232.9564 85.78167 233.34786 L 83.1041 234.08397 L 81.93994 233.27439 L 80.775775 232.4648 L 84.55537 226.06568 C 86.64203 222.55108 88.37924 219.42044 88.44074 219.10296 C 88.50469 218.6501 88.389 218.44093 87.9386 218.24163 L 87.37007 217.9685 L 84.03828 223.16905 C 80.28816 229.03905 80.62038 228.72646 78.53335 228.29843 C 76.93855 227.95895 76.56689 227.58983 76.62584 226.31253 C 76.69217 225.06722 76.65526 225.1263 79.462985 221.37782 Z"
                        fill="#ff0000"/>
               </g>
               <path d="M 79.462985 221.37782 C 85.0809 213.96456 87.01014 211.4467 87.11843 211.40486 C 87.18241 211.3901 87.39657 211.87982 87.60089 212.47292 C 87.82491 213.07832 88.06614 213.61235 88.1449 213.66157 C 88.24335 213.72308 88.44274 214.14883 88.62982 214.59426 C 89.40525 216.63934 92.65166 219.46188 94.93805 220.09662 C 95.38597 220.21224 96.38274 220.5887 97.15309 220.93317 C 97.91113 221.29734 99.48135 221.89523 100.64547 222.26674 C 102.28459 222.79818 102.76206 223.04178 102.83592 223.3617 C 102.88762 223.58566 102.46932 224.47414 101.60808 225.85242 C 100.34082 227.88046 100.23501 228.00598 98.87903 228.77397 C 98.08661 229.20965 95.96033 230.07122 94.12935 230.67928 C 92.27869 231.27503 90.25083 231.97908 89.62574 232.1908 C 88.98835 232.4222 87.25827 232.9564 85.78167 233.34786 L 83.1041 234.08397 L 81.93994 233.27439 L 80.775775 232.4648 L 84.55537 226.06568 C 86.64203 222.55108 88.37924 219.42044 88.44074 219.10296 C 88.50469 218.6501 88.389 218.44093 87.9386 218.24163 L 87.37007 217.9685 L 84.03828 223.16905 C 80.28816 229.03905 80.62038 228.72646 78.53335 228.29843 C 76.93855 227.95895 76.56689 227.58983 76.62584 226.31253 C 76.69217 225.06722 76.65526 225.1263 79.462985 221.37782 Z"
                     stroke="black"
                     stroke-linecap="round"
                     stroke-linejoin="round"
                     stroke-width="4.2523"/>
            </g>
            <g>
               <g  id="feature-1">
                  <path
                        d="M 250.24803 264.556 C 252.47733 265.5316 254.40326 265.3864 267.27163 263.35045 L 269.04 263.0531 L 269.08456 263.8077 C 269.10667 264.4722 268.8181 266.67378 268.26992 269.75365 C 267.82346 272.28173 265.51854 275.12962 262.4935 276.91276 C 261.34434 277.58214 260.2235 277.98124 255.7798 279.16096 C 250.15336 280.68343 249.78168 280.72825 249.54015 279.75954 C 249.41097 279.2414 249.47867 279.0331 251.62258 272.5643 C 253.37718 267.31722 253.44525 266.53454 252.2062 266.84347 C 251.59795 266.99512 251.40625 267.3779 249.96765 271.58907 C 249.11014 274.1 248.2694 276.77425 248.08876 277.4893 L 247.75567 278.84054 L 246.02102 279.27304 C 245.07484 279.50895 244.21884 279.62666 244.1288 279.5534 C 243.9656 279.37873 248.29896 265.6641 248.82895 264.62267 C 249.1334 264.02034 249.08835 264.03157 250.24803 264.556 Z"
                        fill="#ff0000"/>
               </g>
               <path d="M 250.24803 264.556 C 252.47733 265.5316 254.40326 265.3864 267.27163 263.35045 L 269.04 263.0531 L 269.08456 263.8077 C 269.10667 264.4722 268.8181 266.67378 268.26992 269.75365 C 267.82346 272.28173 265.51854 275.12962 262.4935 276.91276 C 261.34434 277.58214 260.2235 277.98124 255.7798 279.16096 C 250.15336 280.68343 249.78168 280.72825 249.54015 279.75954 C 249.41097 279.2414 249.47867 279.0331 251.62258 272.5643 C 253.37718 267.31722 253.44525 266.53454 252.2062 266.84347 C 251.59795 266.99512 251.40625 267.3779 249.96765 271.58907 C 249.11014 274.1 248.2694 276.77425 248.08876 277.4893 L 247.75567 278.84054 L 246.02102 279.27304 C 245.07484 279.50895 244.21884 279.62666 244.1288 279.5534 C 243.9656 279.37873 248.29896 265.6641 248.82895 264.62267 C 249.1334 264.02034 249.08835 264.03157 250.24803 264.556 Z"
                     stroke="black"
                     stroke-linecap="round"
                     stroke-linejoin="round"
                     stroke-width="4.2523"/>
            </g>
            <g>
               <g  id="feature-2">
                  <path
                        d="M 297.12925 270.25204 C 299.24436 271.45532 301.1749 271.51224 314.1856 270.83255 L 315.97536 270.7217 L 315.9408 271.4768 C 315.89333 272.13997 315.3762 274.29932 314.5091 277.30502 C 313.80084 279.7726 311.21086 282.36394 308.016 283.82112 C 306.80316 284.3667 305.64674 284.64646 301.10408 285.35523 C 295.34932 286.28124 294.975 286.28695 294.83605 285.2983 C 294.76173 284.7695 294.85083 284.5694 297.65918 278.36016 C 299.95263 273.32522 300.10214 272.55395 298.8376 272.73167 C 298.2168 272.8189 297.98615 273.17957 296.11525 277.2173 C 294.99997 279.62483 293.8843 282.19654 293.6299 282.88878 L 293.1574 284.1978 L 291.38704 284.44662 C 290.4214 284.58234 289.55777 284.60993 289.47587 284.52765 C 289.33183 284.3369 295.07503 271.15034 295.71097 270.17002 C 296.07672 269.6028 296.03074 269.60927 297.12925 270.25204 Z"
                        fill="#ff0000"/>
               </g>
               <path d="M 297.12925 270.25204 C 299.24436 271.45532 301.1749 271.51224 314.1856 270.83255 L 315.97536 270.7217 L 315.9408 271.4768 C 315.89333 272.13997 315.3762 274.29932 314.5091 277.30502 C 313.80084 279.7726 311.21086 282.36394 308.016 283.82112 C 306.80316 284.3667 305.64674 284.64646 301.10408 285.35523 C 295.34932 286.28124 294.975 286.28695 294.83605 285.2983 C 294.76173 284.7695 294.85083 284.5694 297.65918 278.36016 C 299.95263 273.32522 300.10214 272.55395 298.8376 272.73167 C 298.2168 272.8189 297.98615 273.17957 296.11525 277.2173 C 294.99997 279.62483 293.8843 282.19654 293.6299 282.88878 L 293.1574 284.1978 L 291.38704 284.44662 C 290.4214 284.58234 289.55777 284.60993 289.47587 284.52765 C 289.33183 284.3369 295.07503 271.15034 295.71097 270.17002 C 296.07672 269.6028 296.03074 269.60927 297.12925 270.25204 Z"
                     stroke="black"
                     stroke-linecap="round"
                     stroke-linejoin="round"
                     stroke-width="4.2523"/>
            </g>
            <g>
               <g  id="feature-3">
                  <path
                        d="M 136.3694 266.44316 C 141.77688 268.8439 144.40862 268.23498 151.8887 266.51673 C 154.01559 266.0089 155.8369 265.57625 155.90032 265.59325 C 156.09062 265.64424 155.45658 268.73615 155.26279 269.83998 C 154.93925 271.55492 155.02417 276.63138 153.3163 278.1153 C 151.07448 280.05607 145.62175 281.20073 139.99095 283.2154 C 135.2059 284.9275 135.516 284.97862 134.9134 284.81716 C 134.56452 284.72368 134.20942 284.52655 134.11655 284.3657 C 133.97724 284.1244 135.15167 280.12198 137.73953 272.1132 C 138.1174 270.9567 138.09646 270.78112 137.6516 270.47496 C 136.77039 269.83092 136.29798 270.4522 135.34368 273.4428 C 134.84372 274.9915 134.1112 277.3447 133.67074 278.6714 L 132.90112 281.09962 L 131.90343 281.46117 C 131.17025 281.7236 130.66051 281.723 129.97976 281.4726 C 129.44909 281.29642 128.97563 281.0336 128.90597 280.91295 C 128.76667 280.67166 131.24155 272.51362 132.6071 268.74937 C 133.14188 267.261 133.76953 265.9335 133.99071 265.8058 C 134.27221 265.64326 135.0334 265.84722 136.3694 266.44316 Z"
                        fill="#ff0000"/>
               </g>
               <path d="M 136.3694 266.44316 C 141.77688 268.8439 144.40862 268.23498 151.8887 266.51673 C 154.01559 266.0089 155.8369 265.57625 155.90032 265.59325 C 156.09062 265.64424 155.45658 268.73615 155.26279 269.83998 C 154.93925 271.55492 155.02417 276.63138 153.3163 278.1153 C 151.07448 280.05607 145.62175 281.20073 139.99095 283.2154 C 135.2059 284.9275 135.516 284.97862 134.9134 284.81716 C 134.56452 284.72368 134.20942 284.52655 134.11655 284.3657 C 133.97724 284.1244 135.15167 280.12198 137.73953 272.1132 C 138.1174 270.9567 138.09646 270.78112 137.6516 270.47496 C 136.77039 269.83092 136.29798 270.4522 135.34368 273.4428 C 134.84372 274.9915 134.1112 277.3447 133.67074 278.6714 L 132.90112 281.09962 L 131.90343 281.46117 C 131.17025 281.7236 130.66051 281.723 129.97976 281.4726 C 129.44909 281.29642 128.97563 281.0336 128.90597 280.91295 C 128.76667 280.67166 131.24155 272.51362 132.6071 268.74937 C 133.14188 267.261 133.76953 265.9335 133.99071 265.8058 C 134.27221 265.64326 135.0334 265.84722 136.3694 266.44316 Z"
                     stroke="black"
                     stroke-linecap="round"
                     stroke-linejoin="round"
                     stroke-width="4.2523"/>
            </g>
            <g>
               <g  id="outline-1">
                  <path
                        d="M 91.16191 115.67828 C 90.19856 115.97234 89.65888 116.26297 89.50904 116.61535 C 89.2021 117.36598 89.60262 117.80553 90.20633 117.4075 C 91.01891 116.878 91.17331 117.09051 91.05915 118.55338 C 90.9536 119.665 91.04512 120.12613 91.50945 120.90488 C 92.63226 122.86925 93.59062 122.90351 96.38097 121.01826 C 98.43115 119.65047 99.58408 119.19838 100.63894 119.36546 C 101.28104 119.46715 101.32783 120.06224 100.70824 120.85738 C 100.20217 121.52945 99.78442 121.79238 98.39127 122.27694 C 96.99813 122.7615 96.82785 122.9461 97.34667 123.38087 C 98.43856 124.35305 101.92299 122.38967 102.19902 120.64686 C 102.26076 120.25702 102.56158 119.69348 102.86468 119.41239 C 103.46725 118.87313 103.69087 118.20334 103.30103 118.1416 C 103.16344 118.1198 102.70231 118.21131 102.27978 118.35596 C 101.36229 118.65727 100.33285 118.32968 98.41427 117.08552 C 97.8387 116.71228 95.65313 115.9665 93.9514 115.57943 C 92.79641 115.30247 92.36911 115.32882 91.16191 115.67828 Z"
                        fill="black"/>
               </g>
            </g>
            <g>
               <path d="M 96.18177 118.56548 C 96.03286 119.50568 95.02094 120.40323 94.30165 120.19528 C 93.42184 119.9619 93.53329 119.10979 94.53908 118.39933 C 95.54851 117.66594 96.31252 117.73993 96.18177 118.56548 Z"
                     fill="white"/>
            </g>
            <g>
               <g  id="outline-2">
                  <path
                        d="M 90.75911 122.52556 C 90.62857 122.90451 90.47624 123.42104 90.43629 123.6733 C 90.39634 123.92554 89.95543 124.63144 89.4337 125.25402 C 88.74169 126.0612 88.18385 126.46649 87.36898 126.71354 C 85.6825 127.26917 84.84221 127.67675 84.96278 127.95442 C 85.09902 128.28159 86.26263 128.20731 87.50729 127.76976 C 88.40184 127.4648 88.94038 127.03295 90.83753 125.14727 C 91.56814 124.39322 92.00947 122.79412 91.59691 122.28214 C 91.14575 121.71704 91.04676 121.74837 90.75911 122.52556 Z"
                        fill="black"/>
               </g>
            </g>
            <g>
               <g  id="outline-3">
                  <path
                        d="M 67.21335 125.58982 C 67.09983 125.71289 67.25537 126.06662 67.536464 126.36972 C 67.81756 126.67282 68.03826 127.06038 68.016466 127.19797 C 67.99104 127.35849 68.55529 128.69373 69.277574 130.21856 C 70.757105 133.34426 71.05095 134.75421 70.42638 135.87765 C 69.93712 136.74045 69.99708 137.54918 70.57038 137.63998 C 71.28126 137.75258 71.59049 137.2844 71.8411 135.7021 C 72.1244 133.91342 71.70023 132.43582 70.04928 129.35349 C 69.483675 128.32362 68.89763 127.12597 68.71076 126.67324 C 68.27797 125.54688 67.6445 125.09394 67.21335 125.58982 Z"
                        fill="black"/>
               </g>
            </g>
            <g>
               <g  id="outline-4">
                  <path
                        d="M 63.25527 126.09126 C 62.68539 126.42413 62.674495 126.49293 62.768074 127.6831 C 62.866425 128.99157 63.77195 130.99205 64.350015 131.20114 C 64.55277 131.25676 64.86427 131.07102 65.05271 130.77177 C 65.48272 130.13467 65.788095 130.13602 66.19453 130.83508 C 66.81326 131.82635 67.337274 131.48622 67.57699 129.97272 C 67.67505 129.35356 67.50748 128.9274 66.565424 127.60284 C 65.60407 126.25171 65.31571 125.99448 64.62776 125.88552 C 64.19205 125.81651 63.56677 125.90553 63.25527 126.09126 Z"
                        fill="black"/>
               </g>
            </g>
            <g>
               <g  id="outline-5">
                  <path
                        d="M 137.29538 149.28951 C 135.67976 150.58509 133.71175 151.73083 130.98928 153.03915 C 129.84112 153.60953 125.29998 154.23018 122.98615 154.1458 C 121.88656 154.11268 120.40917 154.09025 119.70306 154.09594 C 118.99694 154.10164 117.39649 153.96569 116.15817 153.76956 C 114.13654 153.47287 113.89996 153.48241 113.91427 153.83729 C 113.92496 154.2151 114.3727 154.35653 117.55409 155.04847 C 120.21169 155.63394 121.5683 155.8253 122.60999 155.77872 C 123.39216 155.73806 124.77782 155.74596 125.66376 155.79225 C 126.57263 155.84217 127.73624 155.7679 128.27706 155.61848 C 130.78681 154.91115 131.9747 154.53513 132.71237 154.18182 C 133.14216 153.99132 134.02468 153.61394 134.69832 153.36803 C 135.34903 153.11848 135.89234 152.80492 135.90687 152.71319 C 135.9323 152.55267 136.71603 151.76002 137.8149 150.75871 C 138.86065 149.796 139.88482 148.52429 139.81375 148.23094 C 139.67886 147.5984 139.15371 147.7973 137.29538 149.28951 Z"
                        fill="black"/>
               </g>
            </g>
            <g>
               <g  id="outline-6">
                  <path
                        d="M 93.38553 142.89904 C 93.27201 143.0221 93.37079 143.43737 93.59149 143.82493 C 93.78926 144.20886 94.35123 145.26166 94.7974 146.15507 C 96.03829 148.56128 97.43898 149.95848 99.89952 151.19444 C 101.94252 152.24674 102.7885 152.54528 102.84298 152.2013 C 102.85751 152.10958 101.58216 151.10834 100.00029 149.96453 C 96.87879 147.7071 95.41542 146.11192 94.5015 144.01608 C 93.94928 142.75326 93.70316 142.52622 93.38553 142.89904 Z"
                        fill="black"/>
               </g>
            </g>
         </g>
      </g>
   </g>
</svg>