<?xml version="1.0" encoding="UTF-8" standalone="no"?>
<svg
   xmlns:dc="http://purl.org/dc/elements/1.1/"
   xmlns:cc="http://creativecommons.org/ns#"
   xmlns:rdf="http://www.w3.org/1999/02/22-rdf-syntax-ns#"
   xmlns:svg="http://www.w3.org/2000/svg"
   xmlns="http://www.w3.org/2000/svg"
   version="1.0"
   id="svg2"
   height="115.12693"
   width="322.03641">
  <defs
     id="defs3" />
  <metadata
     id="metadata6">
    <rdf:RDF>
      <cc:Work
         rdf:about="">
        <dc:format>image/svg+xml</dc:format>
        <dc:type
           rdf:resource="http://purl.org/dc/dcmitype/StillImage" />
        <dc:title></dc:title>
        <dc:creator>
          <cc:Agent>
            <dc:title>https://commons.wikimedia.org/wiki/User:FDominec</dc:title>
          </cc:Agent>
        </dc:creator>
      </cc:Work>
    </rdf:RDF>
  </metadata>
  <g
     transform="translate(-42.613441,-46.77055)"
     id="layer1">
    <path
       id="rect5099"
       d="m 313.66402,58.325927 46.7079,-8.540146 c 1.53897,0 2.77792,1.763472 2.77792,3.953974 v 90.581925 c 0,2.19051 -1.23895,3.95398 -2.77792,3.95398 l -46.7079,-8.54015 c -1.27207,0 -2.29616,-1.45765 -2.29616,-3.26827 V 61.594195 c 0,-1.81062 1.02409,-3.268268 2.29616,-3.268268 z"
       style="fill:#ffff00;fill-opacity:1;stroke:#808080;stroke-width:3;stroke-linecap:butt;stroke-linejoin:round;stroke-miterlimit:4;stroke-dashoffset:0;stroke-opacity:1" />
    <rect
       ry="2.7779195"
       rx="2.7779195"
       y="145.24519"
       x="145.96704"
       height="15.152288"
       width="92.934036"
       id="rect5097"
       style="opacity:1;fill:#999999;fill-opacity:1;stroke:#808080;stroke-width:3;stroke-linecap:butt;stroke-linejoin:round;stroke-miterlimit:4;stroke-dasharray:none;stroke-dashoffset:0;stroke-opacity:1" />
    <ellipse
       ry="50.002552"
       rx="150.00766"
       cy="98.273102"
       cx="196.47467"
       id="path5089"
       style="opacity:1;fill:#ffff00;fill-opacity:1;stroke:#808080;stroke-width:3;stroke-linecap:butt;stroke-linejoin:round;stroke-miterlimit:4;stroke-dasharray:none;stroke-dashoffset:0;stroke-opacity:1" />
    <ellipse
       ry="50.002552"
       rx="150.00766"
       cy="98.273102"
       cx="196.47467"
       transform="matrix(1,0,0,0.1515152,0,83.383236)"
       id="path5091"
       style="opacity:1;fill:none;fill-opacity:1;stroke:#808080;stroke-width:7.70714;stroke-linecap:butt;stroke-linejoin:round;stroke-miterlimit:4;stroke-dasharray:none;stroke-dashoffset:0;stroke-opacity:1" />
    <ellipse
       ry="50.002552"
       rx="150.00766"
       cy="98.273102"
       cx="196.47467"
       transform="matrix(1,0,0,0.4242424,0,56.581482)"
       id="path5093"
       style="opacity:1;fill:none;fill-opacity:1;stroke:#808080;stroke-width:4.6059;stroke-linecap:butt;stroke-linejoin:round;stroke-miterlimit:4;stroke-dasharray:none;stroke-dashoffset:0;stroke-opacity:1" />
    <ellipse
       ry="50.002552"
       rx="150.00766"
       cy="98.273102"
       cx="196.47467"
       transform="matrix(1,0,0,0.7474748,0,24.816439)"
       id="path5095"
       style="opacity:1;fill:none;fill-opacity:1;stroke:#808080;stroke-width:3.46995;stroke-linecap:butt;stroke-linejoin:round;stroke-miterlimit:4;stroke-dasharray:none;stroke-dashoffset:0;stroke-opacity:1" />
    <path
       id="path5102"
       d="m 313.66402,95.89958 46.7079,-0.656935 c 1.53897,0 2.77792,0.135652 2.77792,0.304152 v 6.967843 c 0,0.1685 -1.23895,0.30416 -2.77792,0.30416 l -46.7079,-0.65694 c -1.27207,0 -2.29616,-0.11213 -2.29616,-0.25141 v -5.759465 c 0,-0.139278 1.02409,-0.251405 2.29616,-0.251405 z"
       style="fill:#ffff00;fill-opacity:1;stroke:#808080;stroke-width:3;stroke-linecap:butt;stroke-linejoin:round;stroke-miterlimit:4;stroke-dashoffset:0;stroke-opacity:1" />
  </g>
</svg>
