<?xml version="1.0" encoding="UTF-8" standalone="no"?>
<svg
   width="450"
   height="450"
   version="1.1"
   id="svg10"
   sodipodi:docname="ball-bearing.svg"
   inkscape:version="1.4.2 (ebf0e940d0, 2025-05-08)"
   xmlns:inkscape="http://www.inkscape.org/namespaces/inkscape"
   xmlns:sodipodi="http://sodipodi.sourceforge.net/DTD/sodipodi-0.dtd"
   xmlns="http://www.w3.org/2000/svg"
   xmlns:svg="http://www.w3.org/2000/svg"
   xmlns:rdf="http://www.w3.org/1999/02/22-rdf-syntax-ns#"
   xmlns:cc="http://creativecommons.org/ns#"
   xmlns:dc="http://purl.org/dc/elements/1.1/">
  <path
     id="path23"
     d="m 202.46,394.526 c -12.518,-12.52 -12.518,-32.764 0,-45.284 12.518,-12.52 32.77,-12.579 45.288,0 12.518,12.521 12.518,32.822 0,45.343 -12.518,12.52 -32.77,12.52 -45.288,-0.0619"
     style="fill:#b3b3b3;stroke:#808080" />
  <path
     id="path24"
     d="m 120.73179,360.54784 c -4.58091,-17.10164 5.54109,-34.63345 22.642,-39.21709 17.1009,-4.58364 34.66915,5.49126 39.22056,22.644 4.5804,17.1025 -5.5701,34.68368 -22.6715,39.26819 -17.10091,4.58363 -34.63966,-5.54236 -39.1896,-22.69763"
     style="fill:#b3b3b3;stroke:#808080" />
  <path
     id="path25"
     d="m 66.94216,290.25779 c 4.58364,-17.10091 22.11545,-27.22291 39.21709,-22.642 17.10164,4.5809 27.27874,22.09015 22.644,39.22056 -4.5845,17.1014 -22.16568,27.2519 -39.26819,22.6715 -17.10164,-4.58091 -27.22764,-22.11966 -22.59037,-39.25152"
     style="fill:#b3b3b3;stroke:#808080" />
  <path
     id="path26"
     d="m 55.504,202.49 c 12.52,-12.518 32.764,-12.518 45.284,0 12.52,12.518 12.579,32.77 0,45.288 -12.521,12.518 -32.822,12.518 -45.343,0 -12.52,-12.518 -12.52,-32.77 0.06192,-45.288"
     style="fill:#b3b3b3;stroke:#808080" />
  <path
     id="path27"
     d="m 89.482158,120.76179 c 17.101642,-4.58091 34.633452,5.54109 39.217092,22.642 4.58364,17.1009 -5.49126,34.66915 -22.644,39.22056 -17.102502,4.5804 -34.683683,-5.5701 -39.268187,-22.6715 -4.583638,-17.10091 5.542362,-34.63966 22.697624,-39.1896"
     style="fill:#b3b3b3;stroke:#808080" />
  <path
     id="path28"
     d="m 159.77221,66.97216 c 17.10091,4.58364 27.22291,22.11545 22.642,39.21709 -4.5809,17.10164 -22.09015,27.27874 -39.22056,22.644 -17.1014,-4.5845 -27.2519,-22.16568 -22.6715,-39.26819 4.58091,-17.10164 22.11966,-27.22764 39.25152,-22.59037"
     style="fill:#b3b3b3;stroke:#808080" />
  <path
     id="a"
     d="m 247.54,55.534 c 12.518,12.52 12.518,32.764 0,45.284 -12.518,12.52 -32.77,12.579 -45.288,0 -12.518,-12.521 -12.518,-32.822 0,-45.343 12.518,-12.52 32.77,-12.52 45.288,0.06192"
     style="fill:#b3b3b3;stroke:#808080" />
  <path
     id="use3"
     d="m 329.26821,89.512158 c 4.58091,17.101642 -5.54109,34.633452 -22.642,39.217092 -17.1009,4.58364 -34.66915,-5.49126 -39.22056,-22.644 -4.5804,-17.102502 5.5701,-34.683683 22.6715,-39.268187 17.10091,-4.583638 34.63966,5.542362 39.1896,22.697624"
     style="fill:#b3b3b3;stroke:#808080" />
  <path
     id="use4"
     d="m 383.05784,159.80221 c -4.58364,17.10091 -22.11545,27.22291 -39.21709,22.642 -17.10164,-4.5809 -27.27874,-22.09015 -22.644,-39.22056 4.5845,-17.1014 22.16568,-27.2519 39.26819,-22.6715 17.10164,4.58091 27.22764,22.11966 22.59037,39.25152"
     style="fill:#b3b3b3;stroke:#808080" />
  <path
     id="path19"
     d="m 394.496,247.57 c -12.52,12.518 -32.764,12.518 -45.284,0 -12.52,-12.518 -12.579,-32.77 0,-45.288 12.521,-12.518 32.822,-12.518 45.343,0 12.52,12.518 12.52,32.77 -0.0619,45.288"
     style="fill:#b3b3b3;stroke:#808080" />
  <path
     id="path20"
     d="m 360.51784,329.29821 c -17.10164,4.58091 -34.63345,-5.54109 -39.21709,-22.642 -4.58364,-17.1009 5.49126,-34.66915 22.644,-39.22056 17.1025,-4.5804 34.68368,5.5701 39.26819,22.6715 4.58363,17.10091 -5.54237,34.63966 -22.69763,39.1896"
     style="fill:#b3b3b3;stroke:#808080" />
  <path
     id="path21"
     d="m 290.22779,383.08784 c -17.10091,-4.58364 -27.22291,-22.11545 -22.642,-39.21709 4.5809,-17.10164 22.09015,-27.27874 39.22056,-22.644 17.1014,4.5845 27.2519,22.16568 22.6715,39.26819 -4.58091,17.10164 -22.11966,27.22764 -39.25152,22.59037"
     style="fill:#b3b3b3;stroke:#808080" />
  <path
     d="m 424.42,225.03 c 0,110.11 -89.254,199.39 -199.47,199.39 -110.12,0 -199.37,-89.282 -199.37,-199.39 0,-110.17 89.254,-199.45 199.37,-199.45 110.22,0 199.47,89.282 199.47,199.45 z M 224.95,51.26 c -95.971,0 -173.72,77.814 -173.72,173.77 0,95.952 77.753,173.77 173.72,173.77 95.97,0 173.83,-77.814 173.83,-173.77 0,-95.952 -77.855,-173.77 -173.83,-173.77"
     id="path5"
     style="fill:#ffff00;stroke:#808080" />
  <path
     d="m 347.28,225.03 c 0,67.517 -54.753,122.22 -122.33,122.22 -67.474,0 -122.23,-54.704 -122.23,-122.22 0,-67.517 54.753,-122.22 122.23,-122.22 67.576,0 122.33,54.704 122.33,122.22 z M 224.95,120.83 c -57.501,0 -104.21,46.63 -104.21,104.2 0,57.571 46.713,104.2 104.21,104.2 57.603,0 104.32,-46.63 104.32,-104.2 0,-57.571 -46.713,-104.2 -104.32,-104.2"
     id="path6"
     style="fill:#ffff00;stroke:#808080" />
  <path
     d="m 383.61,225.03 c 0,87.585 -71.037,158.55 -158.66,158.55 -87.524,0 -158.56,-70.969 -158.56,-158.55 0,-87.585 71.036,-158.55 158.56,-158.55 87.625,0 158.66,70.969 158.66,158.55 z M 224.95,81.86 c -78.975,0 -143.09,64.124 -143.09,143.17 0,79.043 64.116,143.11 143.09,143.11 79.076,0 143.19,-64.065 143.19,-143.11 0,-79.043 -64.116,-143.17 -143.19,-143.17"
     id="path7"
     style="fill:#ffff00;stroke:#808080" />
  <path
     id="b"
     d="m 194.31,81.628 c 0.40735,1.7552 -0.61102,3.5104 -2.239,3.9784 l -8.5488,2.2818 c -1.7301,0.46784 -3.4602,-0.5848 -3.9691,-2.2818 l -2.239,-8.542 c -0.50918,-1.6967 0.50919,-3.4519 2.239,-3.92 l 8.5488,-2.2818 c 1.7301,-0.46784 3.4602,0.5848 3.8673,2.2818 z"
     style="fill:#ffff00;stroke:#808080" />
  <path
     id="use7"
     d="m 270.12268,85.495225 c -0.52482,1.723723 -2.28436,2.734586 -3.92823,2.325896 l -8.54438,-2.298304 c -1.73223,-0.459888 -2.70422,-2.236551 -2.29644,-3.960646 l 2.33197,-8.517089 c 0.40739,-1.723976 2.16692,-2.734839 3.89903,-2.27532 l 8.54438,2.298303 c 1.73223,0.459889 2.70422,2.236552 2.20828,3.909747 z"
     style="fill:#ffff00;stroke:#808080" />
  <path
     id="use8"
     d="m 333.84477,126.75068 c -1.31637,1.23038 -3.3456,1.22604 -4.56489,0.0502 l -6.2505,-6.26258 c -1.27021,-1.26439 -1.22365,-3.28902 -0.008,-4.57824 l 6.27809,-6.21003 c 1.21479,-1.28931 3.24403,-1.28498 4.51432,-0.021 l 6.25049,6.26258 c 1.27022,1.26439 1.22365,3.28902 -0.0424,4.49008 z"
     style="fill:#ffff00;stroke:#808080" />
  <path
     id="path15"
     d="m 368.402,194.34 c -1.7552,0.40735 -3.5104,-0.61102 -3.9784,-2.239 l -2.2818,-8.5488 c -0.46784,-1.7301 0.5848,-3.4602 2.2818,-3.9691 l 8.542,-2.239 c 1.6967,-0.50918 3.4519,0.50919 3.92,2.239 l 2.2818,8.5488 c 0.46784,1.7301 -0.5848,3.4602 -2.2818,3.8673 z"
     style="fill:#ffff00;stroke:#808080" />
  <path
     id="path16"
     d="m 364.53477,270.15268 c -1.72372,-0.52482 -2.73458,-2.28436 -2.32589,-3.92823 l 2.2983,-8.54438 c 0.45989,-1.73223 2.23655,-2.70422 3.96065,-2.29644 l 8.51709,2.33197 c 1.72397,0.40739 2.73484,2.16692 2.27532,3.89903 l -2.29831,8.54438 c -0.45988,1.73223 -2.23655,2.70422 -3.90974,2.20828 z"
     style="fill:#ffff00;stroke:#808080" />
  <path
     id="path17"
     d="m 323.27932,333.87477 c -1.23038,-1.31637 -1.22604,-3.3456 -0.0502,-4.56489 l 6.26258,-6.2505 c 1.26439,-1.27021 3.28902,-1.22365 4.57824,-0.008 l 6.21003,6.27809 c 1.28931,1.21479 1.28498,3.24403 0.021,4.51432 l -6.26258,6.25049 c -1.26439,1.27022 -3.28902,1.22365 -4.49008,-0.0424 z"
     style="fill:#ffff00;stroke:#808080" />
  <path
     id="path10"
     d="m 255.69,368.432 c -0.40735,-1.7552 0.61102,-3.5104 2.239,-3.9784 l 8.5488,-2.2818 c 1.7301,-0.46784 3.4602,0.5848 3.9691,2.2818 l 2.239,8.542 c 0.50918,1.6967 -0.50919,3.4519 -2.239,3.92 l -8.5488,2.2818 c -1.7301,0.46784 -3.4602,-0.5848 -3.8673,-2.2818 z"
     style="fill:#ffff00;stroke:#808080" />
  <path
     id="use11"
     d="m 179.87732,364.56477 c 0.52482,-1.72372 2.28436,-2.73458 3.92823,-2.32589 l 8.54438,2.2983 c 1.73223,0.45989 2.70422,2.23655 2.29644,3.96065 l -2.33197,8.51709 c -0.40739,1.72397 -2.16692,2.73484 -3.89903,2.27532 l -8.54438,-2.29831 c -1.73223,-0.45988 -2.70422,-2.23655 -2.20828,-3.90974 z"
     style="fill:#ffff00;stroke:#808080" />
  <path
     id="use12"
     d="m 116.15523,323.30932 c 1.31637,-1.23038 3.3456,-1.22604 4.56489,-0.0502 l 6.2505,6.26258 c 1.27021,1.26439 1.22365,3.28902 0.008,4.57824 l -6.27809,6.21003 c -1.21479,1.28931 -3.24403,1.28498 -4.51432,0.021 l -6.25049,-6.26258 c -1.27022,-1.26439 -1.22365,-3.28902 0.0424,-4.49008 z"
     style="fill:#ffff00;stroke:#808080" />
  <path
     id="path13"
     d="m 81.598,255.72 c 1.7552,-0.40735 3.5104,0.61102 3.9784,2.239 l 2.2818,8.5488 c 0.46784,1.7301 -0.5848,3.4602 -2.2818,3.9691 l -8.542,2.239 c -1.6967,0.50918 -3.4519,-0.50919 -3.92,-2.239 l -2.2818,-8.5488 c -0.46784,-1.7301 0.5848,-3.4602 2.2818,-3.8673 z"
     style="fill:#ffff00;stroke:#808080" />
  <path
     id="use14"
     d="m 85.46523,179.90732 c 1.72372,0.52482 2.73458,2.28436 2.32589,3.92823 l -2.2983,8.54438 c -0.45989,1.73223 -2.23655,2.70422 -3.96065,2.29644 l -8.51709,-2.33197 c -1.72397,-0.40739 -2.73484,-2.16692 -2.27532,-3.89903 l 2.29831,-8.54438 c 0.45988,-1.73223 2.23655,-2.70422 3.90974,-2.20828 z"
     style="fill:#ffff00;stroke:#808080" />
  <path
     id="use15"
     d="m 126.72068,116.18523 c 1.23038,1.31637 1.22604,3.3456 0.0502,4.56489 l -6.26258,6.2505 c -1.26439,1.27021 -3.28902,1.22365 -4.57824,0.008 l -6.21003,-6.27809 c -1.28931,-1.21479 -1.28498,-3.24403 -0.021,-4.51432 l 6.26258,-6.25049 c 1.26439,-1.27022 3.28902,-1.22365 4.49008,0.0424 z"
     style="fill:#ffff00;stroke:#808080" />
  <metadata
     id="metadata34">
    <rdf:RDF>
      <cc:Work
         rdf:about="">
        <dc:creator>
          <cc:Agent>
            <dc:title>https://commons.wikimedia.org/wiki/File:Bearing_thick_shaded.svg#</dc:title>
          </cc:Agent>
        </dc:creator>
      </cc:Work>
    </rdf:RDF>
  </metadata>
</svg>
