<?xml version="1.0" encoding="utf-8"?>
<svg xmlns="http://www.w3.org/2000/svg" xmlns:dc="http://purl.org/dc/elements/1.1/"
     xmlns:xl="http://www.w3.org/1999/xlink"
     xmlns:xlink="http://www.w3.org/1999/xlink"
     version="1.1"
     viewBox="58.5 63 306 229.5"
     width="306"
     height="229.5"
     preserveAspectRatio="xMidYMid meet"
     zoomAndPan="magnify"
     contentScriptType="application/ecmascript"
     contentStyleType="text/css">
   <defs/>
   <metadata  xmlns:svg="http://www.w3.org/2000/svg"
             xmlns:rdf="http://www.w3.org/1999/02/22-rdf-syntax-ns#"
             xmlns:cc="http://creativecommons.org/ns#">
      <rdf:RDF>
         <cc:Work rdf:about="">
            <dc:creator>
               <cc:Agent>
                  <dc:title>http://heraldicart.org Barbel Embowed.svg</dc:title>
               </cc:Agent>
            </dc:creator>
         </cc:Work>
      </rdf:RDF>
   </metadata>
   <g stroke-dasharray="none" stroke="#505050" fill-opacity="1" fill="#ffff00"
      stroke-opacity="1">
      <title>Barbel Embowed</title>
      <g>
         <title>Layer 2</title>
         <g>
            <g>
               <g  id="outline-0">
                  <path 
                        d="M 233.14385 67.883086 C 228.63168 69.58121 222.66398 73.31709 217.8607 77.48963 C 216.2111 78.89665 213.83372 80.885885 212.57225 81.85624 C 211.3108 82.87512 209.176 85.05843 207.76898 86.80507 C 206.41048 88.5032 203.59644 91.99649 201.5587 94.56794 C 197.09504 100.00194 195.29988 102.91302 194.08693 106.35779 L 193.1651 108.92924 L 188.3133 109.02627 C 180.89006 109.12331 179.9197 109.17183 175.21346 109.80256 C 157.01925 112.27697 142.2698 116.59507 131.78994 122.61129 C 131.4018 122.80536 130.28588 123.38757 129.36404 123.87275 C 126.88963 125.0857 119.02973 130.42267 114.56608 133.96448 C 110.15095 137.40925 100.88403 146.28802 97.97296 149.92687 C 91.42304 157.98084 88.70604 161.61968 87.39605 164.0941 C 86.61977 165.59815 85.01867 168.1696 83.95128 169.81921 C 81.91353 172.7788 76.431 183.3557 75.75175 185.58753 C 75.55768 186.26678 74.39325 188.98378 73.13179 191.65227 C 71.87032 194.32075 69.88109 199.46365 68.765175 203.05398 C 67.600745 206.6443 66.04817 210.81684 65.3204 212.27238 C 62.70044 217.41528 61.778596 220.7145 62.021186 223.91668 C 62.16674 225.71184 62.506365 227.07034 62.89451 227.31293 C 63.428205 227.65256 63.428205 228.42884 62.991544 231.77658 C 62.65192 233.95988 62.31229 236.77392 62.21526 237.98687 C 62.11822 239.19982 61.73008 241.8198 61.39045 243.80902 C 61.05083 245.79825 60.75972 248.0786 60.75972 248.9034 C 60.7112 250.31042 60.75972 250.31042 62.991544 250.16487 L 65.271886 250.06783 L 65.8541 252.1541 C 66.193726 253.31853 66.48483 255.84146 66.48483 257.73366 C 66.48483 259.67438 66.58187 261.27547 66.678905 261.27547 C 67.600745 261.27547 70.22071 259.52882 70.4633 258.70402 C 70.80293 257.68514 70.851445 257.68514 71.14255 258.84957 C 71.530696 260.5477 72.20995 260.35363 74.29622 257.92773 C 75.89731 255.987 76.04286 255.50184 75.89731 253.56112 C 75.75175 252.34817 75.50916 250.89263 75.266575 250.35894 C 74.97547 249.58265 74.97547 249.48562 75.55768 250.0193 C 75.89731 250.31042 77.06174 250.60153 78.17765 250.60153 C 79.6817 250.60153 80.60354 250.21338 82.01056 249.04895 C 83.95128 247.44786 85.50385 244.63382 84.92164 243.71198 C 84.72757 243.42088 84.97016 243.32384 85.50385 243.4694 C 86.03755 243.61495 87.68716 244.10013 89.19121 244.5368 C 91.90822 245.31308 93.94597 246.96268 93.94597 248.41822 C 93.94597 248.75785 94.81929 250.7956 95.9352 252.9789 C 97.5363 256.1811 98.26406 257.10293 99.91367 258.0733 C 101.70883 259.09216 109.61725 261.76065 110.73317 261.76065 C 111.16983 261.76065 113.83831 258.21884 113.83831 257.73366 C 113.83831 257.44255 113.11054 257.0544 107.53098 254.24037 C 102.67919 251.76596 100.39885 249.92228 100.05923 248.22415 C 99.91367 247.39935 99.62256 246.08936 99.47701 245.26456 C 99.28294 244.2942 98.50665 243.32384 97.05112 242.25645 C 95.88669 241.43164 95.01336 240.65536 95.06188 240.55832 C 95.15892 240.46128 96.80853 241.18905 98.70072 242.1109 C 101.32069 243.37236 103.11585 244.77938 106.221 247.93304 C 108.938 250.69856 110.63613 252.05706 111.3639 252.05706 C 112.52833 252.05706 114.17794 251.3293 115.19681 250.31042 C 115.53644 249.92228 116.21569 249.4371 116.65235 249.1945 C 117.91382 248.46674 116.94346 247.35083 113.59572 245.55566 C 111.655 244.5368 110.24799 243.37236 109.32615 241.96534 C 108.59838 240.84943 107.23988 239.3939 106.41507 238.76316 C 104.57139 237.40466 98.84628 235.0758 97.2937 235.0758 C 96.37186 235.0758 97.19667 234.10544 101.46624 229.98142 C 106.65766 224.98407 111.07279 221.49078 112.1887 221.49078 C 112.77092 221.49078 116.02162 216.83306 118.98121 211.7872 C 122.4745 205.8195 128.83034 199.17254 135.42878 194.51483 C 136.25358 193.98113 138.728 192.23448 141.00834 190.6334 C 144.64718 188.11046 153.42892 182.43387 156.0974 180.92981 C 156.6311 180.6387 157.6985 179.8139 158.47479 179.13465 C 159.93032 177.77615 169.8765 172.7788 172.10832 172.2451 C 173.27275 171.954 173.46682 172.14807 174.67977 175.01063 C 175.40754 176.70875 177.34825 180.15352 178.99786 182.67646 C 180.64747 185.19939 182.49115 188.59564 183.12188 190.19673 C 183.75262 191.79782 184.43187 193.25336 184.62594 193.44743 C 185.3052 194.1752 188.50737 194.12668 190.98179 193.30188 C 193.65027 192.42856 193.65027 192.42856 194.42656 193.44743 C 195.29988 194.56334 198.5991 195.7763 200.92796 195.7763 C 201.75276 195.7763 204.5668 194.7089 207.23528 193.39891 C 210.92265 191.65227 212.6693 190.43932 214.46445 188.4986 L 216.84183 185.97567 L 216.55072 182.19128 C 216.35665 179.91094 215.87147 177.72763 215.3863 176.75727 C 213.83372 173.94323 211.01968 169.91625 208.73934 167.15073 C 207.5264 165.69519 206.50752 164.33669 206.50752 164.0941 C 206.50752 163.70595 207.91453 163.80299 215.72592 164.67631 C 219.36476 165.11297 228.00095 166.52 229.2139 166.90814 C 229.69908 167.1022 229.69908 167.39331 229.16538 168.4607 C 228.00095 170.69253 227.22466 176.75727 227.5643 180.44463 C 227.95243 184.47162 231.00906 191.7493 234.45383 196.84369 C 237.26787 201.01623 238.23823 201.35585 245.5159 200.9192 C 248.4755 200.72512 251.58065 200.48253 252.35694 200.3855 C 253.18174 200.28846 254.83135 200.09438 256.09282 199.90031 C 259.5861 199.46365 259.78018 198.7844 257.49984 195.04852 C 255.31653 191.40968 254.29765 187.52825 254.73432 184.47162 C 254.9284 183.3557 255.17098 181.31795 255.31653 179.91094 C 255.55912 178.26133 255.99578 177.04838 256.67503 176.41765 C 257.6939 175.4958 257.6939 175.4958 261.81793 177.9217 C 264.09827 179.2802 267.49453 181.26944 269.3382 182.33683 C 271.2304 183.40422 273.26816 184.76273 273.9474 185.34494 C 274.62666 185.92716 275.69405 186.70344 276.3733 187.1401 C 277.05255 187.52825 280.01215 190.19673 283.02026 193.05929 C 287.28983 197.1348 288.5998 198.68737 289.23055 200.53105 C 290.54053 204.12137 293.1605 209.21575 296.1686 213.9705 L 298.8856 218.33712 L 298.8371 222.94632 C 298.74006 225.46925 298.93413 229.20513 299.17672 231.2914 C 299.80745 236.53133 299.1282 241.72275 297.33304 245.4101 C 296.55675 247.05972 295.19825 250.2619 294.32493 252.54224 C 293.50012 254.8226 292.19014 258.17032 291.41385 260.06252 C 290.6861 261.9062 289.81276 265.10838 289.52166 267.0976 C 289.18203 269.08685 288.74537 272.04644 288.45426 273.69605 C 287.53242 279.17857 290.10387 282.62335 295.19825 282.62335 C 297.33304 282.62335 297.96377 282.33224 300.4867 280.48856 C 302.03928 279.32413 304.5137 276.94675 305.96923 275.24862 C 311.50027 268.89278 314.0232 267.3402 318.82647 267.3402 C 323.33864 267.3402 324.74566 268.21353 333.0422 276.46157 C 341.72692 285.00072 345.31725 287.23255 353.12863 288.93067 C 358.12598 290.0466 362.25 287.86328 362.25 284.0789 C 362.25 281.89558 359.4845 276.41305 356.96155 273.64753 C 354.05047 270.44535 345.7539 258.02477 344.24986 254.58 C 343.42505 252.78483 342.4547 250.69856 342.06655 249.9708 C 341.6784 249.1945 340.46546 246.23492 339.34955 243.42088 C 338.28215 240.55832 337.0692 237.7928 336.7296 237.2591 C 335.75922 235.70653 333.13926 228.67143 333.13926 227.507 C 333.13926 226.9248 332.79963 226.19702 332.4115 225.8574 C 332.02334 225.51777 331.6837 224.5474 331.6837 223.7226 C 331.6837 220.13228 330.08263 212.22386 328.0934 205.8195 C 325.4249 197.28035 321.9316 188.15898 320.282 185.58753 C 319.60276 184.52014 319.06906 183.54978 319.06906 183.40422 C 319.06906 183.25867 317.90463 181.31795 316.54613 179.03761 C 315.1391 176.80579 313.34395 173.8462 312.51914 172.43918 C 310.43287 168.84885 310.28732 168.60626 308.15253 165.69519 C 306.11478 162.88115 300.7778 156.67086 294.08234 149.44169 C 291.89903 147.0158 289.3276 144.20175 288.45426 143.13436 C 281.2251 134.64373 270.26005 125.6194 262.49718 121.78648 C 260.0713 120.57353 257.88798 119.60318 257.6939 119.60318 C 257.49984 119.60318 256.67503 119.26355 255.85023 118.8754 C 252.5025 117.32283 239.45118 113.34437 234.30828 112.32549 L 228.87427 111.20958 L 231.1061 108.97775 C 233.38644 106.6489 235.08456 103.64078 235.13308 101.7971 C 235.13308 101.21489 234.69642 99.71083 234.1142 98.40085 C 232.65867 94.95608 232.70719 89.13393 234.30828 83.45733 C 236.87973 74.23893 237.21935 73.220056 238.6749 70.55157 C 240.27598 67.6405 240.22746 66.18496 238.4323 66.281995 C 237.80157 66.33051 235.4242 67.05828 233.14385 67.883086 Z"
                        fill="black"/>
               </g>
            </g>
            <g>
               <path d="M 238.52933 67.9316 C 238.52933 68.07716 237.99564 68.999 237.3164 70.01787 C 236.20048 71.716 233.62903 79.62442 232.1735 85.64064 C 231.25165 89.52207 231.49424 95.34422 232.70719 98.88603 C 233.67754 101.65155 233.67754 101.94266 232.9983 103.83486 C 231.88238 106.69741 226.15727 111.74327 225.1384 110.7244 C 224.70173 110.28774 229.7476 104.56262 230.5724 104.56262 C 231.3972 104.56262 231.49424 103.78634 230.71795 103.30116 C 230.08722 102.91302 225.04136 107.71629 224.41062 109.3659 C 224.02248 110.33626 223.73137 110.48181 222.22732 110.23922 C 219.94698 109.85108 219.89846 109.75404 220.72326 108.10443 C 221.54807 106.55186 226.5454 101.65155 227.3217 101.65155 C 227.6128 101.65155 227.8554 101.31192 227.8554 100.92378 C 227.8554 99.51676 226.30282 100.24453 223.48878 102.91302 C 221.83917 104.5141 220.2866 106.50334 219.7529 107.7648 C 218.9281 109.80256 218.83106 109.8996 216.7448 109.8996 C 215.1437 109.8996 214.75556 109.75404 215.1437 109.26886 C 215.3863 108.97775 216.2111 107.57073 216.93887 106.26075 C 218.97662 102.57339 220.72326 100.58416 223.92544 98.2553 C 225.57505 97.04235 226.88504 95.92644 226.88504 95.73236 C 226.88504 93.88868 219.65587 99.27417 217.66663 102.62191 C 216.98738 103.73782 215.87147 105.53298 215.1437 106.6489 C 214.41593 107.7648 213.7852 108.97775 213.7852 109.26886 C 213.7852 109.657 213.15447 109.8996 212.23263 109.8996 C 210.04932 109.8996 199.52094 108.88072 199.27835 108.68665 C 198.93872 108.34702 200.7824 104.32003 203.2083 100.05046 C 207.18677 93.01536 217.61812 82.92364 226.788 77.19852 C 228.58316 76.08261 229.55352 74.48152 228.3891 74.48152 C 226.73948 74.48152 215.72592 83.26326 210.68006 88.64875 C 205.97382 93.59758 203.15978 97.67308 199.76353 104.32003 C 197.72577 108.34702 197.38615 108.68665 195.97913 108.8322 C 195.1058 108.92924 194.37804 108.8322 194.37804 108.63813 C 194.37804 107.61925 198.25947 100.77823 200.63685 97.67308 C 205.53716 91.2202 212.28115 83.50585 214.12483 82.24439 C 215.09519 81.56514 216.98738 80.06108 218.29737 78.84813 C 222.85805 74.67559 228.6802 71.08527 234.16272 69.09603 C 238.09267 67.689014 238.52933 67.54346 238.52933 67.9316 Z"/>
            </g>
            <g>
               <path d="M 206.7501 110.82143 C 209.4186 111.11254 213.7852 111.35513 216.5022 111.35513 C 222.90657 111.35513 229.89315 112.42253 239.4997 114.7999 C 244.25445 115.96433 255.85023 120.03984 259.97425 121.98055 C 261.7694 122.80536 263.322 123.48461 263.46754 123.48461 C 263.75865 123.48461 269.8719 127.65715 271.61855 129.01565 C 272.2978 129.59786 273.60778 130.56822 274.4811 131.24747 C 277.63477 133.67337 286.46503 142.84325 294.7616 152.35276 C 299.4193 157.68973 303.6889 162.493 304.2711 163.0267 C 306.35737 164.87038 310.91805 171.37178 313.2469 175.83543 C 314.0717 177.33949 315.6728 180.20204 316.88576 182.19128 C 320.67015 188.4986 322.75642 192.96225 324.3575 198.20219 C 325.23084 201.01623 326.4438 204.94618 327.0745 206.9354 C 327.70525 208.92464 328.433 211.44758 328.72413 212.51497 C 329.5004 215.62012 330.17966 223.52853 329.6945 224.69296 C 329.5004 225.3237 328.23895 226.3911 326.9775 227.16738 C 324.74566 228.47736 324.40603 228.52588 318.0987 228.52588 C 312.17952 228.52588 311.3547 228.42884 309.4625 227.40997 C 306.26033 225.71184 301.8452 220.81153 298.69154 215.42604 C 297.09045 212.75756 295.6349 210.33166 295.39232 210.08907 C 294.8101 209.3613 291.75348 203.3936 290.05535 199.65772 C 287.33835 193.6415 277.58625 185.29642 264.9716 178.26133 C 260.8961 175.98098 257.49984 174.33138 256.48096 174.1373 C 256.3354 174.1373 255.60764 173.8462 254.78283 173.50657 C 249.63994 171.4203 245.56443 170.01328 242.16818 169.09144 C 240.0334 168.50923 236.87973 167.68442 235.13308 167.15073 C 225.08987 164.28817 211.74745 162.54152 198.50206 162.25042 C 193.35916 162.2019 193.55323 162.10486 191.61252 165.06446 C 190.59364 166.61703 189.62328 168.07257 189.47773 168.31516 C 189.04107 168.84885 184.57742 169.57662 183.94669 169.18848 C 183.7041 169.04292 181.71486 168.9944 179.58008 169.04292 C 173.56386 169.33403 173.1272 169.38255 172.44794 169.91625 C 172.10832 170.20735 170.07057 171.27475 167.93578 172.34214 C 162.40474 175.10766 160.85216 176.0295 155.75778 179.5228 C 153.23485 181.22092 149.74156 183.54978 147.89788 184.61717 C 146.10272 185.68457 143.3372 187.52825 141.73611 188.69268 C 140.13502 189.80859 137.07839 191.94338 134.9436 193.39891 C 130.3344 196.55258 129.75219 197.03776 125.7252 200.9677 C 122.7656 203.87878 117.67123 210.9624 116.02162 214.40717 C 114.76015 217.02713 111.99463 219.98673 109.27763 221.49078 C 107.91913 222.31559 104.42584 225.27518 101.46624 228.08922 C 91.22897 238.0354 85.55237 241.91682 78.17765 244.10013 C 76.57656 244.5368 73.42289 245.55566 71.14255 246.33195 C 64.592635 248.6123 62.36081 249.24303 62.11822 249.00044 C 61.97267 248.85488 62.11822 247.15676 62.40933 245.21604 C 63.04006 240.89795 63.185616 239.685 63.913384 233.32915 C 64.44708 228.47736 64.44708 228.38033 65.80558 228.13774 C 66.53335 227.94366 67.7463 227.31293 68.42555 226.6822 C 69.6385 225.56629 69.687015 225.56629 72.11291 226.29406 C 74.102145 226.87627 74.53881 227.2159 74.53881 228.08922 C 74.53881 230.85474 77.25581 229.73883 79.82726 225.9059 C 81.91353 222.84928 82.1076 222.46114 81.37983 222.46114 C 81.08872 222.46114 80.11837 223.77112 79.09949 225.37221 C 77.15877 228.52588 75.50916 229.30217 75.50916 227.07034 C 75.50916 225.71184 77.40136 220.4234 78.0321 219.98673 C 78.274685 219.84117 78.3232 219.356 78.17765 218.96785 C 77.98358 218.5312 78.22617 217.51231 78.61431 216.6875 C 79.43911 215.08642 79.58467 214.2131 79.00245 214.2131 C 78.80838 214.2131 78.37172 214.84383 78.08061 215.66863 C 77.59543 217.02713 77.4984 217.07565 75.945825 216.49344 C 73.714 215.71715 73.76252 215.81419 74.87843 214.55272 C 75.89731 213.48533 76.81915 211.30202 76.23693 211.30202 C 75.89731 211.30202 73.08327 214.45569 72.015875 216.1053 C 71.530696 216.78455 70.89996 218.5312 70.56034 219.98673 C 70.12368 221.97596 69.49294 223.1889 67.98889 224.74148 C 65.17485 227.65256 63.86487 227.45848 63.185616 224.06223 C 62.748954 222.17003 63.52524 219.50155 66.48483 212.612 C 67.69778 209.74945 68.71666 206.98393 68.71666 206.49875 C 68.71666 206.01357 69.25035 204.41248 69.88109 203.00546 C 70.4633 201.54992 71.14255 199.70624 71.33662 198.92996 C 71.87032 196.64961 80.60354 176.8543 82.39871 173.94323 C 82.59278 173.55509 83.17499 172.58473 83.66017 171.80844 C 84.09683 171.03216 85.21275 169.43107 86.08607 168.26664 C 86.95939 167.05369 87.88123 165.54963 88.17234 164.87038 C 88.609 163.70595 93.2182 157.30159 95.06188 155.26384 C 95.54706 154.73014 96.37186 153.56571 96.90556 152.69239 C 97.48778 151.86758 98.06999 151.13982 98.31258 151.13982 C 98.50665 151.13982 99.62256 149.87835 100.787 148.32578 C 101.95142 146.82172 103.74659 144.73545 104.8625 143.7651 C 105.92989 142.79474 107.23988 141.58179 107.77357 141.04809 C 109.66577 139.30145 118.10789 132.21783 118.35048 132.21783 C 118.44751 132.21783 120.67934 130.7623 123.2993 129.01565 C 125.91927 127.269 129.31552 125.18273 130.77106 124.35793 C 132.27512 123.58164 134.16731 122.56277 134.9436 122.07759 C 137.80616 120.42798 149.64453 116.25544 156.43703 114.55731 C 165.07322 112.42253 175.16495 110.86995 181.5208 110.82143 C 184.18928 110.77292 188.36182 110.62736 190.7392 110.43329 C 196.36727 110.04515 200.68537 110.14218 206.7501 110.82143 Z"/>
            </g>
            <g>
               <path d="M 197.19208 165.88926 C 200.00612 172.19659 207.04121 179.8139 212.4267 182.33683 C 215.19222 183.5983 215.48333 184.18051 214.51297 186.26678 C 213.5426 188.30453 211.69893 189.66303 206.41048 192.23448 C 202.18942 194.32075 199.61797 194.80593 197.87133 193.8841 C 197.43467 193.6415 196.65838 193.30188 196.1732 193.15632 C 195.68802 193.01077 194.96025 192.18597 194.47507 191.36116 C 194.03841 190.53636 192.43732 188.2075 190.93327 186.12123 C 189.47773 184.08348 187.63405 181.31795 186.85776 180.00797 C 186.08148 178.64947 184.48039 176.12654 183.31596 174.28286 C 182.103 172.4877 181.2782 170.8866 181.42376 170.74105 C 182.0545 170.11032 183.21892 171.08068 184.18928 172.97287 C 186.13 176.80579 196.02765 189.8571 197.33763 190.34229 C 198.55058 190.77895 197.48318 188.83823 195.1058 186.0242 C 189.9144 180.105 184.28631 171.56585 185.01408 170.83809 C 185.79037 170.11032 186.6637 170.74105 187.92516 172.82732 C 190.78771 177.87318 201.12203 190.19673 201.80128 189.51748 C 202.1409 189.17786 201.12203 187.72232 198.98724 185.29642 C 194.42656 180.25056 190.98179 175.7384 189.08959 172.39066 L 188.0707 170.54698 L 189.62328 169.7707 C 190.88475 169.13996 191.17586 169.09144 191.51548 169.62514 C 191.8551 170.30439 196.22172 176.0295 201.8498 183.3557 C 203.40237 185.39346 204.8579 187.04307 205.1005 187.04307 C 206.1679 187.04307 205.24605 185.4905 201.41314 180.97833 C 199.1813 178.30984 197.33763 175.93247 197.28911 175.68988 C 197.28911 175.39877 196.90097 174.76804 196.36727 174.23434 C 194.76618 172.43918 191.95214 168.1696 191.95214 167.44183 C 191.95214 167.1022 192.24325 166.52 192.58288 166.22889 C 193.11657 165.84074 193.35916 165.93778 193.7473 166.8111 C 194.66915 168.80033 207.13825 183.64681 209.03045 185.05383 C 211.3108 186.65492 210.14636 184.76273 206.2164 180.3476 C 199.03576 172.39066 194.37804 166.03481 194.37804 164.23965 C 194.37804 163.94854 194.8147 163.75447 195.3484 163.75447 C 195.97913 163.75447 196.56134 164.43372 197.19208 165.88926 Z"/>
            </g>
            <g>
               <path d="M 207.91453 168.21812 C 211.79597 173.16695 214.46445 177.72763 214.94963 180.15352 C 215.19222 181.65758 215.1437 181.75462 214.12483 181.4635 C 208.8849 179.86242 202.28646 173.21546 198.5991 165.7437 C 198.16244 164.82187 197.7743 163.99706 197.7743 163.90003 C 197.7743 163.8515 199.27835 163.75447 201.0735 163.75447 L 204.37273 163.75447 L 207.91453 168.21812 Z"/>
            </g>
            <g>
               <path d="M 231.83386 174.08879 C 231.6398 179.08613 231.78535 181.31795 232.41608 184.132 C 233.19236 187.52825 234.8905 191.40968 235.61826 191.40968 C 236.49158 191.40968 236.39455 190.6819 235.23012 188.59564 C 232.9983 184.56865 231.97942 175.30173 233.24088 170.25587 C 233.77458 168.21812 233.92013 168.07257 235.08456 168.36367 C 235.7638 168.55774 236.39455 168.7033 236.44306 168.75182 C 236.49158 168.80033 236.2975 169.81921 236.10344 171.03216 C 234.84197 177.33949 236.2975 187.47973 238.77192 189.95414 C 240.13043 191.31264 240.47005 190.3908 239.2571 188.64416 C 237.3649 185.97567 236.0064 174.9621 237.0738 170.98364 C 237.55898 169.237 237.70453 169.09144 238.91748 169.38255 C 239.64525 169.57662 240.37302 169.81921 240.51857 170.01328 C 240.66412 170.15884 240.66412 171.954 240.47005 173.94323 C 239.98487 180.05649 241.63448 187.52825 243.96334 189.566 C 245.4674 190.87598 245.95257 190.05118 244.6426 188.4986 C 242.55632 186.0242 241.73152 182.5309 241.683 176.51468 C 241.683 173.55509 241.82855 170.98364 241.9741 170.78957 C 242.16818 170.64401 243.0415 170.69253 243.91482 170.93512 C 245.2248 171.27475 245.5159 171.56585 245.32184 172.29362 C 245.1763 172.7788 245.07925 175.59284 245.07925 178.55243 C 245.07925 183.74385 245.12777 183.98644 246.92293 187.72232 C 248.03884 190.05118 248.91217 191.40968 249.20327 191.11857 C 249.44586 190.87598 248.91217 189.2749 247.84477 187.09159 C 246.09813 183.5983 246.0496 183.30719 246.0496 178.26133 C 246.0496 172.63325 246.38924 171.75993 248.32995 172.2451 C 249.49438 172.53621 249.49438 172.63325 249.3003 176.80579 C 249.05772 181.56054 249.63994 185.05383 251.28954 188.59564 C 252.89064 192.08893 253.861 191.65227 252.30842 188.11046 C 250.22215 183.30719 249.44586 176.07802 250.80437 174.23434 C 251.38658 173.40954 251.53213 173.40954 253.47285 174.23434 C 255.07394 174.86507 255.5106 175.25322 255.2195 175.83543 C 254.24914 178.30984 253.9095 180.54167 253.9095 185.10235 C 253.9095 190.43932 254.73432 193.59299 257.01466 196.84369 C 257.54835 197.57145 257.83946 198.2507 257.59687 198.2507 C 257.4028 198.29922 256.43244 198.39626 255.5106 198.4933 C 254.58876 198.5418 252.06583 198.88144 249.93104 199.17254 C 244.35148 199.94883 239.69376 199.80328 238.1412 198.88144 C 235.56974 197.32886 230.37833 187.81935 229.26241 182.57942 C 228.1465 177.43652 229.55352 167.6359 231.3972 167.6359 C 231.97942 167.6359 232.07645 168.7033 231.83386 174.08879 Z"/>
            </g>
            <g>
               <path d="M 181.13265 172.97287 C 183.7041 177.53356 187.73109 183.8894 190.05994 187.1401 C 191.36993 188.93527 192.43732 190.6334 192.43732 190.82746 C 192.43732 191.07005 191.95214 191.4582 191.36993 191.7493 C 190.44809 192.13745 190.15698 191.9919 189.1381 190.48784 C 188.50737 189.566 187.58553 188.11046 187.14887 187.33418 C 186.32407 185.73308 184.62594 183.11312 181.90894 178.9891 C 181.03561 177.6306 180.30785 176.17506 180.30785 175.7384 C 180.30785 175.30173 180.11377 174.9136 179.82267 174.9136 C 178.90083 174.9136 179.33749 176.90282 180.79302 179.18317 C 181.61783 180.44463 183.80113 183.98644 185.5963 187.04307 C 188.5559 191.9919 188.79848 192.62263 187.97367 192.76818 C 186.32407 193.05929 185.69333 192.47707 184.2378 189.2749 C 183.4615 187.52825 182.0545 184.9568 181.18117 183.54978 C 177.7364 178.1643 176.9116 176.8543 176.9116 176.66024 C 176.9116 176.51468 176.3779 175.2047 175.69864 173.74916 C 175.0194 172.29362 174.4857 170.98364 174.4857 170.83809 C 174.4857 170.69253 175.65013 170.54698 177.10566 170.54698 L 179.77415 170.54698 L 181.13265 172.97287 Z"/>
            </g>
            <g>
               <path d="M 75.55768 217.60935 C 76.47952 218.14305 76.86767 220.22932 76.09138 220.7145 C 75.36361 221.15116 72.11291 219.79266 72.3555 219.16192 C 72.50105 218.77378 72.59809 218.19156 72.59809 217.80342 C 72.59809 217.02713 74.19918 216.9301 75.55768 217.60935 Z"/>
            </g>
            <g>
               <path d="M 303.59185 224.5474 C 308.2981 229.05958 310.28732 229.83586 317.2739 230.12697 C 322.6594 230.32104 323.2416 230.27252 326.39527 229.01106 C 328.23895 228.2833 329.93707 227.36145 330.17966 226.9248 C 330.76188 225.9059 330.8104 225.95443 332.12038 229.73883 C 333.13926 232.60138 335.22553 237.45317 342.01803 253.02742 C 343.328 256.08405 344.78355 259.04364 345.26873 259.57734 C 345.7054 260.11104 346.67575 261.56657 347.4035 262.82804 C 348.1313 264.13802 348.90758 265.1569 349.15016 265.1569 C 349.39275 265.1569 349.7324 265.64208 349.92645 266.2243 C 350.3146 267.43724 354.3416 273.11384 356.37933 275.29714 C 357.9319 276.94675 360.0667 281.1193 360.55187 283.44815 C 360.79446 284.7096 360.6489 285.2433 359.67855 286.21367 C 357.8834 288.00883 355.7001 288.2029 351.28495 286.98996 C 345.89947 285.53442 342.1636 283.3511 338.23364 279.46968 C 330.76188 271.9494 325.61898 267.43724 323.5327 266.5154 C 322.22273 265.9332 320.33053 265.54504 318.6324 265.54504 C 313.9747 265.54504 311.16064 267.43724 302.6215 276.41305 C 300.92336 278.20822 298.8371 280.00338 297.96377 280.39152 C 294.56752 281.9926 290.92868 280.92522 289.9583 278.01414 C 289.18203 275.6853 290.1524 268.06797 291.89903 262.9736 C 294.95566 253.90074 296.75082 249.1945 298.15784 246.38047 C 300.38967 241.91682 300.7293 239.3939 300.34115 229.83586 C 300.14708 225.27518 300.09856 221.49078 300.1956 221.49078 C 300.29263 221.49078 301.8452 222.84928 303.59185 224.5474 Z"/>
            </g>
            <g>
               <path d="M 73.51993 222.99484 C 75.21806 223.57705 75.36361 224.01371 74.29622 225.0326 C 73.47141 225.9059 70.851445 225.42073 70.94848 224.4989 C 71.14255 222.12152 71.094035 222.17003 73.51993 222.99484 Z"/>
            </g>
            <g>
               <path d="M 100.44737 237.2591 C 104.71694 238.8602 106.51211 240.12166 108.30727 242.79014 C 109.32615 244.2942 110.63613 245.50715 112.52833 246.52602 L 115.29385 247.98156 L 113.93535 249.29154 C 113.20758 250.0193 112.1887 250.60153 111.655 250.60153 C 111.16983 250.60153 109.18059 248.95192 107.23988 246.96268 C 105.29916 244.97345 102.87326 242.83866 101.85439 242.20793 C 99.33146 240.65536 94.72226 238.95723 92.83006 238.95723 L 91.27748 238.9087 L 92.73302 237.74428 C 93.99449 236.6769 94.91633 236.33726 96.66297 236.09467 C 97.0026 236.09467 98.65221 236.57985 100.44737 237.2591 Z"/>
            </g>
            <g>
               <path d="M 93.12116 241.38312 C 93.80042 241.91682 94.52818 242.35348 94.72226 242.35348 C 94.91633 242.35348 95.78965 242.88718 96.66297 243.56643 C 97.92444 244.5368 98.26406 245.21604 98.55517 247.15676 C 98.94331 250.21338 100.98107 252.1541 106.46359 254.91962 C 110.92724 257.15144 111.70352 257.8792 110.97575 259.2377 C 110.49058 260.15955 110.34502 260.15955 105.92989 258.84957 C 103.45548 258.1218 100.83551 257.15144 100.10774 256.71478 C 98.84628 255.84146 96.12928 250.84412 94.91633 247.05972 C 94.47967 245.70122 93.84893 244.97345 92.49043 244.2942 C 91.42304 243.7605 90.06454 243.32384 89.48232 243.32384 C 88.85159 243.32384 88.0753 243.12977 87.68716 242.88718 C 86.32866 242.01386 88.17234 240.70387 91.08341 240.46128 C 91.52007 240.46128 92.44191 240.84943 93.12116 241.38312 Z"/>
            </g>
            <g>
               <path d="M 83.32055 245.4101 C 82.83537 246.7201 79.14801 249.63117 77.98358 249.63117 C 77.06174 249.63117 75.70324 248.3697 75.41213 247.3023 C 75.31509 246.86565 76.62508 246.1864 79.14801 245.31308 C 81.2828 244.5853 83.17499 244.0516 83.36907 244.14865 C 83.56314 244.24568 83.51462 244.8279 83.32055 245.4101 Z"/>
            </g>
            <g>
               <path d="M 73.81104 249.92228 C 74.92695 253.7552 74.87843 255.30776 73.66548 256.56923 C 73.08327 257.10293 72.50105 257.49107 72.40402 257.34552 C 72.258464 257.24848 71.8218 255.4048 71.38514 253.36705 C 70.94848 251.28078 70.4633 249.24303 70.31775 248.9034 C 70.172194 248.46674 70.51182 248.03008 71.19107 247.73897 C 72.937715 247.0112 72.98623 247.0112 73.81104 249.92228 Z"/>
            </g>
            <g>
               <path d="M 69.58998 250.69856 C 70.70589 255.1622 70.70589 255.45332 69.58998 257.44255 C 68.42555 259.52882 67.55223 259.96548 67.98889 258.21884 C 68.279996 257.15144 67.358156 252.4452 66.53335 250.5045 C 66.29076 249.87376 66.48483 249.53413 67.30964 249.1945 C 69.05628 248.51526 69.05628 248.51526 69.58998 250.69856 Z"/>
            </g>
            <g>
               <g  id="outline-1">
                  <path 
                        d="M 224.21655 82.19587 C 219.41328 84.91287 203.59644 104.65966 203.59644 107.86184 C 203.59644 109.17183 204.61532 108.24999 206.1679 105.38743 C 207.13825 103.73782 208.9334 100.9723 210.2434 99.27417 C 211.50486 97.57605 212.91188 95.68385 213.30002 95.10163 C 215.3863 91.99649 222.51843 84.91287 224.79877 83.60289 C 226.20579 82.8266 227.37022 81.85624 227.37022 81.4681 C 227.37022 80.49774 226.98207 80.59478 224.21655 82.19587 Z"
                        fill="black"/>
               </g>
            </g>
            <g>
               <g  id="outline-2">
                  <path 
                        d="M 218.83106 95.68385 C 215.9685 98.59492 213.30002 101.45748 212.91188 102.13673 C 212.47522 102.81598 211.3108 104.46559 210.2919 105.82409 C 208.54527 108.15295 208.01157 109.46293 208.83638 109.41441 C 209.03045 109.3659 210.8256 107.18259 212.81484 104.46559 C 214.80408 101.7971 218.34589 97.81863 220.72326 95.63533 C 224.6532 91.94797 225.6721 90.49243 224.45914 90.49243 C 224.16803 90.49243 221.6451 92.82129 218.83106 95.68385 Z"
                        fill="black"/>
               </g>
            </g>
            <g>
               <g  id="outline-3">
                  <path 
                        d="M 190.78771 112.71363 C 190.64216 112.95622 191.36993 113.39288 192.3888 113.73251 C 193.4562 114.02362 194.86322 114.55731 195.59099 114.94546 L 196.85245 115.62471 L 193.65027 117.41987 C 191.51548 118.5843 190.54512 119.36059 190.88475 119.70021 C 191.17586 119.99132 192.00066 119.74873 193.2136 118.97244 C 194.281 118.29319 196.07617 117.2258 197.2406 116.59507 C 198.3565 115.91581 199.37538 115.18805 199.4239 114.94546 C 199.4239 114.70287 198.40502 114.36324 197.14356 114.16917 C 195.83358 114.02362 194.5236 113.63547 194.23248 113.39288 C 193.35916 112.71363 191.07882 112.27697 190.78771 112.71363 Z"
                        fill="black"/>
               </g>
            </g>
            <g>
               <g  id="outline-4">
                  <path 
                        d="M 181.13265 114.55731 C 180.69599 115.04249 181.22969 115.72174 182.0545 115.72174 C 182.44263 115.72174 182.73374 115.38212 182.73374 114.99397 C 182.73374 114.2662 181.71486 113.9751 181.13265 114.55731 Z"
                        fill="black"/>
               </g>
            </g>
            <g>
               <g  id="outline-5">
                  <path 
                        d="M 229.31093 116.1584 C 229.31093 116.44951 230.42684 117.2258 231.83386 118.00208 C 233.19236 118.72985 234.4053 119.60318 234.50235 119.89428 C 234.59938 120.23391 233.62903 120.71909 232.222 121.10723 C 230.76647 121.49537 229.94167 121.88352 230.23277 122.17462 C 230.71795 122.6598 235.4242 121.34982 236.34603 120.4765 C 236.92824 119.9428 235.37567 118.63282 232.12497 116.93469 C 229.55352 115.57619 229.31093 115.52767 229.31093 116.1584 Z"
                        fill="black"/>
               </g>
            </g>
            <g>
               <g  id="outline-6">
                  <path 
                        d="M 176.42641 117.37135 C 172.54498 118.0506 173.6609 118.68134 177.63936 118.0506 C 182.103 117.37135 182.29708 117.85653 178.5612 120.57353 C 176.71752 121.93204 175.0194 122.99943 174.72829 122.99943 C 174.4857 122.99943 174.63125 123.24202 175.06791 123.48461 C 175.69864 123.87275 176.57197 123.48461 178.99786 121.68945 C 180.69599 120.37946 182.83078 118.97244 183.7041 118.48726 C 184.57742 118.00208 185.15964 117.46839 184.96556 117.32283 C 184.43187 116.74062 179.72563 116.78914 176.42641 117.37135 Z"
                        fill="black"/>
               </g>
            </g>
            <g>
               <g  id="outline-7">
                  <path 
                        d="M 200.92796 118.0506 C 200.53981 118.48726 201.75276 119.60318 202.57757 119.60318 C 203.06274 119.60318 203.83903 119.89428 204.3242 120.28243 C 205.19753 120.91316 205.05198 121.05871 201.89831 122.56277 C 197.8228 124.45497 198.11392 124.30941 198.45354 124.84311 C 198.5991 125.0857 200.05463 124.64904 201.75276 123.82423 C 203.45089 123.04795 205.29457 122.17462 205.9253 121.88352 C 206.50752 121.59241 206.9927 121.20427 206.9927 121.0102 C 206.9927 120.52502 201.26758 117.7595 200.92796 118.0506 Z"
                        fill="black"/>
               </g>
            </g>
            <g>
               <g  id="outline-8">
                  <path 
                        d="M 215.82295 118.72985 C 215.9685 119.06948 217.22997 119.6517 218.637 120.08835 C 222.22732 121.10723 222.22732 121.835 218.6855 122.56277 C 215.92 123.09646 215.1437 123.58164 216.11406 124.16386 C 216.30813 124.2609 217.47256 124.06682 218.637 123.7272 C 219.84994 123.38757 221.40251 122.95091 222.1788 122.80536 C 223.0036 122.61129 223.48878 122.17462 223.48878 121.64093 C 223.48878 121.0102 222.51843 120.42798 219.94698 119.45762 C 215.92 117.95357 215.58036 117.90505 215.82295 118.72985 Z"
                        fill="black"/>
               </g>
            </g>
            <g>
               <g  id="outline-9">
                  <path 
                        d="M 182.49115 123.48461 C 182.6367 123.7272 184.04372 123.96979 185.54778 124.0183 C 187.05183 124.0183 188.74996 124.21238 189.28366 124.40645 C 190.05994 124.74607 189.76884 125.03718 187.34294 126.4442 C 185.74185 127.41456 184.04372 128.28788 183.60706 128.48195 C 182.6367 128.82158 182.39412 129.79194 183.26744 129.79194 C 184.2378 129.79194 192.43732 124.74607 192.29177 124.21238 C 192.0977 123.63016 188.847 123.09646 185.01408 123.04795 C 183.26744 122.99943 182.29708 123.1935 182.49115 123.48461 Z"
                        fill="black"/>
               </g>
            </g>
            <g>
               <g  id="outline-10">
                  <path 
                        d="M 232.70719 126.25013 C 232.70719 126.49272 234.0657 127.36604 235.66678 128.23936 C 237.3164 129.1612 238.4323 130.08304 238.23823 130.27712 C 237.75305 130.7623 232.41608 132.21783 231.1061 132.21783 C 230.62092 132.21783 230.37833 132.46042 230.52388 132.70301 C 230.8635 133.28523 233.67754 132.9456 237.41342 131.8782 C 241.48893 130.7623 241.34337 130.27712 236.0064 127.41456 C 233.09533 125.81347 232.70719 125.71643 232.70719 126.25013 Z"
                        fill="black"/>
               </g>
            </g>
            <g>
               <g  id="outline-11">
                  <path 
                        d="M 249.20327 126.88086 C 249.20327 127.17197 249.59142 127.5116 250.0766 127.70567 C 250.51326 127.85122 251.4351 128.43343 252.0173 129.01565 L 253.18174 130.03453 L 249.0092 130.5197 C 245.85554 130.90785 244.9337 131.15044 245.27332 131.63562 C 245.56443 132.1208 245.95257 132.1208 246.97145 131.73265 C 247.69922 131.49006 249.68845 131.24747 251.38658 131.24747 C 253.0847 131.24747 254.58876 131.0534 254.73432 130.85933 C 254.9769 130.42267 250.51326 126.39568 249.73697 126.39568 C 249.44586 126.39568 249.20327 126.63827 249.20327 126.88086 Z"
                        fill="black"/>
               </g>
            </g>
            <g>
               <g  id="outline-12">
                  <path 
                        d="M 212.4267 127.46308 C 212.57225 127.8027 213.39706 128.23936 214.27038 128.48195 C 216.2111 128.96713 217.90922 130.08304 217.327 130.42267 C 216.98738 130.61674 211.65041 131.73265 210.92265 131.73265 C 210.7771 131.73265 210.92265 131.97524 211.16523 132.21783 C 212.08707 133.13967 219.60735 131.39303 219.60735 130.27712 C 219.60735 129.6949 214.17335 126.88086 213.00892 126.88086 C 212.62077 126.88086 212.32966 127.12345 212.4267 127.46308 Z"
                        fill="black"/>
               </g>
            </g>
            <g>
               <g  id="outline-13">
                  <path 
                        d="M 152.41005 127.89974 C 151.34265 128.09381 149.0138 128.28788 147.21863 128.28788 C 145.08384 128.3364 143.91941 128.53047 143.91941 128.8701 C 143.91941 129.25824 145.2294 129.35528 148.52862 129.1612 C 151.05155 129.01565 153.13782 128.96713 153.13782 129.11269 C 153.13782 129.64638 149.8386 132.26635 148.43158 132.80005 C 146.78197 133.43078 146.39383 133.91596 147.4127 134.25558 C 148.18899 134.54669 155.66075 128.8701 155.41816 128.19085 C 155.17557 127.46308 154.69039 127.41456 152.41005 127.89974 Z"
                        fill="black"/>
               </g>
            </g>
            <g>
               <g  id="outline-14">
                  <path 
                        d="M 168.37244 128.77306 C 167.64467 129.50083 168.71207 129.79194 172.39943 129.79194 L 176.62048 129.79194 L 175.16495 131.29599 C 174.38866 132.1208 173.17571 133.13967 172.44794 133.57633 C 170.9924 134.44966 170.7013 135.1289 171.7687 135.1289 C 172.73905 135.1289 178.94934 129.6949 178.51268 129.25824 C 178.07602 128.8701 168.71207 128.43343 168.37244 128.77306 Z"
                        fill="black"/>
               </g>
            </g>
            <g>
               <g  id="outline-15">
                  <path 
                        d="M 265.21418 131.63562 C 265.21418 131.8782 266.0875 132.80005 267.1549 133.67337 C 268.2223 134.54669 269.09562 135.42001 269.09562 135.6626 C 269.09562 135.85667 267.446 135.9052 265.45677 135.75964 C 262.44866 135.51705 261.81793 135.61409 262.06052 136.14778 C 262.2546 136.63296 263.51606 136.87555 266.9123 136.92407 C 269.43524 137.0211 271.5215 136.97259 271.5215 136.82703 C 271.5215 136.53593 266.18454 131.53858 265.65085 131.34451 C 265.40826 131.24747 265.21418 131.39303 265.21418 131.63562 Z"
                        fill="black"/>
               </g>
            </g>
            <g>
               <g  id="outline-16">
                  <path 
                        d="M 159.057 133.04264 C 155.75778 133.18819 154.59335 133.38226 154.7389 133.81892 C 154.83594 134.20707 155.90334 134.35262 157.89257 134.3041 C 160.6581 134.15855 161.82252 134.64373 160.31847 135.27446 C 159.97884 135.42001 158.71738 136.1963 157.55295 137.06962 C 156.0489 138.13702 155.61223 138.76775 155.95186 139.10737 C 156.34 139.49552 157.06777 139.1559 158.42627 137.99146 C 159.44514 137.06962 161.2403 135.75964 162.3077 135.03187 C 164.00583 133.86744 165.0247 132.50894 163.95731 132.80005 C 163.71472 132.84856 161.53141 132.99412 159.057 133.04264 Z"
                        fill="black"/>
               </g>
            </g>
            <g>
               <g  id="outline-17">
                  <path 
                        d="M 186.17851 136.92407 C 181.18117 137.5548 179.53156 138.03998 169.39132 141.67882 C 158.28072 145.6573 153.9141 147.54949 154.35076 148.18022 C 154.4478 148.42281 156.72814 147.74356 159.2996 146.67617 C 163.76324 144.881 170.65278 142.4066 178.70675 139.7381 C 183.4615 138.13702 188.79848 137.5548 198.50206 137.5548 C 206.94418 137.5548 214.0278 138.0885 216.84183 138.9133 C 217.66663 139.20441 220.91733 140.02921 223.97396 140.75698 C 227.0306 141.48475 230.52388 142.60066 231.73683 143.18288 C 232.94978 143.7651 234.8905 144.54138 236.10344 144.97804 C 238.7234 145.85136 252.7936 152.7409 257.9365 155.65198 C 262.93384 158.46602 268.65896 162.34745 272.49187 165.64667 C 274.28703 167.15073 276.51886 168.94589 277.4407 169.67366 C 279.8666 171.51734 288.40574 181.31795 293.9368 188.4986 C 302.71853 199.99735 314.70245 219.6471 314.70245 222.55818 C 314.70245 223.04336 315.04208 223.4315 315.47874 223.4315 C 316.10947 223.4315 316.2065 223.09187 315.9639 221.58782 C 315.52725 219.25896 312.81025 214.64976 303.00963 199.41513 C 293.11198 184.08348 279.3329 168.60626 269.19265 161.3771 C 253.42433 150.16946 231.59127 140.5144 215.33777 137.5548 C 208.69082 136.34185 193.50472 136.00223 186.17851 136.92407 Z"
                        fill="black"/>
               </g>
            </g>
            <g>
               <g  id="outline-18">
                  <path 
                        d="M 246.2922 137.50628 C 246.2922 137.79739 247.16552 138.47664 248.1844 139.01034 C 249.2518 139.54404 250.22215 140.17477 250.41622 140.46588 C 250.75585 140.99957 250.41622 141.04809 247.31108 141.14513 C 246.14665 141.19364 245.07925 141.43623 244.98222 141.67882 C 244.88518 142.06697 249.44586 142.30956 252.0173 141.96993 C 253.27878 141.82438 252.5025 140.61143 250.17363 139.10737 C 247.26256 137.21518 246.2922 136.77851 246.2922 137.50628 Z"
                        fill="black"/>
               </g>
            </g>
            <g>
               <g  id="outline-19">
                  <path 
                        d="M 133.48806 139.78663 C 131.88697 140.12625 129.84922 140.41736 129.02442 140.41736 C 127.56888 140.46588 126.88963 141.09661 127.81147 141.58179 C 128.00554 141.67882 129.55811 141.48475 131.30476 141.14513 C 135.7684 140.17477 136.15655 140.36884 134.07028 142.60066 C 132.32363 144.39583 131.88697 145.31767 132.66326 145.31767 C 133.14844 145.31767 136.39914 141.77586 137.07839 140.56291 C 137.80616 139.20441 137.02987 139.01034 133.48806 139.78663 Z"
                        fill="black"/>
               </g>
            </g>
            <g>
               <g  id="outline-20">
                  <path 
                        d="M 148.04344 139.34996 C 144.79274 139.54404 143.43424 139.88366 143.43424 140.46588 C 143.43424 140.8055 144.64718 140.85402 146.73345 140.70847 L 149.98415 140.41736 L 147.80085 142.35807 C 146.5879 143.47399 145.47199 144.34731 145.27792 144.34731 C 145.03533 144.34731 144.88977 144.68693 144.88977 145.07508 C 144.88977 145.99692 146.15124 146.04544 146.68494 145.17211 C 147.1216 144.44434 151.24562 141.19364 152.2645 140.8055 C 152.74967 140.61143 152.65264 140.32032 151.97339 139.78663 C 151.43969 139.34996 150.906 139.05886 150.76044 139.10737 C 150.61489 139.1559 149.40194 139.25293 148.04344 139.34996 Z"
                        fill="black"/>
               </g>
            </g>
            <g>
               <g  id="outline-21">
                  <path 
                        d="M 119.12676 144.5899 C 118.1564 144.92952 116.11865 145.46322 114.6146 145.80285 C 113.11054 146.09395 111.8976 146.57913 111.8976 146.82172 C 111.8976 147.40394 112.57685 147.35542 116.02162 146.57913 C 117.62271 146.19099 118.98121 145.9484 119.07825 146.04544 C 119.17528 146.09395 118.54455 147.20987 117.76826 148.51985 C 116.11865 151.04278 115.87606 152.11017 116.94346 152.11017 C 117.28308 152.11017 117.71974 151.47944 117.8653 150.70315 C 118.01085 149.97539 118.93269 148.32578 119.85453 147.06431 C 122.37746 143.81361 122.23191 143.42547 119.12676 144.5899 Z"
                        fill="black"/>
               </g>
            </g>
            <g>
               <g  id="outline-22">
                  <path 
                        d="M 265.69936 144.49286 C 265.69936 144.881 266.71824 146.09395 267.9797 147.16135 L 270.26005 149.05355 L 266.47565 149.44169 C 263.95272 149.63576 262.7883 149.97539 262.93384 150.31501 C 263.03088 150.65464 263.56458 150.8487 264.04975 150.80019 C 264.53493 150.70315 266.3786 150.50908 268.02822 150.36353 C 271.57003 149.97539 272.39483 149.10206 270.50264 147.64653 C 269.8719 147.16135 268.5134 146.09395 267.54304 145.26915 C 266.28158 144.29879 265.69936 144.0562 265.69936 144.49286 Z"
                        fill="black"/>
               </g>
            </g>
            <g>
               <g  id="outline-23">
                  <path 
                        d="M 128.39368 150.21798 C 127.47184 150.46057 125.82223 150.65464 124.75484 150.70315 C 122.37746 150.75167 121.116 151.04278 121.116 151.67351 C 121.116 152.25573 124.31818 152.25573 126.35593 151.67351 C 127.18074 151.43092 127.9085 151.33389 127.9085 151.43092 C 127.9085 152.20721 126.2589 154.58459 125.43409 155.06977 C 124.6578 155.45791 124.56077 155.74902 124.99743 156.13716 C 125.57965 156.7679 125.53113 156.81641 129.267 152.20721 C 131.45031 149.4902 131.4018 149.44169 128.39368 150.21798 Z"
                        fill="black"/>
               </g>
            </g>
            <g>
               <g  id="outline-24">
                  <path 
                        d="M 282.68063 150.31501 C 282.68063 150.70315 283.9906 152.25573 285.64022 153.8083 L 288.5513 156.62234 L 285.97985 156.28271 C 284.57283 156.08864 282.8747 155.79753 282.24397 155.65198 C 281.41917 155.45791 281.17658 155.55495 281.32213 156.04012 C 281.56472 156.81641 290.6861 158.32047 291.31682 157.68973 C 291.5109 157.49566 291.0257 156.86493 290.2009 156.33123 C 289.42462 155.74902 287.4839 154.00237 285.97985 152.49832 C 283.06877 149.53872 282.68063 149.29614 282.68063 150.31501 Z"
                        fill="black"/>
               </g>
            </g>
            <g>
               <g  id="outline-25">
                  <path 
                        d="M 145.86013 150.99426 C 139.21318 153.08053 129.21849 157.25307 125.1915 159.63045 C 120.19416 162.59004 114.76015 167.6359 112.57685 171.32327 C 110.58761 174.71952 109.22911 182.72497 110.34502 184.47162 C 110.87872 185.29642 113.35313 185.39346 114.80867 184.61717 C 115.48792 184.27755 117.13753 183.0646 118.54455 181.90017 C 119.90305 180.73574 121.116 179.76538 121.26155 179.76538 C 121.50414 179.76538 122.4745 185.19939 122.71709 187.77084 C 122.81412 189.12934 122.95968 189.22637 125.1915 189.37193 C 127.18074 189.51748 128.24813 189.22637 131.01365 187.81935 C 135.62285 185.53901 139.69836 182.19128 141.25093 179.42576 C 143.72534 174.9621 146.34531 167.53887 147.75233 160.98895 C 149.8386 151.0913 149.88712 150.80019 148.96528 150.46057 C 148.57713 150.31501 148.18899 150.21798 148.14047 150.21798 C 148.09195 150.2665 147.07308 150.60612 145.86013 150.99426 Z"
                        fill="black"/>
               </g>
            </g>
            <g>
               <path d="M 147.80085 154.14793 C 147.80085 154.97273 147.46122 156.91345 147.07308 158.36898 C 146.68494 159.87304 145.90865 162.92967 145.37495 165.21 C 143.82238 171.4203 140.66871 178.55243 138.14578 181.31795 C 134.79805 185.05383 128.24813 188.45009 125.24002 188.06194 C 124.12411 187.9164 123.0082 187.04307 123.88152 187.04307 C 124.22114 187.04307 125.43409 186.36382 126.64704 185.53901 C 127.85999 184.76273 129.65515 183.93792 130.57699 183.79237 C 131.49883 183.64681 132.27512 183.3557 132.27512 183.11312 C 132.27512 182.04572 130.8681 182.28831 127.37481 183.98644 C 123.5419 185.92716 122.71709 185.92716 123.2993 184.18051 C 123.63893 183.0646 129.65515 180.25056 131.6929 180.25056 C 132.7603 180.25056 133.24547 180.00797 133.24547 179.5228 C 133.24547 179.13465 132.95437 178.79502 132.66326 178.79502 C 131.45031 178.79502 127.13222 180.105 125.14298 181.07536 C 123.39634 181.94869 123.05671 181.9972 122.81412 181.31795 C 122.66857 180.92981 122.91116 180.20204 123.34782 179.66835 C 124.17263 178.79502 131.01365 176.36913 132.80881 176.36913 C 133.8762 176.36913 134.07028 175.4958 133.0514 175.10766 C 132.66326 174.9621 130.09181 175.59284 127.32629 176.51468 C 124.02707 177.6306 122.23191 178.01874 121.98932 177.67911 C 121.79525 177.388 120.77637 178.06725 119.46639 179.37724 C 117.0405 181.75462 112.67388 184.37458 111.8976 183.8894 C 111.655 183.74385 111.41242 182.72497 111.41242 181.65758 C 111.41242 179.47427 112.57685 178.11577 116.2642 175.98098 C 117.47715 175.30173 119.32084 174.04027 120.38823 173.16695 C 124.07559 170.25587 132.7603 166.18037 135.38026 166.18037 C 136.35062 166.18037 137.3695 164.87038 136.5447 164.6278 C 135.08916 164.14262 124.02707 168.84885 120.72785 171.37178 C 117.96233 173.45805 112.67388 176.80579 112.47981 176.61172 C 112.1887 176.3206 114.22645 173.70064 116.2642 171.6629 C 119.90305 168.07257 132.08104 160.8434 134.50694 160.8434 C 135.38026 160.8434 135.38026 159.92156 134.50694 159.58193 C 133.92473 159.33934 125.53113 162.97819 124.99743 163.70595 C 124.85188 163.90003 123.5419 164.77335 122.08636 165.69519 C 120.63082 166.56851 118.54455 168.02405 117.47715 168.84885 C 115.58496 170.30439 113.83831 171.46882 114.32349 170.8866 C 117.8653 166.8111 119.7575 164.87038 121.4071 163.75447 C 123.97855 161.9593 131.78994 157.44714 132.37215 157.44714 C 132.61474 157.44714 134.16731 156.86493 135.81692 156.13716 C 140.57168 154.14793 145.03533 152.64387 146.49086 152.64387 C 147.6553 152.59535 147.80085 152.78942 147.80085 154.14793 Z"/>
            </g>
            <g>
               <g  id="outline-26">
                  <path 
                        d="M 276.6644 155.60346 C 277.7318 156.7679 279.0418 158.22343 279.52697 158.85416 L 280.49733 160.0186 L 277.1496 159.72749 C 274.57814 159.4849 273.8989 159.53341 274.33555 159.97007 C 275.11184 160.74636 281.71027 161.08599 281.71027 160.35822 C 281.71027 159.43638 276.3248 153.56571 275.49998 153.56571 C 274.9663 153.56571 275.35443 154.24496 276.6644 155.60346 Z"
                        fill="black"/>
               </g>
            </g>
            <g>
               <g  id="outline-27">
                  <path 
                        d="M 111.16983 158.17491 C 109.85984 158.51454 107.91913 158.85416 106.94877 158.85416 C 105.25064 158.90268 104.57139 159.4849 105.49323 160.06711 C 105.6873 160.16415 107.2884 159.97007 108.98652 159.63045 C 113.88683 158.56306 113.98387 158.61157 112.81944 160.55229 C 112.28574 161.47413 111.50945 162.493 111.12131 162.78411 C 110.39354 163.41485 110.19947 164.72483 110.8302 164.72483 C 111.31538 164.72483 115.77903 158.61157 115.77903 157.93232 C 115.77903 157.30159 114.22645 157.39863 111.16983 158.17491 Z"
                        fill="black"/>
               </g>
            </g>
            <g>
               <g  id="outline-28">
                  <path 
                        d="M 298.69154 164.48224 C 298.69154 164.9189 299.22524 165.9863 299.85597 166.8111 C 300.4867 167.68442 301.16595 168.89737 301.36003 169.5281 C 301.69965 170.5955 301.40854 170.49846 298.49747 168.4607 C 296.75082 167.24776 295.19825 166.42296 295.0527 166.66555 C 294.66455 167.29628 295.3438 168.65478 295.92602 168.4607 C 296.21713 168.36367 297.67266 169.13996 299.1282 170.15884 C 303.59185 173.3125 304.36814 172.53621 301.5541 167.68442 C 299.46783 164.04558 298.69154 163.17226 298.69154 164.48224 Z"
                        fill="black"/>
               </g>
            </g>
            <g>
               <g  id="outline-29">
                  <path 
                        d="M 288.89092 165.93778 C 288.74537 166.08333 289.03648 167.3448 289.57017 168.7033 C 290.05535 170.0618 290.39498 171.22623 290.29794 171.37178 C 290.1524 171.46882 289.03648 170.64401 287.775 169.57662 C 286.02837 168.07257 285.3491 167.73294 284.91245 168.1696 C 284.5243 168.55774 284.5243 168.80033 285.0095 168.94589 C 285.3491 169.09144 286.46503 169.91625 287.53242 170.78957 C 289.52166 172.43918 291.2683 173.26398 291.75348 172.7788 C 292.0446 172.4877 290.10387 166.71406 289.52166 166.03481 C 289.3276 165.84074 289.03648 165.79222 288.89092 165.93778 Z"
                        fill="black"/>
               </g>
            </g>
            <g>
               <g  id="outline-30">
                  <path 
                        d="M 300.63226 178.40688 C 300.68077 179.18317 302.23335 183.64681 302.71853 184.47162 C 303.64037 185.92716 299.75893 184.18051 297.7697 182.2398 C 296.1201 180.6387 295.14973 180.29908 295.6349 181.51203 C 296.26565 183.25867 303.00963 187.23714 303.88296 186.41233 C 304.2226 186.0242 301.50558 177.82467 301.0204 177.82467 C 300.82633 177.82467 300.63226 178.11577 300.63226 178.40688 Z"
                        fill="black"/>
               </g>
            </g>
            <g>
               <g  id="outline-31">
                  <path 
                        d="M 312.27655 183.11312 C 312.27655 183.40422 312.81025 184.81124 313.441 186.3153 C 314.12024 187.77084 314.45986 188.98378 314.21727 188.98378 C 313.9747 188.98378 312.51914 188.2075 310.96657 187.28566 C 307.8129 185.39346 307.42476 185.29642 307.42476 186.3153 C 307.42476 186.70344 307.71587 187.04307 308.0555 187.04307 C 308.3466 187.04307 310.1903 188.01343 312.03397 189.22637 C 313.92616 190.3908 315.6243 191.1671 315.81836 190.97302 C 316.30354 190.48784 313.58654 183.01608 312.81025 182.7735 C 312.51914 182.67646 312.27655 182.822 312.27655 183.11312 Z"
                        fill="black"/>
               </g>
            </g>
            <g>
               <g  id="outline-32">
                  <path 
                        d="M 89.23973 192.23448 C 87.83271 192.76818 88.75455 193.30188 90.69527 193.05929 C 92.53895 192.86522 93.02413 193.01077 95.45002 194.85445 C 98.40962 197.1348 102.09698 202.3262 103.74659 206.54727 C 105.00805 209.84648 105.05657 210.1861 105.44471 215.52308 C 105.73582 219.79266 106.12396 220.95709 106.7547 219.30748 C 107.09432 218.33712 105.83286 208.8276 105.20212 207.61466 C 104.66843 206.6443 104.61991 206.3532 104.61991 205.2858 C 104.61991 204.94618 103.30993 202.71435 101.70883 200.33697 C 97.2937 193.78706 92.73302 190.77895 89.23973 192.23448 Z"
                        fill="black"/>
               </g>
            </g>
            <g>
               <g  id="outline-33">
                  <path 
                        d="M 314.45986 197.08627 C 314.3143 198.34774 314.12024 199.70624 314.0717 200.04587 C 314.0232 200.3855 312.81025 199.70624 311.20916 198.44478 C 309.31696 196.98924 308.3466 196.45554 308.104 196.84369 C 307.86143 197.1833 308.2981 197.81404 309.1229 198.39626 C 309.89918 198.97847 311.45175 200.23994 312.56766 201.2103 C 313.63506 202.22917 314.65393 203.05398 314.7995 203.05398 C 314.94504 203.05398 315.18763 201.59844 315.3332 199.75476 C 315.47874 197.9596 315.6728 196.21295 315.76984 195.8248 C 315.86688 195.48518 315.6728 195.09704 315.3332 194.95149 C 314.99356 194.80593 314.65393 195.58222 314.45986 197.08627 Z"
                        fill="black"/>
               </g>
            </g>
            <g>
               <g  id="outline-34">
                  <path 
                        d="M 83.02944 201.06474 C 80.45799 201.69548 77.64395 203.6847 78.17765 204.50951 C 78.37172 204.84914 78.95394 204.65507 79.92429 203.97582 C 81.67094 202.76287 84.19387 201.98658 85.3583 202.37473 C 86.76532 202.81139 89.4338 207.4691 90.5012 211.35054 C 91.0349 213.33977 91.66563 215.5716 91.95673 216.3964 C 92.24784 217.1727 93.07265 219.69562 93.84893 221.97596 C 94.62522 224.20779 95.54706 226.1485 95.83817 226.24554 C 96.56594 226.48813 96.51742 225.3237 95.59558 223.1889 C 95.15892 222.17003 93.84893 218.14305 92.63599 214.26161 C 91.42304 210.38018 89.91898 206.25616 89.23973 205.14025 C 88.12382 203.15101 85.50385 200.57956 84.8246 200.6766 C 84.63053 200.72512 83.85424 200.87067 83.02944 201.06474 Z"
                        fill="black"/>
               </g>
            </g>
            <g>
               <g  id="outline-35">
                  <path 
                        d="M 301.7967 228.08922 C 302.57297 230.7577 303.10667 234.15396 303.10667 236.53133 C 303.10667 239.05426 301.16595 250.06783 300.14708 253.27 C 299.1282 256.4722 296.60527 264.18654 295.24677 268.26205 C 294.4705 270.63942 293.9368 272.67718 294.03382 272.82273 C 294.66455 273.45346 295.78047 271.60978 296.26565 269.1839 C 296.60527 267.67983 297.236 265.54504 297.7212 264.3806 C 298.8856 261.6636 301.94224 251.3778 302.3304 248.9034 C 302.47594 247.836 302.9611 245.6527 303.39778 244.0516 C 304.8533 238.6176 304.07703 228.0407 302.1363 227.40997 C 301.69965 227.2644 301.6026 227.45848 301.7967 228.08922 Z"
                        fill="black"/>
               </g>
            </g>
            <g>
               <g  id="outline-36">
                  <path 
                        d="M 327.8023 231.19436 C 327.8023 231.8251 330.42225 238.375 332.26593 242.30496 C 336.2929 250.98967 336.87513 252.05706 343.8132 262.731 C 346.09354 266.2243 348.22832 269.66906 348.61647 270.39683 C 348.9561 271.1246 350.3631 273.5505 351.6731 275.83084 C 355.7971 282.7689 355.506 282.38076 355.9912 281.50743 C 356.3308 280.97374 356.0397 280.14893 355.02083 278.64488 C 354.24455 277.48045 352.2553 274.1327 350.6057 271.22164 C 348.90758 268.26205 345.55984 262.82804 343.08543 259.09216 C 335.7107 247.836 335.6622 247.7875 329.11227 232.01917 C 328.53005 230.7577 327.8023 230.224 327.8023 231.19436 Z"
                        fill="black"/>
               </g>
            </g>
            <g>
               <g  id="outline-37">
                  <path 
                        d="M 307.42476 235.9006 C 307.37625 243.08125 303.10667 266.70947 301.5541 268.26205 C 300.9719 268.89278 300.9719 270.0087 301.6026 270.0087 C 302.23335 270.0087 303.00963 268.45612 303.54333 266.03022 C 303.78592 264.8658 304.41665 262.29434 304.99887 260.3051 C 305.9207 256.86034 307.4733 247.35083 308.15253 240.41277 C 308.3466 238.66612 308.5892 237.11355 308.68623 236.968 C 309.02586 236.38578 308.2981 232.16472 307.86143 232.16472 C 307.61884 232.16472 307.42476 233.86285 307.42476 235.9006 Z"
                        fill="black"/>
               </g>
            </g>
            <g>
               <g  id="outline-38">
                  <path 
                        d="M 322.75642 233.52322 C 322.6594 233.7173 324.0664 236.968 325.9586 240.65536 C 327.8023 244.39123 330.2282 249.1945 331.29557 251.3293 C 334.0611 256.81182 338.33067 263.65284 347.3065 276.99527 C 347.54907 277.3834 347.8402 277.3349 348.22832 276.94675 C 348.665 276.5101 348.4709 275.92787 347.355 274.52086 C 345.31725 271.9494 339.2525 262.77952 338.28215 260.93584 C 337.8455 260.06252 336.87513 258.46143 336.09885 257.297 C 335.32256 256.13257 333.38184 252.6878 331.78075 249.63117 C 330.17966 246.57454 328.19043 242.83866 327.3171 241.43164 C 326.4923 239.9761 325.32787 237.59873 324.8427 236.1917 C 323.87233 233.62026 323.2416 232.79545 322.75642 233.52322 Z"
                        fill="black"/>
               </g>
            </g>
            <g>
               <g  id="outline-39">
                  <path 
                        d="M 311.5973 234.68765 C 312.0825 235.99764 312.17952 246.62306 311.79138 252.54224 C 311.5973 254.8226 311.5488 256.7633 311.64582 256.86034 C 312.9073 258.55846 313.87765 240.70387 312.76173 236.09467 C 312.47063 234.73617 311.93693 233.62026 311.69434 233.62026 C 311.40323 233.62026 311.3547 234.05692 311.5973 234.68765 Z"
                        fill="black"/>
               </g>
            </g>
            <g>
               <g  id="outline-40">
                  <path 
                        d="M 318.5839 234.7847 C 318.5839 235.56098 319.02054 236.87096 319.50572 237.69576 C 320.03942 238.52057 321.00978 240.94646 321.73755 243.08125 C 323.62975 248.70933 334.15813 269.5235 335.07997 269.5235 C 336.09885 269.5235 335.85626 268.60167 334.0611 265.64208 C 332.9937 263.89543 331.44113 261.0814 330.61632 259.33475 C 329.7915 257.63662 328.0934 254.3374 326.83193 252.00855 C 325.52194 249.7282 323.87233 246.08936 323.14457 244.0031 C 322.4653 241.8683 321.1068 238.66612 320.2335 236.77392 C 318.875 234.0084 318.5839 233.62026 318.5839 234.7847 Z"
                        fill="black"/>
               </g>
            </g>
            <g>
               <g  id="outline-41">
                  <path 
                        d="M 316.158 234.93024 C 316.158 235.80357 318.24426 256.27812 318.3898 257.39403 C 318.53536 258.0733 318.72944 259.4318 318.875 260.40214 C 319.06906 261.42102 319.4087 262.24582 319.65128 262.24582 C 320.13646 262.24582 319.89387 257.24848 319.26313 254.3374 C 318.97203 252.88187 318.19574 246.67158 317.90463 243.08125 C 317.41945 237.40466 316.9828 234.59062 316.59465 234.59062 C 316.35206 234.59062 316.158 234.73617 316.158 234.93024 Z"
                        fill="black"/>
               </g>
            </g>
            <g>
               <g  id="outline-42">
                  <path 
                        d="M 133.73065 169.81921 C 132.80881 170.15884 130.18885 171.1292 127.95702 171.954 C 121.01896 174.47693 113.83831 178.94058 112.47981 181.4635 C 111.55797 183.21015 112.62536 183.40422 113.88683 181.75462 C 116.02162 178.89206 121.35859 175.83543 130.3344 172.43918 C 135.71989 170.3529 137.1269 169.57662 135.81692 169.237 C 135.62285 169.18848 134.6525 169.47958 133.73065 169.81921 Z"
                        fill="black"/>
               </g>
            </g>
         </g>
      </g>
   </g>
</svg>