<?xml version="1.0" encoding="UTF-8" standalone="no"?>
<!DOCTYPE svg PUBLIC "-//W3C//DTD SVG 1.1//EN" "http://www.w3.org/Graphics/SVG/1.1/DTD/svg11.dtd">
<svg xmlns:dc="http://purl.org/dc/elements/1.1/" xmlns:xl="http://www.w3.org/1999/xlink" version="1.1" xmlns="http://www.w3.org/2000/svg" viewBox="72 60.75 220.5 344.25" width="220.5" height="344.25">
  <defs>
    <clipPath id="artboard_clip_path">
      <path d="M 72 60.75 L 292.5 60.75 L 292.5 405 L 72 405 Z"/>
    </clipPath>
  </defs>
  <metadata> Produced by OmniGraffle 7.8 
    <dc:date>2018-07-22 18:16:24 +0000</dc:date><dc:title>Traceable heraldic art http://heraldicart.org/credits.html</dc:title>
  </metadata>
  <g id="Chabot_Tergiant" fill-opacity="1" stroke-dasharray="none" stroke="none" stroke-opacity="1" fill="#ffff00">
    <title>Chabot Tergiant</title>
    <g id="Chabot_Tergiant: Layer 2" >
      <title>Layer 2</title>
      <g id="Group_3">
        <g id="Graphic_63">
          <path d="M 170.49782 62.678564 C 168.58349 63.98837 166.46765 66.809495 164.75482 70.73892 C 161.9337 76.98569 160.72464 77.99323 156.1907 77.99323 C 153.06731 77.99323 148.4326 83.03095 147.32431 87.66566 C 146.9213 89.27773 145.71224 91.9981 144.60394 93.81168 C 143.49564 95.82676 142.89112 98.04336 143.29413 99.35317 C 143.89866 102.07354 140.47301 116.17915 137.8534 121.21687 C 136.84585 123.23196 134.62925 126.65761 132.81568 128.8742 C 130.29682 131.9976 129.79304 133.50891 130.19606 135.92702 C 130.49832 137.53909 131.2036 142.47605 131.90889 146.80849 L 133.01718 154.76809 L 128.98701 158.89902 C 126.77041 161.21637 123.54627 166.2541 121.73269 170.18351 C 119.81836 174.01218 116.69497 179.2514 114.67988 181.77027 C 112.76555 184.28913 110.34744 187.51327 109.3399 189.02459 C 107.1233 192.551 96.34258 200.20832 89.18902 203.3317 C 86.16639 204.74227 83.34526 206.35434 82.94225 206.85812 C 82.63998 207.46264 80.52414 208.36943 78.30754 208.97396 C 75.99019 209.67924 74.37812 210.58603 74.680385 211.2913 C 75.0834 212.60112 108.03009 212.80263 112.96706 211.49282 C 115.0829 210.8883 115.68743 211.0898 115.68743 212.29885 C 115.68743 214.81771 110.54895 232.34898 108.83613 235.67387 C 106.72028 239.8048 106.31727 270.3334 108.33236 275.1696 C 109.03764 276.98318 109.64216 279.6028 109.64216 281.1141 C 109.64216 282.62543 110.75046 286.35334 112.06027 289.47673 C 115.68743 298.24236 116.39271 301.56725 116.1912 309.2246 C 115.98969 314.2623 115.18365 318.09098 113.26932 322.72568 C 110.14593 329.87924 110.4482 331.89433 114.17611 331.89433 C 118.00478 331.89433 120.52364 330.383 126.97192 324.0355 C 130.39757 320.81135 133.2187 318.6955 134.12548 319.09852 C 135.6368 319.70305 140.2715 328.77094 141.3798 333.40565 C 142.18583 337.0328 148.53336 350.23163 153.26882 358.19123 C 155.18315 361.21386 156.99673 365.24404 157.299 367.0576 C 158.00428 370.3825 157.80277 370.98704 153.16806 379.9542 C 151.95901 382.27153 150.95147 384.89115 150.95147 385.6972 C 150.95147 386.60397 149.74241 387.9138 148.2311 388.82057 C 143.49564 391.33943 137.55113 397.08243 138.25641 398.2915 C 139.26396 399.90355 145.71224 399.70204 151.556 397.88846 C 154.27636 397.08243 157.90352 396.37715 159.61635 396.37715 C 161.32917 396.37715 163.34426 395.67187 164.04954 394.86583 C 165.86312 392.75 166.97142 392.9515 168.07972 395.87338 C 168.58349 397.28394 169.69179 398.39224 170.49782 398.39224 C 171.30386 398.39224 174.62875 395.47036 177.95365 391.8432 C 181.27854 388.21604 184.40193 385.29416 185.00646 385.29416 C 185.61098 385.29416 187.52532 387.81302 189.23814 390.83566 C 192.26077 396.17564 197.39925 401.01185 198.70905 399.70204 C 199.01132 399.3998 199.31358 397.7877 199.31358 396.17564 C 199.31358 394.6643 199.81735 393.3545 200.42188 393.3545 C 201.0264 393.3545 203.74678 395.87338 206.5679 398.896 C 209.28827 401.91864 212.5124 404.4375 213.51995 404.4375 C 215.53504 404.4375 216.13957 402.9262 214.5275 402.0194 C 214.02372 401.71713 213.4192 400.0043 213.2177 398.2915 C 212.61316 394.56357 214.326 393.55602 217.65088 395.67187 C 218.9607 396.4779 221.68106 397.68695 223.7969 398.39224 C 230.14443 400.40732 230.54745 398.493 225.61048 391.23867 C 222.38634 386.60397 221.07653 383.4806 220.37125 378.8459 C 219.86748 375.42023 218.75918 371.2893 217.95315 369.47572 C 217.1471 367.7629 216.44183 365.1433 216.44183 363.63197 C 216.44183 360.5086 221.07653 345.6977 223.09162 342.47354 C 223.69615 341.36524 224.60294 338.64487 225.00595 336.42828 C 225.71123 331.9951 234.27536 314.36306 238.10403 309.32534 C 239.31308 307.61252 241.83194 303.4816 243.444 300.05594 C 245.15683 296.6303 247.6757 292.6001 248.9855 290.98804 C 250.39606 289.37597 251.60512 287.15937 251.80663 286.15183 C 252.41115 282.9277 254.22473 283.22995 259.76622 287.66315 C 266.31526 292.80162 270.8492 294.31294 272.56203 291.9956 C 273.67033 290.48427 274.57712 290.48427 279.41333 291.39106 C 285.35784 292.6001 290.4963 291.59257 289.79104 289.37597 C 289.58953 288.77145 286.5669 286.55485 283.14124 284.439 C 273.87184 278.79676 265.8115 270.03113 265.8115 265.6987 C 265.8115 264.5904 264.7032 260.5602 263.29263 256.53004 C 261.98282 252.6006 260.37075 245.64856 259.86698 241.01386 C 259.3632 236.37916 258.2549 230.7369 257.34812 228.41956 C 256.54208 226.1022 255.53454 222.07203 255.23228 219.35166 C 254.82926 216.73205 253.2172 211.49282 251.60512 207.7649 C 249.99305 204.13775 248.68324 200.61134 248.68324 200.10757 C 248.68324 199.6038 247.57494 197.5887 246.26513 195.67438 C 244.95533 193.76004 243.64552 190.5359 243.2425 188.62157 C 242.83948 186.60648 241.73119 183.88611 240.72364 182.5763 C 239.7161 181.2665 238.10403 178.44537 237.19724 176.32953 C 233.36857 167.16088 218.2554 148.62207 213.2177 147.01 C 210.69883 146.10321 210.0943 142.3753 209.8928 123.33272 C 209.69128 106.80899 209.48978 105.39843 207.07167 100.05845 C 204.45206 94.31545 197.5 84.84453 192.16002 79.80681 C 190.04418 77.89248 189.23814 76.0789 189.23814 73.76155 C 189.23814 71.94797 188.93588 69.52986 188.63361 68.421565 C 186.9208 62.678564 176.14007 59.252915 170.49782 62.678564 Z" fill="#cccccc"/>
        </g>
        <g id="Graphic_62">
          <path d="M 181.48005 71.847215 C 183.39439 72.5525 184.50268 74.366075 186.11475 79.30304 C 187.3238 82.9302 189.23814 86.65811 190.24569 87.5649 C 191.35398 88.57245 192.26077 89.07622 192.26077 88.77395 C 192.26077 88.37094 194.07435 90.08376 196.1902 92.40111 C 204.75432 101.67052 207.8777 112.85426 205.05658 123.93724 C 203.74678 129.17647 203.64602 130.78854 204.85507 136.43079 C 205.6611 140.05795 206.26564 144.7934 206.3664 147.01 C 206.3664 150.23414 206.87016 151.24168 208.68374 152.04772 C 212.41165 153.76054 212.00864 157.68997 207.4747 163.83599 C 205.15734 166.75786 203.34376 169.47823 203.34376 169.7805 C 203.34376 170.18351 202.63848 170.78804 201.83244 171.0903 C 200.72414 171.49332 199.9181 170.78804 199.31358 169.07521 L 198.30604 166.4556 L 193.36907 170.58653 C 190.6487 172.90388 188.02909 174.71746 187.52532 174.71746 C 187.02154 174.71746 184.20042 175.82576 181.3793 177.23632 C 175.13252 180.25895 174.42724 180.25895 166.06463 177.7401 C 158.30654 175.42274 152.96656 172.70237 152.96656 171.0903 C 152.96656 169.07521 149.13789 166.4556 147.22355 167.06013 C 145.813 167.46314 144.20092 166.4556 141.27905 163.43297 C 137.45038 159.20128 137.34962 158.99977 137.75264 152.5515 L 138.0549 146.00246 L 140.47301 149.02509 C 141.78282 150.73791 143.29413 153.35753 143.69715 154.9696 C 144.10017 156.58167 145.00696 158.09298 145.71224 158.39525 C 146.61903 158.69751 146.9213 156.58167 146.9213 151.04018 C 146.9213 145.29718 147.42506 142.3753 148.93638 139.35267 C 151.45524 134.51645 150.85071 131.79609 147.1228 130.8893 C 143.49564 129.9825 139.86848 134.31495 139.86848 139.65493 C 139.86848 143.18133 138.45792 145.39793 137.14811 144.08812 C 136.7451 143.78586 136.9466 140.25945 137.55113 136.43079 C 138.35717 131.49382 139.46547 128.47119 141.17829 126.35535 C 145.20847 121.72064 148.83563 112.95501 149.84317 106.00296 C 150.54845 100.56222 152.26128 95.62525 155.98919 88.06867 C 157.299 85.34831 159.5156 86.35585 159.31408 89.57999 C 159.11257 91.19206 159.01182 94.11394 159.01182 95.82676 C 159.01182 97.64034 158.4073 100.36071 157.70201 101.87203 C 156.89598 103.4841 155.88843 106.80899 155.58617 109.42861 C 154.98164 113.76105 155.0824 114.26482 156.79522 114.26482 C 157.80277 114.26482 159.31408 113.45878 160.12012 112.45124 C 162.73973 109.42861 165.35935 103.58485 164.85558 102.07354 C 164.55331 101.2675 164.75482 99.55468 165.2586 98.14411 C 165.86312 96.73355 166.5684 91.89734 166.97142 87.36339 C 168.28123 73.66079 173.01668 68.623074 181.48005 71.847215 Z" fill="#ff0000"/>
        </g>
        <g id="Graphic_61">
          <path d="M 137.75264 161.41788 C 138.25641 162.42542 138.35717 163.83599 137.8534 164.64202 C 136.64434 166.55635 137.34962 169.07521 139.96924 172.60162 C 142.6896 176.32953 144.80545 176.8333 142.4881 173.1054 C 141.48055 171.69483 140.87603 169.57899 141.07754 168.36993 C 141.3798 166.35485 141.78282 166.55635 145.91375 170.58653 C 150.85071 175.42274 159.21333 179.85594 166.97142 181.87102 C 172.61366 183.28159 176.03931 182.5763 186.014 178.1431 C 191.9585 175.42274 193.26832 175.22123 193.26832 176.8333 C 193.26832 177.43783 194.67888 176.73255 196.3917 175.32199 C 198.10453 173.91143 200.22037 172.70237 201.12716 172.70237 C 204.25055 172.70237 209.48978 168.6722 211.0011 165.1458 C 211.90788 162.82844 213.11693 161.61939 214.42674 161.61939 C 217.95315 161.61939 217.65088 163.63448 213.31844 167.96692 C 211.0011 170.28427 208.28072 173.5084 207.27318 175.12048 C 205.4596 178.04236 204.95583 178.44537 196.3917 183.08008 C 190.95097 186.00195 190.14493 187.211 192.8653 188.21855 C 194.37662 188.82308 194.37662 189.02459 192.76455 190.83817 C 190.14493 193.76004 192.6638 193.55853 199.5151 190.3344 C 202.43697 188.92383 205.6611 187.81553 206.5679 187.81553 C 209.38902 187.81553 209.8928 185.59894 207.57544 183.98687 C 204.85507 182.17329 204.75432 180.1582 207.37393 178.74764 C 208.48223 178.1431 211.70637 175.62425 214.42674 173.20614 C 217.24787 170.68728 219.96823 168.6722 220.472 168.6722 C 222.38634 168.6722 221.47955 172.4001 218.9607 174.71746 C 216.44183 177.13557 215.73655 179.2514 217.24787 180.1582 C 217.75164 180.46046 220.069 179.2514 222.38634 177.53858 C 227.82708 173.60916 229.23764 174.91897 224.19992 179.2514 C 220.472 182.47555 218.0539 184.18837 208.38148 190.3344 C 203.34376 193.6593 204.65356 194.9691 210.39657 192.34948 C 213.82222 190.83817 215.43429 189.93138 220.472 186.70723 C 224.30067 184.18837 227.52481 183.38234 227.52481 184.9944 C 227.42406 187.211 222.8901 191.6442 218.2554 194.0623 C 215.73655 195.37211 212.00864 197.48796 209.79204 198.89852 C 205.86262 201.41738 205.86262 201.41738 208.58299 201.71964 C 211.80713 202.12266 215.03127 200.51059 226.9203 192.65174 C 231.85725 189.4276 236.1897 187.0095 236.49196 187.31176 C 237.4995 188.42006 226.11425 197.79022 220.472 200.40983 C 217.44937 201.92115 213.31844 204.33926 211.4041 205.85057 C 206.97092 209.17547 202.94074 210.98905 199.81735 210.98905 C 198.20528 210.98905 197.2985 211.59357 197.2985 212.60112 C 197.2985 216.22827 208.7845 211.59357 226.215 201.11511 C 231.85725 197.68946 236.79422 194.86834 237.09648 194.86834 C 238.8093 194.86834 236.99573 197.08494 232.96555 199.8053 C 230.34594 201.51813 227.62557 203.83548 226.81953 204.94378 C 226.0135 206.05208 224.50218 206.95887 223.39388 206.95887 C 222.28559 206.95887 221.47955 207.66415 221.47955 208.57094 C 221.47955 209.88075 222.18483 210.08226 225.1067 209.47773 C 227.82708 208.97396 228.6331 209.17547 228.33085 210.08226 C 227.62557 212.09734 220.87502 215.82526 207.6762 221.56826 C 205.2581 222.5758 203.34376 223.98636 203.34376 224.7924 C 203.34376 226.40447 203.74678 226.40447 207.6762 224.69164 C 209.48978 223.8856 212.91543 222.5758 215.43429 221.56826 C 217.95315 220.66147 224.60294 217.43733 230.34594 214.4147 C 241.52968 208.57094 241.63043 208.47019 241.63043 209.88075 C 241.63043 210.38452 239.21232 212.1981 236.29045 213.91092 C 233.36857 215.62375 230.04367 217.9411 229.03613 219.0494 C 228.02859 220.1577 226.41652 221.06449 225.50973 221.06449 C 223.39388 221.06449 215.13202 225.59843 213.4192 227.61352 C 212.71392 228.41956 211.10185 229.12484 209.79204 229.12484 C 208.58299 229.12484 207.17242 229.6286 206.7694 230.23314 C 206.26564 231.03917 206.87016 231.24068 208.48223 230.83766 C 212.61316 229.93087 221.07653 226.60598 223.7969 224.7924 C 225.20746 223.8856 227.3233 223.07957 228.53236 223.07957 C 230.24518 223.07957 230.34594 223.38184 229.43915 224.89315 C 228.83462 225.9007 226.61802 227.81503 224.60294 229.12484 C 221.88257 230.93842 221.3788 231.6437 222.6886 231.94596 C 224.40143 232.24822 228.53236 230.5354 238.6078 225.09466 C 241.63043 223.4826 244.75382 222.17278 245.4591 222.07203 C 248.17947 221.97128 246.3659 224.18787 241.52968 226.8075 C 233.87234 230.93842 232.6633 231.6437 230.24518 233.8603 C 229.03613 234.9686 227.22255 236.17765 226.31576 236.4799 C 225.30822 236.88293 224.50218 237.5882 224.50218 238.19273 C 224.50218 239.70405 226.11425 239.4018 227.52481 237.68896 C 228.2301 236.88293 229.13688 236.37916 229.5399 236.68142 C 230.04367 236.98368 230.6482 236.78217 230.95046 236.2784 C 231.25273 235.77463 232.76404 235.06935 234.27536 234.66633 C 235.88743 234.36407 239.5146 232.34898 242.43647 230.43465 C 247.27268 227.10975 249.79154 226.50522 248.28022 229.02408 C 246.86966 231.24068 228.53236 243.1297 220.16974 247.15988 C 215.33353 249.57798 211.50486 251.69382 211.70637 251.89533 C 212.3109 252.49986 224.60294 248.46968 227.02104 246.8576 C 228.12934 246.15233 230.34594 245.24554 231.958 244.84253 L 234.77913 244.13724 L 232.8648 247.46214 C 231.85725 249.27572 229.64066 251.39156 227.92783 252.1976 C 226.31576 253.00363 223.39388 254.51495 221.3788 255.5225 C 219.3637 256.53004 216.9456 257.33607 216.13957 257.33607 C 215.33353 257.33607 212.21014 258.54512 209.28827 260.05644 C 201.22791 264.28813 206.06413 264.28813 214.729 260.05644 C 218.75918 258.1421 224.50218 255.5225 227.52481 254.2127 C 230.54745 253.00363 233.57008 251.59307 234.07385 251.19005 C 235.68592 250.08175 242.63797 246.2531 243.14175 246.2531 C 243.444 246.2531 243.64552 246.8576 243.64552 247.46214 C 243.64552 249.88025 224.40143 260.45946 210.90034 265.49718 C 207.57544 266.70623 203.74678 268.5198 202.33621 269.4266 C 200.92565 270.43414 198.10453 271.4417 196.08944 271.8447 C 193.9736 272.24772 192.05926 272.953 191.757 273.55753 C 191.05172 274.56507 194.37662 274.0613 199.31358 272.44923 C 200.72414 271.94546 203.84753 271.34093 206.3664 270.9379 C 208.88525 270.63565 211.90788 269.72886 213.11693 268.92283 C 214.326 268.1168 218.65843 266.3032 222.78936 264.89265 C 226.9203 263.58284 231.05122 262.07153 232.05876 261.76927 C 235.38366 260.45946 232.76404 263.07907 226.51727 267.31076 C 223.29313 269.52735 216.9456 272.55 212.5124 274.0613 C 208.07921 275.57262 203.54527 277.3862 202.63848 278.09148 C 200.92565 279.30053 201.0264 279.4013 203.4445 279.50204 C 206.7694 279.50204 212.1094 277.68846 215.43429 275.47186 C 216.84485 274.56507 220.16974 273.25527 222.78936 272.55 C 225.50973 271.94546 231.555 269.32585 236.1897 266.807 C 244.45155 262.27304 248.784 261.56776 243.64552 265.39642 C 238.8093 269.12434 202.63848 286.55485 195.58567 288.6707 C 193.16756 289.37597 191.25323 290.28276 191.25323 290.78653 C 191.25323 291.9956 193.16756 291.79408 198.30604 289.9805 C 200.8249 289.0737 205.76186 287.7639 209.28827 286.95787 C 212.81467 286.2526 217.24787 284.6405 219.1622 283.5322 C 221.07653 282.42392 223.29313 281.51713 224.09916 281.51713 C 225.91274 281.51713 232.56253 277.88997 239.9176 272.953 C 245.35834 269.2251 246.66815 268.82207 246.66815 270.43414 C 246.66815 273.25527 218.85994 288.16692 199.81735 295.62274 C 191.15247 299.0484 187.62607 301.265 192.76455 300.1567 C 197.5 299.0484 207.4747 295.522 211.60562 293.5069 C 213.72146 292.3986 216.24032 291.59257 217.34862 291.59257 C 219.66597 291.59257 232.96555 285.1443 237.298 281.92015 C 241.12666 278.99827 241.63043 278.99827 241.63043 281.21486 C 241.63043 282.32316 239.61534 284.13674 236.29045 285.84957 C 222.38634 293.40615 209.28827 299.75368 202.83999 301.8695 C 199.01132 303.17932 194.88039 304.89215 193.7721 305.59743 C 190.4472 307.71327 199.81735 306.00045 204.45206 303.6831 C 206.5679 302.5748 209.28827 301.668 210.39657 301.668 C 211.60562 301.668 215.53504 300.45896 219.06144 299.0484 C 225.812 296.42878 229.84217 296.32803 227.62557 299.0484 C 226.9203 299.85443 225.00595 300.96273 223.19237 301.668 C 221.3788 302.3733 216.84485 304.38838 212.91543 306.20196 C 209.08676 308.01554 204.04904 310.13138 201.83244 310.83666 C 199.61584 311.54194 197.09698 312.751 196.29095 313.45627 C 193.57058 315.87438 197.60076 314.9676 213.11693 309.6276 C 230.74896 303.6831 231.05122 303.58234 231.05122 306.20196 C 231.05122 307.61252 229.94292 308.41855 226.71878 309.4261 C 224.40143 310.03062 219.06144 312.24722 214.93051 314.16155 C 210.90034 316.17664 206.97092 317.7887 206.26564 317.7887 C 205.15734 317.7887 202.33621 318.59475 196.29095 320.60984 C 195.48491 320.9121 196.49246 321.51663 198.70905 322.0204 C 201.53018 322.62492 203.14225 322.52417 204.25055 321.61738 C 207.57544 318.99777 210.19506 317.99022 215.73655 317.28494 C 220.472 316.6804 221.47955 316.78117 221.47955 318.09098 C 221.47955 320.2068 219.96823 321.01285 211.60562 323.73322 C 203.84753 326.35284 200.22037 328.8717 204.45206 328.8717 C 205.76186 328.77094 208.68374 328.1664 210.90034 327.3604 C 216.0388 325.44605 217.44937 325.44605 217.44937 327.3604 C 217.44937 329.67773 213.51995 331.59207 203.84753 333.9094 C 198.91056 335.11847 193.7721 336.52903 192.46228 337.2343 C 190.85021 337.9396 189.64116 338.04035 188.53286 337.33507 C 187.1223 336.42828 186.82004 333.5064 186.61853 317.68796 C 186.41702 307.51176 186.2155 299.14915 186.11475 299.14915 C 186.014 299.14915 185.8125 292.6001 185.71174 284.53976 C 185.51023 269.12434 184.80495 257.63833 183.09212 242.72668 C 182.4876 237.68896 181.78232 225.29617 181.3793 215.01922 C 180.87553 203.1302 180.271 196.58117 179.66647 196.88343 C 178.55817 197.48796 178.55817 212.09734 179.66647 227.61352 C 180.0695 233.15501 180.57326 249.47723 180.77477 263.8851 C 181.07703 278.293 181.5808 298.24236 182.08458 308.21704 C 182.99137 329.17396 182.58835 358.09047 181.27854 359.4003 C 180.77477 359.90405 176.24082 359.90405 171.2031 359.6018 C 162.1352 358.8965 161.9337 358.79576 159.21333 355.1686 C 154.67938 349.4256 151.7575 344.0856 152.26128 342.67505 C 152.46278 342.07052 151.7575 339.75317 150.6492 337.63733 C 148.83563 334.31244 148.73487 333.7079 149.94392 332.90187 C 151.15298 332.09584 150.34694 330.98754 146.21601 327.25963 C 140.87603 322.52417 139.86848 320.2068 141.98433 318.09098 C 142.79036 317.28494 142.58885 316.17664 141.27905 313.8593 C 139.86848 311.4412 139.66697 310.5344 140.67452 309.52685 C 141.5813 308.62006 141.3798 307.71327 139.46547 305.79894 C 138.15566 304.28762 136.84585 301.56725 136.64434 299.4514 C 136.24132 296.02576 136.44283 295.7235 138.45792 296.22727 C 139.66697 296.52953 140.87603 296.32803 141.27905 295.82425 C 142.28659 294.2122 138.25641 291.4918 135.43529 291.89483 C 132.71492 292.1971 132.41266 292.80162 133.4202 295.82425 C 134.02473 297.7386 131.30436 312.0457 129.69229 314.9676 C 128.58399 316.98268 126.77041 316.57966 126.77041 314.36306 C 126.77041 313.55703 126.16588 312.44873 125.35985 311.8442 C 124.65457 311.23968 123.74778 307.9148 123.44552 304.38838 C 123.14325 300.96273 122.23646 296.52953 121.43043 294.6152 C 120.62439 292.70087 119.61685 288.06616 119.21383 284.2375 C 118.4078 276.88243 118.81081 276.4794 123.54627 278.8975 C 125.05759 279.6028 127.27418 280.61034 128.58399 280.9126 C 132.00964 282.0209 131.30436 279.6028 127.77796 278.39374 C 126.16588 277.7892 124.75532 276.78167 124.75532 276.17714 C 124.75532 274.0613 119.5161 268.41906 117.60176 268.41906 C 115.28441 268.41906 113.9746 265.6987 115.58667 264.08662 C 116.39271 263.28058 117.501 263.78435 119.91911 266.00095 C 123.84853 269.6281 128.48324 271.74395 129.28927 270.43414 C 129.59153 269.82962 127.47569 267.10925 124.55381 264.38888 C 119.41534 259.4519 119.31459 259.2504 121.22892 257.7391 C 122.94174 256.42928 123.0425 256.02626 121.83345 254.01118 C 121.02741 252.80212 119.91911 250.8878 119.31459 249.7795 C 118.71006 248.6712 117.60176 247.3614 116.89648 246.75686 C 116.09044 246.05158 115.68743 244.13724 115.88894 241.71914 L 116.1912 237.68896 L 118.91157 242.82744 C 121.83345 248.36893 123.0425 249.67874 126.5689 250.68628 C 128.18097 251.2908 128.7855 250.98854 128.7855 249.88025 C 128.7855 248.97346 128.18097 248.26818 127.37494 248.26818 C 125.15834 248.26818 120.92666 242.52517 120.12062 238.6965 C 119.81836 236.68142 118.91157 235.1701 118.10553 235.1701 C 116.1912 235.1701 116.29195 228.72182 118.20629 227.10975 C 118.91157 226.50522 119.91911 223.98636 120.32213 221.56826 C 121.32967 214.6162 126.66966 212.50036 130.69983 217.43733 C 132.21115 219.2509 134.83076 219.65392 134.83076 218.04185 C 134.83076 217.13506 133.4202 215.32149 128.7855 210.48527 C 126.26664 207.86566 126.26664 205.74982 128.7855 203.43247 C 130.80059 201.61889 130.90134 201.61889 133.31945 203.93624 C 136.14057 206.6566 136.9466 204.74227 134.32699 201.31662 C 132.41266 198.79776 132.41266 194.26381 134.32699 193.45778 C 135.33454 193.05476 135.6368 192.04722 135.23378 189.83062 C 134.62925 187.0095 134.83076 186.808 137.34962 186.808 C 138.9617 186.808 141.07754 187.51327 142.08508 188.52081 C 143.09262 189.4276 144.20092 189.83062 144.7047 189.4276 C 145.61148 188.52081 134.93152 178.54613 133.82322 179.2514 C 133.31945 179.55367 132.21115 181.97178 131.30436 184.5914 C 129.59153 189.4276 127.57645 194.36457 125.4606 198.79776 C 124.05004 201.71964 119.01232 205.64906 118.00478 204.64152 C 117.60176 204.2385 118.10553 202.52568 119.01232 201.01436 C 119.91911 199.4023 120.72515 197.5887 120.72515 196.98418 C 120.72515 195.77513 114.47837 199.20078 112.6648 201.51813 C 111.35499 202.9287 105.61199 203.53322 105.61199 202.22341 C 105.61199 201.8204 108.03009 198.99927 111.05272 195.87589 C 116.39271 190.43515 117.40025 188.92383 124.75532 175.725 C 133.4202 159.90656 135.6368 157.48846 137.75264 161.41788 Z" fill="#ff0000"/>
        </g>
        <g id="Graphic_60">
          <path d="M 240.42138 218.24336 C 239.9176 219.65392 234.67838 222.87807 232.8648 222.97882 C 230.34594 223.18033 231.65574 221.16524 235.38366 219.2509 C 239.9176 216.8328 240.92515 216.6313 240.42138 218.24336 Z" fill="#ff0000"/>
        </g>
        <g id="Graphic_59">
          <path d="M 253.11643 236.37916 C 253.4187 237.68896 253.72096 240.0063 253.72096 241.71914 C 253.72096 244.64102 256.54208 254.2127 259.3632 261.16474 C 261.1768 265.49718 261.1768 267.4115 259.1617 268.82207 C 257.65038 269.93037 257.65038 270.3334 259.1617 273.8598 C 261.3783 279.09902 261.1768 279.8043 258.35566 277.88997 C 254.22473 275.27036 251.60512 269.6281 248.58248 257.33607 C 245.2576 243.83498 245.15683 242.62593 247.17192 237.78972 C 248.9855 233.55803 252.1089 232.85275 253.11643 236.37916 Z" fill="#ff0000"/>
        </g>
        <g id="Graphic_58">
          <path d="M 243.444 240.9131 C 243.2425 241.92065 242.1342 242.82744 240.8244 243.02895 C 238.4063 243.43196 237.90252 242.32367 239.81685 240.40933 C 241.63043 238.59575 243.84703 238.89802 243.444 240.9131 Z" fill="#ff0000"/>
        </g>
        <g id="Graphic_57">
          <path d="M 116.69497 253.91042 C 116.69497 254.71646 116.29195 255.32098 115.68743 255.32098 C 115.18365 255.32098 114.67988 254.4142 114.67988 253.20514 C 114.67988 252.09684 115.18365 251.49232 115.68743 251.79458 C 116.29195 252.09684 116.69497 253.1044 116.69497 253.91042 Z" fill="#ff0000"/>
        </g>
        <g id="Graphic_56">
          <path d="M 212.41165 338.54412 C 212.41165 339.9547 210.2958 340.45845 209.08676 339.2494 C 208.17997 338.3426 210.39657 335.82375 211.50486 336.52903 C 212.00864 336.8313 212.41165 337.7381 212.41165 338.54412 Z" fill="#ff0000"/>
        </g>
        <g id="Graphic_55">
          <path d="M 202.33621 340.86147 C 202.33621 342.07052 201.12716 343.27958 199.11207 344.0856 L 195.78718 345.3954 L 199.7166 345.79844 C 201.83244 345.99995 204.04904 345.6977 204.65356 345.09316 C 205.2581 344.48863 207.07167 343.98486 208.68374 343.98486 C 211.30336 343.98486 211.50486 344.18637 210.39657 345.59693 C 207.37393 349.2241 194.47737 351.74295 192.76455 349.02258 C 192.46228 348.41805 191.25323 348.01503 190.24569 348.01503 C 187.82758 348.01503 185.91325 344.5894 186.71928 341.96977 C 187.3238 339.9547 188.93588 339.4509 197.09698 339.14865 C 201.63093 338.94714 202.33621 339.14865 202.33621 340.86147 Z" fill="#ff0000"/>
        </g>
        <g id="Graphic_54">
          <path d="M 207.07167 353.45577 C 206.87016 354.0603 205.76186 354.4633 204.5528 354.2618 C 203.34376 354.0603 201.12716 354.86633 199.5151 356.0754 C 195.58567 358.99726 186.9208 359.4003 186.41702 356.78067 C 185.61098 352.85125 186.61853 352.44823 197.19774 352.44823 C 204.04904 352.44823 207.27318 352.7505 207.07167 353.45577 Z" fill="#ff0000"/>
        </g>
        <g id="Graphic_53">
          <path d="M 210.59807 367.15837 C 211.0011 370.78553 211.80713 375.42023 212.5124 377.53607 C 213.82222 381.667 212.71392 384.5889 210.69883 382.07 C 208.38148 379.14814 205.4596 372.49835 204.85507 368.8712 C 204.5528 366.8561 203.84753 365.1433 203.34376 365.1433 C 202.03395 365.1433 202.03395 371.39006 203.4445 374.91646 C 205.15734 379.34965 206.26564 387.41 205.05658 387.007 C 203.64602 386.60397 199.61584 374.71495 198.8098 368.77044 C 198.4068 365.84856 197.80227 364.2365 197.19774 364.841 C 196.3917 365.64705 194.07435 379.9542 194.37662 382.07 C 194.67888 384.0851 194.07435 385.29416 192.76455 385.29416 C 191.25323 385.29416 188.63361 377.83834 187.52532 370.3825 C 186.82004 365.5463 185.51023 364.841 184.60344 368.8712 C 182.78986 376.8308 181.98382 379.2489 180.271 381.4655 C 177.75214 384.48813 176.9461 383.58134 178.15516 379.14814 C 179.56572 374.31193 179.46496 368.8712 177.95365 369.37497 C 176.7446 369.778 176.54309 370.08025 173.2182 377.4353 C 170.49782 383.58134 168.07972 383.8836 168.07972 378.1406 C 168.07972 374.4127 167.8782 374.11042 166.46765 375.31948 C 165.66161 376.02476 163.84803 378.74513 162.53822 381.36474 C 160.01936 386.3017 157.5005 389.32434 155.88843 389.32434 C 154.27636 389.32434 154.88089 387.30925 157.70201 383.58134 C 159.21333 381.667 161.63143 376.52853 163.042 372.29685 L 165.66161 364.6395 L 177.14761 364.53876 C 183.49514 364.438 189.94342 363.83348 191.45474 363.22895 C 192.96605 362.62442 194.77963 362.4229 195.48491 362.62442 C 196.1902 362.9267 198.6083 362.4229 200.8249 361.6169 C 203.0415 360.81084 205.96337 360.2063 207.37393 360.40783 C 209.69128 360.60933 209.99355 361.1131 210.59807 367.15837 Z" fill="#ff0000"/>
        </g>
        <g id="Graphic_52">
          <path d="M 174.7295 76.78418 C 174.42724 77.28795 174.528 79.00078 175.03177 80.61285 C 175.53554 82.72869 176.54309 83.63548 178.9612 84.13925 C 182.58835 84.84453 183.19288 84.54227 183.19288 81.51964 C 183.19288 77.69097 176.54309 73.96306 174.7295 76.78418 Z" fill="#cccccc"/>
        </g>
        <g id="Graphic_51">
          <path d="M 194.27586 94.71846 C 194.37662 96.53204 197.19774 105.49919 198.4068 107.71578 C 198.70905 108.21955 199.11207 112.35049 199.21283 116.78368 C 199.5151 125.44856 199.7166 126.35535 201.73169 126.35535 C 203.54527 126.35535 204.3513 123.1312 204.3513 115.47387 C 204.3513 110.63766 204.04904 109.2271 202.83999 109.2271 C 201.22791 109.2271 199.7166 104.89466 200.8249 103.18183 C 201.53018 102.07354 198.30604 96.12903 195.78718 94.11394 C 194.57812 93.10639 194.27586 93.20715 194.27586 94.71846 Z" fill="#cccccc"/>
        </g>
        <g id="Graphic_50">
          <path d="M 168.48273 97.84185 C 168.18047 98.8494 167.47519 100.76373 166.97142 102.17429 C 166.5684 103.58485 165.86312 106.40598 165.4601 108.52182 C 164.65407 113.45878 162.1352 116.48142 157.09749 118.79877 C 154.88089 119.80631 153.26882 121.01536 153.57108 121.41838 C 154.37712 122.72819 159.11257 122.42593 161.73219 121.01536 C 164.95633 119.20178 169.8933 112.45124 171.10235 108.42106 C 172.71442 102.57731 170.19556 92.50187 168.48273 97.84185 Z" fill="#cccccc"/>
        </g>
        <g id="Graphic_49">
          <path d="M 193.87284 111.4437 C 194.77963 120.41084 195.38416 123.33272 196.29095 123.33272 C 197.7015 123.33272 197.5 113.55954 196.08944 109.52936 C 194.27586 104.5924 193.26832 105.49919 193.87284 111.4437 Z" fill="#cccccc"/>
        </g>
        <g id="Graphic_48">
          <path d="M 189.74191 113.25727 C 190.04418 113.76105 190.54795 114.26482 190.85021 114.26482 C 191.05172 114.26482 191.25323 113.76105 191.25323 113.25727 C 191.25323 112.65275 190.74946 112.24973 190.14493 112.24973 C 189.64116 112.24973 189.43965 112.65275 189.74191 113.25727 Z" fill="#cccccc"/>
        </g>
        <g id="Graphic_47">
          <path d="M 166.26614 125.44856 C 161.12766 129.17647 159.31408 134.31495 161.0269 140.46096 C 162.23596 144.7934 164.55331 145.80095 165.56086 142.47605 C 165.96387 141.36775 165.86312 137.9421 165.56086 135.02023 L 164.85558 129.47873 L 168.9865 126.65761 C 171.2031 125.1463 173.01668 123.53422 173.11744 123.03045 C 173.11744 121.51914 170.29631 122.42593 166.26614 125.44856 Z" fill="#cccccc"/>
        </g>
        <g id="Graphic_46">
          <path d="M 173.6212 128.37044 C 169.99405 129.88175 167.77745 133.60966 167.77745 137.9421 C 167.77745 143.18133 170.29631 146.90925 175.43479 148.92433 C 178.9612 150.23414 179.66647 150.23414 181.68156 148.92433 C 184.7042 146.90925 187.42456 140.56172 186.82004 136.93456 C 186.61853 135.22173 186.31626 133.3074 186.31626 132.70287 C 186.2155 131.49382 182.18533 129.37798 177.55063 128.06817 C 176.54309 127.76591 174.7295 127.86666 173.6212 128.37044 Z" fill="#cccccc"/>
        </g>
        <g id="Graphic_45">
          <path d="M 185.20796 138.54663 C 185.20796 139.65493 179.3642 148.52132 178.65893 148.52132 C 178.45742 148.52132 176.64384 147.11075 174.62875 145.39793 C 170.69933 141.97228 170.90084 140.05795 174.93102 140.86398 C 176.7446 141.267 178.75968 140.76323 180.67402 139.55417 C 184.20042 137.23682 185.20796 137.03531 185.20796 138.54663 Z" fill="#ff0000"/>
        </g>
        <g id="Graphic_44">
          <path d="M 201.32867 139.85644 C 201.32867 143.38284 201.0264 148.3198 200.72414 150.93942 C 200.01886 155.57412 200.11962 155.77563 202.43697 155.37262 C 204.3513 155.1711 204.95583 154.36507 205.15734 151.6447 C 205.35885 149.83112 205.05658 147.81604 204.45206 147.2115 C 203.84753 146.60698 203.34376 143.28209 203.34376 139.75568 C 203.34376 136.22928 202.94074 133.40816 202.33621 133.40816 C 201.73169 133.40816 201.32867 136.22928 201.32867 139.85644 Z" fill="#cccccc"/>
        </g>
        <g id="Graphic_43">
          <path d="M 190.6487 138.74814 C 189.5404 139.95719 188.33135 141.4685 187.92833 142.17379 C 187.02154 143.6851 188.12984 146.50623 189.74191 146.50623 C 191.35398 146.50623 193.57058 141.36775 193.0668 138.54663 C 192.76455 136.53154 192.76455 136.53154 190.6487 138.74814 Z" fill="#cccccc"/>
        </g>
        <g id="Graphic_42">
          <path d="M 186.2155 148.52132 C 185.1072 149.2266 185.00646 149.73037 185.8125 150.5364 C 186.61853 151.34244 187.22305 151.24168 188.12984 150.13339 C 189.5404 148.42056 188.2306 147.31226 186.2155 148.52132 Z" fill="#cccccc"/>
        </g>
        <g id="Graphic_41">
          <path d="M 194.88039 156.17865 C 194.47737 159.30204 194.47737 162.12316 194.77963 162.42542 C 195.88793 163.53372 196.69397 161.41788 197.09698 156.0779 C 197.7015 148.72282 195.78718 148.82358 194.88039 156.17865 Z" fill="#cccccc"/>
        </g>
        <g id="Graphic_40">
          <path d="M 150.6492 161.11562 C 150.34694 163.23146 150.34694 165.44806 150.6492 166.05258 C 151.65675 167.66465 152.96656 161.72014 152.05977 159.30204 C 151.35449 157.58921 151.15298 157.79072 150.6492 161.11562 Z" fill="#cccccc"/>
        </g>
        <g id="Graphic_39">
          <path d="M 156.79522 163.63448 C 156.69447 165.24655 156.59371 167.46314 156.59371 168.36993 C 156.49296 169.67974 157.299 170.18351 159.21333 170.18351 C 160.6239 170.28427 162.53822 170.8888 163.44501 171.59407 C 164.75482 172.70237 165.05708 172.70237 165.4601 171.59407 C 166.46765 168.36993 166.7699 161.61939 165.96387 161.61939 C 165.4601 161.61939 165.05708 162.32467 165.05708 163.1307 C 165.05708 163.93674 164.65407 164.64202 164.04954 164.64202 C 163.54577 164.64202 163.042 165.3473 163.042 166.15334 C 163.042 168.8737 161.12766 167.7654 159.91861 164.13825 C 158.30654 159.8058 157.09749 159.6043 156.79522 163.63448 Z" fill="#cccccc"/>
        </g>
        <g id="Graphic_38">
          <path d="M 172.21065 163.23146 C 172.21065 164.33976 172.5129 164.64202 172.81517 163.83599 C 173.11744 163.1307 173.01668 162.22391 172.71442 161.92165 C 172.41216 161.51863 172.1099 162.12316 172.21065 163.23146 Z" fill="#cccccc"/>
        </g>
        <g id="Graphic_37">
          <path d="M 187.82758 165.3473 L 185.91325 167.96692 L 184.7042 165.75032 C 183.39439 163.23146 182.4876 163.93674 180.37175 168.8737 C 178.9612 172.29936 180.77477 173.91143 182.89061 171.0903 C 183.5959 170.08276 185.61098 169.17597 187.3238 169.07521 C 191.25323 168.8737 192.6638 167.46314 191.757 164.74277 C 190.95097 162.0224 190.14493 162.12316 187.82758 165.3473 Z" fill="#cccccc"/>
        </g>
        <g id="Graphic_36">
          <path d="M 176.44233 166.35485 C 175.03177 166.85862 174.62875 172.70237 175.93856 172.70237 C 176.84535 172.70237 179.1627 168.26918 179.1627 166.6571 C 179.1627 165.54881 178.45742 165.54881 176.44233 166.35485 Z" fill="#cccccc"/>
        </g>
        <g id="Graphic_35">
          <path d="M 170.29631 169.17597 C 168.785 172.4001 168.785 172.70237 170.0948 172.70237 C 170.69933 172.70237 171.10235 171.89634 171.10235 170.8888 C 171.10235 169.88125 171.60612 168.57144 172.3114 167.86616 C 173.01668 167.16088 173.11744 166.6571 172.5129 166.6571 C 171.90838 166.6571 170.90084 167.7654 170.29631 169.17597 Z" fill="#cccccc"/>
        </g>
        <g id="Graphic_34">
          <path d="M 134.83076 173.60916 C 134.83076 174.11293 136.24132 175.92651 137.8534 177.7401 C 139.56622 179.55367 140.87603 181.36725 140.87603 181.77027 C 140.87603 183.08008 145.30922 185.49818 146.82054 184.9944 C 147.62657 184.69215 146.11526 182.47555 142.28659 178.64688 C 136.64434 172.90388 134.83076 171.69483 134.83076 173.60916 Z" fill="#cccccc"/>
        </g>
        <g id="Graphic_33">
          <path d="M 180.67402 185.49818 C 176.64384 186.90874 166.46765 186.808 159.31408 185.29667 C 154.78014 184.28913 155.0824 186.1027 159.81786 188.42006 C 166.7699 191.94646 187.22305 189.52836 187.22305 185.19592 C 187.22305 183.4831 186.014 183.58385 180.67402 185.49818 Z" fill="#cccccc"/>
        </g>
        <g id="Graphic_32">
          <path d="M 158.00428 196.88343 C 158.00428 197.3872 159.41484 198.19324 161.12766 198.79776 C 165.05708 200.20832 170.90084 200.30908 169.59103 198.99927 C 168.28123 197.79022 158.00428 195.87589 158.00428 196.88343 Z" fill="#cccccc"/>
        </g>
        <g id="Graphic_31">
          <path d="M 194.77963 206.4551 C 192.46228 207.5634 192.26077 207.86566 193.7721 207.86566 C 196.79472 207.96641 200.32113 206.85812 200.32113 205.85057 C 200.32113 204.64152 198.4068 204.84303 194.77963 206.4551 Z" fill="#cccccc"/>
        </g>
        <g id="Graphic_30">
          <path d="M 159.01182 208.97396 C 157.90352 209.67924 158.10503 210.08226 160.32163 210.8883 C 164.45256 212.50036 169.69179 212.1981 171.50537 210.38452 C 172.41216 209.57848 173.11744 208.6717 173.11744 208.36943 C 173.11744 207.5634 160.52314 208.06717 159.01182 208.97396 Z" fill="#cccccc"/>
        </g>
        <g id="Graphic_29">
          <path d="M 207.8777 214.11243 C 204.5528 215.7245 201.73169 217.43733 201.53018 217.9411 C 201.0264 219.45242 216.24032 213.91092 216.84485 212.3996 C 217.65088 210.183 214.62825 210.78754 207.8777 214.11243 Z" fill="#cccccc"/>
        </g>
        <g id="Graphic_28">
          <path d="M 147.32431 214.21319 C 146.41752 215.62375 147.72733 216.73205 151.05222 217.43733 C 152.8658 217.7396 155.78768 219.15015 157.60126 220.56071 C 161.0269 223.18033 165.86312 223.78486 169.18801 222.07203 C 172.5129 220.25845 171.30386 219.0494 166.16538 219.0494 C 162.73973 219.0494 160.32163 218.34412 157.80277 216.6313 C 154.07485 214.11243 148.2311 212.80263 147.32431 214.21319 Z" fill="#cccccc"/>
        </g>
        <g id="Graphic_27">
          <path d="M 122.03495 220.66147 C 121.63194 221.669 123.0425 223.6841 126.3674 226.60598 C 131.40511 231.03917 134.22624 231.74445 131.10285 227.71428 C 126.97192 222.5758 123.84853 219.0494 123.244 219.0494 C 122.94174 219.0494 122.43797 219.75468 122.03495 220.66147 Z" fill="#cccccc"/>
        </g>
        <g id="Graphic_26">
          <path d="M 189.3389 221.97128 C 188.2306 222.67656 188.4321 223.4826 190.34644 226.00145 C 194.1751 231.13993 198.6083 229.72936 196.29095 223.98636 C 194.98114 220.96373 192.26077 220.1577 189.3389 221.97128 Z" fill="#cccccc"/>
        </g>
        <g id="Graphic_25">
          <path d="M 146.9213 224.5909 C 148.2311 226.20296 151.95901 226.70673 151.95901 225.19542 C 151.95901 224.18787 149.5409 223.07957 147.22355 223.07957 C 145.91375 223.07957 145.91375 223.38184 146.9213 224.5909 Z" fill="#cccccc"/>
        </g>
        <g id="Graphic_24">
          <path d="M 120.32213 226.90824 C 118.71006 229.52786 128.28173 242.2229 130.69983 240.81235 C 131.30436 240.40933 130.39757 238.89802 128.38248 237.08444 C 126.46815 235.47237 124.25155 232.34898 123.34476 230.13238 C 121.73269 226.00145 121.22892 225.49768 120.32213 226.90824 Z" fill="#cccccc"/>
        </g>
        <g id="Graphic_23">
          <path d="M 166.3669 232.04672 C 161.0269 232.9535 160.22087 233.6588 163.14275 235.1701 C 165.05708 236.17765 165.96387 236.0769 168.785 234.66633 C 171.70687 233.05426 173.31895 230.93842 171.40461 231.24068 C 170.90084 231.34144 168.68424 231.74445 166.3669 232.04672 Z" fill="#cccccc"/>
        </g>
        <g id="Graphic_22">
          <path d="M 140.87603 233.25577 C 140.87603 233.75954 142.58885 234.9686 144.60394 235.77463 C 147.32431 236.98368 148.83563 237.08444 150.6492 236.2784 C 153.16806 235.1701 153.7726 233.15501 151.7575 233.15501 C 151.05222 233.05426 148.33185 232.85275 145.71224 232.65124 C 142.79036 232.34898 140.87603 232.65124 140.87603 233.25577 Z" fill="#cccccc"/>
        </g>
        <g id="Graphic_21">
          <path d="M 213.4192 234.66633 C 211.70637 236.68142 214.326 236.78217 217.04636 234.66633 C 218.9607 233.25577 218.9607 233.25577 216.84485 233.15501 C 215.6358 233.15501 214.12448 233.8603 213.4192 234.66633 Z" fill="#cccccc"/>
        </g>
        <g id="Graphic_20">
          <path d="M 215.43429 242.2229 C 212.41165 243.83498 207.97846 245.95082 205.6611 246.8576 C 203.243 247.86516 201.53018 248.77195 201.73169 249.0742 C 202.73923 249.981 221.88257 241.92065 223.09162 240.10707 C 224.09916 238.495 221.07653 239.30103 215.43429 242.2229 Z" fill="#cccccc"/>
        </g>
        <g id="Graphic_19">
          <path d="M 158.00428 243.23045 C 158.00428 243.63347 158.91107 244.74177 160.01936 245.74931 C 162.63898 248.06667 170.59858 248.46968 170.59858 246.2531 C 170.59858 245.24554 168.68424 244.4395 164.3518 243.63347 C 160.8254 243.02895 158.00428 242.82744 158.00428 243.23045 Z" fill="#cccccc"/>
        </g>
        <g id="Graphic_18">
          <path d="M 136.84585 243.73423 C 136.84585 245.1448 141.48055 248.26818 144.60394 248.8727 C 148.73487 249.67874 152.96656 248.6712 152.96656 246.8576 C 152.96656 245.95082 151.25373 245.24554 148.2311 244.84253 C 145.51073 244.54026 141.88357 244.0365 140.17075 243.63347 C 138.35717 243.3312 136.84585 243.3312 136.84585 243.73423 Z" fill="#cccccc"/>
        </g>
        <g id="Graphic_17">
          <path d="M 199.81735 256.12702 C 195.68642 257.7391 193.46983 258.94814 194.57812 259.14965 C 196.29095 259.4519 207.37393 254.8172 207.37393 253.7089 C 207.37393 253.20514 207.97846 253.00363 199.81735 256.12702 Z" fill="#cccccc"/>
        </g>
        <g id="Graphic_16">
          <path d="M 168.18047 257.23532 C 167.47519 257.7391 164.95633 257.83984 162.63898 257.63833 C 158.00428 257.0338 158.30654 258.1421 163.34426 259.85493 C 167.27368 261.16474 173.11744 259.9557 173.11744 257.83984 C 173.11744 256.22777 170.39707 255.82476 168.18047 257.23532 Z" fill="#cccccc"/>
        </g>
        <g id="Graphic_15">
          <path d="M 140.2715 259.85493 C 138.76019 260.86248 138.65943 261.467 139.66697 262.67605 C 140.67452 263.8851 142.38734 264.08662 147.22355 263.6836 C 153.7726 263.07907 157.90352 260.96323 154.67938 259.85493 C 153.7726 259.4519 152.26128 259.65342 151.35449 260.1572 C 150.14543 260.86248 148.33185 260.76172 145.813 259.85493 C 142.6896 258.74663 141.78282 258.74663 140.2715 259.85493 Z" fill="#cccccc"/>
        </g>
        <g id="Graphic_14">
          <path d="M 171.2031 269.12434 C 168.785 270.13188 166.26614 270.43414 163.2435 269.93037 C 160.01936 269.4266 158.4073 269.6281 157.19824 270.83716 C 156.1907 271.6432 153.67184 272.44923 151.45524 272.65074 C 148.2311 272.85225 147.42506 273.35602 147.42506 274.9681 C 147.42506 277.68846 151.25373 278.19223 154.67938 275.87488 C 156.29145 274.86734 159.81786 274.0613 163.64652 273.8598 C 170.39707 273.55753 176.14007 271.34093 176.14007 268.92283 C 176.14007 267.10925 175.6363 267.10925 171.2031 269.12434 Z" fill="#cccccc"/>
        </g>
        <g id="Graphic_13">
          <path d="M 197.2985 280.61034 C 197.2985 281.1141 197.80227 281.31562 198.30604 281.01336 C 198.91056 280.7111 199.31358 280.20732 199.31358 279.90506 C 199.31358 279.70355 198.91056 279.50204 198.30604 279.50204 C 197.80227 279.50204 197.2985 280.0058 197.2985 280.61034 Z" fill="#cccccc"/>
        </g>
        <g id="Graphic_12">
          <path d="M 154.98164 285.1443 C 153.06731 285.84957 150.24619 286.4541 148.73487 286.4541 C 146.0145 286.55485 144.10017 288.16692 145.40998 289.37597 C 146.51827 290.48427 154.57863 289.87974 157.09749 288.46918 C 158.4073 287.86466 162.03445 287.3609 165.15784 287.3609 C 169.08726 287.46164 171.30386 286.95787 172.21065 285.95032 C 174.02423 283.73372 172.41216 282.9277 168.88575 284.33825 C 166.87066 285.04353 165.15784 285.1443 163.94879 284.53976 C 161.73219 283.22995 159.41484 283.43146 154.98164 285.1443 Z" fill="#cccccc"/>
        </g>
        <g id="Graphic_11">
          <path d="M 168.07972 295.82425 C 161.73219 297.0333 161.0269 297.33557 163.042 298.64538 C 166.66915 300.96273 176.14007 298.64538 176.14007 295.522 C 176.14007 294.51445 175.6363 294.51445 168.07972 295.82425 Z" fill="#cccccc"/>
        </g>
        <g id="Graphic_10">
          <path d="M 150.14543 301.8695 C 150.6492 303.38083 154.98164 303.6831 154.98164 302.17178 C 154.98164 301.56725 153.87335 301.0635 152.36203 300.86197 C 150.54845 300.5597 149.84317 300.86197 150.14543 301.8695 Z" fill="#cccccc"/>
        </g>
        <g id="Graphic_9">
          <path d="M 172.21065 308.3178 C 170.69933 309.4261 168.68424 309.8291 166.06463 309.4261 C 159.11257 308.5193 158.70956 311.94496 165.66161 313.35552 C 168.68424 313.96005 175.03177 310.63515 175.93856 307.9148 C 176.44233 306.20196 175.03177 306.40347 172.21065 308.3178 Z" fill="#cccccc"/>
        </g>
        <g id="Graphic_8">
          <path d="M 155.38466 318.897 C 154.47787 320.5091 156.89598 321.8189 160.72464 321.8189 C 162.43747 321.8189 164.25105 322.2219 164.55331 322.82643 C 164.85558 323.3302 166.7699 323.83398 168.68424 323.83398 C 171.2031 323.83398 172.1099 323.43096 172.1099 322.2219 C 172.1099 320.9121 171.40461 320.7106 168.58349 321.21436 C 165.86312 321.71813 164.1503 321.41587 161.63143 319.90456 C 157.80277 317.48645 156.3922 317.28494 155.38466 318.897 Z" fill="#cccccc"/>
        </g>
        <g id="Graphic_7">
          <path d="M 196.79472 328.8717 C 196.49246 329.37547 197.09698 329.87924 198.30604 329.87924 C 199.5151 329.87924 200.11962 329.37547 199.81735 328.8717 C 199.5151 328.26717 198.8098 327.86415 198.30604 327.86415 C 197.80227 327.86415 197.09698 328.26717 196.79472 328.8717 Z" fill="#cccccc"/>
        </g>
        <g id="Graphic_6">
          <path d="M 165.2586 331.59207 C 162.03445 332.1966 163.042 334.2117 167.17293 335.21923 C 171.2031 336.22677 176.14007 334.71545 176.14007 332.3981 C 176.14007 331.2898 175.13252 330.8868 171.90838 330.98754 C 169.49028 331.0883 166.5684 331.39056 165.2586 331.59207 Z" fill="#cccccc"/>
        </g>
        <g id="Graphic_5">
          <path d="M 173.82272 341.063 C 171.40461 342.47354 172.71442 344.28712 175.23328 342.9773 C 176.24082 342.3728 177.14761 341.466 177.14761 340.96223 C 177.14761 339.6524 176.14007 339.75317 173.82272 341.063 Z" fill="#cccccc"/>
        </g>
        <g id="Graphic_4">
          <path d="M 166.46765 350.7354 C 169.59103 353.45577 175.23328 353.8588 177.14761 351.54144 C 177.8529 350.63465 178.25591 349.8286 178.0544 349.6271 C 177.8529 349.4256 174.528 349.02258 170.69933 348.82107 L 163.84803 348.41805 L 166.46765 350.7354 Z" fill="#cccccc"/>
        </g>
      </g>
    </g>
  </g>
</svg>
