<?xml version="1.0" encoding="utf-8"?>
<svg xmlns:dc="http://purl.org/dc/elements/1.1/" xmlns="http://www.w3.org/2000/svg"
     xmlns:xl="http://www.w3.org/1999/xlink"
     xmlns:xlink="http://www.w3.org/1999/xlink"
     version="1.1"
     viewBox="36 90 292.5 292.5"
     width="292.5"
     height="292.5"
     preserveAspectRatio="xMidYMid meet"
     zoomAndPan="magnify"
     contentScriptType="application/ecmascript"
     contentStyleType="text/css">
   <defs/>
   <metadata  xmlns:svg="http://www.w3.org/2000/svg"
             xmlns:rdf="http://www.w3.org/1999/02/22-rdf-syntax-ns#"
             xmlns:cc="http://creativecommons.org/ns#">
      <rdf:RDF>
         <cc:Work rdf:about="">
            <dc:creator>
               <cc:Agent>
                  <dc:title>http://heraldicart.org Fish, Flying.svg</dc:title>
               </cc:Agent>
            </dc:creator>
         </cc:Work>
      </rdf:RDF>
   </metadata>
   <metadata> Produced by OmniGraffle 7.11.5 
    <dc:date>2020-12-19 20:12:10 +0000</dc:date>
  </metadata>
   <g stroke-opacity="1" fill="#ffff00" fill-opacity="1" stroke="#505050"
      stroke-dasharray="none">
      <title>Fish, Flying</title>
      <g>
         <title>Layer 2</title>
         <g>
            <g>
               <g  id="outline-0">
                  <path 
                        d="M 142.74796 99.70315 C 141.53354 99.9467 138.14832 101.27264 135.32005 102.68716 C 130.51941 105.09806 129.38844 106.29543 117.45189 120.52085 C 106.43596 133.49866 104.11185 135.9675 100.8748 137.41777 C 98.36931 138.5981 96.45654 140.27578 95.323 142.22855 C 94.30188 143.89687 90.90384 148.99977 87.66846 153.60788 C 78.34726 167.12393 75.9456 174.19921 78.46123 180.98159 C 80.4131 186.02834 82.05501 187.53233 87.45005 188.77662 C 91.79333 189.76966 92.12802 189.67173 96.05149 186.65106 C 99.06883 184.25888 105.62124 183.82292 108.06624 185.8745 C 110.7335 188.11261 112.51335 192.7625 111.47775 195.04997 C 111.01616 196.05147 108.64436 197.97527 106.08861 199.36594 C 96.79561 204.57268 94.7048 211.2775 100.44042 217.98412 C 102.04401 219.83472 102.8062 221.48433 102.30884 222.07706 C 101.81148 222.66978 97.01597 223.5699 91.71374 224.17109 C 74.97757 225.90992 60.79792 233.32912 41.285277 250.41422 C 37.335397 253.91776 37.22721 256.60464 41.03904 260.93946 C 44.92496 265.33645 50.898234 267.69722 68.395694 271.52122 C 75.74606 273.14365 83.80157 274.979 86.39987 275.64414 C 93.9725 277.45308 109.29493 279.95703 116.83436 280.6018 C 120.70926 280.9493 124.26138 281.531 124.8541 282.02836 C 126.63228 283.52043 125.0278 285.58305 120.86077 287.3893 C 114.43693 290.0795 112.05744 294.2695 114.56884 298.64942 C 116.20563 301.6642 115.11298 302.51496 110.52102 301.81828 C 105.14983 300.8465 101.11906 302.64084 98.36656 307.27536 C 95.71455 311.48917 96.13692 314.7475 100.11308 321.74535 C 104.42137 329.40066 113.35994 337.40605 125.2988 344.39377 C 130.93483 347.60787 136.82889 351.41726 138.53297 352.84716 C 143.1266 356.70167 155.62499 363.02257 169.3642 368.61706 C 184.01892 374.4747 188.80674 375.84077 197.9813 376.3425 C 211.03075 377.1917 213.27398 373.01365 203.48888 366.31805 C 200.64702 364.4385 197.2482 362.47034 195.97418 362.0326 C 194.70015 361.59484 193.04375 360.71 192.30284 360.0883 C 190.9692 358.96923 191.09355 358.82105 194.95229 356.62986 C 200.31246 353.55215 199.95649 352.62217 191.56975 346.21614 L 185.09745 341.29027 L 187.29466 339.725 C 188.44947 338.80015 190.17574 337.34474 191.1202 336.36964 C 192.76045 334.7158 192.67444 334.51737 188.43934 330.83745 C 182.05562 325.3546 182.14163 325.55304 184.62841 322.5894 L 186.86651 319.92215 L 182.76512 316.9857 C 178.7259 313.97515 178.71397 313.8389 180.17027 311.65193 C 181.98767 308.88417 180.56123 305.91964 176.28525 303.34172 C 173.38123 301.53625 173.30714 301.47408 175.17222 299.25135 C 176.2291 297.9918 176.92745 296.55768 176.73159 295.8883 C 176.19167 294.4252 172.03067 290.80745 169.38468 289.59726 C 167.52985 288.7984 168.67018 288.4927 174.4672 288.05417 C 195.15235 286.725 201.1214 286.68335 206.7387 288.11415 C 212.56637 289.5952 213.43161 290.0687 222.3966 297.5912 C 233.21384 306.66796 232.73097 306.64156 239.19147 300.4469 C 241.6016 298.1765 244.234 296.0926 245.16398 295.73663 C 247.28454 294.8646 250.2925 291.58075 251.36644 288.9467 C 252.11504 287.3022 253.1932 287.07058 257.62506 287.50666 C 260.5342 287.80135 263.33094 288.3805 263.84958 288.81568 C 264.29412 289.1887 270.76475 290.95674 278.1892 292.64134 C 295.6986 296.6016 301.23668 299.481 314.97923 311.39115 C 320.84432 316.4388 325.5623 320.14513 325.87313 319.77468 C 326.86785 318.58922 325.7957 313.39685 323.80295 309.4521 C 322.73248 307.41755 321.66457 304.6276 321.47127 303.20284 C 320.6955 298.25914 317.48408 292.1555 314.0018 289.23354 C 312.14954 287.6793 309.64494 284.9464 308.45013 283.06004 C 306.86103 280.5903 305.23103 279.22258 301.7198 277.53887 C 298.9878 276.13025 297.14745 274.71228 297.07592 273.8947 C 297.0163 273.2134 298.79283 271.54765 301.44907 269.73628 C 308.4614 265.14098 311.5222 260.8914 312.34835 254.64048 C 313.32524 247.7585 311.203 245.47272 307.7837 249.5477 C 304.0535 253.99315 299.67358 256.50455 293.40304 257.8083 C 282.74577 259.97643 265.3147 258.48078 261.16563 254.9993 C 260.20245 254.1911 258.9983 251.41307 258.4371 248.92206 C 257.93807 246.35696 257.11627 244.02605 256.59764 243.59086 C 256.079 243.15567 255.23337 240.55224 254.64833 237.7887 C 252.49214 227.2677 252.0263 225.86677 250.6186 224.68555 C 248.69223 223.06915 247.5519 223.37487 238.83035 228.05105 C 234.76125 230.192 226.85047 233.1496 221.28508 234.66628 C 211.7034 237.35816 211.01018 237.2815 204.9245 235.20517 C 201.44902 233.93025 194.4095 231.93737 189.27507 230.53298 C 184.15255 229.26485 178.79584 227.67395 177.57206 227.02585 L 175.27269 225.854 L 180.22151 223.56743 C 183.39639 222.19124 185.84228 220.3296 187.18616 218.4271 C 189.01549 215.7956 189.0419 215.31272 187.22795 213.41187 C 186.16684 212.26898 183.69544 210.70025 181.70434 209.91333 C 179.71325 209.1264 178.11902 208.16746 178.08326 207.75867 C 178.0475 207.3499 179.7235 206.10484 181.8083 204.82401 C 190.42 199.67688 190.85608 195.24503 182.90107 192.98898 L 178.45986 191.66125 L 182.82108 187.36655 C 187.12013 183.14594 187.17038 182.93559 185.69113 180.9368 C 184.66835 179.4473 183.02386 178.6987 179.8422 178.42785 C 174.50676 177.86487 174.02902 176.32768 178.63123 174.0028 C 182.2413 172.10796 184.00845 169.55055 185.20248 164.36587 C 186.11887 160.7158 183.66196 158.52795 179.1773 159.05762 C 174.82888 159.57535 174.37242 159.06608 176.39081 155.45691 C 178.4092 151.84774 178.11887 146.17506 175.74796 144.18564 C 174.78478 143.37743 172.54501 142.88687 170.78555 143.1781 C 169.02609 143.46934 167.45313 143.5383 167.15677 143.28963 C 166.9345 143.10312 166.91835 140.56442 167.13895 137.5931 C 167.68066 131.22976 165.76878 128.99422 160.2562 129.54516 C 157.8776 129.82191 156.6896 129.5826 156.96468 128.80336 C 157.9526 125.97086 157.98502 120.06399 156.9912 117.33622 C 155.7896 113.80281 153.53791 113.17599 149.04812 115.21643 C 145.15361 116.99884 144.63498 116.56366 146.271 112.50738 C 147.73243 108.80964 147.65756 101.67642 146.10166 100.37086 C 145.50893 99.8735 143.9743 99.59586 142.74796 99.70315 Z"
                        fill="black"/>
               </g>
            </g>
            <g>
               <path d="M 143.71448 106.82701 C 143.78767 110.8024 141.8212 117.35904 139.29353 121.42468 C 136.76585 125.49031 136.99492 127.32386 139.65116 125.51248 C 141.98463 123.9353 148.34464 118.16135 149.19117 116.85156 C 150.3247 114.89879 154.96858 118.54295 154.8604 121.22983 C 154.66274 128.38689 153.4287 130.76036 144.61255 141.4175 C 125.78711 164.00326 126.844 162.74371 126.03156 161.30446 C 125.62534 160.58483 123.88293 159.50154 122.11411 158.90113 C 118.79874 157.8868 117.1449 156.24655 117.43703 154.0928 C 117.62867 152.35974 119.05344 152.16643 120.68344 153.53416 C 121.7948 154.4667 122.79887 154.1729 125.15875 152.11285 C 127.8414 149.8186 128.31234 149.70875 129.5574 151.38476 C 131.28277 153.84257 131.90446 153.10166 132.1566 148.13669 C 132.42745 144.95502 132.88905 143.95351 134.41431 143.3395 C 135.74115 142.81151 137.929 140.3546 140.60486 136.4133 C 143.95266 131.52075 144.35208 130.59334 142.41547 131.9985 C 141.12439 132.93527 138.16666 136.00875 135.7923 138.68794 C 133.49203 141.4293 130.99589 143.50128 130.36483 143.35053 C 129.67161 143.27388 128.9639 143.81636 128.75099 144.5215 C 128.13865 146.15406 121.80762 150.68975 120.99262 150.00588 C 120.62216 149.69503 120.57704 148.3946 120.86661 146.99623 C 121.28308 144.6943 121.08465 144.7803 118.10308 147.58127 C 113.09632 152.34436 113.02992 150.01601 117.90811 142.99867 C 120.83264 138.76101 122.16717 135.96684 121.86145 134.82651 C 121.53188 133.41366 122.92602 131.3008 128.70778 124.41036 C 133.30833 118.92764 135.62308 115.56715 135.17854 115.19413 C 134.6599 114.75895 131.20482 118.42516 125.06196 125.8964 C 112.6519 140.98707 112.90057 140.6907 111.27058 139.32298 C 109.27013 137.6444 110.19331 135.64139 116.84801 126.95829 C 122.89294 119.15235 137.71992 103.43832 139.79023 102.77663 C 141.66211 102.20095 143.63616 104.3624 143.71448 106.82701 Z"/>
            </g>
            <g>
               <path d="M 164.59602 135.20682 C 165.00904 137.5735 164.38221 139.82518 162.65082 142.79138 C 158.45393 149.74911 152.07688 156.89759 148.33056 158.80434 C 146.42035 159.72662 143.0564 162.08048 140.88303 163.91826 C 136.74664 167.64408 135.4939 168.23424 135.35084 166.59912 C 135.16946 165.3106 139.27265 160.42062 149.94876 149.05154 C 163.57067 134.4727 154.21974 142.15597 134.45073 161.8036 C 131.66758 164.51856 130.35267 165.18281 130.23345 163.8202 C 130.19769 163.41143 135.64476 156.61892 142.2969 148.69121 C 153.86043 134.91033 157.22694 131.80109 161.21682 131.10876 C 163.44723 130.70767 163.91562 131.3532 164.59602 135.20682 Z"/>
            </g>
            <g>
               <path d="M 303.04855 258.20017 L 303.04855 258.20017 C 305.5183 256.61107 306.3265 255.6479 306.2311 254.5578 C 306.13575 253.46772 305.60263 253.65167 304.29707 255.20757 C 300.36847 259.73903 289.84233 263.406 280.17042 263.49703 C 276.74007 263.52254 273.48174 263.9449 272.89838 264.3392 C 272.25284 264.8076 270.99073 264.5061 270.02755 263.6979 C 267.43438 261.52196 266.1433 262.45874 265.9559 266.59423 C 265.75913 269.83807 266.16535 270.5577 269.01913 272.57353 C 273.6894 275.7348 275.49566 279.90184 274.44044 284.3192 C 273.86387 286.36055 273.61007 288.1677 273.90643 288.41638 C 274.1287 288.6029 276.1462 288.90694 278.28804 289.0628 C 280.49204 289.1446 284.3022 290.32158 286.74976 291.6178 C 289.33358 292.90206 294.095 294.751 297.41037 295.76532 C 301.01018 296.89206 305.96746 299.41038 309.7725 302.09815 L 316.13494 306.55308 L 308.91238 300.11385 C 304.89955 296.62044 301.33128 293.50004 300.89865 293.2633 C 300.39194 292.96436 298.88372 292.20384 297.51176 291.4314 C 295.49682 290.37195 295.17662 289.85075 296.15685 289.28443 C 297.0008 288.73004 300.01725 290.25107 306.0714 294.32106 C 317.52484 302.03777 318.56468 302.15275 310.1686 294.85508 C 304.9703 290.36695 303.8232 289.02563 305.592 289.62604 C 306.86603 290.0638 308.91673 291.53202 310.0017 292.94743 C 311.3089 294.54936 312.39643 295.20938 312.76945 294.76483 C 313.95067 293.3571 311.458 290.76047 304.11788 286.11648 C 300.1144 283.5147 294.5908 280.01617 291.89714 278.26094 C 285.2 273.90395 284.97094 272.0704 290.8591 270.31952 C 298.48288 268.0049 307.58257 261.37338 306.725 258.6337 C 306.54107 258.10057 305.623 258.5928 304.6283 259.77825 C 302.5767 262.22325 295.77985 265.358 294.1473 264.74567 C 292.5769 264.05924 294.76475 261.60232 297.51636 260.88103 C 298.71886 260.50122 301.22436 259.3209 303.04855 258.20017 Z"/>
            </g>
            <g>
               <path d="M 173.71675 151.57176 C 173.11377 154.09598 171.6813 156.55545 168.3744 160.346 C 163.62568 165.70438 157.78008 169.51108 146.09656 174.8583 C 143.1942 176.21066 140.11726 177.92154 139.4334 178.73654 C 138.67544 179.48937 137.75739 179.9816 137.1885 179.75676 C 135.33367 178.95791 137.9303 176.46523 144.25878 172.68494 C 147.78283 170.59168 151.3452 168.15181 152.09124 167.26272 C 152.89945 166.29955 156.58616 163.7115 160.3589 161.32188 C 165.11185 158.36594 167.22305 156.60224 167.1396 155.64842 C 167.05615 154.6946 164.675 155.72674 159.59927 158.91688 C 149.06288 165.60543 148.12354 165.06974 155.84192 156.77414 C 162.24282 149.89819 165.8912 147.65675 170.85875 147.1535 C 173.99273 146.8793 174.47304 147.6611 173.71675 151.57176 Z"/>
            </g>
            <g>
               <path d="M 180.55259 166.14571 C 180.63604 167.09953 179.7631 168.8922 178.58188 170.29992 C 175.9086 173.48582 164.08625 179.60036 158.28667 180.79428 C 153.97402 181.7208 150.68417 184.13682 151.33393 186.07087 C 151.81168 187.60806 157.0543 186.32557 162.62482 183.2981 C 170.75108 178.87996 183.41816 179.28207 181.76766 183.95748 C 181.49257 184.73671 179.60365 186.68691 177.5427 188.24026 C 175.48174 189.7936 172.83742 191.74124 171.80695 192.5179 C 170.7143 193.36867 169.4113 194.16918 168.81601 194.42722 C 167.61351 194.80703 169.13622 194.94842 177.23518 194.92637 C 182.72136 194.8583 185.99583 196.97463 184.79756 199.75687 C 183.83605 202.1065 178.13863 206.03754 175.59993 206.0537 C 174.57202 206.07497 171.95667 206.78435 169.83611 207.65639 C 167.71556 208.52843 164.04845 208.98656 161.62217 208.71827 C 159.18397 208.31372 155.28267 208.44909 153.00201 209.06053 C 150.70943 209.5357 148.38108 209.6021 147.86245 209.16692 C 146.38063 207.92353 147.77733 205.05527 149.65857 205.37125 C 150.49997 205.57224 152.99099 205.01105 155.25972 204.26335 C 157.3922 203.52756 162.38615 202.54144 166.2636 202.13355 C 170.0789 201.79976 172.97869 201.2028 172.68232 200.95412 C 171.64505 200.08375 153.52756 200.1585 152.78153 201.04758 C 152.34634 201.56621 152.32506 200.5383 152.72705 198.8555 C 153.90917 193.53455 156.62758 191.64908 167.63402 188.7639 C 173.40976 187.29746 174.06722 186.96533 173.02995 186.09496 C 172.43723 185.5976 163.97204 187.71124 156.29801 190.23623 C 154.42613 190.8119 152.19572 191.213 151.4284 191.07417 C 149.20056 190.71987 148.68872 191.93173 149.83072 194.78384 C 150.85094 197.02873 150.67635 197.38727 148.65629 197.8386 C 146.4378 198.37596 146.36371 198.31379 146.00095 195.73676 C 145.77188 193.9032 146.3723 192.1344 148.05087 190.13394 C 150.59982 187.09622 149.96197 185.29843 146.51714 185.94307 C 139.68964 187.15827 144.27404 179.13686 153.60536 173.5835 C 157.12941 171.49025 160.69179 169.05038 161.43782 168.1613 C 162.80555 166.5313 168.61962 164.71825 175.34662 163.92376 C 179.48468 163.35577 180.338 163.69303 180.55259 166.14571 Z"/>
            </g>
            <g>
               <path d="M 246.6823 231.48319 C 245.51043 233.78256 245.68246 234.17942 247.77148 235.30104 C 249.65016 236.3724 249.98228 237.02986 249.35803 238.52616 C 248.92028 239.8002 249.20215 240.668 250.5741 241.44044 C 252.73723 242.62422 253.8136 250.21903 251.87955 250.8688 C 250.34236 251.34655 246.8601 248.42458 247.6683 247.4614 C 248.04132 247.01685 246.086 246.6387 243.3991 246.53052 C 239.54806 246.45554 238.34812 246.07996 238.24083 244.85362 C 238.13354 243.62727 237.41648 243.2781 235.02596 243.4186 C 232.7717 243.54716 232.05464 243.19798 231.79917 241.8473 C 231.5437 240.49662 230.69037 240.15937 228.0035 240.05118 L 224.69748 239.9285 L 226.6341 238.52335 L 228.6448 237.18036 L 225.60875 237.78924 C 223.92337 238.14264 222.61102 238.0515 222.57526 237.64272 C 222.4918 236.6889 231.3709 233.0287 235.10018 232.4965 C 236.52495 232.3032 239.71174 231.06326 242.21724 229.88293 C 247.35257 227.3741 248.7007 227.87402 246.6823 231.48319 Z"/>
            </g>
            <g>
               <path d="M 263.8379 266.71088 C 263.9903 269.23765 264.6997 271.853 265.4406 272.4747 C 266.1815 273.0964 266.93177 274.60974 267.2494 275.88633 C 267.57897 277.2992 268.7261 278.6405 270.3825 279.52537 C 272.47153 280.64698 272.88967 281.50287 272.8198 283.84314 C 272.62048 287.84237 271.98686 288.447 267.7032 288.13527 C 264.5956 287.9266 263.52 287.40283 261.15167 284.658 C 259.41182 282.81933 258.6377 281.03346 259.0729 280.51483 C 260.12978 279.2553 259.52347 275.46384 257.98205 273.53915 C 257.2914 272.7071 257.01207 271.0839 257.37573 269.7477 C 258.21547 266.79087 257.48648 266.30543 254.99034 268.3774 C 252.2336 270.6095 252.16887 271.43897 254.4657 273.36623 C 259.8743 277.9046 257.40624 282.65154 248.7188 284.57867 C 245.62057 285.26164 241.66902 285.60735 239.86187 285.35355 C 237.98063 285.03757 236.27142 285.11846 235.96057 285.4889 C 235.64973 285.85937 234.41146 285.8304 233.2737 285.38073 C 232.13593 284.93106 229.92 284.713 228.3709 285.0545 C 226.82178 285.396 225.02655 285.27844 224.50792 284.84325 C 223.9152 284.3459 222.54067 284.32885 221.47443 284.69674 C 220.4201 285.2009 217.6089 285.2409 215.38104 284.88658 C 213.01693 284.5442 210.1938 284.44794 209.05346 284.75366 C 206.02933 285.4988 204.12938 283.39952 204.47689 279.52462 C 204.7503 275.58756 206.26878 273.3265 207.6765 274.50773 C 208.19514 274.94292 210.11726 274.1569 212.05388 272.75173 C 215.00904 270.43364 215.55409 270.38595 217.55454 272.06453 C 219.55499 273.7431 219.52858 274.22598 218.0101 276.48703 C 217.03924 277.945 216.47715 279.3672 216.9217 279.74022 C 217.81078 280.48626 220.67058 277.0781 221.2114 274.62796 C 221.40046 273.6503 222.93086 271.5255 224.58303 270.00793 C 228.2723 266.6645 230.36133 267.7861 230.1092 272.75108 C 229.86218 276.20527 231.26311 275.73945 232.04324 272.1013 C 232.38306 270.4926 233.2032 269.66568 235.6082 268.90605 C 239.46436 267.47025 239.983 267.90544 239.54948 271.5819 C 239.2812 274.00818 238.79576 274.73717 236.68712 275.74547 C 233.1273 277.42995 233.73195 278.06356 238.66116 277.90692 C 242.7609 277.68554 243.11942 277.86013 243.80496 280.20296 C 244.7843 283.54986 244.7843 283.54986 246.58977 280.64584 C 247.67306 278.90342 247.7378 278.07394 246.77205 278.02113 C 246.01665 278.01857 244.32192 277.48032 243.08622 276.69596 C 240.9231 275.51217 240.88734 275.1034 242.50375 273.17703 C 243.8093 271.62113 244.0103 270.77972 243.02072 270.4544 C 242.31558 270.24148 241.44353 268.12092 241.1787 265.8786 C 240.68224 262.5581 239.8698 261.11883 237.27663 258.9429 C 235.2021 257.20215 233.76796 256.5038 233.2706 257.09653 C 232.77325 257.68926 233.49967 258.93008 235.20376 260.35998 C 237.64875 262.41158 237.8327 262.9447 236.68724 264.7612 C 235.96505 265.9228 234.41338 267.0197 233.19896 267.26324 C 231.19082 267.85084 230.96854 267.66433 229.23382 264.31487 C 227.8193 261.4866 227.74777 260.66904 229.1751 259.72034 C 231.64484 258.13124 229.69208 256.9977 227.012 258.53656 C 225.6349 259.2749 224.1982 259.33195 223.23503 258.52374 C 222.27185 257.71554 221.31803 257.799 220.572 258.68808 C 219.51511 259.94762 219.67522 260.20822 222.22327 261.08372 C 226.47798 262.63373 226.99149 264.5797 224.06952 268.06196 L 221.58274 271.0256 L 218.32274 268.29013 C 215.95184 266.3007 215.00315 264.87337 215.14453 263.35067 C 215.33873 260.86222 213.82628 257.69926 213.01808 258.66244 C 211.83686 260.07017 211.4323 262.50837 212.17321 263.13006 C 213.65503 264.37345 213.60388 268.49702 211.98748 270.42338 C 210.43324 272.27565 207.00968 273.9482 207.18684 272.83428 C 207.22516 272.48767 207.55306 270.7427 207.88095 268.9977 C 208.24718 266.90613 207.9057 265.35702 206.96635 264.82133 C 206.16328 264.27373 205.0068 262.04075 204.46944 259.82226 C 203.28489 254.91433 198.2612 250.06767 196.965 252.51523 C 196.3169 253.739 196.7972 254.5208 198.62563 255.80252 C 202.2084 258.3038 202.50386 262.4657 199.1612 265.84745 C 196.88733 268.10594 196.41638 268.2158 194.97289 266.6258 C 193.99779 265.68133 193.27393 263.6851 193.21688 262.24842 C 193.26034 260.39102 192.3619 258.75333 189.97907 256.62765 C 186.47296 253.43316 186.12212 250.9924 188.85245 249.2432 C 189.83268 248.67687 192.40547 245.91167 194.64357 243.2444 C 198.6846 238.4285 198.80893 238.28032 201.04614 239.52628 C 202.28184 240.31064 204.13667 241.10948 205.12625 241.43482 C 206.40028 241.87257 207.00236 243.26158 207.11389 246.89035 C 207.39743 250.916 207.7534 251.84597 209.26419 251.8511 C 210.2921 251.82982 211.51588 252.47792 211.85993 253.27164 C 212.34023 254.05344 212.97129 254.20418 213.59298 253.46327 C 214.27685 252.64828 214.08098 251.9789 212.86912 251.46706 C 210.79202 250.4817 209.65002 247.6296 210.76907 246.29596 C 211.26643 245.70323 212.92796 245.0773 214.55116 244.798 L 217.52504 244.2632 L 217.37853 247.2967 C 217.3206 249.77322 217.5667 250.23225 218.6091 249.59184 C 219.32873 249.18562 220.39753 248.06234 221.0073 247.18517 C 221.916 245.8013 222.62115 246.0142 225.84538 248.34088 C 228.4147 250.2443 229.76283 250.74422 230.4467 249.92922 C 231.00622 249.2624 232.05798 249.51364 233.4657 250.69486 C 234.65115 251.68957 236.3578 252.36408 237.2997 252.14437 C 240.13733 251.6215 243.62215 253.78808 244.34345 256.5397 C 244.80927 257.94062 246.016 259.96325 247.07712 261.10614 C 248.4346 262.4977 248.67815 263.71213 247.91763 265.22035 C 247.0447 267.01302 247.1307 267.21145 248.61764 266.94405 C 250.1046 266.67666 250.32942 266.10778 249.62005 263.49242 C 249.19255 261.74488 248.45677 259.6124 248.03863 258.75652 C 245.93345 255.0962 251.0347 255.33642 255.55422 259.12876 C 256.66558 260.0613 258.21213 260.4752 259.00585 260.13116 C 261.28908 258.76433 263.545 261.7936 263.8379 266.71088 Z"/>
            </g>
            <g>
               <path d="M 105.47612 139.00611 C 105.09118 139.3144 104.04878 139.9548 103.26699 140.43511 C 100.90967 141.73978 101.89067 148.2445 104.55114 148.83556 C 107.13752 149.36445 107.50798 149.6753 106.38893 151.00893 C 105.89157 151.60166 105.16002 151.87162 104.71548 151.4986 C 104.34502 151.18775 103.66372 151.24736 103.35287 151.61781 C 102.97986 152.06236 103.63475 152.48562 104.95903 152.71302 C 108.22671 153.1823 107.76256 154.9392 104.29388 155.31132 C 102.59659 155.52847 101.04748 155.86995 100.7988 156.16632 C 99.80409 157.35177 102.19204 157.96667 105.02966 157.4438 C 106.71503 157.0904 108.36208 157.0836 108.80662 157.45662 C 109.25116 157.82964 108.71548 158.76897 107.69693 159.6819 C 106.28151 160.76686 106.0686 161.472 106.89552 162.29213 C 107.50016 162.92574 109.154 164.566 110.57365 165.88348 C 112.53577 167.90866 113.3891 168.24592 114.6921 167.4454 C 116.57846 166.2506 120.5368 167.55192 119.92446 169.18448 C 119.69963 169.75337 119.50799 171.48642 119.42877 172.93504 L 119.39468 175.68408 L 122.40689 174.80269 C 126.15065 173.65133 127.47236 174.63412 124.82804 176.58176 C 123.2142 177.75273 123.00128 178.45787 123.92357 180.36808 C 124.78369 182.35237 125.72303 182.88806 128.91662 183.29517 C 134.2759 184.13068 135.04064 185.0249 132.27198 187.12071 C 130.85657 188.20567 130.1463 189.50354 130.25359 190.72988 C 130.46561 193.93796 128.24878 197.63313 125.85827 197.77363 C 124.16098 197.99077 123.71387 198.37315 123.69682 199.74767 C 123.62953 201.33255 124.19841 201.55738 127.13396 201.3692 C 131.70464 201.03797 135.8827 203.2812 135.91077 205.95616 C 135.92692 208.49486 134.51407 208.82442 129.32939 207.63038 C 126.24821 206.93883 125.09596 207.1083 125.19133 208.19837 C 125.2867 209.28845 126.00376 209.63763 127.71298 209.55674 C 130.4501 209.45458 132.63706 210.91088 132.30917 212.65586 C 132.23251 213.34908 133.60191 214.87691 135.43034 216.15863 C 137.40694 217.5647 138.41781 218.91793 138.1308 219.5609 C 137.56871 220.98312 127.94192 222.37456 125.38195 221.3628 C 124.30635 220.83904 121.82982 220.7811 119.9341 221.08426 C 117.9762 221.4615 113.92673 221.47253 110.94348 221.11567 C 106.51163 220.6796 105.01533 220.05533 102.9672 217.8317 C 100.08022 214.6517 99.55479 212.56948 100.54783 208.2262 C 101.18914 205.35537 101.56216 204.91083 107.26894 201.87144 C 113.17414 198.74604 113.29848 198.59786 114.40138 194.72553 C 115.87986 189.65326 112.65653 183.41336 107.84486 181.77478 C 106.2123 181.16244 104.44348 180.56203 104.01086 180.32527 C 103.65233 180.15068 103.56208 177.54982 103.84486 174.5044 C 104.20172 171.52117 104.09956 168.78404 103.65501 168.41102 C 103.27264 167.96392 103.00524 166.47697 103.14663 164.95427 C 103.403 162.39173 103.403 162.39173 100.97416 162.87883 C 97.87593 163.5618 97.50292 164.00635 98.69773 165.8927 C 100.22466 168.43653 98.49494 174.56055 95.36519 177.23718 C 92.68254 179.53143 92.68254 179.53143 95.03729 178.98216 C 97.51638 178.2847 100.16237 179.4949 99.10549 180.75444 C 97.67559 182.45852 92.56923 183.7291 90.83873 182.78206 C 89.55279 182.20805 88.12801 182.40136 87.17163 183.2402 C 84.42681 185.60854 81.08337 181.91926 80.70702 176.04814 C 80.23786 168.33156 81.35012 165.35088 87.54323 157.66929 C 90.56569 153.76632 94.46109 148.07069 96.18056 144.96824 C 98.54813 140.642 99.66718 139.30837 100.89352 139.20108 C 101.84734 139.11763 103.026 138.4653 103.70986 137.6503 C 104.39373 136.8353 105.1372 136.7016 105.54342 137.42123 C 105.86362 137.94243 105.86106 138.69782 105.47612 139.00611 Z"/>
            </g>
            <g>
               <path d="M 184.64067 216.7962 C 184.04026 218.56502 174.3836 225.10795 173.4945 224.36192 C 173.12406 224.05107 170.09057 223.90456 166.59805 224.00416 C 162.07762 224.12504 157.88252 223.25633 151.42637 220.86915 C 146.5287 219.03214 142.4605 217.25986 142.49882 216.91325 C 142.46306 216.50447 145.52039 216.9235 149.24454 217.90206 C 153.87226 219.00753 157.25236 219.19237 159.58327 218.37058 C 161.44323 217.65864 166.41077 217.15538 170.47217 217.28062 C 177.07227 217.3897 181.07406 216.83363 180.0368 215.96326 C 179.81452 215.77675 176.44634 215.72817 172.48287 215.93763 C 165.08906 216.1726 163.76478 215.9452 164.06883 213.9277 C 164.33456 212.2568 162.3409 212.22527 160.911 213.92936 C 160.1028 214.89254 159.21115 214.9019 158.17388 214.03153 C 156.24752 212.41512 158.40897 210.44107 161.41605 211.07046 C 162.5419 211.38387 166.1826 211.4086 169.46476 211.25876 C 172.74693 211.1089 176.48556 211.46834 177.78343 212.1786 C 179.14347 212.8148 180.69002 213.2287 181.22314 213.04475 C 182.8966 212.55508 185.17892 215.10147 184.64067 216.7962 Z"/>
            </g>
            <g>
               <path d="M 137.38335 195.32363 C 137.0725 195.69408 136.46529 195.81586 136.02075 195.44284 C 135.6503 195.132 135.59069 194.4507 135.90153 194.08024 C 136.27455 193.6357 136.89368 193.65018 137.26414 193.96103 C 137.70868 194.33404 137.75637 194.87908 137.38335 195.32363 Z"/>
            </g>
            <g>
               <path d="M 189.60027 240.52766 C 189.98944 242.6218 189.66155 244.3668 188.41816 245.8486 C 187.42345 247.03406 186.39297 247.81073 186.1707 247.62422 C 185.05934 246.69168 183.68237 236.44575 184.55275 235.40848 C 185.8583 233.85258 188.79553 236.82223 189.60027 240.52766 Z"/>
            </g>
            <g>
               <path d="M 173.38197 235.63063 C 173.881 238.19573 174.18928 238.58067 175.36793 237.92834 C 177.72525 236.62367 181.88112 241.7522 181.4476 245.42868 C 181.21764 247.50834 178.19774 250.65592 176.4766 250.60054 C 174.3467 250.58093 170.0784 245.73684 170.08609 243.47066 C 170.1389 242.50492 169.54874 241.25217 168.88192 240.69264 C 167.25192 239.3249 167.68378 232.49062 169.38363 231.51808 C 171.21975 230.53363 172.65131 231.98737 173.38197 235.63063 Z"/>
            </g>
            <g>
               <path d="M 234.5203 298.6652 C 233.15257 300.2952 223.0356 292.11973 220.96106 290.37898 C 219.7756 289.38427 238.7229 289.98845 241.29992 289.6257 C 244.6945 289.1914 241.51481 290.90702 239.77407 292.98156 Z"/>
            </g>
            <g>
               <path d="M 205.4189 268.32065 C 205.98523 269.30087 205.42314 270.72308 203.49589 273.0199 C 201.25778 275.68716 200.94437 276.813 201.61798 279.01958 C 202.59732 282.36648 200.80889 283.89598 195.30823 284.58318 C 189.6713 285.2823 188.85887 283.84304 192.79683 280.20324 C 194.82202 278.2411 196.27832 276.05416 196.60622 274.30918 C 197.15895 271.99532 199.45922 269.25396 202.97135 267.02444 C 204.1381 266.23585 204.28627 266.3602 205.4189 268.32065 Z"/>
            </g>
            <g>
               <path d="M 186.21915 255.2403 C 186.2762 256.677 187.19849 258.5872 188.30985 259.51975 C 190.97711 261.75785 190.97622 265.67108 188.44175 268.08966 C 186.5409 269.9036 186.33055 269.85336 183.33116 266.9578 C 181.60323 265.25538 179.85402 262.52504 179.42653 260.7775 C 178.93686 259.10405 178.23684 257.38036 177.86639 257.0695 C 177.0514 256.38564 176.56941 252.44602 177.25328 251.63102 C 178.18582 250.51966 183.46164 250.40134 184.79528 251.5204 C 185.53619 252.1421 186.16211 253.80362 186.21915 255.2403 Z"/>
            </g>
            <g>
               <path d="M 165.78793 243.77805 C 165.72486 247.76536 165.88497 248.02596 168.00296 247.9093 C 169.9847 247.80458 170.50333 248.23977 171.30128 250.29816 C 171.90337 251.68717 173.19867 253.15283 174.27427 253.6766 C 175.42396 254.26252 176.3224 255.9002 176.74734 258.40314 C 177.38006 261.7117 177.10497 262.49095 174.80727 264.4769 C 172.38522 266.61106 172.33497 266.8214 174.4172 266.29598 C 175.6938 265.97834 177.14497 265.30217 177.58016 264.78353 C 178.6992 263.4499 180.87168 265.52533 181.6909 268.61163 C 183.08582 273.5698 175.78904 278.0527 174.1957 273.18052 C 173.88998 272.0402 173.08947 270.7372 172.49674 270.23984 C 171.90401 269.74248 170.51334 267.18674 169.53144 264.59523 C 168.15525 261.42035 166.7501 259.48374 165.15586 258.5248 C 163.85799 257.81452 162.3404 256.16235 161.81242 254.8355 C 160.75643 252.18183 158.91865 250.00847 153.1779 244.81263 C 151.16552 242.9978 149.37799 240.61407 149.14636 239.5359 C 148.98882 238.51992 147.94219 236.7579 146.8189 235.6891 C 145.09098 233.98667 145.11738 233.5038 146.98247 231.28108 C 150.71264 226.83564 155.27307 229.52597 153.71793 235.29146 C 152.89012 238.38456 153.89162 238.84615 155.94322 236.40115 C 158.30566 233.5857 158.99888 233.66236 162.70342 236.77084 C 165.44478 239.0711 165.87484 240.06326 165.78793 243.77805 Z"/>
            </g>
            <g>
               <path d="M 194.10418 270.8209 C 195.23426 273.53674 193.7345 277.5811 190.655 280.04737 L 188.22103 282.04525 L 187.7561 276.7311 C 187.21964 270.5994 187.05698 271.0942 190.13392 269.3833 C 192.75183 267.91854 192.96218 267.96878 194.10418 270.8209 Z"/>
            </g>
            <g>
               <path d="M 140.41045 233.84695 C 140.53902 236.1012 141.04317 237.15553 141.99699 237.07208 C 144.31341 236.86942 148.01539 240.7333 148.11755 243.4704 C 148.18395 245.79876 148.41814 246.12153 149.80715 245.51944 C 151.93963 244.78366 153.43337 246.1633 154.79507 249.95732 C 156.0827 253.68916 154.81969 257.3009 151.55624 259.23404 C 148.68965 260.99517 147.88657 260.44757 146.31707 255.84792 C 145.6673 253.91387 144.48442 252.16377 143.77927 251.95085 C 143.00004 251.67577 141.52335 248.9216 140.50569 245.9213 C 138.702 240.9989 138.3077 240.41552 136.40006 240.58242 C 135.24781 240.75188 133.46707 240.0152 132.48005 238.93448 C 130.7402 237.0958 130.79045 236.88545 135.22576 232.65292 C 135.7972 232.12236 136.50748 230.8245 136.83281 229.8349 C 137.69639 227.1506 140.20099 229.88349 140.41045 233.84695 Z"/>
            </g>
            <g>
               <path d="M 130.70623 228.86058 C 130.39538 229.23103 129.5659 229.1663 128.89908 228.60677 C 128.30635 228.10942 128.32084 227.49028 128.85396 227.30634 C 129.44925 227.0483 130.21656 227.18713 130.6611 227.56014 C 131.03156 227.871 131.07924 228.41603 130.70623 228.86058 Z"/>
            </g>
            <g>
               <path d="M 186.72818 276.75238 C 187.27233 280.61792 183.64522 283.88727 177.7477 284.7465 C 172.86617 285.44818 172.37138 285.2855 169.21189 282.12935 C 167.1135 280.11608 164.93846 278.79604 163.7002 278.76707 C 161.76872 278.66145 161.92882 278.92205 164.6821 281.35858 C 166.38618 282.78848 167.54523 284.26606 167.23438 284.6365 C 166.92353 285.00697 163.45486 285.3791 159.49139 285.58854 C 152.7908 285.90016 151.33962 286.57634 153.41416 288.3171 C 153.9328 288.75227 156.85386 289.18323 159.88735 289.32974 C 164.36946 289.55547 166.13828 290.1559 168.87964 292.45616 C 172.65826 295.6268 172.73659 298.0914 169.0073 298.62364 C 164.86925 299.19162 152.4611 295.4716 150.82175 293.2122 C 149.1824 290.95282 147.16926 282.06693 147.808 279.9515 C 148.14525 279.09818 149.53426 278.4961 151.31757 278.47738 C 153.02678 278.3965 155.20694 278.20575 156.2851 277.97412 C 157.89639 277.55855 158.0088 277.2741 156.8472 276.5519 C 156.18038 275.9924 155.61662 274.25677 155.73416 272.46154 C 155.8662 270.0472 156.3397 269.18194 158.30016 268.0493 C 162.03456 266.0063 164.09462 268.36617 162.79073 273.0799 L 161.68783 276.95223 L 165.20509 273.21193 C 168.34933 269.91618 168.80836 269.67006 170.43835 271.0378 C 171.40153 271.846 172.21397 273.28525 172.2855 274.1028 C 172.22076 274.9323 172.20115 277.0622 172.14577 278.78335 C 172.0495 281.6065 172.06143 281.74274 173.37891 280.3231 C 174.06278 279.5081 175.70046 278.60965 176.97705 278.292 C 178.19147 278.04846 180.14 276.77956 181.1969 275.52002 C 184.11886 272.03775 186.14828 272.47807 186.72818 276.75238 Z"/>
            </g>
            <g>
               <path d="M 157.51157 266.88256 C 154.23363 269.43485 152.58659 269.44164 148.75515 267.23674 C 144.92371 265.03184 144.98588 264.95775 152.28266 260.47487 C 159.7157 255.98007 159.64161 255.9179 159.78633 260.71086 C 159.88593 264.20337 159.49843 265.26705 157.51157 266.88256 Z"/>
            </g>
            <g>
               <path d="M 166.57884 266.15793 C 167.0753 269.47843 166.15724 269.97065 163.71225 267.91906 C 161.41543 265.9918 160.8568 262.7454 162.79085 262.09563 C 164.39021 261.5438 166.20415 263.44465 166.57884 266.15793 Z"/>
            </g>
            <g>
               <path d="M 128.38122 235.24263 C 128.55068 236.39489 128.32328 237.71916 128.01243 238.08961 C 127.70158 238.46007 128.11972 239.31596 128.93472 239.99982 C 131.23153 241.92708 131.14206 246.39726 128.77962 249.2127 C 126.10633 252.3986 124.65772 252.3194 123.58045 248.6378 C 122.41717 244.75778 120.87998 245.23553 121.63448 249.1513 C 122.34129 252.52205 120.684 255.55042 117.95879 255.78884 C 115.36984 256.01534 114.71751 254.8367 115.4738 250.92603 C 115.96436 248.68626 115.6612 246.79054 114.76019 245.90824 C 107.88424 239.50735 105.33195 236.2294 105.636 234.2119 C 105.81316 233.098 105.18723 231.43646 104.22405 230.62825 C 101.55678 228.39015 104.16021 227.54452 107.22434 229.6106 C 108.68231 230.58146 110.00146 232.31965 110.23309 233.3978 C 110.5865 235.08318 110.66059 235.14535 111.261 233.37653 C 112.71308 228.78713 113.8943 227.3794 115.37611 228.6228 C 117.15429 230.11487 117.3808 232.7038 115.9509 234.4079 C 115.3292 235.1488 115.2023 236.05238 115.64684 236.4254 C 116.09139 236.79842 117.17211 235.8114 118.67866 233.41408 C 120.47222 230.3738 121.2421 229.75723 122.98708 230.08513 C 125.84598 230.59017 128.16663 232.78995 128.38122 235.24263 Z"/>
            </g>
            <g>
               <path d="M 138.91992 249.76723 C 139.65057 253.4105 138.61754 254.94256 133.50605 257.7239 C 129.77164 259.76692 128.2251 259.353 126.97324 256.02995 C 126.29707 254.57877 126.95709 253.49125 130.64894 249.39242 C 133.0233 246.71323 135.1609 244.46667 135.28524 244.3185 C 136.14113 243.90035 138.3468 247.13996 138.91992 249.76723 Z"/>
            </g>
            <g>
               <path d="M 145.07112 258.08513 C 146.68574 263.9852 143.728 267.0587 138.01276 265.2932 C 133.63372 263.89138 133.65333 261.76147 138.38757 257.02222 C 142.2276 253.04773 143.8244 253.2513 145.07112 258.08513 Z"/>
            </g>
            <g>
               <path d="M 152.49968 273.15643 C 151.72468 275.2838 148.13423 275.0487 145.46696 272.8106 C 142.42924 270.26164 143.26385 268.8156 147.4351 269.41178 C 151.8908 270.12038 153.21252 271.10317 152.49968 273.15643 Z"/>
            </g>
            <g>
               <path d="M 103.03168 238.97077 C 103.70529 241.17734 104.45722 245.8485 104.619 249.26694 L 104.88293 255.4225 L 99.79951 260.8788 C 94.70418 266.19885 88.74872 269.5346 81.93314 270.88606 C 78.15362 271.62863 52.61001 266.86094 50.38729 264.99586 C 48.31275 263.2551 50.6675 262.70584 55.64183 263.84963 C 60.82652 265.04367 67.52711 264.73205 67.33381 263.30727 C 67.23844 262.2172 58.946175 260.81447 52.42017 260.76756 C 46.45112 260.80922 41.527037 259.45508 40.456566 257.42053 C 39.398017 255.52225 44.44567 249.65716 50.82439 245.6665 C 53.55472 243.9173 57.24144 241.32925 58.83144 239.88577 C 64.84227 234.82888 83.27919 228.2043 89.59229 228.95635 C 96.11573 229.75865 101.32849 233.62765 103.03168 238.97077 Z"/>
            </g>
            <g>
               <path d="M 125.83458 259.4935 C 126.23055 263.2347 124.66182 265.7061 121.91278 265.672 C 120.88486 265.69328 119.43368 266.36946 118.68765 267.25854 C 117.94162 268.14763 116.63862 268.94815 115.82106 269.01967 C 115.0035 269.0912 114.23362 269.70777 114.08288 270.33882 C 113.87932 271.93562 115.87977 273.6142 116.68797 272.651 C 117.62052 271.53965 120.10127 274.00003 120.08166 276.12995 C 120.07397 278.39612 117.13585 279.3397 115.1354 277.6611 C 114.46859 277.1016 112.7977 276.83586 111.37293 277.02916 C 110.02225 277.28464 108.055 276.77023 107.09182 275.96203 C 105.98045 275.0295 104.65618 274.8021 103.75004 275.43058 C 101.01971 277.1798 90.11979 274.22026 91.79836 272.2198 C 92.35789 271.553 102.57318 268.25647 103.9477 268.27352 C 105.731 268.2548 110.32386 265.03826 112.1651 262.54302 C 113.75767 260.34414 114.68765 259.98817 116.51864 260.5145 C 118.13927 260.99057 119.26768 260.5486 120.25047 259.22688 C 124.18164 253.94003 125.35773 254.0431 125.83458 259.4935 Z"/>
            </g>
            <g>
               <path d="M 130.75098 263.11382 C 130.22978 263.43402 129.53656 263.35737 129.1661 263.04652 C 128.79565 262.73567 128.59978 262.0663 128.82462 261.4974 C 129.04945 260.92853 129.80484 260.9311 130.47166 261.4906 C 131.13848 262.05014 131.27217 262.7936 130.75098 263.11382 Z"/>
            </g>
            <g>
               <path d="M 112.65489 253.2322 C 112.80218 257.26976 109.25339 263.0037 104.8232 265.72546 C 99.6853 268.9897 98.99977 266.64686 103.53815 261.23823 C 106.52228 257.68188 107.56981 255.53068 108.21368 251.90447 C 109.55167 244.44168 112.23598 245.30526 112.65489 253.2322 Z"/>
            </g>
            <g>
               <path d="M 137.1074 272.99275 C 137.12868 274.02066 137.42504 274.26934 142.36272 278.91757 C 144.96781 281.22976 144.99166 281.50228 143.13426 281.45883 C 141.95817 281.35577 140.24639 282.19204 139.37602 283.2293 C 137.88395 285.0075 137.96996 285.20592 141.04857 286.65287 C 146.11827 288.88674 147.11465 290.85912 142.7092 289.94016 C 139.20733 289.1481 139.0089 289.23412 139.53433 291.31636 C 139.77788 292.53078 140.6644 294.0322 141.40531 294.6539 C 142.14622 295.2756 142.52603 296.4781 142.25095 297.25733 C 142.04995 298.09873 142.57795 299.42557 143.54113 300.23377 C 144.5043 301.04198 145.07063 302.0222 144.69761 302.46675 C 144.38676 302.8372 142.89046 302.21294 141.40865 300.96955 C 137.92638 298.0476 136.89078 300.33504 140.31087 303.3311 C 144.10142 306.638 144.49572 307.22137 143.74969 308.11046 C 143.37667 308.555 142.01663 307.91883 140.81926 306.78786 C 137.37532 303.51928 136.58416 303.10793 135.83813 303.99702 C 135.46511 304.44157 136.46405 305.65855 138.21839 306.8781 C 139.82454 307.9733 140.89758 309.25246 140.52456 309.697 C 140.21371 310.06746 139.08787 309.75405 138.0506 308.88367 C 137.01333 308.0133 135.94965 307.6258 135.57663 308.07034 C 135.26579 308.4408 135.99221 309.68163 137.17766 310.67634 C 139.54856 312.66576 139.58433 313.07454 137.53273 315.51954 C 136.53802 316.705 135.91889 316.6905 135.1303 315.52377 C 134.51373 314.7539 133.41429 313.9576 132.64698 313.8188 C 131.7434 313.6919 131.80301 314.3732 132.81387 315.72643 C 134.8356 318.4329 132.97564 319.14486 130.1602 316.7824 C 126.9002 314.04696 125.63297 315.25625 128.5702 318.2259 C 131.4214 320.99713 130.82099 322.76595 127.76879 320.83613 C 124.04976 318.3468 121.92241 317.57178 121.36289 318.2386 C 120.98987 318.68314 122.42143 320.1369 125.1892 321.9543 C 128.16731 323.82193 129.4507 325.15133 129.01551 325.66997 C 128.6425 326.1145 127.38039 325.81302 126.14469 325.02866 C 124.8349 324.18213 123.37436 323.96665 122.66665 324.50913 C 121.57401 325.3599 121.9683 325.94326 125.24278 328.0596 C 128.67736 330.4365 128.83746 330.6971 127.2117 331.73182 C 125.97087 332.45824 125.59529 333.6582 126.13264 335.87667 C 126.88714 339.79246 126.01677 340.82973 123.00032 339.3087 C 121.62836 338.53625 119.11864 337.31414 117.40007 336.50337 C 106.07521 331.0409 95.25039 313.24607 99.85094 307.76336 C 101.9647 305.24427 109.10561 302.90323 112.39713 303.64504 C 116.31971 304.5376 117.0419 303.37597 116.04386 298.24577 C 115.04581 293.11556 116.3897 291.21305 122.81354 288.52283 C 125.40505 287.54094 127.75044 286.1 127.96335 285.39487 C 128.62594 283.55196 126.57101 279.6813 123.60738 277.19452 C 118.93966 273.27784 122.41693 266.72632 128.99062 267.31827 C 131.68942 267.56272 136.95242 271.22136 137.1074 272.99275 Z"/>
            </g>
            <g>
               <path d="M 177.80193 308.9071 C 177.78745 309.52625 176.79274 310.7117 175.7001 311.56246 C 174.14842 312.65934 171.16518 312.30247 162.05791 310.2159 C 153.70604 308.13187 150.30466 306.9191 150.22121 305.9653 C 150.12584 304.8752 150.49886 304.43066 151.7252 304.32337 C 152.95155 304.21608 153.0282 303.52286 151.7857 301.09145 L 150.223 298.13885 L 153.2565 298.28536 C 157.11947 298.4966 169.35303 302.5752 170.16546 304.01444 C 170.55976 304.5978 167.94697 304.5518 164.45701 303.896 C 160.8308 303.25213 158.20609 303.06985 158.5263 303.59105 C 159.41282 305.09248 170.1288 307.51888 173.4493 307.02242 C 176.90605 306.51404 178.1179 307.02588 177.80193 308.9071 Z"/>
            </g>
            <g>
               <path d="M 181.63069 322.85168 C 180.1863 325.1749 178.6636 325.0335 167.65382 321.60304 C 159.04391 318.92373 150.28326 316.87547 149.7859 317.4682 C 149.28855 318.06092 158.74922 321.83288 163.45103 323.0005 C 169.05642 324.29504 175.82085 327.06716 183.53398 331.2666 C 189.45444 334.59313 189.87002 336.2044 185.02169 338.07027 C 178.72218 340.6123 174.83537 340.12854 161.84898 335.292 C 155.0343 332.73024 146.89535 329.94107 143.79033 328.977 C 137.36994 326.9986 136.13424 326.21424 137.1792 324.81843 C 137.55222 324.3739 139.20696 322.10092 140.73735 319.97613 C 142.404 317.83942 144.33383 314.7872 145.15651 313.2049 C 146.09162 311.33815 147.23451 310.27704 148.44894 310.0335 C 150.54309 309.6443 173.27292 315.2074 177.21677 317.12785 C 181.43315 319.02447 182.83831 320.9611 181.63069 322.85168 Z"/>
            </g>
            <g>
               <path d="M 194.14754 352.92443 L 194.14754 352.92443 C 193.98065 351.0168 191.78177 349.42422 187.3908 347.88614 C 185.5479 347.22355 182.95215 345.803 181.7667 344.8083 C 180.44499 343.8255 177.03169 342.4765 174.0987 341.90928 C 171.15378 341.2058 165.36445 339.37815 161.17191 337.75405 C 156.97938 336.12995 152.22988 334.41728 150.59732 333.80494 C 149.03885 333.25477 145.46545 331.64516 142.74537 330.3728 C 139.96312 329.17453 136.698 327.94986 135.45974 327.9209 C 133.18164 327.77694 133.11947 327.85103 133.56568 331.38187 C 133.80667 333.3517 133.56479 335.2951 132.99334 335.82565 C 131.51576 336.9847 129.07833 343.6512 129.89333 344.33506 C 130.26378 344.6459 134.4035 347.23575 139.12403 350.1867 C 159.65063 362.73903 174.85974 369.44064 190.81065 372.85073 C 199.69564 374.7508 206.1978 374.5252 205.93297 372.28287 C 205.80184 370.784 191.96046 362.4524 184.56498 359.52953 C 180.4346 357.83134 168.79634 353.49473 158.79063 349.77046 C 148.72275 346.1203 140.20142 342.884 139.90506 342.63533 C 138.27506 341.2676 140.59149 341.06494 143.8566 342.2896 C 158.46363 347.6022 167.69267 350.296 168.4387 349.40693 C 169.0604 348.666 169.76554 348.87893 170.78833 350.36844 C 171.6391 351.4611 172.51626 352.07086 172.88928 351.6263 C 173.20012 351.25586 174.62233 351.81795 175.95597 352.937 C 181.66095 357.72405 194.56479 357.69354 194.14754 352.92443 Z"/>
            </g>
            <g>
               <g  id="outline-1">
                  <path 
                        d="M 124.56871 139.87583 C 124.07135 140.46856 124.19313 141.07577 124.75009 141.16435 C 125.44331 141.241 126.02668 140.8467 126.11526 140.28974 C 126.31881 138.69295 125.68776 138.5422 124.56871 139.87583 Z"
                        fill="black"/>
               </g>
            </g>
            <g>
               <g  id="outline-2">
                  <path 
                        d="M 160.07176 172.94912 C 152.09624 176.7362 149.38976 178.75794 152.79626 178.4599 C 153.75008 178.37646 169.41668 170.68986 169.9762 170.02305 C 170.10054 169.87486 169.86635 169.5521 169.56999 169.30342 C 169.19953 168.99257 164.9465 170.6004 160.07176 172.94912 Z"
                        fill="black"/>
               </g>
            </g>
            <g>
               <g  id="outline-3">
                  <path 
                        d="M 160.1788 196.144 C 159.45918 196.55022 159.17217 197.1932 159.46854 197.44187 C 159.83899 197.75272 160.71872 197.6071 161.51244 197.26305 C 162.23207 196.85683 162.51907 196.21386 162.22271 195.96518 C 161.85226 195.65433 160.97253 195.79995 160.1788 196.144 Z"
                        fill="black"/>
               </g>
            </g>
            <g>
               <g  id="outline-4">
                  <path 
                        d="M 198.6496 245.09077 C 197.7937 245.5089 197.19586 246.52234 197.26738 247.3399 C 197.35083 248.29372 197.5731 248.48023 198.07046 247.8875 C 198.44348 247.44296 199.41179 246.74038 200.19358 246.26007 C 200.97538 245.77976 201.33648 245.19896 200.89193 244.82594 C 200.52148 244.5151 199.4314 244.61047 198.6496 245.09077 Z"
                        fill="black"/>
               </g>
            </g>
            <g>
               <g  id="outline-5">
                  <path 
                        d="M 125.27759 186.42826 C 124.74447 186.6122 124.5818 187.107 124.95226 187.41785 C 125.3968 187.79086 126.0781 187.73126 126.38895 187.3608 C 126.76197 186.91626 126.86246 186.49556 126.71428 186.37122 C 126.49201 186.1847 125.87288 186.17023 125.27759 186.42826 Z"
                        fill="black"/>
               </g>
            </g>
            <g>
               <g  id="outline-6">
                  <path 
                        d="M 124.72384 203.6396 C 124.19072 203.82356 124.02805 204.31835 124.3985 204.6292 C 124.84305 205.00221 125.52435 204.9426 125.8352 204.57215 C 126.20822 204.1276 126.30871 203.7069 126.16053 203.58257 C 125.93826 203.39606 125.31913 203.38158 124.72384 203.6396 Z"
                        fill="black"/>
               </g>
            </g>
            <g>
               <g  id="outline-7">
                  <path 
                        d="M 123.7895 212.57741 C 123.30663 212.551 122.21399 213.40177 121.40578 214.36495 C 120.28673 215.69858 120.42043 216.44205 121.75406 217.5611 C 123.9027 219.36402 126.1331 218.96293 125.00047 217.00247 C 124.52016 216.22068 124.56105 215.11867 125.0584 214.52595 C 125.99095 213.41459 125.35054 212.3722 123.7895 212.57741 Z"
                        fill="black"/>
               </g>
            </g>
            <g>
               <g  id="outline-8">
                  <path 
                        d="M 161.5744 292.13416 C 158.39272 291.8633 156.12655 291.85562 156.497 292.16647 C 157.99074 293.54612 167.06223 295.22392 167.88236 294.397 C 168.93924 293.13746 168.08592 292.8002 161.5744 292.13416 Z"
                        fill="black"/>
               </g>
            </g>
            <g>
               <g  id="outline-9">
                  <path 
                        d="M 85.87481 240.6091 C 82.68122 240.202 80.2643 240.82535 81.30157 241.69572 C 82.19066 242.44176 89.60575 243.2347 90.10311 242.64198 C 90.97348 241.6047 89.89788 241.08095 85.87481 240.6091 Z"
                        fill="black"/>
               </g>
            </g>
            <g>
               <g  id="outline-10">
                  <path 
                        d="M 80.73435 244.62872 C 80.34941 244.937 79.84014 245.39347 79.39303 245.77584 C 79.08218 246.1463 77.69317 246.74838 76.56476 247.19036 C 74.69288 247.76604 74.40844 247.65362 74.54983 246.13092 C 74.691215 244.6082 74.54303 244.48387 73.20427 244.8756 C 69.93146 245.9171 70.65186 252.58194 74.13926 253.99312 C 76.27853 254.90438 79.73528 254.396 82.06876 252.81882 C 83.37175 252.0183 83.88359 250.80645 83.7167 248.8988 C 83.46635 246.03734 81.75291 243.7158 80.73435 244.62872 Z"
                        fill="black"/>
               </g>
            </g>
            <g>
               <path d="M 80.725765 250.8081 C 80.22841 251.40084 79.68337 251.44852 79.42533 250.85324 C 79.24139 250.32012 79.49263 249.26836 79.98998 248.67563 C 80.48734 248.0829 81.10647 248.0974 81.29042 248.6305 C 81.54845 249.2258 81.22312 250.2154 80.725765 250.8081 Z"/>
            </g>
            <g>
               <g  id="outline-11">
                  <path 
                        d="M 133.77115 310.97437 C 133.4603 311.34482 133.96446 312.39914 135.00173 313.2695 C 136.039 314.1399 137.16484 314.4533 137.47569 314.08284 C 137.84871 313.6383 137.28239 312.65807 136.24512 311.7877 C 135.20785 310.91733 134.14417 310.52982 133.77115 310.97437 Z"
                        fill="black"/>
               </g>
            </g>
            <g>
               <g  id="outline-12">
                  <path 
                        d="M 166.13457 316.79304 C 154.03471 313.45794 153.6881 313.4196 153.79539 314.64595 C 153.89076 315.73603 177.37085 322.81246 178.47542 322.09796 C 180.10119 321.06325 177.60338 319.9774 166.13457 316.79304 Z"
                        fill="black"/>
               </g>
            </g>
            <g>
               <g  id="outline-13">
                  <path 
                        d="M 172.77454 330.6976 C 162.2093 327.64015 146.85368 323.97203 146.48067 324.41657 C 146.10765 324.8611 150.05407 326.0262 172.39896 331.89754 C 178.7955 333.60342 179.10891 332.47758 172.77454 330.6976 Z"
                        fill="black"/>
               </g>
            </g>
            <g>
               <g  id="outline-14">
                  <path 
                        d="M 169.6353 343.46685 C 163.11699 341.15376 150.85702 337.55806 149.4825 337.541 C 144.95015 337.52563 166.92882 345.48858 174.78846 346.65454 C 179.72703 347.38955 178.41724 346.54302 169.6353 343.46685 Z"
                        fill="black"/>
               </g>
            </g>
            <g>
               <g  id="outline-15">
                  <path 
                        d="M 185.90707 365.45346 C 185.41228 365.2908 178.06704 362.15758 169.52187 358.6488 C 160.9767 355.14 153.51904 352.2912 152.76365 352.28865 C 150.856 352.45555 152.52433 353.47667 157.34792 355.2515 C 159.62345 356.15085 164.61906 358.32255 168.27848 360.1306 C 175.80766 363.79693 190.73745 368.87534 188.37847 367.02218 C 187.56347 366.3383 186.47595 365.6783 185.90707 365.45346 Z"
                        fill="black"/>
               </g>
            </g>
         </g>
      </g>
   </g>
</svg>