<?xml version="1.0" encoding="utf-8"?>
<svg xmlns="http://www.w3.org/2000/svg" xmlns:dc="http://purl.org/dc/elements/1.1/"
     xmlns:xl="http://www.w3.org/1999/xlink"
     xmlns:xlink="http://www.w3.org/1999/xlink"
     version="1.1"
     viewBox="40.5 90 342 175.5"
     width="342"
     height="175.5"
     preserveAspectRatio="xMidYMid meet"
     zoomAndPan="magnify"
     contentScriptType="application/ecmascript"
     contentStyleType="text/css">
   <defs/>
   <metadata  xmlns:svg="http://www.w3.org/2000/svg"
             xmlns:rdf="http://www.w3.org/1999/02/22-rdf-syntax-ns#"
             xmlns:cc="http://creativecommons.org/ns#">
      <rdf:RDF>
         <cc:Work rdf:about="">
            <dc:creator>
               <cc:Agent>
                  <dc:title>http://heraldicart.org Lucy Embowed (1).svg</dc:title>
               </cc:Agent>
            </dc:creator>
         </cc:Work>
      </rdf:RDF>
   </metadata>
   <g stroke-dasharray="none" stroke="#505050" fill-opacity="1" fill="#ffff00"
      stroke-opacity="1">
      <title>Lucy Embowed (1)</title>
      <g>
         <title>Layer 2</title>
         <g>
            <g>
               <g  id="outline-0">
                  <path 
                        d="M 43.918924 251.09553 C 45.39214 252.62243 47.397924 253.8666 48.43058 253.9207 C 50.702426 254.03978 51.32246 256.0397 49.94797 258.5564 C 47.677006 262.37226 58.234914 265.96233 65.25294 258.9443 C 69.246035 256.70606 71.714065 254.209 76.18652 251.85466 C 88.20732 245.75394 102.01478 233.22325 107.27373 223.76523 C 109.56093 219.63957 112.78835 215.3561 114.40769 214.09482 C 117.64637 211.57227 124.96653 208.22813 126.92858 208.33095 C 127.65144 208.36884 130.97173 206.26476 134.42777 203.5465 C 141.0138 198.40355 146.86119 195.49997 153.4427 194.3952 C 155.7416 193.99794 158.36654 193.3071 159.31216 193.04602 C 160.57841 192.59464 161.17094 193.14344 161.58986 195.02928 C 162.32442 198.79555 165.74301 198.7676 168.2205 194.96258 C 170.36115 191.65764 172.77414 191.05925 172.62802 193.84742 C 172.56893 196.9508 174.74336 198.92865 178.5642 199.1289 C 181.2491 199.2696 182.4175 198.70954 183.55298 196.8016 C 185.4925 193.38258 185.56782 189.9694 183.68652 186.35013 C 182.648 184.43182 182.41398 182.96986 183.06604 182.38274 C 183.7127 181.89888 193.3543 181.67933 204.62648 181.95943 C 215.80082 182.13086 226.16528 181.9492 227.63805 181.50863 C 229.11083 181.06807 230.98044 180.95895 231.88818 181.42072 C 232.69807 181.77381 236.0896 182.2622 239.28543 182.53324 C 256.39506 184.05121 255.1721 183.67647 260.1897 188.7027 C 262.74473 191.3218 264.75636 194.43014 264.69683 195.56607 C 264.6373 196.702 265.92066 199.87573 267.63873 202.65805 C 272.581 211.09746 277.3204 211.55294 281.12865 204.08987 C 282.39987 201.56776 283.50245 198.31197 283.47495 196.86083 C 283.39245 192.50744 284.90853 191.24075 287.81664 193.04995 C 305.5697 204.02463 318.058 222.59314 320.39375 241.25088 C 321.55893 250.63138 323.3924 259.11496 324.45256 260.6202 C 328.3234 265.79344 337.92537 258.4269 343.64564 246.0937 C 349.0074 234.6736 346.5669 233.82087 346.5669 233.82087 C 346.5669 233.82087 348.5727 235.06503 355.32826 234.59068 C 366.5567 233.72945 375.58866 229.33597 376.04414 224.59658 C 376.14697 222.63453 373.16265 220.3036 370.27662 220.0488 C 366.55906 219.85396 361.27 216.0561 350.8055 206.2918 C 347.34813 203.10767 335.5128 187.88695 335.57233 186.75103 C 335.58857 186.44123 333.78347 183.3437 331.4891 179.70278 C 329.298 176.06727 326.63926 171.47532 325.60076 169.557 C 322.6701 164.22595 321.2023 162.59579 319.24026 162.49296 C 317.48475 162.40096 309.88506 155.27197 309.27585 153.0655 C 309.1018 152.43509 306.25862 149.3867 303.0132 146.11014 C 299.7624 142.93684 294.44582 137.68785 291.29826 134.51996 L 285.49242 128.72758 L 288.4434 127.74319 C 290.1281 127.21018 292.93793 126.94324 294.68804 127.13851 C 296.32947 127.43163 300.09574 126.69707 303.05753 125.50615 C 317.11117 120.13326 317.5621 119.43205 307.60488 117.77117 C 304.21876 117.17952 297.6093 114.8657 292.85865 112.64929 C 284.2705 108.57497 274.22622 106.59888 262.62258 106.71561 C 260.34532 106.69981 257.3452 106.64613 255.9049 106.4671 C 248.99692 105.89797 209.8484 104.05338 201.67419 103.93564 C 190.70638 103.77503 177.85858 105.89754 173.79377 108.3768 C 170.14744 110.77443 167.67447 110.54128 167.80977 107.95964 C 167.8693 106.82372 166.83577 102.83468 165.58488 99.04135 C 163.43663 92.61225 163.04522 92.17754 159.94725 92.01519 C 157.15366 91.97233 155.2137 93.4239 145.2645 103.46451 C 139.032 109.76504 131.06606 117.52795 127.58838 120.65927 C 124.11611 123.68733 120.59513 127.64477 119.57915 129.24832 C 118.67184 130.754 117.03627 132.32508 115.98738 132.58076 C 114.8298 132.93429 113.417 134.20639 112.72705 135.51637 C 112.03169 136.92962 108.20632 140.76756 104.29934 144.18703 C 100.2891 147.60109 93.89335 153.06466 89.99178 156.38087 C 86.0848 159.80034 81.99835 162.69265 80.94945 162.94833 C 79.90056 163.204 78.78131 164.80214 78.28707 166.32948 C 77.8961 167.86223 75.21748 171.55317 72.37021 174.51043 C 62.19284 184.95328 61.05195 186.96448 61.026644 195.35064 C 61.0167 199.4921 60.3363 201.06327 58.57498 205.33116 C 56.81366 209.59905 55.77685 212.58595 54.49824 215.20062 C 52.708185 218.86116 52.385095 219.9567 44.480447 234.45353 C 40.80252 241.40568 40.581073 247.60703 43.918924 251.09553 Z"
                        fill="black"/>
               </g>
            </g>
            <g>
               <path d="M 48.623215 240.36585 L 48.623215 240.36585 C 46.38472 243.5621 44.575523 246.47023 44.55929 246.78002 C 44.548464 246.98656 45.55406 247.557 46.67375 247.92633 C 50.84811 249.28414 65.36849 240.93278 68.76953 235.31226 C 75.24016 224.46805 77.95449 221.23063 80.46784 221.04014 C 81.80758 220.8603 85.45673 219.20472 88.45685 219.2584 C 91.3537 219.30667 93.18947 218.44776 98.80965 215.59428 C 103.10539 213.08058 109.00862 204.49243 111.84506 201.7417 C 115.76828 198.01243 118.11589 196.68578 120.93112 196.31557 C 124.88769 195.90163 133.94128 191.0951 136.37548 188.11618 C 139.03245 184.8383 169.04722 173.26055 174.2105 173.53115 C 175.75948 173.61232 178.28116 172.91609 179.781 171.9592 C 185.23696 168.6209 190.9707 167.8859 199.49845 169.16122 C 203.91723 169.807 207.92835 170.32786 208.54794 170.36033 C 209.06427 170.38739 216.41237 170.46184 224.78772 170.69367 C 233.375 170.83307 238.2134 169.5931 242.22835 169.84736 C 246.01204 169.95753 254.19635 170.68167 258.00094 171.19171 C 265.2079 171.9836 275.7332 176.00522 280.7207 178.28472 C 285.7082 180.5642 293.8722 183.69371 297.79445 186.41502 C 301.7167 189.13633 307.7543 195.00475 309.19307 196.13768 C 310.10178 196.85321 317.5377 204.85895 318.09235 206.1306 C 318.74486 207.51094 320.36508 210.18459 321.70797 212.2224 C 324.39917 216.19477 325.83084 226.41763 326.55956 228.3197 C 327.28827 230.22178 327.99036 234.60765 328.12156 238.03165 C 328.5472 245.7166 330.46727 252.54794 332.3044 253.05842 C 334.34807 253.57972 336.55234 243.1332 336.88656 230.82836 L 337.22664 220.3877 L 340.81973 222.95764 C 343.61916 224.8647 345.9672 225.5055 351.33703 225.78691 C 355.8807 226.02504 364.47263 225.5822 364.5105 224.85935 C 364.61334 222.8973 356.12353 219.22954 355.32475 218.851 C 354.3118 218.46303 349.79797 216.3097 348.5881 215.01252 C 347.9832 214.36393 346.18734 213.40176 343.18138 211.4839 C 335.77243 206.64298 326.95433 195.10107 322.64204 184.52014 C 320.35264 178.8085 313.38835 169.43472 311.4263 169.3319 C 309.98058 169.25613 309.52422 170.0606 309.3727 172.95205 C 309.2049 176.15328 308.97674 176.55552 307.6938 175.34925 C 306.90557 174.5831 306.25307 173.20275 306.3072 172.1701 C 306.3613 171.13744 305.7088 169.7571 304.92056 168.99095 C 303.14296 167.34455 303.72876 162.09423 303.0767 162.68136 C 302.31595 163.36633 301.16336 161.64914 299.39614 157.82875 C 296.52503 151.36177 295.25293 149.94896 293.80224 151.94392 C 292.5689 153.74317 292.1355 160.03697 293.3747 160.10191 C 293.89103 160.12897 294.4078 162.12349 294.69638 164.52025 C 294.97956 167.02027 295.33894 170.04204 295.5838 171.29746 C 295.9973 173.28657 295.77994 173.48227 293.63842 172.8523 C 289.96956 171.72807 288.5996 170.20659 289.9254 168.61928 C 291.13167 167.33636 290.766 160.48294 289.4285 158.34186 C 289.04792 157.70062 288.52574 155.80936 288.30795 154.03761 C 287.79615 149.97237 282.50035 140.37539 280.74483 140.28339 C 279.9187 140.24009 279.5061 142.1859 279.38746 146.4252 C 279.1985 152.00697 279.07357 152.41462 277.82312 150.58874 C 277.05652 149.40953 276.52352 147.7248 276.57764 146.69215 C 276.62635 145.76276 275.89764 143.86068 274.93534 142.4641 C 273.97303 141.06753 272.3907 137.67103 271.3955 134.92659 C 270.2262 131.55173 268.97576 129.72586 267.34516 129.22621 C 264.18722 128.23231 262.79065 129.19462 263.9162 131.42814 C 265.12875 133.97687 266.4459 142.43339 266.24566 146.25422 C 266.00212 150.90118 264.3386 149.05366 262.72293 142.34183 C 261.36833 136.57562 252.67427 120.69114 250.81548 120.59373 C 249.67956 120.5342 249.82115 121.78421 251.58383 129.64278 C 252.8568 134.99051 251.86292 138.14845 249.6939 136.06734 C 248.90566 135.30119 248.24774 134.02412 248.29104 133.19799 C 248.44257 130.30655 241.47784 118.96532 239.80935 119.18853 C 237.7224 119.49335 237.07705 125.87959 238.65983 131.24355 C 239.35607 133.76522 239.36192 135.62942 238.6828 136.73287 C 236.7595 139.8421 235.88965 138.65747 234.89897 131.87485 C 233.43482 122.27158 231.49895 117.7175 227.97124 115.87584 C 226.3623 114.96312 224.84036 114.36561 224.623 114.56132 C 224.41106 114.65376 224.61804 116.63204 225.12398 118.8331 C 226.77799 126.78953 226.6819 134.55069 224.7311 136.20879 C 223.85627 137.09488 222.6933 137.55168 222.1932 137.21482 C 221.6931 136.87797 221.1759 132.91599 221.00096 128.35065 C 220.84226 123.47552 220.21637 119.61139 219.42813 118.84524 C 218.63448 118.18235 218.3788 117.13345 218.82433 116.53551 C 219.26987 115.93756 218.86763 115.70938 217.71006 116.06291 C 216.75902 116.42727 215.123 116.03088 214.01955 115.35176 C 211.5245 113.56421 210.64967 114.4503 211.81353 117.92843 C 212.96657 121.61308 212.7068 126.56983 211.32105 127.3256 C 210.57654 127.70078 210.53324 128.5269 211.18575 129.90724 C 212.5832 132.87986 212.10022 136.16813 210.3447 136.07612 C 208.79572 135.99495 208.43678 134.94064 209.03384 131.45126 C 209.19123 130.42401 208.45125 126.761 207.2874 123.28288 C 205.86244 118.85913 204.62823 116.72347 202.9106 115.9086 C 197.1381 113.43154 196.01344 115.13294 199.30303 121.5183 C 200.81457 124.2898 201.13022 126.17023 200.47318 128.82808 C 199.2786 133.83939 196.93055 133.19858 196.38585 127.78547 C 196.09726 125.38871 195.25402 121.7203 194.43286 119.60628 L 193.0787 115.80753 L 188.66578 117.02595 C 183.19855 118.60331 183.4105 118.51087 185.11775 121.49973 C 186.2487 123.62998 186.71763 130.48881 186.06147 137.08158 C 185.89868 138.21209 185.03467 138.89165 183.79548 138.82671 C 181.6269 138.71306 181.32749 136.52283 182.17892 128.17996 C 182.87881 122.72853 179.1712 118.39225 174.67665 119.19219 C 170.18752 119.88887 168.63897 121.77515 170.13969 124.75318 C 172.18423 129.2094 170.03 144.6289 167.6815 142.02064 C 167.38794 141.6946 166.98526 139.49896 166.79994 137.10762 C 166.53797 132.22707 162.40515 122.1733 160.85616 122.09212 C 159.10065 122.00011 152.44338 124.5506 152.40008 125.37673 C 152.37843 125.78979 153.04176 126.9636 153.91703 128.04496 C 155.66758 130.20769 157.90285 136.95199 157.86 139.74557 C 157.676 143.2566 155.18635 141.3658 152.8699 136.17048 C 149.7377 128.75787 146.8837 125.91602 143.81864 127.10153 C 136.84075 129.84231 133.25936 131.00076 131.91691 130.9304 C 131.19405 130.89252 130.13975 131.25147 129.79748 131.85482 C 129.46062 132.35492 129.7596 132.57768 130.70522 132.3166 C 132.81383 131.5987 141.00605 139.2765 141.36543 142.29826 C 141.61028 143.55368 141.4096 145.40705 140.94242 146.41806 C 140.23082 148.1411 140.0297 148.02702 138.3008 145.45123 C 137.34933 143.84812 135.12575 140.8322 133.3698 138.77275 L 130.35798 134.99068 L 126.52676 136.96443 C 124.39651 138.09538 122.13051 139.84051 121.45139 140.94396 C 120.77226 142.04741 119.70714 142.61289 118.89725 142.2598 C 117.88083 141.89588 117.7505 142.4068 118.164 144.3959 C 118.81695 147.7437 119.9204 148.42282 127.48088 150.37229 C 130.7529 151.16507 133.3837 152.33843 133.35664 152.85476 C 133.32958 153.37109 133.92752 153.81662 134.75365 153.85992 C 136.81896 153.96816 137.37719 158.22914 138.09243 160.57145 C 139.09338 164.03074 138.51934 174.87068 135.10704 178.73027 C 133.89535 180.11646 131.55359 183.30731 129.86389 185.91104 C 126.94086 190.31402 122.52296 193.60316 119.73479 193.45704 C 119.01193 193.41916 120.12576 191.9243 122.18523 190.16834 C 124.24469 188.41238 127.35802 184.33002 129.18345 181.11211 C 132.0411 175.98086 132.43208 174.44811 132.0939 169.04582 C 131.66782 159.3934 126.07933 153.40532 117.11145 152.62468 C 111.23613 152.10967 110.19309 154.22954 115.02537 156.86443 C 118.34655 158.69527 121.57031 162.3849 123.41915 166.62376 C 124.06624 168.10737 125.09933 170.12894 125.7789 170.99295 C 127.80136 173.89478 127.72603 177.30796 125.77568 180.93352 C 124.63479 182.94471 123.42851 184.22763 123.15118 183.5918 C 122.86845 183.05924 123.02583 182.032 123.58004 181.3362 C 124.13967 180.53713 123.82402 178.6567 122.79092 176.63512 C 121.85027 174.82549 120.59938 171.03215 120.01723 168.30936 C 118.79296 162.03224 115.39558 159.67966 106.82453 159.23047 C 101.24277 159.0415 100.61235 159.21555 97.5369 162.57505 C 95.77642 164.55377 93.51042 166.2989 92.46153 166.55458 C 91.5159 166.81567 88.67946 169.5664 86.24526 172.5453 C 83.81106 175.52422 81.61044 177.99762 81.19738 177.97597 C 80.78432 177.95432 78.6839 179.69131 76.69876 181.81746 C 74.91919 183.93656 73.13944 187.4944 73.32974 187.81503 C 74.06386 189.61384 65.916554 212.69255 63.73218 214.85615 C 63.18879 215.34542 60.77353 222.20234 59.954755 223.45988 C 58.00228 226.45862 57.252174 230.42993 54.572984 233.53276 C 53.39545 234.8499 50.763856 237.0609 48.623215 240.36585 Z"/>
            </g>
            <g>
               <path d="M 62.85399 249.3956 L 62.85399 249.3956 C 55.71374 255.23435 53.687185 258.33817 56.88842 258.50594 C 57.714546 258.54924 62.01294 255.56448 66.240545 251.9547 C 70.576825 248.2471 76.097735 243.66962 78.5865 241.6255 C 81.94468 238.79858 91.48514 229.88853 91.16949 228.0081 C 90.64146 224.25265 80.5247 232.3041 75.14538 238.1316 C 72.51006 240.9964 66.96209 246.09022 62.85399 249.3956 Z"/>
            </g>
            <g>
               <path d="M 146.31897 114.90378 C 146.84845 113.55513 148.27703 112.55947 149.49714 112.62341 C 150.71726 112.68735 151.6883 111.66771 151.75224 110.4476 C 151.81619 109.22748 152.93974 108.21583 154.15985 108.27977 C 157.51517 108.45561 156.79322 110.55885 151.93803 115.65707 C 145.95928 121.76694 143.38252 121.32603 146.31897 114.90378 Z"/>
            </g>
            <g>
               <path d="M 165.28225 188.56744 C 166.10838 188.61074 166.78253 189.57801 166.723 190.71393 C 166.61476 192.77925 165.44637 193.3393 164.27754 191.93191 C 163.00003 190.62237 163.73327 188.48626 165.28225 188.56744 Z"/>
            </g>
            <g>
               <path d="M 176.8543 184.33528 C 177.48473 184.16122 178.73518 185.9871 179.74662 188.42173 C 180.9213 191.69332 181.05748 193.0466 180.22054 193.20984 C 178.11734 193.82446 177.42695 193.16698 176.36094 189.79754 C 175.2079 186.11288 175.38153 184.77584 176.8543 184.33528 Z"/>
            </g>
            <g>
               <path d="M 274.72336 115.08946 C 280.2535 115.37928 288.47553 118.91666 286.0915 120.03431 C 282.79386 121.51828 277.27455 121.02192 273.27438 118.84485 C 266.9984 115.7201 267.4093 114.70615 274.72336 115.08946 Z"/>
            </g>
            <g>
               <path d="M 272.24014 182.8319 C 273.29247 183.48947 275.102 193.27762 274.3896 194.41765 C 273.51285 195.82076 270.98053 192.65322 270.1033 189.17861 C 269.0945 185.13404 270.31086 181.62635 272.24014 182.8319 Z"/>
            </g>
            <g>
               <g  id="outline-1">
                  <path 
                        d="M 79.4679 197.1455 C 80.06585 197.59104 81.4516 196.83527 82.6687 195.34581 C 83.8858 193.85636 85.70626 192.70917 86.84218 192.7687 C 89.52709 192.90942 89.23397 194.55084 86.02776 196.4538 C 83.14217 198.16646 82.49055 200.72104 84.34977 202.78592 C 86.99182 205.7202 92.07305 203.60487 95.36 198.18547 C 96.2673 196.67978 98.33758 194.7173 100.14722 193.77664 C 103.01657 192.37378 103.36967 191.5639 103.48288 187.42785 C 103.92622 176.9926 100.24566 172.14 92.43579 172.9733 C 86.71288 173.50176 86.15326 174.30083 88.95854 178.07207 C 91.57354 181.5227 90.73702 183.65339 87.12273 183.46397 C 85.36721 183.37197 81.76505 188.8784 81.60811 191.8731 C 81.5594 192.8025 80.79866 193.48747 79.97253 193.44418 C 78.11375 193.34676 77.76651 196.02084 79.4679 197.1455 Z"
                        fill="black"/>
               </g>
            </g>
            <g>
               <g  id="outline-2">
                  <path 
                        d="M 143.69388 176.9022 C 145.26993 176.46706 146.22053 174.13524 144.87808 174.06488 C 144.36175 174.03783 143.49774 174.7174 143.13923 175.63054 C 142.67205 176.64155 142.9602 177.07085 143.69388 176.9022 Z"
                        fill="black"/>
               </g>
            </g>
            <g>
               <g  id="outline-3">
                  <path 
                        d="M 150.1825 173.61803 C 152.05753 173.40565 154.49217 172.3942 155.68221 171.42108 C 158.9263 168.79526 163.0186 167.76714 170.99712 167.66753 C 174.93204 167.66665 178.99729 167.15486 180.057 166.69265 C 181.54602 165.94229 181.45899 165.62708 179.04014 164.36127 C 177.02354 163.32364 175.3767 163.13378 172.43655 163.91164 C 167.71924 165.01056 161.25724 165.81094 157.01252 165.79558 C 152.77322 165.67696 150.20284 167.3026 148.35576 170.93356 L 146.84554 174.06445 L 150.1825 173.61803 Z"
                        fill="black"/>
               </g>
            </g>
            <g>
               <g  id="outline-4">
                  <path 
                        d="M 197.38238 136.43229 C 197.8987 136.45935 198.4421 135.97008 198.47456 135.35049 C 198.50162 134.83416 197.99612 134.60057 197.46355 134.8833 C 196.82772 135.16063 196.3876 135.65531 196.37137 135.96511 C 196.36054 136.17164 196.76278 136.39982 197.38238 136.43229 Z"
                        fill="black"/>
               </g>
            </g>
            <g>
               <g  id="outline-5">
                  <path 
                        d="M 250.94523 141.82813 C 251.4778 141.5454 252.03742 140.74633 252.06448 140.23 C 252.09695 139.6104 251.58603 139.48008 251.05347 139.76282 C 250.41764 140.04015 249.96128 140.84462 249.93422 141.36095 C 249.90175 141.98055 250.3094 142.10546 250.94523 141.82813 Z"
                        fill="black"/>
               </g>
            </g>
            <g>
               <g  id="outline-6">
                  <path 
                        d="M 255.3463 160.59411 C 256.7379 161.70253 259.8034 162.48449 263.31444 162.6685 C 266.82547 162.8525 269.89097 163.63445 271.28257 164.74287 C 272.47846 165.63394 274.0058 166.12818 274.64163 165.85086 C 275.1796 165.46485 277.02215 165.87206 278.64193 166.57825 C 280.2563 167.3877 282.51732 167.7133 283.46836 167.34894 C 285.15308 166.81594 285.1639 166.6094 283.87557 165.5064 C 282.98406 164.73482 281.74444 162.70242 281.119 160.80576 C 280.49355 158.9091 279.13442 157.18107 278.22126 156.82257 C 277.3027 156.56733 271.3241 156.0469 264.92164 155.71137 C 254.4864 155.26803 253.34506 155.31176 253.25306 157.06728 C 253.19894 158.09994 254.15042 159.70304 255.3463 160.59411 Z"
                        fill="black"/>
               </g>
            </g>
         </g>
      </g>
   </g>
</svg>