<?xml version="1.0" encoding="utf-8"?>
<svg xmlns="http://www.w3.org/2000/svg" xmlns:dc="http://purl.org/dc/elements/1.1/"
     xmlns:xl="http://www.w3.org/1999/xlink"
     xmlns:xlink="http://www.w3.org/1999/xlink"
     version="1.1"
     viewBox="63 76.5 292.5 207"
     width="292.5"
     height="207"
     preserveAspectRatio="xMidYMid meet"
     zoomAndPan="magnify"
     contentScriptType="application/ecmascript"
     contentStyleType="text/css">
   <defs/>
   <metadata  xmlns:svg="http://www.w3.org/2000/svg"
             xmlns:rdf="http://www.w3.org/1999/02/22-rdf-syntax-ns#"
             xmlns:cc="http://creativecommons.org/ns#">
      <rdf:RDF>
         <cc:Work rdf:about="">
            <dc:creator>
               <cc:Agent>
                  <dc:title>http://heraldicart.org Lucy, Winged.svg</dc:title>
               </cc:Agent>
            </dc:creator>
         </cc:Work>
      </rdf:RDF>
   </metadata>
   <g stroke-dasharray="none" stroke="#505050" fill-opacity="1" fill="#ffff00"
      stroke-opacity="1">
      <title>Lucy, Winged</title>
      <g>
         <title>Art</title>
         <g>
            <g>
               <g  id="outline-0">
                  <path 
                        d="M 314.3627 79.47092 C 295.56853 83.69251 259.4821 85.84389 236.0198 84.13902 C 231.55467 83.81428 224.53223 83.53014 220.39183 83.53014 C 216.25142 83.53014 211.05563 83.32718 208.82306 83.12422 C 206.59049 82.92126 197.86317 82.51534 189.42 82.23119 C 173.10195 81.70349 162.75094 82.02823 155.44435 83.32718 C 147.16355 84.7885 132.67214 89.70015 122.80825 94.36825 L 116.35409 97.45325 L 113.63442 96.92556 C 109.12868 96.07312 105.3942 96.92556 101.13203 99.84819 C 96.6263 102.8926 93.62248 105.69346 91.71464 108.69729 C 90.61866 110.36156 89.27911 112.30999 88.71082 113.00006 C 87.00595 115.11085 85.86937 119.04829 86.31588 121.32145 C 86.92477 124.40646 92.89182 128.3439 97.68169 128.831 C 99.79249 129.07456 100.48255 128.95278 102.06565 128.18153 C 104.25762 127.12613 104.78532 126.15192 105.55657 121.97093 C 106.04368 119.33243 106.04368 119.21066 105.11006 118.23645 C 104.3794 117.4246 103.81111 117.26223 102.55275 117.34342 C 101.37558 117.38401 100.84788 117.22164 100.48255 116.69394 C 100.11722 116.08506 100.239 115.80092 101.17262 114.94848 C 101.7815 114.42078 102.67453 113.97427 103.12104 113.97427 C 105.11006 113.97427 110.30586 117.87112 111.92954 120.59079 C 113.1879 122.6204 113.35027 124.44705 113.26909 135.48812 C 113.2285 144.98669 113.30968 146.04208 114.04034 148.07169 C 114.52744 149.28946 115.05514 150.83196 115.2987 151.52203 C 116.11054 154.07933 117.8966 155.41887 121.71226 156.39309 C 127.35457 157.81381 130.72372 160.41171 133.76813 165.56692 C 136.69077 170.55975 137.29965 172.50818 137.0155 175.79614 C 136.69077 179.32766 137.38084 183.54925 138.5986 185.66004 C 140.01933 188.09557 142.65782 190.5311 145.58045 192.19538 C 147.00118 192.96663 148.05658 193.73788 147.9348 193.85966 C 147.81302 194.02203 144.36269 194.225 140.30347 194.38736 C 133.68695 194.6309 132.50978 194.79328 129.05944 195.88927 C 126.90806 196.53874 124.51312 197.39118 123.70127 197.71592 C 121.63107 198.56835 119.15495 200.9633 117.49067 203.64237 C 115.66402 206.68679 114.89277 207.01152 112.25428 205.99672 C 110.46823 205.30665 109.53461 205.22547 105.35361 205.46902 C 101.41617 205.67198 100.11722 205.91553 98.29058 206.72738 L 96.0986 207.74218 L 94.23136 206.44323 C 91.55228 204.61658 88.54845 204.41362 84.36746 205.87494 C 82.66259 206.44323 80.99831 206.93034 80.59239 206.93034 C 80.22706 206.93034 78.92811 206.0373 77.79153 204.94132 C 74.26001 201.65336 70.972044 200.55737 68.09 201.77513 C 64.639666 203.19586 64.35552 206.28086 67.11579 211.88258 C 68.21178 214.11515 69.104805 216.67246 69.34836 218.17437 C 69.95724 222.03063 70.07902 222.1524 74.42238 223.1672 C 79.61818 224.34438 79.73995 224.46616 79.73995 228.07886 C 79.73995 230.4738 79.61818 231.08268 78.9687 231.448 C 71.13441 236.07552 66.303945 241.59605 67.11579 244.84343 C 67.39993 246.0612 72.43336 248.98383 74.99067 249.38975 C 75.92429 249.51153 80.26765 249.43034 84.6922 249.1868 C 91.51168 248.74027 93.78484 248.78087 99.83308 249.30856 C 103.72993 249.6739 108.84454 249.95804 111.19889 249.95804 C 113.55323 249.95804 117.3689 250.24218 119.72324 250.6075 C 122.07759 250.93225 125.81207 251.1758 128.04464 251.1352 C 130.2772 251.1352 134.86412 251.37877 138.19268 251.7035 C 144.8092 252.39357 145.05276 252.47475 152.6029 256.8993 L 155.64731 258.68536 L 163.4816 258.9695 C 171.2753 259.29424 179.35314 260.39023 181.99163 261.48622 C 182.6817 261.77036 184.46775 262.82576 185.92907 263.84056 C 190.23184 266.7632 198.2691 268.3057 203.54607 267.2097 C 208.86365 266.07313 209.71608 266.35728 214.8307 271.10656 C 217.9563 273.9886 222.82736 280.1992 222.82736 281.2952 C 222.82736 281.49816 223.0709 281.61993 223.31446 281.53875 C 223.5986 281.41697 223.96394 280.48335 224.1263 279.38736 C 224.36986 277.7231 224.6946 277.1954 226.6836 275.44992 C 229.20033 273.17676 229.8904 272.04018 230.3369 269.52347 C 230.62105 267.8592 230.74283 267.69682 232.85362 266.7632 C 234.11198 266.2355 235.45152 265.789 235.89803 265.789 C 236.34455 265.789 238.04942 265.2613 239.7137 264.57122 C 243.4076 263.1099 250.0647 262.33865 256.47826 262.6634 C 262.12058 262.94753 263.5007 263.39405 266.1798 265.91076 C 268.94006 268.54925 269.50835 269.64524 269.50835 272.4867 C 269.50835 275.20637 269.63013 275.16578 273.60816 271.55307 C 277.22086 268.22452 278.6416 265.2207 278.6416 260.91793 C 278.6416 258.84773 278.39804 257.427 277.91093 256.49338 C 277.5456 255.72213 277.30205 255.03206 277.38323 254.91028 C 277.505 254.8291 279.53462 254.58555 281.97015 254.3826 C 285.42048 254.09844 288.18075 254.22022 294.87846 254.8291 C 317.81303 257.02108 322.76528 258.27943 327.7581 263.1099 C 332.87273 268.06215 333.4816 274.15097 329.3006 278.25078 C 327.9205 279.54973 327.55516 280.1586 327.8799 280.48335 C 328.52937 281.13283 333.0757 279.83388 337.05372 277.84486 C 345.25334 273.74505 349.35315 266.1949 349.75907 254.3826 C 350.1244 245.28994 348.6225 241.75842 341.803 235.38545 C 339.44866 233.19347 336.89136 231.0015 336.1201 230.55498 L 334.78056 229.74314 L 337.82498 227.71353 C 341.47827 225.19682 344.64446 221.78707 346.18696 218.4991 C 349.88085 210.7866 350.81447 208.43225 351.95105 203.80474 L 353.25 198.73072 L 352.60053 193.77848 C 351.42335 185.17294 349.75907 181.7226 344.60387 177.41983 C 339.12392 172.79232 332.548 170.15383 329.05707 171.12804 C 327.9205 171.41219 327.9205 171.45278 330.356 172.9547 C 333.5222 174.9843 334.0499 176.28325 334.0499 181.92556 C 334.0499 185.78182 333.9687 186.26892 332.79155 188.62327 C 331.33023 191.5865 327.63634 195.6863 325.56614 196.7823 C 322.6841 198.24361 320.6545 198.56835 305.75716 200.11085 C 299.99307 200.67914 272.10625 199.94849 266.26098 199.01487 C 264.1502 198.69013 259.76623 198.2842 256.51886 198.12184 C 251.1607 197.87828 250.83595 197.7971 253.06852 197.51296 C 256.51886 197.06644 259.15735 196.09223 260.61867 194.7121 C 261.71465 193.6973 261.87702 193.29137 261.71465 191.91124 L 261.59288 190.32814 L 263.41953 190.044 C 268.2906 189.39452 269.91427 188.5015 269.91427 186.4313 C 269.91427 185.3353 269.58954 184.8076 268.25 183.63043 C 266.34216 182.04734 266.30157 182.04734 270.44197 181.60082 C 273.08046 181.27609 276.20606 179.85536 277.42382 178.43463 C 278.68218 176.97332 278.72277 175.18726 277.6268 173.11706 L 276.81494 171.61515 L 278.6416 171.61515 C 280.46824 171.61515 282.09192 170.64094 282.09192 169.46376 C 282.09192 168.32718 279.6564 163.94323 278.1545 162.36014 L 276.5308 160.65526 L 279.73758 160.65526 C 283.2285 160.65526 285.42048 159.9652 286.11055 158.70684 C 287.12535 156.799 286.3135 153.7546 284.3651 152.25268 L 283.39087 151.44084 L 285.3393 150.95374 C 287.3689 150.42604 288.70845 149.33005 289.19555 147.74695 C 290.4945 143.48478 279.98113 134.5545 268.2094 129.96758 C 266.01743 129.11515 264.31255 128.38449 264.35315 128.3439 C 264.43433 128.26271 270.60434 129.23692 273.3646 129.76462 C 274.5012 129.96758 277.505 130.53587 280.0623 130.98239 C 282.61962 131.4289 286.3947 132.20015 288.3837 132.64667 C 290.41332 133.09318 293.6607 133.82384 295.6497 134.27035 C 300.8455 135.40693 309.6946 138.45135 314.3627 140.7245 C 319.5585 143.20063 322.2376 145.27083 325.44436 149.12709 C 326.8245 150.83196 327.96108 151.96854 327.96108 151.6844 C 327.9205 150.50722 326.7839 148.0311 325.6879 146.56978 C 325.03844 145.71735 324.2266 144.21543 323.90186 143.16004 C 322.7247 139.7503 319.72087 134.96042 316.9606 132.20015 C 314.03796 129.27752 310.1817 127.08554 306.0413 126.11133 C 304.82354 125.82718 303.72755 125.46185 303.60578 125.34008 C 303.484 125.2183 301.4138 124.60942 298.93768 124.04113 C 289.3985 121.80856 285.62344 120.71257 286.3947 120.38783 C 301.12965 114.54256 305.96012 112.06644 309.6134 108.45373 C 311.846 106.18057 312.17072 105.69346 312.04895 104.55688 L 311.92717 103.21734 L 302.18505 102.97379 C 292.84885 102.77083 282.49785 101.91839 282.49785 101.3501 C 282.49785 101.22833 284.2433 100.98477 286.3541 100.8224 C 288.5055 100.70063 292.36174 100.17293 295.00023 99.72642 C 297.59813 99.2799 301.12965 98.71161 302.79393 98.50865 C 306.48782 98.02154 311.15592 96.47904 314.15974 94.77417 C 316.92 93.23167 321.0198 89.17245 322.0752 86.98047 C 323.04942 84.95087 323.33357 80.85106 322.6029 79.47092 C 321.87225 78.09079 320.6545 78.09079 314.3627 79.47092 Z"
                        fill="black"/>
               </g>
            </g>
            <g>
               <path d="M 321.46633 81.58172 C 321.42574 85.84389 316.14876 91.32384 309.7352 93.71877 C 305.18887 95.42365 293.5795 97.69681 285.13634 98.50865 C 281.1989 98.91457 262.973 100.09175 259.03557 100.21352 C 258.22373 100.25411 260.09097 100.57885 263.21657 100.98477 C 266.34216 101.3907 269.99546 101.99958 271.2944 102.36491 C 273.77053 103.01438 276.9773 103.4609 284.7304 104.27274 C 294.79727 105.28754 296.7863 105.36873 303.32163 105.12517 C 307.0561 104.9628 310.10052 104.88162 310.10052 104.9628 C 310.10052 106.13998 305.96012 109.34676 301.61676 111.53874 C 298.8971 112.87828 292.93003 115.27322 289.80444 116.28802 C 286.3541 117.34342 278.96633 118.80474 277.9921 118.60178 C 276.0031 118.15526 275.75955 117.91171 277.0179 117.66816 C 277.95152 117.4652 277.34264 117.26223 274.3794 116.85631 C 272.26862 116.57217 269.7113 116.16624 268.6965 115.96328 C 266.74808 115.51677 257.24952 111.78229 258.9544 112.10703 C 266.01743 113.48716 274.29823 114.21782 278.0327 113.7713 C 279.37225 113.60894 280.46824 113.40598 280.38705 113.36538 C 280.30587 113.2842 276.69317 112.91887 272.3498 112.55354 C 260.13156 111.53874 257.899 111.09222 243.16403 106.78945 C 237.72468 105.16577 236.5475 104.9628 234.19316 105.12517 L 231.4735 105.32814 L 232.04178 103.4609 C 233.17836 99.76701 231.3923 95.34246 228.06375 93.63759 C 225.91236 92.5416 221.97492 92.66338 220.14827 93.88114 L 218.9711 94.65239 L 220.79775 95.01772 C 222.82736 95.42365 223.6392 96.1543 223.35505 97.37207 C 222.94913 98.91457 220.10768 99.68582 215.72373 99.36109 L 214.10004 99.23931 L 215.92669 98.95516 C 218.4434 98.58983 217.4692 98.34628 210.6497 97.57503 C 202.9372 96.7226 199.93337 96.76319 196.76718 97.7374 C 195.38705 98.18391 194.0881 98.54924 193.96632 98.54924 C 193.80395 98.54924 194.1287 97.69681 194.6564 96.64141 C 195.30586 95.42365 195.6306 94.04351 195.6306 92.78515 L 195.6306 90.79614 L 192.42382 93.31285 C 190.63776 94.65239 189.01408 95.6672 188.81112 95.54542 C 188.60816 95.42365 187.3092 95.87016 185.88848 96.56023 C 184.50835 97.2097 182.80347 97.85918 182.07282 98.02154 C 181.01742 98.18391 181.17979 98.06214 182.88466 97.16911 C 184.91427 96.11371 186.8221 94.49003 186.01026 94.49003 C 185.7667 94.49003 184.87368 94.73358 183.98065 95.05832 C 183.08762 95.38305 180.93624 95.74838 179.15018 95.91075 C 172.3307 96.47904 164.21226 98.2245 159.8283 100.13234 C 158.8541 100.53826 156.90567 102.04017 155.44435 103.54208 C 152.27816 106.70827 148.17835 108.85965 140.62821 111.33578 L 139.00452 111.90407 L 141.03413 111.90407 C 142.17071 111.90407 143.7538 111.78229 144.56565 111.57933 C 146.96059 111.01104 146.02697 111.82288 141.88657 113.8119 L 138.19268 115.59795 L 140.38466 115.395 C 142.82019 115.19203 142.82019 115.23262 139.6134 117.38401 C 137.46202 118.84533 137.42143 118.88592 138.80156 118.64237 C 139.57281 118.48 140.7094 118.07408 141.35887 117.74934 L 142.45486 117.18105 L 142.2113 118.92651 C 142.00834 120.34724 141.60242 121.0373 139.89755 122.6204 L 137.78676 124.56882 L 139.69459 124.40646 C 141.27768 124.24409 141.60242 124.36586 141.76479 125.01534 C 141.88657 125.50244 141.56183 126.2737 140.87176 127.08554 C 139.36985 128.8716 137.5838 131.30712 137.5838 131.63186 C 137.5838 131.9566 141.52124 129.8864 141.84597 129.3993 C 141.96775 129.19633 142.2519 128.99337 142.49545 128.99337 C 143.06374 128.99337 142.94196 130.9418 142.2113 132.28134 C 141.39946 133.86443 141.64301 134.10798 142.98256 133.05259 C 144.8498 131.55068 144.52506 132.93081 142.61723 134.63568 C 140.42525 136.54351 140.62821 136.66529 143.46966 135.28516 C 144.60624 134.71687 145.62105 134.27035 145.824 134.27035 C 146.55467 134.27035 145.98638 135.52871 144.44387 137.27417 C 142.57663 139.42556 142.86078 139.58793 146.31111 138.28898 C 148.17835 137.59891 148.70605 137.55832 149.19316 137.96424 C 149.72086 138.41075 149.35553 138.73549 146.63585 140.2374 L 143.46966 141.98287 L 145.70223 141.7799 C 146.92 141.61754 148.34072 141.45517 148.86842 141.33339 C 150.005 141.08984 150.0456 141.49576 148.86842 141.94227 C 147.24473 142.55116 150.65448 143.3224 153.73948 143.07885 C 156.94626 142.8353 156.29679 143.3224 152.39994 144.13425 L 149.55849 144.70254 L 152.31875 145.23024 C 154.75428 145.67675 157.7581 145.55498 159.3412 144.9461 C 160.47778 144.49958 159.8689 145.51438 158.61054 146.20445 C 157.87988 146.56978 156.54034 147.34103 155.64731 147.86873 L 154.02363 148.88353 L 156.86508 148.63998 C 158.44817 148.5182 160.47778 148.15288 161.452 147.78755 C 164.13108 146.85393 163.9687 147.5034 161.20844 148.80235 L 158.69173 149.97952 L 160.84311 150.26367 L 162.9539 150.54781 L 161.33022 151.60321 L 159.70653 152.61801 L 164.37463 152.41505 C 167.622 152.29328 168.718 152.33387 168.02792 152.61801 C 167.45963 152.86157 166.1201 153.42986 164.98351 153.95756 L 162.9539 154.93177 L 164.5776 154.97236 C 166.16068 155.05354 166.16068 155.05354 163.40042 155.98716 C 160.07186 157.08315 160.43719 157.48907 164.61818 157.48907 L 167.6626 157.48907 L 166.93194 158.3821 C 166.52601 158.82862 166.0389 159.35631 165.87654 159.4781 C 165.67358 159.59987 165.91713 159.84342 166.40424 159.9652 C 167.1349 160.16816 167.21608 160.33053 166.85075 160.98 C 166.48542 161.67007 166.5666 161.75125 167.54082 161.5483 C 168.88036 161.30474 168.55562 161.67007 165.71417 163.5779 L 163.60338 165.03922 L 165.10529 165.28277 C 165.91713 165.40455 167.17549 165.52632 167.82496 165.52632 C 168.75858 165.52632 168.92095 165.6481 168.43385 165.93225 C 168.1091 166.1352 167.98733 166.33817 168.1903 166.33817 C 168.39325 166.33817 167.86556 166.86587 167.0943 167.51534 L 165.5924 168.69251 L 167.37845 169.17962 C 168.35266 169.42317 169.52984 169.54495 169.97635 169.42317 C 170.50405 169.22021 170.09813 169.86969 168.83977 171.16864 L 166.85075 173.19824 L 168.1497 172.9547 L 169.44865 172.71114 L 168.718 173.80713 C 167.98733 174.86252 167.98733 174.90312 168.92095 175.67437 C 169.44865 176.12088 170.05753 176.44562 170.34168 176.48621 C 170.62582 176.48621 170.7476 176.77036 170.62582 177.0951 C 170.46346 177.46042 169.85457 177.70398 169.00214 177.70398 C 168.23089 177.70398 167.622 177.86634 167.622 178.1099 C 167.622 178.31286 168.06852 178.51582 168.59622 178.51582 C 169.6922 178.51582 170.38227 179.1653 169.57043 179.40885 C 169.32687 179.49003 169.6922 179.81477 170.38227 180.09891 C 171.07234 180.38306 171.7624 180.99194 171.88418 181.39786 C 172.20892 182.41267 173.54846 183.2651 175.3751 183.58984 C 177.40472 183.95517 177.20176 184.76701 174.76623 186.10656 L 172.69602 187.24314 L 174.8474 187.36491 C 176.87702 187.48669 177.93241 188.25794 176.02458 188.25794 C 174.52267 188.25794 174.4009 188.74505 175.61866 189.71926 L 176.71465 190.61229 L 171.07234 190.61229 C 166.36365 190.61229 164.69937 190.77465 161.28962 191.6271 C 159.01646 192.19538 155.93146 192.76367 154.47014 192.92604 C 152.0752 193.21018 151.62869 193.129 150.85744 192.43893 C 150.37033 191.99242 148.4219 190.73406 146.55467 189.63807 C 142.61723 187.32432 139.81637 184.44228 139.16689 182.04734 C 138.88275 180.95135 138.76097 178.1099 138.92334 174.09127 L 139.1263 167.79949 L 137.0561 163.82145 C 133.88991 157.57026 130.3178 154.93177 122.97062 153.34867 C 118.66785 152.41505 117.40949 151.6844 116.39468 149.65479 C 115.05514 146.93511 114.771 144.05307 114.81159 133.66147 C 114.85218 124.52823 114.771 123.26987 114.04034 121.0779 C 112.98494 117.91171 110.22467 114.46137 107.09908 112.30999 C 104.70414 110.6863 104.33881 110.56453 100.52314 110.23979 C 96.74807 109.87446 94.35313 110.07742 91.9176 110.97045 C 90.45629 111.49815 94.10958 108.00722 99.2242 103.98859 C 104.46059 99.84819 107.18026 98.54924 110.34645 98.54924 C 112.82257 98.54924 116.3135 99.60464 116.88179 100.49767 C 117.24712 101.06596 117.28771 100.94418 117.12534 99.88878 C 116.92238 98.63043 116.96297 98.54924 118.62725 98.10273 C 119.56087 97.85918 120.9816 97.29089 121.83403 96.88496 C 123.98542 95.78898 145.58045 88.60416 150.4921 87.3864 C 152.80586 86.81811 156.66212 86.04685 159.01646 85.72212 C 165.5924 84.82909 182.43815 84.58554 195.22468 85.15383 C 201.3541 85.39738 211.50214 85.72212 217.79393 85.8033 C 224.04512 85.88449 231.18934 86.12804 233.62487 86.331 C 244.46298 87.3458 253.1497 87.58936 263.41953 87.18343 C 284.04035 86.37159 295.7715 85.43797 305.0265 83.89547 C 310.10052 83.08363 317.28534 81.45994 319.0308 80.72928 C 320.93863 79.95803 321.46633 80.16099 321.46633 81.58172 Z"/>
            </g>
            <g>
               <path d="M 192.5456 97.53444 C 191.36842 99.23931 191.16546 99.84819 191.4902 100.29471 C 191.77434 100.61944 191.85553 100.98477 191.69316 101.10655 C 191.57138 101.26892 192.34264 101.10655 193.43862 100.78181 C 196.92955 99.72642 204.56088 99.52345 209.43194 100.41648 C 211.78628 100.8224 215.07425 101.18773 216.73853 101.18773 C 219.90472 101.18773 219.86413 101.18773 223.96394 98.34628 C 224.45104 97.98095 224.85696 97.29089 224.85696 96.7226 C 224.85696 95.50483 224.97874 95.50483 226.48065 96.39786 C 229.44388 98.14332 230.49928 103.78563 228.42907 106.95182 C 227.90138 107.80426 227.17072 108.94084 226.88657 109.50913 C 226.44006 110.36156 226.44006 110.44275 226.92716 110.07742 C 227.90138 109.30617 232.65066 107.88544 234.19316 107.88544 C 236.83165 107.88544 246.61437 111.17341 256.7624 115.51677 C 266.78868 119.77895 271.53796 121.0373 291.0222 124.36586 C 291.79345 124.48764 293.45773 125.01534 294.6755 125.54304 C 295.89326 126.03014 299.18123 126.96376 301.9821 127.57264 C 308.35506 128.95278 311.48066 130.3735 314.4033 133.13377 C 316.27053 134.87924 319.112 138.57312 320.81686 141.45517 C 320.97922 141.73931 319.43672 141.17102 317.4477 140.19681 C 312.45487 137.76128 297.314 132.93081 288.78963 131.02298 C 287.00358 130.61706 283.7156 129.80521 281.48304 129.23692 C 279.25047 128.66863 275.9625 128.01916 274.17645 127.7756 C 272.3904 127.53205 267.6411 126.8014 263.6225 126.15192 C 259.60386 125.50244 253.39326 124.77178 249.82115 124.52823 C 246.24904 124.28468 241.41857 123.83817 239.06422 123.51343 C 236.70988 123.18869 233.90902 122.82336 232.77244 122.70158 C 229.07855 122.29566 212.63872 121.28086 202.69364 120.87494 C 195.1435 120.5502 192.30204 120.30665 190.31303 119.69776 C 187.51217 118.88592 183.85887 118.31763 183.85887 118.68296 C 183.85887 118.84533 184.50835 119.65717 185.2796 120.5096 C 186.41618 121.76796 186.70032 122.41744 186.70032 123.6758 C 186.70032 124.56882 186.49736 125.42126 186.2538 125.58363 C 185.96966 125.746 184.54894 125.82718 183.08762 125.82718 C 180.81446 125.78659 179.88084 125.50244 177.16116 124.1629 C 171.72181 121.48382 169.65161 118.76414 169.65161 114.46137 C 169.65161 112.2694 169.52984 111.90407 168.55562 111.13282 C 167.58141 110.40216 167.1349 110.28038 165.5924 110.52393 C 162.18265 111.09222 157.55514 110.36156 157.18982 109.22498 C 156.98685 108.6161 158.61054 106.70827 160.27482 105.69346 C 164.0499 103.37971 168.83977 102.20254 174.888 102.20254 C 176.75524 102.20254 179.39373 101.91839 180.77387 101.55306 C 183.94006 100.78181 190.06947 97.7374 192.18027 95.95134 C 193.0733 95.18009 193.88514 94.73358 193.92573 94.93654 C 194.00691 95.1395 193.39803 96.31667 192.5456 97.53444 Z"/>
            </g>
            <g>
               <path d="M 159.95008 111.94466 C 161.04607 111.94466 161.9391 112.02584 161.9391 112.06644 C 161.9391 112.14762 161.65495 112.83769 161.28962 113.56835 C 159.95008 116.20684 161.452 123.02632 164.0499 125.94896 C 165.0241 127.08554 167.05371 128.3033 170.2605 129.72403 C 170.50405 129.8458 170.38227 129.56166 170.01694 129.15574 C 169.65161 128.74982 169.12391 127.93797 168.83977 127.36968 C 168.31207 126.39547 168.31207 126.39547 169.65161 127.49146 C 171.2753 128.8716 175.4157 131.02298 176.4305 131.02298 C 176.83643 131.02298 178.5007 131.67245 180.1244 132.4437 C 181.74808 133.21496 183.04703 133.78325 183.04703 133.74265 C 183.04703 133.66147 182.1134 132.93081 181.01742 132.07838 C 179.88084 131.22594 178.41952 129.80521 177.68886 128.91219 L 176.38991 127.2885 L 177.81064 127.97857 C 179.5155 128.8716 188.81112 132.32193 188.97348 132.11897 C 189.05467 132.03778 187.8369 131.30712 186.2944 130.45469 C 183.29058 128.831 182.55992 128.18153 183.7371 128.18153 C 184.95486 128.18153 189.25763 126.96376 189.86651 126.43606 C 190.51599 125.90837 192.13967 125.98955 194.6158 126.63902 C 195.50882 126.88258 197.49784 127.12613 198.99975 127.16672 L 201.76002 127.2885 L 200.70462 126.47666 C 200.13633 126.03014 199.7304 125.54304 199.85219 125.46185 C 199.97396 125.34008 201.76002 125.66481 203.83022 126.15192 C 206.5093 126.8014 208.133 127.00435 209.22898 126.8014 C 210.40615 126.55784 210.6497 126.39547 210.2032 126.11133 C 209.6349 125.746 218.484 125.94896 220.79775 126.39547 L 221.81255 126.55784 L 220.79775 125.94896 C 219.82353 125.38067 219.82353 125.38067 221.81255 125.34008 C 222.94913 125.34008 226.39947 125.54304 229.52506 125.746 C 234.5179 126.11133 235.4921 126.31429 237.72468 127.41028 C 240.36317 128.66863 242.14923 130.4141 242.55515 132.07838 C 243.00166 133.78325 242.3116 135.97522 240.97206 137.31477 C 239.30778 138.97904 236.79106 139.54734 231.14875 139.54734 C 228.7944 139.54734 226.8054 139.7097 226.6836 139.95326 C 226.56184 140.15622 226.07473 140.35918 225.62822 140.35918 C 225.1817 140.35918 224.89756 140.52155 225.01933 140.7245 C 225.1411 140.88688 226.44006 141.17102 227.94197 141.2928 C 231.79823 141.57694 234.92382 143.24122 236.1416 145.63616 C 237.76527 148.92413 237.1564 151.60321 234.43672 152.90216 C 233.5031 153.34867 231.31112 153.91696 229.56566 154.2011 C 226.48065 154.7288 226.39947 154.7694 227.53605 155.2565 C 228.18552 155.54065 229.72802 155.74361 230.98638 155.7842 C 233.5437 155.7842 237.0752 157.3267 238.09 158.82862 C 239.47015 160.9394 236.66929 162.76606 230.8646 163.5373 C 228.99737 163.78086 227.2519 164.1462 226.96776 164.26797 C 226.64302 164.47093 228.02315 164.95803 230.29631 165.52632 C 234.96441 166.62231 235.6139 167.1906 235.32974 169.7885 C 234.96441 172.9547 233.5031 174.53779 229.07855 176.77036 L 225.1411 178.71878 L 226.92716 179.00293 C 227.90138 179.1247 229.8904 179.28707 231.3517 179.28707 C 232.81303 179.32766 234.19316 179.49003 234.4773 179.6524 C 235.32974 180.1801 235.73567 181.88497 235.32974 183.06214 C 234.84264 184.40168 233.62487 185.25412 230.17454 186.4313 C 228.71322 186.959 226.7648 187.64906 225.91236 187.9738 L 224.28867 188.58268 L 225.7094 188.86682 C 228.3479 189.39452 229.72802 189.9628 229.72802 190.4905 C 229.72802 190.81525 228.63204 191.78946 227.33309 192.72308 L 224.89756 194.34677 L 220.63538 194.34677 C 212.31398 194.34677 206.26575 195.80808 202.4095 198.73072 C 200.09574 200.4356 199.2433 201.8969 197.41666 206.93034 C 196.1583 210.2995 193.80395 213.18153 190.88132 214.927 C 189.9071 215.49529 189.13585 216.02298 189.13585 216.10417 C 189.13585 216.59128 192.87033 214.27752 196.40185 211.59844 C 199.36508 209.32528 200.54225 208.1481 201.11054 206.88975 C 202.81542 203.15527 209.02602 199.299 215.11484 198.24361 C 220.27005 197.35059 230.21513 196.98526 233.05658 197.55355 C 235.16738 198.00006 235.37034 198.12184 235.005 198.8119 C 234.43672 199.8673 231.63586 201.08507 228.10434 201.81573 C 226.44006 202.18105 224.2075 202.70875 223.19268 203.0335 C 222.1373 203.35823 220.22946 203.76415 218.9305 203.92652 C 216.73853 204.21066 216.65735 204.25126 217.75333 204.5354 C 218.4434 204.73836 221.0007 204.94132 223.43624 204.98191 C 227.7796 205.1037 227.98256 205.0631 230.66164 203.76415 C 233.4219 202.38402 235.12678 200.67914 235.6139 198.73072 C 235.81685 197.91888 235.73567 197.63473 235.12678 197.47236 C 234.72086 197.35059 235.77626 197.2694 237.44054 197.2288 C 239.10482 197.2288 241.33739 197.47236 242.39278 197.7565 C 243.44818 198.08125 246.16785 198.56835 248.4816 198.77131 C 259.9692 199.98908 261.9988 200.67914 254.48925 200.8821 L 251.0389 200.9633 L 254.08333 201.28803 C 255.7476 201.49099 258.9544 201.9375 261.18696 202.30283 C 263.41953 202.62757 267.35697 203.19586 269.91427 203.48 C 272.47158 203.80474 276.32784 204.33244 278.43863 204.69777 C 283.67502 205.5908 299.22182 205.95613 303.64637 205.34724 C 309.04513 204.576 313.51026 203.60178 314.20033 202.9929 C 314.52507 202.70875 315.74283 202.4652 316.8794 202.4652 C 319.5991 202.4652 324.7137 201.12566 327.2304 199.74552 C 330.3966 198.00006 334.6182 192.68249 336.0795 188.5015 C 336.6072 186.99958 336.85076 186.71544 336.85076 187.4461 C 336.89136 189.4757 335.633 193.6973 334.41523 195.48335 C 333.76576 196.45756 333.31924 197.39118 333.44102 197.51296 C 333.80635 197.91888 336.0389 195.48335 336.81017 193.77848 C 338.3121 190.61229 338.718 187.77083 338.1497 184.15813 C 337.6626 181.07313 336.1201 175.67437 335.22708 174.01009 C 334.69938 172.99528 334.90234 173.03588 337.41905 174.29423 C 341.19413 176.20207 341.96538 176.97332 342.53367 179.53062 C 343.18314 182.33148 342.8584 184.8482 341.3159 189.59748 C 339.7734 194.34677 337.33787 198.40598 334.33405 201.28803 C 331.9391 203.5612 331.37082 204.86014 333.31924 203.60178 C 338.92096 199.9079 344.3603 189.4757 344.4009 182.2503 C 344.4009 180.6672 344.5227 179.32766 344.64446 179.32766 C 345.17216 179.32766 346.4305 181.07313 346.91762 182.49385 C 347.6077 184.52346 347.5671 189.59748 346.83644 192.47953 C 345.9028 196.01104 342.8584 201.61276 340.3011 204.45422 C 338.02794 206.93034 333.35984 210.58363 332.4262 210.58363 C 332.18266 210.58363 332.0203 210.82719 332.14207 211.07074 C 332.66977 212.61324 337.1755 209.81238 341.60005 205.26606 C 346.22755 200.47618 349.0284 194.10321 349.1096 188.25794 L 349.1502 185.61945 L 349.7185 186.959 C 350.0432 187.68965 350.53032 189.67867 350.85506 191.42413 L 351.38276 194.54973 L 349.88085 198.8119 C 347.93243 204.33244 347.6077 204.90073 344.4821 208.79758 C 341.51886 212.49147 336.48543 216.87542 333.44102 218.41792 C 331.08667 219.5951 329.58476 220.69108 330.23424 220.73168 C 330.4778 220.73168 332.0203 220.16339 333.644 219.5139 C 339.6922 217.0378 347.77006 208.75699 349.92144 202.83053 C 351.38276 198.8931 351.2204 200.3544 349.7185 204.81955 C 348.0136 209.85297 344.3603 216.75364 341.72182 219.91983 C 340.2605 221.6653 338.43386 223.12661 334.69938 225.48096 C 329.66595 228.60656 328.12345 230.18965 329.26003 230.9203 C 329.54417 231.12327 330.07187 231.28564 330.4372 231.28564 C 332.14207 231.28564 335.1459 233.23407 339.00215 236.80618 C 343.22373 240.70302 345.74045 243.8692 346.5929 246.38593 L 347.0394 247.72547 L 345.9434 246.30474 C 344.15735 243.991 342.20893 242.3673 337.82498 239.44467 C 334.4964 237.2121 333.0757 236.52203 330.59957 235.95374 C 328.2858 235.38545 327.3928 235.34486 327.06805 235.6696 C 326.70272 236.03493 326.8651 236.1567 327.67693 236.1567 C 328.2858 236.1567 329.09766 236.31907 329.50358 236.52203 C 329.8689 236.725 331.08667 237.33387 332.22326 237.82098 C 335.26767 239.20111 342.00597 244.5187 344.03558 247.076 C 347.08 250.93225 347.6077 252.2718 347.28295 254.99147 L 346.9582 257.3864 L 345.61867 254.58555 C 343.79202 250.76988 340.17932 247.36014 335.7142 245.08698 C 332.5074 243.50388 328.8135 242.48908 327.67693 242.9356 C 326.62154 243.34152 327.18983 243.78803 329.09766 244.07217 C 334.45582 244.84343 342.04656 251.2164 343.9138 256.49338 C 345.69986 261.5674 345.78104 262.17628 345.09097 263.92175 L 344.4415 265.54543 L 343.79202 262.94753 C 342.899 259.37542 342.04656 257.9141 339.36748 255.23502 C 337.7032 253.57074 336.32306 252.63712 334.33405 251.86587 C 329.09766 249.75508 328.69174 250.6887 333.68457 253.40837 C 338.92096 256.29042 341.7624 260.43082 342.08715 265.6672 C 342.24952 268.54925 342.20893 268.71162 341.11294 269.8888 C 339.57044 271.51248 336.89136 273.66387 336.6884 273.4203 C 336.6072 273.33913 336.76958 272.36492 337.0943 271.26893 C 337.41905 270.21353 337.7032 267.89978 337.7032 266.1949 C 337.7032 262.78517 336.6478 259.9437 334.6588 258.07647 C 333.35984 256.8587 333.35984 257.4676 334.6182 259.74075 C 336.0795 262.37924 336.6072 264.81477 336.28247 267.37208 L 335.99833 269.64524 L 335.0647 267.08794 C 333.68457 263.23168 332.10148 260.95852 329.17884 258.60417 C 326.62154 256.53397 322.5623 254.58555 318.78725 253.61134 C 315.9052 252.88068 308.2333 251.98765 299.54656 251.37877 C 289.76384 250.6887 284.8928 250.6075 281.28008 251.1758 C 278.6416 251.58173 274.3794 253.08364 274.3794 253.57074 C 274.3794 253.69252 274.74474 254.7885 275.23185 256.00627 C 275.80014 257.58937 276.08428 259.21305 276.08428 261.608 C 276.12488 264.6524 275.9625 265.2613 274.82593 267.53445 C 274.13586 268.91458 273.16165 270.49768 272.71513 271.06597 L 271.9033 272.08077 L 272.14684 271.02538 C 272.51217 269.44228 271.53796 267.45327 268.94006 264.693 C 266.46394 262.0139 264.069 260.71496 260.4969 260.18727 L 258.3455 259.82194 L 260.17215 259.33483 C 261.18696 259.09128 262.60768 258.60417 263.33834 258.27943 C 264.75907 257.62996 268.85888 254.01726 268.49355 253.69252 C 268.41236 253.57074 267.35697 254.22022 266.1798 255.11325 C 265.00262 256.00627 263.6225 256.9399 263.13538 257.22404 C 261.59288 258.03588 254.85458 259.57838 251.6478 259.86253 C 247.9539 260.18727 241.98686 261.28326 240.97206 261.81095 C 239.7137 262.46043 239.7543 261.93273 241.05324 260.0655 C 241.90568 258.88832 242.63633 256.9399 243.3264 254.22022 C 243.8541 252.02824 244.26002 250.161 244.21943 250.07982 C 244.13824 250.03922 243.3264 250.2016 242.3522 250.44515 C 241.05324 250.76988 240.07903 250.76988 238.57712 250.40455 C 237.48113 250.161 236.0604 249.99863 235.4921 249.99863 C 233.58428 250.07982 238.29297 250.89166 240.89087 250.93225 L 243.367 250.97284 L 242.18982 253.8143 C 240.52554 257.71114 239.06422 259.74075 236.101 262.1357 C 233.86843 263.96234 233.38132 264.1653 231.63586 264.1653 C 229.8092 264.1653 229.56566 264.04352 227.49545 261.81095 L 225.30348 259.4972 L 225.6688 260.91793 C 225.87177 261.68918 226.39947 263.75938 226.88657 265.50484 C 227.41427 267.3315 227.69842 269.19873 227.53605 269.8482 C 227.33309 271.02538 223.84216 275.93703 223.27387 275.93703 C 223.1115 275.93703 222.5838 275.24696 222.0967 274.43512 C 221.0007 272.4461 218.4434 270.01057 215.07425 267.7374 L 212.39517 265.95135 L 214.38418 265.46425 C 218.484 264.49004 220.35123 262.17628 220.63538 257.58937 L 220.79775 254.62614 L 220.27005 256.8587 C 219.37702 260.63378 218.03748 262.50102 215.19603 263.96234 C 213.45056 264.81477 212.59813 264.85537 202.65305 264.44944 C 192.62678 264.04352 190.88132 263.6376 186.8221 260.9991 C 182.07282 257.9141 179.5561 257.18345 172.2901 256.8993 C 165.5924 256.61516 164.73996 256.4122 165.79536 255.23502 C 166.44483 254.54495 166.40424 254.42318 165.5924 253.61134 C 165.10529 253.12423 164.09048 252.47475 163.31923 252.15002 C 161.53318 251.41936 156.2156 250.36396 156.49975 250.85107 C 156.62152 251.01344 156.86508 251.1758 157.02745 251.1758 C 157.2304 251.1758 158.97587 251.94706 160.96489 252.88068 L 164.5776 254.58555 L 162.54798 255.07265 C 159.54416 255.8033 157.47396 255.72213 154.91665 254.8697 C 152.76527 254.09844 147.48829 250.89166 149.15257 251.29758 C 149.59908 251.41936 150.77625 251.62232 151.79106 251.7441 L 153.6177 251.98765 L 151.10099 250.6887 C 148.62487 249.43034 147.61006 248.37494 149.4773 248.98383 C 150.89803 249.47093 155.7285 249.22738 157.14922 248.5779 L 158.48876 248.00962 L 156.66212 247.92843 L 154.83547 247.84725 L 156.41856 247.36014 C 157.92047 246.87303 157.96107 246.87303 157.02745 246.42652 C 156.13442 245.98 156.13442 245.93941 156.86508 245.93941 C 157.55514 245.89882 157.55514 245.81764 157.06804 245.4929 C 156.58093 245.16816 156.58093 245.08698 157.271 245.08698 C 157.71751 245.0464 159.09765 244.59987 160.31541 244.07217 L 162.54798 243.09796 L 160.84311 243.05737 C 158.73232 243.05737 158.3264 242.48908 159.9095 241.8396 C 160.55897 241.55546 161.00548 241.19013 160.8837 240.98717 C 160.76193 240.7842 161.4114 240.50006 162.30443 240.3783 C 163.19746 240.21592 164.25285 239.89118 164.65877 239.60704 C 165.30825 239.11993 165.18647 239.03875 163.76575 238.7952 C 160.96489 238.3081 160.64015 238.1863 161.08666 237.61802 C 161.33022 237.33387 161.4114 236.96854 161.24903 236.84677 C 161.12726 236.6844 161.61436 236.56262 162.4262 236.56262 C 164.21226 236.56262 166.48542 235.79137 166.16068 235.30427 C 166.0389 235.1013 165.63299 234.93894 165.22706 234.93894 C 164.86174 234.93894 164.17167 234.69538 163.76575 234.37065 C 163.07568 233.88354 163.19746 233.76176 165.43003 233.0717 C 167.74378 232.34104 167.78437 232.34104 166.40424 232.17867 C 163.92812 231.9757 163.68456 231.77275 164.82114 230.75794 C 165.34884 230.27084 166.5666 229.58077 167.54082 229.25603 C 169.6922 228.56597 170.09813 228.03827 168.47444 228.03827 C 167.78437 228.03827 166.5666 227.71353 165.79536 227.26702 L 164.37463 226.53636 L 166.0389 226.2522 C 166.97253 226.08984 168.27148 225.68392 169.00214 225.3186 L 170.2605 224.62853 L 169.24569 224.34438 C 168.6774 224.182 167.33786 224.06023 166.24187 224.01964 C 164.29345 223.97905 164.25285 223.93846 164.94292 223.2078 C 165.34884 222.76129 166.6072 222.193 167.74378 221.90885 L 169.85457 221.38115 L 168.23089 221.05641 C 167.33786 220.85345 165.87654 220.77227 164.98351 220.89405 C 163.56279 221.097 163.441 221.05641 164.09048 220.5693 C 164.78055 220.0416 164.78055 220.00102 164.09048 219.71687 C 163.56279 219.47332 164.0499 219.27036 165.79536 218.94562 C 168.39325 218.41792 168.31207 218.33674 164.37463 217.72786 C 163.19746 217.5249 162.9539 217.32193 162.9539 216.4695 C 162.9539 215.65766 163.27864 215.33292 164.5776 214.927 L 166.20128 214.3587 L 164.90233 214.07456 C 164.17167 213.9122 163.4816 213.58745 163.35983 213.3845 C 163.19746 213.18153 162.58857 213.01916 161.8985 213.01916 C 160.80252 213.01916 160.15304 212.20732 161.24903 212.20732 C 162.02028 212.16673 159.8283 211.03015 158.93528 210.98956 C 158.44817 210.98956 158.2858 210.7866 158.44817 210.38067 C 158.61054 209.93416 158.24521 209.6906 156.94626 209.48765 C 156.01264 209.36587 155.48494 209.1629 155.76909 209.04113 C 156.7433 208.7164 156.2156 208.26988 154.6731 208.02633 C 153.78007 207.90455 151.87224 207.25508 150.41092 206.565 C 148.9496 205.87494 147.69125 205.30665 147.61006 205.30665 C 147.56947 205.30665 148.4219 206.28086 149.55849 207.49863 C 152.1158 210.1777 154.26718 214.19634 155.52554 218.4991 C 156.29679 221.21878 156.45916 222.7207 156.45916 227.67294 L 156.45916 233.5994 L 154.55132 237.41506 C 152.23757 242.08316 148.05658 247.36014 145.66164 248.69968 C 144.24091 249.51153 143.18552 249.7145 139.85696 249.87686 C 137.5838 249.95804 134.37702 249.83626 132.71274 249.55212 C 127.31398 248.69968 122.19936 248.33435 111.40185 247.96902 C 105.59717 247.76606 98.73709 247.36014 96.17978 247.1166 C 93.17596 246.83244 88.50786 246.75126 83.1497 246.91363 L 74.78771 247.19777 L 71.86507 245.69586 C 68.98303 244.27514 68.90184 244.19395 69.1454 242.9762 C 69.47013 241.3119 69.55132 241.27132 70.6879 241.9208 C 71.86507 242.61086 78.88752 242.57026 83.39325 241.8396 C 85.1793 241.55546 88.26431 241.3119 90.21273 241.27132 C 92.4453 241.23072 93.90662 241.02776 94.06899 240.74362 C 94.59669 239.89118 97.19459 239.03875 101.90328 238.1863 C 107.09908 237.2527 112.90376 237.1309 119.31732 237.82098 C 124.47253 238.38927 126.1774 237.94276 127.31398 235.5884 C 127.92286 234.24887 127.92286 234.0459 127.27339 232.544 C 125.69029 229.09366 123.09239 227.55116 115.8264 225.72451 C 109.94053 224.2632 102.59335 224.182 97.51932 225.52155 C 95.69268 226.00866 93.46011 226.41458 92.56708 226.41458 C 91.18695 226.41458 90.86221 226.2522 90.41569 225.278 C 89.80681 224.10083 88.79201 223.97905 87.61483 225.03445 C 86.72181 225.8463 86.47825 225.8057 82.98733 224.01964 C 81.28246 223.12661 78.4816 222.1118 76.73613 221.7059 C 71.2156 220.48812 71.7027 220.89405 71.09382 217.24075 C 70.76908 215.29233 69.91665 212.65383 68.94244 210.54304 C 67.15638 206.6462 67.11579 206.28086 68.00882 204.98191 C 69.307765 203.15527 72.63632 203.9671 76.24903 207.05212 C 79.25285 209.60942 80.30824 209.7718 84.48924 208.1481 C 88.75142 206.48382 90.86221 206.44323 93.82544 207.86396 C 95.0432 208.47284 96.22037 208.95995 96.42334 208.95995 C 96.6263 208.95995 98.1688 208.39166 99.83308 207.661 C 102.43098 206.565 103.3646 206.36205 106.36842 206.32146 C 109.45342 206.32146 110.1029 206.44323 112.25428 207.53922 L 114.64922 208.79758 L 114.97396 211.8014 C 115.33929 215.33292 115.66402 215.73884 119.23614 217.11897 C 120.81923 217.72786 122.93002 218.09319 125.81207 218.25555 C 131.12964 218.5803 134.01169 219.96043 136.20366 223.1672 L 137.17787 224.58793 L 137.17787 223.32958 C 137.17787 221.6247 135.91952 220.1228 133.28103 218.62088 L 131.08905 217.40312 L 132.9157 215.77943 C 136.81255 212.3697 137.66498 208.1075 134.82353 206.44323 C 132.26622 204.94132 127.27339 204.65718 124.18838 205.79376 C 122.037 206.565 118.50548 211.19252 118.50548 213.18153 C 118.50548 214.52107 117.73423 214.11515 116.67883 212.16673 C 115.98876 210.86778 115.66402 209.81238 115.8264 209.2035 C 115.94817 208.7164 117.81541 206.48382 120.00739 204.21066 C 124.39134 199.66434 124.43193 199.66434 132.42859 197.95947 C 137.42143 196.86348 151.66928 196.37637 152.23757 197.2288 C 152.52172 197.71592 152.6029 197.67532 152.6029 197.14763 C 152.6029 196.66052 153.49593 196.41697 157.2304 196.05164 C 162.79153 195.44275 174.8474 195.44275 177.36412 196.01104 C 178.37893 196.2546 180.20558 196.53874 181.42334 196.66052 L 183.6559 196.86348 L 181.54512 201.16625 C 179.79965 204.73836 179.27196 206.24027 178.78485 209.48765 C 178.46011 211.67962 178.29774 213.9122 178.41952 214.4399 C 178.62248 215.29233 178.74426 215.3735 179.67788 214.927 C 181.01742 214.31811 181.70749 212.8568 182.23518 209.6906 C 182.76288 206.28086 183.33117 204.73836 185.68552 200.02967 C 187.47157 196.49815 187.63394 195.92986 187.59335 193.41315 C 187.55276 191.87064 187.3092 189.88163 187.06565 188.948 C 186.53795 186.83721 184.58953 183.71162 182.96584 182.37208 C 181.22038 180.87016 177.32353 176.08029 176.67406 174.53779 C 175.3751 171.49337 174.52267 166.50054 174.52267 162.0354 C 174.52267 157.20493 173.46728 152.45565 171.55944 148.47761 C 170.62582 146.56978 168.39325 144.9461 155.64731 136.90884 C 150.12678 133.41792 147.8942 130.61706 146.92 125.98955 C 145.94578 121.28086 147.65066 117.30283 152.52172 112.71591 L 155.52554 109.91505 L 156.7433 110.92985 C 157.67692 111.7011 158.40758 111.94466 159.95008 111.94466 Z"/>
            </g>
            <g>
               <path d="M 96.54511 112.71591 C 95.28675 113.97427 94.96202 114.58315 94.96202 115.76032 C 94.96202 119.61658 97.68169 121.11849 101.13203 119.17007 C 103.324 117.91171 104.13585 118.4394 103.97348 121.0779 C 103.77052 124.08172 102.63394 126.67962 101.33499 127.12613 C 99.14301 127.89738 92.77004 125.38067 89.92859 122.66099 C 88.42668 121.24027 88.38609 121.0373 88.58905 119.17007 C 88.91378 116.53157 89.92859 114.54256 91.55228 113.2842 C 93.13537 112.10703 95.48972 111.17341 97.03222 111.13282 C 98.12821 111.13282 98.08761 111.13282 96.54511 112.71591 Z"/>
            </g>
            <g>
               <path d="M 247.38562 127.00435 C 255.05754 126.92317 254.7734 126.88258 263.25716 130.12995 C 272.51217 133.66147 277.95152 136.78707 282.782 141.33339 C 288.58667 146.73215 287.81542 148.88353 279.98113 148.88353 C 274.33882 148.88353 264.88084 147.34103 247.5074 143.56596 C 242.43337 142.46997 237.6029 141.57694 236.75047 141.53635 C 235.4921 141.53635 235.37034 141.45517 236.0198 141.17102 C 236.46632 140.96806 237.48113 140.7245 238.25238 140.60273 C 240.7285 140.19681 243.24522 138.12661 244.01647 135.81286 C 244.17884 135.32575 254.2457 136.99003 259.15735 138.32957 C 261.63347 138.97904 266.46394 140.48096 269.91427 141.69872 C 273.3646 142.91649 276.5714 144.01247 277.0179 144.17484 C 277.46442 144.33721 275.84073 143.44418 273.4052 142.18583 C 265.85506 138.28898 257.08715 135.81286 248.5628 135.24457 L 244.4224 134.96042 L 244.17884 132.89022 C 243.8947 130.25173 243.00166 129.07456 240.2414 127.61324 C 238.7395 126.84199 238.41475 126.55784 239.26718 126.7608 C 239.95725 126.92317 243.61055 127.00435 247.38562 127.00435 Z"/>
            </g>
            <g>
               <path d="M 247.62917 145.87971 C 257.16833 148.15288 267.39756 150.02012 274.9883 150.91314 C 281.1177 151.6438 284.52745 153.67341 284.52745 156.55545 C 284.52745 158.8692 280.6712 158.9098 265.0432 156.799 C 248.23805 154.48525 241.94627 153.7546 239.38896 153.7546 L 237.0752 153.7546 L 238.04942 152.29328 C 238.6177 151.48143 239.06422 150.46663 239.06422 150.02012 C 239.06422 148.84294 239.99784 148.72117 245.31542 149.24886 C 251.28247 149.81715 257.00596 151.07551 263.94722 153.34867 C 266.82927 154.2823 269.2648 154.97236 269.34598 154.85058 C 269.63013 154.60703 265.0838 152.61801 261.06518 151.27847 C 255.707 149.45182 250.38944 148.47761 244.50357 148.19347 L 239.186 147.94991 L 238.6989 146.28564 C 238.45534 145.35202 238.1306 144.3778 238.00883 144.09366 C 237.88705 143.8501 237.84646 143.60655 237.92764 143.60655 C 238.00883 143.60655 242.39278 144.62136 247.62917 145.87971 Z"/>
            </g>
            <g>
               <path d="M 238.6989 155.21591 C 241.09383 156.06835 245.15305 156.75842 256.51886 158.21973 C 271.09145 160.08697 274.54178 161.14237 277.34264 164.51152 C 278.80396 166.29758 280.1841 169.05784 279.81876 169.62613 C 279.53462 170.11324 276.89613 169.99146 271.335 169.13903 C 262.5671 167.88067 245.03127 165.97284 240.282 165.76988 C 233.38132 165.52632 232.56948 165.24218 235.32974 164.22737 C 236.42573 163.82145 237.84646 163.00961 238.45534 162.44132 L 239.55133 161.42652 L 246.08667 162.0354 C 249.69937 162.36014 254.12392 162.76606 255.90997 162.88783 C 257.69603 163.00961 260.17215 163.17198 261.38992 163.29376 L 263.6225 163.45612 L 261.18696 162.88783 C 257.2901 161.95421 254.32688 161.5483 247.22325 160.85822 C 243.56995 160.4929 240.40377 160.12757 240.2414 160.00579 C 240.03844 159.88401 239.87607 159.55928 239.87607 159.23454 C 239.87607 158.3821 237.88705 156.23072 236.26336 155.37828 C 234.88323 154.64762 234.84264 154.60703 235.85744 154.56644 C 236.46632 154.56644 237.72468 154.85058 238.6989 155.21591 Z"/>
            </g>
            <g>
               <path d="M 240.6879 166.90646 C 242.3522 167.27179 246.20845 167.84008 249.21227 168.16482 C 255.01695 168.8143 269.2242 170.64094 271.45678 171.00627 C 273.08046 171.29041 275.31303 173.19824 276.0031 174.86252 C 276.4496 175.9991 276.40902 176.20207 275.63777 177.0545 C 273.24283 179.6118 266.6669 179.93655 255.86938 178.0693 C 251.24187 177.25746 246.61437 176.77036 243.12344 176.64858 C 240.11962 176.5268 237.0752 176.36443 236.34455 176.24266 L 235.0456 176.0397 L 236.0604 174.57838 C 236.5881 173.76654 237.03462 172.8735 237.03462 172.58936 C 237.03462 172.26462 237.44054 172.02107 237.96824 172.02107 C 241.17502 172.02107 253.27148 173.64476 260.4157 175.06548 C 261.06518 175.18726 259.76623 174.61897 257.53366 173.84772 C 252.1755 171.8993 248.84694 171.29041 242.63633 170.96568 L 237.44054 170.68153 L 237.44054 169.62613 C 237.44054 169.05784 237.0752 167.96185 236.6287 167.2312 L 235.81685 165.93225 L 236.75047 166.09461 C 237.23758 166.2164 239.02363 166.58172 240.6879 166.90646 Z"/>
            </g>
            <g>
               <path d="M 241.70271 177.90694 C 243.93528 178.47523 249.45582 179.57122 253.96155 180.30187 C 259.888 181.31668 262.64827 182.00675 264.1096 182.7374 C 266.86986 184.15813 268.49355 185.57886 268.2094 186.30952 C 267.51934 188.01439 257.8178 188.33912 247.79154 187.04017 C 244.46298 186.59366 240.36317 186.22833 238.7395 186.22833 L 235.73567 186.22833 L 236.79106 184.96997 C 237.35935 184.2799 237.84646 183.34629 237.84646 182.89977 C 237.84646 182.00675 238.25238 182.00675 247.30443 183.2245 C 252.622 183.91458 253.1497 183.91458 251.0389 183.14333 C 248.80634 182.33148 243.08285 181.35727 240.44436 181.35727 C 238.33356 181.35727 238.25238 181.31668 237.48113 179.77418 C 237.03462 178.92174 236.1416 177.78516 235.5327 177.29805 L 234.39612 176.44562 L 236.0198 176.68917 C 236.91284 176.81095 239.47015 177.37924 241.70271 177.90694 Z"/>
            </g>
            <g>
               <path d="M 238.1712 187.81143 C 241.13442 188.78564 244.62535 189.31334 252.45964 189.92222 C 257.3307 190.28755 258.8732 190.5717 259.23853 191.0588 C 260.09097 192.15479 259.8474 192.68249 258.14254 193.53492 C 255.38228 194.95565 251.1201 195.32098 243.56995 194.83387 C 239.87607 194.59032 235.16738 194.50913 233.13777 194.6309 C 231.02697 194.75269 229.3221 194.7121 229.20033 194.46854 C 229.07855 194.26558 229.56566 193.6161 230.29631 193.04782 L 231.63586 191.95183 L 237.0752 192.31716 C 240.07903 192.52012 243.52936 192.80426 244.74713 192.88545 L 246.9797 193.0884 L 244.3818 192.31716 C 242.8799 191.87064 239.7543 191.42413 236.87225 191.26176 L 231.9606 190.97762 L 231.9606 189.71926 C 231.9606 188.74505 232.24474 188.29853 233.17836 187.77083 C 234.76145 186.8778 235.37034 186.8778 238.1712 187.81143 Z"/>
            </g>
            <g>
               <g  id="feature-0">
                  <path 
                        d="M 134.25524 206.80856 C 135.18886 207.53922 135.35123 207.90455 135.35123 209.7312 C 135.31064 212.16673 134.4176 213.58745 132.06326 214.927 C 129.50595 216.38831 128.7753 216.10417 130.68313 214.3993 C 132.59096 212.69443 133.48399 210.38067 132.75333 209.04113 C 131.69793 207.05212 128.04464 206.0373 125.08141 206.88975 C 123.41713 207.37685 123.41713 207.05212 125.122 206.28086 C 127.11102 205.38784 132.79392 205.71257 134.25524 206.80856 Z"
                        fill="#ff0000"/>
               </g>
            </g>
            <g>
               <g  id="feature-1">
                  <path 
                        d="M 129.7901 208.39166 C 131.9009 208.95995 130.2772 212.61324 127.88227 212.61324 C 126.62391 212.61324 125.97444 212.08554 125.73088 210.7866 C 125.6091 210.05594 125.32496 209.97475 123.45772 210.09653 C 122.32114 210.1777 121.34693 210.13712 121.34693 210.01534 C 121.34693 209.85297 121.95581 209.40646 122.68647 208.95995 C 123.98542 208.1481 127.7199 207.86396 129.7901 208.39166 Z"
                        fill="#ff0000"/>
               </g>
            </g>
            <g>
               <g  id="feature-2">
                  <path 
                        d="M 123.13298 212.7756 C 123.29535 213.54686 123.78246 214.64285 124.26956 215.25173 L 125.16259 216.38831 L 122.84884 216.18535 C 121.59048 216.06358 120.41331 215.9012 120.29153 215.73884 C 120.16976 215.61706 120.16976 214.56167 120.33212 213.46568 C 120.57568 211.55785 120.69745 211.39548 121.75285 211.39548 C 122.72706 211.39548 122.93002 211.59844 123.13298 212.7756 Z"
                        fill="#ff0000"/>
               </g>
            </g>
            <g>
               <g  id="feature-3">
                  <path 
                        d="M 89.68504 226.9017 C 90.09096 227.8759 90.53747 230.10847 90.69984 231.89452 C 90.82162 233.68058 91.14635 236.1161 91.34931 237.33387 C 91.63346 238.99815 91.59287 239.64763 91.22754 239.89118 C 90.45629 240.3783 90.29392 240.2971 89.07615 239.07934 C 86.27529 236.35966 85.707 232.25985 87.49306 227.8353 C 88.06135 226.374 88.62964 225.19682 88.75142 225.19682 C 88.8326 225.19682 89.23852 225.96807 89.68504 226.9017 Z"
                        fill="#ff0000"/>
               </g>
            </g>
            <g>
               <g  id="feature-4">
                  <path 
                        d="M 84.40805 228.4036 C 84.40805 229.21544 84.65161 231.0421 84.97634 232.42222 C 85.58523 235.42604 85.13871 236.03493 83.27147 234.6548 C 81.97252 233.68058 81.68838 232.544 81.60719 228.56597 L 81.5666 225.60274 L 82.98733 226.2928 C 84.20509 226.8611 84.40805 227.18583 84.40805 228.4036 Z"
                        fill="#ff0000"/>
               </g>
            </g>
            <g>
               <path d="M 108.5604 229.70255 C 110.59 229.9055 114.04034 230.14906 116.27291 230.23024 C 121.5093 230.4332 123.21417 231.0421 124.35075 233.0311 C 125.20318 234.5736 125.20318 234.5736 124.39134 235.1825 C 123.74187 235.6696 122.88943 235.75078 120.12916 235.54782 C 118.22133 235.42604 115.98876 235.22308 115.13633 235.1013 C 113.67501 234.85775 113.63442 234.81716 114.2027 234.16769 C 115.05514 233.19347 115.01455 232.38163 114.04034 231.4886 C 113.2285 230.75794 113.2285 230.79854 113.2285 232.0163 C 113.2285 233.88354 111.84836 234.77657 108.27625 235.0607 C 104.05466 235.42604 95.53031 237.1715 94.39373 237.94276 C 93.5007 238.51105 93.37892 238.51105 93.13537 237.86157 C 92.973 237.49624 92.77004 235.87256 92.64826 234.28946 L 92.40471 231.36683 L 93.94721 230.87972 C 96.13919 230.14906 100.96966 229.33722 103.08045 229.33722 C 104.09526 229.33722 106.57138 229.49959 108.5604 229.70255 Z"/>
            </g>
            <g>
               <path d="M 80.5518 233.80236 C 81.16068 235.1013 82.98733 236.27848 84.81397 236.52203 C 86.07233 236.725 86.68121 237.04973 87.16832 237.86157 C 87.53365 238.47046 87.69602 239.11993 87.53365 239.2823 C 86.47825 240.2971 71.37797 241.10895 70.76908 240.13473 C 70.606715 239.8506 71.09382 239.11993 72.06803 238.3081 C 74.341195 236.31907 79.212255 232.90933 79.73995 232.90933 C 79.94291 232.90933 80.34884 233.31525 80.5518 233.80236 Z"/>
            </g>
            <g>
               <g  id="outline-1">
                  <path 
                        d="M 282.2949 94.16529 C 280.50883 94.36825 274.21704 94.53062 268.2906 94.57121 C 259.8474 94.65239 258.10195 94.73358 260.17215 95.01772 C 261.63347 95.22068 266.91045 95.42365 271.94388 95.42365 C 279.89995 95.42365 281.48304 95.30187 284.12153 94.6118 C 287.4501 93.67818 287.16595 93.597 282.2949 94.16529 Z"
                        fill="black"/>
               </g>
            </g>
            <g>
               <g  id="outline-2">
                  <path 
                        d="M 238.86126 94.73358 C 239.55133 94.81476 241.54035 95.09891 243.3264 95.34246 C 247.4668 95.87016 248.88753 96.76319 249.69937 99.15813 C 249.94293 99.92938 249.94293 99.92938 249.98352 99.07694 C 250.0241 97.77799 248.15687 95.78898 246.452 95.30187 C 245.59956 95.09891 243.2858 94.81476 241.2968 94.73358 C 239.26718 94.6118 238.2118 94.6118 238.86126 94.73358 Z"
                        fill="black"/>
               </g>
            </g>
            <g>
               <g  id="outline-3">
                  <path 
                        d="M 140.42525 98.38687 C 136.81255 99.72642 135.18886 100.57885 136.24426 100.57885 C 136.4878 100.57885 138.76097 99.92938 141.27768 99.15813 C 146.51407 97.49385 148.25954 97.45325 148.4625 98.87398 C 148.62487 99.84819 146.31111 102.44609 143.46966 104.59748 C 142.53604 105.24695 142.49545 105.36873 143.2261 105.0034 C 143.7538 104.75984 145.29631 103.50149 146.59526 102.24313 C 148.9902 99.88878 149.5179 98.46806 148.4625 97.41266 C 147.61006 96.56023 144.40328 96.92556 140.42525 98.38687 Z"
                        fill="black"/>
               </g>
            </g>
            <g>
               <g  id="outline-4">
                  <path 
                        d="M 247.58858 103.21734 C 246.81733 103.78563 246.3708 104.23215 246.57378 104.23215 C 246.81733 104.23215 247.548 103.78563 248.19746 103.21734 C 249.78056 101.95899 249.41523 101.95899 247.58858 103.21734 Z"
                        fill="black"/>
               </g>
            </g>
            <g>
               <g  id="outline-5">
                  <path 
                        d="M 121.67167 103.78563 C 124.26956 104.23215 124.51312 104.67866 123.49831 107.0736 C 122.5647 109.30617 122.84884 109.71209 124.14779 108.04781 C 125.08141 106.87064 125.28437 104.67866 124.51312 103.90741 C 124.22897 103.62326 123.09239 103.4609 121.9964 103.4609 L 119.9262 103.54208 L 121.67167 103.78563 Z"
                        fill="black"/>
               </g>
            </g>
            <g>
               <g  id="outline-6">
                  <path 
                        d="M 134.9859 125.7054 C 134.37702 126.55784 132.30681 128.70923 130.35839 130.45469 C 128.40997 132.15956 126.46154 133.94562 126.01503 134.39213 C 125.20318 135.16338 125.20318 135.16338 126.21799 134.87924 C 126.78628 134.71687 127.92286 134.0268 128.7347 133.37733 C 130.19602 132.24074 134.21465 127.53205 135.75715 125.2183 C 136.85314 123.51343 136.20366 123.91935 134.9859 125.7054 Z"
                        fill="black"/>
               </g>
            </g>
            <g>
               <g  id="outline-7">
                  <path 
                        d="M 136.0007 135.00101 C 135.91952 136.66529 134.86412 138.12661 131.69793 140.96806 C 129.58714 142.8759 128.7347 143.8501 129.01885 144.13425 C 129.303 144.4184 129.66832 144.3778 130.15543 143.93129 C 130.96727 143.20063 133.24043 142.02346 134.74234 141.49576 C 135.55419 141.2522 135.43241 141.21161 134.21465 141.37398 L 132.63155 141.53635 L 133.72754 140.44036 C 135.27004 138.89786 136.44722 136.42174 136.24426 135.16338 C 136.12248 134.18917 136.08189 134.18917 136.0007 135.00101 Z"
                        fill="black"/>
               </g>
            </g>
            <g>
               <g  id="outline-8">
                  <path 
                        d="M 137.5838 141.04925 C 140.58762 141.2522 141.1965 141.53635 141.88657 142.8353 C 142.86078 144.74313 142.33308 146.56978 140.1411 148.92413 C 139.16689 149.97952 138.43623 151.03492 138.55801 151.27847 C 138.72038 151.52203 139.654 151.27847 140.95295 150.71018 C 144.64683 148.96472 148.9496 149.5736 148.9496 151.84676 C 148.9496 152.33387 148.50309 153.47045 148.01598 154.36348 C 147.48829 155.2565 146.96059 156.3525 146.79822 156.75842 C 146.47348 157.57026 146.47348 157.57026 147.36651 156.75842 C 148.4625 155.7842 149.35553 153.7546 149.35553 152.1715 C 149.35553 151.35966 148.9902 150.71018 148.25954 150.1013 C 147.28533 149.33005 146.75763 149.24886 144.48447 149.41123 C 143.02315 149.53301 141.52124 149.73597 141.1559 149.89834 C 140.58762 150.1013 140.7094 149.65479 141.6836 147.74695 C 142.69841 145.79853 142.90137 144.98669 142.69841 143.8501 C 142.29249 141.69872 140.83117 140.7651 138.03031 140.84628 C 135.91952 140.88688 135.87893 140.92747 137.5838 141.04925 Z"
                        fill="black"/>
               </g>
            </g>
            <g>
               <g  id="outline-9">
                  <path 
                        d="M 152.52172 159.15335 C 152.6435 160.24934 152.35935 161.18296 151.38513 162.88783 C 149.88322 165.52632 149.9644 167.06883 151.50691 165.56692 C 152.84645 164.34915 154.75428 164.43034 155.80968 165.76988 C 157.7581 168.246 157.14922 171.08745 154.34836 173.03588 C 152.44053 174.33483 153.04941 174.33483 155.44435 173.07647 C 156.94626 172.26462 157.59574 172.18344 159.17883 172.3864 C 160.23423 172.54877 161.3708 172.9547 161.73614 173.23884 C 162.71035 174.05068 162.26384 176.12088 160.47778 179.00293 C 158.97587 181.47905 158.89469 181.96615 160.07186 181.51964 C 160.47778 181.35727 160.59956 181.1543 160.356 180.99194 C 160.11245 180.82957 160.43719 179.97714 161.12726 178.84056 C 162.50739 176.60799 162.91331 175.22785 162.58857 173.9289 C 162.34502 172.8735 160.84311 172.02107 159.3006 172.02107 C 157.51455 172.02107 157.06804 171.65574 157.51455 170.51916 C 157.71751 169.99146 157.87988 168.8143 157.87988 167.88067 C 157.87988 165.72929 155.80968 163.49672 153.82066 163.49672 C 152.52172 163.49672 152.52172 163.45612 152.76527 161.95421 C 152.92764 161.14237 153.1306 160.16816 153.25237 159.80283 C 153.33356 159.4781 153.17119 158.8692 152.88705 158.46329 C 152.39994 157.81381 152.35935 157.895 152.52172 159.15335 Z"
                        fill="black"/>
               </g>
            </g>
            <g>
               <g  id="outline-10">
                  <path 
                        d="M 164.0499 182.45326 C 164.4964 183.58984 164.41522 183.91458 163.72515 184.8888 C 162.34502 186.79662 162.22324 187.04017 162.9539 186.79662 C 163.72515 186.47188 164.78055 184.56405 164.78055 183.46806 C 164.78055 183.06214 164.4964 182.37208 164.17167 181.92556 C 163.64397 181.2355 163.64397 181.27609 164.0499 182.45326 Z"
                        fill="black"/>
               </g>
            </g>
            <g>
               <g  id="outline-11">
                  <path 
                        d="M 168.75858 132.32193 C 169.04273 132.60607 171.3159 133.82384 173.8326 135.0822 C 177.4453 136.86825 178.41952 137.51773 178.62248 138.32957 C 178.82544 139.182 178.90663 139.2226 179.19077 138.6543 C 179.96202 136.78707 176.4305 133.86443 171.72181 132.4843 C 168.96154 131.67245 168.06852 131.63186 168.75858 132.32193 Z"
                        fill="black"/>
               </g>
            </g>
            <g>
               <g  id="outline-12">
                  <path 
                        d="M 176.55228 139.91266 C 176.55228 140.07503 177.5265 140.35918 178.74426 140.48096 C 182.60051 140.88688 186.98447 143.363 187.95868 145.71735 C 188.324 146.61037 188.324 147.30044 187.91809 148.68057 C 187.26861 150.99433 187.51217 151.52203 189.42 152.1309 C 191.16546 152.6992 192.78915 154.03874 192.78915 154.89118 C 192.78915 155.21591 192.0585 156.19013 191.16546 157.04256 C 189.17645 158.9504 189.05467 159.4375 190.9219 158.01677 C 192.62678 156.71782 193.43862 154.97236 192.82974 153.83578 C 192.22086 152.73979 190.02888 150.91314 189.25763 150.91314 C 188.81112 150.91314 188.68934 150.66959 188.8923 149.97952 C 189.9071 146.56978 189.4606 145.10846 186.8627 142.79471 C 184.50835 140.7245 181.5857 139.54734 178.90663 139.54734 C 177.60768 139.54734 176.55228 139.7097 176.55228 139.91266 Z"
                        fill="black"/>
               </g>
            </g>
            <g>
               <g  id="outline-13">
                  <path 
                        d="M 214.10004 146.36682 C 215.23662 147.62518 215.3178 147.94991 215.3178 150.83196 C 215.2772 154.2823 214.58714 156.10894 211.94865 159.4375 C 211.1368 160.4523 210.32497 161.5077 210.08141 161.83244 C 209.79727 162.15717 210.32497 162.0354 211.33977 161.5077 C 214.01885 160.16816 215.56136 160.41171 216.53557 162.31954 C 217.30682 163.74027 217.30682 165.52632 216.53557 168.36778 C 215.68313 171.53397 215.76432 172.02107 216.9009 170.72212 C 220.0265 167.1906 218.484 160.24934 214.54655 160.24934 L 213.12583 160.24934 L 214.50596 158.21973 C 215.76432 156.3525 216.73853 153.2269 216.73853 151.19729 C 216.69794 149.81715 215.3584 147.17866 214.05945 146.04208 L 212.88227 145.02728 L 214.10004 146.36682 Z"
                        fill="black"/>
               </g>
            </g>
            <g>
               <g  id="outline-14">
                  <path 
                        d="M 183.49354 158.62566 C 185.40137 160.33053 186.8627 162.0354 187.22802 162.96902 C 187.55276 163.82145 188.24283 166.90646 188.68934 169.7885 C 189.54178 174.9437 193.23566 188.37972 193.5198 187.48669 C 193.601 187.24314 193.39803 185.3353 193.0327 183.2651 C 192.70796 181.1949 192.0179 176.93272 191.57138 173.76654 C 190.84072 168.40837 190.02888 165.24218 189.05467 163.33435 C 187.99927 161.34533 181.86985 155.7842 180.77387 155.7842 C 180.5709 155.7842 181.78867 157.04256 183.49354 158.62566 Z"
                        fill="black"/>
               </g>
            </g>
            <g>
               <g  id="outline-15">
                  <path 
                        d="M 192.95152 160.81763 C 192.5456 161.14237 192.30204 161.5483 192.46441 161.71066 C 192.62678 161.87303 193.0327 161.79184 193.31685 161.5077 C 194.77817 160.33053 195.99593 162.31954 196.36126 166.33817 C 196.56422 168.93607 196.60481 168.93607 197.09192 167.7589 C 197.94435 165.81047 197.78199 162.5631 196.80777 161.30474 C 195.87415 160.12757 194.20987 159.88401 192.95152 160.81763 Z"
                        fill="black"/>
               </g>
            </g>
            <g>
               <g  id="outline-16">
                  <path 
                        d="M 215.56136 172.427 C 214.8307 172.58936 213.93767 173.03588 213.57234 173.4012 C 213.00405 173.9695 213.08523 173.9695 214.54655 173.56357 C 215.399 173.32002 217.67215 172.9141 219.57998 172.62995 L 223.03032 172.14285 L 219.9859 172.10226 C 218.32162 172.10226 216.3326 172.26462 215.56136 172.427 Z"
                        fill="black"/>
               </g>
            </g>
            <g>
               <g  id="outline-17">
                  <path 
                        d="M 198.59383 174.416 C 197.09192 175.14667 195.46823 176.89213 196.36126 176.89213 C 196.56422 176.89213 197.78199 176.40503 199.08094 175.83674 C 202.9372 174.05068 204.76384 175.26845 205.73805 180.2207 C 206.10338 181.88497 206.10338 181.92556 206.10338 180.54543 C 206.14397 177.82575 204.3985 174.82193 202.3689 174.05068 C 200.90758 173.52298 200.58285 173.52298 198.59383 174.416 Z"
                        fill="black"/>
               </g>
            </g>
            <g>
               <g  id="outline-18">
                  <path 
                        d="M 225.05992 176.48621 C 224.89756 177.0545 222.98972 179.32766 220.83834 181.51964 C 217.26623 185.17294 217.10386 185.45708 218.72755 184.56405 C 221.85314 182.85918 226.07473 177.50101 225.54703 175.95851 C 225.46585 175.67437 225.26289 175.91792 225.05992 176.48621 Z"
                        fill="black"/>
               </g>
            </g>
            <g>
               <g  id="outline-19">
                  <path 
                        d="M 203.952 185.25412 C 203.58667 185.8224 203.34311 186.3501 203.4243 186.47188 C 203.50548 186.55307 203.9114 186.06596 204.31733 185.41649 C 205.16976 183.91458 204.9262 183.7928 203.952 185.25412 Z"
                        fill="black"/>
               </g>
            </g>
            <g>
               <g  id="outline-20">
                  <path 
                        d="M 141.84597 198.00006 C 141.27768 198.24361 142.08953 198.3654 144.2815 198.3654 C 146.06756 198.40598 148.82783 198.48717 150.37033 198.60894 L 153.21178 198.8119 L 151.5881 198.24361 C 149.80204 197.59414 143.14492 197.43177 141.84597 198.00006 Z"
                        fill="black"/>
               </g>
            </g>
            <g>
               <g  id="outline-21">
                  <path 
                        d="M 137.90853 199.50197 C 138.15209 199.58316 138.6392 199.58316 138.92334 199.50197 C 139.16689 199.3802 138.96393 199.299 138.39564 199.299 C 137.82735 199.299 137.62439 199.3802 137.90853 199.50197 Z"
                        fill="black"/>
               </g>
            </g>
            <g>
               <g  id="outline-22">
                  <path 
                        d="M 141.76479 199.9079 C 142.37367 199.98908 143.2667 199.98908 143.7944 199.9079 C 144.2815 199.8267 143.7944 199.74552 142.65782 199.74552 C 141.56183 199.74552 141.11532 199.8267 141.76479 199.9079 Z"
                        fill="black"/>
               </g>
            </g>
            <g>
               <g  id="outline-23">
                  <path 
                        d="M 163.07568 200.31381 C 162.50739 200.4356 161.77673 200.76033 161.49259 201.08507 C 161.08666 201.61276 161.16785 201.61276 162.10147 201.24743 C 163.80634 200.63855 164.73996 200.71974 169.08332 202.09987 C 171.3159 202.78994 174.07616 203.4394 175.25333 203.5612 C 176.38991 203.68296 177.36412 203.88593 177.36412 203.9671 C 177.36412 204.77895 174.44149 208.06692 172.73662 209.12232 C 171.60004 209.85297 170.01694 210.82719 169.24569 211.3143 L 167.82496 212.16673 L 169.44865 211.92318 C 173.02076 211.39548 176.51169 208.6352 177.973 205.14428 C 178.82544 203.15527 178.74426 202.5058 177.77005 202.74935 C 176.83643 202.9929 173.10195 202.34342 169.24569 201.24743 C 166.0389 200.3544 164.537 200.15145 163.07568 200.31381 Z"
                        fill="black"/>
               </g>
            </g>
            <g>
               <g  id="outline-24">
                  <path 
                        d="M 145.824 201.81573 C 146.55467 202.38402 150.81684 203.27704 152.6435 203.27704 C 154.38896 203.23645 152.52172 202.5058 149.11197 201.85632 C 145.3369 201.12566 144.89039 201.12566 145.824 201.81573 Z"
                        fill="black"/>
               </g>
            </g>
            <g>
               <g  id="outline-25">
                  <path 
                        d="M 123.5795 202.9523 C 122.28055 203.64237 120.90041 205.0225 120.25094 206.24027 C 119.56087 207.57981 119.60147 207.57981 122.88943 205.18488 C 124.02601 204.29185 125.00022 203.4394 125.00022 203.27704 C 125.00022 202.66816 124.39134 202.5058 123.5795 202.9523 Z"
                        fill="black"/>
               </g>
            </g>
            <g>
               <g  id="outline-26">
                  <path 
                        d="M 247.26384 204.90073 C 246.65496 206.24027 245.80252 207.29567 244.8283 207.94514 C 243.16403 209.04113 237.88705 210.54304 235.5327 210.62423 L 233.9902 210.66482 L 236.0198 211.19252 C 239.06422 211.96377 240.6879 211.88258 242.92048 210.82719 C 245.3966 209.6906 247.38562 207.49863 247.9945 205.26606 C 248.68457 202.78994 248.31924 202.62757 247.26384 204.90073 Z"
                        fill="black"/>
               </g>
            </g>
            <g>
               <g  id="outline-27">
                  <path 
                        d="M 274.3794 206.565 C 275.9625 207.21448 294.1072 207.78277 298.207 207.29567 C 300.15544 207.0927 301.77913 206.84915 301.8603 206.76797 C 302.14446 206.52442 289.9668 206.1185 281.88896 206.15909 C 275.84073 206.15909 273.64875 206.28086 274.3794 206.565 Z"
                        fill="black"/>
               </g>
            </g>
            <g>
               <g  id="outline-28">
                  <path 
                        d="M 255.01695 206.93034 C 253.59622 207.49863 253.92096 207.7016 255.42287 207.25508 C 256.43767 206.93034 257.57425 207.01152 260.00978 207.53922 C 265.6521 208.7164 267.39756 208.91935 268.6965 208.55403 C 270.19842 208.1075 270.19842 208.31047 268.89947 211.2331 C 267.6817 213.99338 265.20558 216.83483 262.64827 218.45852 C 261.63347 219.0674 261.14636 219.47332 261.59288 219.31095 C 262.0394 219.18917 263.37893 218.78325 264.5967 218.45852 C 265.85506 218.13378 267.31637 217.40312 267.96585 216.79424 C 269.3054 215.53588 270.52316 212.49147 270.92908 209.40646 C 271.21322 207.25508 271.21322 207.21448 270.2796 207.49863 C 267.88466 208.1887 266.54512 208.1887 262.20176 207.37685 C 257.12774 206.44323 256.3565 206.40264 255.01695 206.93034 Z"
                        fill="black"/>
               </g>
            </g>
            <g>
               <g  id="outline-29">
                  <path 
                        d="M 209.83786 207.0927 C 209.83786 207.41744 214.7901 210.7866 216.08905 211.3143 L 217.22564 211.842 L 215.48017 213.10035 C 214.50596 213.79042 212.6793 215.21114 211.46155 216.26654 C 208.6607 218.66148 207.28055 219.39214 203.62726 220.28516 L 200.74521 221.01582 L 202.3283 221.86826 C 203.22134 222.31477 204.9668 223.00484 206.22516 223.37017 L 208.49832 224.10083 L 205.21035 227.42938 C 201.23232 231.448 199.56804 232.544 195.22468 233.96472 C 193.39803 234.53301 191.9773 235.1013 192.09908 235.1825 C 192.46441 235.54782 200.3393 233.64 201.59765 232.86874 C 202.3283 232.38163 204.23614 230.5144 205.77864 228.64715 C 207.32115 226.7799 209.0666 224.91267 209.6349 224.46616 C 210.2032 224.01964 210.6497 223.57313 210.6497 223.45135 C 210.6497 223.37017 209.5943 223.1672 208.33595 223.04543 C 207.037 222.92365 205.08858 222.47714 203.952 222.03063 L 201.92239 221.21878 L 204.35792 220.93464 C 207.72707 220.5693 209.39135 219.75746 212.55754 216.9972 C 214.10004 215.69825 216.17024 214.03397 217.22564 213.3033 C 219.29584 211.88258 219.70176 210.98956 218.28103 210.98956 C 217.22564 210.98956 212.8011 209.00054 211.01503 207.7016 C 210.36556 207.25508 209.83786 206.97093 209.83786 207.0927 Z"
                        fill="black"/>
               </g>
            </g>
            <g>
               <g  id="outline-30">
                  <path 
                        d="M 284.93338 208.91935 L 282.2949 209.1629 L 284.2839 209.44705 C 286.63825 209.81238 293.5795 209.7718 295.28438 209.40646 C 296.2992 209.1629 296.09622 209.08172 293.90425 208.83817 C 291.14398 208.55403 289.15496 208.55403 284.93338 208.91935 Z"
                        fill="black"/>
               </g>
            </g>
            <g>
               <g  id="outline-31">
                  <path 
                        d="M 308.6798 211.39548 C 308.2333 211.59844 307.1779 211.7608 306.32545 211.7608 C 305.39183 211.8014 304.86413 211.96377 305.0265 212.20732 C 305.35124 212.73502 307.90855 212.73502 308.92335 212.16673 C 309.654 211.8014 309.6946 211.842 309.45105 212.8974 C 309.00453 214.80522 308.1521 216.59128 307.0561 218.0526 C 305.75716 219.79806 301.81972 221.86826 299.2624 222.193 C 295.7715 222.6801 295.93385 223.12661 299.58715 223.1672 C 302.71275 223.1672 303.24045 223.04543 304.86413 222.03063 C 307.86795 220.0822 310.05993 216.22595 310.10052 212.69443 C 310.10052 210.90837 310.01934 210.82719 308.6798 211.39548 Z"
                        fill="black"/>
               </g>
            </g>
            <g>
               <g  id="outline-32">
                  <path 
                        d="M 76.69554 211.7608 C 76.69554 212.00436 77.14205 212.20732 77.710345 212.20732 C 78.278635 212.20732 79.57758 212.65383 80.63298 213.22213 C 85.13871 215.57647 88.95438 216.75364 93.33833 217.11897 C 100.32018 217.64667 104.25762 217.5249 106.69315 216.71305 L 108.84454 215.9418 L 107.30204 215.73884 C 106.40901 215.65766 104.33881 215.25173 102.63394 214.927 C 100.92907 214.56167 97.51932 214.15575 95.12439 213.99338 C 92.36412 213.831 89.52267 213.3845 87.65543 212.7756 C 84.1645 211.72021 76.69554 211.03015 76.69554 211.7608 Z"
                        fill="black"/>
               </g>
            </g>
            <g>
               <g  id="outline-33">
                  <path 
                        d="M 226.88657 212.20732 C 226.48065 212.49147 226.7242 212.53206 227.69842 212.3697 C 228.8756 212.20732 230.05276 212.61324 234.19316 214.60226 C 236.95343 215.9824 239.47015 217.07838 239.79488 217.07838 C 240.97206 217.07838 233.66546 222.96425 229.52506 225.3186 C 227.41427 226.49576 227.53605 226.49576 231.3923 225.44037 C 234.80205 224.46616 238.09 221.7059 240.89087 217.36253 L 241.58094 216.26654 L 240.52554 216.26654 C 239.95725 216.26654 237.19698 215.25173 234.39612 214.03397 C 229.3627 211.8014 228.02315 211.47666 226.88657 212.20732 Z"
                        fill="black"/>
               </g>
            </g>
            <g>
               <g  id="outline-34">
                  <path 
                        d="M 291.6311 215.08936 C 290.73806 215.49529 289.27674 215.86062 288.3837 215.86062 C 287.00358 215.9012 286.8818 215.9418 287.53128 216.30713 C 288.30253 216.75364 290.9816 216.63187 292.40234 216.02298 C 293.0924 215.77943 293.133 215.86062 292.88944 216.916 C 291.91523 220.73168 289.27674 225.92747 286.55706 229.25603 C 283.63443 232.86874 284.04035 233.0717 287.9372 229.82432 C 291.5905 226.7799 293.01122 223.61372 294.0666 216.14476 C 294.35076 213.95278 294.1884 213.8716 291.6311 215.08936 Z"
                        fill="black"/>
               </g>
            </g>
            <g>
               <g  id="outline-35">
                  <path 
                        d="M 316.18935 220.73168 C 315.8646 220.93464 315.01218 221.1376 314.2815 221.1376 C 312.69842 221.1376 312.2113 221.74648 313.3479 222.35536 C 313.99737 222.6801 314.56566 222.6801 315.4587 222.39596 C 316.14876 222.1524 316.79823 222.03063 316.92 222.1118 C 317.0012 222.2336 316.79823 223.2078 316.3923 224.34438 C 315.66165 226.57695 313.63204 228.68774 311.8054 229.09366 C 308.84217 229.74314 308.6798 229.9867 311.1965 230.02728 C 313.3479 230.06788 313.8756 229.9055 315.01218 228.9719 C 316.59527 227.63235 317.65067 225.3186 318.0566 222.43655 C 318.30014 220.52872 318.25955 220.32575 317.5695 220.32575 C 317.12297 220.32575 316.5141 220.52872 316.18935 220.73168 Z"
                        fill="black"/>
               </g>
            </g>
            <g>
               <g  id="outline-36">
                  <path 
                        d="M 249.6182 221.38115 C 250.83595 221.6653 252.25668 221.90885 252.78438 221.94944 C 253.96155 221.94944 253.92096 222.35536 252.45964 225.39978 C 250.51122 229.49959 248.5628 230.87972 241.90568 232.86874 C 239.34837 233.64 239.30778 233.64 240.89087 233.68058 C 241.7839 233.68058 243.69173 233.5182 245.11246 233.31525 C 249.65878 232.66577 251.85076 230.4738 254.00214 224.34438 L 255.2199 220.93464 L 251.28247 220.89405 L 247.38562 220.85345 L 249.6182 221.38115 Z"
                        fill="black"/>
               </g>
            </g>
            <g>
               <g  id="outline-37">
                  <path 
                        d="M 279.0881 226.61754 C 276.4496 227.3482 275.5566 228.24123 277.82975 227.8759 C 278.72277 227.75412 279.89995 227.51057 280.42765 227.3888 C 281.32067 227.10465 281.36127 227.18583 281.07712 228.48478 C 279.6564 234.97953 275.88132 238.63282 268.37177 240.70302 C 266.54512 241.23072 265.0432 241.71783 265.0432 241.8396 C 265.0432 242.28612 272.55276 241.43368 274.21704 240.8248 C 276.5308 239.97237 279.0881 237.6586 280.26528 235.38545 C 281.28008 233.35584 282.6602 227.42938 282.33548 226.53636 C 282.09192 225.88688 281.686 225.92747 279.0881 226.61754 Z"
                        fill="black"/>
               </g>
            </g>
            <g>
               <g  id="outline-38">
                  <path 
                        d="M 259.4415 226.7799 C 258.79202 227.18583 262.4859 227.75412 265.97683 227.79471 C 267.2352 227.8353 268.2906 227.8759 268.2906 227.95708 C 268.2906 227.99768 267.7629 229.459 267.07282 231.20446 C 265.0838 236.35966 261.30873 239.97237 255.2605 242.57026 C 252.7032 243.70685 252.01313 243.82862 251.0795 243.4633 C 250.47062 243.26033 249.13108 243.09796 248.0757 243.09796 L 246.16785 243.17915 L 248.40042 243.4633 C 249.65878 243.62566 251.1201 243.991 251.6478 244.27514 C 252.2161 244.59987 253.83977 245.24935 255.3011 245.77705 L 257.93958 246.67007 L 254.40806 250.1204 C 252.25668 252.2312 249.6182 254.3014 247.58858 255.47857 C 242.7987 258.27943 243.4076 258.36062 249.41523 255.8033 C 251.6072 254.8697 253.31208 253.7737 254.61103 252.47475 C 256.8436 250.32337 259.9692 245.98 259.56327 245.57409 C 259.4415 245.41172 258.71083 245.37112 257.98018 245.41172 C 257.2901 245.4929 255.7882 245.20876 254.7328 244.76224 L 252.7438 243.991 L 256.3159 243.09796 C 258.26432 242.61086 260.3751 241.96138 260.984 241.63664 C 262.68887 240.7842 265.73328 237.45565 266.7075 235.46663 C 267.6817 233.47762 269.54894 226.98287 269.2242 226.69873 C 269.14302 226.57695 268.49355 226.65813 267.80348 226.9017 C 266.95104 227.22642 265.77387 227.18583 263.82545 226.8611 C 260.53748 226.3334 260.13156 226.3334 259.4415 226.7799 Z"
                        fill="black"/>
               </g>
            </g>
            <g>
               <g  id="outline-39">
                  <path 
                        d="M 185.8073 227.9165 C 186.2944 227.99768 187.02506 227.99768 187.43098 227.9165 C 187.79631 227.79471 187.3904 227.71353 186.49736 227.75412 C 185.60433 227.75412 185.2796 227.8353 185.8073 227.9165 Z"
                        fill="black"/>
               </g>
            </g>
            <g>
               <g  id="outline-40">
                  <path 
                        d="M 188.72993 229.9867 C 186.61914 234.81716 183.29058 237.1309 177.60768 237.61802 C 173.99497 237.94276 174.4009 238.2675 179.069 238.7546 C 181.01742 238.95756 182.1134 238.87638 183.12821 238.47046 C 186.41618 237.09032 189.29822 233.23407 189.82592 229.459 C 189.9477 228.4442 189.9883 227.63235 189.9071 227.63235 C 189.82592 227.63235 189.29822 228.68774 188.72993 229.9867 Z"
                        fill="black"/>
               </g>
            </g>
            <g>
               <g  id="outline-41">
                  <path 
                        d="M 303.60578 228.4442 C 302.63156 228.76893 302.67216 228.76893 303.9305 228.80952 C 305.5542 228.8501 305.5948 229.459 303.9711 231.40742 C 302.30683 233.39643 300.2772 234.41124 295.97445 235.30427 L 292.44293 236.07552 L 296.7457 236.1161 C 300.8049 236.1567 301.08906 236.1161 302.8751 234.97953 C 304.21466 234.1271 305.0265 233.19347 305.83834 231.5292 C 306.44723 230.27084 306.85315 228.9719 306.69078 228.64715 C 306.44723 227.99768 305.27005 227.9165 303.60578 228.4442 Z"
                        fill="black"/>
               </g>
            </g>
            <g>
               <g  id="outline-42">
                  <path 
                        d="M 132.63155 229.9055 C 132.8751 230.31143 132.83451 231.0015 132.59096 231.69156 C 131.61675 234.24887 133.9305 235.22308 134.9859 232.66577 C 135.55419 231.36683 135.5136 231.12327 134.9453 230.23024 C 134.21465 229.09366 131.98208 228.76893 132.63155 229.9055 Z"
                        fill="black"/>
               </g>
            </g>
            <g>
               <g  id="outline-43">
                  <path 
                        d="M 221.85314 230.23024 C 223.19268 230.83913 226.2777 232.94992 229.52506 235.50723 C 231.9606 237.41506 235.20797 238.99815 236.70988 238.99815 C 238.98304 238.99815 239.186 239.44467 237.35935 240.62184 C 236.38514 241.23072 234.5179 242.73263 233.17836 243.9504 C 230.25572 246.62948 226.48065 249.1056 224.24808 249.79567 L 222.6244 250.32337 L 225.1817 250.32337 C 229.20033 250.36396 232.08237 248.5779 236.26336 243.4633 C 237.44054 242.00197 238.7395 240.58125 239.1454 240.2971 C 239.55133 240.01296 239.87607 239.60704 239.87607 239.44467 C 239.87607 239.03875 238.33356 238.38927 235.93863 237.7804 C 234.96441 237.53684 231.79823 235.7102 228.835 233.72117 C 225.7094 231.65097 222.82736 230.02728 222.0155 229.86492 L 220.59479 229.62136 L 221.85314 230.23024 Z"
                        fill="black"/>
               </g>
            </g>
            <g>
               <g  id="outline-44">
                  <path 
                        d="M 315.25573 230.75794 C 314.60625 231.40742 315.09336 231.77275 316.3923 231.61038 C 317.16356 231.5292 317.81303 231.5292 317.81303 231.5698 C 317.81303 232.30045 315.9458 235.0607 314.52507 236.48144 C 312.57664 238.42986 307.90855 240.8654 305.14828 241.3931 L 303.4028 241.75842 L 305.43242 241.8396 C 309.49164 242.08316 311.52125 241.3525 314.64685 238.59223 C 316.55468 236.96854 319.0308 232.78755 319.0308 231.32623 C 319.0308 230.59557 318.78725 230.4738 317.28534 230.4738 C 316.31112 230.4738 315.3775 230.59557 315.25573 230.75794 Z"
                        fill="black"/>
               </g>
            </g>
            <g>
               <g  id="outline-45">
                  <path 
                        d="M 208.01121 238.2675 C 209.35075 238.91697 211.38036 240.09414 212.47635 240.8248 C 214.42478 242.12375 217.79393 243.4633 218.9711 243.4633 C 219.74235 243.4633 217.55037 247.27896 215.92669 248.82146 C 214.74951 249.91745 210.1626 251.54113 207.97062 251.62232 C 207.32115 251.6629 207.93003 251.86587 209.26957 252.06883 C 214.05945 252.7995 217.02267 251.09462 218.9711 246.5077 C 219.62057 245.0464 220.27005 243.8692 220.473 243.8692 C 220.63538 243.8692 220.79775 243.62566 220.79775 243.30092 C 220.79775 242.9356 220.10768 242.65145 218.80873 242.48908 C 217.71274 242.3267 215.76432 241.67724 214.42478 240.94658 C 209.02602 238.06453 206.75286 236.96854 206.18457 237.00914 C 205.85983 237.00914 206.67167 237.57743 208.01121 238.2675 Z"
                        fill="black"/>
               </g>
            </g>
            <g>
               <g  id="outline-46">
                  <path 
                        d="M 288.58667 240.3783 C 288.58667 241.10895 290.69746 241.59605 293.0518 241.3525 C 294.95964 241.19013 295.122 241.67724 293.90425 243.70685 C 292.80826 245.4929 289.9668 246.75126 286.23233 247.076 C 283.2285 247.36014 283.14732 247.40073 284.7304 247.72547 C 285.62344 247.92843 287.4501 248.0908 288.83022 248.0908 C 290.94102 248.1314 291.5093 247.96902 292.80826 246.95422 C 294.55372 245.61468 295.6091 243.54448 295.40616 241.67724 C 295.28438 240.41888 295.28438 240.41888 292.84885 240.3783 C 291.5093 240.3377 289.9668 240.21592 289.4797 240.05355 C 288.83022 239.8506 288.58667 239.93177 288.58667 240.3783 Z"
                        fill="black"/>
               </g>
            </g>
            <g>
               <g  id="outline-47">
                  <path 
                        d="M 190.75954 241.3119 C 192.82974 241.63664 198.83738 243.991 200.01456 244.9246 C 200.21752 245.0464 196.97014 249.87686 195.87415 251.09462 C 193.72277 253.53015 190.63776 254.13903 186.21322 252.96186 C 182.47874 252.02824 183.00644 252.51535 186.98447 253.7737 C 191.24665 255.07265 192.0179 255.07265 194.29106 253.97666 C 196.1583 253.08364 197.6602 251.37877 199.48686 248.1314 C 200.13633 246.9948 200.98877 245.69586 201.43528 245.20876 C 202.4095 244.11277 202.04416 243.4633 200.46107 243.4633 C 199.771 243.4633 198.67501 243.17915 197.98495 242.81382 C 195.99593 241.799 193.11389 241.02776 191.36842 241.06835 C 190.31303 241.10895 190.11007 241.19013 190.75954 241.3119 Z"
                        fill="black"/>
               </g>
            </g>
            <g>
               <g  id="outline-48">
                  <path 
                        d="M 124.5943 246.10178 C 128.16641 246.75126 132.06326 246.87303 131.04846 246.30474 C 130.68313 246.10178 128.40997 245.85823 125.97444 245.73645 L 121.54989 245.5335 L 124.5943 246.10178 Z"
                        fill="black"/>
               </g>
            </g>
            <g>
               <g  id="outline-49">
                  <path 
                        d="M 121.14397 247.1166 C 120.9816 247.36014 121.38752 247.5225 122.07759 247.5225 C 122.72706 247.5225 124.71608 247.6037 126.46154 247.72547 C 128.7753 247.84725 129.2624 247.80665 128.2476 247.5631 C 125.73088 246.95422 121.42811 246.67007 121.14397 247.1166 Z"
                        fill="black"/>
               </g>
            </g>
            <g>
               <g  id="outline-50">
                  <path 
                        d="M 232.56948 250.76988 C 231.83882 251.257 232.4883 251.257 233.58428 250.76988 C 234.11198 250.52633 234.19316 250.40455 233.78724 250.40455 C 233.4625 250.40455 232.8942 250.56692 232.56948 250.76988 Z"
                        fill="black"/>
               </g>
            </g>
         </g>
      </g>
   </g>
</svg>