<?xml version="1.0" encoding="UTF-8" standalone="no"?>
<svg
   xmlns:dc="http://purl.org/dc/elements/1.1/"
   xmlns:cc="http://creativecommons.org/ns#"
   xmlns:rdf="http://www.w3.org/1999/02/22-rdf-syntax-ns#"
   xmlns:svg="http://www.w3.org/2000/svg"
   xmlns="http://www.w3.org/2000/svg"
   id="svg49526"
   version="1.1"
   viewBox="0 0 8.5725001 11.5711"
   height="11.5711mm"
   width="8.5725002mm">
  <defs
     id="defs49520" />
  <metadata
     id="metadata49523">
    <rdf:RDF>
      <cc:Work
         rdf:about="">
        <dc:format>image/svg+xml</dc:format>
        <dc:type
           rdf:resource="http://purl.org/dc/dcmitype/StillImage" />
        <dc:title></dc:title>
        <dc:creator>
          <cc:Agent>
            <dc:title>sourceforge yimyom</dc:title>
          </cc:Agent>
        </dc:creator>
      </cc:Work>
    </rdf:RDF>
  </metadata>
  <g
     transform="translate(180.15335,4.873189)"
     id="layer1">
    <g
       id="black_joker"
       transform="matrix(0.26458333,0,0,0.26458333,-224.58259,-173.92076)">
      <g
         id="jack_club"
         transform="translate(-1662.1981,898.14537)">
        <g
           id="queen_club"
           transform="translate(-166.6033,-58.381306)">
          <g
             id="king_club"
             transform="translate(-193.38167,-27.061581)">
            <g
               id="2_club"
               transform="translate(1875.659,-59.80817)">
              <g
                 id="1_diamond"
                 transform="translate(163.34193,-306.94132)">
                <g
                   id="1_heart"
                   transform="translate(25.316531,-245.4638)">
                  <g
                     id="1_spade"
                     transform="translate(58.199546,-144.71113)">
                    <g
                       transform="matrix(-2.4,0,0,-2.4,83.787602,607.84319)"
                       id="use36514">
                      <path
                         d="m 3.92,-7.93 c -1.67,0 -2.55,1.78 -3.01,3.56 -0.46,1.78 -0.5,3.56 -0.5,3.56 l -0.85,0.01 c 0,0 -0.16,-7.13 -3.5,-7.13 z"
                         id="path46258" />
                      <path
                         d="M 6.75,-0.8 C 6.74,2.67 1.53,5.19 0,7.93 -1.53,5.18 -6.74,2.66 -6.75,-0.8 c 0,-1.64 1.51,-2.97 3.38,-2.97 1.86,0 3.37,1.33 3.37,2.97 0,-1.64 1.51,-2.97 3.38,-2.97 1.87,0 3.37,1.33 3.37,2.97 z"
                         id="path46260" />
                    </g>
                  </g>
                </g>
              </g>
            </g>
          </g>
        </g>
      </g>
    </g>
  </g>
</svg>
