<?xml version="1.0" encoding="UTF-8" standalone="no"?>
<!DOCTYPE svg PUBLIC "-//W3C//DTD SVG 1.1//EN" "http://www.w3.org/Graphics/SVG/1.1/DTD/svg11.dtd">
<svg xmlns:dc="http://purl.org/dc/elements/1.1/" xmlns:xl="http://www.w3.org/1999/xlink" version="1.1" xmlns="http://www.w3.org/2000/svg" viewBox="33.248434 81 299.75157 198.1316" width="299.75157" height="198.1316">

  <metadata> Produced by OmniGraffle 7.7.1 
    <dc:date>2018-03-13 06:46:41 +0000</dc:date><dc:title>Traceable heraldic art http://heraldicart.org/credits.html</dc:title>
  </metadata>
  <g id="Lamp,_Arabian" fill-opacity="1" stroke-dasharray="none" stroke="none" stroke-opacity="1" fill="#ffff00">
    <title>Lamp, Arabian</title>
    <g id="Lamp,_Arabian: Layer 2" >
      <title>Layer 2</title>
      <g id="Group_3">
        <g id="Graphic_11">
          <path d="M 292.2838 172.35648 C 264.6361 169.8806 233.89416 143.26472 233.89416 137.28172 L 156.52245 137.28172 C 156.52245 143.26472 125.7805 169.8806 98.13343 172.35648 L 292.2807 172.35648 Z" fill="#ff0000"/>
          <path d="M 292.2838 172.35648 C 264.6361 169.8806 233.89416 143.26472 233.89416 137.28172 L 156.52245 137.28172 C 156.52245 143.26472 125.7805 169.8806 98.13343 172.35648 L 292.2807 172.35648 Z" stroke="#cccccc" stroke-linecap="round" stroke-linejoin="round" stroke-width="2"/>
        </g>
        <g id="Graphic_10">
          <path d="M 86.54686 144.33926 C 93.97454 162.5996 111.46055 201.90443 139.31436 214.28329 C 89.02275 214.28329 71.22726 179.00179 58.22881 164.4559 C 45.23036 149.91002 41.207033 147.43289 36.874217 144.33864 L 86.54686 144.33864 Z" fill="#ff0000"/>
          <path d="M 86.54686 144.33926 C 93.97454 162.5996 111.46055 201.90443 139.31436 214.28329 C 89.02275 214.28329 71.22726 179.00179 58.22881 164.4559 C 45.23036 149.91002 41.207033 147.43289 36.874217 144.33864 L 86.54686 144.33864 Z" stroke="#cccccc" stroke-linecap="round" stroke-linejoin="round" stroke-width="2"/>
        </g>
        <g id="Graphic_9">
          <circle cx="195.21016" cy="97.97318" r="12.5317615024462" fill="#ff0000"/>
          <circle cx="195.21016" cy="97.97318" r="12.5317615024462" stroke="#cccccc" stroke-linecap="butt" stroke-linejoin="round" stroke-width="2"/>
        </g>
        <g id="Graphic_8">
          <path d="M 157.34565 137.28172 C 165.817 120.29275 179.83051 110.50492 195.68178 110.50492 C 211.53363 110.50492 225.5454 120.29213 234.01734 137.28172 L 157.34507 137.28172 Z" fill="#ff0000"/>
          <path d="M 157.34565 137.28172 C 165.817 120.29275 179.83051 110.50492 195.68178 110.50492 C 211.53363 110.50492 225.5454 120.29213 234.01734 137.28172 L 157.34507 137.28172 Z" stroke="#cccccc" stroke-linecap="round" stroke-linejoin="round" stroke-width="2"/>
        </g>
        <g id="Graphic_7">
          <path d="M 279.81564 205.04816 C 286.07836 207.69688 290.8833 214.05978 290.8833 221.2872 C 290.8833 230.92358 283.0711 238.73522 273.4353 238.73522 C 263.79948 238.73522 255.98727 230.92358 255.98727 221.2872 C 255.98727 214.86464 260.39768 210.46661 264.62517 206.22337 C 277.09206 193.70582 312.83237 163.03107 312.83237 142.206 C 312.83237 122.31132 302.20933 107.59138 285.11252 107.59138 C 273.74204 107.59138 266.71443 114.32913 261.33256 124.96061 C 270.62335 124.96061 278.15583 132.49252 278.15583 141.78388 C 278.15583 151.07523 270.62335 158.60659 261.33256 158.60659 C 252.04177 158.60659 245.56968 151.015 244.5093 141.78388 C 240.6634 108.29212 263.02108 92.11273 286.94175 92.11273 C 310.37613 92.11273 329.3742 114.35108 329.3742 141.78388 C 329.3742 171.75508 291.44447 190.70588 279.8162 205.04703 Z" fill="#ff0000"/>
          <path d="M 279.81564 205.04816 C 286.07836 207.69688 290.8833 214.05978 290.8833 221.2872 C 290.8833 230.92358 283.0711 238.73522 273.4353 238.73522 C 263.79948 238.73522 255.98727 230.92358 255.98727 221.2872 C 255.98727 214.86464 260.39768 210.46661 264.62517 206.22337 C 277.09206 193.70582 312.83237 163.03107 312.83237 142.206 C 312.83237 122.31132 302.20933 107.59138 285.11252 107.59138 C 273.74204 107.59138 266.71443 114.32913 261.33256 124.96061 C 270.62335 124.96061 278.15583 132.49252 278.15583 141.78388 C 278.15583 151.07523 270.62335 158.60659 261.33256 158.60659 C 252.04177 158.60659 245.56968 151.015 244.5093 141.78388 C 240.6634 108.29212 263.02108 92.11273 286.94175 92.11273 C 310.37613 92.11273 329.3742 114.35108 329.3742 141.78388 C 329.3742 171.75508 291.44447 190.70588 279.8162 205.04703 Z" stroke="#cccccc" stroke-linecap="round" stroke-linejoin="round" stroke-width="2"/>
        </g>
        <g id="Graphic_6">
          <path d="M 101.2871 172.35648 C 115.45726 206.34804 152.16116 230.56477 195.21016 230.56477 C 238.2567 230.56477 274.95874 206.34804 289.13323 172.35648 Z" fill="#ff0000"/>
          <path d="M 101.2871 172.35648 C 115.45726 206.34804 152.16116 230.56477 195.21016 230.56477 C 238.2567 230.56477 274.95874 206.34804 289.13323 172.35648 Z" stroke="#cccccc" stroke-linecap="round" stroke-linejoin="round" stroke-width="2"/>
        </g>
        <g id="Graphic_5">
          <path d="M 164.88045 241.08732 C 160.94873 241.08732 157.76226 237.90085 157.76226 233.96913 C 157.76226 230.0374 160.94873 226.85093 164.88045 226.85093 L 225.53988 226.85093 C 229.47098 226.85093 232.65807 230.0374 232.65807 233.96913 C 232.65807 237.90085 229.47098 241.08732 225.53988 241.08732 Z" fill="#ff0000"/>
          <path d="M 164.88045 241.08732 C 160.94873 241.08732 157.76226 237.90085 157.76226 233.96913 C 157.76226 230.0374 160.94873 226.85093 164.88045 226.85093 L 225.53988 226.85093 C 229.47098 226.85093 232.65807 230.0374 232.65807 233.96913 C 232.65807 237.90085 229.47098 241.08732 225.53988 241.08732 Z" stroke="#cccccc" stroke-linecap="round" stroke-linejoin="round" stroke-width="2"/>
        </g>
        <g id="Graphic_4">
          <path d="M 98.13652 274.69017 L 292.2838 274.69017 L 292.2838 263.0844 C 264.6361 260.45377 233.89416 244.64147 233.89416 241.08732 L 156.52245 241.08732 C 156.52245 244.64147 125.7805 260.45377 98.13343 263.0844 L 98.13343 274.69017 Z" fill="#ff0000"/>
          <path d="M 98.13652 274.69017 L 292.2838 274.69017 L 292.2838 263.0844 C 264.6361 260.45377 233.89416 244.64147 233.89416 241.08732 L 156.52245 241.08732 C 156.52245 244.64147 125.7805 260.45377 98.13343 263.0844 L 98.13343 274.69017 Z" stroke="#cccccc" stroke-linecap="round" stroke-linejoin="round" stroke-width="2"/>
        </g>
      </g>
    </g>
  </g>
</svg>
