<?xml version="1.0" encoding="utf-8"?>
<svg xmlns:xl="http://www.w3.org/1999/xlink" xmlns="http://www.w3.org/2000/svg"
     xmlns:dc="http://purl.org/dc/elements/1.1/"
     xmlns:xlink="http://www.w3.org/1999/xlink"
     version="1.1"
     viewBox="45 60.75 274.5 297"
     width="274.5"
     height="297"
     preserveAspectRatio="xMidYMid meet"
     zoomAndPan="magnify"
     contentScriptType="application/ecmascript"
     contentStyleType="text/css">
   <defs/>
   <metadata  xmlns:svg="http://www.w3.org/2000/svg"
             xmlns:rdf="http://www.w3.org/1999/02/22-rdf-syntax-ns#"
             xmlns:cc="http://creativecommons.org/ns#">
      <rdf:RDF>
         <cc:Work rdf:about="">
            <dc:creator>
               <cc:Agent>
                  <dc:title>http://heraldicart.org Bathtub (2).svg</dc:title>
               </cc:Agent>
            </dc:creator>
         </cc:Work>
      </rdf:RDF>
   </metadata>
   <g fill-opacity="1" stroke-opacity="1" stroke="#505050" stroke-dasharray="none"
      fill="#ffff00">
      <title>Bathtub (2)</title>
      <g>
         <title>Art</title>
         <g>
            <g>
               <g  id="outline-0">
                  <path 
                        d="M 95.71148 64.61548 C 94.27968 65.1882 92.67606 65.70365 92.10334 65.70365 C 90.09882 65.81819 78.24353 71.60266 74.57812 74.29444 C 72.51633 75.84079 69.366374 77.90258 67.648215 78.99074 C 65.93006 80.02164 63.29555 81.85434 61.86375 82.99978 C 60.43195 84.20249 58.541974 85.34793 57.62562 85.57702 C 55.27747 86.14974 51.49752 90.21605 50.23754 93.42328 C 49.263916 96.00052 49.263916 96.28688 50.18027 98.57775 C 50.695715 99.89501 52.413874 102.93042 53.960217 105.39312 C 56.59473 109.40216 59.05742 114.84299 61.11921 121.25745 C 61.57739 122.63198 61.92102 125.66739 61.92102 127.95827 C 61.92102 133.57092 65.07098 142.50535 68.62184 147.20165 C 69.99637 149.03435 71.37089 150.52342 71.65725 150.52342 C 71.94361 150.52342 73.54723 151.66886 75.20811 153.10066 C 76.869 154.53246 78.58716 155.96426 78.93079 156.3079 C 79.3317 156.59425 79.67533 157.79696 79.67533 158.9424 C 79.67533 160.03057 80.30532 163.29507 81.04985 166.21594 C 81.79439 169.07954 82.65347 173.31766 83.05437 175.60854 C 83.45528 178.3576 84.48617 181.33574 86.03252 184.4857 L 88.43794 189.182 L 88.95339 202.6409 C 89.5261 215.87073 89.5261 238.6077 89.01066 239.46678 C 88.89611 239.69587 85.68888 239.86768 81.96621 239.86768 C 75.20811 239.86768 75.09357 239.86768 73.26087 241.52857 C 71.48544 243.0749 71.37089 243.47582 71.37089 246.85486 C 71.428165 251.093 72.63088 253.78477 75.0363 254.98748 C 78.12898 256.5911 83.28346 261.86012 84.65799 264.781 C 86.31887 268.38912 86.31887 270.22182 84.60072 275.1472 C 83.85618 277.32355 83.05437 280.75986 82.82529 282.82165 C 82.13802 289.40793 78.3008 301.7214 75.72356 305.73044 C 74.40631 307.73496 73.37541 309.79675 73.37541 310.3122 C 73.37541 312.3167 78.87352 315.86758 89.1252 320.44933 C 107.96768 328.9256 107.85313 328.8683 108.9413 326.8638 C 109.85765 325.14563 115.69939 308.4795 116.38665 305.55862 C 116.67301 304.3559 117.64664 302.06503 118.56299 300.40415 C 119.99479 297.8269 122.51475 289.6943 124.462 281.21804 C 124.74836 279.8435 125.37835 278.58353 125.83653 278.4117 C 126.2947 278.2399 128.3565 278.52626 130.41829 279.0417 C 133.28188 279.78624 151.15074 281.56167 156.70612 281.6762 C 158.53882 281.7335 158.65336 282.5353 157.73701 287.97613 C 156.70612 293.9324 156.64884 296.10875 157.27884 303.3823 C 157.5652 306.2459 157.45065 310.0831 157.10702 312.83216 C 156.36248 318.15845 155.15977 352.86526 155.61795 354.12525 C 156.1334 355.38523 168.1605 355.32796 172.74226 354.0107 C 174.63224 353.49525 177.09493 353.15162 178.1831 353.26617 C 179.27127 353.3807 182.76486 353.438 185.91482 353.3807 C 189.06477 353.32344 193.87562 353.32344 196.62467 353.32344 C 204.18457 353.26617 204.98638 351.66255 202.46641 341.81177 C 200.92007 335.91276 200.92007 335.4546 200.57644 312.43126 C 200.40462 299.54507 200.40462 288.54885 200.6337 287.97613 C 201.37825 286.0289 203.55458 285.22708 210.54176 284.31073 C 214.3217 283.79528 219.18983 282.87893 221.42343 282.24893 C 229.38423 279.95806 230.52967 280.7026 231.1024 288.54885 C 231.33148 291.527 231.96147 295.24967 232.47692 296.8533 C 234.1378 301.7214 239.75046 311.05673 242.44224 313.4049 C 243.81677 314.55032 246.394 316.78393 248.2267 318.33027 C 250.00214 319.9339 251.66303 321.19387 251.89212 321.19387 C 252.06393 321.19387 257.27568 320.2775 263.46105 319.13208 C 271.47913 317.70028 276.06088 316.55484 279.43993 315.12304 C 289.2907 311.05673 289.46252 310.42674 282.87625 302.63775 C 280.929 300.40415 278.80994 297.2542 278.00813 295.70785 C 277.2636 294.10423 276.06088 291.98517 275.25908 290.95427 C 274.51454 289.8661 273.71273 287.91886 273.48364 286.48706 C 273.31183 285.11253 272.22366 282.5353 271.19277 280.75986 C 268.78734 276.8081 268.73007 275.66266 270.9064 274.91812 C 272.1664 274.45995 272.9682 273.42905 274.28545 270.68 C 275.37362 268.33185 276.57633 266.72823 277.60723 266.2128 C 278.4663 265.7546 280.1272 263.86464 281.3299 262.03193 C 283.33442 258.93925 283.44897 258.4238 283.1626 255.73202 C 282.93352 253.4984 282.47534 252.4675 281.44445 251.60844 C 280.6999 250.97844 278.98175 249.60392 277.72177 248.6303 C 276.4618 247.5994 274.05636 246.33941 272.3382 245.82397 C 270.39096 245.25125 269.24552 244.62126 269.24552 244.1058 C 269.24552 243.59036 270.39096 238.03498 271.7655 231.6778 C 273.1973 225.3206 275.14453 215.87073 276.11815 210.65898 C 277.09178 205.44723 278.17995 200.57912 278.4663 199.83458 C 278.80994 199.09005 279.43993 195.19555 279.8981 191.24379 C 280.35628 187.29202 281.44445 179.50304 282.30353 174.00493 L 283.90714 163.92506 L 287.74436 159.22876 C 293.92973 151.61159 294.67427 149.43526 293.0134 143.87988 C 292.03976 140.5581 291.9252 137.6945 292.72702 136.14816 C 293.07066 135.51817 293.87246 133.17002 294.4452 130.87914 C 296.0488 124.92286 299.9433 115.2439 302.29144 111.57849 C 302.9787 110.49032 303.8378 108.31399 304.1814 106.82492 C 304.46778 105.33585 305.38413 103.10224 306.0714 101.9568 C 307.4459 99.83774 310.08043 93.19419 310.7677 90.27332 C 310.99678 89.47151 312.02767 87.40972 313.11584 85.74884 C 315.34945 82.25525 315.52126 81.10981 314.0322 79.62074 C 312.94403 78.53257 301.776 74.75262 297.59514 74.065355 C 296.33516 73.83627 293.5861 73.09173 291.46704 72.3472 C 286.6562 70.68631 280.98627 69.4836 270.67732 68.10907 C 261.28472 66.79182 261.68562 66.62 258.59293 72.7481 C 257.27568 75.32534 256.6457 77.4444 256.6457 79.04802 C 256.6457 82.08343 253.61027 86.89427 251.66303 86.95155 C 250.97576 86.95155 249.71578 87.58154 248.8567 88.32607 L 247.2531 89.64333 L 242.55679 88.61243 C 233.39327 86.60791 215.3526 85.06157 206.53272 85.57702 C 204.01276 85.69156 194.62015 85.92065 185.62846 86.09247 C 167.87415 86.37883 156.24794 87.00882 144.679 88.32607 C 138.89454 88.95607 135.17186 89.75787 127.84105 92.04875 C 118.44845 95.02689 117.5321 95.08416 117.47482 92.9651 C 117.47482 92.62147 116.32938 91.18967 114.89758 89.81514 L 112.32035 87.29518 L 112.66398 83.74432 C 112.95034 81.28162 112.77852 79.39165 112.14853 77.4444 C 111.63308 75.89806 111.06036 73.09173 110.88855 71.20176 C 110.43037 66.62 109.57129 64.61548 107.9104 63.98549 C 105.50498 63.06914 98.5178 63.41277 95.71148 64.61548 Z"
                        fill="black"/>
               </g>
            </g>
            <g>
               <path d="M 106.42133 67.59362 C 106.76497 67.99453 107.16587 70.05632 107.39496 72.17538 C 107.56677 74.29444 108.13949 76.986225 108.5404 78.18894 C 109.05584 79.67801 109.22766 81.79707 108.99857 84.6034 L 108.71221 88.72698 L 111.34672 91.41876 C 112.72125 92.90783 114.32486 94.96962 114.84031 95.94324 C 115.35576 96.97414 116.04302 97.83322 116.32938 97.83322 C 116.67301 97.83322 116.9021 98.6923 116.9021 99.78047 C 116.9021 101.21226 117.41755 102.30043 118.84935 103.7895 C 121.02568 106.13765 121.31204 106.13765 128.87194 104.99221 C 131.85008 104.53404 136.7182 104.01859 139.63907 103.7895 C 143.41902 103.50314 145.7099 103.04497 147.1417 102.24316 C 149.14622 101.15499 150.74983 101.04045 173.8877 100.63955 C 198.68646 100.1241 207.56362 100.41046 224.85975 102.07134 C 229.61332 102.52952 236.42869 103.10224 240.03682 103.33133 L 246.68037 103.73223 L 249.0858 100.98318 C 251.7203 98.00504 252.57938 95.14144 251.54848 92.90783 C 250.6894 90.96058 250.63213 91.07513 253.1521 90.38786 C 254.69844 89.98696 255.7866 89.18515 256.58842 87.92517 C 257.27568 86.95155 258.30657 85.29066 258.93657 84.37431 C 259.62383 83.34341 260.082 81.68253 260.082 80.193455 C 260.082 77.50167 263.06015 70.9154 264.26286 70.9154 C 264.6065 70.9154 268.4437 71.430845 272.7391 72.06084 C 281.50172 73.26355 287.11437 74.46626 290.1498 75.78351 C 291.29522 76.24169 294.15882 76.986225 296.56425 77.50167 C 301.146 78.4753 309.85134 81.10981 310.65315 81.79707 C 310.9395 82.02616 310.3668 83.45796 309.39316 84.94703 C 308.41954 86.49337 307.4459 88.61243 307.2741 89.64333 C 307.1023 90.67422 306.7014 91.70512 306.41502 91.87694 C 306.12866 92.04875 305.89957 92.67874 305.89957 93.25146 C 305.89957 93.82418 304.86868 96.34415 303.6087 98.80684 C 302.29144 101.26954 301.03146 104.4195 300.68783 105.79402 C 300.40147 107.16855 299.65693 109.00125 299.0842 109.80306 C 297.2515 112.3803 292.49794 124.06378 291.29522 128.76008 C 290.83705 130.47824 289.86343 133.57092 289.1189 135.68999 C 287.80164 139.35539 287.74436 139.41266 286.31256 138.78267 C 285.2244 138.38177 284.93804 137.9236 285.28167 137.35087 C 285.51076 136.8927 286.6562 133.6282 287.8589 130.19188 C 289.06162 126.69829 290.7225 122.46016 291.5816 120.742 C 293.87246 116.10297 296.73606 108.82944 296.73606 107.45491 C 296.73606 106.82492 297.36605 104.8204 298.1106 103.04497 C 298.85512 101.26954 300.00056 98.2914 300.63055 96.40142 C 301.26055 94.51145 302.46326 91.18967 303.26506 89.07061 C 304.12414 86.837 304.75414 84.03068 304.75414 82.48433 L 304.75414 79.79255 L 303.55142 81.22435 C 301.9478 83.22887 300.22965 86.66519 298.9124 90.33059 C 298.33968 92.10602 297.2515 94.45417 296.4497 95.54234 C 295.70517 96.63051 294.7888 98.6923 294.4452 100.1241 C 293.4143 104.01859 289.9207 113.35392 288.6607 115.41571 C 288.03072 116.4466 286.94256 119.65384 286.19802 122.63198 C 285.4535 125.61012 284.4226 128.64553 283.9644 129.39007 C 283.44897 130.1346 282.64716 132.5973 282.1317 134.8309 C 281.27263 138.61086 280.98627 139.1263 278.40903 141.30264 C 274.5718 144.56714 272.39548 145.71258 268.10008 146.80075 C 266.09556 147.3162 263.7474 148.23255 262.88833 148.86254 C 260.8838 150.29434 253.26664 152.64249 248.51307 153.32975 C 246.45128 153.61611 244.04586 154.30337 243.24405 154.81882 C 241.46862 156.02153 230.81603 157.1097 213.06173 157.96878 C 201.14916 158.5415 169.53503 157.85423 166.44235 156.93788 C 165.46873 156.65152 161.8606 156.19335 158.42427 155.96426 C 154.93068 155.73517 150.97892 155.21972 149.54712 154.81882 C 140.78451 152.24158 131.50645 149.89343 127.78377 149.37798 C 125.43562 149.03435 121.94203 148.28982 119.99479 147.65983 C 118.10481 147.0871 115.29849 146.39984 113.75214 146.17075 C 112.2058 145.94167 109.85765 145.31168 108.5404 144.73896 C 107.22314 144.10896 103.72955 143.13534 100.75141 142.56262 C 97.83054 141.93263 93.99332 140.90173 92.27516 140.27174 C 86.89159 138.20995 79.38897 134.14364 79.56078 133.34184 C 79.78987 132.25367 78.58716 128.7028 77.09809 126.4692 C 76.41083 125.32376 75.37993 122.97561 74.86448 121.20018 C 74.349035 119.42475 73.31814 117.24841 72.63088 116.33206 C 71.25635 114.67118 67.075496 106.48129 67.075496 105.45039 C 67.075496 105.10676 66.27369 103.84678 65.300065 102.64406 C 64.32644 101.44135 62.951915 99.0932 62.15011 97.54686 C 61.40557 95.94324 59.9165 93.76691 58.77106 92.67874 L 56.76654 90.7315 L 56.76654 92.44965 C 56.823815 93.93873 57.969254 96.8596 60.031045 100.41046 C 60.77558 101.72771 64.154626 108.94398 65.70097 112.72393 C 66.33096 114.09846 67.82003 116.84751 69.080015 118.79476 C 70.34 120.68473 72.11543 123.94923 73.03178 125.95375 C 73.94813 127.95827 75.0363 130.30642 75.49447 131.1655 L 76.29628 132.76912 L 74.69267 132.13912 C 73.83359 131.7955 71.428165 131.33732 69.366374 131.1655 L 65.6437 130.7646 L 65.300065 125.61012 C 65.12825 122.74652 64.49826 119.42475 63.98281 118.16477 C 63.41009 116.90478 62.32192 114.09846 61.520116 111.92212 C 60.71831 109.74579 58.65652 105.79402 56.88109 103.10224 C 54.41839 99.43683 53.616585 97.77595 53.616585 96.17233 C 53.616585 93.30873 55.79292 90.50241 59.00015 89.12788 C 60.43195 88.49789 62.43647 87.23791 63.35282 86.37883 C 64.32644 85.51975 67.24731 83.45796 69.82455 81.85434 C 72.45906 80.25073 75.72356 78.01712 77.04082 76.986225 C 79.50351 74.924435 91.47335 69.19724 93.24878 69.19724 C 93.8215 69.19724 95.31057 68.68179 96.57056 68.10907 C 99.26234 66.79182 105.56225 66.50546 106.42133 67.59362 Z"/>
            </g>
            <g>
               <g  id="feature-0">
                  <path 
                        d="M 227.437 90.38786 C 236.42869 91.30422 247.08127 93.19419 247.94035 93.996 C 248.8567 94.96962 248.11217 97.03141 246.16492 98.86411 L 244.7904 100.18137 L 233.966 99.26502 C 228.0097 98.80684 220.96526 98.06231 218.27347 97.6614 C 214.77988 97.14596 204.41366 97.03141 181.33306 97.14596 C 150.17711 97.2605 149.20349 97.31777 146.96988 98.46321 C 145.42354 99.32229 142.78903 99.83774 138.66545 100.23864 C 135.34367 100.525 130.36101 101.09772 127.61196 101.49862 C 122.97293 102.18589 122.45748 102.12862 121.31204 101.21226 C 120.10933 100.23864 120.10933 100.18137 121.08296 99.0932 C 122.51475 97.48959 124.23291 96.91687 131.73554 95.54234 C 135.34367 94.85508 139.1809 93.93873 140.26906 93.48055 C 141.35723 93.02237 143.30448 92.67874 144.62173 92.67874 C 145.93899 92.67874 148.40168 92.27784 150.11984 91.81966 C 152.29617 91.24694 158.7679 90.78877 171.0241 90.38786 C 180.81761 90.04423 189.06477 89.64333 189.35113 89.52878 C 190.32476 89.07061 221.19434 89.75787 227.437 90.38786 Z"
                        fill="#ff0000"/>
               </g>
            </g>
            <g>
               <g  id="feature-1">
                  <path 
                        d="M 81.39349 139.29812 C 91.35881 143.99442 94.05059 144.96804 100.40778 146.17075 C 102.87047 146.62893 106.0777 147.54528 107.5095 148.23255 C 108.99857 148.86254 111.8049 149.66434 113.75214 149.9507 C 115.69939 150.23706 118.44845 150.92433 119.82297 151.3825 C 121.1975 151.89795 124.69109 152.64249 127.61196 153.10066 C 132.25099 153.78793 138.72272 155.39154 148.45895 158.31241 C 149.94802 158.71331 153.44161 159.22876 156.19067 159.45785 C 158.997 159.62967 163.63602 160.08784 166.44235 160.54602 C 170.45139 161.11874 193.99016 162.2069 202.81004 162.14963 C 205.5591 162.14963 226.06246 160.88965 233.7369 160.20239 C 239.75046 159.7442 242.15588 159.28603 244.44676 158.19787 C 246.05038 157.45333 248.28398 156.82334 249.37215 156.82334 C 252.06393 156.82334 261.80016 153.78793 264.89285 151.95522 C 266.2101 151.15342 267.92826 150.52342 268.61553 150.52342 C 270.67732 150.52342 276.80542 147.37347 280.1272 144.56714 C 281.84535 143.13534 283.62078 141.93263 284.07896 141.93263 C 285.2244 141.93263 288.6607 144.16624 289.2907 145.36895 C 289.63434 145.94167 289.86343 147.3162 289.86343 148.46163 C 289.86343 151.61159 287.57255 153.32975 278.2945 157.28152 C 269.0737 161.176 265.46557 162.2069 258.30657 163.06598 C 254.9848 163.46689 252.46483 164.09688 250.63213 165.0705 C 249.14306 165.92958 247.1958 166.55957 246.33673 166.55957 C 245.53493 166.55957 243.70222 166.96048 242.27043 167.41865 C 235.45506 169.65226 203.38276 170.85497 190.21021 169.30863 C 187.23207 168.965 182.70759 168.67864 180.18762 168.62136 C 177.61038 168.5641 175.26223 168.335 174.9186 168.10592 C 174.57497 167.87683 171.0241 167.41865 167.12961 167.1323 C 163.17785 166.78866 158.88245 166.15867 157.62247 165.7005 C 156.36248 165.29959 152.29617 164.61233 148.5735 164.2687 C 144.85082 163.92506 140.89905 163.40961 139.81089 163.12326 C 138.72272 162.8369 133.56824 161.806 128.3565 160.83238 C 123.14475 159.91603 116.21484 158.48423 112.89306 157.68242 C 109.57129 156.88061 106.13497 156.25062 105.21862 156.25062 C 103.55774 156.25062 100.40778 155.39154 91.70244 152.52794 C 89.29702 151.72613 86.49069 151.09614 85.40252 151.09614 C 82.93983 151.09614 73.94813 146.6862 73.08905 145.08259 C 72.80269 144.4526 71.65725 142.96352 70.68363 141.81809 C 68.96547 139.81357 67.075496 136.20543 67.075496 134.88818 C 67.075496 133.51365 73.03178 135.34635 81.39349 139.29812 Z"
                        fill="#ff0000"/>
               </g>
            </g>
            <g>
               <path d="M 92.27516 156.59425 C 94.96694 157.39606 98.28871 158.36968 99.72051 158.82786 C 101.15231 159.22876 103.72955 159.7442 105.44771 159.9733 C 107.16587 160.14511 111.69035 161.06146 115.4703 161.97782 C 119.25025 162.89417 124.80563 164.0396 127.84105 164.55505 C 130.87646 165.01323 135.80185 165.92958 138.72272 166.5023 C 141.70086 167.1323 146.45443 167.81956 149.26076 168.04864 C 152.12436 168.27773 155.44613 168.79318 156.64884 169.19408 C 157.90883 169.65226 162.0324 170.28225 165.81236 170.5686 C 169.64958 170.91224 173.54407 171.42769 174.57497 171.77132 C 175.5486 172.05768 177.83947 172.28677 179.72944 172.2295 C 181.56215 172.17223 184.99846 172.40131 187.34661 172.74494 C 189.69477 173.08858 197.71284 173.54675 205.10092 173.71857 C 216.61259 174.0622 220.16345 173.94766 229.72787 172.91676 C 235.85597 172.2295 242.15588 171.31315 243.70222 170.85497 C 245.24857 170.3968 247.08127 169.9959 247.76853 169.9959 C 248.4558 169.9959 250.2885 169.30863 251.83484 168.50682 C 253.72482 167.47592 256.07297 166.9032 259.22293 166.55957 C 265.35103 165.92958 270.1046 164.6696 276.51906 161.92054 C 282.5326 159.40058 282.9908 159.28603 281.61626 160.7751 C 280.47082 162.03509 279.15357 169.07954 278.40903 177.84215 C 278.12267 181.393 277.60723 184.77206 277.32087 185.40205 C 276.97723 186.03204 276.69087 187.40657 276.69087 188.43746 C 276.69087 190.3847 275.6027 196.341 274.45727 200.92275 C 273.3691 205.1036 267.98554 232.4796 267.75645 235.05684 C 267.6419 236.31682 267.12646 238.66497 266.66828 240.21132 C 265.0074 245.7667 265.92375 247.88576 270.67732 249.08847 C 272.10912 249.4321 273.1973 249.833 273.08274 250.00482 C 272.9682 250.11936 270.96368 250.74936 268.73007 251.37935 C 266.4392 252.00934 263.28924 253.15478 261.7429 253.8993 C 260.13928 254.7584 257.96294 255.3311 256.58842 255.3311 C 255.32843 255.3311 252.7512 255.73202 250.9185 256.1902 C 245.76402 257.50745 230.4724 259.74105 219.70527 260.71468 C 198.22829 262.66192 194.04743 262.83374 182.36395 262.26102 C 170.96683 261.63103 145.59535 259.56924 142.38813 258.99652 C 137.06183 258.0229 117.76118 253.3266 114.49668 252.18116 C 112.37762 251.43662 109.17039 250.57754 107.33768 250.17664 C 105.50498 249.833 100.00687 248.2294 95.13876 246.5685 C 87.00614 243.81945 86.43342 243.59036 88.49521 243.304 C 90.09882 243.0749 91.07245 242.55947 91.93153 241.41403 C 93.07697 239.86768 93.13424 239.12315 93.13424 226.23696 C 93.13424 218.7916 92.79061 207.10812 92.44697 200.29276 L 91.81698 187.92201 L 89.46883 183.34026 C 88.03703 180.47666 86.94887 177.21216 86.54796 174.80674 C 86.14706 172.6304 85.28798 168.27773 84.54344 165.12777 C 83.79891 161.97782 83.05437 158.25514 82.88256 156.88061 L 82.65347 154.41792 L 85.00162 154.76155 C 86.31887 154.93336 89.58338 155.79244 92.27516 156.59425 Z"/>
            </g>
            <g>
               <g  id="feature-2">
                  <path 
                        d="M 80.70622 245.07943 C 85.34525 247.1985 100.92323 252.5248 105.16135 253.38387 C 107.33768 253.84204 111.06036 254.87294 113.35124 255.61747 C 120.22388 258.0229 141.35723 262.66192 148.11532 263.2919 C 186.25845 266.95732 205.44455 266.7855 236.02778 262.43284 C 241.5259 261.63103 248.16944 260.4856 250.80395 259.91287 C 253.43846 259.28288 256.58842 258.76743 257.8484 258.76743 C 259.10838 258.76743 261.342 258.13744 262.88833 257.33563 C 266.4392 255.5602 273.42637 253.61295 276.2327 253.61295 L 278.40903 253.61295 L 278.40903 256.24746 C 278.40903 257.67926 278.00813 259.74105 277.49268 260.77195 C 276.28997 263.3492 271.5364 265.41098 265.8092 265.92643 C 263.46105 266.1555 259.85292 266.72823 257.79113 267.1864 C 255.72934 267.6446 250.46032 268.2173 246.05038 268.50366 C 241.64043 268.79002 236.6005 269.30547 234.88234 269.59183 C 233.16418 269.93546 227.89516 270.4509 223.1416 270.79454 C 218.4453 271.13817 213.5199 271.7109 212.25992 272.1118 C 210.6563 272.56997 203.0964 272.7418 186.7739 272.68452 C 162.83422 272.62725 150.8071 271.99725 145.48081 270.4509 C 143.76265 269.99274 139.92543 269.19093 136.94729 268.73275 C 133.96915 268.33185 128.7574 267.1864 125.43562 266.2128 C 122.11385 265.29643 118.79208 264.49463 118.04754 264.49463 C 117.36028 264.49463 114.72577 263.86464 112.26307 263.06283 C 109.74311 262.26102 105.6768 261.00104 103.2141 260.19923 C 100.69414 259.39742 96.91419 258.53834 94.73785 258.25198 C 89.5261 257.50745 85.57434 255.9611 81.22167 252.86842 C 74.74994 248.17212 73.776315 246.5685 76.35355 244.79307 C 77.8999 243.64763 77.49899 243.64763 80.70622 245.07943 Z"
                        fill="#ff0000"/>
               </g>
            </g>
            <g>
               <path d="M 88.89611 260.71468 C 89.98428 261.11558 92.3897 261.63103 94.27968 261.86012 C 96.16965 262.0892 99.66324 262.83374 102.01139 263.63555 C 104.35954 264.38008 108.42585 265.64007 110.94582 266.44187 C 113.52306 267.24368 116.21484 267.93094 116.95937 267.93094 C 117.70391 267.93094 121.02568 268.73275 124.34746 269.70638 C 127.66923 270.62273 132.8237 271.76817 135.80185 272.22634 C 138.77999 272.62725 142.67448 273.37178 144.44992 273.88723 C 150.11984 275.49084 157.9661 276.0063 181.61942 276.34992 C 197.31194 276.52174 206.30363 276.4072 209.39632 276.0063 C 211.91629 275.66266 216.66986 275.08994 219.99163 274.7463 C 223.3134 274.45995 228.35334 273.9445 231.15967 273.60087 C 234.02326 273.3145 239.6932 272.79906 243.7595 272.45543 C 247.88308 272.16907 254.06845 271.42453 257.50477 270.79454 C 267.12646 269.19093 271.1355 268.8473 270.84913 269.76365 C 270.67732 270.16455 269.7037 271.0809 268.61553 271.82544 C 264.66376 274.51722 264.54922 277.0372 268.0428 282.47802 C 269.01643 284.08164 269.81824 285.9716 269.81824 286.77342 C 269.81824 288.37703 272.22366 293.9324 273.14 294.50513 C 273.42637 294.67695 274.34272 296.16602 275.14453 297.8269 C 276.0036 299.54507 278.23722 302.7523 280.18446 305.04318 C 282.07444 307.33405 283.5635 309.33857 283.50624 309.39584 C 283.3917 309.5104 281.38718 310.42674 279.03902 311.45764 C 275.08726 313.1758 267.41282 315.0085 257.10386 316.6121 L 252.63665 317.35665 L 250.0594 315.12304 C 248.6276 313.86306 246.45128 312.03035 245.1913 310.99946 C 243.01496 309.16676 238.2614 301.60686 236.25687 296.8533 C 235.74142 295.5933 235.11143 292.04244 234.82507 288.89248 C 234.5387 285.68525 234.02326 282.42075 233.67963 281.5044 C 232.07602 277.6099 227.8379 276.75083 220.39254 278.81262 C 218.15893 279.4426 213.29081 280.35896 209.68268 280.81714 C 206.01727 281.21804 202.40914 281.84803 201.6646 282.1344 C 200.11826 282.76438 198.11374 284.7689 197.25466 286.54433 C 196.9683 287.2316 196.91103 297.6551 197.14012 312.3167 C 197.48375 334.93914 197.5983 337.34456 198.74374 341.69723 C 199.37373 344.33174 199.94645 347.19534 199.94645 348.0544 L 199.94645 349.60076 L 195.5365 349.60076 C 193.0738 349.60076 189.8093 349.82985 188.26297 350.1162 C 186.5448 350.40257 183.73848 350.28802 180.81761 349.88712 C 176.7513 349.25713 175.89222 349.25713 173.60134 350.1162 C 172.11227 350.68893 168.44687 351.20438 164.896 351.3762 L 158.7679 351.71982 L 159.05427 348.9135 C 159.85607 340.89542 160.88697 302.86684 160.4288 296.8533 C 160.37152 295.5933 160.71515 291.9279 161.28787 288.6634 C 161.80332 285.3989 162.08968 282.1344 161.91786 281.3326 C 161.28787 278.8699 158.93972 278.2399 146.79807 277.38082 C 140.6127 276.92264 133.28188 276.0063 130.53283 275.3763 C 123.0302 273.60087 122.74384 273.88723 119.82297 284.5398 C 119.19298 286.88796 118.27663 290.4961 117.76118 292.5579 C 117.24573 294.61968 116.04302 297.59782 115.12667 299.2587 C 114.21032 300.9196 113.2367 303.21047 112.95034 304.4132 C 112.26307 307.2195 107.33768 321.48023 106.59315 322.91203 C 106.02043 323.94292 105.84861 323.94292 101.55322 322.11022 C 88.15158 316.26848 78.35807 311.40036 77.61354 310.25492 C 77.44172 309.9113 78.18626 308.30768 79.3317 306.58952 C 80.70622 304.64227 81.90893 301.77867 82.82529 298.51417 C 83.56982 295.70785 84.48617 292.67243 84.8298 291.6988 C 85.17344 290.78246 85.80343 287.4034 86.2616 284.19618 C 86.71978 280.98895 87.40704 277.6099 87.75067 276.75083 C 88.09431 275.83448 88.49521 274.5745 88.60975 273.9445 C 88.7243 273.3145 88.95339 271.82544 89.18247 270.68 C 89.64065 268.10276 88.60975 263.7501 87.06341 261.5165 C 85.74616 259.74105 86.08979 259.56924 88.89611 260.71468 Z"/>
            </g>
            <g>
               <g  id="outline-1">
                  <path 
                        d="M 88.32339 94.62599 C 87.80795 95.25598 87.80795 96.2296 88.55248 99.0932 C 89.1252 101.15499 89.41156 103.67496 89.18247 104.99221 C 89.01066 106.2522 89.06793 107.56945 89.29702 107.91308 C 89.5261 108.19944 91.9888 110.31851 94.79513 112.60939 C 98.91871 116.0457 100.00687 116.6757 100.69414 116.10297 C 101.20958 115.6448 101.3814 114.90026 101.15231 113.92664 C 100.92323 113.12483 100.52232 110.66214 100.29323 108.54308 C 100.00687 105.8513 99.43415 104.01859 98.40326 102.52952 C 97.54418 101.38408 95.94056 98.97866 94.73785 97.2605 C 93.01969 94.74053 92.21789 94.05327 90.78609 93.93873 C 89.75519 93.82418 88.7243 94.11054 88.32339 94.62599 Z"
                        fill="black"/>
               </g>
            </g>
            <g>
               <g  id="outline-2">
                  <path 
                        d="M 272.51002 100.06683 C 270.04733 102.30043 267.41282 107.51218 267.0692 111.00577 C 266.8401 113.41119 267.0119 113.98391 268.32917 115.30117 C 269.93278 116.90478 271.99457 117.0766 272.7391 115.58753 C 276.2327 108.71489 278.98175 102.3577 278.98175 101.15499 C 278.98175 98.11958 275.4309 97.54686 272.51002 100.06683 Z"
                        fill="black"/>
               </g>
            </g>
            <g>
               <g  id="outline-3">
                  <path 
                        d="M 182.4785 111.00577 C 182.0776 111.69303 182.76486 120.05474 183.39485 121.60108 C 183.6812 122.28835 183.85303 120.22656 183.85303 116.56115 C 183.9103 111.00577 183.5094 109.34488 182.4785 111.00577 Z"
                        fill="black"/>
               </g>
            </g>
            <g>
               <g  id="outline-4">
                  <path 
                        d="M 151.4371 112.43757 C 151.26528 112.95302 151.49437 113.75482 152.00981 114.32754 C 153.32707 115.81662 154.24342 122.91834 154.64432 133.91455 C 154.81614 139.41266 155.15977 144.2235 155.44613 144.62441 C 156.1334 145.6553 158.19519 144.79623 158.82518 143.13534 C 159.7988 140.67265 159.05427 135.80453 156.1334 125.0374 C 154.81614 120.22656 154.12888 116.79024 154.12888 115.2439 C 154.12888 112.43757 152.2389 110.43305 151.4371 112.43757 Z"
                        fill="black"/>
               </g>
            </g>
            <g>
               <g  id="outline-5">
                  <path 
                        d="M 243.9313 112.55211 C 242.27043 114.38482 241.5259 119.59656 242.90042 119.59656 C 243.1295 119.59656 243.87404 118.33658 244.5613 116.79024 C 246.394 112.43757 246.05038 110.14669 243.9313 112.55211 Z"
                        fill="black"/>
               </g>
            </g>
            <g>
               <g  id="outline-6">
                  <path 
                        d="M 215.23806 119.02384 C 215.40988 123.09015 215.1808 129.50461 214.60807 135.91907 C 213.40536 149.26344 213.34809 148.34709 215.23806 148.118 C 217.75803 147.83164 218.55983 145.54076 217.70075 141.13082 C 217.12803 138.26722 216.55532 126.12557 216.55532 116.79024 C 216.55532 115.6448 216.1544 114.15573 215.69624 113.52574 C 215.00897 112.55211 214.9517 113.1821 215.23806 119.02384 Z"
                        fill="black"/>
               </g>
            </g>
            <g>
               <g  id="outline-7">
                  <path 
                        d="M 123.83201 116.73297 C 125.43562 122.1738 126.40925 126.52647 127.78377 134.54455 C 128.47104 138.43904 129.10103 141.70354 129.21557 141.81809 C 129.33012 141.93263 129.96011 141.76081 130.5901 141.35991 C 132.13644 140.5581 132.19372 138.03814 130.70464 135.17454 C 129.38739 132.5973 126.98197 124.92286 125.72198 119.59656 C 125.26381 117.42023 124.34746 115.01481 123.77474 114.32754 C 122.74384 113.06756 122.74384 113.12483 123.83201 116.73297 Z"
                        fill="black"/>
               </g>
            </g>
            <g>
               <g  id="outline-8">
                  <path 
                        d="M 240.83863 126.64102 C 240.38045 127.84373 240.95317 128.64553 241.75498 127.84373 C 242.04134 127.55737 242.0986 126.98465 241.75498 126.4692 C 241.2968 125.78194 241.18226 125.78194 240.83863 126.64102 Z"
                        fill="black"/>
               </g>
            </g>
            <g>
               <g  id="outline-9">
                  <path 
                        d="M 184.19666 128.87462 C 183.96757 129.7337 184.08211 132.1964 184.42574 134.31546 C 184.76938 136.43452 185.17028 139.06903 185.3421 140.04265 C 185.51391 141.07355 185.80027 142.73444 185.97209 143.70806 C 186.25845 144.96804 185.97209 146.34257 185.05574 148.28982 C 183.56667 151.43977 183.79575 152.18431 185.91482 151.21069 C 188.26297 150.12252 189.29386 145.6553 187.8048 142.90625 C 187.46116 142.21899 186.9457 139.29812 186.7739 136.4918 C 186.5448 133.6282 185.97209 130.42097 185.51391 129.3328 L 184.65483 127.32828 Z"
                        fill="black"/>
               </g>
            </g>
            <g>
               <g  id="outline-10">
                  <path 
                        d="M 237.51685 140.61537 C 236.77232 145.19713 237.51685 146.22803 239.235 143.0208 C 239.92228 141.589 240.03682 140.90173 239.52137 139.87084 C 238.6623 137.9236 237.97503 138.15268 237.51685 140.61537 Z"
                        fill="black"/>
               </g>
            </g>
            <g>
               <g  id="outline-11">
                  <path 
                        d="M 273.3691 164.61233 C 271.7082 165.75777 269.81824 169.48044 269.81824 171.54223 C 269.81824 172.45858 269.3028 174.11947 268.6728 175.32218 C 268.0428 176.5249 267.241 179.50304 266.95464 181.90846 C 266.611 184.31388 266.2101 187.1202 266.0383 188.09383 C 265.86647 189.06745 265.98102 190.95743 266.38192 192.27468 C 267.241 195.53919 266.26738 200.4073 263.7474 205.67632 C 262.02925 209.1699 261.80016 210.2008 262.08652 212.43441 C 262.3156 214.43893 262.1438 215.24074 261.5138 215.81346 C 260.8838 216.3289 260.65473 217.64616 260.65473 220.50976 C 260.65473 224.40425 260.02473 228.47056 257.73386 240.15404 C 256.58842 246.22487 256.30206 250.17664 257.10386 250.17664 C 258.59293 250.17664 259.56656 247.65667 260.3111 242.1013 C 262.37288 227.5542 263.63287 222.97245 266.66828 219.4216 C 268.61553 217.13071 268.61553 217.07344 267.52736 216.09982 C 266.0383 214.78256 266.09556 213.35077 267.75645 206.99358 C 270.44823 196.62735 271.59367 191.24379 272.05185 186.20386 C 272.28093 183.4548 272.79638 180.5912 273.14 179.90394 C 273.54092 179.21668 274.22818 176.00945 274.68636 172.74494 C 275.14453 169.53771 275.71725 166.15867 275.88907 165.24232 C 276.28997 163.40961 275.37362 163.18053 273.3691 164.61233 Z"
                        fill="black"/>
               </g>
            </g>
            <g>
               <g  id="outline-12">
                  <path 
                        d="M 109.51402 170.33952 C 109.51402 170.96951 109.68584 171.14133 109.85765 170.68315 C 110.02947 170.28225 109.9722 169.7668 109.80038 169.59499 C 109.62856 169.3659 109.45675 169.70953 109.51402 170.33952 Z"
                        fill="black"/>
               </g>
            </g>
            <g>
               <g  id="outline-13">
                  <path 
                        d="M 110.31583 174.57765 C 110.43037 176.2958 110.71673 180.53393 110.94582 184.02752 C 111.1749 187.80747 111.74763 191.58742 112.37762 193.4774 C 113.00761 195.19555 113.46578 197.5437 113.46578 198.63187 C 113.46578 199.7773 113.69487 202.12546 114.0385 203.84362 C 114.32486 205.56178 114.84031 211.8617 115.0694 217.81798 C 115.58485 229.32964 115.81394 230.30327 118.7348 233.33868 C 120.28115 234.99957 120.45296 235.62956 120.96841 241.18494 C 121.25477 244.5067 121.77022 247.94303 122.05658 248.8021 C 122.6293 250.2339 122.74384 250.29118 123.60292 249.48937 C 124.40473 248.6303 124.40473 247.88576 123.31656 240.61222 C 121.02568 225.43515 120.7966 223.20154 121.14023 220.96794 C 121.36932 219.30705 121.1975 218.1616 120.39569 216.558 C 119.7657 215.35528 118.84935 211.68988 118.39117 208.3681 C 117.87573 205.04633 117.07392 200.92275 116.61574 199.2046 C 116.15757 197.48643 115.75666 194.22193 115.75666 191.98832 C 115.75666 186.7193 114.84031 181.85119 113.17942 178.30032 C 112.49216 176.6967 111.46127 174.52038 110.94582 173.4322 L 110.02947 171.42769 Z"
                        fill="black"/>
               </g>
            </g>
            <g>
               <g  id="outline-14">
                  <path 
                        d="M 152.41072 172.11495 C 152.41072 172.28677 153.15525 175.43673 154.12888 179.10213 C 155.96158 186.43294 157.27884 196.22645 158.13791 209.22718 C 158.42427 213.92348 159.11154 219.07796 159.56971 220.68158 C 160.14243 222.51428 160.65788 227.84057 161.05878 235.28593 C 161.34514 241.75766 161.8606 247.65667 162.14695 248.45848 C 162.43331 249.26029 163.0633 251.4939 163.63602 253.44114 C 164.15147 255.44566 164.83873 257.04927 165.1251 257.04927 C 165.35418 257.04927 165.46873 254.70112 165.2969 251.72298 C 164.0942 231.21962 163.86511 225.1488 164.20874 222.74337 C 164.43783 221.08248 164.32329 219.47887 163.92238 218.7916 C 163.12058 217.30253 160.94424 204.87451 158.71063 188.60928 C 156.36248 172.17223 156.24794 171.71405 154.12888 171.71405 C 153.15525 171.71405 152.41072 171.88587 152.41072 172.11495 Z"
                        fill="black"/>
               </g>
            </g>
            <g>
               <g  id="outline-15">
                  <path 
                        d="M 232.07602 176.2958 C 229.6706 185.05842 229.72787 184.42842 230.64422 187.7502 C 231.6751 191.75924 231.6751 194.22193 230.52967 199.03277 C 230.01423 201.15184 229.38423 205.1036 229.15515 207.79538 C 228.92606 210.48717 228.29607 215.7562 227.78062 219.53614 C 226.52064 229.2151 224.80248 250.97844 225.1461 252.58206 C 225.7761 255.04475 227.15063 254.41476 228.52515 251.20753 C 229.4415 249.08847 230.01423 246.1676 230.35786 241.58584 C 230.64422 237.9777 231.1024 233.85413 231.38875 232.42233 C 232.82055 225.5497 233.39327 218.61979 232.64874 216.61527 C 232.07602 214.95438 232.1333 211.40352 232.9351 196.7419 C 233.67963 183.91298 233.79418 178.1285 233.39327 176.2958 L 232.82055 173.71857 Z"
                        fill="black"/>
               </g>
            </g>
            <g>
               <g  id="outline-16">
                  <path 
                        d="M 199.2019 179.27395 C 198.57192 184.54297 198.74374 187.1202 200.00372 189.5829 C 201.20643 191.93105 201.20643 192.38923 200.74825 206.30631 C 199.88917 233.9114 200.40462 250.69208 202.23732 255.61747 C 202.6955 256.87746 202.98186 254.7584 204.01276 241.8722 C 205.5591 223.087 205.10092 195.19555 203.15368 189.46836 C 202.63823 188.03656 201.95096 184.60024 201.55006 181.79391 C 200.69098 175.8949 199.71736 174.80674 199.2019 179.27395 Z"
                        fill="black"/>
               </g>
            </g>
            <g>
               <g  id="outline-17">
                  <path 
                        d="M 92.27516 189.69745 C 92.27516 190.90016 94.10786 191.30106 98.86143 191.07197 C 101.95412 190.95743 102.87047 190.72834 102.87047 190.04108 C 102.87047 189.35381 101.83958 189.12473 97.60145 189.01018 C 93.13424 188.89564 92.27516 189.01018 92.27516 189.69745 Z"
                        fill="black"/>
               </g>
            </g>
            <g>
               <g  id="outline-18">
                  <path 
                        d="M 107.45223 215.58437 C 103.8441 216.3289 98.80416 217.7607 98.34599 218.1616 C 97.60145 218.84887 98.86143 218.7916 104.98953 218.04707 C 109.05584 217.53162 110.02947 217.18799 109.91492 216.50072 C 109.74311 215.5271 109.11312 215.298 107.45223 215.58437 Z"
                        fill="black"/>
               </g>
            </g>
            <g>
               <g  id="outline-19">
                  <path 
                        d="M 138.66545 218.10434 C 140.72724 218.7916 143.13266 218.7916 143.53356 218.10434 C 143.76265 217.7607 142.61721 217.53162 140.55542 217.5889 C 138.03546 217.64616 137.57728 217.7607 138.66545 218.10434 Z"
                        fill="black"/>
               </g>
            </g>
            <g>
               <g  id="outline-20">
                  <path 
                        d="M 89.18247 272.79906 C 89.01066 273.25724 89.1252 273.65814 89.41156 273.65814 C 89.75519 273.65814 89.98428 273.25724 89.98428 272.79906 C 89.98428 272.3409 89.86974 271.93998 89.75519 271.93998 C 89.64065 271.93998 89.41156 272.3409 89.18247 272.79906 Z"
                        fill="black"/>
               </g>
            </g>
            <g>
               <g  id="outline-21">
                  <path 
                        d="M 112.09126 279.21352 C 111.69035 280.12987 111.11763 281.7335 110.94582 282.82165 C 110.71673 283.90982 110.02947 286.3725 109.45675 288.2625 C 108.82676 290.15247 107.96768 294.1615 107.45223 297.1969 C 106.70769 302.06503 104.70317 309.1095 103.2141 312.3167 C 102.92774 312.9467 102.29775 314.83668 101.83958 316.49757 C 101.09504 319.0748 101.09504 319.59025 101.72503 319.8766 C 102.92774 320.2775 103.72955 319.59025 103.72955 318.1012 C 103.72955 317.41392 104.41681 315.52394 105.21862 313.9776 C 106.02043 312.43126 106.87951 309.5104 107.22314 307.50587 C 107.5095 305.50135 108.42585 302.29412 109.22766 300.34687 C 110.02947 298.4569 111.06036 295.4215 111.46127 293.70333 C 112.83579 288.2625 113.98123 284.5398 114.89758 282.7071 C 115.92848 280.58805 115.98575 279.2708 115.0694 278.35444 C 113.98123 277.26627 113.00761 277.55263 112.09126 279.21352 Z"
                        fill="black"/>
               </g>
            </g>
            <g>
               <g  id="outline-22">
                  <path 
                        d="M 239.0632 288.37703 C 239.63592 293.3597 245.9931 306.99042 250.17396 312.3167 C 252.29302 315.0085 252.923 315.46667 254.52663 315.46667 C 257.79113 315.46667 258.0202 316.0394 251.37667 305.73044 C 249.42942 302.7523 247.2531 298.74326 246.45128 296.8533 C 243.7595 290.15247 241.125 285.68525 239.865 285.68525 C 238.8341 285.68525 238.77684 285.9716 239.0632 288.37703 Z"
                        fill="black"/>
               </g>
            </g>
            <g>
               <g  id="outline-23">
                  <path 
                        d="M 190.49657 295.24967 C 190.66839 298.34236 191.12656 303.43956 191.4702 306.58952 C 191.75656 309.73948 191.98564 319.64753 191.92837 328.63922 C 191.8711 339.6927 192.04292 345.53445 192.5011 346.6799 L 193.13108 348.39805 L 194.79197 346.56535 C 196.73922 344.4463 196.73922 345.30536 194.21925 329.4983 C 193.99016 327.8947 193.58926 319.76207 193.41744 311.45764 C 192.902 291.64154 192.73018 289.6943 191.2411 289.6943 C 190.15294 289.6943 190.09567 289.98065 190.49657 295.24967 Z"
                        fill="black"/>
               </g>
            </g>
         </g>
      </g>
   </g>
</svg>