<?xml version="1.0" encoding="UTF-8" standalone="no"?>
<!-- Created with Inkscape (http://www.inkscape.org/) -->

<svg
   xmlns:dc="http://purl.org/dc/elements/1.1/"
   xmlns:cc="http://creativecommons.org/ns#"
   xmlns:rdf="http://www.w3.org/1999/02/22-rdf-syntax-ns#"
   xmlns:svg="http://www.w3.org/2000/svg"
   xmlns="http://www.w3.org/2000/svg"
   version="1.1"
   width="332.01196"
   height="396.63602"
   id="svg2">
  <defs
     id="defs150" />
  <metadata
     id="metadata4">
    <rdf:RDF>
      <cc:Work
         rdf:about="">
        <dc:format>image/svg+xml</dc:format>
        <dc:type
           rdf:resource="http://purl.org/dc/dcmitype/StillImage" />
        <dc:title></dc:title>
        <dc:creator>
          <cc:Agent>
            <dc:title>Wikimedia commons by Jurgen Krause</dc:title>
          </cc:Agent>
        </dc:creator>
      </cc:Work>
    </rdf:RDF>
  </metadata>
  <g
     id="leaved">
    <path
       d="m 284.75,387.17 -0.42352,6.9629 -249.08,0 c 0,0 -4.7759,1.2292 -10.004,1.2292 -4.6183,0 -17.014,-5.5879 -18.119,-19.208 -0.10516,-116.65 -0.86843,-224.29 -0.9469,-341.98 1.4303,-13.666 11.365,-27.237 22.536,-28.057 8.1448,-0.59747 18.783,-0.40972 18.783,-0.40972 l 271.95,0 0,355.64 c 0,0 -5.7166,-4.9167 -19.6,4.0973 -13.313,8.6436 -15.093,13.523 -15.093,21.718 z"
       id="path10"
       style="fill:#ffff00;stroke:#000000;stroke-width:6.54442215;stroke-linecap:square;stroke-linejoin:miter;stroke-miterlimit:4;stroke-dasharray:none;enable-background:accumulate" />
  </g>
  <g
     id="body">
    <path
       d="m 6.26,33.58 c 0,116.65 0.76327,230.03 0.86843,346.68 1.1052,13.62 13.5,15.111 18.119,15.111 5.2281,0 10.004,-1.2292 10.004,-1.2292 l 249.08,0 1.6333,-352.37 -256.77,2.3857 c 0,0 -4.3561,4.1288 -8.9758,3.5493 -7.7408,-0.97092 -15.178,-7.1642 -13.953,-14.13 z"
       id="path12"
       style="fill:#0000ff;stroke:#000000;stroke-width:6.54442215;stroke-linecap:square;stroke-linejoin:miter;stroke-miterlimit:4;stroke-dasharray:none;enable-background:accumulate" />
    <path
       d="m 316.59,8.17 1.6333,348.27"
       id="path14"
       style="fill:#000000;stroke:#000000;stroke-width:6.54442215;stroke-linecap:round;stroke-linejoin:bevel;stroke-miterlimit:4;stroke-dasharray:none;enable-background:accumulate" />
    <path
       d="m 273.3,45.46 c 8.9832,-27.042 27.015,-34.318 44.916,-36.056 l -274.4,0 c 0,0 0.61248,-1.6389 -13.883,-1.8438 -3.9268,-0.0555 -9.2894,2.4584 -9.2894,2.4584"
       id="path18"
       style="fill:none;stroke:#000000;stroke-width:6.54442215;stroke-linecap:square;stroke-linejoin:miter;stroke-miterlimit:4;stroke-dasharray:none;enable-background:accumulate" />
    <path
       d="M 51.43,9.4 C 23.712,15.3554 23.712,38.635 27.177,47.298"
       id="path20"
       style="fill:none;stroke:#000000;stroke-width:6.54442215;stroke-linecap:square;stroke-linejoin:miter;stroke-miterlimit:4;stroke-dasharray:none;enable-background:accumulate" />
  </g>
  <g
     id="clasped"
     style="fill:#ff0000">
    <path
       d="m 286.74,311.9 c 0,0 26.193,-26.746 32.666,-32.778 6.37,-5.9366 14.291,11.882 -0.40833,24.584 -14.7,12.702 -32.462,32.573 -32.462,32.573 l -16.129,0 c -6.2838,4.8763 -1.5095,18.245 0,24.379 -7.3353,3.8467 -25.059,-13.799 -13.455,-31.51 -4.4591,-4.8855 -1.5279,-8.7607 0,-10.384 -12.25,-18.643 7.5907,-32.891 13.455,-30.627 1.0208,5.7362 -6.7374,15.57 0,23.764 l 16.333,0 z"
       id="path16"
       style="fill:#ff0000;stroke:#000000;stroke-width:3.27221107;stroke-linecap:square;stroke-linejoin:miter;stroke-miterlimit:4;stroke-dasharray:none;enable-background:accumulate" />
    <path
       d="m 287.01,106.22 c 0,0 26.193,-26.746 32.666,-32.778 6.3701,-5.9366 14.291,11.882 -0.40833,24.584 -14.7,12.702 -32.462,32.573 -32.462,32.573 l -16.129,0 c -6.2838,4.8763 -1.5095,18.245 0,24.379 -7.3353,3.8467 -25.059,-13.799 -13.455,-31.51 -4.4591,-4.8855 -1.5279,-8.7607 0,-10.384 -12.25,-18.643 7.5907,-32.891 13.455,-30.627 1.0208,5.7362 -6.7374,15.57 0,23.764 l 16.333,0 z"
       id="path44"
       style="fill:#ff0000;stroke:#000000;stroke-width:3.27221107;stroke-linecap:square;stroke-linejoin:miter;stroke-miterlimit:4;stroke-dasharray:none;enable-background:accumulate" />
    <path
       d="m 287.05,105.28 0,24.174"
       id="path46"
       style="fill:none;stroke:#000000;stroke-width:3.27221107;stroke-linecap:round;stroke-linejoin:bevel;stroke-miterlimit:4;stroke-dasharray:none;enable-background:accumulate" />
    <path
       d="m 286.78,310.96 0,24.174"
       id="path42"
       style="fill:none;stroke:#000000;stroke-width:3.27221107;stroke-linecap:round;stroke-linejoin:bevel;stroke-miterlimit:4;stroke-dasharray:none;enable-background:accumulate" />
  </g>
  <g
     id="garnished"
     style="fill:#00ff00">
    <path
       d="M 63.83,366.28 243.49,71.27"
       id="path22"
       style="fill:#00ff00;stroke:#000000;stroke-width:6.54442215;stroke-linecap:butt;stroke-linejoin:miter;stroke-miterlimit:4;stroke-opacity:1;stroke-dasharray:none;enable-background:accumulate" />
    <path
       d="m 63.83,71.27 179.66,295"
       id="path24"
       style="fill:#00ff00;stroke:#000000;stroke-width:6.54442215;stroke-linecap:butt;stroke-linejoin:miter;stroke-miterlimit:4;stroke-opacity:1;stroke-dasharray:none;enable-background:accumulate" />
    <path
       d="m 63.83,218.77 88.2,-147.5 88.2,147.5 -88.2,147.51 z"
       id="path26"
       style="fill:none;stroke:#000000;stroke-width:6.54442215;stroke-linecap:square;stroke-linejoin:bevel;stroke-miterlimit:4;stroke-opacity:1;stroke-dasharray:none;enable-background:accumulate" />
    <path
       d="M 26.31,67.79 C 21.4016,67.79 10.19,67.03853 3.146,52.22 2.69114,51.26309 1.3253,51.31139 0.5122,51.98332 c -3.2063,2.6496 -2.6222,10.107 1.4088,15.397 8.0154,10.518 18.426,11.472 24.389,11.472"
       id="path28"
       style="fill:#00ff00;stroke:#000000;stroke-width:1.63610554;stroke-linecap:butt;stroke-linejoin:bevel;stroke-miterlimit:4;stroke-dasharray:none;enable-background:accumulate" />
    <path
       d="m 26.31,127.03 c -4.9084,0 -16.12,-0.75147 -23.164,-15.57 -0.45486,-0.95691 -1.8207,-0.90862 -2.6338,-0.23669 -3.2063,2.6496 -2.6222,10.107 1.4088,15.397 8.0154,10.518 18.426,11.472 24.389,11.472"
       id="path30"
       style="fill:#00ff00;stroke:#000000;stroke-width:1.63610554;stroke-linecap:butt;stroke-linejoin:bevel;stroke-miterlimit:4;stroke-dasharray:none;enable-background:accumulate" />
    <path
       d="m 26.31,186.27 c -4.9084,0 -16.12,-0.75148 -23.164,-15.57 -0.45486,-0.95691 -1.8207,-0.90862 -2.6338,-0.23669 -3.2063,2.6496 -2.6222,10.107 1.4088,15.397 8.0154,10.518 18.426,11.472 24.389,11.472"
       id="path32"
       style="fill:#00ff00;stroke:#000000;stroke-width:1.63610554;stroke-linecap:butt;stroke-linejoin:bevel;stroke-miterlimit:4;stroke-dasharray:none;enable-background:accumulate" />
    <path
       d="m 26.31,245.5 c -4.9084,0 -16.12,-0.75147 -23.164,-15.57 -0.45486,-0.95689 -1.8207,-0.90861 -2.6338,-0.23669 -3.2063,2.6496 -2.6222,10.107 1.4088,15.397 8.0154,10.518 18.426,11.472 24.389,11.472"
       id="path34"
       style="fill:#00ff00;stroke:#000000;stroke-width:1.63610554;stroke-linecap:butt;stroke-linejoin:bevel;stroke-miterlimit:4;stroke-dasharray:none;enable-background:accumulate" />
    <path
       d="m 26.31,304.74 c -4.9084,0 -16.12,-0.75148 -23.164,-15.57 -0.45486,-0.95689 -1.8207,-0.90861 -2.6338,-0.23669 -3.2063,2.6496 -2.6222,10.107 1.4088,15.397 8.0154,10.518 18.426,11.472 24.389,11.472"
       id="path36"
       style="fill:#00ff00;stroke:#000000;stroke-width:1.63610554;stroke-linecap:butt;stroke-linejoin:bevel;stroke-miterlimit:4;stroke-dasharray:none;enable-background:accumulate" />
    <path
       d="m 26.31,363.98 c -4.9084,0 -16.12,-0.75148 -23.164,-15.57 -0.45486,-0.9569 -1.8207,-0.90862 -2.6338,-0.2367 -3.2063,2.6496 -2.6222,10.107 1.4088,15.397 8.0154,10.518 18.426,11.472 24.389,11.472"
       id="path38"
       style="fill:#00ff00;stroke:#000000;stroke-width:1.63610554;stroke-linecap:butt;stroke-linejoin:bevel;stroke-miterlimit:4;stroke-dasharray:none;enable-background:accumulate" />
    <path
       d="m 25.4,389.37 c 0,0 10.3125,0.75625 11.5,1.3875 L 35.357107,57.223427 25.9,54.42"
       id="path40"
       style="fill:#00ff00;stroke:#000000;stroke-width:1;stroke-linecap:round;stroke-linejoin:bevel;stroke-miterlimit:4;stroke-opacity:1;stroke-dasharray:none;enable-background:accumulate" />
    <path
       d="m 107.03184,294.54412 c -16.33307,-16.3891 -10.58415,-22.12528 0,-22.12528 11.59517,0 16.33306,5.73618 0,22.12528"
       id="path50"
       style="fill:#00ff00;stroke:#000000;stroke-width:3.27221131;stroke-linecap:round;stroke-linejoin:bevel;stroke-miterlimit:4;stroke-dasharray:none;enable-background:accumulate" />
    <path
       d="m 107.03184,294.54412 c -16.33307,16.3891 -22.04964,10.62046 -22.04964,0 0,-11.63495 5.71657,-16.3891 22.04964,0"
       id="path52"
       style="fill:#00ff00;stroke:#000000;stroke-width:3.27221131;stroke-linecap:round;stroke-linejoin:bevel;stroke-miterlimit:4;stroke-dasharray:none;enable-background:accumulate" />
    <path
       d="m 107.39117,296.18303 c 16.33306,16.38909 10.58415,22.12528 0,22.12528 -11.59517,0 -16.33307,-5.73619 0,-22.12528"
       id="path54"
       style="fill:#00ff00;stroke:#000000;stroke-width:3.27221131;stroke-linecap:round;stroke-linejoin:bevel;stroke-miterlimit:4;stroke-dasharray:none;enable-background:accumulate" />
    <path
       d="m 107.03184,294.54412 c 16.33306,-16.3891 22.04963,-10.62046 22.04963,0 0,11.63495 -5.71657,16.3891 -22.04963,0"
       id="path56"
       style="fill:#00ff00;stroke:#000000;stroke-width:3.27221131;stroke-linecap:round;stroke-linejoin:bevel;stroke-miterlimit:4;stroke-dasharray:none;enable-background:accumulate" />
    <path
       d="m 114.59813,294.86371 c 0,4.18643 -3.38192,7.57995 -7.55404,7.57995 -4.17212,0 -7.55404,-3.39352 -7.55404,-7.57995 0,-4.18643 3.38192,-7.57996 7.55404,-7.57996 4.17212,0 7.55404,3.39353 7.55404,7.57996 z"
       id="path58"
       style="fill:#00ff00;stroke:#000000;stroke-width:3;stroke-opacity:1;enable-background:accumulate" />
    <path
       d="m 195.86604,294.54412 c -16.33307,-16.3891 -10.58415,-22.12528 0,-22.12528 11.59517,0 16.33306,5.73618 0,22.12528"
       id="path62"
       style="fill:#00ff00;stroke:#000000;stroke-width:3.27221131;stroke-linecap:round;stroke-linejoin:bevel;stroke-miterlimit:4;stroke-dasharray:none;enable-background:accumulate" />
    <path
       d="m 195.86604,294.54412 c -16.33307,16.3891 -22.04964,10.62046 -22.04964,0 0,-11.63495 5.71657,-16.3891 22.04964,0"
       id="path64"
       style="fill:#00ff00;stroke:#000000;stroke-width:3.27221131;stroke-linecap:round;stroke-linejoin:bevel;stroke-miterlimit:4;stroke-dasharray:none;enable-background:accumulate" />
    <path
       d="m 196.22537,296.18303 c 16.33306,16.38909 10.58415,22.12528 0,22.12528 -11.59517,0 -16.33307,-5.73619 0,-22.12528"
       id="path66"
       style="fill:#00ff00;stroke:#000000;stroke-width:3.27221131;stroke-linecap:round;stroke-linejoin:bevel;stroke-miterlimit:4;stroke-dasharray:none;enable-background:accumulate" />
    <path
       d="m 195.86604,294.54412 c 16.33306,-16.3891 22.04963,-10.62046 22.04963,0 0,11.63495 -5.71657,16.3891 -22.04963,0"
       id="path68"
       style="fill:#00ff00;stroke:#000000;stroke-width:3.27221131;stroke-linecap:round;stroke-linejoin:bevel;stroke-miterlimit:4;stroke-dasharray:none;enable-background:accumulate" />
    <path
       d="m 203.43233,294.86371 c 0,4.18643 -3.38192,7.57995 -7.55404,7.57995 -4.17212,0 -7.55404,-3.39352 -7.55404,-7.57995 0,-4.18643 3.38192,-7.57996 7.55404,-7.57996 4.17212,0 7.55404,3.39353 7.55404,7.57996 z"
       id="path70"
       style="fill:#00ff00;stroke:#000000;stroke-width:3;stroke-opacity:1;enable-background:accumulate" />
    <path
       d="m 195.86604,142.15477 c -16.33307,-16.3891 -10.58415,-22.12528 0,-22.12528 11.59517,0 16.33306,5.73618 0,22.12528"
       id="path74"
       style="fill:#00ff00;stroke:#000000;stroke-width:3.27221131;stroke-linecap:round;stroke-linejoin:bevel;stroke-miterlimit:4;stroke-dasharray:none;enable-background:accumulate" />
    <path
       d="m 195.86604,142.15477 c -16.33307,16.3891 -22.04964,10.62046 -22.04964,0 0,-11.63495 5.71657,-16.3891 22.04964,0"
       id="path76"
       style="fill:#00ff00;stroke:#000000;stroke-width:3.27221131;stroke-linecap:round;stroke-linejoin:bevel;stroke-miterlimit:4;stroke-dasharray:none;enable-background:accumulate" />
    <path
       d="m 196.22537,143.79368 c 16.33306,16.3891 10.58415,22.12528 0,22.12528 -11.59517,0 -16.33307,-5.73618 0,-22.12528"
       id="path78"
       style="fill:#00ff00;stroke:#000000;stroke-width:3.27221131;stroke-linecap:round;stroke-linejoin:bevel;stroke-miterlimit:4;stroke-dasharray:none;enable-background:accumulate" />
    <path
       d="m 195.86604,142.15477 c 16.33306,-16.3891 22.04963,-10.62046 22.04963,0 0,11.63495 -5.71657,16.3891 -22.04963,0"
       id="path80"
       style="fill:#00ff00;stroke:#000000;stroke-width:3.27221131;stroke-linecap:round;stroke-linejoin:bevel;stroke-miterlimit:4;stroke-dasharray:none;enable-background:accumulate" />
    <path
       d="m 203.43233,142.47435 c 0,4.18643 -3.38192,7.57996 -7.55404,7.57996 -4.17212,0 -7.55404,-3.39353 -7.55404,-7.57996 0,-4.18643 3.38192,-7.57995 7.55404,-7.57995 4.17212,0 7.55404,3.39352 7.55404,7.57995 z"
       id="path82"
       style="fill:#00ff00;stroke:#000000;stroke-width:3;stroke-opacity:1;enable-background:accumulate" />
    <path
       d="m 107.03184,142.15477 c -16.33307,-16.3891 -10.58415,-22.12528 0,-22.12528 11.59517,0 16.33306,5.73618 0,22.12528"
       id="path86"
       style="fill:#00ff00;stroke:#000000;stroke-width:3.27221131;stroke-linecap:round;stroke-linejoin:bevel;stroke-miterlimit:4;stroke-dasharray:none;enable-background:accumulate" />
    <path
       d="m 107.03184,142.15477 c -16.33307,16.3891 -22.04964,10.62046 -22.04964,0 0,-11.63495 5.71657,-16.3891 22.04964,0"
       id="path88"
       style="fill:#00ff00;stroke:#000000;stroke-width:3.27221131;stroke-linecap:round;stroke-linejoin:bevel;stroke-miterlimit:4;stroke-dasharray:none;enable-background:accumulate" />
    <path
       d="m 107.39117,143.79368 c 16.33306,16.3891 10.58415,22.12528 0,22.12528 -11.59517,0 -16.33307,-5.73618 0,-22.12528"
       id="path90"
       style="fill:#00ff00;stroke:#000000;stroke-width:3.27221131;stroke-linecap:round;stroke-linejoin:bevel;stroke-miterlimit:4;stroke-dasharray:none;enable-background:accumulate" />
    <path
       d="m 107.03184,142.15477 c 16.33306,-16.3891 22.04963,-10.62046 22.04963,0 0,11.63495 -5.71657,16.3891 -22.04963,0"
       id="path92"
       style="fill:#00ff00;stroke:#000000;stroke-width:3.27221131;stroke-linecap:round;stroke-linejoin:bevel;stroke-miterlimit:4;stroke-dasharray:none;enable-background:accumulate" />
    <path
       d="m 114.59813,142.47435 c 0,4.18643 -3.38192,7.57996 -7.55404,7.57996 -4.17212,0 -7.55404,-3.39353 -7.55404,-7.57996 0,-4.18643 3.38192,-7.57995 7.55404,-7.57995 4.17212,0 7.55404,3.39352 7.55404,7.57995 z"
       id="path94"
       style="fill:#00ff00;stroke:#000000;stroke-width:3;stroke-opacity:1;enable-background:accumulate" />
    <path
       d="m 152.26492,218.35095 c -16.33306,-16.38909 -10.58415,-22.12528 0,-22.12528 11.59517,0 16.33307,5.73619 0,22.12528"
       id="path98"
       style="fill:#00ff00;stroke:#000000;stroke-width:3.27221131;stroke-linecap:round;stroke-linejoin:bevel;stroke-miterlimit:4;stroke-dasharray:none;enable-background:accumulate" />
    <path
       d="m 152.26492,218.35095 c -16.33306,16.3891 -22.04964,10.62046 -22.04964,0 0,-11.63495 5.71658,-16.38909 22.04964,0"
       id="path100"
       style="fill:#00ff00;stroke:#000000;stroke-width:3.27221131;stroke-linecap:round;stroke-linejoin:bevel;stroke-miterlimit:4;stroke-dasharray:none;enable-background:accumulate" />
    <path
       d="m 152.64058,219.98658 c 16.33307,16.3891 10.58415,22.12528 0,22.12528 -11.59517,0 -16.33306,-5.73618 0,-22.12528"
       id="path102"
       style="fill:#00ff00;stroke:#000000;stroke-width:3.27221131;stroke-linecap:round;stroke-linejoin:bevel;stroke-miterlimit:4;stroke-dasharray:none;enable-background:accumulate" />
    <path
       d="m 152.26492,218.35095 c 16.33307,-16.38909 22.04964,-10.62046 22.04964,0 0,11.63495 -5.71657,16.3891 -22.04964,0"
       id="path104"
       style="fill:#00ff00;stroke:#000000;stroke-width:3.27221131;stroke-linecap:round;stroke-linejoin:bevel;stroke-miterlimit:4;stroke-dasharray:none;enable-background:accumulate" />
    <path
       d="m 159.83187,218.66903 c 0,4.18643 -3.38192,7.57996 -7.55404,7.57996 -4.17212,0 -7.55404,-3.39353 -7.55404,-7.57996 0,-4.18643 3.38192,-7.57995 7.55404,-7.57995 4.17212,0 7.55404,3.39352 7.55404,7.57995 z"
       id="path106"
       style="fill:#00ff00;stroke:#000000;stroke-width:3;stroke-opacity:1;enable-background:accumulate" />
    <path
       d="m 69.62615,338.05363 c 11.72191,3e-5 16.45981,5.73618 0,22.10004 -16.45981,-16.41433 -10.7109,-22.10004 0,-22.10004 z"
       id="path110"
       style="fill:#00ff00;stroke:#000000;stroke-width:3.27221131;stroke-linecap:round;stroke-linejoin:bevel;stroke-miterlimit:4;stroke-dasharray:none;enable-background:accumulate" />
    <path
       d="m 69.75028,360.17891 c 16.33306,-16.3891 22.04963,-10.62046 22.04963,0 0,11.63495 -5.71657,16.3891 -22.04963,0"
       id="path112"
       style="fill:#00ff00;stroke:#000000;stroke-width:3.27221131;stroke-linecap:round;stroke-linejoin:bevel;stroke-miterlimit:4;stroke-dasharray:none;enable-background:accumulate" />
    <path
       d="m 77.3182,360.48403 c 0,4.18643 -3.38192,7.57996 -7.55404,7.57996 -4.17212,0 -7.55404,-3.39353 -7.55404,-7.57996 0,-4.18643 3.38192,-7.57996 7.55404,-7.57996 4.17212,0 7.55404,3.39353 7.55404,7.57996 z"
       id="path114"
       style="fill:#00ff00;stroke:#000000;stroke-opacity:1;enable-background:accumulate" />
    <path
       d="m 215.68081,360.54633 c -0.0634,-11.63495 5.6532,-16.3891 21.91015,-0.0131 -16.40917,16.37631 -21.84678,10.63291 -21.91015,0.0131 z"
       id="path118"
       style="fill:#00ff00;stroke:#000000;stroke-width:3.27221131;stroke-linecap:round;stroke-linejoin:bevel;stroke-miterlimit:4;stroke-dasharray:none;enable-background:accumulate" />
    <path
       d="m 237.66512,360.54633 c -16.33307,-16.3891 -10.58416,-22.12528 0,-22.12528 11.59516,0 16.33306,5.73618 0,22.12528"
       id="path120"
       style="fill:#00ff00;stroke:#000000;stroke-width:3.27221131;stroke-linecap:round;stroke-linejoin:bevel;stroke-miterlimit:4;stroke-dasharray:none;enable-background:accumulate" />
    <path
       d="m 237.99472,352.94716 c 4.17212,0 7.55405,3.39352 7.55405,7.57995 0,4.18643 -3.38193,7.57996 -7.55405,7.57996 -4.17211,0 -7.55404,-3.39353 -7.55404,-7.57996 0,-4.18643 3.38193,-7.57995 7.55404,-7.57995 z"
       id="path122"
       style="fill:#00ff00;stroke:#000000;stroke-width:3;stroke-opacity:1;enable-background:accumulate" />
    <path
       d="m 69.65075,76.62918 c 16.33306,16.38909 10.58415,22.12528 0,22.12528 -11.59517,0 -16.33307,-5.73619 0,-22.12528"
       id="path126"
       style="fill:#00ff00;stroke:#000000;stroke-width:3.27221131;stroke-linecap:round;stroke-linejoin:bevel;stroke-miterlimit:4;stroke-dasharray:none;enable-background:accumulate" />
    <path
       d="M 69.69321,76.62262 C 83.4352,62.94035 90.82297,68.09767 91.79936,76.60622 91.69787,88.26641 85.9812,93.02056 69.69321,76.62262 z"
       id="path128"
       style="fill:#00ff00;stroke:#000000;stroke-width:3.27221131;stroke-linecap:round;stroke-linejoin:bevel;stroke-miterlimit:4;stroke-dasharray:none;enable-background:accumulate" />
    <path
       d="m 69.33134,84.2224 c -4.17212,0 -7.55405,-3.39352 -7.55405,-7.57995 0,-4.18643 3.38193,-7.57996 7.55405,-7.57996 4.17211,0 7.55404,3.39353 7.55404,7.57996 0,4.18643 -3.38193,7.57995 -7.55404,7.57995 z"
       id="path130"
       style="fill:#00ff00;stroke:#000000;stroke-width:3;stroke-opacity:1;enable-background:accumulate" />
    <path
       d="m 237.54772,99.64649 c -11.5772,0 -16.3151,-5.73618 0.0814,-22.12528 16.39644,16.3891 10.48485,22.12528 -0.0814,22.12528 z"
       id="path134"
       style="fill:#00ff00;stroke:#000000;stroke-width:3.27221131;stroke-linecap:round;stroke-linejoin:bevel;stroke-miterlimit:4;stroke-dasharray:none;enable-background:accumulate" />
    <path
       d="m 237.56732,77.52121 c -16.33307,16.3891 -22.04964,10.62047 -22.04964,0 0,-11.63494 5.71657,-16.38909 22.04964,0"
       id="path136"
       style="fill:#00ff00;stroke:#000000;stroke-width:3.27221131;stroke-linecap:round;stroke-linejoin:bevel;stroke-miterlimit:4;stroke-dasharray:none;enable-background:accumulate" />
    <path
       d="m 230.00008,77.20068 c 0,-4.18643 3.38192,-7.57996 7.55404,-7.57996 4.17212,0 7.55404,3.39353 7.55404,7.57996 0,4.18643 -3.38192,7.57995 -7.55404,7.57995 -4.17212,0 -7.55404,-3.39352 -7.55404,-7.57995 z"
       id="path138"
       style="fill:#00ff00;stroke:#000000;stroke-width:3;stroke-opacity:1;enable-background:accumulate" />
    <path
       d="m 63.83,71.18 179.55,0 0,295.17 -179.55,0 z"
       id="path140"
       style="fill:none;stroke:#000000;stroke-width:6.54442215;stroke-linecap:square;stroke-linejoin:miter;stroke-miterlimit:4;stroke-opacity:1;enable-background:accumulate" />
  </g>
</svg>
