<?xml version="1.0" encoding="UTF-8" standalone="no"?>
<svg
   xmlns:dc="http://purl.org/dc/elements/1.1/"
   xmlns:cc="http://creativecommons.org/ns#"
   xmlns:rdf="http://www.w3.org/1999/02/22-rdf-syntax-ns#"
   xmlns:svg="http://www.w3.org/2000/svg"
   xmlns="http://www.w3.org/2000/svg"
   version="1.1"
   width="256.5"
   height="328.5"
   id="svg36">
  <defs
     id="defs5">
    <clipPath
       id="artboard_clip_path">
      <path
         d="M 54 63 L 310.5 63 L 310.5 391.5 L 54 391.5 Z"
         id="path2" />
    </clipPath>
  </defs>
  <metadata
     id="metadata7"> Produced by OmniGraffle 7.7.1 
    <dc:date>2018-03-13 06:46:41 +0000</dc:date>
<dc:title>Traceable heraldic art http://heraldicart.org/credits.html</dc:title>
<rdf:RDF>
  <cc:Work
     rdf:about="">
    <dc:format>image/svg+xml</dc:format>
    <dc:type
       rdf:resource="http://purl.org/dc/dcmitype/StillImage" />
    <dc:title></dc:title>
  </cc:Work>
</rdf:RDF>
</metadata>
  <g
     id="Bucket_with_Handle"
     fill-opacity="1"
     stroke-dasharray="none"
     stroke="none"
     stroke-opacity="1"
     fill="#ffff00"
     transform="translate(-54.336471,-58.461775)">
    <title
       id="title9">Bucket with Handle</title>
    <g
       id="Bucket_with_Handle: Layer 2">
      <title
         id="title11">Layer 2</title>
      <g
         id="Group_43">
        <g
           id="Graphic_47">
          <path
             d="m 176.88743,64.850276 c -0.15605,0.193594 -3.39178,0.229884 -7.17074,0.14768 -6.66333,-0.133166 -10.80929,0.319184 -13.83643,1.507264 -0.80909,0.36983 -2.31573,0.76507 -3.26524,0.88119 -0.95125,0.16583 -2.70638,0.55239 -3.81194,0.86211 -1.157,0.35768 -4.01248,0.90486 -6.36402,1.27059 -2.70118,0.40328 -5.51737,1.2504 -7.54184,2.22468 -1.82219,0.88183 -4.14312,1.796 -5.1955,2.008055 -2.90692,0.595145 -6.68131,1.806885 -9.50792,2.952205 -1.36274,0.54954 -3.22942,1.28053 -4.13618,1.59719 -1.66094,0.53913 -7.44827,3.82031 -9.84841,5.57765 -0.76633,0.57037 -1.78116,1.13206 -2.28511,1.31351 -0.55365,0.17971 -1.41765,0.69691 -1.98344,1.22452 -0.56406,0.47791 -1.68524,1.23494 -2.54403,1.60303 -3.49181,1.66946 -13.82176,11.06189 -17.11429,15.57468 -5.74994,7.91025 -8.99798,12.57389 -9.0136,13.02119 -0.01042,0.2982 -0.21616,0.49006 -0.46466,0.48138 -0.2485,-0.009 -0.67214,0.72295 -0.85075,1.56265 -0.23004,0.88766 -0.71552,1.96545 -1.07731,2.3509 -0.77675,0.86858 -3.15164,7.6029 -4.42728,12.78325 -0.518464,2.0221 -1.32361,5.12893 -1.783695,6.90426 -0.460085,1.77533 -1.0699,4.9885 -1.394765,7.16664 -0.32487,2.17814 -1.01042,6.13508 -1.55318,8.85298 -0.841594,4.15053 -0.94857,5.78891 -0.63901,11.17391 0.22815,3.44147 0.352796,8.42192 0.36195,11.00981 -0.06674,7.6111 0.183966,10.40648 0.93752,11.62706 0.376775,0.61029 0.83039,1.87014 0.949985,2.72026 0.167565,0.90155 0.756395,2.56423 1.261445,3.77613 0.55475,1.21364 1.13664,3.07511 1.24756,4.17373 0.160615,1.10035 0.49227,3.00285 0.74708,4.25577 0.25481,1.25292 0.88056,4.70828 1.3711,7.76084 0.49227,3.00285 1.48091,7.46611 2.194545,9.82979 0.662195,2.41165 1.209375,5.26712 1.169455,6.41024 -0.03992,1.14311 0.127645,2.04466 0.37615,2.05334 0.1988,0.007 0.50158,1.3113 0.59514,2.90692 0.04386,1.59388 0.38072,3.34728 0.65983,3.9044 0.23115,0.50568 0.67782,1.96435 0.88293,3.21552 0.20511,1.2512 0.8072,3.95932 1.28274,6.01613 0.47555,2.0568 0.935475,4.56092 1.04813,5.60983 0.06469,0.99748 0.37094,2.20244 0.60035,2.75782 0.23114,0.50568 0.50789,2.55555 0.58757,4.54877 0.07794,2.04292 0.35989,3.94369 0.59798,4.25055 0.23635,0.3566 0.54086,1.61125 0.69801,2.811 0.15715,1.19976 0.67198,3.5565 1.20938,5.26714 0.89334,2.91734 1.4492,5.52432 2.67183,11.8369 0.29583,1.50316 0.6379,3.10746 0.77311,3.51026 0.13522,0.40282 0.40849,2.5521 0.63033,4.7493 0.22184,2.19724 0.7089,5.3492 1.09893,7.00493 0.39003,1.65573 1.0568,5.36133 1.50284,8.26304 0.44604,2.90173 1.02556,6.25593 1.28038,7.50886 0.25481,1.25293 0.57952,3.35423 0.77943,4.75452 0.20164,1.35059 0.5437,2.95488 0.77311,3.51025 0.22941,0.5554 0.75639,2.56424 1.13601,4.51817 0.43105,1.90597 0.99038,4.41356 1.3498,5.52083 0.30972,1.10558 0.62228,3.5548 0.70543,5.4486 0.08315,1.89382 0.36857,3.6952 0.60666,4.00207 0.23809,0.30688 0.56974,2.20938 0.64942,4.2026 0.12938,1.99496 0.46623,3.74835 0.65983,3.9044 0.24329,0.15778 0.41259,1.00963 0.38308,1.85453 -0.03124,0.8946 0.35706,2.60004 0.86211,3.81194 0.50505,1.2119 0.90723,2.51973 0.89508,2.86764 -0.01389,0.39762 0.16062,1.10035 0.39176,1.60602 0.28259,0.45773 0.5871,1.7124 0.69975,2.7613 0.11439,0.9992 0.43279,1.85627 0.68129,1.86495 0.2982,0.0104 0.47271,0.71315 0.44494,1.50835 -0.02951,0.84492 0.26633,2.3481 0.62922,3.35598 0.36463,0.95819 0.6622,2.41165 0.63443,3.20685 -0.0555,1.59042 0.87489,2.021 7.09548,3.43247 8.64029,1.94386 9.92383,2.2375 10.35898,2.601 0.28953,0.2589 2.16773,0.62308 4.1985,0.89304 6.39226,0.77059 7.57986,0.96136 10.88028,1.92253 1.7736,0.50979 5.3312,1.23115 7.90347,1.66931 2.574,0.38845 4.94574,0.86936 5.1873,1.07682 0.29126,0.20923 3.0658,0.55493 6.18998,0.86307 6.4489,0.57353 8.82932,0.80593 16.7536,1.87883 3.07276,0.3561 7.63999,0.6649 10.18165,0.5546 2.53992,-0.0606 7.2684,-0.0945 10.5521,-0.0794 3.28195,0.0649 8.46642,-0.20194 11.46406,-0.54514 8.49419,-0.99715 12.78926,-1.4443 14.98475,-1.61643 2.89304,-0.19754 8.24048,-0.85674 13.99594,-1.80027 2.75262,-0.45123 6.35187,-0.92268 8.00066,-1.1139 2.89651,-0.29694 8.85598,-1.3826 15.02467,-2.75956 1.654,-0.34034 3.9096,-0.80894 5.00997,-0.96954 1.10207,-0.21033 2.60697,-0.55586 3.4126,-0.8263 1.36272,-0.54954 3.80325,-0.6136 6.5778,-0.2679 1.4361,0.19943 1.48753,0.15146 1.61534,-2.0833 0.0434,-1.24253 0.33876,-2.57576 0.5497,-2.9167 0.26239,-0.38895 0.61502,-3.3623 0.83071,-6.68875 0.16425,-3.27849 0.50363,-7.29728 0.7597,-8.93045 0.66535,-4.80358 0.94573,-7.13255 1.36085,-11.8951 0.23588,-2.47983 0.6775,-5.1515 0.90407,-5.93976 0.27801,-0.83624 0.72137,-3.5576 1.00869,-6.08538 0.23761,-2.52951 0.67924,-5.20119 1.00347,-5.93626 0.32424,-0.7351 0.78669,-4.0032 1.00064,-7.27994 0.66723,-9.13272 1.8823,-16.85301 2.93011,-18.35901 0.20748,-0.24155 0.55775,-1.72215 0.75892,-3.20795 0.64453,-4.2072 0.9006,-5.84036 1.90345,-10.3336 0.47917,-2.32202 1.25371,-5.9773 1.67798,-8.15196 0.47397,-2.17294 1.11092,-4.73826 1.3924,-5.67389 0.33117,-0.93389 0.88261,-3.9003 1.27627,-6.6234 0.39193,-2.67341 1.09247,-5.63461 1.571,-6.51359 0.47855,-0.87899 0.71207,-1.86606 0.52368,-2.1712 -0.18838,-0.30516 -0.0439,-1.59388 0.29946,-2.87568 0.29363,-1.28353 0.87394,-3.6518 1.22942,-5.28148 0.35548,-1.6297 1.05254,-4.4915 1.5658,-6.3645 0.46529,-1.92443 1.16234,-4.78623 1.46814,-6.41767 0.3075,-1.68113 0.67687,-3.70843 0.80404,-4.50017 0.35721,-1.6794 2.40329,-8.97257 3.29048,-11.57893 0.28148,-0.93563 0.80688,-3.15653 1.06818,-4.93879 0.26127,-1.78228 0.7526,-4.45221 1.10286,-5.93281 0.35027,-1.4806 1.06469,-4.8394 1.60224,-7.4082 0.53756,-2.5688 1.30515,-6.02526 1.76003,-7.65149 0.63522,-2.51564 1.3203,-9.30896 1.07763,-10.90979 -0.089,-0.30167 -0.0768,-0.64957 -0.0716,-0.79868 0.0549,-0.14737 -0.19643,-1.49968 -0.54197,-3.00458 -0.34553,-1.50489 -0.57196,-4.99607 -0.46956,-7.92839 0.10068,-2.88263 -0.0385,-6.02243 -0.3037,-6.97715 -0.26524,-0.95472 -0.64485,-2.90865 -0.8465,-4.25925 -0.1502,-1.39855 -0.6084,-3.95236 -0.9435,-5.75546 -0.38484,-1.80484 -0.6425,-4.4014 -0.5939,-5.79301 0.0486,-1.39161 -0.0554,-2.68903 -0.24723,-2.89478 -0.24157,-0.20747 -0.37851,-0.56058 -0.42301,-0.71142 -0.14152,-1.64706 -0.68002,-4.75104 -1.16251,-6.60905 -0.35422,-1.25639 -1.12039,-4.96546 -1.75135,-8.27172 -1.13017,-6.11031 -3.72184,-13.11759 -6.6436,-17.79763 -1.60303,-2.54403 -1.64058,-2.89367 -0.4634,-2.40471 0.44037,0.21442 -0.12653,-0.65131 -1.32565,-1.93721 -1.14942,-1.28417 -1.95788,-2.35738 -1.75908,-2.35044 0.3976,0.0139 -0.12307,-0.75071 -1.6065,-2.44462 -0.43169,-0.46293 -1.66489,-2.19787 -2.75247,-3.8282 -1.0893,-1.58063 -2.13758,-2.91102 -2.33638,-2.91796 -0.1988,-0.0069 -1.64642,-1.30152 -3.18477,-2.84807 -1.58805,-1.54829 -3.03567,-2.84286 -3.23447,-2.84981 -0.1988,-0.0069 -1.26444,-0.84033 -2.37458,-1.82455 -1.11013,-0.98423 -2.27517,-1.82109 -2.57337,-1.8315 -0.3479,-0.01215 -1.46671,-0.74788 -2.48265,-1.57953 -1.0639,-0.88309 -2.08505,-1.56564 -2.33355,-1.57432 -0.1988,-0.0069 -1.85217,-1.10966 -3.64769,-2.41638 -3.00854,-2.19503 -14.62549,-8.67154 -15.66919,-8.70799 -0.24851,-0.0087 -1.71695,-0.70685 -3.3293,-1.55933 -3.37205,-1.759865 -7.20009,-3.28685 -8.4426,-3.33024 -0.497,-0.01736 -1.08645,-0.236984 -1.32629,-0.49416 -0.29126,-0.20922 -1.36904,-0.694705 -2.45204,-1.03109 -1.08299,-0.336385 -3.19582,-1.10682 -4.66947,-1.65589 -2.15905,-0.87157 -4.68509,-1.20859 -12.62674,-1.78448 -5.46183,-0.34002 -10.37696,-0.66094 -10.92367,-0.68003 -7.30943,-0.15573 -22.76278,-0.7949 -23.05404,-1.00411 -0.24503,-0.10808 -0.54323,-0.11849 -0.74897,0.07337 z M 193.5309,75.58272 v 0 c 0.22768,0.60508 3.0606,0.70401 3.08316,0.05791 0.0104,-0.298205 0.41496,-0.48312 0.91196,-0.46577 0.69581,0.0243 0.74204,0.12544 0.0821,0.50048 -0.61029,0.376775 -0.56407,0.47791 0.38025,0.51089 0.5964,0.02082 1.10382,-0.26002 1.11597,-0.60793 0.0139,-0.3976 0.21095,-0.34096 0.49179,0.16646 0.42475,0.66173 0.47445,0.66346 0.49702,0.01736 0.0208,-0.59641 0.12022,-0.59294 0.45076,-0.08378 0.18666,0.35484 0.57558,0.61723 0.82582,0.57621 0.25024,-0.04103 0.79347,0.07747 1.23382,0.29189 0.44037,0.21442 1.63492,0.20637 2.737,-0.004 1.95394,-0.37961 8.1919,0.534875 8.90963,1.35611 0.57731,0.56754 2.42143,0.48265 3.14153,-0.18886 0.51436,-0.47964 0.61204,-0.42647 0.4421,0.164725 -0.1734,0.690595 0.51546,0.913695 3.39288,1.163465 0.64436,0.07226 1.03503,0.28495 0.88072,0.42884 -0.10634,0.19533 1.46844,0.69817 3.49402,1.117235 2.02556,0.419065 3.64832,0.973335 3.63964,1.221845 -0.0104,0.2982 0.38198,0.46118 0.88073,0.42884 0.45077,-0.08378 1.33844,0.14626 1.92269,0.51499 0.68192,0.4219 1.12923,0.43752 1.23904,0.14279 0.22136,-0.63916 2.73005,0.19486 5.36354,1.72989 0.97665,0.53172 2.15384,1.02067 2.60114,1.03629 0.94431,0.03298 3.97714,1.5322 5.77266,2.83892 0.77785,0.52477 1.56265,0.85075 1.81636,0.71032 0.2537,-0.14042 0.69407,0.074 1.02808,0.48375 0.33402,0.40976 0.81888,0.77501 1.06738,0.78369 0.2982,0.01042 1.46846,0.69817 2.68146,1.58647 1.16503,0.83686 2.33354,1.57432 2.58205,1.583 0.2485,0.0087 0.82581,0.57621 1.30025,1.23967 0.47444,0.66346 1.88278,1.6581 3.0565,2.24646 1.22342,0.59009 3.15936,2.15052 4.35675,3.48612 1.14942,1.28417 2.35548,2.37126 2.70338,2.38341 0.29821,0.0104 1.4066,1.04434 2.40867,2.2736 2.19596,2.66426 3.67766,4.40787 4.589,5.38516 0.33574,0.36005 1.29504,1.38877 2.1087,2.31288 0.7657,0.87267 2.23526,2.96419 3.2217,4.64075 0.98643,1.67656 2.26412,3.56234 2.83797,4.22927 0.52413,0.6652 0.90265,1.22578 0.75181,1.27028 -0.35311,0.13695 1.36716,5.02384 2.12939,5.99592 0.38198,0.46118 0.73619,1.71758 0.74943,2.76302 0.008,1.19455 0.55067,2.75609 1.49608,4.18241 0.75182,1.27028 1.53945,2.93989 1.65904,3.79001 0.12133,0.80041 0.32645,2.0516 0.50095,2.75434 0.1745,0.70275 0.38483,1.80484 0.50963,2.50585 0.0751,0.69928 0.29236,1.60256 0.42758,2.00537 0.13522,0.40281 0.30625,1.20496 0.33512,1.8031 0.0803,0.55018 0.37788,2.00364 0.6327,3.25656 0.30624,1.20496 0.494,2.95315 0.46102,3.89746 -0.0827,0.94257 0.19408,2.99244 0.58931,4.49906 0.3935,1.55634 0.6928,2.9601 0.63617,3.15717 -0.0567,0.19706 0.15998,2.54339 0.51356,5.24283 0.30388,2.6977 0.63664,5.99356 0.73888,7.34067 0.17214,2.1955 0.0658,2.39083 -0.71726,2.01516 -0.49008,-0.21616 -1.32456,-0.54387 -1.86606,-0.71206 -0.54322,-0.11849 -1.17892,-0.43926 -1.47018,-0.64847 -0.2433,-0.15778 -1.67767,-0.40692 -3.11724,-0.50695 -1.43958,-0.10003 -3.2646,-0.56185 -4.04593,-0.98722 -0.78132,-0.42537 -2.16077,-0.82187 -3.10509,-0.85485 -1.64011,-0.0573 -10.42604,-2.10572 -11.15418,-2.62876 -0.24504,-0.10807 -2.37348,-0.43121 -4.7539,-0.66362 -2.3804,-0.2324 -5.69644,-0.7463 -7.3741,-1.1532 -1.62797,-0.40518 -4.99545,-0.8711 -7.47873,-1.00758 -2.43185,-0.18444 -5.00759,-0.5232 -5.69472,-0.796 -2.50001,-1.08252 -30.48416,-3.40329 -31.01067,-2.57574 -0.20922,0.29126 -3.64548,0.3703 -8.61726,0.24645 -4.57244,-0.15968 -10.19726,-0.10729 -12.54185,0.0596 -2.3446,0.16693 -6.82978,0.35863 -9.96611,0.39839 -3.1346,-0.01 -7.17248,0.19738 -8.97211,0.4331 -1.79789,0.18602 -6.18541,0.43089 -9.77425,0.60414 -3.5871,0.12353 -7.18115,0.44588 -7.98677,0.7163 -0.80736,0.32014 -4.00033,0.55697 -7.03553,0.5505 -3.0849,-0.008 -6.17847,0.2321 -6.93265,0.45456 -0.70622,0.2739 -2.55208,0.40849 -4.09279,0.35469 -1.54071,-0.0538 -5.53756,0.40375 -8.84209,0.98501 -3.30452,0.58126 -7.9082,1.31619 -10.25627,1.58252 -2.34806,0.26633 -4.6996,0.63206 -5.25325,0.81177 -0.55365,0.17971 -2.71853,0.90029 -4.78228,1.57464 -2.06375,0.67434 -5.68383,1.74219 -8.04405,2.35643 -11.29887,2.93942 -13.50999,3.55886 -15.88409,4.57069 -1.36273,0.54955 -3.72295,1.16379 -5.1215,1.31399 -1.39682,0.1005 -2.85549,0.54717 -3.16584,0.88466 -0.31209,0.38719 -0.9686,0.66284 -1.41591,0.64721 -0.4473,-0.0156 -1.61471,0.64027 -2.59026,1.5019 l -1.79505,1.52967 -0.23272,-4.73542 c -0.10855,-2.59137 -0.0385,-6.02242 0.16788,-7.65734 0.20637,-1.6349 0.55333,-7.29554 0.788735,-12.61174 0.185705,-5.31794 0.556331,-10.23134 0.77943,-10.92021 0.2231,-0.68886 1.036925,-4.04419 1.753085,-7.45269 0.71616,-3.4085 1.4219,-6.51879 1.58489,-6.91119 0.16299,-0.3924 0.39129,-1.23036 0.50978,-1.77359 0.18902,-1.13791 1.913075,-4.9093 3.18572,-7.15386 0.4219,-0.68192 0.80625,-1.71348 0.82534,-2.26019 0.01909,-0.5467 0.8184,-2.06138 1.80784,-3.32061 1.41133,-1.94116 1.97192,-2.31967 2.96245,-2.18556 0.99054,0.13412 1.39682,-0.1005 1.94069,-1.42506 1.29694,-2.94037 4.70623,-7.94669 6.92318,-10.15828 0.46293,-0.43168 0.98943,-1.25924 1.15763,-1.80073 0.87851,-2.35785 7.73448,-7.74143 13.24728,-10.28577 1.0131,-0.512 1.87884,-1.0789 1.88578,-1.2777 0.007,-0.1988 1.07842,-0.95756 2.44636,-1.6562 1.31825,-0.70038 2.48739,-1.40597 2.6417,-1.54987 0.36178,-0.38545 3.80389,-2.05664 9.11095,-4.40913 1.51704,-0.69344 3.49007,-1.61976 4.30436,-2.13869 0.86227,-0.4675 3.43343,-1.4227 5.79365,-2.03693 2.36195,-0.66393 5.02732,-1.46655 5.93754,-1.88262 0.90849,-0.36636 2.00884,-0.52698 2.40124,-0.36399 0.44036,0.21442 0.59294,0.12022 0.40628,-0.23462 -0.18492,-0.40455 0.0653,-0.44557 0.85185,-0.1693 0.63916,0.22137 1.03676,0.23525 0.84491,0.02951 -0.52588,-0.6155 1.64421,-1.48518 4.34192,-1.78906 1.24945,-0.15541 2.30531,-0.46687 2.31398,-0.71537 0.007,-0.1988 1.4107,-0.49811 3.10746,-0.6379 1.69676,-0.13979 3.44842,-0.42695 3.9044,-0.65983 3.84839,-1.90581 29.48464,-3.59815 29.42563,-1.90833 -0.009,0.2485 0.33054,0.50915 0.72815,0.523035 0.3976,0.01389 0.75418,-0.222465 0.76459,-0.520675 0.009,-0.2485 -0.23635,-0.35658 -0.59119,-0.16992 -0.35658,0.23635 -0.40281,0.13521 -0.13869,-0.30341 0.4716,-0.68019 5.37632,-0.06106 5.59705,0.74282 z"
             fill="#cccccc"
             id="path13" />
          <path
             d="m 176.88743,64.850276 c -0.15605,0.193594 -3.39178,0.229884 -7.17074,0.14768 -6.66333,-0.133166 -10.80929,0.319184 -13.83643,1.507264 -0.80909,0.36983 -2.31573,0.76507 -3.26524,0.88119 -0.95125,0.16583 -2.70638,0.55239 -3.81194,0.86211 -1.157,0.35768 -4.01248,0.90486 -6.36402,1.27059 -2.70118,0.40328 -5.51737,1.2504 -7.54184,2.22468 -1.82219,0.88183 -4.14312,1.796 -5.1955,2.008055 -2.90692,0.595145 -6.68131,1.806885 -9.50792,2.952205 -1.36274,0.54954 -3.22942,1.28053 -4.13618,1.59719 -1.66094,0.53913 -7.44827,3.82031 -9.84841,5.57765 -0.76633,0.57037 -1.78116,1.13206 -2.28511,1.31351 -0.55365,0.17971 -1.41765,0.69691 -1.98344,1.22452 -0.56406,0.47791 -1.68524,1.23494 -2.54403,1.60303 -3.49181,1.66946 -13.82176,11.06189 -17.11429,15.57468 -5.74994,7.91025 -8.99798,12.57389 -9.0136,13.02119 -0.01042,0.2982 -0.21616,0.49006 -0.46466,0.48138 -0.2485,-0.009 -0.67214,0.72295 -0.85075,1.56265 -0.23004,0.88766 -0.71552,1.96545 -1.07731,2.3509 -0.77675,0.86858 -3.15164,7.6029 -4.42728,12.78325 -0.518464,2.0221 -1.32361,5.12893 -1.783695,6.90426 -0.460085,1.77533 -1.0699,4.9885 -1.394765,7.16664 -0.32487,2.17814 -1.01042,6.13508 -1.55318,8.85298 -0.841594,4.15053 -0.94857,5.78891 -0.63901,11.17391 0.22815,3.44147 0.352796,8.42192 0.36195,11.00981 -0.06674,7.6111 0.183966,10.40648 0.93752,11.62706 0.376775,0.61029 0.83039,1.87014 0.949985,2.72026 0.167565,0.90155 0.756395,2.56423 1.261445,3.77613 0.55475,1.21364 1.13664,3.07511 1.24756,4.17373 0.160615,1.10035 0.49227,3.00285 0.74708,4.25577 0.25481,1.25292 0.88056,4.70828 1.3711,7.76084 0.49227,3.00285 1.48091,7.46611 2.194545,9.82979 0.662195,2.41165 1.209375,5.26712 1.169455,6.41024 -0.03992,1.14311 0.127645,2.04466 0.37615,2.05334 0.1988,0.007 0.50158,1.3113 0.59514,2.90692 0.04386,1.59388 0.38072,3.34728 0.65983,3.9044 0.23115,0.50568 0.67782,1.96435 0.88293,3.21552 0.20511,1.2512 0.8072,3.95932 1.28274,6.01613 0.47555,2.0568 0.935475,4.56092 1.04813,5.60983 0.06469,0.99748 0.37094,2.20244 0.60035,2.75782 0.23114,0.50568 0.50789,2.55555 0.58757,4.54877 0.07794,2.04292 0.35989,3.94369 0.59798,4.25055 0.23635,0.3566 0.54086,1.61125 0.69801,2.811 0.15715,1.19976 0.67198,3.5565 1.20938,5.26714 0.89334,2.91734 1.4492,5.52432 2.67183,11.8369 0.29583,1.50316 0.6379,3.10746 0.77311,3.51026 0.13522,0.40282 0.40849,2.5521 0.63033,4.7493 0.22184,2.19724 0.7089,5.3492 1.09893,7.00493 0.39003,1.65573 1.0568,5.36133 1.50284,8.26304 0.44604,2.90173 1.02556,6.25593 1.28038,7.50886 0.25481,1.25293 0.57952,3.35423 0.77943,4.75452 0.20164,1.35059 0.5437,2.95488 0.77311,3.51025 0.22941,0.5554 0.75639,2.56424 1.13601,4.51817 0.43105,1.90597 0.99038,4.41356 1.3498,5.52083 0.30972,1.10558 0.62228,3.5548 0.70543,5.4486 0.08315,1.89382 0.36857,3.6952 0.60666,4.00207 0.23809,0.30688 0.56974,2.20938 0.64942,4.2026 0.12938,1.99496 0.46623,3.74835 0.65983,3.9044 0.24329,0.15778 0.41259,1.00963 0.38308,1.85453 -0.03124,0.8946 0.35706,2.60004 0.86211,3.81194 0.50505,1.2119 0.90723,2.51973 0.89508,2.86764 -0.01389,0.39762 0.16062,1.10035 0.39176,1.60602 0.28259,0.45773 0.5871,1.7124 0.69975,2.7613 0.11439,0.9992 0.43279,1.85627 0.68129,1.86495 0.2982,0.0104 0.47271,0.71315 0.44494,1.50835 -0.02951,0.84492 0.26633,2.3481 0.62922,3.35598 0.36463,0.95819 0.6622,2.41165 0.63443,3.20685 -0.0555,1.59042 0.87489,2.021 7.09548,3.43247 8.64029,1.94386 9.92383,2.2375 10.35898,2.601 0.28953,0.2589 2.16773,0.62308 4.1985,0.89304 6.39226,0.77059 7.57986,0.96136 10.88028,1.92253 1.7736,0.50979 5.3312,1.23115 7.90347,1.66931 2.574,0.38845 4.94574,0.86936 5.1873,1.07682 0.29126,0.20923 3.0658,0.55493 6.18998,0.86307 6.4489,0.57353 8.82932,0.80593 16.7536,1.87883 3.07276,0.3561 7.63999,0.6649 10.18165,0.5546 2.53992,-0.0606 7.2684,-0.0945 10.5521,-0.0794 3.28195,0.0649 8.46642,-0.20194 11.46406,-0.54514 8.49419,-0.99715 12.78926,-1.4443 14.98475,-1.61643 2.89304,-0.19754 8.24048,-0.85674 13.99594,-1.80027 2.75262,-0.45123 6.35187,-0.92268 8.00066,-1.1139 2.89651,-0.29694 8.85598,-1.3826 15.02467,-2.75956 1.654,-0.34034 3.9096,-0.80894 5.00997,-0.96954 1.10207,-0.21033 2.60697,-0.55586 3.4126,-0.8263 1.36272,-0.54954 3.80325,-0.6136 6.5778,-0.2679 1.4361,0.19943 1.48753,0.15146 1.61534,-2.0833 0.0434,-1.24253 0.33876,-2.57576 0.5497,-2.9167 0.26239,-0.38895 0.61502,-3.3623 0.83071,-6.68875 0.16425,-3.27849 0.50363,-7.29728 0.7597,-8.93045 0.66535,-4.80358 0.94573,-7.13255 1.36085,-11.8951 0.23588,-2.47983 0.6775,-5.1515 0.90407,-5.93976 0.27801,-0.83624 0.72137,-3.5576 1.00869,-6.08538 0.23761,-2.52951 0.67924,-5.20119 1.00347,-5.93626 0.32424,-0.7351 0.78669,-4.0032 1.00064,-7.27994 0.66723,-9.13272 1.8823,-16.85301 2.93011,-18.35901 0.20748,-0.24155 0.55775,-1.72215 0.75892,-3.20795 0.64453,-4.2072 0.9006,-5.84036 1.90345,-10.3336 0.47917,-2.32202 1.25371,-5.9773 1.67798,-8.15196 0.47397,-2.17294 1.11092,-4.73826 1.3924,-5.67389 0.33117,-0.93389 0.88261,-3.9003 1.27627,-6.6234 0.39193,-2.67341 1.09247,-5.63461 1.571,-6.51359 0.47855,-0.87899 0.71207,-1.86606 0.52368,-2.1712 -0.18838,-0.30516 -0.0439,-1.59388 0.29946,-2.87568 0.29363,-1.28353 0.87394,-3.6518 1.22942,-5.28148 0.35548,-1.6297 1.05254,-4.4915 1.5658,-6.3645 0.46529,-1.92443 1.16234,-4.78623 1.46814,-6.41767 0.3075,-1.68113 0.67687,-3.70843 0.80404,-4.50017 0.35721,-1.6794 2.40329,-8.97257 3.29048,-11.57893 0.28148,-0.93563 0.80688,-3.15653 1.06818,-4.93879 0.26127,-1.78228 0.7526,-4.45221 1.10286,-5.93281 0.35027,-1.4806 1.06469,-4.8394 1.60224,-7.4082 0.53756,-2.5688 1.30515,-6.02526 1.76003,-7.65149 0.63522,-2.51564 1.3203,-9.30896 1.07763,-10.90979 -0.089,-0.30167 -0.0768,-0.64957 -0.0716,-0.79868 0.0549,-0.14737 -0.19643,-1.49968 -0.54197,-3.00458 -0.34553,-1.50489 -0.57196,-4.99607 -0.46956,-7.92839 0.10068,-2.88263 -0.0385,-6.02243 -0.3037,-6.97715 -0.26524,-0.95472 -0.64485,-2.90865 -0.8465,-4.25925 -0.1502,-1.39855 -0.6084,-3.95236 -0.9435,-5.75546 -0.38484,-1.80484 -0.6425,-4.4014 -0.5939,-5.79301 0.0486,-1.39161 -0.0554,-2.68903 -0.24723,-2.89478 -0.24157,-0.20747 -0.37851,-0.56058 -0.42301,-0.71142 -0.14152,-1.64706 -0.68002,-4.75104 -1.16251,-6.60905 -0.35422,-1.25639 -1.12039,-4.96546 -1.75135,-8.27172 -1.13017,-6.11031 -3.72184,-13.11759 -6.6436,-17.79763 -1.60303,-2.54403 -1.64058,-2.89367 -0.4634,-2.40471 0.44037,0.21442 -0.12653,-0.65131 -1.32565,-1.93721 -1.14942,-1.28417 -1.95788,-2.35738 -1.75908,-2.35044 0.3976,0.0139 -0.12307,-0.75071 -1.6065,-2.44462 -0.43169,-0.46293 -1.66489,-2.19787 -2.75247,-3.8282 -1.0893,-1.58063 -2.13758,-2.91102 -2.33638,-2.91796 -0.1988,-0.0069 -1.64642,-1.30152 -3.18477,-2.84807 -1.58805,-1.54829 -3.03567,-2.84286 -3.23447,-2.84981 -0.1988,-0.0069 -1.26444,-0.84033 -2.37458,-1.82455 -1.11013,-0.98423 -2.27517,-1.82109 -2.57337,-1.8315 -0.3479,-0.01215 -1.46671,-0.74788 -2.48265,-1.57953 -1.0639,-0.88309 -2.08505,-1.56564 -2.33355,-1.57432 -0.1988,-0.0069 -1.85217,-1.10966 -3.64769,-2.41638 -3.00854,-2.19503 -14.62549,-8.67154 -15.66919,-8.70799 -0.24851,-0.0087 -1.71695,-0.70685 -3.3293,-1.55933 -3.37205,-1.759865 -7.20009,-3.28685 -8.4426,-3.33024 -0.497,-0.01736 -1.08645,-0.236984 -1.32629,-0.49416 -0.29126,-0.20922 -1.36904,-0.694705 -2.45204,-1.03109 -1.08299,-0.336385 -3.19582,-1.10682 -4.66947,-1.65589 -2.15905,-0.87157 -4.68509,-1.20859 -12.62674,-1.78448 -5.46183,-0.34002 -10.37696,-0.66094 -10.92367,-0.68003 -7.30943,-0.15573 -22.76278,-0.7949 -23.05404,-1.00411 -0.24503,-0.10808 -0.54323,-0.11849 -0.74897,0.07337 z M 193.5309,75.58272 v 0 c 0.22768,0.60508 3.0606,0.70401 3.08316,0.05791 0.0104,-0.298205 0.41496,-0.48312 0.91196,-0.46577 0.69581,0.0243 0.74204,0.12544 0.0821,0.50048 -0.61029,0.376775 -0.56407,0.47791 0.38025,0.51089 0.5964,0.02082 1.10382,-0.26002 1.11597,-0.60793 0.0139,-0.3976 0.21095,-0.34096 0.49179,0.16646 0.42475,0.66173 0.47445,0.66346 0.49702,0.01736 0.0208,-0.59641 0.12022,-0.59294 0.45076,-0.08378 0.18666,0.35484 0.57558,0.61723 0.82582,0.57621 0.25024,-0.04103 0.79347,0.07747 1.23382,0.29189 0.44037,0.21442 1.63492,0.20637 2.737,-0.004 1.95394,-0.37961 8.1919,0.534875 8.90963,1.35611 0.57731,0.56754 2.42143,0.48265 3.14153,-0.18886 0.51436,-0.47964 0.61204,-0.42647 0.4421,0.164725 -0.1734,0.690595 0.51546,0.913695 3.39288,1.163465 0.64436,0.07226 1.03503,0.28495 0.88072,0.42884 -0.10634,0.19533 1.46844,0.69817 3.49402,1.117235 2.02556,0.419065 3.64832,0.973335 3.63964,1.221845 -0.0104,0.2982 0.38198,0.46118 0.88073,0.42884 0.45077,-0.08378 1.33844,0.14626 1.92269,0.51499 0.68192,0.4219 1.12923,0.43752 1.23904,0.14279 0.22136,-0.63916 2.73005,0.19486 5.36354,1.72989 0.97665,0.53172 2.15384,1.02067 2.60114,1.03629 0.94431,0.03298 3.97714,1.5322 5.77266,2.83892 0.77785,0.52477 1.56265,0.85075 1.81636,0.71032 0.2537,-0.14042 0.69407,0.074 1.02808,0.48375 0.33402,0.40976 0.81888,0.77501 1.06738,0.78369 0.2982,0.01042 1.46846,0.69817 2.68146,1.58647 1.16503,0.83686 2.33354,1.57432 2.58205,1.583 0.2485,0.0087 0.82581,0.57621 1.30025,1.23967 0.47444,0.66346 1.88278,1.6581 3.0565,2.24646 1.22342,0.59009 3.15936,2.15052 4.35675,3.48612 1.14942,1.28417 2.35548,2.37126 2.70338,2.38341 0.29821,0.0104 1.4066,1.04434 2.40867,2.2736 2.19596,2.66426 3.67766,4.40787 4.589,5.38516 0.33574,0.36005 1.29504,1.38877 2.1087,2.31288 0.7657,0.87267 2.23526,2.96419 3.2217,4.64075 0.98643,1.67656 2.26412,3.56234 2.83797,4.22927 0.52413,0.6652 0.90265,1.22578 0.75181,1.27028 -0.35311,0.13695 1.36716,5.02384 2.12939,5.99592 0.38198,0.46118 0.73619,1.71758 0.74943,2.76302 0.008,1.19455 0.55067,2.75609 1.49608,4.18241 0.75182,1.27028 1.53945,2.93989 1.65904,3.79001 0.12133,0.80041 0.32645,2.0516 0.50095,2.75434 0.1745,0.70275 0.38483,1.80484 0.50963,2.50585 0.0751,0.69928 0.29236,1.60256 0.42758,2.00537 0.13522,0.40281 0.30625,1.20496 0.33512,1.8031 0.0803,0.55018 0.37788,2.00364 0.6327,3.25656 0.30624,1.20496 0.494,2.95315 0.46102,3.89746 -0.0827,0.94257 0.19408,2.99244 0.58931,4.49906 0.3935,1.55634 0.6928,2.9601 0.63617,3.15717 -0.0567,0.19706 0.15998,2.54339 0.51356,5.24283 0.30388,2.6977 0.63664,5.99356 0.73888,7.34067 0.17214,2.1955 0.0658,2.39083 -0.71726,2.01516 -0.49008,-0.21616 -1.32456,-0.54387 -1.86606,-0.71206 -0.54322,-0.11849 -1.17892,-0.43926 -1.47018,-0.64847 -0.2433,-0.15778 -1.67767,-0.40692 -3.11724,-0.50695 -1.43958,-0.10003 -3.2646,-0.56185 -4.04593,-0.98722 -0.78132,-0.42537 -2.16077,-0.82187 -3.10509,-0.85485 -1.64011,-0.0573 -10.42604,-2.10572 -11.15418,-2.62876 -0.24504,-0.10807 -2.37348,-0.43121 -4.7539,-0.66362 -2.3804,-0.2324 -5.69644,-0.7463 -7.3741,-1.1532 -1.62797,-0.40518 -4.99545,-0.8711 -7.47873,-1.00758 -2.43185,-0.18444 -5.00759,-0.5232 -5.69472,-0.796 -2.50001,-1.08252 -30.48416,-3.40329 -31.01067,-2.57574 -0.20922,0.29126 -3.64548,0.3703 -8.61726,0.24645 -4.57244,-0.15968 -10.19726,-0.10729 -12.54185,0.0596 -2.3446,0.16693 -6.82978,0.35863 -9.96611,0.39839 -3.1346,-0.01 -7.17248,0.19738 -8.97211,0.4331 -1.79789,0.18602 -6.18541,0.43089 -9.77425,0.60414 -3.5871,0.12353 -7.18115,0.44588 -7.98677,0.7163 -0.80736,0.32014 -4.00033,0.55697 -7.03553,0.5505 -3.0849,-0.008 -6.17847,0.2321 -6.93265,0.45456 -0.70622,0.2739 -2.55208,0.40849 -4.09279,0.35469 -1.54071,-0.0538 -5.53756,0.40375 -8.84209,0.98501 -3.30452,0.58126 -7.9082,1.31619 -10.25627,1.58252 -2.34806,0.26633 -4.6996,0.63206 -5.25325,0.81177 -0.55365,0.17971 -2.71853,0.90029 -4.78228,1.57464 -2.06375,0.67434 -5.68383,1.74219 -8.04405,2.35643 -11.29887,2.93942 -13.50999,3.55886 -15.88409,4.57069 -1.36273,0.54955 -3.72295,1.16379 -5.1215,1.31399 -1.39682,0.1005 -2.85549,0.54717 -3.16584,0.88466 -0.31209,0.38719 -0.9686,0.66284 -1.41591,0.64721 -0.4473,-0.0156 -1.61471,0.64027 -2.59026,1.5019 l -1.79505,1.52967 -0.23272,-4.73542 c -0.10855,-2.59137 -0.0385,-6.02242 0.16788,-7.65734 0.20637,-1.6349 0.55333,-7.29554 0.788735,-12.61174 0.185705,-5.31794 0.556331,-10.23134 0.77943,-10.92021 0.2231,-0.68886 1.036925,-4.04419 1.753085,-7.45269 0.71616,-3.4085 1.4219,-6.51879 1.58489,-6.91119 0.16299,-0.3924 0.39129,-1.23036 0.50978,-1.77359 0.18902,-1.13791 1.913075,-4.9093 3.18572,-7.15386 0.4219,-0.68192 0.80625,-1.71348 0.82534,-2.26019 0.01909,-0.5467 0.8184,-2.06138 1.80784,-3.32061 1.41133,-1.94116 1.97192,-2.31967 2.96245,-2.18556 0.99054,0.13412 1.39682,-0.1005 1.94069,-1.42506 1.29694,-2.94037 4.70623,-7.94669 6.92318,-10.15828 0.46293,-0.43168 0.98943,-1.25924 1.15763,-1.80073 0.87851,-2.35785 7.73448,-7.74143 13.24728,-10.28577 1.0131,-0.512 1.87884,-1.0789 1.88578,-1.2777 0.007,-0.1988 1.07842,-0.95756 2.44636,-1.6562 1.31825,-0.70038 2.48739,-1.40597 2.6417,-1.54987 0.36178,-0.38545 3.80389,-2.05664 9.11095,-4.40913 1.51704,-0.69344 3.49007,-1.61976 4.30436,-2.13869 0.86227,-0.4675 3.43343,-1.4227 5.79365,-2.03693 2.36195,-0.66393 5.02732,-1.46655 5.93754,-1.88262 0.90849,-0.36636 2.00884,-0.52698 2.40124,-0.36399 0.44036,0.21442 0.59294,0.12022 0.40628,-0.23462 -0.18492,-0.40455 0.0653,-0.44557 0.85185,-0.1693 0.63916,0.22137 1.03676,0.23525 0.84491,0.02951 -0.52588,-0.6155 1.64421,-1.48518 4.34192,-1.78906 1.24945,-0.15541 2.30531,-0.46687 2.31398,-0.71537 0.007,-0.1988 1.4107,-0.49811 3.10746,-0.6379 1.69676,-0.13979 3.44842,-0.42695 3.9044,-0.65983 3.84839,-1.90581 29.48464,-3.59815 29.42563,-1.90833 -0.009,0.2485 0.33054,0.50915 0.72815,0.523035 0.3976,0.01389 0.75418,-0.222465 0.76459,-0.520675 0.009,-0.2485 -0.23635,-0.35658 -0.59119,-0.16992 -0.35658,0.23635 -0.40281,0.13521 -0.13869,-0.30341 0.4716,-0.68019 5.37632,-0.06106 5.59705,0.74282 z"
             stroke="#cccccc"
             stroke-linecap="round"
             stroke-linejoin="round"
             stroke-width="0.25"
             id="path15" />
        </g>
        <g
           id="Graphic_46">
          <path
             d="m 211.04942,68.382005 c 9.7823,0.590411 12.40254,1.079999 19.03052,3.65022 2.01341,0.766965 3.9806,1.432795 4.32851,1.444945 0.3479,0.01215 1.81982,0.61092 3.18887,1.30562 9.04704,4.54561 13.64772,6.74647 14.14473,6.76383 0.5467,0.01909 2.1521,1.07037 5.83908,3.7867 0.72815,0.52303 1.45977,0.94667 1.60887,0.95188 0.1491,0.0052 0.53803,0.26759 0.87726,0.52824 2.46009,2.22563 4.54861,3.69187 5.6316,4.02826 0.6906,0.1734 1.37599,0.4959 1.51989,0.6502 0.14389,0.15431 1.11185,0.93453 2.18097,1.66852 2.13648,1.51768 3.09926,2.44699 8.62215,8.16333 3.26508,3.39824 7.92573,9.58208 7.89447,10.47668 -0.005,0.1491 0.79286,1.52052 1.73478,3.04624 0.94021,1.57543 1.78275,3.09768 1.8203,3.44732 0.0375,0.34963 0.68648,1.71584 1.44005,2.93642 1.6013,2.59373 3.92713,10.08934 3.79933,12.32412 -0.0775,0.79347 0.0901,1.69502 0.27847,2.00017 0.5224,0.71489 0.95345,2.62086 1.15967,5.2654 0.10571,1.24771 0.41023,2.50237 0.64831,2.80925 0.23635,0.35658 0.55649,1.16394 0.63505,1.76381 0.62056,3.60446 1.06944,7.84982 1.02605,9.09234 -0.0775,0.79346 0.16865,2.29489 0.52982,3.35248 0.31146,1.05586 0.46513,2.35502 0.29693,2.89651 -0.11848,0.54323 0.0456,1.54418 0.4224,2.15447 0.79803,1.37142 1.18333,6.01264 0.95313,11.17974 -0.066,1.88862 0.11597,5.22896 0.49037,7.332 0.32298,2.151 0.45062,4.19566 0.28937,4.53836 -0.11155,0.34443 -1.23273,1.10144 -2.44463,1.6065 l -2.21979,0.86794 0.54907,-1.47365 c 0.61613,-1.96893 0.63948,-8.33752 -0.005,-11.24618 -0.25482,-1.25292 -0.76728,-5.10241 -1.09656,-8.49766 -0.32756,-3.44494 -0.7493,-7.04246 -1.01452,-7.99718 -0.21553,-0.95299 -0.41198,-2.45268 -0.38246,-3.29759 0.12496,-3.57842 -3.42002,-17.48601 -6.4347,-25.20472 -0.36636,-0.90849 -0.94999,-2.72027 -1.25276,-4.02462 -0.35248,-1.3061 -1.27186,-3.47793 -2.07164,-4.79964 -0.75008,-1.31998 -1.4025,-2.58679 -1.39382,-2.83529 0.007,-0.19881 -0.7963,-1.42112 -1.84807,-2.65211 -1.00205,-1.22926 -2.85879,-3.63286 -4.14169,-5.36954 -2.9033,-3.7837 -12.89386,-14.08477 -13.78847,-14.11601 -0.3479,-0.01215 -1.26791,-0.74093 -2.03535,-1.56391 -0.7657,-0.87268 -1.73714,-1.55349 -2.18445,-1.56911 -0.3976,-0.01389 -1.57132,-0.60224 -2.49307,-1.28133 -0.9697,-0.73051 -2.8184,-1.93957 -4.13428,-2.73194 -1.31587,-0.79237 -2.57684,-1.7321 -2.8629,-2.09041 -0.23808,-0.30688 -1.99606,-1.26397 -3.90834,-2.07717 -1.86258,-0.81145 -3.62402,-1.66914 -3.91528,-1.87836 -0.23983,-0.257175 -1.37252,-0.5953 -2.459,-0.83228 -1.08646,-0.23698 -2.51215,-0.73462 -3.19407,-1.15652 -1.75797,-0.95709 -5.88768,-2.39509 -7.13019,-2.43848 -0.5964,-0.02082 -1.47886,-0.39997 -2.01168,-0.81666 -0.48312,-0.41496 -1.61408,-0.80278 -2.50869,-0.83402 -0.8449,-0.02951 -2.9664,-0.55144 -4.68682,-1.15889 -1.67073,-0.60571 -4.48803,-1.15194 -6.17785,-1.21095 -1.6898,-0.05901 -4.56028,-0.50758 -6.38357,-1.0191 -3.20449,-0.85832 -8.02543,-1.02667 -38.16123,-1.58142 -1.09514,0.01152 -2.24692,0.2201 -2.60524,0.50615 -0.35831,0.28606 -1.76207,0.58536 -3.05602,0.58994 -3.2889,0.13395 -5.04404,0.52051 -7.51927,1.57858 -1.1622,0.50678 -3.41781,0.975385 -5.01343,1.06895 -1.59562,0.09356 -3.35076,0.48012 -3.90961,0.80893 -0.56059,0.37851 -1.46561,0.64547 -2.01231,0.62638 -0.59641,-0.02082 -2.25561,0.46861 -3.67152,1.11582 -1.46561,0.64547 -3.07511,1.136635 -3.57212,1.11928 -0.5467,-0.01909 -1.15178,0.20858 -1.30956,0.45188 -0.20922,0.29126 -0.51089,0.38025 -0.75419,0.22247 -0.24329,-0.15778 -0.54496,-0.0688 -0.75418,0.22246 -0.15778,0.2433 -0.76286,0.470975 -1.35927,0.45015 -1.44131,-0.05033 -5.9358,1.83292 -12.77378,5.27644 -1.67136,0.83733 -3.38894,1.57353 -3.83624,1.55791 -0.44904,0.03408 -1.21017,0.45535 -1.72626,0.9847 -0.5161,0.52935 -1.22753,0.95235 -1.62513,0.93847 -0.3479,-0.01215 -0.65305,0.17624 -0.66346,0.47444 -0.009,0.2485 -0.21616,0.49006 -0.51436,0.47965 -0.497,-0.01736 -3.54324,1.71742 -5.78907,3.33087 -0.81777,0.61834 -2.29032,1.46261 -3.30168,1.9249 -1.01137,0.4623 -2.6417,1.54987 -3.61551,2.3618 -1.02525,0.85989 -2.66079,2.09657 -3.72879,2.75592 -1.01831,0.6611 -2.1499,1.71632 -2.5221,2.39998 -0.85074,1.56264 -1.36857,2.14169 -4.10162,4.88263 -1.2362,1.20085 -3.09484,3.12639 -4.07906,4.23652 -0.98596,1.15983 -2.48455,2.74962 -3.25783,3.51879 -1.75229,1.7302 -5.19108,7.58143 -6.18462,10.38312 -0.33638,1.08299 -0.98833,2.65258 -1.41717,3.5333 -0.42711,0.83102 -0.76002,1.81462 -0.77391,2.21222 -0.01388,0.3976 -0.23004,0.88767 -0.48722,1.12749 -0.41322,0.43342 -0.74961,1.51641 -2.59862,8.86623 -0.40518,1.62797 -0.96813,3.49923 -1.19123,4.18809 -0.2231,0.68886 -0.66946,6.34603 -0.98928,12.65451 -0.36778,6.25704 -0.85516,11.66397 -1.11408,11.95349 -0.25891,0.28953 -0.570526,3.51311 -0.74692,7.1395 -0.20827,5.96405 -0.13317,6.66332 0.726726,7.68858 1.723264,1.95109 1.086939,3.07337 -0.799306,1.51467 -0.48312,-0.41496 -1.41528,-0.79584 -2.011685,-0.81667 -0.894605,-0.0312 -1.132695,-0.33811 -1.144215,-1.43326 0.02604,-0.7455 0.02556,-3.5819 0.02335,-6.36859 -0.0039,-2.73699 -0.1928,-5.87853 -0.45282,-6.98235 -0.61076,-2.45962 -0.34175,-10.16318 0.363366,-11.83043 0.329444,-0.88419 0.343324,-1.2818 -0.0046,-1.29395 -0.2982,-0.0104 -0.43689,-0.31382 -0.27564,-0.65652 0.109815,-0.29473 0.466395,-0.53108 0.71316,-0.4727 0.24677,0.0584 0.47334,-0.72989 0.45835,-1.72563 -0.01499,-0.99574 0.4006,-2.92191 0.845065,-4.24993 0.662355,-1.86779 0.732885,-2.46246 0.242825,-2.67862 -0.78653,-0.27627 -0.68129,-1.86495 0.303564,-4.41812 0.437522,-1.12923 0.962926,-3.35013 1.117866,-4.93707 0.58157,-5.25436 2.68777,-12.844 4.4956,-16.16462 0.42711,-0.83102 1.70496,-3.22468 2.82503,-5.37505 1.07038,-2.15211 2.65164,-4.68446 3.47982,-5.601 0.77848,-0.91827 1.46103,-1.93942 1.47318,-2.28732 0.01215,-0.3479 0.69297,-1.31935 1.46971,-2.18792 0.77675,-0.86858 1.87079,-2.27344 2.44526,-3.04955 1.62923,-2.48092 4.00917,-5.08491 7.24269,-7.90789 5.75215,-5.12355 9.34226,-8.18289 9.590764,-8.17421 0.3479,0.01215 5.16837,-2.65589 7.25641,-4.02605 0.864,-0.5172 1.88057,-1.12859 2.28338,-1.26381 0.40455,-0.18491 1.67135,-0.83733 2.78906,-1.49495 1.11771,-0.65763 2.38452,-1.31004 2.78906,-1.49496 0.40281,-0.135215 1.56848,-0.7414 2.53362,-1.30483 0.96513,-0.56343 3.03409,-1.38688 4.54245,-1.83181 1.5101,-0.49464 3.22422,-1.13144 3.78307,-1.46025 0.55885,-0.32881 1.46388,-0.59577 2.01058,-0.57668 1.44131,0.05033 8.53585,-2.18997 11.3197,-3.53583 0.45598,-0.23288 2.25735,-0.5183 4.0038,-0.65636 1.74645,-0.13805 3.54782,-0.423475 4.0038,-0.65636 0.40455,-0.18491 2.11345,-0.67261 3.76918,-1.06264 1.65747,-0.43973 4.92097,-1.27122 7.18179,-1.88893 3.41433,-0.875986 5.66126,-1.09609 11.98189,-1.12417 8.26069,-0.0101 24.90857,0.62102 40.60001,1.567065 z"
             fill="#ff0000"
             id="path18" />
          <path
             d="m 211.04942,68.382005 c 9.7823,0.590411 12.40254,1.079999 19.03052,3.65022 2.01341,0.766965 3.9806,1.432795 4.32851,1.444945 0.3479,0.01215 1.81982,0.61092 3.18887,1.30562 9.04704,4.54561 13.64772,6.74647 14.14473,6.76383 0.5467,0.01909 2.1521,1.07037 5.83908,3.7867 0.72815,0.52303 1.45977,0.94667 1.60887,0.95188 0.1491,0.0052 0.53803,0.26759 0.87726,0.52824 2.46009,2.22563 4.54861,3.69187 5.6316,4.02826 0.6906,0.1734 1.37599,0.4959 1.51989,0.6502 0.14389,0.15431 1.11185,0.93453 2.18097,1.66852 2.13648,1.51768 3.09926,2.44699 8.62215,8.16333 3.26508,3.39824 7.92573,9.58208 7.89447,10.47668 -0.005,0.1491 0.79286,1.52052 1.73478,3.04624 0.94021,1.57543 1.78275,3.09768 1.8203,3.44732 0.0375,0.34963 0.68648,1.71584 1.44005,2.93642 1.6013,2.59373 3.92713,10.08934 3.79933,12.32412 -0.0775,0.79347 0.0901,1.69502 0.27847,2.00017 0.5224,0.71489 0.95345,2.62086 1.15967,5.2654 0.10571,1.24771 0.41023,2.50237 0.64831,2.80925 0.23635,0.35658 0.55649,1.16394 0.63505,1.76381 0.62056,3.60446 1.06944,7.84982 1.02605,9.09234 -0.0775,0.79346 0.16865,2.29489 0.52982,3.35248 0.31146,1.05586 0.46513,2.35502 0.29693,2.89651 -0.11848,0.54323 0.0456,1.54418 0.4224,2.15447 0.79803,1.37142 1.18333,6.01264 0.95313,11.17974 -0.066,1.88862 0.11597,5.22896 0.49037,7.332 0.32298,2.151 0.45062,4.19566 0.28937,4.53836 -0.11155,0.34443 -1.23273,1.10144 -2.44463,1.6065 l -2.21979,0.86794 0.54907,-1.47365 c 0.61613,-1.96893 0.63948,-8.33752 -0.005,-11.24618 -0.25482,-1.25292 -0.76728,-5.10241 -1.09656,-8.49766 -0.32756,-3.44494 -0.7493,-7.04246 -1.01452,-7.99718 -0.21553,-0.95299 -0.41198,-2.45268 -0.38246,-3.29759 0.12496,-3.57842 -3.42002,-17.48601 -6.4347,-25.20472 -0.36636,-0.90849 -0.94999,-2.72027 -1.25276,-4.02462 -0.35248,-1.3061 -1.27186,-3.47793 -2.07164,-4.79964 -0.75008,-1.31998 -1.4025,-2.58679 -1.39382,-2.83529 0.007,-0.19881 -0.7963,-1.42112 -1.84807,-2.65211 -1.00205,-1.22926 -2.85879,-3.63286 -4.14169,-5.36954 -2.9033,-3.7837 -12.89386,-14.08477 -13.78847,-14.11601 -0.3479,-0.01215 -1.26791,-0.74093 -2.03535,-1.56391 -0.7657,-0.87268 -1.73714,-1.55349 -2.18445,-1.56911 -0.3976,-0.01389 -1.57132,-0.60224 -2.49307,-1.28133 -0.9697,-0.73051 -2.8184,-1.93957 -4.13428,-2.73194 -1.31587,-0.79237 -2.57684,-1.7321 -2.8629,-2.09041 -0.23808,-0.30688 -1.99606,-1.26397 -3.90834,-2.07717 -1.86258,-0.81145 -3.62402,-1.66914 -3.91528,-1.87836 -0.23983,-0.257175 -1.37252,-0.5953 -2.459,-0.83228 -1.08646,-0.23698 -2.51215,-0.73462 -3.19407,-1.15652 -1.75797,-0.95709 -5.88768,-2.39509 -7.13019,-2.43848 -0.5964,-0.02082 -1.47886,-0.39997 -2.01168,-0.81666 -0.48312,-0.41496 -1.61408,-0.80278 -2.50869,-0.83402 -0.8449,-0.02951 -2.9664,-0.55144 -4.68682,-1.15889 -1.67073,-0.60571 -4.48803,-1.15194 -6.17785,-1.21095 -1.6898,-0.05901 -4.56028,-0.50758 -6.38357,-1.0191 -3.20449,-0.85832 -8.02543,-1.02667 -38.16123,-1.58142 -1.09514,0.01152 -2.24692,0.2201 -2.60524,0.50615 -0.35831,0.28606 -1.76207,0.58536 -3.05602,0.58994 -3.2889,0.13395 -5.04404,0.52051 -7.51927,1.57858 -1.1622,0.50678 -3.41781,0.975385 -5.01343,1.06895 -1.59562,0.09356 -3.35076,0.48012 -3.90961,0.80893 -0.56059,0.37851 -1.46561,0.64547 -2.01231,0.62638 -0.59641,-0.02082 -2.25561,0.46861 -3.67152,1.11582 -1.46561,0.64547 -3.07511,1.136635 -3.57212,1.11928 -0.5467,-0.01909 -1.15178,0.20858 -1.30956,0.45188 -0.20922,0.29126 -0.51089,0.38025 -0.75419,0.22247 -0.24329,-0.15778 -0.54496,-0.0688 -0.75418,0.22246 -0.15778,0.2433 -0.76286,0.470975 -1.35927,0.45015 -1.44131,-0.05033 -5.9358,1.83292 -12.77378,5.27644 -1.67136,0.83733 -3.38894,1.57353 -3.83624,1.55791 -0.44904,0.03408 -1.21017,0.45535 -1.72626,0.9847 -0.5161,0.52935 -1.22753,0.95235 -1.62513,0.93847 -0.3479,-0.01215 -0.65305,0.17624 -0.66346,0.47444 -0.009,0.2485 -0.21616,0.49006 -0.51436,0.47965 -0.497,-0.01736 -3.54324,1.71742 -5.78907,3.33087 -0.81777,0.61834 -2.29032,1.46261 -3.30168,1.9249 -1.01137,0.4623 -2.6417,1.54987 -3.61551,2.3618 -1.02525,0.85989 -2.66079,2.09657 -3.72879,2.75592 -1.01831,0.6611 -2.1499,1.71632 -2.5221,2.39998 -0.85074,1.56264 -1.36857,2.14169 -4.10162,4.88263 -1.2362,1.20085 -3.09484,3.12639 -4.07906,4.23652 -0.98596,1.15983 -2.48455,2.74962 -3.25783,3.51879 -1.75229,1.7302 -5.19108,7.58143 -6.18462,10.38312 -0.33638,1.08299 -0.98833,2.65258 -1.41717,3.5333 -0.42711,0.83102 -0.76002,1.81462 -0.77391,2.21222 -0.01388,0.3976 -0.23004,0.88767 -0.48722,1.12749 -0.41322,0.43342 -0.74961,1.51641 -2.59862,8.86623 -0.40518,1.62797 -0.96813,3.49923 -1.19123,4.18809 -0.2231,0.68886 -0.66946,6.34603 -0.98928,12.65451 -0.36778,6.25704 -0.85516,11.66397 -1.11408,11.95349 -0.25891,0.28953 -0.570526,3.51311 -0.74692,7.1395 -0.20827,5.96405 -0.13317,6.66332 0.726726,7.68858 1.723264,1.95109 1.086939,3.07337 -0.799306,1.51467 -0.48312,-0.41496 -1.41528,-0.79584 -2.011685,-0.81667 -0.894605,-0.0312 -1.132695,-0.33811 -1.144215,-1.43326 0.02604,-0.7455 0.02556,-3.5819 0.02335,-6.36859 -0.0039,-2.73699 -0.1928,-5.87853 -0.45282,-6.98235 -0.61076,-2.45962 -0.34175,-10.16318 0.363366,-11.83043 0.329444,-0.88419 0.343324,-1.2818 -0.0046,-1.29395 -0.2982,-0.0104 -0.43689,-0.31382 -0.27564,-0.65652 0.109815,-0.29473 0.466395,-0.53108 0.71316,-0.4727 0.24677,0.0584 0.47334,-0.72989 0.45835,-1.72563 -0.01499,-0.99574 0.4006,-2.92191 0.845065,-4.24993 0.662355,-1.86779 0.732885,-2.46246 0.242825,-2.67862 -0.78653,-0.27627 -0.68129,-1.86495 0.303564,-4.41812 0.437522,-1.12923 0.962926,-3.35013 1.117866,-4.93707 0.58157,-5.25436 2.68777,-12.844 4.4956,-16.16462 0.42711,-0.83102 1.70496,-3.22468 2.82503,-5.37505 1.07038,-2.15211 2.65164,-4.68446 3.47982,-5.601 0.77848,-0.91827 1.46103,-1.93942 1.47318,-2.28732 0.01215,-0.3479 0.69297,-1.31935 1.46971,-2.18792 0.77675,-0.86858 1.87079,-2.27344 2.44526,-3.04955 1.62923,-2.48092 4.00917,-5.08491 7.24269,-7.90789 5.75215,-5.12355 9.34226,-8.18289 9.590764,-8.17421 0.3479,0.01215 5.16837,-2.65589 7.25641,-4.02605 0.864,-0.5172 1.88057,-1.12859 2.28338,-1.26381 0.40455,-0.18491 1.67135,-0.83733 2.78906,-1.49495 1.11771,-0.65763 2.38452,-1.31004 2.78906,-1.49496 0.40281,-0.135215 1.56848,-0.7414 2.53362,-1.30483 0.96513,-0.56343 3.03409,-1.38688 4.54245,-1.83181 1.5101,-0.49464 3.22422,-1.13144 3.78307,-1.46025 0.55885,-0.32881 1.46388,-0.59577 2.01058,-0.57668 1.44131,0.05033 8.53585,-2.18997 11.3197,-3.53583 0.45598,-0.23288 2.25735,-0.5183 4.0038,-0.65636 1.74645,-0.13805 3.54782,-0.423475 4.0038,-0.65636 0.40455,-0.18491 2.11345,-0.67261 3.76918,-1.06264 1.65747,-0.43973 4.92097,-1.27122 7.18179,-1.88893 3.41433,-0.875986 5.66126,-1.09609 11.98189,-1.12417 8.26069,-0.0101 24.90857,0.62102 40.60001,1.567065 z"
             stroke="#cccccc"
             stroke-linecap="round"
             stroke-linejoin="round"
             stroke-width="0.25"
             id="path20" />
        </g>
        <g
           id="Graphic_45">
          <path
             d="m 223.25298,167.78278 c 0.3924,0.16299 4.55682,0.60698 9.17202,0.96719 9.42918,0.72736 8.98188,0.71174 10.65607,1.21805 0.6906,0.1734 3.36573,0.51563 5.94496,0.75498 4.86022,0.46829 7.33483,0.85327 9.30722,1.37 0.6409,0.17166 2.61677,0.58898 4.447,0.9017 5.73748,0.99654 9.68748,1.88089 10.2203,2.29758 0.23982,0.25718 2.26539,0.67624 4.44525,0.95141 2.1799,0.27517 5.29192,0.93121 6.91294,1.53519 1.62276,0.55428 3.89162,1.13112 5.02952,1.32014 1.0882,0.18728 2.95774,0.79994 4.03031,1.43453 1.80593,1.00852 1.99606,1.26396 1.93358,3.05318 -0.0365,1.04371 -0.3214,2.07874 -0.6248,2.21742 -0.30515,0.18839 -0.48028,0.92869 -0.45488,1.62623 0.13805,1.74646 -0.43817,2.57227 -1.78007,2.52542 -0.99574,0.015 -8.9126,1.57967 -12.62863,2.54465 -0.80387,0.22073 -2.86069,0.69628 -4.51642,1.08631 -1.65575,0.39003 -3.46405,0.87424 -4.01942,1.10366 -0.55538,0.22941 -2.45615,0.51136 -4.2523,0.64768 -5.08853,0.36968 -9.84131,1.0994 -12.00967,1.91938 -0.40281,0.13522 -1.654,0.34033 -2.75261,0.45125 -1.09688,0.0612 -2.54687,0.25939 -3.24788,0.38419 -2.0019,0.32818 -8.09659,1.01105 -9.99387,1.1936 -0.9478,0.0664 -3.04562,0.29173 -4.64645,0.5344 -1.60255,0.29236 -4.29853,0.54654 -5.99181,0.58693 -9.41941,0.41749 -21.75789,1.77801 -23.179,2.57432 -0.25371,0.14043 -2.1013,0.32471 -4.14596,0.45235 -1.99322,0.0797 -3.84082,0.26398 -4.14596,0.45236 -0.60855,0.32707 -3.09878,0.38939 -18.76829,0.24029 -6.41655,-0.0748 -13.03538,-0.0571 -14.6807,0.0347 -3.49118,0.22642 -9.65229,-0.0385 -13.91611,-0.48596 -1.63491,-0.20638 -7.34177,-0.65447 -12.65451,-0.98928 -5.311,-0.3845 -10.02386,-0.79789 -10.41451,-1.01057 -0.3924,-0.16299 -1.72737,-0.40865 -2.96988,-0.45204 -5.06423,-0.32613 -11.69979,-1.2545 -12.08177,-1.71569 -0.28953,-0.25892 -1.72389,-0.50804 -3.26461,-0.56184 -1.54071,-0.0538 -4.11298,-0.49197 -5.68777,-0.9948 -1.62449,-0.50459 -3.49749,-1.01784 -4.18809,-1.19124 -0.6906,-0.1734 -1.57826,-0.40344 -1.96892,-0.61613 -0.3924,-0.16298 -1.08126,-0.38608 -1.47713,-0.44967 -5.03993,-1.02193 -7.11173,-1.54213 -8.19125,-1.97792 -0.6854,-0.3225 -1.87126,-0.56295 -2.61677,-0.58899 -0.7952,-0.0278 -2.22437,-0.426 -3.15479,-0.85658 -0.98012,-0.43231 -2.55839,-0.83576 -3.50269,-0.86873 -0.94431,-0.033 -1.87994,-0.31446 -2.02036,-0.56816 -0.13869,-0.30341 -0.72815,-0.52304 -1.27486,-0.54213 -0.5467,-0.0191 -1.67766,-0.40691 -2.50695,-0.88372 -1.17198,-0.63806 -1.36037,-0.94321 -0.801515,-1.27202 0.406281,-0.23461 1.208425,-0.40565 1.755135,-0.38656 0.5964,0.0208 1.35232,-0.25134 1.66267,-0.58883 0.57101,-0.67672 5.51107,-2.49464 9.37618,-3.45442 1.10556,-0.3097 2.81446,-0.7974 3.77265,-1.16203 0.95646,-0.31493 4.12403,-1.2493 7.03616,-1.99354 6.12766,-1.62717 13.6695,-3.85186 15.83786,-4.67183 2.26949,-0.8662 7.18005,-1.83923 10.47416,-2.12229 1.64705,-0.14152 3.44841,-0.42695 4.05176,-0.60492 0.60508,-0.22768 2.30531,-0.46687 3.80326,-0.6136 1.49622,-0.097 3.49812,-0.42522 4.45284,-0.69044 0.95472,-0.26523 2.75435,-0.50095 3.9986,-0.50726 6.07386,-0.0865 17.39229,-0.73619 18.94862,-1.12969 0.95473,-0.26523 4.10147,-0.6032 6.99277,-0.75103 5.7826,-0.29568 7.03032,-0.40139 9.23276,-0.77233 0.85011,-0.1196 5.28386,-0.26334 9.9112,-0.25103 4.62734,0.0123 8.66349,-0.14531 8.9669,-0.284 0.25543,-0.19012 5.23589,-0.31477 11.00982,-0.36194 9.85281,-0.004 14.68591,-0.18381 15.09913,-0.61723 0.30862,-0.28779 5.16711,0.2302 6.04956,0.60934 z"
             fill="#ff0000"
             id="path23" />
          <path
             d="m 223.25298,167.78278 c 0.3924,0.16299 4.55682,0.60698 9.17202,0.96719 9.42918,0.72736 8.98188,0.71174 10.65607,1.21805 0.6906,0.1734 3.36573,0.51563 5.94496,0.75498 4.86022,0.46829 7.33483,0.85327 9.30722,1.37 0.6409,0.17166 2.61677,0.58898 4.447,0.9017 5.73748,0.99654 9.68748,1.88089 10.2203,2.29758 0.23982,0.25718 2.26539,0.67624 4.44525,0.95141 2.1799,0.27517 5.29192,0.93121 6.91294,1.53519 1.62276,0.55428 3.89162,1.13112 5.02952,1.32014 1.0882,0.18728 2.95774,0.79994 4.03031,1.43453 1.80593,1.00852 1.99606,1.26396 1.93358,3.05318 -0.0365,1.04371 -0.3214,2.07874 -0.6248,2.21742 -0.30515,0.18839 -0.48028,0.92869 -0.45488,1.62623 0.13805,1.74646 -0.43817,2.57227 -1.78007,2.52542 -0.99574,0.015 -8.9126,1.57967 -12.62863,2.54465 -0.80387,0.22073 -2.86069,0.69628 -4.51642,1.08631 -1.65575,0.39003 -3.46405,0.87424 -4.01942,1.10366 -0.55538,0.22941 -2.45615,0.51136 -4.2523,0.64768 -5.08853,0.36968 -9.84131,1.0994 -12.00967,1.91938 -0.40281,0.13522 -1.654,0.34033 -2.75261,0.45125 -1.09688,0.0612 -2.54687,0.25939 -3.24788,0.38419 -2.0019,0.32818 -8.09659,1.01105 -9.99387,1.1936 -0.9478,0.0664 -3.04562,0.29173 -4.64645,0.5344 -1.60255,0.29236 -4.29853,0.54654 -5.99181,0.58693 -9.41941,0.41749 -21.75789,1.77801 -23.179,2.57432 -0.25371,0.14043 -2.1013,0.32471 -4.14596,0.45235 -1.99322,0.0797 -3.84082,0.26398 -4.14596,0.45236 -0.60855,0.32707 -3.09878,0.38939 -18.76829,0.24029 -6.41655,-0.0748 -13.03538,-0.0571 -14.6807,0.0347 -3.49118,0.22642 -9.65229,-0.0385 -13.91611,-0.48596 -1.63491,-0.20638 -7.34177,-0.65447 -12.65451,-0.98928 -5.311,-0.3845 -10.02386,-0.79789 -10.41451,-1.01057 -0.3924,-0.16299 -1.72737,-0.40865 -2.96988,-0.45204 -5.06423,-0.32613 -11.69979,-1.2545 -12.08177,-1.71569 -0.28953,-0.25892 -1.72389,-0.50804 -3.26461,-0.56184 -1.54071,-0.0538 -4.11298,-0.49197 -5.68777,-0.9948 -1.62449,-0.50459 -3.49749,-1.01784 -4.18809,-1.19124 -0.6906,-0.1734 -1.57826,-0.40344 -1.96892,-0.61613 -0.3924,-0.16298 -1.08126,-0.38608 -1.47713,-0.44967 -5.03993,-1.02193 -7.11173,-1.54213 -8.19125,-1.97792 -0.6854,-0.3225 -1.87126,-0.56295 -2.61677,-0.58899 -0.7952,-0.0278 -2.22437,-0.426 -3.15479,-0.85658 -0.98012,-0.43231 -2.55839,-0.83576 -3.50269,-0.86873 -0.94431,-0.033 -1.87994,-0.31446 -2.02036,-0.56816 -0.13869,-0.30341 -0.72815,-0.52304 -1.27486,-0.54213 -0.5467,-0.0191 -1.67766,-0.40691 -2.50695,-0.88372 -1.17198,-0.63806 -1.36037,-0.94321 -0.801515,-1.27202 0.406281,-0.23461 1.208425,-0.40565 1.755135,-0.38656 0.5964,0.0208 1.35232,-0.25134 1.66267,-0.58883 0.57101,-0.67672 5.51107,-2.49464 9.37618,-3.45442 1.10556,-0.3097 2.81446,-0.7974 3.77265,-1.16203 0.95646,-0.31493 4.12403,-1.2493 7.03616,-1.99354 6.12766,-1.62717 13.6695,-3.85186 15.83786,-4.67183 2.26949,-0.8662 7.18005,-1.83923 10.47416,-2.12229 1.64705,-0.14152 3.44841,-0.42695 4.05176,-0.60492 0.60508,-0.22768 2.30531,-0.46687 3.80326,-0.6136 1.49622,-0.097 3.49812,-0.42522 4.45284,-0.69044 0.95472,-0.26523 2.75435,-0.50095 3.9986,-0.50726 6.07386,-0.0865 17.39229,-0.73619 18.94862,-1.12969 0.95473,-0.26523 4.10147,-0.6032 6.99277,-0.75103 5.7826,-0.29568 7.03032,-0.40139 9.23276,-0.77233 0.85011,-0.1196 5.28386,-0.26334 9.9112,-0.25103 4.62734,0.0123 8.66349,-0.14531 8.9669,-0.284 0.25543,-0.19012 5.23589,-0.31477 11.00982,-0.36194 9.85281,-0.004 14.68591,-0.18381 15.09913,-0.61723 0.30862,-0.28779 5.16711,0.2302 6.04956,0.60934 z"
             stroke="#cccccc"
             stroke-linecap="round"
             stroke-linejoin="round"
             stroke-width="0.25"
             id="path25" />
        </g>
        <g
           id="Graphic_44">
          <path
             d="m 302.42033,190.6508 c -0.26475,1.88168 -0.52777,3.71365 -0.64105,4.10779 -0.79821,2.90801 -1.12765,3.79221 -1.55648,4.67294 -0.2676,0.53802 -0.49765,1.42569 -0.51674,1.97239 -0.0232,2.08915 -0.87346,6.48818 -1.33986,7.01928 -0.26065,0.33922 -0.4855,1.07778 -0.40865,1.72736 0.0271,0.64784 -0.10175,1.48928 -0.26475,1.88167 -0.163,0.3924 -0.46703,1.97413 -0.7179,3.4582 -0.20116,1.48581 -0.51562,3.36574 -0.64452,4.20717 -0.25261,1.53378 -1.68603,6.95743 -2.79978,10.35205 -0.3364,1.08299 -0.6196,2.06832 -0.67452,2.21569 -0.005,0.1491 -0.16993,0.5912 -0.38261,0.98186 -0.16299,0.3924 -0.45835,1.72563 -0.70054,2.9612 -1.32661,8.0647 -1.68035,9.6447 -2.14501,10.1261 -0.20922,0.29125 -0.43232,0.9801 -0.44967,1.47712 -0.0694,1.98801 -0.90408,5.93975 -1.37047,6.47083 -0.26065,0.33923 -0.44448,1.32803 -0.426,2.22437 -0.033,0.94431 -0.3012,2.92538 -0.70118,4.40424 -0.35026,1.4806 -0.7589,3.20797 -0.87914,3.8009 -0.12023,0.59294 -0.34333,1.2818 -0.50284,1.57479 -0.20748,0.24155 -0.45662,1.67593 -0.65605,3.11205 -0.44052,4.065 -0.97113,6.435 -1.82534,8.09704 -0.42711,0.83103 -0.77217,2.16252 -0.75023,2.95946 -0.004,1.54245 -0.61914,4.90472 -1.10983,6.1316 -0.16299,0.3924 -0.3965,1.37948 -0.47571,2.22265 -0.0775,0.79345 -0.31966,2.02905 -0.49306,2.71965 -0.62133,2.118 -1.056,4.59088 -1.4069,7.51452 -0.1532,1.53724 -0.68035,3.80784 -1.1196,4.98678 -0.441,1.2286 -0.84097,2.70747 -0.81384,3.3553 -0.0226,0.64612 -0.31508,3.323 -0.70353,5.897 -0.38846,2.574 -0.91449,6.23796 -1.08158,8.1728 -0.43011,3.7668 -1.25325,8.8137 -2.86132,17.81404 -0.36416,1.8782 -0.6428,4.15746 -0.6723,5.00238 -0.0312,0.89461 -0.50411,4.46088 -1.1226,7.92258 -0.57053,3.5131 -1.17751,8.0699 -1.29837,10.1059 -0.31398,4.7163 -0.95566,10.26714 -1.36431,11.9945 -0.40345,1.57826 -2.93359,2.7837 -5.56771,2.6917 -0.99401,-0.0347 -2.44574,0.21317 -3.15542,0.58647 -1.31477,0.60098 -2.51972,0.90723 -8.63525,2.1865 -1.50489,0.34553 -4.46325,0.98863 -6.52007,1.46419 -2.0568,0.47554 -5.30988,1.00884 -7.2586,1.23934 -1.89904,0.23227 -4.74932,0.63034 -6.25074,0.87648 -1.50143,0.24612 -3.64896,0.46972 -4.74756,0.58062 -1.0969,0.0612 -3.69346,0.31887 -5.7416,0.5459 -2.04985,0.27676 -4.24535,0.4489 -4.88972,0.37664 -0.6461,-0.0226 -1.54592,0.0953 -2.0019,0.32816 -0.86053,0.4178 -6.90031,0.9533 -8.83688,0.83593 -0.49527,-0.0671 -1.19802,0.10744 -1.50317,0.29583 -0.66519,0.52414 -7.84288,0.87064 -15.70074,0.74551 -3.43107,-0.0701 -8.60859,-0.002 -11.54785,0.0943 -3.5871,0.12356 -5.57338,0.004 -5.95884,-0.35735 -0.33749,-0.31035 -4.69897,-0.81099 -10.05967,-1.19725 -5.1619,-0.3793 -9.72045,-0.93656 -10.05794,-1.2469 -0.33923,-0.26066 -1.32456,-0.54387 -2.17119,-0.5237 -0.89461,-0.0312 -2.82252,-0.3971 -4.29964,-0.8468 -1.47713,-0.44965 -3.80264,-0.82942 -5.09485,-0.87455 -1.29221,-0.0451 -3.31951,-0.41449 -4.44873,-0.85201 -1.17893,-0.43924 -3.79222,-1.12764 -5.81952,-1.497 -2.02731,-0.36937 -5.58491,-1.09074 -7.90694,-1.56991 -2.32203,-0.47917 -5.1873,-1.07683 -6.42287,-1.31903 -1.23383,-0.2919 -2.66125,-0.73983 -3.19755,-1.0571 -0.53629,-0.3173 -2.26192,-0.77566 -3.84539,-1.03 -3.11724,-0.50695 -4.13665,-1.2392 -4.51279,-3.29254 -0.37094,-2.20243 -3.72816,-14.36183 -4.19392,-15.27379 -0.23115,-0.50567 -0.39698,-1.45693 -0.37441,-2.10304 0.02256,-0.6461 -0.21837,-2.29663 -0.57085,-3.60273 -1.04875,-4.1668 -1.58725,-7.27077 -1.94888,-11.16475 -0.17734,-2.0464 -0.55696,-4.00035 -0.79678,-4.25751 -0.28779,-0.30862 -0.45362,-1.25987 -0.42238,-2.15447 0.03298,-0.94431 -0.21316,-2.44574 -0.57952,-3.35423 -0.31666,-0.90674 -0.75292,-2.66364 -0.91007,-3.86338 -0.15715,-1.19976 -0.41196,-2.45266 -0.60208,-2.70811 -0.13869,-0.30341 -0.26523,-0.95473 -0.29584,-1.50315 -0.03061,-0.54846 -0.58299,-3.25484 -1.23304,-6.0144 -0.65005,-2.75955 -1.24346,-5.71617 -1.26192,-6.6125 -0.21773,-3.7397 -0.66377,-6.6414 -1.05096,-6.9535 -0.2433,-0.15777 -0.42127,-0.7611 -0.40045,-1.35752 0.02083,-0.59641 -0.20448,-2.69424 -0.58583,-4.59848 -0.32991,-1.9522 -0.9331,-6.05366 -1.42017,-9.2056 -0.43736,-3.15022 -0.98627,-5.956 -1.22436,-6.2629 -0.23809,-0.30687 -0.54434,-1.51183 -0.70322,-2.66188 -0.15715,-1.19975 -0.4189,-2.25387 -0.6622,-2.41165 -0.19359,-0.15604 -0.49464,-1.5101 -0.64137,-3.00807 -0.09703,-1.4962 -0.45125,-2.7526 -0.69975,-2.76128 -0.2485,-0.009 -0.43168,-0.46292 -0.41259,-1.00962 0.02083,-0.5964 -0.21316,-2.44574 -0.55175,-4.14944 -0.3386,-1.70369 -0.91465,-5.15732 -1.22721,-7.60652 -0.80483,-5.45206 -2.27533,-13.21636 -2.83181,-14.3803 -0.554755,-1.21364 -1.23888,-4.42224 -1.87789,-8.92304 -1.16709,-7.90298 -1.37741,-9.00507 -1.75418,-9.61536 -0.89051,-1.57369 -2.45173,-9.58997 -3.24899,-16.68387 -0.26112,-2.49717 -0.62685,-4.8487 -0.76207,-5.25151 -0.135216,-0.40281 -0.33339,-1.8528 -0.43563,-3.19992 -0.10224,-1.34712 -0.40328,-2.70118 -0.6431,-2.95836 -0.28779,-0.30861 -0.51026,-1.0628 -0.48943,-1.6592 0.02082,-0.59641 -0.301046,-1.35406 -0.6865,-1.71585 -1.11013,-0.98423 -0.825184,-2.01925 0.46703,-1.97413 0.6461,0.0226 2.469395,0.53408 4.04072,1.13633 1.57132,0.60224 3.24551,1.10855 3.74251,1.12591 0.49701,0.0174 1.87821,0.36416 3.00743,0.80167 1.18066,0.38956 4.58222,1.30452 7.54341,2.00506 5.72533,1.34443 10.60575,2.65937 13.60971,3.56044 0.98532,0.28322 3.20969,0.70922 4.944,0.91907 1.73431,0.20984 3.51484,0.52082 3.9055,0.73352 0.3924,0.16298 1.08126,0.38608 1.47713,0.44966 0.39587,0.0636 2.7676,0.5445 5.1873,1.07684 2.47114,0.48439 7.57292,1.16015 11.39291,1.4926 8.33578,0.68918 10.56709,0.91638 14.13337,1.38924 4.50538,0.65494 22.09584,1.36874 29.81502,1.19046 3.98298,-0.06 9.70719,-0.10888 12.69443,-0.15384 13.19143,-0.13648 16.68086,-0.31319 16.99296,-0.70038 0.15778,-0.2433 1.65573,-0.39003 3.34554,-0.33102 1.69156,0.009 3.98818,-0.20906 5.09548,-0.56848 1.10728,-0.35942 2.70985,-0.65178 3.50506,-0.62402 0.8449,0.0295 2.29489,-0.16866 3.24788,-0.38419 1.50664,-0.39523 6.79744,-0.85737 14.72236,-1.22752 1.09688,-0.0612 4.34302,-0.39571 7.24127,-0.74235 2.89824,-0.34664 7.14533,-0.84522 9.49166,-1.06185 2.34807,-0.26633 4.50081,-0.639 4.85565,-0.82565 0.35485,-0.18666 2.00885,-0.52699 3.75704,-0.71474 1.74819,-0.18776 4.29853,-0.54655 5.64912,-0.74819 1.40202,-0.24961 4.55224,-0.68697 7.00144,-0.99953 4.39967,-0.59277 8.71035,-1.48722 14.2861,-2.98439 1.50837,-0.44493 3.46404,-0.87425 4.26445,-0.99558 0.85012,-0.1196 1.75515,-0.38657 2.06202,-0.62465 0.30688,-0.23809 1.4107,-0.49811 2.50933,-0.60902 1.0489,-0.11266 2.648,-0.30562 3.45014,-0.47666 2.04986,-0.27674 6.7501,-2.35184 7.88169,-3.40707 0.5658,-0.52762 1.12637,-0.90613 1.27547,-0.90092 0.19882,0.007 0.14675,1.49795 -0.0666,3.33165 z"
             fill="#ff0000"
             id="path28" />
          <path
             d="m 302.42033,190.6508 c -0.26475,1.88168 -0.52777,3.71365 -0.64105,4.10779 -0.79821,2.90801 -1.12765,3.79221 -1.55648,4.67294 -0.2676,0.53802 -0.49765,1.42569 -0.51674,1.97239 -0.0232,2.08915 -0.87346,6.48818 -1.33986,7.01928 -0.26065,0.33922 -0.4855,1.07778 -0.40865,1.72736 0.0271,0.64784 -0.10175,1.48928 -0.26475,1.88167 -0.163,0.3924 -0.46703,1.97413 -0.7179,3.4582 -0.20116,1.48581 -0.51562,3.36574 -0.64452,4.20717 -0.25261,1.53378 -1.68603,6.95743 -2.79978,10.35205 -0.3364,1.08299 -0.6196,2.06832 -0.67452,2.21569 -0.005,0.1491 -0.16993,0.5912 -0.38261,0.98186 -0.16299,0.3924 -0.45835,1.72563 -0.70054,2.9612 -1.32661,8.0647 -1.68035,9.6447 -2.14501,10.1261 -0.20922,0.29125 -0.43232,0.9801 -0.44967,1.47712 -0.0694,1.98801 -0.90408,5.93975 -1.37047,6.47083 -0.26065,0.33923 -0.44448,1.32803 -0.426,2.22437 -0.033,0.94431 -0.3012,2.92538 -0.70118,4.40424 -0.35026,1.4806 -0.7589,3.20797 -0.87914,3.8009 -0.12023,0.59294 -0.34333,1.2818 -0.50284,1.57479 -0.20748,0.24155 -0.45662,1.67593 -0.65605,3.11205 -0.44052,4.065 -0.97113,6.435 -1.82534,8.09704 -0.42711,0.83103 -0.77217,2.16252 -0.75023,2.95946 -0.004,1.54245 -0.61914,4.90472 -1.10983,6.1316 -0.16299,0.3924 -0.3965,1.37948 -0.47571,2.22265 -0.0775,0.79345 -0.31966,2.02905 -0.49306,2.71965 -0.62133,2.118 -1.056,4.59088 -1.4069,7.51452 -0.1532,1.53724 -0.68035,3.80784 -1.1196,4.98678 -0.441,1.2286 -0.84097,2.70747 -0.81384,3.3553 -0.0226,0.64612 -0.31508,3.323 -0.70353,5.897 -0.38846,2.574 -0.91449,6.23796 -1.08158,8.1728 -0.43011,3.7668 -1.25325,8.8137 -2.86132,17.81404 -0.36416,1.8782 -0.6428,4.15746 -0.6723,5.00238 -0.0312,0.89461 -0.50411,4.46088 -1.1226,7.92258 -0.57053,3.5131 -1.17751,8.0699 -1.29837,10.1059 -0.31398,4.7163 -0.95566,10.26714 -1.36431,11.9945 -0.40345,1.57826 -2.93359,2.7837 -5.56771,2.6917 -0.99401,-0.0347 -2.44574,0.21317 -3.15542,0.58647 -1.31477,0.60098 -2.51972,0.90723 -8.63525,2.1865 -1.50489,0.34553 -4.46325,0.98863 -6.52007,1.46419 -2.0568,0.47554 -5.30988,1.00884 -7.2586,1.23934 -1.89904,0.23227 -4.74932,0.63034 -6.25074,0.87648 -1.50143,0.24612 -3.64896,0.46972 -4.74756,0.58062 -1.0969,0.0612 -3.69346,0.31887 -5.7416,0.5459 -2.04985,0.27676 -4.24535,0.4489 -4.88972,0.37664 -0.6461,-0.0226 -1.54592,0.0953 -2.0019,0.32816 -0.86053,0.4178 -6.90031,0.9533 -8.83688,0.83593 -0.49527,-0.0671 -1.19802,0.10744 -1.50317,0.29583 -0.66519,0.52414 -7.84288,0.87064 -15.70074,0.74551 -3.43107,-0.0701 -8.60859,-0.002 -11.54785,0.0943 -3.5871,0.12356 -5.57338,0.004 -5.95884,-0.35735 -0.33749,-0.31035 -4.69897,-0.81099 -10.05967,-1.19725 -5.1619,-0.3793 -9.72045,-0.93656 -10.05794,-1.2469 -0.33923,-0.26066 -1.32456,-0.54387 -2.17119,-0.5237 -0.89461,-0.0312 -2.82252,-0.3971 -4.29964,-0.8468 -1.47713,-0.44965 -3.80264,-0.82942 -5.09485,-0.87455 -1.29221,-0.0451 -3.31951,-0.41449 -4.44873,-0.85201 -1.17893,-0.43924 -3.79222,-1.12764 -5.81952,-1.497 -2.02731,-0.36937 -5.58491,-1.09074 -7.90694,-1.56991 -2.32203,-0.47917 -5.1873,-1.07683 -6.42287,-1.31903 -1.23383,-0.2919 -2.66125,-0.73983 -3.19755,-1.0571 -0.53629,-0.3173 -2.26192,-0.77566 -3.84539,-1.03 -3.11724,-0.50695 -4.13665,-1.2392 -4.51279,-3.29254 -0.37094,-2.20243 -3.72816,-14.36183 -4.19392,-15.27379 -0.23115,-0.50567 -0.39698,-1.45693 -0.37441,-2.10304 0.02256,-0.6461 -0.21837,-2.29663 -0.57085,-3.60273 -1.04875,-4.1668 -1.58725,-7.27077 -1.94888,-11.16475 -0.17734,-2.0464 -0.55696,-4.00035 -0.79678,-4.25751 -0.28779,-0.30862 -0.45362,-1.25987 -0.42238,-2.15447 0.03298,-0.94431 -0.21316,-2.44574 -0.57952,-3.35423 -0.31666,-0.90674 -0.75292,-2.66364 -0.91007,-3.86338 -0.15715,-1.19976 -0.41196,-2.45266 -0.60208,-2.70811 -0.13869,-0.30341 -0.26523,-0.95473 -0.29584,-1.50315 -0.03061,-0.54846 -0.58299,-3.25484 -1.23304,-6.0144 -0.65005,-2.75955 -1.24346,-5.71617 -1.26192,-6.6125 -0.21773,-3.7397 -0.66377,-6.6414 -1.05096,-6.9535 -0.2433,-0.15777 -0.42127,-0.7611 -0.40045,-1.35752 0.02083,-0.59641 -0.20448,-2.69424 -0.58583,-4.59848 -0.32991,-1.9522 -0.9331,-6.05366 -1.42017,-9.2056 -0.43736,-3.15022 -0.98627,-5.956 -1.22436,-6.2629 -0.23809,-0.30687 -0.54434,-1.51183 -0.70322,-2.66188 -0.15715,-1.19975 -0.4189,-2.25387 -0.6622,-2.41165 -0.19359,-0.15604 -0.49464,-1.5101 -0.64137,-3.00807 -0.09703,-1.4962 -0.45125,-2.7526 -0.69975,-2.76128 -0.2485,-0.009 -0.43168,-0.46292 -0.41259,-1.00962 0.02083,-0.5964 -0.21316,-2.44574 -0.55175,-4.14944 -0.3386,-1.70369 -0.91465,-5.15732 -1.22721,-7.60652 -0.80483,-5.45206 -2.27533,-13.21636 -2.83181,-14.3803 -0.554755,-1.21364 -1.23888,-4.42224 -1.87789,-8.92304 -1.16709,-7.90298 -1.37741,-9.00507 -1.75418,-9.61536 -0.89051,-1.57369 -2.45173,-9.58997 -3.24899,-16.68387 -0.26112,-2.49717 -0.62685,-4.8487 -0.76207,-5.25151 -0.135216,-0.40281 -0.33339,-1.8528 -0.43563,-3.19992 -0.10224,-1.34712 -0.40328,-2.70118 -0.6431,-2.95836 -0.28779,-0.30861 -0.51026,-1.0628 -0.48943,-1.6592 0.02082,-0.59641 -0.301046,-1.35406 -0.6865,-1.71585 -1.11013,-0.98423 -0.825184,-2.01925 0.46703,-1.97413 0.6461,0.0226 2.469395,0.53408 4.04072,1.13633 1.57132,0.60224 3.24551,1.10855 3.74251,1.12591 0.49701,0.0174 1.87821,0.36416 3.00743,0.80167 1.18066,0.38956 4.58222,1.30452 7.54341,2.00506 5.72533,1.34443 10.60575,2.65937 13.60971,3.56044 0.98532,0.28322 3.20969,0.70922 4.944,0.91907 1.73431,0.20984 3.51484,0.52082 3.9055,0.73352 0.3924,0.16298 1.08126,0.38608 1.47713,0.44966 0.39587,0.0636 2.7676,0.5445 5.1873,1.07684 2.47114,0.48439 7.57292,1.16015 11.39291,1.4926 8.33578,0.68918 10.56709,0.91638 14.13337,1.38924 4.50538,0.65494 22.09584,1.36874 29.81502,1.19046 3.98298,-0.06 9.70719,-0.10888 12.69443,-0.15384 13.19143,-0.13648 16.68086,-0.31319 16.99296,-0.70038 0.15778,-0.2433 1.65573,-0.39003 3.34554,-0.33102 1.69156,0.009 3.98818,-0.20906 5.09548,-0.56848 1.10728,-0.35942 2.70985,-0.65178 3.50506,-0.62402 0.8449,0.0295 2.29489,-0.16866 3.24788,-0.38419 1.50664,-0.39523 6.79744,-0.85737 14.72236,-1.22752 1.09688,-0.0612 4.34302,-0.39571 7.24127,-0.74235 2.89824,-0.34664 7.14533,-0.84522 9.49166,-1.06185 2.34807,-0.26633 4.50081,-0.639 4.85565,-0.82565 0.35485,-0.18666 2.00885,-0.52699 3.75704,-0.71474 1.74819,-0.18776 4.29853,-0.54655 5.64912,-0.74819 1.40202,-0.24961 4.55224,-0.68697 7.00144,-0.99953 4.39967,-0.59277 8.71035,-1.48722 14.2861,-2.98439 1.50837,-0.44493 3.46404,-0.87425 4.26445,-0.99558 0.85012,-0.1196 1.75515,-0.38657 2.06202,-0.62465 0.30688,-0.23809 1.4107,-0.49811 2.50933,-0.60902 1.0489,-0.11266 2.648,-0.30562 3.45014,-0.47666 2.04986,-0.27674 6.7501,-2.35184 7.88169,-3.40707 0.5658,-0.52762 1.12637,-0.90613 1.27547,-0.90092 0.19882,0.007 0.14675,1.49795 -0.0666,3.33165 z"
             stroke="#cccccc"
             stroke-linecap="round"
             stroke-linejoin="round"
             stroke-width="0.25"
             id="path30" />
        </g>
      </g>
    </g>
  </g>
  <circle
     style="fill:#3250b0;stroke-width:3;stroke-linecap:round;stroke-linejoin:round;stroke-miterlimit:3"
     id="hold-point"
     cx="124.17393"
     cy="10.869356"
     r="22.214231" />
</svg>
