<?xml version="1.0" encoding="UTF-8" standalone="no"?>
<!DOCTYPE svg PUBLIC "-//W3C//DTD SVG 1.1//EN" "http://www.w3.org/Graphics/SVG/1.1/DTD/svg11.dtd">
<svg xmlns:dc="http://purl.org/dc/elements/1.1/" xmlns:xl="http://www.w3.org/1999/xlink" version="1.1" xmlns="http://www.w3.org/2000/svg" viewBox="81 60.95833 202.5 335.04167" width="202.5" height="335.04167">
  <defs>
    <clipPath id="artboard_clip_path">
      <path d="M 81 60.95833 L 283.5 60.95833 L 283.5 396 L 81 396 Z"/>
    </clipPath>
  </defs>
  <metadata> Produced by OmniGraffle 7.7.1 
    <dc:date>2018-03-18 08:21:30 +0000</dc:date><dc:title>Traceable heraldic art http://heraldicart.org/credits.html</dc:title>
  </metadata>
  <g id="Butter_Churn" fill-opacity="1" stroke-dasharray="none" stroke="none" stroke-opacity="1" fill="#ffff00">
    <title>Butter Churn</title>
    <g id="Butter_Churn: Layer 2" >
      <title>Layer 2</title>
      <g id="Group_3">
        <g id="Graphic_11">
          <path d="M 171.03234 67.08099 C 169.98981 68.64478 168.68666 82.45823 168.1654 97.83546 C 167.3835 122.07415 166.86224 125.46235 162.69214 126.24425 C 160.08583 126.50488 148.35743 129.89308 136.62903 133.54192 C 118.90612 139.01517 114.99665 141.36085 112.9116 147.09473 C 111.34782 151.0042 108.22025 171.0728 106.1352 191.92328 C 103.78952 212.77377 100.92258 240.92193 99.35879 254.47474 C 97.795 268.02756 95.44932 292.00562 93.88554 307.9041 C 92.32175 323.54198 90.2367 341.2649 88.93355 346.99878 C 83.72092 369.6737 83.98155 370.19494 109.26277 380.8808 C 131.15578 390.52417 133.24083 391.04543 167.64413 392.08795 C 214.03647 393.65174 234.88695 388.69975 265.64142 369.41305 C 275.28477 363.41854 278.9336 359.50907 278.1517 356.3815 C 275.28477 346.99878 263.55637 277.14965 259.6469 246.6558 C 257.30123 228.67226 253.39176 201.82726 250.52482 186.71066 C 247.65788 171.59406 244.79093 154.91367 244.00904 149.70105 C 242.70589 140.57896 241.66336 139.79706 226.28613 134.84507 C 217.42467 131.97813 205.175 128.85056 199.1805 127.80803 L 188.23399 126.24425 L 187.4521 95.75041 L 186.6702 65.517205 L 179.63316 64.73531 C 175.98433 64.21405 172.07486 65.256574 171.03234 67.08099 Z" fill="#cccccc"/>
        </g>
        <g id="Graphic_10">
          <path d="M 181.71821 112.17017 C 181.45758 138.75454 180.67569 148.65852 178.33 149.44041 C 175.7237 150.48294 174.9418 141.62148 174.9418 111.64891 C 174.9418 90.27716 175.7237 72.03298 176.76622 70.99046 C 180.93632 67.08099 182.23947 77.76687 181.71821 112.17017 Z" fill="#ff0000"/>
        </g>
        <g id="Graphic_9">
          <path d="M 167.12287 141.88211 C 167.12287 150.48294 171.29297 155.43493 178.85127 155.43493 C 186.93083 155.43493 190.57967 150.48294 188.75525 142.14274 C 187.4521 134.58444 187.4521 134.58444 199.96239 134.84507 C 214.81836 134.84507 235.92948 142.664 236.972 148.13726 C 238.27516 154.91367 221.59477 160.12629 187.71273 163.5145 C 144.96923 167.6846 117.60296 162.99323 117.60296 151.26483 C 117.60296 145.27032 141.05976 134.84507 154.87321 134.58444 C 166.6016 134.58444 167.12287 134.84507 167.12287 141.88211 Z" fill="#ff0000"/>
        </g>
        <g id="Graphic_8">
          <path d="M 241.1421 174.461 C 242.18462 181.2374 242.70589 188.27445 241.924 190.3595 C 241.1421 192.18391 230.71686 196.87527 218.72783 200.78474 C 189.53714 209.90683 155.6551 210.16746 130.63452 201.306 L 113.6935 195.31149 L 114.21476 180.19488 C 114.47539 171.85469 114.99665 164.81765 115.51792 164.55702 C 116.03918 164.03576 122.81559 165.33891 130.63452 167.6846 C 147.57554 172.11532 199.44113 170.55153 220.55224 164.81765 C 227.8499 162.7326 234.88695 161.42944 236.1901 161.69008 C 237.7539 162.21134 239.83894 167.94522 241.1421 174.461 Z" fill="#ff0000"/>
        </g>
        <g id="Graphic_7">
          <path d="M 247.1366 201.56663 C 248.17914 204.43357 227.8499 213.29503 210.127 217.72576 C 178.85127 225.5447 132.71957 222.41712 115.77855 211.20998 C 105.3533 204.43357 112.39034 201.306 125.68253 206.77925 C 134.80462 210.4281 144.44797 211.47061 173.63865 211.47061 C 205.43564 211.47061 211.69079 210.68872 221.8554 205.99736 C 241.66336 196.61464 245.3122 196.09338 247.1366 201.56663 Z" fill="#ff0000"/>
        </g>
        <g id="Graphic_6">
          <path d="M 249.22166 212.51314 C 250.00356 214.07692 251.82797 228.41163 253.13113 244.57076 C 254.6949 260.7299 257.56186 282.10164 259.6469 292.26625 C 261.9926 302.17023 264.33827 313.11674 264.85953 315.98368 C 266.4233 323.28135 263.817 325.10577 237.49326 333.96722 C 216.9034 341.2649 212.7333 341.78616 174.9418 341.78616 C 142.62355 341.78616 131.41641 340.74363 118.12423 336.83416 C 109.26277 333.96722 100.66194 330.579 99.35879 328.7546 C 97.795 326.9302 97.795 320.15378 99.35879 310.2498 C 100.66194 301.9096 103.00762 279.75596 104.31078 261.51178 C 105.87457 243.00697 107.95961 225.28406 108.74151 222.1565 L 110.04466 216.4226 L 124.90063 221.63523 C 153.30942 231.79984 218.98846 226.58722 240.09957 212.77377 C 245.05156 209.6462 247.1366 209.6462 249.22166 212.51314 Z" fill="#ff0000"/>
        </g>
        <g id="Graphic_5">
          <path d="M 267.2052 332.40344 C 270.5934 337.8767 252.0886 346.4775 219.2491 355.07834 C 200.48365 359.7697 157.21889 359.7697 135.84714 354.8177 C 114.73602 349.8657 96.75248 343.0893 96.75248 340.22237 C 96.75248 337.35543 94.66743 337.0948 116.29981 342.56805 C 129.592 346.2169 144.7086 347.52004 171.81423 347.52004 C 210.38763 347.78067 226.54676 345.17436 248.43977 335.531 C 261.2107 329.79713 265.3808 329.01523 267.2052 332.40344 Z" fill="#ff0000"/>
        </g>
        <g id="Graphic_4">
          <path d="M 270.07215 351.16887 C 271.89657 356.3815 265.3808 366.5461 260.16817 366.5461 C 258.865 366.5461 254.6949 368.63116 251.04608 371.4981 C 240.09957 379.0564 210.127 385.5722 180.15442 386.6147 C 158.00078 387.3966 148.35743 386.6147 132.1983 382.18397 C 101.9651 374.1044 91.53986 368.1099 91.53986 358.72718 C 91.53986 354.55708 92.32175 350.6476 93.6249 350.12635 C 94.66743 349.34446 104.31078 351.69014 114.99665 355.33897 C 153.83069 368.37053 225.76486 366.02485 249.4823 350.90824 C 259.90754 344.39247 267.9871 344.39247 270.07215 351.16887 Z" fill="#ff0000"/>
        </g>
      </g>
    </g>
  </g>
</svg>
