<?xml version="1.0" encoding="utf-8"?>
<svg xmlns:xl="http://www.w3.org/1999/xlink" xmlns="http://www.w3.org/2000/svg"
     xmlns:dc="http://purl.org/dc/elements/1.1/"
     xmlns:xlink="http://www.w3.org/1999/xlink"
     version="1.1"
     viewBox="54 67.5 310.5 227.42695"
     width="310.5"
     height="227.42695"
     preserveAspectRatio="xMidYMid meet"
     zoomAndPan="magnify"
     contentScriptType="application/ecmascript"
     contentStyleType="text/css">
   <defs/>
   <metadata  xmlns:svg="http://www.w3.org/2000/svg"
             xmlns:rdf="http://www.w3.org/1999/02/22-rdf-syntax-ns#"
             xmlns:cc="http://creativecommons.org/ns#">
      <rdf:RDF>
         <cc:Work rdf:about="">
            <dc:creator>
               <cc:Agent>
                  <dc:title>http://heraldicart.org Fan, Folding (6).svg</dc:title>
               </cc:Agent>
            </dc:creator>
         </cc:Work>
      </rdf:RDF>
   </metadata>
   <g stroke-opacity="1" fill="#ffff00" fill-opacity="1" stroke="#505050"
      stroke-dasharray="none">
      <title>Fan, Folding (6)</title>
      <g>
         <title>Art</title>
         <g>
            <g>
               <g  id="outline-0">
                  <path 
                        d="M 214.5038 73.40106 C 214.4421 73.52445 214.37012 73.88432 214.33927 74.20307 C 214.30843 74.5321 214.22617 74.86113 214.16448 74.95367 C 214.05137 75.09762 211.0284 75.35467 192.53078 76.77361 C 180.696 77.67845 170.96906 78.44961 170.90737 78.49074 C 170.8251 78.53187 170.80454 78.75807 170.84567 79.1488 C 170.90737 79.65262 170.8868 79.75544 170.73257 79.81714 C 170.64003 79.85827 169.63238 80.22842 168.50134 80.64999 C 167.3703 81.07156 165.97192 81.60624 165.4064 81.82216 C 164.8306 82.04837 164.33706 82.23345 164.29593 82.23345 C 164.09028 82.23345 132.34921 94.01682 131.98934 94.22246 C 131.34156 94.6029 131.29015 94.70573 131.22845 95.75451 C 131.17704 96.53595 131.12563 96.77244 130.91999 97.08091 C 130.69378 97.42022 128.32888 98.74662 110.76693 108.3913 L 90.87092 119.32125 L 90.38766 119.9279 C 89.82214 120.60652 89.77073 120.91499 90.09976 121.62446 C 90.21286 121.87123 90.3054 122.1797 90.3054 122.2928 C 90.3054 122.6424 89.18464 123.71174 87.16934 125.27463 C 85.76068 126.36454 71.68438 138.00396 68.815654 140.44084 C 68.5586 140.65677 67.91082 141.20172 67.37615 141.64385 C 66.84148 142.08599 64.43545 144.08073 62.0397 146.07547 C 59.63367 148.07021 57.55667 149.77705 57.41272 149.87988 C 57.20708 150.0341 57.15567 150.17806 57.11454 150.6716 L 57.07341 151.27825 L 66.96486 158.37295 C 72.40413 162.28018 76.89744 165.5602 76.93857 165.6733 C 76.9797 165.7864 77.04139 166.78377 77.08252 167.88396 C 77.36014 175.5956 78.89219 182.0528 81.83289 187.83138 C 83.22098 190.55616 84.45484 192.42751 86.20281 194.4531 C 90.1923 199.0698 94.94266 201.98994 100.9783 203.5117 C 102.51034 203.90242 102.54119 203.9127 102.54119 204.18004 C 102.54119 204.6119 106.2222 208.44714 108.55626 210.44188 C 109.18347 210.97656 109.71815 211.45982 109.74899 211.52151 C 109.79012 211.5832 109.84153 213.50597 109.88266 215.7989 C 109.9135 218.09182 109.99576 220.55954 110.04717 221.29986 C 110.09859 222.0299 110.13971 226.26615 110.15 230.69777 L 110.15 238.759 L 109.72843 239.23197 C 109.13206 239.90032 108.35062 241.20615 107.98046 242.17268 C 107.58974 243.15976 106.83914 246.1313 106.25305 248.94863 L 105.8212 250.99478 L 105.29681 251.72482 C 104.73129 252.49598 103.67223 254.23367 103.67223 254.3879 C 103.67223 254.58326 103.02445 255.7657 102.75711 256.0536 C 101.17366 257.77073 100.49503 261.21526 101.46156 262.6342 C 102.14018 263.64186 102.9936 264.52612 103.67223 264.9374 C 104.30972 265.31785 104.53593 265.38983 105.26596 265.44124 C 106.01656 265.49265 106.1708 265.5852 106.29418 266.07873 C 106.37644 266.39748 107.1476 267.4771 107.60002 267.8884 C 107.7851 268.0632 108.33005 268.47448 108.81331 268.79323 C 109.29658 269.12226 109.84153 269.5027 110.03689 269.63636 C 110.23225 269.77003 110.50987 269.88314 110.65382 269.88314 C 110.79777 269.88314 111.10624 269.93455 111.33245 269.99624 C 111.64091 270.0785 111.91853 270.0785 112.46349 269.98596 C 113.56368 269.7906 113.82073 269.65693 114.8181 268.7007 C 115.11629 268.4128 115.4556 268.1146 115.55842 268.02206 C 115.66124 267.92952 115.96971 267.5902 116.23704 267.28175 L 116.7203 266.71623 L 117.21385 267.20977 C 117.54288 267.52852 117.91304 267.7753 118.32433 267.92952 C 118.87956 268.13517 119.06464 268.15573 120.1237 268.09404 C 120.77148 268.0632 121.50152 268.01178 121.72773 267.97065 C 122.15958 267.90896 122.15958 267.90896 122.51945 268.4642 C 123.00271 269.22508 123.57852 269.77003 124.13375 270.00652 C 124.39081 270.11963 124.68899 270.243 124.8021 270.3047 C 125.72749 270.72627 127.37264 270.85994 128.09239 270.56176 C 128.28775 270.4795 128.6682 270.37668 128.93553 270.34583 C 129.92262 270.2019 131.53692 269.5644 131.88651 269.17367 C 131.99962 269.05028 132.123 268.95774 132.17441 268.95774 C 132.32865 268.95774 133.31574 268.18658 133.69618 267.765 C 133.90182 267.5388 134.2 267.1275 134.35424 266.8499 C 134.51875 266.562 134.68327 266.31522 134.7244 266.28438 C 134.90947 266.14043 135.24878 265.53378 135.44415 265.01967 C 135.62923 264.51584 135.66007 264.27935 135.61894 263.17916 C 135.57781 261.9967 135.46471 261.16385 135.25907 260.6806 C 135.20766 260.5675 135.04314 260.08422 134.88891 259.60096 C 134.73468 259.1177 134.57016 258.63444 134.51875 258.52133 C 134.1486 257.6679 134.00464 257.29775 134.00464 257.2052 C 134.00464 257.07155 133.59335 256.20784 133.42884 256.0022 C 133.2746 255.80684 133.09981 255.22076 132.91473 254.25423 C 132.82219 253.70928 132.77078 252.63993 132.77078 250.61434 C 132.77078 249.04117 132.72965 247.5811 132.67824 247.37546 C 132.62683 247.1698 132.50344 246.63514 132.4109 246.18272 C 132.19498 245.17507 131.93792 244.61983 131.31071 243.81782 C 130.64237 242.9644 130.25165 242.6148 129.42907 242.11098 C 128.42142 241.50433 128.34945 241.43236 128.34945 240.9491 C 128.34945 240.7126 128.27747 240.12652 128.2055 239.64326 C 127.97929 238.31686 127.84562 219.05835 128.05126 218.92468 C 128.13352 218.88355 129.4702 218.83214 131.02281 218.82186 C 133.94295 218.81157 135.13568 218.69847 137.29494 218.25634 C 137.82961 218.14323 138.47739 218.00957 138.73444 217.95815 C 140.04028 217.7011 143.13521 216.62147 144.7598 215.8503 C 145.67491 215.40818 145.9731 215.31564 146.23015 215.37733 C 146.41523 215.40818 152.55368 219.74725 161.53002 226.1839 C 181.00446 240.1471 183.76009 242.11098 185.56975 243.3654 C 185.90906 243.6019 186.37176 243.9412 186.59797 244.116 C 186.82417 244.3011 187.2149 244.589 187.47195 244.7535 C 189.66205 246.23413 204.53008 256.68082 204.67403 256.84534 C 205.08532 257.3286 205.05447 257.36973 201.08555 261.7088 C 190.3818 273.39964 187.27659 277.14235 186.39232 279.425 C 185.9399 280.61773 185.7651 281.30663 185.58003 282.80783 C 185.40523 284.11367 185.3641 286.02615 185.49777 286.02615 C 185.5389 286.02615 185.68285 286.2318 185.81652 286.47857 C 185.95019 286.7459 186.31006 287.13663 186.6391 287.40396 C 187.31772 287.93864 188.96287 288.85375 189.5181 289.00798 C 190.10419 289.1725 191.39974 289.13137 192.43824 288.91544 C 192.95235 288.80234 193.63097 288.68923 193.92916 288.6481 C 194.72088 288.55557 196.10898 288.1237 197.44566 287.53763 C 197.70271 287.42453 198.09344 287.24973 198.31964 287.1572 C 198.54585 287.05437 198.96742 286.77675 199.24504 286.5197 C 199.7283 286.08784 200.05733 285.9439 200.73596 285.89248 C 200.8799 285.8822 200.98273 285.92333 200.97245 285.98502 C 200.96216 286.0467 201.1781 286.35518 201.4557 286.65336 C 201.7436 286.96183 201.96982 287.23945 201.96982 287.2703 C 201.96982 287.30114 202.18574 287.48622 202.46336 287.6713 C 202.7307 287.85638 203.05973 288.11343 203.20368 288.23682 C 203.52242 288.51444 204.73572 288.80234 205.62 288.80234 C 206.28833 288.80234 206.9464 288.5864 207.45022 288.1854 C 207.70727 287.97976 207.71755 287.97976 208.2111 288.17513 C 208.47843 288.27795 209.03367 288.43218 209.4244 288.52472 C 211.58365 288.9977 213.12598 288.7612 214.68887 287.71243 L 215.3675 287.26 L 215.9947 287.85638 C 217.8455 289.5735 219.686 289.6969 221.763 288.2471 L 222.41078 287.7947 L 222.52388 288.04146 C 222.64727 288.31908 223.12025 288.39105 223.2128 288.14428 C 223.25392 288.03117 223.52125 288.00033 224.3644 288.00033 C 226.23575 288.00033 227.27425 287.5068 229.31012 285.67656 C 230.16354 284.8951 230.2972 284.81285 230.52342 284.9054 C 230.8833 285.03906 232.1994 285.3064 232.50788 285.3064 C 233.2379 285.3064 234.83165 284.06226 235.53083 282.95178 L 235.79817 282.5302 L 236.1272 282.69473 C 236.6413 282.96206 237.44332 282.8284 238.12194 282.38626 C 238.4304 282.18062 238.70803 282.0161 238.75944 282.0161 C 239.181 282.0161 240.3943 280.49434 240.67192 279.61007 C 240.83644 279.09597 240.84672 278.9006 240.73361 277.749 C 240.67192 277.02925 240.5074 276.05244 240.36346 275.5589 C 239.80822 273.58472 238.12194 270.7777 234.61572 265.9759 C 233.69033 264.70092 232.52844 262.9324 231.66474 261.47232 L 230.25608 259.07657 L 230.63652 258.73726 C 236.80582 253.1849 279.9601 215.11 280.18632 215.01745 C 280.3611 214.9352 280.5359 214.83237 280.57704 214.77068 C 280.61817 214.709 281.76977 214.66786 283.79536 214.66786 C 288.75137 214.66786 292.16505 214.43137 294.87955 213.88641 C 297.3884 213.39287 300.2777 212.4572 302.50892 211.4187 C 303.095 211.14107 303.45488 211.02797 303.42403 211.11023 C 303.3932 211.19248 303.31093 212.40578 303.23895 213.81444 C 303.095 216.84768 303.16698 223.54138 303.40347 227.72622 C 303.568 230.71833 304.0101 236.7334 304.16435 237.98783 C 304.2569 238.70758 304.2466 238.759 303.897 239.58157 C 303.3932 240.7743 303.16698 241.51462 302.9819 242.58396 C 302.8071 243.58133 302.82767 244.25996 303.07444 245.58636 C 303.23895 246.45006 303.3212 248.98976 303.19783 249.3702 C 303.1567 249.4833 303.02303 249.8329 302.87908 250.14136 C 302.7454 250.44983 302.56033 250.9845 302.4678 251.3238 C 302.37525 251.66312 302.13876 252.29034 301.9537 252.7222 C 301.50127 253.74012 301.00772 255.16934 300.82264 255.9508 C 300.71982 256.4135 300.69926 256.99957 300.7404 258.3671 C 300.7815 259.3542 300.8432 260.2076 300.88434 260.2693 C 300.92547 260.3207 301.0797 260.80398 301.23393 261.32837 C 301.92284 263.7858 303.4343 265.67773 305.66555 266.89102 C 305.89176 267.0144 306.2208 267.1995 306.3853 267.3126 C 306.5601 267.4154 306.88913 267.50795 307.1256 267.50795 C 307.3621 267.51824 307.5883 267.55937 307.61916 267.62106 C 307.65 267.67247 307.8351 267.72388 308.03045 267.72388 C 308.2258 267.72388 308.4109 267.765 308.44174 267.8267 C 308.524 267.96037 309.6242 267.96037 309.6242 267.8267 C 309.6242 267.765 309.76814 267.72388 309.93265 267.72388 C 311.01228 267.72388 313.26408 266.74707 314.37455 265.8011 C 316.5955 263.8989 317.634 261.26667 317.67513 257.49312 C 317.6957 256.5163 317.43864 254.75806 317.233 254.36734 C 317.1816 254.2748 316.9451 253.78125 316.7086 253.27742 C 316.4721 252.76332 316.1945 252.23892 316.10196 252.09497 C 315.01204 250.49096 314.84753 249.97685 314.9709 248.65045 C 315.02233 248.13634 315.11487 247.39602 315.16628 247.0053 C 315.3205 246.00793 315.29995 245.19564 315.12515 243.68416 C 314.90922 241.8745 314.65217 241.1856 313.9427 240.47612 C 313.16125 239.6844 312.87335 239.45818 311.84513 238.78984 C 311.09454 238.30658 310.91974 238.13178 310.75522 237.75134 C 309.51108 234.86205 308.9147 229.2891 309.0381 221.9682 C 309.13064 216.97107 309.4494 212.40578 309.93265 209.11548 C 310.3131 206.54494 310.128 206.88425 311.95824 205.46531 C 312.8425 204.7867 314.07637 203.78932 314.70358 203.25464 C 316.16365 202.0105 318.9707 199.19319 320.1634 197.78453 C 320.66724 197.17788 321.12994 196.72546 321.17107 196.7666 C 321.22248 196.818 321.14022 197.60973 320.99627 198.53513 C 319.6596 207.24413 318.80617 219.5416 319.0735 226.2456 C 319.1969 229.176 319.31 230.451 319.60818 232.19897 C 319.72128 232.8776 319.8344 233.84411 319.86523 234.35822 C 319.92692 235.22193 319.90636 235.3556 319.55677 236.36325 C 319.3614 236.9596 319.0735 238.03924 318.909 238.77956 C 318.65193 240.0237 318.63137 240.27047 318.64165 242.41945 C 318.65193 243.92065 318.69306 244.7535 318.76504 244.82548 C 318.82673 244.88717 318.87814 245.01056 318.87814 245.1031 C 318.87814 245.30874 319.15576 245.89482 319.28943 245.97708 C 319.34084 246.00793 319.56705 246.4192 319.79326 246.8922 C 320.1634 247.6428 320.21483 247.83815 320.21483 248.45508 C 320.21483 248.8458 320.14285 249.44217 320.0606 249.78149 C 319.9886 250.13108 319.8858 250.77886 319.84467 251.221 C 319.81382 251.6734 319.61846 252.87642 319.43338 253.89435 C 319.14548 255.39555 319.0838 255.99192 319.0838 257.0921 C 319.0838 258.35682 319.10435 258.4905 319.43338 259.41588 C 319.74185 260.28987 319.92692 260.72172 320.2251 261.2461 C 320.2765 261.32837 320.3485 261.47232 320.38962 261.55458 C 320.5747 261.97614 321.63377 263.17916 322.2507 263.683 C 322.63114 263.99145 323.14524 264.41302 323.392 264.61866 C 323.6285 264.8243 323.99867 265.0505 324.2146 265.1122 C 325.63353 265.55434 325.73635 265.56462 327.52545 265.56462 C 329.47906 265.56462 329.7464 265.5132 331.0214 264.91685 C 331.43268 264.7215 332.0599 264.43358 332.38892 264.27935 C 332.8619 264.06343 333.28347 263.71383 334.2397 262.7473 C 335.3502 261.62655 335.54555 261.3695 336.0391 260.42354 C 336.33727 259.82717 336.6766 259.0046 336.7897 258.57274 C 336.97477 257.87356 336.98505 257.65763 336.8925 256.04333 C 336.76913 253.96633 336.82054 254.11028 335.29878 251.6837 C 334.5276 250.44983 334.15745 249.90487 333.40686 248.9075 C 333.11895 248.51678 332.77964 247.9204 332.65626 247.60166 C 332.4609 247.07727 332.44033 246.87163 332.49174 245.87426 C 332.67682 242.29606 332.67682 240.7743 332.50202 239.6227 C 332.4095 238.9852 332.2861 238.41968 332.24497 238.36827 C 332.20384 238.30658 332.14215 238.04952 332.101 237.79247 C 332.00848 237.16526 331.43268 235.97252 330.96998 235.45842 C 330.76434 235.2425 330.40446 234.92374 330.16797 234.75923 C 329.9212 234.605 329.54076 234.29653 329.30427 234.0909 C 329.06778 233.88524 328.6976 233.60762 328.4714 233.47396 L 328.04984 233.23747 L 327.51517 231.24272 C 327.22727 230.14253 326.9188 228.84698 326.84683 228.35343 C 326.3533 225.3099 326.08595 222.3795 326.0037 219.39766 C 325.9317 216.3233 326.07566 214.27714 326.53836 212.24127 C 326.8571 210.86345 327.86476 206.04111 328.1321 204.64274 C 328.27605 203.88186 328.9341 198.91557 329.1192 197.13675 C 329.21173 196.28333 329.30427 194.46339 329.31455 193.08557 L 329.3454 190.57672 L 330.0857 190.186 C 333.4274 188.37634 336.99533 185.5179 339.6687 182.52578 C 345.0257 176.5107 348.6759 169.05613 350.30047 160.78926 C 350.70147 158.74311 350.866 157.15966 350.9174 154.97983 C 350.95853 153.3861 351.0202 152.62522 351.11276 152.4093 C 351.28756 152.01857 352.43916 150.9081 354.86575 148.74884 C 355.90425 147.82344 357.80646 146.1166 359.08145 144.965 C 361.04534 143.18618 361.39493 142.81602 361.4258 142.54869 C 361.44635 142.26078 361.09675 141.8495 357.7756 138.21989 C 355.7603 136.00922 351.0922 130.99152 347.42146 127.06373 C 343.74044 123.13594 340.5838 119.7531 340.4193 119.54746 C 340.2445 119.34182 339.75096 118.86884 339.3191 118.4884 C 338.43484 117.72752 338.23948 117.6761 337.43747 118.0257 C 336.79997 118.30332 336.1522 118.23134 335.61752 117.79949 C 335.41188 117.63498 335.19595 117.50131 335.13426 117.50131 C 335.08285 117.50131 335.02116 117.46018 335.0006 117.40877 C 334.9903 117.35736 330.5073 114.40637 325.04745 110.84874 C 319.5876 107.29111 311.60864 102.0472 307.3107 99.19904 C 303.01275 96.36116 299.1158 93.8009 298.64282 93.52328 L 297.7894 93.01945 L 297.34727 93.23538 C 296.88457 93.4513 296.6378 93.67751 296.53498 93.97569 C 296.3499 94.51037 297.2239 94.82911 262.64493 81.55483 C 260.08467 80.56774 257.91513 79.76573 257.84315 79.76573 C 257.7609 79.76573 257.61695 79.94052 257.50384 80.15645 C 257.39074 80.38266 257.13368 80.7014 256.92804 80.8762 C 256.599 81.17438 256.4962 81.20523 255.86898 81.20523 C 255.36515 81.20523 249.95673 80.135885 235.67478 77.19518 C 214.85338 72.9178 214.7814 72.89723 214.5038 73.40106 Z M 85.52419 171.63696 L 85.52419 171.63696 C 85.58588 171.69865 88.5163 173.82706 92.05337 176.35648 C 95.59044 178.89617 98.53114 181.0143 98.60311 181.08628 C 98.69565 181.16853 98.67509 181.7032 98.53114 183.35864 C 98.21239 186.86486 98.17126 188.81847 98.37691 191.1628 C 98.46945 192.28356 98.52086 193.33235 98.49001 193.49686 C 98.42832 193.83617 98.04788 194.30915 97.84223 194.30915 C 97.48236 194.30915 95.4362 193.1267 94.1098 192.16018 C 90.46991 189.50738 88.02276 185.64128 86.39817 179.99637 C 85.70927 177.56977 84.75303 173.02505 84.75303 172.1305 C 84.75303 171.58555 85.22601 171.27708 85.52419 171.63696 Z M 111.53809 190.32995 L 111.53809 190.32995 C 114.13948 192.19102 116.29874 193.75392 116.35015 193.78476 C 116.47353 193.90815 116.12394 194.49423 115.7435 194.78213 C 115.35278 195.08032 113.43001 195.85148 113.07013 195.85148 C 112.94675 195.85148 112.53546 195.94402 112.15502 196.0674 C 111.54837 196.25248 111.27075 196.27305 109.70786 196.23192 C 107.92905 196.1908 107.09619 196.07769 106.79801 195.83091 C 106.2222 195.34765 106.16051 195.21398 106.06797 194.31943 C 105.96515 193.20896 105.96515 188.59226 106.07826 187.38925 L 106.16051 186.4947 L 106.47926 186.7209 C 106.66434 186.8443 108.9367 188.46888 111.53809 190.32995 Z M 120.74064 201.34216 L 120.74064 201.34216 C 120.74064 201.71232 120.78177 202.34981 120.84346 202.7611 C 120.89487 203.17239 120.95656 204.85866 120.97713 206.5038 L 121.00797 209.49592 L 120.48358 209.32113 C 118.73561 208.71448 116.27817 207.52175 114.8181 206.55522 C 113.99553 206.01027 112.00079 204.3137 111.91853 204.07722 C 111.89797 204.0361 112.08305 203.96411 112.32982 203.92299 C 115.32193 203.47057 117.83078 202.5349 119.45536 201.2599 C 119.90778 200.90003 120.27794 200.69438 120.46302 200.69438 C 120.74064 200.6841 120.74064 200.69438 120.74064 201.34216 Z M 133.3363 205.95886 L 133.3363 205.95886 C 136.32841 208.10783 138.86811 209.93806 138.97093 210.04088 C 139.15601 210.21568 139.09432 210.23624 137.63425 210.58584 C 134.91976 211.2439 134.62157 211.27474 130.91999 211.27474 L 127.55772 211.27474 L 127.49603 208.4677 C 127.4549 206.93566 127.3932 204.76612 127.35207 203.66593 L 127.29038 201.6712 L 127.58856 201.86655 C 127.75308 201.96937 130.3339 203.80988 133.3363 205.95886 Z M 118.14953 216.2616 L 118.14953 216.2616 C 118.77674 216.50837 119.79468 216.8888 120.4116 217.09445 L 121.53236 217.4646 L 121.60434 218.9658 C 121.64547 219.79866 121.71744 221.1045 121.76885 221.86538 C 121.82026 222.62626 121.98478 226.02966 122.13901 229.42278 C 122.36522 234.6667 122.39607 236.16789 122.33437 239.3965 C 122.2624 243.5505 122.22127 243.91036 121.65575 244.68153 C 121.14164 245.40128 120.99769 245.23676 120.90515 243.86923 C 120.77148 241.65857 120.34991 240.8977 118.81787 240.12652 C 117.88219 239.66383 117.49147 238.8721 117.25498 237.0316 C 117.12131 236.01365 116.77172 227.14014 116.61748 220.68293 C 116.50438 216.47752 116.54551 215.7989 116.88482 215.7989 C 116.9568 215.7989 117.52232 216.00454 118.14953 216.2616 Z M 345.6632 158.66085 L 345.6632 158.66085 C 345.6632 159.70963 345.6118 160.26487 345.41644 161.09773 C 345.1388 162.33159 344.8098 163.47291 344.6761 163.60658 C 344.6247 163.66827 344.58358 163.79166 344.58358 163.8842 C 344.58358 163.98702 344.50132 164.21323 344.4088 164.40859 C 344.1209 164.9844 344.09003 165.06665 343.96665 165.52935 C 343.89467 165.77612 343.73016 166.23882 343.5862 166.54728 C 343.44226 166.85575 343.26746 167.24647 343.1955 167.42127 C 342.29065 169.48798 341.95134 170.17689 341.2933 171.36962 C 340.86143 172.14078 340.409 172.93251 340.28563 173.12787 C 340.16224 173.32323 340.02858 173.55972 339.98745 173.64198 C 339.88463 173.86819 338.77415 175.52362 338.01327 176.5724 C 336.8308 178.21755 335.72034 179.52339 334.3014 180.9526 C 332.61513 182.64917 331.1962 183.79049 329.26314 184.98322 C 327.97787 185.78523 327.76194 185.88805 327.40207 185.8572 L 326.99078 185.82636 L 328.03956 183.76992 C 328.61536 182.63888 329.26314 181.27136 329.4688 180.73668 C 330.18853 178.91674 332.15243 172.9942 332.9236 170.30027 C 333.34516 168.82992 333.74617 167.54465 333.81814 167.45211 C 333.8901 167.3493 336.53264 164.9844 339.69955 162.18764 C 343.61705 158.72255 345.4884 157.1288 345.5604 157.20078 C 345.62208 157.26248 345.6632 157.86913 345.6632 158.66085 Z M 324.99604 176.40789 L 324.99604 176.40789 C 323.53597 182.33042 320.42047 188.38662 318.2715 189.47653 C 317.4695 189.87754 316.0711 190.09346 314.2923 190.09346 L 312.9042 190.09346 L 312.9659 189.4971 C 313.09956 188.32493 313.32577 187.46122 313.68564 186.7312 C 314.49794 185.07576 316.37957 183.07074 321.5001 178.38206 C 323.08355 176.93228 324.58475 175.55447 324.8418 175.31798 C 325.09886 175.08149 325.3148 174.90669 325.32507 174.91697 C 325.34563 174.92725 325.1914 175.60588 324.99604 176.40789 Z M 315.7318 194.81298 L 315.7318 194.81298 C 315.8346 194.9775 315.29995 195.7795 314.6419 196.4787 C 314.282 196.84885 313.68564 197.48634 313.29492 197.88735 C 312.91448 198.29864 312.5649 198.62767 312.5032 198.62767 C 312.4518 198.62767 312.17416 198.76133 311.88626 198.93613 C 311.37215 199.23431 311.02256 199.32685 310.91974 199.16234 C 310.8786 199.09036 311.15623 197.692 311.37215 196.8797 C 311.42357 196.68434 311.54695 196.20107 311.6292 195.80007 C 311.72175 195.40935 311.8143 195.07003 311.83485 195.04947 C 311.8554 195.0289 312.53404 194.96721 313.34633 194.9158 C 314.14834 194.8644 314.90922 194.8027 315.02233 194.78213 C 315.4336 194.71016 315.6804 194.72044 315.7318 194.81298 Z M 305.03834 196.67405 L 305.03834 196.67405 C 305.02805 197.692 304.96636 198.29864 304.81213 198.93613 C 304.5345 200.07745 304.50366 200.24197 304.38028 201.40385 C 304.2569 202.50405 303.94842 203.59396 303.65024 203.96411 C 303.0333 204.71471 297.4398 206.5038 293.99528 207.04877 C 292.3193 207.3161 289.52253 207.59372 288.9159 207.5526 L 288.43262 207.52175 L 294.76644 201.91796 C 298.2521 198.8333 301.2031 196.26277 301.32647 196.1908 C 301.44986 196.11882 301.63494 196.0674 301.73776 196.05712 C 301.84058 196.05712 302.0668 195.97487 302.25187 195.88233 C 302.72485 195.63555 304.26717 195.24483 304.68874 195.2654 L 305.0486 195.28596 L 305.03834 196.67405 Z"
                        fill="black"/>
               </g>
            </g>
            <g>
               <path d="M 236.45623 79.51895 C 247.0366 81.69878 255.70446 83.49816 255.72503 83.51872 C 255.77644 83.55985 255.19035 85.9556 253.06194 94.52065 C 252.2702 97.68756 251.4168 101.13209 251.15974 102.18087 C 250.9027 103.22965 250.61478 104.43266 250.50168 104.85423 C 250.39886 105.2758 250.21378 106.05725 250.0801 106.57136 C 249.94644 107.11631 249.7922 107.5276 249.73052 107.5276 C 249.65854 107.5276 247.12913 107.15744 244.11645 106.69474 C 241.0935 106.23204 238.4921 105.8516 238.3173 105.84132 C 238.0808 105.83104 237.99856 105.88245 237.93686 106.0881 C 237.83404 106.41712 234.25584 133.69573 234.25584 134.14815 C 234.25584 134.32295 234.31754 134.49774 234.3895 134.5183 C 234.5643 134.58 241.3711 135.51568 242.0703 135.56709 C 242.37876 135.59794 242.67695 135.64935 242.71807 135.69047 C 242.79005 135.76245 242.32735 137.8086 241.71042 140.22491 C 241.62816 140.53338 241.28885 141.92147 240.94954 143.30957 C 240.61023 144.69766 240.2195 146.31196 240.06527 146.90833 C 239.92132 147.5047 239.7568 148.17303 239.7054 148.39924 C 239.54088 149.13956 233.44355 173.67283 233.22763 174.46456 C 233.10424 174.88612 232.97057 175.45164 232.91916 175.71898 C 232.86775 175.98632 232.7855 176.29478 232.7238 176.40789 C 232.6621 176.521 232.6107 176.7472 232.6107 176.90143 C 232.6107 177.06595 232.56957 177.24074 232.51816 177.30244 C 232.46675 177.35385 232.3742 177.65203 232.3228 177.9605 C 232.18913 178.61855 231.9732 179.56451 231.7984 180.22257 C 231.72643 180.47963 231.60304 180.9629 231.5208 181.3022 C 231.42825 181.64151 231.29458 182.15562 231.21232 182.44352 C 231.13006 182.73142 231.06837 183.0399 231.06837 183.12215 C 231.06837 183.21469 231.00668 183.51287 230.92442 183.7802 C 230.84216 184.05782 230.6982 184.58222 230.60567 184.95237 C 230.51313 185.32253 230.37946 185.82636 230.2972 186.08341 C 230.22523 186.34047 230.09156 186.91627 229.98874 187.36868 C 229.8345 188.109 229.68028 188.69509 229.42322 189.63076 C 229.3718 189.79528 226.4311 201.59921 222.89404 215.8503 C 219.35697 230.1014 216.20035 242.77932 215.87132 244.01319 L 215.28523 246.27526 L 213.64008 248.00267 C 212.11832 249.61697 211.99494 249.7198 211.91268 249.50387 C 211.86127 249.3702 211.8407 247.71477 211.87155 245.72003 C 211.9024 243.7664 212.91005 205.26995 214.0925 160.17233 C 215.28523 115.07471 216.26204 77.58591 216.26204 76.85587 L 216.26204 75.550035 L 216.7453 75.550035 C 217.00236 75.550035 225.87587 77.33913 236.45623 79.51895 Z"/>
            </g>
            <g>
               <path d="M 214.47294 79.16936 C 214.4318 80.32096 214.33927 85.0302 214.25702 89.63661 C 214.17476 94.24303 214.07194 98.85973 214.0411 99.88794 L 213.9794 101.76958 L 208.8383 101.76958 C 205.4966 101.76958 203.63553 101.81071 203.50186 101.8724 C 203.3065 101.98551 203.3065 102.25284 203.3065 116.42168 L 203.3065 130.86814 L 208.35505 130.86814 L 213.4036 130.86814 L 213.3419 132.58526 C 213.30077 133.5415 212.78666 151.26797 212.20058 171.99683 C 211.42942 199.02867 211.00785 215.5624 210.70966 230.47156 C 210.48346 241.90534 210.26753 251.34438 210.2264 251.4472 C 210.14415 251.66312 208.76633 253.226 208.65323 253.226 C 208.52984 253.226 208.3756 252.74275 208.13912 251.65284 C 208.02602 251.0976 201.32204 218.5031 193.22997 179.21492 C 177.20006 101.25547 173.19 81.54454 173.19 80.71169 C 173.2003 80.20786 173.21057 80.17701 173.46763 80.16673 C 173.62186 80.16673 182.8347 79.47783 193.94972 78.64497 C 205.06475 77.80183 214.23645 77.11293 214.34955 77.10264 C 214.52435 77.09236 214.53463 77.1849 214.47294 79.16936 Z"/>
            </g>
            <g>
               <path d="M 174.1771 94.00654 C 175.54463 100.73108 176.6551 106.24233 176.64482 106.24233 C 176.63454 106.25261 174.41359 106.86954 171.70938 107.60986 C 166.22898 109.10077 166.29067 109.08021 166.29067 109.90278 C 166.29067 110.15984 166.47575 111.1572 166.70196 112.11345 C 167.26748 114.49891 167.73017 116.45253 167.833 116.88438 C 167.8844 117.07974 168.04892 117.77893 168.20315 118.4267 C 171.64768 133.3153 172.4497 136.75982 172.5011 136.81123 C 172.5628 136.86264 174.09484 136.5439 174.87629 136.3074 C 175.05108 136.256 175.64745 136.12233 176.21297 135.99894 C 176.77849 135.87555 177.28231 135.74189 177.33373 135.69047 C 177.39542 135.63906 177.55993 135.59794 177.71417 135.59794 C 177.8684 135.59794 178.88633 135.39229 179.97624 135.13524 C 181.06616 134.87818 182.0738 134.67254 182.21776 134.6931 L 182.47481 134.72395 L 190.82394 175.74983 L 199.17306 216.7757 L 203.39904 235.1294 C 205.7228 245.22648 207.62501 253.60645 207.62501 253.7607 C 207.62501 254.11028 207.45022 254.14113 207.32683 253.8121 C 207.00808 253.04093 206.95667 252.91755 206.89498 252.91755 C 206.86413 252.91755 206.75103 252.70162 206.6482 252.424 C 206.54538 252.15667 206.43228 251.88933 206.38087 251.83792 C 206.33974 251.77623 206.1958 251.43692 206.05184 251.06676 C 205.83591 250.50124 205.26011 249.22625 204.25246 247.0567 C 204.12907 246.79965 200.95188 239.83862 197.1886 231.58204 C 190.8445 217.69082 188.1917 212.07675 161.70482 156.56329 C 145.96281 123.56779 133.07925 96.47426 133.07925 96.36116 C 133.07925 96.25834 133.15122 96.07326 133.24376 95.96015 C 133.34658 95.8162 139.18686 93.6261 152.44058 88.75235 C 162.90783 84.89653 171.53458 81.75019 171.586 81.76047 C 171.64768 81.78103 172.80957 87.282 174.1771 94.00654 Z"/>
            </g>
            <g>
               <path d="M 258.34698 81.88385 C 258.37783 81.9147 258.84052 82.09978 259.3649 82.28486 C 261.07176 82.88123 263.45722 83.76549 265.46224 84.53666 C 265.80156 84.67032 272.42328 87.2203 280.16575 90.21242 C 287.9185 93.19425 294.2729 95.67225 294.28318 95.72366 C 294.30374 95.76479 294.36544 95.80592 294.42713 95.80592 C 294.47854 95.80592 294.6739 95.86761 294.8487 95.94987 C 295.03378 96.03213 295.26 96.11438 295.3628 96.15551 C 295.46563 96.18636 295.5376 96.30975 295.5376 96.4537 C 295.5376 96.71075 285.24515 117.86118 285.00866 118.09767 C 284.8647 118.24162 284.7002 118.17993 284.1244 117.80977 C 283.74395 117.563 275.4668 113.89226 275.36398 113.92311 C 275.26116 113.96424 263.82738 140.95495 263.88907 140.9858 C 263.90964 140.99608 264.89673 141.46906 266.07918 142.0243 C 269.37975 143.58719 271.79606 144.87246 271.74465 145.05754 C 271.7241 145.1398 265.45196 157.91025 257.80202 173.43634 C 242.62554 204.24173 229.8962 230.26592 229.63915 231.04736 C 229.48492 231.47921 228.6829 232.37376 223.6652 237.6588 C 220.47773 241.02107 217.82493 243.7664 217.77352 243.7664 C 217.71183 243.7664 217.57816 243.84867 217.46505 243.9515 C 217.30054 244.08516 217.2697 244.09544 217.31082 243.97206 C 217.34167 243.8898 226.4928 207.36751 237.65924 162.82513 C 258.2133 80.79394 258.01795 81.55483 258.34698 81.88385 Z"/>
            </g>
            <g>
               <path d="M 315.41305 106.87982 C 324.00895 112.39107 331.80284 117.40877 332.7385 118.03598 C 333.6742 118.6632 334.67156 119.30069 334.95946 119.44464 C 335.2371 119.58859 335.453 119.7531 335.43244 119.8148 C 335.42216 119.86621 330.86716 124.69883 325.32507 130.52882 L 315.2588 141.15031 L 314.9298 140.9241 C 314.2409 140.44084 310.86833 137.89086 310.1897 137.3459 C 309.799 137.02716 309.36713 136.70841 309.23346 136.63644 C 308.88387 136.45136 308.59597 136.18402 308.59597 136.05035 C 308.59597 135.98866 308.4726 135.88584 308.32863 135.82414 C 308.18468 135.75217 307.62944 135.35116 307.09477 134.91931 C 306.4367 134.39492 306.046 134.15843 305.90204 134.179 C 305.6964 134.20984 304.37 135.94753 298.8793 143.38154 C 298.5914 143.76198 296.4733 146.62043 294.1598 149.72564 C 291.8566 152.83086 289.9441 155.43225 289.91326 155.50423 C 289.86185 155.64818 290.26285 155.95664 292.309 157.37558 C 293.512 158.20844 293.89246 158.4655 295.87692 159.81246 C 296.99767 160.57334 296.96683 160.47052 296.2882 161.36507 C 295.9386 161.82776 235.7159 225.34076 233.5258 227.55142 C 232.7238 228.374 232.6107 228.45625 232.41534 228.35343 C 232.29195 228.28146 232.1994 228.1375 232.1994 228.0244 C 232.1994 227.9113 233.77258 224.6827 235.69535 220.85773 C 237.60783 217.03276 242.21425 207.78908 245.91583 200.32422 C 249.60713 192.85937 262.73747 166.50615 275.07608 141.76724 C 287.4147 117.02833 297.6249 96.54624 297.76884 96.24805 L 298.0156 95.71338 L 298.91016 96.28918 C 299.4037 96.60793 306.82743 101.37886 315.41305 106.87982 Z"/>
            </g>
            <g>
               <path d="M 132.20526 99.24017 L 132.61655 99.38412 L 137.52115 109.64573 C 140.21508 115.30092 142.69308 120.5037 143.03239 121.22346 L 143.64932 122.51901 L 139.26912 124.95588 C 134.4365 127.63953 134.00464 127.948 134.00464 128.66775 C 134.00464 128.99678 134.58044 130.09697 137.3772 135.13524 C 141.51063 142.54869 148.00896 153.88992 148.13235 153.9002 C 148.18376 153.9002 150.04483 152.85142 152.28635 151.57643 C 154.51758 150.30145 156.37865 149.2938 156.41978 149.3452 C 156.46091 149.38633 167.38058 172.28473 180.68571 200.2214 C 194.00113 228.15807 205.01334 251.2107 205.17785 251.4472 C 205.6097 252.0847 206.80244 254.3365 206.80244 254.5113 C 206.80244 254.80947 206.49397 254.66552 206.22664 254.22338 C 206.0724 253.9869 204.95165 252.61937 203.72807 251.17986 C 202.5045 249.75064 201.3426 248.3831 201.14724 248.14662 C 200.95188 247.9204 195.65656 241.66885 189.37415 234.26568 C 179.93512 223.1301 170.56805 212.31324 135.20766 171.76034 C 109.06009 141.75696 92.44409 122.61155 92.40296 122.44703 C 92.37212 122.30308 92.31042 122.10772 92.24873 122.02546 C 91.89914 121.45995 91.88885 121.39825 92.2076 121.13092 C 92.3824 120.98697 95.27169 119.25956 98.64424 117.29566 C 102.8805 114.82794 106.4587 112.84348 110.21169 110.8693 C 113.2038 109.29613 118.33461 106.49938 121.61462 104.66915 C 131.00225 99.41496 131.57805 99.09622 131.69115 99.09622 C 131.74256 99.09622 131.97905 99.15791 132.20526 99.24017 Z"/>
            </g>
            <g>
               <g  id="feature-0">
                  <path 
                        d="M 213.95883 103.96997 C 213.9794 103.98025 213.64008 121.01781 213.52698 125.59338 L 213.455 128.70888 L 209.22903 128.70888 C 206.90526 128.70888 204.94136 128.66775 204.8591 128.61634 C 204.746 128.54436 204.73572 126.53934 204.79741 116.16463 L 204.87967 103.80545 L 209.4141 103.87743 C 211.9024 103.91856 213.95883 103.95968 213.95883 103.96997 Z"
                        fill="#ff0000"/>
               </g>
            </g>
            <g>
               <g  id="feature-1">
                  <path 
                        d="M 177.33373 108.40158 C 177.36457 108.49412 177.32344 108.58666 177.25147 108.61751 C 177.13836 108.65864 177.12808 108.7409 177.18978 108.94654 C 177.30288 109.26529 181.91958 131.93748 181.91958 132.14312 C 181.91958 132.22538 180.77825 132.58526 178.60872 133.18162 C 175.7297 133.96307 175.23616 134.06589 174.78375 134.01448 C 174.07428 133.92194 173.74525 133.76771 173.61158 133.44896 C 173.09747 132.24595 168.44993 111.99006 168.44993 110.95156 L 168.44993 110.65338 L 170.79426 110.01588 C 172.07953 109.65601 174.03315 109.12134 175.13334 108.82315 C 177.49824 108.16509 177.26175 108.20622 177.33373 108.40158 Z"
                        fill="#ff0000"/>
               </g>
            </g>
            <g>
               <g  id="feature-2">
                  <path 
                        d="M 244.3838 109.08021 C 247.04687 109.41952 249.23697 109.72798 249.25754 109.74855 C 249.2781 109.76911 249.03133 110.83846 248.7023 112.12373 C 248.1779 114.2213 247.8386 115.5991 247.35534 117.55272 C 247.27308 117.89203 247.15997 118.33416 247.10856 118.52953 C 247.05715 118.72489 246.92348 119.28012 246.81038 119.76339 C 246.69728 120.24665 246.4608 121.19261 246.286 121.87123 C 246.1112 122.54986 245.9261 123.29017 245.8747 123.51638 C 245.78216 123.94823 244.23984 130.17923 243.76686 131.99917 C 243.6229 132.59554 243.4584 133.22275 243.42754 133.39755 L 243.35557 133.70602 L 241.50478 133.4284 C 236.51792 132.66752 236.74413 132.70864 236.38425 132.43103 L 236.05523 132.16369 L 237.60783 120.28778 C 238.47154 113.74831 239.181 108.3913 239.181 108.38102 C 239.1913 108.38102 239.27355 108.3913 239.37637 108.41187 C 239.4689 108.43243 241.731 108.73061 244.3838 109.08021 Z"
                        fill="#ff0000"/>
               </g>
            </g>
            <g>
               <g  id="feature-3">
                  <path 
                        d="M 276.57728 116.46281 C 277.2045 116.76099 283.39436 119.3521 283.4869 119.3521 C 283.56915 119.3521 283.90847 119.7017 284.0524 119.93818 C 284.13467 120.07185 283.44577 121.52164 279.1067 130.35403 C 273.84222 141.06805 273.19444 142.3122 272.80372 142.45615 C 272.55695 142.54869 272.19707 142.39445 269.56483 141.07833 C 267.92997 140.25576 266.48018 139.47432 266.33623 139.34065 L 266.08946 139.09387 L 266.4082 138.45638 C 266.5933 138.0965 268.73198 133.04796 271.16885 127.21796 C 273.616 121.39825 275.65188 116.55535 275.7033 116.45253 C 275.82668 116.21604 276.06317 116.21604 276.57728 116.46281 Z"
                        fill="#ff0000"/>
               </g>
            </g>
            <g>
               <path d="M 345.10797 126.93006 C 348.93294 130.99152 353.272 135.62878 354.76293 137.24308 C 356.24357 138.85738 357.97097 140.66705 358.5982 141.2737 L 359.72922 142.38417 L 359.53386 142.6001 C 359.43104 142.72348 357.1484 144.75935 354.47503 147.13454 L 349.61156 151.44277 L 349.23112 151.14458 C 348.53193 150.58935 347.113 149.71536 346.1259 149.22182 C 345.59123 148.95448 345.12853 148.69743 345.0977 148.66658 C 345.00515 148.53291 343.56564 147.83372 343.40113 147.83372 C 343.3086 147.83372 343.04125 147.72062 342.80476 147.58695 C 342.085 147.18595 340.7586 147.00087 338.9798 147.08312 C 338.0544 147.11397 337.2935 147.19623 337.08787 147.27849 C 336.9028 147.36074 336.6766 147.42244 336.6046 147.42244 C 336.39897 147.42244 335.14454 148.0188 334.6613 148.34783 C 334.43507 148.50206 334.04435 148.72827 333.7873 148.86194 C 333.53024 148.98533 333.07783 149.25266 332.76936 149.46859 C 332.26553 149.8079 332.1627 149.83875 331.5355 149.82847 C 331.16534 149.82847 330.75405 149.76677 330.6204 149.6948 C 330.31192 149.53028 329.2837 149.39661 327.22727 149.25266 C 325.90087 149.16012 325.469 149.16012 325.1914 149.26295 C 324.99604 149.33492 324.28657 149.42746 323.6285 149.47887 C 322.8882 149.53028 322.3124 149.62282 322.11703 149.72564 C 321.9525 149.81818 321.74687 149.89016 321.6749 149.89016 C 321.6029 149.89016 321.46925 149.93129 321.36643 149.99298 C 321.2739 150.04439 320.84204 150.19862 320.42047 150.34257 C 319.44366 150.66132 317.3358 151.85405 316.37957 152.6355 C 315.0326 153.74597 313.79875 155.5762 313.1818 157.39615 C 312.7808 158.58888 312.52376 160.0798 312.40037 161.83805 L 312.29755 163.45235 L 311.78344 164.19266 C 311.49554 164.60395 311.26933 165.00495 311.26933 165.07693 C 311.26933 165.1489 311.2282 165.2106 311.1768 165.2106 C 311.0534 165.2106 310.0149 167.3493 309.68588 168.27469 C 309.05867 170.03294 308.6885 171.93514 308.43145 174.6702 C 308.2258 176.922 308.0613 185.32253 308.21553 186.3199 C 308.26694 186.7312 308.32863 187.27615 308.32863 187.5332 L 308.3389 187.9959 L 269.061 222.79078 C 247.45816 241.9259 229.58774 257.71932 229.35125 257.89412 C 229.10448 258.05864 228.90911 258.23343 228.90911 258.27456 C 228.90911 258.3157 222.52388 264.012 214.71971 270.92164 C 206.91554 277.83126 200.5303 283.55843 200.5303 283.65097 C 200.5303 283.9183 199.94423 284.36044 198.08315 285.4812 C 197.32227 285.9439 196.9624 286.1084 196.16039 286.38603 C 195.70797 286.54026 195.2864 286.71506 195.235 286.7562 C 195.1733 286.7973 194.9368 286.87957 194.72088 286.94126 C 194.49468 286.99268 193.99085 287.13663 193.58984 287.24973 C 193.01404 287.41424 192.56163 287.45537 191.33805 287.46566 C 190.4949 287.46566 189.6415 287.42453 189.43585 287.36283 C 189.2302 287.31142 188.87033 287.2189 188.63384 287.1572 C 188.35622 287.0852 188.03747 286.88985 187.77013 286.6328 C 187.41026 286.2832 187.30744 286.06728 187.0915 285.32696 C 186.95784 284.82314 186.8139 284.00056 186.78304 283.4556 C 186.73163 282.5405 186.7522 282.4171 187.05038 281.5534 C 187.23546 281.0393 187.45139 280.39152 187.54393 280.1139 C 187.97578 278.75665 190.25842 275.65144 194.21706 271.0656 C 196.59224 268.29968 268.40295 192.57147 306.98167 152.13167 C 324.07064 134.2304 338.07496 119.56803 338.1058 119.56803 C 338.13666 119.55774 341.283 122.87889 345.10797 126.93006 Z"/>
            </g>
            <g>
               <g  id="feature-4">
                  <path 
                        d="M 148.55392 132.7909 C 150.80572 137.53098 153.28372 142.72348 154.05488 144.33778 L 155.45326 147.27849 L 152.12183 149.22182 C 150.13737 150.3837 148.66702 151.17543 148.51279 151.17543 C 148.22489 151.17543 148.86238 152.31675 139.3925 134.76508 C 137.72679 131.68043 136.36954 129.05847 136.36954 128.94537 C 136.36954 128.83226 136.4518 128.66775 136.55462 128.58549 C 136.78083 128.37985 144.19428 124.195 144.33823 124.18472 C 144.39992 124.18472 146.29184 128.0611 148.55392 132.7909 Z"
                        fill="#ff0000"/>
               </g>
            </g>
            <g>
               <path d="M 101.57466 135.8447 C 106.94196 141.99345 111.34273 147.07284 111.36329 147.11397 C 111.37358 147.1551 109.93407 148.61517 108.15525 150.37342 L 104.92665 153.5609 L 105.76979 154.476 C 106.2222 154.99012 110.16028 159.27778 114.49936 164.00758 C 122.29324 172.49038 122.40635 172.61376 122.79707 172.61376 C 123.16723 172.61376 123.27005 172.51094 125.32649 170.37225 C 126.50894 169.14867 127.73252 167.85312 128.05126 167.50352 L 128.62706 166.87631 L 167.38058 211.2953 C 188.69553 235.72575 206.14438 255.75543 206.16494 255.80684 C 206.25748 256.0536 205.8462 255.98164 205.4452 255.67317 C 205.19842 255.4881 172.20292 231.8288 132.13329 203.1004 C 70.30657 158.77396 59.29436 150.8464 59.407465 150.72301 C 59.48972 150.64076 66.75922 144.68738 75.57104 137.48986 C 87.50865 127.74235 91.62152 124.44178 91.70378 124.52403 C 91.76547 124.59601 96.20737 129.68568 101.57466 135.8447 Z"/>
            </g>
            <g>
               <g  id="feature-5">
                  <path 
                        d="M 309.9121 139.34065 C 311.84513 140.79043 313.4286 142.0243 313.4286 142.09627 C 313.4286 142.15796 313.52113 142.3122 313.63423 142.4253 L 313.8296 142.64123 L 309.19233 147.52526 C 306.64235 150.2089 303.19783 153.87964 301.5321 155.66874 C 298.72508 158.70198 298.49887 158.92819 298.26238 158.83565 C 298.1287 158.78424 296.7612 157.91025 295.23942 156.88204 C 292.12392 154.80504 292.1959 154.8873 292.80255 154.09557 C 292.9979 153.8488 295.90776 149.89016 299.2906 145.31459 C 302.66315 140.72874 305.5216 136.90377 305.645 136.80095 C 305.77865 136.68785 305.96373 136.62615 306.12825 136.657 C 306.2722 136.67756 307.96876 137.88058 309.9121 139.34065 Z"
                        fill="#ff0000"/>
               </g>
            </g>
            <g>
               <g  id="feature-6">
                  <path 
                        d="M 120.10314 157.08768 L 127.5063 165.57047 L 125.23395 167.8634 C 123.97952 169.11782 122.8999 170.13576 122.82792 170.12548 C 122.7251 170.09463 107.68227 153.95162 107.51776 153.68428 C 107.45607 153.58146 112.5149 148.5432 112.628 148.58432 C 112.66913 148.5946 116.0314 152.41957 120.10314 157.08768 Z"
                        fill="#ff0000"/>
               </g>
            </g>
            <g>
               <g  id="feature-7">
                  <path 
                        d="M 340.31648 148.96476 C 342.17755 149.16012 343.85354 149.79762 345.6118 150.96979 C 346.7017 151.69982 348.00754 152.7486 347.95613 152.87199 C 347.93557 152.90284 347.5243 153.30384 347.03074 153.7357 L 346.1259 154.5377 L 345.59123 154.05444 C 344.47048 153.04679 342.81505 152.1728 341.2933 151.78208 C 340.66607 151.62785 340.17253 151.58672 338.67133 151.597 C 337.0056 151.60728 336.728 151.63813 335.94655 151.86434 C 334.86692 152.19337 334.05463 152.49155 333.86955 152.6355 C 333.79758 152.6972 333.63306 152.77945 333.50968 152.8103 C 333.3863 152.85142 333.12924 153.02622 332.95444 153.19074 C 332.66654 153.45807 332.55343 153.4992 332.25525 153.44779 C 332.0496 153.41694 331.57663 153.34497 331.1962 153.29356 C 330.81575 153.23186 330.39418 153.12904 330.2708 153.05707 C 330.10628 152.97481 329.48935 152.93368 328.33774 152.9234 C 326.58977 152.9234 326.4664 152.94396 323.9164 153.5609 C 323.2378 153.72541 320.95514 154.83588 320.3485 155.29858 C 320.0092 155.55564 318.87814 156.89232 318.87814 157.03627 C 318.87814 157.0774 318.7856 157.23163 318.6828 157.38586 C 318.17895 158.09533 317.26384 160.9949 317.1816 162.17736 C 317.07876 163.69912 316.9348 164.2852 316.57494 164.64508 C 313.67536 167.58578 312.205 171.29765 311.8657 176.54155 C 311.73203 178.52601 311.84513 181.1891 312.1433 183.10158 C 312.22558 183.63626 312.29755 184.17093 312.29755 184.29431 C 312.29755 184.42798 311.9171 184.83927 311.15623 185.50761 C 310.5393 186.06285 309.99434 186.4947 309.97378 186.46385 C 309.89152 186.3816 309.65503 184.52052 309.51108 182.82396 C 309.22318 179.41028 309.60362 173.57 310.2514 171.43131 C 311.43385 167.5138 311.95824 166.35192 313.1818 164.99467 L 313.96326 164.13097 L 313.90157 162.43441 C 313.78847 159.7919 314.15862 158.27013 315.3205 156.49131 C 315.62898 156.02862 315.86547 155.64818 315.8346 155.64818 C 315.6804 155.64818 316.74973 154.3115 317.27412 153.83851 C 318.65193 152.58409 320.94486 151.63813 323.24807 151.3708 C 323.58738 151.33994 324.0398 151.23712 324.24544 151.15487 C 324.5539 151.03148 325.04745 151.01092 326.816 151.05204 C 328.85185 151.10345 329.9212 151.21656 331.0625 151.52502 C 331.6589 151.67926 332.1216 151.6587 333.00585 151.44277 C 333.68447 151.26797 333.85927 151.17543 334.34253 150.71273 C 335.43244 149.67423 336.4915 149.18069 338.0544 148.97504 C 339.0415 148.85166 339.2574 148.85166 340.31648 148.96476 Z"
                        fill="#ff0000"/>
               </g>
            </g>
            <g>
               <g  id="feature-8">
                  <path 
                        d="M 340.86143 153.58146 C 341.84852 153.72541 342.6197 154.15726 344.4602 155.61733 L 344.6967 155.8024 L 343.1235 157.1905 C 342.2598 157.95138 341.18018 158.90763 340.7175 159.31891 L 339.8949 160.05923 L 339.3808 159.89471 C 338.58907 159.63766 335.14454 159.58625 333.9518 159.80217 C 331.86453 160.20318 330.2194 160.90237 328.1321 162.30074 C 326.6412 163.29811 325.73635 164.059 324.93434 164.9741 C 324.39967 165.58076 323.48456 167.03054 323.3509 167.47268 C 323.30976 167.61663 323.19666 167.87368 323.09383 168.0382 C 322.69283 168.70654 322.46662 169.81701 322.40493 171.53414 C 322.3638 172.86054 322.38436 173.3438 322.5283 174.05327 C 322.62085 174.53653 322.7134 174.99923 322.72368 175.09177 C 322.73396 175.28713 314.04552 183.00904 313.83988 182.96791 C 313.51085 182.9165 313.09956 179.7496 313.09956 177.24074 C 313.09956 172.62405 314.13806 169.86842 317.27412 166.11543 L 318.36403 164.8096 L 318.46686 163.75053 C 318.6828 161.65297 319.0221 160.20318 319.5979 158.9796 C 320.67752 156.65583 322.14787 155.59677 325.1297 154.96955 C 326.76457 154.63024 327.91617 154.63024 332.70767 154.97983 C 333.46855 155.04153 333.6742 155.02096 333.8387 154.8873 C 335.25765 153.77682 335.31934 153.7357 335.99796 153.64315 C 336.28586 153.60202 336.6046 153.51977 336.7177 153.47864 C 336.98505 153.36553 339.88463 153.4375 340.86143 153.58146 Z"
                        fill="#ff0000"/>
               </g>
            </g>
            <g>
               <path d="M 349.16943 154.57883 C 349.26197 154.92842 349.1283 157.5401 348.94322 159.16468 C 348.23375 165.47793 345.79688 172.1922 342.39348 177.29215 C 337.26267 184.96266 330.02402 189.9598 320.70837 192.25272 C 317.634 193.0136 314.66245 193.4146 310.85805 193.59968 C 308.24637 193.73335 304.58592 193.6511 304.58592 193.45573 C 304.58592 193.40432 304.90467 193.04445 305.2954 192.664 L 306.01514 191.96482 L 308.56512 191.89284 C 309.9635 191.862 311.94796 191.76946 312.9659 191.69748 C 313.98383 191.6255 314.9812 191.58438 315.17656 191.60494 C 315.37192 191.6255 315.86547 191.5741 316.2562 191.48155 C 316.6572 191.3993 317.73682 191.1628 318.6725 190.96745 C 320.6878 190.55616 322.5386 190.03177 324.01923 189.45597 C 325.3148 188.94186 328.4303 187.38925 328.6462 187.1322 C 328.72847 187.03966 329.3351 186.59752 329.9829 186.16567 C 331.78227 184.96266 333.2629 183.7288 335.08285 181.91913 C 339.81265 177.2099 343.26746 171.35934 345.8997 163.61686 C 346.55776 161.68381 346.91763 160.28544 347.041 159.2058 C 347.29807 157.0157 347.48315 155.78184 347.58597 155.50423 C 347.65795 155.32943 347.9253 155.07237 348.24403 154.86673 C 348.5422 154.67137 348.80955 154.476 348.8507 154.41432 C 348.9638 154.22924 349.09745 154.30121 349.16943 154.57883 Z"
                     fill="#ccc"/>
            </g>
            <g>
               <g  id="feature-9">
                  <path 
                        d="M 337.4683 161.60156 C 337.7048 161.64268 337.92073 161.70438 337.9413 161.72494 C 337.9927 161.78663 324.62588 173.59057 324.5025 173.59057 C 324.4408 173.59057 324.29685 173.35408 324.19403 173.07646 C 323.93697 172.40812 324.00895 171.12285 324.3791 169.68334 C 324.81096 168.02791 325.43817 167.03054 327.18614 165.20032 C 329.38652 162.88683 331.9365 161.6941 335.02116 161.50902 C 336.2756 161.42676 336.5532 161.44732 337.4683 161.60156 Z"
                        fill="#ff0000"/>
               </g>
            </g>
            <g>
               <path d="M 80.36254 167.96622 C 80.88693 168.35694 81.61696 168.88133 81.98712 169.14867 L 82.66574 169.63193 L 82.72744 170.47507 C 82.90223 172.66518 83.63227 176.94256 84.2492 179.4514 C 85.87378 185.96003 88.67053 190.67955 92.76284 193.78476 C 93.83219 194.59705 95.41564 195.56358 96.57753 196.10853 C 97.06079 196.33474 97.47208 196.55067 97.48236 196.5918 C 97.50292 196.6432 97.60574 196.67405 97.70857 196.67405 C 97.81139 196.67405 97.93477 196.72546 97.96562 196.77687 C 98.13013 197.0442 99.86782 197.6303 101.10168 197.83594 C 107.62058 198.94641 111.4147 198.81275 115.13685 197.3424 C 116.97736 196.62264 117.33724 196.42728 117.9953 195.8412 L 118.54025 195.35793 L 119.24972 195.86176 C 119.64044 196.13938 120.0106 196.36559 120.0723 196.36559 C 120.13399 196.36559 120.37048 196.55067 120.5864 196.78716 L 120.99769 197.20873 L 120.22653 197.9182 C 117.94388 200.01576 115.67152 201.13652 112.87477 201.55809 C 109.16291 202.1236 102.18131 201.93853 100.02205 201.22906 C 96.39245 200.03632 92.92735 198.17525 90.24371 195.97487 C 87.32357 193.57912 85.02036 190.67955 83.27239 187.21445 C 81.81232 184.34573 80.50649 180.4385 80.01294 177.4978 C 79.95125 177.0968 79.83815 176.71635 79.77645 176.6341 C 79.71476 176.55184 79.6325 176.11999 79.60166 175.65729 C 79.56053 175.1946 79.41658 173.8065 79.27263 172.56235 C 78.984725 170.14604 78.82021 167.69888 78.92303 167.43155 C 79.04642 167.12308 79.41658 167.26703 80.36254 167.96622 Z"
                     fill="#ccc"/>
            </g>
            <g>
               <path d="M 331.6589 169.69363 C 331.45324 170.89664 330.40446 174.45427 329.53048 176.95284 C 327.4329 182.90622 325.28394 186.61809 323.07327 188.03703 C 322.49747 188.40718 321.6029 188.73621 321.47953 188.6231 C 321.41784 188.55113 322.3021 186.96768 322.6003 186.63865 C 322.90875 186.28906 324.29685 183.41005 325.56156 180.47963 C 326.09623 179.25605 326.2916 178.73166 326.43554 178.11473 C 326.52808 177.71372 326.6412 177.30244 326.6926 177.18933 C 326.744 177.07623 326.8571 176.59297 326.94965 176.1097 C 327.19642 174.74217 327.4946 173.7448 327.8545 173.12787 C 328.3686 172.22304 331.16534 169.52911 331.5252 169.58052 C 331.60747 169.60109 331.66917 169.6525 331.6589 169.69363 Z"
                     fill="#ccc"/>
            </g>
            <g>
               <path d="M 102.42808 183.80077 L 103.69279 184.71588 L 103.68251 189.98036 C 103.67223 192.87993 103.6311 195.3168 103.60025 195.40935 C 103.50771 195.63555 102.80852 195.50189 101.81115 195.08032 C 101.36902 194.88495 100.99886 194.76157 100.98858 194.8027 C 100.9783 194.87467 100.89604 194.43254 100.53616 192.56118 C 100.26883 191.13196 100.23798 189.44568 100.42306 186.4947 C 100.6287 183.16328 100.63898 183.11186 100.92689 182.99876 C 101.05027 182.94735 101.15309 182.90622 101.15309 182.90622 C 101.15309 182.89594 101.7289 183.30723 102.42808 183.80077 Z"
                     fill="#ccc"/>
            </g>
            <g>
               <path d="M 312.40037 186.47414 C 312.40037 186.56668 311.83485 189.42512 311.73203 189.85697 C 311.68062 190.06261 311.60864 190.09346 311.19736 190.09346 C 310.5393 190.09346 308.90443 189.76443 308.90443 189.64105 C 308.90443 189.4354 309.0895 189.24004 310.6627 187.83138 C 312.19473 186.45357 312.40037 186.28906 312.40037 186.47414 Z"
                     fill="#ccc"/>
            </g>
            <g>
               <path d="M 327.28896 192.27328 C 327.4432 193.03416 327.48432 197.0442 327.34037 198.7819 C 327.2581 199.78955 326.94965 201.65063 326.30187 205.00261 C 324.93434 212.08703 324.34826 215.72692 324.266 217.67025 C 324.19403 219.16117 324.3791 221.31014 324.739 223.27404 C 324.8521 223.89097 325.03717 225.07342 325.15027 225.91656 C 325.27366 226.7597 325.52043 228.3123 325.7158 229.36109 C 326.07566 231.35583 326.2813 232.6411 326.2813 232.90844 C 326.2813 233.02154 326.1785 233.07295 325.942 233.07295 C 325.74664 233.07295 325.068 233.1655 324.42023 233.2786 C 323.26863 233.49452 322.44606 233.78242 321.8497 234.204 L 321.5515 234.41992 L 321.5515 234.0806 C 321.5515 233.89553 321.47953 233.35057 321.39728 232.8673 C 321.2122 231.79796 320.8729 226.8214 320.71865 222.99642 C 320.48216 216.97107 320.8729 212.65255 322.78537 200.36535 C 323.063 198.5454 323.29948 196.91054 323.29948 196.73575 C 323.30976 196.08797 323.99867 193.85674 324.40995 193.13698 C 324.68757 192.664 324.739 192.62288 325.8186 192.2013 C 326.44582 191.96482 327.00106 191.75917 327.06275 191.7489 C 327.12445 191.7489 327.22727 191.98538 327.28896 192.27328 Z"
                     fill="#ccc"/>
            </g>
            <g>
               <path d="M 321.00655 194.06238 C 321.0271 194.12407 320.7392 194.5148 320.35878 194.93637 C 319.9886 195.35793 319.2997 196.20107 318.82673 196.82829 C 315.6701 201.05426 309.46995 205.99999 303.6708 208.90984 C 297.64545 211.92252 291.91828 213.29005 286.24252 213.0844 C 284.90584 213.033 284.33004 212.9713 284.13467 212.86848 C 283.99072 212.77594 283.62057 212.67312 283.32238 212.632 L 282.7877 212.56001 L 283.8365 211.63462 C 284.88527 210.70922 285.12176 210.52414 285.92377 210.02032 C 286.3145 209.77354 286.43788 209.75298 288.13444 209.69129 C 293.27553 209.52677 298.29323 208.4163 302.9922 206.42155 C 308.1641 204.22117 312.678 201.00285 317.35638 196.17023 C 318.7959 194.6793 318.98096 194.52508 319.49507 194.37085 C 319.80354 194.2783 320.20454 194.13436 320.36906 194.0521 C 320.71865 193.89787 320.95514 193.89787 321.00655 194.06238 Z"
                     fill="#ccc"/>
            </g>
            <g>
               <path d="M 310.1383 195.10088 C 310.28224 195.24483 310.14858 196.15994 309.9018 196.69462 C 309.71672 197.07506 309.60362 197.5172 309.5625 198.0313 C 309.4905 198.96698 309.24374 200.2831 309.05867 200.72523 C 308.925 201.04398 308.36976 201.46555 306.6835 202.51433 C 306.0871 202.89477 305.96373 202.91533 305.84034 202.65828 C 305.72724 202.43207 305.8712 199.90266 306.01514 199.52222 C 306.07683 199.3577 306.1591 198.8333 306.18994 198.33977 C 306.2208 197.84622 306.31332 197.1676 306.3853 196.82829 C 306.46756 196.48897 306.5498 196.03656 306.59094 195.83091 C 306.63207 195.58414 306.75546 195.35793 306.98167 195.17286 L 307.3107 194.89524 L 308.6988 194.96721 C 309.45967 195.00834 310.10745 195.07003 310.1383 195.10088 Z"
                     fill="#ccc"/>
            </g>
            <g>
               <path d="M 123.80472 199.1315 C 124.3394 199.50165 124.87407 199.8718 125.01802 199.94378 C 125.15169 200.01576 125.28536 200.18027 125.30592 200.30366 C 125.35733 200.56071 125.57326 208.45743 125.57326 209.9175 L 125.57326 210.87374 L 124.83294 210.80176 C 124.42165 210.77091 124.04121 210.69894 123.97952 210.6578 C 123.92811 210.61668 123.75331 210.555 123.60936 210.52414 L 123.34203 210.45217 L 123.27005 208.88928 C 123.1261 205.84575 122.85876 201.55809 122.65312 198.9567 C 122.61199 198.46315 122.63256 198.32948 122.7251 198.39118 C 122.79707 198.4323 123.28033 198.76133 123.80472 199.1315 Z"
                     fill="#ccc"/>
            </g>
            <g>
               <path d="M 107.13732 204.0875 L 108.95726 204.2006 L 110.19113 205.38305 C 112.227 207.32639 114.26287 208.7556 116.99792 210.12314 C 119.95919 211.62433 122.70453 212.47776 126.13878 212.99186 C 127.8559 213.24892 132.65768 213.24892 134.51875 212.99186 C 136.59575 212.70396 139.48504 212.06647 140.96567 211.57292 C 141.10962 211.52151 143.97835 213.5471 143.91666 213.6602 C 143.88581 213.70133 143.90638 213.82472 143.96807 213.91726 C 144.19428 214.32855 143.8961 214.50334 141.61345 215.24366 C 139.23827 216.0251 136.35926 216.65232 133.799 216.94022 C 132.33893 217.10473 128.65791 217.10473 127.26982 216.94022 C 123.56823 216.50837 120.16483 215.46987 116.8951 213.79387 C 113.35804 211.97393 110.74636 210.04088 107.15788 206.59635 C 106.397 205.86632 105.57443 205.10544 105.33794 204.92036 C 105.10145 204.73528 104.90609 204.4988 104.90609 204.39597 C 104.90609 204.22117 105.09117 203.9744 105.23512 203.9744 C 105.27625 203.9744 106.12967 204.0258 107.13732 204.0875 Z"
                     fill="#ccc"/>
            </g>
            <g>
               <path d="M 308.14355 209.9072 C 307.0845 219.80895 307.32098 230.93426 308.70907 236.9699 C 308.82218 237.45316 308.88387 237.90557 308.8633 237.97755 C 308.83246 238.04952 308.65766 238.11122 308.4623 238.11122 C 307.90706 238.11122 306.93026 238.31686 306.51897 238.5328 C 306.01514 238.78984 305.84034 238.77956 305.71696 238.49166 C 305.5833 238.1832 305.24398 235.16023 304.9972 232.08586 C 304.46253 225.3202 304.46253 218.60593 304.9972 211.94308 C 305.16172 209.98947 305.1103 210.11286 305.95345 209.6296 C 306.36474 209.40339 307.04336 208.9921 307.46493 208.72476 C 307.8865 208.44714 308.24637 208.26206 308.26694 208.3032 C 308.2875 208.3546 308.2361 209.07436 308.14355 209.9072 Z"
                     fill="#ccc"/>
            </g>
            <g>
               <path d="M 114.00581 214.236 C 114.57133 214.55475 115.0546 214.8221 115.08544 214.85294 C 115.14713 214.89407 115.19854 217.45433 115.3939 229.25826 C 115.49673 235.43785 115.49673 237.46344 115.41447 237.6074 C 115.3425 237.7102 115.29108 237.91586 115.29108 238.0598 C 115.29108 238.20376 115.24996 238.31686 115.18826 238.31686 C 115.13685 238.31686 115.08544 238.37855 115.08544 238.4608 C 115.08544 238.62533 113.75904 238.73843 113.33747 238.60476 C 113.19352 238.56363 112.95703 238.50194 112.81308 238.48138 C 112.40179 238.39912 111.96994 237.95698 111.82599 237.47372 C 111.72317 237.12413 111.69232 234.61528 111.69232 225.64922 L 111.69232 214.25657 L 111.98022 213.75275 L 112.25784 213.23864 L 112.61772 213.45456 C 112.81308 213.56767 113.44029 213.92754 114.00581 214.236 Z"
                     fill="#ccc"/>
            </g>
            <g>
               <path d="M 124.87407 218.2769 C 125.25451 218.35916 125.50128 218.48255 125.70693 218.69847 C 125.99483 219.01722 125.99483 219.01722 125.93313 220.0043 C 125.892 220.56983 125.93313 222.21497 126.03596 223.8704 C 126.1285 225.45386 126.25188 227.58227 126.31358 228.6002 C 126.37527 229.61814 126.43696 232.94957 126.46781 236.00337 L 126.50894 241.55575 L 126.26216 241.88477 C 125.82003 242.48114 125.58354 242.6148 124.6273 242.81017 L 124.3394 242.86158 L 124.3394 241.39123 C 124.3394 239.7358 124.21601 236.14732 123.96924 230.39959 C 123.8767 228.28146 123.78416 224.7341 123.75331 222.52344 L 123.7019 218.5031 L 123.9384 218.3283 C 124.2263 218.13295 124.18516 218.13295 124.87407 218.2769 Z"
                     fill="#ccc"/>
            </g>
            <g>
               <path d="M 326.9188 235.1294 C 328.4714 235.60237 329.8698 236.94933 330.45587 238.5225 C 330.5587 238.8207 330.6204 239.25254 330.6101 239.72552 C 330.58954 240.47612 330.71293 242.20352 330.91857 244.20855 C 331.0111 245.0414 331.0111 245.34987 330.91857 245.4424 C 330.7746 245.58636 330.76434 247.42687 330.9083 247.5194 C 330.96998 247.55025 331.0111 247.66336 331.0111 247.76618 C 331.0111 247.9821 331.28873 248.5682 331.43268 248.65045 C 331.4841 248.69157 331.61776 248.91778 331.73086 249.16455 C 331.84396 249.41133 331.97763 249.63753 332.02904 249.66838 C 332.08045 249.7095 332.2244 249.92544 332.3375 250.1722 C 332.4506 250.4087 332.77964 250.88168 333.06754 251.221 C 333.94153 252.26977 334.69213 254.07943 334.9903 255.9405 C 335.2885 257.69876 334.9389 259.14855 333.92096 260.45438 C 333.64335 260.7937 333.2732 261.21526 333.0881 261.40034 C 332.90303 261.57514 332.6871 261.8322 332.6254 261.96586 C 332.55343 262.09953 332.4095 262.25376 332.2964 262.31546 C 332.18328 262.37715 331.8851 262.59307 331.62804 262.79872 C 331.04196 263.25113 330.28107 263.611 329.88007 263.611 C 329.71555 263.611 329.5716 263.66242 329.5716 263.7241 C 329.5716 263.7961 329.1603 263.81665 328.26577 263.7858 C 325.0166 263.6727 322.43577 262.13038 321.18135 259.54955 C 320.6261 258.40823 320.42047 257.5034 320.42047 256.20784 C 320.42047 255.303 320.50273 254.7992 320.89345 253.1746 C 320.9757 252.8353 321.10937 252.16695 321.19163 251.6837 C 321.2739 251.20043 321.39728 250.62462 321.45897 250.39842 C 321.74687 249.33935 321.8497 247.43715 321.64405 246.69683 C 321.58235 246.47062 321.3356 245.98736 321.0991 245.6172 C 320.85232 245.24705 320.50273 244.6918 320.31765 244.38334 L 319.96805 243.81782 L 319.9886 241.82308 C 319.9989 240.41442 320.0503 239.65354 320.1634 239.2114 C 320.65696 237.28864 322.0245 235.76688 323.8136 235.16023 C 324.69785 234.85177 325.9934 234.84149 326.9188 235.1294 Z"
                     fill="#ccc"/>
            </g>
            <g>
               <path d="M 311.14595 240.41442 C 312.23586 241.04164 312.93505 241.6894 313.0687 242.20352 C 313.09956 242.35775 313.2435 242.70735 313.37718 242.99525 C 313.50057 243.27287 313.7165 243.85895 313.83988 244.28052 C 314.07637 245.08253 314.07637 245.31902 313.83988 246.90248 C 313.78847 247.2418 313.7165 247.77646 313.67536 248.08493 C 313.63423 248.3934 313.56226 248.70186 313.51085 248.76355 C 313.37718 248.93835 313.38746 250.347 313.52113 250.70688 C 313.6445 251.01535 313.68564 251.11817 314.2409 252.30062 C 314.4054 252.67078 314.70358 253.15404 314.89894 253.38025 C 315.36164 253.9252 315.958 254.86088 316.20478 255.44696 C 316.37957 255.84797 316.41042 256.15643 316.41042 257.68848 C 316.41042 259.48786 316.3076 260.12535 315.92716 260.6806 C 315.8552 260.7937 315.7935 260.98906 315.7935 261.11244 C 315.7935 261.33865 315.6804 261.62655 315.24853 262.5828 C 315.12515 262.83985 314.82697 263.2717 314.5699 263.53903 C 313.9941 264.15597 311.61893 265.73942 310.85805 266.00676 C 310.16914 266.25353 308.72964 266.35635 308.20525 266.20212 C 305.44962 265.38983 305.31595 265.31785 304.09238 264.03258 C 303.12585 263.02493 302.72485 262.20235 302.43695 260.6806 C 302.09763 258.79895 302.07707 258.04835 302.36497 256.59857 C 302.65287 255.09737 303.0333 254.1 303.59883 253.33912 C 304.04096 252.73247 304.51394 251.5603 304.69902 250.65547 C 304.81213 250.04882 304.78128 248.64016 304.58592 246.43978 C 304.44197 244.79463 304.50366 243.39625 304.75043 242.68678 C 304.8944 242.2755 305.15144 241.95675 306.02542 241.07248 C 307.05364 240.05455 307.16675 239.9723 307.68085 239.87975 C 307.98932 239.81806 308.65766 239.77693 309.17177 239.7975 C 310.09717 239.81806 310.09717 239.81806 311.14595 240.41442 Z"
                     fill="#ccc"/>
            </g>
            <g>
               <path d="M 116.6072 240.23963 C 116.92595 240.39386 117.26526 240.60979 117.36808 240.73317 C 117.71768 241.1753 118.42715 241.84365 118.65335 241.9259 C 118.90013 242.01844 119.07492 242.52227 119.61988 244.68153 C 120.26766 247.21094 120.24709 248.57847 119.4965 253.07178 C 119.27029 254.42903 119.00295 256.1153 118.87956 256.82477 C 118.58138 258.7167 117.86163 261.52373 117.45034 262.42856 C 117.39893 262.54166 117.19329 262.99408 116.99792 263.42593 C 116.27817 265.04023 114.96205 266.70594 113.8413 267.4257 C 113.19352 267.83698 112.06248 268.238 111.51753 268.238 C 110.69495 268.238 109.18347 267.27146 108.39174 266.24325 C 107.87764 265.5749 107.91876 265.6366 107.35325 264.79346 C 106.72603 263.85778 106.41757 263.66242 105.79035 263.82694 C 105.37907 263.92976 105.27625 263.91948 104.86496 263.7241 C 104.27887 263.4362 103.62082 262.71646 103.2815 261.98643 C 103.02445 261.44147 103.00389 261.3078 103.01417 260.06366 C 103.02445 258.66528 103.1684 258.04835 103.66194 257.34917 C 103.76477 257.2052 103.88815 256.96873 103.92928 256.82477 C 103.97041 256.68082 104.06295 256.49575 104.13492 256.4135 C 104.2069 256.33123 104.29944 256.10502 104.34057 255.91994 C 104.3817 255.74515 104.6079 255.34414 104.8444 255.04596 C 105.08088 254.75806 105.46132 254.23367 105.67725 253.89435 C 105.89318 253.55504 106.2222 253.09235 106.41757 252.87642 C 106.60265 252.6502 106.80829 252.28005 106.86998 252.05385 C 106.93168 251.81736 107.12704 251.37522 107.3224 251.06676 C 107.50748 250.748 107.70284 250.3573 107.73369 250.19277 C 107.77481 250.01798 107.86735 249.69923 107.94961 249.47302 C 108.02159 249.2468 108.16554 248.671 108.25808 248.19803 C 108.60767 246.3678 109.12178 244.9797 110.28366 242.63537 C 111.28104 240.63035 111.62035 240.21906 112.37095 240.11624 C 112.64856 240.0751 112.92618 240.03398 112.9776 240.01342 C 113.03929 239.99285 113.73848 239.9723 114.55077 239.9723 C 115.94914 239.962 116.05196 239.9723 116.6072 240.23963 Z"
                     fill="#ccc"/>
            </g>
            <g>
               <path d="M 129.08976 243.6636 C 129.8712 244.08516 130.26193 244.50673 130.67322 245.36015 C 131.31071 246.70711 131.59861 248.35226 131.74256 251.5603 C 131.8351 253.62702 131.99962 254.99455 132.31837 256.25926 C 132.55486 257.22578 133.09981 258.8298 133.19235 258.86065 C 133.24376 258.8812 133.28489 258.96347 133.28489 259.04572 C 133.28489 259.12798 133.37743 259.36447 133.49053 259.5701 C 133.60364 259.78604 133.72702 260.11507 133.75787 260.3207 C 133.78872 260.51608 133.88126 260.87595 133.96351 261.12272 C 134.25141 262.007 134.10746 263.2717 133.46997 265.2356 C 133.28489 265.8114 133.19235 265.94506 132.6474 266.36663 C 132.30808 266.63397 131.722 267.14808 131.35184 267.50795 C 130.82745 268.0015 130.40588 268.27912 129.5833 268.66984 L 128.50368 269.19423 L 126.80712 269.13254 C 125.04887 269.08113 124.59645 268.9783 124.49363 268.6287 C 124.4525 268.5259 124.38053 268.44363 124.32912 268.44363 C 124.2777 268.44363 124.23658 268.38194 124.23658 268.30996 C 124.23658 268.238 124.10291 267.99122 123.9384 267.765 C 123.46541 267.1275 123.2392 266.66482 123.15695 266.20212 C 123.11582 265.96563 123.03356 265.77027 122.97187 265.77027 C 122.8999 265.77027 122.59143 265.89365 122.28296 266.0376 C 121.34728 266.46945 120.63781 266.63397 119.73298 266.64425 L 118.86928 266.64425 L 118.51969 266.2638 C 118.00558 265.6983 118.03642 265.30757 118.72533 263.88863 C 119.0338 263.25113 119.37311 262.38743 119.4965 261.96586 C 119.71242 261.16385 120.32935 257.57537 120.32935 257.06126 C 120.32935 256.90703 120.44245 256.39292 120.5864 255.91994 C 120.72007 255.45725 120.92572 254.5113 121.03882 253.8121 C 121.30616 252.2595 121.87168 247.44743 121.87168 246.78937 C 121.87168 245.9668 122.45776 245.22648 123.44485 244.78435 C 123.59908 244.71237 123.72247 244.63012 123.72247 244.5787 C 123.72247 244.53758 123.8767 244.48617 124.06178 244.4656 C 124.4525 244.4039 126.86881 243.70472 127.167 243.56077 C 127.37264 243.46823 127.7428 243.39625 128.2569 243.3654 C 128.40086 243.3654 128.7813 243.49908 129.08976 243.6636 Z"
                     fill="#ccc"/>
            </g>
            <g>
               <path d="M 230.5954 262.3463 C 233.0117 265.26644 233.14537 265.4618 235.5 269.1634 C 236.69272 271.0553 237.76207 272.70045 237.8546 272.81356 C 238.12194 273.12202 238.82113 274.5718 239.1296 275.42523 C 239.66427 276.91614 239.78765 278.22198 239.48947 279.3633 C 239.37637 279.78487 238.58464 280.66914 238.13222 280.8645 C 237.61812 281.0907 237.00119 281.01873 236.54877 280.6897 C 236.00381 280.2887 235.82902 280.02136 235.2121 278.623 C 231.81897 270.92164 227.77807 261.41062 227.82949 261.26667 C 227.89118 261.0713 228.6932 260.42354 228.87827 260.42354 C 228.93996 260.42354 229.71112 261.28724 230.5954 262.3463 Z"/>
            </g>
            <g>
               <path d="M 230.34862 270.91135 C 232.33308 275.51777 234.02964 279.40443 234.1119 279.54838 C 234.58487 280.42237 234.66713 280.65886 234.66713 281.25522 C 234.66713 282.0161 234.52318 282.33485 233.8754 282.96206 C 232.97057 283.83605 232.1994 284.05197 231.2226 283.72294 L 230.81132 283.579 L 228.3333 275.06535 C 226.97607 270.37668 225.67023 265.91422 225.42346 265.15334 L 224.9916 263.76524 L 225.79362 263.02493 C 226.29744 262.56223 226.6162 262.33602 226.65732 262.408 C 226.69845 262.47997 228.35388 266.30494 230.34862 270.91135 Z"/>
            </g>
            <g>
               <path d="M 226.4414 273.78008 C 227.79864 279.22963 228.70347 283.0546 228.70347 283.3425 C 228.70347 283.72294 228.6315 283.94915 228.37444 284.33987 C 227.61356 285.4812 226.318 286.44772 225.26922 286.65336 C 224.50834 286.7973 223.73718 286.76647 223.48013 286.5814 C 223.25392 286.42716 223.25392 286.41687 223.25392 283.0649 C 223.25392 280.6897 223.35674 277.54336 223.6138 272.29945 C 223.81944 268.2277 224.00452 264.8346 224.02508 264.75233 C 224.05593 264.67007 224.09706 264.62895 224.1279 264.6495 C 224.14847 264.68036 225.18697 268.78294 226.4414 273.78008 Z"/>
            </g>
            <g>
               <path d="M 222.07147 280.37095 C 221.84526 283.94915 221.6499 286.37574 221.57792 286.52998 C 221.40313 286.88985 220.2001 287.8461 219.84024 287.91807 C 219.24387 288.04146 218.44186 287.97976 217.98944 287.7844 C 217.7324 287.68158 217.33139 287.36283 217.05377 287.05437 C 216.61163 286.56082 216.5705 286.47857 216.5705 285.98502 C 216.5705 285.58402 218.40073 276.89558 220.34406 268.03235 C 220.3749 267.8781 220.7862 267.43598 221.39284 266.9013 L 222.37993 266.0376 L 222.41078 270.243 C 222.44163 274.1194 222.41078 274.9317 222.07147 280.37095 Z"/>
            </g>
            <g>
               <path d="M 217.06405 276.79276 C 216.1078 280.93647 215.2441 284.51467 215.131 284.74088 C 215.02818 284.9671 214.8945 285.26527 214.8431 285.40922 C 214.63746 285.9336 214.10278 286.52998 213.41388 286.99268 C 212.8175 287.3834 212.5913 287.47594 211.91268 287.57876 C 211.31631 287.6713 211.0387 287.6713 210.85362 287.57876 C 210.70966 287.51707 210.44233 287.46566 210.24697 287.46566 C 209.8254 287.46566 209.22903 287.01324 209.32157 286.7562 C 209.3627 286.66365 209.40383 286.44772 209.4244 286.2832 C 209.44496 286.1084 209.49637 285.81023 209.55806 285.61486 C 209.79455 284.75116 214.1439 274.5101 214.6169 273.69782 C 214.8945 273.20428 215.131 272.7313 215.131 272.63876 C 215.131 272.5051 218.62694 269.2662 218.7606 269.2662 C 218.78117 269.2662 218.0203 272.65932 217.06405 276.79276 Z"/>
            </g>
            <g>
               <path d="M 212.45763 275.66172 C 212.05663 276.474 211.73788 277.19376 211.73788 277.26574 C 211.73788 277.3377 210.87418 279.2399 209.8254 281.48143 C 208.76633 283.72294 207.8615 285.69712 207.7998 285.87192 C 207.64558 286.32433 207.3474 286.6945 206.85385 287.0441 C 206.45284 287.332 206.32946 287.36283 205.6714 287.36283 C 204.4581 287.36283 203.87202 287.0852 202.7924 285.9953 C 202.05207 285.255 201.87728 285.02878 201.83615 284.71003 C 201.8053 284.4427 201.83615 284.27818 201.95953 284.1548 C 202.11377 283.98 213.1054 274.2222 213.14654 274.21193 C 213.15682 274.20165 212.84836 274.8597 212.45763 275.66172 Z"/>
            </g>
            <g>
               <g  id="outline-1">
                  <path 
                        d="M 211.2032 257.23606 C 210.98728 257.28747 210.54515 257.47255 210.21612 257.63707 C 208.46815 258.52133 207.5222 259.97112 207.5222 261.76022 C 207.5222 262.809 207.94376 264.15597 208.40646 264.58782 C 208.46815 264.63923 208.60182 264.8243 208.70464 264.9991 C 208.92057 265.3487 209.29072 265.77027 209.39355 265.77027 C 209.4244 265.77027 209.702 265.9245 209.98991 266.11986 C 210.2881 266.31522 210.71995 266.51058 210.94615 266.54143 C 211.17236 266.58256 211.51167 266.68538 211.69675 266.75736 C 212.0772 266.9116 213.13626 266.95272 213.21852 266.80877 C 213.24936 266.76764 213.455 266.69566 213.68121 266.65453 C 214.75056 266.49002 216.49853 264.98882 217.10518 263.7241 C 217.74267 262.408 217.59872 260.43382 216.78643 259.32334 C 216.24147 258.57274 215.61426 258.04835 214.75056 257.62678 C 213.90742 257.2052 213.856 257.19493 212.73525 257.17437 C 212.09776 257.1538 211.40885 257.18465 211.2032 257.23606 Z"
                        fill="black"/>
               </g>
            </g>
            <g>
               <path d="M 213.7429 258.75782 C 214.33927 258.8915 214.9048 259.2925 215.04874 259.67294 C 215.11044 259.85802 215.21326 260.01225 215.26467 260.01225 C 215.3058 260.01225 215.4703 260.2693 215.61426 260.58805 C 215.8302 261.0713 215.87132 261.26667 215.8302 261.9453 C 215.74793 263.7961 214.34955 265.0505 212.40622 265.0505 C 211.31631 265.0505 210.60684 264.7626 209.8871 264.03258 C 209.40383 263.54932 209.29072 263.35396 209.16734 262.8604 C 208.99254 262.13038 209.15706 260.86567 209.50665 260.2076 C 209.81512 259.6318 210.70966 258.86065 211.25462 258.7064 C 211.7276 258.57274 213.08485 258.5933 213.7429 258.75782 Z"/>
            </g>
         </g>
      </g>
   </g>
</svg>