<?xml version="1.0" encoding="UTF-8" standalone="no"?>
<!DOCTYPE svg PUBLIC "-//W3C//DTD SVG 1.1//EN" "http://www.w3.org/Graphics/SVG/1.1/DTD/svg11.dtd">
<svg xmlns:dc="http://purl.org/dc/elements/1.1/" xmlns:xl="http://www.w3.org/1999/xlink" version="1.1" xmlns="http://www.w3.org/2000/svg" viewBox="49.5 63 265.5 324" width="265.5" height="324">

  <metadata> Produced by OmniGraffle 7.7.1 
    <dc:date>2018-03-18 08:21:30 +0000</dc:date><dc:title>Traceable heraldic art http://heraldicart.org/credits.html</dc:title>
  </metadata>
  <g id="Mortar_and_Pestle" fill-opacity="1" stroke-dasharray="none" stroke="none" stroke-opacity="1" fill="#ffff00">
    <title>Mortar and Pestle</title>
    <g id="Mortar_and_Pestle: Layer 2" >
      <title>Layer 2</title>
      <g id="Group_3">
        <g id="Graphic_9">
          <path d="M 279.28862 68.37871 C 272.98673 72.09521 261.67565 84.69899 252.6268 97.62594 C 250.52616 100.69609 244.70903 108.29067 239.69983 114.59256 C 234.69064 120.73287 229.51986 127.84269 228.06558 130.1049 L 225.4802 134.30616 L 194.94027 133.49823 C 132.40614 131.88236 73.7501 142.5471 60.01521 158.05944 C 55.813954 162.74546 55.65237 164.03815 55.49078 179.06573 C 55.329194 215.42278 68.256145 251.45666 91.68624 280.21912 C 103.15891 294.43877 104.12843 295.2467 113.66206 299.93273 C 117.70173 302.03335 121.25664 304.134 121.7414 304.61875 C 122.54934 305.58827 134.66836 311.56698 136.28422 311.89016 C 139.0312 312.21333 145.97944 316.57617 146.62579 318.19204 C 147.11055 319.64633 142.7477 320.45426 130.62868 321.1006 C 112.69254 322.07013 104.93637 324.6555 103.15891 330.47265 C 102.51257 332.4117 102.51257 341.1374 103.15891 349.86307 L 104.29002 365.86018 L 116.40904 371.6773 C 123.19569 375.07063 134.82994 379.1103 142.58611 380.72617 C 159.06798 384.2811 200.27263 386.05854 209.3215 383.63473 C 212.71482 382.6652 217.72402 381.5341 220.63258 381.21093 C 232.91318 379.59506 237.5992 378.46395 244.8706 375.07063 L 252.4652 371.5157 L 252.6268 362.30526 C 252.6268 357.29607 253.43472 349.5399 254.40424 345.01547 C 255.53535 339.35993 255.53535 335.9666 254.40424 333.7044 C 252.3036 329.9879 240.83094 325.9482 228.06558 324.49393 C 222.8948 323.8476 218.69354 322.87806 218.69354 322.2317 C 218.69354 319.8079 242.12364 298.47844 246.3249 297.18575 C 247.94077 296.5394 256.98963 288.78323 266.20008 279.73436 C 280.9045 265.19154 283.81305 261.47505 289.63018 249.19444 C 293.34668 241.43827 296.25525 234.00527 296.25525 232.71258 C 296.25525 231.58147 297.38635 227.70339 298.84064 224.31006 C 303.36507 213.80691 305.78887 198.45616 306.27363 178.90415 C 306.5968 163.5534 306.27363 159.99848 304.3346 159.02896 C 299.3254 156.28198 290.4381 152.72707 286.39844 151.75755 C 283.00512 150.94961 282.1972 149.9801 283.00512 147.23312 C 283.3283 145.29407 284.621 142.5471 285.5905 141.2544 C 288.0143 138.02266 290.27653 133.98299 296.9016 120.73287 C 308.53585 97.62594 309.50537 94.3942 308.85902 85.02216 C 308.21267 77.26599 307.24315 75.32695 302.23396 70.64093 C 295.28572 64.33904 287.0448 63.53111 279.28862 68.37871 Z" fill="#cccccc"/>
        </g>
        <g id="Graphic_8">
          <path d="M 295.28572 70.15617 C 300.6181 72.09521 305.95046 80.8209 305.95046 87.44597 C 305.95046 90.35453 304.81935 95.36372 303.36507 98.75705 C 299.00222 108.61385 286.39844 133.49823 282.1972 139.9617 C 280.25814 143.35503 270.0067 163.04403 268.78547 164.84609 C 268.78547 167.26989 252.78837 172.76384 238.8919 175.02606 C 230.1662 176.48034 215.94656 177.28828 203.66596 176.9651 L 197.42275 176.6331 C 197.42275 176.6331 252.4652 104.41259 257.4744 97.62594 C 264.26104 88.41549 279.12703 72.2568 282.52036 70.47934 C 286.72162 68.21713 290.27653 68.21713 295.28572 70.15617 Z" fill="#ff0000"/>
        </g>
        <g id="Graphic_7">
          <path d="M 221.78503 137.80572 C 222.43138 138.45207 218.5098 142.442 217.2171 143.89629 C 215.11647 145.83533 209.1599 144.64772 175.71143 144.9709 C 153.57402 145.29407 132.7699 146.87357 128.14251 147.3066 C 123.65723 147.9199 114.79317 149.9801 109.13763 150.94961 C 95.24116 153.37342 91.0399 155.47405 91.0399 159.99848 C 91.0399 162.74546 92.49418 164.52291 96.53385 166.13878 C 101.54304 168.23941 125.13473 173.08702 137.09216 174.37971 C 177.81206 179.06573 190.09266 180.03525 209.48309 180.03525 C 222.24845 180.03525 238.24555 179.06573 245.67855 177.77304 C 259.09026 175.34923 275.08736 168.56258 275.41054 165.00767 C 275.57212 164.03815 273.9724 162.14006 275.27542 160.08194 C 279.08886 153.61071 280.7429 153.21183 290.11494 156.28198 C 294.96255 157.73626 300.13333 159.99848 301.7492 161.12959 C 304.49618 163.23022 304.49618 163.5534 302.07237 168.401 C 299.1638 174.21813 297.70953 175.02606 283.65147 179.87367 C 267.3312 185.36762 252.88983 188.26104 202.53485 187.50545 C 150.56835 186.56424 131.43662 185.36762 100.73511 180.19684 C 74.55803 175.6724 67.44821 173.57178 63.24695 169.20893 C 57.10665 162.58387 61.30791 158.38261 83.76849 148.52581 C 88.93927 146.2636 95.8875 144.32455 102.35098 143.51662 C 110.26874 142.5471 120.44871 140.93123 123.84203 140.1233 C 125.78108 139.80012 146.42203 137.10307 166.9699 136.28308 C 188.05685 135.48406 221.78503 137.80572 221.78503 137.80572 Z" fill="#ff0000"/>
        </g>
        <g id="Graphic_6">
          <path d="M 189.28472 147.87946 L 213.68434 148.04105 L 210.12943 153.37342 C 195.26344 175.51082 194.13233 176.80352 189.93107 176.80352 C 181.0438 176.80352 113.66206 168.23941 106.71382 166.30037 C 99.92717 164.36133 94.27163 161.93752 94.27163 160.80641 C 94.27163 157.2515 112.50002 152.78338 122.99224 151.25186 C 133.48446 149.72033 137.31003 149.12346 147.17555 148.46422 C 157.02907 148.07769 175.87301 147.71788 189.28472 147.87946 Z" fill="#ff0000"/>
        </g>
        <g id="Graphic_5">
          <path d="M 79.24405 179.22732 C 87.00022 181.16636 97.82655 183.267 103.15891 183.91334 C 108.49128 184.3981 116.8938 185.6908 121.7414 186.49873 C 126.7506 187.46825 132.56773 188.1146 134.66836 187.953 C 136.93057 187.79142 147.43372 188.43777 158.09846 189.08412 C 168.76319 189.89205 194.6171 190.82011 215.4618 190.82011 C 245.67855 190.65852 256.34328 189.89205 267.1696 187.46825 C 285.9137 183.59017 289.63018 182.29747 298.51746 177.28828 L 303.20348 174.70289 L 302.23396 190.86158 C 300.13333 225.76434 282.52036 263.73726 260.05978 281.6734 C 257.15122 283.93562 252.14202 288.62164 248.5871 291.85338 C 245.1938 295.2467 241.63888 297.9937 240.66936 297.9937 C 239.69983 297.9937 233.55953 302.8413 227.09606 308.9816 C 217.8856 317.3841 214.81545 321.4238 213.19958 327.07932 C 211.09895 334.35073 211.26054 338.3904 213.84593 338.3904 C 214.65387 338.3904 215.4618 335.64343 215.78497 332.2501 C 216.26974 326.2714 216.26974 326.2714 222.57162 326.75615 C 226.12654 327.07932 230.48938 327.72567 232.26684 328.04884 C 234.20588 328.372 237.92238 329.17995 240.83094 329.6647 C 243.57792 330.14947 247.13283 331.92693 248.5871 333.5428 C 254.40424 340.00627 247.13283 345.8234 228.38875 349.7015 C 219.82465 351.47894 170.86382 350.9942 157.29052 349.05514 C 154.22037 348.73197 148.08007 347.76244 143.55563 347.2777 C 132.24455 345.6618 116.57062 340.32945 111.39984 336.28978 C 106.06748 332.0885 107.037 327.88726 113.33889 326.59456 C 121.09506 324.9787 130.43106 324.16905 138.54644 323.5244 C 152.86668 322.29464 152.44291 324.17076 152.44291 328.04884 C 152.44291 330.14947 153.25085 331.92693 154.05878 331.92693 C 155.0283 331.92693 155.67465 330.14947 155.67465 328.04884 C 155.67465 320.77743 143.87881 309.9511 129.82075 304.45716 C 120.44871 300.74066 108.32969 292.8229 103.15891 287.00577 C 100.57352 283.93562 96.37226 279.57278 94.11005 277.14897 C 88.93927 271.9782 82.47579 261.79822 75.20438 247.90175 C 65.18599 228.51132 59.53045 206.05074 58.884105 182.45906 C 58.399344 169.6937 58.56093 169.6937 61.63108 172.60226 C 63.40854 174.21813 71.326296 177.1267 79.24405 179.22732 Z" fill="#ff0000"/>
        </g>
        <g id="Graphic_4">
          <path d="M 118.0249 344.04595 C 119.64078 344.20753 122.87251 345.17705 125.13473 346.14658 C 127.39695 346.9545 132.08297 348.2472 135.63788 348.73197 C 139.0312 349.21673 145.97944 350.50942 150.82705 351.64053 C 159.55274 353.418 226.6113 354.2259 231.6205 352.61005 C 232.91318 352.1253 236.3065 351.15577 238.8919 350.50942 C 241.63888 349.86307 245.51696 348.0856 247.6176 346.63134 C 251.49568 344.20753 251.49568 344.20753 250.52616 348.0856 C 249.8798 350.34783 249.39505 356.00338 249.39505 360.6894 L 249.39505 369.2535 L 242.12364 372.32365 C 233.07477 376.20174 214.00752 380.2414 198.81835 381.3725 C 181.85173 382.6652 147.11055 379.43347 134.66836 375.5554 C 117.37856 369.89985 107.19858 364.2443 107.52176 360.36622 C 107.52176 358.4272 107.037 352.28688 106.39065 346.63134 L 105.09796 336.28978 L 110.10715 340.00627 C 112.85413 342.1069 116.40904 343.88436 118.0249 344.04595 Z" fill="#ff0000"/>
        </g>
      </g>
    </g>
  </g>
</svg>
