<?xml version="1.0" encoding="utf-8"?>
<svg xmlns:xl="http://www.w3.org/1999/xlink" xmlns="http://www.w3.org/2000/svg"
     xmlns:dc="http://purl.org/dc/elements/1.1/"
     xmlns:xlink="http://www.w3.org/1999/xlink"
     version="1.1"
     viewBox="94.5 63 175.5 301.5"
     width="175.5"
     height="301.5"
     preserveAspectRatio="xMidYMid meet"
     zoomAndPan="magnify"
     contentScriptType="application/ecmascript"
     contentStyleType="text/css">
   <defs/>
   <metadata  xmlns:svg="http://www.w3.org/2000/svg"
             xmlns:rdf="http://www.w3.org/1999/02/22-rdf-syntax-ns#"
             xmlns:cc="http://creativecommons.org/ns#">
      <rdf:RDF>
         <cc:Work rdf:about="">
            <dc:creator>
               <cc:Agent>
                  <dc:title>http://heraldicart.org Scroll, Open (1).svg</dc:title>
               </cc:Agent>
            </dc:creator>
         </cc:Work>
      </rdf:RDF>
   </metadata>
   <g stroke-opacity="1" fill="#ffff00" fill-opacity="1" stroke="#505050"
      stroke-dasharray="none">
      <title>Scroll, Open (1)</title>
      <g>
         <title>Layer 2</title>
         <g>
            <g>
               <g  id="outline-0">
                  <path 
                        d="M 128.1516 68.86541 C 123.30697 73.33007 119.12729 81.49945 118.36734 87.76898 C 117.98737 91.18872 118.46234 93.37355 120.2672 97.55324 C 123.59195 105.05767 125.39681 105.9126 134.13615 104.77269 C 142.30553 103.63278 142.21054 103.53778 143.63543 112.5621 C 146.77019 132.4156 147.53013 150.46423 145.63028 162.90828 C 145.06032 166.32802 144.30038 173.73746 143.82541 179.53202 C 142.97048 189.0313 140.21569 203.09024 136.60596 215.62929 C 133.66118 226.17349 117.89238 268.44528 112.95275 279.17947 C 109.91298 285.73397 105.16334 298.368 101.64861 309.1972 C 101.07865 311.00206 100.60369 318.03152 100.60369 324.871 C 100.60369 334.75026 100.98366 338.17 102.50355 341.8747 L 104.30841 346.62435 L 111.43287 347.85926 C 115.51756 348.5242 126.72671 349.09417 137.55589 349.09417 C 168.61853 349.18916 206.1407 353.27385 212.12524 357.16856 C 212.88518 357.6435 214.40506 357.9285 215.44998 357.8335 C 216.4949 357.6435 219.2497 358.21348 221.52952 358.9734 C 226.75413 360.87327 244.99274 362.9631 248.50748 362.0132 C 252.0222 361.15825 255.53694 357.35854 258.00676 352.03894 C 261.5215 344.15454 258.6717 332.56542 251.54725 325.25098 C 248.0325 321.54626 244.1378 320.21636 241.28802 321.64125 C 240.4331 322.2112 236.3484 322.4962 232.2637 322.3062 L 224.94926 322.02122 L 224.66428 317.74654 C 224.18932 310.05213 229.50892 288.48876 238.53323 261.22583 C 244.4228 243.36718 251.83223 216.95918 254.30204 204.70511 C 255.06198 200.8104 256.39188 195.01585 257.15182 191.88109 C 258.00676 188.74632 259.05168 182.5718 259.52664 178.10713 C 260.0966 173.64247 260.95153 166.42302 261.4265 161.95835 C 262.7564 150.55922 263.80132 131.27568 263.8963 116.83677 C 263.8963 106.67254 263.51634 103.3478 261.80647 97.83821 C 259.14667 89.28886 255.15697 83.87427 249.3624 81.11948 C 244.99274 78.93465 244.1378 78.83965 218.29977 78.64967 C 192.27174 78.45968 186.85715 78.07971 162.72898 74.18501 C 153.03971 72.66512 142.6855 69.53036 138.50582 66.965555 C 134.23114 64.30576 132.80625 64.590735 128.1516 68.86541 Z"
                        fill="black"/>
               </g>
            </g>
            <g>
               <path d="M 136.98593 67.82049 C 138.03085 68.48544 137.84087 68.86541 136.22599 69.72035 C 133.66118 71.14524 128.53157 78.174705 128.53157 80.16955 C 128.62656 81.02449 129.4815 80.16955 130.43143 78.2697 C 132.42628 74.46999 137.4609 69.81534 139.45574 69.81534 C 140.1207 69.81534 141.4506 70.10032 142.30553 70.385296 C 143.63543 70.95525 143.63543 71.14524 142.21054 72.760115 C 141.3556 73.80504 141.07062 74.56498 141.64058 74.56498 C 142.21054 74.56498 142.87548 74.18501 143.16046 73.71004 C 143.9204 72.57013 147.53013 71.715195 147.53013 72.760115 C 147.53013 73.23508 146.96018 73.61505 146.39022 73.61505 C 143.82541 73.71004 136.131 82.54437 136.131 85.29916 C 136.131 85.86912 137.3659 84.34924 138.98078 81.87942 C 143.16046 75.22993 149.99994 71.90518 153.98964 74.46999 C 154.93957 75.03994 154.93957 75.41991 153.70466 76.464835 C 152.94472 77.12978 152.27977 78.07971 152.27977 78.64967 C 152.27977 79.21963 153.2297 78.74466 154.4646 77.60475 C 155.8895 76.17986 157.88435 75.51491 160.25917 75.51491 L 163.7739 75.51491 L 161.1141 77.98472 L 158.4543 80.35954 L 162.72898 78.07971 C 166.62368 75.89488 167.38363 75.799885 172.03827 76.74981 C 177.0729 77.79473 178.11781 78.64967 175.553 79.69459 C 174.79307 79.97957 174.12812 80.64452 174.12812 81.21447 C 174.12812 81.78443 175.36302 81.30947 176.8829 80.16955 C 180.9676 77.12978 182.1075 78.2697 179.25773 82.44938 C 177.92783 84.44423 177.0729 86.34409 177.35787 86.62906 C 177.64285 87.00904 177.92783 86.81905 177.92783 86.24909 C 177.92783 85.67914 179.16273 83.87427 180.68262 82.2594 C 182.77246 79.97957 184.29235 79.31462 186.95214 79.31462 C 189.61194 79.31462 190.37188 79.69459 189.99191 80.64452 C 189.51695 81.78443 189.89692 81.78443 192.17675 80.64452 C 193.60164 79.88458 195.5015 79.5046 196.35643 79.88458 C 197.68633 80.35954 197.49634 81.02449 195.4065 84.63422 C 193.9816 87.00904 193.12668 89.09888 193.31666 89.38386 C 193.60164 89.57384 194.36158 88.52892 195.02653 86.91404 C 197.02138 82.06941 200.25114 80.26455 206.61565 80.26455 L 212.12524 80.26455 L 210.60535 82.82935 L 209.08547 85.48915 L 211.1753 82.82935 C 213.64512 79.78958 217.53982 79.12463 215.92495 82.06941 C 214.31007 85.10918 214.88003 85.29916 217.15985 82.54437 C 218.77473 80.73951 220.4846 79.88458 222.85942 79.69459 C 226.56414 79.40961 227.32408 80.26455 224.94926 82.1644 C 224.18932 82.82935 223.52437 83.87427 223.52437 84.44423 C 223.52437 85.10918 223.80935 85.20417 224.28431 84.53922 C 226.18417 81.78443 230.74382 79.31462 233.7836 79.31462 L 237.20333 79.31462 L 233.8786 82.82935 L 230.64883 86.34409 L 234.25856 83.30432 C 236.2534 81.59445 238.53323 80.26455 239.38817 80.26455 C 240.4331 80.26455 240.1481 80.8345 238.34325 82.2594 C 234.25856 85.48915 232.73867 89.38386 233.30863 95.4634 C 233.7836 101.06797 235.68345 105.72262 238.72322 108.76239 C 242.04797 112.08713 238.8182 111.70716 235.1135 108.28742 C 230.83882 104.48771 228.74898 103.82276 232.07372 107.3375 C 235.1135 110.56725 233.97358 111.2322 229.41392 108.85738 C 225.6142 106.95752 220.6746 101.9229 220.6746 100.02305 C 220.6746 99.45309 220.3896 99.26311 220.10463 99.54808 C 219.2497 100.30803 222.19447 104.6777 225.32923 107.43249 C 227.0391 108.95237 227.32408 109.61732 226.37416 109.71231 C 224.4743 109.71231 219.91464 106.67254 217.15985 103.3478 C 215.82995 101.9229 215.165 101.35295 215.54498 102.11289 C 215.92495 102.87283 217.06486 104.48771 218.10978 105.62762 L 220.00964 107.81246 L 218.0148 107.81246 C 216.87488 107.81246 215.92495 107.43249 215.92495 106.95752 C 215.92495 106.48256 214.88003 105.81761 213.55013 105.53263 C 212.22023 105.15266 209.27545 103.06282 206.90063 100.87798 C 204.5258 98.59816 202.62596 97.26826 202.62596 97.83821 C 202.62596 98.97813 206.52066 102.77784 210.22538 105.24765 C 211.46029 106.19758 212.12524 106.86253 211.55528 106.86253 C 209.18046 106.86253 200.06115 103.72777 198.44627 102.30288 C 196.7364 100.78299 196.6414 100.78299 197.21137 102.49286 C 197.78132 103.82276 197.59134 104.10774 196.35643 103.63278 C 195.59649 103.3478 193.9816 103.06282 192.8417 103.06282 C 190.65686 103.06282 185.24227 98.59816 182.48748 94.51347 C 181.63255 93.18357 180.8726 92.61361 180.8726 93.18357 C 180.77761 93.75352 182.2975 95.93836 184.19735 98.12319 L 187.6171 102.11289 L 184.19735 102.11289 C 181.82253 102.11289 179.82768 101.25796 177.26288 99.07312 C 174.69807 96.88829 174.3181 96.6983 175.83799 98.40817 C 176.9779 99.73807 177.92783 101.06797 177.92783 101.44794 C 177.92783 102.39787 172.41825 102.30288 171.84829 101.35295 C 171.5633 100.87798 168.9985 100.688 166.05373 100.97298 C 161.58907 101.35295 160.16417 101.06797 157.78935 99.26311 C 155.12956 97.26826 155.03456 97.26826 155.9845 99.07312 C 157.50438 101.9229 157.31439 102.11289 153.70466 102.11289 C 149.90495 102.11289 147.24515 99.73807 144.58536 94.0385 C 143.44544 91.56869 142.7805 90.90374 142.7805 92.13865 C 142.7805 93.18357 143.9204 95.74837 145.2503 97.64823 C 146.5802 99.64308 147.53013 101.44794 147.34015 101.63793 C 147.24515 101.82791 144.87033 102.11289 142.11554 102.20788 C 136.70095 102.49286 134.23114 101.16296 134.23114 97.93321 C 134.23114 96.88829 133.75618 95.27341 133.18622 94.51347 C 132.42628 93.46855 132.33128 94.0385 132.80625 96.6983 C 133.09123 98.69315 133.56619 100.87798 133.85117 101.54293 C 134.51612 103.2528 128.2466 104.39272 125.68179 103.06282 C 122.832 101.54293 119.03229 92.32863 119.41226 87.95896 C 119.88723 83.20932 124.1619 74.94495 128.34159 70.48029 C 131.66633 67.06055 134.42113 66.20561 136.98593 67.82049 Z"/>
            </g>
            <g>
               <path d="M 253.73208 86.1541 C 259.43165 91.85367 261.71148 98.40817 262.28143 110.66224 C 262.7564 121.87139 260.95153 159.9635 259.71663 166.04304 C 259.24166 168.22788 258.5767 173.45248 258.19674 177.63217 C 257.91176 181.81185 256.77185 188.46134 255.72693 192.35605 C 254.777 196.25075 252.87715 204.13516 251.54725 209.92972 C 248.0325 225.60353 243.0929 243.55717 238.24825 257.90108 C 235.87344 264.93055 231.69375 278.41953 228.93896 287.8238 L 223.99934 304.9225 L 224.09433 324.39604 C 224.09433 342.2547 224.18932 344.34453 226.18417 349.56913 C 227.32408 352.6089 229.22394 356.12363 230.36385 357.35854 L 232.3587 359.54338 L 230.26886 359.54338 C 226.56414 359.54338 222.19447 357.07356 218.0148 352.5139 C 214.0251 348.23923 209.27545 339.6899 209.27545 336.8401 C 209.27545 336.08015 208.99047 335.7002 208.7055 336.08015 C 207.56558 337.12508 211.2703 345.9594 214.31007 349.66412 C 220.4846 357.07356 220.3896 356.7886 216.77988 356.12363 C 213.74011 355.55368 209.65542 352.13394 205.19076 346.1494 C 204.05085 344.5345 204.14584 345.10447 205.57073 347.66928 C 206.71065 349.7591 208.04054 352.03894 208.6105 352.7989 C 209.56043 353.8438 208.89548 353.9388 204.5258 353.36884 C 197.49634 352.4189 194.83655 350.89903 190.94184 345.57943 C 187.14213 340.35483 182.67747 331.80548 182.67747 329.71564 C 182.67747 328.9557 182.2025 328.00577 181.72754 327.7208 C 178.68777 325.82093 185.90722 341.30476 190.75186 347.00433 C 192.08175 348.6192 193.12668 350.1391 193.12668 350.51906 C 193.12668 351.84896 184.00737 349.66412 182.01252 347.85926 C 179.44771 345.57943 176.02797 336.9351 176.02797 332.8504 C 176.02797 331.23552 175.648 330.1906 175.17304 330.47558 C 173.93813 331.3305 175.743 339.5949 178.4028 344.6295 C 179.7327 347.1943 180.77761 349.37915 180.77761 349.37915 C 180.77761 349.47414 178.59278 349.37915 175.93298 349.18916 C 171.7533 348.9042 170.89836 348.5242 169.1885 345.8644 L 167.28863 342.91964 L 167.8586 345.48444 C 168.42855 348.04925 168.33355 348.14424 164.81882 348.14424 C 160.06918 348.14424 157.31439 346.0544 154.5596 340.16484 C 152.94472 336.6501 152.27977 333.51535 152.18478 328.6707 C 152.08979 323.06614 151.9948 322.59118 151.32984 325.63095 C 150.09494 332.09046 152.56475 341.68473 156.83943 346.43437 C 158.16933 348.04925 157.97934 348.14424 152.75474 348.14424 C 148.10009 348.14424 146.96018 347.76427 145.06032 345.7694 C 143.82541 344.4395 142.40052 341.58974 141.83056 339.3099 C 140.40567 333.70533 140.1207 333.13538 140.0257 335.5102 C 139.9307 336.7451 140.78564 339.87987 141.83056 342.63466 C 142.87548 345.38945 143.73042 347.76427 143.73042 347.95425 C 143.73042 348.9042 134.42113 346.71935 132.99623 345.48444 C 132.1413 344.6295 130.7164 341.8747 129.95646 339.2149 C 128.53157 334.46528 128.81655 330.57057 130.90639 321.0713 C 131.38136 318.98145 131.28636 318.60148 130.52642 319.6464 C 129.00654 321.83123 127.29667 333.32536 127.96162 336.9351 C 128.2466 338.73995 129.3865 341.77972 130.33644 343.67958 L 132.1413 347.1943 L 129.29151 347.1943 C 123.30697 347.1943 120.93215 344.24953 119.98222 335.3202 L 119.31727 329.62064 L 119.12729 334.84525 C 119.03229 338.36 119.60225 341.30476 120.83716 343.67958 L 122.64202 347.1943 L 120.55218 347.1943 C 119.50726 347.1943 118.08236 346.81434 117.51241 346.43437 C 115.32757 345.00948 113.33272 339.4999 113.14274 334.65526 C 113.14274 330.57057 112.95275 330.0956 112.19281 331.90047 C 111.24288 334.56027 112.09782 339.87987 113.99767 343.67958 C 114.75762 345.19946 115.23258 346.52936 115.0426 346.71935 C 114.85261 346.90933 112.57278 346.62435 109.81799 346.0544 L 104.97336 345.10447 L 103.45347 339.2149 C 101.26864 330.57057 100.79367 323.06614 102.02858 316.03667 C 103.35848 308.15227 110.00798 288.58375 115.0426 277.84957 C 117.13244 273.3849 120.36219 265.5005 122.16705 260.2759 C 124.06691 255.0513 128.34159 243.0822 131.85632 233.67792 C 135.27606 224.27363 138.98078 212.6845 140.0257 208.02986 C 141.07062 203.28022 142.49551 196.9157 143.25546 193.78094 C 144.0154 190.64618 144.87033 184.85162 145.15531 180.95691 C 145.44029 177.0622 146.10524 170.41271 146.5802 166.23303 C 148.10009 153.504 148.48006 137.73519 147.43514 129.94578 C 146.29523 121.01646 144.87033 111.32719 144.11039 107.05252 C 143.54043 104.29772 143.73042 104.01275 145.82026 104.01275 C 149.335 104.01275 152.37476 108.5724 153.51468 115.41188 C 153.79966 117.21675 153.98964 116.93177 154.08464 114.46195 C 154.08464 112.5621 153.41969 109.52233 152.37476 107.62247 C 150.94987 104.6777 150.85488 104.01275 151.9948 103.63278 C 156.07948 102.0179 157.97934 103.91775 159.30924 110.66224 C 159.59422 111.99214 159.59422 110.75724 159.40423 108.00244 L 159.02426 103.06282 L 162.63399 103.06282 C 165.76875 103.06282 166.4337 103.44279 167.28863 105.62762 C 167.8586 107.14751 168.52354 109.52233 168.71353 111.1372 C 168.9985 112.65709 168.9985 111.51718 168.80852 108.47741 C 168.61853 105.53263 168.80852 103.06282 169.28348 103.06282 C 173.84314 103.06282 176.31295 104.48771 178.02282 108.19243 C 179.7327 111.80216 179.82768 111.1372 178.49778 106.29257 C 177.83283 104.01275 180.20765 102.87283 183.6274 103.72777 C 186.38219 104.48771 186.57217 106.48256 186.2872 123.20129 C 186.0972 131.37067 186.2872 137.83018 186.66717 137.45021 C 187.04714 137.07024 187.4271 129.37582 187.5221 120.35151 L 187.6171 103.91775 L 191.6068 104.48771 C 193.69663 104.86768 195.97646 105.53263 196.45142 106.10259 C 197.02138 106.57755 197.40135 111.51718 197.30636 117.12175 C 197.21137 125.48112 197.40135 126.52604 198.0663 123.0113 C 198.54127 120.63649 198.73125 115.88685 198.63626 112.27712 C 198.35128 106.29257 198.44627 105.9126 200.34613 105.9126 C 203.2909 105.9126 205.09577 108.00244 205.8557 112.18213 C 206.23568 114.08198 206.80564 115.41188 206.99562 115.1269 C 207.2806 114.84193 207.09062 113.13206 206.61565 111.2322 C 205.66572 108.00244 205.76072 107.81246 207.85056 107.81246 C 210.22538 107.81246 211.65027 109.14236 212.5052 112.08713 C 212.79018 113.13206 212.88518 112.84708 212.6952 111.32719 C 212.41021 108.66739 212.41021 108.5724 215.82995 109.23735 C 220.6746 110.18728 222.57444 111.42218 222.66944 113.797 C 222.66944 114.93692 223.0494 116.74178 223.52437 117.7867 C 224.09433 119.02161 224.18932 118.26167 223.80935 115.50688 L 223.2394 111.32719 L 226.9441 111.99214 C 235.20849 113.41703 243.18788 113.70201 246.9876 112.65709 C 252.49717 111.1372 256.77185 106.67254 256.77185 102.39787 C 256.77185 98.12319 254.39703 94.1335 251.07228 92.89859 C 249.26742 92.23364 248.3175 91.09373 248.0325 89.19387 C 247.74753 87.67398 247.17758 85.58414 246.7976 84.53922 C 246.22765 83.01934 246.7026 83.30432 249.17243 85.48915 C 252.2122 88.24394 252.3072 87.29401 249.3624 83.77928 C 246.41764 80.45453 249.93237 82.2594 253.73208 86.1541 Z"/>
            </g>
            <g>
               <path d="M 244.04282 83.87427 C 245.4677 84.8242 247.27257 88.33893 247.27257 90.1438 C 247.27257 91.28371 246.60762 91.4737 244.2328 91.09373 C 239.29318 90.23879 235.87344 88.71891 235.87344 87.29401 C 235.87344 85.10918 237.7733 84.72921 239.76814 86.53407 C 241.668 88.24394 241.668 88.24394 240.71807 85.67914 C 239.86313 83.4943 239.95813 83.11433 241.38302 83.11433 C 242.23795 83.11433 243.47286 83.4943 244.04282 83.87427 Z"/>
            </g>
            <g>
               <path d="M 238.05827 91.18872 C 239.95813 91.94866 242.61792 92.61361 243.94782 92.61361 C 245.4677 92.61361 246.32264 93.18357 246.32264 94.0385 C 246.32264 95.84337 245.4677 95.84337 239.1032 93.94351 C 235.96843 93.08857 233.97358 91.94866 233.97358 91.09373 C 233.97358 89.47885 233.97358 89.47885 238.05827 91.18872 Z"/>
            </g>
            <g>
               <path d="M 237.20333 95.08342 C 238.05827 95.3684 238.72322 96.79329 238.8182 98.21819 C 238.8182 100.688 238.8182 100.688 239.86313 98.50316 C 240.4331 97.36325 241.19303 96.41332 241.573 96.41332 C 242.8079 96.41332 244.2328 98.69315 244.70777 101.16296 C 245.08774 103.53778 245.08774 103.53778 245.27772 100.87798 C 245.37271 98.0282 247.84253 97.26826 248.50748 99.92806 C 248.79246 100.97298 248.98244 100.593 249.07743 98.97813 C 249.17243 95.65338 250.7873 96.41332 251.92722 100.49801 C 252.68716 103.2528 252.78215 103.3478 252.87715 101.16296 C 252.97214 99.83306 252.3072 97.74322 251.45225 96.60331 C 250.02736 94.51347 250.59732 93.84852 252.59217 95.27341 C 256.2969 97.74322 256.67686 103.72777 253.3521 107.71747 C 251.26227 110.28227 250.31234 110.66224 246.51263 110.66224 L 242.04797 110.66224 L 244.4228 108.76239 L 246.7976 106.95752 L 242.9979 107.43249 C 239.95813 107.81246 239.57815 107.71747 240.90805 106.86253 C 243.37787 105.24765 242.9029 104.29772 239.86313 104.77269 C 237.5833 105.05767 236.91836 104.6777 236.06342 102.39787 C 233.49862 95.4634 233.6886 93.75352 237.20333 95.08342 Z"/>
            </g>
            <g>
               <path d="M 251.73723 327.15083 C 255.91692 331.7105 257.72178 336.6501 257.72178 344.24953 C 257.72178 350.42407 257.4368 351.75397 255.25197 354.69874 C 251.92722 359.1634 250.21735 360.4933 247.84253 360.4933 C 246.03766 360.3983 246.03766 360.3033 247.36756 359.2584 C 248.2225 358.59345 249.6474 356.5986 250.50233 354.79374 L 252.1172 351.469 L 250.21735 353.8438 C 249.17243 355.1737 248.2225 356.4086 248.2225 356.6936 C 248.2225 357.45353 242.9029 360.4933 241.668 360.4933 C 241.00305 360.4933 241.19303 359.4484 242.23795 357.8335 L 243.85283 355.2687 L 241.478 357.35854 C 237.7733 360.6833 236.53838 360.11333 238.72322 355.93365 C 239.67315 354.0338 240.71807 350.70905 241.00305 348.6192 C 241.573 344.9145 241.478 345.00948 240.2431 349.37915 C 238.62823 354.79374 236.3484 358.59345 234.54354 358.59345 C 232.3587 358.59345 232.16872 357.54853 234.06857 354.50876 C 235.0185 352.7989 235.87344 350.80404 235.87344 350.0441 C 235.77844 349.28415 234.9235 350.2341 233.8786 352.13394 C 232.83367 354.1288 231.69375 355.74366 231.2188 355.74366 C 229.6039 355.74366 229.41392 354.41376 230.64883 351.84896 C 231.40877 350.42407 232.07372 347.76427 231.97873 346.0544 C 231.88374 342.53966 231.59876 343.2046 230.64883 348.33423 C 230.36385 350.32907 229.6039 351.94395 229.12895 351.94395 C 228.464 351.94395 228.369 350.61405 228.74898 348.23923 C 229.12895 345.9594 228.93896 344.24953 228.369 343.86956 C 227.79905 343.5846 227.32408 343.86956 227.2291 344.5345 C 227.2291 345.67443 225.6142 342.82464 225.51922 341.20977 C 225.32923 339.97486 231.40877 340.5448 238.43824 342.44467 C 246.8926 344.8195 249.4574 344.05955 248.98244 339.3099 C 248.79246 336.8401 248.2225 336.17515 246.32264 335.98516 C 244.99274 335.79518 242.33295 335.2252 240.4331 334.75026 C 237.4883 333.9903 236.82336 333.42036 236.82336 331.5205 C 236.82336 329.0507 238.15326 328.29074 239.1032 330.2856 C 239.48316 330.95054 239.48316 330.57057 239.29318 329.33567 C 238.9132 327.5308 239.19818 327.24582 240.90805 327.8158 C 242.61792 328.29074 242.8079 328.19575 241.85798 327.15083 C 240.05312 325.25098 240.3381 324.39604 242.9029 324.39604 C 244.2328 324.39604 245.94267 325.34597 246.7026 326.4859 C 247.55755 327.6258 248.2225 328.19575 248.2225 327.6258 C 248.2225 327.15083 247.55755 325.72594 246.7026 324.49103 C 245.18273 322.3062 245.18273 322.3062 247.27257 323.4461 C 248.50748 324.11106 250.50233 325.72594 251.73723 327.15083 Z"/>
            </g>
            <g>
               <path d="M 226.84912 326.4859 L 226.18417 328.6707 L 227.79905 326.4859 C 228.65398 325.34597 230.17387 324.39604 231.31378 324.39604 C 232.92866 324.39604 233.02365 324.58603 232.07372 325.82093 C 231.40877 326.58087 231.31378 327.24582 231.88374 327.24582 C 232.3587 327.24582 233.30863 326.58087 233.97358 325.82093 C 235.68345 323.7311 238.15326 323.92108 237.29833 326.0109 C 234.63853 332.47043 234.54354 332.9454 235.68345 335.98516 C 236.2534 337.60004 236.53838 339.2149 236.1584 339.4999 C 235.87344 339.78487 235.39847 339.5949 235.20849 339.02493 C 235.0185 338.45497 234.16356 337.12508 233.40362 336.17515 C 232.07372 334.46528 231.97873 334.46528 232.5487 336.46013 C 233.40362 339.4999 231.31378 339.2149 230.17387 336.27014 C 228.93896 333.0404 227.89404 333.23037 228.65398 336.46013 C 229.22394 339.02493 229.22394 339.02493 227.79905 337.31506 C 226.46915 335.6052 226.37416 335.6052 226.37416 337.12508 C 226.37416 337.98 225.99418 338.45497 225.42423 338.17 C 224.3793 337.50505 224.09433 328.38574 225.04426 325.91592 C 225.99418 323.5411 227.51407 324.11106 226.84912 326.4859 Z"/>
            </g>
            <g>
               <path d="M 247.74753 337.79002 C 248.98244 339.02493 247.0826 341.8747 244.70777 342.2547 C 242.61792 342.53966 237.7733 339.11992 237.7733 337.31506 C 237.7733 335.89017 246.13266 336.36513 247.74753 337.79002 Z"/>
            </g>
            <g>
               <g  id="outline-1">
                  <path 
                        d="M 213.07516 91.18872 C 213.07516 92.51862 213.45513 93.56354 213.9301 93.56354 C 214.31007 93.56354 214.50006 92.51862 214.21508 91.18872 C 214.0251 89.85882 213.64512 88.8139 213.45513 88.8139 C 213.26515 88.8139 213.07516 89.85882 213.07516 91.18872 Z"
                        fill="black"/>
               </g>
            </g>
            <g>
               <g  id="outline-2">
                  <path 
                        d="M 167.95358 99.26311 C 168.23856 99.73807 168.71353 100.21303 168.9985 100.21303 C 169.1885 100.21303 169.37848 99.73807 169.37848 99.26311 C 169.37848 98.69315 168.90351 98.31318 168.33355 98.31318 C 167.8586 98.31318 167.6686 98.69315 167.95358 99.26311 Z"
                        fill="black"/>
               </g>
            </g>
            <g>
               <g  id="outline-3">
                  <path 
                        d="M 231.50377 114.27197 C 231.88374 114.93692 233.02365 120.16152 234.06857 126.05108 C 235.87344 136.3103 237.5833 142.00987 236.2534 133.46051 C 234.73352 122.72633 232.92866 114.93692 231.97873 114.08198 C 231.1238 113.32204 231.0288 113.32204 231.50377 114.27197 Z"
                        fill="black"/>
               </g>
            </g>
            <g>
               <g  id="outline-4">
                  <path 
                        d="M 243.66284 116.36181 C 243.66284 117.69171 243.85283 118.16667 244.1378 117.50172 C 244.3278 116.93177 244.3278 115.79185 244.1378 115.1269 C 243.85283 114.55695 243.66284 115.03191 243.66284 116.36181 Z"
                        fill="black"/>
               </g>
            </g>
            <g>
               <g  id="outline-5">
                  <path 
                        d="M 244.61277 121.58641 C 244.61277 123.1063 244.80276 123.67626 245.08774 122.72633 C 245.27772 121.87139 245.27772 120.5415 245.08774 119.87654 C 244.80276 119.30659 244.61277 119.97154 244.61277 121.58641 Z"
                        fill="black"/>
               </g>
            </g>
            <g>
               <g  id="outline-6">
                  <path 
                        d="M 153.70466 122.15637 C 153.3247 122.72633 153.2297 123.29628 153.51468 123.58126 C 153.70466 123.86624 154.17963 123.39128 154.4646 122.53634 C 155.12956 120.92146 154.5596 120.63649 153.70466 122.15637 Z"
                        fill="black"/>
               </g>
            </g>
            <g>
               <g  id="outline-7">
                  <path 
                        d="M 153.3247 127.38097 C 153.3247 128.4259 153.60967 128.71087 153.89465 127.95093 C 154.17963 127.28598 154.08464 126.43105 153.79966 126.14607 C 153.51468 125.7661 153.2297 126.33605 153.3247 127.38097 Z"
                        fill="black"/>
               </g>
            </g>
            <g>
               <g  id="outline-8">
                  <path 
                        d="M 164.81882 138.68512 C 164.81882 140.205 165.0088 140.77496 165.29379 139.82503 C 165.48377 138.9701 165.48377 137.6402 165.29379 136.97525 C 165.0088 136.40529 164.81882 137.07024 164.81882 138.68512 Z"
                        fill="black"/>
               </g>
            </g>
            <g>
               <g  id="outline-9">
                  <path 
                        d="M 185.14728 141.72489 C 184.00737 147.51945 181.72754 163.00327 181.82253 164.52316 C 181.91753 165.47309 182.96245 160.24848 184.19735 152.93404 C 185.33727 145.6196 186.1922 139.54005 186.00222 139.35007 C 185.81223 139.16008 185.43226 140.205 185.14728 141.72489 Z"
                        fill="black"/>
               </g>
            </g>
            <g>
               <g  id="outline-10">
                  <path 
                        d="M 234.54354 149.32431 C 234.16356 154.45392 233.6886 159.86851 233.40362 161.48339 C 233.11864 163.66822 233.21364 163.9532 233.8786 162.43332 C 234.73352 160.34348 236.3484 140.11001 235.58846 140.11001 C 235.39847 140.11001 234.82851 144.2897 234.54354 149.32431 Z"
                        fill="black"/>
               </g>
            </g>
            <g>
               <g  id="outline-11">
                  <path 
                        d="M 217.06486 152.45907 C 214.97502 169.74776 210.41536 185.99153 199.68118 214.2044 C 198.0663 218.66905 195.21652 226.74344 193.41165 232.25302 C 191.6068 237.7626 188.852 245.55202 187.33211 249.6367 C 183.5324 259.70594 177.92783 281.64928 178.02282 285.544 C 178.11781 288.29878 178.3078 288.1088 178.97275 284.0241 C 179.44771 281.3643 180.49263 277.08963 181.25258 274.52482 C 182.01252 271.86502 183.72239 265.78548 185.14728 260.84586 C 186.47718 255.90623 188.37704 249.9217 189.32696 247.54687 C 190.2769 245.17205 192.17675 239.2825 193.60164 234.62784 C 195.02653 229.8782 196.92639 224.36862 197.87632 222.27878 C 201.20106 214.96434 210.51036 188.27136 213.45513 177.63217 C 216.01994 168.41786 219.0597 148.27939 218.58475 144.0997 C 218.39476 142.67482 217.7298 146.47453 217.06486 152.45907 Z"
                        fill="black"/>
               </g>
            </g>
            <g>
               <g  id="outline-12">
                  <path 
                        d="M 163.8689 151.03418 C 163.7739 155.68883 163.20394 162.33832 162.72898 165.75807 C 159.7842 185.51657 158.83428 191.21614 157.50438 195.5858 C 156.74443 198.2456 155.12956 205.08508 153.79966 210.87965 C 152.56475 216.57921 151.13986 222.1838 150.75989 223.2287 C 150.28492 224.5586 150.37992 224.8436 151.13986 224.17864 C 151.61482 223.60868 153.2297 218.47907 154.5596 212.7795 C 155.9845 206.98494 157.88435 199.10054 158.92927 195.20583 C 161.87404 183.33173 164.72383 160.43847 164.34386 151.03418 L 164.05888 142.48483 L 163.8689 151.03418 Z"
                        fill="black"/>
               </g>
            </g>
            <g>
               <g  id="outline-13">
                  <path 
                        d="M 180.9676 169.08281 C 180.9676 170.6027 181.15758 171.17266 181.44256 170.22273 C 181.63255 169.3678 181.63255 168.0379 181.44256 167.37294 C 181.15758 166.80299 180.9676 167.46794 180.9676 169.08281 Z"
                        fill="black"/>
               </g>
            </g>
            <g>
               <g  id="outline-14">
                  <path 
                        d="M 180.01767 175.25735 C 180.01767 177.0622 180.20765 177.82215 180.49263 176.87222 C 180.68262 176.01729 180.68262 174.4974 180.49263 173.54748 C 180.20765 172.69254 180.01767 173.45248 180.01767 175.25735 Z"
                        fill="black"/>
               </g>
            </g>
            <g>
               <g  id="outline-15">
                  <path 
                        d="M 243.94782 194.4459 C 243.66284 195.11084 242.8079 198.91055 242.04797 202.80526 C 240.71807 209.35976 238.8182 216.10425 231.59876 240.3274 C 222.47945 270.9151 218.77473 284.40407 216.96987 294.28332 C 215.82995 300.45785 214.97502 305.87244 215.165 306.4424 C 215.355 307.01236 216.6849 301.59777 218.10978 294.28332 C 219.53467 287.06387 222.00449 276.89964 223.52437 271.67504 C 225.04426 266.45043 228.17902 255.71625 230.55384 247.92684 C 239.29318 218.0041 241.668 209.64474 243.37787 201.57035 C 244.3278 197.0107 244.99274 193.30598 244.80276 193.30598 C 244.51778 193.30598 244.1378 193.87593 243.94782 194.4459 Z"
                        fill="black"/>
               </g>
            </g>
            <g>
               <g  id="outline-16">
                  <path 
                        d="M 144.96533 244.3171 C 142.87548 248.4018 139.74072 256.3812 138.03085 262.17576 C 136.32098 267.87532 134.61111 273.2899 134.23114 274.04986 C 133.75618 274.9048 131.57134 282.5992 129.19652 291.14856 C 124.63687 307.6773 123.02199 316.7966 124.44688 316.7966 C 125.01684 316.7966 125.39681 315.18174 125.4918 313.1869 C 125.68179 309.38718 131.47635 286.01895 133.85117 279.27446 C 134.61111 277.18462 136.79595 270.34514 138.6958 264.0756 C 140.50066 257.8061 143.73042 249.35173 145.82026 245.17205 C 147.81511 241.08736 149.335 237.57262 149.14501 237.38264 C 148.95502 237.09766 147.05517 240.23242 144.96533 244.3171 Z"
                        fill="black"/>
               </g>
            </g>
            <g>
               <g  id="outline-17">
                  <path 
                        d="M 208.32552 258.09107 C 207.09062 262.46074 204.7158 269.3952 203.00593 273.5749 C 199.77617 281.5543 195.4065 299.41293 194.1716 309.95713 C 192.8417 320.69132 193.88662 332.6604 196.54642 338.54997 C 197.78132 341.39975 199.11122 343.4896 199.3962 343.10962 C 199.68118 342.82464 198.92124 340.7348 197.78132 338.45497 C 194.74155 332.8504 194.0766 314.2318 196.45142 302.4527 C 198.63626 291.43354 202.53096 276.89964 204.14584 274.04986 C 206.61565 269.5852 212.22023 250.30166 210.98532 250.30166 C 210.79534 250.30166 209.56043 253.8164 208.32552 258.09107 Z"
                        fill="black"/>
               </g>
            </g>
            <g>
               <g  id="outline-18">
                  <path 
                        d="M 167.6686 280.50937 C 164.05888 286.39892 163.20394 289.2487 160.73413 303.49762 C 158.64429 315.8467 158.64429 330.1906 160.82912 332.37544 C 162.06403 333.61034 162.06403 332.7554 160.82912 326.3909 C 158.92927 316.03667 162.91897 291.14856 168.04858 281.83927 C 171.94328 274.9048 171.7533 273.95486 167.6686 280.50937 Z"
                        fill="black"/>
               </g>
            </g>
         </g>
      </g>
   </g>
</svg>