<?xml version="1.0" encoding="UTF-8" standalone="no"?>
<svg xmlns:dc="http://purl.org/dc/elements/1.1/"
                xmlns:cc="http://creativecommons.org/ns#"
                xmlns:rdf="http://www.w3.org/1999/02/22-rdf-syntax-ns#"
                xmlns:svg="http://www.w3.org/2000/svg"
                xmlns="http://www.w3.org/2000/svg"
                width="500"
                height="500"
                version="1.1" >
  <metadata>
    <rdf:RDF>
      <cc:Work rdf:about="">
        <dc:format>image/svg+xml</dc:format>
        <dc:type rdf:resource="http://purl.org/dc/dcmitype/StillImage"/>
        <cc:license rdf:resource=""/>
        <dc:title/>
        <dc:creator>
          <cc:Agent>
            <dc:title>(Drawshield internal)</dc:title>
          </cc:Agent>
        </dc:creator>
      </cc:Work>
    </rdf:RDF>
  </metadata>
<g  style="fill:#ffff00;fill-opacity:1;fill-rule:evenodd;stroke:#000000;stroke-width:3;stroke-linecap:butt;stroke-linejoin:miter;stroke-miterlimit:4;stroke-opacity:1;stroke-dasharray:none" id="body"><path d="M 0,250 a 250,250 0,0,1 500,0 a 250,250 0,0,1 -500,0 z M 22.5,250 a 227.5,227.5 0,0,1 455,0 a 227.5,227.5 0,0,1 -455,0 z" fill-rule="evenodd" />
<path d="M 32.142857142857,250 a 217.85714285714,217.85714285714 0,0,1 435.71428571429,0 a 217.85714285714,217.85714285714 0,0,1 -435.71428571429,0 z M 54.642857142857,250 a 195.35714285714,195.35714285714 0,0,1 390.71428571429,0 a 195.35714285714,195.35714285714 0,0,1 -390.71428571429,0 z" fill-rule="evenodd" />
<path d="M 64.285714285714,250 a 185.71428571429,185.71428571429 0,0,1 371.42857142857,0 a 185.71428571429,185.71428571429 0,0,1 -371.42857142857,0 z M 86.785714285714,250 a 163.21428571429,163.21428571429 0,0,1 326.42857142857,0 a 163.21428571429,163.21428571429 0,0,1 -326.42857142857,0 z" fill-rule="evenodd" />
<path d="M 96.428571428571,250 a 153.57142857143,153.57142857143 0,0,1 307.14285714286,0 a 153.57142857143,153.57142857143 0,0,1 -307.14285714286,0 z M 118.92857142857,250 a 131.07142857143,131.07142857143 0,0,1 262.14285714286,0 a 131.07142857143,131.07142857143 0,0,1 -262.14285714286,0 z" fill-rule="evenodd" />
<path d="M 128.57142857143,250 a 121.42857142857,121.42857142857 0,0,1 242.85714285714,0 a 121.42857142857,121.42857142857 0,0,1 -242.85714285714,0 z M 151.07142857143,250 a 98.928571428571,98.928571428571 0,0,1 197.85714285714,0 a 98.928571428571,98.928571428571 0,0,1 -197.85714285714,0 z" fill-rule="evenodd" />
<path d="M 160.71428571429,250 a 89.285714285714,89.285714285714 0,0,1 178.57142857143,0 a 89.285714285714,89.285714285714 0,0,1 -178.57142857143,0 z M 183.21428571429,250 a 66.785714285714,66.785714285714 0,0,1 133.57142857143,0 a 66.785714285714,66.785714285714 0,0,1 -133.57142857143,0 z" fill-rule="evenodd" />
<path d="M 192.85714285714,250 a 57.142857142857,57.142857142857 0,0,1 114.28571428571,0 a 57.142857142857,57.142857142857 0,0,1 -114.28571428571,0 z M 215.35714285714,250 a 34.642857142857,34.642857142857 0,0,1 69.285714285714,0 a 34.642857142857,34.642857142857 0,0,1 -69.285714285714,0 z" fill-rule="evenodd" />
</g>
</svg>
