<?xml version="1.0" encoding="UTF-8" standalone="no"?>
<!DOCTYPE svg PUBLIC "-//W3C//DTD SVG 1.1//EN" "http://www.w3.org/Graphics/SVG/1.1/DTD/svg11.dtd">
<svg xmlns:dc="http://purl.org/dc/elements/1.1/" xmlns:xl="http://www.w3.org/1999/xlink" version="1.1" xmlns="http://www.w3.org/2000/svg" viewBox="35 62 295 286" width="295" height="286">
  <defs>
    <clipPath id="artboard_clip_path">
      <path d="M 35 62 L 330 62 L 330 348 L 35 348 Z"/>
    </clipPath>
  </defs>
  <metadata> Produced by OmniGraffle 7.7.1 
    <dc:date>2018-03-13 06:46:41 +0000</dc:date><dc:title>Traceable heraldic art http://heraldicart.org/credits.html</dc:title>
  </metadata>
  <g id="Annulet_of_Rope" fill-opacity="1" stroke-dasharray="none" stroke="none" stroke-opacity="1" fill="#ffff00">
    <title>Annulet of Rope</title>
    <g id="Annulet_of_Rope: Layer 2" >
      <title>Layer 2</title>
      <g id="Group_245">
        <g id="Graphic_266">
          <title>path83</title>
          <path d="M 315.79574 160.9941 C 318.92435 152.84102 318.2175 143.71283 313.871 136.13861 C 309.52453 128.56439 302.00003 123.34851 293.38226 121.93611 C 279.4172 117.26371 264.45223 116.43477 250.05656 119.53622 C 249.93696 126.29404 252.66834 132.78989 257.58123 137.43164 C 262.49412 142.0734 269.1344 144.432 275.87457 143.92936 C 290.27878 146.59893 303.91257 152.42684 315.79574 160.9941 Z" fill="#ff0000"/>
          <path d="M 315.79574 160.9941 C 318.92435 152.84102 318.2175 143.71283 313.871 136.13861 C 309.52453 128.56439 302.00003 123.34851 293.38226 121.93611 C 279.4172 117.26371 264.45223 116.43477 250.05656 119.53622 C 249.93696 126.29404 252.66834 132.78989 257.58123 137.43164 C 262.49412 142.0734 269.1344 144.432 275.87457 143.92936 C 290.27878 146.59893 303.91257 152.42684 315.79574 160.9941 Z" stroke="#cccccc" stroke-linecap="round" stroke-linejoin="round" stroke-width="2"/>
        </g>
        <g id="Graphic_265">
          <title>path18</title>
          <path d="M 295.8973 122.44728 C 295.83535 113.71476 291.84657 105.47382 285.0361 100.00772 C 278.22562 94.54163 269.31673 92.43087 260.77776 94.26028 C 246.07066 95.00553 231.83497 99.69412 219.56345 107.83439 C 221.91787 114.16993 226.83111 119.22131 233.09896 121.75044 C 239.3668 124.27957 246.4099 124.05268 252.50195 121.12536 C 266.88714 118.35512 281.70742 118.80658 295.8973 122.44728 Z" fill="#ff0000"/>
          <path d="M 295.8973 122.44728 C 295.83535 113.71476 291.84657 105.47382 285.0361 100.00772 C 278.22562 94.54163 269.31673 92.43087 260.77776 94.26028 C 246.07066 95.00553 231.83497 99.69412 219.56345 107.83439 C 221.91787 114.16993 226.83111 119.22131 233.09896 121.75044 C 239.3668 124.27957 246.4099 124.05268 252.50195 121.12536 C 266.88714 118.35512 281.70742 118.80658 295.8973 122.44728 Z" stroke="#cccccc" stroke-linecap="round" stroke-linejoin="round" stroke-width="2"/>
        </g>
        <g id="Graphic_264">
          <title>path23</title>
          <path d="M 265.57833 93.41468 C 262.63363 85.1934 256.14526 78.73395 247.9109 75.826 C 239.67655 72.91805 230.5707 73.870435 223.11626 78.41928 C 209.482 83.98356 197.59599 93.11375 188.70458 104.85246 C 193.02068 110.05378 199.32736 113.19738 206.07887 113.51277 C 212.8304 113.82815 219.40266 111.28616 224.18484 106.50985 C 236.84598 99.14078 250.9826 94.66855 265.57833 93.41468 Z" fill="#ff0000"/>
          <path d="M 265.57833 93.41468 C 262.63363 85.1934 256.14526 78.73395 247.9109 75.826 C 239.67655 72.91805 230.5707 73.870435 223.11626 78.41928 C 209.482 83.98356 197.59599 93.11375 188.70458 104.85246 C 193.02068 110.05378 199.32736 113.19738 206.07887 113.51277 C 212.8304 113.82815 219.40266 111.28616 224.18484 106.50985 C 236.84598 99.14078 250.9826 94.66855 265.57833 93.41468 Z" stroke="#cccccc" stroke-linecap="round" stroke-linejoin="round" stroke-width="2"/>
        </g>
        <g id="Graphic_263">
          <title>path28</title>
          <path d="M 227.24017 76.25705 C 221.94744 69.31099 213.80964 65.115786 205.08146 64.83378 C 196.35327 64.55177 187.96163 68.21291 182.23156 74.802825 C 170.91798 84.22924 162.34904 96.52602 157.42327 110.40374 C 163.11006 114.05654 170.07206 115.14603 176.6029 113.4052 C 183.13374 111.66437 188.62975 107.25411 191.74386 101.25539 C 201.58416 90.40291 213.70678 81.86553 227.24017 76.25705 Z" fill="#ff0000"/>
          <path d="M 227.24017 76.25705 C 221.94744 69.31099 213.80964 65.115786 205.08146 64.83378 C 196.35327 64.55177 187.96163 68.21291 182.23156 74.802825 C 170.91798 84.22924 162.34904 96.52602 157.42327 110.40374 C 163.11006 114.05654 170.07206 115.14603 176.6029 113.4052 C 183.13374 111.66437 188.62975 107.25411 191.74386 101.25539 C 201.58416 90.40291 213.70678 81.86553 227.24017 76.25705 Z" stroke="#cccccc" stroke-linecap="round" stroke-linejoin="round" stroke-width="2"/>
        </g>
        <g id="Graphic_262">
          <title>path33</title>
          <path d="M 188.72222 68.93713 C 181.77496 63.64598 172.81528 61.76245 164.32559 63.80839 C 155.8359 65.854335 148.7178 71.61247 144.94345 79.48744 C 136.53932 91.57979 131.54353 105.71059 130.47994 120.3981 C 136.93256 122.40959 143.93391 121.61117 149.76798 118.19853 C 155.60205 114.7859 159.72955 109.0745 161.13886 102.46418 C 167.7439 89.3882 177.16411 77.93812 188.72222 68.93713 Z" fill="#ff0000"/>
          <path d="M 188.72222 68.93713 C 181.77496 63.64598 172.81528 61.76245 164.32559 63.80839 C 155.8359 65.854335 148.7178 71.61247 144.94345 79.48744 C 136.53932 91.57979 131.54353 105.71059 130.47994 120.3981 C 136.93256 122.40959 143.93391 121.61117 149.76798 118.19853 C 155.60205 114.7859 159.72955 109.0745 161.13886 102.46418 C 167.7439 89.3882 177.16411 77.93812 188.72222 68.93713 Z" stroke="#cccccc" stroke-linecap="round" stroke-linejoin="round" stroke-width="2"/>
        </g>
        <g id="Graphic_261">
          <title>path38</title>
          <path d="M 147.94253 74.9894 C 139.74132 71.98924 130.62536 72.83939 123.12034 77.304305 C 115.61532 81.76922 110.51828 89.37472 109.24142 98.01361 C 104.78895 112.05034 104.19517 127.02648 107.52235 141.37167 C 114.28122 141.3851 120.73336 138.55203 125.29737 133.56683 C 129.86139 128.58163 132.1154 121.90512 131.50695 115.17368 C 133.94994 100.72932 139.56298 87.00567 147.94253 74.9894 Z" fill="#ff0000"/>
          <path d="M 147.94253 74.9894 C 139.74132 71.98924 130.62536 72.83939 123.12034 77.304305 C 115.61532 81.76922 110.51828 89.37472 109.24142 98.01361 C 104.78895 112.05034 104.19517 127.02648 107.52235 141.37167 C 114.28122 141.3851 120.73336 138.55203 125.29737 133.56683 C 129.86139 128.58163 132.1154 121.90512 131.50695 115.17368 C 133.94994 100.72932 139.56298 87.00567 147.94253 74.9894 Z" stroke="#cccccc" stroke-linecap="round" stroke-linejoin="round" stroke-width="2"/>
        </g>
        <g id="Graphic_260">
          <title>path43</title>
          <path d="M 114.32676 321.10855 C 117.214 329.3502 123.65711 335.8548 131.87097 338.82015 C 140.08482 341.7855 149.1971 340.89672 156.68312 336.40003 C 170.3559 330.93106 182.30535 321.88408 191.27849 310.20773 C 186.9988 304.9764 180.71423 301.78885 173.96508 301.42634 C 167.21593 301.06383 160.62607 303.55987 155.81067 308.3027 C 143.09839 315.5832 128.9309 319.9566 114.32676 321.10855 Z" fill="#ff0000"/>
          <path d="M 114.32676 321.10855 C 117.214 329.3502 123.65711 335.8548 131.87097 338.82015 C 140.08482 341.7855 149.1971 340.89672 156.68312 336.40003 C 170.3559 330.93106 182.30535 321.88408 191.27849 310.20773 C 186.9988 304.9764 180.71423 301.78885 173.96508 301.42634 C 167.21593 301.06383 160.62607 303.55987 155.81067 308.3027 C 143.09839 315.5832 128.9309 319.9566 114.32676 321.10855 Z" stroke="#cccccc" stroke-linecap="round" stroke-linejoin="round" stroke-width="2"/>
        </g>
        <g id="Graphic_259">
          <title>path48</title>
          <path d="M 157.39812 336.32125 C 163.09348 342.9412 171.46576 346.6464 180.1953 346.41026 C 188.92485 346.17414 197.0846 342.02177 202.41375 335.10362 C 213.14837 325.02283 220.97295 312.2395 225.067 298.09408 C 219.1736 294.78498 212.15925 294.1103 205.74314 296.23538 C 199.32704 298.36047 194.10226 303.0889 191.34939 309.26176 C 182.17003 320.67873 170.57507 329.92002 157.39812 336.32125 Z" fill="#ff0000"/>
          <path d="M 157.39812 336.32125 C 163.09348 342.9412 171.46576 346.6464 180.1953 346.41026 C 188.92485 346.17414 197.0846 342.02177 202.41375 335.10362 C 213.14837 325.02283 220.97295 312.2395 225.067 298.09408 C 219.1736 294.78498 212.15925 294.1103 205.74314 296.23538 C 199.32704 298.36047 194.10226 303.0889 191.34939 309.26176 C 182.17003 320.67873 170.57507 329.92002 157.39812 336.32125 Z" stroke="#cccccc" stroke-linecap="round" stroke-linejoin="round" stroke-width="2"/>
        </g>
        <g id="Graphic_258">
          <title>path53</title>
          <path d="M 196.8617 341.1997 C 204.42496 345.56522 213.55134 346.29503 221.71226 343.18693 C 229.87317 340.07883 236.20192 333.4629 238.94504 325.1722 C 245.74454 312.11 248.9043 297.45894 248.09302 282.75533 C 241.4371 281.58005 234.59396 283.26162 229.2408 287.3879 C 223.88765 291.51418 220.51932 297.70375 219.96138 304.43955 C 215.07136 318.2488 207.1824 330.80305 196.8617 341.1997 Z" fill="#ff0000"/>
          <path d="M 196.8617 341.1997 C 204.42496 345.56522 213.55134 346.29503 221.71226 343.18693 C 229.87317 340.07883 236.20192 333.4629 238.94504 325.1722 C 245.74454 312.11 248.9043 297.45894 248.09302 282.75533 C 241.4371 281.58005 234.59396 283.26162 229.2408 287.3879 C 223.88765 291.51418 220.51932 297.70375 219.96138 304.43955 C 215.07136 318.2488 207.1824 330.80305 196.8617 341.1997 Z" stroke="#cccccc" stroke-linecap="round" stroke-linejoin="round" stroke-width="2"/>
        </g>
        <g id="Graphic_257">
          <title>path58</title>
          <path d="M 237.30105 329.10097 C 245.8303 330.97523 254.75014 328.91133 261.58926 323.4811 C 268.42837 318.0509 272.4604 309.83102 272.56827 301.09895 C 275.09987 286.5922 273.6817 271.67155 268.46246 257.9015 C 261.76274 258.7938 255.74836 262.46582 251.89345 268.01758 C 248.03854 273.56934 246.6994 280.48766 248.2043 287.07688 C 247.71868 301.71832 243.99503 316.0703 237.30105 329.10097 Z" fill="#ff0000"/>
          <path d="M 237.30105 329.10097 C 245.8303 330.97523 254.75014 328.91133 261.58926 323.4811 C 268.42837 318.0509 272.4604 309.83102 272.56827 301.09895 C 275.09987 286.5922 273.6817 271.67155 268.46246 257.9015 C 261.76274 258.7938 255.74836 262.46582 251.89345 268.01758 C 248.03854 273.56934 246.6994 280.48766 248.2043 287.07688 C 247.71868 301.71832 243.99503 316.0703 237.30105 329.10097 Z" stroke="#cccccc" stroke-linecap="round" stroke-linejoin="round" stroke-width="2"/>
        </g>
        <g id="Graphic_256">
          <title>path63</title>
          <path d="M 271.4112 309.77082 C 280.1319 309.3128 288.18342 304.95428 293.33494 297.90286 C 298.48647 290.85143 300.1909 281.85597 297.97604 273.40878 C 296.5644 258.75062 291.23487 244.74228 282.5463 232.85265 C 276.3241 235.49205 271.5008 240.62938 269.2586 247.0055 C 267.0164 253.38163 267.56254 260.40717 270.7632 266.36017 C 274.18314 280.60488 274.40444 295.4304 271.4112 309.77082 Z" fill="#ff0000"/>
          <path d="M 271.4112 309.77082 C 280.1319 309.3128 288.18342 304.95428 293.33494 297.90286 C 298.48647 290.85143 300.1909 281.85597 297.97604 273.40878 C 296.5644 258.75062 291.23487 244.74228 282.5463 232.85265 C 276.3241 235.49205 271.5008 240.62938 269.2586 247.0055 C 267.0164 253.38163 267.56254 260.40717 270.7632 266.36017 C 274.18314 280.60488 274.40444 295.4304 271.4112 309.77082 Z" stroke="#cccccc" stroke-linecap="round" stroke-linejoin="round" stroke-width="2"/>
        </g>
        <g id="Graphic_255">
          <title>path68</title>
          <path d="M 298.59812 278.77867 C 306.7934 275.76234 313.19598 269.21785 316.03196 260.95843 C 318.86794 252.699 317.83613 243.60182 313.2224 236.18735 C 307.53935 222.60217 298.3058 210.7963 286.48993 202.00766 C 281.32647 206.36898 278.23803 212.70286 277.98158 219.45686 C 277.72512 226.21087 280.32436 232.76071 285.14223 237.50103 C 292.6215 250.09738 297.21693 264.19443 298.59812 278.77867 Z" fill="#ff0000"/>
          <path d="M 298.59812 278.77867 C 306.7934 275.76234 313.19598 269.21785 316.03196 260.95843 C 318.86794 252.699 317.83613 243.60182 313.2224 236.18735 C 307.53935 222.60217 298.3058 210.7963 286.48993 202.00766 C 281.32647 206.36898 278.23803 212.70286 277.98158 219.45686 C 277.72512 226.21087 280.32436 232.76071 285.14223 237.50103 C 292.6215 250.09738 297.21693 264.19443 298.59812 278.77867 Z" stroke="#cccccc" stroke-linecap="round" stroke-linejoin="round" stroke-width="2"/>
        </g>
        <g id="Graphic_254">
          <title>path73</title>
          <path d="M 315.9881 241.5253 C 323.0074 236.33008 327.3158 228.25165 327.71965 219.52825 C 328.1235 210.80485 324.57988 202.36292 318.0706 196.5414 C 308.80308 185.0973 296.62714 176.3575 282.81954 171.23846 C 279.0877 176.87368 277.9011 183.8198 279.5506 190.3743 C 281.20007 196.92882 285.53315 202.48587 291.4878 205.68343 C 302.20184 215.6743 310.56913 227.91494 315.9881 241.5253 Z" fill="#ff0000"/>
          <path d="M 315.9881 241.5253 C 323.0074 236.33008 327.3158 228.25165 327.71965 219.52825 C 328.1235 210.80485 324.57988 202.36292 318.0706 196.5414 C 308.80308 185.0973 296.62714 176.3575 282.81954 171.23846 C 279.0877 176.87368 277.9011 183.8198 279.5506 190.3743 C 281.20007 196.92882 285.53315 202.48587 291.4878 205.68343 C 302.20184 215.6743 310.56913 227.91494 315.9881 241.5253 Z" stroke="#cccccc" stroke-linecap="round" stroke-linejoin="round" stroke-width="2"/>
        </g>
        <g id="Graphic_253">
          <title>path78</title>
          <path d="M 322.68514 202.16541 C 327.92766 195.18138 329.7486 186.20877 327.64343 177.73357 C 325.53827 169.25837 319.7306 162.18064 311.82946 158.46136 C 299.67873 150.14186 285.5134 145.24484 270.8188 144.2838 C 268.85243 150.75032 269.6997 157.74593 273.153 163.55603 C 276.60627 169.36613 282.34635 173.45366 288.96634 174.81678 C 302.0881 181.33038 313.60368 190.67042 322.68514 202.16541 Z" fill="#ff0000"/>
          <path d="M 322.68514 202.16541 C 327.92766 195.18138 329.7486 186.20877 327.64343 177.73357 C 325.53827 169.25837 319.7306 162.18064 311.82946 158.46136 C 299.67873 150.14186 285.5134 145.24484 270.8188 144.2838 C 268.85243 150.75032 269.6997 157.74593 273.153 163.55603 C 276.60627 169.36613 282.34635 173.45366 288.96634 174.81678 C 302.0881 181.33038 313.60368 190.67042 322.68514 202.16541 Z" stroke="#cccccc" stroke-linecap="round" stroke-linejoin="round" stroke-width="2"/>
        </g>
        <g id="Graphic_252">
          <title>path88</title>
          <path d="M 110.81739 90.73959 C 102.10378 90.16183 93.59284 93.53635 87.64264 99.92821 C 81.69243 106.32007 78.93488 115.05044 80.13399 123.70046 C 79.80012 138.42265 83.43352 152.96349 90.65318 165.79824 C 97.14415 163.91414 102.5418 159.38404 105.52318 153.31826 C 108.50457 147.25247 108.7941 140.21169 106.32083 133.9216 C 104.61157 119.37216 106.14722 104.62473 110.81739 90.73959 Z" fill="#ff0000"/>
          <path d="M 110.81739 90.73959 C 102.10378 90.16183 93.59284 93.53635 87.64264 99.92821 C 81.69243 106.32007 78.93488 115.05044 80.13399 123.70046 C 79.80012 138.42265 83.43352 152.96349 90.65318 165.79824 C 97.14415 163.91414 102.5418 159.38404 105.52318 153.31826 C 108.50457 147.25247 108.7941 140.21169 106.32083 133.9216 C 104.61157 119.37216 106.14722 104.62473 110.81739 90.73959 Z" stroke="#cccccc" stroke-linecap="round" stroke-linejoin="round" stroke-width="2"/>
        </g>
        <g id="Graphic_251">
          <title>path93</title>
          <path d="M 80.019365 117.84042 C 71.50386 119.77612 64.3117 125.44148 60.43556 133.26684 C 56.55943 141.0922 56.410966 150.24652 60.03131 158.19346 C 63.91732 172.39745 71.55343 185.29424 82.13894 195.5315 C 87.82111 191.87154 91.6996 185.9882 92.82381 179.32347 C 93.94801 172.65874 92.21401 165.82868 88.04681 160.50733 C 82.25218 147.05259 79.510665 132.48108 80.019365 117.84042 Z" fill="#ff0000"/>
          <path d="M 80.019365 117.84042 C 71.50386 119.77612 64.3117 125.44148 60.43556 133.26684 C 56.55943 141.0922 56.410966 150.24652 60.03131 158.19346 C 63.91732 172.39745 71.55343 185.29424 82.13894 195.5315 C 87.82111 191.87154 91.6996 185.9882 92.82381 179.32347 C 93.94801 172.65874 92.21401 165.82868 88.04681 160.50733 C 82.25218 147.05259 79.510665 132.48108 80.019365 117.84042 Z" stroke="#cccccc" stroke-linecap="round" stroke-linejoin="round" stroke-width="2"/>
        </g>
        <g id="Graphic_250">
          <title>path98</title>
          <path d="M 57.10216 144.79157 C 49.20096 148.51069 43.39313 155.5883 41.287797 164.06346 C 39.182466 172.53862 41.00322 181.51126 46.2456 188.4954 C 53.091056 201.53358 63.31843 212.48978 75.8553 220.21514 C 80.619 215.4204 83.14366 208.84145 82.81048 202.0908 C 82.47731 195.34013 79.31711 189.04175 74.10443 184.73938 C 65.55577 172.84282 59.74919 159.19993 57.10216 144.79157 Z" fill="#ff0000"/>
          <path d="M 57.10216 144.79157 C 49.20096 148.51069 43.39313 155.5883 41.287797 164.06346 C 39.182466 172.53862 41.00322 181.51126 46.2456 188.4954 C 53.091056 201.53358 63.31843 212.48978 75.8553 220.21514 C 80.619 215.4204 83.14366 208.84145 82.81048 202.0908 C 82.47731 195.34013 79.31711 189.04175 74.10443 184.73938 C 65.55577 172.84282 59.74919 159.19993 57.10216 144.79157 Z" stroke="#cccccc" stroke-linecap="round" stroke-linejoin="round" stroke-width="2"/>
        </g>
        <g id="Graphic_249">
          <title>path103</title>
          <path d="M 43.937485 185.75786 C 37.93805 192.10353 35.11309 200.81232 36.2453 209.47136 C 37.377507 218.1304 42.34664 225.82007 49.77594 230.40987 C 60.90677 240.0514 74.42669 246.5205 88.91802 249.13883 C 91.6038 242.9365 91.55389 235.88993 88.78053 229.72626 C 86.00717 223.56258 80.76671 218.85153 74.34358 216.74776 C 62.04352 208.7906 51.6593 198.207 43.937485 185.75786 Z" fill="#ff0000"/>
          <path d="M 43.937485 185.75786 C 37.93805 192.10353 35.11309 200.81232 36.2453 209.47136 C 37.377507 218.1304 42.34664 225.82007 49.77594 230.40987 C 60.90677 240.0514 74.42669 246.5205 88.91802 249.13883 C 91.6038 242.9365 91.55389 235.88993 88.78053 229.72626 C 86.00717 223.56258 80.76671 218.85153 74.34358 216.74776 C 62.04352 208.7906 51.6593 198.207 43.937485 185.75786 Z" stroke="#cccccc" stroke-linecap="round" stroke-linejoin="round" stroke-width="2"/>
        </g>
        <g id="Graphic_248">
          <title>path108</title>
          <path d="M 45.66532 227.4327 C 42.10038 235.40464 42.312563 244.5577 46.24308 252.3559 C 50.17359 260.1541 57.405016 265.76924 65.93379 267.6456 C 79.62574 273.0664 94.52398 274.7034 109.06631 272.385 C 109.55119 265.64353 107.1751 259.00948 102.52041 254.10884 C 97.86573 249.2082 91.36271 246.49394 84.60523 246.63134 C 70.36647 243.18672 57.067796 236.63004 45.66532 227.4327 Z" fill="#ff0000"/>
          <path d="M 45.66532 227.4327 C 42.10038 235.40464 42.312563 244.5577 46.24308 252.3559 C 50.17359 260.1541 57.405016 265.76924 65.93379 267.6456 C 79.62574 273.0664 94.52398 274.7034 109.06631 272.385 C 109.55119 265.64353 107.1751 259.00948 102.52041 254.10884 C 97.86573 249.2082 91.36271 246.49394 84.60523 246.63134 C 70.36647 243.18672 57.067796 236.63004 45.66532 227.4327 Z" stroke="#cccccc" stroke-linecap="round" stroke-linejoin="round" stroke-width="2"/>
        </g>
        <g id="Graphic_247">
          <title>path113</title>
          <path d="M 84.15967 296.1957 C 84.96731 304.89103 89.64543 312.76113 96.89791 317.62552 C 104.1504 322.4899 113.20701 323.832 121.55852 321.2799 C 136.14821 319.28112 149.93138 313.3937 161.46275 304.235 C 158.57577 298.1237 153.249 293.51047 146.78803 291.52596 C 140.32706 289.54145 133.3291 290.3691 127.50935 293.8061 C 113.41336 297.79495 98.60868 298.61105 84.15967 296.1957 Z" fill="#ff0000"/>
          <path d="M 84.15967 296.1957 C 84.96731 304.89103 89.64543 312.76113 96.89791 317.62552 C 104.1504 322.4899 113.20701 323.832 121.55852 321.2799 C 136.14821 319.28112 149.93138 313.3937 161.46275 304.235 C 158.57577 298.1237 153.249 293.51047 146.78803 291.52596 C 140.32706 289.54145 133.3291 290.3691 127.50935 293.8061 C 113.41336 297.79495 98.60868 298.61105 84.15967 296.1957 Z" stroke="#cccccc" stroke-linecap="round" stroke-linejoin="round" stroke-width="2"/>
        </g>
        <g id="Graphic_246">
          <title>path118</title>
          <path d="M 59.32843 264.54943 C 57.85804 273.1575 60.339826 281.97022 66.08619 288.54594 C 71.83255 295.12166 80.23322 298.76202 88.96068 298.45842 C 103.57057 300.30385 118.40786 298.1844 131.91675 292.3223 C 130.70986 285.67204 126.7586 279.83732 121.03141 276.2482 C 115.30422 272.6591 108.33049 271.64736 101.81948 273.46096 C 87.17142 273.6656 72.65997 270.62215 59.32843 264.54943 Z" fill="#ff0000"/>
          <path d="M 59.32843 264.54943 C 57.85804 273.1575 60.339826 281.97022 66.08619 288.54594 C 71.83255 295.12166 80.23322 298.76202 88.96068 298.45842 C 103.57057 300.30385 118.40786 298.1844 131.91675 292.3223 C 130.70986 285.67204 126.7586 279.83732 121.03141 276.2482 C 115.30422 272.6591 108.33049 271.64736 101.81948 273.46096 C 87.17142 273.6656 72.65997 270.62215 59.32843 264.54943 Z" stroke="#cccccc" stroke-linecap="round" stroke-linejoin="round" stroke-width="2"/>
        </g>
      </g>
    </g>
  </g>
</svg>
