<?xml version="1.0" encoding="UTF-8" standalone="no"?>
<!DOCTYPE svg PUBLIC "-//W3C//DTD SVG 1.1//EN" "http://www.w3.org/Graphics/SVG/1.1/DTD/svg11.dtd">
<svg xmlns:dc="http://purl.org/dc/elements/1.1/" xmlns:xl="http://www.w3.org/1999/xlink" version="1.1" xmlns="http://www.w3.org/2000/svg" viewBox="33.248434 85.5 304.25157 189.1316" width="304.25157" height="189.1316">
  <defs>
    <clipPath id="artboard_clip_path">
      <path d="M 33.248434 85.5 L 337.5 85.5 L 337.5 274.6316 L 33.248434 274.6316 Z"/>
    </clipPath>
  </defs>
  <metadata> Produced by OmniGraffle 7.7.1 
    <dc:date>2018-03-18 08:21:30 +0000</dc:date><dc:title>Traceable heraldic art http://heraldicart.org/credits.html</dc:title>
  </metadata>
  <g id="Cheese,_Wedge_of" fill-opacity="1" stroke-dasharray="none" stroke="none" stroke-opacity="1" fill="#ffff00">
    <title>Cheese, Wedge of</title>
    <g id="Cheese,_Wedge_of: Layer 2" >
      <title>Layer 2</title>
      <g id="Group_3">
        <g id="Graphic_20">
          <path d="M 270.837 86.27359 C 277.3544 87.01033 284.4385 88.88054 288.859 91.03411 C 296.73653 94.8312 316.5154 108.88609 315.15523 109.73618 C 314.87187 109.9062 314.5885 111.26635 314.5885 112.68317 C 314.5885 115.06344 314.70185 115.23345 315.8353 114.89342 C 316.57206 114.7234 317.64884 114.38336 318.3289 114.21334 C 319.34903 113.98665 319.97243 114.61005 322.126 118.0671 C 327.9633 127.47481 329.8902 132.12199 333.34724 145.66682 L 335.5575 154.45112 L 335.5575 172.75648 L 335.5575 191.06184 L 334.254 191.06184 C 332.3838 191.06184 329.38014 193.10206 328.70006 194.80225 C 327.5666 197.80592 330.2869 202.2264 334.3107 203.9266 L 336.1242 204.66334 L 336.1242 239.5172 L 336.1242 274.37105 L 233.82957 274.37105 L 131.53493 274.37105 L 131.53493 272.7842 C 131.53493 271.87744 131.02488 270.63064 130.40147 269.95056 C 128.07788 267.45695 123.60072 269.10047 123.60072 272.3875 L 123.60072 273.80432 L 79.11247 273.80432 L 34.624217 273.80432 L 34.624217 228.1826 C 34.624217 189.30498 34.737563 182.5609 35.41764 182.5609 C 35.87102 182.5609 36.891134 181.76748 37.74123 180.80404 C 39.781454 178.31043 39.49809 176.21353 37.00448 175.47678 L 35.190946 174.96673 L 35.190946 164.93562 C 35.190946 157.6248 35.360965 154.79116 35.87102 154.39445 C 36.267732 154.05441 62.620646 145.15676 94.47083 134.55892 C 145.53315 117.50037 152.39057 115.3468 152.90063 116.1969 C 153.35401 116.87697 154.26078 117.10366 156.58437 117.04699 C 160.21144 116.93364 163.10175 115.63017 163.38512 113.8733 C 163.55514 112.79652 167.63559 111.49304 210.59367 99.19501 C 255.25194 86.33026 257.8589 85.70686 262.16604 85.76353 C 264.65965 85.76353 268.57008 85.99022 270.837 86.27359 Z" fill="#cccccc"/>
        </g>
        <g id="Graphic_19">
          <path d="M 213.14395 100.66851 C 188.66125 107.69595 168.08897 113.58994 167.35222 113.75996 C 166.44546 114.04332 166.10542 114.55338 166.10542 115.63017 C 166.10542 119.37058 160.7215 123.62105 156.01764 123.62105 C 153.97741 123.62105 150.80373 121.07077 150.80373 119.42725 C 150.80373 118.9172 150.46369 118.52048 150.0103 118.52048 C 149.21689 118.52048 44.14527 153.60103 43.74856 153.99774 C 43.635213 154.11109 55.76322 154.22443 70.78155 154.22443 L 98.0979 154.22443 L 98.0979 152.86428 C 98.0979 152.07086 98.49461 151.05075 98.948 150.59736 C 100.42149 149.12387 105.40871 147.99041 110.22591 147.99041 C 115.55316 147.99041 118.8402 149.29389 121.10711 152.29755 L 122.58061 154.22443 L 227.99226 154.22443 C 328.07666 154.22443 333.2252 154.64413 333.2252 154.64413 C 333.2252 154.64413 332.10044 149.63392 331.307 146.40357 C 328.19 133.93552 325.75307 127.81485 320.70918 119.82396 C 318.66895 116.53693 318.3856 116.36691 317.0821 116.8203 C 314.53183 117.84041 310.33803 117.50037 308.6945 116.1969 C 306.48427 114.4967 306.71097 112.22979 309.26125 110.13289 L 311.30147 108.4327 L 306.0309 104.4656 C 288.97234 91.88421 279.28127 88.14379 263.01613 87.97377 L 257.6322 87.9171 L 213.14395 100.66851 Z" fill="#ff0000"/>
        </g>
        <g id="Graphic_18">
          <path d="M 309.998 112.22979 C 308.9212 113.07988 308.80786 113.41992 309.3746 114.15667 C 309.7713 114.61005 310.6214 115.12011 311.18813 115.29013 C 312.15157 115.51682 312.3216 115.29013 312.3216 113.36325 C 312.3216 110.86964 311.92488 110.69962 309.998 112.22979 Z" fill="#ff0000"/>
        </g>
        <g id="Graphic_17">
          <path d="M 157.1511 118.97387 C 153.01397 119.20056 152.50392 119.42725 153.75072 120.67406 C 155.16754 122.09088 159.70138 121.07077 162.42168 118.80385 L 163.55514 117.84041 L 162.42168 118.29379 C 161.79828 118.52048 159.41801 118.80385 157.1511 118.97387 Z" fill="#ff0000"/>
        </g>
        <g id="Graphic_16">
          <path d="M 103.08246 150.91411 C 100.92889 151.59419 99.64723 152.1629 100.93992 153.91937 C 101.3794 154.43596 102.38944 155.3689 102.38944 155.3689 C 102.38944 155.3689 102.53593 155.96831 102.53593 156.8184 C 102.53593 159.31202 105.63274 164.51562 107.78631 165.93244 C 111.92344 168.70942 117.70407 167.0659 119.7443 162.53207 C 123.25802 154.88122 118.2708 149.21393 108.69308 150.00735 C 106.82287 150.17737 104.32926 150.57408 103.08246 150.91411 Z" fill="#ff0000"/>
        </g>
        <g id="Graphic_15">
          <path d="M 123.03399 157.79483 C 123.03399 160.91184 121.3338 164.87894 119.12356 166.8625 C 112.66284 172.6998 103.19847 168.7327 100.93155 159.26832 L 100.25147 156.49135 L 68.85467 156.49135 L 37.457864 156.49135 L 37.457864 164.36889 L 37.457864 172.24642 L 39.55476 172.64314 C 40.68822 172.81315 42.331736 173.7766 43.295176 174.68336 C 44.76867 176.21353 44.93869 176.66691 44.655326 179.04718 C 44.31529 182.16419 42.44508 183.97772 39.044706 184.54445 L 36.891134 184.94116 L 36.891134 228.52265 L 36.891134 272.10413 L 79.11247 272.10413 C 115.2698 272.10413 121.3338 271.9908 121.3338 271.3107 C 121.3338 269.8372 124.16745 267.06024 126.09433 266.7202 C 128.8713 266.15347 131.87497 267.62697 133.0651 270.0639 L 134.02854 272.10413 L 233.94292 272.10413 L 333.8573 272.10413 L 333.8573 239.0638 L 333.8573 206.08017 L 331.81707 204.9467 C 328.8134 203.35986 326.9432 200.5829 326.60316 197.35253 C 326.20645 193.0454 328.07666 190.60845 332.89386 189.13496 C 333.80063 188.8516 333.8573 187.6048 333.8573 173.03985 C 333.8573 164.36889 333.6873 157.05808 333.4606 156.88806 C 333.29057 156.66137 285.85533 156.49135 228.04894 156.49135 L 123.03399 156.49135 L 123.03399 157.79483 Z" fill="#ff0000"/>
        </g>
        <g id="Graphic_14">
          <path d="M 41.25495 177.17697 C 41.48164 178.48045 41.25495 179.6139 40.63155 180.57735 C 39.55476 182.22086 40.008146 182.44755 41.538315 181.03073 C 42.671774 180.01062 42.898465 176.8936 41.87835 175.8735 C 40.914913 174.91005 40.914913 174.96673 41.25495 177.17697 Z" fill="#ff0000"/>
        </g>
        <g id="Graphic_13">
          <path d="M 238.5901 123.79107 C 242.50053 125.15122 244.0307 129.68505 241.5371 132.34868 C 239.78023 134.21889 236.03982 135.12565 231.22262 134.84229 C 227.53888 134.67227 227.02882 134.50225 225.55533 132.80206 C 222.43831 129.34501 224.02516 124.9812 228.78568 123.67772 C 231.61933 122.8843 236.15316 122.94097 238.5901 123.79107 Z" fill="#cccccc"/>
        </g>
        <g id="Graphic_12">
          <path d="M 227.36886 126.68139 C 224.7619 129.06165 226.29207 132.06532 230.54254 132.97208 C 232.9228 133.42547 238.25006 132.34868 239.8369 131.0452 C 241.48042 129.74173 240.97036 127.41814 238.76012 126.17133 C 236.4932 124.86785 228.9557 125.20789 227.36886 126.68139 Z" fill="#ff0000"/>
        </g>
        <g id="Graphic_11">
          <path d="M 291.1259 181.99417 C 294.35627 183.29765 295.1497 187.6048 292.71275 190.43844 C 291.46595 191.9686 290.8992 192.1953 288.46228 192.1953 C 284.77854 192.1953 282.85166 190.4951 282.85166 187.26475 C 282.90833 182.9576 287.04546 180.35065 291.1259 181.99417 Z" fill="#cccccc"/>
        </g>
        <g id="Graphic_10">
          <path d="M 285.74198 185.22453 C 283.75843 187.71814 285.00523 190.15507 288.2356 190.15507 C 290.61585 190.15507 292.03268 188.90827 292.03268 186.7547 C 292.03268 183.58101 287.7822 182.5609 285.74198 185.22453 Z" fill="#ff0000"/>
        </g>
        <g id="Graphic_9">
          <path d="M 136.69217 195.7657 C 141.8494 199.16607 141.79273 206.76024 136.6355 210.2173 C 134.99198 211.35075 134.08521 211.52077 131.42159 211.35075 C 126.54771 211.0107 124.16745 208.17706 124.16745 202.8498 C 124.16745 196.33242 131.42159 192.25197 136.69217 195.7657 Z" fill="#cccccc"/>
        </g>
        <g id="Graphic_8">
          <path d="M 128.07788 198.37265 C 126.66106 199.78947 126.43437 200.46954 126.43437 203.0765 C 126.43437 206.70357 127.45448 208.40376 130.11811 209.1405 C 135.89875 210.72735 140.31924 205.00338 137.48559 199.56278 C 136.35213 197.4092 135.162 196.7858 132.215 196.72913 C 130.23145 196.72913 129.43803 197.06917 128.07788 198.37265 Z" fill="#ff0000"/>
        </g>
        <g id="Graphic_7">
          <path d="M 66.7011 230.67622 C 68.51463 231.46964 70.78155 234.52998 71.23493 236.68355 C 72.19837 241.95413 68.45796 246.6013 63.24405 246.6013 C 56.216604 246.6013 53.552977 237.08026 59.1636 231.92302 C 60.75044 230.44953 64.66087 229.82612 66.7011 230.67622 Z" fill="#cccccc"/>
        </g>
        <g id="Graphic_6">
          <path d="M 60.35373 233.73656 C 59.106924 234.81334 58.766886 235.66344 58.540195 238.15704 C 58.20016 242.29417 59.730326 244.3344 63.01736 244.3344 C 64.26416 244.3344 65.79433 244.05103 66.41773 243.76767 C 67.77788 243.03092 69.194706 240.31062 69.194706 238.38374 C 69.194706 236.5702 67.834555 233.79323 66.53108 233.05648 C 64.77422 232.03637 61.99724 232.3764 60.35373 233.73656 Z" fill="#ff0000"/>
        </g>
        <g id="Graphic_5">
          <path d="M 301.95044 246.37462 C 307.61773 249.1516 307.56106 258.89934 301.95044 262.18637 C 299.57018 263.6032 295.48972 263.54652 292.9961 262.1297 C 287.66886 259.01268 287.72553 249.88834 293.16613 246.6013 C 295.43305 245.24116 299.40016 245.12782 301.95044 246.37462 Z" fill="#cccccc"/>
        </g>
        <g id="Graphic_4">
          <path d="M 293.4495 248.9249 C 289.76576 251.75855 290.5025 258.89934 294.63963 260.59953 C 298.6634 262.2997 302.6305 260.37283 303.87732 256.17904 C 304.67074 253.57208 303.76397 250.51174 301.72375 248.86823 C 299.7402 247.2814 295.43305 247.33806 293.4495 248.9249 Z" fill="#ff0000"/>
        </g>
      </g>
    </g>
  </g>
</svg>
