<?xml version="1.0" encoding="UTF-8" standalone="no"?>
<svg
   version="1.1"
   viewBox="49.5 103.5 324 157.5"
   width="324"
   height="157.5"
   preserveAspectRatio="xMidYMid meet"
   zoomAndPan="magnify"
   contentScriptType="application/ecmascript"
   contentStyleType="text/css"
   id="svg277"
   xmlns="http://www.w3.org/2000/svg"
   xmlns:svg="http://www.w3.org/2000/svg"
   xmlns:rdf="http://www.w3.org/1999/02/22-rdf-syntax-ns#"
   xmlns:cc="http://creativecommons.org/ns#"
   xmlns:dc="http://purl.org/dc/elements/1.1/">
  <defs
     id="defs129" />
  <metadata
     id="metadata131">
    <rdf:RDF>
      <cc:Work
         rdf:about="">
        <dc:creator>
          <cc:Agent>
            <dc:title>http://heraldicart.org Rainbow (2).svg</dc:title>
          </cc:Agent>
        </dc:creator>
      </cc:Work>
    </rdf:RDF>
  </metadata>
  <g
     stroke="#505050"
     fill="#ffff00"
     stroke-opacity="1"
     stroke-dasharray="none"
     fill-opacity="1"
     id="g275"
     style="fill:#ffffff">
    <title
       id="title133">Rainbow (2)</title>
    <g
       id="g273"
       style="fill:#ffffff">
      <title
         id="title135">Layer 2</title>
      <g
         id="g271"
         style="fill:#ffffff">
        <g
           id="g141"
           style="fill:#ffffff">
          <path
             d="M 284.56915 237.48572 L 298.29844 237.48572 L 311.7222 237.48572 L 324.78726 237.48572 L 337.3276 237.48572 L 348.1277 237.48572 C 345.02218 164.27646 284.7675 106.5236 211.4924 106.5236 C 138.21731 106.5236 77.96262 164.27646 74.85709 237.48572 L 85.6572 237.48572 L 98.19754 237.48572 L 111.26262 237.48572 L 124.68637 237.48572 L 138.41566 237.48572 C 141.4203 199.3527 173.2412 169.94048 211.4924 169.94048 C 249.7436 169.94048 281.5645 199.3527 284.56915 237.48572 Z"
             id="path137"
             style="fill:#ffffff" />
          <path
             d="M 284.56915 237.48572 L 298.29844 237.48572 L 311.7222 237.48572 L 324.78726 237.48572 L 337.3276 237.48572 L 348.1277 237.48572 C 345.02218 164.27646 284.7675 106.5236 211.4924 106.5236 C 138.21731 106.5236 77.96262 164.27646 74.85709 237.48572 L 85.6572 237.48572 L 98.19754 237.48572 L 111.26262 237.48572 L 124.68637 237.48572 L 138.41566 237.48572 C 141.4203 199.3527 173.2412 169.94048 211.4924 169.94048 C 249.7436 169.94048 281.5645 199.3527 284.56915 237.48572 Z"
             stroke="black"
             stroke-linecap="round"
             stroke-linejoin="round"
             stroke-width="1.9926399"
             id="path139"
             style="fill:#ffffff" />
        </g>
        <g
           id="g147"
           style="fill:#ff7f29;fill-opacity:1">
          <path
             d="M 337.3276 237.48572 L 348.1277 237.48572 C 345.02218 164.27646 284.7675 106.5236 211.4924 106.5236 C 138.21731 106.5236 77.96262 164.27646 74.85709 237.48572 L 85.6572 237.48572 C 88.77789 170.25755 144.19184 117.35621 211.4924 117.35621 C 278.79296 117.35621 334.2069 170.25755 337.3276 237.48572 Z"
             id="path143"
             style="fill:#ff7f29;fill-opacity:1" />
          <path
             d="M 337.3276 237.48572 L 348.1277 237.48572 C 345.02218 164.27646 284.7675 106.5236 211.4924 106.5236 C 138.21731 106.5236 77.96262 164.27646 74.85709 237.48572 L 85.6572 237.48572 C 88.77789 170.25755 144.19184 117.35621 211.4924 117.35621 C 278.79296 117.35621 334.2069 170.25755 337.3276 237.48572 Z"
             stroke="black"
             stroke-linecap="round"
             stroke-linejoin="round"
             stroke-width=".49815996"
             id="path145"
             style="fill:#ff7f29;fill-opacity:1" />
        </g>
        <g
           id="g154"
           style="fill:#605fd3;fill-opacity:1">
          <g
             id="feature-0"
             style="fill:#605fd3;fill-opacity:1">
            <path
               d="M 324.79178 237.48572 L 337.33213 237.48572 C 334.2486 170.22792 278.82204 117.28422 211.4936 117.28422 C 144.16516 117.28422 88.73858 170.22792 85.65507 237.48572 L 98.19542 237.48572 C 101.24747 177.1371 151.06785 129.77264 211.4936 129.77264 C 271.91934 129.77264 321.73973 177.1371 324.79178 237.48572 Z"
               fill="#ff0000"
               id="path149"
               style="fill:#605fd3;fill-opacity:1" />
          </g>
          <path
             d="M 324.79178 237.48572 L 337.33213 237.48572 C 334.2486 170.22792 278.82204 117.28422 211.4936 117.28422 C 144.16516 117.28422 88.73858 170.22792 85.65507 237.48572 L 98.19542 237.48572 C 101.24747 177.1371 151.06785 129.77264 211.4936 129.77264 C 271.91934 129.77264 321.73973 177.1371 324.79178 237.48572 Z"
             stroke="black"
             stroke-linecap="round"
             stroke-linejoin="round"
             stroke-width=".49815996"
             id="path152"
             style="fill:#605fd3;fill-opacity:1" />
        </g>
        <g
           id="g160"
           style="fill:#f4eed7;fill-opacity:1">
          <path
             d="M 311.7218 237.48572 L 324.78686 237.48572 C 321.70133 177.1641 271.89248 129.83793 211.492 129.83793 C 151.09153 129.83793 101.28268 177.1641 98.19714 237.48572 L 111.26886 237.48572 C 114.33933 184.3794 158.30031 142.88671 211.49532 142.88671 C 264.69034 142.88671 308.6513 184.3794 311.7218 237.48572 Z"
             id="path156"
             style="fill:#f4eed7;fill-opacity:1" />
          <path
             d="M 311.7218 237.48572 L 324.78686 237.48572 C 321.70133 177.1641 271.89248 129.83793 211.492 129.83793 C 151.09153 129.83793 101.28268 177.1641 98.19714 237.48572 L 111.26886 237.48572 C 114.33933 184.3794 158.30031 142.88671 211.49532 142.88671 C 264.69034 142.88671 308.6513 184.3794 311.7218 237.48572 Z"
             stroke="black"
             stroke-linecap="round"
             stroke-linejoin="round"
             stroke-width=".49815996"
             id="path158"
             style="fill:#f4eed7;fill-opacity:1" />
        </g>
        <g
           id="g167"
           style="fill:#008001;fill-opacity:1">
          <g
             id="feature-1"
             style="fill:#008001;fill-opacity:1">
            <path
               d="M 298.2949 237.48572 L 311.71867 237.48572 C 308.6482 184.3794 264.6872 142.88671 211.4922 142.88671 C 158.2972 142.88671 114.33621 184.3794 111.26574 237.48572 L 124.68949 237.48572 C 127.7406 191.7907 165.69545 156.28565 211.4922 156.28565 C 257.28896 156.28565 295.2438 191.7907 298.2949 237.48572 Z"
               fill="#ff0000"
               id="path162"
               style="fill:#008001;fill-opacity:1" />
          </g>
          <path
             d="M 298.2949 237.48572 L 311.71867 237.48572 C 308.6482 184.3794 264.6872 142.88671 211.4922 142.88671 C 158.2972 142.88671 114.33621 184.3794 111.26574 237.48572 L 124.68949 237.48572 C 127.7406 191.7907 165.69545 156.28565 211.4922 156.28565 C 257.28896 156.28565 295.2438 191.7907 298.2949 237.48572 Z"
             stroke="black"
             stroke-linecap="round"
             stroke-linejoin="round"
             stroke-width=".49815996"
             id="path165"
             style="fill:#008001;fill-opacity:1" />
        </g>
        <g
           id="g173"
           style="fill:#ff292a;fill-opacity:1">
          <path
             d="M 284.56496 237.48572 L 298.29425 237.48572 C 295.24313 191.7907 257.2883 156.28565 211.49154 156.28565 C 165.69478 156.28565 127.73994 191.7907 124.68883 237.48572 L 138.41811 237.48572 C 141.4434 199.37058 173.25653 169.98247 211.49154 169.98247 C 249.72655 169.98247 281.53968 199.37058 284.56496 237.48572 Z"
             id="path169"
             style="fill:#ff292a;fill-opacity:1" />
          <path
             d="M 284.56496 237.48572 L 298.29425 237.48572 C 295.24313 191.7907 257.2883 156.28565 211.49154 156.28565 C 165.69478 156.28565 127.73994 191.7907 124.68883 237.48572 L 138.41811 237.48572 C 141.4434 199.37058 173.25653 169.98247 211.49154 169.98247 C 249.72655 169.98247 281.53968 199.37058 284.56496 237.48572 Z"
             stroke="black"
             stroke-linecap="round"
             stroke-linejoin="round"
             stroke-width=".49815996"
             id="path171"
             style="fill:#ff292a;fill-opacity:1" />
        </g>
        <g
           id="g179"
           style="fill:#ffffff">
          <path
             d="M 51.807026 245.3209 C 53.284144 246.23565 55.178656 246.1139 56.52654 245.01762 C 57.874425 243.92134 58.379575 242.09136 57.784946 240.45887 C 56.866665 237.8229 57.685586 234.89389 59.83783 233.1164 C 61.99007 231.3389 65.021066 231.08836 67.435965 232.4883 C 68.56944 233.65695 69.52101 234.98916 70.25887 236.44038 C 69.58989 234.97625 68.61882 233.67017 67.4094 232.60787 C 65.79888 230.19773 65.72825 227.07342 67.228194 224.59296 C 68.72814 222.1125 71.52777 220.72386 74.4102 221.03063 C 72.89235 218.84062 72.86091 215.9471 74.33082 213.72461 C 75.80073 211.50214 78.47575 210.39862 81.08512 210.93828 C 83.69448 211.47794 85.71232 213.55202 86.18006 216.17523 C 86.67669 214.59322 88.08547 213.4722 89.73861 213.34358 C 91.39174 213.21495 92.95696 214.10457 93.69232 215.59072 C 94.23458 218.60685 94.87701 221.6041 95.61853 224.57753 C 94.87772 221.58282 94.25289 218.56061 93.74545 215.51766 C 93.3713 212.18843 94.9819 208.9487 97.86197 207.23728 C 100.74203 205.52585 104.35753 205.66007 107.10278 207.5803 C 106.49269 205.66374 107.09526 203.5683 108.63024 202.26858 C 110.16522 200.96885 112.33131 200.71994 114.1211 201.63762 C 115.91088 202.5553 116.97304 204.45943 116.81358 206.46443 C 119.43562 205.22467 122.51082 205.41958 124.95536 206.98046 C 127.3999 208.54135 128.87059 211.2491 128.84913 214.14938 C 127.99786 217.86856 127.33502 221.62837 126.86313 225.41444 C 127.41649 221.66258 128.06986 217.92616 128.82256 214.20916 C 129.83417 212.7887 131.55764 212.05652 133.2823 212.31452 C 135.00698 212.57252 136.44073 213.777 136.99238 215.4313 C 137.923 213.36662 139.95373 212.0172 142.21772 211.95908 C 144.4817 211.90096 146.579 213.14442 147.61432 215.15865 C 148.64964 217.17287 148.4401 219.60205 147.07514 221.40923 C 149.63772 221.15616 152.16334 222.16485 153.84655 224.1136 C 155.52975 226.06238 156.16034 228.70786 155.53721 231.20638 C 153.91877 232.34047 152.8511 234.10223 152.59475 236.06178 C 152.7668 234.025 153.89257 232.1898 155.6302 231.1134 C 158.1168 230.47877 160.75571 231.14182 162.64702 232.87642 C 164.53833 234.611 165.4266 237.18288 165.0089 239.71495 C 164.25361 241.24064 164.38773 243.05635 165.35898 244.45452 C 166.33023 245.85268 167.98496 246.61208 169.67832 246.4368 C 170.00817 247.6946 169.6213 249.03198 168.67085 249.91942 C 167.7204 250.80686 166.35967 251.10125 165.1274 250.68603 C 163.89513 250.2708 162.99005 249.21294 162.7705 247.93127 L 160.90406 243.44783 C 160.35451 243.58978 159.88572 243.9479 159.60425 244.44078 C 159.32279 244.93365 159.25258 245.5194 159.40958 246.06483 C 160.8332 248.41732 161.42503 251.17996 161.09004 253.9092 C 161.59557 254.97634 161.3901 256.24478 160.57353 257.09777 C 159.75697 257.95077 158.4987 258.21136 157.41051 257.75286 C 156.32232 257.29435 155.62996 256.21187 155.67006 255.0317 C 154.29493 257.11497 151.51251 257.72712 149.39001 256.41337 C 147.26751 255.0996 146.57443 252.33624 147.8257 250.1763 C 147.0402 251.04843 145.88202 251.48774 144.71574 251.35596 C 143.54945 251.22417 142.5185 250.5375 141.94741 249.5121 C 141.41672 245.89418 141.15033 242.2424 141.15036 238.5858 C 141.21873 242.2381 141.46923 245.88474 141.90092 249.5121 C 141.11689 251.44178 139.30123 252.75555 137.22315 252.89682 C 135.14507 253.0381 133.1683 251.98213 132.13034 250.1763 C 131.81616 252.71226 130.05416 254.83315 127.61875 255.6068 C 125.18334 256.38047 122.52039 255.66526 120.8003 253.77553 C 119.08022 251.8858 118.61791 249.1675 119.61656 246.8154 C 116.68932 247.97826 113.36708 246.61235 112.10431 243.7268 C 111.95971 240.60916 111.7715 237.4937 111.53973 234.38132 C 111.81518 237.4561 111.97249 240.54032 112.01132 243.62717 C 111.55714 245.37496 110.34542 246.8282 108.70775 247.5892 C 107.07009 248.35017 105.17798 248.3392 103.54924 247.5593 C 104.01152 251.0933 101.60136 254.36196 98.08863 254.96496 C 94.5759 255.56795 91.21364 253.2902 90.47088 249.80435 C 89.64124 251.2831 88.00251 252.11644 86.31885 251.9158 C 84.63518 251.71516 83.23818 250.52003 82.77929 248.88774 C 82.3167 245.68018 81.90926 242.4649 81.55714 239.24336 C 81.83931 242.45215 82.15151 245.65822 82.49368 248.86117 C 81.95444 250.12178 80.85593 251.05708 79.52546 251.3884 C 78.19499 251.7197 76.786145 251.40878 75.718705 250.54827 C 76.6468 252.71626 75.64166 255.22614 73.47366 256.15423 C 71.30567 257.08232 68.795796 256.07718 67.8677 253.9092 C 67.701194 255.2865 66.70671 256.42056 65.36293 256.7655 C 64.01916 257.11044 62.6014 256.5956 61.79209 255.46877 C 60.982784 254.34194 60.94773 252.834 61.703804 251.6708 L 64.506784 246.06483 C 64.60466 245.3818 64.31998 244.70012 63.765394 244.28957 C 63.21081 243.87903 62.47572 243.80578 61.85103 244.09882 C 61.22634 244.39186 60.812735 245.00395 60.773906 245.69287 C 60.906015 247.42914 60.02865 249.08682 58.51863 249.95396 C 57.008604 250.8211 55.13467 250.74337 53.70165 249.75415 C 52.26863 248.76493 51.53157 247.04028 51.807026 245.3209 Z"
             id="path175"
             style="fill:#ffffff" />
          <path
             d="M 51.807026 245.3209 C 53.284144 246.23565 55.178656 246.1139 56.52654 245.01762 C 57.874425 243.92134 58.379575 242.09136 57.784946 240.45887 C 56.866665 237.8229 57.685586 234.89389 59.83783 233.1164 C 61.99007 231.3389 65.021066 231.08836 67.435965 232.4883 C 68.56944 233.65695 69.52101 234.98916 70.25887 236.44038 C 69.58989 234.97625 68.61882 233.67017 67.4094 232.60787 C 65.79888 230.19773 65.72825 227.07342 67.228194 224.59296 C 68.72814 222.1125 71.52777 220.72386 74.4102 221.03063 C 72.89235 218.84062 72.86091 215.9471 74.33082 213.72461 C 75.80073 211.50214 78.47575 210.39862 81.08512 210.93828 C 83.69448 211.47794 85.71232 213.55202 86.18006 216.17523 C 86.67669 214.59322 88.08547 213.4722 89.73861 213.34358 C 91.39174 213.21495 92.95696 214.10457 93.69232 215.59072 C 94.23458 218.60685 94.87701 221.6041 95.61853 224.57753 C 94.87772 221.58282 94.25289 218.56061 93.74545 215.51766 C 93.3713 212.18843 94.9819 208.9487 97.86197 207.23728 C 100.74203 205.52585 104.35753 205.66007 107.10278 207.5803 C 106.49269 205.66374 107.09526 203.5683 108.63024 202.26858 C 110.16522 200.96885 112.33131 200.71994 114.1211 201.63762 C 115.91088 202.5553 116.97304 204.45943 116.81358 206.46443 C 119.43562 205.22467 122.51082 205.41958 124.95536 206.98046 C 127.3999 208.54135 128.87059 211.2491 128.84913 214.14938 C 127.99786 217.86856 127.33502 221.62837 126.86313 225.41444 C 127.41649 221.66258 128.06986 217.92616 128.82256 214.20916 C 129.83417 212.7887 131.55764 212.05652 133.2823 212.31452 C 135.00698 212.57252 136.44073 213.777 136.99238 215.4313 C 137.923 213.36662 139.95373 212.0172 142.21772 211.95908 C 144.4817 211.90096 146.579 213.14442 147.61432 215.15865 C 148.64964 217.17287 148.4401 219.60205 147.07514 221.40923 C 149.63772 221.15616 152.16334 222.16485 153.84655 224.1136 C 155.52975 226.06238 156.16034 228.70786 155.53721 231.20638 C 153.91877 232.34047 152.8511 234.10223 152.59475 236.06178 C 152.7668 234.025 153.89257 232.1898 155.6302 231.1134 C 158.1168 230.47877 160.75571 231.14182 162.64702 232.87642 C 164.53833 234.611 165.4266 237.18288 165.0089 239.71495 C 164.25361 241.24064 164.38773 243.05635 165.35898 244.45452 C 166.33023 245.85268 167.98496 246.61208 169.67832 246.4368 C 170.00817 247.6946 169.6213 249.03198 168.67085 249.91942 C 167.7204 250.80686 166.35967 251.10125 165.1274 250.68603 C 163.89513 250.2708 162.99005 249.21294 162.7705 247.93127 L 160.90406 243.44783 C 160.35451 243.58978 159.88572 243.9479 159.60425 244.44078 C 159.32279 244.93365 159.25258 245.5194 159.40958 246.06483 C 160.8332 248.41732 161.42503 251.17996 161.09004 253.9092 C 161.59557 254.97634 161.3901 256.24478 160.57353 257.09777 C 159.75697 257.95077 158.4987 258.21136 157.41051 257.75286 C 156.32232 257.29435 155.62996 256.21187 155.67006 255.0317 C 154.29493 257.11497 151.51251 257.72712 149.39001 256.41337 C 147.26751 255.0996 146.57443 252.33624 147.8257 250.1763 C 147.0402 251.04843 145.88202 251.48774 144.71574 251.35596 C 143.54945 251.22417 142.5185 250.5375 141.94741 249.5121 C 141.41672 245.89418 141.15033 242.2424 141.15036 238.5858 C 141.21873 242.2381 141.46923 245.88474 141.90092 249.5121 C 141.11689 251.44178 139.30123 252.75555 137.22315 252.89682 C 135.14507 253.0381 133.1683 251.98213 132.13034 250.1763 C 131.81616 252.71226 130.05416 254.83315 127.61875 255.6068 C 125.18334 256.38047 122.52039 255.66526 120.8003 253.77553 C 119.08022 251.8858 118.61791 249.1675 119.61656 246.8154 C 116.68932 247.97826 113.36708 246.61235 112.10431 243.7268 C 111.95971 240.60916 111.7715 237.4937 111.53973 234.38132 C 111.81518 237.4561 111.97249 240.54032 112.01132 243.62717 C 111.55714 245.37496 110.34542 246.8282 108.70775 247.5892 C 107.07009 248.35017 105.17798 248.3392 103.54924 247.5593 C 104.01152 251.0933 101.60136 254.36196 98.08863 254.96496 C 94.5759 255.56795 91.21364 253.2902 90.47088 249.80435 C 89.64124 251.2831 88.00251 252.11644 86.31885 251.9158 C 84.63518 251.71516 83.23818 250.52003 82.77929 248.88774 C 82.3167 245.68018 81.90926 242.4649 81.55714 239.24336 C 81.83931 242.45215 82.15151 245.65822 82.49368 248.86117 C 81.95444 250.12178 80.85593 251.05708 79.52546 251.3884 C 78.19499 251.7197 76.786145 251.40878 75.718705 250.54827 C 76.6468 252.71626 75.64166 255.22614 73.47366 256.15423 C 71.30567 257.08232 68.795796 256.07718 67.8677 253.9092 C 67.701194 255.2865 66.70671 256.42056 65.36293 256.7655 C 64.01916 257.11044 62.6014 256.5956 61.79209 255.46877 C 60.982784 254.34194 60.94773 252.834 61.703804 251.6708 L 64.506784 246.06483 C 64.60466 245.3818 64.31998 244.70012 63.765394 244.28957 C 63.21081 243.87903 62.47572 243.80578 61.85103 244.09882 C 61.22634 244.39186 60.812735 245.00395 60.773906 245.69287 C 60.906015 247.42914 60.02865 249.08682 58.51863 249.95396 C 57.008604 250.8211 55.13467 250.74337 53.70165 249.75415 C 52.26863 248.76493 51.53157 247.04028 51.807026 245.3209 Z"
             stroke="black"
             stroke-linecap="round"
             stroke-linejoin="round"
             stroke-width="1.9926399"
             id="path177"
             style="fill:#ffffff" />
        </g>
        <g
           id="g185"
           style="fill:#ffffff">
          <path
             d="M 141.20834 239.84202 C 141.69361 237.41758 143.7789 235.64276 146.24972 235.5512 C 148.23885 234.71214 149.7202 232.9899 150.25239 230.89768 C 150.78457 228.80545 150.30617 226.58474 148.95971 224.89722 C 148.54807 224.15916 147.79774 223.67277 146.95593 223.5983 C 146.11413 223.52382 145.29006 223.87094 144.75524 224.52526 C 145.30737 222.41414 144.12765 220.23659 142.05768 219.546 C 139.9877 218.85543 137.73688 219.8885 136.91088 221.90826 C 136.32762 220.90345 135.269 220.26878 134.1079 220.2278 C 132.98291 220.36173 132.01536 221.08687 131.57107 222.12905 C 131.12677 223.17122 131.27353 224.3714 131.95585 225.27582 C 134.4879 228.7958 136.97887 232.34516 139.42825 235.92316 Z"
             id="path181"
             style="fill:#ffffff" />
          <path
             d="M 141.20834 239.84202 C 141.69361 237.41758 143.7789 235.64276 146.24972 235.5512 C 148.23885 234.71214 149.7202 232.9899 150.25239 230.89768 C 150.78457 228.80545 150.30617 226.58474 148.95971 224.89722 C 148.54807 224.15916 147.79774 223.67277 146.95593 223.5983 C 146.11413 223.52382 145.29006 223.87094 144.75524 224.52526 C 145.30737 222.41414 144.12765 220.23659 142.05768 219.546 C 139.9877 218.85543 137.73688 219.8885 136.91088 221.90826 C 136.32762 220.90345 135.269 220.26878 134.1079 220.2278 C 132.98291 220.36173 132.01536 221.08687 131.57107 222.12905 C 131.12677 223.17122 131.27353 224.3714 131.95585 225.27582 C 134.4879 228.7958 136.97887 232.34516 139.42825 235.92316 Z"
             stroke="black"
             stroke-linecap="round"
             stroke-linejoin="round"
             stroke-width=".9963199"
             id="path183"
             style="fill:#ffffff" />
        </g>
        <g
           id="g191"
           style="fill:#ffffff">
          <path
             d="M 111.67463 235.78833 C 110.84605 231.30213 108.35248 227.29487 104.69375 224.56976 C 101.81319 223.77933 99.79949 221.18323 99.7503 218.1966 C 99.70111 215.20996 101.62823 212.54897 104.4812 211.6641 C 105.8471 211.83232 107.01816 212.7195 107.54986 213.98885 C 107.27738 212.42753 107.95851 210.85355 109.2832 209.9834 C 110.60789 209.11325 112.32292 209.11325 113.6476 209.9834 C 114.97229 210.85355 115.65342 212.42753 115.38094 213.98885 C 115.77597 212.82051 116.81172 211.98655 118.03743 211.84989 C 119.26315 211.71322 120.45715 212.29857 121.09982 213.3512 C 122.4805 215.26141 122.94699 217.6839 122.37445 219.97025 C 121.8019 222.2566 120.24877 224.17333 118.13078 225.2074 C 114.50503 227.59175 112.13651 231.4735 111.67463 235.78833 Z"
             id="path187"
             style="fill:#ffffff" />
          <path
             d="M 111.67463 235.78833 C 110.84605 231.30213 108.35248 227.29487 104.69375 224.56976 C 101.81319 223.77933 99.79949 221.18323 99.7503 218.1966 C 99.70111 215.20996 101.62823 212.54897 104.4812 211.6641 C 105.8471 211.83232 107.01816 212.7195 107.54986 213.98885 C 107.27738 212.42753 107.95851 210.85355 109.2832 209.9834 C 110.60789 209.11325 112.32292 209.11325 113.6476 209.9834 C 114.97229 210.85355 115.65342 212.42753 115.38094 213.98885 C 115.77597 212.82051 116.81172 211.98655 118.03743 211.84989 C 119.26315 211.71322 120.45715 212.29857 121.09982 213.3512 C 122.4805 215.26141 122.94699 217.6839 122.37445 219.97025 C 121.8019 222.2566 120.24877 224.17333 118.13078 225.2074 C 114.50503 227.59175 112.13651 231.4735 111.67463 235.78833 Z"
             stroke="black"
             stroke-linecap="round"
             stroke-linejoin="round"
             stroke-width=".9963199"
             id="path189"
             style="fill:#ffffff" />
        </g>
        <g
           id="g197"
           style="fill:#ffffff">
          <path
             d="M 69.92497 235.2276 C 69.40465 240.1236 67.67194 244.81263 64.88359 248.87054 C 64.38885 249.4063 64.2543 250.1824 64.53982 250.8534 C 64.825345 251.52444 65.47786 251.96563 66.20695 251.98064 C 66.93604 251.99564 67.60616 251.58167 67.91905 250.92296 C 68.47336 250.01624 68.97888 249.08058 69.43345 248.11998 C 70.73836 248.9883 72.46834 248.84918 73.61771 247.78348 C 74.767085 246.7178 75.03633 245.00324 74.26893 243.63654 C 75.12725 244.2117 76.23744 244.25054 77.133855 243.73676 C 78.03027 243.22298 78.55791 242.24542 78.495465 241.2141 C 78.43302 240.18276 77.79129 239.276 76.83943 238.87413 C 74.03688 239.0342 71.37573 237.63076 69.92497 235.2276 Z"
             id="path193"
             style="fill:#ffffff" />
          <path
             d="M 69.92497 235.2276 C 69.40465 240.1236 67.67194 244.81263 64.88359 248.87054 C 64.38885 249.4063 64.2543 250.1824 64.53982 250.8534 C 64.825345 251.52444 65.47786 251.96563 66.20695 251.98064 C 66.93604 251.99564 67.60616 251.58167 67.91905 250.92296 C 68.47336 250.01624 68.97888 249.08058 69.43345 248.11998 C 70.73836 248.9883 72.46834 248.84918 73.61771 247.78348 C 74.767085 246.7178 75.03633 245.00324 74.26893 243.63654 C 75.12725 244.2117 76.23744 244.25054 77.133855 243.73676 C 78.03027 243.22298 78.55791 242.24542 78.495465 241.2141 C 78.43302 240.18276 77.79129 239.276 76.83943 238.87413 C 74.03688 239.0342 71.37573 237.63076 69.92497 235.2276 Z"
             stroke="black"
             stroke-linecap="round"
             stroke-linejoin="round"
             stroke-width=".9963199"
             id="path195"
             style="fill:#ffffff" />
        </g>
        <g
           id="g203"
           style="fill:#ffffff">
          <path
             d="M 81.59792 240.27177 C 81.11265 237.84733 79.02737 236.0725 76.55654 235.98095 C 74.56742 235.1419 73.086065 233.41966 72.55388 231.32743 C 72.02169 229.2352 72.5001 227.01448 73.84655 225.32697 C 74.25819 224.5889 75.00853 224.1025 75.85033 224.02804 C 76.69213 223.95357 77.5162 224.30068 78.05102 224.955 C 77.4989 222.84389 78.67861 220.66633 80.74858 219.97576 C 82.81856 219.28518 85.06938 220.31825 85.89538 222.338 C 86.47865 221.3332 87.53726 220.69853 88.69836 220.65755 C 89.82335 220.79148 90.7909 221.51662 91.2352 222.5588 C 91.67949 223.60097 91.53274 224.80115 90.85041 225.70557 C 88.31836 229.22555 85.8274 232.7749 83.37801 236.3529 Z"
             id="path199"
             style="fill:#ffffff" />
          <path
             d="M 81.59792 240.27177 C 81.11265 237.84733 79.02737 236.0725 76.55654 235.98095 C 74.56742 235.1419 73.086065 233.41966 72.55388 231.32743 C 72.02169 229.2352 72.5001 227.01448 73.84655 225.32697 C 74.25819 224.5889 75.00853 224.1025 75.85033 224.02804 C 76.69213 223.95357 77.5162 224.30068 78.05102 224.955 C 77.4989 222.84389 78.67861 220.66633 80.74858 219.97576 C 82.81856 219.28518 85.06938 220.31825 85.89538 222.338 C 86.47865 221.3332 87.53726 220.69853 88.69836 220.65755 C 89.82335 220.79148 90.7909 221.51662 91.2352 222.5588 C 91.67949 223.60097 91.53274 224.80115 90.85041 225.70557 C 88.31836 229.22555 85.8274 232.7749 83.37801 236.3529 Z"
             stroke="black"
             stroke-linecap="round"
             stroke-linejoin="round"
             stroke-width=".9963199"
             id="path201"
             style="fill:#ffffff" />
        </g>
        <g
           id="g209"
           style="fill:#ffffff">
          <path
             d="M 152.88123 234.79785 C 153.40155 239.69384 155.13425 244.38288 157.9226 248.4408 C 158.41735 248.97654 158.5519 249.75264 158.26638 250.42366 C 157.98085 251.0947 157.32834 251.53588 156.59925 251.5509 C 155.87015 251.5659 155.20004 251.15192 154.88715 250.4932 C 154.33284 249.5865 153.82732 248.65083 153.37274 247.69023 C 152.06784 248.55855 150.33786 248.41943 149.18849 247.35373 C 148.03911 246.28804 147.76987 244.57349 148.53727 243.2068 C 147.67895 243.78196 146.56876 243.8208 145.67234 243.307 C 144.77593 242.79323 144.24829 241.81567 144.31073 240.78434 C 144.37318 239.753 145.0149 238.84625 145.96677 238.44438 C 148.76932 238.60444 151.43046 237.201 152.88123 234.79785 Z"
             id="path205"
             style="fill:#ffffff" />
          <path
             d="M 152.88123 234.79785 C 153.40155 239.69384 155.13425 244.38288 157.9226 248.4408 C 158.41735 248.97654 158.5519 249.75264 158.26638 250.42366 C 157.98085 251.0947 157.32834 251.53588 156.59925 251.5509 C 155.87015 251.5659 155.20004 251.15192 154.88715 250.4932 C 154.33284 249.5865 153.82732 248.65083 153.37274 247.69023 C 152.06784 248.55855 150.33786 248.41943 149.18849 247.35373 C 148.03911 246.28804 147.76987 244.57349 148.53727 243.2068 C 147.67895 243.78196 146.56876 243.8208 145.67234 243.307 C 144.77593 242.79323 144.24829 241.81567 144.31073 240.78434 C 144.37318 239.753 145.0149 238.84625 145.96677 238.44438 C 148.76932 238.60444 151.43046 237.201 152.88123 234.79785 Z"
             stroke="black"
             stroke-linecap="round"
             stroke-linejoin="round"
             stroke-width=".9963199"
             id="path207"
             style="fill:#ffffff" />
        </g>
        <g
           id="g215"
           style="fill:#ffffff">
          <path
             d="M 95.80916 224.2176 C 96.33222 226.83396 98.58274 228.74923 101.24907 228.84716 C 103.39426 229.75236 104.99176 231.6099 105.56566 233.8664 C 106.13957 236.1229 105.62366 238.51796 104.17161 240.33805 C 103.72725 241.1344 102.91731 241.65897 102.00887 241.73878 C 101.10043 241.81858 100.21143 241.44326 99.63503 240.73658 C 100.2349 243.01543 98.96247 245.36853 96.7271 246.11424 C 94.49173 246.85995 92.0614 245.74206 91.17296 243.5595 C 90.54423 244.64323 89.4029 245.32803 88.15078 245.3728 C 86.9397 245.2263 85.89887 244.4446 85.42064 243.32233 C 84.94241 242.20006 85.0995 240.90788 85.83268 239.93288 C 88.56503 236.13624 91.25306 232.3079 93.89623 228.44864 Z"
             id="path211"
             style="fill:#ffffff" />
          <path
             d="M 95.80916 224.2176 C 96.33222 226.83396 98.58274 228.74923 101.24907 228.84716 C 103.39426 229.75236 104.99176 231.6099 105.56566 233.8664 C 106.13957 236.1229 105.62366 238.51796 104.17161 240.33805 C 103.72725 241.1344 102.91731 241.65897 102.00887 241.73878 C 101.10043 241.81858 100.21143 241.44326 99.63503 240.73658 C 100.2349 243.01543 98.96247 245.36853 96.7271 246.11424 C 94.49173 246.85995 92.0614 245.74206 91.17296 243.5595 C 90.54423 244.64323 89.4029 245.32803 88.15078 245.3728 C 86.9397 245.2263 85.89887 244.4446 85.42064 243.32233 C 84.94241 242.20006 85.0995 240.90788 85.83268 239.93288 C 88.56503 236.13624 91.25306 232.3079 93.89623 228.44864 Z"
             stroke="black"
             stroke-linecap="round"
             stroke-linejoin="round"
             stroke-width=".9963199"
             id="path213"
             style="fill:#ffffff" />
        </g>
        <g
           id="g221"
           style="fill:#ffffff">
          <path
             d="M 126.79724 224.2176 C 126.27418 226.83396 124.02366 228.74923 121.35733 228.84716 C 119.21215 229.75236 117.61465 231.6099 117.04074 233.8664 C 116.46683 236.1229 116.98274 238.51796 118.43479 240.33805 C 118.87915 241.1344 119.6891 241.65897 120.59754 241.73878 C 121.50598 241.81858 122.39497 241.44326 122.97137 240.73658 C 122.3715 243.01543 123.64393 245.36853 125.8793 246.11424 C 128.11467 246.85995 130.545 245.74206 131.43345 243.5595 C 132.06217 244.64323 133.2035 245.32803 134.45562 245.3728 C 135.6667 245.2263 136.70753 244.4446 137.18576 243.32233 C 137.66399 242.20006 137.5069 240.90788 136.77372 239.93288 C 134.04137 236.13624 131.35334 232.3079 128.71017 228.44864 Z"
             id="path217"
             style="fill:#ffffff" />
          <path
             d="M 126.79724 224.2176 C 126.27418 226.83396 124.02366 228.74923 121.35733 228.84716 C 119.21215 229.75236 117.61465 231.6099 117.04074 233.8664 C 116.46683 236.1229 116.98274 238.51796 118.43479 240.33805 C 118.87915 241.1344 119.6891 241.65897 120.59754 241.73878 C 121.50598 241.81858 122.39497 241.44326 122.97137 240.73658 C 122.3715 243.01543 123.64393 245.36853 125.8793 246.11424 C 128.11467 246.85995 130.545 245.74206 131.43345 243.5595 C 132.06217 244.64323 133.2035 245.32803 134.45562 245.3728 C 135.6667 245.2263 136.70753 244.4446 137.18576 243.32233 C 137.66399 242.20006 137.5069 240.90788 136.77372 239.93288 C 134.04137 236.13624 131.35334 232.3079 128.71017 228.44864 Z"
             stroke="black"
             stroke-linecap="round"
             stroke-linejoin="round"
             stroke-width=".9963199"
             id="path219"
             style="fill:#ffffff" />
        </g>
        <g
           id="g227"
           style="fill:#ffffff">
          <path
             d="M 253.26292 245.3209 C 254.74003 246.23565 256.63455 246.1139 257.98243 245.01762 C 259.3303 243.92134 259.83546 242.09136 259.24084 240.45887 C 258.32255 237.8229 259.14148 234.89389 261.29372 233.1164 C 263.44596 231.3389 266.47696 231.08836 268.89185 232.4883 C 270.02533 233.65695 270.9769 234.98916 271.71476 236.44038 C 271.04578 234.97625 270.0747 233.67017 268.8653 232.60787 C 267.25477 230.19773 267.18414 227.07342 268.68408 224.59296 C 270.18403 222.1125 272.98366 220.72386 275.8661 221.03063 C 274.34824 218.84062 274.3168 215.9471 275.7867 213.72461 C 277.25662 211.50214 279.93164 210.39862 282.541 210.93828 C 285.15037 211.47794 287.1682 213.55202 287.63595 216.17523 C 288.13258 214.59322 289.54136 213.4722 291.1945 213.34358 C 292.84763 213.21495 294.41285 214.10457 295.1482 215.59072 C 295.69047 218.60685 296.3329 221.6041 297.07442 224.57753 C 296.3336 221.58282 295.70878 218.56061 295.20134 215.51766 C 294.8272 212.18843 296.4378 208.9487 299.31786 207.23728 C 302.19792 205.52585 305.8134 205.66007 308.55867 207.5803 C 307.94858 205.66374 308.55114 203.5683 310.08613 202.26858 C 311.6211 200.96885 313.7872 200.71994 315.577 201.63762 C 317.36677 202.5553 318.42893 204.45943 318.26947 206.46443 C 320.8915 205.22467 323.9667 205.41958 326.41125 206.98046 C 328.8558 208.54135 330.3265 211.2491 330.305 214.14938 C 329.45375 217.86856 328.7909 221.62837 328.319 225.41444 C 328.87238 221.66258 329.52575 217.92616 330.27845 214.20916 C 331.29006 212.7887 333.01353 212.05652 334.7382 212.31452 C 336.46287 212.57252 337.89662 213.777 338.44827 215.4313 C 339.3789 213.36662 341.4096 212.0172 343.6736 211.95908 C 345.9376 211.90096 348.0349 213.14442 349.0702 215.15865 C 350.10553 217.17287 349.896 219.60205 348.53103 221.40923 C 351.0936 221.15616 353.61923 222.16485 355.30244 224.1136 C 356.98564 226.06238 357.61623 228.70786 356.9931 231.20638 C 355.37465 232.34047 354.307 234.10223 354.05064 236.06178 C 354.2227 234.025 355.34846 232.1898 357.0861 231.1134 C 359.5727 230.47877 362.2116 231.14182 364.1029 232.87642 C 365.9942 234.611 366.8825 237.18288 366.4648 239.71495 C 365.7095 241.24064 365.8436 243.05635 366.81487 244.45452 C 367.78612 245.85268 369.44085 246.61208 371.1342 246.4368 C 371.46406 247.6946 371.0772 249.03198 370.12674 249.91942 C 369.1763 250.80686 367.81556 251.10125 366.5833 250.68603 C 365.351 250.2708 364.44594 249.21294 364.2264 247.93127 L 362.35995 243.44783 C 361.8104 243.58978 361.3416 243.9479 361.06014 244.44078 C 360.77868 244.93365 360.70847 245.5194 360.86547 246.06483 C 362.2891 248.41732 362.8809 251.17996 362.54593 253.9092 C 363.05146 254.97634 362.846 256.24478 362.02942 257.09777 C 361.21286 257.95077 359.9546 258.21136 358.8664 257.75286 C 357.7782 257.29435 357.08585 256.21187 357.12595 255.0317 C 355.7508 257.11497 352.9684 257.72712 350.8459 256.41337 C 348.7234 255.0996 348.03032 252.33624 349.2816 250.1763 C 348.4961 251.04843 347.3379 251.48774 346.17162 251.35596 C 345.00534 251.22417 343.9744 250.5375 343.4033 249.5121 C 342.8726 245.89418 342.6062 242.2424 342.60624 238.5858 C 342.6746 242.2381 342.9251 245.88474 343.3568 249.5121 C 342.5728 251.44178 340.7571 252.75555 338.67904 252.89682 C 336.60096 253.0381 334.6242 251.98213 333.58623 250.1763 C 333.27205 252.71226 331.51005 254.83315 329.07464 255.6068 C 326.63923 256.38047 323.97628 255.66526 322.2562 253.77553 C 320.5361 251.8858 320.0738 249.1675 321.07245 246.8154 C 318.1452 247.97826 314.82297 246.61235 313.5602 243.7268 C 313.4156 240.60916 313.2274 237.4937 312.9956 234.38132 C 313.27107 237.4561 313.42838 240.54032 313.4672 243.62717 C 313.01303 245.37496 311.8013 246.8282 310.16364 247.5892 C 308.52598 248.35017 306.63387 248.3392 305.00513 247.5593 C 305.4674 251.0933 303.05725 254.36196 299.5445 254.96496 C 296.0318 255.56795 292.66952 253.2902 291.92677 249.80435 C 291.09713 251.2831 289.4584 252.11644 287.77474 251.9158 C 286.09107 251.71516 284.69407 250.52003 284.23518 248.88774 C 283.7726 245.68018 283.36515 242.4649 283.01303 239.24336 C 283.2952 242.45215 283.6074 245.65822 283.94957 248.86117 C 283.41033 250.12178 282.31182 251.05708 280.98135 251.3884 C 279.65088 251.7197 278.24203 251.40878 277.1746 250.54827 C 278.1027 252.71626 277.09755 255.22614 274.92955 256.15423 C 272.76156 257.08232 270.2517 256.07718 269.3236 253.9092 C 269.15708 255.2865 268.1626 256.42056 266.81882 256.7655 C 265.47505 257.11044 264.0573 256.5956 263.24798 255.46877 C 262.43867 254.34194 262.40362 252.834 263.1597 251.6708 L 265.96267 246.06483 C 266.06055 245.3818 265.77587 244.70012 265.22128 244.28957 C 264.6667 243.87903 263.9316 243.80578 263.30692 244.09882 C 262.68223 244.39186 262.26862 245.00395 262.2298 245.69287 C 262.3619 247.42914 261.48454 249.08682 259.97452 249.95396 C 258.4645 250.8211 256.59056 250.74337 255.15754 249.75415 C 253.72452 248.76493 252.98746 247.04028 253.26292 245.3209 Z"
             id="path223"
             style="fill:#ffffff" />
          <path
             d="M 253.26292 245.3209 C 254.74003 246.23565 256.63455 246.1139 257.98243 245.01762 C 259.3303 243.92134 259.83546 242.09136 259.24084 240.45887 C 258.32255 237.8229 259.14148 234.89389 261.29372 233.1164 C 263.44596 231.3389 266.47696 231.08836 268.89185 232.4883 C 270.02533 233.65695 270.9769 234.98916 271.71476 236.44038 C 271.04578 234.97625 270.0747 233.67017 268.8653 232.60787 C 267.25477 230.19773 267.18414 227.07342 268.68408 224.59296 C 270.18403 222.1125 272.98366 220.72386 275.8661 221.03063 C 274.34824 218.84062 274.3168 215.9471 275.7867 213.72461 C 277.25662 211.50214 279.93164 210.39862 282.541 210.93828 C 285.15037 211.47794 287.1682 213.55202 287.63595 216.17523 C 288.13258 214.59322 289.54136 213.4722 291.1945 213.34358 C 292.84763 213.21495 294.41285 214.10457 295.1482 215.59072 C 295.69047 218.60685 296.3329 221.6041 297.07442 224.57753 C 296.3336 221.58282 295.70878 218.56061 295.20134 215.51766 C 294.8272 212.18843 296.4378 208.9487 299.31786 207.23728 C 302.19792 205.52585 305.8134 205.66007 308.55867 207.5803 C 307.94858 205.66374 308.55114 203.5683 310.08613 202.26858 C 311.6211 200.96885 313.7872 200.71994 315.577 201.63762 C 317.36677 202.5553 318.42893 204.45943 318.26947 206.46443 C 320.8915 205.22467 323.9667 205.41958 326.41125 206.98046 C 328.8558 208.54135 330.3265 211.2491 330.305 214.14938 C 329.45375 217.86856 328.7909 221.62837 328.319 225.41444 C 328.87238 221.66258 329.52575 217.92616 330.27845 214.20916 C 331.29006 212.7887 333.01353 212.05652 334.7382 212.31452 C 336.46287 212.57252 337.89662 213.777 338.44827 215.4313 C 339.3789 213.36662 341.4096 212.0172 343.6736 211.95908 C 345.9376 211.90096 348.0349 213.14442 349.0702 215.15865 C 350.10553 217.17287 349.896 219.60205 348.53103 221.40923 C 351.0936 221.15616 353.61923 222.16485 355.30244 224.1136 C 356.98564 226.06238 357.61623 228.70786 356.9931 231.20638 C 355.37465 232.34047 354.307 234.10223 354.05064 236.06178 C 354.2227 234.025 355.34846 232.1898 357.0861 231.1134 C 359.5727 230.47877 362.2116 231.14182 364.1029 232.87642 C 365.9942 234.611 366.8825 237.18288 366.4648 239.71495 C 365.7095 241.24064 365.8436 243.05635 366.81487 244.45452 C 367.78612 245.85268 369.44085 246.61208 371.1342 246.4368 C 371.46406 247.6946 371.0772 249.03198 370.12674 249.91942 C 369.1763 250.80686 367.81556 251.10125 366.5833 250.68603 C 365.351 250.2708 364.44594 249.21294 364.2264 247.93127 L 362.35995 243.44783 C 361.8104 243.58978 361.3416 243.9479 361.06014 244.44078 C 360.77868 244.93365 360.70847 245.5194 360.86547 246.06483 C 362.2891 248.41732 362.8809 251.17996 362.54593 253.9092 C 363.05146 254.97634 362.846 256.24478 362.02942 257.09777 C 361.21286 257.95077 359.9546 258.21136 358.8664 257.75286 C 357.7782 257.29435 357.08585 256.21187 357.12595 255.0317 C 355.7508 257.11497 352.9684 257.72712 350.8459 256.41337 C 348.7234 255.0996 348.03032 252.33624 349.2816 250.1763 C 348.4961 251.04843 347.3379 251.48774 346.17162 251.35596 C 345.00534 251.22417 343.9744 250.5375 343.4033 249.5121 C 342.8726 245.89418 342.6062 242.2424 342.60624 238.5858 C 342.6746 242.2381 342.9251 245.88474 343.3568 249.5121 C 342.5728 251.44178 340.7571 252.75555 338.67904 252.89682 C 336.60096 253.0381 334.6242 251.98213 333.58623 250.1763 C 333.27205 252.71226 331.51005 254.83315 329.07464 255.6068 C 326.63923 256.38047 323.97628 255.66526 322.2562 253.77553 C 320.5361 251.8858 320.0738 249.1675 321.07245 246.8154 C 318.1452 247.97826 314.82297 246.61235 313.5602 243.7268 C 313.4156 240.60916 313.2274 237.4937 312.9956 234.38132 C 313.27107 237.4561 313.42838 240.54032 313.4672 243.62717 C 313.01303 245.37496 311.8013 246.8282 310.16364 247.5892 C 308.52598 248.35017 306.63387 248.3392 305.00513 247.5593 C 305.4674 251.0933 303.05725 254.36196 299.5445 254.96496 C 296.0318 255.56795 292.66952 253.2902 291.92677 249.80435 C 291.09713 251.2831 289.4584 252.11644 287.77474 251.9158 C 286.09107 251.71516 284.69407 250.52003 284.23518 248.88774 C 283.7726 245.68018 283.36515 242.4649 283.01303 239.24336 C 283.2952 242.45215 283.6074 245.65822 283.94957 248.86117 C 283.41033 250.12178 282.31182 251.05708 280.98135 251.3884 C 279.65088 251.7197 278.24203 251.40878 277.1746 250.54827 C 278.1027 252.71626 277.09755 255.22614 274.92955 256.15423 C 272.76156 257.08232 270.2517 256.07718 269.3236 253.9092 C 269.15708 255.2865 268.1626 256.42056 266.81882 256.7655 C 265.47505 257.11044 264.0573 256.5956 263.24798 255.46877 C 262.43867 254.34194 262.40362 252.834 263.1597 251.6708 L 265.96267 246.06483 C 266.06055 245.3818 265.77587 244.70012 265.22128 244.28957 C 264.6667 243.87903 263.9316 243.80578 263.30692 244.09882 C 262.68223 244.39186 262.26862 245.00395 262.2298 245.69287 C 262.3619 247.42914 261.48454 249.08682 259.97452 249.95396 C 258.4645 250.8211 256.59056 250.74337 255.15754 249.75415 C 253.72452 248.76493 252.98746 247.04028 253.26292 245.3209 Z"
             stroke="black"
             stroke-linecap="round"
             stroke-linejoin="round"
             stroke-width="1.9926399"
             id="path225"
             style="fill:#ffffff" />
        </g>
        <g
           id="g233"
           style="fill:#ffffff">
          <path
             d="M 342.66423 239.84202 C 343.1495 237.41758 345.2348 235.64276 347.7056 235.5512 C 349.69474 234.71214 351.1761 232.9899 351.70828 230.89768 C 352.24046 228.80545 351.76206 226.58474 350.4156 224.89722 C 350.00396 224.15916 349.25363 223.67277 348.41182 223.5983 C 347.57002 223.52382 346.74595 223.87094 346.21113 224.52526 C 346.76325 222.41414 345.58354 220.23659 343.51357 219.546 C 341.4436 218.85543 339.19277 219.8885 338.36677 221.90826 C 337.7835 220.90345 336.7249 220.26878 335.5638 220.2278 C 334.4388 220.36173 333.47125 221.08687 333.02696 222.12905 C 332.58266 223.17122 332.7294 224.3714 333.41174 225.27582 C 335.9438 228.7958 338.43476 232.34516 340.88414 235.92316 Z"
             id="path229"
             style="fill:#ffffff" />
          <path
             d="M 342.66423 239.84202 C 343.1495 237.41758 345.2348 235.64276 347.7056 235.5512 C 349.69474 234.71214 351.1761 232.9899 351.70828 230.89768 C 352.24046 228.80545 351.76206 226.58474 350.4156 224.89722 C 350.00396 224.15916 349.25363 223.67277 348.41182 223.5983 C 347.57002 223.52382 346.74595 223.87094 346.21113 224.52526 C 346.76325 222.41414 345.58354 220.23659 343.51357 219.546 C 341.4436 218.85543 339.19277 219.8885 338.36677 221.90826 C 337.7835 220.90345 336.7249 220.26878 335.5638 220.2278 C 334.4388 220.36173 333.47125 221.08687 333.02696 222.12905 C 332.58266 223.17122 332.7294 224.3714 333.41174 225.27582 C 335.9438 228.7958 338.43476 232.34516 340.88414 235.92316 Z"
             stroke="black"
             stroke-linecap="round"
             stroke-linejoin="round"
             stroke-width=".9963199"
             id="path231"
             style="fill:#ffffff" />
        </g>
        <g
           id="g239"
           style="fill:#ffffff">
          <path
             d="M 313.1305 235.78833 C 312.30194 231.30213 309.80837 227.29487 306.14964 224.56976 C 303.26908 223.77933 301.25538 221.18323 301.2062 218.1966 C 301.157 215.20996 303.08412 212.54897 305.9371 211.6641 C 307.303 211.83232 308.47405 212.7195 309.00575 213.98885 C 308.73327 212.42753 309.4144 210.85355 310.7391 209.9834 C 312.06377 209.11325 313.7788 209.11325 315.1035 209.9834 C 316.4282 210.85355 317.1093 212.42753 316.83683 213.98885 C 317.23186 212.82051 318.2676 211.98655 319.49332 211.84989 C 320.71904 211.71322 321.91303 212.29857 322.5557 213.3512 C 323.9364 215.26141 324.4029 217.6839 323.83033 219.97025 C 323.2578 222.2566 321.70466 224.17333 319.58667 225.2074 C 315.96092 227.59175 313.5924 231.4735 313.1305 235.78833 Z"
             id="path235"
             style="fill:#ffffff" />
          <path
             d="M 313.1305 235.78833 C 312.30194 231.30213 309.80837 227.29487 306.14964 224.56976 C 303.26908 223.77933 301.25538 221.18323 301.2062 218.1966 C 301.157 215.20996 303.08412 212.54897 305.9371 211.6641 C 307.303 211.83232 308.47405 212.7195 309.00575 213.98885 C 308.73327 212.42753 309.4144 210.85355 310.7391 209.9834 C 312.06377 209.11325 313.7788 209.11325 315.1035 209.9834 C 316.4282 210.85355 317.1093 212.42753 316.83683 213.98885 C 317.23186 212.82051 318.2676 211.98655 319.49332 211.84989 C 320.71904 211.71322 321.91303 212.29857 322.5557 213.3512 C 323.9364 215.26141 324.4029 217.6839 323.83033 219.97025 C 323.2578 222.2566 321.70466 224.17333 319.58667 225.2074 C 315.96092 227.59175 313.5924 231.4735 313.1305 235.78833 Z"
             stroke="black"
             stroke-linecap="round"
             stroke-linejoin="round"
             stroke-width=".9963199"
             id="path237"
             style="fill:#ffffff" />
        </g>
        <g
           id="g245"
           style="fill:#ffffff">
          <path
             d="M 271.38086 235.2276 C 270.86054 240.1236 269.12783 244.81263 266.33948 248.87054 C 265.84474 249.4063 265.7102 250.1824 265.9957 250.8534 C 266.28123 251.52444 266.93375 251.96563 267.66284 251.98064 C 268.39193 251.99564 269.06205 251.58167 269.37494 250.92296 C 269.92925 250.01624 270.43477 249.08058 270.88934 248.11998 C 272.19425 248.9883 273.92423 248.84918 275.0736 247.78348 C 276.22297 246.7178 276.49222 245.00324 275.7248 243.63654 C 276.58314 244.2117 277.69333 244.25054 278.58974 243.73676 C 279.48616 243.22298 280.0138 242.24542 279.95135 241.2141 C 279.8889 240.18276 279.24718 239.276 278.29532 238.87413 C 275.49277 239.0342 272.83162 237.63076 271.38086 235.2276 Z"
             id="path241"
             style="fill:#ffffff" />
          <path
             d="M 271.38086 235.2276 C 270.86054 240.1236 269.12783 244.81263 266.33948 248.87054 C 265.84474 249.4063 265.7102 250.1824 265.9957 250.8534 C 266.28123 251.52444 266.93375 251.96563 267.66284 251.98064 C 268.39193 251.99564 269.06205 251.58167 269.37494 250.92296 C 269.92925 250.01624 270.43477 249.08058 270.88934 248.11998 C 272.19425 248.9883 273.92423 248.84918 275.0736 247.78348 C 276.22297 246.7178 276.49222 245.00324 275.7248 243.63654 C 276.58314 244.2117 277.69333 244.25054 278.58974 243.73676 C 279.48616 243.22298 280.0138 242.24542 279.95135 241.2141 C 279.8889 240.18276 279.24718 239.276 278.29532 238.87413 C 275.49277 239.0342 272.83162 237.63076 271.38086 235.2276 Z"
             stroke="black"
             stroke-linecap="round"
             stroke-linejoin="round"
             stroke-width=".9963199"
             id="path243"
             style="fill:#ffffff" />
        </g>
        <g
           id="g251"
           style="fill:#ffffff">
          <path
             d="M 283.0538 240.27177 C 282.56854 237.84733 280.48326 236.0725 278.01243 235.98095 C 276.0233 235.1419 274.54195 233.41966 274.00977 231.32743 C 273.47758 229.2352 273.956 227.01448 275.30244 225.32697 C 275.71408 224.5889 276.4644 224.1025 277.30622 224.02804 C 278.14802 223.95357 278.9721 224.30068 279.5069 224.955 C 278.9548 222.84389 280.1345 220.66633 282.20447 219.97576 C 284.27444 219.28518 286.52527 220.31825 287.35127 222.338 C 287.93453 221.3332 288.99315 220.69853 290.15425 220.65755 C 291.27924 220.79148 292.2468 221.51662 292.6911 222.5588 C 293.13538 223.60097 292.98862 224.80115 292.3063 225.70557 C 289.77425 229.22555 287.2833 232.7749 284.8339 236.3529 Z"
             id="path247"
             style="fill:#ffffff" />
          <path
             d="M 283.0538 240.27177 C 282.56854 237.84733 280.48326 236.0725 278.01243 235.98095 C 276.0233 235.1419 274.54195 233.41966 274.00977 231.32743 C 273.47758 229.2352 273.956 227.01448 275.30244 225.32697 C 275.71408 224.5889 276.4644 224.1025 277.30622 224.02804 C 278.14802 223.95357 278.9721 224.30068 279.5069 224.955 C 278.9548 222.84389 280.1345 220.66633 282.20447 219.97576 C 284.27444 219.28518 286.52527 220.31825 287.35127 222.338 C 287.93453 221.3332 288.99315 220.69853 290.15425 220.65755 C 291.27924 220.79148 292.2468 221.51662 292.6911 222.5588 C 293.13538 223.60097 292.98862 224.80115 292.3063 225.70557 C 289.77425 229.22555 287.2833 232.7749 284.8339 236.3529 Z"
             stroke="black"
             stroke-linecap="round"
             stroke-linejoin="round"
             stroke-width=".9963199"
             id="path249"
             style="fill:#ffffff" />
        </g>
        <g
           id="g257"
           style="fill:#ffffff">
          <path
             d="M 354.3371 234.79785 C 354.85744 239.69384 356.59014 244.38288 359.3785 248.4408 C 359.87324 248.97654 360.0078 249.75264 359.72226 250.42366 C 359.43674 251.0947 358.78423 251.53588 358.05513 251.5509 C 357.32604 251.5659 356.65593 251.15192 356.34304 250.4932 C 355.78873 249.5865 355.2832 248.65083 354.82863 247.69023 C 353.52373 248.55855 351.79375 248.41943 350.64437 247.35373 C 349.495 246.28804 349.22576 244.57349 349.99316 243.2068 C 349.13484 243.78196 348.02465 243.8208 347.12823 243.307 C 346.2318 242.79323 345.70418 241.81567 345.76662 240.78434 C 345.82907 239.753 346.4708 238.84625 347.42265 238.44438 C 350.2252 238.60444 352.88635 237.201 354.3371 234.79785 Z"
             id="path253"
             style="fill:#ffffff" />
          <path
             d="M 354.3371 234.79785 C 354.85744 239.69384 356.59014 244.38288 359.3785 248.4408 C 359.87324 248.97654 360.0078 249.75264 359.72226 250.42366 C 359.43674 251.0947 358.78423 251.53588 358.05513 251.5509 C 357.32604 251.5659 356.65593 251.15192 356.34304 250.4932 C 355.78873 249.5865 355.2832 248.65083 354.82863 247.69023 C 353.52373 248.55855 351.79375 248.41943 350.64437 247.35373 C 349.495 246.28804 349.22576 244.57349 349.99316 243.2068 C 349.13484 243.78196 348.02465 243.8208 347.12823 243.307 C 346.2318 242.79323 345.70418 241.81567 345.76662 240.78434 C 345.82907 239.753 346.4708 238.84625 347.42265 238.44438 C 350.2252 238.60444 352.88635 237.201 354.3371 234.79785 Z"
             stroke="black"
             stroke-linecap="round"
             stroke-linejoin="round"
             stroke-width=".9963199"
             id="path255"
             style="fill:#ffffff" />
        </g>
        <g
           id="g263"
           style="fill:#ffffff">
          <path
             d="M 297.26505 224.2176 C 297.7881 226.83396 300.03863 228.74923 302.70496 228.84716 C 304.85014 229.75236 306.44765 231.6099 307.02155 233.8664 C 307.59546 236.1229 307.07955 238.51796 305.6275 240.33805 C 305.18314 241.1344 304.3732 241.65897 303.46476 241.73878 C 302.5563 241.81858 301.66732 241.44326 301.09092 240.73658 C 301.6908 243.01543 300.41836 245.36853 298.183 246.11424 C 295.9476 246.85995 293.5173 245.74206 292.62884 243.5595 C 292.00012 244.64323 290.8588 245.32803 289.60667 245.3728 C 288.3956 245.2263 287.35476 244.4446 286.87653 243.32233 C 286.3983 242.20006 286.5554 240.90788 287.28857 239.93288 C 290.0209 236.13624 292.70895 232.3079 295.35212 228.44864 Z"
             id="path259"
             style="fill:#ffffff" />
          <path
             d="M 297.26505 224.2176 C 297.7881 226.83396 300.03863 228.74923 302.70496 228.84716 C 304.85014 229.75236 306.44765 231.6099 307.02155 233.8664 C 307.59546 236.1229 307.07955 238.51796 305.6275 240.33805 C 305.18314 241.1344 304.3732 241.65897 303.46476 241.73878 C 302.5563 241.81858 301.66732 241.44326 301.09092 240.73658 C 301.6908 243.01543 300.41836 245.36853 298.183 246.11424 C 295.9476 246.85995 293.5173 245.74206 292.62884 243.5595 C 292.00012 244.64323 290.8588 245.32803 289.60667 245.3728 C 288.3956 245.2263 287.35476 244.4446 286.87653 243.32233 C 286.3983 242.20006 286.5554 240.90788 287.28857 239.93288 C 290.0209 236.13624 292.70895 232.3079 295.35212 228.44864 Z"
             stroke="black"
             stroke-linecap="round"
             stroke-linejoin="round"
             stroke-width=".9963199"
             id="path261"
             style="fill:#ffffff" />
        </g>
        <g
           id="g269"
           style="fill:#ffffff">
          <path
             d="M 328.25313 224.2176 C 327.73007 226.83396 325.47955 228.74923 322.81322 228.84716 C 320.66804 229.75236 319.07053 231.6099 318.49663 233.8664 C 317.9227 236.1229 318.43863 238.51796 319.8907 240.33805 C 320.33504 241.1344 321.145 241.65897 322.05342 241.73878 C 322.96187 241.81858 323.85086 241.44326 324.42726 240.73658 C 323.8274 243.01543 325.09982 245.36853 327.3352 246.11424 C 329.57056 246.85995 332.0009 245.74206 332.88934 243.5595 C 333.51806 244.64323 334.6594 245.32803 335.9115 245.3728 C 337.1226 245.2263 338.1634 244.4446 338.64165 243.32233 C 339.11988 242.20006 338.9628 240.90788 338.2296 239.93288 C 335.49726 236.13624 332.80923 232.3079 330.16606 228.44864 Z"
             id="path265"
             style="fill:#ffffff" />
          <path
             d="M 328.25313 224.2176 C 327.73007 226.83396 325.47955 228.74923 322.81322 228.84716 C 320.66804 229.75236 319.07053 231.6099 318.49663 233.8664 C 317.9227 236.1229 318.43863 238.51796 319.8907 240.33805 C 320.33504 241.1344 321.145 241.65897 322.05342 241.73878 C 322.96187 241.81858 323.85086 241.44326 324.42726 240.73658 C 323.8274 243.01543 325.09982 245.36853 327.3352 246.11424 C 329.57056 246.85995 332.0009 245.74206 332.88934 243.5595 C 333.51806 244.64323 334.6594 245.32803 335.9115 245.3728 C 337.1226 245.2263 338.1634 244.4446 338.64165 243.32233 C 339.11988 242.20006 338.9628 240.90788 338.2296 239.93288 C 335.49726 236.13624 332.80923 232.3079 330.16606 228.44864 Z"
             stroke="black"
             stroke-linecap="round"
             stroke-linejoin="round"
             stroke-width=".9963199"
             id="path267"
             style="fill:#ffffff" />
        </g>
      </g>
    </g>
  </g>
</svg>
