<?xml version="1.0" encoding="UTF-8" standalone="no"?>
<!-- Generated by Microsoft Visio 11.0, SVG Export, v1.0 Sun.svg Page-1 -->

<svg
   width="496.46"
   height="494.6"
   viewBox="0 0 496.46 494.6"
   xml:space="preserve"
   color-interpolation-filters="sRGB"
   class="st2"
   id="svg2"
   version="1.1"
   xmlns="http://www.w3.org/2000/svg"
   xmlns:svg="http://www.w3.org/2000/svg"
   xmlns:rdf="http://www.w3.org/1999/02/22-rdf-syntax-ns#"
   xmlns:cc="http://creativecommons.org/ns#"
   xmlns:dc="http://purl.org/dc/elements/1.1/"
   xmlns:v="http://schemas.microsoft.com/visio/2003/SVGExtensions/"><metadata
   id="metadata29"><rdf:RDF><cc:Work
       rdf:about=""><dc:format>image/svg+xml</dc:format><dc:type
         rdf:resource="http://purl.org/dc/dcmitype/StillImage" /><dc:title>Sun</dc:title><dc:date>06/13/2013</dc:date><dc:creator><cc:Agent><dc:title>Christie L. Ward</dc:title></cc:Agent></dc:creator><dc:rights><cc:Agent><dc:title>Creative Commons Attribution-ShareAlike 3.0 Unported (CC BY-SA 3.0) license (http://creativecommons.org/licenses/by-sa/3.0/). No attribution required for heraldic or artistic use by members of the Society for Creative Anachronism, Inc.</dc:title></cc:Agent></dc:rights><dc:source>Microsoft Visio 2010</dc:source><cc:license
         rdf:resource="http://creativecommons.org/licenses/by-sa/4.0/" /></cc:Work><cc:License
       rdf:about="http://creativecommons.org/licenses/by-sa/4.0/"><cc:permits
         rdf:resource="http://creativecommons.org/ns#Reproduction" /><cc:permits
         rdf:resource="http://creativecommons.org/ns#Distribution" /><cc:requires
         rdf:resource="http://creativecommons.org/ns#Notice" /><cc:requires
         rdf:resource="http://creativecommons.org/ns#Attribution" /><cc:permits
         rdf:resource="http://creativecommons.org/ns#DerivativeWorks" /><cc:requires
         rdf:resource="http://creativecommons.org/ns#ShareAlike" /></cc:License></rdf:RDF></metadata><defs
   id="defs27" />&#10;	<title
   id="title4">Sun</title>&#10;	<v:documentProperties
   v:langID="1033"
   v:viewMarkup="false" />&#10;&#10;	<style
   type="text/css"
   id="style6">&#10;	&#10;		.st1 {fill:#ffff00;stroke:#000000;stroke-linecap:round;stroke-linejoin:round;stroke-width:2.16}&#10;		.st2 {fill:none;fill-rule:evenodd;font-size:12px;overflow:visible;stroke-linecap:square;stroke-miterlimit:3}&#10;	&#10;	</style>&#10;&#10;	<g
   id="g8"
   transform="translate(-1.0813,-1.9933)">&#10;		<title
   id="title10">Page-1</title>&#10;		<v:pageProperties
   v:drawingScale="1"
   v:pageScale="1"
   v:drawingUnits="19"
   v:shadowOffsetX="9"
   v:shadowOffsetY="-9" />&#10;		<g
   id="group1-1"
   transform="translate(2.16,-2.16)">&#10;			<title
   id="title13">Sun.16</title>&#10;			<g
   id="shape2-2">&#10;				<title
   id="title16">Sheet.2</title>&#10;				<path
   d="m 294.08,176.15 a 77.325,77.123 0 0 1 11.62,-23.84 52.988,52.849 -180 0 0 16.47,-54.7 57.828,57.677 0 0 1 3.52,-59.32 43.848,43.733 -180 0 0 -23.02,54.22 38.991,38.889 0 0 1 -15.35,40.82 115.95,115.64 -180 0 0 -21.24,18.89 L 247.67,5.59 V 4.32 l -0.1,0.64 -0.1,-0.64 v 1.27 l -19.93,158.67 a 77.227,77.222 135.7 0 1 -8.63,-25.68 52.92,52.917 -44.3 0 0 -26.48,-50.69 57.754,57.751 135.7 0 1 -38.97,-44.96 43.792,43.789 -44.3 0 0 21.46,54.91 38.942,38.939 135.7 0 1 17.58,39.96 115.8,115.79 -44.3 0 0 -1.84,30.47 l -116.8,-91.16 -0.9,-0.9 0.39,0.51 -0.51,-0.4 0.9,0.9 94.88,122.49 a 77.325,77.123 1.9 0 1 -20.75,-11.43 52.988,52.85 -178.1 0 0 -54.27,-18.24 57.828,57.677 1.9 0 1 -59.33,-5.47 43.848,43.734 -178.1 0 0 53.57,24.75 38.991,38.889 1.9 0 1 40.4,16.66 115.95,115.64 -178.1 0 0 22.84,25.88 L 1.28,250.57 H 0 l 0.64,0.1 -0.64,0.1 h 1.28 l 1.79,0.22 -1.79,0.23 H 0 l 0.64,0.1 -0.64,0.1 h 1.28 l 148.24,18.51 a 77.233,77.215 137.6 0 1 -13.99,2.95 52.925,52.912 -42.4 0 0 -51.54,24.79 57.759,57.746 137.6 0 1 -46.24,37.47 43.796,43.786 -42.4 0 0 55.6,-19.64 38.945,38.936 137.6 0 1 40.53,-16.25 115.81,115.78 -42.4 0 0 34.68,2.6 l -95.42,122.31 -0.91,0.9 0.51,-0.39 -0.39,0.5 0.9,-0.9 127.97,-99.13 a 75.479,75.281 0 0 1 -11.75,24.54 52.988,52.849 -180 0 0 -16.47,54.7 57.828,57.677 0 0 1 -3.52,59.32 43.848,43.733 -180 0 0 23.02,-54.22 38.991,38.889 0 0 1 15.35,-40.82 115.95,115.64 -180 0 0 21.24,-18.89 l 18.42,146.62 v 1.28 l 0.1,-0.64 0.1,0.64 v -1.28 l 19.92,-158.66 a 77.227,77.222 135.7 0 1 8.63,25.68 52.92,52.917 -44.3 0 0 26.48,50.69 57.754,57.751 135.7 0 1 38.97,44.96 43.792,43.789 -44.3 0 0 -21.46,-54.91 38.942,38.939 135.7 0 1 -17.58,-39.97 115.8,115.79 -44.3 0 0 1.85,-30.46 l 116.83,91.16 0.9,0.9 -0.39,-0.51 0.51,0.4 -0.9,-0.91 -94.88,-122.48 a 77.325,77.123 1.9 0 1 20.75,11.43 52.988,52.85 -178.1 0 0 54.27,18.23 57.828,57.677 1.9 0 1 59.33,5.48 43.848,43.734 -178.1 0 0 -53.57,-24.75 38.991,38.889 1.9 0 1 -40.4,-16.66 115.95,115.64 -178.1 0 0 -22.83,-25.88 l 149.79,-18.71 h 1.28 l -0.64,-0.1 0.64,-0.1 h -1.28 l -1.79,-0.23 1.79,-0.22 h 1.28 l -0.64,-0.1 0.64,-0.1 h -1.28 L 345.65,232.05 a 77.233,77.215 137.6 0 1 13.99,-2.94 52.925,52.912 -42.4 0 0 51.54,-24.79 57.759,57.746 137.6 0 1 46.24,-37.47 43.796,43.786 -42.4 0 0 -55.6,19.64 38.945,38.936 137.6 0 1 -40.53,16.25 115.81,115.78 -42.4 0 0 -34.68,-2.6 l 95.43,-122.31 0.9,-0.9 -0.51,0.39 0.4,-0.5 -0.91,0.9 -127.41,98.69 a 87.75,87.75 -180 0 0 -0.43,-0.26 z"
   class="st1"
   id="path18" />&#10;			</g>&#10;			<g
   id="shape3-4"
   transform="translate(153.82,-152.87)">&#10;				<title
   id="title21">Sheet.3</title>&#10;				<path
   d="m 8.06,441.85 a 93.763,93.763 -180 0 0 169.74,3.56 93.763,93.763 -180 0 0 9.73,-41.58 93.765,93.765 -180 0 0 -187.53,0 93.763,93.763 -180 0 0 8.06,38.02 z"
   class="st1"
   id="path23" />&#10;			</g>&#10;		</g>&#10;	</g>&#10;</svg>
