<?xml version="1.0" encoding="UTF-8"?>
<!DOCTYPE svg PUBLIC "-//W3C//DTD SVG 1.1//EN" "http://www.w3.org/Graphics/SVG/1.1/DTD/svg11.dtd" >
<svg version="1.1" xmlns="http://www.w3.org/2000/svg" xmlns:xlink="http://www.w3.org/1999/xlink"
xmlns:dc="http://purl.org/dc/elements/1.1/"
xmlns:cc="http://creativecommons.org/ns#"
xmlns:rdf="http://www.w3.org/1999/02/22-rdf-syntax-ns#" x="0" y="0" width="636" height="733" viewBox="0, 0, 636, 733">
<metadata
    id="metadata1917">
    <rdf:RDF>
        <cc:Work
            rdf:about="">
            <dc:format>image/svg+xml</dc:format>
            <dc:type
                rdf:resource="http://purl.org/dc/dcmitype/StillImage" />
            <cc:license
                rdf:resource="" />
            <dc:title />
            <dc:creator>
                <cc:Agent>
                    <dc:title>https://commons.wikimedia.org/wiki/User:Zigeuner</dc:title>
                </cc:Agent>
            </dc:creator>
        </cc:Work>
    </rdf:RDF>
</metadata>
  <g id="Calque_1">
    <g id="path2165">
      <path d="M388.434,487.208 C388.085,489.447 402.532,488.491 437.787,495.336 C476.032,502.761 483.282,511.016 540.742,539.056 C598.203,567.096 635.812,532.913 635.812,532.913 C635.812,532.913 567.768,525.473 540.451,471.575 C513.135,417.677 500.419,406.473 444.769,372.736 C447.416,356.705 447.795,341.292 471.353,314.197 C496.909,284.803 519.041,289.208 572.066,253.488 C625.091,217.769 614.278,168.121 614.278,168.121 C614.278,168.121 573.81,223.303 513.454,220 C453.097,216.696 437.032,222.102 382.853,251.223 C374.154,244.291 359.998,230.699 348.301,196.759 C335.611,159.94 350.494,142.984 346.059,79.224 C341.623,15.464 293.201,0 293.201,0 C293.201,0 320.777,62.622 287.737,113.217 C254.697,163.811 268.038,234.173 256.628,254.01 C198.78,218.308 182.715,212.902 122.359,216.205 C62.002,219.508 21.534,164.327 21.534,164.327 C21.534,164.327 10.721,213.975 63.746,249.694 C116.771,285.413 138.903,281.008 164.459,310.402 C188.017,337.498 183.999,352.911 191.043,365.833 C135.393,396.463 122.677,407.666 95.361,461.564 C68.044,515.462 0,522.902 0,522.902 C0,522.902 37.609,557.086 95.07,529.045 C152.53,501.005 159.78,479.644 198.025,472.219 C233.28,465.374 249.67,481.759 258.31,482.762 C255.989,552.087 259.338,568.697 292.378,619.292 C325.418,669.886 297.842,732.508 297.842,732.508 C297.842,732.508 346.263,717.044 350.699,653.284 C355.135,589.524 348.119,577.811 360.809,540.992 C372.506,507.051 390.548,488.025 388.434,487.208 z" fill="#FFFF00"/>
      <path d="M388.434,487.208 C388.085,489.447 402.532,488.491 437.787,495.336 C476.032,502.761 483.282,511.016 540.742,539.056 C598.203,567.096 635.812,532.913 635.812,532.913 C635.812,532.913 567.768,525.473 540.451,471.575 C513.135,417.677 500.419,406.473 444.769,372.736 C447.416,356.705 447.795,341.292 471.353,314.197 C496.909,284.803 519.041,289.208 572.066,253.488 C625.091,217.769 614.278,168.121 614.278,168.121 C614.278,168.121 573.81,223.303 513.454,220 C453.097,216.696 437.032,222.102 382.853,251.223 C374.154,244.291 359.998,230.699 348.301,196.759 C335.611,159.94 350.494,142.984 346.059,79.224 C341.623,15.464 293.201,0 293.201,0 C293.201,0 320.777,62.622 287.737,113.217 C254.697,163.811 268.038,234.173 256.628,254.01 C198.78,218.308 182.715,212.902 122.359,216.205 C62.002,219.508 21.534,164.327 21.534,164.327 C21.534,164.327 10.721,213.975 63.746,249.694 C116.771,285.413 138.903,281.008 164.459,310.402 C188.017,337.498 183.999,352.911 191.043,365.833 C135.393,396.463 122.677,407.666 95.361,461.564 C68.044,515.462 0,522.902 0,522.902 C0,522.902 37.609,557.086 95.07,529.045 C152.53,501.005 159.78,479.644 198.025,472.219 C233.28,465.374 249.67,481.759 258.31,482.762 C255.989,552.087 259.338,568.697 292.378,619.292 C325.418,669.886 297.842,732.508 297.842,732.508 C297.842,732.508 346.263,717.044 350.699,653.284 C355.135,589.524 348.119,577.811 360.809,540.992 C372.506,507.051 390.548,488.025 388.434,487.208 z" fill-opacity="0" stroke="#000000" stroke-width="3"/>
    </g>
    <g id="path2243">
      <path d="M296.38,2.945 C307.473,18.198 324.113,38.998 325.499,63.957 C326.886,88.916 324.113,111.103 313.02,142.995 C301.927,174.888 304.7,219.26 311.633,251.153 C318.566,283.045 333.819,337.124 325.499,370.403" fill="#FFFF00"/>
      <path d="M296.38,2.945 C307.473,18.198 324.113,38.998 325.499,63.957 C326.886,88.916 324.113,111.103 313.02,142.995 C301.927,174.888 304.7,219.26 311.633,251.153 C318.566,283.045 333.819,337.124 325.499,370.403" fill-opacity="0" stroke="#000000" stroke-width="3"/>
    </g>
    <g id="path2245">
      <path d="M614.714,170.451 C606.712,187.53 596.532,212.145 575.344,225.41 C554.157,238.676 533.389,246.959 500.104,252.644 C466.819,258.328 429.301,282.181 404.719,303.651 C380.138,325.122 359.174,361.71 326.014,370.493" fill="#FFFF00"/>
      <path d="M614.714,170.451 C606.712,187.53 596.532,212.145 575.344,225.41 C554.157,238.676 533.389,246.959 500.104,252.644 C466.819,258.328 429.301,282.181 404.719,303.651 C380.138,325.122 359.174,361.71 326.014,370.493" fill-opacity="0" stroke="#000000" stroke-width="3"/>
    </g>
    <g id="path2247">
      <path d="M633.238,532.672 C614.541,535.15 588.324,539.859 565.724,529.177 C543.123,518.496 524.943,505.479 502.198,480.522 C479.454,455.565 439.128,436.846 407.788,427.733 C376.448,418.621 353.306,394.494 328.02,371.313" fill="#FFFF00"/>
      <path d="M633.238,532.672 C614.541,535.15 588.324,539.859 565.724,529.177 C543.123,518.496 524.943,505.479 502.198,480.522 C479.454,455.565 439.128,436.846 407.788,427.733 C376.448,418.621 353.306,394.494 328.02,371.313" fill-opacity="0" stroke="#000000" stroke-width="3"/>
    </g>
    <g id="path2249">
      <path d="M324.794,370.813 C332.211,388.153 339.58,429.844 338.205,454.804 C336.77,480.832 311.836,495.544 309.82,527.69 C307.574,563.509 326.321,583.546 325.976,616.182 C325.631,648.818 334.247,676.782 299.311,730.945" fill="#FFFF00"/>
      <path d="M324.794,370.813 C332.211,388.153 339.58,429.844 338.205,454.804 C336.77,480.832 311.836,495.544 309.82,527.69 C307.574,563.509 326.321,583.546 325.976,616.182 C325.631,648.818 334.247,676.782 299.311,730.945" fill-opacity="0" stroke="#000000" stroke-width="3"/>
    </g>
    <g id="path2251">
      <path d="M323.541,370.543 C313.251,386.349 290.052,400.996 267.231,411.198 C244.41,421.401 222.511,411.974 190.33,422.2 C156.579,432.925 132.758,456.897 109.599,484.462 C88.605,509.451 56.696,533.51 4.612,526.521" fill="#FFFF00"/>
      <path d="M323.541,370.543 C313.251,386.349 290.052,400.996 267.231,411.198 C244.41,421.401 222.511,411.974 190.33,422.2 C156.579,432.925 132.758,456.897 109.599,484.462 C88.605,509.451 56.696,533.51 4.612,526.521" fill-opacity="0" stroke="#000000" stroke-width="3"/>
    </g>
    <g id="path2253">
      <path d="M327.443,369.451 C308.614,368.365 275.047,362.506 254.861,347.76 C234.676,333.013 237.961,316.08 214.114,292.173 C189.543,267.539 144.101,247.4 111.92,241.964 C81.47,236.82 43.101,221.117 22.632,172.79" fill="#FFFF00"/>
      <path d="M327.443,369.451 C308.614,368.365 275.047,362.506 254.861,347.76 C234.676,333.013 237.961,316.08 214.114,292.173 C189.543,267.539 144.101,247.4 111.92,241.964 C81.47,236.82 43.101,221.117 22.632,172.79" fill-opacity="0" stroke="#000000" stroke-width="3"/>
    </g>
  </g>
</svg>
