<?xml version="1.0" encoding="UTF-8" standalone="no"?>
<svg
   version="1.0"
   id="svg1897"
   height="177.3"
   width="177.3"
   xmlns="http://www.w3.org/2000/svg"
   xmlns:svg="http://www.w3.org/2000/svg"
   xmlns:rdf="http://www.w3.org/1999/02/22-rdf-syntax-ns#"
   xmlns:cc="http://creativecommons.org/ns#"
   xmlns:dc="http://purl.org/dc/elements/1.1/">
  <defs
     id="defs3" />
  <metadata
     id="metadata1902">
    <rdf:RDF>
      <cc:Work
         rdf:about="">
        <dc:format>image/svg+xml</dc:format>
        <dc:type
           rdf:resource="http://purl.org/dc/dcmitype/StillImage" />
        <dc:creator>
          <cc:Agent>
            <dc:title>https://commons.wikimedia.org/wiki/User:Bruno_Vallette</dc:title>
          </cc:Agent>
        </dc:creator>
      </cc:Work>
    </rdf:RDF>
  </metadata>
  <g
     id="layer1"
     transform="translate(-3.35007,-3.85532)">
    <g
       transform="matrix(0.754398,0,0,0.754398,-21.1595,-18.7689)"
       id="g2129"
       style="display:inline;opacity:1">
      <path
         style="display:inline;overflow:visible;visibility:visible;opacity:1;fill:#ffff00;fill-opacity:1;fill-rule:nonzero;stroke:#7f7f7f;stroke-width:2.43407;stroke-linecap:butt;stroke-linejoin:miter;stroke-miterlimit:4;stroke-dasharray:none;stroke-dashoffset:0;stroke-opacity:1;marker:none;marker-start:none;marker-mid:none;marker-end:none"
         d="m 95.3735,15.5862 c -3.5732,13.9743 0.3652,25.4779 7.1935,36.3174 5.281,8.382 8.751,17.3144 8.587,26.9117 -2.403,1.3546 -4.693,2.8146 -6.905,4.3858 l -55.1901,-36.658 37.052,54.5819 c -0.6657,0.919 -1.3142,1.874 -1.9387,2.82 C 73.663,99.2105 63.7977,98.2709 54.397,100.09 41.1077,102.661 29.8253,99.8774 18.0439,92.8551 c 7.3547,12.4089 18.3273,17.7549 30.8209,20.5909 9.6803,2.197 18.4304,6.052 25.1079,12.982 -0.7265,2.611 -1.3265,5.252 -1.7829,7.933 L 7.22705,147.534 72.0434,159.93 c 0.1781,1.114 0.3928,2.227 0.6205,3.34 -10.7817,4.079 -18.4473,10.375 -23.8099,18.311 -7.5792,11.215 -17.4719,17.227 -30.7676,20.592 13.9741,3.573 25.4587,-0.412 36.298,-7.24 8.382,-5.281 17.3145,-8.751 26.9117,-8.587 1.3546,2.403 2.8146,4.693 4.3858,6.905 L 49.0432,248.487 103.652,211.37 c 0.911,0.66 1.835,1.339 2.773,1.958 -4.734,10.509 -5.654,20.421 -3.836,29.821 2.572,13.29 -0.231,24.526 -7.2532,36.307 12.4092,-7.355 17.7552,-18.328 20.5912,-30.821 2.197,-9.68 6.052,-18.43 12.982,-25.108 2.617,0.729 5.247,1.326 7.933,1.783 l 13.173,64.963 12.395,-64.816 c 1.115,-0.179 2.227,-0.393 3.341,-0.621 4.077,10.785 10.378,18.448 18.31,23.81 11.215,7.579 17.227,17.472 20.594,30.768 3.573,-13.975 -0.413,-25.459 -7.242,-36.299 -5.291,-8.398 -8.722,-17.303 -8.538,-26.931 2.385,-1.347 4.658,-2.805 6.856,-4.366 l 55.238,36.639 -37.072,-54.628 c 0.651,-0.901 1.3,-1.828 1.912,-2.754 10.511,4.747 20.416,5.654 29.822,3.836 13.289,-2.572 24.524,0.231 36.307,7.253 -7.356,-12.409 -18.31,-17.708 -30.802,-20.544 -9.67,-2.195 -18.41,-6.125 -25.081,-13.048 0.724,-2.606 1.28,-5.237 1.735,-7.913 l 64.983,-13.127 -64.835,-12.442 c -0.179,-1.115 -0.393,-2.227 -0.621,-3.341 10.792,-4.075 18.447,-10.374 23.81,-18.31 7.579,-11.215 17.491,-17.181 30.786,-20.5461 -13.974,-3.5736 -25.477,0.3651 -36.316,7.1941 -8.399,5.291 -17.304,8.722 -26.932,8.538 -1.347,-2.385 -2.804,-4.658 -4.367,-6.856 l 36.659,-55.1909 -54.648,37.0248 c -0.9,-0.6514 -1.828,-1.2998 -2.754,-1.9115 4.742,-10.5062 5.674,-20.3745 3.855,-29.7752 -2.571,-13.2893 0.213,-24.5718 7.235,-36.3531 -12.409,7.3546 -17.708,18.308 -20.544,30.8016 -2.2,9.6912 -6.122,18.4697 -13.075,25.1464 -2.599,-0.7217 -5.219,-1.3481 -7.887,-1.8021 L 150.012,4.7269 137.571,69.5626 c -1.115,0.1781 -2.228,0.3927 -3.341,0.6205 C 130.152,59.3985 123.856,51.7367 115.92,46.3732 104.705,38.794 98.7386,28.882 95.3735,15.5862 Z"
         id="path2140" />
      <path
         d="m 133,173 h 35 v 22 h -35 z"
         fill="#000000"
         stroke="#f0f0f0"
         opacity="0"
         id="path3" />
    </g>
  </g>
</svg>
