<?xml version="1.0" encoding="UTF-8" standalone="no"?>
<!DOCTYPE svg PUBLIC "-//W3C//DTD SVG 1.1//EN" "http://www.w3.org/Graphics/SVG/1.1/DTD/svg11.dtd">
<svg xmlns:dc="http://purl.org/dc/elements/1.1/" xmlns:xl="http://www.w3.org/1999/xlink" version="1.1" xmlns="http://www.w3.org/2000/svg" viewBox="34.68185 62.66667 293.81815 247.83333" width="293.81815" height="247.83333">
  <defs>
    <clipPath id="artboard_clip_path">
      <path d="M 34.68185 62.66667 L 328.5 62.66667 L 328.5 310.5 L 34.68185 310.5 Z"/>
    </clipPath>
  </defs>
  <metadata> Produced by OmniGraffle 7.8 
    <dc:date>2018-07-23 01:15:12 +0000</dc:date><dc:title>Traceable heraldic art http://heraldicart.org/credits.html</dc:title>
  </metadata>
  <g id="Sunburst_(1)" fill-opacity="1" stroke-dasharray="none" stroke="none" stroke-opacity="1" fill="#ffff00">
    <title>Sunburst (1)</title>
    <g id="Sunburst_(1): Layer 2" >
      <title>Layer 2</title>
      <g id="Group_3">
        <g id="Graphic_29">
          <path d="M 186.35657 63.60517 C 186.22747 64.12158 185.96926 65.79991 185.84016 67.22004 C 185.58196 68.64017 184.80734 72.64235 183.90362 76.25722 C 181.96708 84.77799 179.64324 98.07555 176.28657 120.15209 C 174.73734 130.09299 173.1881 139.13017 172.9299 140.16299 C 172.5426 141.19581 171.76798 147.26363 170.99337 153.71876 C 170.08965 160.04479 169.31503 166.75812 168.92772 168.56556 C 168.66952 170.373 168.024 174.89158 167.5076 178.50645 C 167.12029 182.25043 166.34567 185.3489 165.95837 185.3489 C 165.44195 185.3489 162.8599 180.7012 160.14875 174.89158 C 155.63016 165.4671 155.24285 163.91786 156.01747 157.33363 C 156.53388 153.33145 157.3085 149.45838 157.6958 148.68376 C 160.01965 145.06889 161.18157 134.99889 160.01965 127.76914 C 159.50324 124.15427 157.17939 118.99017 153.69362 113.82607 C 150.72426 109.30748 147.3676 103.75607 146.46388 101.43222 C 144.26913 96.13902 144.26913 81.55043 146.46388 77.41914 C 148.27131 74.19158 147.6258 72.12594 145.30195 73.54607 C 144.52734 74.06248 141.94529 78.06466 139.36324 82.58325 C 136.13567 88.52196 134.84465 92.26594 134.84465 96.52632 C 134.84465 105.95081 137.2976 117.18273 140.91247 124.02517 C 145.43106 132.54594 145.68926 142.74504 141.42888 154.88068 C 139.10503 161.72312 140.26695 172.18043 144.39824 180.443 C 148.14221 187.93094 149.43324 201.2285 145.94747 196.3226 C 145.04375 194.90248 143.75272 191.67492 143.23631 189.22197 C 142.7199 186.76902 141.17067 182.25043 139.87965 179.28107 C 138.58862 176.3117 137.1685 172.82594 137.03939 171.53491 C 136.78118 170.24389 135.87747 167.40363 134.97375 165.338 C 132.9081 160.17389 119.35234 119.24837 119.35234 118.08645 C 119.35234 117.57004 118.70683 115.5044 117.80311 113.43876 C 117.02849 111.50222 116.25388 109.17837 116.25388 108.53286 C 115.86657 104.78889 109.66965 85.93991 108.76593 85.93991 C 107.86221 85.93991 107.86221 87.87645 109.79875 104.65978 C 110.31516 108.92017 110.83157 114.08427 110.96067 116.27902 C 111.21888 118.34466 112.639 130.8676 114.18824 144.03607 C 115.60836 157.20453 117.1576 170.24389 117.4158 173.08415 C 118.70683 183.41235 119.61054 189.86748 120.25606 192.44953 C 121.28888 196.3226 112.3808 187.28543 108.24952 180.443 C 105.66747 176.1826 104.63465 172.05132 103.73093 162.75594 C 103.21452 156.0426 101.92349 149.20017 101.01977 147.65094 C 100.11606 145.9726 95.85567 140.8085 91.59529 136.16081 C 82.1708 125.7035 77.91041 117.95735 77.78131 110.7276 C 77.78131 107.75825 77.2649 105.04709 76.74849 104.65978 C 74.941055 103.49786 73.908235 108.40376 74.03734 118.34466 C 74.16644 128.80196 76.10298 134.99889 81.00888 140.9376 C 86.81849 147.78004 89.78785 155.268 88.88413 160.303 C 88.49682 162.75594 88.49682 168.43645 89.01323 173.08415 C 89.65875 179.66838 90.69157 182.25043 93.66093 185.6071 C 95.72657 187.93094 97.4049 190.25479 97.4049 190.6421 C 97.4049 191.0294 98.82503 193.09504 100.50336 195.03158 C 102.1817 196.96812 104.37644 200.19568 105.15106 202.00312 C 106.05477 203.81056 107.2167 206.3926 107.86221 207.55453 C 109.41144 210.5239 109.28234 216.3335 107.86221 216.3335 C 107.2167 216.3335 106.18388 215.17158 105.79657 213.75145 C 105.40926 212.33133 96.37208 198.38825 94.69375 196.96812 C 93.66093 196.0644 84.49465 180.5721 84.49465 179.79748 C 84.49465 179.41017 82.1708 175.5371 79.33054 171.2767 C 76.49029 167.01632 74.16644 163.01415 74.16644 162.23953 C 74.16644 161.59402 73.39182 160.17389 72.359 159.27017 C 71.45529 158.23735 69.389645 155.13889 67.84041 152.29863 C 66.420286 149.58748 63.70913 144.93979 61.901696 142.09953 C 60.09426 139.25927 58.02862 135.6444 57.1249 133.96607 C 56.350285 132.41684 54.93016 131.12581 54.02644 131.12581 C 52.60631 131.12581 52.60631 131.90043 54.02644 135.2571 C 55.05926 137.58094 56.9958 143.51966 58.415926 148.55466 C 60.73977 157.07543 66.54939 173.85876 69.00234 179.53927 C 69.64785 180.9594 70.80977 184.44517 71.71349 187.28543 C 72.61721 190.12568 74.68285 196.0644 76.36118 200.4539 C 77.91041 204.84338 79.33054 208.97466 79.33054 209.62017 C 79.33054 210.39479 80.49247 213.75145 81.91259 217.10812 C 83.33272 220.4648 84.36554 223.69235 84.23644 224.20876 C 83.59093 226.1453 70.80977 219.43197 67.96952 215.688 C 66.29118 213.62235 64.09644 208.84556 62.93452 204.84338 C 61.901696 200.8412 60.48157 197.35543 59.96516 196.96812 C 59.44875 196.58081 58.02862 194.38607 56.866696 192.19133 C 55.70477 189.86748 53.12272 187.15633 51.18618 186.1235 C 46.53849 183.79966 34.91926 182.12133 36.081182 183.92876 C 36.46849 184.70338 37.630413 185.3489 38.663234 185.3489 C 39.56695 185.3489 42.665413 187.93094 45.376567 191.0294 C 49.12054 195.28979 50.92798 198.90466 52.0899 204.32697 C 54.93016 216.5917 58.15772 221.3685 67.0658 226.1453 C 70.03516 227.69453 73.52093 231.0512 75.07016 233.89145 C 81.00888 244.21966 78.55593 242.92863 61.901696 226.91992 C 55.05926 220.4648 48.862336 215.04248 48.08772 215.04248 C 46.9258 215.04248 57.383106 232.72953 59.06144 234.92428 C 60.73977 237.11902 63.96734 242.28312 66.29118 246.5435 C 68.61503 250.6748 71.06798 254.80607 71.71349 255.5807 C 73.52093 257.77543 79.33054 266.6835 79.33054 267.32902 C 79.33054 267.71633 77.65221 267.97453 75.58657 267.97453 C 71.58439 267.97453 70.29336 269.78197 70.29336 275.33338 C 70.29336 278.17364 70.55157 278.43184 72.2299 277.0117 C 75.32836 274.42966 75.84477 276.2371 73.52093 282.82133 C 71.32618 289.40556 71.84259 293.79505 74.941055 293.79505 C 75.97388 293.79505 76.74849 294.69876 76.74849 295.7316 C 76.74849 300.37928 81.65439 303.34864 89.65875 303.60684 C 96.37208 303.86505 97.66311 303.47774 99.72875 301.0248 L 101.92349 298.05543 L 104.24734 301.1539 C 105.66747 302.96133 107.86221 304.12325 110.05695 304.12325 C 111.99349 304.12325 114.83375 304.89787 116.25388 305.9307 C 120.38516 308.77094 129.29324 308.25453 131.61708 305.02697 C 132.6499 303.47774 135.10285 302.0576 137.03939 301.7994 C 138.97593 301.5412 141.04157 300.7666 141.42888 299.99197 C 141.94529 299.08825 143.23631 299.21735 145.17285 300.25017 C 146.72208 301.0248 148.78772 301.4121 149.94965 301.0248 C 150.98247 300.63748 152.7899 301.4121 153.95183 302.70312 C 157.4376 306.7053 163.50542 307.3508 166.60388 303.99415 C 167.8949 302.57402 168.92772 300.8957 168.66952 300.37928 C 168.54042 299.99197 169.44413 299.60466 170.86426 299.47556 C 174.35003 299.21735 176.15747 297.79723 176.15747 295.21517 C 176.15747 291.213 177.8358 291.0839 180.15965 295.08607 C 181.57978 297.40992 183.77452 298.95915 185.45285 299.08825 C 190.48785 299.34646 190.87516 299.47556 194.10272 302.70312 C 196.55567 305.15607 197.9758 305.54338 202.23619 305.02697 C 205.07644 304.63966 208.4331 303.34864 209.72414 302.1867 C 211.01516 301.0248 212.8226 300.37928 213.5972 300.8957 C 216.05016 302.3158 221.08516 300.37928 221.98888 297.66812 C 222.8926 294.69876 225.21644 294.18235 225.21644 297.0226 C 225.21644 298.05543 226.76567 299.34646 228.83132 299.73376 C 230.76785 300.25017 233.99542 302.0576 235.93196 303.73594 C 240.06324 307.0926 244.06542 307.4799 247.8094 304.89787 C 252.7153 301.5412 255.81375 301.4121 261.62337 303.99415 C 270.40234 307.86723 272.33888 307.99633 275.95375 304.63966 C 277.8903 302.96133 279.95593 301.5412 280.73055 301.5412 C 283.0544 301.5412 284.2163 296.1189 283.6999 287.2108 C 283.3126 280.6266 283.6999 278.30274 285.24914 277.0117 C 286.79837 275.7207 287.18568 275.8498 287.31478 277.78633 C 287.44388 279.20646 287.44388 281.2721 287.31478 282.43402 C 286.92747 285.40338 288.7349 285.40338 292.22068 282.43402 C 294.0281 281.0139 295.31914 278.30274 295.70645 274.68787 C 296.22286 269.91107 295.96465 268.74915 293.1244 266.5544 C 289.50952 263.71415 289.89683 262.29402 296.48106 253.64415 C 298.5467 251.0621 300.09593 248.48004 300.09593 247.96363 C 300.09593 246.8017 311.45696 229.63107 314.039 226.91992 C 316.62106 224.07966 318.4285 220.07748 317.52478 219.17376 C 317.00837 218.65735 316.10465 219.30286 315.45914 220.5939 C 313.9099 223.30504 296.22286 237.50633 295.44824 236.6026 C 295.06093 236.3444 296.73927 234.40786 299.0631 232.47133 C 304.87273 227.69453 309.1331 220.4648 309.1331 215.30069 C 309.1331 205.618 314.49487 196.2009 316.19693 194.36726 C 317.899 192.53362 324.4963 189.22197 325.91645 189.22197 C 330.17683 189.22197 328.8858 186.76902 324.109 185.9944 C 316.36286 184.44517 307.32568 191.54581 304.0981 201.4867 C 301.25786 210.653 299.0631 214.26786 294.0281 219.04466 C 288.9931 223.95056 283.5708 227.30722 282.538 226.2744 C 282.15068 225.8871 283.0544 222.27222 284.60362 218.14094 C 286.15286 213.88056 288.6058 206.77992 290.15504 202.13222 C 291.70427 197.48453 293.2535 193.48235 293.7699 193.09504 C 294.1572 192.70774 295.83555 188.70556 297.38478 184.05786 C 299.0631 179.41017 301.77427 172.69684 303.4526 168.95286 C 305.13093 165.338 309.2622 155.13889 309.52042 153.71876 C 310.03683 151.1367 312.23157 145.4562 314.4263 141.19581 C 315.07183 139.77568 315.07183 138.61376 314.1681 138.09735 C 313.3935 137.71004 312.748 137.58094 312.48978 137.71004 C 312.36068 137.96825 310.81145 140.5503 309.1331 143.39055 C 307.32568 146.23081 303.1944 152.29863 299.96683 156.94632 C 296.61016 161.59402 291.57516 168.95286 288.864 173.21325 C 281.89247 184.57427 273.8881 196.0644 272.20978 197.61363 C 271.43516 198.25915 269.36952 201.2285 267.6912 204.06876 L 264.59273 209.23286 L 264.20542 204.97248 C 263.5599 198.25915 269.62773 185.6071 276.34106 179.53927 C 279.56862 176.69902 284.34542 168.95286 285.63645 164.69248 C 286.41106 162.23953 287.44388 154.10607 287.8312 146.74722 C 288.7349 131.77132 290.15504 127.25273 296.09375 121.05581 C 299.70862 117.44094 299.83773 116.92453 297.51388 116.92453 C 293.899 116.92453 290.15504 119.24837 283.5708 125.3162 C 276.47016 131.90043 274.40452 136.67722 275.17914 144.81068 C 276.47016 157.59184 271.17696 167.40363 258.0085 176.69902 C 254.13542 179.41017 249.87503 184.83248 248.4549 186.63992 L 245.87285 189.86748 L 246.51837 185.3489 C 247.03478 181.3467 247.8094 176.1826 250.26234 162.75594 C 250.64965 160.5612 251.29516 157.07543 251.55337 155.00979 C 251.81157 152.81504 253.619 143.51966 255.42644 134.35338 C 257.23388 125.05799 258.9122 115.5044 259.17042 113.05145 C 259.55773 110.5985 260.07414 107.62914 260.46144 106.59632 C 261.75247 103.23966 262.39798 93.68607 261.49427 93.16966 C 260.97785 92.78235 258.9122 97.30094 256.97568 103.11055 C 254.91003 108.92017 251.94068 116.40812 250.26234 119.63568 C 248.584 122.99235 247.03478 127.12363 246.64747 128.93107 C 246.38926 130.7385 245.22734 134.22427 244.06542 136.54812 C 240.70875 144.03607 231.67157 166.2417 227.5403 177.47363 C 223.5381 188.31825 222.3762 188.96376 220.82696 181.3467 C 220.43965 179.66838 219.53593 175.6662 218.76132 172.56774 C 217.21208 166.1126 217.3023 159.05753 218.1347 157.64126 C 218.45486 157.09654 220.56875 152.29863 222.24708 150.4912 C 224.05452 148.68376 226.89478 144.81068 228.7022 141.71222 C 231.67157 136.80632 231.92978 135.12799 231.28426 127.51094 C 230.89696 122.73414 229.47683 116.27902 228.0567 113.05145 C 226.63657 109.82389 225.21644 102.33594 224.70003 96.13902 C 223.92542 86.84363 224.78598 82.08138 226.4643 80.40305 C 227.62623 79.37023 228.96042 77.93555 230.38055 77.54825 C 233.479 76.515425 232.5753 74.32068 229.08952 74.32068 C 225.21644 74.32068 218.6322 80.77581 215.40465 87.87645 C 211.91888 95.2353 211.53157 103.36876 214.24273 111.11491 C 215.27555 113.95517 216.17926 119.50658 216.17926 123.37966 C 216.17926 131.25491 214.50093 134.61158 206.10926 144.03607 C 200.68696 150.10389 198.87952 156.0426 199.39593 166.88722 C 199.78324 175.408 199.52503 178.24825 198.234 176.95722 C 196.94298 175.5371 196.55567 171.66402 194.36093 125.96171 C 193.58631 109.30748 192.4244 93.29876 191.77888 90.4585 C 191.13337 87.61825 190.10055 80.5176 189.58413 74.57889 C 189.19683 68.76927 188.164 63.60517 187.6476 63.21786 C 187.00208 62.83055 186.35657 62.959655 186.35657 63.60517 Z" fill="#cccccc"/>
        </g>
        <g id="Graphic_28">
          <path d="M 188.42221 84.13248 C 188.80952 88.26376 189.32593 92.65325 189.71324 93.68607 C 189.97144 94.71889 190.48785 105.1762 191.00426 116.92453 C 191.64978 138.74286 194.49003 172.82594 197.07208 191.1585 C 198.62131 202.26133 200.42875 221.88492 199.91234 222.53043 C 199.78324 222.78863 198.3631 221.75581 196.94298 220.33569 C 194.36093 217.75363 192.4244 216.97902 189.71324 217.62453 C 189.06772 217.75363 185.06555 217.88274 180.93426 217.75363 C 174.22093 217.62453 172.9299 218.01184 169.44413 221.4976 C 167.2494 223.69235 165.18375 225.24158 164.79644 224.85428 C 164.40913 224.46697 164.79644 219.94838 165.70016 214.78427 C 166.47478 209.62017 167.3785 202.77774 167.6367 199.55017 C 168.024 196.3226 168.54042 191.1585 168.92772 188.06004 C 169.31503 184.96158 169.96054 179.79748 170.34785 176.44081 C 170.73516 173.21325 171.50978 167.53274 172.15529 164.04697 C 173.70452 155.7844 176.15747 138.61376 176.80298 131.38402 C 177.06119 128.41466 177.7067 124.79979 178.094 123.37966 C 178.61042 121.95953 179.12683 118.34466 179.38503 115.2462 C 179.51413 112.27684 180.03054 108.92017 180.41785 107.88735 C 180.80516 106.85453 182.09619 100.1412 183.2581 93.04055 C 186.61478 72.64235 187.08797 70.55896 187.08797 70.55896 C 187.08797 70.55896 187.26029 71.60953 188.42221 84.13248 Z" fill="#ff0000"/>
        </g>
        <g id="Graphic_27">
          <path d="M 223.2799 82.84145 C 220.69785 87.61825 221.73067 104.91799 225.21644 112.40594 C 227.6694 117.95735 229.47683 126.99453 229.34773 132.80414 C 229.34773 134.99889 226.50747 140.5503 222.7635 146.23081 C 219.14862 151.52402 215.79196 157.46273 215.27555 159.27017 C 214.50093 162.75594 215.79196 171.40581 219.01952 184.18697 C 220.05234 188.18915 220.69785 192.57863 220.56875 193.99876 C 220.18144 196.58081 207.6585 227.82363 206.62567 228.98556 C 206.23837 229.24376 205.46375 229.11466 204.81824 228.72735 C 203.3981 227.82363 202.23619 220.9812 201.33247 207.16722 C 200.94516 201.87402 200.17055 194.25697 199.52503 190.513 C 198.62131 185.09068 198.87952 182.89594 200.29965 180.7012 C 201.46157 178.76466 202.23619 173.60056 202.3653 165.07979 C 202.6235 151.52402 202.8817 151.0076 212.04798 140.8085 C 217.4703 134.86979 218.76132 131.25491 218.76132 122.34684 C 218.76132 117.57004 217.56246 113.43902 217.07596 111.8284 C 216.58946 110.21777 215.79196 106.46722 215.79196 101.30312 C 215.53375 92.39504 215.79196 91.23312 220.05234 85.03619 C 224.70003 77.80645 226.63657 76.64453 223.2799 82.84145 Z" fill="#ff0000"/>
        </g>
        <g id="Graphic_26">
          <path d="M 141.94529 87.10184 C 140.65426 91.23312 144.91465 106.72543 148.78772 111.63132 C 158.34131 124.02517 160.27785 134.74068 155.50106 148.55466 C 151.62798 159.91568 152.14439 164.56338 158.85772 177.99004 L 164.66734 189.86748 L 164.15093 201.4867 C 163.37631 217.10812 162.08529 224.33786 160.01965 226.5326 C 158.59952 227.95274 158.0831 227.56543 156.40478 223.95056 C 150.59516 211.4276 149.43324 206.5217 149.94965 196.1935 C 150.46606 187.02722 150.20785 185.3489 147.2385 179.79748 C 142.3326 170.7603 141.68708 162.11043 145.04375 151.0076 C 146.59298 145.9726 146.99096 142.64017 147.30265 138.74286 C 147.61435 134.84556 146.41799 129.60421 143.10721 122.73414 C 139.92609 115.85103 138.20131 106.20902 137.814 101.81953 C 137.1685 93.81517 140.84436 81.91752 143.1682 81.91752 C 143.94282 81.91752 142.4617 85.81081 141.94529 87.10184 Z" fill="#ff0000"/>
        </g>
        <g id="Graphic_25">
          <path d="M 119.99785 128.54376 C 123.35452 139.51748 126.58208 149.71658 127.2276 151.1367 C 127.744 152.55684 129.16413 156.30081 130.19695 159.52838 C 131.22977 162.75594 132.9081 167.66184 133.94093 170.5021 C 134.97375 173.34235 137.4267 180.05568 139.36324 185.3489 C 144.01093 198.51735 150.20785 214.78427 152.4026 219.81927 C 153.43542 222.01402 154.21003 224.72517 154.21003 225.758 C 154.21003 226.91992 154.85554 228.21094 155.50106 228.59825 C 157.05029 229.63107 157.05029 230.6639 155.50106 233.11684 C 154.59734 234.66607 153.95183 234.66607 151.75708 232.60043 C 149.82054 230.9221 148.0131 230.40569 145.30195 230.9221 C 143.10721 231.4385 141.04157 231.1803 140.52516 230.40569 C 139.75054 228.98556 133.42452 229.37286 129.42234 231.0512 C 127.6149 231.8258 127.09849 231.0512 126.45298 226.4035 C 125.67836 220.723 124.64554 211.5567 123.87093 203.42325 C 123.61272 200.9703 122.83811 194.25697 121.93439 188.57645 C 121.15977 182.89594 119.86875 172.95504 119.22324 166.62902 C 117.674 152.68594 117.1576 148.16735 115.47926 133.32055 C 114.70465 127.12363 113.80093 119.37748 113.54272 115.89171 C 113.15542 112.53504 112.5099 108.01645 112.2517 105.95081 C 111.73529 102.33594 111.73529 102.33594 112.76811 105.3053 C 113.41362 107.11273 116.64118 117.57004 119.99785 128.54376 Z" fill="#ff0000"/>
        </g>
        <g id="Graphic_24">
          <path d="M 256.84657 114.60068 C 256.07196 116.53722 250.52055 147.00543 247.8094 163.40145 C 246.90567 169.46927 245.35644 177.21543 244.58183 180.8303 C 242.9035 188.70556 239.80503 213.23504 239.54683 221.1103 C 239.41773 223.69235 239.03042 223.82145 235.54465 222.65953 C 232.8335 221.6267 230.50965 221.6267 227.6694 222.65953 C 225.34555 223.43415 221.73067 224.07966 219.53593 224.07966 C 217.34119 224.07966 214.11362 224.98338 212.5644 226.1453 C 208.94952 228.59825 208.94952 227.95274 212.9517 220.20658 C 214.75914 216.5917 217.08298 210.39479 217.8576 208.58735 C 218.6322 206.77992 228.3149 183.15415 229.08952 180.443 C 229.86414 177.86094 231.02606 174.50427 231.67157 173.08415 C 232.31708 171.66402 234.25362 166.75812 236.06106 162.11043 C 237.7394 157.46273 240.19234 151.91132 241.22516 149.84568 C 242.38709 147.65094 244.06542 140.9376 244.96914 139.51748 C 246.00196 138.09735 247.9385 133.44966 249.48773 129.18927 C 253.619 117.18273 255.42644 113.05145 256.45926 113.05145 C 256.97568 113.05145 257.10478 113.82607 256.84657 114.60068 Z" fill="#ff0000"/>
        </g>
        <g id="Graphic_23">
          <path d="M 87.72221 135.6444 C 97.534 145.9726 99.98695 151.26581 101.27798 164.17607 C 102.3108 175.6662 105.40926 183.41235 111.34798 189.09286 C 121.67618 199.03376 121.41798 198.25915 124.00003 225.37069 C 124.25824 228.59825 124.90375 232.21312 125.29106 233.37504 C 126.32388 236.6026 120.76535 238.79156 119.31523 236.01532 C 117.1091 231.50767 108.71391 218.22024 108.71391 218.22024 C 108.71391 218.22024 110.68054 218.3612 110.98562 215.94853 C 112.27665 209.6225 109.15324 202.26133 100.63247 190.3839 C 96.24298 184.31607 92.2408 177.99004 91.85349 176.1826 C 91.46618 174.50427 90.94977 167.66184 90.82067 161.2067 C 90.69157 152.94414 90.04606 148.81286 88.88413 147.78004 C 87.85131 147.00543 85.65657 141.84132 83.84913 140.16299 C 82.0417 138.48466 79.17374 134.0918 78.38353 132.41684 C 77.50325 130.51253 76.74849 128.67286 76.74849 125.4453 L 76.53132 117.8863 L 78.68503 124.02517 C 79.58875 126.09081 83.72003 131.38402 87.72221 135.6444 Z" fill="#ff0000"/>
        </g>
        <g id="Graphic_22">
          <path d="M 290.07224 124.70143 C 287.4902 127.7999 285.89465 135.2571 285.24914 147.39273 C 284.47452 165.5962 283.6999 167.40363 271.43516 181.0885 C 264.33452 189.09286 260.71965 198.51735 261.75247 206.77992 C 262.26888 211.68581 261.75247 213.23504 256.45926 221.1103 C 253.2317 225.8871 250.52055 230.14748 250.26234 230.27658 C 250.13324 230.5348 248.0676 230.40569 245.74375 229.88928 L 241.61247 228.98556 L 242.38709 217.49543 C 242.9035 211.2985 243.8072 203.42325 244.58183 200.19568 C 246.26016 192.44953 253.619 182.50863 262.26888 176.1826 C 268.5949 171.40581 275.30824 163.40145 276.08286 159.27017 C 276.34106 158.36645 276.85747 156.68812 277.37388 155.5262 C 277.8903 154.36427 278.0194 149.71658 277.7612 145.3271 C 277.11568 136.41902 278.2776 133.19145 284.0872 127.38184 C 287.9603 123.50876 293.1012 121.29386 293.1012 121.29386 C 293.1012 121.29386 292.8662 121.57222 289.89683 125.1871 Z" fill="#ff0000"/>
        </g>
        <g id="Graphic_21">
          <path d="M 64.871055 150.7494 C 67.1949 155.268 72.48811 164.43427 76.74849 171.1476 C 81.00888 177.86094 84.36554 183.79966 84.49465 184.44517 C 84.49465 184.96158 88.75503 191.93312 94.04824 199.93748 C 99.21234 207.81274 104.50554 216.0753 105.66747 218.27004 C 106.82939 220.33569 110.05695 225.6289 112.76811 229.88928 C 117.674 237.50633 117.674 237.76453 115.60836 241.5085 C 114.44644 243.57415 113.41362 245.5107 113.41362 245.7689 C 113.28452 245.898 111.73529 245.5107 110.05695 244.86517 C 107.73311 243.96145 105.79657 244.21966 103.21452 245.5107 C 98.30862 248.09274 92.2408 247.83453 92.2408 245.25248 C 92.2408 242.79953 87.59311 226.0162 85.78567 222.14312 C 85.14016 220.723 84.10734 217.49543 83.33272 215.04248 C 82.68721 212.58953 79.20144 202.26133 75.71567 192.06222 C 72.1008 181.99222 69.13144 173.21325 69.00234 172.69684 C 68.74413 172.18043 68.356824 170.8894 68.09862 169.85658 C 67.71131 168.82376 67.0658 166.75812 66.420286 165.338 C 62.289 155.13889 58.67413 142.74504 59.836055 142.74504 C 60.22336 142.74504 62.54721 146.35991 64.871055 150.7494 Z" fill="#ff0000"/>
        </g>
        <g id="Graphic_20">
          <path d="M 301.64516 167.53274 C 296.99747 178.37735 288.4767 200.4539 278.0194 228.85645 C 274.79183 237.37722 273.5008 239.44287 270.91875 240.08838 C 268.8531 240.6048 267.04568 240.21748 265.75465 238.92645 C 263.3017 236.6026 263.9472 236.6026 258.5249 238.79735 L 254.00632 240.7339 L 252.5862 235.9571 C 251.81157 233.37504 251.55337 230.9221 252.06978 230.5348 C 253.1026 229.88928 258.3958 222.65953 260.71965 218.78645 C 262.7853 215.17158 278.2776 192.83684 282.9253 186.63992 C 285.24914 183.41235 288.0894 179.02286 289.1222 176.69902 C 290.15504 174.50427 291.70427 171.92222 292.7371 170.8894 C 293.6408 169.98568 296.99747 165.20889 300.09593 160.4321 C 307.58388 149.07107 309.00318 148.5544 309.00318 148.5544 C 309.00318 148.5544 308.2294 152.16953 301.64516 167.53274 Z" fill="#ff0000"/>
        </g>
        <g id="Graphic_19">
          <path d="M 323.7693 187.93075 C 323.7693 188.18895 321.26875 188.96376 318.8158 190.513 C 312.36068 194.51517 308.2294 202.39043 307.06747 212.46043 C 306.03465 222.65953 304.2272 226.5326 298.1594 231.0512 C 295.70645 232.98774 292.7371 236.4735 291.83337 238.92645 C 290.80055 241.2503 288.7349 243.96145 287.18568 244.73607 C 284.60362 246.0271 283.829 245.898 281.11786 242.92863 C 279.43952 241.1212 277.50298 239.57197 276.72837 239.57197 C 274.40452 239.57197 282.40888 229.24376 285.37824 228.46915 C 287.05657 227.95274 289.38042 224.98338 290.54234 224.46697 C 293.1244 223.56325 300.09593 214.52607 300.87055 214.00966 C 301.51606 213.49325 303.1944 210.13658 304.48542 206.65081 C 308.1003 196.83902 311.45696 191.93312 316.62106 189.22197 C 321.39786 186.76902 323.7693 187.93075 323.7693 187.93075 Z" fill="#ff0000"/>
        </g>
        <g id="Graphic_18">
          <path d="M 51.9608 190.12568 C 55.44657 193.22415 61.25618 204.06876 61.25618 207.68363 C 61.25618 212.58953 71.06798 223.95056 75.32836 224.07966 C 76.36118 224.07966 79.07234 225.4998 81.39618 227.30722 C 84.62375 229.76017 86.30208 232.72953 88.36772 239.05556 C 89.78785 243.70325 90.56247 248.09274 90.17516 248.73825 C 87.98041 252.48222 80.62157 245.6398 80.62157 239.83017 C 80.62157 235.31158 73.39182 226.4035 67.45311 223.43415 C 61.51439 220.5939 58.415926 215.8171 55.44657 205.35979 C 54.15554 201.0994 52.60631 197.22633 51.9608 196.83902 C 51.315285 196.4517 50.11663 191.28193 46.62045 188.68798 C 41.668575 184.55048 48.733234 187.41453 51.9608 190.12568 Z" fill="#ff0000"/>
        </g>
        <g id="Graphic_17">
          <path d="M 196.16837 223.30504 C 196.81388 224.59607 199.39593 227.69453 201.71978 230.14748 C 205.33465 234.02056 205.98016 235.5698 205.33465 238.53915 C 204.30183 243.44504 201.33247 249.90017 195.26465 259.97017 C 192.6826 264.48876 189.84234 270.04017 189.19683 272.49312 C 188.164 276.2371 188.42221 277.1408 191.13337 279.72287 C 193.71542 282.1758 194.49003 282.30492 196.42657 280.7557 C 197.7176 279.85197 199.00862 278.81915 199.26683 278.69005 C 200.04144 278.17364 196.55567 274.42966 195.26465 274.42966 C 194.49003 274.42966 194.23183 275.33338 194.74824 276.3662 C 195.65196 278.69005 193.71542 278.94825 191.90798 276.6244 C 190.87516 275.46248 191.13337 273.78415 192.6826 270.55658 C 193.84452 268.10364 195.26465 265.7798 195.78106 265.6507 C 196.29747 265.39248 196.81388 264.10146 196.81388 262.68133 C 196.81388 261.3903 197.20119 260.22838 197.8467 260.22838 C 198.3631 260.22838 200.17055 257.25902 201.84888 253.77325 C 203.65631 250.15838 205.46375 247.31812 205.98016 247.31812 C 207.01298 247.31812 213.2099 264.61787 214.37183 270.9439 C 215.27555 276.2371 213.0808 282.1758 210.24055 282.1758 C 207.5294 282.1758 206.62567 279.33556 208.82042 277.65723 C 211.66067 275.5916 211.53157 274.42966 208.4331 274.42966 C 204.68914 274.42966 203.52721 280.36838 206.62567 282.82133 C 210.62785 285.7907 212.9517 285.01607 215.79196 279.98107 C 217.5994 276.6244 218.1158 274.17146 217.4703 272.36402 C 216.82478 270.9439 216.17926 267.97453 216.05016 265.9089 C 215.79196 263.84325 212.8226 256.0971 211.78978 254.03146 C 208.4331 247.57633 207.9167 239.05556 210.49875 233.63325 C 213.5972 226.91992 215.66285 225.4998 220.95606 226.6617 C 223.2799 227.30722 225.21644 227.17812 225.21644 226.6617 C 225.21644 226.0162 227.02388 225.24158 229.21862 224.72517 C 233.99542 223.69235 238.90132 225.8871 239.80503 229.37286 C 240.19234 230.793 241.61247 231.8258 243.0326 231.8258 C 246.51837 231.8258 251.03696 237.63543 251.03696 242.02492 C 251.03696 246.0271 246.90567 254.41876 237.9976 268.62005 C 234.51183 274.30056 231.80067 280.11017 231.92978 281.5303 C 232.4462 285.01607 237.9976 285.7907 240.32144 282.69223 C 242.5162 279.72287 242.5162 277.0117 240.19234 277.0117 C 239.15952 277.0117 238.514 278.04453 238.6431 279.20646 C 238.6431 280.49748 237.7394 281.6594 236.57747 281.9176 C 234.77003 282.30492 234.64093 281.7885 235.80285 277.78633 C 236.57747 275.20428 237.7394 273.13864 238.3849 273.13864 C 238.90132 273.13864 239.41773 272.23492 239.41773 271.073 C 239.41773 269.91107 240.70875 267.32902 242.38709 265.39248 C 243.93632 263.45594 246.13106 260.6157 247.16388 259.06646 C 248.1967 257.64633 249.48773 256.3553 250.00414 256.3553 C 251.29516 256.3553 251.42426 274.94607 250.26234 280.7557 C 249.61683 283.59594 248.7131 284.75787 247.29298 284.49966 C 244.06542 283.85415 243.93632 279.59376 247.16388 279.59376 C 248.7131 279.59376 249.48773 278.94825 249.10042 278.30274 C 246.64747 274.42966 241.09606 279.98107 242.6453 284.75787 C 243.1617 286.5653 244.58183 287.33992 247.16388 287.33992 C 250.39144 287.33992 251.16606 286.6944 252.19888 282.43402 C 252.9735 279.85197 253.4899 271.8476 253.4899 264.74697 C 253.4899 249.38376 254.39362 244.99428 258.0085 241.8958 C 261.62337 238.92645 264.07632 239.05556 264.85093 242.15402 C 265.62555 244.86517 268.4658 245.6398 269.75683 243.44504 C 271.04786 241.2503 276.34106 242.02492 278.794 244.73607 C 280.34324 246.5435 280.85965 248.35094 280.34324 251.1912 C 279.69773 254.16056 280.08503 255.32248 281.89247 256.2262 C 285.89465 258.42094 283.5708 263.58505 275.05003 272.36402 C 266.27106 281.4012 263.1726 286.178 264.33452 289.14735 C 265.23824 291.213 268.9822 290.6966 270.66055 288.11453 C 272.08068 286.0489 270.40234 284.49966 268.4658 286.0489 C 267.5621 286.8235 266.40016 286.9526 266.01285 286.3071 C 265.62555 285.6616 269.11132 281.4012 273.6299 276.6244 C 283.3126 266.8126 289.63862 264.23056 292.34978 269.26556 C 293.1244 270.8148 293.5117 273.65505 292.9953 275.46248 C 292.22068 278.69005 290.45086 280.69232 290.45086 280.69232 C 290.45086 280.69232 291.96247 278.81915 290.54234 276.6244 C 288.4767 273.91325 284.2163 273.78415 282.15068 276.2371 C 281.24696 277.39902 280.60145 281.5303 280.73055 286.3071 C 280.98875 297.92633 280.85965 298.95915 279.31042 298.95915 C 278.4067 298.95915 276.47016 300.37928 274.79183 302.1867 C 271.17696 306.0598 268.5949 306.318 266.14196 302.70312 C 265.10914 301.283 263.1726 300.25017 261.88157 300.50838 C 259.81593 300.8957 259.42862 299.99197 259.42862 295.34428 C 259.29952 289.66376 259.55773 289.40556 272.33888 271.7185 C 275.05003 267.84543 275.43734 266.5544 274.40452 263.58505 C 272.9844 259.97017 269.36952 259.19556 266.78747 261.7776 C 264.46362 264.10146 264.98003 266.6835 267.8203 266.6835 C 269.49862 266.6835 270.14414 266.038 269.62773 264.74697 C 269.11132 263.71415 269.36952 262.81043 270.14414 262.81043 C 274.27542 262.81043 272.20978 269.91107 265.62555 278.30274 C 263.0435 281.5303 260.71965 284.37056 260.46144 284.62876 C 259.04132 286.5653 257.36298 279.98107 257.23388 271.7185 C 257.23388 264.87607 258.5249 259.84107 260.07414 260.8739 C 260.71965 261.2612 260.97785 262.42312 260.46144 263.45594 C 260.07414 264.48876 260.33234 265.39248 261.10696 265.39248 C 262.7853 265.39248 263.689 262.81043 262.9144 259.84107 C 262.26888 257.12992 258.3958 257.0008 256.20106 259.58287 C 254.91003 261.1321 254.78093 265.6507 255.42644 278.17364 C 255.94285 287.2108 255.94285 295.60248 255.42644 296.7644 C 255.03914 298.05543 253.3608 298.95915 251.81157 298.95915 C 250.26234 298.95915 248.3258 300.12107 247.42209 301.5412 C 246.51837 302.96133 244.84003 304.12325 243.549 304.12325 C 240.83785 303.99415 236.83567 301.1539 236.83567 299.08825 C 236.83567 298.31364 235.15734 297.66812 232.9626 297.66812 C 228.5731 297.66812 225.73285 293.79505 226.37837 288.63094 C 226.76567 285.53248 234.12452 269.78197 239.41773 261.2612 C 244.45273 252.99863 241.74157 245.898 234.64093 248.22184 C 230.38055 249.64197 229.73503 254.16056 233.6081 254.93517 C 235.67375 255.32248 235.80285 255.06428 234.51183 253.51504 C 232.7044 251.3203 233.7372 249.90017 237.09388 249.90017 C 238.514 249.90017 239.41773 250.8039 239.41773 252.48222 C 239.41773 256.6135 225.99106 282.0467 224.44183 280.6266 C 224.18362 280.36838 223.6672 278.04453 223.2799 275.5916 C 223.0217 273.13864 221.85978 268.36184 220.69785 264.87607 C 218.1158 256.6135 218.1158 248.60915 220.69785 248.60915 C 221.85978 248.60915 222.24708 249.38376 221.85978 250.5457 C 221.34337 251.5785 221.73067 252.48222 222.5053 252.48222 C 225.08734 252.48222 225.73285 248.48004 223.5381 246.2853 C 221.60157 244.47787 221.21426 244.47787 218.6322 246.8017 C 216.17926 248.99646 215.92106 250.15838 216.56657 257.25902 C 217.08298 261.7776 217.9867 266.5544 218.76132 267.97453 C 220.69785 271.5894 221.98888 280.23928 221.60157 287.98543 C 221.21426 295.9898 217.5994 300.50838 213.5972 297.92633 C 210.36965 295.8607 209.72414 295.9898 209.72414 298.31364 C 209.72414 300.7666 205.72196 302.83223 200.68696 302.83223 C 197.7176 302.83223 196.42657 302.0576 195.26465 299.60466 C 194.10272 297.1517 192.9408 296.5062 189.32593 296.6353 C 184.03272 296.8935 181.83798 294.56966 180.67606 287.46902 C 180.03054 283.59594 180.67606 281.143 184.29093 274.30056 C 186.74388 269.78197 190.61696 263.19774 193.0699 259.58287 C 198.234 251.9658 199.00862 244.34876 194.87734 241.3794 C 191.77888 239.05556 190.22965 239.05556 187.13119 241.3794 C 185.06555 242.92863 184.93644 243.44504 186.35657 245.25248 C 188.68042 248.09274 190.22965 247.83453 189.45503 244.73607 C 189.06772 243.31594 189.32593 242.15402 190.10055 242.15402 C 191.90798 242.15402 195.52285 245.898 195.52285 247.70543 C 195.39375 250.5457 180.15965 276.8826 178.61042 277.0117 C 178.2231 277.0117 177.19029 275.07517 176.54478 272.75133 C 175.77016 270.55658 173.1881 263.84325 170.86426 257.90453 C 166.86208 247.44722 166.60388 244.21966 170.08965 247.05992 C 172.02619 248.73825 173.57542 247.83453 173.57542 245.25248 C 173.57542 242.92863 168.66952 241.6376 166.47478 243.44504 C 163.63452 245.898 164.15093 250.28748 168.28221 258.55005 C 171.89708 265.6507 176.15747 279.46466 176.15747 283.98325 C 176.15747 288.24364 171.76798 296.248 169.05683 296.6353 C 167.6367 296.8935 165.70016 298.57184 164.79644 300.50838 C 162.6017 305.02697 158.85772 305.15607 156.01747 300.7666 C 154.46824 298.44274 153.0481 297.66812 151.11157 298.18453 C 144.78554 299.86287 143.62362 293.66594 147.6258 278.17364 C 151.36978 263.32684 152.14439 252.61133 149.43324 249.64197 C 148.27131 248.35094 146.33477 247.31812 145.17285 247.31812 C 142.2035 247.31812 139.49234 250.6748 140.52516 253.12774 C 141.55798 255.968 143.75272 255.45158 142.9781 252.48222 C 142.07439 248.99646 145.94747 248.99646 147.7549 252.61133 C 149.17503 255.19338 148.40042 271.073 146.59298 273.78415 C 146.20567 274.42966 145.17285 277.1408 144.52734 279.59376 L 143.23631 283.98325 L 138.33042 277.0117 C 135.61926 273.13864 131.74618 267.58722 129.68054 264.87607 C 125.80747 259.97017 124.25824 251.1912 127.09849 251.1912 C 127.87311 251.1912 128.38952 252.09492 128.38952 253.12774 C 128.38952 255.7098 130.45516 255.5807 131.48798 252.99863 C 133.29542 248.48004 127.744 246.9308 124.12913 250.933 C 121.41798 253.90235 122.4508 261.3903 126.32388 265.52158 C 130.58426 270.29838 135.61926 277.39902 138.58862 282.69223 C 143.62362 291.6003 140.91247 301.4121 134.07003 299.73376 C 131.87529 299.08825 130.97157 299.47556 130.97157 300.7666 C 130.97157 303.09043 128.51862 305.02697 124.38734 306.0598 C 121.93439 306.7053 119.99785 306.0598 116.89939 303.47774 C 113.80093 300.7666 112.5099 300.25017 111.08977 301.4121 C 109.66965 302.57402 108.63683 302.1867 106.44208 299.34646 C 104.89285 297.40992 103.86003 294.56966 104.24734 293.14953 C 104.50554 291.7294 106.18388 283.98325 107.86221 276.108 C 111.21888 259.84107 110.70247 257.12992 104.50554 259.97017 C 101.92349 261.1321 101.14888 262.29402 101.53618 264.74697 C 102.0526 268.62005 104.37644 269.13646 104.50554 265.39248 C 104.50554 263.97235 105.15106 262.81043 105.79657 262.93953 C 107.604 262.93953 106.95849 271.2021 104.37644 279.98107 L 102.1817 287.46902 L 99.21234 283.98325 C 97.534 282.1758 95.85567 279.46466 95.46836 278.17364 C 94.95195 276.7535 94.04824 275.7207 93.40272 275.7207 C 92.1117 275.7207 91.72439 268.87825 93.14452 267.58722 C 93.53182 267.0708 94.69375 267.32902 95.72657 268.23274 C 97.92131 270.04017 98.95413 269.00735 97.92131 266.1671 C 97.01759 263.71415 93.40272 263.45594 91.20798 265.6507 C 88.49682 268.36184 89.52965 273.52594 94.30644 281.143 C 100.24516 290.8257 101.14888 296.248 97.534 299.47556 C 95.33926 301.4121 94.56465 301.5412 92.88631 300.25017 C 91.33708 298.95915 90.56247 298.95915 89.01323 300.25017 C 85.01106 303.60684 78.81413 298.44274 79.97606 292.63312 C 80.36336 290.30928 79.97606 289.92197 78.16862 290.56748 C 74.941055 291.6003 74.03734 288.63094 76.23208 284.62876 C 78.94323 279.85197 78.55593 274.81697 75.32836 273.78415 C 73.26272 273.13864 73.00452 272.49312 74.29554 271.073 C 76.49029 268.49094 78.55593 268.87825 82.2999 272.62222 C 86.30208 276.6244 92.75721 288.63094 90.94977 288.63094 C 90.30426 288.63094 89.65875 287.98543 89.65875 287.33992 C 89.65875 286.5653 89.14234 286.0489 88.36772 286.0489 C 86.30208 286.0489 86.81849 289.53466 89.01323 290.43838 C 91.46618 291.3421 94.82285 290.05107 94.82285 288.11453 C 94.82285 286.0489 87.72221 273.91325 85.26926 271.9767 C 83.97823 270.9439 83.20362 268.23274 83.20362 265.26338 C 83.20362 261.003 83.72003 260.09928 86.43118 259.45376 C 88.23862 259.06646 89.65875 258.03363 89.52965 257.12992 C 89.14234 253.64415 91.46618 250.15838 94.30644 249.51287 C 96.11388 249.25466 97.79221 249.51287 98.17952 250.02928 C 99.21234 251.8367 100.63247 251.4494 103.86003 248.60915 C 107.3458 245.5107 108.24952 245.38158 110.18606 247.83453 C 113.80093 252.22402 114.18824 257.77543 111.34798 270.16928 C 108.12041 284.88697 109.02413 289.01825 115.09195 287.46902 C 117.80311 286.8235 118.83593 285.6616 119.09413 283.07953 C 119.35234 280.6266 118.96503 279.59376 117.674 279.59376 C 116.38298 279.59376 115.99567 280.49748 116.38298 282.0467 C 117.1576 285.01607 114.31734 287.0817 112.639 284.62876 C 111.99349 283.59594 111.86439 280.49748 112.2517 277.65723 C 112.76811 274.81697 113.15542 271.4603 113.41362 270.29838 C 113.54272 269.00735 114.05913 267.58722 114.57554 267.19992 C 115.09195 266.6835 115.47926 265.26338 115.47926 263.97235 C 115.47926 259.06646 118.06131 260.48658 122.06349 267.58722 C 124.38734 271.7185 127.09849 275.8498 128.00221 276.7535 C 128.90593 277.65723 129.68054 279.33556 129.68054 280.36838 C 129.68054 282.82133 126.32388 282.69223 125.29106 280.11017 C 124.12913 277.0117 122.83811 278.81915 123.87093 282.0467 C 124.38734 283.72505 125.80747 284.75787 127.744 284.75787 C 132.00439 284.75787 133.94093 278.81915 130.58426 275.46248 C 128.64772 273.52594 122.4508 263.06863 119.09413 256.0971 C 115.86657 249.38376 115.99567 243.18684 119.73965 240.863 C 121.28888 239.83017 123.61272 239.18466 124.90375 239.44287 C 126.06567 239.57197 127.09849 239.05556 127.09849 238.15184 C 127.09849 232.98774 136.65208 229.76017 140.00875 233.76235 C 141.17067 235.18248 142.2035 235.31158 143.88183 234.40786 C 147.2385 232.60043 148.14221 232.72953 151.36978 235.6989 C 154.98465 239.05556 155.11375 246.9308 152.14439 266.1671 C 150.20785 278.56094 150.20785 279.98107 152.01529 281.7885 C 153.0481 282.95043 154.98465 283.46684 156.01747 283.07953 C 159.24503 281.7885 160.01965 278.30274 157.5667 275.9789 C 155.50106 273.91325 155.37195 274.04235 156.27567 277.52812 C 156.92119 280.36838 156.79208 281.143 155.37195 280.6266 C 152.919 279.85197 152.4026 274.94607 154.08093 267.32902 C 154.85554 263.84325 155.75926 258.67915 156.14657 255.968 C 156.53388 253.38594 157.3085 251.1912 157.8249 251.1912 C 159.50324 251.3203 169.83144 274.55876 169.44413 277.26992 C 168.92772 281.0139 165.82926 281.7885 164.92554 278.43184 C 164.15093 275.46248 161.31067 275.33338 161.31067 278.30274 C 161.31067 280.8848 165.05465 282.69223 168.79862 281.6594 C 173.83362 280.49748 173.31721 274.81697 167.12029 262.81043 C 157.5667 244.09056 155.88836 235.31158 160.92337 230.5348 C 162.4726 229.11466 165.05465 227.95274 166.73298 227.95274 C 168.41131 227.95274 169.70234 227.17812 169.70234 226.2744 C 169.70234 222.65953 174.99554 219.94838 180.54696 220.723 C 183.38721 221.1103 186.61478 220.9812 187.6476 220.33569 C 189.97144 218.78645 194.36093 220.4648 196.16837 223.30504 Z" fill="#ff0000"/>
        </g>
        <g id="Graphic_16">
          <path d="M 65.00468 234.261 C 87.57657 255.02268 89.18885 256.69315 85.84027 256.69315 C 85.22017 256.69315 83.48387 257.76703 81.99561 259.19887 C 78.89508 262.18187 79.0191 262.18187 70.83369 249.05668 C 67.9812 244.52252 64.260555 238.9145 62.7723 236.6474 C 57.811444 229.60753 56.085915 226.17123 56.085915 226.17123 C 56.085915 226.17123 58.803615 228.65298 65.00468 234.261 Z" fill="#ff0000"/>
        </g>
        <g id="Graphic_15">
          <path d="M 307.58388 232.85863 C 305.77645 234.79517 300.99965 241.5085 297.12657 247.96363 C 293.1244 254.28966 288.9931 260.7448 287.8312 262.16492 C 285.76555 264.61787 285.76555 264.61787 286.41106 260.6157 C 286.92747 257.38812 286.54016 256.0971 284.73273 255.06428 C 282.02157 253.64415 282.40888 248.99646 285.24914 248.35094 C 286.92747 247.96363 293.7699 242.41222 304.48542 232.85863 C 310.42414 227.56543 312.78936 226.54985 312.78936 226.54985 C 312.78936 226.54985 312.6189 227.43633 307.58388 232.85863 Z" fill="#ff0000"/>
        </g>
        <g id="Graphic_14">
          <path d="M 176.15747 229.24376 C 174.35003 230.6639 172.02619 231.8258 170.86426 231.8258 C 168.28221 231.8258 165.05465 235.44069 166.34567 236.7317 C 166.86208 237.24812 167.8949 236.7317 168.41131 235.5698 C 169.18593 234.14966 170.73516 233.63325 172.9299 234.14966 C 174.73734 234.40786 176.15747 234.14966 176.15747 233.50415 C 176.15747 232.85863 177.8358 231.4385 179.77234 230.27658 C 183.2581 228.21094 183.51631 228.21094 185.58196 230.6639 C 186.87298 232.08402 188.42221 232.85863 189.19683 232.34222 C 189.97144 231.95492 191.64978 232.60043 193.0699 233.89145 C 194.36093 235.05338 195.91016 235.6989 196.42657 235.31158 C 197.7176 234.02056 192.8117 229.24376 190.22965 229.24376 C 188.93862 229.24376 187.5185 228.59825 187.13119 227.95274 C 185.84016 225.758 179.64324 226.5326 176.15747 229.24376 Z" fill="#cccccc"/>
        </g>
        <g id="Graphic_13">
          <path d="M 229.08952 231.8258 C 228.0567 232.47133 225.73285 233.11684 223.92542 233.11684 C 219.79414 233.11684 214.88824 236.4735 214.88824 239.18466 C 214.88824 240.863 215.40465 240.7339 217.9867 238.41004 C 220.18144 236.3444 221.85978 235.828 224.18362 236.3444 C 226.50747 236.98992 227.6694 236.6026 228.1858 235.18248 C 229.34773 232.21312 235.15734 232.60043 236.19016 235.6989 C 236.57747 237.11902 238.1267 238.92645 239.54683 239.57197 C 240.83785 240.34658 241.99978 241.7667 241.99978 242.79953 C 241.99978 243.83235 242.9035 244.73607 243.93632 244.73607 C 246.77657 244.73607 246.26016 242.54133 242.38709 238.28094 C 240.32144 236.0862 237.9976 233.50415 237.09388 232.47133 C 235.15734 230.27658 231.92978 230.01838 229.08952 231.8258 Z" fill="#cccccc"/>
        </g>
        <g id="Graphic_12">
          <path d="M 130.32606 240.6048 C 122.3217 244.99428 120.38516 246.2853 121.03067 246.9308 C 121.80529 247.57633 131.22977 244.60697 132.2626 243.31594 C 133.55362 241.7667 142.3326 241.1212 143.75272 242.54133 C 144.52734 243.31594 145.56016 243.57415 146.07657 243.05774 C 149.30413 239.70107 135.74836 237.63543 130.32606 240.6048 Z" fill="#cccccc"/>
        </g>
        <g id="Graphic_11">
          <path d="M 259.04132 248.86735 C 256.45926 251.4494 257.23388 252.74043 260.33234 251.0621 C 262.39798 249.90017 263.3017 249.90017 263.689 250.933 C 263.9472 251.8367 265.62555 252.09492 267.8203 251.5785 C 271.04786 250.933 271.82247 251.4494 272.8553 254.16056 C 273.5008 255.968 274.66273 257.77543 275.43734 258.16274 C 276.21196 258.67915 276.47016 259.84107 275.95375 260.8739 C 275.56644 261.9067 275.95375 262.81043 276.59927 262.81043 C 279.31042 262.81043 279.43952 260.22838 277.24478 255.45158 C 275.30824 251.3203 274.14632 250.41658 270.40234 250.15838 C 267.9494 249.90017 265.36734 249.12556 264.72183 248.48004 C 263.0435 246.9308 260.84875 247.05992 259.04132 248.86735 Z" fill="#cccccc"/>
        </g>
        <g id="Graphic_10">
          <path d="M 95.21016 256.4844 C 92.2408 257.77543 89.14234 260.09928 88.36772 261.5194 C 86.68939 264.48876 88.62593 265.00517 90.94977 262.16492 C 91.85349 261.1321 93.27362 260.22838 94.17734 260.22838 C 95.08106 260.22838 96.50118 259.32466 97.4049 258.29184 C 98.30862 257.25902 100.11606 256.3553 101.40708 256.3553 C 102.69811 256.3553 104.11824 255.7098 104.50554 255.06428 C 105.79657 252.99863 101.01977 253.64415 95.21016 256.4844 Z" fill="#cccccc"/>
        </g>
        <g id="Graphic_9">
          <path d="M 187.13119 286.0489 C 185.96926 289.53466 187.13119 290.8257 191.90798 291.8585 C 194.10272 292.37492 197.07208 293.92415 198.62131 295.21517 C 201.33247 297.79723 204.81824 297.53902 208.4331 294.44056 C 209.46593 293.53684 211.53157 292.50402 212.9517 292.2458 C 214.37183 291.9876 215.66285 290.6966 216.05016 289.27646 C 216.43747 286.8235 216.43747 286.8235 213.98452 288.88915 C 212.5644 290.18017 210.62785 291.213 209.72414 291.213 C 208.82042 291.213 207.01298 292.1167 205.85106 293.14953 C 203.3981 295.34428 199.39593 294.44056 199.39593 291.7294 C 199.39593 290.56748 197.9758 289.92197 195.91016 289.92197 C 191.13337 289.92197 188.80952 288.24364 189.84234 285.6616 C 190.22965 284.49966 189.97144 283.46684 189.32593 283.46684 C 188.55131 283.46684 187.6476 284.62876 187.13119 286.0489 Z" fill="#cccccc"/>
        </g>
        <g id="Graphic_8">
          <path d="M 169.70234 286.8235 C 169.70234 288.11453 168.92772 288.63094 167.7658 288.11453 C 166.73298 287.72723 165.31285 288.37274 164.66734 289.66376 C 163.50542 291.6003 163.24721 291.6003 160.92337 289.53466 C 158.47042 287.33992 158.21221 287.33992 156.14657 289.40556 C 154.08093 291.6003 153.82272 291.6003 152.6608 289.53466 C 151.24067 286.9526 148.78772 287.85633 149.82054 290.56748 C 150.85336 293.02043 154.21003 294.05325 156.14657 292.50402 C 157.4376 291.4712 158.59952 291.4712 160.53606 292.76223 C 162.6017 294.05325 163.50542 294.05325 164.79644 292.76223 C 165.57106 291.9876 167.3785 291.213 168.66952 291.213 C 170.99337 291.213 174.09183 286.9526 172.6717 285.53248 C 171.25157 284.11235 169.70234 284.75787 169.70234 286.8235 Z" fill="#cccccc"/>
        </g>
        <g id="Graphic_7">
          <path d="M 229.08952 288.50184 C 229.08952 290.05107 230.63875 291.4712 233.3499 292.63312 C 235.54465 293.53684 238.1267 295.21517 238.90132 296.248 C 240.19234 297.92633 241.09606 297.92633 246.64747 296.1189 C 250.00414 295.08607 253.1026 293.53684 253.3608 292.63312 C 254.00632 290.56748 247.29298 292.1167 244.32362 294.82787 C 242.25798 296.5062 241.99978 296.3771 240.83785 293.27864 C 239.80503 290.8257 238.514 289.92197 236.19016 289.92197 C 234.38273 289.92197 232.5753 289.01825 232.18798 287.98543 C 231.15516 285.27428 229.08952 285.53248 229.08952 288.50184 Z" fill="#cccccc"/>
        </g>
        <g id="Graphic_6">
          <path d="M 131.74618 291.9876 C 131.35888 293.02043 130.32606 293.53684 129.55144 293.14953 C 128.90593 292.63312 127.4858 293.27864 126.45298 294.56966 C 125.03285 296.5062 124.51644 296.6353 122.83811 295.21517 C 121.67618 294.31146 119.61054 293.92415 118.31952 294.31146 C 116.64118 294.82787 115.47926 294.44056 114.96285 293.14953 C 114.05913 290.6966 111.60618 290.56748 111.60618 293.14953 C 111.60618 295.34428 116.25388 298.18453 118.70683 297.2808 C 119.61054 296.8935 120.90157 297.1517 121.67618 297.92633 C 123.09631 299.34646 134.84465 294.56966 134.84465 292.50402 C 134.84465 290.30928 132.5208 289.92197 131.74618 291.9876 Z" fill="#cccccc"/>
        </g>
        <g id="Graphic_5">
          <path d="M 84.49465 293.14953 C 85.39836 294.18235 87.3349 295.08607 88.88413 295.08607 C 91.20798 295.08607 91.07888 294.82787 87.85131 293.14953 C 83.20362 290.6966 82.429 290.6966 84.49465 293.14953 Z" fill="#cccccc"/>
        </g>
        <g id="Graphic_4">
          <path d="M 274.27542 292.37492 C 274.27542 294.31146 266.14196 295.34428 264.98003 293.53684 C 264.20542 292.37492 263.9472 292.63312 264.20542 294.44056 C 264.59273 296.5062 265.49644 296.8935 269.11132 296.6353 C 273.759 296.1189 276.85747 294.44056 276.85747 292.37492 C 276.85747 291.7294 276.34106 291.213 275.56644 291.213 C 274.92093 291.213 274.27542 291.7294 274.27542 292.37492 Z" fill="#cccccc"/>
        </g>
      </g>
    </g>
  </g>
</svg>
