<?xml version="1.0" encoding="UTF-8" standalone="no"?>
<svg
   viewBox="0 0 1000 1200"
   width="1000"
   height="1200"
   preserveAspectRatio="xMidYMid meet"
   version="1.1"
   id="svg1"
   xmlns="http://www.w3.org/2000/svg"
   xmlns:svg="http://www.w3.org/2000/svg">
  <defs
     id="defs1" />
  <path
     stroke-width="1"
     fill="none"
     stroke="#000000"
     d="m 0,0 c 11.848,3.294 23.903,6.588 28.924,-12.75 l -2.788,-1.392 C 23,-8.34 16.901,-4.386 9.888,-4.386 c -10.204,0 -18.48,-8.352 -18.48,-18.642 0,-10.302 8.276,-18.648 18.48,-18.648 3.191,0 6.185,0.816 8.81,2.244 l 1.851,-1.26 c -3.343,-3.378 -5.412,-8.04 -5.412,-13.188 0,-10.296 8.266,-18.636 18.469,-18.636 10.215,0 18.481,8.34 18.481,18.636 0,5.478 -2.33,10.386 -6.055,13.794 l 1.895,0.654 c 2.624,-1.428 4.944,-2.244 8.134,-2.244 10.204,0 18.478,8.346 18.478,18.648 0,10.29 -8.274,18.642 -18.478,18.642 -6.38,0 -20,-3.27 -15.321,-8.22 l -2.32,1.098 c 0,0 42.723915,15.7813521 91.738,11.556"
     id="path1" />
</svg>
