<?xml version="1.0" encoding="UTF-8" standalone="no"?>
<svg
   xmlns:dc="http://purl.org/dc/elements/1.1/"
   xmlns:cc="http://creativecommons.org/ns#"
   xmlns:rdf="http://www.w3.org/1999/02/22-rdf-syntax-ns#"
   xmlns:svg="http://www.w3.org/2000/svg"
   viewBox="0 0 1000 1200"
   width="1000"
   height="1200"
   preserveAspectRatio="xMidYMid meet"
   version="1.1"><path stroke-width="1" fill="none" stroke="black" d="M0,0 
    l-15.000,-15.000
    c-7.500,-7.500 7.500,-22.500 15.000,-15.000
    l11.880,11.880
    l0,-32.640
    c0,-10.620 21.240,-10.620 21.240,0
    l0,32.640
    l11.880,-11.880
    c7.500,-7.500 22.500,10.620 15.000,15.000
    l-30.000,30.000
    c-7.500,7.500 7.500,22.500 15.000,15.000
    l11.880,-11.880
    l0,32.640
    c0,10.620 21.240,10.620 21.240,0
    l0,-32.640
    l11.880,11.880
    c7.500,7.500 22.500,-7.500 15.000,-15.000
    l-15.000,-15.000
    " />
</svg>
