<?xml version="1.0" encoding="utf-8"?>
<svg xmlns:dc="http://purl.org/dc/elements/1.1/" xmlns:xl="http://www.w3.org/1999/xlink"
     xmlns="http://www.w3.org/2000/svg"
     xmlns:xlink="http://www.w3.org/1999/xlink"
     version="1.1"
     viewBox="54 63 315 238.5"
     width="315"
     height="238.5"
     preserveAspectRatio="xMidYMid meet"
     zoomAndPan="magnify"
     contentScriptType="application/ecmascript"
     contentStyleType="text/css">
   <defs/>
   <metadata xmlns="" xmlns:svg="http://www.w3.org/2000/svg"
             xmlns:rdf="http://www.w3.org/1999/02/22-rdf-syntax-ns#"
             xmlns:cc="http://creativecommons.org/ns#">
      <rdf:RDF>
         <cc:Work rdf:about="">
            <dc:creator>
               <cc:Agent>
                  <dc:title>http://heraldicart.org Bean.svg</dc:title>
               </cc:Agent>
            </dc:creator>
         </cc:Work>
      </rdf:RDF>
   </metadata>
   <g stroke="#505050" fill="#ffff00" stroke-opacity="1" stroke-dasharray="none"
      fill-opacity="1">
      <title>Bean</title>
      <g>
         <title>Layer 2</title>
         <g>
            <g>
               <g>
                  <path d="M 362.25 160.8917 C 362.25 136.48222 344.62093 111.3947 322.5846 95.29123 C 300.54826 79.18775 264.61208 69.35615 221.8955 69.35615 C 179.1789 69.35615 130.35994 93.76563 99.84809 124.27748 C 69.33624 154.78933 59.16562 198.18397 60.94548 229.54337 C 62.725336 260.90277 85.35496 295.14385 121.96918 295.14385 C 158.5834 295.14385 181.38253 267.51367 178.4161 247.85048 C 175.44967 228.18729 219.09857 214.2027 237.1514 218.86422 C 255.20426 223.52575 274.9522 233.2726 305.04028 230.30616 C 335.12836 227.33973 362.25 185.30119 362.25 160.8917 Z"/>
                  <path d="M 362.25 160.8917 C 362.25 136.48222 344.62093 111.3947 322.5846 95.29123 C 300.54826 79.18775 264.61208 69.35615 221.8955 69.35615 C 179.1789 69.35615 130.35994 93.76563 99.84809 124.27748 C 69.33624 154.78933 59.16562 198.18397 60.94548 229.54337 C 62.725336 260.90277 85.35496 295.14385 121.96918 295.14385 C 158.5834 295.14385 181.38253 267.51367 178.4161 247.85048 C 175.44967 228.18729 219.09857 214.2027 237.1514 218.86422 C 255.20426 223.52575 274.9522 233.2726 305.04028 230.30616 C 335.12836 227.33973 362.25 185.30119 362.25 160.8917 Z"
                        stroke="black"
                        stroke-linecap="round"
                        stroke-linejoin="round"
                        stroke-width="2"/>
               </g>
               <g>
                  <g  id="feature-0">
                     <path
                           d="M 179.17687 241.1941 C 179.23362 241.1955 179.29123 241.19635 179.34972 241.19665 C 187.8862 241.24065 188.41553 241.02326 191.47279 243.08103 C 194.53004 245.1388 198.05078 247.79702 198.3588 249.90914 C 198.66682 252.02126 204.03512 249.1171 202.31902 247.92903 C 200.60293 246.74096 199.37086 244.0568 197.96278 240.00858 C 196.5547 235.96035 196.37869 231.6921 197.56675 227.7319 C 197.84096 226.81788 198.07297 225.86168 198.15568 224.99474 C 189.13162 229.05938 181.68345 234.66063 179.17687 241.1941 Z"
                           fill="#ff0000"/>
                  </g>
                  <path d="M 179.17687 241.1941 C 179.23362 241.1955 179.29123 241.19635 179.34972 241.19665 C 187.8862 241.24065 188.41553 241.02326 191.47279 243.08103 C 194.53004 245.1388 198.05078 247.79702 198.3588 249.90914 C 198.66682 252.02126 204.03512 249.1171 202.31902 247.92903 C 200.60293 246.74096 199.37086 244.0568 197.96278 240.00858 C 196.5547 235.96035 196.37869 231.6921 197.56675 227.7319 C 197.84096 226.81788 198.07297 225.86168 198.15568 224.99474 C 189.13162 229.05938 181.68345 234.66063 179.17687 241.1941 Z"
                        stroke="black"
                        stroke-linecap="round"
                        stroke-linejoin="round"
                        stroke-width="2"/>
               </g>
            </g>
            <g>
               <path d="M 111.08868 234.83465 C 111.08868 234.83465 131.05166 192.16605 175.77583 168.08302 C 220.5 144 279 159.82509 279 159.82509"
                     stroke="black"
                     stroke-linecap="round"
                     stroke-linejoin="round"
                     stroke-width="1"/>
            </g>
            <g>
               <path d="M 148.5 238.5 C 148.5 238.5 163.03626 212.48514 191.76813 198.49257 C 220.5 184.5 260.58424 195.05176 260.58424 195.05176"
                     stroke="black"
                     stroke-linecap="round"
                     stroke-linejoin="round"
                     stroke-width="1"/>
            </g>
            <g>
               <path d="M 94.96352 207 C 94.96352 207 121.09973 154.41217 166.29987 133.45608 C 211.5 112.5 271.58852 126.57447 271.58852 126.57447"
                     stroke="black"
                     stroke-linecap="round"
                     stroke-linejoin="round"
                     stroke-width="1"/>
            </g>
         </g>
      </g>
   </g>
</svg>