<?xml version="1.0" encoding="UTF-8" standalone="no"?>
<!DOCTYPE svg PUBLIC "-//W3C//DTD SVG 1.1//EN" "http://www.w3.org/Graphics/SVG/1.1/DTD/svg11.dtd">
<svg xmlns:dc="http://purl.org/dc/elements/1.1/" xmlns:xl="http://www.w3.org/1999/xlink" version="1.1" xmlns="http://www.w3.org/2000/svg" viewBox="33.75 62 296.25 320.5" width="296.25" height="320.5">

  <metadata> Produced by OmniGraffle 7.8 
    <dc:date>2018-07-22 17:54:47 +0000</dc:date><dc:title>Traceable heraldic art http://heraldicart.org/credits.html</dc:title>
  </metadata>
  <g id="Leek_(2)" fill-opacity="1" stroke-dasharray="none" stroke="none" stroke-opacity="1" fill="#ffff00">
    <title>Leek (2)</title>
    <g id="Leek_(2): Layer 2" >
      <title>Layer 2</title>
      <g id="Group_3">
        <g id="Graphic_21">
          <title>path18</title>
          <path d="M 182.22378 347.79034 L 182.24476 347.79034 Z M 206.70279 203.86343 C 211.32932 189.96502 214.44133 175.6076 215.98467 161.0409 C 217.5315 138.4591 231.21096 118.49534 251.71168 108.90102 C 272.2124 99.3067 296.30496 101.59319 314.63486 114.8727 C 296.3288 97.29509 269.6966 91.49906 245.7413 99.87922 C 221.78596 108.25937 204.57443 129.39299 201.21756 154.54883 C 200.89886 158.09924 200.4967 161.64167 200.01144 165.17318 C 200.05447 157.8388 199.70086 150.50748 198.95215 143.2113 C 195.8094 120.79616 205.078 98.44101 223.15932 84.82554 C 241.24064 71.21006 265.28645 68.479 285.96065 77.69272 C 264.42462 64.27169 237.17345 64.09313 215.4634 77.2308 C 193.75335 90.36847 181.26924 114.59253 183.1677 139.89708 C 185.5658 160.04766 185.2554 180.42859 182.24476 200.49678 C 179.2376 180.42812 178.93073 160.04719 181.3323 139.89708 C 183.23076 114.59253 170.74665 90.36847 149.0366 77.2308 C 127.32655 64.09313 100.07538 64.27169 78.53935 77.69272 C 99.21254 68.48432 123.25431 71.21803 141.33237 84.83269 C 159.41043 98.44735 168.67788 120.79897 165.53736 143.2113 C 164.79216 150.50767 164.44204 157.839 164.48856 165.17318 C 164.00329 161.64167 163.60114 158.09924 163.28244 154.54883 C 159.92557 129.39299 142.71404 108.25937 118.75871 99.87922 C 94.80339 91.49906 68.17122 97.29509 49.865144 114.8727 C 68.19504 101.59319 92.28759 99.3067 112.78832 108.90102 C 133.28904 118.49534 146.9685 138.4591 148.51533 161.0409 C 149.9202 174.30017 152.62514 187.38921 156.5911 200.11921 C 153.64212 192.32913 151.15577 184.37629 149.14461 176.30095 C 142.33 153.32205 122.97643 136.079 99.07915 131.69518 C 75.18187 127.31135 50.797654 136.53094 36 155.54519 C 51.442517 140.5356 73.93049 134.95384 94.73216 140.96723 C 115.53382 146.98062 131.37222 163.64185 136.09753 184.4816 C 143.29777 211.46572 156.38662 236.57326 174.45217 258.05496 L 172.92092 293.05344 L 171.56797 323.6994 C 171.58194 324.92263 171.17041 326.1127 170.4038 327.06604 C 167.90332 331.08704 167.47836 336.0619 169.2606 340.44873 C 171.95529 345.04065 176.89983 347.84096 182.22378 347.79034 L 182.27622 347.79034 C 187.59643 347.8372 192.5361 345.03738 195.2289 340.44873 C 197.0143 336.06355 196.59323 331.08877 194.0962 327.06604 C 193.32959 326.1127 192.91806 324.92263 192.93203 323.6994 L 191.57908 293.05344 L 190.27857 263.3619 L 190.11076 259.70158 C 190.35197 257.82362 191.0866 256.04314 192.23983 254.54148 C 209.32399 234.05938 221.66484 210.15077 228.40247 184.4816 C 233.12778 163.64185 248.96618 146.98062 269.76784 140.96723 C 290.5695 134.95384 313.0575 140.5356 328.5 155.54519 C 313.70235 136.53094 289.31813 127.31135 265.42085 131.69518 C 241.52357 136.079 222.17 153.32205 215.3554 176.30095 C 213.21074 185.69836 210.31759 194.91437 206.70279 203.86343 Z" fill="#ff0000"/>
        </g>
        <g id="Graphic_20">
          <title>path25</title>
          <path d="M 182.28042 347.79034 C 187.60063 347.8372 192.5403 345.03738 195.2331 340.44873 C 197.01848 336.06355 196.59742 331.08877 194.1004 327.06604 C 193.33002 326.11414 192.91473 324.9239 192.92574 323.6994 L 189.96812 256.33493 L 182.28042 256.33493 L 182.21749 256.33493 L 174.52978 256.33493 L 171.57216 323.6994 C 171.58613 324.92263 171.1746 326.1127 170.408 327.06604 C 167.90752 331.08704 167.48255 336.0619 169.2648 340.44873 C 171.9576 345.03738 176.89727 347.8372 182.21749 347.79034 L 182.24895 347.79034 Z" fill="#ff0000"/>
          <path d="M 182.28042 347.79034 C 187.60063 347.8372 192.5403 345.03738 195.2331 340.44873 C 197.01848 336.06355 196.59742 331.08877 194.1004 327.06604 C 193.33002 326.11414 192.91473 324.9239 192.92574 323.6994 L 189.96812 256.33493 L 182.28042 256.33493 L 182.21749 256.33493 L 174.52978 256.33493 L 171.57216 323.6994 C 171.58613 324.92263 171.1746 326.1127 170.408 327.06604 C 167.90752 331.08704 167.48255 336.0619 169.2648 340.44873 C 171.9576 345.03738 176.89727 347.8372 182.21749 347.79034 L 182.24895 347.79034 Z" stroke="#cccccc" stroke-linecap="round" stroke-linejoin="round" stroke-width="2"/>
        </g>
        <g id="Graphic_19">
          <title>path33</title>
          <path d="M 188.65988 343.36083 C 189.8092 346.9636 192.47315 349.8312 195.83175 351.081 C 199.31127 352.81414 201.66896 356.4501 201.93821 360.49822 C 201.70464 362.86552 202.3934 365.2703 203.84338 367.15005 C 205.29337 369.0298 207.37739 370.2196 209.60795 370.4412 C 205.55749 368.93164 202.91732 364.65274 203.2552 360.14534 C 202.76465 355.8905 200.27755 352.11683 196.66837 350.15108 C 193.52038 349.03477 191.00945 346.37957 189.9262 343.0215 C 189.72345 342.8305 189.449 342.75678 189.1946 342.82495 C 188.9402 342.8931 188.7394 343.0942 188.6593 343.361 Z" fill="#cccccc"/>
          <path d="M 188.65988 343.36083 C 189.8092 346.9636 192.47315 349.8312 195.83175 351.081 C 199.31127 352.81414 201.66896 356.4501 201.93821 360.49822 C 201.70464 362.86552 202.3934 365.2703 203.84338 367.15005 C 205.29337 369.0298 207.37739 370.2196 209.60795 370.4412 C 205.55749 368.93164 202.91732 364.65274 203.2552 360.14534 C 202.76465 355.8905 200.27755 352.11683 196.66837 350.15108 C 193.52038 349.03477 191.00945 346.37957 189.9262 343.0215 C 189.72345 342.8305 189.449 342.75678 189.1946 342.82495 C 188.9402 342.8931 188.7394 343.0942 188.6593 343.361 Z" stroke="#cccccc" stroke-linecap="round" stroke-linejoin="round" stroke-width="1"/>
        </g>
        <g id="Graphic_18">
          <title>path38</title>
          <path d="M 194.41021 339.54314 C 194.18952 344.22395 191.94567 348.5091 188.36912 351.07994 C 184.80256 354.27155 183.1665 359.3822 184.13197 364.3158 C 185.15727 367.0722 185.10592 370.1688 183.98989 372.88254 C 182.87386 375.5963 180.79085 377.68967 178.22722 378.6739 C 182.5316 375.5638 184.29196 369.59864 182.46437 364.3158 C 181.69785 359.06513 183.4442 353.7508 187.08959 350.2409 C 190.4593 347.89523 192.58807 343.9111 192.80555 339.54314 C 192.9848 339.24944 193.28599 339.07313 193.60844 339.07313 C 193.93089 339.07313 194.23207 339.24944 194.41133 339.54314 Z" fill="#cccccc"/>
          <path d="M 194.41021 339.54314 C 194.18952 344.22395 191.94567 348.5091 188.36912 351.07994 C 184.80256 354.27155 183.1665 359.3822 184.13197 364.3158 C 185.15727 367.0722 185.10592 370.1688 183.98989 372.88254 C 182.87386 375.5963 180.79085 377.68967 178.22722 378.6739 C 182.5316 375.5638 184.29196 369.59864 182.46437 364.3158 C 181.69785 359.06513 183.4442 353.7508 187.08959 350.2409 C 190.4593 347.89523 192.58807 343.9111 192.80555 339.54314 C 192.9848 339.24944 193.28599 339.07313 193.60844 339.07313 C 193.93089 339.07313 194.23207 339.24944 194.41133 339.54314 Z" stroke="#cccccc" stroke-linecap="round" stroke-linejoin="round" stroke-width="1"/>
        </g>
        <g id="Graphic_17">
          <title>path43</title>
          <path d="M 183.26744 344.25294 C 183.4672 348.52937 185.51652 352.4449 188.78413 354.7934 C 192.04015 357.7066 193.5344 362.37157 192.6542 366.87557 C 191.71789 369.39227 191.76464 372.21965 192.78354 374.69752 C 193.80244 377.1754 195.7043 379.08686 198.04504 379.9856 C 194.11423 377.14635 192.50632 371.6995 194.17497 366.87557 C 194.87637 362.07836 193.28023 357.2226 189.9483 354.01728 C 186.87487 351.87465 184.93383 348.2386 184.73576 344.25294 C 184.5721 343.9848 184.2971 343.8238 184.00269 343.8238 C 183.70828 343.8238 183.43328 343.9848 183.26961 344.25294 Z" fill="#cccccc"/>
          <path d="M 183.26744 344.25294 C 183.4672 348.52937 185.51652 352.4449 188.78413 354.7934 C 192.04015 357.7066 193.5344 362.37157 192.6542 366.87557 C 191.71789 369.39227 191.76464 372.21965 192.78354 374.69752 C 193.80244 377.1754 195.7043 379.08686 198.04504 379.9856 C 194.11423 377.14635 192.50632 371.6995 194.17497 366.87557 C 194.87637 362.07836 193.28023 357.2226 189.9483 354.01728 C 186.87487 351.87465 184.93383 348.2386 184.73576 344.25294 C 184.5721 343.9848 184.2971 343.8238 184.00269 343.8238 C 183.70828 343.8238 183.43328 343.9848 183.26961 344.25294 Z" stroke="#cccccc" stroke-linecap="round" stroke-linejoin="round" stroke-width="1"/>
        </g>
        <g id="Graphic_16">
          <title>path48</title>
          <path d="M 190.40547 340.64693 C 192.02482 343.0878 194.97596 344.47467 198.34972 344.38024 C 201.90402 344.6271 204.6717 346.70834 205.51952 349.7717 C 205.6417 351.6885 206.64476 353.34283 208.29417 354.34793 C 209.94358 355.35302 212.09477 355.6208 214.24484 355.08863 C 210.1795 355.19327 207.05179 352.6961 206.71846 349.0795 C 205.62835 345.92672 202.71638 343.7813 199.0049 343.39645 C 195.851 343.5258 193.0777 342.25365 191.559 339.98094 C 191.33858 339.89653 191.0672 339.92613 190.83558 340.05986 C 190.60395 340.1936 190.44263 340.4138 190.40552 340.6469 Z" fill="#cccccc"/>
          <path d="M 190.40547 340.64693 C 192.02482 343.0878 194.97596 344.47467 198.34972 344.38024 C 201.90402 344.6271 204.6717 346.70834 205.51952 349.7717 C 205.6417 351.6885 206.64476 353.34283 208.29417 354.34793 C 209.94358 355.35302 212.09477 355.6208 214.24484 355.08863 C 210.1795 355.19327 207.05179 352.6961 206.71846 349.0795 C 205.62835 345.92672 202.71638 343.7813 199.0049 343.39645 C 195.851 343.5258 193.0777 342.25365 191.559 339.98094 C 191.33858 339.89653 191.0672 339.92613 190.83558 340.05986 C 190.60395 340.1936 190.44263 340.4138 190.40552 340.6469 Z" stroke="#cccccc" stroke-linecap="round" stroke-linejoin="round" stroke-width="1"/>
        </g>
        <g id="Graphic_15">
          <title>path53</title>
          <path d="M 187.8419 342.06804 C 187.64214 346.34446 185.59282 350.26 182.3252 352.6085 C 179.06919 355.5217 177.57494 360.18667 178.45512 364.69067 C 179.39144 367.20736 179.3447 370.03474 178.3258 372.5126 C 177.30689 374.9905 175.40503 376.90196 173.06429 377.80068 C 176.9951 374.96145 178.60301 369.5146 176.93436 364.69067 C 176.23296 359.89346 177.8291 355.0377 181.16103 351.83237 C 184.23447 349.68974 186.1755 346.0537 186.37357 342.06804 C 186.53724 341.79988 186.81223 341.6389 187.10664 341.6389 C 187.40106 341.6389 187.67605 341.79988 187.83972 342.06804 Z" fill="#cccccc"/>
          <path d="M 187.8419 342.06804 C 187.64214 346.34446 185.59282 350.26 182.3252 352.6085 C 179.06919 355.5217 177.57494 360.18667 178.45512 364.69067 C 179.39144 367.20736 179.3447 370.03474 178.3258 372.5126 C 177.30689 374.9905 175.40503 376.90196 173.06429 377.80068 C 176.9951 374.96145 178.60301 369.5146 176.93436 364.69067 C 176.23296 359.89346 177.8291 355.0377 181.16103 351.83237 C 184.23447 349.68974 186.1755 346.0537 186.37357 342.06804 C 186.53724 341.79988 186.81223 341.6389 187.10664 341.6389 C 187.40106 341.6389 187.67605 341.79988 187.83972 342.06804 Z" stroke="#cccccc" stroke-linecap="round" stroke-linejoin="round" stroke-width="1"/>
        </g>
        <g id="Graphic_14">
          <title>path58</title>
          <path d="M 175.83698 343.36083 C 174.68766 346.9636 172.0237 349.8312 168.6651 351.081 C 165.18559 352.81414 162.8279 356.4501 162.55864 360.49822 C 162.79222 362.86552 162.10345 365.2703 160.65347 367.15005 C 159.20348 369.0298 157.11947 370.2196 154.8889 370.4412 C 158.93937 368.93164 161.57954 364.65274 161.24166 360.14534 C 161.7322 355.8905 164.2193 352.11683 167.82849 350.15108 C 170.97648 349.03477 173.4874 346.37957 174.57065 343.0215 C 174.7734 342.8305 175.04785 342.75678 175.30225 342.82495 C 175.55665 342.8931 175.75746 343.0942 175.83756 343.361 Z" fill="#cccccc"/>
          <path d="M 175.83698 343.36083 C 174.68766 346.9636 172.0237 349.8312 168.6651 351.081 C 165.18559 352.81414 162.8279 356.4501 162.55864 360.49822 C 162.79222 362.86552 162.10345 365.2703 160.65347 367.15005 C 159.20348 369.0298 157.11947 370.2196 154.8889 370.4412 C 158.93937 368.93164 161.57954 364.65274 161.24166 360.14534 C 161.7322 355.8905 164.2193 352.11683 167.82849 350.15108 C 170.97648 349.03477 173.4874 346.37957 174.57065 343.0215 C 174.7734 342.8305 175.04785 342.75678 175.30225 342.82495 C 175.55665 342.8931 175.75746 343.0942 175.83756 343.361 Z" stroke="#cccccc" stroke-linecap="round" stroke-linejoin="round" stroke-width="1"/>
        </g>
        <g id="Graphic_13">
          <title>path63</title>
          <path d="M 170.08674 339.54314 C 170.30744 344.22395 172.55129 348.5091 176.12784 351.07994 C 179.6944 354.27155 181.33046 359.3822 180.365 364.3158 C 179.33968 367.0722 179.39104 370.1688 180.50707 372.88254 C 181.6231 375.5963 183.7061 377.68967 186.26974 378.6739 C 181.96536 375.5638 180.205 369.59864 182.03258 364.3158 C 182.7991 359.06513 181.05275 353.7508 177.40737 350.2409 C 174.03767 347.89523 171.90889 343.9111 171.6914 339.54314 C 171.51215 339.24944 171.21097 339.07313 170.88852 339.07313 C 170.56607 339.07313 170.26489 339.24944 170.08563 339.54314 Z" fill="#cccccc"/>
          <path d="M 170.08674 339.54314 C 170.30744 344.22395 172.55129 348.5091 176.12784 351.07994 C 179.6944 354.27155 181.33046 359.3822 180.365 364.3158 C 179.33968 367.0722 179.39104 370.1688 180.50707 372.88254 C 181.6231 375.5963 183.7061 377.68967 186.26974 378.6739 C 181.96536 375.5638 180.205 369.59864 182.03258 364.3158 C 182.7991 359.06513 181.05275 353.7508 177.40737 350.2409 C 174.03767 347.89523 171.90889 343.9111 171.6914 339.54314 C 171.51215 339.24944 171.21097 339.07313 170.88852 339.07313 C 170.56607 339.07313 170.26489 339.24944 170.08563 339.54314 Z" stroke="#cccccc" stroke-linecap="round" stroke-linejoin="round" stroke-width="1"/>
        </g>
        <g id="Graphic_12">
          <title>path68</title>
          <path d="M 181.22941 344.25294 C 181.02966 348.52937 178.98034 352.4449 175.71272 354.7934 C 172.4567 357.7066 170.96246 362.37157 171.84265 366.87557 C 172.77897 369.39227 172.73222 372.21965 171.71331 374.69752 C 170.69441 377.1754 168.79255 379.08686 166.45181 379.9856 C 170.38262 377.14635 171.99053 371.6995 170.32189 366.87557 C 169.62048 362.07836 171.21662 357.2226 174.54855 354.01728 C 177.62199 351.87465 179.56303 348.2386 179.7611 344.25294 C 179.92476 343.9848 180.19975 343.8238 180.49417 343.8238 C 180.78858 343.8238 181.06357 343.9848 181.22724 344.25294 Z" fill="#cccccc"/>
          <path d="M 181.22941 344.25294 C 181.02966 348.52937 178.98034 352.4449 175.71272 354.7934 C 172.4567 357.7066 170.96246 362.37157 171.84265 366.87557 C 172.77897 369.39227 172.73222 372.21965 171.71331 374.69752 C 170.69441 377.1754 168.79255 379.08686 166.45181 379.9856 C 170.38262 377.14635 171.99053 371.6995 170.32189 366.87557 C 169.62048 362.07836 171.21662 357.2226 174.54855 354.01728 C 177.62199 351.87465 179.56303 348.2386 179.7611 344.25294 C 179.92476 343.9848 180.19975 343.8238 180.49417 343.8238 C 180.78858 343.8238 181.06357 343.9848 181.22724 344.25294 Z" stroke="#cccccc" stroke-linecap="round" stroke-linejoin="round" stroke-width="1"/>
        </g>
        <g id="Graphic_11">
          <title>path73</title>
          <path d="M 174.09138 340.64693 C 172.47203 343.0878 169.5209 344.47467 166.14713 344.38024 C 162.59284 344.6271 159.82515 346.70834 158.97734 349.7717 C 158.85514 351.6885 157.8521 353.34283 156.20268 354.34793 C 154.55327 355.35302 152.40208 355.6208 150.25201 355.08863 C 154.31735 355.19327 157.44507 352.6961 157.7784 349.0795 C 158.8685 345.92672 161.78047 343.7813 165.49196 343.39645 C 168.64586 343.5258 171.41916 342.25365 172.93785 339.98094 C 173.15828 339.89653 173.42965 339.92613 173.66128 340.05986 C 173.8929 340.1936 174.05423 340.4138 174.09133 340.6469 Z" fill="#cccccc"/>
          <path d="M 174.09138 340.64693 C 172.47203 343.0878 169.5209 344.47467 166.14713 344.38024 C 162.59284 344.6271 159.82515 346.70834 158.97734 349.7717 C 158.85514 351.6885 157.8521 353.34283 156.20268 354.34793 C 154.55327 355.35302 152.40208 355.6208 150.25201 355.08863 C 154.31735 355.19327 157.44507 352.6961 157.7784 349.0795 C 158.8685 345.92672 161.78047 343.7813 165.49196 343.39645 C 168.64586 343.5258 171.41916 342.25365 172.93785 339.98094 C 173.15828 339.89653 173.42965 339.92613 173.66128 340.05986 C 173.8929 340.1936 174.05423 340.4138 174.09133 340.6469 Z" stroke="#cccccc" stroke-linecap="round" stroke-linejoin="round" stroke-width="1"/>
        </g>
        <g id="Graphic_10">
          <title>path78</title>
          <path d="M 176.65507 342.06804 C 176.85482 346.34446 178.90414 350.26 182.17176 352.6085 C 185.42777 355.5217 186.92202 360.18667 186.04183 364.69067 C 185.10551 367.20736 185.15226 370.03474 186.17117 372.5126 C 187.19007 374.9905 189.09193 376.90196 191.43267 377.80068 C 187.50186 374.96145 185.89395 369.5146 187.5626 364.69067 C 188.264 359.89346 186.66786 355.0377 183.33593 351.83237 C 180.2625 349.68974 178.32146 346.0537 178.12339 342.06804 C 177.95972 341.79988 177.68473 341.6389 177.39031 341.6389 C 177.0959 341.6389 176.8209 341.79988 176.65724 342.06804 Z" fill="#cccccc"/>
          <path d="M 176.65507 342.06804 C 176.85482 346.34446 178.90414 350.26 182.17176 352.6085 C 185.42777 355.5217 186.92202 360.18667 186.04183 364.69067 C 185.10551 367.20736 185.15226 370.03474 186.17117 372.5126 C 187.19007 374.9905 189.09193 376.90196 191.43267 377.80068 C 187.50186 374.96145 185.89395 369.5146 187.5626 364.69067 C 188.264 359.89346 186.66786 355.0377 183.33593 351.83237 C 180.2625 349.68974 178.32146 346.0537 178.12339 342.06804 C 177.95972 341.79988 177.68473 341.6389 177.39031 341.6389 C 177.0959 341.6389 176.8209 341.79988 176.65724 342.06804 Z" stroke="#cccccc" stroke-linecap="round" stroke-linejoin="round" stroke-width="1"/>
        </g>
        <g id="Graphic_9">
          <title>path86</title>
          <path d="M 190.46807 235.8243 C 180.6022 204.86932 177.4851 172.15939 181.32676 139.89813 C 183.2259 114.59391 170.74275 90.36974 149.03346 77.23137 C 127.32417 64.092995 100.07333 64.27032 78.53686 77.69011 C 99.21203 68.47613 123.25892 71.208025 141.34033 84.82501 C 159.42173 98.442 168.68916 120.79891 165.54414 143.21472 C 162.50822 172.8272 166.00748 202.74515 175.79504 230.85777 C 176.01563 234.2435 178.25621 237.16204 181.47002 238.24985 C 184.68382 239.33766 188.23643 238.38001 190.46807 235.8243 Z" fill="#ff0000"/>
          <path d="M 190.46807 235.8243 C 180.6022 204.86932 177.4851 172.15939 181.32676 139.89813 C 183.2259 114.59391 170.74275 90.36974 149.03346 77.23137 C 127.32417 64.092995 100.07333 64.27032 78.53686 77.69011 C 99.21203 68.47613 123.25892 71.208025 141.34033 84.82501 C 159.42173 98.442 168.68916 120.79891 165.54414 143.21472 C 162.50822 172.8272 166.00748 202.74515 175.79504 230.85777 C 176.01563 234.2435 178.25621 237.16204 181.47002 238.24985 C 184.68382 239.33766 188.23643 238.38001 190.46807 235.8243 Z" stroke="#cccccc" stroke-linecap="round" stroke-linejoin="round" stroke-width="2"/>
        </g>
        <g id="Graphic_8">
          <title>path91</title>
          <path d="M 174.02898 235.8243 C 183.89486 204.86932 187.01196 172.15939 183.1703 139.89813 C 181.27116 114.59391 193.7543 90.36974 215.4636 77.23137 C 237.1729 64.092995 264.42372 64.27032 285.9602 77.69011 C 265.28503 68.47613 241.23813 71.208025 223.15673 84.82501 C 205.07532 98.442 195.8079 120.79891 198.95291 143.21472 C 201.98884 172.8272 198.48957 202.74515 188.702 230.85777 C 188.48143 234.2435 186.24084 237.16204 183.02704 238.24985 C 179.81323 239.33766 176.26063 238.38001 174.02898 235.8243 Z" fill="#ff0000"/>
          <path d="M 174.02898 235.8243 C 183.89486 204.86932 187.01196 172.15939 183.1703 139.89813 C 181.27116 114.59391 193.7543 90.36974 215.4636 77.23137 C 237.1729 64.092995 264.42372 64.27032 285.9602 77.69011 C 265.28503 68.47613 241.23813 71.208025 223.15673 84.82501 C 205.07532 98.442 195.8079 120.79891 198.95291 143.21472 C 201.98884 172.8272 198.48957 202.74515 188.702 230.85777 C 188.48143 234.2435 186.24084 237.16204 183.02704 238.24985 C 179.81323 239.33766 176.26063 238.38001 174.02898 235.8243 Z" stroke="#cccccc" stroke-linecap="round" stroke-linejoin="round" stroke-width="2"/>
        </g>
        <g id="Graphic_7">
          <title>path99</title>
          <path d="M 192.0018 246.52562 C 175.9649 218.27027 166.16986 186.90606 163.27656 154.54596 C 159.91704 129.39395 142.70705 108.26446 118.75512 99.88499 C 94.8032 91.50552 68.17458 97.29827 49.868165 114.87056 C 68.19904 101.5913 92.29247 99.30591 112.79317 108.9018 C 133.29387 118.49768 146.97221 138.46313 148.51702 161.04572 C 151.65256 190.64782 161.24582 219.20124 176.61998 244.69145 C 177.53398 247.95894 180.32823 250.35273 183.69727 250.75447 C 187.06632 251.1562 190.3451 249.48657 192.0018 246.52562 Z" fill="#ff0000"/>
          <path d="M 192.0018 246.52562 C 175.9649 218.27027 166.16986 186.90606 163.27656 154.54596 C 159.91704 129.39395 142.70705 108.26446 118.75512 99.88499 C 94.8032 91.50552 68.17458 97.29827 49.868165 114.87056 C 68.19904 101.5913 92.29247 99.30591 112.79317 108.9018 C 133.29387 118.49768 146.97221 138.46313 148.51702 161.04572 C 151.65256 190.64782 161.24582 219.20124 176.61998 244.69145 C 177.53398 247.95894 180.32823 250.35273 183.69727 250.75447 C 187.06632 251.1562 190.3451 249.48657 192.0018 246.52562 Z" stroke="#cccccc" stroke-linecap="round" stroke-linejoin="round" stroke-width="2"/>
        </g>
        <g id="Graphic_6">
          <title>path104</title>
          <path d="M 172.49516 246.52562 C 188.53206 218.27027 198.3271 186.90606 201.2204 154.54596 C 204.57991 129.39395 221.7899 108.26446 245.74184 99.88499 C 269.69376 91.50552 296.32238 97.29827 314.6288 114.87056 C 296.29792 101.5913 272.2045 99.30591 251.7038 108.9018 C 231.2031 118.49768 217.52474 138.46313 215.97994 161.04572 C 212.8444 190.64782 203.25114 219.20124 187.87698 244.69145 C 186.96298 247.95894 184.16873 250.35273 180.79969 250.75447 C 177.43064 251.1562 174.15185 249.48657 172.49516 246.52562 Z" fill="#ff0000"/>
          <path d="M 172.49516 246.52562 C 188.53206 218.27027 198.3271 186.90606 201.2204 154.54596 C 204.57991 129.39395 221.7899 108.26446 245.74184 99.88499 C 269.69376 91.50552 296.32238 97.29827 314.6288 114.87056 C 296.29792 101.5913 272.2045 99.30591 251.7038 108.9018 C 231.2031 118.49768 217.52474 138.46313 215.97994 161.04572 C 212.8444 190.64782 203.25114 219.20124 187.87698 244.69145 C 186.96298 247.95894 184.16873 250.35273 180.79969 250.75447 C 177.43064 251.1562 174.15185 249.48657 172.49516 246.52562 Z" stroke="#cccccc" stroke-linecap="round" stroke-linejoin="round" stroke-width="2"/>
        </g>
        <g id="Graphic_5">
          <title>path109</title>
          <path d="M 189.62962 257.9755 C 170.36107 233.91882 156.55538 206.069 149.14265 176.30234 C 142.32805 153.32495 122.97605 136.08281 99.08043 131.69817 C 75.18481 127.31353 50.80154 136.53062 36.00267 155.54212 C 51.445444 140.53407 73.93256 134.95342 94.73325 140.9669 C 115.53393 146.98039 131.37166 163.64075 136.09732 184.4795 C 143.34318 211.63917 156.55386 236.89586 174.79725 258.46754 C 176.13492 261.3838 179.12693 263.21602 182.37555 263.10825 C 185.62416 263.0005 188.48817 260.974 189.62962 257.9755 Z" fill="#ff0000"/>
          <path d="M 189.62962 257.9755 C 170.36107 233.91882 156.55538 206.069 149.14265 176.30234 C 142.32805 153.32495 122.97605 136.08281 99.08043 131.69817 C 75.18481 127.31353 50.80154 136.53062 36.00267 155.54212 C 51.445444 140.53407 73.93256 134.95342 94.73325 140.9669 C 115.53393 146.98039 131.37166 163.64075 136.09732 184.4795 C 143.34318 211.63917 156.55386 236.89586 174.79725 258.46754 C 176.13492 261.3838 179.12693 263.21602 182.37555 263.10825 C 185.62416 263.0005 188.48817 260.974 189.62962 257.9755 Z" stroke="#cccccc" stroke-linecap="round" stroke-linejoin="round" stroke-width="2"/>
        </g>
        <g id="Graphic_4">
          <title>path114</title>
          <path d="M 181.76965 247.24927 C 178.5118 249.494 175.99326 252.65495 174.53293 256.33188 L 174.44902 258.1673 L 172.91777 293.0504 L 175.9593 272.77708 L 178.99033 293.02942 L 182.2521 272.77708 L 185.50338 293.02942 L 188.5449 272.77708 L 191.57593 293.0504 L 190.27542 263.35885 C 189.60276 260.27513 190.3242 257.0517 192.24717 254.54892 C 209.32894 234.06281 221.66625 210.15056 228.39932 184.47856 C 233.12463 163.6388 248.96303 146.97758 269.7647 140.96418 C 290.56637 134.9508 313.05434 140.53255 328.49685 155.54215 C 313.69762 136.52812 289.31183 127.30998 265.4142 131.69609 C 241.51655 136.0822 222.16416 153.32792 215.35224 176.3084 C 209.47404 202.06287 198.0189 226.26106 181.76965 247.24927 Z" fill="#ff0000"/>
          <path d="M 181.76965 247.24927 C 178.5118 249.494 175.99326 252.65495 174.53293 256.33188 L 174.44902 258.1673 L 172.91777 293.0504 L 175.9593 272.77708 L 178.99033 293.02942 L 182.2521 272.77708 L 185.50338 293.02942 L 188.5449 272.77708 L 191.57593 293.0504 L 190.27542 263.35885 C 189.60276 260.27513 190.3242 257.0517 192.24717 254.54892 C 209.32894 234.06281 221.66625 210.15056 228.39932 184.47856 C 233.12463 163.6388 248.96303 146.97758 269.7647 140.96418 C 290.56637 134.9508 313.05434 140.53255 328.49685 155.54215 C 313.69762 136.52812 289.31183 127.30998 265.4142 131.69609 C 241.51655 136.0822 222.16416 153.32792 215.35224 176.3084 C 209.47404 202.06287 198.0189 226.26106 181.76965 247.24927 Z" stroke="#cccccc" stroke-linecap="round" stroke-linejoin="round" stroke-width="2"/>
        </g>
      </g>
    </g>
  </g>
</svg>
