<?xml version="1.0" encoding="utf-8"?>
<svg xmlns:dc="http://purl.org/dc/elements/1.1/" xmlns:xl="http://www.w3.org/1999/xlink"
     xmlns="http://www.w3.org/2000/svg"
     xmlns:xlink="http://www.w3.org/1999/xlink"
     version="1.1"
     viewBox="67.5 72 229.5 333"
     width="229.5"
     height="333"
     preserveAspectRatio="xMidYMid meet"
     zoomAndPan="magnify"
     contentScriptType="application/ecmascript"
     contentStyleType="text/css">
   <defs/>
   <metadata xmlns="" xmlns:svg="http://www.w3.org/2000/svg"
             xmlns:rdf="http://www.w3.org/1999/02/22-rdf-syntax-ns#"
             xmlns:cc="http://creativecommons.org/ns#">
      <rdf:RDF>
         <cc:Work rdf:about="">
            <dc:creator>
               <cc:Agent>
                  <dc:title>http://heraldicart.org Lettuce.svg</dc:title>
               </cc:Agent>
            </dc:creator>
         </cc:Work>
      </rdf:RDF>
   </metadata>
   <g stroke="#505050" fill="#ffff00" stroke-opacity="1" stroke-dasharray="none"
      fill-opacity="1">
      <title>Lettuce</title>
      <g>
         <title>Art</title>
         <g>
            <g>
               <g  id="outline-0">
                  <path
                        d="M 185.55955 74.55648 C 175.80245 75.788435 163.53215 80.22348 155.35195 85.49626 C 150.96618 88.3544 145.84124 93.18368 143.08165 97.02739 C 141.89897 98.70285 139.68145 102.69439 138.10454 105.89748 C 136.57692 109.14985 135.29568 111.86016 135.19712 111.90943 C 135.14785 112.00799 133.27527 110.72675 131.05775 109.05129 C 124.7994 104.32057 118.09755 101.70882 111.93776 101.65955 C 105.53158 101.65955 95.92231 105.30614 90.64953 109.83974 C 89.17119 111.0717 84.83469 115.1618 80.99099 118.85768 C 72.17017 127.38282 72.17017 127.38282 72.5644 138.81539 C 73.05718 154.78156 77.04872 166.11557 87.74211 182.08174 C 93.85262 191.14895 95.77448 195.09122 95.38025 197.65369 C 94.49324 203.3207 94.49324 203.5178 95.42953 205.68605 C 97.10499 209.48048 103.36334 216.33017 119.03384 231.4586 C 145.2499 256.8862 151.45897 263.63734 155.15484 270.68414 C 157.22453 274.72496 157.42164 275.41486 158.4072 281.32825 C 159.19566 286.35464 160.27978 288.76928 164.61627 295.47113 C 172.5008 307.49503 174.3241 314.49255 171.95874 323.60904 C 170.03689 331.1979 165.94679 336.175 160.87112 337.16057 C 159.39277 337.45624 156.92886 337.94903 155.40123 338.2447 C 151.75463 338.9346 143.18021 343.2711 141.99753 344.99582 C 141.45547 345.735 140.66702 347.45974 140.22351 348.8888 C 139.04083 352.38757 137.5132 354.5558 135.44352 355.59066 C 134.45795 356.03417 131.1563 356.77334 128.10105 357.16757 C 118.04827 358.4981 113.85962 361.4548 110.90292 369.43786 L 109.8188 372.296 L 112.43055 369.43786 C 113.85962 367.8117 115.97858 365.59416 117.11199 364.41148 C 119.5759 361.99684 120.66002 361.849 126.6227 363.13024 C 131.4027 364.1651 140.4699 363.77086 146.28474 362.3418 C 155.10556 360.17354 161.56102 356.8719 167.42514 351.402 C 169.39627 349.5787 171.56451 347.90324 172.25441 347.7554 C 174.12699 347.26263 176.5909 347.95252 178.75915 349.52943 C 181.61729 351.5991 182.15935 353.57025 183.53914 367.46673 C 184.86966 380.4762 187.13646 387.47372 191.27584 391.21888 C 192.7049 392.5001 193.59192 392.89434 194.9717 392.89434 C 196.64717 392.89434 197.18923 393.33784 201.52572 397.82217 C 204.13747 400.5325 206.50283 402.75 206.7985 402.75 C 207.68551 402.75 210.39582 395.16114 210.98716 391.02176 C 211.5785 386.636 210.93788 382.39806 209.36098 380.37765 C 207.19273 377.61806 206.25644 374.6121 206.25644 370.2263 C 206.25644 367.91024 206.5521 364.95354 206.89706 363.57375 C 207.43912 361.6026 207.43912 360.12426 206.94634 355.44283 C 206.01005 346.8684 205.9115 347.45974 208.1783 346.76984 C 209.26242 346.4249 212.7119 346.12923 215.8657 346.12923 C 221.28633 346.07995 221.63127 346.12923 223.75024 347.45974 C 224.9822 348.2482 229.81147 352.9789 234.5422 357.956 C 244.2993 368.30446 243.11662 367.71312 252.82444 367.71312 C 257.30877 367.7624 259.82196 368.0088 261.69454 368.60013 C 264.40484 369.48714 264.7498 369.8321 270.46608 376.1397 L 272.8807 378.80074 L 273.22566 374.02075 C 273.66917 368.0088 273.32422 365.4956 271.50092 362.68674 C 269.87474 360.075 266.5731 357.956 261.64526 356.3791 C 257.50588 355.0486 256.0768 353.4717 254.7463 348.9381 C 254.15496 346.96696 253.31722 344.20737 252.923 342.7783 C 251.83888 339.1317 249.62135 337.062 244.9399 335.4851 C 234.83786 331.98635 230.50137 329.621 228.6288 326.615 C 227.15044 324.20038 226.70694 320.948 226.16488 306.6573 C 225.8692 299.11772 225.32715 291.9231 224.88364 289.6563 C 223.6024 283.10227 223.50385 280.93403 224.39086 277.92805 C 226.75622 269.79713 241.68754 244.91158 259.67413 219.1883 C 285.69307 181.98319 291.3108 170.10711 292.0007 150.69146 C 292.4442 138.91395 290.47307 129.89602 285.29885 120.04035 C 280.07535 110.08614 274.90112 105.60181 268.5935 105.60181 C 263.51783 105.60181 257.85083 107.77006 251.3461 112.2051 C 244.89063 116.59087 244.5457 116.39376 239.91353 103.97563 C 236.7597 95.54904 234.93642 92.74017 229.2694 87.27028 C 223.94735 82.19461 221.18777 80.51915 214.33808 78.30163 C 204.18675 74.99998 193.34553 73.57091 185.55955 74.55648 Z"
                        fill="black"/>
               </g>
            </g>
            <g>
               <path d="M 208.07974 78.94225 C 217.7383 81.50472 223.30674 84.5107 228.87518 90.27626 C 232.57106 94.07069 234.78858 97.81584 237.30178 104.36985 C 238.583 107.62222 240.35703 112.05727 241.29332 114.22551 C 243.8558 120.28675 244.44713 123.24344 244.7428 132.45849 C 245.13703 145.3694 243.65868 158.92094 240.94837 166.21413 C 237.10466 176.61185 230.55065 189.96627 222.81395 203.17286 C 214.63375 217.11862 211.52922 224.75676 207.29129 241.85633 C 203.00407 259.10374 199.70243 282.01815 201.52572 282.01815 C 201.77212 282.01815 202.21562 281.08186 202.5113 279.89918 C 203.89108 274.38 203.98964 274.13362 205.86222 273.19733 C 206.89706 272.65527 208.72036 272.1132 210.0016 271.9161 C 212.66262 271.52187 218.77313 272.3596 220.84282 273.44372 C 222.22261 274.1829 222.32117 274.33073 222.0255 276.49898 C 221.0892 284.03856 221.0892 284.1371 222.37045 287.19237 C 224.44014 292.21876 224.68653 294.68267 224.58797 308.38204 C 224.44014 320.45523 224.48942 321.3915 225.52426 324.69316 C 227.39684 330.5573 231.7826 333.80965 241.5397 336.51996 C 244.0529 337.20985 247.0096 338.0476 248.04445 338.34325 L 249.9663 338.9346 L 251.64176 345.2915 C 254.00712 354.6051 255.68258 356.97045 260.95536 358.54736 C 264.10917 359.48365 266.96732 360.9127 268.98773 362.63746 C 271.7473 364.95354 272.6836 367.9595 272.14154 372.5424 L 271.84587 375.2527 L 269.924 372.24673 C 266.91804 367.516 264.10917 366.4319 252.82444 365.84055 C 247.74878 365.5449 245.03847 365.15065 243.8065 364.6086 C 242.77167 364.1158 240.70198 362.0461 238.68157 359.53293 C 233.90157 353.57025 227.29828 347.45974 223.8488 345.735 C 221.28633 344.50304 220.49787 344.3552 216.06283 344.4045 C 213.35252 344.4045 209.70592 344.74943 207.9319 345.19294 L 204.72881 345.9814 L 203.1519 344.20737 C 201.72284 342.5812 201.52572 342.5319 201.52572 343.4682 C 201.52572 344.01026 202.06779 345.68572 202.7084 347.1148 C 204.67954 351.35273 205.17232 355.295 204.63026 363.13024 C 204.03892 371.6554 204.43314 375.10487 206.69995 380.0327 C 209.60737 386.5867 210.0016 390.57826 208.07974 395.60465 C 206.65067 399.25124 206.30572 399.3005 203.3983 396.29454 C 201.96923 394.8162 199.01253 392.5494 196.84429 391.31743 C 187.53069 385.9461 186.39728 382.44734 184.5247 354.1123 C 184.13048 347.85397 183.58842 342.18696 183.34203 341.54634 C 182.9478 340.61006 182.84925 340.85645 182.84925 342.87686 C 182.79997 344.20737 182.65213 346.12923 182.5043 347.0655 L 182.20863 348.83953 L 178.95626 347.16407 C 176.1474 345.735 175.30967 345.5379 173.33853 345.78428 C 170.13544 346.12923 167.86864 347.41046 163.6307 351.2049 C 159.39277 354.9993 153.38082 358.15313 146.58041 360.2228 C 142.63815 361.35622 141.30763 361.50406 134.75362 361.55334 C 129.67795 361.55334 126.91837 361.35622 125.88352 360.9127 C 124.45445 360.2721 124.50373 360.2228 129.03734 359.3358 C 137.56248 357.5618 142.39176 354.01375 142.39176 349.52943 C 142.39176 346.12923 149.93134 341.29995 158.01298 339.5752 C 167.0309 337.65336 169.88905 335.18944 173.33853 326.4179 C 174.42266 323.60904 174.61977 322.42636 174.61977 317.49853 C 174.61977 308.43132 172.89503 303.5035 166.19318 293.4507 C 164.17277 290.34618 162.0538 286.74887 161.56102 285.41835 C 160.37834 282.3631 160.37834 278.9136 161.56102 276.35114 C 162.84225 273.493 167.42514 269.45218 171.56451 267.48105 C 175.4575 265.60847 176.49234 265.41136 177.33008 266.39693 C 177.87214 267.08682 179.5476 273.19733 181.32162 281.13114 C 181.91296 283.79217 182.60285 286.05897 182.84925 286.2068 C 183.6377 286.6996 183.34203 281.96887 182.30719 277.5831 C 178.75915 262.7996 174.47193 254.37302 160.03339 233.9718 C 156.04185 228.3048 153.38082 222.93346 147.56598 208.83986 C 137.7596 185.03844 135.88702 176.56257 134.90145 152.36692 C 134.40867 139.89951 134.45795 137.78054 135.19712 133.49333 C 135.64063 130.88158 135.98558 127.77705 135.98558 126.64365 C 135.98558 124.08118 137.02042 118.01994 138.4495 112.55005 C 140.96269 102.69439 143.27877 98.8014 151.11402 91.3111 C 156.28824 86.33399 159.14638 84.5107 166.34101 81.75111 C 176.09812 78.00596 181.8144 77.02039 193.14841 77.21751 C 201.52572 77.36534 202.75768 77.51318 208.07974 78.94225 Z"/>
            </g>
            <g>
               <path d="M 120.2658 105.60181 C 122.9761 106.58738 125.68641 108.06573 128.10105 109.83974 L 131.79692 112.59933 L 129.08661 112.35294 C 125.44002 112.05727 114.10601 112.79644 107.79839 113.73273 C 104.98952 114.17624 99.32252 115.30964 95.23242 116.24592 C 91.09304 117.18221 87.49572 117.92139 87.20005 117.92139 C 84.88397 117.92139 90.40314 112.55005 96.46437 108.90346 C 98.63262 107.57294 102.27921 105.8482 104.54602 105.05975 C 108.14333 103.77851 109.07962 103.63068 112.38127 103.82779 C 114.7959 103.97563 117.55549 104.61624 120.2658 105.60181 Z"/>
            </g>
            <g>
               <path d="M 273.5706 109.88902 C 276.5273 111.46593 280.371 115.06325 280.371 116.24592 C 280.371 116.88654 279.9768 116.9851 277.80854 116.73871 C 265.78464 115.45747 261.20175 115.95025 253.81 119.39974 C 249.62135 121.32159 246.86177 121.91293 246.86177 120.87809 C 246.86177 119.15334 253.51434 113.3385 258.19578 110.97315 C 264.60196 107.77006 269.037 107.42511 273.5706 109.88902 Z"/>
            </g>
            <g>
               <path d="M 133.96517 116.78799 C 133.91589 119.54757 133.22599 126.79148 132.9796 127.03787 C 132.83177 127.13643 130.76208 126.69293 128.34744 126.00303 C 114.69735 122.11004 88.38273 125.70736 79.61119 132.6556 C 78.28068 133.73972 76.90089 134.4789 76.50666 134.33106 C 75.52109 133.93684 75.71821 130.24096 76.85161 128.41767 C 79.41408 124.17973 88.38273 119.9418 100.55447 117.23149 C 108.34045 115.50675 112.5291 115.11252 124.06023 115.01397 L 134.01444 114.96469 L 133.96517 116.78799 Z"/>
            </g>
            <g>
               <path d="M 276.67514 119.59685 C 281.60297 120.92736 284.36256 122.40571 285.10173 124.13045 C 285.8902 126.05231 285.98874 128.76261 285.29885 128.76261 C 285.00318 128.76261 284.264 128.46694 283.67266 128.07272 C 280.371 125.90447 262.38443 125.70736 255.3869 127.72777 C 251.24754 128.91045 249.17785 129.009 248.3894 128.07272 C 246.66465 126.00303 256.27392 120.28675 263.86278 118.90695 C 266.91804 118.36489 273.42277 118.70984 276.67514 119.59685 Z"/>
            </g>
            <g>
               <path d="M 122.92683 127.08715 C 127.60826 127.97416 131.4027 129.55107 132.09259 130.78303 C 132.33898 131.32509 132.68393 133.49333 132.88104 135.66158 C 133.12743 138.96322 133.07816 139.60384 132.43754 139.60384 C 132.04331 139.60384 128.93878 139.0125 125.58785 138.3226 C 116.52065 136.45003 107.65055 136.20364 100.89942 137.58343 C 91.53654 139.50529 80.79387 143.44755 78.03429 146.0593 C 77.49223 146.55208 76.80233 146.99559 76.45738 146.99559 C 74.78192 146.99559 74.338415 141.77209 75.81676 139.30817 C 76.90089 137.53415 80.64604 134.97168 86.01737 132.31065 C 97.49922 126.59437 110.60725 124.77107 122.92683 127.08715 Z"/>
            </g>
            <g>
               <path d="M 278.597 129.2554 C 283.72194 130.53663 286.7772 132.16282 287.95987 134.13395 C 289.044 136.00653 289.7339 142.56054 288.7976 142.56054 C 288.50194 142.56054 287.07287 141.91992 285.6438 141.13147 C 279.0405 137.38632 263.51783 136.7457 254.10568 139.80096 C 252.13455 140.44157 250.31125 140.8358 249.9663 140.73724 C 249.17785 140.44157 248.73434 137.48488 249.12857 135.3659 C 249.5228 133.24694 250.95187 132.2121 256.22465 130.48736 C 261.3496 128.8119 264.0599 128.36839 269.82546 128.31911 C 273.32422 128.26983 275.93597 128.5655 278.597 129.2554 Z"/>
            </g>
            <g>
               <path d="M 119.72374 139.16034 C 124.3559 139.89951 129.23445 141.42714 130.76208 142.60982 C 131.79692 143.39827 132.04331 144.03889 132.04331 145.66507 C 132.04331 149.21311 131.94476 149.21311 125.0458 148.5725 C 114.40168 147.53765 106.81282 148.03043 99.02685 150.29723 C 93.35984 151.87414 89.3683 153.84527 83.60274 157.68898 C 80.94171 159.463 78.72418 160.8428 78.62563 160.74424 C 78.52707 160.64568 78.08357 158.92094 77.64006 156.90053 C 76.6545 152.51476 77.04872 150.74074 79.70975 148.42466 C 83.0114 145.51724 95.18314 140.73724 102.72272 139.40673 C 107.50272 138.569 115.33797 138.42116 119.72374 139.16034 Z"/>
            </g>
            <g>
               <path d="M 279.13906 141.2793 C 284.5104 143.00405 288.8469 145.41868 289.63534 147.14342 C 290.4238 148.81889 289.58606 153.796 288.45266 154.2395 C 288.00915 154.38733 285.98874 153.74672 283.91905 152.76115 C 281.84936 151.82486 278.44916 150.74074 276.42875 150.3958 C 271.25453 149.50878 259.37846 149.65662 254.4999 150.64218 C 252.33166 151.08569 250.01558 151.43064 249.37496 151.43064 C 248.29084 151.43064 248.24156 151.2828 248.43867 148.96672 C 248.8329 144.97518 251.3461 143.05332 258.44217 141.37786 C 267.41082 139.2589 272.78216 139.2589 279.13906 141.2793 Z"/>
            </g>
            <g>
               <path d="M 125.29218 150.98713 C 132.43754 152.02198 132.5361 152.12053 132.5361 158.28032 L 132.5361 161.92692 L 130.7128 161.58197 C 117.7526 159.31516 110.16374 159.26589 104.20107 161.38485 C 99.42107 163.1096 94.19757 165.67207 88.77696 168.92443 C 86.21449 170.45206 84.09552 171.63474 83.99696 171.53618 C 83.50418 170.99412 81.38521 166.21413 81.08954 165.03145 C 80.79387 163.75021 81.04026 163.35599 83.25779 161.23702 C 87.64356 157.14692 98.43551 152.21909 106.66498 150.64218 C 110.45941 149.903 119.1324 150.05084 125.29218 150.98713 Z"/>
            </g>
            <g>
               <path d="M 277.0201 152.8597 C 281.1102 153.89455 285.3974 155.86568 287.17142 157.49187 C 287.86132 158.13249 288.25554 159.06877 288.25554 160.1529 C 288.25554 162.27186 287.07287 165.13 286.03802 165.52423 C 285.5945 165.72134 283.77122 165.17928 281.94792 164.34155 C 277.9071 162.51825 277.16793 162.37042 271.0574 161.77908 C 265.3904 161.23702 258.24506 161.7298 250.50836 163.25743 C 247.60094 163.7995 245.13703 164.14444 245.03847 164.04588 C 244.69352 163.75021 246.41826 157.73826 247.15744 156.5063 C 249.2764 153.05682 268.49494 150.69146 277.0201 152.8597 Z"/>
            </g>
            <g>
               <path d="M 127.60826 163.50382 C 130.4664 164.243 132.88104 164.9329 132.93032 164.98217 C 133.27527 165.32712 134.31011 174.59144 134.01444 174.59144 C 133.86661 174.59144 131.64909 174.09866 129.08661 173.50732 C 125.53858 172.71886 122.77899 172.47247 117.7526 172.4232 C 108.98106 172.4232 104.00396 173.60587 96.21798 177.54814 C 93.11345 179.12504 90.25531 180.30772 89.86108 180.15989 C 89.26974 179.96278 84.73614 173.60587 84.73614 172.96526 C 84.73614 172.81742 85.2782 172.57103 85.91882 172.4232 C 86.60871 172.27536 87.74211 171.58546 88.53057 170.94485 C 91.78294 168.23454 99.8153 164.58794 106.66498 162.71537 C 111.59281 161.33558 120.51219 161.68052 127.60826 163.50382 Z"/>
            </g>
            <g>
               <path d="M 277.95638 165.62279 C 283.72194 167.54464 284.55967 168.3331 284.5104 171.88113 C 284.4611 177.15391 282.53926 178.04092 276.03452 175.87268 C 274.0634 175.18278 270.6632 174.39433 268.44567 174.04938 C 263.46856 173.3102 249.5228 173.7537 244.44713 174.78855 C 242.42672 175.23206 240.70198 175.47845 240.55414 175.3799 C 240.06136 174.8871 243.21517 169.023 244.44713 168.13598 C 245.8762 167.15042 250.9026 165.72134 257.30877 164.48939 C 259.5263 164.04588 263.22216 163.84877 267.06587 163.94733 C 272.38793 164.09516 273.86628 164.29227 277.95638 165.62279 Z"/>
            </g>
            <g>
               <path d="M 128.05177 175.577 C 134.01444 177.00608 135.34496 177.89309 135.78846 180.75123 C 135.9363 182.03246 135.88702 183.26442 135.64063 183.51081 C 135.34496 183.80648 133.37383 183.70793 130.2693 183.16587 C 121.74415 181.78607 114.50023 182.67308 104.74313 186.41823 C 98.6819 188.68504 96.71077 188.88215 95.23242 187.25596 C 92.7685 184.59494 92.91634 183.3137 95.92231 180.8005 C 102.22994 175.52773 117.35838 173.06381 128.05177 175.577 Z"/>
            </g>
            <g>
               <path d="M 269.43123 176.56257 C 273.91556 177.6467 280.8638 180.6034 280.8638 181.4904 C 280.8638 182.57453 277.36504 188.93143 276.5766 189.2271 C 276.13308 189.4242 274.7533 189.27638 273.52133 188.88215 C 266.1296 186.81246 264.01062 186.41823 258.3929 185.92545 C 253.56362 185.48195 250.8533 185.48195 246.22115 185.97473 C 236.90755 186.9603 236.3162 186.91102 236.1191 185.3341 C 235.92198 183.7572 238.33662 180.84978 240.8991 179.51927 C 247.84733 176.02051 261.25103 174.59144 269.43123 176.56257 Z"/>
            </g>
            <g>
               <path d="M 130.61424 185.72834 C 137.11898 186.91102 138.94228 188.43864 138.94228 192.67658 L 138.94228 194.4506 L 136.6262 194.10565 C 127.95321 192.8737 125.88352 192.77514 121.10353 193.26792 C 114.30312 194.0071 108.98106 195.43616 103.51117 198.04791 C 100.99798 199.2306 98.6819 200.21616 98.48479 200.21616 C 97.89345 200.21616 97.94272 195.18977 98.53406 193.61287 C 99.56891 190.85328 106.51715 187.1574 113.31756 185.67906 C 117.70332 184.79205 125.4893 184.79205 130.61424 185.72834 Z"/>
            </g>
            <g>
               <path d="M 265.34113 189.2271 C 272.63432 191.2475 274.30978 192.77514 272.78216 196.22462 C 271.7966 198.2943 268.7906 201.6945 267.85433 201.6945 C 267.50938 201.6945 266.37598 201.0539 265.29185 200.26544 C 260.36402 196.66812 250.31125 195.48544 233.06384 196.42173 C 230.2057 196.56956 229.86075 195.43616 232.17683 193.12008 C 234.0494 191.2475 238.04095 189.62132 243.363 188.63576 C 248.6358 187.6502 260.70897 187.94586 265.34113 189.2271 Z"/>
            </g>
            <g>
               <path d="M 134.50723 196.12606 C 138.94228 197.25946 141.25836 198.58998 141.8497 200.31472 C 142.19464 201.251 142.24392 202.03946 141.94825 202.33513 C 141.70186 202.58152 139.3365 202.72935 136.67547 202.72935 C 125.63713 202.6308 116.81632 204.99616 109.27673 210.1211 C 104.89097 213.0778 104.3489 213.0778 101.49076 210.21966 C 97.59778 206.32667 98.04128 204.4541 103.56045 201.00461 C 112.23343 195.63328 124.89796 193.61287 134.50723 196.12606 Z"/>
            </g>
            <g>
               <path d="M 254.40135 198.49142 C 260.46258 200.06832 265.58752 202.8279 265.58752 204.50337 C 265.58752 205.48894 263.32072 209.77615 262.38443 210.5646 C 261.69454 211.10667 261.3003 211.15594 260.01907 210.61388 C 250.6562 206.77017 246.46754 205.98172 234.34508 205.93244 C 228.1853 205.88316 224.93292 205.68605 224.83436 205.3411 C 224.7358 205.04543 225.1793 204.10915 225.77065 203.17286 C 227.15044 201.15245 228.77663 200.5611 237.30178 199.03348 C 244.7428 197.65369 250.45908 197.45657 254.40135 198.49142 Z"/>
            </g>
            <g>
               <path d="M 142.49031 206.2774 C 143.96866 206.918 145.34845 208.2978 145.34845 209.2341 C 145.34845 209.62832 140.76557 211.40234 138.94228 211.79656 C 131.94476 213.12708 123.2225 217.21718 118.73817 221.20872 C 117.0627 222.68707 115.43652 223.86975 115.0423 223.86975 C 114.3524 223.86975 108.58684 219.13903 106.76354 217.06934 C 105.82725 216.08377 105.87653 216.0345 109.96663 212.97924 C 114.64807 209.48048 119.72374 206.96729 123.666 206.17883 C 125.14435 205.88316 126.81981 205.53822 127.36187 205.43966 C 129.67795 204.8976 140.7163 205.48894 142.49031 206.2774 Z"/>
            </g>
            <g>
               <path d="M 247.50238 208.5442 C 251.93743 209.72687 258.59 212.68357 258.98423 213.66914 C 259.32918 214.60543 257.703 217.8578 255.83042 219.82893 C 254.10568 221.65222 252.77516 221.80006 250.80403 220.42027 C 247.4531 218.0549 234.93642 216.18233 226.362 216.7244 C 220.39932 217.11862 218.97025 216.67511 219.5123 214.60543 C 220.30076 211.45161 223.10962 210.02254 231.19127 208.59347 C 237.9424 207.4108 242.87022 207.36151 247.50238 208.5442 Z"/>
            </g>
            <g>
               <path d="M 146.92536 214.85182 C 148.05876 215.88666 149.7835 219.48398 149.7835 220.8145 C 149.7835 222.09573 148.94577 222.53923 144.85567 223.62336 C 140.96269 224.60892 135.6899 227.3685 130.31857 231.2615 C 128.10105 232.8384 126.08064 234.2182 125.78497 234.31675 C 125.53858 234.4153 123.46889 232.73984 121.25136 230.62087 L 117.25982 226.77717 L 119.08312 224.55964 C 125.14435 217.26645 142.78598 211.10667 146.92536 214.85182 Z"/>
            </g>
            <g>
               <path d="M 244.00363 220.27243 C 248.34012 221.75078 251.2968 223.86975 251.2968 225.49593 C 251.2968 227.07284 249.12857 230.02953 247.50238 230.71943 C 246.22115 231.21221 245.58053 231.11366 242.37744 229.83242 C 236.3655 227.41778 231.73333 226.6786 223.70096 226.7279 C 215.8657 226.77717 214.83087 226.62933 214.83087 225.49593 C 214.83087 224.36253 216.70344 221.9479 218.1818 221.20872 C 221.0892 219.73037 230.79704 218.39985 236.51332 218.7448 C 238.73085 218.84336 241.68754 219.4347 244.00363 220.27243 Z"/>
            </g>
            <g>
               <path d="M 153.1837 227.07284 C 155.64762 229.8817 155.30267 230.91654 151.40969 232.49345 C 145.0035 235.1052 141.94825 236.63283 139.09011 238.55468 C 134.50723 241.65922 134.21156 241.75777 132.58537 240.92004 C 130.95919 240.03303 129.08661 237.86479 129.08661 236.82994 C 129.08661 235.7951 133.76805 231.0151 136.52764 229.24108 C 140.07568 226.97428 145.05279 225.3481 148.60082 225.3481 C 151.45897 225.3481 151.75463 225.44665 153.1837 227.07284 Z"/>
            </g>
            <g>
               <path d="M 234.0494 229.29036 C 237.74528 229.8817 244.15146 232.78912 244.9399 234.26747 C 245.48197 235.3516 244.59496 236.97778 241.63827 240.3287 C 240.15992 241.95489 239.22363 241.9056 233.55662 239.83592 C 230.30426 238.65324 229.17085 238.45613 223.70096 238.45613 C 218.67458 238.40685 216.90056 238.60396 214.0917 239.49097 C 212.21912 240.0823 210.59293 240.47654 210.4451 240.37798 C 210.0016 239.8852 212.022 234.4153 213.20468 232.78912 C 213.89458 231.9021 215.2251 230.818 216.16138 230.42376 C 219.7587 228.9454 228.28385 228.40335 234.0494 229.29036 Z"/>
            </g>
            <g>
               <path d="M 158.11154 235.5487 C 158.80143 236.09077 159.787 237.22417 160.32906 238.11118 C 161.46246 240.1316 161.06823 240.62437 156.8303 242.3491 C 153.08515 243.82746 150.0299 245.7986 146.72825 248.90313 C 145.0035 250.48003 144.16578 250.97282 143.4266 250.72642 C 142.0468 250.28292 138.94228 245.89715 138.59733 243.92602 C 138.25238 241.7085 140.07568 239.58953 144.06722 237.56912 C 150.71979 234.1689 155.35195 233.5283 158.11154 235.5487 Z"/>
            </g>
            <g>
               <path d="M 228.92446 241.16643 C 233.1624 241.9056 236.26693 242.98973 237.2525 244.07385 C 238.04095 244.91158 238.09023 245.3058 237.59745 246.98127 C 237.2525 248.01612 236.5626 249.4452 235.97126 250.18436 C 234.78858 251.712 233.01456 251.81055 228.3824 250.72642 C 223.30674 249.49447 217.98468 249.29735 213.1554 250.18436 C 210.74077 250.5786 208.57252 250.82498 208.3754 250.67715 C 207.58696 250.23364 207.9319 246.83344 208.8682 245.25653 C 211.135 241.56066 220.49787 239.6388 228.92446 241.16643 Z"/>
            </g>
            <g>
               <path d="M 165.74967 245.1087 C 167.5237 247.22766 168.6571 249.54374 168.16431 249.98725 C 167.9672 250.18436 165.99607 251.2685 163.8771 252.4019 C 159.14638 254.91508 156.43607 256.78766 154.51422 258.80807 C 153.67649 259.6458 152.69092 260.3357 152.2967 260.2864 C 151.06474 260.2864 147.17175 254.52085 147.5167 253.23962 C 147.86165 251.76127 150.96618 248.3118 153.08515 246.98127 C 156.09113 245.1087 160.27978 243.58107 162.44803 243.58107 C 164.12349 243.58107 164.71483 243.82746 165.74967 245.1087 Z"/>
            </g>
            <g>
               <path d="M 228.136 252.45116 C 230.8956 253.09178 233.06384 253.9295 233.06384 254.4223 C 233.06384 255.35858 228.87518 262.30683 228.136 262.55322 C 227.6925 262.70105 226.3127 262.40538 225.13003 261.96188 C 223.35601 261.27198 221.38488 261.07487 214.33808 261.07487 C 205.76366 261.07487 205.71438 261.07487 205.56655 259.94147 C 205.32015 258.31528 206.30572 255.70353 207.68551 254.4223 C 209.80448 252.45116 214.7816 251.41632 220.74426 251.712 C 223.6024 251.85982 226.90405 252.20477 228.136 252.45116 Z"/>
            </g>
            <g>
               <path d="M 173.38781 257.67467 C 174.7676 260.5328 175.901 263.046 175.901 263.19384 C 175.901 263.39095 174.52121 264.08084 172.84575 264.72146 C 168.4107 266.39693 164.66555 268.56517 162.00452 271.07836 C 160.674 272.31032 159.44205 273.09878 159.14638 272.90166 C 158.11154 272.26104 155.20412 265.5592 155.20412 263.83445 C 155.20412 262.3561 155.64762 261.6662 158.30865 259.10374 C 161.56102 255.94992 167.42514 252.50044 169.5441 252.45116 C 170.72678 252.45116 171.121 252.99323 173.38781 257.67467 Z"/>
            </g>
            <g>
               <path d="M 223.6024 263.58806 C 226.95333 264.82002 227.4954 266.939 225.4257 270.5363 C 223.99663 272.95094 223.30674 273.09878 221.18777 271.57115 C 219.85725 270.58558 218.92097 270.43775 212.61334 270.19135 C 204.38387 269.8957 203.49686 269.50146 204.2853 266.64332 C 204.87665 264.47507 207.19273 263.39095 212.21912 262.8489 C 216.85128 262.3561 220.74426 262.6025 223.6024 263.58806 Z"/>
            </g>
            <g>
               <g  id="outline-1">
                  <path
                        d="M 161.70885 114.81685 C 160.62473 116.83726 159.88556 122.8985 159.93483 129.74818 C 159.93483 136.45003 160.03339 137.23848 161.70885 142.80693 C 162.69442 146.0593 163.67999 149.7059 163.97565 150.98713 C 165.0105 155.17579 166.04534 165.42567 166.78452 178.7801 C 168.36142 206.08028 169.9876 214.85182 177.87214 237.6184 C 182.30719 250.43075 184.37687 258.0689 185.26388 264.27796 C 186.20017 271.12764 186.7915 273.64084 187.33357 273.64084 C 188.02347 273.64084 187.4814 266.4462 186.20017 258.66023 C 185.55955 254.76724 184.22904 249.98725 182.45502 244.81303 C 171.26884 212.6343 170.97317 211.10667 169.24843 183.70793 C 167.81936 160.8428 166.3903 150.05084 163.53215 141.08219 C 161.8074 135.6123 161.3639 128.02344 162.25091 120.87809 C 163.03937 114.96469 162.79298 112.69789 161.70885 114.81685 Z"
                        fill="black"/>
               </g>
            </g>
            <g>
               <g  id="outline-2">
                  <path
                        d="M 203.34902 132.11354 C 203.10263 132.45849 202.5113 136.20364 201.96923 140.49085 C 199.80098 158.57599 198.37191 165.67207 194.87315 176.36546 C 191.96573 185.23555 188.51625 203.02502 187.18574 215.7881 C 186.5944 221.89861 186.89007 225.7916 188.95976 235.69654 C 190.6845 244.07385 191.17728 248.3118 191.67006 258.0689 C 192.11357 266.8897 192.75419 269.6493 193.44408 266.0027 C 194.23254 261.56765 192.7049 245.89715 190.14244 232.24706 C 188.51625 223.82047 188.6148 215.44316 190.38883 205.39038 C 192.5078 193.26792 194.47893 184.74277 196.69645 178.5337 C 199.45604 170.55062 200.54016 166.75619 200.54016 164.73578 C 200.54016 163.7995 201.08222 159.75867 201.72284 155.76713 C 202.41273 151.77558 203.20119 146.01002 203.49686 142.95477 C 204.0882 136.9921 204.03892 131.02942 203.34902 132.11354 Z"
                        fill="black"/>
               </g>
            </g>
         </g>
      </g>
   </g>
</svg>