<?xml version="1.0" encoding="UTF-8" standalone="no"?>
<svg
   version="1.1"
   viewBox="108 61.66667 148.5 355.5"
   width="148.5"
   height="355.5"
   id="svg10295"
   xmlns="http://www.w3.org/2000/svg"
   xmlns:svg="http://www.w3.org/2000/svg"
   xmlns:rdf="http://www.w3.org/1999/02/22-rdf-syntax-ns#"
   xmlns:cc="http://creativecommons.org/ns#"
   xmlns:dc="http://purl.org/dc/elements/1.1/">
  <defs
     id="defs10182" />
  <g
     id="Carrot_(4)"
     stroke-opacity="1"
     stroke-dasharray="none"
     fill-opacity="1">
    <title
       id="title10184">Carrot (4)</title>
    <g
       id="Carrot_(4)_Layer_2">
      <title
         id="title10186">Layer 2</title>
      <g
         id="Graphic_45">
        <path
           d="M 230.3337 73.37655 C 230.3337 74.03308 230.15132 74.58019 229.896 74.61667 C 229.16652 74.61667 229.09357 73.37655 229.7501 72.72001 C 230.29722 72.1729 230.3337 72.209375 230.3337 73.37655 Z"
           fill="#FFFFFF"
           id="path10188" />
      </g>
      <g
         id="Graphic_44">
        <path
           d="M 229.53126 80.52547 C 229.23947 82.49507 229.13005 88.44035 229.3489 90.33701 C 229.4583 91.39475 229.64068 94.05736 229.67716 96.28229 C 229.71363 98.5072 230.15132 101.86282 230.589 103.68653 C 231.06317 105.54671 231.1726 106.8233 230.8808 106.53151 C 229.896 105.54671 228.40056 102.51936 228.72883 102.19109 C 228.9112 102.00872 228.83825 101.42513 228.54646 100.9145 C 228.25467 100.40386 228.03582 99.45553 228.03582 98.87195 C 228.03582 98.28836 227.9264 96.13639 227.74403 94.05736 C 227.45224 90.33701 228.6194 79.46772 229.3489 79.46772 C 229.53126 79.43125 229.6042 79.94189 229.53126 80.52547 Z"
           fill="#FFFFFF"
           id="path10191" />
      </g>
      <g
         id="Graphic_43">
        <path
           d="M 232.20427 354.5701 C 232.75138 354.60657 233.80913 354.2783 234.5386 353.76767 C 236.2529 352.7099 236.107 353.95004 234.4292 355.1172 C 233.0067 356.102 231.80305 356.2844 231.14652 355.62785 C 230.49 354.9713 231.00062 354.46068 232.20427 354.5701 Z"
           fill="#FFFFFF"
           id="path10194" />
      </g>
      <g
         id="Group_15">
        <g
           id="Graphic_42"
           style="fill:#ffff00">
          <path
             d="M 204.44485 318.1195 C 204.95036 311.54793 209.4999 313.06445 218.599 322.66905 C 227.69808 332.27364 238.3137 330.25162 242.35773 341.87824 C 246.40177 353.50486 245.29715 364.38466 247.41278 369.1755 C 249.52842 373.96637 247.9183 377.2636 243.87425 382.31865 C 239.8302 387.3737 233.76415 384.34067 230.2256 381.81314 C 226.68707 379.2856 228.2036 370.18653 229.2146 365.637 C 230.2256 361.08743 229.7201 350.97733 227.19258 348.9553 C 224.66505 346.9333 221.12652 342.38375 215.56596 339.8562 C 210.0054 337.3287 201.91733 326.7131 201.91733 326.7131 C 201.91733 326.7131 203.93935 324.69107 204.44485 318.1195 Z"
             fill="#FFFFFF"
             id="path10197"
             style="fill:#ffff00" />
          <path
             d="M 204.44485 318.1195 C 204.95036 311.54793 209.4999 313.06445 218.599 322.66905 C 227.69808 332.27364 238.3137 330.25162 242.35773 341.87824 C 246.40177 353.50486 245.29715 364.38466 247.41278 369.1755 C 249.52842 373.96637 247.9183 377.2636 243.87425 382.31865 C 239.8302 387.3737 233.76415 384.34067 230.2256 381.81314 C 226.68707 379.2856 228.2036 370.18653 229.2146 365.637 C 230.2256 361.08743 229.7201 350.97733 227.19258 348.9553 C 224.66505 346.9333 221.12652 342.38375 215.56596 339.8562 C 210.0054 337.3287 201.91733 326.7131 201.91733 326.7131 C 201.91733 326.7131 203.93935 324.69107 204.44485 318.1195 Z"
             stroke="black"
             stroke-linecap="round"
             stroke-linejoin="round"
             stroke-width="2"
             id="path10199"
             style="fill:#ffff00" />
        </g>
        <g
           id="Graphic_39"
           style="fill:#ffff00">
          <path
             d="M 204.8603 129.25056 C 217.74395 132.19353 244.36147 135.92129 249.5934 179.86962 C 254.82535 223.81794 249.5934 244.02632 231.347 279.93054 C 213.1006 315.83475 206.03748 342.32146 201.32873 355.8591 C 196.61998 369.39677 195.4428 378.22568 178.37358 350.56178 C 161.30436 322.89787 144.82374 309.9488 131.28609 280.51913 C 117.74843 251.08945 107.15375 209.8879 116.57125 178.10384 C 125.98874 146.31978 157.7728 131.01634 164.83593 130.42775 C 171.89905 129.83916 191.97663 126.3076 204.8603 129.25056 Z"
             fill="#FFFFFF"
             id="path10212"
             style="fill:#ffff00" />
          <path
             d="M 204.8603 129.25056 C 217.74395 132.19353 244.36147 135.92129 249.5934 179.86962 C 254.82535 223.81794 249.5934 244.02632 231.347 279.93054 C 213.1006 315.83475 206.03748 342.32146 201.32873 355.8591 C 196.61998 369.39677 195.4428 378.22568 178.37358 350.56178 C 161.30436 322.89787 144.82374 309.9488 131.28609 280.51913 C 117.74843 251.08945 107.15375 209.8879 116.57125 178.10384 C 125.98874 146.31978 157.7728 131.01634 164.83593 130.42775 C 171.89905 129.83916 191.97663 126.3076 204.8603 129.25056 Z"
             stroke="black"
             stroke-linecap="round"
             stroke-linejoin="round"
             stroke-width="2"
             id="path10214"
             style="fill:#ffff00" />
        </g>
        <g
           id="Line_38">
          <path
             d="M 194.60016 338.7899 C 194.60016 338.7899 203.70248 339.53836 206.96194 337.84282"
             stroke="black"
             stroke-linecap="round"
             stroke-linejoin="round"
             stroke-width="2"
             id="path10217" />
        </g>
        <g
           id="leaved">
          <g
             id="Graphic_41"
             style="fill:#00ff00">
            <path
               d="M 158.3614 137.49087 C 170.72186 130.42775 183.08233 132.78212 169.54467 113.35853 C 156.00702 93.93494 148.9439 98.0551 138.34921 91.58057 C 127.75453 85.10604 131.28609 84.51744 129.5203 97.4665 C 127.75453 110.41557 130.6975 123.36463 136.58343 130.42775 C 142.46937 137.49087 146.00093 144.554 158.3614 137.49087 Z"
               fill="#FFFFFF"
               id="path10202"
               style="fill:#00ff00" />
            <path
               d="M 158.3614 137.49087 C 170.72186 130.42775 183.08233 132.78212 169.54467 113.35853 C 156.00702 93.93494 148.9439 98.0551 138.34921 91.58057 C 127.75453 85.10604 131.28609 84.51744 129.5203 97.4665 C 127.75453 110.41557 130.6975 123.36463 136.58343 130.42775 C 142.46937 137.49087 146.00093 144.554 158.3614 137.49087 Z"
               stroke="black"
               stroke-linecap="round"
               stroke-linejoin="round"
               stroke-width="2"
               id="path10204"
               style="fill:#00ff00" />
          </g>
          <g
             id="Graphic_40"
             style="fill:#00ff00">
            <path
               d="M 201.91733 133.95931 C 219.57513 137.49087 228.99263 139.84525 234.87857 130.42775 C 240.7645 121.01025 235.46716 113.35853 241.9417 100.40947 C 248.41622 87.46041 250.7706 72.74557 233.1128 89.22619 C 215.45498 105.70682 209.56904 103.94104 204.2717 112.18135 C 198.97436 120.42166 184.25952 130.42775 201.91733 133.95931 Z"
               fill="#FFFFFF"
               id="path10207"
               style="fill:#00ff00" />
            <path
               d="M 201.91733 133.95931 C 219.57513 137.49087 228.99263 139.84525 234.87857 130.42775 C 240.7645 121.01025 235.46716 113.35853 241.9417 100.40947 C 248.41622 87.46041 250.7706 72.74557 233.1128 89.22619 C 215.45498 105.70682 209.56904 103.94104 204.2717 112.18135 C 198.97436 120.42166 184.25952 130.42775 201.91733 133.95931 Z"
               stroke="black"
               stroke-linecap="round"
               stroke-linejoin="round"
               stroke-width="2"
               id="path10209"
               style="fill:#00ff00" />
          </g>
          <g
             id="Graphic_37"
             style="fill:#00ff00">
            <path
               d="M 177.5274 133.15753 C 187.53349 133.15753 191.26125 132.69974 194.00802 132.56894 C 196.75479 132.43814 205.1259 128.05639 205.7799 116.08832 C 206.43388 104.12025 201.72513 93.78716 194.00802 79.00692 C 186.2909 64.22668 185.17911 55.46317 175.76161 76.06395 C 166.34411 96.66473 164.8023 94.19602 163.40115 107.84801 C 162 121.5 167.5213 133.15753 177.5274 133.15753 Z"
               fill="#FFFFFF"
               id="path10220"
               style="fill:#00ff00" />
            <path
               d="M 177.5274 133.15753 C 187.53349 133.15753 191.26125 132.69974 194.00802 132.56894 C 196.75479 132.43814 205.1259 128.05639 205.7799 116.08832 C 206.43388 104.12025 201.72513 93.78716 194.00802 79.00692 C 186.2909 64.22668 185.17911 55.46317 175.76161 76.06395 C 166.34411 96.66473 164.8023 94.19602 163.40115 107.84801 C 162 121.5 167.5213 133.15753 177.5274 133.15753 Z"
               stroke="black"
               stroke-linecap="round"
               stroke-linejoin="round"
               stroke-width="2"
               id="path10222"
               style="fill:#00ff00" />
          </g>
        </g>
        <g
           id="Graphic_36"
           style="fill:#ffff00"
           transform="translate(-44.653846,1.7307693)">
          <path
             d="m 193.6007,294.58682 c -6.9244,-3.98276 -5.29765,18.16756 -9.41781,28.76223 -4.12015,10.5947 -3.53156,27.6639 -3.53156,35.90423 0,8.24031 5.29734,25.30953 11.18328,24.72093 5.88594,-0.58859 11.77187,-16.48062 14.12625,-25.89812 2.35437,-9.4175 -2.94297,-15.89204 4.37812,-40.59612 8.08342,1.36645 5.00304,-16.00996 1.6102,-16.7683"
             stroke="#000000"
             stroke-linecap="round"
             stroke-linejoin="round"
             stroke-width="2"
             id="path10227"
             style="fill:#ffff00" />
        </g>
        <g
           id="Graphic_35"
           style="fill:#ffff00">
          <path
             d="M 181.61559 329.09043 C 187.50152 322.6159 184.55856 326.14746 196.33043 336.74215 C 208.1023 347.33683 216.9312 352.0456 216.9312 360.2859 C 216.9312 368.5262 211.63386 378.5323 218.1084 387.9498 C 224.58292 397.3673 224.58292 410.31635 215.75402 413.2593 C 206.92512 416.2023 202.21637 416.2023 196.91902 405.019 C 191.62168 393.83573 190.4445 390.30417 195.15324 375.58933 C 199.862 360.8745 189.2673 354.98855 183.96996 349.6912 C 178.67262 344.39386 175.72965 335.56496 181.61559 329.09043 Z"
             fill="#FFFFFF"
             id="path10230"
             style="fill:#ffff00" />
          <path
             d="m 182.65406,322.51351 c 7.6167,0.7947 1.9045,3.63395 13.67637,14.22864 11.77187,10.59468 20.60077,15.30345 20.60077,23.54375 0,8.2403 -5.29734,18.2464 1.1772,27.6639 6.47452,9.4175 6.47452,22.36655 -2.35438,25.3095 -8.8289,2.943 -13.53765,2.943 -18.835,-8.2403 -5.29734,-11.18327 -6.47452,-14.71483 -1.76578,-29.42967 4.70876,-14.71483 -5.88594,-20.60078 -11.18328,-25.89813 -5.29734,-5.29734 -9.27877,-7.89547 -6.16206,-16.44692"
             stroke="#000000"
             stroke-linecap="round"
             stroke-linejoin="round"
             stroke-width="2"
             id="path10232"
             style="fill:#ffff00" />
        </g>
        <g
           id="Line_33">
          <path
             d="M 200.15154 141.02244 C 209.63686 141.46327 229.25665 142.67437 232.49818 141.7055"
             stroke="black"
             stroke-linecap="round"
             stroke-linejoin="round"
             stroke-width="2"
             id="path10238" />
        </g>
        <g
           id="Line_32">
          <path
             d="M 207.13462 155.20002 C 218.11455 156.66256 239.18766 155.20924 241.8948 154.42202"
             stroke="black"
             stroke-linecap="round"
             stroke-linejoin="round"
             stroke-width="2"
             id="path10241" />
        </g>
        <g
           id="Line_31">
          <path
             d="M 214.22427 169.12085 C 223.8067 170.34796 244.39538 169.98463 246.98708 168.71298"
             stroke="black"
             stroke-linecap="round"
             stroke-linejoin="round"
             stroke-width="2"
             id="path10244" />
        </g>
        <g
           id="Line_30">
          <path
             d="M 212.77096 188.16126 C 225.50225 190.20997 248.02867 189.2411 250.30616 187.96944"
             stroke="black"
             stroke-linecap="round"
             stroke-linejoin="round"
             stroke-width="2"
             id="path10247" />
        </g>
        <g
           id="Line_29">
          <path
             d="M 211.3705 207.08057 C 227.92444 209.2242 246.57535 208.13422 251.39615 206.37813"
             stroke="black"
             stroke-linecap="round"
             stroke-linejoin="round"
             stroke-width="2"
             id="path10250" />
        </g>
        <g
           id="Line_28">
          <path
             d="M 211.37062 224.81784 C 216.1768 225.81625 243.4265 227.02735 250.54838 225.02904"
             stroke="black"
             stroke-linecap="round"
             stroke-linejoin="round"
             stroke-width="2"
             id="path10253" />
        </g>
        <g
           id="Line_27">
          <path
             d="M 206.08956 243.17292 C 216.05568 244.34605 242.57873 243.86161 246.94024 242.56737"
             stroke="black"
             stroke-linecap="round"
             stroke-linejoin="round"
             stroke-width="2"
             id="path10256" />
        </g>
        <g
           id="Line_26">
          <path
             d="M 206.0265 259.42422 C 206.0265 259.42422 237.371 260.21144 241.24652 258.90103"
             stroke="black"
             stroke-linecap="round"
             stroke-linejoin="round"
             stroke-width="2"
             id="path10259" />
        </g>
        <g
           id="Line_25">
          <path
             d="M 201.91733 274.6332 C 201.91733 274.6332 230.10442 275.8346 234.10104 274.5024"
             stroke="black"
             stroke-linecap="round"
             stroke-linejoin="round"
             stroke-width="2"
             id="path10262" />
        </g>
        <g
           id="Line_24">
          <path
             d="M 199.68973 290.30722 C 199.68973 290.30722 222.95894 290.85222 225.88882 290.00445"
             stroke="black"
             stroke-linecap="round"
             stroke-linejoin="round"
             stroke-width="2"
             id="path10265" />
        </g>
        <g
           id="Line_23">
          <path
             d="M 192.79412 306.4537 C 192.79412 306.4537 214.72348 307.20204 218.8721 306.23243"
             stroke="black"
             stroke-linecap="round"
             stroke-linejoin="round"
             stroke-width="2"
             id="path10268" />
        </g>
        <g
           id="Line_22">
          <path
             d="M 191.6727 323.128 C 191.6727 323.128 209.39464 324.1574 212.78572 321.85633"
             stroke="black"
             stroke-linecap="round"
             stroke-linejoin="round"
             stroke-width="2"
             id="path10271" />
        </g>
        <g
           id="Line_21">
          <path
             d="M 201.6751 314.8925 C 201.6751 314.8925 211.65566 316.16417 215.32903 314.58974"
             stroke="black"
             stroke-linecap="round"
             stroke-linejoin="round"
             stroke-width="2"
             id="path10274" />
        </g>
        <g
           id="Line_20">
          <path
             d="M 205.66318 298.17936 C 205.66318 298.17936 218.8412 298.84547 222.7041 297.9977"
             stroke="black"
             stroke-linecap="round"
             stroke-linejoin="round"
             stroke-width="2"
             id="path10277" />
        </g>
        <g
           id="Line_19">
          <path
             d="M 217.97652 282.42403 C 217.97652 282.42403 227.07668 282.98008 229.85386 282.1818"
             stroke="black"
             stroke-linecap="round"
             stroke-linejoin="round"
             stroke-width="2"
             id="path10280" />
        </g>
        <g
           id="Line_18">
          <path
             d="M 225.51496 265.85563 C 225.51496 265.85563 235.43325 266.38804 237.87674 265.54027"
             stroke="black"
             stroke-linecap="round"
             stroke-linejoin="round"
             stroke-width="2"
             id="path10283" />
        </g>
        <g
           id="Line_17">
          <path
             d="M 232.25596 251.49153 C 232.25596 251.49153 240.76208 251.49153 244.1333 250.5522"
             stroke="black"
             stroke-linecap="round"
             stroke-linejoin="round"
             stroke-width="2"
             id="path10286" />
        </g>
        <g
           id="Line_16">
          <path
             d="M 198.08214 330.39457 C 198.08214 330.39457 206.488 331.1818 209.87908 329.36514"
             stroke="black"
             stroke-linecap="round"
             stroke-linejoin="round"
             stroke-width="2"
             id="path10289" />
        </g>
      </g>
    </g>
  </g>
  <metadata
     id="metadata10884">
    <rdf:RDF>
      <cc:Work
         rdf:about="">
        <dc:creator>
          <cc:Agent>
            <dc:title>http://heraldicart.org/carrot/</dc:title>
          </cc:Agent>
        </dc:creator>
      </cc:Work>
    </rdf:RDF>
  </metadata>
</svg>
