<?xml version="1.0" encoding="UTF-8" standalone="no"?>
<svg
   version="1.1"
   preserveAspectRatio="xMidYMid meet"
   height="814.85651"
   width="792.05786"
   viewBox="0 0 792.05786 814.85651"
   id="svg127"
   xmlns="http://www.w3.org/2000/svg"
   xmlns:svg="http://www.w3.org/2000/svg"
   xmlns:rdf="http://www.w3.org/1999/02/22-rdf-syntax-ns#"
   xmlns:cc="http://creativecommons.org/ns#"
   xmlns:dc="http://purl.org/dc/elements/1.1/">
  <defs
     id="defs2">
    <defs
       id="defs123">
      <mask
         id="mask3">
        <path
           fill="#ffffff"
           d="m 0,0 v 800 c -2.5063876,43.11115 1.2341419,84.33503 21.489586,125.13639 20.255443,40.80137 53.477613,79.98631 98.039434,115.63581 44.56181,35.6494 100.44867,67.7517 164.92346,94.7345 64.47479,26.9828 137.51639,48.8374 215.54752,64.4933 78.03113,-15.6559 151.07273,-37.5105 215.54752,-64.4933 64.47479,-26.9828 120.36165,-59.0851 164.92346,-94.7345 44.56182,-35.6495 77.78399,-74.83444 98.03943,-115.63581 C 998.76586,884.33503 1000.1453,841.93063 1000,800 V 0 Z"
           id="path120" />
      </mask>
    </defs>
  </defs>
  <metadata
     id="metadata5041">
    <rdf:RDF>
      <cc:Work
         rdf:about="">
        <dc:date>25/08/2022</dc:date>
        <dc:creator>
          <cc:Agent>
            <dc:title>Genuensium praesidium, drawshield.net</dc:title>
          </cc:Agent>
        </dc:creator>
        <dc:subject>
          <rdf:Bag>
            <rdf:li>lion</rdf:li>
            <rdf:li>lions</rdf:li>
            <rdf:li>couchant</rdf:li>
            <rdf:li>guardant</rdf:li>
          </rdf:Bag>
        </dc:subject>
      </cc:Work>
    </rdf:RDF>
  </metadata>
  <g
     id="g1118"
     transform="translate(-103.97107,-92.571736)">
    <g
       id="g1187"
       transform="translate(0,44.725602)">
      <rect
         y="256.81995"
         x="314.29074"
         height="154.83569"
         width="155.05574"
         opacity="0.5"
         fill="none"
         stroke="none"
         id="rect210"
         style="stroke-width:2.3002" />
      <rect
         width="152.55923"
         height="158.49426"
         x="332.08496"
         y="279.88315"
         transform="matrix(0.88072466,-0.47362863,0.13324409,0.99108325,0,0)"
         opacity="0.5"
         fill="none"
         id="rect108"
         style="stroke-width:2.38658" />
      <g
         id="g4962"
         transform="translate(0.20694302,-98.221623)">
        <g
           id="g3662"
           transform="matrix(0.99956977,0,0,0.84528819,-0.80565453,66.663223)">
          <g
             id="g3365"
             style="fill:#ffff00">
            <g
               id="g3333"
               style="fill:#ffff00">
              <g
                 id="g3133"
                 style="fill:#ffff00">
                <path
                   d="m 473.2245,556.24489 c 0,0 43.42857,36.57143 63.18367,44.08164 11.42858,4.24489 27.10205,2.28571 38.69388,2.61224 31.34694,0.97959 73.14286,0 104.65307,0 16,0 38.04081,-8.4898 53.71428,0 17.46939,9.46939 38.20409,37.87755 52.2449,60.73469 13.38776,21.55102 26.44898,60.7347 38.53062,85.22449 6.04081,12.08164 13.06122,31.02041 20.73469,38.53061 7.02041,6.85715 15.18367,2.61225 21.71429,11.42858 10.77551,14.69387 23.83673,45.71428 26.44898,71.18367 1.14285,11.42857 -0.32653,28.08163 -2.77551,38.53061 -4.40817,19.59184 -17.14286,32.32653 -26.28572,43.7551 -3.91837,5.22449 -10.44898,7.18368 -15.02041,8.4898 -3.7551,0.97959 -8.16326,-1.63265 -11.59183,-3.91837 -7.67347,-5.55102 -11.91837,-15.02041 -18.77552,-19.91837 -3.10204,-2.28571 -8.32653,-3.59183 -11.10204,0 -3.42857,4.57143 -3.7551,4.89796 -3.91836,13.06123 -0.16327,5.22449 4.08163,12.08163 2.77551,16.32653 -6.20409,19.2653 -23.83674,15.02041 -41.30613,14.69388 -19.42857,-0.32653 -38.69388,1.95918 -38.69388,1.95918 0,0 -11.91836,-0.32653 -16,4.57143 -1.95918,2.28571 -4.24489,7.5102 -4.57142,11.7551 -0.4898,7.18367 4.08163,22.20407 4.08163,22.20407 0,0 -6.85714,1.3061 -9.63266,0 -4.08163,-1.9592 -9.46938,-6.2041 -12.57142,-11.7551 -3.59184,-6.8571 -4.08164,-23.51019 -8,-29.71428 -4.08164,-6.20408 -16.65307,-8.16326 -16.65307,-8.16326 0,0 -9.79591,30.04084 -16.48979,35.91834 -2.61225,2.2857 -9.63266,0 -9.63266,0 l -22.04081,-32.97957 5.06122,-13.71428 -13.22449,7.83673 -19.7551,-25.14285 -18.93878,-2.28572 c 0,0 -6.53061,-18.28571 -6.85714,-27.42857 -0.32653,-16 9.63265,-49.63265 9.63265,-49.63265 l -10.93877,35.91837 c 0,0 -12.2449,-15.02041 -18.12245,-17.63266 -18.44898,-7.5102 -62.69388,5.87755 -62.69388,5.87755 L 372.65307,768.16326 467.67348,545.14285 Z"
                   fill-rule="evenodd"
                   stroke="#000000"
                   stroke-width="6.92676"
                   id="path16"
                   style="fill:#ffff00" />
                <path
                   d="m 570.69389,865.79591 c 0,0 2.12245,-4.2449 5.22449,-7.18367 19.10204,-18.61225 49.46939,-0.65306 70.53061,0 15.51021,0.32653 36.08164,0.97959 51.59184,2.61224 11.42857,1.63266 26.93878,0.97959 38.04082,7.18368 7.34694,4.24489 19.10204,9.46938 23.18367,22.53061 2.44898,7.5102 -4.40816,29.06122 0,29.71428 4.08163,0.65306 -0.65306,-20.89796 2.12245,-26.77551 3.59184,-7.83673 16.97959,-8.48979 16.97959,-8.48979"
                   fill="none"
                   stroke="#000000"
                   stroke-width="6.92676"
                   id="path18"
                   style="fill:#ffff00" />
                <path
                   d="m 620.48981,960.48979 c 0,0 15.02041,-24.81633 23.18367,-30.04082 6.85715,-4.57143 16.81633,-3.59183 24,-4.2449"
                   fill="none"
                   stroke="#000000"
                   stroke-width="5.7723"
                   id="path20"
                   style="fill:#ffff00" />
                <path
                   d="m 590.93879,938.28571 c 0,0 0.65306,-8.4898 3.2653,-14.69388 3.42857,-7.51021 9.30613,-13.38776 12.7347,-16.97959 7.83673,-8.16327 16.16326,-12.08164 24.81632,-14.04082"
                   fill="none"
                   stroke="#000000"
                   stroke-width="5.7723"
                   id="path22"
                   style="fill:#ffff00" />
                <path
                   d="m 830.12247,844.89795 c 0,0 7.18367,5.22449 9.95918,9.14286 2.44898,3.59184 4.2449,11.7551 5.06122,17.63265 0.9796,5.55102 2.61225,9.79592 1.79592,15.34694 -0.97959,5.87755 -3.7551,14.69388 -6.04081,18.93878 -3.26531,5.87755 -5.55102,10.12244 -9.14286,15.0204 -1.63265,2.28572 -4.2449,5.55102 -6.85714,8.4898 -2.93878,3.59184 -5.55102,6.53061 -5.55102,6.53061 0,0 10.77551,-23.83673 13.38775,-36.57143 1.63265,-7.83673 1.30612,-19.91836 0.97959,-28.08163 -0.48979,-8.16326 -3.59183,-26.44898 -3.59183,-26.44898 z"
                   fill="#000000"
                   fill-rule="evenodd"
                   stroke="#000000"
                   stroke-width="11.5446"
                   id="path24"
                   style="fill:#ffff00" />
                <path
                   d="m 690.85716,669.87755 c 0,0 1.30612,21.87755 -1.30613,28.73469 -3.91836,11.42857 -15.5102,9.46939 -20.57142,18.61224 -3.91837,6.53062 -8.9796,16.32653 -10.93878,25.79592 -3.10204,16.32653 -4.40816,43.42857 -3.42857,61.06123 0.81632,11.10204 3.91837,26.12244 7.83673,33.95918 5.38776,11.10204 21.22449,21.87755 21.22449,21.87755"
                   fill="none"
                   stroke="#000000"
                   stroke-width="6.92676"
                   id="path26"
                   style="fill:#ffff00" />
              </g>
              <g
                 id="g2935"
                 style="fill:#ffff00">
                <path
                   d="m 661.63267,836.08163 c 0,0 -20.40817,-18.61225 -27.26531,-32 -6.20408,-11.75511 -13.38776,-31.67347 -16,-48.65307 -1.46939,-10.12244 -1.95918,-25.79591 0,-35.59183 2.12245,-9.46939 7.67347,-19.59184 12.40816,-22.53061 4.40817,-2.61225 5.22449,-0.32653 9.14286,4.89796 2.93878,3.59183 3.59184,32.97959 3.59184,32.97959 0,0 10.77551,-43.10204 5.38775,-54.53061 -1.79592,-3.59184 -4.2449,-12.08164 -7.67347,-15.67347 -4.08163,-4.89796 -9.14285,-4.89796 -12.2449,-4.89796 -6.53061,0 -21.06122,11.10204 -21.06122,11.10204 0,0 6.04082,-40.81633 10.44898,-56.16327 4.2449,-14.36734 10.44898,-34.61224 17.63265,-41.14285 11.26531,-10.44898 29.06123,7.83673 40.65306,0 5.87756,-4.2449 11.59184,-18.93878 16.81633,-26.44898 5.87755,-8.81633 13.22449,-23.83674 20.2449,-28.08164 5.06122,-2.93877 13.22449,-4.24489 17.63265,1.95919 2.44898,3.59183 4.7347,12.40816 4.40817,18.61224 -0.65306,9.14286 -9.63266,22.53061 -9.63266,22.53061 0,0 19.26531,-0.65306 23.67347,-13.06122 3.91837,-10.77551 2.77551,-32.65306 0,-45.06122 -1.46938,-7.18368 -6.20408,-13.71429 -9.63265,-16.65307 -8.32653,-7.18367 -20.89796,-5.87755 -30.04082,-5.55102 -5.06122,0 -16.65306,3.59184 -16.65306,3.59184 0,0 10.44898,-24.16326 10.44898,-38.62857 0,-10.44898 -2.61224,-21.02857 -7.02041,-25.95918 -5.06122,-5.8449 -14.36734,1.69796 -14.36734,1.69796 0,0 7.18367,9.92653 8,16.84897 0.48979,3.98368 -0.32653,10.25307 -1.79592,13.12654 -2.12245,4.50612 -6.69388,4.50612 -9.63266,5.48571 -6.04081,2.28571 -25.30612,-2.61225 -25.30612,-2.61225 0,0 19.91837,-43.91836 27.7551,-65.76326 4.40817,-12.2449 9.14286,-31.11837 12.89796,-44.2449 2.44898,-8.68571 6.20409,-22.20408 10.44898,-26.67755 3.59184,-3.7551 9.79592,-2.28571 13.22449,1.86123 2.77551,3.36326 6.20409,18.74285 6.20409,18.74285 0,0 3.2653,-30.20408 0.97959,-40.32653 -2.61225,-10.77551 -8.65306,-19.42857 -14.20408,-22.30204 -4.2449,-2.28571 -11.75511,3.16735 -16.00001,6.43266 -1.79591,1.50204 -5.22448,9.37142 -5.22448,9.37142 0,0 3.59183,-25.56734 1.79591,-35.59183 -1.63265,-9.43674 -4.57143,-21.22449 -8.81632,-29.48572 -4.40817,-8.71836 -10.28572,-13.71428 -15.02041,-17.37143 -5.71429,-4.44081 -14.36735,-1.6653 -20.2449,1.89388 -4.73469,2.80817 -10.44898,10.38368 -14.20408,16.84898 -4.89796,8.4898 -7.67347,20.89796 -9.63266,33.73061 -2.12244,13.35511 -2.12244,35.46123 1.79592,46.82449 5.38776,15.64082 15.51021,27.00408 24.16327,20.76735 4.89796,-3.55918 8.48979,-28.27755 8.48979,-28.27755 0,0 -9.14285,9.63265 -12.40816,5.64898 -2.12245,-2.6449 -2.77551,-11.55919 -2.61224,-16.88163 0.16326,-8.03266 2.12245,-20.01633 5.22449,-24.35919 3.10204,-4.21224 9.14285,-3.59183 12.40816,0 4.08163,4.44082 7.83673,16.78368 8.81633,26.25306 1.14285,11.2 -1.46939,26.87347 -3.59184,37.45306 -2.93878,14.98776 -8.97959,32.91429 -14.04082,44.96327 -6.69387,15.70612 -18.28571,30.72653 -25.63265,44.96326 -6.69388,12.83266 -15.51021,30.00817 -21.22449,44.99592 -5.55102,15.02041 -11.59184,37.22449 -15.83674,54.20408 -4.57142,18.93878 -10.77551,44.7347 -13.22449,65.63266 -2.77551,24.16326 -4.40816,54.20408 -3.91836,79.0204 0.32653,18.61225 2.61224,47.67347 5.71428,65.30613 3.10204,17.30612 10.28572,46.04081 15.02041,61.71428 4.57143,15.02041 9.79592,31.67347 15.83674,41.14286 4.57142,7.5102 10.61224,20.57143 13.87755,22.53061"
                   fill-rule="evenodd"
                   stroke="#000000"
                   stroke-width="6.92676"
                   id="path28"
                   style="fill:#ffff00" />
                <path
                   d="m 656.08165,456.65306 c 0,0 -9.63266,1.95918 -13.22449,5.87755 -3.59184,3.91837 -6.85715,13.38775 -9.79592,18.93877 -2.28572,4.57143 -4.89796,22.53062 -4.89796,11.10204"
                   fill="none"
                   stroke="#000000"
                   stroke-width="6.92676"
                   id="path30"
                   style="fill:#ffff00" />
                <path
                   d="m 694.93879,487.67346 c 0,0 -11.10204,15.02041 -16,20.57143 -3.59184,3.91837 -8.4898,10.12245 -12.57143,11.75511 -4.08163,1.63265 -9.79592,-2.93878 -13.87755,-1.63266 -5.71429,2.28572 -15.67347,27.7551 -15.67347,27.7551"
                   fill="none"
                   stroke="#000000"
                   stroke-width="6.92676"
                   id="path32"
                   style="fill:#ffff00" />
                <path
                   d="m 608.89797,670.53061 c 0,0 -11.42857,16 -11.59184,42.12244 -0.16326,29.38776 5.87756,53.87756 5.87756,53.87756"
                   fill="none"
                   stroke="#000000"
                   stroke-width="6.92676"
                   id="path34"
                   style="fill:#ffff00" />
              </g>
            </g>
            <g
               id="g3342"
               style="fill:#ffff00">
              <g
                 id="g3114"
                 style="fill:#ffff00">
                <path
                   d="m 477.95919,622.53061 c 9.14286,53.55102 -2.12245,188.40816 -2.12245,188.40816 0,0 2.93878,13.71428 3.42858,19.91837 0.97959,12.40816 3.10204,32 -0.65307,42.44898 -2.93877,7.83673 -10.77551,9.46938 -15.67347,11.10204 -12.73469,4.57142 -33.63265,10.77551 -45.87755,2.93877 -7.5102,-4.57143 -20.57143,-22.53061 -20.57143,-22.53061 0,0 -1.79592,11.7551 -1.46938,16.97959 0.65306,7.83674 1.14285,7.83674 3.59183,14.04082 2.61225,6.85714 9.95919,12.73469 9.95919,12.73469 0,0 -16.65307,7.5102 -25.46939,2.93878 -8.32653,-4.2449 -18.93878,-14.69388 -25.46939,-25.46939 -2.77551,-4.57143 -17.14286,-16.97959 -17.14286,-16.97959 l -16.97959,-2.93878 c 0,0 -0.32653,15.34694 0.81633,21.22449 1.79591,10.44898 16.16326,22.53061 16.16326,22.53061 0,0 -20.08163,5.55102 -27.59184,0 -4.24489,-2.93877 -10.93877,-3.91836 -16.32653,-10.77551 -6.04081,-7.18367 -10.61224,-20.24489 -15.5102,-23.18367 -3.59184,-1.95918 -12.7347,-2.61224 -12.7347,-2.61224 0,0 -11.10204,8.48979 -11.2653,16.97959 -0.32653,9.14285 11.2653,21.22449 11.2653,21.22449 0,0 -14.04081,3.2653 -19.7551,0 -6.04081,-3.59184 -13.71428,-13.06123 -17.79592,-22.85715 -2.28571,-5.55102 -4.24489,-18.28571 -4.24489,-18.28571 0,0 -6.85715,26.77551 -12.7347,33.95918 -3.91837,4.89796 -15.5102,4.2449 -15.5102,4.2449 0,0 -20.08164,-9.14286 -24.81633,-22.53061 -1.95918,-5.55102 -0.65306,-22.85714 -0.65306,-22.85714 0,0 -11.42857,13.06122 -16.32653,10.12245 -5.38776,-3.26531 -11.91837,-28.40817 -11.91837,-28.40817 l 1.30612,-31.02041 -15.5102,6.85715 c 0,0 -5.38776,-14.69388 -4.2449,-21.22449 3.91837,-23.83674 23.83673,-36.89796 36.08163,-43.7551 24.4898,-14.04082 59.59184,-9.46939 84.89796,-2.93878 4.57143,1.30612 10.28572,7.5102 14.85715,8.4898 41.14286,8.48979 137.30612,-21.22449 137.30612,-21.22449 0,0 -5.22449,-84.2449 2.93878,-114.61225 4.57143,-16.97959 16.81633,-32.65306 26.12245,-38.20408 10.44898,-6.20408 26.44898,-6.85714 36.08163,2.93878 5.71429,5.55102 11.42857,20.57142 13.55102,32.32653 z"
                   fill-rule="evenodd"
                   stroke="#000000"
                   stroke-width="6.92676"
                   id="path36"
                   style="fill:#ffff00" />
                <path
                   d="m 145.87755,814.53061 c 0,0 16.16327,-20.89796 22.69388,-25.46939 5.38776,-3.59184 12.89796,-5.87755 18.44898,-7.51021"
                   fill="none"
                   stroke="#000000"
                   stroke-width="5.7723"
                   id="path40"
                   style="fill:#ffff00" />
              </g>
              <g
                 id="g3119"
                 style="fill:#ffff00">
                <path
                   d="m 507.02042,699.59183 c 9.14286,53.55102 -2.12245,188.40816 -2.12245,188.40816 0,0 2.93877,13.71429 3.42857,19.91837 0.97959,12.40816 3.10204,32 -0.65306,42.44898 -2.93878,7.83673 -10.77551,9.46939 -15.67347,11.10204 -12.73469,4.57143 -33.63265,10.77551 -45.87755,2.93878 -7.51021,-4.57143 -20.57143,-22.53062 -20.57143,-22.53062 0,0 -1.79592,11.75511 -1.46939,16.97959 0.65306,7.83674 1.14286,7.83674 3.59184,14.04082 2.61224,6.85714 9.95918,12.73469 9.95918,12.73469 0,0 -16.65306,7.51021 -25.46939,2.93878 -8.32653,-4.2449 -18.93877,-14.69388 -25.46939,-25.46939 -2.77551,-4.57143 -17.14285,-16.97959 -17.14285,-16.97959 l -16.9796,-2.93877 c 0,0 -0.32653,15.34693 0.81633,21.22449 1.79592,10.44897 16.16327,22.53061 16.16327,22.53061 0,0 -20.08164,5.55102 -27.59184,0 -4.2449,-2.93878 -10.93878,-3.91837 -16.32653,-10.77551 -6.04082,-7.18368 -10.61225,-20.2449 -15.51021,-23.18368 -3.59183,-1.95918 -12.73469,-2.61224 -12.73469,-2.61224 0,0 -11.10204,8.48979 -11.26531,16.97959 -0.32653,9.14286 11.26531,21.22449 11.26531,21.22449 0,0 -14.04082,3.26531 -19.7551,0 -6.04082,-3.59184 -13.71429,-13.06122 -17.79592,-22.85714 -2.28572,-5.55102 -4.2449,-18.28572 -4.2449,-18.28572 0,0 -6.85714,26.77551 -12.73469,33.95919 -3.91837,4.89796 -15.51021,4.24489 -15.51021,4.24489 0,0 -20.08163,-9.14285 -24.81633,-22.53061 -1.95918,-5.55102 -0.65306,-22.85714 -0.65306,-22.85714 0,0 -11.42857,13.06122 -16.32653,10.12245 -5.38775,-3.26531 -11.91837,-28.40816 -11.91837,-28.40816 l 1.30613,-31.02041 -15.51021,6.85714 c 0,0 -5.38775,-14.69388 -4.2449,-21.22449 3.91837,-23.83673 23.83674,-36.89796 36.08164,-43.7551 24.48979,-14.04082 59.59184,-9.46939 84.89796,-2.93878 4.57143,1.30613 10.28571,7.51021 14.85714,8.4898 41.14286,8.4898 137.30613,-21.22449 137.30613,-21.22449 0,0 -5.22449,-84.2449 2.93877,-114.61224 4.57143,-16.9796 16.81633,-32.65306 26.12245,-38.20409 10.44898,-6.20408 26.44898,-6.85714 36.08164,2.93878 5.71428,5.55102 11.42857,20.57143 13.55102,32.32653 z"
                   fill-rule="evenodd"
                   stroke="#000000"
                   stroke-width="6.92676"
                   id="path44"
                   style="fill:#ffff00" />
                <path
                   d="m 174.93878,891.59183 c 0,0 16.16326,-20.89796 22.69388,-25.46939 5.38775,-3.59184 12.89795,-5.87755 18.44898,-7.5102"
                   fill="none"
                   stroke="#000000"
                   stroke-width="5.7723"
                   id="path46"
                   style="fill:#ffff00" />
                <path
                   d="m 202.85715,938.93877 c 0,0 11.7551,-19.91837 17.63265,-26.44898 3.59184,-4.2449 8.97959,-8.4898 13.22449,-10.44898 10.12245,-3.91837 15.5102,-2.28572 15.5102,-2.28572"
                   fill="none"
                   stroke="#000000"
                   stroke-width="5.7723"
                   id="path48"
                   style="fill:#ffff00" />
              </g>
            </g>
          </g>
          <g
             id="armed"
             transform="matrix(1.6326531,0,0,3.2653061,100,126.53061)"
             style="fill:#ff0000">
            <path
               d="m 288.6,236.9 c 1.4,0.5 3.1,1.7 4.1,2.9 0.9,1.1 2.4,3 2.2,4.6 -0.1,1 -1.3,2.1 -2.1,2.6 -0.6,0.4 -1.6,0.6 -2.3,0.6 -1.5,0 -3.3,-1.3 -4.8,-1.1 -1.2,0.2 -2.8,1.4 -3.7,2.3 -1.3,1.4 -2,1.9 -2.6,3.8 -0.4,1.3 -0.3,6 -0.3,6 0,0 -3.8,-3.9 -4.5,-5.8 -0.9,-2.9 -1,-6 0.2,-8.8 0.8,-1.8 2.9,-3.6 4.5,-4.6 2,-1.3 5,-2.3 7.3,-2.7 0.6,-0.1 1.5,0 2,0.2 z"
               fill-rule="evenodd"
               stroke="#000000"
               stroke-width="2.5"
               id="path90"
               style="fill:#ff0000" />
            <path
               d="m 306.5,247.8 c 1.4,0.5 3.1,1.8 4,2.9 1,1.2 2.4,3.1 2.2,4.7 -0.1,1 -1.2,2 -2.1,2.6 -0.6,0.3 -1.5,0.5 -2.2,0.5 -1.5,0.1 -3.3,-1.3 -4.8,-1 -1.3,0.2 -2.8,1.3 -3.7,2.3 -1.3,1.3 -2.1,1.9 -2.6,3.7 -0.4,1.4 -0.4,6.1 -0.4,6.1 0,0 -3.7,-3.9 -4.4,-5.9 -1,-2.8 -1.1,-5.9 0.2,-8.7 0.8,-1.8 2.9,-3.6 4.5,-4.7 2,-1.2 5,-2.3 7.3,-2.6 0.6,-0.1 1.4,-0.1 2,0.1 z"
               fill-rule="evenodd"
               stroke="#000000"
               stroke-width="2.5"
               id="path92"
               style="fill:#ff0000" />
            <path
               d="m 322,260.3 c 1.4,0.5 3.1,1.8 4.1,2.9 0.9,1.2 2.4,3.1 2.2,4.7 -0.1,1 -1.3,2 -2.1,2.6 -0.6,0.4 -1.6,0.5 -2.3,0.6 -1.5,0 -3.3,-1.4 -4.8,-1.1 -1.2,0.2 -2.8,1.3 -3.7,2.3 -1.3,1.4 -2,1.9 -2.6,3.7 -0.4,1.4 -0.3,6.1 -0.3,6.1 0,0 -3.8,-3.9 -4.5,-5.8 -0.9,-2.9 -1,-6 0.2,-8.8 0.8,-1.8 2.9,-3.6 4.5,-4.6 2,-1.3 5,-2.4 7.3,-2.7 0.6,-0.1 1.5,-0.1 2,0.1 z"
               fill-rule="evenodd"
               stroke="#000000"
               stroke-width="2.5"
               id="path94"
               style="fill:#ff0000" />
            <path
               d="m 17,201.6 c 1.5,0.3 3.3,1.3 4.4,2.3 1.2,1 2.9,2.6 3,4.2 0,1 -1,2.2 -1.8,2.9 -0.5,0.5 -1.4,0.8 -2.1,0.9 -1.5,0.3 -3.5,-0.8 -4.9,-0.3 -1.2,0.4 -2.5,1.7 -3.3,2.8 -1.1,1.6 -1.7,2.3 -2,4.1 -0.2,1.5 0.6,6.1 0.6,6.1 0,0 -4.3,-3.3 -5.3,-5.1 -1.4,-2.7 -2,-5.7 -1.1,-8.7 0.5,-1.9 2.3,-4 3.7,-5.3 1.7,-1.5 4.6,-3 6.8,-3.7 0.6,-0.2 1.4,-0.3 2,-0.2 z"
               fill-rule="evenodd"
               stroke="#000000"
               stroke-width="2.5"
               id="path96"
               style="fill:#ff0000" />
            <path
               d="m 32,216.6 c 1.4,0.2 3.3,1.2 4.4,2.2 1.1,1 2.9,2.7 2.9,4.3 0,1 -1,2.2 -1.7,2.9 -0.5,0.4 -1.5,0.8 -2.2,0.9 -1.4,0.2 -3.4,-0.8 -4.8,-0.3 -1.2,0.4 -2.6,1.7 -3.4,2.8 -1,1.6 -1.7,2.2 -1.9,4.1 -0.2,1.4 0.5,6.1 0.5,6.1 0,0 -4.3,-3.3 -5.2,-5.1 -1.4,-2.7 -2,-5.8 -1.2,-8.8 0.5,-1.8 2.3,-3.9 3.7,-5.2 1.8,-1.6 4.7,-3.1 6.9,-3.8 0.5,-0.1 1.4,-0.3 2,-0.1 z"
               fill-rule="evenodd"
               stroke="#000000"
               stroke-width="2.5"
               id="path98"
               style="fill:#ff0000" />
            <path
               d="m 34.8,225.2 c 1.5,0.3 3.3,1.3 4.4,2.3 1.2,1 2.9,2.6 3,4.2 0,1 -1,2.2 -1.8,2.9 -0.5,0.5 -1.4,0.8 -2.1,0.9 -1.5,0.3 -3.5,-0.8 -4.9,-0.3 -1.2,0.4 -2.5,1.7 -3.3,2.8 -1.1,1.6 -1.7,2.3 -2,4.1 -0.2,1.5 0.6,6.1 0.6,6.1 0,0 -4.3,-3.3 -5.3,-5.1 -1.4,-2.7 -2,-5.7 -1.1,-8.7 0.5,-1.9 2.3,-4 3.7,-5.3 1.7,-1.5 4.6,-3 6.8,-3.7 0.6,-0.2 1.4,-0.3 2,-0.2 z"
               fill-rule="evenodd"
               stroke="#000000"
               stroke-width="2.5"
               id="path100"
               style="fill:#ff0000" />
            <path
               d="m 49.8,240.2 c 1.4,0.2 3.3,1.2 4.4,2.2 1.1,1 2.9,2.7 2.9,4.3 0,1 -1,2.2 -1.7,2.9 -0.5,0.4 -1.5,0.8 -2.2,0.9 -1.4,0.2 -3.4,-0.8 -4.8,-0.3 -1.2,0.4 -2.6,1.7 -3.4,2.8 -1,1.6 -1.7,2.2 -1.9,4.1 -0.2,1.4 0.5,6.1 0.5,6.1 0,0 -4.3,-3.3 -5.2,-5.1 -1.4,-2.7 -2,-5.8 -1.2,-8.8 0.5,-1.8 2.3,-3.9 3.7,-5.2 1.8,-1.6 4.7,-3.1 6.9,-3.8 0.5,-0.1 1.4,-0.3 2,-0.1 z"
               fill-rule="evenodd"
               stroke="#000000"
               stroke-width="2.5"
               id="path102"
               style="fill:#ff0000" />
            <path
               d="m 71.1,254.2 c 1.5,-0.2 3.5,0.1 4.9,0.7 1.5,0.6 3.6,1.6 4.2,3 0.4,1 -0.2,2.5 -0.7,3.3 -0.3,0.7 -1.1,1.3 -1.7,1.6 -1.3,0.7 -3.5,0.4 -4.7,1.3 -1,0.8 -1.8,2.5 -2.2,3.8 -0.5,1.8 -0.9,2.7 -0.5,4.5 0.3,1.4 2.5,5.5 2.5,5.5 0,0 -5.1,-1.6 -6.6,-3 -2.2,-2.1 -3.8,-4.8 -4,-7.9 -0.1,-1.9 0.9,-4.5 1.8,-6.2 1.1,-2 3.3,-4.4 5.2,-5.8 0.5,-0.3 1.2,-0.7 1.8,-0.8 z"
               fill-rule="evenodd"
               stroke="#000000"
               stroke-width="2.5"
               id="path104"
               style="fill:#ff0000" />
          </g>
        </g>
        <g
           id="g4512"
           transform="translate(54.966351,148.21451)">
          <path
             d="M 201.2618,766.99209 Z"
             fill="#f8c300"
             fill-rule="evenodd"
             stroke="#000000"
             stroke-width="2.20216px"
             id="path42" />
          <path
             d="m 245.61351,270.51862 c 0,0 -2.78192,-11.95852 -1.98709,-17.08359 1.39096,-9.76205 11.7238,-19.036 13.71088,-28.79805 1.58967,-6.34533 0,-22.20867 0,-22.20867 0,0 15.49926,1.70836 21.2618,5.36913 4.88823,2.92862 10.84948,9.0299 10.84948,9.0299 0,0 0.39742,-7.80964 1.98708,-12.93472 1.58967,-6.10128 7.1535,-11.22636 8.54446,-17.32764 1.39096,-5.36913 0.99355,-16.83954 0.99355,-16.83954 0,0 13.31346,6.10129 17.08892,11.95852 1.39096,2.19646 1.98708,9.02989 1.98708,9.02989 0,0 10.13413,-14.39902 10.73025,-22.20866 0.39742,-4.63698 -4.17287,-14.37462 -4.17287,-14.37462 0,0 15.30054,4.36852 19.076,10.4698 3.57675,5.61318 3.17934,23.42892 3.17934,23.42892 0,0 3.57675,-12.69067 6.35867,-16.83954 4.57029,-6.83343 19.27471,-17.05918 19.27471,-17.05918 l -2.18579,26.08908 c 0,0 8.94188,-5.12508 12.71733,-3.90482 8.94188,3.17267 17.08893,17.32764 21.2618,27.57779 1.58967,3.41672 2.18579,12.93472 2.18579,12.93472 0,0 8.34576,-14.15497 13.90959,-16.83954 3.77546,-1.95241 13.71088,0 13.71088,0 0,0 -2.78192,13.66687 -1.98708,19.5241 1.39096,11.22636 12.71733,22.69677 13.71088,33.92313 0.39741,4.88102 -3.17934,15.61928 -3.17934,15.61928 0,0 14.90313,28.30994 18.08247,41.97681 3.77545,15.44845 -1.39096,35.7047 4.9677,49.85968 1.58967,3.41671 5.36513,7.80964 8.54447,7.80964 3.77546,0.24405 8.94187,-3.90482 8.94187,-3.90482 0,0 -0.79483,11.95851 -3.17933,15.61928 -2.58321,3.66077 -11.7238,6.58938 -11.7238,6.58938 0,0 1.78838,9.518 1.98709,15.61928 0.39741,6.10128 -1.58967,19.5241 1.58966,25.86944 2.98063,5.85723 8.54447,10.0061 14.1083,8.54179 1.19225,-0.24405 4.96771,0.24405 6.35867,-1.70836 3.17933,-3.90482 3.57675,-11.71446 3.57675,-11.71446 0,0 2.3845,11.22636 0.99354,15.61928 -1.78837,5.85723 -4.96771,9.76205 -9.14058,13.17877 -4.5703,3.66077 -17.08893,4.63697 -19.47343,10.25015 -4.37158,9.76205 5.76255,25.86944 4.17288,36.60769 -1.19225,8.05369 -9.73671,15.61928 -10.53154,23.67297 -0.79484,6.83344 0.1987,14.39903 3.37804,20.01221 2.3845,4.39292 5.56383,10.0061 9.93542,10.9823 2.78192,0.73216 8.34575,0 10.33283,-2.68456 2.78192,-2.92862 4.37159,-8.29774 4.96771,-12.69067 0.59613,-3.41671 1.19225,-11.71446 1.19225,-11.71446 0,0 4.96771,11.22636 4.96771,16.83954 0,4.88103 -1.58966,10.73826 -3.97416,14.39903 -3.57676,5.36912 -9.73672,10.73825 -14.90313,13.17876 -5.76255,2.68457 -14.30701,4.14887 -20.26826,2.68457 -5.36513,-1.46431 -15.89667,-10.49421 -15.89667,-10.49421 0,0 -0.39742,10.0061 -1.19225,14.39903 -0.99354,6.10128 -1.39096,15.37523 -5.16642,19.5241 -3.37804,3.66077 -14.90313,3.90482 -14.90313,3.90482 0,0 4.57029,22.45271 9.538,30.0183 2.1858,3.41672 6.35867,6.58939 9.53801,8.05369 3.57675,1.46431 9.14058,2.68457 12.71733,1.22026 4.5703,-1.95241 9.3393,-8.05369 11.7238,-13.17877 1.39096,-2.68456 2.18579,-10.4942 2.18579,-10.4942 0,0 2.58321,18.05979 0,24.89323 -2.98062,8.05369 -11.32638,16.83953 -18.08246,19.76815 -4.57029,1.70836 -11.32638,0.24405 -15.89667,-1.46431 -3.17934,-0.9762 -6.55738,-5.36913 -9.73671,-6.58938 -4.76901,-1.70836 -16.89022,-1.22026 -16.89022,-1.22026 0,0 1.39096,12.93472 0.99354,18.30385 -0.39741,6.10128 -2.78191,13.91092 -4.17287,19.5241 -0.99354,3.41671 -2.3845,7.32153 -1.58967,10.4942 1.78838,6.34533 7.94834,11.71446 13.31346,11.95851 3.57675,0 8.74317,-3.90482 10.53155,-8.05369 2.18579,-4.88102 -0.99354,-18.30384 -0.99354,-18.30384 0,0 7.74962,14.15497 7.35221,20.9884 -0.19871,4.63698 -3.37805,10.49421 -6.35867,13.17877 -4.17288,3.66077 -11.7238,4.88103 -17.08892,5.12508 -4.17288,0.24405 -9.93542,-0.4881 -13.71088,-2.68456 -4.37159,-2.19647 -9.53801,-7.56559 -12.91605,-11.71446 -5.36512,-6.83344 -11.12767,-17.5717 -14.90313,-26.11349 -1.58966,-4.14887 -6.55737,-10.98231 -6.55737,-10.98231 0,0 -6.55738,-0.4881 -10.33284,-0.73215 -4.37158,-0.4881 -10.53154,-1.95241 -13.90959,-5.36913 -3.37804,-3.17266 -5.56383,-10.73825 -7.35221,-15.61928 -1.98708,-5.36913 -5.36512,-18.30384 -5.36512,-18.30384 0,0 -16.29409,13.17876 -19.27472,22.20866 -1.39096,4.88103 -0.19871,12.20256 1.19225,17.08359 1.39096,4.88102 5.56384,10.4942 8.54446,14.39902 2.1858,2.92862 8.34576,9.0299 8.34576,9.0299 0,0 -14.30701,1.95241 -20.06955,0 -7.74963,-2.44051 -20.26826,-12.20256 -25.95132,-19.28005 -5.16642,-6.34533 -9.33929,-15.86333 -12.12121,-24.16107 -2.78192,-8.78585 -3.37804,-28.30995 -3.37804,-28.30995 l 1.78837,-18.30384 c 0,0 -7.1535,8.78584 -8.14704,14.39902 -0.99354,4.88103 0,16.83954 0,16.83954 0,0 -7.94834,-20.50031 -9.73671,-30.01831 -1.19225,-6.83343 -2.18579,-16.59548 -0.99354,-23.42892 0.79483,-5.36913 6.35866,-15.86333 6.35866,-15.86333 0,0 -10.13412,-21.23246 -12.71733,-31.23856 -3.37804,-12.93472 -7.09389,-30.99451 -6.35867,-44.41733 0.39742,-10.73826 8.54446,-34.16718 8.54446,-34.16718 l -11.78341,3.90482 c 0,0 -13.51217,-16.59548 -14.90313,-26.11348 -1.82811,-12.20257 4.66965,-28.79805 8.52459,-40.51251 1.92747,-5.85723 6.4779,-12.44662 8.50472,-18.30385 2.70244,-7.56559 6.4779,-26.11348 6.4779,-26.11348 0,0 -11.30651,-5.36913 -13.92946,-10.49421 -2.94089,-5.61317 -2.12618,-22.20866 -2.12618,-22.20866 0,0 7.70988,7.80964 11.68405,9.27395 3.17934,0.9762 8.14705,-4.39292 8.14705,-4.39292 0,0 -6.15996,-15.2044 -7.15351,-24.47835 -0.39741,-5.12507 0.39742,-12.44661 2.1858,-17.08358 1.78837,-4.39293 9.538,-11.71446 9.538,-11.71446 z"
             fill-rule="evenodd"
             stroke="#000000"
             stroke-width="6.60648"
             id="path108"
             style="fill:#ffff00" />
          <path
             d="m 317.7844,342.3429 c 0,0 -0.59613,23.91702 0.1987,30.99451 0.59613,5.36913 5.16642,12.93472 5.16642,12.93472 0,0 5.16642,-6.34533 5.76255,-11.95851 0.79483,-7.32154 0.59612,-31.48262 0.59612,-31.48262 z"
             fill="#ffffff"
             fill-rule="evenodd"
             stroke="#000000"
             stroke-width="5.5054"
             id="path110" />
          <path
             d="m 380.17883,342.09885 c 0,0 -0.79483,23.91702 0,30.99451 0.59613,5.61318 5.16642,12.93472 5.16642,12.93472 0,0 5.16642,-6.34534 5.76254,-11.95852 0.79483,-7.07748 0.59613,-31.23856 0.59613,-31.23856 z"
             fill="#ffffff"
             fill-rule="evenodd"
             stroke="#000000"
             stroke-width="5.5054"
             id="path112" />
          <path
             d="m 331.69398,260.58573 c 0,10.0061 -11.12767,18.05979 -24.83855,18.05979 -13.71087,0 -24.83854,-8.05369 -24.83854,-18.05979 0,-10.0061 11.12767,-18.05979 24.83854,-18.05979 13.71088,0 24.83855,8.05369 24.83855,18.05979 z"
             fill="#ffffff"
             fill-rule="evenodd"
             stroke="#000000"
             stroke-width="5.5054"
             id="path114" />
          <path
             d="m 415.15151,255.7047 c 0,10.00611 -11.12767,18.0598 -24.83855,18.0598 -13.71088,0 -24.83855,-8.05369 -24.83855,-18.0598 0,-10.0061 11.12767,-18.05979 24.83855,-18.05979 13.71088,0 24.83855,8.05369 24.83855,18.05979 z"
             fill="#ffffff"
             fill-rule="evenodd"
             stroke="#000000"
             stroke-width="5.5054"
             id="path116" />
          <path
             d="m 353.55191,245.86944 c 0,0 7.74962,2.92861 9.538,5.36913 3.57675,4.39292 3.97417,13.66687 7.94833,17.57169 1.78838,1.95241 5.56384,4.63697 7.55092,6.34533 1.19225,0.73215 2.78192,3.90482 6.15996,5.36913 4.17288,1.70836 10.33284,0.24405 12.51863,1.22025 7.1535,3.66077 18.28117,18.30385 20.66567,27.33374 0.59613,2.92862 -0.99354,7.07749 -1.78837,10.07932 -2.18579,7.32154 -7.74963,15.37523 -10.33284,22.45272 -0.99354,3.17266 -2.18579,7.32154 -2.3845,10.4942 -0.19871,2.19646 0,5.36913 0.39742,7.80964 0.19871,1.46431 0.19871,3.90482 0.99354,5.12508 1.39096,2.44051 5.16642,2.44051 6.35867,5.12507"
             fill="none"
             stroke="#000000"
             stroke-width="5.5054"
             id="path118" />
          <path
             d="m 331.49527,252.94692 c 0,0 1.98709,3.90482 0,10.00611 -1.58966,4.88102 -6.95479,11.95851 -8.94187,13.42282 -6.15996,4.14887 -14.90313,7.32153 -19.87084,9.76205 -4.769,2.44051 -9.93542,6.10128 -10.73026,6.58938 -1.78837,1.46431 -5.36512,1.22026 -6.95479,3.17267 -3.57675,4.39292 -6.27918,13.91092 -5.68306,20.25625 1.39096,11.78768 16.21461,21.06162 17.80427,32.77609 1.78838,13.66687 -10.33283,30.75045 -10.13413,44.66138 0,7.07748 6.55738,9.27394 5.76255,16.35143 -0.59613,4.14887 -7.1535,17.81574 -7.1535,17.81574 0,0 13.31346,-9.27395 17.28763,-15.61928 2.3845,-3.66077 4.96771,-14.64307 4.96771,-14.64307 0,0 -4.17288,22.94081 -2.3845,32.70286 1.78837,10.49421 9.538,23.67298 9.538,23.67298 0,0 0.59612,-9.76205 2.3845,-14.88713 1.19225,-3.66077 9.538,-5.61318 9.538,-5.61318 0,0 -2.78192,10.25015 -3.17933,14.64308 -0.19871,3.17266 -0.19871,7.32153 0.79483,10.25015 1.39096,4.88102 5.56384,10.4942 8.74317,14.15497 1.39096,1.46431 5.16642,3.90482 5.16642,3.90482 0,0 -3.17934,-10.4942 -2.58321,-14.88712 0.39742,-3.41672 4.37158,-10.25016 4.37158,-10.25016 0,0 1.98709,15.13118 3.97417,21.23246 0.99354,2.92862 2.98063,6.83344 3.77546,10.0061 1.78838,7.32154 0.39742,10.98231 -0.59612,18.5479 -0.19871,3.41672 -3.17934,12.69067 -3.17934,12.69067 0,0 11.9225,-7.32154 14.90313,-13.42282 1.78838,-4.14888 2.3845,-11.71446 2.58321,-16.35144 0,-3.17266 0,-3.17266 0,-3.17266 0,0 4.37158,6.10128 5.16642,9.27394 0.99354,4.39293 0.39741,5.36913 -0.39742,9.76205 -1.19225,5.85723 -3.77546,9.76205 -3.97417,15.86334 0,4.63697 2.1858,10.73825 4.5703,14.15497 4.769,6.83343 19.076,13.42282 19.076,13.42282 0,0 -5.56383,-13.42282 -6.35867,-19.5241 -0.59612,-4.88103 2.3845,-9.518 3.77546,-13.91092 1.98709,-6.34534 8.74317,-12.20257 10.73026,-18.79195 1.58966,-4.39292 2.18579,-11.22636 1.98708,-16.35144 -0.19871,-5.12507 -1.58967,-12.20256 -3.17933,-17.08358 -1.78838,-5.36913 -8.34576,-16.35144 -8.34576,-16.35144 0,0 -1.19225,-1.22025 2.1858,2.44051 2.78191,2.68457 10.13412,9.76205 11.32637,12.20257 1.78838,4.39292 3.97417,14.88712 3.97417,14.88712 0,0 3.97417,-12.20256 4.17288,-18.79194 0.19871,-5.85723 -5.16642,-17.08359 -5.16642,-17.08359 l -2.3845,-7.80964 c 0,0 8.54446,7.07748 10.73025,11.71446 2.58321,5.36913 4.96771,18.30384 4.96771,18.30384 0,0 6.9548,-15.86333 6.35867,-22.94082 -0.19871,-3.90482 -1.58967,-8.54179 -2.78192,-12.20256 -1.39096,-3.41672 -6.55737,-11.22636 -6.55737,-11.22636 0,0 8.54446,2.19647 10.33283,5.12508 2.3845,3.41672 6.9548,14.64308 6.9548,14.64308 0,0 4.57029,-10.00611 5.16641,-20.50031 0.59613,-8.29774 -4.17287,-23.42892 -6.75608,-25.62538 l -17.48634,-15.86333"
             fill="none"
             stroke="#000000"
             stroke-width="5.5054"
             id="path120-9" />
          <path
             d="m 303.87481,316.1562 c 0,0 -3.97417,3.48993 -1.39096,10.07932 1.78837,4.39292 10.53154,10.4942 11.52509,13.66687 0.99354,3.17266 2.3845,12.44661 2.3845,12.44661 0,0 9.14058,3.17267 12.31992,1.95241 4.17287,-1.22025 8.34575,-6.83343 12.31992,-9.02989 3.57675,-1.95241 12.51863,-4.63698 12.51863,-4.63698 l -1.39096,-32.04393 c -0.19871,0.4881 -12.91605,-15.86333 -17.08892,-22.20866 -1.39096,-2.44052 -5.76255,2.19646 -5.16642,5.12507 2.18579,9.76205 22.85146,16.83954 22.25534,17.32764 0,0 20.46696,-8.78584 20.66567,-18.54789 0,-1.95241 -2.3845,-5.61318 -3.77546,-4.63698 -5.16642,4.39293 -16.09538,24.16108 -16.89021,22.94082 l 1.19225,32.04393 c 0,0 9.33929,2.92862 12.51863,4.39293 2.98062,1.70835 6.55737,7.56558 9.93542,8.78584 4.769,1.46431 16.49279,-4.39292 16.49279,-4.39292 0,0 -0.79483,-7.80964 0,-10.49421 0.99354,-4.39292 8.34575,-10.25015 10.73025,-15.86333 2.38451,-5.12507 -1.39095,-8.61501 -1.39095,-8.61501"
             fill-rule="evenodd"
             stroke="#000000"
             stroke-width="5.5054"
             id="path122"
             style="fill:#ffff00" />
          <path
             d="m 265.88176,218.29165 c 0,0 5.76255,5.85723 5.96126,9.51799 0.39741,4.14888 -5.56384,8.0537 -4.96771,12.20257 0.59612,3.17266 7.1535,3.41672 7.1535,6.58938 0.39741,7.56559 -14.70442,16.83954 -14.70442,16.83954 0,0 7.55092,-21.23246 8.14704,-30.99451 0.39742,-4.14887 -1.58967,-14.15497 -1.58967,-14.15497 z"
             fill="#000000"
             fill-rule="evenodd"
             stroke="#000000"
             stroke-width="5.5054"
             id="path124" />
          <path
             d="m 425.68305,213.41062 c 0,0 -2.78192,19.28005 1.39096,26.35754 2.78192,5.12507 7.1535,13.91092 7.1535,13.91092 0,0 -3.77546,0.24405 -5.16642,-0.97621 -3.37804,-2.44051 -3.57675,-5.85723 -5.36512,-11.22635 -1.39096,-3.66077 -4.5703,-10.00611 -5.16642,-15.37523 -0.39742,-4.63698 7.1535,-12.69067 7.1535,-12.69067 z"
             fill="#000000"
             fill-rule="evenodd"
             stroke="#000000"
             stroke-width="5.5054"
             id="path126" />
          <path
             d="m 332.88623,256.92496 c 0,10.73826 -7.1535,19.5241 -15.89667,19.5241 -8.74317,0 -15.89667,-8.78584 -15.89667,-19.5241 0,-10.73826 7.1535,-19.5241 15.89667,-19.5241 8.74317,0 15.89667,8.78584 15.89667,19.5241 z"
             fill="#ffffff"
             fill-rule="evenodd"
             stroke="#000000"
             stroke-width="5.5054"
             id="path128" />
          <path
             d="m 400.44709,252.04393 c 0,10.73826 -7.15351,19.52411 -15.89668,19.52411 -8.74316,0 -15.89667,-8.78585 -15.89667,-19.52411 0,-10.73825 7.15351,-19.5241 15.89667,-19.5241 8.74317,0 15.89668,8.78585 15.89668,19.5241 z"
             fill="#ffffff"
             fill-rule="evenodd"
             stroke="#000000"
             stroke-width="5.5054"
             id="path130" />
          <path
             d="m 383.55687,237.5717 c -1.19225,0 -2.3845,0.24405 -3.37804,0.24405 -2.18579,0.4881 -3.97417,0.9762 -3.97417,0.9762 l 1.58967,8.29774 c 0,0 1.39096,-0.4881 3.17933,-0.73215 1.78838,-0.24405 3.97417,0.24405 3.57675,0 -0.1987,-0.24405 1.19225,1.70836 1.39096,2.19646 0.39742,1.46431 0.19871,6.58939 -0.39741,8.05369 -0.19871,0.48811 -1.78838,2.19646 -1.98709,2.19646 0.59613,0 -1.19225,0 -2.3845,-0.24405 -1.39096,-0.24405 -2.3845,-0.4881 -2.3845,-0.4881 0,0 -3.57675,-0.4881 -3.97417,0.73215 -0.79483,1.95241 1.98709,6.34534 1.98709,6.34534 0,0 1.39096,0.4881 2.98062,0.73215 1.58967,0.4881 3.37805,0.97621 5.76255,0 2.98062,-0.9762 4.769,-3.41672 6.15996,-6.34533 1.58966,-4.14887 1.98708,-9.0299 0.79483,-13.42282 -0.79483,-3.17267 -2.18579,-5.85723 -5.16642,-7.56559 -1.39096,-0.73215 -2.58321,-0.9762 -3.77546,-0.9762 z"
             fill="#000000"
             fill-rule="evenodd"
             stroke="none"
             id="path132"
             style="stroke-width:2.20216" />
          <path
             d="m 380.57625,224.39293 c 0,0 -5.36513,0.9762 -7.74963,2.19646 -4.37159,2.19646 -8.94188,7.07749 -9.538,12.93472 -0.19871,3.17266 0.79483,5.61317 2.58321,7.80964 1.98708,2.44051 4.96771,1.95241 7.74962,2.19646 3.97417,0.24405 8.74317,-3.66077 12.71734,-2.92862 5.56383,0.73216 12.71734,4.88103 16.89021,9.518 1.98709,1.95241 2.3845,7.32154 4.5703,9.0299 1.98708,1.46431 5.56383,2.68456 7.74962,1.22025 2.1858,-1.22025 3.17934,-5.85723 3.77546,-8.54179 0.39742,-1.46431 0.39742,-3.41672 0,-4.88103 -0.39741,-1.95241 -1.78837,-4.39292 -3.17933,-6.10128 -1.39096,-1.95241 -5.96125,-5.12507 -5.96125,-5.12507"
             fill-rule="evenodd"
             stroke="#000000"
             stroke-width="5.5054"
             id="path134"
             style="fill:#ffff00" />
          <path
             d="m 315.79731,240.25626 c -1.19225,0 -2.18579,0.24405 -3.17933,0.4881 -2.18579,0.24405 -3.97417,0.73216 -3.97417,0.73216 l 1.39096,8.29774 c 0,0 1.58967,-0.4881 3.37804,-0.73216 1.58967,-0.24405 3.77546,0.24406 3.57675,0 -0.19871,0 1.19225,1.95241 1.39096,2.19647 0.19871,1.4643 0,6.58938 -0.39742,8.05369 -0.39741,0.4881 -1.98708,2.19646 -1.98708,2.44051 0.39742,-0.24405 -1.19225,0 -2.58321,-0.4881 -1.19225,-0.24405 -2.3845,-0.48811 -2.3845,-0.48811 0,0 -3.37804,-0.4881 -3.97417,0.97621 -0.59612,1.70836 1.98709,6.34533 1.98709,6.34533 0,0 1.39096,0.24405 3.17933,0.73216 1.58967,0.24405 3.37804,0.9762 5.76254,0 2.98063,-1.22026 4.76901,-3.66077 5.96126,-6.58939 1.78837,-4.14887 2.18579,-9.02989 0.99354,-13.42282 -0.79484,-3.17266 -2.18579,-5.85723 -5.16642,-7.56559 -1.39096,-0.73215 -2.78192,-0.9762 -3.97417,-0.9762 z"
             fill="#000000"
             fill-rule="evenodd"
             stroke="none"
             id="path136"
             style="stroke-width:2.20216" />
          <path
             d="m 284.28216,244.64918 c 0,0 -4.49081,11.95851 -5.48435,17.32764 -0.59613,3.41672 -1.78838,8.29774 -0.79483,11.71446 1.19225,3.41672 4.49081,8.5418 7.47143,8.05369 1.78838,-0.24405 2.3845,-3.90482 3.17934,-5.85723 1.58966,-4.39292 1.98708,-11.22635 4.57029,-14.88712 2.98062,-4.39293 8.74317,-8.5418 13.31346,-9.76205 4.96771,-1.46431 11.9225,1.95241 16.89021,1.70835 2.78192,-0.24405 6.75609,-0.24405 9.14059,-1.70835 2.58321,-1.70836 6.35867,-7.80964 6.35867,-7.80964 0,0 -2.18579,-7.07749 -4.17288,-9.27395 -2.58321,-2.44051 -6.95479,-3.66077 -10.13413,-4.14887 -3.97416,-0.73216 -9.538,0.4881 -13.51217,1.22025 -1.78837,0.24405 -6.35866,1.22026 -6.35866,1.22026"
             fill-rule="evenodd"
             stroke="#000000"
             stroke-width="5.5054"
             id="path138"
             style="fill:#ffff00" />
          <path
             d="m 236.87034,350.39659 c 0,0 7.94833,1.95241 11.12767,0.73216 6.55738,-2.44052 14.50571,-9.76205 18.67859,-16.59549 0.79483,-1.46431 1.39096,-5.85723 1.39096,-5.85723"
             fill="none"
             stroke="#000000"
             stroke-width="5.5054"
             id="path140" />
          <path
             d="m 229.31942,462.66017 c 0,0 -2.22553,-17.57169 -0.89419,-24.89323 1.17238,-6.34533 4.86836,-14.64307 8.44511,-19.5241 7.1535,-10.0061 30.00497,-25.38133 30.00497,-25.38133"
             fill="none"
             stroke="#000000"
             stroke-width="5.5054"
             id="path142" />
          <path
             d="m 268.06756,417.99879 c 0,0 -16.09538,16.35144 -21.2618,25.38133 -2.58321,4.39293 -6.35867,16.10739 -6.35867,16.10739"
             fill="none"
             stroke="#000000"
             stroke-width="5.5054"
             id="path144" />
          <path
             d="m 269.65722,461.43992 c 0,0 -8.54446,13.66687 -11.12767,20.25625 -3.37804,8.05369 -6.75608,19.28005 -8.54446,28.0659 -1.39096,8.05369 -2.58321,18.79194 -2.3845,27.08969 0.19871,8.78584 3.57675,31.97071 3.57675,31.97071"
             fill="none"
             stroke="#000000"
             stroke-width="5.5054"
             id="path146" />
          <path
             d="m 263.49726,606.16231 c 0,0 10.53155,-12.93471 10.73026,-24.16107 0,-8.5418 -8.34576,-19.5241 -9.53801,-27.82185 -1.39096,-8.05369 0.99355,-22.45271 3.97417,-29.77425 1.19225,-2.68456 6.15996,-7.07749 6.15996,-7.07749"
             fill="none"
             stroke="#000000"
             stroke-width="5.5054"
             id="path148" />
          <path
             d="m 322.5534,636.42467 c 0,0 9.33929,-14.15497 9.14058,-21.47651 -0.19871,-15.61928 -13.90958,-30.01831 -11.9225,-45.63759 0.39742,-3.17266 4.57029,-8.54179 5.56383,-14.39902 0.59613,-4.39292 -0.59612,-11.95851 -1.19225,-13.66687 -1.39095,-4.88103 -11.52508,-8.78585 -11.52508,-8.78585"
             fill="none"
             stroke="#000000"
             stroke-width="5.5054"
             id="path150" />
          <path
             d="m 308.64381,696.94938 c 0,0 -12.12121,-12.69066 -16.89021,-20.74436 -4.5703,-7.07748 -7.35221,-15.13117 -7.55092,-19.5241 -0.59613,-7.56559 -0.59613,-13.66687 0.79483,-21.23246 2.3845,-15.13117 14.90313,-31.72666 16.89021,-47.10189 0.39742,-4.63697 -2.3845,-11.22636 -0.79483,-15.37523 1.19225,-3.66077 6.75609,-5.12507 8.54446,-8.54179 1.58967,-3.17267 2.58321,-8.5418 2.18579,-12.44662 -0.1987,-2.44051 -2.98062,-7.56559 -2.98062,-7.56559"
             fill="none"
             stroke="#000000"
             stroke-width="5.5054"
             id="path152" />
          <path
             d="m 291.83308,500.48812 c 0,0 -4.57029,10.4942 -5.36513,15.37523 -0.99354,4.63697 -1.78837,11.95851 0,16.10738 1.78838,4.88103 9.53801,5.85723 11.52509,10.4942 1.98708,4.63698 1.98708,12.69067 0,17.32764 -1.58967,3.66077 -9.33929,8.5418 -9.33929,8.5418 0,0 -4.17288,-18.5479 -3.77546,-26.84564 0,-2.92862 2.18579,-9.518 2.18579,-9.518"
             fill="none"
             stroke="#000000"
             stroke-width="5.5054"
             id="path154" />
          <path
             d="m 384.74912,557.84016 c 0,0 6.9548,18.30385 5.76255,26.60159 -0.99355,5.85723 -7.94834,11.95851 -7.74963,18.05979 0,2.68457 3.77546,7.56559 3.77546,7.56559 0,0 -5.56384,2.92862 -7.74963,1.95241 -2.98062,-1.4643 -5.16642,-6.83343 -6.15996,-10.4942 -1.98708,-6.83344 0.59613,-14.39903 -2.58321,-20.50031 -1.39096,-2.92861 -9.33929,-8.05369 -9.33929,-8.05369 0,0 8.34575,34.16718 5.36512,46.12569 -1.98708,7.56559 -13.31346,5.36913 -15.30054,14.88713 -1.19225,5.61318 -0.79484,14.64307 2.18579,19.036 2.58321,3.66076 8.34575,5.36912 11.7238,3.17266 3.37804,-2.19646 6.35866,-8.29774 6.35866,-8.29774 0,0 2.3845,11.71446 0.19871,15.86333 -1.58966,3.41672 -7.35221,9.76205 -7.35221,9.76205"
             fill="none"
             stroke="#000000"
             stroke-width="5.5054"
             id="path156" />
          <path
             d="m 399.85096,620.07324 c 0,0 -2.98063,9.02989 -2.3845,12.93471 0.99354,8.78585 12.12121,25.13728 12.12121,25.13728"
             fill="none"
             stroke="#000000"
             stroke-width="5.5054"
             id="path158" />
          <path
             d="m 422.70243,603.96585 -3.17934,-19.036 -1.58967,-31.23856"
             fill="none"
             stroke="#000000"
             stroke-width="5.5054"
             id="path160" />
          <path
             d="m 427.67014,511.47042 c 0,0 -3.97417,16.35144 -2.38451,23.18487 2.58321,11.95852 20.46697,33.19098 20.46697,33.19098"
             fill="none"
             stroke="#000000"
             stroke-width="5.5054"
             id="path162" />
          <path
             d="m 446.54743,424.10007 c 0,0 0.39742,14.88713 3.17934,20.01221 3.97416,7.32153 22.05663,14.15497 22.05663,14.15497"
             fill="none"
             stroke="#000000"
             stroke-width="5.5054"
             id="path164" />
          <path
             d="m 431.04818,451.18976 c 0,0 18.67859,24.40513 23.6463,37.09579 4.769,12.69067 8.14704,45.39354 8.14704,45.39354"
             fill="none"
             stroke="#000000"
             stroke-width="5.5054"
             id="path166" />
          <g
             id="langued">
            <path
               d="m 329.11077,351.61685 c 0,0 0.99355,33.92312 7.35221,48.0781 3.77546,8.05369 17.48634,24.89323 17.48634,24.89323 0,0 15.89667,-19.28005 19.87084,-27.33375 6.75609,-13.66687 5.56384,-49.0543 5.56384,-49.0543 l -16.89022,-3.17266 -19.076,-1.46431 z"
               fill-rule="evenodd"
               stroke="#000000"
               stroke-width="5.5054"
               id="path204"
               style="fill:#ff0000" />
            <path
               d="m 351.1674,342.58695 c -0.79483,40.51251 0.39742,55.64369 0.39742,55.64369 l 1.98709,8.29774 2.5832,-8.78584 c 0,0 -1.19225,-14.64308 -0.1987,-54.91154 z"
               fill="#000000"
               fill-rule="evenodd"
               stroke="none"
               id="path206"
               style="stroke-width:2.20216" />
          </g>
          <rect
             y="87.304451"
             x="259.00623"
             height="141.91847"
             width="155.05574"
             opacity="0.5"
             fill="none"
             stroke="none"
             id="rect210-2"
             style="stroke-width:2.20216" />
        </g>
      </g>
    </g>
    <rect
       width="120"
       height="50"
       x="343"
       y="270"
       id="crowned"
       style="fill:none;stroke:none" />
  </g>
</svg>
