<?xml version="1.0" encoding="UTF-8" standalone="no"?>
<!-- Created with Inkscape (http://www.inkscape.org/) -->

<svg
   xmlns:dc="http://purl.org/dc/elements/1.1/"
   xmlns:cc="http://creativecommons.org/ns#"
   xmlns:rdf="http://www.w3.org/1999/02/22-rdf-syntax-ns#"
   xmlns:svg="http://www.w3.org/2000/svg"
   xmlns="http://www.w3.org/2000/svg"
   version="1.0"
   width="400"
   height="420"
   id="svg2">
  <defs
     id="defs4" />
  <metadata
     id="metadata7">
    <rdf:RDF>
      <cc:Work
         rdf:about="">
        <dc:format>image/svg+xml</dc:format>
        <dc:type
           rdf:resource="http://purl.org/dc/dcmitype/StillImage" />
        <dc:title></dc:title>
        <dc:creator>
          <cc:Agent>
            <dc:title>http://commons.wikimedia.org/wiki/User:Sodacan</dc:title>
          </cc:Agent>
        </dc:creator>
      </cc:Work>
    </rdf:RDF>
  </metadata>
  <g
     id="body">
    <path
       d="m 128.3,283.9 c 0,0 -11.4,-8.6 -11.2,-13.4 0,-1.4 1.7,-2 2.3,-3.4 0.6,-1.6 0.9,-3.3 -0.3,-4.6 -1.6,-2.2 -6,-1.7 -8.6,-1.1 -3.7,0.8 -9.7,6.4 -9.7,6.4 l -1.38,9 12.68,11.5 16.2,-4.4 z"
       id="path8117"
       style="fill:#ffff00;fill-opacity:1;fill-rule:evenodd;stroke:#000000;stroke-width:2.9999001;stroke-linecap:butt;stroke-linejoin:miter;stroke-miterlimit:4;stroke-opacity:1;stroke-dasharray:none" />
    <path
       d="m 259.5,308.7 c 0,0 -37.6,-6.3 -53.9,-5.9 -3.8,0 -9.4,0.1 -12.8,1.9 -2.9,1.6 -5.9,5.6 -7.4,8.6 -1.7,3.4 -4.1,8.9 -2.5,12.3 1.4,3.2 10.1,5.5 10.1,5.5 0,0 -8.2,2.5 -11.7,1.5 -2.4,-0.7 -5.2,-3.3 -6.7,-5.4 -1,-1.7 -1.8,-6.3 -1.8,-6.3 0,0 -3.2,3.2 -5.3,3.7 -2.7,0.5 -8.5,-0.6 -8.5,-0.6 0,0 2.6,-2.3 3.5,-3.3 1.7,-1.7 3.3,-4 3.8,-6.3 0.4,-1.4 -1.2,-4.7 -1.2,-4.7 0,0 -0.7,2.9 -1.4,3.9 -1.3,2.4 -3.6,5.3 -5.7,6.9 -1.2,0.8 -3.7,0.6 -4.7,1.8 -1.2,1.5 -2.2,2.3 -1.7,4.2 0.3,1.5 0.8,3.5 2.3,4 1,0.4 3,1.3 4,0.9 0.7,-0.4 2.5,-1.1 2.5,-1.1 0,0 -1,2.9 -3,4.6 -1.1,1 -3,1.1 -3.9,1.2 -0.5,0.2 -2.5,0.9 -4.5,-0.3 -1.9,-1.1 -3.5,-3.3 -3.8,-3.7 0,0 -2.8,-3.3 -3.3,-5 -0.8,-2.8 -0.5,-6.6 0.3,-9.3 0.4,-1.5 2.1,-3 2.5,-4.5 0.3,-1.3 -0.6,-3 -0.3,-4.3 0.4,-1.4 0.3,-1.3 0.3,-1.3 0,0 0.8,1.2 -0.5,3.1 -1.4,2.2 -5.2,7.9 -5.2,7.9 l -3.5,-5.1 -0.5,-5.2 c 0,0 -0.2,-1.8 0.3,-2.2 0.6,-0.4 1.6,0.7 2.3,0.4 1.6,-0.7 1.4,-3.9 1.4,-3.9 0,0 0,3.1 -1.6,3.8 -0.6,0.3 -1.7,-0.7 -2.1,-0.2 -1.8,1.5 -0.5,4.1 0.1,7.6 0.5,2.7 1.8,5.2 0.9,6.8 -0.7,1.4 -4.6,2.5 -4.6,2.5 L 120,319.1 c 0,0 -3.6,-3.4 -3.9,-5.3 -0.5,-3.2 1.4,-11.4 1.4,-11.4 l -0.8,-0.1 -5,4.8 c 0,0 0.1,7.2 -2.2,8.5 -1.6,0.8 -5.9,-2.1 -5.9,-2.1 l -10.55,-9.7 c 0,0 -0.59,-3.8 0.1,-5.3 1.12,-2.1 6.26,-4.8 6.26,-4.8 L 94.25,291 c 0,0 -6.52,3.4 -9.23,2.5 -1.33,-0.5 -2.32,-2.5 -2.89,-3.7 -1.09,-2.5 -1.47,-8.9 -1.47,-8.9 l 9.81,-15.2 c 0,0 3.67,-0.5 4.92,0.4 2.51,1.8 4.09,9.6 4.09,9.6 0,0 9.42,5.3 14.02,5.8 4.8,0.5 10.9,-2.6 15.8,-3 3.2,-0.2 7.6,-0.3 10.8,0.6 1.1,0.3 2.6,1 3.6,1.7 1.9,1.6 3.8,4.4 5.1,6.6 1.2,2.2 1.4,5.7 2.8,7.7 0.8,1 3.3,2.6 3.3,2.6 0,0 -4.7,-7.3 -6.5,-10.6 -2.1,-4 -3.5,-10.2 -6.2,-13.9 -0.9,-1.1 -3,-1.7 -3.6,-3 -1,-2.4 -0.6,-6.4 0.5,-8.9 0.2,-0.3 1,-0.5 1,-0.9 0,-1.5 -2.8,-2.4 -3.5,-3.7 -1.7,-3 -2.6,-7.8 -2.4,-11.1 0.1,-3 1,-7.5 3.1,-9.6 1.7,-1.6 5.2,-2.1 7.6,-2.1 3.3,0 10.7,3.1 10.7,3.1 0,0 -5.6,0.9 -7.6,2.2 -1.3,0.9 -3,2.8 -3.3,4.5 -0.2,0.9 0.5,2.1 0.9,3 2,3.5 9,10 9,10 0,0 8.5,-2.4 12.2,-2.7 4.7,-0.5 11.1,-0.5 15.8,0.3 2.4,0.4 5.8,1.5 8.1,2.4 2.9,1.2 6,4.6 9.1,4.8 1.9,0.2 4.3,-1.2 5.9,-1.9 1.9,-0.8 4.6,-1.7 6,-3.1 1.3,-1.3 54.2,-18.6 39,-28.9 l -31.5,-21.3 48.3,29.7 22.1,33.4 -30.1,39.3 z"
       id="path8042"
       style="fill:#ffff00;fill-opacity:1;fill-rule:evenodd;stroke:#000000;stroke-width:2.9999001;stroke-linecap:butt;stroke-linejoin:miter;stroke-miterlimit:4;stroke-opacity:1;stroke-dasharray:none" />
    <path
       d="m 140.5,259.6 c 0,0 3.2,1.8 4.7,2.3 1.4,0.3 4.8,0.5 4.8,0.5"
       id="path8120"
       style="fill:none;stroke:#000000;stroke-width:2.4999001;stroke-linecap:butt;stroke-linejoin:miter;stroke-miterlimit:4;stroke-opacity:1;stroke-dasharray:none" />
    <path
       d="m 155,268.8 c 0,0 -2.8,-1.9 -4.2,-2.1 -1.6,-0.1 -3.9,0.4 -5,1.4 -1.4,1 -2.6,5.1 -2.6,5.1"
       id="path8122"
       style="fill:none;stroke:#000000;stroke-width:2.4999001;stroke-linecap:butt;stroke-linejoin:miter;stroke-miterlimit:4;stroke-opacity:1;stroke-dasharray:none" />
    <path
       d="m 155.9,272.8 c 0,0 -3.2,-1 -4.6,-0.5 -1.8,0.8 -3.2,3.7 -4,5.5 -0.4,1 -0.7,3.6 -0.7,3.6"
       id="path8124"
       style="fill:none;stroke:#000000;stroke-width:2.4999001;stroke-linecap:butt;stroke-linejoin:miter;stroke-miterlimit:4;stroke-opacity:1;stroke-dasharray:none" />
    <path
       d="m 159.6,278.2 c 0,0 -3.9,-0.1 -5.2,0.6 -1.3,0.6 -2.6,2.4 -3.2,3.7 -0.8,1.8 -1,6.4 -1,6.4"
       id="path8126"
       style="fill:none;stroke:#000000;stroke-width:2.4999001;stroke-linecap:butt;stroke-linejoin:miter;stroke-miterlimit:4;stroke-opacity:1;stroke-dasharray:none" />
    <path
       d="m 116.6,302 c 0,0 3.1,-2.4 4.3,-3.2 1.6,-1 6.4,0 6.4,0"
       id="path8128"
       style="fill:none;stroke:#000000;stroke-width:2.4999001;stroke-linecap:butt;stroke-linejoin:miter;stroke-miterlimit:4;stroke-opacity:1;stroke-dasharray:none" />
    <path
       d="m 101.1,293.3 c 0,0 1.9,-2 3.1,-2.2 1.4,-0.3 5,0.9 5,0.9"
       id="path8130"
       style="fill:none;stroke:#000000;stroke-width:2.4999001;stroke-linecap:butt;stroke-linejoin:miter;stroke-miterlimit:4;stroke-opacity:1;stroke-dasharray:none" />
    <path
       d="m 87.55,54.79 c 0,0 2.58,-12.04 6.49,-14.99 1.21,-0.92 3.02,0.16 4.95,-0.67 2.01,-0.86 6.71,-2.5 7.01,-4.69 0.4,-2.22 -3,-6.96 -3,-6.96 0,0 -6.98,-5.07 -10.56,-5.18 -3.84,-0.21 -12.03,4.54 -12.03,4.54 l -1.56,10.54 8.7,17.41 z"
       id="path3264"
       style="fill:#ffff00;fill-opacity:1;fill-rule:evenodd;stroke:#000000;stroke-width:3;stroke-linecap:butt;stroke-linejoin:miter;stroke-miterlimit:4;stroke-opacity:1;stroke-dasharray:none" />
    <path
       d="m 230.1,111.7 c 0,0 -25.2,61.7 -73.3,64.7 -8.8,0.5 -20.8,-3.2 -28.4,-7.6 -3.9,-2.2 -10.5,-10.5 -10.5,-10.5 0,0 -7,4.4 -8.1,7.5 -0.8,2.3 0.4,5.7 1.5,8 1,2.4 5.3,7 5.3,7 0,0 -8,-1.6 -10.5,-3.8 -2.7,-2.3 -4.7,-6.9 -5.7,-10.4 -0.96,-3 -0.86,-6.1 0.5,-9 1,-2.1 4,-6.6 4,-6.6 0,0 -5.45,-7.1 -7.56,-10.6 -1.88,-3.1 -5.09,-10.9 -5.09,-10.9 0,0 -2.92,1 -3.94,1.7 -0.88,0.7 -2.09,1.9 -2.45,2.9 -0.56,1.5 -1.18,4.2 -0.19,5.4 1.07,1.4 5.61,1.6 5.61,1.6 0,0 -1.9,2.7 -3.08,3 -2.74,0.5 -6.73,-1.2 -8.48,-3.3 -2.58,-3.1 -3.22,-9.3 -2.6,-13.3 0.43,-2.4 2.39,-5.4 4.13,-7.2 1.66,-1.8 7.02,-4.7 7.02,-4.7 0,0 -4.48,-4 -5.38,-6.3 -0.67,-1.6 0.1,-4.3 -0.57,-6 -0.84,-2.2 -4.27,-4.06 -4.62,-6.37 -0.96,-6.9 8.18,-21.79 8.18,-21.79 0,0 -5.21,12.77 -10.15,15.2 -2.23,1.1 -8.18,-0.6 -8.18,-0.6 L 61.67,77.4 c 0,0 0.1,-4.47 1.48,-5.52 3.25,-2.45 13.6,0.1 13.6,0.1 l -9.01,-1.86 -0.92,-10.08 7.05,-4.02 c 0,0 -8.02,5.17 -11.72,4.41 -2.12,-0.41 -5.22,-4.92 -5.22,-4.92 l 1.1,-10.27 c 0,0 1.72,-4.77 3.61,-5.09 4.93,-0.7 13.11,10.35 13.11,10.35 l -8.17,-8.09 2.3,-4.25 8.09,6.68 -8.13,-7.38 0,-7.41 2.7,-0.27 c 0,0 -5.16,-0.85 -6.35,-2.32 -1.3,-1.83 -2.03,-4.49 -1,-6.51 1.54,-3.06 10.12,-5.45 10.12,-5.45 0,0 7.99,-1.04 10.19,0.91 1.94,1.6 2.73,4.05 2.65,6.52 -0.1,2.08 -3.28,6.19 -3.28,6.19 0,0 3.57,11.89 6.09,16.56 2.94,5.43 8.01,12.1 12.34,16.5 4.1,4.2 11.2,7.89 15.3,12.12 6.2,6.44 13.3,20.7 18.2,28.3 6.1,9.7 21.9,18.9 21.9,18.9 l 73,-20.2 c 0,0 -0.6,10.4 -0.6,10.4 z"
       id="path3269"
       style="fill:#ffff00;fill-opacity:1;fill-rule:evenodd;stroke:#000000;stroke-width:3;stroke-linecap:butt;stroke-linejoin:miter;stroke-miterlimit:4;stroke-opacity:1;stroke-dasharray:none" />
    <path
       d="m 104.9,151.9 c 0,0 3.6,-4.2 4.9,-5.9 1.1,-1.4 2.6,-3.2 4,-4.3 0.8,-0.8 3.1,-1.8 3.1,-1.8"
       id="path3283"
       style="fill:none;stroke:#000000;stroke-width:2.5;stroke-linecap:butt;stroke-linejoin:miter;stroke-miterlimit:4;stroke-opacity:1;stroke-dasharray:none" />
    <path
       d="m 92.04,129.6 c 0,0 3.1,-1.6 4.5,-1.9 2.09,-0.6 5.26,0.2 7.16,-0.7 2.4,-1.2 4.5,-4.2 5.9,-6.3 1,-1.5 2.5,-5.3 2.5,-5.3"
       id="path3285"
       style="fill:none;stroke:#000000;stroke-width:2.5;stroke-linecap:butt;stroke-linejoin:miter;stroke-miterlimit:4;stroke-opacity:1;stroke-dasharray:none" />
    <path
       d="m 87.51,115.9 c 0,0 5.21,-0.5 7.36,-2.6"
       id="path3287"
       style="fill:none;stroke:#000000;stroke-width:2.5;stroke-linecap:butt;stroke-linejoin:miter;stroke-miterlimit:4;stroke-opacity:1;stroke-dasharray:none" />
    <path
       d="m 87.45,86.59 c 0,0 4.31,15.61 10.07,19.81 4.18,3.1 12.78,3.9 12.78,3.9"
       id="path3289"
       style="fill:none;stroke:#000000;stroke-width:2.5;stroke-linecap:butt;stroke-linejoin:miter;stroke-miterlimit:4;stroke-opacity:1;stroke-dasharray:none" />
    <path
       d="m 45.31,165.3 c 1.3,-0.2 3.2,0 4.38,0.6 0.88,0.4 1.94,1.5 2.4,2.4 1.3,2.5 0.74,6.6 1.84,9.1 1.83,4.2 8.71,12.3 8.71,12.3 l -17.37,1.3 -13.74,-11.6 1.65,-6.3 c 0,0 2.84,-3.5 4.49,-4.6 2.06,-1.4 5.22,-2.9 7.64,-3.2 z"
       id="path3426"
       style="fill:#ffff00;fill-opacity:1;fill-rule:evenodd;stroke:#000000;stroke-width:3;stroke-linecap:butt;stroke-linejoin:miter;stroke-miterlimit:4;stroke-opacity:1;stroke-dasharray:none" />
    <path
       d="m 45.3,165.4 0,0 z"
       id="path3428"
       style="fill:#f8c300;fill-opacity:1;fill-rule:evenodd;stroke:#000000;stroke-width:1px;stroke-linecap:butt;stroke-linejoin:miter;stroke-opacity:1" />
    <path
       d="m 203.6,140.5 -67.2,10.4 -70.01,27.6 -19.64,8.2 -5.17,-3.5 c 0,0 -3.7,-7.4 -6.53,-9.2 -1.86,-1.2 -7.36,-1.3 -7.36,-1.3 l -6.23,15.6 c 0,0 0.64,4 1.79,5.3 1.05,1.3 5.2,2.6 5.2,2.6 l 5.59,-2.2 c 0.73,-0.6 16.37,1.1 19.02,2.6 0.68,0.4 2.04,-1.1 1.77,-1.7 -0.37,-0.8 -2.82,0.3 -4.92,0.2 -2.7,-0.1 -4.23,0.8 -5.43,0.6 -4.78,-0.5 -4.9,0.1 -8.19,2.3 -1.54,0.9 -2.71,5.2 -2.71,5.2 l 12.18,15.7 c 0,0 6.72,2 9.08,0.5 2.67,-1.7 2.2,-7.3 4.01,-10 1.28,-2 3.68,-7 5.63,-5.6 1.85,1.3 -4,2.3 -5.92,5.4 -2.56,3.8 -1.5,9.7 -1.5,9.7 l 5.16,6.2 c 0,0 11.37,1.1 15.65,-0.8 0.71,-0.3 1.64,-1.1 1.77,-1.7 0.16,-1.5 1.94,-6.1 0.71,-7.9 -1.6,-2.5 -4.64,-3.9 -4.64,-3.9 0,0 -0.72,0.3 0.19,0.1 2.22,-0.4 4.65,3.8 4.65,3.8 l 10.42,-7.8 c 0,0 0.6,2.6 0.45,3.7 -0.37,1.9 -3.12,5.6 -3.12,5.6 0,0 6.43,-0.7 9.71,-2.5 2.49,-1.3 7.19,-4.2 8.39,-6.7 0.8,-1.7 2,-3.2 2,-3.2 0,0 0.5,5.7 -0.7,8.9 -0.7,1.8 -3.4,4.5 -3.4,4.5 0,0 3.7,0.3 6.9,-0.4 2.8,-0.7 5.2,-2.2 6,-2.4 0.1,-0.1 3.8,-1.9 6.2,-6.1 2.4,-4 1.1,-3.9 4,-5.3 0.7,-0.4 0.8,3.1 0,6.7 -0.7,3.1 -2.6,6.5 -2.6,6.6 3.5,-0.5 14,-3.4 18.2,-6.2 7.1,-4.9 10,-15.8 11.5,-15.2 6.2,2.9 22.1,3.3 27,8 4.8,4.5 16.7,-3.1 22.7,-0.4 9.6,4.2 25.2,-43.7 25.2,-43.7 l -11,-18.2 -14.8,-0.1 z"
       id="path3432"
       style="fill:#ffff00;fill-opacity:1;fill-rule:evenodd;stroke:#000000;stroke-width:3;stroke-linecap:butt;stroke-linejoin:miter;stroke-miterlimit:4;stroke-opacity:1;stroke-dasharray:none" />
    <path
       d="m 248.6,239.7 c -4.4,-1 -10.7,0.1 -15,1.2 -2.4,0.6 -7.6,3.2 -7.6,3.2 0,0 5.8,3.1 8.3,4.3 5.2,2.2 12.8,3.3 17.5,6.2 4.2,2.6 8.6,7.7 11.7,11.5 3.5,4.4 9.9,15.9 9.9,15.9 0,0 1.6,-21.6 -3.1,-28.9 -4,-6.5 -14.3,-11.6 -21.7,-13.4 z"
       id="path3303"
       style="fill:#ffff00;fill-opacity:1;fill-rule:evenodd;stroke:#000000;stroke-width:3;stroke-linecap:butt;stroke-linejoin:miter;stroke-miterlimit:4;stroke-opacity:1;stroke-dasharray:none" />
    <path
       d="m 253.6,371.9 c 0,0 -7.3,-5.4 -8.5,-8.9 -0.8,-2.3 1.7,-5.9 0.9,-8.3 -0.8,-2.3 -3.5,-4.9 -5.8,-5.7 -1.7,-0.6 -6,0.7 -6,0.7 l -5,11.5 3.6,4.6 7.3,6.5 13.5,-0.4 z"
       id="path7851"
       style="fill:#ffff00;fill-opacity:1;fill-rule:evenodd;stroke:#000000;stroke-width:3;stroke-linecap:butt;stroke-linejoin:miter;stroke-miterlimit:4;stroke-opacity:1;stroke-dasharray:none" />
    <path
       d="m 164.7,131.5 c 0,0 -29.8,59.5 -24.6,64 4.9,4.3 33.2,11.6 39.3,14.1 9.7,3.9 30.6,15.7 40.5,19.2 7.4,2.7 17.5,8.5 24.3,12.5 7.5,4.4 18.4,10.4 22.8,17.9 2.8,4.7 4.2,12.6 2.8,17.8 -2,7.9 -11.7,14.3 -17.2,20.3 -0.9,1 -3.9,0.7 -6.7,4 -2.8,3.4 -5.4,10.6 -7.2,10.6 -3,0.2 -8.4,-3.2 -8.4,-3.2 0,0 0.5,4 2.8,6.9 1.8,2.3 5.5,3.6 6.6,3.6 2.5,0 5.9,-1.5 6.7,-1.8 4,-1.4 9.7,-10.3 9.7,-10.3 0,0 -10.5,11.5 -10.7,17.8 -0.1,2.7 2.3,4.9 1.8,7.6 -0.5,2.9 -1.3,6.1 -4.3,6.3 -4.2,0.4 -9.9,-1.3 -9.9,-1.3 0,0 2.5,4.5 6.5,6.7 2.5,1.4 5.6,1.6 8.3,0.6 6,-2.2 13,-7.9 16.5,-13.2 2.1,-3.1 3.5,-11.9 3.5,-11.9 0,0 -6.3,13.2 -4.9,18.9 0.9,4 6.6,8.6 6.6,8.6 0,0 -7.2,2.5 -10.5,4.6 -5.3,3.4 -13,16.6 -13,16.6 0,0 -8.1,-3.1 -11,-5.3 -2,-1.4 -3.1,-5.2 -5.5,-5.9 -1.6,-0.5 -5.6,1.5 -5.6,1.5 l -4.1,17.1 c 0,0 2.1,4.9 4.1,5.5 3.3,1.2 7.4,-2.7 11.1,-3.1 3.6,-0.3 11,1.1 11,1.1 l -13.2,7.8 -0.7,5.3 10.3,9.6 c 0,0 6.9,-0.8 8.6,-2.9 2.5,-2.8 2.2,-12.3 2.2,-12.3 0,0 2.5,2.8 3.1,4.8 0.8,2.4 -0.5,6.9 -0.5,6.9 l 5,4.6 10,1 c 0,0 4.4,-3 4.6,-5 0.5,-3.5 -5.8,-10.4 -5.8,-10.4 l 11.1,-1.5 1.8,-8.4 c 0,0 3.3,10.9 7,13.3 2.5,1.6 6.9,1.5 9.6,0.5 2.3,-0.8 5.9,-5.4 5.9,-5.4 0,0 -4.2,1.6 -6,1.1 -1.6,-0.5 -4.1,-2.1 -4.1,-3.8 0,-3.1 7.6,-7.2 7.6,-7.2 0,0 6.6,3.7 9.7,4 2.3,0.2 5.8,0 7.4,-1.6 1.7,-1.7 1.4,-7.9 1.4,-7.9 0,0 -1.9,3.1 -3.8,3.2 -1.9,0.2 -5.3,-0.7 -6.1,-2.4 -1.5,-3.2 1.7,-11.8 1.7,-11.8 0,0 7,2.1 10.1,0.6 1.3,-0.6 3.5,-3 3.7,-5.2 0.4,-3.3 -0.2,-4.9 -0.2,-4.9 0,0 -1.9,4.1 -4.2,4 -2.3,-0.2 -5.5,-1.6 -7.1,-3.3 -2.6,-2.9 -4.4,-8.5 -4.3,-12.5 0,-4.8 2.5,-9.3 4.2,-13.8 0.5,-1.3 1.6,-3.7 1.6,-3.7 0,0 5.2,4.2 8,5.1 2,0.6 6.6,-0.2 8.3,-1.4 2.6,-1.8 4.7,-6.6 3.9,-9.6 -0.6,-2.5 -4.5,-4.6 -4.5,-4.6 0,0 0.3,4 0.1,5.8 -0.2,1.3 -3.5,2.1 -4.8,2.4 -1,0.3 -2.3,-1 -2.9,-1.9 -2.9,-4.2 -2.8,-11 -2.2,-16.1 0.4,-3.7 5.3,-11.1 5.3,-11.1 0,0 7.6,6.2 11.6,7.5 2.8,0.9 4.2,-4.1 2.7,-8.5 -1.8,-5.4 -6.9,-10.6 -6.9,-10.6 0,0 -14.8,-13.9 -17.8,-18.2 -8.3,-11.7 -11,-22.5 -20.2,-33.5 -3.6,-4.2 -9.7,-10.9 -13.6,-14.8 -6.8,-6.6 -18.2,-15.9 -24.4,-22.9 -10.6,-12 -34.4,-39.2 -34.4,-39.2 l -11.4,-17.7 -48.7,-1.2 z"
       id="path3268"
       style="fill:#ffff00;fill-opacity:1;fill-rule:evenodd;stroke:#000000;stroke-width:3;stroke-linecap:butt;stroke-linejoin:miter;stroke-miterlimit:4;stroke-opacity:1;stroke-dasharray:none" />
    <path
       d="m 328.1,291.4 c 0,0 -2.8,-6.8 -4.8,-9.8 -1.7,-2.6 -5.9,-4.5 -7.6,-7.1 -1.5,-2.2 -3.1,-8.3 -3.1,-8.3"
       id="path7912"
       style="fill:none;stroke:#000000;stroke-width:2.5;stroke-linecap:butt;stroke-linejoin:miter;stroke-miterlimit:4;stroke-opacity:1;stroke-dasharray:none" />
    <path
       d="m 303.5,276.5 c 0,0 4.2,5.6 4.7,8.4 0.8,4.3 -2.4,9.4 -2.5,13.8 0,2.8 0.8,6 0.4,8.3 -0.4,1.9 -2.3,6.1 -2.3,6.1 0,0 4.5,-2.2 6.1,-4.1 0.7,-0.7 4.8,-5.1 4.8,-5.1 0,0 -1.5,10.3 -0.2,14.5 0.3,1.3 2.4,3.6 2.4,3.6"
       id="path7914"
       style="fill:none;stroke:#000000;stroke-width:2.5;stroke-linecap:butt;stroke-linejoin:miter;stroke-miterlimit:4;stroke-opacity:1;stroke-dasharray:none" />
    <path
       d="m 305.1,349.4 c 0,0 1.4,5 2.6,6.9 0.9,1.6 4.2,4.7 4.2,4.7"
       id="path7916"
       style="fill:none;stroke:#000000;stroke-width:2.5;stroke-linecap:butt;stroke-linejoin:miter;stroke-miterlimit:4;stroke-opacity:1;stroke-dasharray:none" />
    <path
       d="m 299.6,379.3 c 0,0 2.6,-5.3 3,-7.8 0.4,-2.7 0.3,-6.6 -0.5,-9.2 -0.3,-1 -1.8,-3 -1.8,-3"
       id="path7918"
       style="fill:none;stroke:#000000;stroke-width:2.5;stroke-linecap:butt;stroke-linejoin:miter;stroke-miterlimit:4;stroke-opacity:1;stroke-dasharray:none" />
    <path
       d="m 291.4,361.9 c 0,0 2.7,5.3 2.5,7.8 -0.3,3.8 -3.2,8.2 -4.2,11.8 -0.5,1.8 -1.3,4.3 -1.2,6.2 0.1,1.5 1.5,4.6 1.5,4.6"
       id="path7920"
       style="fill:none;stroke:#000000;stroke-width:2.5;stroke-linecap:butt;stroke-linejoin:miter;stroke-miterlimit:4;stroke-opacity:1;stroke-dasharray:none" />
    <path
       d="m 282.1,380.2 c 0,0 1.7,-9.2 2,-11.3 0.2,-1.7 -0.8,-5.2 -0.8,-5.2"
       id="path7922"
       style="fill:none;stroke:#000000;stroke-width:2.5;stroke-linecap:butt;stroke-linejoin:miter;stroke-miterlimit:4;stroke-opacity:1;stroke-dasharray:none" />
    <path
       d="m 245.5,181.2 -6.9,10"
       id="path7926"
       style="fill:none;stroke:#000000;stroke-width:2.4999001;stroke-linecap:butt;stroke-linejoin:miter;stroke-miterlimit:4;stroke-opacity:1;stroke-dasharray:none" />
    <path
       d="m 250.1,186.1 -5.9,7.3"
       id="path7928"
       style="fill:none;stroke:#000000;stroke-width:2.4999001;stroke-linecap:butt;stroke-linejoin:miter;stroke-miterlimit:4;stroke-opacity:1;stroke-dasharray:none" />
    <path
       d="m 253.6,191.3 -3.1,5.7"
       id="path7930"
       style="fill:none;stroke:#000000;stroke-width:2.4999001;stroke-linecap:butt;stroke-linejoin:miter;stroke-miterlimit:4;stroke-opacity:1;stroke-dasharray:none" />
    <path
       d="m 257.3,195.5 -3.3,5.3"
       id="path7932"
       style="fill:none;stroke:#000000;stroke-width:2.4999001;stroke-linecap:butt;stroke-linejoin:miter;stroke-miterlimit:4;stroke-opacity:1;stroke-dasharray:none" />
    <path
       d="m 285.4,347.7 -5.8,1.3 -9,-1.5 c 0,0 -0.4,2.1 -0.1,3.4 0.3,0.9 1.4,2.4 2.2,2.8 1.5,0.7 3.8,1.4 5.5,1.1 0.8,-0.1 2.4,-1.3 2.4,-1.3"
       id="path7934"
       style="fill:none;stroke:#000000;stroke-width:2.5;stroke-linecap:butt;stroke-linejoin:miter;stroke-miterlimit:4;stroke-opacity:1;stroke-dasharray:none" />
    <path
       d="m 279.1,315.6 c 0,0 -3.6,5.4 -3.8,8.1 -0.2,2.5 1.3,5.7 2.5,7.9 1,1.9 2.1,3.5 4.1,4.3 1.7,0.7 6.8,0.6 6.8,0.6 0,0 -4.4,2.7 -6.5,2.9 -2.8,0.3 -6.7,-0.7 -9.1,-2.2 -1.6,-1 -3.1,-3.1 -4,-4.7 -1.2,-2.2 -2.3,-7.9 -2.3,-7.9"
       id="path7936"
       style="fill:none;stroke:#000000;stroke-width:2.5;stroke-linecap:butt;stroke-linejoin:miter;stroke-miterlimit:4;stroke-opacity:1;stroke-dasharray:none" />
    <path
       d="m 259.5,316.4 c 0,0 -4.2,4.9 -4.7,7.5 -0.4,2.1 0.7,5 0.4,7.1 -0.2,2 -0.7,4 -1.5,5.8 -0.9,2 -4.5,7.6 -4.5,7.6"
       id="path7938"
       style="fill:none;stroke:#000000;stroke-width:2.5;stroke-linecap:butt;stroke-linejoin:miter;stroke-miterlimit:4;stroke-opacity:1;stroke-dasharray:none" />
    <path
       d="m 317.9,285.5 c 0,0 0.6,6.8 0,9.7 -0.6,3.1 -3.8,9.7 -3.8,9.7"
       id="path7940"
       style="fill:none;stroke:#000000;stroke-width:2.5;stroke-linecap:butt;stroke-linejoin:miter;stroke-miterlimit:4;stroke-opacity:1;stroke-dasharray:none" />
    <path
       d="m 209.2,207.9 c 0,0 4.5,3.8 5.9,5.6 0.8,1.1 4.4,6.3 4.4,6.3"
       id="path7952"
       style="fill:none;stroke:#000000;stroke-width:2.5;stroke-linecap:butt;stroke-linejoin:miter;stroke-miterlimit:4;stroke-opacity:1;stroke-dasharray:none" />
    <path
       d="m 220.6,212.9 c 0,0 6,5.7 8,8.1 1,1.3 3.2,5.8 3.2,5.8"
       id="path7954"
       style="fill:none;stroke:#000000;stroke-width:2.5;stroke-linecap:butt;stroke-linejoin:miter;stroke-miterlimit:4;stroke-opacity:1;stroke-dasharray:none" />
    <path
       d="m 231.3,217.7 c 0,0 4.4,5.6 6,8.2 1.2,1.9 3.3,6.6 3.3,6.6 0,0 0,0 0,0"
       id="path7956"
       style="fill:none;stroke:#000000;stroke-width:2.5;stroke-linecap:butt;stroke-linejoin:miter;stroke-miterlimit:4;stroke-opacity:1;stroke-dasharray:none" />
    <path
       d="m 242.8,224.6 c 0,0 3.1,3.8 4.2,5.6 1,1.7 2.3,4.1 2.7,6 0.4,1.9 -0.1,6.3 -0.1,6.3"
       id="path7958"
       style="fill:none;stroke:#000000;stroke-width:2.5;stroke-linecap:butt;stroke-linejoin:miter;stroke-miterlimit:4;stroke-opacity:1;stroke-dasharray:none" />
    <path
       d="m 331.6,293.4 -5.9,-7.8"
       id="path2474"
       style="fill:none;stroke:#000000;stroke-width:1.60000002;stroke-linecap:butt;stroke-linejoin:miter;stroke-miterlimit:4;stroke-opacity:1;stroke-dasharray:none" />
    <path
       d="m 337.9,282.1 c 0,0 3.7,3.3 8.2,3.3 3.9,-0.1 8.7,-3.8 10.8,-7.1 1.3,-1.9 2.8,-14.9 2,-17.9 -1.1,-3.8 -4.9,-9.1 -7.7,-10.8 -2.8,-1.7 -5.9,-1.9 -8.3,-1.3 -1.2,0.3 -2.3,1.7 -3.2,2.6 -0.7,0.6 -2,1.4 -2,2.3 -0.1,0.5 0.6,1.1 1,1.5 1.4,1.4 5.5,3.7 5.5,3.7 0,0 -5.1,2.5 -7.3,2.1 -2.1,-0.4 -4.7,-2.2 -5.6,-4 -1.3,-2.4 -1,-6.4 0,-8.9 0.8,-2.2 3.2,-4.7 5.2,-5.9 2.2,-1.4 8.2,-2.3 8.2,-2.3 0,0 -9.3,1.2 -13.1,0.3 -3.2,-0.8 -7.3,-3 -9.8,-5.2 -1.3,-1.2 -2.8,-3.1 -3.2,-4.7 -0.5,-2 -0.1,-5.1 0.9,-6.9 1,-1.8 3.3,-3.8 5.3,-4.3 1.9,-0.5 4.8,0.3 6.5,1.4 1.4,0.8 3.6,4.2 3.6,4.2 0,0 -3.3,-0.6 -4.5,-0.1 -1.1,0.4 -2.6,1.4 -2.7,2.5 0,1.6 2.3,3 3.7,3.9 1.5,1 5.8,1.9 5.8,1.9 l 7.2,-0.2 5.7,0.8 c 0,0 -6.7,-14.4 -9.5,-19.8 -1.6,-3.1 -4,-11.2 -5,-14.5 -1.4,-4.5 -1,-5 -2.5,-9.3 -1.7,-5.1 -4.7,-12 -8.7,-15.6 -2.3,-2 -7.4,-4.3 -10.3,-5.1 -2.5,-0.6 -5.2,-0.5 -7.7,0 -2,0.4 -4.7,1.5 -5.8,3.2 -1.3,1.9 -1.8,5.4 -1.1,7.5 0.3,0.7 1.2,1.3 1.9,1.7 1.3,0.8 3.3,1.6 4.9,1.7 2.2,0.3 5.3,0.1 7.3,-0.9 0.5,-0.2 1.5,-1.3 1.5,-1.3 0,0 -1.4,5.3 -3,6.9 -1.7,1.7 -4.9,3.1 -7.3,3.3 -2.7,0.3 -6.5,-0.5 -8.8,-1.9 -2.9,-1.9 -6.2,-5.8 -7.1,-9.1 -1.1,-3.9 -0.3,-9.8 1.6,-13.3 1.7,-3 5.7,-6 8.9,-7.3 2,-0.8 7.2,-0.7 7.2,-0.7 l 3.1,1.1 c 0,0 -3.8,-1.1 -5.4,-1.8 -1.7,-0.6 -4.1,-1.4 -5.5,-2.6 -2.7,-2.4 -5.7,-6.5 -6.6,-10 -0.5,-2.3 0.2,-5.5 0.9,-7.7 1,-2.7 2.9,-6.4 5.2,-8.2 2.3,-1.8 6.3,-3.1 9.2,-3.2 1.8,-0.1 4.4,0.5 5.8,1.5 2,1.3 4.3,4.1 4.6,6.5 0.2,1.1 -1.2,3.4 -1.2,3.4 0,0 -2.6,-3.2 -4.2,-3.9 -1.6,-0.6 -4.2,-0.7 -5.8,0 -1,0.5 -1.9,1.8 -2.4,2.8 -0.8,1.9 -1.5,5 -0.7,6.9 1,2.1 4.1,3.6 6.2,4.6 2,1 7.2,2.1 7.2,2.1 l 7.5,5.6 c 0,0 -1.2,-9.9 -1.1,-14.2 0.1,-3.7 0.6,-8.5 1.4,-12.1 1,-4.8 3.1,-11 5.2,-15.4 3.1,-6.5 10,-13.6 12.9,-20.2 1,-2.24 2,-5.44 2.2,-7.88 0.3,-3.08 0.2,-7.34 -0.8,-10.28 -0.6,-1.88 -2.3,-4.01 -3.6,-5.59 -1.3,-1.74 -2.9,-4.51 -4.9,-5.37 -1.3,-0.59 -3.6,-0.39 -5,0.11 -1.4,0.51 -2.9,1.85 -3.6,2.97 -0.8,1.13 -1.5,3.09 -1.2,4.11 0.4,1.03 2.9,3.4 3.7,3.14 0.8,-0.25 6.7,-1.54 6.7,-1.54 0,0 -1.6,4.95 -3.5,6.4 -1.9,1.45 -7.2,1.7 -10.8,1.26 -3.5,-0.45 -8,-4.08 -10.9,-6.4 -3,-2.32 -5.5,-4.8 -6.5,-7.31 -1,-2.51 -0.9,-6.07 -0.3,-8.22 0.6,-2.15 2,-4.37 3.6,-5.6 1.2,-0.93 4.8,-1.59 4.8,-1.59 0,0 -5.6,-2.22 -7.6,-3.89 -2,-1.76 -4.3,-4.74 -5.1,-7.3 -0.9,-2.92 -1.1,-7.4 0.2,-10.17 1.8,-3.85 5.4,-8.37 9.1,-10.55 2.5,-1.52 7.8,-3.83 10.8,-3.88 2.1,0 5.1,2.36 6.6,3.81 1.5,1.43 2.7,4.4 2.3,6.4 -0.3,1.5 -3.3,3.88 -3.3,3.88 0,0 0.8,-3.97 0,-5.37 -0.7,-1.12 -2.5,-2.23 -3.8,-2.17 -1.7,0.1 -4.1,1.81 -4.8,3.43 -0.5,1.2 0.1,3.14 0.6,4.34 1.3,2.9 7,7.99 7,7.99 l 11.8,3.43 7.7,5.02 2.2,3.08 3.8,-9.02 c 0,0 7.4,-7.42 11.3,-9.24 2.2,-0.99 5.5,-1.79 7.8,-1.37 2.3,0.4 5,2.24 6.6,3.88 1.2,1.18 3,3.15 2.8,4.79 -0.3,1.85 -4.5,4.34 -4.5,4.34 0,0 1,-3.78 0.1,-5.02 -0.8,-1.26 -3.2,-1.81 -4.8,-1.71 -1.5,0.1 -3.3,1.31 -4.5,2.28 -1.5,1.18 -3.1,3.22 -3.9,4.91 -0.9,1.84 -1.7,4.58 -1.6,6.62 0.1,3.04 2.2,6.75 3.3,9.59 1.6,4.13 4.7,9.28 5.7,13.59 0.5,2.14 0.6,5.13 0.4,7.31 -0.2,1.34 -1.3,4.34 -1.3,4.34 0,0 0,0 0,0 0,0 -2.6,5.15 -2.6,5.15 0,0 6.6,-6.13 10.2,-7.27 2.7,-0.86 6.9,-1.26 9.4,0 3.1,1.54 5.8,5.97 7,9.2 0.6,1.5 0.9,3.77 0.5,5.33 -0.4,1.75 -1.9,3.74 -3.1,5.04 -0.9,1 -3.4,2.5 -3.4,2.5 0,0 2.3,-5.42 1.9,-7.78 -0.3,-2.03 -1.8,-4.89 -3.6,-5.81 -2.4,-1.18 -6.5,-0.73 -8.7,0.72 -1.9,1.23 -2.9,4.39 -3.4,6.54 -0.6,2.43 0.7,6.03 0,8.43 -0.8,2.7 -3.2,5.9 -5.1,8 -2.6,3 -7.5,5.5 -10.2,8.5 -2.1,2.3 -9.2,12.7 -10.1,14.8 -1.2,2.5 -2.6,6.2 -2.2,8.9 0.1,1.2 1.9,3.6 1.9,3.6 0,0 1.4,-4 2.7,-5.3 2.6,-2.8 7.6,-4.8 11.1,-6.3 2.7,-1.1 7.4,-0.5 9.2,-2.6 1.6,-1.9 1.9,-5.8 1,-8 -0.7,-1.6 -3.4,-3.2 -4.6,-3.4 -1.2,-0.2 -2.2,0.7 -2.2,0.7 0,0 3,-3.8 4.9,-4.1 2.4,-0.5 6.1,0.8 7.7,2.7 1.3,1.4 2.8,3.9 3,5.8 0.3,2.1 -0.3,5.3 -1.1,7.2 -0.8,2 -3.9,3.3 -5.3,4.9 -1,1.1 -3.3,2.6 -2.9,4.1 0.5,1.8 4.2,1.7 5.8,2.7 2.8,1.6 6.4,4.1 8.5,6.5 1.2,1.4 2.7,3.7 3.1,5.6 0.9,3.4 0.6,8.2 -0.4,11.6 -0.7,2 -2,4.7 -3.7,6 -0.8,0.7 -2.3,0.9 -3.4,1 -2,0.1 -5,0.2 -6.7,-1 -1.5,-0.9 -3,-4.8 -3,-4.8 l -0.7,-1.7 c 0,0 5,3 7.3,2.7 1.3,-0.2 3,-1.5 3.4,-2.7 0.5,-1.6 -0.3,-4.3 -1.5,-5.6 -1.5,-1.5 -4.8,-1.5 -7,-1.9 -1.7,-0.3 -4,-1.1 -5.9,-0.5 -2.2,0.8 -5.3,1.7 -7.3,2.9 -1.4,1 -3.1,2.7 -4.3,3.9 -0.9,0.9 -2.5,2 -2.9,3.2 -1.5,3.8 -0.7,12 -0.2,16.2 0.3,2.7 1,6.3 2,8.9 2.4,7.1 4.7,11.2 7.5,18.2 2.3,5.8 8,18.2 9.9,24.2 0.8,2.6 2.2,6 2.7,8.7 0.5,3.2 0.3,7.5 0.4,10.7 0.2,5.1 1.2,10 -0.1,14.9 -0.8,3.1 -3.1,8.6 -4.9,11.2 -2.1,3 -4.6,7.2 -7.6,9.2 -2.7,1.9 -7.1,3.2 -10.4,3.4 -2.5,0.2 -6.5,-0.1 -8.9,-1.1 -3.6,-1.4 -11.2,-6.9 -11.2,-6.9"
       id="path2839"
       style="fill:#ffff00;fill-opacity:1;fill-rule:evenodd;stroke:#000000;stroke-width:3;stroke-linecap:butt;stroke-linejoin:miter;stroke-miterlimit:4;stroke-opacity:1;stroke-dasharray:none" />
    <path
       d="m 309.5,20.17 c 0,0 -2.4,7.99 -1.9,10.77 0.5,3.35 1.7,7.92 3.7,10.7 1.5,2.21 4.6,4.39 7,5.68 3.8,2.12 13.9,4.59 13.9,4.59"
       id="path3611"
       style="fill:none;stroke:#000000;stroke-width:2.5;stroke-linecap:butt;stroke-linejoin:miter;stroke-miterlimit:4;stroke-opacity:1;stroke-dasharray:none" />
    <path
       d="m 324.6,58.9 c 0,0 -5.8,3.03 -7.7,5.02 -1.3,1.43 -2.8,3.76 -3.2,5.68 -0.5,2.14 0.8,7.21 0.8,7.21"
       id="path3613"
       style="fill:#ffff00;fill-opacity:1;fill-rule:evenodd;stroke:#000000;stroke-width:2.5;stroke-linecap:butt;stroke-linejoin:miter;stroke-miterlimit:4;stroke-opacity:1;stroke-dasharray:none" />
    <path
       d="m 366.1,89.05 c 0,0 -4.9,9.9 -7.9,13.55 -1,1.2 -2.6,2.5 -3.9,3.5 -1.2,0.9 -4.4,2.8 -4.4,2.8"
       id="path3615"
       style="fill:#f8de00;fill-opacity:1;fill-rule:evenodd;stroke:#000000;stroke-width:2.5;stroke-linecap:butt;stroke-linejoin:miter;stroke-miterlimit:4;stroke-opacity:1;stroke-dasharray:none" />
    <path
       d="m 360.4,119.4 c 0,0 -4.4,-1.3 -6.3,-1.1 -1.6,0.2 -3.6,1 -4.8,2 -1.2,0.8 -3.1,3.7 -3.1,3.7"
       id="path3617"
       style="fill:#f8de00;fill-opacity:1;fill-rule:evenodd;stroke:#000000;stroke-width:2.5;stroke-linecap:butt;stroke-linejoin:miter;stroke-miterlimit:4;stroke-opacity:1;stroke-dasharray:none" />
    <path
       d="m 387.1,169 c 0,0 -5.6,-6.4 -8.5,-8.5 -3.1,-2.2 -7.9,-4.4 -11.6,-4.6 -4.2,-0.3 -9.9,1.4 -13.6,3.5 -2.4,1.3 -4.9,4.4 -6.7,6.5 -2,2.3 -5.7,8.1 -5.7,8.1"
       id="path3619"
       style="fill:none;stroke:#000000;stroke-width:2.5;stroke-linecap:butt;stroke-linejoin:miter;stroke-miterlimit:4;stroke-opacity:1;stroke-dasharray:none" />
    <path
       d="m 349.9,232.5 c 0,0 4,5 5.1,7 0.8,1.6 1.9,5.7 1.9,5.7"
       id="path3621"
       style="fill:#f8de00;fill-opacity:1;fill-rule:evenodd;stroke:#000000;stroke-width:2.5;stroke-linecap:butt;stroke-linejoin:miter;stroke-miterlimit:4;stroke-opacity:1;stroke-dasharray:none" />
    <path
       d="m 203.7,92.89 c 0,0 8.6,19.11 14.1,26.21 5.2,6.6 15.6,12.3 20.7,19.1 5.2,6.8 10.9,17 13.4,25.1 1.7,5.6 2.2,13.6 2.5,19.5 0.2,5.3 -6.7,10.2 -5,11.6 2.3,1.6 5.8,6.6 7,12.7 0.8,4.3 -0.2,10.2 -0.3,12.1 -0.3,2.6 -2,6.1 -4.1,7.5 -2.5,1.4 -9.5,0.3 -9.5,0.3 0,0 4.7,-3.9 4.9,-6.4 0,-1.9 -1.7,-4.5 -3.2,-5.6 -2.5,-1.6 -11.1,-14.8 -11.1,-14.8 0,0 -0.4,8.8 -2.4,11.8 -1.5,2.3 -5.9,3 -7.7,5.1 -1.7,1.9 -3.1,5.5 -3.2,8.1 -0.3,4.4 4.4,10.2 4.4,10.2 0,0 -8.3,0 -10.6,-4.3 -1.9,-3.6 -2.4,-8.6 -1.8,-12.7 0.3,-1.6 3.3,-6.2 3.6,-9.5 0.3,-4.5 -2.1,-7.6 -2.1,-7.6 0,0 -3.4,8 -5.4,11.1 -1.4,2.1 -5.3,3.8 -5.5,6.2 -0.4,3.4 5.1,6.4 5.5,9.8 0.3,3.3 -1.5,7.7 -3.1,10.8 -1.1,2 -3.3,4.6 -5.4,5.8 -3.2,1.8 -8.3,2.4 -11.9,2.2 -1.3,-0.1 -4,-1.4 -4,-1.4 0,0 8.2,-2 10.5,-4.5 1.2,-1.5 2,-4.2 1.8,-6 -0.2,-2.3 -2.4,-4.9 -3.5,-6.9 -1.8,-2.8 -5,-6.1 -6.1,-9.1 -1.1,-3.3 -1.5,-7.9 -1.3,-11.3 0.4,-3.6 3.3,-11.4 3.3,-11.4 0,0 -1.8,6.1 -4.4,8.4 -1.6,1.4 -6.5,3 -8.2,4.2 -1.3,1 -3.3,2.6 -3.7,4.3 -0.5,2 1.3,4.8 1.7,6.8 0.4,2 1.1,6.4 1.1,6.4 0,0 -7.4,-7.3 -9.5,-11.1 -1.8,-3.5 -4,-8.9 -3.3,-12.7 0.3,-2 2.6,-4.1 3.8,-5.7 1,-1.1 2.3,-2.6 3.3,-3.7 0.8,-1.1 2.4,-2.6 2.4,-3.9 0.1,-2.4 -3.8,-7 -3.8,-7 0,0 -0.3,4.5 -1.1,6.3 -1.5,2.9 -7.3,7.8 -7.3,7.8 0,0 1.7,-5.8 0.6,-7.9 -1.7,-3.8 -8.3,-5.3 -11.1,-8.4 -3.2,-3.6 -7.6,-12.9 -9.2,-17.5 -0.3,-0.9 -8.2,4.2 -10.7,0.5 -4,-6.2 -6.3,-12.6 -7.4,-22.2 -0.9,-7.5 6.1,-15.1 8.7,-23.4 2.8,-8.9 4.2,-20.85 4.7,-21.63 3,-4.03 10.6,-7.51 10.6,-7.51 l 9.2,-20.85 15.4,-9.05 42.1,29.29 -8.4,4.84 z"
       id="path5995-8"
       style="fill:#ffff00;fill-opacity:1;fill-rule:evenodd;stroke:#000000;stroke-width:3;stroke-linecap:butt;stroke-linejoin:miter;stroke-miterlimit:4;stroke-opacity:1;stroke-dasharray:none" />
    <path
       d="m 182.9,27.83 c 0,0 -1.3,-4.14 -1,-7.18 0.1,-1.86 2.1,-6.73 3.3,-9.1 1.1,-2.21 2.2,-2.85 2.2,-2.85 0,0 -0.6,2.99 -0.4,4.68 0.2,2.85 3.1,8.99 3.1,8.99 0,0 0.4,-3.51 0.9,-4.89 1.9,-4.25 8.9,-12.583 8.9,-12.583 0,0 -1.6,10.033 -0.4,14.073 1,3.48 4,3.5 6.9,5.79 7.1,5.68 22.7,8.75 30.6,15.73 3.3,2.9 9.2,11.08 9.2,11.08 0,0 8.6,6.78 14.4,7.72 2.1,0.33 5.1,-0.66 7,0.43 3.2,1.9 6.1,2.82 8.8,4.79 3.2,2.43 0.7,10.3 -1.9,13.56 -0.8,1.1 -2.9,1.62 -3.6,2.78 -1.3,1.9 -0.6,5.57 -2,7.41 -1.6,2.18 -5,4.42 -7.7,4.72 -3.7,0.38 -8.2,-2.63 -11.1,-4.93 -3.2,-2.53 -7.3,-3.6 -8.1,-7.6 -0.4,-1.62 -1.1,-7.47 -1.1,-7.47 0,0 -7.4,2.14 -10,5.26 -2.3,2.69 -4,7.7 -3.6,11.22 0.5,5.19 4.5,11.74 8.5,15.14 3.6,3.1 11.2,2.3 14.6,5.5 2.7,2.6 5.5,5 5.4,8.7 -0.1,2.4 -1.2,7.1 -3.2,8.3 -2.4,1.4 -5.4,-1.7 -7.5,0.1 -1.2,1 -2.9,6.1 -2.9,6.1 0,0 -4.4,-5.9 -4.9,-8.8 -0.4,-2 1.2,-6.4 1.2,-6.4 0,0 -14.7,-4.1 -20.8,-6.3 -4.2,-1.6 -11.8,-3.1 -15,-6.3 -2.4,-2.6 -3.5,-7.09 -3,-10.53 0.1,-1.32 2.6,-3.53 2.6,-3.53 0,0 -1.8,-2.11 -3.2,-1.44 -3.7,1.55 -5.9,4.48 -7.4,8.22 -2.4,6.68 -5.2,16.88 -4.3,23.78 0.5,4.2 1.9,9.9 4.1,14.4 0.9,1.8 1.9,3.4 3,4.7 2.8,3.1 8.4,5.1 11,8.3 1.7,2.2 3.4,5.7 3.8,8.5 0.3,2.2 -0.1,5.3 -0.9,7.4 -1.2,2.6 -6,7.3 -6,7.3 l 0,-7.6 -9.7,-9.8 c 0,0 -14.5,-9 -18.8,-14.7 -4.9,-6.2 -4.3,-8.5 -4.3,-8.5 0,0 -1.6,9.1 3.4,18.4 1.7,2.9 7.2,8.3 7.2,8.3 0,0 -12.3,-5.4 -16.3,-9.4 -4.7,-4.9 -8.7,-13.3 -10.6,-19.8 -1.7,-5.8 -1.3,-23.5 -1.3,-23.5 0,0 9.3,-13.43 14.9,-19.5 3,-3.3 11.7,-9.14 11.7,-9.14 0,0 -8.6,6.19 -11.8,9.43 -7,7.18 -20.1,26.71 -20.1,26.71 0,0 0.4,-15.41 1.9,-21.81 1,-4.6 3,-10.89 5.7,-14.92 2.4,-3.37 10.2,-9.18 10.2,-9.18 0,0 -7.6,6.24 -10.2,9.59 -2.9,3.74 -3.9,11.03 -7.6,13.85 -4.4,3.43 -12.8,6.1 -18,4.37 -2.2,-0.77 -4,-3.83 -4.8,-5.94 -1.2,-2.96 -2,-7.59 -0.6,-10.38 0.9,-1.82 5.6,-3.86 5.6,-3.86 0,0 0.1,5.22 0.8,7.07 0.7,1.53 3,1.79 4.6,1.41 1.5,-0.33 2.6,-4.07 3.4,-5.39 3.6,-6.67 2.2,-16.52 6.7,-21.38 1.5,-1.65 6.1,-5.88 9.1,-6.57 1.9,-0.46 8.9,-1.03 8.9,-1.03 0,0 -3.1,-4.03 -3.7,-6.08 -1.2,-4.44 -0.6,-10.82 0.2,-15.37 0.5,-3.28 3.6,-10.4 3.6,-10.4 0,0 9.5,3.71 13.4,5.77 2.2,1.19 7,4.58 7,4.58 z"
       id="path5193-8"
       style="fill:#ffff00;fill-opacity:1;fill-rule:evenodd;stroke:#000000;stroke-width:3;stroke-linecap:butt;stroke-linejoin:miter;stroke-miterlimit:4;stroke-opacity:1;stroke-dasharray:none" />
    <path
       d="m 231.8,55.79 c 0.3038,4.089 -5.037,7.795 -11.92,8.306 -6.881,0.5113 -12.71,-2.365 -13.01,-6.454 -0.3038,-4.089 5.037,-7.795 11.92,-8.306 6.881,-0.5113 12.71,2.365 13.01,6.454 z"
       id="path3163-4"
       style="fill:#ffffff;fill-opacity:1;fill-rule:evenodd;stroke:#000000;stroke-width:2.5;stroke-linecap:butt;stroke-linejoin:miter;stroke-miterlimit:4;stroke-opacity:1;stroke-dashoffset:0;marker:none;visibility:visible;display:inline;overflow:visible;enable-background:accumulate" />
    <path
       d="m 215.9,52.7 c -1.463,4.15 0.7352,8.742 4.885,10.2 4.15,1.463 8.742,-0.7352 10.2,-4.885 1.463,-4.15 -0.7352,-8.742 -4.885,-10.2 -4.15,-1.463 -8.742,0.7352 -10.2,4.885 z"
       id="path3179-5"
       style="fill:#ffffff;fill-opacity:1;fill-rule:evenodd;stroke:#000000;stroke-width:2.5;stroke-linecap:butt;stroke-linejoin:miter;stroke-miterlimit:4;stroke-opacity:1;stroke-dashoffset:0;marker:none;visibility:visible;display:inline;overflow:visible;enable-background:accumulate" />
    <path
       d="m 225.1,48.59 c 0.6,0.2 1,0.46 1.6,0.72 0.9,0.44 1.8,0.96 1.8,0.96 l -1.9,2.94 c 0,0 -0.7,-0.4 -1.4,-0.77 -0.9,-0.39 -2,-0.57 -1.8,-0.63 0.1,0 -0.9,0.51 -0.9,0.68 -0.4,0.48 -1,2.53 -0.9,3.17 0,0.23 0.5,1.17 0.5,1.18 -0.1,-0.16 0.6,0.2 1.3,0.32 0.6,0.1 1.2,0.16 1.2,0.16 0,0 1.7,0.37 1.8,1.02 0,0.81 -1.8,2.11 -1.8,2.11 0,0 -0.8,-0.1 -1.6,-0.2 -0.9,-0.17 -1.7,-0.18 -2.8,-1 -1.2,-0.96 -1.8,-2.15 -1.9,-3.53 -0.2,-1.85 0.1,-3.79 1.3,-5.33 0.8,-1.09 1.9,-1.91 3.5,-2.05 0.8,-0.1 1.5,0.1 2,0.28 z"
       id="path3183-5"
       style="fill:#000000;fill-opacity:1;fill-rule:evenodd;stroke:none" />
    <path
       d="m 228.2,43.99 c 0,0 2.5,1.34 3.4,2.14 1.9,1.6 3.3,4.25 2.8,6.61 -0.2,1.25 -1.1,2.09 -2.2,2.61 -1.3,0.56 -2.7,-0.1 -4,-0.45 -1.9,-0.58 -3.7,-2.89 -5.6,-3.3 -2.8,-0.62 -6.7,-0.21 -9.3,0.85 -1.3,0.49 -2.2,2.44 -3.4,2.74 -1.2,0.28 -3.1,0.1 -3.9,-0.78 -0.8,-0.89 -0.8,-2.8 -0.7,-4.02 0.1,-0.57 0.4,-1.34 0.7,-1.84 0.5,-0.7 1.5,-1.41 2.3,-1.8 1,-0.49 3.5,-1.01 3.5,-1.01"
       id="path3167-1"
       style="fill:#ffff00;fill-opacity:1;fill-rule:evenodd;stroke:#000000;stroke-width:2.5;stroke-linecap:butt;stroke-linejoin:miter;stroke-miterlimit:4;stroke-opacity:1;stroke-dasharray:none" />
    <path
       d="m 270.2,77.68 c 0,0 -2.3,-7.69 -4.2,-9.33 -1.8,-1.6 -2.6,-1.74 -3.3,-1.16 -0.7,0.62 -1,1.83 0.1,3.93 1,2.08 7.4,6.56 7.4,6.56 z"
       id="path6013-7"
       style="fill:none;stroke:#000000;stroke-width:2.5;stroke-linecap:butt;stroke-linejoin:miter;stroke-miterlimit:4;stroke-opacity:1;stroke-dasharray:none" />
    <path
       d="m 179.5,38.83 c 0,0 -1.1,-5.03 -2.5,-6.68 -2.2,-2.56 -9.7,-5.57 -9.7,-5.57 0,0 -3.7,6.21 -2.6,8.67 0.6,1.21 3.5,0.63 4.1,1.82 0.8,1.6 -2.2,4.12 -1.4,5.71 0.5,1.05 3.6,1.54 3.6,1.54 0,0 1.5,-4.76 3.4,-5.68 1.3,-0.76 5.1,0.19 5.1,0.19 z"
       id="path6022-1"
       style="fill:#000000;fill-rule:evenodd;stroke:#000000;stroke-width:2.5;stroke-linecap:butt;stroke-linejoin:miter;stroke-miterlimit:4;stroke-opacity:1;stroke-dasharray:none" />
    <path
       d="m 185.6,43.73 c 0,0 1.5,12.25 3.7,16.95 1.2,2.5 3.5,5.58 5.7,7.23 4.2,3.14 16.2,8.35 16.2,8.35 l 0.6,1.28 c 0,0 -12.7,-8.52 -18,-6.32 -1.9,0.81 -3.2,4.28 -3,6.4 0.1,1.79 1.4,4.66 2.5,6.04 1.7,2.18 7.2,5.98 7.2,5.98"
       id="path6018-1"
       style="fill:none;stroke:#000000;stroke-width:2.5;stroke-linecap:butt;stroke-linejoin:miter;stroke-miterlimit:4;stroke-opacity:1;stroke-dasharray:none" />
    <path
       d="m 170.9,98.18 c 0,0 -3.6,7.62 -4,11.22 -0.6,5.6 0.2,11 1.2,16.5 0.3,2.3 1.8,7.4 1.8,7.4"
       id="path6020-5"
       style="fill:none;stroke:#000000;stroke-width:2.5;stroke-linecap:butt;stroke-linejoin:miter;stroke-miterlimit:4;stroke-opacity:1;stroke-dasharray:none" />
    <path
       d="m 172.4,163.5 c 0,0 10.3,7.8 13.9,12.7 1.7,2.3 2.6,6.2 2.9,9 0.4,4.4 -1,11.8 -1,11.8"
       id="path6041-2"
       style="fill:none;stroke:#000000;stroke-width:2.5;stroke-linecap:butt;stroke-linejoin:miter;stroke-miterlimit:4;stroke-opacity:1;stroke-dasharray:none" />
    <path
       d="m 167.4,182 c 0,0 -4.3,-8.7 -6.2,-11.9 -2.6,-4.4 -8.9,-8.5 -10.2,-13.4 -0.9,-3.1 1.5,-10.6 1.5,-10.6"
       id="path6043-7"
       style="fill:none;stroke:#000000;stroke-width:2.5;stroke-linecap:butt;stroke-linejoin:miter;stroke-miterlimit:4;stroke-opacity:1;stroke-dasharray:none" />
    <path
       d="m 243.8,161.9 c 0,0 -2.7,9.2 -2.4,13.3 0.1,2 0.8,5.7 1.9,8.5 2.3,5.7 5.6,10.6 5.6,10.6"
       id="path6037-6"
       style="fill:none;stroke:#000000;stroke-width:2.5;stroke-linecap:butt;stroke-linejoin:miter;stroke-miterlimit:4;stroke-opacity:1;stroke-dasharray:none" />
    <path
       d="m 212.9,203.5 c 0,0 0.9,-9.2 0.4,-13.3 -0.4,-2.6 -3,-8.5 -3,-8.5"
       id="path6197-1"
       style="fill:none;stroke:#000000;stroke-width:2.5;stroke-linecap:butt;stroke-linejoin:miter;stroke-miterlimit:4;stroke-opacity:1;stroke-dasharray:none" />
    <rect
       width="75.04216"
       height="64.924118"
       x="173.82288"
       y="-86.890541"
       transform="matrix(0.95451463,0.29816407,-0.29816407,0.95451463,0,0)"
       id="crowned"
       style="opacity:0.5;fill:none;stroke:none" />
  </g>
  <g
     id="langued">
    <path
       d="m 220.7,95.01 c 0,0 10.8,-2.22 15.5,-1.22 3.3,0.75 7.6,2.28 10.5,3.95 4.2,2.36 9,9.76 13.3,11.86 2.1,1.1 3.8,2 5.7,1.2 3.6,-1.4 3.2,-6.9 6,-9.3 1.3,-1.2 3.9,-1.99 5.9,-2.19 2.4,-0.24 5.9,0.1 8.1,1.19 1.4,0.6 3.7,3.4 3.7,3.4 0,0 -4.5,0.5 -5.9,1.5 -3.2,2.3 -3.5,8.2 -6.4,10.6 -1.2,0.9 -3.4,1.5 -4.9,2 -1.5,0.4 -3.7,1 -5.4,0.8 -3.7,-0.4 -8.7,-2.3 -11.9,-4.2 -3.9,-2.3 -7,-8.7 -10.9,-11.1 -3.1,-1.7 -8.1,-2.2 -11.4,-2.8 -2.6,-0.5 -8.6,-0.2 -8.6,-0.2 l -3.3,-5.49 z"
       id="path6066-4"
       style="fill:#ff0000;fill-opacity:1;fill-rule:evenodd;stroke:#000000;stroke-width:2.5;stroke-linecap:butt;stroke-linejoin:miter;stroke-miterlimit:4;stroke-opacity:1;stroke-dasharray:none" />
    <path
       d="m 258.1,88.31 c 0,-1.54 -0.5,-1.22 -1.6,-2.17 -1.3,-0.98 -1.2,-1.24 -2.6,-0.64 -1.3,0.5 -1.5,0.1 -2,1.35 -1.6,3.23 -2.4,6.75 -2.2,10.36 0.1,1.5 0.9,3.79 0.9,3.79 0,0 1.6,-0.9 2.6,-2.38 2.3,-2.98 4.8,-6.55 4.9,-10.31 z"
       id="path6139-0"
       style="fill:#ffffff;fill-rule:evenodd;stroke:#000000;stroke-width:2.5;stroke-linecap:butt;stroke-linejoin:miter;stroke-miterlimit:4;stroke-opacity:1;stroke-dasharray:none" />
    <path
       d="m 247.2,107.6 c -0.5,1.4 -0.9,1 -2.3,1.4 -1.5,0.5 -1.4,0.8 -2.6,-0.2 -1,-1 -1.3,-0.7 -1.5,-2 -0.4,-3.6 0.1,-1.2 1.5,-4.5 0.6,-1.4 2.3,-3.21 2.3,-3.21 0,0 1.1,1.41 1.6,3.11 1.1,3.6 2.2,1.8 1,5.4 z"
       id="path6141-9"
       style="fill:#ffffff;fill-rule:evenodd;stroke:#000000;stroke-width:2.5;stroke-linecap:butt;stroke-linejoin:miter;stroke-miterlimit:4;stroke-opacity:1;stroke-dasharray:none" />
  </g>
  <g
     id="armed">
    <path
       d="m 103.7,267.9 c -1.5,-1.2 -2.1,-4.1 -3.4,-5.6 -1.99,-2.1 -8.03,-5.5 -8.03,-5.5 0,0 5.17,-0.7 7.25,-0.4 2.68,0.4 6.38,1.4 8.28,3.3 1.4,1.4 2.8,4.2 2.6,6.3 -0.1,1.3 -1.1,3.2 -2.4,3.7 -1.3,0.4 -3.2,-0.9 -4.3,-1.8 z"
       id="path8162"
       style="fill:#00ff00;fill-rule:evenodd;stroke:#000000;stroke-width:2.4999001;stroke-linecap:butt;stroke-linejoin:miter;stroke-miterlimit:4;stroke-opacity:1;stroke-dasharray:none" />
    <path
       d="m 88.46,271.9 c 1.07,1 2.07,2.8 2.46,4.3 0.41,1.5 0.92,3.8 0.1,5.2 -0.53,0.8 -2.02,1.3 -3.01,1.4 -0.7,0.2 -1.67,-0.1 -2.3,-0.4 -1.34,-0.6 -2.46,-2.5 -3.89,-2.9 -1.24,-0.4 -3.12,0 -4.35,0.5 -1.73,0.7 -2.66,0.9 -3.89,2.3 -0.94,1.2 -2.85,5.4 -2.85,5.4 0,0 -1.8,-5 -1.61,-7.1 0.28,-3 1.49,-5.9 3.8,-7.9 1.47,-1.3 4.11,-2.1 6.01,-2.4 2.35,-0.4 5.55,0 7.78,0.6 0.58,0.2 1.32,0.6 1.75,1 z"
       id="path8164"
       style="fill:#00ff00;fill-opacity:1;fill-rule:evenodd;stroke:#000000;stroke-width:2.4999001;stroke-linecap:butt;stroke-linejoin:miter;stroke-miterlimit:4;stroke-opacity:1;stroke-dasharray:none" />
    <path
       d="m 98.4,303 c 0.91,-0.1 2.1,0.4 2.8,1.1 1.5,1.4 3,4.4 2.6,6.5 -0.3,1.6 -2.5,2.9 -3.9,3.7 -1.98,1.3 -5.14,2.4 -7.56,2.7 -2.22,0.3 -7.35,-0.9 -7.35,-0.9 0,0 4.44,-2.7 5.83,-4.4 1.39,-1.6 1.75,-4.6 3.14,-6.1 1.06,-1.2 2.93,-2.5 4.44,-2.6 z"
       id="path8166"
       style="fill:#00ff00;fill-opacity:1;fill-rule:evenodd;stroke:#000000;stroke-width:2.4999001;stroke-linecap:butt;stroke-linejoin:miter;stroke-miterlimit:4;stroke-opacity:1;stroke-dasharray:none" />
    <path
       d="m 126.6,316.1 c 2,-0.2 4.3,2 5.6,3.6 1,1.2 1.2,2.5 1,4.1 -0.1,2.2 -1.7,5 -3.5,6.3 -1.1,0.9 -3,1.4 -4.3,1.4 -1.6,0 -3,0.3 -4.5,-0.3 -1.6,-0.9 -4.7,-4 -4.7,-4 0,0 4,0 5.5,-0.9 1.5,-0.9 3.1,-2.9 3.6,-4.7 0.3,-0.9 -0.6,-2.3 -0.4,-3.2 0.2,-0.8 0.9,-2.1 1.7,-2.3 z"
       id="path8168"
       style="fill:#00ff00;fill-opacity:1;fill-rule:evenodd;stroke:#000000;stroke-width:2.4999001;stroke-linecap:butt;stroke-linejoin:miter;stroke-miterlimit:4;stroke-opacity:1;stroke-dasharray:none" />
    <path
       d="m 92.93,27.43 c 0.25,1.56 1.31,3.58 2.59,4.45 0.94,0.71 2.67,1.31 3.84,0.88 1.44,-0.45 2.94,-1.17 3.34,-2.64 1.3,-4.06 1.5,-9.21 -0.2,-13.09 -1.4,-2.95 -4.63,-6.5 -7.64,-7.713 -1.38,-0.566 -2.67,-1.045 -4.1,-0.574 -1.42,0.471 -4.77,2.307 -4.77,2.307 0,0 3.38,0.87 4.53,1.76 1.28,1.02 2.61,2.87 3.24,4.37 0.77,1.89 0,3.47 0,5.49 0,1.44 -1.07,3.33 -0.82,4.76 z"
       id="path3291"
       style="fill:#00ff00;fill-rule:evenodd;stroke:#000000;stroke-width:2.5;stroke-linecap:butt;stroke-linejoin:miter;stroke-miterlimit:4;stroke-opacity:1;stroke-dasharray:none" />
    <path
       d="m 54.92,15.77 c 0,0 0.32,-5.35 2.41,-7.373 2.09,-2.024 6.02,-3.736 8.97,-3.919 2.06,-0.18 4.82,0.682 6.45,1.864 3.12,2.251 5.84,5.618 6.78,9.398 0.4,1.56 0.86,3.45 0.15,4.96 -0.71,1.64 -2.54,2.69 -4.41,2.9 -1.33,0.15 -3.25,-1.56 -4.25,-2.45 -2.54,-2.27 -2.57,-7.12 -5.53,-8.82 -0.91,-0.54 -2.42,-0.68 -3.51,-0.59 -0.9,0 -2.07,0.57 -3.04,0.91 -1.36,0.39 -4.02,3.12 -4.02,3.12 z"
       id="path3293"
       style="fill:#00ff00;fill-opacity:1;fill-rule:evenodd;stroke:#000000;stroke-width:2.5;stroke-linecap:butt;stroke-linejoin:miter;stroke-miterlimit:4;stroke-opacity:1;stroke-dasharray:none" />
    <path
       d="m 59,53.17 c 0.92,-0.25 2.44,-0.37 3,-1.21 0.78,-1.18 0.52,-3.42 -0.12,-4.66 -0.93,-1.76 -1.9,-3.17 -3.82,-3.67 -1.08,-0.3 -5.7,1.07 -6.7,1.52 -2.55,1.21 -4.02,2.58 -5.16,5.18 -0.99,2.33 -1.13,6.1 -0.15,8.44 0.8,1.79 3.08,3.55 4.79,4.55 1.09,0.56 3.88,1.18 3.88,1.18 0,0 -2.23,-4.81 -1.93,-6.95 0.2,-1.3 1.16,-2.98 2.19,-3.68 1.01,-0.7 2.8,-0.31 4.02,-0.7 z"
       id="path3295"
       style="fill:#00ff00;fill-opacity:1;fill-rule:evenodd;stroke:#000000;stroke-width:2.5;stroke-linecap:butt;stroke-linejoin:miter;stroke-miterlimit:4;stroke-opacity:1;stroke-dasharray:none" />
    <path
       d="m 63.71,77.75 c 1.21,-1.07 3.95,0 5.11,1.07 1.3,1.02 2.24,3.47 2.02,5.15 -0.22,1.82 -2.11,3.88 -3.58,4.98 -2.04,1.54 -5.54,3.1 -8.14,2.92 -2.76,-0.18 -6.35,-2.18 -8.2,-4.23 -1.94,-2.27 -3.26,-6.39 -3.39,-9.33 0,-1.34 1.17,-4.17 1.17,-4.17 0,0 1.63,4.13 2.99,5.35 1.97,1.62 5.53,2.65 8.09,2.65 1.35,0 3.25,-3.8 3.92,-4.4 z"
       id="path3297"
       style="fill:#00ff00;fill-opacity:1;fill-rule:evenodd;stroke:#000000;stroke-width:2.5;stroke-linecap:butt;stroke-linejoin:miter;stroke-miterlimit:4;stroke-opacity:1;stroke-dasharray:none" />
    <path
       d="m 47.69,170.8 c 0.21,-2.9 -0.97,-5.9 -3.09,-7.9 -1.74,-1.6 -5.31,-2.3 -7.8,-2.6 -2.49,-0.3 -6.19,-0.4 -8.44,0.9 -1.23,0.6 -1.86,1.4 -2.21,2.7 -0.35,1.2 -0.56,3.9 -0.56,3.9 0,0 2.16,-1.6 3.27,-1.7 1.6,-0.1 3.76,1.1 5.23,1.9 1.47,0.8 2.99,2.7 4.35,3.6 0.98,0.7 2.34,1.8 3.53,2 1.29,0.3 3.19,0.3 4.32,-0.3 0.72,-0.5 1.36,-1.7 1.4,-2.5 z"
       id="path3474"
       style="fill:#00ff00;fill-rule:evenodd;stroke:#000000;stroke-width:2.5;stroke-linecap:butt;stroke-linejoin:miter;stroke-miterlimit:4;stroke-opacity:1;stroke-dasharray:none" />
    <path
       d="m 34.15,181.4 c -0.46,1.5 -2.13,3.2 -3.55,3.8 -1.32,0.4 -3.31,0.1 -4.59,-0.5 -1.57,-0.7 -2.67,-3.4 -4.24,-4 -1.97,-0.8 -4.98,-0.6 -7.11,0 -1.31,0.3 -3.05,1.2 -3.99,2.1 -1.248,1.3 -2.908,5.2 -2.908,5.2 0,0 -0.996,-7.5 0.319,-10.4 0.991,-2.2 3.879,-4.4 6.129,-5.6 2.04,-1 5.07,-1.5 7.27,-1.5 2.09,0.1 4.98,0.6 6.84,1.6 1.76,1 3.79,2.9 4.72,4.6 0.75,1.3 1.47,3.3 1.11,4.7 z"
       id="path3476"
       style="fill:#00ff00;fill-rule:evenodd;stroke:#000000;stroke-width:2.5;stroke-linecap:butt;stroke-linejoin:miter;stroke-miterlimit:4;stroke-opacity:1;stroke-dasharray:none" />
    <path
       d="m 44.35,211.6 c 1.36,-1.5 1.25,-3.7 0.22,-5.5 -1.12,-2 -3.72,-4.5 -6.02,-4.8 -1.59,-0.1 -3.18,2.1 -4.52,3 -1.75,1.1 -4.1,2.5 -5.56,3.9 -1.46,1.4 -3.24,3.6 -4.12,5.4 -0.55,1.2 -1.22,2.9 -0.96,4.1 0.33,1.7 3.5,4.8 3.5,4.8 0,0 -0.63,-4.1 0.13,-5.6 0.75,-1.3 2.7,-2.4 4.02,-2.9 2.34,-0.9 5.64,-1 8.15,-1.1 1.9,0 3.99,0.3 5.16,-1.3 z"
       id="path3478"
       style="fill:#00ff00;fill-rule:evenodd;stroke:#000000;stroke-width:2.5;stroke-linecap:butt;stroke-linejoin:miter;stroke-miterlimit:4;stroke-opacity:1;stroke-dasharray:none" />
    <path
       d="m 72.32,222.9 c 0.71,2.3 1.31,4.6 0.62,6.9 -0.8,2.5 -3.71,5.1 -6.15,6 -1.52,0.7 -3.24,1 -4.83,0.8 -1.69,-0.4 -5.43,-2 -5.43,-2 0,0 2.87,-1.5 3.9,-2.3 1.24,-1 3.1,-2.4 3.66,-3.9 0.68,-1.9 -1.2,-5 -0.32,-6.9 0.54,-1.2 2.09,-2.4 3.4,-2.6 1.31,-0.1 3.17,1 4.13,1.9 0.48,0.4 0.84,1.4 1.02,2.1 z"
       id="path3480"
       style="fill:#00ff00;fill-rule:evenodd;stroke:#000000;stroke-width:2.5;stroke-linecap:butt;stroke-linejoin:miter;stroke-miterlimit:4;stroke-opacity:1;stroke-dasharray:none" />
    <path
       d="m 237.7,353.6 c -0.1,-2 -2.5,-4.2 -4.1,-5.3 -2,-1.4 -3,-1.8 -5.3,-2.2 -2.1,-0.3 -5,-0.7 -6.9,0.1 -2,0.9 -5,5.4 -5,5.4 0,0 6.5,-1.1 9.2,-0.4 2.9,0.7 3.7,3.5 6.5,4.5 1.1,0.4 2.6,1.2 3.6,0.8 1,-0.4 2,-1.9 2,-2.9 z"
       id="path8213"
       style="fill:#00ff00;fill-rule:evenodd;stroke:#000000;stroke-width:2.5;stroke-linecap:butt;stroke-linejoin:miter;stroke-miterlimit:4;stroke-opacity:1;stroke-dasharray:none" />
    <path
       d="m 225.6,362.6 c 1.5,1.5 2.5,1.8 2.5,3.8 0,1.8 -1.1,4.5 -2.7,5.3 -0.9,0.5 -2.5,-0.2 -3.5,-0.5 -1.8,-0.4 -3.9,-1.9 -5.7,-2 -1.5,-0.1 -3.6,0.4 -4.9,1.2 -1,0.6 -2.1,1.9 -2.8,3 -0.6,1.1 -0.3,2.4 -0.6,3.6 -0.1,0.4 -2.3,-2.1 -2.9,-3.6 -0.5,-1.6 -0.7,-4 -0.3,-5.6 0.6,-2.3 2.5,-3.5 4.3,-5.1 1.6,-1.5 4.1,-1.4 6.3,-1.9 2.2,-0.5 5.4,-0.3 7.7,0.4 0.8,0.2 2,0.8 2.6,1.4 z"
       id="path8215"
       style="fill:#00ff00;fill-rule:evenodd;stroke:#000000;stroke-width:2.5;stroke-linecap:butt;stroke-linejoin:miter;stroke-miterlimit:4;stroke-opacity:1;stroke-dasharray:none" />
    <path
       d="m 235.4,391.8 c 0,0 3.7,1 5,1.9 0.7,0.6 1.1,1 1.3,1.8 0.5,1.8 0.1,4.8 -1.2,6.2 -1.6,1.9 -5.5,2.2 -7.9,2.9 -1.7,0.4 -5.2,1.7 -5.2,1.7 0,0 3.5,-10 4.7,-11.6 1.4,-1.9 3.1,-2.8 3.3,-2.9 z"
       id="path8217"
       style="fill:#00ff00;fill-rule:evenodd;stroke:#000000;stroke-width:2.5;stroke-linecap:butt;stroke-linejoin:miter;stroke-miterlimit:4;stroke-opacity:1;stroke-dasharray:none" />
    <path
       d="m 269.9,399.6 c 1.2,0.6 2.6,1.9 3.1,3.2 0.6,1.5 0.8,3.9 0.2,5.4 -0.9,2.1 -3.7,4 -5.7,5 -2.7,1.4 -9.8,2.2 -9.8,2.2 0,0 3.3,-3.4 4.5,-5.1 0.7,-1 1.8,-2.5 1.9,-3.7 0.2,-1.5 -1.8,-3.4 -1.4,-4.9 0.2,-1 1.3,-2.1 2.2,-2.4 1.4,-0.6 3.6,-0.3 5,0.3 z"
       id="path8219"
       style="fill:#00ff00;fill-rule:evenodd;stroke:#000000;stroke-width:2.5;stroke-linecap:butt;stroke-linejoin:miter;stroke-miterlimit:4;stroke-opacity:1;stroke-dasharray:none" />
  </g>
</svg>
