<?xml version="1.0" encoding="UTF-8" standalone="no"?>
<!-- Created with Inkscape (http://www.inkscape.org/) -->

<svg
   xmlns:dc="http://purl.org/dc/elements/1.1/"
   xmlns:cc="http://creativecommons.org/ns#"
   xmlns:rdf="http://www.w3.org/1999/02/22-rdf-syntax-ns#"
   xmlns:svg="http://www.w3.org/2000/svg"
   xmlns="http://www.w3.org/2000/svg"
   version="1.0"
   width="420"
   height="350"
   id="svg2">
  <defs
     id="defs4" />
  <metadata
     id="metadata7">
    <rdf:RDF>
      <cc:Work
         rdf:about="">
        <dc:format>image/svg+xml</dc:format>
        <dc:type
           rdf:resource="http://purl.org/dc/dcmitype/StillImage" />
        <dc:title></dc:title>
        <dc:creator>
          <cc:Agent>
            <dc:title>http://commons.wikimedia.org/wiki/User:Sodacan</dc:title>
          </cc:Agent>
        </dc:creator>
      </cc:Work>
    </rdf:RDF>
  </metadata>
  <g
     id="layer1" />
  <g
     id="body">
    <path
       d="m 24.3,274.6 c 0.7,-1.1 2.2,-2.2 3.4,-2.7 1,-0.3 2.5,-0.3 3.5,0 2.7,0.8 5.1,4.1 7.7,5.1 4.3,1.7 14.9,2.5 14.9,2.5 l -11.3,13.3 -17.9,1.6 -3.3,-5.6 c 0,0 -0.5,-4.6 -0.1,-6.5 0.4,-2.4 1.5,-5.7 3.1,-7.7 z"
       id="path2785"
       style="fill:#ffff00;fill-opacity:1;fill-rule:evenodd;stroke:#000000;stroke-width:3;stroke-linecap:butt;stroke-linejoin:miter;stroke-miterlimit:4;stroke-opacity:1;stroke-dasharray:none" />
    <path
       d="m 24.4,274.7 0,0 z"
       id="path2787"
       style="fill:#f8c300;fill-opacity:1;fill-rule:evenodd;stroke:#000000;stroke-width:1px;stroke-linecap:butt;stroke-linejoin:miter;stroke-opacity:1" />
    <path
       d="M 118,144.7 48.5,269 l -8,19.7 -6.2,1.2 c 0,0 -7.8,-2.6 -11,-1.8 -2.2,0.5 -6.2,4.3 -6.2,4.3 l 6.8,15.4 c 0,0 3.2,2.3 4.9,2.4 1.7,0.1 5.5,-1.8 5.5,-1.8 l 2.5,-5.6 c 0,-1 12.2,-10.8 15.2,-11.7 0.7,-0.2 0.7,-2.2 0,-2.4 -0.8,-0.3 -1.8,2.2 -3.3,3.7 -2,1.8 -2.5,3.5 -3.4,4.2 -3.7,3 -3.4,3.5 -4.2,7.5 -0.3,1.7 1.8,5.5 1.8,5.5 l 19.7,2.5 c 0,0 6.2,-3.5 6.8,-6.2 0.7,-3.1 -3.6,-6.7 -4.3,-9.8 -0.5,-2.4 -2.4,-7.6 0,-8 2.2,-0.4 -1.1,4.4 -0.3,8 0.9,4.5 5.8,8 5.8,8 l 8,0.6 c 0,0 8.8,-7.3 10.5,-11.7 0.3,-0.7 0.4,-1.9 0,-2.5 C 87,287.8 78,287.4 78,287.4 c 0,0 -0.3,-1.4 0.2,-2.2 1.3,-1.8 6,-0.8 6,-0.8 l 1.8,-12.9 3.1,8 c 0,0 4.3,-5.9 5.3,-9.5 0.8,-2.6 0.9,-6.6 0,-9.2 -0.6,-1.8 -0.8,-3.7 -0.8,-3.7 0,0 4.3,3.7 5.7,6.8 0.9,1.8 0.2,7.8 0.2,7.8 0,0 2.7,-3.2 3.3,-4.8 1.4,-3.4 2.8,-8.4 2.3,-12.1 -0.4,-2.8 -2.5,-6.3 -4.3,-8.6 -2.1,-2.7 -2.9,-3.5 -2.9,-3.5 0,0 1.3,0.2 3.2,1.5 2.1,1.5 4.9,4.3 6.4,6.9 1.6,2.6 1.9,9.9 1.9,9.9 l 3.2,-6.3 1.1,-7.2 -2.5,-16 c 0,0 9.1,-11.5 14.8,-13 6.6,-1.6 15.4,5.2 22.2,5 6.5,-0.3 0.7,-84.1 0.7,-84.1 l -20.4,-5.2 -10.5,10.5 z"
       id="path2791"
       style="fill:#ffff00;fill-opacity:1;fill-rule:evenodd;stroke:#000000;stroke-width:3;stroke-linecap:butt;stroke-linejoin:miter;stroke-miterlimit:4;stroke-opacity:1;stroke-dasharray:none" />
    <path
       d="m 56.6,307.9 c -0.3,-2 -1.9,-3.5 -3.9,-4 -2.2,-0.6 -5.8,-0.6 -7.6,0.9 -1.2,1 -0.8,3.7 -1.1,5.3 -0.3,2 -1,4.6 -1.1,6.7 0,2 0.2,4.8 0.9,6.8 0.5,1.1 1.2,2.8 2.3,3.5 1.5,1 5.8,0.9 5.8,0.9 0,0 -3.3,-2.5 -3.8,-4.1 -0.5,-1.4 0.1,-3.5 0.7,-4.9 1,-2.3 3.3,-4.7 5,-6.5 1.3,-1.4 3,-2.6 2.8,-4.6 z"
       id="path2857"
       style="fill:#ffffff;fill-rule:evenodd;stroke:#000000;stroke-width:2.5;stroke-linecap:butt;stroke-linejoin:miter;stroke-miterlimit:4;stroke-opacity:1;stroke-dasharray:none" />
    <path
       d="m 84.2,295.9 c 2.1,1.1 4.2,2.3 5.3,4.5 1.2,2.3 1.1,6.2 0,8.6 -0.6,1.5 -1.6,3 -2.9,3.9 -1.4,1 -5.2,2.6 -5.2,2.6 0,0 1,-3.1 1.1,-4.5 0.2,-1.5 0.5,-3.8 -0.2,-5.3 -0.8,-1.9 -4.4,-2.7 -5.1,-4.6 -0.5,-1.2 -0.2,-3.2 0.5,-4.2 0.9,-1.1 2.9,-1.7 4.3,-1.7 0.7,0 1.6,0.4 2.2,0.7 z"
       id="path2859"
       style="fill:#ffffff;fill-rule:evenodd;stroke:#000000;stroke-width:2.5;stroke-linecap:butt;stroke-linejoin:miter;stroke-miterlimit:4;stroke-opacity:1;stroke-dasharray:none" />
    <path
       d="m 229.4,283.7 c 0,0 -14.1,2.2 -17.4,-1.2 -1,-1 -0.2,-2.6 -0.8,-4 -0.7,-1.6 -1.8,-2.9 -3.5,-3.1 -2.8,-0.3 -5.4,3.2 -6.8,5.6 -1.9,3.1 -2.1,11.3 -2.1,11.3 l 5.6,7.3 17,-1.2 8,-14.7 z"
       id="path8117"
       style="fill:#ffff00;fill-opacity:1;fill-rule:evenodd;stroke:#000000;stroke-width:3;stroke-linecap:butt;stroke-linejoin:miter;stroke-miterlimit:4;stroke-opacity:1;stroke-dasharray:none" />
    <path
       d="m 338.4,206.4 c 0,0 -30.7,22.7 -41.7,34.7 -2.7,2.9 -6.5,6.8 -7.5,10.6 -0.8,3.3 -0.1,8.1 1.1,11.3 1.2,3.5 3.5,9.1 7.1,10.3 3.2,1.2 10.9,-3.5 10.9,-3.5 0,0 -3.9,7.7 -6.9,9.5 -2.3,1.3 -6.1,1.5 -8.6,1 -2,-0.3 -5.8,-3 -5.8,-3 0,0 0.1,4.6 -1,6.3 -1.5,2.4 -6.4,5.8 -6.4,5.8 0,0 0.2,-3.4 0.1,-4.8 0,-2.4 -0.6,-5.1 -1.9,-7.2 -0.8,-1.2 -4.2,-2.3 -4.2,-2.3 0,0 1.5,2.5 1.9,3.7 0.7,2.6 1.3,6.2 0.9,8.9 -0.2,1.4 -2,3.1 -1.8,4.6 0.2,2 0,3.2 1.8,4.2 1.3,0.8 3,1.7 4.4,1.1 0.9,-0.5 3.1,-1.3 3.4,-2.3 0.2,-0.8 1,-2.5 1,-2.5 0,0 1.4,2.8 1.2,5.4 -0.1,1.4 -1.3,2.8 -1.8,3.6 -0.3,0.5 -1.1,2.4 -3.4,3 -2.1,0.6 -4.8,0.3 -5.3,0.2 0,0 -4.3,-0.3 -5.9,-1.1 -2.5,-1.3 -5,-4.3 -6.5,-6.7 -0.7,-1.3 -0.6,-3.6 -1.5,-4.9 -0.7,-1.1 -2.6,-1.7 -3.2,-2.8 -0.7,-1.2 -0.7,-1.1 -0.7,-1.1 0,0 1.2,0.2 1.8,2.5 0.7,2.5 2.1,9.3 2.1,9.3 l -6.2,-1 -4.1,-3.3 c 0,0 -1.4,-1.1 -1.3,-1.7 0.1,-0.7 1.6,-0.8 1.9,-1.4 0.6,-1.7 -1.9,-3.8 -1.9,-3.8 0,0 2.3,2.2 1.7,3.9 -0.2,0.6 -1.7,0.7 -1.7,1.3 -0.1,2.3 2.6,3.2 5.7,5.2 2.2,1.5 4.9,2.4 5.5,4 0.5,1.5 -1.4,5.1 -1.4,5.1 l -11.2,5.6 c 0,0 -4.8,0.2 -6.5,-0.9 -2.6,-1.8 -7.2,-8.8 -7.2,-8.8 l -0.6,0.4 0,7 c 0,0 5.3,4.9 4.6,7.4 -0.5,1.8 -5.6,2.8 -5.6,2.8 l -14.4,0.9 c 0,0 -3.2,-2.2 -3.7,-3.7 -0.8,-2.2 1,-7.9 1,-7.9 l -5.6,1.9 c 0,0 -2.1,7 -4.7,8.3 -1.2,0.7 -3.3,0 -4.6,-0.4 -2.5,-1 -7.4,-5.1 -7.4,-5.1 l -4.2,-17.7 c 0,0 2.3,-3 3.7,-3.2 3.1,-0.6 9.8,3.7 9.8,3.7 0,0 10.4,-3.1 13.9,-6 3.7,-3.1 5.7,-9.8 8.8,-13.5 2.1,-2.5 5.1,-5.7 7.9,-7.4 1,-0.6 2.5,-1.3 3.7,-1.4 2.5,-0.3 5.9,0.3 8.3,0.9 2.4,0.6 5.1,2.9 7.5,3.3 1.2,0.2 4.1,-0.5 4.1,-0.5 0,0 -8.4,-1.7 -12,-2.8 -4.4,-1.3 -9.9,-4.5 -14.4,-5.1 -1.4,-0.2 -3.3,1 -4.6,0.5 -2.5,-1 -5.1,-4 -6.1,-6.5 -0.1,-0.4 0.3,-1.1 0,-1.4 -1.1,-1.1 -3.6,0.4 -5.1,0 -3.3,-1 -7.4,-3.5 -9.7,-6 -2.1,-2.2 -4.7,-5.9 -4.7,-8.9 0.1,-2.3 2.1,-5.2 3.8,-6.9 2.3,-2.4 9.7,-5.6 9.7,-5.6 0,0 -3.3,4.6 -3.7,7 -0.3,1.6 -0.1,4.2 0.9,5.5 0.6,0.8 1.9,1.2 2.8,1.4 3.9,1 13.5,0.5 13.5,0.5 0,0 4.1,-7.7 6.5,-10.7 2.9,-3.7 7.3,-8.3 11.1,-11.1 2,-1.6 5.1,-3.1 7.4,-4.2 2.8,-1.2 7.4,-1.2 9.8,-3.2 1.4,-1.3 2.1,-3.9 2.7,-5.6 0.8,-1.9 1.9,-4.5 1.9,-6.5 -0.1,-4.1 -4.2,-13 -4.2,-13 0,0 -105.6,47.1 -153.6,45.7 -8.9,-0.3 35.9,-84.9 35.9,-84.9 l 90.9,12 54.7,2 37.1,15.5 10,24.5 z"
       id="path8042"
       style="fill:#ffff00;fill-opacity:1;fill-rule:evenodd;stroke:#000000;stroke-width:3;stroke-linecap:butt;stroke-linejoin:miter;stroke-miterlimit:4;stroke-opacity:1;stroke-dasharray:none" />
    <path
       d="m 220.4,258.1 c 0,0 3.6,-1.1 4.9,-1.8 1.3,-0.7 3.7,-3 3.7,-3"
       id="path8120"
       style="fill:none;stroke:#000000;stroke-width:2.5;stroke-linecap:butt;stroke-linejoin:miter;stroke-miterlimit:4;stroke-opacity:1;stroke-dasharray:none" />
    <path
       d="m 237.1,253.9 c 0,0 -3.3,0.8 -4.4,1.7 -1.2,1 -2.4,3 -2.5,4.6 -0.2,1.7 1.8,5.3 1.8,5.3"
       id="path8122"
       style="fill:none;stroke:#000000;stroke-width:2.5;stroke-linecap:butt;stroke-linejoin:miter;stroke-miterlimit:4;stroke-opacity:1;stroke-dasharray:none" />
    <path
       d="m 240.6,256 c 0,0 -3,1.7 -3.5,3.1 -0.6,1.9 0.4,4.8 1.2,6.7 0.4,1 2.1,3 2.1,3"
       id="path8124"
       style="fill:none;stroke:#000000;stroke-width:2.5;stroke-linecap:butt;stroke-linejoin:miter;stroke-miterlimit:4;stroke-opacity:1;stroke-dasharray:none" />
    <path
       d="m 247.1,257.2 c 0,0 -2.8,2.6 -3.2,4.2 -0.4,1.4 -0.1,3.5 0.4,4.8 0.7,1.8 4,5.1 4,5.1"
       id="path8126"
       style="fill:none;stroke:#000000;stroke-width:2.5;stroke-linecap:butt;stroke-linejoin:miter;stroke-miterlimit:4;stroke-opacity:1;stroke-dasharray:none" />
    <path
       d="m 234.4,304.7 c 0,0 0.4,-3.9 0.7,-5.3 0.3,-1.9 4.4,-4.6 4.4,-4.6"
       id="path8128"
       style="fill:none;stroke:#000000;stroke-width:2.5;stroke-linecap:butt;stroke-linejoin:miter;stroke-miterlimit:4;stroke-opacity:1;stroke-dasharray:none" />
    <path
       d="m 217.4,309.8 c 0,0 -0.1,-2.7 0.5,-3.7 0.8,-1.3 4.2,-3 4.2,-3"
       id="path8130"
       style="fill:none;stroke:#000000;stroke-width:2.5;stroke-linecap:butt;stroke-linejoin:miter;stroke-miterlimit:4;stroke-opacity:1;stroke-dasharray:none" />
    <path
       d="m 268,197.5 c -4.1,1.6 -8.6,6.2 -11.5,9.6 -1.6,1.8 -4.3,6.9 -4.3,6.9 0,0 6.5,-0.7 9.2,-1.3 5.5,-1.1 12.3,-4.7 17.9,-5 4.9,-0.2 11.5,1.3 16.2,2.7 5.4,1.5 17.2,7.3 17.2,7.3 0,0 -11.1,-18.5 -19.2,-21.9 -7,-2.9 -18.3,-1.2 -25.5,1.7 z"
       id="path3303"
       style="fill:#ffff00;fill-opacity:1;fill-rule:evenodd;stroke:#000000;stroke-width:3;stroke-linecap:butt;stroke-linejoin:miter;stroke-miterlimit:4;stroke-opacity:1;stroke-dasharray:none" />
    <path
       d="m 59.51,284.2 c 0.79,-1 2.23,-2.2 3.47,-2.6 0.98,-0.3 2.47,-0.3 3.47,0 2.66,0.8 5.16,4.1 7.75,5.1 4.22,1.6 14.89,2.4 14.89,2.4 l -11.32,13.3 -17.95,1.6 -3.27,-5.6 c 0,0 -0.45,-4.5 -0.1,-6.4 0.45,-2.5 1.55,-5.8 3.06,-7.8 z"
       id="path7806"
       style="fill:#ffff00;fill-opacity:1;fill-rule:evenodd;stroke:#000000;stroke-width:3;stroke-linecap:butt;stroke-linejoin:miter;stroke-miterlimit:4;stroke-opacity:1;stroke-dasharray:none" />
    <path
       d="m 59.61,284.3 0,0 z"
       id="path7808"
       style="fill:#f8c300;fill-opacity:1;fill-rule:evenodd;stroke:#000000;stroke-width:1px;stroke-linecap:butt;stroke-linejoin:miter;stroke-opacity:1" />
    <path
       d="m 356.2,291.4 c 0,0 -9,1.1 -12.2,-0.7 -2.2,-1.1 -2.8,-5.5 -5.1,-6.6 -2.1,-1.2 -5.8,-1.3 -8.1,-0.3 -1.6,0.8 -3.9,4.6 -3.9,4.6 l 4.2,11.8 5.7,0.9 9.9,-0.1 9.5,-9.6 z"
       id="path7851"
       style="fill:#ffff00;fill-opacity:1;fill-rule:evenodd;stroke:#000000;stroke-width:3;stroke-linecap:butt;stroke-linejoin:miter;stroke-miterlimit:4;stroke-opacity:1;stroke-dasharray:none" />
    <path
       d="m 153.3,154.4 -69.56,124.2 -8,19.7 -6.15,1.3 c 0,0 -7.79,-2.6 -11.08,-1.9 -2.19,0.5 -6.15,4.3 -6.15,4.3 l 6.77,15.4 c 0,0 3.28,2.4 4.92,2.5 1.75,0.1 5.54,-1.9 5.54,-1.9 l 2.46,-5.5 c 0,-1 12.23,-10.9 15.17,-11.7 0.71,-0.2 0.69,-2.2 0,-2.5 -0.75,-0.3 -1.77,2.3 -3.28,3.7 -1.97,1.9 -2.45,3.5 -3.41,4.3 -3.69,3 -3.38,3.5 -4.17,7.4 -0.35,1.7 1.84,5.6 1.84,5.6 l 19.69,2.4 c 0,0 6.21,-3.5 6.81,-6.1 0.6,-3.2 -3.7,-6.7 -4.3,-9.9 -0.54,-2.3 -2.41,-7.6 0,-8 2.2,-0.4 -1.18,4.5 -0.4,8.1 1,4.4 5.9,7.9 5.9,7.9 l 8,0.6 c 0,0 8.8,-7.3 10.4,-11.7 0.3,-0.6 0.5,-1.8 0,-2.4 -2,-2.8 -11,-3.1 -11,-3.1 0,0 -0.4,-1.4 0.2,-2.3 1.2,-1.8 5.9,-0.8 5.9,-0.8 l 1.9,-12.9 3,8 c 0,0 4.3,-5.8 5.4,-9.4 0.8,-2.7 0.9,-6.6 0,-9.3 -0.6,-1.7 -0.8,-3.6 -0.8,-3.6 0,0 4.3,3.6 5.7,6.7 0.9,1.9 0.2,7.8 0.2,7.8 0,0 2.6,-3.1 3.3,-4.7 1.4,-3.4 2.8,-8.5 2.2,-12.1 -0.4,-2.9 -2.5,-6.3 -4.3,-8.6 -2.1,-2.7 -2.8,-3.5 -2.8,-3.5 0,0 1.3,0.1 3.2,1.5 2,1.4 4.8,4.2 6.4,6.9 1.6,2.6 1.9,9.8 1.9,9.8 l 3.2,-6.3 1.1,-7.2 -2.5,-16 c 0,0 9.1,-11.5 14.8,-12.9 6.6,-1.7 15.3,5.1 22.1,4.9 6.6,-0.2 14.8,-3.8 20.9,-6.1 9.8,-3.8 21.8,-11.3 31.4,-15.4 7.3,-3.1 16.9,-7.5 24.6,-9.3 8.5,-1.9 20.6,-4.9 28.9,-2.4 5.2,1.5 11.6,6.3 14.2,11.1 3.9,7.1 1.1,18.4 1.2,26.6 0,1.3 -2.4,3.1 -2.1,7.4 0.3,4.5 3.2,11.5 2,12.7 -2.1,2.2 -8.4,3.4 -8.4,3.4 0,0 3.1,2.6 6.7,3.1 3,0.5 6.6,-1.1 7.3,-1.8 1.9,-1.7 3.4,-5.2 3.8,-5.9 1.9,-3.8 0,-14.2 0,-14.2 0,0 0.2,15.7 4.3,20.3 1.8,2.1 5,2.1 6.5,4.4 1.6,2.5 3.2,5.3 1.2,7.5 -2.9,3.2 -8.2,5.9 -8.2,5.9 0,0 4.9,1.5 9.3,0.4 2.8,-0.7 5.3,-2.7 6.5,-5.2 2.9,-5.7 4.1,-14.7 3.1,-21 -0.6,-3.6 -5.5,-11 -5.5,-11 0,0 4.3,14 9.2,17.2 3.4,2.3 10.7,1.7 10.7,1.7 0,0 -3.5,6.7 -4.5,10.6 -1.6,6.1 1.8,20.9 1.8,20.9 0,0 -8,3.3 -11.7,3.7 -2.4,0.3 -5.8,-1.7 -8,-0.6 -1.5,0.8 -3.1,4.9 -3.1,4.9 l 8.7,15.4 c 0,0 4.8,2.1 6.7,1.2 3.2,-1.4 3.6,-7.1 6.1,-9.8 2.4,-2.8 8.7,-6.8 8.7,-6.8 l -4.3,14.8 3.1,4.3 14.1,0 c 0,0 4.4,-5.3 4.3,-8 -0.1,-3.7 -6.7,-10.5 -6.7,-10.5 0,0 3.6,0.4 5.4,1.4 2.3,1.3 4.4,5.4 4.4,5.4 l 6.8,0 8,-6.1 c 0,0 1.2,-5.2 0,-6.8 -2.1,-2.9 -11.4,-3.7 -11.4,-3.7 l 7.1,-8.6 -4.3,-7.4 c 0,0 9.7,5.7 14.1,4.9 2.8,-0.5 6.1,-3.6 7.4,-6.1 1.1,-2.2 0.6,-8 0.6,-8 0,0 -2,4.1 -3.7,4.9 -1.5,0.7 -4.4,1.2 -5.5,0 -2.2,-2.3 0.6,-10.5 0.6,-10.5 0,0 7.3,-1.7 9.8,-3.7 1.8,-1.3 4.3,-3.9 4.3,-6.1 0.1,-2.4 -4.3,-6.8 -4.3,-6.8 0,0 0.7,3.6 -0.6,5 -1.2,1.4 -4.4,3.1 -6.1,2.4 -3.4,-1.3 -6.8,-9.8 -6.8,-9.8 0,0 6.5,-3.3 7.8,-6.5 0.5,-1.3 0.4,-4.6 -0.9,-6.3 -1.9,-2.7 -3.4,-3.4 -3.4,-3.4 0,0 1.3,4.2 -0.4,5.7 -1.8,1.5 -5.1,2.6 -7.4,2.5 -4,-0.4 -9,-3.3 -11.7,-6.2 -3.2,-3.5 -4.5,-8.6 -6.4,-13 -0.5,-1.3 -1.3,-3.8 -1.3,-3.8 0,0 6.7,-0.4 9.3,-1.7 1.9,-1 4.7,-4.7 5.2,-6.7 0.6,-3.1 -1.1,-8.1 -3.8,-9.7 -2.1,-1.4 -6.4,-0.3 -6.4,-0.3 0,0 3,2.7 4,4.2 0.8,1.1 -1.1,3.9 -1.8,5 -0.5,0.9 -2.4,0.8 -3.4,0.6 -5.1,-1.1 -9.6,-6.1 -12.6,-10.3 -2.2,-2.9 -3.7,-11.7 -3.7,-11.7 0,0 9.8,-0.7 13.5,-2.4 6.1,-2.8 13.4,-8.7 17.2,-14.2 3.1,-4.3 5.3,-11.4 6.2,-16.6 1,-6 0.5,-14.3 -0.6,-20.3 -1,-5.4 -3.4,-12.5 -6.2,-17.2 -2.5,-4.3 -11,-12.33 -11,-12.33 0,0 -4.7,-2.9 -5.6,-4.93 -0.8,-1.85 -1.2,-5.14 0,-6.76 0.8,-1.08 3.3,-2.04 4.3,-1.23 1.1,0.77 3.1,7.38 3.1,7.38 0,0 2.9,-1.61 4.3,-4.31 1.2,-2.14 -0.3,-5.76 -1.2,-8 -0.7,-1.7 -2.1,-4.05 -3.7,-4.92 -2.9,-1.57 -8.2,-2 -11.5,-1.35 -4.2,0.83 -8.6,3.65 -11.4,6.89 -2,2.34 -3.9,6.76 -4.2,9.84 -0.1,1.67 0.3,5.91 0.3,5.91 0,0 -21,-2.02 -31.1,-1.6 -10,0.42 -24.4,3.88 -35,4.31 -4.5,0.18 -10.4,0.28 -14.8,-0.62 -6.6,-1.36 -15.6,-3.89 -20.9,-8 -2.5,-1.94 -5,-5.66 -6.2,-8.61 -1.5,-3.81 -1.9,-9.27 -0.1,-12.96 1.4,-2.92 4.4,-5.34 7.5,-6.11 3.3,-0.8 8.3,-1.22 11.1,0.61 1.4,0.91 2.8,3.3 2.5,4.92 -0.4,1.67 -2.7,3.26 -4.3,3.69 -1.9,0.48 -6.2,-1.23 -6.2,-1.23 0,0 -0.8,3.39 0.6,5.31 1.9,2.53 6.7,4.08 9.9,3.7 2.9,-0.36 7,-3 8.9,-5.23 2.8,-3.28 5.2,-10.58 5.2,-10.58 0,0 15.1,1.54 21.5,0.61 8.3,-1.19 16.9,-2.61 24.4,-6.46 4,-2.13 10.5,-5.66 13.1,-9.5 2.8,-4.27 4.1,-11.05 2.9,-16.07 -1,-4.47 -4.8,-7.89 -9.2,-9.13 -3.4,-0.95 -9.5,1.94 -9.5,1.94 0,0 5.5,0.51 7.3,1.84 2,1.41 4.2,3.38 4.9,5.7 0.3,1.06 -0.5,4.35 -1.1,5.3 -1.2,1.99 -3.6,3.23 -5.7,4.23 -3,1.46 -7.9,1.59 -11.2,1.62 -4.6,0 -11.7,-3.91 -16.1,-5 -3.2,-0.8 -12.1,0.11 -12.1,0.11 0,0 5.8,-7.86 5.8,-10.84 0.1,-3.74 -0.2,-8.87 -2.7,-11.69 -1.8,-2.06 -5.3,-3.85 -8,-4.31 -2.4,-0.41 -4.1,-0.49 -5.7,1.36 -0.9,1.12 -2.5,3.34 -2.3,4.79 0.4,2.13 1.4,3.36 1.4,3.36 0,0 1.3,-2.08 2.9,-3.36 0.9,-0.67 2.8,-0.64 3.7,0 1,0.69 2.7,3.81 2.5,4.96 -0.7,3.74 -6.9,7.96 -10.2,9.84 -5,2.87 -12.6,0 -18.2,1.56 -6,1.67 -14.2,4.16 -19.1,8 -4.6,3.69 -9.8,10.37 -11.7,16 -2,6.01 -2,14.99 -0.5,21.17 1.4,6.11 5.6,13.81 9.8,18.46 5,5.42 13.7,10.52 20.3,13.52 5.3,2.4 12.8,3.9 18.5,4.4 5.4,0.4 12.5,-0.8 17.8,-1.3 8,-0.8 26.5,-2.5 26.5,-2.5 0,0 -13.4,4.2 -17.8,8 -3.1,2.6 -6.9,7.1 -7.4,11.1 -0.4,2.9 0.9,7.2 3.1,9.2 1.9,1.9 8.6,2.5 8.6,2.5 0,0 -4.6,-4.4 -4.3,-6.8 0,-0.7 1.1,-1.6 1.8,-1.8 1.8,-0.6 4.3,1.4 6.2,1.2 5.1,-0.5 12.3,-3 16,-6.8 2.1,-2.2 3.6,-9.8 3.6,-9.8 0,0 -2.6,11.6 0,15.4 1.8,2.6 7.1,5.4 10.2,6 3.4,0.7 8.1,-0.5 11.4,-1.7 2.2,-0.9 5.3,-3.2 5.5,-5.5 0.2,-2.3 -4.3,-6.2 -4.3,-6.2 0,0 0.9,3.4 0,4.3 -1.2,1.2 -4,0.6 -5.5,0 -1.9,-0.7 -4.1,-2.5 -4.9,-4.3 -0.7,-1.5 -0.7,-4 0,-5.5 1,-2.3 3.8,-4.6 6.1,-5.6 4.3,-1.8 11,-2.7 15.4,-1.2 5.3,1.8 11.4,7.4 14.1,12.3 3.1,5.6 4.5,14.7 3.1,20.9 -1.1,4.8 -5.3,10.5 -9.2,13.6 -3.7,2.9 -14.8,5.5 -14.8,5.5 0,0 -20.3,-0.1 -25.5,-1.2 -14,-3 -23.3,-9 -37.5,-10.7 -5.5,-0.7 -14.6,-1.4 -20.1,-1.6 -9.4,-0.2 -24.1,0.8 -33.5,-0.1 -15.8,-1.6 -51.8,-5.2 -51.8,-5.2 l -20.5,-5.2 -10.4,10.5 z"
       id="path3268"
       style="fill:#ffff00;fill-opacity:1;fill-rule:evenodd;stroke:#000000;stroke-width:3;stroke-linecap:butt;stroke-linejoin:miter;stroke-miterlimit:4;stroke-opacity:1;stroke-dasharray:none" />
    <path
       d="m 246.6,53.71 c 0,0 7.5,-1.02 10.7,-0.95 3.6,0.1 7.5,0.88 10.7,2.52 2.5,1.24 6.5,4.74 7.2,7.36 0.3,1.01 -0.6,3.47 -0.6,3.47"
       id="path7898"
       style="fill:none;stroke:#000000;stroke-width:2.5;stroke-linecap:butt;stroke-linejoin:miter;stroke-miterlimit:4;stroke-opacity:1;stroke-dasharray:none" />
    <path
       d="m 279.4,53.71 c 0,0 8.7,4.96 12.6,6.56 3.4,1.36 15.1,3.2 15.1,3.2"
       id="path7900"
       style="fill:none;stroke:#000000;stroke-width:2.5;stroke-linecap:butt;stroke-linejoin:miter;stroke-miterlimit:4;stroke-opacity:1;stroke-dasharray:none" />
    <path
       d="m 301.4,52.76 c 0,0 6.2,3.66 9.1,4.41 3.6,0.92 12.3,0.63 12.3,0.63"
       id="path7902"
       style="fill:none;stroke:#000000;stroke-width:2.5;stroke-linecap:butt;stroke-linejoin:miter;stroke-miterlimit:4;stroke-opacity:1;stroke-dasharray:none" />
    <path
       d="m 286,39.54 c 0,0 -5.6,3.47 -8.2,4.4 -1.9,0.68 -4.6,1.71 -6.6,1.26 -1.3,-0.28 -3.5,-2.52 -3.5,-2.52"
       id="path7904"
       style="fill:none;stroke:#000000;stroke-width:2.5;stroke-linecap:butt;stroke-linejoin:miter;stroke-miterlimit:4;stroke-opacity:1;stroke-dasharray:none" />
    <path
       d="m 339.9,96.4 c 0,0 3.7,-0.34 5.2,0 5,1.13 15.5,7.4 15.5,7.4 0,0 -2.4,-7.71 -2.2,-11.09 0.2,-3.15 1.3,-7.59 3.3,-9.97 1.6,-1.87 5,-3.12 7.4,-3.69 0.7,-0.16 2.2,0 2.2,0"
       id="path7906"
       style="fill:none;stroke:#000000;stroke-width:2.5;stroke-linecap:butt;stroke-linejoin:miter;stroke-miterlimit:4;stroke-opacity:1;stroke-dasharray:none" />
    <path
       d="m 298,136.2 c 0,0 1.9,-4.6 3.6,-6.1 1.9,-1.6 6.9,-3.1 9.2,-4.2 1.5,-0.7 3.6,-1.8 4.4,-3.3 0.5,-0.9 0.4,-3.3 0.4,-3.3"
       id="path7908"
       style="fill:none;stroke:#000000;stroke-width:2.5;stroke-linecap:butt;stroke-linejoin:miter;stroke-miterlimit:4;stroke-opacity:1;stroke-dasharray:none" />
    <path
       d="m 327.7,113.1 -2.9,9.2"
       id="path7910"
       style="fill:none;stroke:#000000;stroke-width:2.5;stroke-linecap:butt;stroke-linejoin:miter;stroke-miterlimit:4;stroke-opacity:1;stroke-dasharray:none" />
    <path
       d="m 355.8,181.8 c 0,0 -6.7,-3.1 -10.1,-4 -3.1,-0.7 -7.4,0.8 -10.5,0 -2.5,-0.6 -7.8,-3.9 -7.8,-3.9"
       id="path7912"
       style="fill:none;stroke:#000000;stroke-width:2.5;stroke-linecap:butt;stroke-linejoin:miter;stroke-miterlimit:4;stroke-opacity:1;stroke-dasharray:none" />
    <path
       d="m 327.7,187.6 c 0,0 6.8,1.3 9.2,3 3.5,2.5 4.6,8.5 7.5,11.7 2,2.1 4.7,3.9 6,5.9 1,1.7 2.5,6 2.5,6 0,0 1.7,-4.7 1.7,-7.2 -0.1,-0.9 -0.1,-6.9 -0.1,-6.9 0,0 6,8.5 9.8,10.7 1.1,0.7 4.3,1 4.3,1"
       id="path7914"
       style="fill:none;stroke:#000000;stroke-width:2.5;stroke-linecap:butt;stroke-linejoin:miter;stroke-miterlimit:4;stroke-opacity:1;stroke-dasharray:none" />
    <path
       d="m 378.5,239.9 c 0,0 4.5,2.7 6.7,3.3 1.8,0.5 6.2,0.6 6.2,0.6"
       id="path7916"
       style="fill:none;stroke:#000000;stroke-width:2.5;stroke-linecap:butt;stroke-linejoin:miter;stroke-miterlimit:4;stroke-opacity:1;stroke-dasharray:none" />
    <path
       d="m 394.9,265.5 c 0,0 -1.7,-5.6 -3.1,-7.7 -1.6,-2.3 -4.2,-5.1 -6.6,-6.5 -0.9,-0.5 -3.4,-0.9 -3.4,-0.9"
       id="path7918"
       style="fill:none;stroke:#000000;stroke-width:2.5;stroke-linecap:butt;stroke-linejoin:miter;stroke-miterlimit:4;stroke-opacity:1;stroke-dasharray:none" />
    <path
       d="m 377,258.3 c 0,0 5.6,2.1 7.2,4.1 2.4,2.9 3.3,8.1 5,11.5 0.9,1.6 2,4 3.3,5.3 1.1,1 4.3,2.4 4.3,2.4"
       id="path7920"
       style="fill:none;stroke:#000000;stroke-width:2.5;stroke-linecap:butt;stroke-linejoin:miter;stroke-miterlimit:4;stroke-opacity:1;stroke-dasharray:none" />
    <path
       d="m 382.8,278.1 c 0,0 -5.1,-7.9 -6.3,-9.6 -1.1,-1.4 -4.1,-3.3 -4.1,-3.3"
       id="path7922"
       style="fill:none;stroke:#000000;stroke-width:2.5;stroke-linecap:butt;stroke-linejoin:miter;stroke-miterlimit:4;stroke-opacity:1;stroke-dasharray:none" />
    <path
       d="m 207.6,161.1 5.2,10.9"
       id="path7926"
       style="fill:none;stroke:#000000;stroke-width:2.5;stroke-linecap:butt;stroke-linejoin:miter;stroke-miterlimit:4;stroke-opacity:1;stroke-dasharray:none" />
    <path
       d="m 214.2,159.4 3.4,8.8"
       id="path7928"
       style="fill:none;stroke:#000000;stroke-width:2.5;stroke-linecap:butt;stroke-linejoin:miter;stroke-miterlimit:4;stroke-opacity:1;stroke-dasharray:none" />
    <path
       d="m 220.4,159 3.4,5.6"
       id="path7930"
       style="fill:none;stroke:#000000;stroke-width:2.5;stroke-linecap:butt;stroke-linejoin:miter;stroke-miterlimit:4;stroke-opacity:1;stroke-dasharray:none" />
    <path
       d="m 225.9,157.8 3,5.6"
       id="path7932"
       style="fill:none;stroke:#000000;stroke-width:2.5;stroke-linecap:butt;stroke-linejoin:miter;stroke-miterlimit:4;stroke-opacity:1;stroke-dasharray:none" />
    <path
       d="m 363,252.1 -3.4,4.9 -7.6,5 c 0,0 1.1,1.8 2.4,2.6 0.7,0.4 2.5,0.8 3.4,0.5 1.6,-0.5 3.7,-1.6 4.8,-2.9 0.5,-0.6 0.8,-2.7 0.8,-2.7"
       id="path7934"
       style="fill:none;stroke:#000000;stroke-width:2.5;stroke-linecap:butt;stroke-linejoin:miter;stroke-miterlimit:4;stroke-opacity:1;stroke-dasharray:none" />
    <path
       d="m 336.5,232.9 c 0,0 1.1,6.4 2.7,8.5 1.6,1.9 4.9,3.3 7.2,4.1 2.1,0.6 4,1.1 6,0.3 1.8,-0.6 5.4,-4.2 5.4,-4.2 0,0 -1.3,5 -2.8,6.6 -1.8,2.1 -5.4,4.1 -8.2,4.6 -1.8,0.4 -4.3,-0.1 -6.1,-0.7 -2.3,-0.8 -7.1,-4.3 -7.1,-4.3"
       id="path7936"
       style="fill:none;stroke:#000000;stroke-width:2.5;stroke-linecap:butt;stroke-linejoin:miter;stroke-miterlimit:4;stroke-opacity:1;stroke-dasharray:none" />
    <path
       d="m 322.7,246.8 c 0,0 0.3,6.5 1.7,8.7 1.2,1.8 3.9,3.2 5.1,4.9 1.2,1.6 2.3,3.5 2.9,5.3 0.7,2.1 1.8,8.6 1.8,8.6"
       id="path7938"
       style="fill:none;stroke:#000000;stroke-width:2.5;stroke-linecap:butt;stroke-linejoin:miter;stroke-miterlimit:4;stroke-opacity:1;stroke-dasharray:none" />
    <path
       d="m 344.3,184.4 c 0,0 5.1,4.6 6.7,7.1 1.7,2.7 3.8,9.7 3.8,9.7"
       id="path7940"
       style="fill:none;stroke:#000000;stroke-width:2.5;stroke-linecap:butt;stroke-linejoin:miter;stroke-miterlimit:4;stroke-opacity:1;stroke-dasharray:none" />
    <path
       d="m 198.1,230.5 c 0,0 -8.6,-1.4 -11.9,-3.1 -2.6,-1.3 -5.8,-3.8 -7.5,-6.3 -1.8,-2.7 -3.4,-10.3 -3.4,-10.3"
       id="path7942"
       style="fill:none;stroke:#000000;stroke-width:2.5;stroke-linecap:butt;stroke-linejoin:miter;stroke-miterlimit:4;stroke-opacity:1;stroke-dasharray:none" />
    <path
       d="m 207.8,225.2 c 0,0 -10.1,-0.7 -13.7,-2.7 -2.1,-1.1 -4.7,-3.1 -6.2,-5 -1.8,-2 -4.4,-7.8 -4.4,-7.8"
       id="path7944"
       style="fill:none;stroke:#000000;stroke-width:2.5;stroke-linecap:butt;stroke-linejoin:miter;stroke-miterlimit:4;stroke-opacity:1;stroke-dasharray:none" />
    <path
       d="m 218.2,220.8 c 0,0 -13.5,-3.1 -18.8,-5.6 -2.6,-1.2 -8.3,-7 -8.3,-7"
       id="path7946"
       style="fill:none;stroke:#000000;stroke-width:2.5;stroke-linecap:butt;stroke-linejoin:miter;stroke-miterlimit:4;stroke-opacity:1;stroke-dasharray:none" />
    <path
       d="m 197.4,204.8 c 0,0 3.6,4 5.7,4.8 1.9,0.6 4.4,1.4 6.4,1.7 1.8,0.2 5.2,0.4 5.2,0.4"
       id="path7948"
       style="fill:none;stroke:#000000;stroke-width:2.5;stroke-linecap:butt;stroke-linejoin:miter;stroke-miterlimit:4;stroke-opacity:1;stroke-dasharray:none" />
    <path
       d="m 206,203 c 0,0 2,2.3 3.1,2.8 1.4,0.6 3.8,0.6 5.3,0.9 1.5,0.4 5,0 5,0"
       id="path7950"
       style="fill:none;stroke:#000000;stroke-width:2.5;stroke-linecap:butt;stroke-linejoin:miter;stroke-miterlimit:4;stroke-opacity:1;stroke-dasharray:none" />
    <path
       d="m 214.7,201.1 c 0,0 5.3,0.9 7.5,1.3 1.3,0.2 4.4,0.6 4.4,0.6"
       id="path7952"
       style="fill:none;stroke:#000000;stroke-width:2.5;stroke-linecap:butt;stroke-linejoin:miter;stroke-miterlimit:4;stroke-opacity:1;stroke-dasharray:none" />
    <path
       d="m 225.7,198 c 0,0 7.2,0.4 10.3,0.9 1.6,0.3 5.3,1.3 5.3,1.3"
       id="path7954"
       style="fill:none;stroke:#000000;stroke-width:2.5;stroke-linecap:butt;stroke-linejoin:miter;stroke-miterlimit:4;stroke-opacity:1;stroke-dasharray:none" />
    <path
       d="m 234.8,193.9 c 0,0 7,1.1 10,1.9 2.1,0.6 6.9,2.5 6.9,2.5 0,0 0,0 0,0"
       id="path7956"
       style="fill:none;stroke:#000000;stroke-width:2.5;stroke-linecap:butt;stroke-linejoin:miter;stroke-miterlimit:4;stroke-opacity:1;stroke-dasharray:none" />
    <path
       d="m 247.9,191.1 c 0,0 4.9,0.6 6.9,1.2 1.9,0.6 4.4,1.4 6,2.6 1.6,1.1 4.3,4.6 4.3,4.6"
       id="path7958"
       style="fill:none;stroke:#000000;stroke-width:2.5;stroke-linecap:butt;stroke-linejoin:miter;stroke-miterlimit:4;stroke-opacity:1;stroke-dasharray:none" />
    <g
       id="armed">
      <path
         d="m 29.8,276.8 c -1.8,-2.2 -4.8,-3.4 -7.7,-3.3 -2.5,0.1 -5.4,2.1 -7.4,3.7 -2,1.6 -4.6,4.1 -5.3,6.6 -0.4,1.3 -0.3,2.3 0.4,3.5 0.6,1.1 2.4,3.1 2.4,3.1 0,0 0.3,-2.7 1.1,-3.5 1,-1.2 3.3,-1.9 4.9,-2.4 1.7,-0.4 4.1,-0.2 5.7,-0.5 1.2,-0.3 2.9,-0.5 3.9,-1.1 1.1,-0.7 2.5,-2.1 2.8,-3.4 0.2,-0.8 -0.2,-2.1 -0.8,-2.7 z"
         id="path2853"
         style="fill:#ff0000;fill-rule:evenodd;stroke:#000000;stroke-width:2.5;stroke-linecap:butt;stroke-linejoin:miter;stroke-miterlimit:4;stroke-opacity:1;stroke-dasharray:none" />
      <path
         d="m 27.8,293.9 c 0.8,1.4 0.8,3.8 0.2,5.2 -0.6,1.2 -2.2,2.4 -3.5,2.9 -1.7,0.7 -4.3,-0.5 -5.9,0.2 -1.9,0.8 -3.9,3.2 -5,5 -0.7,1.2 -1.3,3 -1.3,4.4 0,1.8 1.7,5.7 1.7,5.7 0,0 -6.1,-4.6 -7.2,-7.5 -0.9,-2.4 -0.4,-6 0.4,-8.3 0.7,-2.2 2.4,-4.7 4,-6.3 1.5,-1.5 3.9,-3.1 5.9,-3.7 1.9,-0.6 4.7,-0.7 6.7,-0.2 1.4,0.4 3.3,1.4 4,2.6 z"
         id="path2855"
         style="fill:#ff0000;fill-rule:evenodd;stroke:#000000;stroke-width:2.5;stroke-linecap:butt;stroke-linejoin:miter;stroke-miterlimit:4;stroke-opacity:1;stroke-dasharray:none" />
      <path
         d="m 200.9,290.3 c -1.9,0.2 -4.4,-1.3 -6.3,-1.3 -3,-0.1 -9.7,1.8 -9.7,1.8 0,0 3.1,-4.1 4.9,-5.4 2.1,-1.6 5.4,-3.6 8,-3.6 2,-0.1 5,0.8 6.4,2.4 0.8,1 1.6,3.1 1,4.2 -0.6,1.3 -2.9,1.8 -4.3,1.9 z"
         id="path8162"
         style="fill:#ff0000;fill-rule:evenodd;stroke:#000000;stroke-width:2.5;stroke-linecap:butt;stroke-linejoin:miter;stroke-miterlimit:4;stroke-opacity:1;stroke-dasharray:none" />
      <path
         d="m 193.2,304.1 c 1.5,-0.1 3.5,0.5 4.8,1.2 1.3,0.7 3.4,2 3.8,3.5 0.2,1 -0.5,2.4 -1,3.2 -0.4,0.6 -1.3,1.1 -1.9,1.4 -1.4,0.5 -3.6,0 -4.8,0.7 -1.1,0.7 -2.2,2.3 -2.7,3.5 -0.7,1.8 -1.2,2.6 -1,4.5 0.2,1.4 1.9,5.7 1.9,5.7 0,0 -4.9,-2.2 -6.3,-3.8 -1.9,-2.3 -3.2,-5.1 -3,-8.2 0.1,-1.9 1.3,-4.4 2.5,-5.9 1.3,-2 3.8,-4.1 5.8,-5.2 0.5,-0.3 1.3,-0.6 1.9,-0.6 z"
         id="path8164"
         style="fill:#ff0000;fill-opacity:1;fill-rule:evenodd;stroke:#000000;stroke-width:2.5;stroke-linecap:butt;stroke-linejoin:miter;stroke-miterlimit:4;stroke-opacity:1;stroke-dasharray:none" />
      <path
         d="m 222.5,318.5 c 0.5,-0.7 1.7,-1.2 2.6,-1.3 2.1,0 5.4,0.9 6.6,2.7 0.9,1.3 0.4,3.8 0,5.4 -0.5,2.3 -1.8,5.4 -3.3,7.3 -1.3,1.7 -5.7,4.7 -5.7,4.7 0,0 1.1,-5.1 0.8,-7.3 -0.2,-2.1 -2.1,-4.4 -2.2,-6.5 -0.1,-1.5 0.2,-3.8 1.2,-5 z"
         id="path8166"
         style="fill:#ff0000;fill-opacity:1;fill-rule:evenodd;stroke:#000000;stroke-width:2.5;stroke-linecap:butt;stroke-linejoin:miter;stroke-miterlimit:4;stroke-opacity:1;stroke-dasharray:none" />
      <path
         d="m 251.6,307.3 c 1.1,-1.6 4.3,-1.7 6.3,-1.6 1.6,0.2 2.7,0.9 3.8,2.1 1.4,1.7 2.3,4.8 2.1,7 -0.1,1.4 -1.2,3 -2.1,4 -1.1,1.2 -1.8,2.5 -3.3,3 -1.7,0.6 -6.1,0.7 -6.1,0.7 0,0 2.8,-3 3.1,-4.6 0.4,-1.7 0.1,-4.3 -0.8,-5.9 -0.5,-0.8 -2.2,-1.1 -2.7,-1.9 -0.4,-0.7 -0.8,-2.1 -0.3,-2.8 z"
         id="path8168"
         style="fill:#ff0000;fill-opacity:1;fill-rule:evenodd;stroke:#000000;stroke-width:2.5;stroke-linecap:butt;stroke-linejoin:miter;stroke-miterlimit:4;stroke-opacity:1;stroke-dasharray:none" />
      <path
         d="m 65.1,286.4 c -1.89,-2.1 -4.86,-3.4 -7.73,-3.3 -2.47,0.1 -5.45,2.2 -7.37,3.7 -1.99,1.6 -4.65,4.2 -5.34,6.6 -0.37,1.3 -0.3,2.4 0.36,3.5 0.63,1.1 2.4,3.2 2.4,3.2 0,0 0.38,-2.7 1.1,-3.5 1.09,-1.3 3.38,-2 4.98,-2.4 1.66,-0.5 4.02,-0.3 5.71,-0.6 1.18,-0.2 2.86,-0.4 3.87,-1.1 1.08,-0.7 2.48,-2 2.76,-3.3 0.18,-0.8 -0.17,-2.1 -0.74,-2.8 z"
         id="path8205"
         style="fill:#ff0000;fill-rule:evenodd;stroke:#000000;stroke-width:2.5;stroke-linecap:butt;stroke-linejoin:miter;stroke-miterlimit:4;stroke-opacity:1;stroke-dasharray:none" />
      <path
         d="m 63.08,303.6 c 0.77,1.3 0.81,3.7 0.18,5.1 -0.56,1.3 -2.22,2.5 -3.5,3 -1.65,0.6 -4.27,-0.5 -5.89,0.2 -1.94,0.8 -3.9,3.1 -4.98,4.9 -0.7,1.2 -1.29,3.1 -1.29,4.5 0,1.7 1.66,5.7 1.66,5.7 0,0 -6.09,-4.7 -7.18,-7.6 -0.88,-2.3 -0.39,-5.9 0.36,-8.3 0.69,-2.1 2.46,-4.7 4.06,-6.2 1.48,-1.5 3.9,-3.1 5.89,-3.7 1.91,-0.6 4.72,-0.7 6.63,-0.2 1.39,0.4 3.34,1.3 4.06,2.6 z"
         id="path8207"
         style="fill:#ff0000;fill-rule:evenodd;stroke:#000000;stroke-width:2.5;stroke-linecap:butt;stroke-linejoin:miter;stroke-miterlimit:4;stroke-opacity:1;stroke-dasharray:none" />
      <path
         d="m 91.81,317.6 c -0.21,-2.1 -1.87,-3.6 -3.86,-4.1 -2.2,-0.6 -5.82,-0.5 -7.56,0.9 -1.25,1.1 -0.8,3.8 -1.1,5.4 -0.37,2 -1.08,4.6 -1.11,6.6 0,2.1 0.22,4.9 0.92,6.8 0.43,1.2 1.18,2.8 2.21,3.5 1.5,1 5.9,0.9 5.9,0.9 0,0 -3.36,-2.4 -3.87,-4 -0.46,-1.4 0.15,-3.6 0.74,-5 0.95,-2.2 3.32,-4.6 4.97,-6.4 1.32,-1.5 2.97,-2.7 2.76,-4.6 z"
         id="path8209"
         style="fill:#ff0000;fill-rule:evenodd;stroke:#000000;stroke-width:2.5;stroke-linecap:butt;stroke-linejoin:miter;stroke-miterlimit:4;stroke-opacity:1;stroke-dasharray:none" />
      <path
         d="m 119.4,305.6 c 2.2,1.1 4.3,2.3 5.4,4.4 1.2,2.3 1,6.3 0,8.7 -0.7,1.5 -1.6,2.9 -3,3.8 -1.4,1 -5.1,2.6 -5.1,2.6 0,0 0.9,-3 1.1,-4.4 0.2,-1.6 0.5,-3.9 -0.2,-5.3 -0.9,-1.9 -4.4,-2.7 -5.2,-4.6 -0.4,-1.2 -0.2,-3.3 0.6,-4.3 0.8,-1.1 2.9,-1.6 4.2,-1.6 0.7,-0.1 1.6,0.4 2.2,0.7 z"
         id="path8211"
         style="fill:#ff0000;fill-rule:evenodd;stroke:#000000;stroke-width:2.5;stroke-linecap:butt;stroke-linejoin:miter;stroke-miterlimit:4;stroke-opacity:1;stroke-dasharray:none" />
      <path
         d="m 332.1,288.9 c -1.4,-1.4 -4.6,-1.4 -6.6,-1.1 -2.4,0.3 -3.4,0.7 -5.3,2.1 -1.8,1.1 -4.2,2.8 -5,4.7 -0.9,2.1 0,7.4 0,7.4 0,0 4,-5.2 6.4,-6.6 2.6,-1.5 5.1,0 7.9,-1.1 1,-0.5 2.7,-0.9 3.2,-1.9 0.4,-0.9 0.1,-2.7 -0.6,-3.5 z"
         id="path8213"
         style="fill:#ff0000;fill-rule:evenodd;stroke:#000000;stroke-width:2.5;stroke-linecap:butt;stroke-linejoin:miter;stroke-miterlimit:4;stroke-opacity:1;stroke-dasharray:none" />
      <path
         d="m 329.4,303.7 c 2.1,0.1 3.1,-0.3 4.5,1.2 1.2,1.2 2.2,4 1.6,5.7 -0.3,1 -2,1.5 -2.9,2 -1.6,0.9 -4.2,1.2 -5.5,2.4 -1.2,0.9 -2.4,2.8 -2.8,4.2 -0.4,1.2 -0.3,2.9 0,4.1 0.3,1.2 1.4,2 2,3.1 0.2,0.3 -3.1,0 -4.6,-0.8 -1.5,-0.7 -3.2,-2.3 -4,-3.8 -1.2,-2.1 -0.6,-4.2 -0.4,-6.6 0.2,-2.3 2,-3.9 3.3,-5.7 1.3,-2 3.8,-4 5.9,-5 0.8,-0.4 2,-0.8 2.9,-0.8 z"
         id="path8215"
         style="fill:#ff0000;fill-rule:evenodd;stroke:#000000;stroke-width:2.5;stroke-linecap:butt;stroke-linejoin:miter;stroke-miterlimit:4;stroke-opacity:1;stroke-dasharray:none" />
      <path
         d="m 356.5,318.5 c 0,0 3.4,-1.8 5,-2.1 0.8,-0.1 1.4,-0.1 2.2,0.4 1.6,1 3.2,3.5 3.3,5.3 0.1,2.6 -2.6,5.4 -3.9,7.6 -0.9,1.5 -2.6,4.8 -2.6,4.8 0,0 -4.2,-9.7 -4.5,-11.7 -0.2,-2.3 0.4,-4.1 0.5,-4.3 z"
         id="path8217"
         style="fill:#ff0000;fill-rule:evenodd;stroke:#000000;stroke-width:2.5;stroke-linecap:butt;stroke-linejoin:miter;stroke-miterlimit:4;stroke-opacity:1;stroke-dasharray:none" />
      <path
         d="m 387,300.6 c 1.3,-0.4 3.2,-0.3 4.5,0.2 1.5,0.7 3.3,2.3 3.8,3.9 0.8,2.1 0.1,5.4 -0.7,7.5 -1,2.8 -5.7,8.3 -5.7,8.3 0,0 0.1,-4.8 -0.2,-6.8 -0.2,-1.3 -0.3,-3.1 -1.1,-4.1 -0.9,-1.2 -3.7,-1.2 -4.4,-2.5 -0.5,-0.9 -0.4,-2.5 0,-3.4 0.6,-1.3 2.4,-2.6 3.8,-3.1 z"
         id="path8219"
         style="fill:#ff0000;fill-rule:evenodd;stroke:#000000;stroke-width:2.5;stroke-linecap:butt;stroke-linejoin:miter;stroke-miterlimit:4;stroke-opacity:1;stroke-dasharray:none" />
    </g>
    <path
       d="m 78,70.74 c 0,0 -1.13,-4.97 -0.62,-7.04 0.92,-3.96 6.31,-7.47 7.53,-11.41 0.94,-2.55 0.49,-9.09 0.49,-9.09 0,0 7.75,1.12 10.56,2.78 2.43,1.33 5.34,3.99 5.34,3.99 0,0 0.3,-3.19 1.2,-5.24 1,-2.45 3.9,-4.4 4.7,-6.86 0.8,-2.16 0.9,-6.86 0.9,-6.86 0,0 6.5,2.86 8.3,5.35 0.7,0.94 0.8,3.75 0.8,3.75 0,0 5.4,-5.61 5.9,-8.79 0.3,-1.89 -1.8,-6 -1.8,-6 0,0 7.6,2.21 9.4,4.8 1.6,2.4 1,9.68 1,9.68 0,0 2.1,-5.1 3.6,-6.72 2.5,-2.67 10.1,-6.46 10.1,-6.46 l -1.7,10.62 c 0,0 4.6,-1.86 6.5,-1.26 4.4,1.55 8.2,7.56 10.1,11.86 0.7,1.45 0.8,5.36 0.8,5.36 0,0 4.5,-5.57 7.3,-6.52 2,-0.69 6.9,0.38 6.9,0.38 0,0 -1.7,5.51 -1.4,7.93 0.4,4.63 5.9,9.63 6.1,14.25 0.1,2.01 -1.9,6.3 -1.9,6.3 0,0 6.8,11.99 8.1,17.67 1.6,6.39 -1.4,14.49 1.4,20.49 0.8,1.5 2.6,3.4 4.2,3.4 1.9,0.2 4.5,-1.3 4.5,-1.3 0,0 -0.6,4.9 -1.9,6.3 -1.4,1.4 -6,2.4 -6,2.4 0,0 0.7,3.9 0.6,6.4 0.1,2.5 -1.2,8 0.2,10.6 1.4,2.5 4.1,4.4 6.9,3.9 0.6,-0.1 2.5,0.3 3.3,-0.5 1.7,-1.5 2,-4.7 2,-4.7 0,0 1,4.7 0.2,6.4 -1,2.4 -2.7,3.9 -4.9,5.2 -2.4,1.3 -8.7,1.4 -10,3.6 -2.4,3.9 2.3,10.8 1.3,15.1 -0.8,3.3 -5.3,6.1 -5.8,9.4 -0.6,2.8 -0.3,5.9 1.2,8.3 1.1,1.9 2.6,4.2 4.8,4.8 1.4,0.3 4.2,0.2 5.2,-0.9 1.5,-1.1 2.4,-3.2 2.8,-5 0.4,-1.4 0.9,-4.8 0.9,-4.8 0,0 2.2,4.7 2.1,7 -0.1,2 -1.1,4.4 -2.3,5.8 -2,2.1 -5.2,4.2 -7.8,5 -3,1 -7.3,1.3 -10.3,0.6 -2.6,-0.8 -7.7,-4.8 -7.7,-4.8 0,0 -0.4,4.1 -0.9,5.9 -0.7,2.5 -1.1,6.2 -3.1,7.8 -1.7,1.4 -7.5,1.2 -7.5,1.2 0,0 1.8,9.3 4.1,12.6 1,1.4 3,2.8 4.6,3.5 1.8,0.7 4.5,1.4 6.4,0.9 2.3,-0.7 4.8,-3.1 6.2,-5.1 0.7,-1.1 1.3,-4.2 1.3,-4.2 0,0 0.9,7.4 -0.6,10.2 -1.6,3.2 -6,6.5 -9.5,7.5 -2.3,0.6 -5.7,-0.2 -7.9,-1 -1.6,-0.5 -3.2,-2.4 -4.8,-2.9 -2.3,-0.9 -8.4,-1 -8.4,-1 0,0 0.4,5.3 0,7.5 -0.3,2.5 -1.7,5.6 -2.5,7.9 -0.6,1.4 -1.3,2.9 -1,4.2 0.7,2.7 3.7,5.1 6.4,5.3 1.8,0.1 4.5,-1.4 5.5,-3 1.2,-2 -0.1,-7.5 -0.1,-7.5 0,0 3.6,6 3.2,8.8 -0.2,1.8 -1.9,4.2 -3.5,5.2 -2.1,1.4 -6,1.7 -8.7,1.6 -2.1,0 -4.9,-0.5 -6.8,-1.5 -2.1,-1 -4.6,-3.3 -6.2,-5.1 -2.6,-2.9 -5.2,-7.5 -6.9,-11.1 -0.7,-1.7 -3.1,-4.7 -3.1,-4.7 0,0 -3.3,-0.3 -5.2,-0.5 -2.2,-0.4 -5.2,-1.1 -6.8,-2.6 -1.7,-1.4 -2.6,-4.6 -3.4,-6.6 -0.9,-2.3 -2.3,-7.6 -2.3,-7.6 0,0 -8.5,4.9 -10.16,8.5 -0.8,2 -0.37,5 0.22,7 0.64,2.1 2.54,4.5 3.94,6.2 1.1,1.2 4,3.9 4,3.9 0,0 -7.2,0.4 -10.05,-0.6 -3.84,-1.2 -9.92,-5.5 -12.66,-8.6 -2.45,-2.7 -4.34,-6.7 -5.55,-10.2 -1.21,-3.6 -1.08,-11.6 -1.08,-11.6 l 1.31,-7.5 c 0,0 -3.79,3.4 -4.41,5.7 -0.61,2 -0.38,6.9 -0.38,6.9 0,0 -3.54,-8.6 -4.23,-12.6 -0.44,-2.8 -0.73,-6.8 0,-9.6 0.52,-2.2 3.55,-6.3 3.55,-6.3 0,0 -4.63,-9 -5.7,-13.1 -1.41,-5.4 -2.88,-12.9 -2.22,-18.4 0.44,-4.3 5.05,-13.7 5.05,-13.7 l -6.01,1.3 c 0,0 -6.42,-7.2 -6.91,-11.1 -0.65,-5.1 2.98,-11.7 5.18,-16.4 1.1,-2.3 3.53,-4.9 4.68,-7.2 1.52,-3 3.83,-10.5 3.83,-10.5 0,0 -5.56,-2.5 -6.77,-4.7 -1.35,-2.38 -0.58,-9.15 -0.58,-9.15 0,0 3.71,3.41 5.67,4.11 1.58,0.49 4.19,-1.57 4.19,-1.57 0,0 -2.76,-6.36 -3.05,-10.18 -0.1,-2.11 0.47,-5.08 1.47,-6.93 1,-1.75 5.05,-4.54 5.05,-4.54 z"
       id="path2504"
       style="fill:#ffff00;fill-opacity:1;fill-rule:evenodd;stroke:#000000;stroke-width:2.9999001;stroke-linecap:butt;stroke-linejoin:miter;stroke-miterlimit:4;stroke-opacity:1;stroke-dasharray:none" />
    <path
       d="m 112.8,102.1 c 0,0 -0.9,9.7 -0.6,12.6 0.2,2.3 2.3,5.5 2.3,5.5 0,0 2.7,-2.5 3.1,-4.8 0.6,-2.9 1,-12.8 1,-12.8 l -5.8,-0.5 z"
       id="path4593"
       style="fill:#ffffff;fill-rule:evenodd;stroke:#000000;stroke-width:2.4999001;stroke-linecap:butt;stroke-linejoin:miter;stroke-miterlimit:4;stroke-opacity:1;stroke-dasharray:none" />
    <path
       d="m 144.1,103.7 c 0,0 -0.9,9.7 -0.7,12.6 0.2,2.3 2.3,5.5 2.3,5.5 0,0 2.8,-2.5 3.2,-4.8 0.6,-2.8 1,-12.7 1,-12.7 l -5.8,-0.6 z"
       id="path4595"
       style="fill:#ffffff;fill-rule:evenodd;stroke:#000000;stroke-width:2.4999001;stroke-linecap:butt;stroke-linejoin:miter;stroke-miterlimit:4;stroke-opacity:1;stroke-dasharray:none" />
    <path
       d="m 121.7,65.42 c 1.442,3.838 -2.641,8.897 -9.101,11.32 -6.46,2.426 -12.86,1.306 -14.3,-2.533 -1.442,-3.838 2.641,-8.897 9.101,-11.32 6.46,-2.426 12.86,-1.306 14.3,2.533 z"
       id="path3161"
       style="fill:#ffffff;fill-opacity:1;fill-rule:evenodd;stroke:#000000;stroke-width:2.5;stroke-linecap:butt;stroke-linejoin:miter;stroke-miterlimit:4;stroke-opacity:1;stroke-dashoffset:0;marker:none;visibility:visible;display:inline;overflow:visible;enable-background:accumulate" />
    <path
       d="m 139,65.07 c -1.846,3.661 1.668,9.129 7.829,12.24 6.161,3.107 12.65,2.682 14.49,-0.9787 1.846,-3.661 -1.668,-9.129 -7.829,-12.24 -6.161,-3.107 -12.65,-2.682 -14.49,0.9787 z"
       id="path3163"
       style="fill:#ffffff;fill-opacity:1;fill-rule:evenodd;stroke:#000000;stroke-width:2.5;stroke-linecap:butt;stroke-linejoin:miter;stroke-miterlimit:4;stroke-opacity:1;stroke-dashoffset:0;marker:none;visibility:visible;display:inline;overflow:visible;enable-background:accumulate" />
    <path
       d="m 132.9,63.59 c 0,0 3.8,1.41 4.6,2.46 1.7,1.89 1.7,5.7 3.6,7.4 0.9,0.85 2.7,2.05 3.7,2.8 0.6,0.33 1.3,1.67 3,2.37 2,0.81 5.2,0.38 6.2,0.83 3.6,1.7 8.8,7.99 9.8,11.75 0.3,1.21 -0.6,2.87 -1.1,4.04 -1.3,2.94 -4.2,6.06 -5.7,8.86 -0.6,1.3 -1.2,3 -1.4,4.3 -0.2,0.9 -0.1,2.2 0,3.2 0.1,0.6 0,1.6 0.4,2.1 0.6,1 2.5,1.1 3.1,2.3"
       id="path3157"
       style="fill:none;stroke:#000000;stroke-width:2.4999001;stroke-linecap:butt;stroke-linejoin:miter;stroke-miterlimit:4;stroke-opacity:1;stroke-dasharray:none" />
    <path
       d="m 121.6,65.89 c 0,0 0.9,1.65 -0.2,4.09 -0.9,1.96 -3.8,4.71 -4.8,5.25 -3.2,1.53 -7.6,2.59 -10.2,3.46 -2.4,0.86 -5.1,2.22 -5.5,2.4 -0.95,0.55 -2.75,0.35 -3.59,1.11 -1.89,1.7 -3.5,5.52 -3.34,8.13 0.44,4.83 7.73,9.03 8.23,13.87 0.6,5.6 -5.84,12.3 -6.04,18 -0.16,2.9 3.09,4 2.53,6.8 -0.39,1.7 -3.99,7.1 -3.99,7.1 0,0 6.9,-3.4 9,-5.9 1.3,-1.4 2.9,-5.8 2.9,-5.8 0,0 -2.7,9.2 -2,13.3 0.7,4.3 4.3,9.9 4.3,9.9 0,0 0.5,-4 1.5,-6 0.7,-1.5 4.9,-2 4.9,-2 0,0 -1.6,4.1 -1.9,5.9 -0.1,1.3 -0.2,2.9 0.2,4.2 0.6,2 2.6,4.4 4.1,6 0.6,0.6 2.5,1.7 2.5,1.7 0,0 -1.4,-4.3 -1,-6.1 0.3,-1.4 2.4,-4.1 2.4,-4.1 0,0 0.7,6.2 1.6,8.8 0.4,1.2 1.3,2.9 1.6,4.2 0.8,3 0,4.5 -0.7,7.6 -0.1,1.4 -1.8,5.1 -1.8,5.1 0,0 6.1,-2.7 7.7,-5.1 1,-1.7 1.5,-4.7 1.7,-6.6 0.1,-1.3 0.1,-1.3 0.1,-1.3 0,0 2,2.6 2.4,3.9 0.4,1.8 0,2.2 -0.4,4 -0.8,2.3 -2.2,3.9 -2.4,6.4 -0.1,1.9 0.9,4.4 2,5.9 2.2,2.9 9.3,6 9.3,6 0,0 -2.5,-5.7 -2.8,-8.2 -0.2,-2 1.4,-3.8 2.2,-5.6 1.2,-2.5 4.7,-4.7 5.8,-7.4 0.9,-1.7 1.4,-4.5 1.4,-6.6 0,-2.1 -0.5,-5 -1.2,-7.1 -0.8,-2.2 -3.9,-6.9 -3.9,-6.9 0,0 -0.5,-0.5 1.1,1.1 1.3,1.1 4.9,4.2 5.4,5.3 0.8,1.8 1.7,6.2 1.7,6.2 0,0 2.2,-4.9 2.5,-7.6 0.2,-2.4 -2.2,-7.1 -2.2,-7.1 l -1.1,-3.3 c 0,0 4.2,3.1 5.2,5.1 1.1,2.3 2.1,7.6 2.1,7.6 0,0 3.8,-6.3 3.7,-9.2 -0.1,-1.6 -0.7,-3.5 -1.2,-5.1 -0.6,-1.4 -3,-4.7 -3,-4.7 0,0 4.2,1.1 5.1,2.3 1.1,1.5 3.1,6.2 3.1,6.2 0,0 2.6,-4 3.1,-8.2 0.5,-3.4 -1.6,-9.7 -2.8,-10.7 l -8.5,-7"
       id="path4598"
       style="fill:none;stroke:#000000;stroke-width:2.4999001;stroke-linecap:butt;stroke-linejoin:miter;stroke-miterlimit:4;stroke-opacity:1;stroke-dasharray:none" />
    <path
       d="m 106.4,91 c 0,0 -2.1,1.29 -1,4.06 0.8,1.84 5.1,4.57 5.5,5.94 0.4,1.3 0.9,5.1 0.9,5.1 0,0 4.6,1.6 6.2,1.1 2.1,-0.3 4.3,-2.5 6.4,-3.3 1.8,-0.7 6.4,-1.6 6.4,-1.6 l 0,-13.09 c -0.1,0.2 -6.2,-6.84 -8.1,-9.55 -0.7,-1.03 -3,0.75 -2.7,1.96 0.9,4.05 11.1,7.51 10.8,7.69 0,0 10.5,-3.04 10.8,-7.02 0,-0.8 -1.1,-2.37 -1.8,-2 -2.7,1.65 -8.6,9.44 -9,8.92 l -0.1,13.09 c 0,0 4.6,1.5 6.2,2.2 1.4,0.7 3.1,3.2 4.8,3.8 2.3,0.8 8.4,-1.3 8.4,-1.3 0,0 -0.3,-3.2 0.2,-4.3 0.6,-1.8 4.4,-3.98 5.7,-6.22 1.3,-2.03 -0.5,-3.53 -0.5,-3.53"
       id="path2382"
       style="fill:#ffff00;fill-opacity:1;fill-rule:evenodd;stroke:#000000;stroke-width:2.4999001;stroke-linecap:butt;stroke-linejoin:miter;stroke-miterlimit:4;stroke-opacity:1;stroke-dasharray:none" />
    <path
       d="m 89.34,49.92 c 0,0 2.77,2.56 2.79,4.06 0.1,1.71 -2.98,3.14 -2.77,4.86 0.23,1.31 3.52,1.59 3.45,2.89 0,3.1 -7.76,6.49 -7.76,6.49 0,0 4.26,-8.48 4.78,-12.46 0.29,-1.69 -0.49,-5.84 -0.49,-5.84 z"
       id="path3173"
       style="fill:#000000;fill-opacity:1;fill-rule:evenodd;stroke:#000000;stroke-width:2.4999001;stroke-linecap:butt;stroke-linejoin:miter;stroke-miterlimit:4;stroke-opacity:1;stroke-dasharray:none" />
    <path
       d="m 169.8,52.27 c 0,0 -1.8,7.81 0.1,10.82 1.3,2.17 3.3,5.88 3.3,5.88 0,0 -1.9,0 -2.5,-0.54 -1.7,-1.09 -1.7,-2.49 -2.5,-4.73 -0.6,-1.54 -2.1,-4.22 -2.2,-6.44 -0.1,-1.9 3.8,-4.99 3.8,-4.99 z"
       id="path3175"
       style="fill:#000000;fill-opacity:1;fill-rule:evenodd;stroke:#000000;stroke-width:2.4999001;stroke-linecap:butt;stroke-linejoin:miter;stroke-miterlimit:4;stroke-opacity:1;stroke-dasharray:none" />
    <path
       d="m 121,67.96 c -0.2372,4.393 -4.026,7.794 -8.419,7.557 -4.393,-0.2372 -7.794,-4.026 -7.557,-8.419 0.2372,-4.393 4.026,-7.794 8.419,-7.557 4.393,0.2372 7.794,4.026 7.557,8.419 z"
       id="path3177"
       style="fill:#ffffff;fill-opacity:1;fill-rule:evenodd;stroke:#000000;stroke-width:2.5;stroke-linecap:butt;stroke-linejoin:miter;stroke-miterlimit:4;stroke-opacity:1;stroke-dashoffset:0;marker:none;visibility:visible;display:inline;overflow:visible;enable-background:accumulate" />
    <path
       d="m 155,68.32 c -0.2372,4.393 -4.026,7.794 -8.419,7.557 -4.393,-0.2372 -7.794,-4.026 -7.557,-8.419 0.2372,-4.393 4.026,-7.794 8.419,-7.557 4.393,0.2372 7.794,4.026 7.557,8.419 z"
       id="path3179"
       style="fill:#ffffff;fill-opacity:1;fill-rule:evenodd;stroke:#000000;stroke-width:2.5;stroke-linecap:butt;stroke-linejoin:miter;stroke-miterlimit:4;stroke-opacity:1;stroke-dashoffset:0;marker:none;visibility:visible;display:inline;overflow:visible;enable-background:accumulate" />
    <path
       d="m 148.1,61.01 c -0.6,0 -1.2,0 -1.7,0 -1.1,0.14 -2,0.29 -2,0.29 l 0.6,3.44 c 0,0 0.7,-0.16 1.6,-0.22 0.9,0 2,0.21 1.8,0.1 -0.1,-0.1 0.6,0.73 0.7,0.94 0.1,0.61 -0.1,2.7 -0.4,3.28 -0.1,0.2 -0.9,0.85 -1,0.85 0.3,0 -0.6,0 -1.2,-0.17 -0.7,-0.14 -1.2,-0.26 -1.2,-0.26 0,0 -1.8,-0.3 -2,0.19 -0.5,0.78 0.8,2.65 0.8,2.65 0,0 0.7,0.24 1.5,0.38 0.8,0.24 1.7,0.49 2.9,0.16 1.5,-0.32 2.5,-1.27 3.2,-2.43 0.9,-1.66 1.2,-3.64 0.7,-5.47 -0.3,-1.32 -0.9,-2.46 -2.4,-3.24 -0.7,-0.34 -1.3,-0.47 -1.9,-0.5 z"
       id="path3183"
       style="fill:#000000;fill-opacity:1;fill-rule:evenodd;stroke:none" />
    <path
       d="m 146.9,55.54 c 0,0 -2.7,0.25 -3.9,0.68 -2.3,0.79 -4.7,2.66 -5.1,5.04 -0.2,1.29 0.3,2.32 1.1,3.26 1,1.06 2.5,0.94 3.9,1.11 2,0.21 4.4,-1.26 6.4,-0.85 2.8,0.45 6.3,2.34 8.3,4.35 1,0.85 1,3.06 2.1,3.82 1,0.65 2.7,1.25 3.9,0.71 1.1,-0.44 1.7,-2.31 2.1,-3.39 0.2,-0.59 0.2,-1.39 0.1,-2 -0.2,-0.81 -0.8,-1.85 -1.5,-2.58 -0.7,-0.84 -2.9,-2.26 -2.9,-2.26"
       id="path3167"
       style="fill:#ffff00;fill-opacity:1;fill-rule:evenodd;stroke:#000000;stroke-width:2.4999001;stroke-linecap:butt;stroke-linejoin:miter;stroke-miterlimit:4;stroke-opacity:1;stroke-dasharray:none" />
    <path
       d="m 114,60.27 c -0.6,0 -1.1,0 -1.6,0.11 -1.1,0 -2,0.19 -2,0.19 l 0.5,3.44 c 0,0 0.8,-0.16 1.7,-0.21 0.8,-0.1 1.9,0.2 1.8,0.1 -0.1,0 0.6,0.83 0.7,0.93 0,0.61 -0.2,2.7 -0.4,3.29 -0.2,0.19 -1.1,0.84 -1.1,0.94 0.2,-0.1 -0.6,0 -1.2,-0.27 -0.6,-0.13 -1.2,-0.26 -1.2,-0.26 0,0 -1.7,-0.29 -2,0.29 -0.4,0.68 0.8,2.65 0.8,2.65 0,0 0.7,0.14 1.6,0.39 0.8,0.14 1.7,0.49 2.9,0.15 1.5,-0.42 2.5,-1.37 3.1,-2.53 1,-1.65 1.3,-3.64 0.8,-5.47 -0.3,-1.32 -0.9,-2.45 -2.4,-3.23 -0.7,-0.34 -1.4,-0.48 -2,-0.51 z"
       id="path3195"
       style="fill:#000000;fill-opacity:1;fill-rule:evenodd;stroke:none" />
    <path
       d="m 98.05,61.21 c 0,0 -2.57,4.77 -3.18,6.94 -0.38,1.38 -1.09,3.34 -0.66,4.77 0.52,1.43 2.11,3.62 3.61,3.5 0.91,0 1.29,-1.53 1.73,-2.31 0.85,-1.75 1.25,-4.54 2.65,-5.97 1.6,-1.71 4.6,-3.26 6.9,-3.63 2.5,-0.46 5.9,1.12 8.4,1.16 1.4,0 3.4,0.1 4.7,-0.45 1.3,-0.63 3.3,-3.03 3.3,-3.03 0,0 -0.9,-2.95 -1.9,-3.9 -1.2,-1.07 -3.4,-1.69 -5,-1.98 -1.9,-0.4 -4.8,-0.1 -6.8,0.14 -0.9,0 -3.2,0.32 -3.2,0.32"
       id="path3165"
       style="fill:#ffff00;fill-opacity:1;fill-rule:evenodd;stroke:#000000;stroke-width:2.4999001;stroke-linecap:butt;stroke-linejoin:miter;stroke-miterlimit:4;stroke-opacity:1;stroke-dasharray:none" />
    <path
       d="m 71.85,103.2 c 0,0 3.95,1 5.57,0.6 3.35,-0.9 7.51,-3.6 9.75,-6.33 C 87.61,96.9 88,95.12 88,95.12"
       id="path3198"
       style="fill:none;stroke:#000000;stroke-width:2.4999001;stroke-linecap:butt;stroke-linejoin:miter;stroke-miterlimit:4;stroke-opacity:1;stroke-dasharray:none" />
    <path
       d="m 65.57,148.9 c 0,0 -0.73,-7.3 0.1,-10.2 0.73,-2.6 2.77,-5.9 4.68,-7.8 3.81,-3.9 15.64,-9.6 15.64,-9.6"
       id="path3200"
       style="fill:none;stroke:#000000;stroke-width:2.4999001;stroke-linecap:butt;stroke-linejoin:miter;stroke-miterlimit:4;stroke-opacity:1;stroke-dasharray:none" />
    <path
       d="m 86.03,131.7 c 0,0 -8.45,6.2 -11.24,9.8 -1.4,1.7 -3.55,6.4 -3.55,6.4"
       id="path3202"
       style="fill:none;stroke:#000000;stroke-width:2.4999001;stroke-linecap:butt;stroke-linejoin:miter;stroke-miterlimit:4;stroke-opacity:1;stroke-dasharray:none" />
    <path
       d="m 85.87,149.5 c 0,0 -4.6,5.3 -6.04,8 -1.87,3.2 -3.82,7.7 -4.91,11.2 -0.88,3.3 -1.72,7.6 -1.8,11 -0.1,3.6 1.09,13.2 1.09,13.2"
       id="path3204"
       style="fill:none;stroke:#000000;stroke-width:2.4999001;stroke-linecap:butt;stroke-linejoin:miter;stroke-miterlimit:4;stroke-opacity:1;stroke-dasharray:none" />
    <path
       d="m 79.58,208.5 c 0,0 5.58,-5 5.92,-9.6 0.19,-3.5 -3.76,-8.2 -4.17,-11.6 -0.53,-3.3 0.99,-9.2 2.65,-12.1 0.66,-1.1 3.25,-2.7 3.25,-2.7"
       id="path3206"
       style="fill:none;stroke:#000000;stroke-width:2.4999001;stroke-linecap:butt;stroke-linejoin:miter;stroke-miterlimit:4;stroke-opacity:1;stroke-dasharray:none" />
    <path
       d="m 108.7,222.5 c 0,0 5,-5.5 5,-8.5 0.3,-6.4 -6.3,-12.7 -5,-19 0.3,-1.3 2.5,-3.4 3.2,-5.8 0.4,-1.7 -0.1,-4.9 -0.3,-5.6 -0.6,-2 -5.6,-3.9 -5.6,-3.9"
       id="path3208"
       style="fill:none;stroke:#000000;stroke-width:2.4999001;stroke-linecap:butt;stroke-linejoin:miter;stroke-miterlimit:4;stroke-opacity:1;stroke-dasharray:none" />
    <path
       d="m 100.3,246.9 c 0,0 -5.77,-5.5 -7.99,-9 -2.14,-3 -3.36,-6.3 -3.36,-8.1 -0.14,-3.2 0,-5.7 0.87,-8.7 1.53,-6.1 8.18,-12.6 9.52,-18.8 0.3,-1.9 -0.95,-4.7 -0.1,-6.3 0.68,-1.5 3.56,-1.9 4.56,-3.3 0.8,-1.3 1.5,-3.4 1.3,-5 0,-1 -1.3,-3.2 -1.3,-3.2"
       id="path3210"
       style="fill:none;stroke:#000000;stroke-width:2.4999001;stroke-linecap:butt;stroke-linejoin:miter;stroke-miterlimit:4;stroke-opacity:1;stroke-dasharray:none" />
    <path
       d="m 96.19,166.1 c 0,0 -2.53,4.1 -3.03,6.1 -0.61,1.9 -1.17,4.8 -0.36,6.6 0.79,2 4.66,2.6 5.56,4.6 0.9,1.9 0.72,5.2 -0.38,7.1 -0.88,1.4 -4.89,3.2 -4.89,3.2 0,0 -1.68,-7.7 -1.3,-11.1 0.1,-1.2 1.31,-3.8 1.31,-3.8"
       id="path3212"
       style="fill:none;stroke:#000000;stroke-width:2.4999001;stroke-linecap:butt;stroke-linejoin:miter;stroke-miterlimit:4;stroke-opacity:1;stroke-dasharray:none" />
    <path
       d="m 141.7,192 c 0,0 3,7.7 2.3,11.1 -0.7,2.4 -4.3,4.7 -4.3,7.2 -0.1,1.1 1.7,3.2 1.7,3.2 0,0 -2.9,1 -3.9,0.5 -1.5,-0.6 -2.5,-2.9 -2.9,-4.4 -0.8,-2.9 0.6,-5.9 -0.8,-8.5 -0.7,-1.2 -4.6,-3.5 -4.6,-3.5 0,0 3.5,14.2 1.7,19 -1.2,3 -6.8,1.8 -8,5.7 -0.7,2.2 -0.7,5.9 0.7,7.8 1.2,1.6 4.1,2.4 5.8,1.6 1.7,-0.8 3.4,-3.2 3.4,-3.2 0,0 0.9,4.9 -0.3,6.5 -0.8,1.4 -3.9,3.8 -3.9,3.8"
       id="path3214"
       style="fill:none;stroke:#000000;stroke-width:2.4999001;stroke-linecap:butt;stroke-linejoin:miter;stroke-miterlimit:4;stroke-opacity:1;stroke-dasharray:none" />
    <path
       d="m 147.9,217.9 c 0,0 -1.7,3.6 -1.5,5.2 0.3,3.7 5.5,10.7 5.5,10.7"
       id="path3216"
       style="fill:none;stroke:#000000;stroke-width:2.4999001;stroke-linecap:butt;stroke-linejoin:miter;stroke-miterlimit:4;stroke-opacity:1;stroke-dasharray:none" />
    <path
       d="m 159.7,211.9 -1.2,-7.8 -0.1,-12.9"
       id="path3218"
       style="fill:none;stroke:#000000;stroke-width:2.4999001;stroke-linecap:butt;stroke-linejoin:miter;stroke-miterlimit:4;stroke-opacity:1;stroke-dasharray:none" />
    <path
       d="m 164.2,174.2 c 0,0 -2.3,6.6 -1.7,9.5 1.1,4.9 9.6,14.1 9.6,14.1"
       id="path3220"
       style="fill:none;stroke:#000000;stroke-width:2.4999001;stroke-linecap:butt;stroke-linejoin:miter;stroke-miterlimit:4;stroke-opacity:1;stroke-dasharray:none" />
    <path
       d="m 175.7,139 c 0,0 -0.2,6.1 1.1,8.3 1.9,3.1 10.8,6.4 10.8,6.4"
       id="path3222"
       style="fill:none;stroke:#000000;stroke-width:2.4999001;stroke-linecap:butt;stroke-linejoin:miter;stroke-miterlimit:4;stroke-opacity:1;stroke-dasharray:none" />
    <path
       d="m 167.3,149.7 c 0,0 8.8,10.5 11,15.8 2.2,5.3 3.1,18.8 3.1,18.8"
       id="path3224"
       style="fill:none;stroke:#000000;stroke-width:2.4999001;stroke-linecap:butt;stroke-linejoin:miter;stroke-miterlimit:4;stroke-opacity:1;stroke-dasharray:none" />
    <g
       id="langued">
      <path
         d="m 118.3,106.2 c 0,0 -0.3,13.9 2.6,19.8 1.7,3.4 8.2,10.7 8.2,10.7 0,0 8.4,-7.5 10.6,-10.7 3.7,-5.4 3.9,-19.9 3.9,-19.9 l -4.9,-3.5 -15.5,-0.7 z"
         id="path4590"
         style="fill:#ff0000;fill-rule:evenodd;stroke:#000000;stroke-width:2.4999001;stroke-linecap:butt;stroke-linejoin:miter;stroke-miterlimit:4;stroke-opacity:1;stroke-dasharray:none" />
      <path
         d="m 129.5,103.1 c -1.3,16.5 -1,22.7 -1,22.7 l 0.8,3.5 1.5,-3.5 c 0,0 -0.3,-6.1 1.1,-22.5 l -2.4,-0.2 z"
         id="path3226"
         style="fill:#000000;fill-opacity:1;fill-rule:evenodd;stroke:none" />
    </g>
    <rect
       width="68.231834"
       height="60.1614"
       x="95.744682"
       y="-4.7322083"
       id="crowned"
       style="opacity:0.5;fill:none;stroke:none" />
  </g>
</svg>
