<?xml version="1.0" encoding="UTF-8" standalone="no"?>
<!-- Created with Inkscape (http://www.inkscape.org/) -->
<svg xmlns="http://www.w3.org/2000/svg" xmlns:svg="http://www.w3.org/2000/svg" xmlns:rdf="http://www.w3.org/1999/02/22-rdf-syntax-ns#" xmlns:cc="http://creativecommons.org/ns#" xmlns:dc="http://purl.org/dc/elements/1.1/" width="314.29037" height="293.63947" id="svg29399" version="1.1">
  <defs id="defs29401" width="" height=""/>
  <metadata id="metadata29404">
    <rdf:RDF>
      <cc:Work rdf:about="">
        <dc:format>image/svg+xml</dc:format>
        <dc:type rdf:resource="http://purl.org/dc/dcmitype/StillImage"/>
        <dc:creator>
          <cc:Agent>
            <dc:title>vlk2020</dc:title>
          </cc:Agent>
        </dc:creator>
      </cc:Work>
    </rdf:RDF>
  </metadata>
  <g id="layer1" transform="translate(369.7751,-470.89137)">
    <g id="g4836" transform="translate(114.96051,71.499828)"/>
    <g id="g4035" transform="translate(-588.90026,30.763447)">
      <path transform="matrix(0.67687005,-0.04005969,0.04005969,0.67687005,385.25109,-313.19456)" d="m -180.76659,1252.7049 c -38.0726,-12.8206 -58.91454,-55.2208 -46.55177,-94.7035 12.36277,-39.4827 53.24871,-61.0966 91.32131,-48.2759 38.0726,12.8206 58.914536,55.2209 46.551768,94.7035 -12.347758,39.4348 -53.155398,61.0531 -91.202928,48.3157" id="path6986" style="opacity:0.82999998;fill:#ffff00;fill-opacity:1;fill-rule:nonzero;stroke:#000000;stroke-width:4.6596303;stroke-linecap:round;stroke-miterlimit:4;stroke-opacity:1;stroke-dasharray:none"/>
      <path style="fill:#ffff00;fill-opacity:1;fill-rule:evenodd;stroke:#000000;stroke-width:1.89568996;stroke-linecap:butt;stroke-linejoin:miter;stroke-miterlimit:4;stroke-opacity:1;stroke-dasharray:none" d="m 299.97537,654.85482 c 0,0 -7.4641,-5.04177 -7.55815,-8.02023 -0.0294,-0.92533 1.01284,-1.35451 1.31057,-2.23112 0.35261,-1.03808 0.44355,-2.11653 -0.27414,-2.94533 -1.13772,-1.31385 -3.86724,-0.80496 -5.53667,-0.32172 -2.22867,0.64513 -5.81514,4.35742 -5.81514,4.35742 l -0.54532,5.77906 8.4382,6.75669 9.98065,-3.37477 z" id="path6095"/>
      <path style="fill:#ffff00;fill-opacity:1;fill-rule:evenodd;stroke:#000000;stroke-width:1.89568996;stroke-linecap:butt;stroke-linejoin:miter;stroke-miterlimit:4;stroke-opacity:1;stroke-dasharray:none" d="m 383.70795,665.60771 c 0,0 -23.97595,-2.57178 -34.22252,-1.74247 -2.44548,0.19791 -5.92143,0.41167 -7.99445,1.72395 -1.81677,1.15002 -3.52793,3.70475 -4.36314,5.68606 -0.9262,2.19703 -2.27439,5.77119 -1.13571,7.866 1.04037,1.91384 6.59537,3.03744 6.59537,3.03744 0,0 -5.11092,1.92632 -7.28886,1.44969 -1.60796,-0.35186 -3.46047,-1.89904 -4.44233,-3.22012 -0.73784,-0.99262 -1.35447,-3.89376 -1.35447,-3.89376 0,0 -1.94802,2.16444 -3.21382,2.51022 -1.6841,0.46004 -5.42951,-0.006 -5.42951,-0.006 0,0 1.55118,-1.54423 2.12832,-2.2079 0.98282,-1.13015 1.88104,-2.68116 2.15496,-4.15365 0.16564,-0.89024 -0.94527,-2.86655 -0.94527,-2.86655 0,0 -0.37857,1.8144 -0.72845,2.51897 -0.74732,1.50497 -2.04794,3.42485 -3.34621,4.49158 -0.73192,0.60138 -2.28314,0.60057 -2.84989,1.35954 -0.75895,1.01638 -1.31942,1.49981 -0.95805,2.71569 0.27679,0.93122 0.67407,2.1389 1.60241,2.42514 0.60609,0.18689 1.97102,0.70765 2.51771,0.38614 0.45486,-0.26753 1.59503,-0.73912 1.59503,-0.73912 0,0 -0.58634,1.87719 -1.78007,3.0321 -0.64865,0.62753 -1.78948,0.75322 -2.39564,0.91044 -0.31423,0.0813 -1.52045,0.61329 -2.82193,-0.0675 -1.26543,-0.66186 -2.36667,-1.9251 -2.55522,-2.17828 0,0 -1.90578,-1.97865 -2.27955,-3.06087 -0.57292,-1.65867 -0.51209,-4.13143 -0.14626,-5.84772 0.20392,-0.95686 1.24406,-1.97836 1.4038,-2.94359 0.13237,-0.8 -0.48882,-1.89229 -0.31554,-2.68444 0.19172,-0.8762 0.15392,-0.83358 0.15392,-0.83358 0,0 0.49978,0.65914 -0.21203,1.97694 -0.78871,1.46009 -3.00589,5.20412 -3.00589,5.20412 l -2.43536,-3.12746 -0.49601,-3.28021 c 0,0 -0.18864,-1.10272 0.12889,-1.36343 0.33987,-0.27905 1.06912,0.35359 1.45826,0.14877 0.96275,-0.50668 0.72875,-2.51913 0.72875,-2.51913 0,0 0.10502,1.98833 -0.87466,2.49775 -0.35722,0.18578 -1.05435,-0.38437 -1.33846,-0.0991 -1.02704,1.03125 -0.16535,2.60742 0.37803,4.83664 0.39485,1.62002 1.29084,3.19928 0.84345,4.21567 -0.40398,0.91778 -2.83316,1.7738 -2.83316,1.7738 l -7.55693,-2.18547 c 0,0 -2.34676,-2.00047 -2.61906,-3.21412 -0.43946,-1.95883 0.43762,-7.17521 0.43762,-7.17521 l -0.52232,-0.0829 -2.98195,3.2321 c 0,0 0.38754,4.56625 -1.02603,5.43555 -1.00515,0.61812 -3.77843,-1.09274 -3.77843,-1.09274 L 278.51,668.72491 c 0,0 -0.53095,-2.40199 -0.13348,-3.31416 0.60152,-1.3801 3.81055,-3.26545 3.81055,-3.26545 l -3.38091,-1.52368 c 0,0 -3.98443,2.36163 -5.73306,1.89053 -0.85348,-0.22993 -1.552,-1.41726 -1.95599,-2.20345 -0.78044,-1.51892 -1.26075,-5.55096 -1.26075,-5.55096 l 5.61503,-9.97717 c 0,0 2.32715,-0.42068 3.11536,0.0821 1.66643,1.0628 2.9346,5.89853 2.9346,5.89853 0,0 6.17591,3.03252 9.04852,3.16278 3.04614,0.13814 6.83475,-2.08298 9.85915,-2.47156 2.03652,-0.26166 4.82684,-0.45221 6.84379,-0.068 0.73818,0.14061 1.70909,0.50666 2.32018,0.94396 1.29542,0.92695 2.62931,2.66321 3.48092,4.00931 0.82123,1.29803 1.09647,3.48967 2.056,4.68908 0.49757,0.62189 2.13805,1.5737 2.13805,1.5737 0,0 -3.1994,-4.45078 -4.40952,-6.46158 -1.4917,-2.4788 -2.61815,-6.32951 -4.49286,-8.53294 -0.57277,-0.6732 -1.95777,-0.98216 -2.35352,-1.7725 -0.75237,-1.50246 -0.62715,-4.035 -0.018,-5.60101 0.0957,-0.2459 0.60699,-0.38277 0.59639,-0.64641 -0.0389,-0.96668 -1.86576,-1.36122 -2.37019,-2.18678 -1.13257,-1.85362 -1.92903,-4.80369 -1.94061,-6.97591 -0.01,-1.88835 0.33815,-4.69756 1.62242,-6.08196 1.01693,-1.09614 3.21285,-1.5598 4.70581,-1.64172 2.12404,-0.1166 6.91047,1.58907 6.91047,1.58907 0,0 -3.52752,0.72121 -4.70575,1.64173 -0.84316,0.65874 -1.83818,1.91964 -1.95463,2.98327 -0.0642,0.58649 0.37481,1.34459 0.69647,1.8392 1.3913,2.13952 6.0499,5.98061 6.0499,5.98061 0,0 5.2509,-1.79651 7.58897,-2.17271 2.9473,-0.47423 6.97117,-0.68716 9.94256,-0.40022 1.60707,0.15521 3.70828,0.72122 5.23675,1.24151 1.84302,0.62736 3.97052,2.60665 5.91649,2.66644 1.17946,0.0362 2.6183,-0.8747 3.67842,-1.39289 1.15049,-0.56237 2.79218,-1.26617 3.64508,-2.22144 0.77227,-0.86505 33.43973,-13.75254 23.52405,-19.65128 L 354.46,602.50264 l 31.55215,16.99999 15.21532,20.16379 -17.51957,25.94161 z" id="path6097"/>
      <path style="fill:none;stroke:#000000;stroke-width:1.57974172;stroke-linecap:butt;stroke-linejoin:miter;stroke-miterlimit:4;stroke-opacity:1;stroke-dasharray:none" d="m 306.78642,639.10676 c 0,0 2.09322,1.00765 3.05699,1.22521 0.88409,0.19959 3.01527,0.18977 3.01527,0.18977" id="path6099"/>
      <path style="fill:none;stroke:#000000;stroke-width:1.57974172;stroke-linecap:butt;stroke-linejoin:miter;stroke-miterlimit:4;stroke-opacity:1;stroke-dasharray:none" d="m 316.33052,644.32307 c 0,0 -1.85246,-1.1033 -2.7422,-1.13417 -1.00296,-0.0348 -2.43235,0.38326 -3.17234,1.06111 -0.78954,0.72317 -1.42403,3.2724 -1.42403,3.2724" id="path6101"/>
      <path style="fill:none;stroke:#000000;stroke-width:1.57974172;stroke-linecap:butt;stroke-linejoin:miter;stroke-miterlimit:4;stroke-opacity:1;stroke-dasharray:none" d="m 317.05183,646.78314 c 0,0 -2.13463,-0.49542 -2.9076,-0.0904 -1.14603,0.60049 -1.89118,2.40832 -2.34337,3.62055 -0.24295,0.65133 -0.32249,2.29466 -0.32249,2.29466" id="path6103"/>
      <path style="fill:none;stroke:#000000;stroke-width:1.57974172;stroke-linecap:butt;stroke-linejoin:miter;stroke-miterlimit:4;stroke-opacity:1;stroke-dasharray:none" d="m 319.57087,650.10426 c 0,0 -2.43813,0.0299 -3.29674,0.54755 -0.79424,0.4789 -1.53719,1.59561 -1.87149,2.46072 -0.44063,1.14022 -0.35516,4.0591 -0.35516,4.0591" id="path6105"/>
      <path style="fill:none;stroke:#000000;stroke-width:1.57974172;stroke-linecap:butt;stroke-linejoin:miter;stroke-miterlimit:4;stroke-opacity:1;stroke-dasharray:none" d="m 293.27436,666.71966 c 0,0 1.88544,-1.66037 2.60882,-2.17926 0.98553,-0.70692 4.03408,-0.26609 4.03408,-0.26609" id="path6107"/>
      <path style="fill:none;stroke:#000000;stroke-width:1.57974172;stroke-linecap:butt;stroke-linejoin:miter;stroke-miterlimit:4;stroke-opacity:1;stroke-dasharray:none" d="m 283.22506,661.83483 c 0,0 1.12627,-1.32138 1.80548,-1.52465 0.93522,-0.27989 3.23073,0.38852 3.23073,0.38852" id="path6109"/>
      <path style="fill:#ffff00;fill-opacity:1;fill-rule:evenodd;stroke:#000000;stroke-width:1.8956902;stroke-linecap:butt;stroke-linejoin:miter;stroke-miterlimit:4;stroke-opacity:1;stroke-dasharray:none" d="m 265.77496,511.85445 c 0,0 1.17278,-7.68476 3.52792,-9.69132 0.71693,-0.61081 1.90916,-0.008 3.08321,-0.59171 1.26254,-0.62753 4.1076,-1.81319 4.27058,-3.21361 0.16669,-1.43282 -2.1219,-4.31478 -2.1219,-4.31478 0,0 -4.66271,-2.8869 -6.90356,-2.85408 -2.44115,0.0358 -7.4264,3.32818 -7.4264,3.32818 l -0.5695,6.67757 6.13965,10.65975 z" id="path6119"/>
      <path style="fill:#ffff00;fill-opacity:1;fill-rule:evenodd;stroke:#000000;stroke-width:1.8956902;stroke-linecap:butt;stroke-linejoin:miter;stroke-miterlimit:4;stroke-opacity:1;stroke-dasharray:none" d="m 357.78434,542.4472 c 0,0 -13.6136,39.88382 -43.77796,43.52621 -5.54353,0.6694 -13.25274,-1.18524 -18.24337,-3.68983 -2.51747,-1.26342 -6.992,-6.26622 -6.992,-6.26622 0,0 -4.28808,3.02475 -4.83716,5.04934 -0.40311,1.48644 0.48602,3.62463 1.19187,4.99347 0.76433,1.48215 3.65657,4.18678 3.65657,4.18678 0,0 -5.08142,-0.7122 -6.77148,-1.98729 -1.78316,-1.34529 -3.19618,-4.20158 -3.97753,-6.29415 -0.71589,-1.9171 -0.7417,-3.83571 -0.0131,-5.74802 0.53107,-1.39382 2.3304,-4.32304 2.3304,-4.32304 0,0 -3.73934,-4.25047 -5.2274,-6.39071 -1.3041,-1.87572 -3.63547,-6.69125 -3.63547,-6.69125 0,0 -1.78422,0.7041 -2.40045,1.22815 -0.55113,0.46872 -1.21272,1.2523 -1.42905,1.94269 -0.3084,0.98397 -0.56824,2.64399 0.0921,3.43598 0.69977,0.83931 3.56437,0.75081 3.56437,0.75081 0,0 -1.05844,1.79896 -1.85055,2.00689 -1.65977,0.43569 -4.26752,-0.50823 -5.44288,-1.75842 -1.76096,-1.87296 -2.39481,-5.74426 -2.12697,-8.30104 0.16264,-1.55272 1.31463,-3.45996 2.30826,-4.66412 1.02004,-1.23605 4.25101,-3.23505 4.25101,-3.23505 0,0 -2.9041,-2.36396 -3.59231,-3.76531 -0.50741,-1.03322 -0.10726,-2.74283 -0.57784,-3.79325 -0.61006,-1.36109 -2.88026,-2.36653 -3.1708,-3.82952 -0.85799,-4.32029 4.3318,-14.02864 4.3318,-14.02864 0,0 -2.80717,8.24412 -5.8168,9.94233 -1.35507,0.76465 -5.18605,-0.0725 -5.18605,-0.0725 l -4.1701,-7.55856 c 0,0 -0.0798,-2.85428 0.75077,-3.56439 1.95402,-1.67052 8.55785,-0.44108 8.55785,-0.44108 l -5.73595,-0.85127 -0.96298,-6.32208 4.31514,-2.81357 c 0,0 -4.89925,3.59485 -7.26549,3.26298 -1.34637,-0.18885 -3.46387,-2.92237 -3.46387,-2.92237 l 0.30137,-6.51469 c 0,0 0.92466,-3.09681 2.07944,-3.3355 3.10112,-0.64101 8.67793,6.0094 8.67793,6.0094 l -5.47082,-4.77293 1.30066,-2.78563 5.34244,3.92998 -5.40663,-4.35146 -0.28452,-4.70042 1.68587,-0.2568 c 0,0 -3.29176,-0.32771 -4.07143,-1.24857 -0.91292,-1.07813 -1.46411,-2.73553 -0.9016,-4.03142 0.87022,-2.00484 6.17503,-3.81563 6.17503,-3.81563 0,0 5.01183,-0.96744 6.4933,0.16091 1.25855,0.95856 1.87462,2.44039 1.90645,4.02211 0.0266,1.31653 -1.83195,4.01657 -1.83195,4.01657 0,0 2.6689,7.40288 4.43626,10.24928 2.05963,3.3172 5.52646,7.30135 8.41274,9.93107 2.74176,2.49802 7.40244,4.57309 10.13498,7.08121 4.18534,3.84161 9.19245,12.5649 12.50922,17.17731 4.2161,5.86305 14.49893,11.08403 14.49893,11.08403 l 45.34205,-15.40315 c 0,0 -0.0121,6.5404 -0.0121,6.5404 z" id="path6121"/>
      <path style="fill:none;stroke:#000000;stroke-width:1.57974184;stroke-linecap:butt;stroke-linejoin:miter;stroke-miterlimit:4;stroke-opacity:1;stroke-dasharray:none" d="m 280.33935,572.4793 c 0,0 2.10972,-2.75448 2.8649,-3.89454 0.61461,-0.92797 1.49779,-2.14703 2.32625,-2.89033 0.50126,-0.44971 1.89056,-1.21016 1.89056,-1.21016" id="path6123"/>
      <path style="fill:none;stroke:#000000;stroke-width:1.57974184;stroke-linecap:butt;stroke-linejoin:miter;stroke-miterlimit:4;stroke-opacity:1;stroke-dasharray:none" d="m 271.34899,558.86346 c 0,0 1.90348,-1.07225 2.79181,-1.34745 1.30624,-0.40466 3.31588,-0.0135 4.5063,-0.68642 1.43352,-0.8103 2.6734,-2.80248 3.50656,-4.22283 0.55779,-0.95098 1.32202,-3.42899 1.32202,-3.42899" id="path6125"/>
      <path style="fill:none;stroke:#000000;stroke-width:1.57974184;stroke-linecap:butt;stroke-linejoin:miter;stroke-miterlimit:4;stroke-opacity:1;stroke-dasharray:none" d="m 267.98262,550.38505 c 0,0 3.31252,-0.48088 4.54136,-1.85859" id="path6127"/>
      <path style="fill:none;stroke:#000000;stroke-width:1.57974184;stroke-linecap:butt;stroke-linejoin:miter;stroke-miterlimit:4;stroke-opacity:1;stroke-dasharray:none" d="m 266.86807,531.95628 c 0,0 3.27931,9.68776 7.11437,12.15328 2.70639,1.73992 8.21145,1.92224 8.21145,1.92224" id="path6129"/>
      <path style="fill:#ffff00;fill-opacity:1;fill-rule:evenodd;stroke:#000000;stroke-width:1.89568996;stroke-linecap:butt;stroke-linejoin:miter;stroke-miterlimit:4;stroke-opacity:1;stroke-dasharray:none" d="m 243.23149,583.13742 c 0.81246,-0.15839 1.98987,-0.10979 2.75066,0.21624 0.6044,0.259 1.28848,0.9027 1.63135,1.46375 0.91738,1.50121 0.70177,4.10008 1.49402,5.67095 1.2884,2.55491 5.97196,7.43704 5.97196,7.43704 l -10.92252,1.45883 -9.1335,-6.80933 0.83244,-4.0166 c 0,0 1.70123,-2.31929 2.66421,-3.06585 1.24884,-0.96813 3.16045,-2.05266 4.71138,-2.35503 z" id="path6139"/>
      <path style="fill:#f8c300;fill-opacity:1;fill-rule:evenodd;stroke:#000000;stroke-width:0.63189662px;stroke-linecap:butt;stroke-linejoin:miter;stroke-opacity:1" d="m 243.23637,583.22846 0,0 z" id="path6141"/>
      <path style="fill:#ffff00;fill-opacity:1;fill-rule:evenodd;stroke:#000000;stroke-width:1.89568996;stroke-linecap:butt;stroke-linejoin:miter;stroke-miterlimit:4;stroke-opacity:1;stroke-dasharray:none" d="m 342.1422,561.61334 -42.05027,9.04868 -43.09959,20.06613 -12.07085,5.8848 -3.41311,-2.01775 c 0,0 -2.57085,-4.50558 -4.42997,-5.54187 -1.24361,-0.6932 -4.71136,-0.57083 -4.71136,-0.57083 l -3.3081,10.09075 c 0,0 0.55129,2.48472 1.27647,3.23474 0.76915,0.79551 3.38341,1.46871 3.38341,1.46871 l 3.49437,-1.56584 c 0.41426,-0.46168 10.33295,0.0526 12.06947,0.90309 0.41898,0.20521 1.25409,-0.74372 1.03856,-1.15753 -0.23504,-0.45141 -1.77796,0.30815 -3.0937,0.34394 -1.71686,0.0467 -2.63089,0.61714 -3.41424,0.57848 -3.00395,-0.14826 -3.05251,0.20554 -5.09371,1.72834 -0.88691,0.66167 -1.46873,3.38341 -1.46873,3.38341 l 8.22168,9.46637 c 0,0 4.37783,0.98279 5.77974,-0.0377 1.6469,-1.1988 1.1076,-4.68512 2.12876,-6.44769 0.76006,-1.31202 2.09454,-4.57343 3.37546,-3.76199 1.21654,0.77067 -2.41326,1.61292 -3.56612,3.65513 -1.41606,2.50861 -0.58039,6.2057 -0.58039,6.2057 l 3.50231,3.66485 c 0,0 7.20779,0.27459 9.85289,-1.08422 0.41504,-0.21318 1.00068,-0.69251 1.03861,-1.15752 0.0793,-0.97217 1.03473,-3.85005 0.15399,-5.02079 -1.08672,-1.44466 -3.05955,-2.23134 -3.05955,-2.23134 0,0 -0.46452,0.19866 0.14492,0.0467 1.35807,-0.33861 3.04209,2.23438 3.04209,2.23438 l 6.32087,-5.29809 c 0,0 0.47113,1.6276 0.36992,2.32727 -0.17195,1.18889 -1.7232,3.61441 -1.7232,3.61441 0,0 4.03472,-0.71616 6.04529,-1.95534 1.48944,-0.91798 4.31461,-2.92629 5.01126,-4.53118 0.46441,-1.06992 1.17446,-2.07729 1.17446,-2.07729 0,0 0.46307,3.54936 -0.15681,5.60217 -0.37245,1.23331 -1.97509,3.01617 -1.97509,3.01617 0,0 2.34692,-0.005 4.32478,-0.55332 1.80379,-0.49968 3.22973,-1.53435 3.70105,-1.75917 0.0921,-0.0439 2.31771,-1.28394 3.72854,-4.05956 1.33071,-2.61802 0.54965,-2.47905 2.25619,-3.47857 0.43786,-0.25647 0.69013,1.93428 0.2856,4.22678 -0.35904,2.0331 -1.36038,4.18206 -1.33591,4.24148 2.20362,-0.39879 8.64984,-2.61413 11.21441,-4.59565 4.30106,-3.32323 5.75419,-10.33714 6.67876,-9.97345 4.00286,1.57457 14.06172,1.23684 17.35824,4.00001 3.16797,2.65541 10.41465,-2.56077 14.28279,-1.10309 6.19926,2.33615 14.0834,-28.49325 14.0834,-28.49325 l -7.45376,-11.06495 -9.33358,0.50543 z" id="path6143"/>
      <g id="g6153" style="fill:#ffff00;fill-opacity:1" transform="matrix(0.53679236,0.33338764,-0.33338764,0.53679236,306.87346,384.74001)">
        <path id="path6155" d="m 289.05502,263.42538 c -4.19398,1.66727 -8.61991,6.1952 -11.58428,9.5984 -1.61077,1.84921 -4.30273,6.95057 -4.30273,6.95057 0,0 6.51859,-0.7483 9.26742,-1.32392 5.44675,-1.14057 12.31629,-4.66125 17.8729,-4.96469 4.92248,-0.26881 11.48159,1.28053 16.218,2.64784 5.38642,1.55495 17.21093,7.28155 17.21093,7.28155 0,0 -11.1359,-18.50768 -19.19681,-21.84465 -7.07913,-2.93054 -18.36566,-1.17548 -25.48543,1.6549 z" style="fill:#ffff00;fill-opacity:1;fill-rule:evenodd;stroke:#000000;stroke-width:3;stroke-linecap:butt;stroke-linejoin:miter;stroke-miterlimit:4;stroke-opacity:1;stroke-dasharray:none"/>
      </g>
      <path style="fill:#ffff00;fill-opacity:1;fill-rule:evenodd;stroke:#000000;stroke-width:1.89568985;stroke-linecap:butt;stroke-linejoin:miter;stroke-miterlimit:4;stroke-opacity:1;stroke-dasharray:none" d="m 382.33942,705.68432 c 0,0 -4.79441,-3.11743 -5.67869,-5.26592 -0.60638,-1.47319 0.85079,-3.84109 0.22386,-5.30572 -0.60301,-1.40876 -2.36528,-2.95501 -3.84128,-3.36716 -1.10647,-0.309 -3.7708,0.66722 -3.7708,0.66722 l -2.71937,7.40673 2.4382,2.77447 4.86303,3.87165 8.48505,-0.78127 z" id="path6157"/>
      <path style="fill:#ffff00;fill-opacity:1;fill-rule:evenodd;stroke:#000000;stroke-width:1.89568985;stroke-linecap:butt;stroke-linejoin:miter;stroke-miterlimit:4;stroke-opacity:1;stroke-dasharray:none" d="m 317.26069,557.38177 c 0,0 -16.53064,38.61676 -13.12586,41.24543 3.27193,2.52616 21.40103,6.13684 25.32455,7.43814 6.28798,2.08552 19.91477,8.76313 26.27441,10.61868 4.78334,1.39564 11.34913,4.7364 15.79313,6.99004 4.90695,2.48839 12.00982,5.87826 15.0711,10.44976 1.89543,2.83054 3.08068,7.74868 2.42915,11.09234 -0.9857,5.05812 -6.88664,9.43547 -10.12336,13.44537 -0.53969,0.66857 -2.43603,0.57227 -4.03726,2.77262 -1.66655,2.29017 -3.04962,6.86858 -4.14016,6.98614 -1.91257,0.20619 -5.43865,-1.72118 -5.43865,-1.72118 0,0 0.43084,2.49452 2.00813,4.22995 1.25716,1.38318 3.63132,2.09492 4.27412,2.05074 1.60207,-0.11013 3.72606,-1.17517 4.21038,-1.38242 2.46632,-1.05546 5.70006,-6.89008 5.70006,-6.89008 0,0 -6.18858,7.68733 -6.08139,11.62056 0.0469,1.73336 1.61302,3.0398 1.42532,4.76356 -0.2025,1.85883 -0.59529,3.86306 -2.44437,4.14087 -2.69271,0.40453 -6.3382,-0.46557 -6.3382,-0.46557 0,0 1.73443,2.72212 4.37222,3.96507 1.64132,0.77349 3.60854,0.81259 5.26977,0.0828 3.66987,-1.61221 7.88966,-5.49247 9.92412,-8.94614 1.19138,-2.0225 1.76481,-7.62274 1.76481,-7.62274 0,0 -3.52224,8.56022 -2.44572,12.10538 0.74866,2.46549 4.50003,5.15661 4.50003,5.15661 0,0 -4.42155,1.82725 -6.46095,3.31309 -3.21769,2.34428 -7.52753,10.92884 -7.52753,10.92884 0,0 -5.23052,-1.64438 -7.17882,-2.91136 -1.27487,-0.82911 -2.16355,-3.1844 -3.64656,-3.52137 -1.073,-0.24382 -3.48049,1.15739 -3.48049,1.15739 l -2.00179,10.95883 c 0,0 1.5426,2.97826 2.79958,3.32532 2.11402,0.58365 4.61283,-2.03611 6.91059,-2.38434 2.27161,-0.34422 6.9705,0.24388 6.9705,0.24388 l -8.04488,5.45488 -0.23699,3.33608 6.89007,5.70013 c 0,0 4.27522,-0.78962 5.3188,-2.15955 1.43111,-1.87875 0.91782,-7.81885 0.91782,-7.81885 0,0 1.64941,1.64909 2.11819,2.86595 0.5841,1.51597 -0.0512,4.39461 -0.0512,4.39461 l 3.29528,2.72616 6.37271,0.22609 c 0,0 2.64565,-2.01476 2.72609,-3.29528 0.14216,-2.26126 -4.04777,-6.37626 -4.04777,-6.37626 l 6.90744,-1.34989 0.87695,-5.32968 c 0,0 2.43017,6.70722 4.90749,8.09671 1.58905,0.89128 4.39729,0.69318 6.07313,-0.0217 1.39882,-0.59672 3.52137,-3.64656 3.52137,-3.64656 0,0 -2.64377,1.17263 -3.78008,0.90952 -1.0227,-0.23673 -2.62809,-1.18288 -2.69611,-2.23046 -0.1287,-1.9821 4.51269,-4.84483 4.51269,-4.84483 0,0 4.28794,2.1046 6.28007,2.16787 1.42301,0.0452 3.64382,-0.18401 4.57529,-1.26087 0.99493,-1.15018 0.62914,-5.0301 0.62914,-5.0301 0,0 -1.13294,1.9948 -2.29315,2.16196 -1.17735,0.16963 -3.41201,-0.24598 -3.97609,-1.29326 -1.07396,-1.99382 0.67008,-7.51921 0.67008,-7.51921 0,0 4.48374,1.04368 6.40549,-0.0287 0.76032,-0.4243 2.03832,-2.02167 2.1311,-3.39844 0.1395,-2.0688 -0.30789,-3.0481 -0.30789,-3.0481 0,0 -1.0563,2.61377 -2.51774,2.62177 -1.47538,0.008 -3.52959,-0.74599 -4.58618,-1.7757 -1.79344,-1.74792 -3.08987,-5.20325 -3.21347,-7.70453 -0.14951,-3.02893 1.26512,-5.99477 2.13613,-8.89964 0.2552,-0.85086 0.88108,-2.36476 0.88108,-2.36476 0,0 3.41536,2.45021 5.24382,2.89043 1.28296,0.30893 4.16098,-0.36267 5.19528,-1.18223 1.54566,-1.22474 2.70563,-4.35344 2.09837,-6.22969 -0.50414,-1.55755 -3.01619,-2.71235 -3.01619,-2.71235 0,0 0.3652,2.53948 0.25482,3.67452 -0.0786,0.80574 -2.12435,1.41621 -2.88981,1.67974 -0.62508,0.21519 -1.51155,-0.56266 -1.91919,-1.08316 -2.015,-2.5728 -2.18301,-6.82442 -1.99776,-10.08712 0.13177,-2.32026 2.91137,-7.17879 2.91137,-7.17879 0,0 5.05969,3.59006 7.58187,4.25399 1.84187,0.48487 2.51646,-2.70128 1.41783,-5.43597 -1.33929,-3.3336 -5.89036,-4.20804 -5.89036,-4.20804 0,0 -8.71567,-10.42152 -10.79065,-13.03879 -5.62784,-7.0986 -7.73362,-13.7851 -13.96937,-20.35611 -2.41006,-2.53958 -6.51762,-6.53559 -9.15519,-8.83791 -4.48236,-3.91252 -12.03612,-9.33337 -16.23096,-13.55265 -7.09805,-7.13939 -23.11963,-23.41659 -23.11963,-23.41659 l -7.89173,-10.75696 -30.7779,1.07616 0,0 z" id="path6159"/>
      <path style="fill:none;stroke:#000000;stroke-width:1.5797416;stroke-linecap:butt;stroke-linejoin:miter;stroke-miterlimit:4;stroke-opacity:1;stroke-dasharray:none" d="m 413.94922,689.54801 c 0,0 1.09789,3.13617 1.89784,4.29603 0.67843,0.98354 2.83374,2.7986 2.83374,2.7986" id="path6161"/>
      <path style="fill:none;stroke:#000000;stroke-width:1.5797416;stroke-linecap:butt;stroke-linejoin:miter;stroke-miterlimit:4;stroke-opacity:1;stroke-dasharray:none" d="m 411.61222,708.66499 c 0,0 1.43856,-3.4622 1.5955,-5.04058 0.17393,-1.74902 -0.0166,-4.17854 -0.63336,-5.82443 -0.22949,-0.61239 -1.24644,-1.7884 -1.24644,-1.7884" id="path6163"/>
      <path style="fill:none;stroke:#000000;stroke-width:1.5797416;stroke-linecap:butt;stroke-linejoin:miter;stroke-miterlimit:4;stroke-opacity:1;stroke-dasharray:none" d="m 405.79195,697.94376 c 0,0 1.89506,3.27554 1.87005,4.87877 -0.037,2.36696 -1.69506,5.26638 -2.18408,7.58255 -0.24681,1.16907 -0.67549,2.75923 -0.53865,3.94617 0.10565,0.91882 1.10093,2.87957 1.10093,2.87957" id="path6165"/>
      <path style="fill:none;stroke:#000000;stroke-width:1.5797416;stroke-linecap:butt;stroke-linejoin:miter;stroke-miterlimit:4;stroke-opacity:1;stroke-dasharray:none" d="m 400.62041,709.86966 c 0,0 0.72733,-5.87376 0.8109,-7.20408 0.07,-1.11418 -0.63915,-3.25474 -0.63915,-3.25474" id="path6167"/>
      <g id="g6169" transform="matrix(0.6139064,0.14970732,-0.14970732,0.6139064,249.79007,438.1524)">
        <path id="path6171" d="m 240.27146,181.84304 -3.61196,11.48404" style="fill:none;stroke:#000000;stroke-width:2.5;stroke-linecap:butt;stroke-linejoin:miter;stroke-miterlimit:4;stroke-opacity:1;stroke-dasharray:none"/>
        <path id="path6173" d="m 246.19474,185.0926 -3.50802,8.75685" style="fill:none;stroke:#000000;stroke-width:2.5;stroke-linecap:butt;stroke-linejoin:miter;stroke-miterlimit:4;stroke-opacity:1;stroke-dasharray:none"/>
        <path id="path6175" d="m 251.03543,189.02551 -1.32886,6.36043" style="fill:none;stroke:#000000;stroke-width:2.5;stroke-linecap:butt;stroke-linejoin:miter;stroke-miterlimit:4;stroke-opacity:1;stroke-dasharray:none"/>
        <path id="path6177" d="m 255.83342,191.85691 -1.62994,6.14591" style="fill:none;stroke:#000000;stroke-width:2.5;stroke-linecap:butt;stroke-linejoin:miter;stroke-miterlimit:4;stroke-opacity:1;stroke-dasharray:none"/>
      </g>
      <path style="fill:none;stroke:#000000;stroke-width:1.5797416;stroke-linecap:butt;stroke-linejoin:miter;stroke-miterlimit:4;stroke-opacity:1;stroke-dasharray:none" d="m 401.49544,689.23856 -3.61426,1.02551 -5.74892,-0.62019 c 0,0 -0.18038,1.35344 0.11161,2.19596 0.18686,0.53909 0.91744,1.43269 1.44991,1.63773 0.99218,0.3821 2.46392,0.75342 3.50389,0.53223 0.52017,-0.11067 1.49254,-0.9565 1.49254,-0.9565" id="path6179"/>
      <path style="fill:none;stroke:#000000;stroke-width:1.5797416;stroke-linecap:butt;stroke-linejoin:miter;stroke-miterlimit:4;stroke-opacity:1;stroke-dasharray:none" d="m 396.30389,669.23605 c 0,0 -2.06087,3.53468 -2.07427,5.21964 -0.0125,1.57325 1.01187,3.57798 1.85893,4.90374 0.72755,1.1387 1.4778,2.14862 2.75628,2.58619 1.12084,0.38367 4.30695,0.0953 4.30695,0.0953 0,0 -2.65003,1.90108 -3.9872,2.10726 -1.76303,0.27183 -4.28156,-0.21591 -5.84992,-1.06582 -1.02328,-0.55453 -2.05838,-1.82561 -2.66651,-2.81799 -0.81767,-1.33415 -1.74832,-4.91415 -1.74832,-4.91415" id="path6181"/>
      <path style="fill:none;stroke:#000000;stroke-width:1.5797416;stroke-linecap:butt;stroke-linejoin:miter;stroke-miterlimit:4;stroke-opacity:1;stroke-dasharray:none" d="m 383.97199,670.45743 c 0,0 -2.45492,3.23093 -2.65893,4.94002 -0.15927,1.33461 0.60246,3.0734 0.52902,4.4154 -0.069,1.2592 -0.30767,2.57934 -0.76139,3.75598 -0.48589,1.26001 -2.56419,4.93156 -2.56419,4.93156" id="path6183"/>
      <path style="fill:none;stroke:#000000;stroke-width:1.5797416;stroke-linecap:butt;stroke-linejoin:miter;stroke-miterlimit:4;stroke-opacity:1;stroke-dasharray:none" d="m 348.23113,603.892 c 0,0 2.94977,2.25525 3.90881,3.33535 0.55742,0.6278 3.01408,3.80489 3.01408,3.80489" id="path6185"/>
      <path style="fill:none;stroke:#000000;stroke-width:1.5797416;stroke-linecap:butt;stroke-linejoin:miter;stroke-miterlimit:4;stroke-opacity:1;stroke-dasharray:none" d="m 355.59065,606.60845 c 0,0 4.0141,3.35796 5.30936,4.83849 0.68267,0.7803 2.26122,3.51582 2.26122,3.51582" id="path6187"/>
      <path style="fill:none;stroke:#000000;stroke-width:1.5797416;stroke-linecap:butt;stroke-linejoin:miter;stroke-miterlimit:4;stroke-opacity:1;stroke-dasharray:none" d="m 362.4821,609.26436 c 0,0 3.01098,3.36994 4.12232,4.95132 0.79904,1.13704 2.34528,3.99487 2.34528,3.99487 0,0 0,0 0,0" id="path6189"/>
      <path style="fill:none;stroke:#000000;stroke-width:1.5797416;stroke-linecap:butt;stroke-linejoin:miter;stroke-miterlimit:4;stroke-opacity:1;stroke-dasharray:none" d="m 370.02124,613.18998 c 0,0 2.10891,2.28349 2.84983,3.38497 0.69199,1.02878 1.59659,2.46162 1.92473,3.65726 0.31895,1.16229 0.20581,4.01224 0.20581,4.01224" id="path6191"/>
      <g id="armed">
        <path style="fill:#ff2a2a;fill-rule:evenodd;stroke:#000000;stroke-width:1.57974172;stroke-linecap:butt;stroke-linejoin:miter;stroke-miterlimit:4;stroke-opacity:1;stroke-dasharray:none" d="m 283.90762,645.69304 c -0.98428,-0.73955 -1.46308,-2.51394 -2.35996,-3.35732 -1.35214,-1.27146 -5.27053,-3.24015 -5.27053,-3.24015 0,0 3.20862,-0.64192 4.58329,-0.49137 1.66426,0.18227 4.02543,0.68298 5.28854,1.7818 0.97068,0.84441 1.94828,2.54912 1.91888,3.83537 -0.0191,0.83593 -0.57872,2.13433 -1.3597,2.433 -0.8297,0.31728 -2.09035,-0.42774 -2.80052,-0.96133 z" id="path6111"/>
        <path style="fill:#ff2a2a;fill-opacity:1;fill-rule:evenodd;stroke:#000000;stroke-width:1.57974172;stroke-linecap:butt;stroke-linejoin:miter;stroke-miterlimit:4;stroke-opacity:1;stroke-dasharray:none" d="m 274.4396,648.76443 c 0.70968,0.6143 1.40847,1.73025 1.71216,2.62816 0.3105,0.91795 0.73249,2.37195 0.25846,3.25275 -0.30225,0.56166 -1.22883,0.92217 -1.84563,1.04933 -0.44064,0.0908 -1.05535,-0.0236 -1.46823,-0.17507 -0.87153,-0.31987 -1.64599,-1.52509 -2.56131,-1.70785 -0.80103,-0.15991 -1.96547,0.14006 -2.72122,0.50366 -1.0689,0.51419 -1.64687,0.66543 -2.36821,1.6157 -0.55228,0.72754 -1.60164,3.50242 -1.60164,3.50242 0,0 -1.32569,-3.15071 -1.27909,-4.45646 0.0681,-1.90794 0.72229,-3.76532 2.10498,-5.13498 0.8733,-0.8651 2.51394,-1.44877 3.69855,-1.69884 1.4617,-0.30858 3.49978,-0.23467 4.92951,0.0921 0.37045,0.0847 0.85738,0.28299 1.14167,0.52905 z" id="path6113"/>
        <path style="fill:#ff2a2a;fill-opacity:1;fill-rule:evenodd;stroke:#000000;stroke-width:1.57974172;stroke-linecap:butt;stroke-linejoin:miter;stroke-miterlimit:4;stroke-opacity:1;stroke-dasharray:none" d="m 281.88289,668.00585 c 0.54157,-0.0764 1.32388,0.19509 1.73687,0.55357 1.01933,0.88475 2.1543,2.71684 1.95562,4.05188 -0.15077,1.01304 -1.47737,1.91976 -2.31502,2.50919 -1.24546,0.87648 -3.17343,1.72199 -4.67435,1.98068 -1.38819,0.23927 -4.68737,-0.27894 -4.68737,-0.27894 0,0 2.71173,-1.90153 3.54118,-3.02616 0.7691,-1.04276 0.88146,-2.97022 1.71083,-3.96565 0.63092,-0.75725 1.75626,-1.68691 2.73224,-1.82457 z" id="path6115"/>
        <path style="fill:#ff2a2a;fill-opacity:1;fill-rule:evenodd;stroke:#000000;stroke-width:1.57974172;stroke-linecap:butt;stroke-linejoin:miter;stroke-miterlimit:4;stroke-opacity:1;stroke-dasharray:none" d="m 300.17955,675.29675 c 1.19513,-0.27342 2.76166,1.05242 3.58599,1.95992 0.70596,0.7772 0.91056,1.56457 0.88457,2.61423 -0.0341,1.37931 -0.98851,3.21276 -2.0158,4.13381 -0.63813,0.57214 -1.83424,0.90076 -2.68888,0.96552 -1.00578,0.076 -1.88338,0.36143 -2.80743,-0.0429 -1.06625,-0.46653 -3.13166,-2.28995 -3.13166,-2.28995 0,0 2.53387,-0.17401 3.3986,-0.76027 0.93971,-0.63722 1.90525,-2.01335 2.13428,-3.12542 0.12402,-0.60192 -0.52313,-1.40998 -0.39263,-2.01053 0.11313,-0.52058 0.51365,-1.32562 1.03296,-1.44442 z" id="path6117"/>
        <path style="fill:#ff2a2a;fill-rule:evenodd;stroke:#000000;stroke-width:1.57974184;stroke-linecap:butt;stroke-linejoin:miter;stroke-miterlimit:4;stroke-opacity:1;stroke-dasharray:none" d="m 268.12019,494.42951 c 0.23104,0.94761 0.98529,2.17369 1.80289,2.7056 0.62478,0.40647 1.75708,0.7003 2.44841,0.42177 0.92758,-0.37369 1.78963,-0.84701 2.03933,-1.81532 0.67709,-2.62528 0.59742,-5.84204 -0.65972,-8.24415 -0.95159,-1.8183 -3.12477,-3.9395 -5.07049,-4.59205 -0.89563,-0.30038 -1.73566,-0.54799 -2.61305,-0.19802 -0.88252,0.35201 -2.92935,1.63831 -2.92935,1.63831 0,0 2.16213,0.42752 2.92552,0.94514 0.85316,0.57848 1.74843,1.71567 2.19122,2.64645 0.55752,1.17183 0.14142,2.16486 0.19852,3.46129 0.0395,0.91391 -0.54977,2.14224 -0.33303,3.03096 z" id="path6131"/>
        <path style="fill:#ff2a2a;fill-opacity:1;fill-rule:evenodd;stroke:#000000;stroke-width:1.57974184;stroke-linecap:butt;stroke-linejoin:miter;stroke-miterlimit:4;stroke-opacity:1;stroke-dasharray:none" d="m 243.70379,488.49811 c 0,0 0.0133,-3.39722 1.2615,-4.76186 1.25761,-1.37499 3.67993,-2.60273 5.52952,-2.82911 1.25985,-0.1542 3.05221,0.2759 4.12017,0.96185 2.04175,1.31143 3.8785,3.3462 4.63586,5.65168 0.31742,0.9664 0.64167,2.18604 0.27906,3.1364 -0.41698,1.09278 -1.52236,1.80458 -2.67601,1.99709 -0.82607,0.13784 -2.135,-0.84187 -2.79055,-1.36307 -1.68901,-1.34285 -1.8684,-4.41981 -3.79996,-5.38163 -0.60141,-0.29947 -1.55741,-0.33542 -2.22471,-0.25717 -0.59683,0.07 -1.3178,0.47889 -1.88257,0.68413 -0.84722,0.30786 -2.45231,2.16169 -2.45231,2.16169 z" id="path6133"/>
        <path style="fill:#ff2a2a;fill-opacity:1;fill-rule:evenodd;stroke:#000000;stroke-width:1.57974184;stroke-linecap:butt;stroke-linejoin:miter;stroke-miterlimit:4;stroke-opacity:1;stroke-dasharray:none" d="m 247.67114,511.93433 c 0.58089,-0.20242 1.54639,-0.34499 1.85304,-0.87831 0.44153,-0.76795 0.20882,-2.1842 -0.24952,-2.94223 -0.64822,-1.07201 -1.2948,-1.93993 -2.52049,-2.19893 -0.69179,-0.1462 -3.56138,0.89649 -4.18313,1.23325 -1.54574,0.8372 -2.45808,1.79034 -3.05151,3.44505 -0.54041,1.5068 -0.48776,3.89377 0.21609,5.33151 0.55084,1.12516 2.07605,2.12289 3.1917,2.69273 0.68224,0.34843 2.47801,0.61595 2.47801,0.61595 0,0 -1.56299,-2.97623 -1.45698,-4.34776 0.0618,-0.79909 0.59519,-1.88083 1.22807,-2.37257 0.60668,-0.47138 1.76919,-0.3259 2.49472,-0.57869 z" id="path6135"/>
        <path style="fill:#ff2a2a;fill-opacity:1;fill-rule:evenodd;stroke:#000000;stroke-width:1.57974184;stroke-linecap:butt;stroke-linejoin:miter;stroke-miterlimit:4;stroke-opacity:1;stroke-dasharray:none" d="m 251.5908,527.23185 c 0.69865,-0.69826 2.46401,-0.0944 3.25472,0.49763 0.83583,0.62579 1.53927,2.11102 1.47371,3.15311 -0.0735,1.16732 -1.19088,2.53801 -2.08063,3.29717 -1.25036,1.06679 -3.39221,2.16878 -5.03576,2.15784 -1.74891,-0.0116 -4.09988,-1.12176 -5.32762,-2.36737 -1.32432,-1.34356 -2.29354,-3.90463 -2.47035,-5.78285 -0.0769,-0.81712 0.58639,-2.6722 0.58639,-2.6722 0,0 1.14954,2.57252 2.08578,3.25856 1.29825,0.95125 3.57236,1.47605 5.17978,1.3965 0.84264,-0.0417 1.91717,-2.52185 2.33399,-2.93839 z" id="path6137"/>
        <path style="fill:#ff2a2a;fill-rule:evenodd;stroke:#000000;stroke-width:1.5797416;stroke-linecap:butt;stroke-linejoin:miter;stroke-miterlimit:4;stroke-opacity:1;stroke-dasharray:none" d="m 244.93811,586.52762 c 0.0236,-1.8158 -0.84703,-3.65917 -2.23962,-4.82469 -1.19765,-1.00237 -3.46098,-1.29382 -5.02054,-1.37677 -1.61208,-0.0858 -3.94574,0.004 -5.31131,0.86465 -0.71445,0.45054 -1.12416,0.97634 -1.30376,1.80169 -0.1693,0.77814 -0.19522,2.48355 -0.19522,2.48355 0,0 1.30654,-1.09265 1.99693,-1.17976 1.03823,-0.13102 2.41163,0.50928 3.34994,0.97264 0.97522,0.4816 1.98845,1.5872 2.91918,2.15004 0.65262,0.39469 1.53223,0.99562 2.28591,1.1127 0.80856,0.12561 2.03416,0.0836 2.699,-0.39346 0.44048,-0.31607 0.81246,-1.0685 0.81949,-1.61059 z" id="path6145"/>
        <path style="fill:#ff2a2a;fill-rule:evenodd;stroke:#000000;stroke-width:1.5797416;stroke-linecap:butt;stroke-linejoin:miter;stroke-miterlimit:4;stroke-opacity:1;stroke-dasharray:none" d="m 236.75518,593.73023 c -0.20532,0.95666 -1.19743,2.10307 -2.09012,2.50373 -0.79137,0.35522 -2.07997,0.21944 -2.89003,-0.0908 -1.04412,-0.39984 -1.79007,-2.0462 -2.85034,-2.40106 -1.26446,-0.42323 -3.16637,-0.15996 -4.43831,0.24033 -0.83278,0.26209 -1.88881,0.88577 -2.47229,1.53524 -0.75334,0.83858 -1.63021,3.38559 -1.63021,3.38559 0,0 -0.91233,-4.74423 -0.19168,-6.58424 0.57366,-1.4647 2.31449,-2.94802 3.67161,-3.74344 1.22013,-0.71511 3.13664,-1.17017 4.54937,-1.23555 1.31639,-0.0609 3.134,0.19578 4.32738,0.75485 1.13889,0.53354 2.51813,1.6532 3.19683,2.71203 0.49145,0.76667 1.00886,2.03292 0.81779,2.92329 z" id="path6147"/>
        <path style="fill:#ff2a2a;fill-rule:evenodd;stroke:#000000;stroke-width:1.5797416;stroke-linecap:butt;stroke-linejoin:miter;stroke-miterlimit:4;stroke-opacity:1;stroke-dasharray:none" d="m 244.36314,612.44264 c 0.76199,-1.05282 0.60713,-2.45429 -0.10923,-3.5387 -0.78937,-1.19503 -2.50968,-2.70301 -3.94101,-2.75416 -1.03354,-0.0369 -1.95413,1.41628 -2.77438,2.04619 -1.01079,0.77632 -2.45278,1.71729 -3.3185,2.6527 -0.88559,0.95694 -1.95657,2.38483 -2.44316,3.59448 -0.2929,0.72807 -0.63781,1.82035 -0.43738,2.5791 0.28887,1.09356 2.38383,2.92093 2.38383,2.92093 0,0 -0.54593,-2.57054 -0.10917,-3.53871 0.39193,-0.86888 1.58213,-1.62461 2.44557,-2.02839 1.39834,-0.65392 3.52404,-0.78203 5.0603,-0.93349 1.22971,-0.1212 2.51865,0 3.24313,-0.99995 z" id="path6149"/>
        <path style="fill:#ff2a2a;fill-rule:evenodd;stroke:#000000;stroke-width:1.5797416;stroke-linecap:butt;stroke-linejoin:miter;stroke-miterlimit:4;stroke-opacity:1;stroke-dasharray:none" d="m 262.41271,618.47198 c 0.54103,1.40123 1.0272,2.88082 0.64681,4.33391 -0.41559,1.58784 -2.15712,3.39843 -3.65379,4.0722 -0.94682,0.42624 -1.98936,0.71083 -3.01883,0.57565 -1.08391,-0.14234 -3.51437,-0.96375 -3.51437,-0.96375 0,0 1.74431,-1.03412 2.38565,-1.61298 0.75221,-0.67896 1.87502,-1.62025 2.16785,-2.59037 0.3787,-1.25496 -0.96286,-3.12314 -0.4825,-4.34282 0.29683,-0.75365 1.25045,-1.61793 2.04793,-1.75955 0.84925,-0.1508 2.03598,0.44887 2.69246,1.00825 0.33624,0.28649 0.56964,0.86738 0.72879,1.27946 z" id="path6151"/>
        <path style="fill:#ff2a2a;fill-rule:evenodd;stroke:#000000;stroke-width:1.5797416;stroke-linecap:butt;stroke-linejoin:miter;stroke-miterlimit:4;stroke-opacity:1;stroke-dasharray:none" d="m 371.60306,694.73308 c -0.11429,-1.26804 -1.70041,-2.53234 -2.78074,-3.20598 -1.27153,-0.79281 -1.92211,-1.01485 -3.41424,-1.15202 -1.30208,-0.11974 -3.18495,-0.27271 -4.34626,0.32819 -1.23932,0.64128 -2.96492,3.58391 -2.96492,3.58391 0,0 4.07835,-0.92951 5.8043,-0.63122 1.87585,0.32423 2.48217,2.06601 4.29797,2.63769 0.65625,0.20664 1.64135,0.6562 2.26434,0.36416 0.6076,-0.28486 1.19982,-1.25637 1.13956,-1.92473 z" id="path6193"/>
        <path style="fill:#ff2a2a;fill-rule:evenodd;stroke:#000000;stroke-width:1.5797416;stroke-linecap:butt;stroke-linejoin:miter;stroke-miterlimit:4;stroke-opacity:1;stroke-dasharray:none" d="m 364.33732,700.88271 c 0.95856,0.86441 1.61485,1.02895 1.70562,2.31655 0.0791,1.12327 -0.52367,2.86881 -1.49145,3.44458 -0.58211,0.34633 -1.58317,-0.0754 -2.24889,-0.20043 -1.12097,-0.21041 -2.51096,-1.06999 -3.65148,-1.05889 -0.95788,0.009 -2.25314,0.41542 -3.04878,0.9489 -0.63739,0.4274 -1.2838,1.28647 -1.63068,1.97109 -0.36671,0.72383 -0.13329,1.5395 -0.27451,2.33847 -0.0436,0.24775 -1.5312,-1.27121 -1.94342,-2.21139 -0.42604,-0.9717 -0.63172,-2.47373 -0.41454,-3.51224 0.31107,-1.4876 1.42973,-2.28404 2.4892,-3.37373 0.99974,-1.02817 2.53378,-1.04173 3.91054,-1.44326 1.40213,-0.40898 3.44246,-0.36344 4.86834,-0.0472 0.5617,0.12457 1.30282,0.44228 1.73005,0.82756 z" id="path6195"/>
        <path style="fill:#ff2a2a;fill-rule:evenodd;stroke:#000000;stroke-width:1.5797416;stroke-linecap:butt;stroke-linejoin:miter;stroke-miterlimit:4;stroke-opacity:1;stroke-dasharray:none" d="m 371.57823,718.94644 c 0,0 2.37266,0.47555 3.23443,1.01571 0.47661,0.29874 0.75545,0.53297 0.92692,1.06866 0.36304,1.13399 0.18361,2.98469 -0.5368,3.93252 -0.97267,1.2792 -3.40569,1.58068 -4.92057,2.11686 -1.03995,0.36811 -3.18155,1.29181 -3.18155,1.29181 0,0 1.80951,-6.42687 2.4962,-7.48658 0.82335,-1.27061 1.85171,-1.88168 1.98137,-1.93898 z" id="path6198"/>
        <path style="fill:#ff2a2a;fill-rule:evenodd;stroke:#000000;stroke-width:1.5797416;stroke-linecap:butt;stroke-linejoin:miter;stroke-miterlimit:4;stroke-opacity:1;stroke-dasharray:none" d="m 393.64111,722.55986 c 0.78072,0.30442 1.69956,1.11997 2.07619,1.86855 0.46559,0.9255 0.67735,2.46388 0.32495,3.4381 -0.48884,1.35134 -2.15709,2.65126 -3.39743,3.37698 -1.64529,0.96262 -6.11295,1.73401 -6.11295,1.73401 0,0 1.98401,-2.2847 2.65293,-3.38919 0.41207,-0.68043 1.06392,-1.62085 1.09308,-2.41585 0.0355,-0.96864 -1.27637,-2.07793 -1.11256,-3.03327 0.10605,-0.6189 0.76462,-1.34842 1.33419,-1.61273 0.85493,-0.39679 2.26343,-0.30892 3.1416,0.0334 z" id="path6200"/>
      </g>
      <g id="g6202" transform="matrix(0.63079284,-0.03733267,0.03733267,0.63079284,-801.2852,-27.576311)">
        <path id="path6204" d="m 1841.1994,1163.6691 c -4.7582,-5.1178 -8.459,-11.1388 -12.3841,-16.9034" style="fill:none;stroke:#000000;stroke-width:2.5;stroke-linecap:butt;stroke-linejoin:miter;stroke-miterlimit:4;stroke-opacity:1;stroke-dasharray:none"/>
        <path id="path6206" d="m 1845.6018,1168.0578 c 0,0 4.136,5.5593 4.6872,8.389 0.8321,4.2726 -2.4372,9.4219 -2.4734,13.7746 -0.024,2.8492 0.799,6.0438 0.3399,8.3045 -0.3919,1.9292 -2.3001,6.1455 -2.3001,6.1455 0,0 4.5269,-2.2417 6.1637,-4.1045 0.6321,-0.7194 4.7156,-5.1586 4.7156,-5.1586 0,0 -1.4343,10.3825 -0.1816,14.5707 0.3747,1.2529 2.4387,3.6132 2.4387,3.6132" style="fill:none;stroke:#000000;stroke-width:2.5;stroke-linecap:butt;stroke-linejoin:miter;stroke-miterlimit:4;stroke-opacity:1;stroke-dasharray:none"/>
        <path id="path6208" d="m 1859.9972,1177.0094 c 0,0 0.5554,6.8779 0.01,9.7514 -0.5888,3.0817 -3.8618,9.7191 -3.8618,9.7191" style="fill:none;stroke:#000000;stroke-width:2.5;stroke-linecap:butt;stroke-linejoin:miter;stroke-miterlimit:4;stroke-opacity:1;stroke-dasharray:none"/>
      </g>
      <g id="g6212" transform="matrix(0.53172211,0.34141607,-0.34141607,0.53172211,-171.60329,-625.00494)">
        <path id="path6214" d="m 1878.5534,1176.3878 c 0,0 5.1179,0.6279 9.5879,0.5522 3.8805,-0.066 8.732,-3.7834 10.8616,-7.0281 1.2795,-1.9495 2.7545,-14.9334 1.9167,-17.8898 -1.0873,-3.8374 -4.8997,-9.1482 -7.667,-10.8616 -2.7673,-1.7134 -5.8703,-1.9285 -8.3059,-1.2778 -1.1858,0.3167 -2.3085,1.7065 -3.1946,2.5556 -0.6683,0.6404 -1.9767,1.4007 -2.0284,2.3248 -0.03,0.5408 0.644,1.102 1.0277,1.4844 1.4132,1.4086 5.4808,3.7681 5.4808,3.7681 0,0 -5.0644,2.4474 -7.3078,2.0553 -2.0319,-0.3552 -4.6512,-2.1624 -5.595,-3.9965 -1.2226,-2.3757 -0.9466,-6.4077 0,-8.9063 0.8425,-2.224 3.2359,-4.6769 5.2524,-5.9376 2.1705,-1.357 8.2213,-2.2837 8.2213,-2.2837 0,0 -9.2966,1.2507 -13.1312,0.3425 -3.251,-0.7699 -7.3334,-3.021 -9.8198,-5.2525 -1.2658,-1.1359 -2.804,-3.0269 -3.1972,-4.6815 -0.4794,-2.0173 -0.092,-5.0378 0.9135,-6.8511 0.9914,-1.7873 3.2679,-3.8502 5.2525,-4.339 1.9374,-0.4771 4.7895,0.357 6.5085,1.3702 1.4436,0.8509 3.6539,4.2249 3.6539,4.2249 0,0 -3.2891,-0.6087 -4.5674,-0.1142 -1.0168,0.3933 -2.5976,1.4221 -2.6262,2.512 -0.042,1.5989 2.3062,3.0209 3.6539,3.8823 1.5516,0.9918 5.8234,1.9411 5.8234,1.9411 l 7.1936,-0.2283 5.7092,0.7993 c 0,0 -6.7246,-14.3682 -9.5361,-19.8027 -1.6051,-3.1028 -4.0258,-11.1371 -5.0241,-14.4847 -1.3235,-4.4383 -0.9895,-4.937 -2.4533,-9.3311 -1.6867,-5.0632 -4.7016,-11.9696 -8.678,-15.5291 -2.2991,-2.058 -7.3739,-4.2782 -10.3512,-5.0887 -2.5008,-0.6809 -5.1422,-0.5257 -7.6899,-0.05 -1.9591,0.3661 -4.6946,1.5546 -5.8234,3.1971 -1.2924,1.8805 -1.7909,5.3859 -1.0277,7.5362 0.2513,0.708 1.1843,1.3237 1.827,1.7128 1.3345,0.8079 3.3586,1.5482 4.9099,1.7127 2.1971,0.233 5.304,0.017 7.3078,-0.9134 0.5496,-0.2554 1.4844,-1.3702 1.4844,-1.3702 0,0 -1.3808,5.341 -2.9688,6.9652 -1.6827,1.721 -4.9139,3.0613 -7.3078,3.3113 -2.6866,0.2807 -6.5099,-0.4962 -8.7922,-1.9411 -2.9294,-1.8545 -6.156,-5.7929 -7.0794,-9.1347 -1.0661,-3.8579 -0.327,-9.7366 1.5985,-13.2454 1.6628,-3.03 5.7111,-5.9905 8.9064,-7.3078 2.0042,-0.8263 7.1936,-0.6851 7.1936,-0.6851 l 3.083,1.0276 c 0,0 -3.7959,-1.0892 -5.3667,-1.7127 -1.6946,-0.6727 -4.107,-1.4275 -5.4808,-2.6263 -2.7203,-2.3736 -5.7928,-6.5346 -6.6227,-10.0482 -0.5313,-2.2495 0.1455,-5.4703 0.9135,-7.6504 0.9664,-2.7432 2.8631,-6.4094 5.1383,-8.2212 2.2965,-1.8289 6.3157,-3.0751 9.2489,-3.1972 1.8013,-0.075 4.3398,0.4601 5.8234,1.4844 1.963,1.3552 4.2576,4.1434 4.5674,6.5085 0.1421,1.0853 -1.256,3.4255 -1.256,3.4255 0,0 -2.5344,-3.2555 -4.1107,-3.8822 -1.6234,-0.6455 -4.2325,-0.7219 -5.8234,0 -0.9948,0.4514 -1.964,1.7378 -2.3978,2.7404 -0.834,1.9269 -1.5367,5.046 -0.6851,6.9652 0.9336,2.1042 4.1011,3.5497 6.1659,4.5674 2.0132,0.9923 7.1936,2.0553 7.1936,2.0553 l 7.5362,5.5951 c 0,0 -1.2106,-9.898 -1.1419,-14.1589 0.059,-3.6538 0.5708,-8.5378 1.3703,-12.1035 1.0688,-4.7672 3.1349,-11.0121 5.2524,-15.4149 3.1179,-6.48267 9.9799,-13.63785 12.9029,-20.21066 0.9962,-2.24007 1.9356,-5.43831 2.1695,-7.87872 0.295,-3.07819 0.1759,-7.34212 -0.7993,-10.2766 -0.6264,-1.88485 -2.3337,-4.01689 -3.5397,-5.59503 -1.325,-1.73382 -2.9031,-4.50978 -4.91,-5.36667 -1.3865,-0.59201 -3.6538,-0.3899 -5.0241,0.11419 -1.3702,0.50408 -2.9165,1.84259 -3.6539,2.96879 -0.7374,1.1262 -1.4735,3.08428 -1.1418,4.11064 0.3317,1.02637 2.844,3.39417 3.6706,3.1384 0.8265,-0.25576 6.7202,-1.53982 6.7202,-1.53982 0,0 -1.6469,4.94491 -3.5397,6.39433 -1.8929,1.44941 -7.1879,1.70754 -10.7234,1.25936 -3.5354,-0.44818 -8.0338,-4.07699 -10.9717,-6.39766 -2.9378,-2.32067 -5.5122,-4.79665 -6.5085,-7.3078 -0.9963,-2.51115 -0.8184,-6.07408 -0.2284,-8.22128 0.59,-2.14719 1.9758,-4.37062 3.5398,-5.59503 1.1941,-0.93488 4.7957,-1.59858 4.7957,-1.59858 0,0 -5.6189,-2.21137 -7.5362,-3.88227 -2.0204,-1.76078 -4.3586,-4.74368 -5.1383,-7.3078 -0.8871,-2.91761 -1.0576,-7.39733 0.2284,-10.16241 1.7911,-3.85113 5.3814,-8.37826 9.0272,-10.55705 2.5399,-1.51787 7.8826,-3.82128 10.8409,-3.8777 2.0903,-0.0399 5.1249,2.35694 6.6227,3.8156 1.4593,1.42118 2.6515,4.39085 2.2837,6.39433 -0.2765,1.50562 -3.3114,3.88227 -3.3114,3.88227 0,0 0.8059,-3.97285 0,-5.36667 -0.6529,-1.12926 -2.4652,-2.23329 -3.7681,-2.1695 -1.7659,0.0865 -4.0912,1.80391 -4.7957,3.42553 -0.5232,1.20418 0.031,3.14224 0.5709,4.33901 1.308,2.89918 6.9653,7.9929 6.9653,7.9929 l 11.8751,3.42553 7.6504,5.02412 2.1695,3.08297 3.8823,-9.02056 c 0,0 7.3217,-7.42152 11.3042,-9.24894 2.1498,-0.98648 5.4365,-1.78849 7.7646,-1.37021 2.2667,0.40726 5.0032,2.2448 6.6226,3.88227 1.1653,1.17818 2.9711,3.15482 2.7405,4.79574 -0.2596,1.84712 -4.4532,4.33901 -4.4532,4.33901 0,0 0.9686,-3.78197 0.1142,-5.02411 -0.8658,-1.25871 -3.2708,-1.80485 -4.7958,-1.71277 -1.5291,0.0923 -3.3788,1.3172 -4.5674,2.28369 -1.4569,1.18469 -3.0605,3.22148 -3.8822,4.90993 -0.8945,1.83777 -1.6962,4.58116 -1.5986,6.62269 0.1454,3.04063 2.2245,6.74803 3.3113,9.59149 1.5787,4.13016 4.7344,9.27516 5.7093,13.58794 0.4839,2.14074 0.5997,5.12818 0.3425,7.3078 -0.1588,1.3458 -1.256,4.33901 -1.256,4.33901 0,0 0,0 0,0 0,0 -2.5914,5.14722 -2.5914,5.14722 0,0 6.5998,-6.12031 10.1705,-7.26459 2.698,-0.86463 6.9046,-1.25643 9.4439,0 3.1125,1.53998 5.7626,5.96581 7.0225,9.20182 0.5822,1.49546 0.853,3.7655 0.4843,5.32737 -0.4123,1.74622 -1.9218,3.77537 -3.148,5.08521 -0.8542,0.91243 -3.3902,2.42153 -3.3902,2.42153 0,0 2.3115,-5.38208 1.9373,-7.7489 -0.3211,-2.03079 -1.7942,-4.89057 -3.6323,-5.81167 -2.3463,-1.1757 -6.5337,-0.72879 -8.7175,0.72646 -1.8387,1.22519 -2.8668,4.39159 -3.3902,6.53813 -0.6023,2.47023 0.7109,6.03415 0,8.47536 -0.7945,2.72826 -3.2085,5.85736 -5.0852,7.99106 -2.623,2.9823 -7.5158,5.5211 -10.1704,8.4753 -2.1009,2.338 -9.2349,12.7384 -10.1705,14.7714 -1.1565,2.5129 -2.5261,6.2152 -2.1793,8.9597 0.1548,1.2252 1.9372,3.6323 1.9372,3.6323 0,0 1.4327,-4.0322 2.6637,-5.3274 2.6444,-2.7823 7.6006,-4.8079 11.139,-6.296 2.6491,-1.1141 7.3398,-0.4746 9.2018,-2.6637 1.5646,-1.8394 1.9259,-5.774 0.9686,-7.991 -0.6796,-1.5741 -3.4137,-3.2027 -4.6009,-3.3902 -1.1871,-0.1875 -2.1793,0.7265 -2.1793,0.7265 0,0 2.9693,-3.7627 4.843,-4.1166 2.4155,-0.4563 6.1037,0.8372 7.7489,2.6637 1.2974,1.4402 2.757,3.981 3.0448,5.898 0.3029,2.0166 -0.3496,5.2851 -1.1076,7.1782 -0.8028,2.0052 -3.8969,3.2247 -5.3273,4.8431 -1.0011,1.1327 -3.2991,2.657 -2.9059,4.1166 0.499,1.8519 4.1701,1.672 5.8117,2.6637 2.7487,1.6604 6.3722,4.1114 8.4754,6.5381 1.257,1.4504 2.6985,3.7036 3.148,5.5695 0.8174,3.393 0.5171,8.2801 -0.4843,11.6234 -0.6078,2.0289 -1.9518,4.7648 -3.6323,6.0538 -0.8393,0.6438 -2.3349,0.8966 -3.3902,0.9686 -2.0499,0.1401 -5.0685,0.168 -6.7803,-0.9686 -1.4115,-0.9372 -2.9058,-4.843 -2.9058,-4.843 l -0.7265,-1.6951 c 0,0 4.972,3.0272 7.2646,2.6637 1.2775,-0.2026 2.9774,-1.4379 3.3902,-2.6637 0.551,-1.6365 -0.2405,-4.34 -1.453,-5.5695 -1.5344,-1.5561 -4.8695,-1.5617 -7.0224,-1.9373 -1.7482,-0.3049 -4.0346,-1.1087 -5.898,-0.4506 -2.2133,0.7817 -5.2679,1.6718 -7.2646,2.9058 -1.4882,0.9198 -3.1101,2.649 -4.3587,3.8745 -0.9173,0.9002 -2.4484,1.9469 -2.9059,3.148 -1.4742,3.8702 -0.632,12.0766 -0.1558,16.1906 0.3162,2.7317 1.0301,6.3635 1.9372,8.9596 2.4862,7.1156 4.7392,11.1518 7.5573,18.1425 2.3364,5.796 8.0203,18.2675 9.8777,24.2343 0.8129,2.611 2.1984,6.0228 2.6637,8.7175 0.5445,3.1531 0.3888,7.4565 0.4843,10.6548 0.1518,5.0834 1.1283,10.0399 -0.1558,14.9608 -0.8054,3.0865 -3.1163,8.5673 -4.9294,11.1917 -2.0249,2.9312 -4.5676,7.1884 -7.5067,9.2018 -2.7102,1.8567 -7.1361,3.1522 -10.4126,3.3902 -2.5729,0.1868 -6.5523,-0.1567 -8.9563,-1.0922 -3.6244,-1.4105 -4.3711,-1.0382 -4.3711,-1.0382" style="fill:#ffff00;fill-opacity:1;fill-rule:evenodd;stroke:#000000;stroke-width:3;stroke-linecap:butt;stroke-linejoin:miter;stroke-miterlimit:4;stroke-opacity:1;stroke-dasharray:none"/>
        <path id="path6216" d="m 1851.5298,911.72027 c 0,0 -2.3888,7.98671 -1.9204,10.76571 0.5649,3.35193 1.7632,7.92095 3.7138,10.70475 1.5508,2.21301 4.619,4.38528 6.9909,5.68006 3.8748,2.11523 13.9817,4.58775 13.9817,4.58775" style="fill:none;stroke:#000000;stroke-width:2.5;stroke-linecap:butt;stroke-linejoin:miter;stroke-miterlimit:4;stroke-opacity:1;stroke-dasharray:none"/>
        <path id="path6218" d="m 1866.6495,950.4494 c 0,0 -5.7625,3.02823 -7.6462,5.02467 -1.3501,1.4309 -2.8836,3.75254 -3.277,5.68007 -0.4356,2.13463 0.8739,7.20932 0.8739,7.20932" style="fill:#ffff00;fill-opacity:1;fill-rule:evenodd;stroke:#000000;stroke-width:2.5;stroke-linecap:butt;stroke-linejoin:miter;stroke-miterlimit:4;stroke-opacity:1;stroke-dasharray:none"/>
        <path id="path6220" d="m 1908.1578,980.59746 c 0,0 -4.8916,9.9063 -7.8648,13.54478 -0.9987,1.22223 -2.6772,2.53831 -3.9323,3.49543 -1.2431,0.948 -4.3693,2.84003 -4.3693,2.84003" style="fill:#f8de00;fill-opacity:1;fill-rule:evenodd;stroke:#000000;stroke-width:2.5;stroke-linecap:butt;stroke-linejoin:miter;stroke-miterlimit:4;stroke-opacity:1;stroke-dasharray:none"/>
        <path id="path6222" d="m 1902.4777,1010.964 c 0,0 -4.4182,-1.3017 -6.3355,-1.0923 -1.5486,0.1691 -3.5521,1.0419 -4.8062,1.9661 -1.1619,0.8563 -3.0585,3.7139 -3.0585,3.7139" style="fill:#f8de00;fill-opacity:1;fill-rule:evenodd;stroke:#000000;stroke-width:2.5;stroke-linecap:butt;stroke-linejoin:miter;stroke-miterlimit:4;stroke-opacity:1;stroke-dasharray:none"/>
        <path id="path6224" d="m 1929.1303,1060.5554 c 0,0 -5.5405,-6.3681 -8.5201,-8.5201 -3.0289,-2.1877 -7.8495,-4.355 -11.5786,-4.5878 -4.1884,-0.2615 -9.8838,1.4439 -13.5448,3.4954 -2.4664,1.3822 -4.9355,4.4046 -6.7724,6.554 -1.9255,2.2531 -5.68,8.0831 -5.68,8.0831" style="fill:none;stroke:#000000;stroke-width:2.5;stroke-linecap:butt;stroke-linejoin:miter;stroke-miterlimit:4;stroke-opacity:1;stroke-dasharray:none"/>
        <path id="path6226" d="m 1891.9914,1124.1285 c 0,0 3.9484,4.9651 5.0247,6.9908 0.846,1.5924 1.9662,5.6801 1.9662,5.6801" style="fill:#f8de00;fill-opacity:1;fill-rule:evenodd;stroke:#000000;stroke-width:2.5;stroke-linecap:butt;stroke-linejoin:miter;stroke-miterlimit:4;stroke-opacity:1;stroke-dasharray:none"/>
      </g>
      <path style="fill:none;stroke:#000000;stroke-width:1.57974136;stroke-linecap:butt;stroke-linejoin:miter;stroke-miterlimit:4;stroke-opacity:1;stroke-dasharray:none" d="m 317.28303,593.72845 c 0,0 1.09123,-5.71798 2.13685,-8.11766 0.68152,-1.56416 3.30282,-4.63001 3.30282,-4.63001" id="path6228"/>
      <g id="g6230" style="stroke-width:2;stroke-miterlimit:4;stroke-dasharray:none" transform="matrix(0.58156613,-0.14107737,0.14107737,0.58156613,-854.66998,429.58402)">
        <g transform="matrix(1.069988,0.02289874,0.00527292,0.919794,1714.0899,241.85886)" id="g6232" style="fill:#ffff00;fill-opacity:1;stroke-width:2.01614571;stroke-miterlimit:4;stroke-dasharray:none">
          <path id="path6234" d="m 217.25391,469.71935 c 1.92785,-4.40652 29.0359,-16.01563 32.34079,-33.71782 0,-17.70219 -3.64457,-44.25547 4.68587,-53.62722 8.33045,-9.37175 62.47832,-33.32177 66.12288,-44.77613 6.34002,10.43261 -1.90441,15.15199 -1.22622,16.96646 11.67559,5.91152 32.30005,-11.28508 35.40833,-18.55858 4.83335,12.45712 3.01831,21.64786 -2.18821,29.45765 -5.20653,7.80979 -78.85263,41.38127 -78.85263,41.38127 l -10.41305,51.02396 -51.54461,33.84242 5.66685,-21.99201 z" style="fill:#ffff00;fill-opacity:1;fill-rule:evenodd;stroke:#000000;stroke-width:2.01614571;stroke-linecap:butt;stroke-linejoin:miter;stroke-miterlimit:4;stroke-opacity:1;stroke-dasharray:none"/>
          <path id="path6236" d="m 220.61311,466.9916 c 0,0 28.84372,-15.03511 30.75372,-32.06318 -0.91241,-17.00284 -3.46572,-42.08371 4.45592,-50.99555 7.92164,-8.91185 59.4123,-31.68656 62.87801,-42.57882 6.02889,9.92065 -3.12042,13.62276 -2.47551,15.34818 11.10263,5.62143 35.16715,-9.42182 38.1229,-16.33838 4.59616,11.84581 -0.27252,20.06174 -5.22354,27.48828 -4.95103,7.42653 -74.98307,39.35055 -74.98307,39.35055 l -9.90205,48.79546 -49.01514,31.90625 5.38876,-20.91279 z" style="fill:#ffff00;fill-opacity:1;fill-rule:evenodd;stroke:#000000;stroke-width:2.01614571;stroke-linecap:butt;stroke-linejoin:miter;stroke-miterlimit:4;stroke-opacity:1;stroke-dasharray:none"/>
        </g>
        <path id="path6238" d="m 1920.011,724.15603 c 1.0609,9.64848 37.9284,33.36563 42.907,30.46636 4.9786,-2.89928 -4.0739,-14.0171 -0.5571,-10.50661 3.5167,3.51049 29.8184,2.44028 31.8685,0.15009 2.0501,-2.29023 31.6599,-5.06908 30.1068,-9.90998 -3.0835,-5.74776 25.7263,-4.7416 23.1988,-9.94851 -2.5274,-5.20691 -11.111,-7.09296 -6.5271,-5.68368 -11.1893,-0.67652 24.1288,-10.15906 24.7359,-16.33232 0.6072,-6.17329 -15.6198,-0.81003 -11.0996,-8.47615 6.0672,-2.82238 26.4564,-0.31934 38.5199,-24.53653 -4.0805,-2.27263 -7.6199,-0.82447 -10.8411,-0.76095 24.3958,-4.6384 44.3585,-17.77444 37.2638,-26.13853 -8.57,0.34555 -17.6726,1.90515 -17.6726,1.90515 0,0 23.4491,-9.78174 23.4361,-18.88352 -16.3603,-1.49117 -24.7142,-2.05763 -24.2566,-3.00309 10.6447,-0.80706 38.743,-26.32125 37.0116,-36.32104 -12.7501,0.83366 -20.3722,6.92691 -34.426,7.78292 -1.9449,-3.02428 36.5636,-22.52313 40.9939,-38.16463 -6.8025,-4.33924 -64.7501,22.68364 -70.75,21.69644 -5.9999,-0.98721 -67.7001,13.38424 -72.5495,14.64615 -4.768,1.24072 -9.8743,1.14038 -10.6432,14.05791 -0.7695,12.92798 2.1146,39.45903 -1.9661,45.38333 -25.6016,37.16749 -78.74,17.2101 -84.9426,45.9824 -0.7626,23.23314 20.0276,2.98781 16.1892,26.59479 z" style="fill:#000000;fill-opacity:1;fill-rule:evenodd;stroke:none"/>
        <path id="path6240" d="m 2098.1536,577.18096 c -0.5836,0.23894 -97.6336,12.13956 -103.6184,23.30237 -6.0698,11.32128 4.0812,28.22642 -2.5148,48.55073 -6.596,20.32431 -26.547,23.47619 -54.0458,30.03175 -10.1508,2.41989 -17.6915,1.68156 -29.1206,15.10551 -6.7976,23.13839 7.2242,9.16625 17.8678,11.62155 8.6988,12.8066 8.487,-6.86822 16.9396,0.54231 8.4526,7.41051 5.3142,-10.44699 14.8839,-4.86844 9.7091,5.65977 -0.7142,-7.61466 18.5114,-7.20321 19.2256,0.41144 -0.074,-12.32907 16.7368,-14.03492 16.8106,-1.70585 3.393,-11.65914 14.1837,-15.55943 10.7907,-3.90029 -5.2491,-9.58063 5.5357,-14.51385 10.7848,-4.93322 -2.5531,-17.51475 9.7719,-26.67317 12.325,-9.15842 -17.2896,6.44843 -4.5521,-3.85801 12.7374,-10.30643 9.7239,-9.52614 3.9117,-15.22981 -5.8123,-5.70365 75.5092,-27.21338 75.5092,-27.21338 z" style="fill:#ffff00;fill-opacity:1;fill-rule:evenodd;stroke:none"/>
        <path id="path6242" d="m 2001.0732,699.8857 c -0.373,4.37662 6.6562,11.61813 12.4354,13.04525 13.4801,3.3287 36.0403,3.29956 48.5947,-10.91191 -11.2533,-1.55135 -24.0883,-13.78136 -42.1829,-10.13521 -4.3992,-0.30465 -19.5816,-0.6968 -21.2517,3.48101 3.9231,0.59916 19.2107,6.15836 23.4593,6.85716 25.8913,4.25853 16.7151,5.54938 -9.1762,1.29086 -4.3235,-0.71112 -7.911,-2.92695 -11.8786,-3.62716 z" style="fill:#ffff00;fill-opacity:1;fill-rule:evenodd;stroke:none"/>
        <path id="path6244" d="m 2019.4107,679.53512 c 1.1574,4.31359 13.2599,12.31517 19.2204,12.21612 14.0802,1.00148 46.5072,-0.92167 48.8645,-20.78166 -11.1827,1.37599 -38.6327,-5.51754 -54.4948,2.61361 -4.2674,0.82882 -13.0672,-1.16753 -13.2057,3.28539 3.9186,-0.42347 9.9961,5.35657 14.2571,4.94607 25.9668,-2.50157 27.7935,-6.32513 27.975,-5.22078 -0.063,1.95791 -4.2149,5.62641 -30.1817,8.12798 -4.3361,0.41772 -8.4392,-5.52415 -12.4348,-5.18673 z" style="fill:#ffff00;fill-opacity:1;fill-rule:evenodd;stroke:none"/>
        <path id="path6246" d="m 2031.1113,663.17864 c 1.1574,4.31359 12.233,6.92757 18.1936,6.82851 26.5867,0.0254 69.1415,-9.29504 68.0326,-24.7852 -11.1827,1.376 -49.7984,5.85154 -68.8028,6.29539 -4.2675,0.82882 -12.4531,5.15462 -12.5916,9.60753 3.9185,-0.42346 13.7844,-0.9699 18.0454,-1.3804 25.9668,-2.50156 25.2882,-5.39695 25.4697,-4.2926 -0.063,1.9579 -6.7098,5.79496 -32.6765,8.29653 -4.3361,0.41772 -11.6748,-0.90718 -15.6704,-0.56976 z" style="fill:#ffff00;fill-opacity:1;fill-rule:evenodd;stroke:none"/>
        <path id="path6248" d="m 2030.8832,640.08898 c 1.1574,4.31358 15.4397,11.61327 21.4003,11.51421 13.9028,-0.23104 69.1415,-9.29504 68.0326,-24.7852 -24.5853,-0.53801 -52.4832,-2.15319 -68.3453,5.97797 -4.2675,0.82881 -12.6344,2.53885 -12.773,6.99177 3.9186,-0.42346 13.3682,2.73826 17.6292,2.32776 25.9668,-2.50156 40.5515,-10.28715 40.7331,-9.1828 -0.063,1.95791 -21.8331,9.91018 -47.7998,12.41175 -4.3361,0.41772 -14.8815,-5.59288 -18.8771,-5.25546 z" style="fill:#ffff00;fill-opacity:1;fill-rule:evenodd;stroke:none"/>
        <path id="path6250" d="m 2039.5387,619.07272 c 4.9337,4.32568 13.8253,8.33928 18.8667,7.96919 44.1185,5.91894 80.2173,-35.97586 76.8233,-39.21914 -22.58,9.66683 -69.4429,14.09435 -78.8295,17.58261 -2.9176,1.03418 -11.4117,7.55108 -7.4665,12.07676 2.9872,-0.60698 24.4452,-2.92379 27.7391,-3.53312 20.073,-3.7132 35.4183,-10.875 36.5826,-9.76237 1.1643,1.11263 -20.3509,9.64775 -40.4239,13.36095 -3.3519,0.62005 -30.1597,1.00199 -33.2918,1.52512 z" style="fill:#ffff00;fill-opacity:1;fill-rule:evenodd;stroke:none"/>
        <path id="path6252" d="m 1988.9598,691.63643 c 1.989,-2.46424 0.2322,-5.63208 1.1282,-5.2421 2.0901,0.90962 9.451,13.1595 8.0192,15.01715 -1.4318,1.85781 -14.8996,1.424 -15.9039,-1.00146 -0.3241,-0.7235 3.2517,-3.94398 5.0953,-6.56208 0.4389,0.46646 0.8613,0.93538 1.3596,1.41331 3.0364,2.91244 5.9039,4.75032 6.3951,4.11305 0.4911,-0.63728 -1.5757,-3.51389 -4.6122,-6.42632 -0.5071,-0.48635 -0.9941,-0.89127 -1.4813,-1.31155 z" style="fill:#ffff00;fill-opacity:1;fill-rule:evenodd;stroke:none"/>
        <path id="path6254" d="m 2003.0926,678.00723 c 1.6148,-3.36287 3.3336,-4.24335 4.3404,-3.79169 2.3483,1.0535 16.9988,11.55484 15.852,14.0854 -1.1469,2.53079 -27.3067,5.36176 -32.1425,-4.40915 -0.4725,-0.92696 9.1954,0.68008 10.6299,-2.87482 0.5445,0.58233 1.0721,1.16899 1.6806,1.76242 3.7078,3.61621 12.7423,3.31775 13.1357,2.44963 0.3934,-0.86814 -7.9998,-1.98464 -11.7076,-5.60087 -0.6192,-0.60387 -1.2024,-1.10233 -1.7885,-1.62092 z" style="fill:#ffff00;fill-opacity:1;fill-rule:evenodd;stroke:none"/>
        <path id="path6256" d="m 2055.4105,601.43378 c 5.5312,3.74937 14.2287,5.47039 19.1506,4.53398 11.4801,-2.18416 68.0786,-43.92256 64.2329,-46.76812 -3.8462,-2.84586 -28.2037,11.49139 -106.2915,35.7386 -2.7235,1.35808 15.0595,5.23626 18.2193,4.25866 19.2557,-5.95758 45.0423,-17.82128 46.3616,-16.84508 1.3193,0.97619 -38.6598,18.20836 -41.6729,19.08196 z" style="fill:#ffff00;fill-opacity:1;fill-rule:evenodd;stroke:none"/>
        <path id="path6258" d="m 1987.7157,712.26635 c -1.6304,4.12687 -0.3754,6.99261 4.8523,9.60072 12.1933,6.08338 33.7912,13.36386 50.1564,2.39023 -10.5344,-3.89865 -19.299,-16.76633 -37.4538,-20.23284 -5.479,-1.21491 -2.9452,0.27636 -4.849,1.10384 -2.1163,0.91984 -14.479,-2.27019 -15.9735,-0.34438 3.6556,1.4152 16.2324,8.93395 20.1769,10.51457 24.0378,9.63239 13.6147,9.83213 -10.4231,0.19975 -4.0139,-1.60849 -2.8164,-1.71003 -6.4862,-3.23189 z" style="fill:#ffff00;fill-opacity:1;fill-rule:evenodd;stroke:none"/>
        <path id="path6260" d="m 1972.9345,717.90463 c -2.5138,3.7661 -1.9015,6.7677 2.6911,10.16077 10.7123,7.91426 25.5445,15.72654 44.1114,7.65944 -9.5518,-5.51228 -15.2794,-23.93063 -33.6852,-27.318 -3.8838,-1.88576 -5.0271,5.28258 -8.632,8.39546 3.3009,1.97368 8.2827,5.49547 11.8329,7.67747 21.6347,13.29716 11.0158,10.92794 -10.6189,-2.36922 -3.6127,-2.22045 -2.4076,-2.12577 -5.6993,-4.20592 z" style="fill:#ffff00;fill-opacity:1;fill-rule:evenodd;stroke:none"/>
        <path id="path6262" d="m 1941.6933,717.62666 c -2.0261,3.03547 6.1133,13.39631 9.815,16.13111 8.6341,6.37888 26.6186,14.86834 41.5835,8.36628 -7.6988,-4.44287 -12.0467,-25.91351 -26.8817,-28.64372 -3.1304,-1.51991 -8.5614,7.79385 -11.467,10.30285 2.6606,1.59078 5.0022,4.68967 7.8636,6.44836 17.4375,10.71746 9.429,8.55529 -8.0085,-2.16217 -2.9118,-1.78967 -10.2518,-8.76612 -12.9049,-10.44271 z" style="fill:#ffff00;fill-opacity:1;fill-rule:evenodd;stroke:none"/>
        <path id="path6264" d="m 1923.2912,721.29922 c -2.4896,2.18967 5.1775,10.87285 7.6695,13.86057 7.5589,5.75695 16.6068,17.38843 31.0415,14.64916 -5.4919,-5.16318 -7.9987,-26.99187 -20.0292,-32.02011 -2.3042,-1.85751 -4.2529,5.6556 -7.3651,7.23944 1.8842,1.83108 5.2064,6.70235 7.2209,8.71198 12.2764,12.24679 4.6772,10.06103 -7.5991,-2.18576 -5.5374,-2.67558 -9.0821,-8.35318 -10.9385,-10.25528 z" style="fill:#ffff00;fill-opacity:1;fill-rule:evenodd;stroke:none"/>
        <path id="path6266" d="m 2012.5402,662.76885 c 0.5157,-3.63628 1.8909,-4.88174 2.9926,-4.67036 2.5696,0.49309 19.2569,8.86443 18.9343,11.58527 -0.3228,2.72108 -23.9186,7.38195 -28.7955,1.72062 -0.7359,-0.79462 6.2423,-1.62715 6.5267,-5.40939 0.6993,0.44312 1.3838,0.89428 2.1477,1.33373 4.6552,2.67782 13.209,0.34244 13.3197,-0.59094 0.1107,-0.93341 -8.2627,-0.11942 -12.9179,-2.79727 -0.7773,-0.44717 -1.488,-0.79996 -2.2076,-1.17166 z" style="fill:#ffff00;fill-opacity:1;fill-rule:evenodd;stroke:none"/>
        <path id="path6268" d="m 2018.4452,645.91292 c 0.4355,-3.65256 2.0241,-4.9365 3.358,-4.75526 3.111,0.4228 21.2713,7.54225 21.0214,10.27352 -0.162,1.7705 -14.8603,14.61253 -19.3602,5.00491 -1.9418,-4.14599 -8.4083,0.36643 -9.4648,-0.55692 -0.9241,-0.77486 4.048,-2.93658 4.1982,-6.72884 0.8624,0.42417 1.7072,0.8568 2.6469,1.27552 5.7264,2.55153 15.8815,-0.0201 15.9672,-0.95709 0.086,-0.937 -9.9296,0.10744 -15.656,-2.44411 -0.9562,-0.42609 -1.8276,-0.75956 -2.7107,-1.11173 z" style="fill:#ffff00;fill-opacity:1;fill-rule:evenodd;stroke:none"/>
        <path id="path6270" d="m 2026.2734,623.70059 c 0.4354,-3.65255 2.0241,-4.93649 3.3579,-4.75525 3.1111,0.4228 21.2714,7.54225 21.0215,10.27352 -0.2499,2.73154 -26.6172,11.46963 -29.6201,8.84519 -0.924,-0.77486 0.316,-4.62043 0.4663,-8.41267 0.8623,0.42415 6.2342,-1.85658 7.1739,-1.43786 5.7263,2.55153 15.8814,-0.0201 15.9671,-0.95709 0.086,-0.93699 -9.9295,0.10744 -15.6559,-2.44411 -0.9563,-0.42608 -1.8276,-0.75956 -2.7107,-1.11173 z" style="fill:#ffff00;fill-opacity:1;fill-rule:evenodd;stroke:none"/>
        <path id="path6272" d="m 2027.7583,605.17704 c -0.7301,-3.64765 0.3842,-5.26287 1.7147,-5.39628 3.1035,-0.31109 22.6785,2.38956 23.2968,5.09961 -8.3355,12.80319 -17.3356,15.50352 -25.375,12.35626 -1.1255,-0.53806 2.189,-5.1415 1.1428,-8.85866 0.9565,0.21185 1.899,0.43595 2.9277,0.62458 6.2686,1.14929 15.1592,-3.70335 14.9471,-4.63302 -0.2121,-0.92971 -9.4482,2.40754 -15.7169,1.25825 -1.0468,-0.19193 -1.9835,-0.31362 -2.9372,-0.45074 z" style="fill:#ffff00;fill-opacity:1;fill-rule:evenodd;stroke:none"/>
        <path id="path6274" d="m 1972.1825,697.86079 c 3.0251,-2.27837 6.1141,-1.94941 7.0028,-1.30592 2.073,1.50094 2.5783,14.63402 0.3743,16.36738 -2.2042,1.73351 -14.6495,-2.09459 -15.0173,-5.02924 -0.1373,-0.88111 1.2668,-6.14017 4.1762,-8.62381 0.3484,0.62182 1.7014,3.95041 2.113,4.59885 2.509,3.95158 5.1666,6.66748 5.9228,6.07286 0.756,-0.59465 -0.6692,-4.27978 -3.1781,-8.23136 -0.419,-0.65987 -0.9763,-3.26709 -1.3937,-3.84876 z" style="fill:#ffff00;fill-opacity:1;fill-rule:evenodd;stroke:none"/>
        <path id="path6276" d="m 1954.4909,704.35473 c 3.5362,-1.03005 6.1657,1.81656 6.6777,2.62479 1.1943,1.88517 -3.6388,13.14732 -6.2447,13.95988 -2.6062,0.81264 -11.8561,-6.11967 -10.997,-8.7119 0.2346,-0.78628 3.363,-2.22427 6.8815,-3.46233 0.052,0.62953 0.088,1.25228 0.1848,1.92312 0.5885,4.08809 1.8019,7.17476 2.6959,6.896 0.8939,-0.27875 1.1377,-3.81977 0.5492,-7.90786 -0.098,-0.68266 0.3808,-4.70568 0.2526,-5.3217 z" style="fill:#ffff00;fill-opacity:1;fill-rule:evenodd;stroke:none"/>
        <path id="path6278" d="m 1933.2045,711.37213 c 3.6835,-0.59149 7.8012,-5.16453 8.1792,-4.3061 0.8817,2.00217 -6.5464,16.92487 -9.2695,17.41351 -2.7234,0.48868 -10.7967,-7.45668 -9.5219,-9.90975 0.3608,-0.74717 3.7051,-1.78985 7.4046,-2.5886 -0.05,0.62703 -0.1154,1.24541 -0.1283,1.9185 -0.078,4.10175 0.6278,7.29097 1.562,7.12334 0.9342,-0.16763 1.7511,-3.63007 1.8291,-7.73182 0.013,-0.68494 -0.028,-1.29622 -0.055,-1.91905 l 0,0 z" style="fill:#ffff00;fill-opacity:1;fill-rule:evenodd;stroke:none"/>
      </g>
      <g transform="matrix(0.63188801,-0.00329495,0.00329495,0.63188801,222.59518,404.43103)" id="g6280">
        <path style="fill:#ffff00;fill-opacity:1;fill-rule:evenodd;stroke:#000000;stroke-width:3;stroke-linecap:butt;stroke-linejoin:miter;stroke-miterlimit:4;stroke-opacity:1;stroke-dasharray:none" d="m 107.14112,146.48399 c 0,0 -1.47172,-4.88859 -1.07141,-6.96417 0.77774,-4.03249 5.88121,-7.82408 6.96417,-11.78552 0.72045,-2.6354 0,-9.107 0,-9.107 0,0 7.76231,0.71756 10.71412,2.14282 2.46457,1.19 5.43558,3.70907 5.43558,3.70907 0,0 0.2506,-3.18611 0.99288,-5.31618 0.86092,-2.47049 3.59098,-4.58425 4.36418,-7.08358 0.67171,-2.17128 0.45717,-6.84477 0.45717,-6.84477 0,0 6.74302,2.50585 8.57129,4.82135 0.72504,0.91827 1.07142,3.74994 1.07142,3.74994 0,0 5.0675,-5.95052 5.35705,-9.10699 0.17184,-1.87322 -2.14282,-5.892766 -2.14282,-5.892766 0,0 7.70464,1.782596 9.6427,4.285646 1.79545,2.31887 1.60712,9.6427 1.60712,9.6427 0,0 1.75156,-5.18783 3.21423,-6.96417 2.26826,-2.75469 9.6427,-6.964176 9.6427,-6.964176 l -1.07141,10.714116 c 0,0 4.51932,-2.16107 6.42847,-1.60712 4.47603,1.29875 8.56522,7.11415 10.71411,11.24982 0.75567,1.45434 1.07141,5.35705 1.07141,5.35705 0,0 4.23443,-5.83348 6.96417,-6.96417 1.93022,-0.79952 6.96418,0 6.96418,0 0,0 -1.47219,5.63682 -1.07141,8.03558 0.76986,4.60784 6.45441,9.28453 6.96417,13.92835 0.21691,1.97602 -1.60712,6.42847 -1.60712,6.42847 0,0 7.49381,11.54704 9.107,17.14258 1.83019,6.34824 -0.68785,14.63787 2.48059,20.43534 0.77073,1.41025 2.68067,3.13144 4.28565,3.21423 1.87172,0.0966 4.48358,-1.68564 4.48358,-1.68564 0,0 -0.33475,4.90111 -1.60712,6.42846 -1.24292,1.492 -5.89276,2.67853 -5.89276,2.67853 0,0 0.93042,3.92599 1.07141,6.42847 0.14099,2.50248 -0.83129,8.01299 0.77451,10.61515 1.47397,2.38852 4.29929,4.1243 7.0427,3.53157 0.68122,-0.14718 2.53876,0.0947 3.26368,-0.69371 1.52404,-1.65753 1.77604,-4.88172 1.77604,-4.88172 0,0 1.24066,4.62621 0.53571,6.42847 -0.95301,2.43644 -2.50657,4.00202 -4.68151,5.45602 -2.21156,1.47848 -8.51618,1.84718 -9.78254,4.18668 -2.16385,3.99754 2.96825,10.52972 2.14282,14.99976 -0.60092,3.25424 -4.90182,6.36491 -5.35706,9.6427 -0.38611,2.78002 0.15261,5.89592 1.70609,8.23351 1.20988,1.82056 2.87916,4.0589 5.01928,4.50402 1.45064,0.30172 4.18575,-0.0489 5.25809,-1.07141 1.32616,-1.26451 2.13731,-3.43771 2.48059,-5.23766 0.27264,-1.42954 0.53571,-4.82135 0.53571,-4.82135 0,0 2.55247,4.66315 2.55912,6.96418 0.006,1.94188 -2.04712,16.34049 -3.28108,17.83991 -1.757,2.13497 -3.65697,-7.57076 -6.24221,-6.5901 -2.87079,1.08898 -7.16475,1.65894 -10.17841,1.07141 -2.68161,-0.52279 -8.03558,-4.28564 -8.03558,-4.28564 0,0 -0.17226,4.15525 -0.53571,5.89276 -0.52028,2.48724 -0.7851,6.34089 -2.67853,8.03559 -1.71457,1.53461 -7.49988,1.60711 -7.49988,1.60711 0,0 2.33201,9.22956 4.82135,12.32123 1.09022,1.35401 3.17995,2.64178 4.82135,3.21424 1.82728,0.63729 4.596,1.15792 6.42847,0.5357 2.26229,-0.76817 4.6665,-3.30661 5.89276,-5.35705 0.68021,-1.13738 1.07142,-4.28565 1.07142,-4.28565 0,0 1.25599,7.39516 0,10.17841 -1.4987,3.32109 -5.6579,6.86109 -9.107,8.03558 -2.28706,0.77879 -5.71826,0.14783 -8.03558,-0.5357 -1.58703,-0.46812 -3.23335,-2.2137 -4.82135,-2.67853 -2.47265,-0.72378 -8.57129,-0.53571 -8.57129,-0.53571 0,0 0.74888,5.25428 0.5357,7.49988 -0.23579,2.48375 -1.38247,5.65935 -2.14282,8.03558 -0.41847,1.3078 -1.16603,2.98238 -0.73364,4.28565 0.84227,2.5387 3.95194,4.78 6.6264,4.82135 1.87398,0.029 4.49236,-1.55142 5.35706,-3.21423 1.0407,-2.00128 -0.53571,-7.49988 -0.53571,-7.49988 0,0 3.92946,5.77033 3.74994,8.57129 -0.11988,1.87036 -1.70835,4.24128 -3.21423,5.35705 -2.12964,1.57794 -5.92359,2.02051 -8.57129,2.14283 -2.11158,0.0975 -5.01563,-0.252 -6.96418,-1.07142 -2.22218,-0.93449 -4.75202,-3.08904 -6.42846,-4.82135 -2.72848,-2.8194 -5.68898,-7.23355 -7.49988,-10.71411 -0.86822,-1.66873 -3.33095,-4.5349 -3.33095,-4.5349 0,0 -3.28954,-0.15619 -5.24034,-0.28645 -2.18106,-0.14564 -5.25164,-0.78435 -6.96418,-2.14282 -1.74917,-1.38753 -2.80795,-4.40424 -3.74993,-6.42847 -1.008,-2.1661 -2.67853,-7.49988 -2.67853,-7.49988 0,0 -8.20903,5.39522 -9.6427,9.107 -0.75499,1.95468 -0.18829,4.99779 0.5357,6.96417 0.75526,2.05129 2.8111,4.27909 4.28565,5.89276 1.15243,1.26115 4.28564,3.74994 4.28564,3.74994 0,0 -7.21956,0.75449 -10.1784,0 -3.90255,-0.99512 -10.20998,-5.04532 -13.06277,-7.88816 -2.59842,-2.58935 -4.71793,-6.57629 -6.07522,-9.98427 -1.41344,-3.54896 -1.75453,-11.59138 -1.75453,-11.59138 l 0.90063,-7.47651 c 0,0 -3.53478,3.56852 -4.11487,5.8694 -0.51075,2.02586 0,6.96417 0,6.96417 0,0 -3.97745,-8.44269 -4.82135,-12.32123 -0.61598,-2.83103 -1.12286,-6.80555 -0.5357,-9.6427 0.43697,-2.11143 3.21423,-6.42847 3.21423,-6.42847 0,0 -5.07539,-8.76236 -6.42847,-12.85693 -1.74099,-5.26842 -3.557544,-12.67599 -3.21423,-18.21399 0.2705,-4.36345 4.28564,-13.92835 4.28564,-13.92835 l -5.892757,1.60712 c 0,0 -6.80099,-6.85339 -7.499879,-10.71411 -0.916531,-5.063 2.349233,-11.83988 4.285645,-16.60688 0.975265,-2.40088 3.263867,-5.11843 4.285645,-7.49988 1.323166,-3.08389 3.214236,-10.71411 3.214236,-10.71411 0,0 -5.644247,-2.21785 -6.964175,-4.28564 -1.480152,-2.3188 -1.071412,-9.107 -1.071412,-9.107 0,0 3.880907,3.16409 5.892767,3.74994 1.54302,0.44933 4.04683,-1.74696 4.04683,-1.74696 0,0 -3.06203,-6.24498 -3.51113,-10.03856 -0.24851,-2.09918 0.11592,-5.07862 1.07141,-6.96418 0.92461,-1.82463 4.82135,-4.82135 4.82135,-4.82135 z" id="path6282"/>
        <path style="fill:#eeeeee;fill-rule:evenodd;stroke:#000000;stroke-width:2.5;stroke-linecap:butt;stroke-linejoin:miter;stroke-miterlimit:4;stroke-opacity:1;stroke-dasharray:none" d="m 143.53762,175.88027 c 0,0 -0.34191,9.77055 0.0544,12.67472 0.31222,2.28774 2.6217,5.32829 2.6217,5.32829 0,0 2.57146,-2.57702 2.8932,-4.89935 0.40942,-2.95516 0.26949,-12.86038 0.26949,-12.86038 l -5.83882,-0.24328 z" id="path6284"/>
        <path style="fill:#eeeeee;fill-rule:evenodd;stroke:#000000;stroke-width:2.5;stroke-linecap:butt;stroke-linejoin:miter;stroke-miterlimit:4;stroke-opacity:1;stroke-dasharray:none" d="m 174.85661,175.80955 c 0,0 -0.34191,9.77055 0.0544,12.67472 0.31222,2.28774 2.6217,5.32829 2.6217,5.32829 0,0 2.57146,-2.57702 2.8932,-4.89935 0.40942,-2.95516 0.26949,-12.86038 0.26949,-12.86038 l -5.83882,-0.24328 z" id="path6286"/>
        <path style="fill:#eeeeee;fill-opacity:1;fill-rule:evenodd;stroke:#000000;stroke-width:2.5;stroke-linecap:butt;stroke-linejoin:miter;stroke-miterlimit:4;stroke-opacity:1;stroke-dasharray:none;stroke-dashoffset:0;marker:none;visibility:visible;display:inline;overflow:visible;enable-background:accumulate" id="path6288" d="m 149.34544,142.89806 c 0,4.06528 -5.59849,7.36085 -12.50457,7.36085 -6.90609,0 -12.50458,-3.29557 -12.50458,-7.36085 0,-4.06529 5.59849,-7.36085 12.50458,-7.36085 6.90608,0 12.50457,3.29556 12.50457,7.36085 z" transform="matrix(0.9158702,-0.4014745,0.4014745,0.9158702,-43.729092,67.891117)"/>
        <path style="fill:#eeeeee;fill-opacity:1;fill-rule:evenodd;stroke:#000000;stroke-width:2.5;stroke-linecap:butt;stroke-linejoin:miter;stroke-miterlimit:4;stroke-opacity:1;stroke-dasharray:none;stroke-dashoffset:0;marker:none;visibility:visible;display:inline;overflow:visible;enable-background:accumulate" id="path6290" d="m 149.34544,142.89806 c 0,4.06528 -5.59849,7.36085 -12.50457,7.36085 -6.90609,0 -12.50458,-3.29557 -12.50458,-7.36085 0,-4.06529 5.59849,-7.36085 12.50458,-7.36085 6.90608,0 12.50457,3.29556 12.50457,7.36085 z" transform="matrix(-0.9158702,-0.4014745,-0.4014745,0.9158702,361.93067,66.605363)"/>
        <path style="fill:none;stroke:#000000;stroke-width:2.5;stroke-linecap:butt;stroke-linejoin:miter;stroke-miterlimit:4;stroke-opacity:1;stroke-dasharray:none" d="m 161.45059,136.42672 c 0,0 3.96491,1.20761 4.8772,2.14608 1.75893,1.80942 1.99599,5.63877 3.95902,7.22444 0.93388,0.75436 2.83297,1.9109 3.84484,2.5569 0.56406,0.36011 1.33206,1.61242 3.04523,2.20588 2.07412,0.71849 5.26783,0.10661 6.37293,0.56451 3.5845,1.48525 9.13214,7.50037 10.31548,11.19554 0.38197,1.19277 -0.44401,2.90797 -0.88685,4.0795 -1.1202,2.96353 -3.92089,6.30056 -5.14372,9.22324 -0.51345,1.22719 -1.09007,2.93526 -1.24159,4.25688 -0.10926,0.95303 0.0338,2.24418 0.17737,3.19265 0.0985,0.65077 0.16572,1.58167 0.53211,2.12844 0.69908,1.04325 2.55823,1.04245 3.1918,2.12674" id="path6292"/>
        <path style="fill:#ffff00;stroke:#000000;stroke-width:2.5;stroke-linecap:butt;stroke-linejoin:miter;stroke-miterlimit:4;stroke-opacity:1;stroke-dasharray:none" d="m 150.40967,139.26198 c 0,0 0.94996,1.61822 -0.0542,4.13152 -0.8036,2.01137 -3.45471,4.94657 -4.42738,5.4853 -3.11768,1.72678 -7.54078,3.01999 -9.98526,4.0269 -2.48727,1.02454 -5.03725,2.45252 -5.40868,2.67401 -0.9649,0.57538 -2.73111,0.47922 -3.5193,1.27975 -1.85276,1.88176 -3.2149,5.69896 -2.87943,8.31835 0.61547,4.80565 8.19987,8.65216 8.95822,13.43734 0.88943,5.61233 -5.19643,12.55455 -5.11898,18.23639 0.0397,2.91414 3.36076,3.84428 2.87943,6.71867 -0.29486,1.76083 -3.51931,7.35854 -3.51931,7.35854 0,0 6.64602,-3.86267 8.63829,-6.39873 1.22235,-1.55599 2.5595,-6.0788 2.5595,-6.0788 0,0 -2.13752,9.47979 -1.27975,13.43734 0.9381,4.32817 4.80946,9.73857 4.80946,9.73857 0,0 0.37176,-4.00108 1.20952,-6.14903 0.59187,-1.51751 4.85887,-2.30979 4.85887,-2.30979 0,0 -1.42969,4.20075 -1.59969,6.0788 -0.11282,1.24634 -0.13132,2.99193 0.31994,4.15917 0.78924,2.04145 2.85426,4.29248 4.47911,5.75886 0.67222,0.60665 2.5595,1.59969 2.5595,1.59969 0,0 -1.54575,-4.23427 -1.27975,-6.0788 0.20227,-1.40263 2.23956,-4.15918 2.23956,-4.15918 0,0 0.9513,6.16649 1.91962,8.63829 0.48637,1.24154 1.49371,2.82404 1.89967,4.09415 0.9683,3.02945 0.20856,4.51886 -0.22976,7.66895 -0.18424,1.3241 -1.59968,5.17881 -1.59968,5.17881 0,0 5.99583,-3.03527 7.41836,-5.50916 0.9533,-1.65786 1.24924,-4.76266 1.32484,-6.67357 0.0506,-1.27955 0.0598,-1.35519 0.0598,-1.35519 0,0 2.19333,2.50429 2.5595,3.83924 0.48306,1.76111 0.17012,2.17389 -0.23497,3.95456 -0.55357,2.43333 -1.89501,4.07855 -1.92483,6.57388 -0.0222,1.85357 1.0297,4.35442 2.23956,5.75886 2.45475,2.84953 9.60851,5.45886 9.60851,5.45886 0,0 -2.83766,-5.43948 -3.19936,-7.99841 -0.27001,-1.91021 1.23845,-3.82712 1.91441,-5.63402 0.9891,-2.64393 4.39422,-5.05602 5.43892,-7.67848 0.75351,-1.8915 1.04284,-4.6843 0.95981,-6.71867 -0.0883,-2.16363 -0.77863,-5.03487 -1.59968,-7.0386 -0.89883,-2.19355 -4.15918,-6.71867 -4.15918,-6.71867 0,0 -0.63942,-0.43855 1.10344,1.01732 1.33983,1.11922 5.06067,4.01833 5.61523,5.06147 0.95576,1.7978 2.06441,6.03891 2.06441,6.03891 0,0 1.98334,-4.96719 2.09477,-7.63859 0.10001,-2.39744 -2.57944,-7.08369 -2.57944,-7.08369 l -1.2598,-3.15428 c 0,0 4.35976,2.90946 5.43892,4.79905 1.26027,2.20671 2.44938,7.46866 2.44938,7.46866 0,0 3.51259,-6.44464 3.24446,-9.38828 -0.14802,-1.62495 -0.76695,-3.48943 -1.4549,-4.96899 -0.65377,-1.40606 -3.27913,-4.62911 -3.27913,-4.62911 0,0 4.27109,0.91635 5.25785,2.14291 1.13036,1.40507 3.41512,5.98556 3.41512,5.98556 0,0 2.31425,-4.10879 2.69001,-8.45425 0.29126,-3.36827 -2.13843,-9.54004 -3.46662,-10.5089 l -8.80852,-6.42544" id="path6294"/>
        <g id="langued">
          <path style="fill:#ff2a2a;fill-rule:evenodd;stroke:#000000;stroke-width:2.5;stroke-linecap:butt;stroke-linejoin:miter;stroke-miterlimit:4;stroke-opacity:1;stroke-dasharray:none" d="m 149.15195,179.71237 c 0,0 0.52071,13.87932 3.76342,19.68687 1.85693,3.32569 8.78133,10.208 8.78133,10.208 0,0 8.05301,-7.89414 10.03581,-11.18019 3.40626,-5.6451 2.75984,-20.17297 2.75984,-20.17297 l -5.26879,-7.29142 -15.55551,0.24304 -4.5161,8.50667 z" id="path6296"/>
        </g>
        <path style="fill:#ffff00;fill-opacity:1;fill-rule:evenodd;stroke:#000000;stroke-width:2.5;stroke-linecap:butt;stroke-linejoin:miter;stroke-miterlimit:4;stroke-opacity:1;stroke-dasharray:none" d="m 136.52707,165.24794 c 0,0 -2.01938,1.40032 -0.76734,4.0172 0.89478,1.87016 5.31983,4.28527 5.83693,5.59244 0.52891,1.33704 1.19657,5.12145 1.19657,5.12145 0,0 4.57993,1.3035 6.20206,0.85419 2.10191,-0.5822 4.23903,-2.85922 6.23412,-3.74047 1.7861,-0.78894 6.23411,-1.87023 6.23411,-1.87023 l -0.62341,-13.09164 c -0.14812,0.16928 -6.55808,-6.5438 -8.62306,-9.1524 -0.74328,-0.93895 -2.89888,0.94203 -2.5914,2.09941 1.07072,4.03037 11.47291,6.92396 11.1808,7.1187 0,0 10.25605,-3.60308 10.38837,-7.57705 0.0264,-0.79303 -1.2177,-2.32167 -1.87023,-1.87023 -2.59255,1.79359 -8.11217,9.82444 -8.51814,9.38157 l 0.62341,13.09164 c 0,0 4.67284,1.12813 6.23572,1.80613 1.58183,0.68622 3.36287,3.07017 5.02095,3.54335 2.36547,0.67505 8.30119,-1.80887 8.30119,-1.80887 0,0 -0.34418,-3.12127 0.008,-4.29195 0.54198,-1.80102 4.21166,-4.16387 5.45295,-6.47234 1.12151,-2.08569 -0.76998,-3.47367 -0.76998,-3.47367" id="path6298"/>
        <path style="fill:#000000;fill-opacity:1;fill-rule:evenodd;stroke:#000000;stroke-width:2.5;stroke-linecap:butt;stroke-linejoin:miter;stroke-miterlimit:4;stroke-opacity:1;stroke-dasharray:none" d="m 117.28348,125.13276 c 0,0 2.88672,2.39699 3.03558,3.86346 0.16826,1.65757 -2.85654,3.34348 -2.48365,4.9673 0.3039,1.32338 3.52555,1.40319 3.58749,2.75961 0.13896,3.04317 -7.45095,6.89903 -7.45095,6.89903 0,0 3.79273,-8.70362 4.13942,-12.69421 0.152,-1.74962 -0.82789,-5.79519 -0.82789,-5.79519 z" id="path6300"/>
        <path style="fill:#000000;fill-opacity:1;fill-rule:evenodd;stroke:#000000;stroke-width:2.5;stroke-linecap:butt;stroke-linejoin:miter;stroke-miterlimit:4;stroke-opacity:1;stroke-dasharray:none" d="m 197.84472,123.06782 c 0,0 -1.43514,7.97763 0.60537,10.82514 1.47723,2.06147 3.69835,5.75327 3.69835,5.75327 0,0 -1.96506,0.0103 -2.64861,-0.41334 -1.68094,-1.04188 -1.77835,-2.4799 -2.74522,-4.61333 -0.67435,-1.48798 -2.2296,-4.08337 -2.53953,-6.31529 -0.26302,-1.89404 3.62964,-5.23645 3.62964,-5.23645 z" id="path6302"/>
        <path style="fill:#eeeeee;fill-opacity:1;fill-rule:evenodd;stroke:#000000;stroke-width:2.5;stroke-linecap:butt;stroke-linejoin:miter;stroke-miterlimit:4;stroke-opacity:1;stroke-dasharray:none;stroke-dashoffset:0;marker:none;visibility:visible;display:inline;overflow:visible;enable-background:accumulate" id="path6304" d="m 149.95408,141.35471 c 0,4.42228 -3.58497,8.00725 -8.00726,8.00725 -4.42228,0 -8.00725,-3.58497 -8.00725,-8.00725 0,-4.42229 3.58497,-8.00726 8.00725,-8.00726 4.42229,0 8.00726,3.58497 8.00726,8.00726 z"/>
        <path style="fill:#eeeeee;fill-opacity:1;fill-rule:evenodd;stroke:#000000;stroke-width:2.5;stroke-linecap:butt;stroke-linejoin:miter;stroke-miterlimit:4;stroke-opacity:1;stroke-dasharray:none;stroke-dashoffset:0;marker:none;visibility:visible;display:inline;overflow:visible;enable-background:accumulate" id="path6306" d="m 149.95408,141.35471 c 0,4.42228 -3.58497,8.00725 -8.00726,8.00725 -4.42228,0 -8.00725,-3.58497 -8.00725,-8.00725 0,-4.42229 3.58497,-8.00726 8.00725,-8.00726 4.42229,0 8.00726,3.58497 8.00726,8.00726 z" transform="translate(33.970233,-1.4815536)"/>
        <path style="fill:#000000;fill-opacity:1;fill-rule:evenodd;stroke:none" d="m 176.57545,132.98387 c -0.60369,-0.002 -1.14524,0.0924 -1.6875,0.15625 -1.08452,0.12762 -2,0.3125 -2,0.3125 l 0.78125,3.40625 c 0,0 0.74619,-0.14659 1.625,-0.25 0.87881,-0.10341 1.98089,0.0445 1.8125,-0.0312 -0.0764,-0.0344 0.63246,0.75926 0.6875,0.9375 0.17662,0.572 0.0739,2.70664 -0.21283,3.28555 -0.10049,0.2029 -0.91789,0.92085 -0.96875,0.9375 0.26015,-0.0852 -0.6036,-0.0102 -1.25,-0.125 -0.64639,-0.11485 -1.1875,-0.25 -1.1875,-0.25 0,0 -1.77098,-0.21062 -2.02202,0.36822 -0.33279,0.76734 1.0161,2.59623 1.0161,2.59623 0,0 0.69661,0.16421 1.53125,0.3125 0.83464,0.14829 1.68611,0.4098 2.9375,0 1.49176,-0.48852 2.41132,-1.4358 3.03125,-2.6875 0.83207,-1.68004 1.03587,-3.63213 0.46875,-5.46875 -0.40283,-1.30456 -1.10194,-2.42299 -2.59375,-3.09375 -0.70712,-0.31794 -1.36506,-0.40454 -1.96875,-0.40625 z" id="path6308"/>
        <path style="fill:#ffff00;fill-opacity:1;fill-rule:evenodd;stroke:#000000;stroke-width:2.5;stroke-linecap:butt;stroke-linejoin:miter;stroke-miterlimit:4;stroke-opacity:1;stroke-dasharray:none" d="m 175.12434,127.61583 c 0,0 -2.76154,0.43057 -3.90213,0.88685 -2.24015,0.89615 -4.4996,2.92576 -4.78899,5.32109 -0.1513,1.25234 0.33352,2.31707 1.24159,3.19266 0.97658,0.94165 2.54691,0.82551 3.90214,0.88685 1.98467,0.0898 4.44761,-1.47299 6.38531,-1.24159 2.7898,0.33316 6.40727,2.04292 8.51376,3.90214 0.98532,0.86966 1.20364,3.00894 2.3058,3.72477 0.99084,0.64353 2.84675,1.06319 3.90214,0.53211 1.08494,-0.54595 1.64891,-2.37102 1.95107,-3.5474 0.14562,-0.56692 0.16494,-1.38947 0,-1.95107 -0.24956,-0.84972 -0.98382,-1.84354 -1.59633,-2.48318 -0.7658,-0.79972 -3.01529,-2.12844 -3.01529,-2.12844" id="path6310"/>
        <path style="fill:#000000;fill-opacity:1;fill-rule:evenodd;stroke:none" d="m 142.54423,134.10752 c -0.60369,-0.002 -1.14524,0.0924 -1.6875,0.15625 -1.08452,0.12762 -2,0.3125 -2,0.3125 l 0.78125,3.40625 c 0,0 0.74619,-0.14659 1.625,-0.25 0.87881,-0.10341 1.98089,0.0445 1.8125,-0.0312 -0.0764,-0.0344 0.63246,0.75926 0.6875,0.9375 0.17662,0.572 0.0739,2.70664 -0.21283,3.28555 -0.10049,0.2029 -0.91789,0.92085 -0.96875,0.9375 0.26015,-0.0852 -0.6036,-0.0101 -1.25,-0.125 -0.64639,-0.11485 -1.1875,-0.25 -1.1875,-0.25 0,0 -1.77098,-0.21062 -2.02202,0.36822 -0.33279,0.76734 1.0161,2.59623 1.0161,2.59623 0,0 0.69661,0.16421 1.53125,0.3125 0.83464,0.14829 1.68611,0.4098 2.9375,0 1.49176,-0.48852 2.41132,-1.4358 3.03125,-2.6875 0.83207,-1.68004 1.03587,-3.63213 0.46875,-5.46875 -0.40283,-1.30456 -1.10194,-2.42299 -2.59375,-3.09375 -0.70712,-0.31794 -1.36506,-0.40454 -1.96875,-0.40625 z" id="path6312"/>
        <path style="fill:#ffff00;fill-opacity:1;fill-rule:evenodd;stroke:#000000;stroke-width:2.5;stroke-linecap:butt;stroke-linejoin:miter;stroke-miterlimit:4;stroke-opacity:1;stroke-dasharray:none" d="m 126.6421,135.89195 c 0,0 -2.32151,4.86132 -2.83792,7.0948 -0.32453,1.4036 -0.89005,3.4515 -0.35474,4.78898 0.55994,1.39902 2.23097,3.56838 3.72477,3.37003 0.8779,-0.11657 1.19662,-1.69291 1.59633,-2.48318 0.87421,-1.7284 1.06417,-4.54399 2.30581,-6.03057 1.51514,-1.81403 4.43906,-3.53936 6.74006,-4.07951 2.49515,-0.58572 5.95232,0.79854 8.51375,0.70948 1.39892,-0.0486 3.36302,-0.0768 4.61162,-0.70948 1.20826,-0.61227 3.19266,-3.19266 3.19266,-3.19266 0,0 -1.13737,-2.90371 -2.12844,-3.72477 -1.25696,-1.04134 -3.52452,-1.56753 -5.14373,-1.77369 -2.01207,-0.25617 -4.72682,0.28534 -6.74006,0.53211 -0.96379,0.11814 -3.19265,0.53211 -3.19265,0.53211" id="path6314"/>
        <path style="fill:none;stroke:#000000;stroke-width:2.5;stroke-linecap:butt;stroke-linejoin:miter;stroke-miterlimit:4;stroke-opacity:1;stroke-dasharray:none" d="m 102.68249,179.18294 c 0,0 3.98303,0.77819 5.59537,0.30245 3.33352,-0.98359 7.34831,-3.98237 9.37601,-6.80517 0.44369,-0.61766 0.75613,-2.41962 0.75613,-2.41962" id="path6316"/>
        <path style="fill:none;stroke:#000000;stroke-width:2.5;stroke-linecap:butt;stroke-linejoin:miter;stroke-miterlimit:4;stroke-opacity:1;stroke-dasharray:none" d="m 98.90184,225.15566 c 0,0 -1.119592,-7.16322 -0.453678,-10.13215 0.595164,-2.65349 2.428088,-5.98206 4.234328,-8.01498 3.66104,-4.12049 15.12261,-10.4346 15.12261,-10.4346" id="path6318"/>
        <path style="fill:none;stroke:#000000;stroke-width:2.5;stroke-linecap:butt;stroke-linejoin:miter;stroke-miterlimit:4;stroke-opacity:1;stroke-dasharray:none" d="m 118.41,206.85731 c 0,0 -8.11815,6.78546 -10.73705,10.43459 -1.28967,1.797 -3.17575,6.65395 -3.17575,6.65395" id="path6320"/>
        <path style="fill:none;stroke:#000000;stroke-width:2.5;stroke-linecap:butt;stroke-linejoin:miter;stroke-miterlimit:4;stroke-opacity:1;stroke-dasharray:none" d="m 119.16613,224.70198 c 0,0 -4.22646,5.63975 -5.59536,8.31743 -1.67261,3.27176 -3.39279,7.91633 -4.23433,11.49318 -0.76303,3.24313 -1.29632,7.70895 -1.20981,11.03951 0.0955,3.67579 1.81471,13.15666 1.81471,13.15666" id="path6322"/>
        <path style="fill:none;stroke:#000000;stroke-width:2.5;stroke-linecap:butt;stroke-linejoin:miter;stroke-miterlimit:4;stroke-opacity:1;stroke-dasharray:none" d="m 116.05841,284.02886 c 0,0 5.38088,-5.28964 5.41278,-9.97575 0.0232,-3.41428 -4.18842,-7.98245 -4.81074,-11.33961 -0.61647,-3.32564 0.51257,-9.192 2.06175,-12.19866 0.58452,-1.13443 3.09262,-2.92081 3.09262,-2.92081" id="path6324"/>
        <path style="fill:none;stroke:#000000;stroke-width:2.5;stroke-linecap:butt;stroke-linejoin:miter;stroke-miterlimit:4;stroke-opacity:1;stroke-dasharray:none" d="m 145.86852,296.38869 c 0,0 4.70016,-5.78866 4.63893,-8.76242 -0.13267,-6.44324 -7.04574,-12.36614 -6.01343,-18.72753 0.20947,-1.29079 2.32226,-3.53193 2.79453,-5.94189 0.34553,-1.76322 -0.3104,-4.88721 -0.56096,-5.56952 -0.73044,-1.98906 -5.84162,-3.60806 -5.84162,-3.60806" id="path6326"/>
        <path style="fill:none;stroke:#000000;stroke-width:2.5;stroke-linecap:butt;stroke-linejoin:miter;stroke-miterlimit:4;stroke-opacity:1;stroke-dasharray:none" d="m 138.93927,321.19867 c 0,0 -6.14302,-5.23032 -8.5705,-8.47241 -2.22781,-2.9754 -3.66994,-6.27404 -3.80729,-7.98321 -0.25347,-3.15413 -0.22839,-5.61259 0.39039,-8.7158 1.24644,-6.25088 7.57789,-13.05719 8.51212,-19.3623 0.27519,-1.85723 -1.14106,-4.52527 -0.39039,-6.24618 0.66552,-1.52569 3.41582,-2.09961 4.29425,-3.51347 0.8246,-1.32722 1.35577,-3.52344 1.17116,-5.07502 -0.12376,-1.04018 -1.56155,-3.12309 -1.56155,-3.12309" id="path6328"/>
        <path style="fill:none;stroke:#000000;stroke-width:2.5;stroke-linecap:butt;stroke-linejoin:miter;stroke-miterlimit:4;stroke-opacity:1;stroke-dasharray:none" d="m 130.38897,240.74943 c 0,0 -2.31393,4.24416 -2.73271,6.24617 -0.40765,1.94879 -0.89995,4.8606 0,6.63657 0.98471,1.94323 4.87109,2.35102 5.8558,4.29425 0.95289,1.88043 0.94277,5.14142 0,7.02695 -0.78564,1.57127 -4.68464,3.51347 -4.68464,3.51347 0,0 -2.14295,-7.60517 -1.95193,-10.93081 0.0701,-1.22071 1.17116,-3.90386 1.17116,-3.90386" id="path6330"/>
        <path style="fill:none;stroke:#000000;stroke-width:2.5;stroke-linecap:butt;stroke-linejoin:miter;stroke-miterlimit:4;stroke-opacity:1;stroke-dasharray:none" d="m 177.2353,264.17259 c 0,0 3.42404,7.52097 2.83148,10.89789 -0.4346,2.47674 -3.99704,4.90448 -3.90387,7.41734 0.0409,1.10411 1.95194,3.12309 1.95194,3.12309 0,0 -2.79134,1.21523 -3.90387,0.78077 -1.48382,-0.57945 -2.57042,-2.80025 -3.12309,-4.29425 -1.01907,-2.7548 0.27339,-5.92296 -1.27463,-8.41917 -0.71982,-1.16071 -4.67993,-3.25949 -4.67993,-3.25949 0,0 4.16081,13.97771 2.67156,18.83261 -0.96301,3.13936 -6.73192,2.27676 -7.74658,6.1521 -0.59991,2.29129 -0.36985,6.00906 1.17116,7.80772 1.27731,1.49088 4.15911,2.16751 5.90671,1.273 1.64838,-0.84372 3.12309,-3.34374 3.12309,-3.34374 0,0 1.20088,4.76369 0.16974,6.46683 -0.83633,1.38137 -3.75111,4.02268 -3.75111,4.02268" id="path6332"/>
        <path style="fill:none;stroke:#000000;stroke-width:2.5;stroke-linecap:butt;stroke-linejoin:miter;stroke-miterlimit:4;stroke-opacity:1;stroke-dasharray:none" d="m 184.80964,289.66226 c 0,0 -1.49209,3.72361 -1.23481,5.35084 0.56221,3.55588 6.17404,10.29007 6.17404,10.29007" id="path6334"/>
        <path style="fill:none;stroke:#000000;stroke-width:2.5;stroke-linecap:butt;stroke-linejoin:miter;stroke-miterlimit:4;stroke-opacity:1;stroke-dasharray:none" d="m 196.33452,283.07662 -1.64641,-7.82045 -0.82321,-12.75969" id="path6336"/>
        <path style="fill:none;stroke:#000000;stroke-width:2.5;stroke-linecap:butt;stroke-linejoin:miter;stroke-miterlimit:4;stroke-opacity:1;stroke-dasharray:none" d="m 198.80413,245.20916 c 0,0 -1.96921,6.69851 -1.2348,9.46687 1.31086,4.94124 10.29007,13.58289 10.29007,13.58289" id="path6338"/>
        <path style="fill:none;stroke:#000000;stroke-width:2.5;stroke-linecap:butt;stroke-linejoin:miter;stroke-miterlimit:4;stroke-opacity:1;stroke-dasharray:none" d="m 208.271,209.39972 c 0,0 0.245,6.13945 1.64641,8.23206 1.98189,2.9594 11.11328,5.76243 11.11328,5.76243" id="path6340"/>
        <path style="fill:none;stroke:#000000;stroke-width:2.5;stroke-linecap:butt;stroke-linejoin:miter;stroke-miterlimit:4;stroke-opacity:1;stroke-dasharray:none" d="m 200.45055,220.513 c 0,0 9.4549,9.98156 11.93648,15.2293 2.43339,5.14583 4.11602,18.52212 4.11602,18.52212" id="path6342"/>
        <path style="fill:#000000;fill-opacity:1;fill-rule:evenodd;stroke:none" d="m 160.3125,176 c -0.45584,16.56862 0.15625,22.78125 0.15625,22.78125 l 1.06452,3.37646 1.24798,-3.59521 c 0,0 -0.57888,-6.00266 -0.125,-22.5 L 160.3125,176 z" id="path6344"/>
      </g>
    </g>
    <g id="eyes">
      <path style="fill:#00ff00;fill-rule:evenodd;stroke:#000000;stroke-width:0.149379" d="m 91.795819,51.922477 c -0.922254,0.02381 -1.782498,0.460843 -2.571645,0.880198 -0.132336,0.398011 0.01915,0.891456 0.08003,1.317431 0.430233,2.011605 2.381165,3.597705 4.46086,3.465292 2.160607,-0.01172 4.07205,-1.831503 4.284204,-3.963121 0.02522,-0.404788 0.183485,-1.132528 -0.368095,-1.235098 -0.359335,-0.07633 -0.844049,0.02586 -0.832027,0.480111 -0.254555,1.10879 -0.784576,2.290738 -1.898253,2.761096 -0.922033,0.487561 -1.992575,0.179082 -2.937209,-0.06749 -0.362459,-0.277691 -0.52045,-0.797643 -0.605376,-1.234481 0.107999,-0.413402 0.704531,-0.232618 1.02357,-0.246144 0.582807,0.0071 1.186003,0.264923 1.755553,0.165253 0.455207,-0.356313 0.783163,-0.858023 0.7723,-1.452956 0.228376,-0.570557 -0.490299,-0.523285 -0.844871,-0.60138 -0.766873,-0.12608 -1.53824,-0.283121 -2.319044,-0.268714 z" id="path670" transform="translate(-369.7751,470.89137)"/>
      <path style="fill:#00ff00;fill-rule:evenodd;stroke:#000000;stroke-width:0.149379" d="m 116.25232,50.636071 c -1.59337,0.197682 -3.08728,1.073125 -4.72343,0.82677 -0.34818,-0.02645 -1.07765,-0.190848 -0.89863,0.403553 -0.0319,1.807799 1.02025,3.627876 2.7186,4.326229 1.92939,0.867779 4.38919,0.08733 5.48167,-1.720292 0.44106,-0.740186 0.75189,-1.618525 0.70491,-2.485757 -0.13801,-0.390293 -0.62571,-0.570561 -0.99566,-0.621401 -0.30032,0.227605 -0.10913,0.694925 -0.26471,1.012145 -0.28947,1.391227 -1.46185,2.714964 -2.96833,2.671423 -0.62095,-0.05962 -1.31221,-0.06369 -1.86451,-0.370406 -0.24057,-0.381391 -0.56398,-0.810734 -0.57133,-1.268533 0.5687,-0.394052 1.32263,-0.07091 1.9533,-0.02647 0.58036,0.146915 1.22514,-0.105397 1.46341,-0.673973 0.25242,-0.631548 0.23118,-1.373206 0.13127,-2.020901 -0.0574,-0.0015 -0.10744,-0.06491 -0.16656,-0.05239 z" id="path672" transform="translate(-369.7751,470.89137)"/>
    </g>
  </g>
</svg>
