<?xml version="1.0" encoding="UTF-8" standalone="no"?>
<!-- Created with Inkscape (http://www.inkscape.org/) -->

<svg
   xmlns:dc="http://purl.org/dc/elements/1.1/"
   xmlns:cc="http://creativecommons.org/ns#"
   xmlns:rdf="http://www.w3.org/1999/02/22-rdf-syntax-ns#"
   xmlns:svg="http://www.w3.org/2000/svg"
   xmlns="http://www.w3.org/2000/svg"
   version="1.0"
   width="380"
   height="420"
   id="svg2">
  <defs
     id="defs4" />
  <metadata
     id="metadata7">
    <rdf:RDF>
      <cc:Work
         rdf:about="">
        <dc:format>image/svg+xml</dc:format>
        <dc:type
           rdf:resource="http://purl.org/dc/dcmitype/StillImage" />
        <dc:title></dc:title>
        <dc:creator>
          <cc:Agent>
            <dc:title>http://commons.wikimedia.org/wiki/User:Sodacan</dc:title>
          </cc:Agent>
        </dc:creator>
      </cc:Work>
    </rdf:RDF>
  </metadata>
  <g
     id="layer1" />
  <g
     id="body">
    <path
       d="m 161.9,155.5 c 0,0 42.4,28.7 57.9,44 8.7,8.5 17.8,22 25,31.7 6.6,9 16,20.8 21,30.8 3.3,6.8 4.2,17.3 8,23.8 4.3,7.3 12.1,15.1 14.7,22.8 2.3,6.5 2.4,13.4 2.6,21.4 0.1,4 1.5,9.6 0.6,13 -1.6,6.2 -6.3,14.6 -11.9,17.6 -2.2,1.1 -8,0 -8,0 l -1,4.4 -101.1,5.9 -15.1,-13.7 1.3,-12.3 12.3,-2.5 c 0,0 -7.3,0.1 12.7,4.5 20,4.4 30.7,0.6 30.7,0.6 0,0 -12.3,-9.1 -16.7,-14.9 -5.2,-6.9 -7.8,-18.6 -9.2,-27.1 -1,-5.7 -0.7,-13.6 0,-19.4 0.6,-5.5 1.3,-13.2 4.2,-17.9 2.6,-4.5 8.1,-9.6 12.9,-11.5 2.6,-0.9 6.6,-1.7 9.3,-1.3 6.2,0.9 19.7,7.5 19.7,7.5 0,0 -17.2,-8.8 -25,-7.9 -5.5,0.6 -11.9,6.4 -11.9,6.4 0,0 -15.9,-12.3 -26.3,-16.8 -4.1,-1.8 -18,-2 -18,-2 0,0 5.4,8.1 9,9.7 1.6,0.7 6,0 6,0 0,0 -7.6,3.9 -11,3.5 -2.4,-0.3 -6.4,-3.6 -9.1,-5.5 -1.9,-1.4 -2.9,-1.6 -2.9,-1.6 0,0 6.4,9.9 10.5,12.6 2.5,1.8 9.8,3.1 9.8,3.1 0,0 -8.3,4.6 -12.1,4.2 -1.7,-0.2 -5.8,-3.4 -7.8,-4.8 -2.3,-1.5 -2.5,-1.3 -2.5,-1.3 0,0 5.6,6 7.3,9.1 1.6,3.1 2.9,7.4 2.9,7.4 0,0 -3.1,-1.6 -5.6,-2.5 -1.4,-0.5 -4.9,0.4 -4.9,0.4 0,0 2.6,3.7 4.1,5 1.8,1.4 6.5,3.8 6.5,3.8 -10.7,-29.5 -11.9,-18 -6.8,2.2 0.4,1.7 -5.7,-0.3 -5.7,-0.3 0,0 1.4,4.2 2.6,5.7 1.9,2.3 8,6 8,6 0,0 -7.2,1.9 -10.3,1.2 -3.1,-0.7 -8.3,-7.8 -8.3,-7.8 l -1.2,-0.2 c 0,0 3.6,8 6.1,10.6 2,2.1 8,5 8,5 0,0 -5.3,0.9 -7.6,0.7 -1.4,-0.1 -4.6,-1.1 -4.6,-1.1 0,0 2.5,2.8 3.8,3.8 1.8,1.3 6.5,3.4 6.5,3.4 0,0 -5.3,3.8 -8,3.8 -2,0 -6.1,-2.6 -6.1,-2.6 0,0 0.3,1.5 1.6,3.4 1.1,1.5 3.1,3.3 4.1,4.2 2.1,1.6 8,3.8 8,3.8 0,0 -8.8,2.7 -12.5,1.9 -1.4,-0.4 -3.8,-2.7 -3.8,-2.7 1.7,5.4 4.2,9.9 4.2,9.9 l -5.7,3.8 4.5,23 -29.79,12.1 -12.5,-1.1 -3.7,-2.6 -10.5,1.2 -8.1,-1.6 -0.4,-4.2 -4.2,3.4 -7.21,-4.9 c 0,0 1.86,-7.4 3.8,-9.9 3.31,-4.3 9.71,-8.7 14.81,-10.6 7.2,-2.7 25.5,-2.3 25.5,-2.3 l -1.6,-47.5 3.8,-16.7 0.8,-46.8 -0.8,-54.7 64.39,-21.7 z"
       id="path2564"
       style="fill:#ffff00;fill-opacity:1;fill-rule:evenodd;stroke:#000000;stroke-width:3.33529997;stroke-linecap:butt;stroke-linejoin:miter;stroke-miterlimit:4;stroke-opacity:1;stroke-dasharray:none" />
    <path
       d="m 176.3,151.3 c 0,0 44.9,38 60.5,53.3 8.6,8.5 17.8,21.9 25,31.7 6.6,9 16,20.8 20.9,30.8 3.4,6.8 4.2,17.3 8,23.8 4.3,7.3 12.1,15.1 14.8,22.8 2.2,6.5 2.4,13.4 2.6,21.4 0.1,4 1.5,9.6 0.6,13 -1.6,6.2 -6.3,14.6 -12,17.6 -2.1,1.1 -8,0 -8,0 0,0 4.4,4.6 3.7,6.9 -0.5,1.6 -5.1,2.5 -5.1,2.5 l -106.4,5.6 -13,2.7 -17,-18.6 3,-11.4 17,-3.5 c 0,0 -10,0 10,4.4 19.9,4.4 50.9,-2.7 50.9,-2.7 0,0 -15.6,-8.1 -19.9,-13.9 -5.2,-6.9 -7.9,-18.6 -9.3,-27.1 -0.9,-5.8 -0.6,-13.6 0,-19.4 0.7,-5.5 1.4,-13.2 4.2,-17.9 2.7,-4.5 8.2,-9.6 13,-11.5 2.5,-0.9 6.6,-1.7 9.3,-1.3 6.2,0.9 19.7,7.5 19.7,7.5 0,0 -17.2,-8.9 -25,-7.9 -5.6,0.6 -16,9.7 -16,9.7 0,0 -9,-6.4 -19.5,-10.9 -4.1,-1.8 -13.9,-5.3 -13.9,-5.3 0,0 5.3,8.1 9,9.7 1.6,0.7 5.9,0 5.9,0 0,0 -7.5,3.9 -10.9,3.5 -2.5,-0.2 -6.5,-3.6 -9.1,-5.5 -1.9,-1.4 -2.9,-1.5 -2.9,-1.5 0,0 6.3,9.8 10.4,12.6 2.6,1.7 9.9,3 9.9,3 0,0 -8.3,4.6 -12.2,4.2 -1.7,-0.2 -5.7,-3.3 -7.8,-4.8 -2.2,-1.5 -2.4,-1.3 -2.4,-1.3 0,0 5.5,6.1 7.2,9.1 1.7,3.1 2.9,7.4 2.9,7.4 0,0 -3,-1.5 -5.6,-2.4 -1.4,-0.5 -4.9,0.4 -4.9,0.4 0,0 2.7,3.6 4.2,4.9 1.7,1.4 6.4,3.8 6.4,3.8 0,0 -4.6,2 -6.8,2.3 -1.7,0.2 -5.7,-0.4 -5.7,-0.4 0,0 1.5,4.2 2.7,5.7 1.9,2.3 7.9,6.1 7.9,6.1 0,0 -7.2,1.8 -10.2,1.1 -3.2,-0.7 -8.4,-7.8 -8.4,-7.8 l -1.1,-0.2 c 0,0 3.5,8 6.1,10.7 1.9,2 7.9,4.9 7.9,4.9 0,0 -5.3,0.9 -7.5,0.8 -1.5,-0.1 -4.6,-1.2 -4.6,-1.2 0,0 2.5,2.9 3.8,3.8 1.8,1.3 6.4,3.4 6.4,3.4 0,0 -5.3,3.8 -7.9,3.8 -2,0.1 -6.1,-2.6 -6.1,-2.6 0,0 0.3,1.6 1.6,3.4 1,1.6 3.1,3.4 4.1,4.2 2,1.7 8,3.8 8,3.8 0,0 -8.9,2.8 -12.6,1.9 -1.3,-0.3 -3.8,-2.7 -3.8,-2.7 1.8,5.4 4.2,9.9 4.2,9.9 l -5.7,3.8 -2.3,17.1 -31.5,17.1 -12.5,-1.1 -1.89,-7.6 -5.7,4.1 -13,-4.5 -0.3,-4.2 -4.2,3.4 -7.2,-4.9 c 0,0 1.8,-7.4 3.8,-9.9 3.3,-4.3 9.7,-8.7 14.8,-10.6 7.2,-2.7 25.39,-2.3 25.39,-2.3 l -1.5,-47.5 3.8,-16.7 0.8,-46.8 -3.3,-64 64.3,-21.7 z"
       id="path2407"
       style="fill:#ffff00;fill-opacity:1;fill-rule:evenodd;stroke:#000000;stroke-width:3.33529997;stroke-linecap:butt;stroke-linejoin:miter;stroke-miterlimit:4;stroke-opacity:1;stroke-dasharray:none" />
    <path
       d="m 186.5,367.4 -10.8,0.7 c 0,0 -4.3,-2.4 -6.3,-2 -2.5,0.6 -5.1,3.5 -6.2,5.9 -0.5,1.2 -1.1,4.6 -1.1,4.6"
       id="path2457"
       style="fill:none;stroke:#000000;stroke-width:2.5;stroke-linecap:butt;stroke-linejoin:miter;stroke-miterlimit:4;stroke-opacity:1;stroke-dasharray:none" />
    <path
       d="m 156.2,369.2 c 0,0 1.8,-6.8 3.7,-8.6 1.4,-1.3 4,-2.3 5.9,-2.4 1.7,0 5.5,2 5.5,2 l 11.2,0"
       id="path2459"
       style="fill:none;stroke:#000000;stroke-width:2.5;stroke-linecap:butt;stroke-linejoin:miter;stroke-miterlimit:4;stroke-opacity:1;stroke-dasharray:none" />
    <path
       d="m 62.51,367.4 c 0,0 2.6,-7.9 4.8,-10.7 1.1,-1.5 4.9,-4 4.9,-4"
       id="path3231"
       style="fill:none;stroke:#000000;stroke-width:2.5;stroke-linecap:butt;stroke-linejoin:miter;stroke-miterlimit:4;stroke-opacity:1;stroke-dasharray:none" />
    <path
       d="m 79.51,371.9 c 0,0 2.1,-6.7 4.1,-8.8 2.3,-2.5 15.8,-6.1 15.8,-6.1"
       id="path3233"
       style="fill:none;stroke:#000000;stroke-width:2.5;stroke-linecap:butt;stroke-linejoin:miter;stroke-miterlimit:4;stroke-opacity:1;stroke-dasharray:none" />
    <path
       d="m 98.31,378.9 c 0,0 3.49,-11.4 7.49,-14.9 1.4,-1.3 14.5,-4.1 14.5,-4.1"
       id="path3235"
       style="fill:none;stroke:#000000;stroke-width:2.5;stroke-linecap:butt;stroke-linejoin:miter;stroke-miterlimit:4;stroke-opacity:1;stroke-dasharray:none" />
    <g
       id="armed">
      <path
         d="m 51.86,363.8 c 0.91,-0.8 2.93,-0.3 4.08,0 0.88,0.2 1.87,1.2 2.27,2 0.5,1 0.9,2.6 0.4,3.6 -0.9,2.4 -6.32,4.2 -7.66,6.4 -0.65,1 -3.39,5.4 -3.39,5.4 0,0 -1.76,-6.1 -1.59,-8.4 0.16,-2.2 4.18,-7.6 5.89,-9 z"
         id="path3237"
         style="fill:#ff0000;fill-rule:evenodd;stroke:#000000;stroke-width:2.5;stroke-linecap:butt;stroke-linejoin:miter;stroke-miterlimit:4;stroke-opacity:1;stroke-dasharray:none" />
      <path
         d="m 103.6,378.3 c 0.9,-0.7 3,-0.3 4.1,0 0.9,0.3 1.8,1.3 2.3,2.1 0.5,0.9 0.8,2.6 0.4,3.6 -0.9,2.4 -6.3,4.2 -7.7,6.3 -0.6,1.1 -3.39,5.5 -3.39,5.5 0,0 -1.7,-6.1 -1.6,-8.4 0.2,-2.2 4.19,-7.6 5.89,-9.1 z"
         id="path3239"
         style="fill:#ff0000;fill-rule:evenodd;stroke:#000000;stroke-width:2.5;stroke-linecap:butt;stroke-linejoin:miter;stroke-miterlimit:4;stroke-opacity:1;stroke-dasharray:none" />
      <path
         d="m 84.11,374.3 c 1,-0.8 3,-0.3 4.1,0 0.9,0.2 1.9,1.2 2.3,2 0.5,1 0.8,2.6 0.4,3.6 -0.9,2.4 -6.3,4.2 -7.7,6.4 -0.6,1 -3.4,5.4 -3.4,5.4 0,0 -1.7,-6.1 -1.5,-8.4 0.1,-2.2 4.1,-7.6 5.8,-9 z"
         id="path3241"
         style="fill:#ff0000;fill-rule:evenodd;stroke:#000000;stroke-width:2.5;stroke-linecap:butt;stroke-linejoin:miter;stroke-miterlimit:4;stroke-opacity:1;stroke-dasharray:none" />
      <path
         d="m 71.01,367.9 c 0.9,-0.8 2.9,-0.3 4.1,0 0.9,0.2 1.8,1.2 2.2,2 0.6,1 0.9,2.7 0.5,3.7 -0.9,2.4 -6.4,4.1 -7.7,6.3 -0.7,1.1 -3.4,5.5 -3.4,5.5 0,0 -1.8,-6.1 -1.6,-8.4 0.2,-2.2 4.2,-7.7 5.9,-9.1 z"
         id="path3243"
         style="fill:#ff0000;fill-rule:evenodd;stroke:#000000;stroke-width:2.5;stroke-linecap:butt;stroke-linejoin:miter;stroke-miterlimit:4;stroke-opacity:1;stroke-dasharray:none" />
      <path
         d="m 148.7,361.3 c 0.9,-0.7 2.9,-0.3 4.1,0 0.9,0.3 1.8,1.3 2.3,2.1 0.5,0.9 0.8,2.6 0.4,3.6 -0.9,2.4 -6.4,4.2 -7.7,6.3 -0.6,1.1 -3.4,5.5 -3.4,5.5 0,0 -1.7,-6.1 -1.6,-8.4 0.2,-2.2 4.2,-7.6 5.9,-9.1 z"
         id="path3245"
         style="fill:#ff0000;fill-rule:evenodd;stroke:#000000;stroke-width:2.5;stroke-linecap:butt;stroke-linejoin:miter;stroke-miterlimit:4;stroke-opacity:1;stroke-dasharray:none" />
      <path
         d="m 154.6,369 c 0.9,-0.7 2.9,-0.3 4.1,0 0.9,0.3 1.8,1.3 2.2,2.1 0.6,1 0.9,2.6 0.5,3.6 -0.9,2.4 -6.4,4.2 -7.7,6.3 -0.7,1.1 -3.4,5.5 -3.4,5.5 0,0 -1.8,-6.1 -1.6,-8.4 0.2,-2.2 4.2,-7.6 5.9,-9.1 z"
         id="path3247"
         style="fill:#ff0000;fill-rule:evenodd;stroke:#000000;stroke-width:2.5;stroke-linecap:butt;stroke-linejoin:miter;stroke-miterlimit:4;stroke-opacity:1;stroke-dasharray:none" />
      <path
         d="m 161.4,376.5 c 0.9,-0.7 2.9,-0.3 4.1,0 0.9,0.2 1.8,1.2 2.2,2.1 0.6,0.9 0.9,2.6 0.5,3.6 -0.9,2.4 -6.4,4.1 -7.7,6.3 -0.7,1.1 -3.4,5.5 -3.4,5.5 0,0 -1.8,-6.1 -1.6,-8.4 0.2,-2.2 4.2,-7.7 5.9,-9.1 z"
         id="path3249"
         style="fill:#ff0000;fill-rule:evenodd;stroke:#000000;stroke-width:2.5;stroke-linecap:butt;stroke-linejoin:miter;stroke-miterlimit:4;stroke-opacity:1;stroke-dasharray:none" />
    </g>
    <path
       d="m 285.9,364 c 0,0 1,-4.3 1,-6.6 0.1,-4.4 3.7,-9.8 3.9,-14.2 0,-1.1 -0.6,-3.7 -0.6,-3.7"
       id="path3251"
       style="fill:none;stroke:#000000;stroke-width:2.5;stroke-linecap:butt;stroke-linejoin:miter;stroke-miterlimit:4;stroke-opacity:1;stroke-dasharray:none" />
    <path
       d="m 219.2,261.3 c 0,0 -1.2,-9.7 0.5,-14.7 1.7,-5.2 7,-10.6 10.5,-14.7 4.3,-5.1 10,-12.3 15.7,-15.8 5.8,-3.5 14.8,-7.3 21.6,-6.8 5.4,0.4 12.9,3.6 16.2,7.9 1.3,1.6 1.9,4.7 1.6,6.8 -0.2,1.6 -1.3,3.8 -2.6,4.7 -1.2,0.8 -3.6,1.3 -4.7,0.5 -1.9,-1.2 -2.1,-7.3 -2.1,-7.3 0,0 -4.2,5.2 -4.2,7.9 0,2.3 1.6,5.7 3.6,6.8 3.4,1.7 10.7,1.6 14.2,0 3.9,-1.8 7.2,-7.2 8.9,-11 1.4,-3.1 1.2,-8 0,-11.1 -1.2,-3.3 -4.9,-6.9 -7.8,-8.9 -1.8,-1.2 -6.9,-2.6 -6.9,-2.6 0,0 7.8,-1.7 11.1,-2.6 3.8,-1.1 9.5,-1.8 12.6,-4.2 2.1,-1.8 4.2,-5.2 4.7,-7.9 0.5,-2.9 0.1,-7.5 -2.1,-9.5 -3.3,-2.9 -10.8,-3.7 -14.7,-1.5 -1.6,0.8 -2.6,5.2 -2.6,5.2 0,0 5.1,-1.1 6.8,0 1.3,0.8 2.5,3.2 2.1,4.7 -0.4,1.6 -2.7,2.8 -4.2,3.2 -3.1,0.8 -7.3,-1.8 -10.5,-1.6 -3.1,0.2 -10,2.6 -10,2.6 0,0 8.3,-8.4 11,-12.6 2.5,-3.8 4.5,-9.5 6.3,-13.6 2,-4.5 3.8,-11 6.3,-15.2 1.4,-2.3 3.3,-5.9 5.8,-6.9 3.1,-1.2 8.5,-1.1 11,1.1 2.1,1.8 2.3,6.2 2.1,8.9 0,1.3 -0.5,3.4 -1.5,4.2 -1.5,1.1 -6.3,0.5 -6.3,0.5 0,0 1.2,3.9 2.6,4.8 2,1.2 5.7,1 7.9,0 3.1,-1.5 5.7,-5.9 7.3,-9 1.5,-2.7 3.4,-6.8 3.2,-9.9 -0.4,-5 -4.2,-11 -7.4,-14.7 -1.5,-1.9 -4.1,-4 -6.3,-4.8 -3.7,-1.3 -9.3,-1.6 -13.1,-0.5 -1.9,0.5 -5.3,3.7 -5.3,3.7 0,0 1.7,-10.7 1.1,-15.2 -0.4,-2.8 -2.7,-6.1 -3.2,-8.9 -1,-7.21 -1.4,-17.39 1.1,-24.19 1.9,-5.26 6.3,-12.59 11.5,-14.7 3.3,-1.31 8.7,-0.46 11.6,1.58 1.7,1.23 3.1,4.18 3.1,6.3 0,1.76 -1.3,4.03 -2.6,5.25 -1.1,1.07 -3.2,2.55 -4.7,2.1 -1.4,-0.44 -2.6,-4.2 -2.6,-4.2 0,0 -3.5,4.59 -3.2,6.82 0.5,3.31 4.1,7.85 7.4,8.4 4.6,0.77 10.6,-4.24 13.6,-7.87 4,-4.76 7.6,-13.3 6.8,-19.43 -0.5,-4.51 -4.5,-10.26 -8.4,-12.6 -5.4,-3.26 -10.4,-5.81 -16.7,-5.47 -3.9,0.2 -10.7,3.75 -13.8,6 -1.3,0.89 -4.3,3.65 -5.7,4.4 -2.7,1.53 -5,-0.35 -7.9,0.83 -2.1,0.83 -8.2,8.41 -8.8,10.1 -3.3,9.04 -3.8,30.87 -3.8,30.87 0,0 -10.4,-9.51 -12.2,-13.52 -0.7,-1.76 -0.3,-4.57 0.5,-6.3 0.9,-1.81 5.8,-2.18 5.8,-2.18 0,0 -3.2,-3.58 -5.3,-4.34 -1.9,-0.67 -5,0 -6.6,1.14 -2.3,1.55 -3.8,5.29 -4.7,7.87 -1.4,3.6 -1,8.83 -0.1,12.53 0.9,3.35 3.1,6.3 5.3,9.01 2.4,2.9 5.4,7.1 7.9,9.9 1.8,2 4.3,4.6 6.3,6.3 1.8,1.6 6.3,4.8 6.3,4.8 0,0 -11.1,-2.5 -15.8,-1.6 -3.8,0.7 -9.1,2.7 -11.5,5.8 -1.9,2.4 -2.9,7 -2.1,9.9 0.9,3.5 4.5,7.7 7.9,9 4.2,1.6 15.2,-1.6 15.2,-1.6 0,0 -5.4,-3.4 -7.4,-5.3 -1,-1 -3.2,-2.2 -3.1,-3.6 0.2,-2.1 3.2,-4.2 5.2,-4.2 3.5,-0.1 7.4,4 9.5,6.8 2.2,2.9 3.5,6.4 3.5,10.1 0,3.2 -1.7,8.5 -3,11.4 -1.9,4.1 -4.7,9.5 -7.3,13.1 -4,5.4 -10.6,11.5 -15.3,16.3 -6.3,6.4 -15.1,14.7 -21.5,21 -5.5,5.5 -13.5,12.3 -18.4,18.4 -3.3,4.2 -7.3,10.3 -9.4,15.2 -2,4.6 -3.5,11.3 -4.2,16.3 -0.5,3.3 -0.4,6.4 0.2,9.7 0.8,3.9 3.5,9.3 3.5,9.3"
       id="path3254"
       style="fill:#ffff00;fill-opacity:1;fill-rule:evenodd;stroke:#000000;stroke-width:3;stroke-linecap:butt;stroke-linejoin:miter;stroke-miterlimit:4;stroke-opacity:1;stroke-dasharray:none" />
    <path
       d="m 296.4,55.88 c 0,0 -4.5,5.67 -6.1,8.3 -1.5,2.32 -3.5,5.46 -4.2,8.09 -0.5,1.77 -0.4,6.11 -0.4,6.11"
       id="path3256"
       style="fill:none;stroke:#000000;stroke-width:2.5;stroke-linecap:butt;stroke-linejoin:miter;stroke-miterlimit:4;stroke-opacity:1;stroke-dasharray:none" />
    <path
       d="m 274.7,97.17 c 0,0 5.1,5.73 6.4,8.73 0.8,1.8 1.3,6.5 1.3,6.5"
       id="path3258"
       style="fill:none;stroke:#000000;stroke-width:2.5;stroke-linecap:butt;stroke-linejoin:miter;stroke-miterlimit:4;stroke-opacity:1;stroke-dasharray:none" />
    <path
       d="m 105,83.8 c 0.5,-1.46 0.9,-0.98 2.3,-1.49 1.5,-0.51 1.5,-0.79 2.6,0.23 1.1,0.92 1.4,0.57 1.5,1.96 0.4,3.57 0,7.16 -1.4,10.49 -0.6,1.38 -2.1,3.28 -2.1,3.28 0,0 -1.2,-1.4 -1.7,-3.12 C 105,91.57 103.9,87.39 105,83.8 z"
       id="path6139"
       style="fill:#ffffff;fill-rule:evenodd;stroke:#000000;stroke-width:2.5;stroke-linecap:butt;stroke-linejoin:miter;stroke-miterlimit:4;stroke-opacity:1;stroke-dasharray:none" />
    <g
       id="langued">
      <path
         d="m 138.1,102.6 c 0,0 -9.5,-5.73 -14.2,-6.33 -3.4,-0.4 -8,-0.4 -11.3,0.2 -4.7,0.9 -11.7,6.23 -16.49,6.83 -2.26,0.3 -4.15,0.6 -5.77,-0.8 -2.91,-2.53 -0.72,-7.55 -2.51,-10.77 -0.88,-1.57 -3.07,-3.2 -4.83,-4.03 -2.18,-1.02 -5.58,-1.87 -8.04,-1.61 -1.53,0.16 -4.59,2.02 -4.59,2.02 0,0 4.05,1.99 5.05,3.42 2.19,3.15 0.57,8.87 2.53,12.07 0.77,1.3 2.6,2.6 3.9,3.5 1.34,0.9 3.19,2.2 4.83,2.6 3.64,0.9 8.93,0.7 12.63,0 4.49,-0.9 9.49,-5.9 13.99,-6.8 3.5,-0.6 8.3,0.6 11.7,1.1 2.6,0.4 8.1,2.7 8.1,2.7 l 5,-4.1 z"
         id="path6066"
         style="fill:#ff0000;fill-opacity:1;fill-rule:evenodd;stroke:#000000;stroke-width:2.5;stroke-linecap:butt;stroke-linejoin:miter;stroke-miterlimit:4;stroke-opacity:1;stroke-dasharray:none" />
      <path
         d="m 108.9,107.3 c 0,1.5 0.5,1.2 1.7,2.1 1.2,1 1.1,1.2 2.5,0.7 1.3,-0.6 1.5,-0.2 2.1,-1.4 1.6,-3.3 0.3,-2.8 0.1,-6.4 -0.1,-1.5 -1.1,-3.83 -1.1,-3.83 0,0 -1.5,1 -2.6,2.43 -2.2,3 -2.6,2.6 -2.7,6.4 z"
         id="path6141"
         style="fill:#ffffff;fill-rule:evenodd;stroke:#000000;stroke-width:2.5;stroke-linecap:butt;stroke-linejoin:miter;stroke-miterlimit:4;stroke-opacity:1;stroke-dasharray:none" />
    </g>
    <path
       d="m 154.8,106.2 c 0,0 -14.5,15.1 -22,20 -7.1,4.5 -18.8,6.5 -25.9,11.2 -7.2,4.6 -15.9,12.4 -21,19.2 -3.5,4.7 -6.6,12.1 -8.8,17.5 -2,5 -1.8,13 -5.2,17.2 -1.4,1.6 -4.2,2.8 -6.3,3.5 -4.6,1.4 -11.8,-0.9 -16.1,1.4 -4,2 -8.6,7.1 -9.8,11.5 -0.7,2.5 -0.2,6.4 1.4,8.4 1.8,2.2 8.7,3.5 8.7,3.5 0,0 -3.1,-5.4 -2.4,-7.7 0.5,-1.9 3,-3.7 4.9,-4.2 2.8,-0.7 6.6,1.7 9.4,2.1 3.6,0.4 8.4,0.7 11.9,0.4 2.7,-0.3 8.8,-1.8 8.8,-1.8 0,0 -2.7,8.4 -1.8,11.9 0.7,2.7 4.7,4.7 5.6,7.4 0.9,2.4 1.1,6.2 0.4,8.7 -1.2,4.3 -8.4,12.3 -8.4,12.3 0,0 11.1,-3.5 14.7,-6.7 3.1,-2.8 6.2,-7.8 7,-11.9 0.8,-3.8 -3,-9.2 -1.8,-12.9 1.6,-4.8 11.6,-11.9 11.6,-11.9 0,0 0.5,8.6 1.4,12.2 0.6,2.4 3.7,5.3 3.1,7.7 -0.7,3.3 -6.9,4.3 -8.4,7.4 -1.4,3 -1.2,7.8 -0.7,11.2 0.4,2.3 1.6,5.5 3.2,7.3 2.4,2.7 7,5 10.5,6 1.2,0.3 4.2,0 4.2,0 0,0 -7.1,-4.6 -8.4,-7.7 -0.7,-1.8 -0.5,-4.6 0.3,-6.3 1,-2.1 3.9,-3.8 5.6,-5.3 2.6,-2.1 6.7,-4.1 8.8,-6.6 2.1,-2.7 4,-6.9 4.9,-10.2 0.9,-3.5 0.7,-11.9 0.7,-11.9 0,0 -0.3,6.4 1.4,9.5 1,1.8 5.1,4.9 6.3,6.6 0.9,1.4 2.3,3.6 2.1,5.3 -0.2,2.1 -2.8,4.1 -3.9,5.9 -1,1.7 -3.1,5.6 -3.1,5.6 0,0 9.4,-4.4 12.6,-7.3 2.9,-2.7 6.7,-7 7.3,-10.9 0.4,-2 -1.1,-4.7 -1.7,-6.6 -0.5,-1.4 -1.3,-3.2 -1.8,-4.6 -0.4,-1.3 -1.4,-3.2 -1,-4.5 0.7,-2.3 5.9,-5.3 5.9,-5.3 0,0 -1.2,4.4 -1,6.3 0.4,3.2 4.2,9.8 4.2,9.8 0,0 0.4,-6 2.1,-7.7 2.9,-3 9.6,-2.2 13.3,-4.2 4.2,-2.3 9.3,-6.7 12.2,-10.5 3.4,-4.3 6.6,-10.9 8.1,-16.1 0.9,-3 -0.4,-7.7 1,-10.5 1.7,-3.2 7.1,-4.8 9.1,-7.7 1.6,-2.3 1.4,-6.6 3.2,-8.7 2,-2.5 7.7,-2.8 9.1,-5.6 1.5,-3.1 -0.4,-8 -1.4,-11.2 -1.5,-4.9 -7.7,-15.1 -7.7,-15.1 l -1.8,-22.77 -11.5,-13.65 -49.4,13.66 6.3,7.36 z"
       id="path5995"
       style="fill:#ffff00;fill-opacity:1;fill-rule:evenodd;stroke:#000000;stroke-width:3;stroke-linecap:butt;stroke-linejoin:miter;stroke-miterlimit:4;stroke-opacity:1;stroke-dasharray:none" />
    <path
       d="m 196,51.73 c 0,0 2.6,-3.47 3.4,-6.42 0.5,-1.79 0.2,-7.06 -0.1,-9.68 -0.3,-2.45 -1.1,-3.41 -1.1,-3.41 0,0 -0.5,2.99 -1.2,4.54 -1.2,2.6 -5.9,7.45 -5.9,7.45 0,0 0.8,-3.44 0.7,-4.94 -0.3,-4.61 -4.2,-14.82 -4.2,-14.82 0,0 -1.8,10 -4.3,13.41 -2.1,2.95 -4.9,1.98 -8.4,3.17 -8.6,2.99 -24.3,0.71 -34.1,4.66 -4.1,1.63 -12.4,7.38 -12.4,7.38 0,0 -10.3,3.56 -16.1,2.51 -2.1,-0.39 -4.6,-2.32 -6.7,-1.91 -3.7,0.71 -6.7,0.63 -9.9,1.59 -3.9,1.2 -4.1,9.48 -2.8,13.39 0.4,1.31 2.2,2.49 2.5,3.83 0.6,2.23 -1.3,5.45 -0.6,7.65 0.8,2.59 3.3,5.85 5.7,7.01 3.4,1.6 8.6,0.24 12.1,-0.96 3.9,-1.31 8.1,-0.96 10.2,-4.46 0.9,-1.41 3.5,-6.69 3.5,-6.69 0,0 6.3,4.49 7.7,8.29 1.3,3.31 1.2,8.59 -0.3,11.79 -2.2,4.73 -8.2,9.59 -13.1,11.49 -4.4,1.7 -11.3,-1.6 -15.6,0.3 -3.4,1.5 -6.8,2.9 -8,6.4 -0.7,2.3 -1.2,7.1 0.3,8.9 1.8,2.1 5.7,0.2 7,2.6 0.8,1.3 0.7,6.7 0.7,6.7 0,0 6.2,-4.1 7.6,-6.7 1,-1.7 1,-6.4 1,-6.4 0,0 15.2,1 21.7,1 4.5,-0.1 12.2,1 16.2,-1 3.2,-1.6 5.7,-5.5 6.4,-8.9 0.3,-1.3 -1.3,-4.2 -1.3,-4.2 0,0 2.4,-1.4 3.5,-0.3 3,2.7 4.1,6.2 4.2,10.2 0.1,7.1 -0.7,17.6 -3.8,23.9 -1.9,3.8 -5.1,8.7 -8.7,12.2 -1.4,1.4 -2.9,2.6 -4.4,3.4 -3.6,2 -9.6,2 -13.1,4.2 -2.3,1.5 -5.1,4.2 -6.4,6.7 -1,2 -1.7,5.1 -1.6,7.3 0.2,2.9 3.2,8.9 3.2,8.9 l 2.5,-7.2 12.5,-6 c 0,0 16.6,-3.7 22.6,-7.6 6.6,-4.2 6.8,-6.6 6.8,-6.6 0,0 -1.5,9.1 -9.3,16.2 -2.5,2.2 -9.5,5.5 -9.5,5.5 0,0 13.4,-1 18.5,-3.5 6,-3 12.6,-9.6 16.5,-15.1 3.6,-4.9 9.1,-21.7 9.1,-21.7 0,0 -4.3,-15.8 -7.6,-23.4 -1.7,-4.1 -8,-12.52 -8,-12.52 0,0 6.1,8.72 8,12.82 4.2,9.1 10.1,31.9 10.1,31.9 0,0 4.7,-14.7 5.5,-21.2 0.5,-4.7 0.7,-11.3 -0.5,-16 -1.1,-4 -6.5,-12.03 -6.5,-12.03 0,0 5.1,8.43 6.4,12.43 1.5,4.5 0,11.7 2.6,15.6 3,4.7 10,10 15.5,10.1 2.3,0 5,-2.3 6.5,-4 2.1,-2.4 4.4,-6.5 4,-9.6 -0.2,-2 -4,-5.5 -4,-5.5 0,0 -1.8,4.9 -3.1,6.4 -1.2,1.2 -3.4,0.7 -4.8,-0.2 -1.3,-0.8 -1.1,-4.7 -1.4,-6.2 -1.2,-7.5 3.4,-16.33 0.8,-22.4 -0.9,-2.07 -3.8,-7.58 -6.4,-9.23 -1.7,-1.08 -8.1,-3.94 -8.1,-3.94 0,0 4.3,-2.76 5.5,-4.51 2.6,-3.79 4.2,-9.99 5,-14.54 0.6,-3.26 0,-11.02 0,-11.02 0,0 -10.2,0.33 -14.5,1 -2.5,0.38 -8.2,1.97 -8.2,1.97 z"
       id="path5193"
       style="fill:#ffff00;fill-opacity:1;fill-rule:evenodd;stroke:#000000;stroke-width:3;stroke-linecap:butt;stroke-linejoin:miter;stroke-miterlimit:4;stroke-opacity:1;stroke-dasharray:none" />
    <path
       d="m 140.6,61.88 c -1.646,3.755 2.158,9.026 8.478,11.8 6.32,2.77 12.77,1.996 14.42,-1.759 1.646,-3.755 -2.158,-9.026 -8.478,-11.8 -6.32,-2.77 -12.77,-1.996 -14.42,1.759 z"
       id="path3163"
       style="fill:#ffffff;fill-opacity:1;fill-rule:evenodd;stroke:#000000;stroke-width:2.5;stroke-linecap:butt;stroke-linejoin:miter;stroke-miterlimit:4;stroke-opacity:1;stroke-dashoffset:0;marker:none;visibility:visible;display:inline;overflow:visible;enable-background:accumulate" />
    <path
       d="m 156.6,64.25 c 0,4.4 -3.6,8 -8,8 -4.4,0 -8,-3.6 -8,-8 0,-4.4 3.6,-8 8,-8 4.4,0 8,3.6 8,8 z"
       id="path3179"
       style="fill:#ffffff;fill-opacity:1;fill-rule:evenodd;stroke:#000000;stroke-width:2.5;stroke-linecap:butt;stroke-linejoin:miter;stroke-miterlimit:4;stroke-opacity:1;stroke-dashoffset:0;marker:none;visibility:visible;display:inline;overflow:visible;enable-background:accumulate" />
    <path
       d="m 149.3,57.32 c -0.6,0 -1.1,0.1 -1.7,0.16 -1,0.12 -2,0.31 -2,0.31 l 0.8,3.4 c 0,0 0.8,-0.14 1.6,-0.25 0.9,-0.1 2,0.1 1.9,0 -0.1,0 0.6,0.76 0.6,0.94 0.2,0.57 0.1,2.71 -0.2,3.29 -0.1,0.2 -0.9,0.92 -0.9,0.93 0.2,-0.1 -0.6,0 -1.3,-0.12 -0.6,-0.12 -1.2,-0.25 -1.2,-0.25 0,0 -1.7,-0.21 -2,0.37 -0.3,0.76 1,2.59 1,2.59 0,0 0.7,0.17 1.5,0.32 0.9,0.14 1.7,0.41 3,0 1.5,-0.49 2.4,-1.44 3,-2.69 0.8,-1.68 1.1,-3.63 0.5,-5.47 -0.4,-1.3 -1.1,-2.42 -2.6,-3.09 -0.7,-0.32 -1.4,-0.41 -2,-0.41 z"
       id="path3183"
       style="fill:#000000;fill-opacity:1;fill-rule:evenodd;stroke:none" />
    <path
       d="m 147.9,51.95 c 0,0 -2.8,0.43 -3.9,0.89 -2.3,0.89 -4.5,2.92 -4.8,5.32 -0.2,1.25 0.3,2.32 1.2,3.19 1,0.94 2.6,0.83 3.9,0.89 2,0.1 4.5,-1.47 6.4,-1.24 2.8,0.33 6.4,2.04 8.5,3.9 1,0.87 1.2,3.01 2.3,3.72 1,0.65 2.9,1.07 3.9,0.54 1.1,-0.55 1.7,-2.37 2,-3.55 0.1,-0.57 0.1,-1.39 0,-1.95 -0.3,-0.85 -1,-1.85 -1.6,-2.48 -0.8,-0.8 -3,-2.13 -3,-2.13"
       id="path3167"
       style="fill:#ffff00;fill-opacity:1;fill-rule:evenodd;stroke:#000000;stroke-width:2.5;stroke-linecap:butt;stroke-linejoin:miter;stroke-miterlimit:4;stroke-opacity:1;stroke-dasharray:none" />
    <path
       d="m 97.2,70.01 c 0,0 4.7,-6.75 7,-7.68 2.2,-0.92 3,-0.79 3.5,0 0.4,0.8 0.3,2.04 -1.4,3.68 -1.6,1.64 -9.1,4 -9.1,4 z"
       id="path6013"
       style="fill:none;stroke:#000000;stroke-width:2.5;stroke-linecap:butt;stroke-linejoin:miter;stroke-miterlimit:4;stroke-opacity:1;stroke-dasharray:none" />
    <path
       d="m 195.6,63.25 c 0,0 2.7,-4.39 4.6,-5.47 2.9,-1.68 11,-2.03 11,-2.03 0,0 1.4,7.08 -0.5,9.02 -0.9,0.96 -3.5,-0.57 -4.4,0.38 -1.3,1.24 0.7,4.61 -0.6,5.84 -0.8,0.83 -3.9,0.26 -3.9,0.26 0,0 0.1,-5 -1.3,-6.48 -1,-1.16 -4.9,-1.53 -4.9,-1.53 z"
       id="path6022"
       style="fill:#000000;fill-rule:evenodd;stroke:#000000;stroke-width:2.5;stroke-linecap:butt;stroke-linejoin:miter;stroke-miterlimit:4;stroke-opacity:1;stroke-dasharray:none" />
    <path
       d="m 188.2,65.84 c 0,0 -5.5,11.05 -9.1,14.75 -2,1.95 -5.2,4.09 -7.8,4.92 -5,1.57 -18.1,2.47 -18.1,2.47 l -0.9,1.05 c 0,0 14.8,-3.82 19,0 1.6,1.42 1.6,5.09 0.7,7.03 -0.7,1.65 -2.8,3.94 -4.3,4.84 -2.4,1.5 -8.8,3.3 -8.8,3.3"
       id="path6018"
       style="fill:none;stroke:#000000;stroke-width:2.5;stroke-linecap:butt;stroke-linejoin:miter;stroke-miterlimit:4;stroke-opacity:1;stroke-dasharray:none" />
    <path
       d="m 184,122.1 c 0,0 0.8,8.4 0,11.9 -1.3,5.5 -3.8,10.3 -6.6,15.2 -1.1,2 -4.2,6.3 -4.2,6.3"
       id="path6020"
       style="fill:none;stroke:#000000;stroke-width:2.5;stroke-linecap:butt;stroke-linejoin:miter;stroke-miterlimit:4;stroke-opacity:1;stroke-dasharray:none" />
    <path
       d="m 95.4,193.8 c 0,0 -6.3,4.2 -8.6,6.8 -1.7,1.9 -4.7,7.9 -4.7,7.9"
       id="path6039"
       style="fill:none;stroke:#000000;stroke-width:2.5;stroke-linecap:butt;stroke-linejoin:miter;stroke-miterlimit:4;stroke-opacity:1;stroke-dasharray:none" />
    <path
       d="m 160.8,183.2 c 0,0 -12.3,3.9 -17.3,7.3 -2.4,1.6 -4.5,5 -5.7,7.6 -1.9,4 -3,11.4 -3,11.4"
       id="path6041"
       style="fill:none;stroke:#000000;stroke-width:2.5;stroke-linecap:butt;stroke-linejoin:miter;stroke-miterlimit:4;stroke-opacity:1;stroke-dasharray:none" />
    <path
       d="m 159.4,202.3 c 0,0 7,-6.8 9.8,-9.2 3.9,-3.3 11.2,-5 14.1,-9.2 1.8,-2.6 2.1,-10.5 2.1,-10.5"
       id="path6043"
       style="fill:none;stroke:#000000;stroke-width:2.5;stroke-linecap:butt;stroke-linejoin:miter;stroke-miterlimit:4;stroke-opacity:1;stroke-dasharray:none" />
    <path
       d="m 94,157.9 c 0,0 -0.5,9.6 -2.1,13.4 -2.3,5.5 -7.3,12.3 -11.9,16.1 -2.6,2.2 -9.9,5 -9.9,5 0,0 0,0 0,0"
       id="path6037"
       style="fill:none;stroke:#000000;stroke-width:2.5;stroke-linecap:butt;stroke-linejoin:miter;stroke-miterlimit:4;stroke-opacity:1;stroke-dasharray:none" />
    <path
       d="m 109.3,207.4 c 0,0 2.2,-8.9 4.1,-12.6 1.2,-2.4 5.6,-7.1 5.6,-7.1"
       id="path6197"
       style="fill:none;stroke:#000000;stroke-width:2.5;stroke-linecap:butt;stroke-linejoin:miter;stroke-miterlimit:4;stroke-opacity:1;stroke-dasharray:none" />
    <path
       d="m 225.8,260.1 c -13.2,2.2 -18.5,11.3 -22,22.2"
       id="path3314"
       style="fill:none;stroke:#000000;stroke-width:3;stroke-linecap:butt;stroke-linejoin:miter;stroke-miterlimit:4;stroke-opacity:1;stroke-dasharray:none" />
    <rect
       width="92.490456"
       height="65.761559"
       x="115.8252"
       y="-9.7836237"
       id="crowned"
       style="opacity:0.5;fill:none;stroke:none" />
  </g>
</svg>
