<?xml version="1.0" encoding="UTF-8" standalone="no"?>
<svg
   id="svg4734"
   version="1.1"
   viewBox="0 0 54.175 39.117"
   height="147.84"
   width="204.76"
   xmlns="http://www.w3.org/2000/svg"
   xmlns:svg="http://www.w3.org/2000/svg"
   xmlns:rdf="http://www.w3.org/1999/02/22-rdf-syntax-ns#"
   xmlns:cc="http://creativecommons.org/ns#"
   xmlns:dc="http://purl.org/dc/elements/1.1/">
  <defs
     id="defs4728" />
  <metadata
     id="metadata4731">
    <rdf:RDF>
      <cc:Work
         rdf:about="">
        <dc:format>image/svg+xml</dc:format>
        <dc:type
           rdf:resource="http://purl.org/dc/dcmitype/StillImage" />
        <dc:creator>
          <cc:Agent>
            <dc:title>https://commons.wikimedia.org/wiki/File:Heraldic_eastern_crown.svg</dc:title>
          </cc:Agent>
        </dc:creator>
      </cc:Work>
    </rdf:RDF>
  </metadata>
  <g
     transform="translate(66.397,-99.037)"
     id="layer1">
    <g
       id="g9099"
       transform="matrix(0.27539,0,0,0.27539,60.334,131.21)"
       style="stroke-width:0.960742">
      <g
         style="stroke-width:0.379078"
         transform="matrix(2.5553,0,0,2.5137,948.91,147.75)"
         id="g9067">
        <path
           style="fill:#fee46e"
           d="m -484.93,-69.607 c 3.15,-11.981 7.46,-20.705 9.99,-24.261 -8.24,2.538 -14.08,11.921 -17.04,17.835 -1.19,-7.023 -1.15,-16.903 0.23,-23.742 -7.63,4.471 -11.72,15.064 -14.26,20.847 l -6.94,-25.602 -6.94,25.602 c -2.54,-5.783 -6.63,-16.376 -14.26,-20.847 1.37,6.839 1.42,16.719 0.23,23.742 -2.96,-5.914 -8.8,-15.297 -17.04,-17.835 2.53,3.556 6.84,12.28 9.99,24.261 z"
           id="path1049" />
        <path
           style="fill:#e7ce5a"
           d="m -512.95,-96.468 -5.04,18.269 c -0.56,2.067 -3,2.303 -3.85,0.373 -2.05,-4.675 -5.06,-11.752 -9.53,-16.503 0.57,6.226 0.35,13.195 -0.59,18.764 -0.37,2.191 -2.88,2.681 -3.85,0.751 -1.91,-3.827 -9.24,-14.637 -12.26,-14.225 1.88,4.096 4.77,10.849 6.49,17.011 h 28.63 28.63 c 1.72,-6.162 4.61,-12.915 6.49,-17.011 -3.02,-0.412 -10.35,10.398 -12.27,14.225 -0.96,1.93 -3.47,1.44 -3.84,-0.751 -0.94,-5.569 -1.16,-12.538 -0.6,-18.764 -4.46,4.751 -7.47,11.828 -9.52,16.503 -0.85,1.93 -3.29,1.694 -3.85,-0.373 z m 0,6.648 3.38,12.241 c 0.49,1.812 1.91,2.953 3.33,3.09 1.42,0.138 2.99,-0.717 3.73,-2.413 1.51,-3.426 3.51,-7.984 6.08,-11.906 -0.1,4.735 0.1,9.494 0.78,13.636 0.1,0.448 0.35,0.734 0.53,1.112 h -17.83 -17.83 c 0.18,-0.378 0.46,-0.664 0.54,-1.112 0.7,-4.142 0.86,-8.901 0.77,-13.636 2.57,3.922 4.57,8.48 6.08,11.906 0.74,1.696 2.31,2.551 3.73,2.413 1.42,-0.137 2.84,-1.278 3.33,-3.09 z m -32.69,4.282 c 3.28,3.136 6.26,7.143 8.51,11.339 l -3.75,0.139 c -0.92,-3.041 -3.63,-8.675 -4.76,-11.478 z m 64.9,0.417 c -1.12,2.803 -3.24,8.159 -4.16,11.2 h -3.51 c 2.36,-4.496 4.5,-7.84 7.67,-11.2 z"
           id="path4471" />
        <path
           style="fill:none;stroke:#fff1a1"
           d="m -476.57,-91.246 c -6.61,2.866 -11.83,11.178 -14.22,15.948 -0.58,1.165 -2.09,0.869 -2.32,-0.454 -1.04,-6.15 -1.11,-14.098 -0.26,-20.746 -5.6,4.798 -9.14,13.081 -11.41,18.235 -0.51,1.164 -1.98,1.022 -2.32,-0.225 l -5.74,-21.18 -5.75,21.18 c -0.33,1.247 -1.8,1.389 -2.31,0.225 -2.27,-5.154 -5.81,-13.437 -11.41,-18.235 0.85,6.648 0.78,14.596 -0.26,20.746 -0.23,1.323 -1.74,1.619 -2.32,0.454 -2.39,-4.77 -7.83,-13.331 -14.43,-16.322"
           id="path8243" />
        <path
           id="path4473"
           d="m -484.93,-69.607 c 3.15,-11.981 7.46,-20.705 9.99,-24.261 -8.24,2.538 -14.08,11.921 -17.04,17.835 -1.19,-7.023 -1.15,-16.903 0.23,-23.742 -7.63,4.471 -11.72,15.064 -14.26,20.847 l -6.94,-25.602 -6.94,25.602 c -2.54,-5.783 -6.63,-16.376 -14.26,-20.847 1.37,6.839 1.42,16.719 0.23,23.742 -2.96,-5.914 -8.8,-15.297 -17.04,-17.835 2.53,3.556 6.84,12.28 9.99,24.261 z"
           style="fill:none;stroke:#806600" />
      </g>
      <ellipse
         ry="20.478"
         rx="76.138"
         cy="-26.643"
         cx="-361.82"
         id="ellipse1058"
         style="fill:#fee46e;stroke:#806600" />
      <path
         style="fill:#e4c900"
         d="m -302.53,1.4888 10.16,-24.1618 c 0,-0.166 -0.14,-3.405 -4.23,-5.636 -3.02,-1.965 -8.1,-4.076 -14.6,-5.823 -12.99,-3.495 -31.76,-5.615 -50.62,-5.615 -18.86,0 -37.63,2.12 -50.62,5.615 -6.5,1.747 -11.58,3.858 -14.6,5.823 -4.09,2.231 -4.23,5.47 -4.23,5.636 l 10.16,24.1618 z"
         id="path1065" />
      <path
         style="fill:#fee46e"
         d="m -302.49,-5.0231 7.53,-17.9359 c -0,-0.18 -0.1,-0.377 -0.23,-0.651 -0.34,-0.691 -0.99,-1.623 -2.6,-2.501 -0.1,-0.03 -0.11,-0.06 -0.17,-0.1 -2.64,-1.715 -7.56,-3.804 -13.89,-5.505 -12.65,-3.405 -31.3,-5.529 -49.97,-5.529 -18.67,0 -37.32,2.124 -49.97,5.529 -6.33,1.701 -11.25,3.79 -13.89,5.505 -0.1,0.03 -0.11,0.07 -0.17,0.1 -1.61,0.878 -2.26,1.81 -2.6,2.501 -0.14,0.274 -0.19,0.471 -0.23,0.651 l 7.76,18.4648 c 28.43,-13.4988 83.71,-14.9468 118.43,-0.5289 z"
         id="path938" />
      <path
         style="fill:#fff1a1"
         d="m -361.82,-44.404 c -19.75,0 -39.39,2.207 -53.14,5.906 -6.87,1.849 -12.3,4.071 -15.73,6.299 -3.43,2.224 -4.55,4.196 -4.56,5.551 0,0.783 0.4,1.721 1.4,2.87 0,-0.04 0,-0.05 0,-0.1 0.12,-0.555 0.33,-1.262 0.72,-2.044 0.76,-1.548 2.25,-3.363 4.72,-4.732 3.45,-2.214 8.63,-4.325 15.25,-6.106 13.36,-3.593 32.27,-5.707 51.33,-5.707 19.05,0 37.96,2.114 51.32,5.707 6.62,1.781 11.81,3.892 15.25,6.106 2.48,1.369 3.96,3.184 4.73,4.732 0.38,0.782 0.59,1.489 0.71,2.044 0,0.05 0,0.07 0,0.119 1.02,-1.158 1.4,-2.099 1.41,-2.888 v -0 c 0,-1.354 -1.14,-3.327 -4.56,-5.554 -3.43,-2.227 -8.86,-4.449 -15.74,-6.298 -13.75,-3.699 -33.39,-5.906 -53.13,-5.906 z"
         id="ellipse915" />
      <path
         id="path931"
         d="m -302.53,1.4888 10.16,-24.1618 c 0,-0.166 -0.14,-3.405 -4.23,-5.636 -3.02,-1.965 -8.1,-4.076 -14.6,-5.823 -12.99,-3.495 -31.76,-5.615 -50.62,-5.615 -18.86,0 -37.63,2.12 -50.62,5.615 -6.5,1.747 -11.58,3.858 -14.6,5.823 -4.09,2.231 -4.23,5.47 -4.23,5.636 l 10.16,24.1618 z"
         style="fill:none;stroke:#806600" />
      <g
         id="g936"
         transform="matrix(1.4511,0,0,1.4552,381.88,17.977)"
         style="stroke-width:0.661139">
        <ellipse
           ry="12.144"
           rx="45.281"
           cy="-7.5053"
           cx="-512.52"
           id="path1035"
           style="fill:#fee46e;stroke:#806600" />
        <path
           style="fill:#b9a300;stroke:#806600"
           d="m -512.52,-14.456 c -10.59,0 -21.15,1.193 -28.4,3.138 -3.63,0.972 -6.44,2.1478 -8.05,3.1906 -1.61,1.0428 -1.61,1.6342 -1.61,1.3591 0,-0.275 0,0.3163 1.61,1.3591 1.61,1.0428 4.42,2.2186 8.05,3.1908 7.25,1.94449 17.81,3.13745 28.4,3.13735 10.6,-2e-5 21.16,-1.19287 28.41,-3.13735 3.62,-0.9722 6.44,-2.148 8.05,-3.1908 1.61,-1.0428 1.6,-1.6341 1.6,-1.3591 0,0.2751 0,-0.3163 -1.6,-1.3591 -1.61,-1.0427 -4.43,-2.2186 -8.05,-3.1906 -7.25,-1.945 -17.81,-3.138 -28.41,-3.138 z"
           id="ellipse1050" />
        <path
           style="fill:#fff1a1"
           d="m -512.52,-18.375 c -11.71,0 -23.37,1.333 -31.53,3.567 -4.08,1.116 -7.3,2.458 -9.34,3.803 -2.03,1.3431 -2.7,2.5341 -2.7,3.3518 0,0.4732 0.23,1.0393 0.83,1.7335 0,-0.025 0,-0.032 0,-0.058 0.1,-0.3347 0.19,-0.7621 0.42,-1.234 0.45,-0.9347 1.34,-2.031 2.8,-2.8579 2.05,-1.337 5.13,-2.611 9.06,-3.686 7.92,-2.17 19.14,-3.447 30.45,-3.447 11.31,0 22.53,1.277 30.46,3.447 3.93,1.075 7.01,2.349 9.05,3.686 1.47,0.8269 2.35,1.9232 2.8,2.8579 0.23,0.4719 0.36,0.8993 0.43,1.234 0,0.033 0,0.042 0,0.072 0.61,-0.6995 0.83,-1.2675 0.84,-1.7438 v -0 c 0,-0.8178 -0.68,-2.0095 -2.71,-3.3535 -2.03,-1.345 -5.26,-2.687 -9.34,-3.804 -8.16,-2.233 -19.81,-3.566 -31.53,-3.566 z"
           id="path929" />
      </g>
      <path
         style="fill:#fff1a1"
         d="m -346.86,-36.989 -2.44,21.929 c 9.4,0.385 18.77,1.435 27.64,3.186 l 2.48,-22.298 c -8.29,-1.418 -17.81,-2.394 -27.68,-2.817 z m -41.08,1.623 c -6.05,0.763 -11.63,1.738 -16.52,2.891 l 4.01,22.252 c 5.15,-1.336 10.67,-2.42 16.45,-3.229 z"
         id="rect946" />
    </g>
  </g>
</svg>
