<?xml version="1.0" encoding="UTF-8" standalone="no"?>
<svg
   width="187.34"
   height="131.74"
   viewBox="0 0 49.567 34.857"
   version="1.1"
   id="svg4734"
   xmlns="http://www.w3.org/2000/svg"
   xmlns:svg="http://www.w3.org/2000/svg"
   xmlns:rdf="http://www.w3.org/1999/02/22-rdf-syntax-ns#"
   xmlns:cc="http://creativecommons.org/ns#"
   xmlns:dc="http://purl.org/dc/elements/1.1/">

  <metadata
     id="metadata4731">
    <rdf:RDF>
      <cc:Work
         rdf:about="">
        <dc:format>image/svg+xml</dc:format>
        <dc:type
           rdf:resource="http://purl.org/dc/dcmitype/StillImage" />
        <dc:creator>
          <cc:Agent>
            <dc:title>https://commons.wikimedia.org/wiki/File:Heraldic_vallary_crown.svg</dc:title>
          </cc:Agent>
        </dc:creator>
      </cc:Work>
    </rdf:RDF>
  </metadata>
  <g
     id="layer1"
     transform="translate(64.093,-103.3)">
    <g
       style="stroke-width:0.960742"
       transform="matrix(0.27539,0,0,0.27539,60.334,131.21)"
       id="g9099">
      <g
         id="g5255"
         style="stroke-width:0.236082"
         transform="matrix(2.8461,0,0,2.8513,351.91,-25.327)">
        <path
           style="fill:#fee46e;stroke:#806600;stroke-width:0.337259"
           d="m -250.77,-26.381 -3.95,5.425 -0.1,9.044 -2.99,4.4399 -3.22,-4.3429 -0.5,-9.029 -4.68,-4.339 -2.9,5.553 1.08,8.979 -2.3,4.6353 -3.66,-3.0469 -2.62,-9.0554 -5.5,-3.32 6.21,19.9748 7.03,-3.335 -0.17,-0.1381 11.39,-1.4504 h 13.73 l 11.39,1.4504 -0.17,0.1381 7.03,3.335 6.21,-19.9748 -5.5,3.32 -2.62,9.0554 -3.66,3.0469 -2.3,-4.6353 1.08,-8.979 -2.89,-5.553 -4.68,4.339 -0.51,9.029 -3.22,4.3429 -2.98,-4.4399 -0.1,-9.044 z"
           id="path1109" />
        <path
           style="fill:#fff1a1"
           d="m -250.77,-24.177 -2.29,3.145 -0.1,8.516 c -0,0.324 -0.11,0.64 -0.29,0.909 l -1.97,2.9386 h 9.28 l -1.98,-2.9386 c -0.18,-0.269 -0.28,-0.585 -0.28,-0.909 l -0.1,-8.514 z m -14.97,1.068 -1.65,3.169 1.02,8.467 c 0,0.323 -0,0.649 -0.16,0.94 l -1.58,3.1848 8.04,-1.0242 -2.28,-3.0766 c -0.19,-0.261 -0.31,-0.572 -0.32,-0.896 l -0.47,-8.359 z m 29.93,0 -2.59,2.403 -0.48,8.359 c -0,0.324 -0.13,0.636 -0.32,0.896 l -2.27,3.0747 8.04,1.0261 -1.59,-3.1848 c -0.14,-0.291 -0.2,-0.617 -0.16,-0.94 l 1.02,-8.467 z m -44.48,4.163 4.71,14.1924 2.74,-1.561 -3.01,-2.5022 c -0.25,-0.2121 -0.44,-0.4952 -0.53,-0.813 l -2.44,-8.4322 z m 59.03,0 -1.46,0.884 -2.45,8.4322 c -0.1,0.3178 -0.27,0.6009 -0.53,0.813 l -3,2.5022 2.73,1.561 z"
           id="path1132" />
      </g>
      <ellipse
         style="fill:#fee46e;stroke:#806600"
         id="ellipse1058"
         cx="-361.82"
         cy="-26.643"
         rx="76.138"
         ry="20.478" />
      <path
         id="path1065"
         d="m -302.53,1.4888 10.16,-24.1618 c 0,-0.166 -0.14,-3.405 -4.23,-5.636 -3.02,-1.965 -8.1,-4.076 -14.6,-5.823 -12.99,-3.495 -31.76,-5.615 -50.62,-5.615 -18.86,0 -37.63,2.12 -50.62,5.615 -6.5,1.747 -11.58,3.858 -14.6,5.823 -4.09,2.231 -4.23,5.47 -4.23,5.636 l 10.16,24.1618 z"
         style="fill:#e4c900" />
      <path
         id="path938"
         d="m -302.49,-5.0231 7.53,-17.9359 c -0,-0.18 -0.1,-0.377 -0.23,-0.651 -0.34,-0.691 -0.99,-1.623 -2.6,-2.501 -0.1,-0.03 -0.11,-0.06 -0.17,-0.1 -2.64,-1.715 -7.56,-3.804 -13.89,-5.505 -12.65,-3.405 -31.3,-5.529 -49.97,-5.529 -18.67,0 -37.32,2.124 -49.97,5.529 -6.33,1.701 -11.25,3.79 -13.89,5.505 -0.1,0.03 -0.11,0.07 -0.17,0.1 -1.61,0.878 -2.26,1.81 -2.6,2.501 -0.14,0.274 -0.19,0.471 -0.23,0.651 l 7.76,18.4648 c 28.43,-13.4988 83.71,-14.9468 118.43,-0.5289 z"
         style="fill:#fee46e" />
      <path
         id="ellipse915"
         d="m -361.82,-44.404 c -19.75,0 -39.39,2.207 -53.14,5.906 -6.87,1.849 -12.3,4.071 -15.73,6.299 -3.43,2.224 -4.55,4.196 -4.56,5.551 0,0.783 0.4,1.721 1.4,2.87 0,-0.04 0,-0.05 0,-0.1 0.12,-0.555 0.33,-1.262 0.72,-2.044 0.76,-1.548 2.25,-3.363 4.72,-4.732 3.45,-2.214 8.63,-4.325 15.25,-6.106 13.36,-3.593 32.27,-5.707 51.33,-5.707 19.05,0 37.96,2.114 51.32,5.707 6.62,1.781 11.81,3.892 15.25,6.106 2.48,1.369 3.96,3.184 4.73,4.732 0.38,0.782 0.59,1.489 0.71,2.044 0,0.05 0,0.07 0,0.119 1.02,-1.158 1.4,-2.099 1.41,-2.888 v -0 c 0,-1.354 -1.14,-3.327 -4.56,-5.554 -3.43,-2.227 -8.86,-4.449 -15.74,-6.298 -13.75,-3.699 -33.39,-5.906 -53.13,-5.906 z"
         style="fill:#fff1a1" />
      <path
         style="fill:none;stroke:#806600"
         d="m -302.53,1.4888 10.16,-24.1618 c 0,-0.166 -0.14,-3.405 -4.23,-5.636 -3.02,-1.965 -8.1,-4.076 -14.6,-5.823 -12.99,-3.495 -31.76,-5.615 -50.62,-5.615 -18.86,0 -37.63,2.12 -50.62,5.615 -6.5,1.747 -11.58,3.858 -14.6,5.823 -4.09,2.231 -4.23,5.47 -4.23,5.636 l 10.16,24.1618 z"
         id="path931" />
      <g
         style="stroke-width:0.661139"
         transform="matrix(1.4511,0,0,1.4552,381.88,17.977)"
         id="g936">
        <ellipse
           style="fill:#fee46e;stroke:#806600"
           id="path1035"
           cx="-512.52"
           cy="-7.5053"
           rx="45.281"
           ry="12.144" />
        <path
           id="ellipse1050"
           d="m -512.52,-14.456 c -10.59,0 -21.15,1.193 -28.4,3.138 -3.63,0.972 -6.44,2.1478 -8.05,3.1906 -1.61,1.0428 -1.61,1.6342 -1.61,1.3591 0,-0.275 0,0.3163 1.61,1.3591 1.61,1.0428 4.42,2.2186 8.05,3.1908 7.25,1.94449 17.81,3.13745 28.4,3.13735 10.6,-2e-5 21.16,-1.19287 28.41,-3.13735 3.62,-0.9722 6.44,-2.148 8.05,-3.1908 1.61,-1.0428 1.6,-1.6341 1.6,-1.3591 0,0.2751 0,-0.3163 -1.6,-1.3591 -1.61,-1.0427 -4.43,-2.2186 -8.05,-3.1906 -7.25,-1.945 -17.81,-3.138 -28.41,-3.138 z"
           style="fill:#b9a300;stroke:#806600" />
        <path
           id="path929"
           d="m -512.52,-18.375 c -11.71,0 -23.37,1.333 -31.53,3.567 -4.08,1.116 -7.3,2.458 -9.34,3.803 -2.03,1.3431 -2.7,2.5341 -2.7,3.3518 0,0.4732 0.23,1.0393 0.83,1.7335 0,-0.025 0,-0.032 0,-0.058 0.1,-0.3347 0.19,-0.7621 0.42,-1.234 0.45,-0.9347 1.34,-2.031 2.8,-2.8579 2.05,-1.337 5.13,-2.611 9.06,-3.686 7.92,-2.17 19.14,-3.447 30.45,-3.447 11.31,0 22.53,1.277 30.46,3.447 3.93,1.075 7.01,2.349 9.05,3.686 1.47,0.8269 2.35,1.9232 2.8,2.8579 0.23,0.4719 0.36,0.8993 0.43,1.234 0,0.033 0,0.042 0,0.072 0.61,-0.6995 0.83,-1.2675 0.84,-1.7438 v -0 c 0,-0.8178 -0.68,-2.0095 -2.71,-3.3535 -2.03,-1.345 -5.26,-2.687 -9.34,-3.804 -8.16,-2.233 -19.81,-3.566 -31.53,-3.566 z"
           style="fill:#fff1a1" />
      </g>
      <path
         id="rect946"
         d="m -346.86,-36.989 -2.44,21.929 c 9.4,0.385 18.77,1.435 27.64,3.186 l 2.48,-22.298 c -8.29,-1.418 -17.81,-2.394 -27.68,-2.817 z m -41.08,1.623 c -6.05,0.763 -11.63,1.738 -16.52,2.891 l 4.01,22.252 c 5.15,-1.336 10.67,-2.42 16.45,-3.229 z"
         style="fill:#fff1a1" />
    </g>
  </g>
</svg>
