<?xml version="1.0" encoding="UTF-8" standalone="no"?>
<svg
   xmlns:dc="http://purl.org/dc/elements/1.1/"
   xmlns:cc="http://creativecommons.org/ns#"
   xmlns:rdf="http://www.w3.org/1999/02/22-rdf-syntax-ns#"
   xmlns:svg="http://www.w3.org/2000/svg"
   xmlns="http://www.w3.org/2000/svg"
   xmlns:xlink="http://www.w3.org/1999/xlink"
   id="svg2405"
   height="320.89999"
   width="500"
   version="1.0">

  <metadata
     id="metadata1880">
    <rdf:RDF>
      <cc:Work
         rdf:about="">
        <dc:title></dc:title>
        <dc:date>26-11-2008</dc:date>
        <dc:creator>
          <cc:Agent>
            <dc:title>Lokal_Profil</dc:title>
          </cc:Agent>
        </dc:creator>
        <cc:license
           rdf:resource="http://creativecommons.org/licenses/by-sa/2.5/" />
        <dc:rights>
          <cc:Agent>
            <dc:title>cc-by-sa-2.5</dc:title>
          </cc:Agent>
        </dc:rights>
        <dc:format>image/svg+xml</dc:format>
        <dc:type
           rdf:resource="http://purl.org/dc/dcmitype/StillImage" />
      </cc:Work>
      <cc:License
         rdf:about="http://creativecommons.org/licenses/by-sa/2.5/">
        <cc:permits
           rdf:resource="http://web.resource.org/cc/Reproduction" />
        <cc:permits
           rdf:resource="http://web.resource.org/cc/Distribution" />
        <cc:requires
           rdf:resource="http://web.resource.org/cc/Notice" />
        <cc:requires
           rdf:resource="http://web.resource.org/cc/Attribution" />
        <cc:permits
           rdf:resource="http://web.resource.org/cc/DerivativeWorks" />
        <cc:requires
           rdf:resource="http://web.resource.org/cc/ShareAlike" />
      </cc:License>
    </rdf:RDF>
  </metadata>
  <g
     style="fill:#000000"
     id="Crow"
     transform="matrix(0.9727618,0,0,0.9727618,-28.31788,-54.385215)">
    <g
       style="fill:#ffff00;stroke:#808080"
       id="Tail"
       transform="matrix(0.9853893,0,0,1,4.1838334,0.49972)">
      <path
         style="fill:#ffff00;stroke:#808080"
         id="use2579"
         d="M 262.23476,251.06111 C 261.11305,265.26651 254.71007,277.89051 253.54726,286.46741 C 251.63946,286.65391 249.73942,286.87331 247.79726,287.09241 C 237.88364,320.62311 225.52383,364.11031 222.01601,380.02981 C 226.83337,383.29571 230.83462,382.59951 235.01601,380.81111 C 239.82533,362.88891 258.02213,287.96701 266.98476,255.56111 C 264.92308,254.25751 263.31275,252.71781 262.23476,251.06111 z" />
      <path
         style="fill:#ffff00;stroke:#808080"
         id="path2509"
         d="M 273.73476,258.59241 C 266.40392,287.01271 255.28984,359.93361 253.51601,381.31111 C 259.68893,383.57241 263.70424,384.12881 269.60976,381.59241 C 271.4371,350.77911 278.92163,277.93491 281.73476,260.15481 C 278.87993,259.86881 276.17551,259.35081 273.73476,258.59241 z" />
      <path
         style="fill:#ffff00;stroke:#808080"
         id="path2511"
         d="M 267.79726,256.02981 C 259.12713,280.67641 242.75834,358.33291 237.39101,380.27981 C 241.80257,384.22881 245.21982,383.66451 251.17226,382.31111 C 253.23826,361.56451 267.08796,284.69551 273.26601,258.43611 C 271.24467,257.77641 269.40962,256.95811 267.79726,256.02981 z" />
      <path
         style="fill:#ffff00;stroke:#808080"
         id="path2507"
         d="M 282.39101,260.21741 C 278.40654,287.92281 274.34788,331.65121 271.82851,381.62361 C 276.06619,384.21281 281.26765,384.60351 286.26601,384.77981 C 291.13776,384.42531 296.67896,384.49331 300.70351,381.62361 C 298.50175,331.61861 293.67474,288.33451 290.10976,260.24861 C 288.88269,260.34751 287.63675,260.40481 286.35976,260.40481 C 285.006,260.40481 283.68823,260.32831 282.39101,260.21741 z" />
      <use
         style="fill:#ffff00;stroke:#808080"
         xlink:href="#path2509"
         height="763"
         width="603"
         y="0"
         x="0"
         id="use2595"
         transform="matrix(-1,0,0,1,572.70848,0)" />
      <use
         style="fill:#ffff00;stroke:#808080"
         xlink:href="#path2511"
         height="763"
         width="603"
         y="0"
         x="0"
         id="use2597"
         transform="matrix(-1,0,0,1,572.70848,0)" />
      <use
         style="fill:#ffff00;stroke:#808080"
         xlink:href="#use2579"
         height="763"
         width="603"
         y="0"
         x="0"
         id="use2593"
         transform="matrix(-1,0,0,1,572.70848,0)" />
    </g>
    <g
       id="legged">
      <path
         d="M 337.72384,282.07964 C 345.27386,292.28478 354.4424,302.14902 364.27128,310.1445 C 383.73046,307.41742 398.79743,308.28497 418.26897,310.47117 C 424.58457,315.03908 423.49608,323.52196 416.35827,329.04007 C 416.92138,325.10241 415.64544,321.57985 413.26011,319.5966 C 409.70658,318.38252 387.51045,314.64511 374.2993,314.57553 C 385.59106,319.76248 409.87648,328.07809 422.97078,338.4485 C 425.28219,341.14542 419.4562,351.54672 416.88349,356.35363 C 414.81781,360.21327 416.49194,347.91771 413.67238,343.4596 C 410.44836,340.35338 408.27212,338.14999 370.74194,319.23971 C 376.77952,326.782 398.66855,345.04288 398.14188,352.73391 C 396.57417,357.80364 385.68049,362.405 384.35475,361.99967 C 383.65595,361.78604 388.52849,355.46504 388.17195,351.13763 C 381.49165,341.42163 370.7886,327.28884 362.21347,319.72716 C 359.42163,319.76583 354.56516,320.90323 349.96691,323.39896 C 346.64127,324.7123 345.47458,325.13832 345.40343,330.20807 C 343.68556,331.12146 341.93887,323.2425 342.09622,320.14749 C 345.51738,316.30666 349.60864,315.61722 355.01524,313.38048 C 337.12821,295.23902 327.62577,284.77692 324.71281,284.14551 C 324.71281,284.14551 337.72384,282.07964 337.72384,282.07964 z"
         id="Foot-1"
         style="fill:#00ff00;stroke:#808080" />
      <path
         d="M 234.49093,282.07964 C 226.94091,292.28478 217.77237,302.14902 207.94349,310.1445 C 188.48431,307.41742 173.41734,308.28497 153.9458,310.47117 C 147.6302,315.03908 148.71869,323.52196 155.8565,329.04007 C 155.29339,325.10241 156.56933,321.57985 158.95466,319.5966 C 162.50819,318.38252 184.70432,314.64511 197.91547,314.57553 C 186.62371,319.76248 162.33829,328.07809 149.24399,338.4485 C 146.93258,341.14542 152.75857,351.54672 155.33128,356.35363 C 157.39696,360.21327 155.72283,347.91771 158.54239,343.4596 C 161.76641,340.35338 163.94265,338.14999 201.47283,319.23971 C 195.43525,326.782 173.54622,345.04288 174.07289,352.73391 C 175.6406,357.80364 186.53428,362.405 187.86002,361.99967 C 188.55882,361.78604 183.68628,355.46504 184.04282,351.13763 C 190.72312,341.42163 201.42617,327.28884 210.0013,319.72716 C 212.79314,319.76583 217.64961,320.90323 222.24786,323.39896 C 225.5735,324.7123 226.74019,325.13832 226.81134,330.20807 C 228.52921,331.12146 230.2759,323.2425 230.11855,320.14749 C 226.69739,316.30666 222.60613,315.61722 217.19953,313.38048 C 235.08656,295.23902 244.589,284.77692 247.50196,284.14551 C 247.50196,284.14551 234.49093,282.07964 234.49093,282.07964 z"
         id="Foot-2"
         style="fill:#00ff00;stroke:#808080" />
    </g>
    <path
       style="fill:#ffff00;stroke:#808080"
       id="Body"
       d="M 258.79726,60.37361 C 252.1326,60.48795 241.22539,61.90395 243.73476,67.34236 C 249.33657,75.87495 250.63773,81.72048 251.32851,89.02986 C 252.67736,96.83184 249.51601,115.24861 249.51601,115.24861 L 246.45351,135.71736 C 225.27607,189.65233 240.3173,182.99543 229.82851,259.46741 C 228.34425,272.08361 217.54726,289.40481 217.54726,289.40481 C 235.00438,287.73661 243.86409,286.41451 253.23476,285.49861 C 254.40264,276.88441 260.84216,264.18611 261.92226,249.90481 C 265.20209,255.58591 274.90579,259.71741 286.35976,259.71741 C 298.00382,259.71741 307.83743,255.45081 310.95351,249.62361 C 310.95818,249.64581 310.94859,249.66321 310.95351,249.68611 C 311.98338,264.05701 318.49836,276.84011 319.67226,285.49861 C 329.04293,286.41451 337.90266,287.73671 355.35976,289.40481 C 355.35976,289.40481 344.56279,272.08371 343.07851,259.46741 C 332.58972,182.99542 347.63097,189.65233 326.45351,135.71736 L 324.48476,132.31111 C 322.71723,125.91988 319.58616,114.8934 317.92226,108.24861 C 314.06632,95.79056 309.24676,85.27934 305.51601,81.21736 C 300.67545,74.05943 294.62979,69.51123 286.67226,66.40486 C 278.0166,63.80799 267.89132,60.34598 258.79726,60.37361 z" />
    <path
       style="fill:#ffff00;stroke:#808080"
       id="Wing-1"
       d="M 29.624806,56.408189 C 29.624806,59.710908 45.530353,86.230631 49.672084,90.723098 C 74.195433,103.96518 104.9086,104.73235 132.03903,105.96796 C 133.29296,105.94545 134.47358,106.91294 134.49608,108.1458 C 134.51969,109.43959 133.62815,109.97161 132.06695,110.46325 C 90.585632,112.1397 72.048599,105.41281 56.903623,102.81289 C 57.759109,107.13079 67.887146,122.09554 71.255017,123.13938 C 87.36002,129.72196 119.46825,127.39137 145.52487,127.96971 C 147.04394,128.10851 147.95508,128.44179 147.92608,129.72874 C 147.89506,131.10518 146.88468,131.33143 145.49695,131.65528 C 125.90485,133.53779 100.72121,134.24817 81.250735,132.35331 C 81.220705,138.56408 95.119761,149.53365 99.70651,151.73048 C 116.63775,153.43368 137.92659,150.41733 158.70359,148.79878 C 159.71222,148.80278 160.32441,148.71954 160.46261,149.4968 C 160.79723,150.74908 160.10506,150.69771 159.54122,150.92077 C 141.6269,154.31221 121.9677,156.91115 104.14595,156.70042 C 105.43389,162.03658 116.21162,170.6951 121.87579,173.62055 C 135.49988,174.49576 165.9166,167.41335 175.81916,164.54622 C 176.71766,164.28359 177.89955,163.9715 178.19244,164.96504 C 178.50409,166.02218 177.94425,166.43378 176.96392,166.89159 C 173.42357,168.28338 146.69378,175.96372 130.64298,178.4788 C 133.13533,184.58948 146.55353,188.093 149.18252,189.39591 C 162.28502,189.04268 188.03945,177.99519 190.98026,176.99899 C 192.06771,176.81614 193.954,176.15644 194.52623,177.30612 C 195.20309,178.66546 194.59059,179.30069 193.54899,180.04238 C 190.3157,182.13554 171.36709,189.19793 156.35822,192.66267 C 152.91481,194.92352 170.84569,203.07841 176.4055,203.4681 C 193.43241,199.2769 204.77639,190.42282 210.38536,188.25115 C 211.34044,187.90885 212.69414,187.71296 213.12161,188.19531 C 213.4787,188.52843 213.73666,189.84627 213.00993,190.76404 C 205.77502,197.07794 192.92702,203.83764 184.39091,207.96338 C 186.30864,211.61599 194.84862,215.26304 201.72985,215.72541 C 207.12374,216.08784 220.4431,202.63604 223.39654,201.12273 C 224.65521,200.31049 225.8308,199.93239 226.91459,200.42471 C 227.73045,200.79532 227.98255,201.67467 227.58469,203.0772 C 222.09373,208.64135 215.87078,214.21295 210.83209,219.04801 C 219.23957,223.19399 222.05916,225.47378 230.70068,230.49395 C 234.34805,217.60452 228.23644,177.14991 239.61029,149.51915 C 219.54487,148.47104 206.05589,141.27787 193.66068,129.64497 C 184.94192,120.74133 180.37947,110.6349 178.77878,94.380749 C 177.9358,85.820841 172.8931,86.295453 163.75729,85.501871 C 101.77344,79.709769 70.943999,70.555737 29.624806,56.408189 z" />
    <path
       style="fill:#ffff00;stroke:#808080"
       id="Wing-2"
       d="M 542.59726,56.408189 C 542.59726,59.710908 526.69171,86.230631 522.54998,90.723098 C 498.02663,103.96518 467.31346,104.73235 440.18303,105.96796 C 438.9291,105.94545 437.74848,106.91294 437.72598,108.1458 C 437.70237,109.43959 438.59391,109.97161 440.15511,110.46325 C 481.63643,112.1397 500.17347,105.41281 515.31844,102.81289 C 514.46296,107.13079 504.33492,122.09554 500.96705,123.13938 C 484.86204,129.72196 452.75381,127.39137 426.69719,127.96971 C 425.17812,128.10851 424.26698,128.44179 424.29598,129.72874 C 424.327,131.10518 425.33738,131.33143 426.72511,131.65528 C 446.31721,133.53779 471.50085,134.24817 490.97133,132.35331 C 491.00136,138.56408 477.1023,149.53365 472.51555,151.73048 C 455.58431,153.43368 434.29547,150.41733 413.51847,148.79878 C 412.50984,148.80278 411.89765,148.71954 411.75945,149.4968 C 411.42483,150.74908 412.117,150.69771 412.68084,150.92077 C 430.59516,154.31221 450.25436,156.91115 468.07611,156.70042 C 466.78817,162.03658 456.01044,170.6951 450.34627,173.62055 C 436.72218,174.49576 406.30546,167.41335 396.4029,164.54622 C 395.5044,164.28359 394.32251,163.9715 394.02962,164.96504 C 393.71797,166.02218 394.27781,166.43378 395.25814,166.89159 C 398.79849,168.28338 425.52828,175.96372 441.57908,178.4788 C 439.08673,184.58948 425.66853,188.093 423.03954,189.39591 C 409.93704,189.04268 384.18261,177.99519 381.2418,176.99899 C 380.15435,176.81614 378.26806,176.15644 377.69583,177.30612 C 377.01897,178.66546 377.63147,179.30069 378.67307,180.04238 C 381.90636,182.13554 400.85497,189.19793 415.86384,192.66267 C 419.30725,194.92352 401.37637,203.07841 395.81656,203.4681 C 378.78965,199.2769 367.44567,190.42282 361.8367,188.25115 C 360.88162,187.90885 359.52792,187.71296 359.10045,188.19531 C 358.74336,188.52843 358.4854,189.84627 359.21213,190.76404 C 366.44704,197.07794 379.29504,203.83764 387.83115,207.96338 C 385.91342,211.61599 377.37344,215.26304 370.49221,215.72541 C 365.09832,216.08784 351.77896,202.63604 348.82552,201.12273 C 347.56685,200.31049 346.39126,199.93239 345.30747,200.42471 C 344.49161,200.79532 344.23951,201.67467 344.63737,203.0772 C 350.12833,208.64135 356.35128,214.21295 361.38997,219.04801 C 352.98249,223.19399 350.16291,224.86509 341.52139,229.88526 C 338.17836,199.64812 345.50735,180.80206 333.52481,150.12784 C 353.59023,149.07973 366.16617,141.27787 378.56138,129.64497 C 387.28014,120.74133 391.84259,110.6349 393.44328,94.380749 C 394.28626,85.820841 399.32896,86.295453 408.46477,85.501871 C 470.44862,79.709769 501.27807,70.555737 542.59726,56.408189 z" />
    <g
       style="stroke:#808080"
       id="beaked">
      <path
         d="M 241.93624,68.883917 C 237.31326,68.186687 229.33757,68.204307 221.51582,68.537205 C 197.32101,69.566941 186.02551,75.483584 185.91881,91.334474 C 185.91881,91.334474 217.53191,89.00362 250.06348,92.412752 C 249.19217,75.501346 244.14552,70.725783 241.93624,68.883917 z"
         id="Beak-1"
         style="fill:#ff0000;stroke:#808080" />
      <path
         d="M 249.98508,95.078511 C 224.56746,96.129529 217.44752,95.707793 201.92481,95.208574 C 202.08954,98.87347 202.85138,103.92787 207.22017,104.77682 C 208.76392,105.0768 224.05429,110.04663 248.52496,109.08531 L 249.98508,95.078511 z"
         id="Beak-2"
         style="fill:#ff0000;stroke:#808080" />
    </g>
    <path
       style="fill:#ffffff"
       id="Eye-1"
       d="M 264.50676,69.961373 C 269.37808,70.095805 277.81134,74.132154 277.53978,80.348316 C 277.26399,86.660767 269.63055,90.578186 264.12126,90.144861 C 258.51605,89.703986 253.75296,81.805291 253.73565,77.956697 C 253.71792,74.015565 259.53901,69.824279 264.50676,69.961373 z" />
    <path
       id="Eye-2"
       d="M 265.8125,73.96875 C 265.75087,73.953103 265.6952,74.02513 265.625,74.03125 C 265.42826,74.048403 265.20283,74.067475 265.09375,74.1875 C 264.94575,74.350351 264.91399,74.50602 264.875,74.65625 C 264.79702,74.95671 264.78336,75.290738 264.78125,75.6875 C 264.77703,76.481023 264.85683,77.496049 264.9375,78.53125 C 265.01817,79.566451 265.08931,80.593849 265.09375,81.34375 C 265.09457,81.482886 265.06745,81.53995 265.0625,81.65625 C 264.94596,81.507355 264.85785,81.39049 264.71875,81.1875 C 264.24904,80.50206 263.6575,79.562328 263.09375,78.625 C 262.53,77.687672 261.98284,76.734013 261.5,76.03125 C 261.25858,75.679869 261.02919,75.413084 260.8125,75.1875 C 260.70415,75.074708 260.61238,74.959582 260.46875,74.875 C 260.32512,74.790418 260.09002,74.711479 259.8125,74.8125 C 258.9728,75.118264 258.43904,75.523507 258.15625,76.0625 C 257.87346,76.601493 257.82098,77.133278 257.65625,77.78125 C 257.25511,79.358961 257.83051,80.988033 259,82.3125 C 260.16949,83.636967 261.93546,84.717135 264.03125,85.25 C 266.12704,85.783049 268.18361,85.69861 269.84375,85.09375 C 271.50389,84.48889 272.78635,83.327592 273.1875,81.75 C 273.6061,80.103786 272.72472,78.387104 271.3125,77 C 269.90028,75.612896 267.91158,74.502337 265.8125,73.96875 z" />
  </g>
</svg>
