<?xml version="1.0" encoding="UTF-8" standalone="no"?>
<!-- Created with Inkscape (http://www.inkscape.org/) -->
<svg xmlns:dc="http://purl.org/dc/elements/1.1/" xmlns:cc="http://creativecommons.org/ns#" xmlns:rdf="http://www.w3.org/1999/02/22-rdf-syntax-ns#" xmlns:svg="http://www.w3.org/2000/svg" xmlns="http://www.w3.org/2000/svg" xmlns:sodipodi="http://sodipodi.sourceforge.net/DTD/sodipodi-0.dtd" xmlns:inkscape="http://www.inkscape.org/namespaces/inkscape" width="435.04901" height="438.76062" id="svg3066" version="1.1" inkscape:version="0.48.4 r9939" sodipodi:docname="crow.svg">
  <defs id="defs3068"/>
  <sodipodi:namedview id="base" pagecolor="#ffffff" bordercolor="#666666" borderopacity="1.0" inkscape:pageopacity="0.0" inkscape:pageshadow="2" inkscape:zoom="1.2716969" inkscape:cx="96.025328" inkscape:cy="219.39107" inkscape:document-units="px" inkscape:current-layer="g3362" showgrid="false" fit-margin-top="0" fit-margin-left="0" fit-margin-right="0" fit-margin-bottom="0"/>
  <metadata id="metadata3071">
    <rdf:RDF>
      <cc:Work rdf:about="">
        <dc:format>image/svg+xml</dc:format>
        <dc:type rdf:resource="http://purl.org/dc/dcmitype/StillImage"/>
        <dc:title/>
        <dc:creator>
          <cc:Agent>
            <dc:title>http://commons.wikimedia.org/wiki/User:TomKr</dc:title>
          </cc:Agent>
        </dc:creator>
      </cc:Work>
    </rdf:RDF>
  </metadata>
  <g inkscape:label="Layer 1" inkscape:groupmode="layer" id="layer1">
    <g id="layer4" style="fill:#ffff00">
      <g style="stroke:#bababa;stroke-width:1.37562823000000000;stroke-linecap:round;stroke-linejoin:round;stroke-miterlimit:4;stroke-opacity:1;stroke-dasharray:none;display:inline;fill:#ffff00" id="g3362">
        <path inkscape:connector-curvature="0" d="m128.3,386.6   c-5.216,1.08 -6.887,4.819 -9.785,7.637 5.133,-2.227 10.03,-4.455 15.75,-6.682   l-5.966,-0.9546   z " style="fill:#ffff00;fill-rule:evenodd;stroke:#bababa;stroke-width:1.37562823000000000;stroke-linecap:round;stroke-linejoin:round;stroke-miterlimit:4;stroke-opacity:1;stroke-dasharray:none" id="path2324"/>
        <path inkscape:connector-curvature="0" d="m161.9,384.6   c-6.331,-1.317 -12.76,-3.792 -18.9,-2.788 -6.873,0.7984 -12.65,2.531 -16.78,5.661 0.7804,1.201 0.567,2.775 5.463,2.433   l9.504,-3.878 22.11,3.967 6.374,-4.104 -7.765,-1.29   z " style="fill:#ffff00;fill-rule:evenodd;stroke:#bababa;stroke-width:1.37562823000000000;stroke-linecap:round;stroke-linejoin:round;stroke-miterlimit:4;stroke-opacity:1;stroke-dasharray:none;display:inline" id="path2326"/>
        <path inkscape:connector-curvature="0" d="m187.3,385.5   c9.258,-1.666 11.05,8.592 11.57,13.46 -3.195,-5.663 -6.045,-11.48 -13.53,-10.48   l1.955,-2.981   z " style="fill:#ffff00;fill-rule:evenodd;stroke:#bababa;stroke-width:1.37562823000000000;stroke-linecap:round;stroke-linejoin:round;stroke-miterlimit:4;stroke-opacity:1;stroke-dasharray:none" id="path2328"/>
        <path inkscape:connector-curvature="0" d="m133,408.6   c-4.767,2.375 -5.43,6.416 -7.513,9.88 4.395,-3.463 8.56,-6.866 13.53,-10.48   l-6.012,0.5989   z " style="fill:#ffff00;fill-rule:evenodd;stroke:#bababa;stroke-width:1.37562823000000000;stroke-linecap:round;stroke-linejoin:round;stroke-miterlimit:4;stroke-opacity:1;stroke-dasharray:none" id="path2330"/>
        <path inkscape:connector-curvature="0" d="m124.2,398.7   c-5.216,1.08 -6.887,4.819 -9.785,7.637 5.133,-2.227 10.03,-4.455 15.75,-6.682   l-5.966,-0.9546   z " style="fill:#ffff00;fill-rule:evenodd;stroke:#bababa;stroke-width:1.37562823000000000;stroke-linecap:round;stroke-linejoin:round;stroke-miterlimit:4;stroke-opacity:1;stroke-dasharray:none" id="path2332"/>
        <path inkscape:connector-curvature="0" d="m193.2,405.5   c-5.216,1.08 -6.887,4.819 -9.785,7.637 5.133,-2.227 10.03,-4.455 15.75,-6.682   L193.2,405.5   z " style="fill:#ffff00;fill-rule:evenodd;stroke:#bababa;stroke-width:1.37562823000000000;stroke-linecap:round;stroke-linejoin:round;stroke-miterlimit:4;stroke-opacity:1;stroke-dasharray:none" id="path2264"/>
        <path inkscape:connector-curvature="0" d="m226.8,403.6   c-6.331,-1.317 -12.76,-3.792 -18.9,-2.788 -6.873,0.7984 -12.65,2.531 -16.78,5.661 0.7804,1.201 0.567,2.775 5.463,2.433   l9.504,-3.878 22.11,3.967 6.374,-4.104 -7.765,-1.29   z " style="fill:#ffff00;fill-rule:evenodd;stroke:#bababa;stroke-width:1.37562823000000000;stroke-linecap:round;stroke-linejoin:round;stroke-miterlimit:4;stroke-opacity:1;stroke-dasharray:none;display:inline" id="path2258"/>
        <path inkscape:connector-curvature="0" d="m252.2,404.4   c9.258,-1.666 11.05,8.592 11.57,13.46 -3.195,-5.663 -6.045,-11.48 -13.53,-10.48   l1.955,-2.981   z " style="fill:#ffff00;fill-rule:evenodd;stroke:#bababa;stroke-width:1.37562823000000000;stroke-linecap:round;stroke-linejoin:round;stroke-miterlimit:4;stroke-opacity:1;stroke-dasharray:none" id="path2270"/>
        <path inkscape:connector-curvature="0" d="m197.9,427.6   c-4.767,2.375 -5.43,6.416 -7.513,9.88 4.395,-3.463 8.56,-6.866 13.53,-10.48   l-6.012,0.5989   z " style="fill:#ffff00;fill-rule:evenodd;stroke:#bababa;stroke-width:1.37562823000000000;stroke-linecap:round;stroke-linejoin:round;stroke-miterlimit:4;stroke-opacity:1;stroke-dasharray:none" id="path2268"/>
        <path inkscape:connector-curvature="0" d="m189.1,417.7   c-5.216,1.08 -6.887,4.819 -9.785,7.637 5.133,-2.227 10.03,-4.455 15.75,-6.682   l-5.966,-0.9546   z " style="fill:#ffff00;fill-rule:evenodd;stroke:#bababa;stroke-width:1.37562823000000000;stroke-linecap:round;stroke-linejoin:round;stroke-miterlimit:4;stroke-opacity:1;stroke-dasharray:none" id="path2266"/>
        <g id="legged" inkscape:label="#g3151">
          <path id="path2334" style="fill:#ffff00;fill-rule:evenodd;stroke:#bababa;stroke-width:1.37562823000000000;stroke-linecap:round;stroke-linejoin:round;stroke-miterlimit:4;stroke-opacity:1;stroke-dasharray:none" d="m179.7,342.2   c-5.489,18.85 -7.373,27.87 -14.77,46.91 -8.157,0.8646 -17.63,0.5547 -25.16,3.898 -5.6,1.337 -10.47,3.039 -14.8,5.012 0.7022,1.699 -0.8356,4.798 4.534,3.58 2.902,-4.28 7.901,-3.319 11.93,-4.773   l20.05,-2.387 -22.67,8.114 -5.25,5.25   c0.05576,1.303 -0.04328,2.699 3.103,2.148 2.879,-2.19 5.801,-4.425 7.441,-5.377   l14.75,-1.544 12.89,-4.534 7.16,-6.921   c8.984,-2.272 5.339,-2.56 10.02,-0.716 2.09,-1.83 0.9101,-4.137 0.9546,-5.966 -2.776,-0.9468 -2.211,-0.5454 -4.987,-0.8803 -3.588,0.7299 -9.201,1.351 -12.79,5.176 5.914,-19.83 13.31,-25.31 18.12,-43.74   l-10.52,-3.248   z " inkscape:connector-curvature="0"/>
          <path id="path2256" style="fill:#ffff00;fill-rule:evenodd;stroke:#bababa;stroke-width:1.37562823000000000;stroke-linecap:round;stroke-linejoin:round;stroke-miterlimit:4;stroke-opacity:1;stroke-dasharray:none" d="m249,350.4   c-5.489,18.85 -10.71,37.71 -20.52,56.56 -8.157,0.8646 -16.33,1.668 -23.87,5.012 -5.6,1.337 -10.47,3.039 -14.8,5.012 0.7022,1.699 -0.8356,4.798 4.534,3.58 2.902,-4.28 7.901,-3.319 11.93,-4.773   l20.05,-2.387 -22.67,8.114 -5.25,5.25   c0.05576,1.303 -0.04328,2.699 3.103,2.148 2.879,-2.19 5.801,-4.425 7.441,-5.377   l14.75,-1.544 12.89,-4.534 7.16,-6.921   c8.984,-2.272 5.339,-2.56 10.02,-0.716 2.09,-1.83 0.9101,-4.137 0.9546,-5.966 -2.776,-0.9468 -2.211,-0.5454 -4.987,-0.8803 -3.588,0.7299 -7.176,1.351 -10.76,5.176 4.597,-19.57 12.59,-39.14 22.91,-58.71   l-12.89,0.9546   z " inkscape:connector-curvature="0"/>
        </g>
        <path inkscape:connector-curvature="0" d="m154.1,276.6   c11.64,11.36 21.89,53.69 23.11,68.72 3.529,0.6067 3.215,6.97 14.37,3.662 1.904,-4.154 3.813,-5.648 6.348,-12.07 2.241,-19.39 -8.059,-37.83 -11.14,-57.23   l-32.69,-3.079   z " style="fill:#ffff00;fill-rule:evenodd;stroke:#bababa;stroke-width:1.37562823000000000;stroke-linecap:round;stroke-linejoin:round;stroke-miterlimit:4;stroke-opacity:1;stroke-dasharray:none" id="path2254"/>
        <path inkscape:connector-curvature="0" d="m191.8,128 82.91,60.37 67.6,48.67 11.82,10.06   c4.14,4.629 6.773,9.164 2.024,13.24 1.584,23.81 -95.89,-41.12 -143.8,-61.69   l-20.53,-70.65   z " style="fill:#ffff00;fill-rule:evenodd;stroke:#bababa;stroke-width:1.37562823000000000;stroke-linecap:round;stroke-linejoin:round;stroke-miterlimit:4;stroke-opacity:1;stroke-dasharray:none" id="path2250"/>
        <path inkscape:connector-curvature="0" d="m75.42,8.507   c33.11,-14.16 55.07,-6.452 70.56,13.95 10.38,16.11 16.35,27.1 22.75,37.36 9.18,14.72 15.92,26.46 21.23,39.07 31.49,26.61 58,56.23 82.2,87.24 40.15,53.39 55.78,62.85 72.08,92.36 7.631,21.57 67.27,63.6 87.64,71.48 5.843,6.026 -2.817,9.083 -11.68,7.958 -2.868,6.621 -12.76,7.141 -19.51,3.171 -24.4,-0.5388 -52.55,-27.78 -66.62,-42.61 -20.25,-21.35 -46.5,-2.936 -68.93,-5.383 -18.76,5.845 -30.67,8.587 -55.93,1.502 -44.66,-12.52 -64.02,-40.12 -108.7,-78.65 -12.2,-10.52 -16.04,-24.91 -18.88,-41.14 -3.939,-17.72 -8.146,-35.49 -3.205,-53.92 6.596,-16.77 12.35,-32.88 10.61,-52.57 -1.21,-13.7 -12.53,-34.41 -33.89,-43.57   l9.212,-33.2 11.07,-3.062   z " style="fill:#ffff00;fill-rule:evenodd;stroke:#bababa;stroke-width:1.37562823000000000;stroke-linecap:round;stroke-linejoin:round;stroke-miterlimit:4;stroke-opacity:1;stroke-dasharray:none" id="path2237"/>
        <path inkscape:connector-curvature="0" d="m207.6,127.2   c39.43,25.66 51.22,54.45 75.66,80.78   l78.44,77.42   c11.57,8.14 25.14,22.75 36.71,22.04 29.25,8.922 36.47,33.17 8.176,19.48 0,0 -35.3,-12.41 -89.87,-42.12 -54.25,-29.53 -89.69,-37.41 -139.7,-65.21 -46.48,-25.82 -64.04,-91.05 -64.04,-91.05   " style="fill:#ffff00;fill-rule:evenodd;stroke:#bababa;stroke-width:1.37562823000000000;stroke-linecap:round;stroke-linejoin:round;stroke-miterlimit:4;stroke-opacity:1;stroke-dasharray:none" id="path2239"/>
        <path inkscape:connector-curvature="0" d="m110.9,30.81   c-0.07125,3.019 -3.246,5.16 -7.086,4.778 -3.84,-0.3817 -6.899,-3.142 -6.828,-6.161 0.07125,-3.019 3.246,-5.16 7.086,-4.778 3.84,0.3817 6.899,3.142 6.828,6.161   z " style="fill:#ffff00;fill-opacity:1;fill-rule:evenodd;stroke:#bababa;stroke-width:1.37562823000000000;stroke-linecap:round;stroke-linejoin:round;stroke-miterlimit:4;stroke-opacity:1;stroke-dasharray:none;stroke-dashoffset:0" id="path2243"/>
        <g id="beaked" inkscape:label="#g3147">
          <path id="path2241" style="fill:#ffff00;fill-rule:evenodd;stroke:#bababa;stroke-width:1.37562823000000000;stroke-linecap:round;stroke-linejoin:round;stroke-miterlimit:4;stroke-opacity:1;stroke-dasharray:none" d="m1.317,27.41   c3.158,-8.645 37.99,-18.22 60.93,-16.4 3.502,-2.666 7.004,-2.018 10.51,-1.15 4.378,15.34 2.847,21.27 0.9348,28.75 -4.05,4.383 -17.38,4.203 -18.66,6.12 -15.92,-10.28 -37.85,-8.45 -53.71,-17.32   z " inkscape:connector-curvature="0"/>
          <path id="path2248" style="fill:#ffff00;fill-rule:evenodd;stroke:#bababa;stroke-width:1.37562823000000000;stroke-linecap:round;stroke-linejoin:round;stroke-miterlimit:4;stroke-opacity:1;stroke-dasharray:none" d="m1.917,27.81   c20.89,-9.979 59.72,1.77 71.17,10.44   " inkscape:connector-curvature="0"/>
        </g>
        <path inkscape:connector-curvature="0" d="m227.9,302.9 15.33,23.91   c2.964,9.223 3.909,17.32 4.923,25.46 2.638,4.406 6.359,3.411 9.86,3.516 4.041,-0.186 7.271,-3.962 10.33,-8.493 2.169,-13.58 2.226,-26.99 0.5894,-40.27 -1.742,-11.06 -3.97,-18.11 -3.855,-29.2   " style="fill:#ffff00;fill-rule:evenodd;stroke:#bababa;stroke-width:1.37562823000000000;stroke-linecap:round;stroke-linejoin:round;stroke-miterlimit:4;stroke-opacity:1;stroke-dasharray:none" id="path2252"/>
        <path inkscape:connector-curvature="0" d="m103.1,28.81   c-0.01512,0.7461 -0.6795,1.275 -1.483,1.181 -0.8039,-0.09431 -1.444,-0.7764 -1.429,-1.523 0.01512,-0.7461 0.6795,-1.275 1.483,-1.181 0.8039,0.09431 1.444,0.7764 1.429,1.523   z " style="fill:#ffff00;stroke:#bababa;stroke-width:1.37562823000000000;stroke-linecap:round;stroke-linejoin:round;stroke-miterlimit:4;stroke-opacity:1;stroke-dasharray:none;stroke-dashoffset:0" id="path3305"/>
        <path inkscape:connector-curvature="0" d="m368,310.7   c-16.01,-8.466 -41.58,-3.901 -62.03,-2.599   " style="fill:#ffff00;fill-rule:evenodd;stroke:#bababa;stroke-width:1.37562823000000000;stroke-linecap:round;stroke-linejoin:round;stroke-miterlimit:4;stroke-opacity:1;stroke-dasharray:none" id="path3307"/>
        <path inkscape:connector-curvature="0" d="m160,137.1   c-1.569,64.29 91.58,78.98 137.4,118.5   " style="fill:#ffff00;fill-rule:evenodd;stroke:#bababa;stroke-width:1.37562823000000000;stroke-linecap:round;stroke-linejoin:round;stroke-miterlimit:4;stroke-opacity:1;stroke-dasharray:none" id="path3309"/>
        <path inkscape:connector-curvature="0" d="m357.1,260.6   c-8.001,-0.9389 -17.13,-8.068 -29.03,-17.55   " style="fill:#ffff00;fill-rule:evenodd;stroke:#bababa;stroke-width:1.37562823000000000;stroke-linecap:round;stroke-linejoin:round;stroke-miterlimit:4;stroke-opacity:1;stroke-dasharray:none" id="path3311"/>
        <path inkscape:connector-curvature="0" d="m393.2,306.5   c-20.68,-4.829 -31.34,-15.96 -46.91,-22.55   " style="fill:#ffff00;fill-rule:evenodd;stroke:#bababa;stroke-width:1.37562823000000000;stroke-linecap:round;stroke-linejoin:round;stroke-miterlimit:4;stroke-opacity:1;stroke-dasharray:none" id="path3313"/>
        <path inkscape:connector-curvature="0" d="m209.3,168.8   c31.94,45.22 58.95,46.13 88.43,69.19   " style="fill:#ffff00;fill-rule:evenodd;stroke:#bababa;stroke-width:1.37562823000000000;stroke-linecap:round;stroke-linejoin:round;stroke-miterlimit:4;stroke-opacity:1;stroke-dasharray:none" id="path3315"/>
        <path inkscape:connector-curvature="0" d="m420.6,357.8   c-18.87,-4.374 -53.68,-26.75 -63.11,-36.45   " style="fill:#ffff00;fill-rule:evenodd;stroke:#bababa;stroke-width:1.37562823000000000;stroke-linecap:round;stroke-linejoin:round;stroke-miterlimit:4;stroke-opacity:1;stroke-dasharray:none" id="path3317"/>
        <path inkscape:connector-curvature="0" d="m373.3,341.6   c7.722,8.856 16.9,13.46 26.33,18.9   " style="fill:#ffff00;fill-rule:evenodd;stroke:#bababa;stroke-width:1.37562823000000000;stroke-linecap:round;stroke-linejoin:round;stroke-miterlimit:4;stroke-opacity:1;stroke-dasharray:none" id="path3319"/>
      </g>
    </g>
  </g>
</svg>
