<?xml version="1.0" encoding="UTF-8" standalone="no"?>
<svg
   xmlns:dc="http://purl.org/dc/elements/1.1/"
   xmlns:cc="http://creativecommons.org/ns#"
   xmlns:rdf="http://www.w3.org/1999/02/22-rdf-syntax-ns#"
   xmlns:svg="http://www.w3.org/2000/svg"
   xmlns="http://www.w3.org/2000/svg"
   id="svg8"
   version="1.1"
   viewBox="0 0 105.93 90.903"
   height="90.903"
   width="105.93">
  <defs
     id="defs2" />
  <metadata
     id="metadata5">
    <rdf:RDF>
      <cc:Work
         rdf:about="">
        <dc:format>image/svg+xml</dc:format>
        <dc:type
           rdf:resource="http://purl.org/dc/dcmitype/StillImage" />
        <dc:title></dc:title>
      </cc:Work>
    </rdf:RDF>
  </metadata>
  <g
     transform="translate(0.01001,-206.11)"
     id="layer1">
    <g
       transform="matrix(0.90305,0,0,0.90305,2.6025,203.59)"
       id="layer1-3">
      <g
         id="winged">
        <path
           d="m 56.994,7.1584 c 0.532,1.0941 1.114,1.5373 1.54,2.263 0,0 1.981,4.6726 1.981,4.6726 1.551,4.319 1.637,7.775 6.617,9.532 0.936,0.329 2.64,0.673 3.601,0.398 1.039,-0.299 3.825,-2.686 6.371,-3.509 1.883,-0.609 3.831,-1.161 5.817,-1.169 0,0 13.018,-1.662 13.018,-1.662 0,0 6.091,0 6.091,0 1.5,0 4.06,0.208 5.27,1.108 0,0 -1.39,0.69 -1.39,0.69 0,0 -6.093,0.925 -6.093,0.925 0,0 -4.986,0.601 -4.986,0.601 0,0 5.539,0 5.539,0 0,0 7.48,0.529 7.48,0.529 0,0 2.49,0.152 2.49,0.152 0,0 3.33,0.981 3.33,0.981 -0.46,0.59 -0.7,0.947 -1.39,1.299 -1.16,0.582 -5.7,0.391 -7.2,0.363 0,0 0,0.554 0,0.554 3.07,0.257 6.33,1.282 9.14,2.493 -0.61,1.152 -0.95,1.238 -2.22,1.385 0,0 1.94,1.385 1.94,1.385 0,0 0,0.554 0,0.554 -1.6,0.872 -1.81,0.825 -3.6,0.831 1.17,1.116 1.72,0.717 2.22,2.216 -1.99,0.642 -1.87,0.54 -3.88,0.277 0,0 1.66,1.939 1.66,1.939 -1.43,0.77 -2.29,0.803 -3.88,0.554 0,0 1.39,2.215 1.39,2.215 0,0 -4.15,0.831 -4.15,0.831 0,0 1.38,1.662 1.38,1.662 0,0 -5.263,0.831 -5.263,0.831 0,0 0.833,2.493 0.833,2.493 0,0 -3.326,0.277 -3.326,0.277 -0.111,0.488 -0.124,0.804 -0.482,1.205 -1.094,1.23 -3.947,1.346 -5.335,0.734 0.488,1.873 1.305,4.213 -1.662,4.357 -0.526,0.02 -0.886,-0.09 -1.385,-0.202 -0.301,1.094 -0.432,2.274 -1.686,2.651 0,0 -2.144,0.274 -2.144,0.274 0,0 -1.72,0.975 -1.72,0.975 -1.036,0.438 -2.266,0.233 -3.313,0 -0.139,0.324 -0.147,0.551 -0.477,0.831 -0.656,0.526 -3.144,0.349 -3.88,0 -0.491,-0.219 -0.599,-0.454 -0.906,-0.853 0,0 -0.831,1.939 -0.831,1.939 0,0 -3.324,-1.086 -3.324,-1.086 -1.318,2.044 -3.59,1.535 -5.166,0 -1.504,-1.415 -2.77,-6.249 -2.867,-8.332 -1.712,1.837 -0.396,5.632 0.394,7.756 0,0 2.817,8.587 2.817,8.587 1.024,3.099 2.038,5.797 2.052,9.141 0.01,3.232 -0.393,2.163 -0.748,3.877 0,0 -0.155,1.939 -0.155,1.939 0,0 -0.41,1.662 -0.41,1.662 -0.166,1.003 0.06,2.103 -0.584,2.983 -0.593,0.818 -1.346,0.843 -2.258,0.895 -0.04,0.986 -0.147,2.709 -0.507,3.601 0,0 -1.296,2.263 -1.296,2.263 -0.659,1.917 0.03,4.221 -2.629,4.662 -0.01,1.304 -0.371,6.462 -0.916,7.462 -0.624,1.15 -2.646,1.58 -3.651,0.68 -0.557,-0.5 -0.768,-1.61 -0.9,-2.33 0,0 -0.626,-5.812 -0.626,-5.812 -2.649,-0.798 -1.892,-2.798 -2.336,-4.421 -0.268,-0.992 -0.806,-1.149 -1.368,-2.507 -0.548,-1.329 -0.451,-2.21 -0.451,-3.598 -3.025,-0.169 -2.491,-1.246 -2.828,-3.601 0,0 -0.438,-1.939 -0.438,-1.939 0,0 -0.141,-1.939 -0.141,-1.939 -0.247,-1.124 -0.845,-1.379 -0.995,-2.77 -0.199,-1.819 0.413,-4.315 0.876,-6.093 0,0 3.509,-11.08 3.509,-11.08 0.853,-2.377 2.944,-7.274 1.125,-9.418 -0.169,2.028 -1.615,7.097 -3.1,8.454 -1.485,1.36 -3.856,1.961 -4.933,-0.144 -1.374,0.479 -2.139,1.091 -3.601,0.831 0,0 0.277,-0.831 0.277,-0.831 0,0 -1.108,-0.831 -1.108,-0.831 -0.645,1.604 -3.551,1.21 -4.986,1.108 0,0 0,-1.108 0,-1.108 -3.327,0.809 -3.75,-0.355 -5.063,-0.884 -0.867,-0.346 -1.654,-0.119 -2.391,-0.429 -1.102,-0.46 -1.363,-1.534 -1.687,-2.565 -1.371,0.377 -3.357,0.128 -3.448,-1.673 -0.03,-0.623 0.485,-1.792 0.678,-2.482 -0.493,0.225 -0.745,0.383 -1.307,0.443 -0.947,0.103 -3.67,-0.443 -4.279,-1.199 -0.305,-0.377 -0.205,-0.515 -0.23,-0.906 0,0 -3.601,-0.554 -3.601,-0.554 0,0 1.108,-2.493 1.108,-2.493 0,0 -5.2631,-0.831 -5.2631,-0.831 0,0 1.108,-1.938 1.108,-1.938 0,0 -3.8779,-0.554 -3.8779,-0.554 0,0 1.385,-2.216 1.385,-2.216 -1.7783,0.302 -2.504,0.224 -4.1549,-0.554 0,0 1.9389,-1.939 1.9389,-1.939 -2.0469,0.241 -2.1079,0.31 -4.1548,-0.277 0,0 0,-0.554 0,-0.554 0,0 2.2159,-1.662 2.2159,-1.662 0,0 -3.3239,-0.554 -3.3239,-0.554 0.374,-1.164 0.6842,-1.255 1.66195,-1.939 0,0 -2.21595,-1.108 -2.21595,-1.108 0.4238,-0.479 0.5457,-0.657 1.1191,-0.995 1.38215,-0.811 6.5979,-1.914 8.2986,-2.052 0,0 0,-0.554 0,-0.554 0,0 -7.20175,-0.28 -7.20175,-0.28 0,0 -1.66195,-1.382 -1.66195,-1.382 0,0 3.3239,-0.981 3.3239,-0.981 0,0 10.2489,-0.681 10.2489,-0.681 0,0 5.54,-0.277 5.54,-0.277 0,0 -4.986,-0.324 -4.986,-0.324 0,0 -3.6011,-0.621 -3.6011,-0.621 -1.7894,-0.279 -2.5649,0.172 -3.8779,-1.271 4.8529,-1.404 11.636,-0.969 16.62,-0.202 2.315,0.357 4.567,1.008 6.924,1.033 2.41,0.02 5.266,0.554 7.479,1.562 0,0 5.54,3.219 5.54,3.219 1.457,0.355 4.551,-0.776 5.806,-1.554 2.509,-1.559 2.975,-4.781 3.914,-7.382 0,0 2.218,-5.5369 2.218,-5.5369 0.527,-1.0304 1.219,-1.4071 1.679,-2.5067 0,0 1.063,-3.8668 1.063,-3.8668 0,0 1.219,3.8778 1.219,3.8778 z"
           id="Selection"
           style="fill:#ffff00;stroke:#808080;stroke-width:1.04632" />
      </g>
    </g>
  </g>
</svg>
