<?xml version="1.0" encoding="UTF-8" standalone="no"?>
<svg
   xmlns:dc="http://purl.org/dc/elements/1.1/"
   xmlns:cc="http://creativecommons.org/ns#"
   xmlns:rdf="http://www.w3.org/1999/02/22-rdf-syntax-ns#"
   xmlns:svg="http://www.w3.org/2000/svg"
   xmlns="http://www.w3.org/2000/svg"
   xmlns:xlink="http://www.w3.org/1999/xlink"
   id="svg2"
   height="859.618"
   width="700.61"
   version="1.0"
   viewBox="0 0 700.61 859.618">
  <metadata
     id="metadata3318">
    <rdf:RDF>
      <cc:Work
         rdf:about="">
        <dc:format>image/svg+xml</dc:format>
        <dc:type
           rdf:resource="http://purl.org/dc/dcmitype/StillImage" />
        <dc:title></dc:title>
        <dc:creator>
          <cc:Agent>
            <dc:title>https://upload.wikimedia.org/wikipedia/commons/9/90/Complete_Guide_to_Heraldry_Fig466.png</dc:title>
          </cc:Agent>
        </dc:creator>
      </cc:Work>
    </rdf:RDF>
  </metadata>
  <g
     id="g41040"
     transform="translate(-907.173,131.21)">
    <title
       id="title41042">Layer 1</title>
  </g>
  <g
     id="g3900"
     transform="translate(-351.744,1014.96)">
    <g
       id="body"
       transform="translate(446.781,392.704)"
       style="fill:#ffff00">
      <path
         style="stroke-width:2.92844"
         d="m 532.792,-566.928 c -3.865,-2.249 -9.556,-5.703 -12.648,-7.677 -9.756,-6.222 -57.589,-23.689 -96.97,-35.411 -53.036,-15.784 -67.809,-20.302 -75.89,-23.21 -3.865,-1.388 -20.307,-6.922 -36.54,-12.292 -17.448,-5.776 -31.089,-12.098 -33.369,-15.466 -2.731,-4.037 -7.392,-5.7 -15.973,-5.7 -13.862,0 -47.374,-13.65 -60.498,-24.643 -4.854,-4.067 -14.695,-9.595 -21.868,-12.29 -19.371,-7.273 -41.643,-20.155 -43.392,-25.098 -0.843,-2.386 -12.369,-8.598 -25.614,-13.8 -21.5073,-8.448 -26.3192,-11.866 -45.0415,-31.99 -11.5297,-12.394 -21.7973,-26.158 -22.8203,-30.582 -2.6815,-11.597 0.4356,-21.708 7.8053,-25.326 40.1148,-19.686 67.4775,-37.102 83.2255,-52.97 14.292,-14.398 17.432,-19.191 15.934,-24.314 -2.074,-7.097 -5.798,-6.593 -25.128,3.405 -13.573,7.024 -18.514,7.13 -31.8846,0.702 -5.7479,-2.765 -12.3223,-5.434 -14.613,-5.935 -2.2936,-0.503 -4.6124,-2.361 -5.1549,-4.13 -0.5424,-1.767 -3.2267,-3.216 -5.9643,-3.216 -2.7376,0 -8.1202,-3.164 -11.9625,-7.03 -3.8422,-3.863 -8.6008,-6.444 -10.5739,-5.73 -1.9732,0.714 -4.6603,-0.586 -5.9701,-2.886 -1.3098,-2.304 -3.3784,-4.223 -4.5927,-4.266 -2.2317,-0.09 -10.335,-5.312 -29.5773,-19.103 -5.77602,-4.137 -16.5271,-8.711 -23.8912,-10.159 -15.8975,-3.134 -33.7568,-11.201 -41.3261,-18.674 -4.8064,-4.747 -4.8907,-5.378 -0.7027,-5.378 2.6111,0 4.7473,-1.374 4.7473,-3.052 0,-1.678 -3.4769,-3.05 -7.7295,-3.053 h -7.7293 l 10.9138,-10.538 c 14.984,-14.48 33.2566,-18.44 58.45476,-12.68 10.32663,2.36 20.13044,5.2 21.78604,6.32 2.6505,1.77 54.2583,-1.04 114.4582,-6.23 l 20.105,-1.74 1.751,-10.13 c 2.438,-14.1 -2.965,-25.17 -14.27,-29.22 -5.185,-1.86 -15.72,-8.08 -23.41,-13.81 -7.69,-5.75 -16.226,-10.46 -18.9697,-10.47 -18.8628,-0.1 -37.3799,-13.79 -44.9942,-33.37 -9.444,-24.27 -0.593,-61.18 20.0489,-83.55 7.7492,-8.42 50.512,-41.71 53.55,-41.71 0.604,0 11.324,-6.89 23.824,-15.32 15.6,-10.49 30.87,-17.72 48.707,-23.09 14.29,-4.3 37.945,-11.93 52.567,-16.96 14.621,-5.01 31.696,-10.28 37.944,-11.72 6.248,-1.43 24.642,-6.65 40.874,-11.66 16.231,-4.97 42.793,-12.08 59.026,-15.77 16.231,-3.7 39.631,-9.95 51.998,-13.92 12.366,-3.93 31.617,-9.21 42.779,-11.74 11.161,-2.5 26.221,-7.42 33.471,-10.89 23.34,-11.2 46.107,-16.36 53.417,-12.12 5.256,3.05 7.648,2.81 13.404,-1.28 6.454,-4.57 15.735,-4.14 15.735,0.73 0,1.14 -3.702,4.43 -8.227,7.32 -4.703,3.02 -9.584,9.78 -11.398,15.72 -3.302,10.87 -15.495,21.05 -43.617,36.4 -7.729,4.21 -18.714,12.64 -24.408,18.68 -12.486,13.27 -27.444,24.55 -36.435,27.51 -3.638,1.19 -12.938,5.92 -20.668,10.53 -7.73,4.61 -22.592,12.2 -33.026,16.91 -12.654,5.66 -18.972,10.22 -18.972,13.6 0,7.2 -7.752,15.32 -26.382,27.58 -8.916,5.86 -18.961,13.16 -22.32,16.17 l -6.108,5.49 6.325,-1.88 c 10.442,-3.12 7.552,5.79 -4.216,13.02 -5.799,3.54 -15.546,12.05 -21.668,18.89 -10.338,11.53 -26.835,19.32 -62.654,29.5 -8.728,2.47 -1.96,10.05 16.009,17.89 10.738,4.7 20.195,10.45 21.016,12.77 0.824,2.33 3.955,5.23 6.957,6.44 3.005,1.23 13.784,12.49 23.956,25.05 15.79,19.49 18.492,24.5 18.492,34.32 0,13.41 -3.129,12.83 45.449,8.45 20.665,-1.85 38.189,-5.25 47.37,-9.18 9.716,-4.16 17.639,-5.61 23.792,-4.36 5.548,1.14 9.995,0.53 11.153,-1.5 2.991,-5.25 26.972,-17.59 57.063,-29.36 15.06,-5.89 29.524,-20.08 38.436,-26.02 18.31,-12.2 25.723,-1.7 16.163,4.63 -12.018,7.95 -3.809,5.91 9.517,8.5 2.435,0.47 -17.995,4.23 -30.548,15.98 -20.937,19.61 -21.791,30.55 -28.035,29.44 -1.198,-0.21 -6.89,2.19 -12.649,5.34 -5.759,3.15 -22.489,10.79 -37.175,16.96 -30.378,12.76 -69.796,32.861 -70.077,35.741 -0.113,1.06 9.61,2.914 21.592,4.116 13.542,1.361 27.207,4.965 36.124,9.52 7.886,4.033 20.18,8.515 27.32,9.965 7.139,1.445 15.864,4.664 19.389,7.151 3.524,2.484 13.032,6.893 21.127,9.798 8.43,3.02 12.713,17.089 16.058,21.704 3.21,4.434 8.263,10.398 12.8,12.468 4.535,2.071 -5.182,5.011 2.516,0 10.428,-6.785 8.329,14.474 11.354,18.669 4.978,6.908 13.428,9.937 10.06,9.937 -0.747,0 -10.959,3.488 -21.123,-3.264 -10.163,-6.752 -18.344,-14.078 -19.753,-13.135 -1.408,0.946 -8.551,-2.995 -15.24,-6.072 -18.207,-8.375 -16.527,-31.033 -29.609,-12.421 -9.332,13.275 -46.478,-21.753 -59.417,-26.514 l -21.101,3.695 c -16.15,2.828 -25.507,2.871 -39.884,0.183 -15.029,-2.807 -22.432,-2.66 -37.051,0.744 -18.641,4.34 -23.975,3.897 -20.779,-1.717 0.988,-1.736 -1.521,-0.797 -5.577,2.086 -7.179,5.108 -10.102,13.697 -4.661,13.697 5.122,0 9.153,13.09 10.462,33.956 1.108,17.687 0.413,22.257 -4.528,29.79 -3.21,4.895 -5.835,10.907 -5.835,13.367 0,2.697 -5.022,5.999 -12.649,8.317 -12.602,3.83 -17.078,9.141 -7.728,9.168 10.447,0.03 -11.573,14.231 -28.538,18.402 l -17.137,4.213 14.371,2.331 c 42.071,6.819 158.143,69.049 184.631,98.986 62.182,70.279 63.617,81.94 74.308,90.148 2.867,2.201 -12.483,-9.981 6.327,14.867 13.71,18.112 14.511,31.692 5.652,32.72 -3.865,0.448 -10.189,-1.022 -14.054,-3.27 z M -20.781,-988.651 c 9.4441,-5.3 10.2817,-9.261 3.6399,-17.219 -6.0767,-7.29 -15.5715,-7.09 -23.8462,0.51 l -6.6362,6.089 7.8869,7.639 c 9.3036,9.01 8.4547,8.876 18.9556,2.981 z"
         id="path901" />
      <path
         id="path908"
         style="fill:#ffffff;stroke:#808080;stroke-width:3"
         d="m -10.0585,-998.863 a 16.0944,14.8069 0 0 1 -16.0944,14.81 16.0944,14.8069 0 0 1 -16.0944,-14.81 16.0944,14.8069 0 0 1 16.0944,-14.807 16.0944,14.8069 0 0 1 16.0944,14.807 z" />
    </g>
    <g
       id="outline"
       style="fill:#808080">
      <path
         style="stroke-width:2.86116"
         d="m 981.575,-159.251 c -3.365,-3.074 -14.955,-9.197 -25.756,-13.608 -10.804,-4.412 -26.963,-11.271 -35.91,-15.241 -8.947,-3.971 -22.368,-8.702 -29.823,-10.517 -14.356,-3.496 -37.982,-10.595 -51.513,-15.484 -4.474,-1.615 -9.967,-3.393 -12.209,-3.952 -2.242,-0.559 -11.783,-3.832 -21.201,-7.277 -9.419,-3.442 -24.561,-7.763 -33.649,-9.595 -16.736,-3.382 -29.343,-7.987 -50.171,-18.325 -6.322,-3.138 -14.469,-5.704 -18.108,-5.704 -3.636,0 -8.242,-1.812 -10.229,-4.028 -1.99,-2.216 -8.841,-4.961 -15.226,-6.096 -6.383,-1.138 -13.686,-3.243 -16.232,-4.68 -2.543,-1.438 -14.063,-7.703 -25.597,-13.923 -11.533,-6.217 -22.359,-13.171 -24.053,-15.444 -1.698,-2.277 -4.878,-4.14 -7.071,-4.14 -2.191,0 -7.087,-2.717 -10.878,-6.039 -3.793,-3.321 -8.928,-6.038 -11.417,-6.038 -2.486,0 -9.378,-3.977 -15.31,-8.835 -5.934,-4.862 -14.055,-9.75 -18.046,-10.864 -3.991,-1.117 -8.677,-3.934 -10.411,-6.262 -1.735,-2.328 -4.332,-4.234 -5.771,-4.234 -1.439,0 -9.489,-7.473 -17.889,-16.606 -8.4,-9.134 -16.725,-16.607 -18.499,-16.607 -4.02,0 -17.267,-29.068 -17.267,-37.888 0,-14.46 11.252,-26.311 35.574,-37.471 12.822,-5.882 26.491,-13.074 30.375,-15.979 3.885,-2.908 7.831,-5.284 8.771,-5.284 3.002,0 17.461,-12.391 17.461,-14.961 0,-1.359 -8.234,-4.17 -18.301,-6.247 -31.995,-6.601 -80.394,-29.295 -96.925,-45.446 -6.075,-5.936 -29.615,-18.179 -46.091,-23.974 -5.964,-2.095 -13.895,-6.087 -17.623,-8.865 -9.475,-7.062 -25.317,-11.769 -33.644,-9.997 -15.555,3.312 -3.433,-17.818 13.165,-22.948 4.553,-1.407 13.064,-6.183 18.913,-10.613 5.848,-4.429 17.306,-10.215 25.462,-12.854 13.689,-4.432 17.081,-4.399 44.148,0.453 29.181,5.227 70.58,5.308 78.073,0.151 1.967,-1.355 12.41,-2.633 23.206,-2.841 18.298,-0.356 28.595,-4.345 28.595,-11.084 0,-6.377 -14.456,-20.348 -24.908,-24.068 -23.483,-8.361 -60.944,-29.418 -66.614,-37.444 -3.175,-4.496 -7.236,-13.183 -9.024,-19.306 -1.788,-6.126 -4.907,-13.817 -6.932,-17.093 -2.025,-3.273 -3.681,-8.479 -3.681,-11.561 0,-7.458 67.693,-82.654 86.758,-96.375 8.202,-5.903 22.232,-14.831 31.179,-19.841 17.36,-9.721 82.618,-34.534 120.648,-45.873 12.675,-3.779 38.296,-12.064 56.936,-18.41 18.639,-6.346 48.53,-15.021 66.424,-19.279 17.894,-4.258 42.905,-10.977 55.58,-14.932 29.964,-9.346 40.668,-11.386 40.668,-7.736 0,1.62 1.22,2.94 2.711,2.94 1.491,0 2.711,-1.89 2.711,-4.19 0,-2.46 4.21,-5.07 10.167,-6.31 5.59,-1.17 11.466,-3.31 13.052,-4.77 1.588,-1.46 10.739,-4.83 20.334,-7.484 33.053,-9.14 35.233,-9.88 38.793,-13.16 2.62,-2.43 6.54,-1.91 14.8,1.96 16.33,7.64 14.99,15.204 -5.64,32.014 -5.6,4.558 -10.17,10.68 -10.17,13.606 0,6.878 -11.88,19.19 -26.25,27.211 -6.236,3.48 -12.046,7.601 -12.911,9.158 -0.862,1.557 -5.286,3.739 -9.828,4.851 -6.287,1.537 -9.635,5.173 -14.019,15.226 -3.384,7.752 -8.638,14.499 -12.724,16.337 -3.828,1.723 -10.62,5.768 -15.093,8.99 -18.439,13.28 -54.696,30.662 -72.62,34.815 -4.435,1.027 -8.513,4.563 -9.879,8.564 -1.28,3.747 -9.167,14.432 -17.526,23.742 -8.361,9.311 -15.201,18.205 -15.201,19.765 0,1.56 -5.398,7.154 -11.997,12.431 -6.599,5.279 -17.233,15.031 -23.628,21.674 -9.858,10.239 -19.182,15.532 -45.402,25.78 -3.02,1.18 -2.806,2.642 1.098,7.446 2.67,3.285 5.973,5.975 7.336,5.975 4.582,0 27.771,18.838 36.753,29.853 9.538,11.7 22.284,39.742 22.284,49.026 0,4.711 2.079,5.665 12.341,5.665 12.659,0 56.618,-8.557 87.973,-17.123 19.917,-5.438 83.269,-32.673 89.47,-38.459 4.319,-4.031 22.583,-13.865 25.753,-13.865 1.03,0 5.42,-2.811 9.76,-6.247 18.42,-14.614 26.23,0.438 10.55,20.336 -4.46,5.652 -8.11,11.428 -8.11,12.832 0,7.452 -27.6,31.475 -55.576,48.375 -8.947,5.401 -17.552,10.996 -19.119,12.43 -3.262,2.978 -48.165,20.973 -52.335,20.973 -4.902,0 -17.454,6.16 -15.955,7.83 0.8,0.89 9.204,3.602 18.675,6.023 31.74,8.111 68.612,23.319 82.29,33.945 7.456,5.788 24.71,23.011 38.34,38.271 21.34,23.893 24.59,28.857 23.4,35.756 -1.92,11.22 -10.5,10.45 -28.19,-2.527 -15.14,-11.109 -31.384,-17.936 -50.481,-21.221 -6.328,-1.09 -12.174,-3.179 -12.987,-4.644 -2.226,-4.012 -43.293,-18.08 -66.14,-22.657 -14.117,-2.827 -33.586,-3.548 -65.069,-2.41 -24.709,0.894 -45.32,2.056 -45.803,2.582 -0.482,0.525 1.302,5.498 3.964,11.051 5.759,12.008 6.317,40.644 1.131,58 -2.191,7.331 -10.005,18.717 -21.012,30.62 -9.641,10.423 -16.514,19.596 -15.278,20.387 1.239,0.788 8.961,3.774 17.162,6.634 41.015,14.303 93.195,42.196 111.813,59.766 3.08,2.905 7.138,5.284 9.017,5.284 1.882,0 7.155,6.76 11.723,15.028 4.566,8.264 13.277,19.037 19.356,23.944 6.081,4.906 14.385,13.43 18.455,18.94 4.069,5.514 12.046,15.46 17.723,22.103 5.677,6.642 13.09,18.192 16.471,25.665 3.38,7.473 8.144,17.663 10.581,22.645 2.44,4.982 4.441,10.756 4.452,12.833 0,2.074 2.53,6.573 5.599,9.991 6.983,7.78 6.173,23.158 -1.516,28.723 -4.609,3.333 -6.339,3.083 -11.536,-1.664 z m -7.399,-21.12 c -6.436,-11.597 -70.854,-42.821 -153.128,-74.223 -33.497,-12.784 -66.083,-25.716 -72.414,-28.739 -15.188,-7.249 -30.71,-10.45 -30.71,-6.329 0,1.746 1.294,4.068 2.872,5.152 1.58,1.087 2.494,5.362 2.033,9.496 -0.746,6.694 0.8,8.113 14.074,12.92 41.568,15.058 60.468,21.256 64.806,21.256 2.629,0 5.623,0.936 6.65,2.084 1.03,1.144 14.348,5.785 29.598,10.314 66.544,19.759 104.745,33.978 123.992,46.152 12.01,7.599 15.7,8.176 12.227,1.917 z m 1.25,-13.747 c -11.127,-14.934 -91.498,-57.173 -157.187,-82.614 -60.829,-23.558 -87.973,-33.552 -91.124,-33.552 -6.295,0 -6.55,9.167 -0.325,11.751 10.395,4.315 22.991,9.185 95.182,36.801 69.64,26.64 124.328,51.523 142.626,64.9 11.107,8.119 15.719,9.275 10.828,2.714 z m -10.782,-22.271 c 0,-6.404 -49.941,-38.362 -91.409,-58.496 -26.257,-12.748 -81.889,-37.036 -98.375,-42.951 -8.202,-2.941 -26.974,-10.661 -41.72,-17.156 -14.744,-6.495 -28.319,-11.404 -30.168,-10.912 -1.849,0.492 2.592,6.787 9.872,13.989 11.864,11.733 19.623,15.523 74.905,36.58 84.51,32.19 158.187,66.59 166.497,77.741 3.338,4.484 10.398,5.299 10.398,1.205 z m 2.711,-11.758 c 0,-3.735 -18.935,-22.857 -33.215,-33.54 -17.577,-13.152 -95.212,-54.959 -126.746,-68.254 -47.576,-20.058 -100.778,-40.732 -104.818,-40.732 -2.605,0 -3.703,2.38 -3.142,6.794 1.03,8.071 13.556,15.302 51.025,29.464 20.787,7.856 61.059,24.768 107.092,44.974 22.397,9.834 71.115,37.299 86.759,48.914 19.707,14.633 23.045,16.426 23.045,12.38 z m -46.091,-55.21 c -20.461,-19.539 -93.452,-60.79 -142.338,-80.446 -28.332,-11.39 -89.198,-30.119 -93.137,-28.658 -4.287,1.591 3.961,12.73 9.426,12.73 8.093,0 96.492,34.853 127.091,50.107 4.473,2.229 16.673,8.108 27.112,13.065 10.438,4.955 31.788,16.502 47.446,25.656 15.657,9.158 29.687,16.64 31.178,16.628 1.492,0 -1.559,-4.1 -6.778,-9.082 z m -206.051,1.999 c 0,-4.723 -26,-31.668 -36.723,-38.057 -9.863,-5.879 -14.101,-0.121 -7.8,10.574 4.064,6.912 4.205,8.557 0.93,10.973 -2.12,1.564 -7.423,2.113 -11.788,1.223 -11.669,-2.389 -6.545,1.527 14.1,10.776 20.5,9.185 41.281,11.456 41.281,4.511 z m -52.161,-28.959 c -3.538,-6.308 -5.251,-7.178 -21.041,-10.677 -5.219,-1.16 -13.76,-4.466 -18.979,-7.349 -8.673,-4.792 -37.956,-10.599 -37.956,-7.525 0,2.573 20.594,12.941 32.55,16.387 6.702,1.932 15.845,5.305 20.318,7.497 12.591,6.169 15.798,7.243 22.389,7.5 5.469,0.211 5.761,-0.411 2.719,-5.833 z m 53.669,-3.258 c 4.202,-7.576 -22.167,-29.868 -56.098,-47.42 -2.407,-1.244 -1.358,15.16 1.261,19.777 3.516,6.187 32.754,27.226 39.922,28.727 11.49,2.4 13.041,2.288 14.915,-1.084 z m 174.517,-1.51 c -18.556,-24.901 -125.45,-83.469 -170.602,-93.475 -12.675,-2.808 -26.096,-6.851 -29.824,-8.986 -9.795,-5.607 -40.635,-19.554 -43.241,-19.554 -1.22,0 -2.825,3.533 -3.565,7.854 -1.152,6.718 0.03,8.496 8.231,12.31 5.301,2.467 15.124,4.016 21.991,3.469 11.105,-0.885 12.767,-0.151 15.812,6.872 2.893,6.694 7.534,9.086 31.23,16.091 48.856,14.445 90.993,33.023 141.704,62.475 34.09,19.798 33,19.3 28.264,12.944 z M 663.7,-327.875 c 0,-8.464 -47.622,-36.774 -54.218,-32.233 -1.236,0.852 0.317,6.767 3.454,13.144 4.059,8.249 8.882,12.932 16.712,16.226 11.953,5.028 34.052,6.888 34.052,2.863 z m -56.319,-14.294 c 0.835,-0.93 -0.217,-5.535 -2.31,-10.233 -4.68,-10.453 -19.345,-14.505 -24.74,-6.836 -4.877,6.933 -4.289,8.965 4.067,14.013 7.491,4.526 20.149,6.208 22.983,3.056 z m -37.895,-16.049 c -0.374,-1.869 0.542,-3.396 2.034,-3.396 1.491,0 2.711,-1.942 2.711,-4.315 0,-2.832 -3.023,-4.348 -8.812,-4.415 -4.845,-0.06 -14.608,-0.969 -21.689,-2.029 -10.616,-1.588 -12.878,-1.096 -12.878,2.799 0,5.97 8.212,10.964 18.122,11.024 4.199,0 9.464,1.362 11.701,2.971 4.894,3.518 9.749,2.066 8.811,-2.639 z m 83.37,3.207 c 0,-5.948 -16.349,-18.802 -32.535,-25.58 -29.991,-12.558 -47.047,-17.398 -49.943,-14.174 -4.509,5.022 -16.915,3.27 -23.637,-3.336 -5.56,-5.465 -5.689,-6.009 -0.978,-4.14 13.675,5.423 17.932,5.236 19.366,-0.863 1.397,-5.955 1.548,-5.961 11.905,-0.387 5.77,3.104 13.697,5.644 17.615,5.644 6.58,0 6.995,-0.752 5.425,-9.814 -1.624,-9.384 -1.51,-9.55 2.614,-3.774 2.372,3.322 4.988,9.034 5.812,12.694 1.912,8.472 23.935,18.805 28.72,13.476 2.315,-2.579 1.602,-5.209 -2.836,-10.472 -6.859,-8.131 -7.621,-11.703 -1.987,-9.294 2.169,0.927 6.442,7.437 9.5,14.469 4.346,9.998 8.361,14.149 18.425,19.047 17.149,8.343 27.063,9.97 30.734,5.045 4.124,-5.534 -9.581,-19.103 -33.334,-33.005 -10.132,-5.927 -18.422,-12.745 -18.422,-15.145 0,-5.779 -5.187,-5.538 -11.2,0.525 -5.184,5.224 -18.624,3.687 -18.624,-2.129 0,-1.745 2.332,-2.343 5.195,-1.331 2.858,1.011 5.897,0.57 6.756,-0.978 0.86,-1.549 -3.917,-4.62 -10.617,-6.821 -6.699,-2.205 -12.178,-5.094 -12.178,-6.423 0,-1.331 3.353,-1.386 7.455,-0.12 10.886,3.351 31.209,2.853 32.326,-0.792 1.071,-3.502 -25.434,-13.466 -35.823,-13.466 -3.858,0 -6.67,1.754 -6.67,4.161 0,2.285 -1.849,5.866 -4.112,7.959 -2.262,2.089 -3.785,7.352 -3.389,11.691 0.783,8.533 1.304,8.424 -25.643,5.372 -10.446,-1.184 -18.368,-6.374 -18.368,-12.039 0,-2.119 1.133,-1.993 3.253,0.369 1.789,1.992 6.591,3.623 10.669,3.623 4.077,0 10.5,1.307 14.271,2.904 9.346,3.956 10.905,-0.474 3.742,-10.613 l -5.946,-8.418 6.247,1.818 c 9.372,2.729 13.854,-0.474 13.854,-9.907 0,-8.152 0.306,-8.346 8.096,-5.07 6.309,2.651 8.852,2.531 11.522,-0.549 2.779,-3.207 2.272,-4.828 -2.673,-8.563 -8.505,-6.429 -7.632,-8.705 3.335,-8.705 9.383,0 9.424,0.06 7.808,11.326 -1.521,10.592 -1.122,11.449 6.154,13.234 4.281,1.051 9.159,2.37 10.84,2.932 3.072,1.026 9.142,-4.077 9.142,-7.682 0,-1.063 -3.05,-3.481 -6.778,-5.371 -9.481,-4.81 -8.901,-10.357 0.659,-6.308 6.466,2.736 8.207,2.153 13.317,-4.463 4.84,-6.268 6.163,-6.781 7.497,-2.91 0.932,2.714 3.326,3.928 5.661,2.877 2.226,-1.002 6.016,-2.708 8.423,-3.789 3.419,-1.534 4.005,-0.652 2.674,4.025 -3.384,11.869 21.822,17.869 30.059,7.153 6.32,-8.219 10.234,-4.246 4.842,4.915 -2.435,4.143 -3.983,8.029 -3.438,8.636 2.844,3.17 33.494,6.217 44.247,4.399 24.265,-4.1 22.3,-15.447 -3.668,-21.154 -8.459,-1.857 -20.871,-5.305 -27.581,-7.657 -6.711,-2.352 -22.389,-5.526 -34.839,-7.05 -24.371,-2.99 -35.68,-8.636 -16.379,-8.177 6.632,0.151 11.829,-1.247 12.496,-3.379 1.646,-5.263 -16.92,-13.007 -27.139,-11.32 l -8.697,1.435 8.716,-4.52 c 6.426,-3.337 10.568,-3.738 15.766,-1.54 10.953,4.637 14.16,3.644 17.132,-5.318 2.673,-8.052 2.811,-8.101 4.579,-1.639 2.025,7.394 16.698,14.282 23.883,11.211 6.149,-2.627 5.647,-7.307 -0.781,-7.307 -8.925,0 -8.692,-5.196 0.326,-7.204 5.788,-1.29 9.985,-0.435 13.049,2.651 2.483,2.506 7.195,4.553 10.47,4.553 3.275,0 12.851,2.699 21.283,6 8.432,3.3 16.026,5.217 16.877,4.26 2.796,-3.146 -14.225,-15.924 -29.533,-22.169 -22.245,-9.076 -37.208,-10.984 -42.869,-5.465 -5.716,5.571 -27.804,9.439 -38.695,6.773 -6.729,-1.646 -7.748,-3.068 -6.417,-8.974 1.106,-4.909 0.08,-7.983 -3.392,-10.236 -4.549,-2.944 -4.432,-3.227 1.364,-3.312 4.587,-0.06 7.182,2.409 9.405,8.968 2.237,6.594 4.837,9.058 9.571,9.058 5.165,0 6.208,-1.241 5.081,-6.039 -1.568,-6.673 -0.681,-6.887 25.187,-6.099 19.637,0.598 39.583,7.189 55.254,18.255 14.621,10.327 15.237,10.511 15.237,4.569 0,-6.725 -9.218,-14.88 -28.891,-25.563 -22.744,-12.349 -50.439,-15.879 -61.468,-7.832 -4.615,3.367 -9.649,4.574 -14.003,3.357 -8.915,-2.491 -8.934,-8.982 0,-7.083 4.281,0.912 6.778,0.06 6.778,-2.298 0,-5.61 -7.123,-11.09 -12.979,-9.985 -5.078,0.957 -6,-0.121 -6,-7.011 0,-4.363 49.143,-1.715 60.701,3.27 4.306,1.857 8.386,2.76 9.064,2.005 2.391,-2.663 -15.384,-10.876 -23.539,-10.876 -4.549,0 -8.269,-1.359 -8.269,-3.02 0,-4.474 9.28,-3.668 21.76,1.894 10.452,4.658 11.222,4.619 14.722,-0.713 3.516,-5.354 3.95,-5.372 8.898,-0.387 2.863,2.884 6.249,5.245 7.526,5.245 3.053,0 14.874,12.419 14.874,15.623 0,1.37 -2.09,2.494 -4.647,2.494 -4.297,0 -4.314,0.371 -0.244,4.921 3.083,3.433 6.653,4.294 11.815,2.854 l 7.399,-2.069 -5.813,-4.535 c -3.196,-2.494 -5.812,-7.174 -5.812,-10.402 0,-6.772 1.03,-7.08 8.597,-2.572 3.039,1.814 9.364,3.801 14.055,4.42 4.69,0.619 11.88,2.014 15.982,3.098 4.739,1.25 7.456,0.74 7.456,-1.401 0,-1.857 -2.977,-3.373 -6.618,-3.373 -3.641,0 -7.423,-1.449 -8.405,-3.221 -2.952,-5.321 -0.03,-5.936 9.525,-2.011 7.255,2.983 9.291,2.962 10.232,-0.09 0.645,-2.104 2.922,-5.776 5.062,-8.158 3.378,-3.762 3.191,-4.747 -1.421,-7.494 -2.917,-1.74 -9.587,-3.165 -14.814,-3.165 -5.23,0 -10.262,-1.359 -11.184,-3.019 -0.987,-1.779 2.012,-3.038 7.296,-3.062 15.207,-0.06 21.172,-3.034 21.172,-10.526 0,-7.672 -5.968,-10.459 -22.528,-10.525 -6.626,0 -9.684,-1.199 -8.537,-3.267 0.984,-1.773 5.631,-2.887 10.327,-2.473 9.475,0.833 28.871,-6.078 28.871,-10.29 0,-1.525 -6.187,-1.722 -14.233,-0.453 -7.83,1.235 -21.861,2.143 -31.179,2.02 -9.321,-0.121 -16.945,1.032 -16.945,2.569 0,1.537 3.66,2.793 8.133,2.793 4.474,0 8.134,1.486 8.134,3.303 0,4.131 -26.77,0.571 -32.141,-4.275 -6.716,-6.057 -97.449,-5.598 -193.634,0.978 -50.388,3.448 -93.071,5.263 -94.852,4.037 -1.78,-1.226 -11.069,-3.868 -20.64,-5.87 -21.434,-4.486 -37.904,-0.564 -52.732,12.555 l -10.055,8.898 8.854,1.749 c 7.034,1.389 7.879,2.231 4.109,4.097 -2.609,1.292 -4.744,3.345 -4.744,4.565 0,4.234 25.817,17.836 36.601,19.285 13.981,1.878 18.23,3.859 34.571,16.106 7.425,5.565 16.409,10.93 19.965,11.924 3.556,0.993 6.466,3.789 6.466,6.214 0,3.031 1.691,3.807 5.422,2.488 3.913,-1.383 5.423,-0.544 5.423,3.019 0,3.457 1.527,4.396 5.101,3.134 3.205,-1.135 5.687,-0.121 6.675,2.763 0.904,2.621 3.352,3.81 5.744,2.787 2.686,-1.147 4.169,-0.06 4.169,3.071 0,5.709 5.671,6.386 10.303,1.229 2.53,-2.818 3.253,-2.467 3.253,1.585 0,2.862 2.821,6.401 6.269,7.862 9.324,3.947 20.67,5.118 20.041,2.072 -0.304,-1.471 2.107,-3.772 5.357,-5.109 7.868,-3.243 11.732,-27.528 5.623,-35.364 -5.493,-7.044 -7.794,-19.354 -4.641,-24.816 2.15,-3.732 3.004,-3.802 4.964,-0.42 1.816,3.137 3.665,3.312 7.955,0.755 9.359,-5.577 10.462,-3.524 2.166,4.034 -5.2,4.731 -7.272,8.817 -6.144,12.093 1.516,4.396 2.611,4.203 9.847,-1.758 10.818,-8.907 14.288,-4.426 4.037,5.215 l -8.028,7.551 9.49,-1.787 c 8.925,-1.682 9.174,-1.51 4.226,2.883 -2.895,2.57 -6.249,4.671 -7.455,4.671 -1.207,0 -2.194,2.766 -2.194,6.145 0,5.209 0.827,5.652 5.423,2.914 5.661,-3.376 7.374,-0.363 2.733,4.807 -1.776,1.977 -1.549,6.413 0.677,13.08 3.021,9.046 2.825,10.432 -1.908,13.46 -2.901,1.857 -10.832,8.908 -17.623,15.668 -15.24,15.17 -35.404,28.893 -57.712,39.277 -9.346,4.351 -19.128,10.024 -21.737,12.609 -10.538,10.429 -1.563,34.183 18.878,49.959 9.459,7.301 11.61,7.842 19.324,4.846 5.727,-2.225 9.813,-2.361 12.012,-0.401 1.832,1.63 6.078,3.904 9.432,5.048 5.038,1.721 6.1,0.933 6.1,-4.529 0,-5.368 0.724,-5.942 3.848,-3.056 3.042,2.812 4.424,2.413 6.596,-1.896 2.901,-5.752 3.27,-5.241 7.223,10.022 0.981,3.792 19.038,8.394 22.793,5.809 1.325,-0.915 1.702,-4.716 0.84,-8.451 -1.385,-5.988 -1.049,-6.314 2.86,-2.745 2.438,2.225 5.146,6.549 6.017,9.608 2.166,7.597 39.293,22.332 39.293,15.595 z m -133.527,-52.136 c -2.61,-1.694 -4.745,-5.215 -4.745,-7.827 0,-3.904 0.732,-4.073 4.118,-0.942 3.37,3.113 5.093,2.821 9.489,-1.609 5.181,-5.221 5.372,-5.202 5.372,0.489 0,5.559 -4.717,13.261 -7.998,13.059 -0.82,-0.06 -3.626,-1.476 -6.236,-3.17 z m 92.859,-75.042 c 0,-3.246 10.546,-7.579 12.674,-5.208 0.784,0.872 0.621,3.034 -0.363,4.803 -2.196,3.962 -12.311,4.294 -12.311,0.405 z m 29.823,-6.241 c 0,-1.661 3.123,-3.019 6.938,-3.019 3.934,0 6.214,1.307 5.262,3.019 -0.922,1.661 -4.042,3.019 -6.938,3.019 -2.895,0 -5.262,-1.358 -5.262,-3.019 z m -20.058,-14.596 c -0.873,-1.576 2.693,-3.421 7.925,-4.103 5.881,-0.764 9.159,0 8.581,1.938 -1.217,4.14 -14.445,5.876 -16.506,2.165 z m -74.314,-15.825 c 0.534,-1.784 2.13,-3.246 3.547,-3.246 1.418,0 3.012,1.462 3.546,3.246 0.534,1.785 -1.06,3.246 -3.546,3.246 -2.486,0 -4.082,-1.461 -3.547,-3.246 z m 80.816,0.438 c 0,-1.546 2.744,-3.249 6.1,-3.786 4.582,-0.731 5.929,-2.724 5.414,-8.014 -0.442,-4.523 0.529,-6.591 2.711,-5.791 4.791,1.757 5.957,14.674 1.6,17.748 -4.886,3.448 -15.825,3.34 -15.825,-0.151 z m -91.151,-31.77 c -2.854,-8.283 1.939,-11.543 7.39,-5.028 6.519,7.794 6.456,9.412 -0.372,9.412 -3.028,0 -6.187,-1.972 -7.018,-4.384 z m 88.44,2.874 c 0,-0.83 2.562,-4.363 5.693,-7.85 4.129,-4.599 6.51,-5.432 8.665,-3.032 2.156,2.401 1.524,4.532 -2.304,7.754 -5.157,4.345 -12.054,6.136 -12.054,3.128 z m 21.228,-3.774 c 1.342,-2.908 1.893,-6.984 1.226,-9.058 -0.67,-2.078 0.716,-3.775 3.077,-3.775 5.707,0 5.71,13.844 0,16.284 -6.434,2.751 -6.971,2.319 -4.305,-3.451 z m -88.331,0.272 c -3.57,-1.607 -4.622,-10.716 -1.621,-14.059 1.448,-1.615 9.077,10.897 9.077,14.892 0,1.474 -3.088,1.129 -7.456,-0.833 z m -3.389,-26.692 c 0,-2.491 1.22,-4.529 2.712,-4.529 1.491,0 2.711,2.038 2.711,4.529 0,2.491 -1.22,4.529 -2.711,4.529 -1.492,0 -2.712,-2.038 -2.712,-4.529 z m 235.875,-1.51 c 0,-1.66 2.44,-3.019 5.422,-3.019 2.983,0 5.423,1.359 5.423,3.019 0,1.661 -2.44,3.02 -5.423,3.02 -2.982,0 -5.422,-1.359 -5.422,-3.02 z m -31.857,-2.131 c -3.356,-0.719 -6.1,-2.73 -6.1,-4.469 0,-1.806 2.616,-2.382 6.1,-1.341 3.354,1 10.371,1.86 15.59,1.909 7.133,0.06 8.478,0.812 5.422,3.013 -4.14,2.98 -10.088,3.231 -21.012,0.888 z m -84.725,-3.908 c 0,-1.66 1.22,-3.019 2.711,-3.019 1.492,0 2.712,1.359 2.712,3.019 0,1.661 -1.22,3.02 -2.712,3.02 -1.491,0 -2.711,-1.359 -2.711,-3.02 z m -259.624,-12.05 c -7.2,-7.47 -7.49,-10.097 -1.813,-16.42 5.03,-5.601 20.38,-6.289 25.021,-1.12 12,13.364 -10.697,30.52 -23.208,17.54 z m 12.905,-12.679 c 0,-3.97 -6.162,-1.485 -7.513,3.029 -0.66,2.207 0.579,2.88 3.22,1.754 2.361,-1.011 4.293,-3.161 4.293,-4.783 z m 341.999,16.003 c -2.023,-1.428 -2.625,-3.321 -1.339,-4.206 3.616,-2.491 17.343,1.205 15.67,4.218 -1.876,3.385 -9.527,3.379 -14.331,0 z m -43.767,-3.351 c 0,-1.661 2.44,-3.02 5.422,-3.02 2.983,0 5.423,1.359 5.423,3.02 0,1.66 -2.44,3.019 -5.423,3.019 -2.982,0 -5.422,-1.359 -5.422,-3.019 z m 81.336,-6.039 c 0,-3.545 2.085,-3.545 9.489,0 4.804,2.301 4.574,2.618 -2.033,2.808 -4.102,0.121 -7.456,-1.147 -7.456,-2.808 z m -103.026,-3.019 c 0,-1.661 1.147,-3.02 2.552,-3.02 1.404,0 3.305,1.359 4.226,3.02 0.922,1.66 -0.216,3.019 -2.551,3.019 -2.323,0 -4.227,-1.359 -4.227,-3.019 z m 81.336,0 c 0,-1.661 1.757,-3.02 3.907,-3.02 2.15,0 4.661,1.359 5.583,3.02 0.921,1.66 -0.838,3.019 -3.907,3.019 -3.069,0 -5.583,-1.359 -5.583,-3.019 z m -39.285,-3.068 c 0.938,-1.688 2.839,-2.289 4.227,-1.332 3.76,2.588 3.061,4.4 -1.703,4.4 -2.323,0 -3.459,-1.38 -2.524,-3.068 z m -85.43,-9.01 c 0,-1.661 1.293,-3.02 2.871,-3.02 1.578,0 2.118,1.359 1.196,3.02 -0.922,1.661 -2.212,3.019 -2.871,3.019 -0.659,0 -1.196,-1.358 -1.196,-3.019 z m 65.069,0 c 0,-1.661 1.903,-3.02 4.227,-3.02 2.323,0 3.473,1.359 2.551,3.02 -0.922,1.661 -2.822,3.019 -4.227,3.019 -1.404,0 -2.551,-1.358 -2.551,-3.019 z m -41.991,211.9 c -2.153,-2.401 -6.816,3.046 -5.159,6.03 1.125,2.029 2.521,1.718 3.963,-0.876 1.223,-2.207 1.763,-4.526 1.196,-5.154 z m 57.445,-16.48 c 1.193,-2.123 5.219,-5.426 8.947,-7.343 6.474,-3.328 6.292,-3.497 -4.067,-3.751 -10.059,-0.241 -35.218,-5.721 -49.479,-10.767 -4.878,-1.724 -6.101,-0.996 -6.101,3.63 0,3.185 -1.423,7.373 -3.164,9.311 -3.755,4.182 -1.407,5.514 16.72,9.463 18.588,4.049 34.698,3.814 37.144,-0.543 z m -58.37,-16.233 c 7.372,-7.427 6.041,-10.966 -6.634,-17.648 -13.784,-7.268 -12.675,-7.214 -20.524,-1.024 -8.036,6.338 -5.91,15.985 4.452,20.206 10.929,4.451 17.186,4.028 22.706,-1.534 z m 96.557,-37.582 c 1.377,-8.077 -11.449,-18.718 -29.338,-24.334 -16.516,-5.187 -17.105,-5.172 -23.696,0.604 -3.719,3.255 -8.426,5.921 -10.462,5.921 -4.089,0 -4.663,2.778 -1.627,7.863 3.47,5.806 36.699,15.812 50.77,15.287 10.018,-0.374 13.743,-1.76 14.353,-5.341 z m -72.619,-13.174 c 0,-4.849 -8.042,-10.674 -14.733,-10.674 -4.205,0 -5.921,9.206 -2.437,13.083 3.603,4.016 17.17,2.111 17.17,-2.409 z m 327.94,-0.861 c 0,-2.907 -3.68,-9.943 -8.05,-15.64 -7.76,-10.094 -8.09,-10.218 -13.39,-4.88 -6.44,6.498 -5.56,8.627 7.54,18.192 12.08,8.814 14.05,9.143 13.9,2.328 z m -33.91,-26.622 c 3.67,-6.232 3.91,-8.629 1.22,-12.244 -5.846,-7.838 -13.264,-10.96 -17.263,-7.264 -1.995,1.845 -4.053,2.225 -4.571,0.839 -1.228,-3.282 -19.816,-18.871 -22.503,-18.871 -1.139,0 -1.277,3.526 -0.304,7.838 2.758,12.241 -2.554,16.839 -17.186,14.877 -10.433,-1.401 -11.368,-1.148 -5.74,1.552 10.01,4.801 33.739,5.248 34.227,0.643 0.767,-7.259 1.106,-7.506 5.143,-3.774 2.237,2.068 4.067,6.92 4.067,10.788 0,13.796 15.819,17.676 22.91,5.616 z M 791.127,-539.76 c -2.237,-1.61 -6.507,-2.926 -9.489,-2.926 -4.49,0 -4.723,0.501 -1.356,2.926 2.237,1.609 6.507,2.926 9.489,2.926 4.49,0 4.723,-0.502 1.356,-2.926 z m 159.961,-1.785 c 0,-11.552 -29.704,-27.35 -70.421,-37.45 -22.696,-5.631 -25.662,-5.791 -29.796,-1.627 -2.524,2.545 -6.702,4.629 -9.283,4.629 -2.579,0 -3.937,1.358 -3.015,3.019 0.922,1.661 6.612,3.02 12.65,3.02 14.12,0 61.688,9.644 56.7,11.495 -2.085,0.772 -13.743,-0.318 -25.909,-2.425 -16.972,-2.941 -23.495,-3.013 -28.036,-0.308 -7.947,4.737 -7.507,8.856 0.759,7.096 3.988,-0.849 8.432,0.534 11.04,3.439 2.706,3.013 9.18,4.924 17.045,5.033 6.979,0.09 17.566,1.153 23.531,2.349 13.548,2.721 44.735,3.925 44.735,1.73 z M 832.974,-554.13 c 4.376,-1.413 8.443,-4.191 9.037,-6.177 1.493,-4.991 -11.615,-4.638 -16.17,0.434 -1.998,2.226 -7.271,5.544 -11.718,7.374 l -8.085,3.327 9.49,-1.195 c 5.219,-0.659 13.07,-2.353 17.446,-3.763 z m -97.562,-0.326 c -8.448,-8.587 -50.022,-16.619 -50.022,-9.662 0,3.512 6.339,5.399 20.334,6.042 5.965,0.272 15.115,1.652 20.334,3.062 5.219,1.407 10.04,2.696 10.709,2.868 0.67,0.181 0.05,-0.869 -1.355,-2.31 z m 55.715,-1.558 c 0,-0.637 -2.443,-1.869 -5.425,-2.738 -2.985,-0.87 -4.745,-0.348 -3.907,1.156 1.458,2.63 9.332,3.965 9.332,1.582 z m -38.055,-9.088 c -5.3,-5.616 -16.169,-9.116 -16.169,-5.206 0,4.074 8.158,9.207 14.814,9.321 4.644,0.09 4.818,-0.447 1.355,-4.115 z m 90.923,-16.93 c 0.922,-1.661 -0.908,-3.02 -4.067,-3.02 -3.158,0 -4.988,1.359 -4.066,3.02 0.921,1.661 2.751,3.019 4.066,3.019 1.315,0 3.145,-1.358 4.067,-3.019 z m 33.286,-15.502 c 7.805,-4.209 10.798,-7.234 8.627,-8.729 -2.093,-1.443 0.08,-3.101 5.85,-4.487 20.966,-5.03 72.886,-35.572 72.886,-42.876 0,-5.456 -9.202,-4.852 -30.786,2.023 -20.209,6.435 -53.858,13.703 -78.099,16.867 -12.084,1.576 -15.641,3.258 -16.733,7.911 -1.592,6.781 4.614,10.791 9.749,6.298 1.844,-1.615 9.454,-3.095 16.91,-3.291 12.433,-0.329 13.125,0 8.35,4.061 -3.481,2.956 -8.491,3.832 -15.125,2.651 -9.905,-1.763 -9.921,-1.748 -9.707,9.098 0.109,5.972 0.217,10.849 0.217,10.833 0,0 6.654,-1.998 14.784,-4.408 17.073,-5.06 21.752,-3.964 6.41,1.498 -12.366,4.402 -17.669,8.995 -10.392,8.995 2.811,0 10.487,-2.899 17.061,-6.444 z m -40.064,0.405 c 0,-1.661 -0.537,-3.02 -1.195,-3.02 -0.659,0 -1.95,1.359 -2.872,3.02 -0.921,1.66 -0.382,3.019 1.196,3.019 1.578,0 2.871,-1.359 2.871,-3.019 z m 7.456,-11.32 c 1.394,-4.659 -5.913,-8.101 -11.829,-5.574 -3.598,1.537 -3.76,2.687 -0.927,6.492 3.909,5.245 11.067,4.731 12.756,-0.918 z m -59.118,-30.197 c -0.271,-3.968 -15.947,-16.323 -23.625,-18.609 -4.072,-1.214 -7.776,-4.354 -8.229,-6.975 -0.702,-4.052 0.933,-3.831 10.845,1.453 6.418,3.421 14.89,9.511 18.827,13.536 7.922,8.095 12.653,4.936 7.784,-5.194 -4.203,-8.747 -12.697,-14.058 -30.794,-19.249 -16.037,-4.601 -20.041,-6.763 -17.593,-9.49 0.74,-0.824 7.025,0.653 13.965,3.288 18.954,7.193 21.394,3.449 4.682,-7.189 -14.586,-9.284 -35.95,-14.517 -49.11,-12.032 -5.856,1.108 -5.233,1.926 5.655,7.419 10.856,5.474 22.587,16.054 17.802,16.054 -0.989,0 3.132,5.223 9.159,11.61 6.027,6.386 10.958,13.859 10.958,16.606 0,6.939 -4.693,6.272 -6.756,-0.963 -2.57,-9.025 -13.865,-17.537 -30.84,-23.243 -26.535,-8.923 -22.224,-13.385 5.062,-5.242 6.26,1.869 6.45,1.636 2.489,-3.041 -5.894,-6.962 -31.838,-14.339 -37.843,-10.761 -6.746,4.022 -8.747,12.129 -4.379,17.736 2.08,2.666 4.243,6.501 4.813,8.524 0.677,2.419 2.385,2.742 4.988,0.939 3.373,-2.331 3.17,-3.723 -1.355,-9.363 l -5.314,-6.625 6.778,2.286 c 9.18,3.098 9.02,2.796 9.86,18.684 0.862,16.266 3.584,18.977 19.125,19.041 13.014,0.06 17.227,-4.463 9.92,-10.629 -2.757,-2.328 -3.584,-4.275 -1.835,-4.327 1.751,-0.06 6.694,3.195 10.986,7.217 4.291,4.022 12.01,7.881 17.151,8.575 16.885,2.28 26.976,2.265 26.824,-0.03 z m -169.301,-6.794 c -7.491,-3.584 -12.2,-3.584 -12.2,0 0,1.661 3.966,2.923 8.811,2.808 7.386,-0.181 7.933,-0.634 3.389,-2.808 z m 21.766,-5.266 c -2.286,-10.139 -6.282,-15.761 -13.537,-19.034 -4.886,-2.207 -4.661,-2.512 1.976,-2.685 4.121,-0.09 9.753,1.383 12.518,3.307 2.765,1.923 7.323,2.5 10.132,1.286 4.801,-2.08 4.72,-2.56 -1.383,-8.101 -8.302,-7.543 -5.365,-11.178 3.69,-4.568 7.033,5.13 8.941,12.138 4.194,15.405 -3.749,2.581 14.996,22.727 20.879,22.437 2.839,-0.151 3.435,-0.867 1.445,-1.76 -1.865,-0.84 -3.389,-4.104 -3.389,-7.253 0,-3.651 -2.554,-6.443 -7.035,-7.697 -4.824,-1.349 -5.96,-2.708 -3.614,-4.32 1.878,-1.296 6.371,-1.105 9.98,0.422 10.115,4.285 6.319,-3.741 -4.726,-9.988 -9.644,-5.456 -9.869,-5.021 5.395,-10.441 3.254,-1.156 2.847,-2.554 -2.033,-6.99 -3.357,-3.047 -6.103,-6.003 -6.106,-6.567 0,-0.565 7.318,-0.568 16.267,0 16.11,1.011 19.32,-0.951 13.02,-7.968 -4.062,-4.524 -37.415,-4.922 -37.415,-0.45 0,4.091 -16.799,11.923 -25.575,11.923 -3.993,0 -7.957,2.476 -9.671,6.039 -1.596,3.322 -5.3,6.039 -8.228,6.039 -2.931,0 -5.328,1.277 -5.328,2.835 0,1.561 -4.573,2.579 -10.167,2.265 -16.378,-0.921 -14.575,5.293 2.034,7.011 17.623,1.821 21.689,4.191 21.689,12.645 0,6.625 6.965,14.24 13.171,14.4 2.671,0.06 3.17,-2.183 1.817,-8.189 z m 20.835,3.756 c 0.489,-3.623 -13.284,-9.502 -15.771,-6.73 -0.959,1.066 -0.989,4.128 -0.05,6.803 1.822,5.29 15.121,5.229 15.839,-0.06 z m 33.5,-1.848 c 2.044,-3.683 -4.045,-9.221 -7.513,-6.832 -1.19,0.818 -2.163,3.445 -2.163,5.839 0,5.124 6.987,5.843 9.676,0.993 z m -80.498,-5.41 c 4.847,-3.418 1.515,-9.348 -5.252,-9.348 -5.094,0 -7.141,5.96 -3.454,10.063 2.362,2.633 4.17,2.485 8.706,-0.715 z m 372.21,-4.173 c 8.73,-8.077 10.985,-18.099 4.413,-19.605 -2.548,-0.583 -10.478,1.896 -17.622,5.513 l -12.992,6.576 7.455,2.932 c 4.1,1.613 7.456,4.856 7.456,7.208 0,5.875 2.814,5.22 11.29,-2.624 z m 18.533,0.863 c 0,-1.66 -0.54,-3.019 -1.2,-3.019 -0.65,0 -1.945,1.359 -2.866,3.019 -0.922,1.661 -0.383,3.02 1.195,3.02 1.581,0 2.871,-1.359 2.871,-3.02 z m 7.94,-20.033 c 6.86,-9.723 7.22,-16.233 0.87,-16.103 -8.5,0.181 -13.812,7.035 -12.293,15.87 1.763,10.26 4.303,10.311 11.423,0.242 z m -410.553,-5.408 c 20.256,-0.743 22.831,-8.772 3.95,-12.323 -9.172,-1.727 -10.665,-2.986 -9.288,-7.826 1.974,-6.926 -3.915,-10.239 -13.459,-7.57 -4.091,1.145 -6.91,4.397 -7.45,8.597 -0.493,3.859 -3.156,7.246 -6.2,7.892 -4.675,0.994 -4.875,0.517 -1.633,-3.837 3.186,-4.273 2.994,-5.553 -1.361,-9.098 -4.641,-3.78 -4.053,-4.348 7.055,-6.793 14.716,-3.243 16.061,-10.118 2.904,-14.856 -5.07,-1.824 -7.955,-4.185 -6.412,-5.248 4.473,-3.08 19.322,4.01 21.041,10.049 1.901,6.667 8.465,9.858 15.302,7.44 6.355,-2.247 6.51,-9.167 0.296,-13.246 -4.137,-2.718 -4.224,-3.503 -0.678,-6.142 2.237,-1.667 6.507,-3.258 9.489,-3.536 2.983,-0.271 6.643,-0.821 8.134,-1.207 1.491,-0.387 3.777,-0.858 5.075,-1.051 1.302,-0.181 0.849,-2.386 -1.008,-4.877 -2.866,-3.843 -2.213,-4.529 4.316,-4.529 7.109,0 7.355,-0.371 3.272,-4.921 -4.086,-4.551 -5.411,-4.394 -17.528,2.077 -7.209,3.85 -14.7,9.463 -16.649,12.47 -1.947,3.011 -6.217,5.429 -9.489,5.375 -5.884,-0.09 -5.889,-0.151 -0.537,-4.647 4.37,-3.681 4.693,-5.046 1.673,-7.126 -2.682,-1.845 -1.147,-3.182 5.436,-4.734 9.925,-2.343 22.099,-12.857 19.762,-17.069 -0.795,-1.431 0.463,-3.418 2.795,-4.415 2.329,-0.996 4.237,-4.187 4.237,-7.095 0,-4.779 -1.29,-4.959 -13.537,-1.888 -8.521,2.138 -15.109,5.895 -17.777,10.137 -2.332,3.705 -6.244,6.739 -8.695,6.739 -3.465,0 -3.73,-0.806 -1.201,-3.623 4.956,-5.52 3.899,-10.84 -2.611,-13.14 -5.167,-1.826 -5.333,-2.404 -1.391,-4.86 2.782,-1.733 6.372,-1.656 9.492,0.205 8.421,5.02 35.72,-5.256 35.72,-13.446 0,-5.012 4.276,-5.875 6.778,-1.368 4.891,8.811 42.973,-4.252 45.652,-15.659 1.228,-5.229 0.39,-5.897 -5.84,-4.659 -4.002,0.795 -16.428,3.114 -27.611,5.153 -11.184,2.039 -22.945,4.235 -26.133,4.881 -3.37,0.681 -6.486,4.209 -7.435,8.415 -0.897,3.983 -3.646,8.103 -6.108,9.155 -5.84,2.496 -8.285,-0.371 -4.2,-4.921 4.544,-5.062 3.978,-11.424 -1.019,-11.424 -2.323,0 -3.443,-1.414 -2.483,-3.142 0.959,-1.728 3.912,-2.376 6.563,-1.439 5.74,2.029 29.97,-8.906 29.97,-13.526 0,-1.773 -2.746,-4.404 -6.1,-5.847 -4.794,-2.061 -7.432,-1.069 -12.309,4.627 -3.416,3.987 -8.204,7.249 -10.642,7.249 -3.595,0 -3.245,-1.404 1.863,-7.46 5.374,-6.368 5.764,-8.172 2.671,-12.322 -3.251,-4.362 -2.63,-4.654 6.051,-2.84 6.626,1.384 12.341,0.485 18.138,-2.853 11.211,-6.457 10.785,-11.444 -0.881,-10.324 -13.025,1.25 -14.765,-2.276 -2.4,-4.859 16.143,-3.373 34.547,-16.478 30.097,-21.432 -2.928,-3.26 -36.725,9.592 -53.6,20.381 -9.693,6.197 -21.589,13.613 -26.434,16.48 -11.436,6.764 -11.143,9.393 0.992,8.967 6.751,-0.239 10.758,1.354 12.878,5.111 2.573,4.566 1.63,6.907 -5.78,14.343 -8.212,8.243 -22.042,12.687 -18.257,5.866 0.922,-1.66 3.364,-3.019 5.428,-3.019 3.703,0 12.195,-11.077 12.195,-15.906 0,-1.366 -4.271,-1.592 -9.49,-0.501 -6.219,1.299 -9.489,0.826 -9.489,-1.373 0,-6.469 -4.316,-3.167 -25.793,19.727 -12.488,13.313 -20.218,23.643 -18.264,24.407 5.848,2.285 3.698,6.418 -3.858,7.414 -9.647,1.272 -11.746,8.504 -2.468,8.504 9.36,0 8.991,5.384 -0.452,6.594 -5.704,0.731 -7.456,2.573 -7.456,7.842 0,3.789 -1.83,8.228 -4.066,9.867 -3.527,2.588 -3.411,3.412 0.875,6.22 4.69,3.071 4.703,3.533 0.258,9.004 -4.508,5.547 -4.388,5.767 3.191,5.861 7.338,0.09 7.534,0.383 2.86,4.327 -6.54,5.519 -3.748,10.26 4.951,8.406 4.012,-0.855 6.843,-0.06 6.843,1.914 0,1.857 -1.22,3.373 -2.711,3.373 -1.491,0 -2.711,1.359 -2.711,3.019 0,1.661 2.549,3.02 5.665,3.02 3.116,0 7.841,2.992 10.5,6.648 3.483,4.789 7.581,6.562 14.668,6.338 6.901,-0.211 9.835,0.991 9.835,4.055 0,3.328 2.421,3.974 10.167,2.718 5.593,-0.909 8.643,-0.858 6.778,0.12 -7.299,3.802 -3.295,8.032 5.422,5.725 4.845,-1.283 13.692,-2.512 19.656,-2.729 z m -58.162,-21.532 c 2.99,-4.013 2.953,-5.257 -0.225,-7.443 -5.388,-3.707 -1.458,-6.929 5.468,-4.48 7.414,2.62 6.075,10.61 -2.357,14.076 -5.729,2.355 -6.061,2.108 -2.886,-2.153 z m -2.84,-37.845 c 0,-1.154 1.957,-2.935 4.348,-3.956 2.432,-1.041 3.679,-3.801 2.83,-6.265 -2.411,-6.999 3.081,-8.442 6.338,-1.667 4.118,8.569 19.737,8.757 18.512,0.212 -1.052,-7.325 3.427,-8.666 7.125,-2.135 1.906,3.364 1.794,5.915 -0.364,8.318 -3.443,3.835 -38.789,8.829 -38.789,5.484 z m 490.725,46.897 c 0,-4.447 -3.23,-5.785 -6.14,-2.545 -2.44,2.721 0.92,10.487 3.72,8.566 1.33,-0.918 2.42,-3.626 2.42,-6.021 z m -408.256,-3.164 c 2.359,-1.008 4.29,-3.08 4.29,-4.605 0,-3.946 -12.729,-8.822 -17.599,-6.742 -6.168,2.636 -4.907,9.566 2.009,11.048 3.354,0.722 6.306,1.495 6.556,1.721 0.244,0.212 2.386,-0.413 4.744,-1.422 z m 25.958,-4.127 c 3.22,-2.268 3.356,-3.612 0.677,-6.595 -5.718,-6.368 -3.755,-8.931 5.444,-7.108 9.639,1.912 26.584,-5.906 28.66,-13.225 0.982,-3.454 -2.369,-3.837 -18.815,-2.149 -16.368,1.678 -27.118,5.172 -39.985,12.995 -0.548,0.335 1.892,4.674 5.422,9.647 6.711,9.454 11.805,11.217 18.597,6.435 z m 90.846,-10.904 c -4.473,-2.201 -12.466,-4.061 -17.758,-4.136 -5.295,-0.09 -10.978,-1.643 -12.629,-3.482 -2.199,-2.448 -5.799,-2.309 -13.42,0.508 l -10.417,3.852 8.134,3.739 c 4.473,2.056 18.504,3.689 31.179,3.629 21.456,-0.09 22.484,-0.387 14.911,-4.11 z m -113.45,-14.97 c 2.161,-6.271 -0.217,-8.373 -6.856,-6.03 -3.36,1.187 -4.902,3.636 -3.98,6.314 1.99,5.779 8.808,5.601 10.836,-0.272 z m 35.579,-12.609 c 15.736,-5.526 19.54,-10.233 14.128,-17.494 -4.224,-5.668 -29.56,-6.257 -30.823,-0.716 -0.472,2.077 -2.158,8.192 -3.747,13.587 -3.487,11.858 -1.464,12.314 20.442,4.623 z m 75.16,-4.345 c 19.421,-6.157 30.832,-12.995 27.63,-16.558 -0.987,-1.099 -10.048,0.939 -20.136,4.535 -10.086,3.593 -29.11,8.841 -42.276,11.658 -15.326,3.282 -22.153,5.851 -18.978,7.144 7.569,3.079 32.624,-0.09 53.76,-6.779 z m -5.192,-13.092 c 32.996,-11.764 69.499,-30.975 71.226,-37.487 0.835,-3.139 -0.217,-3.62 -3.985,-1.833 -2.812,1.332 -13.044,5.442 -22.736,9.132 -9.693,3.69 -21.893,9.532 -27.112,12.98 -9.094,6.009 -43.672,15.671 -56.098,15.677 -6.547,0 -10.218,4.369 -7.616,9.061 2.983,5.375 16.113,3.24 46.321,-7.53 z m -2.166,-16.293 c 5.539,-3.146 19.279,-9.161 30.536,-13.368 11.257,-4.208 28.338,-11.837 37.957,-16.955 17.786,-9.462 43.198,-31.305 40.297,-34.636 -0.879,-1.007 -16.129,3.47 -33.89,9.949 -68.442,24.967 -80.661,28.748 -125.833,38.948 -7.041,1.59 -9.489,3.701 -9.489,8.181 0,3.322 -0.922,7.621 -2.049,9.557 -6.122,10.495 43.373,9.17 62.471,-1.676 z m -82.77,4.309 c 11.674,-5.432 14.019,-11.251 7.168,-17.784 -8.841,-8.431 -19.222,-5.795 -22.028,5.594 -0.819,3.322 -2.367,8.416 -3.444,11.323 -2.488,6.737 4.935,7.087 18.304,0.867 z m 54.883,-30.753 c 16.817,-4.616 80.563,-26.315 113.87,-38.762 36.834,-13.764 51.082,-20.126 74.843,-33.416 13.203,-7.386 25.143,-13.429 26.529,-13.429 3.814,0 24.699,-15.806 24.699,-18.693 0,-1.388 -4.577,-0.385 -10.167,2.23 -28.582,13.362 -47.121,20.986 -83.814,34.463 -22.124,8.126 -45.714,17.101 -52.424,19.944 -17.018,7.209 -42.593,15.293 -75.613,23.899 -15.66,4.081 -30.709,9.864 -33.89,13.022 -3.147,3.126 -9.689,7.426 -14.534,9.557 -4.848,2.131 -8.812,5.188 -8.812,6.793 0,3.286 14.38,1.235 39.313,-5.608 z m -45.161,-26.854 c 25.399,-9.851 46.516,-24.967 46.516,-33.297 0,-3.882 -18.691,-7.084 -28.888,-4.949 -3.215,0.673 -12.059,9.756 -19.656,20.184 -18.303,25.123 -18.214,25.914 2.028,18.062 z m 58.717,-1.413 c 21.448,-4.567 49.194,-13.317 75.913,-23.938 11.929,-4.743 35.72,-13.665 52.869,-19.828 53.429,-19.203 137.531,-60.963 159.46,-79.182 14.36,-11.927 8.31,-11.058 -13.367,1.921 -55.762,33.387 -192.881,88.907 -272.842,110.476 -16.777,4.525 -30.501,9.21 -30.501,10.41 0,4.024 3.636,6.288 7.938,4.941 2.343,-0.735 11.583,-2.894 20.53,-4.8 z m 33.89,-26.09 c 17.148,-5.684 39.719,-13.118 50.157,-16.519 42.707,-13.914 109.492,-43.535 174.872,-77.561 12.434,-6.471 39.773,-24.348 51.193,-33.482 7.39,-5.9 8.29,-7.72 4.92,-9.82 -2.91,-1.81 -12.09,2.53 -30.806,14.57 -14.665,9.44 -39.473,22.941 -55.13,30.005 -15.657,7.065 -35.788,16.822 -44.735,21.682 -21.443,11.648 -111.343,43.719 -149.598,53.368 -16.669,4.204 -30.884,7.643 -31.589,7.643 -1.228,0 -12.664,20.351 -12.664,22.536 0,1.561 8.785,-0.955 43.38,-12.422 z m -67.78,-17.918 c 22.172,-3.059 59.998,-22.665 71.605,-37.114 6.732,-8.382 4.227,-10.788 -7.011,-6.735 -4.959,1.788 -23.869,8.244 -42.029,14.345 -31.279,10.513 -33.38,11.723 -40.047,23.061 l -7.033,11.966 6.157,-1.92 c 3.386,-1.055 11.647,-2.677 18.358,-3.603 z m 69.832,-6.158 c 64.846,-19.45 88.621,-28.066 115.885,-42 7.456,-3.81 24.536,-11.349 37.957,-16.753 27.92,-11.243 86.194,-42.013 96.207,-50.793 3.701,-3.25 5.771,-6.99 4.601,-8.3 -1.18,-1.31 -2.99,-0.87 -4.03,0.98 -1.038,1.84 -7.987,5.44 -15.442,8 -7.456,2.55 -20.267,7.34 -28.468,10.65 -19.222,7.74 -76.459,24.262 -131.493,37.954 -63.385,15.77 -63.713,15.895 -63.713,24.277 0,8.964 -12.551,21.017 -31.702,30.451 -13.8,6.797 -18.9,13.457 -10.303,13.457 2.248,0 15.972,-3.565 30.501,-7.923 z"
         id="path879" />
    </g>
  </g>
</svg>
