<?xml version="1.0" encoding="UTF-8" standalone="no"?>
<svg
   xmlns:dc="http://purl.org/dc/elements/1.1/"
   xmlns:cc="http://creativecommons.org/ns#"
   xmlns:rdf="http://www.w3.org/1999/02/22-rdf-syntax-ns#"
   xmlns:svg="http://www.w3.org/2000/svg"
   xmlns="http://www.w3.org/2000/svg"
   version="1.1"
   id="svg3051"
   height="681.67108"
   width="569.06116">
  <defs
     id="defs3053" />
  <metadata
     id="metadata3056">
    <rdf:RDF>
      <cc:Work
         rdf:about="">
        <dc:format>image/svg+xml</dc:format>
        <dc:type
           rdf:resource="http://purl.org/dc/dcmitype/StillImage" />
        <dc:title></dc:title>
        <dc:creator>
          <cc:Agent>
            <dc:title>https://commons.wikimedia.org/wiki/User:SteveK</dc:title>
          </cc:Agent>
        </dc:creator>
      </cc:Work>
    </rdf:RDF>
  </metadata>
  <g
     transform="translate(-54.270655,-61.921532)"
     style="display:inline"
     id="layer4" />
  <g
     style="display:inline"
     transform="translate(-54.270655,-61.921532)"
     id="layer1">
    <g
       transform="matrix(-1,0,0,1,677.60246,0)"
       id="g969">
      <path
         style="display:inline;fill:#ffff00;fill-opacity:1;stroke:#808080;stroke-width:3.54331;stroke-linecap:butt;stroke-linejoin:miter;stroke-miterlimit:4;stroke-dasharray:none;stroke-opacity:1"
         d="m 534.29179,417.68522 1.84796,34.16215 c -3.77697,2.4292 -7.43984,5.00102 -10.68816,8.09104 l -16.48174,-18.82914 z"
         id="path3894" />
      <g
         id="attired">
        <path
           id="path3908"
           d="m 416.02284,371.83602 -31.99152,19.5508 c -17.15137,11.79264 -38.63242,18.04631 -51.4541,35.66043 -10.96961,15.06978 -54.653,29.74058 -65.55299,45.20219 -39.67404,15.7657 -72.94464,35.91381 -83.77124,55.83346 -2.07853,3.82424 -61.7834,26.76904 -90.597348,49.54521 l 24.873258,52.90105 80.80792,87.04511 c 53.97556,-57.90146 73.73423,-93.71932 94.54334,-110.9828 11.61823,-9.63862 31.52681,-29.11605 46.39226,-45.56817 16.35887,-18.10494 32.47602,-35.58019 46.36516,-58.9207 4.01573,-6.74838 13.18514,-13.40673 22.68814,-25.9885 7.42209,-9.82669 13.412,-22.26427 18.79309,-31.26297 l 37.65002,-47.44344 z"
           style="display:inline;fill:#00ff00;fill-opacity:1;stroke:#808080;stroke-width:3.54331;stroke-linecap:butt;stroke-linejoin:round;stroke-miterlimit:4;stroke-dasharray:none;stroke-opacity:1" />
      </g>
      <ellipse
         ry="8.8996849"
         rx="8.758419"
         cy="108.14801"
         cx="457.13303"
         transform="translate(-5.027508,-6.9154487)"
         id="path3876"
         style="display:inline;fill:#ffff00;fill-opacity:1;stroke:#808080;stroke-width:2.48031;stroke-linecap:round;stroke-linejoin:round;stroke-miterlimit:4;stroke-dasharray:none;stroke-opacity:1" />
      <ellipse
         ry="8.8996849"
         rx="8.758419"
         cy="108.14801"
         cx="457.13303"
         style="display:inline;fill:#ffff00;fill-opacity:1;stroke:#808080;stroke-width:2.48031;stroke-linecap:round;stroke-linejoin:round;stroke-miterlimit:4;stroke-dasharray:none;stroke-opacity:1"
         id="path3878"
         transform="translate(-0.648298,-18.852328)" />
      <ellipse
         ry="8.8996849"
         rx="8.758419"
         cy="108.14801"
         cx="457.13303"
         transform="translate(5.1435622,-25.209246)"
         id="path3880"
         style="display:inline;fill:#ffff00;fill-opacity:1;stroke:#808080;stroke-width:2.48031;stroke-linecap:round;stroke-linejoin:round;stroke-miterlimit:4;stroke-dasharray:none;stroke-opacity:1" />
      <ellipse
         ry="8.8996849"
         rx="8.758419"
         cy="108.14801"
         cx="457.13303"
         style="display:inline;fill:#ffff00;fill-opacity:1;stroke:#808080;stroke-width:2.48031;stroke-linecap:round;stroke-linejoin:round;stroke-miterlimit:4;stroke-dasharray:none;stroke-opacity:1"
         id="path3882"
         transform="translate(16.515382,-31.848693)" />
      <ellipse
         ry="8.8996849"
         rx="8.758419"
         cy="108.14801"
         cx="457.13303"
         style="display:inline;fill:#ffff00;fill-opacity:1;stroke:#808080;stroke-width:2.48031;stroke-linecap:round;stroke-linejoin:round;stroke-miterlimit:4;stroke-dasharray:none;stroke-opacity:1"
         id="path3874"
         transform="translate(28.664162,-36.086638)" />
      <path
         style="display:inline;fill:#ffff00;stroke:#808080;stroke-width:2.48031;stroke-linecap:butt;stroke-linejoin:miter;stroke-miterlimit:4;stroke-dasharray:none;stroke-opacity:1"
         d="m 489.89385,79.901574 13.42016,22.814276"
         id="path3884" />
      <path
         id="path3886"
         d="m 478.2395,83.503824 19.49455,20.907206"
         style="display:inline;fill:#ffff00;stroke:#808080;stroke-width:2.48031;stroke-linecap:butt;stroke-linejoin:miter;stroke-miterlimit:4;stroke-dasharray:none;stroke-opacity:1" />
      <path
         style="display:inline;fill:#ffff00;stroke:#808080;stroke-width:2.48031;stroke-linecap:butt;stroke-linejoin:miter;stroke-miterlimit:4;stroke-dasharray:none;stroke-opacity:1"
         d="M 469.19855,87.953664 496.5333,105.11735"
         id="path3888" />
      <path
         id="path3890"
         d="M 464.11302,93.180464 493.84927,106.7419"
         style="display:inline;fill:#ffff00;stroke:#808080;stroke-width:2.48031;stroke-linecap:butt;stroke-linejoin:miter;stroke-miterlimit:4;stroke-dasharray:none;stroke-opacity:1" />
      <path
         style="display:inline;fill:#ffff00;stroke:#808080;stroke-width:2.48031;stroke-linecap:butt;stroke-linejoin:miter;stroke-miterlimit:4;stroke-dasharray:none;stroke-opacity:1"
         d="m 460.01634,98.195364 33.83293,8.546536"
         id="path3892" />
      <path
         id="path3896"
         d="m 505.92322,440.06043 16.58163,22.97455 c -11.35933,-0.33215 -21.88691,-1.23307 -30.71597,-4.49502 z"
         style="display:inline;fill:#ffff00;fill-opacity:1;stroke:#808080;stroke-width:3.54331;stroke-linecap:butt;stroke-linejoin:miter;stroke-miterlimit:4;stroke-dasharray:none;stroke-opacity:1" />
      <g
         id="legged">
        <path
           style="display:inline;fill:#ff0000;fill-opacity:1;stroke:#808080;stroke-width:3.54331;stroke-linecap:butt;stroke-linejoin:round;stroke-miterlimit:4;stroke-dasharray:none;stroke-opacity:1"
           d="m 536.80408,452.81493 15.89306,14.49105 c 1.22295,1.11507 2.68553,0.47229 3.83307,-0.49664 l 42.93472,-36.25209 c -1.56709,-15.41485 3.69084,-26.17351 20.75613,-33.1191 1.18298,9.26852 -1.70191,17.59882 -9.94914,26.02958 l 3.30575,5.56007 c -4.43198,4.42368 -10.5272,8.33291 -13.28552,13.92815 l 0.40822,32.76599 c -3.44758,4.6315 -4.49969,7.50624 -6.39411,11.74501 -4.28778,-5.00568 -1.56061,-8.31339 -0.21313,-12.03194 l -0.85528,-28.05813 c -12.80628,11.47153 -26.28915,23.891 -40.02886,34.4291 -2.31674,1.77689 -4.37746,1.39462 -6.35685,0.008 -8.4939,-5.94937 -15.89568,-14.33067 -21.06661,-21.06514 -2.08639,-2.71726 9.93915,-8.91829 11.01855,-7.9341 z"
           id="path3898" />
        <path
           id="path3900"
           d="m 613.17912,423.3164 c 4.05238,-4.05453 6.30409,-8.84787 8.2993,-13.98522 0.9719,5.16772 1.0061,9.99824 0.6357,14.90344 -3.25421,0.48833 -5.86902,0.0993 -8.935,-0.91822 z"
           style="display:inline;fill:#ff0000;fill-opacity:1;stroke:#808080;stroke-width:2;stroke-linecap:butt;stroke-linejoin:round;stroke-opacity:1" />
        <path
           style="display:inline;fill:#ff0000;fill-opacity:1;stroke:#808080;stroke-width:2;stroke-linecap:butt;stroke-linejoin:round;stroke-opacity:1"
           d="m 604.15901,440.01915 6.00375,-6.92197 9.60601,0.21189 c 11.40665,-0.67094 -22.17089,14.89226 -15.60976,6.71008 z"
           id="path3902" />
        <path
           id="path3906"
           d="m 500.53643,586.39746 c 1.77474,1.79608 -0.44715,3.70472 -0.62637,6.88141 -7.17434,0.90453 -14.5769,0.42934 -22.02676,0.13108 -0.25378,-2.89644 0.15663,-4.95892 0.73073,-6.81588 6.1474,-0.34987 14.62275,-0.97532 21.9224,-0.19661 z"
           style="display:inline;fill:#ff0000;fill-opacity:1;stroke:#808080;stroke-width:4.14938;stroke-linecap:butt;stroke-linejoin:miter;stroke-miterlimit:4;stroke-dasharray:none;stroke-opacity:1" />
        <path
           id="path3904"
           d="m 465.518,476.86964 -8.79026,16.8813 -1.06806,88.42777 c -14.52468,3.03409 -25.34103,9.31031 -31.76896,16.90259 17.80517,-5.38238 25.77555,-7.73003 35.22787,-8.35643 14.35338,9.49835 32.765,19.38441 37.96798,14.85217 -4.09527,-5.15195 -9.17199,-8.56694 -15.03187,-11.2018 -0.23369,-4.40833 -1.82983,-5.39241 -4.30026,-7.37761 3.96073,-4.14273 13.78343,-4.0222 23.83218,-3.73728 -8.53433,-10.04039 -18.51923,-4.70337 -28.29794,-2.83327 -5.64672,-39.7154 -4.47015,-69.9004 4.26598,-90.97138 z"
           style="display:inline;fill:#ff0000;fill-opacity:1;stroke:#808080;stroke-width:3.54331;stroke-linecap:butt;stroke-linejoin:miter;stroke-miterlimit:4;stroke-dasharray:none;stroke-opacity:1" />
      </g>
      <path
         style="display:inline;fill:#ffff00;fill-opacity:1;stroke:#808080;stroke-width:1.77165;stroke-linecap:butt;stroke-linejoin:miter;stroke-miterlimit:4;stroke-dasharray:none;stroke-opacity:1"
         d="m 340.6064,443.55656 c -6.48324,-7.22097 1.11768,-18.99052 7.79136,-25.17211 10.306,-9.54607 17.21568,-12.67189 24.77256,-3.29635 7.98857,9.91113 1.94195,15.57375 -7.4917,23.67377 -8.17915,7.02286 -18.32112,12.31399 -25.07222,4.79469 z"
         id="path3910" />
      <path
         id="path3912"
         d="m 359.88504,464.33354 c -6.48324,-7.22097 1.37272,-16.93002 7.69147,-23.47399 9.50689,-9.84574 16.59699,-11.93433 23.07445,-5.29414 8.25421,8.46157 3.64006,16.0732 -5.79359,24.17322 -8.17915,7.02286 -18.22123,12.11421 -24.97233,4.59491 z"
         style="display:inline;fill:#ffff00;fill-opacity:1;stroke:#808080;stroke-width:1.77165;stroke-linecap:butt;stroke-linejoin:miter;stroke-miterlimit:4;stroke-dasharray:none;stroke-opacity:1" />
      <path
         style="display:inline;fill:#ffff00;fill-opacity:1;stroke:#808080;stroke-width:1.77165;stroke-linecap:butt;stroke-linejoin:miter;stroke-miterlimit:4;stroke-dasharray:none;stroke-opacity:1"
         d="m 379.9628,483.51229 c -6.43424,-7.26468 0.77338,-16.03102 7.09213,-22.57499 9.50689,-9.84574 14.61721,-10.5534 20.87688,-4.59491 7.02732,6.68919 4.53907,14.67474 -4.89458,22.77476 -8.17915,7.02286 -17.12245,11.11532 -23.07443,4.39514 z"
         id="path3914" />
      <path
         id="path3916"
         d="m 295.2039,476.59031 c -6.39662,-7.29783 0.33778,-16.48165 7.09213,-22.57499 9.80656,-8.84685 17.82062,-9.53322 23.474,-2.99668 7.42688,8.58709 3.54018,14.87452 -6.89236,21.77587 -8.99121,5.94787 -18.22124,10.01653 -23.67377,3.7958 z"
         style="display:inline;fill:#ffff00;fill-opacity:1;stroke:#808080;stroke-width:1.77165;stroke-linecap:butt;stroke-linejoin:miter;stroke-miterlimit:4;stroke-dasharray:none;stroke-opacity:1" />
      <path
         style="display:inline;fill:#ffff00;fill-opacity:1;stroke:#808080;stroke-width:1.77165;stroke-linecap:butt;stroke-linejoin:miter;stroke-miterlimit:4;stroke-dasharray:none;stroke-opacity:1"
         d="m 319.17734,502.26186 c -7.29562,-8.09694 0.23789,-17.38065 6.99224,-23.47399 9.80656,-8.84685 17.82062,-9.53322 23.474,-2.99668 7.42688,8.58709 3.04751,14.49385 -6.29302,22.77476 -9.87256,8.75258 -18.63597,9.84135 -24.17322,3.69591 z"
         id="path3918" />
      <path
         id="path3920"
         d="m 341.85222,527.63375 c -9.46894,-8.41212 -0.36145,-19.87788 8.39069,-27.96901 9.69808,-8.96563 17.66371,-9.39415 23.474,-2.99668 7.52677,8.28742 4.06088,15.87686 -4.89457,24.57277 -11.07123,10.75036 -19.03734,13.44033 -26.97012,6.39292 z"
         style="display:inline;fill:#ffff00;fill-opacity:1;stroke:#808080;stroke-width:1.77165;stroke-linecap:butt;stroke-linejoin:miter;stroke-miterlimit:4;stroke-dasharray:none;stroke-opacity:1" />
      <path
         style="display:inline;fill:#ffff00;fill-opacity:1;stroke:#808080;stroke-width:1.77165;stroke-linecap:butt;stroke-linejoin:miter;stroke-miterlimit:4;stroke-dasharray:none;stroke-opacity:1"
         d="m 236.66876,515.34737 c -8.90176,-9.41311 0.59676,-19.76996 7.25763,-25.96535 12.30379,-11.44397 21.99185,-14.80267 29.97218,-5.68071 9.75159,11.14661 1.55813,19.65272 -8.00534,27.90877 -9.41862,8.13101 -20.4239,13.04341 -29.22447,3.73729 z"
         id="path3922" />
      <path
         id="path3924"
         d="m 264.43799,542.31749 c -8.60209,-9.61289 1.33744,-21.42381 7.95686,-27.66347 11.50468,-10.84463 21.39852,-12.54945 28.67362,-4.48204 7.62007,8.44996 2.95658,19.25316 -6.60689,27.50921 -9.41862,8.13101 -21.48244,14.18108 -30.02359,4.6363 z"
         style="display:inline;fill:#ffff00;fill-opacity:1;stroke:#808080;stroke-width:1.77165;stroke-linecap:butt;stroke-linejoin:miter;stroke-miterlimit:4;stroke-dasharray:none;stroke-opacity:1" />
      <path
         style="display:inline;fill:#ffff00;fill-opacity:1;stroke:#808080;stroke-width:1.77165;stroke-linecap:butt;stroke-linejoin:miter;stroke-miterlimit:4;stroke-dasharray:none;stroke-opacity:1"
         d="m 291.70778,572.1844 c -8.60209,-9.61289 1.33744,-21.42381 7.95686,-27.66347 11.50468,-10.84463 21.39852,-12.54945 28.67362,-4.48204 7.62007,8.44996 2.95658,19.25316 -6.60689,27.50921 -9.41862,8.13101 -21.48244,14.18108 -30.02359,4.6363 z"
         id="path3926" />
      <path
         id="path3928"
         d="m 249.55449,614.2378 c -8.60209,-9.61289 0.63821,-21.22403 9.05564,-28.66236 11.8473,-10.46925 20.61843,-12.56656 28.77351,-4.18237 9.41409,9.67857 2.93443,19.91298 -6.507,28.30832 -9.81818,8.73035 -22.781,14.08119 -31.32215,4.53641 z"
         style="display:inline;fill:#ffff00;fill-opacity:1;stroke:#808080;stroke-width:1.77165;stroke-linecap:butt;stroke-linejoin:miter;stroke-miterlimit:4;stroke-dasharray:none;stroke-opacity:1" />
      <path
         style="display:inline;fill:#ffff00;fill-opacity:1;stroke:#808080;stroke-width:1.77165;stroke-linecap:butt;stroke-linejoin:miter;stroke-miterlimit:4;stroke-dasharray:none;stroke-opacity:1"
         d="m 216.79079,585.46967 c -8.60209,-9.61289 -1.48076,-21.01213 7.92552,-29.79248 11.55746,-10.78837 23.22401,-14.95251 32.2345,-5.38312 10.59562,11.25284 0.60356,22.24385 -8.83787,30.63919 -9.81818,8.73035 -22.781,14.08119 -31.32215,4.53641 z"
         id="path3930" />
      <path
         id="path3932"
         d="m 187.39321,550.21168 c -8.95601,-9.28404 -2.75214,-18.75189 6.65414,-27.53224 11.55746,-10.78837 21.95262,-15.65883 30.96311,-6.08944 10.59562,11.25284 0.60356,21.67879 -8.83787,29.65033 -10.03871,8.47584 -20.66202,12.38601 -28.77938,3.97135 z"
         style="display:inline;fill:#ffff00;fill-opacity:1;stroke:#808080;stroke-width:1.77165;stroke-linecap:butt;stroke-linejoin:miter;stroke-miterlimit:4;stroke-dasharray:none;stroke-opacity:1" />
      <path
         style="display:inline;fill:#ffff00;fill-opacity:1;stroke:#808080;stroke-width:1.77165;stroke-linecap:butt;stroke-linejoin:miter;stroke-miterlimit:4;stroke-dasharray:none;stroke-opacity:1"
         d="m 138.51559,584.53904 c -8.95601,-9.28404 -2.75214,-18.75189 6.65414,-27.53224 11.55745,-10.78837 21.95261,-15.65883 30.9631,-6.08944 10.59562,11.25284 0.60356,21.67879 -8.83787,29.65033 -10.03871,8.47584 -20.66201,12.38601 -28.77937,3.97135 z"
         id="path3934" />
      <path
         id="path3936"
         d="m 169.04378,624.45139 c -9.91346,-9.98967 -2.87093,-20.89005 6.53535,-29.6704 11.55746,-10.78837 24.59021,-16.63803 33.69521,-7.15852 13.09014,13.62857 0.72234,24.64846 -8.71909,32.62 -10.03871,8.47584 -21.73756,14.05798 -31.51147,4.20892 z"
         style="display:inline;fill:#ffff00;fill-opacity:1;stroke:#808080;stroke-width:1.77165;stroke-linecap:butt;stroke-linejoin:miter;stroke-miterlimit:4;stroke-dasharray:none;stroke-opacity:1" />
      <path
         style="display:inline;fill:#ffff00;fill-opacity:1;stroke:#808080;stroke-width:1.77165;stroke-linecap:butt;stroke-linejoin:miter;stroke-miterlimit:4;stroke-dasharray:none;stroke-opacity:1"
         d="m 211.53678,653.61698 c -7.75977,-7.62909 -3.70244,-17.80159 5.70384,-26.58194 11.55746,-10.78837 22.0758,-15.1794 30.13161,-6.4458 11.33933,12.2934 1.0787,21.32243 -8.36273,29.29397 -10.03871,8.47584 -19.13532,11.93078 -27.47272,3.73377 z"
         id="path3938" />
      <path
         id="path3940"
         d="m 137.17627,735.81742 c -17.62245,-14.48384 -7.15135,-32.99335 7.60443,-52.9526 20.72985,-28.04004 40.67555,-30.73359 54.60167,-19.51235 19.35472,15.59544 7.33982,42.62374 -9.7017,61.12883 -11.31857,12.29063 -33.12174,27.26668 -52.5044,11.33612 z"
         style="display:inline;fill:#ffff00;fill-opacity:1;stroke:#808080;stroke-width:1.77165;stroke-linecap:butt;stroke-linejoin:miter;stroke-miterlimit:4;stroke-dasharray:none;stroke-opacity:1" />
      <path
         style="display:inline;fill:#ffff00;fill-opacity:1;stroke:#808080;stroke-width:1.77165;stroke-linecap:butt;stroke-linejoin:miter;stroke-miterlimit:4;stroke-dasharray:none;stroke-opacity:1"
         d="m 93.937886,691.1536 c -14.467274,-13.95785 -5.749154,-27.97356 10.455314,-46.77569 22.63045,-26.25824 42.0332,-27.48181 51.98836,-16.78025 16.14807,17.35877 10.09297,31.09522 -12.315,52.3386 -13.51832,12.81574 -34.0159,26.76276 -50.128674,11.21734 z"
         id="path3942" />
      <path
         id="path3944"
         d="m 61.390302,641.50073 c -12.21547,-15.96577 -5.40809,-27.20075 10.79129,-44.25584 22.907524,-24.11759 44.086358,-25.04349 54.676218,-12.7485 15.47236,17.96366 9.98013,33.77018 -13.65893,48.64283 -15.841934,9.96704 -41.071478,22.39502 -51.808578,8.36151 z"
         style="display:inline;fill:#ffff00;fill-opacity:1;stroke:#000000;stroke-width:1.77165;stroke-linecap:butt;stroke-linejoin:miter;stroke-miterlimit:4;stroke-dasharray:none;stroke-opacity:1" />
      <path
         style="display:inline;fill:#808080;stroke:#b3b3b3;stroke-width:1.77165;stroke-linecap:butt;stroke-linejoin:miter;stroke-miterlimit:4;stroke-dasharray:none;stroke-opacity:1"
         d="m 364.01476,409.4352 c -3.70674,-0.1068 -7.66154,2.13451 -12.28125,6 -2.02977,5.89042 -2.043,12.42453 1.8125,16.71875 3.67941,4.09809 9.21478,5.22938 14.8125,4.28125 7.80064,-6.9218 12.00981,-12.41431 4.8125,-21.34375 -3.06998,-3.80881 -6.02879,-5.56614 -9.15625,-5.65625 z"
         id="path3946" />
      <path
         style="display:inline;fill:#808080;stroke:#b3b3b3;stroke-width:1.77165;stroke-linecap:butt;stroke-linejoin:miter;stroke-miterlimit:4;stroke-dasharray:none;stroke-opacity:1"
         d="m 383.01476,431.71645 c -4.14018,-0.13257 -8.72317,2.52217 -14.0625,7.75 -1.35187,5.01587 -0.97127,10.23104 2.46875,14.0625 4.19112,4.66802 10.50189,5.19167 16.65625,3.25 7.13682,-7.02082 9.80598,-13.7933 2.5625,-21.21875 -2.42905,-2.49007 -4.92851,-3.75741 -7.625,-3.84375 z"
         id="path3951" />
      <path
         style="display:inline;fill:#808080;stroke:#b3b3b3;stroke-width:1.77165;stroke-linecap:butt;stroke-linejoin:miter;stroke-miterlimit:4;stroke-dasharray:none;stroke-opacity:1"
         d="m 399.92101,452.5602 c -3.193,0.17571 -6.71871,2.32533 -11.28125,6.78125 -1.63403,4.82069 -1.52788,9.86055 2,13.84375 3.42919,3.87178 8.57648,5.35664 13.875,4.59375 8.19428,-7.6426 10.04987,-15.11355 3.40625,-21.4375 -2.73861,-2.60684 -5.23696,-3.9333 -8,-3.78125 z"
         id="path3956" />
      <path
         style="display:inline;fill:#808080;stroke:#b3b3b3;stroke-width:1.77165;stroke-linecap:butt;stroke-linejoin:miter;stroke-miterlimit:4;stroke-dasharray:none;stroke-opacity:1"
         d="m 317.04601,446.65395 c -3.51312,-0.0171 -7.48633,1.64032 -11.84375,4.96875 -1.85279,6.01166 -1.968,12.33786 1.40625,16.1875 2.89079,3.29807 7.61254,4.82252 12.75,4.65625 10.06985,-6.7763 13.71799,-12.98354 6.40625,-21.4375 -2.47335,-2.85974 -5.38928,-4.3588 -8.71875,-4.375 z"
         id="path3961" />
      <path
         style="display:inline;fill:#808080;stroke:#b3b3b3;stroke-width:1.77165;stroke-linecap:butt;stroke-linejoin:miter;stroke-miterlimit:4;stroke-dasharray:none;stroke-opacity:1"
         d="m 340.92101,471.4352 c -3.41405,-0.0166 -7.25586,1.51583 -11.46875,4.65625 -2.47825,5.21513 -3.00792,10.9722 1.15625,15.59375 3.68376,4.08837 9.78693,5.54339 16.375,3.5 6.69936,-6.6213 9.03368,-12.03255 2.65625,-19.40625 -2.47335,-2.85974 -5.38928,-4.32755 -8.71875,-4.34375 z"
         id="path3966" />
      <path
         style="display:inline;fill:#808080;stroke:#b3b3b3;stroke-width:1.77165;stroke-linecap:butt;stroke-linejoin:miter;stroke-miterlimit:4;stroke-dasharray:none;stroke-opacity:1"
         d="m 364.88976,492.34145 c -3.69485,-0.0472 -7.86329,1.69172 -12.4375,5.40625 -2.90785,6.73892 -3.35161,13.75949 1.84375,18.375 5.90707,5.24779 11.81889,5.07709 19.03125,0.21875 5.36064,-6.73218 6.45305,-12.99521 0.375,-19.6875 -2.542,-2.79889 -5.48082,-4.26997 -8.8125,-4.3125 z"
         id="path3971" />
      <path
         style="display:inline;fill:#808080;stroke:#b3b3b3;stroke-width:1.77165;stroke-linecap:butt;stroke-linejoin:miter;stroke-miterlimit:4;stroke-dasharray:none;stroke-opacity:1"
         d="m 263.26476,478.46645 c -4.60235,0.14176 -9.69886,2.79116 -15.375,7.4375 -2.14819,6.0681 -2.32297,12.66075 2.3125,17.5625 5.63221,5.95575 13.79761,5.82524 21.40625,2.84375 6.49321,-6.67486 9.9667,-13.80886 2.28125,-22.59375 -3.24201,-3.7058 -6.75843,-5.3691 -10.625,-5.25 z"
         id="path3976" />
      <path
         style="display:inline;fill:#808080;stroke:#b3b3b3;stroke-width:1.77165;stroke-linecap:butt;stroke-linejoin:miter;stroke-miterlimit:4;stroke-dasharray:none;stroke-opacity:1"
         d="m 290.98351,505.1227 c -4.61563,-0.11586 -9.78175,2.1925 -15.375,6.75 -1.9864,6.22613 -1.99759,13.03274 2.53125,18.09375 5.20124,5.81241 12.6294,6.50987 19.78125,4.34375 7.09149,-7.68334 9.78082,-16.77896 3.15625,-24.125 -2.95551,-3.27739 -6.34143,-4.96831 -10.09375,-5.0625 z"
         id="path3981" />
      <path
         style="display:inline;fill:#808080;stroke:#b3b3b3;stroke-width:1.77165;stroke-linecap:butt;stroke-linejoin:miter;stroke-miterlimit:4;stroke-dasharray:none;stroke-opacity:1"
         d="m 317.35851,534.9977 c -4.52844,0.175 -9.56865,2.58894 -15,7.125 -1.57635,6.27832 -1.16104,13.1497 3.375,18.21875 5.20764,5.81956 12.44818,6.24587 19.4375,3.875 7.11515,-7.69044 9.79064,-16.83057 3.15625,-24.1875 -3.18286,-3.52949 -6.86781,-5.18973 -10.96875,-5.03125 z"
         id="path3986" />
      <path
         style="display:inline;fill:#808080;stroke:#b3b3b3;stroke-width:1.77165;stroke-linecap:butt;stroke-linejoin:miter;stroke-miterlimit:4;stroke-dasharray:none;stroke-opacity:1"
         d="m 214.29601,511.46645 c -4.88412,0.0303 -10.08551,2.73682 -15.5625,7.125 -2.98173,6.2947 -2.79818,12.93267 2.84375,18.78125 5.55048,5.75377 13.06624,6.33075 20.46875,3.4375 6.85879,-7.03781 11.30646,-15.36387 2.96875,-24.21875 -3.37893,-3.58852 -6.9621,-5.14829 -10.71875,-5.125 z"
         id="path3991" />
      <path
         style="display:inline;fill:#808080;stroke:#b3b3b3;stroke-width:1.77165;stroke-linecap:butt;stroke-linejoin:miter;stroke-miterlimit:4;stroke-dasharray:none;stroke-opacity:1"
         d="m 245.82726,544.9352 c -5.15329,-0.1306 -10.68107,2.38242 -16.28125,6.65625 -2.82326,6.79456 -2.57099,14.11259 2.78125,20.09375 5.05726,5.65151 12.78139,6.8018 20.28125,5 7.61207,-7.69483 13.23475,-16.96376 4.34375,-26.40625 -3.37893,-3.58852 -7.14487,-5.24288 -11.125,-5.34375 z"
         id="path3996" />
      <path
         style="display:inline;fill:#808080;stroke:#b3b3b3;stroke-width:1.77165;stroke-linecap:butt;stroke-linejoin:miter;stroke-miterlimit:4;stroke-dasharray:none;stroke-opacity:1"
         d="m 276.10851,576.21645 c -4.33135,0.18117 -9.02801,2.55299 -14.375,6.78125 -2.36998,6.44306 -2.4571,13.37214 2.1875,18.5625 5.0782,5.67491 12.55554,7.04755 19.84375,5.40625 7.75015,-7.8302 12.04163,-16.90941 3.625,-25.5625 -3.56785,-3.66808 -7.27156,-5.35521 -11.28125,-5.1875 z"
         id="path4001" />
      <path
         style="display:inline;fill:#808080;stroke:#b3b3b3;stroke-width:1.77165;stroke-linecap:butt;stroke-linejoin:miter;stroke-miterlimit:4;stroke-dasharray:none;stroke-opacity:1"
         d="m 165.42101,545.77895 c -4.54074,0.0281 -9.35151,2.39517 -14.40624,6.25 -3.80407,6.73068 -3.83692,13.90202 2.4375,20.40625 5.73283,5.9428 13.28602,5.44726 20.74999,1.65625 6.25954,-6.8083 9.85883,-14.77483 1.9375,-23.1875 -3.37893,-3.58852 -6.9621,-5.14829 -10.71875,-5.125 z"
         id="path4006" />
      <path
         style="display:inline;fill:#808080;stroke:#b3b3b3;stroke-width:1.77165;stroke-linecap:butt;stroke-linejoin:miter;stroke-miterlimit:4;stroke-dasharray:none;stroke-opacity:1"
         d="m 197.67101,582.8727 c -4.74202,0.2336 -9.83115,2.50299 -14.84375,6 -4.04392,7.3473 -4.73615,15.58755 1.9375,22.3125 5.91016,5.95561 13.63887,6.64766 21.0625,4.40625 7.82631,-7.41677 14.14619,-16.81958 3.4375,-27.96875 -3.41438,-3.55482 -7.35962,-4.95858 -11.59375,-4.75 z"
         id="path4011" />
      <path
         style="display:inline;fill:#808080;stroke:#b3b3b3;stroke-width:1.77165;stroke-linecap:butt;stroke-linejoin:miter;stroke-miterlimit:4;stroke-dasharray:none;stroke-opacity:1"
         d="m 237.35851,615.9352 c -4.44365,0.075 -9.32146,2.40489 -14.4375,6.28125 -2.51935,7.13388 -1.98925,14.65411 2.8125,19.375 5.3026,5.21331 11.87485,5.99678 18.53125,3.6875 7.28037,-6.86212 12.30696,-14.69911 3.09375,-24.6875 -3.02093,-3.2751 -6.36155,-4.71769 -10,-4.65625 z"
         id="path4016" />
      <path
         style="display:inline;fill:#808080;stroke:#b3b3b3;stroke-width:1.77165;stroke-linecap:butt;stroke-linejoin:miter;stroke-miterlimit:4;stroke-dasharray:none;stroke-opacity:1"
         d="m 109.29602,576.71645 c -9.2791,0.0484 -20.474898,4.84358 -32.312508,15.78125 -6.48131,12.26756 -7.20537,24.75877 1.15625,35.6875 5.69809,7.44747 15.11582,10.77599 25.062508,10.75 0.0105,-3e-5 0.0208,3e-5 0.0312,0 3.5538,-1.88575 6.9356,-3.87293 9.96875,-5.78125 23.63906,-14.87265 29.12861,-30.69259 13.65625,-48.65625 -4.30213,-4.99484 -10.35924,-7.81885 -17.5625,-7.78125 z"
         id="path4021" />
      <path
         style="display:inline;fill:#808080;stroke:#b3b3b3;stroke-width:1.77165;stroke-linecap:butt;stroke-linejoin:miter;stroke-miterlimit:4;stroke-dasharray:none;stroke-opacity:1"
         d="m 141.51477,621.27895 c -7.5609,0.0401 -16.68143,3.75094 -26.71875,12.5 -4.20933,12.13727 -3.11533,23.88434 5.75,32.4375 8.75783,8.44946 20.47039,9.00881 31.5,5.71875 15.63941,-16.90307 18.36875,-29.26722 4.34374,-44.34375 -3.73318,-4.01309 -8.81267,-6.34468 -14.87499,-6.3125 z"
         id="path4026" />
      <path
         style="display:inline;fill:#808080;stroke:#b3b3b3;stroke-width:1.77165;stroke-linecap:butt;stroke-linejoin:miter;stroke-miterlimit:4;stroke-dasharray:none;stroke-opacity:1"
         d="m 183.10851,657.1852 c -8.15369,-0.14208 -17.22475,3.61688 -26.6875,12.4375 -3.05587,13.39032 -1.87141,26.23302 7.3125,33.78125 12.46575,10.24556 27.51175,7.96881 39.6875,1.78125 7.75939,-15.02688 9.25668,-31.13674 -4.03125,-41.84375 -4.7871,-3.8573 -10.28421,-6.05175 -16.28125,-6.15625 z"
         id="path4031" />
      <path
         id="Pfau-Koerper"
         d="m 527.92406,109.73012 c -32.26515,-19.926256 -68.39844,2.49658 -20.02714,73.91887 19.20159,28.35196 24.47525,55.24347 16.71775,72.70884 -11.27096,25.37565 -25.8601,29.07659 -53.06798,43.058 l 7.28728,6.28745 c -13.60565,4.14834 -23.52299,10.14084 -31.75043,16.97828 l 3.81886,3.21524 c -15.36456,9.77035 -28.42038,19.79722 -37.72278,30.24115 l 4.95954,5.1344 c -9.24757,-3.51459 -31.4515,20.33911 -33.78316,33.74435 9.8743,9.53085 23.32932,4.14207 37.18887,-2.93228 l -19.61636,20.6375 c 12.25517,6.16665 26.89572,1.08798 43.87212,-15.00257 -5.18052,12.46455 -11.53586,24.3417 -24.71353,32.80767 l 10.19581,3.94575 c -7.962,11.33933 -8.0661,23.34742 15.48314,37.36856 l 7.40071,20.8124 c 4.14967,-8.8567 7.07359,-18.93915 9.20201,-29.81711 4.16013,9.65833 7.64028,22.37246 16.5102,20.58293 6.33512,-25.15911 44.43193,-55.69457 70.65634,-79.58609 8.04096,-7.32566 17.64379,-13.08716 25.02683,-20.30872 49.27142,-48.19381 24.40264,-129.35622 -18.32805,-182.02376 -24.45845,-30.14616 -39.18099,-61.66153 -28.35428,-69.80562 z"
         style="display:inline;fill:#ffff00;fill-opacity:1;stroke:#808080;stroke-width:3.54331;stroke-linecap:butt;stroke-linejoin:miter;stroke-miterlimit:4;stroke-dasharray:none;stroke-opacity:1" />
      <path
         style="display:inline;fill:none;stroke:#808080;stroke-width:1.77165;stroke-linecap:round;stroke-linejoin:miter;stroke-miterlimit:4;stroke-dasharray:none;stroke-opacity:1"
         d="m 542.20974,294.05419 c -4.18256,38.59199 -11.77778,72.15977 -28.04644,92.95832 -0.98025,-5.59923 -2.14895,-11.735 -4.07483,-17.33423 -7.56868,22.88622 -21.79047,37.03978 -42.22549,47.77446 4.16295,-6.6833 5.86823,-10.76676 7.14059,-17.39035 -15.24085,17.16568 -28.14151,23.86416 -42.30965,22.22395"
         id="path3863" />
      <g
         id="beaked">
        <path
           id="path3865"
           d="m 527.6475,109.82627 c 27.36126,6.12618 49.50669,8.63805 52.22231,25.17223 -6.7709,-2.18008 -18.99245,-6.06989 -51.07781,-3.17053 -4.14853,-6.82135 -3.76616,-13.84477 -1.1445,-22.0017 z"
           style="display:inline;fill:#0000ff;fill-opacity:1;stroke:#808080;stroke-width:3.54331;stroke-linecap:butt;stroke-linejoin:miter;stroke-miterlimit:4;stroke-dasharray:none;stroke-opacity:1" />
      </g>
      <path
         style="display:inline;fill:#f2f2f2;stroke:#808080;stroke-width:3.54331;stroke-linecap:butt;stroke-linejoin:round;stroke-miterlimit:4;stroke-dasharray:none;stroke-opacity:1"
         d="m 505.97317,120.46453 c -3.57406,0.13944 -5.68007,2.06203 -6.99225,4.2453 -3.53108,5.87518 1.80608,7.49223 6.19314,7.34187 5.65267,-0.19375 9.43954,-4.64486 10.93788,-7.24198 -3.64597,-0.89901 -5.83186,-4.51321 -10.13877,-4.34519 z"
         id="path3102" />
    </g>
  </g>
  <g
     transform="translate(-54.270655,-61.921532)"
     id="layer2" />
</svg>
