<?xml version="1.0" encoding="UTF-8" standalone="no"?>
<svg
   version="1.1"
   viewBox="76.5 63 72 351"
   width="72"
   height="351"
   preserveAspectRatio="xMidYMid meet"
   zoomAndPan="magnify"
   contentScriptType="application/ecmascript"
   contentStyleType="text/css"
   id="svg179"
   xmlns="http://www.w3.org/2000/svg"
   xmlns:svg="http://www.w3.org/2000/svg"
   xmlns:rdf="http://www.w3.org/1999/02/22-rdf-syntax-ns#"
   xmlns:cc="http://creativecommons.org/ns#"
   xmlns:dc="http://purl.org/dc/elements/1.1/">
  <defs
     id="defs1" />
  <metadata
     id="metadata1">
    <rdf:RDF>
      <cc:Work
         rdf:about="">
        <dc:creator>
          <cc:Agent>
            <dc:title>http://heraldicart.org Peacock Feather (3).svg</dc:title>
          </cc:Agent>
        </dc:creator>
      </cc:Work>
    </rdf:RDF>
  </metadata>
  <g
     stroke-opacity="1"
     stroke-dasharray="none"
     stroke="#505050"
     fill="#ffff00"
     fill-opacity="1"
     id="g179">
    <title
       id="title1">Peacock Feather (3)</title>
    <g
       id="g178">
      <title
         id="title2">Art</title>
      <g
         id="g177">
        <g
           id="g3">
          <rect
             x="111.19761"
             y="122.5822"
             width="1.9184815"
             height="282.08912"
             id="rect2" />
          <rect
             x="111.19761"
             y="122.5822"
             width="1.9184815"
             height="282.08912"
             stroke="black"
             stroke-linecap="round"
             stroke-linejoin="round"
             stroke-width=".6775386"
             id="rect3" />
        </g>
        <g
           id="g4">
          <path
             d="m 96.83985,362.80646 c 2.673086,13.37381 17.5671,23.99053 16.51856,38.41399 -2.5226,-12.39952 -16.262883,-24.42997 -17.30635,-38.15562 l 0.78779,-0.25869 z"
             id="path3" />
          <path
             d="m 96.83985,362.80646 c 2.673086,13.37381 17.5671,23.99053 16.51856,38.41399 -2.5226,-12.39952 -16.262883,-24.42997 -17.30635,-38.15562 l 0.78779,-0.25869 z"
             stroke="#000000"
             stroke-linecap="round"
             stroke-linejoin="round"
             stroke-width="0.677539"
             id="path4" />
        </g>
        <g
           id="g6">
          <path
             d="m 102.28461,365.7439 c 2.46659,9.51588 14.73347,21.46653 10.04409,30.7352 1.21005,-11.2319 -12.25348,-20.9216 -10.04409,-30.7355 z"
             id="path5" />
          <path
             d="m 102.28461,365.7439 c 2.46659,9.51588 14.73347,21.46653 10.04409,30.7352 1.21005,-11.2319 -12.25348,-20.9216 -10.04409,-30.7355 z"
             stroke="#000000"
             stroke-linecap="round"
             stroke-linejoin="round"
             stroke-width="0.677539"
             id="path6" />
        </g>
        <g
           id="g8">
          <path
             d="m 99.86623,381.0967 c 1.31038,10.33187 16.83098,15.54386 13.50043,27.5772 -0.008,-10.11911 -14.595127,-16.5169 -14.2961,-27.3115 z"
             id="path7" />
          <path
             d="m 99.86623,381.0967 c 1.31038,10.33187 16.83098,15.54386 13.50043,27.5772 -0.008,-10.11911 -14.595127,-16.5169 -14.2961,-27.3115 z"
             stroke="#000000"
             stroke-linecap="round"
             stroke-linejoin="round"
             stroke-width="0.677539"
             id="path8" />
        </g>
        <g
           id="g10">
          <path
             d="m 124.86795,358.16022 c 2.36766,11.57293 -12.01197,21.27337 -11.51985,33.57482 -5.04103,-10.43257 10.4143,-21.66968 10.72412,-33.30941 l 0.79573,-0.26572 z"
             id="path9" />
          <path
             d="m 124.86795,358.16022 c 2.36766,11.57293 -12.01197,21.27337 -11.51985,33.57482 -5.04103,-10.43257 10.4143,-21.66968 10.72412,-33.30941 l 0.79573,-0.26572 z"
             stroke="#000000"
             stroke-linecap="round"
             stroke-linejoin="round"
             stroke-width="0.677539"
             id="path10" />
        </g>
        <g
           id="g12">
          <path
             d="m 123.99593,374.0621 c 1.01678,7.28304 -12.36109,12.90016 -10.64262,22.416 -5.71661,-7.0357 7.0888,-16.543 10.64262,-22.416 z"
             id="path11" />
          <path
             d="m 123.99593,374.0621 c 1.01678,7.28304 -12.36109,12.90016 -10.64262,22.416 -5.71661,-7.0357 7.0888,-16.543 10.64262,-22.416 z"
             stroke="#000000"
             stroke-linecap="round"
             stroke-linejoin="round"
             stroke-width="0.677539"
             id="path12" />
        </g>
        <g
           id="g14">
          <path
             d="m 128.73691,372.30005 c 3.52293,11.39793 -17.66517,14.05295 -15.38057,26.88845 -6.9152,-10.5518 13.47428,-15.90976 14.36538,-25.8499 l 0.28935,-0.73254 z"
             id="path13" />
          <path
             d="m 128.73691,372.30005 c 3.52293,11.39793 -17.66517,14.05295 -15.38057,26.88845 -6.9152,-10.5518 13.47428,-15.90976 14.36538,-25.8499 l 0.28935,-0.73254 z"
             stroke="#000000"
             stroke-linecap="round"
             stroke-linejoin="round"
             stroke-width="0.677539"
             id="path14" />
        </g>
        <g
           id="g16">
          <path
             d="m 120.45648,390.1367 c -2.10174,4.98575 -6.51802,15.70378 -8.11171,21.24795 -1.53314,-7.2971 2.24324,-16.72186 8.11171,-21.24795 z"
             id="path15" />
          <path
             d="m 120.45648,390.1367 c -2.10174,4.98575 -6.51802,15.70378 -8.11171,21.24795 -1.53314,-7.2971 2.24324,-16.72186 8.11171,-21.24795 z"
             stroke="#000000"
             stroke-linecap="round"
             stroke-linejoin="round"
             stroke-width="0.677539"
             id="path16" />
        </g>
        <g
           id="g18">
          <path
             d="m 105.33445,386.08776 c 5.50448,3.12274 11.63109,19.29555 6.50109,20.34024 2.19228,-7.79201 -7.21694,-15.54862 -6.50109,-20.34024 z"
             id="path17" />
          <path
             d="m 105.33445,386.08776 c 5.50448,3.12274 11.63109,19.29555 6.50109,20.34024 2.19228,-7.79201 -7.21694,-15.54862 -6.50109,-20.34024 z"
             stroke="#000000"
             stroke-linecap="round"
             stroke-linejoin="round"
             stroke-width="0.677539"
             id="path18" />
        </g>
        <g
           id="g20">
          <path
             d="m 95.98471,335.70603 c 2.90087,11.617 13.33984,20.67421 17.09102,32.37802 0.9742,15.47301 -3.59828,-8.27815 -8.00615,-11.20457 -2.93268,-5.78945 -12.704634,-14.87457 -9.08487,-21.17345 z"
             id="path19" />
          <path
             d="m 95.98471,335.70603 c 2.90087,11.617 13.33984,20.67421 17.09102,32.37802 0.9742,15.47301 -3.59828,-8.27815 -8.00615,-11.20457 -2.93268,-5.78945 -12.704634,-14.87457 -9.08487,-21.17345 z"
             stroke="#000000"
             stroke-linecap="round"
             stroke-linejoin="round"
             stroke-width="0.677539"
             id="path20" />
        </g>
        <g
           id="g22">
          <path
             d="m 101.72587,338.6431 c 2.54752,9.59292 15.33155,21.31815 10.57317,30.73424 1.27639,-11.40251 -12.982714,-21.02651 -10.57317,-30.73424 z"
             id="path21" />
          <path
             d="m 101.72587,338.6431 c 2.54752,9.59292 15.33155,21.31815 10.57317,30.73424 1.27639,-11.40251 -12.982714,-21.02651 -10.57317,-30.73424 z"
             stroke="#000000"
             stroke-linecap="round"
             stroke-linejoin="round"
             stroke-width="0.677539"
             id="path22" />
        </g>
        <g
           id="g24">
          <path
             d="m 99.18049,353.99607 c 1.4853,10.34323 16.19055,14.65697 14.65963,26.68333 -3.10963,-1.07842 -4.76571,-14.54085 -12.33433,-17.19115 -1.658158,-1.67082 -5.580162,-8.12446 -2.3253,-9.49218 z"
             id="path23" />
          <path
             d="m 99.18049,353.99607 c 1.4853,10.34323 16.19055,14.65697 14.65963,26.68333 -3.10963,-1.07842 -4.76571,-14.54085 -12.33433,-17.19115 -1.658158,-1.67082 -5.580162,-8.12446 -2.3253,-9.49218 z"
             stroke="#000000"
             stroke-linecap="round"
             stroke-linejoin="round"
             stroke-width="0.677539"
             id="path24" />
        </g>
        <g
           id="g26">
          <path
             d="m 125.47393,331.05873 c 2.31479,11.73873 -12.6009,21.13564 -12.15518,33.57489 -5.07139,-10.58706 10.97115,-21.58059 11.34477,-33.31929 z"
             id="path25" />
          <path
             d="m 125.47393,331.05873 c 2.31479,11.73873 -12.6009,21.13564 -12.15518,33.57489 -5.07139,-10.58706 10.97115,-21.58059 11.34477,-33.31929 z"
             stroke="#000000"
             stroke-linecap="round"
             stroke-linejoin="round"
             stroke-width="0.677539"
             id="path26" />
        </g>
        <g
           id="g28">
          <path
             d="m 124.55933,346.96003 c -0.34346,6.73902 -11.95403,14.74559 -12.26029,22.41731 -2.56153,-9.67185 7.95151,-15.77494 12.26029,-22.41731 z"
             id="path27" />
          <path
             d="m 124.55933,346.96003 c -0.34346,6.73902 -11.95403,14.74559 -12.26029,22.41731 -2.56153,-9.67185 7.95151,-15.77494 12.26029,-22.41731 z"
             stroke="#000000"
             stroke-linecap="round"
             stroke-linejoin="round"
             stroke-width="0.677539"
             id="path28" />
        </g>
        <g
           id="g30">
          <path
             d="m 129.53328,345.19767 c 3.46196,11.65096 -18.40359,13.77874 -16.20653,26.88876 -6.91708,-10.86107 14.1456,-15.78235 15.19117,-25.85116 l 0.28928,-0.73252 0.72608,-0.30537 z"
             id="path29" />
          <path
             d="m 129.53328,345.19767 c 3.46196,11.65096 -18.40359,13.77874 -16.20653,26.88876 -6.91708,-10.86107 14.1456,-15.78235 15.19117,-25.85116 l 0.28928,-0.73252 0.72608,-0.30537 z"
             stroke="#000000"
             stroke-linecap="round"
             stroke-linejoin="round"
             stroke-width="0.677539"
             id="path30" />
        </g>
        <g
           id="g32">
          <path
             d="m 120.85024,363.0342 c -2.28815,4.97079 -6.98426,15.59417 -8.53482,21.24905 -1.58321,-7.39432 2.50538,-16.82576 8.53482,-21.24905 z"
             id="path31" />
          <path
             d="m 120.85024,363.0342 c -2.28815,4.97079 -6.98426,15.59417 -8.53482,21.24905 -1.58321,-7.39432 2.50538,-16.82576 8.53482,-21.24905 z"
             stroke="#000000"
             stroke-linecap="round"
             stroke-linejoin="round"
             stroke-width="0.677539"
             id="path32" />
        </g>
        <g
           id="g34">
          <path
             d="m 104.90272,358.98684 c 5.6928,2.97606 12.09955,19.22573 6.90317,20.33913 2.23715,-7.93338 -7.55866,-15.54357 -6.90317,-20.33913 z"
             id="path33" />
          <path
             d="m 104.90272,358.98684 c 5.6928,2.97606 12.09955,19.22573 6.90317,20.33913 2.23715,-7.93338 -7.55866,-15.54357 -6.90317,-20.33913 z"
             stroke="#000000"
             stroke-linecap="round"
             stroke-linejoin="round"
             stroke-width="0.677539"
             id="path34" />
        </g>
        <g
           id="g36">
          <path
             d="m 94.96016,308.6058 c 2.682553,9.9497 10.87013,18.11949 15.9404,27.32618 4.50689,4.24281 1.86938,17.78883 0.12639,5.61425 -2.61715,-11.8262 -18.635935,-21.15779 -16.06679,-32.94074 z"
             id="path35" />
          <path
             d="m 94.96016,308.6058 c 2.682553,9.9497 10.87013,18.11949 15.9404,27.32618 4.50689,4.24281 1.86938,17.78883 0.12639,5.61425 -2.61715,-11.8262 -18.635935,-21.15779 -16.06679,-32.94074 z"
             stroke="#000000"
             stroke-linecap="round"
             stroke-linejoin="round"
             stroke-width="0.677539"
             id="path36" />
        </g>
        <g
           id="g38">
          <path
             d="m 101.0399,311.54183 c 2.57809,9.65236 16.06688,21.13459 11.22997,30.73447 1.1976,-11.508 -13.306476,-20.75009 -11.22997,-30.73477 z"
             id="path37" />
          <path
             d="m 101.0399,311.54183 c 2.57809,9.65236 16.06688,21.13459 11.22997,30.73447 1.1976,-11.508 -13.306476,-20.75009 -11.22997,-30.73477 z"
             stroke="#000000"
             stroke-linecap="round"
             stroke-linejoin="round"
             stroke-width="0.677539"
             id="path38" />
        </g>
        <g
           id="g40">
          <path
             d="m 98.34651,326.8956 c 1.570269,10.53554 16.9763,14.36934 15.46402,26.68173 -3.3249,-0.37911 -4.06069,-13.99207 -11.64742,-15.95539 -2.405612,-1.95983 -7.300516,-8.34548 -3.8166,-10.72634 z"
             id="path39" />
          <path
             d="m 98.34651,326.8956 c 1.570269,10.53554 16.9763,14.36934 15.46402,26.68173 -3.3249,-0.37911 -4.06069,-13.99207 -11.64742,-15.95539 -2.405612,-1.95983 -7.300516,-8.34548 -3.8166,-10.72634 z"
             stroke="#000000"
             stroke-linecap="round"
             stroke-linejoin="round"
             stroke-width="0.677539"
             id="path40" />
        </g>
        <g
           id="g42">
          <path
             d="m 126.1855,303.95648 c 2.29825,11.89428 -13.31551,20.96857 -12.8964,33.57512 -5.09666,-10.77022 11.64239,-21.45861 12.08623,-33.31886 l 0.81017,-0.25622 z"
             id="path41" />
          <path
             d="m 126.1855,303.95648 c 2.29825,11.89428 -13.31551,20.96857 -12.8964,33.57512 -5.09666,-10.77022 11.64239,-21.45861 12.08623,-33.31886 l 0.81017,-0.25622 z"
             stroke="#000000"
             stroke-linecap="round"
             stroke-linejoin="round"
             stroke-width="0.677539"
             id="path42" />
        </g>
        <g
           id="g44">
          <path
             d="m 125.24998,319.85845 c -0.49926,6.86463 -12.67578,14.49427 -12.98011,22.41785 -2.56472,-9.89045 8.44593,-15.71872 12.98011,-22.41785 z"
             id="path43" />
          <path
             d="m 125.24998,319.85845 c -0.49926,6.86463 -12.67578,14.49427 -12.98011,22.41785 -2.56472,-9.89045 8.44593,-15.71872 12.98011,-22.41785 z"
             stroke="#000000"
             stroke-linecap="round"
             stroke-linejoin="round"
             stroke-width="0.677539"
             id="path44" />
        </g>
        <g
           id="g46">
          <path
             d="m 130.49876,318.09447 c 3.36183,11.93143 -19.23323,13.47317 -17.20136,26.89053 -6.94172,-11.26268 14.95152,-15.61436 16.18617,-25.85233 l 0.28935,-0.73252 0.72584,-0.30601 z"
             id="path45" />
          <path
             d="m 130.49876,318.09447 c 3.36183,11.93143 -19.23323,13.47317 -17.20136,26.89053 -6.94172,-11.26268 14.95152,-15.61436 16.18617,-25.85233 l 0.28935,-0.73252 0.72584,-0.30601 z"
             stroke="#000000"
             stroke-linecap="round"
             stroke-linejoin="round"
             stroke-width="0.677539"
             id="path46" />
        </g>
        <g
           id="g48">
          <path
             d="m 121.30805,335.93286 c -2.48928,4.94344 -7.52092,15.46322 -9.02205,21.249 -1.63851,-7.51232 2.80941,-16.94389 9.02205,-21.249 z"
             id="path47" />
          <path
             d="m 121.30805,335.93286 c -2.48928,4.94344 -7.52092,15.46322 -9.02205,21.249 -1.63851,-7.51232 2.80941,-16.94389 9.02205,-21.249 z"
             stroke="#000000"
             stroke-linecap="round"
             stroke-linejoin="round"
             stroke-width="0.677539"
             id="path48" />
        </g>
        <g
           id="g50">
          <path
             d="m 104.47082,331.88526 c 5.80839,2.92572 12.59513,19.1277 7.30572,20.33925 2.3812,-8.05975 -8.1968,-15.7246 -7.30572,-20.33925 z"
             id="path49" />
          <path
             d="m 104.47082,331.88526 c 5.80839,2.92572 12.59513,19.1277 7.30572,20.33925 2.3812,-8.05975 -8.1968,-15.7246 -7.30572,-20.33925 z"
             stroke="#000000"
             stroke-linecap="round"
             stroke-linejoin="round"
             stroke-width="0.677539"
             id="path50" />
        </g>
        <g
           id="g52">
          <path
             d="m 94.7614,281.50458 c 2.703878,9.97464 10.96979,18.11457 16.08311,27.32476 4.53097,4.22813 1.90728,17.79466 0.14555,5.61753 C 108.48428,302.7513 91.952267,293.08442 94.7614,281.50458 Z"
             id="path51" />
          <path
             d="m 94.7614,281.50458 c 2.703878,9.97464 10.96979,18.11457 16.08311,27.32476 4.53097,4.22813 1.90728,17.79466 0.14555,5.61753 C 108.48428,302.7513 91.952267,293.08442 94.7614,281.50458 Z"
             stroke="#000000"
             stroke-linecap="round"
             stroke-linejoin="round"
             stroke-width="0.677539"
             id="path52" />
        </g>
        <g
           id="g54">
          <path
             d="m 100.90454,284.43987 c 2.58249,9.69246 16.20704,21.08852 11.33574,30.73466 1.24061,-11.59068 -13.58381,-20.87314 -11.33574,-30.73466 z"
             id="path53" />
          <path
             d="m 100.90454,284.43987 c 2.58249,9.69246 16.20704,21.08852 11.33574,30.73466 1.24061,-11.59068 -13.58381,-20.87314 -11.33574,-30.73466 z"
             stroke="#000000"
             stroke-linecap="round"
             stroke-linejoin="round"
             stroke-width="0.677539"
             id="path54" />
        </g>
        <g
           id="g56">
          <path
             d="m 98.16893,299.79438 c 1.618978,10.53611 17.10684,14.33195 15.61236,26.68222 -3.31849,-0.40179 -4.10708,-14.01609 -11.73341,-15.9448 -2.442498,-1.95753 -7.313363,-8.29201 -3.87895,-10.73742 z"
             id="path55" />
          <path
             d="m 98.16893,299.79438 c 1.618978,10.53611 17.10684,14.33195 15.61236,26.68222 -3.31849,-0.40179 -4.10708,-14.01609 -11.73341,-15.9448 -2.442498,-1.95753 -7.313363,-8.29201 -3.87895,-10.73742 z"
             stroke="#000000"
             stroke-linecap="round"
             stroke-linejoin="round"
             stroke-width="0.677539"
             id="path56" />
        </g>
        <g
           id="g58">
          <path
             d="m 126.28298,276.85427 c 2.29416,11.92172 -13.43632,20.94022 -13.0233,33.57593 -5.10611,-10.80493 11.73721,-21.44524 12.21324,-33.31896 l 0.81006,-0.25691 z"
             id="path57" />
          <path
             d="m 126.28298,276.85427 c 2.29416,11.92172 -13.43632,20.94022 -13.0233,33.57593 -5.10611,-10.80493 11.73721,-21.44524 12.21324,-33.31896 l 0.81006,-0.25691 z"
             stroke="#000000"
             stroke-linecap="round"
             stroke-linejoin="round"
             stroke-width="0.677539"
             id="path58" />
        </g>
        <g
           id="g60">
          <path
             d="m 125.32647,292.7569 c -0.50387,6.87474 -12.79603,14.45181 -13.08619,22.41763 -2.58672,-9.95685 8.61561,-15.7286 13.08619,-22.41763 z"
             id="path59" />
          <path
             d="m 125.32647,292.7569 c -0.50387,6.87474 -12.79603,14.45181 -13.08619,22.41763 -2.58672,-9.95685 8.61561,-15.7286 13.08619,-22.41763 z"
             stroke="#000000"
             stroke-linecap="round"
             stroke-linejoin="round"
             stroke-width="0.677539"
             id="path60" />
        </g>
        <g
           id="g62">
          <path
             d="m 130.63892,290.99352 c 3.27246,11.99953 -19.34456,13.42775 -17.371,26.89011 -6.96837,-11.34465 15.10402,-15.56958 16.33441,-25.85248 l 0.29655,-0.74075 0.74004,-0.29718 z"
             id="path61" />
          <path
             d="m 130.63892,290.99352 c 3.27246,11.99953 -19.34456,13.42775 -17.371,26.89011 -6.96837,-11.34465 15.10402,-15.56958 16.33441,-25.85248 l 0.29655,-0.74075 0.74004,-0.29718 z"
             stroke="#000000"
             stroke-linecap="round"
             stroke-linejoin="round"
             stroke-width="0.677539"
             id="path62" />
        </g>
        <g
           id="g64">
          <path
             d="m 121.36313,308.8307 c -2.50756,4.93578 -7.61859,15.4404 -9.10672,21.2494 -1.61937,-7.61566 2.82162,-16.8736 9.10672,-21.2494 z"
             id="path63" />
          <path
             d="m 121.36313,308.8307 c -2.50756,4.93578 -7.61859,15.4404 -9.10672,21.2494 -1.61937,-7.61566 2.82162,-16.8736 9.10672,-21.2494 z"
             stroke="#000000"
             stroke-linecap="round"
             stroke-linejoin="round"
             stroke-width="0.677539"
             id="path64" />
        </g>
        <g
           id="g66">
          <path
             d="m 104.35674,304.78396 c 5.84173,2.90199 12.6951,19.10804 7.39038,20.33947 2.35498,-8.09833 -8.16855,-15.65913 -7.39038,-20.33947 z"
             id="path65" />
          <path
             d="m 104.35674,304.78396 c 5.84173,2.90199 12.6951,19.10804 7.39038,20.33947 2.35498,-8.09833 -8.16855,-15.65913 -7.39038,-20.33947 z"
             stroke="#000000"
             stroke-linecap="round"
             stroke-linejoin="round"
             stroke-width="0.677539"
             id="path66" />
        </g>
        <g
           id="g68">
          <path
             d="m 94.24501,254.40376 c 2.733849,10.07992 11.27754,18.07515 16.48988,27.30863 4.59837,4.18245 2.02798,17.82946 0.20346,5.64144 -3.378,-12.09187 -17.353844,-19.81165 -17.49544,-32.7009 z"
             id="path67" />
          <path
             d="m 94.24501,254.40376 c 2.733849,10.07992 11.27754,18.07515 16.48988,27.30863 4.59837,4.18245 2.02798,17.82946 0.20346,5.64144 -3.378,-12.09187 -17.353844,-19.81165 -17.49544,-32.7009 z"
             stroke="#000000"
             stroke-linecap="round"
             stroke-linejoin="round"
             stroke-width="0.677539"
             id="path68" />
        </g>
        <g
           id="g70">
          <path
             d="m 100.55748,257.33886 c 2.63662,9.72598 16.53185,21.0102 11.65338,30.73427 1.26005,-11.66898 -13.948306,-20.86295 -11.65338,-30.73427 z"
             id="path69" />
          <path
             d="m 100.55748,257.33886 c 2.63662,9.72598 16.53185,21.0102 11.65338,30.73427 1.26005,-11.66898 -13.948306,-20.86295 -11.65338,-30.73427 z"
             stroke="#000000"
             stroke-linecap="round"
             stroke-linejoin="round"
             stroke-width="0.677539"
             id="path70" />
        </g>
        <g
           id="g72">
          <path
             d="m 97.73702,272.6928 c 1.66599,10.63036 17.50083,14.18252 16.01485,26.6824 -3.28591,-0.48016 -4.27745,-14.08819 -12.00201,-15.94552 -2.494274,-1.91835 -7.474938,-8.25606 -4.01284,-10.73688 z"
             id="path71" />
          <path
             d="m 97.73702,272.6928 c 1.66599,10.63036 17.50083,14.18252 16.01485,26.6824 -3.28591,-0.48016 -4.27745,-14.08819 -12.00201,-15.94552 -2.494274,-1.91835 -7.474938,-8.25606 -4.01284,-10.73688 z"
             stroke="#000000"
             stroke-linecap="round"
             stroke-linejoin="round"
             stroke-width="0.677539"
             id="path72" />
        </g>
        <g
           id="g74">
          <path
             d="m 126.61348,249.75246 c 2.32647,11.96182 -13.80987,20.8537 -13.38315,33.57632 -5.12345,-10.90082 12.06755,-21.37976 12.58724,-33.31123 l 0.79591,-0.26506 z"
             id="path73" />
          <path
             d="m 126.61348,249.75246 c 2.32647,11.96182 -13.80987,20.8537 -13.38315,33.57632 -5.12345,-10.90082 12.06755,-21.37976 12.58724,-33.31123 l 0.79591,-0.26506 z"
             stroke="#000000"
             stroke-linecap="round"
             stroke-linejoin="round"
             stroke-width="0.677539"
             id="path74" />
        </g>
        <g
           id="g76">
          <path
             d="m 125.65661,265.6538 c -0.55099,6.9272 -13.15758,14.32481 -13.44575,22.41933 -2.58908,-10.06806 8.89335,-15.73557 13.44575,-22.41933 z"
             id="path75" />
          <path
             d="m 125.65661,265.6538 c -0.55099,6.9272 -13.15758,14.32481 -13.44575,22.41933 -2.58908,-10.06806 8.89335,-15.73557 13.44575,-22.41933 z"
             stroke="#000000"
             stroke-linecap="round"
             stroke-linejoin="round"
             stroke-width="0.677539"
             id="path76" />
        </g>
        <g
           id="g78">
          <path
             d="m 131.11741,263.8909 c 3.1919,12.13755 -19.80195,13.25883 -17.87884,26.8913 -6.93301,-11.51278 15.47308,-15.50862 16.84273,-25.8521 l 0.29655,-0.74076 z"
             id="path77" />
          <path
             d="m 131.11741,263.8909 c 3.1919,12.13755 -19.80195,13.25883 -17.87884,26.8913 -6.93301,-11.51278 15.47308,-15.50862 16.84273,-25.8521 l 0.29655,-0.74076 z"
             stroke="#000000"
             stroke-linecap="round"
             stroke-linejoin="round"
             stroke-width="0.677539"
             id="path78" />
        </g>
        <g
           id="g80">
          <path
             d="m 121.58785,281.729 c -2.6317,4.93279 -7.88668,15.37268 -9.36085,21.2497 -1.66582,-7.65047 3.025,-16.94989 9.36085,-21.2497 z"
             id="path79" />
          <path
             d="m 121.58785,281.729 c -2.6317,4.93279 -7.88668,15.37268 -9.36085,21.2497 -1.66582,-7.65047 3.025,-16.94989 9.36085,-21.2497 z"
             stroke="#000000"
             stroke-linecap="round"
             stroke-linejoin="round"
             stroke-width="0.677539"
             id="path80" />
        </g>
        <g
           id="g82">
          <path
             d="m 104.09441,277.68284 c 5.88721,2.79186 12.97822,19.05701 7.62312,20.33854 2.375,-8.1806 -8.37587,-15.65609 -7.62312,-20.33854 z"
             id="path81" />
          <path
             d="m 104.09441,277.68284 c 5.88721,2.79186 12.97822,19.05701 7.62312,20.33854 2.375,-8.1806 -8.37587,-15.65609 -7.62312,-20.33854 z"
             stroke="#000000"
             stroke-linecap="round"
             stroke-linejoin="round"
             stroke-width="0.677539"
             id="path82" />
        </g>
        <g
           id="g84">
          <path
             d="m 93.55903,227.30248 c 2.707264,9.69767 10.86622,17.43834 16.32469,26.06318 5.01923,3.66029 3.45591,19.7781 1.01653,6.89451 -3.84715,-11.95362 -16.662454,-19.24446 -18.48357,-31.94066 l 0.34025,-0.76781 0.8021,-0.24918 z"
             id="path83" />
          <path
             d="m 93.55903,227.30248 c 2.707264,9.69767 10.86622,17.43834 16.32469,26.06318 5.01923,3.66029 3.45591,19.7781 1.01653,6.89451 -3.84715,-11.95362 -16.662454,-19.24446 -18.48357,-31.94066 l 0.34025,-0.76781 0.8021,-0.24918 z"
             stroke="#000000"
             stroke-linecap="round"
             stroke-linejoin="round"
             stroke-width="0.677539"
             id="path84" />
        </g>
        <g
           id="g86">
          <path
             d="m 100.10458,230.23796 c 2.6783,9.80737 17.0243,20.8714 12.09792,30.73308 1.24598,-11.78079 -14.390504,-20.78409 -12.09792,-30.73308 z"
             id="path85" />
          <path
             d="m 100.10458,230.23796 c 2.6783,9.80737 17.0243,20.8714 12.09792,30.73308 1.24598,-11.78079 -14.390504,-20.78409 -12.09792,-30.73308 z"
             stroke="#000000"
             stroke-linecap="round"
             stroke-linejoin="round"
             stroke-width="0.677539"
             id="path86" />
        </g>
        <g
           id="g88">
          <path
             d="m 97.17836,245.592 c 1.720769,10.78841 18.00071,14.0009 16.56509,26.68112 -3.23524,-0.59105 -4.54068,-14.15507 -12.37761,-15.92399 -2.54049,-1.85125 -7.749273,-8.28735 -4.18748,-10.75713 z"
             id="path87" />
          <path
             d="m 97.17836,245.592 c 1.720769,10.78841 18.00071,14.0009 16.56509,26.68112 -3.23524,-0.59105 -4.54068,-14.15507 -12.37761,-15.92399 -2.54049,-1.85125 -7.749273,-8.28735 -4.18748,-10.75713 z"
             stroke="#000000"
             stroke-linecap="round"
             stroke-linejoin="round"
             stroke-width="0.677539"
             id="path88" />
        </g>
        <g
           id="g90">
          <path
             d="m 127.09221,222.65047 c 2.26164,12.10419 -14.25292,20.73937 -13.87013,33.57689 -5.14638,-11.03346 12.4596,-21.31766 13.06013,-33.32031 l 0.81,-0.25689 z"
             id="path89" />
          <path
             d="m 127.09221,222.65047 c 2.26164,12.10419 -14.25292,20.73937 -13.87013,33.57689 -5.14638,-11.03346 12.4596,-21.31766 13.06013,-33.32031 l 0.81,-0.25689 z"
             stroke="#000000"
             stroke-linecap="round"
             stroke-linejoin="round"
             stroke-width="0.677539"
             id="path90" />
        </g>
        <g
           id="g92">
          <path
             d="m 126.09294,238.55187 c 0.46234,7.8138 -14.45237,12.08178 -12.86572,22.41855 -5.83723,-8.05487 8.79526,-16.3381 12.86572,-22.41855 z"
             id="path91" />
          <path
             d="m 126.09294,238.55187 c 0.46234,7.8138 -14.45237,12.08178 -12.86572,22.41855 -5.83723,-8.05487 8.79526,-16.3381 12.86572,-22.41855 z"
             stroke="#000000"
             stroke-linecap="round"
             stroke-linejoin="round"
             stroke-width="0.677539"
             id="path92" />
        </g>
        <g
           id="g94">
          <path
             d="m 131.74438,236.78872 c 3.14428,12.34706 -20.37742,13.03779 -18.51423,26.89142 -6.92204,-11.76079 15.98951,-15.40161 17.47788,-25.85281 l 0.29679,-0.74012 0.73956,-0.29845 z"
             id="path93" />
          <path
             d="m 131.74438,236.78872 c 3.14428,12.34706 -20.37742,13.03779 -18.51423,26.89142 -6.92204,-11.76079 15.98951,-15.40161 17.47788,-25.85281 l 0.29679,-0.74012 0.73956,-0.29845 z"
             stroke="#000000"
             stroke-linecap="round"
             stroke-linejoin="round"
             stroke-width="0.677539"
             id="path94" />
        </g>
        <g
           id="g96">
          <path
             d="m 121.79127,254.62735 c -1.33454,5.37896 -9.50284,13.08589 -8.54784,21.24862 -4.73569,-4.93148 3.16374,-18.18218 8.54784,-21.24862 z"
             id="path95" />
          <path
             d="m 121.79127,254.62735 c -1.33454,5.37896 -9.50284,13.08589 -8.54784,21.24862 -4.73569,-4.93148 3.16374,-18.18218 8.54784,-21.24862 z"
             stroke="#000000"
             stroke-linecap="round"
             stroke-linejoin="round"
             stroke-width="0.677539"
             id="path96" />
        </g>
        <g
           id="g98">
          <path
             d="m 103.72625,250.58183 c 6.04939,2.64013 13.38925,18.98377 7.98321,20.33877 2.3764,-8.31857 -8.60986,-15.59054 -7.98321,-20.33877 z"
             id="path97" />
          <path
             d="m 103.72625,250.58183 c 6.04939,2.64013 13.38925,18.98377 7.98321,20.33877 2.3764,-8.31857 -8.60986,-15.59054 -7.98321,-20.33877 z"
             stroke="#000000"
             stroke-linecap="round"
             stroke-linejoin="round"
             stroke-width="0.677539"
             id="path98" />
        </g>
        <g
           id="g100">
          <path
             d="m 92.02634,200.20284 c 2.855333,9.90999 11.73224,17.37209 17.53138,26.02385 4.96115,3.70592 4.04621,19.74279 1.2568,6.95493 -4.2775,-12.08693 -17.695207,-19.05257 -19.90937,-31.96212 l 0.33335,-0.75896 0.78784,-0.258 z"
             id="path99" />
          <path
             d="m 92.02634,200.20284 c 2.855333,9.90999 11.73224,17.37209 17.53138,26.02385 4.96115,3.70592 4.04621,19.74279 1.2568,6.95493 -4.2775,-12.08693 -17.695207,-19.05257 -19.90937,-31.96212 l 0.33335,-0.75896 0.78784,-0.258 z"
             stroke="#000000"
             stroke-linecap="round"
             stroke-linejoin="round"
             stroke-width="0.677539"
             id="path100" />
        </g>
        <g
           id="g102">
          <path
             d="m 99.10127,203.1377 c 2.83046,9.91464 18.0567,20.59178 13.07175,30.73196 1.25648,-12.06109 -15.318735,-20.61692 -13.07175,-30.73196 z"
             id="path101" />
          <path
             d="m 99.10127,203.1377 c 2.83046,9.91464 18.0567,20.59178 13.07175,30.73196 1.25648,-12.06109 -15.318735,-20.61692 -13.07175,-30.73196 z"
             stroke="#000000"
             stroke-linecap="round"
             stroke-linejoin="round"
             stroke-width="0.677539"
             id="path102" />
        </g>
        <g
           id="g104">
          <path
             d="m 95.9419,218.49137 c 1.89991,11.06961 19.13044,13.57191 17.7722,26.68033 -3.14432,-0.84177 -5.09011,-14.31881 -13.17305,-15.90398 -2.675909,-1.77041 -8.237771,-8.16477 -4.59915,-10.77635 z"
             id="path103" />
          <path
             d="m 95.9419,218.49137 c 1.89991,11.06961 19.13044,13.57191 17.7722,26.68033 -3.14432,-0.84177 -5.09011,-14.31881 -13.17305,-15.90398 -2.675909,-1.77041 -8.237771,-8.16477 -4.59915,-10.77635 z"
             stroke="#000000"
             stroke-linecap="round"
             stroke-linejoin="round"
             stroke-width="0.677539"
             id="path104" />
        </g>
        <g
           id="g106">
          <path
             d="m 128.185,195.54775 c 2.19063,12.34604 -15.31373,20.46926 -14.99234,33.57821 -5.15535,-11.33038 13.43673,-21.13223 14.18209,-33.32227 l 0.81025,-0.25625 z"
             id="path105" />
          <path
             d="m 128.185,195.54775 c 2.19063,12.34604 -15.31373,20.46926 -14.99234,33.57821 -5.15535,-11.33038 13.43673,-21.13223 14.18209,-33.32227 l 0.81025,-0.25625 z"
             stroke="#000000"
             stroke-linecap="round"
             stroke-linejoin="round"
             stroke-width="0.677539"
             id="path106" />
        </g>
        <g
           id="g108">
          <path
             d="m 127.1224,211.44987 c 0.30553,7.99851 -15.44722,11.7101 -13.92453,22.41913 -5.99899,-8.4519 9.72731,-16.21269 13.92453,-22.41913 z"
             id="path107" />
          <path
             d="m 127.1224,211.44987 c 0.30553,7.99851 -15.44722,11.7101 -13.92453,22.41913 -5.99899,-8.4519 9.72731,-16.21269 13.92453,-22.41913 z"
             stroke="#000000"
             stroke-linecap="round"
             stroke-linejoin="round"
             stroke-width="0.677539"
             id="path108" />
        </g>
        <g
           id="g110">
          <path
             d="m 133.19708,209.6856 c 2.93906,12.7605 -21.60704,12.57504 -19.99642,26.89316 -6.82228,-12.28584 17.14453,-15.18281 18.96024,-25.8539 l 0.29655,-0.74075 0.73963,-0.29845 z"
             id="path109" />
          <path
             d="m 133.19708,209.6856 c 2.93906,12.7605 -21.60704,12.57504 -19.99642,26.89316 -6.82228,-12.28584 17.14453,-15.18281 18.96024,-25.8539 l 0.29655,-0.74075 0.73963,-0.29845 z"
             stroke="#000000"
             stroke-linecap="round"
             stroke-linejoin="round"
             stroke-width="0.677539"
             id="path110" />
        </g>
        <g
           id="g112">
          <path
             d="m 122.52408,227.52506 c -2.79445,4.81993 -9.19405,14.97132 -10.33486,21.25014 -1.7824,-7.93678 3.70492,-17.10143 10.33486,-21.25014 z"
             id="path111" />
          <path
             d="m 122.52408,227.52506 c -2.79445,4.81993 -9.19405,14.97132 -10.33486,21.25014 -1.7824,-7.93678 3.70492,-17.10143 10.33486,-21.25014 z"
             stroke="#000000"
             stroke-linecap="round"
             stroke-linejoin="round"
             stroke-width="0.677539"
             id="path112" />
        </g>
        <g
           id="g114">
          <path
             d="m 102.97677,223.48062 c 6.32673,2.39902 14.22876,18.82248 8.70327,20.3383 2.43124,-8.5019 -9.24814,-15.69513 -8.70327,-20.3383 z"
             id="path113" />
          <path
             d="m 102.97677,223.48062 c 6.32673,2.39902 14.22876,18.82248 8.70327,20.3383 2.43124,-8.5019 -9.24814,-15.69513 -8.70327,-20.3383 z"
             stroke="#000000"
             stroke-linecap="round"
             stroke-linejoin="round"
             stroke-width="0.677539"
             id="path114" />
        </g>
        <g
           id="g116">
          <path
             d="m 89.68897,173.10347 c 2.981715,9.79261 12.1596,16.67159 18.45756,24.74583 5.59115,3.11178 6.24952,21.54933 2.56269,8.26291 C 105.73745,193.80916 91.287769,187.40448 88.5468,174.1208 l 0.34025,-0.7678 0.80192,-0.24983 z"
             id="path115" />
          <path
             d="m 89.68897,173.10347 c 2.981715,9.79261 12.1596,16.67159 18.45756,24.74583 5.59115,3.11178 6.24952,21.54933 2.56269,8.26291 C 105.73745,193.80916 91.287769,187.40448 88.5468,174.1208 l 0.34025,-0.7678 0.80192,-0.24983 z"
             stroke="#000000"
             stroke-linecap="round"
             stroke-linejoin="round"
             stroke-width="0.677539"
             id="path116" />
        </g>
        <g
           id="g118">
          <path
             d="m 97.54741,176.03808 c 3.10141,10.08762 19.64977,20.14074 14.61736,30.73016 1.18996,-12.47979 -16.756219,-20.34272 -14.61736,-30.73016 z"
             id="path117" />
          <path
             d="m 97.54741,176.03808 c 3.10141,10.08762 19.64977,20.14074 14.61736,30.73016 1.18996,-12.47979 -16.756219,-20.34272 -14.61736,-30.73016 z"
             stroke="#000000"
             stroke-linecap="round"
             stroke-linejoin="round"
             stroke-width="0.677539"
             id="path118" />
        </g>
        <g
           id="g120">
          <path
             d="m 94.0283,191.39282 c 2.24107,11.47886 20.84894,12.91627 19.67755,26.67746 -3.2827,-0.24796 -4.76003,-13.73993 -12.70868,-14.7338 -3.300098,-1.69702 -11.010944,-8.39216 -6.96887,-11.94366 z"
             id="path119" />
          <path
             d="m 94.0283,191.39282 c 2.24107,11.47886 20.84894,12.91627 19.67755,26.67746 -3.2827,-0.24796 -4.76003,-13.73993 -12.70868,-14.7338 -3.300098,-1.69702 -11.010944,-8.39216 -6.96887,-11.94366 z"
             stroke="#000000"
             stroke-linecap="round"
             stroke-linejoin="round"
             stroke-width="0.677539"
             id="path120" />
        </g>
        <g
           id="g122">
          <path
             d="m 129.8917,168.44433 c 2.13192,12.70441 -16.89674,20.05597 -16.70729,33.58021 -5.15047,-11.80568 14.88202,-20.85149 15.91138,-33.31545 l 0.79591,-0.26507 z"
             id="path121" />
          <path
             d="m 129.8917,168.44433 c 2.13192,12.70441 -16.89674,20.05597 -16.70729,33.58021 -5.15047,-11.80568 14.88202,-20.85149 15.91138,-33.31545 l 0.79591,-0.26507 z"
             stroke="#000000"
             stroke-linecap="round"
             stroke-linejoin="round"
             stroke-width="0.677539"
             id="path122" />
        </g>
        <g
           id="g124">
          <path
             d="m 128.74443,184.34655 c 0.54376,8.43531 -17.23505,11.07629 -15.55481,22.42103 -6.05104,-9.05619 11.03197,-16.12951 15.55481,-22.42103 z"
             id="path123" />
          <path
             d="m 128.74443,184.34655 c 0.54376,8.43531 -17.23505,11.07629 -15.55481,22.42103 -6.05104,-9.05619 11.03197,-16.12951 15.55481,-22.42103 z"
             stroke="#000000"
             stroke-linecap="round"
             stroke-linejoin="round"
             stroke-width="0.677539"
             id="path124" />
        </g>
        <g
           id="g126">
          <path
             d="m 135.47543,182.5815 c 2.66405,13.38548 -23.51611,11.87128 -22.28302,26.89584 -6.59281,-13.08505 18.90482,-14.84868 21.26784,-25.85757 l 0.28941,-0.73255 0.72577,-0.306 z"
             id="path125" />
          <path
             d="m 135.47543,182.5815 c 2.66405,13.38548 -23.51611,11.87128 -22.28302,26.89584 -6.59281,-13.08505 18.90482,-14.84868 21.26784,-25.85757 l 0.28941,-0.73255 0.72577,-0.306 z"
             stroke="#000000"
             stroke-linecap="round"
             stroke-linejoin="round"
             stroke-width="0.677539"
             id="path126" />
        </g>
        <g
           id="g128">
          <path
             d="m 123.53213,200.42245 c -0.82535,5.19567 -11.98312,12.45072 -10.32643,21.25072 -4.83044,-5.95524 4.06519,-17.92363 10.32643,-21.25072 z"
             id="path127" />
          <path
             d="m 123.53213,200.42245 c -0.82535,5.19567 -11.98312,12.45072 -10.32643,21.25072 -4.83044,-5.95524 4.06519,-17.92363 10.32643,-21.25072 z"
             stroke="#000000"
             stroke-linecap="round"
             stroke-linejoin="round"
             stroke-width="0.677539"
             id="path128" />
        </g>
        <g
           id="g130">
          <path
             d="m 101.90989,196.38044 c 6.67904,2.22188 15.4624,18.51054 9.76173,20.3364 2.57908,-8.8759 -10.51916,-15.81821 -9.76173,-20.3364 z"
             id="path129" />
          <path
             d="m 101.90989,196.38044 c 6.67904,2.22188 15.4624,18.51054 9.76173,20.3364 2.57908,-8.8759 -10.51916,-15.81821 -9.76173,-20.3364 z"
             stroke="#000000"
             stroke-linecap="round"
             stroke-linejoin="round"
             stroke-width="0.677539"
             id="path130" />
        </g>
        <g
           id="g132">
          <path
             d="m 85.53076,146.00622 c 3.366319,9.85979 13.368023,15.94467 20.40676,23.47347 6.46593,1.98702 9.51435,23.24138 4.62305,9.58269 -6.10911,-11.97855 -20.214517,-17.55319 -25.832705,-29.79449 -0.380612,-0.56547 -0.885185,-3.43873 0.802895,-3.26167 z"
             id="path131" />
          <path
             d="m 85.53076,146.00622 c 3.366319,9.85979 13.368023,15.94467 20.40676,23.47347 6.46593,1.98702 9.51435,23.24138 4.62305,9.58269 -6.10911,-11.97855 -20.214517,-17.55319 -25.832705,-29.79449 -0.380612,-0.56547 -0.885185,-3.43873 0.802895,-3.26167 z"
             stroke="#000000"
             stroke-linecap="round"
             stroke-linejoin="round"
             stroke-width="0.677539"
             id="path132" />
        </g>
        <g
           id="g134">
          <path
             d="m 94.8289,148.93916 c 3.584903,10.43459 22.35395,19.31338 17.32762,30.72734 0.92488,-13.15374 -19.024,-19.7141 -17.32762,-30.72766 z"
             id="path133" />
          <path
             d="m 94.8289,148.93916 c 3.584903,10.43459 22.35395,19.31338 17.32762,30.72734 0.92488,-13.15374 -19.024,-19.7141 -17.32762,-30.72766 z"
             stroke="#000000"
             stroke-linecap="round"
             stroke-linejoin="round"
             stroke-width="0.677539"
             id="path134" />
        </g>
        <g
           id="g136">
          <path
             d="m 90.65347,164.29466 c 2.876229,12.25268 23.72418,11.79777 23.04406,26.67422 -3.10251,-0.89341 -6.2041,-14.08299 -14.650518,-14.68976 -3.523285,-1.53332 -12.707919,-7.95368 -8.393542,-11.98446 z"
             id="path135" />
          <path
             d="m 90.65347,164.29466 c 2.876229,12.25268 23.72418,11.79777 23.04406,26.67422 -3.10251,-0.89341 -6.2041,-14.08299 -14.650518,-14.68976 -3.523285,-1.53332 -12.707919,-7.95368 -8.393542,-11.98446 z"
             stroke="#000000"
             stroke-linecap="round"
             stroke-linejoin="round"
             stroke-width="0.677539"
             id="path136" />
        </g>
        <g
           id="g138">
          <path
             d="m 132.97461,141.33932 c 1.74473,13.38967 -19.56825,19.33483 -19.79845,33.5838 -5.02893,-12.6839 17.45931,-20.32821 19.00261,-33.31907 l 0.79584,-0.26504 z"
             id="path137" />
          <path
             d="m 132.97461,141.33932 c 1.74473,13.38967 -19.56825,19.33483 -19.79845,33.5838 -5.02893,-12.6839 17.45931,-20.32821 19.00261,-33.31907 l 0.79584,-0.26504 z"
             stroke="#000000"
             stroke-linecap="round"
             stroke-linejoin="round"
             stroke-width="0.677539"
             id="path138" />
        </g>
        <g
           id="g140">
          <path
             d="m 131.63666,157.24109 c -0.001,8.98872 -19.68201,10.14765 -18.45546,22.42441 -6.04607,-10.15176 13.39008,-15.91165 18.45546,-22.42441 z"
             id="path139" />
          <path
             d="m 131.63666,157.24109 c -0.001,8.98872 -19.68201,10.14765 -18.45546,22.42441 -6.04607,-10.15176 13.39008,-15.91165 18.45546,-22.42441 z"
             stroke="#000000"
             stroke-linecap="round"
             stroke-linejoin="round"
             stroke-width="0.677539"
             id="path140" />
        </g>
        <g
           id="g142">
          <path
             d="m 139.59611,155.4759 c 1.7977,14.45995 -26.68292,10.77197 -26.41199,26.89933 -6.02497,-14.41579 22.00306,-14.2561 25.3754,-25.86139 l 0.2969,-0.73945 0.73969,-0.29848 z"
             id="path141" />
          <path
             d="m 139.59611,155.4759 c 1.7977,14.45995 -26.68292,10.77197 -26.41199,26.89933 -6.02497,-14.41579 22.00306,-14.2561 25.3754,-25.86139 l 0.2969,-0.73945 0.73969,-0.29848 z"
             stroke="#000000"
             stroke-linecap="round"
             stroke-linejoin="round"
             stroke-width="0.677539"
             id="path142" />
        </g>
        <g
           id="g144">
          <path
             d="m 125.47163,173.3181 c -0.9648,5.22247 -14.05571,11.75028 -12.27405,21.2536 -5.1388,-6.54001 5.43712,-18.18405 12.27405,-21.2536 z"
             id="path143" />
          <path
             d="m 125.47163,173.3181 c -0.9648,5.22247 -14.05571,11.75028 -12.27405,21.2536 -5.1388,-6.54001 5.43712,-18.18405 12.27405,-21.2536 z"
             stroke="#000000"
             stroke-linecap="round"
             stroke-linejoin="round"
             stroke-width="0.677539"
             id="path144" />
        </g>
        <g
           id="g146">
          <path
             d="m 99.86894,169.28072 c 7.46915,2.11707 17.6917,17.63618 11.79449,20.33467 2.43547,-9.61464 -12.001878,-15.48045 -11.79449,-20.33467 z"
             id="path145" />
          <path
             d="m 99.86894,169.28072 c 7.46915,2.11707 17.6917,17.63618 11.79449,20.33467 2.43547,-9.61464 -12.001878,-15.48045 -11.79449,-20.33467 z"
             stroke="#000000"
             stroke-linecap="round"
             stroke-linejoin="round"
             stroke-width="0.677539"
             id="path146" />
        </g>
        <g
           id="g148">
          <path
             d="m 79.86937,118.91141 c 3.970335,10.05623 15.111913,15.19106 23.02656,22.197 4.40882,2.40308 14.30004,14.56461 8.75265,15.30763 -3.08978,-12.16137 -16.380606,-17.3322 -24.913833,-25.3067 -2.609158,-2.38513 -10.882864,-9.00596 -6.865377,-12.19793 z"
             id="path147" />
          <path
             d="m 79.86937,118.91141 c 3.970335,10.05623 15.111913,15.19106 23.02656,22.197 4.40882,2.40308 14.30004,14.56461 8.75265,15.30763 -3.08978,-12.16137 -16.380606,-17.3322 -24.913833,-25.3067 -2.609158,-2.38513 -10.882864,-9.00596 -6.865377,-12.19793 z"
             stroke="#000000"
             stroke-linecap="round"
             stroke-linejoin="round"
             stroke-width="0.677539"
             id="path148" />
        </g>
        <g
           id="g150">
          <path
             d="m 91.11544,121.84206 c 4.330152,10.88438 25.86022,18.18018 21.0329,30.72332 0.54406,-14.16929 -22.666614,-19.24092 -21.0329,-30.72332 z"
             id="path149" />
          <path
             d="m 91.11544,121.84206 c 4.330152,10.88438 25.86022,18.18018 21.0329,30.72332 0.54406,-14.16929 -22.666614,-19.24092 -21.0329,-30.72332 z"
             stroke="#000000"
             stroke-linecap="round"
             stroke-linejoin="round"
             stroke-width="0.677539"
             id="path150" />
        </g>
        <g
           id="g152">
          <path
             d="m 91.11549,121.84222 c 4.330002,10.88489 25.85983,18.17946 21.03289,30.7233 0.4395,-14.15922 -22.292525,-19.04579 -21.03289,-30.72341 z"
             id="path151" />
          <path
             d="m 91.11549,121.84222 c 4.330002,10.88489 25.85983,18.17946 21.03289,30.7233 0.4395,-14.15922 -22.292525,-19.04579 -21.03289,-30.72341 z"
             stroke="#000000"
             stroke-linecap="round"
             stroke-linejoin="round"
             stroke-width="0.677539"
             id="path152" />
        </g>
        <g
           id="g154">
          <path
             d="m 86.05044,137.19728 c 3.993855,13.13087 27.33352,10.48577 27.63867,26.66952 -3.13925,-0.57046 -6.45085,-13.52644 -14.81454,-13.513 -4.47515,-2.13972 -17.132699,-6.84216 -12.82413,-13.15652 z"
             id="path153" />
          <path
             d="m 86.05044,137.19728 c 3.993855,13.13087 27.33352,10.48577 27.63867,26.66952 -3.13925,-0.57046 -6.45085,-13.52644 -14.81454,-13.513 -4.47515,-2.13972 -17.132699,-6.84216 -12.82413,-13.15652 z"
             stroke="#000000"
             stroke-linecap="round"
             stroke-linejoin="round"
             stroke-width="0.677539"
             id="path154" />
        </g>
        <g
           id="g156">
          <path
             d="m 137.17979,114.23296 c 1.45238,11.80931 -16.13327,16.64944 -21.42779,26.38821 -1.05575,5.93195 -5.79595,10.63229 -2.98852,1.24493 5.07783,-11.44593 20.47764,-14.96581 23.62051,-27.36773 l 0.7958,-0.26573 z"
             id="path155" />
          <path
             d="m 137.17979,114.23296 c 1.45238,11.80931 -16.13327,16.64944 -21.42779,26.38821 -1.05575,5.93195 -5.79595,10.63229 -2.98852,1.24493 5.07783,-11.44593 20.47764,-14.96581 23.62051,-27.36773 l 0.7958,-0.26573 z"
             stroke="#000000"
             stroke-linecap="round"
             stroke-linejoin="round"
             stroke-width="0.677539"
             id="path156" />
        </g>
        <g
           id="g158">
          <path
             d="m 135.5032,130.1358 c -0.59379,9.65252 -22.77969,9.03094 -22.33007,22.42894 -5.77805,-11.57574 16.5248,-15.37622 22.33007,-22.42894 z"
             id="path157" />
          <path
             d="m 135.5032,130.1358 c -0.59379,9.65252 -22.77969,9.03094 -22.33007,22.42894 -5.77805,-11.57574 16.5248,-15.37622 22.33007,-22.42894 z"
             stroke="#000000"
             stroke-linecap="round"
             stroke-linejoin="round"
             stroke-width="0.677539"
             id="path158" />
        </g>
        <g
           id="g160">
          <path
             d="m 145.19866,128.36829 c -3.97944,9.71891 -17.21581,9.58426 -25.49369,14.72372 -8.01635,0.62138 -9.46625,20.2387 -4.7864,6.73872 7.54816,-10.22653 23.70056,-7.66009 30.8324,-18.10902 0.34753,-0.53084 1.0753,-3.30743 -0.55231,-3.35342 z"
             id="path159" />
          <path
             d="m 145.19866,128.36829 c -3.97944,9.71891 -17.21581,9.58426 -25.49369,14.72372 -8.01635,0.62138 -9.46625,20.2387 -4.7864,6.73872 7.54816,-10.22653 23.70056,-7.66009 30.8324,-18.10902 0.34753,-0.53084 1.0753,-3.30743 -0.55231,-3.35342 z"
             stroke="#000000"
             stroke-linecap="round"
             stroke-linejoin="round"
             stroke-width="0.677539"
             id="path160" />
        </g>
        <g
           id="g162">
          <path
             d="m 128.1948,146.21414 c -0.70962,5.36707 -15.61206,8.96207 -14.41684,18.59703 -5.9016,4.59308 3.82428,-17.75608 12.47873,-17.7256 l 1.36674,-0.74353 0.57137,-0.1282 z"
             id="path161" />
          <path
             d="m 128.1948,146.21414 c -0.70962,5.36707 -15.61206,8.96207 -14.41684,18.59703 -5.9016,4.59308 3.82428,-17.75608 12.47873,-17.7256 l 1.36674,-0.74353 0.57137,-0.1282 z"
             stroke="#000000"
             stroke-linecap="round"
             stroke-linejoin="round"
             stroke-width="0.677539"
             id="path162" />
        </g>
        <g
           id="g164">
          <path
             d="m 97.23528,142.18236 c 7.86774,3.02953 19.7128,13.36162 14.92494,21.22367 0.17598,-10.00033 -9.35387,-15.5101 -15.96646,-20.46728 l 0.385674,-0.5643 0.655846,-0.19239 z"
             id="path163" />
          <path
             d="m 97.23528,142.18236 c 7.86774,3.02953 19.7128,13.36162 14.92494,21.22367 0.17598,-10.00033 -9.35387,-15.5101 -15.96646,-20.46728 l 0.385674,-0.5643 0.655846,-0.19239 z"
             stroke="#000000"
             stroke-linecap="round"
             stroke-linejoin="round"
             stroke-width="0.677539"
             id="path164" />
        </g>
        <g
           id="g166">
          <path
             d="m 90.79229,99.6406 c -3.582016,13.20702 5.31609,28.43942 20.13037,26.98637 13.54856,2.02659 28.24356,-9.29092 23.95359,-23.87882 C 131.5963,90.584885 128.46093,76.551518 117.81211,68.643279 104.52678,62.716556 95.673888,79.26416 92.797853,89.998222 91.884536,93.154952 91.221632,96.382987 90.79229,99.6406 Z"
             id="path165" />
          <path
             d="m 90.79229,99.6406 c -3.582016,13.20702 5.31609,28.43942 20.13037,26.98637 13.54856,2.02659 28.24356,-9.29092 23.95359,-23.87882 C 131.5963,90.584885 128.46093,76.551518 117.81211,68.643279 104.52678,62.716556 95.673888,79.26416 92.797853,89.998222 91.884536,93.154952 91.221632,96.382987 90.79229,99.6406 Z"
             stroke="#000000"
             stroke-linecap="round"
             stroke-linejoin="round"
             stroke-width="0.677539"
             id="path166" />
        </g>
        <g
           id="g168">
          <path
             d="m 112.45668,65.92349 c -14.371395,1.605689 -20.09929,17.916195 -22.611408,30.217619 -3.192048,12.152511 0.19804,29.128351 14.977788,31.023771 12.31358,2.76528 29.7045,-1.25461 31.72439,-15.87393 0.91097,-12.320476 -4.39458,-24.321362 -9.89877,-35.07233 -3.02907,-5.097222 -7.76474,-10.335736 -14.192,-10.29513 z m 0.003,2.477046 c 12.02471,2.217045 15.24095,16.690112 18.898,26.631373 5.62802,11.578291 1.8753,29.053901 -13.2313,29.939171 -13.17552,3.50341 -29.101422,-5.31853 -26.277295,-20.55845 1.086586,-13.088559 4.833199,-28.85222 17.403775,-35.418553 l 1.61069,-0.442964 z"
             id="path167" />
          <path
             d="m 112.45668,65.92349 c -14.371395,1.605689 -20.09929,17.916195 -22.611408,30.217619 -3.192048,12.152511 0.19804,29.128351 14.977788,31.023771 12.31358,2.76528 29.7045,-1.25461 31.72439,-15.87393 0.91097,-12.320476 -4.39458,-24.321362 -9.89877,-35.07233 -3.02907,-5.097222 -7.76474,-10.335736 -14.192,-10.29513 z m 0.003,2.477046 c 12.02471,2.217045 15.24095,16.690112 18.898,26.631373 5.62802,11.578291 1.8753,29.053901 -13.2313,29.939171 -13.17552,3.50341 -29.101422,-5.31853 -26.277295,-20.55845 1.086586,-13.088559 4.833199,-28.85222 17.403775,-35.418553 l 1.61069,-0.442964 z"
             stroke="#000000"
             stroke-linecap="round"
             stroke-linejoin="round"
             stroke-width="0.677539"
             id="path168" />
        </g>
        <g
           id="g170">
          <path
             d="m 100.09505,109.59406 c 0.56997,-21.367111 34.20441,-11.344736 23.96992,6.92557 -5.85371,10.42474 -25.651822,6.38114 -23.96992,-6.92557 z"
             fill="#cccccc"
             id="path169" />
          <path
             d="m 100.09505,109.59406 c 0.56997,-21.367111 34.20441,-11.344736 23.96992,6.92557 -5.85371,10.42474 -25.651822,6.38114 -23.96992,-6.92557 z"
             stroke="#000000"
             stroke-linecap="round"
             stroke-linejoin="round"
             stroke-width="0.677539"
             id="path170" />
        </g>
        <g
           id="g172">
          <g
             id="feature-0">
            <path
               d="m 103.75893,108.235 c 0.78574,-17.210978 23.5812,-8.660978 17.70546,5.45535 -1.79855,8.25246 -10.57001,-2.67128 -15.49417,3.65932 -2.03845,-2.48003 -1.94692,-6.08798 -2.21129,-9.11467 z"
               fill="#ff0000"
               id="path171" />
          </g>
          <path
             d="m 103.75893,108.235 c 0.78574,-17.210978 23.5812,-8.660978 17.70546,5.45535 -1.79855,8.25246 -10.57001,-2.67128 -15.49417,3.65932 -2.03845,-2.48003 -1.94692,-6.08798 -2.21129,-9.11467 z"
             stroke="#000000"
             stroke-linecap="round"
             stroke-linejoin="round"
             stroke-width="0.677539"
             id="path172" />
        </g>
        <g
           id="g174">
          <path
             d="M 111.71548,132.3044 C 101.50323,127.20182 85.766958,125.27474 85.762999,110.47659 84.419718,94.548798 90.72066,78.408463 99.99274,65.874545 89.396696,71.105386 85.882952,88.870769 83.57044,100.75832 c -1.796038,11.20932 2.175608,25.44952 14.792376,28.11057 5.959494,-0.0799 17.383554,11.27141 14.291304,3.72768 7.26106,-6.50255 22.41661,-2.10167 26.9948,-13.32615 7.34103,-15.25175 -2.2884,-31.713197 -8.51549,-45.569351 -1.56339,-6.533899 -8.92634,-8.724839 -2.9973,-1.027693 6.0981,13.277099 15.22599,28.138154 10.64842,43.231204 -2.92202,13.50443 -20.96503,7.66401 -27.35881,15.8683 l 0.28971,0.53155 z"
             id="path173" />
          <path
             d="M 111.71548,132.3044 C 101.50323,127.20182 85.766958,125.27474 85.762999,110.47659 84.419718,94.548798 90.72066,78.408463 99.99274,65.874545 89.396696,71.105386 85.882952,88.870769 83.57044,100.75832 c -1.796038,11.20932 2.175608,25.44952 14.792376,28.11057 5.959494,-0.0799 17.383554,11.27141 14.291304,3.72768 7.26106,-6.50255 22.41661,-2.10167 26.9948,-13.32615 7.34103,-15.25175 -2.2884,-31.713197 -8.51549,-45.569351 -1.56339,-6.533899 -8.92634,-8.724839 -2.9973,-1.027693 6.0981,13.277099 15.22599,28.138154 10.64842,43.231204 -2.92202,13.50443 -20.96503,7.66401 -27.35881,15.8683 l 0.28971,0.53155 z"
             stroke="#000000"
             stroke-linecap="round"
             stroke-linejoin="round"
             stroke-width="0.677539"
             id="path174" />
        </g>
        <g
           id="g176">
          <path
             d="m 138.14428,71.86623 c -2.54695,8.251731 4.04459,18.887778 5.40183,27.896618 3.43286,11.969732 -1.7417,27.441292 -15.1671,30.128852 -10.24474,2.8681 -16.82281,9.35972 -26.12343,1.82751 -13.009895,-2.03764 -23.557615,-13.42263 -21.508331,-27.02857 -0.750358,-10.300544 8.337914,-22.476297 5.739131,-30.72802 -4.45582,14.718735 -12.811169,32.02409 -4.433362,47.01115 5.139778,12.91049 24.474122,8.93087 30.009212,20.12979 4.01436,-8.28532 20.88855,-7.87851 28.49513,-15.90493 10.26109,-11.58445 5.17951,-27.670663 0.97421,-40.641294 -1.87952,-3.8124 -0.89113,-9.749495 -3.38729,-12.691106 z"
             id="path175" />
          <path
             d="m 138.14428,71.86623 c -2.54695,8.251731 4.04459,18.887778 5.40183,27.896618 3.43286,11.969732 -1.7417,27.441292 -15.1671,30.128852 -10.24474,2.8681 -16.82281,9.35972 -26.12343,1.82751 -13.009895,-2.03764 -23.557615,-13.42263 -21.508331,-27.02857 -0.750358,-10.300544 8.337914,-22.476297 5.739131,-30.72802 -4.45582,14.718735 -12.811169,32.02409 -4.433362,47.01115 5.139778,12.91049 24.474122,8.93087 30.009212,20.12979 4.01436,-8.28532 20.88855,-7.87851 28.49513,-15.90493 10.26109,-11.58445 5.17951,-27.670663 0.97421,-40.641294 -1.87952,-3.8124 -0.89113,-9.749495 -3.38729,-12.691106 z"
             stroke="#000000"
             stroke-linecap="round"
             stroke-linejoin="round"
             stroke-width="0.677539"
             id="path176" />
        </g>
      </g>
    </g>
  </g>
</svg>
