<?xml version="1.0" encoding="UTF-8" standalone="no"?>
<svg
   width="100%"
   height="100%"
   viewBox="0 0 220 300"
   version="1.1"
   xml:space="preserve"
   style="fill-rule:evenodd;clip-rule:evenodd;stroke-linecap:round;stroke-linejoin:round;"
   id="svg1"
   xmlns="http://www.w3.org/2000/svg"
   xmlns:svg="http://www.w3.org/2000/svg"
   xmlns:rdf="http://www.w3.org/1999/02/22-rdf-syntax-ns#"
   xmlns:cc="http://creativecommons.org/ns#"
   xmlns:dc="http://purl.org/dc/elements/1.1/"><defs
   id="defs1" />&#10;    <g
   id="body">&#10;        <g
   id="g220">&#10;            <path
   id="path222"
   d="m 150.394,224.631 c 2.75931,8.35562 4.98903,16.91556 6.16591,25.64144 1.44307,3.03903 5.64467,2.92881 8.57352,2.94253 2.9858,-0.27661 6.83839,-2.54141 9.30825,0.0332 2.0313,3.76287 -3.19175,5.52185 -6.11207,5.19144 -2.38463,0.15733 -4.81223,-0.16481 -7.17189,0.17391 -2.48394,2.42227 2.90982,5.31482 3.6778,7.9518 2.47118,4.40639 5.26574,8.78256 6.32077,13.79094 0.45256,2.90041 1.82475,6.44229 -0.1611,9.0261 -3.80741,2.05691 -5.35507,-3.08802 -6.44819,-5.63734 -4.47018,-1.38728 -1.92393,-6.26449 -3.84233,-9.04095 -2.69859,-2.57105 -4.78927,-5.72674 -6.10267,-9.21905 -5.25683,6.09095 -11.34316,11.40916 -17.709,16.307 -0.0472,4.03291 -4.41696,5.93091 -7.84864,4.48657 -3.68568,-0.81884 -7.30037,0.66221 -10.73736,1.82543 -1.49204,-2.42254 0.033,-5.85552 2.31235,-7.17778 5.58956,-3.88614 12.47429,-5.33784 18.12299,-9.04956 2.64062,-2.89416 6.31111,-5.25021 6.99732,-9.41624 -1.68204,-1.84507 -6.64849,0.91817 -9.33246,1.57073 -4.22279,1.34506 -8.15434,3.76687 -12.57915,4.37102 -3.86893,0.82255 -6.70493,-3.13832 -10.46803,-2.15758 -2.31726,1.11952 -5.51342,0.46028 -4.24502,-2.80159 1.37533,-2.92346 5.23233,-3.36899 8.10588,-3.6067 3.59909,1.03744 7.50817,2.56933 11.14074,0.45737 2.85506,-2.06217 6.24285,-3.30287 9.78066,-3.46348 3.01992,0.26275 4.44414,-3.35062 7.62372,-2.86865 2.5685,-0.23288 0.47291,-5.24318 0.25767,-7.30754 -1.89608,-5.0493 -5.52676,-9.21139 -8.05243,-13.94835 -1.3186,-2.70409 -4.2356,-6.67416 -3.94896,-8.93717 5.46665,0.0857 10.90367,0.8191 16.37172,0.86252 z"
   style="fill:#ffff00;stroke:#000000;stroke-width:1.73px" />&#10;            <path
   id="path224"
   d="M113.61,215.571C108.582,222.297 102.893,227.373 97.109,232.213C99.033,233.719 102.607,234.235 106.418,234.61C109.003,235.362 110.085,237.055 109.661,239.687C110.186,242.328 110.051,244.307 105.289,241.662C102.375,241.003 100.354,240.345 98.943,239.687C98.099,239.779 97.067,240.059 94.712,241.662C92.737,242.273 90.763,243.824 88.789,246.316C87.19,248.241 85.592,250.355 83.993,253.791C82.363,259.842 80.876,266.226 76.942,266.907C75.458,269.743 73.892,272.543 69.749,274.241C69.327,274.356 68.812,274.116 67.633,276.215C65.421,281.659 63.406,281.395 61.569,275.933C61.619,274.1 60.968,272.266 63.826,270.433C67.163,267.38 70.548,264.044 74.262,258.727C74.403,256 74.544,253.273 74.685,250.547C74.638,249.607 70.83,251.11 63.261,255.06C57.785,258.327 53.131,260.537 50.286,260.419C48.171,260.043 45.68,260.607 42.812,262.112C40.741,263.713 38.86,264.985 38.299,263.945C38.863,262.065 38.44,260.184 39.991,258.304C42.212,254.377 55.399,249.534 64.531,245.47C57.172,244.765 48.896,241.943 48.171,239.546C45.883,240.336 43.094,241.727 42.812,240.111C42.859,238.841 42.342,237.572 42.953,236.303C46.009,234.798 48.782,234.281 52.12,234.751C55.881,234.497 64.156,235.635 70.172,237.431C73.651,238.653 79.104,239.452 80.609,237.713C89.894,229.392 95.159,219.519 101.2,210.776C105.102,212.139 109.709,214.208 113.611,215.571L113.61,215.571Z"
   style="fill:#ff0;stroke:#000;stroke-width:1.73px;" />&#10;            <path
   id="path226"
   d="M2.149,31.156C5.018,27.24 8.448,21.389 14.313,18.47C21.024,4.91 27.148,4.814 38.75,4.838C50.352,4.862 58.996,8.932 65.985,17.997C71.615,26.376 74.625,34.817 74.642,43.695C74.882,52.323 74.373,57.022 74.613,65.65C75.138,69.288 77.161,70.745 80.493,70.94C100.619,69.67 119.178,71.622 132.135,76.238C157.18,86.557 176.591,103.173 193.153,122.975C206.297,139.416 210.743,148.737 213.385,156.05C215.84,161.75 217.161,167.086 217.571,172.588C217.769,175.247 218.208,177.86 218.103,180.497C218.307,186.024 215.315,187.169 211.947,187.688C210.509,187.688 209.071,187.688 207.633,187.688C209.82,189.966 211.258,195.239 211.947,203.506C213.601,214.267 212.881,222.468 210.539,229.234C205.886,240.34 195.04,235.432 194.691,224.358C185.156,225.848 184.603,230.333 166.649,229.391C144.225,228.462 132.967,226.409 127.821,224.358C82.953,208.989 42.641,183.779 24.281,143.827C15.212,124.317 13.785,108.317 14.214,92.057C13.043,78.304 14.399,66.58 18.844,56.322C19.783,53.639 19.594,46.465 18.844,42.286C18.581,39.994 18.505,38.264 15.997,36.908C12.504,34.429 7.949,32.137 2.149,31.156L2.149,31.156Z"
   style="fill:#ff0;stroke:#000;stroke-width:1.73px;" />&#10;        </g>&#10;        <g
   id="g228">&#10;            <path
   id="path230"
   d="M2.738,31.044C15.985,33.183 22.909,26.694 28.74,35.144"
   style="fill:#ff0;stroke:#000;stroke-width:1.22px;" />&#10;            <path
   id="path232"
   d="M17.169,25.049C20.631,21.383 23.951,18.241 24.331,24.889"
   style="fill:#ff0;stroke:#000;stroke-width:1.22px;" />&#10;            <path
   id="path234"
   d="M40.753,27.823C43.65,32.369 45.259,34.489 49.118,35.497C53.95,36.567 55.553,35.827 54.287,29.18C52.396,23.573 48.652,20.73 43.819,19.898C43.618,23.716 42.576,24.52 40.931,25.083C38.339,26.129 35.765,25.946 34.434,24.6C32.429,22.35 33.191,20.059 35.757,18.452C38.003,17.08 41.092,17.036 43.939,19.898"
   style="fill:#ff0;stroke:#000;stroke-width:1.22px;" />&#10;            <path
   id="path238"
   d="M37.69,18.326C37.979,18.153 38.073,17.777 37.9,17.488C37.728,17.199 37.353,17.105 37.064,17.278L37.69,18.326ZM37.69,18.326L37.683,18.33L38.31,19.378L38.317,19.374L37.69,18.326ZM37.683,18.33L37.675,18.335L37.997,18.854L37.683,18.33L37.683,18.33ZM37.675,18.335C37.314,18.557 36.98,18.805 36.675,19.072L37.483,19.992C37.744,19.763 38.025,19.555 38.319,19.373L37.675,18.335L37.675,18.335ZM36.675,19.072C36.371,19.339 36.087,19.635 35.828,19.951L36.777,20.721C36.986,20.466 37.222,20.221 37.483,19.992L36.675,19.072ZM35.828,19.951C34.506,21.569 33.939,23.688 34.499,25.679L35.674,25.348C35.226,23.758 35.696,22.045 36.777,20.721L35.828,19.951ZM34.499,25.679C34.59,26.003 34.927,26.192 35.251,26.101C35.575,26.01 35.765,25.672 35.674,25.348L34.499,25.679Z"
   style="fill:#ff0;" />&#10;            <path
   id="path240"
   d="m 60.034,47.289 c 1.159661,2.424178 2.691961,4.70336 3.507388,7.265674 -1.070892,0.955768 -5.023019,-4.773939 -2.904861,-1.818461 1.159946,2.444134 3.314213,4.825687 4.195739,7.079625 -2.193371,-0.308544 -3.736452,-3.191851 -4.740514,-5.031471 -0.124988,2.903893 3.039012,4.644491 3.894674,7.279633 1.213177,3.303701 -2.899374,0.582472 -2.593801,-1.283016 -0.478527,-1.586463 -3.547483,-2.994959 -1.964939,-0.291925 0.980728,2.240412 4.217168,4.466903 3.595314,6.812941 -2.047543,0.112887 -3.171834,-5.026185 -3.9675,-3.921 0.577373,2.08014 2.717948,3.650793 3.972215,5.484947 0.33989,3.181473 -2.50922,-0.201149 -3.064184,-1.389603 -2.882827,-0.65764 1.021374,2.783411 1.225338,3.961697 1.230365,3.570179 -4.328757,-3.808568 -2.677994,0.03799 0.505832,1.350381 4.664518,3.828998 1.855969,4.417985 -0.673821,-0.731938 -3.322756,-4.630516 -2.621693,-1.642321 0.486271,1.497608 2.794519,4.373747 2.754083,4.852836 -1.228975,-0.680337 -4.810331,-4.164248 -2.500234,-1.179781 0.847116,1.297168 3.400177,4.79226 2.676,5.15325 -1.079561,-0.850632 -3.90833,-3.456546 -4.364801,-2.837379 1.093826,1.23238 4.514313,4.081032 3.285301,5.091004 -1.073033,-1.094991 -3.491708,-4.168746 -4.396102,-3.824309 0.218022,1.961134 3.471953,2.760676 3.151602,4.235059 -1.222858,0.457659 -4.596245,-2.982385 -3.31,-0.223 0.856206,0.965968 4.283545,4.122726 0.924451,3.180262 -0.84186,-0.455571 -3.152461,-3.805714 -1.652037,-1.064344 0.690144,0.829254 2.12337,4.870819 -0.02341,2.579707 -0.200134,-1.735034 -4.131974,-3.422883 -1.347502,-0.961041 1.399771,0.641001 3.201379,5.377454 0.400326,3.204129 -1.147887,-0.67117 -3.298717,-3.807277 -1.392563,-1.082459 0.544555,0.805925 3.065143,5.407161 0.804567,2.909684 -0.691895,-1.19069 -3.571036,-3.981666 -2.469375,-0.9775 1.056922,0.816418 4.142282,4.067191 0.854828,3.231541 -0.896531,-0.592098 -2.671141,-5.435124 -2.114772,-2.00543 -0.06127,1.154116 1.936976,3.604462 1.428425,3.890949 -1.982983,-0.325489 -2.474458,-3.945368 -4.184715,-3.520623 0.572424,2.166538 3.82213,4.274775 2.892359,6.42514 -2.333,-0.28063 -2.461965,-4.611439 -4.430103,-4.417954 -1.336778,2.732168 4.417764,4.442744 2.157009,6.673564 -1.979401,-0.62957 -2.704992,-4.65387 -4.949125,-3.807734 0.119035,1.959324 3.522182,4.244254 2.250016,5.901364 -2.122385,-1.08269 -2.774114,-3.93201 -4.638535,-5.08866 -0.18333,2.53032 3.357146,4.69937 2.284951,6.95226 -2.627671,-0.89725 -2.573807,-4.58051 -4.677775,-5.97764 0.543345,2.70219 2.001243,5.20242 3.331453,7.61368 0.454111,1.51089 -2.870814,-1.05455 -3.012609,-2.35691 -0.908918,-1.53786 -1.566938,-3.26126 -2.677501,-4.65216 -0.185622,3.32836 3.114365,5.49035 4.046762,8.50808 -1.351883,1.69377 -3.795606,-2.46809 -4.369527,-4.04212 -0.78779,-1.09372 -1.579542,-3.79894 -2.700936,-3.7941 0.09132,3.11697 2.651522,5.8261 1.881392,8.99734 -2.010176,-0.81137 -2.159071,-4.59405 -2.470925,-6.7674 0.266549,-1.44216 -1.548909,-4.27538 -1.309249,-1.1178 0.09726,2.70313 1.21694,5.38583 0.781408,8.08057 -2.53427,-0.88521 -1.786027,-4.93518 -1.856284,-7.24177 -0.171848,-1.05069 0.301393,-2.79329 -0.467645,-3.34823 -1.538863,2.58804 0.249351,5.58564 -0.39676,8.36511 0.108269,1.57161 -1.392412,2.68591 -1.489814,0.4344 -0.344683,-3.08872 0.429913,-6.29712 -0.352804,-9.34137 -1.925277,1.15567 -1.561668,4.51198 -1.973458,6.68086 0.04504,1.78624 -1.231015,3.05904 -0.903624,0.43773 -0.52332,-2.95466 1.87698,-5.41222 1.530894,-8.315905 -1.839501,0.653285 -2.327767,5.124635 -3.796289,7.143095 -1.64339,1.02257 0.119565,-3.33921 0.48,-4.12469 0.462158,-1.39499 3.081046,-6.067956 0.09273,-3.387951 -0.965558,1.022791 -0.873732,6.661171 -2.808376,4.324451 -0.964422,-1.50128 3.074291,-4.523791 0.163528,-4.029828 -0.697916,0.441868 -0.872171,1.323018 -0.873387,2.085328"
   style="fill:#ffff00;stroke:#000000;stroke-width:0.69px" />&#10;            <path
   id="path242"
   d="M52.572,44.452L54.68,49.957C54.881,50.177 56.424,52.735 54.763,51.902C53.813,51.426 50.964,47.204 50.964,47.382C50.964,50.118 53.872,51.248 54.347,53.627C55.059,57.373 53.16,54.102 52.447,52.616C51.082,49.88 49.539,50.177 51.319,52.853C52.21,54.221 57.018,62.19 53.16,58.325C51.676,56.838 54.169,61.001 54.169,61.001C55.415,63.499 52.685,61.06 52.21,60.585C49.183,57.552 51.973,61.358 52.922,62.844C55.059,66.115 51.379,61.952 50.607,61.179C50.429,61.001 50.429,63.261 51.141,63.974C51.795,64.629 52.447,65.877 52.982,66.71C54.169,68.494 51.735,66.353 51.379,65.877C51.141,65.58 49.42,64.153 49.005,64.569C48.648,64.926 51.795,68.375 51.913,68.851C52.685,71.289 50.132,68.375 49.183,67.602C44.968,64.212 51.973,71.705 48.589,70.575C48.292,70.516 47.936,68.791 47.283,68.613C44.078,67.542 46.69,69.089 47.165,70.575C47.283,70.932 48.055,72.181 48.292,72.419C49.598,73.727 46.63,74.441 46.63,72.122C46.63,72.003 44.137,68.672 44.137,69.743C44.137,70.516 45.146,73.311 45.799,73.311C47.818,76.344 44.315,73.727 43.603,73.252C43.306,73.073 42.06,72.003 41.941,71.765C41.763,71.408 41.288,71.646 41.288,72.003C41.288,73.252 43.9,75.333 44.493,76.522C47.521,82.588 39.448,71.765 39.448,74.025C39.448,75.154 42.238,77.355 40.991,77.355C40.516,77.355 37.608,74.025 37.608,75.749C37.608,76.82 40.398,79.317 40.932,80.447C42.831,84.313 35.056,74.441 35.056,76.998C35.056,77.771 37.311,79.199 35.708,79.199C34.937,79.199 33.394,76.82 33.394,77.771C33.394,78.901 36.183,84.432 35.53,84.134C34.521,83.659 32.74,80.388 32.206,79.317C30.01,74.857 30.96,81.994 32.325,83.361C33.156,84.194 32.563,85.74 31.376,84.551C30.782,83.956 27.28,76.403 27.28,79.139C27.28,80.745 28.882,82.886 28.882,84.61C28.882,85.205 26.389,79.912 26.389,78.782C26.389,76.047 25.202,78.723 25.618,80.864C25.618,80.983 26.923,85.799 25.677,85.383C24.015,84.848 24.609,81.637 24.609,80.15C24.609,78.187 23.481,76.463 23.422,79.02L23.243,85.324C23.243,86.097 21.819,84.432 21.759,84.372C20.988,83.599 23.6,76.701 22.65,76.998C21.106,77.474 20.869,81.221 19.801,82.291C19.385,82.707 19.385,81.518 19.385,81.339C19.385,79.139 21.403,77.831 21.403,75.749C21.403,75.63 20.691,75.63 20.572,75.69C19.801,76.166 17.842,80.031 17.842,80.745C17.842,80.983 16.12,81.518 17.426,78.901C17.426,78.842 22.531,70.456 19.148,73.846C18.198,74.798 17.783,76.82 16.417,77.474C14.518,78.425 17.011,74.738 17.248,74.501C17.604,74.144 19.207,72.835 17.545,72.835C17.426,72.835 14.34,74.501 16.239,72.597C16.477,72.359 17.07,71.467 16.774,71.17C16.18,70.576 15.586,71.824 15.23,71.824"
   style="fill:#ff0;stroke:#000;stroke-width:0.69px;" />&#10;            &#10;            <path
   id="path248"
   d="M217.424,173.222C210.501,173.307 203.577,173.865 196.654,173.477C182.678,172.674 173.616,169.223 170.772,167.494"
   style="fill:#ff0;stroke:#000;stroke-width:1.22px;" />&#10;            &#10;            <path
   id="path254"
   d="m 117.938,118.048 c -0.70267,-1.835 -1.40533,-3.67 -2.108,-5.505 -0.22699,-0.36046 -1.46747,-1.69247 -1.14079,-0.47804 0.55624,1.9098 1.59183,3.66038 2.02642,5.60588 -0.42219,1.2046 -1.44622,-0.80124 -1.73846,-1.31966 -0.91217,-1.57197 -1.5398,-3.306 -2.55506,-4.81524 -0.65272,0.19782 0.22387,1.72206 0.52541,2.27392 0.54237,0.99962 1.38434,2.02826 1.0616,3.24444 -0.44365,1.31283 -1.46337,-0.69212 -1.82798,-1.2071 -0.75928,-1.13351 -1.31948,-2.43792 -2.3235,-3.38327 -1.38427,-0.51092 -1.2039,1.29054 -0.53269,1.95479 0.66939,1.17102 1.65121,2.15233 2.21416,3.38056 -0.51807,0.70919 -1.53118,-0.81162 -1.95139,-1.30498 -0.98828,-1.22831 -1.71455,-2.69919 -2.946,-3.71043 -1.30558,-0.39157 -0.41284,1.48236 0.0511,1.97211 0.60668,0.98801 1.50669,1.81765 1.92831,2.90305 -0.85739,0.36192 -1.64192,-0.85696 -2.25281,-1.40545 -0.80049,-0.76618 -1.50518,-1.68121 -2.47661,-2.23527 -0.33072,0.82381 0.83404,1.91153 1.44017,2.54485 0.51168,0.66835 1.30228,1.63245 1.62202,2.13093 -1.21275,0.32033 -2.11098,-0.81257 -2.90211,-1.53791 -0.77378,-0.46217 -1.37733,-1.77255 -2.27298,-1.70268 -0.21474,1.33317 1.20964,2.03694 1.97058,2.87872 0.27299,0.40379 1.72188,1.37679 1.09872,1.67002 -1.73205,-0.6389 -3.20242,-1.87201 -4.973911,-2.42406 -0.240505,0.75278 1.341391,1.52433 1.988651,2.04757 0.57354,0.54574 1.52797,0.62638 2.02926,1.07324 -0.85961,0.92613 -2.06367,-0.43819 -3.02936,-0.57515 -0.5193,-0.32568 -2.649118,-0.62219 -1.519522,0.36632 1.146742,0.74043 2.574982,0.81934 3.880852,0.89857 -1.6611,0.56419 -3.458659,0.69541 -5.107856,1.31213 0.219934,0.25923 0.955763,0.0863 1.392489,0.12283 1.109817,-7.2e-4 2.223887,-0.079 3.330807,-0.0264 -0.0913,0.65971 -1.51275,0.90243 -2.1578,1.302 -0.65687,0.35179 -1.57069,0.53588 -2.025802,1.0744 1.493442,0.0597 2.883302,-1.00605 4.396542,-0.71351 1.16024,0.45654 0.32594,2.01387 -0.72756,1.91435 -0.98875,0.27544 -2.25586,-0.01 -3.030053,0.76683 0.546048,0.75275 1.801703,0.0914 2.622943,0.18043 0.55645,-0.13719 2.4744,-0.0335 1.39127,0.74262 -0.93409,0.50594 -2.06554,0.33524 -3.02245,0.65817 -0.701502,1.17596 1.09709,1.11454 1.7154,0.59449 1.03165,-0.17876 2.4443,-0.71522 3.3063,-0.0119 -0.49428,1.14417 -2.24167,0.66841 -2.65009,1.83709 0.84494,0.30227 1.84076,-0.41967 2.71493,-0.63351 1.70375,-0.55891 0.99666,2.19636 -0.38099,1.71789 -0.56938,-0.14588 -1.75872,0.36369 -0.53575,0.52782 1.12358,0.33888 2.32972,-0.39655 3.39332,0.12736 0.16112,0.92106 -1.71158,1.2452 -2.49248,1.17629 -0.20991,-0.0571 -0.33612,-0.27358 -0.32227,-0.48417"
   style="fill:#ffff00;stroke:#000000;stroke-width:0.69px" />&#10;            &#10;            &#10;            &#10;            &#10;            &#10;            &#10;            &#10;            &#10;            &#10;            &#10;            <path
   id="path296"
   d="M208.194,187.644C197.94,187.446 188.629,188.381 177.526,186.389C144.984,181.695 111.924,162.919 108.091,159.939C94.173,151.635 82.926,139.82 73.028,126.227"
   style="fill:#ff0;stroke:#000;stroke-width:1.22px;" />&#10;            <path
   id="path298"
   d="M201.083,223.416L193.854,224.253"
   style="fill:#ff0;stroke:#000;stroke-width:1.22px;" />&#10;            <path
   id="path300"
   d="M187.177,187.661C193.471,203.271 198.899,219.4 206.058,234.492"
   style="fill:#ff0;stroke:#000;stroke-width:1.22px;" />&#10;            <path
   id="path302"
   d="M142.1,180.429C147.364,184.969 148.144,186.907 139.804,184.851"
   style="fill:#ff0;stroke:#000;stroke-width:1.22px;" />&#10;            <path
   id="path304"
   d="M217.801,179.171C209.023,181.743 198.55,181.859 186.19,180.088C174.908,178.712 151.273,171.518 150.6,170.138"
   style="fill:#ff0;stroke:#000;stroke-width:1.22px;" />&#10;            <path
   id="path306"
   d="M143.993,191.402C149.256,195.943 150.036,197.881 141.696,195.825"
   style="fill:#ff0;stroke:#000;stroke-width:1.22px;" />&#10;            <path
   id="path308"
   d="M135.667,188.375C140.931,192.916 141.711,194.854 133.371,192.798"
   style="fill:#ff0;stroke:#000;stroke-width:1.22px;" />&#10;            <path
   id="path310"
   d="M131.883,176.266C137.147,180.807 137.927,182.745 129.587,180.689"
   style="fill:#ff0;stroke:#000;stroke-width:1.22px;" />&#10;            <path
   id="path312"
   d="M124.694,184.591C129.958,189.131 130.738,191.069 122.398,189.014"
   style="fill:#ff0;stroke:#000;stroke-width:1.22px;" />&#10;            <path
   id="path314"
   d="M120.531,171.725C125.795,176.266 126.575,178.204 118.235,176.148"
   style="fill:#ff0;stroke:#000;stroke-width:1.22px;" />&#10;            <path
   id="path316"
   d="M115.234,180.05C120.498,184.59 121.278,186.529 112.938,184.473"
   style="fill:#ff0;stroke:#000;stroke-width:1.22px;" />&#10;            &#10;            &#10;            <path
   id="path326"
   d="M152.696,184.591C157.959,189.131 158.739,191.069 150.399,189.014"
   style="fill:#ff0;stroke:#000;stroke-width:1.22px;" />&#10;            &#10;            &#10;            &#10;            &#10;            &#10;            &#10;            &#10;            &#10;            <path
   id="path362"
   d="M70.742,149.439C70.616,149.126 70.259,148.976 69.947,149.103C69.634,149.23 69.483,149.587 69.61,149.899L70.742,149.439ZM70.742,149.439C71.959,152.444 72.571,154.377 72.221,154.785L73.15,155.579C73.863,154.747 73.267,152.416 71.875,148.979L70.742,149.439L70.742,149.439ZM72.221,154.785C71.953,155.098 70.561,154.171 67.645,151.635L66.846,152.555C70.411,155.656 72.356,156.507 73.15,155.579L72.221,154.785L72.221,154.785ZM67.645,151.635C67.392,151.414 67.006,151.441 66.786,151.695C66.565,151.949 66.592,152.334 66.846,152.555L67.645,151.635Z"
   style="fill:#ff0;" />&#10;        </g>&#10;    </g>&#10;<metadata
   id="metadata1"><rdf:RDF><cc:Work
       rdf:about=""><dc:creator><cc:Agent><dc:title>https://commons.wikimedia.org/wiki/User:Steschke</dc:title></cc:Agent></dc:creator></cc:Work></rdf:RDF></metadata></svg>
