<?xml version="1.0" encoding="UTF-8" standalone="no"?>
<!DOCTYPE svg PUBLIC "-//W3C//DTD SVG 1.1//EN" "http://www.w3.org/Graphics/SVG/1.1/DTD/svg11.dtd">
<svg xmlns:dc="http://purl.org/dc/elements/1.1/" xmlns:xl="http://www.w3.org/1999/xlink" version="1.1" xmlns="http://www.w3.org/2000/svg" viewBox="33.75 61.817934 297 244.84873" width="297" height="244.84873">

  <metadata> Produced by OmniGraffle 7.7.1 
    <dc:date>2018-03-13 07:12:51 +0000</dc:date><dc:title>Traceable heraldic art http://heraldicart.org/credits.html</dc:title>
  </metadata>
  <g id="Raven_Migrant" fill-opacity="1" stroke-dasharray="none" stroke="none" stroke-opacity="1" fill="#ffff00">
    <title>Raven Migrant</title>
    <g id="Raven_Migrant: Layer 2" >
      <title>Layer 2</title>
      <g id="Group_3">
        <g id="Graphic_6">
          <path d="M 186.35077 64.78131 C 182.41027 71.02845 178.37366 89.67375 179.52698 96.9781 C 180.10363 101.01471 180.00752 101.30304 175.29814 105.91631 C 169.72377 111.39457 163.57275 113.50899 163.57275 109.85682 C 163.57275 107.26185 162.03499 107.26185 160.59334 109.85682 C 159.2478 112.54789 160.88167 115.81562 164.43773 117.44949 C 169.43545 119.75613 169.81988 120.04446 170.10821 121.4861 C 170.20432 122.25498 169.43545 124.08107 168.28213 125.52271 C 165.59105 128.88656 160.40112 128.79045 159.92057 125.3305 C 159.72835 124.17718 159.34391 123.21608 159.05559 123.21608 C 157.90227 123.21608 155.98007 126.67603 155.88396 128.79045 C 155.88396 133.2115 160.2089 138.68976 162.61165 137.152 C 162.99609 136.86367 163.57275 137.72866 163.76497 139.0742 C 164.0533 140.41974 163.86108 141.47694 163.38053 141.47694 C 162.80387 141.47694 158.57504 139.45864 153.86566 137.0559 C 143.4858 131.67374 130.89541 120.04446 130.89541 115.91173 C 130.89541 113.70121 131.27985 113.41288 133.20205 113.79732 C 134.7398 114.08565 135.79701 113.79732 136.08534 112.93233 C 136.75811 111.29846 132.52928 106.87741 130.41486 106.87741 C 128.20434 106.87741 124.35994 111.01013 123.59106 114.27787 C 122.53386 118.60281 121.57276 119.17947 114.46063 119.85224 C 106.2913 120.71722 101.58192 119.27558 103.02356 116.48839 C 104.46521 113.79732 104.27299 113.6051 100.71693 113.6051 C 98.12196 113.6051 97.25698 114.08565 96.39199 116.29617 C 95.71922 117.83393 95.527 120.14057 95.81533 121.4861 C 96.39199 123.88885 96.29588 123.98496 89.08764 125.04217 C 80.05332 126.3877 77.45835 126.3877 75.05561 125.13828 C 72.46064 123.69663 72.74897 121.58221 75.63227 120.90944 C 78.41945 120.23667 78.80389 118.69892 76.30504 118.21837 C 73.22952 117.5456 68.1357 119.17947 65.63685 121.77443 L 63.13799 124.27329 L 65.34852 128.21379 C 66.501835 130.42432 67.36682 132.2504 67.27071 132.44262 C 66.886274 132.73095 57.17918 135.42203 46.126554 138.30532 C 35.554475 141.0925 34.497267 142.14971 37.38056 148.01241 C 40.648295 154.64399 44.20436 155.02843 59.00527 150.60738 C 63.42632 149.26184 68.52014 147.72408 70.34623 147.24353 C 72.17231 146.76298 77.84279 145.033 82.8405 143.39914 C 92.54759 140.22752 97.25698 138.88198 101.00526 138.01699 C 102.3508 137.72866 103.69633 137.34422 104.17688 137.0559 C 104.56132 136.76756 104.94576 136.95978 104.94576 137.44033 C 104.94576 137.92088 103.11967 138.78587 100.90915 139.45864 C 87.45377 143.39914 54.77644 154.45177 53.33479 155.50898 C 51.700924 156.7584 51.700924 156.95062 53.52701 158.29616 C 57.85195 161.66 71.595655 162.90943 77.36224 160.31447 C 79.09222 159.6417 82.35995 158.48838 84.7627 157.7195 C 87.16544 157.04673 89.56819 156.18175 90.04874 155.89342 C 90.6254 155.50898 93.79702 154.45177 97.25698 153.58678 C 100.71693 152.7218 104.3691 151.56847 105.42631 151.08793 C 109.07848 149.35795 115.51784 147.43575 115.51784 148.10852 C 115.51784 149.16573 112.05789 150.99182 104.17688 154.06733 C 100.14027 155.7012 95.91144 157.52728 94.85423 158.20005 C 93.79702 158.96893 91.20206 159.83392 89.08764 160.12225 C 84.08993 160.98724 82.45606 162.04444 83.12883 163.96664 C 83.51327 165.02385 85.05103 165.5044 87.83821 165.6005 C 90.14485 165.6005 93.02814 165.88884 94.37368 166.08106 C 97.16087 166.65771 108.2135 164.73552 111.09679 163.19776 C 112.2501 162.6211 114.55674 161.08335 116.38283 159.83392 C 120.32333 157.04673 132.04873 150.99182 132.62539 151.56847 C 133.10594 152.04902 121.76498 160.41058 118.20891 162.23666 C 116.67116 163.00554 115.51784 163.96664 115.51784 164.35108 C 115.51784 164.73552 116.67116 165.79273 118.20891 166.65771 C 119.65056 167.5227 121.86109 169.15657 123.11051 170.21378 C 124.35994 171.3671 125.70548 172.23208 125.99381 172.23208 C 126.28214 172.13597 129.16543 169.82934 132.33706 166.94604 C 135.50868 164.06275 138.39198 161.66 138.87252 161.66 C 139.35307 161.66 140.31417 160.98724 141.08305 160.21836 C 142.71692 158.58449 145.31188 158.29616 145.31188 159.6417 C 145.31188 160.12225 142.04415 163.4861 138.10365 167.04215 C 134.16314 170.59822 130.89541 174.05817 130.89541 174.73094 C 130.89541 175.49982 133.29816 177.51812 136.27756 179.44032 C 142.5247 183.47693 142.5247 183.47693 147.90685 175.01927 C 149.92515 171.94375 151.84735 169.34879 152.13568 169.34879 C 152.52012 169.34879 151.27069 172.23208 149.3485 175.69204 C 146.65742 180.97808 146.17687 182.61194 146.84964 184.63025 C 147.71463 186.84078 148.3874 187.1291 153.86566 187.60965 C 157.51783 187.89798 161.0739 187.60965 162.61165 186.93689 C 165.0144 185.97579 165.39883 186.0719 165.78327 187.70576 C 166.16771 189.1474 165.49494 189.9163 162.80387 191.0696 C 160.78556 191.9346 158.09449 192.70347 156.65284 192.79958 C 153.00067 192.9918 152.71234 193.66457 154.44231 197.7973 C 156.2684 202.21835 156.55673 208.6577 155.01897 211.4449 C 153.86566 213.65541 150.69403 214.32818 149.63682 212.5982 C 149.3485 212.02155 148.57962 211.6371 148.00296 211.6371 C 146.56131 211.6371 147.90685 217.4037 149.82904 219.5181 C 151.65513 221.53642 156.1723 221.15198 158.95948 218.65312 C 160.40112 217.30759 160.68945 217.59592 161.74666 221.15198 C 163.1883 225.95747 161.84277 228.2641 158.1906 227.39912 C 156.36451 226.91857 155.88396 227.2069 155.88396 228.74465 C 155.88396 231.53184 159.53613 235.66456 162.1311 235.66456 C 163.38053 235.66456 165.20661 234.60735 166.26382 233.26182 C 168.66657 230.2824 168.9549 230.2824 169.72377 233.35793 C 170.49265 236.24122 167.9938 244.50666 165.87938 246.23664 C 164.24552 247.6783 161.45833 245.8522 161.84277 243.54557 C 162.32332 241.0467 160.1128 241.23893 158.95948 243.8339 C 157.2295 247.58218 157.51783 249.02382 160.78556 252.00323 L 163.86108 254.7904 L 161.74666 260.07645 C 159.44002 265.74693 157.2295 266.4197 156.65284 261.80643 C 156.2684 258.05815 153.96177 258.6348 152.52012 262.95975 C 151.07847 267.09247 152.03957 269.78354 155.2112 270.84075 C 156.74895 271.3213 156.94117 272.09018 156.36451 275.83846 C 155.98007 278.33732 155.40341 280.74006 155.01897 281.1245 C 153.67344 282.47004 151.07847 280.64395 151.07847 278.2412 C 151.07847 275.0696 148.19518 275.64624 146.4652 279.2023 C 144.92744 282.37393 145.60021 285.93 148.19518 288.52496 C 149.3485 289.67828 150.11737 291.7927 150.11737 293.52267 C 150.11737 297.36706 150.88625 298.6165 153.67344 299.48148 C 161.55444 301.98033 163.57275 301.01923 165.9755 293.61878 C 166.93659 290.54326 168.28213 286.60276 169.051 284.8728 C 169.81988 283.1428 171.06931 279.49064 171.8382 276.89567 C 172.70318 274.2046 173.47206 272.1863 173.56817 272.3785 C 174.04872 272.85906 170.68487 290.0627 168.85879 296.21374 C 167.41714 301.40367 167.41714 301.4998 169.43545 303.22976 C 171.26153 304.6714 173.9526 305.34418 176.35535 304.95974 C 176.7398 304.86363 177.98922 304.6714 179.14254 304.4792 C 181.6414 304.19086 182.50638 301.4998 182.21805 294.7721 C 182.12194 292.08102 182.6025 286.50665 183.37137 282.27782 C 184.04414 278.049 184.6208 271.2252 184.52469 267.09247 C 184.52469 262.95975 184.7169 259.30757 185.10134 259.01925 C 185.38967 258.6348 185.678 261.22977 185.77411 264.5936 C 185.77411 267.95746 185.96633 276.99178 186.15855 284.68057 C 186.44688 292.36935 186.6391 299.7698 186.6391 301.21145 C 186.6391 303.80642 186.73521 303.90253 191.15626 303.22976 C 197.11507 302.46088 198.2684 301.5959 197.21118 298.32816 C 196.73063 296.8865 196.25008 289.48606 195.96175 281.79727 C 195.57731 268.72634 195.67342 268.14968 196.82674 273.1474 C 197.4995 276.03068 198.55672 281.89338 199.13338 286.1222 C 200.57502 296.50207 201.05557 299.28926 201.63223 300.15425 C 201.82445 300.5387 204.03498 300.34647 206.34161 299.5776 C 208.74436 298.90482 210.66655 298.52038 210.66655 298.8087 C 210.66655 299.09704 211.33932 298.8087 212.1082 298.13594 C 212.87708 297.46317 213.54985 295.9254 213.54985 294.676 C 213.54985 293.04212 214.1265 292.36935 215.37594 292.36935 C 217.58646 292.36935 221.43085 287.8522 221.04641 285.73777 C 220.8542 284.77668 219.70088 284.2 218.067 284.1039 C 214.70317 284.0078 211.1471 280.64395 212.0121 278.43343 C 212.30042 277.56844 212.9732 277.0879 213.45374 277.37622 C 213.9343 277.76066 215.47205 276.60734 216.9137 274.97347 C 218.932 272.57073 219.31644 271.3213 218.73978 268.91856 C 217.9709 264.88194 217.0098 264.11307 214.70317 265.5547 C 212.2043 267.18858 209.80157 265.26638 207.3027 259.5959 L 205.57273 255.7515 L 208.93658 252.19545 C 211.81987 249.21604 212.30042 248.25495 211.53154 246.33275 C 210.85877 244.50666 210.186 244.21833 208.2638 244.69888 C 204.89997 245.56387 202.305 243.93 200.19059 239.70117 C 197.78784 234.89568 198.3645 233.83847 202.88166 234.41513 C 205.76495 234.79957 207.1105 234.41513 209.1288 232.68516 C 212.0121 230.1863 212.39653 227.97578 209.99379 227.97578 C 207.49493 227.97578 202.01667 224.4197 202.01667 222.78585 C 202.01667 222.01697 202.4011 220.287 202.97777 218.94145 C 203.84276 216.63482 204.03498 216.5387 207.01438 217.78814 C 209.70546 218.84534 210.66655 218.84534 213.26152 217.78814 C 218.932 215.3854 219.50866 210.676 214.1265 210.676 C 212.39653 210.676 210.28212 210.09935 209.2249 209.42658 C 207.59104 208.17715 207.59104 207.88882 209.1288 203.46777 C 211.24321 197.22064 211.24321 197.22064 207.1105 197.22064 C 205.09219 197.12453 202.4011 196.54787 201.05557 195.68288 C 198.84505 194.33734 198.94116 194.33734 204.2272 194.914 C 209.99379 195.58677 217.49035 194.04901 219.31644 191.9346 C 219.9892 191.16572 219.22033 188.76297 216.9137 183.95748 C 214.9915 180.2092 213.0693 176.84536 212.58875 176.55703 C 212.0121 176.17259 211.91598 175.49982 212.2043 174.92316 C 212.49264 174.4426 214.1265 176.2687 215.66427 179.152 C 217.29813 181.93918 219.60477 186.0719 220.9503 188.37853 L 223.25694 192.41514 L 226.813 190.58906 C 228.7352 189.53185 231.13795 188.47464 232.09904 188.18631 C 233.6368 187.70576 233.6368 187.32132 231.42627 182.99638 C 230.08074 180.40142 227.48577 176.2687 225.65969 173.86595 C 223.7375 171.3671 222.58417 169.34879 223.16083 169.34879 C 224.21804 169.34879 227.8702 174.15428 231.42627 180.40142 C 232.86792 182.99638 234.5979 185.49524 235.17456 185.97579 C 237.6734 187.80187 248.14938 183.47693 248.14938 180.49753 C 248.14938 179.82476 244.59332 175.78815 240.26838 171.4632 C 235.94344 167.13826 232.96403 163.5822 233.6368 163.5822 C 234.98234 163.5822 237.96174 166.08106 245.65053 173.67373 C 249.97547 177.80645 257.95258 183.76526 259.29812 183.76526 C 259.49034 183.76526 261.41254 184.82247 263.52695 186.168 C 267.8519 188.9552 272.8496 189.24352 276.98233 187.1291 C 280.82672 185.1108 280.6345 183.1886 276.30956 180.97808 C 274.29125 180.01698 270.54297 177.13368 267.8519 174.73094 C 265.25693 172.3282 262.75807 170.30989 262.37363 170.30989 C 261.60476 170.30989 245.2661 156.95062 245.2661 156.27785 C 245.2661 155.60509 250.84046 158.6806 251.2249 159.6417 C 251.321 160.02614 254.01208 161.75611 257.0876 163.38998 C 264.68027 167.4266 276.02123 175.11538 276.02123 176.17259 C 276.02123 176.65314 276.5979 177.03757 277.27066 177.03757 C 277.8473 177.03757 280.05784 178.76755 282.07615 180.97808 C 285.5361 184.63025 286.11276 184.82247 289.76493 184.43803 C 298.1265 183.47693 303.89307 181.07419 303.89307 178.57533 C 303.89307 177.90256 302.2592 176.2687 300.337 174.73094 C 298.3187 173.2893 294.76264 170.79044 292.456 169.06046 C 290.05326 167.33048 285.05555 164.25497 281.11505 162.14055 C 261.41254 151.37625 256.9915 148.68518 257.37592 148.10852 C 258.0487 146.9552 267.17913 151.47236 276.50178 157.7195 C 278.6162 159.16115 282.5567 161.08335 285.15166 162.04444 C 287.84274 163.10165 291.01436 164.5433 292.3599 165.40829 C 293.70543 166.27328 296.49262 167.90714 298.60703 168.86824 C 300.72145 169.92545 304.37362 172.61652 306.77637 174.92316 C 310.71687 178.76755 311.38964 179.05588 314.9457 178.67144 C 318.9823 178.09478 328.6894 172.52041 328.4972 170.79044 C 328.40108 169.4449 321.38506 164.25497 314.9457 160.6028 C 309.75577 157.7195 309.65966 157.52728 311.19742 155.7973 C 313.50406 153.29845 313.31184 148.30074 310.9091 146.37854 C 308.31413 144.26413 303.41252 144.45635 303.41252 146.66687 C 303.41252 147.53186 302.73976 148.68518 301.97088 149.16573 C 299.2798 150.8957 295.72374 150.12683 290.14937 146.76298 C 287.07386 144.9369 284.28667 143.39914 283.90223 143.39914 C 283.5178 143.39914 281.98004 142.24582 280.5384 140.9964 C 277.94342 138.68976 277.94342 138.40143 279.00063 135.32592 C 281.40338 128.69434 276.50178 123.21608 268.33244 123.21608 C 265.0647 123.21608 264.39194 123.50441 264.68027 124.84995 C 264.8725 126.00326 265.73748 126.48381 267.083 126.2916 C 269.67798 125.90715 270.8313 127.63713 269.19743 129.65544 C 267.37134 131.76985 259.87478 130.71264 253.62764 127.25269 L 248.62993 124.56162 L 248.91826 119.5639 C 249.3027 114.95064 249.11048 114.6623 246.2272 113.12455 C 242.09446 111.01013 238.15396 111.49068 237.76952 114.37398 C 237.5773 115.5273 237.76952 116.48839 238.25007 116.39228 C 241.99835 115.71951 242.4789 118.02615 238.92284 119.37169 C 237.5773 119.94835 236.23177 121.19777 235.94344 122.25498 C 235.6551 123.31219 235.07845 124.17718 234.694 124.17718 C 234.30957 124.17718 232.00293 125.90715 229.6002 128.02157 C 225.46747 131.67374 213.64596 138.20921 209.32102 139.26642 C 208.1677 139.45864 205.1883 139.93919 202.49722 140.22752 C 198.65283 140.61196 197.88395 140.51585 198.84505 139.55475 C 199.51782 138.88198 201.92056 138.30532 204.3233 138.30532 C 208.45603 138.40143 210.95488 136.57534 208.74436 135.2298 C 207.3027 134.2687 207.59104 131.67374 209.70546 127.54102 C 212.1082 122.83164 212.1082 120.14057 209.89768 118.12226 C 207.2066 115.6234 205.86106 116.10395 206.43772 119.17947 C 206.91827 121.38999 206.53383 122.25498 204.41942 123.60052 C 202.97777 124.56162 201.63223 125.13828 201.44001 124.84995 C 201.2478 124.65773 201.44001 122.4472 201.92056 120.04446 C 202.49722 116.96894 203.65054 114.6623 205.76495 112.74011 C 208.93658 109.7607 209.41713 107.93462 207.78326 104.8591 C 206.62994 102.74469 203.93887 102.36025 203.93887 104.37856 C 203.93887 105.05132 203.2661 106.30075 202.4011 106.97352 C 201.05557 108.03073 200.3828 107.64629 197.59562 104.28245 L 194.32789 100.34194 L 193.94345 88.03989 C 193.75123 81.21609 193.3668 74.77673 193.07846 73.719525 C 192.21347 70.35568 190.4835 66.41518 189.13796 64.39687 C 187.79242 62.47468 187.79242 62.47468 186.35077 64.78131 Z" fill="#cccccc"/>
        </g>
        <g id="Graphic_5">
          <path d="M 190.19516 71.98955 C 191.34848 74.68062 191.73292 79.19778 191.82903 89.0971 C 192.02125 101.68748 192.11736 102.74469 194.13567 104.763 C 195.28898 105.91631 196.25008 107.26185 196.25008 107.83851 C 196.25008 109.56849 199.90226 110.7218 202.4011 109.7607 C 205.66884 108.60739 204.80386 111.01013 201.44001 112.45178 C 199.51782 113.41288 199.13338 114.27787 199.13338 117.73782 C 199.13338 120.04446 198.65283 122.35109 198.07617 122.92775 C 197.21118 123.79274 197.3073 124.65773 198.55672 126.57992 L 200.19059 129.07878 L 203.55443 126.96436 C 207.68715 124.4655 208.64825 125.13828 205.95717 128.59823 C 204.89997 130.03988 203.93887 132.15429 203.93887 133.40372 C 203.93887 135.1337 203.3622 135.71035 201.82445 135.71035 C 196.05786 135.71035 193.27068 138.88198 195.4812 142.82248 C 196.53841 144.74468 206.34161 144.64857 207.97548 142.72637 C 208.55214 142.0536 209.70546 141.47694 210.57045 141.47694 C 213.83818 141.47694 228.25465 133.01928 234.02124 127.82935 C 237.28897 124.75384 240.4606 122.25498 241.13337 122.25498 C 242.3828 122.25498 243.82444 118.69892 243.5361 116.68061 C 243.3439 116.10395 243.92055 115.5273 244.78554 115.5273 C 246.51552 115.5273 246.80384 121.29388 245.07387 123.02386 C 243.5361 124.56162 248.53382 129.46322 252.76265 130.3282 C 254.39652 130.71264 255.83817 131.38541 255.83817 131.76985 C 255.83817 132.63484 258.91368 133.11539 264.68027 133.2115 C 269.9663 133.30761 273.52237 130.80875 272.56127 127.63713 C 272.17684 126.00326 272.56127 126.19548 274.48347 128.50212 C 275.829 130.03988 276.8862 131.76985 276.98233 132.15429 C 276.98233 132.63484 275.7329 134.2687 274.09903 135.90257 C 272.56127 137.44033 271.21574 138.88198 271.21574 139.1703 C 271.21574 139.36253 272.9457 140.22752 275.06013 141.0925 C 277.17455 141.9575 278.90452 142.91859 278.90452 143.30303 C 278.90452 143.59136 280.5384 144.74468 282.5567 145.80189 C 284.4789 146.76298 287.07386 148.39685 288.13106 149.45406 C 289.28438 150.41516 291.68713 151.47236 293.4171 151.7607 C 295.2432 151.95291 297.06928 152.62568 297.54983 153.01012 C 298.60703 154.06733 305.43083 150.70349 306.58415 148.58907 C 307.83358 146.28243 309.65966 147.8202 309.65966 151.08793 C 309.65966 152.91401 308.9869 154.25955 307.73747 154.93232 C 306.68026 155.50898 305.81527 156.47007 305.81527 157.14284 C 305.91138 158.58449 309.46744 161.17946 312.54296 161.94833 C 313.8885 162.23666 316.7718 164.06275 318.9823 165.98495 C 321.19284 167.81103 323.40337 169.34879 323.98003 169.34879 C 326.19055 169.34879 324.845 170.88655 320.42396 173.2893 C 315.23403 176.17259 312.0624 175.78815 307.83358 171.94375 C 304.37362 168.67602 298.70314 165.21607 284.6711 158.00783 C 278.03953 154.64399 270.25464 150.22294 267.37134 148.30074 C 264.48805 146.28243 261.41254 144.45635 260.54755 144.16802 C 258.81757 143.49525 252.95487 146.66687 252.95487 148.10852 C 252.95487 149.06962 258.91368 153.97122 260.067 153.97122 C 260.45144 153.97122 263.23862 155.60509 266.21803 157.52728 C 273.04182 161.94833 280.05784 165.6005 280.6345 165.02385 C 280.82672 164.83163 282.4606 165.69662 284.19056 166.94604 C 285.82443 168.29158 287.74663 169.34879 288.3233 169.34879 C 288.89994 169.34879 289.4766 169.63712 289.66882 170.02156 C 289.86104 170.5021 292.07157 172.52041 294.66653 174.53872 C 298.99147 178.09478 299.1837 178.38311 297.54983 179.63254 C 296.58873 180.3053 293.70543 180.88197 291.11047 180.88197 C 286.68942 180.88197 286.01665 180.49753 281.4995 176.07648 C 278.8084 173.3854 276.30956 171.27099 275.92512 171.27099 C 275.44457 171.27099 272.6574 169.63712 269.58187 167.5227 C 257.95258 159.7378 245.55442 152.04902 244.59332 152.04902 C 244.11277 152.04902 242.86334 152.91401 241.90224 153.97122 C 240.26838 155.7973 240.26838 155.98953 241.99835 158.00783 C 242.95945 159.25726 244.305 160.50669 244.78554 160.89113 C 248.72604 163.4861 263.43084 174.73094 265.0647 176.3648 C 267.948 179.2481 270.7352 181.45863 273.04182 182.80416 C 275.6368 184.1497 274.7718 185.68746 271.40796 185.68746 C 267.8519 185.68746 254.68485 177.3259 247.57272 170.59822 C 238.92284 162.42888 233.15625 157.81561 231.52238 157.81561 C 230.6574 157.81561 229.7924 159.06504 229.40797 160.6989 C 228.8313 163.29387 229.50408 164.35108 236.5201 172.03986 C 240.74893 176.65314 243.82444 180.78586 243.44 181.1703 C 243.05556 181.55474 241.22948 182.1314 239.4034 182.41972 C 236.32788 182.90027 235.94344 182.61194 233.82902 178.76755 C 232.5796 176.46092 229.98463 172.52041 228.06243 170.02156 C 225.37136 166.4655 224.12193 165.5044 222.29584 165.69662 C 217.68257 166.27328 217.68257 168.77213 222.29584 173.3854 C 224.60248 175.69204 227.29355 179.44032 228.15854 181.65085 C 229.7924 185.78357 229.7924 185.78357 227.48577 186.84078 C 225.7558 187.60965 224.7947 187.60965 223.9297 186.84078 C 222.58417 185.68746 217.8748 177.03757 216.43314 173.00096 C 215.66427 170.59822 215.27983 170.5021 212.68486 171.3671 C 208.1677 173.00096 207.49493 174.4426 209.80157 177.42201 C 212.2043 180.49753 215.85648 189.53185 214.9915 190.39684 C 214.60706 190.68517 210.37823 190.9735 205.57273 190.9735 L 196.82674 190.9735 L 196.15397 193.76068 C 195.09677 197.60507 196.3462 198.8545 201.92056 199.62338 L 206.53383 200.29615 L 206.1494 204.33276 C 205.57273 209.33047 207.01438 212.40599 210.186 213.17486 C 211.53154 213.4632 212.58875 214.13596 212.58875 214.6165 C 212.58875 215.96205 208.45603 215.5776 206.43772 214.03985 C 203.74665 211.92544 203.2661 212.21377 201.05557 216.4426 C 199.71004 219.03756 199.3256 221.15198 199.71004 222.88196 C 200.47891 226.1497 203.74665 229.89797 205.76495 229.99408 C 206.72605 229.99408 206.43772 230.37852 204.99608 231.1474 C 202.97777 232.1085 202.49722 231.91628 201.2478 230.0902 C 199.03727 226.82246 197.59562 227.59134 196.4423 232.68516 C 195.57731 236.52955 195.57731 238.16342 196.63452 240.66227 C 198.17228 244.12222 202.305 248.44717 205.38052 249.60048 C 207.2066 250.27325 207.2066 250.36936 204.89997 251.33046 C 203.55443 251.90712 202.305 252.48378 202.11278 252.676 C 201.44001 253.15655 206.2455 266.03526 207.87937 267.76524 C 208.93658 268.82245 210.76266 269.59133 212.49264 269.4952 C 214.22262 269.4952 215.47205 269.87965 215.47205 270.64853 C 215.47205 272.47462 213.35763 274.1085 210.95488 274.1085 C 209.1288 274.1085 208.74436 274.58904 208.74436 277.184 C 208.74436 281.0284 211.72376 286.21832 214.41484 287.0833 C 217.20202 287.9483 215.85648 289.67828 212.78097 289.29384 C 210.37823 289.0055 210.186 289.29384 209.89768 292.56157 C 209.70546 294.57988 209.0327 296.21374 208.45603 296.21374 C 207.78326 296.21374 206.34161 296.50207 205.2844 296.7904 C 203.3622 297.27095 203.17 296.8865 202.59333 290.7355 C 202.2089 287.17942 201.53612 282.66226 201.05557 280.83617 C 200.57502 279.0101 199.90226 275.0696 199.51782 272.1863 C 198.84505 266.13137 197.69173 264.3053 195.00066 264.68972 C 193.17457 264.97805 193.07846 265.65082 193.27068 280.35562 C 193.3668 288.8133 193.75123 296.6943 194.03956 297.8476 C 194.424 299.6737 194.13567 300.05814 192.02125 300.05814 C 189.13796 300.05814 189.33018 301.7881 189.13796 270.3602 C 189.04185 252.96433 189.04185 252.676 186.83132 251.7149 C 185.48578 251.13824 184.33247 251.04213 183.7558 251.6188 C 182.89082 252.48378 180.96862 274.49293 180.19974 291.60047 C 179.8153 300.5387 179.62309 301.01923 177.50867 301.5959 C 174.14483 302.46088 170.9732 300.34647 171.64597 297.8476 C 173.27984 291.8888 177.12423 268.14968 176.64368 266.90025 C 175.58647 264.01696 173.08762 265.5547 170.78098 270.64853 C 169.43545 273.53183 168.37824 276.319 168.37824 276.89567 C 168.37824 278.2412 164.0533 291.21603 162.51554 294.57988 C 161.45833 296.8865 160.78556 297.27095 157.90227 296.98262 C 154.44231 296.6943 154.44231 296.6943 154.15398 291.60047 C 153.86566 287.0833 153.67344 286.60276 151.65513 286.60276 C 150.4057 286.60276 149.06016 285.93 148.77184 285.065 C 147.71463 282.27782 148.19518 281.70116 150.3096 283.1428 C 155.40341 286.69887 157.99838 284.39224 159.2478 275.0696 C 159.72835 271.2252 159.53613 270.64853 157.61394 269.78354 C 156.2684 269.2069 155.3073 267.86135 155.2112 266.4197 C 155.01897 265.07416 155.2112 264.5936 155.59563 265.4586 C 157.2295 269.3991 161.0739 269.2069 162.70776 265.26638 C 167.22492 253.6371 167.32103 251.23435 163.86108 250.8499 C 162.2272 250.6577 161.0739 249.8888 160.88167 248.8316 C 160.59334 247.29385 160.78556 247.19774 162.41943 248.25495 C 167.0327 251.13824 170.30043 247.58218 172.22263 237.68287 C 173.18373 232.30072 172.79929 230.57074 169.43545 227.59134 C 167.1288 225.47692 167.22492 225.47692 165.87938 229.41742 C 165.20661 231.53184 164.34162 232.30072 162.70776 232.30072 C 161.36222 232.30072 160.2089 231.72406 160.01668 231.0513 C 159.72835 230.47463 160.2089 229.89797 161.0739 229.89797 C 162.89998 229.89797 164.53384 227.01468 164.53384 223.84305 C 164.53384 221.2481 160.97778 212.5982 159.92057 212.5982 C 159.53613 212.5982 158.47893 213.94374 157.61394 215.4815 C 155.98007 218.3648 154.44231 218.94145 152.3279 217.59592 C 151.55902 217.11537 152.03957 216.25038 154.05787 215.00095 C 157.80616 212.40599 159.1517 205.7744 157.3256 198.27784 C 156.65284 195.49066 156.74895 195.10622 157.99838 195.58677 C 158.86337 195.8751 160.30501 195.49066 161.36222 194.8179 C 162.32332 194.14512 164.43773 193.37624 165.9755 193.18402 C 169.53155 192.79958 170.10821 190.58906 167.80158 185.59135 C 165.9755 181.45863 165.78327 181.36252 163.1883 183.28471 C 160.78556 185.1108 150.21348 185.30302 150.02126 183.47693 C 149.73293 181.1703 150.3096 179.63254 151.75124 178.1909 C 153.289 176.55703 156.84506 168.96435 156.84506 167.13826 C 156.84506 166.4655 156.07618 165.5044 155.01897 164.83163 C 153.48122 163.87053 152.90456 164.15886 150.88625 166.27328 C 149.06016 168.29158 142.90914 176.74925 141.85193 178.76755 C 141.37138 179.63254 135.7009 175.88426 135.7009 174.73094 C 135.7009 174.05817 138.00754 171.27099 140.79472 168.57991 C 143.4858 165.88884 146.36909 163.00554 147.04186 162.23666 C 149.3485 159.44948 147.81074 154.93232 144.4469 154.93232 C 142.90914 154.93232 136.56589 159.35337 130.51097 164.73552 L 126.47436 168.29158 L 123.20662 166.36939 L 119.93889 164.35108 L 124.26383 161.5639 C 126.57047 160.02614 129.64598 158.00783 131.08763 157.04673 C 132.62539 156.18175 133.7787 155.12454 133.7787 154.64399 C 133.7787 154.25955 134.45147 153.97122 135.22035 153.97122 C 135.98923 153.97122 137.04644 153.20234 137.52699 152.14513 C 138.29587 150.7996 138.10365 150.03072 136.75811 148.78129 C 135.89312 147.9163 134.54758 147.24353 133.97092 147.24353 C 132.62539 147.24353 118.30502 154.7401 111.67345 158.87282 C 108.79015 160.6989 104.94576 161.94833 100.62082 162.6211 C 91.20206 163.96664 89.27986 163.77442 94.37368 161.94833 C 96.77643 161.17946 98.89084 160.21836 99.17917 159.83392 C 99.85194 158.96893 107.54073 155.31676 114.1723 152.91401 C 116.95949 151.8568 119.55445 150.51127 119.84278 150.03072 C 120.22722 149.55017 121.09221 149.16573 121.86109 149.16573 C 123.78328 149.16573 126.08992 146.8591 126.08992 144.9369 C 126.08992 144.07191 125.32104 143.39914 124.26383 143.39914 C 123.20662 143.39914 122.0533 142.91859 121.76498 142.43804 C 121.38054 141.76527 120.70777 141.76527 120.035 142.24582 C 118.78557 143.20692 105.71464 147.72408 84.85881 154.45177 C 71.787875 158.6806 70.63456 158.87282 64.00298 158.29616 C 60.06248 157.91172 56.890853 157.23895 56.890853 156.85451 C 56.890853 156.37396 61.98467 154.45177 68.23181 152.52957 C 74.38284 150.60738 81.879405 148.20463 84.7627 147.14742 C 87.64599 146.09021 94.46979 143.78358 99.85194 142.14971 C 108.3096 139.55475 109.75125 138.78587 109.75125 137.0559 C 109.75125 133.98038 107.2524 132.2504 104.65743 133.59594 C 103.50411 134.1726 101.10137 134.94148 99.27528 135.2298 C 97.5453 135.61425 91.68261 137.44033 86.30046 139.26642 C 81.01442 140.9964 72.65286 143.59136 67.94348 144.84079 C 63.13799 146.09021 57.3714 147.8202 55.06477 148.68518 C 52.75813 149.45406 48.81763 150.12683 46.222664 150.12683 C 41.99383 150.12683 41.417173 149.8385 40.071636 147.24353 C 38.7261 144.55246 38.7261 144.36024 40.744405 143.0147 C 41.99383 142.24582 44.781017 141.38083 46.99154 140.9964 C 49.29818 140.70807 52.95035 139.55475 55.16088 138.59365 C 57.46751 137.53644 60.543026 136.67145 61.98467 136.67145 C 65.06019 136.67145 72.26842 133.30761 72.26842 131.86596 C 72.26842 131.2893 70.92289 129.65544 69.28902 128.21379 C 67.36682 126.48381 66.597945 125.04217 66.98238 123.98496 C 68.1357 121.19777 70.15401 121.19777 70.82678 124.08107 C 71.11511 125.61882 72.46064 127.3488 73.71007 128.02157 C 76.11282 129.3671 87.54988 129.75155 89.37597 128.59823 C 91.00984 127.63713 94.18146 126.86825 98.98695 126.3877 L 103.21578 125.90715 L 100.62082 123.21608 C 98.60251 121.19777 98.21807 119.94835 98.69862 118.31448 C 99.37139 116.20006 99.4675 116.29617 100.71693 119.4678 L 102.06247 122.73553 L 111.09679 122.73553 C 116.0945 122.73553 120.51555 122.4472 120.89999 121.96665 C 121.28443 121.58221 122.53386 121.29388 123.68717 121.29388 C 125.60937 121.29388 125.8977 120.62111 126.28214 116.29617 C 126.66658 113.02844 127.43546 110.91402 128.58877 110.04903 C 131.37596 108.03073 132.43317 108.60739 130.03042 110.81791 C 128.20434 112.54789 127.916 113.6051 128.30044 116.77672 C 128.781 120.04446 129.93431 121.77443 136.46978 128.02157 C 141.5636 132.92317 146.27298 136.47923 150.4057 138.40143 C 153.86566 140.1314 157.13339 141.47694 157.71005 141.47694 C 158.1906 141.47694 158.76726 141.9575 158.95948 142.53415 C 159.34391 143.68747 169.53155 147.24353 172.70318 147.24353 C 175.10592 147.24353 177.31645 143.87969 176.54757 141.47694 C 176.16313 140.1314 174.9137 139.55475 171.9343 139.36253 C 168.0899 139.0742 167.89769 138.88198 168.18602 136.28701 C 168.47435 133.59594 168.37824 133.49983 165.1105 134.07649 C 162.70776 134.46093 161.45833 134.1726 160.30501 132.92317 C 158.47893 130.90486 158.09449 127.92546 159.92057 129.75155 C 162.2272 132.05818 166.45604 131.09708 170.0121 127.54102 C 172.9915 124.56162 173.37595 123.69663 172.8954 120.71722 C 172.0304 115.81562 170.78098 114.5662 166.84048 115.23896 C 164.72606 115.6234 163.57275 115.43118 163.57275 114.6623 C 163.57275 114.08565 165.20661 113.6051 167.51325 113.6051 C 171.9343 113.6051 175.10592 112.25956 175.10592 110.33736 C 175.10592 109.56849 176.64368 107.64629 178.46977 106.01242 C 181.83361 103.12913 181.83361 103.03302 181.83361 95.34423 C 181.83361 91.1154 182.31416 85.63714 182.98693 83.13829 C 185.5819 72.27788 186.83132 68.433485 187.6963 68.433485 C 188.27297 68.433485 189.33018 70.06735 190.19516 71.98955 Z" fill="#ff0000"/>
        </g>
        <g id="Graphic_4">
          <path d="M 172.22263 143.39914 C 172.22263 143.87969 171.54986 144.36024 170.78098 144.36024 C 170.0121 144.36024 169.33934 143.87969 169.33934 143.39914 C 169.33934 142.82248 170.0121 142.43804 170.78098 142.43804 C 171.54986 142.43804 172.22263 142.82248 172.22263 143.39914 Z" fill="#ff0000"/>
        </g>
      </g>
    </g>
  </g>
</svg>
