<?xml version="1.0" encoding="UTF-8" standalone="no"?>
<svg
   version="1.1"
   viewBox="34.875 81 294.75 256.5"
   width="294.75"
   height="256.5"
   preserveAspectRatio="xMidYMid meet"
   zoomAndPan="magnify"
   contentScriptType="application/ecmascript"
   contentStyleType="text/css"
   id="svg287"
   xmlns="http://www.w3.org/2000/svg"
   xmlns:svg="http://www.w3.org/2000/svg"
   xmlns:rdf="http://www.w3.org/1999/02/22-rdf-syntax-ns#"
   xmlns:cc="http://creativecommons.org/ns#"
   xmlns:dc="http://purl.org/dc/elements/1.1/">
  <defs
     id="defs129" />
  <metadata
     id="metadata131">
    <rdf:RDF>
      <cc:Work
         rdf:about="">
        <dc:creator>
          <cc:Agent>
            <dc:title>http://heraldicart.org Robin.svg</dc:title>
          </cc:Agent>
        </dc:creator>
      </cc:Work>
    </rdf:RDF>
  </metadata>
  <g
     stroke-opacity="1"
     stroke-dasharray="none"
     stroke="#505050"
     fill="#ffff00"
     fill-opacity="1"
     id="g285">
    <title
       id="title133">Robin</title>
    <g
       id="g283">
      <title
         id="title135">Art</title>
      <g
         id="g281">
        <g
           id="g140">
          <g
             id="outline-0">
            <path
               d="M 90.79158 84.49526 C 85.87437 85.25176 77.45839 88.0886 76.51277 89.31791 C 75.9454 89.97984 74.99979 90.54721 74.43242 90.54721 C 72.54118 90.54721 64.408885 96.41003 63.841515 98.2067 C 63.08502 100.57074 62.80134 100.57074 52.96693 96.69371 C 45.023753 93.57318 39.822864 92.62756 38.499 93.95143 C 37.2697 95.18073 40.579357 98.49038 48.711656 104.25864 C 61.477474 113.242 62.706776 114.84954 66.86749 128.84466 C 68.19135 133.57274 68.19135 142.08329 66.5838 166.76387 C 66.11099 173.856 66.39468 176.97652 68.09679 183.6904 C 71.0282 195.22692 72.82487 199.00938 78.12032 204.68308 C 83.13208 209.88397 83.03752 209.7894 91.64263 220.28574 C 101.38248 232.2005 114.52654 241.65667 129.56184 247.61405 C 135.04641 249.78897 139.67993 251.6802 139.86905 251.86932 C 141.4766 253.28775 139.7745 258.20495 135.8029 263.59496 C 133.24974 266.99918 130.03465 272.1055 128.52166 274.94236 C 124.7392 282.03448 121.14585 286.85712 115.66128 292.15257 C 111.40601 296.3133 110.74408 296.69153 104.97582 297.16434 C 101.5716 297.5426 93.72299 298.29908 87.57648 299.05557 C 76.51277 300.37943 76.22909 300.474 72.635745 303.97277 C 70.64995 305.864 69.0424 307.8498 69.0424 308.22805 C 69.0424 308.98454 71.97381 307.5661 74.7161 305.58032 C 75.47259 305.01295 80.86261 303.97277 86.5363 303.4054 C 92.30456 302.83804 98.45107 302.08154 100.24774 301.79786 C 103.17915 301.2305 102.8009 301.7033 96.27615 306.05313 C 92.21 308.70086 88.33297 310.87577 87.57648 310.87577 C 86.81999 310.87577 85.87437 311.34858 85.59069 311.91595 C 85.21244 312.38876 83.88858 313.2398 82.65928 313.71262 C 81.42998 314.18543 79.44418 316.64403 78.02576 319.48088 L 75.567155 324.30352 L 77.9312 322.50685 C 79.25506 321.56124 80.57892 320.1428 80.86261 319.29176 C 81.14629 318.4407 85.96893 315.5093 91.54807 312.67244 C 97.1272 309.93016 102.13897 307.47155 102.61178 307.18787 C 103.17915 306.9042 100.62598 309.64647 97.03264 313.33437 C 93.4393 316.9277 88.61666 322.79054 86.25262 326.47844 C 83.88858 330.0718 81.52454 333.38144 80.95717 333.7597 C 80.20067 334.2325 80.29524 334.51618 81.05173 334.51618 C 82.564715 334.51618 90.88614 327.23493 96.18159 321.183 C 104.59757 311.72683 111.12232 306.1477 113.86461 306.1477 C 115.28303 306.1477 117.45795 305.3912 118.68725 304.35102 C 120.67305 302.83804 121.71322 302.74347 126.34674 303.49997 C 131.16939 304.25646 132.30413 304.06734 136.5594 302.08154 C 143.65152 298.67732 144.59714 298.39364 150.74364 297.7317 C 158.214 296.9752 158.59225 295.2731 151.50013 294.42205 C 146.77205 293.85468 145.1645 294.13837 140.34186 296.3133 C 136.18115 298.10995 133.06062 298.86645 128.14341 298.961 C 120.10568 299.05557 119.91655 298.39364 125.68481 290.3559 C 127.85973 287.32993 132.77693 279.95412 136.65396 273.99674 C 148.28504 255.8409 150.55452 253.00406 152.72943 253.57143 C 153.76961 253.85512 155.56628 254.4225 156.79558 254.70617 C 158.78138 255.27354 158.87594 255.08442 157.93032 252.81494 C 156.79558 249.78897 157.93032 249.59985 163.60402 251.86932 C 167.95385 253.57143 168.71035 255.8409 168.61579 266.90462 C 168.42666 278.63026 168.89947 277.68465 164.36051 276.73903 C 162.09103 276.26622 158.59225 275.3206 156.5119 274.5641 C 149.98715 272.1055 145.73187 272.76744 140.90923 276.8336 C 139.018 278.5357 138.92344 278.8194 140.43642 278.252 C 145.25907 276.5499 149.32522 275.98254 151.87838 276.8336 C 156.79558 278.34658 161.61823 280.2378 162.28016 280.80518 C 163.13121 281.7508 154.71523 280.42693 153.67505 279.57588 C 153.20224 279.10307 150.8382 278.72482 148.47416 278.72482 C 144.88082 278.72482 143.65152 279.19763 141.38204 281.56167 C 139.86905 283.07466 138.92344 284.58764 139.11256 284.87133 C 139.39625 285.06045 141.19292 284.87133 143.27327 284.30396 C 145.25907 283.7366 148.66328 283.54747 150.74364 283.9257 C 152.91856 284.2094 156.41734 284.58764 158.59225 284.6822 C 164.45507 284.9659 164.6442 286.28975 158.78138 286.3843 C 149.41978 286.3843 139.20712 288.55923 136.65396 291.01783 C 135.3301 292.24713 134.28992 293.94924 134.28992 294.89486 C 134.28992 296.21872 134.76273 296.0296 136.93764 293.94924 C 139.39625 291.39608 139.96362 291.30152 152.16206 290.73415 C 161.61823 290.16678 165.8735 289.5994 169.0886 288.181 C 174.19492 285.9115 175.80247 285.81694 178.63932 287.8973 C 183.08371 290.92327 192.91812 291.1124 192.91812 287.99186 C 192.91812 286.9517 196.4169 287.04625 198.68638 288.181 C 200.8613 289.4103 201.14498 287.99186 199.06463 285.9115 C 196.79515 283.64203 194.05286 283.26378 189.32478 284.30396 C 182.80003 285.9115 176.74808 284.02027 175.7079 280.14325 C 174.85685 276.92815 174.57317 245.0609 175.42422 243.73703 C 175.80247 243.16966 176.84265 242.7914 177.88282 242.7914 C 179.11213 242.7914 179.58493 242.41316 179.11213 241.65667 C 178.63932 240.90018 179.11213 240.80562 180.43599 241.0893 C 182.8946 241.75123 183.08371 240.71105 181.09792 237.77964 L 179.77406 235.6993 L 186.86618 235.8884 C 191.21601 235.98297 194.80935 236.6449 196.13322 237.4014 C 197.26796 238.1579 200.57761 239.48175 203.41446 240.23825 C 210.6957 242.3186 217.50414 244.58808 220.8138 246.10107 C 224.40714 247.80317 231.8775 248.84335 234.90348 248.08686 C 238.59138 247.14124 238.49682 245.0609 234.52523 239.76544 C 232.06663 236.45578 231.12101 234.47 231.68838 233.80806 C 232.25575 233.14612 232.25575 232.29507 231.8775 231.82226 C 231.49926 231.34945 232.25575 231.82226 233.57962 232.957 C 244.26508 241.94035 252.20825 243.73703 245.87263 235.6993 C 244.26508 233.7135 243.03578 231.82226 243.03578 231.34945 C 243.03578 229.83647 269.13478 247.14124 281.99516 257.25934 C 283.79183 258.67776 288.89816 261.98742 293.15343 264.54058 C 299.48906 268.32305 301.8531 269.26866 305.25732 269.26866 C 308.66154 269.26866 309.5126 268.8904 309.89084 267.28287 C 310.36365 265.58076 310.931 265.4862 315.3754 265.959 L 320.2926 266.62094 L 320.19806 262.5548 C 320.1035 258.77232 320.2926 258.39408 323.22403 257.63758 C 324.83158 257.0702 326.25 256.21916 326.25 255.55723 C 326.25 253.1932 322.46754 249.6944 318.49595 248.4651 C 316.22647 247.7086 311.40383 244.58808 307.43224 241.18386 C 303.5552 237.8742 299.8673 235.22648 299.20538 235.22648 C 298.54345 235.22648 297.4087 234.6591 296.74678 233.99718 C 293.90993 231.53858 276.2269 223.02803 275.65954 223.87909 C 274.80848 225.2975 273.2955 225.01383 273.2955 223.40628 C 273.2955 222.64978 271.12058 220.94768 268.47285 219.62381 C 263.08284 216.88153 252.01913 209.69484 249.27684 207.14168 C 248.23667 206.19606 243.2249 201.56254 238.21314 196.92903 C 233.1068 192.20094 227.52767 186.52725 225.92013 184.1632 C 219.39537 175.0853 205.11657 157.78052 198.02445 150.49927 C 192.44531 144.73101 188.94653 142.08329 184.21845 139.81381 C 180.62511 138.1117 177.78826 136.31503 177.78826 135.84222 C 177.78826 133.47818 161.80735 116.45709 150.8382 107.09549 C 141.76029 99.34144 132.30413 92.533 127.1978 90.0744 C 116.98514 85.15719 101.85528 82.88772 90.79158 84.49526 Z"
               fill="black"
               id="path137" />
          </g>
        </g>
        <g
           id="g145">
          <g
             id="g12399">
            <path
               d="M 111.12232 86.3865 C 114.24286 87.14299 118.49813 88.27773 120.57848 88.75054 C 122.65884 89.31791 126.72499 91.02002 129.56184 92.62756 C 134.85729 95.55897 136.84308 97.07196 147.05574 106.14987 C 150.17627 108.98672 154.43154 112.4855 156.5119 113.99849 C 161.33454 117.49727 168.89947 125.62957 173.06018 131.68151 C 174.85685 134.23467 182.42178 142.74522 189.89215 150.59383 C 197.36252 158.34789 203.88727 165.7237 204.36008 166.85843 C 204.83288 168.08773 205.58938 169.03335 206.06219 169.03335 C 206.62956 169.03335 208.42623 171.01914 210.03377 173.47774 C 216.65309 183.2176 234.71436 202.03535 239.82068 204.49395 C 241.42823 205.25045 243.31946 206.47975 243.9814 207.3308 C 244.64333 208.0873 246.72368 209.12747 248.70947 209.69484 C 250.69527 210.26221 254.38317 212.15345 256.93634 213.95012 C 259.39494 215.74679 263.74477 218.29995 266.48706 219.81294 C 269.13478 221.23136 271.40426 222.8389 271.40426 223.50084 C 271.40426 225.2975 273.67374 226.5268 275.65954 225.77032 C 277.929 224.91926 290.3166 231.16033 290.3166 233.14612 C 290.3166 234.56455 294.1936 236.1721 297.50327 236.1721 C 300.43468 236.1721 309.60716 244.58808 312.16032 249.59985 C 314.24067 253.666 314.52436 256.97565 312.7277 256.97565 C 307.90505 256.97565 291.2622 249.9781 291.2622 247.89774 C 291.2622 247.33037 290.41115 246.10107 289.2764 245.0609 C 288.14167 244.11527 286.53412 241.8458 285.5885 240.04912 C 284.73745 238.25245 283.69727 237.30684 283.31903 237.8742 C 283.03534 238.44157 284.26464 240.80562 286.0613 243.16966 C 287.858 245.62826 289.37097 247.7086 289.37097 247.9923 C 289.37097 249.03248 281.99516 245.34457 274.2411 240.52193 C 269.7967 237.77964 263.83933 234.1863 260.90792 232.4842 C 255.3288 229.45822 253.72124 227.567 251.54632 221.98785 C 250.03334 217.9217 248.23667 215.74679 249.18228 219.151 C 249.56053 220.47487 250.41158 222.64978 251.07352 224.0682 C 252.8702 227.7561 251.45176 227.37787 245.6835 222.64978 C 242.56297 220.09662 240.57718 217.73258 240.38805 216.2196 C 240.19893 214.9903 239.63156 213.4773 239.0642 213.0045 C 238.40226 212.34257 238.21314 213.0045 238.59138 215.08486 C 239.34787 218.86732 239.0642 218.86732 235.0926 215.84135 C 233.3905 214.51749 231.68838 213.4773 231.4047 213.4773 C 230.08084 213.4773 237.92945 219.9075 241.14455 221.51505 C 242.94122 222.3661 245.30526 223.87909 246.34543 224.8247 C 247.3856 225.67576 253.15387 229.36366 259.11125 232.86244 C 265.06863 236.36122 272.25532 240.71105 275.09217 242.6023 C 277.929 244.39896 283.50815 247.33037 287.47974 249.03248 C 291.45133 250.64002 296.55765 253.00406 298.638 254.04424 C 300.81293 255.17898 305.16276 256.5974 308.2833 257.3539 C 313.957 258.67776 314.05155 258.67776 315.09173 256.5974 C 315.75366 254.8953 315.6591 253.666 314.4298 251.30195 L 312.82225 248.18142 L 315.46998 248.84335 C 321.23823 250.35634 324.35877 252.153 324.35877 254.04424 C 324.35877 255.17898 323.7914 256.03004 323.12947 256.03004 C 320.67086 256.03004 317.45577 260.47443 318.1177 262.93303 L 318.68507 265.2025 L 312.25488 264.06777 C 307.71592 263.31128 302.6096 261.23092 294.57186 257.0702 C 288.3308 253.85512 282.56253 250.64002 281.80604 249.88353 C 281.04955 249.2216 274.90304 245.34457 268.0946 241.37298 C 252.68106 232.10595 240.86086 224.44646 236.70015 220.75855 C 234.99804 219.24557 233.29593 218.11083 233.1068 218.3945 C 231.78295 219.71837 246.72368 230.0256 269.3239 243.45334 C 272.63356 245.43913 277.26708 248.37054 279.7257 250.07265 C 282.1843 251.77476 289.84378 255.93547 296.74678 259.43425 C 303.5552 262.93303 309.2289 266.14813 309.2289 266.62094 C 309.2289 268.03936 304.5954 268.51217 301.0966 267.37743 C 297.03046 265.959 286.345 259.24513 279.442 253.666 C 276.79427 251.58564 268.94566 246.10107 261.9481 241.46755 C 254.95054 236.73947 247.3856 231.82226 245.2107 230.30928 C 243.03578 228.89085 241.04998 227.66155 240.7663 227.66155 C 239.63156 227.66155 240.7663 230.12015 243.79227 234.56455 C 245.39982 237.02315 246.81824 239.19807 246.81824 239.48175 C 246.81824 240.14368 241.2391 237.30684 238.68594 235.32104 C 237.64577 234.47 236.7947 233.52437 236.7947 233.24069 C 236.88927 232.957 236.3219 232.01138 235.5654 231.16033 C 234.43067 229.7419 234.52523 229.55278 236.22734 229.55278 C 237.26752 229.55278 238.59138 228.9854 239.15875 228.22892 C 240.10437 227.09418 239.91524 226.62137 238.11857 225.67576 C 236.88927 225.01383 234.90348 223.87909 233.57962 223.1226 C 231.68838 222.08242 231.78295 222.3661 234.3361 224.73014 C 235.94366 226.3377 237.36208 227.7561 237.36208 227.94524 C 237.36208 228.13436 236.41646 228.22892 235.28173 228.22892 C 234.05242 228.13436 233.20137 228.60717 233.3905 229.2691 C 233.48505 229.93103 232.72856 230.4984 231.59382 230.4984 C 230.55364 230.4984 229.98627 230.9712 230.26996 231.44402 C 230.55364 232.01138 230.08084 232.38963 229.22978 232.38963 C 227.244 232.38963 220.341 227.85067 220.341 226.5268 C 220.341 226.054 218.44976 223.68996 216.08572 221.1368 C 211.925 216.6924 211.925 216.6924 211.54676 208.65467 C 211.26307 201.37342 209.37184 195.13235 207.10236 193.61937 C 206.72412 193.33568 204.73832 190.40427 202.8471 187.00006 C 200.95586 183.59584 198.21357 179.90793 196.79515 178.67863 C 191.40514 173.856 184.02933 168.74966 179.96318 166.953 C 173.34387 164.02158 174.10036 165.7237 180.81423 168.93879 C 187.33899 172.05932 189.79759 174.3288 192.16163 179.52969 C 194.14742 183.97408 193.01268 186.05444 188.37916 186.05444 C 184.50214 186.05444 177.2209 184.25777 171.92544 181.9883 C 169.93965 181.13724 168.3321 180.85355 168.3321 181.32636 C 168.3321 183.59584 187.90636 188.70216 190.83777 187.09462 C 194.24198 185.29795 195.09304 183.50128 194.05286 180.38074 C 191.87794 174.23424 196.51146 178.58407 201.80691 187.75655 C 205.7785 194.7541 205.58938 195.0378 195.75497 194.94323 C 191.40514 194.94323 186.96074 194.09218 180.62511 192.01182 C 170.22333 188.51304 162.6584 185.29795 162.6584 184.35233 C 162.75297 183.97408 163.60402 182.65022 164.54964 181.42092 C 166.06262 179.62425 167.1028 179.246 169.65596 179.71881 C 174.66773 180.4753 175.80247 179.246 173.62755 175.17985 C 171.83088 171.96476 160.76717 161.37386 160.76717 162.88684 C 160.76717 163.64334 164.26595 167.04755 167.19736 169.22247 C 169.37228 170.83002 173.06018 176.0309 173.06018 177.5439 C 173.06018 179.43513 163.03665 177.73302 155.84997 174.70705 C 152.25663 173.19406 149.41978 172.343 149.41978 172.72125 C 149.41978 173.66687 160.67261 178.4895 162.94209 178.4895 C 165.30613 178.4895 164.92788 180.28618 162.28016 181.42092 C 159.06506 182.9339 154.80979 181.89373 147.1503 178.0167 C 143.55696 176.12547 140.43642 174.8016 140.2473 175.0853 C 139.7745 175.5581 144.78626 178.39495 151.78382 181.61004 C 153.86417 182.55566 156.70102 183.40671 158.11945 183.50128 C 159.63243 183.59584 160.76717 184.06865 160.76717 184.54145 C 160.76717 186.05444 150.93276 184.35233 145.25907 181.79917 C 142.2331 180.4753 139.4908 179.52969 139.30168 179.81337 C 138.82888 180.28618 148.94697 185.10882 150.45996 185.10882 C 150.8382 185.10882 151.50013 185.58163 151.87838 186.149 C 152.91856 187.94567 142.13853 186.149 135.8029 183.59584 C 132.68237 182.36654 129.94008 181.51548 129.75096 181.79917 C 129.08903 182.36654 138.63975 186.52725 142.61134 187.47286 C 146.58293 188.32392 146.48837 189.55322 142.2331 190.40427 C 139.58537 190.87708 137.7887 190.40427 133.24974 188.04023 C 125.87394 184.1632 123.79358 184.25777 130.60202 188.22936 C 133.62799 189.93147 135.70834 191.72814 135.51922 192.39007 C 134.95185 194.09218 128.52166 193.90305 125.9685 192.10638 C 124.83376 191.3499 123.88814 190.97164 123.88814 191.3499 C 123.88814 191.8227 122.37516 190.68796 120.57848 188.89129 C 118.78181 187.09462 117.26883 186.149 117.26883 186.71637 C 117.26883 187.28374 118.97094 189.26953 121.05129 191.16077 C 123.13165 193.052 124.55007 194.56498 124.17183 194.56498 C 123.69902 194.56498 124.17183 195.0378 125.02288 195.60516 C 125.9685 196.07797 126.4413 197.11815 126.06306 197.9692 C 125.59025 199.1985 124.55007 199.38763 121.33498 199.00938 C 117.45795 198.63113 113.95917 196.64534 107.43442 191.44445 L 104.59757 189.17497 L 107.52898 189.55322 C 109.32565 189.8369 110.9332 189.45866 111.87882 188.41848 C 113.67549 186.71637 113.95917 183.6904 112.54075 182.74478 C 110.74408 181.61004 111.50057 180.28618 113.3918 181.32636 C 117.45795 183.40671 121.99691 181.89373 121.99691 178.39495 C 121.99691 177.2602 122.56428 176.88196 123.9827 177.2602 C 125.11744 177.63846 127.00867 176.97652 128.52166 175.84178 C 130.12921 174.70705 132.02044 174.04511 133.15518 174.42336 C 135.99203 175.0853 139.018 173.0995 139.018 170.45177 C 139.018 168.1823 139.11256 168.1823 142.32766 169.60072 C 146.67749 171.39739 152.63487 171.30283 154.14786 169.50616 C 155.18804 168.1823 154.80979 167.4258 151.78382 164.30527 C 149.70346 162.22491 147.6231 160.5228 147.05574 160.5228 C 146.58293 160.61736 147.71767 161.84667 149.70346 163.45421 C 151.5947 165.06176 153.20224 166.953 153.20224 167.70949 C 153.20224 169.69528 149.41978 170.16809 144.6917 168.74966 C 140.53099 167.52036 140.43642 167.52036 140.72011 163.54877 C 140.90923 161.37386 140.62555 159.57719 140.15274 159.57719 C 139.58537 159.57719 139.39625 160.42824 139.67993 161.37386 C 139.96362 162.31947 139.67993 164.02158 139.11256 165.06176 C 138.2615 166.76387 137.59958 166.85843 135.04641 166.10194 C 133.3443 165.62913 130.98026 164.2107 129.84552 162.88684 C 127.1978 159.86087 126.4413 159.86087 127.85973 162.79228 C 130.22377 168.1823 124.26639 170.54633 121.5241 165.25088 C 119.63287 161.56298 119.16006 161.65754 119.82199 165.7237 C 120.2948 168.84423 120.20024 169.03335 117.64707 169.03335 C 115.66128 169.03335 115.28303 169.31703 116.03953 170.07353 C 116.89058 170.92458 117.8362 170.92458 119.82199 170.07353 C 124.83376 167.99317 129.75096 170.35721 128.33254 174.13968 C 127.57604 176.0309 123.9827 176.12547 121.24042 174.13968 C 119.16006 172.72125 119.0655 172.72125 119.72743 175.36898 C 120.67305 179.43513 120.67305 179.52969 118.97094 180.66443 C 117.74164 181.51548 116.51234 181.32636 113.77005 179.90793 C 111.78425 178.86776 109.79846 177.92214 109.42021 177.73302 C 109.04197 177.5439 109.32565 178.96232 110.08215 180.85355 C 112.1625 185.6762 111.97338 187.66199 109.60934 188.22936 C 107.05617 188.89129 95.70878 183.97408 94.95229 181.79917 C 94.10123 179.62425 94.85773 179.246 97.8837 180.38074 C 99.30212 180.94811 100.72055 181.2318 100.90967 180.94811 C 101.19335 180.75899 99.86949 177.44933 97.97826 173.5723 C 94.76316 166.953 94.6686 166.6693 96.55983 166.38562 C 98.07282 166.10194 98.45107 165.53457 97.97826 163.7379 C 97.41089 161.7521 97.69457 161.46842 100.24774 161.46842 C 101.85528 161.46842 104.12476 161.94123 105.16494 162.5086 C 108.09635 164.11614 109.60934 162.03579 107.33986 159.57719 C 105.44863 157.40227 105.92143 157.3077 110.64951 158.63157 C 114.43198 159.67175 116.32321 158.537 114.43198 156.3621 C 113.3918 155.03823 113.77005 154.94367 116.89058 155.1328 C 120.10568 155.32191 120.57848 155.03823 120.48392 153.24156 C 120.48392 151.82313 121.14585 151.06664 123.03709 150.6884 C 124.55007 150.40471 125.77937 149.4591 126.06306 148.2298 C 126.53587 146.52768 127.00867 146.33856 130.4129 146.90593 C 133.81711 147.4733 134.28992 147.28418 134.28992 145.77119 C 134.28992 144.73101 135.61378 143.21803 137.12677 142.36697 C 140.62555 140.38118 140.72011 138.39538 137.59958 136.31503 C 135.04641 134.61292 134.47904 133.09993 136.46484 133.09993 C 138.63975 133.09993 142.04397 127.5208 141.4766 124.96764 C 141.0038 123.17096 141.19292 122.69816 142.7059 122.69816 C 145.06994 122.69816 144.50257 120.52324 141.19292 116.9299 C 138.54519 114.09305 133.81711 112.10726 125.30657 110.40515 C 117.93076 108.89216 110.64951 105.77163 110.64951 104.16408 C 110.64951 103.40759 109.79846 102.84022 108.66372 102.84022 C 107.62354 102.84022 106.016 102.17829 105.2595 101.32723 C 104.40845 100.57074 102.99002 100.09793 102.04441 100.28705 C 101.00423 100.57074 99.96405 100.38162 99.68037 99.90881 C 99.39668 99.34144 97.31633 99.24688 94.85773 99.62512 C 91.07526 100.19249 90.60245 100.09793 91.07526 98.67951 C 91.83175 96.78827 89.7514 96.69371 86.15806 98.49038 C 83.51033 99.90881 79.065935 99.53056 80.01155 98.01757 C 80.29524 97.54477 79.44418 97.07196 78.12032 96.9774 C 71.12276 96.50459 69.89346 96.59915 69.42065 97.26108 C 68.66416 98.49038 67.15117 98.30126 67.15117 96.88284 C 67.15117 94.32967 80.48436 87.99404 89.46771 86.3865 C 99.20756 84.58983 104.21933 84.58983 111.12232 86.3865 Z"
               fill="#ff0000"
               id="path142" />
          </g>
        </g>
        <g
           id="beaked">
          <g
             id="g149"
             style="fill:#0000ff">
            <path
               d="M 54.29079 98.58494 C 57.2222 99.90881 60.72098 100.94898 61.95028 100.94898 C 63.841515 100.94898 64.78713 101.98916 67.15117 106.62268 C 70.64995 113.52568 70.64995 114.28217 67.43486 111.16164 C 63.17958 107.28461 56.749394 103.31303 48.99534 99.71968 C 44.92919 97.82845 41.619535 96.03178 41.619535 95.65353 C 41.619535 94.5188 48.80622 96.12634 54.29079 98.58494 Z"
               id="path147"
               style="fill:#0000ff" />
          </g>
          <g
             id="g153"
             style="fill:#0000ff">
            <path
               d="M 62.8959 108.98672 C 68.94784 113.242 72.82487 117.02446 71.21732 117.02446 C 70.64995 117.02446 68.19135 115.41691 65.638186 113.33656 C 61.28835 109.93234 56.93852 107.19005 55.80378 107.09549 C 55.047285 107.09549 42.56515 98.96319 42.56515 98.49038 C 42.56515 97.54477 58.073256 105.48794 62.8959 108.98672 Z"
               id="path151"
               style="fill:#0000ff" />
          </g>
        </g>
        <g
           id="breast"
           style="fill:#ffff00">
          <path
             d="M 77.26926 100.19249 C 77.9312 100.6653 78.87681 100.85442 79.44418 100.47618 C 80.10611 100.09793 80.29524 100.6653 79.82243 102.27285 C 79.44418 103.78583 79.633305 104.73145 80.29524 104.73145 C 80.86261 104.73145 81.05173 105.77163 80.76804 107.28461 C 80.20067 110.68883 83.32121 115.79516 86.5363 116.64621 C 89.27859 117.30814 93.25018 115.7006 94.00667 113.62024 C 94.29036 112.86375 94.10123 111.2562 93.62842 109.93234 C 92.39912 106.62268 94.10123 106.8118 102.04441 110.87795 C 105.92143 112.76919 109.89302 115.7006 111.97338 118.1592 C 115.09391 121.75254 115.28303 122.22535 113.77005 122.98184 C 112.82443 123.54921 111.97338 124.02202 111.78425 124.21114 C 111.59513 124.3057 112.1625 125.535 113.01356 126.85887 C 114.6211 129.31747 114.6211 129.31747 111.78425 129.31747 C 109.32565 129.31747 109.04197 129.60115 109.42021 131.39783 C 109.7039 132.62713 110.64951 134.4238 111.50057 135.36941 C 112.919 137.07152 112.919 137.07152 110.83864 136.03134 C 107.15074 134.04555 107.2453 135.74766 111.02776 139.62469 L 114.52654 143.21803 L 111.87882 142.83978 C 108.09635 142.27241 103.93564 143.97452 104.59757 145.86575 C 105.07038 147.09505 104.7867 147.18962 102.61178 146.33856 C 98.92387 144.92014 98.07282 145.20382 98.64019 147.28418 C 99.113 149.17541 97.50545 153.90349 96.27615 153.90349 C 95.8979 153.90349 95.33053 153.43068 95.04685 152.95787 C 94.29036 151.72857 90.79158 151.72857 90.79158 153.05244 C 90.79158 153.6198 91.26438 154.8491 91.73719 155.88928 C 93.06105 158.25332 92.21 158.15876 88.71122 155.70016 C 85.40156 153.33612 84.45595 153.80893 85.87437 157.40227 C 86.44174 158.8207 87.19823 161.7521 87.57648 163.7379 L 88.23841 167.4258 L 85.11788 165.25088 C 82.28103 163.26509 82.09191 163.17053 82.65928 164.9672 C 82.94296 165.91282 83.32121 169.50616 83.41577 172.91037 C 83.51033 177.07109 84.17226 180.28618 85.59069 183.2176 C 86.72543 185.58163 88.04929 188.51304 88.42754 189.74234 C 89.08947 191.8227 88.90034 191.91726 86.63086 191.3499 C 84.36139 190.78252 84.26682 190.87708 85.21244 193.33568 C 85.87437 195.13235 85.87437 196.07797 85.21244 196.2671 C 84.64507 196.45622 84.17226 197.2127 84.17226 197.9692 C 84.17226 199.10394 83.79402 199.10394 82.28103 198.15833 C 79.633305 196.45622 79.25506 197.59096 80.86261 201.46798 C 82.65928 205.91238 82.65928 206.19606 80.3898 204.96676 C 76.89102 203.07553 71.97381 193.5248 70.36627 185.58163 C 70.17714 184.54145 69.32609 180.4753 68.475034 176.59828 C 67.24573 170.73546 67.24573 168.08773 68.09679 161.46842 C 71.21732 137.54433 69.42065 123.92746 61.6666 113.33656 C 58.92431 109.74322 59.86993 110.0269 66.48924 115.32235 C 74.24329 121.3743 75.28347 119.76675 69.98802 110.12146 C 65.638186 102.08372 65.25994 99.34144 68.38047 98.77407 C 71.0282 98.2067 75.75628 98.96319 77.26926 100.19249 Z"
             id="path155"
             style="fill:#ffff00" />
        </g>
        <g
           id="g121sdfg"
           style="fill:#cccccc">
          <path
             d="M 89.65684 100.19249 C 89.37315 101.51635 92.87193 101.70548 96.27615 100.57074 C 97.78914 100.09793 98.3565 100.28705 98.3565 101.23267 C 98.3565 102.08372 99.20756 102.36741 101.09879 102.08372 C 102.61178 101.8946 104.12476 102.17829 104.40845 102.74566 C 104.7867 103.31303 106.11056 103.78583 107.2453 103.78583 C 108.56916 103.78583 109.7039 104.44776 109.89302 105.48794 C 110.36583 107.19005 119.25462 110.59427 131.6422 113.7148 C 140.15274 115.88972 145.63731 120.80692 140.81467 122.03623 C 139.20712 122.50903 139.018 122.88728 139.96362 124.49483 C 141.19292 126.95343 138.82888 130.92502 135.51922 131.77607 C 132.49325 132.53256 132.77693 134.04555 136.37027 137.16608 C 138.82888 139.24644 139.20712 140.00293 138.07238 140.38118 C 137.31589 140.75943 135.61378 142.08329 134.19536 143.40715 C 132.30413 145.39294 131.07482 145.77119 128.23798 145.58207 C 125.30657 145.29838 124.64463 145.58207 124.17183 147.28418 C 123.69902 149.08085 123.13165 149.26997 120.48392 148.89172 C 116.89058 148.32435 116.6069 148.79716 118.87638 151.9177 L 120.38936 154.18717 L 115.56672 153.52524 C 110.27127 152.86331 109.79846 153.24156 112.35162 156.0784 C 113.86461 157.87508 113.86461 157.87508 111.59513 157.3077 C 110.27127 156.92946 108.56916 156.3621 107.7181 156.17297 C 106.86705 155.98385 105.63775 156.3621 105.07038 157.11858 C 104.12476 158.15876 104.31389 158.63157 105.63775 159.38806 C 108.00179 160.71193 106.58337 161.84667 104.21933 160.61736 C 103.08459 160.05 100.72055 159.57719 98.82931 159.57719 C 95.80334 159.57719 95.4251 159.76631 95.99246 161.56298 C 96.46527 162.88684 96.08703 163.92702 94.95229 164.77808 C 93.25018 166.00738 93.34474 166.29106 96.08703 172.6267 L 99.01844 179.15144 L 95.8979 178.4895 C 93.15562 177.82758 92.68281 178.0167 92.68281 179.52969 C 92.68281 181.79917 95.4251 184.54145 100.24774 187.00006 C 102.32809 188.04023 104.0302 189.26953 104.0302 189.64778 C 104.0302 190.78252 115.47216 198.91482 118.21444 199.76587 C 119.5383 200.14412 121.99691 201.75167 123.69902 203.1701 C 127.38692 206.47975 139.20712 212.5317 141.66573 212.5317 C 142.7059 212.5317 144.50257 213.28818 145.73187 214.2338 C 149.89259 217.35433 177.2209 230.78208 183.93477 232.957 C 188.94653 234.47 189.89215 235.03736 187.71723 235.13192 C 186.20425 235.13192 183.27284 234.84823 181.3816 234.37543 C 178.63932 233.7135 177.78826 233.80806 177.78826 234.75367 C 177.78826 235.51016 178.26107 236.36122 178.73388 236.6449 C 180.71967 237.8742 179.58493 239.00894 177.12633 238.44157 C 174.57317 237.77964 174.57317 237.8742 176.08615 239.67088 C 177.78826 241.46755 177.6937 241.46755 172.96562 240.90018 C 167.48105 240.14368 166.44087 240.99474 169.84509 243.26422 C 173.15474 245.43913 172.02 246.10107 168.3321 244.20983 C 166.72455 243.35878 164.83332 242.88597 164.26595 243.0751 C 163.60402 243.35878 163.8877 243.8316 165.02244 244.3044 C 166.81912 244.96633 169.18316 247.33037 169.27772 248.4651 C 169.27772 248.7488 166.81912 248.9379 163.8877 248.84335 C 156.13365 248.55967 154.80979 249.03248 156.13365 251.49108 C 157.07927 253.28775 156.9847 253.3823 154.99891 252.81494 C 153.76961 252.4367 149.32522 251.49108 145.1645 250.82915 C 131.26395 248.37054 115.8504 240.99474 103.65196 230.9712 C 96.6544 225.20295 83.98314 209.97853 83.79402 207.04712 C 83.69945 205.6287 83.22665 203.54834 82.8484 202.31904 C 82.18647 200.23868 83.51033 199.29307 84.64507 201.1843 C 85.68525 202.8864 87.19823 202.22448 86.72543 200.23868 C 86.44174 199.1985 86.72543 198.53657 87.38736 198.63113 C 88.5221 198.82026 88.5221 197.9692 87.48192 195.22692 C 87.00911 194.09218 87.2928 193.61937 88.23841 193.61937 C 90.88614 193.61937 90.9807 191.72814 88.33297 186.24356 C 86.5363 182.4611 85.68525 178.86776 85.40156 173.95055 C 85.02332 167.33124 85.11788 167.04755 86.91455 167.99317 C 90.41333 169.8844 90.69701 169.1279 88.9949 162.88684 C 88.04929 159.48263 87.48192 156.8349 87.86017 156.92946 C 94.57404 160.42824 95.51966 160.33368 93.15562 155.88928 C 91.54807 152.67419 92.11544 152.20138 94.95229 154.3763 C 97.50545 156.3621 99.30212 156.17297 99.30212 153.99805 C 99.30212 152.95787 99.68037 151.9177 100.15318 151.63401 C 100.62598 151.35033 100.81511 150.21559 100.53142 149.17541 C 99.96405 147.09505 101.28791 146.7168 104.12476 148.2298 C 105.63775 149.08085 106.11056 148.89172 106.86705 146.7168 C 107.7181 144.44733 108.19091 144.2582 112.06794 144.63645 C 116.98514 145.0147 117.36339 144.16364 113.77005 140.38118 C 111.97338 138.5845 111.68969 137.92258 112.82443 138.30082 C 114.90479 139.15188 114.99935 136.69328 113.01356 134.99117 C 112.25706 134.32924 111.59513 133.00537 111.59513 132.05976 C 111.59513 130.54677 112.06794 130.35765 113.95917 130.83046 C 116.70146 131.49239 116.79602 131.11414 114.90479 127.42624 C 113.58093 124.77851 113.58093 124.68395 116.03953 124.40027 L 118.49813 124.11658 L 113.86461 118.632 C 108.19091 112.0127 97.41089 106.14987 87.67104 104.44776 C 84.17226 103.8804 81.33541 103.1239 81.33541 102.84022 C 81.33541 102.08372 87.10367 99.24688 88.71122 99.15231 C 89.27859 99.05775 89.7514 99.62512 89.65684 100.19249 Z"
             id="path159"
             style="fill:#cccccc" />
        </g>
        <g
           id="g165"
           style="fill:#e6e6e6">
          <path
             d="M 86.5363 107.75742 C 87.10367 108.98672 88.42754 110.0269 89.65684 110.21602 C 92.11544 110.59427 92.49368 113.33656 90.31877 115.13323 C 89.18403 116.07884 88.33297 116.07884 86.44174 115.22779 C 83.98314 114.09305 81.24085 108.98672 81.99735 106.90637 C 82.75384 104.92057 85.49613 105.48794 86.5363 107.75742 Z"
             id="path163"
             style="fill:#e6e6e6" />
        </g>
        <g
           id="g170">
          <g
             id="feature-1">
            <path
               d="M 90.31877 107.5683 C 90.60245 108.0411 90.22421 108.51391 89.46771 108.51391 C 88.71122 108.51391 87.7656 108.0411 87.48192 107.5683 C 87.19823 107.00093 87.57648 106.62268 88.33297 106.62268 C 89.08947 106.62268 90.03508 107.00093 90.31877 107.5683 Z"
               fill="#ff0000"
               id="path167" />
          </g>
        </g>
        <g
           id="g175">
          <g
             id="feature-2">
            <path
               d="M 190.17583 144.92014 C 193.10724 146.7168 197.26796 150.59383 199.82112 153.90349 C 204.36008 159.67175 205.3057 161.84667 202.94165 161.2793 C 201.42867 160.90105 182.8946 141.61048 184.1239 141.61048 C 184.5967 141.61048 187.24442 143.12347 190.17583 144.92014 Z"
               fill="#ff0000"
               id="path172" />
          </g>
        </g>
        <g
           id="g180">
          <g
             id="feature-3">
            <path
               d="M 212.49238 169.03335 C 214.6673 171.39739 216.55853 173.5723 216.55853 173.95055 C 216.55853 174.3288 215.32922 174.13968 213.72168 173.66687 C 212.2087 173.0995 210.88483 172.343 210.88483 171.96476 C 210.88483 171.49195 208.89903 169.22247 206.44043 166.76387 C 203.88727 164.30527 202.5634 162.60316 203.41446 162.88684 C 204.36008 163.26509 205.3057 162.9814 205.68394 162.31947 C 206.2513 161.56298 206.72412 161.7521 207.38605 162.9814 C 207.95342 164.02158 210.2229 166.6693 212.49238 169.03335 Z"
               fill="#ff0000"
               id="path177" />
          </g>
        </g>
        <g
           id="g185">
          <g
             id="feature-4">
            <path
               d="M 137.59958 170.6409 C 137.59958 172.53213 135.23554 173.28862 131.92588 172.43757 C 129.46728 171.77564 128.52166 170.07353 129.27815 167.33124 C 129.75096 165.44 129.75096 165.44 133.62799 167.14212 C 136.18115 168.27686 137.59958 169.60072 137.59958 170.6409 Z"
               fill="#ff0000"
               id="path182" />
          </g>
        </g>
        <g
           id="g190">
          <g
             id="feature-5">
            <path
               d="M 218.0715 176.97652 C 220.15187 178.58407 219.1117 180.28618 216.8422 178.86776 C 215.04554 177.73302 214.09992 175.65266 215.32922 175.65266 C 215.80203 175.65266 217.03133 176.22003 218.0715 176.97652 Z"
               fill="#ff0000"
               id="path187" />
          </g>
        </g>
        <g
           id="g195">
          <g
             id="feature-6">
            <path
               d="M 222.23222 182.27197 C 222.23222 182.74478 221.85398 183.2176 221.38117 183.2176 C 220.8138 183.2176 220.15187 182.74478 219.86818 182.27197 C 219.5845 181.7046 219.96274 181.32636 220.71924 181.32636 C 221.5703 181.32636 222.23222 181.7046 222.23222 182.27197 Z"
               fill="#ff0000"
               id="path192" />
          </g>
        </g>
        <g
           id="g200">
          <g
             id="feature-7">
            <path
               d="M 224.59626 186.05444 C 224.87995 186.52725 224.78539 187.00006 224.21802 187.00006 C 223.7452 187.00006 222.98872 186.52725 222.70503 186.05444 C 222.42135 185.48707 222.5159 185.10882 223.08328 185.10882 C 223.55608 185.10882 224.31258 185.48707 224.59626 186.05444 Z"
               fill="#ff0000"
               id="path197" />
          </g>
        </g>
        <g
           id="g205">
          <g
             id="feature-8">
            <path
               d="M 168.04842 188.70216 C 176.27528 192.86288 187.5281 195.88885 194.80935 195.9834 C 198.68638 195.9834 203.03621 195.69972 204.36008 195.32148 C 206.535 194.65955 207.0078 194.94323 208.5208 198.25289 C 210.6957 203.07553 209.7501 207.8036 206.62956 207.8036 C 200.8613 207.8036 167.95385 195.41604 160.01068 190.21515 C 158.78138 189.3641 157.55208 188.98585 157.2684 189.17497 C 154.80979 191.72814 202.65797 210.45134 208.04798 209.0329 C 209.84465 208.5601 210.03377 208.8438 209.7501 211.20783 C 209.4664 213.761 209.18272 213.95012 204.83288 214.2338 C 201.71235 214.42292 198.21357 213.85555 194.52567 212.5317 C 185.25863 209.12747 161.61823 197.9692 155.56628 194.18674 C 150.64908 191.0662 150.17627 190.87708 152.25663 193.052 C 154.71523 195.69972 172.20913 204.58852 188.66285 211.68064 C 196.22778 214.80117 199.3483 215.65223 203.98183 215.74679 C 210.03377 215.84135 211.73588 216.78696 207.7643 217.73258 C 201.90147 219.24557 172.58737 208.0873 157.7412 198.7257 C 155.7554 197.4964 154.14786 196.7399 154.14786 197.2127 C 154.14786 197.59096 156.9847 199.67131 160.48349 201.6571 C 163.98227 203.73746 167.5756 206.1015 168.52122 207.04712 C 173.15474 211.68064 201.42867 223.50084 205.87306 222.64978 C 207.29149 222.3661 208.04798 222.74435 208.04798 223.50084 C 208.04798 228.32348 185.3532 220.75855 166.44087 209.60028 C 162.6584 207.42536 161.71279 207.14168 162.94209 208.5601 C 165.4007 211.3024 190.45952 223.31172 197.6462 225.2975 C 204.73832 227.09418 208.5208 226.3377 209.9392 222.55522 C 211.26307 219.05644 212.2087 218.96188 215.51835 222.3661 C 219.3008 226.24313 221.47573 232.10595 220.15187 234.56455 C 219.01713 236.83403 214.85642 236.1721 201.90147 231.7277 C 193.01268 228.70173 182.8946 223.50084 166.44087 213.57187 C 155.37716 206.95256 146.58293 202.22448 146.58293 202.8864 C 146.58293 203.54834 152.44575 207.8036 153.39137 207.8036 C 153.67505 207.8036 158.59225 210.5459 164.17139 213.761 C 186.10968 226.62137 193.76918 230.4984 203.13078 233.7135 C 217.31502 238.6307 223.17784 238.06333 222.0431 231.91682 C 221.38117 228.70173 222.32678 228.9854 224.78539 232.76788 C 229.79715 240.52193 228.00048 244.20983 220.5301 241.5621 C 218.0715 240.71105 213.1543 239.48175 209.4664 238.91438 C 205.49482 238.25245 198.4027 235.79385 191.87794 232.86244 C 181.47617 228.22892 159.53787 215.9359 153.95874 211.58608 C 152.44575 210.45134 151.31101 209.97853 151.31101 210.45134 C 151.31101 211.58608 155.09347 214.04468 170.22333 222.93347 C 183.93477 231.06577 185.25863 232.01138 180.1523 230.21471 C 172.96562 227.66155 145.63731 213.28818 145.63731 212.05888 C 145.63731 211.39695 146.29924 210.5459 147.1503 210.26221 C 148.94697 209.60028 148.56872 205.72326 146.58293 205.15589 C 145.44819 204.77764 145.35363 204.96676 146.3938 206.00694 C 149.51434 209.3166 145.63731 209.69484 139.67993 206.76343 C 133.72255 203.6429 127.1978 199.00938 128.33254 198.63113 C 128.8999 198.442 131.16939 199.10394 133.24974 200.14412 C 138.16695 202.69728 140.90923 202.69728 140.90923 200.23868 C 140.90923 199.1985 140.53099 198.34745 139.96362 198.34745 C 139.4908 198.34745 139.30168 199.00938 139.67993 199.86044 C 140.15274 201.08974 139.86905 201.27886 137.97782 200.7115 C 134.47904 199.57675 130.98026 197.68552 129.6564 196.07797 C 128.61622 194.84867 128.8999 194.7541 131.73676 195.22692 C 134.47904 195.60516 135.3301 195.32148 136.37027 193.71393 C 137.22133 192.2955 138.54519 191.72814 141.0038 191.72814 C 142.89503 191.72814 144.97538 191.0662 145.63731 190.30971 C 146.29924 189.55322 147.71767 188.89129 148.8524 188.89129 C 149.89259 188.89129 151.50013 188.32392 152.35119 187.66199 C 154.62067 185.95988 163.79314 186.52725 168.04842 188.70216 Z"
               fill="#ff0000"
               id="path202" />
          </g>
        </g>
        <g
           id="g210">
          <g
             id="feature-9">
            <path
               d="M 228.6624 190.5934 C 228.85154 191.25533 228.4733 191.53901 227.52767 191.16077 C 226.67662 190.87708 226.0147 190.1206 226.0147 189.64778 C 226.0147 188.41848 228.1896 189.17497 228.6624 190.5934 Z"
               fill="#ff0000"
               id="path207" />
          </g>
        </g>
        <g
           id="g215">
          <g
             id="feature-10">
            <path
               d="M 233.48505 194.65955 C 234.6198 195.79429 235.3763 196.83446 235.0926 197.11815 C 234.43067 197.87464 229.79715 194.7541 229.79715 193.61937 C 229.79715 192.10638 231.12101 192.48463 233.48505 194.65955 Z"
               fill="#ff0000"
               id="path212" />
          </g>
        </g>
        <g
           id="g220">
          <g
             id="feature-11">
            <path
               d="M 240.57718 200.90061 C 240.95542 201.75167 241.04998 202.60272 240.7663 202.79185 C 240.2935 203.26465 237.36208 200.33324 237.36208 199.29307 C 237.36208 197.9692 240.0098 199.29307 240.57718 200.90061 Z"
               fill="#ff0000"
               id="path217" />
          </g>
        </g>
        <g
           id="g225">
          <g
             id="feature-12">
            <path
               d="M 131.6422 203.35922 C 134.00623 205.06132 137.69414 207.23624 139.86905 208.27642 C 144.40801 210.26221 144.97538 212.05888 140.81467 211.11327 C 138.07238 210.45134 127.76517 205.06132 125.02288 202.8864 C 123.9827 202.03535 123.9827 201.6571 125.02288 201.08974 C 126.81955 199.955 126.72499 199.955 131.6422 203.35922 Z"
               fill="#ff0000"
               id="path222" />
          </g>
        </g>
        <g
           id="g230">
          <g
             id="feature-13">
            <path
               d="M 246.34543 205.91238 C 247.10193 207.14168 246.25087 207.14168 243.88683 205.91238 C 242.94122 205.345 242.09016 204.49395 242.09016 203.92658 C 242.09016 202.8864 245.39982 204.3994 246.34543 205.91238 Z"
               fill="#ff0000"
               id="path227" />
          </g>
        </g>
        <g
           id="g235">
          <g
             id="feature-14">
            <path
               d="M 191.31057 215.4631 C 197.45708 217.73258 203.22534 219.151 205.7785 219.151 C 208.42623 219.151 209.84465 219.52925 209.4664 220.09662 C 207.7643 222.8389 193.2018 219.151 182.04354 213.09906 C 179.49037 211.68064 178.1665 210.82958 179.20669 211.20783 C 180.24686 211.58608 185.73144 213.4773 191.31057 215.4631 Z"
               fill="#ff0000"
               id="path232" />
          </g>
        </g>
        <g
           id="g240">
          <g
             id="feature-15">
            <path
               d="M 231.4047 236.9286 C 231.78295 237.77964 233.01225 239.76544 234.24155 241.18386 C 235.47085 242.69685 236.41646 244.49352 236.41646 245.25 C 236.41646 247.61405 227.33855 246.85756 218.44976 243.73703 C 212.2087 241.46755 211.35764 240.99474 214.57273 241.46755 C 216.8422 241.75123 220.15187 242.69685 221.85398 243.35878 C 224.40714 244.39896 225.44732 244.49352 226.9603 243.5479 C 229.60803 241.8458 229.98627 240.3328 228.37873 236.55034 C 227.05486 233.4298 227.14943 233.33525 228.9461 234.37543 C 229.98627 234.84823 231.12101 236.07753 231.4047 236.9286 Z"
               fill="#ff0000"
               id="path237" />
          </g>
        </g>
        <g
           id="legged">
          <g
             id="g245"
             style="fill:#00ff00">
            <g
               id="feature-16"
               style="fill:#00ff00">
              <path
                 d="M 173.06018 242.7914 C 173.06018 243.26422 172.87106 243.73703 172.68194 243.73703 C 172.39825 243.73703 171.92544 243.26422 171.64176 242.7914 C 171.35807 242.22404 171.5472 241.8458 172.02 241.8458 C 172.58737 241.8458 173.06018 242.22404 173.06018 242.7914 Z"
                 fill="#ff0000"
                 id="path242"
                 style="fill:#00ff00" />
            </g>
          </g>
          <g
             id="g249"
             style="fill:#00ff00">
            <path
               d="M 173.15474 248.18142 C 173.2493 249.12704 173.34387 256.97565 173.43843 265.58076 C 173.533 277.7792 173.81667 281.65623 174.85685 282.88553 C 176.08615 284.39852 176.08615 284.49308 174.85685 284.30396 C 174.19492 284.11484 172.30369 284.77677 170.7907 285.81694 C 167.95385 287.70818 161.14542 288.93748 152.824 289.03204 C 145.35363 289.22116 148.47416 288.08642 157.7412 287.32993 C 162.94209 286.85712 167.00824 286.00607 168.3321 285.06045 C 170.41246 283.64203 170.12877 283.54747 163.50946 283.83115 C 158.78138 284.02027 155.66084 283.64203 153.76961 282.6964 C 151.97294 281.84536 149.51434 281.56167 146.86661 281.84536 C 143.4624 282.2236 142.89503 282.03448 143.84064 280.9943 C 145.25907 279.2922 151.31101 279.38675 153.58049 281.08886 C 154.71523 281.93992 157.55208 282.5073 160.9563 282.5073 C 165.30613 282.5073 166.81912 282.12904 168.42666 280.5215 C 170.41246 278.5357 170.41246 277.7792 170.0342 264.82427 C 169.5614 251.49108 169.5614 251.30195 171.45263 251.86932 C 173.34387 252.4367 173.43843 252.4367 171.83088 250.07265 C 169.84509 247.04668 169.84509 246.57387 171.64176 246.57387 C 172.39825 246.57387 173.15474 247.33037 173.15474 248.18142 Z"
               fill="#ccc"
               id="path247"
               style="fill:#00ff00" />
          </g>
          <g
             id="g253"
             style="fill:#00ff00">
            <path
               d="M 148.66328 253.666 C 148.3796 254.1388 146.96118 256.31372 145.44819 258.39408 C 143.9352 260.47443 140.90923 264.91883 138.73431 268.22848 C 136.5594 271.6327 132.30413 277.96833 129.37271 282.41273 C 119.44375 297.35346 118.87638 298.4882 120.01111 299.90663 C 120.86217 300.9468 120.48392 301.60873 118.02532 303.12172 C 116.32321 304.1619 113.86461 304.9184 112.54075 304.72927 C 110.55495 304.4456 108.56916 306.1477 100.24774 315.0365 C 88.42754 327.8023 85.87437 329.7881 89.94052 323.1688 C 92.58825 318.81895 102.51722 308.98454 104.21933 308.98454 C 105.2595 308.98454 105.16494 306.3368 104.12476 305.6749 C 103.65196 305.3912 99.5858 307.18787 95.04685 309.5519 C 90.50789 311.91595 86.63086 313.71262 86.44174 313.42894 C 86.15806 313.14525 87.10367 312.2942 88.61666 311.5377 C 97.78914 306.71506 108.85284 300.0012 112.25706 297.16434 C 116.98514 293.19275 127.29236 280.80518 128.52166 277.49552 C 128.99447 276.26622 132.20956 271.06533 135.70834 265.959 C 140.34186 259.24513 141.94941 256.1246 141.57116 254.51705 C 141.19292 252.34213 141.38204 252.24757 145.1645 252.53126 C 147.52855 252.62582 149.04153 253.09863 148.66328 253.666 Z"
               fill="#ccc"
               id="path251"
               style="fill:#00ff00" />
          </g>
          <g
             id="g257"
             style="fill:#00ff00">
            <path
               d="M 157.7412 276.26622 C 159.15962 277.0227 161.90191 277.87377 163.8877 278.252 C 165.77894 278.63026 167.38648 279.38675 167.38648 279.85956 C 167.38648 280.33237 166.44087 280.42693 165.30613 280.0487 C 160.67261 278.63026 153.20224 275.69885 153.20224 275.3206 C 153.20224 274.5641 155.18804 274.94236 157.7412 276.26622 Z"
               fill="#ccc"
               id="path255"
               style="fill:#00ff00" />
          </g>
          <g
             id="g261"
             style="fill:#00ff00">
            <path
               d="M 185.826 286.3843 C 186.39337 286.3843 188.47373 286.00607 190.55408 285.72238 L 194.33655 285.24957 L 191.9725 287.32993 C 190.08127 288.93748 188.85197 289.22116 185.54232 288.74835 C 183.27284 288.46467 180.53055 287.51905 179.3958 286.668 C 177.41002 285.24957 177.41002 285.155 181.09792 285.81694 C 183.17827 286.1952 185.3532 286.47888 185.826 286.3843 Z"
               fill="#ccc"
               id="path259"
               style="fill:#00ff00" />
          </g>
          <g
             id="g265"
             style="fill:#00ff00">
            <path
               d="M 143.36783 297.82627 C 140.2473 298.86645 136.84308 300.28487 135.8029 301.04136 C 133.72255 302.4598 128.71078 302.6489 124.83376 301.4196 C 123.03709 300.85224 123.88814 300.66312 128.14341 300.56856 C 131.73676 300.474 135.70834 299.62294 139.018 298.2045 C 141.85485 296.9752 145.25907 295.93504 146.58293 295.93504 C 147.9068 295.93504 146.58293 296.69153 143.36783 297.82627 Z"
               fill="#ccc"
               id="path263"
               style="fill:#00ff00" />
          </g>
          <g
             id="g269"
             style="fill:#00ff00">
            <path
               d="M 107.81267 299.4338 C 107.05617 300.0012 106.20512 300.1903 105.92143 300.0012 C 105.63775 299.81206 101.09879 300.28487 95.99246 301.04136 C 90.79158 301.7033 84.45595 302.27067 81.80822 302.27067 C 78.49857 302.1761 80.48436 301.60873 88.90034 300.474 C 102.8009 298.58276 109.89302 298.2045 107.81267 299.4338 Z"
               fill="#ccc"
               id="path267"
               style="fill:#00ff00" />
          </g>
        </g>
        <g
           id="g274">
          <g
             id="outline-1">
            <path
               d="M 110.08215 165.34545 C 110.9332 169.22247 108.9474 170.35721 104.12476 168.6551 C 101.94985 167.99317 100.24774 167.70949 100.24774 168.1823 C 100.24774 169.60072 107.81267 171.39739 109.51478 170.26265 C 111.50057 169.03335 112.1625 165.34545 110.64951 163.92702 C 109.7039 163.17053 109.60934 163.45421 110.08215 165.34545 Z"
               fill="black"
               id="path271" />
          </g>
        </g>
        <g
           id="g279">
          <g
             id="outline-2">
            <path
               d="M 62.139406 102.55653 C 61.76116 103.1239 62.32853 104.25864 63.36871 105.20426 C 65.543624 107.19005 65.92187 105.96075 64.03064 103.31303 C 63.274145 102.27285 62.51765 101.98916 62.139406 102.55653 Z"
               fill="black"
               id="path276" />
          </g>
        </g>
      </g>
    </g>
  </g>
</svg>
