<?xml version="1.0" encoding="UTF-8" standalone="no"?>
<svg
   height="397.40311"
   width="216.67416"
   version="1.0"
   id="svg2"
   xmlns="http://www.w3.org/2000/svg"
   xmlns:svg="http://www.w3.org/2000/svg"
   xmlns:rdf="http://www.w3.org/1999/02/22-rdf-syntax-ns#"
   xmlns:cc="http://creativecommons.org/ns#"
   xmlns:dc="http://purl.org/dc/elements/1.1/">
  <defs
     id="defs6" />
  <path
     style="opacity:1;fill:#ffff00;fill-opacity:1;stroke:#000000;stroke-width:3;stroke-miterlimit:4;stroke-dasharray:none;stroke-opacity:1"
     d="m 16.202192,127.73537 c -11.6854804,9.51884 13.88493,-2.68302 31.81781,-16.71465 5.33889,-4.17743 8.21394,-7.27528 10.08334,-11.234944 0,-3.26926 -3.88984,0.245034 -15.09375,7.468754 -9.75147,8.28775 -22.12092,16.66329 -26.8074,20.48084 z"
     id="path1248"
     clip-path="none" />
  <path
     style="fill:#ff0000;fill-opacity:1;stroke:#000000;stroke-width:3;stroke-miterlimit:4;stroke-dasharray:none;stroke-opacity:1"
     d="m 138.46854,1.5064871 c -18.3141,0.25413 -35.3628,7.94888 -50.031298,22.8749989 -6.1682,6.27654 -11.2187,12.06376 -11.2187,12.875 0,0.81125 -6.5144,4.33662 -14.4688,7.8125 -16.4889,7.20529 -25.4107,16.00147 -24.4062,24.03125 0.4259,3.40469 -0.7674,5.94731 -3.8125,8.21875 -5.1301,3.82658 -5.6125,7.10713 -1.5,10.25 l 4.83363,0.59499 29.44757,17.498814 c 4.6236,-5.46736 12.07,-13.739864 16.5313,-18.375004 4.4613,-4.63513 12.3314,-14.63079 17.499998,-22.21875 12.6808,-18.61646 23.1487,-25.02694 39.1875,-24.03125 9.1931,0.57072 12.4107,1.67805 17.4062,6 16.6594,14.41304 17.8839,38.11132 3.3438,65.312504 -10.4636,19.57489 -34.8032,40.3125 -47.3438,40.3125 -1.7072,0 -3.6765,0.81844 -4.3437,1.8125 -0.6672,0.99406 -0.2069,1.78125 1,1.78125 1.2069,0 1.6816,0.76507 1.0625,1.6875 -0.6471,0.96418 2.8111,1.46372 8.125,1.1875 l 9.25,-0.46875 -7.5938,6.03125 c -4.1684,3.31811 -8.748,6.03126 -10.1875,6.03125 -1.4394,0 -2.6249,0.69674 -2.625,1.53125 0,3.86163 -22.058498,9.96765 -25.281198,7 -1.3998,-1.28898 -2.9734,-1.15168 -5.0938,0.46875 -2.7896,2.1319 -2.8054,2.67505 0.094,5.625 1.7587,1.78954 5.5172,3.50792 8.3437,3.8125 4.5274,0.48786 3.5657,1.39126 -8.2187,7.71875 -15.1825,8.15201 -24.8125,17.20887 -24.8125,23.34375 0,2.2965 -1.8542,5.70127 -4.125,7.59375 -10.1778,8.48168 -17.5425,27.8928 -10.0625,26.5 1.5353,-0.28589 0.9159,2.61566 -1.75,8.15625 -12.883,26.77398 -13.5379,27.73198 -19.9063,30.28125 -2.4113,0.96525 -5.1701,1.68682 -6.9062,2.1875 -1.1610004,-3.43109 -3.4647004,-4.08165 -5.2813004,-1.375 -2.352,3.50442 6.6096004,9.09374 14.5625004,9.09375 10.5016,0 16.1154,-2.23879 25.875,-10.3125 7.077,-5.85454 7.7755,-6.11893 4.7813,-1.875 -1.9292,2.73438 -5.69,6.40733 -8.3438,8.1875 l -4.8125,3.25 5.125,2.53125 c 4.0964,2.01879 6.8246,2.14125 13.375,0.53125 6.2081,-1.52589 8.6372,-1.50842 9.9063,0.0937 1.1049,1.39492 1.3358,1.09182 0.6562,-0.875 -0.9712,-2.81107 5.5391,-10.2794 7.4375,-8.53125 0.478,0.44019 -0.077,4.4338 -1.25,8.875 -2.4253,9.17963 -15.9481,27.07682 -21.4687,28.40625 -4.4291,1.06655 -4.7599,4.59918 -0.7188,7.6875 4.0692,3.10977 21.5824,1.36895 26.375,-2.625 2.1242,-1.77023 4.814,-2.5764 6.1563,-1.8125 1.4611,0.83156 1.8907,0.62489 1.0937,-0.5625 -0.7168,-1.06805 0.7433,-3.43077 3.25,-5.25 2.5068,-1.81921 5.5948,-4.94937 6.8438,-6.9375 1.885,-3.00048 2.263,-1.51856 2.3125,8.65625 0.069,14.25677 3.571498,23.26898 10.687498,27.5625 5.8208,3.51206 17.2428,2.26808 13.2187,-1.4375 -2.4132,-2.22221 -2.6359,-13.30636 -0.4375,-22.125 1.1818,-4.74027 1.5491,-4.04305 2.9063,5.4375 1.8035,12.59794 9.7123,28.63192 16.5625,33.59375 5.7821,4.18817 7.0115,4.2378 10.9687,0.59375 1.8777,-1.72901 3.0938,-1.99578 3.0938,-0.71875 0,3.53606 17.4154,17.91076 23.0937,19.0625 2.9414,0.59662 6.233,1.34937 7.3125,1.65625 1.0796,0.30687 3.7473,0.18801 5.9063,-0.25 2.159,-0.43802 5.8334,-0.9316 8.1875,-1.09375 2.3541,-0.16217 3.8702,-0.88717 3.375,-1.625 -0.4952,-0.73783 0.7713,-2.18154 2.8125,-3.1875 2.0412,-1.00597 4.8377,-4.28037 6.1875,-7.28125 2.655,-5.90235 1.1796,-15.42543 -2.0938,-13.5625 -1.1048,0.62879 -1.6636,2.07615 -1.25,3.21875 1.167,3.22377 -3.6517,6.625 -9.375,6.625 -7.4077,0 -17.3915,-7.72847 -22.8125,-17.65625 -2.5667,-4.7006 -5.1533,-8.94046 -5.75,-9.4375 -2.7808,-2.31664 -9.8789,-20.54085 -8.9062,-22.875 0.6026,-1.44603 0.2759,-2.14636 -0.75,-1.5625 -3.3193,1.88904 -12.7131,-35.43669 -11.5313,-45.8125 0.2991,-2.62537 -0.1709,-5.81192 -1.0312,-7.09375 -1.1755,-1.75138 -0.3802,-2.05052 3.2187,-1.21875 5.1639,1.19344 13.2979,-4.12412 9.5625,-6.25 -3.4156,-1.94388 -5.9344,-10.27707 -7.3125,-24.28125 l -1.3437,-13.5 6.6562,0.28125 c 6.5115,0.28665 6.6273,0.1748 6,-6.4375 -0.5478,-5.77482 1.7858,-20.83472 4.7188,-30.4375 0.6138,-2.00977 2.5417,-2.64138 6.5937,-2.09375 5.2232,0.70593 5.7477,0.31946 5.625,-4.375 -0.074,-2.8372 2.2921,-10.44482 5.2813,-16.90625 2.9892,-6.46142 6.0412,-13.76483 6.7812,-16.25 0.74,-2.48517 2.3846,-4.62573 3.6563,-4.75 1.2717,-0.12426 3.2722,-0.34449 4.4375,-0.46875 1.2553,-0.13386 1.6696,-2.24254 1,-5.1875 -1.128,-4.9611 0.6619,-12.8104 8.7812,-38.40625 12.7198,-40.098234 -2.9353,-78.848364 -38.25,-94.7187529 -11.6689,-5.24402 -23.1052,-7.77748 -34.0937,-7.625 z"
     id="path241"
     clip-path="none" />
  <path
     id="path1271"
     d="m 162.2479,124.99853 c -5.15002,6.26842 -7.88465,10.39046 -13.94899,16.20926"
     style="fill:none;fill-rule:evenodd;stroke:#000000;stroke-width:3;stroke-linecap:round;stroke-linejoin:miter;stroke-miterlimit:4;stroke-dasharray:none;stroke-opacity:1"
     clip-path="none" />
  <path
     id="path1252"
     d="m 32.031042,94.881486 c -4.8016,6.209454 -21.8938,18.000004 -26.0938004,18.000004 -4.935,0 -5.92089994,3.57392 -2.0625,7.5 3.519,3.58065 7.0764004,3.70167 17.4063004,0.625 15.49046,-6.66242 29.49179,-22.258814 38.2187,-22.406254 0.53449,3.818744 -18.62767,22.822044 -28.4687,30.281254 -4.1755,3.02443 -4.4115,3.78028 -1.875,5.71875 2.3232,1.77552 3.5359,1.75633 5.875,-0.0312 1.6192,-1.23751 2.9375,-1.61378 2.9375,-0.84375 0,2.14026 19.875,-16.86596 29.3437,-28.0625 -0.31392,-6.265814 6.0369,-12.661714 -0.22509,-17.238774 -2.61558,-1.9118 -12.02563,-1.91814 -17.57026,0.72672 0.34324,-0.50382 6.21395,-3.2787 6.47889,-3.91946 0.58973,-1.42652 0.77811,-2.10843 0.47656,-2.10937 v 0 c -0.23453,0 -0.76581,0.41061 -1.63281,1.20312 -3.0858,2.82072 -8.9469,2.95528 -9.9375,0.21875 -0.5302,-1.46464 -1.98025,-1.34834 -5.03125,0.40625 -3.80864,1.88544 -4.81058,6.78393 -7.83971,9.93146 z"
     style="fill:#2b5df2;fill-opacity:1;stroke:#000000;stroke-width:3;stroke-miterlimit:4;stroke-dasharray:none;stroke-opacity:1"
     clip-path="none" />
  <path
     style="fill:none;fill-rule:evenodd;stroke:#000000;stroke-width:3;stroke-linecap:round;stroke-linejoin:miter;stroke-miterlimit:4;stroke-dasharray:none;stroke-opacity:1"
     d="m 194.59354,91.443986 c -2.71739,10.981884 -6.67643,18.925724 -13.24385,23.812644 -7.69687,5.72736 -12.85214,9.6036 -0.68011,-8.55074"
     id="path1301"
     clip-path="none" />
  <path
     style="fill:none;fill-rule:evenodd;stroke:#000000;stroke-width:3;stroke-linecap:round;stroke-linejoin:miter;stroke-miterlimit:4;stroke-dasharray:none;stroke-opacity:1"
     d="m 180.22918,134.52393 c -2.06452,3.97979 -4.8249,9.23296 -4.41942,10.51821 9.11128,-1.9922 17.79789,-16.82632 19.09188,-21.30159 -0.44403,3.99234 -2.3433,7.58669 -1.14905,10.6066"
     id="path1305"
     clip-path="none" />
  <path
     style="fill:none;fill-rule:evenodd;stroke:#000000;stroke-width:3;stroke-linecap:round;stroke-linejoin:miter;stroke-miterlimit:4;stroke-dasharray:none;stroke-opacity:1"
     d="m 176.34334,134.44394 c -12.60325,6.79175 -28.97769,21.48984 -9.3748,-7.0937"
     id="path1303"
     clip-path="none" />
  <path
     style="fill:#ffffff;fill-opacity:1;stroke:#000000;stroke-opacity:1"
     d="m 186.40604,147.85024 c -1.7351,0.3615 -13,21.38603 -13,24.4375 0,1.57194 3.0981,-3.12034 6.9062,-10.4375 3.8081,-7.31717 6.6083,-13.61007 6.2188,-13.96875 -0.035,-0.0326 -0.069,-0.0429 -0.125,-0.0312 z"
     id="path175"
     clip-path="none" />
  <path
     id="path1307"
     d="m 155.93355,158.72567 c -13.20437,5.53304 -30.93142,18.5679 -8.63999,-7.97233"
     style="fill:none;fill-rule:evenodd;stroke:#000000;stroke-width:3;stroke-linecap:round;stroke-linejoin:miter;stroke-miterlimit:4;stroke-dasharray:none;stroke-opacity:1"
     clip-path="none" />
  <path
     style="fill:none;fill-rule:evenodd;stroke:#000000;stroke-width:3;stroke-linecap:round;stroke-linejoin:miter;stroke-miterlimit:4;stroke-dasharray:none;stroke-opacity:1"
     d="m 177.15604,151.56899 c -11.12988,20.11355 -20.06094,25.99673 -26.09751,27.90299 -3.80861,1.20271 -13.47228,5.05844 9.22251,-16.87174"
     id="path1317"
     clip-path="none" />
  <path
     style="fill:none;fill-rule:evenodd;stroke:#000000;stroke-width:3;stroke-linecap:round;stroke-linejoin:miter;stroke-miterlimit:4;stroke-dasharray:none;stroke-opacity:1"
     d="m 122.77676,174.58027 c -5.58752,4.51842 -9.38465,6.57796 -14.88649,10.08426"
     id="path1273"
     clip-path="none" />
  <path
     style="fill:none;fill-rule:evenodd;stroke:#000000;stroke-width:3;stroke-linecap:round;stroke-linejoin:miter;stroke-miterlimit:4;stroke-dasharray:none;stroke-opacity:1"
     d="m 134.93355,189.72567 c -13.20437,5.53304 -30.93142,18.5679 -8.63999,-7.97233"
     id="path1309"
     clip-path="none" />
  <path
     id="path1269"
     d="m 157.58369,187.16848 c -3.24967,5.42874 -7.07596,16.11375 -5.34089,20.25708"
     style="fill:none;fill-rule:evenodd;stroke:#000000;stroke-width:3;stroke-linecap:round;stroke-linejoin:miter;stroke-miterlimit:4;stroke-dasharray:none;stroke-opacity:1"
     clip-path="none" />
  <path
     id="path1279"
     d="m 146.78797,191.32944 c -0.716,0.76611 -3.00437,4.71564 -3.34705,5.56585"
     style="fill:none;fill-rule:evenodd;stroke:#000000;stroke-width:3;stroke-linecap:round;stroke-linejoin:miter;stroke-miterlimit:4;stroke-dasharray:none;stroke-opacity:1"
     clip-path="none" />
  <path
     style="fill:none;fill-rule:evenodd;stroke:#000000;stroke-width:3;stroke-linecap:round;stroke-linejoin:miter;stroke-miterlimit:4;stroke-dasharray:none;stroke-opacity:1"
     d="m 100.35772,209.18906 c -21.159318,12.86927 -23.218948,9.68808 1.01702,-15.52632"
     id="path1321"
     clip-path="none" />
  <path
     style="fill:none;fill-rule:evenodd;stroke:#000000;stroke-width:3;stroke-linecap:round;stroke-linejoin:miter;stroke-miterlimit:4;stroke-dasharray:none;stroke-opacity:1"
     d="m 132.56224,198.72524 c -4.74967,4.99124 -13.85287,13.07076 -12.5553,18.65159"
     id="path1315"
     clip-path="none" />
  <path
     id="path1275"
     d="m 83.245512,201.67402 c -5.86462,4.10277 -6.67249,4.9587 -9.13649,7.70926"
     style="fill:none;fill-rule:evenodd;stroke:#000000;stroke-width:3;stroke-linecap:round;stroke-linejoin:miter;stroke-miterlimit:4;stroke-dasharray:none;stroke-opacity:1"
     clip-path="none" />
  <path
     id="path1319"
     d="m 137.96824,212.63149 c -3.49293,5.46351 -7.4934,10.12035 -5.4526,13.10099"
     style="fill:none;fill-rule:evenodd;stroke:#000000;stroke-width:3;stroke-linecap:round;stroke-linejoin:miter;stroke-miterlimit:4;stroke-dasharray:none;stroke-opacity:1"
     clip-path="none" />
  <path
     id="path1311"
     d="m 109.43355,227.35067 c -13.204368,5.53304 -30.931418,18.5679 -8.63999,-7.97233"
     style="fill:none;fill-rule:evenodd;stroke:#000000;stroke-width:3;stroke-linecap:round;stroke-linejoin:miter;stroke-miterlimit:4;stroke-dasharray:none;stroke-opacity:1"
     clip-path="none" />
  <path
     style="fill:none;fill-rule:evenodd;stroke:#000000;stroke-width:3;stroke-linecap:round;stroke-linejoin:miter;stroke-miterlimit:4;stroke-dasharray:none;stroke-opacity:1"
     d="m 79.911842,234.95207 c -7.16097,3.00067 -12.55592,9.26317 -14.69667,9.7457 -0.90898,-1.84413 -2.33375,-7.69236 7.86864,-19.83935"
     id="path1323"
     clip-path="none" />
  <path
     style="fill:none;fill-rule:evenodd;stroke:#000000;stroke-width:3;stroke-linecap:round;stroke-linejoin:miter;stroke-miterlimit:4;stroke-dasharray:none;stroke-opacity:1"
     d="m 141.93724,224.38144 c -0.55543,6.40101 -1.0249,14.4329 0.1409,22.28854"
     id="path1313"
     clip-path="none" />
  <path
     style="fill:none;fill-rule:evenodd;stroke:#000000;stroke-width:3;stroke-linecap:round;stroke-linejoin:miter;stroke-miterlimit:4;stroke-dasharray:none;stroke-opacity:1"
     d="m 59.620512,230.92402 c -5.86462,4.10277 -6.67249,4.9587 -9.13649,7.70926"
     id="path1277"
     clip-path="none" />
  <path
     id="path1327"
     d="m 119.71475,252.47567 c -2.09627,2.49782 -5.71239,5.77377 -6.73841,4.95276 -1.07486,-0.86009 -3.61366,-11.27134 8.0234,-26.42199"
     style="fill:none;fill-rule:evenodd;stroke:#000000;stroke-width:3;stroke-linecap:round;stroke-linejoin:miter;stroke-miterlimit:4;stroke-dasharray:none;stroke-opacity:1"
     clip-path="none" />
  <path
     id="path1293"
     d="m 133.79223,241.52796 c -4.80209,25.10441 1.83399,58.83928 3.05528,65.89096"
     style="fill:none;fill-rule:evenodd;stroke:#000000;stroke-width:3;stroke-linecap:round;stroke-linejoin:miter;stroke-miterlimit:4;stroke-dasharray:none;stroke-opacity:1"
     clip-path="none" />
  <path
     style="fill:none;fill-rule:evenodd;stroke:#000000;stroke-width:3;stroke-linecap:round;stroke-linejoin:miter;stroke-miterlimit:4;stroke-dasharray:none;stroke-opacity:1"
     d="m 101.62105,260.41317 c -4.471268,5.68532 -11.649888,9.46127 -12.675908,8.64026 -1.07486,-0.86009 0.44884,-6.95884 7.5859,-20.98449"
     id="path1325"
     clip-path="none" />
  <path
     style="fill:none;fill-rule:evenodd;stroke:#000000;stroke-width:3;stroke-linecap:round;stroke-linejoin:miter;stroke-miterlimit:4;stroke-dasharray:none;stroke-opacity:1"
     d="m 83.078762,249.37859 c -7.22328,6.88356 -12.40833,23.16548 -14.55544,26.70665"
     id="path1283"
     clip-path="none" />
  <path
     id="path1281"
     d="m 50.861202,262.01812 c -2.97328,6.19606 -4.65474,8.23857 -6.11435,11.59224"
     style="fill:none;fill-rule:evenodd;stroke:#000000;stroke-width:3;stroke-linecap:round;stroke-linejoin:miter;stroke-miterlimit:4;stroke-dasharray:none;stroke-opacity:1"
     clip-path="none" />
  <path
     id="path1289"
     d="m 109.98801,266.4374 c -0.85829,1.97168 -1.98615,4.80867 -2.4354,7.55968"
     style="fill:none;fill-rule:evenodd;stroke:#000000;stroke-width:3;stroke-linecap:round;stroke-linejoin:miter;stroke-miterlimit:4;stroke-dasharray:none;stroke-opacity:1"
     clip-path="none" />
  <path
     style="fill:none;fill-rule:evenodd;stroke:#000000;stroke-width:3;stroke-linecap:round;stroke-linejoin:miter;stroke-miterlimit:4;stroke-dasharray:none;stroke-opacity:1"
     d="m 120.20187,270.50341 c -1.77846,21.59479 -7.11005,37.73595 -8.98698,45.22401"
     id="path1287"
     clip-path="none" />
  <path
     id="path1285"
     d="m 98.060592,274.43669 c -2.75967,8.47455 -11.43606,33.24175 -16.54418,39.16941"
     style="fill:none;fill-rule:evenodd;stroke:#000000;stroke-width:3;stroke-linecap:round;stroke-linejoin:miter;stroke-miterlimit:4;stroke-dasharray:none;stroke-opacity:1"
     clip-path="none" />
  <path
     style="fill:none;fill-rule:evenodd;stroke:#000000;stroke-width:3;stroke-linecap:round;stroke-linejoin:miter;stroke-miterlimit:4;stroke-dasharray:none;stroke-opacity:1"
     d="m 125.27919,294.19134 c 0.24657,2.54621 0.13518,7.15096 0.0837,9.94617"
     id="path1291"
     clip-path="none" />
  <path
     style="fill:none;fill-rule:evenodd;stroke:#000000;stroke-width:3;stroke-linecap:round;stroke-linejoin:miter;stroke-miterlimit:4;stroke-dasharray:none;stroke-opacity:1"
     d="m 132.90604,330.10019 c 0.14766,6.64651 3.95761,14.40389 6.41634,20.36385"
     id="path1297"
     clip-path="none" />
  <path
     style="fill:none;fill-rule:evenodd;stroke:#000000;stroke-width:3;stroke-linecap:round;stroke-linejoin:miter;stroke-miterlimit:4;stroke-dasharray:none;stroke-opacity:1"
     d="m 143.22973,311.40296 c 4.01041,17.72941 12.77149,39.27678 20.80528,51.89096"
     id="path1295"
     clip-path="none" />
  <path
     id="path1299"
     d="m 194.31738,387.36266 c -7.66463,1.90694 -13.87961,-1.8475 -15.78634,-4.23122"
     style="fill:none;fill-rule:evenodd;stroke:#000000;stroke-width:3;stroke-linecap:round;stroke-linejoin:miter;stroke-miterlimit:4;stroke-dasharray:none;stroke-opacity:1"
     clip-path="none" />
  <path
     style="fill:#ffffff;fill-rule:evenodd;stroke:#000000;stroke-width:3;stroke-linecap:butt;stroke-linejoin:miter;stroke-miterlimit:4;stroke-dasharray:none;stroke-opacity:1"
     d="m 59.357082,71.705886 c -0.21482,-2.87698 0.19814,-7.67349 9.56564,-10.65089 0.0387,2.80631 5.81255,7.46332 4.07951,9.78922 -2.41132,3.74458 -4.06485,5.33584 -5.9215,6.52097 -0.64225,0.40996 -4.44456,3.30129 -7.72365,-5.6593 z"
     id="path1331"
     clip-path="none" />
  <path
     style="fill:#000000;fill-rule:evenodd;stroke:#000000;stroke-width:1px;stroke-linecap:butt;stroke-linejoin:miter;stroke-opacity:1"
     d="m 38.950832,69.549636 c 0.0625,0.1875 -1.21875,5.5625 -1.21875,5.5625 l 5.40625,-0.0937 z"
     id="path1340"
     clip-path="none" />
  <path
     style="fill:none;fill-rule:evenodd;stroke:#000000;stroke-width:3;stroke-linecap:butt;stroke-linejoin:miter;stroke-miterlimit:4;stroke-dasharray:none;stroke-opacity:1"
     d="m 55.483082,84.598736 c -12.06764,7.00598 -14.64037,11.24833 -22.1438,19.025044"
     id="path1257"
     clip-path="none" />
  <path
     style="fill:none;fill-rule:evenodd;stroke:#000000;stroke-width:3;stroke-linecap:round;stroke-linejoin:miter;stroke-miterlimit:4;stroke-dasharray:none;stroke-opacity:1"
     d="m 80.169582,81.330886 c 5.53925,-5.85756 3.52813,-15.31393 3.11146,-19.7306"
     id="path1259"
     clip-path="none" />
  <path
     style="fill:none;fill-rule:evenodd;stroke:#000000;stroke-width:3;stroke-linecap:round;stroke-linejoin:miter;stroke-miterlimit:4;stroke-dasharray:none;stroke-opacity:1"
     d="M 94.342032,64.368706 C 108.31285,38.680786 134.77891,23.570516 161.32783,42.107396"
     id="path1263"
     clip-path="none" />
  <path
     style="fill:none;fill-rule:evenodd;stroke:#000000;stroke-width:3;stroke-linecap:round;stroke-linejoin:miter;stroke-miterlimit:4;stroke-dasharray:none;stroke-opacity:1"
     d="m 200.35511,43.834846 c 12.61771,19.6339 8.83556,50.39033 0.68947,66.996044"
     id="path1265"
     clip-path="none" />
  <path
     style="fill:none;fill-rule:evenodd;stroke:#000000;stroke-width:3;stroke-linecap:round;stroke-linejoin:miter;stroke-miterlimit:4;stroke-dasharray:none;stroke-opacity:1"
     d="m 185.98208,148.70589 c -4.26614,7.06392 -8.06143,14.72149 -11.5625,22.75"
     id="path1267"
     clip-path="none" />
  <circle
     style="opacity:1;fill:#000000;fill-opacity:1;fill-rule:evenodd;stroke:#000000;stroke-width:3;stroke-linecap:round;stroke-linejoin:miter;stroke-miterlimit:4;stroke-dasharray:none;stroke-dashoffset:0;stroke-opacity:0.994505"
     id="path1329"
     cx="69.357071"
     cy="70.799637"
     r="2.9375"
     clip-path="none" />
  <path
     style="fill:none;fill-rule:evenodd;stroke:#000000;stroke-width:3;stroke-linecap:round;stroke-linejoin:miter;stroke-miterlimit:4;stroke-dasharray:none;stroke-opacity:1"
     d="m 54.275782,59.658996 c -2.82868,3.59962 -4.2006,11.34738 -1.50395,15.4598 -2.69212,1.61061 -9.0191,1.30789 -10.4974,-1.52405 -5.50511,-11.51699 4.21681,-19.83892 17.03857,-26.94259"
     id="path1335"
     clip-path="none" />
  <path
     style="fill:none;fill-rule:evenodd;stroke:#000000;stroke-width:3;stroke-linecap:butt;stroke-linejoin:miter;stroke-miterlimit:4;stroke-dasharray:none;stroke-opacity:1"
     d="m 34.538372,77.268796 c 5.78194,-4.30753 14.62827,1.11065 18.23346,-2.15"
     id="path1338"
     clip-path="none" />
  <path
     style="fill:none;fill-rule:evenodd;stroke:#000000;stroke-width:3;stroke-linecap:round;stroke-linejoin:miter;stroke-miterlimit:4;stroke-dasharray:none;stroke-opacity:1"
     d="m 52.771832,75.118796 c 3.93388,-1.68014 4.52907,-6.57479 9.93583,-11.24382 4.93067,-4.2579 11.18358,-4.45128 13.89942,-11.23159"
     id="path1342"
     clip-path="none" />
  <path
     style="fill:none;fill-rule:evenodd;stroke:#000000;stroke-width:3;stroke-linecap:butt;stroke-linejoin:miter;stroke-miterlimit:4;stroke-dasharray:none;stroke-opacity:1"
     d="m 52.318702,75.478176 c 3.32695,-1.56947 4.52013,-4.56636 10.26559,1.7038"
     id="path1344"
     clip-path="none" />
  <path
     style="fill:#ffff00;fill-rule:evenodd;stroke:#000000;stroke-width:0.946772"
     d="M 137.75586,2.7734375 C 119.95448,2.7609548 103.11624,11.44265 90.75577,23.894637 c -5.13043,4.584897 -9.50943,9.909649 -14.03116,15.047746 -9.72378,6.280785 -21.598808,9.562214 -29.979028,17.930077 -3.67979,3.70593 -6.239311,9.21733 -4.223121,14.40293 0.576945,3.118335 4.554073,4.23923 7.203125,3.496095 1.849219,-2.53684 0.436177,-6.149345 1.038086,-9.0625 0.494994,-2.51385 1.524255,-5.71428 3.839844,-7.007815 1.148821,1.74786 -1.258104,3.828895 -1.260742,5.72754 -0.331936,2.748385 -1.562333,6.04621 -0.239258,8.626955 1.913728,-0.09745 2.699365,-2.87894 3.944279,-4.114555 3.40583,-5.95156 9.77262,-8.732385 15.225645,-12.35615 2.211335,-1.01888 2.38887,-4.350709 4.72656,-4.936522 1.569395,1.794342 -1.126475,4.083542 -2.23298,5.467797 -1.11902,1.776285 -3.558375,2.26301 -4.549245,4.000955 0.51169,3.283335 4.272215,5.618415 4.07324,9.13867 -1.688675,3.80551 -4.844205,7.354355 -8.79492,8.793945 -3.778295,0.67314 -5.332625,-4.063755 -8.65625,-4.729495 -3.26218,1.765575 -6.720472,3.683445 -10.522234,2.77313 -4.154866,-0.326035 -8.882788,-1.179935 -12.257064,1.967105 -2.826696,1.436605 -3.557586,6.309285 -0.08691,7.394535 3.432785,0.812335 5.080711,-3.62226 8.451172,-3.638675 3.026037,-0.92019 4.252372,3.57654 7.358398,2.46582 2.773846,0 4.505064,-2.813245 7.093752,-2.990235 1.290895,1.13007 -0.900673,4.766645 2.258785,3.85984 4.257745,-0.281085 10.377755,0.55757 11.49707,5.551295 0.71575,2.867 -0.645915,5.68168 -0.99707,8.490235 1.575155,0.49008 2.53,-2.39295 3.790645,-3.171885 C 84.26697,85.74542 94.11941,73.580595 103.16564,60.82841 c 7.10308,-9.33552 16.06173,-19.247373 28.48768,-20.389933 9.07023,-0.783303 19.55251,-0.948266 26.70085,5.69135 9.38388,7.826858 14.53736,20.001663 13.9095,32.132868 -0.009,13.392225 -5.49477,26.284435 -11.9248,37.806645 -8.74484,13.8855 -20.75274,25.99924 -35.1416,34.04687 -4.07983,2.48669 -8.81562,3.1914 -13.35254,4.26758 -0.67807,1.19902 1.45778,1.94205 1.44238,3.22656 3.3137,1.15168 7.12971,0.0642 10.6022,0.26578 1.92659,0.30847 8.41681,-1.08361 7.39054,0.32519 -6.25107,4.71398 -12.06302,10.4633 -19.35504,13.49888 -1.43118,-0.0985 -2.43793,0.66705 -2.63867,2.03027 -4.4898,4.14932 -11.013635,5.32947 -16.8746,6.59475 -3.726235,0.60637 -7.73141,1.09644 -11.13615,-0.87893 -2.279,0.0585 -5.019675,3.16389 -2.456055,4.9541 3.014365,2.39877 6.754725,3.63353 10.444335,4.30957 2.14014,1.33302 -0.475805,3.6171 -1.86328,4.26465 -11.150715,6.83247 -24.25931,12.24789 -31.472655,23.79199 -1.788736,2.62933 -0.933194,6.15003 -3.183594,8.58594 -4.66277,5.97604 -10.420375,11.28686 -13.31543,18.47168 -0.993368,2.76433 -2.693059,6.22229 -1.335937,9.06738 1.131338,0.3401 2.974372,0.20261 2.919922,1.95996 -0.228004,5.00428 -3.393256,9.37326 -5.160268,13.95705 -3.861539,7.38341 -6.804222,15.52394 -12.530162,21.69042 -3.478055,3.28919 -8.546727,4.60813 -12.934571,5.57031 -0.6929373,-0.941 -1.7746523,-4.43984 -3.365234,-2.64063 -1.5058468,3.00281 2.4677987,5.04439 4.688477,6.08496 9.408222,4.23727 20.866243,1.7866 28.856445,-4.38183 4.209447,-2.56256 7.487016,-6.86414 12.21582,-8.47168 1.738931,0.60893 -0.380765,3.03033 -0.839843,3.97558 -2.872623,4.46895 -7.232131,7.58768 -11.263672,10.87403 0.153772,1.64182 2.804345,1.81998 4.057617,2.55762 6.652243,2.34496 13.3216,-1.53535 20.041015,-1.27344 2.030915,-0.77188 1.84275,-3.67025 3.58203,-4.88867 1.5236,-1.70394 4.1667,-4.68414 6.53809,-2.85352 1.053315,3.22617 -0.468425,6.83438 -1.092775,10.06641 -3.43613,9.90894 -9.97673,18.65419 -17.532225,25.87988 -1.853709,2.14911 -4.791276,2.71786 -6.850588,4.48047 -1.123533,2.726 2.452793,4.96138 4.817383,5.22461 7.36052,0.89929 15.281115,0.0545 21.916015,-3.41016 2.50444,-2.24284 6.864745,-1.77882 8.3125,-5.21387 3.197825,-3.50998 7.18929,-6.25623 9.9375,-10.19921 1.33114,-1.64297 3.17834,0.0775 2.91211,1.76074 1.37312,9.85151 -0.219315,20.82051 5.23731,29.67676 3.60846,5.7418 11.31154,8.87967 17.75195,6.56738 -1.48317,-2.39078 -2.41759,-5.19206 -2.12443,-8.08688 0.19978,-6.32296 -0.60277,-13.09565 2.11466,-18.99125 1.29761,-1.85164 2.53366,0.93821 2.65918,2.10938 1.92797,10.49624 4.38724,21.13339 10.03167,30.34378 3.07971,4.93811 7.1125,10.36937 13.01716,11.88864 2.93543,-0.32326 4.64103,-4.00976 7.59278,-3.78125 2.19334,2.95246 4.44557,5.99903 7.30276,8.42632 6.35632,5.75896 13.4673,11.71024 22.36911,12.52485 5.57367,0.29392 11.34026,-0.13059 16.69922,-1.69531 3.1448,-4.208 8.82396,-6.57857 10.0957,-12.13867 0.79457,-3.27594 1.4866,-7.34506 -0.39355,-10.32617 -2.12762,-0.48337 -0.91689,2.69469 -1.34668,3.8457 -1.75357,4.54171 -7.59142,5.73279 -11.88477,5.4541 -8.36872,-1.19723 -14.97664,-7.86553 -19.85419,-14.46804 -3.52002,-5.61369 -7.18397,-11.22494 -10.54994,-16.97623 -3.07067,-6.17334 -5.90924,-12.6388 -6.94255,-19.48053 -3.56923,-3.64756 -4.6389,-8.94354 -6.23535,-13.65332 -3.46787,-11.82298 -5.78914,-23.96786 -5.96679,-36.30382 0.34898,-2.1623 -1.57436,-4.48974 -0.62403,-6.47646 4.21064,-0.65672 10.12241,0.74816 12.88867,-3.45019 -0.16327,-2.25075 -2.8318,-3.46231 -3.31933,-5.75879 -4.26894,-11.17522 -4.08796,-23.43842 -5.80664,-35.18164 4.23868,-0.0738 8.89482,0.97747 12.87011,0.19629 -0.34428,-12.07911 1.21421,-24.21381 4.78223,-35.76172 1.43573,-4.15621 6.79023,-2.70824 10.07227,-2.99317 3.25452,0.79649 1.81071,-3.34349 2.39941,-5.24414 1.97477,-11.11024 8.07943,-20.9662 11.80109,-31.55358 0.90944,-3.00374 3.32485,-5.81418 6.67275,-5.69266 3.99985,0.68114 2.04576,-3.87027 2.36698,-6.17173 -0.18948,-11.17219 4.52643,-21.74417 7.38739,-32.43005 3.0831,-9.50633 5.72245,-19.32468 5.2414,-29.41565 0.20353,-8.42356 0.0412,-17.000595 -2.93038,-25.003625 C 204.98846,34.715696 190.86809,18.695147 172.87696,10.542969 161.92186,5.3736277 149.91512,2.391291 137.75586,2.7734375 Z m -1.13183,30.1738285 c 8.97783,-0.237406 17.75771,3.219781 25.08593,8.186523 1.48084,1.025029 -0.25354,2.723838 -1.41015,1.458008 -7.53128,-5.016551 -16.51311,-8.118096 -25.64661,-7.352699 -14.88347,0.62657 -26.90502,11.338251 -35.11316,22.922037 -1.74197,2.20639 -3.34613,4.858545 -4.680665,7.14941 -2.040305,0.529135 -1.40199,-1.859795 -0.63965,-2.761715 6.633655,-11.268078 15.903245,-21.770972 28.370985,-26.635107 4.40266,-2.092316 9.2014,-3.048933 14.03332,-2.966457 z m 63.65039,9.919922 c 3.17912,2.133137 3.90665,6.446816 5.44616,9.721262 4.41336,10.903515 3.89138,23.0938 3.11731,34.629325 -1.29988,8.266225 -3.15923,16.702305 -7.05761,24.179685 -1.07758,1.33128 -2.02338,-0.47841 -1.28614,-1.46875 6.6553,-16.142405 8.95469,-34.36676 4.80762,-51.45215 -1.02218,-5.350215 -3.98968,-10.012084 -5.81152,-15.03906 -0.0391,-0.393624 0.47207,-0.57673 0.78418,-0.570312 z M 83.40332,60.72949 c 1.80784,1.54228 1.027075,4.698965 1.50843,6.830275 0.22704,5.12799 -0.183145,11.424585 -4.697885,14.673635 -2.016345,-0.23967 -0.05941,-2.49021 0.49219,-3.30664 3.46614,-5.429985 0.916245,-12.326175 2.38867,-18.16016 0.09857,-0.03456 0.204905,-0.04309 0.308595,-0.03711 z m 111.3252,29.709965 c 2.03884,1.51078 -0.32458,4.351265 -0.59459,6.280905 -2.20483,6.70862 -5.20945,13.3514 -10.72182,18.01304 -3.03775,2.45952 -6.17248,5.8845 -10.28906,6.05664 -1.81771,-1.84921 0.85309,-4.71407 1.59525,-6.55255 1.85676,-2.78527 3.17801,-6.20279 5.70944,-8.4162 2.25972,-0.1461 0.43538,2.41533 -0.12305,3.32617 -1.37616,2.71952 -3.703,5.10608 -4.59277,7.99707 1.39508,0.69854 2.78736,-1.60469 4.05982,-2.1087 7.44292,-5.28297 11.16192,-14.03813 13.49584,-22.55634 0.35186,-0.67209 0.59969,-1.87426 1.46094,-2.040035 z m -0.14356,33.561525 c 1.461,-0.22391 1.62791,0.8586 0.99431,1.96102 -0.99461,2.98326 -0.50699,6.36109 -1.65056,9.24113 -1.53964,0.42314 -1.79363,-4.27831 -3.17801,-1.49198 -3.97094,5.15208 -8.63311,10.97648 -15.31515,12.46756 -1.31626,-0.72678 -0.0868,-2.95409 0.19238,-4.19238 1.33346,-2.80121 2.13593,-6.35397 4.57617,-8.32812 1.86394,0.0289 0.1491,2.60857 -0.125,3.49902 -0.56466,1.89409 -2.47626,3.7339 -2.34082,5.69726 2.08041,0.11887 3.65336,-2.37813 5.31739,-3.46093 4.7308,-4.23144 7.76363,-9.95624 10.94726,-15.29883 0.17419,-0.10388 0.38617,-0.10293 0.58203,-0.0937 z m -32.20605,0.17676 c 1.86734,0.18668 -0.56873,2.51069 -0.86035,3.22461 -4.05658,5.20609 -8.04715,10.78047 -13.30078,14.85254 -1.6164,0.04 -0.23468,-2.09997 0.37695,-2.64844 4.57374,-4.82708 8.3422,-10.39074 13.05371,-15.05664 0.22099,-0.15369 0.453,-0.34131 0.73047,-0.37207 z m 4.72363,2.15625 c 2.30239,1.09113 -0.83844,3.29064 -1.26758,4.708 -2.07943,3.60176 -5.24427,6.94787 -6.13086,11.05176 1.29308,0.98077 3.04439,-1.17252 4.38295,-1.5466 4.22716,-2.16634 7.98831,-5.4712 12.42467,-7.09988 2.1549,1.36756 -0.96898,2.43635 -2.0047,3.24826 -5.18414,2.99508 -10.08701,6.95141 -15.93182,8.53689 -2.71749,-0.0597 -1.36583,-3.77039 -0.61426,-5.23437 2.48685,-4.7646 5.20116,-9.70923 8.87598,-13.61524 0.0819,-0.0386 0.1745,-0.0667 0.26562,-0.0488 z m 19.10645,21.32812 c 1.71062,0.54419 -0.63449,2.69065 -0.6941,3.78975 -3.54532,7.05916 -6.62788,14.49623 -11.26977,20.91435 -1.23315,1.06541 -0.77634,-1.5401 -0.44141,-2.00683 3.23963,-7.55716 6.76305,-15.10886 11.35938,-21.94239 0.29129,-0.28182 0.58439,-0.80569 1.0459,-0.75488 z m -38.55078,2.12207 c 1.08249,1.71795 -1.52584,3.47647 -2.2002,4.91602 -2.21864,3.23217 -5.49322,6.04684 -6.73535,9.81347 1.03538,1.31514 3.13725,-0.85666 4.45801,-1.01367 4.39022,-1.73 8.46046,-4.55597 13.08105,-5.54004 1.5534,1.17968 -1.50612,1.8125 -2.20508,2.51563 -5.40358,2.59393 -10.62762,6.16372 -16.583,7.26074 -2.83401,-0.52382 -1.39927,-4.17415 -0.20411,-5.67383 3.07994,-4.25816 5.98165,-8.93356 10.11817,-12.22461 0.0858,-0.0312 0.17724,-0.0673 0.27051,-0.0537 z m 29.84375,0.80469 c 1.38607,1.47695 -0.93342,3.53656 -1.4401,4.96767 -6.18721,9.94672 -13.42252,20.79942 -24.9476,24.9796 -1.86382,0.40175 -4.23151,1.33764 -6.03027,0.49511 -0.87882,-4.09265 3.19642,-6.94739 5.35158,-9.85779 3.28218,-3.14606 6.09337,-7.24642 10.17869,-9.35998 1.21246,1.26284 -1.28262,2.71729 -1.87891,3.78711 -3.64895,4.28858 -8.37239,7.84453 -11.18261,12.76172 0.43714,1.80603 3.03488,-0.01 4.17968,-0.29004 11.42946,-4.91348 17.85771,-16.36304 24.28223,-26.26074 0.41755,-0.45756 0.83413,-1.11201 1.48731,-1.22266 z m -54.25586,23.10156 c 1.17848,1.25655 -1.22731,2.72801 -2.10743,3.50098 -4.35916,2.91777 -8.62801,6.41478 -13.47851,8.45801 -2.02228,-0.39419 0.53686,-2.18449 1.18945,-2.68262 4.67282,-2.98394 9.09841,-6.42592 13.88477,-9.19043 0.16505,-0.0514 0.33731,-0.0951 0.51172,-0.0859 z m 3.41211,7.09375 c 1.08249,1.71795 -1.52584,3.47647 -2.2002,4.91602 -2.21864,3.23217 -5.49322,6.04684 -6.73535,9.81347 1.03538,1.31514 3.13725,-0.85666 4.45801,-1.01367 4.39022,-1.73 8.46046,-4.55597 13.08105,-5.54004 1.5534,1.17968 -1.50612,1.8125 -2.20508,2.51563 -5.40358,2.59393 -10.62762,6.16372 -16.583,7.26074 -2.83401,-0.52382 -1.39927,-4.17415 -0.20411,-5.67383 3.07994,-4.25816 5.98165,-8.93356 10.11817,-12.22461 0.0858,-0.0312 0.17724,-0.0673 0.27051,-0.0537 z m 30.99121,5.36817 c 1.7806,0.53373 -0.12769,3.06462 -0.4668,4.16211 -2.97268,5.27374 -3.97324,11.283 -4.4209,17.20507 -0.37889,1.7564 -2.049,0.0142 -1.74707,-1.08593 -0.19208,-6.72017 2.04982,-13.55126 5.48926,-19.36719 0.3057,-0.33161 0.62349,-0.92307 1.14551,-0.91406 z M 146.9336,190.25 c 1.67442,0.98717 -0.71124,3.33817 -1.07618,4.59864 -0.67095,0.90272 -1.77249,3.91707 -3.21484,2.60742 0.20459,-2.70615 1.98642,-5.49632 4.06836,-7.1836 0.0719,-0.021 0.14782,-0.0333 0.22266,-0.0225 z m -45.00489,2.47266 c 1.22236,1.1348 -1.3716,2.7039 -1.79687,3.69726 -4.89651,5.76256 -10.627795,11.01795 -14.43067,17.59961 -0.445515,2.01573 2.272805,0.66554 3.081055,0.17578 4.01825,-1.73064 7.74904,-4.24535 11.683595,-6.02148 1.14365,0.52138 1.37278,1.55222 0.0293,2.05762 -4.819675,2.86873 -9.839435,5.86325 -15.22754,7.34765 -2.46623,0.14031 -2.948125,-3.0153 -1.56836,-4.58398 4.427465,-7.16203 10.446375,-13.3043 16.39258,-19.25098 0.54693,-0.40601 1.11712,-0.99066 1.83691,-1.02148 z m 30.91114,5.01465 c 1.70863,0.45745 -0.4961,2.38834 -0.9309,3.09369 -4.3485,5.09586 -10.53032,9.76518 -11.11891,16.95221 -0.75746,1.24805 -2.39573,0.10455 -1.88574,-1.15821 0.43049,-6.11378 5.64851,-10.62665 9.42871,-15.03515 1.42316,-1.22361 2.62395,-3.35465 4.50684,-3.85254 z m -49.267585,3.05859 c 1.50188,0.77871 -0.753965,2.40193 -1.38086,2.98535 -3.04493,1.81448 -5.232815,4.88206 -8.308595,6.52246 -1.823885,-0.4285 0.574905,-2.54419 1.101565,-3.19238 2.521185,-2.42359 5.20173,-5.22358 8.58789,-6.31543 z m 54.632815,10.85645 c 1.69832,0.44886 -0.33873,2.72543 -0.75684,3.66699 -1.99176,3.23242 -5.12895,6.59773 -4.01171,10.70508 -0.89761,1.96176 -2.59379,-0.7421 -2.49219,-1.94629 0.46503,-4.52003 3.67848,-8.2807 6.29004,-11.81446 0.27585,-0.24614 0.56401,-0.63144 0.9707,-0.61132 z m -37.08887,6.62109 c 1.43194,1.20413 -0.92128,3.30025 -1.617185,4.3916 -2.71114,3.5178 -5.81376,6.95327 -7.694335,10.97559 1.197375,1.08039 3.158435,-1.07251 4.55566,-1.27637 4.54183,-1.78289 8.74351,-4.84666 13.50879,-5.85059 1.72718,1.61501 -2.01005,2.22126 -2.82301,3.055 -5.33859,2.44118 -10.52984,5.9359 -16.448475,6.74286 -2.564495,-0.66773 -0.775605,-4.07937 0.14844,-5.53223 3.02548,-4.37032 6.05684,-8.98248 10.094725,-12.45996 0.0871,-0.0332 0.18138,-0.0608 0.27539,-0.0459 z m 40.95118,4.94922 c 1.26536,5.97217 0.46639,12.30204 0.71972,18.4248 -0.26975,1.92843 0.43397,4.50124 -0.64551,6.08692 -1.63713,-0.13032 -1.17817,-2.84499 -1.38671,-4.02637 0.0667,-6.52711 -0.62064,-13.21836 0.40332,-19.67187 0.19607,-0.326 0.55386,-0.71889 0.90918,-0.81348 z M 73.125,223.80078 c 2.147235,0.36589 -0.352,2.71579 -0.780275,3.667 -3.061875,4.41643 -6.809565,9.29014 -6.597655,14.90332 1.439155,0.73666 2.777415,-1.66234 4.0459,-2.22559 3.26051,-2.3136 6.60024,-5.60317 10.78027,-5.75293 1.37015,1.11041 -1.583625,2.0253 -2.26074,2.53613 -4.713535,2.58948 -8.63218,6.70311 -13.46289,8.88379 -2.691015,-3.83448 -0.57143,-9.00095 1.296875,-12.77246 1.91483,-3.19055 3.959125,-7.05776 6.978515,-9.23926 z m -13.15332,6.28907 c 1.631645,1.25264 -1.40626,2.67648 -2.194335,3.5205 -2.695722,1.7543 -4.93524,4.25756 -7.389649,6.16114 -2.302827,-1.31832 0.788616,-3.24495 1.80664,-4.32618 2.372855,-1.92553 4.708959,-4.6276 7.777344,-5.35546 z m 61.22949,0.0625 c 1.58239,0.33378 -0.40655,2.51773 -0.70312,3.34472 -4.35969,6.49012 -8.42529,14.29454 -7.10156,22.33399 1.44414,0.92992 2.69044,-1.83372 3.84277,-2.4961 0.55105,-0.91285 3.90197,-2.93375 3.22266,-0.45605 -1.75072,2.513 -4.38028,5.71472 -7.75977,5.34863 -2.66379,-2.0185 -1.60296,-6.09769 -1.37988,-8.89355 1.32742,-6.95249 4.35467,-13.82002 9.21191,-18.98926 0.19619,-0.12975 0.42769,-0.22193 0.66699,-0.19238 z m 13.28418,10.47754 c -0.35423,8.56809 -1.84313,17.2289 -1.26436,25.88551 0.26544,13.83121 2.61583,27.49982 4.51632,41.14866 -0.22176,1.73401 -2.52423,-0.27117 -2.14453,-1.42382 -3.83882,-20.39668 -5.7056,-41.384 -3.39649,-62.05664 0.33694,-1.2999 0.2223,-3.75825 2.28906,-3.55371 z m -37.85254,6.52929 c 1.700765,0.33047 -0.371945,2.58572 -0.41581,3.62198 -2.06021,5.39569 -5.33367,10.58718 -6.210165,16.35556 1.23443,1.27458 3.103745,-0.99887 4.30078,-1.56152 2.90992,-1.6638 4.7913,-5.1226 8.024415,-6.10449 0.95728,1.95117 -1.84269,3.54112 -2.96582,4.86621 -3.080895,2.54199 -6.484275,5.44272 -10.56543,5.88086 -2.682045,-2.39429 -0.01427,-6.14592 0.629885,-8.93262 2.022055,-4.71152 3.53424,-9.83633 6.639645,-13.95606 0.15612,-0.12923 0.35674,-0.21484 0.5625,-0.16992 z m -13.52246,1.15918 c 2.268665,1.07642 -0.80007,3.11736 -1.389645,4.2666 -5.782315,7.32491 -8.192505,16.58884 -12.879885,24.51368 -1.34425,0.61902 -1.30321,-1.70171 -0.70508,-2.40918 3.81461,-8.89493 7.258225,-18.40089 13.9209,-25.62696 0.313935,-0.27345 0.61914,-0.68584 1.05371,-0.74414 z m -31.841795,12.90137 c 1.114455,0.63116 -0.457969,2.50519 -0.675781,3.42676 -1.972284,3.19626 -3.072423,7.09423 -5.577149,9.88965 -2.021549,0.312 -0.544371,-2.39835 -0.192383,-3.28516 1.859822,-3.37349 3.2021,-7.37178 6.056641,-10.00684 0.128544,-0.019 0.258706,-0.0287 0.388672,-0.0244 z m 58.849615,4.4375 c 1.79863,0.23197 -0.29725,2.86027 -0.15821,3.90723 -0.92201,1.4996 -0.75125,5.4266 -3.18261,5.12695 -0.34402,-2.97804 0.99963,-6.2788 2.69726,-8.75684 0.16912,-0.16482 0.38889,-0.33946 0.64356,-0.27734 z m 10.2207,3.99316 c 1.83808,0.60463 0.1282,4.56616 0.32617,6.62012 -1.69164,13.64059 -4.65949,27.20344 -8.80078,40.3252 -1.90751,0.95056 -1.19977,-2.00352 -0.90878,-2.98248 3.21396,-14.10348 6.96435,-28.23707 8.15585,-42.7353 0.0969,-0.72913 0.37147,-1.3904 1.22754,-1.22754 z m -22.13965,3.80567 c 1.672045,1.12649 -0.429915,3.66486 -0.51868,5.17839 -4.090815,11.60194 -7.99894,23.42446 -14.22839,34.08919 -0.63011,0.99313 -2.07285,3.06839 -2.945315,1.16796 0.82708,-2.74326 3.180065,-5.01457 4.130485,-7.82373 5.00172,-10.18544 8.32313,-21.0738 12.571665,-31.55615 0.257555,-0.35571 0.483725,-0.99959 0.990235,-1.05566 z m 27.24024,19.74316 c 1.78596,1.85968 0.87622,5.09534 1.15136,7.44922 -0.22148,1.15971 0.46829,5.31575 -1.7207,4.36621 -0.84582,-3.67606 -0.54767,-7.67055 -0.17481,-11.41406 0.0771,-0.33175 0.44986,-0.42383 0.74415,-0.40137 z m 17.81933,17.19043 c 1.97589,1.94367 1.77666,5.37564 2.83594,7.85156 4.5062,15.34902 10.47259,30.35857 18.49805,44.20606 1.26752,1.15089 -0.70597,2.64956 -1.47559,1.20019 -8.833,-14.0305 -14.53338,-29.81182 -19.31895,-45.59007 -0.37223,-2.39961 -2.02971,-5.25916 -0.97793,-7.58571 0.13927,-0.0478 0.28826,-0.101 0.43848,-0.082 z m -9.91113,18.83789 c 1.36641,2.46043 0.93385,5.80977 2.18429,8.46455 1.16683,4.57116 3.75193,8.75265 4.70145,13.33233 -2.31147,1.20877 -2.72813,-2.6522 -3.55383,-3.99472 -1.88459,-5.51783 -4.97237,-11.07488 -4.55847,-17.02677 0.1109,-0.581 0.66411,-0.8779 1.22656,-0.77539 z m 44.8291,52.97461 c 3.14884,1.4209 5.84415,4.20619 9.56152,4.2832 2.41784,0.67255 5.39638,-0.91069 7.42286,0.4795 0.47937,1.77482 -2.58287,1.50248 -3.6611,1.69972 -5.04662,0.53755 -10.93383,-1.04724 -13.90336,-5.46926 -0.22465,-0.405 0.0649,-1.07628 0.58008,-0.99316 z"
     id="path294"
     clip-path="none" />
  <g
     id="beaked">
    <path
       style="fill:#ff0000;fill-rule:evenodd;stroke:#000000;stroke-width:0.334734"
       d="m 43.125573,84.720231 c -2.485113,0.724196 -4.711679,2.33185 -6.02067,4.590739 -2.040086,3.4142 -4.227966,6.768785 -7.212853,9.434854 -5.763456,5.326726 -12.192272,9.948096 -19.153211,13.600256 -2.0239816,1.13933 -4.3032793,1.64173 -6.5838961,1.92383 -1.1038036,0.20968 -1.9538193,1.42655 -1.3644951,2.49731 1.3151656,3.11444 4.5190752,5.55372 8.0001812,5.28155 3.56134,-0.21465 7.063911,-1.13856 10.426718,-2.2943 C 31.840258,115.1009 40.4746,107.119 50.25558,101.05413 c 3.077421,-1.836346 6.542277,-3.918599 10.220695,-3.433343 0.531032,2.305783 -1.137643,4.376973 -2.350282,6.178923 -4.800408,6.28057 -10.558796,11.73003 -16.235096,17.20359 -3.93722,3.76692 -8.167606,7.19666 -12.441004,10.57415 -0.791431,0.49312 -0.963909,1.40997 0.03655,1.83652 1.022217,0.88478 2.5559,1.90104 3.851848,0.90455 1.550786,-0.91677 3.113845,-2.40609 5.059197,-2.02878 1.536635,-0.48534 2.594056,-1.89269 3.857502,-2.83507 7.796372,-7.05133 15.254198,-14.48927 22.282326,-22.30738 1.00901,-0.97333 1.806561,-2.18609 1.802958,-3.63636 0.428947,-3.39003 2.208254,-6.545606 2.329753,-9.997093 0.172479,-2.598792 -2.14707,-4.694183 -4.606081,-4.975298 -5.1235,-0.716125 -10.553902,-0.211843 -15.185188,2.227317 -3.793663,1.636799 -6.396109,4.99927 -9.277918,7.814815 -1.752203,1.829519 -3.438476,3.723479 -5.252988,5.492469 -0.462883,-0.48135 -1.356547,-1.03364 -1.417321,-1.58064 4.489044,-4.832027 8.892336,-9.810462 14.146279,-13.84244 0.566118,-0.301765 0.739959,-1.250236 -0.124661,-1.264811 C 45.501381,87.11065 44.472691,86.008583 43.62414,84.89977 43.482591,84.790439 43.309248,84.704808 43.125575,84.720231 Z"
       id="path296"
       clip-path="none" />
  </g>
  <g
     id="langued">
    <path
       style="fill:#0000ff;fill-rule:evenodd;stroke:#000000;stroke-width:0.334734"
       d="m 55.126017,100.9937 c -1.997372,0.71605 -3.662612,2.16856 -5.479749,3.24515 -5.099057,3.21566 -9.763192,7.04104 -14.494982,10.75094 -5.129965,3.98369 -10.498665,7.66572 -15.609865,11.66381 -0.475777,0.62919 0.522282,0.97013 0.934292,0.53551 9.760585,-5.07506 19.121074,-10.9792 27.740366,-17.82495 2.692785,-2.28005 5.560826,-4.55972 7.400217,-7.61778 0.171337,-0.35433 -0.06927,-0.79953 -0.490279,-0.75268 z"
       id="path367"
       clip-path="none" />
  </g>
  <metadata
     id="metadata1">
    <rdf:RDF>
      <cc:Work
         rdf:about="">
        <dc:Creator>
          <cc:Agent>
            <dc:title>https://heraldicart.org/</dc:title>
          </cc:Agent>
        </dc:Creator>
      </cc:Work>
    </rdf:RDF>
  </metadata>
</svg>
