<?xml version="1.0" encoding="UTF-8" standalone="no"?>
<!DOCTYPE svg PUBLIC "-//W3C//DTD SVG 1.1//EN" "http://www.w3.org/Graphics/SVG/1.1/DTD/svg11.dtd">
<svg width="100%" height="100%" viewBox="0 0 295 200" version="1.1" xmlns="http://www.w3.org/2000/svg" xmlns:xlink="http://www.w3.org/1999/xlink" xml:space="preserve" xmlns:serif="http://www.serif.com/" style="fill-rule:evenodd;clip-rule:evenodd;stroke-linejoin:round;stroke-miterlimit:1.41421;">
    <g id="Group_3">
        <path id="Graphic_41" d="M43.881,2.292C43.881,2.866 41.584,4.014 38.856,5.019C32.396,7.316 24.214,18.083 18.041,32.438C11.868,46.506 10.576,66.173 14.452,88.998C17.18,105.65 16.749,137.088 13.734,151.587C9.428,171.971 7.562,178.718 4.116,186.47C2.107,190.92 0.815,195.083 1.245,195.514C1.676,196.088 4.116,194.796 6.557,192.643C11.438,188.623 14.596,187.906 15.601,190.633C16.031,192.069 16.893,192.069 19.333,190.633C23.496,188.193 24.07,188.48 23.065,191.782C21.773,196.088 24.214,195.227 27.946,190.203C29.669,187.906 31.966,186.183 32.827,186.47C33.832,186.757 36.416,185.752 38.569,184.173L42.732,181.302L41.727,188.049C40.579,195.37 41.871,196.806 44.024,190.633C44.885,188.48 48.331,184.604 51.92,182.164C57.662,177.857 58.236,177.713 58.236,180.297C58.236,182.02 57.375,185.465 56.226,188.193C55.078,190.777 54.504,193.361 54.791,193.648C55.652,194.366 62.542,187.906 62.542,186.327C62.686,184.891 69.864,179.867 70.581,180.728C71.012,181.159 70.581,182.881 69.72,184.604C67.567,188.623 69.433,190.49 71.873,186.757C74.888,182.451 76.18,181.015 80.056,178.001C86.659,172.689 92.976,161.923 97.713,147.567C102.881,132.494 104.46,128.905 109.054,123.307C112.93,118.713 114.222,119.144 113.217,125.03C112.642,128.331 112.93,130.054 114.078,130.054C114.939,130.054 115.657,129.049 115.657,127.901C115.657,126.178 117.093,125.747 121.256,125.891C126.711,126.322 126.854,126.322 126.136,131.059C125.275,136.083 126.998,137.232 130.012,133.643C134.462,128.331 143.506,133.499 145.229,142.256C145.66,144.983 146.377,147.28 146.808,147.28C147.956,147.28 150.827,143.691 153.555,138.667C157.862,130.915 161.45,128.331 166.475,129.48C168.915,129.91 171.499,131.346 172.073,132.351C173.939,135.652 176.38,134.648 175.662,130.915C174.801,126.752 177.959,125.46 184.275,127.039C189.156,128.331 192.027,133.643 191.022,139.672C189.3,149.146 201.932,174.555 211.12,180.297C213.847,182.02 216.431,184.604 216.862,186.039C217.436,187.619 218.728,188.911 219.876,188.911C221.599,188.911 221.599,188.193 219.589,184.173L217.292,179.58L222.03,184.03C235.524,196.375 235.667,196.375 235.093,188.049L234.662,182.881L240.692,188.049C248.156,194.366 249.735,194.509 248.443,188.767C247.295,183.599 247.439,183.743 257.487,191.351C264.378,196.519 266.388,197.093 266.388,194.078C266.388,192.499 267.536,192.643 272.13,194.796C278.59,197.954 281.317,198.241 280.312,195.658C279.882,194.366 281.461,194.078 286.628,194.366C290.504,194.653 293.663,194.509 293.663,194.078C293.663,193.648 292.083,189.915 290.217,185.609C288.208,181.446 284.619,171.828 282.178,164.363L277.585,150.869L277.728,98.329C277.872,41.195 277.298,36.17 269.689,21.959C266.818,16.934 263.804,13.776 258.779,10.905C254.76,8.608 252.463,6.455 253.324,5.881C257.344,3.584 252.032,3.01 228.059,3.727C198.918,4.589 196.19,5.45 187.577,16.647L182.84,23.107L183.701,37.032C184.562,49.234 184.275,51.961 181.691,57.847C177.098,68.47 169.346,72.776 151.689,74.212C135.898,75.647 130.012,74.93 122.26,70.623C113.073,65.599 110.633,59.139 110.633,39.328C110.633,23.107 110.489,22.533 106.326,16.36C103.311,12.053 99.436,8.895 93.406,5.881C85.08,1.718 84.219,1.574 64.409,1.574C53.068,1.574 43.881,1.861 43.881,2.292Z" style="fill:rgb(77,77,77);fill-rule:nonzero;"/>
        <g>
            <path id="Graphic_40" d="M92.832,8.465C101.589,13.345 108.479,23.825 108.479,32.581C108.479,36.17 107.762,41.195 106.9,43.491C105.752,46.937 106.039,49.808 107.905,56.124C113.647,76.078 132.74,83.256 160.876,76.222C171.499,73.494 180.112,67.608 183.845,60.287C186.141,55.55 186.572,52.248 186.285,38.898C185.854,23.251 185.998,22.963 190.305,17.078C196.477,8.752 202.219,7.173 228.059,6.886C239.687,6.742 249.161,7.173 249.161,7.747C249.161,9.9 244.424,13.345 235.237,17.939C230.212,20.379 226.193,23.107 226.193,23.825C226.193,25.547 226.48,25.547 231.361,23.825C236.816,21.671 241.122,24.973 243.85,33.156L246.147,39.616L240.835,38.898C234.806,38.036 227.341,39.759 226.48,42.2C226.193,43.348 227.341,43.635 230.212,43.061C235.237,42.056 238.251,45.501 239.687,54.114L240.548,59.426L231.217,60C223.322,60.431 221.168,61.149 217.867,64.45C215.857,66.604 214.709,68.326 215.713,68.326C216.575,68.326 218.01,67.321 219.015,66.173C221.743,62.871 227.198,63.445 228.202,67.178C229.207,71.341 229.351,82.681 228.202,82.681C227.772,82.681 226.049,81.964 224.47,81.102C220.594,78.949 210.833,79.093 208.105,81.389C205.234,83.83 205.665,85.409 208.966,84.548C211.12,83.973 212.125,84.835 213.273,87.706C216,94.74 215.283,95.601 207.531,95.601C199.492,95.601 191.74,98.759 191.74,102.061C191.74,103.209 192.458,104.214 193.176,104.214C194.037,104.214 194.611,103.209 194.611,102.061C194.611,100.913 195.616,99.908 196.764,99.908C199.348,99.908 200.927,105.793 199.779,110.674C198.918,113.832 198.056,114.263 192.601,114.263C185.567,114.263 181.691,115.268 181.691,117.278C181.691,117.995 182.696,118.57 183.845,118.57C184.993,118.57 185.998,119.718 185.998,121.01C185.998,123.02 184.706,123.594 179.538,123.881C176.093,124.025 172.36,124.599 171.356,125.173C170.351,125.891 167.48,126.178 165.039,125.891C161.307,125.604 159.584,126.609 154.991,131.92C149.392,138.093 149.392,138.236 146.521,135.509C141.927,130.915 135.754,128.331 132.022,129.193C130.012,129.767 128.577,129.48 128.577,128.618C128.577,127.901 129.582,127.183 130.874,127.183C132.883,127.183 132.883,126.752 131.448,125.03C130.299,123.738 127.141,122.876 122.978,122.876C118.097,122.876 116.949,122.446 118.528,121.441C121.973,119.144 117.667,117.134 109.628,117.134C102.737,117.134 101.876,116.273 102.594,110.244C102.881,107.947 98.574,108.09 93.55,110.674C91.397,111.823 89.243,112.828 88.956,112.828C87.377,112.828 88.669,103.497 90.679,99.621C93.55,94.166 91.971,92.73 83.071,92.73C79.625,92.73 76.898,92.012 76.898,91.295C76.898,88.136 81.348,81.246 82.783,82.107C83.788,82.681 84.075,81.964 83.788,80.385C83.214,77.514 80.056,77.37 68.428,79.236L63.547,79.954L64.552,73.207C65.557,65.599 67.567,62.44 70.581,63.589C71.73,64.02 72.591,63.445 72.591,62.153C72.591,59.569 62.83,55.406 56.8,55.406C54.36,55.406 52.494,54.976 52.494,54.402C52.494,51.961 61.681,39.616 64.122,38.898C65.557,38.324 66.849,37.462 66.849,36.745C66.849,34.878 54.934,33.73 49.623,35.309C46.895,36.027 44.455,36.745 44.311,36.745C42.876,36.745 44.311,30.859 46.034,28.993C47.182,27.844 48.187,26.122 48.187,25.26C48.187,22.389 58.236,19.088 61.968,20.667C65.126,22.102 66.849,21.671 66.849,19.231C66.849,18.657 63.978,16.791 60.533,15.212C57.087,13.489 52.781,10.474 50.915,8.465C47.757,5.019 47.613,4.732 50.34,5.45C51.92,5.881 56.226,5.737 59.671,5.019C71.156,3.153 85.942,4.589 92.832,8.465Z" style="fill:rgb(255,255,0);fill-rule:nonzero;"/>
            <path id="Graphic_39" d="M46.752,8.034C46.752,8.752 49.192,11.049 52.063,13.058C55.078,15.068 56.657,16.647 55.652,16.647C53.499,16.647 42.445,26.552 42.445,28.418C42.445,29.28 40.435,32.294 38.138,35.453C35.698,38.467 31.822,46.506 29.525,53.397C24.932,66.891 24.214,77.657 26.511,97.754C27.372,105.363 27.228,108.234 25.793,109.813C24.357,111.392 24.07,110.674 24.357,104.932C24.501,101.2 23.783,92.587 22.778,85.696C21.773,78.949 20.912,68.326 20.912,62.153C20.769,52.248 21.343,49.951 26.08,40.19C29.095,34.304 34.263,26.122 37.851,22.246C45.173,14.063 44.024,12.628 36.559,20.523C30.1,27.27 23.209,38.754 20.338,47.367C17.467,55.693 17.467,63.158 20.194,83.399C22.635,101.918 22.922,113.689 20.912,114.981C20.051,115.555 19.477,113.402 19.477,109.669C19.477,103.927 17.754,91.151 15.744,82.681C12.155,66.316 15.026,44.066 23.065,27.557C26.08,21.528 28.951,16.647 29.669,16.647C30.387,16.647 30.961,15.786 30.961,14.637C30.961,11.623 37.995,7.029 42.732,6.886C44.885,6.886 46.752,7.316 46.752,8.034Z" style="fill:rgb(255,255,0);fill-rule:nonzero;"/>
            <path id="Graphic_38" d="M258.492,13.92C261.22,15.642 265.239,19.805 267.249,23.251C274.139,34.878 275.001,41.625 275.001,81.82C275.001,102.348 274.57,118.57 273.996,118.139C271.986,115.986 269.259,91.007 269.259,73.351C269.259,50.238 266.675,38.754 259.641,28.418C255.047,21.815 249.161,16.36 249.161,18.8C249.161,19.375 251.745,22.82 254.903,26.409C263.804,37.175 265.239,42.487 266.531,72.633C267.105,87.275 267.967,101.487 268.397,104.214C269.115,108.665 268.971,108.665 267.105,103.066C265.957,99.621 264.665,92.587 264.234,87.275C262.081,60 259.784,47.511 255.334,39.041C252.319,33.156 240.548,20.954 238.108,20.954C235.667,20.954 248.874,11.336 251.602,11.049C252.463,10.905 255.621,12.341 258.492,13.92Z" style="fill:rgb(255,255,0);fill-rule:nonzero;"/>
            <path id="Graphic_37" d="M253.898,41.769C256.913,47.655 260.215,64.881 261.363,79.81C261.794,86.557 262.942,95.601 263.804,99.908C266.531,113.545 266.388,116.56 262.942,121.297L259.641,125.747L258.061,122.302C257.344,120.579 256.195,115.124 255.621,110.531C253.755,94.453 250.597,79.667 247.008,70.623C244.998,65.742 242.988,58.565 242.414,54.545C241.984,50.669 240.692,46.075 239.543,44.353C237.677,41.482 237.677,41.338 241.122,41.625C243.132,41.912 245.716,42.917 246.864,43.779C250.023,46.506 250.884,43.348 248.443,37.606C247.295,34.878 246.29,32.151 246.29,31.577C246.29,30.141 251.314,37.032 253.898,41.769Z" style="fill:rgb(255,255,0);fill-rule:nonzero;"/>
            <path id="Graphic_36" d="M59.671,37.319C59.671,37.606 57.375,41.195 54.647,45.358C51.92,49.521 49.623,53.827 49.623,54.976C49.623,56.124 47.757,61.149 45.46,66.029C40.148,77.37 37.995,86.27 36.847,101.2C36.416,108.377 35.267,113.545 34.263,113.832C33.114,114.263 32.971,112.971 33.975,108.952C34.693,105.937 35.267,98.185 35.267,91.869C35.267,77.514 38.713,59.857 43.306,50.669C45.316,46.937 46.177,43.922 45.46,43.922C40.435,43.922 32.54,75.217 32.396,95.601C32.109,115.699 30.243,117.852 29.095,99.334C27.372,72.346 27.803,65.599 31.679,53.827C33.688,47.798 36.272,41.625 37.421,40.19C39.43,37.606 39.43,37.606 39.574,40.19C39.574,42.63 39.861,42.63 42.876,40.62C44.742,39.472 47.469,38.18 48.905,37.749C52.494,36.888 59.671,36.601 59.671,37.319Z" style="fill:rgb(255,255,0);fill-rule:nonzero;"/>
            <path id="Graphic_35" d="M63.547,59.139C66.562,60 66.562,60.144 64.409,63.445C63.117,65.455 62.112,70.192 62.112,74.499C62.112,80.241 60.82,84.117 57.087,91.151C53.068,98.472 52.063,101.918 51.776,109.095C51.776,113.832 50.915,119 50.053,120.579C47.613,125.03 46.608,104.932 48.905,95.601C51.345,85.552 54.934,75.791 57.662,71.628C58.81,69.762 59.097,68.326 58.379,68.326C53.499,68.326 45.029,93.591 45.316,107.085C45.46,112.253 45.603,117.421 45.46,118.57C45.173,122.015 40.722,114.55 39.287,108.234C37.134,98.329 44.598,68.613 51.345,60C52.924,58.134 58.379,57.703 63.547,59.139Z" style="fill:rgb(255,255,0);fill-rule:nonzero;"/>
            <path id="Graphic_34" d="M237.677,63.015C237.677,62.44 239.256,63.589 241.122,65.312C245.142,69.044 249.879,84.261 251.889,100.195C253.468,112.11 252.894,119 249.735,121.584C246.577,124.168 244.998,117.421 245.285,101.774C245.572,86.127 242.701,74.642 237.677,71.484C233.945,69.187 234.088,69.905 238.251,76.222C241.84,81.533 242.701,87.132 243.85,114.263C244.28,125.317 244.137,126.034 242.558,122.158C241.553,119.718 240.692,116.129 240.548,113.976C240.548,111.966 238.538,104.214 236.098,96.75C233.657,89.428 231.361,80.097 231.074,76.222C230.786,72.202 230.212,67.321 229.925,65.168C229.207,61.579 229.351,61.436 233.37,62.584C235.811,63.302 237.677,63.445 237.677,63.015Z" style="fill:rgb(255,255,0);fill-rule:nonzero;"/>
            <path id="Graphic_33" d="M76.036,85.265C74.888,87.419 74.027,90.29 74.027,91.869C74.027,93.304 72.591,96.893 70.869,99.621C68.715,103.066 67.423,108.09 66.993,114.837C66.418,121.441 65.414,125.03 64.122,125.46C62.542,126.034 62.399,124.168 62.83,116.273C63.547,106.511 65.844,99.764 70.725,92.874C72.735,90.003 72.878,89.572 71.156,90.003C70.007,90.433 67.136,94.596 64.696,99.19C60.963,106.511 60.389,109.382 60.389,118.857C60.389,125.03 60.246,130.054 60.102,130.054C59.959,130.054 58.81,128.331 57.662,126.034C54.216,119.287 53.499,109.813 55.795,100.913C58.379,91.151 65.988,80.672 69.864,81.677C71.443,82.107 72.878,81.82 73.309,81.102C73.74,80.528 75.032,80.241 76.036,80.672C77.759,81.389 77.759,82.107 76.036,85.265Z" style="fill:rgb(255,255,0);fill-rule:nonzero;"/>
            <path id="Graphic_32" d="M220.451,83.112C220.451,83.83 221.168,83.83 221.886,83.399C222.747,82.969 223.322,83.256 223.322,83.973C223.322,84.835 224.614,85.552 226.336,85.552C230.069,85.552 233.945,94.022 236.385,107.373C237.821,114.837 237.821,117.852 236.529,120.867C233.514,127.183 231.361,124.312 231.791,114.55C232.222,104.789 230.212,97.18 225.906,90.864C221.599,84.835 221.312,87.132 225.331,95.027C229.494,103.784 230.499,110.1 229.064,119.287C228.49,123.163 227.915,125.173 227.772,123.594C227.485,119.718 222.747,105.65 219.876,100.195C218.584,97.754 217.58,94.596 217.58,93.161C217.58,91.725 216.575,88.711 215.426,86.414C212.699,81.246 212.699,81.533 216.862,81.82C218.872,81.82 220.451,82.538 220.451,83.112Z" style="fill:rgb(255,255,0);fill-rule:nonzero;"/>
            <path id="Graphic_31" d="M87.664,98.185C87.09,99.621 86.229,104.214 85.654,108.521C84.937,114.12 83.358,118.283 80.056,122.733L75.462,129.049L76.324,119.862C76.898,114.837 78.19,108.521 79.195,105.937C80.63,102.348 80.774,101.2 79.338,101.774C76.898,102.492 74.314,112.11 74.17,120.723C73.883,131.489 71.73,133.356 69.864,124.455C67.997,115.842 69.72,105.937 73.883,100.051C76.036,97.18 77.903,96.319 82.64,96.032C87.664,95.888 88.382,96.319 87.664,98.185Z" style="fill:rgb(255,255,0);fill-rule:nonzero;"/>
            <path id="Graphic_30" d="M214.421,98.759C219.159,99.19 223.752,115.555 221.599,124.312C220.164,129.623 213.273,136.657 213.273,132.781C213.273,131.92 210.976,126.322 208.249,120.436C205.521,114.55 203.224,108.234 203.224,106.655C203.224,104.932 202.65,102.492 201.789,101.343C200.066,98.472 202.794,97.037 208.249,97.898C210.545,98.185 213.417,98.616 214.421,98.759Z" style="fill:rgb(255,255,0);fill-rule:nonzero;"/>
            <path id="Graphic_29" d="M27.516,124.742C26.654,140.964 21.63,160.2 14.883,173.694C11.725,179.867 8.854,184.604 8.567,184.173C8.136,183.743 8.423,182.164 9.141,180.728C10.72,177.857 17.467,144.983 18.902,132.925C20.051,123.881 24.357,112.828 26.654,112.828C27.803,112.828 28.09,116.56 27.516,124.742Z" style="fill:rgb(255,255,0);fill-rule:nonzero;"/>
            <path id="Graphic_28" d="M99.866,114.407C99.866,116.416 93.981,124.599 93.119,123.738C92.832,123.45 93.263,121.728 94.124,120.005C95.56,117.421 95.416,116.991 93.981,117.421C91.684,118.139 89.53,125.604 90.679,129.336C91.397,131.489 91.109,131.777 89.818,130.628C88.956,129.767 87.808,126.322 87.377,123.307C86.803,118.426 87.09,117.134 89.961,115.124C93.837,112.54 99.866,111.966 99.866,114.407Z" style="fill:rgb(255,255,0);fill-rule:nonzero;"/>
            <path id="Graphic_27" d="M40.292,120.579C40.005,122.158 37.995,130.341 36.129,138.667C34.263,146.993 31.822,158.764 30.817,164.937C29.525,173.263 28.377,176.709 26.224,178.144C24.501,179.293 22.922,180.01 22.635,179.58C22.348,179.293 23.353,174.986 24.932,169.962C26.511,164.937 28.52,157.042 29.525,152.305C30.53,147.567 31.822,141.825 32.54,139.528C33.258,137.232 33.832,131.346 33.832,126.609C33.832,117.134 35.842,113.115 39.143,115.842C40.148,116.703 40.722,118.857 40.292,120.579Z" style="fill:rgb(255,255,0);fill-rule:nonzero;"/>
            <path id="Graphic_26" d="M204.66,119.862C206.382,126.465 204.803,131.92 200.353,134.36C197.482,135.94 197.339,135.652 198.2,131.202C198.918,127.183 199.923,119.287 200.21,115.268C200.497,112.11 203.368,114.981 204.66,119.862Z" style="fill:rgb(255,255,0);fill-rule:nonzero;"/>
            <path id="Graphic_25" d="M194.324,116.991C196.477,117.134 196.764,132.351 194.611,133.643C193.893,134.073 193.176,133.643 193.176,132.638C193.176,131.633 192.314,129.049 191.166,127.039C190.161,125.03 188.869,121.728 188.438,119.718C187.577,116.703 187.864,115.986 190.017,116.416C191.309,116.703 193.319,116.991 194.324,116.991Z" style="fill:rgb(255,255,0);fill-rule:nonzero;"/>
            <path id="Graphic_24" d="M271.843,122.015C272.704,123.881 273.709,130.772 274.283,137.375C275.431,151.73 278.159,162.353 284.619,178.575C287.203,185.178 289.356,190.777 289.356,191.207C289.356,191.495 286.916,191.782 283.901,191.782C278.59,191.782 278.302,191.638 276.149,184.173C274.857,180.154 274.57,178.001 275.431,179.436C278.877,185.035 284.906,191.064 285.911,190.059C286.485,189.485 285.337,187.475 283.47,185.752C280.456,182.881 277.154,176.421 271.986,163.789C271.412,162.21 270.263,155.032 269.402,147.854C268.684,140.533 267.105,132.351 265.957,129.623C264.091,125.173 264.091,124.168 265.813,121.584C268.541,117.708 269.833,117.852 271.843,122.015Z" style="fill:rgb(255,255,0);fill-rule:nonzero;"/>
            <path id="Graphic_23" d="M106.039,123.163C102.45,127.039 99.723,133.356 93.981,150.582C90.392,161.779 81.922,175.704 80.056,173.838C79.625,173.55 80.056,172.402 80.774,171.397C81.635,170.392 84.363,163.645 86.803,156.611C89.387,149.434 91.971,142.687 92.689,141.395C93.406,140.103 93.55,137.662 93.119,136.083C91.54,129.623 98.718,120.723 106.183,120.149C108.91,120.005 108.91,120.149 106.039,123.163Z" style="fill:rgb(255,255,0);fill-rule:nonzero;"/>
            <path id="Graphic_22" d="M261.363,130.054C263.66,128.188 265.67,135.94 267.823,154.171C269.259,167.521 272.417,182.881 275.144,189.915C276.58,193.648 276.58,193.791 273.709,191.207C270.551,188.336 266.388,176.709 266.388,170.679C266.388,165.081 262.368,146.419 259.928,140.533C258.492,137.232 257.057,135.796 255.765,136.227C252.606,137.519 249.735,127.039 252.032,122.876C253.898,119.431 253.898,119.575 256.769,125.46C258.923,130.054 260.071,131.202 261.363,130.054Z" style="fill:rgb(255,255,0);fill-rule:nonzero;"/>
            <path id="Graphic_21" d="M240.548,123.163C240.548,124.168 241.553,126.322 242.845,127.901C244.567,130.197 245.142,130.341 246.29,128.762C249.018,124.168 257.2,151.874 258.923,171.971C259.497,179.005 259.641,184.604 259.066,184.604C257.774,184.604 253.898,171.397 251.889,160.2C249.592,147.711 244.711,131.489 243.276,131.489C241.409,131.489 241.696,133.212 244.28,139.385C245.429,142.256 247.869,152.305 249.735,161.492C251.602,170.679 254.186,180.441 255.621,183.168C258.205,188.049 258.205,188.193 255.478,186.039C246.721,179.436 246.29,178.718 246.434,169.674C246.577,160.2 243.563,145.845 238.969,133.786C236.385,126.609 236.385,121.441 239.256,121.441C239.974,121.441 240.548,122.302 240.548,123.163Z" style="fill:rgb(255,255,0);fill-rule:nonzero;"/>
            <path id="Graphic_20" d="M45.316,129.049C45.316,132.781 48.618,131.346 49.623,127.183C50.484,123.45 53.929,121.441 53.929,124.742C53.929,127.47 48.905,156.898 46.608,167.234C44.885,175.129 39.43,183.168 35.555,183.168C33.832,183.168 33.832,182.738 35.267,181.015C39.574,175.847 44.024,164.794 45.89,154.601C49.479,135.796 49.766,132.925 48.331,132.925C47.469,132.925 46.608,135.078 46.177,137.519C43.019,160.2 42.014,164.219 37.421,172.402C28.951,187.475 27.803,188.193 30.817,176.709C32.253,171.11 33.975,163.789 34.406,160.2C36.416,146.562 42.876,122.733 44.024,124.599C44.742,125.604 45.316,127.613 45.316,129.049Z" style="fill:rgb(255,255,0);fill-rule:nonzero;"/>
            <path id="Graphic_19" d="M84.937,126.465C85.511,128.762 84.65,132.494 82.64,136.801C79.625,143.261 75.319,159.195 73.309,170.536C72.735,174.268 71.156,176.852 67.997,179.005L63.691,182.164L64.696,178.718C65.27,176.852 67.567,170.679 69.72,165.224C71.873,159.626 74.457,151.587 75.462,147.28C76.467,142.974 77.903,138.236 78.62,136.801C79.482,135.078 79.338,134.36 77.759,134.36C76.036,134.36 76.18,133.212 78.62,128.618C82.209,122.015 83.645,121.441 84.937,126.465Z" style="fill:rgb(255,255,0);fill-rule:nonzero;"/>
            <path id="Graphic_18" d="M226.193,129.623L226.193,134.791L229.925,131.489C232.94,128.475 233.801,128.331 234.949,130.054C239.4,136.944 245.142,165.368 244.567,177.57L244.137,186.757L240.979,180.872C239.256,177.57 237.103,170.536 236.241,165.081C232.94,145.701 228.346,134.504 225.188,137.806C224.614,138.38 224.757,139.241 225.619,139.815C228.49,141.682 230.212,146.562 233.37,162.21C235.093,170.823 236.816,179.005 237.246,180.154C237.677,181.589 236.672,181.015 234.949,179.005C233.083,176.996 231.935,173.694 231.935,170.392C231.935,163.071 228.346,150.008 223.752,140.677C220.881,134.648 220.307,132.494 221.599,131.202C222.604,130.197 223.322,128.331 223.322,126.896C223.322,125.46 224.039,124.312 224.757,124.312C225.619,124.312 226.193,126.752 226.193,129.623Z" style="fill:rgb(255,255,0);fill-rule:nonzero;"/>
            <path id="Graphic_17" d="M67.567,129.623C66.131,133.499 61.538,156.898 60.389,166.086C59.528,172.833 58.667,174.842 55.221,177.283C50.628,180.584 48.474,181.302 50.771,178.431C53.499,175.273 59.384,155.463 61.25,143.691C63.117,131.489 64.552,127.183 66.993,127.183C67.997,127.183 68.141,128.331 67.567,129.623Z" style="fill:rgb(255,255,0);fill-rule:nonzero;"/>
            <path id="Graphic_16" d="M211.837,136.657C211.837,138.38 213.417,143.261 215.283,147.424C218.441,154.314 224.039,178.575 222.891,179.723C222.03,180.584 216,171.684 215.57,169.1C215.283,167.808 214.565,164.076 213.991,160.918C213.56,157.76 211.12,151.156 208.823,146.132C204.086,135.652 204.086,136.083 206.382,131.202L208.249,127.326L209.971,130.485C210.976,132.207 211.694,135.078 211.837,136.657Z" style="fill:rgb(255,255,0);fill-rule:nonzero;"/>
            <path id="Graphic_15" d="M30.243,138.667C29.669,141.969 28.951,144.266 28.52,143.835C28.09,143.548 28.233,140.533 28.808,137.232C29.382,133.93 30.1,131.633 30.53,132.064C30.961,132.351 30.817,135.365 30.243,138.667Z" style="fill:rgb(255,255,0);fill-rule:nonzero;"/>
            <path id="Graphic_14" d="M58.667,135.365C60.102,142.83 53.355,170.966 48.761,176.709L46.465,179.58L47.326,176.709C48.474,172.258 55.078,136.657 55.221,133.212C55.508,129.91 57.949,131.489 58.667,135.365Z" style="fill:rgb(255,255,0);fill-rule:nonzero;"/>
            <path id="Graphic_13" d="M71.156,137.519C71.299,140.82 71.299,140.82 73.452,137.949C75.606,135.222 75.606,135.222 74.601,139.385C70.725,156.755 65.27,172.402 62.255,175.273C61.25,176.278 60.963,175.847 61.538,173.838C61.968,172.258 62.686,167.665 63.26,163.789C65.701,144.266 71.012,126.752 71.156,137.519Z" style="fill:rgb(255,255,0);fill-rule:nonzero;"/>
            <path id="Graphic_12" d="M88.813,136.37C90.248,140.246 83.645,161.779 78.046,170.966C74.888,176.134 74.888,175.273 77.472,162.353C79.769,151.156 81.635,144.84 84.363,138.524C86.372,133.93 87.664,133.356 88.813,136.37Z" style="fill:rgb(255,255,0);fill-rule:nonzero;"/>
            <path id="Graphic_11" d="M224.183,148.142C227.341,156.037 229.207,163.071 229.782,170.392C230.212,176.278 230.93,182.738 231.361,185.035C231.791,187.188 231.791,188.911 231.361,188.911C229.351,188.911 225.906,179.005 223.178,165.511C221.455,157.472 218.872,148.429 217.436,145.558C214.852,140.39 215.139,135.222 217.867,136.083C218.728,136.37 221.455,141.825 224.183,148.142Z" style="fill:rgb(255,255,0);fill-rule:nonzero;"/>
            <path id="Graphic_10" d="M206.813,147.854C211.981,159.339 215.426,177.857 211.263,172.258C210.115,170.536 207.818,164.507 206.239,158.764C204.803,153.022 202.363,147.28 201.071,145.988C198.631,143.835 198.631,143.835 199.635,146.562C200.21,148.142 201.645,152.305 202.794,155.893C203.798,159.482 205.665,165.224 206.813,168.813L208.823,175.129L205.378,170.966C203.511,168.526 199.923,161.923 197.482,156.181C193.75,147.424 193.319,145.27 194.755,143.261C196.764,140.677 200.497,137.232 201.358,137.232C201.645,137.232 204.086,141.969 206.813,147.854Z" style="fill:rgb(255,255,0);fill-rule:nonzero;"/>
            <path id="Graphic_9" d="M261.22,153.166C262.512,158.477 263.516,165.655 263.516,169.1C263.66,174.555 264.521,178.001 268.541,188.193C269.546,190.777 269.402,190.777 265.957,187.619C262.799,184.891 262.081,182.594 261.363,173.263C260.358,162.927 257.631,146.993 255.621,140.82C254.76,138.093 254.76,138.093 256.913,140.677C258.061,142.112 260.071,147.711 261.22,153.166Z" style="fill:rgb(255,255,0);fill-rule:nonzero;"/>
            <path id="Graphic_8" d="M25.219,160.487C21.486,175.56 16.893,184.748 12.443,186.327C9.141,187.475 8.997,187.331 11.007,185.035C14.883,180.297 21.773,165.368 24.645,155.463C28.377,142.112 28.951,145.701 25.219,160.487Z" style="fill:rgb(255,255,0);fill-rule:nonzero;"/>
            <path id="Graphic_7" d="M47.469,181.733C47.9,182.451 47.613,183.168 46.895,183.168C46.034,183.168 45.316,182.451 45.316,181.733C45.316,180.872 45.603,180.297 45.89,180.297C46.321,180.297 47.039,180.872 47.469,181.733Z" style="fill:rgb(255,255,0);fill-rule:nonzero;"/>
            <path id="Graphic_6" d="M23.927,184.604C22.061,186.183 19.907,187.475 18.902,187.331C18.041,187.331 18.759,186.614 20.625,185.752C22.348,184.891 23.783,183.599 23.783,182.881C23.783,182.307 24.645,181.733 25.649,181.733C26.511,181.876 25.793,183.168 23.927,184.604Z" style="fill:rgb(255,255,0);fill-rule:nonzero;"/>
        </g>
        <path id="Graphic_5" d="M246.29,47.367C246.29,47.798 247.582,50.669 249.305,53.827C254.616,64.02 256.626,74.355 257.774,97.467C258.779,117.852 259.497,123.163 261.22,121.297C262.224,120.149 259.353,79.236 257.631,70.479C255.908,61.866 250.453,49.234 247.726,47.511C247.008,47.08 246.29,46.937 246.29,47.367Z" style="fill:rgb(77,77,77);fill-rule:nonzero;"/>
        <path id="Graphic_4" d="M207.531,102.635C207.531,103.497 208.105,104.214 208.966,104.214C211.981,104.214 214.709,112.828 214.709,122.446C214.709,129.48 215.139,131.633 216.288,130.485C219.015,127.757 217.292,110.674 213.847,106.081C210.689,101.918 207.531,100.195 207.531,102.635Z" style="fill:rgb(77,77,77);fill-rule:nonzero;"/>
    </g>
</svg>
