<?xml version="1.0" encoding="UTF-8" standalone="no"?>
<svg
   xmlns:dc="http://purl.org/dc/elements/1.1/"
   xmlns:cc="http://creativecommons.org/ns#"
   xmlns:rdf="http://www.w3.org/1999/02/22-rdf-syntax-ns#"
   xmlns:svg="http://www.w3.org/2000/svg"
   xmlns="http://www.w3.org/2000/svg"
   version="1.1"
   id="svg3689"
   height="1434.5"
   width="1382.7">
  <defs
     id="defs3691" />
  <metadata
     id="metadata3694">
    <rdf:RDF>
      <cc:Work
         rdf:about="">
        <dc:format>image/svg+xml</dc:format>
        <dc:type
           rdf:resource="http://purl.org/dc/dcmitype/StillImage" />
        <dc:title></dc:title>
        <dc:creator>
          <cc:Agent>
            <dc:title>https://zh.wikipedia.org/wiki/User:Iflwlou</dc:title>
          </cc:Agent>
        </dc:creator>
      </cc:Work>
    </rdf:RDF>
  </metadata>
  <g
     transform="translate(-58.019,415.01)"
     id="layer1">
    <g
       transform="matrix(6.2906,-2.1619,2.1619,6.2906,-5799.9,-412.62)"
       id="g4473">
      <path
         style="fill:#ffff00;fill-opacity:1;stroke:#808080;stroke-width:1px;stroke-linecap:butt;stroke-linejoin:miter;stroke-opacity:1"
         d="m 776.84,451.91 c 14.77,1.89 30.13,-1.1 43.11,-8.39 13.24,-7.44 23.94,-19.31 29.96,-33.25 l 126.05,-62.29 c 5.66,-1.06 11.41,-1.64 17.17,-1.75 5.61,-0.1 11.27,0.25 16.77,1.05 1.3,2.57 1.8,5.55 1.3,8.39 -0.3,1.6 -0.8,3.15 -1.6,4.56 -3.6,4.58 -7.7,8.81 -12.09,12.6 -5.04,4.33 -10.57,8.09 -16.44,11.2 5.14,-1.17 10.44,-1.64 15.71,-1.4 6.02,0.27 11.92,1.45 17.52,3.5 -2.3,5.61 -5.5,10.86 -9.5,15.47 -3.6,4.15 -7.7,7.78 -12.04,11.12 -5.16,3.97 -10.64,7.55 -16.46,10.48 -7.7,3.88 -15.97,6.61 -24.46,8.07 7.71,-1.51 15.73,-1.39 23.39,0.35 5.21,1.18 10.3,3.14 14.61,6.3 2.87,2.1 5.36,4.73 7.31,7.7 -5.94,4.26 -12.32,7.9 -19,10.84 -4.21,1.86 -8.55,3.44 -12.97,4.73 -3.9,1.28 -7.87,2.39 -11.87,3.32 -11.54,2.68 -23.42,3.86 -35.26,3.5 8.3,1 16.23,4.89 22.1,10.85 2.82,2.86 5.18,6.19 6.94,9.8 -8.48,2.96 -17.34,4.85 -26.3,5.6 -8.77,0.74 -17.63,0.38 -26.31,-1.05 -4.4,-1.31 -8.73,-2.83 -12.98,-4.56 -7.15,-2.92 -14.06,-6.43 -20.63,-10.49 9.72,3.82 18.01,11.14 23.02,20.3 1.98,3.62 3.46,7.52 4.38,11.54 -5.42,1.67 -11.16,2.27 -16.8,1.75 -5.74,-0.52 -11.36,-2.2 -16.45,-4.9 -3.85,-1.73 -7.52,-3.84 -10.96,-6.29 -3.86,-2.75 -7.42,-5.92 -10.59,-9.45 1.68,3.25 2.68,6.85 2.92,10.5 0.23,3.42 -0.21,6.88 -1.28,10.14 -4.6,0.1 -9.21,-0.69 -13.52,-2.27 -6.4,-2.35 -12.02,-6.41 -17.35,-10.67 -3.7,-2.96 -7.35,-6.09 -10.05,-9.98 -3.12,-4.49 -4.86,-9.92 -4.93,-15.39 l -7.06,-9.69 c -0.76,-0.55 -1.41,-1.26 -1.89,-2.07 -0.49,-0.8 -0.81,-1.7 -1.1,-2.59 z"
         id="path3810" />
      <path
         style="fill:none;stroke:#808080;stroke-width:1px;stroke-linecap:butt;stroke-linejoin:miter;stroke-opacity:1"
         d="m 789.08,472.56 c 1.97,1.06 4.23,1.59 6.46,1.5 2.24,-0.1 4.44,-0.8 6.32,-2.02 2.84,-1.85 4.87,-4.9 5.48,-8.23 1.94,1.7 4.41,2.78 6.97,3.07 2.56,0.28 5.21,-0.25 7.47,-1.49 2.04,-1.12 3.77,-2.82 4.92,-4.84 1.15,-2.03 1.73,-4.38 1.65,-6.71 2.1,1.53 4.74,2.32 7.34,2.2 2.6,-0.13 5.15,-1.17 7.09,-2.9 2.59,-2.3 4.04,-5.82 3.84,-9.27 2.26,0.8 4.75,0.94 7.1,0.42 2.34,-0.52 4.53,-1.72 6.24,-3.4 1.8,-1.77 3.06,-4.09 3.58,-6.56 0.51,-2.47 0.28,-5.1 -0.66,-7.44 4.93,-1.23 9.28,-4.62 11.69,-9.09 1.57,-2.92 2.33,-6.27 2.17,-9.58 -0.16,-3.31 -1.24,-6.57 -3.08,-9.32"
         id="path3814" />
      <path
         style="fill:none;stroke:#808080;stroke-width:1px;stroke-linecap:butt;stroke-linejoin:miter;stroke-opacity:1"
         d="m 794.56,473.61 c 1.11,4.11 3.05,8 5.66,11.37 3.13,4.03 7.24,7.3 11.87,9.45 l 7.86,3.68 c 4.18,-3.12 6.92,-8.1 7.31,-13.3 0.27,-3.63 -0.57,-7.34 -2.38,-10.5 l -6.21,-8.22"
         id="path3818" />
      <path
         style="fill:none;stroke:#808080;stroke-width:1px;stroke-linecap:butt;stroke-linejoin:miter;stroke-opacity:1"
         d="m 807.53,464.34 c -0.74,4.41 0.11,9.08 2.37,12.94 1.88,3.21 4.71,5.87 8.04,7.53"
         id="path3822" />
      <path
         style="fill:none;stroke:#808080;stroke-width:1px;stroke-linecap:butt;stroke-linejoin:miter;stroke-opacity:1"
         d="m 820.13,497.93 c 1.19,1.48 2.54,2.84 4.02,4.03 1.63,1.31 3.41,2.43 5.3,3.32"
         id="path3826" />
      <path
         style="fill:none;stroke:#808080;stroke-width:1px;stroke-linecap:butt;stroke-linejoin:miter;stroke-opacity:1"
         d="m 826.89,479.38 c 3.7,2.51 7.7,4.57 11.88,6.13 5.55,2.07 11.43,3.26 17.35,3.5 0.15,-4.08 0.34,-8.17 0.55,-12.25 0.14,-2.71 0.28,-5.53 -0.73,-8.05 -0.76,-1.89 -2.12,-3.48 -3.66,-4.81 -1.54,-1.33 -3.26,-2.43 -4.93,-3.59 -2.35,-1.63 -4.6,-3.38 -6.76,-5.25"
         id="path3830" />
      <path
         style="fill:none;stroke:#808080;stroke-width:1px;stroke-linecap:butt;stroke-linejoin:miter;stroke-opacity:1"
         d="m 828.72,453.66 c 1.45,5.02 3.68,9.82 6.57,14.18 3.04,4.58 6.82,8.68 11.15,12.07"
         id="path3834" />
      <path
         style="fill:none;stroke:#808080;stroke-width:1px;stroke-linecap:butt;stroke-linejoin:miter;stroke-opacity:1"
         d="m 856.12,489.18 c 2.03,1.97 4.31,3.68 6.76,5.08 2.36,1.35 4.88,2.41 7.49,3.15"
         id="path3838" />
      <path
         style="fill:none;stroke:#808080;stroke-width:1px;stroke-linecap:butt;stroke-linejoin:miter;stroke-opacity:1"
         d="m 833.47,491.11 -6.21,-11.73"
         id="path3842" />
      <path
         style="fill:none;stroke:#808080;stroke-width:1px;stroke-linecap:butt;stroke-linejoin:miter;stroke-opacity:1"
         d="m 861.23,478.33 -4.38,-1.92"
         id="path3846" />
      <path
         style="fill:none;stroke:#808080;stroke-width:1px;stroke-linecap:butt;stroke-linejoin:miter;stroke-opacity:1"
         d="m 855.94,467.84 c 7.19,1.08 14.48,1.49 21.74,1.22 7.44,-0.28 14.85,-1.28 22.1,-2.97 -0,-3.32 -0.98,-6.63 -2.74,-9.45 -2.42,-3.87 -6.36,-6.75 -10.78,-7.88 -2.49,-0.58 -4.98,-1.1 -7.49,-1.57 -8.44,-1.59 -16.99,-2.58 -25.57,-2.97"
         id="path3850" />
      <path
         style="fill:none;stroke:#808080;stroke-width:1px;stroke-linecap:butt;stroke-linejoin:miter;stroke-opacity:1"
         d="m 847.35,444.04 c 3.15,4.8 7.62,8.71 12.79,11.2 6.02,2.9 12.98,3.83 19.55,2.62"
         id="path3854" />
      <path
         style="fill:none;stroke:#808080;stroke-width:1px;stroke-linecap:butt;stroke-linejoin:miter;stroke-opacity:1"
         d="m 918.41,467.84 c -3.53,0.76 -7.2,0.88 -10.77,0.35 -2.71,-0.4 -5.36,-1.17 -7.86,-2.28"
         id="path3858" />
      <path
         style="fill:none;stroke:#808080;stroke-width:1px;stroke-linecap:butt;stroke-linejoin:miter;stroke-opacity:1"
         d="m 875.85,469.24 c 5.75,3.11 11.82,5.64 18.08,7.52 6.95,2.09 14.14,3.38 21.38,3.85"
         id="path3862" />
      <path
         style="fill:none;stroke:#808080;stroke-width:1px;stroke-linecap:butt;stroke-linejoin:miter;stroke-opacity:1"
         d="m 901.79,384.73 c 1.87,-0.27 3.77,-0.38 5.66,-0.35 1.84,0 3.67,0.21 5.48,0.52 1.11,3.06 1.36,6.43 0.73,9.62 -0.49,2.45 -1.49,4.79 -2.92,6.83 -1.67,2.81 -3.84,5.31 -6.39,7.35 -3.43,2.74 -7.46,4.62 -11.51,6.3 -2.99,1.24 -6.08,2.41 -9.32,2.62 -2.89,0.18 -5.82,-0.43 -8.4,-1.75"
         id="path3870" />
      <path
         style="fill:none;stroke:#808080;stroke-width:1px;stroke-linecap:butt;stroke-linejoin:miter;stroke-opacity:1"
         d="m 876.95,407.47 c 3.84,0.22 7.72,-0.38 11.32,-1.75 3.86,-1.47 7.39,-3.82 10.23,-6.82"
         id="path3874" />
      <path
         style="fill:none;stroke:#808080;stroke-width:1px;stroke-linecap:butt;stroke-linejoin:miter;stroke-opacity:1"
         d="m 887.36,416.92 c 5.06,0.1 10.11,0.86 14.98,2.27 3.13,0.91 6.19,2.08 9.13,3.5 l 10.05,8.58 c -4.81,3.17 -9.97,5.81 -15.35,7.87 -4.92,1.88 -10.01,3.27 -15.16,4.38 -5.48,1.19 -11.04,2.06 -16.62,2.62"
         id="path3878" />
      <path
         style="fill:none;stroke:#808080;stroke-width:1px;stroke-linecap:butt;stroke-linejoin:miter;stroke-opacity:1"
         d="m 864.34,432.49 c 4.99,0.32 9.98,0.44 14.98,0.35 5,-0.1 10,-0.38 14.98,-0.87"
         id="path3882" />
      <path
         style="fill:none;stroke:#808080;stroke-width:1px;stroke-linecap:butt;stroke-linejoin:miter;stroke-opacity:1"
         d="m 904.16,408.52 c 11.3,-1.59 22.48,-3.99 33.43,-7.17 15.08,-4.38 29.73,-10.25 43.66,-17.5"
         id="path3886" />
      <path
         style="fill:none;stroke:#808080;stroke-width:1px;stroke-linecap:butt;stroke-linejoin:miter;stroke-opacity:1"
         d="m 914.21,391.2 c 10.52,-2.47 20.81,-5.93 30.69,-10.32 10.18,-4.53 19.93,-10.05 29.05,-16.45"
         id="path3890" />
      <path
         style="fill:none;stroke:#808080;stroke-width:1px;stroke-linecap:butt;stroke-linejoin:miter;stroke-opacity:1"
         d="m 914.39,424.62 c 8.93,-1.65 17.69,-4.17 26.13,-7.52 8.82,-3.5 17.28,-7.91 25.21,-13.13"
         id="path3894" />
      <path
         style="fill:none;stroke:#808080;stroke-width:1px;stroke-linecap:butt;stroke-linejoin:miter;stroke-opacity:1"
         d="m 894.85,442.47 c 10.49,0 20.97,-1.01 31.24,-3.15 8.99,-1.87 17.8,-4.57 26.3,-8.05"
         id="path3898" />
      <path
         style="fill:none;stroke:#808080;stroke-width:1px;stroke-linecap:butt;stroke-linejoin:miter;stroke-opacity:1"
         d="m 895.94,454.71 c 8.75,0.16 17.52,-0.54 26.13,-2.1 9.52,-1.72 18.84,-4.48 27.76,-8.22"
         id="path3902" />
    </g>
</g>
</svg>
