<?xml version="1.0" encoding="UTF-8" standalone="no"?>
<!-- Created with Inkscape (http://www.inkscape.org/) -->

<svg
   xmlns:dc="http://purl.org/dc/elements/1.1/"
   xmlns:cc="http://creativecommons.org/ns#"
   xmlns:rdf="http://www.w3.org/1999/02/22-rdf-syntax-ns#"
   xmlns:svg="http://www.w3.org/2000/svg"
   xmlns="http://www.w3.org/2000/svg"
   version="1.0"
   width="477.62524"
   height="211.48856"
   id="svg2">
  <defs
     id="defs4" />
  <metadata
     id="metadata7">
    <rdf:RDF>
      <cc:Work
         rdf:about="">
        <dc:format>image/svg+xml</dc:format>
        <dc:type
           rdf:resource="http://purl.org/dc/dcmitype/StillImage" />
        <dc:title></dc:title>
      </cc:Work>
    </rdf:RDF>
  </metadata>
  <g
     id="layer1">
    <g
       id="body">
      <path
         d="m 63.48,199.5 c -37.4,-11 -1.1,-24 -12.9,-50.6 -10.4,-39.8 -24.5,-12.8 -26.9,-45.6 31.7,-28.13 144.72,-24.63 216.72,-28.12 71,3.49 184,0 216,28.11 -2,32.8 -16,5.8 -27,45.6 -12,26.6 29.31821,36.36134 -8.68179,47.36134 C 287.37875,141.22809 100.17265,158.52995 63.5,199.49 z"
         id="path3764"
         style="fill:#ff0000;stroke:#000000;stroke-width:4;stroke-miterlimit:4;stroke-opacity:1;stroke-dasharray:none" />
      <path
         d="m 37.97,124.7 c 88.1,-44.5 305.7,-38.6 411.7,-4.7"
         id="path3767"
         style="fill:none;stroke:#000000;stroke-width:4;stroke-miterlimit:4;stroke-opacity:1;stroke-dasharray:none" />
      <path
         d="m 51.78,175.5 c 120.3,-29.26 216,-31.27 382,6.527"
         id="path3769"
         style="fill:none;stroke:#000000;stroke-width:4;stroke-miterlimit:4;stroke-opacity:1;stroke-dasharray:none" />
      <path
         d="M 44.48,133.4 C 152.4,73.67 365.4,105.3 441.4,127.5 l 9,-8.2 c -28,-12.9 -284,-64.41 -415.32,7.1 z"
         id="path3773"
         style="opacity:0.5;fill:#333333;fill-opacity:1;fill-rule:evenodd;stroke:none" />
      <path
         d="m 265.9,111.6 c 21.07,1.653 37.6,5.107 37.6,5.107 l 0,10.74 c -20.25,-4.132 -36.78,-5.107 -36.78,-5.107 z m -100,4 c 28.51,-5.785 37.6,-2.893 37.6,-2.893 l 0,10.74 c -16.12,0.8264 -36.78,2.893 -36.78,2.893 z m 74.18,-6.744 -9.504,7.438 9.091,11.98 7.851,-9.091 z m 100,8 -9.504,7.438 6.198,11.57 10.74,-8.678 z m 23.4,7.355 c 32.23,2.479 34.23,2.992 52.41,10.02 l -8.264,10.33 C 389,137.1 365.9,136.6 365.9,136.6 z m -227.5,-6.942 -6.198,9.917 9.091,7.438 6.612,-9.091 z m -64.46,16.94 c 25.62,-11.16 38.02,-10.74 38.02,-10.74 l 4.132,9.091 c -8.678,7.025 -39.67,14.05 -39.67,14.05 z"
         id="path3079"
         style="fill:none;stroke:#000000;stroke-width:2;stroke-linecap:butt;stroke-linejoin:miter;stroke-opacity:1" />
      <path
         d="m 322.7,62.77 c 39.74,-2.371 39.82,-57.57 -0.9242,-55.03 -40.74,2.542 -38.81,57.4 0.9242,55.03 z"
         id="path3052"
         style="fill:#f2f2f2;stroke:#000000;stroke-width:4;stroke-linecap:butt;stroke-linejoin:miter;stroke-opacity:1" />
      <path
         d="m 293.6,47.73 c 0.0583,14.45 48.85,27.48 58.02,-9.16 -3.629,4.234 -54.39,15.81 -58.02,9.16 z"
         id="path3054"
         style="opacity:0.5;fill:#333333;stroke:none" />
      <path
         d="m 144.7,66.77 c 39.74,-2.371 39.82,-57.57 -0.9242,-55.03 -40.74,2.542 -38.81,57.4 0.9242,55.03 z"
         id="path3068"
         style="fill:#f2f2f2;stroke:#000000;stroke-width:4;stroke-linecap:butt;stroke-linejoin:miter;stroke-opacity:1" />
      <path
         d="m 115.6,51.73 c 0.0583,14.45 48.85,27.48 58.02,-9.16 -3.629,4.234 -54.39,15.81 -58.02,9.16 z"
         id="path3070"
         style="opacity:0.5;fill:#333333;stroke:none" />
      <path
         d="m 144.7,66.77 c 39.74,-2.371 39.82,-57.57 -0.9242,-55.03 -40.74,2.542 -38.81,57.4 0.9242,55.03 z"
         id="path3072"
         style="fill:#f2f2f2;stroke:#000000;stroke-width:4;stroke-linecap:butt;stroke-linejoin:miter;stroke-opacity:1" />
      <path
         d="m 115.6,51.73 c 0.0583,14.45 48.85,27.48 58.02,-9.16 -3.629,4.234 -54.39,15.81 -58.02,9.16 z"
         id="path3074"
         style="opacity:0.5;fill:#333333;stroke:none" />
      <path
         d="M 35.45,90.8 C 92.66,75.69 143.7,66.96 143.7,66.96 c 17.27,5.938 81.26,4.224 81.26,4.224 l 0.5861,-14.22 -7.634,5.344 -3.817,-7.634 2.29,-5.344 -2.29,-10.69 9.16,1.527 -2.29,-8.397 1.527,-9.16 -1.527,-11.45 4.58,-5.344 7.634,5.344 3.817,-9.16 3.817,5.344 6.107,6.87 -3.817,9.16 9.924,0 6.87,3.817 -4.58,9.16 3.053,8.397 -13.74,5.344 0,9.924 -8.397,-8.397 -1.118,18.3 c 0,0 56.85,1.268 85.46,-4.669 l 93.56,20.16 C 226.8,70.83 103.5,77.31 35.45,90.8 z"
         id="path3107"
         style="fill:#ff0000;stroke:#000000;stroke-width:4;stroke-linecap:butt;stroke-linejoin:miter;stroke-opacity:1" />
      <path
         d="m 235.3,17.42 -3.817,29.77"
         id="path3127"
         style="fill:none;stroke:#000000;stroke-width:1px;stroke-linecap:butt;stroke-linejoin:miter;stroke-opacity:1" />
      <path
         d="m 252.9,28.87 -15.27,3.053"
         id="path3129"
         style="fill:none;stroke:#000000;stroke-width:1px;stroke-linecap:butt;stroke-linejoin:miter;stroke-opacity:1" />
      <path
         d="m 227.7,20.47 6.107,17.56"
         id="path3131"
         style="fill:none;stroke:#000000;stroke-width:1px;stroke-linecap:butt;stroke-linejoin:miter;stroke-opacity:1" />
      <path
         d="m 223.9,47.95 7.634,-5.344"
         id="path3133"
         style="fill:none;stroke:#000000;stroke-width:1px;stroke-linecap:butt;stroke-linejoin:miter;stroke-opacity:1" />
      <path
         d="M 250.6,40.32 236.1,38.03"
         id="path3135"
         style="fill:none;stroke:#000000;stroke-width:1px;stroke-linecap:butt;stroke-linejoin:miter;stroke-opacity:1" />
      <path
         d="M 36.55,91.88 C 26.83,76.76 31.15,64.89 31.15,64.89 L 37.627,51.94 31.15,40.6 27.372,35.202 19.815,40.6 17.656,28.72 2.006,25.481 l 1.08,13.49 9.176,10.26 1.08,9.176 5.398,8.097 0,10.26 7.557,9.176 -5.398,15.11 15.65,-8.097"
         id="path3215"
         style="fill:#ff0000;stroke:#000000;stroke-width:4;stroke-linecap:butt;stroke-linejoin:miter;stroke-opacity:1" />
      <path
         d="m 7.938,33.58 13.49,23.75 8.636,35.09 0,0"
         id="path3985"
         style="fill:none;stroke:#000000;stroke-width:1px;stroke-linecap:butt;stroke-linejoin:miter;stroke-opacity:1" />
      <path
         d="m 26.83,42.76 -5.398,10.8 10.8,0"
         id="path3987"
         style="fill:none;stroke:#000000;stroke-width:1px;stroke-linecap:butt;stroke-linejoin:miter;stroke-opacity:1" />
      <path
         d="M 27.91,76.76 26.29,56.25"
         id="path3989"
         style="fill:none;stroke:#000000;stroke-width:1px;stroke-linecap:butt;stroke-linejoin:miter;stroke-opacity:1" />
      <path
         d="m 441.1,89.88 c 9.716,-15.11 5.398,-26.99 5.398,-26.99 l -6.477,-12.95 6.477,-11.34 3.778,-5.398 7.557,5.398 2.159,-11.88 15.65,-3.239 -1.08,13.49 -9.176,10.26 -1.08,9.176 -5.398,8.097 0,10.26 -7.557,9.176 5.398,15.11 -15.65,-8.097"
         id="path3991"
         style="fill:#ff0000;stroke:#000000;stroke-width:4;stroke-linecap:butt;stroke-linejoin:miter;stroke-opacity:1" />
      <path
         d="m 448.4,85.94 9.7,-29.15 10.8,-22.67"
         id="path3993"
         style="fill:none;stroke:#000000;stroke-width:1px;stroke-linecap:butt;stroke-linejoin:miter;stroke-opacity:1" />
      <path
         d="m 446.2,46.54 9.176,20.51"
         id="path3995"
         style="fill:none;stroke:#000000;stroke-width:1px;stroke-linecap:butt;stroke-linejoin:miter;stroke-opacity:1" />
      <path
         d="m 449.5,41.68 9.176,13.49"
         id="path3997"
         style="fill:none;stroke:#000000;stroke-width:1px;stroke-linecap:butt;stroke-linejoin:miter;stroke-opacity:1" />
    </g>
  </g>
</svg>
