<?xml version="1.0" encoding="UTF-8" standalone="no"?>
<!-- Created with Inkscape (http://www.inkscape.org/) -->
<svg xmlns:v="http://schemas.microsoft.com/visio/2003/SVGExtensions/" xmlns:dc="http://purl.org/dc/elements/1.1/" xmlns:cc="http://creativecommons.org/ns#" xmlns:rdf="http://www.w3.org/1999/02/22-rdf-syntax-ns#" xmlns:svg="http://www.w3.org/2000/svg" xmlns="http://www.w3.org/2000/svg" version="1.1" width="237.5" height="307.99951" id="svg2" xml:space="preserve" style="font-size:12px;fill:none;stroke-linecap:square;stroke-miterlimit:3;overflow:visible"><title id="title3034">Astrolabe</title><metadata id="metadata57"><rdf:RDF><cc:Work rdf:about=""><dc:format>image/svg+xml</dc:format><dc:type rdf:resource="http://purl.org/dc/dcmitype/StillImage"/><dc:title>Astrolabe</dc:title><dc:date>06/01/2013</dc:date><dc:creator><cc:Agent><dc:title> http://www.vikinganswerlady.com/Stars/Heraldry_SVG_Images/index.htm</dc:title></cc:Agent></dc:creator><dc:rights><cc:Agent><dc:title>Creative Commons Attribution-ShareAlike 3.0 Unported (CC BY-SA 3.0) license (http://creativecommons.org/licenses/by-sa/3.0/). No attribution required for heraldic or artistic use by members of the Society for Creative Anachronism, Inc.</dc:title></cc:Agent></dc:rights><dc:source>Microsoft Visio 2010</dc:source><cc:license rdf:resource="http://creativecommons.org/licenses/by-sa/3.0/"/></cc:Work><cc:License rdf:about="http://creativecommons.org/licenses/by-sa/3.0/"><cc:permits rdf:resource="http://creativecommons.org/ns#Reproduction"/><cc:permits rdf:resource="http://creativecommons.org/ns#Distribution"/><cc:requires rdf:resource="http://creativecommons.org/ns#Notice"/><cc:requires rdf:resource="http://creativecommons.org/ns#Attribution"/><cc:permits rdf:resource="http://creativecommons.org/ns#DerivativeWorks"/><cc:requires rdf:resource="http://creativecommons.org/ns#ShareAlike"/></cc:License></rdf:RDF></metadata><defs id="defs55">
		
		<v:pageProperties v:drawingScale="1" v:pageScale="1" v:drawingUnits="19" v:shadowOffsetX="9" v:shadowOffsetY="-9"/>
		
	</defs>
	
	<v:documentProperties v:viewMarkup="false" v:langID="1033"/>

	<style type="text/css" id="style6"/>

	<g id="group1-1" style="fill:#ffff00"><title id="title13">Astrolabe</title>
			
			<g id="shape2-2" style="fill:#ffff00"><title id="title16">Circle</title>
				
				<path d="m7.938,183.2   a110.8,110.8 0,0,1 221.6,0  a110.8,110.8 0,1,1 -221.6,0  z " id="path18" style="fill:#ffff00;stroke:#000000;stroke-width:3.11999989;stroke-linecap:round;stroke-linejoin:round"/>
			</g>
			<g id="shape3-4" style="fill:#ffff00"><title id="title21">Sheet.3</title>
				
				<path d="m17.78,189.2   c0,-26.43 10.88,-52.7 29.57,-71.4   C66.05,99.15 92.32,88.27 118.8,88.27   c26.43,0 52.7,10.88 71.4,29.57   C208.8,136.5 219.7,162.8 219.7,189.2   c0,26.43 -10.88,52.7 -29.57,71.4 -18.69,18.69 -44.96,29.57 -71.4,29.57 -26.43,0 -52.7,-10.88 -71.4,-29.57   C28.66,241.9 17.78,215.7 17.78,189.2   z M131.4,66.27   c0.4418,-1.339 0.6689,-2.75 0.67,-4.16 0.0684,-3.528 -1.335,-7.061 -3.806,-9.58 -2.471,-2.519 -5.976,-3.991 -9.504,-3.991 -3.528,0 -7.034,1.472 -9.504,3.991 -2.471,2.519 -3.874,6.052 -3.806,9.58 -0.002,1.41 0.2216,2.82 0.66,4.16 -3.119,-2.054 -7.372,-2.242 -10.66,-0.4706 -3.288,1.771 -5.47,5.426 -5.471,9.161 0,0.2235 0.0061,0.447 0.02,0.67   C64.94,81.97 42.14,96.87 26.27,117.3 10.4,137.6 1.561,163.4 1.563,189.2   c0,15.34 3.05,30.67 8.921,44.85 5.87,14.17 14.56,27.17 25.4,38.02 10.85,10.85 23.85,19.53 38.02,25.4 14.17,5.87 29.51,8.921 44.85,8.921 15.34,0 30.67,-3.05 44.85,-8.921 14.17,-5.87 27.17,-14.56 38.02,-25.4 10.85,-10.85 19.53,-23.85 25.4,-38.02   C232.9,219.9 235.9,204.6 235.9,189.2 235.9,163.4 227.1,137.6 211.2,117.3 195.4,96.87 172.6,81.97 147.5,75.63   c0.0139,-0.223 0.0205,-0.4465 0.02,-0.67 0.002,-3.737 -2.182,-7.397 -5.473,-9.169   C138.8,64.02 134.5,64.21 131.4,66.27   z " id="path23" style="fill:#ffff00;stroke:#000000;stroke-width:3.11999989;stroke-linecap:round;stroke-linejoin:round"/>
			</g>
			<g id="shape4-6" style="fill:#ffff00"><title id="title26">Sheet.4</title>
				
				<path d="m99.9,20.39   c0,4.934 2.031,9.837 5.52,13.33 3.489,3.489 8.392,5.52 13.33,5.52 4.934,0 9.837,-2.031 13.33,-5.52   C135.6,30.23 137.6,25.33 137.6,20.39   c0,-4.934 -2.031,-9.837 -5.52,-13.33 -3.489,-3.489 -8.392,-5.52 -13.33,-5.52 -4.934,0 -9.837,2.031 -13.33,5.52   C102,10.56 99.9,15.46 99.9,20.39   z m5.27,0   c-0.02372,-3.568 1.428,-7.123 3.942,-9.654 2.514,-2.531 6.06,-4.007 9.628,-4.007 3.568,0 7.113,1.475 9.628,4.007 2.514,2.531 3.966,6.086 3.942,9.654 0.02372,3.568 -1.428,7.123 -3.942,9.654 -2.514,2.531 -6.06,4.007 -9.628,4.007 -3.568,0 -7.113,-1.475 -9.628,-4.007   C106.6,27.52 105.2,23.96 105.2,20.39   z " id="path28" style="fill:#ffff00;stroke:#000000;stroke-width:3.11999989;stroke-linecap:round;stroke-linejoin:round"/>
			</g>
			<g id="shape5-8" style="fill:#ffff00"><title id="title31">Rounded rectangle</title>
				
				<path d="m118.8,56.67   a3.75,3.75 -180,0,0 3.75,-3.75  l0,-19.87   A3.75,3.75 -180,0,0 118.8,29.3  A3.75,3.75 -180,0,0 115,33.05  l0,19.87   a3.75,3.75 -180,0,0 3.75,3.75  z " id="path33" style="fill:#ffff00;stroke:#000000;stroke-width:3.11999989;stroke-linecap:round;stroke-linejoin:round"/>
			</g>
			<g id="shape6-10" style="fill:#ffff00"><title id="title36">Sheet.6</title>
				
				<path d="m45.9,161   c0,19.07 7.851,38.02 21.34,51.51 13.49,13.49 32.44,21.34 51.51,21.34 19.07,0 38.02,-7.851 51.51,-21.34   C183.8,199 191.6,180.1 191.6,161   c0,-19.07 -7.851,-38.02 -21.34,-51.51 -13.49,-13.49 -32.44,-21.34 -51.51,-21.34 -19.07,0 -38.02,7.851 -51.51,21.34   C53.75,123 45.9,141.9 45.9,161   z m20.39,0   c-0.1575,-13.83 5.425,-27.64 15.15,-37.48 9.726,-9.837 23.47,-15.58 37.3,-15.58 13.83,0 27.58,5.739 37.3,15.58 9.726,9.837 15.31,23.65 15.15,37.48 0.1575,13.83 -5.425,27.64 -15.15,37.48 -9.726,9.837 -23.47,15.58 -37.3,15.58 -13.83,0 -27.58,-5.739 -37.3,-15.58   C71.72,188.6 66.14,174.8 66.29,161   z " id="path38" style="fill:#ffff00;stroke:#000000;stroke-width:3.11999989;stroke-linecap:round;stroke-linejoin:round"/>
			</g>
			<g id="group7-12" style="fill:#ffff00"><title id="title41">Sheet.7</title>
				
				<g id="shape8-13" style="fill:#ffff00"><title id="title44">Sheet.8</title>
					
					<path d="M105.2,190 9.231,145.1 8.571,146.5   a147.3,143.4 90,0,1 0.43,0.29  a7.945,7.735 90,0,1 3.53,7.11  a3.377,3.288 -90,0,0 4.48,3.07  a4.302,4.188 -90,0,0 2.72,6.42  a2.889,2.812 90,0,1 1.53,1.98  l89.62,41.96   a14.53,14.53 -180,0,0 21.42,-7.05  l95.97,44.92 0.66,-1.47   a143.4,147.3 0,0,1 -0.43,-0.29  a7.735,7.945 0,0,1 -3.53,-7.12  a3.288,3.377 -180,0,0 -4.48,-3.07  a4.188,4.302 -180,0,0 -2.72,-6.42  a2.812,2.889 0,0,1 -1.53,-1.98  l-89.61,-41.95   a14.53,14.53 -180,0,0 -21.48,7.02  z " id="path46" style="fill:#ffff00;stroke:#000000;stroke-width:3.11999989;stroke-linecap:round;stroke-linejoin:round"/>
				</g>
				<g id="shape9-15" style="fill:#ffff00"><title id="title49">Circle.2</title>
					
					<path d="m112.4,195.1   a6.375,6.375 0,1,1 12.75,0  a6.375,6.375 0,0,1 -12.75,0  z " id="path51" style="fill:#ffff00;stroke:#000000;stroke-width:3.11999989;stroke-linecap:round;stroke-linejoin:round"/>
				</g>
			</g>
		</g>
</svg>
