<?xml version="1.0" encoding="utf-8"?>
<svg xmlns:xl="http://www.w3.org/1999/xlink" xmlns="http://www.w3.org/2000/svg"
     xmlns:dc="http://purl.org/dc/elements/1.1/"
     xmlns:xlink="http://www.w3.org/1999/xlink"
     version="1.1"
     viewBox="58.5 81 301.5 198"
     width="301.5"
     height="198"
     preserveAspectRatio="xMidYMid meet"
     zoomAndPan="magnify"
     contentScriptType="application/ecmascript"
     contentStyleType="text/css">
   <defs/>
   <metadata  xmlns:svg="http://www.w3.org/2000/svg"
             xmlns:rdf="http://www.w3.org/1999/02/22-rdf-syntax-ns#"
             xmlns:cc="http://creativecommons.org/ns#">
      <rdf:RDF>
         <cc:Work rdf:about="">
            <dc:creator>
               <cc:Agent>
                  <dc:title>http://heraldicart.org Float.svg</dc:title>
               </cc:Agent>
            </dc:creator>
         </cc:Work>
      </rdf:RDF>
   </metadata>
   <g stroke-opacity="1" fill="#ffff00" fill-opacity="1" stroke="#505050"
      stroke-dasharray="none">
      <title>Float</title>
      <g>
         <title>Art</title>
         <g>
            <g>
               <path d="M 111.77308 127.12097 L 353.25 127.12097 L 308.9423 244.53636 L 67.465385 244.53636 Z"/>
               <path d="M 111.77308 127.12097 L 353.25 127.12097 L 308.9423 244.53636 L 67.465385 244.53636 Z"
                     stroke="black"
                     stroke-linecap="round"
                     stroke-linejoin="round"
                     stroke-width="2"/>
            </g>
            <g>
               <g>
                  <path d="M 259.87737 274.47903 L 302.29615 244.53636 L 269.85826 244.53636 Z"/>
                  <path d="M 259.87737 274.47903 L 302.29615 244.53636 L 269.85826 244.53636 Z"
                        stroke="black"
                        stroke-linecap="round"
                        stroke-linejoin="round"
                        stroke-width="2"/>
               </g>
               <g>
                  <path d="M 227.43947 274.47903 L 269.85826 244.53636 L 237.42036 244.53636 Z"/>
                  <path d="M 227.43947 274.47903 L 269.85826 244.53636 L 237.42036 244.53636 Z"
                        stroke="black"
                        stroke-linecap="round"
                        stroke-linejoin="round"
                        stroke-width="2"/>
               </g>
               <g>
                  <path d="M 195.00158 274.47903 L 237.42036 244.53636 L 204.98247 244.53636 Z"/>
                  <path d="M 195.00158 274.47903 L 237.42036 244.53636 L 204.98247 244.53636 Z"
                        stroke="black"
                        stroke-linecap="round"
                        stroke-linejoin="round"
                        stroke-width="2"/>
               </g>
               <g>
                  <path d="M 162.56368 274.47903 L 204.98247 244.53636 L 172.54457 244.53636 Z"/>
                  <path d="M 162.56368 274.47903 L 204.98247 244.53636 L 172.54457 244.53636 Z"
                        stroke="black"
                        stroke-linecap="round"
                        stroke-linejoin="round"
                        stroke-width="2"/>
               </g>
               <g>
                  <path d="M 130.12579 274.47903 L 172.54457 244.53636 L 140.10668 244.53636 Z"/>
                  <path d="M 130.12579 274.47903 L 172.54457 244.53636 L 140.10668 244.53636 Z"
                        stroke="black"
                        stroke-linecap="round"
                        stroke-linejoin="round"
                        stroke-width="2"/>
               </g>
               <g>
                  <path d="M 97.6879 274.47903 L 140.10668 244.53636 L 107.66879 244.53636 Z"/>
                  <path d="M 97.6879 274.47903 L 140.10668 244.53636 L 107.66879 244.53636 Z"
                        stroke="black"
                        stroke-linecap="round"
                        stroke-linejoin="round"
                        stroke-width="2"/>
               </g>
               <g>
                  <path d="M 65.25 274.47903 L 107.66879 244.53636 L 75.23089 244.53636 Z"/>
                  <path d="M 65.25 274.47903 L 107.66879 244.53636 L 75.23089 244.53636 Z"
                        stroke="black"
                        stroke-linecap="round"
                        stroke-linejoin="round"
                        stroke-width="2"/>
               </g>
            </g>
            <g>
               <g>
                  <line x1="241.49615" y1="234.56713" x2="312.4188" y2="234.56713" stroke="black"
                        stroke-linecap="round"
                        stroke-linejoin="round"
                        stroke-width="1"/>
               </g>
               <g>
                  <line x1="245.19004" y1="224.81943" x2="316.1127" y2="224.81943" stroke="black"
                        stroke-linecap="round"
                        stroke-linejoin="round"
                        stroke-width="1"/>
               </g>
               <g>
                  <line x1="248.88393" y1="215.07174" x2="319.8066" y2="215.07174" stroke="black"
                        stroke-linecap="round"
                        stroke-linejoin="round"
                        stroke-width="1"/>
               </g>
               <g>
                  <line x1="252.57782" y1="205.32405" x2="323.50047" y2="205.32405" stroke="black"
                        stroke-linecap="round"
                        stroke-linejoin="round"
                        stroke-width="1"/>
               </g>
               <g>
                  <line x1="256.2717" y1="195.57636" x2="327.19436" y2="195.57636" stroke="black"
                        stroke-linecap="round"
                        stroke-linejoin="round"
                        stroke-width="1"/>
               </g>
               <g>
                  <line x1="259.9656" y1="185.82866" x2="330.88825" y2="185.82866" stroke="black"
                        stroke-linecap="round"
                        stroke-linejoin="round"
                        stroke-width="1"/>
               </g>
               <g>
                  <line x1="263.65948" y1="176.08097" x2="334.58214" y2="176.08097" stroke="black"
                        stroke-linecap="round"
                        stroke-linejoin="round"
                        stroke-width="1"/>
               </g>
               <g>
                  <line x1="267.35337" y1="166.33328" x2="338.27603" y2="166.33328" stroke="black"
                        stroke-linecap="round"
                        stroke-linejoin="round"
                        stroke-width="1"/>
               </g>
               <g>
                  <line x1="271.04726" y1="156.58559" x2="341.9699" y2="156.58559" stroke="black"
                        stroke-linecap="round"
                        stroke-linejoin="round"
                        stroke-width="1"/>
               </g>
               <g>
                  <line x1="274.74115" y1="146.8379" x2="345.6638" y2="146.8379" stroke="black"
                        stroke-linecap="round"
                        stroke-linejoin="round"
                        stroke-width="1"/>
               </g>
               <g>
                  <line x1="278.43504" y1="137.0902" x2="349.3577" y2="137.0902" stroke="black"
                        stroke-linecap="round"
                        stroke-linejoin="round"
                        stroke-width="1"/>
               </g>
            </g>
            <g>
               <path d="M 268.86333 189.15174 C 278.0376 162.53464 280.51454 138.7801 275.62343 120.60764 C 269.60434 98.2443 252.78826 85.52097 228.20385 85.52097 C 204.74597 85.52097 186.6281 96.315 172.9545 116.9093 C 161.80986 133.69463 153.6228 156.52138 145.95511 189.15174 L 163.19142 189.15174 C 170.13348 160.5648 177.46843 140.641 186.77627 126.62213 C 197.45801 110.53399 210.5383 102.74118 228.20385 102.74118 C 245.3726 102.74118 255.511 110.41205 259.49196 125.20293 C 263.6557 140.67291 260.81227 163.1734 251.00857 189.15174 Z"/>
               <path d="M 268.86333 189.15174 C 278.0376 162.53464 280.51454 138.7801 275.62343 120.60764 C 269.60434 98.2443 252.78826 85.52097 228.20385 85.52097 C 204.74597 85.52097 186.6281 96.315 172.9545 116.9093 C 161.80986 133.69463 153.6228 156.52138 145.95511 189.15174 L 163.19142 189.15174 C 170.13348 160.5648 177.46843 140.641 186.77627 126.62213 C 197.45801 110.53399 210.5383 102.74118 228.20385 102.74118 C 245.3726 102.74118 255.511 110.41205 259.49196 125.20293 C 263.6557 140.67291 260.81227 163.1734 251.00857 189.15174 Z"
                     stroke="black"
                     stroke-linecap="round"
                     stroke-linejoin="round"
                     stroke-width="2"/>
            </g>
         </g>
      </g>
   </g>
</svg>