<?xml version="1.0" encoding="utf-8"?>
<svg xmlns:xl="http://www.w3.org/1999/xlink" xmlns="http://www.w3.org/2000/svg"
     xmlns:dc="http://purl.org/dc/elements/1.1/"
     xmlns:xlink="http://www.w3.org/1999/xlink"
     version="1.1"
     viewBox="36 67.5 351 135"
     width="351"
     height="135"
     preserveAspectRatio="xMidYMid meet"
     zoomAndPan="magnify"
     contentScriptType="application/ecmascript"
     contentStyleType="text/css">
   <defs/>
   <metadata  xmlns:svg="http://www.w3.org/2000/svg"
             xmlns:rdf="http://www.w3.org/1999/02/22-rdf-syntax-ns#"
             xmlns:cc="http://creativecommons.org/ns#">
      <rdf:RDF>
         <cc:Work rdf:about="">
            <dc:creator>
               <cc:Agent>
                  <dc:title>http://heraldicart.org Grindstone.svg</dc:title>
               </cc:Agent>
            </dc:creator>
         </cc:Work>
      </rdf:RDF>
   </metadata>
   <g stroke-opacity="1" fill="#ffff00" fill-opacity="1" stroke="#505050"
      stroke-dasharray="none">
      <title>Grindstone</title>
      <g>
         <title>Art</title>
         <g>
            <g>
               <g  id="feature-0">
                  <path 
                        d="M 374.8376 140.3712 C 374.836 140.3712 374.83435 140.3712 374.8327 140.3712 L 261.1078 140.3712 C 261.2518 136.79628 261.24733 133.20255 261.09436 129.6288 L 374.8327 129.6288 C 374.836 129.6288 374.83924 129.6288 374.8425 129.6288 L 375.278 129.6288 L 375.278 129.65062 C 376.37525 129.7596 384.75 134.98339 384.75 134.98339 C 384.75 134.98339 376.37525 140.2404 375.278 140.34938 L 375.278 140.3712 L 374.8425 140.3712 C 374.84087 140.3712 374.83924 140.3712 374.8376 140.3712 Z"
                        fill="#ff0000"/>
               </g>
               <path d="M 374.8376 140.3712 C 374.836 140.3712 374.83435 140.3712 374.8327 140.3712 L 261.1078 140.3712 C 261.2518 136.79628 261.24733 133.20255 261.09436 129.6288 L 374.8327 129.6288 C 374.836 129.6288 374.83924 129.6288 374.8425 129.6288 L 375.278 129.6288 L 375.278 129.65062 C 376.37525 129.7596 384.75 134.98339 384.75 134.98339 C 384.75 134.98339 376.37525 140.2404 375.278 140.34938 L 375.278 140.3712 L 374.8425 140.3712 C 374.84087 140.3712 374.83924 140.3712 374.8376 140.3712 Z"
                     stroke="black"
                     stroke-linecap="round"
                     stroke-linejoin="round"
                     stroke-width="1"/>
            </g>
            <g>
               <path d="M 204.27785 200.52858 L 204.31126 200.52858 L 227.8777 200.52858 C 227.88884 200.5286 227.89997 200.5286 227.9111 200.5286 C 236.43367 200.5286 244.95624 194.13096 251.45873 181.33565 C 264.4638 155.74517 264.4638 114.25483 251.45873 88.66435 C 244.95624 75.86904 236.43367 69.47139 227.9111 69.47139 L 227.91108 69.47139 L 227.8777 69.47142 L 204.31126 69.47142 C 212.82268 69.48812 221.33147 75.88576 227.82548 88.66435 C 240.83054 114.25483 240.83054 155.74517 227.82548 181.33565 C 221.33147 194.11424 212.82268 200.51188 204.31126 200.52858 C 204.30012 200.5286 204.28899 200.5286 204.27785 200.5286 Z"/>
               <path d="M 204.27785 200.52858 L 204.31126 200.52858 L 227.8777 200.52858 C 227.88884 200.5286 227.89997 200.5286 227.9111 200.5286 C 236.43367 200.5286 244.95624 194.13096 251.45873 181.33565 C 264.4638 155.74517 264.4638 114.25483 251.45873 88.66435 C 244.95624 75.86904 236.43367 69.47139 227.9111 69.47139 L 227.91108 69.47139 L 227.8777 69.47142 L 204.31126 69.47142 C 212.82268 69.48812 221.33147 75.88576 227.82548 88.66435 C 240.83054 114.25483 240.83054 155.74517 227.82548 181.33565 C 221.33147 194.11424 212.82268 200.51188 204.31126 200.52858 C 204.30012 200.5286 204.28899 200.5286 204.27785 200.5286 Z"
                     stroke="black"
                     stroke-linecap="round"
                     stroke-linejoin="round"
                     stroke-width="1"/>
            </g>
            <g>
               <ellipse cx="204.27785" cy="135" rx="33.3014615108486" ry="65.5286823277988"/>
               <ellipse cx="204.27785" cy="135" rx="33.3014615108486" ry="65.5286823277988"
                        stroke="black"
                        stroke-linecap="round"
                        stroke-linejoin="round"
                        stroke-width="1"/>
            </g>
            <g>
               <g>
                  <path d="M 252.7879 164.762 C 249.1923 179.22476 242.98366 187.48117 242.98366 187.48117"
                        stroke="black"
                        stroke-linecap="round"
                        stroke-linejoin="round"
                        stroke-width="1"/>
               </g>
               <g>
                  <path d="M 248.08408 164.76415 C 244.48848 179.22691 238.27984 187.48332 238.27984 187.48332"
                        stroke="black"
                        stroke-linecap="round"
                        stroke-linejoin="round"
                        stroke-width="1"/>
               </g>
               <g>
                  <path d="M 243.38027 164.76415 C 239.78466 179.22691 233.57602 187.48332 233.57602 187.48332"
                        stroke="black"
                        stroke-linecap="round"
                        stroke-linejoin="round"
                        stroke-width="1"/>
               </g>
               <g>
                  <path d="M 238.67645 164.76415 C 235.08084 179.22691 228.8722 187.48332 228.8722 187.48332"
                        stroke="black"
                        stroke-linecap="round"
                        stroke-linejoin="round"
                        stroke-width="1"/>
               </g>
            </g>
            <g>
               <g  id="feature-1">
                  <path 
                        d="M 204.27511 129.6288 C 204.27694 129.6288 204.27876 129.6288 204.2806 129.6288 L 204.5244 129.6288 L 204.5244 129.65062 C 205.13867 129.7596 205.73777 130.27672 206.20799 131.202 C 207.27397 133.29958 207.27397 136.70042 206.20799 138.798 C 205.73777 139.72328 205.13867 140.2404 204.5244 140.34938 L 204.5244 140.3712 L 204.2806 140.3712 C 204.27876 140.3712 204.27694 140.3712 204.27511 140.3712 L 130.23316 140.3712 L 123.04623 181.13029 C 122.9472 182.15092 122.69691 183.12594 122.29538 183.91604 C 121.82516 184.84132 121.22607 185.35844 120.6118 185.46741 L 120.6118 185.48923 L 120.36798 185.48923 C 120.36616 185.48924 120.36433 185.48924 120.36251 185.48923 L 41.11811 185.48923 L 41.11811 174.74684 L 115.44532 174.74684 L 122.56715 134.35692 C 122.63742 133.2038 122.89741 132.08692 123.34713 131.202 C 123.81735 130.27672 124.41644 129.7596 125.03071 129.65062 L 125.03071 129.6288 L 125.27452 129.6288 C 125.27635 129.6288 125.27817 129.6288 125.28 129.6288 Z"
                        fill="#ff0000"/>
               </g>
               <path d="M 204.27511 129.6288 C 204.27694 129.6288 204.27876 129.6288 204.2806 129.6288 L 204.5244 129.6288 L 204.5244 129.65062 C 205.13867 129.7596 205.73777 130.27672 206.20799 131.202 C 207.27397 133.29958 207.27397 136.70042 206.20799 138.798 C 205.73777 139.72328 205.13867 140.2404 204.5244 140.34938 L 204.5244 140.3712 L 204.2806 140.3712 C 204.27876 140.3712 204.27694 140.3712 204.27511 140.3712 L 130.23316 140.3712 L 123.04623 181.13029 C 122.9472 182.15092 122.69691 183.12594 122.29538 183.91604 C 121.82516 184.84132 121.22607 185.35844 120.6118 185.46741 L 120.6118 185.48923 L 120.36798 185.48923 C 120.36616 185.48924 120.36433 185.48924 120.36251 185.48923 L 41.11811 185.48923 L 41.11811 174.74684 L 115.44532 174.74684 L 122.56715 134.35692 C 122.63742 133.2038 122.89741 132.08692 123.34713 131.202 C 123.81735 130.27672 124.41644 129.7596 125.03071 129.65062 L 125.03071 129.6288 L 125.27452 129.6288 C 125.27635 129.6288 125.27817 129.6288 125.28 129.6288 Z"
                     stroke="black"
                     stroke-linecap="round"
                     stroke-linejoin="round"
                     stroke-width="1"/>
            </g>
            <g>
               <ellipse cx="40.979624" cy="180.11804" rx="2.72962799269251" ry="5.37120346949171"
                        fill="#ff0000"/>
               <ellipse cx="40.979624" cy="180.11804" rx="2.72962799269251" ry="5.37120346949171"
                        stroke="black"
                        stroke-linecap="round"
                        stroke-linejoin="round"
                        stroke-width="1"/>
            </g>
         </g>
      </g>
   </g>
</svg>