<?xml version="1.0" encoding="UTF-8" standalone="no"?>
<svg xmlns="http://www.w3.org/2000/svg" xmlns:svg="http://www.w3.org/2000/svg" version="1.1" width="400px" height="1523px" style="shape-rendering:geometricPrecision;text-rendering:geometricPrecision;image-rendering:optimizeQuality;fill-rule:evenodd;clip-rule:evenodd" id="svg11802" xmlns:rdf="http://www.w3.org/1999/02/22-rdf-syntax-ns#" xmlns:cc="http://creativecommons.org/ns#" xmlns:dc="http://purl.org/dc/elements/1.1/">
  <defs id="defs11806"/>
  <g id="g11724" style="stroke:#000000">
    <path style="opacity:0.947" fill="#0a0a0a" d="M 93.5,593.5 C 94.4778,593.189 95.1445,592.522 95.5,591.5C 94.3864,590.224 93.3864,590.224 92.5,591.5C 86.3201,593.393 80.1535,595.393 74,597.5C 73.5,597.167 73,596.833 72.5,596.5C 75.1844,586.632 79.851,577.798 86.5,570C 84.3006,570.745 81.9673,571.579 79.5,572.5C 77.7336,572.566 76.7336,571.732 76.5,570C 82.1374,554.387 90.8041,540.72 102.5,529C 99.5091,529.305 96.5091,529.972 93.5,531C 90.5361,532.973 87.3694,534.473 84,535.5C 81.3991,535.399 79.8991,534.065 79.5,531.5C 82.7609,525.063 86.2609,518.729 90,512.5C 94.5343,508.301 98.701,503.801 102.5,499C 96.0055,501.738 89.3389,504.238 82.5,506.5C 88.6245,489.093 98.6245,474.26 112.5,462C 106.604,462.428 100.771,463.595 95,465.5C 93.0287,465.719 91.8621,464.885 91.5,463C 98.5949,450.145 106.928,438.145 116.5,427C 112.048,428.217 107.714,430.05 103.5,432.5C 101.833,432.167 100.833,431.167 100.5,429.5C 103.476,422.882 106.976,416.549 111,410.5C 116.852,404.616 122.352,398.449 127.5,392C 123.352,393.067 119.352,394.733 115.5,397C 112.443,401.786 108.276,403.286 103,401.5C 102.333,400.167 102.333,398.833 103,397.5C 111.661,384.164 121.827,371.997 133.5,361C 129.951,362.084 126.284,363.251 122.5,364.5C 120.078,364.743 118.412,363.743 117.5,361.5C 126.971,347.581 137.638,334.581 149.5,322.5C 143.5,321.833 137.5,321.167 131.5,320.5C 138.217,308.615 147.217,298.782 158.5,291C 152.814,291.02 147.147,291.52 141.5,292.5C 141.248,289.68 141.748,287.014 143,284.5C 150.053,274.441 158.22,265.274 167.5,257C 170.329,254.173 173.663,252.173 177.5,251C 169.556,252.1 161.556,252.767 153.5,253C 152.251,250.79 152.418,248.624 154,246.5C 164.79,231.038 178.624,219.205 195.5,211C 187.811,210.353 180.144,210.52 172.5,211.5C 173.015,206.636 175.015,202.469 178.5,199C 190.114,190.609 202.28,183.109 215,176.5C 215.456,175.256 214.956,174.423 213.5,174C 207.436,173.805 201.436,173.139 195.5,172C 194.978,171.439 194.645,170.772 194.5,170C 198.119,165.378 202.119,161.045 206.5,157C 215.89,149.222 225.724,142.055 236,135.5C 236.688,134.668 236.521,134.002 235.5,133.5C 230.19,130.589 224.523,128.755 218.5,128C 217.446,126.612 217.28,125.112 218,123.5C 221.201,119.964 224.701,116.797 228.5,114C 238.89,107.146 249.224,100.313 259.5,93.5C 260.043,93.44 260.376,93.1067 260.5,92.5C 257.02,91.1944 253.687,91.1944 250.5,92.5C 242.23,94.0348 240.064,91.3682 244,84.5C 248.532,79.6329 253.366,75.1329 258.5,71C 268.833,66 279.167,61 289.5,56C 289.833,55.6667 290.167,55.3333 290.5,55C 285.59,54.8089 280.924,53.8089 276.5,52C 279.969,46.5995 284.635,42.5995 290.5,40C 321.606,25.1808 354.106,15.6808 388,11.5C 388.875,12.8732 389.375,14.3732 389.5,16C 351.191,77.4693 321.024,142.969 299,212.5C 292.844,228.8 286.177,244.8 279,260.5C 268.333,291.833 257.667,323.167 247,354.5C 241.666,375.838 236.333,397.172 231,418.5C 227.56,438.7 223.227,458.7 218,478.5C 209.369,521.621 202.035,564.955 196,608.5C 187.139,696.121 183.639,783.955 185.5,872C 184.36,923.157 183.86,974.324 184,1025.5C 187,1035.5 190,1045.5 193,1055.5C 195.916,1073.83 198.749,1092.16 201.5,1110.5C 200.717,1163.83 201.05,1217.17 202.5,1270.5C 200.282,1321.49 199.115,1372.49 199,1423.5C 202,1427.17 205,1430.83 208,1434.5C 211.533,1457.06 212.7,1479.73 211.5,1502.5C 205.612,1504.61 199.612,1506.44 193.5,1508C 180.066,1510.09 166.566,1511.59 153,1512.5C 133.8,1510.27 114.633,1507.77 95.5,1505C 90.5022,1503.87 87.6688,1500.71 87,1495.5C 85.028,1475.82 85.028,1456.16 87,1436.5C 89.54,1430.09 93.54,1424.76 99,1420.5C 99.3333,1417.5 99.6667,1414.5 100,1411.5C 99.2171,1351.34 98.3838,1291.17 97.5,1231C 97.7277,1178.52 97.8943,1126.02 98,1073.5C 98.7074,1059.96 101.707,1046.96 107,1034.5C 107.93,1031.64 109.597,1029.31 112,1027.5C 111.931,1010.51 111.764,993.507 111.5,976.5C 100.122,977.019 88.789,978.019 77.5,979.5C 74.5252,978.861 71.5252,978.361 68.5,978C 64.086,977.252 62.586,974.752 64,970.5C 70.9493,960.261 76.4493,949.594 80.5,938.5C 75.3878,940.222 70.7211,942.722 66.5,946C 63.144,947.031 61.144,945.864 60.5,942.5C 64.4827,931.036 69.1494,919.87 74.5,909C 70.3672,910.4 66.3672,912.4 62.5,915C 60.8659,915.494 59.1992,915.66 57.5,915.5C 58.3904,903.383 62.3904,892.383 69.5,882.5C 67.477,881.959 65.477,882.459 63.5,884C 60.854,884.497 58.1873,884.664 55.5,884.5C 55.3379,882.473 55.5045,880.473 56,878.5C 61.9206,868.327 67.5873,857.994 73,847.5C 73.4935,845.866 73.6602,844.199 73.5,842.5C 69.1825,843.962 65.1825,846.128 61.5,849C 60.2068,849.49 58.8734,849.657 57.5,849.5C 58.6869,837.79 62.6869,827.124 69.5,817.5C 69.3333,817.167 69.1667,816.833 69,816.5C 65.8333,819 62.6667,821.5 59.5,824C 57.7412,824.798 56.0745,824.631 54.5,823.5C 59.6356,809.058 66.9689,795.891 76.5,784C 69.8254,786.296 63.8254,789.963 58.5,795C 56.8659,795.494 55.1992,795.66 53.5,795.5C 53.8143,792.053 54.6476,788.72 56,785.5C 61.3874,775.222 66.8874,765.055 72.5,755C 67.5935,756.202 63.0935,758.369 59,761.5C 55.0696,760.308 53.7363,757.641 55,753.5C 59.84,741.124 65.34,729.124 71.5,717.5C 71.3333,717.167 71.1667,716.833 71,716.5C 67.5643,719.492 63.7309,720.492 59.5,719.5C 58.4471,718.562 57.7804,717.395 57.5,716C 63.4802,698.704 71.8136,682.704 82.5,668C 77.8903,669.134 73.5569,671.134 69.5,674C 67.5,674.667 65.5,674.667 63.5,674C 62.9781,673.439 62.6448,672.772 62.5,672C 68.8897,657.214 76.5564,643.214 85.5,630C 80.9452,630.765 76.6118,632.432 72.5,635C 69.8333,635.667 67.1667,635.667 64.5,635C 63.9781,634.439 63.6448,633.772 63.5,633C 68.0385,626.095 72.2052,618.929 76,611.5C 81.3375,604.996 87.1708,598.996 93.5,593.5 Z" id="path11722"/>
  </g>
  <g id="g11756" style="stroke:#000000">
    <path fill="#efefef" d="M 160.5,973.5 C 162.134,974.207 163.468,975.373 164.5,977C 168.241,977.502 171.908,977.502 175.5,977C 174.284,978.74 172.618,979.74 170.5,980C 167.118,980.176 163.785,980.676 160.5,981.5C 162.098,983.881 164.432,985.048 167.5,985C 163.789,985.175 160.122,985.675 156.5,986.5C 156.977,987.478 157.643,988.311 158.5,989C 164.26,989.277 169.927,989.444 175.5,989.5C 175.023,990.478 174.357,991.311 173.5,992C 169.558,992.993 165.558,993.66 161.5,994C 162.167,994.667 162.833,995.333 163.5,996C 167.486,996.499 171.486,996.666 175.5,996.5C 175.773,998.451 175.107,999.951 173.5,1001C 169.5,1001.33 165.5,1001.67 161.5,1002C 161.043,1002.41 160.709,1002.91 160.5,1003.5C 162.406,1005.24 164.74,1006.24 167.5,1006.5C 170.115,1005.73 172.781,1005.4 175.5,1005.5C 175.67,1006.82 175.337,1007.99 174.5,1009C 169.167,1009.33 163.833,1009.67 158.5,1010C 155.692,1012.21 156.025,1013.71 159.5,1014.5C 164.456,1013.61 169.456,1013.27 174.5,1013.5C 174.714,1015.14 174.38,1016.64 173.5,1018C 169.179,1018.5 164.846,1018.67 160.5,1018.5C 160.36,1020.12 161.027,1021.29 162.5,1022C 166.575,1022.52 170.575,1022.52 174.5,1022C 169.256,1025.07 163.59,1027.07 157.5,1028C 147.15,1028.45 136.817,1028.12 126.5,1027C 124.099,1026.21 121.932,1025.04 120,1023.5C 118.73,1018.48 118.563,1013.48 119.5,1008.5C 118.77,1000.2 118.104,991.862 117.5,983.5C 117.592,980.047 118.925,977.214 121.5,975C 133.183,975.075 144.85,975.575 156.5,976.5C 157.901,975.479 159.235,974.479 160.5,973.5 Z" id="path11754"/>
  </g>
  <g id="g11760" style="stroke:#000000">
    <path fill="#f1f1f1" d="M 171.5,1028.5 C 176.421,1028.85 176.254,1029.85 171,1031.5C 170.517,1032.45 170.351,1033.45 170.5,1034.5C 172.527,1034.34 174.527,1034.5 176.5,1035C 178.527,1036.4 178.86,1038.06 177.5,1040C 175.481,1040.45 173.648,1041.28 172,1042.5C 171.383,1043.45 171.549,1044.28 172.5,1045C 175.377,1045.72 178.043,1045.22 180.5,1043.5C 181.731,1044.65 181.731,1045.82 180.5,1047C 177.099,1046.73 175.433,1048.23 175.5,1051.5C 178.011,1051.84 180.345,1051.84 182.5,1051.5C 185.119,1053.58 185.119,1055.74 182.5,1058C 180.026,1058.11 178.026,1059.11 176.5,1061C 179.24,1064.09 182.24,1064.25 185.5,1061.5C 186.747,1063.01 186.747,1064.51 185.5,1066C 181.768,1066.25 179.435,1068.08 178.5,1071.5C 182.179,1071.28 185.846,1070.94 189.5,1070.5C 189.432,1075.56 186.766,1077.9 181.5,1077.5C 181.5,1078.83 181.5,1080.17 181.5,1081.5C 184.518,1081.3 187.518,1080.96 190.5,1080.5C 191.092,1083.13 191.425,1085.79 191.5,1088.5C 188.784,1088.68 186.117,1089.18 183.5,1090C 182.663,1091.01 182.33,1092.18 182.5,1093.5C 185.187,1093.34 187.854,1093.5 190.5,1094C 191.357,1094.69 192.023,1095.52 192.5,1096.5C 191.167,1098.5 191.167,1100.5 192.5,1102.5C 189.512,1104.55 186.179,1105.72 182.5,1106C 181.643,1106.69 180.977,1107.52 180.5,1108.5C 184.806,1109.42 189.139,1109.42 193.5,1108.5C 193.128,1111.62 193.128,1114.62 193.5,1117.5C 189.151,1119.92 184.484,1121.42 179.5,1122C 178.656,1125.01 179.989,1126.51 183.5,1126.5C 187.238,1125.93 190.405,1124.26 193,1121.5C 193.499,1125.15 193.665,1128.82 193.5,1132.5C 188.428,1133.11 183.428,1134.11 178.5,1135.5C 179.55,1137.87 181.383,1138.87 184,1138.5C 187.071,1138.22 189.905,1137.22 192.5,1135.5C 193.857,1139.58 193.691,1143.58 192,1147.5C 188.595,1148.58 185.095,1149.42 181.5,1150C 180.663,1151.01 180.33,1152.18 180.5,1153.5C 184.824,1153.07 189.158,1152.74 193.5,1152.5C 193.822,1154.72 193.155,1156.56 191.5,1158C 189.212,1158.82 186.878,1159.49 184.5,1160C 182.937,1162.48 183.604,1163.98 186.5,1164.5C 188.944,1163.78 191.278,1162.78 193.5,1161.5C 194.474,1163.74 194.808,1166.08 194.5,1168.5C 190.089,1169.69 185.756,1171.19 181.5,1173C 180.663,1174.01 180.33,1175.18 180.5,1176.5C 185.36,1176.32 190.026,1175.32 194.5,1173.5C 194.228,1179.71 194.562,1185.88 195.5,1192C 194.324,1199.61 193.824,1207.11 194,1214.5C 190.386,1216.15 186.553,1217.49 182.5,1218.5C 181.614,1219.32 181.281,1220.32 181.5,1221.5C 185.869,1221.53 190.202,1221.2 194.5,1220.5C 194.777,1223.45 194.444,1226.28 193.5,1229C 189.261,1230.41 184.928,1231.41 180.5,1232C 177.628,1234.53 177.961,1236.37 181.5,1237.5C 185.729,1235.92 190.062,1234.58 194.5,1233.5C 194.808,1235.92 194.474,1238.26 193.5,1240.5C 190.161,1241.67 186.828,1242.83 183.5,1244C 182.663,1245.01 182.33,1246.18 182.5,1247.5C 186.481,1246.98 190.481,1246.65 194.5,1246.5C 194.665,1249.52 194.498,1252.52 194,1255.5C 193.612,1254.57 192.945,1253.91 192,1253.5C 187.967,1255.27 183.8,1256.6 179.5,1257.5C 180.55,1259.87 182.383,1260.87 185,1260.5C 188.487,1260.26 191.487,1258.92 194,1256.5C 195.035,1268.82 195.368,1281.16 195,1293.5C 190.84,1295.84 186.34,1297 181.5,1297C 178.876,1297.58 178.209,1298.91 179.5,1301C 181.167,1301.17 182.833,1301.33 184.5,1301.5C 187.964,1301.24 191.297,1300.74 194.5,1300C 194.957,1300.41 195.291,1300.91 195.5,1301.5C 194.787,1303.78 194.287,1306.11 194,1308.5C 188.952,1309.47 184.118,1311.14 179.5,1313.5C 178.614,1314.32 178.281,1315.32 178.5,1316.5C 183.429,1316.75 188.095,1315.75 192.5,1313.5C 193.499,1327.15 193.833,1340.82 193.5,1354.5C 188.153,1355.07 182.82,1355.74 177.5,1356.5C 177.5,1357.83 177.5,1359.17 177.5,1360.5C 182.575,1360.35 187.575,1359.68 192.5,1358.5C 192.5,1361.83 192.5,1365.17 192.5,1368.5C 188.4,1368.52 184.4,1369.19 180.5,1370.5C 178.865,1369.95 177.199,1369.62 175.5,1369.5C 175.33,1370.82 175.663,1371.99 176.5,1373C 181.33,1375.88 186.33,1378.04 191.5,1379.5C 186.868,1380.33 182.202,1380.83 177.5,1381C 176.036,1384.24 177.202,1386.07 181,1386.5C 184.351,1384.95 187.851,1383.95 191.5,1383.5C 191.739,1385.47 191.406,1387.3 190.5,1389C 186.83,1389.19 183.33,1390.02 180,1391.5C 177.729,1389.88 175.896,1390.21 174.5,1392.5C 180.173,1393.69 185.84,1393.69 191.5,1392.5C 191.67,1397.81 191.003,1402.98 189.5,1408C 190.357,1408.69 191.023,1409.52 191.5,1410.5C 186.175,1413.25 180.509,1414.58 174.5,1414.5C 174.5,1415.83 174.5,1417.17 174.5,1418.5C 180.363,1420.33 185.696,1419.33 190.5,1415.5C 191.332,1417.94 190.665,1420.1 188.5,1422C 189.833,1423 189.833,1424 188.5,1425C 178.582,1427.95 168.415,1429.11 158,1428.5C 142.195,1429.06 126.695,1427.23 111.5,1423C 110.213,1421.59 109.046,1420.09 108,1418.5C 107.431,1369.34 106.265,1320.17 104.5,1271C 104.887,1237.97 105.553,1204.97 106.5,1172C 105.484,1171.48 104.818,1170.65 104.5,1169.5C 105.559,1144.41 105.559,1119.41 104.5,1094.5C 105.546,1083.41 106.379,1072.41 107,1061.5C 109.99,1055.53 111.99,1049.19 113,1042.5C 114.373,1039.59 115.873,1036.75 117.5,1034C 120.039,1032.95 122.705,1032.45 125.5,1032.5C 136.488,1033.52 147.488,1033.68 158.5,1033C 163.243,1032.36 167.576,1030.86 171.5,1028.5 Z" id="path11758"/>
  </g>
  <g id="g11764" style="stroke:#000000">
    <path fill="#111111" d="M 189.5,1185.5 C 190.5,1185.5 191.5,1185.5 192.5,1185.5C 192.64,1187.12 191.973,1188.29 190.5,1189C 186.687,1190.77 182.687,1191.61 178.5,1191.5C 178.281,1190.32 178.614,1189.32 179.5,1188.5C 183.02,1187.74 186.353,1186.74 189.5,1185.5 Z" id="path11762"/>
  </g>
  <g id="g11768" style="stroke:#000000">
    <path fill="#0f0f0f" d="M 188.5,1197.5 C 192.541,1197.5 193.208,1198.84 190.5,1201.5C 186.982,1204 183.649,1204 180.5,1201.5C 183.348,1200.34 186.015,1199.01 188.5,1197.5 Z" id="path11766"/>
  </g>
  <g id="g11772" style="stroke:#000000">
    <path fill="#0d0d0d" d="M 188.5,1266.5 C 189.833,1266.5 191.167,1266.5 192.5,1266.5C 192.5,1267.83 192.5,1269.17 192.5,1270.5C 188.387,1272.39 184.054,1273.39 179.5,1273.5C 179.33,1272.18 179.663,1271.01 180.5,1270C 183.401,1269.12 186.068,1267.96 188.5,1266.5 Z" id="path11770"/>
  </g>
  <g id="g11776" style="stroke:#000000">
    <path fill="#151515" d="M 189.5,1280.5 C 190.5,1280.5 191.5,1280.5 192.5,1280.5C 192.439,1282.59 191.439,1284.09 189.5,1285C 186.895,1286.02 184.228,1286.85 181.5,1287.5C 179.512,1286.71 179.179,1285.54 180.5,1284C 183.731,1283.14 186.731,1281.97 189.5,1280.5 Z" id="path11774"/>
  </g>
  <g id="g11780" style="stroke:#000000">
    <path fill="#171717" d="M 188.5,1325.5 C 189.833,1325.5 191.167,1325.5 192.5,1325.5C 192.5,1326.5 192.5,1327.5 192.5,1328.5C 187.231,1329.99 181.898,1330.82 176.5,1331C 175.167,1330 175.167,1329 176.5,1328C 180.637,1327.16 184.637,1326.33 188.5,1325.5 Z" id="path11778"/>
  </g>
  <g id="g11784" style="stroke:#000000">
    <path fill="#0c0c0c" d="M 188.5,1340.5 C 192.504,1342.4 192.17,1343.9 187.5,1345C 184.167,1345.67 180.833,1345.67 177.5,1345C 177.043,1344.59 176.709,1344.09 176.5,1343.5C 180.745,1342.94 184.745,1341.94 188.5,1340.5 Z" id="path11782"/>
  </g>
  <g id="g11788" style="stroke:#000000">
    <path fill="#c3c3c3" d="M 189.5,1371.5 C 193.135,1371.66 193.468,1372.82 190.5,1375C 188.098,1375.81 185.765,1375.65 183.5,1374.5C 185.745,1373.79 187.745,1372.79 189.5,1371.5 Z" id="path11786"/>
  </g>
  <g id="g11792" style="stroke:#000000">
    <path fill="#151515" d="M 181.5,1401.5 C 189.126,1401.41 189.459,1402.91 182.5,1406C 179.854,1406.5 177.187,1406.66 174.5,1406.5C 174.33,1405.18 174.663,1404.01 175.5,1403C 177.708,1402.81 179.708,1402.31 181.5,1401.5 Z" id="path11790"/>
  </g>
  <g id="g11796" style="stroke:#000000">
    <path fill="#efefef" d="M 198.5,1436.5 C 196.833,1437.17 195.167,1437.83 193.5,1438.5C 190.341,1440.08 187.007,1441.08 183.5,1441.5C 183.5,1442.5 183.5,1443.5 183.5,1444.5C 186.187,1444.66 188.854,1444.5 191.5,1444C 193.94,1442.7 196.44,1441.53 199,1440.5C 199.772,1440.64 200.439,1440.98 201,1441.5C 201.495,1443.47 201.662,1445.47 201.5,1447.5C 193.984,1447.31 186.984,1448.97 180.5,1452.5C 181,1453.88 182,1454.55 183.5,1454.5C 189.903,1453.03 196.237,1451.36 202.5,1449.5C 202.93,1452.86 201.93,1455.7 199.5,1458C 195.289,1459.71 190.956,1461.04 186.5,1462C 185.159,1463.83 185.659,1464.99 188,1465.5C 193.406,1464.95 198.573,1463.61 203.5,1461.5C 203.768,1464.12 203.435,1466.62 202.5,1469C 195.956,1470.14 189.622,1471.81 183.5,1474C 184.944,1475.06 186.611,1475.56 188.5,1475.5C 192.595,1474.91 196.595,1473.91 200.5,1472.5C 205.903,1475.86 205.57,1478.7 199.5,1481C 193.167,1481.33 186.833,1481.67 180.5,1482C 179.833,1482.67 179.167,1483.33 178.5,1484C 180.8,1485.11 183.3,1485.61 186,1485.5C 191.879,1485.12 197.713,1484.45 203.5,1483.5C 203.531,1487.6 201.531,1490.1 197.5,1491C 193.004,1491.85 188.67,1491.35 184.5,1489.5C 183.264,1490.25 181.93,1490.58 180.5,1490.5C 180.201,1492.6 180.534,1494.6 181.5,1496.5C 188.516,1494.74 195.516,1494.07 202.5,1494.5C 195.468,1497.51 188.135,1499.67 180.5,1501C 172.192,1501.9 163.858,1502.4 155.5,1502.5C 144.464,1501.65 133.464,1501.15 122.5,1501C 117.286,1499.36 111.953,1498.36 106.5,1498C 102.345,1496.42 98.3448,1494.59 94.5,1492.5C 93.3476,1475.21 93.1809,1457.88 94,1440.5C 95.1277,1437.79 96.6277,1435.29 98.5,1433C 101.726,1430.93 105.06,1429.1 108.5,1427.5C 118.351,1431.83 128.684,1433.66 139.5,1433C 156.311,1434.29 172.978,1433.45 189.5,1430.5C 193.562,1430.89 196.562,1432.89 198.5,1436.5 Z" id="path11794"/>
  </g>
  <g id="g11800" style="stroke:#000000">
    <path fill="#898989" d="M 198.5,1436.5 C 199.573,1437.25 199.74,1438.25 199,1439.5C 197.301,1438.59 195.467,1438.26 193.5,1438.5C 195.167,1437.83 196.833,1437.17 198.5,1436.5 Z" id="path11798"/>
  </g>
  <g id="handle">
    <path style="fill:#008000;stroke:#000000;stroke-width:3.5869" d="m 168.39471,1031.3903 c -16.07608,4.4072 -33.41184,-0.2548 -49.24755,4.3102 -9.81202,9.8403 -10.99887,25.7972 -11.84664,39.0658 -1.71659,108.9382 -2.45423,217.9858 1.45663,326.8859 1.47829,7.6862 -2.40954,21.3027 9.25789,21.9722 20.76961,4.8384 42.72749,4.5504 63.84311,2.5306 3.85356,0.4192 8.62126,-5.5563 2.87101,-6.519 -2.87093,0.4152 -14.32222,-0.9911 -7.6881,-4.9281 5.8739,-1.4538 13.86349,-2.5113 13.03056,-10.733 1.32311,-4.1989 2.71486,-13.8887 -4.7246,-9.8044 -2.48799,0.2984 -11.23763,0.012 -9.95236,-3.4555 3.74193,-1.717 12.93074,0.1789 13.30805,-4.9022 -3.25058,-0.079 -14.62401,1.1359 -10.72932,-4.9725 10.56121,0.4277 8.23786,-2.5497 0.0481,-6.8002 -5.42791,-2.1757 -1.35219,-5.858 2.64533,-5.1389 4.89061,1.3446 14.42357,-3.0932 9.59719,-8.6353 -3.93452,-1.83 -12.80885,3.1844 -13.37095,-2.4011 4.60601,-4.7968 18.64397,-0.6057 16.67854,-10.6997 -3.07164,-5.7378 -12.98706,0.7502 -16.72663,-3.0634 4.52499,-3.8219 11.39251,-1.8656 16.00517,-3.0153 2.17107,-4.4976 1.54473,-13.1374 -5.59774,-10.7515 -3.0807,-0.2165 -11.15484,1.855 -11.74305,-1.6686 5.35328,-3.5684 18.83833,-0.6961 16.09027,-10.9439 -2.08018,-5.1033 -13.10101,2.6125 -12.71978,-3.4519 3.50144,-4.8298 14.91587,-3.6579 14.45497,-10.5999 -3.6291,-4.0483 -13.19747,0.7616 -14.46607,-4.6209 5.17948,-4.0951 16.19213,-3.1191 14.72505,-12.7161 -1.23247,-6.8981 -10.32424,5.1929 -14.15159,0.529 1.12856,-7.3433 17.79673,-4.209 13.43754,-13.6743 -3.55025,-2.8712 -13.42393,3.1612 -13.94071,-1.7463 3.57882,-4.3728 10.01244,-4.5618 14.31439,-5.9936 3.08484,-8.2778 -7.78965,-5.3391 -12.17592,-5.7975 -3.7512,-2.2561 4.68835,-4.4452 6.33029,-4.9836 4.59398,-0.052 10.01409,-8.2154 2.31975,-7.4365 -2.93801,1.9344 -10.3723,0.7525 -5.87152,-3.1966 1.8595,-2.3006 13.13874,-3.8951 8.33186,-7.6918 -3.85816,-2.0851 -11.92248,3.6482 -13.41164,-0.888 1.45862,-7.1915 15.60266,-3.4863 14.50677,-11.3471 -2.86298,-3.6117 -11.40668,0.046 -12.4497,-3.8108 4.97777,-3.9524 14.83093,-5.2316 12.88258,-13.9296 1.23932,-4.3077 -1.53917,-8.1412 -4.92439,-4.0623 -2.06583,1.6107 -11.98279,1.4946 -6.32289,-2.0386 3.88375,-4.3241 12.03586,0.1569 12.66799,-7.381 2.2279,-7.3441 -6.59977,-2.7014 -9.64899,-1.4023 -3.58476,2.2232 -10.4362,-1.9788 -4.12893,-4.0253 5.48592,-1.0284 15.22151,-2.2528 11.96503,-10.3778 -2.61105,-4.2347 -14.36507,3.476 -12.19812,-3.6073 2.63677,-3.9852 13.93264,-3.6217 11.78005,-9.3234 -2.66959,-0.1564 -10.47107,0.5644 -7.63631,-4.4693 1.93659,-2.0358 9.68684,-3.8347 2.78222,-4.8245 -3.45567,0.973 -11.22765,-3.4075 -4.7283,-5.7013 5.69083,0.7706 12.19713,-6.9586 6.2526,-10.7701 -2.43302,-0.9804 -12.51454,0.6661 -9.20871,-3.4222 3.70547,-2.2452 16.24534,-1.4607 11.83554,-8.6316 -3.77248,-2.4555 -14.91868,3.422 -12.76048,-4.9799 6.32837,0.589 19.05595,-5.7316 10.10405,-11.7911 -2.90706,2.3268 -13.75734,-2.3576 -5.87152,-4.1252 6.94386,1.1344 11.03994,-7.8423 4.50261,-11.0586 -2.83886,-0.153 -8.88508,-2.8747 -3.24469,-4.8282 5.24555,0.2521 6.79928,-7.4561 0.83614,-7.4069 -4.26296,1.4892 -7.44096,-4.1737 -2.37524,-5.1649 4.96914,0.2804 6.37829,-7.3712 0.34038,-5.3573 -4.48862,2.739 -7.32278,-2.9443 -2.70453,-4.8245 2.42417,-0.5274 7.42224,-3.5888 2.00897,-3.4925 -3.36218,0.9941 -9.39833,-1.8296 -3.69606,-4.4139 5.88432,-1.2365 4.20382,-8.4162 -1.5724,-7.1146 -4.70038,0.2898 -0.37807,-6.9418 -5.94922,-7.2626 -3.2508,-4.2492 9.93585,-4.5634 4.32132,-8.935 -3.18475,-1.0982 -6.92246,-0.2528 -6.31919,-4.029 -0.44736,-0.1898 -0.95211,-0.1813 -1.42811,-0.1554 z m 14.33658,370.1946 c 5.83379,-1.3359 4.28816,4.2664 -0.22569,4.4952 -2.73901,1.9881 -10.23114,2.7528 -6.59297,-2.4382 1.78419,-1.7012 4.49473,-1.8902 6.81866,-2.057 z" id="path11808"/>
  </g>
  <g id="pommell">
    <path style="fill:#ff0000;stroke:#000000;stroke-width:3.5869" d="m 107.7038,1429.9288 c -13.391645,0.8053 -13.806856,16.7691 -13.359846,26.7567 0.04458,11.8819 -0.475882,23.9904 0.177589,35.7138 26.255717,11.1192 55.923517,9.1767 83.797567,7.9424 2.42702,0.4155 11.28812,-2.6048 4.94125,-3.2992 -5.55048,-1.2258 -2.05075,-9.3528 3.20029,-6.9223 4.14435,-0.071 14.56711,1.6109 14.69176,-4.4841 -6.93195,-2.6256 -16.09706,2.1915 -22.30217,-1.2653 5.94454,-6.4339 19.5376,-0.2446 24.10395,-8.2912 -4.09825,-5.0796 -14.48282,2.6132 -19.14997,-1.3874 5.32552,-4.7371 16.99881,-3.6567 19.47925,-10.8662 -4.62622,-2.4808 -14.39067,5.4665 -15.97557,-1.0285 2.78519,-4.2256 16.43087,-3.8271 12.91217,-10.7035 -5.91776,-1.4803 -14.37155,5.6732 -18.86879,0.7733 4.12041,-6.6385 16.97015,-2.4984 19.80853,-9.4677 -5.24319,-3.1396 -13.89645,4.2361 -18.36192,-0.4551 2.99699,-4.5963 12.7442,-2.4219 13.81121,-7.6696 -7.97,-8.1488 -20.16478,-0.5227 -29.92058,-1.9524 -19.5122,2.1556 -38.92152,0.069 -58.07088,-3.4159 z" id="path11810"/>
    <path style="fill:#ff0000;stroke:#000000;stroke-width:3.5869" d="m 159.02691,975.3241 c -12.696,2.6328 -26.59652,0.46547 -39.23969,2.11626 0.80629,15.12603 -2.31156,31.27324 1.82399,45.92514 10.33299,6.6639 24.11584,3.5192 35.8211,3.87 5.87308,-0.09 15.0259,-3.1516 4.50631,-5.2611 -6.4997,-3.6602 4.56741,-3.4705 6.78537,-4.3065 3.26816,0.2414 6.77036,-3.9614 1.5502,-3.3964 -3.63754,-1.0609 -14.02837,2.6185 -14.1072,-2.6971 5.33988,-4.4622 14.56124,-0.9306 19.14997,-3.7997 -4.1604,-1.6392 -12.43067,-1.0033 -15.10983,-4.1363 4.41612,-3.0385 11.99415,-2.3325 15.07654,-5.63846 -2.75873,-1.25197 -12.2739,0.23871 -12.13892,-3.85145 8.88426,-3.05201 13.37186,-5.22221 0.78434,-4.77639 -3.39733,0.54877 -11.26764,-2.34605 -4.22882,-4.36202 2.27992,-1.46793 -0.88809,-5.10736 3.48147,-4.22143 8.90577,0.73241 -1.29755,-5.87035 -4.15483,-5.46455 z" id="path11812"/>
  </g>
  <path style="fill:#ff0000;stroke:#000000;stroke-width:0.15852" d="m 171.22047,1022.3401 c -1.06407,0.091 -2.14233,-0.024 -3.1979,0.098 -0.58435,0.21 -0.19641,0.8203 -0.0556,1.2154 0.0948,0.4386 0.0102,1.1628 0.64406,1.1862 0.90928,-0.2248 1.73025,-0.7515 2.59292,-1.1168 0.44302,-0.2765 1.33557,-0.4404 1.15321,-1.1063 -0.18415,-0.4734 -0.75392,-0.2768 -1.13671,-0.2764 z" id="path11814"/>
  <path style="fill:#008000;stroke:#000000;stroke-width:0.15852" d="m 180.38657,1043.7662 c -0.78173,0.1897 -1.41372,0.7662 -2.19755,0.9778 -0.64172,0.296 -1.40877,0.3077 -2.00962,0.6637 -0.43721,0.4573 0.0339,1.1034 0.0907,1.6303 0.0141,0.6173 0.70895,0.7427 1.12607,0.3971 0.9454,-0.5101 2.04424,-0.4411 3.06542,-0.5304 0.49164,-0.2153 0.71982,-0.8225 0.88559,-1.3156 0.13003,-0.6616 -0.14118,-1.5117 -0.77355,-1.8089 -0.0611,-0.014 -0.12461,-0.019 -0.18705,-0.014 z" id="path11822"/>
  <path style="fill:#008000;stroke:#000000;stroke-width:0.15852" d="m 171.33117,1028.6268 c -0.48241,0.3577 -1.2278,0.4925 -1.5054,1.0406 -0.0975,0.6889 0.79861,0.7216 1.24673,0.9853 0.34322,0.066 0.37566,0.5836 0.79416,0.5029 0.9507,-0.2694 1.90707,-0.6404 2.7345,-1.1897 0.47711,-0.3493 0.12334,-1.027 -0.3952,-1.0603 -0.92958,-0.2063 -1.93091,-0.3944 -2.87479,-0.2788 z" id="path11824"/>
  <path style="fill:#000000;stroke:#000000;stroke-width:0.03963" d="m 190.06795,1080.5817 c -0.35041,0.045 -0.70437,0.081 -1.0491,0.158 -0.30054,0.1014 -0.43771,0.5085 -0.23717,0.7606 0.1444,0.1949 0.3899,0.2817 0.56189,0.4507 0.26176,0.1984 0.45631,0.472 0.7167,0.6694 0.26069,0.1723 0.65168,0.029 0.73718,-0.2714 0.0744,-0.2452 -0.0448,-0.498 -0.0719,-0.7433 -0.0635,-0.2511 -0.0718,-0.5229 -0.18307,-0.7583 -0.0835,-0.1722 -0.28533,-0.2781 -0.47448,-0.2657 z" id="path11826"/>
  <path style="fill:#000000;stroke:#000000;stroke-width:0.03963" d="m 190.76331,1087.0784 c -0.28736,0.1224 -0.33016,0.4587 -0.47193,0.7025 -0.1453,0.2581 -0.0275,0.6248 0.25777,0.7246 0.20776,0.069 0.45095,0.045 0.64996,-0.043 0.2282,-0.1135 0.30418,-0.3836 0.27125,-0.6211 -0.012,-0.2545 -0.002,-0.5619 -0.24581,-0.7161 -0.1388,-0.087 -0.30699,-0.1007 -0.46124,-0.047 z" id="path11828"/>
  <path style="fill:#000000;stroke:#000000;stroke-width:0.0099075" d="m 188.90863,1070.5715 c -0.02,0 -0.086,0.016 -0.0352,0.01 0.029,-0.01 0.0162,0 -0.006,0 -0.18173,0.01 -0.35692,0.1148 -0.43891,0.2787 -0.0882,0.1676 -0.0677,0.3798 0.0393,0.5342 0.0603,0.092 0.11347,0.1939 0.20867,0.2552 0.17166,0.1243 0.42246,0.1197 0.58935,-0.011 0.12902,-0.094 0.19832,-0.2523 0.20375,-0.4096 0.0127,-0.1207 0.0151,-0.2474 -0.0374,-0.3599 -0.0819,-0.1858 -0.28437,-0.3114 -0.48767,-0.2949 -0.0119,0 -0.0238,0 -0.0356,0 z" id="path11830"/>
  <path style="fill:#000000;stroke:#000000;stroke-width:0.07926" d="m 192.50978,1122.1323 c -0.41286,0.1847 -0.69539,0.5714 -1.05633,0.8371 -0.2889,0.2989 -0.75117,0.4649 -0.90241,0.8744 -0.12081,0.3648 0.22483,0.6736 0.56786,0.6977 0.55074,0.097 1.06842,0.3157 1.57303,0.5468 0.39945,0.1071 0.72727,-0.3169 0.61956,-0.6909 -0.0714,-0.6353 -0.10209,-1.281 -0.21034,-1.9087 -0.0453,-0.2693 -0.34528,-0.3986 -0.59137,-0.3564 z" id="path11832"/>
  <path style="fill:#000000;stroke:#000000;stroke-width:0.07926" d="m 192.86574,1108.6436 c -0.35471,0.085 -0.76513,0.057 -1.0647,0.2786 -0.27258,0.2518 -0.13916,0.6627 0.12418,0.8648 0.29677,0.2634 0.51251,0.7311 0.9612,0.7183 0.39584,-0.065 0.46032,-0.4883 0.47551,-0.8206 0.0524,-0.3408 0.12639,-0.8236 -0.26936,-0.9917 -0.0685,-0.037 -0.14982,-0.048 -0.22683,-0.049 z" id="path11834"/>
  <path style="fill:#000000;stroke:#000000;stroke-width:0.07926" d="m 192.14908,1135.8477 c -0.50896,0.1103 -0.91238,0.4822 -1.38826,0.681 -0.39301,0.1304 -0.52297,0.6958 -0.17569,0.9473 0.65444,0.4888 1.23399,1.0716 1.7313,1.7187 0.26641,0.3503 0.89306,0.1939 0.92873,-0.2554 -0.0268,-0.7252 -0.23603,-1.4336 -0.38116,-2.1425 -0.0933,-0.3704 -0.15785,-0.9318 -0.64804,-0.9508 h -0.0418 z" id="path11836"/>
  <path style="fill:#000000;stroke:#000000;stroke-width:0.07926" d="m 192.60928,1152.5629 c -1.0533,0.078 -2.11706,0.1146 -3.16602,0.212 -0.433,0.073 -0.51532,0.7172 -0.13405,0.9166 0.65431,0.2546 1.38759,0.3371 1.97745,0.749 0.48278,0.2997 0.78477,0.8202 0.89705,1.3666 0.12522,0.4253 0.76778,0.4354 0.9286,0.031 0.39126,-0.9027 0.48643,-1.913 0.41725,-2.8837 -0.0452,-0.3819 -0.48653,-0.4706 -0.80458,-0.3989 -0.0386,0 -0.0771,0 -0.1157,0.01 z" id="path11838"/>
  <path style="fill:#000000;stroke:#000000;stroke-width:0.0280226" d="m 193.1319,1161.7384 c -0.17088,0.058 -0.33634,0.1454 -0.47675,0.2582 -0.20752,0.1945 -0.19388,0.5605 0.0292,0.7375 0.18266,0.1496 0.43694,0.1333 0.65965,0.1283 0.28296,-0.026 0.50309,-0.3125 0.44897,-0.5927 -0.0443,-0.2128 -0.15126,-0.4421 -0.37336,-0.5147 -0.09,-0.036 -0.19376,-0.035 -0.28771,-0.017 z" id="path11840"/>
  <path style="fill:#000000;stroke:#000000;stroke-width:0.07926" d="m 193.89134,1173.7828 c -0.38255,0.099 -0.77968,0.2187 -1.10564,0.4464 -0.25727,0.3054 -0.0548,0.7455 0.29508,0.8684 0.33163,0.1529 0.60562,0.5643 1.00386,0.4193 0.42865,-0.1827 0.32515,-0.7139 0.37824,-1.094 0.0538,-0.3362 -0.21503,-0.6869 -0.57154,-0.6401 z" id="path11842"/>
  <path style="fill:#000000;stroke:#000000;stroke-width:0.07926" d="m 193.93345,1184.0455 c -0.37342,0.2383 -0.62799,0.6254 -0.98747,0.8875 -0.26682,0.1822 -0.49085,0.4589 -0.43108,0.8018 0.0175,0.4299 -0.0433,0.8565 -0.11916,1.2756 0.0125,0.3996 0.4472,0.562 0.79023,0.5229 0.39505,-0.028 0.79471,0.077 1.19115,0.064 0.39886,-0.056 0.53888,-0.5066 0.4517,-0.8524 -0.0708,-0.7827 -0.12825,-1.567 -0.20292,-2.3491 -0.0783,-0.2969 -0.40532,-0.4696 -0.69245,-0.3504 z" id="path11844"/>
  <path style="fill:#000000;stroke:#000000;stroke-width:0.07926" d="m 194.06106,1197.8136 c -0.35849,0.1533 -0.68244,0.3892 -1.04694,0.5388 -0.29494,0.1234 -0.71475,0.2673 -0.65938,0.6646 0.0569,0.4681 0.62991,0.5163 0.94749,0.7636 0.28011,0.1996 0.65454,0.5048 0.99637,0.2423 0.336,-0.2678 0.23196,-0.7545 0.30627,-1.1314 0.006,-0.3216 0.19377,-0.7154 -0.1082,-0.9591 -0.12695,-0.1077 -0.27139,-0.1465 -0.43561,-0.1188 z" id="path11846"/>
  <path style="fill:#000000;stroke:#000000;stroke-width:0.07926" d="m 194.0089,1220.6108 c -0.54526,0.072 -1.10894,0.097 -1.63548,0.2581 -0.40965,0.1941 -0.33399,0.82 0.0732,0.9695 0.49111,0.247 0.94281,0.5619 1.37158,0.9038 0.36973,0.2255 0.84192,-0.1346 0.76358,-0.5477 -0.0315,-0.4136 0.01,-0.8451 -0.0866,-1.2473 -0.0723,-0.1966 -0.27345,-0.3443 -0.48625,-0.3364 z" id="path11848"/>
  <path style="fill:#000000;stroke:#000000;stroke-width:0.07926" d="m 193.94072,1233.6676 c -0.52187,0.1155 -1.04618,0.2351 -1.55553,0.397 -0.37619,0.1717 -0.36381,0.7468 0.005,0.9168 0.53994,0.2353 0.97627,0.6422 1.39395,1.0423 0.32684,0.276 0.84049,-0.05 0.79292,-0.4593 0,-0.5328 0.0729,-1.0932 -0.10517,-1.6054 -0.096,-0.1957 -0.31369,-0.3184 -0.53124,-0.2914 z" id="path11850"/>
  <path style="fill:#000000;stroke:#000000;stroke-width:0.07926" d="m 193.46589,1257.1206 c -0.44954,0.1912 -0.80184,0.5597 -1.19597,0.8433 -0.31309,0.2395 -0.21557,0.7479 0.13178,0.9028 0.37192,0.1956 0.73275,0.4147 1.10205,0.6118 0.38062,0.1304 0.74819,-0.2563 0.6649,-0.6327 -0.0371,-0.465 -0.0381,-0.9374 -0.12606,-1.3959 -0.10045,-0.2347 -0.32355,-0.362 -0.5767,-0.3293 z" id="path11852"/>
  <path style="fill:#000000;stroke:#000000;stroke-width:0.07926" d="m 193.75751,1252.5201 c -0.43047,0.062 -0.62987,0.5145 -0.90379,0.8007 -0.22844,0.3043 -0.0221,0.6702 0.24118,0.8709 0.20171,0.2453 0.56418,0.4893 0.86286,0.256 0.33132,-0.2322 0.24714,-0.7019 0.32347,-1.0511 0.0679,-0.329 0.0104,-0.7739 -0.37713,-0.8632 -0.0489,0 -0.0977,-0.01 -0.14659,-0.013 z" id="path11854"/>
  <path style="fill:#000000;stroke:#000000;stroke-width:0.07926" d="m 194.13481,1266.5698 c -0.46914,0.1104 -0.94591,0.2402 -1.38438,0.4353 -0.38145,0.2368 -0.20112,0.7509 -0.24302,1.1241 -0.0115,0.7916 0.0231,1.6111 -0.0172,2.3854 -0.41457,0.1708 -0.3932,0.8131 0.0224,0.969 0.50701,0.2694 1.06082,0.5159 1.45122,0.9436 0.18668,0.3706 0.81017,0.3421 0.91724,-0.076 0.0928,-0.3684 -0.008,-0.7671 0.006,-1.1462 -0.0657,-1.4167 -0.0994,-2.8369 -0.20565,-4.2507 -0.0759,-0.2337 -0.29331,-0.4111 -0.54668,-0.3842 z" id="path11856"/>
  <path style="fill:#000000;stroke:#000000;stroke-width:0.07926" d="m 194.41906,1278.4033 c -0.36772,0.2161 -0.52694,0.6493 -0.84591,0.9265 -0.27371,0.3321 -0.65872,0.5713 -0.94801,0.9044 -0.1934,0.3364 -0.0923,0.7488 -0.20161,1.1131 -0.0394,0.4326 -0.28536,0.8422 -0.22458,1.2792 0.16502,0.4214 0.68578,0.3953 1.00443,0.6448 0.44067,0.2519 0.76934,0.6471 1.07619,1.0379 0.2894,0.3209 0.85699,0.054 0.84087,-0.3657 0.041,-1.6915 -0.0237,-3.3842 -0.0324,-5.0761 -0.0253,-0.3397 -0.34033,-0.5597 -0.669,-0.4641 z" id="path11858"/>
  <path style="fill:#000000;stroke:#000000;stroke-width:0.07926" d="m 194.36453,1291.7232 c -0.37122,0.1813 -0.47499,0.625 -0.73792,0.9205 -0.19803,0.32 -0.52396,0.5782 -0.6644,0.9479 -0.11833,0.4183 0.38513,0.7896 0.75426,0.5673 0.39992,-0.2138 0.84381,-0.3709 1.18609,-0.6723 0.1781,-0.3974 0.0672,-0.8523 0.1138,-1.2755 -0.013,-0.3405 -0.31996,-0.5716 -0.65183,-0.4879 z" id="path11860"/>
  <path style="fill:#000000;stroke:#000000;stroke-width:0.224181" d="m 194.14668,1300.1483 c -0.60443,0.1497 -1.56903,0.035 -1.79393,0.7642 0.0317,0.8057 1.09729,0.8704 1.50581,1.4466 0.30688,0.5386 1.23317,0.75 1.39273,-0.01 0.21892,-0.7926 -0.0317,-2.2464 -1.10461,-2.2022 z" id="path11862"/>
  <path style="fill:#000000;stroke:#000000;stroke-width:0.0140113" d="m 192.82634,1328.4305 c -0.13631,0.011 -0.2695,0.051 -0.39686,0.1 -0.20514,0.089 -0.33197,0.3253 -0.28844,0.5455 0.0252,0.1586 0.13626,0.2895 0.27189,0.3693 0.12682,0.083 0.25709,0.1848 0.41681,0.1822 0.22781,0.011 0.44706,-0.1569 0.49758,-0.3792 0.0244,-0.1208 0.0196,-0.2465 0.0135,-0.3692 -0.0216,-0.2178 -0.19899,-0.4083 -0.41616,-0.4406 -0.0321,-0.01 -0.0657,0 -0.0983,-0.01 z" id="path11864"/>
  <path style="fill:#000000;stroke:#000000;stroke-width:0.0140113" d="m 192.53202,1323.5624 c -0.14681,0.031 -0.26678,0.1339 -0.34363,0.2599 -0.21005,0.2998 -0.45341,0.5747 -0.71249,0.8328 -0.15418,0.1576 -0.18215,0.4184 -0.0647,0.605 0.0959,0.1608 0.28526,0.2523 0.47066,0.2397 0.28133,0 0.56299,0 0.84413,0 0.23021,-0.015 0.43024,-0.2114 0.45169,-0.4409 0.007,-0.1547 -0.0126,-0.3099 -0.0159,-0.4648 -0.0117,-0.2079 -0.0151,-0.4136 -0.0297,-0.6215 -0.0331,-0.2179 -0.22464,-0.3972 -0.44434,-0.4157 -0.0523,0 -0.10413,0 -0.15572,0.01 z" id="path11866"/>
  <path style="fill:#000000;stroke:#000000;stroke-width:0.0140113" d="m 191.98,1313.7914 c -0.16171,0.029 -0.30171,0.1222 -0.45167,0.1845 -0.1968,0.094 -0.39917,0.1769 -0.59459,0.2738 -0.195,0.1057 -0.30522,0.3436 -0.25449,0.5602 0.0351,0.1707 0.16538,0.3068 0.32098,0.3776 0.29158,0.1563 0.55757,0.356 0.80518,0.5744 0.16231,0.1349 0.40911,0.1535 0.58706,0.038 0.16557,-0.1013 0.25463,-0.3021 0.23193,-0.4933 -0.0237,-0.3626 -0.046,-0.7255 -0.0781,-1.0875 -0.0286,-0.2257 -0.22653,-0.417 -0.45478,-0.43 -0.0372,-0.01 -0.0743,0 -0.1115,0 z" id="path11868"/>
  <path style="fill:#000000;stroke:#000000;stroke-width:0.07926" d="m 192.9609,1342.3927 c -0.46693,0.1485 -0.98265,0.1292 -1.4323,0.3182 -0.42049,0.2289 -0.40381,0.9632 0.08,1.1196 0.45615,0.1715 0.87617,0.4262 1.30625,0.6446 0.37646,0.1124 0.70783,-0.2529 0.66647,-0.6185 -0.0126,-0.4115 0.0855,-0.8576 -0.0731,-1.2418 -0.11647,-0.1856 -0.33549,-0.2634 -0.54734,-0.2221 z" id="path11870"/>
  <path style="fill:#000000;stroke:#000000;stroke-width:0.0280226" d="m 191.8347,1366.5084 c -0.24047,0.087 -0.36092,0.3307 -0.5399,0.4964 -0.2286,0.2482 -0.48749,0.4664 -0.72528,0.7044 -0.20795,0.2193 -0.13863,0.6193 0.13063,0.7564 0.20488,0.1194 0.45033,0.043 0.67423,0.052 0.25915,-0.019 0.52399,0.01 0.77903,-0.044 0.23152,-0.069 0.37276,-0.3136 0.34947,-0.5491 -0.006,-0.3399 0.0134,-0.6815 -0.0179,-1.0204 -0.0421,-0.2781 -0.34343,-0.4812 -0.61587,-0.4018 -0.0115,0 -0.0229,0 -0.0344,0.01 z" id="path11872"/>
  <path style="fill:#000000;stroke:#000000;stroke-width:0.0280226" d="m 191.95087,1358.644 c -0.24177,0.034 -0.53143,0.083 -0.65319,0.3244 -0.12153,0.2081 -0.0537,0.4756 0.10935,0.641 0.14319,0.1721 0.27294,0.3952 0.516,0.4277 0.26952,0.041 0.54558,-0.1677 0.56706,-0.4415 0.004,-0.2043 0.0351,-0.416 -0.0194,-0.6162 -0.077,-0.2132 -0.29321,-0.3549 -0.51987,-0.3354 z" id="path11874"/>
  <path style="fill:#000000;stroke:#000000;stroke-width:0.112091" d="m 190.89725,1383.597 c -0.43998,-0.04 -0.77492,0.3418 -0.75451,0.7682 -0.16858,1.2569 -0.0889,2.6353 -0.84841,3.7258 -0.33089,0.3389 -0.13161,0.9847 0.37795,0.9449 0.46426,0.063 0.954,-0.1647 1.09238,-0.6344 0.50989,-1.1267 0.78236,-2.3552 0.75428,-3.5939 0.006,-0.4194 0.15407,-1.1078 -0.42021,-1.1969 -0.0645,-0.027 -0.13424,-0.01 -0.20148,-0.014 z" id="path11876"/>
  <path style="fill:#000000;stroke:#000000;stroke-width:0.112091" d="m 186.65512,1378.0091 c -0.41732,0.067 -0.51867,0.5482 -0.35495,0.881 0.14446,0.3806 -0.0877,0.8376 0.20916,1.1577 0.37511,0.3171 0.87536,0.014 1.30198,0.018 0.52281,-0.1288 1.14716,-0.027 1.59308,-0.3698 0.32928,-0.3361 0.0369,-0.8691 -0.3805,-0.9421 -0.75622,-0.2378 -1.49404,-0.5534 -2.25986,-0.7504 h -0.0591 z" id="path11878"/>
  <path style="fill:#000000;stroke:#000000;stroke-width:0.112091" d="m 189.45538,1371.5611 c -1.48776,1.0311 -3.09606,1.8916 -4.77313,2.5632 -0.46609,0.2343 -0.22765,0.9432 0.26242,0.9581 1.05024,0.3288 2.15355,0.4632 3.25094,0.362 1.08506,-0.074 2.25528,-0.2647 3.06201,-1.0639 0.49928,-0.481 1.18944,-0.9899 1.20474,-1.7481 -0.10492,-0.6757 -0.90133,-0.8215 -1.45932,-0.9478 -0.50754,-0.071 -1.03935,-0.2213 -1.54766,-0.1235 z" id="path11880"/>
  <path style="fill:#000000;stroke:#000000;stroke-width:0.112091" d="m 190.1344,1415.9618 c -0.58066,0.1274 -0.9829,0.6202 -1.49528,0.8755 -0.66558,0.4395 -1.40474,0.7651 -2.08048,1.1745 -0.37801,0.2929 -0.085,0.8242 0.30139,0.9473 0.78886,0.4282 1.40986,1.1336 1.73099,1.9727 0.2306,0.4259 0.81479,0.2909 1.00186,-0.1025 0.74532,-0.9707 1.28838,-2.1718 1.19337,-3.4202 -0.0455,-0.4619 0.12155,-1.1211 -0.36639,-1.3957 -0.0887,-0.042 -0.18794,-0.057 -0.28546,-0.052 z" id="path11882"/>
  <path style="fill:#000000;stroke:#000000;stroke-width:0.0280226" d="m 188.85275,1422.7645 c -0.20511,0.041 -0.35234,0.2146 -0.40591,0.4107 -0.13096,0.3728 -0.32899,0.7156 -0.52415,1.057 -0.12024,0.2553 0.0168,0.5942 0.28931,0.6795 0.21657,0.088 0.45581,-0.018 0.60621,-0.1808 0.32296,-0.3068 0.63995,-0.6854 0.6685,-1.15 0.0155,-0.2704 -0.0299,-0.5941 -0.27546,-0.7533 -0.11019,-0.062 -0.23369,-0.084 -0.3585,-0.063 z" id="path11884"/>
  <path style="fill:#000000;stroke:#000000;stroke-width:0.0280226" d="m 190.54583,1409.525 c -0.19027,0.039 -0.31358,0.1975 -0.40253,0.3585 -0.1227,0.2146 -0.33733,0.4133 -0.30529,0.6815 0.0261,0.2784 0.31314,0.49 0.58706,0.4345 0.22117,-0.06 0.42364,-0.1769 0.62517,-0.2838 0.24566,-0.1373 0.32628,-0.4809 0.17443,-0.7162 -0.10889,-0.1925 -0.22236,-0.4271 -0.46239,-0.4709 -0.0728,-0.019 -0.1427,-0.013 -0.21645,0 z" id="path11886"/>
  <path style="fill:#000000;stroke:#000000;stroke-width:0.31704" d="m 196.63599,1494.4909 c -3.50624,0.112 -7.05453,0.375 -10.47757,1.0783 -0.81886,0.7157 0.79742,1.3576 0.59842,2.2436 -0.0635,0.6537 0.0512,1.8615 1.00328,1.5876 4.21925,-1.0712 8.37316,-2.4286 12.42105,-4.0314 0.96391,-0.995 -0.86404,-1.1081 -1.53555,-0.9301 -0.66988,0.017 -1.33975,0.035 -2.00963,0.052 z" id="path11888"/>
  <path style="fill:#000000;stroke:#000000;stroke-width:0.07926" d="m 202.89483,1483.6161 c -0.34698,0.024 -0.81588,0.097 -0.87853,0.5172 -0.057,0.3889 0.31638,0.6011 0.63596,0.6852 0.3634,0.1928 0.85131,-0.098 0.8173,-0.5169 0.0427,-0.3549 -0.19096,-0.7044 -0.57473,-0.6855 z" id="path11890"/>
  <path style="fill:#000000;stroke:#000000;stroke-width:0.0099075" d="m 202.12203,1467.9998 c -0.13305,0.01 -0.25612,0.071 -0.35172,0.1618 -0.14511,0.1122 -0.22547,0.304 -0.19227,0.4858 0.0325,0.2115 0.21527,0.3885 0.42816,0.4123 0.1187,0.015 0.24243,-0.01 0.34954,-0.061 0.18632,-0.095 0.299,-0.3053 0.29597,-0.5114 -0.003,-0.2034 -0.14337,-0.3953 -0.33653,-0.4596 -0.0615,-0.022 -0.128,-0.03 -0.19315,-0.028 z" id="path11892"/>
  <path style="fill:#000000;stroke:#000000;stroke-width:0.0280226" d="m 201.93346,1449.6725 c -0.34605,0.1057 -0.69849,0.194 -1.03994,0.3129 -0.27176,0.1052 -0.39181,0.4707 -0.231,0.7152 0.0889,0.1635 0.27214,0.2369 0.44465,0.2769 0.18032,0.3532 0.35259,0.7064 0.52555,1.0595 0.14276,0.2663 0.5443,0.3264 0.7591,0.1139 0.20362,-0.1734 0.17501,-0.4636 0.18732,-0.7055 0,-0.4485 0.0196,-0.8993 -0.0252,-1.346 -0.0263,-0.2832 -0.3237,-0.497 -0.60036,-0.4295 h -0.0147 z" id="path11894"/>
  <path style="fill:#000000;stroke:#000000;stroke-width:0.0280226" d="m 200.94832,1446.218 c -0.23717,0.051 -0.38407,0.263 -0.55812,0.4132 -0.20605,0.196 -0.18972,0.5619 0.0346,0.7373 0.17831,0.1533 0.42792,0.1161 0.64482,0.1107 0.26314,-0.014 0.46616,-0.2634 0.45903,-0.5213 0.0196,-0.1977 0.0333,-0.422 -0.11458,-0.5778 -0.11428,-0.1319 -0.29465,-0.1896 -0.4658,-0.1621 z" id="path11896"/>
  <path style="fill:#000000;stroke:#000000;stroke-width:0.15852" d="m 198.3175,1436.6444 c -0.82219,0.086 -1.44208,0.8504 -1.66843,1.589 0.18814,0.6607 1.0271,0.5528 1.52287,0.8678 0.40934,0.2826 1.10689,0.1993 1.16961,-0.3815 0.20606,-0.7586 -0.0498,-2.0544 -1.02405,-2.0753 z" id="path11898"/>
  <g id="blade">
    <g id="g11728" style="stroke:#000000">
      <path fill="#f0f0f0" d="M 374.5,17.5 C 375.873,17.3433 377.207,17.51 378.5,18C 374.142,26.5477 369.642,35.0477 365,43.5C 361.099,45.9872 359.099,49.6539 359,54.5C 350.049,68.4028 342.715,83.0695 337,98.5C 333.019,104.448 330.019,110.781 328,117.5C 325.906,122.024 323.573,126.358 321,130.5C 318.397,142.03 313.897,152.697 307.5,162.5C 308.565,164.853 308.398,167.186 307,169.5C 302.605,177.023 299.605,185.023 298,193.5C 290.947,208.327 285.28,223.661 281,239.5C 279.194,244.446 276.861,249.112 274,253.5C 267.126,270.592 260.792,287.926 255,305.5C 252.332,307.495 250.665,310.162 250,313.5C 244.174,334.457 238.174,355.457 232,376.5C 228.158,396.201 224.158,415.867 220,435.5C 214.748,446.252 211.748,457.585 211,469.5C 209.629,472.66 208.629,475.994 208,479.5C 206.373,496.305 203.707,512.972 200,529.5C 199.333,530.833 198.667,532.167 198,533.5C 189.97,596.503 183.803,659.836 179.5,723.5C 180.547,734.486 180.714,745.486 180,756.5C 179.308,757.025 178.808,757.692 178.5,758.5C 179.102,760.608 179.435,762.775 179.5,765C 177.819,776.055 176.819,787.221 176.5,798.5C 176.719,822.154 176.886,845.821 177,869.5C 178.187,876.269 179.02,883.102 179.5,890C 176.994,914.028 176.327,937.862 177.5,961.5C 162.621,964.568 147.621,966.402 132.5,967C 131.391,966.362 130.225,965.862 129,965.5C 110.974,968.492 92.8071,969.825 74.5,969.5C 74.3433,968.127 74.51,966.793 75,965.5C 79.7019,956.371 84.2019,947.204 88.5,938C 88,934.833 86.1667,933 83,932.5C 78.5478,933.528 74.2144,934.862 70,936.5C 73.3325,924.684 78.4992,913.684 85.5,903.5C 84.3184,901.077 82.3184,900.077 79.5,900.5C 74.7845,901.183 70.4512,902.849 66.5,905.5C 69.2499,893.365 75.2499,882.698 84.5,873.5C 84.2907,872.914 83.9574,872.414 83.5,872C 81.8333,871.833 80.1667,871.667 78.5,871.5C 73.9238,872.143 69.5905,873.31 65.5,875C 71.9001,863.7 77.9001,852.2 83.5,840.5C 83.4712,838.971 82.8045,837.804 81.5,837C 76.3782,836.692 71.3782,836.525 66.5,836.5C 68.4125,832.34 70.5791,828.34 73,824.5C 77.1104,820.232 80.6104,815.566 83.5,810.5C 83.3918,809.558 83.0585,808.725 82.5,808C 80.7216,807.296 78.8882,806.796 77,806.5C 74.4579,807.683 71.7912,808.683 69,809.5C 68.5,809.167 68,808.833 67.5,808.5C 72.8273,798.342 79.494,789.176 87.5,781C 86.7383,778.966 85.4049,777.466 83.5,776.5C 77.1988,776.217 71.3655,777.884 66,781.5C 68.4317,775.244 71.0983,768.911 74,762.5C 77.1446,759.266 80.4779,756.266 84,753.5C 85.5053,751.702 85.6719,749.868 84.5,748C 82.4874,746.743 80.3207,745.909 78,745.5C 74.0133,746.829 70.0133,748.162 66,749.5C 65.5,749.167 65,748.833 64.5,748.5C 68.584,740.259 72.4173,731.926 76,723.5C 80.1667,718.667 84.3333,713.833 88.5,709C 85.7587,708.023 82.9254,707.523 80,707.5C 75.3864,708.061 70.8864,709.061 66.5,710.5C 71.8457,695.609 79.3457,681.942 89,669.5C 90.1545,668.257 91.4878,667.257 93,666.5C 92.7446,663.918 92.578,661.252 92.5,658.5C 86.4394,659.452 80.606,661.118 75,663.5C 76.8605,657.293 79.5272,651.293 83,645.5C 88.1109,637.39 93.6109,629.557 99.5,622C 97.1526,621.564 94.8193,621.064 92.5,620.5C 86.8148,621.633 81.4815,623.633 76.5,626.5C 80.747,614.46 88.247,604.46 99,596.5C 102.254,593.126 103.088,589.293 101.5,585C 100.333,584.833 99.1667,584.667 98,584.5C 93.0614,585.536 88.2281,586.87 83.5,588.5C 87.86,576.966 95.36,567.966 106,561.5C 106.863,559.251 106.363,557.418 104.5,556C 99.3934,555.247 94.7268,556.414 90.5,559.5C 89.4173,558.635 89.2506,557.635 90,556.5C 94.6296,547.2 100.796,539.033 108.5,532C 114.323,530.101 115.323,527.101 111.5,523C 104.61,521.21 97.9435,522.044 91.5,525.5C 91.1667,525.167 90.8333,524.833 90.5,524.5C 96.5638,512.276 105.23,502.442 116.5,495C 115.287,493.37 114.454,491.536 114,489.5C 106.873,488.542 100.54,490.542 95,495.5C 94.8333,495.167 94.6667,494.833 94.5,494.5C 96.7059,489.459 99.5392,484.792 103,480.5C 108.873,474.627 114.706,468.794 120.5,463C 119.458,460.463 118.125,458.129 116.5,456C 111.996,455.66 107.663,455.493 103.5,455.5C 108.737,447.745 114.237,440.078 120,432.5C 124.106,428.873 128.273,425.373 132.5,422C 132.18,420.347 131.18,419.347 129.5,419C 124.141,418.641 118.807,418.641 113.5,419C 120.141,409.028 128.141,400.361 137.5,393C 142.302,387.111 140.802,384.278 133,384.5C 127.738,385.567 122.571,386.734 117.5,388C 123.833,381 130.167,374 136.5,367C 143.119,363.78 149.286,359.947 155,355.5C 155.456,354.256 154.956,353.423 153.5,353C 145.372,352.23 137.372,352.564 129.5,354C 134.083,350.088 137.917,345.588 141,340.5C 146.738,334.092 153.071,328.425 160,323.5C 161.128,321.655 161.628,319.655 161.5,317.5C 155.04,317.234 148.706,316.234 142.5,314.5C 146.278,309.22 150.611,304.386 155.5,300C 162.167,295.667 168.833,291.333 175.5,287C 173.223,285.041 170.723,283.541 168,282.5C 162.48,283.366 156.98,283.866 151.5,284C 158.202,276.129 165.202,268.462 172.5,261C 177.909,257.299 182.909,253.133 187.5,248.5C 181.219,243.717 174.385,242.717 167,245.5C 165.833,245.167 164.667,244.833 163.5,244.5C 175.242,231.244 189.075,220.91 205,213.5C 206.271,209.834 205.104,207.334 201.5,206C 195.748,205.692 190.081,204.859 184.5,203.5C 188.635,200.865 192.301,197.698 195.5,194C 200.666,191.252 205.666,188.252 210.5,185C 216.444,182.688 222.277,180.188 228,177.5C 228.72,175.888 228.554,174.388 227.5,173C 223.223,171.91 219.223,170.243 215.5,168C 212.854,167.503 210.187,167.336 207.5,167.5C 207.33,166.178 207.663,165.011 208.5,164C 213.454,160.715 218.12,157.048 222.5,153C 230.901,146.275 240.067,140.775 250,136.5C 250.492,135.451 250.326,134.451 249.5,133.5C 242.375,130.438 235.375,127.104 228.5,123.5C 243.172,113.004 258.005,102.671 273,92.5C 273.667,91.8333 273.667,91.1667 273,90.5C 267.407,86.9778 261.241,85.3112 254.5,85.5C 254.946,82.5417 256.446,80.2084 259,78.5C 268.052,74.3909 276.885,69.8909 285.5,65C 292.483,62.1196 299.483,59.4529 306.5,57C 307.876,54.4598 307.21,52.4598 304.5,51C 300.467,50.3051 296.467,49.4717 292.5,48.5C 293.748,46.5414 295.415,45.0414 297.5,44C 312.983,36.285 328.983,29.9517 345.5,25C 353.089,23.1857 360.755,21.8524 368.5,21C 370.432,19.5415 372.432,18.3748 374.5,17.5 Z" id="path11726"/>
    </g>
    <g id="g11732" style="stroke:#000000">
      <path fill="#222222" d="M 346.5,58.5 C 346.312,56.8967 346.812,55.5634 348,54.5C 348.348,56.1398 347.848,57.4732 346.5,58.5 Z" id="path11730"/>
    </g>
    <g id="g11736" style="stroke:#000000">
      <path fill="#151515" d="M 346.5,58.5 C 340.793,73.0929 333.793,86.5929 325.5,99C 331.322,84.8542 338.322,71.3542 346.5,58.5 Z" id="path11734"/>
    </g>
    <g id="g11740" style="stroke:#000000">
      <path style="opacity:0.035" fill="#8b8b8b" d="M 250.5,92.5 C 253.687,91.1944 257.02,91.1944 260.5,92.5C 260.376,93.1067 260.043,93.44 259.5,93.5C 256.713,92.5233 253.713,92.19 250.5,92.5 Z" id="path11738"/>
    </g>
    <g id="g11744" style="stroke:#000000">
      <path fill="#151515" d="M 191.5,492.5 C 191.5,491.833 191.167,491.5 190.5,491.5C 191.768,489.33 191.768,487.163 190.5,485C 192.37,480.712 193.87,476.212 195,471.5C 199.344,450.154 203.677,428.82 208,407.5C 209.217,402.941 210.884,398.608 213,394.5C 217.518,368.905 224.184,343.905 233,319.5C 232.684,313.163 234.351,307.496 238,302.5C 239.607,294.286 242.607,286.619 247,279.5C 247.333,277.833 247.667,276.167 248,274.5C 261.545,243.038 275.545,211.371 290,179.5C 298.843,154.957 308.843,130.957 320,107.5C 321.685,105.983 323.185,104.316 324.5,102.5C 324.833,102.833 325.167,103.167 325.5,103.5C 314.534,121.418 306.367,140.418 301,160.5C 292.376,175.712 285.709,191.712 281,208.5C 275.846,218.636 271.012,228.469 266.5,238C 262.458,250.912 256.958,263.078 250,274.5C 245.467,289.1 240.8,303.767 236,318.5C 234.92,320.996 233.586,323.33 232,325.5C 228.592,345.659 223.592,365.326 217,384.5C 208.987,420.686 200.487,456.686 191.5,492.5 Z" id="path11742"/>
    </g>
    <g id="g11748" style="stroke:#000000">
      <path fill="#0f0f0f" d="M 190.5,491.5 C 191.167,491.5 191.5,491.833 191.5,492.5C 191.152,496.557 190.486,500.557 189.5,504.5C 185.901,504.262 185.567,505.262 188.5,507.5C 187.603,507.669 186.603,508.002 185.5,508.5C 186.325,509.386 187.325,509.719 188.5,509.5C 188.719,510.675 188.386,511.675 187.5,512.5C 186.575,511.359 185.741,511.359 185,512.5C 182.853,533.528 180.52,554.528 178,575.5C 176.184,583.77 174.517,592.103 173,600.5C 171.567,620.565 169.567,640.565 167,660.5C 166.188,682.865 164.855,705.198 163,727.5C 162.795,761.343 162.295,795.176 161.5,829C 162.795,868.495 163.628,907.995 164,947.5C 164.14,952.494 161.973,954.161 157.5,952.5C 159.57,943.03 160.903,933.196 161.5,923C 159.547,907.527 159.213,892.027 160.5,876.5C 160.197,871.101 159.53,865.768 158.5,860.5C 159.827,855.261 159.494,850.095 157.5,845C 159.958,836.862 160.958,828.529 160.5,820C 159.44,802.974 159.44,785.974 160.5,769C 157.173,749.283 156.673,729.45 159,709.5C 161.226,685.454 163.893,661.454 167,637.5C 167.22,623.078 168.387,608.745 170.5,594.5C 170.221,592.657 169.887,590.823 169.5,589C 174.255,558.34 179.755,527.84 186,497.5C 186.804,494.854 188.304,492.854 190.5,491.5 Z" id="path11746"/>
    </g>
    <g id="g11752" style="stroke:#000000">
      <path style="opacity:0.067" fill="#828282" d="M 92.5,591.5 C 93.3864,590.224 94.3864,590.224 95.5,591.5C 95.1445,592.522 94.4778,593.189 93.5,593.5C 93.6716,592.508 93.3382,591.842 92.5,591.5 Z" id="path11750"/>
    </g>
    <path style="fill:#ff0000;stroke:#000000;stroke-width:0.15852" d="m 173.25271,989.5852 c -0.32849,0.46028 -0.23121,1.09791 -0.55233,1.58373 -0.34668,0.52188 0.33801,1.20967 0.82637,0.76277 0.62157,-0.56675 1.33253,-1.15345 1.61612,-1.96308 -0.15513,-0.74058 -1.05104,-0.41379 -1.58914,-0.48414 -0.10034,0.0336 -0.20068,0.0671 -0.30102,0.10072 z" id="path11816"/>
    <path style="fill:#ff0000;stroke:#000000;stroke-width:0.15852" d="m 162.01023,983.80306 c -0.19604,0.42959 -0.53948,0.9263 -0.35824,1.41255 0.4665,0.50189 1.1976,0.0579 1.77049,0.0738 0.62644,0.0377 0.77625,-0.86035 0.17994,-1.0359 -0.5019,-0.18058 -1.0562,-0.84312 -1.59219,-0.45049 z" id="path11818"/>
    <path style="fill:#ff0000;stroke:#000000;stroke-width:0.15852" d="m 173.89252,977.21893 c -2.05143,0.20161 -4.1486,0.19515 -6.21862,0.12685 -0.58631,0.0788 -0.47282,0.8026 -0.11682,1.09995 0.34674,0.45541 0.39532,1.03992 0.64553,1.52945 0.63531,0.2646 1.36696,0.0222 2.04229,0.006 1.6644,-0.17736 3.43218,-0.78811 4.46838,-2.15968 0.16526,-0.49586 -0.40703,-0.76065 -0.82076,-0.60264 z" id="path11820"/>
    <path style="fill:#000000;stroke:#000000;stroke-width:0.019815" d="m 117.99334,981.65106 c -0.21124,0.0518 -0.36842,0.24831 -0.38273,0.46393 -0.0577,0.46583 -0.1007,0.93504 -0.0991,1.40478 0.0237,0.51953 0.0698,1.03784 0.10828,1.55641 0.0315,0.24706 0.26632,0.44769 0.51635,0.4299 0.25129,-0.003 0.46917,-0.22447 0.47872,-0.47407 0.013,-0.86747 0.0231,-1.73522 0.0134,-2.6028 -0.009,-0.20409 0.0176,-0.43363 -0.12224,-0.60251 -0.11856,-0.15268 -0.32531,-0.22128 -0.51262,-0.17564 z" id="path11900"/>
    <path style="fill:#ffff00;stroke-width:0.224181" d="m 80.304048,911.89791 c -4.076488,7.16345 -7.311691,14.81635 -9.709039,22.70385 -0.200756,0.47658 -0.398152,1.43883 0.383555,1.45467 3.9319,-1.41913 7.93337,-2.61141 11.9981,-3.59871 2.133846,0.28605 4.178873,1.58944 5.000692,3.63062 0.253424,0.65125 0.518353,1.33547 0.514001,2.02279 -4.171562,8.91381 -8.553524,17.72161 -12.95427,26.52079 -0.641908,1.13875 -1.04109,2.39188 -1.070876,3.70569 -0.316681,0.81805 0.370669,1.37041 1.156018,1.14487 13.511183,0.12393 27.037591,-0.49941 40.450571,-2.16437 4.33537,-0.52434 8.65522,-1.16837 12.96614,-1.86405 1.18449,0.34321 2.26082,0.96638 3.40078,1.40498 2.04446,0.16235 4.10045,-0.16836 6.14739,-0.21944 12.88754,-0.78378 25.72099,-2.4903 38.36931,-5.07307 0.75233,-0.44142 0.32679,-1.51213 0.40652,-2.21378 -0.70434,-15.67031 -0.53631,-31.39144 0.28765,-47.05527 -0.21272,-0.897 -1.37326,-0.39416 -2.03857,-0.52467 -3.88484,0.0282 -7.79022,-0.0561 -11.66233,0.0419 -0.72385,0.3404 -0.24281,1.3618 -0.36102,2.00615 0.18977,11.58007 0.39164,23.16153 0.38409,34.74332 0.0891,1.78858 -0.68202,4.04127 -2.63789,4.47142 -1.31781,0.26878 -2.65915,-0.10102 -3.8651,-0.5293 2.04048,-9.57875 3.40041,-19.31118 3.93655,-29.09123 -0.14334,-2.9815 -0.62587,-5.91894 -0.82574,-8.90325 -0.16508,-0.86949 0.009,-1.85713 -0.4523,-2.63654 -1.48875,-0.23494 -3.04863,-0.0372 -4.56527,-0.10244 -24.97602,0 -49.95204,0 -74.928065,0 -0.110299,0.0417 -0.220598,0.0834 -0.330897,0.1251 z" id="path11902"/>
    <path style="fill:#ffff00;stroke-width:0.63408" d="m 78.693113,684.72296 c -4.342603,7.72653 -8.414407,15.67133 -11.403699,24.02521 -0.393759,1.67044 1.827253,0.85825 2.697881,0.63375 5.929326,-1.66961 12.466081,-2.74227 18.42931,-0.48594 -3.89467,5.22707 -8.519274,9.90438 -12.495361,15.03532 -3.337536,8.00086 -7.331104,15.71677 -10.612239,23.73634 -0.645779,1.00138 0.399322,1.89105 1.376738,1.30283 4.070504,-0.82273 7.841269,-2.98504 11.974015,-3.35322 2.2146,0.55101 4.933547,1.19995 6.288516,3.19298 0.944773,2.301 -0.498852,4.52732 -2.332138,5.85085 -3.936092,3.68759 -8.725387,7.00176 -10.510969,12.34896 -1.720453,4.22759 -3.764293,8.36017 -5.197054,12.68554 0.676957,1.31751 2.370718,-0.53989 3.389848,-0.68346 4.210236,-1.75264 9.032617,-3.13051 13.60844,-2.26099 1.706244,0.85223 2.874755,2.47707 3.693318,4.15245 -7.473661,8.09887 -14.437083,16.85259 -19.398585,26.73551 -0.756876,1.54389 1.454212,1.96649 2.429729,1.25901 2.333491,-0.70133 4.595804,-2.02306 6.931236,-2.43482 2.008868,0.72697 5.536779,0.5771 5.851162,3.39625 -0.156466,2.25985 -2.097003,4.03078 -3.185618,5.94185 -3.608168,5.17135 -8.347495,9.55085 -10.964657,15.38588 -0.622933,1.52729 -1.942607,2.94365 -2.065137,4.60006 1.542655,0.9917 3.739648,0.43734 5.514461,0.74308 3.105001,0.26866 6.406722,-0.0951 9.36738,0.75857 1.109024,0.9994 1.986046,2.64037 0.951617,4.01053 -4.948002,10.99406 -10.774904,21.56467 -16.514305,32.15743 0.200859,1.56711 2.265765,-0.0321 3.200178,-0.0523 4.490071,-1.32131 9.563947,-2.77239 14.130359,-1.09223 1.043927,0.65415 0.405273,1.46831 -0.269202,2.10452 -6.466661,7.16245 -12.1238,15.25352 -15.083542,24.52504 -0.255273,1.64071 -1.747738,3.44144 -1.069996,5.08771 1.43165,0.58729 2.759838,-1.13647 4.161984,-1.38197 3.568441,-1.30444 7.67786,-2.91781 11.530856,-1.77046 0.876701,0.68306 2.452388,1.63025 2.296306,2.82934 -1.516259,2.75952 -3.641911,5.25376 -4.84049,8.12896 1.785681,0.79864 4.160438,0.0944 6.163596,0.33225 24.357459,0 48.714909,0 73.072369,0 1.14868,-1.02873 -0.0126,-3.19673 0.20209,-4.67044 -0.9091,-11.36937 0.17252,-22.78427 0.0816,-34.17162 0.006,-5.58735 -2.253,-11.06649 -1.07688,-16.65183 0.48266,-3.93444 -0.41336,-7.83463 -1.39127,-11.60193 0.90238,-5.10113 2.44055,-10.16342 2.54615,-15.4103 0.61297,-15.44451 -1.18793,-30.88272 -0.37743,-46.33075 0.18369,-7.67053 0.85977,-15.43501 -0.65268,-23.01167 -1.58554,-12.76687 -1.85783,-25.72229 -1.25835,-38.5748 0.7921,-12.21012 2.38341,-24.37981 3.30744,-36.56888 -1.39605,-0.98848 -3.50547,-0.28593 -5.14392,-0.57591 -25.63743,-0.25113 -51.27714,-0.0851 -76.915499,-0.13437 l -0.288543,0.16993 z" id="path11904"/>
    <path style="fill:#ffff00;stroke-width:0.63408" d="m 166.1254,684.65036 c -0.92887,12.63971 -1.66897,25.35128 -2.63199,38.00803 -0.80073,21.23132 -0.664,42.48641 -1.09927,63.72716 -0.19963,20.60474 -1.19546,41.21589 -0.22972,61.81632 0.58321,21.15687 1.08295,42.31602 1.5064,63.47669 1.4399,1.11921 3.99204,0.17945 5.85751,0.48921 2.63357,-0.12437 5.38039,0.25224 7.94322,-0.18509 0.67048,-7.7793 1.56803,-15.61229 1.75084,-23.44181 -0.38439,-7.85772 -2.21337,-15.58199 -2.11904,-23.46717 -0.52983,-23.80057 -0.5973,-47.61358 -0.39179,-71.41846 -0.0155,-9.67567 1.6599,-19.22186 2.5056,-28.83692 0.19534,-2.13479 -0.57125,-4.26341 -0.67693,-6.32841 1.12047,-1.6543 2.04501,-3.2881 1.60727,-5.38137 0.0146,-9.92529 0.001,-19.86044 -0.57236,-29.7676 0.56318,-12.46303 1.58575,-24.97253 2.6371,-37.38614 0.7144,-2.59643 -2.97588,-1.09959 -4.39144,-1.48953 -3.87991,0.12234 -7.88741,-0.24565 -11.6954,0.18509 z" id="path11906"/>
    <path style="fill:#ffff00;stroke-width:0.63408" d="m 203.60404,443.54806 c -4.06766,16.92558 -8.50341,33.79209 -12.14743,50.82462 -0.56775,3.38717 -1.02341,6.79793 -1.83054,10.13049 -0.85274,0.12945 -3.49812,-0.12635 -2.72012,1.40617 0.32948,0.73119 2.62555,1.70028 1.0092,1.87193 -1.76781,-0.14 -2.23892,1.74058 -0.14784,1.51138 1.75505,0.10203 0.50329,2.52809 -0.13342,3.26296 -0.62231,-0.63283 -2.2413,-1.34093 -2.37217,0.11707 -1.7742,13.18905 -2.87999,26.46616 -4.46629,39.68137 -1.35538,13.27436 -3.20171,26.45284 -5.98841,39.48984 -2.833,13.13482 -2.84108,26.63492 -4.42843,39.93268 -1.43811,14.06142 -3.51025,28.08751 -3.82667,42.248 -0.0592,3.60624 -0.56682,7.2817 -0.4481,10.83835 5.04926,0.21627 10.22581,0.26893 15.30761,-0.0458 1.74639,-0.32006 0.66879,-2.77446 1.15867,-3.95012 4.01807,-48.42457 8.8397,-96.79434 15.11365,-144.97751 0.35088,-3.59606 2.47552,-6.66456 2.97804,-10.24092 3.54679,-15.37727 5.5175,-31.05689 7.41256,-46.70368 1.07139,-5.38782 3.28781,-10.57081 3.55924,-16.1415 0.88367,-6.327 2.42706,-12.58324 4.39771,-18.63337 -0.79298,-1.42041 -3.05103,-0.47389 -4.35651,-0.80446 -2.67321,0.11057 -5.47116,-0.2467 -8.07075,0.18248 z" id="path11908"/>
    <path style="fill:#ffff00;stroke-width:0.63408" d="m 111.89962,443.57422 c -2.53687,3.61432 -5.10377,7.21191 -7.52595,10.90402 0.10749,1.48285 2.42763,0.57274 3.43561,0.95513 2.90895,0.22105 5.90581,0.11184 8.74966,0.57138 1.69214,2.10909 2.94443,4.53936 4.04454,6.99945 -6.7817,7.10929 -14.21454,13.65309 -20.3574,21.34236 -1.913711,3.06705 -4.017035,6.13646 -5.225715,9.55279 0.583335,1.40685 2.152309,-0.34985 2.972575,-0.77044 4.58065,-3.16107 10.50972,-4.65124 15.98192,-3.52197 0.67352,0.69621 0.47967,1.96072 1.16483,2.75609 0.31241,1.14459 2.24686,2.63143 0.51407,3.2754 -10.31283,7.16651 -19.017825,16.80421 -24.580478,28.09328 -0.617358,1.26559 1.064629,1.45296 1.848949,0.89406 5.560271,-2.53024 11.853589,-3.19513 17.823019,-1.89408 2.72153,1.11882 4.24039,5.58824 1.45261,7.52268 -2.3563,1.41019 -4.87703,2.62938 -6.67109,4.80329 -6.363876,6.58495 -12.072622,14.01789 -15.763513,22.4391 -0.508413,1.60366 1.59167,1.47172 2.425804,0.79334 3.677471,-1.77069 8.006069,-3.39337 12.078659,-2.18512 2.17104,0.79701 2.80082,3.78699 1.53567,5.58151 -8.545422,5.40597 -15.816931,12.96827 -20.146799,22.16841 -0.36897,1.18191 -1.703446,2.41163 -1.262936,3.66519 2.14863,0.38968 4.329131,-1.02785 6.450747,-1.38329 3.462195,-0.85366 7.49081,-2.37197 10.847738,-0.9915 1.60534,4.35124 0,9.45735 -3.744902,12.16845 -9.027328,7.11325 -16.47642,16.4524 -20.560226,27.24874 -0.322794,1.60812 1.675264,0.62874 2.349659,0.16239 4.026308,-1.8119 8.226229,-3.59002 12.630941,-4.13759 2.321492,0.22789 5.004906,0.74211 6.972633,1.39832 -6.183704,9.0785 -13.096386,17.81315 -18.462011,27.46737 -2.155438,4.09567 -3.920577,8.39229 -5.349327,12.79221 0.435363,1.445 2.180969,-0.16466 3.147856,-0.29497 4.48762,-1.46638 9.051875,-2.77054 13.726166,-3.58344 0.315427,2.6663 0.556941,5.5006 0.620677,8.10869 -5.149549,3.38788 -8.226471,9.01399 -11.641959,13.98121 -0.629488,1.51128 -2.651294,3.04993 -2.269353,4.5875 12.962815,0.048 26.058276,-0.27211 39.073856,-0.12804 14.18971,-0.0595 28.39114,0.49423 42.57357,0.0743 1.22392,-0.79495 0.65111,-2.83072 1.02356,-4.10471 1.61856,-16.8934 4.32557,-33.68231 5.36509,-50.63013 0.34601,-11.51114 1.58254,-22.92935 2.95878,-34.3613 0.28253,-3.50714 -1.13903,-6.9727 -0.12296,-10.46125 4.59612,-28.87063 9.61351,-57.71162 15.66581,-86.30004 0.53219,-3.00461 2.03716,-5.74218 4.4182,-7.6706 1.76699,-1.69622 1.3171,-4.26069 0.56639,-6.30094 1.01197,-4.06673 2.94573,-7.90244 3.75064,-12.05338 2.25513,-9.59447 4.08082,-19.28448 6.02125,-28.94592 -0.53531,-1.33697 -2.65874,-0.31047 -3.80308,-0.66722 -28.09774,-0.21709 -56.19672,-0.10171 -84.29501,-0.132 l -0.29749,0.15374 z" id="path11910"/>
    <path style="fill:#ffff00;stroke-width:0.63408" d="m 179.52913,255.93771 c -8.46406,5.59503 -14.81923,13.60216 -21.68639,20.92837 -1.71992,2.12914 -3.96292,3.9721 -5.27411,6.37027 0.56845,1.19953 2.39368,0.24844 3.45786,0.43362 3.95785,-0.285 7.90795,-0.69181 11.82686,-1.32115 2.73309,1.29563 5.52288,2.61655 7.77383,4.68287 -7.14221,4.85404 -14.80871,9.00036 -21.49868,14.4858 -3.91215,3.77778 -7.78728,7.71237 -10.86282,12.2072 0.0149,1.45458 2.22643,1.22249 3.23154,1.66718 4.98287,1.05759 10.04517,1.72505 15.12452,2.0922 0.0377,2.5613 -0.60884,5.28874 -2.81103,6.85622 -7.32191,5.81216 -14.37336,12.13043 -20.07943,19.57125 -2.08255,3.25415 -5.02891,5.84477 -7.28134,8.94192 0.11777,1.40488 1.86313,0.0659 2.69396,0.29824 6.43892,-0.56498 12.97048,-0.775 19.41493,-0.14324 1.54101,0.30388 2.28067,2.56795 0.56247,3.25643 -5.48024,4.19054 -11.47163,7.66046 -17.5843,10.82684 -5.80751,6.50179 -11.81866,12.8373 -17.44238,19.49408 0.0105,1.62198 2.08152,0.19767 2.91699,0.20275 4.49691,-0.87694 8.9821,-2.25771 13.5705,-2.30547 2.22108,0.0289 5.39078,1.36453 4.52656,4.15834 -1.76997,4.9411 -6.85799,7.4674 -10.2411,11.16787 -5.7555,5.51358 -11.12805,11.51907 -15.49113,18.19162 0.32149,1.32729 2.33389,0.40923 3.33286,0.72582 4.38385,0.29936 8.95247,-0.50218 13.2233,0.68623 1.13002,0.59573 2.14084,2.23213 0.70701,3.15309 -4.62957,4.6804 -10.61838,8.01853 -14.27735,13.61657 -1.67371,2.28079 -3.48456,4.48083 -4.97997,6.88144 0.32993,1.45652 2.60695,0.355 3.6958,0.73089 28.00049,0.17884 56.00179,0.15019 84.00268,0.21354 1.23785,-1.36195 0.91073,-3.86196 1.54973,-5.65301 2.64121,-12.14754 4.45644,-24.4882 8.07631,-36.39013 1.44628,-3.89194 3.33666,-7.66288 3.95697,-11.83878 4.02057,-20.60725 9.13801,-41.01586 15.91562,-60.89619 1.45211,-4.67927 3.51623,-9.41261 3.45869,-14.33171 0.40989,-4.3279 2.39259,-8.38275 4.48601,-12.17219 1.61575,-4.55559 2.52479,-9.3175 4.60745,-13.71675 2.03577,-4.71805 4.76245,-9.17124 5.92216,-14.2251 2.18847,-6.13363 5.05232,-12.00442 7.51055,-18.0222 -0.62549,-1.24713 -2.61035,-0.458 -3.75064,-0.76736 -23.99374,-0.29522 -47.99106,-0.0967 -71.98625,-0.15613 z" id="path11912"/>
    <path style="fill:#ffff00;stroke-width:0.63408" d="m 322.0224,121.94293 c -2.24572,0.18316 -4.70033,-0.26922 -6.79736,0.41008 -5.62522,11.78588 -10.05455,24.13294 -13.83342,36.59439 -3.73472,8.82541 -8.67904,17.0995 -12.16761,26.04289 -3.59054,8.19458 -5.74827,16.94757 -9.13159,25.19004 -5.89605,12.44772 -12.55302,24.59535 -16.98669,37.67963 -3.41353,8.95957 -7.66202,17.54411 -12.4042,25.84845 -3.39098,8.40361 -5.56668,17.24556 -8.49166,25.8173 -2.76062,8.0032 -4.80441,16.34604 -8.7122,23.89428 -2.5445,3.7148 -2.19821,8.49365 -3.3633,12.69065 -3.11455,15.97474 -7.64754,31.64539 -12.47649,47.18996 -4.40683,16.95267 -7.86493,34.13073 -11.97087,51.15854 -0.52403,3.00931 -1.67597,6.01798 -1.83901,9.03986 1.06895,1.08441 2.86613,-0.008 4.22304,0.35138 2.70495,-0.15321 5.58747,0.67197 8.19768,-0.10023 4.62068,-9.23314 5.85472,-19.62755 8.10138,-29.59069 3.68778,-17.42494 6.40081,-35.07593 11.73061,-52.0961 5.14972,-17.36243 9.6747,-34.92682 15.12797,-52.18633 1.35082,-2.47439 3.81263,-4.23332 4.47423,-7.10672 5.83715,-16.4237 11.41413,-32.97029 18.24153,-49.02061 3.04441,-5.49534 6.07345,-11.05526 7.75622,-17.15272 4.01405,-14.1617 9.30244,-27.91855 15.2854,-41.35343 2.09546,-5.58136 3.02623,-11.55233 5.60815,-16.96895 1.60926,-4.09897 4.13067,-7.84549 5.40967,-12.05829 0.19726,-1.78996 -1.13243,-3.70719 0.34729,-5.24272 5.6994,-8.92968 9.57963,-18.92992 12.28533,-29.10442 1.13309,-3.26163 3.15252,-6.10406 4.65606,-9.18849 -0.0844,-1.35122 -2.44667,-0.47337 -3.27016,-0.73775 z" id="path11914"/>
    <path style="fill:#ffff00;stroke-width:0.63408" d="m 375.63797,17.579722 c -3.66139,0.260923 -6.06715,3.861298 -9.81898,3.858134 -10.5832,1.413027 -21.15009,3.367522 -31.16465,7.176541 -12.66364,4.583359 -25.33567,9.3593 -37.24512,15.691029 -1.4639,0.988547 -3.77025,2.007984 -3.97194,3.946429 1.78726,1.17284 4.27067,1.104346 6.32661,1.724967 2.60733,0.795175 6.56261,0.595435 7.35377,3.909516 0.6242,1.690663 -0.49087,3.249242 -2.12167,3.678277 -9.33418,3.536931 -18.91059,6.818276 -27.56679,11.942621 -6.27262,3.484049 -12.89809,6.29043 -19.20042,9.699291 -1.66666,1.521647 -3.22381,3.572758 -3.41666,5.856201 2.87915,0.62487 6.02662,0.50374 8.92819,1.383278 3.39778,0.994594 7.15001,2.053448 9.66986,4.686794 0.51367,1.284235 -1.59383,1.828306 -2.24157,2.648553 -13.81163,9.703167 -27.92718,19.003467 -41.40132,29.173367 -0.66963,1.34182 1.71532,1.60588 2.45197,2.27996 5.73447,3.13652 11.90512,5.42124 17.60195,8.60378 0.92404,1.13235 0.47926,3.34418 -1.1936,3.38069 -10.95861,4.97674 -21.21724,11.46774 -30.25771,19.42554 -3.15888,2.8724 -6.92946,5.0203 -10.01692,7.96466 -0.65367,0.77307 -1.54214,2.89412 0.17553,2.72245 3.41584,0.17076 6.99101,0.0976 9.93989,2.13528 2.90608,1.68612 6.34047,2.19724 9.20926,3.89714 1.59003,1.36157 0.99609,4.2491 -1.07458,4.8248 -7.58435,3.70809 -15.78584,6.26395 -22.759,11.13097 -4.43395,2.52984 -8.9453,5.11676 -12.43053,8.89418 -1.8081,1.84821 -4.07486,3.22759 -5.89021,4.99811 1.04413,1.16928 3.22024,0.8817 4.75154,1.35842 4.1042,0.86897 8.42091,0.67894 12.41222,1.91304 2.46036,1.1374 3.57685,4.5209 2.21979,6.8294 -3.56637,2.41101 -7.68459,3.95641 -11.30102,6.3258 -10.79066,6.42801 -20.57483,14.54464 -29.00501,23.83292 -0.65465,1.62505 1.70074,1.8495 2.76852,1.58865 4.5073,-1.28465 9.39309,-1.63405 13.87463,-0.0164 2.0985,0.82176 4.43396,1.7119 6.00009,3.32576 -1.9036,2.93978 -5.26777,4.8035 -7.30292,7.61097 1.49122,1.05762 3.98761,0.12391 5.86114,0.4048 23.15886,-0.4153 46.32142,0.20253 69.4781,0.12104 1.42142,-1.4349 1.79281,-3.79068 2.81708,-5.55593 10.16632,-23.30203 20.66075,-46.45992 30.8991,-69.72915 5.01087,-12.30558 9.44341,-24.84351 14.6543,-37.07246 5.26182,-12.36298 10.24007,-24.90009 16.62101,-36.74052 1.14405,-1.84466 2.96141,-3.15684 4.16322,-4.97485 2.24538,1.33247 -0.51985,3.25574 -1.08477,4.91958 -2.67993,4.73102 -5.44653,9.4436 -7.72635,14.37829 0.30909,1.29368 2.28098,0.523 3.24335,0.80904 2.22153,-0.12436 4.63324,0.36239 6.72214,-0.25769 3.07617,-5.92291 4.6756,-12.50013 8.04593,-18.29439 2.8186,-4.520116 4.90493,-9.520722 6.87253,-14.499424 4.98381,-11.746963 10.96849,-23.088901 17.63663,-33.967799 1.2801,-2.864905 1.19255,-6.248469 3.28912,-8.750945 1.82291,-2.242619 4.11576,-4.113628 5.34017,-6.813049 3.95868,-7.043009 7.61305,-14.251347 11.3952,-21.389458 0.18882,-1.121121 -1.75414,-0.886307 -2.5311,-0.988243 z m -27.58772,36.949529 c 0.57962,2.497663 -1.66511,4.208632 -2.35713,6.403627 -5.56348,12.978484 -11.80748,25.761818 -19.79297,37.440707 2.82114,-8.161317 7.0238,-15.787406 10.96932,-23.458558 2.81712,-5.705231 6.537,-10.923214 9.27427,-16.659754 0.40311,-1.311854 0.86473,-3.060791 1.90651,-3.726022 z" id="path11916"/>
  </g>
<metadata><rdf:RDF><cc:Work rdf:about=""><dc:Creator><cc:Agent><dc:title>vlk2020</dc:title></cc:Agent></dc:Creator></cc:Work></rdf:RDF></metadata></svg>
