<?xml version="1.0" encoding="utf-8"?>
<svg xmlns:xl="http://www.w3.org/1999/xlink" xmlns="http://www.w3.org/2000/svg"
     xmlns:dc="http://purl.org/dc/elements/1.1/"
     xmlns:xlink="http://www.w3.org/1999/xlink"
     version="1.1"
     viewBox="67.5 69.75 283.5 220.5"
     width="283.5"
     height="220.5"
     preserveAspectRatio="xMidYMid meet"
     zoomAndPan="magnify"
     contentScriptType="application/ecmascript"
     contentStyleType="text/css">
   <defs/>
   <metadata  xmlns:svg="http://www.w3.org/2000/svg"
             xmlns:rdf="http://www.w3.org/1999/02/22-rdf-syntax-ns#"
             xmlns:cc="http://creativecommons.org/ns#">
      <rdf:RDF>
         <cc:Work rdf:about="">
            <dc:creator>
               <cc:Agent>
                  <dc:title>http://heraldicart.org Saw, Frame.svg</dc:title>
               </cc:Agent>
            </dc:creator>
         </cc:Work>
      </rdf:RDF>
   </metadata>
   <g stroke-opacity="1" fill="#ffff00" fill-opacity="1" stroke="#505050"
      stroke-dasharray="none">
      <title>Saw, Frame</title>
      <g>
         <title>Art</title>
         <g>
            <g>
               <path d="M 237.07095 264.3902 C 237.07095 268.48756 241.2229 271.80912 246.3446 271.80912 C 251.46628 271.80912 255.61824 268.48756 255.61824 264.3902 M 255.61824 264.3902 C 255.61824 268.48756 259.7702 271.80912 264.8919 271.80912 C 270.01358 271.80912 274.16554 268.48756 274.16554 264.3902 C 274.16555 268.48756 278.3175 271.80912 283.4392 271.80912 C 288.56087 271.80912 292.71283 268.48756 292.71284 264.3902 C 292.71284 268.48756 296.8648 271.80912 301.9865 271.80912 L 333.5169 271.80912 C 340.68726 271.80912 346.5 265.9964 346.5 258.826 C 346.5 251.65564 340.68726 245.8429 333.5169 245.8429 L 84.98311 245.8429 C 77.81274 245.8429 72 251.65564 72 258.826 L 72 258.826 C 72 265.9964 77.81274 271.80912 84.98311 271.80912 L 116.51351 271.80912 C 121.6352 271.80912 125.78716 268.48756 125.78716 264.3902 M 218.52365 264.3902 C 218.52365 268.48756 222.6756 271.80912 227.7973 271.80912 C 232.91899 271.80912 237.07095 268.48756 237.07095 264.3902 M 199.97635 264.3902 C 199.97635 268.48756 204.12831 271.80912 209.25 271.80912 C 214.3717 271.80912 218.52365 268.48756 218.52365 264.3902 M 181.42905 264.3902 C 181.42905 268.48756 185.58101 271.80912 190.7027 271.80912 C 195.8244 271.80912 199.97635 268.48756 199.97635 264.3902 M 162.88176 264.3902 C 162.88176 268.48756 167.03372 271.80912 172.1554 271.80912 C 177.2771 271.80912 181.42905 268.48756 181.42905 264.3902 M 144.33446 264.3902 C 144.33446 268.48756 148.48642 271.80912 153.6081 271.80912 C 158.7298 271.80912 162.88176 268.48756 162.88176 264.3902 M 125.78716 264.3902 C 125.78716 268.48756 129.93912 271.80912 135.06081 271.80912 C 140.1825 271.80912 144.33446 268.48756 144.33446 264.3902"
                     fill="#ccc"/>
               <path d="M 237.07095 264.3902 C 237.07095 268.48756 241.2229 271.80912 246.3446 271.80912 C 251.46628 271.80912 255.61824 268.48756 255.61824 264.3902 M 255.61824 264.3902 C 255.61824 268.48756 259.7702 271.80912 264.8919 271.80912 C 270.01358 271.80912 274.16554 268.48756 274.16554 264.3902 C 274.16555 268.48756 278.3175 271.80912 283.4392 271.80912 C 288.56087 271.80912 292.71283 268.48756 292.71284 264.3902 C 292.71284 268.48756 296.8648 271.80912 301.9865 271.80912 L 333.5169 271.80912 C 340.68726 271.80912 346.5 265.9964 346.5 258.826 C 346.5 251.65564 340.68726 245.8429 333.5169 245.8429 L 84.98311 245.8429 C 77.81274 245.8429 72 251.65564 72 258.826 L 72 258.826 C 72 265.9964 77.81274 271.80912 84.98311 271.80912 L 116.51351 271.80912 C 121.6352 271.80912 125.78716 268.48756 125.78716 264.3902 M 218.52365 264.3902 C 218.52365 268.48756 222.6756 271.80912 227.7973 271.80912 C 232.91899 271.80912 237.07095 268.48756 237.07095 264.3902 M 199.97635 264.3902 C 199.97635 268.48756 204.12831 271.80912 209.25 271.80912 C 214.3717 271.80912 218.52365 268.48756 218.52365 264.3902 M 181.42905 264.3902 C 181.42905 268.48756 185.58101 271.80912 190.7027 271.80912 C 195.8244 271.80912 199.97635 268.48756 199.97635 264.3902 M 162.88176 264.3902 C 162.88176 268.48756 167.03372 271.80912 172.1554 271.80912 C 177.2771 271.80912 181.42905 268.48756 181.42905 264.3902 M 144.33446 264.3902 C 144.33446 268.48756 148.48642 271.80912 153.6081 271.80912 C 158.7298 271.80912 162.88176 268.48756 162.88176 264.3902 M 125.78716 264.3902 C 125.78716 268.48756 129.93912 271.80912 135.06081 271.80912 C 140.1825 271.80912 144.33446 268.48756 144.33446 264.3902"
                     stroke="black"
                     stroke-linecap="round"
                     stroke-linejoin="round"
                     stroke-width="2"/>
            </g>
            <g>
               <rect x="116.51351" y="162.38007" width="185.47297" height="22.256757"/>
               <rect x="116.51351" y="162.38007" width="185.47297" height="22.256757" stroke="black"
                     stroke-linecap="round"
                     stroke-linejoin="round"
                     stroke-width="2"/>
            </g>
            <g>
               <path d="M 92.40203 274.5912 L 92.40203 85.40878 C 92.40203 78.75058 97.79957 73.35304 104.45777 73.35304 L 104.45777 73.35304 C 111.11597 73.35304 116.51351 78.75058 116.51351 85.40878 L 116.51351 274.5912 C 116.51351 281.24942 111.11597 286.64696 104.45777 286.64696 C 104.45777 286.64696 104.45777 286.64696 104.45777 286.64696 L 104.45777 286.64696 C 97.79957 286.64696 92.40203 281.24942 92.40203 274.5912 Z"/>
               <path d="M 92.40203 274.5912 L 92.40203 85.40878 C 92.40203 78.75058 97.79957 73.35304 104.45777 73.35304 L 104.45777 73.35304 C 111.11597 73.35304 116.51351 78.75058 116.51351 85.40878 L 116.51351 274.5912 C 116.51351 281.24942 111.11597 286.64696 104.45777 286.64696 C 104.45777 286.64696 104.45777 286.64696 104.45777 286.64696 L 104.45777 286.64696 C 97.79957 286.64696 92.40203 281.24942 92.40203 274.5912 Z"
                     stroke="black"
                     stroke-linecap="round"
                     stroke-linejoin="round"
                     stroke-width="2"/>
            </g>
            <g>
               <circle cx="103.5304" cy="258.826" r="3.70946538681177" stroke="black"
                       stroke-linecap="round"
                       stroke-linejoin="round"
                       stroke-width="2"/>
            </g>
            <g>
               <path d="M 301.9865 274.5912 L 301.9865 85.40878 C 301.9865 78.75058 307.38403 73.35304 314.04223 73.35304 L 314.04223 73.35304 C 320.70043 73.35304 326.09797 78.75058 326.09797 85.40878 L 326.09797 274.5912 C 326.09797 281.24942 320.70043 286.64696 314.04223 286.64696 C 314.04223 286.64696 314.04223 286.64696 314.04223 286.64696 L 314.04223 286.64696 C 307.38403 286.64696 301.9865 281.24942 301.9865 274.5912 Z"/>
               <path d="M 301.9865 274.5912 L 301.9865 85.40878 C 301.9865 78.75058 307.38403 73.35304 314.04223 73.35304 L 314.04223 73.35304 C 320.70043 73.35304 326.09797 78.75058 326.09797 85.40878 L 326.09797 274.5912 C 326.09797 281.24942 320.70043 286.64696 314.04223 286.64696 C 314.04223 286.64696 314.04223 286.64696 314.04223 286.64696 L 314.04223 286.64696 C 307.38403 286.64696 301.9865 281.24942 301.9865 274.5912 Z"
                     stroke="black"
                     stroke-linecap="round"
                     stroke-linejoin="round"
                     stroke-width="2"/>
            </g>
            <g>
               <circle cx="313.11486" cy="258.826" r="3.70946538681176" stroke="black"
                       stroke-linecap="round"
                       stroke-linejoin="round"
                       stroke-width="2"/>
            </g>
            <g>
               <path d="M 199.97635 164.2348 L 199.97635 112.30236 C 199.97635 107.18067 204.1283 103.02872 209.25 103.02872 L 209.25 103.02872 C 214.3717 103.02872 218.52365 107.18067 218.52365 112.30236 L 218.52365 164.2348 C 218.52365 169.3565 214.3717 173.50845 209.25 173.50845 L 209.25 173.50845 C 204.1283 173.50845 199.97635 169.3565 199.97635 164.2348 Z"/>
               <path d="M 199.97635 164.2348 L 199.97635 112.30236 C 199.97635 107.18067 204.1283 103.02872 209.25 103.02872 L 209.25 103.02872 C 214.3717 103.02872 218.52365 107.18067 218.52365 112.30236 L 218.52365 164.2348 C 218.52365 169.3565 214.3717 173.50845 209.25 173.50845 L 209.25 173.50845 C 204.1283 173.50845 199.97635 169.3565 199.97635 164.2348 Z"
                     stroke="black"
                     stroke-linecap="round"
                     stroke-linejoin="round"
                     stroke-width="2"/>
            </g>
            <g>
               <rect x="116.51351" y="97.46453" width="185.47297" height="16.692568" fill="#ff0000"/>
               <rect x="116.51351" y="97.46453" width="185.47297" height="16.692568" stroke="black"
                     stroke-linecap="round"
                     stroke-linejoin="round"
                     stroke-width="2"/>
            </g>
            <g>
               <g>
                  <line x1="144.74662" y1="114.1571" x2="128.05405" y2="97.46453" stroke="black"
                        stroke-linecap="round"
                        stroke-linejoin="round"
                        stroke-width="1"/>
               </g>
               <g>
                  <line x1="165.56081" y1="114.1571" x2="148.86824" y2="97.46453" stroke="black"
                        stroke-linecap="round"
                        stroke-linejoin="round"
                        stroke-width="1"/>
               </g>
               <g>
                  <line x1="186.375" y1="114.1571" x2="169.68243" y2="97.46453" stroke="black"
                        stroke-linecap="round"
                        stroke-linejoin="round"
                        stroke-width="1"/>
               </g>
               <g>
                  <line x1="207.1892" y1="114.1571" x2="190.49662" y2="97.46453" stroke="black"
                        stroke-linecap="round"
                        stroke-linejoin="round"
                        stroke-width="1"/>
               </g>
               <g>
                  <line x1="228.00338" y1="114.1571" x2="211.3108" y2="97.46453" stroke="black"
                        stroke-linecap="round"
                        stroke-linejoin="round"
                        stroke-width="1"/>
               </g>
               <g>
                  <line x1="248.81757" y1="114.1571" x2="232.125" y2="97.46453" stroke="black"
                        stroke-linecap="round"
                        stroke-linejoin="round"
                        stroke-width="1"/>
               </g>
               <g>
                  <line x1="269.63176" y1="114.1571" x2="252.9392" y2="97.46453" stroke="black"
                        stroke-linecap="round"
                        stroke-linejoin="round"
                        stroke-width="1"/>
               </g>
               <g>
                  <line x1="290.44595" y1="114.1571" x2="273.75338" y2="97.46453" stroke="black"
                        stroke-linecap="round"
                        stroke-linejoin="round"
                        stroke-width="1"/>
               </g>
               <g>
                  <line x1="301.9865" y1="104.88345" x2="294.56757" y2="97.46453" stroke="black"
                        stroke-linecap="round"
                        stroke-linejoin="round"
                        stroke-width="1"/>
               </g>
               <g>
                  <line x1="123.93243" y1="114.1571" x2="116.51351" y2="106.73818" stroke="black"
                        stroke-linecap="round"
                        stroke-linejoin="round"
                        stroke-width="1"/>
               </g>
            </g>
         </g>
      </g>
   </g>
</svg>