<?xml version="1.0" encoding="UTF-8" standalone="no"?>
<!-- Created with Inkscape (http://www.inkscape.org/) -->
<svg xmlns:dc="http://purl.org/dc/elements/1.1/" xmlns:cc="http://creativecommons.org/ns#" xmlns:rdf="http://www.w3.org/1999/02/22-rdf-syntax-ns#" xmlns:svg="http://www.w3.org/2000/svg" xmlns="http://www.w3.org/2000/svg" xmlns:xlink="http://www.w3.org/1999/xlink" xmlns:sodipodi="http://sodipodi.sourceforge.net/DTD/sodipodi-0.dtd" xmlns:inkscape="http://www.inkscape.org/namespaces/inkscape" version="1.0" width="380.44434" height="310.67197" id="svg3380" inkscape:version="0.48.4 r9939" sodipodi:docname="balance.svg">
  <metadata id="metadata3148">
    <rdf:RDF>
      <cc:Work rdf:about="">
        <dc:format>image/svg+xml</dc:format>
        <dc:type rdf:resource="http://purl.org/dc/dcmitype/StillImage"/>
        <cc:license rdf:resource=""/>
        <dc:title/>
        <dc:creator>
          <cc:Agent>
            <dc:title>http://commons.wikimedia.org/wiki/User:Xavigivax</dc:title>
          </cc:Agent>
        </dc:creator>
      </cc:Work>
    </rdf:RDF>
  </metadata>
  <sodipodi:namedview pagecolor="#ffffff" bordercolor="#666666" borderopacity="1" objecttolerance="10" gridtolerance="10" guidetolerance="10" inkscape:pageopacity="0" inkscape:pageshadow="2" inkscape:window-width="1680" inkscape:window-height="997" id="namedview3146" showgrid="false" inkscape:zoom="2.1262773" inkscape:cx="190.22217" inkscape:cy="155.33598" inkscape:window-x="-8" inkscape:window-y="-8" inkscape:window-maximized="1" inkscape:current-layer="svg3380"/>
  <defs id="defs3382">
    <linearGradient id="linearGradient3820">
      <stop id="stop3822" style="stop-color:#ffcc00;stop-opacity:1" offset="0"/>
      <stop id="stop3824" style="stop-color:#ffcc00;stop-opacity:0" offset="1"/>
    </linearGradient>
    <linearGradient x1="-773.2453" y1="818.77765" x2="-777.27264" y2="1064.9441" id="linearGradient4030" xlink:href="#linearGradient3820" gradientUnits="userSpaceOnUse" gradientTransform="matrix(1.4645969,0,0,2.1550757,215.0092,-1105.3202)"/>
    <linearGradient x1="-773.2453" y1="818.77765" x2="-777.27264" y2="1064.9441" id="linearGradient4032" xlink:href="#linearGradient3820" gradientUnits="userSpaceOnUse" gradientTransform="matrix(1.4645969,0,0,2.1550757,26.472566,-1487.3633)"/>
  </defs>
  <g id="layer1">
    <path d="m 73.37422,105.83698 63.53475,164.63911" id="path3836" style="fill:#eac102;fill-opacity:1;fill-rule:evenodd;stroke:#000000;stroke-width:2;stroke-linecap:round;stroke-linejoin:miter;stroke-miterlimit:4;stroke-opacity:1;stroke-dasharray:none;display:inline" inkscape:connector-curvature="0" sodipodi:nodetypes="cc"/>
    <path d="M 73.55227,105.96929 10.26861,270.35844" id="path3834" style="fill:#eac102;fill-rule:evenodd;stroke:#000000;stroke-width:2;stroke-linecap:round;stroke-linejoin:miter;stroke-miterlimit:4;stroke-opacity:1;stroke-dasharray:none;display:inline" inkscape:connector-curvature="0" sodipodi:nodetypes="cc"/>
    <path d="M 315.10967,105.83702 378.6444,270.47615" id="path3818" style="fill:#eac102;fill-opacity:1;fill-rule:evenodd;stroke:#000000;stroke-width:2;stroke-linecap:round;stroke-linejoin:miter;stroke-miterlimit:4;stroke-opacity:1;stroke-dasharray:none;display:inline" inkscape:connector-curvature="0" sodipodi:nodetypes="cc"/>
    <path d="m 74.43755,94.139351 c 2.54262,0.556673 2.92779,2.547163 -0.053,2.728497 -8.67682,-1.025164 -10.85245,1.782552 -10.55686,9.435922 0.2012,5.18871 1.85449,8.1828 7.21352,8.7514 5.35336,0.56801 7.70433,-3.23029 6.98567,-7.01997 -0.13346,-2.63197 4.01647,-2.3836 4.39912,0.75853 -0.10056,7.56604 -5.76855,9.28944 -10.90743,9.31666 -7.5658,0.0401 -12.01054,-4.87142 -11.85057,-9.00178 0.12869,-3.35464 0.18669,-6.1837 0.26368,-9.2601 0.0711,-2.83808 5.98008,-7.201064 14.50594,-5.709159 z" id="path3788" style="fill:#ffff00;fill-opacity:1;fill-rule:nonzero;stroke:#000000;stroke-width:0.78617573;stroke-linecap:square;stroke-linejoin:miter;stroke-miterlimit:4;stroke-opacity:1;stroke-dasharray:none;stroke-dashoffset:0;marker:none;visibility:visible;display:inline;overflow:visible;enable-background:accumulate" inkscape:connector-curvature="0" sodipodi:nodetypes="cccsccscccc"/>
    <path d="M 315.28772,105.96932 252.00408,270.35851" id="path3814" style="fill:#eac102;fill-rule:evenodd;stroke:#000000;stroke-width:2;stroke-linecap:round;stroke-linejoin:miter;stroke-miterlimit:4;stroke-opacity:1;stroke-dasharray:none;display:inline" inkscape:connector-curvature="0" sodipodi:nodetypes="cc"/>
    <path d="m 311.7595,93.43149 c -2.22736,0.567594 -2.56478,2.597137 0.0464,2.782029 7.60095,-1.045277 9.50682,1.817531 9.24788,9.621051 -0.17625,5.29051 -1.62455,8.34335 -6.31909,8.9231 -4.68958,0.57916 -6.74905,-3.29367 -6.1195,-7.1577 0.11692,-2.68361 -3.51845,-2.43036 -3.85366,0.77341 0.0881,7.71449 5.05329,9.4717 9.55499,9.49945 6.62769,0.0409 10.52131,-4.96699 10.38118,-9.17839 -0.11273,-3.42045 -0.16354,-6.30502 -0.23099,-9.44178 -0.0623,-2.893761 -5.23859,-7.342346 -12.7073,-5.82117 z" id="path3764" style="fill:#ffff00;fill-opacity:1;fill-rule:nonzero;stroke:#000000;stroke-width:0.78617573;stroke-linecap:square;stroke-linejoin:miter;stroke-miterlimit:4;stroke-opacity:1;stroke-dasharray:none;stroke-dashoffset:0;marker:none;visibility:visible;display:inline;overflow:visible;enable-background:accumulate" inkscape:connector-curvature="0" sodipodi:nodetypes="cccsccscccc"/>
    <path d="m 134.91503,88.702683 c -28.69739,0.01295 -44.85797,4.411075 -58.23998,4.411075 l 0,7.753842 c 13.06042,0 40.79868,4.30726 58.23998,4.41108 17.44132,0.10381 58.23997,-4.41108 58.23998,-4.41108 0,0 40.83313,4.51489 58.27445,4.41108 17.44133,-0.10382 45.17956,-4.41108 58.23998,-4.41108 l 0,-7.753842 c -13.38199,0 -29.54259,-4.398129 -58.23998,-4.411075 -28.69737,-0.01295 -58.27445,4.411075 -58.27445,4.411075 0,0 -29.54258,-4.424022 -58.23998,-4.411075 z" id="rect3778" style="fill:#ffff00;fill-opacity:1;fill-rule:nonzero;stroke:#000000;stroke-width:1.00000012;stroke-linecap:square;stroke-linejoin:miter;stroke-miterlimit:4;stroke-opacity:1;stroke-dasharray:none;stroke-dashoffset:0;marker:none;visibility:visible;display:inline;overflow:visible;enable-background:accumulate" inkscape:connector-curvature="0" sodipodi:nodetypes="sccscsccscs"/>
    <path d="m 203.4022,64.431412 c 0,16.546794 -5.80049,24.227767 -10.22995,24.227767 -4.42948,0 -10.22996,-7.680973 -10.22996,-24.227767 0,-16.546794 5.80048,-46.646187 10.22996,-46.646187 4.42946,0 10.22995,30.099393 10.22995,46.646187 z" id="path3773" style="fill:#ffff00;fill-opacity:1;fill-rule:nonzero;stroke:#000000;stroke-width:1.00000012;stroke-linecap:square;stroke-linejoin:miter;stroke-miterlimit:4;stroke-opacity:1;stroke-dasharray:none;stroke-dashoffset:0;marker:none;visibility:visible;display:inline;overflow:visible;enable-background:accumulate" inkscape:connector-curvature="0" sodipodi:nodetypes="sssss"/>
    <path d="m205.1, 96.99   c0.0009247,3.323 -1.28,6.626 -3.481,8.975 -2.201,2.35 -5.295,3.718 -8.408,3.718 -3.113,0 -6.207,-1.368 -8.408,-3.718 -2.201,-2.35 -3.482,-5.653 -3.481,-8.975 -0.0009247,-3.323 1.28,-6.626 3.481,-8.975 2.201,-2.35 5.295,-3.718 8.408,-3.718 3.113,0 6.207,1.368 8.408,3.718 2.201,2.35 3.482,5.653 3.481,8.975   z " id="path3388" style="fill:#ffff00;fill-opacity:1;fill-rule:nonzero;stroke:#000000;stroke-width:5.23371124;stroke-linecap:square;stroke-linejoin:miter;stroke-miterlimit:4;stroke-opacity:1;stroke-dasharray:none;stroke-dashoffset:0;marker:none;visibility:visible;display:inline;overflow:visible;enable-background:accumulate" inkscape:connector-curvature="0" sodipodi:nodetypes="cssscsssc"/>
    <path d="m201.3, 96.99   c0,2.273 -0.8769,4.533 -2.383,6.141 -1.506,1.608 -3.623,2.543 -5.753,2.543 -2.13,0 -4.247,-0.9359 -5.753,-2.543 -1.506,-1.608 -2.383,-3.867 -2.383,-6.141 0,-2.273 0.8769,-4.533 2.383,-6.141 1.506,-1.608 3.623,-2.543 5.753,-2.543 2.13,0 4.247,0.9359 5.753,2.543 1.506,1.608 2.383,3.867 2.383,6.141   z " id="path3390" style="fill:#ffff00;fill-opacity:1;fill-rule:nonzero;stroke:#000000;stroke-width:4.58873844;stroke-linecap:square;stroke-linejoin:miter;stroke-miterlimit:4;stroke-opacity:1;stroke-dasharray:none;stroke-dashoffset:0;marker:none;visibility:visible;display:inline;overflow:visible;enable-background:accumulate" inkscape:connector-curvature="0" sodipodi:nodetypes="sssssssss"/>
    <path d="m 193.17224,3.3672 c -5.244,0 -9.5,4.25601 -9.5,9.5 0,5.244 4.256,9.50001 9.5,9.5 5.244,0 9.5,-4.25599 9.5,-9.5 0,-5.244 -4.256,-9.49999 -9.5,-9.5 z m 0,5.59375 c 2.15659,0 3.90625,1.74966 3.90625,3.90625 0,2.1566 -1.74966,3.90625 -3.90625,3.90625 -2.15659,0 -3.90625,-1.74966 -3.90625,-3.90625 0,-2.15658 1.74966,-3.90625 3.90625,-3.90625 z" id="path3776" style="fill:#ffff00;fill-opacity:1;fill-rule:nonzero;stroke:#000000;stroke-width:1;stroke-linecap:square;stroke-linejoin:miter;stroke-miterlimit:4;stroke-opacity:1;stroke-dasharray:none;stroke-dashoffset:0;marker:none;visibility:visible;display:inline;overflow:visible;enable-background:accumulate" inkscape:connector-curvature="0" sodipodi:nodetypes="ssssssssss"/>
    <path d="m137, 270.7   c0,5.289 -1.653,10.58 -4.835,15.46 -3.182,4.886 -7.89,9.366 -13.77,13.1 -5.879,3.738 -12.92,6.73 -20.61,8.75 -7.68,2.02 -15.99,3.067 -24.3,3.061 -8.31,-0.005461 -16.62,-1.063 -24.29,-3.094 -7.674,-2.03 -14.71,-5.031 -20.58,-8.777 -5.867,-3.746 -10.56,-8.232 -13.73,-13.12 -3.166,-4.89 -4.802,-10.18 -4.785,-15.47   l63.44,0.08383   z " id="path3832" style="fill:#ffff00;fill-opacity:1;fill-rule:nonzero;stroke:#000000;stroke-width:3.59448195;stroke-linecap:square;stroke-linejoin:miter;stroke-miterlimit:4;stroke-opacity:1;stroke-dasharray:none;stroke-dashoffset:0;marker:none;visibility:visible;display:inline;overflow:visible;enable-background:accumulate" inkscape:connector-curvature="0" sodipodi:nodetypes="csssssssccc"/>
    <path d="m378.4, 270.7   c0,5.289 -1.653,10.58 -4.835,15.46 -3.182,4.886 -7.89,9.366 -13.77,13.1 -5.879,3.738 -12.92,6.73 -20.61,8.75 -7.68,2.02 -15.99,3.067 -24.3,3.061 -8.31,-0.005461 -16.62,-1.063 -24.29,-3.094 -7.674,-2.03 -14.71,-5.031 -20.58,-8.777 -5.867,-3.746 -10.56,-8.232 -13.73,-13.12 -3.166,-4.89 -4.802,-10.18 -4.785,-15.47   l63.44,0.08383   z " id="path2355" style="fill:#ffff00;fill-opacity:1;fill-rule:nonzero;stroke:#000000;stroke-width:3.59448195;stroke-linecap:square;stroke-linejoin:miter;stroke-miterlimit:4;stroke-opacity:1;stroke-dasharray:none;stroke-dashoffset:0;marker:none;visibility:visible;display:inline;overflow:visible;enable-background:accumulate" inkscape:connector-curvature="0" sodipodi:nodetypes="csssssssccc"/>
    <path d="m136.6, 269.5   c0,2.186 -6.838,4.359 -18.58,5.905 -11.74,1.546 -28.25,2.446 -44.86,2.446 -16.61,0 -33.12,-0.9 -44.86,-2.446 -11.74,-1.546 -18.58,-3.719 -18.58,-5.905 0,-2.186 6.838,-4.359 18.58,-5.905 11.74,-1.546 28.25,-2.446 44.86,-2.446 16.61,0 33.12,0.9 44.86,2.446 11.74,1.546 18.58,3.719 18.58,5.905   z " id="path2921" style="fill:#ffff00;fill-opacity:1;stroke:#000000;stroke-width:1.21128619;stroke-linecap:round;stroke-linejoin:round;stroke-miterlimit:4;stroke-opacity:1;stroke-dasharray:none" inkscape:connector-curvature="0" sodipodi:nodetypes="sssssssss"/>
    <path d="m 73.54446,106.52471 0.0805,171.16687" id="path3838" style="fill:#eac102;fill-rule:evenodd;stroke:#000000;stroke-width:2;stroke-linecap:round;stroke-linejoin:miter;stroke-miterlimit:4;stroke-opacity:1;stroke-dasharray:none" inkscape:connector-curvature="0" sodipodi:nodetypes="cc"/>
    <path d="m378.4, 269.5   c0,2.186 -6.838,4.359 -18.58,5.905 -11.74,1.546 -28.25,2.446 -44.86,2.446 -16.61,0 -33.12,-0.9 -44.86,-2.446 -11.74,-1.546 -18.58,-3.719 -18.58,-5.905 0,-2.186 6.838,-4.359 18.58,-5.905 11.74,-1.546 28.25,-2.446 44.86,-2.446 16.61,0 33.12,0.9 44.86,2.446 11.74,1.546 18.58,3.719 18.58,5.905   z " id="path2965" style="fill:#ffff00;fill-opacity:1;stroke:#000000;stroke-width:1.21128619;stroke-linecap:round;stroke-linejoin:round;stroke-miterlimit:4;stroke-opacity:1;stroke-dasharray:none" inkscape:connector-curvature="0" sodipodi:nodetypes="sssssssss"/>
    <path d="m 315.27992,106.52475 0.0805,171.23958" id="path3828" style="fill:#eac102;fill-rule:evenodd;stroke:#000000;stroke-width:2;stroke-linecap:round;stroke-linejoin:miter;stroke-miterlimit:4;stroke-opacity:1;stroke-dasharray:none" inkscape:connector-curvature="0" sodipodi:nodetypes="cc"/>
  </g>
</svg>
