<?xml version="1.0" encoding="UTF-8" standalone="no"?>
<!-- Created with Inkscape (http://www.inkscape.org/) -->

<svg
   xmlns:dc="http://purl.org/dc/elements/1.1/"
   xmlns:cc="http://creativecommons.org/ns#"
   xmlns:rdf="http://www.w3.org/1999/02/22-rdf-syntax-ns#"
   xmlns:svg="http://www.w3.org/2000/svg"
   xmlns="http://www.w3.org/2000/svg"
   xmlns:sodipodi="http://sodipodi.sourceforge.net/DTD/sodipodi-0.dtd"
   xmlns:inkscape="http://www.inkscape.org/namespaces/inkscape"
   width="251.9838"
   height="299.52747"
   id="svg14495"
   version="1.1"
   inkscape:version="0.48.4 r9939"
   sodipodi:docname="fetterlock.svg">
  <defs
     id="defs14497" />
  <sodipodi:namedview
     id="base"
     pagecolor="#ffffff"
     bordercolor="#666666"
     borderopacity="1.0"
     inkscape:pageopacity="0.0"
     inkscape:pageshadow="2"
     inkscape:zoom="1.6182432"
     inkscape:cx="220.47805"
     inkscape:cy="177.17243"
     inkscape:document-units="px"
     inkscape:current-layer="layer1"
     showgrid="false"
     fit-margin-top="0"
     fit-margin-left="0"
     fit-margin-right="0"
     fit-margin-bottom="0"
     inkscape:window-width="1280"
     inkscape:window-height="697"
     inkscape:window-x="0"
     inkscape:window-y="0"
     inkscape:window-maximized="0"
     showguides="true"
     inkscape:guide-bbox="true" />
  <metadata
     id="metadata14500">
    <rdf:RDF>
      <cc:Work
         rdf:about="">
        <dc:format>image/svg+xml</dc:format>
        <dc:type
           rdf:resource="http://purl.org/dc/dcmitype/StillImage" />
        <dc:title></dc:title>
      </cc:Work>
    </rdf:RDF>
  </metadata>
  <g
     inkscape:label="Layer"
     inkscape:groupmode="layer"
     id="layer1">
    <g
       id="g4867">
      <g
         id="g3457"
         style="stroke-width:1.51793814;stroke-miterlimit:4;stroke-dasharray:none">
        <g
           id="g4055"
           style="stroke-width:1.51793814;stroke-miterlimit:4;stroke-dasharray:none">
          <path
             inkscape:connector-curvature="0"
             id="path6648"
             d="m 126.28343,1.16283 c -66.70875,0 -120.79868,53.49844 -120.79868,119.26549 0,13.40869 2.21722,26.33098 6.3594,38.37491 l 9.6291,-3.14931 C 17.67242,144.6025 15.6238,132.76792 15.6238,120.42832 15.6238,59.90495 65.14474,11.019 126.28343,11.019 c 61.13869,0 110.68963,48.88595 110.68963,109.40932 0,21.18283 -6.33793,40.82212 -16.70844,57.79565 -4.17164,6.82778 -11.90969,13.85275 -14.30866,23.53233 -1.5763,6.36025 -0.91781,12.93525 2.1598,18.25433 3.07761,5.31909 9.31324,9.19335 16.55845,8.57312 6.47615,-0.55439 11.13636,-5.22333 13.40874,-10.43938 2.60856,-9.01143 0.42316,-20.26397 -7.59129,-25.92213 -0.73163,5.74212 3.11827,16.14864 -1.37751,22.4333 -1.8197,2.54377 -3.42404,3.96892 -5.30986,4.13036 -3.53387,0.30252 -5.29257,-0.94253 -6.83936,-3.61587 -1.54679,-2.67335 -2.16651,-6.9678 -1.13989,-11.11006 1.3422,-5.41566 8.03974,-12.39653 13.16876,-20.79127 11.20385,-18.33749 18.11831,-39.75044 18.11831,-62.84038 0,-65.76705 -54.11993,-119.26549 -120.82868,-119.26549 z"
             style="font-size:medium;font-style:normal;font-variant:normal;font-weight:normal;font-stretch:normal;text-indent:0;text-align:start;text-decoration:none;line-height:normal;letter-spacing:normal;word-spacing:normal;text-transform:none;direction:ltr;block-progression:tb;writing-mode:lr-tb;text-anchor:start;baseline-shift:baseline;color:#000000;fill:#ffff00;fill-opacity:1;stroke:#806600;stroke-width:1.51793814;stroke-miterlimit:4;stroke-opacity:1;stroke-dasharray:none;marker:none;visibility:visible;display:inline;overflow:visible;enable-background:accumulate;font-family:Sans;-inkscape-font-specification:Sans"
             sodipodi:nodetypes="ssccsssssssccsssssss" />
        </g>
        <g
           id="g3453"
           style="fill:#ffff00;stroke-width:1.51793814;stroke-miterlimit:4;stroke-dasharray:none">
          <path
             inkscape:connector-curvature="0"
             id="path4230"
             d="m 216.28125,204.8125 c -0.0363,0.12576 -0.0942,0.25088 -0.125,0.375 -0.60457,2.43937 -0.60918,4.94223 -0.21875,7.125 0.0103,-3e-5 0.0209,0 0.0312,0 5.27963,0 10.49602,3.51006 14.84375,10.6875 4.34773,7.17744 7.3125,17.73496 7.3125,29.5625 0,11.82754 -2.96477,22.41631 -7.3125,29.59375 -4.34773,7.17744 -9.56412,10.65625 -14.84375,10.65625 -5.27963,0 -10.49602,-3.47881 -14.84375,-10.65625 -4.34773,-7.17744 -7.3125,-17.76621 -7.3125,-29.59375 0,-11.82754 2.96477,-22.38506 7.3125,-29.5625 1.66043,-2.74111 3.44354,-4.94492 5.3125,-6.625 -0.7742,-2.64887 -1.09755,-5.45816 -0.9375,-8.3125 -10.79714,6.92946 -18.46875,24.22781 -18.46875,44.5 0,26.37626 12.96068,47.75 28.9375,47.75 15.97682,0 28.9375,-21.37374 28.9375,-47.75 0,-26.20484 -12.79138,-47.47467 -28.625,-47.75 z"
             style="color:#000000;fill:#ffff00;fill-opacity:1;stroke:#806600;stroke-width:1.51793814;stroke-miterlimit:4;stroke-opacity:1;stroke-dasharray:none;marker:none;visibility:visible;display:inline;overflow:visible;enable-background:accumulate"
             sodipodi:nodetypes="cccssssssssccssscc" />
        </g>
        <g
           id="g3443"
           style="fill:#ffff00;stroke-width:1.51793814;stroke-miterlimit:4;stroke-dasharray:none">
          <path
             sodipodi:nodetypes="cssccccccssscc"
             inkscape:connector-curvature="0"
             style="color:#000000;fill:#ffff00;fill-opacity:1;stroke:#806600;stroke-width:1.51793814;stroke-miterlimit:4;stroke-opacity:1;stroke-dasharray:none;marker:none;visibility:visible;display:inline;overflow:visible;enable-background:accumulate"
             d="m 207.3959,233.46586 c -1.25624,-4.46139 -2.94684,-8.34332 -4.92321,-11.606 -4.34773,-7.17744 -9.56412,-10.6875 -14.84375,-10.6875 -0.24756,0 -0.5028,0.0158 -0.75,0.0312 l -0.40516,-0.0312 -134.87609,0 0,80.5 163.28125,0 0,-0.0312 c 0.2472,0.0153 0.50244,0.0312 0.75,0.0312 5.27963,0 10.49602,-3.47881 14.84375,-10.65625 4.34773,-7.17744 7.3125,-17.76621 7.3125,-29.59375 0,-6.51476 -0.8995,-12.56499 -2.43415,-17.9565 z"
             id="path4495" />
          <g
             style="fill:#ffff00;fill-opacity:1;stroke-width:1.51793814;stroke-miterlimit:4;stroke-dasharray:none"
             id="g4263">
            <path
               inkscape:connector-curvature="0"
               id="path4234"
               d="m 53.62894,211.17236 c 5.27963,0 10.49602,3.51006 14.84375,10.6875 4.34773,7.17744 7.3125,17.73496 7.3125,29.5625 0,11.82754 -2.96477,22.41631 -7.3125,29.59375 -4.34773,7.17744 -9.56412,10.65625 -14.84375,10.65625 -5.27963,0 -10.49602,-3.47881 -14.84375,-10.65625 -4.34773,-7.17744 -7.3125,-17.76621 -7.3125,-29.59375 0,-11.82754 2.96477,-22.38506 7.3125,-29.5625 4.34773,-7.17744 9.56412,-10.6875 14.84375,-10.6875 z"
               style="color:#000000;fill:#ffff00;fill-opacity:1;stroke:#806600;stroke-width:1.51793814;stroke-miterlimit:4;stroke-opacity:1;stroke-dasharray:none;marker:none;visibility:visible;display:inline;overflow:visible;enable-background:accumulate"
               sodipodi:nodetypes="sssssssss" />
            <path
               style="color:#000000;fill:#ffff00;stroke:#806600;stroke-width:1.52061057;stroke-opacity:1;marker:none;visibility:visible;display:inline;overflow:visible;enable-background:accumulate"
               d="m 51.625,216.3125 c -4.436497,0 -8.066361,4.489 -10.46875,8.21875 -4.999,7.76103 -6.561267,17.67459 -6.5625,26.90625 -0.0012,9.24178 1.551875,19.17192 6.5625,26.9375 2.401856,3.72245 6.038677,8.1875 10.46875,8.1875 4.430073,0 8.066894,-4.46505 10.46875,-8.1875 5.010625,-7.76558 6.563734,-17.69572 6.5625,-26.9375 -0.0012,-9.23166 -1.5635,-19.14522 -6.5625,-26.90625 C 59.691361,220.8015 56.061497,216.3125 51.625,216.3125 z"
               id="path4261"
               inkscape:connector-curvature="0"
               sodipodi:nodetypes="aaaaaaaaa" />
          </g>
        </g>
        <g
           id="g4807"
           style="fill:#ffff00;stroke-width:1.51793814;stroke-miterlimit:4;stroke-dasharray:none">
          <g
             id="g4684"
             style="fill:#ffff00;stroke-width:1.51793814;stroke-miterlimit:4;stroke-dasharray:none">
            <path
               sodipodi:nodetypes="cssscccscc"
               inkscape:connector-curvature="0"
               id="path4686"
               d="m 193.78519,251.42236 c 0,11.82754 -2.96477,22.41631 -7.3125,29.59375 -4.07599,6.72885 -8.90446,10.21652 -13.84375,10.625 -0.32929,0.0272 -0.67002,0.0312 -1,0.0312 -0.24756,0 -0.5028,-0.0159 -0.75,-0.0312 l 0,0.0312 -14.8125,0 c 4.49479,4.7415 9.83362,7.5 15.5625,7.5 15.97682,0 28.9375,-21.37374 28.9375,-47.75 z"
               style="color:#000000;fill:#ffff00;fill-opacity:1;stroke:#806600;stroke-width:1.51793814;stroke-miterlimit:4;stroke-opacity:1;stroke-dasharray:none;marker:none;visibility:visible;display:inline;overflow:visible;enable-background:accumulate" />
          </g>
          <g
             id="g4678"
             style="fill:#ffff00;stroke-width:1.51793814;stroke-miterlimit:4;stroke-dasharray:none">
            <path
               style="color:#000000;fill:#ffff00;fill-opacity:1;stroke:#806600;stroke-width:1.51793814;stroke-miterlimit:4;stroke-opacity:1;stroke-dasharray:none;marker:none;visibility:visible;display:inline;overflow:visible;enable-background:accumulate"
               d="m 153.78519,251.42236 c 0,11.82754 -2.96477,22.41631 -7.3125,29.59375 -4.07599,6.72885 -8.90446,10.21652 -13.84375,10.625 -0.32929,0.0272 -0.67002,0.0312 -1,0.0312 -0.24756,0 -0.5028,-0.0159 -0.75,-0.0312 l 0,0.0312 -14.8125,0 c 4.49479,4.7415 9.83362,7.5 15.5625,7.5 15.97682,0 28.9375,-21.37374 28.9375,-47.75 z"
               id="path4680"
               inkscape:connector-curvature="0"
               sodipodi:nodetypes="cssscccscc" />
          </g>
          <g
             id="g4674"
             style="fill:#ffff00;stroke-width:1.51793814;stroke-miterlimit:4;stroke-dasharray:none">
            <path
               sodipodi:nodetypes="cssscccscc"
               inkscape:connector-curvature="0"
               id="path4660"
               d="m 107.78519,251.42236 c 0,11.82754 -2.96477,22.41631 -7.3125,29.59375 -4.07599,6.72885 -8.90446,10.21652 -13.84375,10.625 -0.32929,0.0272 -0.67002,0.0312 -1,0.0312 -0.24756,0 -0.5028,-0.0159 -0.75,-0.0312 l 0,0.0312 -14.8125,0 c 4.49479,4.7415 9.83362,7.5 15.5625,7.5 15.97682,0 28.9375,-21.37374 28.9375,-47.75 z"
               style="color:#000000;fill:#ffff00;fill-opacity:1;stroke:#806600;stroke-width:1.51793814;stroke-miterlimit:4;stroke-opacity:1;stroke-dasharray:none;marker:none;visibility:visible;display:inline;overflow:visible;enable-background:accumulate" />
          </g>
          <g
             id="g4655"
             style="fill:#ffff00;stroke-width:1.51793814;stroke-miterlimit:4;stroke-dasharray:none">
            <path
               style="color:#000000;fill:#ffff00;fill-opacity:1;stroke:#806600;stroke-width:1.51793814;stroke-miterlimit:4;stroke-opacity:1;stroke-dasharray:none;marker:none;visibility:visible;display:inline;overflow:visible;enable-background:accumulate"
               d="m 56.65533,245.0625 c 0.14192,1.79782 0.21875,3.63037 0.21875,5.5 0,1.86963 -0.0768,3.70086 -0.21875,5.5 l 181.25092,0 c 0.14192,-1.79914 0.21875,-3.63037 0.21875,-5.5 0,-1.87828 -0.0755,-3.70361 -0.21875,-5.5 z"
               id="path4624"
               inkscape:connector-curvature="0"
               sodipodi:nodetypes="csccscc" />
          </g>
        </g>
        <g
           id="g6037"
           style="stroke-width:1.51793814;stroke-miterlimit:4;stroke-dasharray:none">
          <g
             id="g6039"
             style="fill:#ffff00;stroke-width:1.51793814;stroke-miterlimit:4;stroke-dasharray:none">
            <path
               sodipodi:nodetypes="cssscccc"
               inkscape:connector-curvature="0"
               id="path6041"
               d="m 27.44375,153.40457 c 6.04107,0 12.00977,3.34343 16.98453,10.08847 4.97477,6.74504 8.36712,16.66653 8.36712,27.78153 0,11.115 -3.39235,21.06585 -8.36712,27.81089 -4.97476,6.74504 -10.94346,10.12246 -16.98453,10.12246 l -6,0 0,-75.80335 z"
               style="color:#000000;fill:#ffff00;fill-opacity:1;stroke:#806600;stroke-width:1.51793814;stroke-miterlimit:4;stroke-opacity:1;stroke-dasharray:none;marker:none;visibility:visible;display:inline;overflow:visible;enable-background:accumulate" />
            <path
               style="color:#000000;fill:#ffff00;fill-opacity:1;stroke:#806600;stroke-width:1.51793814;stroke-miterlimit:4;stroke-opacity:1;stroke-dasharray:none;marker:none;visibility:visible;display:inline;overflow:visible;enable-background:accumulate"
               d="m 21.92318,153.4494 c 6.04106,0 12.00977,3.2986 16.98453,10.04364 4.97476,6.74504 8.36712,16.66653 8.36712,27.78153 0,11.115 -3.39236,21.06585 -8.36712,27.81089 -4.97476,6.74504 -10.94347,10.01428 -16.98453,10.01428 -6.04107,0 -12.00977,-3.26924 -16.98453,-10.01428 -4.97477,-6.74504 -8.36712,-16.69589 -8.36712,-27.81089 0,-11.115 3.39235,-21.03649 8.36712,-27.78153 C 9.91341,156.748 15.88211,153.4494 21.92318,153.4494 z"
               id="path6043"
               inkscape:connector-curvature="0"
               sodipodi:nodetypes="sssssssss" />
          </g>
        </g>
        <g
           id="g6002"
           style="stroke-width:1.51793814;stroke-miterlimit:4;stroke-dasharray:none">
          <g
             id="g4254"
             style="stroke-width:1.51793814;stroke-miterlimit:4;stroke-dasharray:none">
            <path
               id="path4214"
               d="m 25.65625,210.4375 c -6.86425,0 -13.43959,4.16456 -18.5625,11.78125 -5.15655,7.6667 -8.53125,18.6204 -8.53125,30.875 0,12.2546 3.3747,23.2083 8.53125,30.875 5.12291,7.61669 11.69825,11.78125 18.5625,11.78125 6.86425,0 13.43959,-4.16456 18.5625,-11.78125 5.15655,-7.6667 8.53125,-18.6204 8.53125,-30.875 0,-12.2546 -3.3747,-23.2083 -8.53125,-30.875 C 39.09584,214.60206 32.5205,210.4375 25.65625,210.4375 z"
               style="color:#000000;fill:#ffff00;fill-opacity:1;stroke:#806600;stroke-width:1.59206975;stroke-miterlimit:4;stroke-opacity:1;stroke-dasharray:none;marker:none;visibility:visible;display:inline;overflow:visible;enable-background:accumulate"
               inkscape:connector-curvature="0"
               sodipodi:nodetypes="sssssssss" />
            <path
               inkscape:connector-curvature="0"
               style="color:#000000;fill:#ffff00;fill-opacity:1;stroke:#806600;stroke-width:1.51793814;stroke-miterlimit:4;stroke-opacity:1;stroke-dasharray:none;marker:none;visibility:visible;display:inline;overflow:visible;enable-background:accumulate"
               d="m 27.62894,203.67236 c -15.97682,0 -28.9375,21.37374 -28.9375,47.75 0,26.37626 12.96068,47.75 28.9375,47.75 15.97682,0 28.9375,-21.37374 28.9375,-47.75 0,-26.37626 -12.96068,-47.75 -28.9375,-47.75 z m 0,7.5 c 5.27963,0 10.49602,3.51006 14.84375,10.6875 4.34773,7.17744 7.3125,17.73496 7.3125,29.5625 0,11.82754 -2.96477,22.41631 -7.3125,29.59375 -4.34773,7.17744 -9.56412,10.65625 -14.84375,10.65625 -5.27963,0 -10.49602,-3.47881 -14.84375,-10.65625 -4.34773,-7.17744 -7.3125,-17.76621 -7.3125,-29.59375 0,-11.82754 2.96477,-22.38506 7.3125,-29.5625 4.34773,-7.17744 9.56412,-10.6875 14.84375,-10.6875 z"
               id="path4204"
               sodipodi:nodetypes="ssssssssssssss" />
          </g>
        </g>
      </g>
    </g>
  </g>
</svg>
