<?xml version="1.0" encoding="utf-8"?>
<svg xmlns:xl="http://www.w3.org/1999/xlink" xmlns="http://www.w3.org/2000/svg"
     xmlns:dc="http://purl.org/dc/elements/1.1/"
     xmlns:xlink="http://www.w3.org/1999/xlink"
     version="1.1"
     viewBox="81 63 63 351"
     width="63"
     height="351"
     preserveAspectRatio="xMidYMid meet"
     zoomAndPan="magnify"
     contentScriptType="application/ecmascript"
     contentStyleType="text/css">
   <defs/>
   <metadata  xmlns:svg="http://www.w3.org/2000/svg"
             xmlns:rdf="http://www.w3.org/1999/02/22-rdf-syntax-ns#"
             xmlns:cc="http://creativecommons.org/ns#">
      <rdf:RDF>
         <cc:Work rdf:about="">
            <dc:creator>
               <cc:Agent>
                  <dc:title>http://heraldicart.org Golf Club.svg</dc:title>
               </cc:Agent>
            </dc:creator>
         </cc:Work>
      </rdf:RDF>
   </metadata>
   <g stroke-opacity="1" fill="#ffff00" fill-opacity="1" stroke="#505050"
      stroke-dasharray="none">
      <title>Golf Club</title>
      <g>
         <title>Art</title>
         <g>
            <g>
               <path d="M 133.35034 339.53905 L 124.56889 339.53905 C 124.56889 339.53905 124.51768 80.42559 124.51768 71.75382 C 124.51768 63.08206 133.29913 63.08206 133.29913 71.75382 C 133.29913 80.42559 133.35034 339.53905 133.35034 339.53905 Z"/>
               <path d="M 133.35034 339.53905 L 124.56889 339.53905 C 124.56889 339.53905 124.51768 80.42559 124.51768 71.75382 C 124.51768 63.08206 133.29913 63.08206 133.29913 71.75382 C 133.29913 80.42559 133.35034 339.53905 133.35034 339.53905 Z"
                     stroke="black"
                     stroke-linecap="round"
                     stroke-linejoin="round"
                     stroke-width="1"/>
            </g>
            <g>
               <path d="M 140.64454 375.54174 C 140.64454 375.36637 140.65453 375.0193 140.6528 374.90607 L 138.19773 344.91442 C 138.05954 342.17974 136.75593 339.53905 133.88748 339.53905 L 124.04608 339.53905 C 121.17764 339.53905 120.60523 341.8577 120.10285 344.73284 L 117.64726 361.8155 C 117.64726 361.8155 117.17599 365.32276 116.38652 367.681 C 115.59758 370.0394 113.54825 371.50254 113.54825 371.50254 L 94.78358 386.16875 C 89.79048 389.66496 88.577 396.5469 92.07321 401.54 L 92.81797 402.60363 C 96.31418 407.59673 103.19612 408.8102 108.18922 405.314 C 108.18922 405.314 136.9409 383.3654 137.37604 382.93636 C 137.37604 382.93636 140.64454 380.4401 140.64454 375.54174 Z"/>
               <path d="M 140.64454 375.54174 C 140.64454 375.36637 140.65453 375.0193 140.6528 374.90607 L 138.19773 344.91442 C 138.05954 342.17974 136.75593 339.53905 133.88748 339.53905 L 124.04608 339.53905 C 121.17764 339.53905 120.60523 341.8577 120.10285 344.73284 L 117.64726 361.8155 C 117.64726 361.8155 117.17599 365.32276 116.38652 367.681 C 115.59758 370.0394 113.54825 371.50254 113.54825 371.50254 L 94.78358 386.16875 C 89.79048 389.66496 88.577 396.5469 92.07321 401.54 L 92.81797 402.60363 C 96.31418 407.59673 103.19612 408.8102 108.18922 405.314 C 108.18922 405.314 136.9409 383.3654 137.37604 382.93636 C 137.37604 382.93636 140.64454 380.4401 140.64454 375.54174 Z"
                     stroke="black"
                     stroke-linecap="round"
                     stroke-linejoin="round"
                     stroke-width="1"/>
            </g>
            <g>
               <g  id="feature-0">
                  <path 
                        d="M 109.24624 404.49 L 108.38613 405.14653 C 103.39303 408.64273 96.51108 407.42926 93.01487 402.43616 L 92.27012 401.37253 C 88.87952 396.53027 89.91836 389.91155 94.53835 386.32725 L 94.53553 386.32377 L 89.05429 390.60783 C 84.06119 394.10403 82.84772 400.986 86.34393 405.9791 L 87.08869 407.0427 C 90.58489 412.0358 97.46684 413.2493 102.45994 409.75307 L 109.28778 404.5413 Z"
                        fill="#ff0000"/>
               </g>
               <path d="M 109.24624 404.49 L 108.38613 405.14653 C 103.39303 408.64273 96.51108 407.42926 93.01487 402.43616 L 92.27012 401.37253 C 88.87952 396.53027 89.91836 389.91155 94.53835 386.32725 L 94.53553 386.32377 L 89.05429 390.60783 C 84.06119 394.10403 82.84772 400.986 86.34393 405.9791 L 87.08869 407.0427 C 90.58489 412.0358 97.46684 413.2493 102.45994 409.75307 L 109.28778 404.5413 Z"
                     stroke="black"
                     stroke-linecap="round"
                     stroke-linejoin="round"
                     stroke-width="1"/>
            </g>
         </g>
      </g>
   </g>
</svg>