<?xml version="1.0" encoding="utf-8"?>
<svg xmlns:xl="http://www.w3.org/1999/xlink" xmlns="http://www.w3.org/2000/svg"
     xmlns:dc="http://purl.org/dc/elements/1.1/"
     xmlns:xlink="http://www.w3.org/1999/xlink"
     version="1.1"
     viewBox="99 67.5 166.5 342"
     width="166.5"
     height="342"
     preserveAspectRatio="xMidYMid meet"
     zoomAndPan="magnify"
     contentScriptType="application/ecmascript"
     contentStyleType="text/css">
   <defs/>
   <metadata  xmlns:svg="http://www.w3.org/2000/svg"
             xmlns:rdf="http://www.w3.org/1999/02/22-rdf-syntax-ns#"
             xmlns:cc="http://creativecommons.org/ns#">
      <rdf:RDF>
         <cc:Work rdf:about="">
            <dc:creator>
               <cc:Agent>
                  <dc:title>http://heraldicart.org Polo Stick.svg</dc:title>
               </cc:Agent>
            </dc:creator>
         </cc:Work>
      </rdf:RDF>
   </metadata>
   <g stroke-opacity="1" fill="#ffff00" fill-opacity="1" stroke="#505050"
      stroke-dasharray="none">
      <title>Polo Stick</title>
      <g>
         <title>Art</title>
         <g>
            <path d="M 208.0147 383.42647 C 208.0147 409.1912 259.5441 409.1912 259.5441 383.42647 C 259.5441 357.66177 259.54415 151.54415 259.54415 151.54415 C 259.54415 131.76288 251.9978 111.98162 236.90513 96.88902 C 206.71992 66.70366 157.78008 66.70366 127.59487 96.88902 C 99.70528 124.77847 97.58412 168.67826 121.2314 199.00306 L 121.25757 198.9827 C 121.88584 199.78061 122.56793 200.54997 123.30385 201.28588 C 133.36558 211.34767 149.67887 211.34767 159.7406 201.28588 C 169.2439 191.78263 169.77139 176.70254 161.32304 166.5802 C 154.06978 156.51116 154.97264 142.3847 164.03162 133.32577 C 174.09336 123.26398 190.40664 123.26398 200.46838 133.32577 C 205.49927 138.35664 208.01472 144.9504 208.01472 151.54415 C 208.01472 151.54415 208.0147 357.66177 208.0147 383.42647 Z"/>
            <path d="M 208.0147 383.42647 C 208.0147 409.1912 259.5441 409.1912 259.5441 383.42647 C 259.5441 357.66177 259.54415 151.54415 259.54415 151.54415 C 259.54415 131.76288 251.9978 111.98162 236.90513 96.88902 C 206.71992 66.70366 157.78008 66.70366 127.59487 96.88902 C 99.70528 124.77847 97.58412 168.67826 121.2314 199.00306 L 121.25757 198.9827 C 121.88584 199.78061 122.56793 200.54997 123.30385 201.28588 C 133.36558 211.34767 149.67887 211.34767 159.7406 201.28588 C 169.2439 191.78263 169.77139 176.70254 161.32304 166.5802 C 154.06978 156.51116 154.97264 142.3847 164.03162 133.32577 C 174.09336 123.26398 190.40664 123.26398 200.46838 133.32577 C 205.49927 138.35664 208.01472 144.9504 208.01472 151.54415 C 208.01472 151.54415 208.0147 357.66177 208.0147 383.42647 Z"
                  stroke="black"
                  stroke-linecap="round"
                  stroke-linejoin="round"
                  stroke-width="2"/>
         </g>
      </g>
   </g>
</svg>