<?xml version="1.0" encoding="UTF-8" standalone="no"?>
<svg
   xmlns:dc="http://purl.org/dc/elements/1.1/"
   xmlns:cc="http://creativecommons.org/ns#"
   xmlns:rdf="http://www.w3.org/1999/02/22-rdf-syntax-ns#"
   xmlns:svg="http://www.w3.org/2000/svg"
   xmlns="http://www.w3.org/2000/svg"
   xmlns:sodipodi="http://sodipodi.sourceforge.net/DTD/sodipodi-0.dtd"
   xmlns:inkscape="http://www.inkscape.org/namespaces/inkscape"
   id="svg24450"
   xml:space="preserve"
   enable-background="new 0 0 482.39 479.87"
   viewBox="0 0 482.39 479.87"
   height="479.87px"
   width="482.39px"
   y="0px"
   x="0px"
   version="1.1"
   sodipodi:docname="de-lacy-knot.svg"
   inkscape:version="0.92.2 5c3e80d, 2017-08-06"><metadata
     id="metadata24456"><rdf:RDF><cc:Work
         rdf:about=""><dc:format>image/svg+xml</dc:format><dc:type
           rdf:resource="http://purl.org/dc/dcmitype/StillImage" /><dc:title></dc:title><dc:creator><cc:Agent><dc:title>https://commons.wikimedia.org/wiki/User:Fred_the_Oyster</dc:title></cc:Agent></dc:creator></cc:Work></rdf:RDF></metadata><defs
     id="defs24454" /><g
     id="knot"><g
       id="g23105"
       style="fill:#ffff00;stroke:#808080"><g
         id="g23099"
         style="fill:#ffff00;stroke:#808080"><path
           id="path23097"
           d="M221.7,3.43c-70.31,18.86-3.44,83.7-1.7,85.44c12.52,12.52,13.63,13.62,18.1,18.08l15.81-17     C270.58,74.47,282.41-3.6,221.7,3.43z M247.39,44.36c-0.39,6.97-4.09,20.52-9.85,27.53c-7.41-8.06-21.52-18.48-21.39-27.16     c0.17-11.33,1.41-18.13,14.99-20.5C240.39,22.61,247.78,37.39,247.39,44.36z"
           
           style="fill:#ffff00;stroke:#808080" /></g><g
         id="g23103"
         style="fill:#ffff00;stroke:#808080"><path
           id="path23101"
           d="M221.7,3.43c-70.31,18.86-3.44,83.7-1.7,85.44     c12.52,12.52,13.63,13.62,18.1,18.08l15.81-17C270.58,74.47,282.41-3.6,221.7,3.43z M247.39,44.36     c-0.39,6.97-4.09,20.52-9.85,27.53c-7.41-8.06-21.52-18.48-21.39-27.16c0.17-11.33,1.41-18.13,14.99-20.5     C240.39,22.61,247.78,37.39,247.39,44.36z"
           
           style="fill:#ffff00;stroke:#808080" /></g></g><g
       id="g23115"
       style="fill:#ffff00;stroke:#808080"><g
         id="g23109"
         style="fill:#ffff00;stroke:#808080"><path
           id="path23107"
           d="M102.58,106.94c-1.52,13.93-7.43,87.2,78.11,104.76c9.01,1.85,18.64,3.25,29.8,3.73     C205.48,98.4,117.97,105.28,102.58,106.94z M137.82,167.47c-10.99-12.8-14.69-28.42-15.63-40.91     c12.5,0.94,28.13,4.64,40.92,15.64c12.88,11.07,21.37,28.04,25.36,50.64C165.87,188.84,148.89,180.35,137.82,167.47z"
           
           style="fill:#ffff00;stroke:#808080" /></g><g
         id="g23113"
         style="fill:#ffff00;stroke:#808080"><path
           id="path23111"
           d="M102.58,106.94c-1.52,13.93-7.43,87.2,78.11,104.76     c9.01,1.85,18.64,3.25,29.8,3.73C205.48,98.4,117.97,105.28,102.58,106.94z M137.82,167.47c-10.99-12.8-14.69-28.42-15.63-40.91     c12.5,0.94,28.13,4.64,40.92,15.64c12.88,11.07,21.37,28.04,25.36,50.64C165.87,188.84,148.89,180.35,137.82,167.47z"
           
           style="fill:#ffff00;stroke:#808080" /></g></g><g
       id="g23125"
       style="fill:#ffff00"><g
         id="g23119"
         style="fill:#ffff00"><path
           id="path23117"
           d="M372.4,106.95c-15.39-1.68-103.31-8.73-108.31,108.31C381.12,210.25,374.07,122.34,372.4,106.95z      M337.15,167.48c-11.07,12.88-28.04,21.37-50.64,25.36c3.99-22.6,12.49-39.58,25.37-50.65c12.8-10.99,28.42-14.69,40.91-15.63     C351.85,139.05,348.15,154.68,337.15,167.48z"
           
           style="fill:#ffff00" /></g><g
         id="g23123"
         style="fill:#ffff00"><path
           id="path23121"
           d="M372.4,106.95c-15.39-1.68-103.31-8.73-108.31,108.31     C381.12,210.25,374.07,122.34,372.4,106.95z M337.15,167.48c-11.07,12.88-28.04,21.37-50.64,25.36     c3.99-22.6,12.49-39.58,25.37-50.65c12.8-10.99,28.42-14.69,40.91-15.63C351.85,139.05,348.15,154.68,337.15,167.48z"
           
           style="fill:#ffff00;stroke:#808080" /></g></g><path
       id="path23127"
       d="M145.82,284.49l-60.17-60.17l-13.97,13.97l57.51,58.07   C135.44,290.74,142.47,286.68,145.82,284.49"
       
       style="fill:#ffff00;stroke:#808080" /><g
       id="g23137"
       style="fill:#ffff00"><g
         id="g23131"
         style="fill:#ffff00"><path
           style="fill:#ffff00"
           id="path23129"
           d="M264.08,268.45c5.01,117.03,92.93,109.98,108.31,108.31C374.07,361.37,381.12,273.46,264.08,268.45z      M311.87,341.51c-12.88-11.07-21.37-28.04-25.36-50.64c22.6,3.99,39.58,12.49,50.65,25.37c10.99,12.8,14.69,28.42,15.63,40.91     C340.29,356.21,324.66,352.51,311.87,341.51z"
            /></g><g
         id="g23135"
         style="fill:#ffff00"><path
           style="stroke:#808080;stroke-width:1.5;fill:#ffff00"
           id="path23133"
           d="M264.08,268.45c5.01,117.03,92.93,109.98,108.31,108.31     C374.07,361.37,381.12,273.46,264.08,268.45z M311.87,341.51c-12.88-11.07-21.37-28.04-25.36-50.64     c22.6,3.99,39.58,12.49,50.65,25.37c10.99,12.8,14.69,28.42,15.63,40.91C340.29,356.21,324.66,352.51,311.87,341.51z"
            /></g></g><g
       id="g23147"
       style="fill:#ffff00;stroke:#808080"><g
         id="g23141"
         style="fill:#ffff00;stroke:#808080"><path
           id="path23139"
           d="M102.58,376.76c15.39,1.68,103.31,8.73,108.31-108.31C93.86,273.46,100.91,361.38,102.58,376.76z      M163.1,341.52c-12.8,10.99-28.42,14.69-40.91,15.63c0.94-12.5,4.64-28.13,15.64-40.92c11.07-12.88,28.04-21.37,50.64-25.36     c-1.39,7.84-3.31,15-5.78,21.47C178.06,324.54,171.51,334.29,163.1,341.52z"
           
           style="fill:#ffff00;stroke:#808080" /></g><g
         id="g23145"
         style="fill:#ffff00;stroke:#808080"><path
           id="path23143"
           d="M102.58,376.76c15.39,1.68,103.31,8.73,108.31-108.31     C93.86,273.46,100.91,361.38,102.58,376.76z M163.1,341.52c-12.8,10.99-28.42,14.69-40.91,15.63     c0.94-12.5,4.64-28.13,15.64-40.92c11.07-12.88,28.04-21.37,50.64-25.36c-1.39,7.84-3.31,15-5.78,21.47     C178.06,324.54,171.51,334.29,163.1,341.52z"
           
           style="fill:#ffff00;stroke:#808080" /></g></g><path
       id="path23149"
       d="M179.63,164.22l-77.03,77.03l-16.94-16.94l79.9-79.9   C170.53,148.2,178.04,159.97,179.63,164.22z"
       
       style="fill:#ffff00;stroke:#808080" /><path
       id="path23151"
       d="M194.15,149.7l59.75-59.75l-16.72-17.13l-57.68,57.65   C180.01,131.24,187.9,139.84,194.15,149.7z"
       
       style="fill:#ffff00;stroke:#808080" /><path
       id="path23153"
       d="M280.66,334.47l-42.58,42.28l16.94,16.94l40.25-40.25   C290.31,348.99,283.72,339.43,280.66,334.47z"
       
       style="fill:#ffff00;stroke:#808080" /><path
       id="path23155"
       d="M309.42,339.3l99.03-99.03l-18.14-14.98l-94.86,94.39   C297.9,325.18,304.08,334.34,309.42,339.3z"
       
       style="fill:#ffff00;stroke:#808080" /><path
       id="path23157"
       d="M160.67,299.33l77.42,77.42l-13.98,13.97l-80.42-80.42   C147.3,306.69,155.99,301.72,160.67,299.33z"
       
       style="fill:#ffff00;stroke:#808080" /><path
       id="path23159"
       d="M329.99,198.75l43.33,43.45l17.18-17.34l-41.11-41.11   C342.29,191.62,334.99,195.57,329.99,198.75z"
       
       style="fill:#ffff00;stroke:#808080" /><path
       id="path23161"
       d="M335.24,169.59L254.75,89.1l-17.16,17.5l77.43,77.43   C323.63,179.96,333.25,172.42,335.24,169.59z"
       
       style="fill:#ffff00;stroke:#808080" /><g
       id="g23171"
       style="fill:#ffff00;stroke:#808080"><g
         id="g23165"
         style="fill:#ffff00;stroke:#808080"><path
           id="path23163"
           d="M85.65,224.32c-1.74-1.74-63.83-68.96-82.68,1.34c-7.02,60.71,68.31,41.99,84.9,30.33l14.73-14.73     C98.13,236.79,98.17,236.84,85.65,224.32z M43.22,248.5c-6.97,0.39-21.75-6.99-20.13-16.26c2.38-13.58,10.03-15.67,21.36-15.84     c7.9-0.12,19.56,14.85,27.23,21.89C64.66,244.05,50.19,248.11,43.22,248.5z"
           
           style="fill:#ffff00;stroke:#808080" /></g><g
         id="g23169"
         style="fill:#ffff00;stroke:#808080"><path
           id="path23167"
           d="M85.65,224.32c-1.74-1.74-63.83-68.96-82.68,1.34     c-7.02,60.71,68.31,41.99,84.9,30.33l14.73-14.73C98.13,236.79,98.17,236.84,85.65,224.32z M43.22,248.5     c-6.97,0.39-21.75-6.99-20.13-16.26c2.38-13.58,10.03-15.67,21.36-15.84c7.9-0.12,19.56,14.85,27.23,21.89     C64.66,244.05,50.19,248.11,43.22,248.5z"
           
           style="fill:#ffff00;stroke:#808080" /></g></g><g
       id="g23181"
       style="fill:#ffff00"><g
         id="g23175"
         style="fill:#ffff00"><path
           id="path23173"
           d="M390.31,225.3l-16.99,16.9c4.47,4.47,4.04,4.12,16.56,16.64c1.74,1.74,63.22,62.41,88.43,0.24     C485.33,198.37,407.7,207.14,390.31,225.3z M456.34,247.76c-2.38,13.58-8.93,14.88-20.26,15.05     c-7.9,0.12-21.41-14.05-29.07-21.09c7.02-5.76,21.49-9.8,28.46-10.21C444.82,230.97,457.96,238.5,456.34,247.76z"
           
           style="fill:#ffff00" /></g><g
         id="g23179"
         style="fill:#ffff00"><path
           id="path23177"
           d="M390.31,225.3l-16.99,16.9c4.47,4.47,4.04,4.12,16.56,16.64     c1.74,1.74,63.22,62.41,88.43,0.24C485.33,198.37,407.7,207.14,390.31,225.3z M456.34,247.76c-2.38,13.58-8.93,14.88-20.26,15.05     c-7.9,0.12-21.41-14.05-29.07-21.09c7.02-5.76,21.49-9.8,28.46-10.21C444.82,230.97,457.96,238.5,456.34,247.76z"
           
           style="fill:#ffff00;stroke:#808080" /></g></g><g
       id="g23191"
       style="fill:#ffff00;stroke:#808080"><g
         id="g23185"
         style="fill:#ffff00;stroke:#808080"><path
           id="path23183"
           d="M255.03,393.7c-12.52-12.52-12.48-12.48-16.94-16.94l-14.24,14.24c-16.95,12.78-30.87,92.41,29.84,85.38     C318.09,454.2,256.77,395.44,255.03,393.7z M248.64,453.86c-9.26,1.62-18.17-10.77-17.79-17.74c0.39-6.97,4.45-21.44,10.21-28.46     c7.04,7.66,22.01,19.33,21.89,27.23C262.78,446.22,262.21,451.48,248.64,453.86z"
           
           style="fill:#ffff00;stroke:#808080" /></g><g
         id="g23189"
         style="fill:#ffff00;stroke:#808080"><path
           id="path23187"
           d="M255.03,393.7c-12.52-12.52-12.48-12.48-16.94-16.94l-14.24,14.24     c-16.95,12.78-30.87,92.41,29.84,85.38C318.09,454.2,256.77,395.44,255.03,393.7z M248.64,453.86     c-9.26,1.62-18.17-10.77-17.79-17.74c0.39-6.97,4.45-21.44,10.21-28.46c7.04,7.66,22.01,19.33,21.89,27.23     C262.78,446.22,262.21,451.48,248.64,453.86z"
           
           style="fill:#ffff00;stroke:#808080" /></g></g><g
       id="g23199"
       style="fill:#ffff00;stroke:#808080"><path
         style="fill:#ffff00;stroke:#808080"
         d="m 210.48,213.31 -0.17,57.51 -19.89,0.6 -0.78,-60.68"
         id="polyline23193" /><path
         style="fill:#ffff00;stroke:#808080"
         d="m 189.88,270.39 -0.71,-57.53"
         id="line23195" /><path
         style="fill:#ffff00;stroke:#808080"
         d="m 210.89,268.45 -0.53,-55.84"
         id="line23197" /></g><g
       id="g23207"
       style="fill:#ffff00"><path
         style="fill:#ffff00"
         d="m 191.58,270.39 73.76,-1.47 11.01,14.53 -9.02,6.78 -77.6,1.11"
         id="polyline23201" /><path
         style="fill:#ffff00;stroke:#000000"
         d="m 266.6,289.84 -78.13,1.03"
         id="line23203" /><path
         style="fill:#ffff00;stroke:#000000"
         d="m 189.88,270.39 74.2,-1.94"
         id="line23205" /></g><path
       style="fill:#ffff00"
       d="m 264.57,212.68 1.21,76.43 19.02,-0.56 0.87,-78.56 z"
       id="polygon23209" /><path
       style="fill:#ffff00;stroke:#808080"
       d="m 264.09,215.26 1.98,74.51"
       id="line23211" /><path
       style="fill:#ffff00;stroke:#808080"
       d="m 286.15,213.24 -1.15,56.94 1.51,20.7"
       id="polyline23213" /><path
       style="fill:#ffff00"
       d="m 395.75,252.32 -16.84,16.84 -16.01,-16.01 16.78,-16.7 z"
       id="polygon23215" /><path
       style="fill:#ffff00;stroke:#000000"
       d="m 255.03,393.7 -13.97,13.97"
       id="line23217" /><path
       style="fill:#ffff00"
       d="m 240.72,374.77 16.25,16.25 -4.63,4.6 -16.24,-16.24 z"
       id="polygon23219" /><path
       style="fill:#ffff00;stroke:#000000"
       d="m 71.68,238.29 16.94,16.94"
       id="line23221" /><path
       transform="matrix(0.7071 -0.7071 0.7071 0.7071 -147.5389 140.3081)"
       style="fill:#ffff00"
       d="m 86.24,245.69 h 18.71 v 5.13 h -18.71 z"
       id="rect23223" /><path
       style="fill:#ffff00;stroke:#000000"
       d="m 389.33,259.39 17.67,-17.66"
       id="line23225" /><path
       style="fill:#ffff00"
       d="m 254.04,89.03 -0.96,0.96 -17.23,-15.11 2.99,-2.98 z"
       id="polygon23227" /><path
       style="fill:#ffff00"
       d="m 286.51,192.84 -77.44,2.03 1.86,18.44 75.18,0 z"
       id="polygon23229" /><path
       style="fill:#ffff00;stroke:#808080"
       d="m 266.65,192.92 -58.07,1.7"
       id="line23231" /><path
       style="fill:#ffff00;stroke:#808080"
       d="m 264.48,213.78 -54,-0.47"
       id="line23233" /><path
       style="fill:#ffff00;stroke:#000000"
       d="m 188.51,192.67 0.67,20.77"
       id="line23235" /><path
       style="fill:#ffff00;stroke:#000000"
       d="m 264.48,213.78 21.67,-0.54"
       id="line23237" /><path
       style="fill:#ffff00;stroke:#000000"
       d="m 266.65,192.92 19.86,-0.1"
       id="line23239" /><g
       id="ring"
       style="fill:#ffff00"><g
         id="g23243"
         style="fill:#ffff00"><path
           id="path23241"
           d="M175.84,180.21c-34.05,34.05-34.05,89.25,0,123.29     s89.25,34.05,123.29,0s34.05-89.25,0-123.29S209.89,146.16,175.84,180.21z M287.62,291.98c-27.64,27.64-72.61,27.64-100.25,0     c-27.64-27.64-27.64-72.61,0-100.25c27.64-27.64,72.61-27.64,100.25,0C315.26,219.37,315.26,264.34,287.62,291.98z"
           
           style="fill:#ffff00" /></g><path
         style="fill:#ffff00;stroke:#808080;stroke-width:1.5"
         id="path23245"
         d="M175.84,180.21c-34.05,34.05-34.05,89.25,0,123.29    s89.25,34.05,123.29,0s34.05-89.25,0-123.29S209.89,146.16,175.84,180.21z M287.62,291.98c-27.64,27.64-72.61,27.64-100.25,0    c-27.64-27.64-27.64-72.61,0-100.25c27.64-27.64,72.61-27.64,100.25,0C315.26,219.37,315.26,264.34,287.62,291.98z"
          /></g><path
       id="path23248"
       d="M173.74,210.13l-1.13,1.69c-3-0.45-13.23-3.43-14.61-4.39l0.45-1.86   C159.53,206.33,170.32,209.62,173.74,210.13z"
       
       style="fill:#ffff00" /><path
       id="path23250"
       d="M158.45,205.21c3.14,1.89,14.53,4.82,16.03,5.08"
       
       style="fill:#ffff00" /><path
       id="path23252"
       d="M169.06,187.82c2.75,0.76,16,4.42,17.55,4.67"
       
       style="fill:#ffff00" /><g
       id="g23256"
       style="fill:#ffff00"><path
         id="path23254"
         d="M158.01,204.44c-0.33-2.48,9.1-15.3,10.18-16.37c1.37,0.46,18.72,5.03,19.66,5.26    c-5.29,5.22-12.46,15.2-12.94,16.53C171.86,209.45,159.98,205.8,158.01,204.44z"
         
         style="fill:#ffff00" /></g><path
       id="path23258"
       d="M199.83,321.94c0.63-1.14,4.81-15.57,5.63-17.47c-2.3-1.76-12.4-9.39-16.67-11.9   c-0.95,2.57-4.97,17.07-5.18,19.03C185.7,313.03,199.18,321.7,199.83,321.94z"
       
       style="fill:#ffff00" /><path
       id="path23260"
       d="M183.34,310.45c0.55-1.28,4.75-17.57,4.94-18.28"
       
       style="fill:#ffff00;stroke:#808080" /><path
       id="path23262"
       d="M200.73,320.93c0.55-1.28,4.79-15.05,4.98-15.76"
       
       style="fill:#ffff00" /><path
       id="path23264"
       d="M287.69,290.84c2.25-0.05,17.79,3.87,19.61,5.56c0.47-1.83,10-16.17,10.27-17.45   c-2.35-1.1-15.18-5.21-17.52-5.63C299.25,274.94,287.8,290.32,287.69,290.84z"
       
       style="fill:#ffff00" /><path
       id="path23266"
       d="M299.3,273.13c4.79,1.06,16.17,4.99,19.29,6.24"
       
       style="fill:#ffff00;stroke:#808080" /><path
       id="path23268"
       d="M286.51,290.88c4.33,0.36,17.89,4.24,21.55,5.81"
       
       style="fill:#ffff00" /><path
       id="path23270"
       d="M268.92,179.42c1.12-4.27,3.72-13.12,5.52-17.37c3.24,1.01,16.3,7.38,17.53,10.17   c-1.61,4.23-5.21,17.56-5.58,19.81C282.54,191.22,270.73,180.62,268.92,179.42z"
       
       style="fill:#ffff00" /><path
       id="path23272"
       d="M268.8,179.9c0.71-2.21,5.09-17.28,6.32-19.43"
       
       style="fill:#ffff00" /><path
       id="path23274"
       d="M286.24,192.57c0.46-2.02,3.39-14.76,6.16-21.5"
       
       style="fill:#ffff00" /><path
       id="path23276"
       d="M202.87,321.46l-1.53-0.75c0.99-2.88,3.86-12.64,4.63-14.96l1.01,0.63   C206.22,307.45,203.41,318.05,202.87,321.46z"
       
       style="fill:#ffff00" /><path
       id="path23278"
       d="M288.09,191.45l-0.87-0.87c0.48-3,3.59-14.95,4.56-16.32l1.1,0.85   C292.12,176.19,288.63,188.04,288.09,191.45z"
       
       style="fill:#ffff00" /><path
       id="path23280"
       d="M304.15,297.42l0.95-1.27c-2.79-1.19-14.86-4.57-16.53-4.47l-1.07,1.13   C288.81,292.74,300.97,296.07,304.15,297.42z"
       
       style="fill:#ffff00" /><path
       style="fill:#ffff00"
       d="m 239.72,107.94 -1.53,-1.37 16.51,-16.87 1.24,1.41 z"
       id="polygon23282" /><path
       id="path23284"
       d="M332.33,200.54c0,0,0.04,0-1.56-1.78c2.96-0.97,16.96-11.87,18.62-14.26c1.68,1.54,1.68,1.54,1.68,1.54   L332.33,200.54z"
       
       style="fill:#ffff00" /><path
       style="fill:#ffff00"
       d="m 264.6,217.17 -0,-2.91 21.03,-0.51 0.1,2.22 z"
       id="polygon23286" /><path
       style="fill:#ffff00"
       d="m 285.58,270.93 3,0.56 0.63,19.38 -2.22,-0.3 z"
       id="polygon23288" /><path
       style="fill:#ffff00"
       d="m 209.11,195.06 h 2.3 l 1.7,17.73 -2.22,0 z"
       id="polygon23290" /><path
       style="fill:#ffff00"
       d="m 188.47,293.75 0.4,-2.35 19.28,-0.34 -0.18,2.24 z"
       id="polygon23292" /><path
       style="fill:#ffff00"
       d="m 392.21,260.36 -1.58,-1.46 16.57,-16.77 1.09,1.45 z"
       id="polygon23294" /><path
       style="fill:#ffff00;stroke:#808080"
       d="m 336.99,315.18 -1.37,-1.25 13.38,-13.64 1.09,1.25 z"
       id="polygon23296" /><path
       style="fill:#ffff00"
       d="m 147.91,199.85 -2.06,-1.13 14.07,-14.1 2.02,0.81 z"
       id="polygon23298" /><path
       style="fill:#ffff00"
       d="m 243.09,409.03 -1.43,-1.36 13.56,-13.5 1.17,1.41 z"
       id="polygon23300" /><path
       style="fill:#ffff00"
       d="m 69.94,240.26 1.64,-1.35 16.31,16.28 -1.27,1.15 z"
       id="polygon23302" /><path
       style="fill:#ffff00"
       d="m 167.67,337.89 1.36,-1.52 13.6,13.56 -1.42,1.23 z"
       id="polygon23304" /><path
       id="path23306"
       d="M164.43,146.29c0,0-0.07-0.44,1.12-1.22c5.07,4.61,4.57,4.89,7.1,8.06c2.29,2.86,6.2,9.86,6.57,10.92   c-1.27,0.93-0.81,0.63-0.81,0.63s-7.68-11.57-7.29-11.04S164.43,146.29,164.43,146.29z"
       
       style="fill:#ffff00" /><path
       id="path23308"
       d="M188.84,192.83c0,0,0,0-0.27-1.52c4.63-5.05,4.19-3.84,7.36-6.36c2.87-2.28,8.22-5.27,9.29-5.64   c0.15,0.97,0.07,1.19,0.07,1.19s-9.38,6.37-8.86,5.98C196.96,186.09,188.84,192.83,188.84,192.83z"
       
       style="fill:#ffff00" /><path
       id="path23310"
       d="M278.65,337.12c0,0,0.38-0.58,1.85-1.86c2.49,4.04,12.16,16.62,13.99,18.25c-0.8,0.79-1.47,1.45-1.47,1.45   L278.65,337.12z"
       
       style="fill:#ffff00" /><path
       id="path23312"
       d="M189.73,291.34"
       
       style="fill:#ffff00" /></g><g
     id="decoration"
     style="fill:#ffff00" /></svg>