<?xml version="1.0" encoding="UTF-8" standalone="no"?>
<svg
   xmlns:dc="http://purl.org/dc/elements/1.1/"
   xmlns:cc="http://creativecommons.org/ns#"
   xmlns:rdf="http://www.w3.org/1999/02/22-rdf-syntax-ns#"
   xmlns:svg="http://www.w3.org/2000/svg"
   xmlns="http://www.w3.org/2000/svg"
   height="230"
   width="270"
   version="1.1"
   id="svg16906">
  <metadata
     id="metadata16912">
    <rdf:RDF>
      <cc:Work
         rdf:about="">
        <dc:format>image/svg+xml</dc:format>
        <dc:type
           rdf:resource="http://purl.org/dc/dcmitype/StillImage" />
        <dc:title></dc:title>
        <dc:creator>
          <cc:Agent>
            <dc:title>https://commons.wikimedia.org/wiki/User:Elisabeth_stilton</dc:title>
          </cc:Agent>
        </dc:creator>
      </cc:Work>
    </rdf:RDF>
  </metadata>
  <defs
     id="defs16910" />
  <g
     transform="translate(0,-102)"
     id="layer2">
    <g
       style="stroke-width:0.93165;stroke-miterlimit:4;stroke-dasharray:none;fill:#ffff00;stroke:#808080;stroke-opacity:1"
       transform="matrix(2.1467198,0,0,2.1467198,-59.651378,60.660029)"
       id="g17646">
      <path
         style="fill:#ffff00;stroke:#808080;stroke-width:0.93165;stroke-linecap:butt;stroke-linejoin:round;stroke-miterlimit:4;stroke-opacity:1;stroke-dasharray:none"
         d="m 113.00232,87.421784 c 2.77578,3.980929 6.44854,10.378515 7.75222,15.181846 1.91193,8.3006 4.15004,13.25917 8.32867,17.04327 8.31246,2.65247 13.56072,-2.65389 17.77942,-6.14766 -0.45527,-8.41815 -8.38423,-12.66789 -16.2395,-15.686038 -3.09754,-5.190732 -6.20083,-11.404109 -10.58841,-17.596087 m -6.52494,-8.495269 C 98.993143,54.627821 79.065697,40.1782 56.75643,52.236006 c -12.51054,5.27423 -33.586889,35.889156 5.524962,51.733734 31.957947,9.08314 56.412488,-17.209605 74.442658,-49.720118 2.45073,-11.603732 12.10147,-12.807463 13.5522,-22.411195 -2.25073,-5.213616 -8.70147,-3.027232 -12.5522,-8.040848 -7.00003,4.753984 -9.51199,14.137052 -9.45349,26.028074 -1.4993,5.709199 -3.92948,8.961321 -8.13047,14.962547 -4.10776,4.501478 -9.02711,9.904097 -14.55199,14.919031 C 94.14447,90.09463 80.103007,98.818761 65.295008,94.426626 43.623197,85.316086 50.896621,60.439738 73.833585,57.760968 85.054461,56.797433 97.031204,65.886933 106.75676,78.333789"
         id="path16938" />
      <path
         style="fill:#ffff00;stroke:#808080;stroke-width:0.93165;stroke-linecap:round;stroke-linejoin:miter;stroke-miterlimit:4;stroke-opacity:1;stroke-dasharray:none"
         d="m 129.8,106.8 c 3.53333,3.86667 5.06667,6.93333 7,12.2"
         id="path17448" />
      <path
         style="fill:#ffff00;stroke:#808080;stroke-width:0.93165;stroke-linecap:round;stroke-linejoin:miter;stroke-miterlimit:4;stroke-opacity:1;stroke-dasharray:none"
         d="m 133.6,106.6 c 2.26667,3.73333 4.53333,7.46667 6.8,11.2"
         id="path17450" />
      <path
         style="fill:#ffff00;stroke:#808080;stroke-width:0.93165;stroke-linecap:round;stroke-linejoin:miter;stroke-miterlimit:4;stroke-opacity:1;stroke-dasharray:none"
         d="m 133.6,103.2 c 5.06667,1.66667 7.93333,6.93333 12.2,11.6"
         id="path17452" />
      <path
         style="fill:#ffff00;stroke:#808080;stroke-width:0.93165;stroke-linecap:round;stroke-linejoin:miter;stroke-miterlimit:4;stroke-opacity:1;stroke-dasharray:none"
         d="m 145.8,29 c -1.06667,5.733333 -4.93333,10.266667 -8,13"
         id="path17454" />
      <path
         style="fill:#ffff00;stroke:#808080;stroke-width:0.93165;stroke-linecap:round;stroke-linejoin:miter;stroke-miterlimit:4;stroke-opacity:1;stroke-dasharray:none"
         d="m 143.4,27.4 c -2.93333,4.266667 -5.86667,6.933333 -7.8,12"
         id="path17456" />
      <path
         style="fill:#ffff00;stroke:#808080;stroke-width:0.93165;stroke-linecap:round;stroke-linejoin:miter;stroke-miterlimit:4;stroke-opacity:1;stroke-dasharray:none"
         d="m 123.4,66.4 c 1.04211,1.791506 -1.07368,5.075266 0.6,7.6"
         id="path17458" />
      <path
         style="fill:#ffff00;stroke:#808080;stroke-width:0.93165;stroke-linecap:round;stroke-linejoin:miter;stroke-miterlimit:4;stroke-opacity:1;stroke-dasharray:none"
         d="m 118.4,74.4 c 0.33333,2.533333 -2.41754,5.245614 -2,9.4"
         id="path17460" />
      <path
         style="fill:#ffff00;stroke:#808080;stroke-width:0.93165;stroke-linecap:round;stroke-linejoin:miter;stroke-miterlimit:4;stroke-opacity:1;stroke-dasharray:none"
         d="m 112,78 c -0.2,5.133333 -5.74737,8.019299 -6,14.7"
         id="path17462" />
      <path
         style="fill:#ffff00;stroke:#808080;stroke-width:0.93165;stroke-linecap:round;stroke-linejoin:miter;stroke-miterlimit:4;stroke-opacity:1;stroke-dasharray:none"
         d="M 82.305263,100.52632 C 79.505263,101.01404 78.1,103.13333 76.5,105.2"
         id="path17464" />
      <path
         style="fill:#ffff00;stroke:#808080;stroke-width:0.93165;stroke-linecap:round;stroke-linejoin:miter;stroke-miterlimit:4;stroke-opacity:1;stroke-dasharray:none"
         d="m 73.8,96 c -1.666667,1.4 -3.733333,3.8 -6.2,3.8"
         id="path17466" />
      <path
         style="fill:#ffff00;stroke:#808080;stroke-width:0.93165;stroke-linecap:round;stroke-linejoin:miter;stroke-miterlimit:4;stroke-opacity:1;stroke-dasharray:none"
         d="m 65.8,95.4 c -2.133333,2.066667 -5.066667,2.733333 -8.2,2.6"
         id="path17468" />
      <path
         style="fill:#ffff00;stroke:#808080;stroke-width:0.93165;stroke-linecap:round;stroke-linejoin:miter;stroke-miterlimit:4;stroke-opacity:1;stroke-dasharray:none"
         d="M 54,86 C 51.4,84.2 49.4,80.6 45.4,80"
         id="path17470" />
      <path
         style="fill:#ffff00;stroke:#808080;stroke-width:0.93165;stroke-linecap:round;stroke-linejoin:miter;stroke-miterlimit:4;stroke-opacity:1;stroke-dasharray:none"
         d="m 54,70.2 c -0.666667,-4.8 -1.133333,-7.8 -0.4,-13"
         id="path17472" />
      <path
         style="fill:#ffff00;stroke:#808080;stroke-width:0.93165;stroke-linecap:round;stroke-linejoin:miter;stroke-miterlimit:4;stroke-opacity:1;stroke-dasharray:none"
         d="m 70,53.8 c 4.442105,-0.670175 7.831579,-2.814035 11.431579,-4.747368"
         id="path17474" />
      <path
         style="fill:#ffff00;stroke:#808080;stroke-width:0.93165;stroke-linecap:round;stroke-linejoin:miter;stroke-miterlimit:4;stroke-opacity:1;stroke-dasharray:none"
         d="M 87.747368,57.305263 C 90.080701,55.764909 93.466667,55.066667 95.8,55"
         id="path17476" />
      <path
         style="fill:#ffff00;stroke:#808080;stroke-width:0.93165;stroke-linecap:round;stroke-linejoin:miter;stroke-miterlimit:4;stroke-opacity:1;stroke-dasharray:none"
         d="M 100.32632,64.021053 C 102.79299,63.470175 106.73333,65.866667 109.2,67"
         id="path17478" />
      <path
         style="fill:#ffff00;stroke:#808080;stroke-width:0.93165;stroke-linecap:butt;stroke-linejoin:round;stroke-miterlimit:4;stroke-opacity:1;stroke-dasharray:none"
         d="m 65.649515,104.94827 c -1.316934,8.8322 -2.989163,13.58121 -6.898165,17.85607 -8.126101,3.40082 -13.757898,-1.75936 -18.229496,-5.09956 -0.148879,-8.84583 3.944529,-15.4338 11.586963,-19.183019 3.180232,2.694829 8.886781,5.673369 13.540698,6.426509 z M 125.44639,88.472944 C 140.60927,75.84892 129.46165,56.794998 109.785,55.875711 c -3.41344,-0.05009 -6.84829,0.683336 -10.223753,2.111002 l -9.014791,-5.957054 c 9.248199,-6.280108 20.487464,-8.554021 35.727424,-3.325143 11.21883,3.985485 30.97815,30.041466 4.15279,47.852374 -2.15132,-2.554298 -2.40791,-4.055964 -4.98028,-8.083946 z m -4.77548,13.745866 C 89.349411,114.12697 63.416283,88.44208 43.043218,55.766228 39.75821,43.804186 33.384742,42.42698 31.243812,32.48331 c 1.877527,-5.626375 8.488397,-3.822328 11.981067,-9.359535 7.344767,4.450406 10.531604,14.083385 11.326779,26.534624 1.909921,5.863447 4.574772,9.085045 9.208673,15.051237 4.432956,4.403343 9.74259,9.688991 15.630219,14.523347 12.194989,10.013372 23.08021,19.985336 37.58012,14.275626 1.23341,2.482346 2.88788,5.806797 3.70024,8.710201 z"
         id="path16938-4" />
      <path
         style="fill:#ffff00;stroke:#808080;stroke-width:0.93165;stroke-linecap:butt;stroke-linejoin:miter;stroke-miterlimit:4;stroke-opacity:1;stroke-dasharray:none"
         d="M 92,63.368421 C 88.140351,60.561403 86.596491,59.649122 82.315789,58.947368 70.9406,64.94929 67.023053,84.401953 59.789474,90.315789 c 2.666667,3.298246 4.701755,4.701755 8.842106,5.052633 C 77.439964,85.359506 79.069844,71.515976 92,63.368421 z"
         id="path17606" />
      <path
         style="fill:#ffff00;stroke:#808080;stroke-width:0.93165;stroke-linecap:round;stroke-linejoin:miter;stroke-miterlimit:4;stroke-opacity:1;stroke-dasharray:none"
         d="m 33.894737,28.842105 c 4.210526,9.052632 9.68421,11.368421 9.68421,11.368421"
         id="path17608" />
      <path
         style="fill:#ffff00;stroke:#808080;stroke-width:0.93165;stroke-linecap:round;stroke-linejoin:miter;stroke-miterlimit:4;stroke-opacity:1;stroke-dasharray:none"
         d="m 40,26.736842 c 4.210526,8.421053 8.631579,10.105263 8.631579,10.105263"
         id="path17610" />
      <path
         style="fill:#ffff00;stroke:#808080;stroke-width:0.93165;stroke-linecap:round;stroke-linejoin:miter;stroke-miterlimit:4;stroke-opacity:1;stroke-dasharray:none"
         d="m 84,69.263158 c -2.105263,-2.45614 -2.31579,-4.912281 -1.263158,-6.736842"
         id="path17616" />
      <path
         style="fill:#ffff00;stroke:#808080;stroke-width:0.93165;stroke-linecap:round;stroke-linejoin:miter;stroke-miterlimit:4;stroke-opacity:1;stroke-dasharray:none"
         d="M 76,84.210526 C 75.745686,80.140351 75.852339,75.859649 74.105263,71.789474"
         id="path17618" />
      <path
         style="fill:#ffff00;stroke:#808080;stroke-width:0.93165;stroke-linecap:round;stroke-linejoin:miter;stroke-miterlimit:4;stroke-opacity:1;stroke-dasharray:none"
         d="M 71.368421,91.789474 C 70.807018,88.701755 71.08772,84.350877 69.684211,82.526316"
         id="path17620" />
      <path
         style="fill:#ffff00;stroke:#808080;stroke-width:0.93165;stroke-linecap:round;stroke-linejoin:miter;stroke-miterlimit:4;stroke-opacity:1;stroke-dasharray:none"
         d="m 56.631579,124 c -0.210526,-6.31579 1.473684,-9.89474 4.421053,-12"
         id="path17622" />
      <path
         style="fill:#ffff00;stroke:#808080;stroke-width:0.93165;stroke-linecap:round;stroke-linejoin:miter;stroke-miterlimit:4;stroke-opacity:1;stroke-dasharray:none"
         d="M 49.052632,122.52632 C 52.421053,119.36842 51.578948,111.78948 56,109.89474"
         id="path17624" />
      <path
         style="fill:#ffff00;stroke:#808080;stroke-width:0.93165;stroke-linecap:round;stroke-linejoin:miter;stroke-miterlimit:4;stroke-opacity:1;stroke-dasharray:none"
         d="m 42.105263,118.94737 c 1.966031,-6.41826 4.828101,-11.43852 8.631579,-13.68421"
         id="path17626" />
      <path
         style="fill:#ffff00;stroke:#808080;stroke-width:0.93165;stroke-linecap:round;stroke-linejoin:miter;stroke-miterlimit:4;stroke-opacity:1;stroke-dasharray:none"
         d="M 49.052631,63.789474 C 49.543859,60.842105 48.982456,57.894737 51.368421,56"
         id="path17628" />
      <path
         style="fill:#ffff00;stroke:#808080;stroke-width:0.93165;stroke-linecap:round;stroke-linejoin:miter;stroke-miterlimit:4;stroke-opacity:1;stroke-dasharray:none"
         d="m 58.736842,76.631579 c -0.701754,-3.157895 0.07018,-6.315789 1.052632,-7.578947"
         id="path17630" />
      <path
         style="fill:#ffff00;stroke:#808080;stroke-width:0.93165;stroke-linecap:round;stroke-linejoin:miter;stroke-miterlimit:4;stroke-opacity:1;stroke-dasharray:none"
         d="m 82.315789,97.894736 c -0.701754,-1.964912 -2.245614,-5.824561 -1.473684,-9.05263"
         id="path17632" />
      <path
         style="fill:#ffff00;stroke:#808080;stroke-width:0.93165;stroke-linecap:round;stroke-linejoin:miter;stroke-miterlimit:4;stroke-opacity:1;stroke-dasharray:none"
         d="M 95.789474,103.57894 C 92.912281,100.8421 91.08772,96.421051 89.684211,92"
         id="path17634" />
      <path
         style="fill:#ffff00;stroke:#808080;stroke-width:0.93165;stroke-linecap:round;stroke-linejoin:miter;stroke-miterlimit:4;stroke-opacity:1;stroke-dasharray:none"
         d="m 108.8421,104.8421 c -3.22807,-2.24561 -5.19298,-4.49122 -6.31578,-7.789468"
         id="path17636" />
      <path
         style="fill:#ffff00;stroke:#808080;stroke-width:0.93165;stroke-linecap:round;stroke-linejoin:miter;stroke-miterlimit:4;stroke-opacity:1;stroke-dasharray:none"
         d="M 106.73684,46.105263 C 104.8421,48 102.94737,49.894737 101.05263,51.789474"
         id="path17638" />
      <path
         style="fill:#ffff00;stroke:#808080;stroke-width:0.93165;stroke-linecap:round;stroke-linejoin:miter;stroke-miterlimit:4;stroke-opacity:1;stroke-dasharray:none"
         d="m 128,49.684211 c -5.12281,0.280702 -10.24561,0.561403 -15.36842,0.842105"
         id="path17640" />
      <path
         style="fill:#ffff00;stroke:#808080;stroke-width:0.93165;stroke-linecap:round;stroke-linejoin:miter;stroke-miterlimit:4;stroke-opacity:1;stroke-dasharray:none"
         d="m 141.05263,65.473684 c -2.59649,-1.263158 -5.19298,-2.526315 -7.78947,-3.789473"
         id="path17642" />
      <path
         style="fill:#ffff00;stroke:#808080;stroke-width:0.93165;stroke-linecap:round;stroke-linejoin:miter;stroke-miterlimit:4;stroke-opacity:1;stroke-dasharray:none"
         d="m 138.73684,88.631579 c -0.35088,-2.45614 -0.70175,-4.912281 -1.05263,-7.368421"
         id="path17644" />
    </g>
  </g>
</svg>
