<?xml version="1.0" encoding="utf-8"?>
<svg xmlns:dc="http://purl.org/dc/elements/1.1/" xmlns:xl="http://www.w3.org/1999/xlink"
     xmlns="http://www.w3.org/2000/svg"
     xmlns:xlink="http://www.w3.org/1999/xlink"
     version="1.1"
     viewBox="33.75 60.75 297 297"
     width="297"
     height="297"
     preserveAspectRatio="xMidYMid meet"
     zoomAndPan="magnify"
     contentScriptType="application/ecmascript"
     contentStyleType="text/css">
   <defs/>
   <metadata xmlns="" xmlns:svg="http://www.w3.org/2000/svg"
             xmlns:rdf="http://www.w3.org/1999/02/22-rdf-syntax-ns#"
             xmlns:cc="http://creativecommons.org/ns#">
      <rdf:RDF>
         <cc:Work rdf:about="">
            <dc:creator>
               <cc:Agent>
                  <dc:title>http://heraldicart.org Knot, Solomon's (1).svg</dc:title>
               </cc:Agent>
            </dc:creator>
         </cc:Work>
      </rdf:RDF>
   </metadata>
   <g stroke="#505050" fill="#ffff00" stroke-opacity="1" stroke-dasharray="none"
      fill-opacity="1">
      <title>Knot, Solomon's (1)</title>
      <g>
         <title>Art</title>
         <g>
            <g>
               <path d="M 214.4202 134.18617 L 214.4202 140.31383 L 232.8032 140.31383 L 232.8032 134.18617 C 232.8032 106.2664 210.16972 83.63298 182.25 83.63298 C 154.33028 83.63298 131.69681 106.2664 131.69681 134.18617 L 131.69681 223.03723 L 150.07979 223.03723 L 150.07979 134.18617 C 150.07979 115.57299 164.4829 100.48404 182.25 100.48404 C 200.0171 100.48404 214.4202 115.57299 214.4202 134.18617 Z"/>
               <path d="M 214.4202 134.18617 L 214.4202 140.31383 L 232.8032 140.31383 L 232.8032 134.18617 C 232.8032 106.2664 210.16972 83.63298 182.25 83.63298 C 154.33028 83.63298 131.69681 106.2664 131.69681 134.18617 L 131.69681 223.03723 L 150.07979 223.03723 L 150.07979 134.18617 C 150.07979 115.57299 164.4829 100.48404 182.25 100.48404 C 200.0171 100.48404 214.4202 115.57299 214.4202 134.18617 Z"
                     stroke="black"
                     stroke-linecap="round"
                     stroke-linejoin="round"
                     stroke-width="2"/>
            </g>
            <g>
               <path d="M 232.8032 134.18617 L 232.8032 134.21188 L 232.8032 140.31383 L 251.18617 140.31383 L 251.18617 134.21188 L 251.18617 134.18617 L 251.18617 134.18617 C 251.17227 96.12556 220.31377 65.25 182.25 65.25 C 144.19495 65.25 113.34187 96.13753 113.31385 134.18614 L 113.31383 134.18617 L 113.31383 134.23802 L 113.31383 223.03723 L 131.69681 223.03723 L 131.69681 134.23802 L 131.69681 134.18617 C 131.72482 106.29019 154.34756 83.63298 182.25 83.63298 C 210.16115 83.63298 232.7893 106.2782 232.80319 134.18616 Z M 232.80319 134.18617 Z M 232.8032 134.21188 C 232.8032 134.20331 232.8032 134.19474 232.8032 134.21188 Z"/>
               <path d="M 232.8032 134.18617 L 232.8032 134.21188 L 232.8032 140.31383 L 251.18617 140.31383 L 251.18617 134.21188 L 251.18617 134.18617 L 251.18617 134.18617 C 251.17227 96.12556 220.31377 65.25 182.25 65.25 C 144.19495 65.25 113.34187 96.13753 113.31385 134.18614 L 113.31383 134.18617 L 113.31383 134.23802 L 113.31383 223.03723 L 131.69681 223.03723 L 131.69681 134.23802 L 131.69681 134.18617 C 131.72482 106.29019 154.34756 83.63298 182.25 83.63298 C 210.16115 83.63298 232.7893 106.2782 232.80319 134.18616 Z M 232.80319 134.18617 Z M 232.8032 134.21188 C 232.8032 134.20331 232.8032 134.19474 232.8032 134.21188 Z"
                     stroke="black"
                     stroke-linecap="round"
                     stroke-linejoin="round"
                     stroke-width="2"/>
            </g>
            <g>
               <path d="M 196.03723 134.18617 L 196.03723 140.31383 L 214.4202 140.31383 L 214.4202 134.18617 C 214.4202 115.57299 200.0171 100.48404 182.25 100.48404 C 164.4829 100.48404 150.07979 115.57299 150.07979 134.18617 L 150.07979 223.03723 L 168.46277 223.03723 L 168.46277 134.18617 C 168.46277 126.57169 174.63553 120.39894 182.25 120.39894 C 189.86447 120.39894 196.03723 126.57169 196.03723 134.18617 Z"/>
               <path d="M 196.03723 134.18617 L 196.03723 140.31383 L 214.4202 140.31383 L 214.4202 134.18617 C 214.4202 115.57299 200.0171 100.48404 182.25 100.48404 C 164.4829 100.48404 150.07979 115.57299 150.07979 134.18617 L 150.07979 223.03723 L 168.46277 223.03723 L 168.46277 134.18617 C 168.46277 126.57169 174.63553 120.39894 182.25 120.39894 C 189.86447 120.39894 196.03723 126.57169 196.03723 134.18617 Z"
                     stroke="black"
                     stroke-linecap="round"
                     stroke-linejoin="round"
                     stroke-width="2"/>
            </g>
            <g>
               <path d="M 150.07979 284.31383 L 150.07979 278.18617 L 131.69681 278.18617 L 131.69681 284.31383 C 131.69681 312.2336 154.33028 334.86702 182.25 334.86702 C 210.16972 334.86702 232.8032 312.2336 232.8032 284.31383 L 232.8032 195.46277 L 214.4202 195.46277 L 214.4202 284.31383 C 214.4202 302.927 200.0171 318.01596 182.25 318.01596 C 164.4829 318.01596 150.07979 302.927 150.07979 284.31383 Z"/>
               <path d="M 150.07979 284.31383 L 150.07979 278.18617 L 131.69681 278.18617 L 131.69681 284.31383 C 131.69681 312.2336 154.33028 334.86702 182.25 334.86702 C 210.16972 334.86702 232.8032 312.2336 232.8032 284.31383 L 232.8032 195.46277 L 214.4202 195.46277 L 214.4202 284.31383 C 214.4202 302.927 200.0171 318.01596 182.25 318.01596 C 164.4829 318.01596 150.07979 302.927 150.07979 284.31383 Z"
                     stroke="black"
                     stroke-linecap="round"
                     stroke-linejoin="round"
                     stroke-width="2"/>
            </g>
            <g>
               <path d="M 131.69681 284.31383 L 131.69681 284.28812 L 131.69681 278.18617 L 113.31383 278.18617 L 113.31383 284.28812 L 113.31383 284.31383 L 113.31383 284.31383 C 113.32773 322.37444 144.18623 353.25 182.25 353.25 C 220.30505 353.25 251.15813 322.36247 251.18615 284.31386 L 251.18617 284.31383 L 251.18617 284.26198 L 251.18617 195.46277 L 232.8032 195.46277 L 232.8032 284.26198 L 232.8032 284.31383 C 232.77518 312.2098 210.15244 334.86702 182.25 334.86702 C 154.33885 334.86702 131.71071 312.2218 131.69681 284.31384 Z M 131.69681 284.31383 Z M 131.69681 284.28812 C 131.69681 284.2967 131.69681 284.30526 131.69681 284.28812 Z"/>
               <path d="M 131.69681 284.31383 L 131.69681 284.28812 L 131.69681 278.18617 L 113.31383 278.18617 L 113.31383 284.28812 L 113.31383 284.31383 L 113.31383 284.31383 C 113.32773 322.37444 144.18623 353.25 182.25 353.25 C 220.30505 353.25 251.15813 322.36247 251.18615 284.31386 L 251.18617 284.31383 L 251.18617 284.26198 L 251.18617 195.46277 L 232.8032 195.46277 L 232.8032 284.26198 L 232.8032 284.31383 C 232.77518 312.2098 210.15244 334.86702 182.25 334.86702 C 154.33885 334.86702 131.71071 312.2218 131.69681 284.31384 Z M 131.69681 284.31383 Z M 131.69681 284.28812 C 131.69681 284.2967 131.69681 284.30526 131.69681 284.28812 Z"
                     stroke="black"
                     stroke-linecap="round"
                     stroke-linejoin="round"
                     stroke-width="2"/>
            </g>
            <g>
               <path d="M 168.46277 284.31383 L 168.46277 278.18617 L 150.07979 278.18617 L 150.07979 284.31383 C 150.07979 302.927 164.4829 318.01596 182.25 318.01596 C 200.0171 318.01596 214.4202 302.927 214.4202 284.31383 L 214.4202 195.46277 L 196.03723 195.46277 L 196.03723 284.31383 C 196.03723 291.9283 189.86447 298.10106 182.25 298.10106 C 174.63553 298.10106 168.46277 291.9283 168.46277 284.31383 Z"/>
               <path d="M 168.46277 284.31383 L 168.46277 278.18617 L 150.07979 278.18617 L 150.07979 284.31383 C 150.07979 302.927 164.4829 318.01596 182.25 318.01596 C 200.0171 318.01596 214.4202 302.927 214.4202 284.31383 L 214.4202 195.46277 L 196.03723 195.46277 L 196.03723 284.31383 C 196.03723 291.9283 189.86447 298.10106 182.25 298.10106 C 174.63553 298.10106 168.46277 291.9283 168.46277 284.31383 Z"
                     stroke="black"
                     stroke-linecap="round"
                     stroke-linejoin="round"
                     stroke-width="2"/>
            </g>
            <g>
               <path d="M 257.31383 241.4202 L 251.18617 241.4202 L 251.18617 259.8032 L 257.31383 259.8032 C 285.2336 259.8032 307.86702 237.16972 307.86702 209.25 C 307.86702 181.33028 285.2336 158.6968 257.31383 158.6968 L 168.46277 158.6968 L 168.46277 177.07979 L 257.31383 177.07979 C 275.927 177.07979 291.01596 191.4829 291.01596 209.25 C 291.01596 227.0171 275.927 241.4202 257.31383 241.4202 Z"/>
               <path d="M 257.31383 241.4202 L 251.18617 241.4202 L 251.18617 259.8032 L 257.31383 259.8032 C 285.2336 259.8032 307.86702 237.16972 307.86702 209.25 C 307.86702 181.33028 285.2336 158.6968 257.31383 158.6968 L 168.46277 158.6968 L 168.46277 177.07979 L 257.31383 177.07979 C 275.927 177.07979 291.01596 191.4829 291.01596 209.25 C 291.01596 227.0171 275.927 241.4202 257.31383 241.4202 Z"
                     stroke="black"
                     stroke-linecap="round"
                     stroke-linejoin="round"
                     stroke-width="2"/>
            </g>
            <g>
               <path d="M 257.31383 259.8032 L 257.28812 259.8032 L 251.18617 259.8032 L 251.18617 278.18617 L 257.28812 278.18617 L 257.31383 278.18617 L 257.31383 278.18617 C 295.37444 278.17227 326.25 247.31377 326.25 209.25 C 326.25 171.19495 295.36247 140.34187 257.31386 140.31385 L 257.31383 140.31383 L 257.26198 140.31383 L 168.46277 140.31383 L 168.46277 158.6968 L 257.26198 158.6968 L 257.31383 158.6968 C 285.2098 158.72482 307.86702 181.34756 307.86702 209.25 C 307.86702 237.16115 285.2218 259.7893 257.31384 259.8032 Z M 257.31383 259.8032 Z M 257.28812 259.8032 C 257.2967 259.8032 257.30526 259.8032 257.28812 259.8032 Z"/>
               <path d="M 257.31383 259.8032 L 257.28812 259.8032 L 251.18617 259.8032 L 251.18617 278.18617 L 257.28812 278.18617 L 257.31383 278.18617 L 257.31383 278.18617 C 295.37444 278.17227 326.25 247.31377 326.25 209.25 C 326.25 171.19495 295.36247 140.34187 257.31386 140.31385 L 257.31383 140.31383 L 257.26198 140.31383 L 168.46277 140.31383 L 168.46277 158.6968 L 257.26198 158.6968 L 257.31383 158.6968 C 285.2098 158.72482 307.86702 181.34756 307.86702 209.25 C 307.86702 237.16115 285.2218 259.7893 257.31384 259.8032 Z M 257.31383 259.8032 Z M 257.28812 259.8032 C 257.2967 259.8032 257.30526 259.8032 257.28812 259.8032 Z"
                     stroke="black"
                     stroke-linecap="round"
                     stroke-linejoin="round"
                     stroke-width="2"/>
            </g>
            <g>
               <path d="M 257.31383 223.03723 L 251.18617 223.03723 L 251.18617 241.4202 L 257.31383 241.4202 C 275.927 241.4202 291.01596 227.0171 291.01596 209.25 C 291.01596 191.4829 275.927 177.07979 257.31383 177.07979 L 168.46277 177.07979 L 168.46277 195.46277 L 257.31383 195.46277 C 264.9283 195.46277 271.10106 201.63553 271.10106 209.25 C 271.10106 216.86447 264.9283 223.03723 257.31383 223.03723 Z"/>
               <path d="M 257.31383 223.03723 L 251.18617 223.03723 L 251.18617 241.4202 L 257.31383 241.4202 C 275.927 241.4202 291.01596 227.0171 291.01596 209.25 C 291.01596 191.4829 275.927 177.07979 257.31383 177.07979 L 168.46277 177.07979 L 168.46277 195.46277 L 257.31383 195.46277 C 264.9283 195.46277 271.10106 201.63553 271.10106 209.25 C 271.10106 216.86447 264.9283 223.03723 257.31383 223.03723 Z"
                     stroke="black"
                     stroke-linecap="round"
                     stroke-linejoin="round"
                     stroke-width="2"/>
            </g>
            <g>
               <path d="M 107.18617 177.07979 L 113.31383 177.07979 L 113.31383 158.6968 L 107.18617 158.6968 C 79.2664 158.6968 56.63298 181.33028 56.63298 209.25 C 56.63298 237.16972 79.2664 259.8032 107.18617 259.8032 L 196.03723 259.8032 L 196.03723 241.4202 L 107.18617 241.4202 C 88.57299 241.4202 73.48404 227.0171 73.48404 209.25 C 73.48404 191.4829 88.57299 177.07979 107.18617 177.07979 Z"/>
               <path d="M 107.18617 177.07979 L 113.31383 177.07979 L 113.31383 158.6968 L 107.18617 158.6968 C 79.2664 158.6968 56.63298 181.33028 56.63298 209.25 C 56.63298 237.16972 79.2664 259.8032 107.18617 259.8032 L 196.03723 259.8032 L 196.03723 241.4202 L 107.18617 241.4202 C 88.57299 241.4202 73.48404 227.0171 73.48404 209.25 C 73.48404 191.4829 88.57299 177.07979 107.18617 177.07979 Z"
                     stroke="black"
                     stroke-linecap="round"
                     stroke-linejoin="round"
                     stroke-width="2"/>
            </g>
            <g>
               <path d="M 107.18617 158.6968 L 107.21188 158.6968 L 113.31383 158.6968 L 113.31383 140.31383 L 107.21188 140.31383 L 107.18617 140.31383 L 107.18617 140.31383 C 69.12556 140.32773 38.25 171.18623 38.25 209.25 C 38.25 247.30505 69.13753 278.15813 107.18614 278.18615 L 107.18617 278.18617 L 107.23802 278.18617 L 196.03723 278.18617 L 196.03723 259.8032 L 107.23802 259.8032 L 107.18617 259.8032 C 79.29019 259.77518 56.63298 237.15244 56.63298 209.25 C 56.63298 181.33885 79.2782 158.7107 107.18616 158.69681 Z M 107.18617 158.69681 Z M 107.21188 158.6968 C 107.20331 158.6968 107.19474 158.69681 107.21188 158.6968 Z"/>
               <path d="M 107.18617 158.6968 L 107.21188 158.6968 L 113.31383 158.6968 L 113.31383 140.31383 L 107.21188 140.31383 L 107.18617 140.31383 L 107.18617 140.31383 C 69.12556 140.32773 38.25 171.18623 38.25 209.25 C 38.25 247.30505 69.13753 278.15813 107.18614 278.18615 L 107.18617 278.18617 L 107.23802 278.18617 L 196.03723 278.18617 L 196.03723 259.8032 L 107.23802 259.8032 L 107.18617 259.8032 C 79.29019 259.77518 56.63298 237.15244 56.63298 209.25 C 56.63298 181.33885 79.2782 158.7107 107.18616 158.69681 Z M 107.18617 158.69681 Z M 107.21188 158.6968 C 107.20331 158.6968 107.19474 158.69681 107.21188 158.6968 Z"
                     stroke="black"
                     stroke-linecap="round"
                     stroke-linejoin="round"
                     stroke-width="2"/>
            </g>
            <g>
               <path d="M 107.18617 195.46277 L 113.31383 195.46277 L 113.31383 177.07979 L 107.18617 177.07979 C 88.57299 177.07979 73.48404 191.4829 73.48404 209.25 C 73.48404 227.0171 88.57299 241.4202 107.18617 241.4202 L 196.03723 241.4202 L 196.03723 223.03723 L 107.18617 223.03723 C 99.57169 223.03723 93.39894 216.86447 93.39894 209.25 C 93.39894 201.63553 99.57169 195.46277 107.18617 195.46277 Z"/>
               <path d="M 107.18617 195.46277 L 113.31383 195.46277 L 113.31383 177.07979 L 107.18617 177.07979 C 88.57299 177.07979 73.48404 191.4829 73.48404 209.25 C 73.48404 227.0171 88.57299 241.4202 107.18617 241.4202 L 196.03723 241.4202 L 196.03723 223.03723 L 107.18617 223.03723 C 99.57169 223.03723 93.39894 216.86447 93.39894 209.25 C 93.39894 201.63553 99.57169 195.46277 107.18617 195.46277 Z"
                     stroke="black"
                     stroke-linecap="round"
                     stroke-linejoin="round"
                     stroke-width="2"/>
            </g>
         </g>
      </g>
   </g>
</svg>