<?xml version="1.0" encoding="UTF-8" standalone="no"?>
<svg
   xmlns:dc="http://purl.org/dc/elements/1.1/"
   xmlns:cc="http://creativecommons.org/ns#"
   xmlns:rdf="http://www.w3.org/1999/02/22-rdf-syntax-ns#"
   xmlns:svg="http://www.w3.org/2000/svg"
   xmlns="http://www.w3.org/2000/svg"
   version="1.1"
   width="333"
   height="300"
   id="svg2">

  <metadata
     id="metadata129">
    <rdf:RDF>
      <cc:Work
         rdf:about="">
        <dc:format>image/svg+xml</dc:format>
        <dc:type
           rdf:resource="http://purl.org/dc/dcmitype/StillImage" />
        <dc:title></dc:title>
        <dc:creator>
          <cc:Agent>
            <dc:title>https://commons.wikimedia.org/wiki/User:Madboy74</dc:title>
          </cc:Agent>
        </dc:creator>
      </cc:Work>
    </rdf:RDF>
  </metadata>
    <g
     style="stroke:#808080"
     transform="translate(-322.16 19.649)"
     stroke-width="3"
     id="g1346">
    <path
       style="stroke:#808080;fill:#ffff00"
       d="m384.43 274.08c-18.697 0.0075656-37.558-3.2135-55.749-9.9004 9.9818-57.684 50.387-104.92 104.1-124.6-0.0012749-0.0073123 0.0012739-0.01524 0-0.022552 0.01569-0.0057472 0.029412-0.01681 0.045105-0.022552-9.8069-56.354 10.879-114.97 55.839-152.45 44.966 37.488 65.678 96.115 55.862 152.48 53.712 19.682 94.12 66.942 104.1 124.62-54.94 20.195-116.04 8.7924-159.94-27.875-0.0043933 0.0036725-0.018159-0.003672-0.022552 0-0.0043806-0.0036612-0.018172 0.0036617-0.022552 0-29.368 24.529-66.442 37.76-104.21 37.775zm1.4433-27.063c30.144-0.33377 59.671-10.753 83.443-29.859-6.3338-7.4318-12.082-15.551-17.14-24.311-5.0509-8.7484-9.1784-17.761-12.449-26.95-36.018 13.977-64.578 42.917-78.008 79.204 8.0338 1.3718 16.11 2.006 24.153 1.9169zm206.78 0c7.6368 0.014893 15.312-0.61513 22.936-1.9169-13.429-36.283-41.975-65.246-77.986-79.226-3.2688 9.1988-7.4151 18.237-12.471 26.995-5.0556 8.7565-10.81 16.856-17.14 24.289 24.094 19.364 54.093 29.8 84.661 29.859zm-104.01-48.92c0.0047307-0.0093217 0.017818-0.013227 0.022552-0.022552 4.7826-5.7794 9.1587-12.027 13.035-18.741 3.8766-6.7145 7.106-13.626 9.72-20.658-7.4063-1.2554-15.014-1.9169-22.778-1.9169-7.7529-3e-13 -15.336 0.66475-22.733 1.9169 2.6138 7.0316 5.821 13.944 9.6975 20.658 3.8801 6.7205 8.2475 12.979 13.035 18.763zm-29.566-65.717c9.5914-1.7616 19.467-2.6837 29.566-2.6837 10.116 9e-14 20.007 0.91405 29.611 2.6837 5.91-38.18-4.88-77.368-29.59-107.14-24.7 29.767-35.49 68.964-29.59 107.14z"
       id="path4829" />
    <path
       style="stroke:#808080"
       fill="none"
       d="m447.08 183.24c-8.4726-17.212-13.622-35.293-15.651-53.471m26.409-8.1865c1.29 17.738 6.1202 35.478 14.749 52.163"
       id="path4847" />
    <path
       style="stroke:#808080"
       fill="none"
       d="m499.08 130.04c24.43 1.5493 47.389 8.4951 67.702 19.666m-20.974 19.688c-16.301-7.6076-34.374-12.067-53.426-12.584"
       id="path4852" />
    <path
       style="stroke:#808080"
       fill="none"
       d="m455.22 227.08c16.246-9.9354 30.585-23.43 41.744-40.143m22.868 14.501c-15.038 22.716-34.98 40.521-57.576 52.817"
       id="path4854" />
  </g>
</svg>
