<?xml version="1.0" encoding="UTF-8" standalone="no"?>
<svg
   version="1.1"
   viewBox="67.5 76.5 283.5 209.42695"
   width="283.5"
   height="209.42695"
   id="svg235"
   xmlns="http://www.w3.org/2000/svg"
   xmlns:svg="http://www.w3.org/2000/svg">
  <defs
     id="defs5">
  </defs>
  <g
     id="Beaver_Sejant_Erect"
     fill-opacity="1"
     fill="none"
     stroke="none"
     stroke-opacity="1"
     stroke-dasharray="none">
    <title
       id="title7">Beaver Sejant Erect</title>
    <g
       id="Beaver_Sejant_Erect_Art">
      <title
         id="title9">Art</title>
      <g
         id="Group_26">
        <g
           id="Graphic_59">
          <title
             id="title11">path5126</title>
          <path
             d="M 96.20537 149.97772 C 95.83593 148.84121 91.34075 143.51652 90.4428 142.30043 C 89.54492 141.08433 87.97644 138.57829 86.84557 138.19186 C 85.71478 137.80527 83.67451 137.71461 82.83921 138.23736 C 82.00367 138.76008 79.63986 141.53914 79.63986 141.53914 Z"
             fill="#f3f3f3"
             id="path13" />
          <path
             d="M 96.20537 149.97772 C 95.83593 148.84121 91.34075 143.51652 90.4428 142.30043 C 89.54492 141.08433 87.97644 138.57829 86.84557 138.19186 C 85.71478 137.80527 83.67451 137.71461 82.83921 138.23736 C 82.00367 138.76008 79.63986 141.53914 79.63986 141.53914 Z"
             stroke="black"
             stroke-linecap="butt"
             stroke-linejoin="round"
             stroke-width="1.2358728"
             id="path15" />
        </g>
        <g
           id="Graphic_58">
          <title
             id="title18">path5128</title>
          <path
             d="M 157.96 149.76036 C 154.48216 149.88542 142.83816 150.40287 139.6615 150.68137 C 136.48487 150.95996 130.96117 151.74993 126.42067 152.47178 C 121.88017 153.19357 116.35084 154.73942 112.72525 154.40991 C 109.09963 154.0804 110.76462 153.79064 106.38326 153.45538 C 102.00183 153.12018 87.48214 144.01674 86.2774 143.40301 C 85.07267 142.7892 81.39012 139.965 80.10544 139.88047 C 78.82115 139.79534 76.3946 140.83525 76.30941 142.1196 C 76.22429 143.40388 76.37194 143.85847 76.37194 143.85847 L 89.46533 151.66614 L 77.7238 144.92803 C 74.77802 143.16887 70.95897 148.2503 74.20129 151.09996 C 75.09883 151.88914 83.19738 160.99347 83.19738 160.99347 C 83.19738 160.99347 85.76598 161.16372 86.74911 161.09562 C 87.73225 161.02752 90.49982 164.90294 91.017 166.49414 C 91.53415 168.08533 91.81834 170.5062 91.81834 170.5062 C 91.81834 170.5062 98.166 170.70492 99.22302 170.86399 C 100.28013 171.0231 99.05835 172.67678 99.05835 172.67678 C 99.05835 172.67678 100.553 174.9556 102.21805 174.6657 C 103.88307 174.37598 109.33278 173.35852 109.33278 173.35852 L 106.80389 177.95012 C 106.80389 177.95012 111.79335 177.83621 113.07764 177.92226 C 114.36195 178.00739 117.6125 177.95631 117.6125 177.95631 L 117.44195 180.52491 C 117.44195 180.52491 117.58402 181.73537 118.86846 181.82037 C 120.15278 181.9055 122.87482 181.77487 123.78407 181.47923 C 124.69334 181.18362 126.88684 180.97338 126.88684 180.97338 L 126.18796 183.46249 L 130.4898 184.3262 L 135.64403 182.39962 C 135.64403 182.39962 132.60378 184.64435 134.49065 185.03653 C 136.37736 185.4286 139.85521 185.30336 139.85521 185.30336 L 149.61819 183.6381 C 149.61819 183.6381 154.76672 182.46734 155.82371 182.62642 C 156.88085 182.78521 157.6365 182.7911 157.6365 182.7911"
             fill="#f3f3f3"
             id="path20" />
          <path
             d="M 157.96 149.76036 C 154.48216 149.88542 142.83816 150.40287 139.6615 150.68137 C 136.48487 150.95996 130.96117 151.74993 126.42067 152.47178 C 121.88017 153.19357 116.35084 154.73942 112.72525 154.40991 C 109.09963 154.0804 110.76462 153.79064 106.38326 153.45538 C 102.00183 153.12018 87.48214 144.01674 86.2774 143.40301 C 85.07267 142.7892 81.39012 139.965 80.10544 139.88047 C 78.82115 139.79534 76.3946 140.83525 76.30941 142.1196 C 76.22429 143.40388 76.37194 143.85847 76.37194 143.85847 L 89.46533 151.66614 L 77.7238 144.92803 C 74.77802 143.16887 70.95897 148.2503 74.20129 151.09996 C 75.09883 151.88914 83.19738 160.99347 83.19738 160.99347 C 83.19738 160.99347 85.76598 161.16372 86.74911 161.09562 C 87.73225 161.02752 90.49982 164.90294 91.017 166.49414 C 91.53415 168.08533 91.81834 170.5062 91.81834 170.5062 C 91.81834 170.5062 98.166 170.70492 99.22302 170.86399 C 100.28013 171.0231 99.05835 172.67678 99.05835 172.67678 C 99.05835 172.67678 100.553 174.9556 102.21805 174.6657 C 103.88307 174.37598 109.33278 173.35852 109.33278 173.35852 L 106.80389 177.95012 C 106.80389 177.95012 111.79335 177.83621 113.07764 177.92226 C 114.36195 178.00739 117.6125 177.95631 117.6125 177.95631 L 117.44195 180.52491 C 117.44195 180.52491 117.58402 181.73537 118.86846 181.82037 C 120.15278 181.9055 122.87482 181.77487 123.78407 181.47923 C 124.69334 181.18362 126.88684 180.97338 126.88684 180.97338 L 126.18796 183.46249 L 130.4898 184.3262 L 135.64403 182.39962 C 135.64403 182.39962 132.60378 184.64435 134.49065 185.03653 C 136.37736 185.4286 139.85521 185.30336 139.85521 185.30336 L 149.61819 183.6381 C 149.61819 183.6381 154.76672 182.46734 155.82371 182.62642 C 156.88085 182.78521 157.6365 182.7911 157.6365 182.7911"
             stroke="black"
             stroke-linecap="butt"
             stroke-linejoin="round"
             stroke-width="1.2358728"
             id="path22" />
        </g>
        <g
           id="Graphic_57">
          <title
             id="title25">path5130</title>
          <path
             d="M 74.33123 139.6446 C 74.49219 140.49438 78.34981 143.72682 79.36065 144.4154 C 80.37146 145.1041 82.47479 146.80174 82.88502 145.68835 C 83.29538 144.57503 83.59016 143.68819 82.88688 142.1645 C 82.18369 140.64089 79.7663 139.90851 78.8284 139.87972 C 77.89077 139.85187 74.33083 139.6454 74.33083 139.6454 Z"
             fill="#f3f3f3"
             id="path27" />
          <path
             d="M 74.33123 139.6446 C 74.49219 140.49438 78.34981 143.72682 79.36065 144.4154 C 80.37146 145.1041 82.47479 146.80174 82.88502 145.68835 C 83.29538 144.57503 83.59016 143.68819 82.88688 142.1645 C 82.18369 140.64089 79.7663 139.90851 78.8284 139.87972 C 77.89077 139.85187 74.33083 139.6454 74.33083 139.6454 Z"
             stroke="black"
             stroke-linecap="round"
             stroke-linejoin="round"
             stroke-width=".5333853"
             id="path29" />
        </g>
        <g
           id="Graphic_56">
          <title
             id="title32">path5132</title>
          <path
             d="M 70.75254 144.91942 C 70.9135 145.76917 74.04874 150.55972 75.05958 151.2483 C 76.07039 151.93696 78.7807 152.30315 79.1909 151.18979 C 79.60126 150.07653 80.01115 148.96295 79.308215 147.43942 C 78.60509 145.91583 76.1877 145.18346 75.24979 145.15467 C 74.3121 145.12681 70.75223 144.92035 70.75223 144.92035 Z"
             fill="#f3f3f3"
             id="path34" />
          <path
             d="M 70.75254 144.91942 C 70.9135 145.76917 74.04874 150.55972 75.05958 151.2483 C 76.07039 151.93696 78.7807 152.30315 79.1909 151.18979 C 79.60126 150.07653 80.01115 148.96295 79.308215 147.43942 C 78.60509 145.91583 76.1877 145.18346 75.24979 145.15467 C 74.3121 145.12681 70.75223 144.92035 70.75223 144.92035 Z"
             stroke="black"
             stroke-linecap="round"
             stroke-linejoin="round"
             stroke-width=".5333853"
             id="path36" />
        </g>
        <g
           id="Graphic_55">
          <title
             id="title39">path5134</title>
          <path
             d="M 78.78032 136.05977 C 78.941285 136.90952 82.79888 140.142 83.80971 140.83054 C 84.82052 141.51924 86.92391 143.21692 87.33408 142.1035 C 87.74444 140.9902 88.03922 140.10337 87.33591 138.57965 C 86.63276 137.05603 84.21537 136.32369 83.27749 136.29493 C 82.33983 136.26707 78.77992 136.06061 78.77992 136.06061 Z"
             fill="#f3f3f3"
             id="path41" />
          <path
             d="M 78.78032 136.05977 C 78.941285 136.90952 82.79888 140.142 83.80971 140.83054 C 84.82052 141.51924 86.92391 143.21692 87.33408 142.1035 C 87.74444 140.9902 88.03922 140.10337 87.33591 138.57965 C 86.63276 137.05603 84.21537 136.32369 83.27749 136.29493 C 82.33983 136.26707 78.77992 136.06061 78.77992 136.06061 Z"
             stroke="black"
             stroke-linecap="round"
             stroke-linejoin="round"
             stroke-width=".5333853"
             id="path43" />
        </g>
        <g
           id="Graphic_54">
          <title
             id="title46">path5084</title>
          <path
             d="M 185.03945 174.39204 C 185.03945 174.39204 127.8654 202.62415 151.34698 231.79584 C 174.82844 260.9676 156.50102 228.55813 131.02135 237.38008 C 105.54155 246.20205 113.81852 260.2974 136.34629 256.2435 C 158.87399 252.1896 176.83934 255.10463 179.2544 250.8656 C 181.66944 246.62656 181.2502 240.71634 181.2502 240.71634 C 181.2502 240.71634 217.40637 243.1185 234.96387 226.79335"
             fill="#f3f3f3"
             id="path48" />
          <path
             d="M 185.03945 174.39204 C 185.03945 174.39204 127.8654 202.62415 151.34698 231.79584 C 174.82844 260.9676 156.50102 228.55813 131.02135 237.38008 C 105.54155 246.20205 113.81852 260.2974 136.34629 256.2435 C 158.87399 252.1896 176.83934 255.10463 179.2544 250.8656 C 181.66944 246.62656 181.2502 240.71634 181.2502 240.71634 C 181.2502 240.71634 217.40637 243.1185 234.96387 226.79335"
             stroke="black"
             stroke-linecap="butt"
             stroke-linejoin="round"
             stroke-width="1.3380647"
             id="path50" />
        </g>
        <g
           id="Graphic_53">
          <title
             id="title53">path5086</title>
          <path
             d="M 115.52261 258.13517 C 116.17725 258.21843 120.39319 257.0735 121.13126 256.5023 C 121.86941 255.9312 122.77443 254.05077 122.06319 253.49042 C 121.35199 252.93015 120.6408 252.36988 119.36924 252.52076 C 118.09768 252.67173 116.99598 254.2531 116.75355 254.9266 C 116.51132 255.60013 115.52261 258.13517 115.52261 258.13517 Z"
             fill="#f3f3f3"
             id="path55" />
          <path
             d="M 115.52261 258.13517 C 116.17725 258.21843 120.39319 257.0735 121.13126 256.5023 C 121.86941 255.9312 122.77443 254.05077 122.06319 253.49042 C 121.35199 252.93015 120.6408 252.36988 119.36924 252.52076 C 118.09768 252.67173 116.99598 254.2531 116.75355 254.9266 C 116.51132 255.60013 115.52261 258.13517 115.52261 258.13517 Z"
             stroke="black"
             stroke-linecap="round"
             stroke-linejoin="round"
             stroke-width="1.3380655"
             id="path57" />
        </g>
        <g
           id="Graphic_52">
          <title
             id="title60">path5088</title>
          <path
             d="M 113.17922 254.06305 C 113.83385 254.14632 118.04979 253.0014 118.78786 252.43018 C 119.52601 251.8591 120.43103 249.97866 119.71979 249.4183 C 119.00859 248.85804 118.2974 248.29777 117.02584 248.44865 C 115.75428 248.59962 114.65258 250.18098 114.41015 250.8545 C 114.16792 251.52802 113.17922 254.06305 113.17922 254.06305 Z"
             fill="#f3f3f3"
             id="path62" />
          <path
             d="M 113.17922 254.06305 C 113.83385 254.14632 118.04979 253.0014 118.78786 252.43018 C 119.52601 251.8591 120.43103 249.97866 119.71979 249.4183 C 119.00859 248.85804 118.2974 248.29777 117.02584 248.44865 C 115.75428 248.59962 114.65258 250.18098 114.41015 250.8545 C 114.16792 251.52802 113.17922 254.06305 113.17922 254.06305 Z"
             stroke="black"
             stroke-linecap="round"
             stroke-linejoin="round"
             stroke-width="1.3380655"
             id="path64" />
        </g>
        <g
           id="Graphic_51">
          <title
             id="title67">path5090</title>
          <path
             d="M 112.5898 249.16784 C 113.24444 249.2511 117.46037 248.10617 118.19844 247.53497 C 118.9366 246.9639 119.84162 245.08345 119.13038 244.5231 C 118.41918 243.96282 117.70798 243.40255 116.43643 243.55344 C 115.16487 243.7044 114.06317 245.28577 113.82073 245.9593 C 113.57851 246.6328 112.5898 249.16784 112.5898 249.16784 Z"
             fill="#f3f3f3"
             id="path69" />
          <path
             d="M 112.5898 249.16784 C 113.24444 249.2511 117.46037 248.10617 118.19844 247.53497 C 118.9366 246.9639 119.84162 245.08345 119.13038 244.5231 C 118.41918 243.96282 117.70798 243.40255 116.43643 243.55344 C 115.16487 243.7044 114.06317 245.28577 113.82073 245.9593 C 113.57851 246.6328 112.5898 249.16784 112.5898 249.16784 Z"
             stroke="black"
             stroke-linecap="round"
             stroke-linejoin="round"
             stroke-width="1.3380655"
             id="path71" />
        </g>
        <g
           id="Graphic_50">
          <title
             id="title74">path5615</title>
          <path
             d="M 264.21278 230.08547 C 263.53947 231.42764 262.03327 233.44854 260.15158 235.72518 C 258.2698 238.00185 256.01246 240.53458 253.84016 242.899 C 249.49557 247.62786 245.4877 251.6853 245.4877 251.6853 L 248.237 253.0861 C 251.44447 254.7221 253.63116 255.68552 256.38564 256.67692 C 263.06095 259.07957 269.6802 260.35107 276.6213 260.56045 L 279.00472 260.63102 L 280.56753 261.93512 C 289.03545 269.00936 300.76634 275.70656 311.41885 279.5469 C 316.92205 281.53085 321.56946 282.648 326.07486 283.06976 L 326.07486 283.07595 C 338.80776 284.2679 346.25835 278.72492 347.5571 267.09755 C 347.866 264.3322 347.79017 259.8205 347.39768 257.72326 C 346.85932 254.84512 345.4787 251.3688 343.7363 248.49792 C 338.71255 240.2207 328.9881 231.70765 317.20494 225.2725 C 310.39154 221.55155 305.10186 219.73566 298.80654 218.95593 C 297.23757 218.76185 292.14324 218.76 290.5429 218.95323 C 282.15126 219.9671 273.96734 223.48367 265.77302 229.59506 C 264.93602 230.21956 264.22207 230.69672 264.18666 230.6613 C 264.17737 230.65202 264.21452 230.21185 264.21142 230.08637 Z"
             fill="#f3f3f3"
             id="path76" />
          <path
             d="M 264.21278 230.08547 C 263.53947 231.42764 262.03327 233.44854 260.15158 235.72518 C 258.2698 238.00185 256.01246 240.53458 253.84016 242.899 C 249.49557 247.62786 245.4877 251.6853 245.4877 251.6853 L 248.237 253.0861 C 251.44447 254.7221 253.63116 255.68552 256.38564 256.67692 C 263.06095 259.07957 269.6802 260.35107 276.6213 260.56045 L 279.00472 260.63102 L 280.56753 261.93512 C 289.03545 269.00936 300.76634 275.70656 311.41885 279.5469 C 316.92205 281.53085 321.56946 282.648 326.07486 283.06976 L 326.07486 283.07595 C 338.80776 284.2679 346.25835 278.72492 347.5571 267.09755 C 347.866 264.3322 347.79017 259.8205 347.39768 257.72326 C 346.85932 254.84512 345.4787 251.3688 343.7363 248.49792 C 338.71255 240.2207 328.9881 231.70765 317.20494 225.2725 C 310.39154 221.55155 305.10186 219.73566 298.80654 218.95593 C 297.23757 218.76185 292.14324 218.76 290.5429 218.95323 C 282.15126 219.9671 273.96734 223.48367 265.77302 229.59506 C 264.93602 230.21956 264.22207 230.69672 264.18666 230.6613 C 264.17737 230.65202 264.21452 230.21185 264.21142 230.08637 Z"
             stroke="black"
             stroke-linecap="butt"
             stroke-linejoin="round"
             stroke-width="1.3380677"
             id="path78" />
        </g>
        <g
           id="Graphic_49">
          <title
             id="title81">path5161</title>
          <path
             d="M 258.5626 237.49448 C 258.5626 237.49448 279.0779 231.87567 287.96348 231.09163 C 296.8491 230.3076 327.68735 254.35096 330.03943 258.79377 C 332.3915 263.23658 332.6012 263.52387 332.6012 263.52387 C 332.6012 263.52387 321.2845 262.9752 315.40434 259.7085 C 309.52415 256.4417 297.11044 245.20406 289.27018 243.50533 C 281.42997 241.8066 254.1198 241.93726 254.1198 241.93726 Z"
             fill="#e1e1e1"
             id="path83" />
        </g>
        <g
           id="Graphic_48">
          <title
             id="title86">path4820</title>
          <path
             d="M 99.27527 89.05321 C 98.86386 89.45496 98.38618 90.04232 98.21423 90.3599 C 97.92326 90.89789 97.84327 90.96267 97.04342 91.27723 C 92.71232 92.98141 89.02145 95.16664 87.14907 97.1365 C 85.85934 98.49334 85.42199 99.36497 85.35624 100.71163 C 85.30331 101.7949 85.52339 102.53755 86.22128 103.62819 C 86.52773 107.08353 82.00447 110.83913 87.82594 111.54683 C 89.34508 113.65601 92.76414 116.02152 96.44235 117.50543 C 97.14854 117.79052 97.2379 117.85893 97.17671 118.06731 C 97.13833 118.19794 97.05227 118.70026 96.98603 119.18323 C 96.87522 119.9885 96.88698 120.13154 97.1244 120.90809 C 97.34541 121.63096 97.48362 121.85863 98.05738 122.46044 C 99.39958 123.86835 101.86173 124.76132 105.48206 125.15227 C 106.12584 125.2216 106.75483 125.31911 106.88026 125.37173 C 107.00562 125.42404 107.77375 126.20981 108.58682 127.11748 C 111.30836 130.15587 112.37092 131.01875 113.60717 131.18918 C 114.01031 131.24428 114.28859 131.20466 114.72049 131.03224 L 115.29803 130.80473 L 115.92003 131.78214 C 116.64444 132.9183 117.65596 134.08345 118.44981 134.69609 C 119.24744 135.31161 120.30306 135.83567 122.13211 136.52548 C 123.0108 136.85678 124.0204 137.2868 124.37442 137.48199 C 125.1006 137.88238 125.4875 138.40182 126.4155 140.21824 C 129.7452 169.6137 129.1545 186.12816 144.64405 207.76968 C 145.24404 208.60612 146.45861 210.00918 146.57797 210.00416 C 146.61667 210.0028 146.86894 209.66357 147.13985 209.24888 L 147.63115 208.4936 L 147.73052 208.81766 C 148.10794 210.05842 148.79747 211.38753 149.77943 212.7639 C 150.4186 213.6599 153.16237 216.79118 153.30755 216.79118 C 153.35367 216.79118 153.47686 216.37529 153.5821 215.86603 C 153.68735 215.35662 153.82262 214.75242 153.88267 214.52535 L 153.99225 214.11505 L 155.00364 215.14997 C 156.21667 216.39525 157.0391 217.05364 158.77741 218.17106 C 159.49858 218.63472 160.42293 219.23705 160.83156 219.50914 L 161.57377 220.00567 L 160.81326 221.53193 C 159.95942 223.24248 159.39705 224.82752 159.04659 226.5157 C 158.6835 228.2651 158.59534 229.2092 158.59187 231.42628 C 158.58259 236.26056 157.1452 244.98067 161.94748 245.5361 C 162.23535 245.84865 167.43917 253.71517 167.3886 253.76572 C 167.34804 253.8078 164.21533 253.05424 158.98648 251.74556 C 148.90414 249.2221 142.92474 248.68005 137.50165 249.80118 C 135.04188 250.30975 132.65303 251.23132 130.86094 252.35972 C 130.51438 252.57764 130.13306 252.77088 130.0142 252.79614 C 129.89533 252.8178 129.68237 253.01282 129.54379 253.22736 C 129.06675 253.9665 129.30234 255.44067 129.975 255.93225 L 130.218 256.10993 L 129.98027 256.37118 C 129.34051 257.08158 129.0695 258.66104 129.45235 259.4341 C 129.62817 259.78916 130.12185 260.1371 130.44805 260.1371 C 130.59786 260.1371 130.59198 260.19157 130.41152 260.5683 C 130.11158 261.19386 130.04787 261.69686 130.19206 262.29316 C 130.3753 263.05222 131.01664 263.68517 131.9718 264.04677 L 132.28279 264.1616 L 132.0528 264.49877 C 131.63077 265.11704 131.3915 265.81552 131.38902 266.4327 C 131.38633 266.96262 131.43328 267.09083 131.77319 267.48327 C 132.20723 267.9847 132.89596 268.3335 133.97106 268.59396 C 134.6916 268.76854 134.71306 268.76452 136.44336 268.3615 C 139.5488 267.63763 142.21899 267.22796 145.93001 266.90582 C 147.00362 266.81296 150.67112 266.76188 157.11282 266.75693 L 166.6988 266.74764 L 169.2312 267.39836 C 173.3569 268.46015 176.28888 269.0474 178.94787 269.34274 C 180.75255 269.543 183.95862 269.42817 185.12336 269.1205 C 187.54301 268.48178 188.98006 267.1373 189.63148 264.9077 C 189.94554 263.8329 189.90047 261.41233 189.53212 259.62077 C 189.3758 258.86187 189.20915 258.13953 189.16361 258.01614 C 189.0853 257.80535 189.10325 257.80566 189.42487 258.044 C 190.0138 258.4816 191.0011 258.881 192.09317 259.12074 C 193.76494 259.48804 194.64824 259.95118 195.59776 260.95533 C 196.17787 261.56878 196.77903 262.78744 196.9515 263.70204 C 197.02177 264.07692 197.1202 264.3596 197.1657 264.32926 C 197.3765 264.19337 197.61925 262.09156 197.58384 260.72797 C 197.56217 259.9582 197.57455 259.34095 197.6055 259.36116 C 198.29033 259.78096 199.49138 260.2832 200.03856 260.3778 C 202.4384 260.79174 203.25354 261.12678 204.2906 262.12877 C 204.98248 262.79728 205.65097 263.99072 205.81682 264.84932 C 205.96292 265.60686 206.05485 265.58795 206.20362 264.77627 C 206.35591 263.94698 206.39832 261.63276 206.26893 261.20897 C 206.19433 260.96474 206.20145 260.96443 206.8857 261.26128 C 207.50936 261.5312 207.71517 261.56432 208.95553 261.55906 C 209.713 261.55636 210.83147 261.51293 211.4409 261.46217 C 212.7409 261.35476 213.41843 261.47146 214.4097 261.98223 C 215.20754 262.39212 215.99022 263.1419 216.51613 263.9998 C 216.72445 264.34016 216.91977 264.61918 216.95518 264.61918 C 217.15917 264.61918 216.58528 261.9599 216.16854 260.9761 C 216.01935 260.62335 215.89677 260.3196 215.89677 260.30443 C 215.89677 260.28585 216.12676 260.34405 216.409 260.43258 C 217.08872 260.64492 218.402 260.63532 219.22888 260.4109 C 219.59532 260.31185 220.4134 259.95316 221.0452 259.6138 C 223.60746 258.23635 225.65715 258.3306 227.56305 259.91437 C 227.87167 260.17067 228.12493 260.3521 228.12493 260.3116 C 228.12493 260.18036 227.43645 258.8122 227.13706 258.34896 C 226.97363 258.09607 226.81443 257.8372 226.77902 257.774 C 226.74001 257.70218 227.01798 257.65606 227.5186 257.64584 C 228.54783 257.62727 229.63466 257.2842 230.55018 256.68413 C 232.2005 255.60238 233.30556 255.2394 234.68197 255.33298 C 235.73824 255.4045 236.57704 255.71638 237.42081 256.34698 C 237.76205 256.60204 238.04284 256.77947 238.04284 256.73898 C 238.04284 256.61702 237.69114 255.9498 237.36596 255.45318 C 237.19262 255.18883 237.04974 254.95302 237.04974 254.9227 C 237.04974 254.89483 237.3082 254.83756 237.62468 254.79206 C 238.46124 254.6763 239.66916 254.11215 240.4184 253.48796 C 242.00762 252.164 243.04461 251.70773 244.4927 251.69257 L 245.48844 251.68328 C 245.48844 251.68328 249.49628 247.62585 253.8409 242.897 C 256.0132 240.53257 258.27056 237.99984 260.1523 235.72317 C 262.03402 233.44653 263.54018 231.42563 264.21353 230.08346 C 264.20733 229.17424 264.33796 225.98653 264.4042 225.91766 C 264.42897 225.8929 264.80896 226.05633 265.25095 226.28093 C 266.06684 226.69538 267.9112 227.30604 268.1231 227.23221 C 268.18685 227.21055 267.9906 226.9985 267.68667 226.7618 C 266.71096 226.00148 266.05102 224.96727 265.70307 223.65445 C 265.50063 222.89251 265.6136 220.9858 265.92006 220.00874 C 266.1748 219.19499 266.25875 217.70863 266.103 216.75503 L 266.01416 216.20361 L 266.43488 216.39708 C 267.67134 216.96595 268.59053 217.16263 270.29752 217.2203 C 271.29127 217.2528 271.97796 217.23268 271.97796 217.17077 C 271.97796 217.11258 271.7266 216.96988 271.41868 216.85455 C 270.64894 216.56575 269.659 215.85272 269.1816 215.2447 C 268.32014 214.14746 267.95074 212.99117 267.8592 211.0972 C 267.82577 210.40152 267.72115 209.57343 267.6292 209.25736 C 267.53728 208.94123 267.4633 208.64692 267.46206 208.60141 C 267.4614 208.55684 267.77068 208.64135 268.1494 208.78962 C 269.20614 209.20285 271.53636 209.65184 271.53636 209.443 C 271.5363 209.40337 271.2847 209.22353 270.9771 209.04313 C 270.22883 208.60457 269.29848 207.59847 268.94647 206.84787 C 268.3406 205.55563 268.21595 204.39958 268.47083 202.39983 C 268.62095 201.2254 268.4894 199.97776 268.12324 199.11216 C 267.92514 198.6393 267.92173 198.6039 268.09848 198.67574 C 269.55762 199.27173 270.80294 199.54165 272.09177 199.53815 L 272.91763 199.53546 L 272.2329 199.18788 C 271.41896 198.7759 270.42957 197.866 270.03763 197.16772 C 269.37308 195.984 269.30074 195.62209 269.22487 193.15873 C 269.1444 190.54927 269.03667 190.06428 268.28925 188.8989 L 267.84237 188.20112 L 269.07852 188.25065 C 270.41412 188.3039 271.982 188.19462 271.982 188.04666 C 271.982 187.99652 271.7446 187.8922 271.45672 187.81668 C 270.58066 187.58669 269.70345 187.01911 268.98705 186.21988 C 267.9987 185.11714 267.64547 184.17254 267.36933 181.88683 C 267.23746 180.79493 266.9215 179.85621 266.4259 179.08787 L 266.06526 178.5286 L 267.56276 178.4605 C 269.02995 178.39208 270.4415 178.136 270.1082 177.99792 C 270.0172 177.96015 269.69506 177.87348 269.3921 177.80445 C 267.93065 177.47312 266.54025 176.31903 265.8588 174.87483 C 265.61488 174.35772 265.38043 173.57863 265.20545 172.69263 C 264.92903 171.29314 264.4986 170.17669 263.9902 169.54609 C 263.6884 169.17136 263.72956 169.07045 264.18365 169.07045 C 264.7355 169.07045 266.84348 168.47186 267.0741 168.24982 C 267.13537 168.18946 266.9806 168.15046 266.70298 168.15046 C 266.44203 168.15046 265.92532 168.0675 265.5531 167.96752 C 263.6126 167.44536 262.15947 165.89543 261.56763 163.71552 C 261.28038 162.65726 260.6907 161.45441 260.14854 160.82505 L 259.6546 160.25534 L 260.50136 160.11698 C 262.064 159.86408 263.22575 159.41135 262.30985 159.41135 C 261.80867 159.41135 260.58954 159.01337 260.0179 158.66393 C 258.77855 157.90596 257.86537 156.47043 257.37834 154.51383 C 257.0619 153.24279 256.51834 152.08272 255.94882 151.45615 C 255.73678 151.22307 255.56464 151.01118 255.56464 150.99094 C 255.56464 150.96618 255.9494 150.9408 256.41922 150.92563 C 257.27585 150.90086 258.40688 150.70678 258.57527 150.55452 C 258.6248 150.50964 258.28894 150.34125 257.82782 150.18081 C 256.72357 149.79652 255.91325 149.28323 254.98184 148.37492 C 253.64713 147.07355 252.87768 145.73484 252.03913 143.25527 C 251.33718 141.17942 250.80722 140.17289 249.68445 138.79156 L 249.07292 138.03888 L 249.89615 137.61293 C 250.34993 137.37922 250.74636 137.15143 250.77162 137.1059 C 250.79948 137.0604 250.3386 136.98951 249.7498 136.94927 C 247.52364 136.7979 245.74192 135.85015 243.91405 133.84191 C 243.4859 133.3716 242.88935 132.60536 242.58643 132.14058 C 240.87473 129.5145 238.80168 127.86669 236.49718 127.29531 C 236.19754 127.22102 235.9536 127.1294 235.9536 127.08885 C 235.9536 127.05046 236.1644 126.9217 236.4214 126.80128 C 237.33417 126.37412 239.27496 124.89457 239.12626 124.7393 C 239.09128 124.70278 238.76596 124.75169 238.40237 124.85167 C 237.47025 125.10395 235.96022 125.08104 234.89778 124.79936 C 233.34518 124.3876 231.5932 123.38404 230.3243 122.1807 C 228.58395 120.5302 226.65953 119.36354 225.01386 118.96098 L 224.15665 118.75204 L 224.62706 118.38617 C 225.42013 117.7734 226.56317 116.57136 226.45644 116.46008 C 226.42147 116.42324 226.20634 116.47246 225.9782 116.57244 C 224.78325 117.09334 222.95835 117.2399 221.5537 116.92786 C 219.9507 116.57182 218.92934 116.08114 217.00375 114.74306 C 215.0757 113.40324 213.8821 112.86294 212.16894 112.55042 C 211.66104 112.45787 210.97665 112.38049 210.64795 112.38049 L 210.04945 112.38049 L 210.7603 111.75066 C 211.493 111.10202 212.25412 110.19569 212.067 110.19569 C 212.0088 110.19569 211.78223 110.27524 211.5626 110.37089 C 210.9605 110.63338 209.6864 110.88574 208.9675 110.88574 C 206.87118 110.88574 204.7259 110.04045 202.39218 108.29322 C 200.99733 107.24895 199.034 106.38431 197.69586 106.22601 C 196.49558 106.08393 196.51363 106.1285 197.33261 105.3453 C 198.01342 104.69422 199.01664 103.34425 198.90588 103.22845 C 198.87803 103.20059 198.5385 103.33245 198.1506 103.52127 C 196.994 104.08423 196.1559 104.26854 194.80283 104.26346 C 192.88764 104.25417 191.4766 103.8244 189.19181 102.5569 C 186.60625 101.12273 184.04152 100.6822 181.8011 101.28679 C 181.06788 101.48459 179.7468 102.11843 179.32096 102.47849 L 179.0467 102.71096 L 179.7602 103.4636 C 180.15257 103.87734 180.3969 104.21625 180.30638 104.21625 C 180.02841 104.21625 176.8046 103.22006 175.52122 102.73708 C 170.44537 100.82644 166.04299 97.77177 163.4342 94.35063 C 161.5052 91.82097 159.88018 90.34638 157.89113 89.32245 C 156.24623 88.47548 155.23503 88.23002 153.07985 88.15164 L 151.3498 88.0888 L 150.9447 87.4041 C 149.9867 85.78415 148.82731 84.68741 147.32251 83.97532 C 146.10345 83.39842 145.30062 83.24455 143.4599 83.24353 C 141.64488 83.2422 140.62922 83.40263 138.66691 83.99881 C 138.03059 84.19196 137.43175 84.37354 137.33666 84.40391 C 121.18417 81.24445 114.06179 78.18319 99.27756 89.05055 Z"
             fill="#f3f3f3"
             id="path88" />
          <path
             d="M 99.27527 89.05321 C 98.86386 89.45496 98.38618 90.04232 98.21423 90.3599 C 97.92326 90.89789 97.84327 90.96267 97.04342 91.27723 C 92.71232 92.98141 89.02145 95.16664 87.14907 97.1365 C 85.85934 98.49334 85.42199 99.36497 85.35624 100.71163 C 85.30331 101.7949 85.52339 102.53755 86.22128 103.62819 C 86.52773 107.08353 82.00447 110.83913 87.82594 111.54683 C 89.34508 113.65601 92.76414 116.02152 96.44235 117.50543 C 97.14854 117.79052 97.2379 117.85893 97.17671 118.06731 C 97.13833 118.19794 97.05227 118.70026 96.98603 119.18323 C 96.87522 119.9885 96.88698 120.13154 97.1244 120.90809 C 97.34541 121.63096 97.48362 121.85863 98.05738 122.46044 C 99.39958 123.86835 101.86173 124.76132 105.48206 125.15227 C 106.12584 125.2216 106.75483 125.31911 106.88026 125.37173 C 107.00562 125.42404 107.77375 126.20981 108.58682 127.11748 C 111.30836 130.15587 112.37092 131.01875 113.60717 131.18918 C 114.01031 131.24428 114.28859 131.20466 114.72049 131.03224 L 115.29803 130.80473 L 115.92003 131.78214 C 116.64444 132.9183 117.65596 134.08345 118.44981 134.69609 C 119.24744 135.31161 120.30306 135.83567 122.13211 136.52548 C 123.0108 136.85678 124.0204 137.2868 124.37442 137.48199 C 125.1006 137.88238 125.4875 138.40182 126.4155 140.21824 C 129.7452 169.6137 129.1545 186.12816 144.64405 207.76968 C 145.24404 208.60612 146.45861 210.00918 146.57797 210.00416 C 146.61667 210.0028 146.86894 209.66357 147.13985 209.24888 L 147.63115 208.4936 L 147.73052 208.81766 C 148.10794 210.05842 148.79747 211.38753 149.77943 212.7639 C 150.4186 213.6599 153.16237 216.79118 153.30755 216.79118 C 153.35367 216.79118 153.47686 216.37529 153.5821 215.86603 C 153.68735 215.35662 153.82262 214.75242 153.88267 214.52535 L 153.99225 214.11505 L 155.00364 215.14997 C 156.21667 216.39525 157.0391 217.05364 158.77741 218.17106 C 159.49858 218.63472 160.42293 219.23705 160.83156 219.50914 L 161.57377 220.00567 L 160.81326 221.53193 C 159.95942 223.24248 159.39705 224.82752 159.04659 226.5157 C 158.6835 228.2651 158.59534 229.2092 158.59187 231.42628 C 158.58259 236.26056 157.1452 244.98067 161.94748 245.5361 C 162.23535 245.84865 167.43917 253.71517 167.3886 253.76572 C 167.34804 253.8078 164.21533 253.05424 158.98648 251.74556 C 148.90414 249.2221 142.92474 248.68005 137.50165 249.80118 C 135.04188 250.30975 132.65303 251.23132 130.86094 252.35972 C 130.51438 252.57764 130.13306 252.77088 130.0142 252.79614 C 129.89533 252.8178 129.68237 253.01282 129.54379 253.22736 C 129.06675 253.9665 129.30234 255.44067 129.975 255.93225 L 130.218 256.10993 L 129.98027 256.37118 C 129.34051 257.08158 129.0695 258.66104 129.45235 259.4341 C 129.62817 259.78916 130.12185 260.1371 130.44805 260.1371 C 130.59786 260.1371 130.59198 260.19157 130.41152 260.5683 C 130.11158 261.19386 130.04787 261.69686 130.19206 262.29316 C 130.3753 263.05222 131.01664 263.68517 131.9718 264.04677 L 132.28279 264.1616 L 132.0528 264.49877 C 131.63077 265.11704 131.3915 265.81552 131.38902 266.4327 C 131.38633 266.96262 131.43328 267.09083 131.77319 267.48327 C 132.20723 267.9847 132.89596 268.3335 133.97106 268.59396 C 134.6916 268.76854 134.71306 268.76452 136.44336 268.3615 C 139.5488 267.63763 142.21899 267.22796 145.93001 266.90582 C 147.00362 266.81296 150.67112 266.76188 157.11282 266.75693 L 166.6988 266.74764 L 169.2312 267.39836 C 173.3569 268.46015 176.28888 269.0474 178.94787 269.34274 C 180.75255 269.543 183.95862 269.42817 185.12336 269.1205 C 187.54301 268.48178 188.98006 267.1373 189.63148 264.9077 C 189.94554 263.8329 189.90047 261.41233 189.53212 259.62077 C 189.3758 258.86187 189.20915 258.13953 189.16361 258.01614 C 189.0853 257.80535 189.10325 257.80566 189.42487 258.044 C 190.0138 258.4816 191.0011 258.881 192.09317 259.12074 C 193.76494 259.48804 194.64824 259.95118 195.59776 260.95533 C 196.17787 261.56878 196.77903 262.78744 196.9515 263.70204 C 197.02177 264.07692 197.1202 264.3596 197.1657 264.32926 C 197.3765 264.19337 197.61925 262.09156 197.58384 260.72797 C 197.56217 259.9582 197.57455 259.34095 197.6055 259.36116 C 198.29033 259.78096 199.49138 260.2832 200.03856 260.3778 C 202.4384 260.79174 203.25354 261.12678 204.2906 262.12877 C 204.98248 262.79728 205.65097 263.99072 205.81682 264.84932 C 205.96292 265.60686 206.05485 265.58795 206.20362 264.77627 C 206.35591 263.94698 206.39832 261.63276 206.26893 261.20897 C 206.19433 260.96474 206.20145 260.96443 206.8857 261.26128 C 207.50936 261.5312 207.71517 261.56432 208.95553 261.55906 C 209.713 261.55636 210.83147 261.51293 211.4409 261.46217 C 212.7409 261.35476 213.41843 261.47146 214.4097 261.98223 C 215.20754 262.39212 215.99022 263.1419 216.51613 263.9998 C 216.72445 264.34016 216.91977 264.61918 216.95518 264.61918 C 217.15917 264.61918 216.58528 261.9599 216.16854 260.9761 C 216.01935 260.62335 215.89677 260.3196 215.89677 260.30443 C 215.89677 260.28585 216.12676 260.34405 216.409 260.43258 C 217.08872 260.64492 218.402 260.63532 219.22888 260.4109 C 219.59532 260.31185 220.4134 259.95316 221.0452 259.6138 C 223.60746 258.23635 225.65715 258.3306 227.56305 259.91437 C 227.87167 260.17067 228.12493 260.3521 228.12493 260.3116 C 228.12493 260.18036 227.43645 258.8122 227.13706 258.34896 C 226.97363 258.09607 226.81443 257.8372 226.77902 257.774 C 226.74001 257.70218 227.01798 257.65606 227.5186 257.64584 C 228.54783 257.62727 229.63466 257.2842 230.55018 256.68413 C 232.2005 255.60238 233.30556 255.2394 234.68197 255.33298 C 235.73824 255.4045 236.57704 255.71638 237.42081 256.34698 C 237.76205 256.60204 238.04284 256.77947 238.04284 256.73898 C 238.04284 256.61702 237.69114 255.9498 237.36596 255.45318 C 237.19262 255.18883 237.04974 254.95302 237.04974 254.9227 C 237.04974 254.89483 237.3082 254.83756 237.62468 254.79206 C 238.46124 254.6763 239.66916 254.11215 240.4184 253.48796 C 242.00762 252.164 243.04461 251.70773 244.4927 251.69257 L 245.48844 251.68328 C 245.48844 251.68328 249.49628 247.62585 253.8409 242.897 C 256.0132 240.53257 258.27056 237.99984 260.1523 235.72317 C 262.03402 233.44653 263.54018 231.42563 264.21353 230.08346 C 264.20733 229.17424 264.33796 225.98653 264.4042 225.91766 C 264.42897 225.8929 264.80896 226.05633 265.25095 226.28093 C 266.06684 226.69538 267.9112 227.30604 268.1231 227.23221 C 268.18685 227.21055 267.9906 226.9985 267.68667 226.7618 C 266.71096 226.00148 266.05102 224.96727 265.70307 223.65445 C 265.50063 222.89251 265.6136 220.9858 265.92006 220.00874 C 266.1748 219.19499 266.25875 217.70863 266.103 216.75503 L 266.01416 216.20361 L 266.43488 216.39708 C 267.67134 216.96595 268.59053 217.16263 270.29752 217.2203 C 271.29127 217.2528 271.97796 217.23268 271.97796 217.17077 C 271.97796 217.11258 271.7266 216.96988 271.41868 216.85455 C 270.64894 216.56575 269.659 215.85272 269.1816 215.2447 C 268.32014 214.14746 267.95074 212.99117 267.8592 211.0972 C 267.82577 210.40152 267.72115 209.57343 267.6292 209.25736 C 267.53728 208.94123 267.4633 208.64692 267.46206 208.60141 C 267.4614 208.55684 267.77068 208.64135 268.1494 208.78962 C 269.20614 209.20285 271.53636 209.65184 271.53636 209.443 C 271.5363 209.40337 271.2847 209.22353 270.9771 209.04313 C 270.22883 208.60457 269.29848 207.59847 268.94647 206.84787 C 268.3406 205.55563 268.21595 204.39958 268.47083 202.39983 C 268.62095 201.2254 268.4894 199.97776 268.12324 199.11216 C 267.92514 198.6393 267.92173 198.6039 268.09848 198.67574 C 269.55762 199.27173 270.80294 199.54165 272.09177 199.53815 L 272.91763 199.53546 L 272.2329 199.18788 C 271.41896 198.7759 270.42957 197.866 270.03763 197.16772 C 269.37308 195.984 269.30074 195.62209 269.22487 193.15873 C 269.1444 190.54927 269.03667 190.06428 268.28925 188.8989 L 267.84237 188.20112 L 269.07852 188.25065 C 270.41412 188.3039 271.982 188.19462 271.982 188.04666 C 271.982 187.99652 271.7446 187.8922 271.45672 187.81668 C 270.58066 187.58669 269.70345 187.01911 268.98705 186.21988 C 267.9987 185.11714 267.64547 184.17254 267.36933 181.88683 C 267.23746 180.79493 266.9215 179.85621 266.4259 179.08787 L 266.06526 178.5286 L 267.56276 178.4605 C 269.02995 178.39208 270.4415 178.136 270.1082 177.99792 C 270.0172 177.96015 269.69506 177.87348 269.3921 177.80445 C 267.93065 177.47312 266.54025 176.31903 265.8588 174.87483 C 265.61488 174.35772 265.38043 173.57863 265.20545 172.69263 C 264.92903 171.29314 264.4986 170.17669 263.9902 169.54609 C 263.6884 169.17136 263.72956 169.07045 264.18365 169.07045 C 264.7355 169.07045 266.84348 168.47186 267.0741 168.24982 C 267.13537 168.18946 266.9806 168.15046 266.70298 168.15046 C 266.44203 168.15046 265.92532 168.0675 265.5531 167.96752 C 263.6126 167.44536 262.15947 165.89543 261.56763 163.71552 C 261.28038 162.65726 260.6907 161.45441 260.14854 160.82505 L 259.6546 160.25534 L 260.50136 160.11698 C 262.064 159.86408 263.22575 159.41135 262.30985 159.41135 C 261.80867 159.41135 260.58954 159.01337 260.0179 158.66393 C 258.77855 157.90596 257.86537 156.47043 257.37834 154.51383 C 257.0619 153.24279 256.51834 152.08272 255.94882 151.45615 C 255.73678 151.22307 255.56464 151.01118 255.56464 150.99094 C 255.56464 150.96618 255.9494 150.9408 256.41922 150.92563 C 257.27585 150.90086 258.40688 150.70678 258.57527 150.55452 C 258.6248 150.50964 258.28894 150.34125 257.82782 150.18081 C 256.72357 149.79652 255.91325 149.28323 254.98184 148.37492 C 253.64713 147.07355 252.87768 145.73484 252.03913 143.25527 C 251.33718 141.17942 250.80722 140.17289 249.68445 138.79156 L 249.07292 138.03888 L 249.89615 137.61293 C 250.34993 137.37922 250.74636 137.15143 250.77162 137.1059 C 250.79948 137.0604 250.3386 136.98951 249.7498 136.94927 C 247.52364 136.7979 245.74192 135.85015 243.91405 133.84191 C 243.4859 133.3716 242.88935 132.60536 242.58643 132.14058 C 240.87473 129.5145 238.80168 127.86669 236.49718 127.29531 C 236.19754 127.22102 235.9536 127.1294 235.9536 127.08885 C 235.9536 127.05046 236.1644 126.9217 236.4214 126.80128 C 237.33417 126.37412 239.27496 124.89457 239.12626 124.7393 C 239.09128 124.70278 238.76596 124.75169 238.40237 124.85167 C 237.47025 125.10395 235.96022 125.08104 234.89778 124.79936 C 233.34518 124.3876 231.5932 123.38404 230.3243 122.1807 C 228.58395 120.5302 226.65953 119.36354 225.01386 118.96098 L 224.15665 118.75204 L 224.62706 118.38617 C 225.42013 117.7734 226.56317 116.57136 226.45644 116.46008 C 226.42147 116.42324 226.20634 116.47246 225.9782 116.57244 C 224.78325 117.09334 222.95835 117.2399 221.5537 116.92786 C 219.9507 116.57182 218.92934 116.08114 217.00375 114.74306 C 215.0757 113.40324 213.8821 112.86294 212.16894 112.55042 C 211.66104 112.45787 210.97665 112.38049 210.64795 112.38049 L 210.04945 112.38049 L 210.7603 111.75066 C 211.493 111.10202 212.25412 110.19569 212.067 110.19569 C 212.0088 110.19569 211.78223 110.27524 211.5626 110.37089 C 210.9605 110.63338 209.6864 110.88574 208.9675 110.88574 C 206.87118 110.88574 204.7259 110.04045 202.39218 108.29322 C 200.99733 107.24895 199.034 106.38431 197.69586 106.22601 C 196.49558 106.08393 196.51363 106.1285 197.33261 105.3453 C 198.01342 104.69422 199.01664 103.34425 198.90588 103.22845 C 198.87803 103.20059 198.5385 103.33245 198.1506 103.52127 C 196.994 104.08423 196.1559 104.26854 194.80283 104.26346 C 192.88764 104.25417 191.4766 103.8244 189.19181 102.5569 C 186.60625 101.12273 184.04152 100.6822 181.8011 101.28679 C 181.06788 101.48459 179.7468 102.11843 179.32096 102.47849 L 179.0467 102.71096 L 179.7602 103.4636 C 180.15257 103.87734 180.3969 104.21625 180.30638 104.21625 C 180.02841 104.21625 176.8046 103.22006 175.52122 102.73708 C 170.44537 100.82644 166.04299 97.77177 163.4342 94.35063 C 161.5052 91.82097 159.88018 90.34638 157.89113 89.32245 C 156.24623 88.47548 155.23503 88.23002 153.07985 88.15164 L 151.3498 88.0888 L 150.9447 87.4041 C 149.9867 85.78415 148.82731 84.68741 147.32251 83.97532 C 146.10345 83.39842 145.30062 83.24455 143.4599 83.24353 C 141.64488 83.2422 140.62922 83.40263 138.66691 83.99881 C 138.03059 84.19196 137.43175 84.37354 137.33666 84.40391 C 121.18417 81.24445 114.06179 78.18319 99.27756 89.05055 Z"
             stroke="black"
             stroke-linecap="butt"
             stroke-linejoin="round"
             stroke-width="1.3380677"
             id="path90" />
        </g>
        <g
           id="Graphic_47">
          <title
             id="title93">path6287-5-6</title>
          <path
             d="M 127.12942 271.0515 C 127.91669 271.15163 132.98674 269.77474 133.87434 269.08782 C 134.76204 268.40104 135.85041 266.13964 134.99508 265.46576 C 134.1398 264.79198 133.28451 264.1182 131.75535 264.29965 C 130.22619 264.4812 128.90128 266.38294 128.60973 267.1929 C 128.31844 268.00288 127.12942 271.0515 127.12942 271.0515 Z"
             fill="#f3f3f3"
             id="path95" />
          <path
             d="M 127.12942 271.0515 C 127.91669 271.15163 132.98674 269.77474 133.87434 269.08782 C 134.76204 268.40104 135.85041 266.13964 134.99508 265.46576 C 134.1398 264.79198 133.28451 264.1182 131.75535 264.29965 C 130.22619 264.4812 128.90128 266.38294 128.60973 267.1929 C 128.31844 268.00288 127.12942 271.0515 127.12942 271.0515 Z"
             stroke="black"
             stroke-linecap="round"
             stroke-linejoin="round"
             stroke-width="1.3380649"
             id="path97" />
        </g>
        <g
           id="Graphic_46">
          <title
             id="title100">path5056</title>
          <path
             d="M 124.31127 266.1544 C 125.09853 266.25454 130.16858 264.87765 131.05618 264.19072 C 131.94388 263.50395 133.03226 261.24254 132.17692 260.56866 C 131.32164 259.89488 130.46635 259.2211 128.93719 259.40256 C 127.40803 259.5841 126.08313 261.48585 125.79158 262.29582 C 125.50028 263.1058 124.31127 266.1544 124.31127 266.1544 Z"
             fill="#f3f3f3"
             id="path102" />
          <path
             d="M 124.31127 266.1544 C 125.09853 266.25454 130.16858 264.87765 131.05618 264.19072 C 131.94388 263.50395 133.03226 261.24254 132.17692 260.56866 C 131.32164 259.89488 130.46635 259.2211 128.93719 259.40256 C 127.40803 259.5841 126.08313 261.48585 125.79158 262.29582 C 125.50028 263.1058 124.31127 266.1544 124.31127 266.1544 Z"
             stroke="black"
             stroke-linecap="round"
             stroke-linejoin="round"
             stroke-width="1.3380649"
             id="path104" />
        </g>
        <g
           id="Graphic_45">
          <title
             id="title107">path5058</title>
          <path
             d="M 123.60244 260.26745 C 124.3897 260.3676 129.45976 258.9907 130.34736 258.30377 C 131.23506 257.617 132.32343 255.3556 131.4681 254.6817 C 130.61281 254.00793 129.75753 253.33415 128.22837 253.5156 C 126.6992 253.69716 125.3743 255.5989 125.08275 256.40886 C 124.79145 257.21883 123.60244 260.26745 123.60244 260.26745 Z"
             fill="#f3f3f3"
             id="path109" />
          <path
             d="M 123.60244 260.26745 C 124.3897 260.3676 129.45976 258.9907 130.34736 258.30377 C 131.23506 257.617 132.32343 255.3556 131.4681 254.6817 C 130.61281 254.00793 129.75753 253.33415 128.22837 253.5156 C 126.6992 253.69716 125.3743 255.5989 125.08275 256.40886 C 124.79145 257.21883 123.60244 260.26745 123.60244 260.26745 Z"
             stroke="black"
             stroke-linecap="round"
             stroke-linejoin="round"
             stroke-width="1.3380649"
             id="path111" />
        </g>
        <g
           id="Graphic_44">
          <title
             id="title114">path6160</title>
          <path
             d="M 134.3504 89.64217 C 136.64081 69.167005 168.46524 82.63296 148.63076 97.24366"
             fill="#f3f3f3"
             id="path116" />
          <path
             d="M 134.3504 89.64217 C 136.64081 69.167005 168.46524 82.63296 148.63076 97.24366"
             stroke="black"
             stroke-linecap="butt"
             stroke-linejoin="round"
             stroke-width="1.1063888"
             id="path118" />
        </g>
        <g
           id="Graphic_43">
          <title
             id="title121">path6162</title>
          <path
             d="M 146.75113 97.41942 C 146.75113 97.41942 146.14183 96.11897 145.31402 95.67822 C 144.48607 95.23753 139.94584 92.28949 139.94584 92.28949 C 139.94584 92.28949 136.22841 92.03721 137.98614 90.98075 C 139.74393 89.92426 140.90226 89.74361 141.3915 89.0746 C 141.88063 88.40534 143.96888 86.72766 143.96888 86.72766 C 143.96888 86.72766 146.26416 85.16033 147.37424 84.82151 C 148.48431 84.48268 150.41718 86.83971 150.61076 87.47402 C 150.80423 88.10837 150.74232 88.474 150.14336 89.35028 C 149.54409 90.22662 149.53068 90.75076 148.99317 91.2615 C 148.45574 91.77262 147.17365 92.68363 146.53931 92.87725 C 145.905 93.07102 145.89992 95.32605 145.89992 95.32605 Z"
             fill="#383838"
             id="path123" />
          <path
             d="M 146.75113 97.41942 C 146.75113 97.41942 146.14183 96.11897 145.31402 95.67822 C 144.48607 95.23753 139.94584 92.28949 139.94584 92.28949 C 139.94584 92.28949 136.22841 92.03721 137.98614 90.98075 C 139.74393 89.92426 140.90226 89.74361 141.3915 89.0746 C 141.88063 88.40534 143.96888 86.72766 143.96888 86.72766 C 143.96888 86.72766 146.26416 85.16033 147.37424 84.82151 C 148.48431 84.48268 150.41718 86.83971 150.61076 87.47402 C 150.80423 88.10837 150.74232 88.474 150.14336 89.35028 C 149.54409 90.22662 149.53068 90.75076 148.99317 91.2615 C 148.45574 91.77262 147.17365 92.68363 146.53931 92.87725 C 145.905 93.07102 145.89992 95.32605 145.89992 95.32605 Z"
             stroke="#1e0c00"
             stroke-linecap="round"
             stroke-linejoin="round"
             stroke-width=".55319286"
             id="path125" />
        </g>
        <g
           id="Graphic_42">
          <title
             id="title128">path6275</title>
          <path
             d="M 85.05301 117.3051 L 85.45003 125.34195 L 91.62519 127.47986 L 90.95741 115.73684 Z"
             fill="#ccc"
             id="path130" />
          <path
             d="M 85.05301 117.3051 L 85.45003 125.34195 L 91.62519 127.47986 L 90.95741 115.73684 Z"
             stroke="black"
             stroke-linecap="round"
             stroke-linejoin="round"
             stroke-width="1.3380647"
             id="path132" />
        </g>
        <g
           id="Graphic_41">
          <title
             id="title135">path6133</title>
          <path
             d="M 90.29098 106.86838 C 92.00491 110.21912 92.16951 115.72981 90.65863 119.17687 C 89.14776 122.62395 86.53355 122.70203 84.81963 119.35128 C 83.1057 116.00055 82.9411 110.48985 84.45198 107.04279 C 85.96285 103.59571 88.57706 103.51763 90.29098 106.86838 Z"
             fill="#e1e1e1"
             id="path137" />
          <path
             d="M 90.29098 106.86838 C 92.00491 110.21912 92.16951 115.72981 90.65863 119.17687 C 89.14776 122.62395 86.53355 122.70203 84.81963 119.35128 C 83.1057 116.00055 82.9411 110.48985 84.45198 107.04279 C 85.96285 103.59571 88.57706 103.51763 90.29098 106.86838 Z"
             stroke="black"
             stroke-linecap="round"
             stroke-linejoin="round"
             stroke-width="1.3380647"
             id="path139" />
        </g>
        <g
           id="Graphic_40">
          <title
             id="title142">path6191</title>
          <path
             d="M 94.53886 117.38425 L 94.26492 128.39158 L 88.61663 126.94113 L 88.50737 116.78835 Z"
             fill="#ccc"
             id="path144" />
          <path
             d="M 94.53886 117.38425 L 94.26492 128.39158 L 88.61663 126.94113 L 88.50737 116.78835 Z"
             stroke="black"
             stroke-linecap="round"
             stroke-linejoin="round"
             stroke-width="1.3380647"
             id="path146" />
        </g>
        <g
           id="Graphic_39">
          <title
             id="title149">path6131</title>
          <path
             d="M 84.8481 99.01758 C 84.66949 100.01705 85.55227 103.61095 86.48272 105.87124 C 86.97378 107.06567 87.79112 107.77817 87.79112 107.77817 C 87.79112 107.77817 90.66982 105.24845 92.24136 104.15951 C 94.08161 102.88436 98.03906 100.76868 98.03906 100.76868 C 98.03906 100.76868 95.03732 101.50307 93.50877 101.70842 C 92.10436 101.89693 90.634 102.34288 89.26599 101.974 C 87.55531 101.51229 84.8481 99.01773 84.8481 99.01773 Z"
             fill="black"
             id="path151" />
          <path
             d="M 84.8481 99.01758 C 84.66949 100.01705 85.55227 103.61095 86.48272 105.87124 C 86.97378 107.06567 87.79112 107.77817 87.79112 107.77817 C 87.79112 107.77817 90.66982 105.24845 92.24136 104.15951 C 94.08161 102.88436 98.03906 100.76868 98.03906 100.76868 C 98.03906 100.76868 95.03732 101.50307 93.50877 101.70842 C 92.10436 101.89693 90.634 102.34288 89.26599 101.974 C 87.55531 101.51229 84.8481 99.01773 84.8481 99.01773 Z"
             stroke="black"
             stroke-linecap="round"
             stroke-linejoin="round"
             stroke-width="1.064446"
             id="path153" />
        </g>
        <g
           id="Graphic_38">
          <title
             id="title156">path6158</title>
          <path
             d="M 92.42844 104.15552 C 90.86412 104.99688 91.29063 103.67558 88.93094 105.94699 C 85.2132 109.5255 87.27029 122.13285 88.13963 122.02377 C 88.13963 122.02377 91.52886 118.42579 93.2899 118.85008 C 95.05094 119.2744 104.37514 122.81037 104.37514 122.81037 C 104.37514 122.81037 109.0957 125.2811 109.73565 125.42095 C 110.37562 125.56055 114.50914 125.59584 114.50914 125.59584 L 112.56386 122.02581"
             fill="#e1e1e1"
             id="path158" />
          <path
             d="M 92.42844 104.15552 C 90.86412 104.99688 91.29063 103.67558 88.93094 105.94699 C 85.2132 109.5255 87.27029 122.13285 88.13963 122.02377 C 88.13963 122.02377 91.52886 118.42579 93.2899 118.85008 C 95.05094 119.2744 104.37514 122.81037 104.37514 122.81037 C 104.37514 122.81037 109.0957 125.2811 109.73565 125.42095 C 110.37562 125.56055 114.50914 125.59584 114.50914 125.59584 L 112.56386 122.02581"
             stroke="black"
             stroke-linecap="round"
             stroke-linejoin="round"
             stroke-width="1.3380647"
             id="path160" />
        </g>
        <g
           id="Graphic_37">
          <title
             id="title163">path9825</title>
          <path
             d="M 97.32037 100.53999 C 96.40459 101.39092 94.7973 102.04885 93.59105 102.8869 C 92.66825 103.52827 90.91296 104.93408 90.91296 104.93408 C 90.91296 104.93408 91.21074 107.93836 93.61132 109.51389 C 96.01153 111.08936 99.1569 116.05697 102.53077 118.65231 C 105.80163 121.16838 111.0893 125.26642 113.31162 124.73785 C 115.15651 124.29939 116.4139 123.5862 116.02617 122.42122 C 115.63828 121.25617 110.48015 119.78003 108.11978 117.86032 C 105.54573 115.76677 103.2668 113.23699 101.49366 110.43264 C 99.581 107.40762 97.32037 100.53999 97.32037 100.53999 Z"
             fill="#e1e1e1"
             id="path165" />
        </g>
        <g
           id="Graphic_36">
          <title
             id="title168">path7987</title>
          <path
             d="M 96.9443 174.58244 C 96.05611 173.7829 89.50084 171.41918 88.11515 170.81499 C 86.72952 170.21077 84.11814 168.8247 82.94557 169.05547 C 81.773 169.28607 79.96073 170.2277 79.49874 171.09816 C 79.0365 171.96862 78.37891 175.55725 78.37891 175.55725 Z"
             fill="#f3f3f3"
             id="path170" />
          <path
             d="M 96.9443 174.58244 C 96.05611 173.7829 89.50084 171.41918 88.11515 170.81499 C 86.72952 170.21077 84.11814 168.8247 82.94557 169.05547 C 81.773 169.28607 79.96073 170.2277 79.49874 171.09816 C 79.0365 171.96862 78.37891 175.55725 78.37891 175.55725 Z"
             stroke="black"
             stroke-linecap="butt"
             stroke-linejoin="round"
             stroke-width="1.2358728"
             id="path172" />
        </g>
        <g
           id="Graphic_35">
          <title
             id="title175">path7968</title>
          <path
             d="M 150.3167 143.51686 C 147.36736 145.36414 137.54207 151.63423 134.93026 153.46374 C 132.31848 155.29331 127.92984 158.73934 124.35854 161.63472 C 120.78728 164.53004 116.77163 168.63344 113.46704 170.1609 C 110.16241 171.68833 111.45945 170.60493 107.49745 172.50524 C 103.53545 174.40566 86.40927 173.7817 85.05908 173.85254 C 83.70886 173.92343 79.10757 173.3188 77.95274 173.88783 C 76.7979 174.45615 75.21646 176.5701 75.784835 177.72496 C 76.35318 178.8798 76.70844 179.19962 76.70844 179.19962 L 91.95147 179.41444 L 78.41395 179.44972 C 74.98325 179.39927 74.21658 185.7093 78.44924 186.55604 C 79.6211 186.79067 91.18681 190.626 91.18681 190.626 C 91.18681 190.626 93.49652 189.4893 94.3138 188.93867 C 95.13111 188.38803 99.46567 190.36057 100.70916 191.48 C 101.95264 192.59942 103.40919 194.55383 103.40919 194.55383 C 103.40919 194.55383 109.00581 191.55215 110.00071 191.16139 C 110.9957 190.77044 110.7644 192.81369 110.7644 192.81369 C 110.7644 192.81369 113.19823 194.03987 114.49524 192.95638 C 115.79228 191.87287 120.00321 188.26693 120.00321 188.26693 L 120.10907 193.50783 C 120.10907 193.50783 124.37318 190.9146 125.52802 190.34624 C 126.68288 189.7779 129.47234 188.10826 129.47234 188.10826 L 130.60904 190.41796 C 130.60904 190.41796 131.33736 191.39515 132.49216 190.82659 C 133.647 190.25818 135.939 188.78396 136.57863 188.07335 C 137.21832 187.36283 139.0128 186.0839 139.0128 186.0839 L 139.65209 188.58895 L 143.80947 187.18602 L 147.30985 182.94045 C 147.30985 182.94045 145.7993 186.40455 147.62945 185.8008 C 149.45943 185.19694 152.40876 183.34966 152.40876 183.34966 L 160.03111 177.02602 C 160.03111 177.02602 163.90452 173.43785 164.89945 173.04712 C 165.8944 172.6562 166.55175 172.28342 166.55175 172.28342"
             fill="#f3f3f3"
             id="path177" />
          <path
             d="M 150.3167 143.51686 C 147.36736 145.36414 137.54207 151.63423 134.93026 153.46374 C 132.31848 155.29331 127.92984 158.73934 124.35854 161.63472 C 120.78728 164.53004 116.77163 168.63344 113.46704 170.1609 C 110.16241 171.68833 111.45945 170.60493 107.49745 172.50524 C 103.53545 174.40566 86.40927 173.7817 85.05908 173.85254 C 83.70886 173.92343 79.10757 173.3188 77.95274 173.88783 C 76.7979 174.45615 75.21646 176.5701 75.784835 177.72496 C 76.35318 178.8798 76.70844 179.19962 76.70844 179.19962 L 91.95147 179.41444 L 78.41395 179.44972 C 74.98325 179.39927 74.21658 185.7093 78.44924 186.55604 C 79.6211 186.79067 91.18681 190.626 91.18681 190.626 C 91.18681 190.626 93.49652 189.4893 94.3138 188.93867 C 95.13111 188.38803 99.46567 190.36057 100.70916 191.48 C 101.95264 192.59942 103.40919 194.55383 103.40919 194.55383 C 103.40919 194.55383 109.00581 191.55215 110.00071 191.16139 C 110.9957 190.77044 110.7644 192.81369 110.7644 192.81369 C 110.7644 192.81369 113.19823 194.03987 114.49524 192.95638 C 115.79228 191.87287 120.00321 188.26693 120.00321 188.26693 L 120.10907 193.50783 C 120.10907 193.50783 124.37318 190.9146 125.52802 190.34624 C 126.68288 189.7779 129.47234 188.10826 129.47234 188.10826 L 130.60904 190.41796 C 130.60904 190.41796 131.33736 191.39515 132.49216 190.82659 C 133.647 190.25818 135.939 188.78396 136.57863 188.07335 C 137.21832 187.36283 139.0128 186.0839 139.0128 186.0839 L 139.65209 188.58895 L 143.80947 187.18602 L 147.30985 182.94045 C 147.30985 182.94045 145.7993 186.40455 147.62945 185.8008 C 149.45943 185.19694 152.40876 183.34966 152.40876 183.34966 L 160.03111 177.02602 C 160.03111 177.02602 163.90452 173.43785 164.89945 173.04712 C 165.8944 172.6562 166.55175 172.28342 166.55175 172.28342"
             stroke="black"
             stroke-linecap="butt"
             stroke-linejoin="round"
             stroke-width="1.2358728"
             id="path179" />
        </g>
        <g
           id="Graphic_34">
          <title
             id="title182">path8029</title>
          <path
             d="M 72.83417 176.57078 C 73.39852 177.2262 78.35548 178.09678 79.57519 178.18766 C 80.79491 178.27867 83.46529 178.69723 83.26387 177.5279 C 83.06267 176.35856 82.87447 175.44315 81.50354 174.47525 C 80.13277 173.50734 77.673065 174.0818 76.84641 174.5257 C 76.01981 174.96921 72.83417 176.57146 72.83417 176.57146 Z"
             fill="#f3f3f3"
             id="path184" />
          <path
             d="M 72.83417 176.57078 C 73.39852 177.2262 78.35548 178.09678 79.57519 178.18766 C 80.79491 178.27867 83.46529 178.69723 83.26387 177.5279 C 83.06267 176.35856 82.87447 175.44315 81.50354 174.47525 C 80.13277 173.50734 77.673065 174.0818 76.84641 174.5257 C 76.01981 174.96921 72.83417 176.57146 72.83417 176.57146 Z"
             stroke="black"
             stroke-linecap="round"
             stroke-linejoin="round"
             stroke-width=".5333853"
             id="path186" />
        </g>
        <g
           id="Graphic_33">
          <title
             id="title189">path6287-5</title>
          <path
             d="M 72.37236 182.92825 C 72.93669 183.58361 78.04711 186.16478 79.2668 186.25566 C 80.48651 186.34667 83.01682 185.30865 82.81534 184.13927 C 82.61414 182.96998 82.41226 181.80062 81.04164 180.83272 C 79.670935 179.86482 77.21123 180.43926 76.38457 180.88318 C 75.55791 181.32669 72.37236 182.92893 72.37236 182.92893 Z"
             fill="#f3f3f3"
             id="path191" />
          <path
             d="M 72.37236 182.92825 C 72.93669 183.58361 78.04711 186.16478 79.2668 186.25566 C 80.48651 186.34667 83.01682 185.30865 82.81534 184.13927 C 82.61414 182.96998 82.41226 181.80062 81.04164 180.83272 C 79.670935 179.86482 77.21123 180.43926 76.38457 180.88318 C 75.55791 181.32669 72.37236 182.92893 72.37236 182.92893 Z"
             stroke="black"
             stroke-linecap="round"
             stroke-linejoin="round"
             stroke-width=".5333853"
             id="path193" />
        </g>
        <g
           id="Graphic_32">
          <title
             id="title196">path8031</title>
          <path
             d="M 74.89481 171.2417 C 75.45914 171.89705 80.41606 172.7677 81.63578 172.85858 C 82.85549 172.94958 85.52593 173.36814 85.32445 172.19882 C 85.12325 171.02947 84.93505 170.11406 83.56412 169.14616 C 82.19335 168.17826 79.73365 168.7527 78.90705 169.19662 C 78.08039 169.64013 74.89481 171.24237 74.89481 171.24237 Z"
             fill="#f3f3f3"
             id="path198" />
          <path
             d="M 74.89481 171.2417 C 75.45914 171.89705 80.41606 172.7677 81.63578 172.85858 C 82.85549 172.94958 85.52593 173.36814 85.32445 172.19882 C 85.12325 171.02947 84.93505 170.11406 83.56412 169.14616 C 82.19335 168.17826 79.73365 168.7527 78.90705 169.19662 C 78.08039 169.64013 74.89481 171.24237 74.89481 171.24237 Z"
             stroke="black"
             stroke-linecap="round"
             stroke-linejoin="round"
             stroke-width=".5333853"
             id="path200" />
        </g>
        <g
           id="Graphic_31">
          <title
             id="title203">path2990-7-0-7</title>
          <path
             d="M 113.02603 97.93165 C 110.54 97.18121 109.10236 94.65045 109.81098 92.27201 C 110.5196 89.89356 113.10751 88.56352 115.59842 89.29758 C 118.08934 90.03165 119.54479 92.55326 118.85331 94.93675 C 118.16183 97.32025 115.58394 98.66764 113.08827 97.94998 L 114.32765 93.61921 Z"
             fill="white"
             id="path205" />
          <path
             d="M 113.02603 97.93165 C 110.54 97.18121 109.10236 94.65045 109.81098 92.27201 C 110.5196 89.89356 113.10751 88.56352 115.59842 89.29758 C 118.08934 90.03165 119.54479 92.55326 118.85331 94.93675 C 118.16183 97.32025 115.58394 98.66764 113.08827 97.94998 L 114.32765 93.61921 Z"
             stroke="black"
             stroke-linecap="round"
             stroke-linejoin="round"
             stroke-width=".60673414"
             id="path207" />
        </g>
        <g
           id="Graphic_30">
          <title
             id="title210">path3015-7-3-9</title>
          <path
             d="M 114.9444 91.90482 C 116.06647 93.25508 116.03747 95.41952 114.87964 96.73923 C 113.7218 98.05896 111.8736 98.0342 110.75154 96.68393 C 109.62947 95.33367 109.65847 93.16923 110.8163 91.84951 C 111.97413 90.52979 113.82235 90.55455 114.9444 91.90482 Z"
             fill="#0b0b0b"
             id="path212" />
          <path
             d="M 114.9444 91.90482 C 116.06647 93.25508 116.03747 95.41952 114.87964 96.73923 C 113.7218 98.05896 111.8736 98.0342 110.75154 96.68393 C 109.62947 95.33367 109.65847 93.16923 110.8163 91.84951 C 111.97413 90.52979 113.82235 90.55455 114.9444 91.90482 Z"
             stroke="#0b0b0b"
             stroke-linecap="round"
             stroke-linejoin="round"
             stroke-width=".60673414"
             id="path214" />
        </g>
        <g
           id="Graphic_29">
          <title
             id="title217">path4321-2-8-5</title>
          <path
             d="M 112.23324 93.25529 C 112.61638 93.71636 112.60648 94.45544 112.21112 94.90607 C 111.81576 95.35671 111.18466 95.34826 110.80152 94.88719 C 110.41837 94.42612 110.42827 93.68704 110.82363 93.2364 C 111.21899 92.78576 111.85009 92.79422 112.23324 93.25529 Z"
             fill="white"
             id="path219" />
        </g>
        <g
           id="Graphic_28">
          <title
             id="title222">path6231</title>
          <path
             d="M 103.79927 89.5741 C 103.79927 89.5741 105.66221 87.71531 106.79677 87.08174 C 108.283 86.2519 109.94617 85.65414 111.63635 85.45083 C 113.12168 85.27223 114.62989 85.60313 116.10789 85.83467 C 117.95009 86.12347 119.84144 86.36054 121.56107 87.08116 C 122.98266 87.6773 125.45624 89.57401 125.45624 89.57401 C 125.45624 89.57401 122.11555 87.86473 120.31467 87.39277 C 118.57223 86.9366 116.7373 86.61879 114.94435 86.79238 C 112.20662 87.05642 109.76716 88.71733 107.07112 89.2624 C 105.99732 89.47939 103.79927 89.57392 103.79927 89.57392 Z"
             fill="black"
             id="path224" />
        </g>
        <g
           id="Graphic_27">
          <title
             id="title227">path5082</title>
          <path
             d="M 161.57371 220.00601 C 161.57371 220.00601 164.52924 202.72645 183.00886 197.18258 C 201.48845 191.63873 202.96681 193.11707 202.96681 193.11707"
             stroke="black"
             stroke-linecap="butt"
             stroke-linejoin="round"
             stroke-width="1.3380647"
             id="path229" />
        </g>
      </g>
    </g>
  </g>
  <path
     style="fill:#ffff00;fill-rule:evenodd;stroke:#000000;stroke-width:0.493233"
     d="m 77.080076,3.1395118 c -4.727819,-0.2671336 -8.789452,3.6934599 -9.569635,8.1954942 -0.08023,0.438752 -0.29431,2.007044 -0.931525,1.377193 0.06699,-1.587314 0.983212,-3.0434748 1.010891,-4.606245 C 65.673136,7.2128889 63.356442,7.1742509 61.285767,6.6670207 55.146686,5.4546569 48.568857,4.5475283 42.588691,6.9714358 38.559655,8.6047532 34.570999,10.702049 31.406819,13.715459 c -1.742657,1.948565 -4.544199,2.487221 -6.703683,3.879028 -2.248324,1.306875 -4.801541,2.772021 -5.940343,5.20017 0.193122,1.267478 1.829081,1.761172 2.876487,2.16118 2.588818,0.555902 5.208707,-0.33998 7.735073,-0.736673 -3.216018,1.843515 -6.64139,3.90432 -8.600462,7.152043 -1.535049,4.020435 -1.11348,8.530143 -0.321531,12.665392 0.786455,0.672547 1.731381,-0.71139 2.456257,-1.040906 1.228449,-1.028862 2.880005,-1.495314 4.338759,-0.679002 5.04993,1.640251 9.903847,3.806244 14.762864,5.917119 1.612457,0.468554 3.399588,0.220018 4.986284,0.0051 0.384499,0.426491 0.629463,1.358551 -0.239625,1.279513 -1.875752,0.261737 -3.819859,-0.265839 -5.713797,-0.277272 -0.43261,0.85815 1.037736,1.51299 1.411006,2.205654 1.353367,1.426776 3.226009,3.524932 5.393049,2.437222 1.326816,1.405226 2.241009,3.329802 4.030846,4.308626 2.347676,1.617016 5.990244,1.79966 7.117448,4.829078 1.028159,3.815137 0.970538,7.848679 1.54226,11.749144 0.238888,1.864205 0.357107,3.75502 0.721687,5.59779 0.891576,0.469861 1.768926,-0.905391 2.583446,-1.228636 5.919166,-4.235983 11.971181,-8.33233 18.301355,-11.926685 0.577964,-0.40135 0.798396,0.397593 0.113961,0.541311 -8.04819,5.305689 -16.303133,10.358383 -23.720903,16.553727 -5.029972,3.874505 -9.308862,8.939541 -15.514328,10.925651 -3.19093,1.421079 -6.604449,2.267494 -10.109937,2.251675 -6.081543,0.321942 -12.250514,0.08534 -18.291953,0.469005 0.267584,1.100835 1.580802,2.408777 0.930508,3.699137 0.422039,1.12607 2.173668,0.61944 3.119671,0.84555 2.033692,0.22452 4.260406,-0.31377 6.174729,0.39988 -0.578194,0.52492 -1.838186,0.17319 -2.620037,0.32347 -3.181631,0.11524 -6.435344,-0.13902 -9.570182,0.14509 0.07958,0.86941 1.53386,1.04034 1.84728,1.97243 0.890856,1.15295 1.369926,3.26221 -0.433966,3.87721 -0.667903,-0.0625 -1.336841,0.78496 -0.49349,1.07194 3.305897,1.28869 6.740488,2.37423 10.131298,3.33131 1.653055,-0.70297 3.407453,-2.27162 5.278895,-1.27364 2.804693,0.85359 5.066102,2.82552 6.98204,4.97329 2.338018,-0.59773 4.440724,-2.35168 6.830002,-3.05506 1.141567,0.32737 0.545922,2.18567 1.935295,2.12709 2.155384,0.38223 3.503184,-1.84083 5.111667,-2.85898 0.887558,-0.65916 1.786104,-1.56946 2.767892,-1.97417 0.477069,1.30037 -0.08128,3.01621 0.758042,4.13311 1.886737,-0.36165 3.475313,-1.79656 5.212833,-2.60351 1.165252,-0.56214 2.346795,-1.56388 3.588077,-1.77533 0.778248,0.80795 0.989462,2.79007 2.398767,2.63738 2.696362,-0.89715 4.467671,-3.34707 6.929719,-4.60523 0.920096,0.10211 0.286861,2.32067 1.61071,1.88747 2.083035,-0.28311 3.826978,-1.53591 4.946711,-3.28862 0.593559,-0.53803 1.134566,-1.70646 2.00183,-1.69919 0.254493,0.7188 -1.008836,2.36892 0.240133,2.49289 4.484136,-1.62187 7.773694,-5.32394 11.487136,-8.16244 2.275901,-1.625208 4.139475,-4.193123 6.95565,-4.884516 0.637072,0.85845 -1.177294,0.994421 -1.569501,1.509978 -4.584187,3.320548 -8.489064,7.541398 -13.232653,10.644118 -1.376294,0.65784 -2.765022,1.70515 -4.312187,1.88086 -0.558667,-0.19207 -1.01777,-1.28715 -1.635637,-0.47823 -1.257468,2.11754 -3.823058,2.66093 -6.062296,3.05506 -0.433089,-0.45005 -0.327196,-2.02744 -1.342599,-1.47996 -0.989495,0.79396 -2.239516,1.54527 -2.839347,2.62363 2.882626,6.71558 6.339734,13.29484 10.955476,18.98003 0.779505,0.38688 1.386614,-1.72203 1.846265,-0.28337 1.285243,2.49377 2.68134,5.05972 4.765992,6.94447 0.706285,-0.20805 0.473693,-2.05144 1.341072,-1.79284 2.166869,1.77217 4.156709,3.92424 6.738935,5.09261 1.070024,-0.5786 0.943641,-2.27167 1.558819,-3.25347 2.997616,-7.70314 8.959322,-14.22238 16.629952,-17.44313 5.80625,-2.26553 11.92722,-3.84246 18.05578,-5.07324 1.91646,-0.2322 4.07396,-0.75723 5.90152,-0.41769 -1.55292,1.16752 -3.74665,0.67415 -5.54587,1.25558 -6.5084,1.40031 -13.08496,2.88264 -19.20175,5.56544 -6.77432,3.34176 -12.298391,9.18351 -14.933545,16.29743 -1.002251,3.12949 -2.341425,6.1088 -3.442219,9.21074 -1.198096,4.80237 -0.925495,9.83143 -0.951876,14.7411 -0.01486,2.11838 0.618935,4.77875 2.957379,5.38973 2.099031,2.22165 3.644501,4.95996 5.109401,7.63536 0.197049,0.72371 0.66035,1.53913 -0.539277,1.06278 -7.694318,-1.35688 -15.196276,-4.16166 -23.107009,-3.99707 -4.46318,-0.25666 -9.005802,0.83717 -12.816516,3.18256 -0.393055,0.89664 1.506916,0.94035 1.498786,1.96429 0.490992,1.51606 -0.789623,2.78905 -1.516084,3.91027 1.096986,0.6558 2.708792,1.58399 2.240037,3.17411 -0.148516,0.60936 -0.888501,1.88344 0.287447,1.87119 1.42844,0.36079 3.221906,1.5361 2.491219,3.26573 -0.420854,1.65963 1.778158,0.25852 2.593253,0.29808 7.478079,-1.60304 15.273255,-0.93681 22.919496,-1.21779 3.011341,-0.0789 6.030837,-0.22919 8.915258,0.80321 5.08295,1.27003 10.45283,2.47457 15.67357,1.33441 2.64587,-0.86636 4.1293,-3.77452 3.67625,-6.46065 0.0626,-1.49474 -0.63309,-2.98899 -0.55912,-4.42818 1.6766,0.35709 3.29952,1.13714 4.94775,1.64606 1.1572,0.39046 1.9485,1.33611 2.7858,2.11057 1.42211,0.0961 -0.0173,-2.43666 1.61173,-2.15915 2.37274,1.121 5.4505,1.04761 7.06911,3.44985 1.10645,0.37637 0.17603,-1.7486 0.99309,-1.83507 2.81796,0.40695 5.82869,-0.0343 8.53686,0.89795 0.76105,0.59313 1.22922,-0.43405 0.8659,-1.06228 -0.4556,-1.14863 1.38477,-0.36774 1.92715,-0.56064 2.594,0.0768 4.70516,-2.12858 7.35046,-1.69313 0.73007,0.0838 1.58662,-0.1243 1.65955,-0.94221 1.33367,-0.29714 2.74088,-0.50693 3.95707,-1.25654 1.68904,-1.15317 3.67639,-1.19632 5.62443,-1.32186 2.39224,-0.47054 4.29044,-2.05705 6.41317,-3.14252 1.22494,-0.62922 2.82804,-0.18963 3.71389,-1.48828 6.13279,-6.29181 12.28001,-12.67268 17.39273,-19.83049 0.32797,-1.55861 -0.11354,-3.49377 0.756,-4.87334 0.50139,0.24984 1.74609,0.75454 1.41739,-0.3312 -1.15057,-2.4968 -0.006,-5.2528 -0.1918,-7.89329 -0.0837,-0.66132 0.13433,-1.84626 1.04498,-1.26272 0.75806,0.18112 2.1326,1.06455 2.6277,0.14448 -0.66278,-1.17281 -1.71431,-2.25121 -1.70483,-3.73475 -0.17963,-1.35669 -0.49682,-2.83035 -0.35765,-4.12598 1.07979,0.12421 2.69522,0.28776 1.39514,-1.21638 -1.20373,-2.52785 -0.44503,-5.46681 -0.83093,-8.1757 -0.22264,-1.00765 1.47762,-0.19127 1.95971,-0.15924 0.93968,0.36443 0.65715,-0.90365 0.0514,-1.16606 -1.63804,-2.86997 -0.41977,-6.52961 -2.33823,-9.32544 0.046,-0.85998 1.47816,-0.24898 1.94954,-0.33425 0.0565,-1.02493 -1.41058,-1.71811 -1.66617,-2.80272 -0.83558,-2.12236 -0.93592,-4.49555 -2.02636,-6.51661 -0.10794,-1.1983 2.23469,0.002 1.81981,-1.13604 -2.76016,-1.735784 -2.4933,-5.406242 -4.04255,-7.943152 -0.3711,-0.771481 1.45683,-1.075845 0.47518,-1.790809 -2.71388,-1.504861 -2.78923,-5.011684 -4.59862,-7.261424 -0.52843,-0.676642 0.97246,-0.861245 0.20045,-1.5171 -2.49464,-1.975699 -2.59512,-5.450371 -4.31931,-7.950785 -0.35803,-0.72895 1.34179,-0.0542 0.76619,-0.969173 -1.94015,-1.867661 -3.60521,-3.968024 -4.39328,-6.592875 -0.71129,-1.970033 -1.86573,-3.72382 -2.95464,-5.475244 0.17717,-1.094777 -1.50317,-0.940939 -2.10827,-1.488609 -4.02843,-2.036919 -5.39808,-7.319423 -9.90694,-8.661511 -0.74805,-0.105226 -1.49599,-0.909095 -0.52706,-1.39551 1.0447,-0.614707 -0.49958,-1.337389 -1.16454,-1.146727 -4.11025,-1.086455 -6.55842,-5.224466 -10.7591,-6.111136 -1.13671,-0.32804 0.81145,-1.448982 -0.48127,-1.634114 -3.60115,0.250713 -6.42922,-2.332756 -9.50198,-3.763241 -1.3907,-0.785841 -3.05955,-0.791983 -4.49788,-1.191499 -0.0312,-0.478728 0.45037,-1.362838 -0.494,-1.318178 -3.5746,0.287952 -6.36229,-2.427019 -9.40327,-3.876694 -0.96017,-0.615843 -2.44091,-0.413436 -3.21175,-1.184374 0.50895,-1.673776 -1.139,-1.520633 -2.29956,-1.53796 -3.83052,-0.134066 -6.84745,-3.398543 -10.78302,-3.018429 -1.16616,0.03331 -2.9152,0.06452 -3.50428,1.238304 0.0511,0.55626 1.3136,1.501176 0.12515,1.652937 -4.16863,-0.845426 -8.14895,-2.647204 -11.71199,-4.975091 -3.810286,-2.607429 -6.297658,-6.67286 -10.012249,-9.380888 -0.95905,-0.387812 -2.092365,-1.481725 -3.042851,-1.146219 -1.16512,3.361107 -3.485722,6.40654 -6.435719,8.275877 -0.373173,-0.673933 0.887496,-1.232953 1.186411,-1.767915 2.636168,-2.397806 5.43998,-5.814495 4.393077,-9.6357728 -1.204911,-4.178871 -5.865741,-6.3843408 -9.957303,-6.2546034 z m 3.116109,5.1078752 c 1.324388,0.6289758 2.748666,1.789577 3.021481,3.298243 -0.59123,2.077735 -2.02978,3.763768 -3.909254,4.810255 -1.455418,1.172732 -0.596306,3.129732 -0.08293,4.530441 -1.493441,-2.066122 -4.009487,-3.134301 -6.089258,-4.519758 -0.837518,-0.828235 -2.285286,-0.418874 -3.033693,-1.253566 0.834222,-1.355998 2.743584,-1.610039 3.826983,-2.766377 1.928929,-1.526626 3.831398,-3.4506282 6.266667,-4.099238 z m -35.75716,0.9050708 c 3.28873,0.3154577 6.683733,0.4681073 9.73803,1.8045452 0.421824,0.205119 2.299784,1.212707 0.916772,0.560645 -3.43467,-1.434079 -7.40814,-2.0991913 -10.929102,-0.54711 -2.325882,0.809293 -4.907087,1.853571 -7.245064,1.821535 2.004368,-1.969024 4.738408,-3.2903113 7.519364,-3.6396152 z m 2.282772,3.4289922 c 3.337956,-0.125459 5.979199,3.799181 4.28624,6.74504 -1.771497,3.5318 -7.976838,2.862114 -8.740939,-1.101147 -0.992027,-2.873164 1.583283,-5.738256 4.454699,-5.643893 z M 30.411699,24.106729 c 0.994313,-0.05309 -0.418507,1.253829 -0.25692,0.18366 -0.306869,-0.300561 0.04681,-0.119793 0.25692,-0.18366 z"
     id="path412"
     transform="translate(67.5,76.5)" />
  <path
     style="fill:#ffff00;fill-rule:evenodd;stroke:#000000;stroke-width:0.493233"
     d="m 225.75638,142.9737 c -7.39217,-0.27363 -14.42811,2.75389 -20.76179,6.27664 -2.81438,1.71306 -5.65083,3.46924 -8.26152,5.46334 -5.01656,6.79322 -10.93268,12.84728 -16.5894,19.09806 -0.47621,0.49473 -1.41299,1.52737 -0.28388,1.88187 9.55344,4.90581 20.18958,7.94577 30.97489,7.91263 2.32547,0.67344 3.82616,2.86051 5.83996,4.11326 10.68148,7.93144 22.80957,14.11429 35.74699,17.35304 5.06873,1.22786 10.43889,1.4398 15.56681,0.47976 5.16873,-1.25651 9.26051,-5.48302 10.72298,-10.54644 1.27609,-4.379 1.08076,-9.0597 0.7382,-13.56187 -1.60803,-8.71593 -7.88148,-15.58896 -14.23286,-21.35026 -7.71859,-6.65962 -16.55895,-12.2142 -26.24622,-15.50016 -3.99684,-1.4692 -8.26017,-1.78189 -12.48257,-1.62134 -0.24386,4.9e-4 -0.48772,9.8e-4 -0.73159,0.001 z"
     id="path414"
     transform="translate(67.5,76.5)" />
  <path
     style="fill:#ffff00;fill-rule:evenodd;stroke:#000000;stroke-width:0.493233"
     d="m 72.14823,159.8129 c -6.673017,0.18498 -13.038718,2.89017 -18.64985,6.34364 -1.425278,0.613 -1.27434,2.16802 -1.400596,3.43509 -0.14949,1.04944 -2.007033,2.13036 -0.141433,2.63331 1.496885,0.62936 0.349792,2.26665 0.910667,3.29315 0.909493,0.54514 2.490683,0.86401 2.28786,2.27107 -0.308367,0.91388 0.202815,2.03559 1.309529,1.76894 1.780787,-0.59119 2.561853,-2.94088 4.617438,-3.03471 1.879742,-0.80426 3.602403,-2.00943 5.581015,-2.64806 4.297551,-1.9418 9.13316,-1.32174 13.672466,-1.22038 6.112915,0.47571 11.985546,2.65886 18.001956,3.65476 0.403048,-0.91033 -1.016156,-1.76444 -1.291493,-2.62736 -1.303414,-1.87099 -2.427935,-4.08181 -4.579511,-5.09143 -1.315568,-1.28465 -1.556118,-3.47945 -3.439165,-4.22112 -5.069943,-3.00323 -10.98004,-4.6398 -16.878883,-4.5569 z"
     id="path416"
     transform="translate(67.5,76.5)" />
  <path
     style="fill:#ffff00;fill-rule:evenodd;stroke:#000000;stroke-width:0.493233"
     d="m 79.799867,133.73323 c -2.616744,7.19748 -0.473555,15.43763 4.356821,21.19986 1.933847,2.31822 3.757135,4.81795 5.85079,6.94433 0.71988,-1.16732 0.212501,-3.0297 0.477776,-4.44932 0.06427,-4.48571 0.679914,-9.00786 2.619301,-13.11336 0.33193,-1.05897 -1.268059,-1.53291 -1.856078,-2.14814 -1.545731,-0.87576 -2.769945,-2.22848 -4.210079,-3.19881 -0.983932,-0.119 -0.316531,1.80341 -1.269337,1.65395 -2.375927,-1.86991 -4.066261,-4.512 -5.717361,-6.97398 l -0.246662,0.0837 z"
     id="path418"
     transform="translate(67.5,76.5)" />
  <path
     style="fill:#ffff00;fill-rule:evenodd;stroke:#000000;stroke-width:0.493233"
     d="m 16.018073,65.767455 c -0.821525,0.492061 0.163738,1.71679 -0.302708,2.480678 0.09562,0.870039 -1.558169,1.557551 -0.557084,2.31635 2.281774,1.723284 5.115656,2.720227 7.195287,4.667295 -0.184726,0.427345 -1.09524,-0.279305 -1.457067,-0.350021 -3.045092,-1.531397 -5.93048,-3.358527 -8.938782,-4.957794 -1.074811,0.285123 0.430084,1.504148 0.214694,2.251739 0.0161,1.238544 -0.115425,3.33388 -1.859999,3.159353 -1.7489427,-0.219353 -2.2994139,0.794673 -0.6931882,1.826076 2.2140132,2.190994 3.9735852,4.92793 6.5275612,6.73979 1.518164,0.687256 3.606289,-0.211309 4.655595,1.431121 2.201693,2.080262 3.491703,4.969344 3.821749,7.979274 1.975289,0.642675 4.318485,0.286376 6.43477,0.674498 0.989376,-0.18745 1.969878,0.728848 1.20771,1.662204 -0.595619,1.040474 0.796991,1.295392 1.532362,1.086694 3.491807,-0.153603 6.781527,-1.332382 9.969516,-2.666372 5.420782,-1.862577 9.17854,-6.491762 13.640522,-9.849934 0.836762,-0.968806 2.559335,-1.44949 2.843841,-2.704362 -0.272362,-1.642069 0.01912,-3.514395 -0.611795,-5.042436 -4.114714,0.170761 -8.173018,1.658809 -12.30603,1.719223 C 43.68309,78.318044 40.003638,77.661626 36.461275,76.667478 29.214221,73.925493 22.764457,69.453883 16.018073,65.767455 Z"
     id="path420"
     transform="translate(67.5,76.5)" />
  <path
     style="fill:#ffff00;fill-rule:evenodd;stroke:#000000;stroke-width:0.174384"
     d="m 18.265558,29.207842 c -1.087228,1.180319 -1.472183,2.838817 -1.74421,4.380762 -0.413972,3.059217 -0.172733,6.308503 1.183372,9.11767 0.376366,0.624034 0.728902,1.398211 1.407312,1.733419 0.645802,0.01436 0.377786,-0.809157 0.309885,-1.17548 -0.60666,-3.430435 -0.749795,-7.061739 -0.05639,-10.482345 0.06365,-0.570372 0.460991,-1.108009 0.384868,-1.66955 -0.508133,-0.580998 -0.780022,-1.339757 -1.258739,-1.918866 -0.07537,0.0048 -0.150732,0.0096 -0.226098,0.01439 z"
     id="path422"
     transform="translate(67.5,76.5)" />
  <path
     style="fill:#ffff00;fill-rule:evenodd;stroke:#000000;stroke-width:0.174384"
     d="m 30.489244,44.414511 c -0.5537,0.156623 -0.142183,0.768332 0.119794,1.004041 1.650191,1.860734 4.243979,2.348933 6.582478,2.732739 0.490075,-0.0081 1.059804,0.323146 1.50435,0.05275 0.254873,-0.516332 -0.509903,-0.692453 -0.813539,-0.920114 -2.337884,-1.154986 -4.830283,-1.959671 -7.27203,-2.861858 -0.04002,0.01854 -0.08086,-0.01511 -0.121053,-0.0076 z"
     id="path424"
     transform="translate(67.5,76.5)" />
  <path
     style="fill:#ffff00;fill-rule:evenodd;stroke:#000000;stroke-width:0.174384"
     d="m 20.551361,63.462509 c -0.516253,0.262214 -0.25627,0.995364 -0.489327,1.447609 -0.131341,0.464231 -0.280161,1.125649 -0.901437,1.070227 -0.511592,0.159836 -0.149571,0.725855 0.199477,0.833883 1.951123,1.173711 3.900492,2.361346 5.898696,3.450469 0.436,0.156275 0.564642,-0.44819 0.24177,-0.664684 -1.577363,-1.985853 -3.113864,-4.005475 -4.628828,-6.039654 -0.0845,-0.08261 -0.203283,-0.120381 -0.320351,-0.09785 z"
     id="path426"
     transform="translate(67.5,76.5)" />
  <g
     id="armed"
     style="fill:#0000ff">
    <path
       style="fill:#0000ff;fill-rule:evenodd;stroke:#000000;stroke-width:0.118346"
       d="m 25.304199,42.745727 c -1.024858,0.146502 -1.85302,0.857662 -2.656372,1.458722 -0.403816,0.369697 -0.908796,0.664413 -1.209839,1.122089 0.03643,1.554026 0.0045,3.116994 0.120239,4.666138 0.261054,0.354818 0.787887,0.294853 1.166016,0.457763 1.117963,0.281516 2.234558,0.606937 3.356892,0.846328 0.472704,-0.03658 0.278973,-0.643064 0.332942,-0.969568 0.06202,-2.379402 0.138409,-4.759136 0.161973,-7.139089 -0.146307,-0.452084 -0.738307,-0.38432 -1.119995,-0.442871 -0.05063,-0.0011 -0.101242,-0.0022 -0.151856,4.88e-4 z"
       id="path586"
       transform="translate(67.5,76.5)" />
    <path
       style="fill:#0000ff;fill-rule:evenodd;stroke:#000000;stroke-width:0.118346"
       d="m 18.237061,45.233276 c -0.150087,0.490638 0.01691,1.033081 -0.0017,1.541332 0.05339,0.559616 0.028,1.135386 0.146497,1.684865 0.327266,0.337249 0.857651,0.375171 1.273179,0.570897 0.32028,0.07216 0.854559,0.457936 1.045913,0.001 0.06776,-0.798912 -0.06441,-1.586555 -0.026,-2.382446 0.04822,-0.40324 -0.12523,-0.886338 -0.582276,-0.938843 -0.537418,-0.07971 -1.028196,-0.317295 -1.49646,-0.581299 -0.153976,-0.02697 -0.247403,-0.0087 -0.35913,0.104492 z"
       id="path588"
       transform="translate(67.5,76.5)" />
  </g>
  <path
     style="fill:#ffff00;fill-rule:evenodd;stroke:#000000;stroke-width:0.0591732"
     d="m 17.43219,93.318664 c -0.272559,0.01845 -0.360101,0.361913 -0.201416,0.556214 0.322367,0.588699 0.508291,1.254559 0.566528,1.921997 0.02836,0.370729 -0.368042,0.551913 -0.673889,0.614624 -0.289595,0.08618 -0.25222,0.554337 0.04926,0.590576 0.990526,0.05382 1.985207,0.01526 2.977294,0.03433 1.652716,0.038 3.306342,0.0264 4.959657,0.02561 0.27805,0.0024 0.40628,-0.395958 0.164331,-0.542686 -0.688743,-0.310732 -1.410629,-0.565092 -2.114422,-0.848256 -1.40227,-0.538159 -2.801216,-1.088526 -4.158027,-1.733529 -0.497707,-0.209044 -0.979001,-0.472664 -1.500341,-0.617046 -0.0229,-0.0027 -0.04595,-0.0038 -0.06897,-0.0018 z"
     id="path592"
     transform="translate(67.5,76.5)" />
  <g
     id="clawed">
    <path
       style="fill:#ff0000;fill-rule:evenodd;stroke:#000000;stroke-width:0.174384"
       d="m 12.002804,59.637728 c -0.495902,-0.048 -0.482957,0.582179 -0.146056,0.789454 1.996009,2.015838 4.162935,3.921517 6.647761,5.313923 0.388267,0.177659 1.015288,0.479032 1.256139,-0.05845 0.850718,-1.502503 0.581207,-3.611834 -0.837301,-4.676831 -1.603649,-1.343545 -3.833836,-1.211565 -5.795931,-1.346187 -0.374691,-0.01256 -0.749644,-0.0279 -1.124612,-0.02191 z"
       id="path428"
       transform="translate(67.5,76.5)" />
    <path
       style="fill:#ff0000;fill-rule:evenodd;stroke:#000000;stroke-width:0.174384"
       d="m 7.1158837,63.284436 c -0.2605466,0.533774 0.5345247,0.82489 0.7781227,1.217368 1.8388471,1.787989 3.8096856,3.4844 6.0377356,4.770004 0.41711,0.219905 1.127497,0.542197 1.373856,-0.07105 0.569811,-0.842431 0.4653,-1.933402 0.329884,-2.888192 -0.312188,-1.207544 -1.347374,-2.041223 -2.474841,-2.464207 -1.384595,-0.598522 -2.939728,-0.458141 -4.4095484,-0.612669 -0.538393,0.014 -1.1240861,-0.138082 -1.6352089,0.04874 z"
       id="path499"
       transform="translate(67.5,76.5)" />
    <path
       style="fill:#ff0000;fill-rule:evenodd;stroke:#000000;stroke-width:0.174384"
       d="m 3.8346736,68.462028 c -0.4563382,-0.05644 -0.5100972,0.498356 -0.2548774,0.762114 1.0942104,1.809357 2.2083462,3.642557 3.6511334,5.198701 0.9169326,0.927526 2.3400596,0.973162 3.5581034,0.879146 0.980447,-0.196742 1.240012,-1.367477 1.323672,-2.216732 0.106328,-0.918844 -0.03977,-1.872575 -0.620915,-2.618025 C 10.749164,69.481629 9.4897056,69.023181 8.3269563,68.756657 6.8356295,68.596544 5.3342815,68.493148 3.8346736,68.462028 Z"
       id="path501"
       transform="translate(67.5,76.5)" />
    <path
       style="fill:#ffff00;fill-rule:evenodd;stroke:#000000;stroke-width:0.043596"
       d="m 9.2290552,66.054407 c -0.194224,0.183864 -0.090397,0.471294 -0.1042014,0.707611 4.247e-4,0.191852 0.0257,0.429012 0.2316851,0.509847 1.6627981,0.977318 3.3070431,1.990132 4.9840051,2.945121 0.170213,0.130718 0.453205,0.08848 0.523021,-0.13207 0.0794,-0.199612 0.06895,-0.491869 -0.172227,-0.570372 C 13.974416,69.368531 13.373262,68.91418 12.774111,68.519815 11.677981,67.780376 10.633239,66.967241 9.6405996,66.093996 9.5256938,65.98612 9.3620294,65.965659 9.2290552,66.054407 Z"
       id="path503"
       transform="translate(67.5,76.5)" />
    <path
       style="fill:#000000;fill-rule:evenodd;stroke:#000000;stroke-width:0.010899"
       d="m 10.960214,69.29545 c -0.138833,0.01882 -0.253611,0.14347 -0.257064,0.284148 -0.007,0.112913 0.05875,0.217574 0.149791,0.280112 0.138349,0.104628 0.265544,0.222923 0.394678,0.338234 0.11848,0.100034 0.312381,0.08138 0.411435,-0.0374 0.05996,-0.06668 0.12646,-0.136499 0.138062,-0.229944 0.02396,-0.130852 -0.04946,-0.267298 -0.166977,-0.326949 -0.16883,-0.09689 -0.336281,-0.196721 -0.508906,-0.286658 -0.05138,-0.02062 -0.10597,-0.02791 -0.161019,-0.02154 z"
       id="path505"
       transform="translate(67.5,76.5)" />
    <path
       style="fill:#000000;fill-rule:evenodd;stroke:#000000;stroke-width:0.010899"
       d="m 9.3814511,68.447414 c -0.1323298,0.005 -0.2534911,0.104687 -0.2805626,0.234819 -0.034539,0.140279 0.049446,0.293628 0.1827914,0.346356 0.147677,0.0573 0.294766,0.116157 0.4410351,0.176936 0.1310995,0.05377 0.296343,0.005 0.370146,-0.117698 0.08212,-0.122189 0.0525,-0.300312 -0.06134,-0.392609 -0.1168805,-0.08705 -0.2568736,-0.135673 -0.3913334,-0.188571 -0.084015,-0.0294 -0.1703081,-0.06195 -0.2607345,-0.05923 z"
       id="path576"
       transform="translate(67.5,76.5)" />
    <path
       style="fill:#000000;fill-rule:evenodd;stroke:#000000;stroke-width:0.010899"
       d="m 15.611908,65.364927 c -0.141218,0.03198 -0.246708,0.175232 -0.229336,0.319953 0.01169,0.139917 0.110238,0.277762 0.252918,0.305539 0.166924,0.03952 0.345351,-0.08606 0.374675,-0.252968 0.02592,-0.129814 -0.04497,-0.265051 -0.158815,-0.328759 -0.07027,-0.04582 -0.157543,-0.06172 -0.239442,-0.04377 z"
       id="path578"
       transform="translate(67.5,76.5)" />
    <path
       style="fill:#000000;fill-rule:evenodd;stroke:#000000;stroke-width:0.00739665"
       d="m 14.514656,62.992523 c -0.0836,0.0093 -0.156947,0.05765 -0.210506,0.120774 -0.07009,0.07552 -0.158161,0.147106 -0.178066,0.253947 -0.03127,0.127164 0.03414,0.268324 0.149291,0.329678 0.370496,0.203257 0.732885,0.420956 1.09181,0.64388 0.105246,0.06584 0.250109,0.06036 0.347285,-0.01809 0.106167,-0.0807 0.1455,-0.235986 0.08906,-0.357098 -0.0403,-0.09824 -0.137475,-0.151735 -0.214997,-0.217091 -0.287452,-0.226659 -0.568689,-0.457721 -0.849991,-0.691193 -0.06231,-0.05045 -0.144335,-0.07362 -0.223884,-0.06481 z"
       id="path580"
       transform="translate(67.5,76.5)" />
    <path
       style="fill:#000000;fill-rule:evenodd;stroke:#000000;stroke-width:0.0104604"
       d="m 18.566354,65.787279 c -0.146194,0.01651 -0.267585,0.152071 -0.262264,0.299972 -0.0025,0.116016 0.07305,0.220932 0.172999,0.27458 0.08005,0.04661 0.155415,0.104026 0.242272,0.137175 0.141122,0.05287 0.311212,-0.02225 0.372004,-0.159171 0.05001,-0.111068 0.05748,-0.251658 -0.02106,-0.351754 -0.05095,-0.07656 -0.139239,-0.112285 -0.224316,-0.136283 -0.09096,-0.03006 -0.180863,-0.07748 -0.279639,-0.06452 z"
       id="path582"
       transform="translate(67.5,76.5)" />
    <path
       style="fill:#000000;fill-rule:evenodd;stroke:#000000;stroke-width:0.0147933"
       d="m 8.3184967,75.100784 c -0.1588161,0.0077 -0.2943683,0.156356 -0.2802428,0.315754 0.00169,0.144308 0.1260225,0.236519 0.2133284,0.335236 0.071351,0.08609 0.1753337,0.153535 0.2912832,0.142578 0.1162096,-0.0069 0.2077417,-0.08981 0.2655604,-0.185352 0.077436,-0.09024 0.1256025,-0.216758 0.080565,-0.332854 -0.03786,-0.120296 -0.1561536,-0.188952 -0.2741392,-0.211218 -0.097689,-0.02437 -0.1942104,-0.06622 -0.2963551,-0.06414 z"
       id="path584"
       transform="translate(67.5,76.5)" />
    <path
       style="fill:#000000;fill-rule:evenodd;stroke:#000000;stroke-width:0.0209209"
       d="m 12.089847,96.046477 c -0.16579,0.0083 -0.285438,0.156334 -0.309268,0.312355 -0.04674,0.133683 -0.03009,0.301224 0.09104,0.389888 0.139995,0.106304 0.326229,0.06377 0.489111,0.07598 0.304214,0.0011 0.608821,-0.0011 0.912541,0.01002 0.185922,0.0087 0.35038,-0.177899 0.304733,-0.360938 -0.02325,-0.150386 -0.173102,-0.244965 -0.317952,-0.250172 -0.379966,-0.05383 -0.757787,-0.123878 -1.138527,-0.177298 -0.01055,1.9e-4 -0.02114,-3.67e-4 -0.03168,1.63e-4 z m 1.002332,0.774542 c -0.0026,8.2e-4 -0.01473,-0.0055 0,0 z"
       id="path594"
       transform="translate(67.5,76.5)" />
    <path
       style="fill:#000000;fill-rule:evenodd;stroke:#000000;stroke-width:0.00739665"
       d="m 14.248077,97.520012 c -0.119477,-4.28e-4 -0.23523,0.07555 -0.278669,0.187472 -0.05099,0.119588 -0.01135,0.268849 0.09163,0.348071 0.07733,0.05699 0.154107,0.12785 0.254317,0.136958 0.133407,0.01808 0.271465,-0.06641 0.315976,-0.193465 0.03717,-0.09605 0.01364,-0.203135 -0.02515,-0.294801 -0.0489,-0.107818 -0.162623,-0.179123 -0.280391,-0.181136 -0.02587,-0.0017 -0.05178,-0.0031 -0.07771,-0.0031 z"
       id="path596"
       transform="translate(67.5,76.5)" />
    <path
       style="fill:#000000;fill-rule:evenodd;stroke:#000000;stroke-width:0.00739665"
       d="m 9.0747223,101.208 c -0.1229897,0.0241 -0.2233824,0.13127 -0.2379996,0.25592 -0.014014,0.0906 0.023702,0.17797 0.069809,0.2537 0.1095304,0.18658 0.2240664,0.37073 0.3516238,0.54558 0.060149,0.0824 0.1633884,0.12521 0.2641297,0.12054 0.6054088,0.0111 1.2108998,0.0174 1.8163398,0.0267 1.413449,0.0198 2.827612,0.0396 4.240499,0.0594 0.12904,0.002 0.253667,-0.0869 0.289418,-0.21138 0.03511,-0.10586 0.0012,-0.22673 -0.07669,-0.30502 -0.043,-0.0491 -0.0814,-0.10214 -0.115555,-0.15774 0.01056,0.0189 0.01705,0.0334 -0.0015,-0.002 -0.06271,-0.10996 -0.19902,-0.16809 -0.322226,-0.14156 -0.09244,0.0214 -0.181236,0.0566 -0.274616,0.0747 -0.283517,0.0614 -0.574958,0.0727 -0.864128,0.0755 -0.06122,-1e-5 -0.13126,-9.1e-4 -0.195827,-0.002 -0.236445,-0.004 -0.473524,-0.0188 -0.707606,-0.0363 -0.384704,-0.0292 -0.767917,-0.0691 -1.153863,-0.1022 -0.461373,-0.0358 -0.919414,-0.10436 -1.376527,-0.17485 -0.07086,-0.0112 -0.1468,-0.0233 -0.21845,-0.035 -0.278373,-0.0454 -0.557962,-0.094 -0.8323533,-0.14388 -0.1849306,-0.0332 -0.3695139,-0.0696 -0.5550766,-0.10354 -0.033165,-0.004 -0.066572,-0.002 -0.099426,0.004 z"
       id="path598"
       transform="translate(67.5,76.5)" />
    <path
       style="fill:#000000;fill-rule:evenodd;stroke:#000000;stroke-width:0.00739665"
       d="m 12.276611,103.26495 c -0.09667,0.002 -0.200874,-0.01 -0.287465,0.0427 -0.121262,0.0665 -0.181925,0.22332 -0.135563,0.3538 0.03552,0.11578 0.147611,0.19886 0.267415,0.20716 0.102345,0.0126 0.203885,0.0312 0.305935,0.0453 0.122636,0.0124 0.2486,-0.0576 0.299914,-0.17018 0.04076,-0.0816 0.03514,-0.17846 0.0017,-0.26155 -0.03349,-0.11837 -0.144306,-0.20981 -0.267626,-0.21655 -0.0613,-0.003 -0.122905,-8e-5 -0.1843,-7.3e-4 z"
       id="path600"
       transform="translate(67.5,76.5)" />
    <path
       style="fill:#000000;fill-rule:evenodd;stroke:#000000;stroke-width:0.00739665"
       d="m 10.808464,103.27051 c -0.201644,0.006 -0.40391,0.0347 -0.596107,0.097 -0.116088,0.0426 -0.19867,0.16111 -0.195635,0.28509 -5.45e-4,0.12745 0.08959,0.24798 0.211908,0.2838 0.100903,0.0324 0.204941,-0.004 0.305969,-0.0164 0.08176,-0.0129 0.162323,-0.0243 0.245812,-0.035 0.06303,-0.01 0.134478,-0.0124 0.198985,-0.0285 0.127507,-0.0345 0.220948,-0.16128 0.216729,-0.2932 -4.08e-4,-0.13372 -0.101152,-0.25888 -0.232257,-0.28639 -0.0508,-0.013 -0.103624,-0.007 -0.155404,-0.006 z"
       id="path602"
       transform="translate(67.5,76.5)" />
    <path
       style="fill:#000000;fill-rule:evenodd;stroke:#000000;stroke-width:0.0147933"
       d="m 12.886398,109.59258 c -0.126382,0.0321 -0.275934,0.0381 -0.363355,0.14859 -0.101587,0.1216 -0.08295,0.32027 0.04212,0.41867 0.08688,0.0672 0.199854,0.0853 0.302542,0.11843 0.16052,0.0403 0.33901,-0.0712 0.368281,-0.23514 0.01483,-0.0898 -0.0055,-0.17776 -0.02897,-0.26463 -0.04957,-0.12665 -0.186453,-0.20412 -0.320623,-0.18592 z"
       id="path604"
       transform="translate(67.5,76.5)" />
    <path
       style="fill:#ff0000;fill-rule:evenodd;stroke:#000000;stroke-width:0.0418418"
       d="m 11.415735,103.78915 c -0.783374,0.005 -1.564771,0.1706 -2.2911372,0.46081 -0.6944546,0.31619 -1.3594114,0.6934 -2.0440916,1.03005 -0.6198692,0.31999 -1.2491379,0.62524 -1.8630758,0.95463 -0.2032228,0.11732 -0.172227,0.43358 0.031103,0.534 1.1581901,0.74758 2.3947235,1.36566 3.64046,1.95228 0.8634161,0.3876 1.7296166,0.79064 2.6500026,1.02465 0.471004,0.0739 0.95514,-7e-5 1.414516,-0.11273 0.274328,-0.0593 0.519494,-0.19572 0.770247,-0.31393 0.554601,-0.1682 1.067222,-0.50714 1.417364,-0.97089 0.240964,-0.36596 0.199723,-0.82706 0.105403,-1.23335 -0.127636,-0.64217 -0.310966,-1.29593 -0.716007,-1.82309 -0.199697,-0.34776 -0.512252,-0.61869 -0.82237,-0.86726 -0.645008,-0.51177 -1.487415,-0.6648 -2.292414,-0.63517 z m 3.130363,1.55552 c 0.0082,0.0377 -0.01392,-0.0507 0,0 z"
       id="path606"
       transform="translate(67.5,76.5)" />
    <path
       style="fill:#ff0000;fill-rule:evenodd;stroke:#000000;stroke-width:0.0418418"
       d="m 11.908258,97.426962 c -0.960597,0.02029 -1.9303511,0.222382 -2.7792264,0.68432 -1.1244982,0.584138 -2.2611019,1.145102 -3.3833143,1.733412 -0.2090802,0.129363 -0.1618387,0.467576 0.067716,0.545346 1.2001296,0.45076 2.4653131,0.69121 3.7190432,0.94025 1.1501385,0.22311 2.3120505,0.38341 3.4808195,0.46699 0.751802,0.0571 1.526923,0.13022 2.264984,-0.066 0.22926,-0.0561 0.429538,-0.23062 0.461449,-0.47358 0.08352,-0.39122 -0.06055,-0.78337 -0.146563,-1.16151 -0.179138,-0.670035 -0.548669,-1.291433 -1.075093,-1.746644 -0.471629,-0.434309 -1.051262,-0.771151 -1.694512,-0.857803 -0.302172,-0.05045 -0.609175,-0.06869 -0.915303,-0.06478 z"
       id="path608"
       transform="translate(67.5,76.5)" />
    <path
       style="fill:#ff0000;fill-rule:evenodd;stroke:#000000;stroke-width:0.0418418"
       d="m 14.055301,92.102859 c -1.017384,-0.0046 -2.041315,0.220886 -2.934768,0.715724 -1.088851,0.560583 -2.1818973,1.106524 -3.2680397,1.669467 -0.2281129,0.103358 -0.2248841,0.466185 0.010185,0.559548 0.7528753,0.311014 1.5537292,0.485707 2.3446427,0.670982 1.285429,0.275942 2.580075,0.524036 3.888789,0.658718 0.70147,0.05849 1.401966,0.158848 2.107441,0.133632 0.488606,-0.01146 1.031188,0.03636 1.448353,-0.270564 0.207039,-0.151977 0.243247,-0.431921 0.17751,-0.665114 -0.131347,-0.774459 -0.338269,-1.580789 -0.881858,-2.176186 -0.521418,-0.590557 -1.193329,-1.095755 -1.987969,-1.225433 -0.297874,-0.05558 -0.601712,-0.07216 -0.904286,-0.07077 z"
       id="path610"
       transform="translate(67.5,76.5)" />
    <path
       style="fill:#ff0000;fill-rule:evenodd;stroke:#000000;stroke-width:0.118346"
       d="m 64.655639,188.17346 c -1.110537,-0.006 -2.005986,0.83542 -2.627075,1.67554 -0.70154,1.11237 -1.066756,2.39616 -1.550659,3.60998 -0.183727,0.29758 0.109548,0.686 0.443115,0.52881 1.632614,-0.42826 3.302075,-0.79872 4.84021,-1.5105 0.919209,-0.46054 1.382298,-1.48376 1.616577,-2.43469 0.114636,-0.33809 0.0931,-0.72356 -0.27063,-0.89051 -0.704968,-0.54562 -1.523052,-1.04399 -2.451538,-0.97863 z"
       id="path612"
       transform="translate(67.5,76.5)" />
    <path
       style="fill:#ff0000;fill-rule:evenodd;stroke:#000000;stroke-width:0.118346"
       d="m 61.884521,183.28772 c -1.150272,-0.0635 -2.032242,0.85326 -2.679809,1.69116 -0.667508,0.92543 -0.920182,2.06823 -1.370744,3.10175 -0.0969,0.29527 -0.454742,0.82008 0.0025,0.99273 0.646866,0.0101 1.272045,-0.26762 1.900976,-0.40362 1.210198,-0.37647 2.494786,-0.63718 3.581934,-1.31513 0.684647,-0.55481 1.050667,-1.42882 1.251648,-2.26628 0.142126,-0.33799 0.0196,-0.67632 -0.304383,-0.84651 -0.656621,-0.58092 -1.492141,-0.973 -2.38208,-0.9541 z"
       id="path614"
       transform="translate(67.5,76.5)" />
    <path
       style="fill:#ff0000;fill-rule:evenodd;stroke:#000000;stroke-width:0.118346"
       d="m 61.173584,177.36902 c -1.337554,0.0297 -2.351463,1.12183 -2.983643,2.19824 -0.498346,1.05766 -0.893283,2.16767 -1.287109,3.26501 -0.0094,0.43096 0.514766,0.40191 0.798323,0.29404 1.593914,-0.41413 3.217515,-0.80313 4.708513,-1.51718 0.760002,-0.51005 1.217012,-1.39267 1.420166,-2.2677 0.103088,-0.3969 0.01768,-0.86279 -0.378174,-1.06567 -0.651328,-0.50646 -1.43119,-0.92366 -2.278076,-0.90674 z"
       id="path616"
       transform="translate(67.5,76.5)" />
    <path
       style="fill:#ff0000;fill-rule:evenodd;stroke:#000000;stroke-width:0.118346"
       d="m 52.201294,176.39221 c -1.056421,-0.005 -1.791604,0.89584 -2.332031,1.69373 -0.406355,0.84411 -0.756961,1.72289 -1.041504,2.61499 -0.03738,0.39783 0.465799,0.42917 0.725163,0.28319 1.259921,-0.34751 2.568056,-0.62752 3.727962,-1.24669 0.682907,-0.5251 1.186198,-1.39794 1.109497,-2.27454 -0.221849,-0.455 -0.761977,-0.65712 -1.191651,-0.87451 -0.316224,-0.12658 -0.655707,-0.20266 -0.997436,-0.19617 z"
       id="path618"
       transform="translate(67.5,76.5)" />
    <path
       style="fill:#ff0000;fill-rule:evenodd;stroke:#000000;stroke-width:0.118346"
       d="m 49.883911,172.32788 c -1.014032,-0.0215 -1.776498,0.80367 -2.292114,1.58691 -0.482669,0.86118 -0.787453,1.81147 -1.130982,2.73157 -0.03715,0.39657 0.446331,0.42227 0.70459,0.27808 1.282971,-0.34096 2.602497,-0.64457 3.787842,-1.25757 0.683367,-0.51436 1.070687,-1.3826 1.151905,-2.21266 -0.214849,-0.43256 -0.734724,-0.65827 -1.149575,-0.89244 -0.327609,-0.18662 -0.697407,-0.25524 -1.071666,-0.23389 z"
       id="path620"
       transform="translate(67.5,76.5)" />
    <path
       style="fill:#ff0000;fill-rule:evenodd;stroke:#000000;stroke-width:0.118346"
       d="m 49.321655,167.42554 c -1.12355,0.007 -1.979044,0.93742 -2.469726,1.86413 -0.365658,0.79004 -0.69572,1.61152 -0.950199,2.43872 -0.01424,0.45496 0.529096,0.35024 0.81348,0.26441 1.209802,-0.32183 2.443766,-0.62882 3.574463,-1.17554 0.71515,-0.51975 1.193678,-1.41331 1.197295,-2.2973 -0.122897,-0.37495 -0.595044,-0.5123 -0.892119,-0.74848 -0.384266,-0.22599 -0.82488,-0.36065 -1.273194,-0.34594 z"
       id="path622"
       transform="translate(67.5,76.5)" />
  </g>
</svg>
