<?xml version="1.0" encoding="utf-8"?>
<svg xmlns="http://www.w3.org/2000/svg" xmlns:dc="http://purl.org/dc/elements/1.1/"
     xmlns:xl="http://www.w3.org/1999/xlink"
     xmlns:xlink="http://www.w3.org/1999/xlink"
     version="1.1"
     viewBox="58.5 76.5 306 202.5"
     width="306"
     height="202.5"
     preserveAspectRatio="xMidYMid meet"
     zoomAndPan="magnify"
     contentScriptType="application/ecmascript"
     contentStyleType="text/css">
   <defs/>
   <metadata xmlns="" xmlns:svg="http://www.w3.org/2000/svg"
             xmlns:rdf="http://www.w3.org/1999/02/22-rdf-syntax-ns#"
             xmlns:cc="http://creativecommons.org/ns#">
      <rdf:RDF>
         <cc:Work rdf:about="">
            <dc:creator>
               <cc:Agent>
                  <dc:title>http://heraldicart.org Beaver Statant Vorant of a Fish.svg</dc:title>
               </cc:Agent>
            </dc:creator>
         </cc:Work>
      </rdf:RDF>
   </metadata>
   <g stroke-opacity="1" stroke-dasharray="none" stroke="#505050" fill="#ffff00"
      fill-opacity="1">
      <title>Beaver Statant Vorant of a Fish</title>
      <g>
         <title>Layer 2</title>
         <g>
            <g>
               <g  id="outline-0">
                  <path
                        d="M 83.1957 82.17159 C 81.00721 82.37757 78.2523 83.20147 76.01233 84.33433 C 74.23579 85.20972 72.61374 87.99038 72.588 90.15311 C 72.588 91.18299 73.66936 94.34985 74.28729 95.07076 C 74.59625 95.43122 75.4459 96.12638 76.14106 96.58982 C 76.86197 97.05327 77.4799 97.46522 77.50564 97.51671 C 77.55714 97.54246 76.93921 98.23762 76.14106 99.06152 C 73.07719 102.09965 69.34389 108.89682 66.38301 116.8011 C 65.584855 118.91234 64.58073 121.53852 64.16878 122.59414 C 63.293386 124.91135 62.93293 127.46029 63.01017 130.96186 C 63.061664 132.81563 63.1904 133.81976 63.52511 134.43768 C 64.06579 135.51905 66.40875 137.99075 67.15541 138.29971 C 67.51587 138.45419 67.77334 138.91763 67.97931 139.84452 C 68.15954 140.56543 68.23678 141.2606 68.185286 141.33784 C 68.13379 141.44082 68.00506 142.54794 67.90207 143.80953 C 67.74759 145.89503 67.464374 148.05776 67.2584 148.72718 C 67.10392 149.19062 67.541615 151.53359 67.953564 152.53771 C 68.185286 153.0784 68.75172 153.92804 69.24091 154.41723 C 69.70435 154.93217 70.09055 155.42136 70.09055 155.5501 C 70.09055 155.65308 70.52825 156.06503 71.043185 156.47698 C 72.30478 157.42961 73.59212 157.42961 74.75073 156.47698 L 75.57463 155.78182 L 76.24405 156.374 C 77.4799 157.4811 79.35942 158.6912 80.260555 158.92293 C 81.31618 159.2319 82.3203 158.7942 83.73638 157.42961 C 84.22557 156.96617 85.25544 156.16802 86.0021 155.67883 C 87.46967 154.7262 87.75289 154.98366 86.80025 156.45123 C 86.54278 156.86318 86.23382 157.40387 86.13084 157.60984 C 86.05359 157.81582 85.84762 158.07329 85.74463 158.15053 C 85.6159 158.22777 85.48716 158.48523 85.43567 158.71696 C 85.40992 158.97442 85.20395 159.30913 84.97223 159.46361 C 84.74051 159.64384 84.14833 160.442 83.63339 161.2144 C 83.11845 161.9868 82.62926 162.70772 82.52628 162.8107 C 81.88261 163.42863 79.56539 165.10217 78.45828 165.69435 C 77.73736 166.08055 76.88772 166.67273 76.52726 167.00744 C 76.16681 167.34215 75.16268 167.8056 74.26154 168.03731 C 71.7126 168.75822 71.78984 168.98995 75.21417 170.97245 C 77.68587 172.38853 79.92585 172.92921 81.59939 172.51726 C 82.06283 172.38853 82.86099 172.18255 83.35018 172.05382 C 84.63752 171.71911 84.792 172.05382 84.50878 174.6285 C 84.38005 175.81286 84.25132 177.94985 84.19982 179.36592 C 84.14833 180.96223 83.99385 182.06934 83.81362 182.27532 C 83.63339 182.45555 83.47891 182.91899 83.47891 183.2537 C 83.47891 183.61415 83.29868 184.28357 83.09271 184.7985 C 82.88673 185.2877 82.52628 186.57504 82.3203 187.68215 C 81.88261 189.7419 81.00721 192.2651 80.05458 194.09312 C 79.4624 195.27747 78.50977 196.35884 76.836225 197.80066 C 76.24405 198.3156 75.75486 198.85628 75.75486 199.01076 C 75.75486 199.31973 73.64362 201.07051 72.48501 201.71418 C 72.04731 201.9459 71.35215 202.17763 70.9402 202.20337 C 70.553995 202.22912 70.064805 202.46084 69.88458 202.74406 C 69.65286 203.02727 69.34389 203.156 69.03493 203.05302 C 68.77746 202.95003 68.54574 203.00153 68.54574 203.156 C 68.54574 203.6967 69.65286 203.9799 72.22754 204.13439 C 73.66936 204.21163 75.05969 204.39185 75.29141 204.49484 C 75.52314 204.62358 76.52726 204.72656 77.4799 204.70082 C 78.43253 204.70082 79.87435 204.8038 80.64676 204.93254 C 82.06283 205.19 84.3543 204.93254 85.33268 204.44335 C 85.59015 204.31461 86.02785 204.21163 86.28532 204.21163 C 86.56853 204.21163 86.87749 204.0829 86.95473 203.95416 C 87.23795 203.51646 89.19471 202.61532 89.40068 202.84704 C 89.50367 202.95003 89.73539 203.49072 89.91562 204.00565 C 90.25033 205.13851 92.59329 208.2024 93.70041 209.00054 C 94.11236 209.3095 94.962 209.7987 95.60567 210.10765 C 96.2236 210.41662 97.09899 210.88006 97.51094 211.11178 C 97.94864 211.36925 99.41621 211.96143 100.78079 212.39912 C 103.17525 213.19728 103.32973 213.22302 104.07638 212.83682 C 104.95178 212.37338 105.02902 211.98717 104.38535 211.13753 C 104.12788 210.80282 103.79317 210.21064 103.61294 209.7987 C 102.17112 206.5546 101.91365 205.2415 101.91365 201.122 C 101.91365 197.0025 102.11962 194.45357 102.48008 193.73266 C 102.63456 193.4752 102.81479 192.34233 102.91778 191.20947 C 103.02076 190.0766 103.25249 188.50605 103.45846 187.73365 C 103.66444 186.96124 103.81892 185.75114 103.81892 185.03023 C 103.81892 184.33506 103.99914 183.04772 104.20512 182.19808 C 104.41109 181.34843 104.77155 179.0827 104.97752 177.17744 C 105.20925 175.27218 105.46671 173.62438 105.59545 173.49564 C 105.69844 173.39266 106.36785 173.59863 107.06302 173.95909 C 108.22163 174.60276 108.50484 174.6285 110.4616 174.52552 C 111.80044 174.44828 112.80456 174.2423 113.21651 173.98483 C 113.57697 173.75311 113.86018 173.67587 113.86018 173.77886 C 113.86018 174.13931 112.83031 176.6625 112.16089 177.9756 C 111.82618 178.61927 111.38849 180.13833 111.18251 181.32268 C 110.97654 182.50704 110.66758 183.94886 110.53884 184.5153 C 109.303 189.43294 109.32874 192.39383 110.59034 195.30322 C 110.82206 195.8439 111.02803 196.41033 111.02803 196.53907 C 111.02803 196.6678 111.54297 197.46595 112.18664 198.28985 C 112.83031 199.11375 113.34525 199.9119 113.34525 200.04064 C 113.34525 200.19512 113.86018 200.81304 114.50386 201.43097 C 115.84269 202.7183 115.99717 203.6452 115.14753 205.37023 C 114.86431 205.93667 114.65834 206.60608 114.63259 206.86355 C 114.63259 207.12102 114.47811 207.63596 114.27213 208.02216 C 113.62846 209.28376 113.26801 213.14578 113.67996 214.2529 C 113.78294 214.45887 113.96317 215.38576 114.11765 216.31264 C 114.27213 217.23953 114.81282 218.78434 115.30201 219.78847 C 116.53786 222.23442 116.5636 221.87396 114.76132 227.64125 C 114.45236 228.69687 114.0919 229.90698 114.01467 230.31893 L 113.83444 231.03984 L 111.337 230.8596 C 108.22163 230.65363 103.50995 231.09133 102.55732 231.70925 C 100.78079 232.84212 99.10724 234.33543 98.15461 235.70002 C 97.25347 236.9616 96.97026 237.16759 96.27509 237.16759 C 95.52843 237.16759 92.4903 238.58366 91.30595 239.4848 C 91.02274 239.69078 90.35332 240.43743 89.78689 241.15835 C 89.22046 241.8535 88.60253 242.60017 88.4223 242.80614 C 87.70139 243.5528 87.62415 244.29946 88.0876 245.81852 C 88.4223 247.02863 88.67977 247.38908 89.19471 247.5693 C 89.78689 247.77528 89.96711 247.6723 90.71377 246.7969 C 93.33995 243.70728 95.7859 241.80202 96.06912 242.60017 C 96.27509 243.2696 97.76841 244.3767 98.46357 244.3767 C 99.62218 244.3767 99.51919 244.78865 98.07737 245.74128 C 96.76428 246.64242 96.27509 247.15736 94.62729 249.62906 C 93.64891 251.07088 93.52018 252.28098 94.26684 253.64556 C 94.962 254.95865 95.55418 254.90716 97.02175 253.46534 C 98.72104 251.7918 99.64793 251.07088 100.03413 251.07088 C 100.21436 251.07088 100.62631 251.43134 100.96102 251.8433 C 101.42446 252.48696 101.47595 252.77017 101.29573 253.46534 C 101.14124 254.03177 101.16699 254.85567 101.39871 255.96278 C 101.68193 257.3531 101.68193 257.8423 101.34722 259.23263 C 100.80654 261.54985 101.08975 264.09878 101.96514 265.02567 C 102.91778 266.05554 103.45846 265.95256 104.05064 264.6652 C 104.33385 264.0473 104.82304 263.2234 105.15775 262.8372 L 105.74993 262.11628 L 107.55221 262.7857 C 109.50897 263.48086 110.17839 263.4551 110.30712 262.60547 C 110.38436 262.06478 110.41011 262.06478 110.82206 262.47673 C 111.05378 262.7342 111.98067 263.27488 112.83031 263.71258 C 114.0919 264.3305 114.37512 264.58797 114.22064 264.92268 C 113.96317 265.4891 113.96317 269.19666 114.22064 270.484 C 114.45236 271.6941 116.1774 273.49638 117.18153 273.54787 C 117.8252 273.59937 117.85095 273.54787 117.87669 272.1833 C 117.95393 270.1493 118.39163 267.98656 119.00955 266.77645 C 119.49874 265.79807 121.507 264.22752 122.25366 264.20177 C 122.40814 264.20177 122.69135 264.02154 122.87158 263.81557 C 123.05181 263.6096 123.38652 263.42937 123.61824 263.42937 C 124.23616 263.42937 128.07244 259.61883 128.66462 258.40873 C 128.94783 257.8423 129.2053 257.32736 129.23105 257.27587 C 129.2568 257.22438 129.5915 257.43035 129.97771 257.7393 C 130.69862 258.30574 132.24343 258.48597 132.52665 258.02253 C 132.60389 257.8938 133.19606 257.5591 133.81399 257.27587 C 134.94685 256.76093 139.09209 252.87316 139.09209 252.30673 C 139.09209 252.1265 139.3753 251.71455 139.71001 251.3541 C 140.37943 250.60744 142.69665 246.33346 142.69665 245.81852 C 142.69665 245.61255 142.87688 245.32933 143.08285 245.1491 C 143.28883 244.96888 143.41756 244.73716 143.34032 244.63417 C 143.26308 244.50544 143.31457 244.35095 143.4433 244.2737 C 143.77802 244.042 144.08698 242.16247 144.03548 240.56617 C 143.98399 239.8195 144.16422 238.55792 144.39594 237.75976 C 144.62766 236.98736 144.80789 235.39105 144.83364 234.23245 L 144.85938 232.14695 L 146.3012 232.14695 C 147.1766 232.1212 148.02624 231.96672 148.3867 231.735 C 148.72141 231.50328 149.28784 231.2458 149.6483 231.16857 C 150.57518 230.93685 153.53607 227.89872 154.23123 226.43115 C 154.56594 225.76173 155.00364 224.8606 155.20961 224.4744 C 155.41559 224.06244 155.57007 223.52176 155.57007 223.23854 C 155.57007 222.95533 155.8018 222.23442 156.085 221.64224 C 156.39397 221.02432 156.67718 219.83996 156.72868 218.88733 C 156.85741 217.03355 156.36822 213.429 155.85328 212.5021 C 155.46708 211.7812 155.64731 211.16327 156.23949 211.16327 C 156.49696 211.16327 157.06339 211.03454 157.50108 210.88006 C 158.24774 210.59684 158.40222 210.64834 159.50934 211.49798 C 160.87392 212.5536 162.00678 212.86257 162.77919 212.45062 C 163.08815 212.2704 163.62883 212.2189 163.96354 212.29614 C 164.29825 212.39912 165.79157 212.1674 167.31063 211.80695 C 168.80395 211.4465 170.32301 211.16327 170.65772 211.16327 C 171.22415 211.16327 172.20253 210.88006 175.39514 209.85019 C 176.75972 209.38674 180.05532 207.81619 180.9307 207.19826 C 181.34266 206.91505 182.26955 206.34861 182.99046 205.98816 C 187.4704 203.6452 188.93798 202.92428 189.06671 202.92428 C 189.32418 202.92428 192.13059 201.19925 192.7485 200.65856 C 193.5724 199.9634 194.73102 199.191 195.73514 198.67606 C 196.22433 198.41859 197.4087 197.5947 198.33558 196.84803 C 199.26246 196.07562 200.1636 195.4577 200.29234 195.4577 C 200.44682 195.4577 200.9875 195.123 201.50244 194.71104 C 202.04312 194.27335 202.94426 193.70692 203.53644 193.39795 C 204.12861 193.089 204.79803 192.75428 205.004 192.62555 C 205.20998 192.52256 206.2656 191.98188 207.32122 191.46694 C 208.37684 190.92626 209.30373 190.41132 209.38097 190.30833 C 209.58695 189.99937 213.75793 187.2187 214.04115 187.2187 C 214.16988 187.2187 214.27287 187.45043 214.27287 187.73365 C 214.27287 188.01686 214.5046 188.84076 214.7878 189.58742 C 215.07102 190.33408 215.30274 191.20947 215.30274 191.54418 C 215.30274 191.85314 215.48297 192.18785 215.7147 192.29084 C 216.02366 192.39383 216.02366 192.49681 215.79193 192.62555 C 215.56021 192.78003 215.56021 193.01175 215.79193 193.65542 C 215.94642 194.11886 216.07515 194.86552 216.07515 195.32897 C 216.07515 196.53907 216.51285 197.62044 218.00616 200.11788 C 218.75282 201.32798 219.52523 202.89854 219.75695 203.5937 C 219.98867 204.28887 220.52935 205.49897 220.9413 206.27137 C 221.35325 207.04378 222.0999 208.4341 222.5891 209.361 C 223.23277 210.54535 223.87644 211.31776 224.80333 212.01292 C 225.52424 212.52786 226.11642 213.0943 226.11642 213.22302 C 226.11642 214.02117 232.68186 217.21378 234.87034 217.497 C 235.35953 217.5485 236.0547 217.70297 236.41516 217.8317 C 237.72824 218.3209 238.68088 218.39814 243.0836 218.52687 C 245.55528 218.6041 247.79526 218.78434 248.05273 218.91307 C 248.33594 219.06756 248.72215 219.11905 248.90237 219.0418 C 249.0826 218.99031 249.31432 219.06756 249.36582 219.24778 C 249.44306 219.45376 249.93225 219.68548 250.47293 219.78847 C 251.1166 219.89145 251.76027 220.27766 252.30096 220.86983 C 253.2536 221.87396 253.35658 222.7751 252.8674 225.81323 C 252.55843 227.74424 251.9405 229.05733 250.55017 230.73087 C 250.0095 231.37455 249.44306 232.2242 249.31432 232.6104 C 249.15984 233.02234 248.18146 234.4899 247.17734 235.906 C 244.6799 239.33032 244.39668 239.79376 244.39668 240.33445 C 244.39668 240.59192 244.16496 241.44156 243.88174 242.26546 C 243.57278 243.0636 243.28956 244.3767 243.21232 245.1491 C 243.13508 245.9215 243.0321 246.7454 242.95485 246.9514 C 242.38842 248.59918 242.41417 257.99678 242.9806 260.46848 C 243.18658 261.34387 243.34106 263.19764 243.3153 264.69096 C 243.28956 266.77645 243.3668 267.42013 243.67577 267.65185 C 243.88174 267.80633 244.11346 268.14104 244.21645 268.37276 C 244.42242 268.91344 245.42655 268.99068 245.42655 268.47575 C 245.42655 268.26977 245.70977 267.75483 246.07022 267.3429 C 246.43068 266.9052 246.7139 266.4675 246.7139 266.3645 C 246.7139 266.05554 248.05273 264.12453 248.9796 263.0689 C 249.958 261.9618 250.57592 261.6271 251.68303 261.6271 L 252.55843 261.6271 L 253.0991 263.86706 C 253.40807 265.12866 253.8715 267.05967 254.18048 268.19253 C 254.4637 269.3254 254.6954 270.5355 254.6954 270.89595 C 254.6954 272.44076 256.13724 272.64673 256.8839 271.2049 C 257.63055 269.81458 259.71605 267.93506 261.80154 266.77645 C 263.55233 265.82382 263.6553 265.79807 265.27737 266.00405 C 268.28975 266.3645 270.11777 267.70334 272.20327 271.10192 C 272.89843 272.26053 273.13015 272.4665 273.72233 272.38927 C 274.366 272.31203 274.39175 272.2348 274.469 270.63848 C 274.49474 269.7116 274.62347 268.7332 274.7522 268.45 C 274.88094 268.1668 275.2414 267.2914 275.5246 266.49324 C 276.0653 265.1029 277.37838 263.86706 277.7131 264.4335 C 277.81608 264.56223 278.27952 264.61372 278.7687 264.53648 C 280.10755 264.3305 281.36914 264.6652 282.1673 265.46337 C 283.19717 266.49324 283.89233 266.82795 284.2528 266.4675 C 284.66474 266.05554 284.639 265.8753 283.94383 263.53235 C 283.60912 262.42524 283.14567 260.62296 282.91395 259.56734 C 282.6565 258.51172 282.37327 257.22438 282.24454 256.7352 C 282.1158 256.246 281.8326 255.01015 281.57512 254.03177 C 281.3434 253.02764 280.87995 251.53432 280.54524 250.71042 C 279.7986 248.8824 279.77284 248.26447 280.39076 248.08425 C 281.6266 247.69804 283.53188 246.53944 284.0468 245.87002 C 285.0767 244.45394 285.59162 242.31695 285.59162 239.30457 C 285.59162 237.7855 285.54013 235.88024 285.43714 235.10784 C 285.3599 234.33543 285.2569 232.35293 285.20542 230.73087 C 285.17968 229.10882 285.0252 226.9461 284.8707 225.9677 C 284.2528 222.13143 283.7121 219.17054 283.2744 216.95631 C 282.8882 215.0768 282.8367 214.17566 283.01694 212.19315 C 283.11993 210.8543 283.35165 209.33525 283.50613 208.84606 C 283.6606 208.35687 283.78935 207.42998 283.78935 206.7863 C 283.78935 206.14264 283.91808 205.16426 284.07256 204.59783 C 284.2013 204.0314 284.66474 202.12613 285.10243 200.3496 C 285.5144 198.57307 285.97783 196.7193 286.0808 196.2301 C 287.0077 192.47107 287.23942 190.97775 287.21368 189.20122 C 287.13644 186.39481 286.9562 186.1631 283.8666 185.2877 C 282.47626 184.9015 281.06018 184.43805 280.69972 184.25782 C 280.33927 184.05185 279.3609 183.61415 278.51124 183.22795 C 275.6791 181.9921 275.70484 181.9921 275.2414 180.65327 C 274.39175 178.05283 274.39175 177.64089 275.34438 176.6625 C 275.80782 176.17332 276.3485 175.47815 276.52874 175.1177 C 276.70896 174.75724 277.48137 173.62438 278.25377 172.56876 C 279.02618 171.51314 279.66985 170.53476 279.66985 170.35453 C 279.66985 170.1743 280.00456 169.58212 280.4165 169.0157 C 281.06018 168.11455 282.75947 163.42863 282.75947 162.52749 C 282.75947 162.34726 283.14567 161.2659 283.63486 160.10729 C 284.12405 158.94868 284.639 157.30088 284.81922 156.45123 C 284.9737 155.60159 285.33416 154.26275 285.59162 153.49035 C 286.1323 151.7653 286.75023 147.23386 286.5185 146.61594 C 286.41552 146.35847 286.2868 145.09688 286.20955 143.83528 C 286.15806 142.54794 285.95208 141.10612 285.7461 140.61693 C 285.4114 139.76728 284.99945 137.99075 284.56175 135.4933 C 284.45876 134.87538 284.17555 134.20596 283.91808 134.02573 C 283.45464 133.69103 283.45464 133.63953 283.94383 133.1246 C 284.8707 132.09472 286.75023 130.88462 288.03757 130.49842 C 293.72763 128.82487 293.90786 128.77338 299.57216 128.77338 C 302.53305 128.77338 305.0305 128.72188 305.15923 128.64464 C 305.4682 128.46442 308.7638 128.2327 312.75454 128.1297 C 314.84004 128.10396 317.15725 127.87224 318.2901 127.64052 C 319.34574 127.4088 320.8133 127.09983 321.50847 126.9711 C 324.5466 126.45616 326.9668 125.88973 328.69184 125.27181 C 329.69597 124.91135 332.09042 124.08745 333.9957 123.46953 C 338.19242 122.0792 340.7671 121.10082 341.9772 120.4314 C 344.91235 118.80935 347.6415 117.49626 348.43967 117.34178 C 351.01435 116.87834 355.95775 112.57861 358.1205 108.92256 C 359.6653 106.29638 360 105.24076 360 102.69183 C 360 100.19438 359.4593 98.4436 357.88876 95.9719 C 357.11635 94.7618 355.0566 92.47033 354.69615 92.47033 C 354.6189 92.47033 353.4603 91.82666 352.0957 91.05425 C 350.7569 90.28185 349.2378 89.58668 348.69714 89.4837 C 348.1822 89.38071 347.2038 89.12324 346.4829 88.86577 C 344.4489 88.14486 343.2903 87.88739 341.07607 87.57843 C 339.9432 87.3982 338.26966 87.16648 337.34278 87.03775 C 331.21503 86.11086 325.8597 86.23959 320.8133 87.42395 C 319.34574 87.7844 317.2345 88.24785 316.10163 88.47957 C 311.87915 89.35496 309.02125 90.28185 306.06036 91.72367 C 303.69166 92.88228 304.02636 92.6763 298.31057 96.04914 C 295.89036 97.49096 293.8306 98.64957 293.72763 98.64957 C 293.6504 98.64957 292.85223 99.16451 291.97684 99.80818 C 291.10145 100.45185 290.27755 100.96679 290.17456 100.96679 C 289.9171 100.96679 288.62975 101.84218 287.4454 102.84631 C 286.82747 103.3355 286.41552 103.48998 285.97783 103.38699 C 285.5144 103.284 285.15393 103.46423 284.27854 104.31388 C 283.14567 105.39525 281.0087 106.78557 277.7646 108.51061 C 275.78208 109.56623 271.6111 112.01218 270.11777 112.99056 C 269.62858 113.32527 269.0879 113.58274 268.90767 113.58274 C 268.72744 113.58274 268.5987 113.68573 268.5987 113.81446 C 268.5987 114.07193 265.20013 116.13168 262.03326 117.80522 C 260.72017 118.50039 256.67792 120.30267 255.6223 120.68887 C 255.08162 120.89484 254.23197 121.04933 253.76853 121.04933 C 253.27934 121.04933 252.89313 121.15231 252.89313 121.28105 C 252.89313 121.66725 248.33594 123.10907 244.6799 123.85573 C 243.9075 124.03596 243.16083 124.24193 243.00635 124.37067 C 242.85187 124.47366 242.02797 124.70538 241.17832 124.8856 C 240.32868 125.09158 239.4018 125.34905 239.14432 125.47778 C 238.8611 125.63226 237.88273 125.73525 236.95584 125.7095 C 236.0547 125.68376 234.69012 125.83824 233.99495 126.04421 C 232.34715 126.50766 229.0258 126.68788 219.49948 126.86811 C 212.29036 126.99685 211.85267 126.9711 208.55707 126.37892 C 206.67755 126.01847 204.30884 125.65801 203.27897 125.60652 C 201.7084 125.47778 201.4252 125.52928 201.27072 125.88973 C 201.11623 126.30168 201.09049 126.30168 200.85877 125.88973 C 200.67854 125.58077 200.1121 125.42629 198.6188 125.29755 C 196.0956 125.09158 191.82162 124.39641 191.48692 124.1132 C 191.33243 124.01021 190.8175 123.93297 190.3283 123.93297 C 189.83912 123.95872 188.55178 123.77849 187.49615 123.52102 C 184.35504 122.77436 181.05944 122.0792 178.9997 121.693 C 177.94408 121.51277 176.32202 121.10082 175.39514 120.8176 C 173.20666 120.12244 171.37863 119.89072 170.96668 120.22543 C 170.70921 120.40565 170.22002 120.30267 169.2159 119.83922 C 167.31063 118.98958 167.00167 118.8351 165.35387 118.21717 C 164.58146 117.90821 163.0109 117.26454 161.87805 116.8011 C 160.74519 116.33765 159.12313 115.69398 158.27349 115.35927 C 156.188 114.56112 153.2786 113.22229 151.78528 112.34689 C 151.11587 111.93494 149.28784 110.93082 147.71728 110.10692 C 146.17247 109.28302 144.6534 108.38188 144.3702 108.12441 C 143.46905 107.24902 140.53391 105.42099 139.73576 105.24076 C 139.32381 105.13778 138.73163 104.82881 138.44842 104.57135 C 138.1652 104.33962 137.0066 103.56722 135.87374 102.87205 C 134.74087 102.20264 132.5524 100.81231 131.03333 99.75669 C 129.51427 98.72681 128.17543 97.87717 128.0467 97.87717 C 127.91796 97.87717 127.66049 97.69694 127.48026 97.46522 C 127.1713 97.07901 125.5235 95.92041 124.8026 95.55995 C 124.67386 95.48271 123.59249 94.83904 122.40814 94.14387 C 121.22378 93.42296 119.96219 92.6763 119.57598 92.47033 C 119.18978 92.26436 117.79945 91.4662 116.46062 90.6938 C 112.8818 88.6083 110.56459 88.11911 104.23087 88.06762 C 99.49345 88.01613 99.26172 88.04187 97.76841 88.68554 C 96.91876 89.046 95.50269 89.4322 94.62729 89.56094 C 92.79927 89.84415 92.74777 89.79266 92.74777 87.96463 C 92.74777 86.39408 92.41306 85.67316 91.04848 84.23134 C 90.09585 83.22721 89.50367 82.86676 88.16484 82.45481 C 87.23795 82.14585 86.23382 81.93987 85.95061 81.93987 C 85.64165 81.96562 84.4058 82.06861 83.1957 82.17159 Z M 118.72634 148.80442 L 118.72634 148.80442 C 120.09092 149.49959 120.19391 149.60257 120.88907 151.45635 C 121.55849 153.15564 121.60998 153.56759 121.48125 155.42136 C 121.30102 158.0218 120.81183 159.74683 119.4215 162.50174 C 118.80358 163.71184 118.05692 165.43688 117.72221 166.36377 C 117.36176 167.29065 116.87257 168.39777 116.5636 168.83547 C 116.28039 169.24741 115.71396 170.32878 115.30201 171.20417 C 114.89006 172.05382 114.37512 172.85197 114.1434 172.92921 C 113.93743 173.00645 113.83444 173.00645 113.91168 172.90347 C 114.27213 172.56876 113.60272 171.79635 112.44411 171.22992 C 111.82618 170.92096 110.56459 169.94258 109.6377 169.06719 C 108.09289 167.54812 107.9899 167.3679 107.70669 165.74584 C 107.55221 164.79321 107.29474 163.7376 107.14026 163.35139 C 106.98578 162.93944 106.98578 162.60473 107.11451 162.52749 C 107.24325 162.45025 107.42347 161.62635 107.50071 160.69946 C 107.68094 158.45949 108.09289 155.65308 108.63358 152.84668 C 109.04553 150.6582 109.50897 149.62832 110.0754 149.62832 C 110.20413 149.62832 110.77056 149.21637 111.337 148.70143 L 112.34112 147.8003 L 114.81282 147.92903 C 116.84682 148.05776 117.54198 148.21224 118.72634 148.80442 Z"
                        fill="black"/>
               </g>
            </g>
            <g>
               <path d="M 89.01448 84.25709 C 90.97124 85.13248 91.92387 87.29521 91.30595 89.45795 C 90.86825 90.95127 90.35332 94.42709 90.37906 95.81742 C 90.37906 97.28499 91.02274 101.01828 91.46043 102.25413 C 91.74365 103.05228 92.02686 103.43849 92.41306 103.48998 C 93.13398 103.59297 93.28846 103.02654 92.87651 101.84218 C 92.67053 101.27575 92.51605 100.4776 92.4903 100.06565 C 92.4903 99.62795 92.31008 98.54659 92.12985 97.6197 C 91.84663 96.30661 91.82089 95.50846 92.02686 93.88641 C 92.18134 92.75355 92.41306 91.69792 92.5418 91.54344 C 92.67053 91.36322 93.21122 91.23448 93.77765 91.23448 C 94.31833 91.23448 94.98775 91.10575 95.24522 90.97701 C 95.50269 90.84828 96.19785 90.6423 96.81577 90.53932 C 97.40795 90.43633 98.28334 90.17886 98.74679 89.94714 C 100.03413 89.30347 106.90854 89.17473 109.89517 89.76691 C 112.72732 90.33334 116.1774 91.95539 120.39988 94.73605 C 121.1208 95.17375 121.76447 95.55995 121.8932 95.55995 C 122.40814 95.55995 128.53588 99.55071 128.53588 99.91117 C 128.53588 99.98841 128.97358 100.29737 129.48852 100.58059 C 130.00346 100.8638 131.34229 101.76494 132.47515 102.56309 C 133.58227 103.38699 135.46179 104.51985 136.6204 105.08628 C 137.75325 105.65271 139.29807 106.5281 139.99323 107.04304 C 140.71414 107.53223 142.15596 108.38188 143.21159 108.92256 C 144.2672 109.46325 146.12098 110.49312 147.33108 111.23978 C 148.54118 111.96069 149.72554 112.55287 149.95726 112.55287 C 150.18898 112.55287 150.4207 112.65585 150.4722 112.75884 C 150.60093 113.0678 157.44959 116.3634 159.68956 117.1873 C 160.17875 117.36753 160.6937 117.625 160.82243 117.75373 C 160.9769 117.85672 161.31162 117.9597 161.59483 117.9597 C 161.9038 117.9597 162.83068 118.24292 163.68033 118.60338 C 164.52997 118.93808 165.4826 119.24705 165.81731 119.24705 C 166.12628 119.24705 166.38374 119.35003 166.38374 119.47877 C 166.38374 120.14819 170.45174 121.84748 172.33126 121.92472 C 172.97494 121.97621 173.6701 122.0792 173.85033 122.20793 C 174.03056 122.33667 174.62273 122.5169 175.11192 122.61988 C 175.62686 122.72287 176.50225 122.92884 177.06868 123.08333 C 177.63511 123.2378 179.3859 123.54677 180.9307 123.75274 C 182.50127 123.98447 184.2778 124.26768 184.92147 124.39641 C 185.56514 124.5509 187.00696 124.83411 188.13983 125.06583 C 189.27269 125.29755 190.66302 125.58077 191.22945 125.68376 C 192.903 126.04421 197.17697 126.45616 200.39532 126.5849 C 202.01737 126.63639 204.51482 126.89386 205.9309 127.09983 C 207.32122 127.33156 209.4582 127.64052 210.66831 127.795 C 213.39748 128.1812 224.77758 128.15545 227.5325 127.76925 C 228.66536 127.61477 230.87958 127.43454 232.4244 127.33156 C 233.99495 127.25431 235.3338 127.12558 235.41103 127.07409 C 235.48827 127.0226 236.9301 126.86811 238.5779 126.71363 C 240.4574 126.5334 242.0537 126.22444 242.77463 125.91548 C 243.44404 125.63226 245.14334 125.11733 246.5594 124.78262 C 248.00123 124.44791 249.88075 123.85573 250.75615 123.49528 C 251.6573 123.13482 252.55843 122.8516 252.7644 122.8516 C 252.99612 122.8516 253.6398 122.61988 254.23197 122.33667 C 254.7984 122.05345 255.98276 121.6415 256.85815 121.43553 C 257.7078 121.2038 258.5832 120.8691 258.8149 120.66312 C 259.04663 120.45715 259.32985 120.27692 259.43283 120.27692 C 259.6388 120.27692 262.08476 119.06682 263.52658 118.24292 C 264.06726 117.93396 264.65944 117.70224 264.81392 117.72798 C 265.4576 117.80522 265.7923 117.70224 265.63782 117.47051 C 265.5091 117.23879 268.00653 115.38502 268.44423 115.38502 C 268.52147 115.38502 269.3711 114.92158 270.298 114.35515 C 271.2249 113.78872 272.10028 113.32527 272.20327 113.32527 C 272.332 113.32527 273.2074 112.7331 274.13428 112.03793 C 275.0869 111.31702 276.55448 110.39013 277.42988 109.97818 C 279.6956 108.89682 282.81097 107.17178 283.30016 106.73408 C 283.50613 106.5281 283.89233 106.37363 284.12405 106.37363 C 284.4845 106.37363 284.536 106.55385 284.43302 107.32626 C 284.38152 107.86694 284.2528 108.94831 284.17555 109.74646 C 283.99532 111.49725 282.8882 113.40251 281.70385 114.04618 C 281.2404 114.2779 280.571 114.74135 280.1848 115.07606 C 278.94894 116.05444 277.1724 116.69811 274.77795 117.00707 C 272.56372 117.29029 272.48648 117.26454 270.7872 116.54363 C 269.06215 115.82272 268.39273 115.84846 268.13527 116.62087 C 268.00653 117.03282 269.8088 118.08844 271.58534 118.60338 L 273.13015 119.06682 L 272.94993 120.58588 C 272.74395 122.33667 270.8387 126.45616 269.73157 127.58902 C 268.7532 128.54166 269.11365 129.13383 270.6842 129.18533 C 273.6451 129.28832 277.45562 130.18945 279.5926 131.24508 C 280.571 131.73427 281.13742 131.863 281.7296 131.73427 C 282.47626 131.57978 282.502 131.57978 282.24454 132.2492 C 281.85833 133.30482 281.93557 134.05148 282.5535 134.82389 C 283.01694 135.41606 284.27854 139.50981 284.74198 141.90427 C 284.79347 142.26472 284.9222 142.72817 284.99945 142.93414 C 285.05094 143.14012 285.17968 144.42746 285.23117 145.7663 C 285.33416 148.16075 285.15393 149.80855 284.40727 153.23288 C 284.2013 154.15977 283.89233 155.47285 283.73785 156.19377 C 283.4289 157.60984 283.35165 157.86731 282.42476 159.92706 C 282.0643 160.69946 281.70385 161.62635 281.6266 161.9868 C 280.8542 165.69435 280.1848 167.3164 278.89745 168.70673 C 278.4855 169.19592 278.12504 169.81385 278.12504 170.1228 C 278.12504 170.43177 277.79033 170.9982 277.35264 171.3329 C 276.91494 171.69336 276.58023 172.07957 276.58023 172.2083 C 276.58023 172.31129 276.16828 172.92921 275.6791 173.54714 C 275.1899 174.16506 274.77795 174.75724 274.77795 174.86023 C 274.77795 174.96321 274.54623 175.29792 274.263 175.63263 C 273.41337 176.61101 273.07866 178.10433 273.46486 179.05696 C 273.6451 179.5204 273.8768 180.16408 273.95405 180.52453 C 274.3145 182.24957 275.88507 183.71714 277.9963 184.38656 C 278.56274 184.56679 279.56686 184.97874 280.21053 185.31344 C 280.8542 185.6224 282.1158 186.08585 283.0427 186.31757 C 285.56588 186.9355 285.72036 187.06423 286.05507 188.76352 C 286.26104 189.71615 286.2868 190.48856 286.1323 190.87476 C 285.61737 192.2136 284.02107 198.85628 283.40314 202.28061 C 283.17142 203.5422 282.8882 205.13851 282.75947 205.80793 C 282.63074 206.4516 282.34752 207.30125 282.1158 207.6617 C 281.31765 208.8718 281.08593 214.6906 281.75535 217.08505 C 282.57924 220.07168 283.73785 228.67113 283.7636 232.14695 C 283.78935 233.84624 283.91808 235.93174 284.02107 236.78138 C 284.30428 238.78964 283.73785 242.80614 283.01694 244.01625 C 282.70798 244.4797 282.1158 245.17485 281.65236 245.56106 C 280.9572 246.1275 280.67398 246.20473 279.61836 246.1275 C 278.69147 246.0245 278.30527 246.10174 278.02205 246.4107 C 277.68734 246.7969 277.7131 247.08012 278.30527 249.01113 C 278.66572 250.22123 279.10342 251.53432 279.28365 251.97202 C 279.46388 252.38397 279.7471 253.20787 279.90157 253.7743 C 280.468 255.78255 282.0128 262.96592 281.90983 263.0689 C 281.6781 263.32638 277.97056 262.32225 277.6616 261.93605 C 277.48137 261.70433 277.09517 260.7517 276.81195 259.85055 C 276.55448 258.9494 276.19403 258.04827 276.03955 257.86805 C 275.60185 257.3531 274.77795 255.62807 274.77795 255.26762 C 274.77795 255.0874 274.67496 254.72693 274.54623 254.46946 C 274.4175 254.23774 274.16003 253.51683 274.00555 252.87316 C 273.82532 252.2295 273.4906 251.2511 273.23314 250.68468 C 272.97567 250.11825 272.64096 248.95964 272.46074 248.11 C 272.25476 247.26035 271.97155 246.28197 271.79132 245.9215 C 271.4051 245.0976 270.65846 241.49306 270.65846 240.38594 C 270.65846 239.35607 270.3495 239.07285 269.8603 239.63928 C 269.62858 239.9225 269.55134 241.10685 269.5771 244.11923 C 269.60284 247.87827 269.70582 248.95964 270.42673 252.74443 C 270.5812 253.4396 270.7872 255.11313 270.91592 256.42622 C 271.0189 257.71357 271.30213 259.33562 271.53385 260.03078 C 271.92005 261.29238 272.30625 263.1719 272.58947 265.28314 C 272.69246 266.00405 272.92418 266.59623 273.1559 266.72496 C 273.4906 266.93094 273.51636 267.11116 273.23314 267.9093 C 273.07866 268.42425 272.8212 268.8362 272.7182 268.8362 C 272.58947 268.8362 271.9458 268.26977 271.32787 267.60035 C 270.6842 266.9052 269.75732 266.13278 269.26813 265.8753 C 268.28975 265.33463 266.82218 262.7857 266.5132 261.0349 C 266.41023 260.44273 266.02402 259.12964 265.66357 258.12552 C 265.17438 256.76093 264.94266 255.44784 264.76243 252.8474 C 264.60795 250.94215 264.35048 248.47045 264.1445 247.3376 C 263.93853 246.20473 263.8098 244.8659 263.8613 244.3767 C 263.88704 243.8875 263.99002 242.85764 264.06726 242.13673 C 264.1445 241.10685 264.093 240.66916 263.78405 240.3602 C 263.39785 239.99974 263.34635 239.99974 262.9344 240.43743 C 262.70268 240.6949 262.23924 241.64754 261.93028 242.57442 C 261.59557 243.5013 261.08063 244.89164 260.74592 245.66404 C 260.4112 246.43645 260.025 247.7238 259.87053 248.4962 C 259.71605 249.2686 259.4071 250.65893 259.17536 251.58582 C 257.93952 256.76093 257.45033 260.2625 257.42458 263.9443 C 257.39883 267.42013 257.34734 267.7291 256.8324 268.24402 C 256.52344 268.553 256.21448 268.70747 256.1115 268.63023 C 255.82827 268.347 255.15886 266.72496 254.92714 265.74658 C 254.026 261.98754 254.026 262.14202 254.64392 261.67858 L 255.21035 261.24088 L 254.23197 260.314 C 253.30508 259.4386 253.22784 259.25838 253.07336 257.48184 C 252.97038 256.42622 252.7129 254.72693 252.50693 253.6713 C 252.06924 251.61156 252.17222 249.42308 252.8159 247.49207 C 253.02187 246.8484 253.27934 245.43232 253.43382 244.3252 C 253.6913 242.31695 254.28346 240.84938 255.6223 239.0986 C 255.93126 238.6609 256.47195 237.7855 256.80665 237.14184 C 257.57906 235.62278 258.40296 234.51566 259.84478 233.09958 C 260.48845 232.48166 261.36385 231.63201 261.8273 231.19432 C 262.6512 230.37042 264.4792 227.30654 264.4792 226.74011 C 264.4792 226.55989 264.89116 225.736 265.38035 224.9121 C 267.25987 221.69373 267.36286 221.43626 267.4916 219.37652 C 267.62033 217.78021 267.5431 217.23953 267.20838 216.7246 C 266.97666 216.36414 266.79643 215.92644 266.79643 215.7462 C 266.79643 215.56598 266.20425 214.66485 265.5091 213.73796 C 264.04152 211.85844 262.72843 211.03454 259.43283 209.85019 C 257.42458 209.15502 257.14136 209.12927 252.97038 209.15502 C 249.54605 209.18077 248.43893 209.07778 247.71802 208.76882 C 247.25458 208.56284 246.04447 208.22813 245.04035 208.0479 C 242.23394 207.55872 239.71075 205.93667 236.0547 202.25487 L 233.71174 199.88616 L 232.24417 196.07562 C 230.26166 190.92626 230.96604 192.309 230.70914 190.55882 C 230.43746 188.78093 231.1628 184.72127 230.69936 185.08172 C 230.51913 185.2362 229.64374 185.41643 228.76834 185.49367 C 227.1463 185.6739 224.00518 186.9355 221.79095 188.35157 C 221.17302 188.73777 220.6066 188.99524 220.52935 188.918 C 220.2204 188.60904 221.79095 185.87988 223.28427 184.15484 C 225.1123 182.01785 226.7086 181.1167 228.92282 181.01372 L 230.31315 180.93648 L 230.26166 182.68727 C 230.21017 184.23208 230.32294 185.44646 230.70914 185.36922 C 230.94086 185.34347 231.13705 184.0776 231.18855 183.87162 C 231.2143 183.66565 231.36877 182.97048 231.4975 182.3268 C 231.90946 180.2928 233.0938 177.35767 234.1237 175.8386 C 234.66437 175.04045 235.1278 174.2938 235.1278 174.1908 C 235.1278 173.98483 236.02895 172.90347 237.95997 170.74073 C 238.8096 169.81385 239.81374 168.578 240.19994 167.98582 C 240.86936 166.9817 243.10933 164.81896 243.4698 164.81896 C 243.83025 164.81896 246.3277 161.90956 246.3277 161.49762 C 246.3277 161.2659 246.07022 161.05992 245.76126 161.00843 C 245.32356 160.93118 244.70564 161.39463 243.4183 162.68197 C 242.43992 163.6346 241.07533 164.97344 240.35442 165.64286 C 239.6335 166.31227 238.5264 167.65111 237.90847 168.60374 C 237.2648 169.55638 236.13194 170.92096 235.41103 171.64187 C 234.69012 172.33704 233.78898 173.49564 233.42852 174.21656 C 233.0938 174.91172 232.57888 175.91585 232.29566 176.40504 C 232.01245 176.89423 231.78072 177.51215 231.78072 177.74387 C 231.78072 178.00134 231.67774 178.20732 231.52326 178.20732 C 231.39452 178.20732 231.1113 178.54202 230.90533 178.95397 C 230.54488 179.64914 230.3904 179.70063 228.04743 179.9581 C 226.03918 180.18982 224.88057 180.52453 221.91968 181.70889 C 219.91143 182.50704 218.0834 183.38243 217.82594 183.6399 C 217.59421 183.89737 217.23376 184.1291 217.02778 184.1291 C 216.8218 184.1291 216.51285 184.30932 216.33262 184.5153 C 216.1524 184.72127 215.79193 184.9015 215.53447 184.9015 C 215.277 184.9015 214.99378 185.00448 214.91654 185.15896 C 214.8393 185.2877 214.04115 185.82838 213.16576 186.34332 C 212.3161 186.85826 211.46647 187.42469 211.31198 187.60491 C 210.8743 188.1456 207.32122 190.41132 204.69505 191.80165 C 202.1461 193.14048 197.15122 196.35884 195.99261 197.36297 C 195.63216 197.67193 195.01423 198.08388 194.60228 198.28985 C 194.19033 198.49583 193.36643 199.11375 192.77426 199.6287 C 192.15633 200.16937 191.51266 200.60707 191.33243 200.60707 C 191.1522 200.60707 190.8175 200.76155 190.61152 200.96752 C 189.6589 201.81717 175.6526 208.84606 174.36526 209.12927 C 170.50324 209.97892 169.9368 210.10765 167.05316 210.77707 C 166.10053 211.0088 164.45273 211.18902 163.39711 211.18902 C 161.44035 211.18902 160.23025 210.69983 159.09739 209.43824 C 158.6597 208.94905 158.68544 208.89755 159.27762 208.25388 C 159.7668 207.7132 159.94703 207.17251 160.10151 205.5762 C 160.48772 201.86866 160.33324 197.054 159.7668 196.15287 C 159.68956 196.02413 159.53508 194.99426 159.40635 193.88714 C 159.25187 192.23935 159.0459 191.59567 158.37648 190.5658 C 157.50108 189.20122 156.75442 188.918 156.5227 189.81914 C 156.36822 190.35983 156.98615 191.59567 157.37235 191.59567 C 158.04177 191.59567 159.30336 198.03238 159.22612 201.122 C 159.20037 201.76568 159.09739 203.36198 158.96865 204.64932 C 158.73693 206.86355 158.6597 207.12102 157.75855 208.25388 C 157.19212 208.94905 156.72868 209.54122 156.70293 209.56697 C 156.67718 209.61846 156.1365 209.77295 155.51858 209.90168 C 154.77192 210.0819 154.38571 210.0819 154.33422 209.87593 C 154.17974 209.46398 150.96138 205.70494 150.26622 205.19 C 149.95726 204.93254 149.41657 204.28887 149.10761 203.74818 C 148.15498 202.20337 146.50718 200.60707 145.21984 199.93765 C 143.75227 199.191 143.21159 199.16525 143.21159 199.80892 C 143.21159 200.4011 143.39181 200.52983 145.1426 201.30223 C 146.09523 201.71418 146.63592 202.15188 147.25384 203.10451 C 147.69154 203.77393 148.8244 205.13851 149.75128 206.14264 C 150.65242 207.12102 151.6823 208.27963 151.99126 208.71732 C 152.30022 209.12927 152.8924 209.85019 153.30435 210.28788 C 153.7163 210.72558 154.25698 211.70396 154.5402 212.47636 C 155.20961 214.2529 155.67306 218.81009 155.3126 219.78847 C 155.15812 220.17467 154.9264 221.02432 154.77192 221.66799 C 154.64318 222.3374 154.07675 223.77923 153.53607 224.93784 C 152.37746 227.38379 150.72966 229.03158 148.61842 229.88123 C 146.48143 230.73087 146.22397 230.75662 145.42581 230.34467 C 145.03961 230.1387 144.55042 229.95847 144.3702 229.95847 C 143.9325 229.95847 143.67503 229.701 141.66677 227.02333 C 140.73989 225.81323 139.91599 224.8091 139.813 224.8091 C 139.71001 224.8091 139.50404 225.04082 139.34956 225.32404 C 139.06634 225.86472 139.29807 226.19943 142.69665 230.24168 C 143.46905 231.19432 143.46905 231.22006 143.31457 233.3828 C 143.13434 235.5198 143.1086 235.57128 142.49067 235.54553 C 141.97574 235.49404 141.82126 235.67427 141.56379 236.52391 C 141.20333 237.63103 140.37943 239.0471 139.11784 240.61766 C 138.26819 241.67328 138.01072 243.08936 138.68014 243.08936 C 139.24657 243.08936 141.35781 240.43743 141.71827 239.27883 C 141.8985 238.68665 142.20746 238.19746 142.36194 238.19746 C 142.87688 238.19746 142.79964 242.26546 142.2847 243.5013 C 141.76976 244.73716 139.68427 249.01113 139.32381 249.52607 C 138.96336 250.06675 138.37118 251.09663 138.08796 251.7403 C 137.779 252.43546 135.61627 254.5467 134.22594 255.52508 C 133.47928 256.04002 132.65538 256.34898 131.88297 256.42622 C 130.8016 256.5292 130.62138 256.45197 130.13219 255.83405 C 129.6945 255.29336 129.56576 254.75268 129.56576 253.6713 C 129.54001 250.9679 128.89634 249.42308 128.07244 250.0925 C 127.84072 250.29848 127.78923 250.68468 127.91796 251.43134 C 128.02095 252.0235 128.09819 253.0019 128.07244 253.64556 C 128.07244 254.28924 128.22692 255.16463 128.40715 255.62807 C 128.71611 256.34898 128.71611 256.47772 128.3814 256.47772 C 128.20118 256.47772 128.02095 256.5807 128.02095 256.7352 C 128.02095 256.86392 126.88809 258.12552 125.49776 259.51584 C 123.36077 261.65283 122.82009 262.09053 121.71297 262.3995 C 120.99206 262.57972 120.19391 262.94018 119.88495 263.19764 C 119.16403 263.86706 117.67072 263.86706 115.7912 263.24914 C 113.371 262.42524 111.6717 261.49835 111.337 260.7517 C 111.07953 260.15952 111.13102 259.9278 111.80044 258.89792 C 112.52135 257.76506 112.98479 257.3531 114.29788 256.76093 C 114.60684 256.60645 114.9673 256.27174 115.12178 256.01427 C 115.27626 255.73106 116.28039 255.06164 117.36176 254.52096 C 120.78609 252.77017 121.0693 252.58994 121.0693 252.10075 C 121.0693 251.86903 120.88907 251.50858 120.6831 251.32835 C 120.37414 251.07088 120.11667 251.12237 119.26702 251.6888 C 118.70059 252.04926 117.59348 252.6157 116.82107 252.8989 C 116.04867 253.18212 115.07029 253.7228 114.68408 254.08326 C 114.29788 254.41797 113.371 255.19038 112.62434 255.73106 C 111.18251 256.83817 109.81793 258.51172 109.56046 259.5416 C 109.48322 259.8763 109.53472 260.49422 109.6892 260.90617 C 109.92092 261.5241 109.89517 261.6271 109.48322 261.6271 C 108.53059 261.6271 107.70669 261.06066 107.62945 260.3655 C 107.57796 259.8248 107.42347 259.69607 106.80555 259.69607 C 106.18763 259.67033 106.0074 259.51584 105.80142 258.92367 C 105.67269 258.48597 105.38947 257.9453 105.1835 257.71357 C 104.95178 257.48184 104.72006 256.88967 104.61707 256.42622 C 104.48833 255.73106 104.28236 255.55083 103.69018 255.44784 C 103.04651 255.3191 102.94352 255.19038 102.99502 254.67544 C 103.38122 251.58582 104.51408 250.4787 108.55634 249.11412 L 111.38849 248.1615 L 116.02292 248.29022 C 118.5976 248.34172 120.94057 248.34172 121.27528 248.29022 C 121.8932 248.18723 122.04768 247.44058 121.53274 247.00288 C 121.32677 246.8484 118.95806 246.7454 115.7397 246.71966 C 110.48735 246.69392 110.20413 246.69392 108.78806 247.31184 C 107.96416 247.64655 106.80555 248.007 106.21337 248.11 C 105.49246 248.21298 104.87454 248.57344 104.23087 249.19136 C 103.63869 249.78354 103.17525 250.041 102.91778 249.93802 C 102.68606 249.86078 102.58307 249.6548 102.66031 249.50032 C 102.91778 249.13987 102.04238 248.23873 101.60469 248.41896 C 101.1155 248.59918 101.14124 248.08425 101.75917 246.15323 C 102.7633 242.98637 103.20099 242.41994 106.03314 240.6949 C 107.166 240.02549 108.32461 239.5878 110.0239 239.22733 C 111.36274 238.94412 113.19077 238.53217 114.11765 238.3262 C 115.7397 237.94 117.8252 238.01723 118.75208 238.45493 C 119.60173 238.86688 121.99619 239.79376 122.53687 239.9225 C 123.18054 240.07698 123.61824 239.4848 125.03431 236.52391 C 125.5235 235.5198 126.47614 234.02647 127.1713 233.15108 C 129.12806 230.75662 129.23105 230.29318 128.58738 227.95022 C 127.73773 224.8606 127.48026 223.2643 127.63475 221.74523 C 127.71199 220.97282 127.66049 219.99444 127.50601 219.531 C 127.06831 218.24366 127.09406 214.2014 127.5575 211.6782 C 128.02095 209.07778 128.0467 208.5371 127.73773 208.1509 C 127.5575 207.97067 127.24854 207.86768 127.04257 207.94492 C 126.42464 208.17664 123.1548 206.81206 122.7171 206.1169 C 122.48538 205.78218 122.07343 205.44748 121.76447 205.3445 C 121.48125 205.26725 120.96631 204.8553 120.60586 204.44335 C 120.27115 204.0314 119.8592 203.6967 119.67897 203.6967 C 119.49874 203.6967 119.11254 203.43922 118.82933 203.10451 C 118.54611 202.79555 117.72221 202.02315 117.0013 201.37947 C 115.405 199.98914 112.75307 196.07562 112.08365 194.14461 C 111.10527 191.31246 111.18251 188.11985 112.34112 183.61415 C 113.42249 179.44316 114.01467 177.74387 114.94155 176.04458 C 115.48224 175.0662 115.91993 174.2423 115.91993 174.1908 C 115.91993 174.13931 116.71808 172.44002 117.69646 170.40602 C 120.47712 164.66448 121.4555 162.52749 122.38239 160.03005 C 123.18054 157.9188 123.25778 157.50685 123.25778 154.77769 C 123.25778 152.46047 123.1548 151.50784 122.74285 150.40073 C 121.71297 147.56857 119.26702 146.02376 115.86844 146.02376 C 114.89006 146.02376 114.11765 145.92078 114.11765 145.79204 C 114.11765 145.68905 114.5296 145.04538 115.04454 144.37596 C 116.02292 143.08862 118.75208 137.81052 118.75208 137.1926 C 118.75208 136.83214 118.88082 136.3687 120.16816 132.37794 C 121.09505 129.54578 121.42976 127.09983 121.42976 123.10907 C 121.4555 119.40153 121.09505 117.77948 119.62748 114.74135 C 118.62335 112.70735 117.31026 111.26553 116.43487 111.26553 C 115.30201 111.26553 115.61097 112.34689 117.02705 113.32527 C 118.44312 114.30365 119.65322 117.08431 120.06517 120.37991 C 120.52862 123.85573 119.93644 127.89799 117.87669 135.46756 C 117.28451 137.6303 116.46062 139.48406 114.89006 142.11024 C 114.11765 143.42333 113.34525 144.76217 113.16502 145.07113 C 112.31537 146.64169 108.0414 149.3966 106.31636 149.47384 C 104.59132 149.55108 104.15363 146.71893 105.38947 143.42333 C 106.16188 141.36358 106.65107 139.69004 107.08877 137.5273 C 107.29474 136.47168 107.6552 135.21009 107.83542 134.74665 C 108.27312 133.74252 108.29887 132.48092 107.91266 132.2492 C 107.37198 131.88875 106.36785 132.42943 105.72418 133.40781 C 104.82304 134.7724 104.23087 134.79814 104.43684 133.4593 C 104.51408 132.94437 104.66856 131.96599 104.7458 131.27082 C 104.87454 130.13796 104.84879 130.06072 104.3081 130.06072 C 103.5872 130.06072 102.14537 131.60553 100.34309 134.30895 C 99.57069 135.44181 98.33484 137.01237 97.58818 137.78477 C 96.84152 138.58293 95.96613 139.74153 95.63142 140.35946 C 94.70453 142.16174 92.928 145.14837 92.4903 145.63756 C 92.28433 145.89503 91.64066 146.89916 91.07423 147.92903 C 90.32757 149.24212 89.86413 149.7828 89.42643 149.8343 C 89.09172 149.88579 88.88575 150.06602 88.96299 150.24624 C 89.11747 150.6582 84.84349 155.08665 82.98972 156.42549 C 81.18744 157.71283 80.23481 157.73858 78.35529 156.47698 C 75.93509 154.85493 75.62612 154.08252 76.42428 151.66232 C 76.86197 150.34923 76.75898 149.49959 76.19255 149.67981 C 76.03807 149.75705 75.52314 150.9929 75.11119 152.43473 C 73.87534 156.60572 72.94845 156.86318 70.19354 153.72207 C 69.34389 152.76944 68.95769 151.91979 68.64873 150.40073 C 68.39126 149.19062 68.41701 148.85592 68.80321 147.95478 C 69.06068 147.3626 69.18941 146.56445 69.11217 146.07526 C 69.06068 145.61181 69.13792 144.91665 69.2924 144.53045 C 69.65286 143.6293 69.7301 141.62105 69.47263 139.97325 C 69.26665 138.55718 68.88045 138.04224 66.8722 136.49743 C 66.074045 135.8795 65.32739 135.00411 64.96693 134.2832 C 64.42625 133.22758 64.34901 132.76414 64.4005 130.2152 C 64.45199 126.25019 65.018424 123.93297 67.49012 117.31603 C 69.11217 112.96482 72.40777 106.1934 74.1843 103.51573 C 75.57463 101.40448 78.12357 98.64957 78.69 98.64957 C 79.43666 98.64957 80.13182 100.16864 80.51802 102.56309 C 80.6725 103.51573 81.34192 104.03066 81.95985 103.64446 C 82.3203 103.43849 82.08858 100.99254 81.59939 99.57646 C 81.26468 98.70107 79.56539 96.87304 79.05045 96.84729 C 78.94747 96.84729 78.14931 96.3581 77.29967 95.76593 C 75.62612 94.63306 75.05969 93.78342 74.467516 91.62068 C 74.00407 89.89565 74.26154 88.78853 75.54888 87.14073 C 77.06795 85.13248 79.5139 84.10261 83.47891 83.74215 C 85.95061 83.51043 87.72714 83.66491 89.01448 84.25709 Z"/>
            </g>
            <g>
               <path d="M 337.8577 88.47957 C 339.763 88.81428 341.87422 89.17473 342.5694 89.25197 C 343.2903 89.35496 343.7795 89.53519 343.7795 89.74116 C 343.7795 90.15311 342.4664 92.03263 341.38503 93.1655 C 340.7671 93.83491 340.3809 94.01514 339.63425 94.01514 C 338.99058 94.01514 338.47564 94.22112 338.0122 94.65881 C 337.36853 95.25099 337.16255 95.30248 335.9782 95.148 C 334.35614 94.96777 333.0173 94.58157 332.27065 94.11813 C 331.318 93.52595 330.39113 91.38896 330.39113 89.81841 C 330.39113 89.046 330.3139 88.37658 330.23665 88.29934 C 330.1594 88.2221 329.7732 88.2736 329.3355 88.42808 C 328.69184 88.68554 328.58885 88.84003 328.58885 89.76691 C 328.58885 90.33334 328.74333 91.44046 328.9493 92.18711 C 329.284 93.5002 329.284 93.60319 328.6146 94.86479 C 327.14703 97.69694 323.41374 100.34886 321.3025 100.0914 C 319.24275 99.83393 316.82254 98.88129 315.79267 97.90291 C 315.4837 97.6197 314.99452 96.82155 314.68556 96.15213 C 313.9904 94.58157 313.47546 94.01514 312.70305 94.01514 C 312.36834 94.01514 312.0079 93.80917 311.93064 93.57744 C 311.69892 92.98527 312.88328 90.87403 313.6557 90.48782 C 314.3251 90.15311 318.21287 89.22623 320.4786 88.84003 C 321.17376 88.73704 322.5126 88.45382 323.4395 88.24785 C 324.52085 88.01613 326.73508 87.88739 329.74746 87.86165 C 333.6095 87.8359 334.92258 87.93889 337.8577 88.47957 Z"/>
            </g>
            <g>
               <path d="M 347.8475 90.6938 C 350.6024 91.54344 354.90213 93.98939 355.62304 95.12225 C 355.95775 95.68869 355.57154 96.33236 354.85063 96.33236 C 354.59316 96.33236 354.2327 96.71856 353.97524 97.28499 C 353.28007 98.85555 350.47367 100.50335 349.46954 99.96266 C 349.21207 99.80818 348.87736 99.80818 348.64564 99.96266 C 348.10496 100.29737 345.63326 100.24588 344.1657 99.83393 C 341.6425 99.16451 340.5869 98.34061 340.30367 96.82155 C 340.12344 95.79167 340.22642 95.61144 341.6425 94.78755 C 342.10594 94.50433 343.21306 93.34572 344.08845 92.21286 C 344.9896 91.08 345.8135 90.15311 345.91648 90.15311 C 346.01946 90.15311 346.89486 90.38484 347.8475 90.6938 Z"/>
            </g>
            <g>
               <path d="M 310.66905 91.64643 C 310.72054 91.74942 310.56606 92.2901 310.3086 92.85653 C 310.02538 93.42296 309.8194 94.01514 309.79366 94.16962 C 309.79366 94.3241 309.047 96.04914 308.1201 97.98015 C 306.5238 101.3015 306.36933 101.53322 305.33945 102.02241 C 304.74728 102.30562 303.92338 102.74332 303.48568 102.97504 C 302.24983 103.67021 299.39193 103.51573 297.64115 102.66608 C 296.5083 102.1254 296.1221 101.76494 295.65864 100.81231 C 294.98922 99.42198 295.06646 99.29324 296.97173 98.28912 C 297.7184 97.90291 298.85125 97.25924 299.49492 96.84729 C 302.1726 95.12225 307.70816 92.2901 309.5362 91.69792 C 310.41158 91.41471 310.51457 91.41471 310.66905 91.64643 Z"/>
            </g>
            <g>
               <path d="M 312.2911 95.43122 C 312.60006 95.63719 312.98627 96.25512 313.14075 96.7958 C 313.5527 98.0574 314.4281 98.95853 315.9729 99.67945 C 316.6938 100.01416 317.26024 100.37461 317.26024 100.4776 C 317.26024 100.60633 317.6722 100.76081 318.18713 100.8638 C 319.42298 101.09552 319.5002 101.50747 318.62482 102.74332 C 317.77518 103.95342 316.82254 104.46836 314.2221 105.11203 C 310.51457 106.03892 303.58867 105.62697 303.6144 104.46836 C 303.64016 104.18514 305.67416 102.76907 306.06036 102.76907 C 306.49806 102.76907 308.48057 100.9153 308.63505 100.37461 C 309.02125 99.13876 311.15824 95.04501 311.44145 95.04501 C 311.59594 95.04501 311.98214 95.22524 312.2911 95.43122 Z"/>
            </g>
            <g>
               <path d="M 331.78146 95.79167 C 332.65685 96.20362 335.1543 96.53833 337.5745 96.58982 C 337.83197 96.58982 337.88346 96.82155 337.729 97.54246 C 337.2398 100.11714 335.23154 102.09965 331.78146 103.38699 C 330.57136 103.82469 328.6661 103.7217 326.99255 103.12952 C 325.0358 102.4601 324.03166 100.96679 325.2675 100.58059 C 326.06566 100.32312 329.51574 96.95028 329.8762 96.07489 C 330.2624 95.17375 330.41688 95.148 331.78146 95.79167 Z"/>
            </g>
            <g>
               <path d="M 357.60554 98.57233 C 358.76415 100.94104 359.0731 103.56722 358.3522 105.42099 C 357.863 106.70833 356.13797 109.25727 354.7734 110.72484 C 353.87225 111.70322 353.71777 111.78046 352.84238 111.62598 C 351.73526 111.42 350.83412 111.0338 349.1606 110.02968 C 347.43554 109.02555 347.2038 108.79383 346.45716 107.24902 C 345.53027 105.318 345.73625 104.08216 347.28106 102.56309 C 348.0792 101.81643 348.64564 101.48173 349.1606 101.48173 C 349.98448 101.48173 352.12147 100.65783 353.82076 99.67945 C 354.6189 99.216 355.1596 98.64957 355.5973 97.79993 C 355.932 97.13051 356.3182 96.58982 356.4212 96.58982 C 356.52418 96.58982 357.06486 97.49096 357.60554 98.57233 Z"/>
            </g>
            <g>
               <path d="M 340.20068 99.62795 C 341.33354 100.4776 343.0071 101.22426 343.85673 101.22426 C 345.3243 101.22426 345.4273 101.48173 344.62913 103.18102 C 344.24293 104.00492 343.9597 105.08628 343.9597 105.57547 C 344.0112 106.86282 345.55602 109.69497 346.61164 110.41588 C 348.82587 111.93494 349.4953 112.2954 350.52516 112.57861 C 352.45618 113.09355 352.3532 113.04206 352.04423 113.42826 C 351.761 113.76297 349.85574 114.74135 345.06683 117.00707 C 344.13994 117.44477 342.8526 118.06269 342.1832 118.3974 C 340.99883 118.98958 340.94734 118.98958 339.68574 118.57763 C 338.65587 118.24292 338.16668 117.88246 337.34278 116.82684 C 336.44164 115.64249 336.3129 115.28203 336.3129 114.14917 C 336.3129 112.34689 336.62187 111.67747 337.9092 110.75059 C 338.52713 110.31289 339.24804 109.77221 339.53126 109.54049 C 340.20068 108.97406 342.33767 108.1759 343.1358 108.1759 C 343.831 108.1759 344.26868 107.53223 343.85673 107.12028 C 343.26455 106.5281 339.04207 107.94418 337.626 109.18003 C 336.93083 109.77221 336.57037 109.69497 336.57037 108.89682 C 336.57037 108.07292 335.489 105.91018 334.89683 105.60122 C 334.6136 105.44674 334.1759 105.03479 333.9442 104.70008 C 333.5065 104.1079 333.5065 104.1079 334.58787 103.54147 C 335.79797 102.8978 338.3469 100.94104 338.37265 100.63208 C 338.37265 100.29737 339.19655 99.16451 339.40253 99.16451 C 339.5055 99.16451 339.86597 99.37048 340.20068 99.62795 Z"/>
            </g>
            <g>
               <path d="M 294.3713 102.22838 C 295.2982 103.69595 295.83887 104.05641 298.1561 104.72583 C 298.51654 104.82881 298.56803 106.06466 298.23332 106.94006 C 297.84712 107.91844 295.89036 109.97818 295.16945 110.15841 C 294.78325 110.23565 294.11383 110.59611 293.67613 110.93082 C 293.23844 111.23978 292.7235 111.523 292.51753 111.523 C 292.31155 111.523 292.0026 111.65173 291.82236 111.83196 C 291.30742 112.34689 288.9387 112.19241 287.2909 111.54874 C 285.8491 110.98231 285.7976 110.93082 285.95208 110.15841 C 286.02932 109.74646 286.1838 108.43337 286.26104 107.30051 L 286.44127 105.18927 L 288.08907 103.92768 C 288.9902 103.20676 290.38054 102.27988 291.1272 101.86793 C 291.8996 101.43023 292.59477 101.01828 292.69775 100.88955 C 293.1097 100.4776 293.47016 100.78656 294.3713 102.22838 Z"/>
            </g>
            <g>
               <path d="M 322.28088 101.63621 C 322.48685 101.73919 322.8473 102.1254 323.07903 102.53735 C 323.285 102.9493 323.5682 103.284 323.7227 103.284 C 323.87718 103.284 324.31488 103.51573 324.70108 103.7732 C 325.06153 104.03066 325.88543 104.39112 326.5291 104.57135 C 327.17278 104.72583 327.8937 105.06054 328.15116 105.29226 C 328.48586 105.60122 328.7176 105.62697 329.18103 105.42099 C 330.44262 104.82881 332.7341 105.7557 333.9957 107.32626 C 334.40764 107.86694 334.51063 108.35613 334.51063 110.02968 L 334.51063 112.03793 L 333.81546 111.8577 C 333.4035 111.72897 331.524 111.65173 329.61873 111.65173 C 325.422 111.67747 324.70108 111.96069 322.28088 114.53537 L 320.73607 116.18317 L 319.34574 115.1533 C 318.59908 114.56112 317.82667 114.09768 317.6207 114.09768 C 317.41472 114.09768 317.02852 113.96894 316.77105 113.78872 C 316.38485 113.557 316.33335 113.37677 316.5136 113.01631 C 316.6423 112.78459 316.77105 112.01218 316.77105 111.31702 C 316.82254 110.02968 316.38485 108.94831 315.22624 107.42925 C 314.6083 106.60535 314.6083 106.55385 315.046 106.24489 C 315.3035 106.03892 315.94715 105.83294 316.48784 105.72995 C 317.92966 105.49823 319.91217 103.79894 320.83905 102.04816 C 321.148 101.48173 321.5342 101.35299 322.28088 101.63621 Z"/>
            </g>
            <g>
               <path d="M 302.76477 105.88444 C 303.92338 106.42512 305.15923 106.75983 306.44657 106.88856 C 311.5187 107.42925 312.70305 107.68671 313.5012 108.53636 C 315.71543 110.90507 315.27773 113.27378 312.3941 114.25216 C 310.38583 114.89583 309.94814 115.23054 308.96976 116.8011 C 308.5063 117.5735 308.04287 118.21717 307.9399 118.21717 C 307.8369 118.21717 307.37345 117.88246 306.91 117.49626 C 305.93163 116.64662 304.2066 116.05444 302.86776 116.05444 C 301.50317 116.08018 297.69264 116.62087 296.66277 116.92983 C 295.1437 117.36753 295.11796 117.29029 295.99335 115.17905 C 296.61127 113.71148 296.81725 112.93907 296.71426 112.19241 C 296.61127 111.29127 296.6885 111.11104 297.84712 110.00393 C 299.28895 108.58785 300.26733 106.91431 300.26733 105.83294 C 300.26733 104.88031 300.55054 104.88031 302.76477 105.88444 Z"/>
            </g>
            <g>
               <path d="M 286.6215 112.81034 C 288.86147 113.557 290.81823 113.63423 292.775 113.04206 C 294.93773 112.39839 294.96348 112.39839 294.78325 113.45401 C 294.50003 115.23054 293.39292 117.1358 291.66788 118.8351 C 290.07158 120.37991 289.89135 120.4829 288.47527 120.66312 L 286.9562 120.84335 L 286.64725 119.9937 C 286.49276 119.55601 286.36403 118.86084 286.36403 118.47464 C 286.36403 117.34178 285.82335 116.10593 284.89646 115.05031 C 284.43302 114.53537 284.0468 114.02044 284.0468 113.9432 C 284.0468 113.76297 284.89646 112.2954 284.99945 112.2954 C 285.05094 112.2954 285.77185 112.52712 286.6215 112.81034 Z"/>
            </g>
            <g>
               <path d="M 333.2233 113.29953 C 333.96994 113.63423 334.1759 113.91745 334.4334 114.92158 C 334.58787 115.56525 334.8196 116.26041 334.94832 116.46639 C 335.5405 117.44477 337.42 119.76198 337.626 119.76198 C 338.08944 119.76198 337.83197 120.25117 337.2913 120.40565 C 336.62187 120.61163 334.35614 121.46127 331.16354 122.72287 C 328.76908 123.6755 325.319 124.65388 324.41786 124.65388 C 324.08315 124.65388 322.64133 124.98859 321.17376 125.40054 C 319.34574 125.94123 317.6722 126.22444 315.76692 126.32743 C 314.24786 126.40467 312.5743 126.5334 312.03363 126.61064 C 311.10675 126.76512 311.05525 126.73938 311.20973 126.12145 C 311.3642 125.55502 311.23548 125.3748 310.33434 124.80836 C 309.17573 124.0617 308.944 123.52102 308.91826 121.3068 C 308.8925 120.30267 309.047 119.659 309.40745 119.11831 C 309.69067 118.68062 310.1541 117.90821 310.43733 117.36753 C 311.0295 116.18317 312.54857 115.23054 314.40234 114.87008 C 316.05014 114.56112 316.92553 114.94732 319.08827 116.90408 C 320.34986 118.03694 320.5816 118.3974 320.73607 119.42727 C 320.89055 120.4829 321.12227 120.84335 322.6156 122.25943 C 323.98017 123.59826 324.4436 123.88148 325.16452 123.88148 C 325.8082 123.88148 326.01417 123.77849 326.01417 123.44378 C 326.01417 123.00609 323.79994 120.79186 323.36224 120.79186 C 323.02753 120.79186 322.4096 119.06682 322.4096 118.08844 C 322.4096 116.87834 322.87305 116.00294 324.2634 114.7156 C 325.24176 113.76297 326.2974 113.1193 327.55898 112.7331 C 328.3314 112.50137 332.3479 112.88758 333.2233 113.29953 Z"/>
            </g>
            <g>
               <path d="M 284.79347 118.73211 C 284.94795 119.81348 285.12818 120.8691 285.20542 121.10082 C 285.3084 121.33254 285.2569 121.59001 285.10243 121.693 C 284.89646 121.79598 284.89646 122.00196 285.0767 122.36241 C 285.23117 122.64563 285.38565 123.64976 285.38565 124.60239 C 285.4114 126.06996 285.3084 126.55915 284.6905 127.69201 C 283.96957 129.03085 282.605 130.31819 281.90983 130.31819 C 281.70385 130.31819 281.03443 130.08647 280.4165 129.829 C 279.7986 129.54578 278.12504 129.08234 276.70896 128.79913 C 272.35775 127.89799 271.73982 127.66626 272.229 127.07409 C 272.40924 126.84237 273.00142 125.68376 273.5421 124.47366 C 274.62347 122.00196 274.98393 120.12244 274.54623 119.29854 C 274.28876 118.80935 274.34025 118.73211 274.95818 118.60338 C 276.32276 118.3459 279.02618 117.36753 279.6956 116.90408 C 280.05605 116.64662 280.93145 116.15743 281.6266 115.79697 L 282.8882 115.1533 L 283.7121 115.9772 C 284.45876 116.69811 284.5875 117.05856 284.79347 118.73211 Z"/>
            </g>
            <g>
               <path d="M 304.2581 117.85672 C 304.79877 118.06269 305.62267 118.57763 306.0861 118.93808 C 306.8585 119.53026 306.9615 119.78773 306.9615 120.79186 C 306.9615 121.40978 307.116 122.56839 307.2962 123.3408 C 307.52793 124.44791 307.81115 124.8856 308.58356 125.50353 C 309.0985 125.94123 309.5362 126.37892 309.5362 126.45616 C 309.5362 126.86811 307.03874 127.04834 300.5248 127.12558 C 296.76575 127.15133 293.41867 127.28006 293.0582 127.3573 C 291.2302 127.795 288.80998 128.20695 288.62975 128.10396 C 288.52676 128.05247 287.85735 128.36143 287.13644 128.79913 C 286.41552 129.23682 285.77185 129.57153 285.72036 129.52004 C 285.66887 129.46854 285.92633 128.77338 286.31254 128.00097 C 286.80173 126.9711 287.0077 125.99272 287.1107 124.39641 L 287.26517 122.20793 L 288.1663 122.0277 C 288.6555 121.92472 289.50514 121.77024 290.02008 121.693 C 290.56077 121.61576 291.30742 121.22955 291.77087 120.79186 C 292.2343 120.35416 292.69775 120.01945 292.8265 120.01945 C 292.95522 120.01945 293.0582 119.91646 293.0582 119.81348 C 293.0582 119.47877 296.32806 118.29441 298.07884 117.98545 C 301.55467 117.36753 303.048 117.34178 304.2581 117.85672 Z"/>
            </g>
            <g>
               <path d="M 102.84054 134.74665 C 102.68606 135.21009 102.50583 135.80227 102.40284 136.03399 C 102.29985 136.3172 102.42859 136.60042 102.86628 136.88363 C 103.48421 137.26984 103.56145 137.26984 104.46259 136.62617 C 105.00327 136.26571 105.54395 135.9825 105.64694 135.9825 C 106.13613 135.9825 105.82717 137.81052 104.82304 140.61693 C 104.25661 142.23898 103.66444 143.91252 103.5357 144.35022 C 103.1495 145.61181 103.27823 148.10926 103.76742 149.19062 C 104.28236 150.24624 105.80142 151.50784 106.34211 151.30187 C 106.93428 151.07014 106.96003 151.8683 106.41935 154.70045 C 105.69844 158.56248 105.26074 162.60473 105.44097 163.7376 C 105.54395 164.25253 105.67269 165.3339 105.77568 166.1063 C 105.9559 167.65111 106.72831 168.78397 109.2515 171.20417 C 109.92092 171.84785 110.41011 172.49152 110.33287 172.62025 C 110.17839 172.87772 108.17013 172.5945 107.83542 172.2598 C 107.68094 172.13106 107.39773 172.02807 107.19175 172.02807 C 106.98578 172.02807 106.59958 171.84785 106.34211 171.59038 C 105.9559 171.22992 105.77568 171.22992 105.28649 171.4874 C 104.95178 171.66762 104.46259 171.7706 104.17937 171.71911 C 103.79317 171.66762 103.71593 171.7706 103.76742 172.2083 C 103.81892 172.51726 103.71593 173.23818 103.5872 173.77886 C 103.43271 174.3453 103.25249 175.29792 103.20099 175.91585 C 102.7118 181.01372 102.48008 182.89324 102.2741 184.00036 C 102.14537 184.69552 101.96514 185.98286 101.86216 186.8325 C 101.78492 187.68215 101.55319 189.021 101.34722 189.81914 C 101.14124 190.6173 100.98676 192.00762 100.98676 192.88302 C 100.98676 193.7584 100.88378 194.65955 100.75504 194.89127 C 100.49757 195.38046 99.9054 199.9634 99.9054 201.5082 C 99.9054 204.16013 100.54907 207.7647 101.26998 209.15502 C 101.39871 209.4125 101.5017 209.7987 101.5017 210.03041 C 101.5017 210.69983 99.87965 210.31363 98.18036 209.258 C 97.3822 208.79457 96.14636 208.17664 95.42545 207.91917 C 94.47281 207.58446 94.03512 207.2755 93.80339 206.73482 C 93.62317 206.32287 93.08248 205.44748 92.61904 204.7523 C 92.1556 204.0829 91.61491 203.05302 91.46043 202.46084 C 91.17722 201.58545 91.20296 201.35373 91.56342 200.8388 C 91.79514 200.50408 91.97537 200.09213 91.97537 199.9119 C 91.97537 199.44846 90.81676 199.49995 90.43056 199.9634 C 90.25033 200.16937 89.88987 200.3496 89.63241 200.3496 C 89.37494 200.3496 89.11747 200.58132 89.01448 200.8388 C 88.93724 201.122 88.62828 201.43097 88.34506 201.5082 C 88.0876 201.6112 87.85587 201.76568 87.85587 201.8944 C 87.85587 201.9974 87.59841 202.15188 87.28944 202.22912 C 86.95473 202.30636 86.18233 202.56383 85.59015 202.7698 C 83.83937 203.43922 78.35529 203.56796 76.47577 203.00153 C 75.65187 202.7698 74.98245 202.51234 74.98245 202.4351 C 74.98245 202.15188 78.07207 198.49583 78.74149 197.95514 C 79.38516 197.46595 81.31618 194.99426 81.80537 194.04162 C 81.95985 193.7584 82.47478 192.31659 82.93823 190.82327 C 83.40167 189.32995 84.01959 187.42469 84.30281 186.5493 C 84.56028 185.69965 84.76625 184.87575 84.74051 184.74701 C 84.71476 184.61828 84.76625 184.33506 84.84349 184.1291 C 85.35843 182.91899 86.05359 179.70063 86.05359 178.59352 C 86.05359 177.89835 86.18233 176.55952 86.31106 175.63263 C 86.4398 174.70575 86.59428 172.92921 86.67152 171.66762 C 86.80025 169.4019 86.80025 169.4019 86.23382 169.58212 C 85.92486 169.68511 85.07521 169.89109 84.3543 170.07131 C 83.63339 170.27729 82.80949 170.53476 82.50053 170.71498 C 81.29043 171.35866 78.43253 170.81797 76.96496 169.63362 L 76.24405 169.06719 L 78.92172 167.3164 C 83.45316 164.38126 84.81775 162.8107 88.91149 155.85906 C 89.11747 155.47285 89.60666 154.10827 89.99286 152.79518 C 90.66228 150.45222 90.99699 149.80855 93.80339 145.7663 C 94.44707 144.8394 95.3482 143.39758 95.81165 142.54794 C 96.30084 141.6983 97.51094 140.02475 98.51507 138.8404 C 100.75504 136.21422 101.81066 134.79814 102.42859 133.63953 C 102.86628 132.86713 102.91778 132.81563 102.99502 133.33057 C 103.04651 133.63953 102.96927 134.2832 102.84054 134.74665 Z"/>
            </g>
            <g>
               <path d="M 221.66221 183.94886 C 220.19464 185.87988 219.47373 187.16722 219.06178 188.55755 C 218.54685 190.35983 218.54685 190.48856 219.11328 190.79752 C 219.47373 191.0035 219.96292 190.82327 221.25027 189.99937 C 224.03092 188.22284 227.12055 186.90975 228.48513 186.85826 C 229.15455 186.85826 229.72098 186.9355 229.72098 187.08998 C 229.74672 187.2187 229.58527 189.33036 229.51154 190.55882 C 229.58798 191.58655 229.74672 194.2476 230.31315 194.78828 C 230.54488 195.04575 231.1628 196.89952 231.652 198.18687 C 232.50164 200.3496 232.7076 200.6843 234.69012 202.56383 C 236.59538 204.4176 237.5995 205.26725 239.50478 206.73482 C 240.68913 207.6617 242.90336 208.61434 244.31944 208.84606 C 245.09184 208.9748 246.25045 209.33525 246.84263 209.61846 C 247.821 210.0819 248.56767 210.15915 252.8674 210.26214 C 255.54506 210.31363 257.96526 210.4681 258.22273 210.59684 C 258.4802 210.72558 259.6903 211.31776 260.9004 211.90993 C 262.31648 212.5536 263.44934 213.326 263.99002 213.91819 C 265.38035 215.5145 266.2815 217.13654 266.2815 218.01193 C 266.2815 219.531 265.71506 221.565 264.9684 222.8781 C 264.55645 223.57325 264.093 224.34566 263.99002 224.55163 C 263.8613 224.7576 263.3721 225.736 262.8829 226.71437 C 262.41947 227.69275 261.75005 228.79986 261.3896 229.16032 C 261.02914 229.52077 260.15374 230.5249 259.43283 231.37455 C 258.73767 232.2242 257.86228 233.25407 257.47607 233.64027 C 257.11562 234.02647 256.3947 235.21083 255.87977 236.26645 C 255.36483 237.29632 254.77265 238.30045 254.56668 238.45493 C 254.3607 238.63516 254.18048 238.86688 254.18048 238.9956 C 254.18048 239.12435 253.82002 239.71652 253.38232 240.33445 C 252.79015 241.1841 252.53268 241.905 252.35245 243.34683 C 252.06924 245.71554 251.6573 246.9514 250.96212 247.59506 C 250.36994 248.1615 249.93225 249.11412 249.67478 250.55594 C 249.49455 251.45708 249.26283 252.28098 247.7695 257.1214 C 247.33182 258.53746 246.97136 260.10802 246.97136 260.5972 C 246.97136 262.27076 246.2762 264.94843 245.60678 265.72083 L 244.98885 266.4675 L 244.80863 263.9958 C 244.7314 262.60547 244.47392 260.5972 244.26794 259.4901 C 243.88174 257.48184 243.72726 252.40972 243.98473 250.4272 C 244.06197 249.86078 244.2422 248.23873 244.42242 246.82265 C 244.70564 244.17073 245.7355 240.3602 246.43068 239.22733 C 247.71802 237.14184 250.13822 233.53728 250.93637 232.53315 C 251.4513 231.88948 251.86326 231.16857 251.86326 230.93685 C 251.86326 230.70513 251.96625 230.4219 252.12073 230.34467 C 252.24946 230.26743 252.6614 229.701 252.99612 229.10882 C 253.89726 227.564 254.38645 222.7236 253.79427 221.28178 C 253.2021 219.8657 251.91475 218.62986 251.03936 218.62986 C 250.6274 218.62986 249.88075 218.44963 249.34007 218.2179 C 248.33594 217.78021 244.98885 217.41976 240.66338 217.29102 C 238.83536 217.21378 237.3678 217.0078 235.64275 216.51862 C 234.30391 216.13242 232.68186 215.66897 232.0382 215.5145 C 231.39452 215.33426 230.08143 214.66485 229.0773 214.04692 C 227.35227 212.9398 224.05667 209.97892 224.05667 209.54122 C 224.05667 209.43824 223.92794 209.20651 223.7992 209.02629 C 223.10404 208.2024 222.2029 206.63183 221.45624 204.93254 C 221.01854 203.90266 220.52935 203.00153 220.42637 202.97578 C 220.29763 202.92428 220.19464 202.7183 220.19464 202.53808 C 220.19464 202.35785 219.85994 201.5082 219.42224 200.65856 C 219.0103 199.78317 218.64983 199.0365 218.64983 198.93352 C 218.64983 198.85628 218.39237 198.3671 218.05766 197.8264 C 217.41399 196.79654 216.9763 195.4577 216.71882 193.65542 C 216.61583 193.01175 216.35837 191.80165 216.1524 190.952 C 215.94642 190.10236 215.7662 188.66053 215.7662 187.78514 C 215.79193 186.0086 215.92067 185.80263 217.61996 185.03023 C 222.51186 182.7645 222.5891 182.73876 221.66221 183.94886 Z"/>
            </g>
            <g>
               <path d="M 118.9838 205.55046 C 119.78196 206.14264 120.65735 206.8893 120.94057 207.224 C 121.507 207.86768 125.575 209.72145 125.93545 209.51548 C 126.27016 209.28376 126.63062 209.92743 126.57912 210.64834 C 126.55338 211.0088 126.3989 212.78533 126.24442 214.6391 C 126.08993 216.46712 126.0127 219.01606 126.08993 220.3034 C 126.16718 221.565 126.29591 223.39302 126.3474 224.3714 C 126.45039 226.04495 126.75935 227.3323 127.32578 228.61963 C 127.66049 229.3148 127.2228 230.29318 125.93545 231.7865 C 125.21454 232.63614 124.15892 234.51566 124.15892 234.9791 C 124.15892 235.4683 122.22791 237.94 121.8417 237.94 C 121.60998 237.94 120.6831 237.63103 119.75621 237.27057 C 118.39163 236.70414 117.67072 236.5754 115.53373 236.54966 C 113.55122 236.52391 112.77882 236.6269 112.16089 236.9616 C 111.7232 237.19333 110.66758 237.4508 109.79218 237.5538 C 107.70669 237.73402 102.7118 240.10273 102.40284 241.05536 C 102.11962 241.905 100.6778 243.08936 99.9054 243.08936 C 98.10312 243.08936 97.74266 242.11098 98.56656 239.33032 C 99.28747 236.85862 101.45021 234.38693 103.9734 233.17682 C 105.44097 232.48166 109.71494 232.14695 112.34112 232.5074 C 114.76132 232.84212 115.405 232.71338 115.405 231.838 C 115.405 231.3488 116.82107 226.43115 117.51624 224.50014 C 118.18565 222.64637 118.00543 221.30753 116.9498 219.81421 C 116.51211 219.22204 116.04867 218.34664 115.91993 217.85745 C 115.25051 215.61748 114.86431 213.01705 115.01879 212.06441 C 115.3535 209.97892 116.25464 206.47735 116.5636 206.19413 C 116.71808 206.0139 116.9498 205.55046 117.0528 205.16426 C 117.13003 204.77806 117.28451 204.4691 117.3875 204.4691 C 117.46474 204.4691 118.18565 204.95829 118.9838 205.55046 Z"/>
            </g>
            <g>
               <path d="M 96.42957 239.5878 C 96.32658 240.02549 95.8374 240.51468 94.962 241.0811 C 94.24109 241.54455 92.79927 242.60017 91.76939 243.39832 C 90.73952 244.22222 89.76114 244.89164 89.63241 244.89164 C 89.50367 244.89164 89.40068 244.60842 89.40068 244.2737 C 89.40068 243.5528 92.38732 240.2572 93.05674 240.2572 C 93.28846 240.2572 93.52018 240.15422 93.57167 240.05123 C 93.67466 239.79376 96.1721 238.7639 96.37808 238.86688 C 96.48107 238.91837 96.48107 239.25308 96.42957 239.5878 Z"/>
            </g>
            <g>
               <path d="M 262.90866 245.04612 C 262.90866 245.87002 263.0889 247.38908 263.29486 248.47045 C 263.50083 249.55182 263.73256 251.94627 263.78405 253.80005 C 263.8613 255.67957 264.04152 257.4046 264.17025 257.68782 C 264.42772 258.12552 266.02402 263.8413 266.02402 264.22752 C 266.02402 264.3305 265.25162 264.3305 264.32473 264.25326 C 262.9344 264.15028 262.52245 264.20177 261.95602 264.63947 C 260.7974 265.4891 259.09812 266.3645 258.9179 266.21002 C 258.27422 265.5406 258.094 260.7517 258.66043 258.7177 C 258.8664 257.97103 259.09812 256.5807 259.17536 255.60232 C 259.27835 254.6497 259.43283 253.64556 259.56157 253.41384 C 259.6903 253.18212 259.99926 252.075 260.231 250.94215 C 260.4627 249.8093 260.74592 248.41896 260.9004 247.85253 C 261.2351 246.53944 262.47096 243.6043 262.70268 243.6043 C 262.80567 243.6043 262.8829 244.24797 262.90866 245.04612 Z"/>
            </g>
            <g>
               <path d="M 99.54494 248.13574 C 99.64793 248.8824 99.59643 249.47458 99.41621 249.68055 C 98.97851 250.22123 95.91464 252.35822 95.60567 252.35822 C 95.11648 252.35822 95.29671 251.07088 95.88889 250.22123 C 97.17623 248.34172 98.56656 247.00288 99.21023 246.9514 C 99.31322 246.9514 99.44195 247.49207 99.54494 248.13574 Z"/>
            </g>
            <g>
               <path d="M 271.68833 249.06263 C 273.07866 254.28924 273.61934 255.98853 274.3145 257.37886 C 275.1899 259.12964 276.0653 261.49835 276.0653 262.14202 C 276.0653 262.57972 274.34025 264.97418 274.0313 264.97418 C 273.9283 264.97418 273.6451 264.12453 273.38762 263.09466 C 273.13015 262.09053 272.7697 260.77744 272.56372 260.211 C 272.17752 259.0524 271.66258 256.37473 271.5596 254.80417 C 271.5081 254.23774 271.2249 252.38397 270.91592 250.71042 C 270.6327 249.01113 270.45248 247.46632 270.52972 247.26035 C 270.7872 246.61668 271.2249 247.31184 271.68833 249.06263 Z"/>
            </g>
            <g>
               <path d="M 251.29683 254.9844 C 251.70878 256.32324 252.17222 259.5416 252.01774 259.95354 C 251.9405 260.15952 251.70878 260.33974 251.47706 260.33974 C 250.85913 260.33974 249.4688 261.11215 249.0826 261.65283 C 248.90237 261.93605 248.56767 262.14202 248.3617 262.14202 C 247.8725 262.14202 247.8725 259.79906 248.38744 257.97103 C 248.5934 257.22438 248.90237 256.0915 249.05686 255.44784 C 249.23708 254.80417 249.67478 253.49108 250.03524 252.48696 L 250.70465 250.68468 L 250.88488 252.40972 C 250.96212 253.36235 251.1681 254.52096 251.29683 254.9844 Z"/>
            </g>
            <g>
               <path d="M 104.41109 260.41698 C 105.08051 260.67445 104.92603 261.39536 103.99914 262.50248 C 103.38122 263.2234 102.99502 263.4551 102.7118 263.35212 C 102.14537 263.14615 102.14537 261.75582 102.68606 260.46848 C 103.04651 259.61883 103.12375 259.5416 103.50995 259.8763 C 103.74168 260.08228 104.15363 260.33974 104.41109 260.41698 Z"/>
            </g>
            <g>
               <path d="M 117.54198 265.5406 C 117.92819 265.6951 118.23715 265.90106 118.23715 266.00405 C 118.23715 266.33876 116.6151 270.74147 116.40912 270.99894 C 116.28039 271.12767 116.02292 271.10192 115.7912 270.89595 C 115.45649 270.61273 115.37925 270.0978 115.43074 268.21828 C 115.45649 266.93094 115.58522 265.66934 115.71396 265.43762 C 115.91993 264.99992 116.07441 264.99992 117.54198 265.5406 Z"/>
            </g>
            <g>
               <g  id="outline-1">
                  <path
                        d="M 84.63752 90.20461 C 84.01959 91.54344 82.86099 92.3416 81.03296 92.7278 C 79.282175 93.08825 78.76724 93.62894 79.71987 94.04089 C 80.23481 94.29836 80.77549 94.29836 81.98559 94.06663 C 83.76213 93.73193 85.28119 92.80504 86.05359 91.56919 C 86.64577 90.59081 86.74876 89.38071 86.20808 89.38071 C 86.0021 89.38071 85.69314 89.32922 85.48716 89.25197 C 85.28119 89.17473 84.94648 89.50944 84.63752 90.20461 Z"
                        fill="black"/>
               </g>
            </g>
            <g>
               <g  id="outline-2">
                  <path
                        d="M 97.97438 109.25727 C 96.50681 109.51474 96.27509 109.92669 96.94451 110.87932 C 97.25347 111.26553 97.53669 111.31702 98.95276 111.18828 C 100.90952 111.00806 103.45846 111.523 105.00327 112.42413 C 105.77568 112.88758 106.11039 113.29953 106.34211 114.04618 C 107.06302 116.38915 106.31636 118.42315 104.10213 120.22543 L 102.7118 121.35829 L 100.36884 121.2553 L 98.02588 121.17806 L 97.94864 121.87322 C 97.8199 122.9031 98.61805 123.21206 101.1155 123.05758 C 103.07226 122.92884 104.84879 122.36241 104.84879 121.84748 C 104.84879 121.71874 105.28649 121.33254 105.85292 120.94634 C 106.96003 120.17393 107.166 119.81348 107.80968 117.41902 C 108.24737 115.71973 108.24737 115.66824 107.70669 114.09768 C 107.01152 112.14092 106.72831 111.70322 105.59545 110.93082 C 104.43684 110.15841 103.99914 109.97818 102.01664 109.56623 C 101.08975 109.386 100.11137 109.18003 99.82816 109.10279 C 99.54494 109.0513 98.6953 109.10279 97.97438 109.25727 Z"
                        fill="black"/>
               </g>
            </g>
            <g>
               <g  id="outline-3">
                  <path
                        d="M 81.57364 115.51375 C 81.03296 116.33765 81.05871 116.44064 81.83111 117.05856 C 82.78375 117.83097 83.27294 119.32429 82.78375 120.01945 C 82.57777 120.30267 82.19157 120.53439 81.90835 120.53439 C 80.51802 120.53439 78.303795 122.1307 76.93921 124.1132 C 76.01233 125.42629 75.18843 129.10809 75.31716 131.24508 C 75.42015 132.97011 75.47164 133.0731 76.63025 134.51492 C 77.35116 135.41606 77.50564 135.51905 78.38104 135.39032 C 80.2863 135.13285 81.52215 134.2832 83.09271 132.14621 C 85.10096 129.4428 85.6159 127.82075 85.46142 124.85986 C 85.38418 123.62401 85.15246 122.31092 84.92073 121.87322 C 84.66327 121.38403 84.58602 120.79186 84.68901 120.19968 C 84.97223 118.3459 83.91661 115.77122 82.57777 115.17905 C 82.06283 114.94732 81.90835 114.99882 81.57364 115.51375 Z"
                        fill="black"/>
               </g>
            </g>
            <g>
               <path d="M 83.86511 123.2893 C 84.3543 123.85573 84.48304 124.31917 84.50878 125.29755 C 84.50878 126.01847 84.3543 126.84237 84.14833 127.12558 C 83.94235 127.4088 83.68489 128.07821 83.60764 128.6189 C 83.27294 130.36968 79.95159 133.40781 78.35529 133.40781 C 77.55714 133.40781 77.11944 132.45518 76.96496 130.39543 C 76.86197 129.03085 76.91347 128.33568 77.19668 127.82075 C 77.37691 127.4088 77.55714 126.79087 77.55714 126.43042 C 77.55714 126.04421 77.94334 125.29755 78.53552 124.62814 C 80.08033 122.80011 80.38929 122.61988 81.88261 122.59414 C 83.04121 122.59414 83.32443 122.69712 83.86511 123.2893 Z"/>
            </g>
            <g>
               <g  id="outline-4">
                  <path
                        d="M 260.231 183.79438 C 259.6388 184.72127 258.29997 186.03436 257.5533 186.42056 C 257.19286 186.62653 256.4977 186.67803 255.6223 186.57504 C 254.15473 186.39481 253.56255 186.70377 254.20622 187.34745 C 254.66967 187.78514 256.9354 187.91388 257.78503 187.55342 C 258.1455 187.39894 258.94364 186.72952 259.5873 186.08585 C 260.231 185.44218 260.9519 184.82425 261.20936 184.74701 C 261.7243 184.59253 261.80154 183.87162 261.3381 183.40818 C 260.9004 182.97048 260.72017 183.02198 260.231 183.79438 Z"
                        fill="black"/>
               </g>
            </g>
            <g>
               <g  id="outline-5">
                  <path
                        d="M 276.7347 192.05912 C 276.65747 192.1621 276.8892 192.85727 277.2239 193.55243 C 277.58436 194.2476 277.86757 195.02 277.86757 195.25173 C 277.86757 195.48345 277.9963 195.76666 278.1508 195.86965 C 278.35676 195.99838 278.40826 196.6163 278.30527 197.80066 C 278.22803 198.77904 278.20228 199.5772 278.25377 199.5772 C 278.51124 199.5772 279.1549 197.9809 279.1549 197.33722 C 279.1549 196.6163 278.25377 193.089 277.89332 192.36808 C 277.6616 191.93038 276.9407 191.7244 276.7347 192.05912 Z"
                        fill="black"/>
               </g>
            </g>
            <g>
               <g  id="outline-6">
                  <path
                        d="M 98.02588 155.26688 C 97.66542 155.42136 97.3822 156.01354 97.0475 157.24939 C 96.76428 158.22777 96.45532 159.30913 96.32658 159.66959 C 96.2236 160.03005 95.99188 161.2144 95.8374 162.32151 C 95.70866 163.40288 95.3997 164.74172 95.19372 165.2824 C 94.962 165.79734 94.55005 167.44514 94.29258 168.93845 C 94.03512 170.43177 93.57167 172.56876 93.26271 173.70162 C 92.9795 174.83448 92.61904 176.17332 92.4903 176.6625 C 92.36157 177.1517 92.07836 178.00134 91.84663 178.51628 C 91.40894 179.59765 91.3317 181.45142 91.7179 181.68314 C 92.1041 181.91486 92.02686 182.40405 91.61491 182.24957 C 91.35744 182.14658 91.25446 182.3268 91.25446 182.99623 C 91.25446 183.48542 91.07423 184.15484 90.84251 184.5153 C 90.61079 184.85 90.43056 185.41643 90.43056 185.7254 C 90.43056 186.0601 90.25033 186.78101 90.0701 187.3732 C 89.86413 187.93962 89.65815 188.76352 89.60666 189.17547 C 89.55517 189.58742 89.34919 190.0766 89.11747 190.2311 C 88.57679 190.64304 87.34094 192.72854 87.34094 193.21773 C 87.34094 193.70692 87.85587 193.88714 88.52529 193.65542 C 88.83425 193.52669 89.2462 192.96026 89.52942 192.18785 C 89.76114 191.51843 90.30182 190.25684 90.68803 189.4072 C 91.09998 188.55755 91.61491 187.19296 91.87238 186.36907 C 92.36157 184.82425 92.67053 184.59253 93.3142 185.3392 C 94.42132 186.60079 94.93626 189.27846 94.52431 191.46694 C 94.36982 192.23935 95.45119 192.31659 95.91464 191.54418 C 96.63555 190.41132 96.68704 188.63479 96.06912 186.5493 C 95.57993 184.9015 95.29671 184.4123 94.11236 183.2022 C 93.33995 182.4298 92.77352 181.70889 92.85076 181.6059 C 92.928 181.47717 93.03099 180.85924 93.10823 180.24132 C 93.18547 179.59765 93.44294 178.64501 93.64891 178.10433 C 94.1896 176.84273 95.70866 171.02395 96.06912 168.88696 C 96.2236 167.93433 96.58405 166.41526 96.86727 165.53987 C 97.12474 164.63873 97.58818 162.8107 97.8714 161.44612 C 98.15461 160.10729 98.61805 158.305 98.90127 157.4811 C 99.75091 155.1124 99.54494 154.64896 98.02588 155.26688 Z"
                        fill="black"/>
               </g>
            </g>
            <g>
               <g  id="outline-7">
                  <path
                        d="M 79.79711 125.42629 C 79.53964 125.68376 79.20493 126.40467 79.0762 127.0226 C 78.84448 128.00097 78.87023 128.1812 79.38516 128.5674 C 80.10607 129.15958 80.77549 129.15958 81.41916 128.51591 C 81.98559 127.94948 82.11433 126.25019 81.67663 125.40054 C 81.34192 124.78262 80.41504 124.78262 79.79711 125.42629 Z"
                        fill="black"/>
               </g>
            </g>
         </g>
      </g>
   </g>
</svg>