<?xml version="1.0" encoding="UTF-8" standalone="no"?>
<svg
   xmlns:dc="http://purl.org/dc/elements/1.1/"
   xmlns:cc="http://creativecommons.org/ns#"
   xmlns:rdf="http://www.w3.org/1999/02/22-rdf-syntax-ns#"
   xmlns:svg="http://www.w3.org/2000/svg"
   xmlns="http://www.w3.org/2000/svg"
   height="511.24313"
   width="516.74878"
   version="1.1"
   id="svg2985">
  <metadata
     id="metadata2991">
    <rdf:RDF>
      <cc:Work
         rdf:about="">
        <dc:format>image/svg+xml</dc:format>
        <dc:type
           rdf:resource="http://purl.org/dc/dcmitype/StillImage" />
        <dc:title></dc:title>
        <dc:creator>
          <cc:Agent>
            <dc:title>https://commons.wikimedia.org/wiki/User:Elisabeth_stilton</dc:title>
          </cc:Agent>
        </dc:creator>
      </cc:Work>
    </rdf:RDF>
  </metadata>
  <defs
     id="defs2989" />
  <g
     transform="matrix(0.86831449,0,0,0.86831449,115.94604,13.48456)"
     id="g3007">
    <path
       style="fill:#ff0000;stroke:#808080;stroke-width:2.30331302"
       d="m 104.30952,569.5616 c 1.65,-1.35393 4.575,-2.97418 6.5,-3.60055 5.49343,-1.78749 12.32288,-5.45364 14.3611,-7.70924 1.69622,-1.87712 1.75663,-2.65949 0.68191,-8.83097 -0.64855,-3.72426 -2.12564,-9.03358 -3.28242,-11.7985 -2.82915,-6.76216 -11.31549,-19.64736 -17.89147,-27.16544 C 78.632144,480.67886 63.582824,464.69344 41.818264,443.68649 13.323064,416.18319 6.8912143,406.95614 -6.6481557,374.1571 -15.776966,352.04262 -21.887036,332.94011 -24.188216,319.3199 c -1.29234,-7.64911 -2.7879,-12.89749 -4.65028,-16.31929 -3.53461,-6.49425 -13.61727,-15.90957 -20.80099,-19.42423 -6.9739,-3.41202 -12.33664,-3.11675 -27.05099,1.48942 -14.15201,4.43013 -20.75315,4.87711 -26.500004,1.79437 -4.63754,-2.48768 -8.57833,-7.2367 -9.6941,-11.68226 -0.44425,-1.77004 0.16859,-3.97814 2.02879,-7.30992 1.46592,-2.62559 2.66531,-5.4393 2.66531,-6.25267 0,-1.06453 1.2048,-0.62965 4.30014,1.55214 5.987654,4.22049 13.809154,5.02146 19.959754,2.04401 13.32726,-6.45162 5.9361,-25.0496 -9.97509,-25.09979 -4.42283,-0.014 -5.75362,0.45628 -8.758924,3.09497 -1.94904,1.71128 -3.81348,4.18628 -4.1432,5.5 -0.79026,3.14865 -1.67822,3.01449 -4.8286,-0.72952 -2.10273,-2.49896 -3.55998,-3.19983 -7.3389,-3.52973 -8.92711,-0.77931 -13.57338,-6.64763 -13.39829,-16.9223 0.0598,-3.51203 0.78146,-7.68628 1.60359,-9.2761 1.50671,-2.91365 7.52967,-8.56468 17.48019,-16.40073 3.97915,-3.13359 5.71159,-5.30589 6.58193,-8.25304 3.76119,-12.73623 13.876624,-22.56586 29.687954,-28.84917 3.66881,-1.45796 8.29576,-2.65083 10.28212,-2.65083 7.56044,0 13.51337,-4.69691 22.24012,-17.54762 4.45768,-6.56422 11.48399,-13.45238 13.72219,-13.45238 0.88842,0 1.65149,1.57068 2.06475,4.25 0.98969,6.41648 3.47107,14.75 4.39195,14.75 0.44869,0 5.94862,-4.71897 12.22206,-10.48659 11.0748203,-10.18188 20.9472603,-16.80413 22.59695,-15.1576 0.44512,0.44426 0.95938,10.6334 1.14281,22.64254 l 0.33349,21.83479 7.16651,-0.52793 c 6.1499,-0.45305 18.14445,0.83941 19.39491,2.08986 0.22152,0.22153 -0.94447,2.81076 -2.59109,5.75386 -1.64663,2.94309 -3.28599,6.95736 -3.64303,8.9206 l -0.64916,3.56954 9.84129,1.61543 c 5.41271,0.88849 11.09066,2.09045 12.61768,2.67102 2.35977,0.89718 2.61921,1.34926 1.72894,3.01275 -0.5761,1.07644 -2.35894,2.73189 -3.96188,3.67877 -3.3359,1.97056 -5.59166,5.58418 -4.78998,7.67331 0.64367,1.67737 5.09839,2.70965 11.69334,2.70965 3.59254,0 5.77886,0.71443 9.125,2.9818 2.42026,1.63999 5.14069,2.98999 6.04539,3 0.9047,0.01 4.96115,-2.3443 9.01435,-5.2318 14.741609,-10.50195 22.692856,-15.75 23.862566,-15.75 0.7754,0 0.97461,0.87806 0.56735,2.50069 -1.22364,4.87538 -1.85004,11.49931 -1.08744,11.49931 0.42547,0 4.64914,-3.05587 9.38592,-6.79082 14.77492,-11.65 24.85841,-17.74637 32.3927,-19.58428 l 2.78036,-0.67824 -2.66922,5.26746 c -1.46808,2.8971 -3.03696,6.54966 -3.4864,8.11679 -1.05541,3.67997 -1.12192,3.7073 16.6217,-6.82987 14.30766,-8.4967 32.4675,-17.84007 33.21712,-17.09045 0.51302,0.51302 -2.03355,5.45381 -5.26629,10.21752 -2.50626,3.69317 -2.63793,5.57706 -0.2518,3.6025 2.44541,-2.02362 19.76241,-9.17544 32.96764,-13.61545 7.31859,-2.46073 14.09403,-4.77896 15.05653,-5.1516 2.92172,-1.13119 2.0804,2.16117 -1.60568,6.28356 -3.34671,3.74284 -6.10306,8.1421 -5.47534,8.73888 0.18206,0.17309 5.28102,-0.53645 11.33102,-1.57677 10.52686,-1.81012 30.58758,-2.58033 33.91821,-1.30224 0.86999,0.33384 1.58179,0.96805 1.58179,1.40934 0,0.44129 -2.71557,4.05258 -6.0346,8.02508 -3.31903,3.9725 -5.84075,7.41657 -5.60383,7.65349 0.23692,0.23692 3.1722,-0.0663 6.52284,-0.67394 6.50178,-1.179 32.41061,-1.48699 36.60167,-0.4351 3.14667,0.78977 3.11234,1.11997 -0.56287,5.41414 l -2.99551,3.5 15.02364,0.57083 c 8.26301,0.31395 15.3184,0.86558 15.67865,1.22583 0.98968,0.98968 -1.33043,3.33662 -4.66315,4.71707 -1.63176,0.6759 -2.96684,1.60393 -2.96684,2.06228 0,0.93781 1.74063,1.26815 18,3.4161 19.06892,2.51911 22.4048,4.1079 13.94614,6.64217 -7.33666,2.19812 -7.04303,3.48763 1.68076,7.38122 4.3302,1.93265 9.2231,4.24501 10.8731,5.13857 3.13399,1.69724 9.5,7.29264 9.5,8.35004 0,0.33647 -1.9125,1.0357 -4.25,1.55383 -2.65626,0.58879 -4.25,1.49588 -4.25,2.41892 0,0.81227 3.10501,3.79269 6.90002,6.62315 6.45866,4.81712 10.52623,8.91247 10.57774,10.64999 0.0122,0.4125 -1.04766,0.75 -2.35532,0.75 -3.5386,0 -4.76131,2.02898 -3.62028,6.00754 1.11497,3.88765 2.44849,4.95592 6.21304,4.97715 8.3305,0.047 15.97975,-15.12357 21.92574,-43.48469 3.63916,-17.35805 4.45509,-30.90801 2.9506,-49 -2.58623,-31.10026 -11.45208,-59.91941 -24.88844,-80.90184 C 385.08986,93.444313 373.91051,80.382463 365.99232,73.459913 350.1812,59.636883 336.01566,51.674033 309.5421,41.727663 283.56184,31.966634 276.65781,27.598665 271.62886,17.74112 c -2.55851,-5.015089 -3.49922,-15.0558101 -1.87239,-19.9851261 1.69254,-5.128462 8.19419,-10.4094159 13.86195,-11.2593489 5.67559,-0.851107 15.60619,0.922891 22.68107,4.0517359 l 5.39531,2.386062 0.30736,-3.0940649 0.30736,-3.094066 6.13678,5.1166969 c 3.37523,2.814184 7.87523,7.81766396 10,11.118845 2.12477,3.301181 4.20072,6.027176 4.61322,6.057766 0.4125,0.03059 0.75,-1.772343 0.75,-4.006518 V 0.97096686 l 4.48579,3.22144704 c 6.40054,4.596523 15.1874,13.5490361 17.71852,18.0525621 1.19019,2.117644 2.53111,3.850262 2.97983,3.850262 0.44872,0 0.81586,-2.113275 0.81586,-4.696167 v -4.696167 l 3.58753,3.446167 c 5.25011,5.043241 12.71777,14.629857 17.73429,22.766422 4.38862,7.11812 5.67818,7.91597 5.67818,3.51308 0,-1.28333 0.36172,-2.33333 0.80383,-2.33333 2.70749,0 14.17713,15.72471 16.80985,23.04605 1.82585,5.07754 3.38632,6.46596 3.38632,3.01296 0,-5.25346 4.4297,-1.07765 11.23251,10.58873 3.84998,6.60246 10.76749,23.092207 10.76749,25.667217 0,2.75819 1.79873,2.78884 2.71294,0.0462 0.8517,-2.5551 0.97941,-2.43745 3.52098,3.24377 1.45047,3.24227 3.62147,9.83254 4.82444,14.64504 1.20297,4.8125 2.56613,8.75 3.02924,8.75 0.46312,0 1.3237,-0.9 1.9124,-2 2.30164,-4.30066 3,-1.74003 3,11 0,7.15 0.3949,13 0.87756,13 0.48265,0 1.43775,-0.675 2.12244,-1.5 0.68469,-0.825 1.92353,-1.5 2.75298,-1.5 1.3123,0 1.44929,2.87124 1.0552,22.1173 -0.37892,18.50502 -0.23691,21.82193 0.86947,20.30887 0.72729,-0.99462 1.32235,-2.1724 1.32235,-2.61728 0,-0.44488 0.66375,-0.80887 1.475,-0.80887 1.05759,0 1.34056,0.77822 0.99993,2.75 -0.26129,1.5125 -1.15258,6.8 -1.98063,11.75 -0.82805,4.95 -2.16145,11.45407 -2.9631,14.4535 -1.5919,5.9562 -1.39062,7.00465 0.9688,5.0465 4.30351,-3.5716 1.2168,3.96426 -8.03025,19.60499 -2.49271,4.21624 -4.30758,7.89052 -4.03304,8.16505 0.27454,0.27454 1.87802,-0.072 3.56329,-0.77004 1.68527,-0.69806 3.23952,-1.09381 3.45389,-0.87944 0.46828,0.46828 -3.90442,11.17172 -14.45364,35.37944 -19.92327,45.71872 -35.75584,74.91095 -55.80582,102.89527 -10.77829,15.04355 -15.83598,21.18429 -29.73692,36.10473 -26.96578,28.94344 -39.21252,42.73387 -47.7339,53.75068 -21.49901,27.79487 -34.47674,53.42713 -41.26347,81.49932 l -2.71979,11.25 h -34.95351 c -27.51579,0 -34.86587,-0.26599 -34.54166,-1.25 0.85605,-2.59825 8.91532,-7.63104 17.93957,-11.20277 17.3564,-6.86953 21.50176,-11.67684 23.7541,-27.54723 2.06662,-14.5618 6.86945,-37.02046 14.18093,-66.31187 3.86984,-15.50347 8.52168,-34.61493 10.3374,-42.46992 l 3.30132,-14.28178 -3.69912,-5.71822 c -4.33443,-6.7003 -12.09557,-13.95133 -19.38232,-18.10838 -6.39666,-3.64926 -18.57146,-8.29313 -19.78147,-7.5453 -0.49258,0.30443 -0.89559,2.97042 -0.89559,5.92443 v 5.37093 l -5.81095,-2.3612 c -9.42373,-3.82921 -21.2396,-5.82264 -29.77322,-5.02297 -4.07136,0.38152 -7.70308,1.18004 -8.07047,1.77449 -0.36739,0.59444 0.50119,2.01883 1.93017,3.1653 1.42898,1.14647 3.02289,3.20949 3.54201,4.58449 l 0.94386,2.5 h -16.6307 c -13.73015,0 -17.45915,0.31964 -21.3807,1.83271 -2.6125,1.00799 -4.75,2.44169 -4.75,3.18601 0,0.74432 1.8,2.36497 4,3.60144 5.84266,3.28375 5.1131,4.49645 -3.12034,5.18671 -4.38198,0.36737 -8.90084,1.48075 -11.75,2.89504 -8.874,4.40492 -8.02796,11.51729 3.84199,32.29809 3.7699,6.6 8.53875,15.825 10.59744,20.5 5.36516,12.18355 23.71591,64.66411 27.31295,78.11119 2.5731,9.6192 6.11796,27.01324 6.11796,30.0198 0,0.47796 -16.0875,0.85283 -35.75,0.83305 l -35.75,-0.036 3,-2.4617 z"
       id="path3005" />
    <path
       style="fill:#ffffff;stroke:#808080"
       d="m -56.757146,252.22148 c -19.4958,-17.55491 -24.27032,-21.36102 -29.05272,-23.16006 -2.58148,-0.9711 -2.36139,-0.54761 2.11939,4.07811 5.02686,5.18946 26.58462,21.20441 27.41949,20.36955 0.24595,-0.24595 0.0272,-0.82537 -0.48616,-1.2876 z"
       id="path3003" />
    <path
       style="fill:#ffffff;stroke:#808080"
       d="m -39.632916,238.18837 c -0.30826,-0.49878 -5.62232,-3.03055 -11.80902,-5.62615 -6.1867,-2.59561 -11.69854,-5.0635 -12.24854,-5.48419 -0.55,-0.42069 -4.20245,-2.38892 -8.11656,-4.37385 -6.91185,-3.50514 -11.69875,-4.52582 -12.80802,-2.73098 -1.07477,1.73901 7.35206,6.01563 22.4961,11.41675 23.77153,8.47812 23.46731,8.38615 22.48604,6.79842 z"
       id="path3001" />
    <path
       style="fill:#ffffff;stroke:#808080"
       d="m -62.690476,208.90415 c 6.6,-1.13468 12.9,-2.4019 14,-2.81603 2.69864,-1.01601 -23.24211,-0.12315 -31.89709,1.09787 -7.83357,1.10514 -8.60291,1.42437 -8.60291,3.56975 0,1.30932 1.09586,1.44188 7.25,0.87697 3.9875,-0.36603 12.65,-1.59388 19.25,-2.72856 z"
       id="path2999" />
    <path
       style="fill:#ffffff;stroke:#808080"
       d="m -58.732666,197.9593 c 1.30758,-1.28444 -6.57656,-5.02057 -11.68973,-5.53951 -4.40246,-0.44682 -5.71994,-0.17686 -8.01808,1.64296 -4.87325,3.85897 -3.66034,4.53248 8.16251,4.53248 5.99385,0 11.18923,-0.28617 11.5453,-0.63593 z"
       id="path2995" />
  </g>
</svg>
