<?xml version="1.0" encoding="UTF-8" standalone="no"?>
<svg
   version="1.1"
   viewBox="36 63 283.5 294.752"
   width="283.5"
   height="294.752"
   id="svg31"
   xmlns="http://www.w3.org/2000/svg"
   xmlns:svg="http://www.w3.org/2000/svg"
   xmlns:rdf="http://www.w3.org/1999/02/22-rdf-syntax-ns#"
   xmlns:cc="http://creativecommons.org/ns#"
   xmlns:dc="http://purl.org/dc/elements/1.1/">
  <defs
     id="defs1" />
  <g
     stroke-opacity="1"
     fill="none"
     fill-opacity="1"
     stroke="none"
     stroke-dasharray="none"
     id="g29"
     transform="translate(-4.5,-1.12376)">
    <g
       id="g27">
      <path
         d="m 66.7031,188.385 c 0.7639,-0.839 2.6845,-2.293 3.584,-2.893 2.7452,-1.733 3.3232,-1.733 2.1673,0 -0.3909,0.652 -4.1621,2.99 -5.5349,3.443 0.049,0.732 -0.1438,2.125 -0.5335,3.782 -1.0114,5.49 1.7338,5.779 9.1026,0.722 6.6464,-4.623 9.2472,-4.479 13.7262,0.145 3.0343,3.323 3.4677,4.912 3.3232,14.737 0,6.069 -0.8669,13.582 -1.8783,16.616 -3.1787,9.536 -2.4563,20.951 2.0228,30.631 2.3118,4.913 4.1901,11.993 4.4791,16.183 0.4335,7.658 5.6354,28.753 7.8024,31.498 3.179,4.046 4.19,21.528 1.589,26.441 -1.445,2.745 -9.2469,6.357 -17.9161,8.236 -2.8897,0.578 -4.7681,2.311 -6.2129,5.779 -1.1559,2.745 -2.0228,5.346 -2.0228,5.635 0,1.59 8.6692,5.202 10.5475,4.335 1.1559,-0.434 4.3346,0.578 6.9353,2.167 2.89,1.734 7.369,3.034 10.692,3.034 5.057,0 6.646,-1.011 12.426,-6.935 3.612,-3.757 7.658,-8.525 8.958,-10.837 4.335,-6.646 8.091,-25.429 9.103,-43.635 0.867,-16.904 1.011,-17.627 6.646,-27.019 10.259,-17.338 28.608,-29.764 41.323,-27.885 3.901,0.578 6.069,1.589 6.069,3.034 0,1.156 4.334,4.19 9.825,6.646 11.848,5.78 13.437,8.669 14.882,26.73 0.578,8.958 2.023,15.316 4.045,19.65 3.324,6.791 12.571,17.194 19.362,21.673 6.357,4.19 4.479,12.571 -2.746,12.571 -4.623,0 -10.258,5.057 -12.136,10.981 -2.168,6.646 -0.289,8.813 8.669,9.825 3.612,0.433 8.524,1.156 10.836,1.589 2.456,0.434 7.947,0.867 12.282,1.156 7.802,0.433 8.091,0.433 14.593,-6.213 7.369,-7.513 10.114,-14.738 10.403,-27.741 0.144,-8.67 0.722,-7.658 -15.46,-31.787 l -7.08,-10.548 v -15.46 c -0.145,-15.316 -0.145,-15.316 6.502,-28.897 3.612,-7.369 10.258,-18.206 14.593,-24.13 6.646,-8.958 7.658,-11.269 6.357,-13.437 -1.445,-2.167 -0.433,-3.612 6.647,-9.969 8.524,-7.514 10.403,-10.837 5.346,-9.247 -4.335,1.3 -3.468,-1.301 1.878,-6.069 4.19,-3.757 9.681,-10.836 9.681,-12.715 0,-0.433 -1.012,-0.722 -2.168,-0.722 -1.156,0 -2.167,0.578 -2.167,1.3 0,0.723 -1.156,1.734 -2.456,2.168 -2.746,1.155 0.722,-3.324 8.813,-11.126 4.624,-4.479 4.335,-6.502 -0.722,-3.901 l -3.179,1.734 2.746,-4.046 c 5.634,-8.236 7.513,-14.593 4.045,-13.871 -2.89,0.578 -2.601,-0.144 2.312,-7.946 4.768,-7.514 5.49,-10.548 2.167,-10.548 -1.878,0 -1.878,-0.722 -0.144,-5.49 2.6,-6.936 4.045,-14.7379 2.6,-14.7379 -0.722,0 -1.878,0.7224 -2.889,1.7338 -2.168,2.1673 -2.168,0.7224 0.433,-8.9582 2.312,-8.8136 1.879,-10.2585 -1.878,-6.7908 -3.757,3.4676 -4.624,3.0342 -4.624,-1.7339 0,-6.0684 -1.589,-13.1482 -3.034,-13.1482 -0.722,0 -1.734,2.6007 -2.167,5.9239 -1.012,6.0684 -3.901,8.6692 -6.791,5.7795 -3.034,-3.0342 -3.757,-1.5894 -1.589,3.4676 3.901,9.3917 1.155,17.0495 -4.48,12.2814 -1.733,-1.4449 -2.167,-1.3004 -2.167,0.8669 0.145,1.5894 1.012,4.3346 2.167,6.3574 2.168,3.6125 2.89,13.0035 1.156,13.0035 -0.433,0 -2.022,-1.011 -3.467,-2.311 -1.59,-1.445 -2.746,-1.734 -3.468,-0.723 -0.433,0.867 -0.289,1.589 0.578,1.589 1.734,0 5.924,13.293 5.924,19.073 0,2.456 -0.723,4.045 -2.023,4.045 -2.456,0 -5.49,-3.467 -4.19,-4.768 0.433,-0.578 -0.144,-1.011 -1.445,-1.011 -3.034,0 -3.034,0.867 -0.289,8.669 1.156,3.323 2.167,8.091 2.167,10.403 0,4.046 -0.289,4.19 -4.479,3.323 -4.19,-1.011 -4.334,-0.867 -2.745,2.168 1.734,3.323 1.445,17.916 -0.433,19.794 -0.578,0.578 -1.879,0.145 -2.746,-0.722 -1.011,-1.012 -2.6,-1.734 -3.612,-1.734 -1.445,0 -1.734,2.312 -1.011,10.114 0.722,7.224 0.578,10.114 -0.723,10.114 -0.866,0 -2.022,-2.023 -2.6,-4.335 -1.59,-8.38 -5.78,-2.456 -6.069,8.814 -0.144,5.346 -3.612,9.97 -7.658,9.97 -1.444,0 -3.178,-2.746 -4.623,-7.369 -2.601,-7.947 -7.658,-16.761 -11.559,-19.939 -1.445,-1.301 -2.312,-4.19 -2.312,-8.236 0,-5.924 -1.589,-8.091 -3.612,-4.913 -1.3,2.023 -7.947,1.734 -8.091,-0.433 -0.145,-0.867 -0.434,-2.745 -0.578,-3.901 -0.145,-1.156 -0.434,-3.034 -0.578,-4.046 -0.145,-1.445 -0.867,-1.445 -3.034,-0.289 -3.757,2.023 -5.78,0.723 -5.78,-3.756 0,-4.191 -1.589,-4.479 -5.057,-0.578 -3.901,4.334 -8.814,3.323 -8.38,-1.879 0.144,-2.6 -0.434,-3.901 -1.878,-3.901 -1.156,0 -2.023,0.867 -2.023,1.879 0,2.889 -9.103,11.125 -12.426,11.125 -1.445,0 -3.612,-1.3 -4.624,-2.89 -2.167,-3.612 -4.623,-2.456 -4.623,2.023 0,3.323 -4.913,10.981 -7.224,10.981 -0.578,0 -2.168,-2.312 -3.468,-5.057 -3.179,-6.502 -5.202,-6.357 -5.202,0.289 0,7.08 -4.045,13.437 -10.692,17.049 -4.768,2.601 -5.635,2.746 -9.247,0.723 -3.901,-2.167 -5.346,-4.624 -17.916,-30.92 -3.468,-7.08 -8.669,-15.749 -11.848,-19.217 l -5.635,-6.357 4.624,-4.768 c 2.456,-2.457 4.479,-6.069 4.479,-7.803 0,-1.734 -0.289,-3.178 -0.578,-3.178 -0.289,0 -2.89,2.311 -5.635,5.057 -6.936,6.935 -9.681,6.646 -9.681,-0.723 0,-3.179 -0.578,-5.779 -1.445,-5.779 -0.7222,0 -1.4446,0.578 -1.4446,1.3 0,0.867 -3.4677,3.179 -7.5133,5.491 -4.1901,2.167 -8.2357,5.49 -9.1026,7.368 -0.867,1.879 -3.4677,3.757 -6.0685,4.479 -7.9467,2.312 -16.1825,10.115 -18.0608,17.194 -1.1559,4.768 -3.3232,7.803 -9.2471,12.86 -4.1901,3.612 -8.0913,7.657 -8.5247,8.958 -0.4335,1.156 0,4.912 1.0114,8.38 1.4448,5.057 2.4562,6.213 6.2129,7.08 2.3118,0.578 4.7681,1.589 5.346,2.456 0.5779,1.012 1.5894,1.012 3.1787,-0.289 1.1559,-1.011 2.8897,-1.445 3.7567,-0.867 0.7224,0.434 1.4448,0.145 1.4448,-0.578 0,-0.867 1.1559,-1.589 2.6008,-1.589 4.0456,0.144 -3.7567,5.346 -9.5361,6.502 -5.346,1.011 -7.2244,4.045 -4.6236,7.224 2.4563,3.034 4.6236,2.745 10.692,-1.445 2.8897,-2.023 5.635,-3.612 5.9239,-3.612 0.01,0 0.019,0 0.028,0 z M 263.02,331.382 v 0 c -0.433,1.445 -0.277,-2.703 -0.277,-5.015 0,-2.456 -0.156,-5.794 0.277,-4.927 0.289,1.011 1.482,4.665 1.193,5.965 z"
         fill="#000000"
         id="path7" />
      <path
         d="m 315.625,87.964 c 1.445,-2.6007 1.59,-2.6007 1.734,-0.2889 0,1.4448 -1.011,4.9125 -2.167,7.8022 -2.745,6.5017 -2.745,6.6467 0.578,4.7677 1.589,-0.7221 3.178,-1.4445 3.612,-1.4445 1.878,0 0.722,4.7685 -2.745,11.4145 -3.468,7.08 -3.468,9.247 0.144,7.802 3.034,-1.156 2.456,0.578 -2.456,8.669 -4.046,6.647 -4.335,7.514 -2.023,9.103 2.167,1.589 2.023,2.167 -1.3,7.513 -2.023,3.179 -4.479,6.213 -5.491,6.647 -1.445,0.722 -1.445,1.011 0,1.734 2.601,1.155 2.167,2.889 -2.023,7.368 -2.022,2.168 -4.479,5.346 -5.201,6.791 -1.301,2.312 -1.012,2.601 1.589,1.879 4.335,-1.156 3.757,0.578 -2.601,7.079 -4.479,4.768 -5.201,6.069 -3.467,7.225 1.589,1.011 0.722,2.745 -4.624,8.235 -5.49,5.491 -6.502,7.225 -5.057,8.959 1.878,2.311 1.589,3.034 -6.646,13.726 -3.323,4.334 -8.814,13.582 -12.137,20.517 -5.78,11.703 -6.213,13.726 -6.935,26.73 -0.723,17.772 0.722,23.118 9.825,35.833 10.836,14.882 13.148,20.806 12.425,30.053 -0.289,4.19 -2.022,10.836 -3.756,14.448 -5.057,10.548 -14.304,16.327 -13.437,8.381 0.289,-1.879 -0.145,-2.89 -1.012,-2.312 -0.867,0.433 -1.445,1.734 -1.445,2.745 0,1.156 -1.011,2.745 -2.167,3.757 -1.878,1.589 -2.167,1.156 -2.167,-2.312 l -0.145,-4.19 -2.167,4.19 c -2.023,3.612 -2.601,3.901 -4.335,2.023 -3.034,-2.89 -1.589,-5.202 8.236,-13.148 7.513,-6.069 8.525,-7.514 8.525,-11.993 0,-7.369 -1.734,-9.68 -14.304,-19.072 -12.86,-9.536 -18.639,-15.605 -23.552,-24.852 -1.878,-3.612 -4.479,-8.091 -5.779,-10.114 -4.913,-7.513 -15.605,-36.844 -15.605,-42.912 0,-1.734 -0.722,-3.612 -1.734,-4.19 -1.589,-1.012 -1.011,6.213 1.156,13.581 1.012,3.757 0.578,3.757 -17.483,0 -10.836,-2.167 -21.384,2.312 -33.087,13.871 -4.912,4.768 -10.692,11.125 -12.715,13.871 l -3.901,5.057 -0.144,-6.213 c 0,-3.468 -0.723,-6.069 -1.59,-6.069 -1.156,0 -1.445,2.601 -0.722,8.525 1.011,8.958 -1.156,42.624 -3.612,53.605 -2.601,12.57 -10.692,27.452 -14.882,27.452 -1.012,0 -2.601,1.589 -3.468,3.612 -1.878,4.046 -5.635,4.768 -6.935,1.445 -0.578,-1.156 -0.145,-3.179 0.866,-4.334 1.301,-1.59 1.301,-2.168 0.145,-2.168 -0.867,0 -2.312,1.59 -3.034,3.612 -0.723,2.023 -2.023,3.612 -2.89,3.612 -2.456,0 -3.323,-4.19 -1.445,-6.501 1.301,-1.59 1.301,-2.168 0.145,-2.168 -0.867,0 -2.023,1.012 -2.4566,2.168 -1.0114,2.6 -4.9126,2.889 -4.9126,0.433 0,-3.468 4.9126,-6.935 9.8252,-6.935 7.369,0 14.015,-7.514 15.315,-17.483 1.301,-9.536 -1.444,-27.164 -5.923,-37.133 -1.879,-4.19 -3.324,-8.38 -3.324,-9.392 0,-1.011 -2.311,-4.045 -5.057,-6.791 -5.49,-5.346 -10.2582,-14.448 -13.148,-24.996 -1.4448,-5.779 -1.4448,-8.813 0.1445,-17.338 4.3346,-23.263 3.6122,-32.943 -2.8897,-39.445 -4.4791,-4.479 -9.5361,-4.335 -14.8821,0.144 -6.5019,5.491 -8.9582,4.335 -2.8898,-1.444 3.0343,-2.601 5.4905,-5.78 5.4905,-6.647 0,-1.011 -1.7338,-3.756 -3.9011,-5.924 l -3.9011,-4.045 h 4.6235 c 2.6008,0 6.3574,1.011 8.2358,2.311 3.0342,2.023 4.3346,2.023 7.9467,0.578 5.346,-2.167 5.7795,-4.768 0.578,-2.889 -2.6008,1.011 -5.4905,0.867 -9.8251,-0.578 -7.2243,-2.457 -13.2928,-1.59 -14.3042,2.167 -0.5779,2.312 -2.1673,2.745 -10.8365,2.745 -10.114,0 -13.7262,-1.589 -10.5475,-4.768 2.4563,-2.456 1.8783,-5.346 -0.8669,-5.346 -1.8783,-0.144 -0.289,-2.312 4.9125,-6.935 4.1901,-3.757 8.5247,-8.669 9.6806,-10.981 l 2.0228,-4.046 2.3118,4.479 c 1.4449,2.601 3.4677,4.479 5.2015,4.479 3.0343,0 6.5019,-4.912 5.0571,-7.224 -0.578,-0.867 1.0114,-2.601 3.4677,-4.046 2.4562,-1.3 4.479,-2.889 4.479,-3.612 0,-1.445 -0.2889,-1.3 -7.3688,1.879 -7.0798,3.178 -12.8593,3.756 -12.8593,1.155 0,-0.866 2.4563,-4.045 5.635,-6.935 6.0684,-5.779 14.3042,-8.525 16.327,-5.49 1.0114,1.445 1.5893,1.445 3.0342,-0.434 2.3118,-3.034 6.3574,-5.057 12.2813,-6.068 l 4.7676,-1.012 -3.034,3.902 c -5.0568,6.501 -2.0225,5.345 4.335,-1.59 3.468,-3.612 6.791,-6.646 7.658,-6.646 1.011,0 0.289,1.011 -1.445,2.167 -1.734,1.156 -4.19,4.19 -5.346,6.791 -2.601,5.057 -3.179,11.992 -0.867,10.547 0.867,-0.433 1.445,-2.456 1.445,-4.479 0,-9.536 9.825,2.746 21.095,26.152 12.137,25.286 16.76,29.62 26.296,24.708 4.624,-2.312 10.403,-8.814 10.403,-11.559 0,-0.867 0.578,-2.601 1.445,-3.757 1.012,-1.734 1.734,-1.734 4.19,0.578 3.901,3.612 6.647,2.167 10.259,-5.057 2.312,-4.335 3.612,-5.491 4.768,-4.335 2.601,2.601 5.924,1.879 12.137,-2.6 5.057,-3.757 5.924,-3.902 7.224,-1.734 1.3,2.023 2.167,2.023 6.357,0.433 4.046,-1.445 5.202,-1.445 6.358,0.289 0.867,1.156 3.179,2.312 5.057,2.601 2.456,0.289 3.757,1.734 4.624,5.057 1.011,3.757 2.022,4.624 5.779,5.057 3.179,0.289 4.624,1.3 4.913,3.179 0.144,1.445 2.311,4.768 4.623,7.224 5.057,5.202 9.392,13.582 11.703,22.106 0.867,3.179 2.601,6.358 3.902,6.791 5.201,2.023 12.136,-5.49 12.136,-13.148 0,-2.601 0.723,-4.768 1.445,-4.768 0.867,0 1.445,0.578 1.445,1.445 0,0.722 1.301,1.445 2.89,1.445 4.046,0 6.213,-4.913 5.057,-11.704 -0.867,-4.623 -0.578,-5.49 1.156,-4.768 3.034,1.156 5.057,-3.178 6.213,-12.859 0.722,-6.357 1.589,-8.091 3.901,-8.814 2.601,-0.578 2.745,-1.589 2.023,-9.391 -0.723,-7.947 -0.434,-8.814 1.878,-8.814 3.757,0 4.624,-3.901 2.89,-13.004 -1.301,-6.502 -1.156,-7.947 0.867,-9.391 2.311,-1.734 2.456,-9.97 0,-15.1715 -0.578,-1.4449 0.144,-2.6007 2.311,-3.6121 2.746,-1.1559 3.324,-2.6008 3.468,-7.6578 0,-4.1901 0.867,-6.7909 2.89,-8.2358 2.601,-1.8783 2.89,-1.5893 4.335,4.7681 1.3,6.0684 1.589,6.5019 3.178,3.9011 z"
         fill="#f3f3f3"
         id="path9" />
      <path
         d="m 99.4734,114.694 c 0,0.722 0.1445,2.167 0.289,3.034 0.1444,1.734 -9.8251,5.635 -14.3042,5.635 -2.7452,-0.144 -2.7452,-0.289 0.5779,-2.889 1.8784,-1.59 4.1901,-2.89 5.2016,-2.89 1.0114,0 2.6007,-1.012 3.6121,-2.168 2.0228,-2.456 4.1901,-2.889 4.6236,-0.722 z"
         fill="#f3f3f3"
         id="path11" />
      <path
         d="m 71.732,148.793 c 0,1.156 -0.867,2.023 -2.0228,2.023 -1.3004,0 -1.7339,-1.012 -1.3004,-2.89 0.8669,-3.179 3.3232,-2.601 3.3232,0.867 z"
         fill="#f3f3f3"
         id="path13" />
      <path
         d="m 206.104,246.899 c 2.457,1.301 4.335,2.89 4.335,3.612 0,2.023 -1.445,1.734 -8.669,-2.167 -5.202,-2.745 -5.78,-3.468 -3.179,-3.612 1.878,0 5.202,1.011 7.513,2.167 z"
         fill="#f3f3f3"
         id="path15" />
      <path
         d="m 103.952,275.074 c 8.092,9.536 15.027,34.677 13.293,48.403 -1.156,9.536 -5.346,16.616 -9.825,16.616 -6.357,0 -12.5702,3.179 -14.882,7.369 -1.1559,2.312 -2.7452,4.19 -3.4676,4.19 -1.8784,0 -1.8784,-1.012 0,-4.479 2.0228,-3.468 -0.7225,-3.757 -2.7453,-0.289 -0.7224,1.445 -1.8783,2.167 -2.4563,1.589 -2.3117,-2.456 3.9012,-8.38 9.6806,-9.247 17.0496,-2.745 21.3836,-15.893 13.0036,-39.878 -4.479,-12.426 -7.6576,-27.164 -6.068,-27.164 0.578,0 2.023,1.301 3.467,2.89 z"
         fill="#f3f3f3"
         id="path17" />
      <path
         d="m 229.945,289.956 c 5.057,7.802 23.262,24.129 26.874,24.129 2.023,0 4.479,11.848 3.468,16.761 -0.578,3.323 -2.745,6.357 -6.647,9.536 -3.178,2.456 -6.068,6.068 -6.501,7.802 -0.867,3.612 -4.335,5.635 -5.635,3.323 -0.578,-0.722 -0.578,-2.745 0,-4.623 0.722,-2.745 0.433,-2.601 -2.746,1.156 -3.756,4.479 -4.479,4.045 -5.635,-3.612 -0.578,-3.324 -0.578,-3.324 -1.733,1.011 -1.445,6.213 -4.335,6.357 -3.035,0.145 1.301,-6.358 4.335,-9.392 11.126,-10.404 11.125,-1.733 11.414,-12.714 0.433,-19.361 -4.19,-2.456 -8.524,-7.08 -12.281,-12.859 -4.913,-7.513 -6.069,-10.548 -6.502,-18.061 -0.722,-10.258 -1.3,-10.547 8.814,5.057 z"
         fill="#f3f3f3"
         id="path19" />
      <path
         d="m 91.2377,151.105 c -2.3118,1.444 -8.2358,3.901 -13.0038,5.346 -14.3042,4.623 -22.9734,10.114 -20.3726,12.859 0.5779,0.578 1.8783,0 2.8897,-1.3 1.7338,-2.457 6.6464,-4.913 24.4182,-12.137 8.8137,-3.612 12.2814,-5.924 10.981,-7.08 -0.289,-0.289 -2.4563,0.722 -4.9125,2.312 z"
         fill="#000000"
         id="path21" />
      <path
         d="m 90.0818,162.519 c -1.4449,0.867 -7.3688,2.167 -13.0038,3.034 -10.5475,1.445 -15.4601,3.179 -15.4601,5.491 0,0.722 2.1673,0.433 4.7681,-0.578 2.4562,-1.156 7.9467,-2.456 11.8479,-2.89 8.3802,-1.156 15.1711,-3.612 15.1711,-5.346 0,-1.589 -0.1445,-1.589 -3.3232,0.289 z"
         fill="#000000"
         id="path23" />
      <path
         d="m 60.5043,187.09 c -0.937,0.04 -2.5877,0.659 -5.3883,1.87 -2.6007,1.011 -3.6121,2.167 -2.6007,2.745 1.8473,1.188 8.3892,-1.349 9.51,-3.339 3.4702,-1.578 7.8389,-5.548 9.1287,-6.486 1.4449,-1.156 2.0228,-2.167 1.1559,-2.167 -0.7224,0 -2.7452,1.011 -4.3346,2.167 -0.8963,0.717 -5.1869,3.352 -7.471,5.21 z"
         fill="#f3f3f3"
         id="path25" />
    </g>
  </g>
  <path
     style="fill:#0000ff;fill-rule:evenodd;stroke:#000000;stroke-width:0.787229"
     d="m 305.679,77.0694 c -3.898,0.5497 -4.965,5.0062 -5.087,8.3069 -0.302,2.8856 0.05,6.8497 -3.081,8.3504 -1.642,0.6405 -3.302,2.1817 -2.572,4.1081 1.392,4.6832 2.723,10.3012 -0.07,14.7422 -2.169,1.619 -1.934,4.633 -1.435,7.02 0.519,4.427 2.052,9.077 0.677,13.472 -0.695,2.204 -3.328,1.421 -4.7,2.668 -1.185,2.7 -0.223,5.865 -0.318,8.722 -0.03,2.568 0.663,5.327 -0.08,7.797 -1.539,1.338 -4.136,1.685 -4.601,4.056 -1.791,5.792 -1.272,12.275 -4.4,17.605 -0.876,1.8 -3.152,0.541 -4.409,1.219 -0.241,4.841 1.844,10.447 -1.44,14.674 -1.551,2.074 -5.59,2.251 -6.315,-0.629 -0.891,-1.449 -2.51,0.06 -2.493,1.3 -0.449,3.411 -0.444,6.977 -2.361,10.004 -1.868,3.397 -5.598,7.2 -9.839,5.859 -2.923,-2.032 -3.336,-6.033 -4.627,-9.107 -2.446,-7.889 -6.656,-15.158 -12.222,-21.254 -1.473,-1.92 -2.975,-3.947 -3.507,-6.326 -1.935,-3.723 -7.491,-1.265 -9.421,-4.973 -1.437,-2.568 -1.794,-6.562 -5.029,-7.56 -2.937,-0.06 -5.017,-2.33 -7.368,-3.704 -3.31,-0.743 -6.386,1.966 -9.658,1.679 -1.403,-0.889 -2.391,-3.385 -4.446,-2.396 -4.54,2.017 -8.154,6.574 -13.397,6.698 -1.674,-0.01 -2.816,-1.631 -4.297,-1.903 -3.923,3.122 -4.604,9.124 -9.103,11.607 -3.037,0.976 -4.713,-2.679 -7.33,-3.336 -2.108,0.414 -2.689,3.144 -3.24,4.909 -1.223,4.52 -5.084,7.828 -8.753,10.454 -3.562,2.43 -8.899,4.159 -12.492,0.886 -6.19,-5.641 -9.375,-13.668 -13.311,-20.88 -5.335,-10.268 -10.205,-20.946 -17.401,-30.084 -1.288,-1.423 -3.154,-3.624 -5.288,-2.702 -0.745,2.429 -0.206,5.604 -2.082,7.54 -1.5184,-0.402 -0.8174,-2.733 -0.7538,-3.889 0.8888,-4.89 3.1458,-9.61 7.0378,-12.812 0.537,-0.858 2.256,-1.706 1.849,-2.812 -1.918,0.08 -3.131,2.245 -4.601,3.284 -3.299,2.969 -6.3895,6.577 -9.865,9.133 0.9745,-2.939 3.9247,-4.895 4.902,-7.785 -0.8964,-0.753 -2.444,0.537 -3.5508,0.441 -5.0553,0.975 -10.4811,2.512 -13.7355,6.824 -0.797,1.361 -2.0397,0.271 -2.7746,-0.511 -2.8182,-1.61 -6.3561,-0.272 -9.0681,0.988 -4.8052,2.637 -9.0681,6.433 -12.1991,10.927 -0.9124,1.12 -0.1178,2.779 1.3405,2.715 6.5411,0.626 12.0746,-3.823 18.1956,-5.194 0.7371,0.598 -0.895,1.549 -1.3063,1.964 -2.0745,1.89 -5.3951,2.837 -6.457,5.621 0.1526,1.242 0.6823,2.522 -0.2118,3.723 -0.9894,2.261 -3.8513,5.012 -6.3983,3.219 -2.8167,-1.98 -3.8548,-5.522 -5.6848,-8.224 -1.3321,2.058 -2.3681,4.657 -4.0927,6.587 -3.951,5.302 -9.516,9.168 -13.4396,14.462 -0.4814,1.607 2.3727,0.991 2.7529,2.32 1.3155,2.583 -2.4663,4.01 -2.2434,6.405 1.3332,2.431 4.7237,2.047 7.0834,2.373 4.5329,0 9.2071,0.587 13.6547,-0.458 2.2663,-0.998 2.2611,-4.407 4.9139,-5 4.9622,-1.431 9.9553,0.58 14.7906,1.58 2.861,0.651 5.7265,0.03 8.4601,-0.8 0.6093,-0.267 1.6994,0.138 0.7548,0.822 -2.4604,2.067 -6.0368,3.914 -9.2974,2.801 -4.1335,-2.508 -8.955,-3.883 -13.8107,-3.386 -2.8311,0.05 1.1945,2.555 1.7528,3.604 1.8037,1.966 3.5385,3.918 4.7797,6.311 -2.1209,4.338 -6.7738,6.844 -8.9737,11.089 -0.1131,1.619 1.954,0.553 2.6299,0.07 4.0603,-2.265 7.6229,-6.632 12.7386,-5.891 5.0165,0.796 8.4954,5.513 10.0689,10.02 2.5374,8.801 0.6634,18.148 -0.5808,27.04 -1.2342,7.937 -3.3136,16.297 -0.501,24.155 2.6346,8.65 6.4395,17.176 12.8252,23.736 2.334,2.558 4.937,5.198 5.455,8.766 3.026,8.065 6.452,16.061 7.655,24.653 0.969,7.149 1.719,14.569 0.628,21.711 -1.573,6.52 -5.731,13.452 -12.796,14.897 -3.4024,0.609 -7.3133,0.565 -9.7878,3.41 -1.2653,1.279 -3.1832,3.843 -1.4299,5.448 1.5828,0.971 3.5069,-0.03 4.2576,-1.578 0.8144,-0.738 1.7093,-2.676 2.9438,-2.19 -0.1651,1.782 -1.92,3.226 -1.5935,5.197 -0.3918,2.094 2.1459,4.434 3.8108,2.473 1.951,-1.849 2.182,-5.424 4.879,-6.391 0.319,1.638 -1.671,2.912 -1.521,4.67 -0.389,2.286 1.856,4.777 4.186,3.676 3.353,-1.364 3.605,-6.555 7.476,-7.079 4.645,-3.095 7.024,-8.52 9.425,-13.365 6.309,-13.868 6.765,-29.369 7.902,-44.305 0.576,-9.474 0.763,-18.985 0.03,-28.453 0.173,-0.895 -0.281,-3.032 0.995,-3.143 1.421,2.111 0.916,5.028 1.34,7.453 0.198,1.381 -0.152,6.191 1.717,3.06 6.794,-8.863 14.503,-17.148 23.264,-24.107 6.451,-4.84 14.399,-8.329 22.603,-7.177 6.558,0.524 12.931,3.116 19.55,2.684 1.546,-0.484 0.226,-2.589 0.258,-3.658 -0.771,-3.979 -2.351,-8.104 -1.495,-12.154 0.922,-0.418 1.285,1.386 1.505,2 2.088,12.173 6.681,23.738 11.297,35.137 3.44,8.143 8.371,15.522 12.608,23.251 7.313,12.268 20.079,19.451 30.486,28.703 2.899,2.38 5.026,5.723 5.196,9.551 0.667,3.789 -0.826,7.723 -3.892,10.062 -4.311,4.025 -9.387,7.322 -13.103,11.937 -0.881,1.272 -1.649,3.049 -0.278,4.311 0.736,0.938 2.087,3.283 3.357,1.723 1.559,-1.759 2.503,-3.949 3.602,-6.001 0.432,2.101 -0.06,4.705 1.043,6.562 2.156,-0.739 3.925,-3.06 4.006,-5.395 0.267,-0.731 0.96,-2.269 1.859,-2.013 0.402,1.924 -0.558,5.43 2.135,5.952 3.732,-0.494 6.363,-3.819 8.53,-6.627 5.471,-8.181 8.267,-18.497 6.619,-28.287 -1.908,-8.504 -7.744,-15.351 -12.358,-22.514 -4.834,-6.663 -9.108,-14.255 -9.351,-22.67 -0.459,-8.405 -0.151,-16.943 1.34,-25.23 2.082,-8.248 6.567,-15.73 10.562,-23.212 3.679,-6.946 8.705,-12.996 13.11,-19.46 1.268,-1.728 2.198,-4.299 0.356,-5.991 -0.982,-2.229 1.577,-3.983 2.741,-5.59 2.728,-3.199 6.144,-6.04 8.037,-9.85 -0.19,-1.277 -2.461,-2.156 -1.283,-3.608 2.545,-4.145 6.926,-6.972 9.125,-11.34 0.333,-1.78 -2.164,-1.033 -3.058,-0.767 -0.646,0.288 -2.3,0.508 -1.544,-0.685 2.262,-4.948 7.124,-8.245 9.272,-13.229 0.02,-1.398 -1.686,-2.028 -2.608,-2.762 3.737,-3.552 7.233,-7.703 8.966,-12.612 0.768,-2.508 -3.72,-3.196 -2.338,-5.735 2.202,-4.903 5.797,-9.194 7.439,-14.329 -0.188,-1.503 -2.175,-0.136 -3.044,-0.234 -0.96,0.488 -1.798,-0.225 -1.454,-1.239 1.461,-5.668 5.383,-10.561 6.131,-16.4306 0.156,-1.4118 -1.416,-2.0393 -2.473,-1.2266 -1.357,0.4168 -3.289,1.6805 -4.433,1.5564 1.239,-4.802 4.335,-9.4522 3.674,-14.6144 -1.024,-0.538 -1.463,1.8188 -2.312,2.5285 -0.539,1.0562 -1.252,0.4233 -1.211,-0.5206 -1.048,-3.1894 -1.41,-6.7321 -2.904,-9.737 -0.173,-0.1153 -0.387,-0.1455 -0.591,-0.1383 z M 91.5059,147.763 c 0.5871,1.327 -1.5708,2.011 -2.3643,2.669 -10.1783,5.594 -21.715,8.497 -31.4493,14.924 -1.3691,0.725 -2.375,2.857 -4.0312,2.699 -1.5174,-1.561 1.048,-3.303 2.1414,-4.225 9.946,-7.107 22.6343,-8.528 33.0555,-14.783 0.8912,-0.412 1.6904,-1.038 2.6479,-1.284 z m -2.9416,12.461 c 0.2892,2.565 -3.0782,2.905 -4.7946,3.691 -7.761,2.423 -16.0608,2.813 -23.6914,5.763 -0.6365,0.192 -3.264,0.893 -2.5342,-0.634 2.2353,-2.341 5.7946,-2.47 8.7676,-3.314 7.474,-1.591 15.3258,-1.989 22.2526,-5.506 z"
     id="path331" />
  <path
     style="fill:#0000ff;fill-rule:evenodd;stroke:#000000;stroke-width:0.787229"
     d="m 96.0578,270.91 c -1.3293,0.76 -0.4104,2.842 -0.4438,4.074 1.8824,12.154 6.991,23.502 9.575,35.452 1.157,7.13 1.517,15.476 -3.54,21.313 -4.0434,4.794 -10.5649,5.462 -16.1752,7.237 -2.8882,1.517 -6.2051,3.767 -6.7582,7.211 -0.183,1.386 1.6235,2.057 2.3343,0.812 1.1396,-1.207 2.1994,-2.936 3.7369,-3.537 0.4346,2.264 -2.066,4.274 -1.6536,6.564 1.0905,1.517 2.9695,-0.307 3.6392,-1.375 2.1127,-3.818 5.3841,-7 9.6157,-8.296 3.4583,-1.657 8.1429,-0.184 10.8059,-3.455 4.441,-5.16 6.011,-12.293 5.79,-18.972 0.283,-11.332 -2.876,-22.471 -7.03,-32.911 -2.306,-5.145 -4.874,-10.687 -9.5691,-14.061 -0.104,-0.04 -0.2155,-0.06 -0.3271,-0.06 z"
     id="path333" />
  <path
     style="fill:#0000ff;fill-rule:evenodd;stroke:#000000;stroke-width:0.787229"
     d="m 216.673,276.513 c -1.148,0.88 -0.241,2.897 -0.45,4.156 0.34,5.856 0.941,11.927 4.128,17.021 4.153,7.46 9.969,14.013 17.079,18.766 3.661,2.775 7.18,7.533 5.244,12.324 -1.976,4.394 -7.321,4.805 -11.365,6.046 -4.345,1.232 -7.07,5.413 -7.605,9.736 -0.06,1.407 -0.88,3.617 0.51,4.583 1.89,-0.263 2.059,-2.894 2.707,-4.316 0.302,-0.999 0.591,-2.107 1.03,-3.004 0.965,2.516 0.867,5.449 2.121,7.817 1.642,0.792 2.932,-1.437 4.026,-2.314 0.945,-1.013 1.871,-2.058 2.944,-2.941 -0.441,2.354 -1.665,6.394 1.569,7.273 3.149,-0.524 3.869,-3.982 5.215,-6.33 3.496,-5.461 10.437,-8.551 12.004,-15.218 0.878,-4.874 -0.124,-9.935 -1.572,-14.606 -0.473,-1.619 -1.679,-2.921 -3.366,-3.227 -7.57,-4.521 -13.874,-10.954 -20.034,-17.23 -5.346,-5.433 -8.621,-12.439 -13.463,-18.248 -0.198,-0.168 -0.448,-0.333 -0.722,-0.288 z"
     id="path335" />
  <path
     style="fill:#0000ff;fill-rule:evenodd;stroke:#000000;stroke-width:0.787229"
     d="m 193.679,243.359 c -1.299,-0.224 -1.359,1.306 -0.313,1.715 3.469,2.266 7.172,4.384 11.143,5.603 1.533,0.446 2.074,-1.635 0.859,-2.385 -3.2,-2.751 -7.454,-4.688 -11.689,-4.933 z"
     id="path337" />
  <path
     style="fill:#0000ff;fill-rule:evenodd;stroke:#000000;stroke-width:0.278327"
     d="m 93.5346,111.906 c -1.8611,0.244 -2.9878,1.973 -4.355,3.074 -0.9004,0.859 -2.1059,1.202 -3.2955,1.427 -2.4879,0.886 -4.4867,2.719 -6.489,4.376 -0.4528,0.299 -1.0119,1.153 -0.2671,1.459 2.1435,0.582 4.3942,-0.04 6.499,-0.516 3.2095,-0.904 6.4352,-2.049 9.1834,-3.976 1.001,-0.621 0.5574,-1.918 0.524,-2.868 -0.1133,-1.019 -0.05,-2.4 -1.1969,-2.861 -0.1895,-0.08 -0.3969,-0.119 -0.6029,-0.115 z"
     id="path339" />
  <g
     id="langued"
     style="fill:#ff0000"
     transform="translate(-4.5,-1.12376)">
    <path
       style="fill-rule:evenodd;stroke:#000000;stroke-width:0.278327"
       d="m 36.3783,116.477 c -2.071,0.308 -3.7168,1.779 -5.4655,2.814 -2.1743,1.389 -4.2576,2.918 -6.3924,4.362 -1.2507,0.523 -2.6041,0.787 -3.8396,1.369 -1.4816,0.691 -3.1567,1.155 -4.3758,2.286 -0.5023,0.436 -0.6037,1.327 0.09,1.639 1.1746,0.494 2.5214,0.168 3.7356,-0.03 2.2721,-0.569 4.4344,-1.663 6.1494,-3.269 2.2058,-1.364 4.3708,-2.808 6.3977,-4.434 1.3999,-1.197 3.0248,-2.215 4.1172,-3.721 0.247,-0.372 0.172,-1.097 -0.4161,-1.018 z"
       id="path341"
       transform="translate(36,63)" />
  </g>
  <metadata
     id="metadata1">
    <rdf:RDF>
      <cc:Work
         rdf:about="">
        <dc:creator>
          <cc:Agent>
            <dc:title>https://heraldicon.org/charges/am5kdE/8</dc:title>
          </cc:Agent>
        </dc:creator>
      </cc:Work>
    </rdf:RDF>
  </metadata>
</svg>
