<?xml version="1.0" encoding="UTF-8" standalone="no"?>
<svg
   xmlns:dc="http://purl.org/dc/elements/1.1/"
   xmlns:cc="http://creativecommons.org/ns#"
   xmlns:rdf="http://www.w3.org/1999/02/22-rdf-syntax-ns#"
   xmlns:svg="http://www.w3.org/2000/svg"
   xmlns="http://www.w3.org/2000/svg"
   id="svg42639"
   height="157.5"
   width="331.83646"
   viewBox="32.663535 103.5 331.83646 157.5"
   version="1.1">
fill:#ff0000
  <metadata
     id="metadata42557"> Produced by OmniGraffle 7.7.1 
    <dc:date>2018-03-18 08:44:42 +0000</dc:date>
<dc:title>Traceable heraldic art http://heraldicart.org/credits.html</dc:title>
<rdf:RDF>
  <cc:Work
     rdf:about="">
    <dc:format>image/svg+xml</dc:format>
    <dc:type
       rdf:resource="http://purl.org/dc/dcmitype/StillImage" />
    <dc:title></dc:title>
    <dc:creator>
      <cc:Agent>
        <dc:title>Traceable heraldic art http://heraldicart.org/credits.html</dc:title>
      </cc:Agent>
    </dc:creator>
  </cc:Work>
</rdf:RDF>
</metadata>
  <g
     fill="#ffff00"
     stroke-opacity="1"
     stroke="none"
     stroke-dasharray="none"
     fill-opacity="1"
     id="Cat,_Domestic,_Passant_(1)">
    <title
       id="title42559">Cat, Domestic, Passant (1)</title>
    <g
       id="Cat,_Domestic,_Passant_(1): Layer 2">
      <title
         id="title42561">Layer 2</title>
      <g
         id="Group_3">
        <g
           id="Graphic_20">
          <path
             id="path42563"
             fill="#ff0000"
             d="M 38.54516 213.38138 L 38.542695 213.34287 C 38.642017 213.47995 38.74897 213.61133 38.86305 213.7364 C 40.277857 215.16055 42.45636 215.49474 44.233004 214.56017 C 46.009647 213.6256 46.968444 211.6411 46.596415 209.6684 C 47.06627 211.6704 46.1235 213.73692 44.303544 214.69427 C 42.48359 215.65162 40.246595 215.25777 38.86305 213.7364 C 38.750985 213.62367 38.644877 213.50517 38.54516 213.38138 C 38.811216 215.84002 40.84574 217.72822 43.31736 217.8104 C 45.78898 217.89255 47.94441 216.14363 48.373166 213.7081 C 48.251453 215.00332 47.59387 216.1887 46.55943 216.9776 C 45.52499 217.7665 44.20788 218.08707 42.9266 217.8618 C 43.40929 218.97445 44.399024 219.78595 45.584685 220.0412 C 46.770346 220.29648 48.006334 219.96416 48.90412 219.14873 C 51.184824 217.32623 52.28209 214.3996 51.76172 211.52692 C 52.09327 209.89295 53.325325 208.58982 54.93815 208.16725 C 56.36839 207.77575 57.44204 206.59073 57.69094 205.12892 C 57.57359 204.57565 57.68933 203.99848 58.010924 203.53324 C 58.332516 203.068 58.831556 202.75577 59.390595 202.67004 L 61.631465 202.8634 L 61.63246 202.81995 C 55.730005 201.981 50.48418 198.61662 47.259715 193.60208 C 42.65965 197.88507 39.3395 203.3615 37.669396 209.42081 C 37.327384 210.80533 37.651284 212.27014 38.54516 213.38138 Z" />
          <path
             id="path42565"
             stroke-width="1.807907"
             stroke-linejoin="round"
             stroke-linecap="round"
             stroke="#cccccc"
             d="M 38.54516 213.38138 L 38.542695 213.34287 C 38.642017 213.47995 38.74897 213.61133 38.86305 213.7364 C 40.277857 215.16055 42.45636 215.49474 44.233004 214.56017 C 46.009647 213.6256 46.968444 211.6411 46.596415 209.6684 C 47.06627 211.6704 46.1235 213.73692 44.303544 214.69427 C 42.48359 215.65162 40.246595 215.25777 38.86305 213.7364 C 38.750985 213.62367 38.644877 213.50517 38.54516 213.38138 C 38.811216 215.84002 40.84574 217.72822 43.31736 217.8104 C 45.78898 217.89255 47.94441 216.14363 48.373166 213.7081 C 48.251453 215.00332 47.59387 216.1887 46.55943 216.9776 C 45.52499 217.7665 44.20788 218.08707 42.9266 217.8618 C 43.40929 218.97445 44.399024 219.78595 45.584685 220.0412 C 46.770346 220.29648 48.006334 219.96416 48.90412 219.14873 C 51.184824 217.32623 52.28209 214.3996 51.76172 211.52692 C 52.09327 209.89295 53.325325 208.58982 54.93815 208.16725 C 56.36839 207.77575 57.44204 206.59073 57.69094 205.12892 C 57.57359 204.57565 57.68933 203.99848 58.010924 203.53324 C 58.332516 203.068 58.831556 202.75577 59.390595 202.67004 L 61.631465 202.8634 L 61.63246 202.81995 C 55.730005 201.981 50.48418 198.61662 47.259715 193.60208 C 42.65965 197.88507 39.3395 203.3615 37.669396 209.42081 C 37.327384 210.80533 37.651284 212.27014 38.54516 213.38138 Z" />
        </g>
        <g
           id="Graphic_19">
          <path
             id="path42568"
             fill="#ff0000"
             d="M 38.861846 213.73795 C 40.24539 215.25932 42.482383 215.65318 44.30234 214.69582 C 46.122296 213.73847 47.065066 211.67197 46.59521 209.66997 C 46.96724 211.64265 46.00844 213.62716 44.2318 214.56172 C 42.455156 215.4963 40.276653 215.1621 38.861846 213.73795 Z" />
          <path
             id="path42570"
             stroke-width="1.807907"
             stroke-linejoin="round"
             stroke-linecap="round"
             stroke="#cccccc"
             d="M 38.861846 213.73795 C 40.24539 215.25932 42.482383 215.65318 44.30234 214.69582 C 46.122296 213.73847 47.065066 211.67197 46.59521 209.66997 C 46.96724 211.64265 46.00844 213.62716 44.2318 214.56172 C 42.455156 215.4963 40.276653 215.1621 38.861846 213.73795 Z" />
        </g>
        <g
           id="Graphic_18">
          <path
             id="path42573"
             fill="#ff0000"
             d="M 54.20817 200.2449 C 56.49418 201.5725 59.015175 202.44592 61.63254 202.8171 L 61.62809 202.8655 L 82.26691 204.62642 C 86.48486 206.05255 91.04644 206.10418 95.29559 204.77388 L 95.34151 204.73982 C 99.47601 203.21338 102.69541 200.02286 104.25893 195.90238 C 109.40143 189.58217 117.04243 185.81617 125.18725 185.5875 C 134.8414 185.05284 143.2755 178.88372 146.70943 169.84512 C 150.14337 160.80651 147.93316 150.59343 141.06943 143.78333 C 128.46204 133.42454 110.3913 133.07843 97.39649 142.94684 C 92.56128 149.8529 89.6896 157.94103 89.08725 166.34995 C 87.68468 173.16772 83.27121 178.9841 77.08275 182.17033 L 61.85407 186.11039 C 59.709724 186.3234 57.620884 186.91887 55.68655 187.86857 L 55.652975 187.8745 C 52.583823 189.35075 49.754394 191.28062 47.2598 193.59924 C 46.33059 194.27634 45.61855 195.20926 45.210577 196.28418 C 43.687745 198.97132 43.91677 202.30816 45.792454 204.76205 C 46.55891 205.85289 47.858046 206.44047 49.18335 206.2957 C 50.50865 206.15095 51.650305 205.29676 52.163196 204.06618 C 52.676086 202.8356 52.479016 201.42345 51.64882 200.3803 C 52.4963 200.59196 53.38776 200.5448 54.20817 200.2449 Z" />
          <path
             id="path42575"
             stroke-width="1.807907"
             stroke-linejoin="round"
             stroke-linecap="round"
             stroke="#cccccc"
             d="M 54.20817 200.2449 C 56.49418 201.5725 59.015175 202.44592 61.63254 202.8171 L 61.62809 202.8655 L 82.26691 204.62642 C 86.48486 206.05255 91.04644 206.10418 95.29559 204.77388 L 95.34151 204.73982 C 99.47601 203.21338 102.69541 200.02286 104.25893 195.90238 C 109.40143 189.58217 117.04243 185.81617 125.18725 185.5875 C 134.8414 185.05284 143.2755 178.88372 146.70943 169.84512 C 150.14337 160.80651 147.93316 150.59343 141.06943 143.78333 C 128.46204 133.42454 110.3913 133.07843 97.39649 142.94684 C 92.56128 149.8529 89.6896 157.94103 89.08725 166.34995 C 87.68468 173.16772 83.27121 178.9841 77.08275 182.17033 L 61.85407 186.11039 C 59.709724 186.3234 57.620884 186.91887 55.68655 187.86857 L 55.652975 187.8745 C 52.583823 189.35075 49.754394 191.28062 47.2598 193.59924 C 46.33059 194.27634 45.61855 195.20926 45.210577 196.28418 C 43.687745 198.97132 43.91677 202.30816 45.792454 204.76205 C 46.55891 205.85289 47.858046 206.44047 49.18335 206.2957 C 50.50865 206.15095 51.650305 205.29676 52.163196 204.06618 C 52.676086 202.8356 52.479016 201.42345 51.64882 200.3803 C 52.4963 200.59196 53.38776 200.5448 54.20817 200.2449 Z" />
        </g>
        <g
           id="Graphic_17">
          <path
             id="path42578"
             fill="#ff0000"
             d="M 282.81267 169.54227 C 285.06222 181.10649 292.0162 191.21584 302.0112 197.45214 C 312.0062 203.68845 324.14327 205.4908 335.5192 202.4281 C 354.1892 194.14517 362.84185 172.48015 355.01445 153.6146 C 350.68982 145.78184 351.92247 136.05218 358.0638 129.54534 C 360.23963 127.49905 361.0934 124.41053 360.27744 121.53723 C 359.4615 118.66392 357.11196 116.48506 354.1854 115.88771 C 351.2588 115.29037 348.24333 116.37419 346.36662 118.6979 C 336.95257 128.29125 334.27357 142.6245 339.58697 154.97054 C 344.27048 166.28654 340.79984 179.33722 331.1139 186.83189 C 322.3381 191.30603 311.6545 189.36468 305.01377 182.08914 C 300.75264 176.58987 297.7437 170.22648 296.1972 163.4436 C 292.7829 148.01717 278.76268 137.2858 262.97993 138.0184 C 261.7595 151.78829 269.87138 164.68199 282.81267 169.54227 Z" />
          <path
             id="path42580"
             stroke-width="1.807907"
             stroke-linejoin="round"
             stroke-linecap="round"
             stroke="#cccccc"
             d="M 282.81267 169.54227 C 285.06222 181.10649 292.0162 191.21584 302.0112 197.45214 C 312.0062 203.68845 324.14327 205.4908 335.5192 202.4281 C 354.1892 194.14517 362.84185 172.48015 355.01445 153.6146 C 350.68982 145.78184 351.92247 136.05218 358.0638 129.54534 C 360.23963 127.49905 361.0934 124.41053 360.27744 121.53723 C 359.4615 118.66392 357.11196 116.48506 354.1854 115.88771 C 351.2588 115.29037 348.24333 116.37419 346.36662 118.6979 C 336.95257 128.29125 334.27357 142.6245 339.58697 154.97054 C 344.27048 166.28654 340.79984 179.33722 331.1139 186.83189 C 322.3381 191.30603 311.6545 189.36468 305.01377 182.08914 C 300.75264 176.58987 297.7437 170.22648 296.1972 163.4436 C 292.7829 148.01717 278.76268 137.2858 262.97993 138.0184 C 261.7595 151.78829 269.87138 164.68199 282.81267 169.54227 Z" />
        </g>
        <g
           id="Graphic_16">
          <path
             id="path42583"
             fill="#ff0000"
             d="M 243.57928 232.79358 C 243.8914 232.61964 244.2008 232.44083 244.50734 232.25723 C 244.7165 232.10101 244.91575 231.93195 245.10395 231.75102 L 245.35103 231.57626 L 245.26666 231.5883 C 247.30585 229.48157 247.62306 226.24694 246.032 223.78418 L 245.01355 217.67948 C 243.96184 191.00783 223.71573 169.03859 197.21852 165.81665 C 187.47673 165.91454 178.3 170.40597 172.2462 178.03903 C 166.1924 185.67208 163.90887 195.63054 166.03212 205.13863 C 176.2552 212.22072 188.65185 215.46289 201.0332 214.29267 C 207.2986 214.54483 213.22203 217.21707 217.55747 221.74727 C 220.74038 225.08788 221.06317 230.23233 218.32282 233.94461 L 218.23242 233.95064 C 214.46544 238.47071 208.88177 241.07923 202.9978 241.06777 C 201.05316 240.36504 198.88866 240.64716 197.18912 241.82486 C 195.48958 243.00257 194.4653 244.93014 194.44037 246.9977 C 194.43928 248.3012 194.9562 249.5517 195.87734 250.47398 C 196.79848 251.39625 198.04836 251.9147 199.35185 251.9152 C 197.8006 250.78253 197.0421 248.85653 197.4044 246.97025 C 197.7667 245.08397 199.18477 243.57603 201.04526 243.09865 C 199.17786 243.58206 197.76658 245.1142 197.43788 247.01493 C 197.10918 248.91567 197.92398 250.83276 199.52059 251.9152 C 200.5079 252.141 201.54388 251.8887 202.31682 251.23423 C 201.47872 250.0026 201.32426 248.42936 201.90683 247.05824 C 202.4894 245.68713 203.72908 244.70624 205.19742 244.45458 C 203.75172 244.74202 202.54362 245.72957 201.97438 247.0892 C 201.40515 248.44884 201.54932 250.00254 202.359 251.23423 C 205.29876 253.3695 209.2407 253.5054 212.32057 251.57773 C 218.1741 251.74042 223.714 248.93647 227.04898 244.12313 Z" />
          <path
             id="path42585"
             stroke-width="1.807907"
             stroke-linejoin="round"
             stroke-linecap="round"
             stroke="#cccccc"
             d="M 243.57928 232.79358 C 243.8914 232.61964 244.2008 232.44083 244.50734 232.25723 C 244.7165 232.10101 244.91575 231.93195 245.10395 231.75102 L 245.35103 231.57626 L 245.26666 231.5883 C 247.30585 229.48157 247.62306 226.24694 246.032 223.78418 L 245.01355 217.67948 C 243.96184 191.00783 223.71573 169.03859 197.21852 165.81665 C 187.47673 165.91454 178.3 170.40597 172.2462 178.03903 C 166.1924 185.67208 163.90887 195.63054 166.03212 205.13863 C 176.2552 212.22072 188.65185 215.46289 201.0332 214.29267 C 207.2986 214.54483 213.22203 217.21707 217.55747 221.74727 C 220.74038 225.08788 221.06317 230.23233 218.32282 233.94461 L 218.23242 233.95064 C 214.46544 238.47071 208.88177 241.07923 202.9978 241.06777 C 201.05316 240.36504 198.88866 240.64716 197.18912 241.82486 C 195.48958 243.00257 194.4653 244.93014 194.44037 246.9977 C 194.43928 248.3012 194.9562 249.5517 195.87734 250.47398 C 196.79848 251.39625 198.04836 251.9147 199.35185 251.9152 C 197.8006 250.78253 197.0421 248.85653 197.4044 246.97025 C 197.7667 245.08397 199.18477 243.57603 201.04526 243.09865 C 199.17786 243.58206 197.76658 245.1142 197.43788 247.01493 C 197.10918 248.91567 197.92398 250.83276 199.52059 251.9152 C 200.5079 252.141 201.54388 251.8887 202.31682 251.23423 C 201.47872 250.0026 201.32426 248.42936 201.90683 247.05824 C 202.4894 245.68713 203.72908 244.70624 205.19742 244.45458 C 203.75172 244.74202 202.54362 245.72957 201.97438 247.0892 C 201.40515 248.44884 201.54932 250.00254 202.359 251.23423 C 205.29876 253.3695 209.2407 253.5054 212.32057 251.57773 C 218.1741 251.74042 223.714 248.93647 227.04898 244.12313 Z" />
        </g>
        <g
           id="Graphic_15">
          <path
             id="path42588"
             fill="#ff0000"
             d="M 54.715255 122.76497 C 53.283636 120.04813 52.256356 117.13683 51.66592 114.12317 C 51.333225 113.35848 51.536924 112.46628 52.168525 111.92174 C 52.800126 111.37721 53.7126 111.30712 54.419964 111.74879 C 61.25108 116.93617 67.82748 122.4507 74.12615 128.27306 C 67.21305 131.81628 58.737 129.41109 54.715255 122.76497 Z" />
          <path
             id="path42590"
             stroke-width="1.807907"
             stroke-linejoin="round"
             stroke-linecap="round"
             stroke="#cccccc"
             d="M 54.715255 122.76497 C 53.283636 120.04813 52.256356 117.13683 51.66592 114.12317 C 51.333225 113.35848 51.536924 112.46628 52.168525 111.92174 C 52.800126 111.37721 53.7126 111.30712 54.419964 111.74879 C 61.25108 116.93617 67.82748 122.4507 74.12615 128.27306 C 67.21305 131.81628 58.737 129.41109 54.715255 122.76497 Z" />
        </g>
        <g
           id="Graphic_14">
          <path
             id="path42593"
             fill="#ff0000"
             d="M 310.93767 243.44215 L 310.9437 243.44215 L 310.93165 240.8207 L 310.9437 232.9322 L 310.88946 232.95027 L 310.77496 211.2373 C 310.9161 209.18538 310.2217 207.16355 308.84955 205.63138 C 307.4774 204.09921 305.5441 203.18687 303.4891 203.10172 C 289.2377 197.2102 280.7462 182.45468 282.81267 167.17258 C 282.4129 151.07242 270.1719 137.74739 254.16337 135.98619 C 218.7351 130.52312 182.8176 128.93083 147.04488 131.23742 C 141.84647 131.6237 136.62868 130.81351 131.79217 128.86906 C 126.64063 125.18031 120.08325 124.05448 113.99634 125.8137 C 109.9674 127.2091 105.53689 126.84152 101.79297 124.80127 C 95.17328 121.91465 87.99777 120.52564 80.77907 120.73348 L 77.21749 112.08566 C 76.89183 110.07297 75.25087 108.53241 73.22165 108.3343 C 71.19243 108.13619 69.28449 109.33027 68.575694 111.24197 L 64.33314 120.73348 C 55.550636 120.36567 47.35248 125.12657 43.319234 132.93685 C 42.00138 135.3114 41.41239 138.0216 41.62583 140.72893 C 41.192113 143.9362 40.047347 147.00607 38.275174 149.71423 L 36.581768 152.51046 C 36.60885 154.46537 37.41852 156.32783 38.8296 157.68107 C 38.84039 156.10727 39.593134 154.63082 40.86048 153.69765 C 39.638753 154.69645 38.925284 156.18744 38.913968 157.76544 C 40.639007 160.12488 43.314667 161.60597 46.229964 161.81515 C 47.541204 161.84834 48.849854 161.68171 50.11094 161.321 C 50.19165 161.2939 50.272005 161.26578 50.35199 161.23662 C 50.40644 161.213 50.46068 161.1889 50.514704 161.1643 L 52.55161 159.86864 C 52.712515 159.73696 52.869276 159.6003 53.02167 159.45885 C 54.16431 158.23187 55.795546 157.57982 57.46912 157.68107 C 55.808945 157.67877 54.21903 158.35084 53.06385 159.54322 L 52.55161 159.86864 C 51.92739 160.3811 51.24345 160.81616 50.514704 161.1643 L 50.394177 161.23662 C 50.30009 161.26582 50.20567 161.29395 50.11094 161.321 C 48.862764 161.74107 47.54358 161.90904 46.229964 161.81515 C 45.87968 161.80728 45.529864 161.78517 45.18138 161.74886 C 44.74053 162.91241 44.994773 164.22516 45.83815 165.13999 C 46.681525 166.05482 47.96932 166.41474 49.1648 166.06976 C 51.60856 166.25609 54.0596 165.81855 56.287953 164.7982 C 59.731035 167.63616 64.59536 167.97738 68.40093 165.64792 C 72.94309 166.03315 77.062375 168.46657 79.59187 172.25883 C 84.79045 185.44461 95.70619 195.54866 109.2536 199.7149 C 115.57857 202.61574 120.251 208.2231 121.96319 214.96762 L 122.8129 234.63162 C 122.87383 238.37375 120.75775 241.8112 117.38918 243.44215 C 115.44384 242.73696 113.2774 243.01787 111.57624 244.19588 C 109.87507 245.37388 108.84998 247.303 108.82573 249.3721 C 108.82464 250.67662 109.34238 251.92805 110.26483 252.8505 C 111.18728 253.77294 112.4387 254.29068 113.74324 254.2896 C 112.19574 253.15604 111.43993 251.23226 111.802 249.34848 C 112.16407 247.4647 113.57918 245.95818 115.43664 245.47906 C 113.57243 245.96434 112.16425 247.495 111.83578 249.39312 C 111.50731 251.29125 112.31923 253.2061 113.91197 254.2896 C 114.89833 254.51702 115.9342 254.26698 116.7082 253.61464 C 115.8701 252.383 115.71565 250.80977 116.29822 249.43865 C 116.88079 248.06754 118.12047 247.08665 119.5888 246.835 C 118.14311 247.12243 116.93501 248.10998 116.36577 249.46962 C 115.79654 250.82926 115.9407 252.38295 116.75039 253.61464 C 119.69008 255.74533 123.6287 255.87884 126.70593 253.95212 C 131.7831 251.77903 135.41919 247.18857 136.3722 241.74875 L 145.014 214.96762 C 147.38887 211.11444 148.4582 206.59829 148.06334 202.0893 C 169.32446 209.4959 192.25968 210.671 214.16644 205.4761 C 219.26023 203.46684 225.03112 204.2375 229.41915 207.51301 C 244.6512 220.34115 264.31335 226.67156 284.1686 225.1401 C 287.0366 224.6102 289.9959 225.29372 292.341 227.0277 C 294.6861 228.76168 296.20686 231.39075 296.5407 234.28812 L 296.25144 237.95817 C 295.78303 240.59304 294.21934 242.90573 291.94863 244.322 C 290.00328 243.6168 287.83685 243.89772 286.13568 245.07573 C 284.4345 246.25373 283.40942 248.18286 283.38517 250.25194 C 283.38408 251.55647 283.90183 252.8079 284.82427 253.73034 C 285.74672 254.6528 286.99814 255.17053 288.30268 255.16944 C 286.75144 254.03676 285.99293 252.11077 286.35523 250.2245 C 286.71753 248.3382 288.1356 246.83026 289.9961 246.35288 C 288.1287 246.8363 286.7174 248.36842 286.3887 250.26916 C 286.06 252.1699 286.8748 254.087 288.47142 255.16944 C 289.45872 255.39523 290.4947 255.14293 291.26765 254.48846 C 290.42955 253.25683 290.2751 251.6836 290.85766 250.31247 C 291.44024 248.94136 292.6799 247.96047 294.14825 247.7088 C 292.70255 247.99625 291.49445 248.9838 290.9252 250.34344 C 290.35598 251.70308 290.50015 253.25677 291.30983 254.48846 C 294.24828 256.62102 298.18693 256.75692 301.26537 254.83197 C 306.76943 253.7869 310.79815 249.0428 310.93767 243.44215 Z" />
          <path
             id="path42595"
             stroke-width="1.807907"
             stroke-linejoin="round"
             stroke-linecap="round"
             stroke="#cccccc"
             d="M 310.93767 243.44215 L 310.9437 243.44215 L 310.93165 240.8207 L 310.9437 232.9322 L 310.88946 232.95027 L 310.77496 211.2373 C 310.9161 209.18538 310.2217 207.16355 308.84955 205.63138 C 307.4774 204.09921 305.5441 203.18687 303.4891 203.10172 C 289.2377 197.2102 280.7462 182.45468 282.81267 167.17258 C 282.4129 151.07242 270.1719 137.74739 254.16337 135.98619 C 218.7351 130.52312 182.8176 128.93083 147.04488 131.23742 C 141.84647 131.6237 136.62868 130.81351 131.79217 128.86906 C 126.64063 125.18031 120.08325 124.05448 113.99634 125.8137 C 109.9674 127.2091 105.53689 126.84152 101.79297 124.80127 C 95.17328 121.91465 87.99777 120.52564 80.77907 120.73348 L 77.21749 112.08566 C 76.89183 110.07297 75.25087 108.53241 73.22165 108.3343 C 71.19243 108.13619 69.28449 109.33027 68.575694 111.24197 L 64.33314 120.73348 C 55.550636 120.36567 47.35248 125.12657 43.319234 132.93685 C 42.00138 135.3114 41.41239 138.0216 41.62583 140.72893 C 41.192113 143.9362 40.047347 147.00607 38.275174 149.71423 L 36.581768 152.51046 C 36.60885 154.46537 37.41852 156.32783 38.8296 157.68107 C 38.84039 156.10727 39.593134 154.63082 40.86048 153.69765 C 39.638753 154.69645 38.925284 156.18744 38.913968 157.76544 C 40.639007 160.12488 43.314667 161.60597 46.229964 161.81515 C 47.541204 161.84834 48.849854 161.68171 50.11094 161.321 C 50.19165 161.2939 50.272005 161.26578 50.35199 161.23662 C 50.40644 161.213 50.46068 161.1889 50.514704 161.1643 L 52.55161 159.86864 C 52.712515 159.73696 52.869276 159.6003 53.02167 159.45885 C 54.16431 158.23187 55.795546 157.57982 57.46912 157.68107 C 55.808945 157.67877 54.21903 158.35084 53.06385 159.54322 L 52.55161 159.86864 C 51.92739 160.3811 51.24345 160.81616 50.514704 161.1643 L 50.394177 161.23662 C 50.30009 161.26582 50.20567 161.29395 50.11094 161.321 C 48.862764 161.74107 47.54358 161.90904 46.229964 161.81515 C 45.87968 161.80728 45.529864 161.78517 45.18138 161.74886 C 44.74053 162.91241 44.994773 164.22516 45.83815 165.13999 C 46.681525 166.05482 47.96932 166.41474 49.1648 166.06976 C 51.60856 166.25609 54.0596 165.81855 56.287953 164.7982 C 59.731035 167.63616 64.59536 167.97738 68.40093 165.64792 C 72.94309 166.03315 77.062375 168.46657 79.59187 172.25883 C 84.79045 185.44461 95.70619 195.54866 109.2536 199.7149 C 115.57857 202.61574 120.251 208.2231 121.96319 214.96762 L 122.8129 234.63162 C 122.87383 238.37375 120.75775 241.8112 117.38918 243.44215 C 115.44384 242.73696 113.2774 243.01787 111.57624 244.19588 C 109.87507 245.37388 108.84998 247.303 108.82573 249.3721 C 108.82464 250.67662 109.34238 251.92805 110.26483 252.8505 C 111.18728 253.77294 112.4387 254.29068 113.74324 254.2896 C 112.19574 253.15604 111.43993 251.23226 111.802 249.34848 C 112.16407 247.4647 113.57918 245.95818 115.43664 245.47906 C 113.57243 245.96434 112.16425 247.495 111.83578 249.39312 C 111.50731 251.29125 112.31923 253.2061 113.91197 254.2896 C 114.89833 254.51702 115.9342 254.26698 116.7082 253.61464 C 115.8701 252.383 115.71565 250.80977 116.29822 249.43865 C 116.88079 248.06754 118.12047 247.08665 119.5888 246.835 C 118.14311 247.12243 116.93501 248.10998 116.36577 249.46962 C 115.79654 250.82926 115.9407 252.38295 116.75039 253.61464 C 119.69008 255.74533 123.6287 255.87884 126.70593 253.95212 C 131.7831 251.77903 135.41919 247.18857 136.3722 241.74875 L 145.014 214.96762 C 147.38887 211.11444 148.4582 206.59829 148.06334 202.0893 C 169.32446 209.4959 192.25968 210.671 214.16644 205.4761 C 219.26023 203.46684 225.03112 204.2375 229.41915 207.51301 C 244.6512 220.34115 264.31335 226.67156 284.1686 225.1401 C 287.0366 224.6102 289.9959 225.29372 292.341 227.0277 C 294.6861 228.76168 296.20686 231.39075 296.5407 234.28812 L 296.25144 237.95817 C 295.78303 240.59304 294.21934 242.90573 291.94863 244.322 C 290.00328 243.6168 287.83685 243.89772 286.13568 245.07573 C 284.4345 246.25373 283.40942 248.18286 283.38517 250.25194 C 283.38408 251.55647 283.90183 252.8079 284.82427 253.73034 C 285.74672 254.6528 286.99814 255.17053 288.30268 255.16944 C 286.75144 254.03676 285.99293 252.11077 286.35523 250.2245 C 286.71753 248.3382 288.1356 246.83026 289.9961 246.35288 C 288.1287 246.8363 286.7174 248.36842 286.3887 250.26916 C 286.06 252.1699 286.8748 254.087 288.47142 255.16944 C 289.45872 255.39523 290.4947 255.14293 291.26765 254.48846 C 290.42955 253.25683 290.2751 251.6836 290.85766 250.31247 C 291.44024 248.94136 292.6799 247.96047 294.14825 247.7088 C 292.70255 247.99625 291.49445 248.9838 290.9252 250.34344 C 290.35598 251.70308 290.50015 253.25677 291.30983 254.48846 C 294.24828 256.62102 298.18693 256.75692 301.26537 254.83197 C 306.76943 253.7869 310.79815 249.0428 310.93767 243.44215 Z" />
        </g>
        <g
           id="Graphic_13">
          <path
             id="path42598"
             fill="#cccccc"
             d="M 75.98666 127.00416 C 75.69164 126.27078 74.9619 125.80735 74.17547 125.85394 C 73.38904 125.90053 72.72264 126.44668 72.52149 127.20945 C 73.56447 124.60814 75.41727 122.41599 77.80528 120.95788 C 74.48161 121.62883 71.79274 124.06122 70.7885 127.30537 C 72.00904 123.75462 73.886325 120.4683 76.32235 117.618 C 73.32736 119.35627 70.95955 121.99934 69.55611 125.17081 C 70.84772 121.41762 72.808355 117.9327 75.34293 114.88506 C 72.46753 116.86455 70.2604 119.67197 69.01171 122.93825 C 70.172185 119.9453 71.14343 116.88146 71.919696 113.76488 C 68.558156 118.80263 66.82097 124.75727 66.941924 130.82746 C 66.52604 124.89671 67.550955 118.95877 69.92881 113.52259 C 70.47961 112.55145 71.51064 112.01866 72.63163 112.12589 C 73.752624 112.23312 74.7923 112.96398 75.35712 114.04184 L 77.59864 119.53933 C 78.31804 121.11252 78.40003 122.87079 77.82424 124.37754 C 77.55933 125.49393 76.9056 126.42836 75.98666 127.00416 Z" />
          <path
             id="path42600"
             stroke-width=".60263565"
             stroke-linejoin="round"
             stroke-linecap="round"
             stroke="#cccccc"
             d="M 75.98666 127.00416 C 75.69164 126.27078 74.9619 125.80735 74.17547 125.85394 C 73.38904 125.90053 72.72264 126.44668 72.52149 127.20945 C 73.56447 124.60814 75.41727 122.41599 77.80528 120.95788 C 74.48161 121.62883 71.79274 124.06122 70.7885 127.30537 C 72.00904 123.75462 73.886325 120.4683 76.32235 117.618 C 73.32736 119.35627 70.95955 121.99934 69.55611 125.17081 C 70.84772 121.41762 72.808355 117.9327 75.34293 114.88506 C 72.46753 116.86455 70.2604 119.67197 69.01171 122.93825 C 70.172185 119.9453 71.14343 116.88146 71.919696 113.76488 C 68.558156 118.80263 66.82097 124.75727 66.941924 130.82746 C 66.52604 124.89671 67.550955 118.95877 69.92881 113.52259 C 70.47961 112.55145 71.51064 112.01866 72.63163 112.12589 C 73.752624 112.23312 74.7923 112.96398 75.35712 114.04184 L 77.59864 119.53933 C 78.31804 121.11252 78.40003 122.87079 77.82424 124.37754 C 77.55933 125.49393 76.9056 126.42836 75.98666 127.00416 Z" />
        </g>
        <g
           id="Graphic_12">
          <path
             id="path42603"
             fill="#cccccc"
             d="M 55.13282 139.6024 C 53.16372 137.77304 50.47636 136.92613 47.81419 137.29599 C 45.669657 138.18581 44.38902 140.40394 44.690674 142.70608 C 44.49812 145.77466 43.83452 148.79534 42.72317 151.66208 C 43.37832 149.26865 45.06326 147.29017 47.321826 146.26226 C 48.627725 146.77712 50.0984 146.65849 51.304895 145.94097 C 52.511387 145.22346 53.317797 143.98787 53.48891 142.59462 C 53.53604 141.88712 53.60705 141.18142 53.701827 140.47871 C 55.11885 141.4334 56.42631 142.54139 57.60051 143.7826 C 60.69604 147.89782 66.166256 149.42651 70.94675 147.5123 C 66.20401 148.77766 61.16656 147.05473 58.192136 143.14992 C 57.24289 141.90838 56.22135 140.72383 55.13282 139.6024 Z" />
          <path
             id="path42605"
             stroke-width=".60263565"
             stroke-linejoin="round"
             stroke-linecap="round"
             stroke="#cccccc"
             d="M 55.13282 139.6024 C 53.16372 137.77304 50.47636 136.92613 47.81419 137.29599 C 45.669657 138.18581 44.38902 140.40394 44.690674 142.70608 C 44.49812 145.77466 43.83452 148.79534 42.72317 151.66208 C 43.37832 149.26865 45.06326 147.29017 47.321826 146.26226 C 48.627725 146.77712 50.0984 146.65849 51.304895 145.94097 C 52.511387 145.22346 53.317797 143.98787 53.48891 142.59462 C 53.53604 141.88712 53.60705 141.18142 53.701827 140.47871 C 55.11885 141.4334 56.42631 142.54139 57.60051 143.7826 C 60.69604 147.89782 66.166256 149.42651 70.94675 147.5123 C 66.20401 148.77766 61.16656 147.05473 58.192136 143.14992 C 57.24289 141.90838 56.22135 140.72383 55.13282 139.6024 Z" />
        </g>
        <g
           id="Graphic_11">
          <path
             id="path42608"
             fill="#ff0000"
             d="M 45.013954 141.9735 C 45.013954 140.45325 45.60377 139.04848 46.56122 138.28835 C 47.518673 137.52823 48.698303 137.52823 49.655755 138.28835 C 50.61321 139.04848 51.20302 140.45325 51.20302 141.9735 C 51.20302 143.49374 50.61321 144.89851 49.655755 145.65864 C 48.698303 146.41876 47.518673 146.41876 46.56122 145.65864 C 45.60377 144.89851 45.013954 143.49374 45.013954 141.9735 Z" />
          <path
             id="path42610"
             stroke-width=".60263565"
             stroke-linejoin="round"
             stroke-linecap="round"
             stroke="#cccccc"
             d="M 45.013954 141.9735 C 45.013954 140.45325 45.60377 139.04848 46.56122 138.28835 C 47.518673 137.52823 48.698303 137.52823 49.655755 138.28835 C 50.61321 139.04848 51.20302 140.45325 51.20302 141.9735 C 51.20302 143.49374 50.61321 144.89851 49.655755 145.65864 C 48.698303 146.41876 47.518673 146.41876 46.56122 145.65864 C 45.60377 144.89851 45.013954 143.49374 45.013954 141.9735 Z" />
        </g>
        <g
           id="Graphic_10">
          <ellipse
             id="ellipse42613"
             fill="#cccccc"
             ry="3.18291661570413"
             rx="1.35593021613172"
             cy="141.0946"
             cx="47.47158" />
          <ellipse
             id="ellipse42615"
             stroke-width=".60263565"
             stroke-linejoin="round"
             stroke-linecap="round"
             stroke="#cccccc"
             ry="3.18291661570413"
             rx="1.35593021613172"
             cy="141.0946"
             cx="47.47158" />
        </g>
        <g
           id="Graphic_9">
          <ellipse
             id="ellipse42618"
             fill="white"
             ry="1.24475978995293"
             rx="0.656872860259371"
             cy="140.16673"
             cx="46.772523" />
        </g>
        <g
           id="Graphic_8">
          <path
             id="path42621"
             stroke-width="1.807907"
             stroke-linejoin="round"
             stroke-linecap="round"
             stroke="#cccccc"
             d="M 148.06207 202.25574 C 147.50533 197.88315 145.12076 194.0278 141.45718 191.57704 C 136.45663 185.1438 134.50721 176.85107 136.11783 168.8637" />
        </g>
        <g
           id="Graphic_7">
          <path
             id="path42624"
             stroke-width="1.807907"
             stroke-linejoin="round"
             stroke-linecap="round"
             stroke="#cccccc"
             d="M 80.43807 119.88327 C 82.31003 124.85822 81.61282 130.43586 78.57386 134.79694" />
        </g>
        <g
           id="Graphic_6">
          <path
             id="path42627"
             stroke-width="1.807907"
             stroke-linejoin="round"
             stroke-linecap="round"
             stroke="#cccccc"
             d="M 65.01456 119.20421 C 63.813996 122.13439 62.02594 124.78758 59.76065 127.0002" />
        </g>
        <g
           id="Graphic_5">
          <path
             id="path42630"
             stroke-width="1.807907"
             stroke-linejoin="round"
             stroke-linecap="round"
             stroke="#cccccc"
             d="M 68.44613 165.64563 C 71.11543 165.02848 73.35044 163.21379 74.50262 160.72812 C 75.10382 161.75023 75.31569 162.95507 75.099225 164.12096 C 77.113015 162.05918 77.74148 159.01334 76.70826 156.32285 C 78.25115 156.58108 79.55918 157.6012 80.18547 159.03471 C 83.46353 154.38598 83.695 148.24238 80.77605 143.36016" />
        </g>
        <g
           id="Graphic_4">
          <path
             id="path42633"
             stroke-width="1.807907"
             stroke-linejoin="round"
             stroke-linecap="round"
             stroke="#cccccc"
             d="M 227.04708 149.20503 C 213.14145 161.6036 211.71008 182.84834 223.82686 197.00018" />
        </g>
      </g>
    </g>
  </g>
</svg>
