<?xml version="1.0" encoding="utf-8"?>
<svg xmlns="http://www.w3.org/2000/svg" xmlns:dc="http://purl.org/dc/elements/1.1/"
     xmlns:xl="http://www.w3.org/1999/xlink"
     xmlns:xlink="http://www.w3.org/1999/xlink"
     version="1.1"
     viewBox="49.5 67.5 265.5 342"
     width="265.5"
     height="342"
     preserveAspectRatio="xMidYMid meet"
     zoomAndPan="magnify"
     contentScriptType="application/ecmascript"
     contentStyleType="text/css">
   <defs/>
   <metadata xmlns="" xmlns:svg="http://www.w3.org/2000/svg"
             xmlns:rdf="http://www.w3.org/1999/02/22-rdf-syntax-ns#"
             xmlns:cc="http://creativecommons.org/ns#">
      <rdf:RDF>
         <cc:Work rdf:about="">
            <dc:creator>
               <cc:Agent>
                  <dc:title>http://heraldicart.org Fox Rampant Guardant.svg</dc:title>
               </cc:Agent>
            </dc:creator>
         </cc:Work>
      </rdf:RDF>
   </metadata>
   <g stroke-opacity="1" stroke-dasharray="none" stroke="#505050" fill="#ffff00"
      fill-opacity="1">
      <title>Fox Rampant Guardant</title>
      <g>
         <title>Layer 2</title>
         <g>
            <g>
               <g xmlns="" id="outline-0">
                  <path xmlns="http://www.w3.org/2000/svg"
                        d="M 240.70086 70.68916 C 239.34866 72.10016 237.7025 73.9521 237.05578 74.804575 C 236.43847 75.62766 235.82116 76.33316 235.70358 76.33316 C 235.40962 76.33316 235.20385 75.62766 234.96868 73.98149 C 234.7923 72.71747 234.67472 72.5117 234.1162 72.5117 C 233.64587 72.5117 233.3813 72.74687 233.26372 73.2172 C 233.08735 73.9521 231.05904 77.36201 228.67798 80.88951 C 227.91369 82.00655 226.26752 84.79915 225.0035 87.06263 C 220.56473 95.02889 218.47763 97.96848 216.89026 98.527 C 216.6257 98.61518 215.71442 98.40941 214.86195 98.08606 C 212.59847 97.20418 210.80532 97.29237 207.07205 98.4976 C 205.3083 99.08552 203.10362 99.64404 202.19235 99.73222 C 200.54618 99.938 200.5168 99.9086 199.22337 98.70337 C 198.48848 98.05666 197.6948 97.49814 197.48902 97.49814 C 197.25385 97.49814 196.48956 96.35171 195.78406 94.91131 C 193.28542 89.82584 187.99417 80.2428 186.49499 78.09691 C 185.6425 76.89168 184.87822 75.510075 184.76063 75.03974 C 184.55486 74.15787 182.55595 71.92379 181.99743 71.92379 C 181.79166 71.92379 181.64468 72.83506 181.58589 74.18726 L 181.4977 76.45074 L 180.23368 74.56941 C 178.7051 72.24714 175.58914 68.77843 175.29518 69.043 C 175.1776 69.16058 175.32458 69.57212 175.58914 69.92487 C 176.94135 71.8356 179.88093 76.30376 180.32187 77.18564 L 180.8216 78.21449 L 179.14603 81.44803 C 178.23476 83.24117 177.2059 85.1519 176.88256 85.68103 L 176.26524 86.68048 L 173.59022 84.06426 C 172.12043 82.62386 170.44487 81.06588 169.88635 80.62495 C 169.32783 80.15461 167.56408 78.62603 166.0061 77.15624 C 164.41873 75.71585 163.12532 74.6282 163.12532 74.71639 C 163.12532 74.83397 165.9767 77.80295 169.44542 81.33045 C 172.91412 84.85794 175.76551 87.85632 175.76551 88.03269 C 175.76551 88.17967 175.26579 89.62006 174.61908 91.20744 C 174.00177 92.82421 173.38445 94.55856 173.26687 95.05829 C 173.14929 95.61681 172.88473 96.02835 172.64956 96.02835 C 172.14983 96.02835 170.32729 95.17587 166.85858 93.26515 C 165.44758 92.50085 164.15417 91.91294 164.00719 91.97173 C 163.62504 92.08931 168.8281 95.61681 170.9152 96.67506 L 172.50258 97.46875 L 172.3556 100.93745 C 172.12043 106.64024 172.4144 106.11112 169.06327 106.9342 C 166.65281 107.52211 166.21188 107.72789 166.21188 108.22761 C 166.21188 108.60976 166.35885 108.78613 166.65281 108.69795 C 167.5053 108.49218 169.73937 108.08063 171.20916 107.90426 L 172.70835 107.72789 L 173.17868 110.02076 C 173.44325 111.31417 173.85479 113.07792 174.11935 113.9598 C 174.94243 116.7524 175.26579 119.5156 174.85424 120.45627 C 174.67787 120.9266 174.32512 121.30875 174.08995 121.30875 C 173.88418 121.30875 172.50258 122.48458 171.09158 123.92498 C 168.65173 126.36483 168.32837 126.86456 166.27067 131.03876 C 164.74209 134.09593 164.12477 135.6539 164.33054 135.85968 C 164.53631 136.06545 164.6833 136.03605 164.83027 135.83028 C 166.24127 133.77257 167.03496 132.74372 167.12315 132.8613 C 167.21133 132.9201 166.88798 134.03714 166.41765 135.30116 C 165.09483 138.91684 165.77094 139.38718 168.29898 136.62397 C 169.70998 135.12478 173.23747 132.77312 173.56083 133.12587 C 173.64902 133.18466 173.14929 133.89016 172.47318 134.71324 C 171.82648 135.50693 170.9446 136.68276 170.50366 137.32947 C 170.09212 137.97618 168.68112 139.9163 167.35831 141.68005 C 163.8896 146.29519 161.68492 151.67462 161.65552 155.61366 C 161.65552 157.75956 162.12586 157.64197 164.18356 155.02575 C 165.12423 153.87931 166.30006 152.46831 166.7704 151.93919 L 167.68167 150.96913 L 167.82865 152.23314 C 167.91683 153.08562 168.1226 153.52656 168.44596 153.58535 C 168.71052 153.64414 169.79816 152.79167 170.974 151.58644 C 172.26741 150.29302 173.29627 149.52873 173.67841 149.52873 C 174.03116 149.52873 176.23585 148.58806 178.55812 147.41223 C 180.90978 146.2658 182.8793 145.35452 182.9381 145.44271 C 183.02628 145.5309 182.61474 146.32459 181.99743 147.23586 C 181.4095 148.14713 180.70401 149.26417 180.43945 149.7051 C 180.17489 150.23423 179.26362 150.93973 178.08778 151.55704 C 175.97129 152.67408 171.47373 155.73125 169.06327 157.70077 C 167.4759 158.99418 167.3877 159.02358 164.88906 159.17056 C 161.59673 159.34693 158.83353 158.8472 156.2173 157.61258 C 153.10134 156.1134 152.6604 155.61366 151.9549 152.93864 C 151.63155 151.64523 150.89666 149.7639 150.33814 148.76444 C 149.39747 147.03009 148.5156 144.41386 147.48674 140.26905 C 146.86943 137.8292 144.9587 131.33272 144.57656 130.27447 C 144.2238 129.422 139.25592 118.98648 138.16827 116.89938 C 137.2276 115.07684 134.58198 110.60867 133.7589 109.52103 C 130.76053 105.34682 127.70336 101.52537 126.67451 100.6435 C 124.82257 99.05612 120.88353 97.46875 118.2967 97.29237 C 113.79914 96.93962 108.86065 98.82095 105.45073 102.17208 C 103.80457 103.78885 103.42242 104.40616 102.98148 105.87595 C 102.65813 106.87541 102.42296 108.60976 102.42296 109.84438 C 102.42296 111.90209 102.51115 112.22544 103.68698 114.40073 C 105.09798 116.98757 106.50898 118.66313 107.33206 118.66313 C 107.62602 118.66313 108.4491 118.51615 109.184 118.31038 C 110.21285 118.04582 110.83017 118.04582 112.0354 118.33977 C 112.88787 118.54554 115.32772 118.8101 117.44422 118.92769 C 119.53133 119.04527 121.47145 119.28044 121.73601 119.42742 C 122.00057 119.5744 123.99949 121.36754 126.17478 123.42525 C 130.34898 127.36429 131.05448 128.39314 133.17098 133.39043 C 134.93473 137.62343 135.43446 139.65174 136.22815 145.85425 C 137.16881 153.14442 137.08063 154.84937 135.66963 159.08237 C 134.08225 163.7269 133.58252 165.78461 133.7001 167.07803 C 133.7295 167.2838 134.05286 167.60715 134.435 167.81293 C 135.43446 168.37145 139.60867 171.28163 139.60867 171.42861 C 139.60867 171.4874 139.46169 171.89894 139.25592 172.28109 C 138.81498 173.30994 139.52048 174.07423 141.54879 174.72094 C 143.01858 175.16188 143.10677 175.25007 142.66583 175.7204 C 142.25429 176.19073 142.25429 176.30832 142.66583 177.1314 C 142.9304 177.63113 143.87106 178.4836 144.72354 179.04213 C 146.84004 180.39433 152.13128 182.92237 153.4247 183.18694 C 153.98322 183.30452 154.57113 183.4515 154.68872 183.53969 C 154.95328 183.68666 153.27772 185.06827 151.69034 186.03833 C 151.10243 186.39108 150.5733 186.71443 150.51451 186.74383 C 150.45572 186.80262 150.5439 187.03779 150.74968 187.24356 C 150.98485 187.56691 150.95545 187.77268 150.5439 188.12543 C 149.66203 188.91912 144.312 190.88864 141.22544 191.56474 C 139.60867 191.8881 136.99244 192.5054 135.43446 192.88755 C 132.93582 193.53426 131.96575 193.62245 127.49759 193.62245 C 120.29562 193.59305 112.7115 193.03453 106.3914 192.00568 C 96.95534 190.5065 96.36743 190.3889 93.69241 189.27187 C 92.19322 188.62516 90.63524 188.00785 90.2237 187.89027 C 89.43001 187.6551 87.72506 186.83202 81.69892 183.77485 C 72.26286 179.04213 67.236176 177.45475 61.562784 177.45475 C 57.976495 177.45475 56.09516 178.07206 54.4196 179.74763 C 52.65585 181.51137 51.92096 183.24573 51.77398 186.2147 C 51.53881 190.77105 52.97921 192.76997 58.50562 195.445 C 61.79795 197.06176 64.79632 198.09061 67.14799 198.44336 C 67.7947 198.53155 75.73157 198.76672 84.78548 198.9137 C 98.36634 199.17826 101.80565 199.32524 104.39248 199.76617 C 106.12684 200.06013 107.7436 200.44228 107.97877 200.64805 C 108.21394 200.85382 109.36037 201.14778 110.53621 201.29476 C 114.7692 201.88267 120.35441 204.29313 122.70607 206.5566 C 124.23466 208.0264 129.67288 212.46516 135.64023 217.1097 C 138.87377 219.63774 142.69523 221.84243 143.84166 221.84243 C 144.10623 221.84243 144.312 221.63666 144.312 221.4015 C 144.312 220.87237 144.45897 220.84297 145.25266 221.2839 C 145.60541 221.46028 146.75185 221.81303 147.8101 222.0482 C 149.51505 222.40095 150.19116 222.40095 153.4247 221.96 C 157.51072 221.4309 159.59782 220.75478 160.03876 219.81412 C 160.4797 218.87345 160.97942 219.07922 161.39096 220.28445 C 162.18465 222.6949 165.41819 229.98507 166.24127 231.2197 C 166.7116 231.9252 167.29952 232.80707 167.53469 233.1892 C 167.76985 233.60075 168.1814 233.86532 168.41656 233.80652 C 168.76931 233.74773 168.8281 233.3068 168.76931 231.48425 C 168.59294 227.83917 168.94569 227.86857 170.82702 231.66063 L 172.50258 235.01175 L 162.00827 235.15873 C 150.24995 235.3057 149.07412 235.4527 142.2249 237.71617 C 137.257 239.33294 134.08225 241.12608 131.31905 243.8599 C 128.35007 246.74068 128.29128 247.88712 131.08388 247.12283 C 131.75998 246.94645 132.3773 246.85826 132.46548 246.94645 C 132.55367 247.03464 131.96575 247.82833 131.17207 248.7102 C 129.26134 250.7973 128.73222 252.00253 128.52644 254.64815 C 128.37947 256.58828 128.40886 256.82344 128.8792 256.82344 C 129.14376 256.82344 129.79046 256.5001 130.2608 256.08855 C 130.76053 255.677 131.20146 255.38305 131.26026 255.41245 C 131.28965 255.47124 131.49542 256.3825 131.6424 257.41136 C 132.08334 260.14517 132.78884 262.37925 133.37675 262.8496 C 133.64132 263.05536 134.72896 263.93723 135.78721 264.8191 C 138.75619 267.28835 140.34356 268.2584 142.48946 268.9933 C 143.5771 269.37546 145.04689 269.96337 145.78179 270.28673 C 148.30983 271.43316 150.6321 272.10927 153.57168 272.5502 C 155.18845 272.78537 157.09917 273.10872 157.83407 273.2851 C 158.56896 273.46147 159.7742 273.66725 160.56788 273.78483 C 161.33217 273.873 161.94948 274.0494 161.94948 274.16697 C 161.94948 274.28456 159.86238 274.7255 157.33434 275.13704 C 154.7769 275.57797 151.89612 276.0777 150.92605 276.25408 C 146.75185 276.95958 136.63969 280.9574 129.46711 284.72007 C 127.52699 285.74892 123.02943 288.0712 119.47253 289.86434 C 115.91564 291.68688 111.15352 294.2737 108.89004 295.6259 C 105.36254 297.7424 104.33369 298.5361 101.74686 301.18173 C 98.21936 304.768 96.60259 306.9433 94.92703 310.17684 C 93.95697 312.11697 93.7512 312.79307 93.7512 314.23347 C 93.7512 316.32057 94.25093 317.614 95.48555 318.64284 C 97.07293 319.96565 98.39574 320.14202 101.18834 319.43653 C 104.39248 318.64284 106.89113 317.614 108.15515 316.55574 C 109.68373 315.2917 110.94775 314.7332 112.91727 314.40984 C 116.79752 313.79253 120.26622 311.1469 124.35224 305.70868 C 125.46928 304.2095 126.79209 302.7103 127.26242 302.32816 C 127.76215 301.946 128.791 301.03475 129.5553 300.29985 C 130.31959 299.56496 131.87757 298.4773 132.96521 297.86 C 134.05286 297.2427 135.69902 296.15504 136.5809 295.42015 C 138.46223 293.89156 141.40181 292.3042 147.33976 289.62917 C 151.86672 287.60086 152.89557 287.2481 154.89449 286.95415 C 155.62938 286.86597 157.48132 286.572 159.0099 286.30744 C 161.0676 285.9841 163.44867 285.8665 167.97562 285.9253 C 171.38554 285.9841 175.53035 286.0135 177.2353 286.04288 C 179.64576 286.07228 180.52764 285.9547 181.32132 285.54315 C 181.87984 285.2786 182.37957 285.1022 182.46776 285.161 C 182.52655 285.2492 182.32078 286.18986 181.99743 287.3069 C 179.67516 294.92042 178.88147 306.12022 179.99851 314.7332 C 180.23368 316.58513 180.52764 319.37773 180.64522 320.9063 C 181.20374 329.07835 184.17272 339.57266 185.90707 339.57266 C 186.4362 339.57266 186.49499 339.3963 186.4656 337.8677 C 186.4362 336.95643 186.52438 336.19214 186.64197 336.19214 C 186.75955 336.19214 187.0241 336.78005 187.22988 337.51495 C 187.8178 339.57266 190.31644 343.4235 191.69805 344.36417 C 196.2544 347.45073 197.07748 347.7153 196.8717 346.03974 C 196.78352 345.15786 196.84231 345.0109 197.37144 345.0109 C 197.6948 345.0109 198.13573 345.12847 198.3709 345.27544 C 198.63546 345.4518 199.19398 345.39303 199.92887 345.09907 C 200.95773 344.68753 201.25168 344.68753 203.1918 345.12847 C 204.36764 345.42242 205.80803 345.83396 206.42535 346.06913 C 207.04266 346.3043 208.48305 346.62765 209.65889 346.77463 C 213.39215 347.30376 215.2441 348.09744 216.77267 349.8024 C 218.94796 352.21286 219.09494 352.6244 219.03615 356.38706 C 218.97736 360.2967 218.50703 362.85414 216.91965 367.52807 C 216.27294 369.4682 215.59684 371.5259 215.44986 372.1432 C 215.1559 373.20147 214.09765 375.37676 212.86303 377.49325 C 212.56907 377.9636 211.98116 379.02184 211.51082 379.8449 C 211.0405 380.6386 210.15862 382.1378 209.5119 383.13725 C 208.8946 384.1367 208.39487 385.048 208.39487 385.13617 C 208.39487 385.22435 207.60118 386.2826 206.60172 387.51723 C 204.7204 389.8101 201.7808 392.22056 197.75358 394.6898 C 193.3736 397.4236 191.05134 399.86347 191.05134 401.8036 C 191.05134 402.9794 191.87442 405.2723 192.7269 406.38934 C 193.75575 407.74155 194.8434 408.2119 197.01869 408.2119 C 198.07694 408.2119 199.37035 408.38825 199.89948 408.6234 C 201.69262 409.3289 204.33824 408.741 211.0405 406.066 C 212.09874 405.65444 213.56853 405.0959 214.36222 404.83136 C 216.5375 404.06707 219.12434 402.18574 222.59304 398.8346 C 225.20927 396.30657 225.94417 395.3953 226.76725 393.69035 C 228.03127 391.01533 229.8244 385.048 231.3236 378.5221 C 231.9703 375.7001 232.88158 372.1726 233.3519 370.7322 C 233.85164 369.26243 234.29258 367.2341 234.41016 366.17587 C 234.64533 363.67722 235.35083 360.09093 236.08572 357.5041 C 236.49726 356.0931 236.70303 354.24117 236.82062 351.47796 C 236.9382 347.53892 236.9382 347.50953 236.11512 346.12792 C 235.67418 345.36363 232.6464 341.92432 229.41287 338.5144 C 224.53317 333.37014 223.21036 331.78277 221.5642 329.07835 C 220.44715 327.2852 219.56528 325.78602 219.56528 325.69783 C 219.56528 325.63904 219.18313 325.08052 218.7128 324.4926 C 218.24246 323.9047 217.77213 323.0816 217.65455 322.67006 C 217.53696 322.25852 217.09603 321.46484 216.71388 320.9063 C 215.8026 319.5541 214.3916 315.82084 214.12705 314.0865 C 213.95067 312.88126 213.98007 312.6755 214.5386 312.38153 C 214.89134 312.20516 215.27349 312.11697 215.42047 312.20516 C 215.97899 312.5579 217.18421 310.3826 217.9485 307.6782 L 218.30126 306.3554 L 218.7422 307.38424 C 219.3301 308.73645 220.35896 309.64772 220.7705 309.23618 C 221.00567 309.001 220.97627 308.08974 220.7411 306.06143 C 220.32957 302.7985 220.47655 299.74133 221.18204 297.38967 C 221.62298 296.00806 222.1521 295.30256 225.12108 292.2454 C 227.0318 290.30528 228.85435 288.21817 229.2365 287.60086 C 229.58925 287.01294 230.03018 286.572 230.17716 286.6602 C 230.32414 286.77778 231.2354 287.983 232.23487 289.394 C 234.1162 292.01023 237.23216 295.8611 237.52612 295.89048 C 237.6143 295.91988 237.90826 295.7435 238.17282 295.53773 C 238.64316 295.21438 238.64316 295.038 237.93766 292.71573 C 237.29095 290.54044 237.0264 289.15884 237.29095 289.15884 C 237.32035 289.15884 238.14343 289.57038 239.0841 290.0407 C 240.02476 290.54044 241.02422 290.9226 241.31818 290.9226 C 241.58274 290.9226 242.69978 291.4517 243.78742 292.1278 C 246.55063 293.80338 246.7858 293.5388 245.52178 290.1583 C 245.4336 289.92313 246.46244 289.86434 249.04927 289.98192 C 254.07596 290.1583 256.07487 289.541 261.13095 286.24865 C 265.59912 283.33847 274.2121 273.13812 278.62146 265.4952 C 279.56213 263.87844 281.0613 261.2916 281.9432 259.76303 C 284.26546 255.7946 286.47014 251.41462 287.05806 249.68026 C 287.32262 248.88658 287.93993 247.65195 288.38087 246.94645 C 288.8512 246.27035 289.43912 245.2415 289.6743 244.65358 C 289.90945 244.09506 291.0265 242.00796 292.14354 240.00904 C 294.75976 235.3057 297.78753 229.27957 299.11034 226.04603 C 299.69826 224.60563 300.49195 222.84189 300.8741 222.107 C 301.25624 221.3427 302.07932 219.2262 302.69663 217.40366 C 303.34334 215.55172 304.284 213.11187 304.81313 211.99483 C 306.22413 208.87888 307.106 206.14506 307.63513 203.20548 C 308.04667 200.82442 309.01673 196.62082 310.19256 192.15266 C 310.42773 191.27078 310.78048 189.53643 310.98625 188.3312 C 311.19202 187.12597 311.66235 184.42156 312.0445 182.33446 C 312.42665 180.24735 312.75 177.68992 312.75 176.60227 C 312.7206 174.77973 312.6912 174.69155 312.27967 175.25007 C 312.0151 175.57342 311.4272 176.66106 310.92746 177.66052 C 310.07498 179.39488 305.6656 184.53914 305.31286 184.21579 C 305.22467 184.1276 305.93017 180.95285 306.87084 177.1608 C 309.3401 167.19561 309.66344 165.04972 309.66344 157.17164 C 309.66344 151.7922 309.57525 150.20483 309.1637 148.64686 C 308.6052 146.55975 305.54803 140.15147 304.16642 138.12316 C 303.6961 137.44705 303.02 136.24182 302.69663 135.47753 C 301.81476 133.44922 300.55074 131.68547 298.6106 129.68656 C 297.64055 128.6871 296.37653 127.15852 295.75922 126.24725 C 294.3776 124.13075 289.40973 118.57494 288.52785 118.07521 C 287.99873 117.81065 287.67537 117.81065 287.20504 118.04582 C 286.38196 118.51615 286.44075 119.19225 287.3814 119.92715 C 288.2927 120.66204 290.174 124.54229 290.82072 127.07033 C 291.37924 129.21622 291.46743 135.62451 290.9677 139.15201 C 290.3798 143.62017 286.7053 152.90925 283.9127 157.08345 C 283.3542 157.87714 282.76627 158.8178 282.5899 159.11177 C 282.35473 159.5233 282.23715 158.8178 282.09017 155.9958 C 281.8256 150.58698 280.5028 146.00123 279.17998 146.00123 C 278.70965 146.00123 278.4157 147.17707 278.06294 150.70456 C 277.5632 155.84883 276.56376 160.43458 275.32913 163.37416 C 272.62472 169.84124 271.50768 172.39867 269.2736 177.30777 C 267.9214 180.21796 266.5104 183.24573 266.12824 184.0688 C 264.65845 187.12597 262.71833 192.03507 262.33618 193.74003 C 261.92464 195.59197 261.39552 202.05905 261.10156 208.84948 C 260.8958 213.87616 262.2774 229.51474 263.24745 233.01284 C 263.48262 233.8947 263.80597 235.3351 263.95295 236.18758 C 264.18812 237.5692 265.12878 240.12662 266.12824 242.15493 C 266.4516 242.74285 266.481 243.8305 266.30462 246.85826 C 266.04005 251.09126 265.0994 255.23607 263.42383 259.46907 C 262.9535 260.6743 262.2186 262.7614 261.77766 264.1136 C 260.1021 269.1109 254.31113 275.01945 249.01988 277.07716 C 246.55063 278.01783 242.5528 279.10547 241.1712 279.19366 C 239.7896 279.31124 237.20276 278.57635 235.38022 277.6063 C 233.29312 276.45985 233.20493 276.1953 233.70466 271.31558 C 234.1162 266.9356 233.91043 258.5872 233.26372 253.73688 C 233.02856 251.94374 232.6758 249.18053 232.49943 247.56376 C 232.32306 245.947 231.9409 243.41895 231.61756 241.97856 C 231.2942 240.50877 230.76508 237.86315 230.44173 236.0994 C 229.70683 232.36613 228.23704 226.48697 227.8255 225.72268 C 227.67852 225.42872 227.20819 223.87074 226.79664 222.25397 C 225.97356 218.99103 223.79827 212.9061 222.47546 210.20169 C 221.21144 207.58546 220.21198 203.29367 219.56528 197.73786 C 218.38944 187.91966 218.94796 184.48035 223.32794 174.66215 C 223.91586 173.36873 225.26806 171.10526 226.3263 169.66486 C 227.41396 168.19507 228.5898 166.49011 228.97194 165.8728 C 229.73623 164.57939 229.9126 164.72637 230.26535 167.16622 C 230.73568 170.37036 231.49997 169.81184 231.91152 165.99039 C 232.0585 164.4618 232.35245 162.66866 232.52883 162.02195 C 233.17554 159.64089 234.61593 156.28977 234.96868 156.28977 C 235.14506 156.28977 235.85056 156.8189 236.46787 157.4656 C 237.08518 158.1123 237.7319 158.64143 237.84947 158.64143 C 238.3492 158.64143 238.05524 156.7307 237.32035 155.11393 C 236.46787 153.2326 236.46787 153.35019 237.84947 149.58752 C 238.408 148.05894 238.46678 148.02954 239.34866 148.20592 C 239.87778 148.2941 241.40636 148.76444 242.78797 149.23477 C 244.16957 149.7051 245.63936 150.14604 246.0803 150.23423 C 246.52123 150.35181 247.34432 150.82215 247.87344 151.29248 C 248.72592 152.02737 249.01988 152.11556 249.93115 151.96858 C 250.69544 151.851 251.0188 151.64523 251.0188 151.29248 C 251.0188 150.79275 248.52015 145.38392 247.13855 142.91467 C 246.7858 142.26796 245.4336 140.26905 244.14017 138.5053 C 242.37643 136.06545 241.7591 134.9484 241.58274 133.94895 C 241.46516 133.21405 241.43576 132.56735 241.49455 132.50855 C 241.8473 132.1558 246.31546 133.18466 247.96163 133.97835 C 250.9012 135.44814 251.0776 134.9484 248.9317 131.00937 C 248.1086 129.48079 247.22673 127.83462 246.99157 127.39368 C 246.7564 126.95275 245.84513 126.04148 244.96326 125.39477 C 244.08138 124.74806 243.37588 124.04256 243.37588 123.8074 C 243.37588 123.60162 242.34703 122.57277 241.1124 121.57331 C 239.84839 120.57386 238.70195 119.63319 238.58437 119.5156 C 238.4374 119.39802 238.93712 118.75131 239.7014 118.04582 C 241.55334 116.34086 243.49347 113.34249 244.46353 110.72626 C 245.19842 108.72734 245.2866 108.63916 245.9921 108.84493 C 248.1086 109.43284 248.75532 108.84493 247.02096 107.90426 L 245.87453 107.31634 L 245.87453 101.87812 C 245.87453 98.90914 245.75694 96.26352 245.63936 95.99896 C 245.3454 95.41104 247.05036 94.17642 249.25505 93.44152 C 250.1957 93.11817 250.87182 92.70663 250.87182 92.47146 C 250.87182 91.82475 249.37263 92.11871 247.05036 93.20635 L 244.99265 94.14702 L 243.55226 91.20744 C 242.78797 89.56127 241.9355 87.73873 241.72972 87.12142 L 241.31818 86.00438 L 245.52178 81.53622 C 247.81465 79.09636 250.9894 75.98041 252.57677 74.598805 C 255.1342 72.36472 255.8103 71.62983 255.2518 71.62983 C 254.5757 71.62983 250.10752 75.42189 245.81574 79.68428 C 243.02313 82.41809 240.70086 84.62278 240.61268 84.53459 C 240.20114 84.09365 237.14397 78.71422 236.997 78.1557 C 236.79122 77.332615 237.87887 75.68645 241.1418 71.74741 C 243.1995 69.30756 243.9344 68.10233 243.37588 68.10233 C 243.2583 68.10233 242.05307 69.24877 240.70086 70.68916 Z M 190.581 258.20505 L 190.581 258.20505 C 190.96315 258.99874 191.60986 260.52732 192.0214 261.67375 C 192.43294 262.7908 193.05025 264.2312 193.3736 264.8485 C 193.69696 265.4658 193.87334 266.2007 193.78515 266.43588 C 193.66756 266.75923 193.52059 266.64165 193.22663 265.96554 C 192.40354 263.96663 190.37523 261.4386 188.90544 260.52732 L 187.40626 259.61605 L 188.67028 259.52786 L 189.9343 259.43967 L 189.72853 258.11686 C 189.64034 257.41136 189.61094 256.82344 189.69913 256.82344 C 189.78732 256.82344 190.16946 257.44076 190.581 258.20505 Z"
                        fill="black"/>
               </g>
            </g>
            <g>
               <path d="M 184.46668 77.27382 C 184.73124 77.80295 185.28976 78.65543 185.6719 79.18455 C 186.64197 80.44857 188.28813 83.47634 192.52113 91.76596 C 195.96044 98.527 199.25277 103.61247 201.42806 105.69957 C 202.16295 106.37568 202.80966 106.34628 202.80966 105.64078 C 202.80966 105.25864 200.75196 102.11329 200.3992 101.9663 C 199.6937 101.64295 200.4286 101.37839 202.45691 101.23141 C 203.69154 101.14322 205.45529 100.81987 206.33716 100.46712 C 207.21903 100.11437 208.924 99.64404 210.09982 99.40887 C 212.09874 98.99733 212.3045 98.99733 213.98007 99.55585 C 214.95013 99.8792 216.00838 100.14377 216.33174 100.14377 C 217.2136 100.14377 217.03724 100.79047 215.71442 102.46603 C 214.421 104.0828 214.4504 104.70012 215.77322 104.49435 C 216.5375 104.40616 218.80098 101.34899 219.85923 98.96793 C 220.21198 98.23304 221.27023 96.3811 222.2697 94.85252 C 225.0035 90.61952 225.26806 90.20798 226.79664 87.38598 C 228.82496 83.71151 228.67798 83.97607 231.353 79.97824 C 232.7052 77.97932 233.91043 76.33316 234.02801 76.33316 C 234.38076 76.33316 234.64533 77.71476 234.43956 78.44966 C 234.35137 78.8318 233.14614 80.9189 231.76454 83.09419 C 228.17825 88.6794 227.23758 90.47254 226.09115 93.67669 C 223.85706 99.8792 223.09277 106.55205 224.2392 109.6974 C 225.7972 114.07738 226.12054 114.34194 228.03127 112.78396 C 228.67798 112.25484 230.5299 111.43176 232.49943 110.75565 C 234.35137 110.10895 236.67364 109.28586 237.6437 108.87432 C 239.58382 108.08063 242.69978 107.6397 243.3465 108.05124 C 243.69924 108.2864 243.72863 108.52157 243.40528 109.60922 C 242.22945 113.48946 239.0253 117.84004 237.05578 118.1928 C 236.49726 118.31038 236.02693 118.48675 236.02693 118.60434 C 236.02693 119.10406 236.9382 120.07413 238.14343 120.86781 C 240.23053 122.27881 240.4657 122.51398 240.11295 122.95492 C 239.64261 123.54283 240.08355 124.4541 240.93603 124.68927 C 241.34757 124.77746 242.78797 125.51235 244.11078 126.33543 C 246.31546 127.62885 246.58003 127.89341 246.7564 128.86347 C 246.87398 129.48079 247.13855 130.33326 247.4031 130.8036 C 247.63828 131.27393 247.75586 131.71487 247.69707 131.80306 C 247.60888 131.86185 246.52123 131.77366 245.2866 131.56789 C 243.9932 131.36212 242.08247 131.30333 240.73026 131.39151 C 238.55497 131.56789 238.261 131.5091 236.55605 130.71541 C 234.9099 129.92172 234.67472 129.89233 234.26318 130.27447 C 233.61647 130.92118 234.1456 131.56789 236.1445 132.65553 C 237.05578 133.15526 238.67255 134.41928 239.7308 135.44814 C 241.8473 137.50584 246.31546 143.20863 246.31546 143.79655 C 246.31546 144.03171 246.40365 144.41386 246.52123 144.70782 C 246.6682 145.08996 246.60942 145.17815 246.22728 145.03117 C 245.4042 144.70782 245.63936 145.5603 246.7564 146.8831 C 247.31492 147.55921 247.78525 148.14713 247.78525 148.20592 C 247.78525 148.26471 247.5207 148.23531 247.19734 148.14713 C 246.8446 148.05894 246.60942 148.14713 246.60942 148.3529 C 246.60942 148.82323 244.6105 148.52927 242.96434 147.79438 C 241.37697 147.08888 239.99536 146.67734 238.3786 146.44217 C 236.52666 146.14821 233.02856 144.76661 230.6181 143.35561 C 229.53046 142.7089 228.5016 142.17978 228.35462 142.17978 C 227.8255 142.17978 228.09006 142.97346 228.85435 143.67896 C 229.2659 144.06111 229.76562 144.76661 229.9714 145.26634 C 230.17716 145.73667 230.94145 146.82432 231.64695 147.6768 C 232.85218 149.0878 236.37968 154.84937 236.1739 155.05514 C 236.11512 155.11393 235.67418 154.93756 235.14506 154.673 C 233.55768 153.84991 230.44173 153.35019 226.76725 153.35019 C 223.50431 153.35019 223.18096 153.2914 222.38727 152.67408 L 221.5348 151.96858 L 222.68123 148.61746 C 223.29854 146.76552 224.3274 144.29628 224.9153 143.12044 C 226.17933 140.6512 226.23812 140.41603 225.50323 140.41603 C 224.3862 140.41603 223.71008 141.62126 221.476 147.618 C 220.8587 149.23477 219.85923 151.55704 219.27132 152.76227 C 218.654 153.9969 218.0073 155.58427 217.80153 156.28977 C 217.62515 157.02466 216.94905 158.52385 216.36113 159.67029 C 215.74382 160.78733 215.0971 162.3453 214.89134 163.0802 C 214.68557 163.8151 214.06826 164.99093 213.50974 165.69643 C 212.89243 166.46072 212.51028 167.2838 212.51028 167.78353 C 212.51028 168.25386 212.3927 168.636 212.27511 168.636 C 212.12813 168.636 211.42264 168.19507 210.71714 167.63655 C 209.18855 166.49011 207.01326 165.69643 205.3377 165.69643 C 204.07368 165.69643 202.63329 166.40193 201.28108 167.69534 C 200.84014 168.10688 200.3992 168.37145 200.28162 168.28326 C 200.19343 168.19507 199.95827 167.40138 199.7525 166.5195 C 198.78244 162.60987 197.13627 156.96587 195.87225 153.2032 C 194.31427 148.52927 190.11067 139.82811 189.43457 139.82811 C 189.1994 139.82811 188.99363 139.9163 188.99363 140.00449 C 188.99363 140.35724 191.13952 145.29573 192.25657 147.52981 C 193.25602 149.49933 193.3736 149.96967 193.05025 150.29302 C 192.6975 150.67517 190.99255 151.32187 186.64197 152.76227 C 183.526 153.79112 182.29139 154.46723 180.7334 155.90762 C 179.93972 156.64252 179.20482 157.17164 179.08724 157.05406 C 178.76389 156.7307 179.49878 154.26146 180.61582 151.99798 C 181.99743 149.14658 184.02574 146.47157 185.46613 145.5603 C 186.84774 144.67842 186.96532 144.06111 185.84828 143.62017 C 184.61365 143.14984 183.5554 143.4438 179.4106 145.41332 C 177.3235 146.38338 175.26579 147.23586 174.82485 147.29465 C 173.94297 147.41223 173.796 147.50042 171.29735 149.64631 C 169.88635 150.85154 169.5336 151.02792 169.15146 150.70456 C 168.9163 150.4988 168.71052 150.14604 168.71052 149.94027 C 168.71052 148.94081 167.4465 149.67571 165.3594 151.9098 C 162.86075 154.55541 162.62559 154.43783 163.83082 151.05731 C 164.91846 147.91196 166.53523 144.796 167.85804 143.20863 C 168.53415 142.41494 169.88635 140.563 170.8858 139.09322 C 171.85587 137.65282 173.67841 135.47753 174.88364 134.2429 C 177.55866 131.56789 178.029 130.833 177.2059 130.56843 C 176.88256 130.45085 176.20645 130.48024 175.67733 130.59783 C 174.58968 130.833 169.68058 133.21405 168.9163 133.89016 C 168.65173 134.12532 168.32837 134.2429 168.2108 134.15472 C 167.91683 133.83137 169.03387 131.30333 169.91575 130.27447 C 170.38608 129.74535 170.76823 129.24562 170.76823 129.12804 C 170.76823 128.74589 169.79816 128.98106 168.97508 129.56897 C 167.97562 130.27447 167.94623 130.15689 168.71052 128.7165 C 169.38662 127.42308 170.79762 125.95329 173.8254 123.36646 C 176.91195 120.77963 177.2059 119.6038 175.9125 115.51778 C 175.1482 113.07792 174.29572 109.31526 174.29572 108.3452 C 174.29572 107.84547 174.5015 107.78668 176.35343 107.78668 C 177.9996 107.78668 179.23422 108.05124 182.1738 108.9919 C 186.4656 110.4029 187.22988 110.72626 188.90544 112.10786 C 189.9343 112.96034 190.28705 113.10732 191.05134 112.93094 L 191.93321 112.72517 L 191.93321 109.90318 C 191.93321 108.3452 191.72744 106.1993 191.49227 105.14105 C 191.2571 104.0828 190.78677 102.0251 190.46342 100.5847 C 189.78732 97.43935 187.64142 90.29617 187.0535 89.26732 C 185.99526 87.35659 185.43674 85.94559 185.17217 84.50519 C 184.9958 83.65271 184.3491 81.85957 183.70238 80.50736 C 182.58534 78.1557 182.55595 78.00872 182.96749 77.18564 C 183.5554 76.09799 183.87876 76.09799 184.46668 77.27382 Z"/>
            </g>
            <g>
               <path d="M 182.9381 81.6832 C 183.34963 82.53567 183.87876 84.21124 184.11393 85.35767 C 184.3491 86.5629 184.9958 88.29725 185.58372 89.3555 C 186.14224 90.35496 186.93592 92.41267 187.34746 93.88246 C 187.7296 95.38164 188.14115 96.70446 188.22934 96.85143 C 188.5233 97.32177 190.16946 105.4938 190.16946 106.43447 C 190.16946 107.19876 189.8461 106.75782 188.37632 103.99462 C 186.64197 100.67289 186.08344 99.82041 180.61582 92.35388 C 178.99905 90.14919 177.82322 88.23846 177.82322 87.85632 C 177.82322 87.12142 178.08778 86.5335 180.23368 82.71205 C 181.02737 81.30105 181.79166 80.15461 181.93864 80.15461 C 182.08561 80.15461 182.52655 80.86011 182.9381 81.6832 Z"/>
            </g>
            <g>
               <path d="M 237.14397 81.83017 C 237.79068 82.77084 238.58437 84.09365 238.93712 84.76976 L 239.55443 86.03378 L 237.20276 88.88517 C 233.20493 93.70608 228.14885 101.3196 226.3263 105.22924 C 225.26806 107.55151 225.20927 107.6103 224.9741 106.75782 C 224.56256 105.08226 225.32685 100.73168 226.91423 95.99896 C 228.4722 91.29563 228.70737 90.82529 231.85272 85.73982 C 234.46895 81.50682 235.40962 80.15461 235.73297 80.15461 C 235.87995 80.15461 236.52666 80.9189 237.14397 81.83017 Z"/>
            </g>
            <g>
               <path d="M 241.083 89.17913 C 241.99428 90.85469 243.37588 94.20581 243.37588 94.73494 C 243.37588 94.94071 242.34703 95.73439 241.1124 96.46929 C 236.70303 99.1737 233.76345 101.67235 229.50106 106.37568 C 227.8549 108.19822 226.4733 109.7562 226.3851 109.84438 C 226.29692 109.93257 226.3263 109.52103 226.4145 108.93311 C 226.56148 107.84547 228.41341 103.90643 229.79502 101.70174 C 233.82224 95.26406 239.28987 87.79752 239.99536 87.79752 C 240.20114 87.79752 240.67147 88.41484 241.083 89.17913 Z"/>
            </g>
            <g>
               <path d="M 180.26307 93.79427 C 184.52547 99.82041 188.37632 106.14051 188.02357 106.49326 C 187.93538 106.58145 186.64197 105.58199 185.11338 104.22978 C 181.67407 101.20201 179.44 99.52645 176.73558 98.02727 C 175.55974 97.38056 174.5309 96.76325 174.4721 96.67506 C 174.32512 96.4105 175.47156 92.82421 176.35343 90.88408 L 177.00014 89.41429 L 177.76443 90.41375 C 178.20537 90.94288 179.3224 92.47146 180.26307 93.79427 Z"/>
            </g>
            <g>
               <path d="M 244.37534 97.26298 C 244.5811 98.11545 244.55172 104.43555 244.28715 105.5232 C 244.11078 106.34628 244.08138 106.34628 241.61213 106.40507 C 239.40745 106.46387 238.79014 106.61084 236.46787 107.66909 C 235.02747 108.3158 233.23433 109.0213 232.49943 109.22707 C 231.76454 109.43284 230.47112 109.84438 229.64804 110.13834 C 228.79556 110.4323 228.09006 110.54988 228.09006 110.4323 C 228.09006 109.96197 232.94037 104.55314 235.08626 102.6718 C 237.37914 100.6435 243.1995 96.61627 243.84622 96.61627 C 244.0226 96.61627 244.25776 96.91023 244.37534 97.26298 Z"/>
            </g>
            <g>
               <path d="M 176.67679 99.64404 C 179.61637 101.3196 182.02682 103.20093 185.55432 106.58145 C 188.4939 109.40345 188.81726 110.07955 186.73015 109.0213 C 184.2609 107.75728 179.82214 106.58145 176.88256 106.40507 C 175.29518 106.31689 173.88418 106.08172 173.796 105.93474 C 173.56083 105.5526 173.61962 99.70283 173.85479 98.93854 C 173.97237 98.64458 174.14875 98.38002 174.23693 98.38002 C 174.35452 98.38002 175.44216 98.93854 176.67679 99.64404 Z"/>
            </g>
            <g>
               <g xmlns="" id="feature-0">
                  <path xmlns="http://www.w3.org/2000/svg"
                        d="M 122.88245 100.17316 C 125.49868 101.43718 126.90967 102.61301 128.43826 104.8177 C 129.02617 105.72897 130.40778 107.55151 131.49542 108.90372 C 132.55367 110.22653 133.81769 112.07847 134.28802 113.01913 C 134.75836 113.9304 135.75781 115.69415 136.49271 116.89938 C 137.2276 118.1046 137.84492 119.22165 137.84492 119.39802 C 137.84492 119.5744 138.84437 121.6909 140.0496 124.10135 C 143.5477 131.03876 143.40073 130.36266 141.96033 134.12532 C 140.46114 138.00557 140.16719 138.38772 139.19712 137.7704 C 135.43446 135.33055 135.61084 135.50693 134.64077 132.97889 C 132.96521 128.54012 131.84817 126.92335 127.4094 122.45519 C 125.14593 120.16231 122.85305 118.1046 122.32393 117.86944 C 121.61843 117.57548 120.35441 117.4873 118.20851 117.51669 C 116.00383 117.54609 114.41645 117.39911 112.91727 117.04636 C 110.91835 116.54663 110.65379 116.54663 109.09581 116.98757 C 107.00871 117.54609 106.92052 117.4873 105.18617 114.16557 C 104.06913 112.01967 103.95155 111.54934 103.95155 109.6974 C 103.95155 105.58199 106.18563 102.49543 110.80077 100.32014 C 113.18183 99.2031 114.35766 98.99733 117.85576 99.05612 C 120.3838 99.11491 120.85414 99.2325 122.88245 100.17316 Z"
                        fill="#ff0000"/>
               </g>
            </g>
            <g>
               <g xmlns="" id="feature-1">
                  <path xmlns="http://www.w3.org/2000/svg"
                        d="M 292.64326 124.77746 C 293.28997 125.54175 294.3776 126.89395 295.02433 127.77583 C 295.67103 128.6577 297.02324 130.30387 297.9933 131.39151 C 298.99276 132.50855 300.37436 134.56626 301.13865 135.94786 C 301.87355 137.35886 303.19636 139.76932 304.07824 141.2979 C 306.5181 145.5309 307.106 146.8831 307.7821 150.17544 C 308.664 154.43783 308.4582 163.0214 307.31177 169.07695 C 306.4593 173.6039 304.60736 181.3056 303.46092 184.8919 C 302.2557 188.77214 302.75542 188.71335 307.0766 184.45096 C 310.13377 181.42319 310.39834 181.21742 310.39834 181.9817 C 310.39834 183.68666 309.42827 188.94851 308.04667 194.6513 C 307.253 197.88484 306.4593 201.32415 306.28292 202.29421 C 305.54803 206.05688 304.9601 207.997 303.49032 211.40692 C 302.63784 213.34704 301.72657 215.6399 301.4032 216.463 C 301.10926 217.31547 300.7859 218.02097 300.6977 218.02097 C 300.60953 218.02097 300.28618 216.72756 299.9922 215.14018 C 298.84578 208.82008 298.0521 206.5566 297.05264 206.5566 C 296.08257 206.5566 295.8768 207.49727 295.64164 212.2594 C 295.37707 218.31493 294.90674 220.6078 293.0548 224.48805 C 292.26112 226.193 291.585 227.7216 291.585 227.89797 C 291.585 228.3683 288.9394 232.71888 288.64543 232.71888 C 288.49845 232.71888 288.35148 232.01338 288.2927 231.1903 C 288.2339 229.98507 288.0869 229.60292 287.70477 229.54413 C 287.32262 229.45594 286.99927 229.89688 286.47014 231.1021 C 285.76464 232.6307 283.70694 235.51148 283.44238 235.27631 C 283.3836 235.21752 283.61875 233.51257 283.9715 231.51365 C 284.38304 228.95621 284.6182 225.98724 284.7358 221.63666 C 284.88277 215.93387 284.85337 215.37535 284.41244 215.19897 C 283.53056 214.87562 283.11902 215.6693 281.8844 220.22566 C 280.62038 224.8702 279.0918 228.3683 277.26925 230.80815 L 276.1816 232.27794 L 275.68188 228.4271 C 274.47665 219.2556 273.71236 219.66714 271.65465 230.5142 C 271.3313 232.13096 270.89036 233.8947 270.6552 234.45323 L 270.24366 235.4527 L 269.156 231.9546 C 268.5387 230.04386 267.39226 226.45757 266.59857 224.04711 C 263.659 215.0814 262.9535 211.11296 263.0123 203.38186 C 263.07108 194.23976 263.15926 193.9164 269.3324 180.10037 C 270.39063 177.7487 272.44834 173.13357 273.94753 169.81184 C 277.47503 161.93376 278.2393 159.72908 278.79784 155.84883 C 279.41515 151.58644 279.53273 150.99852 279.7973 150.99852 C 280.32642 150.99852 280.79675 154.87877 280.73796 158.8472 C 280.70856 162.08074 280.79675 163.0508 281.0613 163.0508 C 282.41352 163.0214 288.64543 152.23314 290.2916 147.08888 C 293.0254 138.44651 293.61333 128.42254 291.585 124.4541 C 290.79133 122.98431 291.20287 123.0725 292.64326 124.77746 Z"
                        fill="#ff0000"/>
               </g>
            </g>
            <g>
               <path d="M 240.08355 132.97889 C 240.23053 133.50801 239.40745 133.44922 238.93712 132.8907 C 238.61376 132.47916 238.64316 132.44976 239.26047 132.53795 C 239.64261 132.56735 239.99536 132.80251 240.08355 132.97889 Z"/>
            </g>
            <g>
               <path d="M 144.312 134.41928 C 144.312 134.68385 144.75293 136.21243 145.31145 137.8586 C 145.86997 139.50476 146.60487 142.17978 146.95762 143.76715 C 147.36916 145.64848 148.01587 147.47102 148.78016 148.91142 C 150.01478 151.26308 150.6027 152.82106 150.89666 154.6142 C 151.42578 157.64197 157.42253 160.69914 162.89015 160.69914 C 165.00665 160.69914 165.15363 160.72853 165.24181 161.34585 C 165.3006 161.90437 165.56517 162.05135 166.7116 162.16893 L 168.0932 162.3159 L 165.3006 164.81455 C 162.15525 167.60715 160.92063 169.13574 158.77474 172.75142 C 157.95165 174.13303 156.57005 176.22013 155.65878 177.42536 C 153.4541 180.36494 153.4541 180.51192 156.2173 180.30615 C 157.42253 180.21796 158.42199 180.24735 158.42199 180.36494 C 158.42199 180.48252 158.01044 180.95285 157.54011 181.42319 C 156.8934 182.0405 156.36428 182.27567 155.65878 182.24627 C 154.36536 182.21687 151.89612 181.3938 151.01424 180.71769 C 150.6321 180.45312 149.75022 179.9828 149.01533 179.71823 C 147.31037 179.07152 144.54716 177.39596 144.37079 176.92563 C 144.312 176.69046 144.84112 176.30832 145.75239 175.92617 C 148.13345 174.92671 147.63372 174.22121 144.312 173.80967 C 142.31308 173.5745 140.7845 173.10417 140.7845 172.72203 C 140.7845 172.54565 141.01966 172.54565 141.34302 172.75142 C 142.1367 173.16296 142.54825 173.13357 142.54825 172.60444 C 142.54825 172.07532 139.22652 169.28272 136.84546 167.81293 L 135.1405 166.75468 L 135.31688 165.31428 C 135.43446 164.5206 136.11056 162.19833 136.84546 160.17001 C 138.78558 154.79058 138.84437 151.7922 137.257 141.70944 C 136.90425 139.59295 136.87486 138.35832 137.16881 138.35832 C 137.2864 138.35832 137.87431 138.71107 138.46223 139.12261 C 139.46169 139.82811 139.66746 139.8575 140.63752 139.53415 C 141.72516 139.1814 142.07791 138.74047 142.34248 137.32947 C 142.78341 135.0072 144.312 132.74372 144.312 134.41928 Z"/>
            </g>
            <g>
               <path d="M 234.0868 146.73613 C 234.99808 147.14767 235.99753 147.47102 236.3209 147.47102 C 236.61485 147.47102 236.9382 147.5886 237.0264 147.73559 C 237.23216 148.05894 236.05633 151.58644 235.70358 151.58644 C 235.5566 151.58644 235.23324 151.1455 234.96868 150.61638 C 234.70412 150.11665 234.0574 149.0878 233.52829 148.3529 C 232.6758 147.11827 232.0879 146.00123 232.32306 146.00123 C 232.38185 146.00123 233.17554 146.32459 234.0868 146.73613 Z"/>
            </g>
            <g>
               <path d="M 194.66702 153.9675 C 195.75467 157.31862 197.6066 163.96207 198.48848 167.84232 C 199.37035 171.60499 200.3992 173.78028 202.25114 175.80859 C 203.60335 177.27838 203.66214 177.30777 205.3377 177.30777 C 208.65943 177.27838 210.80532 176.16134 211.746 174.01544 C 212.03995 173.39813 212.62786 172.10471 213.0982 171.13465 C 213.53913 170.1646 214.21524 168.636 214.56799 167.75413 C 216.44932 163.0802 217.47817 160.75793 218.0367 159.81726 C 218.38944 159.25874 219.00675 157.73016 219.4183 156.43675 C 220.0944 154.23206 221.00567 152.43892 221.03507 153.2914 C 221.03507 154.02629 223.21036 154.6142 227.0612 154.84937 C 229.1777 154.99635 231.49997 155.20212 232.26427 155.3197 L 233.64587 155.55487 L 232.6758 157.78895 C 232.14668 159.02358 231.52937 160.69914 231.3236 161.55162 C 230.94145 163.19778 230.44173 163.8151 230.5299 162.58047 C 230.6475 161.05189 229.8538 161.49283 228.97194 163.46235 C 228.4722 164.55 227.64912 165.9022 227.12 166.5195 C 225.6208 168.25386 224.44498 169.84124 223.29854 171.72257 C 222.1521 173.6039 218.88917 181.80533 218.21307 184.50975 C 217.243 188.39 217.41938 195.15103 218.7128 202.4412 C 219.3595 206.08627 220.32957 209.14344 222.887 215.37535 C 223.79827 217.58004 224.9153 220.87237 225.41504 222.7243 C 225.88537 224.57624 226.5027 226.69274 226.76725 227.42763 C 227.8255 230.3966 230.35354 242.21373 231.00025 247.2698 C 231.9997 254.88332 232.32306 258.93994 232.32306 264.61334 C 232.35245 269.61062 232.26427 271.1686 231.82333 272.84416 C 230.7063 277.16535 230.44173 278.78212 230.6475 279.37003 C 230.88266 279.95795 231.61756 279.25245 231.61756 278.45876 C 231.61756 278.1354 231.76454 277.63568 231.91152 277.4005 C 232.17608 277.01837 232.26427 277.01837 232.52883 277.4593 C 232.99916 278.3118 235.14506 279.37003 237.6437 280.07553 C 240.67147 280.8986 243.46407 280.72224 247.25613 279.45822 C 251.40094 278.04722 253.89958 276.48924 257.3095 273.13812 C 261.4837 269.0521 262.04222 268.11144 264.65845 260.90946 C 266.86314 254.85393 267.56864 250.65032 267.42166 244.77116 C 267.33347 240.86152 267.27468 240.3912 266.53978 238.892 C 265.36395 236.51094 264.01174 230.16144 263.512 224.8408 C 263.27685 222.31276 262.9829 219.69653 262.8947 219.04983 C 262.54195 216.75695 263.27685 218.4619 265.0994 224.1941 C 268.5975 235.12934 268.89145 236.0994 269.36178 237.74556 C 269.8909 239.6857 270.44943 240.303 271.00795 239.6269 C 271.2725 239.30354 271.2725 238.9802 271.06674 238.36287 C 270.83157 237.68677 270.89036 237.24583 271.3313 236.24638 C 271.9486 234.86477 272.91867 231.2491 273.21263 229.19138 C 273.30082 228.45649 273.4772 227.45703 273.56538 226.9867 C 273.71236 226.13422 273.74176 226.13422 273.97692 226.78092 C 274.1239 227.13367 274.32967 228.69165 274.41786 230.24963 C 274.65303 233.42438 274.947 234.0711 276.09342 233.77713 C 277.7102 233.39498 281.03192 227.6334 282.32533 223.01826 C 283.64815 218.22674 283.8833 218.69708 283.3542 225.22295 C 282.91325 230.57298 282.03138 235.3645 281.00252 237.89254 C 280.5322 239.12717 280.12065 240.15602 280.12065 240.2442 C 280.12065 240.303 280.4146 240.3618 280.79675 240.3618 C 281.32588 240.3618 282.06077 239.5975 284.0303 236.98127 C 286.29377 233.9535 286.55833 233.68894 286.64652 234.42384 C 286.7347 235.09994 286.8523 235.21752 287.5872 235.15873 C 288.763 235.07054 289.5861 234.18867 290.8795 231.71942 C 291.46743 230.57298 292.67266 228.3683 293.52514 226.83972 C 296.0238 222.34216 296.6117 220.19626 296.81747 214.69925 C 296.90566 211.5833 297.05264 210.1429 297.2584 210.34867 C 297.66995 210.7602 298.90457 217.25668 298.93397 219.07922 C 298.93397 219.8729 299.08095 220.696 299.22793 220.84297 C 299.4337 221.04874 299.3455 221.57787 298.93397 222.54793 C 298.6106 223.31222 298.34605 224.0765 298.34605 224.2235 C 298.34605 224.66443 293.46635 234.80598 292.05535 237.27523 C 291.32045 238.56865 290.14462 240.74394 289.43912 242.12554 C 288.73362 243.50714 287.82235 245.1827 287.3814 245.8588 C 286.94048 246.5643 286.26437 247.9459 285.88223 248.94537 C 284.5594 252.50226 282.5017 256.26492 276.06403 266.965 C 275.4761 267.93506 274.2121 269.7282 273.27142 270.93343 C 272.33076 272.13866 271.06674 273.78483 270.44943 274.6079 C 267.0689 279.07607 262.8359 283.27968 259.24962 285.69013 C 255.9573 287.9242 249.93115 289.18823 247.69707 288.13 C 246.90338 287.77724 246.49184 287.71844 246.22728 287.9242 C 245.9921 288.13 245.69815 288.13 245.4336 287.983 C 245.19842 287.80663 244.6399 287.68905 244.19897 287.68905 C 243.37588 287.68905 243.2289 287.9536 243.37588 289.27642 C 243.40528 289.57038 243.3171 289.74675 243.1701 289.68796 C 243.05253 289.62917 242.5528 289.394 242.11186 289.15884 C 241.43576 288.8355 241.23 288.8355 241.0536 289.12944 C 240.73026 289.59978 240.17174 289.3352 238.23162 287.71844 C 236.82062 286.5426 235.93874 286.24865 235.6154 286.77778 C 235.40962 287.10113 236.2327 291.4223 236.76183 292.8333 L 236.997 293.42123 L 236.37968 292.8333 C 236.05633 292.50996 234.64533 290.65802 233.23433 288.7179 C 231.05904 285.74892 230.7063 285.07282 230.82387 284.30853 C 230.88266 283.8382 230.88266 283.25028 230.82387 283.0445 C 230.50052 282.16264 229.79502 282.89753 228.5604 285.42557 C 227.41396 287.83603 226.91423 288.45334 224.2686 291.04017 C 220.97627 294.21492 219.91802 295.97867 219.3007 299.3004 C 219.12434 300.24106 218.7422 301.2993 218.41884 301.62266 C 217.53696 302.62212 217.243 303.357 216.89026 305.6499 C 216.44932 308.5013 215.9496 309.7359 215.1853 309.7359 C 214.421 309.7359 213.33336 311.38207 212.62786 313.52797 C 212.12813 315.05655 212.12813 315.14474 212.74545 316.32057 C 213.0982 316.96728 213.95067 318.8192 214.68557 320.4066 C 215.42047 321.96456 216.5963 324.13986 217.3018 325.2569 C 219.85923 329.13714 220.68232 330.48935 221.32902 331.75337 C 221.68177 332.48827 224.06283 335.1927 226.64967 337.8971 C 232.58762 344.01142 234.32197 346.01034 235.17445 347.6271 C 235.82116 348.89113 235.82116 349.0087 235.4978 352.4774 C 235.32143 354.44694 234.8217 357.29833 234.43956 358.8269 C 234.02801 360.3555 233.4989 363.0305 233.23433 364.73547 C 232.99916 366.44043 232.49943 368.7627 232.17608 369.87974 C 231.353 372.67234 230.32414 376.64078 229.55985 380.1095 C 228.82496 383.4018 228.5604 383.3724 228.29583 379.9919 C 228.20764 378.78667 227.70792 376.05286 227.20819 373.96576 C 226.20873 369.76216 225.12108 367.64566 223.5925 366.88137 C 222.76942 366.44043 222.53425 366.44043 220.8293 366.91076 C 219.80044 367.2047 218.88917 367.3517 218.80098 367.2929 C 218.7422 367.2047 218.94796 366.29345 219.27132 365.2352 C 220.065 362.67776 220.7411 358.06262 220.7411 355.27 C 220.7411 352.44802 219.88863 350.5961 217.44878 348.24442 C 216.03778 346.8628 215.36167 346.4219 213.7449 345.95155 C 212.65726 345.5988 211.18747 345.24605 210.45257 345.15786 C 209.71768 345.04028 207.57178 344.56994 205.69045 344.0996 C 201.869 343.15895 201.31048 343.10015 199.48794 343.5999 C 198.3121 343.89384 198.10633 343.86445 196.84231 343.10015 C 195.69588 342.45345 195.37252 342.36526 194.99038 342.6886 C 194.7552 342.8944 194.57883 343.33532 194.60823 343.65867 C 194.69642 344.7757 194.57883 344.8345 193.78515 344.0702 C 193.31481 343.65867 192.37415 342.95317 191.69805 342.51224 C 190.16946 341.60097 189.17 339.63145 187.8766 335.0751 C 186.84774 331.5182 186.28922 331.19485 185.58372 333.81108 C 185.28976 334.78114 184.9664 335.51603 184.84882 335.42785 C 184.05513 334.9575 182.40897 326.6091 182.08561 321.49423 C 181.99743 319.96565 181.70347 317.05546 181.4389 315.02715 C 181.14495 312.79307 180.93918 309.0304 180.93918 305.4735 C 180.90978 300.5644 181.02737 298.97704 181.58589 295.7729 C 183.08507 287.2775 185.46613 280.86922 189.05242 275.54858 C 191.40409 272.07987 194.49065 268.4348 196.72473 266.55346 C 199.37035 264.31938 200.4874 262.96717 202.16295 260.14517 C 202.83906 258.96934 203.51516 257.96988 203.66214 257.8817 C 203.80912 257.7641 204.07368 258.11686 204.25006 258.5872 C 204.51462 259.41028 205.45529 259.8512 205.45529 259.1751 C 205.45529 258.99874 205.83743 258.88115 206.33716 258.88115 C 207.07205 258.88115 207.21903 258.73417 207.4836 257.7641 C 207.95393 256.08855 207.89514 249.62147 207.4248 249.20993 C 206.8369 248.7396 206.63112 249.12174 206.63112 250.65032 C 206.63112 251.91434 206.60172 252.00253 205.83743 251.97314 C 205.10254 251.97314 205.01435 252.09072 204.7204 253.50172 C 204.54402 254.44238 204.13247 255.35365 203.66214 255.85338 C 203.2212 256.29432 202.33933 257.58774 201.69262 258.73417 C 200.4874 260.82128 195.37252 266.2301 195.10796 265.75977 C 195.01977 265.6128 194.8434 264.9661 194.7552 264.31938 C 194.63763 263.67267 194.1967 262.55563 193.78515 261.82073 C 193.3736 261.08584 192.81509 259.91 192.52113 259.1751 C 191.60986 256.91163 189.02303 252.61984 187.70021 251.23824 C 185.40734 248.82778 182.02682 244.65358 180.90978 242.86043 C 180.29247 241.89037 179.61637 240.9791 179.4106 240.86152 C 179.02845 240.65575 178.76389 239.86206 177.82322 236.1582 C 177.2647 234.0417 175.9419 234.33565 175.55974 236.65792 C 175.47156 237.24583 175.29518 237.80435 175.1776 237.86315 C 174.97183 238.01013 173.41385 234.0711 173.41385 233.42438 C 173.41385 233.248 173.20808 232.92465 172.94352 232.68948 C 172.67895 232.4837 171.76768 230.86694 170.8858 229.1326 C 169.94514 227.28065 169.12206 225.95784 168.8575 225.95784 C 168.24019 225.95784 167.82865 226.9279 167.79925 228.51528 C 167.79925 229.27957 167.68167 230.19084 167.56408 230.5142 C 167.35831 231.01392 167.18194 230.83755 166.44704 229.33836 C 164.6245 225.66388 162.33163 219.2556 162.5962 218.5501 C 162.68438 218.34433 163.47807 217.93279 164.33054 217.63883 C 169.79816 215.7575 171.20916 215.0814 173.7666 212.9355 C 174.91304 211.99483 175.207 211.87725 175.35397 212.2594 C 175.8243 213.46462 177.14712 211.90664 177.67624 209.55498 C 177.82322 208.87888 178.11718 208.49673 178.6463 208.29096 C 179.64576 207.90881 179.88093 207.52667 179.88093 206.32144 C 179.88093 205.2338 180.17489 205.1162 180.70401 205.9687 C 180.90978 206.29204 181.35072 206.5566 181.67407 206.5566 C 182.262 206.5566 182.29139 206.46842 182.05622 205.1456 C 181.5565 202.29421 181.73286 200.38349 182.76172 198.12 C 183.84936 195.68016 183.96695 194.50432 183.14386 194.50432 C 182.73232 194.50432 182.37957 195.15103 181.5565 197.5027 C 180.96857 199.17826 180.46884 200.85382 180.41005 201.26536 C 180.35126 201.82388 180.1161 202.02965 179.52818 202.08844 C 178.52872 202.20603 178.29355 202.88213 178.55812 205.08682 C 178.7345 206.70359 178.7051 206.79177 178.20537 206.6742 C 177.58806 206.49781 176.32404 207.76183 175.44216 209.408 C 174.76606 210.64262 171.20916 213.40583 169.26904 214.19952 C 168.38717 214.55227 167.00556 215.16958 166.21188 215.55172 C 165.3888 215.93387 164.50692 216.25722 164.27175 216.25722 C 164.00719 216.25722 163.06652 216.58058 162.15525 216.99212 C 161.27338 217.40366 159.50963 217.93279 158.24561 218.19735 C 155.68818 218.66768 155.21784 218.96164 155.74697 219.60835 C 156.04092 219.9611 155.92334 220.04928 155.15905 220.22566 C 152.6898 220.78418 149.98539 220.81357 147.63372 220.34324 C 145.07629 219.81412 144.2532 219.37318 142.40127 217.46245 C 141.22544 216.22783 140.31417 215.93387 140.0202 216.66877 C 139.93202 216.90393 140.16719 217.49185 140.51994 217.99158 C 141.37241 219.1674 141.13725 219.37318 139.87323 218.5501 C 139.3147 218.16795 138.49162 217.69762 138.05069 217.46245 C 137.60975 217.22729 135.9048 215.90447 134.25863 214.52287 C 132.64186 213.14127 130.87811 211.73027 130.37838 211.37752 C 129.87865 211.02477 127.85034 209.29042 125.85143 207.49727 C 119.94287 202.17663 116.50356 200.73624 104.2749 198.35517 C 101.71746 197.85545 99.16003 197.4439 98.54272 197.4145 C 97.54326 197.4145 97.51386 197.38511 98.10178 197.14995 C 98.48392 196.97357 99.60097 196.7678 100.60042 196.65022 C 101.86444 196.47384 102.42296 196.29747 102.42296 196.0035 C 102.42296 195.59197 100.39465 194.23976 98.21936 193.15212 C 97.69024 192.88755 97.30809 192.5936 97.39628 192.5348 C 97.54326 192.38782 103.86336 193.12272 108.00817 193.76943 C 113.24062 194.56311 117.26785 194.82768 125.20472 194.85707 C 132.43609 194.88647 133.55313 194.82768 135.78721 194.26916 C 137.16881 193.9458 139.96142 193.2697 142.01912 192.76997 C 144.04743 192.27024 146.75185 191.38837 148.04526 190.80045 C 149.30928 190.24193 151.45518 189.30126 152.83678 188.74274 C 155.65878 187.56691 156.2467 187.12597 155.95274 186.42047 C 155.80576 186.03833 155.5412 185.95014 154.89449 186.09712 C 154.39476 186.1853 154.01261 186.2147 154.01261 186.15591 C 154.01261 186.12652 154.7475 185.568 155.62938 184.95068 C 157.48132 183.68666 160.33271 180.71769 160.62667 179.77702 C 160.95003 178.80696 160.18573 178.39542 158.3632 178.5718 L 156.83461 178.71877 L 157.5695 177.54294 C 157.95165 176.89623 159.12749 174.92671 160.18573 173.16296 C 162.86075 168.6654 167.79925 163.96207 171.5913 162.28651 C 173.0611 161.6104 173.50204 160.9637 172.76714 160.52276 C 172.59077 160.40518 171.50312 160.34639 170.38608 160.37578 C 168.47535 160.43458 168.32837 160.40518 168.71052 159.96424 C 169.563 158.906 177.82322 153.05623 178.44053 153.05623 C 178.58751 153.05623 178.55812 153.37958 178.41114 153.76173 C 178.26416 154.17327 178.11718 155.43729 178.05839 156.64252 C 177.9702 158.78841 177.9702 158.78841 178.76389 158.8766 C 179.3812 158.96479 179.82214 158.67083 180.7922 157.61258 C 182.46776 155.79004 183.73178 155.08454 188.22934 153.49716 C 190.28705 152.76227 192.28596 151.96858 192.60932 151.73342 C 192.96207 151.49825 193.3736 151.32187 193.54998 151.38067 C 193.69696 151.43946 194.1967 152.5859 194.66702 153.9675 Z"/>
            </g>
            <g>
               <path d="M 210.45257 169.69426 L 211.33445 170.72311 L 210.335 172.69263 C 209.39432 174.54457 209.21795 174.72094 207.68937 175.36765 C 206.57233 175.80859 205.77864 175.98496 205.19072 175.83798 C 204.16187 175.63221 202.25114 173.6333 201.33987 171.89894 L 200.72256 170.66432 L 201.33987 169.90003 C 202.01598 169.04755 203.60335 167.87172 204.6322 167.48957 C 205.71985 167.07803 209.36493 168.48903 210.45257 169.69426 Z"/>
            </g>
            <g>
               <g xmlns="" id="feature-2">
                  <path xmlns="http://www.w3.org/2000/svg"
                        d="M 67.735905 179.65944 C 68.70597 179.924 70.23455 180.45312 71.11642 180.83527 C 71.9983 181.18802 73.85023 181.95231 75.23184 182.48144 C 76.61344 183.03996 80.11154 184.68612 83.02173 186.15591 C 85.93191 187.6257 89.13606 189.1249 90.10612 189.50703 C 91.25255 189.91858 92.75174 190.80045 94.07455 191.9175 C 95.27978 192.88755 96.83776 194.0046 97.54326 194.44553 C 99.10124 195.3568 98.92486 195.50378 95.1328 196.26807 C 93.66301 196.56203 92.39899 196.94418 92.3402 197.12055 C 92.19322 197.5321 85.07943 197.5321 74.37936 197.14995 L 66.58947 196.88538 L 62.76801 195.65076 C 58.79958 194.38674 55.595434 192.65239 54.36081 191.06501 C 53.09679 189.44824 52.861624 185.68558 53.89048 183.24573 C 54.537185 181.68775 56.47731 179.8946 58.09408 179.36548 C 59.85783 178.80696 65.17847 178.95394 67.735905 179.65944 Z"
                        fill="#ff0000"/>
               </g>
            </g>
            <g>
               <path d="M 171.50312 236.8637 C 171.6795 236.89308 172.14983 236.8049 172.56137 236.7167 C 173.26687 236.51094 173.35506 236.59913 173.64902 237.80435 C 173.85479 238.53925 174.26633 239.74448 174.58968 240.50877 C 175.06002 241.6258 175.29518 241.86098 175.8243 241.7728 C 176.41222 241.6846 176.5298 241.47883 176.64739 240.06783 L 176.79437 238.45106 L 177.9408 241.36125 C 178.94026 243.94808 179.29301 244.4772 181.05676 246.21156 C 182.1444 247.2698 184.11393 249.3569 185.40734 250.8267 C 187.40626 253.06078 187.8178 253.6781 187.8178 254.50118 C 187.8178 255.0597 187.93538 256.00036 188.08236 256.58828 C 188.40571 257.9111 188.25874 257.9405 186.31861 256.94103 C 184.67245 256.11795 183.32024 256.08855 183.17326 256.88224 C 183.02628 257.58774 185.20157 259.8512 187.49444 261.3798 C 188.5821 262.0853 189.66973 262.90838 189.9637 263.20234 C 190.75738 264.1136 192.22717 267.20017 192.22717 268.05265 C 192.22717 268.58177 191.40409 269.90458 189.72853 272.16806 C 187.67082 274.90187 185.96586 277.72387 184.3197 281.16318 C 183.26145 283.39726 183.32024 283.36786 181.35072 283.9264 C 179.14603 284.5437 173.23747 284.6319 169.5924 284.13215 C 167.00556 283.75 167.27013 283.75 163.71323 284.16155 C 158.51017 284.74947 152.0137 285.9253 150.42632 286.5426 C 147.33976 287.74784 138.84437 292.06902 136.96304 293.39184 C 134.78775 294.89102 130.76053 297.38967 130.46657 297.38967 C 130.34898 297.38967 130.17261 296.5666 130.05503 295.53773 C 129.76107 292.9509 128.93799 291.33413 127.32122 290.30528 C 126.58632 289.83494 125.67505 289.4528 125.2929 289.4528 C 124.49922 289.4528 124.38164 288.92367 125.14593 288.6591 C 125.41049 288.54153 126.7627 287.80663 128.1443 287.01294 C 136.49271 282.19203 146.72245 278.1648 152.92497 277.22414 C 154.57113 276.98897 157.39313 276.51864 159.15688 276.22468 C 160.95003 275.90133 163.38988 275.57797 164.5951 275.4604 C 167.00556 275.25462 167.82865 274.96066 167.82865 274.31395 C 167.82865 273.3733 166.35885 272.96175 158.275 271.66833 C 151.36699 270.5513 149.39747 270.11035 147.42795 269.28727 C 146.4285 268.87573 144.60595 268.17023 143.34193 267.7293 C 142.10731 267.25896 140.57873 266.55346 139.96142 266.1713 C 138.55042 265.20125 134.55259 261.85013 134.14104 261.2622 C 133.84709 260.85067 133.22977 257.9111 132.70065 254.3836 C 132.46548 252.9138 131.84817 252.70803 130.76053 253.76628 L 129.84926 254.61876 L 130.05503 253.44293 C 130.14321 252.79622 130.2902 252.00253 130.34898 251.64978 C 130.43717 251.29703 131.73059 249.82724 133.28857 248.35745 C 134.81715 246.88766 136.08117 245.56485 136.08117 245.41787 C 136.08117 245.2415 135.9048 245.06512 135.69902 244.97693 C 135.31688 244.82995 133.024 245.1827 131.90696 245.53545 C 130.9075 245.8294 131.40723 245.1533 133.11219 243.8011 C 137.40398 240.42058 146.13454 237.24583 152.24887 236.8343 C 155.01207 236.65792 170.44487 236.65792 171.50312 236.8637 Z"/>
            </g>
            <g>
               <path d="M 206.66051 256.5295 C 206.24897 258.41082 205.74924 258.70478 205.74924 257.02922 C 205.74924 256.05915 205.89622 255.58882 206.24897 255.38305 C 206.95447 255.0009 206.98387 255.0891 206.66051 256.5295 Z"/>
            </g>
            <g>
               <g xmlns="" id="feature-3">
                  <path xmlns="http://www.w3.org/2000/svg"
                        d="M 126.52753 291.80446 C 127.85034 292.62754 128.29128 293.86217 128.29128 296.71356 L 128.29128 299.1534 L 126.35115 301.12293 C 125.26351 302.23997 123.73493 304.1213 122.91184 305.32654 C 121.44205 307.50183 118.53187 310.35322 116.62114 311.47026 C 116.09202 311.7936 114.65162 312.26395 113.44639 312.5285 C 110.68319 313.08703 109.184 313.73374 108.59608 314.645 C 108.03756 315.4975 105.6565 316.58513 102.21719 317.5552 C 98.24876 318.67223 97.07293 318.43707 95.89709 316.34996 C 94.86824 314.55682 95.01522 313.64555 96.92595 310.00047 C 98.42513 307.0609 98.98365 306.2966 102.09961 303.06306 C 104.65704 300.38804 106.15623 299.09462 107.68481 298.21275 C 108.83125 297.56604 110.44802 296.62537 111.24171 296.12565 C 116.32718 293.06848 118.67885 292.01023 121.61843 291.5105 C 124.11707 291.09896 125.52807 291.18715 126.52753 291.80446 Z"
                        fill="#ff0000"/>
               </g>
            </g>
            <g>
               <g xmlns="" id="feature-4">
                  <path xmlns="http://www.w3.org/2000/svg"
                        d="M 224.20981 369.4682 C 224.73894 370.35007 226.12054 375.46494 226.88483 379.404 C 227.0612 380.28586 227.20819 382.6669 227.23758 384.69523 C 227.29637 388.19333 227.26698 388.4873 226.3851 390.75077 C 225.85598 392.0736 225.0329 393.74914 224.53317 394.48403 C 223.50431 396.042 220.41775 399.011 217.68394 401.0981 C 215.8908 402.4503 215.06772 402.86184 211.18747 404.24344 C 210.39378 404.5374 208.45366 405.2429 206.92508 405.8014 C 204.42643 406.7127 203.75033 406.83027 200.458 406.94786 C 197.04808 407.06544 196.69533 407.03605 195.4607 406.38934 C 193.93213 405.59565 192.81509 403.7437 192.81509 401.97997 C 192.81509 400.56897 194.0497 399.30495 198.2533 396.48295 C 206.0726 391.2211 207.95393 389.2222 212.56907 381.3441 C 213.7743 379.2864 215.59684 375.7001 217.53696 371.5847 C 217.83092 370.938 218.33065 370.1737 218.6246 369.90913 C 219.4771 369.14484 221.09386 368.55693 222.41667 368.52753 C 223.47492 368.52753 223.71008 368.6451 224.20981 369.4682 Z"
                        fill="#ff0000"/>
               </g>
            </g>
            <g>
               <g xmlns="" id="outline-1">
                  <path xmlns="http://www.w3.org/2000/svg"
                        d="M 86.81379 327.4322 L 86.25527 328.1083 L 86.93137 327.54977 C 87.54868 327.02064 87.72506 326.78548 87.48989 326.78548 C 87.4311 326.78548 87.13714 327.07944 86.81379 327.4322 Z"
                        fill="black"/>
               </g>
            </g>
            <g>
               <g xmlns="" id="outline-2">
                  <path xmlns="http://www.w3.org/2000/svg"
                        d="M 219.77105 111.51994 C 219.3301 111.93149 219.56528 112.78396 220.1238 112.78396 C 220.88809 112.78396 221.18204 112.28424 220.7411 111.75511 C 220.32957 111.28478 220.065 111.19659 219.77105 111.51994 Z"
                        fill="black"/>
               </g>
            </g>
            <g>
               <g xmlns="" id="outline-3">
                  <path xmlns="http://www.w3.org/2000/svg"
                        d="M 194.43186 112.19605 C 194.34367 112.34303 194.40246 112.72517 194.57883 113.04853 C 195.01977 113.9304 194.93158 114.10678 194.0791 114.10678 C 192.7563 114.10678 192.90327 114.6359 194.46125 115.51778 C 196.225 116.54663 197.04808 117.28152 198.13573 118.78071 C 199.13519 120.13292 199.22337 120.57386 198.4003 120.13292 C 198.07694 119.95654 197.6654 119.89775 197.51842 119.98594 C 196.84231 120.39748 197.34204 121.04419 199.37035 122.3376 C 200.95773 123.33706 201.66323 123.98377 202.01598 124.77746 C 202.78027 126.51181 203.8679 127.68764 204.27945 127.2761 C 204.77918 126.80577 204.27945 125.48296 202.80966 123.42525 C 202.16295 122.48458 201.31048 121.33815 200.95773 120.83842 C 199.37035 118.57494 198.19452 117.01696 197.31265 115.98811 C 196.78352 115.40019 196.34258 114.72409 196.34258 114.48892 C 196.34258 112.98974 194.96098 111.34357 194.43186 112.19605 Z"
                        fill="black"/>
               </g>
            </g>
            <g>
               <g xmlns="" id="outline-4">
                  <path xmlns="http://www.w3.org/2000/svg"
                        d="M 219.00675 114.54771 C 218.47763 115.19442 217.88971 115.72355 217.71334 115.69415 C 216.91965 115.60596 216.6551 115.78234 215.8908 116.92877 C 214.68557 118.75131 211.0405 125.8945 211.0405 126.42362 C 211.0405 127.89341 212.80424 125.65933 214.4504 122.16123 C 214.80315 121.42633 215.47926 120.36808 216.00838 119.78017 C 216.5963 119.10406 216.91965 118.42796 216.91965 117.86944 C 216.91965 116.7818 217.15482 116.54663 217.80153 116.89938 C 218.36005 117.19334 219.4183 116.25267 220.1532 114.75348 C 220.8587 113.34249 220.0944 113.1955 219.00675 114.54771 Z"
                        fill="black"/>
               </g>
            </g>
            <g>
               <g xmlns="" id="outline-5">
                  <path xmlns="http://www.w3.org/2000/svg"
                        d="M 225.0035 121.04419 C 224.3568 121.6909 222.8282 122.98431 221.62298 123.89558 C 218.36005 126.36483 217.09603 127.74643 215.9202 130.15689 C 214.71497 132.71433 213.7155 136.74155 214.18584 137.21188 C 214.421 137.44705 214.68557 137.44705 215.06772 137.21188 C 215.39107 137.0649 216.5669 136.82974 217.68394 136.71216 C 220.24138 136.47699 221.18204 136.03605 222.8576 134.3017 C 224.50377 132.62614 225.44444 130.0687 225.6502 126.89395 C 225.7972 124.60108 226.3263 122.54337 227.0612 121.51452 C 227.35517 121.10298 227.38456 120.77963 227.1788 120.36808 C 226.73785 119.5744 226.26752 119.72138 225.0035 121.04419 Z"
                        fill="black"/>
               </g>
            </g>
            <g>
               <g xmlns="" id="feature-5">
                  <path xmlns="http://www.w3.org/2000/svg"
                        d="M 224.56256 125.36537 C 224.56256 126.6294 223.41613 130.45085 222.62244 131.80306 C 221.5054 133.71378 220.21198 134.53687 217.88971 134.83082 C 216.80207 134.9778 215.8614 135.0366 215.8026 134.9778 C 215.47926 134.65445 217.71334 129.98052 218.7716 128.77529 C 220.0944 127.2761 223.5925 124.54229 224.20981 124.54229 C 224.41558 124.54229 224.56256 124.89504 224.56256 125.36537 Z"
                        fill="#ff0000"/>
               </g>
            </g>
            <g>
               <g xmlns="" id="outline-6">
                  <path xmlns="http://www.w3.org/2000/svg"
                        d="M 185.08399 120.33869 C 184.73124 120.69144 184.87822 121.6321 185.31915 121.77908 C 185.96586 122.04365 187.55324 125.33598 187.8178 127.04093 C 187.96478 127.89341 188.67028 129.83354 189.37578 131.39151 C 190.6398 134.06653 190.75738 134.21351 191.84502 134.50747 C 193.78515 135.0366 196.07802 135.41874 197.25385 135.41874 C 198.01814 135.41874 198.63546 135.6539 199.25277 136.18303 C 200.63437 137.32947 201.1635 136.97672 200.92833 135.0366 C 200.458 131.36212 197.10687 127.18791 192.0802 124.10135 C 190.78677 123.30767 189.2582 122.27881 188.64088 121.83788 C 188.05296 121.36754 187.1123 120.80902 186.52438 120.57386 C 185.31915 120.07413 185.34855 120.07413 185.08399 120.33869 Z"
                        fill="black"/>
               </g>
            </g>
            <g>
               <g xmlns="" id="feature-6">
                  <path xmlns="http://www.w3.org/2000/svg"
                        d="M 191.19832 125.39477 C 193.87334 127.09973 196.40138 129.3926 197.6654 131.30333 C 198.4003 132.39097 198.9882 133.39043 198.9882 133.50801 C 198.9882 133.89016 193.52059 133.44922 192.60932 133.00828 C 191.63925 132.56735 190.14007 129.74535 189.46396 127.04093 C 189.1994 126.07087 188.90544 124.95383 188.81726 124.57169 C 188.61148 123.92498 188.64088 123.89558 189.31698 124.24833 C 189.69913 124.4541 190.5516 124.98323 191.19832 125.39477 Z"
                        fill="#ff0000"/>
               </g>
            </g>
         </g>
      </g>
   </g>
</svg>