<?xml version="1.0" encoding="UTF-8" standalone="no"?>
<svg
   xmlns:dc="http://purl.org/dc/elements/1.1/"
   xmlns:cc="http://creativecommons.org/ns#"
   xmlns:rdf="http://www.w3.org/1999/02/22-rdf-syntax-ns#"
   xmlns:svg="http://www.w3.org/2000/svg"
   xmlns="http://www.w3.org/2000/svg"
   width="204.86923"
   height="248.0751"
   viewBox="0 0 204.86923 248.07511"
   version="1.1"
   id="svg1258">

  <metadata
     id="metadata1255">
    <rdf:RDF>
      <cc:Work
         rdf:about="">
        <dc:format>image/svg+xml</dc:format>
        <dc:type
           rdf:resource="http://purl.org/dc/dcmitype/StillImage" />
        <dc:title></dc:title>
        <dc:creator>
          <cc:Agent>
            <dc:title>https://commons.wikimedia.org/wiki/User:Lobsterthermidor</dc:title>
          </cc:Agent>
        </dc:creator>
      </cc:Work>
    </rdf:RDF>
  </metadata>
  <g
     id="layer1"
     transform="translate(-2.7479581,-18.550201)">
    <g
       id="g1145"
       transform="matrix(0.44667016,0,0,0.44667016,105.9705,76.205517)">
      <path
         id="path33"
         d="m -192.76786,111.03571 55.18453,-27.214282 31.75,-18.898809 12.095237,-9.07143 3.023809,-7.559522 2.267858,-7.559524 c 0.490156,-9.923085 -2.480094,-15.127435 -9.827382,-14.363096 h -15.875002 c 5.24961,-5.384048 9.79237,-10.626727 21.92262,-17.3869044 8.790039,-2.8339842 16.581485,-6.0674059 28.726191,-7.5595236 L -32.727366,-16.407112 -7.5595238,-33.351189 6.047619,-45.446428 c 5.345667,-4.26573 10.708575,-8.525712 18.142857,-12.095237 l 14.363096,-7.559524 -0.755954,-17.386905 c 0.703469,-11.510753 3.233255,-19.977646 6.047621,-27.970236 2.12258,-5.29167 4.726318,-10.58333 7.559521,-15.875 6.284267,7.66397 15.527498,16.72804 19.792332,27.084586 3.023809,6.346742 3.642192,6.361891 6.666001,19.784459 l 5.291667,18.898809 c 9.82738,3.29016 19.65476,9.875943 29.48214,18.142857 l 16.63096,-34.773809 c 4.2401,-7.439168 7.56856,-14.118634 15.875,-24.946422 l 12.09523,-15.11905 c 1.54445,10.5752 2.77705,21.228355 1.51191,32.505948 l 5.29166,-10.583333 c -0.37875,9.017279 1.97071,13.99786 -2.26785,28.72619 -1.76758,8.30625 -5.19207,12.470238 -8.31548,17.386906 4.03175,-4.410422 8.06349,-8.24408 12.09524,-9.827382 0.29717,6.181142 2.16077,12.623357 -1.51191,18.142858 l -8.31547,11.339285 6.04762,1.511905 -2.26786,21.9226182 c 0.15337,-0.9202068 9.39302,6.84682527 15.11905,16.6309518 1.01821,1.739826 4.03175,0 6.04762,0 h 6.04762 c 0,0 -3.59019,4.225785 -6.04762,5.291667 -2.32328,1.007699 -7.55953,0.755952 -7.55953,0.755952 0,0 10.37693,11.188544 14.63037,17.386905 2.61734,3.814141 3.02401,9.084931 6.5363,12.095239 1.6347,1.401062 3.96628,2.818517 6.04762,2.267857 1.9026,-0.50337 3.77976,-4.535715 3.77976,-4.535715 0,0 0.56752,6.819006 -1.5119,9.071428 -1.4095,1.52677 -3.98527,1.258019 -6.04762,1.511906 -2.25086,0.277094 -6.80357,0 -6.80357,0 0,0 11.60866,14.298714 15.11904,22.678569 2.38682,5.697734 1.75159,12.307823 3.77976,18.142858 0.73997,2.128879 1.50755,4.380093 3.02381,6.047617 1.59928,1.75882 3.84768,2.87897 6.04762,3.77976 2.14993,0.88031 6.80357,1.51191 6.80357,1.51191 -0.16545,2.94489 -0.63409,5.28339 -1.5119,6.80357 -1.06793,1.45191 -3.59632,1.44337 -6.04762,1.51191 -0.686,4.21378 -0.77441,7.82997 -0.75595,11.33928 l 1.5119,4.53572 3.77977,10.58333 3.77976,6.80357 c -2.77491,0.74824 -5.65195,1.24117 -9.82739,-1.5119 l -4.53571,-4.53572 c 0.288,3.05982 0.64258,6.18623 3.02381,11.33929 l 5.29167,9.07143 c -3.93614,-0.69518 -7.35644,-2.42206 -10.58334,-4.53572 l -8.31547,-6.80357 c 3.02844,8.01032 7.77509,14.98971 7.55952,24.94643 l -5.29166,30.99405 -10.58334,23.43452 -5.29166,12.09524 -3.02381,11.33928 c 0,0 3.47967,4.52965 6.04762,5.29167 1.70817,0.50689 3.78425,0.19405 5.29166,-0.75595 1.53727,-0.96882 3.02381,-4.53572 3.02381,-4.53572 0,0 2.27616,8.32172 0,11.33929 -2.20942,2.9291 -6.97951,3.71204 -10.58333,3.02382 -4.23458,-1.61429 -8.50888,-4.92255 -10.58333,-9.07144 0,0 -7.06941,6.10512 -9.82739,9.82738 -2.55024,3.44189 -5.57946,7.0812 -6.04761,11.33927 -0.51446,4.67926 0.1441,10.61681 3.77976,13.60715 2.53743,2.08704 6.60319,1.38755 9.82738,0.75597 2.21178,-0.43326 6.04762,-3.02382 6.04762,-3.02382 0.35946,0.11982 -1.42494,9.69938 -9.11729,10.53747 -4.01585,0.43753 -5.73927,0.86577 -9.15527,-1.29048 -2.19384,-1.38479 -6.18519,-8.40719 -6.18519,-8.40719 l -0.48868,10.49948 1.06121,9.51425 c 0,0 -7.81564,-6.14035 -10.88859,-11.7821 -2.31846,-4.25655 -3.33694,-11.95766 -3.33694,-11.95766 l 1.06908,-10.72092 c 0,0 -5.50397,9.71845 -6.04762,15.11906 -0.56434,5.6062 3.02381,16.63094 3.02381,16.63094 l -9.07143,-4.5357 c 0,0 4.5215,9.85748 4.53572,15.11904 0.0121,4.46515 -3.77977,12.85118 -3.77977,12.85118 l -10.58333,-6.04761 -7.55952,-2.26785 c 0,0 -3.44284,8.10305 -3.64219,13.29401 -0.12232,3.18503 0.61402,8.31518 2.75654,10.67505 3.33641,3.67488 7.73706,2.24058 11.46898,5.51307 3.72081,3.26274 2.32659,12.09524 1.51191,12.09524 -2.77183,1.74312 -5.54365,2.70583 -8.31548,3.02381 l -12.85119,-3.02381 c 1.20267,5.28727 3.28372,10.6421 13.60714,16.63096 8.89348,2.0603 13.34441,1.45506 18.89881,1.51191 5.34395,-0.96872 10.32089,-2.2127 12.85119,-5.29166 4.65153,-2.71392 7.14513,-7.30862 9.16315,-11.3393 0.5693,6.2996 0.53909,12.59921 -3.11553,18.89881 7.41945,-1.10889 12.08122,-3.85377 17.92145,-9.95708 4.77466,-4.98975 7.0999,-12.11264 7.02498,-22.54888 -0.55234,-6.65339 -3.30833,-12.60586 -9.56011,-16.40954 -6.1114,-5.46175 -9.75375,-3.09211 -13.87441,-3.24522 -5.29012,1.01256 -11.78556,6.75271 -10.22435,14.63036 l 2.00058,10.09466 c -6.83322,-3.34249 -7.70112,-9.49021 -7.65123,-14.89763 1.5069,-6.80607 6.40324,-11.91743 13.60714,-15.875 9.17893,-3.59145 17.99211,-0.96505 26.45833,7.55952 6.08774,7.77139 11.62134,16.09692 12.09524,29.48215 1.36467,17.47692 -1.85941,29.01575 -10.58333,36.28569 0,0 -11.14374,11.51567 -18.14286,15.11906 -9.72689,5.00775 -21.9139,6.37053 -32.81908,7.24641 -13.12135,1.05389 -30.91918,-0.52965 -43.853103,-2.97795 C 76.264142,419.07653 69.219263,416.29076 57.452381,411.14882 49.888835,407.84367 36.285715,398.29761 36.285715,398.29761 L 21.922619,383.17857 c -6.440548,8.72973 -13.0474145,15.55769 -20.4107143,19.65476 -8.5767891,4.77228 -17.7635157,8.5636 -27.9702377,9.07143 -7.053726,0.35096 -14.065454,-0.53896 -21.922618,-2.26785 -8.707999,-1.91611 -15.144046,-3.85543 -19.654763,-6.80358 0,0 -16.528474,9.75093 -25.702379,12.09524 -8.071367,2.06257 -16.617917,1.70435 -24.946427,1.51191 -7.09405,-0.16392 -14.20714,-0.88321 -21.16667,-2.26787 -4.37933,-0.87131 -12.85119,-3.77976 -12.85119,-3.77976 l -32.50595,4.53572 c -19.63847,-1.04621 -29.26569,-7.09978 -36.28572,-15.11905 -7.30019,-8.33931 -8.81104,-24.76464 -7.73507,-35.14066 1.61349,-15.55954 2.664,-16.56857 9.33869,-25.64867 0,0 8.51325,-11.19943 15.02734,-15.56186 5.44363,-3.64556 18.14285,-7.55951 18.14285,-7.55951 0,0 -13.30896,13.27291 -15.875,21.9226 -1.43513,4.8376 -0.61258,10.2622 0.75596,15.11906 0.85631,3.03901 4.53571,8.31546 4.53571,8.31546 0,0 4.78073,-12.23303 9.82738,-15.875 4.41094,-3.1832 15.875,-3.77976 15.875,-3.77976 -3.66594,4.53085 -8.7034,8.51308 -9.07143,14.36309 v 10.58334 c 0,0 17.44565,0.13475 24.19048,-4.5357 7.99402,-5.53545 11.17055,-16.06077 15.11905,-24.94643 3.20494,-7.21235 4.49733,-15.13067 6.80357,-22.67857 3.47012,-11.35707 4.67991,-23.71378 10.58333,-34.01788 7.62574,-13.3103 30.994049,-34.01784 30.994049,-34.01784 l 34.017857,-19.65476 29.482142,-13.60715 c 10.931154,-6.19964 19.803358,-12.74243 26.4583326,-19.65476 6.3524496,-3.3093 10.8555271,-9.85501 14.3630954,-18.14285 1.160769,-7.89411 -0.661947,-12.20804 -3.02381,-15.875 -6.8035713,-7.32476 -13.6071427,-5.23803 -20.410714,-6.80358 -10.119612,1.19955 -20.570097,4.2111 -28.817903,8.04821 0,0 -5.322341,1.06689 -18.890942,9.87324 0,0 -17.438482,12.88594 -27.13044,17.60831 -7.665127,3.7348 -15.680707,7.77993 -24.190477,8.31548 -6.16527,0.388 -12.48435,-1.30138 -18.14286,-3.77976 -1.98555,-0.86965 -7.96436,-7.7888 -7.96436,-7.7888 0,0 8.96833,-5.78701 12.11098,-7.15469 9.63224,-4.19193 13.55758,-3.86096 22.57899,-7.65123 8.376164,-3.51919 22.411299,-12.17909 22.411299,-12.17909 0,0 22.664696,-15.04231 34.773809,-21.16667 13.612888,-6.88492 42.3333326,-17.3869 42.3333326,-17.3869 0,0 -23.6060966,-3.92356 -35.5297626,-4.53571 -10.320829,-0.52986 -20.827572,-1.09961 -30.994045,0.75595 -10.50535,1.91741 -21.012789,5.20443 -30.238097,10.58333 -12.956846,7.5546 -30.307566,10.92795 -29.482146,9.82738 -9.53724,0.79411 -18.6124,2.0503 -29.48214,1.51191 l -9.82738,0.75595 c -6.20046,-0.85509 -11.74975,-2.36137 -15.11905,-6.04762 l 7.55953,-12.09524 -6.80357,-6.80357 z"
         style="fill:#ffff00;stroke:#808080;stroke-width:3.065;stroke-linecap:butt;stroke-linejoin:miter;stroke-miterlimit:4;stroke-dasharray:none;stroke-opacity:1" />
      <path
         id="path1007"
         d="m 4.0090428,50.042955 -9.8273807,12.294399 c -6.7913581,3.531067 -7.4951701,3.618863 -14.7614151,4.708013 -3.738003,0.560295 -22.196408,-1.282952 -22.196408,-1.282952 l 2.637729,-11.487047 c 3.908763,-10.819621 8.842121,-12.703039 13.779266,-14.553438 l 16.5317852,7.057831 z"
         style="fill:#ffff00;stroke:#808080;stroke-width:3.265;stroke-linecap:butt;stroke-linejoin:miter;stroke-miterlimit:4;stroke-dasharray:none;stroke-opacity:1" />
      <path
         id="path35"
         d="M -194.27976,111.03571 Z"
         style="fill:#ffff00;stroke:#808080;stroke-width:3.065;stroke-linecap:butt;stroke-linejoin:miter;stroke-miterlimit:4;stroke-dasharray:none;stroke-opacity:1" />
      <path
         id="path37"
         d="m 79.374999,-17.47619 c 0,0 -8.079236,6.652985 -9.827382,11.3392852 -3.170532,8.499326 -3.249964,18.7450148 0,27.2142858 2.4291,6.330132 7.536985,12.098404 13.607143,15.119047 7.924799,3.943553 18.01121,4.890441 26.7256,3.336936 8.7672,-1.562918 16.81597,-7.042386 23.92321,-12.408363 6.12953,-4.627809 10.45956,-11.281419 15.11905,-17.386906 3.85834,-5.0557087 10.58333,-15.8749998 10.58333,-15.8749998 v 0"
         style="fill:#ffff00;stroke:#808080;stroke-width:3.065;stroke-linecap:butt;stroke-linejoin:miter;stroke-miterlimit:4;stroke-dasharray:none;stroke-opacity:1" />
      <path
         id="path39"
         d="M 64.255951,36.95238 C 57.686592,40.822061 51.677156,44.505101 43.089284,49.047619 35.771787,52.867211 29.325175,53.203267 22.678571,54.339286 18.142857,54.541184 13.607143,54.080447 9.0714284,53.583334"
         style="fill:#ffff00;stroke:#808080;stroke-width:3.065;stroke-linecap:butt;stroke-linejoin:miter;stroke-miterlimit:4;stroke-dasharray:none;stroke-opacity:1" />
      <path
         id="path41"
         d="m -33.261905,12.761905 c 0,0 -16.898838,6.363399 -22.67857,12.85119 -4.732013,5.311719 -7.687561,12.568716 -8.315476,19.654761 -0.5018,5.662832 0.104441,12.293732 3.779761,16.630954 3.872223,4.569586 16.630951,6.80357 16.630951,6.80357"
         style="fill:#ffff00;stroke:#808080;stroke-width:3.065;stroke-linecap:butt;stroke-linejoin:miter;stroke-miterlimit:4;stroke-dasharray:none;stroke-opacity:1" />
      <path
         id="path43"
         d="m -36.285715,35.440477 c 7.362202,0.997003 10.352308,2.868426 14.363096,4.535712 1.206348,0.401352 4.993196,2.507426 12.0952382,6.803572 3.0436831,1.227084 5.7174824,0.413774 13.8364236,3.263194 C 8.712714,49.505079 16.545657,45.268339 22.678571,39.220237"
         style="fill:#ffff00;stroke:#808080;stroke-width:3.065;stroke-linecap:butt;stroke-linejoin:miter;stroke-miterlimit:4;stroke-dasharray:none;stroke-opacity:1" />
      <g
         id="langued">
        <path
           id="path45"
           d="m -163.28571,157.90476 c -6.18834,4.76297 -5.25536,7.94343 -5.29167,11.33928 1.91898,6.70661 6.63981,7.10904 11.33929,7.55953 8.88424,0.57059 16.45883,-2.78777 23.94357,-6.41566 l 16.32998,-12.05366 22.470493,-9.8599 29.368177,-7.94863 c 0,0 13.587607,-0.24847 23.20931,-4.79206 8.515052,-3.71242 19.843948,-9.76417 38.8927506,-16.38247 0,0 -26.8656226,-3.66274 -30.0728576,-4.19728 -19.957138,7.10678 -40.110763,13.72235 -61.475641,17.30978 -5.494872,0.0573 -12.388792,1.79318 -22.205612,5.94998 -6.4738,5.22346 -12.06007,10.95409 -23.30156,13.45316 z"
           style="fill:#ff0000;stroke:#808080;stroke-width:3.065;stroke-linecap:butt;stroke-linejoin:miter;stroke-miterlimit:4;stroke-dasharray:none;stroke-opacity:1" />
      </g>
      <path
         id="path47"
         d="m -183.69643,132.20238 v 0 c -17.69391,-6.68872 -18.77061,-13.37745 -11.58521,-20.06617 h 7.80545 c 2.68404,-2.97666 11.33929,7.97093 9.13956,14.48495 -0.82524,2.44378 -5.3598,5.58122 -5.3598,5.58122 z"
         style="fill:#ffff00;stroke:#808080;stroke-width:3.065;stroke-linecap:butt;stroke-linejoin:miter;stroke-miterlimit:4;stroke-dasharray:none;stroke-opacity:1" />
      <path
         id="path49"
         d="m -76.35119,135.98214 15.210759,9.43042 -8.674456,5.8262 z"
         style="fill:#ffffff;stroke:#808080;stroke-width:3.065;stroke-linecap:butt;stroke-linejoin:miter;stroke-miterlimit:4;stroke-dasharray:none;stroke-opacity:1" />
      <path
         id="path51"
         d="m -94.494047,148.47435 19.525061,5.87993 -15.081057,8.66659 z"
         style="fill:#ffffff;stroke:#808080;stroke-width:3.065;stroke-linecap:butt;stroke-linejoin:miter;stroke-miterlimit:4;stroke-dasharray:none;stroke-opacity:1" />
      <path
         id="path53"
         d="m 99.785714,156.39285 c -5.771773,6.57545 -14.30005,14.40344 -25.618537,15.43218 -11.94849,0.98425 -15.488935,2.22737 -30.948191,0.26727 -5.536671,-0.702 -20.698626,-5.89777 -33.8344319,-11.07201 L 8.315476,159.41667"
         style="fill:#ffff00;stroke:#808080;stroke-width:3.065;stroke-linecap:butt;stroke-linejoin:miter;stroke-miterlimit:4;stroke-dasharray:none;stroke-opacity:1" />
      <path
         id="path55"
         d="m -206.0648,369.96457 c 0,0 -6.75173,-10.59264 -6.75173,-17.05376 1e-5,-8.34574 4.49809,-14.79448 9.57866,-21.4156 4.19882,-5.47201 14.63142,-14.63143 14.63142,-14.63143"
         style="fill:#ffff00;stroke:#808080;stroke-width:3.065;stroke-linecap:butt;stroke-linejoin:miter;stroke-miterlimit:4;stroke-dasharray:none;stroke-opacity:1" />
      <path
         id="path57"
         d="m -200.98668,393.75156 c 0,0 -12.56282,-9.72667 -16.43708,-16.43708 -3.57939,-6.19968 -5.55848,-13.58575 -5.55848,-20.74452 0,-6.70619 2.65578,-13.35804 6.00888,-19.16577 3.36993,-5.8369 13.49561,-14.56469 13.49561,-14.56469"
         style="fill:#ffff00;stroke:#808080;stroke-width:3.065;stroke-linecap:butt;stroke-linejoin:miter;stroke-miterlimit:4;stroke-dasharray:none;stroke-opacity:1" />
      <path
         id="path59"
         d="m -197.24491,405.51142 c 0,0 -12.77632,-6.27105 -17.65383,-11.14855 -4.90388,-4.90388 -7.53868,-8.91375 -9.33362,-15.61257 -1.44972,-5.41041 -2.86927,-10.44866 -2.13816,-16.00201 0.54972,-4.17551 2.20101,-17.5495 2.20101,-17.5495"
         style="fill:#ffff00;stroke:#808080;stroke-width:3.065;stroke-linecap:butt;stroke-linejoin:miter;stroke-miterlimit:4;stroke-dasharray:none;stroke-opacity:1" />
      <path
         id="path61"
         d="m -126.68576,342.70309 c 0,0 -6.86276,14.55765 -12.50632,20.2012 -5.06332,5.06332 -11.15268,9.42216 -18.06931,11.27546 -4.01013,1.07451 -8.33869,0.54189 -12.45476,0 -3.70468,-0.48773 -10.82798,-2.90134 -10.82798,-2.90134"
         style="fill:#ffff00;stroke:#808080;stroke-width:3.065;stroke-linecap:butt;stroke-linejoin:miter;stroke-miterlimit:4;stroke-dasharray:none;stroke-opacity:1" />
      <path
         id="path63"
         d="m -126.68576,375.57723 c 0,0 -11.04627,7.37202 -17.14199,9.89695 -6.17566,2.55804 -12.74285,6.0627 -19.37015,5.1902 -5.12266,-0.67441 -10.27852,-3.65113 -13.42391,-7.75028 -2.30009,-2.99753 -2.93369,-10.9487 -2.93369,-10.9487"
         style="fill:#ffff00;stroke:#808080;stroke-width:3.065;stroke-linecap:butt;stroke-linejoin:miter;stroke-miterlimit:4;stroke-dasharray:none;stroke-opacity:1" />
      <path
         id="path69"
         d="m -64.679226,357.40292 c 0,0 -5.665035,16.33627 -8.573099,23.35696 -3.740001,9.02916 -9.352637,16.34246 -16.263259,23.25308 -5.443936,5.44393 -18.131416,12.35013 -18.131416,12.35013"
         style="fill:#ffff00;stroke:#808080;stroke-width:3.065;stroke-linecap:butt;stroke-linejoin:miter;stroke-miterlimit:4;stroke-dasharray:none;stroke-opacity:1" />
      <path
         id="path71"
         d="m -55.324792,356.06656 c 0,0 -2.13396,15.68299 -5.993435,22.3678 -3.807646,6.59504 -10.502377,13.44235 -15.887203,18.82718 -5.568114,5.56811 -30.44157,19.10155 -30.44157,19.10155"
         style="fill:#ffff00;stroke:#808080;stroke-width:3.065;stroke-linecap:butt;stroke-linejoin:miter;stroke-miterlimit:4;stroke-dasharray:none;stroke-opacity:1" />
      <path
         id="path73"
         d="m -47.841246,372.63728 c 0,0 -6.72678,13.62147 -11.321515,19.60944 -3.308437,4.31164 -11.528743,11.52874 -11.528743,11.52874"
         style="fill:#ffff00;stroke:#808080;stroke-width:3.065;stroke-linecap:butt;stroke-linejoin:miter;stroke-miterlimit:4;stroke-dasharray:none;stroke-opacity:1" />
      <path
         id="path75"
         d="m -21.114292,349.91936 c 0,0 -2.517563,18.50219 -7.070823,26.38867 -4.088755,7.08193 -10.859466,12.36896 -17.34712,17.34712 -4.507056,3.45839 -22.503479,9.17818 -22.503479,9.17818"
         style="fill:#ffff00;stroke:#808080;stroke-width:3.065;stroke-linecap:butt;stroke-linejoin:miter;stroke-miterlimit:4;stroke-dasharray:none;stroke-opacity:1" />
      <path
         id="path77"
         d="m -6.1471992,337.62497 c -1.1645848,15.00485 -4.7743438,26.09742 -9.4906388,35.41953"
         style="fill:#ffff00;stroke:#808080;stroke-width:3.065;stroke-linecap:butt;stroke-linejoin:miter;stroke-miterlimit:4;stroke-dasharray:none;stroke-opacity:1" />
      <path
         id="path79"
         d="M -32.072344,395.35518 -42.896758,406.1796"
         style="fill:#ffff00;stroke:#808080;stroke-width:3.065;stroke-linecap:butt;stroke-linejoin:miter;stroke-miterlimit:4;stroke-dasharray:none;stroke-opacity:1" />
      <path
         id="path81"
         d="m -15.768902,391.34613 -17.37252,17.37251 -1.336347,-1.33633 1.603618,1.60362"
         style="fill:#ffff00;stroke:#808080;stroke-width:3.065;stroke-linecap:butt;stroke-linejoin:miter;stroke-miterlimit:4;stroke-dasharray:none;stroke-opacity:1" />
      <path
         id="path83"
         d="m 20.312484,357.93746 c 0,0 -3.502179,15.38269 -7.419301,22.16734 -3.9152133,6.78135 -9.3276117,12.05125 -15.2744963,17.14537 -5.2273781,4.47779 -30.4928377,11.96365 -30.4928377,11.73576"
         style="fill:#ffff00;stroke:#808080;stroke-width:3.065;stroke-linecap:butt;stroke-linejoin:miter;stroke-miterlimit:4;stroke-dasharray:none;stroke-opacity:1" />
      <path
         id="path85"
         d="m -61.20472,311.69983 c 0,0 -1.106791,8.69833 0,12.82893 1.67844,6.26402 7.245793,10.85716 9.727493,16.84851 2.318697,5.59783 4.704591,17.55777 4.704591,17.55777"
         style="fill:#ffff00;stroke:#808080;stroke-width:3.065;stroke-linecap:butt;stroke-linejoin:miter;stroke-miterlimit:4;stroke-dasharray:none;stroke-opacity:1" />
      <path
         id="path87"
         d="m 26.459682,348.04847 c 0,0 -0.434929,18.12154 1.870887,26.72696 1.627801,6.07504 3.734417,11.35052 7.563126,16.34019 3.28137,4.27636 15.176199,16.51254 15.176199,16.51254"
         style="fill:#ffff00;stroke:#808080;stroke-width:3.065;stroke-linecap:butt;stroke-linejoin:miter;stroke-miterlimit:4;stroke-dasharray:none;stroke-opacity:1" />
      <path
         id="path89"
         d="m 47.306706,286.30922 c 0,0 -13.159788,8.41283 -17.907058,14.43254 -3.602809,4.56849 -5.514034,10.29421 -7.483547,15.76891 -2.830656,7.86844 -6.147199,24.32153 -6.147199,24.32153"
         style="fill:#ffff00;stroke:#808080;stroke-width:3.065;stroke-linecap:butt;stroke-linejoin:miter;stroke-miterlimit:4;stroke-dasharray:none;stroke-opacity:1" />
      <path
         id="path93"
         d="m 54.255714,319.18335 c 0,0 -4.97018,14.76839 -5.87993,22.45067 -1.026957,8.67202 -1.269869,17.64824 0.53454,26.1924 1.336741,6.32968 4.093455,12.39715 7.483546,17.90705 3.807952,6.18905 14.165284,16.57072 14.165284,16.57072"
         style="fill:#ffff00;stroke:#808080;stroke-width:3.065;stroke-linecap:butt;stroke-linejoin:miter;stroke-miterlimit:4;stroke-dasharray:none;stroke-opacity:1" />
      <path
         id="path95"
         d="m 57.195677,344.84124 c 0,0 0.165609,18.48171 2.672696,27.26151 2.155154,7.54733 5.882566,14.71218 10.423512,21.11427 3.608296,5.08718 8.010633,9.75291 13.096205,13.36347 6.661863,4.72967 14.525953,7.57499 22.18337,10.42353 6.50333,2.41922 23.51972,7.21628 23.51972,7.21628"
         style="fill:#ffff00;stroke:#808080;stroke-width:3.065;stroke-linecap:butt;stroke-linejoin:miter;stroke-miterlimit:4;stroke-dasharray:none;stroke-opacity:1" />
      <path
         id="path97"
         d="m 136.04019,413.79677 c 0,0 12.65187,-0.0257 18.70886,-1.60362 5.86497,-1.52791 11.67496,-3.91086 16.57071,-7.48353 3.97442,-2.90033 7.16387,-6.86152 9.88898,-10.95806 2.78127,-4.18096 6.41447,-13.63075 6.41447,-13.63075"
         style="fill:#ffff00;stroke:#808080;stroke-width:3.065;stroke-linecap:butt;stroke-linejoin:miter;stroke-miterlimit:4;stroke-dasharray:none;stroke-opacity:1" />
      <path
         id="path99"
         d="m 99.958802,393.48431 c 0,0 11.903358,7.27076 18.441598,9.35443 5.88703,1.87614 11.7362,2.36047 17.90706,2.67268 3.73699,0.18907 11.22532,0 11.22532,0"
         style="fill:#ffff00;stroke:#808080;stroke-width:3.065;stroke-linecap:butt;stroke-linejoin:miter;stroke-miterlimit:4;stroke-dasharray:none;stroke-opacity:1" />
      <path
         id="path101"
         d="m 154.74905,396.42425 c 5.87993,-1.44629 13.22655,-2.37833 19.24341,-8.55263 4.65773,-4.77962 8.11208,-9.48917 10.95805,-16.30343 0,0 1.5781,-8.0679 1.33635,-12.2944 -0.21596,-3.77569 -6.68174,-14.43254 -6.68174,-14.43254"
         style="fill:#ffff00;stroke:#808080;stroke-width:3.065;stroke-linecap:butt;stroke-linejoin:miter;stroke-miterlimit:4;stroke-dasharray:none;stroke-opacity:1" />
      <path
         id="path103"
         d="m 89.268021,345.37578 c -1.345785,14.06257 -0.733462,26.33021 6.414468,32.60688"
         style="fill:#ffff00;stroke:#808080;stroke-width:3.065;stroke-linecap:butt;stroke-linejoin:miter;stroke-miterlimit:4;stroke-dasharray:none;stroke-opacity:1" />
      <path
         id="path105"
         d="m 96.484299,307.69078 c 0,0 -14.123568,17.21307 -17.63979,27.52876 -2.971849,8.71864 -3.690863,18.40768 -2.405425,27.52876 1.038997,7.37241 8.018085,20.84702 8.018085,20.84702"
         style="fill:#ffff00;stroke:#808080;stroke-width:3.065;stroke-linecap:butt;stroke-linejoin:miter;stroke-miterlimit:4;stroke-dasharray:none;stroke-opacity:1" />
      <path
         id="path107"
         d="m 74.835466,298.60361 c -5.775948,7.75294 -10.907911,15.59788 -11.759858,24.05425"
         style="fill:#ffff00;stroke:#808080;stroke-width:3.065;stroke-linecap:butt;stroke-linejoin:miter;stroke-miterlimit:4;stroke-dasharray:none;stroke-opacity:1" />
      <path
         id="path109"
         d="m -53.721174,247.55513 c 0,0 -12.706389,12.07538 -17.639789,19.2434 -3.61416,5.25122 -6.564344,11.04851 -8.552624,17.10526 -2.453142,7.47282 -4.009044,23.25245 -4.009044,23.25245"
         style="fill:#ffff00;stroke:#808080;stroke-width:3.065;stroke-linecap:butt;stroke-linejoin:miter;stroke-miterlimit:4;stroke-dasharray:none;stroke-opacity:1" />
      <path
         id="path111"
         d="m -72.69731,259.58226 c 0,0 -7.496971,9.55121 -10.69078,14.69982 -2.331641,3.75874 -4.674081,7.58917 -6.1472,11.75986 -1.815505,5.14005 -3.207234,16.03618 -3.207234,16.03618"
         style="fill:#ffff00;stroke:#808080;stroke-width:3.065;stroke-linecap:butt;stroke-linejoin:miter;stroke-miterlimit:4;stroke-dasharray:none;stroke-opacity:1" />
      <path
         id="path113"
         d="m -81.784475,253.9696 c 0,0 -13.506129,13.09386 -18.708865,20.84702 -3.4192,5.09532 -6.05629,10.75655 -8.01809,16.57072 -2.00535,5.94325 -3.74177,18.44159 -3.74177,18.44159"
         style="fill:#ffff00;stroke:#808080;stroke-width:3.065;stroke-linecap:butt;stroke-linejoin:miter;stroke-miterlimit:4;stroke-dasharray:none;stroke-opacity:1" />
      <path
         id="path115"
         d="m -105.57146,270.27304 c 0,0 -9.52091,9.39707 -12.56167,15.23436 -2.30674,4.42822 -3.1648,9.51145 -4.00904,14.43257 -0.87577,5.1049 -1.06908,15.50162 -1.06908,15.50162"
         style="fill:#ffff00;stroke:#808080;stroke-width:3.065;stroke-linecap:butt;stroke-linejoin:miter;stroke-miterlimit:4;stroke-dasharray:none;stroke-opacity:1" />
      <path
         id="path117"
         d="m 101.29515,266.79853 -7.216276,7.2163 -3.741775,9.35442 -2.138156,12.56167"
         style="fill:#ffff00;stroke:#808080;stroke-width:3.065;stroke-linecap:butt;stroke-linejoin:miter;stroke-miterlimit:4;stroke-dasharray:none;stroke-opacity:1" />
      <path
         id="path119"
         d="m 127.48756,266.79853 c 0,0 -5.94494,2.04381 -8.55262,3.74179 -2.43068,1.58272 -5.01939,3.33689 -6.41447,5.87991 -1.4794,2.69672 -1.60362,9.08717 -1.60362,9.08717"
         style="fill:#ffff00;stroke:#808080;stroke-width:3.065;stroke-linecap:butt;stroke-linejoin:miter;stroke-miterlimit:4;stroke-dasharray:none;stroke-opacity:1" />
      <path
         id="path121"
         d="m 127.48756,283.63653 c 0,0 -5.53552,5.11435 -7.48354,8.28535 -1.29905,2.11461 -2.19315,4.51403 -2.6727,6.94902 -0.79208,4.02184 -0.26727,12.29439 -0.26727,12.29439"
         style="fill:#ffff00;stroke:#808080;stroke-width:3.065;stroke-linecap:butt;stroke-linejoin:miter;stroke-miterlimit:4;stroke-dasharray:none;stroke-opacity:1" />
      <path
         id="path123"
         d="m 130.96207,292.99095 c 0,0 -6.53886,8.53426 -7.48355,13.63076 -0.72105,3.88997 0.46082,7.97227 1.60362,11.75985 1.59415,5.2835 7.20952,14.90414 7.20952,14.90414"
         style="fill:#ffff00;stroke:#808080;stroke-width:3.065;stroke-linecap:butt;stroke-linejoin:miter;stroke-miterlimit:4;stroke-dasharray:none;stroke-opacity:1" />
      <path
         id="path127"
         d="m 101.29515,266.79853 c 0,0 -5.343622,4.37634 -7.216276,7.2163 -1.848735,2.80368 -2.831276,6.12186 -3.741775,9.35442 -1.15155,4.08837 -2.138156,12.56167 -2.138156,12.56167"
         style="fill:#ffff00;stroke:#808080;stroke-width:3.065;stroke-linecap:butt;stroke-linejoin:miter;stroke-miterlimit:4;stroke-dasharray:none;stroke-opacity:1" />
      <path
         id="path131"
         d="m 109.5805,313.03616 c 0,0 -6.45403,11.53414 -7.48354,18.4416 -0.71356,4.78758 -0.5007,11.0147 1.87089,15.23438 3.14307,5.59235 14.16528,11.75985 14.16528,11.75985"
         style="fill:#ffff00;stroke:#808080;stroke-width:3.065;stroke-linecap:butt;stroke-linejoin:miter;stroke-miterlimit:4;stroke-dasharray:none;stroke-opacity:1" />
      <path
         id="path133"
         d="m 99.424264,325.33058 c 0,0 -3.367571,10.50921 -4.26929,15.93318 -0.977937,5.88243 -0.06129,14.58336 5.073666,20.53882 3.14723,3.65012 12.52166,5.62577 12.52166,5.62577"
         style="fill:#ffff00;stroke:#808080;stroke-width:3.065;stroke-linecap:butt;stroke-linejoin:miter;stroke-miterlimit:4;stroke-dasharray:none;stroke-opacity:1" />
      <path
         id="path135"
         d="m 1.3363476,216.55187 -13.3634766,5.61266 -11.225319,6.1472 -9.888974,6.68174"
         style="fill:#ffff00;stroke:#808080;stroke-width:3.065;stroke-linecap:butt;stroke-linejoin:miter;stroke-miterlimit:4;stroke-dasharray:none;stroke-opacity:1" />
      <path
         id="path137"
         d="m -2.9399648,200.5157 c 0,0 -4.2519591,6.22476 -6.9490076,8.81989 -2.6195316,2.52055 -8.8198946,6.41447 -8.8198946,6.41447"
         style="fill:#ffff00;stroke:#808080;stroke-width:3.065;stroke-linecap:butt;stroke-linejoin:miter;stroke-miterlimit:4;stroke-dasharray:none;stroke-opacity:1" />
      <path
         id="path139"
         d="m 149.40366,247.55513 -6.41446,14.16529 -4.81085,9.08715"
         style="fill:#ffff00;stroke:#808080;stroke-width:3.065;stroke-linecap:butt;stroke-linejoin:miter;stroke-miterlimit:4;stroke-dasharray:none;stroke-opacity:1" />
      <path
         id="path141"
         d="m 153.14544,259.84953 -9.51449,18.25165"
         style="fill:#ffff00;stroke:#808080;stroke-width:3.065;stroke-linecap:butt;stroke-linejoin:miter;stroke-miterlimit:4;stroke-dasharray:none;stroke-opacity:1" />
      <path
         id="path143"
         d="m 160.09444,263.32404 -3.74177,22.98518"
         style="fill:#ffff00;stroke:#808080;stroke-width:3.065;stroke-linecap:butt;stroke-linejoin:miter;stroke-miterlimit:4;stroke-dasharray:none;stroke-opacity:1" />
      <path
         id="path145"
         d="m 178.53604,214.94825 c 1.50796,7.66871 -2.09912,13.06407 -6.94901,17.90706"
         style="fill:#ffff00;stroke:#808080;stroke-width:3.065;stroke-linecap:butt;stroke-linejoin:miter;stroke-miterlimit:4;stroke-dasharray:none;stroke-opacity:1" />
      <path
         id="path147"
         d="m 168.11253,214.94825 c -0.43865,15.07294 -9.07914,19.70717 -17.10525,25.12334"
         style="fill:#ffff00;stroke:#808080;stroke-width:3.065;stroke-linecap:butt;stroke-linejoin:miter;stroke-miterlimit:4;stroke-dasharray:none;stroke-opacity:1" />
      <path
         id="path149"
         d="m 158.22356,222.4318 c -5.12319,7.06011 -12.51697,12.98492 -21.9161,17.90706"
         style="fill:#ffff00;stroke:#808080;stroke-width:3.065;stroke-linecap:butt;stroke-linejoin:miter;stroke-miterlimit:4;stroke-dasharray:none;stroke-opacity:1" />
      <path
         id="path151"
         d="m 130.42753,233.92439 c -6.0864,7.42612 -13.08763,13.57148 -22.71791,16.03617"
         style="fill:#ffff00;stroke:#808080;stroke-width:3.065;stroke-linecap:butt;stroke-linejoin:miter;stroke-miterlimit:4;stroke-dasharray:none;stroke-opacity:1" />
      <path
         id="path153"
         d="m 103.43331,239.00251 c -2.60837,10.04329 -9.870629,17.12502 -20.312488,22.18337"
         style="fill:#ffff00;stroke:#808080;stroke-width:3.065;stroke-linecap:butt;stroke-linejoin:miter;stroke-miterlimit:4;stroke-dasharray:none;stroke-opacity:1" />
      <path
         id="path155"
         d="m 94.346142,220.29364 c -4.780867,8.64258 -11.077387,12.7382 -18.708867,12.82894"
         style="fill:#ffff00;stroke:#808080;stroke-width:3.065;stroke-linecap:butt;stroke-linejoin:miter;stroke-miterlimit:4;stroke-dasharray:none;stroke-opacity:1" />
      <path
         id="path157"
         d="m 111.18412,205.86109 c -2.74695,9.50289 -7.05419,16.50933 -13.363475,20.31248"
         style="fill:#ffff00;stroke:#808080;stroke-width:3.065;stroke-linecap:butt;stroke-linejoin:miter;stroke-miterlimit:4;stroke-dasharray:none;stroke-opacity:1" />
      <path
         id="path159"
         d="m 139.24742,188.75584 c 0,0 0.75314,11.3376 -1.87088,16.03617 -1.05155,1.8829 -5.07813,4.00904 -5.07813,4.00904"
         style="fill:#ffff00;stroke:#808080;stroke-width:3.065;stroke-linecap:butt;stroke-linejoin:miter;stroke-miterlimit:4;stroke-dasharray:none;stroke-opacity:1" />
      <path
         id="path161"
         d="m 155.28359,183.14318 c 0,0 -0.49148,8.75214 -2.40542,12.56167 -1.95324,3.88775 -8.8199,9.6217 -8.8199,9.6217"
         style="fill:#ffff00;stroke:#808080;stroke-width:3.065;stroke-linecap:butt;stroke-linejoin:miter;stroke-miterlimit:4;stroke-dasharray:none;stroke-opacity:1" />
      <path
         id="path163"
         d="m 45.16855,200.24843 c 0,0 6.767212,-10.02857 8.285355,-15.7689 0.683732,-2.5853 0.267269,-8.01809 0.267269,-8.01809 v -4.81085"
         style="fill:#ffff00;stroke:#808080;stroke-width:3.065;stroke-linecap:butt;stroke-linejoin:miter;stroke-miterlimit:4;stroke-dasharray:none;stroke-opacity:1" />
      <path
         id="path165"
         d="m 8.5526247,206.39563 c 0,0 12.8377203,-1.30088 18.1743263,-4.54358 4.369057,-2.65479 7.639043,-7.04284 10.156243,-11.49259 1.748024,-3.09005 1.801127,-6.89637 3.207234,-10.15625 1.427959,-3.31055 4.732175,-7.84364 4.732175,-7.84364"
         style="fill:#ffff00;stroke:#808080;stroke-width:3.065;stroke-linecap:butt;stroke-linejoin:miter;stroke-miterlimit:4;stroke-dasharray:none;stroke-opacity:1" />
      <path
         id="path167"
         d="m 23.786988,186.88495 c 0,0 4.464821,-5.20859 5.879929,-8.28535 0.920941,-2.00233 1.603618,-6.41447 1.603618,-6.41447 l 0.267269,-3.74178"
         style="fill:#ffff00;stroke:#808080;stroke-width:3.065;stroke-linecap:butt;stroke-linejoin:miter;stroke-miterlimit:4;stroke-dasharray:none;stroke-opacity:1" />
      <path
         id="path169"
         d="m 133.63476,150.00176 c 0,0 -5.00814,5.58121 -8.28535,7.21627 -2.68926,1.34172 -5.81543,1.7967 -8.8199,1.87089 -5.65143,0.13955 -10.5966,-3.49788 -10.5966,-3.49788"
         style="fill:#ffff00;stroke:#808080;stroke-width:3.065;stroke-linecap:butt;stroke-linejoin:miter;stroke-miterlimit:4;stroke-dasharray:none;stroke-opacity:1" />
      <path
         id="path171"
         d="m 154.48178,124.61115 c 0,0 -1.30749,7.32414 -3.20723,10.42351 -2.07428,3.38412 -4.92185,6.68147 -8.55262,8.28536 -3.91928,1.73134 -12.82894,0.80181 -12.82894,0.80181"
         style="fill:#ffff00;stroke:#808080;stroke-width:3.065;stroke-linecap:butt;stroke-linejoin:miter;stroke-miterlimit:4;stroke-dasharray:none;stroke-opacity:1" />
      <path
         id="path173"
         d="m 179.07058,145.45818 c 0,0 4.06327,8.34316 5.07812,12.82893 0.86699,3.8322 1.08615,7.84111 0.80181,11.75986 -0.24406,3.36365 -2.13816,9.88897 -2.13816,9.88897"
         style="fill:#ffff00;stroke:#808080;stroke-width:3.065;stroke-linecap:butt;stroke-linejoin:miter;stroke-miterlimit:4;stroke-dasharray:none;stroke-opacity:1" />
      <path
         id="path177"
         d="m -42.642526,67.900571 c 0,0 0.627652,-9.028226 2.504094,-13.625203 1.439621,-3.526837 3.020402,-7.20335 5.714014,-9.896962 2.195084,-2.195084 8.065252,-4.656476 8.065252,-4.656476 l 8.345928,2.236284 8.1858572,4.821547 6.6201464,2.461387 7.2162772,0.801807 c 0,0 -3.84856116,6.894087 -6.7141633,9.510998 -3.1206785,2.84985 -6.8869937,5.280209 -10.9770445,6.344054 -4.036256,1.049854 -8.379599,0.386593 -12.510248,-0.188988 -2.969808,-0.413825 -8.877977,-0.249338 -8.877977,-0.249338 z"
         style="fill:#ffffff;stroke:#808080;stroke-width:3.065;stroke-linecap:butt;stroke-linejoin:miter;stroke-miterlimit:4;stroke-dasharray:none;stroke-opacity:1" />
      <path
         id="path179"
         d="m -74.568197,19.039691 c 0,0 -3.341975,6.203785 -3.741775,9.621703 -0.376192,3.216093 1.33635,9.621702 1.33635,9.621702"
         style="fill:#ffff00;stroke:#808080;stroke-width:3.065;stroke-linecap:butt;stroke-linejoin:miter;stroke-miterlimit:4;stroke-dasharray:none;stroke-opacity:1" />
      <path
         id="path181"
         d="m -98.273808,26.369047 c 0,0 -2.741702,8.323197 -1.952262,12.44859 0.427885,2.236017 1.867339,4.267513 3.474503,5.879928 1.65337,1.658771 6.037283,3.594102 6.037283,3.594102 0,0 2.103479,-4.933873 2.26786,-7.559524 0.204128,-3.26052 -0.393534,-6.638763 -1.623406,-9.665324 -0.5303,-1.305002 -1.232262,-2.694799 -2.405425,-3.474503 -1.645181,-1.093415 -5.798553,-1.223269 -5.798553,-1.223269 z"
         style="fill:#ffff00;stroke:#808080;stroke-width:3.065;stroke-linecap:butt;stroke-linejoin:miter;stroke-miterlimit:4;stroke-dasharray:none;stroke-opacity:1" />
      <path
         id="path183"
         d="m 49.979402,-108.98241 c 0,0 -2.106971,11.017062 -1.870887,16.57071 0.173642,4.084748 1.397266,8.06494 2.405425,12.027128 0.667061,2.62163 2.405425,7.750815 2.405425,7.750815"
         style="fill:#ffff00;stroke:#808080;stroke-width:3.065;stroke-linecap:butt;stroke-linejoin:miter;stroke-miterlimit:4;stroke-dasharray:none;stroke-opacity:1" />
      <path
         id="path185"
         d="m -74.839284,80.041667 c 0,0 7.819531,-6.818312 12.851191,-8.758304 5.662294,-2.183138 18.142854,-2.580983 18.142854,-2.580983"
         style="fill:#ffff00;stroke:#808080;stroke-width:3.065;stroke-linecap:butt;stroke-linejoin:miter;stroke-miterlimit:4;stroke-dasharray:none;stroke-opacity:1" />
      <path
         id="path187"
         d="m -140.07948,151.86683 -10.80638,-14.01362 21.618,-1.87107 -10.81162,15.88469"
         style="fill:#ffffff;stroke:#808080;stroke-width:3.065;stroke-linecap:butt;stroke-linejoin:miter;stroke-miterlimit:4;stroke-dasharray:none;stroke-opacity:1" />
      <path
         id="path1003"
         d="m 47.306706,286.30922 c 0,0 -11.747822,8.72979 -16.570711,14.16529 -3.837447,4.32488 -7.3932,9.09734 -9.621703,14.43254 -3.400805,8.14178 -5.34539,25.92515 -5.34539,25.92515"
         style="fill:#ffff00;stroke:#808080;stroke-width:0.264583px;stroke-linecap:butt;stroke-linejoin:miter;stroke-opacity:1" />
      <path
         id="path1005"
         d="m -81.784475,253.9696 c 0,0 -12.95636,12.01394 -17.907058,19.24341 -3.692127,5.39159 -6.963077,11.30146 -8.552627,17.63979"
         style="fill:#ffff00;stroke:#808080;stroke-width:0.264583px;stroke-linecap:butt;stroke-linejoin:miter;stroke-opacity:1" />
      <path
         id="path1009"
         d="m -207.40115,87.995227 c 0,0 14.18495,-1.232474 21.11429,0 4.57877,0.814393 8.85547,2.901811 13.09621,4.810853 2.39893,1.079917 6.94901,3.741774 6.94901,3.741774"
         style="fill:none;stroke:#808080;stroke-width:2.065;stroke-linecap:butt;stroke-linejoin:miter;stroke-miterlimit:4;stroke-dasharray:none;stroke-opacity:1" />
      <path
         id="path1011"
         d="m -221.8337,105.63502 c 0,0 12.67304,-4.18886 19.2434,-4.27632 3.26701,-0.0435 6.48454,0.95794 9.6217,1.87089 2.57336,0.74888 7.48355,2.93997 7.48355,2.93997"
         style="fill:none;stroke:#808080;stroke-width:2.865;stroke-linecap:butt;stroke-linejoin:miter;stroke-miterlimit:4;stroke-dasharray:none;stroke-opacity:1" />
      <path
         id="path1013"
         d="m -196.4431,165.23612 c 0,0 8.25306,-7.9789 12.02713,-12.2944 3.05029,-3.48788 6.06517,-7.04881 8.55262,-10.95805 3.05867,-4.80696 7.75082,-15.23436 7.75082,-15.23436"
         style="fill:none;stroke:#808080;stroke-width:2.665;stroke-linecap:butt;stroke-linejoin:miter;stroke-miterlimit:4;stroke-dasharray:none;stroke-opacity:1" />
      <path
         id="path1015"
         d="m -186.8214,177.26325 c 0,0 7.39533,-11.88391 10.95805,-17.90706 2.9254,-4.9457 6.13658,-9.75359 8.55263,-14.96709 2.6307,-5.67668 6.41447,-17.63979 6.41447,-17.63979"
         style="fill:none;stroke:#808080;stroke-width:2.465;stroke-linecap:butt;stroke-linejoin:miter;stroke-miterlimit:4;stroke-dasharray:none;stroke-opacity:1" />
      <path
         id="path1017"
         d="m 140.3165,-25.05978 c 0,0 -14.33333,13.578315 -20.31248,21.3815616 -7.49022,9.7753135 -19.24341,31.5378034 -19.24341,31.5378034"
         style="fill:#ffff00;stroke:#808080;stroke-width:3.665;stroke-linecap:butt;stroke-linejoin:miter;stroke-miterlimit:4;stroke-dasharray:none;stroke-opacity:1" />
      <path
         id="path1019"
         d="m 163.03441,25.45416 c 4.24954,9.354434 3.50816,18.708867 2.13816,28.063301"
         style="fill:#ffff00;stroke:#808080;stroke-width:2.465;stroke-linecap:butt;stroke-linejoin:miter;stroke-miterlimit:4;stroke-dasharray:none;stroke-opacity:1" />
      <path
         id="path1021"
         d="m 143.25646,30.26501 c 3.91584,3.478615 6.58921,8.199702 6.94901,15.234364"
         style="fill:#ffff00;stroke:#808080;stroke-width:2.465;stroke-linecap:butt;stroke-linejoin:miter;stroke-miterlimit:4;stroke-dasharray:none;stroke-opacity:1" />
      <path
         id="path1023"
         d="m 129.89299,39.619443 c 4.4725,3.633711 9.04141,6.689014 12.82894,14.432555"
         style="fill:#ffff00;stroke:#808080;stroke-width:2.465;stroke-linecap:butt;stroke-linejoin:miter;stroke-miterlimit:4;stroke-dasharray:none;stroke-opacity:1" />
      <path
         id="path1025"
         d="m 149.13639,70.088169 c 0,0 -0.049,4.950538 0.80181,7.216278 0.87752,2.336775 2.12943,4.873847 4.27632,6.147199 2.85167,1.691368 9.88897,1.069078 9.88897,1.069078"
         style="fill:#ffff00;stroke:#808080;stroke-width:2.465;stroke-linecap:butt;stroke-linejoin:miter;stroke-miterlimit:4;stroke-dasharray:none;stroke-opacity:1" />
      <path
         id="path1027"
         d="M 184.41597,61.001007 180.6742,77.571718"
         style="fill:#ffff00;stroke:#808080;stroke-width:2.465;stroke-linecap:butt;stroke-linejoin:miter;stroke-miterlimit:4;stroke-dasharray:none;stroke-opacity:1" />
      <path
         id="path1029"
         d="m 184.41597,61.001007 c 6.79453,5.115064 12.54296,12.531561 12.2944,33.14142"
         style="fill:#ffff00;stroke:#808080;stroke-width:2.465;stroke-linecap:butt;stroke-linejoin:miter;stroke-miterlimit:4;stroke-dasharray:none;stroke-opacity:1" />
      <path
         id="path1031"
         d="m 176.93243,33.204975 c 3.70143,2.623946 5.38542,7.265338 4.81085,14.165286"
         style="fill:#ffff00;stroke:#808080;stroke-width:2.465;stroke-linecap:butt;stroke-linejoin:miter;stroke-miterlimit:4;stroke-dasharray:none;stroke-opacity:1" />
      <path
         id="path1033"
         d="m 97.286108,-36.55237 c 6.703802,0.159078 12.866762,-0.402965 15.350792,-5.870249"
         style="fill:#ffff00;stroke:#808080;stroke-width:2.565;stroke-linecap:butt;stroke-linejoin:miter;stroke-miterlimit:4;stroke-dasharray:none;stroke-opacity:1" />
      <path
         id="path1035"
         d="m 48.910324,234.19166 c 0,0 -10.541954,5.50097 -16.036173,7.75081 -4.875437,1.99645 -11.834659,3.57223 -16.57071,5.87994 -8.04119,3.91818 -14.8120943,7.29555 -20.8470228,13.89801 -4.0872316,4.4716 -6.2051082,10.45138 -8.5526252,16.03617 -2.063556,4.90924 -4.810851,15.23436 -4.810851,15.23436"
         style="fill:#ffff00;stroke:#808080;stroke-width:2.165;stroke-linecap:butt;stroke-linejoin:miter;stroke-miterlimit:4;stroke-dasharray:none;stroke-opacity:1" />
      <path
         id="path1037"
         d="m 64.679226,287.3783 c -8.072164,7.92127 -17.010771,15.71877 -20.312486,24.32153 -6.502017,11.13622 -6.820171,17.19433 -6.949007,28.33055 0.562697,9.88898 1.486551,24.85607 5.61266,34.74505 l 10.95805,19.51067"
         style="fill:#ffff00;stroke:#808080;stroke-width:2.665;stroke-linecap:butt;stroke-linejoin:miter;stroke-miterlimit:4;stroke-dasharray:none;stroke-opacity:1" />
      <path
         id="path1039"
         d="m -94.34614,350.18662 c -2.699884,11.28053 -8.17265,20.91947 -14.69983,29.93419 -7.739,11.4132 -17.13296,17.30984 -26.99422,21.64884 -10.04722,0.50546 -22.45429,8.82341 -32.60688,2.93997 -15.03289,-4.13917 -22.46615,-11.45476 -25.39061,-20.57975 -6.10688,-9.2083 -3.27987,-15.70591 -3.26589,-22.87393"
         style="fill:#ffff00;stroke:#808080;stroke-width:2.165;stroke-linecap:butt;stroke-linejoin:miter;stroke-miterlimit:4;stroke-dasharray:none;stroke-opacity:1" />
      <path
         id="path1041"
         d="m -80.715397,344.30671 c 0,0 -4.634487,15.86373 -7.483545,23.25245 -4.071861,10.55992 -7.783798,18.47553 -16.308698,25.91987 -4.71086,4.11374 -10.99658,9.5169 -16.83273,11.76513 -6.50473,2.50578 -17.66045,6.87189 -17.66045,6.87189"
         style="fill:#ffff00;stroke:#808080;stroke-width:2.465;stroke-linecap:butt;stroke-linejoin:miter;stroke-miterlimit:4;stroke-dasharray:none;stroke-opacity:1" />
      <path
         id="path1043"
         d="m -58.799295,371.30093 c -2.626023,7.09099 -7.876789,12.99447 -12.828937,18.70887 -3.964054,4.57422 -13.363477,12.29439 -13.363477,12.29439"
         style="fill:#ffff00;stroke:#808080;stroke-width:1.765;stroke-linecap:butt;stroke-linejoin:miter;stroke-miterlimit:4;stroke-dasharray:none;stroke-opacity:1" />
      <path
         id="path1045"
         d="m 20.312484,357.93746 -9.621703,25.65786 -21.114292,17.90705 -22.45064,7.48356"
         style="fill:#ffff00;stroke:#808080;stroke-width:0.264583px;stroke-linecap:butt;stroke-linejoin:miter;stroke-opacity:1" />
      <path
         id="path1047"
         d="m -98.541078,29.442647 c 8.239257,1.656099 7.584443,10.53205 4.218655,17.111768 l -5.903647,-7.736778 z"
         style="fill:#333333;stroke:#808080;stroke-width:0.264583px;stroke-linecap:butt;stroke-linejoin:miter;stroke-opacity:1" />
      <path
         id="path175"
         d="m -19.790763,47.047031 c 2.137854,3.883479 1.821904,8.530729 0.801809,12.350358 -0.568129,1.778603 -0.728781,3.186919 -2.778213,6.31163 -1.288616,0.423619 -2.825566,0.283065 -4.425246,0 -1.274889,-0.425577 -2.549777,-1.189951 -3.824665,-2.328207 -1.429419,-1.540097 -2.138836,-4.715912 -2.314008,-9.105444 0.177145,-5.176774 1.083909,-8.281583 2.515159,-9.896962 1.183371,-3.085791 2.366743,-3.588395 3.550114,-4.656476 l 3.673659,2.236284 z"
         style="fill:#1a1a1a;stroke:#808080;stroke-width:2.03349;stroke-linecap:butt;stroke-linejoin:miter;stroke-miterlimit:4;stroke-dasharray:none;stroke-opacity:1" />
    </g>
  </g>
</svg>
