<?xml version="1.0" encoding="utf-8"?>
<svg xmlns:dc="http://purl.org/dc/elements/1.1/" xmlns="http://www.w3.org/2000/svg"
     xmlns:xl="http://www.w3.org/1999/xlink"
     xmlns:xlink="http://www.w3.org/1999/xlink"
     version="1.1"
     viewBox="54 72 310.5 216"
     width="310.5"
     height="216"
     preserveAspectRatio="xMidYMid meet"
     zoomAndPan="magnify"
     contentScriptType="application/ecmascript"
     contentStyleType="text/css">
   <defs/>
   <metadata xmlns="" xmlns:svg="http://www.w3.org/2000/svg"
             xmlns:rdf="http://www.w3.org/1999/02/22-rdf-syntax-ns#"
             xmlns:cc="http://creativecommons.org/ns#">
      <rdf:RDF>
         <cc:Work rdf:about="">
            <dc:creator>
               <cc:Agent>
                  <dc:title>http://heraldicart.org Hedgehog Statant (2).svg</dc:title>
               </cc:Agent>
            </dc:creator>
         </cc:Work>
      </rdf:RDF>
   </metadata>
   <metadata> Produced by OmniGraffle 7.11.5 
    <dc:date>2020-12-19 19:55:45 +0000</dc:date>
  </metadata>
   <g stroke-opacity="1" fill="#ffff00" fill-opacity="1" stroke="#505050"
      stroke-dasharray="none">
      <title>Hedgehog Statant (2)</title>
      <g>
         <title>Art</title>
         <g>
            <g>
               <g  id="outline-0">
                  <path
                        d="M 211.7263 78.43238 C 210.46335 79.7908 208.50755 82.24704 207.42485 83.79875 C 205.45274 86.72193 195.6272 94.98093 194.22639 94.93202 C 192.26525 94.86353 194.05058 91.93383 199.3956 86.1364 C 205.22387 79.88834 206.42605 77.59279 203.99798 77.508 C 202.59716 77.45908 197.68765 81.49519 197.64526 82.70923 C 197.62895 83.17617 196.64616 84.54437 195.47985 85.81266 C 194.22342 86.9843 191.39452 90.34506 189.05213 93.1618 C 186.80312 95.98181 183.99705 98.68886 182.94696 99.3067 C 179.23963 101.04726 179.32442 98.61919 183.13285 93.98361 C 186.35812 89.98218 193.10307 78.90406 193.15199 77.50325 C 193.20417 76.00905 181.97544 89.64213 176.25894 98.04463 C 173.70042 101.69534 170.76627 102.7149 170.86085 100.00666 C 170.89672 98.9794 171.3094 97.87179 171.79264 97.42116 C 173.15225 95.97262 182.8174 78.91888 182.85654 77.798235 C 182.9609 74.80984 177.29124 79.19341 177.09024 82.27194 C 177.02501 84.13969 166.15768 103.48897 164.72425 104.37393 C 161.76076 106.23397 161.4883 103.32591 164.1826 98.46443 C 166.37736 94.52052 169.1446 84.89301 168.33346 84.02317 C 167.42893 83.15007 165.07675 86.24698 163.63236 90.1236 C 161.15626 96.76923 155.4777 106.76257 154.4635 106.35315 C 152.4318 105.62769 152.81631 102.64908 155.40092 98.25127 C 158.57847 92.93915 158.8696 89.95728 156.34814 89.86923 C 153.92007 89.78444 153.12405 91.15916 152.18128 96.73632 C 151.26134 101.65976 148.35625 109.87993 146.79683 111.6955 C 146.30706 112.33291 145.26023 112.85736 144.60652 112.83453 C 142.64538 112.76605 143.17873 108.20311 145.61244 102.77152 C 147.93645 97.8036 147.76065 94.80542 145.29996 95.6545 C 144.35304 95.99544 143.83393 97.47333 143.64923 100.08492 C 143.49269 104.56752 138.55353 117.48523 136.85299 117.98685 C 134.58886 118.5623 134.61288 115.19709 136.78599 109.19539 C 139.47495 101.80918 139.52061 100.50176 137.18592 100.42023 C 134.47769 100.32565 133.15603 103.36504 133.71725 108.71422 C 133.99622 111.4355 133.72466 113.85705 133.2349 114.49446 C 132.65174 115.1286 131.92302 117.25368 131.48425 119.10839 C 131.04221 121.05648 130.32654 122.80801 129.75317 123.162 C 127.5596 124.39441 127.18072 121.85665 128.66098 116.95277 C 130.56372 110.66112 130.92985 105.53134 129.32596 105.94283 C 128.75911 106.11004 127.31265 107.36855 126.32985 108.73675 C 124.76717 110.6457 124.32188 112.68718 123.9839 119.68798 C 123.6818 125.66152 123.21041 128.4501 122.4568 128.61078 C 121.50987 128.95172 121.29167 127.16758 121.4743 121.93788 C 121.66345 116.5214 121.44198 114.83065 120.41472 114.79478 C 119.76101 114.77195 118.88791 115.67647 118.47523 116.78408 C 117.42069 120.2068 117.40409 128.71484 118.39103 132.58286 C 119.13368 135.41384 119.09455 136.53448 118.12154 137.62252 C 116.17226 139.89199 115.11357 138.07849 115.9173 133.8055 C 116.28225 131.3872 116.25409 129.5162 115.61342 129.11982 C 115.15627 128.82335 114.74151 127.31284 114.79695 125.72526 C 114.9013 122.73686 113.89035 122.23405 112.04098 124.32 C 110.87467 125.58829 110.87556 130.9179 111.96212 142.6435 C 112.30839 146.11515 111.87288 147.87646 109.77804 151.63686 C 108.3793 154.20606 106.2302 156.84255 105.08998 157.36374 C 103.85638 157.88167 98.36045 162.64532 92.75157 167.96603 C 87.14595 173.19335 81.157 178.6878 79.5205 180.03317 C 75.67738 182.9845 75.38625 185.96638 78.45707 189.06566 C 81.98177 192.5548 80.97615 194.5767 74.53776 196.8764 C 71.413576 197.98283 67.88323 200.01007 66.62354 201.2751 C 65.36711 202.44675 63.06385 204.14284 61.54356 204.83776 C 58.97644 206.05713 58.67671 206.60767 58.5267 210.9035 C 58.3082 217.16046 59.36689 218.97395 64.08399 220.4477 C 68.43407 221.72162 70.79692 223.67416 72.53748 227.3815 C 74.5419 231.56555 79.45556 232.76565 89.04631 231.23054 C 99.57745 229.54127 113.30866 229.92727 114.91789 232.0405 C 116.88436 234.6337 120.93797 236.36478 125.42057 236.5213 C 130.08994 236.68437 132.30189 237.60313 136.47053 241.39525 C 139.28401 243.83103 147.08497 248.0305 150.23732 248.7951 C 151.72173 249.12744 152.15606 250.07762 152.38938 254.10632 C 152.57497 256.82434 152.29688 259.43267 151.81364 259.8833 C 151.23375 260.42406 149.07279 260.7226 146.92488 260.6476 C 141.32163 260.45192 138.38097 261.65825 136.10913 265.13197 C 133.34427 269.33648 133.56247 271.12062 137.16752 274.98657 C 140.32194 278.36927 140.59884 278.47244 145.8481 278.09474 C 149.59339 277.94502 152.521 277.11225 155.19782 275.4292 C 159.87816 272.6006 161.36258 272.93294 163.26057 277.48728 C 164.47342 280.24117 165.56472 281.1208 169.63137 282.47832 C 176.00988 284.5711 175.72972 284.5613 182.09755 281.60463 C 185.04474 280.21153 188.83242 278.84778 190.52318 278.6263 C 195.04165 277.7556 195.9441 276.01058 196.83706 266.50462 C 197.2868 261.65826 198.18718 257.29514 198.76707 256.75438 C 199.6369 255.94324 201.408 256.0986 206.1251 257.57234 C 213.24746 259.78458 222.02588 260.09113 226.76374 258.29305 C 228.65758 257.61118 232.13574 257.07813 234.6572 257.16618 C 237.08527 257.25097 240.27675 256.8949 241.79052 256.38677 C 244.06117 255.62455 253.19802 253.69958 262.98206 251.98422 C 264.9595 251.58577 265.78694 251.98867 267.02262 254.08885 C 268.43855 256.38232 268.4255 256.75587 266.97904 258.01438 C 266.1092 258.82552 263.6257 260.3283 261.34526 261.3707 C 256.88104 263.36533 252.88257 268.08777 252.76843 271.35633 C 252.6706 274.15796 255.0302 276.20388 260.12084 277.69067 C 263.73034 278.75173 264.94764 278.70074 267.32472 277.56823 C 268.94166 276.78318 271.57933 276.22078 273.16692 276.27622 C 274.7545 276.33166 278.05242 275.6053 280.5131 274.75623 C 282.97705 273.81376 286.28474 272.80725 287.79525 272.3925 C 290.2494 271.73018 290.74244 270.9994 291.62325 267.1966 C 292.3911 263.95086 292.3662 261.98646 291.6007 259.8092 C 289.38136 253.7476 288.6811 249.7026 289.6476 248.80134 C 290.13083 248.3507 292.4916 247.68514 294.7427 247.48324 C 298.68453 247.0599 299.32845 247.36288 303.774 251.25817 C 309.0372 255.83653 309.54208 257.4437 306.0313 258.9106 C 303.09063 260.11694 298.73374 267.0709 298.60655 270.713 C 298.4696 274.63527 304.4962 278.7728 310.38286 278.88485 C 316.26953 278.9969 328.1668 275.67232 329.36245 273.56355 C 329.9554 272.64924 330.42677 269.86066 330.5148 267.3392 C 330.6942 262.2029 332.7229 254.98063 335.21414 250.57956 C 337.006 247.4631 336.84857 246.61608 333.8842 243.1465 C 331.19344 239.8735 332.56282 238.1448 337.79252 238.32743 C 343.1156 238.5133 345.9629 237.30372 343.77377 235.73126 C 343.04297 235.23823 340.8245 234.50625 338.96654 234.16086 C 333.76945 233.04436 335.6861 231.70878 342.12985 231.9338 C 346.2389 232.0773 347.65276 231.75265 347.68537 230.81878 C 347.7408 229.2312 345.71563 228.31896 342.07352 228.19178 C 340.57932 228.1396 339.3816 227.63026 339.3979 227.16333 C 339.43377 226.13607 340.0006 225.96886 346.4476 226.1005 C 349.9062 226.12777 351.1333 225.7966 351.16916 224.76935 C 351.20504 223.7421 349.63376 223.2197 344.79065 222.67658 C 334.17057 221.5577 336.23607 218.6378 347.34917 219.02587 C 356.31437 219.33894 354.5314 216.84565 344.32075 214.71256 C 338.84024 213.67966 340.19332 212.4179 347.50363 211.92516 C 355.65443 211.46179 354.3058 209.91867 345.434 209.60886 C 341.88527 209.48494 339.0967 209.01355 339.11626 208.45323 C 339.1782 206.67886 342.9496 205.78205 349.39332 206.00707 C 353.03543 206.13425 356.2269 205.7782 356.62003 205.23092 C 358.00246 203.12866 355.04993 201.99704 347.66906 201.8328 C 343.6534 201.69257 340.30124 201.295 340.3143 200.92145 C 340.36646 199.42726 342.914 198.7682 350.21454 198.55564 C 356.0176 198.38428 357.71163 198.06943 357.75076 196.94878 C 357.7899 195.82813 356.21535 195.39915 350.61863 195.0167 C 346.6095 194.6897 343.35723 194.10862 343.37354 193.64168 C 343.3931 193.08136 343.49954 192.71107 343.6863 192.7176 C 343.7797 192.72085 346.23713 191.96515 349.07462 191.03573 C 351.9121 190.1063 354.92987 189.37017 355.77035 189.39952 C 356.61084 189.42887 357.9411 188.82082 358.6274 187.90977 C 359.89037 186.55135 359.6102 186.54157 355.2948 186.95188 C 352.66693 187.23412 348.60887 188.30792 346.14492 189.2504 C 341.9739 190.88127 339.26894 190.6933 339.99114 188.755 C 340.40056 187.74078 352.69746 183.68213 355.03215 183.76366 C 355.87264 183.79301 357.10624 183.27508 357.69265 182.54755 C 360.6117 179.28344 351.54657 179.15388 344.98218 182.3842 C 340.70147 184.47874 339.36262 182.65546 343.3762 180.17758 C 344.713 179.38275 348.404 178.10913 351.60528 177.4729 C 359.70834 175.69884 361.92148 173.9061 358.34785 171.81778 C 357.06325 171.1184 354.89578 171.60373 349.58455 173.75579 C 341.4228 177.21083 340.20222 177.3552 340.29027 174.83374 C 340.3392 173.43293 341.77914 172.3612 345.66672 170.81393 C 348.6074 169.6076 351.72505 168.68796 352.65892 168.72057 C 354.52667 168.7858 357.0428 166.34913 356.23492 165.3859 C 355.60078 164.80275 350.30586 166.48787 344.8882 169.01022 C 341.46755 170.5738 338.57254 170.4727 338.62798 168.88511 C 338.703 166.7372 341.76313 164.78703 348.19827 162.58072 C 352.07607 161.31362 354.45967 159.99433 354.6823 158.9736 C 355.0114 157.58256 354.64437 157.38275 351.53976 157.92884 C 349.56558 158.2339 346.15797 159.42393 343.96767 160.56296 C 339.5838 162.9344 336.02202 163.18403 336.0905 161.2229 C 336.15247 159.44853 336.9126 159.10107 345.89204 156.3291 C 351.1837 154.73736 353.7508 153.51799 353.97673 152.40386 C 354.3058 151.01283 353.9388 150.81301 350.74404 151.26246 C 348.76986 151.56752 344.512 153.00836 341.188 154.4818 C 336.6271 156.56657 335.02322 156.97806 334.2121 156.10823 C 333.49108 155.33504 333.5139 154.68133 334.0004 154.1373 C 335.15693 153.14918 346.4331 148.86788 349.44432 148.31853 C 350.57476 148.0775 351.538 147.26963 351.56407 146.52253 C 351.59994 145.49526 351.13953 145.29218 350.00257 145.71999 C 349.05565 146.06092 346.41145 146.8101 344.05394 147.38228 C 341.69643 147.95447 338.1053 149.04458 336.20495 149.91323 C 332.78756 151.38341 329.89907 151.09554 329.96103 149.32118 C 329.99364 148.3873 339.11538 144.21778 343.9238 143.07668 C 345.5277 142.66518 347.15114 141.69336 347.4574 140.95604 C 348.3729 138.83748 344.06402 139.06102 338.36946 141.4802 C 332.29157 144.16649 327.7894 144.57028 327.8579 142.60914 C 327.88724 141.76866 330.9376 140.09865 336.23904 138.22675 C 344.1912 135.4189 346.3978 133.81294 343.24547 133.04835 C 342.5049 132.83548 338.15363 134.27306 333.5993 136.17104 C 324.58073 140.06367 322.5099 140.45886 323.06163 138.0471 C 323.28428 137.02635 326.7147 135.18262 332.2127 133.03708 C 337.05048 131.05549 340.95763 128.9479 340.98046 128.29418 C 341.05546 126.14627 334.4466 127.97251 322.85766 133.1779 C 320.57723 134.22028 317.4053 134.01601 317.4477 132.80198 C 317.47706 131.96149 324.32162 128.74096 332.94054 125.58239 C 336.25476 124.3891 337.33094 123.02417 335.77922 121.94146 C 335.32207 121.645 332.29454 122.66129 328.87715 124.13147 C 325.55315 125.60492 321.20515 126.9491 319.23423 127.16078 C 317.26657 127.27907 315.46938 127.87082 315.17617 128.23459 C 314.48333 129.33241 312.899 129.18358 312.93487 128.15632 C 312.9675 127.22245 319.0519 124.34938 327.48405 121.18428 C 331.465 119.64028 333.50116 117.56085 331.0731 117.47606 C 329.29873 117.4141 317.2722 121.76269 314.9722 123.3654 C 312.29213 125.14183 308.31768 126.49907 308.3503 125.56519 C 308.3992 124.16438 310.55157 121.4345 311.57883 121.47037 C 312.13915 121.48994 315.0733 120.47039 317.92058 119.2608 C 320.77112 117.95782 324.09186 116.57776 325.32546 116.05983 C 326.46568 115.53864 327.42564 114.82415 327.44195 114.35722 C 327.50717 112.48947 324.69576 112.6718 321.3522 114.70557 C 319.3454 115.9445 317.15836 116.99015 316.41126 116.96406 C 315.75755 116.94123 313.57376 117.89349 311.57023 119.03904 C 305.4532 122.84598 300.0302 122.84361 304.6465 119.17126 C 307.05295 117.19827 315.1409 113.17964 316.6351 113.23182 C 317.3822 113.25791 318.90574 112.4696 320.1524 111.57812 C 321.97567 110.23927 322.18527 109.59208 321.3774 108.62886 C 320.56626 107.75902 319.71925 107.91645 317.51916 109.33564 C 313.6891 111.91343 299.25613 118.23502 297.3884 118.16979 C 296.5479 118.14044 295.6238 117.82767 295.26004 117.53446 C 294.35878 116.56798 295.74447 114.37233 297.23867 114.42451 C 297.98577 114.4506 300.45298 113.41474 302.65307 111.99555 C 304.7565 110.66648 308.3672 109.01605 310.63458 108.34721 C 314.59925 107.27015 316.22923 106.11155 315.33123 105.05167 C 314.70034 104.37513 297.027 112.45359 295.57074 113.99226 C 294.10797 115.7177 290.00218 115.48083 290.06414 113.70646 C 290.10654 112.49243 299.08715 107.00896 303.05508 105.8385 C 305.5125 105.0828 309.55218 101.85782 308.92455 101.0879 C 307.6628 99.73482 293.4003 106.52986 284.77367 112.5867 C 283.33372 113.65844 280.5235 111.12927 281.60294 109.67094 C 282.48582 108.48625 296.5138 100.374 300.11797 98.91034 C 303.15202 97.70727 303.80692 95.0186 301.0987 94.92403 C 300.07142 94.88815 299.0311 95.22583 298.73465 95.68298 C 297.45213 97.60173 274.5381 108.48922 273.72697 107.61938 C 273.27634 107.13614 279.6833 103.05881 287.78104 98.76003 C 293.68847 95.60027 295.32497 94.2549 295.47706 92.57718 C 295.4901 92.20363 294.7528 91.89738 293.9123 91.86803 C 292.60488 91.82238 288.88776 93.8431 272.45008 104.02174 C 269.10978 105.96212 266.0182 106.13467 266.0867 104.17353 C 266.11604 103.33304 276.55617 96.21751 280.64357 94.30322 C 283.97083 92.73639 287.65327 89.03142 286.84213 88.16159 C 286.48162 87.77499 285.1644 88.0095 283.9243 88.7142 C 276.57366 93.03908 258.65483 102.79199 258.28128 102.77894 C 258.00112 102.76916 257.74378 102.10566 257.76987 101.35856 C 257.79596 100.61146 262.21245 97.30614 267.5628 94.03343 C 276.64007 88.45983 280.22585 84.845 276.7705 84.72434 C 276.0234 84.69825 272.20965 86.8091 268.37958 89.38689 C 253.63918 99.15729 248.41482 101.49939 246.71873 99.19612 C 245.7306 98.0396 246.98377 96.96135 254.241 92.63321 C 261.97498 88.04122 264.8777 85.24404 261.9827 85.14295 C 260.67526 85.09729 248.44773 92.52441 243.54474 96.37375 C 239.60498 99.41521 236.30707 100.14156 236.38533 97.90026 C 236.41142 97.15316 237.67112 95.88813 239.2012 94.91305 C 251.04212 87.84644 256.51522 83.7365 255.5271 82.57998 C 254.71596 81.71014 244.33453 87.1447 236.57122 92.57718 C 229.0012 97.8294 227.01398 98.50802 226.432 96.43067 C 226.09433 95.39036 236.5638 87.43434 240.9379 85.34306 C 243.21833 84.30068 246.36653 79.82905 246.4448 77.58775 C 246.4872 76.37371 243.65296 77.20975 242.47687 78.75821 C 240.90766 80.85394 227.73855 91.14672 224.9814 92.45295 C 223.93456 92.97741 222.10802 94.40964 220.94172 95.67793 C 218.89905 97.94414 216.10395 97.65953 217.49617 95.27711 C 218.48548 93.72213 230.39816 84.601 234.11528 82.58027 C 235.73222 81.79522 236.99843 80.34342 237.03104 79.40955 C 237.1093 77.16825 236.54573 77.24207 232.8959 80.01315 C 231.26266 81.26514 227.3392 83.83967 224.18893 85.69319 C 221.03866 87.5467 217.20533 90.21788 215.75886 91.47639 C 214.30913 92.82828 212.59555 93.70346 212.04175 93.49711 C 211.48794 93.29077 214.60353 89.75302 218.94945 85.79072 C 223.39203 81.7383 226.79756 77.93017 226.6336 77.26993 C 226.2992 76.13624 220.54267 80.32978 208.88733 90.11441 C 205.51115 93.08206 202.44448 95.219 202.1741 94.92905 C 201.18597 93.77253 203.3579 90.48233 207.5974 86.89032 C 210.10374 84.73381 213.30618 81.3861 214.8656 79.57053 C 217.21452 76.56701 217.32422 76.10333 215.83002 76.05115 C 214.89614 76.01854 213.08265 77.07723 211.7263 78.43238 Z"
                        fill="black"/>
               </g>
            </g>
            <g>
               <path d="M 227.2559 104.96806 L 227.2559 104.96806 C 219.04432 104.4943 211.11943 103.84355 209.53837 103.60134 C 204.7083 102.68466 189.15055 103.73089 184.70264 105.25859 C 182.33535 106.11094 179.60102 106.76346 178.5705 106.82098 C 169.47604 107.53191 138.93242 120.023 137.87788 123.44572 C 137.55858 124.55658 135.92208 125.90196 134.31166 126.50023 C 132.70125 127.0985 130.19165 129.3484 128.81248 131.35726 C 127.33666 133.45626 124.59136 137.10044 122.6323 139.65007 C 118.61427 144.93283 116.38364 149.90401 117.7551 150.79341 C 119.21669 151.77947 120.87276 149.87377 123.50955 143.98176 C 126.04643 138.27327 127.49616 136.92138 127.38202 140.18994 C 127.27114 143.36511 129.0455 143.42707 130.92748 140.40725 C 134.60131 134.27095 134.98138 134.09722 134.91171 138.76986 C 134.76822 142.8789 134.3751 143.42618 128.56967 149.02054 C 123.3539 153.79397 121.4405 155.03617 117.48561 155.83307 C 113.43734 156.62672 111.90727 157.6018 107.6319 162.22107 C 102.38353 167.92838 90.58587 179.11056 86.25951 182.51253 C 84.90969 183.68091 83.74339 184.9492 83.72708 185.41614 C 83.71078 185.88308 85.1528 187.42945 86.97163 188.89549 C 90.06201 191.43444 90.14888 191.62448 88.50259 193.25001 C 87.62949 194.15454 85.04607 195.84085 82.94915 196.98314 C 77.33167 199.87251 64.16582 210.0719 64.11364 211.5661 C 64.08755 212.3132 65.16254 213.65976 66.534005 214.54917 C 71.00237 217.79075 86.00306 216.63156 103.3755 211.81514 C 111.59152 209.48402 114.02612 209.38203 115.91551 211.50504 C 117.63117 213.24797 117.66467 217.6437 116.02164 219.17585 C 115.3451 219.80674 112.24701 220.16606 108.88506 220.04866 C 102.25456 219.8171 85.8237 221.76787 82.97316 223.07085 C 81.82968 223.68543 81.52995 224.23597 82.16084 224.9125 C 82.70159 225.4924 87.46435 225.65872 95.89531 225.20512 C 110.32264 224.39992 115.25913 224.9463 120.57776 227.93708 C 124.52168 230.13183 130.95237 230.7304 135.21024 229.28957 C 136.62736 228.87155 139.69403 226.7346 142.01033 224.66496 L 146.06631 220.97305 L 145.95543 224.14822 C 145.86738 226.66968 144.98124 227.94776 141.50841 231.00553 C 136.20904 235.49554 136.4305 237.1863 142.4322 239.3594 C 144.83745 240.0979 149.0811 241.74212 151.93697 242.96387 C 155.07301 244.1954 160.92055 245.4281 166.23059 245.98755 L 175.26634 246.9576 L 175.06563 241.995 C 174.9008 236.00517 176.52752 234.93996 178.70567 239.5041 C 179.48745 241.2144 181.34423 244.2713 182.7732 246.19122 C 185.27066 249.64448 185.351 250.0213 184.47553 256.3488 C 183.9748 259.97788 183.10377 263.5005 182.33384 264.12813 C 181.6573 264.75902 178.266 265.4821 174.89427 265.64486 C 165.52292 266.25262 163.5769 268.4287 168.65332 273.00053 C 170.3755 274.5567 172.5842 275.56884 174.35855 275.6308 C 178.18744 275.7645 191.21306 269.58078 192.23173 267.1853 C 192.64115 266.1711 192.54895 263.45634 192.07341 261.0087 C 191.3601 257.33724 191.58928 256.12972 193.41048 252.17276 C 195.12526 248.5861 195.47716 246.54135 195.21776 243.25975 C 194.86822 239.8815 194.99422 238.95088 196.11487 238.99 C 198.1694 239.06176 199.5951 241.07507 199.50053 243.7833 C 199.45488 245.09073 199.95324 246.88466 200.5776 247.74798 C 202.0967 249.76455 211.09006 251.94864 216.15255 251.5644 C 240.24444 249.78768 248.12812 248.94097 252.08952 247.9573 C 254.63708 247.29824 258.4953 246.59146 260.55962 246.38305 C 266.5625 245.84466 288.69 244.09283 289.3437 244.11566 C 291.30484 244.18415 290.9488 240.99267 288.77923 238.85988 C 284.80063 234.9809 282.02095 228.89973 282.61507 225.27393 C 283.09624 222.2052 284.9803 221.80347 285.6263 224.72457 C 286.42646 228.58607 295.67686 239.47475 300.35483 242.06914 C 306.95806 245.75928 313.0997 251.95784 314.16698 256.20267 C 315.41125 260.7342 314.69884 262.39233 311.3108 263.02203 C 306.97585 263.99266 304.38264 265.95914 304.2946 268.4806 C 304.1935 271.3756 307.51957 272.52027 311.7742 271.17283 C 313.47472 270.6712 315.8257 270.2858 316.94636 270.32493 C 320.3083 270.44233 322.6507 267.6256 323.67056 262.51863 C 324.13216 260.0102 325.30943 255.75026 326.3379 253.07464 C 328.4947 247.53987 328.27323 245.84912 324.919 242.83344 C 322.65605 240.6974 322.57244 240.41397 323.1983 230.52468 C 323.57747 225.02134 323.49298 219.4083 322.9783 218.08132 C 321.96528 214.9604 322.5517 214.23287 328.0399 212.3675 C 333.52813 210.50212 334.4457 211.00167 330.97613 213.96605 C 328.4698 216.12256 328.46653 216.21595 329.46533 222.4219 C 329.99838 225.90008 330.74103 228.73105 331.0212 228.74083 C 331.39474 228.75388 332.03333 226.53215 332.3147 223.83043 C 332.68616 221.22537 333.61914 215.92837 334.4033 212.2157 C 335.64906 205.99462 335.5785 205.33764 334.12344 204.16481 C 332.75524 203.18202 332.6912 202.33827 333.4199 200.2132 C 334.65797 196.89038 334.34757 192.39147 332.94676 192.34256 C 332.38643 192.323 331.0529 193.02443 330.0897 193.8323 C 328.6465 194.99743 328.0829 195.07125 327.18164 194.10476 C 326.37376 193.14154 326.5801 192.58773 328.50003 191.15876 C 333.00664 187.95008 333.3965 187.4962 333.1685 185.9922 C 332.7158 182.89086 330.06835 183.73342 327.30675 187.84454 C 324.35185 192.13592 322.8446 192.45729 322.9718 188.81518 C 323.0142 187.60114 324.7832 185.13838 327.48285 182.80162 C 331.82878 178.83932 331.9287 178.6558 331.62155 174.06352 C 331.1288 166.7532 328.39153 159.45802 323.32608 151.89452 C 318.97185 145.38438 309.03513 135.40675 306.9806 135.335 C 306.4203 135.31543 304.6047 133.75601 302.79893 131.91643 C 300.9964 129.98345 297.8061 127.62801 295.78746 126.529 C 293.6754 125.42674 290.37543 123.53497 288.3633 122.24919 C 286.35117 120.96341 281.5635 118.8327 277.77376 117.57834 C 273.98727 116.23059 268.17887 113.87723 264.96248 112.26889 C 261.7461 110.66055 257.77284 109.30628 256.18525 109.25084 C 254.60092 109.10201 250.79487 108.3146 247.73917 107.45988 C 244.22306 106.40208 236.86828 105.49073 227.2559 104.96806 Z"/>
            </g>
            <g>
               <path d="M 276.3593 251.79685 C 274.1592 253.21605 273.3187 253.1867 272.5239 251.84992 C 271.7323 250.41976 273.92262 249.28073 276.23448 250.01597 C 277.99253 250.54487 277.98927 250.63826 276.3593 251.79685 Z"/>
            </g>
            <g>
               <path d="M 165.5745 251.3877 C 165.50276 253.44224 163.99225 253.857 161.41654 252.64503 C 158.11003 250.94004 158.52271 249.83244 162.3516 249.96615 C 164.5929 250.0444 165.60385 250.54722 165.5745 251.3877 Z"/>
            </g>
            <g>
               <path d="M 281.39124 254.9646 C 281.37494 255.43155 280.605 256.05917 279.74822 256.49676 C 278.42123 257.01143 278.785 257.30464 281.2934 257.76624 C 284.2655 258.33753 284.53262 258.72087 284.70516 261.81244 C 284.9287 266.1213 283.68205 267.01278 275.8722 268.42308 C 272.39403 268.95613 268.5195 270.12985 267.1827 270.92468 C 264.31913 272.6012 261.24712 272.21342 259.92132 270.0166 C 258.59878 267.72638 261.58836 265.11924 267.64016 263.18004 C 271.61135 261.9162 272.2879 261.2853 272.6496 258.9604 C 272.8918 257.37935 273.23392 255.61477 273.44353 254.96758 C 273.95612 253.67646 281.4369 253.6572 281.39124 254.9646 Z"/>
            </g>
            <g>
               <path d="M 179.91704 253.01058 C 180.16785 253.86085 179.89954 256.189 179.36412 258.13384 C 178.41602 261.18628 177.83612 261.72704 175.68821 261.65203 C 174.19401 261.59985 172.62273 261.07748 171.99185 260.40094 C 170.8202 259.1445 170.68028 255.11906 171.69894 252.7236 C 172.61117 250.69842 179.24168 250.92997 179.91704 253.01058 Z"/>
            </g>
            <g>
               <path d="M 164.94125 256.13417 C 164.92168 256.6945 163.13101 257.09947 160.97658 257.21123 C 157.41807 257.36747 156.04335 256.57145 157.49308 255.21956 C 158.36292 254.40842 164.9706 255.29368 164.94125 256.13417 Z"/>
            </g>
            <g>
               <path d="M 163.13516 262.3357 C 163.28932 263.27608 162.47374 265.21113 161.3943 266.66946 C 159.72845 268.8553 158.11477 269.54697 152.1857 270.64895 C 144.656 272.06903 140.56979 271.27182 140.66762 268.4702 C 140.7361 266.50906 142.73964 265.3635 148.77188 263.98464 C 151.87975 263.34516 154.72703 262.13557 155.22332 261.3114 C 156.41571 259.296 162.83662 260.17473 163.13516 262.3357 Z"/>
            </g>
            <g>
               <g  id="outline-1">
                  <path
                        d="M 263.97317 84.37094 C 263.95687 84.83788 264.41728 85.04096 264.894 84.7771 C 265.4641 84.51651 265.85397 84.06262 265.86375 83.78245 C 265.87027 83.59568 265.50325 83.39586 264.94292 83.37629 C 264.47598 83.35999 263.99274 83.81062 263.97317 84.37094 Z"
                        fill="black"/>
               </g>
            </g>
            <g>
               <g  id="outline-2">
                  <path
                        d="M 200.94643 111.34242 C 199.48365 113.06786 198.3977 114.71296 198.38464 115.08651 C 198.3716 115.46006 197.38555 116.92165 196.30937 118.28659 C 194.16027 120.92308 194.36869 122.98739 196.70337 123.06891 C 198.0108 123.11457 202.19722 115.68716 203.48745 110.87014 C 204.53547 107.63419 203.97188 107.70801 200.94643 111.34242 Z"
                        fill="black"/>
               </g>
            </g>
            <g>
               <g  id="outline-3">
                  <path
                        d="M 206.43227 114.90003 C 202.38489 121.02329 202.05907 122.32093 204.58053 122.40898 C 206.63505 122.48072 207.41477 121.57294 209.35218 116.96553 C 213.12385 108.02761 211.75565 107.04482 206.43227 114.90003 Z"
                        fill="black"/>
               </g>
            </g>
            <g>
               <g  id="outline-4">
                  <path
                        d="M 214.09004 115.16745 C 211.01567 120.20266 210.55733 122.61769 212.61185 122.68944 C 214.01266 122.73835 217.49646 116.68892 218.28062 112.97625 C 218.95834 109.63387 216.6714 110.86303 214.09004 115.16745 Z"
                        fill="black"/>
               </g>
            </g>
            <g>
               <g  id="outline-5">
                  <path
                        d="M 192.22226 112.15978 C 189.54545 113.84283 186.28637 121.48963 187.54814 122.84271 C 188.53953 123.90584 191.28156 120.35504 193.7218 114.73668 C 195.2498 111.14349 194.89907 110.47673 192.22226 112.15978 Z"
                        fill="black"/>
               </g>
            </g>
            <g>
               <g  id="outline-6">
                  <path
                        d="M 240.83472 115.07288 C 239.49795 115.86771 234.57095 123.08226 234.5253 124.38968 C 234.44376 126.72437 237.49412 125.05437 239.77574 121.30049 C 242.34404 117.36962 242.93817 113.74381 240.83472 115.07288 Z"
                        fill="black"/>
               </g>
            </g>
            <g>
               <g  id="outline-7">
                  <path
                        d="M 174.13089 118.82112 C 170.42118 125.98467 170.0758 127.84264 172.77543 125.50588 C 173.8353 124.60788 174.73123 123.04964 174.76384 122.11577 C 174.79646 121.18189 175.5154 119.33697 176.39827 118.15228 C 177.28116 116.9676 177.81006 115.20954 177.6559 114.26915 C 177.505 113.23536 176.23225 114.87394 174.13089 118.82112 Z"
                        fill="black"/>
               </g>
            </g>
            <g>
               <g  id="outline-8">
                  <path
                        d="M 247.4934 117.17543 C 247.18062 118.09952 245.32473 120.37225 243.3885 122.26816 C 240.77573 124.79496 240.173 125.98943 240.89402 126.76262 C 241.61503 127.5358 242.35887 127.65528 243.5056 126.94732 C 245.22245 125.97876 249.58913 118.74464 249.75426 116.69338 C 249.81296 115.0124 248.11895 115.32725 247.4934 117.17543 Z"
                        fill="black"/>
               </g>
            </g>
            <g>
               <g  id="outline-9">
                  <path
                        d="M 181.2479 118.50864 C 178.1931 122.98353 177.86727 124.28117 179.64163 124.34313 C 181.416 124.4051 184.50668 118.90294 184.22118 116.36844 C 183.99646 114.77107 183.51973 115.03492 181.2479 118.50864 Z"
                        fill="black"/>
               </g>
            </g>
            <g>
               <g  id="outline-10">
                  <path
                        d="M 222.6295 116.96168 C 221.94645 117.77933 221.5468 118.51339 221.7238 118.80007 C 221.99744 118.99663 222.67398 118.36575 223.3603 117.4547 C 224.746 115.25906 224.37897 115.05924 222.6295 116.96168 Z"
                        fill="black"/>
               </g>
            </g>
            <g>
               <g  id="outline-11">
                  <path
                        d="M 229.12423 118.404 C 225.83818 121.46829 225.27993 124.06683 227.8014 124.15488 C 229.01543 124.19728 230.08835 122.92572 231.20692 120.34675 C 232.12242 118.22819 232.75123 116.28662 232.47759 116.09006 C 232.29733 115.89676 230.76726 116.87185 229.12423 118.404 Z"
                        fill="black"/>
               </g>
            </g>
            <g>
               <g  id="outline-12">
                  <path
                        d="M 254.00324 120.86231 C 252.83694 122.1306 250.98105 124.40332 249.995 125.86491 C 248.5094 128.24407 248.49635 128.61762 249.71038 128.66001 C 250.55087 128.68936 251.21763 128.33864 251.23393 127.8717 C 251.2535 127.31138 252.4296 125.76293 253.78593 124.40777 C 255.14227 123.05262 256.70496 121.14366 257.2045 120.22609 C 258.59672 117.84367 256.71267 118.24539 254.00324 120.86231 Z"
                        fill="black"/>
               </g>
            </g>
            <g>
               <g  id="outline-13">
                  <path
                        d="M 261.07668 124.47537 C 256.43428 128.89482 255.64805 129.98938 256.7426 130.77561 C 258.935 132.25469 260.2522 132.02018 260.98744 129.70833 C 261.40012 128.60072 262.48935 126.86223 263.4591 125.86758 C 265.4985 123.69477 267.68673 119.93763 267.23936 119.361 C 267.0591 119.1677 264.26608 121.5012 261.07668 124.47537 Z"
                        fill="black"/>
               </g>
            </g>
            <g>
               <g  id="outline-14">
                  <path
                        d="M 219.0372 120.76328 C 217.3334 121.3583 217.468 122.85902 219.14897 122.91772 C 219.89607 122.94381 220.5726 122.31292 220.5987 121.56582 C 220.6248 120.81872 220.55423 120.16175 220.45758 120.25188 C 220.2708 120.24536 219.6073 120.50269 219.0372 120.76328 Z"
                        fill="black"/>
               </g>
            </g>
            <g>
               <g  id="outline-15">
                  <path
                        d="M 268.74957 126.98734 C 263.35355 131.56748 262.4348 133.77943 265.70336 133.89357 C 267.29094 133.949 268.454 132.7741 272.38515 127.3013 C 276.31632 121.8285 274.82538 121.68294 268.74957 126.98734 Z"
                        fill="black"/>
               </g>
            </g>
            <g>
               <g  id="outline-16">
                  <path
                        d="M 150.88808 123.05853 C 149.86616 125.54738 148.5282 129.05371 147.71587 130.89537 C 146.4876 133.93802 146.4713 134.40496 147.59195 134.44409 C 149.73986 134.5191 151.1549 131.48297 153.84832 121.29188 C 155.0256 117.03193 152.73538 118.35447 150.88808 123.05853 Z"
                        fill="black"/>
               </g>
            </g>
            <g>
               <g  id="outline-17">
                  <path
                        d="M 164.05571 123.51836 C 160.9846 128.46018 161.14736 131.83191 164.24338 128.85448 C 166.17635 127.05196 168.69159 119.28568 167.38416 119.24002 C 166.91722 119.22372 165.44793 121.13594 164.05571 123.51836 Z"
                        fill="black"/>
               </g>
            </g>
            <g>
               <g  id="outline-18">
                  <path
                        d="M 156.4608 126.80619 C 154.69177 129.26895 154.3529 130.94014 155.56694 130.98253 C 156.03388 130.99884 156.83316 129.53073 157.45544 127.77593 C 158.80319 123.98944 158.6262 123.70276 156.4608 126.80619 Z"
                        fill="black"/>
               </g>
            </g>
            <g>
               <g  id="outline-19">
                  <path
                        d="M 273.07237 131.71986 L 269.32264 134.67446 L 271.42815 135.9635 C 273.35342 137.05925 273.82688 136.88878 275.86954 134.62258 C 280.93767 128.72198 279.13514 126.789 273.07237 131.71986 Z"
                        fill="black"/>
               </g>
            </g>
            <g>
               <g  id="outline-20">
                  <path
                        d="M 200.23223 131.79427 C 199.2201 134.00295 197.60197 137.4995 196.49644 139.70492 C 194.0823 144.5762 194.05295 145.41668 196.20086 145.49169 C 198.62893 145.57648 200.18835 143.7609 200.2927 140.7725 C 200.3449 139.2783 201.09317 136.5929 201.9055 134.75124 C 203.62027 131.16457 204.0113 127.99918 202.79727 127.95678 C 202.33034 127.94048 201.14773 129.6757 200.23223 131.79427 Z"
                        fill="black"/>
               </g>
            </g>
            <g>
               <g  id="outline-21">
                  <path
                        d="M 226.1984 129.89599 C 225.01904 131.53783 223.73652 133.45657 221.17148 137.29405 C 219.89222 139.1194 218.43596 140.65807 217.96903 140.64177 C 217.5021 140.62546 217.0992 141.4529 217.06332 142.48017 C 217.02092 143.6942 217.6518 144.37074 218.77245 144.40988 C 220.6402 144.4751 222.8827 141.84187 224.23043 138.05538 C 224.64964 136.761 225.84203 134.74561 226.8183 133.56419 C 228.76758 131.29472 229.3193 128.88295 227.9185 128.83404 C 227.35817 128.81447 226.6849 129.35197 226.1984 129.89599 Z"
                        fill="black"/>
               </g>
            </g>
            <g>
               <g  id="outline-22">
                  <path
                        d="M 209.59707 131.37328 C 209.2745 132.57754 207.19923 135.77761 205.05013 138.4141 C 200.65203 143.8706 200.44243 144.51779 202.65437 145.43654 C 204.58942 146.25213 207.705 142.71437 207.81915 139.44581 C 207.86806 138.045 208.2938 136.56385 208.6869 136.01657 C 210.24307 134.29438 211.78737 130.23425 211.05984 129.64784 C 210.59942 129.44476 209.91962 130.16903 209.59707 131.37328 Z"
                        fill="black"/>
               </g>
            </g>
            <g>
               <g  id="outline-23">
                  <path
                        d="M 281.38266 134.7216 C 277.82297 137.58934 277.3679 139.91098 280.2629 140.01208 C 281.57033 140.05773 287.47894 134.18648 287.52785 132.78567 C 287.5898 131.0113 285.03574 131.85713 281.38266 134.7216 Z"
                        fill="black"/>
               </g>
            </g>
            <g>
               <g  id="outline-24">
                  <path
                        d="M 182.9434 136.89411 C 181.11567 141.03784 179.58115 144.81781 179.5681 145.19136 C 179.5518 145.6583 180.47915 145.87768 181.60633 145.73004 C 183.29382 145.60197 183.88676 144.68766 184.5547 141.62544 C 185.00326 139.49058 185.84167 136.90182 186.34448 135.89086 C 187.63352 133.78535 187.97683 129.30927 186.94957 129.2734 C 186.48263 129.25709 184.681 132.65373 182.9434 136.89411 Z"
                        fill="black"/>
               </g>
            </g>
            <g>
               <g  id="outline-25">
                  <path
                        d="M 141.41118 129.36619 C 141.11472 129.82334 140.57277 131.95494 140.12748 133.99642 C 139.5464 137.24868 139.61696 137.90565 140.92438 137.95131 C 142.13842 137.9937 142.4512 137.06961 142.58164 133.33411 C 142.74144 128.75813 142.49389 127.81447 141.41118 129.36619 Z"
                        fill="black"/>
               </g>
            </g>
            <g>
               <g  id="outline-26">
                  <path
                        d="M 177.75402 132.87934 C 176.6897 136.58222 177.0176 137.9027 178.5032 135.52354 C 179.29595 134.2422 179.91172 132.67418 180.02793 132.02373 C 180.09642 130.0626 178.48274 130.75425 177.75402 132.87934 Z"
                        fill="black"/>
               </g>
            </g>
            <g>
               <g  id="outline-27">
                  <path
                        d="M 289.43236 137.15324 C 285.52195 139.35421 284.31325 141.83654 286.80536 142.76508 C 287.91296 143.17776 294.51768 136.1153 293.79667 135.34211 C 293.61642 135.14882 291.62593 135.92082 289.43236 137.15324 Z"
                        fill="black"/>
               </g>
            </g>
            <g>
               <g  id="outline-28">
                  <path
                        d="M 214.0773 136.95281 C 212.58843 139.42536 210.93236 141.33105 210.37203 141.31149 C 209.9051 141.29518 209.59884 142.0325 209.75627 142.8795 C 210.21223 145.88747 212.58932 144.75496 214.9904 140.25725 C 218.38734 134.01778 217.63817 131.37358 214.0773 136.95281 Z"
                        fill="black"/>
               </g>
            </g>
            <g>
               <g  id="outline-29">
                  <path
                        d="M 191.16594 134.3762 C 191.14311 135.02992 189.92463 137.7924 188.52263 140.45499 C 186.42452 144.30878 186.10197 145.51303 187.01627 146.10597 C 188.56799 147.18867 190.55848 146.41667 191.18402 144.56848 C 192.54807 140.31506 193.16947 133.23065 192.2356 133.19804 C 191.67527 133.17848 191.18877 133.7225 191.16594 134.3762 Z"
                        fill="black"/>
               </g>
            </g>
            <g>
               <g  id="outline-30">
                  <path
                        d="M 238.09298 140.0355 C 233.64715 144.1813 232.86091 145.27586 234.05212 145.97197 C 235.97413 147.1611 237.6812 146.4727 239.65656 143.45614 C 240.54596 142.08468 242.2216 139.61866 243.30756 137.97356 C 246.36237 133.49867 244.27523 134.3608 238.09298 140.0355 Z"
                        fill="black"/>
               </g>
            </g>
            <g>
               <g  id="outline-31">
                  <path
                        d="M 264.01793 136.63975 C 263.99837 137.20007 262.82554 138.65514 261.38233 139.82026 C 252.81648 146.81424 250.5479 150.19457 254.09663 150.31849 C 255.1239 150.35436 257.9267 147.7407 261.342 143.6524 C 264.36747 140.018 266.81956 136.73759 266.8326 136.36404 C 266.8424 136.08387 266.19846 135.78088 265.45136 135.7548 C 264.70426 135.7287 264.03424 136.17281 264.01793 136.63975 Z"
                        fill="black"/>
               </g>
            </g>
            <g>
               <g  id="outline-32">
                  <path
                        d="M 227.5076 140.60086 C 225.2651 143.23408 225.19988 145.10183 227.2544 145.17358 C 228.46844 145.21597 230.81855 139.50096 230.01067 138.53773 C 229.73703 138.34118 228.67716 139.23918 227.5076 140.60086 Z"
                        fill="black"/>
               </g>
            </g>
            <g>
               <g  id="outline-33">
                  <path
                        d="M 246.79966 142.39657 C 241.5329 145.9527 240.69123 148.63485 245.11957 147.66747 C 246.53343 147.34284 248.3665 145.72383 249.6588 143.52492 C 252.23688 139.31389 251.68308 139.10755 246.79966 142.39657 Z"
                        fill="black"/>
               </g>
            </g>
            <g>
               <g  id="outline-34">
                  <path
                        d="M 175.37783 139.34145 C 174.69803 140.06572 173.78906 141.99751 173.45345 143.57531 C 172.90173 145.98708 173.06893 146.55393 174.28297 146.59632 C 176.2441 146.6648 176.95978 144.91327 176.7232 140.97796 C 176.53109 138.44671 176.3541 138.16003 175.37783 139.34145 Z"
                        fill="black"/>
               </g>
            </g>
            <g>
               <g  id="outline-35">
                  <path
                        d="M 292.57255 143.62098 C 291.3259 144.51246 291.12282 144.97288 291.93396 145.84272 C 293.7365 147.77569 295.4403 147.18068 295.52508 144.7526 C 295.6164 142.13776 294.9692 141.92815 292.57255 143.62098 Z"
                        fill="black"/>
               </g>
            </g>
            <g>
               <g  id="outline-36">
                  <path
                        d="M 158.21292 140.89257 C 157.14326 142.07073 154.15783 149.9141 154.09586 151.68846 C 154.04695 153.08927 156.77801 152.53013 157.6772 150.8785 C 158.76642 149.14002 160.50313 139.57003 159.84942 139.5472 C 159.66265 139.54068 158.89272 140.1683 158.21292 140.89257 Z"
                        fill="black"/>
               </g>
            </g>
            <g>
               <g  id="outline-37">
                  <path
                        d="M 165.73817 142.27737 C 165.12566 143.752 164.12657 145.58714 163.4435 146.4048 C 162.46397 147.67962 162.4444 148.23994 163.34567 149.20643 C 165.05807 151.04275 168.28335 147.04132 168.42358 143.02566 C 168.55728 139.19677 167.25964 138.87096 165.73817 142.27737 Z"
                        fill="black"/>
               </g>
            </g>
            <g>
               <g  id="outline-38">
                  <path
                        d="M 265.12405 147.80504 C 260.48492 152.1311 259.94298 154.2627 263.3983 154.38337 C 265.17267 154.44533 269.14505 150.46999 269.21354 148.50885 C 269.23636 147.85514 269.92595 146.8507 270.69588 146.22308 C 272.04243 145.14809 271.91436 143.4606 270.51355 143.41168 C 270.14 143.39863 267.73357 145.37163 265.12405 147.80504 Z"
                        fill="black"/>
               </g>
            </g>
            <g>
               <g  id="outline-39">
                  <path
                        d="M 298.94454 145.90053 C 296.09074 147.2969 295.83548 149.2515 298.5274 149.81302 C 300.3821 150.25179 303.83864 147.66096 303.90386 145.7932 C 303.9593 144.20562 302.27506 144.2403 298.94454 145.90053 Z"
                        fill="black"/>
               </g>
            </g>
            <g>
               <g  id="outline-40">
                  <path
                        d="M 148.95007 143.74815 C 148.22787 145.68646 147.35359 149.30248 146.89525 151.7175 C 146.30439 155.24993 146.46181 156.09694 147.50212 155.75926 C 149.20266 155.25763 151.18573 149.3428 151.46175 144.11636 C 151.72798 139.17009 150.5172 139.0343 148.95007 143.74815 Z"
                        fill="black"/>
               </g>
            </g>
            <g>
               <g  id="outline-41">
                  <path
                        d="M 284.8635 150.17738 C 283.02065 152.07655 279.9344 154.77382 278.01775 156.1094 C 274.1844 158.78058 274.0356 160.3649 277.5843 160.48883 C 280.10577 160.57688 292.0902 149.40122 291.21176 147.78102 C 290.1498 146.06092 288.15933 146.83292 284.8635 150.17738 Z"
                        fill="black"/>
               </g>
            </g>
            <g>
               <g  id="outline-42">
                  <path
                        d="M 273.32466 151.27045 C 268.89513 154.94932 268.06324 157.3513 271.2384 157.46219 C 272.54584 157.50784 276.2413 153.42933 278.43606 149.48542 C 280.13127 146.45907 278.6175 146.96722 273.32466 151.27045 Z"
                        fill="black"/>
               </g>
            </g>
            <g>
               <g  id="outline-43">
                  <path
                        d="M 222.61527 149.49964 C 221.45223 150.67454 220.46618 152.13613 220.44335 152.78984 C 220.42052 153.44356 218.4419 156.5535 215.99306 159.74054 C 211.87838 165.11343 211.67204 165.66723 213.23028 166.56316 C 214.14785 167.0627 215.26197 167.28861 215.83534 166.93463 C 216.69866 166.31027 226.17704 149.25002 226.21618 148.12937 C 226.26183 146.82194 224.64816 147.5136 222.61527 149.49964 Z"
                        fill="black"/>
               </g>
            </g>
            <g>
               <g  id="outline-44">
                  <path
                        d="M 231.96588 152.1637 C 230.75718 154.64603 228.1954 158.39013 226.24612 160.65959 C 222.54086 165.01826 221.899 167.33338 224.1077 168.34552 C 225.3988 168.85812 227.4643 165.9382 227.5491 163.51013 C 227.56214 163.13658 228.6481 161.49148 230.0175 159.76277 C 231.38687 158.03407 232.48588 156.01542 232.5185 155.08154 C 232.54784 154.24106 233.24395 153.04985 234.01388 152.42222 C 235.45709 151.2571 236.13807 147.82134 234.83065 147.77568 C 234.4571 147.76264 233.17132 149.77476 231.96588 152.1637 Z"
                        fill="black"/>
               </g>
            </g>
            <g>
               <g  id="outline-45">
                  <path
                        d="M 304.7322 151.52571 C 303.8591 152.43024 303.83953 152.99056 304.57032 153.48359 C 305.66814 154.17644 308.3417 152.58677 308.3906 151.18596 C 308.43626 149.87854 305.99515 150.1673 304.7322 151.52571 Z"
                        fill="black"/>
               </g>
            </g>
            <g>
               <g  id="outline-46">
                  <path
                        d="M 140.83159 151.31876 C 139.79988 154.08777 138.93864 157.33024 138.89298 158.63767 C 138.82123 160.69219 139.185 160.9854 141.25583 160.5902 C 143.60356 160.29818 143.69369 160.39483 142.94214 163.17363 C 142.50989 164.84156 142.56088 166.05886 143.1212 166.07842 C 144.14847 166.1143 145.3714 160.54692 144.67322 159.12002 C 144.40936 158.6433 144.18138 157.13932 144.13365 155.82863 C 144.04056 147.78427 143.89944 146.47032 143.33911 146.45075 C 142.87218 146.43445 141.76665 148.63987 140.83159 151.31876 Z"
                        fill="black"/>
               </g>
            </g>
            <g>
               <g  id="outline-47">
                  <path
                        d="M 180.3748 148.86608 C 180.35197 149.5198 179.6363 151.27133 178.74037 152.82956 C 176.65205 156.4032 173.35058 165.26403 173.18544 167.3153 C 173.06152 170.86401 174.63399 168.6749 177.78663 161.39838 C 181.6582 152.27695 182.842 147.83022 181.4412 147.7813 C 180.88087 147.76174 180.39436 148.30576 180.3748 148.86608 Z"
                        fill="black"/>
               </g>
            </g>
            <g>
               <g  id="outline-48">
                  <path
                        d="M 313.7896 154.55354 C 310.44276 156.6807 309.82373 158.34211 312.4386 158.43342 C 314.11956 158.49212 318.39492 153.87285 317.4904 152.99976 C 317.3134 152.71307 315.60634 153.40147 313.7896 154.55354 Z"
                        fill="black"/>
               </g>
            </g>
            <g>
               <g  id="outline-49">
                  <path
                        d="M 134.6105 150.073 C 133.695 152.19156 133.07805 156.47108 133.1833 158.81228 C 133.25386 159.46926 134.07152 160.15232 135.089 160.46836 C 136.84705 160.99725 136.95022 160.72035 136.59535 154.81738 C 136.10262 147.50707 135.93215 147.0336 134.6105 150.073 Z"
                        fill="black"/>
               </g>
            </g>
            <g>
               <g  id="outline-50">
                  <path
                        d="M 169.74049 150.83226 C 169.35715 151.09938 169.04112 152.11685 169.01177 152.95734 C 168.97916 153.89122 167.35125 157.66792 165.43992 161.52823 C 161.32405 169.61262 161.20131 170.44985 163.72277 170.5379 C 165.7773 170.60964 166.67322 169.0514 169.40459 160.45117 C 171.72 153.05191 172.28477 150.2666 171.25751 150.23072 C 170.79058 150.21442 170.0337 150.4685 169.74049 150.83226 Z"
                        fill="black"/>
               </g>
            </g>
            <g>
               <g  id="outline-51">
                  <path
                        d="M 188.83273 152.995 C 186.7032 155.07116 180.74123 165.14811 180.68579 166.7357 C 180.67274 167.10925 181.59684 167.42202 182.724 167.27438 C 185.63206 167.00193 194.4176 151.0395 191.70936 150.94492 C 191.24243 150.92861 189.99578 151.8201 188.83273 152.995 Z"
                        fill="black"/>
               </g>
            </g>
            <g>
               <g  id="outline-52">
                  <path
                        d="M 241.92246 153.53991 C 241.90942 153.91346 239.44754 157.47404 236.50895 161.29848 C 233.47697 165.11966 231.29526 168.69002 231.55586 169.26013 C 232.6178 170.98024 234.5149 170.20497 236.11672 167.17537 C 237.10604 165.6204 239.19762 161.95338 240.78966 159.20393 C 243.97046 153.79843 244.2865 152.78095 242.8857 152.73204 C 242.41875 152.71573 241.93877 153.07297 241.92246 153.53991 Z"
                        fill="black"/>
               </g>
            </g>
            <g>
               <g  id="outline-53">
                  <path
                        d="M 291.01165 156.18916 C 290.0419 157.1838 288.32505 158.15237 287.10123 158.39013 C 284.65033 158.95906 282.3014 161.96257 283.1831 163.48939 C 284.4188 165.58957 287.44958 164.47989 289.72142 161.00617 C 291.1006 158.9973 292.66 157.18173 293.23338 156.82775 C 294.37686 156.21317 294.52894 154.53546 293.5017 154.49958 C 293.03475 154.48328 291.88475 155.28463 291.01165 156.18916 Z"
                        fill="black"/>
               </g>
            </g>
            <g>
               <g  id="outline-54">
                  <path
                        d="M 319.57516 157.56062 C 315.39437 159.47165 314.46583 161.96376 317.62144 162.63497 C 319.56953 163.077 325.6486 157.67921 324.4737 156.51617 C 324.0198 156.12631 321.85233 156.61163 319.57516 157.56062 Z"
                        fill="black"/>
               </g>
            </g>
            <g>
               <g  id="outline-55">
                  <path
                        d="M 207.65134 154.96117 C 205.58585 157.88109 202.27904 164.2172 202.23665 165.43124 C 202.22034 165.89818 203.04778 166.30108 204.07505 166.33695 C 205.38247 166.3826 206.74533 164.84068 208.9401 160.89676 C 210.5419 157.86715 211.95695 154.83103 211.9863 153.99054 C 212.06457 151.74924 209.61366 152.31816 207.65134 154.96117 Z"
                        fill="black"/>
               </g>
            </g>
            <g>
               <g  id="outline-56">
                  <path
                        d="M 252.13638 155.57961 C 251.26328 156.48414 249.31074 158.84699 247.7448 160.84933 C 246.17885 162.85168 243.64316 165.84867 242.087 167.57086 C 239.7544 170.10744 239.54152 170.84801 240.5329 171.91115 C 243.24322 174.62383 245.0404 174.03208 246.6879 169.69505 C 247.51652 167.38645 249.30837 164.26998 250.5811 162.6314 C 252.63356 160.08504 254.99344 154.08986 253.8728 154.05073 C 253.68602 154.0442 252.91283 154.76521 252.13638 155.57961 Z"
                        fill="black"/>
               </g>
            </g>
            <g>
               <g  id="outline-57">
                  <path
                        d="M 195.64438 158.74944 C 193.67554 161.57923 191.6231 164.1256 191.04972 164.47958 C 189.0462 165.62513 190.12444 166.8783 192.93585 166.69597 C 195.56048 166.50712 195.9536 165.95984 197.80741 161.069 C 200.68968 153.50255 199.87854 152.63271 195.64438 158.74944 Z"
                        fill="black"/>
               </g>
            </g>
            <g>
               <g  id="outline-58">
                  <path
                        d="M 297.8135 162.22377 C 295.1041 164.84069 292.8616 167.47392 292.83878 168.12763 C 292.75073 170.6491 296.0617 169.5492 298.89384 166.09505 C 300.54665 164.28274 302.3895 162.38356 303.05626 162.03284 C 304.39303 161.238 304.8905 157.70233 303.58308 157.65667 C 303.20953 157.64363 300.61306 159.70349 297.8135 162.22377 Z"
                        fill="black"/>
               </g>
            </g>
            <g>
               <g  id="outline-59">
                  <path
                        d="M 255.33616 165.696 C 249.7077 171.57703 248.3828 174.7098 251.05516 175.83164 C 253.45062 176.8503 254.39428 176.60276 253.97626 175.18564 C 253.72218 174.42876 255.3338 171.11899 257.68922 167.9287 C 263.5827 159.81288 263.4828 159.9964 262.082 159.94748 C 261.42502 160.01804 258.3453 162.52853 255.33616 165.696 Z"
                        fill="black"/>
               </g>
            </g>
            <g>
               <g  id="outline-60">
                  <path
                        d="M 321.34715 163.04558 C 319.89742 164.39747 320.75303 166.67138 322.80755 166.74313 C 324.30175 166.7953 327.5715 164.19795 327.61715 162.89053 C 327.65303 161.86326 322.50693 161.96406 321.34715 163.04558 Z"
                        fill="black"/>
               </g>
            </g>
            <g>
               <g  id="outline-61">
                  <path
                        d="M 158.00153 160.33347 C 156.22925 162.88961 153.73565 172.71368 154.63692 173.68016 C 155.6283 174.7433 158.3149 172.78009 158.7602 170.7386 C 159.75396 166.37875 160.598 158.2736 160.13106 158.2573 C 159.75751 158.24426 158.88442 159.14878 158.00153 160.33347 Z"
                        fill="black"/>
               </g>
            </g>
            <g>
               <g  id="outline-62">
                  <path
                        d="M 264.57707 168.82373 C 257.6987 175.68964 256.99934 176.97423 259.3948 177.9929 C 262.1573 179.21138 263.01735 178.6804 265.41518 174.27608 C 266.8074 171.89366 268.88267 168.69358 270.1554 167.055 C 272.40768 164.14161 273.13314 162.10992 271.8192 162.25104 C 271.349 162.32812 268.1596 165.30229 264.57707 168.82373 Z"
                        fill="black"/>
               </g>
            </g>
            <g>
               <g  id="outline-63">
                  <path
                        d="M 303.39156 168.49614 C 301.66493 169.74486 300.2054 171.37692 300.1826 172.03063 C 300.088 174.73887 302.2457 174.53371 305.43185 171.65293 C 310.84418 166.60586 309.248 164.11909 303.39156 168.49614 Z"
                        fill="black"/>
               </g>
            </g>
            <g>
               <g  id="outline-64">
                  <path
                        d="M 318.04687 169.19492 C 311.4629 172.98556 307.63165 178.27485 309.79468 180.59441 C 310.5157 181.3676 319.1109 173.53314 320.7062 170.6903 C 322.10492 168.12111 321.0071 167.42827 318.04687 169.19492 Z"
                        fill="black"/>
               </g>
            </g>
            <g>
               <g  id="outline-65">
                  <path
                        d="M 148.86024 165.06332 C 147.13568 168.93015 146.34381 175.5411 147.46446 175.58023 C 149.51899 175.65197 151.53349 171.51476 151.68676 167.12555 C 151.8596 162.17601 150.4914 161.19322 148.86024 165.06332 Z"
                        fill="black"/>
               </g>
            </g>
            <g>
               <g  id="outline-66">
                  <path
                        d="M 278.19533 169.7668 C 274.47495 171.88091 267.76054 179.40705 268.55537 180.74383 C 269.61406 182.55732 273.56242 181.9472 274.76134 179.74503 C 275.4542 178.6472 277.12656 176.27457 278.58934 174.54913 C 281.41823 171.18837 282.92666 168.1555 281.806 168.11636 C 281.43246 168.10332 279.81553 168.88837 278.19533 169.7668 Z"
                        fill="black"/>
               </g>
            </g>
            <g>
               <g  id="outline-67">
                  <path
                        d="M 193.4265 171.38817 C 192.5208 173.22657 190.20656 177.91432 188.19858 181.86476 C 186.19387 185.7218 184.57248 189.31174 184.55292 189.87207 C 184.504 191.27288 186.84195 191.26102 188.01477 189.80596 C 189.57746 187.897 195.17033 175.00212 195.95123 171.38284 C 196.945 167.02298 195.63756 166.97732 193.4265 171.38817 Z"
                        fill="black"/>
               </g>
            </g>
            <g>
               <g  id="outline-68">
                  <path
                        d="M 211.25906 174.81594 C 209.45742 178.21257 206.88912 182.14344 205.62616 183.50186 C 202.80053 186.76924 202.48004 190.5916 205.0949 190.6829 C 206.40232 190.72857 207.97152 188.63283 211.46184 182.39663 C 215.76775 174.22538 217.02863 170.24885 215.29014 169.15963 C 214.83298 168.86316 213.0607 171.4193 211.25906 174.81594 Z"
                        fill="black"/>
               </g>
            </g>
            <g>
               <g  id="outline-69">
                  <path
                        d="M 289.77745 172.7893 C 286.23732 175.0967 285.08406 175.99145 283.3346 177.89388 C 282.45824 178.8918 280.7153 180.60745 279.4556 181.87248 C 277.71268 183.58814 277.4998 184.32872 278.30443 185.38533 C 279.91366 187.49856 281.70432 187.09358 283.29962 184.25075 C 284.09564 182.87603 285.8516 180.78682 287.2981 179.5283 C 289.90107 177.28167 293.15896 172.34637 292.52808 171.66983 C 292.34783 171.47653 291.11422 171.99446 289.77745 172.7893 Z"
                        fill="black"/>
               </g>
            </g>
            <g>
               <g  id="outline-70">
                  <path
                        d="M 203.2485 171.26366 C 202.1821 172.34843 199.90374 176.00893 198.09884 179.49895 C 194.99512 185.37465 194.3076 188.9972 196.27526 188.8789 C 197.20914 188.91151 203.7771 177.5467 205.62765 172.74926 C 206.95909 169.4297 205.6745 168.73034 203.2485 171.26366 Z"
                        fill="black"/>
               </g>
            </g>
            <g>
               <g  id="outline-71">
                  <path
                        d="M 185.16275 172.40861 C 184.35695 174.0635 183.25794 176.08215 182.57814 176.80642 C 180.24227 179.4364 176.04161 189.94885 176.94288 190.91534 C 178.65528 192.75166 180.82068 189.64823 183.82894 181.15116 C 185.4862 176.53397 187.23358 172.01342 187.54636 171.08933 C 187.94926 170.26189 187.88196 169.51153 187.32163 169.49196 C 186.8547 169.47566 185.8719 170.84386 185.16275 172.40861 Z"
                        fill="black"/>
               </g>
            </g>
            <g>
               <g  id="outline-72">
                  <path
                        d="M 221.51863 175.54822 C 215.57623 185.06484 213.24895 190.12614 214.15021 191.09263 C 215.32186 192.34906 219.2139 187.99691 219.29868 185.56884 C 219.3313 184.63496 220.1371 182.98008 221.20675 181.80191 C 223.64905 178.80166 226.2467 174.0303 226.30867 172.25594 C 226.40324 169.5477 224.48984 170.7899 221.51863 175.54822 Z"
                        fill="black"/>
               </g>
            </g>
            <g>
               <g  id="outline-73">
                  <path
                        d="M 320.78623 179.10822 C 317.31014 182.25938 316.52065 183.44733 316.93214 185.05122 C 317.84853 188.26226 319.4622 187.5706 323.48676 182.10106 C 329.28034 174.16877 328.01857 172.81568 320.78623 179.10822 Z"
                        fill="black"/>
               </g>
            </g>
            <g>
               <g  id="outline-74">
                  <path
                        d="M 173.61087 173.87524 C 172.7019 175.80703 171.88632 177.74207 171.86675 178.3024 C 171.84718 178.86272 170.51248 182.27566 168.79771 185.86233 C 165.16183 193.58948 165.013 195.1738 167.64415 194.79818 C 169.33165 194.6701 170.23084 193.01848 172.7102 186.27947 C 174.57054 181.20186 175.57408 176.56183 175.46884 174.22063 L 175.31912 170.47535 L 173.61087 173.87524 Z"
                        fill="black"/>
               </g>
            </g>
            <g>
               <g  id="outline-75">
                  <path
                        d="M 292.2823 181.38539 C 286.10658 186.8733 285.417 187.87774 286.3986 189.22104 C 288.2782 191.6242 289.6052 191.10954 293.13347 186.46418 C 294.89923 184.0948 297.5283 181.10107 298.8879 179.65253 C 300.6341 177.84348 301.04027 176.92265 300.31926 176.14946 C 299.59825 175.37628 297.40142 176.70208 292.2823 181.38539 Z"
                        fill="black"/>
               </g>
            </g>
            <g>
               <g  id="outline-76">
                  <path
                        d="M 231.6946 175.99707 C 227.19333 181.73047 221.83081 190.70633 222.25862 191.8433 C 223.36504 194.96747 225.77473 192.90109 230.07085 185.01 C 234.36697 177.1189 235.5051 173.9796 234.0109 173.92743 C 233.54397 173.91112 232.57423 174.90577 231.6946 175.99707 Z"
                        fill="black"/>
               </g>
            </g>
            <g>
               <g  id="outline-77">
                  <path
                        d="M 134.53134 176.4376 C 132.40714 181.0385 130.97372 181.92345 125.33786 182.66166 C 120.83244 183.15884 116.48888 181.69814 112.3072 178.27956 C 108.03213 174.85773 105.22932 177.4714 109.1178 181.25373 C 110.11245 182.22348 111.33182 184.7906 111.72701 186.86142 C 113.8094 196.84528 114.07 197.4154 117.28638 199.02373 C 121.14343 201.02845 125.65864 200.2511 130.07839 196.8524 C 132.19487 195.14979 132.99089 193.77506 133.07568 191.347 C 133.1572 189.0123 134.05313 187.45407 136.566 185.11078 C 139.85531 181.9531 140.58403 179.82802 139.61013 175.58645 C 138.71332 171.81508 136.55236 172.11362 134.53134 176.4376 Z"
                        fill="black"/>
               </g>
            </g>
            <g>
               <path d="M 129.34344 191.12316 C 129.24235 194.01817 127.5092 195.45366 124.14724 195.33626 C 121.62578 195.2482 121.53566 195.15156 122.89852 193.60963 C 123.67497 192.79523 124.66102 191.33365 124.9738 190.40956 C 125.99246 188.0141 129.43475 188.5083 129.34344 191.12316 Z"/>
            </g>
            <g>
               <g  id="outline-78">
                  <path
                        d="M 236.8241 184.40431 C 231.60714 191.88924 230.36583 195.30544 232.8873 195.3935 C 234.66166 195.45546 237.42978 191.15756 244.66242 176.82392 C 244.86224 176.4569 244.49847 176.16369 243.75137 176.1376 C 243.09766 176.11477 239.97555 179.8393 236.8241 184.40431 Z"
                        fill="black"/>
               </g>
            </g>
            <g>
               <g  id="outline-79">
                  <path
                        d="M 165.2819 176.76343 C 163.85707 180.07972 162.67535 187.14456 163.64184 186.2433 C 164.51167 185.43216 167.39838 175.06082 166.85437 174.57431 C 166.58399 174.28437 165.8944 175.2888 165.2819 176.76343 Z"
                        fill="black"/>
               </g>
            </g>
            <g>
               <g  id="outline-80">
                  <path
                        d="M 247.9959 183.11142 C 243.59454 188.6613 239.90114 195.35792 240.71227 196.22776 C 242.06417 197.67749 244.20022 195.41455 248.5669 188.18043 C 251.05486 183.87275 253.15623 179.92557 253.1758 179.36525 C 253.24754 177.31072 251.7142 178.3792 247.9959 183.11142 Z"
                        fill="black"/>
               </g>
            </g>
            <g>
               <g  id="outline-81">
                  <path
                        d="M 121.00646 175.4978 C 116.69107 175.90811 116.50104 175.99498 118.33292 177.08747 C 121.7165 179.26265 129.79022 178.32908 129.87501 175.901 C 129.90762 174.96713 128.69685 174.83134 121.00646 175.4978 Z"
                        fill="black"/>
               </g>
            </g>
            <g>
               <g  id="outline-82">
                  <path
                        d="M 255.77404 187.9646 C 249.97067 196.17706 249.05844 198.20224 250.61016 199.28494 C 252.16187 200.36764 253.71803 198.64546 258.4974 190.30374 C 261.5848 184.89497 262.61326 182.21935 261.98238 181.5428 C 261.26137 180.76962 259.41526 182.76218 255.77404 187.9646 Z"
                        fill="black"/>
               </g>
            </g>
            <g>
               <g  id="outline-83">
                  <path
                        d="M 303.86116 184.50127 C 302.3148 185.94329 299.335 188.27027 297.22502 189.7861 C 293.5752 192.5572 293.22003 194.69532 296.3952 194.8062 C 297.9828 194.86164 310.03126 184.52973 310.08344 183.03553 C 310.14214 181.35456 306.6542 182.16777 303.86116 184.50127 Z"
                        fill="black"/>
               </g>
            </g>
            <g>
               <g  id="outline-84">
                  <path
                        d="M 156.54676 180.57245 C 154.781 182.94183 153.91412 191.70068 155.40832 191.75286 C 156.52897 191.792 158.99974 182.62164 158.5242 180.174 C 158.306 178.38985 158.11597 178.47672 156.54676 180.57245 Z"
                        fill="black"/>
               </g>
            </g>
            <g>
               <g  id="outline-85">
                  <path
                        d="M 266.3876 189.27025 C 260.86766 197.3991 259.97825 198.77057 259.92607 200.26477 C 259.89346 201.19864 260.52108 201.96857 261.26818 201.99466 C 262.669 202.04358 269.6268 190.22488 269.71812 187.61003 C 269.78986 185.5555 268.4596 186.16356 266.3876 189.27025 Z"
                        fill="black"/>
               </g>
            </g>
            <g>
               <g  id="outline-86">
                  <path
                        d="M 309.2904 192.35797 C 303.34056 196.73176 301.75505 199.29443 304.2439 200.31636 C 305.16473 200.72252 307.56138 199.02969 311.4371 195.14447 C 314.72316 192.08018 317.34898 189.17983 317.3653 188.7129 C 317.42072 187.1253 314.66683 188.33816 309.2904 192.35797 Z"
                        fill="black"/>
               </g>
            </g>
            <g>
               <g  id="outline-87">
                  <path
                        d="M 277.16303 188.61802 C 277.14346 189.17834 274.97805 192.28177 272.24254 195.6458 C 266.96482 202.1936 265.92332 205.24276 269.2082 204.88997 C 270.61553 204.7521 272.66145 202.39252 276.02903 196.99354 C 278.61038 192.68912 280.61184 188.92546 280.34798 188.44874 C 279.64 187.302 277.20542 187.40398 277.16303 188.61802 Z"
                        fill="black"/>
               </g>
            </g>
            <g>
               <g  id="outline-88">
                  <path
                        d="M 284.51543 194.95236 C 283.1428 196.77445 280.2368 199.66501 277.93354 201.3611 C 273.61045 204.6697 272.6982 206.69486 275.1838 207.81018 C 276.93534 208.52585 283.23054 202.2941 286.22457 196.88207 C 289.5216 190.82612 288.44334 189.57295 284.51543 194.95236 Z"
                        fill="black"/>
               </g>
            </g>
            <g>
               <g  id="outline-89">
                  <path
                        d="M 315.1074 197.14267 C 312.23727 199.00597 309.92097 201.07561 309.89488 201.82271 C 309.7938 204.71772 312.44777 203.68839 317.47675 198.90843 C 323.66553 193.04696 322.57097 192.26073 315.1074 197.14267 Z"
                        fill="black"/>
               </g>
            </g>
            <g>
               <g  id="outline-90">
                  <path
                        d="M 158.94726 192.15694 C 155.85125 195.13437 155.75993 197.74922 158.82867 198.2304 C 161.2437 198.68873 162.13963 197.1305 161.82597 192.72498 L 161.65669 189.54002 L 158.94726 192.15694 Z"
                        fill="black"/>
               </g>
            </g>
            <g>
               <g  id="outline-91">
                  <path
                        d="M 105.9693 193.76646 C 105.72264 198.1524 106.61412 199.39906 110.69056 200.47642 C 113.28584 201.12806 114.0362 201.06076 114.07207 200.0335 C 114.10142 199.19301 113.09047 198.6902 111.40949 198.6315 C 109.07481 198.54997 108.53405 197.97008 107.44068 194.47235 L 106.17683 190.50116 L 105.9693 193.76646 Z"
                        fill="black"/>
               </g>
            </g>
            <g>
               <g  id="outline-92">
                  <path
                        d="M 321.134 201.28018 C 319.12067 202.7059 317.0205 203.94157 316.36678 203.91874 C 314.40564 203.85026 312.9233 206.13603 314.09494 207.39246 C 315.89747 209.32543 317.31785 208.81402 321.95046 204.67474 C 328.42265 198.72966 327.85373 196.27876 321.134 201.28018 Z"
                        fill="black"/>
               </g>
            </g>
            <g>
               <g  id="outline-93">
                  <path
                        d="M 286.6076 204.65606 C 282.07164 208.70522 280.8923 210.34706 281.6133 211.12025 C 283.14545 212.76327 285.8027 211.64055 288.91828 208.1028 C 291.44745 205.29257 294.17762 199.40383 292.9636 199.36143 C 292.68342 199.35165 289.79375 201.77528 286.6076 204.65606 Z"
                        fill="black"/>
               </g>
            </g>
            <g>
               <g  id="outline-94">
                  <path
                        d="M 300.2976 203.5446 C 299.13457 204.7195 295.8681 207.22347 292.90133 209.1769 C 287.3479 212.91002 286.3553 214.55839 289.2177 215.59336 C 291.15928 216.22217 293.99025 215.47951 294.0359 214.1721 C 294.0522 213.70515 296.48474 210.98506 299.3907 208.0945 C 304.03963 203.48827 305.03873 201.65313 302.89082 201.57813 C 302.61066 201.56834 301.364 202.45982 300.2976 203.5446 Z"
                        fill="black"/>
               </g>
            </g>
            <g>
               <g  id="outline-95">
                  <path
                        d="M 94.55528 196.64042 C 94.49332 198.41478 99.69456 204.7675 101.37553 204.8262 C 103.43005 204.89795 103.00225 203.761 99.04322 199.32168 C 94.99079 194.8791 94.62703 194.5859 94.55528 196.64042 Z"
                        fill="black"/>
               </g>
            </g>
            <g>
               <g  id="outline-96">
                  <path
                        d="M 179.44121 199.6982 C 178.46494 200.87963 178.4519 201.25318 179.54646 202.03941 C 181.19156 203.12538 184.17996 203.22973 185.8968 202.26117 C 187.04354 201.5532 187.05659 201.17966 186.1651 199.933 C 184.64274 198.00982 181.09402 197.8859 179.44121 199.6982 Z"
                        fill="black"/>
               </g>
            </g>
            <g>
               <g  id="outline-97">
                  <path
                        d="M 195.61028 199.88884 C 193.96726 201.42098 195.8599 203.4506 199.22186 203.568 C 202.21026 203.67236 203.97928 201.2096 201.87703 199.82717 C 200.04841 198.6413 196.96337 198.62707 195.61028 199.88884 Z"
                        fill="black"/>
               </g>
            </g>
            <g>
               <g  id="outline-98">
                  <path
                        d="M 212.12682 200.8396 C 209.4011 203.92347 217.06746 206.62222 220.89753 204.04443 C 222.5275 202.88584 222.53077 202.79245 221.08875 201.24607 C 219.19936 199.12306 213.87628 198.93718 212.12682 200.8396 Z"
                        fill="black"/>
               </g>
            </g>
            <g>
               <g  id="outline-99">
                  <path
                        d="M 328.9806 204.17223 C 327.4701 204.58698 318.50253 209.6969 318.48623 210.16384 C 318.48297 210.25723 319.10733 211.12055 319.92173 211.897 C 321.63412 213.73332 323.0284 213.969 323.08385 212.38143 C 323.1067 211.72771 324.9528 209.73515 327.2593 207.94567 C 331.2056 204.71743 331.81484 203.33619 328.9806 204.17223 Z"
                        fill="black"/>
               </g>
            </g>
            <g>
               <g  id="outline-100">
                  <path
                        d="M 102.54747 198.04153 C 101.83506 199.69968 104.24238 203.0563 106.20351 203.12477 C 107.97787 203.18674 107.7238 202.42985 105.30996 199.26002 C 103.51722 197.04688 103.06006 196.75041 102.54747 198.04153 Z"
                        fill="black"/>
               </g>
            </g>
            <g>
               <g  id="outline-101">
                  <path
                        d="M 162.24488 199.4717 C 161.45212 200.75304 163.32847 203.2496 165.10283 203.31156 C 166.97058 203.37678 166.36697 199.24164 164.41888 198.7996 C 163.58491 198.58348 162.638 198.92442 162.24488 199.4717 Z"
                        fill="black"/>
               </g>
            </g>
            <g>
               <g  id="outline-102">
                  <path
                        d="M 233.35393 203.4509 C 232.19415 204.53242 235.54513 207.64148 237.87981 207.723 C 239.74756 207.78823 240.13416 207.42773 239.91596 205.64358 C 239.78136 204.14286 238.9637 203.4598 236.9157 203.20128 C 235.33464 202.95907 233.74053 203.0904 233.35393 203.4509 Z"
                        fill="black"/>
               </g>
            </g>
            <g>
               <g  id="outline-103">
                  <path
                        d="M 89.35582 200.94692 C 89.86397 202.46068 94.52563 205.52201 96.3 205.58398 C 97.79746 205.54277 91.63626 199.90454 90.05193 199.7557 C 89.39822 199.73288 89.09849 200.28342 89.35582 200.94692 Z"
                        fill="black"/>
               </g>
            </g>
            <g>
               <g  id="outline-104">
                  <path
                        d="M 248.85506 206.70376 C 247.94283 208.72893 249.11447 209.98536 252.10287 210.08972 C 255.27804 210.2006 256.541 208.84218 255.01864 206.919 C 253.5864 205.09245 249.57074 204.95222 248.85506 206.70376 Z"
                        fill="black"/>
               </g>
            </g>
            <g>
               <g  id="outline-105">
                  <path
                        d="M 303.10872 211.40338 C 299.47847 213.61414 295.9579 215.36122 295.2108 215.33513 C 293.7166 215.28296 293.5841 216.40034 295.0261 217.94672 C 296.55826 219.58975 298.15237 219.4584 300.0886 217.5625 C 301.05183 216.75462 304.3118 214.43743 307.3752 212.39388 C 312.352 209.10812 313.4347 207.5564 310.72647 207.46183 C 310.16615 207.44227 306.7357 209.286 303.10872 211.40338 Z"
                        fill="black"/>
               </g>
            </g>
            <g>
               <g  id="outline-106">
                  <path
                        d="M 83.11072 203.06637 C 83.05854 204.56057 88.31848 209.2323 89.36531 208.70786 C 91.08216 207.7393 90.64457 206.8825 87.2675 204.52054 C 83.79705 202.15532 83.14986 201.94572 83.11072 203.06637 Z"
                        fill="black"/>
               </g>
            </g>
            <g>
               <g  id="outline-107">
                  <path
                        d="M 264.00547 209.28985 C 261.6859 211.45288 264.54712 215.19935 268.65617 215.34284 C 270.89747 215.4211 271.48833 211.8887 269.6858 209.95572 C 268.51416 208.69929 265.0686 208.29846 264.00547 209.28985 Z"
                        fill="black"/>
               </g>
            </g>
            <g>
               <g  id="outline-108">
                  <path
                        d="M 76.47251 205.7331 C 76.41054 207.50746 82.44367 211.4582 83.60671 210.2833 C 84.27999 209.7458 81.38617 206.9332 78.18609 204.85792 C 76.81137 204.0619 76.524685 204.2389 76.47251 205.7331 Z"
                        fill="black"/>
               </g>
            </g>
            <g>
               <g  id="outline-109">
                  <path
                        d="M 169.69927 208.24064 C 167.22228 209.55666 167.39808 212.55484 170.08023 213.3965 C 172.95241 214.15132 176.27967 212.58449 176.35794 210.3432 C 176.45252 207.63495 172.84628 206.4805 169.69927 208.24064 Z"
                        fill="black"/>
               </g>
            </g>
            <g>
               <g  id="outline-110">
                  <path
                        d="M 185.73908 209.45527 C 184.0092 210.79738 183.8061 211.2578 184.80402 212.13415 C 187.1636 214.18008 193.05028 214.29215 193.11877 212.331 C 193.16442 211.02358 189.90683 207.91778 188.50602 207.86887 C 188.13247 207.85582 186.89234 208.56053 185.73908 209.45527 Z"
                        fill="black"/>
               </g>
            </g>
            <g>
               <g  id="outline-111">
                  <path
                        d="M 201.60516 210.28983 C 199.71992 213.40304 200.9719 215.03628 204.90723 214.7997 C 208.18557 214.63368 208.47552 214.3633 208.85351 211.57146 C 209.23477 208.68623 209.14464 208.58958 205.96947 208.4787 C 203.5414 208.39391 202.40118 208.9151 201.60516 210.28983 Z"
                        fill="black"/>
               </g>
            </g>
            <g>
               <g  id="outline-112">
                  <path
                        d="M 220.0188 210.46534 C 216.78166 212.12882 217.00639 213.7262 220.88952 214.9838 C 227.36142 217.07984 232.00708 212.567 225.82513 210.2006 C 224.16372 209.58157 222.8726 209.06897 222.7792 209.06571 C 222.68256 209.15584 221.4457 209.76716 220.0188 210.46534 Z"
                        fill="black"/>
               </g>
            </g>
            <g>
               <g  id="outline-113">
                  <path
                        d="M 308.27527 216.07186 C 303.90444 218.06976 300.37084 220.1904 300.34475 220.9375 C 300.27627 222.89863 303.24836 223.46992 305.82526 221.9704 C 307.16203 221.17556 310.96928 219.25148 314.20315 217.68138 C 318.76728 215.50323 319.92054 214.6085 319.11266 213.64527 C 317.7738 211.822 316.92354 212.0728 308.27527 216.07186 Z"
                        fill="black"/>
               </g>
            </g>
            <g>
               <g  id="outline-114">
                  <path
                        d="M 152.56045 209.04465 C 150.53083 210.9373 152.1368 213.14392 155.68552 213.26784 C 159.23424 213.39177 160.99022 211.30256 159.09757 209.27294 C 158.28643 208.4031 156.81506 207.6972 155.88119 207.6646 C 154.94731 207.63198 153.43029 208.23352 152.56045 209.04465 Z"
                        fill="black"/>
               </g>
            </g>
            <g>
               <g  id="outline-115">
                  <path
                        d="M 239.75824 212.83768 C 236.05416 214.48486 236.2528 216.82933 240.0556 217.71013 C 244.13855 218.60072 246.62206 217.09793 245.4027 214.5308 C 244.27018 212.15373 242.41874 211.62157 239.75824 212.83768 Z"
                        fill="black"/>
               </g>
            </g>
            <g>
               <g  id="outline-116">
                  <path
                        d="M 71.7053 208.37166 C 71.6629 209.5857 76.20835 213.29748 77.70255 213.34966 C 80.03724 213.43119 79.16206 211.7176 75.77521 209.6358 C 72.11798 207.26406 71.74769 207.15762 71.7053 208.37166 Z"
                        fill="black"/>
               </g>
            </g>
            <g>
               <g  id="outline-117">
                  <path
                        d="M 276.3682 216.73416 C 276.56356 219.17202 280.5401 220.4329 281.8226 218.51416 C 282.91183 216.77567 281.1093 214.8427 278.40107 214.74812 C 276.53332 214.6829 276.14673 215.0434 276.3682 216.73416 Z"
                        fill="black"/>
               </g>
            </g>
            <g>
               <g  id="outline-118">
                  <path
                        d="M 254.9368 217.29478 C 254.12122 219.22983 257.0281 221.66887 259.656 221.38664 C 261.81694 221.0881 262.85844 218.03892 261.02982 216.85305 C 259.02095 215.47388 255.64596 215.73002 254.9368 217.29478 Z"
                        fill="black"/>
               </g>
            </g>
            <g>
               <g  id="outline-119">
                  <path
                        d="M 267.78722 221.48358 C 268.40387 225.24517 273.99407 225.8144 274.12452 222.0789 C 274.1767 220.5847 273.62942 220.19157 270.8278 220.09374 C 268.21295 220.00243 267.5462 220.35315 267.78722 221.48358 Z"
                        fill="black"/>
               </g>
            </g>
            <g>
               <g  id="outline-120">
                  <path
                        d="M 179.88354 219.16193 C 178.9138 220.15658 179.17439 220.7267 180.81297 221.99942 C 184.91104 225.13458 190.03223 223.06938 187.25789 219.51295 C 185.82565 217.6864 181.34305 217.52987 179.88354 219.16193 Z"
                        fill="black"/>
               </g>
            </g>
            <g>
               <g  id="outline-121">
                  <path
                        d="M 196.59663 219.83906 C 194.45732 222.1954 196.06655 224.30862 199.45458 223.67892 C 203.31282 222.97214 204.3727 222.07414 203.7842 220.18356 C 203.10233 218.28972 198.24944 218.02675 196.59663 219.83906 Z"
                        fill="black"/>
               </g>
            </g>
            <g>
               <g  id="outline-122">
                  <path
                        d="M 213.87657 220.349 C 211.0032 222.30568 212.6059 224.60568 216.90173 224.7557 C 221.01078 224.89918 222.64728 223.5538 220.75137 221.61758 C 218.67194 219.58144 215.79324 219.0134 213.87657 220.349 Z"
                        fill="black"/>
               </g>
            </g>
            <g>
               <g  id="outline-123">
                  <path
                        d="M 157.1643 219.11657 C 156.24228 221.4219 157.41393 222.67833 160.49571 222.78595 C 164.13782 222.91314 165.39752 221.6481 163.87841 219.63153 C 162.5363 217.90164 157.78006 217.54855 157.1643 219.11657 Z"
                        fill="black"/>
               </g>
            </g>
            <g>
               <g  id="outline-124">
                  <path
                        d="M 230.28222 224.47494 C 230.41356 226.06905 231.23122 226.7521 233.18583 227.00737 C 234.6735 227.24632 236.18075 226.92495 236.57713 226.28429 C 237.9563 224.27542 236.61093 222.63891 233.24898 222.5215 C 230.44736 222.42368 230.06402 222.6908 230.28222 224.47494 Z"
                        fill="black"/>
               </g>
            </g>
            <g>
               <g  id="outline-125">
                  <path
                        d="M 244.77358 224.51348 C 243.5204 225.59174 243.98617 228.31954 245.4608 228.93204 C 250.15833 230.9661 254.5585 228.12773 251.1011 225.38895 C 249.28227 223.92292 245.83998 223.4287 244.77358 224.51348 Z"
                        fill="black"/>
               </g>
            </g>
            <g>
               <g  id="outline-126">
                  <path
                        d="M 262.51275 227.938 C 259.0248 228.7512 261.6862 232.8647 265.79525 233.00819 C 268.03655 233.08645 268.79135 230.21427 266.87913 228.74497 C 265.97135 227.96526 264.9604 227.46245 264.68023 227.45267 C 264.3968 227.53627 263.36302 227.68718 262.51275 227.938 Z"
                        fill="black"/>
               </g>
            </g>
            <g>
               <g  id="outline-127">
                  <path
                        d="M 150.8854 224.8814 C 148.9883 225.65665 149.34762 228.75474 151.37932 229.4802 C 154.4285 230.5217 157.18238 229.30884 156.8871 227.0545 C 156.67868 224.9902 153.53938 223.85205 150.8854 224.8814 Z"
                        fill="black"/>
               </g>
            </g>
            <g>
               <g  id="outline-128">
                  <path
                        d="M 170.49677 225.56623 C 168.31624 226.4251 168.95572 229.53297 171.54774 230.278 C 174.32328 231.12293 175.95652 229.87095 175.57437 227.42657 C 175.35617 225.64242 172.67729 224.70736 170.49677 225.56623 Z"
                        fill="black"/>
               </g>
            </g>
            <g>
               <g  id="outline-129">
                  <path
                        d="M 203.06942 227.2647 C 201.4264 228.79685 201.55447 230.48434 203.306 231.20002 C 205.42456 232.1155 209.54013 232.07223 211.1636 231.1004 C 212.40372 230.3957 212.4135 230.11554 211.24186 228.8591 C 209.25256 226.9196 204.51915 225.9128 203.06942 227.2647 Z"
                        fill="black"/>
               </g>
            </g>
            <g>
               <g  id="outline-130">
                  <path
                        d="M 221.85868 230.07137 C 220.84653 232.28005 222.5785 233.55605 226.14027 233.30643 C 228.57486 233.20444 229.34153 232.6702 229.39045 231.2694 C 229.44263 229.7752 228.71183 229.28217 225.91673 228.99756 C 223.4018 228.72273 222.27136 228.96376 221.85868 230.07137 Z"
                        fill="black"/>
               </g>
            </g>
            <g>
               <g  id="outline-131">
                  <path
                        d="M 275.3762 231.75324 C 274.65727 233.59816 276.3762 235.2477 279.08443 235.34228 C 280.8588 235.40424 281.24865 234.95035 281.0272 233.2596 C 280.73842 230.81847 276.2917 229.63468 275.3762 231.75324 Z"
                        fill="black"/>
               </g>
            </g>
            <g>
               <g  id="outline-132">
                  <path
                        d="M 250.71095 233.88395 C 249.79546 236.0025 251.965 238.1353 255.0468 238.24292 C 258.0352 238.34728 259.511 236.24828 257.8084 234.1318 C 256.37942 232.21187 251.42662 232.13242 250.71095 233.88395 Z"
                        fill="black"/>
               </g>
            </g>
            <g>
               <g  id="outline-133">
                  <path
                        d="M 269.19396 237.42793 C 268.47502 239.27285 271.10173 241.7021 273.08895 241.0235 C 274.6961 240.5186 274.85146 238.7475 273.40944 237.20114 C 271.8773 235.5581 269.90963 235.6764 269.19396 237.42793 Z"
                        fill="black"/>
               </g>
            </g>
            <g>
               <g  id="outline-134">
                  <path
                        d="M 158.12693 234.3909 C 157.31135 236.32595 157.76524 236.7158 161.02402 237.1101 C 163.1654 237.3719 163.73877 237.0179 163.79095 235.5237 C 163.87574 233.09563 159.04895 232.08556 158.12693 234.3909 Z"
                        fill="black"/>
               </g>
            </g>
            <g>
               <g  id="outline-135">
                  <path
                        d="M 212.18196 236.74605 C 208.20424 238.19667 210.09037 240.41306 215.50685 240.6022 C 218.68202 240.7131 219.94497 239.35467 218.4226 237.43148 C 217.17063 235.79824 215.30614 235.63963 212.18196 236.74605 Z"
                        fill="black"/>
               </g>
            </g>
            <g>
               <g  id="outline-136">
                  <path
                        d="M 234.79358 239.8732 C 234.1778 241.44122 237.37463 243.60988 239.36185 242.93127 C 240.11874 242.6772 240.7182 241.5761 240.75407 240.54885 C 240.803 239.14804 240.16558 238.65827 238.11106 238.58653 C 236.61686 238.53435 235.19648 239.04575 234.79358 239.8732 Z"
                        fill="black"/>
               </g>
            </g>
            <g>
               <g  id="outline-137">
                  <path
                        d="M 205.33176 245.48296 C 204.51292 247.5114 205.70087 248.3009 207.44054 246.67862 C 208.79362 245.41685 208.80014 245.23008 207.41564 244.71422 C 206.5882 244.31132 205.73793 244.56213 205.33176 245.48296 Z"
                        fill="black"/>
               </g>
            </g>
         </g>
      </g>
   </g>
</svg>