<?xml version="1.0" encoding="UTF-8" standalone="no"?>
<!DOCTYPE svg PUBLIC "-//W3C//DTD SVG 1.1//EN" "http://www.w3.org/Graphics/SVG/1.1/DTD/svg11.dtd">
<svg xmlns:dc="http://purl.org/dc/elements/1.1/" xmlns:xl="http://www.w3.org/1999/xlink" version="1.1" xmlns="http://www.w3.org/2000/svg" viewBox="49.5 63 265.5 337.5" width="265.5" height="337.5">
  <defs>
    <clipPath id="artboard_clip_path">
      <path d="M 49.5 63 L 315 63 L 315 400.5 L 49.5 400.5 Z"/>
    </clipPath>
  </defs>
  <metadata> Produced by OmniGraffle 7.7.1 
    <dc:date>2018-03-18 08:44:42 +0000</dc:date><dc:title>Traceable heraldic art http://heraldicart.org/credits.html</dc:title>
  </metadata>
  <g id="Mouse_Rampant" fill-opacity="1" stroke-dasharray="none" stroke="none" stroke-opacity="1" fill="#ffff00">
    <title>Mouse Rampant</title>
    <g id="Mouse_Rampant: Layer 2" >
      <title>Layer 2</title>
      <g id="Group_3">
        <g id="Graphic_12">
          <path d="M 190.43556 68.167394 C 187.18703 69.791655 182.1666 72.74486 179.06573 74.8121 C 175.0789 77.61764 170.50145 79.09424 161.64184 80.12786 C 149.82904 81.4568 128.8613 88.1015 122.2166 92.38365 C 118.5251 94.89387 117.49148 102.71985 120.14936 107.74029 C 121.33064 109.80753 120.29702 111.28413 114.24296 115.71394 C 110.25614 118.8148 107.00762 121.91566 107.00762 122.65396 C 107.00762 124.7212 107.15528 124.7212 116.01488 118.22416 C 124.28385 111.87477 128.123 112.61307 120.74 119.11012 C 114.53828 124.7212 100.65823 134.02378 95.04715 136.534 C 90.02671 138.60125 90.02671 138.60125 94.16119 138.7489 C 96.37609 138.89657 98.14801 138.15827 98.14801 137.41997 C 98.14801 136.534 99.03397 135.94337 100.06759 135.94337 C 101.10121 135.94337 105.53102 133.72846 109.96082 130.92292 C 114.39062 128.11738 118.37744 126.05014 118.67276 126.34546 C 118.96808 126.78844 117.63914 129.151 115.5719 131.80888 C 109.6655 139.78253 109.37018 141.55445 115.12892 135.20507 C 118.08212 131.95654 122.80724 125.75482 125.46513 121.47268 C 128.27067 117.3382 130.92855 113.79436 131.22387 113.79436 C 134.62005 113.79436 119.85404 138.45359 114.0953 142.44041 C 111.58508 144.21233 111.43742 144.80297 113.06168 144.80297 C 116.3102 144.80297 121.62596 139.63487 127.08939 131.21824 C 131.07621 125.31184 132.10983 124.42588 133.58643 126.34546 C 135.65367 128.85568 134.62005 132.39952 129.74727 139.63487 C 127.68003 142.73573 126.35109 145.54127 126.79407 145.83659 C 128.123 147.16553 134.91537 138.7489 136.83495 133.5808 C 138.45921 129.00334 139.19751 128.56036 144.66093 128.56036 C 147.90946 128.56036 155.44012 129.59398 161.34652 131.07058 L 172.1257 133.5808 L 166.51462 136.97699 C 163.41376 138.89657 157.50736 142.14509 153.52054 144.06467 C 145.25157 148.0515 141.56007 151.0047 135.80133 158.68302 C 133.73409 161.48856 129.30429 164.73708 126.05577 166.06602 C 120.74 168.13326 119.55872 168.28092 115.42424 166.36134 C 105.82634 161.93154 95.49013 159.27366 79.24752 156.9111 C 63.30024 154.54853 62.56194 154.54853 57.393834 157.35408 C 52.52105 160.01196 52.22573 160.45494 53.11169 165.32772 C 53.84999 170.05284 59.608735 177.28819 62.56194 177.28819 C 63.15258 177.28819 65.07216 175.81158 66.99174 174.18732 C 69.79728 171.52944 71.42154 171.23412 77.18028 171.97242 C 80.871785 172.4154 86.33521 174.03966 88.99309 175.51626 C 94.30885 178.3218 109.6655 190.5776 109.81316 192.20185 C 109.96082 192.7925 108.1889 193.67845 105.974 194.12143 C 94.01353 196.92697 76.14666 203.1287 71.27388 206.22956 C 65.07216 210.06872 61.232996 215.97512 64.03854 216.86108 C 64.9245 217.1564 65.21982 218.04236 64.77684 218.92832 C 64.1862 219.81429 63.30024 222.61983 62.7096 225.42537 C 61.232996 231.9224 65.07216 235.76157 71.12622 234.1373 C 73.34112 233.399 75.999 232.80837 76.88496 232.80837 C 79.83816 232.51305 86.48287 224.39175 87.36883 219.96195 C 87.81181 217.59938 88.99309 214.9415 90.17437 214.05554 C 95.34247 209.7734 130.63323 205.3436 133.14345 208.73978 C 133.88175 209.7734 135.65367 213.61256 136.98261 217.30406 C 138.45921 220.99557 141.8554 226.31133 144.66093 229.11687 C 147.46648 231.9224 149.82904 234.5803 149.82904 235.02327 C 149.82904 235.6139 147.31882 235.17093 144.36561 233.98965 C 135.35835 230.8888 123.54554 231.47943 114.98126 235.46625 C 108.04124 238.71477 107.15528 239.60073 106.26932 244.9165 C 105.08804 252.59482 107.00762 259.53484 113.06168 268.2468 C 117.63914 275.03915 117.7868 275.1868 114.24296 274.1532 C 96.81907 269.2804 90.32203 268.39445 82.05307 270.31403 C 71.5692 272.82425 58.870435 283.60343 66.54876 283.60343 C 68.46834 283.60343 68.76366 284.63706 68.17302 288.03324 C 67.28706 292.02006 67.58238 292.46304 71.12622 292.46304 C 73.19346 292.46304 75.70368 291.42942 76.7373 290.10048 C 78.06624 288.1809 79.09986 288.03324 81.167105 289.06686 C 82.93903 290.10048 85.59691 290.10048 88.69777 289.21452 C 97.85269 286.7043 109.51784 292.16772 122.2166 304.8665 L 126.35109 309.00097 L 131.07621 305.30946 C 135.65367 301.76562 135.80133 301.175 136.53963 288.62388 C 137.42559 274.1532 138.45921 272.82425 146.87584 276.22043 C 150.86266 277.8447 151.01032 278.28767 151.60096 290.10048 C 152.04394 300.58434 152.78224 303.6852 157.50736 313.2831 C 160.60822 319.1895 166.36696 327.7538 170.6491 332.1836 C 177.58913 339.71426 178.17977 340.7479 177.44147 346.06364 C 175.52189 360.682 161.49418 379.5825 152.63458 379.5825 C 147.7618 379.5825 139.34517 382.5357 136.83495 385.0459 C 135.80133 386.0795 133.88175 386.9655 132.70047 386.9655 C 129.5996 386.9655 130.19025 389.62336 133.58643 390.657 C 135.21069 391.24763 136.53963 392.8719 136.53963 394.49615 C 136.53963 396.8587 137.13027 397.3017 139.6405 396.5634 C 141.41241 395.97275 145.5469 396.26807 148.94308 397.3017 C 154.84948 398.92595 155.58778 398.7783 162.08482 394.3485 C 165.92398 391.83827 169.02485 388.88506 169.02485 387.9991 C 169.02485 386.9655 176.26019 378.8442 185.26745 369.98458 L 201.51006 353.88963 L 201.51006 345.76832 C 201.51006 334.3985 200.47644 331.7406 195.456 328.7874 C 190.2879 325.8342 188.8113 323.17633 187.63001 315.35035 C 186.74405 309.73927 187.03937 309.2963 193.38876 304.27584 C 200.47644 298.81242 210.9603 284.19408 212.58457 277.25405 C 214.06117 271.34765 215.98075 270.90467 221.14885 275.9251 C 226.75993 281.24087 231.18974 282.71747 239.75402 282.2745 C 249.94256 281.8315 256.29195 278.28767 266.62815 267.65615 C 277.555 256.58164 280.21288 252.44716 280.65586 245.95012 C 280.80352 243.4399 281.83714 237.23817 282.7231 231.9224 C 284.64268 220.99557 283.60906 202.83338 280.21288 186.1478 C 279.0316 180.09373 277.70266 173.30136 277.40734 171.23412 C 277.11202 169.01922 276.22606 164.44176 275.3401 160.89792 C 271.50093 145.68893 269.28603 127.23142 269.87667 116.45224 C 270.9103 100.50495 276.8167 85.59128 284.79034 79.09424 C 294.09292 71.563576 297.78443 71.120595 302.50955 77.32232 C 304.5768 79.9802 306.3487 83.81936 306.3487 85.44362 C 306.3487 90.02108 309.0066 89.43044 310.92617 84.70532 C 312.84575 79.53722 311.5168 74.51678 307.087 70.086975 C 300.73763 63.73759 286.56226 65.80483 276.66904 74.22146 C 271.9439 78.5036 262.0507 92.38365 262.0507 95.04153 C 262.0507 96.07515 261.46005 97.55175 260.5741 98.43771 C 258.3592 100.65261 254.6677 120.43906 254.6677 129.8893 C 254.6677 134.61443 255.99663 144.65531 257.6209 152.33363 C 266.33283 192.49717 267.66177 199.88018 268.84305 217.8947 C 270.02433 233.399 266.92347 248.01736 262.19835 249.19864 C 260.72175 249.64162 258.80217 251.41354 257.9162 253.18546 C 255.7013 258.05824 243.59318 263.374 237.2438 262.3404 C 228.23653 261.01144 220.70587 251.41354 220.70587 241.52032 C 220.70587 234.72795 216.1284 218.633 211.25563 208.2968 C 206.97348 199.28954 206.67816 195.0074 209.18838 185.11417 C 210.51733 179.50309 210.36967 176.69754 208.15476 168.28092 L 205.64454 158.09238 L 211.55095 145.83659 C 214.79947 139.19189 218.3433 129.74164 219.22927 124.86886 C 220.41055 119.5531 222.62545 114.23734 224.84035 111.57945 C 230.15611 105.23007 235.47188 93.26961 235.47188 87.21554 C 235.47188 80.27552 231.04208 73.48316 224.6927 70.529955 C 218.7863 67.72441 214.6518 67.42909 207.85944 69.348675 C 203.87262 70.529955 203.13432 70.234635 202.54368 67.87207 C 201.65772 64.32823 197.96622 64.32823 190.43556 68.167394 Z" fill="#cccccc"/>
        </g>
        <g id="Graphic_11">
          <path d="M 199.8858 71.415916 C 199.59048 71.8589 196.48962 73.77848 193.09344 75.84572 C 188.66364 78.65126 186.00575 79.38956 183.79085 78.65126 C 180.83765 77.46998 180.98531 77.17466 186.30107 73.63082 C 192.94578 69.348675 197.22792 68.01973 199.1475 69.791655 C 199.8858 70.382295 200.32878 71.120595 199.8858 71.415916 Z" fill="#ff0000"/>
        </g>
        <g id="Graphic_10">
          <path d="M 305.6104 72.5972 C 310.18787 78.20828 309.3019 80.27552 304.42913 75.10742 C 302.50955 73.04018 299.55635 70.825275 297.9321 70.382295 C 290.40142 68.01973 277.85032 78.35594 271.50093 91.94067 C 267.36645 100.94793 267.2188 101.98155 267.2188 124.13056 C 267.2188 139.04423 267.9571 148.93745 269.13837 152.33363 C 270.172 155.4345 271.6486 161.04558 272.23923 164.88474 C 272.97753 168.87156 274.6018 177.14053 275.78308 183.19459 C 280.80352 206.96786 281.68948 232.6607 277.70266 239.0101 C 277.11202 240.04371 276.3737 243.4399 276.0784 246.68842 C 275.6354 252.2995 267.80943 264.40763 264.70857 264.40763 C 263.97027 264.40763 261.6077 266.47487 259.54047 268.83743 C 249.0566 281.38853 231.3374 282.42215 220.5582 270.90467 C 216.8667 267.0655 211.84627 266.17955 211.84627 269.42807 C 211.84627 272.38127 201.95304 290.83878 197.37558 296.15454 C 195.30834 298.5171 191.46918 302.06094 188.8113 303.98052 C 184.67681 306.6384 183.79085 308.26267 183.79085 312.5448 C 183.79085 319.78015 187.18703 327.0155 192.5028 331.0023 C 196.78494 334.10318 197.08026 334.98914 197.08026 344.14406 L 197.08026 353.74197 L 183.6432 366.8837 C 176.26019 374.11906 168.58187 382.5357 166.51462 385.63654 C 162.67546 391.54295 161.64184 392.1336 152.04394 393.46253 C 146.2852 394.3485 140.82177 392.57657 142.88901 390.50932 C 143.47965 389.9187 143.18433 388.58974 142.29837 387.55612 C 140.67411 385.4889 142.74135 384.6029 151.30564 383.5693 C 159.72226 382.5357 167.54825 375.448 176.70317 360.38667 C 179.2134 356.2522 181.57595 345.03002 180.98531 340.45256 C 180.69 338.8283 176.9985 333.80786 172.71635 329.37806 C 168.28655 324.65293 163.11844 316.9746 160.3129 311.21587 C 156.32608 302.35626 155.73544 299.55072 155.73544 288.03324 C 155.73544 274.8915 158.098 266.91785 166.80995 250.97056 C 169.61549 245.95012 167.6959 244.03054 164.44738 248.46034 L 161.93716 251.70886 L 160.90354 246.24544 C 160.3129 243.14458 157.80268 238.5671 155.29246 235.90923 C 148.94308 229.11687 139.49283 215.53214 139.49283 213.02192 C 139.49283 211.39766 140.67411 211.10234 144.51327 211.84064 C 153.07756 213.4649 163.41376 207.26318 168.58187 197.51761 C 170.94443 192.7925 169.61549 189.69163 166.9576 194.12143 C 166.07164 195.7457 163.11844 199.58486 160.46056 202.53806 C 154.4065 209.47808 148.20478 210.95468 140.23113 207.70616 C 133.58643 204.90062 114.8336 204.6053 104.4974 206.96786 C 86.33521 211.39766 85.74457 211.69298 83.67733 218.92832 C 82.34839 223.65345 80.72412 226.016 77.77092 227.4926 C 75.55602 228.52623 72.60282 229.85517 71.12622 230.59347 C 69.3543 231.6271 68.616 231.33177 68.616 229.85517 C 68.616 228.6739 67.8777 227.4926 67.1394 227.1973 C 66.25344 226.90197 66.99174 224.2441 68.76366 220.99557 C 71.12622 216.4181 71.42154 215.08916 69.79728 214.05554 C 67.8777 212.87426 69.94494 210.36404 75.999 206.96786 C 79.98582 204.75296 100.36291 198.10825 112.32338 195.15505 C 131.07621 190.5776 142.44603 184.52353 142.44603 179.20777 C 142.44603 176.25456 140.96943 176.8452 136.98261 181.275 C 134.02941 184.37587 132.99579 184.67119 131.96217 183.04693 C 126.49875 174.48264 138.60687 156.61578 157.21204 145.39361 C 163.2661 141.84977 169.02485 138.89657 169.9108 138.89657 C 170.79677 138.89657 172.42103 137.86295 173.45465 136.68167 C 174.48827 135.50039 178.17977 133.13782 181.72361 131.51356 C 185.41511 130.03696 188.22066 127.6744 188.22066 126.49312 C 188.22066 123.2446 186.89171 123.53992 182.75723 127.37908 C 178.62275 131.21824 171.68273 131.3659 160.01758 127.96972 C 155.73544 126.64078 149.38606 125.60716 145.84222 125.60716 C 139.04985 125.60716 138.31155 124.7212 141.70773 120.2914 C 144.66093 116.30458 144.36561 112.76073 140.96943 110.84115 C 139.19751 109.80753 137.72091 107.14965 137.13027 103.45815 C 135.94899 96.51813 134.62005 96.07515 132.10983 101.83389 C 130.92855 104.93475 129.5996 105.82071 127.68003 105.37773 C 125.02215 104.63943 125.02215 104.34411 127.23705 101.09559 C 129.30429 97.84707 129.30429 97.55175 127.08939 96.66579 C 125.1698 95.92749 125.02215 95.33685 126.35109 93.71259 C 127.23705 92.5313 128.71365 91.64535 129.45195 91.64535 C 130.33791 91.64535 132.99579 90.75938 135.50601 89.5781 C 144.95625 85.59128 156.76906 82.9334 170.20613 82.04744 C 184.3815 81.01382 186.00575 81.75212 180.83765 86.47724 C 177.7368 89.28278 176.9985 91.64535 179.06573 91.64535 C 179.65637 91.64535 184.08617 87.95384 188.66364 83.52404 C 193.2411 79.09424 197.81856 75.40274 198.70452 75.40274 C 199.59048 75.40274 195.89898 79.68488 190.58322 84.85298 C 181.4283 93.56493 178.91807 97.55175 182.31425 97.55175 C 183.05255 97.55175 186.30107 94.00791 189.40194 89.72576 C 196.78494 79.83254 211.84627 70.382295 218.49097 71.563576 C 225.28333 72.89252 231.04208 80.12786 231.04208 87.21554 C 231.04208 101.83389 214.06117 121.17736 201.51006 121.17736 C 196.78494 121.17736 188.22066 111.72711 189.25428 107.74029 C 189.84492 105.37773 189.5496 104.78709 188.073 105.23007 C 182.46191 107.14965 188.22066 119.84842 195.75132 122.5063 C 200.18112 123.9829 210.222 123.09694 213.02755 120.88204 C 214.3565 119.70076 214.79947 120.73438 214.79947 125.01652 C 214.79947 128.85568 212.58457 135.20507 208.15476 143.91701 L 201.51006 157.20642 L 203.87262 166.65666 C 205.7922 174.18732 205.93986 178.02649 204.75858 186.1478 C 203.13432 197.07463 204.02028 204.01466 208.0071 210.06872 C 211.6986 215.82746 217.75267 238.12413 217.75267 246.54076 C 217.75267 255.2527 229.8608 266.0319 238.42508 265.14593 C 240.49232 264.8506 243.44552 264.5553 245.21744 264.5553 C 246.8417 264.40763 252.30513 261.74974 257.32557 258.64888 C 269.58135 250.67524 272.3869 244.32586 272.3869 223.94877 C 272.3869 208.2968 270.4673 195.59803 263.0843 161.78388 C 258.21153 139.4872 257.6209 131.51356 259.54047 116.89522 C 261.16473 104.04879 265.59453 92.97429 272.53455 84.26234 C 285.38098 67.87207 297.9321 63.58993 305.6104 72.5972 Z" fill="#ff0000"/>
        </g>
        <g id="Graphic_9">
          <path d="M 136.68729 118.66714 C 134.47239 120.88204 133.58643 119.40544 134.62005 115.41862 C 135.35835 112.31775 135.65367 112.31775 136.98261 114.53266 C 137.86857 116.15692 137.72091 117.63352 136.68729 118.66714 Z" fill="#ff0000"/>
        </g>
        <g id="Graphic_8">
          <path d="M 75.40836 159.42132 C 76.14666 160.15962 81.019445 161.04558 86.33521 161.48856 C 96.08077 162.37452 105.67868 165.18006 115.5719 169.90518 C 120.29702 172.26774 121.33064 172.26774 124.13619 170.34816 C 127.23705 168.28092 127.3847 168.42858 127.23705 173.892 C 127.08939 176.99286 127.3847 181.275 127.97535 183.34225 C 129.00897 186.8861 128.56599 187.47673 122.9549 189.54397 C 117.19616 191.90653 116.75318 191.90653 112.32338 188.658 C 109.81316 186.8861 105.53102 183.34225 102.87314 180.83203 C 97.26205 175.51626 86.63053 169.90518 82.20073 169.90518 C 80.57646 169.90518 77.4756 169.31454 75.55602 168.57624 C 72.89814 167.54262 70.8309 167.83794 67.28706 170.05284 C 61.823636 173.30136 60.199375 173.59668 60.199375 170.9388 C 60.199375 170.05284 59.756395 167.69028 59.165755 165.7707 C 58.279794 163.26048 58.722775 162.52218 60.642355 162.52218 C 62.56194 162.52218 62.7096 162.0792 61.232996 160.30728 C 59.608735 158.3877 60.347035 158.09238 66.69642 158.09238 C 70.68324 158.09238 74.5224 158.68302 75.40836 159.42132 Z" fill="#ff0000"/>
        </g>
        <g id="Graphic_7">
          <path d="M 144.66093 237.5335 L 154.99714 240.04371 L 157.65502 248.16502 C 160.3129 255.991 160.3129 256.28632 157.3597 262.93103 C 155.8831 266.62253 154.11118 270.757 153.6682 272.38127 C 153.07756 274.00553 151.89628 274.74383 150.41968 274.1532 C 145.5469 272.2336 137.13027 271.79063 135.06303 273.11957 C 133.43877 274.30085 132.84813 277.8447 132.70047 287.29494 C 132.55281 301.76562 130.48557 305.9001 124.87449 302.9469 C 123.25022 301.9133 121.77362 300.732 121.77362 299.9937 C 121.77362 297.92646 106.41698 288.32856 100.51057 286.7043 C 97.40971 285.966 92.97991 285.67068 90.61735 286.11366 C 87.36883 286.7043 86.33521 286.40898 86.33521 284.4894 C 86.33521 281.97917 84.56329 281.38853 82.79137 283.16045 C 81.46243 284.4894 71.5692 284.93238 71.5692 283.7511 C 71.5692 283.16045 72.89814 281.68385 74.5224 280.20725 C 76.29432 278.73065 77.18028 276.95873 76.7373 276.22043 C 74.07942 271.9383 95.63779 271.79063 109.96082 275.9251 C 115.27658 277.54937 120.44468 279.02597 121.62596 279.3213 C 125.61279 280.50257 124.72683 276.51575 119.41106 270.16637 C 109.07486 257.76292 106.41698 245.95012 112.76636 240.19137 C 115.42424 237.68115 124.57917 235.17093 130.63323 235.17093 C 132.70047 235.17093 139.04985 236.20455 144.66093 237.5335 Z" fill="#ff0000"/>
        </g>
        <g id="Graphic_6">
          <path d="M 157.21204 91.20236 C 155.1448 92.5313 153.37288 93.71259 153.07756 94.00791 C 152.78224 94.15557 153.81586 95.63217 155.44012 97.25643 C 159.86992 101.68623 170.20613 102.12921 174.04529 98.14239 C 176.11253 96.07515 175.96487 95.48451 172.1257 92.23599 C 167.10527 88.1015 162.23248 87.65852 157.21204 91.20236 Z" fill="#cccccc"/>
        </g>
        <g id="Graphic_5">
          <path d="M 167.54825 92.38365 C 170.05847 95.33685 168.28655 99.02835 164.59504 99.02835 C 162.97078 99.02835 161.19886 97.99473 160.75588 96.81345 C 159.86992 94.59855 162.38014 90.16874 164.59504 90.16874 C 165.18568 90.16874 166.51462 91.20236 167.54825 92.38365 Z" fill="#ff0000"/>
        </g>
        <g id="Graphic_4">
          <path d="M 176.26019 287.88558 C 172.27337 291.8724 170.50145 296.89284 173.15933 296.89284 C 174.3406 296.74518 182.60957 283.60343 181.4283 283.60343 C 180.98531 283.60343 178.62275 285.523 176.26019 287.88558 Z" fill="#cccccc"/>
        </g>
      </g>
    </g>
  </g>
</svg>
