<?xml version="1.0" encoding="utf-8"?>
<svg xmlns="http://www.w3.org/2000/svg" xmlns:dc="http://purl.org/dc/elements/1.1/"
     xmlns:xl="http://www.w3.org/1999/xlink"
     xmlns:xlink="http://www.w3.org/1999/xlink"
     version="1.1"
     viewBox="36 63 351 144"
     width="351"
     height="144"
     preserveAspectRatio="xMidYMid meet"
     zoomAndPan="magnify"
     contentScriptType="application/ecmascript"
     contentStyleType="text/css">
   <defs/>
   <metadata xmlns="" xmlns:svg="http://www.w3.org/2000/svg"
             xmlns:rdf="http://www.w3.org/1999/02/22-rdf-syntax-ns#"
             xmlns:cc="http://creativecommons.org/ns#">
      <rdf:RDF>
         <cc:Work rdf:about="">
            <dc:creator>
               <cc:Agent>
                  <dc:title>http://heraldicart.org Otter Courant.svg</dc:title>
               </cc:Agent>
            </dc:creator>
         </cc:Work>
      </rdf:RDF>
   </metadata>
   <g stroke-opacity="1" stroke-dasharray="none" stroke="#505050" fill="#ffff00"
      fill-opacity="1">
      <title>Otter Courant</title>
      <g>
         <title>Layer 2</title>
         <g>
            <g>
               <g  id="outline-0">
                  <path
                        d="M 89.01131 66.54071 C 85.69235 68.0158 82.18901 72.1645 82.18901 74.56152 C 82.18901 76.49758 71.07986 82.62819 71.29867 82.88197 C 70.837705 82.5132 68.209214 78.45743 66.1128 76.65892 C 61.44523 72.44915 62.090864 72.29126 61.44551 73.02881 C 61.07674 73.39758 61.261125 74.13513 61.72209 74.78048 C 63.473764 77.08532 69.71684 80.68573 69.74291 84.43773 L 65.59421 87.54926 C 65.59421 87.54926 65.54835 87.50746 63.00127 83.91914 C 60.15456 80.05732 60.154805 79.11357 57.29681 77.17751 C 53.424693 74.41171 53.516887 75.70242 57.665586 80.127695 C 60.707965 83.35446 59.55996 81.72735 61.44551 84.43773 C 64.4758 89.05574 63.51986 88.58643 63.51986 88.58643 C 63.51986 88.58643 57.57339 91.80167 56.835846 92.63141 C 54.899786 94.47528 54.99198 102.4039 56.92804 104.06338 C 57.75778 104.70874 59.78603 107.38234 61.44551 110.05595 C 64.76447 115.21877 68.91317 117.80019 77.11837 119.73625 C 79.69979 120.2894 82.2812 120.93476 82.92655 121.11914 C 83.75629 121.39572 84.03287 123.60836 83.75629 130.24628 C 83.57191 135.04033 83.29533 139.18903 83.01875 139.46561 C 82.74217 139.65 79.42321 138.63587 75.73547 136.9764 C 68.5444 134.02621 58.8641 131.62918 53.88566 131.62918 C 52.22618 131.62918 48.63064 132.64331 45.957035 133.84182 C 38.85815 136.9764 35.907965 141.77045 39.319117 144.53625 C 40.148857 145.2738 40.51763 146.4723 40.148857 147.48643 C 39.872277 148.40836 40.333244 150.25223 41.07079 151.45074 C 42.269303 153.20242 43.375623 153.75558 46.14142 153.75558 C 48.90722 153.75558 49.829154 154.12435 50.19793 155.59944 C 50.5667 156.98234 51.488634 157.4433 53.977853 157.4433 C 56.559266 157.4433 57.665586 156.79796 59.69384 154.12435 C 61.99867 151.08197 62.55183 150.89758 65.96298 151.26636 C 74.81354 152.28048 82.00462 154.03216 85.41577 155.96822 C 87.44402 157.16673 89.93324 158.27305 90.94737 158.45743 C 91.9615 158.73401 92.79124 159.47156 92.79124 160.11691 C 92.79124 161.86859 87.62841 163.52807 80.80611 164.08123 C 72.6009 164.81877 65.40982 169.15186 62.18306 175.23662 C 61.07674 177.44926 61.72209 181.41357 63.38157 182.05892 C 64.11912 182.3355 64.67228 183.44182 64.67228 184.64033 C 64.67228 187.40613 66.79272 188.97342 69.46633 188.32807 C 70.94142 187.9593 72.139935 188.23587 72.87748 189.1578 C 73.61503 189.98755 74.72135 190.6329 75.45889 190.6329 C 77.67153 190.6329 84.12507 184.82472 85.96893 181.22918 C 87.25964 178.64777 88.55034 177.54145 91.13176 176.8039 C 95.92581 175.421 111.87525 173.30056 118.60536 173.20836 C 127.45592 173.02398 129.66856 172.28643 131.42023 169.42844 C 132.80313 167.03141 133.35629 166.75483 135.9377 167.40019 C 140.36298 168.32212 159.17042 168.04554 176.22618 166.84703 C 184.61577 166.20167 197.70722 165.55632 205.26707 165.27974 C 212.91912 165.09535 222.32283 164.63439 226.19495 164.3578 L 233.29384 163.71245 L 236.5206 166.93922 C 242.88194 173.30056 245.46336 174.68346 253.66856 176.15855 C 258.00165 176.9883 262.33473 177.54145 263.34886 177.44926 C 271.27748 177.08048 272.476 179.10874 265.93027 181.78234 C 260.0299 184.17937 256.43436 188.23587 256.43436 192.38457 C 256.43436 194.96599 256.97972 195.98775 259.0273 198.00836 C 261.98557 200.83791 262.6574 197.48978 262.6574 197.48978 C 262.6574 197.48978 263.45674 204.51584 268.88046 202.67565 C 271.0009 201.75372 270.53994 201.5117 271.27748 202.8946 C 271.83064 203.72435 273.84737 204.75 274.58492 204.75 C 276.61317 204.75 279.7708 199.61022 279.7708 197.48978 C 279.7708 196.47565 281.51094 193.3987 282.80165 190.81729 C 284.7377 187.12955 285.84402 186.11543 288.702 185.1935 C 292.29756 184.08717 295.15555 180.9526 295.15555 177.91022 C 295.15555 176.06636 291.53157 172.6405 289.71614 172.19424 C 287.3561 171.6141 283.2626 169.33625 280.4968 165.55632 C 278.92953 163.43587 277.63882 161.40762 277.63882 161.03885 C 277.63882 160.67007 290.5459 160.3935 306.21875 160.3013 C 336.18157 160.2091 337.3801 160.3935 333.2314 164.08123 C 330.83436 166.20167 320.04774 171.91766 317.18975 172.56301 C 313.22544 173.48494 308.98454 178.00242 308.98454 181.32138 C 308.98454 182.98086 309.21993 183.16916 310.36744 184.5251 C 311.51496 185.88102 313.47897 185.56227 313.47897 185.56227 C 313.47897 185.56227 312.1191 186.4842 312.67228 187.9593 C 313.5942 190.07974 314.33176 190.6329 316.7288 190.6329 C 318.38826 190.6329 320.61243 190.8749 321.25778 190.22955 C 322.0875 189.39981 323.03912 187.3522 323.33213 189.19238 C 323.57256 190.58882 326.2247 191.64703 327.5154 192.0158 C 329.45146 192.47677 330.3734 192.0158 332.8626 189.06561 C 334.4299 187.12955 336.36596 184.91691 337.0113 184.17937 C 337.74886 183.44182 338.85518 181.50576 339.50053 180.03067 C 340.1459 178.46338 341.80536 175.97416 343.09607 174.49907 C 344.38678 172.93178 346.876 168.78309 348.62767 165.27974 C 350.37934 161.7764 352.4076 158.36524 353.05295 157.90428 C 353.7905 157.35112 354.15927 155.69164 353.9749 154.21654 C 353.7905 152.0961 353.14514 151.35855 350.9325 150.89758 C 349.4574 150.52881 343.55704 149.14591 338.02544 147.8552 C 325.9481 144.99721 319.95555 142.78457 313.6864 138.91245 C 306.9563 134.85595 307.50945 133.84182 316.6366 133.19647 C 323.73547 132.7355 332.03287 131.16822 340.79124 128.5868 C 347.61354 126.65074 362.45666 118.9065 368.44923 114.11245 C 378.12953 106.36822 382.5548 99.7303 384.49086 89.49684 C 385.6894 83.04331 385.1362 79.44777 382.647 78.06487 C 380.34217 76.86636 379.05146 77.6961 379.05146 80.3697 C 379.05146 86.63885 363.00982 104.06338 352.86856 108.85743 C 341.2522 114.38903 322.62915 117.80019 304.37488 117.80019 C 294.78678 117.80019 291.19124 117.33922 283.6314 115.40316 C 274.9652 113.09833 273.12135 112.91394 253.2076 112.82175 C 239.2864 112.82175 229.6061 113.19052 225.08863 114.02026 C 217.80536 115.31097 216.79124 115.40316 187.105 116.41729 C 172.26187 116.97045 164.33324 116.78606 151.61057 115.58755 C 142.57562 114.7578 133.35629 114.02026 131.14365 113.83587 L 127.08715 113.65149 L 125.42767 107.47454 C 124.50573 104.06338 122.10871 97.88643 120.17265 93.64554 C 118.23659 89.40465 116.11614 84.14963 115.47079 81.8448 C 114.82544 79.53996 113.81131 77.05074 113.25815 76.3132 C 111.50648 74.00836 107.72655 71.70353 105.6983 71.70353 C 104.68417 71.70353 102.65592 70.22844 101.27302 68.476766 C 99.15257 65.80316 98.13845 65.25 95.28046 65.25 C 93.43659 65.34219 90.5786 65.89535 89.01131 66.54071 Z"
                        fill="black"/>
               </g>
            </g>
            <g>
               <path d="M 97.4009 68.200186 C 100.35109 69.49089 101.36521 73.178625 99.42915 75.11468 C 98.32283 76.221 97.67748 76.3132 96.018 75.39126 C 94.81949 74.74591 92.05369 74.46933 89.47228 74.65372 C 86.98306 74.9303 84.77042 74.9303 84.58603 74.65372 C 83.6641 73.82398 87.25964 69.583086 90.02544 68.38457 C 93.52878 66.81729 94.45072 66.81729 97.4009 68.200186 Z"/>
            </g>
            <g>
               <path d="M 110.21577 76.3132 C 113.25815 80.00093 114.08789 84.33401 112.33622 88.57491 C 110.67674 92.35483 108.09533 94.1065 104.3154 93.64554 C 102.84031 93.55335 101.45741 93.82993 101.36521 94.29089 C 101.18083 94.84405 102.84031 95.30502 105.05295 95.4894 C 108.64849 95.76599 109.38603 95.39721 112.15183 92.44703 C 113.81131 90.60316 115.3786 89.40465 115.65518 89.86561 C 116.11614 90.69535 119.80388 100.09907 122.2009 106.73699 C 123.03064 109.04182 123.676 112.72955 123.676 114.9422 C 123.676 118.81431 123.76819 118.9065 126.2574 118.26115 C 129.39198 117.33922 140.36298 117.24703 154.09979 118.16896 C 178.43882 119.64405 184.98454 119.55186 229.23733 116.78606 C 263.07228 114.7578 276.25592 115.21877 285.93622 118.9987 C 291.9288 121.21134 302.16224 121.30353 321.24625 119.09089 C 338.20982 117.15483 350.37934 113.5593 358.49235 108.0277 C 368.818 101.021 374.99495 94.38309 379.51243 85.53253 C 380.80313 83.04331 382.09384 80.92286 382.3704 80.92286 C 383.56893 80.92286 381.63287 92.44703 379.8812 95.85818 C 377.392 100.65223 375.9169 102.58829 368.9102 109.3184 C 359.50648 118.44554 344.1102 125.26784 324.6574 128.95558 C 310.45964 131.72138 307.41726 131.81357 300.0418 130.24628 C 295.52432 129.23216 296.16967 131.3526 300.96373 133.38086 C 303.08417 134.30279 306.12655 136.42323 307.60165 138.08271 C 309.16893 139.65 312.3957 142.04703 314.79272 143.24554 C 318.84923 145.36599 338.4864 150.80539 347.0604 152.37268 C 351.0247 153.01803 352.2232 154.95409 350.28715 157.25892 C 349.4574 158.08866 347.79793 161.13104 346.5994 163.89684 C 345.3087 166.66264 342.7273 170.44257 340.97562 172.19424 C 339.13176 173.94591 337.56447 175.78978 337.56447 176.34294 C 337.56447 176.8039 336.55034 178.1868 335.35183 179.29312 C 334.1533 180.49164 332.9548 182.51989 332.67823 183.90279 C 332.40165 185.37788 331.4797 187.31394 330.74217 188.32807 C 329.63585 189.80316 329.0827 189.98755 327.6998 189.1578 C 325.57934 187.8671 325.11837 185.37788 326.50127 182.79647 C 328.25295 179.4775 327.14663 177.91022 325.02618 180.8604 C 324.10425 182.2433 322.1682 184.73253 320.8775 186.29981 C 318.75704 188.78903 318.20388 188.97342 316.91317 187.9593 C 314.8849 186.29981 315.0693 184.54814 317.46633 181.13699 L 319.58678 178.1868 L 316.4522 180.76822 C 313.6864 183.07305 313.22544 183.25743 312.4879 181.87454 C 311.0128 179.29312 313.8708 176.52732 323.3667 171.73327 C 328.34514 169.15186 333.60016 166.10948 334.98306 165.00316 C 337.56447 162.79052 338.4864 159.0106 336.55034 157.81208 C 335.9972 157.5355 330.2812 157.25892 323.91986 157.35112 C 284.9221 157.81208 279.3905 157.71989 274.31986 156.61357 C 265.19272 154.7697 256.24997 151.72732 250.99495 148.86933 C 244.44923 145.36599 234.40016 141.58606 233.29384 142.3236 C 231.81875 143.15335 233.20165 144.25967 236.705 144.90502 C 239.56298 145.45818 247.21503 148.96152 251.8247 151.91171 C 252.56224 152.37268 254.77488 153.3868 256.71094 154.12435 C 260.58306 155.69164 261.13622 157.16673 258.09384 157.81208 C 247.5838 160.02472 230.06707 161.49981 207.5719 162.14517 C 193.09756 162.51394 175.67302 163.25149 168.85072 163.71245 C 162.02841 164.08123 154.74514 164.45 152.71689 164.3578 C 150.68863 164.26561 145.80239 164.17342 141.93027 164.08123 C 134.92358 163.89684 134.73919 163.80465 134.73919 161.592 C 134.73919 160.3013 135.38454 157.71989 136.12209 155.87602 C 137.78157 151.91171 137.78157 151.63513 136.49086 152.46487 C 135.9377 152.83364 133.81726 156.52138 131.8812 160.67007 C 129.94514 164.91097 127.91689 168.6909 127.27153 169.05967 C 126.62618 169.42844 120.44923 170.0738 113.44254 170.44257 C 94.45072 171.54888 86.24551 174.31468 82.92655 180.8604 C 80.71391 185.1013 77.85592 187.7749 75.3667 187.8671 C 73.9838 187.8671 73.799415 187.40613 74.26038 185.1013 C 74.53696 183.53401 74.62915 182.3355 74.44477 182.3355 C 74.26038 182.3355 72.87748 183.6262 71.218 185.1013 C 69.650716 186.66859 67.89904 187.68271 67.43808 187.40613 C 65.96298 186.4842 66.33176 181.13699 67.99124 178.83216 C 70.01949 175.88197 69.00536 175.23662 66.70053 178.0946 C 65.6864 179.4775 64.58008 180.49164 64.3035 180.49164 C 62.82841 180.49164 64.026924 175.78978 66.33176 172.8396 C 69.8351 168.22993 74.26038 166.29387 84.9548 164.72658 C 88.27376 164.26561 93.52878 163.52807 96.75555 163.0671 C 99.98231 162.60613 102.84031 162.05297 103.11689 161.7764 C 103.39347 161.49981 102.74811 158.9184 101.64179 156.0604 C 99.33696 149.97565 99.15257 145.0894 101.08863 140.57193 C 102.74811 136.60762 102.74811 136.23885 101.5496 136.23885 C 101.08863 136.23885 99.98231 138.54368 99.15257 141.40167 C 97.67748 146.4723 97.76967 153.20242 99.24477 158.08866 C 100.1667 161.13104 98.04625 160.76227 93.89756 157.16673 C 87.7206 151.91171 84.77042 139.83439 86.79867 128.03364 L 87.90499 121.30353 L 92.14588 121.7645 C 99.15257 122.50204 103.57785 120.2894 109.7548 112.91394 C 112.05964 110.05595 109.847 111.25446 105.6983 115.12658 C 100.81205 119.64405 96.93994 120.3816 87.44402 118.81431 C 75.64328 116.78606 72.416515 115.86413 69.18975 113.83587 L 66.05518 111.80762 L 71.12581 111.34665 C 76.10425 110.88569 78.50127 110.05595 78.50127 108.76524 C 78.50127 108.39647 76.93399 108.21208 74.99793 108.39647 C 72.139935 108.67305 67.66856 109.32993 67.66856 109.32993 C 67.66856 109.32993 63.74802 109.56603 63.00127 108.81134 C 62.5224 108.2878 63.00127 105.18123 63.00127 105.18123 C 63.00127 105.18123 63.197184 101.57416 63.0128 100.56004 C 62.82841 99.26933 61.90648 98.43959 60.707965 98.2552 C 57.20462 97.79424 58.218745 94.56747 62.367444 92.53922 C 64.3957 91.52509 69.00536 88.39052 72.6009 85.53253 C 80.52953 79.17119 88.18157 75.85223 92.79124 76.68197 C 96.38678 77.41952 96.57116 77.78829 94.6351 81.47602 C 93.89756 82.95112 93.2522 85.07156 93.2522 86.08569 C 93.2522 87.65297 92.51466 88.20613 89.84105 88.75929 C 86.06112 89.40465 80.34514 92.53922 80.34514 93.92212 C 80.34514 94.38309 81.35927 94.29089 82.55778 93.73773 C 84.40165 92.90799 85.23138 93.09238 87.62841 94.84405 C 89.65666 96.31914 90.76298 96.68792 91.50053 95.95037 C 92.23808 95.21283 90.70536 94.14108 89.96782 93.7723 C 88.12395 92.57379 88.8615 91.37528 91.35072 91.37528 C 93.10239 91.37528 95.18826 91.61729 94.7273 90.60316 C 93.98975 88.48271 97.58529 79.53996 100.62767 76.3132 C 104.03882 72.71766 107.0812 72.71766 110.21577 76.3132 Z"/>
            </g>
            <g>
               <path d="M 60.52358 102.21952 C 61.35332 104.89312 60.33919 105.53848 58.67971 103.41803 C 57.02023 101.20539 56.92804 100.28346 58.58752 100.28346 C 59.325065 100.28346 60.247 101.1132 60.52358 102.21952 Z"/>
            </g>
            <g>
               <path d="M 66.51614 136.69981 C 69.8351 137.89833 74.72135 139.5578 77.39495 140.38755 C 81.45146 141.67825 82.55778 142.60019 84.58603 146.01134 C 87.16744 150.43662 87.07525 153.479 84.30945 152.0961 C 82.55778 151.17416 72.50871 149.3303 65.96298 148.68494 C 62.45964 148.31617 61.814284 148.68494 58.771905 152.0039 C 52.96373 158.18086 49.92135 156.2448 54.43882 149.05372 C 57.75778 143.7065 57.112426 143.33773 52.41057 147.76301 C 47.063355 152.83364 42.361496 151.81952 43.83659 145.82695 C 44.297556 144.07528 45.77265 142.87677 49.1838 141.40167 C 51.9496 140.20316 53.516887 139.00465 52.871534 138.63587 C 52.318374 138.2671 49.73696 139.09684 47.24774 140.38755 C 41.992723 142.96896 39.780084 143.33773 39.780084 141.40167 C 39.780084 139.7422 44.850716 135.4091 47.43213 134.85595 C 48.53845 134.67156 50.29012 134.30279 51.30425 134.1184 C 54.43882 133.47305 60.247 134.48717 66.51614 136.69981 Z"/>
            </g>
            <g>
               <path d="M 275.70276 162.60613 C 277.27005 164.91097 278.56075 167.03141 278.56075 167.49238 C 278.56075 168.87528 282.80165 172.00985 287.5957 174.0381 C 291.8366 175.88197 292.38975 176.43513 292.38975 178.73996 C 292.38975 181.0448 291.8366 181.69015 288.702 182.88866 C 284.09235 184.73253 278.0998 191.73922 277.27005 196.2567 C 276.6247 199.66784 274.78083 202.15706 273.6745 201.05074 C 273.30573 200.77416 273.02915 199.0225 273.02915 197.27082 C 273.02915 194.59721 272.84477 194.22844 271.64625 195.24257 C 270.9087 195.88792 270.26336 197.08643 270.26336 198.00836 C 270.26336 200.03662 267.95852 202.06487 266.20685 201.41952 C 264.54737 200.77416 263.71763 195.15037 265.00834 193.4909 C 265.5615 192.84554 267.12878 191.83141 268.4195 191.37045 C 269.7102 190.81729 270.26336 190.26413 269.618 189.98755 C 267.86633 189.3422 262.15034 193.12212 261.505 195.33476 C 260.58306 198.10056 258.7392 196.80985 258.8314 193.58309 C 259.01577 189.61877 262.15034 185.65446 266.76 183.44182 C 268.97265 182.4277 271.46187 180.76822 272.476 179.6619 C 275.2418 176.61952 273.21354 175.3288 264.45518 174.68346 C 251.6403 173.76152 246.2931 172.10204 240.39272 167.49238 C 236.6128 164.5422 237.35034 163.34368 243.3429 162.60613 C 246.2009 162.23736 252.56224 161.22323 257.3563 160.3013 C 271.55406 157.5355 272.3838 157.6277 275.70276 162.60613 Z"/>
            </g>
            <g>
               <g  id="outline-1">
                  <path
                        d="M 101.5496 82.67454 C 100.53547 84.70279 100.35109 87.65297 101.18083 88.57491 C 101.5496 88.85149 102.56373 88.75929 103.57785 88.20613 C 105.23733 87.2842 105.23733 87.09981 103.94663 85.16375 C 102.9325 83.59647 102.84031 82.76673 103.67005 81.93699 C 104.40759 81.19944 104.40759 80.92286 103.57785 80.92286 C 103.02469 80.92286 102.10276 81.7526 101.5496 82.67454 Z"
                        fill="black"/>
               </g>
            </g>
            <g>
               <g  id="outline-2">
                  <path
                        d="M 79.05443 98.3474 C 78.59347 98.99275 79.5154 99.36152 81.91243 99.36152 C 83.84849 99.36152 87.99718 99.91468 91.22395 100.65223 C 97.4009 101.94294 99.24477 100.92881 93.52878 99.45372 C 87.35183 97.79424 79.69979 97.24108 79.05443 98.3474 Z"
                        fill="black"/>
               </g>
            </g>
            <g>
               <g  id="outline-3">
                  <path
                        d="M 76.65741 101.66636 C 76.65741 102.21952 79.33101 103.60242 84.86261 105.72286 C 91.50053 108.39647 90.76298 106.5526 83.94068 103.60242 C 78.50127 101.29758 76.65741 100.74442 76.65741 101.66636 Z"
                        fill="black"/>
               </g>
            </g>
         </g>
      </g>
   </g>
</svg>