<?xml version="1.0" encoding="UTF-8" standalone="no"?>
<svg
   xmlns:dc="http://purl.org/dc/elements/1.1/"
   xmlns:cc="http://creativecommons.org/ns#"
   xmlns:rdf="http://www.w3.org/1999/02/22-rdf-syntax-ns#"
   xmlns:svg="http://www.w3.org/2000/svg"
   xmlns="http://www.w3.org/2000/svg"
   xmlns:sodipodi="http://sodipodi.sourceforge.net/DTD/sodipodi-0.dtd"
   xmlns:inkscape="http://www.inkscape.org/namespaces/inkscape"
   id="svg12704"
   viewBox="0 0 10325 2024.1"
   style="clip-rule:evenodd;fill-rule:evenodd;image-rendering:optimizeQuality;shape-rendering:geometricPrecision;text-rendering:geometricPrecision"
   version="1.1"
   height="2024"
   width="10325"
   xml:space="preserve"
   sodipodi:docname="rat.svg"
   inkscape:version="0.92.2 5c3e80d, 2017-08-06"><sodipodi:namedview
     pagecolor="#ffffff"
     bordercolor="#666666"
     borderopacity="1"
     objecttolerance="10"
     gridtolerance="10"
     guidetolerance="10"
     inkscape:pageopacity="0"
     inkscape:pageshadow="2"
     inkscape:window-width="640"
     inkscape:window-height="480"
     id="namedview966"
     showgrid="false"
     units="px"
     fit-margin-top="0"
     fit-margin-left="0"
     fit-margin-right="0"
     fit-margin-bottom="0"
     inkscape:zoom="0.080387"
     inkscape:cx="5162.5"
     inkscape:cy="1012"
     inkscape:current-layer="svg12704" /><metadata
     id="metadata12708"><rdf:RDF><cc:Work
         rdf:about=""><dc:format>image/svg+xml</dc:format><dc:type
           rdf:resource="http://purl.org/dc/dcmitype/StillImage" /><dc:title></dc:title></cc:Work></rdf:RDF></metadata><defs
     id="defs12383" /><g
     transform="translate(-1007.3,-959.48)"
     id="Layer_x0020_1"><metadata
       id="CorelCorpID_0Corel-Layer" /><g
       transform="matrix(-1,0,0,1,12339,0)"
       id="body"><path
         style="fill:#808080"
         d="m 7832,2955 c -30,-19 -122,-51 -203,-71 -204,-51 -380,-167 -454,-297 -41,-71 -92,-110 -147,-110 -46,0 -150,-34 -231,-75 l -146,-75 v 91 c 0,113 125,206 278,206 117,0 202,56 202,132 0,24 -76,51 -175,62 -96,10 -200,29 -231,41 -41,16 -92,-54 -194,-263 -76,-157 -139,-316 -138,-355 1,-63 -18,-67 -193,-42 -107,15 -595,27 -1085,26 -692,-1 -1009,-18 -1420,-77 -686,-97 -1224,-144 -2033,-175 -360,-14 -655,-37 -655,-52 0,-15 112,-50 249,-77 382,-77 1447,-58 2204,39 739,95 1948,138 2335,83 248,-35 293,-56 572,-268 334,-254 693,-435 1059,-536 329,-91 1010,-83 1671,18 617,95 727,98 727,21 0,-31 41,-98 91,-148 180,-180 537,-83 537,145 0,65 26,95 99,113 55,14 145,57 200,97 56,40 168,96 249,124 341,120 413,242 244,411 -135,135 -291,189 -683,233 -450,51 -597,94 -743,217 l -119,100 201,18 c 169,16 203,31 212,96 9,64 -13,82 -129,101 -250,41 -343,26 -799,-127 l -448,-151 -245,59 c -135,32 -376,60 -535,62 -202,3 -262,13 -198,33 51,16 150,31 221,33 171,5 374,112 411,217 29,80 24,83 -98,60 -90,-17 -156,-6 -219,35 -101,66 -159,71 -241,21 z"
         class="fil2"
         id="Rattus-rattus-outline"
         inkscape:connector-curvature="0" /><path
         style="fill:#6c5d53"
         d="m 6584,2400 c -13,-135 -86,-225 -139,-171 -17,17 120,322 144,322 5,0 3,-68 -5,-150 v 0 z"
         class="fil2"
         id="Rattus-rattus-outline_0"
         inkscape:connector-curvature="0" /><path
         style="fill:#6c5d53"
         d="m 7017,2748 c 34,-30 -42,-63 -199,-87 -167,-25 -184,-15 -145,85 16,41 60,50 175,35 85,-11 161,-26 170,-33 z"
         class="fil2"
         id="Rattus-rattus-outline_1"
         inkscape:connector-curvature="0" /><path
         style="fill:url(#id1)"
         d="m 8352,2851 c -4,-11 -41,-53 -63,-66 -151,-93 -272,-111 -457,-136 -162,-21 -295,-49 -295,-62 0,-13 56,-43 125,-68 69,-25 202,-113 297,-196 95,-83 184,-139 198,-125 14,15 -40,83 -121,152 -178,151 -159,154 369,67 l 369,-61 450,152 c 430,146 823,203 823,120 0,-55 -109,-79 -257,-55 -173,28 -202,-13 -115,-157 98,-162 296,-238 756,-292 225,-26 458,-67 519,-90 132,-50 277,-179 277,-246 0,-27 -104,-101 -231,-164 -127,-64 -275,-147 -328,-185 -121,-85 -208,-88 -296,-8 -76,69 -82,46 -34,-123 63,-221 -164,-364 -335,-209 -94,85 -84,194 29,312 141,147 93,212 -54,74 -92,-86 -168,-119 -312,-135 -105,-12 -415,-57 -689,-100 -673,-105 -1150,-103 -1531,6 -408,117 -738,273 -978,461 -433,339 -416,336 -1439,334 -743,-1 -1056,-19 -1758,-101 -765,-90 -1682,-134 -1627,-79 11,11 367,45 790,74 423,29 1002,88 1286,130 731,109 1960,138 2354,55 318,-66 330,-64 760,181 89,51 206,92 259,92 73,0 107,26 137,107 22,59 85,136 139,171 159,104 551,238 630,216 41,-11 96,-25 167,-39 l 107,-9 c 35,1 79,16 81,4 z"
         class="fil3"
         id="Rattus-rattus-outline_2"
         inkscape:connector-curvature="0" /><path
         style="fill:#ffff00"
         d="m 10152,1034 c -49,1 -102,21 -150,65 -94,85 -84,194 29,312 141,147 93,212 -55,74 -92,-86 -168,-119 -312,-136 -105,-12 -415,-57 -689,-100 -673,-105 -1150,-103 -1531,7 -408,117 -738,273 -978,460 -433,339 -417,336 -1439,334 -743,-1 -1056,-19 -1758,-101 -765,-90 -1683,-134 -1627,-79 11,11 367,45 790,74 423,29 1002,88 1286,130 731,109 1960,138 2354,55 318,-66 330,-64 760,181 89,51 206,93 259,93 73,0 107,26 137,107 22,59 84,135 138,171 159,104 551,238 631,216 41,-11 132,-32 203,-46 l 129,-26 -102,-68 c -57,-38 -231,-85 -396,-106 -162,-21 -294,-50 -294,-62 0,-13 56,-43 125,-68 69,-25 202,-113 297,-196 95,-83 184,-139 198,-125 14,15 -40,82 -121,151 -178,151 -159,154 369,67 l 369,-61 450,152 c 430,146 823,203 823,119 0,-55 -109,-79 -257,-55 -173,28 -202,-13 -114,-157 98,-162 296,-238 756,-291 225,-26 458,-67 519,-90 132,-50 277,-179 277,-246 0,-27 -104,-100 -230,-164 -127,-64 -275,-147 -329,-185 -121,-85 -208,-87 -296,-8 -76,69 -82,45 -34,-123 46,-159 -59,-277 -185,-274 v 0 z m -3676,1179 c -11,1 -21,6 -31,16 -17,17 120,322 144,322 5,0 3,-68 -5,-150 -10,-110 -61,-190 -108,-187 v 0 z m 227,436 c -57,1 -56,28 -30,97 16,41 60,50 175,35 85,-11 161,-26 170,-33 34,-30 -42,-63 -200,-87 -52,-8 -90,-13 -116,-12 v 0 z"
         class="fil4"
         id="Rattus-rattus-fill"
         inkscape:connector-curvature="0" /><path
         style="fill:#6c5d53"
         d="m 10562,1591 c 0,-49 25,-74 74,-74 49,0 74,25 74,74 0,49 -25,74 -74,74 -49,0 -74,-25 -74,-74 z"
         class="fil2"
         id="Rattus-rattus-outline_3"
         inkscape:connector-curvature="0" /></g></g></svg>