<?xml version="1.0" encoding="UTF-8" standalone="no"?>
<svg
   xmlns:dc="http://purl.org/dc/elements/1.1/"
   xmlns:cc="http://creativecommons.org/ns#"
   xmlns:rdf="http://www.w3.org/1999/02/22-rdf-syntax-ns#"
   xmlns:svg="http://www.w3.org/2000/svg"
   xmlns="http://www.w3.org/2000/svg"
   xmlns:xlink="http://www.w3.org/1999/xlink"
   xmlns:sodipodi="http://sodipodi.sourceforge.net/DTD/sodipodi-0.dtd"
   xmlns:inkscape="http://www.inkscape.org/namespaces/inkscape"
   height="635.3866"
   width="664.27222"
   version="1.0"
   id="svg2"
   sodipodi:version="0.32"
   inkscape:version="0.48.2 r9819"
   sodipodi:docname="squirrel.svg"
   inkscape:output_extension="org.inkscape.output.svg.inkscape">
  <metadata
     id="metadata49">
    <rdf:RDF>
      <cc:Work
         rdf:about="">
        <dc:format>image/svg+xml</dc:format>
        <dc:type
           rdf:resource="http://purl.org/dc/dcmitype/StillImage" />
        <dc:title>Gabarit d'un blason en pointe pour le projet Blasons de Wikipédia</dc:title>
        <dc:date>03-AUG-2006</dc:date>
        <dc:creator>
          <cc:Agent>
            <dc:title>Jérôme BLUM (wagner51)</dc:title>
          </cc:Agent>
        </dc:creator>
        <cc:license
           rdf:resource="http://web.resource.org/cc/PublicDomain" />
        <dc:language>fr</dc:language>
        <dc:subject>
          <rdf:Bag>
            <rdf:li>gabarit modèle blason projet wikipédia</rdf:li>
          </rdf:Bag>
        </dc:subject>
      </cc:Work>
      <cc:License
         rdf:about="http://web.resource.org/cc/PublicDomain">
        <cc:permits
           rdf:resource="http://web.resource.org/cc/Reproduction" />
        <cc:permits
           rdf:resource="http://web.resource.org/cc/Distribution" />
        <cc:permits
           rdf:resource="http://web.resource.org/cc/DerivativeWorks" />
      </cc:License>
    </rdf:RDF>
  </metadata>
  <sodipodi:namedview
     inkscape:window-height="1028"
     inkscape:window-width="1574"
     inkscape:pageshadow="2"
     inkscape:pageopacity="0.0"
     guidetolerance="10.0"
     gridtolerance="10.0"
     objecttolerance="10.0"
     borderopacity="1.0"
     bordercolor="#666666"
     pagecolor="#ffffff"
     id="base"
     showgrid="true"
     height="660px"
     inkscape:zoom="0.89095454"
     inkscape:cx="228.55774"
     inkscape:cy="376.16053"
     inkscape:window-x="98"
     inkscape:window-y="-8"
     inkscape:current-layer="body"
     fit-margin-top="0"
     fit-margin-left="0"
     fit-margin-right="0"
     fit-margin-bottom="0"
     inkscape:window-maximized="1" />
  <desc
     id="desc4">Flag of Canton of Valais (Wallis)</desc>
  <defs
     id="defs6">
  </defs>
  <g
     inkscape:groupmode="layer"
     id="body"
     inkscape:label="Meubles">
    <path
       inkscape:connector-curvature="0"
       style="fill:#ffff00;fill-opacity:1;fill-rule:evenodd;stroke:#000000;stroke-width:3.35502696;stroke-linecap:butt;stroke-linejoin:miter;stroke-miterlimit:4;stroke-opacity:1;stroke-dasharray:none"
       d="m 162.8761,164.20338 c -24.97741,-102.56793 -62.58811,-28.5448 -36.66851,27.5013"
       id="path20493"
       sodipodi:nodetypes="cc" />
    <path
       inkscape:connector-curvature="0"
       style="fill:#ffff00;fill-opacity:1;fill-rule:evenodd;stroke:#000000;stroke-width:3.35502696;stroke-linecap:butt;stroke-linejoin:miter;stroke-miterlimit:4;stroke-opacity:1;stroke-dasharray:none"
       d="m 224.25123,366.59428 c -22.32732,4.3685 -121.0472,-36.2744 -143.37452,-37.5635 l 2.16071,-4.3214 10.80354,-12.9642 -10.80354,12.9642 -34.57134,4.3214 c -18.79885,-6.3367 -10.31147,-19.7102 -21.60708,-17.2856 -5.4475,0.767 -8.17781,-6.2889 -10.80354,-10.8036 3.34312,-12.244 6.20846,-24.488 15.12496,-36.732 8.19721,-27.2513 29.11446,-75.597 86.42833,-95.0712 29.77807,-5.0732 44.17731,-32.5156 133.96391,49.6963 11.91431,9.7536 34.50068,17.215 45.37487,19.4464 l 2.16071,-0.7203"
       id="path20495"
       sodipodi:nodetypes="ccccccccccccc" />
    <path
       inkscape:connector-curvature="0"
       style="fill:#ffff00;fill-opacity:1;fill-rule:evenodd;stroke:#000000;stroke-width:3.35502696;stroke-linecap:butt;stroke-linejoin:miter;stroke-miterlimit:4;stroke-opacity:1;stroke-dasharray:none"
       d="m 178.46625,426.56678 c 0,23.88 74.59117,56.1263 61.11406,55.0026 -36.65198,-3.0556 2.20604,110.0054 21.38992,110.0054 0,0 105.57422,30.884 106.94961,33.6127 6.06271,12.028 87.02507,-13.4912 81.99469,-33.6127 l 19.86207,-36.6685 c 76.92799,-230.856 -68.61826,-257.5463 -171.11936,-316.7745"
       id="path20497"
       sodipodi:nodetypes="cscsccc" />
    <path
       inkscape:connector-curvature="0"
       style="fill:#ffff00;fill-opacity:1;fill-rule:evenodd;stroke:#000000;stroke-width:3.35502696;stroke-linecap:butt;stroke-linejoin:miter;stroke-miterlimit:4;stroke-opacity:1;stroke-dasharray:none"
       d="m 251.80312,372.58268 c -10.7968,25.1586 -28.27488,46.9766 -73.33687,55.0027 -40.23647,-3.0374 -78.571,-17.4865 -113.061,-55.0027 -6.05205,25.761 -19.06816,16.7017 -30.55703,15.2785 -15.60558,6.4385 -16.52469,-1.8095 -21.38992,-6.1114 -13.37006,3.2257 -8.47406,-13.2697 -3.05571,-24.4456 -10.97731,-5.0928 -9.27177,-10.1857 -3.0557,-15.2785 -8.4233,-21.3984 50.38685,-9.1802 75.69053,-13.7151 l 0,0"
       id="path20499"
       sodipodi:nodetypes="ccccccccc" />
    <path
       inkscape:connector-curvature="0"
       style="fill:#ffff00;fill-opacity:1;fill-rule:evenodd;stroke:#000000;stroke-width:3.35502696;stroke-linecap:butt;stroke-linejoin:miter;stroke-miterlimit:4;stroke-opacity:1;stroke-dasharray:none"
       d="m 379.63337,627.73388 c 0,0 -37.85627,4.4566 -35.14059,3.0557 3.0557,-1.5763 -73.33687,-14.653 -73.33687,-10.6949 -6.57076,9.7263 -13.21853,19.3756 -36.66844,12.2228 l -7.00639,-3.0557 c -4.76255,-0.3303 -9.98048,1.9555 -0.52428,-8.2722 l -11.32782,3.9507 c 6.38376,-9.5402 1.53511,-16.0538 18.85849,-20.1242 50.85928,-37.2076 -17.69479,-4.7575 -29.00992,-5.6967 -8.03643,0.1138 -14.80745,-1.0378 -10.80354,-12.9643 -4.32163,-1.4402 -4.21639,-0.8253 -8.64284,-6.4821 -2.81168,-12.6623 29.31674,-10.1259 54.01771,-10.8036"
       id="path20501"
       sodipodi:nodetypes="cscccccccccc" />
    <path
       inkscape:connector-curvature="0"
       style="fill:#ffff00;fill-opacity:1;fill-rule:evenodd;stroke:#000000;stroke-width:3.35502696;stroke-linecap:butt;stroke-linejoin:miter;stroke-miterlimit:4;stroke-opacity:1;stroke-dasharray:none"
       d="m 191.64311,197.81608 c 22.69963,-95.7836 -64.86782,-120.4225 -38.98268,-4.8456"
       id="path20503"
       sodipodi:nodetypes="cc" />
    <path
       inkscape:connector-curvature="0"
       style="fill:#ffff00;fill-opacity:1;fill-rule:evenodd;stroke:#000000;stroke-width:3.35502696;stroke-linecap:butt;stroke-linejoin:miter;stroke-miterlimit:4;stroke-opacity:1;stroke-dasharray:none"
       d="m 84.47789,325.42968 43.21416,8.6428 c 35.13717,-17.0028 57.04128,-52.1458 69.14267,-103.714"
       id="path20505"
       sodipodi:nodetypes="ccc" />
    <path
       inkscape:connector-curvature="0"
       style="fill:#ffff00;fill-opacity:1;fill-rule:evenodd;stroke:#000000;stroke-width:3.35502696;stroke-linecap:butt;stroke-linejoin:miter;stroke-miterlimit:4;stroke-opacity:1;stroke-dasharray:none"
       d="M 404.26271,524.21478 C 358.1676,391.69138 309.19154,383.04848 240.04888,481.00058"
       id="path20507"
       sodipodi:nodetypes="cc" />
    <path
       inkscape:connector-curvature="0"
       style="fill:#ffff00;fill-opacity:1;fill-rule:evenodd;stroke:#000000;stroke-width:3.35502696;stroke-linecap:butt;stroke-linejoin:miter;stroke-miterlimit:4;stroke-opacity:1;stroke-dasharray:none"
       d="m 343.76288,630.46018 c -46.99041,-13.5094 -76.92251,-24.2151 -101.66187,-59.9755"
       id="path20509"
       sodipodi:nodetypes="cc" />
    <path
       inkscape:connector-curvature="0"
       style="fill:#ffff00;fill-opacity:1;fill-rule:evenodd;stroke:#000000;stroke-width:3.35502696;stroke-linecap:butt;stroke-linejoin:miter;stroke-miterlimit:4;stroke-opacity:1;stroke-dasharray:none"
       d="m 457.02951,621.11318 c 17.02463,-13.2524 10.57718,-45.0072 37.19271,-16.5441 13.55608,-24.0839 121.30126,27.2719 16.01996,-13.4886 l 32.56418,0.7413 27.80844,7.9015 c 11.93636,-5.251 -67.79235,-18.3817 6.11139,-15.2785 l -36.66842,-6.1114 c 0,0 48.89124,-3.0557 42.77983,-3.0557 -6.1114,0 -30.55702,-9.1671 -30.55702,-9.1671 l 55.00265,-15.2785 -39.72413,3.0557 58.05835,-21.39 -45.83554,3.0557 58.05835,-15.2785 -33.61273,-9.1671 41.57773,-15.7655 -35.9906,2.5314 36.73203,-18.7049 -29.50847,0.7414 28.0892,-33.8299 -24.29205,0.3707 28.9842,-16.5442 -26.60634,-2.1607 25.55778,-27.7185 -23.76779,6.8529 15.89274,-36.335 -27.50132,12.2228 30.55702,-33.6127 -27.50132,-15.2785 3.55364,-12.9906 -15.64924,-2.1607 c 0,0 -26.45278,-44.2628 -32.56419,-44.2628 -6.1114,0 -80.62403,-47.5356 -80.62403,-47.5356 3.68575,-11.7397 8.91552,-17.3034 18.33421,-6.1114 l -0.74143,10.0622 7.90139,-5.5872 4.32142,11.6986 20.86564,3.9507 13.48853,13.4885 3.0557,0 9.16711,12.2228 3.05571,-9.1671 12.37637,-3.6436 c 0,0 -20.55028,17.5102 2.37786,9.3843 14.01794,-4.9681 5.89425,1.79 5.89425,1.79 l 14.22996,10.65 1.78999,-18.1807 -3.05571,-21.3899 c 0,0 3.05571,15.2785 9.16712,15.2785 6.1114,0 -10e-6,-21.39 -10e-6,-21.39 l 24.44563,15.2786 -21.38993,-30.5571 15.27852,0 -9.16711,-9.1671 27.50133,-9.1671 -21.38992,-6.1114 c 5.9488,-4.6991 -5.8428,0.4148 34.66128,-15.8028 -52.74209,10.141 -28.85383,-3.6869 -24.01129,-5.0628 18.64625,-9.5891 -10.62728,-1.8924 18.64132,-11.4814 -6.76779,-7.4922 1.43405,-21.3111 -16.85134,-17.2857 l 15.06136,-11.4813 -8.94995,-15.4957 c -7.37325,-10.1857 -7.6753,-11.7286 15.06135,-8.95 l -34.13701,-30.2499 23.87505,6.0999 -30.24991,-30.24994 c -13.1838,0 11.85271,4.32142 21.60708,-4.32142 6.46885,-5.7317 -43.21417,-8.64283 -43.21417,-8.64283 l 17.28567,-17.28566 -43.21417,12.96425 25.9285,-21.60709 -51.85699,12.96425 0,-21.60708 -17.28567,25.9285 0,-25.9285 -17.28567,30.24991 0,-21.60708 -25.9285,21.60708 -8.64283,-12.96424 -17.28567,21.60708 c -10.9009,-2.49152 -8.47962,32.47807 -8.64283,-12.96425 -9.04107,23.4458 -22.43543,20.99496 -8.64283,21.60708 -8.17271,-3.82119 -33.29958,65.15874 0,-21.60708 -34.02137,23.04755 -28.48161,24.48803 -30.24992,47.53562 -12.1414,-8.02525 -17.50279,3.098 4.32142,-38.89279 -29.25606,17.06236 -26.26917,50.24619 -34.57133,77.78549 l 0,-60.49982 -25.9285,51.85702 11.17426,-38.67561 -24.13851,51.63981 4.32142,-30.2499 c 0,0 -25.66261,57.189 -21.60708,64.8213 6.66173,12.5369 1.53082,9.6226 -17.28567,-17.2857 -3.08233,-4.4078 -3.06459,41.4064 0,47.5356 -12.6453,-6.3998 -11.10611,23.9598 -12.43997,-5.0629 0,0 -15.27852,36.5785 -6.63569,36.5785 8.64283,0 -13.70569,11.4814 -13.70569,11.4814 l 54.38843,8.86 c -37.86486,-8.8492 -43.61108,-1.639 -60.49983,0 l 51.857,17.2856 -17.28567,8.6429 51.857,8.6428 -17.28567,8.6428 47.53558,12.9643 -21.60708,4.3214 38.89275,8.6428 c 0,0 -21.60708,8.6429 -12.96425,8.6429 8.64284,0 47.53558,12.9642 47.53558,12.9642 l -12.96425,12.9643 21.60709,4.3214 4.32141,21.6071 12.96425,0 -12.96425,34.5713 21.60709,8.6428 -10e-6,25.9285 21.60709,17.2857 -19.81709,-16.8513"
       id="path20511"
       sodipodi:nodetypes="cccccccscccccccccccccccccccccccscccccccccccsccccscccccccccccccccccsccccccccccccccccccccccccssccsccccccccccscccccccccc" />
    <path
       style="fill:#ffff00;fill-opacity:1;fill-rule:evenodd;stroke:#000000;stroke-width:3.35502696;stroke-linecap:butt;stroke-linejoin:miter;stroke-miterlimit:4;stroke-opacity:1;stroke-dasharray:none"
       d="m 48.503,362.89128 c -11.9349,1.3065 -17.8221,6.5 -13.4886,24.0749"
       id="path20515"
       sodipodi:nodetypes="cc"
       inkscape:connector-curvature="0" />
    <path
       style="fill:#ffff00;fill-opacity:1;fill-rule:evenodd;stroke:#000000;stroke-width:3.35502696;stroke-linecap:butt;stroke-linejoin:miter;stroke-miterlimit:4;stroke-opacity:1;stroke-dasharray:none"
       d="m 36.2802,350.66848 c -21.1334,5.5179 -25.6637,18.0106 -22.4703,31.6374"
       id="path20517"
       sodipodi:nodetypes="cc"
       inkscape:connector-curvature="0" />
    <path
       inkscape:connector-curvature="0"
       style="fill:#ffff00;fill-opacity:1;fill-rule:evenodd;stroke:#000000;stroke-width:3.35502696;stroke-linecap:butt;stroke-linejoin:miter;stroke-miterlimit:4;stroke-opacity:1;stroke-dasharray:none"
       d="m 81.95705,328.31058 c -38.80165,3.8716 -72.26949,10.6015 -76.70514,25.9285 l 0,0 0,0"
       id="path20519"
       sodipodi:nodetypes="cccc" />
    <path
       inkscape:connector-curvature="0"
       style="fill:#ffff00;fill-opacity:1;fill-rule:evenodd;stroke:#000000;stroke-width:3.35502696;stroke-linecap:butt;stroke-linejoin:miter;stroke-miterlimit:4;stroke-opacity:1;stroke-dasharray:none"
       d="m 248.77909,607.76218 c -15.25502,4.3214 -18.24466,8.6428 -21.60709,12.9642"
       id="path20521"
       sodipodi:nodetypes="cc" />
    <path
       inkscape:connector-curvature="0"
       style="fill:#ffff00;fill-opacity:1;fill-rule:evenodd;stroke:#000000;stroke-width:3.35502696;stroke-linecap:butt;stroke-linejoin:miter;stroke-miterlimit:4;stroke-opacity:1;stroke-dasharray:none"
       d="m 245.72339,623.78208 c -8.57118,1.2363 -12.53843,4.7745 -12.96425,10.0834"
       id="path20523"
       sodipodi:nodetypes="cc" />
    <path
       inkscape:connector-curvature="0"
       style="fill:#ffff00;fill-opacity:1;fill-rule:evenodd;stroke:#000000;stroke-width:3.35502696;stroke-linecap:butt;stroke-linejoin:miter;stroke-miterlimit:4;stroke-opacity:1;stroke-dasharray:none"
       d="m 217.00132,574.63128 c -12.96425,-0.7692 -15.12496,-1.1379 -28.08921,6.4821"
       id="path20525"
       sodipodi:nodetypes="cc" />
    <path
       inkscape:connector-curvature="0"
       style="fill:#ffff00;fill-opacity:1;fill-rule:evenodd;stroke:#000000;stroke-width:3.35502696;stroke-linecap:butt;stroke-linejoin:miter;stroke-miterlimit:4;stroke-opacity:1;stroke-dasharray:none"
       d="m 212.6799,583.27418 c -8.85888,1.2244 -16.79394,3.3726 -21.60708,8.6428"
       id="path20527"
       sodipodi:nodetypes="cc" />
    <path
       inkscape:connector-curvature="0"
       style="fill:#2b5df2;fill-opacity:1;fill-rule:evenodd;stroke:#000000;stroke-width:3.35502696;stroke-linecap:butt;stroke-linejoin:miter;stroke-miterlimit:4;stroke-opacity:1;stroke-dasharray:none"
       d="m 99.40652,228.96038 c 2.46776,-0.9268 6.92239,-0.8602 15.12495,1.0803 -3.60118,5.3426 -7.20236,10.4543 -10.80354,12.9643 -3.5724,-3.63 -3.62972,-7.5339 -4.32141,-14.0446 z"
       id="path20531"
       sodipodi:nodetypes="cccc" />
    <path
       sodipodi:nodetypes="ccc"
       id="path21556"
       d="m 86.53177,260.92198 c 30.0546,-0.4578 36.82769,-12.5563 32.41062,-30.2499 -32.87815,-8.3122 -33.42017,10.3224 -32.41062,30.2499 z"
       style="fill:#000000;fill-opacity:1;fill-rule:evenodd;stroke:#000000;stroke-width:3.35502696;stroke-linecap:butt;stroke-linejoin:miter;stroke-miterlimit:4;stroke-opacity:1;stroke-dasharray:none"
       inkscape:connector-curvature="0" />
    <path
       sodipodi:nodetypes="cccc"
       id="path21558"
       d="m 101.65673,230.67208 c 2.46776,-0.9268 6.92239,-0.8602 15.12495,1.0803 -3.60118,5.3426 -7.20236,10.4543 -10.80354,12.9643 -3.5724,-3.63 -3.62972,-7.5339 -4.32141,-14.0446 z"
       style="fill:#ffffff;fill-opacity:1;fill-rule:evenodd;stroke:#000000;stroke-width:3.35502696;stroke-linecap:butt;stroke-linejoin:miter;stroke-miterlimit:4;stroke-opacity:1;stroke-dasharray:none"
       inkscape:connector-curvature="0" />
    <path
       inkscape:connector-curvature="0"
       style="fill:#ffff00;stroke:#000000;stroke-width:3.35502696;stroke-linecap:butt;stroke-linejoin:miter;stroke-miterlimit:4;stroke-opacity:1;stroke-dasharray:none"
       d="m 172.87023,192.02222 0.5402,-23.3795 c 3.1314,-2.0704 6.47271,-8.0426 12.16071,-5 0.5075,-5 2.4669,-10 -2.16071,-15 1.1186,-12.4124 0.8752,-23.9167 -15,-25 -8.3452,-0.024 -10.27171,17.1114 -7.16071,40 14.7002,-0.3557 8.35421,14.7599 7.16071,25 1.2734,3.5622 -3.1592,7.7584 10,10 l 0,10"
       id="path21560"
       sodipodi:nodetypes="ccccccccc" />
    <path
       inkscape:connector-curvature="0"
       style="fill:#ffff00;fill-opacity:1;fill-rule:evenodd;stroke:#000000;stroke-width:3.35502696;stroke-linecap:butt;stroke-linejoin:miter;stroke-miterlimit:4;stroke-opacity:1;stroke-dasharray:none"
       d="m 176.08464,198.14272 -8.24106,-7.1607 4.32141,-18.9197 c 1.24365,9.1794 -1.03165,25.3967 3.91965,26.0804 z"
       id="path21562"
       sodipodi:nodetypes="cccc" />
    <path
       sodipodi:nodetypes="cccc"
       id="path21564"
       d="m 41.4172,318.6427 -10,-20 c 0.9943,6.13 4.7788,14.3527 -5.1384,12.2991 4.8222,0.9997 8.9975,-2.5292 15.1384,7.7009 z"
       style="fill:#ffff00;fill-opacity:1;fill-rule:evenodd;stroke:#000000;stroke-width:3.35502696;stroke-linecap:butt;stroke-linejoin:miter;stroke-miterlimit:4;stroke-opacity:1;stroke-dasharray:none"
       inkscape:connector-curvature="0" />
  </g>
</svg>
