<?xml version="1.0" encoding="UTF-8" standalone="no"?>
<!-- Created with Inkscape (http://www.inkscape.org/) -->
<svg xmlns:dc="http://purl.org/dc/elements/1.1/" xmlns:cc="http://creativecommons.org/ns#" xmlns:rdf="http://www.w3.org/1999/02/22-rdf-syntax-ns#" xmlns:svg="http://www.w3.org/2000/svg" xmlns="http://www.w3.org/2000/svg" version="1.1" width="533.9729" height="491.79709" id="svg3054">
  <defs id="defs3056"/>
  <metadata id="metadata3059">
    <rdf:RDF>
      <cc:Work rdf:about="">
        <dc:format>image/svg+xml</dc:format>
        <dc:type rdf:resource="http://purl.org/dc/dcmitype/StillImage"/>
        <dc:title/>
        <dc:creator>
          <cc:Agent>
            <dc:title>squirrel drawn by Glesker and Manassas </dc:title>
          </cc:Agent>
        </dc:creator>
      </cc:Work>
    </rdf:RDF>
  </metadata>
  <g id="layer1">
    <g id="body">
      <g id="g8085" style="fill:#ffff00;fill-opacity:1;stroke:#000000;stroke-width:5.28696585;stroke-miterlimit:4;stroke-opacity:1;stroke-dasharray:none;display:inline">
        <g id="g2784" style="fill:#ffff00;fill-opacity:1;stroke:#000000;stroke-width:4.83525705;stroke-miterlimit:4;stroke-opacity:1;stroke-dasharray:none">
          <path d="m157.4,76.37   c4.94,5.197 5.556,11.13 8.58,26.49   C164.3,109.2 164.8,114.5 164.8,114.5   c3.094,-2.218 3.112,-4.794 3.112,-4.794 0,0 1.358,6.703 1.786,8.145 2.009,0.88 2.782,-0.7624 2.782,-0.7624 3.635,0.667 3.468,-1.01 3.468,-1.01 2.372,-0.3074 2.377,-1.667 2.377,-1.667 2.499,-0.4278 2.16,-1.685 2.16,-1.685 0,0 -3.221,-5.49 -5.852,-12.77 -0.5009,-19.53 0.953,-37.55 0.5352,-40.54 -4.373,-2.884 -12.2,-4.081 -12.2,-4.081   " id="path1890" style="fill:#ffff00;fill-opacity:1;fill-rule:evenodd;stroke:#000000;stroke-width:4.83525705;stroke-linecap:butt;stroke-linejoin:miter;stroke-miterlimit:4;stroke-opacity:1;stroke-dasharray:none"/>
          <path d="m172.5,117.1 -0.8312,-3.252   " id="path2778" style="fill:#ffff00;fill-opacity:1;fill-rule:evenodd;stroke:#000000;stroke-width:4.83525705;stroke-linecap:butt;stroke-linejoin:miter;stroke-miterlimit:4;stroke-opacity:1;stroke-dasharray:none"/>
          <path d="M175.9,116 174.5,112.9   " id="path2780" style="fill:#ffff00;fill-opacity:1;fill-rule:evenodd;stroke:#000000;stroke-width:4.83525705;stroke-linecap:butt;stroke-linejoin:miter;stroke-miterlimit:4;stroke-opacity:1;stroke-dasharray:none"/>
          <path d="m178.2,114.2 -1.186,-2.374   " id="path2782" style="fill:#ffff00;fill-opacity:1;fill-rule:evenodd;stroke:#000000;stroke-width:4.83525705;stroke-linecap:butt;stroke-linejoin:miter;stroke-miterlimit:4;stroke-opacity:1;stroke-dasharray:none"/>
        </g>
        <path d="m219.2,48.07   c-4.748,9.418 15.24,26.92 30.96,32.76 17.86,1.14 34.3,-15.86 47.88,-5.16 3.92,8.988 -2.168,39.25 1.116,42.02 0,0 1.945,-11.83 3.381,-12.99 1.436,-1.164 0.8029,9.233 2.363,8.334 1.56,-0.8982 2.212,-10.03 3.876,-11.93 1.664,-1.898 2.003,5.972 2.781,4.335 0.7779,-1.637 -0.8029,-9.233 0.3302,-10.88 1.133,-1.65 5.444,11.05 3.985,1.529 -1.336,-8.714 -1.596,-14.78 -15.71,-34.31 -9.282,-2.83 -25.52,-11.99 -25.52,-11.99   l-14.3,-14.03   " id="path6177" style="fill:#ffff00;fill-opacity:1;fill-rule:evenodd;stroke:#000000;stroke-width:5.28696585;stroke-linecap:butt;stroke-linejoin:miter;stroke-miterlimit:4;stroke-opacity:1;stroke-dasharray:none"/>
        <path d="m95.25,31.27   c-0.03798,-0.05698 -3.427,-1.38 -6.503,-0.9039 0.9278,6.312 4.699,11.44 7.045,13.85   l0.1609,0.1824 3.098,0.185 3.064,-10.67 -6.865,-2.638   z " id="path1892" style="fill:#ffff00;fill-opacity:1;fill-rule:evenodd;stroke:#000000;stroke-width:5.28696585;stroke-linecap:butt;stroke-linejoin:miter;stroke-miterlimit:4;stroke-opacity:1;stroke-dasharray:none;display:inline"/>
        <path d="m272.3,24.67 -3.154,-5.741   c-1.997,2.516 -3.6,10.3 -4.119,13.4 3.532,17.11 8.082,31.32 18.03,47.17 8.735,11.65 23.84,19.59 60.05,14.13 14.84,-3.643 26.02,-1.618 33.41,6.256 -7.795,0.4805 -15.07,1.756 -21.35,4.564 6.154,1.003 9.124,2.846 11.04,4.961 -4.141,0.5503 -8.114,0.2597 -12.64,2.629 -4.038,6.708 -4.2,13.71 -4.251,20.24 9.179,1.755 30.71,7.786 60.11,-5.868 0.05917,3.283 -1.575,6.222 -3.415,9.106 7.388,0.3457 37.21,-14.38 42.92,-35.51 1.135,-7.883 -0.4352,-14.96 -11.04,-19.31 2.799,-0.9667 7.392,0.8193 11.64,2.064   C439.9,30.87 382.1,32.47 365.7,46.97 350.1,63.57 300,65.97 270.7,30.07   l1.529,-5.464   z " id="path1951" style="fill:#ffff00;fill-opacity:1;fill-rule:evenodd;stroke:#000000;stroke-width:5.28696585;stroke-linecap:butt;stroke-linejoin:miter;stroke-miterlimit:4;stroke-opacity:1;stroke-dasharray:none"/>
        <path d="m309.5,18.27   c-3.56,-1.168 -32.43,11.3 -32.38,11.35 -4.857,-7.736 -4.052,-12.85 -32.63,-23.84 -28.53,-8.593 -37,-3.301 -49.39,2.575 -7.777,3.23 -15.38,6.55 -28.32,7.089 -14.67,2.639 -17.87,6.118 -24.12,9.615 -9.512,6.552 -13.06,23.5 -28.42,9.777 -6.972,-7.526 -14.46,-10.68 -20.46,-11.73 -0.4654,3.947 1.518,14.4 8.016,17.43 -3.185,-1.429 -3.811,-3.431 -4.951,-4.771 -9.208,50.41 10.52,46.08 11.21,59.08 0.2256,3.367 5.666,4.661 8.124,1.405 4.736,-2.264 4.697,-2.094 6.544,-7.521 1.048,5.509 6.497,-6.298 8.462,-8.765 10.12,-11.86 18.31,-15.46 21.22,-12.5 2.39,2.437 -1.659,11.76 -13.88,25.76 -3.177,2.079 -6.292,4.201 -8.624,6.809 2.437,1.105 3.305,-0.238 4.902,-0.4427   l-4.329,6.458   c0.9184,1.769 1.663,1.362 2.464,1.669 0.5991,0.9081 1.377,1.671 3.012,1.762 1.202,1.143 2.008,0.971 2.779,0.7012 0.994,0.4659 1.966,0.6852 2.835,-0.0452 1.299,-2.667 2.637,-8.45 5.98,-12.99 16.06,-16.24 29.07,-24.8 29.76,-26.84 -0.01365,-2.778 -2.888,-7.366 -5.242,-11.77   l4.246,7.753   c17.77,-6.31 47.6,-15.56 59.71,-12.01 12.11,3.548 25.4,8.509 34.13,8.721 9.424,0.2286 24.81,-20.38 29.48,-25.9 18.99,-22.43 22.75,22.84 31.35,32.01 1.738,1.854 -3.196,-11.2 -1.795,-12.74 0.7003,-0.769 4.666,7.511 5.164,6.401 0.4977,-1.11 -1.827,-10.34 -1.497,-11.64 0.3305,-1.295 4.574,3.431 4.773,2.107 0.1987,-1.324 -4.659,-7.927 -4.557,-9.124 0.2044,-2.393 5.837,2.919 5.551,2.016 -3.596,-11.36 -22.92,-25.83 -29.13,-27.87   z " id="path1883" style="fill:#ffff00;fill-opacity:1;fill-rule:evenodd;stroke:#000000;stroke-width:5.28696585;stroke-linecap:butt;stroke-linejoin:miter;stroke-miterlimit:4;stroke-opacity:1;stroke-dasharray:none"/>
        <path d="m133,107.7 1.919,-3.151   " id="path1894" style="fill:#ffff00;fill-opacity:1;fill-rule:evenodd;stroke:#000000;stroke-width:5.28696585;stroke-linecap:butt;stroke-linejoin:miter;stroke-miterlimit:4;stroke-opacity:1;stroke-dasharray:none"/>
        <path d="m136,109.4 1.555,-3.51   " id="path1896" style="fill:#ffff00;fill-opacity:1;fill-rule:evenodd;stroke:#000000;stroke-width:5.28696585;stroke-linecap:butt;stroke-linejoin:miter;stroke-miterlimit:4;stroke-opacity:1;stroke-dasharray:none"/>
        <path d="m108.7,69.77   c2.095,0.6821 3.219,3.004 2.509,5.183 -0.7095,2.179 -2.985,3.393 -5.08,2.711 -2.095,-0.6821 -3.219,-3.004 -2.509,-5.183 0.7095,-2.179 2.985,-3.393 5.08,-2.711   z " id="path1908" style="fill:#ffff00;fill-opacity:1;fill-rule:evenodd;stroke:#000000;stroke-width:5.28696585;stroke-linecap:round;stroke-linejoin:round;stroke-miterlimit:4;stroke-opacity:1;stroke-dasharray:none;display:inline"/>
        <path d="m138.6,110.1 1.336,-3.06   " id="path13641" style="fill:#ffff00;fill-opacity:1;fill-rule:evenodd;stroke:#000000;stroke-width:5.28696585;stroke-linecap:butt;stroke-linejoin:miter;stroke-miterlimit:4;stroke-opacity:1;stroke-dasharray:none"/>
      </g>
      <g id="g3095" style="fill:#ffff00;fill-opacity:1;stroke:#000000;stroke-width:5.28696585;stroke-miterlimit:4;stroke-opacity:1;stroke-dasharray:none;display:inline">
        <g id="g3097" style="fill:#ffff00;fill-opacity:1;stroke:#000000;stroke-width:4.83525705;stroke-miterlimit:4;stroke-opacity:1;stroke-dasharray:none">
          <path d="m175.7,390.4   c1.568,-6.997 6.156,-10.81 17.23,-21.87   C199.1,366.3 203.2,363 203.2,363   c-3.565,-1.335 -5.715,0.08333 -5.715,0.08333 0,0 4.812,-4.859 5.772,-6.018 -0.3873,-2.159 -2.182,-1.887 -2.182,-1.887 -1.469,-3.391 -2.769,-2.319 -2.769,-2.319 -1.576,-1.799 -2.708,-1.047 -2.708,-1.047 -1.746,-1.837 -2.602,-0.856 -2.602,-0.856 0,0 -2.768,5.732 -7.354,11.97 -15.95,11.29 -31.72,20.11 -33.97,22.12 0.03865,5.239 3.403,12.41 3.403,12.41   " id="path3099" style="fill:#ffff00;fill-opacity:1;fill-rule:evenodd;stroke:#000000;stroke-width:4.83525705;stroke-linecap:butt;stroke-linejoin:miter;stroke-miterlimit:4;stroke-opacity:1;stroke-dasharray:none"/>
          <path d="m201.1,355.1 -2.239,2.501   " id="path3101" style="fill:#ffff00;fill-opacity:1;fill-rule:evenodd;stroke:#000000;stroke-width:4.83525705;stroke-linecap:butt;stroke-linejoin:miter;stroke-miterlimit:4;stroke-opacity:1;stroke-dasharray:none"/>
          <path d="M198.3,352.9 196.5,355.7   " id="path3103" style="fill:#ffff00;fill-opacity:1;fill-rule:evenodd;stroke:#000000;stroke-width:4.83525705;stroke-linecap:butt;stroke-linejoin:miter;stroke-miterlimit:4;stroke-opacity:1;stroke-dasharray:none"/>
          <path d="m195.5,352 -1.312,2.307   " id="path3105" style="fill:#ffff00;fill-opacity:1;fill-rule:evenodd;stroke:#000000;stroke-width:4.83525705;stroke-linecap:butt;stroke-linejoin:miter;stroke-miterlimit:4;stroke-opacity:1;stroke-dasharray:none"/>
        </g>
        <path d="m117.8,354.7   c10.47,-1.298 13.88,-27.65 9.975,-43.96 -8.997,-15.47 -32.27,-19.67 -30.94,-36.9 5.284,-8.26 33.81,-20.05 34.29,-24.32 0,0 -10.91,4.967 -12.67,4.422 -1.766,-0.545 7.223,-5.806 5.608,-6.602 -1.614,-0.7958 -9.563,3.745 -12.07,3.419 -2.503,-0.3261 3.846,-4.989 2.053,-4.723 -1.793,0.2651 -7.223,5.806 -9.225,5.784 -2.002,-0.02251 6.146,-10.67 -0.9479,-4.161 -6.495,5.961 -11.39,9.554 -19.76,32.15 2.816,9.286 4.24,27.88 4.24,27.88   l-3.696,19.69   " id="path3107" style="fill:#ffff00;fill-opacity:1;fill-rule:evenodd;stroke:#000000;stroke-width:5.28696585;stroke-linecap:butt;stroke-linejoin:miter;stroke-miterlimit:4;stroke-opacity:1;stroke-dasharray:none"/>
        <path d="m172.8,467.1   c-0.0262,0.06327 0.7615,3.615 2.869,5.905 4.727,-4.284 6.887,-10.27 7.583,-13.56   l0.06196,-0.2352 -1.571,-2.677 -10.57,3.397 1.63,7.172   z " id="path3109" style="fill:#ffff00;fill-opacity:1;fill-rule:evenodd;stroke:#000000;stroke-width:5.28696585;stroke-linecap:butt;stroke-linejoin:miter;stroke-miterlimit:4;stroke-opacity:1;stroke-dasharray:none;display:inline"/>
        <path d="m68.75,323.7 -3.014,5.816   c3.202,0.2585 10.56,-2.745 13.43,-4.038 12.25,-12.46 21.52,-24.15 29.15,-41.24 4.818,-13.74 3.002,-30.71 -21.69,-57.75 -11.29,-10.3 -15.83,-20.71 -13.4,-31.23 4.738,6.208 9.849,11.54 15.68,15.19 -2.592,-5.671 -2.714,-9.164 -2.026,-11.94 2.762,3.134 4.733,6.596 9.219,9.035 7.82,-0.3802 13.72,-4.14 19.18,-7.736 -3.651,-8.603 -10.62,-29.84 -38.33,-46.67 2.694,-1.877 6.046,-2.155 9.466,-2.232 -3.825,-6.33 -32.66,-22.91 -53.39,-15.89 -7.18,3.445 -12.18,8.687 -9.895,19.91 -2.361,-1.787 -3.434,-6.597 -4.762,-10.81   C-19.42,181 14.15,228.1 35.35,233.6 57.75,237.3 87.65,277.6 74.15,321.9   l-5.391,1.772   z " id="path3111" style="fill:#ffff00;fill-opacity:1;fill-rule:evenodd;stroke:#000000;stroke-width:5.28696585;stroke-linecap:butt;stroke-linejoin:miter;stroke-miterlimit:4;stroke-opacity:1;stroke-dasharray:none"/>
        <path d="m42.75,296.3   c1.012,3.607 27.44,20.65 27.45,20.58 -3.723,8.341 -8.419,10.52 -1.647,40.38 8.744,28.49 17.85,32.57 29.63,39.59 7.012,4.663 14,9.128 21.66,19.58 10.36,10.72 15.03,11.44 21.41,14.68 10.74,4.255 26.79,-2.237 23.94,18.17 -2.371,9.982 -0.8204,17.96 1.649,23.53 3.538,-1.811 11.12,-9.278 10.02,-16.36 0.5861,3.441 -0.729,5.076 -1.207,6.769 47,-20.41 32.42,-34.39 42.84,-42.2 2.672,-2.062 0.7183,-7.302 -3.355,-7.531 -4.517,-2.674 -4.354,-2.737 -9.891,-1.25 3.993,-3.937 -8.849,-1.891 -11.99,-2.15 -15.49,-1.804 -23.03,-6.61 -22.19,-10.67 0.6937,-3.342 10.7,-5.17 29.13,-2.812 3.495,1.482 6.992,2.889 10.46,3.373 -0.4389,-2.64 -2.037,-2.613 -3.097,-3.826   l7.775,0.00144   c0.9584,-1.748 0.2055,-2.139 0.01485,-2.976 0.4209,-1.003 0.6215,-2.074 -0.2123,-3.483 0.2801,-1.635 -0.3109,-2.208 -0.9647,-2.699 -0.1663,-1.085 -0.525,-2.014 -1.616,-2.33 -2.939,0.4061 -8.488,2.513 -14.12,2.263 -22.43,-4.3 -36.78,-10.35 -38.87,-9.781 -2.3,1.558 -4.512,6.499 -6.857,10.9   l4.077,-7.843   c-15.13,-11.25 -39.42,-30.88 -43.22,-42.92 -3.795,-12.04 -7.069,-25.83 -11.76,-33.21 -5.056,-7.956 -30.74,-9.263 -37.93,-10.07 -29.21,-3.292 6.309,-31.62 9.14,-43.86 0.5725,-2.475 -7.525,8.889 -9.582,8.581 -1.029,-0.1537 3.642,-8.058 2.443,-7.853 -1.199,0.2045 -7.576,7.276 -8.835,7.722 -1.26,0.4464 0.3043,-5.71 -0.906,-5.138 -1.21,0.5719 -3.992,8.283 -5.043,8.864 -2.102,1.162 -0.8245,-6.474 -1.415,-5.734 -7.432,9.308 -8.698,33.41 -6.932,39.71   z " id="path3113" style="fill:#ffff00;fill-opacity:1;fill-rule:evenodd;stroke:#000000;stroke-width:5.28696585;stroke-linecap:butt;stroke-linejoin:miter;stroke-miterlimit:4;stroke-opacity:1;stroke-dasharray:none"/>
        <path d="m215.3,393.2 -3.686,0.1602   " id="path3115" style="fill:#ffff00;fill-opacity:1;fill-rule:evenodd;stroke:#000000;stroke-width:5.28696585;stroke-linecap:butt;stroke-linejoin:miter;stroke-miterlimit:4;stroke-opacity:1;stroke-dasharray:none"/>
        <path d="m215.1,389.7 -3.782,0.6622   " id="path3117" style="fill:#ffff00;fill-opacity:1;fill-rule:evenodd;stroke:#000000;stroke-width:5.28696585;stroke-linecap:butt;stroke-linejoin:miter;stroke-miterlimit:4;stroke-opacity:1;stroke-dasharray:none"/>
        <path d="m197.4,434.4   c-0.5994,-2.12 0.7036,-4.346 2.908,-4.97 2.205,-0.6234 4.481,0.5911 5.08,2.711 0.5994,2.12 -0.7036,4.346 -2.908,4.97 -2.205,0.6234 -4.481,-0.5911 -5.08,-2.711   z " id="path3119" style="fill:#ffff00;fill-opacity:1;fill-rule:evenodd;stroke:#000000;stroke-width:5.28696585;stroke-linecap:round;stroke-linejoin:round;stroke-miterlimit:4;stroke-opacity:1;stroke-dasharray:none;display:inline"/>
        <path d="m214.2,387.2 -3.286,0.5934   " id="path3121" style="fill:#ffff00;fill-opacity:1;fill-rule:evenodd;stroke:#000000;stroke-width:5.28696585;stroke-linecap:butt;stroke-linejoin:miter;stroke-miterlimit:4;stroke-opacity:1;stroke-dasharray:none"/>
      </g>
      <g id="g3123" style="fill:#ffff00;fill-opacity:1;stroke:#000000;stroke-width:5.28696585;stroke-miterlimit:4;stroke-opacity:1;stroke-dasharray:none;display:inline">
        <g id="g3125" style="fill:#ffff00;fill-opacity:1;stroke:#000000;stroke-width:4.83525705;stroke-miterlimit:4;stroke-opacity:1;stroke-dasharray:none">
          <path d="m458,225.3   c-6.774,2.351 -12.43,0.46 -27.67,-3.131   C425.2,218 420.2,216.3 420.2,216.3   c0.742,3.734 3.08,4.814 3.08,4.814 0,0 -6.665,-1.532 -8.156,-1.739 -1.631,1.466 -0.455,2.848 -0.455,2.848 -2.109,3.034 -0.5131,3.575 -0.5131,3.575 -0.6999,2.287 0.5355,2.854 0.5355,2.854 -0.6427,2.452 0.6423,2.663 0.6423,2.663 0,0 6.331,-0.6648 14.05,-0.05125 18,7.615 33.8,16.38 36.69,17.24 4.433,-2.791 8.758,-9.427 8.758,-9.427   " id="path3127" style="fill:#ffff00;fill-opacity:1;fill-rule:evenodd;stroke:#000000;stroke-width:4.83525705;stroke-linecap:butt;stroke-linejoin:miter;stroke-miterlimit:4;stroke-opacity:1;stroke-dasharray:none"/>
          <path d="m414.6,222.2 3.305,0.5867   " id="path3129" style="fill:#ffff00;fill-opacity:1;fill-rule:evenodd;stroke:#000000;stroke-width:4.83525705;stroke-linecap:butt;stroke-linejoin:miter;stroke-miterlimit:4;stroke-opacity:1;stroke-dasharray:none"/>
          <path d="M414.2,225.8 417.6,225.8   " id="path3131" style="fill:#ffff00;fill-opacity:1;fill-rule:evenodd;stroke:#000000;stroke-width:4.83525705;stroke-linecap:butt;stroke-linejoin:miter;stroke-miterlimit:4;stroke-opacity:1;stroke-dasharray:none"/>
          <path d="m414.9,228.6 2.652,-0.09881   " id="path3133" style="fill:#ffff00;fill-opacity:1;fill-rule:evenodd;stroke:#000000;stroke-width:4.83525705;stroke-linecap:butt;stroke-linejoin:miter;stroke-miterlimit:4;stroke-opacity:1;stroke-dasharray:none"/>
        </g>
        <path d="m458.2,293.3   c-6.615,-8.215 -30.81,2.757 -42.62,14.66 -8.419,15.8 0.2696,37.79 -15.08,45.73 -9.805,-0.1435 -34.85,-18.19 -38.73,-16.35 0,0 9.966,6.657 10.43,8.446 0.4666,1.789 -8.739,-3.083 -8.566,-1.292 0.1735,1.792 8.219,6.158 9.26,8.458 1.041,2.3 -6.266,-0.6428 -5.096,0.7419 1.169,1.385 8.739,3.083 9.774,4.797 1.035,1.714 -12.31,0.3941 -3.039,2.997 8.488,2.383 14.12,4.653 37.73,-0.1296 6.412,-7.284 21.47,-18.28 21.47,-18.28   l18.69,-7.227   " id="path3135" style="fill:#ffff00;fill-opacity:1;fill-rule:evenodd;stroke:#000000;stroke-width:5.28696585;stroke-linecap:butt;stroke-linejoin:miter;stroke-miterlimit:4;stroke-opacity:1;stroke-dasharray:none"/>
        <path d="m524.7,187.3   c0.06758,-0.01104 2.672,-2.551 3.51,-5.548 -6.131,-1.763 -12.36,-0.4464 -15.52,0.6938   l-0.2326,0.07116 -1.448,2.745 8.455,7.201 5.239,-5.162   z " id="path3137" style="fill:#ffff00;fill-opacity:1;fill-rule:evenodd;stroke:#000000;stroke-width:5.28696585;stroke-linecap:butt;stroke-linejoin:miter;stroke-miterlimit:4;stroke-opacity:1;stroke-dasharray:none;display:inline"/>
        <path d="m457.6,351.3 6.531,-0.5001   c-1.466,-2.858 -7.895,-7.536 -10.5,-9.287 -17.04,-3.854 -31.86,-5.58 -50.41,-3.073 -14.22,3.141 -27.69,13.62 -37.68,48.85 -2.814,15.02 -9.275,24.36 -19.5,27.84 2.783,-7.297 4.628,-14.45 4.664,-21.33 -3.456,5.189 -6.362,7.133 -9.08,8.007 1.21,-3.998 3.116,-7.497 2.827,-12.59 -4.441,-6.448 -10.75,-9.488 -16.68,-12.23 -5.391,7.634 -19.78,24.75 -19.49,57.16 -3.014,-1.302 -5.015,-4.005 -6.882,-6.872 -3.367,6.585 -2.283,39.83 14.61,53.76 6.71,4.29 13.8,5.783 22.14,-2.073 -0.2762,2.949 -3.8,6.393 -6.687,9.743   C382.7,501.3 405.1,448 398.6,427.1 390,406.1 408.5,359.4 453.3,347.6   l4.345,3.65   z " id="path3139" style="fill:#ffff00;fill-opacity:1;fill-rule:evenodd;stroke:#000000;stroke-width:5.28696585;stroke-linecap:butt;stroke-linejoin:miter;stroke-miterlimit:4;stroke-opacity:1;stroke-dasharray:none"/>
        <path d="m448.1,387.8   c2.534,-2.759 3.107,-34.21 3.036,-34.17 9.051,-1.227 13.38,1.618 35.19,-19.86 19.61,-22.43 18.29,-32.33 18.06,-46.04 0.2722,-8.417 0.3881,-16.71 5.246,-28.72 3.659,-14.45 1.811,-18.8 1.208,-25.93 -2.037,-11.37 -16.01,-21.6 2.837,-29.92 9.734,-3.24 15.7,-8.758 19.13,-13.79 -3.402,-2.055 -13.74,-4.567 -19.18,0.09875 2.617,-2.31 4.699,-2.053 6.39,-2.538 -42.1,-29.21 -46.31,-9.46 -58.43,-14.2 -3.159,-1.186 -6.586,3.234 -4.636,6.817 0.1046,5.248 -0.03399,5.142 4.145,9.067 -5.449,-1.322 3.051,8.518 4.486,11.33 6.621,14.12 6.509,23.06 2.615,24.48 -3.206,1.17 -10.03,-6.371 -17.73,-23.28 -0.5809,-3.752 -1.226,-7.466 -2.638,-10.67 -2.013,1.763 -1.149,3.108 -1.622,4.647   l-4.092,-6.61   c-1.99,0.1054 -1.927,0.9518 -2.538,1.554 -1.075,0.1704 -2.091,0.5638 -2.849,2.014 -1.538,0.6228 -1.714,1.427 -1.787,2.241 -0.8349,0.7127 -1.436,1.507 -1.13,2.601 1.893,2.285 6.605,5.893 9.358,10.81 8.153,21.33 10.57,36.72 12.15,38.19 2.535,1.135 7.901,0.4136 12.88,0.0876   l-8.815,0.6631   c-1.596,18.79 -5.497,49.78 -13.73,59.34 -8.235,9.564 -18.24,19.61 -22.04,27.48 -4.102,8.488 8.313,31.01 11.41,37.55 12.58,26.56 -30.2,11.28 -42.1,15.32 -2.406,0.8167 11.52,1.717 12.34,3.628 0.4109,0.9554 -8.768,1.146 -7.963,2.058 0.8053,0.9119 10.17,2.609 11.22,3.445 1.043,0.836 -5.014,2.748 -3.891,3.476 1.123,0.7279 9.144,-0.9679 10.19,-0.3805 2.095,1.175 -5.07,4.11 -4.13,4.222 11.83,1.417 32.99,-10.2 37.41,-15.02   z " id="path3141" style="fill:#ffff00;fill-opacity:1;fill-rule:evenodd;stroke:#000000;stroke-width:5.28696585;stroke-linecap:butt;stroke-linejoin:miter;stroke-miterlimit:4;stroke-opacity:1;stroke-dasharray:none"/>
        <path d="m439.6,190.1 2.077,3.049   " id="path3143" style="fill:#ffff00;fill-opacity:1;fill-rule:evenodd;stroke:#000000;stroke-width:5.28696585;stroke-linecap:butt;stroke-linejoin:miter;stroke-miterlimit:4;stroke-opacity:1;stroke-dasharray:none"/>
        <path d="m436.7,192.1 2.554,2.866   " id="path3145" style="fill:#ffff00;fill-opacity:1;fill-rule:evenodd;stroke:#000000;stroke-width:5.28696585;stroke-linecap:butt;stroke-linejoin:miter;stroke-miterlimit:4;stroke-opacity:1;stroke-dasharray:none"/>
        <path d="m484,183.6   c-1.487,1.626 -4.065,1.69 -5.756,0.144 -1.691,-1.546 -1.857,-4.12 -0.37,-5.746 1.487,-1.626 4.065,-1.69 5.756,-0.144 1.691,1.546 1.857,4.12 0.37,5.746   z " id="path3147" style="fill:#ffff00;fill-opacity:1;fill-rule:evenodd;stroke:#000000;stroke-width:5.28696585;stroke-linecap:round;stroke-linejoin:round;stroke-miterlimit:4;stroke-opacity:1;stroke-dasharray:none;display:inline"/>
        <path d="m435,194.2 2.235,2.481   " id="path3149" style="fill:#ffff00;fill-opacity:1;fill-rule:evenodd;stroke:#000000;stroke-width:5.28696585;stroke-linecap:butt;stroke-linejoin:miter;stroke-miterlimit:4;stroke-opacity:1;stroke-dasharray:none"/>
      </g>
    </g>
  </g>
</svg>
