<?xml version="1.0" encoding="UTF-8" standalone="no"?>
<svg
   xmlns:dc="http://purl.org/dc/elements/1.1/"
   xmlns:cc="http://creativecommons.org/ns#"
   xmlns:rdf="http://www.w3.org/1999/02/22-rdf-syntax-ns#"
   xmlns:svg="http://www.w3.org/2000/svg"
   xmlns="http://www.w3.org/2000/svg"
   viewBox="0 0 238.81583 422.98438"
   height="422.98438"
   width="238.81583"
   id="svg815"
   version="1.1">
  <metadata
     id="metadata821">
    <rdf:RDF>
      <cc:Work
         rdf:about="">
        <dc:format>image/svg+xml</dc:format>
        <dc:type
           rdf:resource="http://purl.org/dc/dcmitype/StillImage" />
        <dc:title></dc:title>
        <dc:creator>
          <cc:Agent>
            <dc:title> &quot;The Heraldry Discord Server&quot; https://discord.gg/AgSyb8T</dc:title>
          </cc:Agent>
        </dc:creator>
      </cc:Work>
    </rdf:RDF>
  </metadata>

  <g
     id="g916">
    <g
       style="fill:#ffff00;stroke:#808080"
       id="g873"
       transform="translate(-47.129349,-89.99467)">
      <path
         id="path855"
         d="m 136.4573,337.65161 c 0,0 -61.528463,-14.91027 -26.04579,60.58478 0,0 -54.922649,-9.05941 -59.641089,6.41708 l -2.725666,4.3593 5.872137,-0.13345 c 0,0 -2.261187,2.7939 1.299459,4.84964 3.560645,2.05574 4.973051,1.15595 4.973051,1.15595 l 1.468034,3.33644 c 0,0 45.775974,3.33644 53.916894,12.81194 l 19.88519,-14.94726 20.81523,-59.7494 -19.81745,-18.68502"
         style="fill:#ffff00;fill-opacity:1;stroke:#808080;stroke-width:1px;stroke-linecap:butt;stroke-linejoin:miter;stroke-opacity:1" />
      <path
         id="path867"
         d="m 61.657436,418.22135 c 0,0 -2.135323,-3.53663 -1.201119,-5.73868 0.934203,-2.20205 -3.202984,-0.40037 -3.202984,-0.40037 0,0 6.139052,-17.28277 26.357887,-7.60709"
         style="fill:#ffff00;stroke:#808080;stroke-width:1px;stroke-linecap:butt;stroke-linejoin:miter;stroke-opacity:1" />
    </g>
    <path
       id="path853"
       d="m 109.46871,121.22735 c 0,0 -30.828717,-2.80261 -30.428337,-9.34203 0.40037,-6.53943 -0.53383,-8.27438 -0.53383,-8.27438 0,0 8.27437,-16.014905 -1.86841,-19.751725 -10.14278,-3.73682 -11.07699,-2.00186 -11.07699,-2.00186 l 4.27065,3.73681 c 0,0 -4.27065,7.20671 0.66729,10.00932 4.93793,2.80261 -2.00187,0.13346 -2.00187,0.13346 0,0 -9.60895,-13.34577 -13.87959,-10.94353 -4.270651,2.40224 -6.539426,6.00559 -6.539426,6.00559 l 4.270645,-1.33457 c 0,0 -2.268782,8.14092 4.937931,7.874 7.20671,-0.26692 -1.33458,3.736805 -1.33458,3.736805 0,0 -13.746137,-3.069515 -15.214171,3.20299 -1.468033,6.27251 -1.067657,11.74427 -1.067657,11.74427 l 3.736813,-5.07139 c 0,0 7.340171,1.73495 9.742409,-1.46803 2.402236,-3.20299 -1.868409,6.67289 -1.868409,6.67289 0,0 40.971495,27.89264 35.633185,40.97149"
       style="fill:#ffff00;stroke:#808080;stroke-width:1px;stroke-linecap:butt;stroke-linejoin:miter;stroke-opacity:1" />
    <path
       style="fill:#ffff00;fill-opacity:1;stroke:#808080;stroke-width:1px;stroke-linecap:butt;stroke-linejoin:miter;stroke-opacity:1"
       d="m 92.781661,297.4876 c 0,0 -14.06096,-3.49165 -12.17358,-11.41863 1.88738,-7.92698 8.96504,-8.02135 8.96504,-8.02135 0,0 -2.0437,-11.47837 -4.5794,-14.94827 -2.53569,-3.4699 1.86841,-5.73868 1.86841,-5.73868 0,0 3.20298,-1.06766 6.9398,5.60522 3.73681,6.67288 9.608949,25.09004 9.608949,25.09004 l -10.409699,10.27624 z"
       id="pizzled" />
    <g
       style="fill:#ffff00"
       id="g878"
       transform="translate(-47.129349,-89.99467)">
      <path
         id="path825"
         d="m 168.69047,512.309 33.0975,-37.36815 -7.01074,-15.93095 6.60581,-6.98329 c 0,0 102.89485,14.18699 81.0078,-89.90998 0,0 -69.11733,-70.70574 -26.46262,-97.12901 l 18.30755,-32.84034 -6.98329,-4.71844 4.34096,-6.9833 c 0,0 -11.70173,-1.88737 -13.96658,-0.18873 -2.26485,1.69864 0.94368,-3.01981 0.94368,-3.01981 0,0 -9.43688,2.07612 -9.81435,4.90718 -0.37748,2.83107 -2.26485,-3.58601 -2.26485,-3.58601 l -10.19183,5.85086 -0.75496,-4.5297 c 0,0 -61.45414,63.98294 -11.33569,108.79194 47.24726,42.24198 73.26432,85.82831 -6.27644,89.03129 0,0 4.77798,-39.47236 -13.90705,-46.83313 -18.68502,-7.36077 -9.1772,-98.25038 1.49942,-114.79913 10.67661,-16.54875 3.60335,-27.22536 3.60335,-27.22536 0,0 32.45602,-72.57019 -20.39052,-124.66177 0,0 -50.74241,-41.092635 -93.18194,19.09677 v 0 c 0,0 -13.07885,8.94166 -13.746138,12.01119 -0.667288,3.06952 6.139052,7.20671 6.139052,7.20671 l 5.872137,5.87214 h 6.672879 l 3.4699,2.13532 0.26692,-2.80261 c 0,0 10.40969,-2.26878 12.2781,-0.66729 1.86841,1.60149 -6.80634,4.80447 -6.80634,4.80447 l -1.73495,-1.73495 -0.53383,2.66916 -6.00559,2.53569 c 0,0 3.5103,7.00459 20.11921,0.68188 0,0 25.29084,-23.87531 28.49938,3.3029 3.20854,27.17822 -3.58601,43.78713 -16.79765,55.86634 -13.21163,12.07921 -16.87369,71.87159 -16.87369,71.87159 0,0 -0.80074,24.82312 15.21418,48.8455 16.01492,24.02238 7.22727,39.61552 7.22727,39.61552 0,0 -51.619738,38.97432 25.38521,92.57581 0,0 -7.38899,25.2887 -33.14631,21.95226 l -8.00746,9.47549 3.20298,1.73495 -0.80075,4.80448 c 0,0 6.018,7.66876 43.24028,6.27251"
         style="fill:#ffff00;stroke:#808080;stroke-width:1px;stroke-linecap:butt;stroke-linejoin:miter;stroke-opacity:1" />
      <path
         id="path863"
         d="m 146.46039,511.47896 c 0,0 -3.39727,-14.15532 4.34097,-11.51299"
         style="fill:#ffff00;stroke:#808080;stroke-width:1px;stroke-linecap:butt;stroke-linejoin:miter;stroke-opacity:1" />
      <path
         id="path865"
         d="m 130.98391,509.02537 c 0,0 0.94369,-16.42017 13.21163,-11.51299"
         style="fill:#ffff00;stroke:#808080;stroke-width:1px;stroke-linecap:butt;stroke-linejoin:miter;stroke-opacity:1" />
    </g>
    <path
       style="opacity:1;vector-effect:none;fill:#666666;fill-opacity:1;stroke:#808080;stroke-width:1.88976;stroke-miterlimit:4;stroke-dasharray:none;stroke-opacity:1"
       d="m 178.7081,197.61904 -3.14906,-3.14906 -3.11985,3.11275 c -1.98742,1.98289 -3.16942,3.03293 -3.25644,2.89286 -0.0751,-0.12093 -1.19825,-2.04959 -2.49582,-4.28591 -1.29757,-2.23631 -2.40809,-4.06957 -2.46782,-4.0739 -0.0597,-0.004 -0.54942,0.53545 -1.0882,1.19951 l -0.9796,1.20738 -1.17095,-1.25456 c -0.64402,-0.69001 -1.50476,-1.6105 -1.91275,-2.04553 l -0.7418,-0.79096 0.23425,-1.757 c 1.97717,-14.83 9.86266,-32.20849 21.8646,-48.18645 3.75865,-5.00383 7.40746,-9.28842 7.60201,-8.9266 0.0724,0.13457 0.24081,0.99161 0.37433,1.90454 0.13353,0.91293 0.29621,1.6929 0.36151,1.73326 0.0653,0.0404 2.3901,-1.23401 5.16619,-2.83192 l 5.04745,-2.90531 0.19799,0.51147 c 0.10889,0.28131 0.36375,0.95031 0.56636,1.48667 0.52475,1.38916 1.0376,1.9843 1.64886,1.91347 0.39333,-0.0456 0.54855,-0.21524 0.74339,-0.81256 0.33945,-1.04065 0.99203,-1.66067 2.56376,-2.43581 1.50497,-0.74222 4.96296,-1.93333 5.12945,-1.76684 0.0595,0.0595 -0.0726,0.46262 -0.29358,0.89579 -0.82166,1.61058 -0.19792,2.29677 1.35185,1.48719 0.70741,-0.36954 1.17243,-0.43685 3.47724,-0.50331 2.68155,-0.0773 8.48985,0.39501 8.82603,0.71774 0.0893,0.0857 -0.7468,1.6207 -1.85804,3.41103 -1.52439,2.45596 -1.95813,3.2913 -1.76666,3.40241 1.33283,0.77349 6.65841,4.58407 6.61686,4.73454 -0.17285,0.62603 -17.69763,31.82833 -18.03397,32.10889 -0.22458,0.18734 -1.25765,0.96286 -2.29571,1.72339 -1.03805,0.76052 -2.75315,2.27443 -3.81132,3.36423 -3.88835,4.00459 -6.29107,8.69993 -7.21098,14.09155 -0.37811,2.21613 -0.39656,2.25642 -2.09629,4.57686 l -1.08408,1.47997 -2.49976,-3.96482 c -1.37487,-2.18066 -2.55474,-3.96483 -2.62193,-3.96483 -0.0672,0 -1.09741,1.96044 -2.28937,4.35652 -1.19197,2.39609 -2.21488,4.3871 -2.27315,4.42447 -0.0583,0.0374 -1.52302,-1.34914 -3.255,-3.08112 z"
       id="path851" />
    <path
       style="fill:#ffff00;stroke:#808080;stroke-width:1px;stroke-linecap:butt;stroke-linejoin:miter;stroke-opacity:1"
       d="m 90.082901,141.20892 c 0,0 -23.78094,19.81745 -28.1219,14.91027 -4.34097,-4.90718 -6.22834,-5.47339 -6.22834,-5.47339 0,0 -5.473396,-17.17512 -15.287752,-12.64542 -9.814357,4.5297 -9.248144,6.41708 -9.248144,6.41708 l 5.662129,-0.37748 c 0,0 2.076114,8.11572 7.549505,6.60582 5.473391,-1.5099 -1.321164,1.5099 -1.321164,1.5099 0,0 -16.231435,-2.64233 -17.552599,2.07611 -1.321163,4.71845 -0.377475,8.87067 -0.377475,8.87067 l 2.076114,-3.96349 c 0,0 4.152228,7.36077 9.059406,2.07612 4.907178,-5.28466 1.698638,3.58601 1.698638,3.58601 0,0 -11.89047,7.54951 -8.493193,13.0229 3.397278,5.47339 7.549505,9.0594 7.549505,9.0594 l -0.943688,-6.22834 c 0,0 6.417079,-3.96349 5.850867,-7.92698 -0.566213,-3.96349 3.397277,6.03961 3.397277,6.03961 0,0 48.694304,-9.24815 54.167694,3.77475"
       id="path845" />
    <path
       style="fill:none;stroke:#808080;stroke-width:1px;stroke-linecap:butt;stroke-linejoin:miter;stroke-opacity:1"
       d="m 104.04949,38.53565 c 0,0 21.89356,-0.75495 17.17512,-18.68502 C 116.50617,1.9205525 99.897261,2.2980275 93.857661,8.7151075"
       id="path869" />
    <path
       style="fill:#e6e6e6;fill-opacity:1;stroke:#808080;stroke-width:1px;stroke-linecap:butt;stroke-linejoin:miter;stroke-opacity:1"
       d="m 62.906491,39.1574 c 0,0 -1.26785,-16.94912 13.2123,-11.01025 1.66822,13.34577 -13.2123,11.01025 -13.2123,11.01025 z"
       id="path882" />
    <path
       style="fill:none;stroke:#808080;stroke-width:1px;stroke-linecap:butt;stroke-linejoin:miter;stroke-opacity:1"
       d="m 59.236401,31.81723 c 0,0 -1.20112,-6.67288 4.80448,-7.874"
       id="path884" />
    <ellipse
       style="opacity:1;vector-effect:none;fill:#f9f9f9;fill-opacity:1;stroke:#333333;stroke-width:1.88976;stroke-miterlimit:4;stroke-dasharray:none;stroke-opacity:1"
       id="path886"
       cx="29.776678"
       cy="71.37484"
       rx="2.0584044"
       ry="1.7214122"
       transform="rotate(-45)" />
    <path
       style="fill:#000000;fill-opacity:1;stroke:#808080;stroke-width:1px;stroke-linecap:butt;stroke-linejoin:miter;stroke-opacity:1"
       d="m 39.084295,40.89235 c 0,0 8.274375,-0.86747 4.504196,4.67102 -3.770178,5.53849 -4.470831,6.00559 -4.470831,6.00559 0,0 -9.575587,-5.40503 -0.03337,-10.67661 z"
       id="path894" />
  </g>
</svg>
