<?xml version="1.0" encoding="utf-8"?>
<svg xmlns="http://www.w3.org/2000/svg" xmlns:dc="http://purl.org/dc/elements/1.1/"
     xmlns:xl="http://www.w3.org/1999/xlink"
     xmlns:xlink="http://www.w3.org/1999/xlink"
     version="1.1"
     viewBox="33.75 63 297 333"
     width="297"
     height="333"
     preserveAspectRatio="xMidYMid meet"
     zoomAndPan="magnify"
     contentScriptType="application/ecmascript"
     contentStyleType="text/css">
   <defs/>
   <metadata xmlns="" xmlns:svg="http://www.w3.org/2000/svg"
             xmlns:rdf="http://www.w3.org/1999/02/22-rdf-syntax-ns#"
             xmlns:cc="http://creativecommons.org/ns#">
      <rdf:RDF>
         <cc:Work rdf:about="">
            <dc:creator>
               <cc:Agent>
                  <dc:title>http://heraldicart.org Wildcat's Head Cabossed.svg</dc:title>
               </cc:Agent>
            </dc:creator>
         </cc:Work>
      </rdf:RDF>
   </metadata>
   <g stroke-opacity="1" stroke-dasharray="none" stroke="#505050" fill="#ffff00"
      fill-opacity="1">
      <title>Wildcat's Head Cabossed</title>
      <g>
         <title>Layer 2</title>
         <g>
            <g>
               <g  id="outline-0">
                  <path
                        d="M 319.5846 79.75571 C 318.29257 80.97498 314.76842 84.12191 311.7336 86.77728 C 306.60407 91.37961 300.1951 94.12111 283.68744 98.94546 C 277.70767 100.6266 276.0206 100.66966 272.22987 98.73606 C 269.73564 97.545 267.0632 95.62848 266.3934 94.41366 C 265.72363 93.19885 262.28488 90.75437 259.02434 89.03536 C 255.62642 87.29705 249.30063 83.46622 244.95818 80.47448 C 237.76732 75.82165 236.17677 75.17786 228.89828 75.13553 C 224.42515 75.06722 216.91276 75.69244 212.1671 76.56642 C 192.45905 80.24056 180.17725 79.91532 163.33395 75.1667 C 153.22412 72.345 145.00556 73.01107 134.73532 77.31118 C 121.3486 82.85432 112.00582 89.52615 106.74558 97.0519 C 98.65028 108.80204 99.0817 108.72258 86.44719 99.94265 C 80.47337 95.60095 74.67775 91.98472 73.71615 91.84958 C 72.754545 91.71443 67.54258 85.93887 62.19101 79.16308 C 51.03492 64.84743 47.67562 62.83437 41.58224 66.32065 C 37.605133 68.703495 37.448454 68.82156 36.419274 82.12511 C 34.302994 109.14434 40.158007 130.27958 54.896906 150.00175 C 58.91114 155.32882 60.46158 164.23201 59.05222 174.26017 C 58.41511 178.79345 58.891824 181.38198 60.9977 184.33956 C 64.71788 189.7654 72.21765 192.22027 77.46972 189.73643 C 81.23223 187.88377 81.50697 187.92238 82.82723 190.48938 C 83.61507 191.86088 86.50434 194.22813 89.25401 195.59517 C 93.69298 197.90005 94.14594 198.66414 93.88233 203.53008 C 93.0826 214.20425 81.6473 223.80396 72.00973 221.60897 C 65.355724 220.11347 64.93098 223.13565 70.4823 231.48045 C 74.30124 237.20033 76.30613 238.88295 82.19604 240.8314 L 89.14633 243.20906 L 87.23054 254.84707 C 85.83603 262.77603 85.59395 268.4855 86.38848 272.79973 C 88.64955 283.6239 85.5338 293.8325 80.03892 293.06025 C 77.1541 292.6548 78.51743 296.9089 82.0141 298.94126 C 86.92534 301.87285 92.88803 301.31 100.47096 297.19256 C 103.93942 295.43865 106.93785 294.03894 107.34996 294.09686 C 109.54791 294.40576 110.89044 306.78187 109.8182 318.39834 C 108.72887 331.1331 108.47566 331.93803 105.51585 333.063 C 102.8694 333.95183 102.49812 334.60007 103.64016 336.4416 C 104.30994 337.6564 106.25468 338.77024 107.90315 339.00192 C 111.47482 339.5039 124.53556 337.27698 126.69045 335.8988 C 127.47384 335.30848 129.47427 335.02928 131.12274 335.26095 C 133.45806 335.58916 133.77364 336.33394 132.9947 338.8861 C 132.33161 340.614 132.47344 342.59513 133.22044 343.26046 C 135.12657 344.64903 142.00557 341.55334 142.33378 339.218 C 142.6813 336.7453 149.34124 332.218 152.08868 332.6041 C 153.32503 332.77787 155.60466 334.4991 157.13951 336.53592 C 158.69367 338.43537 160.97553 341.1375 162.33217 342.44886 C 163.53214 343.87827 165.9922 347.3059 167.70527 350.0682 C 171.8205 356.6702 176.8238 356.95312 178.24208 350.8486 C 179.17547 347.1975 179.6648 346.7059 182.19765 347.62222 C 189.09002 350.412 201.22107 370.74825 198.1885 374.38453 C 197.52317 375.13153 194.18763 374.94292 189.86895 373.77563 C 182.9788 371.96677 182.54739 372.04623 182.12265 375.0684 C 181.81375 377.26636 183.881 380.4987 189.40633 386.03813 C 196.38706 393.18296 197.54618 393.9062 203.27497 394.0109 C 212.18261 394.4223 222.61175 390.985 227.83783 385.6958 C 231.90924 381.6452 232.53373 380.19203 233.9431 370.16387 C 235.29454 360.54783 234.9938 357.70386 232.36592 349.48975 C 230.58825 344.19685 227.82522 336.94435 225.97255 333.18184 L 222.7395 326.28353 L 226.00152 320.0179 C 229.63482 313.104 228.6346 313.2436 242.3228 319.51 C 249.56936 322.7698 250.11885 322.847 252.0569 321.0181 C 253.6816 319.42533 256.3689 319.24267 264.61123 320.40105 C 276.5626 322.0807 278.48135 320.38917 271.44493 314.63737 C 268.16285 312.07482 266.96066 309.6645 266.12307 303.6632 C 263.5932 286.77757 264.35283 284.3628 271.14866 287.83943 C 276.51062 290.5542 283.9651 290.3411 287.62662 287.21346 C 290.30946 285.06897 290.30055 281.14533 287.6155 282.3089 C 285.38115 283.25566 281.2726 279.59636 280.637 276.145 C 279.4259 269.81102 279.48158 268.418 281.68473 253.7385 C 283.24855 242.61136 283.53146 237.60805 282.32705 234.2168 C 280.68898 229.92412 280.88427 229.5313 283.9406 227.7195 C 294.18708 221.59493 295.8311 219.86478 299.17035 213.04965 C 302.99672 204.76203 303.24993 203.9571 301.94898 201.25273 C 301.3371 199.6258 300.18022 199.88346 297.04665 202.24478 C 289.5261 207.91193 280.31548 203.67567 279.17493 193.84948 C 278.4383 189.12314 278.8289 188.33752 282.06123 186.27026 C 284.05943 185.01015 286.1928 182.78844 286.97395 181.2172 C 287.59843 179.76403 289.81124 177.97374 291.59485 177.2438 C 297.06374 175.2107 304.49594 165.18849 306.32188 157.18007 C 307.50625 151.74311 308.60077 149.93574 310.6012 149.65654 C 314.34663 148.92216 317.88564 143.67603 322.54664 131.44324 C 326.0381 122.54822 326.73537 118.58373 327.89524 102.35676 C 329.28456 83.5004 328.4299 78.61738 323.75924 77.96097 C 322.79763 77.82582 320.85735 78.67382 319.5846 79.75571 Z"
                        fill="black"/>
               </g>
            </g>
            <g>
               <path d="M 324.92133 88.63069 C 324.54337 86.33621 323.85205 84.27785 323.06644 83.88727 C 322.3989 83.65337 318.71583 85.93745 314.77956 89.02647 C 307.98447 94.51541 294.38315 100.58873 287.5576 101.31049 C 283.00726 101.79166 274.40926 108.1479 267.69807 116.03008 C 259.9889 125.03277 258.92408 122.64176 266.08154 112.58093 C 269.38664 108.00236 272.06502 103.89605 272.12294 103.48393 C 272.18086 103.07182 269.6458 101.1746 266.42386 99.18085 C 263.3393 97.2064 260.43073 94.97652 260.11514 94.23174 C 259.81886 93.34959 258.24763 92.56842 256.73653 92.35605 C 255.22544 92.14368 250.6877 89.54475 246.46333 86.70969 C 240.21477 82.32937 237.2891 81.21777 229.18416 80.0787 C 223.27717 79.24852 216.25411 79.38218 211.23372 80.21755 C 192.83924 83.51596 180.93094 83.52338 168.79913 80.13734 C 147.08767 74.1442 136.8709 76.07038 118.24548 89.98282 C 113.7018 93.40672 108.57449 98.98996 105.32953 104.13733 L 99.91485 112.76206 L 102.87094 118.64085 C 104.38872 121.79595 106.20054 124.85229 106.82948 125.36094 C 107.32105 125.85028 107.65817 127.4386 107.4651 128.81232 C 106.80869 133.48297 103.07365 130.15634 99.40471 121.37566 C 94.96722 111.08612 93.76726 109.65671 83.62921 103.04874 C 72.86221 95.93213 66.040394 89.65014 57.24562 78.46805 C 53.094013 73.12168 48.53252 68.6983 47.29617 68.52454 C 44.27399 68.0998 41.552536 70.519035 41.069876 73.953335 C 40.857506 75.46443 40.25901 79.72296 39.71843 83.56938 C 38.135307 94.83388 38.038775 95.52074 39.51422 105.95434 C 41.84657 122.25186 48.27632 137.30412 53.221714 137.99915 C 54.18332 138.1343 55.53996 139.44564 56.01445 141.05327 C 56.64562 142.54282 58.341604 146.4234 59.85938 149.5785 C 62.34321 154.83057 62.78354 158.67476 62.68181 174.35002 C 62.63503 179.66669 65.78419 184.17175 70.96794 186.16105 C 73.481475 187.21473 75.38315 186.64148 79.2808 183.8272 C 83.6678 180.52137 84.53064 180.36247 85.79075 182.36067 C 86.59791 183.5948 86.79765 185.1638 86.2697 185.93012 C 84.91974 187.5615 88.36295 191.9678 91.38513 192.39254 C 95.50629 192.97174 102.62365 191.1703 103.73748 189.22557 C 104.14737 188.30257 104.74586 184.04404 104.93225 179.7276 C 105.15279 173.17457 104.87581 172.15505 102.81746 172.84636 C 100.44575 173.77381 99.44554 173.9134 96.97284 173.5659 C 96.14861 173.45006 95.48328 174.19706 95.50481 175.0406 C 95.41496 178.6702 94.61449 180.3788 93.35661 179.3615 C 92.5903 178.83355 92.25318 177.24524 92.44624 175.87152 C 92.83237 173.12408 87.77486 166.24953 86.20807 167.43019 C 85.60066 167.76508 84.95687 169.35562 84.76381 170.72934 C 84.37768 173.47679 82.0832 173.85474 81.62578 171.12884 C 81.34881 170.10931 79.81619 169.0534 77.89298 168.78312 C 72.94759 168.08809 73.42356 161.71105 78.53826 159.20791 C 80.7726 158.26116 82.51537 156.82507 82.6119 156.1382 C 82.94011 153.80288 79.38997 154.14446 75.82498 156.58522 C 73.96414 157.86464 72.14192 158.8693 71.7298 158.81139 C 70.08134 158.57971 71.85827 154.90705 74.65917 152.91924 C 78.20486 150.61585 77.747445 147.88994 73.86464 148.60502 C 69.84447 149.30079 69.22815 145.71204 73.04858 143.44726 C 77.02569 141.06441 76.29799 140.26171 67.13045 137.71253 C 61.594725 136.2341 60.31754 135.35418 60.980636 133.62627 C 61.42914 132.42853 62.50658 131.73944 63.2922 132.13003 C 67.16015 133.51414 64.7773 129.53704 60.23957 126.9381 C 54.798154 123.79191 51.76483 118.46262 56.753293 120.84473 C 58.20647 121.46921 60.7007 122.66027 62.271936 123.44143 C 65.17828 124.6904 59.92325 117.22776 51.11139 107.16395 C 48.20059 103.95316 48.07584 100.85375 50.82328 101.23988 C 51.37277 101.3171 55.247403 105.64395 59.261635 110.97102 C 63.432546 116.18002 67.20842 120.21282 67.678454 119.85862 C 68.7752 119.03216 63.024144 109.11835 59.64331 106.26176 C 55.79021 102.77845 47.06375 87.12323 48.0209 85.29655 C 48.430787 84.37356 50.770566 86.66359 53.46677 90.40457 C 55.86892 94.2443 60.27819 100.74757 63.19122 104.93927 C 73.84089 120.86478 79.26968 127.09108 86.71599 131.91989 C 90.95967 134.61758 95.81298 137.9613 97.62035 139.05581 C 101.19648 141.5196 102.20783 146.28455 98.91091 145.8212 C 92.86654 144.97172 88.17138 159.44108 92.59995 165.80697 C 94.58776 168.60788 95.90357 169.21306 99.4537 168.87149 C 103.55333 168.60714 107.68712 166.10623 108.19131 163.51546 C 108.26854 162.96598 109.01331 162.6504 109.70017 162.74692 C 110.52441 162.86276 110.47317 166.2176 109.32741 171.37983 C 106.45448 184.84451 110.75236 194.13383 126.4588 207.96832 C 129.07333 210.29696 131.66632 211.78206 131.88092 211.25188 C 135.16225 204.84886 145.75847 197.2325 150.70386 197.92754 C 153.86342 198.37159 152.0048 200.63191 146.79135 202.841 C 139.36287 205.85947 134.8838 211.814 134.23406 219.42737 C 133.88877 222.88098 133.91699 226.66725 134.31203 227.84345 C 134.70706 229.01965 135.71619 232.8037 136.50849 236.137 C 137.41886 239.627 138.83787 242.48805 139.79948 242.6232 C 140.62371 242.73904 142.29816 245.77607 143.46397 249.44205 C 144.62977 253.10803 146.02948 256.10645 146.57897 256.18368 C 147.26583 256.2802 149.73407 254.6659 152.24093 252.77685 C 158.21401 248.15298 168.29118 245.2266 174.88504 246.1533 C 181.891 247.13792 183.86768 245.03428 185.3758 235.30017 C 186.63072 226.371 184.5501 217.2532 180.6027 215.43766 C 179.3062 214.6951 177.59536 212.91372 177.12087 211.3061 C 175.4828 207.0134 168.90157 203.0066 164.23315 203.3311 C 155.03368 203.99939 151.1479 194.76798 156.32424 184.84898 C 160.21075 177.13016 161.8154 166.7092 158.77615 167.40274 C 156.46235 167.91807 157.18115 164.79712 160.97113 157.76516 C 161.88967 156.21323 162.00328 154.40808 161.5117 153.91874 C 160.86346 153.54747 158.16354 156.81024 155.40793 161.46603 C 152.51495 166.10253 149.75711 169.77741 148.93288 169.66157 C 148.24602 169.56504 148.2631 168.44676 149.00565 167.15026 C 153.9503 158.87973 156.9376 152.57547 156.11336 152.45963 C 155.56387 152.3824 154.13446 153.58237 152.92187 155.23306 C 147.2109 162.97564 133.95265 164.61445 127.15014 158.19509 C 123.19828 154.41773 121.11988 146.28085 122.93319 141.35253 C 123.71213 138.80038 123.63268 138.36896 121.94783 139.39294 C 120.73301 140.06272 119.71572 141.3206 119.61918 142.00746 C 119.38751 143.65593 113.07953 147.67239 111.13702 147.53947 C 110.31278 147.42363 108.38735 146.17243 106.77527 144.6851 C 104.78969 142.8651 104.55133 141.57084 105.64808 140.74438 C 106.74483 139.91792 107.8245 140.20974 109.02446 141.63915 C 111.8365 144.5559 114.95299 143.31287 118.39323 137.77269 C 120.17239 135.08094 122.57825 131.91693 123.8703 130.69766 C 127.23777 127.6688 125.54846 126.73095 119.45063 128.25541 C 112.7647 129.97738 112.90207 129.99669 113.24958 127.524 C 113.42334 126.28764 116.1084 125.12407 119.9719 124.54636 C 129.54265 123.22982 144.95208 127.21659 151.20287 132.57781 C 157.7091 138.11502 161.4872 143.12873 161.159 145.46405 C 160.81148 147.93675 162.44064 148.3058 164.9475 146.41675 C 167.61103 144.40963 168.32091 137.36504 166.792 129.30539 C 166.17568 125.71664 165.93287 122.46055 166.4029 122.10635 C 170.33917 119.01734 171.92897 136.61136 168.47833 146.21255 C 167.09421 150.0805 165.11383 159.18789 163.9146 166.72404 C 161.86367 179.32366 161.8852 180.1672 164.37498 179.39643 C 165.84523 178.90263 170.73048 179.02887 175.26376 179.66598 C 182.9566 180.74714 183.52538 180.68699 183.538 177.60689 C 183.56771 173.4085 186.27654 174.06937 187.3265 178.55958 C 188.0995 182.03027 188.23687 182.04957 193.1778 180.78278 C 196.0797 180.06993 200.19864 179.66821 202.53396 179.99642 C 206.7925 180.59492 208.21968 178.41405 205.85836 175.28048 C 202.78866 171.20684 200.00186 162.12989 199.71153 155.2249 C 199.26452 148.43798 201.99265 148.96148 203.12652 155.84493 C 204.33985 163.1598 208.70234 174.97975 212.10916 180.6417 C 213.5861 183.09064 215.36154 187.40263 216.1323 189.8924 C 216.9246 193.22572 218.24263 194.81181 220.30321 195.1014 C 223.60014 195.56476 234.45327 206.05553 236.9371 211.3076 L 238.6717 214.91343 L 242.2278 208.54902 C 248.3442 197.92163 255.71996 180.32687 258.61888 169.66755 C 261.6938 158.75278 263.27765 156.45384 265.56174 160.1369 C 266.3689 161.37102 268.56907 162.66083 270.3549 162.91182 C 273.65184 163.37517 273.82782 163.11973 274.16643 156.7234 C 274.2949 152.81906 273.30284 147.91673 271.56824 144.3109 C 267.96167 137.07993 268.65225 130.17272 273.4469 124.96298 C 276.59755 121.48338 285.51337 116.85283 304.34745 108.43305 C 307.91466 106.97319 311.73287 103.7275 313.8447 100.66225 C 317.71635 95.04262 320.36503 95.1347 318.02376 100.82932 C 316.0924 105.60096 308.5525 111.40548 296.5395 117.14169 C 284.97724 122.66107 281.511 125.39589 289.9204 122.37519 C 293.0369 121.13216 296.3702 120.33986 297.19444 120.4557 C 298.01868 120.57154 301.29184 119.21044 304.64224 117.29986 C 310.7163 113.95095 314.1677 113.31533 313.82017 115.78802 C 313.5885 117.43649 304.96673 121.96828 292.67676 126.68496 C 281.387 131.26205 280.6853 133.2647 291.8785 129.37448 C 302.0329 125.8986 306.7637 127.12381 299.9857 131.49447 C 297.67413 132.99071 293.96954 134.43126 291.85104 134.55378 C 289.71323 134.81367 285.3604 135.88294 282.10654 137.10667 C 276.951 138.90364 276.61834 139.27715 279.30786 140.07539 C 280.9177 140.58181 284.5666 140.53429 287.4299 140.09618 C 290.1751 139.5014 292.8431 139.4561 293.1973 139.92614 C 294.1225 141.31694 284.18494 145.24355 281.02538 144.7995 C 278.9648 144.5099 279.53582 145.43067 283.07333 148.1692 C 285.5891 150.2038 287.61552 152.72995 287.48038 153.69156 C 287.15217 156.02688 286.622 155.81229 281.90604 152.48788 C 279.72517 151.0607 277.64305 149.92756 277.3104 150.30107 C 276.99703 150.5372 278.122 153.497 280.01328 156.98477 C 283.8753 164.39172 284.0149 165.39194 280.57836 163.92837 C 278.9878 163.28458 276.8114 163.81922 275.2253 165.13724 C 273.48253 166.57334 270.59995 167.14881 267.16565 166.66616 C 262.22026 165.97113 260.5547 166.85773 262.44376 169.36459 C 262.91602 169.9913 264.06698 175.75647 264.98403 182.1892 C 265.7637 188.60261 266.66145 195.1727 266.8612 196.74172 C 267.1597 198.60478 266.53076 198.09613 264.99368 195.0784 C 263.7915 192.66808 262.645 188.86473 262.3851 186.72693 C 262.28188 184.47105 261.55195 182.68745 260.8651 182.59091 C 258.8045 182.30132 258.58397 188.85433 260.40694 196.81523 C 262.3888 205.63897 262.44672 205.22685 260.79826 204.99518 C 260.1114 204.89865 258.731 201.76285 257.6038 197.82213 L 255.48902 190.9409 L 254.66998 201.75245 C 254.11455 207.69806 254.42197 213.48477 255.09175 214.69958 C 255.8989 215.9337 256.07934 217.64009 255.53208 218.54377 C 254.57493 220.37045 251.45325 210.6861 251.9359 207.2518 C 252.09036 206.15281 251.676 205.11398 250.85178 204.99815 C 248.65383 204.68924 247.77687 215.9129 249.5226 224.4233 C 250.31714 228.73752 250.75747 232.5817 250.30674 232.79853 C 249.50404 233.52623 245.8262 220.82192 246.2123 218.07448 C 246.38607 216.83813 245.91158 215.2305 245.0272 214.54587 C 243.1597 212.88255 243.01043 224.90892 245.02423 230.51518 C 247.11748 236.55287 247.4806 240.94655 246.10687 240.75348 C 245.42 240.65695 243.90223 237.50185 242.9124 233.58044 C 240.9157 226.8559 240.9157 226.8559 240.17982 231.09512 C 239.40757 236.59 242.30203 249.88464 245.45342 255.3706 C 246.69422 257.5062 247.22886 259.6826 246.60214 260.15487 C 245.97543 260.62713 244.85492 259.62914 243.949 258.10097 C 241.95897 254.31916 241.63076 256.65448 243.62303 261.4172 C 244.4517 263.49487 244.88982 266.35815 244.83412 267.75117 C 244.448 270.4986 244.448 270.4986 242.77354 267.46158 C 239.66077 261.70086 240.79242 267.6034 244.43983 275.54054 C 246.4707 280.02852 248.07016 284.59595 247.935 285.55756 C 247.5489 288.305 242.88864 283.58757 241.80006 279.3721 C 241.12582 276.19547 240.94984 276.4509 241.0575 280.6686 C 241.58026 294.8907 246.9281 308.6702 253.52865 312.53965 C 256.12164 314.02476 258.4978 315.05913 258.96784 314.70494 C 259.41857 314.4881 257.5273 311.00035 254.8504 307.122 C 252.29156 303.40033 250.16415 299.5992 250.26068 298.91235 C 250.3572 298.2255 250.15747 296.65648 249.9191 295.3622 C 249.5627 293.91126 250.38326 293.0741 251.2648 293.1965 C 252.14632 293.31886 255.7979 311.83754 268.4316 317.09186 C 261.39716 310.7661 254.03136 292.01776 254.9046 287.79784 C 256.34218 281.55595 256.9132 282.4767 258.4295 293.61647 L 260.94864 300.80538 L 260.8012 292.68903 C 261.84597 286.25185 261.44648 283.11383 258.91958 276.17468 C 255.5833 267.0205 255.8276 262.29194 259.36957 266.9923 C 261.25862 269.49914 261.396 269.51845 261.7242 267.18312 C 262.3591 261.66894 260.55692 245.586 258.88024 241.56807 L 256.94812 237.37414 L 260.07574 241.03566 C 261.9841 243.40514 263.58356 247.97258 264.28378 253.95457 C 264.8444 258.93635 265.757 263.40725 266.26788 263.75922 C 267.89926 265.10918 269.0116 245.2333 267.5109 240.95992 C 266.58347 238.5882 266.579 236.6264 267.26587 236.72292 C 270.1507 237.12835 271.91795 246.48228 271.03877 256.72503 C 270.18112 267.81133 261.46687 275.5559 274.59407 283.19838 C 280.06373 286.38275 277.08685 276.48656 276.7282 274.0547 C 276.273 272.3097 277.1158 263.3226 278.27197 254.09937 C 280.97486 234.8673 280.48106 233.39704 270.0534 228.84965 C 262.66948 225.57054 264.9209 223.5055 274.8889 224.34607 C 280.83452 224.9015 282.2109 221.81275 285.0907 220.97312 C 293.1004 217.97353 294.72267 208.6888 294.72267 208.6888 C 294.72267 208.6888 288.86458 217.0056 283.51277 217.24922 C 278.16097 217.49285 278.81627 217.33342 275.31068 211.3774 C 271.58827 204.97068 272.44666 202.84995 276.38367 208.7265 C 279.96648 214.13302 282.14276 214.4018 283.65993 213.79116 C 285.60386 212.99251 291.28655 210.77714 284.27835 208.8116 C 277.5642 206.74731 275.09312 201.96112 273.48475 193.47004 C 272.90928 190.58745 271.2326 186.5695 269.69774 184.53269 C 268.1629 182.49587 267.05723 179.39869 267.3082 177.61285 C 267.75226 174.4533 267.75226 174.4533 270.39055 178.60638 C 273.36372 183.36688 277.4678 185.06436 281.0135 182.76096 C 284.52056 180.73231 284.4775 179.04524 280.93775 175.3258 C 278.00764 172.25237 277.1938 168.07552 279.52913 168.40373 C 280.216 168.50026 281.7293 169.69354 283.08595 171.00489 C 287.0185 174.91962 290.8434 174.61666 295.5608 169.9564 C 299.28026 166.41667 300.33394 163.90313 301.74776 155.8368 C 303.35687 147.37765 303.98136 145.92447 306.5699 145.44776 C 308.3149 144.99257 310.27226 143.0263 311.11134 141.04294 C 311.95042 139.05959 314.15877 135.30748 316.17406 132.92908 C 319.22595 129.15544 320.0821 126.0538 322.51917 110.70675 C 324.0466 100.83527 325.1619 90.90587 324.92133 88.63069 Z"/>
            </g>
            <g>
               <path d="M 146.7238 138.53233 C 146.51143 140.04342 145.37607 141.14462 144.2771 140.99017 C 141.94177 140.66197 141.84301 140.36791 143.5041 137.51949 C 145.1845 134.53369 147.18715 135.2354 146.7238 138.53233 Z"/>
            </g>
            <g>
               <path d="M 130.9379 150.18221 C 132.18092 153.2987 132.96654 153.68929 139.08814 153.98928 C 142.99247 154.11774 147.3067 153.32321 149.3049 152.0631 C 152.55654 149.85847 152.55654 149.85847 150.48333 152.64898 C 146.4743 158.2493 135.74666 159.8235 130.14633 155.81447 C 127.23776 153.58458 124.71086 146.64544 125.92122 144.01384 C 128.38055 138.47589 128.96865 138.27837 129.37037 142.3973 C 129.47358 144.65318 130.22727 148.26123 130.9379 150.18221 Z"/>
            </g>
            <g>
               <path d="M 82.84654 164.43622 C 82.57625 166.35943 79.9298 167.24826 78.41648 166.05498 C 77.66947 165.38965 77.52987 164.38944 78.03852 163.7605 C 79.36917 162.26648 83.07822 162.78776 82.84654 164.43622 Z"/>
            </g>
            <g>
               <path d="M 210.4399 188.53205 C 213.3507 191.74285 213.52892 192.46832 211.3978 195.67094 C 207.78157 201.46656 198.20636 200.82128 199.03654 194.91428 C 199.2489 193.40319 198.59843 192.051 197.49946 191.89655 C 194.47727 191.4718 193.32483 193.6913 194.50994 197.2199 C 195.41808 199.72898 194.87305 201.61358 191.13876 207.25251 C 186.8572 213.79513 186.38717 214.14933 183.57735 212.2135 C 182.06403 211.02022 178.85918 207.90818 176.30258 205.16743 C 172.42795 200.84058 172.15097 199.82105 173.43633 195.65905 C 174.44917 192.43935 174.32888 191.30176 173.13337 191.83417 C 172.09454 192.24851 171.23392 193.38833 171.07947 194.4873 C 170.75127 196.82263 164.99055 199.9354 161.69362 199.47205 C 160.3199 199.27899 158.4717 197.4783 157.50563 195.38133 C 153.38596 186.81749 164.69056 180.1412 176.31372 184.15619 C 182.06627 186.08534 182.6759 186.73136 182.8415 190.53693 C 183.05015 196.02959 184.99266 196.1625 187.72674 190.66317 C 191.65187 182.6696 204.2834 181.50306 210.4399 188.53205 Z"/>
            </g>
            <g>
               <path d="M 223.21847 200.27402 C 236.69875 210.01333 238.06727 225.1948 227.10497 244.38678 C 225.97184 246.4689 224.8387 248.551 224.6434 248.94382 C 224.44812 249.33663 223.76126 249.2401 222.95633 248.9869 C 220.73685 247.83445 206.27417 246.08202 200.64415 246.27137 C 195.87697 246.30181 194.8166 245.87262 192.17832 241.71953 C 190.42664 239.23198 189.3403 235.99743 189.67072 234.643 C 189.86379 233.2693 189.75612 229.0516 189.29648 225.34478 C 188.4782 219.2061 188.59403 218.38188 191.1395 216.21808 C 192.72559 214.90005 193.5862 213.76024 193.03672 213.683 C 191.80037 213.50925 197.54995 205.49193 199.64691 204.52587 C 200.54837 204.09222 202.68618 203.83233 204.33464 204.064 C 205.9831 204.29568 208.98153 202.89597 211.07627 200.949 C 215.30436 196.78032 218.2471 196.77364 223.21847 200.27402 Z"/>
            </g>
            <g>
               <path d="M 101.40363 206.8285 C 98.81807 217.25169 95.06224 222.04708 87.49638 225.04625 C 79.18574 228.361 78.57611 227.71497 85.17591 222.61884 C 91.12969 218.13235 99.4975 205.43992 100.30837 199.6703 C 100.57866 197.74709 101.2826 196.72534 102.02961 197.39066 C 102.91399 198.0753 102.68676 201.68558 101.40363 206.8285 Z"/>
            </g>
            <g>
               <path d="M 109.8108 202.82688 C 110.05139 205.10206 109.80709 209.83063 109.4425 213.4216 C 108.92122 217.13065 109.20265 220.112 109.88951 220.20853 C 110.57637 220.30506 111.49268 217.77222 111.95603 214.4753 C 113.47901 202.642 113.8889 201.719 115.64057 204.20655 C 117.84521 207.45818 119.11868 215.34185 118.28851 221.24885 C 117.82738 225.52669 117.92614 225.82074 119.47139 223.79654 C 120.48869 222.53866 121.24609 219.14297 121.25872 216.06287 C 121.15105 211.84518 121.59955 210.64744 123.11064 210.8598 C 125.85808 211.24594 125.98728 216.30717 123.9668 233.67396 C 122.9844 241.66085 122.70371 247.64507 123.36904 246.89806 C 124.05367 246.01368 124.96998 243.48084 125.3175 241.00814 C 125.97391 236.3375 128.22533 234.27246 129.50697 237.1142 C 129.92132 238.15304 129.79508 243.03828 129.23742 248.00298 C 127.89489 261.54267 127.79835 262.22953 129.30722 261.461 C 130.052 261.1454 131.67225 257.5908 132.66355 253.52757 C 133.79223 249.48363 135.2365 246.18447 135.78599 246.2617 C 137.84657 246.5513 135.95677 260.99466 132.3346 272.8131 C 128.51714 285.02437 128.46367 287.3983 132.2841 285.13353 C 134.12563 283.9915 134.4219 284.87364 134.33651 290.46505 C 133.92365 307.35735 131.9633 325.29294 130.33638 325.9048 C 129.43492 326.33845 120.10133 332.217 114.45443 333.37834 C 123.24497 324.67225 124.92158 322.15734 125.30856 314.83187 C 125.61078 309.6912 122.27154 290.59054 120.89781 290.39747 C 119.24935 290.1658 118.92782 295.44385 119.88794 303.56365 C 120.92528 311.13397 119.68828 324.9318 117.01139 321.05344 C 115.14164 318.4092 116.49626 308.99044 115.25069 301.68573 C 114.00511 294.38102 112.2159 294.36047 112.77579 290.37668 C 112.98816 288.8656 114.88315 285.3496 116.93705 282.69647 C 118.99095 280.04333 120.22061 277.27436 119.74835 276.64765 C 118.80382 275.39422 108.66057 283.77465 106.74627 287.428 C 104.61737 291.61154 102.5308 288.5166 103.71517 283.07962 C 104.9983 277.9367 109.09496 267.7259 111.65528 263.4629 C 112.39784 262.1664 112.39561 261.1855 111.434 261.05035 C 109.5108 260.78006 105.1134 268.1469 101.62415 278.02285 C 100.18211 282.3029 99.03198 294.62675 87.95983 295.52328 C 99.2691 287.74765 98.62425 261.49142 100.78953 256.05223 C 103.42262 249.27793 103.69291 247.35473 102.04444 247.12305 C 99.70912 246.79484 95.88943 258.0252 94.36646 269.8585 L 93.00016 281.57372 L 91.06136 274.43706 C 90.07154 270.51565 89.54507 263.2973 89.78937 258.56874 C 90.2802 250.0925 90.47549 249.6997 95.87978 245.13598 C 99.05196 242.49992 101.77119 239.09978 102.00286 237.45132 L 102.4276 234.42913 L 96.64536 236.69837 C 91.92124 238.4159 89.66537 238.5191 84.67914 237.1179 C 81.32206 236.08576 78.29765 234.6801 77.96276 234.0727 C 77.78455 233.34723 81.11563 231.57401 85.66376 230.11193 C 96.681 226.47715 100.88756 221.46492 104.07385 207.7641 C 106.59927 196.77212 109.30142 194.49026 109.8108 202.82688 Z"/>
            </g>
            <g>
               <path d="M 232.80257 256.67453 C 234.20673 261.63477 234.84458 266.06706 237.044 284.3071 C 237.94398 291.8581 239.50928 298.6621 242.64804 307.22818 C 244.12943 311.63894 245.00119 315.40367 244.53115 315.75787 C 243.27772 316.7024 235.53737 311.97234 232.5278 308.4675 C 228.67248 304.00327 225.556 305.2463 224.6486 311.7028 C 224.24316 314.5876 222.93627 317.90607 221.7816 319.14464 C 219.9809 320.99285 219.2339 320.32752 215.0177 312.45054 C 212.47595 307.6106 210.64036 302.7298 210.93218 301.65012 C 211.4193 300.17764 213.98853 299.8383 219.97275 300.119 C 229.56726 300.6269 229.2153 301.13777 227.7287 285.79962 C 225.65773 263.65525 225.6362 262.8117 227.20298 261.63106 C 228.14305 260.92266 228.80393 258.21384 228.73932 255.68322 C 228.6465 249.36633 230.94322 249.9693 232.80257 256.67453 Z"/>
            </g>
            <g>
               <path d="M 219.15373 259.09895 C 218.98442 262.29712 217.69907 266.45912 216.17312 268.34595 L 213.70933 271.92207 L 212.81827 268.2947 C 212.02597 264.9614 208.92137 254.15876 208.11199 251.94372 C 207.6182 250.47347 213.89646 250.6554 216.90157 252.19842 C 218.86562 253.17488 219.45817 254.93918 219.15373 259.09895 Z"/>
            </g>
            <g>
               <path d="M 239.20113 257.99404 C 239.813 259.62097 239.7766 260.87663 239.08975 260.7801 C 238.26552 260.66426 237.61504 259.31207 237.4153 257.74306 C 237.21555 256.17405 237.3893 254.9377 237.66405 254.9763 C 237.9388 255.01493 238.58927 256.3671 239.20113 257.99404 Z"/>
            </g>
            <g>
               <path d="M 163.67993 262.0892 C 162.88837 267.72145 161.81983 272.33418 161.40772 272.27626 C 159.20977 271.96735 155.52374 264.30496 155.43538 259.9499 C 155.3084 255.86958 155.89428 254.69115 158.77464 253.13476 C 164.65342 250.17867 165.20513 251.2368 163.67993 262.0892 Z"/>
            </g>
            <g>
               <path d="M 146.0369 268.01475 C 147.03935 268.85606 147.65566 272.4448 147.58512 275.93703 C 147.3772 279.40995 147.29181 285.00136 147.35864 288.5129 C 147.2881 292.0051 147.14255 297.02772 147.05048 299.6764 C 146.85147 307.07296 147.59254 313.76112 148.71304 314.7591 C 149.3613 315.1304 151.77384 314.9091 154.14555 313.98166 C 160.77134 311.6909 166.34567 312.89457 167.47287 316.8353 C 170.33911 326.34366 171.06904 328.12727 173.58926 332.1237 C 176.6805 337.04086 176.84163 338.8846 174.0942 338.4985 C 172.99522 338.34404 171.7804 339.0138 171.38982 339.79944 C 170.04209 342.41174 164.28063 336.55894 161.18494 329.67994 C 157.87242 322.3502 154.22129 321.41683 146.95394 326.27905 C 144.17234 328.1295 141.29198 329.68588 140.7425 329.60865 C 139.64352 329.4542 138.90171 313.80047 139.71258 308.03085 C 139.98287 306.10764 139.89005 299.79075 139.42596 294.1221 C 139.09924 288.4728 139.36879 277.584 140.1559 269.98993 C 141.47912 256.58762 141.51774 256.31288 142.9219 261.27312 C 143.79143 264.05695 145.19114 267.05537 146.0369 268.01475 Z"/>
            </g>
            <g>
               <path d="M 198.4447 279.8629 L 198.4447 279.8629 C 198.40163 278.17584 193.79113 278.08822 190.32267 279.84212 C 184.28721 282.9163 186.43912 297.50742 194.76386 309.0437 C 198.4046 314.0381 198.3682 315.29376 195.20865 314.8497 C 192.34314 314.3069 186.02997 307.39598 186.33888 305.19803 C 186.45471 304.3738 185.34906 301.2766 183.96865 298.14082 C 182.43157 295.1231 181.16478 290.18215 181.1581 287.23942 C 180.91306 283.00242 180.22397 281.92498 177.75127 281.57746 C 173.35537 280.95966 170.05027 285.53823 169.28247 292.99493 C 168.78719 299.50934 169.4035 303.0981 172.6388 310.9773 C 173.54694 313.4864 174.39716 316.4076 174.51745 317.54517 C 175.02016 322.93907 182.3536 338.5386 187.50764 344.72627 C 190.61596 348.52517 195.75293 355.83113 199.0996 360.9243 L 204.9665 370.01387 L 207.48376 364.0638 C 209.9624 358.3885 210.05224 354.7589 208.29537 341.34396 C 207.6553 335.93076 211.49131 340.53235 212.38683 346.12153 C 215.03476 363.16384 206.37958 378.89776 193.78665 379.78956 L 189.09892 380.25142 L 193.34705 384.91094 C 196.84818 388.9051 198.5568 389.7056 203.1673 389.7932 C 212.09425 390.0672 223.1115 386.43243 226.67202 382.02985 C 233.65572 373.20536 232.54042 357.21897 223.6892 338.46435 C 216.67136 323.6096 207.1333 304.75844 204.27818 300.15462 C 200.97011 294.7867 198.24124 285.29765 198.4447 279.8629 Z"/>
            </g>
            <g>
               <g  id="outline-1">
                  <path
                        d="M 181.94006 87.30742 C 181.84353 87.99428 182.3804 91.15161 183.03532 94.46562 C 183.70956 97.64226 184.31325 104.31111 184.46176 109.23497 C 184.88798 124.14392 185.08773 125.71293 186.59882 125.9253 C 189.2089 126.29212 189.41755 105.86899 186.90328 95.84974 C 185.6751 90.63405 184.03703 86.34136 183.35017 86.24483 C 182.6633 86.1483 182.0366 86.62056 181.94006 87.30742 Z"
                        fill="black"/>
               </g>
            </g>
            <g>
               <g  id="outline-2">
                  <path
                        d="M 259.6139 132.68477 C 259.07333 136.53118 258.1934 137.80837 255.4289 138.54053 C 252.351 139.50881 250.77977 138.72765 244.3916 133.34712 C 240.24445 129.96257 234.42953 126.48371 231.60264 125.66616 C 224.04495 123.6234 214.28782 129.2564 209.05135 138.6066 C 206.99968 142.24065 204.88786 145.3059 204.33837 145.22868 C 202.82728 145.0163 200.1994 136.8022 200.64344 133.64264 C 200.8558 132.13155 200.538 130.40586 199.77168 129.8779 C 199.00537 129.34995 198.32074 130.23433 198.05045 132.15754 C 197.2975 137.51505 199.19769 144.92646 202.56367 149.88224 C 204.31535 152.3698 205.81604 156.64318 205.88065 159.1738 C 206.08262 161.72371 207.30857 165.95849 208.60952 168.66286 C 210.06715 171.24917 211.25003 173.79686 211.3488 174.09091 C 211.58492 174.40427 212.15372 174.34412 212.62375 173.98993 C 213.25047 173.51766 213.0121 172.2234 212.22426 170.8519 C 211.08222 169.01037 211.14014 168.59826 213.06334 168.86855 C 216.08553 169.29329 215.98454 168.01833 212.95345 163.66994 C 210.15849 159.63492 211.11563 157.80824 214.67246 160.4094 C 218.50402 163.04917 234.3575 163.87638 237.7658 161.55368 C 241.66346 158.73941 244.81188 154.2789 246.81826 147.97687 C 248.2796 143.55943 248.9063 143.08717 252.478 143.58914 C 254.95068 143.93665 257.3031 143.14658 258.9471 141.41643 C 261.90245 138.32965 263.45364 130.28262 261.56682 128.75667 C 260.8198 128.09134 260.03865 129.66258 259.6139 132.68477 Z"
                        fill="black"/>
               </g>
            </g>
            <g>
               <path d="M 232.45137 136.57202 C 232.239 138.08311 231.51576 139.24223 230.8289 139.1457 C 228.9057 138.87541 228.01686 136.22896 229.21014 134.71564 C 230.91207 132.57338 232.8568 133.6872 232.45137 136.57202 Z"/>
            </g>
            <g>
               <path d="M 244.81114 145.31334 C 241.6397 156.91496 236.0379 160.89058 225.04813 159.34607 C 217.49267 158.28422 210.9092 153.2965 210.3679 148.17735 C 209.76642 142.4894 211.74755 142.34758 214.89894 147.83355 C 220.19704 156.98327 233.04318 155.28654 240.1791 144.38218 C 244.51858 137.42744 246.97197 137.91233 244.81114 145.31334 Z"/>
            </g>
         </g>
      </g>
   </g>
</svg>