<?xml version="1.0" encoding="utf-8"?>
<svg xmlns="http://www.w3.org/2000/svg" xmlns:dc="http://purl.org/dc/elements/1.1/"
     xmlns:xl="http://www.w3.org/1999/xlink"
     xmlns:xlink="http://www.w3.org/1999/xlink"
     version="1.1"
     viewBox="33.248434 94.6316 308.75157 170.8684"
     width="308.75157"
     height="170.8684"
     preserveAspectRatio="xMidYMid meet"
     zoomAndPan="magnify"
     contentScriptType="application/ecmascript"
     contentStyleType="text/css">
   <defs/>
   <metadata xmlns="" xmlns:svg="http://www.w3.org/2000/svg"
             xmlns:rdf="http://www.w3.org/1999/02/22-rdf-syntax-ns#"
             xmlns:cc="http://creativecommons.org/ns#">
      <rdf:RDF>
         <cc:Work rdf:about="">
            <dc:creator>
               <cc:Agent>
                  <dc:title>http://heraldicart.org Wildcat Passant.svg</dc:title>
               </cc:Agent>
            </dc:creator>
         </cc:Work>
      </rdf:RDF>
   </metadata>
   <g stroke-opacity="1" stroke-dasharray="none" stroke="#505050" fill="#ffff00"
      fill-opacity="1">
      <title>Wildcat Passant</title>
      <g>
         <title>Layer 2</title>
         <g>
            <g>
               <g  id="outline-0">
                  <path
                        d="M 251.18832 102.4509 C 251.18832 106.65168 250.37526 108.41329 247.66508 110.58144 C 243.1933 114.10467 239.67006 114.37569 241.02515 110.98796 C 244.14185 103.80599 242.92227 98.11461 239.53455 103.67048 C 238.58598 105.02557 235.33377 106.9227 232.08155 107.87126 C 222.73144 110.58144 214.7364 114.91772 212.02623 118.71197 C 206.06384 127.11353 207.41893 137.81873 215.41396 145.27173 C 219.75024 149.337 220.42779 149.60801 229.10036 149.20148 C 242.10922 148.65945 251.32382 147.57538 253.08544 146.22029 C 253.8985 145.67825 255.93113 145.27173 257.69274 145.40723 C 259.31885 145.40723 260.67394 145.0007 260.67394 144.45867 C 260.67394 142.29053 291.9765 144.05214 298.88746 146.4913 C 306.20495 149.20148 312.43836 154.48633 311.4898 157.061 C 309.72818 161.39729 306.20495 161.93932 294.41567 159.77118 C 287.64022 158.4161 276.12196 157.60304 266.0943 157.60304 C 251.32382 157.60304 247.52957 158.00957 237.09539 161.39729 C 230.45545 163.42992 219.75024 167.6307 213.38132 170.6119 C 179.6396 186.33093 167.7148 190.12518 166.0887 185.6534 C 165.54666 183.89177 176.38738 171.69597 178.42001 171.69597 C 178.96205 171.69597 181.53672 169.79884 184.2469 167.35968 C 188.98971 163.0234 200.23695 157.73855 201.72755 159.22915 C 202.5406 160.1777 209.18054 156.65448 209.18054 155.29939 C 209.18054 154.75735 207.96096 153.9443 206.60587 153.40226 C 204.97977 152.99573 204.30222 151.77615 204.70875 150.28556 C 204.97977 148.93047 204.0312 146.76232 202.5406 145.40723 C 200.9145 143.91664 199.69492 141.47747 199.69492 139.85137 C 199.69492 138.22526 197.9333 133.48245 195.76516 129.41718 L 191.6999 121.82868 L 194.8166 118.98299 C 196.4427 117.49239 198.33983 116.1373 198.88186 116.1373 C 200.37246 116.1373 205.11528 110.71695 205.11528 109.09084 C 205.11528 108.5488 200.23695 107.87126 194.27456 107.73575 C 178.42001 107.46473 176.6584 107.19371 168.66337 104.75455 C 159.31325 102.04437 154.29942 102.04437 133.43105 105.16108 C 124.08093 106.51617 115.54387 107.32922 114.32428 107.0582 C 112.02063 106.51617 108.90393 113.1561 108.90393 118.71197 C 108.90393 121.55766 120.15117 135.10855 122.72584 135.10855 C 123.26787 135.10855 123.40338 133.48245 122.99686 131.3143 C 122.31931 128.3331 122.45482 127.92658 123.94542 129.28167 C 126.6556 131.99185 128.01069 131.3143 127.06213 127.79107 C 126.52009 125.2164 126.92662 124.40335 129.90781 123.7258 C 134.51512 122.50622 136.00572 123.5903 136.00572 128.1976 C 136.00572 133.48245 131.2629 139.17382 126.7911 139.17382 C 120.15117 139.17382 118.93159 141.07095 122.59033 145.67825 L 125.84254 149.87903 L 137.3608 149.06598 C 151.0472 148.11741 150.9117 148.79496 135.7347 158.4161 C 129.36578 162.48136 121.37075 166.0046 113.78225 168.17274 C 107.27782 170.06986 100.09585 172.78004 97.9277 173.99962 C 93.59142 176.5743 92.64285 179.8265 96.4371 179.8265 C 98.06321 179.8265 96.84363 181.72363 92.37184 185.9244 C 87.62902 190.3962 84.91884 192.0223 81.93765 192.0223 C 79.634 192.0223 77.73687 191.34477 77.73687 190.53171 C 77.73687 189.71866 79.90501 184.2983 82.61519 178.60692 C 88.30657 166.41112 91.69429 152.72472 90.61022 146.76232 C 90.20369 144.45867 87.49351 137.95424 84.78334 132.26287 C 80.71807 123.5903 78.82094 121.28664 74.21364 118.84748 C 68.92879 115.86628 68.52226 115.86628 64.18598 118.03443 C 61.746815 119.25401 58.22358 120.20257 56.461967 120.20257 C 52.667716 120.20257 52.53221 121.55766 56.19095 126.16496 C 58.4946 129.01065 58.63011 129.6882 56.868493 129.6882 C 55.64891 129.6882 54.70035 130.63676 54.70035 131.99185 C 54.70035 134.83754 62.55987 141.884 65.81208 141.884 C 67.43819 141.884 69.0643 143.64562 70.41939 146.89783 C 73.265075 153.53777 71.90999 163.42992 66.48963 177.65836 C 61.746815 190.2607 53.48077 199.4753 42.23353 204.48913 C 35.051554 207.74135 33.15443 211.6711 39.38784 210.1805 C 44.26616 209.09644 48.06041 208.28338 51.04161 207.47033 C 52.26119 207.0638 53.34526 207.33482 53.34526 208.01237 C 53.34526 210.85805 44.8082 221.83428 39.794367 225.222 C 33.289938 229.6938 33.01892 231.1844 38.439277 231.04889 C 40.60742 230.91338 42.504546 230.37134 42.504546 229.5583 C 42.504546 228.88074 43.3176 228.60972 44.40167 229.01625 C 45.48574 229.42278 47.11185 228.88074 47.924903 227.79667 C 48.873466 226.7126 50.77059 225.89955 52.26119 225.89955 C 53.61628 225.89955 55.10688 224.95098 55.513404 223.8669 C 56.05544 222.78284 56.732984 222.1053 57.27502 222.3763 C 57.68155 222.64733 59.57867 222.1053 61.4758 221.15673 C 63.77945 219.93715 65.40556 219.80164 67.031664 220.88571 C 68.65777 221.96979 70.28388 221.56326 73.6716 219.1241 C 77.33034 216.54943 79.09196 216.1429 86.54495 216.68494 C 92.50735 217.22697 96.3016 218.31104 99.28279 220.6147 C 101.85746 222.51182 105.10968 223.7314 107.27782 223.46038 C 109.85249 223.18937 111.4786 224.00242 112.69818 226.03505 C 114.32428 228.60972 114.18878 229.28727 110.80105 232.8105 C 101.45094 242.70265 81.12459 246.90343 73.265075 240.80553 C 69.0643 237.55331 57.952565 237.1468 53.887297 240.12798 C 52.53221 241.21206 50.364064 242.16062 49.144484 242.16062 C 48.06041 242.16062 44.130653 244.05774 40.60742 246.2259 C 33.831973 250.56217 32.88341 253.54337 37.761733 256.25355 C 39.25233 257.0666 40.87844 258.28618 41.284965 258.96373 C 41.827 259.50576 42.640055 259.37025 43.18209 258.5572 C 43.859635 257.47313 44.67269 257.33762 45.75676 258.28618 C 50.499573 262.21594 72.181 262.75798 79.09196 259.09924 C 81.66663 257.74415 85.05435 256.38906 86.54495 256.25355 C 88.03555 255.98253 95.35303 254.35642 102.80602 252.73032 C 125.57153 247.58098 167.44379 249.20708 172.0511 255.305 C 173.5417 257.60864 173.8127 257.47313 175.3033 253.67888 C 177.33594 248.39403 177.33594 248.39403 173.6772 247.30996 L 170.5605 246.4969 L 173.6772 245.54834 C 175.98085 244.7353 176.6584 243.5157 176.6584 239.85697 C 176.6584 237.2823 176.25187 235.38517 175.70984 235.6562 C 175.0323 235.9272 172.99966 237.01128 170.96702 237.95984 C 166.49523 240.2635 163.1075 238.23086 163.1075 233.21703 C 163.1075 230.50685 164.19158 229.6938 170.96702 227.79667 C 175.1678 226.5771 179.91061 224.95098 181.4012 224.13793 C 182.8918 223.32488 185.05995 222.51182 186.14402 222.3763 C 187.2281 222.1053 188.8542 221.02122 189.66726 219.93715 C 190.4803 218.71757 191.8354 217.769 192.64845 217.769 C 194.27456 217.769 209.58707 205.84422 210.26462 203.9471 C 210.53563 203.40506 211.6197 202.86303 212.56827 202.86303 C 213.65234 202.86303 215.68497 200.9659 217.31108 198.79776 C 218.9372 196.4941 220.8343 195.0035 221.51186 195.54554 C 222.1894 195.95207 223.13796 195.27452 223.5445 194.19045 C 223.95102 192.97087 224.89958 192.29333 225.44162 192.69985 C 225.98365 193.10638 226.7967 192.42884 227.33874 191.34477 C 227.74527 190.2607 228.55832 189.31213 229.23587 189.31213 C 230.45545 189.31213 227.74527 204.0826 225.44162 210.31602 C 224.62856 212.34865 222.86695 215.73637 221.37635 217.90452 C 218.25964 222.1053 219.47922 223.7314 224.89958 222.3763 L 228.4228 221.42775 L 226.11916 225.0865 C 224.76407 226.98362 223.27347 228.60972 222.59593 228.60972 C 221.91838 228.60972 221.37635 229.8293 221.37635 231.3199 C 221.37635 234.57212 223.5445 234.84314 225.1706 231.86194 C 225.84814 230.64236 226.7967 229.8293 227.20323 229.8293 C 231.2685 230.37134 233.70766 229.42278 236.41784 226.5771 C 239.94107 222.91835 248.47814 221.69877 248.47814 224.81547 C 248.34263 228.3387 240.75413 237.2823 235.7403 239.99248 C 230.04892 242.83816 222.0539 243.3802 219.61473 240.94104 C 218.80168 240.12798 217.17557 239.45044 216.227 239.45044 C 213.65234 239.45044 201.32103 247.71648 197.12025 252.05277 C 193.86803 255.7115 194.27456 258.6927 198.0688 258.28618 C 199.4239 258.15067 200.64348 258.28618 201.05 258.4217 C 202.4051 258.82822 209.9936 259.77678 215.27845 260.1833 C 218.25964 260.31882 221.10533 260.99636 221.64737 261.6739 C 222.1894 262.48696 224.62856 262.35145 227.88078 261.4029 C 230.86197 260.45433 234.52072 259.77678 236.14682 259.77678 C 237.63742 259.77678 238.9925 259.09924 238.9925 258.4217 C 238.9925 257.60864 239.80556 257.0666 240.88964 257.0666 C 241.9737 257.0666 244.00634 255.576 245.49694 253.67888 C 246.98754 251.78175 248.74915 250.29115 249.2912 250.29115 C 251.0528 250.15565 256.60867 245.27732 256.60867 243.92223 C 256.60867 243.2447 258.77682 241.8896 261.487 241.07655 C 267.17837 239.31493 276.5285 241.7541 278.56112 245.41283 C 279.23867 246.6324 280.32274 247.58098 281.00028 247.58098 C 283.03292 247.58098 282.6264 243.78673 280.05172 239.99248 C 277.88358 236.60475 277.88358 236.33373 280.18723 235.11415 C 282.21986 233.89457 281.67783 232.946 275.71543 226.5771 C 267.99142 218.44655 266.0943 214.5168 266.0943 207.0638 C 266.0943 202.18548 269.0755 194.19045 271.37915 192.69985 C 273.00526 191.7513 275.71543 198.79776 275.98645 204.35362 C 275.98645 206.9283 275.57993 211.4001 275.0379 214.38129 L 273.8183 219.80164 L 276.7995 217.22697 L 279.6452 214.6523 L 279.6452 219.53063 C 279.6452 222.2408 280.32274 226.03505 281.1358 228.2032 L 282.6264 231.99745 L 284.2525 227.93218 C 285.20106 225.62853 287.3692 222.78284 288.8598 221.29224 C 291.56998 218.9886 292.38303 218.85308 298.0744 220.4792 C 305.5274 222.64733 312.16734 227.79667 312.16734 231.4554 C 312.16734 238.7729 304.30782 246.3614 300.24255 243.10918 C 296.71932 240.2635 276.7995 253.40786 279.9162 256.38906 C 281.4068 257.87966 307.56004 260.72534 310.2702 259.77678 C 314.19997 258.28618 320.02686 250.02014 322.60153 242.56715 C 326.8023 229.8293 330.05452 224.27344 333.98428 222.78284 C 337.64302 221.29224 340.6242 216.95596 340.6242 213.0262 C 340.6242 210.45153 339.94667 210.45153 335.7459 213.1617 C 331.68063 215.87188 330.32554 214.92332 332.4937 210.99356 C 334.5263 207.1993 333.17123 205.84422 330.05452 208.6899 C 327.20883 211.26458 318.80728 211.6711 314.742 209.63847 C 311.4898 207.87686 308.6441 200.9659 306.20495 189.17662 C 305.12087 184.1628 302.95273 177.65836 301.46213 174.67717 L 298.75195 169.39232 L 308.10207 170.06986 C 313.2514 170.34088 318.53626 170.20537 319.89135 169.66333 C 321.24644 168.98579 322.73704 168.71477 323.4146 168.71477 C 323.9566 168.85028 324.36314 168.44375 324.36314 167.7662 C 324.36314 167.08866 327.07332 166.1401 330.59656 165.59807 C 335.47488 164.92052 336.96548 163.97196 338.04955 161.39729 C 339.67565 156.78999 339.94667 157.061 334.2553 155.97693 C 329.648 155.16388 329.5125 154.89286 332.35817 153.9443 C 335.33937 152.72472 335.20386 150.01454 331.95164 150.01454 C 331.0031 150.01454 324.36314 147.03334 317.18117 143.3746 C 306.06944 137.68322 302.6817 136.59915 293.6026 135.92161 C 284.2525 135.10855 259.45436 137.2767 248.61365 139.71586 C 240.07658 141.61298 225.98365 141.884 222.73144 140.2579 C 218.66617 138.08975 217.4466 132.53388 220.6988 130.23023 C 223.27347 128.3331 233.03012 129.28167 236.95988 131.85634 C 239.94107 134.02448 246.581 134.2955 247.8006 132.39838 C 248.20712 131.72083 249.4267 131.44981 250.51077 131.99185 C 251.59484 132.39838 252.5434 131.99185 252.5434 131.1788 C 252.5434 130.36574 253.35646 129.6882 254.44053 129.6882 C 257.28622 129.6882 262.02903 121.15113 262.02903 116.0018 C 262.02903 109.22635 258.23478 100.41827 254.44053 98.65665 C 251.32382 97.30156 251.18832 97.43707 251.18832 102.4509 Z"
                        fill="black"/>
               </g>
            </g>
            <g>
               <path d="M 259.31885 116.67934 C 259.31885 123.04826 256.20215 126.43598 248.61365 128.3331 C 243.05778 129.6882 240.88964 129.55269 235.46928 127.65556 C 223.95102 123.7258 214.32988 128.46862 216.49803 137.14119 C 218.39515 144.45867 228.0163 145.54274 254.1695 141.20646 C 277.61256 137.4122 281.67783 137.14119 294.00914 138.36077 C 305.93393 139.71586 323.8211 147.8464 323.4146 151.77615 C 323.27907 153.53777 325.0407 155.16388 329.37697 157.061 C 334.2553 159.22915 335.06835 160.0422 333.71326 161.6683 C 332.7647 162.88789 329.648 163.56543 325.58272 163.56543 C 320.8399 163.56543 318.9428 164.10747 318.9428 165.46256 C 318.9428 168.30825 313.38692 169.1213 305.3919 167.6307 C 295.63525 165.73358 293.6026 167.4952 297.9389 173.86411 C 299.7005 176.43878 301.86866 182.13016 302.81722 186.33093 C 305.3919 199.4753 308.3731 207.33482 311.7608 210.72254 C 314.6065 213.56823 315.9616 213.97476 321.78847 213.43272 C 327.34434 212.89069 328.4284 213.1617 328.1574 214.92332 C 327.88638 216.41392 328.97045 217.22697 331.5451 217.498 C 334.66182 217.90452 335.06835 218.31104 333.71326 219.93715 C 332.9002 221.02122 331.2741 221.83428 330.32554 221.83428 C 328.1574 221.83428 322.466 232.675 320.97542 239.45044 C 319.75584 245.54834 317.31668 250.02014 313.2514 254.49193 C 310.67674 257.33762 309.05063 257.87966 304.98537 257.33762 C 301.0556 256.9311 299.97153 256.11804 299.97153 254.0854 C 299.97153 252.5948 301.0556 251.1042 302.6817 250.69768 C 305.79842 249.88463 306.34045 247.58098 303.49477 247.58098 C 302.4107 247.58098 299.97153 249.4781 298.20992 251.64624 C 294.6867 255.7115 290.2149 256.79558 286.55615 254.49193 C 284.93004 253.40786 284.93004 252.86582 286.82717 251.1042 C 287.91124 249.88463 289.80836 248.93607 290.89244 248.93607 C 291.9765 248.93607 293.6026 248.123 294.41567 247.03894 C 295.49974 245.81936 297.6679 245.41283 301.1911 245.81936 C 305.6629 246.4969 306.747 245.95487 309.8637 242.16062 C 314.06446 237.2823 315.55506 232.675 314.3355 228.2032 C 313.38692 224.13793 303.08824 217.90452 295.63525 216.95596 C 290.07938 216.1429 289.40184 216.41392 286.0141 220.4792 L 282.35537 224.81547 L 282.35537 217.90452 C 282.35537 213.29721 281.81334 210.99356 280.72926 210.99356 C 279.6452 210.99356 278.83214 208.6899 278.69663 204.89566 C 278.2901 192.69985 264.19717 171.69597 256.33766 171.69597 C 250.51077 171.69597 228.82934 185.11135 211.21318 199.4753 C 193.05498 214.24578 173.94822 226.03505 168.79888 225.76404 C 166.90175 225.62853 166.90175 225.49302 168.52786 225.0865 C 169.74744 224.67996 171.23804 223.05386 171.91558 221.42775 C 172.72864 219.80164 174.76127 217.769 176.38738 216.95596 C 178.42001 216.0074 179.09756 215.05883 178.149 214.5168 C 176.25187 213.29721 170.15397 217.6335 164.5981 223.8669 C 161.34589 227.52565 160.39732 229.9648 160.39732 234.1656 C 160.39732 238.7729 160.93936 239.72146 164.05607 240.94104 C 166.63074 241.8896 168.79888 241.8896 170.83151 240.94104 C 172.86415 239.99248 173.94822 239.99248 173.94822 240.80553 C 173.94822 241.61858 172.45762 242.83816 170.5605 243.5157 C 166.90175 244.8708 166.2242 246.90343 168.93439 248.123 C 169.74744 248.52954 165.68217 248.52954 159.71978 247.9875 C 143.18769 246.4969 112.56267 246.90343 103.8901 248.80056 C 99.55381 249.74912 89.79717 252.3238 82.07316 254.62744 C 70.5549 257.87966 66.76065 258.4217 60.12071 257.60864 L 52.12568 256.79558 L 54.97137 253.00133 C 56.868493 250.42666 58.4946 249.4781 60.391726 250.02014 C 62.55987 250.56217 62.966396 250.15565 62.55987 248.123 C 61.882324 244.46427 57.68155 245.54834 51.99017 251.1042 C 47.24736 255.576 43.859635 257.0666 43.859635 254.49193 C 43.859635 253.8144 44.8082 252.5948 45.89227 251.64624 C 46.97634 250.69768 47.924903 249.20708 47.924903 248.39403 C 47.924903 245.95487 57.54604 242.56715 64.5925 242.43164 C 69.33532 242.43164 71.90999 243.10918 73.80711 245.0063 C 75.70424 246.90343 78.27891 247.58098 84.10579 247.58098 C 93.72693 247.58098 102.67052 244.32876 108.63291 238.50188 C 111.07207 236.06272 113.78225 234.03008 114.32428 234.03008 C 116.0859 234.03008 122.99686 224.67996 122.0483 223.5959 C 121.50626 223.18937 120.28668 223.5959 119.2026 224.40895 C 117.5765 225.76404 116.62794 225.49302 114.4598 223.32488 C 112.83369 221.69877 111.6141 219.93715 111.6141 219.2596 C 111.6141 218.71757 109.85249 216.0074 107.54884 213.56823 C 105.3807 210.99356 103.48357 208.5544 103.48357 207.87686 C 103.48357 207.33482 102.53501 206.9283 101.45094 206.9283 C 100.36686 206.9283 99.4183 205.70871 99.4183 204.35362 C 99.4183 202.321 98.74076 201.91446 96.4371 202.592 L 93.45591 203.26955 L 96.4371 198.52674 C 100.36686 192.29333 100.23135 191.48027 95.35303 192.42884 C 88.8486 193.78393 90.06818 191.07375 99.14728 184.02728 C 105.5162 179.01345 106.32926 177.11633 101.85746 177.11633 C 98.87627 176.98082 98.87627 176.98082 102.26399 175.0837 C 104.29662 173.99962 107.81986 172.78004 110.12351 172.37351 C 117.84752 171.01842 127.60416 166.68214 137.2253 160.31322 C 142.51014 156.9255 147.38847 154.0798 148.06601 154.0798 C 148.74356 154.0798 149.55661 153.26675 149.96314 152.18268 C 150.50517 150.9631 151.99577 150.55657 154.29942 150.9631 C 156.73858 151.50514 158.3647 150.9631 159.71978 149.20148 C 160.80385 147.71089 161.6169 147.30436 161.75241 148.25292 C 161.75241 149.20148 162.70098 150.01454 163.78505 150.01454 C 165.27565 150.01454 165.81768 148.52394 165.81768 144.8652 C 165.68217 140.3934 165.54666 140.12239 163.92056 142.15502 C 162.972 143.51011 161.07487 144.59418 159.85529 144.59418 C 158.6357 144.59418 157.68715 145.54274 157.68715 146.76232 C 157.68715 148.52394 157.0096 148.79496 154.0284 147.8464 C 151.86026 147.16885 144.9493 146.62681 138.58039 146.76232 C 128.41721 146.89783 126.6556 146.62681 125.30051 144.18765 C 124.35195 142.83256 124.21644 142.01951 124.89398 142.42604 C 127.06213 143.78113 132.61799 141.07095 134.92164 137.54772 C 138.17386 132.6694 138.98691 125.2164 136.81877 122.2352 C 134.92164 119.66054 134.78613 119.66054 125.30051 122.0997 C 117.5765 124.13233 115.27285 124.26784 113.64674 122.91275 C 110.66554 120.33808 111.07207 116.1373 114.32428 116.1373 C 115.95039 116.1373 117.5765 114.91772 118.25404 113.0206 C 119.33812 110.31042 121.09973 109.63287 132.21146 108.00677 C 149.82763 105.29659 165.54666 105.29659 167.5793 108.14228 C 168.52786 109.36186 170.5605 110.17491 172.32211 110.0394 C 174.08373 109.90389 175.70984 110.31042 176.11636 110.98796 C 177.06492 112.47856 183.02732 112.34305 184.1114 110.71695 C 184.65343 109.90389 186.14402 109.90389 188.31217 110.71695 C 190.2093 111.53 193.326 112.07203 195.35863 112.07203 L 198.88186 112.07203 L 194.13905 116.95036 C 185.7375 125.75844 179.6396 127.52005 174.49025 122.77724 C 171.50906 120.06706 168.52786 120.20257 168.52786 123.04826 C 168.52786 123.86131 169.0699 123.99682 169.88295 123.5903 C 170.5605 123.18377 172.45762 124.40335 174.08373 126.16496 C 176.52289 128.87514 177.47145 129.28167 178.96205 128.06209 C 180.45265 126.84251 181.1302 126.84251 182.07876 128.1976 C 182.7563 129.41718 183.29834 129.55269 183.97588 128.46862 C 185.33097 126.30047 187.09259 127.79107 189.66726 133.07592 C 194.54558 143.3746 188.04115 154.89286 170.01846 168.30825 C 162.15894 174.13513 157.41613 178.60692 156.8741 180.77507 C 155.79002 184.70483 157.28062 186.60195 158.5002 183.07872 C 160.1263 178.60692 173.13517 167.7662 174.76127 169.39232 C 175.3033 169.79884 173.27067 172.1025 170.5605 174.54166 C 164.86912 179.55549 162.70098 184.02728 163.78505 188.36357 C 164.4626 190.93824 165.54666 191.34477 170.28948 191.20926 C 176.52289 190.93824 185.33097 187.82153 189.12522 184.2983 C 190.4803 183.07872 191.56438 182.53668 191.56438 183.07872 C 191.56438 183.48525 193.326 183.07872 195.49414 181.99465 C 197.66228 180.77507 199.69492 180.23303 199.96594 180.63956 C 200.37246 180.91058 201.45653 180.36854 202.4051 179.14896 C 203.35366 178.06489 205.25078 177.11633 206.60587 177.11633 C 208.09647 177.11633 209.18054 176.5743 209.18054 176.03225 C 209.18054 174.81267 218.66617 171.01842 220.42779 171.42495 C 220.96982 171.56046 221.37635 171.01842 221.37635 170.20537 C 221.37635 169.52783 222.0539 169.2568 222.73144 169.66333 C 223.5445 170.06986 224.08653 169.79884 224.08653 169.1213 C 224.08653 168.30825 224.49305 167.7662 225.1706 167.90172 C 225.71263 168.03723 228.2873 167.35968 230.86197 166.41112 C 233.43664 165.32705 237.3664 164.24298 239.67006 163.97196 C 241.8382 163.56543 244.00634 162.88789 244.41287 162.34585 C 244.8194 161.93932 249.2912 161.26178 254.57604 160.99076 C 259.72538 160.85525 264.7392 160.0422 265.68777 159.36466 C 266.63634 158.4161 267.4494 158.5516 268.12693 159.50016 C 268.53346 160.31322 269.61753 160.58424 270.29508 160.0422 C 270.97262 159.63567 278.1546 160.31322 286.14962 161.5328 C 303.9013 164.37849 307.69554 164.37849 310.94776 161.39729 C 318.80728 154.35082 309.59267 146.08478 288.45327 141.20646 C 280.59376 139.30933 278.2901 139.30933 266.50083 141.20646 C 238.17946 145.81376 231.404 146.4913 224.08653 145.13622 C 217.85312 144.05214 216.227 143.23909 213.65234 139.30933 C 209.04503 132.39838 209.45156 124.80987 214.7364 119.1185 C 217.04006 116.54383 219.75024 114.91772 220.8343 115.32425 C 221.91838 115.73078 222.73144 115.18874 222.73144 114.10467 C 222.73144 112.88509 224.08653 112.07203 225.84814 111.93653 C 227.47425 111.93653 231.2685 111.66551 234.2497 111.25898 L 239.67006 110.71695 L 236.01131 113.0206 C 233.84317 114.37569 232.21706 115.86628 232.21706 116.54383 C 232.21706 118.30545 236.14682 119.25401 238.7215 118.03443 C 239.94107 117.49239 241.8382 117.22137 242.78676 117.35688 C 243.59981 117.49239 244.41287 116.95036 244.41287 116.0018 C 244.41287 115.18874 245.36143 114.91772 246.581 115.32425 C 248.0716 115.86628 249.02017 115.18874 249.4267 113.42712 C 249.83323 111.93653 250.64628 110.71695 251.32382 110.71695 C 251.86586 110.71695 252.81442 108.5488 253.35646 105.83862 L 254.30502 100.9603 L 256.74418 106.65168 C 258.23478 109.76838 259.31885 114.24018 259.31885 116.67934 Z"/>
            </g>
            <g>
               <path d="M 115.67937 112.07203 C 115.67937 112.74958 115.13734 113.42712 114.32428 113.42712 C 113.64674 113.42712 112.9692 112.74958 112.9692 112.07203 C 112.9692 111.25898 113.64674 110.71695 114.32428 110.71695 C 115.13734 110.71695 115.67937 111.25898 115.67937 112.07203 Z"/>
            </g>
            <g>
               <path d="M 72.31651 121.28664 C 72.31651 121.82868 73.6716 122.91275 75.29771 123.5903 C 79.90501 125.75844 88.57759 142.42604 88.57759 149.20148 C 88.57759 156.78999 85.32537 167.6307 79.49849 178.74243 C 76.92382 183.62076 74.75567 189.44764 74.620165 191.61578 C 74.34915 195.0035 74.75567 195.41003 78.414415 195.54554 C 80.71807 195.54554 83.29274 195.0035 84.2413 194.32596 C 85.05435 193.64842 85.86741 193.5129 85.86741 194.19045 C 85.86741 194.868 86.40944 196.22309 87.08699 197.30716 C 88.17106 198.93327 88.71309 198.93327 90.47471 197.57818 C 93.18489 195.27452 93.18489 197.03614 90.61022 203.26955 C 87.76453 210.1805 88.03555 211.4001 91.8298 208.96093 C 94.53998 207.1993 95.35303 207.0638 96.3016 208.5544 C 96.84363 209.50296 98.60525 210.31602 100.09585 210.31602 C 102.12848 210.31602 102.80602 211.26458 102.80602 214.11027 C 102.94153 216.95596 102.3995 217.6335 100.77339 216.95596 C 99.68932 216.41392 95.08201 215.19434 90.74573 213.97476 C 83.56375 212.07763 82.20867 212.07763 77.05933 214.11027 C 72.99406 215.46536 70.825914 215.73637 69.87735 214.7878 C 68.79328 213.70374 66.21861 214.5168 61.20478 217.09146 C 57.27502 219.2596 52.53221 221.69877 50.63508 222.64733 C 46.02778 225.222 45.75676 224.00242 49.95754 219.2596 C 56.597476 211.80662 59.9852 201.50794 55.78442 201.50794 C 54.83586 201.50794 56.32646 199.20428 59.036636 196.3586 C 62.42436 192.97087 65.541066 187.2795 68.65777 179.14896 C 74.34915 164.514 75.839745 155.16388 73.6716 147.43987 C 72.45202 142.69706 71.23244 141.34197 66.35412 138.9028 C 63.23741 137.4122 59.9852 135.10855 59.172145 133.88897 C 57.952565 131.99185 58.4946 131.72083 62.83089 132.12736 C 71.77448 133.07592 71.36795 128.06209 62.42436 126.02946 C 60.391726 125.62293 58.35909 124.67437 57.817056 123.86131 C 57.27502 123.04826 57.817056 122.77724 59.036636 123.31928 C 60.25622 123.7258 62.28885 123.18377 63.77945 122.2352 C 66.35412 120.20257 72.31651 119.52503 72.31651 121.28664 Z"/>
            </g>
            <g>
               <path d="M 191.56438 127.65556 C 191.56438 128.73963 192.10642 129.6882 192.64845 129.6882 C 193.326 129.6882 194.54558 132.26287 195.49414 135.37957 C 196.4427 138.63179 197.7978 142.56155 198.47534 144.32316 C 199.15288 146.08478 199.69492 148.93047 199.69492 150.69208 C 199.69492 152.4537 200.50797 154.0798 201.45653 154.48633 C 203.21815 155.16388 201.59204 155.97693 195.62965 157.33202 C 193.73252 157.73855 188.98971 160.1777 185.19546 162.75238 C 181.2657 165.32705 178.01349 167.22417 178.01349 166.95316 C 178.01349 166.68214 180.45265 164.10747 183.43384 161.26178 C 187.09259 157.87406 189.80277 153.53777 191.56438 148.25292 C 194.41007 140.2579 194.27456 136.32813 190.61582 129.28167 C 189.53175 127.11353 189.39624 125.62293 190.2093 125.62293 C 190.88684 125.62293 191.56438 126.57149 191.56438 127.65556 Z"/>
            </g>
            <g>
               <path d="M 262.70658 178.60692 C 265.41675 181.04609 268.39795 184.56932 269.48202 186.60195 C 271.24364 189.98968 271.24364 190.66722 269.3465 192.15782 C 268.26244 193.10638 266.36532 195.68105 265.14574 197.9847 C 260.80945 206.38626 266.0943 225.76404 273.41178 227.79667 C 276.39298 228.60972 275.57993 232.13296 272.3277 231.59092 C 270.97262 231.3199 270.15957 232.13296 270.15957 233.75906 C 270.15957 235.7917 268.94 236.60475 264.87472 237.2823 C 261.08047 237.82433 256.33766 240.67002 249.02017 246.4969 C 242.38023 251.64624 236.41784 255.305 233.03012 256.11804 C 227.47425 257.33762 217.4466 257.60864 216.36252 256.52457 C 215.14294 255.4405 218.80168 250.29115 220.6988 250.29115 C 221.78288 250.29115 222.73144 249.6136 222.73144 248.93607 C 222.73144 246.2259 217.7176 247.71648 213.92336 251.64624 C 209.9936 255.7115 206.06384 256.66008 202.5406 254.49193 C 201.05 253.54337 201.59204 252.73032 204.57324 250.8332 C 206.74138 249.3426 209.45156 247.17445 210.67114 245.68385 C 212.56827 243.3802 213.2458 243.2447 219.88575 245.0063 C 225.44162 246.3614 227.88078 246.3614 231.133 245.14182 C 233.43664 244.32876 235.8758 243.92223 236.41784 244.32876 C 237.09539 244.7353 237.63742 244.32876 237.63742 243.5157 C 237.63742 242.70265 239.12802 241.48307 241.02515 240.80553 C 242.92227 240.12798 244.41287 238.6374 244.41287 237.4178 C 244.41287 236.33373 244.9549 235.38517 245.63245 235.38517 C 246.31 235.38517 248.0716 232.8105 249.69772 229.5583 L 252.5434 223.8669 L 249.69772 221.42775 C 245.90347 218.31104 243.4643 218.58206 236.41784 222.51182 C 230.04892 226.17056 228.0163 225.89955 230.59096 221.83428 C 233.16563 217.769 232.6236 214.7878 229.6424 215.73637 C 227.20323 216.41392 227.20323 216.1429 228.96485 211.4001 C 229.9134 208.5544 230.72647 203.9471 230.86197 201.23692 C 230.86197 196.62961 233.03012 189.58315 235.06275 187.95704 C 235.46928 187.55051 236.14682 186.19543 236.68886 184.84034 C 237.2309 183.62076 238.7215 182.13016 239.94107 181.58812 C 241.29616 181.1816 243.3288 179.96201 244.41287 179.14896 C 246.581 177.38734 253.49197 174.67717 256.20215 174.54166 C 257.1507 174.40615 259.9964 176.30327 262.70658 178.60692 Z"/>
            </g>
            <g>
               <g  id="outline-1">
                  <path
                        d="M 139.39344 110.58144 C 138.17386 111.80102 138.7159 113.56263 140.07098 112.74958 C 140.74853 112.34305 142.10362 113.42712 143.05218 115.32425 C 144.8138 119.25401 147.11745 119.79604 149.55661 116.95036 C 150.36966 115.86628 153.35086 114.24018 156.06104 113.29161 C 165.54666 110.31042 164.19158 109.22635 151.86026 109.49736 C 145.35583 109.76838 139.66446 110.17491 139.39344 110.58144 Z"
                        fill="black"/>
               </g>
            </g>
            <g>
               <path d="M 150.9117 112.61407 C 150.9117 113.83365 146.84643 114.5112 146.16889 113.42712 C 145.62685 112.61407 146.57541 112.07203 148.06601 112.07203 C 149.69212 112.07203 150.9117 112.34305 150.9117 112.61407 Z"/>
            </g>
            <g>
               <g  id="outline-2">
                  <path
                        d="M 146.16889 163.56543 C 143.18769 164.92052 135.7347 168.44375 129.50129 171.15393 C 117.16997 176.7098 111.20758 182.13016 108.90393 190.2607 C 107.0068 196.4941 107.68435 208.5544 109.85249 209.23195 C 110.93656 209.63847 111.20758 207.47033 110.66554 201.91446 C 109.31045 187.68602 115.81488 179.28447 133.83757 171.83148 C 146.98194 166.41112 157.0096 160.58424 152.67332 160.99076 C 151.99577 160.99076 149.15008 162.21034 146.16889 163.56543 Z"
                        fill="black"/>
               </g>
            </g>
         </g>
      </g>
   </g>
</svg>