<?xml version="1.0" encoding="UTF-8" standalone="no"?>
<svg
   version="1.1"
   id="svg73257"
   height="197"
   width="956"
   xmlns="http://www.w3.org/2000/svg"
   xmlns:svg="http://www.w3.org/2000/svg"
   xmlns:rdf="http://www.w3.org/1999/02/22-rdf-syntax-ns#"
   xmlns:cc="http://creativecommons.org/ns#"
   xmlns:dc="http://purl.org/dc/elements/1.1/">
  <defs
     id="defs73259" />
  <metadata
     id="metadata73262">
    <rdf:RDF>
      <cc:Work
         rdf:about="">
        <dc:format>image/svg+xml</dc:format>
        <dc:type
           rdf:resource="http://purl.org/dc/dcmitype/StillImage" />
        <dc:creator>
          <cc:Agent>
            <dc:title>https://commons.wikimedia.org/wiki/File:Gentleman_coat_of_arms_template.svg</dc:title>
          </cc:Agent>
        </dc:creator>
      </cc:Work>
    </rdf:RDF>
  </metadata>
  <g
     id="g894"
     style="fill:#f2f2f2;stroke:#000000"
     transform="matrix(1.4472677,0,0,1.3457092,-67.053294,-948.08901)">
    <g
       id="g3274"
       transform="rotate(20.219891,194.27507,274.43904)">
      <g
         id="g3270">
        <path
           style="fill:#fcfcfc;fill-rule:evenodd;stroke:#808080;stroke-width:3.75"
           d="m 302,749.78125 c -16.46167,-0.62853 -24.82067,-1.2849 -25.75,-1.25 -0.64267,0.0241 4.54926,-8.38072 10.78125,-15.59375 6.05069,-7.00317 -15.89372,-12.55161 -35.59375,-12.21875 -11.82002,0.19972 -22.83237,2.51329 -26.53125,7.90625 -6.15837,8.97888 -0.14694,20.50058 1.875,31.1875 3.09409,16.35377 -1.12775,27.43279 -0.0312,28.09375 13.27833,8.00369 46.81402,10.46309 75.25,11.5"
           id="path2218" />
        <path
           id="path2220"
           d="m 277.43086,748.41082 c -23.4323,-0.42772 -57.6399,0.0424 -54.66053,-15.88565"
           style="fill:none;fill-opacity:0.75;fill-rule:evenodd;stroke-width:3.75" />
      </g>
      <path
         style="fill:none;fill-opacity:0.75;fill-rule:evenodd;stroke:#808080;stroke-width:2.5"
         d="m 253.73821,747.91393 c -0.12293,-5.46806 -5.87508,-17.1243 -3.04704,-14.26962 3.00732,3.03564 41.12574,4.67769 35.5415,-5.33525"
         id="path2222" />
      <path
         style="fill:#999999;fill-rule:evenodd;stroke:none;stroke-width:3.55434"
         d="m 250.02677,733.84359 c 11.5874,2.25019 19.90557,1.97971 28.68801,0.5633 -1.15215,2.11969 5.89213,-0.69471 6.82825,-2.81237 3.57026,-8.07654 -17.62803,-8.82738 -35.96169,-8.79495 -11.0002,0.0195 -21.21754,2.09128 -24.58171,7.24287 -0.30026,10.20948 -11.98468,14.38319 27.36805,16.56631"
         id="path1132" />
      <path
         id="path1134"
         d="m 277.43086,748.41082 c -23.4323,-0.42772 -57.6399,0.0424 -54.66053,-15.88565"
         style="fill:none;fill-opacity:0.75;fill-rule:evenodd;stroke:#808080;stroke-width:3.75" />
    </g>
    <g
       id="g3328"
       transform="translate(-3.2749549,0.5)">
      <path
         id="path3284"
         d="m 625.93407,756.58064 c 15.20247,-6.34559 22.80415,-9.88371 23.687,-10.17601 0.61053,-0.20215 -7.1928,-6.26065 -15.55374,-10.83888 -8.1177,-4.44503 10.50081,-17.31723 29.07337,-23.8946 11.14354,-3.94642 22.26964,-5.63002 27.62092,-1.87109 8.90949,6.25833 7.30684,19.15477 9.14984,29.874 2.82029,16.40321 10.64996,25.30629 9.85383,26.30897 -9.64099,12.14184 -40.19915,26.17359 -66.47706,37.08926"
         style="fill:#fcfcfc;fill-rule:evenodd;stroke:#808080;stroke-width:3.75" />
      <path
         style="fill:none;fill-opacity:0.75;fill-rule:evenodd;stroke:#808080;stroke-width:3.75"
         d="m 648.47266,746.70476 c 21.80319,-8.59513 54.01532,-20.11729 45.65393,-33.99774"
         id="path3286" />
      <path
         id="path3288"
         d="m 670.49558,737.95378 c -1.79705,-5.16579 -0.48435,-18.09761 -2.13553,-14.43419 -1.75585,3.89564 -36.89322,18.76425 -35.16316,7.43069"
         style="fill:none;fill-opacity:0.75;fill-rule:evenodd;stroke:#808080;stroke-width:2.5" />
    </g>
    <path
       style="fill:none;fill-rule:evenodd;stroke:#808080;stroke-width:3.75"
       d="m 622.80548,756.96969 c -144.33502,62.4481 -349.32583,62.4481 -493.66087,0"
       id="path3304" />
    <path
       style="fill:none;fill-rule:evenodd;stroke:#808080;stroke-width:3.75"
       d="m 640.2593,803.4301 c -153.66408,62.32493 -373.40441,62.82493 -527.06849,0.5"
       id="path3313" />
    <path
       style="fill:#999999;fill-rule:evenodd;stroke:none;stroke-width:3.55434"
       d="m 665.08671,723.31467 c -10.09559,6.11639 -17.99461,8.73754 -26.72537,10.44384 1.81376,1.59085 -5.76912,1.38457 -7.37947,-0.27904 -6.14168,-6.34484 13.49072,-14.37604 30.70574,-20.68217 10.32903,-3.78363 20.63277,-5.37089 25.57012,-1.69951 3.8104,9.47652 16.21728,9.3546 -19.95572,25.00444"
       id="path3199" />
  </g>
  <g
     style="fill:#f2f2f2;stroke:#000000"
     transform="matrix(1.51679,0,0,1.23219,-7.12097,-859.38)"
     id="g1655">
    <path
       style="fill:#ffffff;stroke:none;stroke-width:0.716556px"
       d="m 129.14461,756.96969 -15.9538,46.96041 c 173.76768,66.51507 347.01943,58.11378 527.06848,-0.5 l -17.45382,-46.46041 c -188.94654,69.80707 -351.93655,57.41114 -493.66086,0 z"
       id="path3389"
       transform="matrix(0.95416485,0,0,1.092128,-39.512605,-71.992964)" />
    <path
       id="textPath"
       d="M 29.895111,777.14746 C 99.313207,817.5186 224.76166,852.46511 319.784,850.96108 416.86248,849.42451 566.79252,814.30281 609.96176,774.80606"
       style="fill:none;fill-rule:evenodd;stroke-width:1px" />
  </g>
</svg>
