<?xml version="1.0" encoding="UTF-8" standalone="no"?>
<svg xmlns:dc="http://purl.org/dc/elements/1.1/"
                xmlns:cc="http://creativecommons.org/ns#"
                xmlns:rdf="http://www.w3.org/1999/02/22-rdf-syntax-ns#"
                xmlns:svg="http://www.w3.org/2000/svg"
                xmlns="http://www.w3.org/2000/svg"
                width="500"
                height="500"
                version="1.1" >
  <metadata>
    <rdf:RDF>
      <cc:Work rdf:about="">
        <dc:format>image/svg+xml</dc:format>
        <dc:type rdf:resource="http://purl.org/dc/dcmitype/StillImage"/>
        <cc:license rdf:resource=""/>
        <dc:title/>
        <dc:creator>
          <cc:Agent>
            <dc:title>(Drawshield internal)</dc:title>
          </cc:Agent>
        </dc:creator>
      </cc:Work>
    </rdf:RDF>
  </metadata>
<g  style="fill:#ffff00;fill-opacity:1;fill-rule:evenodd;stroke:#000000;stroke-width:3;stroke-linecap:butt;stroke-linejoin:miter;stroke-miterlimit:4;stroke-opacity:1;stroke-dasharray:none" id="body"><path d="M 0,250 a 250,250 0,0,1 500,0 a 250,250 0,0,1 -500,0 z M 19.6875,250 a 230.3125,230.3125 0,0,1 460.625,0 a 230.3125,230.3125 0,0,1 -460.625,0 z" fill-rule="evenodd" />
<path d="M 28.125,250 a 221.875,221.875 0,0,1 443.75,0 a 221.875,221.875 0,0,1 -443.75,0 z M 47.8125,250 a 202.1875,202.1875 0,0,1 404.375,0 a 202.1875,202.1875 0,0,1 -404.375,0 z" fill-rule="evenodd" />
<path d="M 56.25,250 a 193.75,193.75 0,0,1 387.5,0 a 193.75,193.75 0,0,1 -387.5,0 z M 75.9375,250 a 174.0625,174.0625 0,0,1 348.125,0 a 174.0625,174.0625 0,0,1 -348.125,0 z" fill-rule="evenodd" />
<path d="M 84.375,250 a 165.625,165.625 0,0,1 331.25,0 a 165.625,165.625 0,0,1 -331.25,0 z M 104.0625,250 a 145.9375,145.9375 0,0,1 291.875,0 a 145.9375,145.9375 0,0,1 -291.875,0 z" fill-rule="evenodd" />
<path d="M 112.5,250 a 137.5,137.5 0,0,1 275,0 a 137.5,137.5 0,0,1 -275,0 z M 132.1875,250 a 117.8125,117.8125 0,0,1 235.625,0 a 117.8125,117.8125 0,0,1 -235.625,0 z" fill-rule="evenodd" />
<path d="M 140.625,250 a 109.375,109.375 0,0,1 218.75,0 a 109.375,109.375 0,0,1 -218.75,0 z M 160.3125,250 a 89.6875,89.6875 0,0,1 179.375,0 a 89.6875,89.6875 0,0,1 -179.375,0 z" fill-rule="evenodd" />
<path d="M 168.75,250 a 81.25,81.25 0,0,1 162.5,0 a 81.25,81.25 0,0,1 -162.5,0 z M 188.4375,250 a 61.5625,61.5625 0,0,1 123.125,0 a 61.5625,61.5625 0,0,1 -123.125,0 z" fill-rule="evenodd" />
<path d="M 196.875,250 a 53.125,53.125 0,0,1 106.25,0 a 53.125,53.125 0,0,1 -106.25,0 z M 216.5625,250 a 33.4375,33.4375 0,0,1 66.875,0 a 33.4375,33.4375 0,0,1 -66.875,0 z" fill-rule="evenodd" />
</g>
</svg>
