<?xml version="1.0" encoding="UTF-8" standalone="no"?>
<svg xmlns:dc="http://purl.org/dc/elements/1.1/"
                xmlns:cc="http://creativecommons.org/ns#"
                xmlns:rdf="http://www.w3.org/1999/02/22-rdf-syntax-ns#"
                xmlns:svg="http://www.w3.org/2000/svg"
                xmlns="http://www.w3.org/2000/svg"
                width="370"
                height="370"
                version="1.1" >
  <metadata>
    <rdf:RDF>
      <cc:Work rdf:about="">
        <dc:format>image/svg+xml</dc:format>
        <dc:type rdf:resource="http://purl.org/dc/dcmitype/StillImage"/>
        <cc:license rdf:resource=""/>
        <dc:title/>
        <dc:creator>
          <cc:Agent>
            <dc:title>(Drawshield internal)</dc:title>
          </cc:Agent>
        </dc:creator>
      </cc:Work>
    </rdf:RDF>
  </metadata>
<g style="fill:#ffff00;fill-opacity:1;fill-rule:evenodd;stroke:#000000;stroke-width:3;stroke-linecap:butt;stroke-linejoin:miter;stroke-miterlimit:4;stroke-opacity:1;stroke-dasharray:none" id="body"><path d="m 212,248 -18,19 -9,9 -91,-91 28,-27 18,18 -9,9 54,54 9,-9 18,18 z m -36,-108 -18,-18 27,-28 91,91 -28,27 -18,-18 9,-9 -54,-54 -9,9 z M 19.7,2 176,158 158,176 1.6,20 19.7,2 z M 212,194 371,351 351,371 194,212 212,194 z m -18,-36 18,18 -36,36 -18,-18 36,-36 z m -72,72 18,18 L 19.6,367 1.5,351 122,230 z M 351,1 367,20 248,140 230,122 351,1 z" /></g>
</svg>
