<?xml version="1.0" encoding="UTF-8" standalone="no"?>
<!DOCTYPE svg PUBLIC "-//W3C//DTD SVG 1.1//EN" "http://www.w3.org/Graphics/SVG/1.1/DTD/svg11.dtd">
<svg xmlns:dc="http://purl.org/dc/elements/1.1/" xmlns:xl="http://www.w3.org/1999/xlink" version="1.1" xmlns="http://www.w3.org/2000/svg" viewBox="34.9375 62.029285 294.625 276.55854" width="294.625" height="276.55854">
  <defs>
    <clipPath id="artboard_clip_path">
      <path d="M 34.9375 62.029285 L 329.5625 62.029285 L 329.5625 338.58783 L 34.9375 338.58783 Z"/>
    </clipPath>
  </defs>
  <metadata> Produced by OmniGraffle 7.8 
    <dc:date>2018-07-22 18:17:42 +0000</dc:date><dc:title>Traceable heraldic art http://heraldicart.org/credits.html</dc:title>
  </metadata>
  <g id="Valknut_(1)" fill-opacity="1" stroke-dasharray="none" stroke="none" stroke-opacity="1" fill="#ffff00">
    <title>Valknut (1)</title>
    <g id="Valknut_(1): Layer 2" >
      <title>Layer 2</title>
      <g id="Group_171">
        <g id="Group_172">
          <title>group2-1</title>
          <g id="Group_183">
            <title>shape3-2</title>
            <g id="Graphic_184">
              <path d="M 243.77144 234.1747 L 222.5068 234.1747 L 234.8648 255.5785 L 256.12942 255.5785 L 281.13763 255.5785 L 327.24347 255.5785 L 216.0634 63 L 169.87407 143.00678 L 182.38513 164.675 L 216.0634 106.32251 L 289.8912 234.1747 L 268.77965 234.1747 Z" fill="#ff0000"/>
              <path d="M 243.77144 234.1747 L 222.5068 234.1747 L 234.8648 255.5785 L 256.12942 255.5785 L 281.13763 255.5785 L 327.24347 255.5785 L 216.0634 63 L 169.87407 143.00678 L 182.38513 164.675 L 216.0634 106.32251 L 289.8912 234.1747 L 268.77965 234.1747 Z" stroke="#cccccc" stroke-linecap="butt" stroke-linejoin="round" stroke-width="2"/>
            </g>
          </g>
          <g id="Group_181">
            <title>shape4-4</title>
            <g id="Graphic_182">
              <path d="M 197.49888 234.1747 L 209.85686 255.5785 L 221.0041 274.8809 L 167.36935 274.8809 L 155.01137 296.2847 L 258.35636 296.2847 L 234.86507 255.5785 L 222.5071 234.1747 L 206.68387 206.77284 L 194.18672 228.42713 Z" fill="#ff0000"/>
              <path d="M 197.49888 234.1747 L 209.85686 255.5785 L 221.0041 274.8809 L 167.36935 274.8809 L 155.01137 296.2847 L 258.35636 296.2847 L 234.86507 255.5785 L 222.5071 234.1747 L 206.68387 206.77284 L 194.18672 228.42713 Z" stroke="#cccccc" stroke-linecap="butt" stroke-linejoin="round" stroke-width="2"/>
            </g>
          </g>
          <g id="Group_179">
            <title>shape5-6</title>
            <g id="Graphic_180">
              <path d="M 157.36704 164.675 L 104.88738 255.5785 L 153.49822 255.5785 L 178.50642 255.5785 L 209.8467 255.5785 L 197.50264 234.1747 L 190.8644 234.1747 L 165.8562 234.1747 L 142.25357 234.1747 L 169.8781 186.3293 Z" fill="#ff0000"/>
              <path d="M 157.36704 164.675 L 104.88738 255.5785 L 153.49822 255.5785 L 178.50642 255.5785 L 209.8467 255.5785 L 197.50264 234.1747 L 190.8644 234.1747 L 165.8562 234.1747 L 142.25357 234.1747 L 169.8781 186.3293 Z" stroke="#cccccc" stroke-linecap="butt" stroke-linejoin="round" stroke-width="2"/>
            </g>
          </g>
          <g id="Group_177">
            <title>shape6-8</title>
            <g id="Graphic_178">
              <path d="M 157.36704 164.675 L 169.8781 186.3293 L 181.67942 206.77284 L 194.17656 185.11854 L 182.37525 164.675 L 169.8781 143.00678 L 147.18006 103.70618 L 36 296.2847 L 130.00692 296.2847 L 142.35098 274.8809 L 73.36619 274.8809 L 147.18006 147.02869 Z" fill="#ff0000"/>
              <path d="M 157.36704 164.675 L 169.8781 186.3293 L 181.67942 206.77284 L 194.17656 185.11854 L 182.37525 164.675 L 169.8781 143.00678 L 147.18006 103.70618 L 36 296.2847 L 130.00692 296.2847 L 142.35098 274.8809 L 73.36619 274.8809 L 147.18006 147.02869 Z" stroke="#cccccc" stroke-linecap="butt" stroke-linejoin="round" stroke-width="2"/>
            </g>
          </g>
          <g id="Group_175">
            <title>shape7-10</title>
            <g id="Graphic_176">
              <path d="M 243.7777 234.18167 L 268.7859 234.18167 L 217.32217 145.04557 L 194.1788 185.11158 L 181.68164 206.7798 L 165.85842 234.18167 L 190.86663 234.18167 L 194.1788 228.4341 L 206.68985 206.7798 L 217.32217 188.35416 Z" fill="#ff0000"/>
              <path d="M 243.7777 234.18167 L 268.7859 234.18167 L 217.32217 145.04557 L 194.1788 185.11158 L 181.68164 206.7798 L 165.85842 234.18167 L 190.86663 234.18167 L 194.1788 228.4341 L 206.68985 206.7798 L 217.32217 188.35416 Z" stroke="#cccccc" stroke-linecap="butt" stroke-linejoin="round" stroke-width="2"/>
            </g>
          </g>
          <g id="Group_173">
            <title>shape8-12</title>
            <g id="Graphic_174">
              <path d="M 256.13346 255.5785 L 291.1338 316.2133 L 143.50607 316.2133 L 155.01513 296.2847 L 167.3592 274.8809 L 178.50642 255.5785 L 153.49822 255.5785 L 142.35098 274.8809 L 130.00692 296.2847 L 106.13988 337.6171 L 328.5 337.6171 L 281.14166 255.5785 Z" fill="#ff0000"/>
              <path d="M 256.13346 255.5785 L 291.1338 316.2133 L 143.50607 316.2133 L 155.01513 296.2847 L 167.3592 274.8809 L 178.50642 255.5785 L 153.49822 255.5785 L 142.35098 274.8809 L 130.00692 296.2847 L 106.13988 337.6171 L 328.5 337.6171 L 281.14166 255.5785 Z" stroke="#cccccc" stroke-linecap="butt" stroke-linejoin="round" stroke-width="2"/>
            </g>
          </g>
        </g>
      </g>
    </g>
  </g>
</svg>
