<?xml version="1.0" encoding="UTF-8" standalone="no"?>
<svg
   xmlns:dc="http://purl.org/dc/elements/1.1/"
   xmlns:cc="http://creativecommons.org/ns#"
   xmlns:rdf="http://www.w3.org/1999/02/22-rdf-syntax-ns#"
   xmlns:svg="http://www.w3.org/2000/svg"
   xmlns="http://www.w3.org/2000/svg"
   viewBox="0 0 1000 1200"
   width="1000"
   height="1200"
   preserveAspectRatio="xMidYMid meet"
   version="1.1">

  <path
          fill-rule="evenodd"
          d="m -30.246,-31.18 v 30.032 c 0,0 0,201.798 0.213,478.268 0.106,138.24 0.266,277.65 0.506,384.86 0.119,53.6 0.26,99.15 0.423,132.51 0.164,33.31 0.228,52.31 0.592,60.31 l 0.133,2.9 0.69,2.8 c 5.302,21.9 20.8913,31.4 35.6578,39.2 14.7662,7.8 32.0632,13.8 51.9922,19.2 39.858,11 90.059,19.6 142.029,26.8 103.96,14.5 216.47,23.3 250.55,28 v 0 c 11.82,1.6 14.6,5.1 16.5,7.4 1.9,2.3 1.39,1.4 1.39,1.4 l 29.56,-6.4 29.56,6.4 c 0,0 -0.51,0.9 1.39,-1.4 1.9,-2.3 4.68,-5.8 16.5,-7.4 v 0 c 34.08,-4.7 146.59,-13.5 250.54,-28 51.98,-7.2 102.18,-15.8 142.03,-26.8 19.93,-5.4 37.23,-11.4 52,-19.2 14.79,-7.8 30.39,-17.3 35.69,-39.2 l 0.7,-2.8 0.1,-2.9 c 0.4,-8 0.4,-27 0.6,-60.31 0.1,-33.36 0.3,-78.91 0.4,-132.51 0.2,-107.21 0.4,-246.62 0.5,-384.86 0.2,-276.47 0.2,-478.268 0.2,-478.268 v -30.032 l -530,-3.61 c -0.21,33.504 -0.19,33.503 -0.42,0 z m 999.986,60.063 c 0,27.387 0,186.887 -0.2,448.197 -0.11,138.22 -0.27,277.61 -0.51,384.76 -0.12,53.58 -0.26,99.1 -0.42,132.35 -0.14,28.31 -0.35,42.81 -0.45,49.21 -1.01,0.8 -2.4,1.8 -4.38,2.9 -8.17,4.3 -22.31,9.5 -39.82,14.3 -35,9.7 -83.63,18.2 -134.31,25.3 -101.35,14 -209.49,22.3 -250.37,27.8 -15.8,2.2 -29.02,7.9 -39.29,14.8 -10.27,-6.9 -23.49,-12.6 -39.29,-14.8 v 0 c -40.88,-5.5 -149.02,-13.8 -250.38,-27.8 -50.68,-7.1 -99.3,-15.6 -134.31,-25.3 -17.503,-4.8 -31.647,-10 -39.817,-14.3 -1.979,-1.1 -3.367,-2.1 -4.373,-2.9 -0.107,-6.4 -0.314,-20.9 -0.453,-49.21 -0.163,-33.25 -0.302,-78.77 -0.422,-132.35 -0.239,-107.15 -0.399,-246.54 -0.506,-384.76 -0.201,-261.31 -0.2,-420.81 -0.201,-448.197 l 469.752,-3.201 z"      />
</svg>
