<?xml version="1.0" encoding="UTF-8" standalone="no"?>
<svg
   version="1.1"
   width="1000"
   height="1200"
   style="clip-rule:evenodd;fill-rule:evenodd;image-rendering:optimizeQuality;shape-rendering:geometricPrecision;text-rendering:geometricPrecision"
   id="svg10"
   xmlns="http://www.w3.org/2000/svg"
   xmlns:svg="http://www.w3.org/2000/svg">
  <defs
     id="defs14" />
  <g
     id="g949"
     transform="translate(0.5,1)"
     style="fill:none;stroke:#000000;stroke-opacity:1" />
  <path
     id="path8276"
     style="stroke:none;stroke-width:0;stroke-miterlimit:4;stroke-dasharray:none;stroke-opacity:1"
     d="M 310.355 12.6172 C 309.489 15.4265 308.376 18.2572 307.457 21.0742 C 281.237 85.7628 252.941 143.624 211.232 189.002 C 195.35 205.787 177.739 221.136 158.283 234.465 C 195.098 418.163 187.639 508.86 176.176 588.705 C 217.158 663.952 252.146 741.876 281.135 822.48 C 315.606 920.219 345.82 1019.21 371.781 1119.47 C 420.553 1136.67 463.293 1163.32 500 1199.39 C 536.707 1163.32 579.447 1136.67 628.219 1119.47 C 654.18 1019.21 684.394 920.219 718.865 822.48 C 747.854 741.876 782.842 663.952 823.824 588.705 C 812.361 508.86 804.902 418.163 841.717 234.465 C 822.261 221.136 804.65 205.787 788.768 189.002 C 747.059 143.624 718.763 85.7628 692.543 21.0742 C 691.624 18.2572 690.511 15.4265 689.645 12.6172 C 626.788 30.2631 566.077 38.3074 500 38.5781 C 433.923 38.3074 373.212 30.2631 310.355 12.6172 z M 339.117 80.6113 C 392.441 95.5813 443.945 102.407 500 102.637 C 556.055 102.407 607.559 95.5813 660.883 80.6113 C 661.617 82.9953 662.561 85.3981 663.34 87.7871 C 685.584 142.665 709.59 185.75 744.973 224.246 C 758.447 238.485 773.386 251.507 789.891 262.814 C 758.659 418.652 764.989 523.592 774.713 591.328 C 739.947 655.162 710.264 721.269 685.672 789.648 C 656.429 872.564 626.795 984.541 604.771 1069.6 C 563.397 1084.19 531.14 1110.8 500 1141.39 C 468.86 1110.8 436.603 1084.19 395.229 1069.6 C 373.205 984.541 343.571 872.564 314.328 789.648 C 289.736 721.269 260.053 655.162 225.287 591.328 C 235.011 523.592 241.341 418.652 210.109 262.814 C 226.614 251.507 241.553 238.485 255.027 224.246 C 290.41 185.75 314.416 142.665 336.66 87.7871 C 337.439 85.3981 338.383 82.9953 339.117 80.6113 z " />
</svg>
