<?xml version="1.0" encoding="UTF-8" standalone="no"?>
<svg
   version="1.1"
   preserveAspectRatio="xMidYMid meet"
   height="1200"
   width="1000"
   viewBox="0,0,1000,1200 "
   id="svg21"
   xmlns="http://www.w3.org/2000/svg"
   xmlns:svg="http://www.w3.org/2000/svg">
  <defs
     id="defs2" />
  <g
     id="g19">
    <path
       id="rect6"
       d="M -4,-4 V 1204 H 1004 V -4 Z m 503.04,64 c 247.64,0.05 387.31,213.89 435.22,410.06 -8,-3.47 -16.4,-5.24 -24.86,-5.24 -41.94,0 -75.93,82.54 -75.93,135.02 0,52.47 34,135.01 75.93,135.01 8.44,-0.1 16.81,-1.9 24.77,-5.42 C 897.24,920.33 746.79,1139.9 499.04,1140 250.64,1139.9 114.2,933.71 63.613,727.45 c 8.807,4.63 18.233,7.14 27.783,7.4 41.934,0 75.934,-82.53 75.934,-135.01 0,-52.48 -34,-135.02 -75.934,-135.02 -9.536,0.26 -18.947,2.76 -27.742,7.38 C 119.76,239.14 250.75,60.108 499.04,60 Z">
      <title
         id="title4">Field</title>
    </path>
    <defs
       id="defs17" />
  </g>
</svg>
