<?xml version="1.0" encoding="UTF-8" standalone="no"?>
<svg
   xmlns:dc="http://purl.org/dc/elements/1.1/"
   xmlns:cc="http://creativecommons.org/ns#"
   xmlns:rdf="http://www.w3.org/1999/02/22-rdf-syntax-ns#"
   xmlns:svg="http://www.w3.org/2000/svg"
   xmlns="http://www.w3.org/2000/svg"
   viewBox="0 0 1000 1200"
   width="1000"
   height="1200"
   preserveAspectRatio="xMidYMid meet"
   version="1.1">

  <path
          fill-rule="evenodd"
d="m 434.89,-23.807 c -50.63,0 -90.47,19.5485 -130.97,38.461 -40.49,18.913 -83,38.388 -145.14,47.166 l -26.01,3.674 v 26.266 c 0,63.09 -29.88,128.2 -68.495,169.28 l -29.558,31.45 39.65,17.04 c 0,0 67.203,30.17 67.203,90.25 0,49.68 -23.94,67.24 -52.591,79.71 -28.652,12.47 -58.762,12.95 -58.762,12.95 l -18.145,0 -8.5056,16.03 c 0,0 -7.8787,15.33 -14.5044,40.45 -6.625,25.13 -12.974,61.92 -12.974,110.27 0,224.22 161.262,390.17 291.852,444.07 118.86,49.3 182.46,71.6 208.6,104.7 l 23.73,29.9 23.7,-30 c 26.13,-33 89.31,-55.4 208.16,-104.6 h 0 c 130.53,-53.9 291.76,-219.86 291.76,-444.07 0,-48.33 -6.3,-85.11 -12.9,-110.22 -6.6,-25.12 -14.39,-40.44 -14.39,-40.44 l -8.51,-16.13 h -18.23 c 0,0 -30.12,-0.43 -58.77,-12.86 -28.65,-12.43 -52.6,-29.96 -52.6,-79.8 0,-60.09 67.14,-90.25 67.14,-90.25 l 39.63,-17.05 -29.55,-31.44 c -38.62,-41.09 -68.55,-106.2 -68.49,-169.251 l 0,-26.291 -26.03,-3.678 c -62.14,-8.778 -104.66,-28.252 -145.15,-47.164 -40.49,-18.9117 -80.31,-38.463 -130.91,-38.463 -28.77,0 -50.37,6.888 -65.01,15.0004 -14.69,-8.0824 -36.4,-15.0004 -65.26,-15.0004 z m 0,60.473 c 19.7,0 30.51,4.362 36.29,7.576 5.78,3.215 4.62,2.74 4.62,2.74 l 24.78,34.077 24.35,-34.389 c 0,0 -1.32,0.654 4.29,-2.498 5.61,-3.153 16.25,-7.506 35.94,-7.506 34.91,0 64.52,13.724 105.32,32.781 35.88,16.757 79.4,36.693 137.52,48.063 5.28,58.13 28.07,112.74 59.98,156.3 -30.28,21.87 -69.96,62.58 -69.96,125.97 0,73.06 46.85,116.98 89.01,135.27 23.62,10.26 45.92,14.38 61.72,16.24 1.15,3.58 2.42,7.87 3.78,13.05 5.32,20.3 10.91,51.81 10.91,94.89 0,194.3 -149.28,344.77 -254.41,388.27 h -0 v 0 c -97.96,40.5 -164.09,60.5 -208.79,98.6 -44.86,-38.1 -111.22,-58.1 -209.19,-98.6 v 0 h -0 c -105.19,-43.5 -254.459,-193.97 -254.459,-388.27 0,-43.07 5.626,-74.56 10.976,-94.85 1.378,-5.22 2.659,-9.52 3.822,-13.12 15.789,-1.88 38.101,-6.03 61.751,-16.32 42.11,-18.32 88.94,-62.21 88.94,-135.16 0,-63.41 -39.72,-104.12 -70.02,-125.99 31.9,-43.56 54.64,-98.17 59.95,-156.28 58.13,-11.37 101.65,-31.305 137.53,-48.063 40.81,-19.057 70.43,-32.781 105.38,-32.781 z"    />
</svg>
