<?xml version="1.0" encoding="UTF-8" standalone="no"?>
<svg
   xmlns:dc="http://purl.org/dc/elements/1.1/"
   xmlns:cc="http://creativecommons.org/ns#"
   xmlns:rdf="http://www.w3.org/1999/02/22-rdf-syntax-ns#"
   xmlns:svg="http://www.w3.org/2000/svg"
   xmlns="http://www.w3.org/2000/svg"
   id="svg3803"
   version="1.1"
   preserveAspectRatio="xMidYMid meet"
   height="1200"
   width="1000"
   viewBox="0 0 1000 1200"><metadata
   id="metadata3809">
  <rdf:RDF>
    <cc:Work
       rdf:about="">
      <dc:format>image/svg+xml</dc:format>
      <dc:type
         rdf:resource="http://purl.org/dc/dcmitype/StillImage" />
      <dc:title></dc:title>
    </cc:Work>
  </rdf:RDF>
</metadata>
<defs
   id="defs3807" />
<path
   id="path3801"
   d="m -20,-20  v1240 h1040 v-1240 z m 95,95 h 850 v1050 h-850 z" />
';
<g
   id="body2">
  <path
     id="path3048"
     d="M -20 -20 L -20 250 L 75 250 L 75 75 L -20 -20 z M 250 -20 L 250 75 L 500 75 L 500 -20 L 250 -20 z M 750 -20 L 750 75 L 925 75 L 1020 -20 L 750 -20 z M 925 250 L 925 500 L 1020 500 L 1020 250 L 925 250 z M -20 500 L -20 700 L 75 700 L 75 500 L -20 500 z M 925 750 L 925 984 L 1020 1098 L 1020 750 L 925 750 z M 75 955 L -20 1050 L -20 1220 L 174.28516 1220 L 228.57227 1125 L 75 1125 L 75 955 z M 500 1125 L 500 1220 L 810 1220 L 715 1125 L 500 1125 z " />
</g>
</svg>
