<?xml version="1.0" encoding="UTF-8" standalone="no"?>
<!-- Created with Inkscape (http://www.inkscape.org/) -->

<svg
   width="1000"
   height="1200"
   id="svg2"
   version="1.0"
   xmlns:xlink="http://www.w3.org/1999/xlink"
   xmlns="http://www.w3.org/2000/svg"
   xmlns:svg="http://www.w3.org/2000/svg"
   xmlns:rdf="http://www.w3.org/1999/02/22-rdf-syntax-ns#"
   xmlns:cc="http://creativecommons.org/ns#"
   xmlns:dc="http://purl.org/dc/elements/1.1/">

  <metadata
     id="metadata7">
    <rdf:RDF>
      <cc:Work
         rdf:about="">
        <dc:format>image/svg+xml</dc:format>
        <dc:type
           rdf:resource="http://purl.org/dc/dcmitype/StillImage" />
      </cc:Work>
    </rdf:RDF>
  </metadata>
  <g
     >
    <path
       d="M 541.86523 0.61132812 C 488.69808 -0.358762 435.27957 3.47475 382.53711 9.734375 C 316.53132 16.89801 250.44315 27.565119 187.95312 48.630859 C 149.08931 86.461705 169.48178 142.47476 162.66797 188.74023 C 158.24917 481.22214 150.37333 774.01008 164.64844 1066.3555 C 169.11763 1123.8147 227.13458 1163.1831 286.07812 1172.8145 C 442.11636 1215.078 612.27005 1204.2475 764.70508 1155.4219 C 814.51271 1132.9901 835.97433 1081.2941 832.51172 1033.3301 C 844.12339 719.86503 836.90652 406.09755 830.19531 92.603516 C 826.94036 32.144831 746.90383 36.293069 699.68555 20.316406 C 647.94742 7.3552508 595.03239 1.5814183 541.86523 0.61132812 z M 535.45312 32.957031 C 580.92493 33.874749 626.18203 39.338186 670.43164 51.599609 C 710.81561 66.713741 779.2689 62.789665 782.05273 119.98438 C 787.79257 416.55383 793.96421 713.38178 784.0332 1009.9238 C 786.99464 1055.2984 768.63956 1104.203 726.04102 1125.4238 C 595.66924 1171.6134 450.14291 1181.8588 316.68945 1141.877 C 266.27732 1132.7655 216.65826 1095.5232 212.83594 1041.166 C 200.62699 764.60347 207.36139 487.62335 211.14062 210.93164 C 216.96821 167.1639 199.52692 114.17324 232.76562 78.384766 C 286.21092 58.4563 342.73336 48.366737 399.18555 41.589844 C 444.29414 35.668157 489.98132 32.039313 535.45312 32.957031 z " />
  </g>
</svg>
