<?xml version="1.0" encoding="UTF-8" standalone="no"?>
<svg
   xmlns:dc="http://purl.org/dc/elements/1.1/"
   xmlns:cc="http://creativecommons.org/ns#"
   xmlns:rdf="http://www.w3.org/1999/02/22-rdf-syntax-ns#"
   xmlns:svg="http://www.w3.org/2000/svg"
   xmlns="http://www.w3.org/2000/svg"
   viewBox="0 0 1000 1200"
   width="1000"
   height="1200"
   preserveAspectRatio="xMidYMid meet"
   version="1.1">

  <path fill-rule="evenodd" 
        d="m 1003.4,0.80983 v 0 c -76.04,45.48317 -179.8,66.01117 -255.36,64.56117 v 0 0 c -78.51,-1.455 -157.81,-24.625 -238.01,-63.2792 l -7.92,-3.8184 -7.92,3.8184 c -80.21,38.6562 -159.44,61.8242 -237.97,63.2792 v 0 0 c -72.6,1.393 -149.53,-12.069 -222.583,-53.77 -9.534,-2.5686 -14.249,-8.7514 -23.783,-11.31975 v 0 0 h -7.8965 v 13.21075 15.391 0 252.447 c 0,166.09 58.1045,356.55 148.0625,525.09 89.97,168.53 211.6,315.18 342.91,391.78 l 8.79,5.1 8.98,-4.8 c 138.13,-73.5 260.03,-219.16 348.42,-387.86 88.39,-168.7 143.08,-360.69 143.08,-529.31 z m -501.3,37.79017 c 80.95,38.052 162.73,61.73 245.25,63.26 72.78,1.4 145.96,-14.659 218.4,-52.296 v 231.766 c 0,160.66 -53.01,348.3 -138.98,512.37 -83.95,160.22 -199.49,297.5 -324.28,367.5 -119.04,-72.8 -234.76,-211.74 -320.29,-371.97 -87.632,-164.18 -143.764,-350.4 -143.764,-507.9 v -231.773 c 72.494,37.641 145.674,53.703 218.454,52.303 82.54,-1.53 164.26,-25.21 245.21,-63.26 z" />';
</svg>
