<?xml version="1.0" encoding="UTF-8" standalone="no"?>
<!-- Created with Inkscape (http://www.inkscape.org/) -->

<svg
   width="210.77"
   height="181.74"
   viewBox="0 0 210.77 181.74"
   version="1.1"
   id="svg11533"
   xml:space="preserve"
   xmlns="http://www.w3.org/2000/svg"
   xmlns:svg="http://www.w3.org/2000/svg"
   xmlns:rdf="http://www.w3.org/1999/02/22-rdf-syntax-ns#"
   xmlns:cc="http://creativecommons.org/ns#"
   xmlns:dc="http://purl.org/dc/elements/1.1/"><g
     id="layer1"
     transform="translate(0.38384,0.51525)"><g
       id="g18103"
       transform="matrix(0.34928,0,0,0.35735,-3.2745e-8,-1.1289e-5)"><g
         id="layer2"
         style="display:inline"
         transform="translate(-2.0938,-161.44)" /><g
         id="layer1-8"
         style="display:inline"
         transform="translate(-2.0938,-161.44)"><g
           id="g26963"
           transform="matrix(0.85255,0,0,0.83233,-92.619,3.7625)"><path
             id="path3680"
             d="m 361.82,189.44 c 36.62,83.84 -34.85,124.75 -34.85,124.75 -14.78,-46.73 10.4,-97.38 34.85,-124.75 z"
             style="fill:#ffff00;fill-rule:evenodd;stroke:#000000;stroke-width:1.89354" /><path
             id="path3682"
             d="m 404.16,276.16 c -37.48,0.43 -56.16,21.06 -65.75,39.93 13.41,7.02 86.18,8.54 124,-28.03 -23.24,-8.66 -42.43,-12.09 -58.25,-11.9 z m 10,13.15 c 2.16,0 3.9,1.75 3.9,3.91 0,2.16 -1.74,3.94 -3.9,3.94 -2.16,0 -3.91,-1.78 -3.91,-3.94 0,-2.16 1.75,-3.91 3.91,-3.91 z m -34.97,6.19 c 2.16,0 3.9,1.75 3.9,3.91 0,2.16 -1.74,3.93 -3.9,3.93 -2.16,0 -3.91,-1.77 -3.91,-3.93 0,-2.16 1.75,-3.91 3.91,-3.91 z"
             style="fill:#ffff00;fill-rule:evenodd;stroke:#000000;stroke-width:1.89354" /><path
             id="path3710"
             d="m 346.37,307.81 c -27.43,14.86 -53.37,49.45 -57.47,81.26 -1.49,11.08 0.99,19.79 2.84,30.78 2.62,4.03 8.34,-0.25 6.31,-4.28 -5.23,-21.57 3.34,-55.78 21.6,-77.99 8.52,-9.91 19.8,-17.25 30.51,-24.52 1.62,-2.55 -0.87,-5.94 -3.79,-5.25 z"
             style="fill:#ffff00;fill-rule:evenodd;stroke:#000000;stroke-width:1.89354" /><path
             id="path4599"
             d="m 223.28,567.44 c -5.93,1.59 -1.18,8.42 0,11.86 15.11,35.74 36.76,69.46 66.65,94.54 5.06,3.32 8.33,8.25 14.97,6.3 3.64,-2.43 0.25,-7.48 -3.34,-7.13 -15.03,-7.43 -23.06,-19.29 -33.73,-31.82 -17.7,-21.8 -31.15,-46.7 -41.59,-72.69 -0.75,-0.81 -1.9,-1.25 -3,-1.06 z"
             style="fill:#ffff00;fill-rule:evenodd;stroke:#000000;stroke-width:1.89354" /><path
             id="path10404"
             d="m 306.19,215.34 c 34.61,81.98 3.34,121.97 -7.7,132.43 -22.47,-37.8 -19.43,-104.88 7.7,-132.43 z"
             style="fill:#ffff00;fill-rule:evenodd;stroke:#000000;stroke-width:1.89354" /><path
             id="path10406"
             d="m 253.77,243.11 c 39.79,51.44 40.3,115.89 27.83,141.9 -33,-14.06 -46.03,-79.35 -27.83,-141.9 z"
             style="fill:#ffff00;fill-rule:evenodd;stroke:#000000;stroke-width:1.89354" /><path
             id="path10408"
             d="m 203.59,324.44 c 6.62,63.61 46.78,120 72.28,117.81 11.58,-59.04 -45.17,-105.48 -72.28,-117.81 z m 41.75,63.28 c 2.16,0 3.91,1.74 3.91,3.9 0,2.17 -1.75,3.94 -3.91,3.94 -2.16,0 -3.9,-1.77 -3.9,-3.94 0,-2.16 1.74,-3.9 3.9,-3.9 z"
             style="fill:#ffff00;fill-rule:evenodd;stroke:#000000;stroke-width:1.89354" /><path
             id="path10410"
             d="m 169.87,371.29 c 24.97,1.98 92.62,47.32 92.65,107.08 -33.18,-2.99 -81.75,-59.53 -92.65,-107.08 z"
             style="fill:#ffff00;fill-rule:evenodd;stroke:#000000;stroke-width:1.89354" /><path
             id="path10418"
             d="m 158.68,421.15 c 22.1,-0.35 90.83,42.85 95.86,96.54 -42.65,-2.1 -84.97,-49 -95.86,-96.54 z"
             style="fill:#ffff00;fill-rule:evenodd;stroke:#000000;stroke-width:1.89354" /><path
             id="path10420"
             d="m 149.75,476.41 c 18.53,-0.7 85.65,33.93 80.32,105.12 C 137.43,535.15 158.5,484.5 149.75,476.41 Z"
             style="fill:#ffff00;fill-rule:evenodd;stroke:#000000;stroke-width:1.89354" /><path
             id="path12198"
             d="m 138.56,544.91 c -10.39,0 -19.9,2.12 -27.47,6.34 21.97,39.69 88.57,57.64 119.78,52.59 -15.06,-37.68 -58.35,-59.07 -92.31,-58.93 z m 16.25,17.46 c 2.16,0 3.91,1.75 3.91,3.91 0,2.16 -1.75,3.94 -3.91,3.94 -2.16,0 -3.9,-1.78 -3.9,-3.94 0,-2.16 1.74,-3.91 3.9,-3.91 z m 32.88,15.35 c 2.16,0 3.9,1.74 3.9,3.9 0,2.17 -1.74,3.94 -3.9,3.94 -2.16,0 -3.91,-1.77 -3.91,-3.94 0,-2.16 1.75,-3.9 3.91,-3.9 z"
             style="fill:#ffff00;fill-rule:evenodd;stroke:#000000;stroke-width:1.89354" /><path
             id="path12207"
             d="m 123.32,612.66 c 17.64,-13.38 111.01,-15.89 131.04,26.37 -12.64,8.08 -100.68,11.36 -131.04,-26.37 z"
             style="fill:#ffff00;fill-rule:evenodd;stroke:#000000;stroke-width:1.89354" /><path
             id="path12209"
             d="m 152.34,665.22 c 27.64,-16.77 112.97,-31.43 133,10.83 -11.21,15.59 -76.93,22.61 -133,-10.83 z"
             style="fill:#ffff00;fill-rule:evenodd;stroke:#000000;stroke-width:1.89354" /><path
             id="path12212"
             d="m 326.03,705.91 c -46.42,1.07 -85.66,26.44 -102.19,39.15 28.65,10.97 58.5,11.63 84.25,6.85 1.34,-0.93 2.72,-1.88 4.22,-2.88 8.68,-5.75 20.06,-12.54 32.91,-18.81 2.6,-1.27 5.25,-2.54 7.97,-3.75 -9.22,-5.51 -18.39,-12.25 -27.16,-20.56 z m -31.94,21.28 c 2.16,0 3.91,1.74 3.91,3.9 0,2.16 -1.75,3.94 -3.91,3.94 -2.16,0 -3.9,-1.78 -3.9,-3.94 0,-2.16 1.74,-3.9 3.9,-3.9 z m 61.07,0.47 c -3.23,1.41 -6.4,2.87 -9.47,4.37 -12.8,6.25 -24.14,13.02 -32.78,18.75 -3.91,2.59 -7.23,4.94 -9.91,6.97 -16.86,15.64 -29.32,30.98 -34.31,39.19 67.42,5.76 118.03,-19.98 143.53,-48.91 -16.37,-2.9 -36.74,-8.64 -57.06,-20.37 z"
             style="fill:#ffff00;fill-rule:evenodd;stroke:#000000;stroke-width:1.89354" /><path
             id="path12252"
             d="m 333.03,579.91 c 5.72,42.01 22.99,61.57 55.09,67.06 4.03,-35.86 -36.37,-61.34 -55.09,-67.06 z m 20.53,23 c 2.16,0 3.91,1.74 3.91,3.9 0,2.16 -1.75,3.94 -3.91,3.94 -2.16,0 -3.9,-1.78 -3.9,-3.94 0,-2.16 1.74,-3.9 3.9,-3.9 z m 15.53,17.68 c 2.16,0 3.91,1.75 3.91,3.91 0,2.16 -1.75,3.94 -3.91,3.94 -2.16,0 -3.9,-1.78 -3.9,-3.94 0,-2.16 1.74,-3.91 3.9,-3.91 z"
             style="fill:#ffff00;fill-rule:evenodd;stroke:#000000;stroke-width:1.89354" /><path
             id="path12254"
             d="m 388.61,596.83 c 29.07,8 41.94,48.14 27.81,72.63 -20.49,-11.29 -28.66,-49.81 -27.81,-72.63 z"
             style="fill:#ffff00;fill-rule:evenodd;stroke:#000000;stroke-width:1.89354" /><path
             id="path12256"
             d="m 350.48,651.63 c 10.12,0.17 40.42,-6.41 53.06,26.42 -21.25,-0.18 -31.18,2.71 -53.06,-26.42 z"
             style="fill:#ffff00;fill-rule:evenodd;stroke:#000000;stroke-width:1.89354" /><path
             id="path12260"
             d="m 447.57,614.64 c 11.39,32.74 -5.28,66.06 -14.61,74.4 -16.71,-19.88 -2.65,-65.98 14.61,-74.4 z"
             style="fill:#ffff00;fill-rule:evenodd;stroke:#000000;stroke-width:1.89354" /><path
             id="path12266"
             d="m 384.16,641.69 c -4.7,4.03 5.75,8.82 7.75,13.19 11.71,13.09 25.18,26.06 36.89,39.15 4.87,-2.6 -2.83,-7.32 -5.61,-11.16 -13.01,-13.67 -25.92,-27.54 -37.44,-42.65 -0.53,0.49 -1.06,0.98 -1.59,1.47 z"
             style="fill:#ffff00;fill-rule:evenodd;stroke:#000000;stroke-width:1.89354" /><path
             id="path14051"
             d="m 254.91,551.47 c 5.63,59.82 25.62,101.34 49.06,130.06 l 42.47,-35.41 c -25.97,-23.45 -41.54,-70.03 -38.5,-94.4 z m 92.28,95.34 -42.57,35.47 c 32.27,39.11 70.78,54.16 87.19,59.19 -7.47,-8.94 -16.99,-14.66 -28.12,-21.03 -11.58,-6.63 -24.91,-13.99 -39.38,-26.44 l 0.66,-0.75 c 14.38,12.38 27.6,19.67 39.19,26.31 7.2,4.13 13.69,8.1 19.5,12.78 0.51,-2.43 2.11,-4.04 4.31,-4.9 0.99,-0.39 2.14,-0.62 3.34,-0.78 -16.34,-12.78 -42.77,-20.11 -61.06,-35.29 l 0.66,-0.78 c 15.34,12.73 36.69,19.94 52.96,29.78 0.58,-1.66 1.85,-2.9 3.75,-3.62 2.2,-0.83 5.04,-1.18 8.22,-1.31 6.22,-0.26 13.69,0.32 19.82,0.15 l 0.78,-26.31 c -11.89,-1.07 -17.84,-3.66 -26.66,-10.03 -22.8,-3.09 -29.52,-14.16 -40.78,-29.16 0.63,0 1.34,0 2.12,0 -1.34,-1.01 -2.64,-2.11 -3.93,-3.25 z m 70.25,42.56 -1.78,57.82 c 2.26,0.4 4.46,0.73 6.56,1.03 L 424,689.75 c -2.38,-0.1 -4.56,-0.21 -6.56,-0.38 z m 7.56,0.41 -1.81,58.59 c 4.47,0.63 8.52,1.06 12.03,1.35 L 434.75,690 c -3.62,0 -6.82,-0.12 -9.75,-0.22 z m -26.75,26.59 c -0.8,0 -1.58,0 -2.34,0.1 -3.14,0.13 -5.93,0.49 -7.94,1.25 -1.83,0.69 -2.87,1.74 -3.28,3.18 2.89,1.79 5.64,3.65 8.12,5.66 1.08,-0.1 2.17,-0.14 3.35,-0.12 6.11,0.1 13.32,1.22 19.12,1.15 l 0.34,-10.97 c -5.42,0.14 -11.78,-0.28 -17.37,-0.22 z m -2.13,11.04 c -1.14,0 -2.18,0 -3.21,0.12 l -0.16,0.19 c -0.1,-0.1 -0.17,-0.12 -0.25,-0.19 -1.56,0.14 -3,0.39 -4.16,0.84 -2.01,0.8 -3.32,2.07 -3.75,4.25 l -0.78,-0.15 c 3.48,2.82 6.77,5.83 9.66,9.47 v 0 c 7.54,2.24 14.7,3.85 21.25,5.03 l 0.56,-18.44 c -5.94,0.1 -13.15,-1.06 -19.12,-1.15 z"
             style="fill:#ffff00;fill-rule:evenodd;stroke:#000000;stroke-width:1.89354" /><path
             id="path16743"
             d="m 443.41,685.58 c 4.92,0 8.89,3.97 8.89,8.89 0,4.91 -3.97,8.96 -8.89,8.96 -4.91,0 -8.88,-4.05 -8.88,-8.96 0,-4.92 3.97,-8.89 8.88,-8.89 z"
             style="fill:#ffff00;fill-rule:evenodd;stroke:#000000;stroke-width:1.89354" /><path
             id="path16745"
             d="m 443.39,702.9 c 4.92,0 8.89,3.98 8.89,8.89 0,4.92 -3.97,8.96 -8.89,8.96 -4.91,0 -8.88,-4.04 -8.88,-8.96 0,-4.91 3.97,-8.89 8.88,-8.89 z"
             style="fill:#ffff00;fill-rule:evenodd;stroke:#000000;stroke-width:1.89354" /><path
             id="path16747"
             d="m 443.21,720.58 c 4.92,0 8.89,3.97 8.89,8.89 0,4.91 -3.97,8.96 -8.89,8.96 -4.91,0 -8.88,-4.05 -8.88,-8.96 0,-4.92 3.97,-8.89 8.88,-8.89 z"
             style="fill:#ffff00;fill-rule:evenodd;stroke:#000000;stroke-width:1.89354" /><path
             id="path16749"
             d="m 443.57,737.99 c 4.92,0 8.89,3.97 8.89,8.89 0,4.92 -3.97,8.96 -8.89,8.96 -4.91,0 -8.88,-4.04 -8.88,-8.96 0,-4.92 3.97,-8.89 8.88,-8.89 z"
             style="fill:#ffff00;fill-rule:evenodd;stroke:#000000;stroke-width:1.89354" /><path
             id="path16852"
             d="m 317.72,453.19 c -4.52,2.63 0.1,5.89 1.38,9.03 13.51,16.57 19.81,41.37 7.22,60.21 -6.34,9.79 -15.69,15.81 -26.7,17.91 -1.26,6.23 4.08,5.75 7.98,4.61 21.97,-5.29 36.01,-29.82 32.84,-51.79 -1.75,-15.78 -10.61,-29.91 -21.22,-41.38 -0.5,0.47 -1,0.94 -1.5,1.41 z"
             style="fill:#ffff00;fill-rule:evenodd;stroke:#000000;stroke-width:1.89354" /><path
             id="path17750"
             d="m 309.74,395.21 c -33.07,44.32 -55.25,93.41 -54.05,154.23 l 16.78,0.1 c -0.5,-5.7 -0.32,-12.5 1.15,-18.34 1.51,-5.97 4.44,-10.94 9.44,-12.5 1.46,-25.71 14.91,-60.09 26.91,-76 l 0.78,0.59 c -11.74,15.58 -25.12,49.75 -26.66,75.13 3.02,1.91 4.95,3.9 6.47,6.56 0.98,-1.61 2,-2.83 3.03,-3.6 0.72,-12.87 5.06,-31.97 11,-49.06 2.99,-8.58 6.36,-16.65 9.91,-23.15 3.55,-6.51 7.23,-11.46 10.94,-13.82 l 0.53,0.85 c -3.42,2.17 -7.08,7 -10.6,13.43 -3.51,6.44 -6.87,14.46 -9.84,23 -5.93,17.06 -10.27,36.2 -10.97,48.91 4.5,1.88 7.66,4.73 9.94,7.38 -0.81,-29.58 4.07,-60.19 38.06,-95.91 z m -25.9,124.2 -0.18,0.1 c -4.73,1.28 -7.57,6.02 -9.07,11.97 -1.44,5.71 -1.62,12.46 -1.12,18.09 l 32.22,0.16 c -0.48,-6.37 -0.91,-12.74 -1.13,-19.16 -2.29,-2.86 -5.58,-6.13 -10.53,-8.16 -1.85,1.49 -4.12,5.21 -5.84,10.07 -1.82,5.11 -3.08,11.32 -3.03,17.06 h -1 c -0.1,-5.89 1.24,-12.19 3.09,-17.41 0.84,-2.35 1.82,-4.37 2.81,-6.15 -1.46,-2.74 -3.28,-4.63 -6.22,-6.53 z"
             style="fill:#ffff00;fill-rule:evenodd;stroke:#000000;stroke-width:1.89354" /><path
             id="path19523"
             d="m 352.39,429.9 c 9.6,-2.69 37.4,-3.56 52.54,11.95 -12.62,6.95 -41.55,13.61 -52.54,-11.95 z"
             style="fill:#ffff00;fill-rule:evenodd;stroke:#000000;stroke-width:1.89354" /><path
             id="path19525"
             d="m 382.93,420.19 c 9.59,-3.77 46.32,-3.56 57.89,13.55 -11.79,4.47 -46.9,12 -57.89,-13.55 z"
             style="fill:#ffff00;fill-rule:evenodd;stroke:#000000;stroke-width:1.89354" /><path
             id="path19559"
             d="m 396.59,410.52 c 3.52,-6.08 37.93,-25.34 63.6,-7.87 -8.74,4.82 -29.39,25.03 -63.6,7.87 z"
             style="fill:#ffff00;fill-rule:evenodd;stroke:#000000;stroke-width:1.89354" /><path
             id="path19561"
             d="m 401.19,406.75 c -22.84,7.33 -45.74,14.87 -67.28,25.47 1.13,7.4 6.9,1.74 11.25,0.25 19.29,-8.58 39.4,-15.11 59.5,-21.56 -1.13,-1.57 -0.44,-6.26 -3.47,-4.16 z"
             style="fill:#ffff00;fill-rule:evenodd;stroke:#000000;stroke-width:1.89354" /><path
             id="path20456"
             d="m 366.19,322.81 c -16.05,0.1 -32.21,6.27 -44.16,21.41 16.11,-0.31 32.46,1.76 45.72,6.69 0,0 0,0 0,0 13.33,-6.6 26.74,-11.25 40.09,-14.32 -11.26,-8.43 -26.41,-13.86 -41.68,-13.78 z m -28.32,28.94 c -15.6,0.25 -29.76,7.83 -33.43,26.53 8.31,-0.75 15.61,-0.65 22,0.13 10.74,-9.15 21.63,-16.71 32.59,-22.88 -6.78,-2.52 -14.13,-3.89 -21.16,-3.78 z m 85.85,27.78 c -9.03,0.73 -18.15,2.23 -27.56,5.88 -0.27,6.6 -2.43,14.09 -6.97,22.53 19.29,-8.28 30.03,-18.26 34.53,-28.41 z m -36.75,10.09 c -7.49,4.06 -15.18,9.73 -23.19,17.69 0.75,2.95 1.22,6.02 1.41,9.19 14.17,-8.9 20.6,-18.19 21.78,-26.88 z"
             style="fill:#ffff00;fill-rule:evenodd;stroke:#000000;stroke-width:1.89354" /><path
             id="path20460"
             d="m 451.28,332.25 c -11.09,0.12 -22.32,1.1 -33.59,3.12 0.1,0.12 0.15,0.17 0.25,0.29 0.53,0.65 1.05,1.38 1.25,2.15 0.1,0.23 0.59,0.79 1.25,1.22 0.65,0.43 1.38,0.77 1.78,0.97 1.39,0.69 3.02,1.22 4.56,1.22 0.92,0 1.59,0.12 2.19,0.25 0.6,0.13 1.15,0.25 1.87,0.25 1.76,0 3.92,1.19 5.47,1.81 2.16,0.86 3.81,1.22 6.13,1.22 1.52,0 2.92,-0.25 4.81,-0.25 0.95,0 1.71,0.36 2.31,0.84 0.61,0.49 1.07,1.1 1.56,1.6 1.12,1.11 2.57,1.98 3.91,2.65 1.38,0.69 3.02,1.42 4.69,1.75 2.07,0.42 2.94,1 5.22,1 2.35,0 4.7,0 7.06,0 2.02,0 4.04,0 6.06,0 2.13,0 4.11,0 6.19,0.5 2.01,0.51 3.95,0.75 6.19,0.75 1.99,0 3.17,0.45 4.37,1.66 0.99,0.99 1.56,1.14 3,2.22 0.1,0.1 0.38,0.18 0.78,0.25 0.41,0.1 0.91,0.13 1.41,0.15 1.01,0.1 2.05,0 2.56,0 1.94,0 3.85,0 5.78,0 1.6,0 2.82,0.19 4.19,0.54 0.65,0.16 0.93,0.53 2.78,1 1.11,0.27 2.98,0 4.41,0 1.85,0 3.85,0.97 5.4,1.28 1.67,0.33 3,0.61 4.57,1 0.92,0.23 2.46,0 3.68,0 1.59,0 2.61,1.38 3.13,1.9 0.97,0.97 1.5,1.31 2.72,2.22 0.22,0.17 0.29,0.5 0.12,0.72 -0.16,0.23 -0.49,0.26 -0.72,0.1 -1.2,-0.9 -1.82,-1.32 -2.84,-2.34 -0.63,-0.63 -1.44,-1.59 -2.41,-1.59 -1.06,0 -2.65,0.29 -3.93,0 -1.55,-0.39 -2.85,-0.67 -4.5,-1 -1.76,-0.35 -3.75,-1.25 -5.22,-1.25 -1.27,0 -3.17,0.34 -4.66,0 -1.95,-0.49 -2.59,-0.96 -2.78,-1 -1.32,-0.34 -2.41,-0.5 -3.94,-0.5 -1.93,0 -3.84,0 -5.78,0 -0.47,0 -1.56,0 -2.62,0 -0.53,0 -1.06,-0.1 -1.53,-0.16 -0.47,-0.1 -0.88,-0.18 -1.22,-0.44 -1.38,-1.03 -1.98,-1.23 -3.07,-2.31 -1.08,-1.08 -1.82,-1.38 -3.68,-1.38 -0.43,0 -0.78,-0.14 -1.19,-0.15 0,0 0,0 0,0 0,0 -0.1,0 -0.1,0.1 -0.1,0 -0.1,0 -0.13,0 -0.1,0 -0.1,0.1 -0.12,0.1 -0.12,0 -0.28,0.11 -0.47,0.16 -0.38,0.11 -0.89,0.23 -1.44,0.38 -1.09,0.28 -2.28,0.58 -2.81,0.68 -1.68,0.34 -3.22,0.78 -5.16,0.78 -1.94,0 -2.69,0.63 -4.31,1.44 -0.85,0.43 -1.36,1.02 -1.97,1.56 -0.61,0.55 -1.39,1.04 -2.56,1.04 -1.96,0 -4.28,0.5 -6.56,0.5 -2.11,0 -4.21,0 -6.32,0 -1.43,0 -2.85,0 -4.28,0 -1.19,0 -3.05,1.29 -4.25,2.18 -1.14,0.86 -2.43,1.03 -3.72,1.35 -0.47,0.12 -1.18,0.59 -1.84,1.18 -0.66,0.6 -1.28,1.29 -1.72,1.72 -0.73,0.73 -1.19,1.53 -1.72,2.38 -0.53,0.84 -1.14,1.73 -2.12,2.47 -1.39,1.04 -2.56,2.45 -3.41,3.87 -0.32,0.55 -0.58,0.96 -0.84,1.28 9.56,-0.43 19.08,-0.64 28.81,-2.34 0,0 0,0 0,0 36.87,6.55 70.79,-8.92 114.59,49.66 l 8.04,3.56 28.4,-34.47 c -48.72,-49.74 -101.19,-63.34 -150.47,-61.56 -3.83,-0.16 -7.69,-0.23 -11.56,-0.19 z m -34.72,3.31 c -35.29,6.57 -71.11,23.69 -105.12,58.41 l 28.37,34.47 8.03,-3.57 c 31.5,-42.1 57.89,-45.94 83.94,-47.21 0.13,-0.1 0.27,-0.14 0.38,-0.22 0.37,-0.29 0.71,-0.68 1.28,-1.63 0.9,-1.51 2.13,-3.04 3.65,-4.19 0.83,-0.62 1.36,-1.36 1.88,-2.18 0.52,-0.83 1.04,-1.73 1.87,-2.57 0.41,-0.4 1.02,-1.08 1.72,-1.71 0.71,-0.64 1.47,-1.24 2.28,-1.44 1.35,-0.34 2.49,-0.52 3.38,-1.19 1.2,-0.9 3.04,-2.37 4.84,-2.37 1.43,0 2.85,0 4.28,0 2.11,0 4.21,0 6.32,0 2.13,0 4.43,-0.5 6.56,-0.5 0.92,0 1.36,-0.3 1.9,-0.79 0.55,-0.48 1.13,-1.17 2.16,-1.68 1.54,-0.77 2.6,-1.56 4.78,-1.57 1.79,0 3.25,-0.4 4.97,-0.75 0.46,-0.1 1.67,-0.4 2.75,-0.68 0,0 0.1,0 0.1,0 -0.94,-0.13 -1.94,-0.11 -2.87,-0.35 -1.93,-0.48 -3.81,-0.47 -5.94,-0.47 -2.02,0 -4.04,0 -6.06,0 -2.36,0 -4.71,0 -7.06,0 -2.45,0 -3.47,-0.64 -5.41,-1.03 -1.81,-0.36 -3.52,-1.1 -4.94,-1.81 -1.4,-0.7 -2.92,-1.64 -4.15,-2.87 -0.54,-0.55 -1.01,-1.11 -1.5,-1.5 -0.5,-0.4 -0.99,-0.63 -1.69,-0.63 -1.8,0 -3.18,0.25 -4.81,0.25 -2.43,0 -4.27,-0.39 -6.5,-1.28 -1.64,-0.66 -3.84,-1.75 -5.1,-1.75 -0.83,0 -1.46,-0.13 -2.06,-0.25 -0.6,-0.13 -1.18,-0.25 -2,-0.25 -1.76,0 -3.51,-0.57 -5,-1.31 -0.39,-0.2 -1.18,-0.59 -1.91,-1.07 -0.72,-0.47 -1.45,-0.97 -1.65,-1.78 -0.12,-0.48 -0.54,-1.17 -1.03,-1.78 -0.23,-0.28 -0.41,-0.47 -0.63,-0.72 z"
             style="fill:#ffff00;fill-rule:evenodd;stroke:#000000;stroke-width:1.89354" /><path
             id="path21360"
             d="m 354.56,509.41 c -7.24,1.41 -12.78,4.39 -15.65,8.15 2.26,7.65 9.29,10.34 17.62,10.41 -0.99,-5.79 -1.64,-11.96 -1.94,-18.56 0,0 0,0 0,0 z m -0.72,25.09 c -13.48,0.12 -24.81,4.16 -30.72,8.81 8.89,13.56 26.28,17.37 42.66,14.44 -3.27,-6.84 -6,-14.52 -7.94,-23.16 -1.35,-0.1 -2.68,-0.1 -4,-0.1 z"
             style="fill:#ffff00;fill-rule:evenodd;stroke:#000000;stroke-width:1.89354" /><path
             id="path21367"
             d="m 459.66,440.78 c -7,0.2 -15.39,0.19 -24.35,1.16 l -2.62,20.62 c 3.38,-0.21 6.87,-0.27 10.56,0 5.45,-7.91 11.05,-15.58 16.41,-21.81 z m -25.38,1.28 c -4.66,0.55 -9.47,1.35 -14.31,2.63 l 1.84,19.53 c 3.13,-0.78 6.41,-1.29 9.85,-1.56 z M 419,444.97 c -5.64,1.56 -11.31,3.78 -16.84,6.87 l 9,16.03 c 3.07,-1.41 6.3,-2.53 9.68,-3.43 z m -56.22,4.69 c -0.46,0 -0.92,0 -1.37,0 l 14.21,26.53 c 0.14,0.24 0.1,0.55 -0.18,0.69 -0.24,0.13 -0.55,0 -0.69,-0.19 l -14.44,-26.97 c -3.73,0.26 -6.98,0.99 -9.75,2.12 l 18.97,28.07 c 0.16,0.23 0.11,0.56 -0.12,0.72 -0.24,0.15 -0.57,0.1 -0.72,-0.16 l -19.07,-28.19 c -2.89,1.35 -5.19,3.14 -6.87,5.35 l 21.22,25.28 c 0.17,0.21 0.12,0.51 -0.1,0.68 -0.22,0.18 -0.52,0.16 -0.69,-0.1 L 342.16,458.5 c -2.01,3.02 -2.96,6.66 -2.75,10.75 l 16.18,21.37 c -1.42,24.68 1.74,44.42 7.78,60.19 l 9.72,-8.9 c -0.64,-0.77 -1.22,-1.48 -1.87,-2.25 -0.13,-0.14 -0.16,-0.36 -0.1,-0.54 0.1,-0.17 0.21,-0.29 0.4,-0.31 0.18,0 0.36,0.1 0.47,0.19 6.48,7.67 12.22,15.03 18.44,21.56 0,0 0,0 0.1,0 0.13,0 0.23,0.16 0.28,0.28 0,0 0,0 0,0 2.97,3.09 6.11,5.94 9.44,8.59 0.13,0 0.27,0 0.37,0.1 0.11,0.1 0.18,0.21 0.19,0.35 0,0 0,0 0,0 7.56,5.9 16.39,10.56 28.03,13.19 0,0 0.1,0 0.1,0 0.11,0 0.22,0 0.31,0.1 0,0 0,0 0.1,0 0.1,0 0.1,0 0.13,0 0.18,0 0.32,0.17 0.37,0.35 0.1,0.17 0,0.37 -0.12,0.5 l 10.09,27.09 c 8.1,1.55 14.85,2.06 19,2.19 -11.13,-16.05 -21.65,-29.65 -34.97,-54 -12.04,-4.55 -23.15,-9.96 -31.16,-18.1 -8.32,-8.45 -13.25,-19.87 -12.4,-36.15 0,-0.22 0.16,-0.42 0.37,-0.47 0.16,0 0.32,0 0.44,0.1 0.13,0.11 0.2,0.28 0.19,0.44 -0.84,16.06 3.98,27.13 12.12,35.41 8.05,8.18 19.39,13.61 31.75,18.21 15.34,-0.72 24.66,-10.14 24.94,-28.5 l 12.38,-4.68 -12.88,-5.94 -4.98,-5.16 c -0.17,-0.12 -11.11,-1.49 -8.58,-6.68 0.1,-0.2 0.25,-0.34 0.47,-0.35 3.97,-0.2 5.97,4.6 6.06,4.67 l 6.97,5.74 c 1.39,-19.73 -15.07,-22.88 -27.53,-23 5.75,-8.76 13.04,-20.29 20.65,-31.41 -12.22,-1.05 -22.48,1.11 -31.5,5.35 -4.71,2.21 -9.07,5.02 -13.21,8.18 0,0 -0.1,0.1 -0.13,0.1 -4.8,3.67 -9.31,7.85 -13.66,12.31 -0.1,0.18 -0.32,0.26 -0.53,0.22 -0.2,0 -0.33,-0.17 -0.37,-0.38 0,-0.2 0,-0.42 0.22,-0.53 1.57,-1.61 3.19,-3.18 4.81,-4.72 l -8.38,-12.72 c -0.6,0.8 -1.18,1.61 -1.78,2.44 l -8.09,-23.75 c -2.54,-0.3 -4.95,-0.43 -7.19,-0.4 z m 38.47,2.65 c -4.31,2.5 -8.52,5.57 -12.56,9.31 l 9.03,14.41 c 3.93,-2.96 8.03,-5.65 12.47,-7.78 z m -13.28,10 c -2.57,2.45 -5.08,5.18 -7.47,8.22 l 8.44,12.84 c 2.57,-2.4 5.22,-4.66 7.97,-6.78 z m -14.22,80.35 -9.88,9.03 c 0,0 -0.1,0.1 -0.12,0.1 1.82,4.6 3.89,8.84 6.16,12.78 l 11.43,-12.78 c -2.48,-2.96 -5.01,-6.02 -7.59,-9.12 z m 8.22,9.9 -11.53,12.91 c 2.48,4.21 5.2,8.05 8.09,11.56 l 11.06,-15.87 c -2.59,-2.73 -5.12,-5.63 -7.62,-8.6 z m 8.37,9.31 -11.15,15.97 c 2.75,3.26 5.67,6.25 8.68,8.94 l 11.66,-16.56 c -3.24,-2.58 -6.29,-5.35 -9.19,-8.35 z m 9.97,8.97 -11.65,16.6 c 5.28,4.61 10.85,8.43 16.5,11.56 l 3.21,-22.72 c -2.86,-1.65 -5.53,-3.48 -8.06,-5.44 z m 8.97,6 -3.19,22.66 c 4.42,2.39 8.87,4.38 13.22,6.03 l -1.59,-24.62 c 0,0 0,-0.1 0,-0.13 -3,-1.16 -5.81,-2.47 -8.44,-3.94 z m 9.44,4.38 1.62,24.69 c 6.45,2.37 12.67,3.99 18.28,5.12 l -10.03,-26.94 c -3.51,-0.79 -6.82,-1.74 -9.87,-2.87 z"
             style="fill:#ffff00;fill-rule:evenodd;stroke:#000000;stroke-width:1.89354" /><path
             id="path23149"
             d="m 397.24,476.89 c 0,0 0,-0.1 0,0 z"
             style="fill:#000000;fill-opacity:1;fill-rule:evenodd;stroke:#000000;stroke-width:1px;stroke-linecap:butt;stroke-linejoin:miter;stroke-opacity:1" /><path
             id="path23184"
             d="m 390.17,560.92 c 0,0 -0.1,0 0,0 z"
             style="fill:#000000;fill-opacity:1;fill-rule:evenodd;stroke:#000000;stroke-width:1px;stroke-linecap:butt;stroke-linejoin:miter;stroke-opacity:1" /><path
             id="path25920"
             d="m 562.91,189.48 c -36.62,83.84 34.85,124.75 34.85,124.75 14.79,-46.73 -10.39,-97.38 -34.85,-124.75 z"
             style="fill:#ffff00;fill-rule:evenodd;stroke:#000000;stroke-width:1.89354" /><path
             id="path25922"
             d="m 520.58,276.2 c 37.47,0.43 56.15,21.06 65.75,39.93 -13.42,7.02 -86.18,8.54 -124,-28.03 23.24,-8.66 42.43,-12.09 58.25,-11.9 z m -10,13.15 c -2.16,0 -3.91,1.75 -3.91,3.91 0,2.16 1.75,3.94 3.91,3.94 2.16,0 3.9,-1.78 3.9,-3.94 0,-2.16 -1.74,-3.91 -3.9,-3.91 z m 34.97,6.19 c -2.17,0 -3.91,1.75 -3.91,3.91 0,2.16 1.74,3.93 3.91,3.93 2.16,0 3.9,-1.77 3.9,-3.93 0,-2.16 -1.74,-3.91 -3.9,-3.91 z"
             style="fill:#ffff00;fill-rule:evenodd;stroke:#000000;stroke-width:1.89354" /><path
             id="path25924"
             d="m 578.36,307.85 c 27.43,14.86 53.38,49.45 57.48,81.26 1.48,11.08 -1,19.79 -2.85,30.78 -2.62,4.03 -8.34,-0.25 -6.3,-4.28 5.22,-21.57 -3.35,-55.78 -21.6,-77.99 -8.53,-9.91 -19.81,-17.25 -30.51,-24.52 -1.63,-2.55 0.86,-5.94 3.78,-5.25 z"
             style="fill:#ffff00;fill-rule:evenodd;stroke:#000000;stroke-width:1.89354" /><path
             id="path25926"
             d="m 701.45,567.48 c 5.94,1.59 1.19,8.42 0,11.86 -15.11,35.74 -36.76,69.46 -66.65,94.54 -5.06,3.32 -8.33,8.25 -14.97,6.3 -3.64,-2.43 -0.24,-7.48 3.35,-7.13 15.02,-7.43 23.05,-19.29 33.72,-31.82 17.71,-21.8 31.16,-46.7 41.59,-72.69 0.75,-0.81 1.9,-1.25 3,-1.06 z"
             style="fill:#ffff00;fill-rule:evenodd;stroke:#000000;stroke-width:1.89354" /><path
             id="path25928"
             d="m 618.54,215.38 c -34.61,81.98 -3.34,121.97 7.71,132.43 22.46,-37.8 19.43,-104.88 -7.71,-132.43 z"
             style="fill:#ffff00;fill-rule:evenodd;stroke:#000000;stroke-width:1.89354" /><path
             id="path25930"
             d="m 670.96,243.15 c -39.79,51.44 -40.3,115.89 -27.83,141.9 33,-14.06 46.04,-79.35 27.83,-141.9 z"
             style="fill:#ffff00;fill-rule:evenodd;stroke:#000000;stroke-width:1.89354" /><path
             id="path25932"
             d="m 721.14,324.48 c -6.61,63.61 -46.78,120 -72.28,117.81 -11.58,-59.04 45.17,-105.48 72.28,-117.81 z m -41.75,63.28 c -2.16,0 -3.91,1.74 -3.91,3.9 0,2.17 1.75,3.94 3.91,3.94 2.16,0 3.91,-1.77 3.91,-3.94 0,-2.16 -1.75,-3.9 -3.91,-3.9 z"
             style="fill:#ffff00;fill-rule:evenodd;stroke:#000000;stroke-width:1.89354" /><path
             id="path25934"
             d="m 754.86,371.33 c -24.96,1.98 -92.62,47.32 -92.65,107.08 33.18,-2.99 81.75,-59.53 92.65,-107.08 z"
             style="fill:#ffff00;fill-rule:evenodd;stroke:#000000;stroke-width:1.89354" /><path
             id="path25936"
             d="m 766.06,421.19 c -22.11,-0.35 -90.84,42.85 -95.87,96.54 42.65,-2.1 84.97,-49 95.87,-96.54 z"
             style="fill:#ffff00;fill-rule:evenodd;stroke:#000000;stroke-width:1.89354" /><path
             id="path25938"
             d="m 774.99,476.45 c -18.54,-0.7 -85.66,33.93 -80.33,105.12 92.64,-46.38 71.57,-97.03 80.33,-105.12 z"
             style="fill:#ffff00;fill-rule:evenodd;stroke:#000000;stroke-width:1.89354" /><path
             id="path25940"
             d="m 801.42,612.7 c -17.65,-13.38 -111.02,-15.89 -131.05,26.37 12.65,8.08 100.68,11.36 131.05,-26.37 z"
             style="fill:#ffff00;fill-rule:evenodd;stroke:#000000;stroke-width:1.89354" /><path
             id="path25942"
             d="m 772.4,665.26 c -27.65,-16.77 -112.98,-31.43 -133.01,10.83 11.22,15.59 76.93,22.61 133.01,-10.83 z"
             style="fill:#ffff00;fill-rule:evenodd;stroke:#000000;stroke-width:1.89354" /><path
             id="path25944"
             d="m 598.7,705.95 c 46.43,1.07 85.66,26.44 102.19,39.15 -28.65,10.97 -58.5,11.63 -84.25,6.85 -1.33,-0.93 -2.72,-1.88 -4.22,-2.88 -8.67,-5.75 -20.06,-12.54 -32.91,-18.81 -2.6,-1.27 -5.25,-2.54 -7.96,-3.75 9.21,-5.51 18.38,-12.25 27.15,-20.56 z m 31.94,21.28 c -2.16,0 -3.91,1.74 -3.91,3.9 0,2.16 1.75,3.94 3.91,3.94 2.16,0 3.91,-1.78 3.91,-3.94 0,-2.16 -1.75,-3.9 -3.91,-3.9 z m -61.06,0.47 c 3.22,1.41 6.39,2.87 9.47,4.37 12.79,6.25 24.14,13.02 32.78,18.75 3.9,2.59 7.22,4.94 9.9,6.97 16.86,15.64 29.32,30.98 34.32,39.19 -67.43,5.76 -118.03,-19.98 -143.54,-48.91 16.37,-2.9 36.75,-8.64 57.07,-20.37 z"
             style="fill:#ffff00;fill-rule:evenodd;stroke:#000000;stroke-width:1.89354" /><path
             id="path25946"
             d="m 591.7,579.95 c -5.72,42.01 -22.98,61.57 -55.09,67.06 -4.03,-35.86 36.38,-61.34 55.09,-67.06 z m -20.53,23 c -2.16,0 -3.91,1.74 -3.91,3.9 0,2.16 1.75,3.94 3.91,3.94 2.16,0 3.91,-1.78 3.91,-3.94 0,-2.16 -1.75,-3.9 -3.91,-3.9 z m -15.53,17.68 c -2.16,0 -3.91,1.75 -3.91,3.91 0,2.16 1.75,3.94 3.91,3.94 2.16,0 3.91,-1.78 3.91,-3.94 0,-2.16 -1.75,-3.91 -3.91,-3.91 z"
             style="fill:#ffff00;fill-rule:evenodd;stroke:#000000;stroke-width:1.89354" /><path
             id="path25948"
             d="m 536.12,596.87 c -29.07,8 -41.94,48.14 -27.81,72.63 20.49,-11.29 28.66,-49.81 27.81,-72.63 z"
             style="fill:#ffff00;fill-rule:evenodd;stroke:#000000;stroke-width:1.89354" /><path
             id="path25950"
             d="m 574.26,651.67 c -10.13,0.17 -40.43,-6.41 -53.07,26.42 21.25,-0.18 31.18,2.71 53.07,-26.42 z"
             style="fill:#ffff00;fill-rule:evenodd;stroke:#000000;stroke-width:1.89354" /><path
             id="path25952"
             d="m 477.16,614.68 c -11.39,32.74 5.28,66.06 14.62,74.4 16.7,-19.88 2.65,-65.98 -14.62,-74.4 z"
             style="fill:#ffff00;fill-rule:evenodd;stroke:#000000;stroke-width:1.89354" /><path
             id="path25954"
             d="m 540.58,641.73 c 4.7,4.03 -5.76,8.82 -7.76,13.19 -11.71,13.09 -25.18,26.06 -36.89,39.15 -4.87,-2.6 2.83,-7.32 5.62,-11.16 13,-13.67 25.91,-27.54 37.43,-42.65 0.53,0.49 1.07,0.98 1.6,1.47 z"
             style="fill:#ffff00;fill-rule:evenodd;stroke:#000000;stroke-width:1.89354" /><path
             id="path25956"
             d="m 669.83,551.51 c -5.63,59.82 -25.62,101.34 -49.07,130.06 L 578.3,646.16 c 25.96,-23.45 41.54,-70.03 38.5,-94.4 z m -92.28,95.34 42.56,35.47 c -32.26,39.11 -70.78,54.16 -87.19,59.19 7.47,-8.94 16.99,-14.66 28.13,-21.03 11.58,-6.63 24.91,-13.99 39.37,-26.44 l -0.66,-0.75 c -14.38,12.38 -27.59,19.67 -39.18,26.31 -7.21,4.13 -13.7,8.1 -19.5,12.78 -0.52,-2.43 -2.12,-4.04 -4.32,-4.9 -0.99,-0.39 -2.14,-0.62 -3.34,-0.78 16.34,-12.78 42.77,-20.11 61.06,-35.29 l -0.65,-0.78 c -15.35,12.73 -36.69,19.94 -52.97,29.78 -0.58,-1.66 -1.85,-2.9 -3.75,-3.62 -2.2,-0.83 -5.03,-1.18 -8.22,-1.31 -6.22,-0.26 -13.69,0.32 -19.81,0.15 l -0.78,-26.31 c 11.89,-1.07 17.83,-3.66 26.65,-10.03 22.8,-3.09 29.52,-14.16 40.78,-29.16 -0.63,0 -1.33,0 -2.12,0 1.34,-1.01 2.64,-2.11 3.94,-3.25 z m -70.25,42.56 1.78,57.82 c -2.27,0.4 -4.47,0.73 -6.57,1.03 l -1.78,-58.47 c 2.38,-0.1 4.56,-0.21 6.57,-0.38 z m -7.57,0.41 1.82,58.59 c -4.48,0.63 -8.52,1.06 -12.04,1.35 l 0.47,-59.72 c 3.62,0 6.82,-0.12 9.75,-0.22 z m 26.75,26.59 c 0.8,0 1.58,0 2.35,0.1 3.14,0.13 5.92,0.49 7.93,1.25 1.83,0.69 2.88,1.74 3.29,3.18 -2.89,1.79 -5.65,3.65 -8.13,5.66 -1.08,-0.1 -2.17,-0.14 -3.34,-0.12 -6.12,0.1 -13.33,1.22 -19.13,1.15 l -0.34,-10.97 c 5.42,0.14 11.78,-0.28 17.37,-0.22 z m 2.13,11.04 c 1.15,0 2.18,0 3.22,0.12 l 0.15,0.19 c 0.1,-0.1 0.17,-0.12 0.25,-0.19 1.56,0.14 3,0.39 4.16,0.84 2.01,0.8 3.32,2.07 3.75,4.25 l 0.78,-0.15 c -3.47,2.82 -6.77,5.83 -9.66,9.47 v 0 c -7.55,2.24 -14.71,3.85 -21.25,5.03 l -0.57,-18.44 c 5.94,0.1 13.15,-1.06 19.13,-1.15 z"
             style="fill:#ffff00;fill-rule:evenodd;stroke:#000000;stroke-width:1.89354" /><path
             id="path25958"
             d="m 481.32,685.62 c -4.92,0 -8.89,3.97 -8.89,8.89 0,4.91 3.97,8.96 8.89,8.96 4.92,0 8.89,-4.05 8.89,-8.96 0,-4.92 -3.97,-8.89 -8.89,-8.89 z"
             style="fill:#ffff00;fill-rule:evenodd;stroke:#000000;stroke-width:1.89354" /><path
             id="path25960"
             d="m 481.34,702.94 c -4.92,0 -8.89,3.98 -8.89,8.89 0,4.92 3.97,8.96 8.89,8.96 4.92,0 8.89,-4.04 8.89,-8.96 0,-4.91 -3.97,-8.89 -8.89,-8.89 z"
             style="fill:#ffff00;fill-rule:evenodd;stroke:#000000;stroke-width:1.89354" /><path
             id="path25962"
             d="m 481.52,720.62 c -4.92,0 -8.89,3.97 -8.89,8.89 0,4.91 3.97,8.96 8.89,8.96 4.91,0 8.89,-4.05 8.89,-8.96 0,-4.92 -3.98,-8.89 -8.89,-8.89 z"
             style="fill:#ffff00;fill-rule:evenodd;stroke:#000000;stroke-width:1.89354" /><path
             id="path25964"
             d="m 481.16,738.03 c -4.91,0 -8.88,3.97 -8.88,8.89 0,4.92 3.97,8.96 8.88,8.96 4.92,0 8.89,-4.04 8.89,-8.96 0,-4.92 -3.97,-8.89 -8.89,-8.89 z"
             style="fill:#ffff00;fill-rule:evenodd;stroke:#000000;stroke-width:1.89354" /><path
             id="path25966"
             d="m 607.01,453.23 c 4.53,2.63 -0.1,5.89 -1.38,9.03 -13.5,16.57 -19.81,41.37 -7.22,60.21 6.34,9.79 15.69,15.81 26.7,17.91 1.26,6.23 -4.08,5.75 -7.98,4.61 -21.96,-5.29 -36.01,-29.82 -32.84,-51.79 1.75,-15.78 10.62,-29.91 21.22,-41.38 0.5,0.47 1,0.94 1.5,1.41 z"
             style="fill:#ffff00;fill-rule:evenodd;stroke:#000000;stroke-width:1.89354" /><path
             id="path25968"
             d="m 615,395.25 c 33.07,44.32 55.25,93.41 54.05,154.23 l -16.79,0.1 c 0.5,-5.7 0.32,-12.5 -1.15,-18.34 -1.51,-5.97 -4.44,-10.94 -9.44,-12.5 -1.46,-25.71 -14.91,-60.09 -26.91,-76 l -0.78,0.59 c 11.75,15.58 25.12,49.75 26.66,75.13 -3.02,1.91 -4.95,3.9 -6.47,6.56 -0.98,-1.61 -2,-2.83 -3.03,-3.6 -0.72,-12.87 -5.05,-31.97 -11,-49.06 -2.99,-8.58 -6.36,-16.65 -9.91,-23.15 -3.55,-6.51 -7.23,-11.46 -10.93,-13.82 l -0.54,0.85 c 3.42,2.17 7.09,7 10.6,13.43 3.51,6.44 6.87,14.46 9.84,23 5.94,17.06 10.28,36.2 10.97,48.91 -4.5,1.88 -7.66,4.73 -9.94,7.38 0.81,-29.58 -4.07,-60.19 -38.06,-95.91 z m 25.89,124.2 0.19,0.1 c 4.73,1.28 7.56,6.02 9.06,11.97 1.44,5.71 1.62,12.46 1.12,18.09 l -32.21,0.16 c 0.48,-6.37 0.9,-12.74 1.12,-19.16 2.29,-2.86 5.58,-6.13 10.53,-8.16 1.86,1.49 4.12,5.21 5.85,10.07 1.81,5.11 3.07,11.32 3.03,17.06 h 1 c 0,-5.89 -1.24,-12.19 -3.1,-17.41 -0.83,-2.35 -1.82,-4.37 -2.81,-6.15 1.46,-2.74 3.28,-4.63 6.22,-6.53 z"
             style="fill:#ffff00;fill-rule:evenodd;stroke:#000000;stroke-width:1.89354" /><path
             id="path25970"
             d="m 572.34,429.94 c -9.6,-2.69 -37.4,-3.56 -52.53,11.95 12.61,6.95 41.54,13.61 52.53,-11.95 z"
             style="fill:#ffff00;fill-rule:evenodd;stroke:#000000;stroke-width:1.89354" /><path
             id="path25972"
             d="m 541.8,420.22 c -9.59,-3.76 -46.32,-3.55 -57.89,13.56 11.79,4.47 46.9,12 57.89,-13.56 z"
             style="fill:#ffff00;fill-rule:evenodd;stroke:#000000;stroke-width:1.89354" /><path
             id="path25974"
             d="m 528.14,410.56 c -3.52,-6.08 -37.93,-25.34 -63.6,-7.87 8.75,4.82 29.4,25.03 63.6,7.87 z"
             style="fill:#ffff00;fill-rule:evenodd;stroke:#000000;stroke-width:1.89354" /><path
             id="path25976"
             d="m 523.55,406.79 c 22.84,7.33 45.73,14.87 67.28,25.47 -1.13,7.4 -6.91,1.74 -11.25,0.25 -19.3,-8.58 -39.41,-15.11 -59.5,-21.56 1.12,-1.57 0.43,-6.26 3.47,-4.16 z"
             style="fill:#ffff00;fill-rule:evenodd;stroke:#000000;stroke-width:1.89354" /><path
             id="path25978"
             d="m 558.55,322.85 c 16.04,0.1 32.2,6.27 44.15,21.41 -16.11,-0.31 -32.46,1.76 -45.72,6.69 0,0 0,0 0,0 -13.33,-6.6 -26.74,-11.25 -40.09,-14.32 11.27,-8.43 26.41,-13.86 41.69,-13.78 z m 28.31,28.94 c 15.6,0.25 29.77,7.83 33.44,26.53 -8.32,-0.75 -15.61,-0.65 -22,0.13 -10.75,-9.15 -21.64,-16.71 -32.6,-22.88 6.79,-2.52 14.13,-3.89 21.16,-3.78 z m -85.85,27.78 c 9.03,0.73 18.15,2.23 27.57,5.88 0.26,6.6 2.43,14.09 6.97,22.53 -19.3,-8.28 -30.04,-18.26 -34.54,-28.41 z m 36.75,10.09 c 7.49,4.06 15.19,9.73 23.19,17.69 -0.75,2.95 -1.21,6.02 -1.4,9.19 -14.18,-8.9 -20.61,-18.19 -21.79,-26.88 z"
             style="fill:#ffff00;fill-rule:evenodd;stroke:#000000;stroke-width:1.89354" /><path
             id="path25982"
             d="m 570.17,509.45 c 7.25,1.41 12.79,4.39 15.66,8.15 -2.27,7.65 -9.3,10.34 -17.63,10.41 0.99,-5.79 1.65,-11.96 1.94,-18.56 0,0 0,0 0,0 z m 0.72,25.09 c 13.48,0.12 24.82,4.16 30.72,8.81 -8.89,13.56 -26.28,17.37 -42.66,14.44 3.28,-6.84 6,-14.52 7.94,-23.16 1.35,-0.1 2.68,-0.1 4,-0.1 z"
             style="fill:#ffff00;fill-rule:evenodd;stroke:#000000;stroke-width:1.89354" /><path
             id="path25984"
             d="m 465.08,440.82 c 6.99,0.2 15.38,0.19 24.34,1.16 l 2.63,20.62 c -3.39,-0.21 -6.88,-0.27 -10.57,0 -5.44,-7.91 -11.05,-15.58 -16.4,-21.81 z m 25.37,1.28 c 4.67,0.55 9.47,1.35 14.31,2.63 l -1.84,19.53 c -3.12,-0.78 -6.41,-1.29 -9.84,-1.56 z m 15.28,2.91 c 5.65,1.56 11.31,3.78 16.85,6.87 l -9,16.03 c -3.07,-1.41 -6.31,-2.53 -9.69,-3.43 z m 56.22,4.69 c 0.47,0 0.92,0 1.38,0 l -14.22,26.53 c -0.14,0.24 -0.1,0.55 0.19,0.69 0.24,0.13 0.55,0.1 0.68,-0.19 l 14.44,-26.97 c 3.73,0.26 6.99,0.99 9.75,2.12 l -18.97,28.07 c -0.15,0.23 -0.11,0.56 0.13,0.72 0.23,0.15 0.56,0.1 0.72,-0.16 l 19.06,-28.19 c 2.89,1.35 5.19,3.14 6.87,5.35 l -21.22,25.28 c -0.17,0.21 -0.12,0.51 0.1,0.68 0.21,0.18 0.51,0.16 0.69,-0.1 l 21.03,-25.06 c 2.01,3.02 2.95,6.66 2.75,10.75 l -16.19,21.37 c 1.43,24.68 -1.73,44.42 -7.78,60.19 l -9.72,-8.9 c 0.64,-0.77 1.22,-1.48 1.87,-2.25 0.14,-0.14 0.16,-0.36 0.1,-0.54 -0.1,-0.17 -0.22,-0.29 -0.41,-0.31 -0.18,0 -0.36,0 -0.47,0.19 -6.47,7.67 -12.22,15.03 -18.43,21.56 0,0 0,0 -0.1,0 -0.13,0 -0.23,0.16 -0.28,0.28 0,0 0,0 0,0 -2.97,3.09 -6.11,5.94 -9.44,8.59 -0.13,0 -0.26,0 -0.37,0.1 -0.11,0.1 -0.17,0.21 -0.19,0.35 0,0 0,0 0,0 -7.56,5.9 -16.39,10.56 -28.03,13.19 0,0 -0.1,0 -0.1,0 -0.12,0 -0.23,0 -0.32,0.1 0,0 0,0 -0.1,0 0,0 -0.1,0 -0.12,0 -0.18,0 -0.33,0.17 -0.38,0.35 -0.1,0.17 0,0.37 0.13,0.5 l -10.1,27.09 c -8.1,1.55 -14.85,2.06 -19,2.19 11.14,-16.06 21.65,-29.65 34.97,-54 12.05,-4.55 23.15,-9.96 31.16,-18.1 8.32,-8.45 13.26,-19.87 12.4,-36.15 0,-0.23 -0.16,-0.42 -0.37,-0.47 -0.16,0 -0.31,0 -0.44,0.1 -0.12,0.11 -0.2,0.28 -0.19,0.44 0.85,16.06 -3.98,27.13 -12.12,35.41 -8.05,8.18 -19.39,13.61 -31.75,18.21 -15.33,-0.72 -24.65,-10.14 -24.94,-28.5 l -12.38,-4.69 12.88,-5.93 4.98,-5.16 c 0.17,-0.12 11.11,-1.49 8.58,-6.68 -0.1,-0.2 -0.25,-0.34 -0.46,-0.35 -3.98,-0.2 -5.98,4.6 -6.06,4.67 l -6.97,5.74 c -1.4,-19.73 15.06,-22.88 27.53,-23 -5.75,-8.76 -13.04,-20.29 -20.66,-31.41 12.22,-1.05 22.48,1.11 31.5,5.35 4.71,2.21 9.07,5.02 13.22,8.18 0,0 0.1,0.1 0.12,0.1 4.8,3.67 9.31,7.85 13.66,12.31 0.11,0.18 0.33,0.26 0.53,0.22 0.2,0 0.34,-0.17 0.38,-0.38 0,-0.2 0,-0.42 -0.22,-0.53 -1.58,-1.61 -3.19,-3.18 -4.82,-4.72 l 8.38,-12.72 c 0.61,0.8 1.19,1.61 1.78,2.44 l 8.09,-23.75 c 2.55,-0.3 4.95,-0.43 7.19,-0.4 z m -38.47,2.65 c 4.31,2.5 8.52,5.57 12.57,9.31 l -9.04,14.41 c -3.92,-2.96 -8.03,-5.65 -12.46,-7.78 z m 13.28,10 c 2.57,2.45 5.08,5.18 7.47,8.22 l -8.43,12.84 c -2.58,-2.4 -5.22,-4.66 -7.97,-6.78 z m 14.22,80.35 9.88,9.03 c 0,0 0.1,0.1 0.12,0.1 -1.81,4.6 -3.89,8.84 -6.15,12.78 l -11.44,-12.78 c 2.48,-2.96 5.01,-6.02 7.59,-9.12 z m -8.22,9.9 11.54,12.91 c -2.49,4.21 -5.2,8.05 -8.1,11.56 L 535.14,561.2 c 2.59,-2.73 5.12,-5.63 7.62,-8.6 z m -8.37,9.31 11.16,15.97 c -2.76,3.26 -5.68,6.25 -8.69,8.94 L 525.2,570.26 c 3.24,-2.58 6.3,-5.35 9.19,-8.35 z m -9.97,8.97 11.66,16.6 c -5.28,4.61 -10.85,8.43 -16.5,11.56 l -3.22,-22.72 c 2.86,-1.65 5.54,-3.48 8.06,-5.44 z m -8.97,6 3.19,22.66 c -4.42,2.39 -8.86,4.38 -13.22,6.03 l 1.59,-24.62 c 0,-0.1 0,-0.1 0,-0.13 3,-1.16 5.81,-2.48 8.44,-3.94 z m -9.44,4.38 -1.62,24.69 c -6.45,2.37 -12.66,3.99 -18.28,5.12 l 10.03,-26.94 c 3.51,-0.79 6.82,-1.74 9.87,-2.87 z"
             style="fill:#ffff00;fill-rule:evenodd;stroke:#000000;stroke-width:1.89354" /><path
             id="path25986"
             d="m 527.49,476.93 c 0,0 0,-0.1 0,0 z"
             style="display:inline;fill:#000000;fill-opacity:1;fill-rule:evenodd;stroke:#000000;stroke-width:1px;stroke-linecap:butt;stroke-linejoin:miter;stroke-opacity:1" /><path
             id="path25988"
             d="m 534.56,560.96 c 0,0 0.1,0 0,0 z"
             style="display:inline;fill:#000000;fill-opacity:1;fill-rule:evenodd;stroke:#000000;stroke-width:1px;stroke-linecap:butt;stroke-linejoin:miter;stroke-opacity:1" /><path
             id="path26027"
             d="m 788.85,548.91 c 10.4,0 19.9,2.11 27.47,6.34 -21.97,39.69 -88.57,57.64 -119.78,52.59 15.06,-37.68 58.35,-59.07 92.31,-58.93 z m -16.25,17.46 c -2.16,0 -3.91,1.75 -3.91,3.91 0,2.16 1.75,3.94 3.91,3.94 2.16,0 3.91,-1.78 3.91,-3.94 0,-2.16 -1.75,-3.91 -3.91,-3.91 z m -32.87,15.35 c -2.17,0 -3.91,1.74 -3.91,3.9 0,2.17 1.74,3.94 3.91,3.94 2.16,0 3.9,-1.77 3.9,-3.94 0,-2.16 -1.74,-3.9 -3.9,-3.9 z"
             style="fill:#ffff00;fill-rule:evenodd;stroke:#000000;stroke-width:1.89354" /></g></g></g></g><metadata
     id="metadata307"><rdf:RDF><cc:Work
         rdf:about=""><dc:creator><cc:Agent><dc:title>vlk2020</dc:title></cc:Agent></dc:creator></cc:Work></rdf:RDF></metadata></svg>
