<?xml version="1.0" encoding="UTF-8" standalone="no"?>
<!-- Created with Inkscape (http://www.inkscape.org/) -->

<svg
   width="210"
   height="197.55597"
   viewBox="0 0 210 197.55597"
   version="1.1"
   id="svg11533"
   xml:space="preserve"
   xmlns="http://www.w3.org/2000/svg"
   xmlns:svg="http://www.w3.org/2000/svg"
   xmlns:rdf="http://www.w3.org/1999/02/22-rdf-syntax-ns#"
   xmlns:cc="http://creativecommons.org/ns#"
   xmlns:dc="http://purl.org/dc/elements/1.1/"><defs
     id="defs11530" /><g
     id="layer1"
     transform="translate(0,-7.794776)"><path
       style="fill:#ffff00;fill-rule:evenodd;stroke-width:2.64371"
       d="m 557.25404,404.2563 c -84.71747,4.51176 -169.45048,8.8313 -254.1489,13.71342 -16.13279,1.34091 -32.54692,1.47548 -48.48704,4.03865 -10.42995,15.10115 -23.34037,28.75008 -32.15279,44.84374 7.76201,14.92299 18.91118,28.44331 28.87506,42.12503 8.85131,6.41889 21.13973,3.54458 31.37937,5.17643 88.17667,4.13678 176.16431,11.72488 264.33829,15.75209 3.21082,-0.60413 8.80325,1.33403 10.92136,-1.21854 -9.84127,-20.31313 -21.11,-40.14847 -31.47651,-60.06526 7.78911,-20.5141 20.53964,-38.94804 29.92764,-58.81633 -0.1661,-1.23307 4.78519,-6.3309 0.82352,-5.54923 z"
       id="path15659"
       transform="scale(0.26458333)" /><path
       style="fill:#ffff00;fill-rule:evenodd;stroke-width:2.64371"
       d="m 237.53685,269.38422 c -5.63906,0.82568 -0.0392,7.6701 0.99518,10.39193 9.32592,18.61379 21.05672,36.20386 29.89232,54.92259 -9.47269,21.85222 -23.50103,41.74156 -32.01371,63.89926 3.65311,3.97526 11.09154,0.18043 15.95713,0.95817 94.37789,-5.90298 188.94536,-9.2186 283.18566,-17.07137 7.75748,-0.38576 10.06964,-10.16715 15.2574,-14.57562 7.87072,-10.94189 17.51055,-21.30736 23.86533,-33.02229 -9.87859,-15.76104 -20.72784,-31.07903 -32.25641,-45.65635 -7.92853,-7.25766 -20.01488,-2.67769 -29.58097,-4.78004 -91.72689,-5.7985 -183.56084,-9.58385 -275.30193,-15.06628 z"
       id="path15661"
       transform="scale(0.26458333)" /><path
       style="fill:#ffff00;fill-rule:evenodd;stroke-width:2.64371"
       d="m 204.95322,100.22965 c -19.81328,8.73547 -36.71629,23.15268 -53.85697,36.20812 -71.577878,58.32351 -119.726239,145.82444 -125.921582,238.40082 1.693747,5.88268 -6.41027,20.88291 3.029577,19.84359 19.688489,-0.0774 39.452989,0.15351 59.094479,-0.11453 23.597906,-34.12736 44.411926,-70.16535 68.014146,-104.24909 7.7657,1.2856 14.9768,8.20417 22.5115,11.34864 7.21169,3.05882 14.11237,9.25569 21.89322,10.0602 5.92992,-7.83699 12.36595,-16.28303 15.2924,-25.67914 -6.46338,-6.99753 -16.65125,-10.50425 -24.37264,-16.23542 -5.82666,-4.47294 -14.33823,-7.2325 -18.66862,-13.06232 21.84587,-31.95873 41.3839,-65.57483 63.0921,-97.67454 3.00978,-3.54244 4.59559,-8.00285 0.56446,-11.62474 -9.84605,-15.82028 -18.87562,-32.82002 -30.36667,-47.23795 h -0.0382 z"
       id="path15663"
       transform="scale(0.26458333)" /><path
       style="fill:#ffff00;fill-rule:evenodd;stroke-width:2.64371"
       d="m 307.50617,156.86174 c -20.65745,0.1053 -41.4057,-0.13336 -62.0068,0.18543 -19.04618,32.67198 -41.43051,63.44099 -59.35626,96.72014 7.80916,8.82258 19.84637,13.72093 29.92189,19.86491 3.68774,3.6977 7.77498,1.91828 10.57791,-1.71199 23.07439,-23.54577 48.9338,-45.07801 79.54617,-58.06917 19.10371,-8.90377 39.82341,-13.40734 60.20978,-17.83933 5.42827,-6.36429 2.04201,-16.26287 3.13482,-23.93393 0.40184,-8.66017 2.32943,-19.26721 -10.02022,-15.26426 -17.33576,0.0161 -34.67152,0.0321 -52.00729,0.0482 z"
       id="path15665"
       transform="scale(0.26458333)" /><path
       style="fill:#ffff00;fill-rule:evenodd;stroke-width:2.64371"
       d="m 395.44844,49.446735 c -60.1176,1.153039 -121.06467,13.461198 -174.46928,41.745991 -4.20343,1.407942 -5.24887,5.558601 -2.20333,8.873304 8.95167,16.09217 18.96303,31.67474 28.34604,47.45338 42.79278,0.65685 85.73933,-1.06326 128.44207,0.97623 3.78406,8.01254 0.81955,18.07906 1.9517,26.78862 0.28101,6.36204 -0.002,13.03028 1.80324,19.09407 12.40991,-0.17522 25.09541,0.34057 37.33933,-0.25088 1.66475,-15.20163 -0.005,-31.35338 3.97308,-46.04357 42.44448,-0.49477 84.9807,-0.18803 127.37041,-0.65173 9.88105,-17.56165 22.19408,-34.11103 30.92022,-52.140905 C 557.71737,82.062514 533.57215,73.749076 509.80308,66.172809 472.75113,55.41016 434.05872,49.420726 395.44844,49.446735 Z"
       id="path15667"
       transform="scale(0.26458333)" /><path
       style="fill:#ffff00;fill-rule:evenodd;stroke-width:2.64371"
       d="m 424.86888,157.06899 c 0.7471,12.71543 -1.53946,26.39077 2.66417,38.56916 12.09628,2.57149 24.90061,4.78472 36.91691,8.54349 39.66888,10.7935 75.03264,34.36432 102.53504,64.67781 3.42494,2.12876 6.37873,10.12877 11.05976,5.35717 10.40541,-6.64978 22.83053,-11.36441 31.64469,-19.95302 -9.02579,-17.62561 -21.22846,-33.7843 -31.23265,-50.9752 -9.76011,-15.45063 -19.241,-31.17604 -29.12984,-46.48392 -41.44841,0.177 -83.19224,-0.35244 -124.45808,0.26451 z"
       id="path15669"
       transform="scale(0.26458333)" /><path
       style="fill:#ffff00;fill-rule:evenodd;stroke:#000000;stroke-width:2.64371"
       d="m 589.8104,100.29509 c -10.83051,11.00836 -17.21743,25.99089 -26.23543,38.54462 -2.22568,5.61376 -11.1559,11.85026 -5.10715,17.9582 20.17093,33.47588 42.20406,65.8724 62.63367,99.13728 0.22485,6.14238 -9.2203,6.94891 -12.78748,10.6291 -9.47054,5.97182 -19.56784,11.2293 -28.38041,18.10961 3.15576,8.44294 9.71992,15.86981 14.08712,23.95575 4.48906,6.7872 12.2054,-0.62752 17.2176,-2.75144 9.51666,-4.70709 18.62663,-11.98939 28.75508,-14.53433 22.8549,34.46777 44.52935,70.08044 67.78236,104.07457 20.17537,0 40.35073,0 60.52609,0 1.92975,-8.97196 -0.66679,-19.68154 -0.87532,-29.30592 -8.89265,-95.9456 -62.84378,-185.26943 -140.26861,-241.80988 -12.0471,-8.43292 -24.01677,-17.90873 -37.34752,-24.00756 z"
       id="path15673"
       transform="scale(0.26458333)" /><path
       style="fill:#ffff00;fill-rule:evenodd;stroke:#000000;stroke-width:2.64371"
       d="m 424.8307,157.07444 c 0.89632,12.14899 -1.45633,25.16553 1.96064,36.89758 11.15551,6.63769 25.24961,6.33153 37.26571,10.97846 38.09317,10.33847 71.74509,32.87017 99.09526,60.8806 4.84832,2.78283 9.41441,12.60763 15.95504,8.01979 10.02968,-5.73334 21.73899,-10.15351 29.63859,-18.75829 -0.84973,-9.39252 -8.80724,-16.90859 -12.81886,-25.24413 -15.55815,-24.50656 -30.35849,-49.86553 -46.53467,-73.74751 -41.18698,-0.0109 -82.37396,-0.0218 -123.56094,-0.0327 l -0.98455,0.98992 z"
       id="path15675"
       transform="scale(0.26458333)" /><path
       style="fill:#ffff00;fill-rule:evenodd;stroke:#000000;stroke-width:2.64371"
       d="m 391.91439,48.879541 c -59.49237,2.08753 -119.88953,14.036921 -172.51138,42.711311 -6.61306,4.665123 2.53329,12.064308 3.86581,17.188088 7.76631,13.23127 15.28284,27.00086 23.97031,39.43583 42.35001,0.8443 84.86369,-0.73443 127.1059,2.03153 3.57592,5.23351 1.66764,13.73245 2.59348,20.08184 0.96426,7.30461 -0.92301,15.79704 1.90044,22.54494 11.16609,2.52325 23.24284,1.74254 34.62607,0.83715 8.30496,-3.30044 3.67086,-14.80696 5.0542,-21.44064 0.22664,-8.07425 1.30473,-15.99889 2.85378,-23.97302 42.45019,-0.35616 85.23974,0.58079 127.47948,-0.57264 9.96503,-17.50702 22.10378,-34.2355 30.09671,-52.650837 C 569.17215,87.032812 556.02434,83.443297 544.58875,78.018729 496.25216,58.859724 443.94943,48.514743 391.91439,48.879541 Z"
       id="path15677"
       transform="scale(0.26458333)" /><path
       style="fill:#ffff00;fill-rule:evenodd;stroke:#000000;stroke-width:2.64371"
       d="m 324.01478,155.65373 c -26.28224,0.46385 -52.90188,-0.29622 -78.9708,0.98441 -18.9693,31.91988 -40.83657,62.21918 -58.04735,95.12763 -1.16096,7.04754 8.66301,9.408 12.78639,13.18725 7.23242,3.78153 14.18897,9.73913 22.02784,11.58384 20.91428,-18.08464 40.2366,-38.46194 64.79383,-51.88423 24.0651,-14.78751 51.72935,-20.89656 78.56162,-28.48819 5.84915,-2.38236 3.22656,-10.9873 4.6657,-15.91142 -0.76038,-7.2924 3.60933,-17.63344 -2.97503,-23.07769 -13.86126,-3.05863 -28.72438,-0.85256 -42.8422,-1.5216 z"
       id="path15679"
       transform="scale(0.26458333)" /><path
       style="fill:#ffff00;fill-rule:evenodd;stroke:#000000;stroke-width:2.64371"
       d="m 204.31239,100.24601 c -18.71257,7.85386 -34.37543,21.69369 -50.6389,33.61469 -74.507953,58.93801 -123.701524,149.68666 -129.503717,244.78805 0.516961,4.88314 -2.671289,11.61376 0.366802,15.61349 21.065967,1.76294 42.618474,1.36217 63.563855,0.6899 22.57333,-33.91936 43.48039,-69.01339 67.41423,-101.98303 3.34283,-3.04304 7.70346,2.89541 11.26205,3.45497 10.52937,4.84385 20.3384,12.43651 31.60469,15.12062 7.8965,-5.91675 13.84977,-15.19511 16.82492,-24.5693 -3.27008,-7.35908 -12.99765,-9.6132 -18.90171,-14.5662 -7.25645,-4.97253 -15.88914,-9.03485 -22.25527,-14.88152 19.36626,-35.69329 44.28501,-68.22909 63.9129,-103.82095 0.50611,-6.47358 -5.93998,-11.94874 -8.29932,-17.74079 -7.99973,-11.95271 -14.6282,-25.47636 -24.71516,-35.70902 l -0.32723,-0.0327 z"
       id="path15681"
       transform="scale(0.26458333)" /><path
       style="fill:#ffff00;fill-rule:evenodd;stroke:#000000;stroke-width:2.64371"
       d="m 54.911426,404.41173 c -10.472535,0.67237 -21.511721,-0.46265 -31.70012,1.31437 0.02307,21.05798 3.586637,42.30182 7.462455,63.05091 14.100929,67.76228 50.047829,130.62139 101.034059,177.39642 22.39589,21.16822 46.7103,41.33951 74.48067,54.89145 8.44047,-6.23508 11.72739,-17.67846 18.00022,-25.91638 4.55691,-8.2534 10.56703,-16.10269 14.14711,-24.66747 -20.83053,-35.67629 -43.56728,-70.29463 -63.3457,-106.54787 2.71604,-4.32818 10.34418,-6.27483 14.894,-9.59669 9.62083,-5.32491 19.2654,-10.61498 28.68991,-16.28423 -2.21396,-6.75456 -8.60554,-12.85696 -11.84833,-19.76724 -2.82117,-3.53324 -6.01085,-12.82769 -11.97924,-8.69879 -14.40866,6.31338 -26.81387,17.18749 -41.79508,21.94603 -9.0723,-11.21126 -15.37924,-24.74596 -23.50288,-36.75668 -15.08153,-23.3325 -28.48964,-48.09601 -44.042239,-70.88739 -10.164945,0.17452 -20.32989,0.34904 -30.494835,0.52356 z"
       id="path15683"
       transform="scale(0.26458333)" /><path
       style="fill:#ffff00;fill-rule:evenodd;stroke:#000000;stroke-width:2.64371"
       d="m 158.09975,302.93044 c -7.83987,3.84549 -10.10837,14.19749 -15.41359,20.6383 -15.39002,25.94052 -32.17504,51.1799 -47.29402,77.19169 7.74208,16.82952 19.63745,31.93879 28.902,48.12887 10.56003,17.11301 21.2671,34.26328 32.1313,51.11092 13.89074,-4.85841 27.27157,-12.53907 40.33891,-19.56273 1.46182,-3.80182 -3.63123,-6.98689 -3.56404,-11.02483 -7.33946,-20.39081 -12.35571,-41.69279 -11.33842,-63.44114 -0.61195,-22.27652 0.6687,-44.73635 8.65714,-65.77087 0.15792,-6.50922 10.25526,-16.85957 1.39691,-20.20804 -11.18407,-5.54537 -21.66681,-13.74025 -33.81619,-17.06217 z"
       id="path15685"
       transform="scale(0.26458333)" /><path
       style="fill:#ffff00;fill-rule:evenodd;stroke:#000000;stroke-width:2.64371"
       d="m 555.88241,403.88817 c -95.11324,4.85861 -190.26951,9.36434 -285.27938,15.97406 -7.35554,1.37835 -17.68346,-0.8128 -21.24551,7.83405 -8.73907,12.71022 -19.71866,24.31037 -26.50772,38.15779 2.42634,11.44506 11.81459,20.33158 17.91023,30.06944 5.90551,8.22864 12.64565,18.72888 24.33215,17.5141 88.99213,5.50716 177.99312,11.12705 266.99735,16.52298 8.36747,-0.41729 17.81427,2.52793 25.66899,-0.70901 -1.1225,-8.07823 -7.46017,-15.50175 -10.58989,-23.21662 -6.61781,-12.65059 -13.35368,-25.23988 -20.02494,-37.86303 9.97335,-21.48233 22.38859,-42.00237 32.01372,-63.50932 -0.64119,-1.33267 -2.20739,-0.58871 -3.275,-0.77444 z"
       id="path15687"
       transform="scale(0.26458333)" /><path
       style="fill:#ffff00;fill-rule:evenodd;stroke:#000000;stroke-width:2.64371"
       d="m 239.95833,269.31605 c -4.30423,-0.98685 -6.6688,3.49218 -3.62677,6.67815 9.09634,20.19747 22.69019,38.37703 30.18397,59.21719 -5.36775,16.30741 -15.90594,30.76628 -23.0855,46.42944 -1.91699,5.81821 -7.79439,11.83699 -6.53946,18.06156 9.77562,2.85656 20.70308,-0.87375 30.83984,-0.40163 87.83865,-5.48011 175.89065,-8.23048 263.53635,-16.39875 6.97981,0.33798 12.7782,-3.33908 15.98957,-9.42878 8.30189,-12.46895 20.20848,-22.88846 26.23363,-36.70751 0.39828,-9.7493 -9.15722,-16.46205 -13.23456,-24.61738 -7.11206,-8.80622 -12.49422,-20.28118 -22.57771,-26.04009 -47.87812,-4.96495 -96.13735,-5.9244 -144.18238,-8.96295 -51.18652,-2.36382 -102.33436,-6.08592 -153.53698,-7.82925 z"
       id="path15689"
       transform="scale(0.26458333)" /><path
       style="fill:#ffff00;fill-rule:evenodd;stroke:#000000;stroke-width:2.64371"
       d="m 215.93441,530.01239 c -9.59713,6.33251 -22.28544,9.48553 -29.54043,18.74193 -0.61355,7.29649 8.06087,11.83762 10.33765,18.32744 16.82753,27.15516 33.47979,54.44572 51.36647,80.92052 38.80802,-1.42405 78.16924,-1.7655 117.17183,-3.56132 6.28393,-0.0471 3.07875,-9.31646 4.56754,-13.28815 0.029,-8.77044 2.285,-18.37117 0.56719,-26.60356 -50.0469,-5.71088 -97.60948,-29.12766 -132.4803,-65.57698 -6.25512,-3.67275 -11.13471,-17.64106 -19.23495,-10.43424 -0.91833,0.49145 -1.83667,0.9829 -2.755,1.47436 z"
       id="path15691"
       transform="scale(0.26458333)" /><path
       style="fill:#ffff00;fill-rule:evenodd;stroke:#000000;stroke-width:2.64371"
       d="m 377.121,606.67896 c 0.32705,15.29848 2.07192,31.35961 1.61432,46.24536 -43.92228,3.35309 -88.20535,0.65088 -132.11792,4.18851 -7.29015,1.6805 -6.90294,11.22754 -11.37114,15.94414 -5.30263,10.74969 -14.26003,20.37194 -16.96673,32.14187 6.43449,8.42397 18.14063,10.97477 27.28801,15.636 74.74236,30.97291 159.21778,37.89744 238.09041,20.10538 32.90453,-7.54776 64.81977,-19.23769 94.85221,-34.65335 -2.05083,-8.20561 -9.05872,-15.83176 -12.88979,-23.87282 -5.48549,-8.71111 -9.97463,-18.40224 -16.05344,-26.51742 -44.39821,-0.4438 -88.79023,-1.33993 -133.18414,-2.07789 0.81725,-15.65581 -0.37331,-31.50162 2.27423,-46.99798 -7.6375,-2.82711 -17.7541,-0.3846 -26.3445,-1.1862 -4.773,0.78732 -11.22828,-1.52619 -15.19152,1.0444 z"
       id="path15693"
       transform="scale(0.26458333)" /><path
       style="fill:#ffff00;fill-rule:evenodd;stroke:#000000;stroke-width:2.64371"
       d="m 573.82264,528.72257 c -9.96838,2.4391 -15.22927,13.14456 -23.20779,18.9224 -33.80897,32.46852 -79.12665,51.36551 -125.33148,57.25605 -1.25374,12.44126 0.28062,26.18544 1.24346,39.06001 15.14468,2.46113 31.44632,1.28676 47.0056,2.28143 24.7058,0.31895 49.72242,1.96764 74.23748,1.42169 20.59738,-33.03929 42.34314,-65.44822 61.93318,-99.06799 -4.63256,-6.21443 -13.7756,-8.67015 -20.16703,-13.15221 -5.02149,-2.45534 -9.89465,-6.55369 -15.71342,-6.72138 z"
       id="path15695"
       transform="scale(0.26458333)" /><path
       style="fill:#ffff00;fill-rule:evenodd;stroke:#000000;stroke-width:2.64371"
       d="m 710.13724,403.2419 c -23.76141,35.70349 -44.0516,73.61363 -68.60042,108.76482 -15.20673,-6.66854 -28.5963,-17.48065 -43.89751,-23.60671 -6.80866,7.41184 -10.67942,17.39762 -16.68585,25.45827 -4.22757,6.54058 6.45392,9.66122 10.18221,12.63369 10.02951,5.6213 20.02141,11.30891 29.98218,17.05126 -21.22789,35.60382 -43.42313,70.70493 -63.5175,106.94325 4.05643,11.67648 12.57173,22.04001 18.50775,33.04086 4.36733,4.58417 5.41178,13.60023 11.40626,16.13864 15.73791,-5.66856 28.94701,-17.09932 42.61476,-26.56869 82.25754,-61.31401 136.96605,-160.36991 138.91033,-263.5885 1.5981,-9.36148 -12.15507,-3.20429 -17.78613,-4.94162 -13.69661,0.17841 -27.61813,-1.57514 -41.11608,-1.32527 z"
       id="path15697"
       transform="scale(0.26458333)" /><path
       style="fill:#ffff00;fill-rule:evenodd;stroke:#000000;stroke-width:2.64371"
       d="m 636.54933,302.69321 c -12.4356,5.06425 -24.65853,11.85166 -35.09237,20.29625 6.22819,20.23037 13.99615,40.98561 14.20354,62.62691 0.81987,25.42969 0.34182,51.49207 -8.65704,75.66197 -1.16822,7.06235 -6.5598,14.03136 -5.71011,21.10615 11.86211,5.58083 23.572,13.06571 36.27039,16.12138 10.24751,-9.87415 16.19054,-23.68077 24.35836,-35.29742 12.54942,-20.82267 26.47686,-41.25748 38.25653,-62.25169 -20.32705,-31.85024 -39.19679,-64.62528 -60.07888,-96.11204 -0.8803,-1.05189 -2.02728,-2.32451 -3.55042,-2.15151 z"
       id="path15699"
       transform="scale(0.26458333)" /></g><metadata
     id="metadata228"><rdf:RDF><cc:Work
         rdf:about=""><dc:creator><cc:Agent><dc:title>vlk2020</dc:title></cc:Agent></dc:creator></cc:Work></rdf:RDF></metadata></svg>
