<?xml version="1.0" encoding="UTF-8" standalone="no"?>
<!-- Created with Inkscape (http://www.inkscape.org/) -->

<svg
   width="182.04"
   height="182"
   viewBox="0 0 182.04 182"
   version="1.1"
   id="svg11533"
   xml:space="preserve"
   xmlns="http://www.w3.org/2000/svg"
   xmlns:svg="http://www.w3.org/2000/svg"
   xmlns:rdf="http://www.w3.org/1999/02/22-rdf-syntax-ns#"
   xmlns:cc="http://creativecommons.org/ns#"
   xmlns:dc="http://purl.org/dc/elements/1.1/"><defs
     id="defs11530" /><g
     id="layer1"
     transform="translate(-15.976,-25.22)"><path
       d="m 90.197,207.15 c -2.459,-0.25 -5.763,-1.27 -7.509,-2.34 -2.248,-1.37 -3.333,-2.22 -4.623,-3.62 -0.74,-0.8 -6.193,-7.45 -9.477,-11.55 -5.333,-6.67 -12.033,-15.35 -16.572,-21.47 -4.265,-5.75 -5.649,-7.64 -6.441,-8.76 -0.471,-0.67 -1.225,-1.71 -1.675,-2.31 -2.618,-3.51 -10.882,-15.43 -15.856,-22.87 -4.026,-6.02 -12.068,-18.47 -12.068,-18.67 0,-0.21 2.561,-1.11 3.971,-1.4 1.347,-0.28 3.704,-0.36 5.155,-0.18 2.495,0.3 5.317,1.39 7.232,2.79 0.526,0.38 1.448,1.21 2.049,1.83 l 1.093,1.13 1.478,-0.75 c 2.224,-1.13 3.721,-1.56 6.338,-1.84 2.966,-0.31 6.449,0.4 9.258,1.89 3.369,1.79 5.903,4.64 7.105,8.01 0.602,1.69 0.759,2.85 0.814,6.04 0.128,7.29 1.295,14.84 3.429,22.2 4.092,14.09 11.411,26.8 21.852,37.94 2.016,2.16 5.13,5.17 5.333,5.17 0.05,0 0.151,-0.29 0.226,-0.64 0.446,-2.11 2.206,-3.96 4.414,-4.66 1.027,-0.32 3.3,-0.3 4.287,0 1.79,0.62 3.57,2.07 4.25,3.47 1.27,2.64 0.79,5.29 -1.35,7.36 -0.68,0.67 -1.15,0.99 -1.96,1.37 -3.411,1.59 -6.974,2.2 -10.753,1.83 z m 29.663,0 c -0.17,0 -0.73,-0.11 -1.23,-0.18 -1.93,-0.28 -4.32,-1.03 -5.9,-1.85 -0.9,-0.47 -2.38,-1.87 -2.84,-2.69 -1.03,-1.84 -1.09,-3.86 -0.15,-5.87 0.16,-0.34 0.68,-1.02 1.16,-1.52 1.43,-1.48 3.34,-2.29 5.37,-2.29 1.31,0 2.73,0.42 3.78,1.11 1.27,0.84 2.4,2.47 2.63,3.81 0,0.32 0.17,0.62 0.25,0.64 0.28,0.1 5.97,-5.67 8.42,-8.54 11.49,-13.44 18.92,-29.6 21.33,-46.4 0.58,-3.98 1.03,-9.89 0.87,-11.29 -0.11,-0.97 0.24,-3.43 0.68,-4.75 1.71,-5.11 6.14,-8.82 11.96,-10 1.64,-0.34 4.36,-0.36 5.98,-0.1 2.02,0.38 4.34,1.23 5.87,2.15 0.22,0.14 0.45,0.23 0.51,0.21 0.1,0 0.34,-0.31 0.61,-0.64 2.13,-2.52 5.73,-4.46 9.34,-5 2.06,-0.31 4.78,-0.16 6.62,0.37 1.26,0.36 2.94,1.07 2.89,1.21 -0.1,0.18 -3.83,6.07 -7.06,11.05 -11.49,17.76 -26.07,38.17 -39.61,55.49 -7.1,9.07 -14.68,18.39 -15.95,19.6 -3.07,2.96 -6.75,4.73 -11.06,5.33 -1.17,0.16 -3.67,0.22 -4.47,0.11 z M 88.626,194.47 C 83.205,189.02 78.507,183.03 74.518,176.48 66.584,163.44 61.989,147.95 61.696,133.26 c -0.09,-4.35 -0.464,-6.23 -1.712,-8.54 l -0.408,-0.75 0.676,-0.89 c 0.864,-1.13 1.362,-1.64 2.515,-2.57 1.257,-1.01 1.535,-1.2 2.678,-1.76 2.981,-1.47 6.582,-2.04 9.672,-1.55 2.156,0.35 4.315,1.11 5.804,2.05 0.394,0.25 0.766,0.45 0.827,0.45 0.06,0 0.378,-0.37 0.704,-0.82 0.943,-1.31 3.046,-3.28 4.491,-4.22 3.03,-1.97 6.544,-3 10.266,-3.02 1.905,0 3.221,0.14 4.951,0.57 1.11,0.28 3.85,1.29 4.07,1.5 0.1,0.1 -0.37,0.52 -1.04,1.07 -5.393,4.52 -10.187,10.15 -13.747,16.17 -0.874,1.48 -2.957,5.65 -3.643,7.3 -2.359,5.66 -3.857,11.98 -4.322,18.23 -0.178,2.39 -0.07,7.76 0.199,10.04 1.13,9.57 4.055,17.61 9.505,26.13 0.163,0.26 0.157,0.3 -0.07,0.41 -0.549,0.29 -1.89,1.78 -2.259,2.5 l -0.385,0.76 z m 34.544,1.12 c -0.39,-0.8 -1.29,-1.84 -2.06,-2.36 -0.45,-0.31 -0.49,-0.37 -0.33,-0.54 0.45,-0.5 2.56,-4.14 3.65,-6.3 3.3,-6.55 5.13,-12.86 6,-20.59 0.24,-2.17 0.2,-9.25 -0.1,-11.41 -1.34,-10.99 -4.99,-20.17 -11.55,-29.04 -2.37,-3.21 -6.54,-7.66 -9.62,-10.27 -1.75,-1.48 -1.76,-1.32 0.18,-2.07 1.83,-0.7 3.84,-1.17 5.7,-1.34 3.95,-0.35 8.46,0.73 11.73,2.8 1.8,1.15 3.86,3.08 4.81,4.52 0.26,0.39 0.51,0.7 0.56,0.7 0,0 0.53,-0.24 1.06,-0.54 1.34,-0.76 2.89,-1.36 4.52,-1.73 1.84,-0.42 4.85,-0.47 6.61,-0.1 3.81,0.78 7.13,2.79 9.3,5.63 l 0.78,1.02 -0.36,0.66 c -0.5,0.9 -0.92,1.97 -1.3,3.28 -0.29,1 -0.32,1.39 -0.42,4.62 -0.15,5.35 -0.45,8.31 -1.31,13.32 -2.06,11.92 -6.84,23.75 -13.79,34.12 -3.73,5.56 -7.43,10.06 -12.07,14.68 l -1.68,1.67 z m -64.864,-73.4 c -1.426,-1.75 -3.478,-3.35 -5.707,-4.44 -0.688,-0.34 -1.25,-0.67 -1.25,-0.73 0,-0.26 0.905,-1.57 1.487,-2.15 1.163,-1.17 2.606,-1.93 4.349,-2.29 2.071,-0.42 4.557,0 6.311,1.09 1.145,0.71 2.87,2.65 2.87,3.24 0,0.1 -0.198,0.26 -0.465,0.35 -0.256,0.1 -0.951,0.43 -1.544,0.76 -1.901,1.04 -3.369,2.24 -4.595,3.73 -0.418,0.51 -0.794,0.97 -0.836,1.02 -0.04,0 -0.321,-0.22 -0.62,-0.58 z m 96.054,-0.31 c -1.44,-1.8 -3.13,-3.11 -5.42,-4.22 l -1.4,-0.67 0.34,-0.62 c 0.54,-1 2.15,-2.49 3.28,-3.03 1.46,-0.69 2.29,-0.87 4.01,-0.87 1.61,0 2.32,0.15 3.72,0.78 1.3,0.58 2.42,1.56 3.25,2.82 0.3,0.45 0.54,0.87 0.54,0.93 0,0.1 -0.63,0.43 -1.41,0.81 -2.12,1.04 -4.14,2.65 -5.74,4.6 l -0.38,0.45 z M 34.714,117.22 c -2.274,-2.16 -5.139,-3.59 -8.313,-4.17 -0.832,-0.15 -1.847,-0.21 -3.449,-0.22 -2.167,0 -2.273,0 -2.323,-0.25 -0.103,-0.48 -0.431,-3.8 -0.555,-5.63 -0.07,-1.03 -0.126,-3.65 -0.126,-5.84 0,-5.781 0.467,-10.971 1.462,-16.258 l 0.343,-1.824 0.804,-0.143 c 3.312,-0.59 7.84,-0.482 11.304,0.269 3.924,0.851 8.155,2.733 11.208,4.985 l 0.915,0.675 0.727,-0.316 c 1.553,-0.673 2.542,-0.85 4.7,-0.839 1.822,0 2.072,0.04 3.04,0.349 1.773,0.569 3.363,1.472 4.673,2.652 l 0.514,0.463 0.975,-0.686 c 4.142,-2.915 9.387,-3.398 13.883,-1.278 0.683,0.321 1.623,0.861 2.09,1.198 l 0.85,0.613 0.912,-0.408 c 4.223,-1.885 10.012,-3.442 15.324,-4.119 3.427,-0.437 8.598,-0.541 11.818,-0.238 l 0.84,0.08 v 2.646 c 0,7.378 -1.77,14.159 -5.35,20.449 -0.67,1.17 -0.8,1.33 -1.026,1.26 -0.725,-0.2 -3.429,-0.21 -5.014,0 -2.707,0.34 -4.472,0.87 -6.837,2.05 -2.485,1.24 -4.645,2.96 -6.216,4.97 l -0.421,0.54 -0.878,-0.45 c -1.592,-0.81 -3.954,-1.5 -6.03,-1.76 l -0.682,-0.1 3.785,-1.08 c 3.288,-0.94 3.837,-1.06 4.176,-0.95 0.511,0.16 0.981,0 1.287,-0.34 0.557,-0.7 0.04,-1.62 -0.902,-1.62 -0.399,0 -0.568,0.1 -0.883,0.41 -0.367,0.38 -0.75,0.51 -6.905,2.27 -3.584,1.02 -6.6,1.89 -6.702,1.92 -0.125,0 -0.146,0 -0.06,-0.1 0.07,-0.1 2.887,-1.4 6.265,-2.97 5.303,-2.45 6.208,-2.84 6.626,-2.8 0.634,0.1 1.033,-0.17 1.203,-0.67 0.184,-0.55 -0.15,-1.14 -0.733,-1.3 -0.52,-0.15 -1.221,0.15 -1.327,0.57 -0.06,0.24 -1.046,0.74 -6.267,3.16 -3.406,1.58 -6.258,2.89 -6.337,2.91 -0.65,0.14 0.529,-0.71 5.467,-3.95 5.176,-3.4 5.741,-3.74 6.207,-3.74 0.847,0 1.351,-0.73 1.044,-1.52 -0.1,-0.25 -0.689,-0.55 -1.079,-0.55 -0.393,0 -0.906,0.4 -1.005,0.79 -0.06,0.24 -1.332,1.13 -5.859,4.08 -3.179,2.08 -5.814,3.75 -5.856,3.71 -0.1,-0.1 0.03,-0.21 5.412,-5.04 2.847,-2.55 4.725,-4.15 4.877,-4.15 0.346,0 0.935,-0.32 1.028,-0.55 0.301,-0.77 -0.198,-1.52 -1.013,-1.52 -0.558,0 -1.001,0.38 -1.127,0.96 -0.06,0.28 -1.209,1.37 -5.105,4.87 -2.764,2.48 -5.065,4.51 -5.115,4.51 -0.05,0 1.786,-2.35 4.079,-5.23 2.96,-3.71 4.239,-5.23 4.411,-5.23 0.346,0 0.968,-0.65 0.968,-1.01 0,-0.17 -0.145,-0.48 -0.321,-0.68 -0.648,-0.76 -1.913,-0.34 -1.913,0.63 0,0.36 -0.563,1.12 -4.104,5.57 -2.257,2.84 -4.156,5.18 -4.22,5.2 -0.06,0 -0.116,0 -0.116,-0.1 0,-0.1 1.45,-2.7 3.223,-5.87 2.748,-4.9 3.277,-5.77 3.59,-5.9 0.68,-0.28 0.837,-1.018 0.336,-1.589 -0.245,-0.279 -0.392,-0.337 -0.831,-0.325 -0.727,0.02 -1.128,0.458 -1.079,1.18 0.03,0.454 -0.259,1.024 -3.178,6.224 -1.766,3.14 -3.232,5.74 -3.257,5.76 -0.02,0 -0.08,0 -0.125,0 -0.102,-0.1 4.315,-12.415 4.476,-12.48 0.535,-0.215 0.837,-0.963 0.616,-1.528 -0.1,-0.25 -0.689,-0.552 -1.08,-0.552 -0.691,0 -1.226,0.813 -0.956,1.453 0.12,0.283 -0.129,1.062 -2.045,6.397 -1.199,3.34 -2.216,6.16 -2.258,6.26 -0.293,0.69 -0.05,-1.03 0.908,-6.49 1.023,-5.814 1.114,-6.235 1.402,-6.478 0.71,-0.598 0.177,-1.75 -0.809,-1.75 -0.827,0 -1.358,0.99 -0.878,1.634 0.142,0.189 0.02,1.095 -0.864,6.194 -0.566,3.29 -1.062,6.15 -1.101,6.37 -0.04,0.23 -0.147,0.4 -0.253,0.4 -0.156,0 -0.181,-0.9 -0.181,-6.52 v -6.523 l 0.31,-0.361 c 0.411,-0.478 0.394,-0.888 -0.05,-1.325 -1.006,-0.986 -2.501,0.286 -1.623,1.38 0.241,0.301 0.248,0.493 0.248,6.829 0,3.89 -0.05,6.52 -0.114,6.52 -0.145,0 -0.07,0.4 -1.319,-6.75 -1.054,-6.004 -1.063,-6.076 -0.854,-6.53 0.18,-0.392 0.188,-0.513 0.05,-0.839 -0.194,-0.46 -0.825,-0.79 -1.29,-0.675 -0.832,0.204 -1.104,1.166 -0.503,1.78 0.29,0.297 0.399,0.803 1.442,6.734 0.991,5.63 1.147,6.73 0.922,6.51 -0.03,0 -1.031,-2.81 -2.227,-6.17 -1.85,-5.21 -2.156,-6.164 -2.042,-6.408 0.473,-1.016 -1.005,-1.907 -1.828,-1.1 -0.469,0.46 -0.418,1.051 0.13,1.494 0.407,0.329 0.567,0.724 2.595,6.424 1.188,3.34 2.106,6.09 2.04,6.12 -0.07,0 -0.137,0 -0.156,0 -0.02,0 -1.451,-2.59 -3.179,-5.7 -2.849,-5.12 -3.141,-5.7 -3.116,-6.169 0.04,-0.706 -0.374,-1.13 -1.095,-1.13 -1.203,0 -1.523,1.449 -0.425,1.929 0.332,0.14 0.804,0.93 3.56,5.9 1.747,3.15 3.12,5.75 3.051,5.77 -0.07,0 -0.141,0 -0.161,0 -0.02,0 -1.859,-2.35 -4.088,-5.17 -3.228,-4.09 -4.053,-5.21 -4.053,-5.5 0,-0.21 -0.134,-0.51 -0.321,-0.73 -0.633,-0.74 -1.913,-0.34 -1.913,0.6 0,0.55 0.178,0.79 0.729,1.01 0.42,0.17 1.053,0.9 4.509,5.22 2.211,2.76 4.069,5.1 4.128,5.19 0.09,0.15 0.07,0.15 -0.139,0 -0.136,-0.1 -2.463,-2.16 -5.171,-4.59 -4.247,-3.82 -4.925,-4.47 -4.925,-4.77 0,-0.76 -1.156,-1.12 -1.817,-0.56 -0.698,0.59 -0.245,1.78 0.676,1.78 0.267,0 1.352,0.91 5.361,4.51 2.765,2.48 5.027,4.56 5.027,4.62 0,0.1 -0.04,0.13 -0.1,0.15 -0.05,0 -2.663,-1.67 -5.801,-3.74 -3.959,-2.62 -5.705,-3.84 -5.706,-3.99 0,-0.4 -0.564,-0.82 -1.099,-0.82 -0.62,0 -1,0.3 -1.091,0.86 -0.104,0.64 0.35,1.13 1.057,1.15 0.462,0 1.103,0.4 6.211,3.77 3.132,2.08 5.673,3.79 5.647,3.82 -0.102,0.1 -12.834,-5.77 -12.836,-5.92 0,-0.1 -0.138,-0.3 -0.305,-0.46 -0.441,-0.43 -1.093,-0.41 -1.567,0.1 -0.476,0.46 -0.471,0.89 0.02,1.37 0.335,0.33 0.437,0.36 0.899,0.3 0.484,-0.1 0.98,0.14 6.821,2.81 3.944,1.8 6.299,2.94 6.299,3.04 0,0.1 -0.07,0.15 -0.156,0.12 -0.09,0 -3.126,-0.92 -6.758,-1.99 -5.462,-1.6 -6.628,-1.98 -6.747,-2.2 -0.168,-0.3 -0.62,-0.53 -1.063,-0.53 -0.403,0 -1.039,0.62 -1.039,1.01 0,0.69 0.98,1.27 1.601,0.95 0.217,-0.12 0.864,0 3.798,0.92 1.946,0.58 3.537,1.1 3.537,1.16 0,0 -0.221,0.1 -0.492,0.1 -1.356,0 -4.575,0.9 -6.327,1.76 l -0.819,0.4 -1.053,-0.99 z m 142.366,0.45 c -1.65,-0.82 -4.6,-1.62 -5.97,-1.62 -0.27,0 -0.49,0 -0.49,-0.1 0,-0.1 1.59,-0.58 3.54,-1.16 2.93,-0.88 3.58,-1.04 3.8,-0.92 0.62,0.32 1.6,-0.26 1.6,-0.95 0,-0.4 -0.64,-1.01 -1.05,-1.01 -0.43,0 -1.02,0.31 -1.11,0.58 -0.1,0.17 -1.59,0.66 -6.68,2.15 -3.64,1.07 -6.68,1.96 -6.77,1.99 -0.1,0 -0.15,0 -0.15,-0.12 0,-0.1 2.35,-1.24 6.3,-3.03 5.66,-2.58 6.35,-2.87 6.8,-2.82 0.71,0.1 1.22,-0.34 1.22,-1 0,-1.1 -1.56,-1.43 -2.09,-0.44 -0.15,0.29 -1.14,0.78 -6.52,3.23 -3.49,1.59 -6.37,2.88 -6.39,2.85 0,0 2.52,-1.73 5.65,-3.81 5,-3.3 5.76,-3.76 6.19,-3.77 0.86,0 1.34,-0.77 0.95,-1.5 -0.22,-0.42 -0.41,-0.51 -1.07,-0.51 -0.37,0 -0.53,0.1 -0.73,0.32 -0.14,0.18 -0.26,0.41 -0.26,0.52 0,0.19 -11.31,7.77 -11.51,7.71 -0.1,0 -0.1,-0.1 -0.1,-0.15 0,-0.22 10.05,-9.13 10.3,-9.13 0.13,0 0.43,-0.11 0.65,-0.24 0.36,-0.21 0.4,-0.3 0.4,-0.78 0,-0.44 -0.1,-0.59 -0.33,-0.79 -0.66,-0.52 -1.78,-0.14 -1.78,0.59 0,0.3 -0.68,0.95 -4.92,4.77 -2.71,2.43 -5.04,4.5 -5.17,4.59 -0.22,0.15 -0.24,0.15 -0.14,0 0.1,-0.1 1.91,-2.44 4.12,-5.22 2.89,-3.63 4.11,-5.07 4.34,-5.13 1.29,-0.35 1.14,-2.05 -0.18,-2.04 -0.7,0 -1.15,0.45 -1.15,1.15 0,0.23 -1.09,1.69 -4.11,5.48 -2.26,2.84 -4.16,5.16 -4.23,5.16 -0.1,0 0,-0.28 0.23,-0.64 5.67,-10.23 6.07,-10.92 6.33,-10.99 0.37,-0.1 0.64,-0.41 0.73,-0.85 0.1,-0.286 0,-0.451 -0.25,-0.753 -0.41,-0.478 -1.09,-0.532 -1.61,-0.13 -0.28,0.217 -0.33,0.336 -0.29,0.76 0,0.453 -0.26,1.023 -3.13,6.213 -1.75,3.14 -3.24,5.73 -3.33,5.76 -0.1,0 0.22,-0.98 0.67,-2.25 0.44,-1.26 1.43,-4.05 2.2,-6.21 0.76,-2.16 1.45,-3.92 1.52,-3.921 0.28,0 0.68,-0.568 0.68,-0.957 0,-0.912 -1.26,-1.351 -1.95,-0.679 -0.26,0.261 -0.3,0.383 -0.24,0.76 0,0.247 0.1,0.531 0.1,0.632 0,0.264 -4.26,12.285 -4.39,12.285 0,0 -0.1,-0.1 -0.1,-0.15 0,-0.1 0.5,-3.01 1.1,-6.51 1.06,-6.14 1.11,-6.362 1.43,-6.607 0.43,-0.336 0.45,-1.046 0,-1.428 -0.94,-0.859 -2.35,0.09 -1.78,1.196 0.17,0.347 0.12,0.755 -0.92,6.779 -0.61,3.53 -1.11,6.43 -1.11,6.45 0,0 -0.1,0 -0.13,0 -0.1,0 -0.12,-2.26 -0.12,-6.52 0,-6.337 0,-6.529 0.25,-6.83 0.43,-0.541 0.31,-1.269 -0.26,-1.558 -0.54,-0.274 -0.96,-0.22 -1.37,0.178 -0.42,0.416 -0.46,0.825 -0.11,1.258 0.24,0.301 0.25,0.494 0.25,6.892 0,4.09 -0.1,6.58 -0.12,6.58 -0.1,0 -0.15,-0.18 -0.19,-0.4 0,-0.22 -0.54,-3.08 -1.1,-6.37 -0.88,-5.1 -1.01,-6.006 -0.87,-6.195 0.27,-0.362 0.21,-0.999 -0.14,-1.336 -0.44,-0.431 -1.09,-0.408 -1.56,0.06 -0.47,0.457 -0.47,0.896 0,1.344 0.34,0.332 0.39,0.532 1.43,6.647 0.6,3.47 1.09,6.36 1.08,6.42 0,0.41 -0.47,-0.78 -2.42,-6.24 -2.02,-5.678 -2.17,-6.162 -2.04,-6.54 0.3,-0.889 -0.67,-1.639 -1.56,-1.219 -0.71,0.329 -0.78,1.301 -0.12,1.718 0.34,0.219 0.55,0.749 2.57,6.431 1.89,5.3 2.3,6.57 2.03,6.27 0,0 -1.48,-2.61 -3.25,-5.75 -2.82,-5.03 -3.21,-5.78 -3.22,-6.269 0,-0.691 -0.1,-0.835 -0.64,-1.057 -1.07,-0.437 -1.99,0.692 -1.28,1.576 0.14,0.17 0.36,0.33 0.5,0.35 0.18,0 1.07,1.51 3.47,5.79 1.78,3.17 3.23,5.81 3.23,5.87 0,0.1 -0.1,0.11 -0.12,0.11 -0.1,0 -1.94,-2.31 -4.18,-5.14 -3.55,-4.48 -4.07,-5.2 -4.15,-5.67 -0.1,-0.66 -0.46,-0.99 -1.09,-0.98 -0.65,0 -1.14,0.46 -1.14,1.06 0,0.35 0.47,0.86 0.87,0.97 0.28,0.1 1.26,1.22 4.52,5.29 2.29,2.86 4.12,5.2 4.07,5.2 -0.1,0 -2.35,-2.03 -5.11,-4.51 -3.9,-3.5 -5.05,-4.59 -5.11,-4.87 -0.12,-0.58 -0.57,-0.96 -1.12,-0.96 -0.82,0 -1.32,0.75 -1.02,1.52 0.1,0.23 0.68,0.55 1.03,0.55 0.15,0 2.19,1.75 5.28,4.52 4.41,3.96 5.37,4.88 4.93,4.71 -0.1,0 -2.68,-1.71 -5.83,-3.76 -4.76,-3.08 -5.73,-3.76 -5.8,-4.04 -0.18,-0.78 -1.28,-1.09 -1.86,-0.52 -0.22,0.21 -0.31,0.43 -0.31,0.78 0,0.6 0.43,0.99 1.1,0.99 0.38,0 1.32,0.56 6.19,3.74 4.97,3.24 6.17,4.09 5.51,3.95 -0.48,-0.11 -12.55,-5.82 -12.55,-5.94 0,-0.1 -0.18,-0.3 -0.39,-0.48 -0.32,-0.26 -0.49,-0.31 -0.83,-0.26 -1.01,0.17 -1.32,1.26 -0.53,1.88 0.11,0.1 0.48,0.14 0.82,0.13 0.57,0 1.09,0.2 6.02,2.51 2.97,1.39 5.76,2.68 6.19,2.88 0.44,0.19 0.77,0.37 0.75,0.4 -0.1,0.1 -13.58,-3.82 -13.62,-3.95 -0.22,-0.63 -1.31,-0.81 -1.83,-0.31 -0.79,0.78 0.15,2.07 1.2,1.65 0.29,-0.12 0.82,0 4.07,0.92 2.06,0.59 3.72,1.08 3.7,1.1 0,0 -0.59,0.12 -1.27,0.23 -1.75,0.27 -3.26,0.72 -4.76,1.41 -0.71,0.33 -1.31,0.6 -1.33,0.6 0,0 -0.39,-0.42 -0.82,-0.93 -0.86,-1.03 -2.59,-2.58 -3.68,-3.3 -3.51,-2.34 -7.91,-3.56 -12.21,-3.39 -1,0 -1.89,0.1 -1.97,0.11 -0.3,0.1 -2.26,-3.67 -3.28,-6.23 -2.03,-5.134 -2.91,-9.774 -2.91,-15.343 v -2.75 l 0.83,-0.08 c 3.41,-0.32 8.43,-0.197 12.2,0.299 4.84,0.636 10.04,2.016 14.29,3.8 l 1.58,0.659 0.43,-0.348 c 0.67,-0.544 2.26,-1.426 3.28,-1.825 4.39,-1.708 9.37,-1.052 13.22,1.74 l 0.84,0.609 0.69,-0.623 c 0.97,-0.867 1.62,-1.287 2.94,-1.891 1.78,-0.813 2.57,-0.976 4.74,-0.976 2.04,0 3.3,0.238 4.55,0.862 l 0.62,0.308 1.02,-0.722 c 4.08,-2.903 8.66,-4.7 13.73,-5.387 1.79,-0.242 6.2,-0.213 7.95,0.05 0.78,0.12 1.48,0.283 1.56,0.363 0.35,0.373 1.39,7.519 1.74,11.94 0.35,4.569 0.13,12.755 -0.45,16.685 -0.1,0.46 -0.12,0.9 -0.12,0.98 0,0.11 -0.39,0.13 -1.59,0.1 -4.88,-0.23 -9.45,1.43 -12.62,4.57 -0.48,0.47 -0.9,0.85 -0.93,0.84 0,0 -0.54,-0.26 -1.12,-0.55 z M 59.268,89.191 C 56.116,86.516 51.379,85.679 47.147,87.05 l -0.957,0.31 -1.563,-1.024 c -4.492,-2.939 -9.437,-4.59 -15.04,-5.02 l -0.972,-0.08 0.07,-0.567 c 0.04,-0.311 0.102,-0.949 0.143,-1.417 0.04,-0.469 0.214,-1.728 0.386,-2.798 1.132,-7.059 3.825,-14.029 7.761,-20.085 l 0.8,-1.232 0.984,0.39 c 2.619,1.038 5.745,2.865 8.26,4.828 3.683,2.875 7.405,7.51 9.217,11.477 0.329,0.722 0.345,0.735 1.403,1.211 1.89,0.849 3.541,2.011 5.259,3.702 1.672,1.645 2.589,2.874 3.533,4.735 0.621,1.225 1.485,3.657 1.616,4.547 0.1,0.657 0.133,0.636 -1.329,0.76 -1.765,0.151 -4.308,1.034 -5.935,2.062 -0.445,0.281 -0.875,0.55 -0.956,0.598 -0.08,0.05 -0.325,-0.06 -0.559,-0.261 z M 76.44,88.804 c -1.742,-1.082 -3.977,-1.852 -5.88,-2.025 -0.464,-0.04 -0.918,-0.138 -1.01,-0.212 -0.09,-0.07 -0.262,-0.591 -0.38,-1.148 -0.336,-1.594 -0.762,-2.745 -1.695,-4.581 -0.919,-1.811 -1.923,-3.229 -3.333,-4.709 l -0.868,-0.91 0.556,-0.957 c 1.128,-1.94 3.092,-4.054 4.957,-5.338 1.905,-1.312 4.52,-2.382 6.888,-2.819 0.673,-0.124 1.823,-0.201 3.177,-0.211 l 2.123,-0.02 1.353,-1.344 c 4.577,-4.548 10.098,-7.304 16.718,-8.348 1.924,-0.303 7.024,-0.401 7.294,-0.14 0.11,0.109 0.11,0.959 0,3.578 -0.35,8.401 -1.53,15.676 -3.82,23.617 l -0.44,1.551 h -0.76 c -1.679,0 -5.94,0.252 -7.4,0.43 -5.258,0.638 -10.264,1.9 -14.873,3.751 -0.769,0.308 -1.409,0.558 -1.423,0.556 -0.01,0 -0.547,-0.329 -1.184,-0.725 z m 58.5,0.17 c -1.96,-0.788 -5.05,-1.788 -7.27,-2.349 -4.1,-1.039 -7.52,-1.515 -12.4,-1.726 -1.81,-0.08 -3.31,-0.159 -3.34,-0.179 -0.1,-0.07 -0.89,-2.896 -1.44,-5.038 -1.75,-6.841 -2.91,-15.645 -2.92,-22.094 v -1.599 l 1.59,-0.09 c 2.6,-0.148 6.19,0.217 8.93,0.907 1.79,0.451 3.89,1.243 5.8,2.193 3.12,1.546 5.37,3.15 7.79,5.564 l 1.32,1.325 h 2.15 c 1.71,0 2.4,0.06 3.41,0.269 3.04,0.633 5.58,1.849 7.94,3.806 1.47,1.216 2.98,3.051 3.82,4.622 l 0.37,0.685 -1.01,1.061 c -2.49,2.602 -4.26,6.005 -4.99,9.579 -0.16,0.775 -0.13,0.752 -1.43,0.882 -1.84,0.184 -4.25,1.055 -6.02,2.176 -0.48,0.308 -0.89,0.558 -0.91,0.555 0,0 -0.64,-0.253 -1.39,-0.555 z m 18.74,0.182 c -0.81,-0.606 -3.14,-1.66 -4.4,-1.993 -0.65,-0.171 -1.61,-0.344 -2.14,-0.385 -1.3,-0.104 -1.3,-0.105 -1.11,-1.037 0.41,-1.968 1.53,-4.532 2.78,-6.371 1.29,-1.899 3.31,-3.847 5.26,-5.083 0.88,-0.557 3.01,-1.656 3.22,-1.663 0.1,0 0.31,-0.425 0.55,-0.939 2.05,-4.405 5.83,-8.912 10.12,-12.078 2.13,-1.567 5.14,-3.246 7.46,-4.165 l 0.76,-0.302 1.06,1.659 c 4.29,6.77 6.99,14.396 7.85,22.214 0.27,2.444 0.35,2.216 -0.78,2.308 -5.97,0.487 -11.31,2.359 -15.82,5.548 l -0.7,0.497 -0.94,-0.311 c -4.08,-1.342 -8.44,-0.65 -11.8,1.878 -0.44,0.331 -0.82,0.6 -0.84,0.598 0,0 -0.26,-0.171 -0.53,-0.375 z m -2.67,-15.798 c -2.6,-4.308 -7.05,-7.377 -12.1,-8.35 l -1.07,-0.206 0.1,-0.436 c 0.14,-0.752 0.86,-2.373 1.49,-3.369 0.71,-1.13 2.79,-3.212 3.76,-3.756 0.4,-0.229 0.62,-0.426 0.58,-0.53 0,-0.09 -0.18,-0.803 -0.33,-1.581 -0.22,-1.139 -0.27,-1.843 -0.27,-3.605 0,-2.253 0.18,-3.646 0.67,-5.595 0.9,-3.545 3.26,-7.639 5.8,-10.07 l 0.6,-0.582 1.05,0.437 c 8.77,3.668 15.91,10.497 19.72,18.86 l 0.6,1.318 -1.25,0.71 c -5.5,3.131 -10.35,8.19 -13.22,13.789 l -0.62,1.202 -1.06,0.51 c -1.06,0.513 -2.31,1.27 -3.26,1.968 l -0.51,0.374 z m -89.918,0.234 c -0.547,-0.394 -1.588,-1.005 -2.315,-1.357 l -1.322,-0.641 -0.478,-0.965 c -1.435,-2.898 -3.672,-5.991 -6.239,-8.626 -1.64,-1.685 -4.912,-4.162 -7.251,-5.491 -0.589,-0.335 -1.07,-0.663 -1.07,-0.73 0,-0.264 1.863,-3.853 2.714,-5.228 2.529,-4.086 6.274,-8.038 10.271,-10.841 2.197,-1.54 4.824,-2.988 7.303,-4.022 l 0.993,-0.415 1.055,1.076 c 1.371,1.398 2.529,3.006 3.526,4.898 1.275,2.417 1.97,4.51 2.376,7.151 0.285,1.853 0.195,5.384 -0.181,7.077 -0.141,0.635 -0.257,1.21 -0.258,1.277 -10e-4,0.07 0.261,0.284 0.582,0.483 1.629,1.009 3.341,2.849 4.245,4.563 0.453,0.86 1.213,2.888 1.113,2.969 -0.03,0.02 -0.548,0.132 -1.162,0.249 -3.075,0.587 -6.125,2.08 -8.657,4.238 -1.25,1.065 -2.978,3.206 -3.679,4.557 -0.148,0.284 -0.337,0.511 -0.421,0.505 -0.08,0 -0.599,-0.333 -1.145,-0.727 z M 77.353,64.57 c -0.03,-0.08 -0.114,-0.399 -0.19,-0.7 -0.291,-1.149 -0.979,-2.689 -1.605,-3.588 -0.308,-0.443 -0.321,-0.967 -0.07,-2.646 0.772,-5.081 2.865,-9.85 6.124,-13.956 0.824,-1.039 3.569,-3.893 3.743,-3.893 0.05,0 0.13,0.188 0.173,0.418 0.04,0.229 0.271,0.79 0.504,1.246 1.265,2.475 4.235,4.259 7.818,4.695 l 1.236,0.151 0.218,0.911 c 0.542,2.275 0.963,5.434 0.968,7.258 v 0.994 l -0.714,0.191 c -5.464,1.461 -10.107,4.074 -13.882,7.814 l -1.268,1.257 H 78.91 c -1.093,0 -1.519,-0.04 -1.557,-0.152 z M 132.33,63.493 C 128.52,59.71 124,57.156 118.46,55.663 l -0.71,-0.192 V 54.41 c 0,-1.814 0.53,-5.613 1.03,-7.507 l 0.17,-0.608 1.1,-0.138 c 2.11,-0.26 3.7,-0.827 5.29,-1.877 1.52,-1.01 2.49,-2.251 3.07,-3.916 l 0.22,-0.637 1.3,1.277 c 4.87,4.785 7.9,10.918 8.68,17.525 l 0.16,1.288 -0.39,0.554 c -0.59,0.84 -1.32,2.545 -1.65,3.834 l -0.12,0.517 h -1.52 -1.52 z M 73.687,57.964 c -0.238,-0.242 -0.813,-0.72 -1.279,-1.061 -0.815,-0.597 -0.844,-0.637 -0.769,-1.032 0.597,-3.118 0.558,-6.372 -0.112,-9.477 -0.522,-2.413 -1.895,-5.589 -3.361,-7.767 -0.444,-0.659 -0.807,-1.237 -0.807,-1.283 0,-0.157 2.295,-2.225 3.6,-3.243 6.069,-4.736 12.928,-7.566 21.037,-8.68 1.644,-0.226 4.28,-0.198 5.33,0.06 3.524,0.853 6.284,3.399 7.394,6.83 0.39,1.206 0.48,3.424 0.19,4.812 -0.38,1.84 -1.54,3.875 -2.96,5.186 -2.878,2.667 -7.096,3.439 -10.726,1.963 -2.999,-1.22 -4.741,-3.478 -4.749,-6.153 -10e-4,-0.351 -0.05,-0.639 -0.102,-0.639 -0.217,0 -1.902,1.45 -3.378,2.906 -4.553,4.492 -7.459,10.071 -8.61,16.529 l -0.266,1.494 z m 66.093,-0.02 c -0.68,-4.047 -1.6,-6.946 -3.16,-9.944 -1.52,-2.904 -3.33,-5.361 -5.65,-7.666 -1.31,-1.296 -3.15,-2.86 -3.38,-2.86 -0.1,0 -0.1,0.224 -0.1,0.497 0,0.274 0,0.835 -0.1,1.247 -0.39,1.987 -1.85,3.73 -3.97,4.728 -1.79,0.844 -2.5,1.005 -4.47,1.005 -1.37,10e-4 -1.85,-0.05 -2.64,-0.273 -3.68,-1.038 -6.4,-3.871 -7.23,-7.509 -0.29,-1.296 -0.2,-3.654 0.19,-4.864 1.32,-4.054 4.68,-6.691 9.01,-7.056 2.51,-0.213 8.26,0.772 12.09,2.071 5.63,1.907 11.01,5.078 15.19,8.953 l 1.1,1.019 -0.8,1.166 c -1.99,2.909 -3.25,6.18 -3.75,9.702 -0.25,1.749 -0.26,5.041 0,6.636 0.24,1.575 0.24,1.567 -0.17,1.804 -0.19,0.112 -0.75,0.564 -1.23,1.004 l -0.88,0.802 -0.1,-0.462 z"
       id="path23239"
       style="fill:#ffff00;fill-rule:evenodd;stroke:#808080;stroke-width:0.94488" /></g><metadata
     id="metadata527"><rdf:RDF><cc:Work
         rdf:about=""><dc:creator><cc:Agent><dc:title>vlk2020</dc:title></cc:Agent></dc:creator></cc:Work></rdf:RDF></metadata></svg>
