<?xml version="1.0" encoding="UTF-8" standalone="no"?>
<!-- Generator: Adobe Illustrator 12.0.0, SVG Export Plug-In  -->

<svg
   version="1.1"
   width="576"
   height="572"
   viewBox="-0.845 -0.177 576 572"
   enable-background="new -0.845 -0.177 576 572"
   xml:space="preserve"
   id="svg422"
   xmlns="http://www.w3.org/2000/svg"
   xmlns:svg="http://www.w3.org/2000/svg"
   xmlns:rdf="http://www.w3.org/1999/02/22-rdf-syntax-ns#"
   xmlns:cc="http://creativecommons.org/ns#"
   xmlns:dc="http://purl.org/dc/elements/1.1/">
<defs
   id="defs408" />
<path
   d="M265.048,260.19c0,0-100.257-143.224-106.225-152.772s-16.709-37.596,16.709-57.886S267.435,24.467,287.725,0  c0,0,19.323,20.952,96.677,44.161c59.677,17.903,23.87,76.386,23.87,76.386l-97.869,140.837c0,0-7.759-5.968-18.354-6.564v-47.145  h-10.327v47.145C281.722,254.819,273.999,255.416,265.048,260.19z"
   id="path410"
   style="fill:#ffff00;stroke:#808080;stroke-width:3" />
<path
   d="M320.226,267.463c0,0,104.979-139.802,112.206-148.441c7.217-8.639,30.542-27.568,60.208-2.107  c29.675,25.46,52.38,79.566,81.948,91.245c0,0-13.912,24.878-11.936,105.614c1.529,62.287-65.188,46.427-65.188,46.427  l-164.278-49.261c0,0,3.264-9.227,0.541-19.479l44.809-14.653l-3.213-9.814l-44.809,14.648  C330.515,281.641,327.55,274.489,320.226,267.463z"
   id="path412"
   style="fill:#ffff00;stroke:#808080;stroke-width:3" />
<path
   d="M254.363,267.151c0,0-104.98-139.802-112.207-148.441c-7.217-8.639-30.542-27.568-60.208-2.107  C52.273,142.063,29.568,196.168,0,207.847c0,0,13.912,24.878,11.936,105.614c-1.529,62.288,65.187,46.427,65.187,46.427  l164.279-49.261c0,0-3.263-9.227-0.541-19.479l-44.809-14.653l3.212-9.814l44.809,14.649  C244.073,281.329,247.038,274.177,254.363,267.151z"
   id="path414"
   style="fill:#ffff00;stroke:#808080;stroke-width:3" />
<path
   d="M293.029,348.68c0,0,4.163,174.773,5.026,186.01c0.855,11.227,8.83,40.184,47.769,36.705  c38.948-3.469,88.872-34.295,119.718-26.616c0,0,3.142-28.328,51.676-92.881c37.452-49.798-26.062-75.669-26.062-75.669  L328.85,320.832c0,0-2.716,9.404-10.889,16.169l27.942,37.965l-8.314,6.116l-27.948-37.96  C309.641,343.122,303.074,347.211,293.029,348.68z"
   id="path416"
   style="fill:#ffff00;stroke:#808080;stroke-width:3" />
<path
   d="M281.152,348.68c0,0-4.163,174.773-5.026,186.01c-0.855,11.227-8.83,40.184-47.769,36.705  c-38.948-3.469-88.872-34.295-119.718-26.616c0,0-3.142-28.328-51.676-92.881c-37.452-49.798,26.062-75.669,26.062-75.669  l162.307-55.396c0,0,2.716,9.404,10.889,16.169l-27.942,37.965l8.314,6.116l27.948-37.96  C264.541,343.122,271.107,347.211,281.152,348.68z"
   id="path418"
   style="fill:#ffff00;stroke:#808080;stroke-width:3" />
<circle
   cx="286.245"
   cy="302.207"
   r="37"
   id="circle420"
   style="fill:#ffff00;stroke:#808080;stroke-width:3" />
<metadata
   id="metadata426"><rdf:RDF><cc:Work
       rdf:about=""><dc:creator><cc:Agent><dc:title>vlk2020</dc:title></cc:Agent></dc:creator></cc:Work></rdf:RDF></metadata></svg>
