<?xml version="1.0" encoding="utf-8"?>
<svg xmlns:xl="http://www.w3.org/1999/xlink" xmlns="http://www.w3.org/2000/svg"
     xmlns:dc="http://purl.org/dc/elements/1.1/"
     xmlns:xlink="http://www.w3.org/1999/xlink"
     version="1.1"
     viewBox="81 63 202.5 306"
     width="202.5"
     height="306"
     preserveAspectRatio="xMidYMid meet"
     zoomAndPan="magnify"
     contentScriptType="application/ecmascript"
     contentStyleType="text/css">
   <defs/>
   <metadata  xmlns:svg="http://www.w3.org/2000/svg"
             xmlns:rdf="http://www.w3.org/1999/02/22-rdf-syntax-ns#"
             xmlns:cc="http://creativecommons.org/ns#">
      <rdf:RDF>
         <cc:Work rdf:about="">
            <dc:creator>
               <cc:Agent>
                  <dc:title>http://heraldicart.org Bridle.svg</dc:title>
               </cc:Agent>
            </dc:creator>
         </cc:Work>
      </rdf:RDF>
   </metadata>
   <g stroke-opacity="1" fill="#ffff00" fill-opacity="1" stroke="#505050"
      stroke-dasharray="none">
      <title>Bridle</title>
      <g>
         <title>Layer 2</title>
         <g>
            <g>
               <path d="M 212.6929 148.95933 C 212.6929 150.07767 211.7863 150.98427 210.66796 150.98427 C 209.54962 150.98427 208.64302 150.07767 208.64302 148.95933 C 208.64302 147.84098 209.54962 146.93439 210.66796 146.93439 C 211.7863 146.93439 212.6929 147.84098 212.6929 148.95933 Z M 182.28328 112.27949 L 178.61825 112.27949 C 177.34002 112.5927 176.48849 113.8005 176.62292 115.10967 L 176.7058 118.77469 C 176.84349 119.57838 176.631 120.40258 176.1219 121.03952 C 175.6128 121.67645 174.85568 122.06534 174.04141 122.10814 L 158.30372 122.10814 C 156.85619 122.19086 155.53466 122.95824 154.74531 124.17443 C 153.95596 125.39061 153.79323 126.9101 154.30713 128.26586 C 157.4051 133.44739 156.65602 140.06068 152.47758 144.41801 C 150.6287 145.16674 149.4325 146.9775 149.46926 148.9719 C 149.50602 150.9663 150.76814 152.73174 152.64336 153.41183 C 154.56347 153.9361 156.6002 153.13942 157.65498 151.45149 C 158.70976 149.76356 158.53307 147.58371 157.2202 146.0877 C 160.86022 140.65063 161.11917 133.62455 157.88926 127.93429 L 174.02365 127.93429 C 176.101 128.05586 178.05752 126.95141 179.0268 125.11003 C 180.09209 123.42313 180.565 121.42939 180.37083 119.44375 L 180.45372 115.61294 L 182.28328 115.61294 L 184.11875 115.61294 L 184.20164 119.44375 C 184.00747 121.42939 184.48038 123.42313 185.54568 125.11003 C 186.51405 126.94938 188.46764 128.05348 190.5429 127.93429 L 206.68321 127.93429 C 203.45153 133.62345 203.7082 140.6495 207.34635 146.0877 C 206.03348 147.58371 205.85679 149.76356 206.91157 151.45149 C 207.96636 153.13942 210.00308 153.9361 211.9232 153.41183 C 213.79893 152.73302 215.06228 150.96837 215.10036 148.97394 C 215.13844 146.97951 213.94336 145.16792 212.0949 144.41801 C 207.91452 140.0621 207.163 133.44868 210.25942 128.26586 C 210.77332 126.9101 210.6106 125.39061 209.82124 124.17443 C 209.0319 122.95824 207.71036 122.19086 206.26283 122.10814 L 190.52514 122.10814 C 189.71087 122.06534 188.95375 121.67645 188.44465 121.03952 C 187.93556 120.40258 187.72306 119.57838 187.86074 118.77469 L 187.94363 115.10967 C 188.07806 113.8005 187.22653 112.5927 185.9483 112.27949 Z M 151.87957 148.95933 C 151.85307 148.21967 152.23256 147.52458 152.86907 147.14689 C 153.50558 146.7692 154.29752 146.7692 154.93402 147.14689 C 155.57053 147.52458 155.95002 148.21967 155.92353 148.95933 C 155.95002 149.69898 155.57053 150.39408 154.93402 150.77176 C 154.29752 151.14945 153.50558 151.14945 152.86907 150.77176 C 152.23256 150.39408 151.85307 149.69898 151.87957 148.95933 Z"/>
               <path d="M 212.6929 148.95933 C 212.6929 150.07767 211.7863 150.98427 210.66796 150.98427 C 209.54962 150.98427 208.64302 150.07767 208.64302 148.95933 C 208.64302 147.84098 209.54962 146.93439 210.66796 146.93439 C 211.7863 146.93439 212.6929 147.84098 212.6929 148.95933 Z M 182.28328 112.27949 L 178.61825 112.27949 C 177.34002 112.5927 176.48849 113.8005 176.62292 115.10967 L 176.7058 118.77469 C 176.84349 119.57838 176.631 120.40258 176.1219 121.03952 C 175.6128 121.67645 174.85568 122.06534 174.04141 122.10814 L 158.30372 122.10814 C 156.85619 122.19086 155.53466 122.95824 154.74531 124.17443 C 153.95596 125.39061 153.79323 126.9101 154.30713 128.26586 C 157.4051 133.44739 156.65602 140.06068 152.47758 144.41801 C 150.6287 145.16674 149.4325 146.9775 149.46926 148.9719 C 149.50602 150.9663 150.76814 152.73174 152.64336 153.41183 C 154.56347 153.9361 156.6002 153.13942 157.65498 151.45149 C 158.70976 149.76356 158.53307 147.58371 157.2202 146.0877 C 160.86022 140.65063 161.11917 133.62455 157.88926 127.93429 L 174.02365 127.93429 C 176.101 128.05586 178.05752 126.95141 179.0268 125.11003 C 180.09209 123.42313 180.565 121.42939 180.37083 119.44375 L 180.45372 115.61294 L 182.28328 115.61294 L 184.11875 115.61294 L 184.20164 119.44375 C 184.00747 121.42939 184.48038 123.42313 185.54568 125.11003 C 186.51405 126.94938 188.46764 128.05348 190.5429 127.93429 L 206.68321 127.93429 C 203.45153 133.62345 203.7082 140.6495 207.34635 146.0877 C 206.03348 147.58371 205.85679 149.76356 206.91157 151.45149 C 207.96636 153.13942 210.00308 153.9361 211.9232 153.41183 C 213.79893 152.73302 215.06228 150.96837 215.10036 148.97394 C 215.13844 146.97951 213.94336 145.16792 212.0949 144.41801 C 207.91452 140.0621 207.163 133.44868 210.25942 128.26586 C 210.77332 126.9101 210.6106 125.39061 209.82124 124.17443 C 209.0319 122.95824 207.71036 122.19086 206.26283 122.10814 L 190.52514 122.10814 C 189.71087 122.06534 188.95375 121.67645 188.44465 121.03952 C 187.93556 120.40258 187.72306 119.57838 187.86074 118.77469 L 187.94363 115.10967 C 188.07806 113.8005 187.22653 112.5927 185.9483 112.27949 Z M 151.87957 148.95933 C 151.85307 148.21967 152.23256 147.52458 152.86907 147.14689 C 153.50558 146.7692 154.29752 146.7692 154.93402 147.14689 C 155.57053 147.52458 155.95002 148.21967 155.92353 148.95933 C 155.95002 149.69898 155.57053 150.39408 154.93402 150.77176 C 154.29752 151.14945 153.50558 151.14945 152.86907 150.77176 C 152.23256 150.39408 151.85307 149.69898 151.87957 148.95933 Z"
                     stroke="black"
                     stroke-linecap="round"
                     stroke-linejoin="round"
                     stroke-width="1.5"/>
            </g>
            <g>
               <path d="M 154.43644 128.45419 C 152.9568 129.19019 151.2017 129.10831 149.797 128.23776 C 148.3923 127.36721 147.53795 125.8319 147.53862 124.17932 C 147.52458 122.46506 148.43108 120.87498 149.91338 120.01377 C 151.39568 119.15256 153.226 119.15256 154.7083 120.01377 C 156.1906 120.87498 157.0971 122.46506 157.08307 124.17932 C 157.08331 124.20695 157.08331 124.23458 157.08307 124.26221 C 157.30777 124.95263 157.97474 125.40048 158.69884 125.34716 C 159.42294 125.29383 160.01711 124.7531 160.13824 124.03721 C 160.099 119.71426 156.56275 116.24162 152.2398 116.28086 C 147.91684 116.3201 144.4442 119.85636 144.48344 124.17932 C 144.48198 126.85401 145.84649 129.34425 148.10159 130.78248 C 150.3567 132.2207 153.1901 132.40775 155.6147 131.27845 C 155.37983 130.27867 154.98174 129.32446 154.43644 128.45419 Z"/>
               <path d="M 154.43644 128.45419 C 152.9568 129.19019 151.2017 129.10831 149.797 128.23776 C 148.3923 127.36721 147.53795 125.8319 147.53862 124.17932 C 147.52458 122.46506 148.43108 120.87498 149.91338 120.01377 C 151.39568 119.15256 153.226 119.15256 154.7083 120.01377 C 156.1906 120.87498 157.0971 122.46506 157.08307 124.17932 C 157.08331 124.20695 157.08331 124.23458 157.08307 124.26221 C 157.30777 124.95263 157.97474 125.40048 158.69884 125.34716 C 159.42294 125.29383 160.01711 124.7531 160.13824 124.03721 C 160.099 119.71426 156.56275 116.24162 152.2398 116.28086 C 147.91684 116.3201 144.4442 119.85636 144.48344 124.17932 C 144.48198 126.85401 145.84649 129.34425 148.10159 130.78248 C 150.3567 132.2207 153.1901 132.40775 155.6147 131.27845 C 155.37983 130.27867 154.98174 129.32446 154.43644 128.45419 Z"
                     stroke="black"
                     stroke-linecap="round"
                     stroke-linejoin="round"
                     stroke-width="1.5"/>
            </g>
            <g>
               <path d="M 210.21466 128.45419 C 211.6943 129.19019 213.4494 129.10831 214.8541 128.23776 C 216.2588 127.36721 217.11315 125.8319 217.11249 124.17932 C 217.12652 122.46506 216.22002 120.87498 214.73772 120.01377 C 213.25542 119.15256 211.4251 119.15256 209.9428 120.01377 C 208.4605 120.87498 207.554 122.46506 207.56803 124.17932 C 207.5678 124.20695 207.5678 124.23458 207.56803 124.26221 C 207.34333 124.95263 206.67636 125.40048 205.95226 125.34716 C 205.22816 125.29383 204.634 124.7531 204.51286 124.03721 C 204.5521 119.71426 208.08835 116.24162 212.4113 116.28086 C 216.73426 116.3201 220.2069 119.85636 220.16766 124.17932 C 220.16912 126.85401 218.80462 129.34425 216.5495 130.78248 C 214.2944 132.2207 211.461 132.40775 209.0364 131.27845 C 209.27127 130.27867 209.66936 129.32446 210.21466 128.45419 Z"/>
               <path d="M 210.21466 128.45419 C 211.6943 129.19019 213.4494 129.10831 214.8541 128.23776 C 216.2588 127.36721 217.11315 125.8319 217.11249 124.17932 C 217.12652 122.46506 216.22002 120.87498 214.73772 120.01377 C 213.25542 119.15256 211.4251 119.15256 209.9428 120.01377 C 208.4605 120.87498 207.554 122.46506 207.56803 124.17932 C 207.5678 124.20695 207.5678 124.23458 207.56803 124.26221 C 207.34333 124.95263 206.67636 125.40048 205.95226 125.34716 C 205.22816 125.29383 204.634 124.7531 204.51286 124.03721 C 204.5521 119.71426 208.08835 116.24162 212.4113 116.28086 C 216.73426 116.3201 220.2069 119.85636 220.16766 124.17932 C 220.16912 126.85401 218.80462 129.34425 216.5495 130.78248 C 214.2944 132.2207 211.461 132.40775 209.0364 131.27845 C 209.27127 130.27867 209.66936 129.32446 210.21466 128.45419 Z"
                     stroke="black"
                     stroke-linecap="round"
                     stroke-linejoin="round"
                     stroke-width="1.5"/>
            </g>
            <g>
               <path d="M 154.16769 142.38122 C 151.75379 138.32019 146.92329 136.37353 142.36806 137.62604 C 137.81283 138.87856 134.65667 143.02125 134.6584 147.74554 C 134.6355 153.50566 139.28645 158.19372 145.04658 158.2166 C 150.8067 158.2395 155.49476 153.58855 155.51765 147.82843 C 155.18022 147.27944 154.56942 146.95912 153.92595 146.9937 C 153.28248 147.02828 152.70952 147.41222 152.43287 147.99421 C 152.2759 152.05545 148.9028 155.2471 144.83909 155.17947 C 140.77538 155.11185 137.51033 151.80975 137.48858 147.74554 C 137.48614 144.13496 140.00527 141.01288 143.5348 140.25217 C 147.06433 139.49146 150.64586 141.29868 152.1309 144.5897 C 153.0275 144.08898 153.741 143.31532 154.16769 142.38122 Z"/>
               <path d="M 154.16769 142.38122 C 151.75379 138.32019 146.92329 136.37353 142.36806 137.62604 C 137.81283 138.87856 134.65667 143.02125 134.6584 147.74554 C 134.6355 153.50566 139.28645 158.19372 145.04658 158.2166 C 150.8067 158.2395 155.49476 153.58855 155.51765 147.82843 C 155.18022 147.27944 154.56942 146.95912 153.92595 146.9937 C 153.28248 147.02828 152.70952 147.41222 152.43287 147.99421 C 152.2759 152.05545 148.9028 155.2471 144.83909 155.17947 C 140.77538 155.11185 137.51033 151.80975 137.48858 147.74554 C 137.48614 144.13496 140.00527 141.01288 143.5348 140.25217 C 147.06433 139.49146 150.64586 141.29868 152.1309 144.5897 C 153.0275 144.08898 153.741 143.31532 154.16769 142.38122 Z"
                     stroke="black"
                     stroke-linecap="round"
                     stroke-linejoin="round"
                     stroke-width="1.5"/>
            </g>
            <g>
               <path d="M 210.33195 142.38122 C 212.74586 138.32019 217.57636 136.37353 222.13159 137.62604 C 226.68681 138.87856 229.84297 143.02125 229.84125 147.74554 C 229.86414 153.50566 225.2132 158.19372 219.45307 158.2166 C 213.69294 158.2395 209.00488 153.58855 208.982 147.82843 C 209.31943 147.27944 209.93023 146.95912 210.5737 146.9937 C 211.21717 147.02828 211.79012 147.41222 212.06677 147.99421 C 212.22374 152.05545 215.59685 155.2471 219.66055 155.17947 C 223.72426 155.11185 226.9893 151.80975 227.01107 147.74554 C 227.0135 144.13496 224.49437 141.01288 220.96485 140.25217 C 217.43532 139.49146 213.85378 141.29868 212.36874 144.5897 C 211.47215 144.08898 210.75864 143.31532 210.33195 142.38122 Z"/>
               <path d="M 210.33195 142.38122 C 212.74586 138.32019 217.57636 136.37353 222.13159 137.62604 C 226.68681 138.87856 229.84297 143.02125 229.84125 147.74554 C 229.86414 153.50566 225.2132 158.19372 219.45307 158.2166 C 213.69294 158.2395 209.00488 153.58855 208.982 147.82843 C 209.31943 147.27944 209.93023 146.95912 210.5737 146.9937 C 211.21717 147.02828 211.79012 147.41222 212.06677 147.99421 C 212.22374 152.05545 215.59685 155.2471 219.66055 155.17947 C 223.72426 155.11185 226.9893 151.80975 227.01107 147.74554 C 227.0135 144.13496 224.49437 141.01288 220.96485 140.25217 C 217.43532 139.49146 213.85378 141.29868 212.36874 144.5897 C 211.47215 144.08898 210.75864 143.31532 210.33195 142.38122 Z"
                     stroke="black"
                     stroke-linecap="round"
                     stroke-linejoin="round"
                     stroke-width="1.5"/>
            </g>
            <g>
               <path d="M 159.30411 90.12651 C 159.40701 102.65274 169.5906 112.75302 182.11725 112.75302 C 194.6439 112.75302 204.8275 102.65274 204.9304 90.12651 C 204.8275 77.60028 194.6439 67.5 182.11725 67.5 C 169.5906 67.5 159.40701 77.60028 159.30411 90.12651 Z M 162.82111 90.12651 C 162.82111 79.46955 171.46029 70.83037 182.11725 70.83037 C 192.77422 70.83037 201.4134 79.46955 201.4134 90.12651 C 201.4134 100.78347 192.77422 109.42265 182.11725 109.42265 C 171.46029 109.42265 162.82111 100.78347 162.82111 90.12651 Z"/>
               <path d="M 159.30411 90.12651 C 159.40701 102.65274 169.5906 112.75302 182.11725 112.75302 C 194.6439 112.75302 204.8275 102.65274 204.9304 90.12651 C 204.8275 77.60028 194.6439 67.5 182.11725 67.5 C 169.5906 67.5 159.40701 77.60028 159.30411 90.12651 Z M 162.82111 90.12651 C 162.82111 79.46955 171.46029 70.83037 182.11725 70.83037 C 192.77422 70.83037 201.4134 79.46955 201.4134 90.12651 C 201.4134 100.78347 192.77422 109.42265 182.11725 109.42265 C 171.46029 109.42265 162.82111 100.78347 162.82111 90.12651 Z"
                     stroke="black"
                     stroke-linecap="round"
                     stroke-linejoin="round"
                     stroke-width="1.5"/>
            </g>
            <g>
               <path d="M 185.90366 113.2727 C 186.6223 113.27422 187.31203 112.98982 187.82074 112.48222 C 188.32945 111.97461 188.61536 111.2855 188.61542 110.56686 C 188.61536 109.84822 188.32945 109.15911 187.82074 108.65151 C 187.31203 108.1439 186.6223 107.8595 185.90366 107.86102 L 178.66242 107.86102 C 177.16807 107.86113 175.9567 109.07251 175.95658 110.56686 C 175.9567 112.06121 177.16807 113.27259 178.66242 113.2727 Z"/>
               <path d="M 185.90366 113.2727 C 186.6223 113.27422 187.31203 112.98982 187.82074 112.48222 C 188.32945 111.97461 188.61536 111.2855 188.61542 110.56686 C 188.61536 109.84822 188.32945 109.15911 187.82074 108.65151 C 187.31203 108.1439 186.6223 107.8595 185.90366 107.86102 L 178.66242 107.86102 C 177.16807 107.86113 175.9567 109.07251 175.95658 110.56686 C 175.9567 112.06121 177.16807 113.27259 178.66242 113.2727 Z"
                     stroke="black"
                     stroke-linecap="round"
                     stroke-linejoin="round"
                     stroke-width="1.5"/>
            </g>
            <g>
               <path d="M 125.86524 261.0798 C 125.85252 264.89584 127.88106 268.42747 131.18375 270.33917 C 134.48644 272.25088 138.5592 272.25088 141.8619 270.33917 C 145.16459 268.42747 147.19312 264.89584 147.1804 261.0798 C 147.16083 255.20764 142.395 250.45767 136.52282 250.45767 C 130.65064 250.45767 125.88482 255.20764 125.86524 261.0798 Z M 129.0033 261.0798 C 129.09364 256.9916 132.43364 253.7246 136.52282 253.7246 C 140.612 253.7246 143.952 256.9916 144.04234 261.0798 C 143.952 265.16797 140.612 268.43498 136.52282 268.43498 C 132.43364 268.43498 129.09364 265.16797 129.0033 261.0798 Z"/>
               <path d="M 125.86524 261.0798 C 125.85252 264.89584 127.88106 268.42747 131.18375 270.33917 C 134.48644 272.25088 138.5592 272.25088 141.8619 270.33917 C 145.16459 268.42747 147.19312 264.89584 147.1804 261.0798 C 147.16083 255.20764 142.395 250.45767 136.52282 250.45767 C 130.65064 250.45767 125.88482 255.20764 125.86524 261.0798 Z M 129.0033 261.0798 C 129.09364 256.9916 132.43364 253.7246 136.52282 253.7246 C 140.612 253.7246 143.952 256.9916 144.04234 261.0798 C 143.952 265.16797 140.612 268.43498 136.52282 268.43498 C 132.43364 268.43498 129.09364 265.16797 129.0033 261.0798 Z"
                     stroke="black"
                     stroke-linecap="round"
                     stroke-linejoin="round"
                     stroke-width="1.5"/>
            </g>
            <g>
               <path d="M 125.86524 173.82114 C 125.85252 177.6372 127.88106 181.16882 131.18375 183.08053 C 134.48644 184.99223 138.5592 184.99223 141.8619 183.08053 C 145.16459 181.16882 147.19312 177.6372 147.1804 173.82114 C 147.16083 167.949 142.395 163.19903 136.52282 163.19903 C 130.65064 163.19903 125.88482 167.949 125.86524 173.82114 Z M 129.0033 173.82114 C 129.09364 169.73296 132.43364 166.46594 136.52282 166.46594 C 140.612 166.46594 143.952 169.73296 144.04234 173.82114 C 143.952 177.90933 140.612 181.17634 136.52282 181.17634 C 132.43364 181.17634 129.09364 177.90933 129.0033 173.82114 Z"/>
               <path d="M 125.86524 173.82114 C 125.85252 177.6372 127.88106 181.16882 131.18375 183.08053 C 134.48644 184.99223 138.5592 184.99223 141.8619 183.08053 C 145.16459 181.16882 147.19312 177.6372 147.1804 173.82114 C 147.16083 167.949 142.395 163.19903 136.52282 163.19903 C 130.65064 163.19903 125.88482 167.949 125.86524 173.82114 Z M 129.0033 173.82114 C 129.09364 169.73296 132.43364 166.46594 136.52282 166.46594 C 140.612 166.46594 143.952 169.73296 144.04234 173.82114 C 143.952 177.90933 140.612 181.17634 136.52282 181.17634 C 132.43364 181.17634 129.09364 177.90933 129.0033 173.82114 Z"
                     stroke="black"
                     stroke-linecap="round"
                     stroke-linejoin="round"
                     stroke-width="1.5"/>
            </g>
            <g>
               <path d="M 125.86524 304.70926 C 125.85252 308.5253 127.88106 312.05694 131.18375 313.96864 C 134.48644 315.88035 138.5592 315.88035 141.8619 313.96864 C 145.16459 312.05694 147.19312 308.5253 147.1804 304.70926 C 147.16083 298.8371 142.395 294.08714 136.52282 294.08714 C 130.65064 294.08714 125.88482 298.8371 125.86524 304.70926 Z M 129.0033 304.70926 C 129.09364 300.62107 132.43364 297.35406 136.52282 297.35406 C 140.612 297.35406 143.952 300.62107 144.04234 304.70926 C 143.952 308.79744 140.612 312.06445 136.52282 312.06445 C 132.43364 312.06445 129.09364 308.79744 129.0033 304.70926 Z"/>
               <path d="M 125.86524 304.70926 C 125.85252 308.5253 127.88106 312.05694 131.18375 313.96864 C 134.48644 315.88035 138.5592 315.88035 141.8619 313.96864 C 145.16459 312.05694 147.19312 308.5253 147.1804 304.70926 C 147.16083 298.8371 142.395 294.08714 136.52282 294.08714 C 130.65064 294.08714 125.88482 298.8371 125.86524 304.70926 Z M 129.0033 304.70926 C 129.09364 300.62107 132.43364 297.35406 136.52282 297.35406 C 140.612 297.35406 143.952 300.62107 144.04234 304.70926 C 143.952 308.79744 140.612 312.06445 136.52282 312.06445 C 132.43364 312.06445 129.09364 308.79744 129.0033 304.70926 Z"
                     stroke="black"
                     stroke-linecap="round"
                     stroke-linejoin="round"
                     stroke-width="1.5"/>
            </g>
            <g>
               <path d="M 125.86524 217.45032 C 125.85252 221.26636 127.88106 224.798 131.18375 226.7097 C 134.48644 228.6214 138.5592 228.6214 141.8619 226.7097 C 145.16459 224.798 147.19312 221.26636 147.1804 217.45032 C 147.16083 211.57817 142.395 206.8282 136.52282 206.8282 C 130.65064 206.8282 125.88482 211.57817 125.86524 217.45032 Z M 129.0033 217.45032 C 129.09364 213.36213 132.43364 210.09512 136.52282 210.09512 C 140.612 210.09512 143.952 213.36213 144.04234 217.45032 C 143.952 221.5385 140.612 224.8055 136.52282 224.8055 C 132.43364 224.8055 129.09364 221.5385 129.0033 217.45032 Z"/>
               <path d="M 125.86524 217.45032 C 125.85252 221.26636 127.88106 224.798 131.18375 226.7097 C 134.48644 228.6214 138.5592 228.6214 141.8619 226.7097 C 145.16459 224.798 147.19312 221.26636 147.1804 217.45032 C 147.16083 211.57817 142.395 206.8282 136.52282 206.8282 C 130.65064 206.8282 125.88482 211.57817 125.86524 217.45032 Z M 129.0033 217.45032 C 129.09364 213.36213 132.43364 210.09512 136.52282 210.09512 C 140.612 210.09512 143.952 213.36213 144.04234 217.45032 C 143.952 221.5385 140.612 224.8055 136.52282 224.8055 C 132.43364 224.8055 129.09364 221.5385 129.0033 217.45032 Z"
                     stroke="black"
                     stroke-linecap="round"
                     stroke-linejoin="round"
                     stroke-width="1.5"/>
            </g>
            <g>
               <path d="M 217.3428 261.0798 C 217.3301 264.89584 219.35862 268.42747 222.66132 270.33917 C 225.964 272.25088 230.03677 272.25088 233.33946 270.33917 C 236.64215 268.42747 238.6707 264.89584 238.65797 261.0798 C 238.6384 255.20764 233.87257 250.45767 228.0004 250.45767 C 222.1282 250.45767 217.36238 255.20764 217.3428 261.0798 Z M 220.48087 261.0798 C 220.5712 256.9916 223.9112 253.7246 228.0004 253.7246 C 232.08957 253.7246 235.42957 256.9916 235.5199 261.0798 C 235.42957 265.16797 232.08957 268.43498 228.0004 268.43498 C 223.9112 268.43498 220.5712 265.16797 220.48087 261.0798 Z"/>
               <path d="M 217.3428 261.0798 C 217.3301 264.89584 219.35862 268.42747 222.66132 270.33917 C 225.964 272.25088 230.03677 272.25088 233.33946 270.33917 C 236.64215 268.42747 238.6707 264.89584 238.65797 261.0798 C 238.6384 255.20764 233.87257 250.45767 228.0004 250.45767 C 222.1282 250.45767 217.36238 255.20764 217.3428 261.0798 Z M 220.48087 261.0798 C 220.5712 256.9916 223.9112 253.7246 228.0004 253.7246 C 232.08957 253.7246 235.42957 256.9916 235.5199 261.0798 C 235.42957 265.16797 232.08957 268.43498 228.0004 268.43498 C 223.9112 268.43498 220.5712 265.16797 220.48087 261.0798 Z"
                     stroke="black"
                     stroke-linecap="round"
                     stroke-linejoin="round"
                     stroke-width="1.5"/>
            </g>
            <g>
               <path d="M 217.3428 173.82114 C 217.3301 177.6372 219.35862 181.16882 222.66132 183.08053 C 225.964 184.99223 230.03677 184.99223 233.33946 183.08053 C 236.64215 181.16882 238.6707 177.6372 238.65797 173.82114 C 238.6384 167.949 233.87257 163.19903 228.0004 163.19903 C 222.1282 163.19903 217.36238 167.949 217.3428 173.82114 Z M 220.48087 173.82114 C 220.5712 169.73296 223.9112 166.46594 228.0004 166.46594 C 232.08957 166.46594 235.42957 169.73296 235.5199 173.82114 C 235.42957 177.90933 232.08957 181.17634 228.0004 181.17634 C 223.9112 181.17634 220.5712 177.90933 220.48087 173.82114 Z"/>
               <path d="M 217.3428 173.82114 C 217.3301 177.6372 219.35862 181.16882 222.66132 183.08053 C 225.964 184.99223 230.03677 184.99223 233.33946 183.08053 C 236.64215 181.16882 238.6707 177.6372 238.65797 173.82114 C 238.6384 167.949 233.87257 163.19903 228.0004 163.19903 C 222.1282 163.19903 217.36238 167.949 217.3428 173.82114 Z M 220.48087 173.82114 C 220.5712 169.73296 223.9112 166.46594 228.0004 166.46594 C 232.08957 166.46594 235.42957 169.73296 235.5199 173.82114 C 235.42957 177.90933 232.08957 181.17634 228.0004 181.17634 C 223.9112 181.17634 220.5712 177.90933 220.48087 173.82114 Z"
                     stroke="black"
                     stroke-linecap="round"
                     stroke-linejoin="round"
                     stroke-width="1.5"/>
            </g>
            <g>
               <path d="M 217.3428 304.70926 C 217.3301 308.5253 219.35862 312.05694 222.66132 313.96864 C 225.964 315.88035 230.03677 315.88035 233.33946 313.96864 C 236.64215 312.05694 238.6707 308.5253 238.65797 304.70926 C 238.6384 298.8371 233.87257 294.08714 228.0004 294.08714 C 222.1282 294.08714 217.36238 298.8371 217.3428 304.70926 Z M 220.48087 304.70926 C 220.5712 300.62107 223.9112 297.35406 228.0004 297.35406 C 232.08957 297.35406 235.42957 300.62107 235.5199 304.70926 C 235.42957 308.79744 232.08957 312.06445 228.0004 312.06445 C 223.9112 312.06445 220.5712 308.79744 220.48087 304.70926 Z"/>
               <path d="M 217.3428 304.70926 C 217.3301 308.5253 219.35862 312.05694 222.66132 313.96864 C 225.964 315.88035 230.03677 315.88035 233.33946 313.96864 C 236.64215 312.05694 238.6707 308.5253 238.65797 304.70926 C 238.6384 298.8371 233.87257 294.08714 228.0004 294.08714 C 222.1282 294.08714 217.36238 298.8371 217.3428 304.70926 Z M 220.48087 304.70926 C 220.5712 300.62107 223.9112 297.35406 228.0004 297.35406 C 232.08957 297.35406 235.42957 300.62107 235.5199 304.70926 C 235.42957 308.79744 232.08957 312.06445 228.0004 312.06445 C 223.9112 312.06445 220.5712 308.79744 220.48087 304.70926 Z"
                     stroke="black"
                     stroke-linecap="round"
                     stroke-linejoin="round"
                     stroke-width="1.5"/>
            </g>
            <g>
               <path d="M 217.3428 217.45032 C 217.3301 221.26636 219.35862 224.798 222.66132 226.7097 C 225.964 228.6214 230.03677 228.6214 233.33946 226.7097 C 236.64215 224.798 238.6707 221.26636 238.65797 217.45032 C 238.6384 211.57817 233.87257 206.8282 228.0004 206.8282 C 222.1282 206.8282 217.36238 211.57817 217.3428 217.45032 Z M 220.48087 217.45032 C 220.5712 213.36213 223.9112 210.09512 228.0004 210.09512 C 232.08957 210.09512 235.42957 213.36213 235.5199 217.45032 C 235.42957 221.5385 232.08957 224.8055 228.0004 224.8055 C 223.9112 224.8055 220.5712 221.5385 220.48087 217.45032 Z"/>
               <path d="M 217.3428 217.45032 C 217.3301 221.26636 219.35862 224.798 222.66132 226.7097 C 225.964 228.6214 230.03677 228.6214 233.33946 226.7097 C 236.64215 224.798 238.6707 221.26636 238.65797 217.45032 C 238.6384 211.57817 233.87257 206.8282 228.0004 206.8282 C 222.1282 206.8282 217.36238 211.57817 217.3428 217.45032 Z M 220.48087 217.45032 C 220.5712 213.36213 223.9112 210.09512 228.0004 210.09512 C 232.08957 210.09512 235.42957 213.36213 235.5199 217.45032 C 235.42957 221.5385 232.08957 224.8055 228.0004 224.8055 C 223.9112 224.8055 220.5712 221.5385 220.48087 217.45032 Z"
                     stroke="black"
                     stroke-linecap="round"
                     stroke-linejoin="round"
                     stroke-width="1.5"/>
            </g>
            <g>
               <path d="M 150.47952 311.6769 L 150.47952 310.65257 C 150.48388 310.47095 150.4898 310.28937 150.49728 310.10785 L 214.01646 310.10785 L 214.01646 312.1032 L 214.07567 312.1032 C 213.58522 329.39398 199.36636 343.12287 182.069 343.0069 C 164.77165 342.89097 150.73812 328.9727 150.47952 311.6769 Z M 224.81022 309.77036 L 224.81022 152.51184 L 214.01646 152.51184 L 214.01646 168.42716 L 150.47952 168.42716 L 150.47952 152.51184 L 139.69168 152.51184 L 139.69168 312.1032 L 139.74496 312.1032 C 140.01072 335.59566 159.26749 354.4263 182.76003 354.1664 C 206.25256 353.90647 225.088 334.65437 224.8339 311.16177 C 224.8336 310.69787 224.8257 310.234 224.81022 309.77036 Z M 150.47952 299.3141 L 150.47952 266.4769 L 214.01646 266.4769 L 214.01646 299.3141 Z M 150.47952 255.68314 L 150.47952 179.215 L 214.01646 179.215 L 214.01646 255.68314 Z"/>
            </g>
            <g>
               <path d="M 150.47952 311.6769 L 150.47952 310.65257 C 150.48388 310.47095 150.4898 310.28937 150.49728 310.10785 L 214.01646 310.10785 L 214.01646 312.1032 L 214.07567 312.1032 C 213.58522 329.39398 199.36636 343.12287 182.069 343.0069 C 164.77165 342.89097 150.73812 328.9727 150.47952 311.6769 M 224.81022 309.77036 L 224.81022 152.51184 L 214.01646 152.51184 L 214.01646 168.42716 L 150.47952 168.42716 L 150.47952 152.51184 L 139.69168 152.51184 L 139.69168 312.1032 L 139.74496 312.1032 C 140.01072 335.59566 159.26749 354.4263 182.76003 354.1664 C 206.25256 353.90647 225.088 334.65437 224.8339 311.16177 C 224.8336 310.69787 224.8257 310.234 224.81022 309.77036 M 150.47952 299.3141 L 150.47952 266.4769 L 214.01646 266.4769 L 214.01646 299.3141 L 150.47952 299.3141 M 150.47952 255.68314 L 150.47952 179.215 L 214.01646 179.215 L 214.01646 255.68314 L 150.47952 255.68314"/>
               <path d="M 150.47952 311.6769 L 150.47952 310.65257 C 150.48388 310.47095 150.4898 310.28937 150.49728 310.10785 L 214.01646 310.10785 L 214.01646 312.1032 L 214.07567 312.1032 C 213.58522 329.39398 199.36636 343.12287 182.069 343.0069 C 164.77165 342.89097 150.73812 328.9727 150.47952 311.6769 M 224.81022 309.77036 L 224.81022 152.51184 L 214.01646 152.51184 L 214.01646 168.42716 L 150.47952 168.42716 L 150.47952 152.51184 L 139.69168 152.51184 L 139.69168 312.1032 L 139.74496 312.1032 C 140.01072 335.59566 159.26749 354.4263 182.76003 354.1664 C 206.25256 353.90647 225.088 334.65437 224.8339 311.16177 C 224.8336 310.69787 224.8257 310.234 224.81022 309.77036 M 150.47952 299.3141 L 150.47952 266.4769 L 214.01646 266.4769 L 214.01646 299.3141 L 150.47952 299.3141 M 150.47952 255.68314 L 150.47952 179.215 L 214.01646 179.215 L 214.01646 255.68314 L 150.47952 255.68314"
                     stroke="black"
                     stroke-linecap="round"
                     stroke-linejoin="round"
                     stroke-width="1.5"/>
            </g>
            <g>
               <path d="M 94.36937 364.5 L 88.70309 357.17587 C 97.91241 351.77 104.27693 342.58615 106.10514 332.0651 C 107.93335 321.54405 105.04007 310.7515 98.19425 302.55577 C 83.2639 278.62194 84.05133 248.08917 100.19551 224.95675 C 114.78247 208.22187 117.43816 184.1861 106.8565 164.67037 C 101.25181 151.4642 104.30394 136.17326 114.54913 126.1308 C 124.79433 116.08833 140.14322 113.34238 153.23474 119.20986 L 149.32104 127.03726 C 139.62152 123.24542 128.59298 125.66841 121.37616 133.17681 C 114.15933 140.68521 112.17482 151.80103 116.34767 161.34283 C 127.36444 183.62481 124.09332 210.32184 108.02291 229.2849 C 92.53308 249.61974 91.99415 277.64384 106.69071 298.55918 C 114.30903 308.77155 117.31115 321.70377 114.97095 334.22794 C 112.63075 346.7521 105.16135 357.72768 94.36937 364.5 Z"/>
               <path d="M 94.36937 364.5 L 88.70309 357.17587 C 97.91241 351.77 104.27693 342.58615 106.10514 332.0651 C 107.93335 321.54405 105.04007 310.7515 98.19425 302.55577 C 83.2639 278.62194 84.05133 248.08917 100.19551 224.95675 C 114.78247 208.22187 117.43816 184.1861 106.8565 164.67037 C 101.25181 151.4642 104.30394 136.17326 114.54913 126.1308 C 124.79433 116.08833 140.14322 113.34238 153.23474 119.20986 L 149.32104 127.03726 C 139.62152 123.24542 128.59298 125.66841 121.37616 133.17681 C 114.15933 140.68521 112.17482 151.80103 116.34767 161.34283 C 127.36444 183.62481 124.09332 210.32184 108.02291 229.2849 C 92.53308 249.61974 91.99415 277.64384 106.69071 298.55918 C 114.30903 308.77155 117.31115 321.70377 114.97095 334.22794 C 112.63075 346.7521 105.16135 357.72768 94.36937 364.5 Z"
                     stroke="black"
                     stroke-linecap="round"
                     stroke-linejoin="round"
                     stroke-width="1.5"/>
            </g>
            <g>
               <path d="M 270.13063 364.5 L 275.7969 357.17587 C 266.5876 351.77 260.22307 342.58615 258.39486 332.0651 C 256.56665 321.54405 259.45993 310.7515 266.30575 302.55577 C 281.2361 278.62194 280.44867 248.08917 264.3045 224.95675 C 249.71753 208.22187 247.06184 184.1861 257.6435 164.67037 C 263.2482 151.4642 260.19606 136.17326 249.95087 126.1308 C 239.70567 116.08833 224.35678 113.34238 211.26526 119.20986 L 215.17896 127.03726 C 224.87848 123.24542 235.90702 125.66841 243.12384 133.17681 C 250.34067 140.68521 252.32518 151.80103 248.15233 161.34283 C 237.13556 183.62481 240.40668 210.32184 256.4771 229.2849 C 271.96692 249.61974 272.50585 277.64384 257.8093 298.55918 C 250.19097 308.77155 247.18885 321.70377 249.52905 334.22794 C 251.86925 346.7521 259.33865 357.72768 270.13063 364.5 Z"/>
               <path d="M 270.13063 364.5 L 275.7969 357.17587 C 266.5876 351.77 260.22307 342.58615 258.39486 332.0651 C 256.56665 321.54405 259.45993 310.7515 266.30575 302.55577 C 281.2361 278.62194 280.44867 248.08917 264.3045 224.95675 C 249.71753 208.22187 247.06184 184.1861 257.6435 164.67037 C 263.2482 151.4642 260.19606 136.17326 249.95087 126.1308 C 239.70567 116.08833 224.35678 113.34238 211.26526 119.20986 L 215.17896 127.03726 C 224.87848 123.24542 235.90702 125.66841 243.12384 133.17681 C 250.34067 140.68521 252.32518 151.80103 248.15233 161.34283 C 237.13556 183.62481 240.40668 210.32184 256.4771 229.2849 C 271.96692 249.61974 272.50585 277.64384 257.8093 298.55918 C 250.19097 308.77155 247.18885 321.70377 249.52905 334.22794 C 251.86925 346.7521 259.33865 357.72768 270.13063 364.5 Z"
                     stroke="black"
                     stroke-linecap="round"
                     stroke-linejoin="round"
                     stroke-width="1.5"/>
            </g>
         </g>
      </g>
   </g>
</svg>