<?xml version="1.0" encoding="UTF-8" standalone="no"?>
<!-- Created with Inkscape (http://www.inkscape.org/) -->
<svg xmlns:dc="http://purl.org/dc/elements/1.1/" xmlns:cc="http://creativecommons.org/ns#" xmlns:rdf="http://www.w3.org/1999/02/22-rdf-syntax-ns#" xmlns:svg="http://www.w3.org/2000/svg" xmlns="http://www.w3.org/2000/svg" version="1.1" width="401.28284" height="451.90784" id="svg3009">
  <defs id="defs3011"/>
  <metadata id="metadata3014">
    <rdf:RDF>
      <cc:Work rdf:about="">
        <dc:format>image/svg+xml</dc:format>
        <dc:type rdf:resource="http://purl.org/dc/dcmitype/StillImage"/>
        <dc:title/>
        <dc:creator>
          <cc:Agent>
            <dc:title>http://commons.wikimedia.org/wiki/User:SanchoPanzaXXI</dc:title>
          </cc:Agent>
        </dc:creator>
      </cc:Work>
    </rdf:RDF>
  </metadata>
  <g id="layer1">
    <g id="g2533" style="fill:#ffff00;display:inline">
      <path d="m195.3,1.753   c-97.44,-0.6335 -193.2,61.37 -193.6,191.4 2.157,69.72 29.06,146 59.33,212.5   L97.77,390.3   c10,37.99 29.04,18.24 33.7,-2.35 0.09891,0.6906 0.1872,1.246 0.282,1.68 -0.07282,-0.2419 -0.1287,-0.3863 -0.2491,-0.7509 -5.556,21.2 -24.16,39.36 -33.73,1.422   l-56,25.31   c6.811,41.4 25.78,40.33 60.83,24.24 16.57,-8.103 36.34,-14.68 36.64,-31.38 1.84,-10.53 -52.76,-121.9 -54.26,-190.9 -4.41,-153.4 230.9,-166 232.1,1.358 -2.206,67.93 -57.35,174.2 -59.02,183.9 -1.921,10.17 -17.31,22.88 42.87,40.9 34.85,11.45 54.66,8.142 55.48,-30.96   l-56.47,-15.41   c2.302,3.387 0.02448,-0.09307 0.03615,-0.1427   l34.78,8.94   c27.19,-39.98 68.77,-139.9 64.46,-208.3   C398.2,69.65 295.8,2.353 195.3,1.753   z m146.3,92.68 10.44,29.04 -24.95,8.845 -10.44,-29.07 24.95,-8.809   z m-282.7,0.04224 24.89,8.978 -10.63,29 -24.89,-8.978 10.63,-29   z m307.4,70.8 3.276,30.69 -26.33,2.768 -3.276,-30.66 26.33,-2.804   z m-332.7,-0.1271 26.31,2.982 -3.484,30.67 -26.31,-2.982 3.484,-30.67   z m304.3,76.25 26.2,3.839 -4.526,30.52 -26.2,-3.839 4.526,-30.52   z M61.57,241.5 65.87,272 39.67,275.7 35.27,245.1 61.57,241.5   z m261.8,76.04 24.45,10.08 -11.93,28.5 -24.45,-10.08 11.93,-28.5   z M75.67,317.7 87.47,346.2 62.87,356.2 51.17,327.6 75.67,317.7   z m183.3,86.32   c3.43,2.969 27.99,36.66 40.33,-6.861 -11.95,41.66 -36.93,9.955 -40.33,6.861   z " id="polygon16360" style="fill:#ffff00;fill-opacity:1;stroke:#000000;stroke-width:3;stroke-miterlimit:4;stroke-opacity:1;stroke-dasharray:none"/>
      <polyline style="fill:#ffff00;fill-opacity:1;stroke:#000000;stroke-width:0.34378448;stroke-miterlimit:4;stroke-opacity:1;stroke-dasharray:none" id="polyline16362" points="23.777,95.771 26.035,94.381 28.292,92.992        30.723,92.819 32.633,93.514 34.716,94.034 36.974,94.208 39.232,93.861 41.663,93.34 43.226,92.819 45.31,93.34        46.873,94.034 48.435,95.423      " transform="matrix(8.7271912,0.04033812,-0.04032992,8.7254179,771.78036,-671.40493)"/>
    </g>
  </g>
</svg>
