<?xml version="1.0" encoding="UTF-8" standalone="no"?>
<!-- Created with Inkscape (http://www.inkscape.org/) -->
<svg xmlns:dc="http://purl.org/dc/elements/1.1/" xmlns:cc="http://creativecommons.org/ns#" xmlns:rdf="http://www.w3.org/1999/02/22-rdf-syntax-ns#" xmlns:svg="http://www.w3.org/2000/svg" xmlns="http://www.w3.org/2000/svg" xmlns:sodipodi="http://sodipodi.sourceforge.net/DTD/sodipodi-0.dtd" xmlns:inkscape="http://www.inkscape.org/namespaces/inkscape" version="1.0" width="633.3" height="776.3" id="svg1389" inkscape:version="0.48.2 r9819" sodipodi:docname="cock.svg">
  <metadata id="metadata3103">
    <rdf:RDF>
      <cc:Work rdf:about="">
        <dc:format>image/svg+xml</dc:format>
        <dc:type rdf:resource="http://purl.org/dc/dcmitype/StillImage"/>
        <cc:license rdf:resource=""/>
        <dc:title/>
        <dc:creator>
          <cc:Agent>
            <dc:title>http://commons.wikimedia.org/wiki/User:Wagner51</dc:title>
          </cc:Agent>
        </dc:creator>
      </cc:Work>
    </rdf:RDF>
  </metadata>
  <sodipodi:namedview pagecolor="#ffffff" bordercolor="#666666" borderopacity="1" objecttolerance="10" gridtolerance="10" guidetolerance="10" inkscape:pageopacity="0" inkscape:pageshadow="2" inkscape:window-width="640" inkscape:window-height="480" id="namedview3101" showgrid="false" fit-margin-top="0" fit-margin-left="0" fit-margin-right="0" fit-margin-bottom="0" inkscape:zoom="0.5434" inkscape:cx="-238.1" inkscape:cy="122.5" inkscape:current-layer="svg1389"/>
  <defs id="defs3"/>
  <g id="legged" inkscape:label="#g3137">
    <path inkscape:connector-curvature="0" id="path12915" style="fill:#00ff00;fill-opacity:1;fill-rule:evenodd;stroke:#000000;stroke-width:3;stroke-linecap:butt;stroke-linejoin:miter;stroke-miterlimit:4;stroke-opacity:1;stroke-dasharray:none" d="m241.1,635.4   c0,0.9 -9.6,37.1 -16,63.1 -6.4,26 -9.6,40.9 -9.6,40.9 0,0 6.9,5.4 10.2,10.6 3.3,5.1 3,10.2 3,10.2   l-3.6,-4.2   c0,0 -2.3,3.8 -5.4,3.9 -3.1,0.1 -6.9,-3.6 -6.9,-3.6   l-3.9,9   c0,0 -43.1,2.5 -59.9,2.1 -16.7,-0.4 -7.2,-3.6 -7.2,-3.6   l-10.8,3.9 9.9,-6   c0,0 -1.4,-5 8.4,-6.6 9.9,-1.7 18.5,5.1 31,0 12.6,-5.1 15.7,-17.2 16.9,-22.3 1.2,-5.1 8.1,-22.5 12.9,-49 4.8,-26.6 6.3,-57.2 6.3,-57.2   l24.7,8.8   z "/>
    <path inkscape:connector-curvature="0" id="path12032" style="fill:#00ff00;fill-opacity:1;fill-rule:evenodd;stroke:#000000;stroke-width:3;stroke-linecap:butt;stroke-linejoin:miter;stroke-miterlimit:4;stroke-opacity:1;stroke-dasharray:none" d="m274,631.2   c0,0.9 -10.4,40.3 -17.3,68.5 -6.9,28.2 -10.4,44.4 -10.4,44.4 0,0 7.5,5.8 11,11.4 3.6,5.6 3.3,11.1 3.3,11.1   l-3.9,-4.6   c0,0 -2.5,4.2 -5.9,4.3 -3.3,0.1 -7.5,-3.9 -7.5,-3.9   l-4.2,9.8   c0,0 -46.8,2.6 -65,2.2 -18.2,-0.4 -7.8,-3.9 -7.8,-3.9   l-11.8,4.3 10.8,-6.6   c0,0 -1.5,-5.4 9.1,-7.1 10.7,-1.8 20,5.5 33.7,0 13.6,-5.6 16.9,-18.6 18.2,-24.2 1.3,-5.5 8.9,-24.4 14.1,-53.2 5.2,-28.8 6.8,-62 6.8,-62   l26.8,9.5   z "/>
  </g>
  <g id="beaked" inkscape:label="#g3131" style="fill:#00ff00">
    <path inkscape:connector-curvature="0" id="path9393" style="fill:#00ff00;fill-opacity:1;fill-rule:evenodd;stroke:#000000;stroke-width:3;stroke-linecap:butt;stroke-linejoin:miter;stroke-miterlimit:4;stroke-opacity:1;stroke-dasharray:none" d="m32.45,145.8   c0,0 4.92,-13.8 14.73,-22.5 9.8,-8.6 24.6,-12.1 24.6,-12.1   l30.2,32   c0,0 -20,-3.6 -37.4,-2.9 -17.4,0.6 -32.13,5.5 -32.13,5.5   z "/>
  </g>
  <g id="body" inkscape:label="#g3141">
    <path inkscape:connector-curvature="0" id="path2338" style="fill:#ffff00;fill-opacity:1;fill-rule:evenodd;stroke:#000000;stroke-width:3;stroke-linecap:butt;stroke-linejoin:miter;stroke-miterlimit:4;stroke-opacity:1;stroke-dasharray:none" d="m224.8,634.1   c0,0 -20.9,11.3 -32.5,-0.9   C180.8,621.1 187,620.6 157.8,589.5 128.7,558.4 140,583.3 103.4,543.2 85.18,523.1 82.68,514 65.18,493 47.68,472 15.27,439.1 11.52,429.1 2.45,404.8 -1.87,396.9 4.59,356.1 11.06,315.4 37.37,266.1 37.37,266.1   l47.11,-94.6 -13.4,-69.2 49.8,-42 3.4,21.4   c15.3,14.7 38.9,10.3 59.6,52.7 20.8,42.5 13.2,72.7 24,119.1 10.9,46.4 9.6,47.3 14.8,57.7 5.3,10.6 21.1,18 36,23.1 14.8,5.1 46.4,13.2 59.1,2.8 12.5,-10.3 36.7,-56.7 65.1,-91 29,-35 60.4,-50.7 85.4,-53.5 23.9,-2.7 71.3,4.4 97.4,24 27.2,20.5 68.4,73.2 66,137.6 -2.4,63.8 -19.7,75.6 -25,87.2 -4,8.7 -20.3,23.5 -20.3,23.5 0,0 28.6,-54.4 31.4,-96.9 2.8,-42.5 -20.3,-72.9 -20.3,-72.9 0,0 13.6,34.8 1.8,88.6 -11.7,53.8 -48.9,126.5 -48.9,126.5 0,0 16.9,-68.4 21.3,-114.5 4.3,-46.2 -3.7,-70.2 -3.7,-70.2 0,0 -0.3,21.3 -5.6,30.5 -5.3,9.2 -15.7,6.5 -15.7,6.5 0,0 7.2,19.3 -1.8,30.4 -9,11.1 -34.2,13.9 -34.2,13.9 0,0 11.1,27 2.8,37.8 -8.3,10.9 -36,5.6 -36,5.6 0,0 -6.5,18.9 -15.7,32.3 -9.2,13.4 -21.2,21.2 -21.2,21.2   l10.1,-32.3 -31.4,47.1 -12.9,-39.7   c0,0 -3.2,25.6 -11.1,40.6 -7.8,15 -20.3,19.4 -20.3,19.4   L373.2,511.1   c0,0 -11.4,27.6 -12.9,23.1 -1.4,-4.2 -9.3,-19.4 -9.3,-19.4 0,0 -10.4,0.2 -19.4,10.1 -9,10 -8.7,18.5 -16.6,29.6 -7.8,11 -14.7,14.7 -14.7,14.7   l-1,-13.8   c0,0 -3.9,14.5 -9.2,23.1 -5.3,8.5 -12,11 -12,11 0,0 2.2,26.8 -2.8,44.8 -4.9,18 -5.7,21.4 -16.1,24.5   C248.8,661.9 243.6,631.6 224.8,634.1   z "/>
    <path style="fill:#000000;fill-opacity:1;stroke:none" d="m119.5,106   c2.2,4.6 -0.1,10.5 -5.2,13 -5.3,2.5 -12.7,1.1 -13.6,-4 -0.6,-3.7 0.4,-6.4 4.1,-9.1 4.4,-3.6 12.4,-4.7 14.7,0.1   z " id="path6733"/>
    <path style="fill:#ffffff;fill-opacity:1;stroke:none" d="m107.8,110   c0.2,1 -0.8,1.9 -1.8,1.7 -0.8,-0.1 -1.5,-0.9 -1.3,-1.7 -0.2,-1 0.8,-1.9 1.8,-1.7 0.8,0.1 1.5,0.9 1.3,1.7   z " id="path3533" inkscape:connector-curvature="0"/>
    <path style="fill:#ffffff;fill-opacity:1;stroke:none" d="m116.6,108   c-0.8,0.8 0.3,1.8 0.1,2.8 0.4,4.4 -4,8.8 -8.4,7.2 -1.8,-0.5 -3.2,-1.9 -4,-3.5   l-0.7,-0.3   c0.8,-0.8 -0.3,-1.8 -0.1,-2.8 -0.4,-4.4 4,-8.8 8.4,-7.2 1.8,0.5 3.2,1.9 4,3.5   l0.7,0.3   z " id="path3531" inkscape:connector-curvature="0"/>
    <path style="fill:#000000;fill-opacity:1;stroke:none" d="m112.7,108.3   c0.1,1.2 -1.1,2.6 -2.4,2.2 -1.3,-0.4 -1.8,-2.1 -1.3,-3.3 0.5,-1.1 2,-1.6 2.9,-0.7 0.5,0.4 0.8,1.1 0.8,1.8   z " id="path3535" inkscape:connector-curvature="0"/>
  </g>
  <g id="jelloped" inkscape:label="#g3134">
    <path inkscape:connector-curvature="0" id="path10276" style="fill:#ff0000;fill-opacity:1;fill-rule:evenodd;stroke:#000000;stroke-width:3;stroke-linecap:butt;stroke-linejoin:miter;stroke-miterlimit:4;stroke-opacity:1;stroke-dasharray:none" d="m108.2,141.6   c0,0 4.3,31.1 -6.9,43.1 -11.1,12 -24,7.6 -37.8,4.9 -13.8,-2.7 -16.8,-5 -17.3,-15.7 -0.5,-10.7 5,-18 15.3,-27.1 10.4,-9 14.5,-7.8 26.1,-9.1 11.7,-1.3 20.6,3.9 20.6,3.9   z "/>
  </g>
  <g id="combed" inkscape:label="#g3128" style="fill:#ff0000">
    <path inkscape:connector-curvature="0" id="path2358" style="fill:#ff0000;fill-opacity:1;fill-rule:evenodd;stroke:#000000;stroke-width:3;stroke-linecap:butt;stroke-linejoin:miter;stroke-miterlimit:4;stroke-opacity:1;stroke-dasharray:none" d="m71.78,116   c-9.4,0.6 -23.1,10.1 -29.56,-0.9 -6.46,-11.1 3.66,-43.4 3.66,-43.4   l10.2,5.1   c0,0 -4.5,-7.7 -5.6,-14.4 -1,-6.6 1.4,-12.4 1.4,-12.4 0,0 3.1,8.3 7,12.9 3.8,4.6 8.7,7.9 8.3,5.5 -0.5,-2.3 -4.5,-12.5 -5.6,-22.6 -1,-10 1.4,-17.5 1.4,-17.5 0,0 4.3,10.6 9.2,18 5,7.4 10.7,11.5 10.7,11.5   l-0.5,-46.6   c0,0 3.7,14.1 7.8,23.1 4.2,9 8.8,12.9 8.8,12.9   l4.6,-45.7   c0,0 4.6,14.8 7.4,24.9 2.8,10.2 3.7,15.7 3.7,15.7 0,0 5.1,-7.6 7.4,-17 2.3,-9.5 1.8,-20.8 1.8,-20.8 0,0 3.2,11.6 4.7,19.4 1.5,7.7 1.3,11.5 1.3,11.5 0,0 7.1,-1.3 11.1,-4.6 4.1,-3.4 5.1,-8.8 5.1,-8.8 0,0 -1.2,7.5 0.5,11.1 1.6,3.6 6,3.2 6,3.2 0,0 -0.4,14.1 -7.9,24 -7.5,10 -22.1,15.7 -22.1,15.7 0,0 -4.5,-5.4 -13.4,0 -8.9,5.5 -14.8,12.5 -22.2,21.7 -7.4,9.3 -7.4,15.3 -7.4,15.3 0,0 1.5,2.6 -7.8,3.2   z "/>
  </g>
</svg>
