<?xml version="1.0" encoding="UTF-8" standalone="no"?>
<!-- Created with Inkscape (http://www.inkscape.org/) -->
<svg xmlns:dc="http://purl.org/dc/elements/1.1/" xmlns:cc="http://creativecommons.org/ns#" xmlns:rdf="http://www.w3.org/1999/02/22-rdf-syntax-ns#" xmlns:svg="http://www.w3.org/2000/svg" xmlns="http://www.w3.org/2000/svg" version="1.1" width="138.882" height="279.88202" id="svg4379">
  <defs id="defs4381"/>
  <metadata id="metadata4384">
    <rdf:RDF>
      <cc:Work rdf:about="">
        <dc:format>image/svg+xml</dc:format>
        <dc:type rdf:resource="http://purl.org/dc/dcmitype/StillImage"/>
        <dc:title/>
        <dc:creator>
          <cc:Agent>
            <dc:title>colouringbook.org</dc:title>
          </cc:Agent>
        </dc:creator>
      </cc:Work>
    </rdf:RDF>
  </metadata>
  <g id="layer1">
    <g id="g4323">
      <g id="g2996">
        <path d="m124.1,35.7   c-3.021,-6.326 -7.12,-11.77 -12,-16.24 -4.878,-4.471 -10.58,-7.969 -16.7,-10.31 -6.119,-2.34 -13.59,-6.351 -17.95,-8.582 -4.744,3.49 -15.1,6.497 -21.85,9.239 -14.72,5.984 -25.9,17.52 -31.98,31.25 7.76,15.79 27.57,26.22 50.62,24.9 22.85,-1.315 42.29,-13.8 49.85,-30.25   z " id="path2989" style="fill:#ffff00;fill-opacity:1;stroke:#000000;stroke-width:0.43931121"/>
        <path d="m107.3,26.8   c0.8793,1.931 0.9665,3.945 0.02716,5.593 -1.879,3.296 -7.093,3.886 -11.66,1.29 -4.562,-2.597 -6.738,-7.373 -4.86,-10.67 1.879,-3.296 7.093,-3.886 11.66,-1.29 2.281,1.298 3.952,3.146 4.833,5.076   z " id="path2987" style="fill:#ffffff;fill-opacity:1;stroke:#000000;stroke-width:0.43931121"/>
        <path d="m83.12,13.4   c0.7862,2.422 0.6046,5.704 -0.6547,8.743 -2.015,4.862 -6.082,7.375 -9.076,5.629 -2.993,-1.746 -3.776,-7.136 -1.762,-12 2.015,-4.862 6.082,-7.375 9.076,-5.629 1.123,0.6547 1.945,1.802 2.417,3.255   z " id="path3423-9-8" style="fill:#ffffff;fill-opacity:1;stroke:#000000;stroke-width:0.43931121"/>
        <path d="m125.9,41.6   c-7.61,16.48 -27.86,29.07 -51.79,30.41 -24.42,1.36 -45.25,-9.44 -52.9,-25.61 -9.656,69.24 -13.51,127.7 -20.81,214   l28.39,-164.3   c8.418,10.84 20.9,17.84 34.62,19.75   l6.977,163.9 10.54,-164.3   c3.724,-0.6515 7.43,-1.683 11.11,-3.112 10.59,-4.111 19.34,-11 25.68,-19.39   l20.5,164.8   c-2.875,-79.72 -5.367,-144.4 -12.29,-216.1 -0.01631,-0.04015 0.01921,-0.08875 0.003289,-0.1292   z " id="path3423" style="fill:#ffff00;fill-opacity:1;stroke:#000000;stroke-width:0.43931121"/>
        <path d="m125.9,41.9   c-0.01631,-0.04015 0.01921,-0.08875 0.003289,-0.1292   m-102.5,-0.5982   c7.76,15.79 27.57,26.22 50.62,24.9 22.85,-1.315 42.29,-13.8 49.85,-30.25   l1.987,5.952 0,0   c-7.61,16.48 -27.86,29.07 -51.79,30.41 -24.42,1.36 -45.25,-9.44 -52.9,-25.61   z " id="path2993" style="fill:#ffffff;fill-opacity:1;stroke:#000000;stroke-width:0.43931121"/>
      </g>
    </g>
  </g>
</svg>
