<?xml version="1.0" encoding="UTF-8" standalone="no"?>
<svg xmlns:dc="http://purl.org/dc/elements/1.1/"
                xmlns:cc="http://creativecommons.org/ns#"
                xmlns:rdf="http://www.w3.org/1999/02/22-rdf-syntax-ns#"
                xmlns:svg="http://www.w3.org/2000/svg"
                xmlns="http://www.w3.org/2000/svg"
                width="174"
                height="128"
                version="1.1" >
  <metadata>
    <rdf:RDF>
      <cc:Work rdf:about="">
        <dc:format>image/svg+xml</dc:format>
        <dc:type rdf:resource="http://purl.org/dc/dcmitype/StillImage"/>
        <cc:license rdf:resource=""/>
        <dc:title/>
        <dc:creator>
          <cc:Agent>
            <dc:title>(Drawshield internal)</dc:title>
          </cc:Agent>
        </dc:creator>
      </cc:Work>
    </rdf:RDF>
  </metadata>
<g style="fill:#ffff00;fill-opacity:1;fill-rule:evenodd;stroke:#000000;stroke-width:3;stroke-linecap:butt;stroke-linejoin:miter;stroke-miterlimit:4;stroke-opacity:1;stroke-dasharray:none" id="body"><path d="m 87,121 c -15,-3 -42,-15 -43,-19 0,-3.7 1,-4.3 6,-2.4 9,3.4 12,3.4 12,1.4 0,-1 -1,-1.3 -2,-1.3 C 55,99.7 32,92.6 26,89.2 17,84.2 11,78.5 7,71.3 5,67.7 4,64.4 4,63.9 c 1,-0.6 5,1.2 11,3.8 7,3.6 12,6.8 18,11.9 5,3.9 9,7.7 11,8.6 4,1.9 16,3.3 16,1.8 0,-0.5 -3,-1.2 -6,-1.6 -7,-0.6 -9,-1.5 -15,-5.8 -6,-5 -9,-9.8 -9,-18 C 29,58 29,56.4 32,49.2 35,40.4 45,22 47,20 c 1,-1 1,0 2,5 0,4 2,10.6 3,14.7 3,6.6 3,8.5 3,14.7 0,6 -1,8.5 -5,16.2 -3,6.5 -4,9.1 -3,9.1 0,0 3,-3.3 5,-7.5 3,-7 4,-7.5 6,-7.3 3,0.3 3,-0.1 5,-4.9 2,-6.2 8,-14.3 13,-19.3 4,-4 4,-3.6 -1,9 -2,4.7 -4,10.4 -4,12.8 l -1,4.2 5,0 c 5,0 6,-0.9 4,-5.5 -1,-5 0,-5.2 3,-0.6 l 3,3.9 4,-1.9 c 4,-2.1 6,-6.6 6,-11.4 0,-3 5,-8.5 8,-8.5 1,0 5,1.1 9,2.4 4,1.6 10,2.7 17,3.1 l 10,0.7 -1,-3.3 c -2,-7.7 -1,-12.6 7,-22.6 3,-4 5,-7 6,-13 1,-7 2,-7 3,-5 1,1 2,5 3,9 l 2,6 2,-3 c 2,-4 3,-3 3,3 0,3 0,5 -2,7 -1,1 -2,3 -2,4 0,2 2,1 4,-3 l 2,-3 0,4 c 0,5 -1,7.4 -5,10.6 l -2,2.3 2,-0.6 c 2,-0.3 3,-0.4 3,-0.1 0,0.3 -2,2.8 -4,5.5 l -5,5.1 0,25.8 c 0,22.1 0,26.4 -1,27.4 -1,1 -5,1 -9,2 -10,0 -11,1 -6,6 2,1 3,3 3,3 0,0 -2,0 -5,0 -2,-1 -6,-1 -8,-1 l -3,0 4,3 4,4 -6,0 c -7,0 -21,-2 -28,-4 -7,-2 -7,-1 -1,3 2,2 1,2 -2,2 -2,0 -7,-1 -10,-2 z" />
      <path  d="m 139,93.2 c 2,-1.3 4,-3.9 5,-5.6 2,-2.8 2,-3 1,-2.1 -1,0.6 -3,2 -4,3.2 -1,1.2 -3,2.7 -4,3.3 -1,0.6 0,-1.1 2,-3.7 4,-4.4 7,-9.9 7,-12.8 0,-0.7 -1,1 -3,3.8 -6,8 -7,8.6 -4,1.3 2,-3.5 3,-7.9 4,-9.9 0,-2.5 -1,-0.8 -5,6.5 -3,5.5 -7,12.6 -9,15.7 -3,3.1 -5,5.9 -5,6.2 0,0.9 12,-3.5 15,-5.9 z" />
      <path  d="m 85,95.6 c 7,-3.9 11,-8.1 10,-9 -1,-1.4 -10,0.2 -10,1.9 -1,1.2 0,1.4 2,0.9 l 4,-0.7 -4,2.3 c -4,2.1 -8,6.7 -6,6.7 0,0 2,-0.9 4,-2.1 z" />
      <path fill="#333333" d="m 117,68.7 c 5,-2.6 5,-4.8 -1,-7.3 -4,-1.5 -5,-1.7 -8,-0.8 -3,0.6 -5,1.7 -6,2.5 -2,1.5 -2,1.5 0,4.1 3,3.1 5,3.3 5,0.4 1,-3.5 3,-3.4 4,0.1 1,3.6 1,3.7 6,1 z" />
      <path d="m 46,67.4 c 2,-3.5 3,-7.9 1,-10 -1,-1.8 -2,-1.7 -4,1.7 -1,2.8 -2,4.5 -1,7.2 0,4 2,4.3 4,1.1 z" />
      <path  d="m 39,59.2 c 2,-3.6 2,-4.8 1,-6.9 -2,-3.5 -2,-3.2 -5,1.4 -2,4.5 -2,5 -1,8.5 1,3.4 3,2.5 5,-3 z" />
      <path  d="m 128,43.3 c -3,-3 -4,-4 -4,-8.3 0,-5 0,-6 5,-10 6,-6 7,-8 8,-15 0,-3 1,-5 1,-5 1,0 2,2 3,5 3,6 3,6 5,5 3,-3 1,2 -2,7 -7,8 -9,12 -9,18.8 1,5.7 1,5.9 -2,5.9 -1,0 -3,-1.4 -5,-3.4 z" />
    </g>
<g  style="fill:#ffff00;fill-opacity:1;fill-rule:evenodd;stroke:#000000;stroke-width:3;stroke-linecap:butt;stroke-linejoin:miter;stroke-miterlimit:4;stroke-opacity:1;stroke-dasharray:none" id="armed"><path d="M 69,97.7 C 70,95.8 70,91 69,87 67,73.1 69,61 75,45.2 c 1,-4.4 -5,4.3 -8,10.8 -5,9.5 -6,20.7 -5,34.2 1,5.5 2,10.8 2,10.8 0,1 1,1 3,1 1,-1 2,-2 2,-4.3 z" />
      <path d="M 80,94.7 C 85,87.4 87,73 84,67.2 l -2,-3 0,5.3 c 0,6 -3,14.8 -8,21.6 -1,2.5 -3,5.6 -3,7 0,2.9 0,2.9 3,1.2 2,-0.7 5,-2.8 6,-4.6 z" />
      </g></svg>
