<?xml version="1.0" encoding="UTF-8" standalone="no"?>
<svg
   id="svg941"
   version="1.1"
   height="262.49094"
   width="662.50452"
   sodipodi:docname="eagle-natural.svg"
   inkscape:version="1.2.2 (732a01da63, 2022-12-09)"
   xmlns:inkscape="http://www.inkscape.org/namespaces/inkscape"
   xmlns:sodipodi="http://sodipodi.sourceforge.net/DTD/sodipodi-0.dtd"
   xmlns="http://www.w3.org/2000/svg"
   xmlns:svg="http://www.w3.org/2000/svg"
   xmlns:rdf="http://www.w3.org/1999/02/22-rdf-syntax-ns#"
   xmlns:cc="http://creativecommons.org/ns#"
   xmlns:dc="http://purl.org/dc/elements/1.1/">
  <defs
     id="defs123596">
    <inkscape:path-effect
       effect="bspline"
       id="path-effect125740"
       is_visible="true"
       lpeversion="1"
       weight="33.333333"
       steps="2"
       helper_size="0"
       apply_no_weight="true"
       apply_with_weight="true"
       only_selected="false" />
    <inkscape:path-effect
       effect="bspline"
       id="path-effect125736"
       is_visible="true"
       lpeversion="1"
       weight="33.333333"
       steps="2"
       helper_size="0"
       apply_no_weight="true"
       apply_with_weight="true"
       only_selected="false" />
  </defs>
  <sodipodi:namedview
     id="namedview123594"
     pagecolor="#ffffff"
     bordercolor="#999999"
     borderopacity="1"
     inkscape:showpageshadow="0"
     inkscape:pageopacity="0"
     inkscape:pagecheckerboard="0"
     inkscape:deskcolor="#d1d1d1"
     showgrid="false"
     inkscape:zoom="1.9758356"
     inkscape:cx="245.21271"
     inkscape:cy="105.52497"
     inkscape:window-width="1920"
     inkscape:window-height="991"
     inkscape:window-x="-9"
     inkscape:window-y="-9"
     inkscape:window-maximized="1"
     inkscape:current-layer="svg941" />
  <metadata
     id="metadata947">
    <rdf:RDF>
      <cc:Work
         rdf:about="">
        <dc:format>image/svg+xml</dc:format>
        <dc:type
           rdf:resource="http://purl.org/dc/dcmitype/StillImage" />
        <dc:title />
        <dc:creator>
          <cc:Agent>
            <dc:title>https://commons.wikimedia.org/wiki/User:Zscout370</dc:title>
          </cc:Agent>
        </dc:creator>
      </cc:Work>
    </rdf:RDF>
  </metadata>
  <g
     transform="matrix(0.8160786,0,0,0.8160786,-1047.9369,-47.920256)"
     style="fill:#ffff00;stroke:#000000;stroke-width:2.25;stroke-linecap:round;stroke-linejoin:round"
     id="g939">
    <path
       style="fill:#ffff00;fill-rule:evenodd;stroke:#000000;stroke-width:0.5;stroke-linecap:square;stroke-miterlimit:4.3;paint-order:fill markers stroke"
       id="path909"
       d="m 1916.4245,168.3344 c 0,0 86.002,-33.7059 94.3348,-40.6559 3.7896,4.1698 -34.4764,46.5633 -108.7317,62.20021 67.4357,-14.59451 125.0235,-60.46291 136.7681,-59.07291 3.4099,0.695 2.6504,44.8258 -151.9226,83.04937 106.837,-25.7142 168.97,-72.97227 168.2124,-67.75997 0.7576,1.0424 -10.6073,37.18102 -104.1847,65.32743 26.1416,-5.56058 96.9873,-45.17323 96.2297,-37.52833 2.2726,3.1273 -68.573,86.52351 -196.6266,59.42072 102.2917,24.32357 168.5902,-34.40188 178.0622,-33.35938 1.8948,0.34745 -18.944,51.42791 -147.7533,54.55543 61.7552,-5.90674 43.9465,-0.34821 43.9465,-0.34821 0,0 -36.3712,26.0614 -80.3176,8.34116 34.4763,8.68776 38.2639,9.03426 39.0216,11.81349 -2.2727,3.47403 -30.6869,8.68775 -57.9638,-4.86543 21.9723,8.33946 41.6738,9.73086 42.0517,12.85838 -0.3779,1.04131 -14.3951,8.33946 -26.8972,3.12752 -12.5022,-5.21372 -127.6758,-70.19285 -127.6758,-70.19285 L 1909.227,165.902 Z" />
    <path
       style="fill:#ff6600;fill-rule:evenodd;stroke:#000000;stroke-width:0.5;stroke-linecap:square;stroke-miterlimit:4.3;paint-order:fill markers stroke"
       id="path911"
       d="m 1685.7126,344.10525 c -17.257,0 -17.7332,14.08503 -17.7332,14.08503 0,0 -1.4243,1.01708 -0.4742,7.84393 2.8489,-4.64879 4.2752,-6.10084 4.2752,-6.10084 1.9004,0.29114 9.8158,2.46912 22.3236,-6.53401 -11.4008,10.89006 -4.5906,14.95666 -4.5906,14.95666 0,0 -2.6918,8.56817 6.0151,10.31126 -2.6902,-3.48619 -1.1071,-6.53572 -1.1071,-6.53572 0,0 12.1904,-1.1609 11.399,-14.81104 0.476,12.34193 7.7585,15.39145 7.7585,15.39145 0,0 0,6.82507 7.9154,7.40727 -4.2731,-3.48619 -3.3249,-8.85922 -3.3249,-8.85922 0,0 10.2919,-6.82508 1.5832,-18.44277 5.2252,-2.76026 9.5003,-10.45509 9.5003,-10.45509 0,0 -7.1238,-2.76018 -10.4487,-5.08199 -1.585,-3.05131 -0.1586,-19.75098 -0.1586,-19.75098 l -4.2752,-21.6379 -12.1923,33.69227 c 0.4741,-4.79271 0.7916,14.52169 -16.4655,14.52169 z" />
    <path
       style="fill:#ffff00;fill-rule:evenodd;stroke:#000000;stroke-width:0.5;stroke-linecap:square;stroke-miterlimit:4.3;paint-order:fill markers stroke"
       id="path913"
       d="m 1770.9438,295.51356 c 0.3778,0.3483 12.8818,13.20659 25.0044,12.51008 4.5451,-3.47411 -9.4721,-11.11868 -9.4721,-12.85659 4.9249,4.17054 25.7619,20.50124 39.0234,14.59442 5.3027,-6.94976 -9.472,-5.90675 -25.7637,-24.67179 11.3649,6.94985 39.781,22.23916 53.0406,16.33241 5.6843,-5.56023 -29.5514,-22.93575 -41.296,-36.48715 l -30.307,-14.2462 -41.2961,30.92691 z" />
    <path
       style="fill:#ffff00;fill-rule:evenodd;stroke:#000000;stroke-width:0.5;stroke-linecap:square;stroke-miterlimit:4.3;paint-order:fill markers stroke"
       id="path915"
       d="m 1724.3449,189.87853 c 0,0 14.0173,-7.64465 70.0881,-3.82232 6.0622,0.6948 38.2641,-10.07701 48.4936,-13.20441 16.2898,-2.7799 68.1933,-13.2046 82.2123,-22.9343 9.8499,-1.0423 -2.6542,16.6795 -15.1543,20.8492 -13.2617,5.55993 -61.3755,20.84932 -78.4249,18.76439 20.4592,0.34762 9.0943,15.63683 -25.0042,8.33963 16.2917,8.33963 10.2295,9.72958 10.2295,9.72958 0,0 -28.792,1.38995 -36.3692,-4.5173 19.3219,6.60231 11.3649,9.03461 11.3649,9.03461 0,0 -19.6996,1.73739 -28.7939,-2.08494 14.0173,3.82233 6.8197,6.25487 6.8197,6.25487 0,0 -11.3649,1.7374 -20.8369,-1.38995 -9.4702,-3.12735 -23.8671,-25.01906 -24.6247,-25.01906 z" />
    <path
       style="fill:#ff6600;fill-rule:evenodd;stroke:#000000;stroke-width:0.5;stroke-linecap:square;stroke-miterlimit:4.3;paint-order:fill markers stroke"
       id="path917"
       d="m 1746.8274,302.71636 2.0591,33.98162 c 0,0 -1.1089,1.7431 -2.0591,2.76018 -0.9503,1.01537 -26.2833,-3.63172 -22.7998,14.08502 0,7.26175 0.1587,9.14866 5.5427,13.21527 -1.4263,-4.79263 -0.9502,-8.13151 -0.9502,-8.13151 0,0 7.1238,3.92108 14.0909,-6.82507 -4.7493,10.60062 -1.4264,14.37617 -0.3174,14.66722 1.1089,1.88863 -1.8986,10.4551 7.5999,10.30957 -3.6403,-3.19514 -1.8986,-7.84224 -1.8986,-7.84224 0,0 9.9746,-1.45025 6.491,-18.00609 3.6422,-3.34067 5.0666,-0.14554 5.0666,-0.14554 0,0 1.1071,9.8746 9.8159,7.84215 3.9596,2.03245 -0.6328,7.40548 -0.6328,7.40548 0,0 6.3322,0.14562 8.2327,-4.79261 1.9005,-4.93645 4.1164,-13.79568 -6.3342,-17.4257 -1.2657,-3.4844 4.1183,-3.77555 4.1183,-3.77555 0,0 6.6496,2.03245 8.5482,5.08207 1.9005,3.04952 1.2676,-7.98607 -6.9652,-9.14867 -10.1332,-0.29105 -10.766,-2.17797 -10.766,-2.61294 0,-0.43658 -1.7418,-24.68735 -2.5333,-31.65804 z" />
    <path
       style="fill:#ffff00;fill-rule:evenodd;stroke:#000000;stroke-width:0.5;stroke-linecap:square;stroke-miterlimit:4.3;paint-order:fill markers stroke"
       id="path919"
       d="m 1782.0688,331.67486 c 0.1246,-1.55767 -17.2854,-23.05865 -12.8687,-25.83787 4.4148,0.83336 11.6558,10.6127 17.5215,7.4384 -1.7777,-3.81186 -7.018,-1.6651 -12.9687,-11.4236 -5.9488,-11.0321 -6.8178,-27.59314 -27.6548,-45.65827 13.4902,19.11682 44.092,30.32218 45.388,24.74808 1.2959,-5.5741 -26.9464,-26.65227 -25.4993,-31.73254 5.6163,10.43255 33.9738,33.6784 54.8674,31.75338 1.432,-4.47555 -17.1097,-13.50811 -21.8816,-21.94283 -13.3466,-8.22345 -49.0642,-36.46197 -49.7801,-43.01104 -12.9971,-17.38657 -21.1108,-22.64631 -24.8891,-24.64882 -1.4603,-1.57758 -1.8267,-3.08576 -2.112,-4.04458 -8.0684,-17.44597 2.6183,-23.11107 8.8732,-23.94877 5.1478,-0.5247 6.6421,0.1821 10.3467,-1.4632 -4.3866,-1.5739 -8.7712,-3.0458 -13.1559,-4.6197 5.7184,3.8472 20.3251,0.4601 17.1589,11.5414 6.4041,-2.2348 20.0303,-17.104 -15.4436,-20.4597 -11.5443,-12.1472 -59.0084,-19.1282 -70.8889,33.8879 0.9483,0.74329 1.4451,1.35406 4.464,3.42189 -14.9883,-6.66338 -55.421,-11.80179 -69.9918,-13.96119 -39.3635,-10.4168 -80.2441,-35.5199 -84.1738,-32.4327 -5.256,2.1397 23.7834,26.9194 22.274,27.4679 -25.1795,-13.4657 -48.1819,-23.0059 -69.5854,-31.6873 -15.0574,-5.1625 -30.1389,-17.182 -31.8019,-14.8955 -5.5416,10.5292 24.1406,36.9961 29.6618,40.1095 5.5229,2.9782 48.9472,21.45339 48.3069,21.68405 -65.4052,-27.22875 -76.3711,-32.16505 -79.6532,-35.30445 -5.7647,-1.1909 -19.8074,-18.5813 -23.7209,-17.463 -2.1425,1.9306 2.1546,29.4088 33.3648,41.7434 5.0871,3.4006 66.9003,23.73911 66.295,25.33371 -0.1512,0.39848 -70.7982,-26.74381 -73.5424,-27.71421 -13.6209,-4.8989 -30.3342,-22.0706 -33.4588,-20.1396 -2.9822,1.7522 7.7047,20.3384 21.4683,26.1678 7.2143,2.92003 34.8868,15.4911 59.8185,23.49212 1.5912,0.52777 -44.8145,-16.14069 -67.1258,-24.69212 -10.1162,-5.1497 -14.8801,-11.5686 -16.421,-10.1875 -2.2793,1.3809 3.6824,28.83705 75.3802,44.32955 1.889,0.73742 25.2378,-5.0733 24.0838,-4.30262 -0.2887,0.19273 -23.1857,4.76472 -25.4151,4.60848 -1.9841,-0.27796 -14.528,1.36205 -14.7549,1.95828 -0.7579,1.85724 4.5448,11.6882 41.5641,9.63807 4.7326,-0.26095 30.4153,-8.57838 28.2576,-6.78919 -1.0789,0.89511 -34.9728,10.99672 -37.5541,11.196 -2.242,0.29055 -14.1489,1.43257 -14.5891,2.59415 -0.5376,1.58422 8.8133,8.58101 28.6936,9.70202 17.602,0.85769 51.0489,-9.86473 50.378,-9.16958 -0.6711,0.69506 -32.2438,10.61814 -33.07,11.22287 -1.1424,0.59258 -12.7038,1.16779 -13.1096,1.98219 -0.9421,2.02556 16.6774,17.13812 68.7864,1.01018 -5.2348,6.48546 -30.4929,10.92119 -30.4566,12.08898 -0.1171,0.84731 5.5647,5.88251 14.3953,7.68455 4.415,0.90098 10.4601,0.71726 15.9819,-0.0832 9.918,-1.82109 20.3704,-5.41989 33.6508,-16.67721 1.587,3.53297 -33.1747,19.66779 -31.5425,21.20643 7.5376,6.41103 32.576,-0.82647 34.2157,-1.66681 1.6416,-0.84212 48.2158,-24.93001 48.0552,-27.71791 0.7236,3.57278 -60.0454,33.85855 -59.3899,35.10094 3.901,5.70916 24.6605,-0.29982 25.6522,-0.82477 0.99,-0.52334 26.493,-13.15981 27.1919,-13.53235 0.6972,-0.37253 -29.9726,16.46408 -27.2409,19.02666 -1.3205,10.93336 47.8985,-7.54581 51.756,-9.84686 1.9288,-1.15053 -23.6442,10.31296 -23.7122,15.7588 8.2348,12.77001 34.603,8.71897 38.6702,5.91023 2.0346,-1.40517 -2.3935,9.4865 -0.9672,8.49715 0.4969,-0.20446 5.7354,-5.88599 7.7492,-9.99767 -0.6424,3.56767 -3.5327,9.18847 -5.2197,15.6376 -1.6888,6.44906 -2.1725,13.72636 -4.4903,21.45768 -0.531,3.39604 16.2482,-6.63965 13.8112,-30.63058 1.4358,12.47887 -5.2989,35.81309 -3.5365,37.02596 3.5252,2.42575 13.2711,-11.62118 14.2553,-21.11984 2.8942,4.79781 8.9677,14.81283 14.193,17.11728 -0.5686,-7.25825 0.1001,-6.92551 -2.2518,-14.05908 1.3563,-9.47085 1.5453,-22.57869 1.8739,-37.37936 14.1987,24.94727 19.8622,35.48206 15.8951,54.58681 4.2221,1.61483 10.9662,-13.33485 10.4222,-21.02978 5.4218,21.38147 28.8241,24.58699 29.1963,23.9649 z" />
    <path
       style="fill:#ffff00;fill-rule:evenodd;stroke:#000000;stroke-width:0.5;stroke-linecap:square;stroke-miterlimit:4.3;paint-order:fill markers stroke"
       id="path921"
       d="m 1545.5749,173.2876 c 0,0 -9.6643,6.6972 -21.6907,6.3034 3.0066,11.03065 27.9187,2.56072 27.9187,2.56072 0,0 -12.0265,12.21256 -20.6168,14.18224 5.1542,3.93953 26.845,2.56081 30.4966,0.59104 3.6499,-1.96985 10.0935,-9.65192 10.0935,-9.65192 0,0 -22.3356,23.63718 -25.5569,23.44036 -0.4296,2.75763 23.4091,1.7727 28.3491,-2.36373 4.9382,-4.1366 17.395,-10.2428 17.395,-10.2428 0,0 -32.6439,20.87948 -34.1477,20.87948 12.2416,2.95478 36.7245,-3.54564 52.4022,-12.40955 -23.1946,14.18242 -25.3406,16.74297 -37.1533,21.47044 10.5243,2.16692 15.8913,8.66734 51.5427,-5.51532 20.4024,-8.86373 31.9978,-25.01608 31.9978,-25.01608 -12.6703,15.5613 -32.6438,28.75973 -54.7616,41.75963 -1.2903,2.3634 23.6214,12.01448 55.4058,-18.31927" />
    <path
       style="fill:#ffff00;fill-rule:evenodd;stroke:#000000;stroke-width:0.5;stroke-linecap:square;stroke-miterlimit:4.3;paint-order:fill markers stroke"
       id="path923"
       d="m 1718.2413,239.07802 c 0,0 2.1478,9.25779 10.7376,16.34967 8.5918,7.09019 9.236,13.98459 9.236,13.98459" />
    <path
       style="fill:#ffff00;fill-rule:evenodd;stroke:#000000;stroke-width:0.5;stroke-linecap:square;stroke-miterlimit:4.3;paint-order:fill markers stroke"
       id="path925"
       d="m 1713.9473,178.80314 c 0,0 3.0056,8.27287 11.8107,13.59138 9.0206,5.31834 22.5523,22.06139 23.6253,25.01599 1.039,3.5761 6.2265,29.35026 5.7978,32.10695" />
    <path
       style="fill:#ffff00;fill-rule:evenodd;stroke:#000000;stroke-width:0.5;stroke-linecap:square;stroke-miterlimit:4.3;paint-order:fill markers stroke"
       id="path927"
       d="m 1659.1838,191.60649 c 0.6441,3.15159 -12.6722,19.10695 5.5823,37.81968 -16.5373,18.51456 -16.5354,20.87966 -16.5354,20.87966 0,0 9.2339,4.72679 25.7712,-8.27363 27.2732,30.72933 18.1847,44.79191 18.1847,44.79191" />
    <path
       style="fill:#ffff00;fill-rule:evenodd;stroke:#000000;stroke-width:0.5;stroke-linecap:square;stroke-miterlimit:4.3;paint-order:fill markers stroke"
       id="path929"
       d="m 1690.0141,265.13074 c 0,0 -2.5125,-3.30078 1.9666,-15.62714 4.0332,4.45649 8.518,5.40773 10.4846,7.21148 1.9646,1.80373 22.5579,4.53796 23.867,17.16057" />
    <path
       style="fill:#ffffff;fill-rule:evenodd;stroke:#000000;stroke-width:0.5;stroke-linecap:square;stroke-miterlimit:4.3;paint-order:fill markers stroke"
       id="path931"
       d="m 1714.2231,149.4322 c 0,-0.9273 -4.1466,-9.0883 -19.6165,1.1129 8.2913,0.4635 16.4806,4.8223 19.6165,-1.1129 z" />
    <path
       style="fill:#ffff00;fill-rule:evenodd;stroke:#000000;stroke-width:0.5;stroke-linecap:square;stroke-miterlimit:4.3;paint-order:fill markers stroke"
       id="path933"
       d="m 1861.8688,186.75118 c 0.7575,0.34736 46.2209,9.38214 61.3755,4.86484 -19.3219,23.62911 -57.9657,7.64465 -57.9657,7.64465 18.9421,5.21228 19.7016,4.86492 25.7618,9.72958 1.8948,4.51731 -34.8541,2.43238 -46.9785,-3.82233 33.7189,9.72967 34.4765,9.0347 35.6136,12.85702 1.5171,5.21228 -55.3132,-1.39003 -60.2382,-8.33963 15.1545,10.7721 23.4893,12.85711 31.8241,17.72177 -10.2295,4.16995 -29.1718,8.33895 -64.0278,-14.24689 45.8412,38.22336 87.1374,35.79073 93.5792,42.74049 -15.912,21.54435 -77.6672,-12.85651 -106.0814,-30.23117 -28.4141,-17.37424 62.133,42.04645 70.4697,41.00335 -4.1692,5.90674 -34.0985,0.6948 -35.9934,-2.08442" />
    <path
       style="fill:#ffff00;stroke:#000000"
       id="path935"
       d="m 1873.6134,226.71211 c -5.3028,0.69497 -21.2148,0.69497 -23.4874,0.34744" />
    <path
       style="fill:#ffff00;fill-rule:evenodd;stroke:#000000;stroke-width:0.5;stroke-linecap:square;stroke-miterlimit:4.3;paint-order:fill markers stroke"
       id="path937"
       d="m 1532.2598,166.9845 c 0,0 34.5765,16.74293 49.1793,15.56111 -3.8651,3.34857 -9.6647,4.72747 -9.6647,4.72747 3.6517,1.37889 13.7452,6.30334 28.9941,3.15159 -3.6516,3.34857 -8.3763,7.09137 -8.3763,7.09137 0,0 13.101,4.53032 27.9192,-2.56089 -4.5093,5.12127 -7.088,8.86407 -7.088,8.86407 l 10.309,0.59087" />
  </g>
  <path
     style="fill:#ffffff;fill-rule:evenodd;stroke:#000000;stroke-width:0.326431;stroke-linecap:square;stroke-miterlimit:4.3;stroke-dasharray:none;paint-order:fill markers stroke"
     d="m 363.85517,73.157409 c 0,0 -1.39982,7.278034 -1.39982,7.278034"
     id="path125734"
     inkscape:original-d="m 363.85517,73.157409 -1.39982,7.278034"
     inkscape:path-effect="#path-effect125736" />
  <path
     style="fill:#ffffff;fill-rule:evenodd;stroke:#000000;stroke-width:0.326431;stroke-linecap:square;stroke-miterlimit:4.3;stroke-dasharray:none;paint-order:fill markers stroke"
     d="m 362.45535,80.435443 c 0,0 -0.55395,5.690774 -0.55395,5.690774"
     id="path125738"
     inkscape:original-d="m 362.45535,80.435443 -0.55395,5.690774"
     inkscape:path-effect="#path-effect125740" />
  <path
     style="fill:#ff6600;fill-rule:evenodd;stroke:#000000;stroke-width:0.0206514;stroke-linecap:square;stroke-miterlimit:4.3;stroke-dasharray:none;paint-order:fill markers stroke"
     d="m 363.98752,73.153172 c -0.37063,0.08434 -0.26071,0.568 -0.37098,0.845824 -0.39859,2.082606 -0.80396,4.164204 -1.17919,6.251106 0.0478,0.382302 0.54839,0.347251 0.81858,0.502527 1.17726,0.397895 2.33827,0.855409 3.53378,1.193436 2.36487,0.489391 4.79,0.657284 7.0355,1.562292 1.23501,0.49484 2.4146,1.406981 2.77918,2.741564 0.25838,0.918583 0.18485,1.895486 0.012,2.834941 -0.0606,0.232193 -0.15806,0.644328 0.20863,0.652921 1.77257,-0.758385 3.31019,-2.027288 4.51632,-3.523554 1.07417,-1.329577 1.85843,-3.040613 1.60541,-4.783524 -0.22011,-1.711099 -1.47641,-3.073518 -2.85611,-4.002536 -2.40774,-1.604113 -5.235,-2.420617 -8.02682,-3.065081 -2.66025,-0.582911 -5.36413,-0.973585 -8.07629,-1.209916 z"
     id="path125742" />
  <path
     style="fill:#ff6600;fill-rule:evenodd;stroke:#000000;stroke-width:0.0206514;stroke-linecap:square;stroke-miterlimit:4.3;stroke-dasharray:none;paint-order:fill markers stroke"
     d="m 362.59445,80.579134 c -0.36499,0.08529 -0.23069,0.556753 -0.3043,0.831941 -0.14417,1.471983 -0.28739,2.951108 -0.42707,4.419216 0.0719,0.40454 0.54816,0.127146 0.7969,0.0699 2.4723,-0.806039 5.11896,-0.511734 7.68977,-0.827037 0.78272,-0.139271 1.58752,-0.285486 2.30837,-0.629124 0.24202,-0.167952 0.053,-0.4918 -0.1926,-0.523246 -2.08405,-0.73011 -4.15577,-1.503584 -6.27147,-2.13896 -1.17036,-0.27232 -2.33267,-0.608593 -3.4075,-1.155092 -0.0613,-0.02426 -0.12465,-0.05075 -0.1921,-0.04759 z"
     id="path125744" />
  <ellipse
     cx="345.43564"
     cy="73.670341"
     rx="2.4302917"
     ry="2.4479384"
     stroke="#000000"
     stroke-linecap="round"
     stroke-linejoin="round"
     stroke-width="1.70192"
     id="ellipse78067-4"
     style="display:inline;fill:#d45500;stroke-width:0.180142;stroke-dasharray:none" />
  <ellipse
     cx="345.43564"
     cy="73.670341"
     rx="1.1532842"
     ry="1.1616584"
     stroke="#000000"
     stroke-linecap="round"
     stroke-linejoin="round"
     stroke-width="1.53294"
     id="ellipse78067"
     style="display:inline" />
  <ellipse
     cx="346.33612"
     cy="72.684975"
     rx="0.55313265"
     ry="0.52569157"
     stroke="#000000"
     stroke-linecap="round"
     stroke-linejoin="round"
     stroke-width="2.5"
     id="ellipse78067-5"
     style="display:inline;fill:#ffffff;stroke-width:0.114267;stroke-dasharray:none" />
  <g
     fill="#fcdd07"
     id="g3760"
     transform="matrix(0.07148229,-0.01478278,0.01305015,0.0768628,299.13501,19.385922)"
     style="display:inline">
    <g
       class="PlaceCharge"
       transform="matrix(1.4545455,0,0,1.4545455,100,380.95273)"
       id="g3758">
      <title
         id="title3494">a crown</title>
      <g
         id="g3756">
        <g
           id="g3506" />
        <g
           id="g3752"
           transform="translate(-70.802237,3.0783581)">
          <g
             id="g3512">
            <path
               d="m 270.091,101.017 c -35.399,50.951 -94.262,33.006 -119.968,9.027 -14.6,32.932 -47.762,74.314 -107.268,30.628 l -4.194,0.777 40.428,115.758 c 59.944,-37.979 136.882,-42.561 187.863,-42.918 h 16.096 c 50.98,0.357 127.919,4.939 187.863,42.918 l 40.428,-115.758 -4.194,-0.776 c -59.506,43.685 -92.668,2.303 -107.268,-30.629 -25.706,23.979 -84.569,41.924 -119.968,-9.027 z"
               id="path3508" />
            <path
               d="m 270.091,101.017 c -35.399,50.951 -94.262,33.006 -119.968,9.027 -14.6,32.932 -47.762,74.314 -107.268,30.628 l -4.194,0.777 40.428,115.758 c 59.944,-37.979 136.882,-42.561 187.863,-42.918 h 16.096 c 50.98,0.357 127.919,4.939 187.863,42.918 l 40.428,-115.758 -4.194,-0.776 c -59.506,43.685 -92.668,2.303 -107.268,-30.629 -25.706,23.979 -84.569,41.924 -119.968,-9.027 z"
               fill-opacity="0"
               stroke="#000000"
               stroke-width="1"
               id="path3510" />
          </g>
          <g
             id="g3518">
            <path
               d="m 275,212.079 c -79.768,0 -150.912,17.318 -197.253,44.385 v 1.657 l 4.404,10.958 C 128.543,243.473 197.716,227.273 275,227.273 c 78.125,0 147.924,16.637 194.317,42.727 l 4.771,-11.879 v -0.552 C 427.803,229.875 355.839,212.079 275,212.079 Z"
               id="path3514" />
            <path
               d="m 275,212.079 c -79.768,0 -150.912,17.318 -197.253,44.385 v 1.657 l 4.404,10.958 C 128.543,243.473 197.716,227.273 275,227.273 c 78.125,0 147.924,16.637 194.317,42.727 l 4.771,-11.879 v -0.552 C 427.803,229.875 355.839,212.079 275,212.079 Z"
               fill-opacity="0"
               stroke="#000000"
               stroke-width="1"
               id="path3516" />
          </g>
          <g
             id="g3524">
            <path
               d="m 273.954,139.807 c -90.966,0 -172.097,17.276 -224.943,44.274 v 1.654 l 5.022,10.931 c 52.904,-25.543 131.788,-41.703 219.921,-41.703 89.091,0 168.689,16.596 221.595,42.621 l 5.44,-11.849 v -0.551 C 448.206,157.56 366.141,139.807 273.954,139.807 Z"
               id="path3520" />
            <path
               d="m 273.954,139.807 c -90.966,0 -172.097,17.276 -224.943,44.274 v 1.654 l 5.022,10.931 c 52.904,-25.543 131.788,-41.703 219.921,-41.703 89.091,0 168.689,16.596 221.595,42.621 l 5.44,-11.849 v -0.551 C 448.206,157.56 366.141,139.807 273.954,139.807 Z"
               fill-opacity="0"
               stroke="#000000"
               stroke-width="1"
               id="path3522" />
          </g>
          <g
             id="g3530">
            <path
               d="m 276.854,107.83 c 16.858,14.741 53.114,51.363 123.377,6.733 25.284,66.35 82.281,49.474 111.533,27.693 l 13.824,-24.457 c 2.255,-17.325 9.686,-32.824 23.912,-45.926 -13.789,-9.64 -17.438,-2.912 -24.846,2.987 -2.378,-6.529 -7.003,-4.977 -11.022,-5.601 -16.307,10.717 -0.33,24.095 -0.934,40.886 l -4.483,0.747 c -2.977,-17.016 -11.319,-22.415 -20.176,-26.697 -1.432,4.045 -4.004,-1.017 -4.297,12.135 -7.472,-0.39 -5.896,3.028 -4.11,6.534 -11.059,-8.175 -12.066,-0.946 -16.259,1.402 0.54,8.44 4.128,13.531 9.643,16.501 -5.677,2.993 -8.164,6.441 -6.869,10.429 19.354,17.167 24.017,3.636 33.289,-0.264 3.469,0.754 5.656,2.309 5.151,5.545 -8.22,8.737 -68.756,52 -102.242,-36.172 -39.1,38.78 -78.201,37.598 -117.301,3.169 l 3.531,-9.774 c 14.748,15.499 27.317,18.17 39.034,15.835 4.086,-6.091 2.482,-13.353 -0.27,-17.155 10.613,-3.505 15.213,-9.091 17.229,-15.571 -3.188,-8.339 -8.335,-12.289 -15.075,-12.668 3.63,-8.333 -0.263,-12.978 -3.5,-17.946 -24.22,-5.097 -18.489,8.4 -36.342,15.571 l -4.957,1.145 c 7.17,-15.988 28.936,-16.253 22.324,-43.126 -6.014,-0.806 -9.136,-5.369 -19.615,-0.373 C 289.423,11.83 284.666,6.28 276.754,1.676 L 275,0.5 273.246,1.676 c -7.912,4.604 -12.669,10.154 -10.649,17.736 -10.479,-4.996 -13.601,-0.433 -19.615,0.373 -6.612,26.873 15.154,27.138 22.324,43.126 l -4.957,-1.145 c -17.853,-7.171 -12.122,-20.668 -36.342,-15.571 -3.237,4.968 -7.13,9.613 -3.5,17.946 -6.74,0.379 -11.887,4.329 -15.075,12.668 2.016,6.48 6.616,12.066 17.229,15.571 -2.752,3.802 -4.356,11.064 -0.27,17.155 11.717,2.335 24.286,-0.336 39.034,-15.835 l 3.531,9.774 c -39.1,34.429 -78.201,35.611 -117.301,-3.169 -33.486,88.172 -94.022,44.909 -102.242,36.172 -0.505,-3.236 1.682,-4.791 5.151,-5.545 9.272,3.9 13.935,17.431 33.289,0.264 1.295,-3.988 -1.192,-7.436 -6.869,-10.429 5.515,-2.97 9.103,-8.061 9.643,-16.501 -4.193,-2.348 -5.2,-9.577 -16.259,-1.402 1.786,-3.506 3.362,-6.924 -4.11,-6.534 -0.293,-13.152 -2.865,-8.09 -4.297,-12.135 -8.857,4.282 -17.199,9.681 -20.176,26.697 l -4.483,-0.747 C 36.698,93.354 52.675,79.976 36.368,69.259 32.349,69.883 27.724,68.331 25.346,74.86 17.938,68.961 14.289,62.233 0.5,71.873 c 14.226,13.102 21.657,28.601 23.912,45.926 l 13.824,24.457 c 29.252,21.781 86.249,38.657 111.533,-27.693 70.263,44.63 106.519,8.008 123.377,-6.733 z"
               id="path3526" />
            <path
               d="m 276.854,107.83 c 16.858,14.741 53.114,51.363 123.377,6.733 25.284,66.35 82.281,49.474 111.533,27.693 l 13.824,-24.457 c 2.255,-17.325 9.686,-32.824 23.912,-45.926 -13.789,-9.64 -17.438,-2.912 -24.846,2.987 -2.378,-6.529 -7.003,-4.977 -11.022,-5.601 -16.307,10.717 -0.33,24.095 -0.934,40.886 l -4.483,0.747 c -2.977,-17.016 -11.319,-22.415 -20.176,-26.697 -1.432,4.045 -4.004,-1.017 -4.297,12.135 -7.472,-0.39 -5.896,3.028 -4.11,6.534 -11.059,-8.175 -12.066,-0.946 -16.259,1.402 0.54,8.44 4.128,13.531 9.643,16.501 -5.677,2.993 -8.164,6.441 -6.869,10.429 19.354,17.167 24.017,3.636 33.289,-0.264 3.469,0.754 5.656,2.309 5.151,5.545 -8.22,8.737 -68.756,52 -102.242,-36.172 -39.1,38.78 -78.201,37.598 -117.301,3.169 l 3.531,-9.774 c 14.748,15.499 27.317,18.17 39.034,15.835 4.086,-6.091 2.482,-13.353 -0.27,-17.155 10.613,-3.505 15.213,-9.091 17.229,-15.571 -3.188,-8.339 -8.335,-12.289 -15.075,-12.668 3.63,-8.333 -0.263,-12.978 -3.5,-17.946 -24.22,-5.097 -18.489,8.4 -36.342,15.571 l -4.957,1.145 c 7.17,-15.988 28.936,-16.253 22.324,-43.126 -6.014,-0.806 -9.136,-5.369 -19.615,-0.373 C 289.423,11.83 284.666,6.28 276.754,1.676 L 275,0.5 273.246,1.676 c -7.912,4.604 -12.669,10.154 -10.649,17.736 -10.479,-4.996 -13.601,-0.433 -19.615,0.373 -6.612,26.873 15.154,27.138 22.324,43.126 l -4.957,-1.145 c -17.853,-7.171 -12.122,-20.668 -36.342,-15.571 -3.237,4.968 -7.13,9.613 -3.5,17.946 -6.74,0.379 -11.887,4.329 -15.075,12.668 2.016,6.48 6.616,12.066 17.229,15.571 -2.752,3.802 -4.356,11.064 -0.27,17.155 11.717,2.335 24.286,-0.336 39.034,-15.835 l 3.531,9.774 c -39.1,34.429 -78.201,35.611 -117.301,-3.169 -33.486,88.172 -94.022,44.909 -102.242,36.172 -0.505,-3.236 1.682,-4.791 5.151,-5.545 9.272,3.9 13.935,17.431 33.289,0.264 1.295,-3.988 -1.192,-7.436 -6.869,-10.429 5.515,-2.97 9.103,-8.061 9.643,-16.501 -4.193,-2.348 -5.2,-9.577 -16.259,-1.402 1.786,-3.506 3.362,-6.924 -4.11,-6.534 -0.293,-13.152 -2.865,-8.09 -4.297,-12.135 -8.857,4.282 -17.199,9.681 -20.176,26.697 l -4.483,-0.747 C 36.698,93.354 52.675,79.976 36.368,69.259 32.349,69.883 27.724,68.331 25.346,74.86 17.938,68.961 14.289,62.233 0.5,71.873 c 14.226,13.102 21.657,28.601 23.912,45.926 l 13.824,24.457 c 29.252,21.781 86.249,38.657 111.533,-27.693 70.263,44.63 106.519,8.008 123.377,-6.733 z"
               fill-opacity="0"
               stroke="#000000"
               stroke-width="1"
               id="path3528" />
          </g>
          <g
             id="g3544">
            <g
               id="g3536">
              <path
                 d="m 306.446,184.02 c 0,10.514 -14.079,19.038 -31.446,19.038 -17.367,0 -31.446,-8.524 -31.446,-19.038 0,-10.515 14.079,-19.039 31.446,-19.039 17.367,0 31.446,8.524 31.446,19.039 z"
                 id="path3532" />
              <path
                 d="m 306.446,184.02 c 0,10.514 -14.079,19.038 -31.446,19.038 -17.367,0 -31.446,-8.524 -31.446,-19.038 0,-10.515 14.079,-19.039 31.446,-19.039 17.367,0 31.446,8.524 31.446,19.039 z"
                 fill-opacity="0"
                 stroke="#000000"
                 stroke-width="0.932"
                 id="path3534" />
            </g>
            <g
               id="g3542">
              <path
                 d="m 299.885,184.02 c 0,7.691 -11.141,13.927 -24.885,13.927 -13.744,0 -24.885,-6.236 -24.885,-13.927 0,-7.692 11.141,-13.928 24.885,-13.928 13.744,0 24.885,6.236 24.885,13.928 z"
                 fill="#ed1c24"
                 id="path3538" />
              <path
                 d="m 299.885,184.02 c 0,7.691 -11.141,13.927 -24.885,13.927 -13.744,0 -24.885,-6.236 -24.885,-13.927 0,-7.692 11.141,-13.928 24.885,-13.928 13.744,0 24.885,6.236 24.885,13.928 z"
                 fill-opacity="0"
                 stroke="#000000"
                 stroke-width="0.97"
                 id="path3540" />
            </g>
          </g>
          <g
             id="g3556">
            <path
               d="m 370.384,187.427 c 0,8.633 -6.177,15.631 -13.796,15.631 -7.619,0 -13.795,-6.998 -13.795,-15.631 0,-8.633 6.176,-15.632 13.795,-15.632 7.619,0 13.796,6.999 13.796,15.632 z"
               fill-opacity="0"
               stroke="#000000"
               stroke-width="0.939"
               stroke-linecap="round"
               stroke-linejoin="round"
               id="path3546" />
            <path
               d="m 371.55,187.427 c 0,8.633 -6.038,15.631 -13.485,15.631 -7.447,0 -13.484,-6.998 -13.484,-15.631 0,-8.633 6.037,-15.632 13.484,-15.632 7.447,0 13.485,6.999 13.485,15.632 z"
               fill-opacity="0"
               stroke="#000000"
               stroke-width="0.929"
               stroke-linecap="round"
               stroke-linejoin="round"
               id="path3548" />
            <g
               id="g3554">
              <path
                 d="m 370.306,187.427 c 0,7.467 -5.341,13.52 -11.93,13.52 -6.589,0 -11.93,-6.053 -11.93,-13.52 0,-7.468 5.341,-13.521 11.93,-13.521 6.589,0 11.93,6.053 11.93,13.521 z"
                 fill="#e7e7e7"
                 id="path3550" />
              <path
                 d="m 370.306,187.427 c 0,7.467 -5.341,13.52 -11.93,13.52 -6.589,0 -11.93,-6.053 -11.93,-13.52 0,-7.468 5.341,-13.521 11.93,-13.521 6.589,0 11.93,6.053 11.93,13.521 z"
                 fill-opacity="0"
                 stroke="#000000"
                 stroke-width="0.939"
                 stroke-linecap="round"
                 stroke-linejoin="round"
                 id="path3552" />
            </g>
          </g>
          <g
             id="g3568">
            <path
               d="m 179.617,187.427 c 0,8.633 6.176,15.631 13.795,15.631 7.619,0 13.796,-6.998 13.796,-15.631 0,-8.633 -6.177,-15.632 -13.796,-15.632 -7.619,0 -13.795,6.999 -13.795,15.632 z"
               fill-opacity="0"
               stroke="#000000"
               stroke-width="0.939"
               stroke-linecap="round"
               stroke-linejoin="round"
               id="path3558" />
            <path
               d="m 178.451,187.427 c 0,8.633 6.037,15.631 13.485,15.631 7.447,0 13.484,-6.998 13.484,-15.631 0,-8.633 -6.037,-15.632 -13.484,-15.632 -7.448,0 -13.485,6.999 -13.485,15.632 z"
               fill-opacity="0"
               stroke="#000000"
               stroke-width="0.929"
               stroke-linecap="round"
               stroke-linejoin="round"
               id="path3560" />
            <g
               id="g3566">
              <path
                 d="m 179.695,187.427 c 0,7.467 5.341,13.52 11.93,13.52 6.588,0 11.93,-6.053 11.93,-13.52 0,-7.468 -5.342,-13.521 -11.93,-13.521 -6.589,0 -11.93,6.053 -11.93,13.521 z"
                 fill="#e7e7e7"
                 id="path3562" />
              <path
                 d="m 179.695,187.427 c 0,7.467 5.341,13.52 11.93,13.52 6.588,0 11.93,-6.053 11.93,-13.52 0,-7.468 -5.342,-13.521 -11.93,-13.521 -6.589,0 -11.93,6.053 -11.93,13.521 z"
                 fill-opacity="0"
                 stroke="#000000"
                 stroke-width="0.939"
                 stroke-linecap="round"
                 stroke-linejoin="round"
                 id="path3564" />
            </g>
          </g>
          <g
             id="g3582">
            <path
               d="m 149.969,196.573 -22.094,-11.73 -1.416,0.283 21.073,11.935 z"
               fill-opacity="0"
               stroke="#000000"
               stroke-width="0.985"
               stroke-linecap="round"
               stroke-linejoin="round"
               id="path3570" />
            <path
               d="m 149.969,196.573 -22.094,20.574 -1.416,0.283 21.073,-20.369 z"
               fill-opacity="0"
               stroke="#000000"
               stroke-width="0.985"
               stroke-linecap="round"
               stroke-linejoin="round"
               id="path3572" />
            <path
               d="M 126.427,217.381 106.584,205.67 126.382,185.224"
               fill-opacity="0"
               stroke="#000000"
               stroke-width="0.985"
               stroke-linecap="round"
               stroke-linejoin="round"
               id="path3574" />
            <g
               id="g3580">
              <path
                 d="m 142.055,198.323 -15.854,15.68 -15.622,-9.464 15.699,-15.401 z"
                 fill="#008f4c"
                 id="path3576" />
              <path
                 d="m 142.055,198.323 -15.854,15.68 -15.622,-9.464 15.699,-15.401 z"
                 fill-opacity="0"
                 stroke="#000000"
                 stroke-width="0.985"
                 stroke-linecap="round"
                 stroke-linejoin="round"
                 id="path3578" />
            </g>
          </g>
          <path
             d="m 400.031,196.573 22.095,-11.73 1.415,0.283 -21.073,11.935 z"
             fill-opacity="0"
             stroke="#000000"
             stroke-width="1"
             stroke-linecap="round"
             stroke-linejoin="round"
             id="path3584" />
          <path
             d="m 400.031,196.573 22.095,20.574 1.415,0.283 -21.073,-20.369 z"
             fill-opacity="0"
             stroke="#000000"
             stroke-width="1"
             stroke-linecap="round"
             stroke-linejoin="round"
             id="path3586" />
          <path
             d="M 423.573,217.381 443.416,205.67 423.618,185.224"
             fill-opacity="0"
             stroke="#000000"
             stroke-width="1"
             stroke-linecap="round"
             stroke-linejoin="round"
             id="path3588" />
          <g
             id="g3594">
            <path
               d="m 407.945,198.323 15.854,15.68 15.622,-9.464 -15.699,-15.401 z"
               fill="#008f4c"
               id="path3590" />
            <path
               d="m 407.945,198.323 15.854,15.68 15.622,-9.464 -15.699,-15.401 z"
               fill-opacity="0"
               stroke="#000000"
               stroke-width="1"
               stroke-linecap="round"
               stroke-linejoin="round"
               id="path3592" />
          </g>
          <g
             id="g3600">
            <path
               d="m 45.5,119.3 c 5.726,-0.358 10.821,-0.399 21,-3"
               fill-opacity="0"
               stroke="#000000"
               stroke-width="0.985"
               id="path3596" />
            <path
               d="m 504.5,119.3 c -5.726,-0.358 -10.821,-0.399 -21,-3"
               fill-opacity="0"
               stroke="#000000"
               stroke-width="0.985"
               id="path3598" />
          </g>
          <g
             id="g3714">
            <g
               id="g3636">
              <g
                 id="g3614">
                <g
                   id="g3606">
                  <path
                     d="m 73.042,241.185 c -0.108,0.04 -0.195,0.117 -0.304,0.154 -6.192,2.063 -13.184,-2.737 -15.619,-10.715 -2.436,-7.977 0.603,-16.122 6.794,-18.186 0.109,-0.036 0.223,-0.026 0.333,-0.058 z"
                     fill="#ed1c24"
                     id="path3602" />
                  <path
                     d="m 73.042,241.185 c -0.108,0.04 -0.195,0.117 -0.304,0.154 -6.192,2.063 -13.184,-2.737 -15.619,-10.715 -2.436,-7.977 0.603,-16.122 6.794,-18.186 0.109,-0.036 0.223,-0.026 0.333,-0.058 z"
                     fill-opacity="0"
                     stroke="#000000"
                     stroke-width="0.982"
                     id="path3604" />
                </g>
                <g
                   id="g3612">
                  <path
                     d="m 64.797,209.323 -3.373,1.124 10.3,33.732 3.373,-1.124 c -2.784,-13.423 -6.371,-25.878 -10.3,-33.732 z"
                     id="path3608" />
                  <path
                     d="m 64.797,209.323 -3.373,1.124 10.3,33.732 3.373,-1.124 c -2.784,-13.423 -6.371,-25.878 -10.3,-33.732 z"
                     fill-opacity="0"
                     stroke="#000000"
                     stroke-width="0.982"
                     id="path3610" />
                </g>
              </g>
              <g
                 id="g3634">
                <g
                   id="g3620">
                  <path
                     d="m 83.052,196.966 c 3.188,0.075 7.286,6.436 9.464,14.93 2.178,8.494 1.669,16.128 -1.056,17.858 l -0.115,0.067 c -0.162,0.091 -0.329,0.161 -0.506,0.21 l -5.338,1.482 -2.42,-9.434 c -0.911,-2.037 -1.726,-4.354 -2.373,-6.877 -0.647,-2.523 -1.054,-4.971 -1.24,-7.211 l -2.396,-9.345 z"
                     id="path3616" />
                  <path
                     d="m 83.052,196.966 c 3.188,0.075 7.286,6.436 9.464,14.93 2.178,8.494 1.669,16.128 -1.056,17.858 l -0.115,0.067 c -0.162,0.091 -0.329,0.161 -0.506,0.21 l -5.338,1.482 -2.42,-9.434 c -0.911,-2.037 -1.726,-4.354 -2.373,-6.877 -0.647,-2.523 -1.054,-4.971 -1.24,-7.211 l -2.396,-9.345 z"
                     fill-opacity="0"
                     stroke="#000000"
                     stroke-width="0.981"
                     stroke-linecap="round"
                     stroke-linejoin="round"
                     id="path3618" />
                </g>
                <g
                   id="g3626">
                  <path
                     d="m 75.647,216.716 c 2.323,9.056 6.851,15.658 10.114,14.744 3.263,-0.914 4.026,-8.996 1.703,-18.053 -2.322,-9.056 -6.851,-15.657 -10.114,-14.744 -3.263,0.914 -4.025,8.996 -1.703,18.053 z"
                     id="path3622" />
                  <path
                     d="m 75.647,216.716 c 2.323,9.056 6.851,15.658 10.114,14.744 3.263,-0.914 4.026,-8.996 1.703,-18.053 -2.322,-9.056 -6.851,-15.657 -10.114,-14.744 -3.263,0.914 -4.025,8.996 -1.703,18.053 z"
                     fill-opacity="0"
                     stroke="#000000"
                     stroke-width="1.384"
                     stroke-linecap="round"
                     stroke-linejoin="round"
                     id="path3624" />
                </g>
                <g
                   id="g3632">
                  <path
                     d="m 77.256,200.686 c -11.349,7.465 -5.043,28.776 7.644,29.806 7.585,-4.037 -0.688,-31.609 -7.644,-29.806 z"
                     fill="#e7e7e7"
                     id="path3628" />
                  <path
                     d="m 77.256,200.686 c -11.349,7.465 -5.043,28.776 7.644,29.806 7.585,-4.037 -0.688,-31.609 -7.644,-29.806 z"
                     fill-opacity="0"
                     stroke="#000000"
                     stroke-width="0.981"
                     stroke-linecap="round"
                     stroke-linejoin="round"
                     id="path3630" />
                </g>
              </g>
            </g>
            <g
               id="g3672">
              <g
                 id="g3650">
                <g
                   id="g3642">
                  <path
                     d="m 476.959,241.185 c 0.107,0.04 0.194,0.117 0.304,0.154 6.191,2.063 13.183,-2.737 15.618,-10.715 2.436,-7.977 -0.602,-16.122 -6.794,-18.186 -0.109,-0.036 -0.223,-0.026 -0.333,-0.058 z"
                     fill="#ed1c24"
                     id="path3638" />
                  <path
                     d="m 476.959,241.185 c 0.107,0.04 0.194,0.117 0.304,0.154 6.191,2.063 13.183,-2.737 15.618,-10.715 2.436,-7.977 -0.602,-16.122 -6.794,-18.186 -0.109,-0.036 -0.223,-0.026 -0.333,-0.058 z"
                     fill-opacity="0"
                     stroke="#000000"
                     stroke-width="0.982"
                     id="path3640" />
                </g>
                <g
                   id="g3648">
                  <path
                     d="m 485.203,209.323 3.373,1.124 -10.3,33.732 -3.373,-1.124 c 2.784,-13.423 6.372,-25.878 10.3,-33.732 z"
                     id="path3644" />
                  <path
                     d="m 485.203,209.323 3.373,1.124 -10.3,33.732 -3.373,-1.124 c 2.784,-13.423 6.372,-25.878 10.3,-33.732 z"
                     fill-opacity="0"
                     stroke="#000000"
                     stroke-width="0.982"
                     id="path3646" />
                </g>
              </g>
              <g
                 id="g3670">
                <g
                   id="g3656">
                  <path
                     d="m 466.948,196.966 c -3.188,0.075 -7.286,6.436 -9.464,14.93 -2.178,8.494 -1.669,16.128 1.056,17.858 l 0.115,0.067 c 0.162,0.091 0.329,0.161 0.506,0.21 l 5.338,1.482 2.42,-9.434 c 0.911,-2.037 1.726,-4.354 2.373,-6.877 0.647,-2.523 1.054,-4.971 1.24,-7.211 l 2.396,-9.345 z"
                     id="path3652" />
                  <path
                     d="m 466.948,196.966 c -3.188,0.075 -7.286,6.436 -9.464,14.93 -2.178,8.494 -1.669,16.128 1.056,17.858 l 0.115,0.067 c 0.162,0.091 0.329,0.161 0.506,0.21 l 5.338,1.482 2.42,-9.434 c 0.911,-2.037 1.726,-4.354 2.373,-6.877 0.647,-2.523 1.054,-4.971 1.24,-7.211 l 2.396,-9.345 z"
                     fill-opacity="0"
                     stroke="#000000"
                     stroke-width="0.981"
                     stroke-linecap="round"
                     stroke-linejoin="round"
                     id="path3654" />
                </g>
                <g
                   id="g3662">
                  <path
                     d="m 474.353,216.716 c -2.323,9.056 -6.851,15.658 -10.114,14.744 -3.263,-0.914 -4.026,-8.996 -1.703,-18.053 2.322,-9.056 6.851,-15.657 10.114,-14.744 3.263,0.914 4.025,8.996 1.703,18.053 z"
                     id="path3658" />
                  <path
                     d="m 474.353,216.716 c -2.323,9.056 -6.851,15.658 -10.114,14.744 -3.263,-0.914 -4.026,-8.996 -1.703,-18.053 2.322,-9.056 6.851,-15.657 10.114,-14.744 3.263,0.914 4.025,8.996 1.703,18.053 z"
                     fill-opacity="0"
                     stroke="#000000"
                     stroke-width="1.384"
                     stroke-linecap="round"
                     stroke-linejoin="round"
                     id="path3660" />
                </g>
                <g
                   id="g3668">
                  <path
                     d="m 472.744,200.686 c 11.349,7.465 5.043,28.776 -7.644,29.806 -7.585,-4.037 0.688,-31.609 7.644,-29.806 z"
                     fill="#e7e7e7"
                     id="path3664" />
                  <path
                     d="m 472.744,200.686 c 11.349,7.465 5.043,28.776 -7.644,29.806 -7.585,-4.037 0.688,-31.609 7.644,-29.806 z"
                     fill-opacity="0"
                     stroke="#000000"
                     stroke-width="0.981"
                     stroke-linecap="round"
                     stroke-linejoin="round"
                     id="path3666" />
                </g>
              </g>
            </g>
            <g
               id="g3686">
              <g
                 id="g3678">
                <path
                   d="m 35.114,136.145 c -0.091,0.036 -0.161,0.099 -0.253,0.133 -5.247,1.889 -11.813,-1.426 -14.667,-7.398 -2.852,-5.974 -1.05,-13.66 4.197,-15.55 0.092,-0.034 0.193,-0.032 0.287,-0.062 7.971,-1.52 17.195,17.252 10.436,22.877 z"
                   fill="#e7e7e7"
                   id="path3674" />
                <path
                   d="m 35.114,136.145 c -0.091,0.036 -0.161,0.099 -0.253,0.133 -5.247,1.889 -11.813,-1.426 -14.667,-7.398 -2.852,-5.974 -1.05,-13.66 4.197,-15.55 0.092,-0.034 0.193,-0.032 0.287,-0.062 7.971,-1.52 17.195,17.252 10.436,22.877 z"
                   fill-opacity="0"
                   stroke="#000000"
                   stroke-width="1.022"
                   id="path3676" />
              </g>
              <g
                 id="g3684">
                <path
                   d="m 29.674,111.762 -3.093,0.923 c 6.967,5.513 11.635,12.85 10.721,22.648 l 3.093,-0.923 c 2.134,-10.531 -3.263,-18.497 -10.721,-22.648 z"
                   id="path3680" />
                <path
                   d="m 29.674,111.762 -3.093,0.923 c 6.967,5.513 11.635,12.85 10.721,22.648 l 3.093,-0.923 c 2.134,-10.531 -3.263,-18.497 -10.721,-22.648 z"
                   fill-opacity="0"
                   stroke="#000000"
                   stroke-width="1.022"
                   id="path3682" />
              </g>
            </g>
            <g
               id="g3700">
              <g
                 id="g3692">
                <path
                   d="m 514.887,136.145 c 0.09,0.036 0.16,0.099 0.253,0.133 5.247,1.889 11.813,-1.426 14.666,-7.398 2.853,-5.974 1.051,-13.66 -4.196,-15.55 -0.093,-0.034 -0.194,-0.032 -0.287,-0.062 -7.972,-1.52 -17.196,17.252 -10.436,22.877 z"
                   fill="#e7e7e7"
                   id="path3688" />
                <path
                   d="m 514.887,136.145 c 0.09,0.036 0.16,0.099 0.253,0.133 5.247,1.889 11.813,-1.426 14.666,-7.398 2.853,-5.974 1.051,-13.66 -4.196,-15.55 -0.093,-0.034 -0.194,-0.032 -0.287,-0.062 -7.972,-1.52 -17.196,17.252 -10.436,22.877 z"
                   fill-opacity="0"
                   stroke="#000000"
                   stroke-width="1.022"
                   id="path3690" />
              </g>
              <g
                 id="g3698">
                <path
                   d="m 520.326,111.762 3.093,0.923 c -6.966,5.513 -11.634,12.85 -10.721,22.648 l -3.093,-0.923 c -2.133,-10.531 3.264,-18.497 10.721,-22.648 z"
                   id="path3694" />
                <path
                   d="m 520.326,111.762 3.093,0.923 c -6.966,5.513 -11.634,12.85 -10.721,22.648 l -3.093,-0.923 c -2.133,-10.531 3.264,-18.497 10.721,-22.648 z"
                   fill-opacity="0"
                   stroke="#000000"
                   stroke-width="1.022"
                   id="path3696" />
              </g>
            </g>
            <g
               id="g3706">
              <path
                 d="m 158.499,96.3 c 0,6.627 -5.373,12 -12,12 -6.628,0 -12,-5.373 -12,-12 0,-6.627 5.372,-12 12,-12 6.627,0 12,5.373 12,12 z"
                 fill="#e7e7e7"
                 id="path3702" />
              <path
                 d="m 158.499,96.3 c 0,6.627 -5.373,12 -12,12 -6.628,0 -12,-5.373 -12,-12 0,-6.627 5.372,-12 12,-12 6.627,0 12,5.373 12,12 z"
                 fill-opacity="0"
                 stroke="#000000"
                 stroke-width="0.99"
                 id="path3704" />
            </g>
            <g
               id="g3712">
              <path
                 d="m 415.499,96.3 c 0,6.627 -5.373,12 -12,12 -6.628,0 -12,-5.373 -12,-12 0,-6.627 5.372,-12 12,-12 6.627,0 12,5.373 12,12 z"
                 fill="#e7e7e7"
                 id="path3708" />
              <path
                 d="m 415.499,96.3 c 0,6.627 -5.373,12 -12,12 -6.628,0 -12,-5.373 -12,-12 0,-6.627 5.372,-12 12,-12 6.627,0 12,5.373 12,12 z"
                 fill-opacity="0"
                 stroke="#000000"
                 stroke-width="0.99"
                 id="path3710" />
            </g>
          </g>
          <g
             id="g3728">
            <g
               id="g3720">
              <path
                 d="m 287.519,77.982 c 0,6.927 -5.596,12.543 -12.498,12.543 -6.903,0 -12.498,-5.616 -12.498,-12.543 0,-6.928 5.595,-12.544 12.498,-12.544 6.902,0 12.498,5.616 12.498,12.544 z"
                 id="path3716" />
              <path
                 d="m 287.519,77.982 c 0,6.927 -5.596,12.543 -12.498,12.543 -6.903,0 -12.498,-5.616 -12.498,-12.543 0,-6.928 5.595,-12.544 12.498,-12.544 6.902,0 12.498,5.616 12.498,12.544 z"
                 fill-opacity="0"
                 stroke="#000000"
                 stroke-width="0.998"
                 stroke-linecap="round"
                 stroke-linejoin="round"
                 id="path3718" />
            </g>
            <g
               id="g3726">
              <path
                 d="m 284.956,77.982 c 0,5.506 -4.448,9.969 -9.935,9.969 -5.487,0 -9.936,-4.463 -9.936,-9.969 0,-5.506 4.449,-9.97 9.936,-9.97 5.487,0 9.935,4.464 9.935,9.97 z"
                 fill="#e7e7e7"
                 id="path3722" />
              <path
                 d="m 284.956,77.982 c 0,5.506 -4.448,9.969 -9.935,9.969 -5.487,0 -9.936,-4.463 -9.936,-9.969 0,-5.506 4.449,-9.97 9.936,-9.97 5.487,0 9.935,4.464 9.935,9.97 z"
                 fill-opacity="0"
                 stroke="#000000"
                 stroke-width="0.998"
                 stroke-linecap="round"
                 stroke-linejoin="round"
                 id="path3724" />
            </g>
          </g>
          <path
             d="m 216.499,77.072 c 11.249,-1.64 23.243,-1.986 37,0.728"
             fill-opacity="0"
             stroke="#000000"
             stroke-width="1"
             id="path3730" />
          <path
             d="m 274.999,20.904 v 33.98"
             fill-opacity="0"
             stroke="#000000"
             stroke-width="1"
             id="path3732" />
          <path
             d="m 333.499,77.072 c -11.249,-1.64 -23.244,-1.986 -37,0.728"
             fill-opacity="0"
             stroke="#000000"
             stroke-width="1"
             id="path3734" />
          <path
             d="m 265.499,62.98 c -12.013,6.613 -25.094,-22.444 -39.79,-14.191 -6.553,7.416 -2.304,12.026 -2.36,17.755 -12.585,-0.014 -10.286,6.627 -13.35,10.753 2.844,11.067 12.825,10.991 17.014,13.004 -4.174,7.951 -4.95,14.947 -2.174,16.567 14.709,2.794 24.192,-8.711 36.239,-13.066"
             fill-opacity="0"
             stroke="#000000"
             stroke-width="1"
             id="path3736" />
          <path
             d="m 284.499,62.98 c 12.013,6.613 25.094,-22.444 39.79,-14.191 6.552,7.416 2.304,12.026 2.36,17.755 12.585,-0.014 10.286,6.627 13.35,10.753 -2.844,11.067 -12.825,10.991 -17.014,13.004 4.174,7.951 4.95,14.947 2.173,16.567 -14.709,2.794 -24.191,-8.711 -36.238,-13.066"
             fill-opacity="0"
             stroke="#000000"
             stroke-width="1"
             id="path3738" />
          <path
             d="M 265.223,62.8 C 264.069,48.65 237.55,40.065 246.206,22.746 c 2.438,-2.88 11.614,-3.635 21.137,2.91 -1.714,-8.751 -2.818,-16.522 6.13,-20.856 l 1.526,-0.9 1.5,0.9 c 8.948,4.334 7.844,12.105 6.13,20.856 9.522,-6.545 18.698,-5.79 21.137,-2.91 8.655,17.319 -17.863,25.904 -19.017,40.054"
             fill-opacity="0"
             stroke="#000000"
             stroke-width="1"
             id="path3740" />
          <g
             id="g3746">
            <path
               d="m 3.499,75.294 c 4.052,-3.306 10.654,-7.606 22.771,4.794 2.9,-4.943 1.325,-6.776 9.065,-6.765 8.661,6.81 3.141,13.619 4.317,20.429 l 0.847,1.048"
               fill-opacity="0"
               stroke="#000000"
               stroke-width="1"
               id="path3742" />
            <path
               d="m 546.5,75.294 c -4.052,-3.306 -10.654,-7.606 -22.771,4.794 -2.9,-4.943 -1.325,-6.776 -9.065,-6.765 -8.661,6.81 -3.141,13.619 -4.317,20.429 L 509.5,94.8"
               fill-opacity="0"
               stroke="#000000"
               stroke-width="1"
               id="path3744" />
          </g>
          <path
             d="m 42,110.861 c 5.918,-6.813 4.965,-14.681 18.591,-20.311 0.431,3.316 2.902,0.013 0.97,10.991 10.583,-6.151 3.705,3.815 3.135,8.192 6.276,-1.998 12.949,-9.728 18.804,-2.477 -2.724,7.781 -7.353,11.677 -14.538,14.772 4.581,1.12 9.134,2.283 11.19,7.298 -10.056,14.472 -27.529,-0.829 -27.529,-0.829 -2.343,-1.42 -3.092,0.369 -4.72,1.268 l -1.688,3.441"
             fill-opacity="0"
             stroke="#000000"
             stroke-width="1"
             id="path3748" />
          <path
             d="m 508,110.861 c -5.918,-6.813 -4.965,-14.681 -18.591,-20.311 -0.431,3.316 -2.902,0.013 -0.97,10.991 -10.583,-6.151 -3.705,3.815 -3.135,8.192 -6.276,-1.998 -12.949,-9.728 -18.804,-2.477 2.724,7.781 7.353,11.677 14.538,14.772 -4.581,1.12 -9.134,2.283 -11.19,7.298 10.056,14.472 27.529,-0.829 27.529,-0.829 2.343,-1.42 3.092,0.369 4.72,1.268 l 1.688,3.441"
             fill-opacity="0"
             stroke="#000000"
             stroke-width="1"
             id="path3750" />
        </g>
      </g>
    </g>
  </g>
</svg>
