<?xml version="1.0" encoding="UTF-8" standalone="no"?>
<svg
   id="svg2"
   height="1388.7469"
   width="1236.0713"
   version="1.0"
   xmlns="http://www.w3.org/2000/svg"
   xmlns:svg="http://www.w3.org/2000/svg"
   xmlns:rdf="http://www.w3.org/1999/02/22-rdf-syntax-ns#"
   xmlns:cc="http://creativecommons.org/ns#"
   xmlns:dc="http://purl.org/dc/elements/1.1/">
  <metadata
     id="metadata74">
    <rdf:RDF>
      <cc:Work
         rdf:about="">
        <dc:format>image/svg+xml</dc:format>
        <dc:type
           rdf:resource="http://purl.org/dc/dcmitype/StillImage" />
        <dc:creator>
          <cc:Agent>
            <dc:title>vlk2020</dc:title>
          </cc:Agent>
        </dc:creator>
      </cc:Work>
    </rdf:RDF>
  </metadata>
  <defs
     id="defs4" />
  <g
     id="langued">
    <path
       id="path32275"
       style="fill:#ff0000;stroke-linejoin:round;stroke-width:1.5;stroke:#000000"
       d="m 624.15492,113.99145 c 9.4999,3.10888 14.325,-30.964709 -10.6066,-24.243658 -71.73261,23.686378 -118.84923,35.649078 -125.25892,-9.596449 -3.42472,-12.371442 -25.61562,-19.476746 -19.69797,5.050763 32.33447,76.374164 89.51986,12.666023 155.56349,28.789344 z" />
  </g>
  <g
     id="beaked">
    <path
       id="path31388"
       style="fill:#00ff00;stroke-linejoin:round;stroke-width:1.5;stroke:#000000"
       d="M 680.21838,60.453369 641.32751,169.54984 C 581.04656,141.3052 543.8614,133.99112 526.6752,144.80111 c 10.71238,-13.81696 24.50219,-39.99974 98.99495,-9.59645 -11.29057,-33.44805 -96.75093,-69.072312 -112.63201,-32.32488 -22.07134,-52.0331 1.02649,-75.7512 69.19545,-71.21576 z" />
  </g>
  <g
     id="armed">
    <path
       d="m 812.10986,1032.6041 c -30.40728,-17.4597 -47.33074,-13.7306 -51.07143,10.7143 16.1601,-7.7764 26.67651,-3.0113 34.28571,8.2143 m 173.92857,60.7143 c -13.00322,-3.1544 -4.81989,-38.556 12.5,-25.7143 17.31989,12.8418 36.33429,21.9477 15.71429,51.7857 -1.04318,-21.5544 -15.21106,-22.917 -28.21429,-26.0714 z m -4.28571,-167.14286 15.71429,15.71428 16.07142,-10.71428 c 5.25749,-5.06681 14.41699,-6.28283 26.42859,-3.57143 -12.2901,-23.84932 -38.0586,-22.58808 -44.28573,-13.92857 z m 64.3941,95.55436 c -0.094,-0.5755 -0.8977,-23.5803 -0.8832,-23.3814 0.014,0.1988 29.9155,-0.7912 35.0692,0.3102 8.804,1.8817 13.8348,10.9056 12.4352,26.7547 -0.8052,5.2557 -1.3401,10.7817 -6.061,12.1218 -4.7819,-22.0093 -10.5908,-17.0931 -15.6643,-17.0157 -6.1308,0.094 -24.8019,1.7858 -24.8959,1.2104 z m -606.00396,-8.0544 c 30.40728,-17.4597 47.33074,-13.7306 51.07143,10.7143 -16.1601,-7.7764 -26.67651,-3.0113 -34.28571,8.2143 m -173.92857,60.7143 c 13.00322,-3.1544 4.81988,-38.556 -12.5,-25.7143 -17.31989,12.8418 -36.33427,21.9477 -15.71429,51.7857 1.04318,-21.5544 15.21106,-22.917 28.21429,-26.0714 z M 270.5,945.10414 254.78571,960.81842 238.71429,950.10414 c -5.25745,-5.06681 -14.41703,-6.28283 -26.42858,-3.57143 12.29005,-23.84932 38.05859,-22.58808 44.28572,-13.92857 z m -64.39415,95.55436 c 0.0939,-0.5755 0.89772,-23.5803 0.88325,-23.3814 -0.0145,0.1988 -29.91545,-0.7912 -35.06918,0.3102 -8.804,1.8817 -13.83482,10.9056 -12.43517,26.7547 0.80517,5.2557 1.34006,10.7817 6.06091,12.1218 4.78194,-22.0093 10.59087,-17.0931 15.66436,-17.0157 6.13077,0.094 24.80192,1.7858 24.89583,1.2104 z"
       style="fill:#00ff00;stroke-linejoin:round;stroke-width:1.5;stroke:#000000"
       id="path12567" />
  </g>
  <g
     id="legged">
    <path
       d="m 729.25271,849.747 34.28572,-17.14286 124.28571,170.71426 c 8.46791,-12.2153 14.87354,-30.61748 22.14286,-46.42855 l 59.58158,-21.01015 c 9.06072,6.23327 17.98045,16.97417 25.71429,30 -5.41955,5.80253 -12.13071,7.73018 -18.8673,9.58158 -9.04762,-4.92204 -18.09524,-6.8108 -27.14286,-5 -11.06608,14.69971 -14.53578,25.60122 -20.71428,37.85712 16.76695,-4.3821 37.4848,-12.84467 64.66824,-23.74472 14.98703,8.8352 31.22973,20.29152 50.00003,22.82122 -1.6613,3.3134 -2.7086,6.55 -3.2971,9.7292 -1.9541,10.5555 1.1486,20.4789 3.6288,30.48 -4.262,9.0406 -10.7959,5.9215 -15.1733,7.5613 -25.7748,-21.0423 -27.3146,-25.1983 -40.71427,-25.7143 -26.92113,0.6989 -35.91079,3.3901 -51.96954,5.2959 14.77798,15.9363 31.89199,34.0959 52.14285,40 2.87079,4.678 2.56553,10.4147 1.42857,16.4286 -17.21861,11.5074 -9.33436,18.0578 -8.98984,27.0562 -1.97066,2.6545 -7.63168,2.8487 -13.57143,2.8571 -14.02342,-21.743 -22.03074,-21.4269 -32.43873,-29.9133 -7.40954,-8.3619 -9.65426,-18.6609 -17.17994,-24.3106 -25.57294,-19.1984 -48.29531,-25.5732 -68.83021,-22.8323 -24.72906,9.9664 -39.17152,15.0313 -56.84699,15.7143 -0.60114,-3.5596 -4.07213,-2.3897 -2.22952,-10.8368 7.14286,-1.1071 14.28572,-15.3033 21.42858,-25 17.20492,-0.1309 35.72971,2.3779 46.51523,-10.5918 z m -223.03842,0 -34.28572,-17.14286 -124.28571,170.71426 C 339.17495,991.1031 332.76932,972.70092 325.5,956.88985 L 265.91842,935.8797 c -9.06072,6.23327 -17.98045,16.97417 -25.71429,30 5.41954,5.80253 12.13071,7.73018 18.8673,9.58158 9.04762,-4.92204 18.09524,-6.8108 27.14286,-5 11.06608,14.69971 14.53578,25.60122 20.71428,37.85712 -16.76695,-4.3821 -37.4848,-12.84467 -64.66824,-23.74472 -14.98699,8.8352 -31.22974,20.29152 -50,22.82122 1.66124,3.3134 2.70854,6.55 3.2971,9.7292 1.95409,10.5555 -1.14866,20.4789 -3.62886,30.48 4.26198,9.0406 10.79597,5.9215 15.17332,7.5613 25.77484,-21.0423 27.31462,-25.1983 40.71428,-25.7143 26.92113,0.6989 35.91079,3.3901 51.96954,5.2959 -14.77798,15.9363 -31.89199,34.0959 -52.14285,40 -2.87079,4.678 -2.56553,10.4147 -1.42857,16.4286 17.21861,11.5074 9.33436,18.0578 8.98984,27.0562 1.97066,2.6545 7.63168,2.8487 13.57143,2.8571 14.02342,-21.743 22.03074,-21.4269 32.43873,-29.9133 7.40954,-8.3619 9.65426,-18.6609 17.17994,-24.3106 25.57294,-19.1984 48.29531,-25.5732 68.83021,-22.8323 24.72906,9.9664 39.17152,15.0313 56.84699,15.7143 0.60114,-3.5596 4.07213,-2.3897 2.22952,-10.8368 -7.14286,-1.1071 -14.28572,-15.3033 -21.42858,-25 -17.20492,-0.1309 -35.72971,2.3779 -46.51523,-10.5918 z"
       style="fill:#0000ff;stroke-linejoin:round;stroke-width:1.5;stroke:#000000"
       id="path12569" />
  </g>
  <g
     id="winged">
    <path
       style="fill:#ffff00;stroke:#000000;stroke-width:1.5;stroke-linejoin:round"
       d="M 51.697266,3 C 90.717936,113.13329 179.87204,91.470593 193.91797,97.789062 71.804639,135.73362 14.91261,138.41557 3,135.16406 c 0.18642,3.31794 14.913503,20.25109 31.757812,33.10156 13.62611,10.39532 32.507776,17.47095 41.478516,18.92188 18.81238,3.04272 39.510662,1.88812 61.849612,0.45898 12.49838,-0.79958 52.02511,-13.02273 48.76172,-8.03515 -2.56061,3.91348 -20.11926,16.12325 -41.60547,34.19336 -18.87763,15.87627 -40.7524,38.00621 -62.330081,55.75195 -38.59138,31.738 -78.6293228,50.82224 -76.3769528,52.99024 12.7380998,12.26087 48.1702738,20.97784 77.5898438,12.3125 12.62925,-3.71988 20.49013,-8.18421 34.28906,-17.72071 10.6626,-7.36898 25.49583,-21.71698 34.29102,-29.65429 16.69136,-15.06329 32.37193,-27.52669 42.22461,-36.15235 -0.0314,6.77609 -5.24913,14.03989 -11.61719,25.75781 -79.80206,148.9975 -170.716797,300.01563 -170.716797,300.01563 76.41386,4.21312 119.583657,-73.48911 156.333987,-121.38672 46.7744,-60.96225 36.09273,-48.20426 46.20312,-61.95508 10.11039,-13.75082 -2.41794,8.67882 -23.74023,60.60938 -25.82955,56.35145 -25.16595,99.52538 -34.45313,158.85937 -7.1605,44.28008 -17.79754,96.78473 -18.07422,90.64844 -0.99848,14.78239 -37.66883,110.17627 -68.185542,190.41211 36.056712,-2.90623 61.935572,-23.8504 81.318362,-43.43555 14.39458,-21.32135 26.34515,-42.99428 35.35547,-65.66015 16.42011,-38.23712 28.31054,-74.84227 40.27929,-109.80665 25.0746,-73.25058 42.57722,-137.90794 60.23047,-183.64257 l -0.56055,95.10156 c 2.12756,22.72016 -5.34249,126.7473 -9.9707,158.58594 -11.25334,77.41471 -13.97043,123.36996 -23.30859,165.52539 118.67231,-18.46317 149.20889,-255.50975 146.4707,-353.04883 9.76481,72.95181 19.53011,143.80123 29.29492,206.07227 23.71641,-13.23839 37.11275,-26.85866 42.93164,-53.53907 5.03222,-71.13413 10.99623,-131.28647 16.09571,-191.43877 6.62109,56.78589 17.17541,124.70408 28.11132,202.16924 -5.47619,22.95582 -10.95154,34.61084 -16.42773,46.42774 -9.37197,12.32484 -28.10931,36.94114 -55.71484,58.57226 l 10.71484,5.71484 -15,15.7129 c 24.22528,16.42434 61.94314,7.2123 69.28516,55.71484 1.23867,-39.7342 8.6918,-16.80486 17.14257,-7.85742 1.36246,-57.49995 25.38099,-78.21926 45,-102.85742 1.53047,29.29579 16.20965,82.6405 -27.14257,130.71484 -33.89556,16.24843 -68.57234,11.36626 -100.71289,75 22.14825,-5.71277 19.11723,-18.47531 84.28515,-12.14258 l 41.42774,-24.28516 c -8.54885,30.15266 9.8929,57.16298 -98.57032,107.14258 -76.68434,17.5279 -130.44525,50.3382 -155.71484,102.1426 41.87383,-20.8052 86.14606,-34.0966 142.85742,-45 59.94579,-33.2583 73.22529,-54.3828 103.57031,-85 -8.62229,23.2311 -13.31752,43.3207 -30.71289,73.5703 -36.49037,36.4915 -86.7452,54.7948 -72.85742,157.8574 45.95344,-73.6956 80.22707,-63.0396 129.28516,-237.1426 8.57745,38.0802 17.6732,74.8674 11.42969,150 -11.18894,35.8089 -9.76692,66.5731 -47.14454,112.8575 l 34.28711,-8.5723 31.82032,96 31.82226,-96 34.28516,8.5723 C 646.76496,1252.034 648.18894,1221.2698 637,1185.4609 c -6.24351,-75.1326 2.85028,-111.9198 11.42773,-150 49.05809,174.103 83.33367,163.447 129.28711,237.1426 13.88778,-103.0626 -36.36705,-121.3659 -72.85742,-157.8574 -17.39537,-30.2496 -22.09255,-50.3392 -30.71484,-73.5703 30.34502,30.6172 43.62647,51.7417 103.57226,85 56.71136,10.9034 100.9836,24.1948 142.85743,45 -25.26959,-51.8044 -79.03051,-84.6147 -155.71485,-102.1426 -108.46322,-49.9796 -90.02341,-76.98991 -98.57226,-107.14258 l 41.42968,24.28516 c 65.16792,-6.33273 62.13691,6.42981 84.28516,12.14258 -32.14055,-63.63374 -66.81928,-58.75157 -100.71484,-75 -43.35222,-48.07434 -28.67305,-101.41905 -27.14258,-130.71484 19.61901,24.63816 43.63754,45.35747 45,102.85742 8.45077,-8.94744 15.90391,-31.87678 17.14258,7.85742 7.34202,-48.50254 45.06183,-39.2905 69.28711,-55.71484 l -15,-15.7129 10.71289,-5.71484 c -27.60553,-21.63112 -46.34092,-46.24742 -55.71289,-58.57226 -5.47619,-11.8169 -10.9535,-23.47192 -16.42969,-46.42774 10.93605,-77.46607 21.4922,-146.73717 28.11328,-203.52344 5.09952,60.15292 11.06148,121.65807 16.09375,192.79297 5.81889,26.68041 19.21523,40.30068 42.93164,53.53907 9.76481,-62.27103 19.53011,-133.12046 29.29492,-206.07227 -2.73819,97.53908 27.80035,334.58566 146.47266,353.04883 -9.33816,-42.15543 -12.05525,-88.11068 -23.3086,-165.52539 -4.62821,-31.83864 -12.09826,-135.86578 -9.9707,-158.58594 l -0.56055,-95.10156 c 17.65325,45.73463 35.15584,110.39199 60.23052,183.64257 11.9687,34.96438 23.859,71.56953 40.2793,109.80665 9.0103,22.66587 20.9608,44.3388 35.3554,65.66015 19.3828,19.58515 45.2597,40.52932 81.3164,43.43555 -30.5167,-80.23584 -67.187,-175.62972 -68.1855,-190.41211 -0.2767,6.13629 -10.9137,-46.36836 -18.0742,-90.64844 -9.2871,-59.33399 -8.6237,-102.50792 -34.4532,-158.85937 -21.3223,-51.93056 -33.8486,-74.3602 -23.7382,-60.60938 10.1104,13.75082 -0.5733,0.99283 46.2011,61.95508 36.7504,47.89761 79.9201,125.59984 156.334,121.38672 0,0 -90.9128,-151.01813 -170.7148,-300.01563 -6.3681,-11.71792 -11.5862,-18.98172 -11.6172,-25.75781 9.8527,8.62566 25.5312,21.08906 42.2226,36.15235 8.7952,7.93731 23.6304,22.28531 34.293,29.65429 13.7989,9.5365 21.6579,14.00083 34.2871,17.72071 29.4196,8.66534 64.8518,-0.0516 77.5899,-12.3125 2.2523,-2.168 -37.7857,-21.25224 -76.377,-52.99024 -21.5777,-17.74574 -43.4525,-39.87568 -62.3301,-55.75195 -21.4862,-18.07011 -39.0448,-30.27988 -41.6054,-34.19336 -3.2634,-4.98758 36.2633,7.23557 48.7617,8.03515 22.339,1.42914 43.0392,2.58373 61.8515,-0.45898 8.9708,-1.45093 27.8525,-8.52656 41.4786,-18.92188 16.8443,-12.85047 31.5714,-29.78362 31.7578,-33.10156 -11.9126,3.25151 -68.8067,0.56956 -190.92,-37.374998 C 1056.1982,91.470593 1145.3543,113.13329 1184.375,3 1126.4114,27.08703 1049.8887,28.55455 1049.7715,28.53125 L 934.31836,26.572266 c 0,0 -21.50942,1.976595 -35.14648,12.078125 -13.63707,10.10152 -23.69494,19.777578 -27.23047,30.636718 -3.53556,10.85914 -3.57813,24.713314 -3.57813,33.804691 0,9.09137 0.1354,17.83392 3.70117,30.27929 4.16321,14.53059 31.40539,36.03174 34.01367,38.73243 3.26052,3.37604 26.58528,10.42568 32.0293,12.05273 4.83926,1.44631 6.22539,6.03614 6.73047,7.29883 0.50508,1.26269 -1.64366,26.1843 -3.76172,41.65039 -2.10967,15.40483 -14.37305,43.58165 -22.38867,57.11719 -2.01415,3.4012 -22.81353,31.12055 -35.63477,42.93164 -3.19557,2.94379 -34.84986,25.75861 -50.75976,31.31445 -15.9099,5.55584 -76.51877,11.86854 -81.06445,9.5957 l -2.94922,2.01758 c -3.3311,-9.09688 -8.17833,-14.91163 -14.85157,-17.04883 -8.84256,-4.73232 8.77137,3.30347 -12.21093,-6.34961 46.54392,9.33221 25.57526,4.75622 11.02539,-6.35742 -43.13868,-42.40265 -8.5371,-18.79789 3.74414,-17.19726 -31.09014,-54.20162 -15.1258,-84.63861 -8.79492,-105.53516 l 9.5957,26.26367 11.4082,-50.63086 21.42188,19.31641 c -4.32558,-22.463 -8.17617,-45.74134 -18.95899,-57.13477 17.98458,4.08434 30.75085,3.82933 32.95508,2.75196 4.6809,-2.2879 -18.93405,-12.22913 -19.82226,-28.51172 15.33901,1.73177 22.71449,-0.81602 34.40039,-13.8086 3.56927,-3.96837 -16.66806,4.24848 -15.79883,1.66211 -44.6276,-41.507774 -3.45026,-21.6669 -1.77539,-29.921872 -63.24416,-34.577264 -14.25053,-23.31141 -17.38281,-33.335937 -47.00233,-20.780869 -29.44399,-9.798687 -10.25,-36.216797 -10.76897,3.06729 -26.12805,7.357572 -45.9961,4.101562 0.14997,-3.985 -35.35752,-13.667077 -90.77539,-14.779297 -19.35833,-0.38852 -32.19051,1.116255 -33.47461,20.333985 71.13681,83.505176 70.54254,116.227386 34.3457,123.744136 8.58536,17.13908 14.65679,27.14835 12.07227,32.51954 -4.35045,9.04116 -27.62902,16.91558 -78.39648,45.61914 23.90119,8.30033 75.95433,-18.49886 0.2207,31.16797 -49.50213,23.40134 -10.92865,14.1593 5.49414,13.42773 -12.14952,18.04248 -25.97495,35.93271 -48.48633,53.0332 l 11.61524,10.60547 c -64.64375,20.64399 -13.5092,10.73633 -16.96094,15.23242 -6.67324,2.1372 -11.52046,7.95195 -14.85156,17.04883 l -2.94922,-2.01758 c -4.54568,2.27284 -65.15456,-4.03986 -81.06446,-9.5957 -15.9099,-5.55584 -47.56419,-28.37066 -50.75976,-31.31445 -12.82124,-11.81109 -33.61865,-39.53044 -35.63281,-42.93164 -8.01562,-13.53554 -20.27901,-41.71236 -22.38868,-57.11719 -2.11806,-15.46609 -4.26874,-40.3877 -3.76367,-41.65039 0.50508,-1.26269 1.89316,-5.85252 6.73242,-7.29883 5.44401,-1.62705 28.76878,-8.67669 32.0293,-12.05273 2.60829,-2.70069 29.85046,-24.20184 34.01367,-38.73243 3.56577,-12.44537 3.70117,-21.18792 3.70117,-30.27929 0,-9.091377 -0.0445,-22.945551 -3.58007,-33.804691 C 360.59338,58.427969 350.5355,48.751911 336.89844,38.650391 323.26138,28.548861 301.75195,26.572266 301.75195,26.572266 L 186.29883,28.53125 C 186.18169,28.55455 109.66086,27.08703 51.697266,3 Z"
       id="path14351" />
  </g>
  <g
     id="kleestengel">
    <path
       d="m 754.50799,429.83978 c 134.00143,-14.18924 231.05856,-75.16932 223.1349,-270.80707 14.44639,7.22612 29.12241,14.9114 25.00001,-15 18.4598,-21.79016 4.903,-24.37036 -14.28573,-23.57143 10.53437,-12.7594 -0.70007,-42.812032 -20,-16.42857 -22.99692,-14.663181 -43.60701,0.84523 -20.71428,21.42857 -22.81953,0.15317 -35.61436,5.87562 -24.28572,25 l 10.71429,0.71428 c -6.30829,19.80805 3.18348,20.65602 15.71428,17.85715 l 7.14286,-6.42857 c 12.21754,162.6906 -69.18206,229.42365 -202.75594,242.67805 0.19284,8.18586 0.56804,16.37173 0.33533,24.55759 z M 481.30642,429.62864 C 348.3163,415.052 251.90073,353.71549 259.78571,159.03271 c -14.44639,7.22612 -29.12236,14.9114 -25,-15 -18.45977,-21.79016 -4.90297,-24.37036 14.28572,-23.57143 -10.53437,-12.7594 0.70007,-42.812032 20,-16.42857 22.99692,-14.663181 43.60701,0.84523 20.71428,21.42857 22.81953,0.15317 35.61436,5.87562 24.28572,25 l -10.71429,0.71428 c 6.30829,19.80805 -3.18348,20.65602 -15.71428,17.85715 L 280.5,162.60414 c -12.1873,162.28787 68.5205,229.09267 201.5058,242.57864 -0.50394,8.14862 -0.65278,16.29724 -0.69938,24.44586 z"
       style="fill:#00ffff;stroke-linejoin:round;stroke-width:1.5;stroke:#000000"
       id="path26860" />
  </g>
  <path
     style="fill:#ffff00;stroke:#000000;stroke-width:1.5;stroke-linejoin:round"
     d="m 516.92773,721.17578 c -5.47619,22.95582 -10.95154,34.61084 -16.42773,46.42774 -9.37197,12.32484 -28.10931,36.94114 -55.71484,58.57226 l 10.71484,5.71484 -15,15.7129 c 24.22528,16.42434 61.94314,7.2123 69.28516,55.71484 1.23867,-39.7342 8.6918,-16.80486 17.14257,-7.85742 1.36246,-57.49995 25.38099,-78.21926 45,-102.85742 1.53047,29.29579 16.20965,82.6405 -27.14257,130.71484 -33.89556,16.24843 -68.57234,11.36626 -100.71289,75 22.14825,-5.71277 19.11723,-18.47531 84.28515,-12.14258 l 41.42774,-24.28516 c -8.54885,30.15266 9.8929,57.16298 -98.57032,107.14258 -76.68434,17.5279 -130.44525,50.3382 -155.71484,102.1426 41.87383,-20.8052 86.14606,-34.0966 142.85742,-45 59.94579,-33.2583 73.22529,-54.3828 103.57031,-85 -8.62229,23.2311 -13.31752,43.3207 -30.71289,73.5703 -36.49037,36.4915 -86.7452,54.7948 -72.85742,157.8574 45.95344,-73.6956 80.22707,-63.0396 129.28516,-237.1426 8.57745,38.0802 17.6732,74.8674 11.42969,150 -11.18894,35.8089 -9.76692,66.5731 -47.14454,112.8575 l 34.28711,-8.5723 31.82032,96 31.82226,-96 34.28516,8.5723 C 646.76496,1252.034 648.18894,1221.2698 637,1185.4609 c -6.24351,-75.1326 2.85028,-111.9198 11.42773,-150 49.05809,174.103 83.33367,163.447 129.28711,237.1426 13.88778,-103.0626 -36.36705,-121.3659 -72.85742,-157.8574 -17.39537,-30.2496 -22.09255,-50.3392 -30.71484,-73.5703 30.34502,30.6172 43.62647,51.7417 103.57226,85 56.71136,10.9034 100.9836,24.1948 142.85743,45 -25.26959,-51.8044 -79.03051,-84.6147 -155.71485,-102.1426 -108.46322,-49.9796 -90.02341,-76.98991 -98.57226,-107.14258 l 41.42968,24.28516 c 65.16792,-6.33273 62.13691,6.42981 84.28516,12.14258 -32.14055,-63.63374 -66.81928,-58.75157 -100.71484,-75 -43.35222,-48.07434 -28.67305,-101.41905 -27.14258,-130.71484 19.61901,24.63816 43.63754,45.35747 45,102.85742 8.45077,-8.94744 15.90391,-31.87678 17.14258,7.85742 7.34202,-48.50254 45.06183,-39.2905 69.28711,-55.71484 l -15,-15.7129 10.71289,-5.71484 c -27.60553,-21.63112 -46.34092,-46.24742 -55.71289,-58.57226 -5.47619,-11.8169 -10.9535,-23.47192 -16.42969,-46.42774 10.93605,-77.46607 21.4922,-146.73717 28.11328,-203.52344 9.02798,-45.08299 6.23562,-123.66598 3.97266,-143.58789 l -2.94922,2.01758 c -3.3311,-9.09688 -8.17833,-14.91163 -14.85157,-17.04883 -8.84256,-4.73232 8.77137,3.30347 -12.21093,-6.34961 46.54392,9.33221 25.57526,4.75622 11.02539,-6.35742 -43.13868,-42.40265 -8.5371,-18.79789 3.74414,-17.19726 -31.09014,-54.20162 -15.1258,-84.63861 -8.79492,-105.53516 l 9.5957,26.26367 11.4082,-50.63086 21.42188,19.31641 c -4.32558,-22.463 -8.17617,-45.74134 -18.95899,-57.13477 17.98458,4.08434 30.75085,3.82933 32.95508,2.75196 4.6809,-2.2879 -18.93405,-12.22913 -19.82226,-28.51172 15.33901,1.73177 22.71449,-0.81602 34.40039,-13.8086 3.56927,-3.96837 -16.66806,4.24848 -15.79883,1.66211 -44.6276,-41.507774 -3.45026,-21.6669 -1.77539,-29.921872 -63.24416,-34.577264 -14.25053,-23.31141 -17.38281,-33.335937 -47.00233,-20.780869 -29.44399,-9.798687 -10.25,-36.216797 -10.76897,3.06729 -26.12805,7.357572 -45.9961,4.101562 0.14997,-3.985 -35.35752,-13.667077 -90.77539,-14.779297 -19.35833,-0.38852 -32.19051,1.116255 -33.47461,20.333985 71.13681,83.505176 70.54254,116.227386 34.3457,123.744136 8.58536,17.13908 14.65679,27.14835 12.07227,32.51954 -4.35045,9.04116 -27.62902,16.91558 -78.39648,45.61914 23.90119,8.30033 75.95433,-18.49886 0.2207,31.16797 -49.50213,23.40134 -10.92865,14.1593 5.49414,13.42773 -12.14952,18.04248 -25.97495,35.93271 -48.48633,53.0332 l 11.61524,10.60547 c -76.97931,-11.17291 -20.31184,252.82257 -2.67579,377.375 z"
     id="path277" />
  <path
     id="rect17052"
     style="fill:#ffffff;stroke-width:1.5;stroke-linejoin:round"
     d="m 642.82141,55.639841 22.94397,1.696429 0.0918,21.160722 h -23.03575 z" />
  <path
     id="path16160"
     style="color:#000000;fill:#000000;stroke-width:1.5;stroke-linejoin:round"
     d="m 635.06431,31.47309 c -1.15479,0.34734 -2.66105,-1.28094 -3.32324,-3.70881 -0.49401,5.1617 -0.76593,10.63431 -0.0805,17.44725 1.28712,3.72996 2.96495,6.48311 4.72334,9.034891 -0.60288,3.56257 -1.99905,8.752497 -2.02047,11.571783 -0.0546,7.182341 2.93093,10.253295 7.23029,15.124646 6.11765,6.931556 13.88409,6.109418 27.26491,4.117969 0.78069,-0.11619 2.37733,3.139036 2.79759,3.274888 1.00046,0.323413 3.15589,2.400485 3.60888,0.168942 0.17122,-0.843421 -0.0542,-2.528484 0.58189,-3.653183 1.26913,-2.244004 1.40791,-7.05979 1.4253,-7.404152 0.21886,-4.61971 1.00062,-1.612052 -0.84462,-4.619057 -2.07966,-3.389018 -6.98951,-12.656726 -10.1777,-15.635407 -5.12082,-4.78431 -19.40996,-11.98361 -27.47995,-12.77828 -0.98601,-0.0971 -0.87561,-2.36967 -1.72013,-2.72352 -2.8824,-1.20771 -1.49202,-7.56026 -1.98561,-10.21796 z m 10.52498,24.795653 c 5.57315,1.648376 9.31207,2.968353 12.61072,5.14188 0.83493,0.550149 1.80879,0.904285 2.58124,1.625977 0.24066,0.224847 -0.12821,0.683331 -0.38956,0.836907 -0.61434,0.361007 -1.8566,1.421353 -4.60325,0.406671 -1.07963,-0.398842 0.88861,-3.219148 0.64108,-3.776435 -0.9379,-2.111521 -5.47787,-4.912531 -6.79778,-2.596308 -5.79352,10.166653 0.43573,15.112907 6.1808,14.4382 2.06898,-0.242983 6.95474,-2.763335 8.43082,-1.949169 2.58931,1.428196 0.9347,4.514208 1.06468,4.506205 -9.26264,2.985219 -11.49593,4.270001 -16.6875,0.147322 -3.58036,-2.843191 -7.38066,-3.927903 -3.03125,-18.78125 z" />
  <path
     d="m 747.25586,517.65234 c 8.12229,-68.11543 10.69852,-117.0535 1.02344,-141.57031 m -260.48828,0 c -9.87143,24.64993 -7.32593,72.35253 1.02539,141.57227 M 994.07143,69.746992 C 1040.2814,63.147982 1096.6577,60.78491 1121.9286,45.46128 m -320,415.71429 7.14286,32.85714 m 48.57143,-54.28572 13.57142,40.71429 m 37.85715,-63.57143 17.14285,30.71429 m 18.57143,-62.85715 22.14286,24.28572 m -1.42857,-57.14286 19.28571,12.14286 m -4.28571,-49.28572 22.85717,5.71429 m -7.85717,-46.42857 19.99997,5.71428 m -14.2857,-42.14285 h 10 m -11.42856,-22.14286 c 25.87466,12.23297 60.03846,24.08916 4.99996,40 36.0398,19.48492 39.6874,35.73063 -19.28567,45.71428 9.69991,-1.95101 103.23907,42.77802 -12.85714,33.57143 71.13301,62.82509 19.98113,56.45608 -12.14286,40 62.08777,45.6301 11.02322,69.86341 -30.71429,35.71429 54.79091,85.44652 -26.06942,77.7261 -40,27.85714 18.89907,54.36909 -32.28073,108.49589 -55.71428,14.28572 4.87492,103.72792 -52.8735,73.58653 -62.85715,13.57143 m 27.85715,228.57142 v -170 M 926.9286,802.60414 C 917.5758,760.70728 904.25635,621.6942 891.21431,482.03271 M 1089.7857,782.60414 C 1053.4691,691.42961 1020.126,545.758 985.50003,422.46128 m 180.71427,107.28571 c -34.3149,-51.10483 -52.8452,-69.62216 -142.8571,-235.71428 m 21.4285,-82.14286 c 90.8594,91.66032 106.721,97.85811 117.1429,97.85714 m 5.7143,-149.28571 c -42.535,4.06862 -87.9666,-4.89747 -134.2857,-17.85714 M 241.92857,69.746992 C 195.71858,63.147982 139.34233,60.78491 114.07143,45.46128 M 435.5,461.17557 l -7.14286,32.85714 m -48.57143,-54.28572 -13.57142,40.71429 m -37.85715,-63.57143 -17.14285,30.71429 M 292.64286,384.74699 270.5,409.03271 m 1.42857,-57.14286 -19.28571,12.14286 m 4.28571,-49.28572 -22.85714,5.71429 m 7.85714,-46.42857 -20,5.71428 m 14.28572,-42.14285 h -10 m 11.42857,-22.14286 c -25.87468,12.23297 -60.03844,24.08916 -5,40 -36.03975,19.48492 -39.68733,35.73063 19.28571,45.71428 -9.69992,-1.95101 -103.23907,42.77802 12.85714,33.57143 -71.133,62.82509 -19.98113,56.45608 12.14286,40 -62.08777,45.6301 -11.02322,69.86341 30.71429,35.71429 -54.79091,85.44652 26.06942,77.7261 40,27.85714 -18.89907,54.36909 32.28073,108.49589 55.71428,14.28572 -4.87492,103.72792 52.8735,73.58653 62.85715,13.57143 m -27.85715,228.57142 v -170 M 310.5,802.60414 c 9.3528,-41.89686 22.67225,-180.90994 35.71429,-320.57143 M 147.64286,782.60414 C 183.95949,691.42961 217.30258,545.758 251.92857,422.46128 M 71.21428,529.74699 C 105.5292,478.64216 124.05954,460.12483 214.07143,294.03271 M 192.64286,211.88985 C 101.78351,303.55017 85.92189,309.74796 75.5,309.74699 M 69.78571,160.46128 c 42.53502,4.06862 87.96664,-4.89747 134.28572,-17.85714"
     style="color:#000000;fill:none;stroke:#000000;stroke-width:1.5;stroke-linejoin:round"
     id="path1274" />
</svg>
