<?xml version="1.0" encoding="UTF-8" standalone="no"?>
<svg
   version="1.1"
   width="4514.1191"
   height="5790.3218"
   viewBox="0 0 4514.1191 5790.3219"
   id="svg14"
   xmlns="http://www.w3.org/2000/svg"
   xmlns:svg="http://www.w3.org/2000/svg"
   xmlns:rdf="http://www.w3.org/1999/02/22-rdf-syntax-ns#"
   xmlns:cc="http://creativecommons.org/ns#"
   xmlns:dc="http://purl.org/dc/elements/1.1/">
  <defs
     id="defs18" />
  <g
     id="langued"
     transform="translate(-242.94053,-147.86852)">
    <path
       style="fill:#00ffff;stroke:#000000;stroke-width:1.5;stroke-miterlimit:5"
       d="m 2490,734 c -247,-6 -458,-4 -709,-146 132,200 443,254 712,248"
       id="path2" />
  </g>
  <g
     id="legged"
     transform="translate(-242.94053,-147.86852)">
    <path
       style="fill:#ff00ff;stroke:#000000;stroke-width:1.5;stroke-miterlimit:5"
       d="M 1813,4108 1321,4721 943,4551 820,4664 807,4886 941,4750 951.31859,4554.7412 941,4750 l 329,54 -480,282 99,290 35,-244 -125,-55 218,96 306,-292 -13,583 201,90 -90.6161,-189.9085 -108,-7 L 1513,5370 1409,4860 1772,5047 1898.215,4907.1402 1772,5045 l 10,177 138,-163 -8,-148 -475,-133 585,-542"
       id="path4" />
    <path
       style="fill:#ff00ff;stroke:#000000;stroke-width:1.5;stroke-miterlimit:5"
       d="m 3187,4108 492,613 378,-170 123,113 13,222 -134,-136 -9.8618,-195.4643 L 4059,4750 l -329,54 480,282 -99,290 -35,-244 125,-55 -218,96 -306,-292 13,583 -201,90 86,-189 112.6319,-7.1983 L 3487,5370 3591,4860 3228,5047 3102.3752,4906.9749 3228,5045 l -10,177 -138,-163 8,-148 475,-133 -585,-542"
       id="path6" />
  </g>
  <g
     id="beaked"
     transform="translate(-242.94053,-147.86852)">
    <path
       style="fill:#ff0000;stroke:#000000;stroke-width:1.5;stroke-miterlimit:5"
       d="m 2350,285 c -233,-204 -590,-98 -359,308 150,-122 279,19 329,144 -94,49 -232,74 -367,64 175,123 384,95 564,-3"
       id="path8" />
  </g>
  <path
     style="fill:#ffff00;stroke:#000000;stroke-width:15;stroke-miterlimit:5;stroke-dasharray:none"
     d="m 2103.4072,7.5220805 c -19.8937,0.3667 -37.4688,5.4452995 -52.3438,16.6015995 -136,102 131.9961,456.0117 155.9961,612.0117 8,57 -60.2666,71.6397 -125.9961,91.9922 34.7749,390.75942 -290.5025,399.75782 -345.9766,951.77732 C 314.60839,1517.252 344.70319,864.93438 540.06729,611.13538 c 202,294 623.99221,157.9961 686.99221,-119.0039 -399.00003,-615 -940.00003,-57 -1215.000032,-235 25,97 93.000002,197 190.000002,235 -87,88 -185.000002,202 -185.000002,460 V 4881.7408 L 292.05949,4650.9791 V 1651.2917 c 25.2247,26.3179 51.9732,51.4833 80,75.6445 v 2856.914 l 275,-230.7618 V 1911.5065 c 26.1291,13.7668 52.7947,27.0264 80,39.7461 V 4285.9595 L 1002.0595,4055.2173 V 2058.0104 c 26.3969,8.449 53.0883,16.5337 80,24.2773 v 1905.8007 l 275,-230.7617 V 2148.3229 c 26.5615,5.2517 53.2399,10.2317 80,14.9414 v 1526.9335 l 275,-230.7617 V 2202.4049 c 11.0024,1.2256 22.0115,2.5818 33.0078,3.7305 27,316 84.9961,741.0039 190.9961,1146.5038 l -725.9961,791.9922 401.9922,-79.4922 -11.9922,531.9922 336.9922,-505.5078 c 0,1205.5001 -331.9922,1310.5001 -606.9922,1212.5001 32,225 444.9922,319.0039 641.9922,159.0039 l 285,315.9961 285,-315.9961 c 197,160 609.9922,65.9961 641.9922,-159.0039 -275,98 -606.9922,-7 -606.9922,-1212.5001 l 336.9922,505.5078 -11.9922,-531.9922 401.9922,79.4922 -725.9961,-791.9922 c 106,-405.4999 163.9961,-830.5038 190.9961,-1146.5038 10.9963,-1.1487 22.0054,-2.5049 33.0078,-3.7305 v 1257.0312 l 275,230.7617 V 2163.2643 c 26.7601,-4.7097 53.4385,-9.6897 80,-14.9414 v 1609.0038 l 275,230.7617 V 2082.2877 c 26.9117,-7.7436 53.6031,-15.8283 80,-24.2773 v 1997.2069 l 275,230.7422 V 1951.2526 c 27.2053,-12.7197 53.8709,-25.9793 80,-39.7461 v 2441.5819 l 275,230.7618 v -2856.914 c 28.0268,-24.1612 54.7753,-49.3266 80,-75.6445 v 2999.6874 l 275,230.7617 V 952.13148 c 0,-258 -98,-372 -185,-460 97,-38 165,-138 190,-235 -275,178 -816,-380 -1215,235 63,277 484.9922,413.0039 686.9922,119.0039 192.6467,250.2687 224.7413,888.08272 -1136.4258,1061.73832 3.1497,-343.7349 -53.1324,-811.42012 -230.5664,-1313.75002 109,-32 174.0078,-72 233.0078,-160 C 2580.8954,314.01428 2265.3981,4.5364805 2103.4072,7.5220805 Z"
     id="path10" />
  <path
     d="m 2083.8595,119.83148 c -8.7,-4.6 -18.2,-0.1 -16.2,16.5 6.8,55.8 30,96.7 53.7,138.3 8.7,15.2 19.7,24.7 40.1,9.8 27.6,-20.2 52.9,-44.1 72.7,-72 -60.6129,-39.9123 -66.2523,-67.0946 -104.8172,31.3643 -4.9,-40.7 -2.3914,-56.0041 6.4086,-91.5041 z"
     style="fill:#eeeeee;stroke:#000000;stroke-width:1.5;stroke-miterlimit:5"
     id="path12" />
  <metadata
     id="metadata18">
    <rdf:RDF>
      <cc:Work
         rdf:about="">
        <dc:creator>
          <cc:Agent>
            <dc:title>vlk2020</dc:title>
          </cc:Agent>
        </dc:creator>
      </cc:Work>
    </rdf:RDF>
  </metadata>
  <g
     id="clawed"
     transform="translate(-242.94053,-147.86852)">
    <path
       style="fill:#800080;stroke:#000000;stroke-width:0.151586;stroke-miterlimit:5;stroke-dasharray:none"
       d="m 80.128699,507.70888 c -0.397382,0.32394 -1.266006,0.47095 -1.23124,1.10985 3.1804,9.46279 6.388925,18.9173 9.687874,28.33905 0.447081,0.48032 0.681151,-0.28944 0.656129,-0.65963 1.132496,-7.73434 2.259439,-15.46977 3.336025,-23.21198 -0.172701,-0.55381 -0.967282,-0.5357 -1.39503,-0.84514 -3.5939,-1.58468 -7.190022,-3.16433 -10.785522,-4.74538 -0.08663,0.0141 -0.188334,-0.0321 -0.268236,0.0132 z"
       id="path2869"
       transform="scale(10)" />
    <path
       style="fill:#800080;stroke:#000000;stroke-width:0.0535937;stroke-miterlimit:5;stroke-dasharray:none"
       d="m 131.33271,535.51902 c -0.30142,0.0251 -0.31885,0.35612 -0.30522,0.59 -0.0906,3.41745 -0.18053,6.83528 -0.23783,10.25337 0.0765,0.33329 0.48928,0.35043 0.73758,0.50752 6.40753,2.87595 12.81464,5.75287 19.22864,8.61436 0.27933,0.13073 0.56776,-0.21964 0.39177,-0.47306 -2.95711,-6.21814 -5.91955,-12.43375 -8.89062,-18.64523 -0.19151,-0.27428 -0.5693,-0.15447 -0.85354,-0.21306 -3.35619,-0.22128 -6.71259,-0.44709 -10.07078,-0.6339 z"
       id="path2971"
       transform="scale(10)" />
    <path
       style="fill:#800080;stroke:#000000;stroke-width:0.214375;stroke-miterlimit:5;stroke-dasharray:none"
       d="m 189.68116,490.59153 c -4.22652,4.63508 -8.41056,9.31149 -12.61908,13.96395 -0.0289,2.07066 0.24616,4.20024 0.30966,6.29493 0.24574,3.61463 0.30276,7.25017 0.6835,10.85142 0.16787,0.64485 0.85696,0.18614 1.01846,-0.21433 4.35883,-5.13851 8.69894,-10.29288 13.05183,-15.43642 0.0535,-2.53728 -0.25112,-5.12296 -0.33486,-7.67899 -0.16884,-2.39938 -0.18582,-4.82981 -0.4121,-7.21029 -0.3386,-0.49535 -1.17472,-0.55867 -1.69741,-0.57027 z"
       id="path2977"
       transform="scale(10)" />
    <path
       style="fill:#800080;stroke:#000000;stroke-width:0.214375;stroke-miterlimit:5;stroke-dasharray:none"
       d="m 94.229415,455.00002 c -4.169719,3.68509 -8.287111,7.4381 -12.329059,11.26473 -0.338068,2.64277 -0.339773,5.36918 -0.548595,8.04409 -0.282817,4.67169 -0.527304,9.3496 -0.853215,14.01501 0.540816,0.83609 1.270057,-0.77981 1.81828,-1.08941 3.93905,-4.03235 7.979758,-7.99287 11.855257,-12.07024 0.455735,-4.07529 0.509208,-8.20021 0.771391,-12.29652 0.05557,-2.43661 0.388494,-4.88734 0.212665,-7.31944 -0.103457,-0.3452 -0.57502,-0.65453 -0.926724,-0.54822 z"
       id="path2979"
       transform="scale(10)" />
    <path
       style="fill:#800080;stroke:#000000;stroke-width:0.303172;stroke-miterlimit:5;stroke-dasharray:none"
       d="m 419.83391,507.89461 c -2.71742,0.67504 -5.1932,2.12824 -7.79276,3.15538 -1.45078,0.72394 -3.0746,1.21119 -4.41543,2.10117 0.33744,4.84726 1.23003,9.67332 1.86544,14.49956 0.47839,3.06474 0.85287,6.15364 1.44221,9.19678 0.78322,0.51157 0.75956,-0.992 1.069,-1.39388 3.1111,-8.89295 6.08177,-17.83455 9.15396,-26.74108 0.0147,-0.48315 -0.8706,-0.78755 -1.32242,-0.81793 z"
       id="path2983"
       transform="scale(10)" />
    <path
       style="fill:#800080;stroke:#000000;stroke-width:0.0535937;stroke-miterlimit:5;stroke-dasharray:none"
       d="m 405.5826,454.91461 c -0.28621,0.17136 -0.72283,0.21493 -0.85966,0.56162 -0.02,0.64757 0.0572,1.3006 0.0745,1.95014 0.29101,5.82902 0.58843,11.6623 0.87822,17.48852 0.10948,0.34601 0.44127,0.56404 0.66422,0.83633 3.92657,3.99768 7.86294,7.98539 11.79829,11.97451 0.30271,0.2726 0.55496,0.61962 0.91337,0.82087 0.27172,0.10664 0.49772,-0.19614 0.42642,-0.44846 -0.4037,-7.2013 -0.82591,-14.40161 -1.26718,-21.60068 7.4e-4,-0.35554 -0.38726,-0.50796 -0.58915,-0.74724 -3.92109,-3.59307 -7.83529,-7.19869 -11.75648,-10.78852 -0.0864,-0.0701 -0.1791,-0.0624 -0.28251,-0.0471 z"
       id="path2985"
       transform="scale(10)" />
    <path
       style="fill:#800080;stroke:#000000;stroke-width:0.303172;stroke-miterlimit:5;stroke-dasharray:none"
       d="m 309.7751,490.67857 c -0.85546,-0.0697 -1.20404,0.70679 -1.11676,1.45506 -0.35433,4.612 -0.68081,9.26451 -0.78004,13.86853 4.4916,5.34441 8.9253,10.76013 13.61865,15.92203 0.85766,-0.0555 0.34939,-1.36246 0.57538,-1.93936 0.29647,-5.14507 0.71941,-10.3252 0.83677,-15.45324 -4.15558,-4.46717 -8.03443,-9.21954 -12.38476,-13.50446 -0.21641,-0.16799 -0.46022,-0.3576 -0.74924,-0.34856 z"
       id="path2987"
       transform="scale(10)" />
    <path
       style="fill:#800080;stroke:#000000;stroke-width:0.535937;stroke-miterlimit:5;stroke-dasharray:none"
       d="m 3686.5808,5355.1902 c 3.0142,0.251 3.1885,3.5612 3.0522,5.9 0.906,34.1745 1.8053,68.3528 2.3783,102.5337 -0.765,3.3329 -4.8928,3.5043 -7.3758,5.0752 -64.0753,28.7595 -128.1464,57.5287 -192.2864,86.1436 -2.7933,1.3073 -5.6776,-2.1964 -3.9177,-4.7306 29.5711,-62.1814 59.1955,-124.3375 88.9062,-186.4523 1.9151,-2.7428 5.693,-1.5447 8.5354,-2.1306 33.5619,-2.2128 67.1259,-4.4709 100.7078,-6.339 z"
       id="path26" />
  </g>
</svg>
