<?xml version="1.0" encoding="UTF-8" standalone="no"?>
<!DOCTYPE svg PUBLIC "-//W3C//DTD SVG 1.1//EN" "http://www.w3.org/Graphics/SVG/1.1/DTD/svg11.dtd">
<svg xmlns:dc="http://purl.org/dc/elements/1.1/" xmlns:xl="http://www.w3.org/1999/xlink" version="1.1" xmlns="http://www.w3.org/2000/svg" viewBox="80.38876 61.33463 238.5 349.83075" width="238.5" height="349.83075">
  <defs>
    <clipPath id="artboard_clip_path">
      <path d="M 80.38876 61.33463 L 318.88876 61.33463 L 318.88876 411.16537 L 80.38876 411.16537 Z"/>
    </clipPath>
  </defs>
  <metadata> Produced by OmniGraffle 7.8 
    <dc:date>2018-07-22 18:16:24 +0000</dc:date><dc:title>Traceable heraldic art http://heraldicart.org/credits.html</dc:title>
  </metadata>
  <g id="Sea-Dragon" fill-opacity="1" stroke-dasharray="none" stroke="none" stroke-opacity="1" fill="#ffff00">
    <title>Sea-Dragon</title>
    <g id="Sea-Dragon: Layer 2" >
      <title>Layer 2</title>
      <g id="Group_3">
        <g id="Graphic_26">
          <path d="M 303.5445 63.655614 C 300.43823 64.432185 291.2303 70.31194 282.9099 76.63544 C 278.91612 79.63079 268.48788 89.50433 259.6128 98.6013 C 244.96888 113.46709 240.7532 116.90619 240.7532 114.02178 C 240.7532 113.46709 241.52978 112.46864 242.4173 111.69207 C 243.3048 110.9155 243.97043 109.69518 243.97043 109.02954 C 243.8595 108.36391 244.08137 106.92171 244.63606 105.81232 C 245.74545 103.14979 245.07982 102.70604 241.19696 103.48261 C 237.09223 104.25918 232.1 112.9124 230.54685 121.67656 C 226.33118 147.08152 226.88587 156.06755 233.65313 172.2646 C 238.9782 185.1335 239.42194 187.24133 236.7594 189.4601 C 235.8719 190.23667 234.31876 192.23357 233.43125 193.89765 C 232.65468 195.56173 230.76872 197.33675 229.43746 197.66957 C 227.99526 198.11332 225.44367 199.55552 223.5577 200.8868 C 218.1217 204.76964 214.6826 206.21185 211.4654 205.7681 L 208.3591 205.43528 L 210.68882 202.43993 C 212.02008 200.8868 214.57167 199.2227 216.3467 198.77895 C 219.56391 198.11332 220.78424 195.67267 218.56547 194.3414 C 218.01077 194.0086 217.45608 191.67888 217.45608 189.34916 C 217.45608 185.68819 218.1217 184.5788 221.33893 182.0272 C 223.44677 180.47407 225.2218 178.5881 225.2218 177.81154 C 225.2218 177.1459 223.66865 175.149 221.89363 173.48493 C 217.67796 169.49114 216.56857 165.49734 219.00922 162.83481 C 221.33893 160.28322 221.228 158.73008 218.89828 157.84257 C 211.2435 155.0691 209.24662 151.85188 212.13102 147.19246 C 213.90604 144.41899 212.46384 142.97679 209.69037 144.7518 C 206.9169 146.52682 201.70278 146.41589 199.484 144.64087 C 196.37773 142.31115 195.93397 138.65018 198.5965 137.20797 C 200.14964 136.32046 200.81527 135.10014 200.5934 132.77043 C 200.48246 130.9954 201.1481 128.6657 202.25748 127.44537 C 204.5872 124.89378 204.69813 121.67656 202.47935 121.67656 C 201.59184 121.67656 200.81527 122.12031 200.81527 122.675 C 200.81527 123.2297 198.70744 124.78284 196.15585 126.1141 C 193.49332 127.44537 189.61046 129.5532 187.50263 130.88447 C 185.3948 132.1048 184.2854 132.43761 185.06198 131.66104 C 186.837 129.66414 186.837 127.22349 184.95104 127.22349 C 183.17602 127.22349 176.85251 133.87981 168.1993 144.7518 C 163.6508 150.40968 160.65546 152.96127 158.21481 153.6269 C 155.10853 154.40347 154.66477 155.0691 153.99914 159.72853 C 153.22257 165.3864 148.34127 171.04428 143.12715 172.37554 C 139.2443 173.374 138.02397 175.37089 136.47083 183.91317 C 134.36299 195.11798 136.6927 198.66801 140.90837 190.45855 C 143.5709 185.35537 146.45531 183.46941 150.4491 184.46786 L 153.33351 185.24443 L 149.11784 189.4601 C 143.90372 194.78516 138.1349 197.00393 135.69426 194.56328 C 134.25205 193.12108 133.58642 193.23202 129.70357 195.33985 C 124.82226 198.00238 124.26757 199.7774 127.81761 201.66336 C 129.25981 202.43993 130.81295 203.66026 131.2567 204.43683 C 132.58797 206.76654 134.03018 206.32279 134.47393 203.43838 C 134.6958 201.55242 135.69426 200.8868 139.2443 200.3321 C 143.5709 199.7774 147.67564 197.89144 152.77882 194.23047 C 154.4429 193.01014 155.3304 192.8992 155.3304 193.67577 C 155.3304 194.56328 156.21792 194.78516 157.54918 194.3414 C 161.3211 193.12108 167.53366 194.8961 167.53366 197.2258 C 167.53366 198.44614 167.0899 199.33365 166.53521 199.33365 C 164.64926 199.33365 157.54918 206.98842 157.54918 209.09625 C 157.54918 210.42752 155.99604 212.20254 153.77726 213.5338 C 149.11784 216.30727 146.01155 221.8542 146.89906 225.62612 C 147.45376 227.62302 146.89906 229.06522 144.45841 231.50587 C 141.46307 234.39028 141.01931 234.61215 139.13336 233.16995 C 137.91303 232.28244 136.24895 231.50587 135.36144 231.50587 C 132.47703 231.50587 122.0488 223.8511 122.0488 221.74326 C 122.0488 220.63388 120.38471 216.52915 118.38782 212.6463 C 115.28153 206.32279 114.39402 205.32434 110.73305 204.43683 C 106.2955 203.32744 104.18766 204.104 106.18456 206.1009 C 106.85019 206.76654 107.18301 208.0978 106.85019 209.09625 C 106.40644 209.98376 106.96113 211.31503 107.84864 211.98066 C 108.73615 212.6463 109.95648 214.976 110.40023 216.9729 C 111.06586 220.19012 110.95493 220.63388 109.40178 220.07918 C 108.40333 219.63543 103.63297 218.9698 98.75167 218.63698 C 88.43437 217.74947 84.32964 219.41355 84.32964 224.4058 C 84.32964 226.95738 84.55151 227.17926 86.10466 225.848 C 87.54686 224.7386 87.99061 224.7386 88.76718 225.848 C 89.32188 226.84645 90.76408 227.06832 92.87192 226.62457 C 96.53289 225.73706 102.07983 226.7355 102.07983 228.1777 C 102.07983 228.7324 99.75012 230.1746 96.86571 231.6168 C 89.76563 235.0559 87.6578 237.38562 87.6578 242.04505 C 87.6578 246.03884 89.43282 247.25917 90.65314 244.15288 C 91.0969 242.93256 92.09535 242.59974 93.87036 243.0435 C 95.86726 243.5982 96.86571 243.0435 98.30791 241.0466 C 99.97199 238.38407 107.18301 235.0559 108.40333 236.38717 C 108.73615 236.72 108.18146 237.71844 107.18301 238.7169 C 106.18456 239.71533 105.40799 241.15754 105.40799 241.9341 C 105.40799 242.82162 104.63142 244.04194 103.74391 244.81851 C 101.85795 246.37166 101.52514 250.36545 103.18922 250.36545 C 103.85485 250.36545 104.2986 251.14202 104.2986 252.02953 C 104.2986 254.35924 106.18456 254.13737 107.62676 251.47484 C 108.2924 250.2545 109.7346 249.25606 110.84399 249.25606 C 112.28619 249.25606 113.1737 248.14668 113.61745 245.48415 C 114.06121 243.48725 115.39247 240.82472 116.6128 239.71533 C 118.94251 237.6075 118.94251 237.6075 121.93786 241.0466 C 123.491 242.93256 127.37385 246.14978 130.48014 248.03574 C 134.14111 250.2545 137.80209 253.80455 140.6865 258.13116 C 145.0131 264.34373 145.12405 264.67654 142.90527 265.4531 C 141.68495 265.78593 136.80364 266.11875 132.14422 266.11875 C 127.48479 266.0078 121.38316 266.5625 118.49876 267.22813 C 112.95182 268.5594 107.7377 267.56095 100.08293 263.56716 C 95.9782 261.45932 89.98751 262.2359 86.43747 265.4531 C 82.99837 268.5594 83.88588 271.66568 87.54686 269.33597 C 88.65625 268.67034 89.87657 269.22503 91.65159 271.33286 C 93.53755 273.55164 94.42506 273.88445 95.53445 272.886 C 96.86571 271.55474 98.86261 271.9985 102.96734 274.5501 L 105.40799 276.10323 L 101.30326 279.9861 C 99.08448 282.09392 95.42351 285.08926 93.09379 286.42053 C 90.87502 287.86273 87.87967 290.6362 86.54841 292.52216 C 84.44058 295.5175 84.2187 296.405 85.43902 299.17848 C 86.88123 302.61758 89.87657 303.72697 89.87657 300.84256 C 89.87657 299.8441 90.87502 299.17848 92.42816 299.17848 C 94.31412 299.17848 95.53445 298.0691 96.86571 294.85187 C 97.9751 292.52216 99.63918 290.19244 100.74856 289.85963 C 101.74701 289.5268 103.30015 288.86118 104.18766 288.52836 C 105.40799 287.86273 105.62987 289.194 104.96424 295.85032 C 104.18766 303.61603 104.2986 303.94884 107.18301 307.05513 C 110.84399 310.93798 112.28619 311.15986 111.95337 307.72076 C 111.7315 306.3895 112.28619 304.17072 112.95182 302.7285 C 113.72839 301.39725 114.06121 299.73317 113.72839 299.17848 C 113.39558 298.6238 113.39558 295.5175 113.83933 292.41122 C 114.6159 286.97522 114.72684 286.75334 116.0581 289.30493 C 116.83468 290.74714 117.50031 293.1878 117.61125 294.74093 C 117.61125 298.51285 119.4972 300.28787 123.38006 300.28787 C 126.26447 300.28787 126.48634 299.95505 126.48634 296.0722 C 126.48634 293.7425 125.93165 291.30183 125.26602 290.6362 C 124.60039 289.97057 124.26757 287.5299 124.48945 285.2002 L 124.82226 280.8736 L 139.46617 280.54078 L 154.11008 280.20796 L 154.88665 283.09237 C 155.77416 286.53147 156.88355 286.6424 160.32265 283.2033 L 162.87424 280.6517 L 164.7602 285.42208 C 165.98052 288.75024 167.31179 290.3034 168.97587 290.52526 C 170.41807 290.74714 172.08215 292.30028 172.96966 294.18624 C 174.85562 298.4019 178.62753 302.50664 180.5135 302.50664 C 181.401 302.50664 181.9557 303.8379 181.9557 305.72386 C 181.9557 307.94264 182.95414 309.8286 185.17292 311.71455 L 188.39014 314.37708 L 183.84165 316.92867 C 181.29006 318.37087 178.96035 319.81308 178.62753 320.1459 C 178.07284 320.92246 176.40876 321.80997 168.08836 326.69128 C 164.98207 328.57724 161.76485 330.796 160.98828 331.79446 C 160.2117 332.7929 158.88044 333.56948 158.10387 333.56948 C 155.66322 333.56948 147.78657 343.44302 143.90372 351.20873 C 140.46462 358.19787 140.35368 358.97444 140.35368 371.84333 L 140.35368 385.15597 L 145.90062 393.14356 C 150.4491 399.7999 152.446 401.5749 158.21481 404.4593 C 169.0868 409.8953 185.06198 411.11563 193.82614 407.23277 C 195.7121 406.34527 197.709 405.67963 198.26368 405.67963 C 198.70744 405.67963 204.5872 400.1327 211.13257 393.2545 C 221.00612 383.15908 223.00301 380.49655 222.55926 378.3887 C 221.5608 374.50586 223.00301 369.29174 226.1093 366.2964 C 228.6609 363.7448 228.77183 363.07917 228.1062 356.20097 C 227.44056 349.9884 227.77338 348.10245 229.65934 343.9977 C 231.8781 339.56017 231.8781 339.00547 230.32497 336.67576 C 227.88432 333.23666 228.1062 330.01944 231.32342 323.3631 C 234.65158 316.4849 234.65158 315.93022 232.21093 314.04427 C 229.32652 311.8255 231.76717 310.7161 241.08602 309.93953 C 254.62054 308.83015 268.93164 302.17382 277.1411 293.07685 C 283.57555 285.97677 287.1256 277.2126 289.12248 263.1234 C 289.89905 257.57647 290.8975 251.03108 291.34126 248.36855 C 291.785 245.26227 291.67407 243.70913 290.78656 243.70913 C 290.12093 243.70913 289.56624 244.37476 289.56624 245.15133 C 289.56624 246.03884 288.0131 248.92325 286.23807 251.6967 C 283.4646 255.9124 281.1349 257.57647 271.48323 262.34683 C 265.27066 265.4531 257.50495 268.8922 254.28773 269.89066 C 251.0705 270.8891 248.1861 272.10944 247.85328 272.66413 C 246.30014 275.32666 245.3017 273.21882 246.85484 270.33442 C 247.74235 268.5594 248.51892 264.2328 248.51892 260.68275 C 248.51892 250.92014 250.5158 240.71378 253.51116 234.7231 C 255.0643 231.8387 256.28463 228.84334 256.28463 228.1777 C 256.28463 226.1808 253.0674 227.06832 252.40177 229.2871 C 252.06895 230.50742 249.6283 232.94807 246.96577 234.7231 C 241.75166 238.38407 228.54995 252.02953 228.54995 253.80455 C 228.54995 254.47018 227.5515 256.2452 226.44211 257.6874 C 225.2218 259.24055 223.33583 263.89997 222.22644 268.22658 C 220.00767 276.76886 218.45453 277.65637 215.12637 271.9985 C 213.01853 268.44846 212.3529 261.45932 214.01698 261.45932 C 214.57167 261.45932 215.45918 260.34993 215.90294 258.90773 C 217.34514 254.47018 227.10775 241.0466 232.9875 235.49966 C 238.4235 230.50742 252.84553 222.63077 256.72838 222.63077 C 257.72683 222.63077 258.5034 223.62922 258.5034 224.84955 C 258.5034 226.51363 259.27997 227.06832 261.27687 227.06832 C 263.27376 227.06832 264.05033 227.62302 264.05033 229.2871 C 264.05033 232.1715 265.7144 232.06056 267.82225 229.06522 C 270.15196 225.73706 270.04102 221.96514 267.48943 218.4151 C 264.05033 213.5338 261.83156 207.09936 261.83156 202.10711 C 261.83156 195.67267 266.491 186.021 271.81604 181.1397 C 276.2536 177.1459 277.25204 176.70215 281.02396 177.1459 C 282.13334 177.25685 283.79742 176.70215 284.68493 176.03652 C 285.90526 174.92713 286.23807 175.03807 286.23807 176.48027 C 286.23807 177.47872 286.79277 178.2553 287.34746 178.2553 C 288.0131 178.2553 288.45685 176.03652 288.45685 173.374 C 288.45685 169.15832 288.12403 168.38175 285.79432 167.82706 C 277.91767 165.83016 273.03637 156.1785 275.36608 147.41433 C 277.80673 138.4283 286.12714 127.77818 288.67873 130.32977 C 289.4553 131.10634 291.4522 131.66104 293.11627 131.66104 C 296.00068 131.66104 296.22256 131.32822 296.22256 126.89067 C 296.22256 121.89843 294.8913 120.78905 287.01465 119.01403 C 282.46616 117.90464 279.35988 112.24677 280.2474 106.69983 C 282.0224 94.94033 298.8851 71.75414 305.5414 71.75414 C 306.9836 71.75414 308.4258 70.97757 308.86957 70.09006 C 309.31332 68.86973 310.31177 68.53692 312.30867 69.09161 C 315.5259 69.86818 315.8587 68.86973 313.3071 65.319694 C 311.64304 62.87904 308.53675 62.43529 303.5445 63.655614 Z M 173.30248 175.03807 L 173.30248 175.03807 C 171.0837 175.37089 168.08836 176.03652 166.7571 176.48027 C 164.7602 177.1459 164.31644 176.92403 164.87113 175.59276 C 165.20395 174.70525 166.2024 174.2615 166.97897 174.48338 C 167.75554 174.8162 168.97587 174.03962 169.6415 172.8193 C 170.86182 170.71146 170.97276 170.71146 174.18999 172.48648 L 177.51815 174.37244 L 173.30248 175.03807 Z M 160.32265 179.25374 L 160.32265 179.25374 C 160.65546 179.80844 159.43514 181.02876 157.54918 181.91627 C 154.4429 183.46941 154.22102 183.46941 154.22102 181.6944 C 154.22102 180.585 154.55384 179.36468 154.99759 179.03186 C 155.99604 177.92248 159.54608 178.14435 160.32265 179.25374 Z M 178.62753 186.021 L 178.62753 186.021 C 178.62753 186.5757 176.96345 187.90696 175.0775 188.9054 L 171.41652 190.79137 L 174.07905 187.79602 C 176.85251 184.80068 178.62753 184.13504 178.62753 186.021 Z M 199.26213 327.3569 L 199.26213 327.3569 C 200.14964 328.2444 200.81527 329.3538 200.81527 329.79756 C 200.81527 330.2413 201.70278 331.57258 202.70123 332.68197 C 204.25437 334.34605 204.47625 337.23045 204.47625 349.54465 L 204.47625 364.2995 L 200.5934 371.39957 C 193.7152 383.4919 185.94949 389.03883 175.74313 389.03883 C 168.64305 389.03883 165.53677 387.59662 160.2117 381.8278 C 154.4429 375.5043 156.4398 361.7479 164.87113 350.65404 C 166.42428 348.76808 171.6384 344.2196 176.5197 340.66955 C 181.401 337.00858 187.7245 332.2382 190.60891 330.01944 C 196.5996 325.36 197.04336 325.24907 199.26213 327.3569 Z" fill="#cccccc"/>
        </g>
        <g id="Graphic_25">
          <path d="M 302.76794 68.09316 C 302.76794 68.647856 299.88354 71.310384 296.44444 74.08385 C 286.23807 82.29332 274.70045 104.37012 276.69735 112.13583 C 277.91767 116.90619 283.79742 122.78594 287.34746 122.78594 C 290.67562 122.78594 295.33505 126.22504 293.00534 127.00161 C 292.3397 127.22349 291.00844 126.89067 290.12093 126.1141 C 287.1256 123.67345 278.69424 131.43916 274.36763 140.86895 C 271.7051 146.52682 270.92853 155.95661 272.8145 160.83792 C 274.2567 164.4989 280.69114 170.48958 283.35367 170.48958 C 285.01775 170.48958 285.1287 170.8224 284.0193 172.15366 C 282.9099 173.48493 282.24428 173.59587 281.02396 172.48648 C 279.91457 171.59897 279.138 171.59897 278.69424 172.37554 C 278.2505 173.04117 276.47547 174.2615 274.5895 175.25995 C 270.04102 177.58966 265.82535 182.24909 262.4972 188.5726 C 260.16748 192.8992 259.6128 195.4508 259.6128 202.21805 C 259.6128 209.2072 260.16748 211.5369 262.94095 217.08384 C 264.8269 220.74482 266.2691 223.96204 266.2691 224.29485 C 266.2691 224.62767 265.04878 224.84955 263.60658 224.84955 C 261.49874 224.84955 261.055 224.4058 261.49874 222.63077 C 262.05344 220.74482 261.49874 220.412 257.83777 220.412 C 245.19075 220.52294 230.54685 230.7293 218.89828 247.48104 C 210.02319 260.34993 209.4685 262.12495 211.2435 269.33597 C 212.46384 273.7735 213.90604 276.21417 216.90139 278.76576 C 220.6733 282.20486 220.89518 282.53767 220.22955 287.64085 C 219.67485 291.1909 220.00767 294.74093 221.11706 298.0691 C 222.00457 300.84256 223.11395 305.05823 223.5577 307.49888 C 224.00146 309.93953 224.88897 312.60206 225.5546 313.48957 C 226.664 314.7099 226.55305 314.93177 225.33273 314.48802 C 223.89052 314.04427 220.34049 302.50664 221.5608 302.50664 C 221.7827 302.50664 221.11706 300.9535 220.1186 298.9566 C 218.78734 296.51595 218.45453 293.5206 218.78734 288.41742 C 219.12016 282.3158 219.00922 281.31735 217.45608 281.7611 C 215.68106 282.20486 214.46073 280.09702 208.13723 265.89687 C 206.69503 262.5687 205.14188 258.68585 204.69813 257.24365 C 204.0325 254.803 200.81527 253.6936 200.81527 255.9124 C 200.81527 256.57802 202.5903 260.90463 204.69813 265.675 C 206.9169 270.33442 209.35755 275.65947 210.24506 277.54543 C 212.57478 282.6486 214.9045 289.85963 218.1217 301.95195 C 221.7827 315.93022 222.89208 333.6804 221.228 352.42906 C 219.2311 374.17304 215.2373 384.3794 204.0325 395.8061 C 198.15275 401.7968 195.60115 403.5718 190.8308 405.014 C 180.8463 408.00935 171.6384 407.0109 160.2117 401.68584 C 145.67874 395.0295 138.80054 375.7262 144.68029 357.64318 C 146.89906 350.65404 154.88665 338.89453 158.88044 336.7867 C 160.32265 336.01013 163.20705 334.01323 165.31489 332.34915 C 170.63995 328.2444 179.4041 323.585 181.84476 323.585 C 182.95414 323.585 184.17447 322.6975 184.39635 321.5881 C 184.72916 320.58965 186.50418 318.81463 188.39014 317.70524 L 191.7183 315.8193 L 193.1605 319.924 C 194.15895 323.14124 194.15895 324.1397 193.1605 324.4725 C 192.38393 324.69438 190.94173 325.80377 189.94328 326.91315 C 188.94483 327.9116 185.7276 330.13038 182.95414 331.79446 C 180.18068 333.3476 176.85251 335.78825 175.74313 337.00858 C 174.63374 338.33984 171.74933 340.5586 169.53056 342.0008 C 165.09301 344.7743 156.4398 355.64628 156.4398 358.41975 C 156.4398 359.30726 155.99604 360.3057 155.44134 360.74946 C 154.88665 361.08227 153.99914 364.0776 153.66633 367.29484 C 152.33506 377.834 156.10698 384.9341 166.2024 390.81385 C 170.41807 393.36544 171.97121 393.5873 176.74158 393.0326 C 179.73692 392.58887 184.2854 391.2576 186.837 389.92634 C 191.38548 387.70756 200.81527 379.38716 200.81527 377.7231 C 200.81527 377.1684 201.81372 375.39337 203.03405 373.7293 C 205.58564 370.2902 208.58098 357.64318 208.58098 349.87747 C 208.58098 342.2227 203.69968 321.0334 199.70589 311.71455 C 196.71054 304.50354 189.05577 291.7456 185.94949 288.52836 C 185.28386 287.86273 183.73071 285.42208 182.51039 282.98143 C 181.29006 280.6517 179.73692 278.10013 178.96035 277.32355 C 178.29472 276.547 177.29627 274.8829 176.96345 273.66258 C 176.63064 272.44225 175.85407 271.4438 175.41031 271.4438 C 174.85562 271.4438 174.74468 269.22503 175.0775 266.45156 C 175.41031 263.1234 175.18843 261.45932 174.30092 261.45932 C 173.6353 261.45932 173.0806 262.5687 173.0806 263.89997 C 173.0806 267.45 171.52746 269.4469 169.53056 268.67034 C 168.1993 268.11564 167.6446 269.1141 167.0899 272.99695 C 166.2024 278.54388 165.75864 278.8767 162.43048 276.43604 C 159.3242 274.10633 158.65857 274.43915 158.65857 278.322 C 158.65857 281.87204 158.65857 281.87204 156.99449 279.54233 C 155.44134 277.32355 154.55384 277.2126 139.57711 277.54543 C 130.81295 277.7673 123.26912 277.9892 122.71443 277.9892 C 122.15973 278.10013 122.0488 282.53767 122.27067 288.0846 C 122.82537 297.8472 121.82692 300.50974 120.38471 293.29873 C 119.27533 288.19555 116.72374 283.64706 114.94872 283.64706 C 113.06276 283.64706 109.84554 293.1878 109.84554 298.51285 C 109.84554 302.28476 108.40333 304.61448 107.18301 302.7285 C 106.96113 302.28476 107.18301 297.95815 107.84864 293.1878 C 108.40333 288.52836 108.73615 284.3127 108.2924 283.97988 C 107.62676 283.31424 99.30636 287.1971 96.42196 289.41587 C 95.42351 290.19244 94.31412 292.18934 93.87036 293.96436 C 93.31567 296.18313 92.5391 296.9597 90.43127 296.9597 C 87.6578 296.9597 87.6578 296.84877 89.43282 294.29718 C 90.32033 292.74403 92.76098 290.52526 94.75787 289.41587 C 100.97044 285.7549 107.62676 278.8767 107.62676 276.21417 C 107.62676 272.99695 101.85795 269.22503 96.86571 269.22503 C 94.31412 269.22503 93.20473 268.67034 93.20473 267.56095 C 93.20473 265.34217 97.53134 265.4531 102.19077 267.78283 C 107.40489 270.5563 133.2536 270.8891 141.68495 268.44846 C 148.67408 266.34062 150.33816 264.67654 153.0007 257.02177 C 154.11008 253.80455 156.21792 249.81076 157.77106 248.14668 C 163.318 241.82317 164.2055 239.71533 163.09612 235.83248 C 160.2117 225.848 163.98362 218.85886 183.3979 198.66801 C 191.94018 189.68198 197.04336 183.46941 198.5965 179.91937 C 202.0356 171.82085 201.4809 165.83016 196.82148 162.39106 C 193.49332 159.83947 187.94638 160.72698 186.94794 163.9442 C 186.50418 165.05359 185.50573 166.05204 184.50728 166.05204 C 183.17602 166.05204 182.95414 166.8286 183.61978 170.15677 C 183.9526 172.48648 185.06198 175.48183 185.94949 176.8131 C 187.3917 179.1428 187.3917 179.36468 185.06198 179.36468 C 181.401 179.47562 174.30092 183.1366 168.97587 187.79602 C 166.09146 190.12573 164.2055 191.23512 164.2055 190.34761 C 164.2055 189.4601 166.64615 186.68663 169.6415 184.0241 C 173.52435 180.69594 176.18688 179.36468 178.62753 179.36468 C 185.7276 179.36468 183.61978 173.7068 174.96656 169.49114 C 170.97276 167.49424 170.1962 167.3833 168.64305 168.8255 C 167.6446 169.71301 166.2024 170.48958 165.53677 170.48958 C 164.7602 170.48958 163.6508 171.48803 162.87424 172.70836 C 161.98673 174.15056 160.2117 174.92713 158.21481 174.92713 C 154.77571 174.92713 150.89286 177.58966 150.89286 180.14125 C 150.89286 181.02876 149.67253 181.58345 147.67564 181.58345 C 146.01155 181.58345 143.23809 182.5819 141.574 183.91317 C 139.2443 185.79913 138.6896 185.91006 138.6896 184.46786 C 138.6896 183.58035 139.68805 182.24909 140.90837 181.58345 C 142.1287 180.91782 143.12715 179.25374 143.12715 177.81154 C 143.12715 176.03652 143.90372 174.92713 145.67874 174.48338 C 151.11474 173.04117 157.54918 165.05359 157.54918 159.9504 C 157.54918 156.95506 158.10387 156.1785 160.32265 155.6238 C 161.76485 155.29098 164.87113 153.73784 167.0899 152.1847 C 169.30868 150.63156 171.52746 149.74405 172.08215 150.07686 C 172.63684 150.40968 174.07905 149.52217 175.29937 148.07997 L 177.4072 145.52838 L 176.74158 147.96903 C 176.07594 150.7425 176.63064 151.07531 179.51504 149.52217 C 180.5135 148.96748 182.2885 148.1909 183.3979 147.85809 C 185.50573 147.19246 187.16981 144.19711 185.94949 143.08772 C 185.61667 142.75491 184.50728 143.08772 183.3979 143.97523 C 181.84476 145.3065 181.84476 144.97368 183.73071 141.75646 C 184.8401 139.75956 186.94794 137.20797 188.39014 136.09859 C 189.7214 134.9892 190.8308 133.65794 190.8308 133.10324 C 190.8308 132.43761 192.05112 131.43916 193.49332 130.77353 C 195.82303 129.77508 196.26679 129.88602 196.82148 131.99385 C 197.1543 133.547 196.71054 134.76732 195.26834 135.76577 C 194.04801 136.65328 193.04956 138.4283 193.04956 139.75956 C 192.93863 143.42054 188.50108 147.74715 183.06508 149.52217 C 179.84786 150.52062 177.51815 152.07376 176.5197 154.07066 C 174.18999 158.17539 175.85407 159.28478 179.07129 155.73474 C 180.62443 154.07066 184.06353 152.1847 186.837 151.40813 C 189.61046 150.63156 191.94018 149.41123 191.94018 148.63466 C 191.94018 146.30495 197.37617 149.52217 203.25593 155.40192 C 208.58098 160.61604 211.90914 168.49269 211.90914 176.03652 C 211.90914 179.58656 209.24662 189.34916 207.36066 192.67732 C 206.80596 193.56483 205.14188 196.56018 203.69968 199.33365 C 200.37152 205.43528 193.60426 212.6463 189.38859 214.86507 C 185.17292 216.9729 175.29937 226.1808 175.29937 227.95583 C 175.29937 230.28554 176.96345 229.39804 182.62133 224.29485 C 188.05732 219.19167 192.16206 216.64008 197.48711 214.86507 C 214.3498 209.2072 222.33738 205.98997 225.33273 203.7712 C 227.21869 202.21805 230.21403 200.44303 231.98905 199.66646 C 233.76407 198.8899 235.65003 197.11487 236.20472 195.56173 C 236.87035 194.11953 238.31256 192.12263 239.64382 191.23512 C 241.64072 189.90386 241.8626 188.9054 241.3079 185.35537 C 240.64227 181.36158 238.31256 174.8162 234.54064 166.60673 C 233.76407 164.72077 232.21093 159.83947 231.21248 155.6238 C 229.43746 148.63466 229.43746 147.3034 231.21248 136.76422 C 232.21093 130.66259 232.9875 124.45002 232.9875 123.00782 C 232.9875 120.01247 237.8688 110.02799 239.8657 108.80767 C 240.97508 108.14203 240.97508 108.36391 239.8657 109.69518 C 237.75786 112.3577 238.53443 118.79215 241.08602 119.2359 C 242.4173 119.45778 249.2955 113.35615 262.2753 100.37632 C 274.47857 88.17307 285.01775 78.63234 291.34126 74.30573 C 301.10386 67.53847 302.98982 66.54002 302.76794 68.09316 Z" fill="#ff0000"/>
        </g>
        <g id="Graphic_24">
          <path d="M 177.9619 139.42675 C 176.29782 141.8674 174.74468 143.64242 174.5228 143.42054 C 173.85717 142.75491 178.96035 134.9892 180.06974 134.9892 C 180.5135 134.9892 179.51504 136.9861 177.9619 139.42675 Z" fill="#ff0000"/>
        </g>
        <g id="Graphic_23">
          <path d="M 208.47004 152.40658 C 208.3591 156.62225 208.3591 156.62225 207.13878 153.51596 C 206.3622 151.74094 205.03094 150.52062 203.69968 150.40968 C 201.70278 150.29874 201.70278 150.1878 204.14343 149.41123 C 208.47004 147.96903 208.58098 148.07997 208.47004 152.40658 Z" fill="#ff0000"/>
        </g>
        <g id="Graphic_22">
          <path d="M 215.2373 164.94265 C 215.2373 166.71767 214.79355 168.27081 214.12792 168.27081 C 213.57322 168.27081 213.01853 166.71767 213.01853 164.94265 C 213.01853 163.0567 213.57322 161.61449 214.12792 161.61449 C 214.79355 161.61449 215.2373 163.0567 215.2373 164.94265 Z" fill="#ff0000"/>
        </g>
        <g id="Graphic_21">
          <path d="M 197.04336 170.04583 C 198.70744 176.14746 195.60115 181.1397 180.29161 197.2258 C 169.75244 208.43062 164.42738 214.976 161.87579 220.07918 C 158.32575 226.95738 158.32575 227.40114 159.65702 232.7262 C 161.09922 238.27313 161.09922 238.38407 157.66012 242.37786 C 155.66322 244.59664 153.44445 248.14668 152.55694 250.03263 C 151.55849 252.02953 150.4491 253.6936 149.89441 253.6936 C 148.4522 253.6936 147.12094 249.367 147.45376 246.26072 C 147.5647 245.0404 147.12094 243.5982 146.56625 243.15443 C 145.90062 242.82162 145.34592 240.4919 145.34592 238.1622 C 145.34592 234.7231 145.90062 233.39183 148.23033 231.94963 C 150.67098 230.28554 150.89286 229.50897 150.33816 225.95894 C 149.78347 222.51984 150.11629 221.2995 152.55694 218.4151 C 154.11008 216.52915 156.55073 214.86507 157.882 214.6432 C 159.54608 214.4213 160.43359 213.42286 160.65546 211.5369 C 161.09922 208.20874 164.87113 203.88213 168.53211 202.55087 C 170.529 201.7743 170.97276 200.99773 170.41807 198.8899 C 169.75244 196.11642 171.41652 194.11953 176.74158 191.34606 C 178.5166 190.45855 180.5135 188.5726 181.17912 187.01945 C 181.9557 185.57725 184.17447 183.80223 186.06043 183.24754 C 188.05732 182.5819 189.94328 181.6944 190.38704 181.25064 C 191.27455 180.36313 187.61357 171.48803 185.94949 170.2677 C 183.84165 168.8255 186.17137 168.15987 188.50108 169.49114 C 191.38548 171.3771 192.49487 170.2677 190.8308 167.16142 C 189.7214 165.16453 189.83234 164.4989 190.94173 163.72232 C 192.71675 162.72388 195.93397 166.16297 197.04336 170.04583 Z" fill="#ff0000"/>
        </g>
        <g id="Graphic_20">
          <path d="M 217.89983 175.92558 C 217.01232 177.03497 215.2373 174.37244 215.2373 171.82085 L 215.34824 168.8255 L 216.79045 172.15366 C 217.56702 173.92868 218.1217 175.7037 217.89983 175.92558 Z" fill="#ff0000"/>
        </g>
        <g id="Graphic_19">
          <path d="M 216.6795 181.80533 C 213.7951 185.1335 212.9076 188.9054 214.23886 192.45545 C 215.01543 194.3414 214.9045 195.67267 214.12792 196.44924 C 213.35135 197.2258 213.01853 196.78206 213.01853 195.22891 C 213.01853 193.89765 212.57478 192.67732 211.90914 192.45545 C 209.91225 191.78982 215.34824 179.36468 217.67796 179.36468 C 218.3436 179.36468 217.89983 180.47407 216.6795 181.80533 Z" fill="#ff0000"/>
        </g>
        <g id="Graphic_18">
          <path d="M 209.02474 199.88834 C 207.36066 201.55242 206.3622 203.88213 206.3622 205.98997 C 206.3622 208.20874 205.80752 209.31813 204.69813 209.31813 C 202.36842 209.31813 202.5903 208.20874 205.91845 201.7743 C 207.69347 198.3352 209.35755 196.3383 210.24506 196.67112 C 211.2435 197.11487 210.9107 198.00238 209.02474 199.88834 Z" fill="#ff0000"/>
        </g>
        <g id="Graphic_17">
          <path d="M 115.28153 212.9791 C 116.6128 215.30882 117.61125 217.8604 117.61125 218.85886 C 117.61125 222.4089 120.93941 226.7355 126.70822 230.7293 C 130.03638 232.94807 133.2536 234.83403 133.91924 234.83403 C 134.58487 234.83403 136.6927 235.72154 138.57866 236.72 C 141.79588 238.60595 142.90527 241.26848 144.79123 251.14202 C 145.23498 253.02798 146.23343 255.24675 147.12094 256.02332 C 148.78502 257.3546 149.22878 261.45932 147.67564 261.45932 C 146.67719 261.45932 140.90837 253.24986 140.90837 251.6967 C 140.90837 250.58733 134.80675 245.9279 133.36454 245.9279 C 132.58797 245.9279 129.48169 243.3763 121.27222 235.6106 L 118.72063 233.39183 L 115.83623 236.05436 C 114.28309 237.49656 112.28619 240.27003 111.28774 242.26692 C 110.40023 244.26382 109.1799 245.9279 108.62521 245.9279 C 107.07207 245.9279 107.40489 244.59664 109.84554 240.93566 C 112.28619 237.27468 112.72994 234.27934 110.95493 233.16995 C 108.73615 231.8387 100.8595 233.94652 97.53134 236.72 C 95.75632 238.27313 93.9813 239.27158 93.64849 238.93876 C 92.42816 237.82938 94.20318 236.1653 100.41575 232.7262 C 103.74391 230.84024 106.51738 228.51053 106.51738 227.62302 C 106.51738 225.51518 99.08448 222.4089 94.86881 222.85265 C 93.09379 223.07453 91.54065 222.63077 91.54065 222.07608 C 91.54065 221.41045 92.5391 221.07763 93.75943 221.18857 C 94.97975 221.2995 100.19387 221.74326 105.29705 222.18702 L 114.6159 222.9636 L 113.83933 216.9729 C 113.39558 213.64474 112.28619 210.53846 111.39868 210.0947 C 110.51117 209.54 110.06742 208.6525 110.51117 208.0978 C 111.39868 206.6556 112.28619 207.65405 115.28153 212.9791 Z" fill="#ff0000"/>
        </g>
        <g id="Graphic_16">
          <path d="M 248.07516 240.71378 C 247.74235 242.156 247.18765 247.0373 246.85484 251.58578 C 246.07826 260.90463 243.3048 273.32976 241.64072 274.3282 C 240.97508 274.77196 240.7532 273.7735 241.19696 271.55474 C 241.52978 269.6688 242.1954 266.5625 242.52823 264.78748 C 243.19386 261.23744 241.3079 260.01712 240.4204 263.34528 C 240.08757 264.45467 239.311 267.6719 238.53443 270.66723 C 237.75786 273.55164 236.7594 276.21417 236.31566 276.43604 C 235.76097 276.76886 235.98284 275.21572 236.64847 273.1079 C 237.3141 271.00005 237.42505 268.8922 237.09223 268.44846 C 235.8719 267.33907 235.20627 268.5594 234.20782 273.7735 C 233.3203 278.21106 233.20938 278.322 233.09844 274.99384 C 232.87656 268.33752 229.88121 271.9985 229.5484 279.2095 C 229.5484 281.7611 229.43746 281.7611 228.54995 279.7642 C 227.77338 277.9892 227.5515 277.9892 227.5515 279.32045 C 227.44056 280.3189 226.44211 282.3158 225.2218 283.758 L 223.11395 286.42053 L 223.00301 283.64706 C 223.00301 277.10168 226.22024 264.67654 229.65934 258.5749 C 233.09844 252.2514 245.74545 238.1622 247.74235 238.1622 C 248.29704 238.1622 248.51892 239.38252 248.07516 240.71378 Z" fill="#ff0000"/>
        </g>
        <g id="Graphic_15">
          <path d="M 285.1287 268.22658 C 282.24428 280.98453 280.69114 284.42363 274.2567 291.5237 C 267.26756 299.2894 255.84087 304.50354 241.97353 306.27856 C 234.65158 307.277 231.21248 308.1645 230.21403 309.49578 C 228.9937 311.15986 228.6609 311.15986 227.44056 309.8286 C 226.77493 308.83015 226.44211 307.16607 226.88587 305.72386 C 227.44056 304.05978 227.88432 303.72697 228.54995 304.7254 C 229.21558 305.72386 231.76717 305.05823 239.20006 302.17382 C 244.52512 300.066 249.18455 297.62534 249.40643 296.9597 C 249.73924 295.96126 249.2955 295.73938 247.85328 296.29407 C 244.30325 297.73628 236.31566 300.066 236.31566 299.73317 C 236.31566 299.06754 248.7408 293.63154 250.29394 293.63154 C 251.84708 293.63154 253.51116 291.63465 252.62365 290.74714 C 252.40177 290.41432 249.2955 291.1909 245.8564 292.41122 C 242.4173 293.63154 239.64382 294.18624 239.64382 293.7425 C 239.64382 293.29873 243.41574 291.63465 247.96422 290.19244 C 252.5127 288.75024 256.28463 286.97522 256.28463 286.3096 C 256.28463 285.42208 253.84397 285.86583 248.85173 287.5299 C 244.747 288.97212 241.19696 289.97057 240.97508 289.85963 C 240.7532 289.63775 242.97198 288.52836 245.96733 287.41898 C 251.73614 285.31114 253.73303 284.0908 252.7346 283.09237 C 252.40177 282.75955 250.07206 283.53612 247.52047 284.8674 C 244.96888 286.19865 242.63916 286.97522 242.30635 286.6424 C 241.97353 286.3096 244.52512 284.75645 247.85328 283.09237 C 251.29238 281.4283 254.06585 279.65327 254.06585 279.09857 C 254.06585 277.4345 249.96112 277.9892 248.51892 279.7642 C 246.7439 281.87204 244.08137 281.87204 244.08137 279.87514 C 244.08137 277.7673 249.6283 274.5501 259.0581 271.111 C 273.702 265.78593 284.79587 259.79524 286.12714 256.57802 C 286.45995 255.6905 286.79277 255.80145 287.01465 256.57802 C 287.23652 257.24365 286.349 262.45777 285.1287 268.22658 Z" fill="#ff0000"/>
        </g>
        <g id="Graphic_14">
          <path d="M 173.6353 275.88135 C 174.74468 277.10168 177.18533 280.54078 179.07129 283.53612 C 180.95725 286.53147 185.28386 293.1878 188.61202 298.29097 C 194.38083 307.16607 196.71054 311.38174 199.59495 318.37087 C 201.1481 322.36467 201.1481 322.58655 199.26213 321.80997 C 198.37462 321.47716 196.5996 319.14745 195.37928 316.7068 C 194.04801 314.04427 191.7183 311.6036 189.49953 310.49423 C 186.50418 308.9411 185.7276 307.8317 185.50573 304.7254 C 185.17292 301.61913 184.39635 300.50974 181.62288 299.06754 C 178.96035 297.73628 177.9619 296.51595 177.74002 293.96436 C 177.51815 291.30183 176.5197 290.19244 172.74778 288.52836 C 169.30868 286.97522 168.1993 285.86583 168.42117 284.20175 C 169.97431 272.66413 170.30713 272.22037 173.6353 275.88135 Z" fill="#ff0000"/>
        </g>
        <g id="Graphic_13">
          <path d="M 235.20627 281.98298 C 234.4297 282.98143 233.5422 283.4252 233.09844 283.09237 C 232.76562 282.75955 233.20938 281.98298 234.09688 281.4283 C 236.4266 279.87514 236.7594 280.09702 235.20627 281.98298 Z" fill="#ff0000"/>
        </g>
        <g id="Graphic_12">
          <path d="M 239.08913 285.86583 C 238.09068 287.86273 235.3172 291.63465 232.87656 294.18624 L 228.439 298.9566 L 225.88742 296.6269 L 223.2249 294.29718 L 227.88432 291.30183 C 230.32497 289.63775 234.20782 286.8643 236.31566 284.97833 C 238.4235 283.2033 240.30945 281.7611 240.53133 281.98298 C 240.7532 282.20486 240.08757 283.97988 239.08913 285.86583 Z" fill="#ff0000"/>
        </g>
        <g id="Graphic_11">
          <path d="M 229.43746 286.3096 C 228.6609 287.1971 227.77338 287.64085 227.5515 287.5299 C 226.9968 286.8643 228.6609 284.75645 229.77028 284.75645 C 230.32497 284.75645 230.21403 285.42208 229.43746 286.3096 Z" fill="#ff0000"/>
        </g>
        <g id="Graphic_10">
          <path d="M 229.77028 318.81463 C 229.21558 319.924 227.99526 322.80842 226.9968 325.24907 L 225.33273 329.68662 L 225.33273 323.9178 C 225.2218 318.37087 225.88742 317.2615 229.43746 317.0396 C 230.32497 316.92867 230.4359 317.48336 229.77028 318.81463 Z" fill="#ff0000"/>
        </g>
        <g id="Graphic_9">
          <path d="M 227.44056 341.00237 C 227.44056 341.55706 226.88587 342.66645 226.33118 343.55396 C 225.44367 344.88522 225.2218 344.7743 225.2218 342.66645 C 225.2218 341.3352 225.77648 340.2258 226.33118 340.2258 C 226.9968 340.2258 227.44056 340.5586 227.44056 341.00237 Z" fill="#ff0000"/>
        </g>
        <g id="Graphic_8">
          <path d="M 251.6252 113.68897 C 245.74545 119.7906 241.8626 125.67035 241.8626 128.33288 C 241.8626 128.99851 243.52667 130.21884 245.52357 131.10634 L 249.0736 132.65949 L 245.07982 134.32357 C 237.97974 137.31891 234.9844 147.85809 239.97664 152.40658 C 244.08137 156.1785 260.38936 163.50045 261.72062 162.16918 C 262.83 160.94886 260.5003 158.5082 257.72683 157.95351 C 256.06275 157.6207 251.6252 155.6238 247.96422 153.6269 C 242.30635 150.40968 241.3079 149.41123 240.97508 146.41589 C 240.53133 142.08928 243.19386 137.76267 247.18765 136.32046 C 248.85173 135.76577 252.5127 134.4345 255.50805 133.32512 C 261.49874 131.21728 262.60813 128.88757 257.17213 129.99696 C 254.39867 130.55165 253.9549 130.44071 255.17524 129.5532 C 256.06275 128.88757 257.9487 128.33288 259.3909 128.33288 C 260.72217 128.33288 261.83156 127.77818 261.83156 127.22349 C 261.83156 126.44692 258.94715 126.22504 253.40022 126.77974 L 244.96888 127.5563 L 246.30014 124.89378 C 247.18765 123.45157 250.7377 119.2359 254.28773 115.46399 C 257.83777 111.80301 260.72217 108.36391 260.72217 108.0311 C 260.72217 105.70138 256.95026 108.0311 251.6252 113.68897 Z" fill="#cccccc"/>
        </g>
        <g id="Graphic_7">
          <path d="M 252.62365 131.21728 C 252.29083 131.5501 251.29238 131.66104 250.5158 131.32822 C 249.6283 130.9954 249.96112 130.66259 251.18144 130.66259 C 252.40177 130.55165 253.0674 130.88447 252.62365 131.21728 Z" fill="#ff0000"/>
        </g>
        <g id="Graphic_6">
          <path d="M 166.09146 155.51286 C 164.42738 157.066 162.2086 158.28633 161.3211 158.28633 C 158.99138 158.28633 159.43514 161.39261 161.98673 162.94575 C 163.20705 163.72232 164.2055 165.05359 164.2055 165.83016 C 164.2055 169.15832 166.86803 166.16297 168.31023 161.17073 C 169.41962 157.6207 170.63995 155.6238 172.08215 155.29098 C 174.96656 154.51441 174.74468 152.7394 171.74933 152.7394 C 170.30713 152.7394 167.75554 154.07066 166.09146 155.51286 Z" fill="#cccccc"/>
        </g>
        <g id="Graphic_5">
          <path d="M 165.53677 160.72698 C 164.7602 161.50355 164.2055 161.61449 164.2055 160.94886 C 164.2055 159.39571 165.53677 158.06445 166.31334 158.84102 C 166.53521 159.17384 166.2024 160.06135 165.53677 160.72698 Z" fill="#ff0000"/>
        </g>
        <g id="Graphic_4">
          <path d="M 242.08447 160.72698 C 241.3079 161.50355 240.7532 163.50045 240.7532 165.16453 C 240.7532 169.04738 246.41108 181.02876 250.7377 186.35382 C 252.1799 188.23978 252.1799 188.5726 250.40487 189.90386 C 248.40798 191.34606 247.85328 194.3414 249.51736 195.33985 C 250.07206 195.67267 251.0705 197.55863 251.73614 199.55552 C 252.7346 202.43993 252.7346 202.88369 251.6252 201.7743 C 247.6314 197.7805 232.87656 203.54932 220.1186 214.19943 C 218.01077 215.86351 216.3467 217.8604 216.3467 218.63698 C 216.23575 220.07918 214.12792 222.51984 207.13878 229.17616 C 202.81217 233.39183 201.81372 233.83558 200.26058 232.61526 C 197.26524 230.1746 193.49332 232.7262 192.71675 237.82938 C 191.60736 244.15288 191.82924 249.25606 193.04956 249.25606 C 193.7152 249.25606 194.15895 247.59198 194.2699 245.5951 C 194.2699 243.70913 194.93552 240.27003 195.82303 238.1622 C 196.93242 235.0559 197.37617 234.61215 198.0418 236.1653 C 198.48556 237.27468 199.70589 238.1622 200.70434 238.1622 C 203.03405 238.1622 217.45608 224.18392 219.7858 219.63543 C 222.1155 215.41976 232.9875 207.98687 239.97664 205.87903 C 242.86104 205.10246 245.19075 203.99307 245.19075 203.54932 C 245.19075 202.10711 247.40953 202.55087 249.18455 204.3259 C 250.183 205.2134 252.06895 205.98997 253.6221 205.98997 C 256.72838 205.98997 257.17213 202.77275 254.73148 198.22426 C 253.40022 195.89455 253.40022 195.33985 255.0643 194.23047 C 256.61744 193.01014 256.1737 191.56794 250.5158 180.585 C 246.96577 173.81775 244.08137 166.93955 244.08137 165.3864 C 244.08137 162.61294 244.30325 162.502 248.62985 163.0567 C 251.18144 163.3895 253.6221 164.16608 253.9549 164.72077 C 254.28773 165.27547 256.39556 166.27391 258.5034 166.93955 C 260.61123 167.49424 263.27376 168.38175 264.38315 168.8255 C 265.7144 169.3802 266.2691 169.04738 266.2691 167.82706 C 266.2691 166.05204 261.83156 163.72232 252.95646 160.94886 C 246.85484 159.0629 243.8595 158.95196 242.08447 160.72698 Z" fill="#cccccc"/>
        </g>
      </g>
    </g>
  </g>
</svg>
