<?xml version="1.0" encoding="UTF-8" standalone="no"?>
<!DOCTYPE svg PUBLIC "-//W3C//DTD SVG 1.1//EN" "http://www.w3.org/Graphics/SVG/1.1/DTD/svg11.dtd">
<svg xmlns:dc="http://purl.org/dc/elements/1.1/" xmlns:xl="http://www.w3.org/1999/xlink" version="1.1" xmlns="http://www.w3.org/2000/svg" viewBox="38 67 188 392" width="188" height="392">
  <defs>
    <clipPath id="artboard_clip_path">
      <path d="M 38 67 L 226 67 L 226 459 L 38 459 Z"/>
    </clipPath>
  </defs>
  <metadata> Produced by OmniGraffle 7.7.1 
    <dc:date>2018-03-13 07:12:51 +0000</dc:date><dc:title>Traceable heraldic art http://heraldicart.org/credits.html</dc:title>
  </metadata>
  <g id="Shark" fill-opacity="1" stroke-dasharray="none" stroke="none" stroke-opacity="1" fill="#ffff00">
    <title>Shark</title>
    <g id="Shark: Layer 2" >
      <title>Layer 2</title>
      <g id="Group_89">
        <g id="Graphic_99">
          <path d="M 61.285665 67.79037 C 61.12323 68.00695 59.282304 68.44011 57.27894 68.81912 C 51.9186 69.84787 48.236746 70.76834 47.64115 71.25564 C 47.37043 71.47222 46.17924 71.95952 45.09634 72.28439 C 43.9593 72.66341 43.038836 73.20486 43.038836 73.47558 C 43.038836 73.74631 42.497387 74.88335 41.793504 76.02039 C 39.62771 79.53981 37.949216 87.76983 39.08626 89.23175 C 39.41113 89.61076 39.790143 92.85945 39.952577 96.43302 C 40.11501 100.00658 40.385736 103.526 40.54817 104.28403 C 41.360344 108.18246 41.576924 109.10292 42.497387 111.59359 C 43.038836 113.0555 44.013444 115.97932 44.663183 118.09097 C 46.93727 125.12981 50.781556 133.73885 55.49216 142.45618 C 56.954074 145.10927 57.60381 146.78777 57.17065 146.9502 C 56.845784 147.05849 56.68335 147.38336 56.845784 147.59994 C 57.00822 147.87066 57.44138 147.97895 57.82039 147.87066 C 58.199406 147.70823 59.66132 149.33258 61.177375 151.49837 C 62.63929 153.66417 64.69679 156.37141 65.6714 157.50846 L 67.56647 159.51182 L 66.591865 162.11077 C 66.050416 163.51854 65.34653 165.0346 64.96752 165.46775 C 64.5885 165.90091 63.99291 167.36283 63.722185 168.71645 C 63.397316 170.07007 62.74758 172.5066 62.20613 174.13094 C 61.718824 175.75528 61.12323 178.46253 60.852506 180.08688 C 60.58178 181.71122 60.09448 184.63505 59.76961 186.58426 C 59.01158 191.24072 59.498884 207.91735 60.58178 215.28106 C 61.069086 218.42146 61.66468 222.53647 61.935404 224.4857 C 62.20613 226.4349 62.96416 230.0626 63.613895 232.60742 C 64.263634 235.15223 64.85923 237.85948 64.91337 238.7258 C 65.02166 239.53797 65.23824 240.35014 65.40068 240.56672 C 65.61726 240.72916 65.77969 241.3789 65.77969 241.92034 C 65.77969 242.4618 66.10456 242.89495 66.53772 242.89495 C 67.07917 242.89495 67.45818 242.02863 67.67476 240.296 C 68.10792 236.77658 70.00299 228.32998 70.81517 226.4349 C 71.19418 225.51444 73.25169 221.1287 75.41748 216.68882 C 79.58664 208.18808 82.72704 202.82773 85.54258 199.5249 C 86.4089 198.49614 88.14153 196.3845 89.33272 194.92258 C 93.39359 189.94125 96.10083 187.3423 96.47985 187.99203 C 96.75057 188.3169 98.26663 189.23736 99.89097 190.04954 C 102.59822 191.34901 106.06349 194.27284 110.61166 199.14588 C 111.53213 200.17463 112.3443 201.20338 112.3443 201.36582 C 112.3443 201.5824 112.77746 202.28628 113.37305 202.93602 C 119.11241 209.86657 120.52018 211.7075 122.52354 214.7396 C 123.76887 216.68882 125.06835 218.63804 125.33907 219.0712 C 126.53026 220.80384 131.45745 229.73774 132.70278 232.3367 C 133.40666 233.7986 134.21884 235.42296 134.48956 235.85612 C 134.81443 236.28927 135.6266 237.85948 136.33049 239.37553 C 137.03437 240.83745 138.44214 243.5447 139.3626 245.33147 C 140.33721 247.11825 141.96156 250.74596 143.04445 253.4532 C 144.0732 256.1063 145.10196 258.81355 145.37268 259.40914 C 147.15947 263.63245 148.56723 269.64253 148.62138 273.1078 C 148.62138 274.678 148.8921 276.4648 149.16283 277.06038 C 149.4877 277.60183 149.75842 281.6627 149.75842 286.10258 C 149.81257 293.9536 149.10868 298.23103 146.88874 304.3494 C 146.02242 306.67764 139.3626 317.8315 138.49628 318.3188 C 137.52167 318.9144 137.57582 320.8636 138.55043 320.8636 C 138.98359 320.8636 139.52504 320.59287 139.68747 320.32215 C 139.8499 319.99728 140.87866 319.7807 141.90741 319.7807 C 142.93616 319.7807 144.1815 319.56412 144.72295 319.2934 C 145.21025 319.02267 147.3219 317.9939 149.3794 317.0193 C 153.38613 315.1784 154.03587 315.3408 154.03587 318.15635 C 154.03587 320.43044 151.76178 331.04284 150.73303 333.58765 C 150.19158 334.88713 149.32526 337.91924 148.2965 342.25083 C 147.86335 344.0376 146.50973 348.15262 145.2644 351.45546 C 144.0732 354.70416 142.503 359.3606 141.85327 361.743 C 141.20353 364.12537 139.9582 367.9155 139.20017 370.13545 C 138.388 372.3554 137.52167 375.65823 137.25095 377.445 C 136.98023 379.2318 136.27634 382.8595 135.6266 385.56675 C 132.86521 397.4245 132.54034 418.92 135.08515 422.38527 C 135.30173 422.656 135.6266 424.17205 135.84318 425.74226 C 136.05976 427.2583 136.49292 429.36996 136.92608 430.34457 C 137.3051 431.3192 137.84654 432.61866 138.06312 433.21425 C 138.2797 433.80984 138.55043 434.56787 138.65872 434.9469 C 138.82115 435.9215 142.12399 442.25645 143.26103 443.8808 C 143.80248 444.6388 144.28979 445.5593 144.28979 445.83 C 144.28979 446.1549 144.45222 446.47975 144.72295 446.58804 C 144.93952 446.69633 146.67216 448.6997 148.62138 451.08207 C 152.95297 456.49656 155.93094 459.14965 157.01384 458.7165 C 157.77186 458.44577 157.66357 458.1209 156.47239 456.38827 C 155.71436 455.2512 155.11876 454.0059 155.11876 453.6269 C 155.11876 452.97714 154.25245 449.8909 152.84468 445.39685 C 152.30323 443.6642 151.87007 441.2277 150.89546 433.485 C 150.35401 429.26167 151.43691 420.4902 152.46567 420.4902 C 152.73639 420.4902 153.87343 419.8946 155.01048 419.24487 C 157.23042 417.8371 157.06798 417.8371 165.94774 415.94203 C 177.1016 413.45137 180.78344 412.1519 187.6057 408.0369 C 191.3417 405.81694 200.60048 397.64106 200.60048 396.6123 C 200.60048 396.3416 201.73752 394.3382 203.09114 392.06413 C 204.44476 389.8442 206.39398 385.9999 207.47688 383.50924 C 208.50563 381.0727 209.69682 378.31133 210.12998 377.3367 C 210.56314 376.41626 210.888 375.17093 210.888 374.62948 C 210.888 374.0339 211.05044 373.38414 211.26702 373.16756 C 211.86261 372.6261 213.5411 365.7497 213.59525 363.96293 C 213.59525 362.66346 213.48696 362.501 212.78308 363.0966 C 212.34992 363.47563 211.9709 364.07122 211.9709 364.45024 C 211.9709 364.8834 211.75432 365.2624 211.53774 365.3707 C 211.26702 365.42484 210.18412 366.88676 209.15537 368.5111 C 206.50227 372.68026 194.75283 385.7292 191.77486 387.89498 C 187.87643 390.65637 184.9526 391.7934 181.48733 391.7934 C 176.12698 391.7934 170.76664 388.3823 167.78867 383.02194 C 166.27261 380.2064 166.21847 379.9898 166.27261 372.57197 C 166.32676 363.3132 166.3809 361.95957 167.03064 360.9308 C 167.30137 360.49766 167.30137 359.79378 166.92235 359.14404 C 166.3809 358.1153 166.59748 357.35726 168.76328 352.37593 C 169.35887 351.07645 170.76664 348.42335 171.95783 346.52828 C 173.09487 344.6332 174.06948 342.84642 174.06948 342.62984 C 174.06948 342.3591 174.71922 341.33037 175.47724 340.3016 C 177.4806 337.59437 180.7293 330.66382 182.73266 324.7079 C 183.3824 322.8128 184.4653 320.10557 185.11504 318.75195 C 185.81892 317.39832 186.68524 315.3408 187.0101 314.20378 C 187.44327 312.95844 188.25544 311.87555 189.12176 311.4424 C 189.93393 311.00923 191.17926 310.03462 191.9373 309.22245 C 194.86112 306.08204 201.79166 303.7538 204.28233 305.10743 C 206.61056 306.35277 205.96082 304.62013 203.19943 302.34604 C 193.29091 294.06188 192.85776 293.358 193.94065 286.21087 C 194.80697 280.25493 195.24013 250.58353 194.5904 241.81205 C 194.37381 238.67165 193.77822 233.4196 193.29091 230.1709 C 192.8036 226.86806 192.09973 221.29114 191.66657 217.71758 C 190.69196 209.32512 189.87979 204.50622 189.2842 202.82773 C 188.95932 202.0697 188.5803 200.3912 188.41787 199.0376 C 188.2013 197.68397 187.6057 194.86843 187.06425 192.81093 C 186.5228 190.69927 185.65648 186.69255 185.16918 183.87702 C 183.3824 173.86021 178.29278 160.54057 173.52803 153.50173 C 172.39099 151.87739 171.0915 149.65745 170.6042 148.6287 C 169.41302 146.13803 167.4638 143.05177 166.27261 141.69815 C 164.919 140.23623 165.35215 137.52899 167.40966 134.44273 C 168.22183 133.1974 169.25058 131.5189 169.68374 130.70673 C 170.65835 128.81166 178.78008 120.5275 184.08628 116.08761 C 186.46866 114.1384 192.85776 108.77805 198.3264 104.17574 C 203.79502 99.62756 211.91676 93.29261 216.35664 90.15221 C 225.77785 83.49239 226.53588 82.89679 225.66956 82.03047 C 225.3447 81.705605 222.79988 81.11001 220.0385 80.67685 C 217.22296 80.24369 213.75768 79.70224 212.24163 79.43152 C 208.61392 78.72764 182.67852 78.72764 178.94252 79.37737 C 172.60757 80.51442 157.3387 84.62943 156.74311 85.33331 C 156.58068 85.54989 155.11876 86.14549 153.49442 86.68694 C 151.87007 87.17424 149.65013 87.98641 148.62138 88.41957 C 145.80584 89.55661 139.41675 93.50919 139.41675 94.05064 C 139.41675 94.32137 139.09188 94.53794 138.65872 94.53794 C 138.22556 94.53794 135.89733 95.99986 133.4608 97.78664 L 129.07507 101.08948 L 126.53026 98.92368 C 125.1225 97.73249 122.90255 95.67499 121.54893 94.26722 C 120.19531 92.85945 117.92122 90.85609 116.40517 89.77319 C 114.94325 88.6903 111.69456 86.09134 109.25804 83.97969 C 106.82152 81.92218 103.41039 79.43152 101.67776 78.5652 C 99.94512 77.64474 97.45445 76.34526 96.10083 75.58723 C 93.2853 74.01703 89.38686 72.39268 83.64751 70.49761 C 78.01644 68.656686 62.31442 66.761614 61.285665 67.79037 Z" fill="#cccccc"/>
        </g>
        <g id="Graphic_98">
          <path d="M 77.42084 70.17274 C 78.9369 70.49761 80.88612 71.03906 81.75243 71.36393 C 82.6729 71.634655 83.64751 71.90538 83.91823 72.01367 C 86.35475 72.60926 93.66431 75.4248 95.12622 76.34526 C 95.66767 76.67013 95.99254 77.26572 95.83011 77.59059 C 95.66767 78.0779 96.15498 78.29448 97.23787 78.29448 C 99.5661 78.29448 108.6083 84.25041 109.52876 86.41621 C 109.96192 87.28253 110.61166 88.04056 110.99068 88.04056 C 111.42384 88.04056 111.96529 88.36543 112.18186 88.79859 C 112.39844 89.1776 114.56424 90.91024 116.89247 92.58873 C 119.2207 94.26722 122.84841 97.35348 124.96006 99.35684 L 128.7502 103.09284 L 131.78232 100.71046 C 134.97686 98.16565 136.16805 97.35348 142.6113 93.18432 C 147.10532 90.31464 151.6535 88.04056 153.06126 88.04056 C 153.6027 88.04056 155.2812 87.44496 156.8514 86.74108 C 160.80398 84.90015 173.47388 81.2183 177.5889 80.67685 C 188.85103 79.32323 206.93543 79.32323 214.40742 80.78514 C 216.8981 81.27245 221.39211 82.08462 221.55455 82.08462 C 221.66284 82.08462 221.71698 82.3012 221.71698 82.57192 C 221.71698 82.84265 220.74238 83.65482 219.5512 84.3587 C 215.2196 86.90351 204.17404 94.75452 198.86784 99.03197 C 195.88987 101.46849 192.4246 104.28403 191.17926 105.25863 C 178.02205 115.81689 171.74125 122.90987 166.00189 133.63056 C 165.02728 135.52563 163.99853 137.25827 163.78195 137.52899 C 163.51122 137.79971 162.37418 136.98754 161.183 135.74221 C 159.34207 133.793 157.82601 132.92667 157.82601 133.793 C 157.82601 133.95543 159.07134 135.30905 160.53325 136.8251 C 162.04931 138.34116 163.2405 139.96551 163.2405 140.50696 C 163.2405 140.99426 164.10682 142.07716 165.13557 142.99762 C 166.16432 143.86394 167.03064 144.8927 167.03064 145.21756 C 167.03064 145.54243 167.35551 146.13803 167.73452 146.4629 C 168.16768 146.78777 169.034 148.19553 169.79203 149.6033 C 170.49591 151.06521 171.63296 152.90614 172.33684 153.77246 C 176.61429 159.07866 182.13707 173.75192 184.30286 185.50137 C 184.57359 187.12571 185.22333 190.04954 185.71063 191.99875 C 188.5803 203.53161 189.60906 209.48755 191.39584 224.7564 C 191.72071 227.4095 192.20802 231.68696 192.47874 234.23177 C 192.8036 236.77658 193.23677 239.91698 193.56164 241.2706 C 194.75283 246.90167 193.3992 289.5137 191.9373 291.35463 C 191.72071 291.62536 191.3417 293.358 191.12512 295.14477 C 190.96268 296.93156 190.42124 299.47637 189.98808 300.83 C 189.60906 302.1836 188.36373 306.19033 187.28083 309.7639 C 186.19793 313.33746 184.62773 317.7232 183.81556 319.50998 C 183.00338 321.29676 181.54147 324.81618 180.56686 327.361 C 178.18449 333.6418 176.3977 337.3778 174.98994 339.16457 C 174.3402 339.97675 173.31145 341.6011 172.71586 342.79228 C 172.1744 343.98347 170.6042 346.799 169.25058 349.01894 C 166.05603 354.48758 165.67702 355.8412 165.13557 366.0746 C 164.919 369.64815 164.53998 373.00513 164.26925 373.49243 C 163.94438 374.0339 163.99853 374.5212 164.3234 374.73777 C 164.59412 374.9002 164.86485 375.82066 164.86485 376.687 C 164.86485 381.2893 168.87157 388.21984 172.98658 390.7105 C 180.83759 395.5294 187.98471 393.74262 196.75619 384.86286 C 201.8458 379.66495 204.6072 376.63284 206.2857 374.46704 C 208.50563 371.48907 210.94215 368.94426 211.26702 369.26913 C 211.42945 369.43157 211.15873 370.62275 210.67143 371.92223 C 210.18412 373.16756 209.8051 374.57533 209.8051 374.95435 C 209.8051 375.33336 209.10122 377.1743 208.2349 378.96107 C 207.42273 380.802 206.55641 382.80536 206.33983 383.4551 C 205.96082 384.75457 203.68673 388.97787 201.14192 393.2553 C 199.03027 396.8289 193.61578 402.45995 189.39248 405.4379 C 184.14043 409.22806 176.12698 412.47676 168.11354 414.2094 C 160.5874 415.83374 157.01384 416.80835 155.11876 417.67467 C 154.09001 418.10783 152.6281 418.541 151.87007 418.541 C 150.62474 418.59513 150.4623 418.86585 150.13743 421.8438 C 149.59599 426.6627 149.4877 432.7811 149.92086 436.46294 C 150.35401 440.1448 151.70764 446.209 152.41152 447.83337 C 153.00711 449.24114 154.14416 454.7098 153.81929 454.9805 C 153.6027 455.2512 147.37605 448.3207 147.05118 447.45436 C 146.94289 447.07534 146.07657 445.83 145.1561 444.5847 C 143.6942 442.63546 141.31182 437.979 139.14602 432.6728 C 138.767 431.75234 138.17141 430.45286 137.84654 429.69483 C 137.52167 428.9368 136.98023 427.0959 136.76365 425.63397 C 136.16805 422.22284 135.84318 421.13994 135.1393 419.24487 C 134.43542 417.40394 134.43542 402.18923 135.1393 395.58355 C 135.78904 389.41103 135.95147 388.43642 136.98023 383.40095 C 137.46753 381.01857 138.11727 378.0406 138.388 376.79527 C 138.98359 373.709 140.55379 368.8901 141.09524 368.2404 C 141.36596 367.96965 141.58254 367.3199 141.58254 366.8326 C 141.58254 365.64142 142.71958 362.0137 146.18486 351.7262 C 149.4877 342.0884 150.78717 337.8651 150.78717 336.7822 C 150.78717 336.34904 151.00375 335.591 151.27448 335.04956 C 152.35738 332.99205 155.06462 320.8636 155.33534 316.91102 C 155.55192 312.796 155.55192 312.74186 154.25245 312.74186 C 153.54856 312.74186 152.95297 313.06673 152.95297 313.44575 C 152.95297 314.74522 141.58254 319.4017 140.66208 318.48122 C 140.49964 318.3188 141.36596 316.4237 142.66544 314.25792 C 145.04781 310.19705 147.43019 305.70303 148.13407 303.80796 C 150.29987 298.33932 150.51645 296.66083 150.51645 287.29376 C 150.51645 276.7355 150.35401 274.40728 149.43355 269.69667 C 148.62138 265.6358 145.2644 255.07755 144.0732 252.91176 C 143.5859 251.9913 143.20689 251.0167 143.20689 250.74596 C 143.20689 250.2045 139.47089 242.62423 137.52167 239.1048 C 137.14266 238.34678 136.33049 236.77658 135.7349 235.5854 C 133.89397 231.7411 132.86521 229.62945 132.37791 228.81728 C 132.10719 228.38412 130.4287 225.4603 128.69606 222.3199 C 124.63519 215.2269 120.95334 209.70413 118.30024 206.8886 C 117.21734 205.6974 115.26812 203.31503 114.02279 201.63654 C 110.55752 196.8718 103.7894 190.4827 100.32413 188.69591 C 98.5915 187.8296 97.18373 186.90913 97.18373 186.6384 C 97.18373 185.88038 100.10755 183.6063 103.13967 181.87366 C 104.65572 181.06148 105.84691 180.03273 105.84691 179.65372 C 105.84691 178.6791 105.57619 178.7874 101.89433 181.27806 C 96.26327 185.12235 87.87081 194.1104 81.59 203.0443 C 80.34467 204.88524 78.07058 208.89196 76.554525 212.03236 C 75.09261 215.17277 73.52241 218.31317 73.03511 219.0712 C 70.43615 223.45694 68.10792 230.1709 67.13331 236.50585 C 66.97088 237.6429 66.64601 238.56336 66.42943 238.56336 C 65.77969 238.56336 63.66804 229.14215 63.07245 223.4028 C 62.74758 220.58726 62.26027 217.17613 61.935404 215.8225 C 60.79836 210.89532 60.31106 198.65857 60.852506 189.77881 C 61.177375 185.01406 61.55639 180.89905 61.718824 180.62832 C 61.88126 180.3576 62.26027 178.7874 62.58514 177.1089 C 63.77633 170.55737 66.91673 163.03123 71.03175 156.75043 C 72.33122 154.80121 73.35998 153.01443 73.35998 152.79785 C 73.35998 151.87739 72.38537 152.7437 70.70688 155.18022 C 69.67812 156.69628 68.54108 157.88747 68.16207 157.88747 C 66.7543 157.88747 57.062363 143.7015 54.03025 137.31241 C 51.16057 131.19404 49.536223 127.4039 49.211354 126.10442 C 48.994774 125.34639 48.29089 123.72204 47.64115 122.47671 C 46.991413 121.28552 46.341675 119.66118 46.125095 118.90315 C 45.96266 118.14512 45.31292 116.08761 44.663183 114.30083 C 43.255416 110.34825 43.147126 109.9151 42.226663 105.0962 C 41.08962 99.41099 41.143765 99.24855 42.98469 99.68171 C 45.691936 100.2773 51.431295 103.58014 58.03697 108.34489 C 65.56311 113.70524 67.40404 115.38373 69.29911 118.30755 C 70.59859 120.4192 71.73563 121.17723 71.73563 119.9319 C 71.73563 117.82025 65.07581 111.16043 58.415986 106.61226 C 51.70202 102.00994 51.106425 101.68507 42.930546 97.89493 C 40.87304 96.97446 40.87304 96.97446 40.818895 93.45505 C 40.602316 84.79186 40.76475 82.03047 41.901793 78.40277 C 42.98469 74.8292 43.147126 74.55848 45.583646 73.42144 C 48.020166 72.28439 53.92196 70.55176 58.47013 69.57715 C 61.393955 68.981555 74.06386 69.36057 77.42084 70.17274 Z" fill="#ff0000"/>
        </g>
        <g id="Graphic_97">
          <path d="M 178.29278 119.28216 C 177.15574 120.36506 176.12698 121.12309 175.96455 120.96065 C 175.53139 120.58164 178.83423 117.2788 179.6464 117.2788 C 179.97127 117.2788 179.37568 118.19926 178.29278 119.28216 Z" fill="#ff0000"/>
        </g>
        <g id="Graphic_96">
          <path d="M 193.56164 294.76576 C 193.56164 295.5238 198.8137 300.50512 201.08778 301.9129 C 202.27897 302.6709 203.30772 303.42894 203.30772 303.64552 C 203.30772 303.91625 202.27897 304.07868 200.9795 304.07868 C 198.48882 304.07868 194.31967 305.8113 191.61242 307.9771 C 188.03886 310.8468 188.2013 310.79265 188.6886 308.84343 C 188.95932 307.86882 189.55492 305.70303 190.04222 304.07868 C 190.52952 302.45433 191.3417 299.58465 191.77486 297.6896 C 192.20802 295.84866 192.8036 294.3326 193.07433 294.3326 C 193.34506 294.3326 193.56164 294.54918 193.56164 294.76576 Z" fill="#ff0000"/>
        </g>
        <g id="Graphic_95">
          <path d="M 85.43429 87.87812 C 84.35139 88.25714 83.48507 92.15557 84.18895 93.45505 C 84.89284 94.75452 84.67626 94.70038 87.05863 93.72577 C 89.27857 92.80531 89.98246 90.69366 88.68298 88.74444 C 87.87081 87.55325 86.84205 87.28253 85.43429 87.87812 Z" fill="#cccccc"/>
        </g>
        <g id="Graphic_94">
          <path d="M 96.4257 110.56483 C 96.26327 111.05214 96.10083 111.9726 96.10083 112.67648 C 96.10083 113.38037 95.88425 114.08425 95.61353 114.24669 C 95.3428 114.46327 94.96379 115.60031 94.74721 116.84564 C 94.53063 118.09097 93.88089 119.82361 93.33944 120.74407 C 92.79799 121.66454 91.82338 123.50546 91.1195 124.85908 C 90.41562 126.15856 88.35811 128.8658 86.51719 130.86917 C 84.62211 132.81838 83.10606 134.60517 83.10606 134.82175 C 83.10606 136.50024 88.79127 130.97746 91.06536 127.02488 C 91.82338 125.67126 92.63556 124.48007 92.79799 124.31764 C 94.04333 123.28888 97.67103 112.94721 97.72518 110.34825 C 97.72518 109.42779 96.80471 109.53608 96.4257 110.56483 Z" fill="#cccccc"/>
        </g>
        <g id="Graphic_93">
          <path d="M 102.3275 111.10628 C 101.56947 114.67984 98.64564 123.0723 97.67103 124.37178 C 97.12958 125.18395 96.64228 125.94198 96.64228 126.10442 C 96.64228 126.75416 89.87417 136.55438 88.89956 137.36656 C 88.24982 137.908 87.9791 138.5036 88.24982 138.88261 C 88.52055 139.36992 89.11614 139.15334 90.25318 138.0163 C 93.66431 134.82175 100.97387 122.69329 100.97387 120.25677 C 100.97387 119.66118 101.46118 118.3617 102.05677 117.38709 C 102.65236 116.41248 103.03138 115.32958 102.86894 115.05886 C 102.65236 114.78813 102.8148 113.70524 103.13967 112.62234 C 103.62697 111.26872 103.62697 110.51069 103.24796 110.13167 C 102.8148 109.69851 102.54407 110.02338 102.3275 111.10628 Z" fill="#cccccc"/>
        </g>
        <g id="Graphic_92">
          <path d="M 108.50001 112.18918 C 108.17514 113.0555 107.57955 115.2213 107.20053 117.06222 C 105.68448 124.37178 97.94176 137.58313 93.06872 141.21084 C 91.49852 142.40203 91.22779 142.78104 91.93167 143.05177 C 93.39359 143.59322 97.0213 140.45281 100.97387 135.20076 C 101.7319 134.22615 102.8148 132.76424 103.46454 132.00621 C 105.35961 129.51555 108.01271 125.34639 108.01271 124.80494 C 108.01271 124.53422 108.22929 123.88448 108.50001 123.34303 C 109.31219 121.88112 111.2614 115.05886 111.2614 113.75938 C 111.2614 113.10964 110.7741 112.13503 110.1785 111.59359 C 109.14975 110.67312 109.0956 110.67312 108.50001 112.18918 Z" fill="#cccccc"/>
        </g>
        <g id="Graphic_91">
          <path d="M 60.3652 145.43414 C 60.3652 145.70487 60.635926 145.9756 60.960796 145.9756 C 61.23152 145.9756 61.33981 145.70487 61.177375 145.43414 C 61.01494 145.10927 60.744216 144.8927 60.58178 144.8927 C 60.47349 144.8927 60.3652 145.10927 60.3652 145.43414 Z" fill="#cccccc"/>
        </g>
        <g id="Graphic_90">
          <path d="M 179.59226 176.29673 C 180.51272 178.6791 181.37904 180.57418 181.48733 180.41175 C 181.59562 180.30346 181.3249 179.32885 180.89173 178.24595 C 180.45857 177.16305 180.07956 176.08015 180.02542 175.86357 C 179.91713 174.88897 178.6718 171.96514 178.34692 171.96514 C 178.13034 171.96514 178.72594 173.91436 179.59226 176.29673 Z" fill="#cccccc"/>
        </g>
      </g>
    </g>
  </g>
</svg>
