<?xml version="1.0" encoding="utf-8"?>
<svg xmlns:xl="http://www.w3.org/1999/xlink" xmlns="http://www.w3.org/2000/svg"
     xmlns:dc="http://purl.org/dc/elements/1.1/"
     xmlns:xlink="http://www.w3.org/1999/xlink"
     version="1.1"
     viewBox="67.5 63 229.5 351"
     width="229.5"
     height="351"
     preserveAspectRatio="xMidYMid meet"
     zoomAndPan="magnify"
     contentScriptType="application/ecmascript"
     contentStyleType="text/css">
   <defs/>
   <metadata  xmlns:svg="http://www.w3.org/2000/svg"
             xmlns:rdf="http://www.w3.org/1999/02/22-rdf-syntax-ns#"
             xmlns:cc="http://creativecommons.org/ns#">
      <rdf:RDF>
         <cc:Work rdf:about="">
            <dc:creator>
               <cc:Agent>
                  <dc:title>http://heraldicart.org Brazier.svg</dc:title>
               </cc:Agent>
            </dc:creator>
         </cc:Work>
      </rdf:RDF>
   </metadata>
   <g fill-opacity="1" stroke-opacity="1" stroke="#505050" stroke-dasharray="none"
      fill="#ffff00">
      <title>Brazier</title>
      <g>
         <title>Art</title>
         <g>
            <g>
               <g>
                  <g  id="outline-0">
                     <path 
                           d="M 174.85817 145.17745 C 174.6665 143.96731 171.43288 136.43624 170.52812 135.01891 C 169.95033 134.15004 168.52767 132.49462 167.34154 131.32194 C 166.1554 130.14926 164.99788 128.65192 164.73662 128.01302 C 163.80677 125.6793 165.16809 123.66297 168.87392 121.79551 C 172.69067 119.87047 175.08634 115.28934 174.7943 110.41363 C 174.65137 107.99529 174.58142 107.80629 173.8088 107.72858 C 173.11426 107.6385 172.77336 108.01262 172.20902 109.50257 C 171.00846 112.53386 168.50731 115.6911 166.1902 116.97847 C 163.06993 118.75318 161.57877 119.94974 160.44125 121.6105 C 159.10042 123.50354 158.8422 124.90499 159.2688 127.59853 C 159.73252 130.52628 160.9024 132.1017 165.04636 135.527 C 168.86142 138.64424 171.74577 141.94891 172.79892 144.30312 C 173.26384 145.46998 173.64415 145.84992 174.19066 145.76336 C 174.62007 145.69535 174.89526 145.41167 174.85817 145.17745 Z"
                           fill="black"/>
                  </g>
               </g>
               <g>
                  <path d="M 164.97144 133.53806 C 161.10499 130.34892 160.1898 128.61312 160.56017 125.39319 C 160.8138 122.95206 162.4217 120.9767 165.7391 118.93067 C 169.20646 116.82087 170.87 115.19684 172.32759 112.525 C 173.46899 110.38344 173.55943 110.44915 173.3058 112.89028 C 172.954 116.22732 170.78563 119.21181 167.3202 121.08121 C 161.82523 124.03236 161.50433 127.56458 166.24887 132.2553 C 169.94293 135.8719 172.07553 139.73582 168.81741 136.85049 C 167.8821 135.99823 166.12667 134.51556 164.97144 133.53806 Z"/>
               </g>
            </g>
            <g>
               <g  id="outline-1">
                  <path 
                        d="M 133.44476 66.049636 C 133.80047 66.12868 134.3538 66.12868 134.63046 66.049636 C 134.8676 65.931066 134.59093 65.85202 133.91904 65.85202 C 133.28666 65.85202 133.04952 65.931066 133.44476 66.049636 Z"
                        fill="black"/>
               </g>
            </g>
            <g>
               <g  id="outline-2">
                  <path 
                        d="M 189.44938 77.23475 C 189.44938 84.86276 192.41363 92.64887 197.39358 98.06357 C 200.39735 101.34401 202.05733 105.84967 202.334 111.42247 L 202.53161 115.37481 L 201.504 113.31959 C 200.59497 111.50152 198.53975 109.24868 197.82833 109.24868 C 197.67024 109.24868 197.55167 110.90867 197.55167 112.92436 C 197.55167 115.80956 197.35405 116.95574 196.68215 118.41811 C 195.53598 120.90808 192.96696 123.35853 189.8446 125.01851 C 184.27181 127.94324 180.12186 133.87175 178.54093 141.02548 C 177.1576 147.42826 178.54093 156.08388 182.29565 164.69998 C 183.36278 167.15043 185.49704 172.96036 187.07797 177.62412 C 189.80509 185.76594 189.92366 186.24022 189.76556 189.0859 C 189.40985 194.6587 186.48512 198.33437 179.8452 201.49624 C 176.92047 202.91908 175.69524 203.74907 174.07478 205.4881 C 172.96813 206.71333 171.94052 208.13617 171.82195 208.6895 C 171.34767 210.50757 170.99196 209.24282 171.34767 206.99 C 171.7429 204.4605 173.52146 200.31054 175.1024 198.2158 L 176.13 196.872 L 174.62811 197.14867 C 173.7586 197.30676 172.4148 197.78104 171.58481 198.2158 C 169.72721 199.16436 169.64817 198.61103 171.42672 197.22772 C 174.4305 194.93536 177.59236 188.45353 177.59236 184.54071 C 177.59236 181.53694 177.27618 181.37884 175.6162 183.5131 C 174.31192 185.17309 171.901 187.10973 171.11053 187.10973 C 170.99196 187.10973 170.8734 186.8726 170.8734 186.59593 C 170.8734 186.35879 170.67577 185.41023 170.43863 184.54071 L 169.96435 182.95978 L 169.41103 184.93595 C 168.58104 187.7421 167.672 188.49305 163.60109 189.87637 C 159.33257 191.2992 155.38023 194.02632 153.52263 196.872 C 152.21836 198.80865 151.1117 201.97052 151.1117 203.67003 C 151.1117 204.22335 150.91409 204.9743 150.71647 205.29048 C 150.4398 205.68572 150.32124 204.61859 150.32124 201.931 C 150.32124 197.34629 151.2698 192.8011 153.1274 188.61162 C 154.78738 184.8569 155.45927 181.33932 155.45927 176.43842 C 155.45927 171.61657 154.8269 168.65232 152.9693 165.21378 C 151.2698 162.01239 148.18697 158.69243 147.51508 159.3248 C 147.11984 159.72003 147.23841 160.11527 148.10793 161.3405 C 149.53077 163.3957 150.63742 166.439 150.95361 169.00803 C 151.30932 172.09085 150.20267 177.62412 148.46364 181.1417 L 147.0408 184.06643 L 145.73652 180.03505 C 143.87893 174.34368 142.29799 171.57705 138.78041 167.90137 C 137.0809 166.16234 135.34188 163.90951 134.90712 162.92143 C 133.99808 160.86621 133.20761 155.80722 133.40523 153.35677 C 133.48428 152.13155 133.36571 151.73631 132.8519 151.61774 C 132.06144 151.45965 131.8243 152.17107 131.35002 156.16293 C 130.71764 161.97287 131.98239 167.7828 134.90712 172.28847 C 135.73711 173.59274 136.7252 175.3713 137.04138 176.28033 C 137.7528 178.37507 138.46422 182.95978 138.46422 185.6869 C 138.46422 187.66306 138.38518 187.9002 137.67376 187.9002 C 135.46045 187.9002 133.12857 190.1135 132.10096 193.11729 C 131.70573 194.30299 131.3105 194.93536 131.19192 194.61917 C 131.11288 194.30299 130.6386 192.76157 130.16432 191.25969 C 128.97861 187.5445 127.08149 184.22453 126.33055 184.5012 C 126.01436 184.61976 125.65865 184.73833 125.5796 184.73833 C 125.46103 184.73833 125.65865 185.25213 125.97484 185.8845 C 126.4096 186.7145 126.56769 188.414 126.56769 192.2873 C 126.60721 197.97866 127.35816 202.761 128.97861 206.99 C 130.67812 211.45613 134.94664 216.8313 139.64992 220.3489 L 141.03324 221.41602 L 135.8952 221.69268 C 127.71387 222.16697 122.5363 221.0208 118.62349 217.77987 C 116.56827 216.1594 115.85685 215.01323 113.44593 209.59853 C 111.31167 204.85573 108.90074 202.6029 104.75079 201.49624 C 101.70749 200.70577 99.73132 200.7453 99.73132 201.65433 C 99.73132 202.16814 100.32417 202.68194 101.3913 203.15622 C 105.6203 205.05334 108.26837 208.21521 109.57264 212.95802 C 112.02309 221.77173 119.88824 227.26548 131.50811 228.17452 C 137.87137 228.72785 140.7961 229.79498 144.11607 232.8778 C 146.2108 234.85397 147.87079 237.7787 148.8984 241.25676 L 149.53077 243.43054 L 148.34507 242.04722 C 147.7127 241.29628 146.76413 240.11058 146.28985 239.39916 C 145.06463 237.69965 141.66562 235.52587 139.25469 234.93302 C 136.84377 234.34016 134.59093 234.65635 131.94287 235.88158 C 130.04574 236.7511 129.8086 236.7511 126.80483 236.2768 C 125.0658 236.03967 121.70631 235.48634 119.29539 235.13063 C 113.20879 234.2216 108.38694 233.0359 105.22507 231.77115 C 97.59705 228.60928 90.79903 222.08792 86.6886 214.02515 C 85.58195 211.85136 84.87053 211.219 84.19863 211.85136 C 83.8034 212.2466 87.40002 222.246 89.45524 226.4355 C 91.98474 231.6921 94.39566 234.85397 97.6761 237.14632 C 101.31225 239.67582 101.3913 239.7944 99.5337 239.4782 C 96.76706 239.00392 94.7909 237.85775 91.98474 235.2492 C 87.91383 231.41544 87.16288 232.24543 89.85047 237.6206 C 91.82664 241.53342 95.93707 245.84147 99.88941 248.13382 C 103.0908 250.03094 104.90888 252.0071 106.68743 255.64326 C 108.30789 259.00275 108.6636 260.86035 109.1774 268.13265 C 109.41454 271.29452 109.8493 274.73305 110.16549 275.8397 C 110.48167 276.90684 110.71881 277.8554 110.60024 277.93445 C 110.5212 278.0135 108.11027 278.60634 105.18554 279.23872 C 82.53865 284.2977 70.87925 291.0167 72.49971 298.05184 C 73.52732 302.63656 78.07251 311.96407 82.6177 318.8016 C 85.06814 322.55634 90.64094 329.67054 94.75137 334.3343 C 96.4904 336.31047 96.4904 336.31047 96.13469 338.28664 C 95.93707 339.35377 95.66041 343.38516 95.54184 347.1794 C 95.26518 355.24217 95.8185 359.78736 97.79467 365.99253 C 101.11463 376.4267 105.6203 381.44617 110.83738 380.57665 C 113.88068 380.06285 120.75775 374.49005 124.03819 369.94486 C 125.93531 367.25727 128.18815 362.79113 128.18815 361.68448 C 128.18815 360.77544 128.42529 360.81496 130.52003 362.1983 C 134.78855 364.9254 150.47933 371.64437 162.21777 375.79432 L 166.40725 377.2962 L 166.68391 382.27616 C 166.96058 388.1256 168.0277 393.6984 169.41103 396.7022 C 170.51768 399.1131 177.3157 408.2035 179.21282 409.78442 C 181.3866 411.6025 183.28373 411.6025 185.45752 409.78442 C 187.2756 408.243 194.42932 398.63883 195.33836 396.46505 C 196.56358 393.61936 197.67024 387.53276 197.98643 382.11806 L 198.2631 377.2962 L 202.8478 375.63623 C 216.08813 370.8539 229.9213 364.88587 234.18984 362.11923 C 235.25697 361.44734 236.166 360.97306 236.20553 361.0521 C 236.24505 361.13115 236.6403 362.1983 237.03552 363.384 C 238.1817 366.8225 240.35548 370.0239 243.99163 373.6996 C 251.50108 381.28807 256.0858 382.47377 260.55193 378.00763 C 263.67427 374.8853 266.9547 367.4944 268.2985 360.57782 C 269.4842 354.4517 269.4447 342.00184 268.259 337.0614 C 268.1009 336.3895 268.69374 335.4805 270.86753 333.10908 C 279.6022 323.58394 287.78353 310.69932 291.18254 301.0161 C 292.40777 297.53804 292.4473 296.629 291.4197 294.65283 C 289.404 290.66097 282.40835 286.23436 273.0413 283.03296 C 265.17616 280.34537 250.75013 277.10446 242.88498 276.19542 C 241.54118 276.07685 240.31596 275.76066 240.1974 275.60257 C 239.80216 274.93067 241.30404 268.7255 242.2526 267.06552 C 243.7545 264.4965 246.9954 261.88796 254.2677 257.50086 C 260.3148 253.8647 261.30287 253.11377 263.3976 250.58427 C 266.28282 247.10621 269.00993 241.652 269.91897 237.54156 C 271.22324 231.49448 270.07706 218.72843 267.31042 208.57092 C 266.87567 207.02951 265.13664 202.20766 263.3976 197.89961 C 259.08956 187.0702 259.20813 187.7421 260.23574 181.49741 C 261.3424 174.73892 261.1843 169.36374 259.76146 166.16234 C 259.24766 164.97664 257.50863 162.24953 255.88817 160.07574 C 254.2677 157.90196 252.52868 155.17485 252.01488 154.0682 C 251.10584 152.01298 249.95966 147.42826 249.92014 145.68924 C 249.92014 144.85924 248.97158 144.06878 248.4973 144.54306 C 248.37873 144.6221 248.1416 145.68924 247.9835 146.83541 C 247.3116 151.10394 248.61587 155.80722 251.97536 160.90573 C 254.9001 165.4114 255.9277 168.05947 256.16483 172.1699 C 256.32293 175.01558 256.20436 176.08271 255.53246 178.0984 C 254.30723 181.73455 253.5563 185.29166 253.2401 189.0859 L 252.96344 192.44539 L 252.01488 189.87637 C 250.94775 187.10973 250.94775 185.64737 251.8963 179.67934 C 252.76582 174.10654 251.46155 169.04755 247.5092 162.3681 C 244.624 157.4672 243.5964 154.4239 243.5964 150.7087 C 243.5964 148.3373 243.51735 147.9816 242.88498 147.9816 C 242.01547 147.9816 241.42261 149.60205 240.82976 153.87057 C 240.1974 158.4948 240.82976 162.56572 243.2407 168.53375 C 244.50544 171.77466 245.92828 178.21697 245.41448 178.69125 C 245.33543 178.7703 244.66353 177.90079 243.9521 176.7546 C 243.20117 175.60843 241.54118 173.31607 240.1974 171.6561 C 237.70742 168.49422 235.05935 163.75142 233.9527 160.47098 C 233.4389 158.92957 233.2808 156.51864 233.16223 148.41635 C 233.00414 133.83222 232.68795 132.68605 226.44326 123.20044 C 222.649 117.43002 221.85854 115.29576 222.53044 112.72674 C 222.84663 111.54104 222.84663 110.86914 222.56996 110.55296 C 222.05616 109.92058 221.66093 110.15772 220.31713 112.01532 L 219.21048 113.55673 L 218.53858 110.15772 C 217.5505 105.09873 216.32527 102.88542 212.53103 99.17022 C 208.5787 95.33646 207.5906 93.39981 207.31394 88.97319 C 207.15585 86.24608 207.03728 85.92989 206.32586 85.92989 C 205.57491 85.92989 205.5354 86.08799 205.81205 89.56604 C 205.97015 91.58174 206.32586 94.54599 206.563 96.0874 L 207.0768 98.97261 L 204.50778 96.48263 C 203.08494 95.09932 200.8321 93.16267 199.52784 92.17459 C 193.7179 87.74797 191.03031 82.96564 190.99079 76.99761 C 190.99079 74.38907 190.87222 74.07288 190.20032 74.07288 C 189.52842 74.07288 189.44938 74.38907 189.44938 77.23475 Z"
                        fill="black"/>
               </g>
            </g>
            <g>
               <path d="M 200.55545 94.94122 C 206.08872 99.24927 210.1201 104.98016 211.22676 109.99963 C 211.74056 112.52912 211.10819 117.43002 209.64582 121.7776 C 208.7763 124.5047 208.65774 125.05803 209.13202 125.25565 C 209.92248 125.53231 209.92248 125.53231 210.98962 122.33092 C 212.37293 118.29954 212.88674 114.78196 212.68912 111.06676 C 212.53103 108.30012 212.2939 107.39109 211.06866 104.98016 C 209.80391 102.45066 208.4206 98.65642 208.4206 97.66834 C 208.4206 97.07548 213.6772 102.09495 214.82338 103.79446 C 216.68098 106.64014 217.62954 111.10628 217.59002 116.7186 C 217.5505 122.52854 217.78764 123.319 221.4238 129.64275 C 224.74375 135.41316 225.53422 137.90313 225.3366 141.53928 C 225.1785 144.1083 225.21803 144.42449 225.8504 144.42449 C 226.3642 144.42449 226.60135 143.9502 226.79897 142.44832 C 227.3523 138.45646 226.3642 135.37363 222.2933 128.2199 L 219.28952 122.88425 L 219.28952 119.92 C 219.28952 116.99527 220.04047 114.1891 220.71237 114.62386 C 220.90998 114.74243 221.06808 115.25624 221.06808 115.73052 C 221.06808 117.27193 222.21425 119.52476 225.53422 124.46518 C 229.5656 130.51226 230.47464 132.48843 230.98844 136.55934 C 231.50225 140.3931 231.0675 143.4364 228.93323 151.14346 C 227.82657 155.13532 227.66848 156.32102 227.62896 160.82669 C 227.58943 166.28091 228.10324 168.77089 229.9213 172.48608 C 230.5537 173.7113 230.9094 175.33177 231.0675 177.62412 C 231.38368 181.8136 232.41129 185.44975 235.1384 192.2873 C 237.98408 199.48055 238.97217 203.74907 238.77455 207.89903 C 238.49788 213.31373 236.87743 215.32942 226.3642 223.35267 C 218.0643 229.6764 216.08813 232.32447 215.13957 238.25298 C 214.42815 242.71912 215.49528 248.17335 218.18287 253.78567 C 219.05238 255.7223 219.7638 256.67087 220.19856 256.67087 C 220.7914 256.67087 220.87046 256.11754 220.87046 251.84902 C 220.90998 247.7781 221.02855 246.63193 221.7795 244.81386 C 223.36043 240.822 225.45517 238.68774 231.107 235.13063 C 231.54177 234.85397 231.62082 234.53778 231.38368 234.18207 C 230.86987 233.35208 227.27325 235.44682 224.5066 238.17393 C 221.66093 240.9801 220.08 244.221 219.36857 248.7662 L 218.85477 252.12568 L 217.74811 248.7662 C 215.25814 241.13819 216.24622 234.61683 220.5938 230.07164 C 221.38426 229.20213 224.62518 226.55406 227.78705 224.14313 C 234.9803 218.64939 237.78646 215.88275 239.16978 212.9185 C 240.07882 210.94233 240.2369 210.11234 240.2369 207.06904 C 240.1974 202.48432 239.3674 199.16436 236.24505 191.22016 C 234.86173 187.70258 233.71556 184.58024 233.71556 184.30357 C 233.71556 183.31549 238.41884 190.4297 240.395 194.42156 C 242.96403 199.5596 243.99163 203.31432 244.22877 208.25474 C 244.34734 211.17947 244.50544 212.2466 244.90067 212.32565 C 245.73066 212.48374 246.00733 209.44044 245.53305 205.72524 C 244.82162 199.7177 242.52927 194.30299 237.74694 187.03069 C 236.20553 184.6988 234.70364 182.3274 234.38745 181.69503 C 233.7946 180.58838 232.88557 177.62412 233.1227 177.62412 C 233.4389 177.62412 242.055 187.5445 243.4383 189.52066 C 245.88876 192.99872 247.78588 197.78104 249.56443 204.9743 C 251.34298 212.2466 251.81726 216.1594 251.14536 218.57034 C 250.39442 221.29745 247.94397 224.53837 240.8693 232.16638 C 231.38368 242.40293 228.34038 247.18526 226.99658 254.22042 C 225.8504 259.9118 227.62896 269.35787 229.44703 267.5398 C 229.5656 267.42123 229.28894 266.31457 228.85418 265.04983 C 227.82657 262.08557 227.78705 256.31516 228.7356 252.71853 C 229.48656 249.91237 231.50225 245.68337 233.32032 243.0353 C 233.99222 242.08675 237.74694 237.7787 241.69928 233.47065 C 245.65162 229.1626 249.56443 224.5779 250.39442 223.27362 C 252.4101 220.15127 253.2401 217.26607 252.92392 214.42038 C 252.52868 211.10042 250.39442 202.0891 248.93206 197.3858 C 247.03493 191.49683 246.75827 189.40209 246.75827 181.8136 C 246.75827 174.30416 246.44208 172.56513 244.2683 167.15043 C 242.64784 163.07952 241.8969 159.40385 242.0945 156.2815 L 242.21308 154.10771 L 242.9245 156.2815 C 243.31974 157.4672 244.7821 160.43145 246.16542 162.84238 C 250.513 170.43087 251.50108 175.13415 250.07823 181.9717 C 249.20872 186.35879 249.5249 188.45353 251.8568 193.19633 C 252.92392 195.37012 253.5563 197.3858 253.87248 199.52007 C 254.14914 201.21958 254.9396 204.77668 255.69055 207.42475 C 259.4848 220.74412 258.25957 225.4474 248.4973 235.01206 C 244.50544 238.92488 241.5807 242.64007 241.46214 243.94434 C 241.34357 245.28814 242.37118 244.6953 243.79402 242.56103 C 244.624 241.29628 247.35112 238.21346 249.88062 235.68396 C 254.50485 231.05972 256.32293 228.53023 258.06196 224.38027 C 258.8129 222.52268 259.01052 221.3765 259.01052 218.3332 C 259.01052 214.53895 258.89195 213.86706 256.24388 203.90717 C 254.03057 195.48869 254.14914 187.18878 256.56007 179.7979 C 258.61528 173.59274 257.7853 167.30852 254.2282 161.77525 C 252.0544 158.41576 250.43394 155.49103 250.11776 154.30533 C 249.9992 153.752 250.31537 154.14724 250.82918 155.13532 C 251.3825 156.1234 253.16106 158.73195 254.7815 160.94526 C 256.40197 163.11904 258.141 165.96473 258.61528 167.22947 C 259.8405 170.3123 259.8405 175.33177 258.6548 182.36693 C 257.311 190.2716 257.7853 195.21202 260.94716 205.6462 C 263.95094 215.56656 264.42522 219.95366 262.96285 225.68455 C 261.54 231.3364 259.52432 234.4192 254.742 238.41107 C 251.97536 240.70343 250.39442 242.79817 251.10584 243.23292 C 251.46155 243.47006 252.33107 242.8377 253.87248 241.3358 C 255.13723 240.07105 257.23196 238.05536 258.53624 236.83014 C 262.76524 232.8778 265.09712 226.67263 265.0576 219.5189 C 265.0576 215.01323 264.62284 212.87897 262.1724 204.69763 C 260.78907 200.03388 260.3148 197.93914 259.6429 193.8287 C 259.3267 191.81301 259.76146 192.72205 262.8838 200.54768 C 265.80854 207.8595 266.79662 211.49565 268.06137 219.5189 C 270.43277 234.34016 269.04945 241.3358 262.05382 249.9519 C 260.43336 251.92807 259.08956 252.91615 253.35867 256.35468 C 245.65162 260.97892 241.77832 264.25936 240.51358 267.26314 C 240.0393 268.33027 239.2093 271.68975 238.65598 274.77258 C 237.43075 281.5706 236.12648 285.87865 234.50602 288.40814 C 233.35985 290.26574 231.0675 292.63714 230.47464 292.63714 C 230.35607 292.63714 230.67226 291.5305 231.22558 290.1867 C 232.6089 286.78768 233.32032 283.15153 233.32032 279.3968 C 233.32032 275.1678 233.9527 271.6107 235.17792 268.7255 C 236.28458 266.0379 236.4822 264.93126 235.8103 264.69412 C 235.21744 264.4965 233.4389 268.29074 232.72747 271.4131 C 232.41129 272.7964 231.97653 276.5116 231.7789 279.63395 C 231.50225 283.98152 231.18606 285.9972 230.43512 288.21052 C 228.85418 292.83476 225.88993 297.3009 223.51853 298.68422 L 222.2933 299.3561 L 223.9928 296.03615 C 227.90562 288.36862 228.41942 279.59443 225.41565 271.57118 C 224.78327 269.83216 224.38804 269.31835 223.75567 269.31835 C 223.16282 269.31835 223.04425 269.47644 223.24186 269.99025 C 224.34852 272.71736 225.41565 276.39304 225.77136 278.6854 C 227.0361 286.8272 222.88615 298.3285 217.35288 302.0437 C 214.46767 303.94083 214.11196 303.62464 216.08813 300.93705 C 218.18287 298.09137 219.32905 294.85045 219.9219 290.06812 C 220.47523 285.72055 220.15904 277.89492 219.28952 274.654 C 218.49906 271.72928 216.91812 268.13265 216.3648 268.13265 C 215.5348 268.13265 215.57433 268.92312 216.5229 271.01786 C 217.98525 274.17973 218.69667 278.56682 218.69667 284.33723 C 218.69667 290.14717 217.98525 294.4157 216.5624 297.459 C 215.10005 300.5023 211.74056 304.09892 208.81583 305.64033 L 206.36538 306.9446 L 208.53917 304.09892 C 211.22676 300.5418 212.17532 298.1309 213.24245 292.0443 C 214.6653 283.70486 214.23053 278.883 211.58247 273.70545 C 210.08058 270.78072 209.52725 270.0693 208.9344 270.425 C 208.5787 270.66215 208.89488 271.65023 210.15963 274.1402 C 213.0053 279.83157 213.28197 282.87487 211.8196 291.5305 C 210.31772 300.22563 208.34155 303.50607 201.26687 308.68363 C 197.55167 311.41075 196.44501 312.63597 194.78503 315.95593 L 193.67838 318.1297 L 190.99079 315.2445 C 184.03467 307.7746 182.2166 301.96466 185.69466 298.1309 C 188.73796 294.73188 190.08175 289.75194 189.09367 285.6415 C 188.817 284.57437 187.43368 281.37298 186.01084 278.48777 C 182.92802 272.20356 181.26804 270.34596 176.16952 267.5398 C 170.0434 264.10127 167.8301 261.17654 169.5296 258.7261 C 170.12245 257.8961 170.12245 257.738 169.5296 257.10563 C 169.17389 256.7104 169.0158 256.31516 169.13436 256.15707 C 169.25293 256.0385 170.28054 256.8685 171.42672 258.01467 C 175.3 262.00653 182.13755 264.29888 187.07797 263.3108 L 188.4613 263.03413 L 189.92366 266.07743 C 190.71412 267.73742 192.76934 271.37357 194.50837 274.1402 C 198.50023 280.5825 199.1326 282.4401 199.1326 288.09195 C 199.09308 291.92572 198.9745 292.7557 197.98643 295.16664 C 197.07739 297.34042 196.95882 297.93327 197.39358 298.20994 C 198.06547 298.60517 198.57928 297.73566 199.8045 294.21808 C 201.6621 288.88242 200.75306 281.53107 197.63072 276.43256 C 192.33458 267.81646 191.22793 265.8403 190.0027 262.87604 C 186.76179 254.8528 187.39416 247.0667 191.78126 241.29628 C 192.76934 239.992 195.77312 237.54156 196.01026 237.81822 C 196.0893 237.89727 195.81264 238.88535 195.37788 239.992 C 194.46885 242.40293 193.91552 246.71098 194.11314 250.22856 C 194.2317 252.24425 194.3898 252.71853 194.9036 252.71853 C 195.49645 252.71853 195.5755 252.12568 195.61502 248.05478 C 195.61502 244.10244 195.77312 243.0353 196.64263 240.78247 C 198.73737 235.20968 202.72923 229.79498 211.85913 220.07223 C 220.11952 211.29804 222.37235 208.61045 223.8347 205.68572 C 225.3366 202.68194 226.5223 198.45294 226.8385 194.6587 L 227.11515 191.65492 L 228.0242 193.6311 C 229.5656 197.0301 230.27702 201.06148 230.0794 204.9743 C 229.68417 211.37708 227.23372 215.01323 215.65337 226.23787 C 207.15585 234.45873 204.27064 239.00392 202.6897 246.5924 C 202.13638 249.31952 201.89924 253.11377 202.25495 253.11377 C 203.32208 253.11377 203.6778 252.4814 203.6778 250.58427 C 203.6778 248.21287 204.78445 243.58863 206.0492 240.70343 C 207.7487 236.67204 210.51534 233.31256 218.49906 225.36836 C 229.68417 214.22277 231.4232 211.25851 231.50225 203.70955 C 231.54177 199.00627 230.71178 195.6863 228.30085 190.86445 C 226.64087 187.5445 226.8385 187.82115 226.12707 188.09782 C 225.61326 188.29543 225.45517 189.32304 225.3366 193.1568 C 224.9809 201.97052 222.76758 206.47619 214.62577 215.01323 C 204.38921 225.80312 200.79259 230.03212 198.50023 233.94493 C 197.9469 234.8935 196.95882 235.68396 195.49645 236.39538 C 192.72982 237.73918 189.8446 240.90105 188.22415 244.33958 C 187.07797 246.7505 186.91988 247.38288 186.76179 251.73045 C 186.64322 255.32708 186.76179 257.10563 187.23607 259.00275 C 187.59178 260.38607 187.7894 261.6113 187.67083 261.72986 C 187.59178 261.84843 186.6037 262.00653 185.53656 262.1251 C 181.62375 262.4808 175.81381 260.30702 172.69147 257.30325 C 170.51768 255.16898 169.17389 252.59996 168.1858 248.52906 C 166.05154 240.11058 163.20586 235.52587 156.5264 229.8345 C 152.02074 226.00073 149.5703 224.2617 146.3689 222.64125 C 138.02947 218.45177 131.86382 211.8909 129.76908 204.89525 C 128.18815 199.67817 127.16054 190.2716 128.14862 190.2716 C 128.54386 190.2716 129.61099 193.90775 130.12479 197.1882 C 130.71764 200.98244 134.27475 208.05712 135.57902 208.05712 C 136.52758 208.05712 136.48806 207.26665 135.5395 205.8043 C 132.21953 200.78482 132.14048 193.19633 135.3814 190.46922 C 136.64615 189.40209 138.06899 189.16495 138.06899 189.99494 C 138.06899 190.2716 137.79233 191.37826 137.43662 192.40586 C 136.88329 194.02632 136.88329 194.38203 137.31805 194.6587 C 138.10851 195.13298 138.38518 194.69822 139.29421 191.25969 C 139.96611 188.69067 140.04516 187.42592 139.84754 184.54071 C 139.41278 177.97983 138.50375 174.897 135.73711 170.8261 C 134.47236 168.9685 131.81673 164.91778 132.43954 159.14694 C 132.47906 158.47505 133.20761 162.8819 133.95856 164.34427 C 134.51189 165.4114 136.21139 167.50614 137.71328 169.04755 C 139.21517 170.54944 140.91467 172.56513 141.468 173.47417 C 142.61418 175.48986 144.6694 180.90456 145.22272 183.63168 C 145.61795 185.48927 145.61795 185.60784 144.43225 186.91212 C 142.77227 188.80924 141.74466 190.9435 141.03324 193.90775 C 140.40087 196.59534 140.24278 200.78482 140.75658 201.101 C 141.54705 201.57529 141.94228 200.50816 142.10037 197.3858 C 142.37704 192.99872 143.44417 190.31113 146.13176 187.18878 C 150.16314 182.6436 152.21836 176.9127 152.33693 170.3123 L 152.37645 167.15043 L 153.16692 169.52183 C 153.7993 171.30038 153.99691 172.96036 153.99691 176.2408 C 154.03643 181.06266 153.4831 184.22453 152.02074 187.50497 C 149.09601 194.10537 148.18697 200.70577 149.33315 207.10856 C 150.0841 211.4166 151.38837 215.9618 151.82312 215.9618 C 152.89026 215.92227 153.04835 215.25037 152.6136 212.6023 C 152.02074 208.6895 152.41597 202.84004 153.44358 200.11292 C 154.90595 196.27916 159.76732 192.32682 164.54965 191.06207 C 165.53774 190.82493 167.07915 190.15303 167.98818 189.63923 C 169.80626 188.61162 169.76674 188.5721 168.8577 191.06207 C 168.62056 191.65492 167.0001 193.07776 164.70774 194.61917 C 160.3997 197.5439 158.8978 199.32245 157.83068 202.8005 C 156.64498 206.63428 156.40784 209.08473 157.1983 209.3614 C 157.55401 209.51949 157.83068 209.51949 157.83068 209.40092 C 157.83068 208.33378 159.25352 202.8005 159.8859 201.49624 C 160.95302 199.20388 161.78301 198.3739 166.1701 195.3306 C 169.96435 192.68253 170.8734 191.53635 170.8734 189.48113 C 170.8734 189.0859 171.3872 188.5721 172.13814 188.2559 C 172.84956 187.97925 173.99574 187.18878 174.7862 186.5564 L 176.13 185.33118 L 175.85334 186.91212 C 175.3 189.83685 173.28432 193.23586 170.12245 196.5163 C 162.88967 204.02574 161.0716 210.7447 164.1149 218.53081 C 165.9725 223.31314 168.14628 226.35644 173.40289 231.49448 C 179.41044 237.38346 180.63566 238.37155 181.26804 237.73918 C 181.58423 237.423 180.8728 236.51395 178.18522 234.0635 C 170.32006 226.87025 167.8301 223.7479 165.49821 218.13558 C 164.54965 215.8037 164.35203 214.81562 164.35203 212.00946 C 164.35203 209.12425 164.51013 208.3733 165.49821 206.5157 C 166.09106 205.36953 167.35581 203.59098 168.30437 202.56337 C 170.12245 200.62673 172.77051 198.80865 172.33576 199.79674 C 169.05532 207.42475 168.93675 209.83567 171.54529 217.54273 C 173.6005 223.55028 176.05095 227.38405 180.91233 232.16638 C 183.32325 234.53778 183.99515 235.01206 184.31134 234.53778 C 184.588 234.10302 183.87658 233.15446 181.3866 230.58544 C 177.4738 226.59358 175.3 223.3922 173.56098 218.96557 C 170.63625 211.49565 172.81004 206.43666 180.59614 202.761 C 184.78562 200.7453 187.07797 199.00627 188.77748 196.5163 C 191.58364 192.36634 192.13697 187.82115 190.39794 183.03882 C 189.80509 181.49741 188.77748 178.33554 188.06606 176.04319 C 187.39416 173.75083 185.85275 169.67992 184.7461 166.95281 C 180.79376 157.50672 179.529 152.64535 179.44996 146.79589 C 179.41044 142.36927 180.16138 139.12836 182.13755 135.09697 C 183.99515 131.2632 186.32703 128.81275 190.27937 126.48088 C 192.09744 125.37422 194.2317 123.91186 195.0617 123.16091 C 196.87977 121.54045 198.38166 118.53668 199.09308 115.13767 C 199.6464 112.60817 199.6464 112.60817 200.1207 113.79387 C 200.35783 114.42625 200.75306 115.92813 200.95068 117.07431 C 201.62258 120.71046 200.6345 122.64711 195.33836 127.8642 C 191.22793 131.97462 189.3308 135.72935 189.09367 140.15596 C 188.85653 145.4521 190.20032 148.21873 198.105 159.00861 C 203.0059 165.64854 204.11255 167.58519 205.02159 171.14229 C 205.93062 174.6994 205.81205 174.81796 204.0335 172.05133 C 203.12446 170.668 199.9626 167.1109 196.95882 164.18617 C 190.63508 157.94148 188.93557 155.7677 186.64322 151.0249 C 185.73418 149.12777 184.7461 147.58636 184.46943 147.58636 C 183.5604 147.58636 183.83706 148.61397 185.65513 152.25012 C 187.98701 156.91387 190.27937 159.8386 194.86408 164.02808 C 201.93876 170.50991 205.733 176.3989 206.28633 181.61598 C 206.563 184.38262 205.97015 188.88828 205.0611 190.86445 C 204.50778 192.01063 204.50778 192.01063 204.7054 190.07399 C 204.98206 187.26783 203.91493 181.85312 202.53161 179.00744 C 200.43688 174.73892 193.2041 167.74328 192.09744 168.88946 C 191.74173 169.2847 191.97887 169.6404 193.2041 170.58896 C 195.9312 172.72322 199.60688 176.71508 200.87163 178.9284 C 203.32208 183.23644 203.95446 191.1016 202.1759 195.13298 C 201.34591 196.99058 199.25117 199.5596 198.06547 200.19197 C 197.63072 200.4291 196.01026 200.98244 194.46885 201.37767 C 191.66269 202.16814 186.68274 204.34192 185.37847 205.36953 C 184.94371 205.68572 184.7461 206.16 184.90419 206.55523 C 185.14133 207.10856 185.45752 207.02951 187.39416 205.8438 C 188.61939 205.09287 191.54412 203.86764 193.83647 203.15622 C 199.1326 201.45672 200.00212 201.02196 201.97829 198.8877 C 204.11255 196.55582 205.41682 194.26346 206.60252 190.5878 C 207.47204 188.01877 207.63013 186.83307 207.66965 182.68311 C 207.70918 173.79035 206.16776 167.66423 202.76875 162.92143 C 201.62258 161.3405 199.1326 157.90196 197.23548 155.29342 C 195.33836 152.68487 193.00648 149.04872 192.09744 147.23065 C 190.55603 144.14782 190.43746 143.63402 190.47698 140.9069 C 190.5165 136.75695 192.0184 133.51604 195.61502 129.76132 C 197.07739 128.25943 198.34214 127.11325 198.42118 127.1923 C 198.50023 127.27134 198.30261 128.41752 197.9469 129.76132 C 196.87977 133.9508 196.48454 138.1798 196.95882 141.14405 C 197.70976 145.8078 201.58305 152.68487 209.05297 162.5262 C 211.1477 165.2533 213.1634 168.13851 213.55864 168.88946 C 216.00908 173.7113 216.91812 180.58838 215.81147 185.80546 C 214.42815 192.16872 212.05675 196.39773 206.68157 202.01004 C 203.83589 205.01382 202.88732 206.23905 203.2035 206.55523 C 204.0335 207.38522 209.84344 201.45672 212.96578 196.59534 C 216.12765 191.65492 217.66907 186.39831 217.66907 180.58838 C 217.66907 173.43464 216.0486 169.36374 210.19915 161.61716 C 205.17968 154.97723 202.41304 150.66918 200.1602 146.00542 L 198.34214 142.2507 L 198.38166 137.90313 C 198.42118 133.16033 199.25117 129.16847 201.34591 123.95138 C 203.75684 117.82526 204.42874 113.12197 203.5197 108.14203 C 202.80828 104.18969 200.87163 99.88164 198.6188 97.2731 C 196.04978 94.30885 193.00648 89.52652 193.00648 88.41987 C 193.00648 88.26177 194.11314 89.21033 195.49645 90.5146 C 196.84025 91.81888 199.1326 93.83457 200.55545 94.94122 Z"/>
            </g>
            <g>
               <path d="M 231.81843 152.84297 C 231.69986 158.1391 231.7789 158.61338 232.84604 161.61716 C 234.18984 165.45092 236.44267 169.36374 239.44645 173.07893 C 240.67167 174.58082 242.4107 177.11032 243.35926 178.65173 C 245.01924 181.37884 245.05876 181.49741 245.25638 185.60784 L 245.454 189.79732 L 243.79402 187.5445 C 242.88498 186.31926 240.51358 183.55263 238.49788 181.37884 C 231.38368 173.63226 229.36799 169.56135 229.09132 162.40762 C 228.97275 159.9967 229.09132 156.99292 229.32846 155.68865 C 229.9213 152.40821 231.46272 146.79589 231.7394 147.03303 C 231.81843 147.1516 231.85796 149.76014 231.81843 152.84297 Z"/>
            </g>
            <g>
               <path d="M 249.80157 153.00106 C 249.64348 153.11963 249.5249 153.00106 249.5249 152.7244 C 249.5249 152.44773 249.64348 152.32916 249.80157 152.44773 C 249.92014 152.60583 249.92014 152.84297 249.80157 153.00106 Z"/>
            </g>
            <g>
               <path d="M 107.75456 204.34192 C 109.80978 205.68572 111.23262 207.78046 113.16926 212.36517 C 114.47354 215.52704 115.18496 216.67322 116.76589 218.13558 C 121.11346 222.16697 128.06958 223.98504 136.21139 223.11553 C 140.91467 222.64125 143.72083 223.03648 146.96175 224.61741 C 150.12362 226.19835 158.06782 232.7197 160.55779 235.80253 C 163.24538 239.1225 165.53774 243.8653 166.68391 248.4105 C 167.19772 250.4657 167.90914 252.71853 168.26485 253.42995 C 168.89722 254.61566 168.8577 254.73423 168.10675 255.48517 C 167.43486 256.15707 167.39533 256.43373 167.75104 257.10563 C 168.06723 257.69848 168.06723 258.21228 167.71152 259.04227 C 166.40725 262.20414 169.05532 265.20792 177.23665 269.83216 C 178.26426 270.425 179.56853 271.4526 180.12186 272.1245 C 181.50518 273.7845 181.46566 276.11637 179.92424 283.70486 C 178.97568 288.25005 178.73854 290.3448 178.85711 292.51857 L 179.05473 295.32473 L 177.94807 294.49474 C 176.6438 293.54618 175.06287 291.41192 174.4305 289.6729 C 174.1143 288.88242 174.07478 286.94578 174.23288 283.70486 C 174.47002 279.79205 174.39097 278.48777 173.83764 276.63018 C 172.77051 272.9545 170.2015 269.43692 169.2134 270.425 C 168.89722 270.7412 169.05532 271.17595 169.84578 272.1245 C 172.4148 275.1678 172.65194 276.07685 172.65194 282.9539 C 172.65194 289.08004 172.69147 289.3567 173.7586 291.5305 C 174.50954 293.03238 175.65572 294.45522 177.23665 295.83854 C 180.04281 298.24946 181.26804 300.22563 182.49326 304.2175 C 183.00707 305.87747 183.87658 308.01174 184.4299 308.99982 C 184.98324 309.9879 185.29942 310.8179 185.1018 310.8179 C 184.39039 310.8179 181.90041 308.32792 180.91233 306.6284 C 179.6871 304.53368 177.55284 302.59703 175.06287 301.3323 C 170.5572 299.03993 167.55343 292.67667 168.30437 286.86673 C 168.46247 285.4834 168.38342 284.73247 168.06723 284.53485 C 167.27676 284.02105 166.92105 285.20675 166.92105 288.28957 C 166.96058 292.63714 167.75104 295.4433 169.84578 298.6447 L 170.5572 299.71183 L 169.0158 299.4747 C 166.56534 299.11898 164.35203 297.9728 163.20586 296.51043 C 162.65253 295.7595 162.17825 294.9295 162.17825 294.69236 C 162.17825 294.0995 161.11112 294.06 160.7554 294.65283 C 160.63684 294.88997 161.0716 295.87806 161.7435 296.82662 L 162.96872 298.56565 L 161.66444 298.56565 C 158.384 298.52613 152.85073 296.629 150.32124 294.6133 C 149.09601 293.62523 148.7403 293.54618 148.38459 293.98094 C 148.02888 294.4157 148.18697 294.7714 149.21458 295.6014 C 152.06026 298.01232 156.64498 299.4747 163.32443 300.1466 C 171.70338 301.0161 176.24857 302.75513 178.6595 306.0751 C 181.46566 309.94838 183.12564 311.56884 185.02276 312.28026 C 186.40608 312.79406 187.71035 313.82167 189.647 315.9164 L 192.41363 318.84114 L 188.85653 318.64352 C 183.63944 318.32734 181.50518 317.37877 178.30379 313.97976 C 174.47002 309.9879 170.24102 308.0908 163.75918 307.4584 C 156.24974 306.70746 148.34507 304.84987 143.79988 302.75513 C 139.37326 300.6999 136.44853 296.86614 135.5395 291.76763 L 135.26283 290.3448 L 139.13612 290.06812 C 147.91031 289.5148 155.22213 288.05243 161.66444 285.56246 C 165.02393 284.2582 170.8734 280.97775 170.8734 280.3849 C 170.8734 279.47586 169.8853 279.67348 167.39533 281.17536 C 162.2573 284.21866 154.8269 286.6691 146.96175 287.93386 C 142.61418 288.64528 129.05766 288.64528 126.21198 287.93386 C 120.8368 286.6296 115.22448 282.83535 113.01117 279.00158 C 111.50928 276.47208 110.87691 273.4683 110.44215 266.47267 C 110.0074 259.83274 109.29597 256.908 107.3198 253.54852 L 106.2922 251.76997 L 108.78217 253.509 C 112.06261 255.80136 113.88068 257.97514 116.17304 262.36224 C 117.20065 264.3384 118.07016 265.9984 118.10969 266.07743 C 118.14921 266.11696 118.4654 266.07743 118.8211 265.91934 C 119.37443 265.72172 119.21634 265.12887 117.51684 261.84843 C 114.35497 255.6828 111.23262 252.79758 102.69557 248.13382 C 100.56131 246.94812 98.07133 245.13005 96.29278 243.5096 C 92.57759 239.95248 89.06001 234.69588 92.41949 237.66013 C 94.55375 239.51773 96.45088 240.34772 100.28464 240.9801 C 103.2489 241.4939 104.31603 241.92865 107.39885 243.78625 C 109.37502 244.97195 113.09022 246.94812 115.61971 248.17335 C 122.14107 251.2957 124.15676 253.23234 126.72578 258.64704 C 130.52003 266.6703 133.6819 271.37357 134.74903 270.46453 C 135.18378 270.10882 135.06521 269.7136 133.95856 268.3698 C 132.18 266.15648 131.23145 264.53602 128.38576 258.7261 C 125.14485 252.1652 123.01058 250.03094 116.84494 247.14574 C 112.49737 245.13005 109.8493 243.62816 110.08644 243.39102 C 110.16549 243.31197 112.81355 243.78625 115.9359 244.41863 C 123.01058 245.84147 126.33055 247.38288 129.65051 250.70284 C 131.58716 252.59996 132.61476 254.25995 135.69759 260.2675 C 139.6104 267.856 142.1399 271.29452 142.85132 270.0693 C 143.08846 269.595 142.85132 269.0812 141.90276 268.0536 C 141.19134 267.30266 138.9385 263.42937 136.88329 259.39798 C 133.72142 253.27186 132.73333 251.73045 130.71764 249.71476 C 127.63482 246.5924 123.08963 244.30006 118.3073 243.43054 C 111.98356 242.24484 108.22884 241.21723 105.06697 239.67582 C 100.64035 237.58108 96.52992 234.69588 94.59328 232.364 C 93.05187 230.5064 89.06001 222.83886 88.46715 220.7046 C 88.23001 219.83509 88.34858 219.8746 89.29715 221.09983 C 91.98474 224.4198 95.42327 227.66071 98.58514 229.79498 C 104.35555 233.62874 109.41454 235.17016 122.6944 237.1068 C 130.08527 238.17393 132.73333 238.9644 135.57902 240.90105 C 138.14804 242.6796 143.95797 248.68715 145.38081 251.1376 C 146.64556 253.23234 147.0408 253.509 147.43603 252.52092 C 148.0684 250.8214 139.6104 241.53342 134.90712 238.8063 L 132.41715 237.34394 L 133.56333 236.86966 C 135.42092 236.0792 139.21517 236.2768 141.03324 237.18585 C 142.89084 238.1344 146.92223 242.24484 148.54268 244.81386 C 149.13553 245.76242 150.24219 248.4105 150.99313 250.66332 C 151.70455 252.91615 152.77169 255.56422 153.32501 256.51278 C 155.45927 260.14893 160.63684 265.08935 161.46683 264.25936 C 161.78301 263.94317 160.99255 262.9551 158.73971 260.74178 C 154.62928 256.7104 153.1274 253.70662 151.54646 246.3948 C 149.5703 237.30442 147.63365 233.3916 143.72083 230.58544 C 140.67753 228.41166 137.7528 227.42357 133.12857 226.9493 C 127.27911 226.35644 123.91962 225.6055 120.99489 224.1036 C 115.69876 221.45554 112.61594 217.93796 110.99548 212.64183 C 109.77025 208.72902 108.5055 206.55523 106.17363 204.50002 C 104.67174 203.15622 104.47412 202.87956 105.26459 203.1167 C 105.81792 203.2748 106.92457 203.82812 107.75456 204.34192 Z"/>
            </g>
            <g>
               <path d="M 187.7894 288.0129 C 187.98701 291.76763 187.31511 293.82284 184.94371 296.74757 C 184.03467 297.85423 183.12564 299.11898 182.96754 299.55373 C 182.69088 300.22563 182.49326 300.028 181.62375 298.20994 C 180.12186 294.88997 179.96377 290.1867 181.26804 284.33723 C 181.82137 281.84726 182.3747 278.7249 182.53279 277.42064 L 182.80945 275.08876 L 185.22038 279.98966 C 187.4732 284.53485 187.67083 285.16722 187.7894 288.0129 Z"/>
            </g>
            <g>
               <g  id="feature-0">
                  <path 
                        d="M 244.30782 277.81588 C 260.19622 280.34537 273.5156 283.98152 281.3017 288.0129 C 288.53448 291.76763 292.17063 296.39186 290.03637 299.19802 C 289.48304 299.90944 289.48304 299.90944 289.4435 299.03993 C 289.4435 297.1033 282.72454 292.16286 276.28223 289.31718 C 270.07706 286.55054 259.60337 283.82343 247.43017 281.7682 C 243.12212 281.0568 239.48597 280.34537 239.3674 280.26633 C 239.09074 279.95014 239.7231 277.22303 240.07882 277.22303 C 240.27644 277.22303 242.17356 277.4997 244.30782 277.81588 Z"
                        fill="#ff0000"/>
               </g>
            </g>
            <g>
               <g  id="feature-1">
                  <path 
                        d="M 112.14166 280.46394 C 113.0507 281.7287 112.97165 281.84726 110.91643 282.16345 C 107.59647 282.63773 98.74323 285.04865 94.75137 286.55054 C 90.08761 288.25005 84.19863 291.2143 80.20677 293.82284 C 77.44013 295.64092 75.701105 297.41947 75.02921 299.1585 C 74.79207 299.8304 74.63397 299.71183 74.15969 298.24946 C 73.36923 296.03615 73.72494 294.9295 75.819675 292.7162 C 79.93011 288.28957 89.41572 284.37676 104.07889 280.97775 C 110.95596 279.3968 111.39071 279.3573 112.14166 280.46394 Z"
                        fill="#ff0000"/>
               </g>
            </g>
            <g>
               <g  id="feature-2">
                  <path 
                        d="M 245.8097 282.9539 C 265.68997 286.19483 277.2703 290.10765 285.3331 296.2733 C 288.02067 298.289 288.65305 299.75135 287.66496 301.56942 C 283.94977 308.4465 262.56762 314.61214 231.7394 317.7345 C 215.57433 319.35494 194.19218 320.38255 194.19218 319.55256 C 194.19218 319.2759 194.35028 319.15733 194.50837 319.2759 C 194.66646 319.39447 195.33836 318.32734 195.9312 316.944 C 197.51215 313.26834 201.06925 310.02743 204.74492 308.84173 C 206.2073 308.36745 208.5787 307.37936 210.00153 306.6284 C 211.38485 305.87747 212.76817 305.28462 213.04483 305.28462 C 214.27006 305.28462 217.94573 303.5456 219.48714 302.24132 C 220.4357 301.41133 221.66093 300.6999 222.17473 300.62086 C 223.8347 300.42325 225.29708 299.43516 226.99658 297.41947 C 227.90562 296.35234 229.68417 294.85045 230.94892 294.06 C 232.21367 293.2695 233.7946 291.92572 234.4665 291.09573 C 235.88934 289.31718 237.94456 285.04865 238.30027 283.23058 C 238.45836 282.4006 238.77455 281.96583 239.2093 281.96583 C 239.56502 281.96583 242.5688 282.4006 245.8097 282.9539 Z"
                        fill="#ff0000"/>
               </g>
            </g>
            <g>
               <g  id="feature-3">
                  <path 
                        d="M 115.97542 284.53485 C 119.1373 287.38053 125.89579 289.8705 130.55955 289.8705 C 133.28666 289.8705 133.95856 290.3448 134.27475 292.59762 C 134.66998 295.1271 136.60663 298.9609 138.46422 300.858 C 139.29421 301.76704 141.03324 303.0318 142.29799 303.66416 C 146.80366 305.917 155.26166 308.05126 162.96872 308.84173 C 169.92483 309.55315 173.4424 311.05503 177.03904 314.8888 C 179.76615 317.774 181.7028 318.9202 185.2599 319.75018 C 187.4732 320.264 186.64322 320.3035 175.81381 320.1059 C 129.65051 319.35494 92.2614 313.46596 80.44391 305.00796 C 75.22682 301.29276 75.1873 299.1585 80.20677 295.56187 C 87.43955 290.3843 98.42705 286.1553 111.78595 283.38867 C 113.76211 282.99344 114.51306 283.19106 115.97542 284.53485 Z"
                        fill="#ff0000"/>
               </g>
            </g>
            <g>
               <g  id="feature-4">
                  <path 
                        d="M 83.01293 308.20935 C 88.82287 311.09456 97.12277 313.545 108.26837 315.7188 C 129.53194 319.82922 167.59295 322.39824 194.46885 321.4892 C 242.13404 319.90827 273.8713 314.33547 286.4002 305.4032 C 288.17877 304.13844 288.29734 304.09892 288.0602 304.96844 C 287.46735 306.86556 285.8864 309.59267 285.0169 310.22504 C 282.1712 312.2012 262.05382 318.84114 253.87248 320.50112 C 240.75072 323.1492 200.1602 326.66677 182.33517 326.66677 C 164.03585 326.66677 122.06202 322.9911 109.53311 320.3035 C 103.01176 318.88066 88.78334 314.29595 82.53865 311.56884 L 78.94202 310.02743 L 77.67727 307.4584 C 76.96585 306.03557 76.41253 304.69177 76.41253 304.45463 C 76.41253 304.2175 77.12395 304.5732 77.95394 305.28462 C 78.82345 305.95652 81.11581 307.2608 83.01293 308.20935 Z"
                        fill="#ff0000"/>
               </g>
            </g>
            <g>
               <g  id="feature-5">
                  <path 
                        d="M 83.52673 313.58453 C 87.24193 315.12594 101.11463 319.67113 105.77839 320.85683 C 116.29161 323.58394 137.79233 325.91582 168.89722 327.65485 C 182.13755 328.4058 189.80509 328.20818 211.9777 326.62724 C 237.1936 324.80917 251.42203 322.9911 260.39383 320.4616 C 265.84806 318.88066 277.9422 314.8888 281.1436 313.58453 C 282.72454 312.91263 284.10786 312.43835 284.1869 312.5174 C 284.42405 312.79406 277.98174 322.20063 274.8989 326.11344 C 270.86753 331.17243 266.99424 335.3224 266.28282 335.3224 C 265.2552 335.3224 260.8286 337.5357 257.9434 339.51186 C 253.51677 342.55516 247.43017 347.77225 240.35548 354.6098 L 233.7946 360.93353 L 228.14276 363.70017 C 221.1076 367.1387 199.84402 375.63623 198.30261 375.63623 C 198.105 375.63623 197.70976 374.33196 197.47262 372.7115 C 196.87977 369.1544 195.18027 365.2416 193.28314 363.1073 C 188.02654 357.2974 176.68333 357.25786 171.46624 363.0678 C 169.09484 365.67634 166.92105 371.09104 166.92105 374.411 C 166.92105 375.20147 166.72344 375.63623 166.36773 375.63623 C 165.57726 375.63623 150.36076 369.8658 143.9975 367.17823 C 133.08904 362.51447 131.38954 361.48686 124.98675 355.24217 C 113.88068 344.4918 104.63222 337.33808 99.88941 335.8757 C 98.03181 335.24334 97.24134 334.69 94.86994 332.1605 C 91.47093 328.52437 87.43955 323.3468 83.92197 318.1297 C 81.23438 314.13786 80.20677 312.39883 80.48343 312.39883 C 80.56248 312.39883 81.9458 312.91263 83.52673 313.58453 Z"
                        fill="#ff0000"/>
               </g>
            </g>
            <g>
               <g  id="feature-6">
                  <path 
                        d="M 100.36369 337.5357 C 105.1065 339.51186 112.77403 345.55894 123.3663 355.67692 C 127.04197 359.155 127.08149 359.23403 126.88387 360.77544 C 126.56769 363.02827 124.19629 367.53394 121.74584 370.5377 C 119.33491 373.4229 114.0783 377.81 111.98356 378.71905 C 110.04692 379.5095 107.4779 379.1538 105.77839 377.7705 C 101.58892 374.33196 97.59705 363.50255 97.0042 353.89837 C 96.76706 349.5508 97.04373 341.5671 97.55753 338.4052 C 97.87372 336.7057 98.1899 336.62666 100.36369 337.5357 Z"
                        fill="#ff0000"/>
               </g>
            </g>
            <g>
               <g  id="feature-7">
                  <path 
                        d="M 267.0733 338.16807 C 267.6266 341.17185 267.82423 353.9774 267.31042 357.495 C 266.04568 366.783 261.93525 375.9524 257.9829 378.24477 C 254.742 380.1419 251.97536 379.1538 246.24447 374.0553 C 242.01547 370.26105 238.30027 364.4511 237.826 360.894 L 237.58885 359.1945 L 242.01547 354.926 C 251.42203 345.95417 259.60337 339.51186 264.14855 337.5357 C 266.28282 336.62666 266.79662 336.74523 267.0733 338.16807 Z"
                        fill="#ff0000"/>
               </g>
            </g>
            <g>
               <g  id="feature-8">
                  <path 
                        d="M 186.91988 360.81496 C 190.95127 362.00066 193.876 365.20206 195.4174 370.10296 C 197.23548 375.7548 196.72168 388.52085 194.42932 394.8446 C 193.32267 397.8879 186.12941 407.61064 183.83706 409.11253 C 182.49326 410.02156 182.33517 410.0611 181.22852 409.46824 C 178.85711 408.243 171.34767 398.16455 170.12245 394.5284 C 168.89722 390.9713 168.10675 385.2404 168.10675 379.86523 C 168.10675 368.91726 171.15005 362.83066 177.71093 360.77544 C 179.96377 360.10354 184.54848 360.10354 186.91988 360.81496 Z"
                        fill="#ff0000"/>
               </g>
            </g>
            <g>
               <g>
                  <g  id="outline-3">
                     <path 
                           d="M 131.89303 153.26147 C 131.53732 152.39195 132.80207 149.46722 135.33157 145.3568 C 136.55679 143.30158 137.82154 140.93018 138.0982 140.13971 C 138.65153 138.40068 138.33534 133.81597 137.46583 131.36552 C 136.55679 128.71745 136.71488 128.6384 138.88867 130.73315 C 141.77388 133.5393 143.19672 136.18737 143.19672 138.63782 C 143.19672 141.52303 142.09006 143.53872 138.37487 147.45153 C 136.55679 149.34865 134.5411 151.60149 133.94825 152.39195 C 132.72302 153.97289 132.24874 154.1705 131.89303 153.26147 Z"
                           fill="black"/>
                  </g>
               </g>
               <g>
                  <path d="M 140.82531 142.1554 C 141.9715 139.86304 141.85292 137.05689 140.58817 135.08072 L 139.60009 133.49978 L 139.7977 135.51547 C 140.15342 138.47973 139.442 141.40446 137.74249 144.13157 C 135.09443 148.32105 135.0549 148.63723 137.62392 146.14726 C 138.96772 144.84299 140.39056 143.06444 140.82531 142.1554 Z"/>
               </g>
            </g>
            <g>
               <g>
                  <g  id="outline-4">
                     <path 
                           d="M 175.74712 182.93806 C 175.0727 181.96444 174.04696 181.04647 173.46335 180.8988 C 172.87355 180.7121 171.53782 180.36344 170.49388 180.0886 C 164.14605 178.41293 161.13537 173.04744 163.10285 166.77343 C 164.03016 163.78542 165.3134 161.78145 169.53956 156.6303 C 172.68966 152.77002 173.75493 150.40042 173.66728 147.57316 C 173.55526 145.35 172.751 143.55662 171.018 141.71025 C 170.24502 140.8723 169.94473 140.23958 170.07808 139.8183 C 170.27715 139.30658 170.47851 139.3147 171.25961 139.9513 C 174.08796 142.14438 176.49454 147.48551 176.40591 151.22104 C 176.3088 154.39769 175.9211 155.7396 173.22392 161.44892 C 168.88672 170.6993 169.07644 172.14984 175.7225 178.74027 C 176.91483 179.95199 177.54669 182.17284 177.18178 183.9113 C 177.04648 184.573 176.82038 184.40872 175.74712 182.93806 Z"
                           fill="black"/>
                  </g>
               </g>
               <g>
                  <path d="M 172.58648 177.63633 C 170.12995 175.2643 168.72511 172.20548 168.8821 169.6596 C 169.05147 167.1918 169.45154 165.92796 171.77726 161.15784 C 173.91822 156.7371 174.92979 153.77577 175.03769 151.67784 C 175.1131 150.38539 175.00217 150.44297 173.87737 152.94205 C 173.18974 154.4115 171.66415 156.65394 170.50384 157.91815 C 167.40284 161.33047 165.05396 164.9438 164.3319 167.45912 C 162.72775 172.9953 165.84087 177.74434 171.8803 178.98867 C 172.95708 179.21829 173.9496 179.42123 174.10576 179.3965 C 174.26809 179.4108 173.57937 178.59952 172.58648 177.63633 Z"/>
               </g>
            </g>
            <g>
               <g  id="outline-5">
                  <path 
                        d="M 123.80045 163.22773 C 123.44474 164.29486 122.33808 166.62674 121.35 168.48434 C 116.88386 177.0214 117.99051 181.448 125.49995 185.24225 C 126.68565 185.8351 127.67374 186.26986 127.75278 186.19081 C 127.83183 186.11177 127.2785 185.08416 126.52756 183.89846 C 124.78853 181.13182 123.60283 177.93043 123.60283 175.99378 C 123.60283 175.1638 124.03759 172.6343 124.59091 170.38146 C 125.14424 168.12863 125.69757 165.2039 125.81614 163.82058 C 126.05328 161.56775 126.01376 161.37013 125.30234 161.37013 C 124.70948 161.37013 124.31425 161.84441 123.80045 163.22773 Z"
                        fill="black"/>
               </g>
            </g>
            <g>
               <path d="M 122.97046 170.9348 C 121.78475 175.5195 121.78475 176.7052 122.97046 180.02517 L 123.91902 182.71276 L 122.73332 181.84324 C 120.99429 180.61802 119.88763 177.93043 120.1643 175.55903 C 120.36191 174.01761 123.28664 167.29864 123.76092 167.29864 C 123.83997 167.29864 123.48426 168.95862 122.97046 170.9348 Z"/>
            </g>
            <g>
               <g  id="outline-6">
                  <path 
                        d="M 211.8196 130.11703 C 209.68534 136.836 209.2506 147.50731 210.83152 154.50295 C 211.78008 158.811 213.20293 162.56572 213.79578 162.32858 C 214.5072 162.09144 214.54672 162.44715 213.3215 158.37624 C 210.75248 149.44396 210.55486 140.86738 212.8077 132.0932 C 213.71673 128.49657 213.6772 128.73371 213.0053 128.49657 C 212.57055 128.33847 212.25436 128.81275 211.8196 130.11703 Z"
                        fill="black"/>
               </g>
            </g>
            <g>
               <g  id="outline-7">
                  <path 
                        d="M 216.2067 132.01415 C 216.08813 132.13272 216.3648 133.08128 216.8786 134.10889 C 218.7362 137.78456 219.28952 140.07692 219.21048 143.83164 C 219.17095 145.76828 219.05238 147.8235 219.01286 148.37683 C 218.81524 149.91824 219.96142 149.60205 220.39618 147.9816 C 220.5938 147.23065 220.67284 144.81972 220.5938 142.64594 C 220.4357 139.32597 220.19856 138.1798 219.05238 135.33411 C 217.82716 132.25129 216.95765 131.2632 216.2067 132.01415 Z"
                        fill="black"/>
               </g>
            </g>
            <g>
               <g  id="outline-8">
                  <path 
                        d="M 217.66907 156.55816 C 217.2343 159.64099 218.14335 164.62093 220.2776 170.90515 C 223.1233 179.16553 223.3209 181.89265 221.22617 184.93595 C 220.63332 185.80546 220.31713 186.67498 220.47523 187.0702 C 220.67284 187.58401 220.98903 187.42592 222.05616 186.16117 C 224.78327 183.03882 224.74375 178.84935 221.89807 171.26086 C 219.7638 165.5695 218.97334 161.6962 219.17095 157.86244 C 219.28952 155.0958 219.21048 154.70057 218.61763 154.70057 C 218.14335 154.70057 217.86668 155.17485 217.66907 156.55816 Z"
                        fill="black"/>
               </g>
            </g>
            <g>
               <g  id="outline-9">
                  <path 
                        d="M 193.67838 177.30794 C 193.59933 177.5846 194.15266 178.49364 194.9036 179.36315 C 197.19596 181.93217 197.90738 184.0269 197.90738 188.09782 C 197.90738 191.7735 197.23548 193.9868 195.37788 196.59534 C 194.70599 197.5439 194.66646 197.74152 195.18027 198.17628 C 195.65455 198.5715 195.97073 198.33437 196.9193 196.75344 C 200.6345 190.9435 200.27878 183.39453 196.12883 178.65173 C 194.46885 176.7546 193.99457 176.51747 193.67838 177.30794 Z"
                        fill="black"/>
               </g>
            </g>
            <g>
               <g  id="outline-10">
                  <path 
                        d="M 140.4404 206.3181 C 140.4404 206.6738 141.3099 208.21521 141.94228 208.92663 C 142.37704 209.44044 142.69322 209.51949 143.04894 209.2033 C 143.68131 208.6895 142.1399 206.12048 141.15181 206.08095 C 140.75658 206.08095 140.4404 206.19952 140.4404 206.3181 Z"
                        fill="black"/>
               </g>
            </g>
            <g>
               <g  id="outline-11">
                  <path 
                        d="M 206.08872 209.63806 C 204.42874 210.98185 202.09686 214.02515 202.09686 214.89466 C 202.09686 215.05276 202.41304 215.17133 202.80828 215.17133 C 203.164 215.17133 203.91493 214.42038 204.46826 213.55087 C 205.02159 212.64183 206.36538 211.25851 207.47204 210.46805 C 209.32963 209.12425 209.84344 208.05712 208.61821 208.05712 C 208.34155 208.05712 207.19537 208.76854 206.08872 209.63806 Z"
                        fill="black"/>
               </g>
            </g>
            <g>
               <g  id="outline-12">
                  <path 
                        d="M 196.80072 211.25851 C 196.2474 211.69327 195.29884 212.87897 194.70599 213.90658 C 193.79695 215.40847 193.63885 216.19894 193.59933 218.57034 C 193.59933 221.57411 193.75742 222.0484 194.62694 221.69268 C 195.02217 221.5346 195.14074 220.94174 195.02217 219.43985 C 194.86408 216.71274 195.49645 214.73657 197.15643 212.95802 C 197.90738 212.16755 198.53975 211.37708 198.53975 211.17947 C 198.53975 210.46805 197.7888 210.50757 196.80072 211.25851 Z"
                        fill="black"/>
               </g>
            </g>
            <g>
               <g  id="outline-13">
                  <path 
                        d="M 179.29187 212.36517 C 178.69902 215.05276 178.97568 219.2027 179.8452 221.17888 C 180.79376 223.2341 183.2442 226.07978 185.02276 227.1074 C 186.12941 227.77928 186.20846 227.77928 186.4456 227.1469 C 186.6037 226.71215 186.4456 226.35644 186.01084 226.1193 C 184.39039 225.2498 181.62375 221.92983 180.99137 220.11175 C 180.31948 218.017 180.2009 215.01323 180.71471 212.72088 C 180.99137 211.49565 180.95185 211.25851 180.31948 211.10042 C 179.72663 210.94233 179.529 211.219 179.29187 212.36517 Z"
                        fill="black"/>
               </g>
            </g>
            <g>
               <g  id="outline-14">
                  <path 
                        d="M 201.3064 218.92605 C 201.3064 219.55842 202.4921 221.8903 202.8478 221.8903 C 203.55922 221.8903 203.6778 221.25793 203.164 219.95366 C 202.88732 219.2027 202.45257 218.72843 202.0178 218.72843 C 201.62258 218.72843 201.3064 218.80748 201.3064 218.92605 Z"
                        fill="black"/>
               </g>
            </g>
            <g>
               <g  id="outline-15">
                  <path 
                        d="M 153.52263 219.47938 C 153.08787 219.75604 153.1274 220.0327 153.6412 220.98126 C 154.51071 222.7203 156.24974 224.65694 156.88212 224.65694 C 157.75163 224.65694 157.55401 224.02456 155.97308 221.81126 C 154.03643 219.0051 154.155 219.12367 153.52263 219.47938 Z"
                        fill="black"/>
               </g>
            </g>
            <g>
               <g  id="outline-16">
                  <path 
                        d="M 237.5098 228.68832 C 236.44267 229.5183 235.21744 230.46687 234.7827 230.78306 C 234.1503 231.25734 234.07127 231.49448 234.42698 231.8502 C 235.01983 232.44304 236.166 231.8502 238.6955 229.63688 C 240.1974 228.3326 240.43453 227.89785 239.99977 227.58167 C 239.56502 227.22596 239.0117 227.4631 237.5098 228.68832 Z"
                        fill="black"/>
               </g>
            </g>
            <g>
               <g  id="outline-17">
                  <path 
                        d="M 204.94254 275.60257 C 204.5473 275.8397 204.66588 276.39304 205.41682 278.05302 C 208.34155 284.2977 207.66965 292.0443 203.63827 298.8423 C 202.334 300.97657 196.32644 307.49793 194.07361 309.1579 C 193.2041 309.7903 193.046 310.146 193.32267 310.62028 C 193.63885 311.21313 193.83647 311.1341 195.02217 310.18552 C 206.7211 300.77896 211.1477 289.7124 207.47204 279.12015 C 206.36538 276.03733 205.733 275.08876 204.94254 275.60257 Z"
                        fill="black"/>
               </g>
            </g>
            <g>
               <g  id="outline-18">
                  <path 
                        d="M 147.59412 233.11494 C 147.27794 233.51017 147.59412 233.98445 149.13553 235.28873 C 151.38837 237.18585 154.78738 241.81008 155.45927 243.8653 C 155.77546 244.77434 156.1707 245.2091 156.64498 245.2091 C 157.3564 245.2091 157.3564 245.13005 156.80307 243.5491 C 155.93356 241.05914 154.51071 238.84583 152.25788 236.35586 C 149.49125 233.35208 148.18697 232.40352 147.59412 233.11494 Z"
                        fill="black"/>
               </g>
            </g>
            <g>
               <g  id="outline-19">
                  <path 
                        d="M 129.65051 243.39102 C 129.49242 243.78625 130.08527 244.33958 131.46859 245.13005 C 134.27475 246.71098 137.00186 249.20095 138.50375 251.57236 C 139.84754 253.62757 139.92659 253.6671 140.75658 253.1928 C 141.15181 252.91615 140.83563 252.24425 139.53135 250.50523 C 137.239 247.46193 135.61854 245.96004 132.77286 244.26053 C 130.12479 242.64007 129.92717 242.60055 129.65051 243.39102 Z"
                        fill="black"/>
               </g>
            </g>
            <g>
               <g  id="outline-20">
                  <path 
                        d="M 157.83068 249.1219 C 157.3564 249.4381 157.39592 249.7938 158.22591 251.4933 C 159.37209 253.98328 160.79493 255.44565 161.46683 254.77375 C 161.82254 254.41804 161.7435 254.10185 161.0716 253.42995 C 160.63684 252.91615 159.8859 251.6514 159.41161 250.6238 C 158.93733 249.5962 158.5421 248.7662 158.50257 248.7662 C 158.46305 248.7662 158.14686 248.9243 157.83068 249.1219 Z"
                        fill="black"/>
               </g>
            </g>
            <g>
               <g  id="outline-21">
                  <path 
                        d="M 143.9975 259.83274 C 142.4956 260.7813 147.94983 267.50028 151.74408 269.43692 C 152.89026 269.99025 153.87834 270.34596 154.03643 270.2274 C 154.62928 269.63454 154.155 269.00216 152.6136 268.29074 C 150.51885 267.34218 147.23841 264.1408 145.73652 261.49272 C 144.82749 259.9513 144.43225 259.55608 143.9975 259.83274 Z"
                        fill="black"/>
               </g>
            </g>
            <g>
               <g  id="outline-22">
                  <path 
                        d="M 124.43343 266.15648 C 124.11724 266.63076 126.88387 272.36165 128.89957 275.44447 C 132.02191 280.26633 134.94664 282.4006 139.6104 283.34915 L 142.21894 283.86295 L 139.13612 283.90248 C 133.5238 283.98152 127.27911 282.20297 123.44534 279.43634 C 122.29916 278.60634 121.23203 278.13206 120.87632 278.25063 C 120.08585 278.56682 120.12538 278.7249 121.19251 279.63395 C 123.01058 281.2149 126.9234 283.15153 130.36193 284.17914 C 133.5238 285.1277 134.55141 285.24627 139.84754 285.2858 C 146.8827 285.32532 151.50694 284.65342 151.50694 283.5863 C 151.50694 282.9539 150.91409 282.83535 146.48747 282.63773 C 141.27038 282.36106 137.98994 281.7682 135.81616 280.66156 C 133.04952 279.1992 128.58338 273.03355 126.37007 267.65837 C 125.65865 265.8403 124.94723 265.3265 124.43343 266.15648 Z"
                        fill="black"/>
               </g>
            </g>
            <g>
               <g  id="outline-23">
                  <path 
                        d="M 161.22969 287.3015 C 160.87398 287.8548 160.47874 288.8429 160.32065 289.5148 C 159.96494 291.3724 161.22969 290.8586 162.17825 288.80338 C 162.7711 287.45958 162.81062 287.06435 162.41539 286.70864 C 162.02015 286.39245 161.70397 286.55054 161.22969 287.3015 Z"
                        fill="black"/>
               </g>
            </g>
         </g>
      </g>
   </g>
</svg>