<?xml version="1.0" encoding="UTF-8" standalone="no"?>
<!-- Created with Inkscape (http://www.inkscape.org/) -->

<svg
   xmlns:dc="http://purl.org/dc/elements/1.1/"
   xmlns:cc="http://creativecommons.org/ns#"
   xmlns:rdf="http://www.w3.org/1999/02/22-rdf-syntax-ns#"
   xmlns:svg="http://www.w3.org/2000/svg"
   xmlns="http://www.w3.org/2000/svg"
   xmlns:sodipodi="http://sodipodi.sourceforge.net/DTD/sodipodi-0.dtd"
   xmlns:inkscape="http://www.inkscape.org/namespaces/inkscape"
   version="1.0"
   width="229"
   height="229"
   viewBox="0 0 229 229"
   id="svg4683"
   xml:space="preserve"
   inkscape:version="0.48.2 r9819"
   sodipodi:docname="wagon-wheel.svg"><metadata
     id="metadata3054"><rdf:RDF><cc:Work
         rdf:about=""><dc:format>image/svg+xml</dc:format><dc:type
           rdf:resource="http://purl.org/dc/dcmitype/StillImage" /><cc:license
           rdf:resource="" /><dc:title></dc:title><dc:creator><cc:Agent><dc:title>http://commons.wikimedia.org/wiki/User:Geograv</dc:title></cc:Agent></dc:creator></cc:Work></rdf:RDF></metadata><sodipodi:namedview
     pagecolor="#ffffff"
     bordercolor="#666666"
     borderopacity="1"
     objecttolerance="10"
     gridtolerance="10"
     guidetolerance="10"
     inkscape:pageopacity="0"
     inkscape:pageshadow="2"
     inkscape:window-width="1200"
     inkscape:window-height="950"
     id="namedview3052"
     showgrid="false"
     fit-margin-top="0"
     fit-margin-left="0"
     fit-margin-right="0"
     fit-margin-bottom="0"
     inkscape:zoom="0.61409798"
     inkscape:cx="354.5"
     inkscape:cy="-155.366"
     inkscape:window-x="120"
     inkscape:window-y="13"
     inkscape:window-maximized="0"
     inkscape:current-layer="svg4683" /><defs
     id="defs4726">
			
			
			
		
			
			
		
			
			
		
			
			
			
			
			
			
		</defs><g
     id="body"><path
       sodipodi:nodetypes="csccsccccc"
       d="m 119.688,50.552 c 0.553,-9.403 5.655,-11.615 5.655,-17.699 0,-6.084 -2.337,-11.063 -10.633,-12.722 l -2.384,0 c -8.296,1.659 -10.634,6.638 -10.634,12.722 0,6.084 5.103,8.296 5.656,17.699 0.554,9.403 -7.978002,16.851 -4.978,28.209 1.007,3.81 6.919,5.894 11.148,6.914 4.229,-1.02 10.142,-3.104 11.147,-6.914 3,-11.358 -5.532,-18.806 -4.977,-28.209 z"
       style="fill:#ff0000;stroke:#000000;stroke-width:6"
       id="path4698"
       inkscape:connector-curvature="0" /><path
       sodipodi:nodetypes="csccsccccc"
       d="m 61.269998,77.155 c -7.867,-5.18 -7.231,-10.706 -12.5,-13.748 -5.269,-3.042 -10.75,-3.507 -16.334,2.848 l -1.192,2.064 c -2.711,8.014 0.432,12.528 5.701,15.57 5.269,3.042 9.736,-0.271 18.156,3.952 8.42,4.222 10.604,15.335 21.941,18.416 3.802,1.033 8.563,-3.045 11.561,-6.198 1.231,-4.172 2.382,-10.335 -0.414,-13.111 -8.337,-8.277 -19.053,-4.612 -26.919,-9.793 z"
       style="fill:#ff0000;stroke:#000000;stroke-width:6"
       id="path4700"
       inkscape:connector-curvature="0" /><path
       sodipodi:nodetypes="cscccscccc"
       d="m 55.099998,141.047 c -8.42,4.223 -12.887,0.91 -18.156,3.952 -5.269,3.042 -8.412,7.556 -5.701,15.57 l 1.192,2.064 c 5.584,6.355 11.066,5.89 16.334,2.848 5.269,-3.042 4.633,-8.567 12.5,-13.748 7.867,-5.181 18.583,-1.516 26.919,-9.793 2.796,-2.777 1.645,-8.939 0.414,-13.111 -2.998,-3.152 -7.759,-7.231 -11.562,-6.198 -11.336,3.082 -13.519,14.195 -21.94,18.416 z"
       style="fill:#ff0000;stroke:#000000;stroke-width:6"
       id="path4702"
       inkscape:connector-curvature="0" /><path
       sodipodi:nodetypes="csccsccccc"
       d="m 107.348,178.337 c -0.553,9.403 -5.656,11.615 -5.656,17.699 0,6.084 2.338,11.063 10.634,12.723 l 2.384,0 c 8.296,-1.659 10.633,-6.638 10.633,-12.723 0,-6.084 -5.103,-8.296 -5.655,-17.699 -0.555,-9.403 7.978,-16.851 4.978,-28.209 -1.006,-3.81 -6.919,-5.894 -11.147,-6.914 -4.229,1.02 -10.142,3.104 -11.148,6.914 -3.001002,11.358 5.531,18.806 4.977,28.209 z"
       style="fill:#ff0000;stroke:#000000;stroke-width:6"
       id="path4704"
       inkscape:connector-curvature="0" /><path
       sodipodi:nodetypes="cccccccccc"
       d="m 172.298,88.051 c 8.42,-4.223 12.887,-0.91 18.155,-3.952 5.27,-3.042 8.413,-7.556 5.702,-15.57 l -1.192,-2.064 c -5.585,-6.355 -11.065,-5.89 -16.335,-2.848 -5.269,3.042 -4.633,8.567 -12.5,13.748 -7.866,5.182 -18.582,1.516 -26.919,9.793 -2.796,2.777 -1.646,8.939 -0.414,13.112 2.998,3.152 7.759,7.23 11.562,6.197 11.336,-3.081 13.52,-14.195 21.941,-18.416 z"
       style="fill:#ff0000;stroke:#000000;stroke-width:6"
       id="path4706"
       inkscape:connector-curvature="0" /><path
       sodipodi:nodetypes="cccccccccc"
       d="m 166.31,152.676 c 7.866,5.181 7.23,10.706 12.5,13.748 5.269,3.042 10.75,3.507 16.335,-2.848 l 1.191,-2.064 c 2.711,-8.014 -0.432,-12.528 -5.7,-15.57 -5.27,-3.042 -9.736,0.271 -18.157,-3.952 -8.42,-4.222 -10.604,-15.334 -21.94,-18.416 -3.802,-1.033 -8.564,3.044 -11.561,6.197 -1.232,4.173 -2.384,10.335 0.412,13.111 8.337,8.278 19.052,4.613 26.92,9.794 z"
       style="fill:#ff0000;stroke:#000000;stroke-width:6"
       id="path4708"
       inkscape:connector-curvature="0" /><path
       sodipodi:nodetypes="sssss"
       d="m 114.001,95.118 c -10.657,0 -19.327002,8.669 -19.327002,19.326 0,10.657 8.670002,19.327 19.327002,19.327 10.657,0 19.327,-8.67 19.327,-19.327 0,-10.657 -8.67,-19.326 -19.327,-19.326 z"
       style="fill:#ff0000;stroke:#000000;stroke-width:6"
       id="path4711"
       inkscape:connector-curvature="0" /><path
       sodipodi:nodetypes="ssssssssss"
       d="m 114.001,80.118 c -18.928002,0 -34.327002,15.399 -34.327002,34.326 0,18.928 15.399,34.327 34.327002,34.327 18.928,0 34.327,-15.399 34.327,-34.327 0,-18.927 -15.398,-34.326 -34.327,-34.326 z m 0,53.653 c -10.657,0 -19.327002,-8.67 -19.327002,-19.327 0,-10.657 8.670002,-19.326 19.327002,-19.326 10.657,0 19.327,8.669 19.327,19.326 0,10.657 -8.67,19.327 -19.327,19.327 z"
       style="fill:#ff0000;stroke:#000000;stroke-width:6"
       id="path4713"
       inkscape:connector-curvature="0" /><path
       sodipodi:nodetypes="ssscs"
       d="m 114,27.426 c -47.983002,0 -87.020002,39.035 -87.020002,87.016 0,47.982 39.037,87.02 87.020002,87.02 47.983,0 87.019,-39.037 87.019,-87.02 C 201.02,66.461 161.983,27.426 114,27.426 z"
       style="fill:none;stroke:#000000;stroke-width:6"
       id="path4716"
       inkscape:connector-curvature="0" /><path
       sodipodi:nodetypes="ssscsssscs"
       d="M 114,2.9439999 C 52.517998,2.9439999 2.4979983,52.962 2.4979983,114.442 c 0,61.482 50.0199997,111.501 111.5020017,111.501 61.482,0 111.501,-50.02 111.501,-111.501 C 225.502,52.962 175.482,2.9439999 114,2.9439999 z M 114,201.461 c -47.983002,0 -87.020002,-39.037 -87.020002,-87.02 0,-47.981 39.037,-87.016 87.020002,-87.016 47.983,0 87.019,39.035 87.019,87.016 0.001,47.983 -39.036,87.02 -87.019,87.02 z"
       style="fill:#ff0000;stroke:#000000;stroke-width:6"
       id="path4718"
       inkscape:connector-curvature="0" /></g></svg>