<?xml version="1.0" encoding="utf-8"?>
<svg xmlns:xl="http://www.w3.org/1999/xlink" xmlns="http://www.w3.org/2000/svg"
     xmlns:dc="http://purl.org/dc/elements/1.1/"
     xmlns:xlink="http://www.w3.org/1999/xlink"
     version="1.1"
     viewBox="81 81 202.5 315"
     width="202.5"
     height="315"
     preserveAspectRatio="xMidYMid meet"
     zoomAndPan="magnify"
     contentScriptType="application/ecmascript"
     contentStyleType="text/css">
   <defs/>
   <metadata  xmlns:svg="http://www.w3.org/2000/svg"
             xmlns:rdf="http://www.w3.org/1999/02/22-rdf-syntax-ns#"
             xmlns:cc="http://creativecommons.org/ns#">
      <rdf:RDF>
         <cc:Work rdf:about="">
            <dc:creator>
               <cc:Agent>
                  <dc:title>http://heraldicart.org Viking.svg</dc:title>
               </cc:Agent>
            </dc:creator>
         </cc:Work>
      </rdf:RDF>
   </metadata>
   <g stroke-opacity="1" fill="#ffff00" fill-opacity="1" stroke="#505050"
      stroke-dasharray="none">
      <title>Viking</title>
      <g>
         <title>Layer 2</title>
         <g>
            <g>
               <g  id="outline-0">
                  <path 
                        d="M 230.76575 255.66696 C 231.04464 255.47487 231.41293 255.21682 231.64144 255.02534 C 232.07627 254.7134 231.4519 257.97425 231.04883 260.4865 C 230.44449 264.51693 230.52995 265.99034 231.46497 266.50863 C 232.56818 267.09105 233.02769 266.7346 234.1429 264.35518 L 235.85835 259.63557 L 234.97362 264.3791 C 234.97362 264.3791 234.8397 269.13595 235.42895 270.01553 L 235.42347 269.86242 C 236.087 270.8705 236.9919 270.50356 238.11246 268.53453 L 239.09968 266.75353 L 239.55535 267.55907 C 240.20413 268.64627 240.76262 268.37378 241.8338 266.4938 C 242.2928 265.61323 243.62526 264.7263 243.83796 264.8151 C 245.2129 265.1698 247.62103 255.1968 248.42083 252.99363 C 249.22063 250.79047 249.90937 248.2228 250.3191 246.01855 C 251.15796 241.4204 252.3748 240.09264 251.90844 238.4663 C 251.23373 236.11332 251.42126 235.7225 254.0595 233.43064 C 255.44286 232.24756 256.89543 231.04464 257.2809 230.82177 C 257.69104 230.55437 258.39252 229.8664 258.81718 229.2578 C 259.28636 228.6739 260.05196 227.81775 260.5509 227.33764 C 262.85304 225.1796 270.79586 211.4804 273.33646 205.32195 C 274.1751 203.28397 275.04326 201.08774 275.27506 200.45955 C 275.6992 199.32683 278.0518 193.03505 278.42176 192.1051 C 278.53524 191.84788 278.55383 190.60676 278.4933 189.3509 C 278.3824 187.13581 278.3725 187.1012 276.85305 185.5896 C 276.0216 184.77948 274.92755 183.44548 274.47188 182.63994 C 273.9816 181.84433 272.85273 180.25819 271.8775 179.07735 C 270.94682 177.9212 268.66946 174.94177 266.803 172.48114 C 262.85712 167.209 262.7383 167.05583 257.32002 162.91741 C 252.24317 159.05556 247.81026 156.39464 245.6738 155.99617 C 244.79348 155.79922 242.4339 154.75321 240.42036 153.60798 C 237.3036 151.88034 236.66525 151.35188 236.39735 150.4176 C 236.1989 149.72554 235.0751 148.28773 233.67933 146.81557 C 232.36776 145.5065 231.2292 144.14782 231.12998 143.80179 C 231.04068 143.49036 221.4558 138.24165 215.9794 138.52299 C 212.17574 138.7184 208.70453 139.0992 206.85152 139.20373 C 206.9497 138.53663 207.049 137.83132 207.14874 137.08648 L 207.14873 137.08649 C 207.10573 137.10258 207.06951 137.1109 207.04068 137.1109 C 205.5288 137.1109 203.90892 132.21526 203.94492 127.7516 C 203.98091 126.27571 204.3049 124.33186 204.91684 122.46 C 206.10475 118.75228 206.24874 115.22455 205.3128 112.66874 C 204.95284 111.66082 204.77285 110.76088 204.88084 110.6169 C 205.09683 110.43691 206.60871 110.79688 208.66056 111.58882 C 209.20052 111.76881 209.5605 111.69681 209.84847 111.37284 C 210.20844 110.94087 209.99246 109.86095 208.98453 106.26122 C 208.2646 103.70542 207.29266 100.89763 206.8247 99.9977 C 204.59287 95.64203 201.6051 92.83424 196.70946 90.53041 C 193.10973 88.80254 190.62592 88.55056 187.71014 89.55848 C 186.52223 89.99045 185.29832 90.42242 185.01034 90.53041 C 184.72237 90.6384 183.67845 90.20644 182.74252 89.55848 C 180.47469 88.0466 178.71082 87.68663 174.60713 87.75862 C 171.0074 87.86661 171.1514 87.79462 162.87202 91.57433 C 159.59626 93.05022 156.3925 96.18198 153.44073 100.75364 C 150.48895 105.3253 149.98499 106.33322 148.94107 109.75296 C 147.60917 114.14463 147.2492 117.1324 147.03321 125.59176 C 146.99722 127.28364 146.78123 130.95536 146.52925 133.79914 C 146.24127 137.32688 146.24127 139.12674 146.49325 139.5947 C 146.67324 139.99068 146.85323 140.63863 146.85323 141.0346 C 146.85323 142.2945 147.82515 141.89853 149.805 139.88268 L 151.67686 138.01083 L 151.78485 139.09074 C 152.00084 141.21458 152.28882 141.79054 153.26074 142.2945 C 154.12468 142.76247 154.16067 142.83446 153.54872 143.08644 C 153.18875 143.23043 152.10883 143.15844 151.1369 142.90646 C 149.66101 142.51049 149.08506 142.54648 147.35719 143.05045 C 147.33434 143.05713 147.31161 143.06375 147.28899 143.07029 C 147.28003 143.04508 147.27091 143.01976 147.26163 142.99432 C 139.79432 142.5734 134.68221 145.1649 133.59469 145.67072 C 130.00777 147.38645 131.11087 147.2546 130.31893 148.19053 C 128.51907 150.35037 124.88334 153.26615 122.65151 154.34607 C 120.02371 155.60597 116.06401 159.63767 115.34407 161.7975 L 114.76811 163.52537 L 116.208 165.10925 L 117.64789 166.65714 L 116.71196 168.385 C 116.208 169.35693 114.98409 171.0128 113.97617 172.05673 C 113.00424 173.06465 112.03232 174.28856 111.81633 174.75652 C 111.60035 175.1885 110.70042 176.12442 109.83648 176.80837 C 108.93655 177.49232 107.89263 178.60823 107.46066 179.29218 C 107.02869 179.94013 105.98477 181.16404 105.08484 181.99198 C 104.18491 182.78392 102.78101 184.18781 101.98907 185.08774 C 101.16114 185.98768 99.93723 187.28358 99.21728 187.96753 C 98.49734 188.65148 96.91346 190.70332 95.68955 192.46719 C 94.50164 194.26705 92.91776 196.42689 92.23381 197.32682 C 90.86591 199.09069 90.36195 200.02662 89.03005 203.26637 C 88.56209 204.45428 87.66216 206.65012 87.0142 208.126 C 86.00628 210.53782 85.89829 211.11378 86.00628 213.70558 L 86.15027 216.58537 L 89.10205 220.54507 C 90.72192 222.7409 92.59378 225.15272 93.27773 225.94466 C 93.96168 226.7366 94.89761 227.9605 95.36557 228.64446 C 96.58948 230.44432 107.92863 240.55956 111.16838 242.7194 C 111.88833 243.18736 113.40021 244.37527 114.51613 245.3472 C 116.99994 247.54303 118.29584 248.33497 122.65151 250.3868 C 129.02303 253.4106 128.55507 253.0506 128.80705 255.28244 C 129.02303 257.3703 130.10295 259.8541 131.14687 260.71803 C 132.69475 261.97794 132.1293 264.83256 135.2851 268.26056 C 136.76432 269.87618 138.1414 271.98684 139.34362 273.97988 C 139.10212 274.42564 138.8748 274.87794 138.68184 275.30446 C 137.9619 276.81634 137.09796 278.43622 136.73799 278.9402 C 136.16203 279.80412 134.25418 284.95173 132.92228 289.1994 C 132.52631 290.4953 132.34632 292.76314 132.31032 297.2988 C 132.27433 303.52633 132.27433 303.63432 133.46224 307.27005 C 134.50616 310.5098 134.86613 311.15775 136.45001 312.77763 L 138.28587 314.5775 L 137.31395 316.30536 C 135.44209 319.6171 134.68614 321.92094 134.47016 324.8367 C 134.32617 326.81657 134.0022 328.14847 133.39024 329.33638 C 131.91435 332.14417 131.44639 334.34 131.91435 335.99588 C 132.27433 337.1478 132.23833 337.68775 131.84236 338.65968 C 131.12241 340.38754 130.25848 345.0672 130.51046 346.0391 C 130.61845 346.5431 130.25848 347.551 129.39454 348.9549 C 128.6746 350.1428 127.84666 351.97867 127.55868 352.9866 C 127.05472 354.67847 127.05472 355.11043 127.55868 357.0903 C 127.88266 358.2782 128.13464 359.5741 128.13464 359.89807 C 128.13464 360.25804 128.45862 360.906 128.85459 361.37396 C 129.79051 362.4539 129.61053 362.95784 128.27863 363.10183 C 126.33478 363.2818 125.43484 363.92977 123.67098 366.44958 C 122.69905 367.81747 121.76312 368.9334 121.61913 368.9334 C 121.43915 368.9334 120.32323 369.79732 119.13532 370.87724 L 116.93948 372.8571 L 111.28791 372.8211 C 103.58449 372.7491 102.2526 373.0011 100.05676 374.72895 C 98.68886 375.80887 98.00491 376.7448 97.03299 378.83264 C 95.30512 382.54036 94.1532 386.35607 94.44118 387.4 C 94.65717 388.29993 94.69316 388.29993 100.38074 388.5519 C 103.5485 388.6959 106.24829 388.7319 106.42828 388.6239 C 106.60827 388.5159 108.58812 388.5879 110.85594 388.7679 C 116.90349 389.30785 121.15117 389.37985 123.99495 389.05587 C 125.39885 388.8759 127.99065 388.5879 129.75452 388.3719 C 131.55438 388.15594 134.36217 387.83196 136.05404 387.616 C 137.74591 387.4 141.70561 387.184 144.87338 387.148 C 151.1009 387.076 153.00876 386.68005 153.58472 385.38415 C 154.55664 383.2963 155.2046 380.7045 155.0246 379.6246 C 154.66464 377.53674 153.7287 373.46905 153.15275 371.6692 C 152.86477 370.69726 152.6128 369.32936 152.6128 368.6814 C 152.6128 367.16952 152.07283 366.0536 151.2809 366.0536 C 150.88492 366.0536 150.77693 365.83762 150.99291 365.22567 C 151.49688 363.5698 151.60487 360.29404 151.1729 359.2501 C 150.66894 357.9902 151.1009 356.29834 152.5048 354.0665 C 152.97276 353.31057 153.29674 352.41064 153.18875 352.08666 C 153.08076 351.7627 152.97276 350.53878 152.93677 349.42286 C 152.86477 347.659 153.00876 347.22703 153.8727 346.1831 C 155.45658 344.31125 156.17652 342.4034 155.81655 341.0715 C 155.1686 338.80366 155.42058 336.7518 156.5725 335.23993 C 157.94039 333.40407 158.01238 331.4962 156.71648 329.2284 L 155.81655 327.5725 L 157.14845 326.09662 C 158.30036 324.8367 158.48035 324.36875 158.40835 323.28884 C 158.33636 322.5329 158.30036 320.76903 158.30036 319.32913 C 158.30036 316.88132 158.40835 316.55734 159.45227 315.26144 C 160.4962 313.92954 160.5682 313.71356 160.3522 311.9497 C 160.13622 310.25782 160.20822 309.89785 160.96416 308.9619 C 161.7561 308.026 162.40405 306.98207 164.74388 302.6984 C 165.13985 302.01444 165.6438 300.53855 165.89579 299.45864 C 166.14777 298.3787 166.72373 296.25488 167.1917 294.779 C 167.73165 293.0871 168.12762 290.7473 168.2716 288.47946 C 168.3796 286.4996 168.70358 283.65583 168.95556 282.17994 C 169.6035 278.5442 168.99155 274.8725 167.1917 271.52474 C 165.7878 268.93294 165.8598 268.35698 167.58766 268.57297 C 168.3796 268.64496 168.81157 269.04093 169.49552 270.22884 C 170.75542 272.56867 173.7792 274.6205 177.45092 275.66443 C 180.3307 276.49237 180.65467 276.52837 184.1824 276.1324 C 186.19826 275.9164 188.3221 275.48445 188.86205 275.19647 C 190.04996 274.5845 191.84983 272.78465 194.40564 269.68888 C 196.0615 267.63704 197.06943 267.0251 197.71739 267.63704 C 197.82538 267.78103 197.5374 268.42898 196.99744 269.07693 C 195.37756 271.23677 194.26165 276.1684 193.14573 286.13964 C 192.1018 295.46294 192.49778 301.2225 194.33364 304.1383 C 195.41356 305.86615 197.78938 308.52995 198.68931 309.0339 C 199.19327 309.2859 200.0572 309.93384 200.63317 310.4738 L 201.67709 311.37374 L 200.66916 313.2456 C 200.1292 314.2895 199.44525 315.5854 199.12128 316.16137 C 198.22135 317.92524 198.14935 320.0131 199.01329 321.59696 C 199.66124 322.82087 199.73323 323.39683 199.55325 325.91664 L 199.30127 328.8324 L 200.45318 329.76835 C 201.06513 330.3083 201.5691 331.06425 201.5691 331.4962 C 201.5691 331.9282 200.95714 333.40407 200.2372 334.80797 C 198.9413 337.29178 198.9413 337.39977 199.37326 339.19963 C 200.1652 342.3674 200.2372 344.38324 199.66124 345.82313 C 198.9413 347.587 199.22927 348.8829 200.77715 351.07874 C 201.85707 352.6626 202.00106 352.9866 201.67709 353.85053 C 201.3891 354.57047 201.4251 355.3984 201.78508 356.9463 C 202.07306 358.0982 202.21705 359.3581 202.10905 359.7901 C 202.00106 360.25804 202.21705 360.798 202.685 361.22997 C 203.94492 362.3459 204.1249 363.3538 203.69293 366.88154 C 203.44095 368.7174 203.29696 370.73325 203.33296 371.4172 C 203.36896 372.10115 203.15297 373.50504 202.865 374.47697 C 202.57702 375.4849 202.32504 376.7808 202.28904 377.39275 C 202.10905 380.30853 202.25304 380.7405 204.3049 383.04432 C 205.4208 384.30423 206.7527 385.45614 207.29266 385.60013 C 208.94854 386.1041 214.20414 386.1041 220.28768 385.56413 C 223.56343 385.31215 227.27115 385.06017 228.56706 385.06017 C 232.85073 385.02417 240.59015 385.56413 242.462 386.0681 C 250.4894 388.15594 258.4088 387.184 262.08053 383.69227 C 265.1403 380.7405 266.3642 376.4928 265.0683 373.36105 C 264.31236 371.4892 261.64856 369.50935 259.16475 368.9334 C 257.97684 368.6454 254.23312 368.42943 249.98544 368.39343 C 238.25032 368.28544 233.4267 366.80955 228.42307 361.87792 C 225.1833 358.63817 223.8874 356.37034 223.8874 353.88653 C 223.8874 352.8426 223.56343 350.82676 223.16746 349.42286 C 222.7715 347.98297 222.44752 345.93113 222.44752 344.8512 C 222.44752 343.7713 222.19554 342.0794 221.87156 341.0355 C 221.2956 339.23563 221.2956 339.16364 222.23153 337.32778 C 222.98748 335.8159 223.16746 334.98795 223.16746 332.7921 C 223.16746 330.92026 223.38345 329.66035 223.8874 328.58044 C 224.89533 326.3126 224.82334 323.9008 223.67143 321.92094 C 222.7715 320.40905 222.7355 320.19307 223.16746 318.78918 C 223.38345 317.96124 223.8874 316.77333 224.24738 316.19737 C 225.3633 314.3615 225.72327 312.45365 225.2553 310.7258 C 224.89533 309.2859 224.93133 309.0699 225.72327 308.24197 C 226.47921 307.45003 226.5512 306.98207 226.6232 303.05836 C 226.6952 300.1066 226.91118 298.5227 227.23516 297.94675 C 227.8831 296.90283 228.24308 287.72352 227.8471 283.25986 C 226.98318 274.00856 226.7312 272.3167 225.86726 270.26484 C 225.3633 269.11293 224.96733 267.92502 224.96733 267.63704 C 224.96733 267.34906 224.57136 266.6291 224.0674 266.05316 C 223.56343 265.4412 223.16746 264.86525 223.16746 264.75726 C 223.16746 264.64926 223.81541 264.1453 224.57136 263.64134 C 225.3633 263.17338 226.47921 262.05746 227.09117 261.15753 C 227.70312 260.2936 228.74704 259.24967 229.395 258.8537 C 230.55777 258.17767 230.98926 257.2782 230.76576 255.66695 Z M 226.0357 239.34043 C 225.3674 237.73773 224.63096 236.10172 223.9594 234.77152 C 223.52744 233.97958 222.91548 231.85574 222.5915 230.12787 C 221.97955 226.78012 219.20776 217.9248 218.30783 216.23292 C 217.98386 215.69296 217.4799 213.46113 217.15592 211.2653 C 216.65196 207.84555 216.61596 206.76563 216.97593 203.77786 C 217.69588 198.12629 218.41582 193.9146 219.02778 192.00675 C 219.31575 191.03482 219.74772 189.16296 219.9277 187.86706 C 220.89963 181.78352 222.15954 177.42785 223.9234 174.0441 C 224.19836 173.52039 224.4675 173.00249 224.72907 172.494 C 225.45815 172.19491 226.06376 172.01206 226.20242 172.06493 C 226.34592 172.17357 226.96977 173.04323 227.54425 174.00193 C 228.88634 176.201 232.3076 180.94951 234.75313 183.99306 C 237.83727 187.82714 241.63765 190.89412 248.2523 194.7644 C 250.05313 195.82082 251.1319 196.70982 251.1174 197.05101 C 251.09296 197.3576 250.65355 198.04532 250.13984 198.60455 C 249.07783 199.73294 246.03344 206.48523 244.6925 210.68943 C 243.73122 213.73622 238.6681 224.2879 237.4038 225.8862 C 236.9593 226.4256 236.66822 227.10823 236.73768 227.35045 C 236.9262 228.0079 236.111 228.69104 234.51443 229.2612 C 232.46802 229.96033 228.9212 233.52383 227.3022 236.49708 C 226.67084 237.65787 226.25924 238.54898 226.0357 239.34043 Z M 206.53012 153.88692 C 204.16811 151.23185 204.8812 149.09256 204.8812 149.09256 C 204.8812 149.09256 205.47203 147.3201 206.24554 142.95895 C 208.36492 144.91426 211.61032 146.97909 209.4305 149.3137 C 207.77831 151.0832 206.9291 152.62246 206.53012 153.88692 Z M 145.9778 243.16665 C 144.91107 242.6479 143.89875 242.32342 143.34995 242.32342 C 141.87406 242.32342 140.29018 241.74747 140.29018 241.2435 C 140.29018 241.02752 139.28226 239.8396 138.02235 238.6157 C 136.76245 237.3918 134.89059 235.44794 133.88267 234.33203 C 132.83874 233.1801 131.83082 232.24418 131.68683 232.24418 C 131.50684 232.24418 130.93089 231.56024 130.39093 230.7323 C 129.81497 229.86836 128.62706 228.39247 127.69113 227.38455 C 124.52337 224.0008 123.11948 222.34493 122.50752 221.22902 C 122.14755 220.65306 121.39161 219.82512 120.77965 219.42915 C 120.2037 219.06918 119.41176 218.24124 119.01579 217.5933 C 118.61982 216.94534 117.93587 216.33338 117.5399 216.1894 C 117.10793 216.0814 116.136 215.50545 115.34407 214.9295 C 114.55212 214.35353 113.72419 213.88557 113.5442 213.88557 C 113.04024 213.88557 111.85233 212.76965 111.85233 212.3017 C 111.85233 212.0857 113.68819 210.6818 115.92002 209.20592 C 121.64359 205.35421 123.91142 202.9424 127.33116 197.00284 C 127.61914 196.46289 128.23109 195.59895 128.66306 195.023 C 129.09503 194.48303 129.56299 193.6911 129.70698 193.29512 C 129.81497 192.86316 130.60691 191.45926 131.43485 190.16336 C 132.98273 187.78754 133.55869 186.45564 133.95466 184.65578 C 134.09865 184.07982 134.38663 183.64785 134.63861 183.64785 C 135.75452 183.61186 137.55439 181.34403 138.59831 178.68023 C 138.83149 178.14392 139.27612 177.32063 139.7561 176.54302 C 139.87365 176.81822 140.08341 177.1633 140.33772 177.46385 C 140.69769 177.93181 141.09366 178.72375 141.23765 179.22771 C 141.38164 179.73168 141.8856 180.91959 142.35357 181.9275 C 142.82153 182.89944 143.54148 184.87929 143.93745 186.28318 C 144.36941 187.68708 145.01736 189.27096 145.41333 189.77492 C 145.8813 190.35087 146.13328 191.2148 146.13328 192.15074 C 146.13328 193.05067 146.49325 194.38257 147.03321 195.4265 C 147.53717 196.39842 147.93314 197.51433 147.93314 197.9103 C 147.93314 198.30627 148.14913 198.84623 148.4371 199.1342 C 148.72508 199.4222 149.22905 200.6821 149.55302 201.942 C 149.877 203.2019 150.52495 204.74979 150.99291 205.32574 C 151.42488 205.9377 152.18082 207.3056 152.6128 208.3855 C 153.08076 209.46543 153.58472 210.50935 153.7647 210.72534 C 153.9087 210.90532 154.05268 213.13715 154.05268 215.69296 C 154.05268 219.79665 153.94469 220.5166 153.29674 221.56052 C 152.3968 223.0724 150.66894 227.68006 149.51702 231.78375 C 149.04906 233.47562 148.4731 235.31148 148.25712 235.92343 C 148.04114 236.4994 147.2132 239.0912 146.45726 241.683 C 146.3093 242.1605 146.14753 242.6606 145.9778 243.16665 Z M 145.94888 166.48126 C 146.9935 159.4036 147.91018 156.65352 147.91018 156.65352 C 147.91018 156.65352 149.14834 152.93905 142.95755 149.22457 C 141.57709 148.3963 145.04458 148.92344 146.78215 147.3594 C 147.98806 156.70789 149.1641 160.23598 149.1641 160.23598 C 149.1641 160.23598 150.1523 163.20057 145.94888 166.48126 Z"
                        fill="black"/>
               </g>
            </g>
            <g>
               <path d="M 230.12463 253.37748 C 230.80458 252.82752 231.3745 250.9937 231.56474 248.65334 C 231.8434 245.31546 233.78875 247.5288 234.39734 247.95345 C 235.09498 248.42746 235.0166 249.1989 233.66217 254.79254 C 232.48508 259.6987 231.43236 264.6148 231.92213 264.8863 C 232.36738 265.1331 232.9793 263.87165 234.18716 260.11754 C 235.48865 256.037 237.39193 251.21403 238.16337 251.2924 C 238.69742 251.32652 238.3643 254.6051 237.41877 258.62103 C 236.77857 261.35107 235.69325 268.3736 236.09906 268.74406 C 236.64837 269.22316 237.76513 266.84688 238.54733 262.6531 C 239.5509 257.27242 240.73515 251.9031 241.08118 251.80387 C 241.80783 251.5955 241.9223 252.38653 241.49966 255.09164 C 241.28362 256.68895 241.063 258.66206 241.03906 259.49278 C 241.01513 260.3235 240.09473 264.0033 239.8777 264.55237 C 239.3449 265.8286 239.5731 266.62445 240.32928 266.25783 C 240.88776 265.98535 241.8626 262.3648 243.09672 255.0456 C 243.42116 253.04274 243.87942 251.37597 244.05243 251.32636 C 244.22544 251.27675 244.35927 251.61285 244.34985 252.10238 C 244.3651 252.54738 244.36102 253.4473 244.38136 254.04063 C 244.37702 254.6785 243.97067 256.12067 243.77906 257.4114 C 243.61213 258.6576 242.64765 262.5995 242.74687 262.94552 C 243.00485 263.8452 243.0029 263.78367 243.41695 262.78855 C 243.9976 261.53483 246.45232 253.16578 246.8373 252.41877 C 247.44438 251.27105 248.16717 247.00085 248.61042 245.15114 C 248.8468 244.14716 249.24578 242.53484 249.51677 241.52093 C 249.8468 240.19052 249.83103 239.2214 249.44407 237.87188 C 248.68006 235.20747 249.03067 234.73245 254.89564 230.2421 C 256.2248 229.2618 257.62293 227.9996 258.0229 227.43553 C 258.3982 226.91598 259.50933 225.4365 260.49705 224.17961 C 262.7885 221.20078 270.02018 208.41701 271.2878 205.13259 C 271.82545 203.74264 272.75773 201.37823 273.3694 199.8547 C 275.12557 195.53144 276.2889 191.75265 276.2678 190.37313 C 276.26656 189.0628 275.99407 188.50432 274.68225 186.93319 C 274.28128 186.449 273.0038 184.60588 271.83524 182.88132 C 270.70127 181.14685 269.0872 178.91342 268.24073 177.92036 C 267.39425 176.9273 265.88424 174.92617 264.86425 173.4586 C 262.09637 169.42149 259.88896 167.2084 255.75247 164.27525 C 250.15633 160.30017 248.16746 159.11042 245.49163 158.26744 C 244.13145 157.83361 241.6037 156.72348 239.86722 155.76094 C 237.88344 154.71952 236.57262 154.19664 236.42453 154.46379 C 236.31105 154.72102 236.19807 155.50237 236.17898 156.21936 C 236.1362 158.02913 231.9059 165.6083 228.6809 169.64123 C 228.10308 170.36864 228.08832 170.44777 229.14825 172.31582 C 229.74258 173.34373 230.79234 174.91512 231.51007 175.7204 C 232.20313 176.57021 232.88142 177.49915 232.98065 177.84518 C 233.0898 178.22581 233.49585 178.85834 233.87698 179.27332 C 235.67374 181.22967 237.58448 183.45293 238.4658 184.69813 C 239.6738 186.29903 241.25253 187.75619 243.76603 189.46957 C 244.7952 190.18556 246.14595 191.10891 246.71 191.50889 C 247.3186 191.93354 249.06984 192.81696 250.6824 193.478 C 254.44186 195.09625 254.58077 195.5807 252.53228 199.27626 C 249.77288 204.14933 247.41905 209.1308 247.05468 210.7332 C 246.64603 212.57298 245.8962 214.39826 242.47675 221.93216 C 241.09514 224.94969 239.86136 227.438 239.72295 227.4777 C 239.54993 227.5273 239.07083 228.0766 238.6561 228.7198 C 238.1574 229.46197 236.95672 230.36798 235.4642 231.17043 C 231.03122 233.60245 227.75737 238.24856 228.2845 241.39283 C 228.41882 242.25306 228.39055 243.72164 228.24805 244.66125 C 228.20465 244.89395 228.15746 245.1997 228.10856 245.5531 C 228.10886 245.5626 228.109 245.57176 228.109 245.58062 C 228.109 246.26457 228.433 247.92045 228.86495 249.25235 C 229.22357 250.4586 229.75934 252.22583 230.12463 253.37748 Z"/>
            </g>
            <g>
               <g  id="outline-1">
                  <path 
                        d="M 245.80986 232.7725 C 244.91936 232.2789 245.01784 231.83873 246.76532 228.7912 C 248.52757 225.66452 249.10056 225.05084 249.9562 225.2923 C 250.31724 225.37602 249.98697 226.44437 248.78296 229.0365 C 247.0263 232.83563 246.70036 233.26612 245.80986 232.7725 Z"
                        fill="black"/>
               </g>
            </g>
            <g>
               <g  id="outline-2">
                  <path 
                        d="M 242.4308 230.78305 C 241.61968 230.56626 241.18844 229.45414 241.73674 228.88498 C 241.97388 228.6672 242.49192 227.4701 242.96544 226.24834 C 243.6214 224.48743 243.972 224.0124 244.6839 223.88317 C 245.9693 223.6644 246.3115 224.72715 245.50212 226.3448 C 245.11715 227.0918 244.64847 228.19985 244.48587 228.8082 C 244.0818 230.27218 243.31113 230.98 242.4308 230.78305 Z"
                        fill="black"/>
               </g>
            </g>
            <g>
               <g  id="outline-3">
                  <path 
                        d="M 260.95425 211.01663 C 260.68226 210.98228 260.3655 210.66118 260.25635 210.28055 C 260.01822 209.45008 261.58127 204.84516 263.20994 201.64445 C 263.88116 200.32854 264.48775 198.65668 264.5613 197.99898 C 264.72797 196.49072 265.04423 196.28769 265.67317 197.30568 C 266.6835 199.00071 266.63487 199.87596 265.3764 202.4088 C 264.69044 203.80383 263.65435 206.198 263.14648 207.69176 C 262.16026 210.52102 261.7949 211.07516 260.95425 211.01663 Z"
                        fill="black"/>
               </g>
            </g>
            <g>
               <g  id="outline-4">
                  <path 
                        d="M 257.78784 183.1271 C 257.06068 182.81134 255.4181 181.78443 254.19582 180.78679 C 252.98348 179.82374 251.7663 178.97443 251.48438 178.90547 C 250.5397 178.61464 244.82498 174.74846 243.37983 173.36535 C 242.29598 172.32801 241.75125 171.47311 241.26532 170.03964 C 240.571 167.8795 240.7387 167.4195 242.02967 167.87317 C 242.6034 168.04569 243.1232 168.68305 243.61372 169.74072 C 244.8922 172.6321 245.60484 173.28906 252.39298 177.63384 C 253.76842 178.51267 255.63872 179.81132 256.51955 180.5324 C 257.39045 181.21887 258.57278 181.81604 259.11676 181.88474 C 259.76454 181.92368 260.05153 182.14097 260.02226 182.5613 C 260.00775 182.90248 259.99325 183.24368 260.0131 183.31288 C 260.13216 183.72811 259.01953 183.63523 257.78784 183.1271 Z"
                        fill="black"/>
               </g>
            </g>
            <g>
               <g  id="feature-0">
                  <path 
                        d="M 179.79074 90.85439 C 180.4027 91.03437 181.5906 91.68232 182.45454 92.36627 C 184.2184 93.69817 185.22633 93.69817 188.07011 92.43827 C 190.22995 91.43034 193.72169 91.53834 195.59355 92.61825 C 196.42148 93.08622 197.4654 93.59018 197.93337 93.73417 C 198.40133 93.87816 199.51725 94.56211 200.45318 95.24606 C 201.89307 96.36197 202.61302 97.18991 204.44888 100.03369 C 205.02483 100.93363 206.32074 104.10139 206.6807 105.43329 C 207.43665 108.27707 207.43665 108.31307 206.8247 108.31307 C 205.92477 108.31307 204.3049 107.37714 201.3891 105.2533 C 199.08528 103.52543 198.7253 103.09346 198.04136 101.18561 C 197.17743 98.80979 196.49348 98.05384 195.59355 98.37782 C 195.12558 98.5578 195.05359 98.88178 195.26957 99.9617 C 195.73753 102.5535 197.06943 104.89333 198.8333 106.15323 C 199.87722 106.90917 200.48918 107.62912 200.48918 108.09709 C 200.48918 108.92502 200.74116 109.39299 202.57702 112.09278 C 203.62094 113.67666 203.72893 114.10863 203.72893 116.48445 C 203.72893 118.4283 203.44095 119.94019 202.64901 122.388 C 201.17312 126.81567 201.10113 129.40748 202.43303 133.76315 C 202.973 135.59901 203.36896 137.43487 203.29696 137.86684 L 203.18897 138.62278 L 202.18105 137.83084 C 200.0572 136.13897 198.47333 131.24334 198.8333 127.57161 C 199.44525 121.41608 199.48125 119.8322 198.9413 117.27639 C 198.61732 115.8005 198.14935 114.21662 197.89737 113.71266 C 196.56547 111.30084 195.95352 110.5809 194.40564 109.46498 C 193.5057 108.81703 192.1738 107.9171 191.48986 107.41314 C 189.11403 105.75726 188.43009 105.2533 186.8822 104.10139 C 186.01827 103.45344 185.08234 102.91348 184.79436 102.91348 C 183.96642 102.91348 184.2184 101.97755 185.5863 100.21368 C 186.9902 98.34182 187.09819 97.04592 185.83828 96.86593 C 185.22633 96.75794 184.72237 97.2619 183.46246 99.20576 C 182.27455 101.07762 181.44661 101.86956 180.11471 102.5895 C 179.14279 103.09346 177.7389 103.8854 177.01895 104.31737 C 175.36307 105.3253 175.29108 105.00132 176.55098 101.90555 C 177.05495 100.68165 177.45092 99.34975 177.45092 98.95378 C 177.45092 97.83786 176.08302 98.05384 173.85119 99.52973 C 172.77127 100.24968 171.0434 101.2576 169.99948 101.72557 C 167.83964 102.73349 163.98793 106.36922 162.65603 108.67304 C 160.85617 111.8048 159.81225 115.8365 159.63226 120.55214 C 159.52427 123.07195 159.2363 125.59176 158.91232 126.5277 C 158.62434 127.42763 158.37236 128.72353 158.37236 129.47947 C 158.33636 132.14327 157.29244 138.3348 156.64449 139.41472 C 156.21252 140.17066 155.70856 140.53064 155.0966 140.53064 L 154.23267 140.53064 L 154.23267 134.87906 C 154.23267 129.1195 154.01669 128.14757 152.86477 128.57954 C 152.5768 128.68753 152.25282 129.22749 152.14483 129.80345 C 151.60487 132.68323 150.41696 136.13897 149.841 136.57094 C 148.40111 137.68685 148.36511 137.43487 148.83308 126.88767 C 148.94107 124.69183 149.08506 122.67598 149.15705 122.388 C 149.26504 122.06403 149.40903 120.44415 149.55302 118.75228 C 149.841 114.21662 150.05698 113.2447 151.38888 109.46498 C 153.11675 104.60535 156.3925 99.81771 160.20822 96.57795 C 161.7921 95.21006 163.51997 93.98615 164.02393 93.84216 C 164.4919 93.69817 165.10385 93.44619 165.31983 93.23021 C 165.57181 93.05022 167.22769 92.33028 168.99155 91.61033 C 171.97933 90.45842 172.4833 90.38642 175.47107 90.45842 C 177.27093 90.53041 179.21478 90.7104 179.79074 90.85439 Z"
                        fill="#ff0000"/>
               </g>
            </g>
            <g>
               <path d="M 173.49121 103.23745 C 173.49121 103.8854 171.94333 106.33322 171.0794 107.08916 C 170.32345 107.73711 170.25146 107.98909 170.57543 108.63704 C 171.40337 110.11293 174.49914 109.42898 177.01895 107.23315 C 178.81881 105.64927 181.01465 104.35337 181.95058 104.35337 C 182.23855 104.35337 183.17448 104.82133 184.00242 105.43329 C 184.79436 106.00924 185.6943 106.5132 185.91028 106.5132 C 186.16226 106.5132 187.31417 107.19715 188.46608 108.06109 C 189.654 108.88903 190.9859 109.82495 191.48986 110.14893 C 191.99382 110.4729 193.14573 111.44483 194.11766 112.30877 C 195.66554 113.74866 195.88152 114.18063 196.56547 116.95242 C 197.28542 119.72421 197.28542 120.22817 196.88945 122.89197 C 196.2055 127.13965 196.1695 128.75952 196.74546 131.35133 C 197.96937 136.75092 198.36534 137.72285 199.98521 139.16274 C 201.13713 140.13467 201.5691 140.78262 201.5691 141.50256 C 201.5691 142.07852 201.4251 142.51049 201.28112 142.51049 C 200.84915 142.51049 199.40926 140.45864 199.40926 139.84669 C 199.40926 139.55871 199.26527 139.23473 199.08528 139.12674 C 198.7973 138.94676 196.42148 135.41902 194.9096 132.9712 C 193.5417 130.73938 191.66984 128.83152 190.33794 128.29156 C 189.582 128.00358 188.97005 127.64361 188.97005 127.46362 C 188.97005 127.31963 188.46608 126.99566 187.85413 126.77967 C 186.8822 126.3837 186.77421 126.23972 186.9902 125.26779 C 187.24218 124.00788 186.8462 123.64791 185.6223 124.11588 C 185.04634 124.33186 184.2904 124.33186 183.42646 124.07988 C 182.16656 123.68391 182.13056 123.61191 182.13056 121.95604 C 182.13056 121.02011 182.27455 120.12018 182.49054 120.01219 C 182.67052 119.9042 182.8145 117.88835 182.8145 115.33254 C 182.8145 111.69681 182.70652 110.86888 182.27455 110.68889 C 181.48261 110.36491 181.15864 110.68889 180.87066 111.9128 C 180.51068 113.49668 180.51068 125.26779 180.83466 126.23972 C 181.12264 127.03166 181.05064 127.06765 179.93473 126.95966 L 178.71082 126.85167 L 178.67482 122.71198 C 178.67482 120.44415 178.53083 116.84442 178.38685 114.72058 C 178.13486 111.30084 177.99087 110.83288 177.37892 110.6169 C 176.94695 110.4729 176.51499 110.5809 176.299 110.86888 C 175.90303 111.48083 176.299 118.86027 176.76697 120.15617 C 176.98295 120.66014 177.01895 121.88404 176.91096 122.89197 C 176.69497 124.43985 176.47899 124.87182 175.61505 125.37578 C 175.0391 125.69976 174.57113 126.20372 174.57113 126.4917 C 174.57113 127.13965 173.7072 127.60761 171.94333 127.8596 C 171.0434 128.00358 169.89149 128.61554 168.70358 129.65946 C 167.65966 130.52339 166.32776 131.56731 165.7518 131.96328 C 165.13985 132.39525 164.4559 133.1152 164.23991 133.58316 C 162.98 136.17496 161.97208 138.55079 161.97208 138.98275 C 161.97208 139.23473 161.7561 139.88268 161.46812 140.38665 C 161.21614 140.89061 160.89217 141.79054 160.74818 142.3665 C 160.13622 144.70632 158.94831 144.9583 158.33636 142.87046 C 157.94039 141.64655 157.97639 141.21458 158.48035 140.17066 C 158.80432 139.45072 159.1643 138.22681 159.30829 137.36288 C 159.41628 136.53494 159.66826 135.45502 159.84824 134.95106 C 160.02823 134.4471 160.3522 132.25126 160.5322 130.09142 C 160.74818 127.89559 161.03616 125.23179 161.21614 124.15187 C 161.39613 123.07195 161.57611 121.1641 161.57611 119.97619 C 161.61211 117.63636 162.98 112.27277 164.09592 110.07694 C 165.03185 108.27707 168.91956 104.67734 170.89941 103.74141 C 172.77127 102.87748 173.49121 102.73349 173.49121 103.23745 Z"/>
            </g>
            <g>
               <g  id="feature-1">
                  <path 
                        d="M 187.42216 129.0475 C 187.74614 129.58746 188.53808 130.23541 189.15003 130.4874 C 190.55393 131.06335 192.42578 132.89921 193.28972 134.59108 C 193.6857 135.27503 194.62162 136.82292 195.41356 138.01083 C 196.2415 139.19874 196.88945 140.56663 196.88945 141.0346 C 196.88945 142.04252 195.95352 143.23043 195.19758 143.23043 C 194.15365 143.23043 190.15796 140.60263 188.03412 138.55079 C 187.60215 138.15482 186.73821 137.65085 186.12626 137.43487 C 185.11834 137.0749 184.86636 137.1109 184.1824 137.72285 C 183.49846 138.3348 182.9585 138.4068 180.3307 138.2988 C 175.47107 138.08282 175.0031 138.01083 174.71512 137.72285 C 173.7792 136.78692 171.51136 138.73077 169.38752 142.3305 C 166.29176 147.5141 165.7518 148.23405 164.95986 148.27005 C 164.5279 148.27005 163.91594 147.91008 163.62796 147.5141 C 163.23199 146.93815 162.83602 146.79416 162.18807 146.90215 C 160.92816 147.15414 160.96416 146.57818 162.44005 143.44642 C 163.124 142.04252 163.84394 140.09867 164.09592 139.12674 C 164.3479 138.15482 164.92386 136.85891 165.42782 136.28296 C 165.89579 135.743 166.29176 134.95106 166.29176 134.55509 C 166.29176 134.19511 166.75972 133.65516 167.37168 133.33118 C 167.98363 133.0072 168.4516 132.64723 168.4516 132.50324 C 168.4516 132.03528 170.82742 130.63138 171.65535 130.63138 C 172.08732 130.63138 172.98725 130.23541 173.6352 129.73145 C 175.0391 128.68753 175.72305 128.61554 177.12694 129.44347 C 178.38685 130.19942 178.45884 130.55939 177.30693 130.84737 C 176.15501 131.13535 174.10317 133.29518 174.28315 134.05113 C 174.49914 135.27503 175.54157 135.57671 177.8094 134.85677 L 180.32702 134.13745 L 178.24286 133.94313 C 177.23493 133.87114 176.9821 133.34645 177.09008 133.05847 C 177.48605 131.76257 183.2043 131.4749 183.2043 132.69881 C 183.2043 133.34676 183.46763 133.31675 180.68668 134.13745 C 183.80293 135.29512 185.03657 134.46591 185.72191 133.41813 C 186.12505 132.80178 185.50765 131.38351 185.0026 130.90051 C 184.49754 130.41751 184.1824 130.3794 183.39047 130.12742 L 181.95058 129.62346 L 182.9225 129.22749 C 183.42646 129.0475 183.96642 128.68753 184.11041 128.50754 C 184.2184 128.29156 184.90235 128.11157 185.5503 128.11157 C 186.48623 128.11157 186.9542 128.32756 187.42216 129.0475 Z"
                        fill="#ff0000"/>
               </g>
            </g>
            <g>
               <g  id="feature-2">
                  <path 
                        d="M 181.41062 140.17066 C 181.91458 140.78262 183.0665 140.89061 183.39047 140.31465 C 184.00242 139.34273 187.92612 140.9626 190.7699 143.41042 C 191.05789 143.6984 192.02981 144.27435 192.92975 144.74232 C 194.36964 145.46226 194.54962 145.75024 194.65762 146.93815 C 194.7296 147.6941 194.62162 148.27005 194.40564 148.27005 C 194.18965 148.27005 194.00967 148.09007 194.00967 147.91008 C 194.00967 147.6941 193.6137 147.5501 193.10973 147.5501 C 192.49778 147.5501 192.2098 147.7301 192.2098 148.19806 C 192.2098 148.52203 191.88583 149.026 191.48986 149.27798 C 190.9139 149.60195 190.7699 150.10591 190.7699 151.47381 C 190.7699 152.51773 190.55393 153.38167 190.26595 153.63365 C 189.86998 153.95762 189.582 153.52565 188.64607 151.40182 C 187.27817 148.30605 183.75044 144.38235 182.67052 144.81431 C 181.6266 145.21028 182.38254 146.86616 184.3264 148.55803 C 185.6943 149.78194 186.09026 150.3579 186.09026 151.18583 C 186.09026 151.76179 186.34224 152.66172 186.66622 153.16568 C 187.13418 153.84963 187.20618 154.3176 186.9182 155.21753 L 186.59423 156.36944 L 185.91028 155.10954 C 185.15433 153.66964 184.3984 152.9857 183.46246 152.9497 C 182.49054 152.9497 182.34655 153.92162 183.17448 154.96555 C 184.54238 156.72941 183.93043 161.33706 182.20256 162.273 C 181.15864 162.81295 181.05064 162.77696 181.05064 161.80503 C 181.05064 161.33706 180.83466 160.7611 180.54668 160.54512 C 179.68275 159.82518 179.57476 158.49328 180.1867 155.97347 C 180.76267 153.45366 180.58268 152.76971 179.39477 153.0217 C 178.8908 153.09369 178.45884 153.88563 177.88288 155.75749 C 176.91096 158.81726 176.47899 158.78126 175.47107 155.6135 C 175.0391 154.2456 174.9311 153.12968 175.0751 152.12176 C 175.54306 149.42196 175.50706 149.16998 174.75112 149.062 C 173.7432 148.918 172.66328 151.07784 172.59128 153.23768 C 172.55529 154.82156 172.51929 154.92955 171.36738 155.14553 C 169.6755 155.5055 167.94763 154.2816 168.19961 152.9497 C 168.3076 152.44574 168.12762 151.6178 167.80364 151.07784 C 167.26368 150.14191 167.29968 149.99792 168.23561 148.01807 C 168.81157 146.86616 169.96348 144.81431 170.86341 143.48241 C 172.3033 141.21458 172.51929 141.0346 173.45522 141.25058 C 174.13917 141.39457 174.60713 141.28658 174.9311 140.9266 C 175.21908 140.53064 175.79504 140.42264 176.69497 140.53064 C 177.41492 140.63863 178.56683 140.49464 179.25078 140.20666 C 180.94265 139.55871 180.90665 139.55871 181.41062 140.17066 Z"
                        fill="#ff0000"/>
               </g>
            </g>
            <g>
               <g  id="feature-3">
                  <path 
                        d="M 195.26957 151.40182 C 195.0176 152.48173 192.92975 154.85755 192.92975 154.06561 C 192.92975 153.63365 193.79368 151.90578 194.51363 150.86186 C 195.05359 150.06992 195.52155 150.3939 195.26957 151.40182 Z"
                        fill="#ff0000"/>
               </g>
            </g>
            <g>
               <path d="M 167.26368 154.96555 C 170.82742 157.44936 171.25938 157.66534 172.4833 157.48536 C 173.6352 157.30537 173.85119 157.37736 174.06717 158.06131 C 174.35515 158.99724 177.37892 162.309 177.95488 162.309 C 178.17086 162.309 178.78282 163.06493 179.32277 163.96487 C 179.86273 164.8288 180.54668 165.65674 180.87066 165.76473 C 181.37462 165.98071 185.33432 162.77696 185.7303 161.84103 C 186.01827 161.08508 192.56977 154.96555 192.56977 155.43351 C 192.56977 156.00947 191.52585 158.02531 190.9139 158.70926 C 190.62592 158.99724 189.438 160.47313 188.2141 161.98502 C 186.55823 164.07286 185.6223 164.9008 184.2544 165.54875 C 183.24648 165.98071 182.27455 166.66466 182.02257 167.02464 C 181.48261 167.88857 180.87066 167.88857 180.2587 167.02464 C 177.7029 163.4249 173.5992 159.86118 166.57974 155.14553 C 164.4199 153.74164 162.69203 152.48173 162.69203 152.40974 C 162.69203 151.90578 163.69995 152.48173 167.26368 154.96555 Z"/>
            </g>
            <g>
               <g  id="feature-4">
                  <path 
                        d="M 214.42012 212.5252 C 214.6361 213.7131 214.7441 214.79303 214.6001 214.93702 C 214.16814 215.36898 206.9327 215.98094 197.96937 216.30491 C 193.32572 216.4849 188.53808 216.77288 187.38617 216.98886 C 186.19826 217.20485 182.9585 217.45683 180.1867 217.56482 C 177.37892 217.6728 172.2673 217.8528 168.81157 217.99679 C 165.35583 218.14078 161.21614 218.24877 159.63226 218.24877 L 156.75248 218.28476 L 156.5365 216.88087 C 156.4285 216.12493 156.3925 214.79303 156.5005 213.9651 C 156.64449 212.5612 156.78848 212.3812 157.7964 212.16523 C 160.02823 211.66126 165.96778 211.55327 178.35085 211.80525 C 183.96642 211.94924 187.63815 211.87725 188.79006 211.58927 C 189.79798 211.37329 194.15365 211.1213 198.50933 211.01331 C 202.865 210.90532 207.72463 210.68934 209.3085 210.54535 C 214.06015 210.07738 213.91616 210.04139 214.42012 212.5252 Z"
                        fill="#ff0000"/>
               </g>
            </g>
            <g>
               <g  id="feature-5">
                  <path 
                        d="M 154.08474 269.38822 C 155.07376 269.1909 156.93247 268.8525 158.76833 268.53697 C 163.44797 267.74503 166.47174 266.44913 167.0477 265.00924 C 167.22769 264.54127 167.80364 263.71333 168.3076 263.17338 C 169.35153 262.09346 170.89941 258.56572 171.1514 256.62187 C 171.25938 255.93792 171.51136 253.16613 171.69135 250.46633 C 171.97933 246.00267 172.4833 243.66285 173.13124 243.66285 C 173.23923 243.66285 173.6352 243.87883 173.95918 244.1308 C 174.49914 244.4908 174.53514 244.81476 174.21116 246.47064 C 174.03117 247.51456 173.85119 249.85438 173.85119 251.69024 C 173.85119 256.69386 172.3033 262.38143 170.35945 264.57727 C 169.8195 265.18922 169.96348 265.6212 171.65535 269.14892 C 173.02325 271.9927 178.63883 274.51252 182.63452 274.04455 C 186.66622 273.6126 187.53015 273.07263 192.46178 268.249 C 195.48555 265.26122 196.0615 264.90124 197.5734 264.90124 C 198.9413 264.90124 198.9413 264.57727 197.75338 262.02146 C 196.99744 260.4016 196.70946 258.8177 196.1335 253.3821 C 195.34156 245.7507 195.34156 245.4627 195.77353 245.4627 C 196.78146 245.4627 197.14143 246.65062 197.35741 250.39434 C 197.82538 258.31374 199.15728 262.9934 201.4971 264.97324 C 203.22497 266.41313 208.48057 267.09708 214.31213 266.6291 C 216.75995 266.44913 217.3719 266.23314 218.99178 265.11723 C 221.76357 263.20937 225.61528 259.35766 226.22723 257.91777 C 226.5152 257.23382 227.01917 256.51388 227.37915 256.3339 C 228.0271 255.97392 227.9191 255.18198 226.5512 249.96237 C 226.29923 248.95445 225.97525 247.26258 225.86726 246.18266 C 225.72327 245.10274 225.3273 243.69885 224.96733 243.1229 C 224.64335 242.51094 224.24738 241.575 224.1034 241.03505 C 223.9594 240.4951 223.20346 238.62323 222.41152 236.89536 C 221.4396 234.8795 220.75565 232.71967 220.46767 230.8838 C 220.21569 229.29993 219.49574 226.9601 218.91978 225.6642 C 218.34383 224.3683 217.5159 222.24447 217.08392 220.94856 C 216.47197 219.1127 216.112 218.50075 215.50004 218.32076 C 214.56411 218.06878 213.98816 218.03278 213.77217 218.24877 C 213.70018 218.32076 208.76855 218.57274 202.829 218.82472 C 196.88945 219.0407 191.16588 219.40068 190.08596 219.58067 C 189.00604 219.76065 183.42646 219.97664 177.6669 220.12063 C 171.90733 220.22862 165.7518 220.4806 163.95194 220.69658 C 162.18807 220.91257 159.52427 221.12855 158.08438 221.23654 L 155.42058 221.41653 L 154.73663 223.0364 C 154.37666 223.93634 153.94469 225.30423 153.8367 226.13217 C 153.69271 226.9601 153.40473 228.04003 153.15275 228.544 C 152.5768 229.7319 151.35289 233.33163 150.81293 235.56346 C 150.56095 236.5354 150.16498 237.6873 149.913 238.08327 C 149.69701 238.47924 149.37304 239.52316 149.22905 240.4231 C 149.08506 241.32303 148.6171 242.8349 148.18513 243.84283 C 148.13494 243.95412 148.08065 244.0797 148.02258 244.21866 C 148.6276 244.53537 149.06853 244.74516 149.15543 244.74516 C 149.29942 244.74516 150.48733 245.86108 151.81923 247.19298 C 154.15905 249.6408 154.33904 250.00076 154.771 252.84455 C 154.879 253.6365 155.27497 255.18437 155.63494 256.2643 C 156.53488 259.00008 157.4708 262.8518 157.4708 263.9317 C 157.4708 265.5876 153.92658 266.11315 152.45069 265.28522 C 151.75983 264.9151 152.86032 267.06196 154.08473 269.3882 Z"
                        fill="#ff0000"/>
               </g>
            </g>
            <g>
               <path d="M 222.5195 268.71696 C 224.1034 271.59674 225.2553 275.59244 225.2913 278.40023 C 225.3273 279.76812 225.5073 281.81997 225.68727 282.8999 C 226.26323 286.10364 225.54328 296.79484 224.49936 300.71854 C 223.8514 303.16636 223.45544 303.9943 222.95148 304.1023 C 222.5915 304.17428 220.79164 305.1102 218.95578 306.15413 C 217.08392 307.23405 214.8161 308.27797 213.88016 308.49395 C 212.94424 308.67394 211.50434 309.1779 210.6044 309.57387 C 209.5605 310.00584 208.2286 310.25782 206.6447 310.25782 C 204.34089 310.25782 204.1969 310.18583 201.92907 308.49395 C 197.86137 305.4342 195.88152 302.7704 195.30557 299.7106 C 195.16158 298.95467 195.08958 295.9669 195.08958 293.05112 C 195.12558 290.13534 195.12558 287.43554 195.12558 287.03957 C 195.12558 286.6436 195.26957 285.3477 195.48555 284.1598 C 195.70154 282.97188 195.95352 281.208 196.02551 280.2721 C 196.1335 279.30016 196.3495 278.14824 196.52948 277.64428 C 196.74546 277.14032 196.88945 276.38438 196.88945 275.9164 C 196.88945 274.8725 198.54532 271.48875 199.80523 270.04886 C 200.3092 269.4369 200.84915 268.71696 200.92114 268.50097 C 201.02914 268.141 201.67709 268.141 203.90892 268.50097 C 208.87654 269.2929 213.3762 269.2929 216.43597 268.53697 C 217.91186 268.177 219.53174 267.60104 219.9637 267.27707 C 221.11562 266.48513 221.4036 266.6291 222.5195 268.71696 Z"/>
            </g>
            <g>
               <path d="M 154.95133 271.03623 C 155.21629 271.54405 155.46786 272.03337 155.68763 272.4784 C 157.16351 275.46618 157.18396 277.7121 156.572 278.46804 C 155.81606 279.36797 155.09612 279.08 153.40425 277.31613 C 152.50431 276.3442 150.27135 272.24708 150.41534 272.64305 C 151.67524 275.8108 153.72822 281.09584 153.62023 282.21176 C 153.47624 284.01162 153.09958 283.8451 151.37171 282.1892 C 150.03982 280.8933 149.21376 279.31194 149.21376 279.31194 L 149.21376 279.31194 C 149.21376 279.31194 149.21377 279.31197 149.21381 279.31205 C 149.22046 279.325 149.81087 280.4806 149.41713 281.2323 C 148.84117 282.27623 147.74037 282.19047 146.33648 280.75057 C 145.47254 279.85064 144.89784 278.59262 144.89784 278.59262 C 144.89784 278.59262 143.99916 279.88727 143.4592 280.03126 C 142.94937 280.14638 142.00122 278.57725 140.7459 276.42838 C 140.40209 277.079 140.02913 277.8056 139.61777 278.6162 C 138.57385 280.66805 137.09796 284.2318 136.30602 286.4996 C 134.93813 290.5313 134.90213 290.7833 134.79414 296.21888 C 134.65015 304.57025 135.73007 308.49395 139.00582 311.7697 C 140.12173 312.88562 140.76969 313.2096 143.03751 313.64156 C 147.71716 314.6135 147.96914 314.5775 149.69701 311.9497 C 150.52495 310.7258 151.89285 308.34996 152.68479 306.6581 C 153.47673 304.96622 154.59264 302.6264 155.1686 301.4385 C 156.3925 298.91868 156.3565 298.95467 157.32844 290.8193 C 157.8324 286.31963 158.08438 285.3837 158.80432 284.91573 C 159.27229 284.62776 159.56027 284.66375 159.95624 285.05972 C 160.4602 285.5277 160.4242 286.17564 159.63226 290.6393 C 159.1283 293.4111 158.73233 296.1829 158.73233 296.79484 C 158.73233 298.4147 153.62072 309.46588 151.46088 312.48965 C 150.52495 313.82155 150.88492 314.21752 153.00876 314.21752 C 154.01669 314.21752 155.1686 314.3975 155.60057 314.6135 C 156.24852 314.97346 156.4645 314.90147 157.18445 314.00154 C 158.19237 312.74163 158.22837 312.34566 157.32844 311.8057 C 156.68048 311.37374 156.71648 311.22975 158.48035 308.49395 C 162.26006 302.6624 163.052 301.3665 163.052 301.00652 C 163.052 300.79053 163.59196 298.7027 164.27591 296.32687 C 165.6438 291.61123 166.86771 283.00788 166.79572 278.50822 C 166.75972 276.38438 166.54374 275.44845 166.00378 274.5485 C 165.57181 273.90057 164.92386 272.67666 164.5279 271.81272 L 163.80795 270.30084 L 161.36013 270.33683 C 158.8914 270.3911 156.70891 270.62936 154.95133 271.03622 Z"/>
            </g>
            <g>
               <g  id="feature-6">
                  <path 
                        d="M 222.8075 307.738 C 222.8075 307.954 222.5555 308.63794 222.23153 309.2139 C 221.72757 310.22182 221.72757 310.4018 222.44752 311.58972 L 223.20346 312.88562 L 222.41152 314.75748 C 221.79957 316.26937 221.4036 316.70133 220.64765 316.88132 C 220.1077 316.9893 218.7758 317.56527 217.73187 318.21322 C 214.02415 320.40905 212.69225 321.021 209.16452 322.13692 C 206.8967 322.85687 205.09683 323.21684 204.1249 323.14485 C 202.61302 323.03685 202.54102 323.00086 201.85707 321.093 C 201.20912 319.36513 201.17312 319.00516 201.6051 317.67326 C 202.685 314.2535 204.37688 312.88562 207.07668 313.2456 C 208.2286 313.3896 208.94854 313.2456 210.6044 312.41766 C 211.75633 311.8417 213.3042 311.26574 214.06015 311.12175 C 214.8161 311.01376 216.90394 310.11383 218.6678 309.1779 C 222.01555 307.37804 222.8075 307.12606 222.8075 307.738 Z"
                        fill="#ff0000"/>
               </g>
            </g>
            <g>
               <g  id="feature-7">
                  <path 
                        d="M 141.8856 315.8374 L 142.56955 316.73733 L 148.6171 316.62934 C 155.63656 316.55734 155.96054 316.66534 155.45658 318.89717 C 155.2406 319.7611 155.27659 320.66103 155.49257 321.237 C 156.06853 322.74888 155.92454 323.7568 154.98861 324.62074 C 154.12468 325.44867 154.01669 325.44867 151.1729 325.0527 C 149.26504 324.76472 147.64517 324.26076 146.56525 323.6488 C 144.5854 322.4969 143.75746 322.10093 141.02167 320.913 C 139.43779 320.22907 138.93382 319.8331 138.93382 319.29314 C 138.93382 318.6092 140.73369 314.97346 141.05766 314.93747 C 141.12966 314.93747 141.48963 315.33344 141.8856 315.8374 Z"
                        fill="#ff0000"/>
               </g>
            </g>
            <g>
               <g  id="feature-8">
                  <path 
                        d="M 221.11562 322.74888 C 221.83556 324.29676 222.44752 325.73665 222.44752 325.95263 C 222.44752 326.1686 221.76357 326.78057 220.93563 327.32053 C 219.02778 328.58044 207.11268 334.01603 206.28474 334.01603 C 205.96076 334.01603 205.3128 334.268 204.84485 334.592 L 204.0169 335.20394 L 205.02483 336.03187 C 205.6008 336.49984 206.24874 336.8598 206.50072 336.8958 C 206.7527 336.8958 209.16452 335.8159 211.90031 334.448 C 218.09185 331.42422 219.9277 330.6323 220.1797 330.92026 C 220.39567 331.13624 220.68365 333.33208 220.68365 334.84396 C 220.68365 335.38392 220.25168 336.35585 219.74772 337.0398 C 219.24376 337.72375 218.7038 338.94765 218.5598 339.7756 C 218.27183 341.50346 218.5598 341.35947 211.50434 343.5553 C 208.98453 344.31125 206.8967 344.7792 206.39273 344.67122 C 205.81677 344.52723 205.4208 344.67122 205.02483 345.24718 C 204.1609 346.4351 204.34089 347.19103 205.4928 347.695 C 206.42873 348.05497 206.96869 347.94697 210.28044 346.68707 C 217.5519 343.8793 219.24376 343.30332 219.45974 343.5193 C 219.56774 343.6273 219.74772 344.56323 219.81972 345.57115 C 219.9637 347.22703 219.8917 347.407 219.13577 347.587 C 218.6678 347.731 217.11992 348.41494 215.68003 349.1709 C 212.26029 350.93475 209.12852 352.01467 207.40065 352.01467 C 206.10475 352.01467 204.80885 352.9146 204.80885 353.81453 C 204.80885 354.3905 206.28474 354.96644 207.29266 354.78646 C 209.3805 354.3905 212.58426 353.38256 213.59219 352.7706 C 215.896 351.4387 220.28768 349.71084 220.64765 350.0708 C 220.82764 350.2508 221.07962 351.22273 221.2236 352.23065 C 221.4036 353.81453 221.3316 354.2105 220.71965 354.82245 C 220.28768 355.25442 219.27976 355.7584 218.41582 355.97437 C 214.52812 356.9103 214.06015 357.34226 214.99608 359.3221 C 215.75202 360.906 215.78802 362.92184 215.06808 363.5338 C 214.20414 364.25374 212.1163 362.4179 211.03638 360.04206 C 210.24444 358.2062 210.10045 358.0622 209.20052 358.2782 C 206.28474 358.99814 204.98884 359.14213 204.55687 358.74616 C 204.0889 358.2782 203.90892 355.00244 204.2689 353.0586 C 204.48487 352.01467 204.34089 351.6187 203.62094 350.71876 C 202.00106 348.7749 201.6051 347.659 202.14505 346.4351 C 202.793 344.9952 202.757 341.82744 202.10905 340.27955 C 201.4251 338.65968 201.67709 337.32778 203.26097 334.268 C 204.66486 331.4962 204.66486 330.4523 203.29696 328.58044 C 202.61302 327.6445 202.57702 327.46452 203.00899 327.17654 C 203.29696 326.99656 203.83692 326.81657 204.1609 326.81657 C 205.63679 326.81657 212.2243 324.0088 217.2279 321.273 C 218.41582 320.62504 219.45974 320.04908 219.56774 320.0131 C 219.67573 320.0131 220.39567 321.237 221.11562 322.74888 Z"
                        fill="#ff0000"/>
               </g>
            </g>
            <g>
               <g  id="feature-9">
                  <path 
                        d="M 138.57385 322.2809 C 138.78984 322.5689 139.83376 323.07285 140.84168 323.43282 C 141.8856 323.7568 143.61347 324.47675 144.69339 325.0167 C 148.00514 326.74457 149.30104 327.21254 151.1729 327.42852 C 152.82877 327.6085 153.04476 327.7525 153.8727 329.1924 C 155.52857 332.03618 155.56457 332.32415 154.37666 334.16 L 153.29674 335.7799 L 151.42488 335.5639 C 150.38096 335.4559 148.5811 334.98795 147.39319 334.52 C 144.72939 333.51206 137.81791 330.4163 137.27795 329.98433 C 137.02597 329.80434 136.88198 328.54444 136.95397 326.5286 C 137.06197 322.13692 137.49393 321.021 138.57385 322.2809 Z"
                        fill="#ff0000"/>
               </g>
            </g>
            <g>
               <g  id="feature-10">
                  <path 
                        d="M 138.0339 333.0441 C 139.40179 333.72805 143.50548 335.34793 148.36511 337.1118 C 149.69701 337.57976 151.2809 337.97573 151.85685 337.97573 C 152.72078 337.97573 152.90077 338.1557 153.11675 339.09164 C 153.62072 341.68345 153.40473 342.79936 152.07283 344.09526 C 151.38888 344.7792 150.81293 345.57115 150.81293 345.78714 C 150.81293 346.79506 147.75316 345.82313 143.1815 343.30332 C 141.8496 342.58338 139.90575 341.71944 138.86183 341.39547 C 137.81791 341.0355 136.522 340.31555 135.98205 339.7396 C 135.1901 338.87566 135.08211 338.4797 135.2261 337.29178 C 135.3701 336.35585 135.2261 335.5639 134.79414 334.87996 C 134.32617 334.05202 134.29017 333.62006 134.57815 332.8281 C 135.01012 331.6762 135.40609 331.7122 138.0339 333.0441 Z"
                        fill="#ff0000"/>
               </g>
            </g>
            <g>
               <g  id="feature-11">
                  <path 
                        d="M 134.97412 341.97143 C 135.65807 342.83536 136.73799 343.3753 139.2938 344.27525 C 141.16566 344.8872 144.36941 346.1111 146.38526 346.97505 C 150.02099 348.45094 150.09298 348.52293 150.48895 349.96282 C 150.81293 351.25872 150.77693 351.7267 150.09298 353.45456 C 149.62502 354.53448 148.97707 355.97437 148.6171 356.6223 C 147.82515 357.9902 147.75316 358.89015 148.36511 359.5021 C 148.6171 359.7541 148.79708 361.014 148.83308 362.63386 L 148.83308 365.33366 L 146.38526 365.33366 C 143.2535 365.33366 141.74161 365.9816 140.5897 367.81747 C 139.54578 369.43735 138.71784 370.0133 137.31395 370.0133 C 136.558 370.0133 136.23403 369.72533 135.69407 368.46542 C 135.2981 367.6375 134.97412 366.2696 134.97412 365.44165 C 134.97412 363.5698 134.21818 362.74186 132.6703 362.88585 C 131.62638 362.99384 131.55438 362.92184 131.62638 361.9499 C 131.66237 361.37396 131.3744 360.15005 130.94243 359.2501 C 130.11449 357.48625 129.71852 354.4265 130.0785 352.9146 C 130.33047 351.94267 131.15841 351.7267 131.62638 352.48263 C 132.02235 353.1306 134.07419 354.3545 138.57385 356.58632 C 140.6617 357.63024 143.07351 358.89015 143.97344 359.3941 C 145.9533 360.47403 146.70924 360.51003 147.2132 359.5741 C 147.50118 359.03414 147.42918 358.71016 146.85323 358.1342 C 146.45726 357.73823 145.7733 357.41426 145.30534 357.41426 C 144.29742 357.41426 138.24988 354.0665 135.2981 351.90667 C 134.0382 350.97075 132.81429 350.2148 132.5623 350.2148 C 131.87836 350.2148 131.98635 349.74684 132.85028 348.63092 C 133.49823 347.803 133.57023 347.479 133.24625 346.2191 C 133.06627 345.42716 132.95828 344.52723 132.99427 344.16726 C 133.06627 343.8433 133.24625 342.94335 133.35425 342.1874 C 133.46224 341.46746 133.67822 340.8555 133.78621 340.8555 C 133.9302 340.8555 134.43416 341.35947 134.97412 341.97143 Z"
                        fill="#ff0000"/>
               </g>
            </g>
            <g>
               <path d="M 223.34745 359.2861 C 224.46337 360.978 231.01487 367.4935 231.59083 367.4935 C 231.77081 367.4935 232.52676 367.88947 233.2467 368.39343 C 235.8025 370.1573 241.67007 371.09323 250.20142 371.09323 C 259.12875 371.05723 262.2605 372.02916 263.16044 375.05293 C 263.48442 376.16884 263.41242 376.5648 262.4405 378.50867 C 261.2526 380.9565 259.8487 382.1804 256.9329 383.4043 C 255.27704 384.12424 254.4131 384.19624 250.16542 384.19624 C 247.46563 384.16024 244.72984 383.98025 244.0459 383.76427 C 241.1301 382.79234 228.1351 382.1084 223.16746 382.61236 C 221.69158 382.79234 217.5519 383.00833 213.98816 383.1523 L 207.50865 383.4043 L 205.99676 381.8564 C 204.3049 380.09255 204.0169 378.72465 204.73686 375.73688 C 205.4208 373.0011 206.28474 364.32574 206.03276 362.77785 L 205.78078 361.37396 L 207.22067 361.37396 C 208.69656 361.37396 209.63249 362.0579 210.53242 363.7498 C 210.7484 364.18175 211.64833 364.9737 212.51227 365.47765 C 216.004 367.5295 217.76787 366.1976 217.76787 361.44595 C 217.76787 358.85415 217.76787 358.85415 218.7758 358.85415 C 219.31575 358.81815 220.1437 358.60217 220.64765 358.3142 C 221.97955 357.55825 222.26753 357.63024 223.34745 359.2861 Z"/>
            </g>
            <g>
               <path d="M 132.85028 366.70156 C 132.99427 367.3495 133.35425 368.17745 133.67822 368.5374 C 134.0022 368.8974 134.25418 369.58134 134.25418 370.0493 C 134.25418 370.87724 135.87406 372.5331 136.666 372.5331 C 138.17788 372.5331 139.97775 371.5252 141.66962 369.76133 L 143.57747 367.7455 L 145.8453 367.78148 C 149.26504 367.78148 149.98499 368.17745 150.30897 370.2653 C 150.41696 371.2012 150.74093 372.4971 151.02891 373.14507 C 151.71286 374.87294 152.6128 378.58066 152.6128 379.76857 C 152.6128 381.28046 151.74886 383.1883 150.74093 383.80027 C 150.12898 384.19624 148.5811 384.34023 144.5134 384.4122 C 141.56163 384.4122 137.42194 384.7002 135.3341 384.98818 C 133.24625 385.27616 129.86251 385.7441 127.77467 386.0321 C 124.03095 386.57206 113.33976 386.82404 112.61981 386.35607 C 112.40383 386.2481 108.7321 386.1041 104.44843 386.0681 C 97.89692 385.9961 96.67302 385.8881 96.78101 385.45614 C 97.89692 380.9565 99.19283 378.1487 101.02869 376.42082 C 102.2526 375.2689 105.49235 374.47697 106.57227 375.08892 C 106.96824 375.2689 108.22814 375.4129 109.34406 375.3769 C 110.45997 375.3409 112.54782 375.4129 113.91571 375.5929 L 116.47152 375.84487 L 119.24331 373.46905 C 120.7912 372.17314 122.33908 370.94924 122.69905 370.73325 C 123.05902 370.55327 124.21094 369.25736 125.25486 367.85347 L 127.12672 365.29766 L 129.86251 365.40566 L 132.5983 365.51365 L 132.85028 366.70156 Z"/>
            </g>
            <g>
               <g  id="outline-5">
                  <path 
                        d="M 168.99155 112.59675 C 166.79572 113.2807 163.77195 115.54852 163.77195 116.44845 C 163.77195 117.38438 165.28383 119.40023 166.29176 119.8322 C 168.2716 120.66014 172.3393 119.22025 174.35515 116.98841 C 174.9311 116.34046 174.9311 116.19647 174.17516 114.5406 C 173.7432 113.60467 173.20324 112.70474 172.98725 112.56075 C 172.51929 112.23677 169.99948 112.23677 168.99155 112.59675 Z"
                        fill="black"/>
               </g>
            </g>
            <g>
               <g  id="feature-12">
                  <path 
                        d="M 172.3393 115.69251 C 173.09524 116.44845 168.77557 118.28432 167.37168 117.85235 C 166.32776 117.52837 166.47174 117.0964 168.01963 116.05248 C 169.06355 115.29654 169.6395 115.15255 170.71942 115.29654 C 171.47537 115.36854 172.2313 115.54852 172.3393 115.69251 Z"
                        fill="#ff0000"/>
               </g>
            </g>
            <g>
               <g  id="outline-6">
                  <path 
                        d="M 188.3941 112.99272 C 187.74614 113.1367 186.66622 113.60467 185.94627 114.03664 C 184.2544 115.11656 184.1464 116.70044 185.6943 118.17632 C 186.63022 119.07626 186.8822 119.14825 188.3221 118.89627 C 189.15003 118.75228 189.97797 118.64429 190.12196 118.68029 C 190.69792 118.82428 194.40564 116.95242 194.58562 116.44845 C 194.7296 116.12448 194.26165 115.22455 193.4697 114.25262 C 192.02981 112.52475 191.16588 112.30877 188.3941 112.99272 Z"
                        fill="black"/>
               </g>
            </g>
            <g>
               <g  id="feature-13">
                  <path 
                        d="M 190.7699 115.33254 C 191.56185 116.16048 191.56185 116.23247 190.9139 116.48445 C 190.55393 116.62844 189.51 116.73643 188.61007 116.77243 C 186.59423 116.77243 186.41424 115.98049 188.2501 115.08056 C 189.83398 114.25262 189.76199 114.25262 190.7699 115.33254 Z"
                        fill="#ff0000"/>
               </g>
            </g>
            <g>
               <g  id="outline-7">
                  <path 
                        d="M 211.39635 280.45207 C 210.6404 281.352 210.17244 287.21956 210.49642 291.71922 C 210.8924 296.83083 211.61234 298.84668 214.31213 302.23043 C 215.968 304.28227 216.22 304.49825 217.4799 304.49825 C 218.34383 304.49825 218.8478 304.31827 218.8478 304.0303 C 218.8478 303.7783 217.94786 302.6264 216.83194 301.4385 C 215.71603 300.25058 214.49212 298.6307 214.16814 297.83876 C 213.05223 295.39094 212.58426 291.21526 212.90824 286.7516 C 213.3762 280.1641 213.3762 280.2001 212.51227 280.0921 C 212.1163 280.0201 211.57634 280.2001 211.39635 280.45207 Z"
                        fill="black"/>
               </g>
            </g>
            <g>
               <path d="M 152.18238 279.85653 C 152.03839 279.28058 150.74249 276.3648 149.2666 273.34103 C 147.79071 270.31725 145.28457 265.11893 145.28457 264.83096 C 145.28457 263.24708 148.76264 267.76145 151.9664 272.4771 C 156.32206 278.7766 156.46605 276.58078 152.18238 269.12934 C 149.01462 263.54977 149.00662 261.73512 148.83533 260.48156 C 148.69457 259.05253 148.5779 257.32774 150.64056 259.86248 C 152.2691 261.8537 153.49195 264.50698 154.60787 264.147 C 156.15575 263.67904 156.22775 262.63512 154.78785 259.1074 C 152.52003 253.4918 152.12405 252.3039 152.12405 251.33197 C 152.12405 250.64803 151.6201 249.8561 150.43218 248.66818 C 148.12836 246.40035 145.64454 245.10445 142.3328 244.3845 C 140.78491 244.02453 139.41701 243.55656 139.27303 243.34058 C 139.09304 243.0886 138.40909 242.51264 137.68914 242.00868 C 136.9692 241.50472 135.6373 240.20881 134.73737 239.1289 C 133.80144 238.04898 132.36155 236.3571 131.49761 235.38518 C 130.66967 234.44925 129.69775 233.11735 129.37377 232.4334 C 129.0138 231.78545 127.96988 230.63354 127.06995 229.8776 C 126.17001 229.12165 124.29816 227.0698 122.89426 225.34194 C 120.19447 221.9942 117.38668 219.54638 112.81502 216.5946 C 111.30314 215.58667 109.71926 214.36277 109.32329 213.8588 L 108.56734 212.92288 L 109.61127 211.51898 C 110.5472 210.18708 113.75095 207.77526 115.29884 207.1993 C 116.27076 206.83933 119.51052 204.39152 120.80642 203.05962 C 122.78627 201.00777 126.24201 195.71617 127.93388 192.15244 C 128.50984 190.96453 129.26578 189.77662 129.58976 189.48864 C 130.88566 188.40873 131.6776 186.1409 131.78559 183.4051 L 131.85759 180.7413 L 129.69775 179.08543 C 128.50984 178.1495 125.99003 175.95367 124.15417 174.1538 C 122.28231 172.38994 120.48244 170.77006 120.15847 170.59007 C 119.7985 170.41009 119.36653 169.97812 119.11455 169.69014 C 118.57459 168.9342 117.71065 169.43816 116.55874 171.13003 C 116.09078 171.77798 114.14692 173.97382 112.23907 175.98966 C 110.33121 178.00551 108.09938 180.41733 107.30744 181.38926 C 106.5155 182.32519 104.96762 184.01706 103.8877 185.13297 C 100.35996 188.7327 97.04821 192.6204 97.04821 193.16037 C 97.04821 193.44835 96.22028 194.78025 95.17636 196.14814 C 91.57663 200.97178 91.07266 201.9077 89.52478 206.47936 C 87.25695 213.10286 87.40094 214.61475 90.6767 218.82643 C 91.43264 219.79836 93.2325 222.21017 94.70839 224.19002 C 97.69616 228.25772 98.5961 229.22964 102.66379 232.90137 C 104.21167 234.34126 106.40751 236.3211 107.48743 237.32903 C 108.56734 238.37295 110.69118 240.06483 112.16707 241.10875 C 113.64296 242.18867 115.29884 243.44857 115.8028 243.91653 C 117.81865 245.8604 121.52637 248.09222 124.80212 249.35212 C 128.65383 250.828 130.84966 252.1599 130.92166 253.09584 C 130.95765 253.41982 131.02965 254.35575 131.06565 255.1477 C 131.17364 257.34352 133.40276 263.05113 136.67851 267.2268 C 137.65044 268.48672 139.20103 269.5826 140.13696 271.67044 C 141.10889 273.75828 143.36304 277.8767 143.54303 277.8407 C 144.011 277.6607 143.79501 276.2568 143.11106 274.9249 C 142.49911 273.773 139.525 266.8468 139.525 266.41484 C 139.525 266.23485 139.705 266.12686 139.88498 266.12686 C 140.10096 266.12686 141.46886 268.64667 142.94475 271.70644 C 144.70861 275.37816 147.10676 279.74854 147.46673 279.74854 C 148.22268 279.74854 148.18668 279.28058 147.32274 277.6607 C 145.91885 275.0329 142.3688 266.7388 142.54878 266.23485 C 142.83676 265.4789 143.41271 265.98287 144.31264 267.71074 C 144.74461 268.57467 145.96852 270.9505 147.04844 273.00234 C 148.8843 276.60207 151.42643 280.82846 152.07439 280.82846 C 152.25437 280.82846 152.18238 279.85653 152.18238 279.85653 Z"/>
            </g>
            <g>
               <g  id="outline-8">
                  <path 
                        d="M 131.02965 248.2362 C 130.59768 247.69625 129.44577 246.32835 128.43784 245.21244 C 127.03395 243.66455 126.67398 243.0886 127.03395 242.80062 C 127.7179 242.22466 128.72582 242.83662 131.24563 245.39242 C 133.18948 247.40827 133.51346 247.87624 133.18948 248.4162 C 132.57753 249.38812 131.82159 249.31613 131.02965 248.2362 Z"
                        fill="black"/>
               </g>
            </g>
            <g>
               <g  id="outline-9">
                  <path 
                        d="M 133.72944 244.96046 C 133.15349 244.2045 132.36155 243.30458 132.03757 242.9086 C 130.45369 241.07275 130.4177 240.96476 130.88566 240.3888 C 131.6416 239.48887 132.54153 239.77685 133.58545 241.21674 C 134.16141 241.93668 135.06134 243.0526 135.6373 243.66455 C 136.75322 244.85246 136.71722 245.7884 135.5293 246.07637 C 135.06134 246.22036 134.52138 245.8604 133.72944 244.96046 Z"
                        fill="black"/>
               </g>
            </g>
            <g>
               <g  id="outline-10">
                  <path 
                        d="M 102.91577 225.6659 C 101.97984 224.442 100.71994 223.3621 99.53203 222.71414 C 97.37219 221.56222 96.86823 220.5543 98.23612 220.23032 C 100.21597 219.72636 107.09146 225.8459 106.01154 227.1418 C 105.2556 228.00574 104.42766 227.60977 102.91577 225.6659 Z"
                        fill="black"/>
               </g>
            </g>
            <g>
               <g  id="outline-11">
                  <path 
                        d="M 106.87547 203.81556 C 105.97554 202.91563 109.32329 196.47212 112.63504 192.7284 C 114.5069 190.60456 117.60266 188.01276 118.28661 188.01276 C 119.07855 188.01276 118.57459 189.45265 117.49467 190.35258 C 115.04685 192.33243 112.13107 196.18414 110.4752 199.53189 C 108.20737 204.10354 107.73941 204.6795 106.87547 203.81556 Z"
                        fill="black"/>
               </g>
            </g>
            <g>
               <g  id="feature-14">
                  <path 
                        d="M 205.49242 143.51397 C 205.47841 143.50232 205.46594 143.48955 205.45506 143.47562 C 205.44124 143.48704 205.42751 143.49842 205.41388 143.50977 C 205.3919 143.50852 205.36956 143.50721 205.34683 143.50584 C 204.08692 143.43384 204.05092 143.46984 203.65495 145.01772 C 203.187 146.96157 202.68303 147.21356 201.53112 145.98965 C 200.3432 144.69375 199.55126 144.76574 199.55126 146.13364 C 199.55126 147.8975 197.53542 153.2251 196.20352 154.88098 C 195.55557 155.70891 194.69163 157.04081 194.33166 157.79676 C 193.9357 158.5527 192.63979 160.28057 191.45188 161.57647 C 190.26397 162.87237 188.93207 164.45625 188.5001 165.0682 C 188.06813 165.64416 186.88022 166.6161 185.8003 167.15605 C 184.75638 167.732 183.2085 168.91992 182.34456 169.78385 C 180.5087 171.6917 179.75276 171.61971 178.88882 169.42388 C 178.06089 167.30004 174.46116 163.19635 171.2214 160.67654 C 169.74552 159.52463 167.87366 158.04874 167.08172 157.40079 C 166.32577 156.75283 164.7779 155.67292 163.62598 154.98897 C 162.0781 154.05304 161.43014 153.40509 161.07017 152.43316 C 160.7822 151.60522 160.38622 151.17326 160.02625 151.20925 C 158.87434 151.31725 158.55036 151.17326 158.33438 150.41731 C 158.19039 149.98535 157.68643 149.08541 157.21846 148.40147 C 156.7505 147.68152 156.35453 146.81759 156.35453 146.42162 C 156.35453 145.20241 154.47465 145.03467 147.6273 145.79847 C 145.76329 145.51968 141.80925 145.15039 139.2136 145.95194 C 136.22596 146.83525 132.51477 148.4785 132.26279 148.91048 C 131.54284 150.20638 127.36716 153.66212 124.27139 155.49798 C 121.17562 157.33384 116.89195 161.22155 116.89195 162.22947 C 116.89195 162.55345 117.5039 163.59737 118.29584 164.5333 C 119.05179 165.43323 119.77173 166.54914 119.91572 167.0171 C 120.05971 167.44908 120.77965 168.13302 121.4996 168.493 C 122.25554 168.85297 123.55145 170.00488 124.41538 171.0488 C 125.27931 172.09273 126.46723 173.20864 127.07918 173.56861 C 127.65514 173.92859 128.80705 174.86452 129.63499 175.62046 C 130.42693 176.4124 131.61484 177.34833 132.1908 177.7083 C 132.80275 178.06827 133.70268 178.78822 134.24264 179.25618 L 135.21456 180.15612 L 135.93451 178.9322 C 136.36648 178.24826 136.69045 177.45632 136.69045 177.13234 C 136.69045 176.80837 136.94243 176.3044 137.26641 176.05243 C 137.59039 175.80045 138.20234 174.82852 138.6343 173.92859 C 138.92454 173.31587 139.16422 172.90538 139.49245 172.57419 C 140.30013 173.54893 141.04407 174.72212 141.77563 176.15537 C 142.67556 177.88324 143.3955 179.57511 143.3955 179.8631 C 143.3955 180.15107 143.79148 181.051 144.29544 181.87894 C 144.7634 182.74287 145.33936 184.29076 145.59134 185.33468 C 145.80732 186.4146 146.38328 188.03447 146.81525 188.9344 C 147.28321 189.83434 147.75118 191.16624 147.89517 191.85018 C 148.25514 193.79404 149.51504 197.28577 150.41498 198.86965 C 150.88294 199.6616 151.3509 200.9575 151.4949 201.74944 C 151.71088 203.00934 153.72672 206.82505 154.98663 208.44493 C 155.92256 209.59684 156.7865 209.77683 159.4143 209.34486 C 161.07017 209.05689 163.94995 209.0209 167.69367 209.16488 C 175.61307 209.45286 185.65631 209.30887 188.03213 208.8049 C 189.11205 208.58892 193.17975 208.37294 197.03145 208.33694 C 200.88316 208.30094 206.49874 208.01296 209.45052 207.689 L 214.8501 207.11303 L 214.8861 204.7732 C 214.8861 203.5133 215.0661 201.74944 215.31807 200.8495 C 216.03802 198.2217 217.18993 192.28215 217.7299 188.61043 C 218.41384 183.93078 219.78174 178.67518 221.07764 175.93939 C 221.6896 174.67948 222.40954 173.0956 222.73351 172.41165 C 223.0215 171.7277 223.52545 170.75578 223.81343 170.25182 C 223.8879 170.12148 223.98888 169.92131 224.10636 169.6725 C 224.69032 169.37437 225.53878 168.93266 226.24828 168.30698 C 228.0367 166.70817 228.88602 165.49098 230.99863 161.62723 C 233.23465 157.54085 233.57 156.62083 233.62754 154.73194 C 233.7426 150.95415 233.20247 149.72345 230.114 146.52724 C 228.58463 144.98103 221.13493 141.77122 215.9794 140.9993 C 213.67922 140.65491 208.3817 143.21963 206.28146 143.57084 C 206.28724 143.53925 206.29305 143.50751 206.29886 143.47562 L 206.29886 143.47562 C 206.11223 143.52782 205.8569 143.53234 205.49243 143.51397 Z"
                        fill="#ff0000"/>
               </g>
            </g>
            <g>
               <g  id="outline-12">
                  <path 
                        d="M 214.02415 165.80073 C 213.4842 166.95264 212.80025 168.32054 212.51227 168.8605 C 211.61234 170.51637 210.38843 179.3357 210.49642 183.3674 C 210.6404 188.51501 211.57634 190.78284 213.2682 190.17089 C 213.73618 189.9909 213.80817 189.66693 213.62818 188.803 C 212.1163 181.38755 212.62026 172.46023 214.8521 167.02464 C 215.896 164.57682 216.004 163.74888 215.28406 163.74888 C 215.10407 163.74888 214.56411 164.68481 214.02415 165.80073 Z"
                        fill="black"/>
               </g>
            </g>
            <g>
               <g  id="outline-13">
                  <path 
                        d="M 151.2449 171.3803 C 150.56095 172.06425 150.70494 172.46023 152.10883 173.97211 C 154.91662 177.03188 156.5365 181.06358 157.47242 187.3271 C 158.33636 193.23066 158.33636 193.33865 158.76833 193.8786 C 159.2363 194.41857 160.89217 194.52656 160.89217 193.9506 C 160.89217 193.77062 160.5682 192.00675 160.20822 190.0989 C 159.81225 188.19104 159.41628 185.56324 159.27229 184.30333 C 159.1643 183.04343 158.66033 181.24356 158.22837 180.34363 C 157.7604 179.4437 157.29244 178.2198 157.14845 177.64383 C 156.71648 175.95196 155.1686 173.57614 153.58472 172.20824 C 151.96484 170.80435 151.85685 170.76835 151.2449 171.3803 Z"
                        fill="black"/>
               </g>
            </g>
            <g>
               <g  id="outline-14">
                  <path 
                        d="M 183.35447 177.21187 C 183.17448 177.67983 183.35447 187.3271 183.75044 199.02622 C 183.93043 204.4618 184.54238 207.1256 185.5503 207.1256 C 186.66622 207.1256 186.9902 206.08169 186.52223 204.13783 C 186.27025 203.2019 185.98227 200.5381 185.91028 198.27028 C 185.4783 187.72307 184.90235 178.29178 184.61437 177.53584 C 184.2544 176.59991 183.64245 176.45592 183.35447 177.21187 Z"
                        fill="black"/>
               </g>
            </g>
         </g>
      </g>
   </g>
</svg>