<?xml version="1.0" encoding="UTF-8" standalone="no"?>
<!DOCTYPE svg PUBLIC "-//W3C//DTD SVG 1.1//EN" "http://www.w3.org/Graphics/SVG/1.1/DTD/svg11.dtd">
<svg width="100%" height="100%" viewBox="0 0 2000 300" version="1.1" xmlns="http://www.w3.org/2000/svg" xmlns:xlink="http://www.w3.org/1999/xlink" xml:space="preserve" xmlns:serif="http://www.serif.com/" style="fill-rule:evenodd;clip-rule:evenodd;stroke-linecap:round;stroke-linejoin:round;stroke-miterlimit:1.5;">
    <g transform="matrix(1,0,0,1.5,-1.13687e-13,-150)">
        <path d="M40,300L40,200L0,200L0,100L2000,100L2000,200L1960,200L1960,300L1820,300L1823,200L1680,200L1680,300L1520,300L1521.54,200L1380,200L1380,300L1220,300L1222.34,200L1080,200L1080,300L920,300L923,200L780,200L780,300L620,300L625.21,200L480,200L480,300L320,300L323,200L180,200L180,300L40,300Z" style="fill:rgb(255,0,0);stroke:rgb(128,128,128);stroke-width:3.92px;"/>
    </g>
</svg>
