<?xml version="1.0" encoding="UTF-8" standalone="no"?>
<!-- Created with Inkscape (http://www.inkscape.org/) -->
<svg xmlns:dc="http://purl.org/dc/elements/1.1/" xmlns:cc="http://creativecommons.org/ns#" xmlns:rdf="http://www.w3.org/1999/02/22-rdf-syntax-ns#" xmlns:svg="http://www.w3.org/2000/svg" xmlns="http://www.w3.org/2000/svg" xmlns:sodipodi="http://sodipodi.sourceforge.net/DTD/sodipodi-0.dtd" xmlns:inkscape="http://www.inkscape.org/namespaces/inkscape" width="292.46997" height="458.8992" id="svg3038" version="1.1" inkscape:version="0.48.4 r9939" sodipodi:docname="New document 2">
  <defs id="defs3040"/>
  <sodipodi:namedview id="base" pagecolor="#ffffff" bordercolor="#666666" borderopacity="1.0" inkscape:pageopacity="0.0" inkscape:pageshadow="2" inkscape:zoom="4.8638131" inkscape:cx="152.72014" inkscape:cy="365.30931" inkscape:document-units="px" inkscape:current-layer="layer1" showgrid="false" fit-margin-top="0" fit-margin-left="0" fit-margin-right="0" fit-margin-bottom="0"/>
  <metadata id="metadata3043">
    <rdf:RDF>
      <cc:Work rdf:about="">
        <dc:format>image/svg+xml</dc:format>
        <dc:type rdf:resource="http://purl.org/dc/dcmitype/StillImage"/>
        <dc:title/>
        <dc:creator>
          <cc:Agent>
            <dc:title>http://commons.wikimedia.org/wiki/User:J_a1</dc:title>
          </cc:Agent>
        </dc:creator>
      </cc:Work>
    </rdf:RDF>
  </metadata>
  <g inkscape:label="Layer 1" inkscape:groupmode="layer" id="layer1">
    <path inkscape:connector-curvature="0" style="fill:#000000;fill-rule:evenodd;stroke:none" d="m146.6,115.7 12.8,55.5 8.531,53.39   c0.161,-2.184 0.2414,-4.443 0.3219,-6.777   l2.495,-10.92   c1.771,14.16 4.668,25.75 8.612,35.24 6.439,-7.455 10.38,-20.18 11.91,-38.1 2.012,19.88 5.473,35.47 10.46,46.54 5.714,-6.476 9.738,-16.49 11.43,-31.7 1.288,33.89 5.392,59.87 11.99,78.84 6.841,-10.47 11.19,-24.78 13.04,-42.7 1.61,34.72 -4.426,69.51 -2.978,83.14 7.646,-7.832 13.6,-21.54 17.87,-40.97 -4.024,28.31 -2.978,53.09 4.024,73.5 10.87,-14.01 20.76,-58.81 22.94,-97.37 2.093,3.464 4.668,7.079 7.968,10.84 -0.7243,-27.94 -1.207,-57.76 -4.426,-78.99 2.817,3.69 5.795,6.326 8.933,7.832   L280.1,131.2   c3.863,3.012 7.968,4.594 12.23,5.573 -16.02,-35.54 -8.37,-69.13 -24.22,-105.2 -6.599,-16.04 -14,-22.37 -24.63,-20.78 -21.89,7.681 -11.99,38.78 -19.4,57.01 -17.54,3.765 -34.53,14.76 -50.94,36.15 -4.024,-0.1506 -8.29,0.3012 -12.64,1.506 -15.21,-0.6024 -18.11,19.2 -13.92,10.24   z " id="path174"/>
    <path inkscape:connector-curvature="0" style="fill:#ffff00;fill-rule:evenodd;stroke:none" d="m274.9,65.81   c1.851,10.17 3.3,21.39 4.426,33.44 1.207,12.12 3.944,23.42 8.048,34.04 -3.944,-2.259 -8.209,-5.196 -12.47,-8.585   l0,-58.89 0,0   z m0,236.2 0,-38.48   c1.207,2.334 2.495,4.669 3.783,6.928 -1.127,11.22 -2.334,21.84 -3.783,31.55   l0,0   z m0,-44.13   c3.058,6.853 6.68,13.33 10.78,19.2 -1.368,-24.7 -2.656,-49.47 -3.944,-74.25 -2.334,-1.883 -4.587,-4.443 -6.841,-7.38   l0,24.55   c0.7243,5.949 1.449,11.9 2.173,17.85 -0.7243,-4.594 -1.449,-9.187 -2.173,-13.86   l0,33.89 0,0   z m0,-66.42   c4.426,6.627 9.416,11.97 14.65,16.57 -3.863,-26.06 -7.807,-52.11 -11.75,-78.17 -0.9658,-0.753 -1.851,-1.506 -2.897,-2.334   l0,36.07   c0.4024,2.485 0.8048,5.045 1.207,7.53 -0.4024,-1.958 -0.8048,-3.841 -1.207,-5.723   l0,26.06   z M262.7,25.82   c5.312,10.09 9.336,23.72 12.23,39.99   l0,58.89   c-4.185,-3.539 -8.451,-7.53 -12.23,-11.82   l0,-87.05 0,0   z M274.9,127.6   c-2.093,-1.883 -4.266,-3.916 -6.519,-6.25 2.173,14.08 4.346,28.24 6.519,42.32   l0,-36.07 0,0   z m0,37.88   c-3.058,-15.44 -6.197,-30.87 -9.255,-46.24 -1.046,-1.28 -2.012,-2.485 -2.978,-3.69   l0,0.5271   c3.541,16.27 2.575,31.85 0,47.29   l0,1.581   c3.3,10.69 7.485,19.35 12.23,26.58   l0,-26.06 0,0   z m0,30.05 0,24.55   c-1.127,-9.94 -2.334,-19.88 -3.541,-29.82 1.127,1.883 2.334,3.615 3.541,5.271   l0,0   z m0,28.54 0,33.89   c-5.714,-13.1 -9.738,-27.94 -12.23,-44.13   l0,-42.4   c2.173,5.573 4.426,11.22 6.599,16.79 1.932,11.97 3.783,23.95 5.634,35.84   l0,0   z m0,39.53   c-3.219,-6.401 -5.714,-13.18 -7.485,-20.18 1.61,20.11 0.4024,41.19 -2.173,62.8 0.8853,-20.86 1.529,-42.17 0.5634,-67.02 -1.046,-4.292 -2.093,-8.585 -3.139,-12.95   l0,129.7   c4.99,-12.58 9.014,-31.03 12.23,-53.92   l0,-38.48 0,0   z m-12.23,-115.8 0,-12.8   c0.2414,4.518 0.2414,8.811 0,12.8   z m-3.219,-127.6   c0.6439,0.979 1.288,2.033 1.851,3.163 0.4024,0.8283 0.8853,1.657 1.368,2.485   l0,87.05   c-1.127,-1.28 -2.173,-2.56 -3.219,-3.841   l0,-88.86 0,0   z m3.219,95.34 0,0.5271   c-0.0805,-0.2259 -0.0805,-0.5271 -0.161,-0.753 0.0805,0.0753 0.0805,0.1506 0.161,0.2259   l0,0   z m0,19.43   c-0.3219,-6.551 -1.207,-13.63 -2.656,-21.54 -0.161,-0.3012 -0.4024,-0.6024 -0.5634,-0.9036   l0,47.52   c0.4829,0.6024 0.8853,1.28 1.368,1.883 0.8853,-4.368 1.529,-9.037 1.851,-14.16   l0,-12.8 0,0   z m0,28.39 0,1.581   c-0.0805,-0.2259 -0.0805,-0.3765 -0.161,-0.5271 0.0805,-0.3765 0.0805,-0.6777 0.161,-1.054   l0,0   z m0,8.058   c-1.046,-2.711 -2.173,-5.422 -3.219,-8.133   l0,12.35   c0.3219,13.4 1.368,26.21 3.219,38.18   l0,-42.4 0,0   z m0,54.82 0,129.7   c-1.046,2.56 -2.093,4.895 -3.219,7.003   l0,-110.2   c1.046,-10.54 1.851,-21.01 2.093,-31.03 0.4024,1.506 0.8048,3.012 1.127,4.518   l0,0   z m-3.219,-3.087   c0.0805,-1.581 0.0805,-3.238 0.161,-4.895 -0.0805,-0.4518 -0.0805,-0.9789 -0.161,-1.506   l0,6.401   z M252.9,99.4   c-0.5634,-2.56 -1.207,-4.819 -1.851,-6.928   l0,-79.07   c3.139,1.054 6.117,3.313 8.451,6.777   l0,88.86   c-2.495,-3.087 -4.668,-6.326 -6.599,-9.639   l0,0   z m6.599,13.1   c-2.817,-4.594 -5.634,-9.262 -8.451,-13.86   l0,11.22   c2.253,7.003 3.541,16.72 4.507,27.56 -1.449,-7.003 -2.817,-13.93 -4.507,-19.65   l0,29.22   c2.495,4.292 5.312,8.66 8.451,13.03   l0,-47.52 0,0   z m0,50.76 0,12.35   c-0.0805,-4.142 -0.161,-8.434 -0.0805,-12.73 0,0.1506 0.0805,0.2259 0.0805,0.3765   l0,0   z m0,53.47 0,6.401   c-0.7243,26.06 -3.219,50.6 -8.451,72.82   l0,-49.78   c2.334,-24.55 1.932,-52.94 0,-77.79   l0,-16.27 5.956,9.187   c0.0805,17.62 0.9658,36.15 2.495,55.42   l0,0   z m0,36   c-3.944,40.06 -10.87,82.31 -1.771,113.3 0.6439,-0.9036 1.207,-1.958 1.771,-3.012   l0,-110.2   z M251,92.47   c-3.541,-10.77 -8.29,-16.49 -8.772,-28.24 -1.529,17.24 4.748,17.24 6.036,28.39 1.529,10.54 -2.575,18.68 -8.772,20.78   l0,-98.2   c3.541,-2.485 7.646,-3.087 11.51,-1.807   l0,79.07 0,0   z m0,6.175   c-0.2414,-0.4518 -0.4829,-0.8284 -0.7243,-1.205 0.161,2.862 -0.161,5.573 -0.8853,8.283 0.5634,1.205 1.127,2.636 1.61,4.142   l0,-11.22 0,0   z m0,19.13   c-1.046,-3.615 -2.173,-6.702 -3.461,-9.037 -2.253,3.765 -4.99,5.798 -8.048,7.003   l0,2.334   c1.69,9.262 5.714,18.98 11.51,28.92   l0,-29.22 0,0   z m0,34.34 0,16.27   c-0.4829,-6.702 -1.127,-13.1 -1.851,-19.13   l1.851,2.862 0,0   z m0,94.06 0,49.78   c-0.2414,1.054 -0.5634,2.184 -0.8048,3.238 -2.897,13.25 -6.599,22.14 -10.7,29.14   l0,-32.23   c1.69,-26.88 1.529,-69.51 0,-99.4   l0,-35.62   c1.851,-8.283 2.495,-17.92 1.932,-28.62 1.851,4.819 3.702,9.187 5.714,13.33 3.944,36.37 4.105,72.97 2.817,109.8 0.4024,-3.087 0.7243,-6.25 1.046,-9.413   l0,0   z m-11.51,-96.24 0,-17.17   c0.4829,6.175 0.4829,11.9 0,17.17   z m0,-36.52   c-0.6439,0.2259 -1.368,0.3765 -2.093,0.4518   l0,-96.84   c0.6439,-0.6777 1.368,-1.28 2.093,-1.807   l0,98.2 0,0   z m0,2.334 0,2.334   c-0.0805,-0.753 -0.2414,-1.506 -0.3219,-2.184 0.0805,-0.0753 0.2414,-0.0753 0.3219,-0.1506   l0,0   z m0,17.02 0,17.17   c-0.4024,4.443 -1.127,8.509 -2.093,12.43   l0,-42.25   c0.4829,1.958 0.8853,3.916 1.368,5.874 0.3219,2.334 0.5634,4.594 0.7243,6.777   l0,0   z m0,28.31   c-0.5634,2.711 -1.288,5.271 -2.093,7.681   l0,2.334   c0.8853,6.1 1.529,15.06 2.093,25.6   l0,-35.62 0,0   z m0,135 0,32.23   c-0.7243,1.205 -1.368,2.41 -2.093,3.464   l0,-8.208   c0.6439,-7.907 1.207,-15.89 1.851,-23.87 0.0805,-1.13 0.161,-2.41 0.2414,-3.615   l0,0   z m-2.093,-52.19 0,-49.47   c0.9658,18.3 1.046,34.87 0,49.47   z m0,-130.1   c-2.414,0.2259 -4.99,-0.3012 -7.726,-1.883   l0,-66.19   c0.4024,-5.874 0.4829,-11.07 1.61,-16.79 1.207,-5.271 3.38,-9.262 6.117,-11.97   l0,96.84 0,0   z m0,6.25   c-0.3219,-1.355 -0.6439,-2.711 -0.9658,-3.991 -2.253,-0.6777 -4.507,-1.355 -6.76,-2.033   l0,7.907   c2.495,6.853 2.495,13.18 2.817,19.58 -0.8048,-4.744 -1.449,-9.639 -2.817,-13.86   l0,29.9   c1.851,3.238 3.944,6.476 6.197,9.714 0.5634,-1.581 1.046,-3.238 1.529,-4.97   l0,-42.25 0,0   z m0,48.65 0,2.334   c-0.0805,-0.6024 -0.161,-1.13 -0.2414,-1.657 0.0805,-0.2259 0.161,-0.4518 0.2414,-0.6777   l0,0   z m0,25.68 0,49.47   c-1.127,15.66 -3.622,28.92 -7.726,39.31   l0,-66.64   c0.3219,5.422 0.6439,10.84 0.8853,16.19 0.4024,-18.6 0.4024,-37.35 -0.8853,-56.33   l0,-14.38   c2.012,2.636 3.944,5.271 5.956,7.907 0.7243,8.434 1.288,16.64 1.771,24.47   l0,0   z m0,129.1 0,8.208   c-0.2414,0.3765 -0.4829,0.753 -0.7243,1.13 0.2414,-3.087 0.4829,-6.175 0.7243,-9.338   z M229.7,112   c-1.61,-0.9036 -3.3,-2.259 -4.99,-3.991 4.105,13.33 -1.529,19.05 -8.209,18.3   l0,-53.92   c2.495,-0.8283 4.909,-1.431 7.324,-1.657 -0.5634,1.581 -1.127,3.238 -1.61,4.895 -1.288,2.711 0.2414,3.389 1.61,0.3012 4.426,-12.95 5.392,-22.14 5.875,-30.12   l0,66.19 0,0   z m0,2.109   c-0.5634,-0.1506 -1.207,-0.3012 -1.771,-0.5271 0.3219,1.431 0.4024,3.012 0.2414,4.895 0.5634,1.205 1.127,2.41 1.529,3.539   l0,-7.907 0,0   z m0,13.63   c-0.6439,-1.958 -1.529,-3.765 -2.575,-5.271 -2.012,3.238 -4.426,5.573 -7.565,5.497 0.5634,9.338 4.105,19.28 10.14,29.67   l0,-29.9 0,0   z m0,34.34 0,14.38   c-0.3219,-5.422 -0.8048,-10.84 -1.368,-16.27 0.4024,0.6024 0.8853,1.28 1.368,1.883   l0,0   z m0,54.52 0,66.64   c-1.207,3.238 -2.575,6.1 -4.185,8.735 -3.783,-12.5 -6.841,-29.52 -9.014,-52.64   l0,-64.39   c3.461,-7.832 5.151,-17.55 4.507,-29.82 1.771,3.765 3.541,7.53 5.312,11.37 1.127,20.03 2.253,40.06 3.38,60.09   l0,0   z m-13.2,-49.32 0,-39.01   c0.3219,0 0.6439,0.0753 0.9658,0.0753 2.414,16.34 1.851,29.07 -0.9658,38.93   z m0,-40.97   c-3.058,-0.3765 -6.358,-2.033 -9.014,-4.97   l0,-44.96   c3.058,-1.657 6.117,-3.012 9.014,-3.991   l0,53.92 0,0   z m0,1.958   c-3.219,-0.3765 -6.278,-1.506 -9.014,-3.991   l0,6.702   c3.38,8.811 4.024,16.79 2.656,24.25 -0.5634,-5.949 -1.288,-11.82 -2.656,-17.32   l0,31.4   c1.61,2.711 3.38,5.121 5.312,7.305 1.449,-2.786 2.736,-5.874 3.702,-9.338   l0,-39.01 0,0   z m0,46.69 0,64.39   c-0.6439,-6.702 -1.127,-13.86 -1.61,-21.61 0.2414,-12.88 0.2414,-25.68 -0.8048,-38.03 0.8853,-1.506 1.69,-3.087 2.414,-4.744   l0,0   z m-9.014,61 0,-62.58   c1.368,2.259 2.897,4.518 4.507,6.777 1.449,23.95 0,42.55 -4.507,55.8   z m0,-114.6   c-1.368,-1.431 -2.495,-3.087 -3.461,-5.121 3.461,13.86 -3.38,20.78 -10.7,19.73   l0,-49.47   c4.909,-4.142 9.577,-7.53 14.16,-10.09   l0,44.96 0,0   z m0,2.937   c-0.2414,-0.1506 -0.4829,-0.3765 -0.6439,-0.6024 -0.161,1.506 -0.4024,3.012 -0.5634,4.518 0.4829,0.9036 0.8048,1.807 1.207,2.786   l0,-6.702 0,0   z m0,13.63   c-0.5634,-2.184 -1.207,-4.217 -2.012,-6.25 -2.656,4.895 -5.875,6.928 -9.497,7.079 2.656,12.8 6.599,22.74 11.51,30.57   l0,-31.4 0,0   z m0,35.47 0,62.58   c-1.368,3.841 -2.897,7.229 -4.668,10.17 -4.024,-7.079 -7.002,-23.04 -9.497,-44.2   l0,-26.66   c2.334,-7.154 3.783,-14.76 3.944,-23.04 3.3,13.03 5.634,30.65 7.324,52.11 0.5634,-14.23 -0.3219,-27.94 -2.656,-41.19 1.529,3.464 3.461,6.853 5.553,10.24   l0,0   z m-14.16,-5.271 0,-29.52   c0.161,0.0753 0.3219,0.0753 0.4829,0.0753 2.495,10.24 2.012,19.96 -0.4829,29.44   z m0,-32.15   c-2.736,-0.3765 -5.553,-1.883 -7.968,-4.518   l0,-37.65   c2.656,-2.711 5.312,-5.121 7.968,-7.305   l0,49.47 0,0   z m0,2.636   c-2.414,-0.1506 -4.99,-0.8284 -7.968,-3.539   l0,1.506   c1.771,7.003 1.529,15.96 0.8048,25.3 -0.2414,-3.389 -0.4829,-6.702 -0.8048,-9.94   l0,30.65   c0.4829,0.8284 0.9658,1.581 1.449,2.41 2.736,-5.573 4.99,-11.15 6.519,-16.87   l0,-29.52 0,0   z m0,36.67 0,26.66   c-0.7243,-6.476 -1.449,-13.4 -2.093,-20.63 0.7243,-2.033 1.449,-3.991 2.093,-6.024   l0,0   z m-7.968,49.47 0,-37.2 1.368,2.56 2.897,-6.853   c0.161,17.17 -1.207,31.03 -4.266,41.49   z m0,-93.3   c-1.046,-1.205 -2.012,-2.56 -2.897,-4.142 0.8853,4.518 -1.932,8.434 -7.726,12.5 -3.219,-17.09 -12.31,-17.24 -20.68,-30.57 5.795,-1.581 11.59,-2.786 17.54,-3.087 -1.529,1.732 -3.058,3.389 -4.587,5.121 -0.6439,0.979 0.3219,2.56 1.61,1.13 5.714,-7.079 11.35,-13.33 16.74,-18.6   l0,37.65 0,0   z m0,3.615   c-0.2414,-0.1506 -0.4024,-0.3765 -0.6439,-0.5271 0.2414,0.6777 0.4829,1.355 0.6439,2.033   l0,-1.506 0,0   z m0,16.87   c-0.5634,-6.024 -1.368,-11.82 -2.495,-17.4 -1.932,3.313 -4.346,5.723 -7.324,7.305 -1.449,16.19 2.736,29.29 9.819,40.74   l0,-30.65 0,0   z m0,35.62 0,37.2   c-1.529,5.121 -3.3,9.338 -5.553,12.88 -4.587,-14.23 -7.243,-27.11 -7.485,-38.33   l2.656,-37.43   c0.9658,5.196 2.495,10.09 4.587,14.53 1.368,8.434 2.173,20.11 2.736,32.98 0.3219,-9.639 0.4829,-19.2 -0.5634,-28.54   l3.622,6.702   z " id="path176"/>
    <path inkscape:connector-curvature="0" style="fill:#fae0d6;fill-rule:evenodd;stroke:#000000;stroke-width:3.05820537" d="m205.1,271.2   c-0.4829,2.862 1.61,8.359 -2.093,6.401 -0.4024,-1.054 -2.093,-6.25 -1.127,-9.94 0.4024,-6.326 8.612,-11.67 5.956,-18   l14.08,-7.681   c-1.771,10.24 3.863,11.82 2.656,21.46 0.4829,3.087 -2.334,8.058 -4.266,5.798 0.161,3.841 -3.058,7.53 -4.426,5.045 0.3219,3.313 -2.817,6.627 -4.266,4.368 -0.4829,2.485 -3.139,4.066 -4.748,0.0753 -3.622,-7.53 0.4024,-7.53 1.851,-3.615 0.7243,-1.657 -0.4024,-3.464 -2.012,-4.895 -0.3219,-0.5271 -1.046,-0.3765 -1.61,0.979   z " id="path2505"/>
    <path inkscape:connector-curvature="0" style="fill:#000000;fill-rule:evenodd;stroke:none" d="m173.6,84.56   c19.56,4.498 24.32,9.531 34.29,23.12 6.917,9.436 8.958,25.26 9.28,35.2 0.6439,15.89 7.163,28.62 9.497,44.13 3.3,22.14 1.851,51.51 1.851,68.98 -22.94,-6.476 -26.96,-3.765 -32.03,-3.313 5.392,-19.81 2.736,-66.87 -16.42,-89.01 -24.74,22.96 -45.22,-88.01 -6.463,-79.1   z " id="path2503" sodipodi:nodetypes="cscccccs"/>
    <path inkscape:connector-curvature="0" style="fill:#000000;fill-rule:evenodd;stroke:none" d="m145.9,115.7 -12.8,55.5 -8.531,53.39   c-0.161,-2.184 -0.2414,-4.443 -0.3219,-6.777   l-2.495,-10.92   c-1.771,14.16 -4.668,25.75 -8.612,35.24 -6.439,-7.455 -10.38,-20.18 -11.91,-38.1 -2.012,19.88 -5.473,35.47 -10.46,46.54 -5.714,-6.476 -9.738,-16.49 -11.43,-31.7 -1.288,33.89 -5.392,59.87 -11.99,78.84 -6.841,-10.47 -11.19,-24.78 -13.04,-42.7 -1.61,34.72 4.426,69.51 2.978,83.14 -7.646,-7.832 -13.68,-21.54 -17.87,-40.97 4.024,28.31 2.978,53.09 -4.024,73.5 -10.87,-14.01 -20.84,-58.81 -22.94,-97.37 -2.093,3.464 -4.668,7.079 -7.968,10.84 0.7243,-27.94 1.207,-57.76 4.426,-78.99 -2.817,3.69 -5.795,6.326 -8.933,7.832   l12.39,-81.78   c-3.863,3.012 -7.968,4.594 -12.23,5.573 16.02,-35.54 8.37,-69.13 24.22,-105.2 6.599,-16.04 14,-22.37 24.63,-20.78 21.89,7.681 11.99,38.78 19.4,57.01 17.54,3.765 34.53,14.76 50.94,36.15 4.024,-0.1506 8.29,0.3012 12.64,1.506 15.21,-0.6024 18.11,19.2 13.92,10.24   z " id="path178"/>
    <path inkscape:connector-curvature="0" style="fill:#ffff00;fill-rule:evenodd;stroke:none" d="m107.1,131.4   c1.046,-1.205 2.012,-2.56 2.897,-4.142 -0.8853,4.518 1.932,8.434 7.726,12.5 3.219,-17.09 12.31,-17.24 20.68,-30.57 -5.795,-1.581 -11.59,-2.786 -17.54,-3.087 1.529,1.732 3.058,3.389 4.587,5.121 0.6439,0.979 -0.3219,2.56 -1.61,1.13 -5.714,-7.079 -11.35,-13.33 -16.74,-18.6   l0,37.65 0,0   z m0,93.3 0,-37.2 3.622,-6.702   c-1.046,9.338 -0.8853,18.9 -0.5634,28.54 0.5634,-12.88 1.368,-24.55 2.736,-32.98 2.012,-4.443 3.622,-9.338 4.587,-14.53   l2.656,37.43   c-0.2414,11.22 -2.897,24.1 -7.485,38.33 -2.253,-3.539 -4.105,-7.832 -5.553,-12.88   l0,0   z m0,-42.17 0,-30.65   c0.5634,-6.024 1.368,-11.82 2.414,-17.4 2.012,3.313 4.426,5.723 7.404,7.305 1.449,16.19 -2.736,29.29 -9.819,40.74   l0,0   z m0,-46.01 0,-1.506   c0.2414,-0.1506 0.4024,-0.3765 0.6439,-0.5271 -0.2414,0.6777 -0.4829,1.355 -0.6439,2.033   z m-7.968,-0.6024   c2.736,-0.3765 5.553,-1.883 7.968,-4.518   l0,-37.65   c-2.656,-2.711 -5.312,-5.121 -7.968,-7.305   l0,49.47 0,0   z m7.968,-0.9037 0,1.506   c-1.771,7.003 -1.529,15.96 -0.8048,25.3 0.2414,-3.389 0.4829,-6.702 0.8048,-9.94   l0,30.65   c-0.4829,0.8284 -0.9658,1.581 -1.449,2.41 -2.736,-5.573 -4.99,-11.15 -6.519,-16.87   l0,-29.52   c2.414,-0.1506 4.99,-0.8284 7.968,-3.539   l0,0   z m0,52.49 -1.368,2.56 -2.897,-6.853   c-0.161,17.17 1.207,31.03 4.266,41.49   l0,-37.2 0,0   z m-7.968,14.38   c0.7243,-6.476 1.449,-13.33 2.093,-20.63 -0.7243,-2.033 -1.449,-3.991 -2.093,-6.024   l0,26.66   z M84.99,121.3   c1.368,-1.431 2.495,-3.087 3.461,-5.121 -3.461,13.86 3.38,20.78 10.7,19.73   l0,-49.47   c-4.909,-4.142 -9.577,-7.53 -14.16,-10.09   l0,44.96 0,0   z m14.16,17.24 0,29.52   c-2.495,-9.488 -2.978,-19.2 -0.4829,-29.44 0.161,0 0.3219,0 0.4829,-0.0753   l0,0   z m0,36.67   c-2.334,-7.154 -3.783,-14.76 -3.944,-23.04 -3.3,13.03 -5.634,30.65 -7.324,52.11 -0.5634,-14.23 0.3219,-27.94 2.656,-41.19 -1.529,3.464 -3.461,6.853 -5.553,10.24   l0,62.58   c1.288,3.841 2.897,7.229 4.668,10.17 4.024,-7.079 7.002,-23.04 9.497,-44.2   l0,-26.66 0,0   z m-14.16,-5.949 0,-31.4   c0.5634,-2.184 1.207,-4.217 2.012,-6.25 2.656,4.895 5.875,6.928 9.497,7.079 -2.656,12.8 -6.599,22.74 -11.51,30.57   l0,0   z m0,-38.33 0,-6.702   c0.2414,-0.1506 0.4829,-0.3765 0.6439,-0.6024 0.161,1.506 0.4024,3.012 0.5634,4.518 -0.4829,0.9036 -0.8048,1.883 -1.207,2.786   z m-9.014,-4.669   c3.058,-0.3765 6.358,-2.033 9.014,-4.97   l0,-44.96   c-3.058,-1.732 -6.117,-3.012 -9.014,-3.991   l0,53.92 0,0   z m9.014,-2.033 0,6.702   c-3.38,8.811 -4.024,16.79 -2.656,24.25 0.5634,-5.949 1.288,-11.82 2.656,-17.32   l0,31.4   c-1.61,2.711 -3.461,5.121 -5.312,7.305 -1.449,-2.786 -2.736,-5.874 -3.702,-9.338   l0,-39.01   c3.219,-0.3765 6.278,-1.506 9.014,-3.991   l0,0   z m0,49.1   c-1.368,2.259 -2.897,4.518 -4.507,6.777 -1.449,23.95 0,42.55 4.507,55.8   l0,-62.58 0,0   z m-9.014,65.97   c0.6439,-6.702 1.127,-13.86 1.61,-21.61 -0.2414,-12.88 -0.2414,-25.68 0.8048,-38.03 -0.8853,-1.506 -1.69,-3.087 -2.414,-4.744   l0,64.39   z M62.78,112   c1.61,-0.9036 3.3,-2.259 4.99,-3.991 -4.105,13.33 1.529,19.05 8.209,18.3   l0,-53.92   c-2.495,-0.8283 -4.909,-1.431 -7.324,-1.657 0.5634,1.581 1.127,3.238 1.61,4.895 1.288,2.711 -0.2414,3.389 -1.61,0.3012 -4.426,-12.95 -5.392,-22.14 -5.875,-30.12   l0,66.19 0,0   z m13.2,16.27 0,39.01   c-2.817,-9.865 -3.38,-22.59 -0.9658,-38.93 0.3219,0 0.6439,-0.0753 0.9658,-0.0753   l0,0   z m0,46.69   c-3.461,-7.832 -5.151,-17.55 -4.507,-29.82 -1.771,3.765 -3.541,7.53 -5.312,11.37 -1.127,20.03 -2.253,40.06 -3.38,60.09   l0,66.64   c1.207,3.163 2.575,6.1 4.185,8.735 3.783,-12.5 6.841,-29.52 9.014,-52.64   l0,-64.39 0,0   z m-13.2,1.506 0,-14.38   c0.4829,-0.6024 0.9658,-1.28 1.368,-1.883 -0.5634,5.422 -1.046,10.84 -1.368,16.27   l0,0   z m0,-18.75 0,-29.97   c0.6439,-1.958 1.529,-3.765 2.575,-5.271 2.012,3.238 4.426,5.573 7.565,5.497 -0.5634,9.338 -4.105,19.28 -10.14,29.75   l0,0   z m0,-35.69 0,-7.907   c0.5634,-0.1506 1.207,-0.3012 1.771,-0.5271 -0.3219,1.431 -0.4024,3.012 -0.2414,4.895 -0.6439,1.205 -1.127,2.41 -1.529,3.539   z m-7.726,-8.133   c2.414,0.2259 4.99,-0.3012 7.726,-1.883   l0,-66.19   c-0.4024,-5.874 -0.4829,-11.15 -1.61,-16.79 -1.207,-5.271 -3.38,-9.262 -6.117,-11.97   l0,96.84 0,0   z m7.726,0.2259 0,7.907   c-2.495,6.853 -2.495,13.18 -2.817,19.58 0.8048,-4.744 1.449,-9.639 2.817,-13.86   l0,29.97   c-1.851,3.163 -3.944,6.401 -6.197,9.639 -0.5634,-1.581 -1.046,-3.238 -1.529,-4.97   l0,-42.25   c0.3219,-1.355 0.6439,-2.711 0.9658,-3.991 2.253,-0.6777 4.507,-1.355 6.76,-2.033   l0,0   z m0,47.97   c-2.012,2.636 -3.944,5.271 -5.956,7.907 -0.7243,8.434 -1.288,16.64 -1.771,24.47   l0,49.47   c1.127,15.66 3.622,28.92 7.726,39.31   l0,-66.64   c-0.3219,5.422 -0.6439,10.84 -0.8853,16.19 -0.4024,-18.6 -0.4024,-37.35 0.8853,-56.33   l0,-14.38 0,0   z m-7.726,169.7 0,-8.208   c0.2414,3.087 0.4829,6.25 0.7243,9.338 -0.2414,-0.3765 -0.4829,-0.753 -0.7243,-1.13   l0,0   z m0,-160.7 0,-2.334   c0.0805,0.2259 0.161,0.4518 0.2414,0.6777 -0.0805,0.5271 -0.161,1.054 -0.2414,1.657   z m-2.093,-57.68   c0.6439,0.2259 1.368,0.3765 2.093,0.4518   l0,-96.84   c-0.6439,-0.6777 -1.368,-1.28 -2.093,-1.807   l0,98.2 0,0   z m2.093,6.702 0,42.25   c-0.9658,-3.916 -1.69,-8.058 -2.093,-12.5   l0,-17.09   c0.161,-2.184 0.4024,-4.443 0.7243,-6.777 0.4829,-1.958 0.8853,-3.916 1.368,-5.874   l0,0   z m0,48.65   c-0.8048,-2.41 -1.529,-4.97 -2.093,-7.681   l0,35.69   c0.5634,-10.62 1.207,-19.58 2.093,-25.68   l0,-2.334 0,0   z m0,25.68 0,49.47   c-1.046,-14.61 -0.9658,-31.18 0,-49.47   l0,0   z m0,129.1 0,8.208   c-0.7243,-1.054 -1.368,-2.259 -2.093,-3.464   l0,-32.23   c0.0805,1.205 0.161,2.485 0.2414,3.615 0.6439,7.982 1.207,15.96 1.851,23.87   l0,0   z m-2.093,-205.5 0,-2.334   c0.0805,0.0753 0.2414,0.0753 0.3219,0.1506 -0.0805,0.6777 -0.2414,1.431 -0.3219,2.184   z M41.45,92.47   c3.541,-10.77 8.29,-16.49 8.772,-28.24 1.529,17.24 -4.748,17.24 -6.117,28.39 -1.449,10.54 2.656,18.68 8.853,20.78   l0,-98.2   c-3.541,-2.485 -7.646,-3.087 -11.51,-1.807   l0,79.07 0,0   z m11.51,23.27 0,2.334   c-1.69,9.262 -5.714,18.98 -11.51,28.92   l0,-29.22   c1.046,-3.615 2.173,-6.702 3.461,-9.037 2.253,3.765 4.99,5.798 8.048,7.003   l0,0   z m0,17.02   c-0.4829,6.175 -0.4829,11.9 0,17.09   l0,-17.09 0,0   z m0,28.31   c-1.851,-8.283 -2.495,-17.92 -1.932,-28.62 -1.851,4.819 -3.702,9.187 -5.714,13.33 -3.944,36.37 -4.105,72.97 -2.817,109.8 -0.4024,-3.087 -0.7243,-6.25 -1.046,-9.413   l0,49.78   c0.2414,1.054 0.5634,2.184 0.8048,3.238 2.897,13.25 6.599,22.14 10.7,29.14   l0,-32.23   c-1.69,-26.88 -1.529,-69.43 0,-99.33   l0,-35.69 0,0   z m-11.51,7.305 0,-16.27 1.851,-2.862   c-0.7243,6.024 -1.368,12.43 -1.851,19.13   l0,0   z m0,-58.51 0,-11.22   c0.2414,-0.4518 0.4829,-0.8284 0.7243,-1.205 -0.161,2.862 0.161,5.573 0.8853,8.283 -0.6439,1.205 -1.127,2.636 -1.61,4.142   z m-1.851,-10.47   c0.5634,-2.56 1.127,-4.819 1.851,-6.928   l0,-79.07   c-3.139,1.054 -6.117,3.313 -8.451,6.777   l0,88.86   c2.495,-3.087 4.668,-6.326 6.599,-9.639   l0,0   z m1.851,-0.753 0,11.22   c-2.253,7.003 -3.541,16.72 -4.507,27.56 1.449,-7.003 2.817,-13.93 4.507,-19.65   l0,29.22   c-2.495,4.292 -5.312,8.66 -8.451,13.03   l0,-47.52   c2.817,-4.594 5.634,-9.262 8.451,-13.86   l0,0   z m0,53.47 -5.956,9.187   c-0.0805,17.62 -0.9658,36.15 -2.495,55.42   l0,6.401   c0.7243,26.06 3.219,50.6 8.451,72.82   l0,-49.78   c-2.334,-24.55 -1.932,-52.94 0,-77.79   l0,-16.27 0,0   z m-8.451,210.9 0,-110.2   c3.944,40.06 10.87,82.31 1.771,113.3 -0.6439,-0.9036 -1.207,-1.958 -1.771,-3.012   l0,0   z m0,-187.3 0,-12.43   c0,-0.1506 0.0805,-0.2259 0.0805,-0.3765 0.0805,4.368 0,8.585 -0.0805,12.8   z m0,-155.5   c-0.6439,0.979 -1.288,2.033 -1.851,3.163 -0.4829,0.8283 -0.8853,1.657 -1.368,2.56   l0,86.98   c1.127,-1.28 2.173,-2.56 3.219,-3.841   l0,-88.86 0,0   z m0,92.32 0,47.52   c-0.4829,0.6024 -0.8853,1.28 -1.368,1.883 -0.8853,-4.368 -1.529,-9.037 -1.851,-14.23   l0,-12.73   c0.3219,-6.476 1.207,-13.63 2.656,-21.54 0.161,-0.3012 0.4024,-0.6024 0.5634,-0.9036   l0,0   z m0,50.76 0,12.43   c-0.3219,13.4 -1.368,26.13 -3.219,38.1   l0,-42.4   c1.046,-2.711 2.173,-5.422 3.219,-8.133   l0,0   z m0,53.47 0,6.401   c-0.0805,-1.657 -0.0805,-3.238 -0.161,-4.895 0.0805,-0.4518 0.0805,-0.9789 0.161,-1.506   l0,0   z m0,36   c-1.046,-10.54 -1.851,-21.01 -2.173,-31.03 -0.3219,1.506 -0.7243,3.012 -1.046,4.518   l0,129.7   c1.046,2.56 2.093,4.895 3.219,7.003   l0,-110.2 0,0   z m-3.219,-87.8   c0.0805,-0.2259 0.0805,-0.3765 0.161,-0.5271 -0.0805,-0.3765 -0.0805,-0.6777 -0.161,-1.054   l0,1.581 0,0   z m0,-48.87   c0.0805,-0.2259 0.0805,-0.5271 0.161,-0.753 -0.0805,0.0753 -0.0805,0.1506 -0.161,0.2259   l0,0.5271   z m0,-90.14   c-5.312,10.02 -9.336,23.65 -12.31,39.91   l0,58.89   c4.266,-3.539 8.531,-7.53 12.31,-11.82   l0,-86.98 0,0   z m0,89.61 0,0.5271   c-3.541,16.27 -2.575,31.85 0,47.29   l0,1.581   c-3.3,10.69 -7.485,19.35 -12.31,26.58   l0,-26.06   c3.139,-15.44 6.278,-30.87 9.336,-46.24 1.046,-1.28 2.012,-2.485 2.978,-3.69   l0,0   z m0,19.43   c-0.2414,4.518 -0.2414,8.811 0,12.73   l0,-12.73 0,0   z m0,36.45   c-2.253,5.573 -4.426,11.22 -6.599,16.79 -1.932,11.97 -3.783,23.95 -5.714,35.84   l0,33.89   c5.795,-13.1 9.819,-27.86 12.31,-44.13   l0,-42.4 0,0   z m0,54.82 0,129.7   c-4.99,-12.65 -9.014,-31.03 -12.31,-53.92   l0,-38.48   c3.3,-6.401 5.795,-13.18 7.565,-20.18 -1.61,20.11 -0.4024,41.19 2.173,62.8 -0.8853,-20.86 -1.529,-42.17 -0.5634,-67.02 1.046,-4.292 2.093,-8.585 3.139,-12.95   l0,0   z m-12.31,-6.175   c1.207,-9.94 2.414,-19.88 3.622,-29.82 -1.127,1.883 -2.334,3.615 -3.622,5.271   l0,24.55 0,0   z m0,-56.4 0,-36.07   c2.173,-1.807 4.346,-3.916 6.599,-6.25 -2.173,14.08 -4.346,28.24 -6.599,42.32   z m0,-97.82   c-1.771,10.17 -3.219,21.39 -4.346,33.44 -1.207,12.12 -3.944,23.42 -8.048,34.04 3.944,-2.259 8.209,-5.196 12.39,-8.585   l0,-58.89 0,0   z m0,61.75 0,36.07   c-0.3219,2.56 -0.7243,5.045 -1.127,7.53 0.4024,-1.883 0.8048,-3.841 1.127,-5.723   l0,26.06   c-4.346,6.627 -9.336,11.97 -14.57,16.57 3.863,-26.06 7.807,-52.11 11.75,-78.17 0.9658,-0.753 1.851,-1.506 2.817,-2.334   l0,0   z m0,67.92   c-2.173,2.937 -4.426,5.497 -6.76,7.38 -1.288,24.78 -2.575,49.55 -3.944,74.25 4.105,-5.874 7.726,-12.35 10.7,-19.2   l0,-33.89   c-0.7243,4.669 -1.449,9.262 -2.093,13.86 0.6439,-5.949 1.368,-11.9 2.093,-17.85   l0,-24.55 0,0   z m0,68.08 0,38.48   c-1.368,-9.714 -2.575,-20.33 -3.702,-31.55 1.288,-2.259 2.575,-4.594 3.702,-6.928   z " id="path180"/>
    <path inkscape:connector-curvature="0" style="fill:#000000;fill-rule:evenodd;stroke:none" d="m144.7,1.5   c-11.99,-4.744 -23.82,2.56 -28.25,10.84 -9.497,17.62 -16.44,59.73 -10.47,62.94 12.83,6.913 28.14,-1.985 37.92,9.187 10.13,-4.962 39.58,-6.796 38.84,-11.95 -3.702,-16.87 -0.287,-25.16 -3.023,-41.58 -2.978,-17.85 -14.41,-32.38 -35.01,-29.44   z " id="path186" sodipodi:nodetypes="ccscccc"/>
    <path inkscape:connector-curvature="0" style="fill:#fae0d6;fill-rule:evenodd;stroke:#000000;stroke-width:3.05820537" d="m87.32,271.2   c0.4829,2.862 -1.61,8.359 2.093,6.401 0.4024,-1.054 2.093,-6.25 1.127,-9.94 -0.4024,-6.326 -8.612,-11.67 -5.956,-18   l-14.08,-7.681   c1.771,10.24 -3.863,11.82 -2.656,21.46 -0.4829,3.087 2.334,8.058 4.266,5.798 -0.161,3.841 3.058,7.53 4.426,5.045 -0.3219,3.313 2.817,6.627 4.266,4.368 0.4829,2.485 3.139,4.066 4.748,0.0753 3.622,-7.53 -0.4024,-7.53 -1.851,-3.615 -0.7243,-1.657 0.4024,-3.464 2.012,-4.895 0.3219,-0.5271 1.046,-0.3765 1.61,0.979   z " id="path188"/>
    <path inkscape:connector-curvature="0" style="fill:#000000;fill-rule:evenodd;stroke:none" d="m113.4,88.25   c-18.03,0 -27.93,8.811 -34.29,23.12 -4.748,10.69 -5.714,20.93 -6.036,30.87 -0.6439,15.89 -7.163,28.62 -9.497,44.13 -3.3,22.14 -1.851,51.51 -1.851,68.98 22.94,-6.476 26.96,-3.765 32.03,-3.313 -5.392,-19.81 -2.736,-66.87 16.42,-89.01 5.473,43.9 -12.88,68 -14.25,124.8 -0.5634,24.78 -2.414,53.77 -6.439,83.66 -2.897,21.54 -13.52,45.79 -13.52,64.16 2.656,5.045 10.62,10.39 17.87,12.73 9.336,3.012 20.12,3.313 32.68,4.217 6.68,0.5271 13.2,6.25 19.96,6.326 7.243,0.0753 13.36,-5.497 20.44,-4.895 4.185,0.4518 10.22,-1.958 13.6,-1.732 5.392,0.4518 11.19,-0.8284 12.39,-6.627 0.4829,-2.41 4.748,-4.895 8.37,-7.154 6.439,-4.142 8.531,-10.39 10.46,-14.01 -10.54,-32.31 -13.76,-65.14 -14.57,-95.56 -0.7243,-27.49 5.151,-72.97 -5.151,-99.78 -4.909,-12.95 -12.88,-24.78 -12.07,-40.36 10.67,-43.68 20.19,-52.47 -8.451,-105 -18.35,-4.895 -38.79,-1.431 -58.11,4.518   z " id="path190" sodipodi:nodetypes="ccccccccccccccccccccccc"/>
    <path inkscape:connector-curvature="0" style="fill:#fae0d6;fill-rule:evenodd;stroke:none" d="m144.9,73.26   c2.334,-0.3012 4.587,-1.355 6.439,-2.862 11.43,-9.714 11.83,-21.46 11.51,-37.95 -9.819,0 -11.51,-9.865 -17.95,-14.38   l0,55.2 0,0   z m0,28.92 0,-25.3   c3.622,-0.3012 7.807,-2.56 12.47,-6.551 0.3219,5.874 0,13.33 -0.0805,17.7 -0.0805,10.09 -6.278,14.38 -12.39,14.16   z m-0.5634,-84.49   c-6.117,4.895 -9.497,11.6 -18.75,11.6 -1.69,13.1 -0.8853,34.79 13.12,42.85 1.851,1.13 4.024,1.431 6.197,1.13   l0,-55.2   c-0.2414,-0.1506 -0.4024,-0.2259 -0.5634,-0.3765   l0,0   z m0.5634,59.19 0,25.3   c-5.714,-0.2259 -11.27,-4.292 -11.91,-11.15 -0.5634,-5.573 -0.7243,-14.08 -0.7243,-19.96 1.127,0.9789 5.151,5.196 10.95,5.723 0.5634,0.0753 1.127,0.0753 1.69,0.0753   z " id="path192" sodipodi:nodetypes="cccccccccccccccccccccccc"/>
    <path inkscape:connector-curvature="0" style="fill:#000000;fill-rule:evenodd;stroke:none" d="m139.8,57.73   c-1.156,0.0927 -2.786,0.7472 -2.908,1.492 0.7773,2.239 4.146,2.661 6.463,2.963 3.2,-0.057 4.553,-0.6914 6.737,-2.2 0.0839,-0.9941 -1.652,-2.005 -3.008,-2.092 -1.336,-0.009 -2.207,0.5853 -3.475,0.6013 -1.99,-0.223 -2.566,-0.6321 -3.808,-0.7647   z " id="path3474" sodipodi:nodetypes="ccccccc"/>
    <path inkscape:connector-curvature="0" style="fill:#000000;fill-rule:evenodd;stroke:none" d="m147,53.08 0,-0.9036   c0.161,0.2259 0.2414,0.6024 0,0.9036   l0,0   z " id="path3472"/>
    <path inkscape:connector-curvature="0" style="fill:#000000;fill-rule:evenodd;stroke:#000000;stroke-width:0.54062462;stroke-miterlimit:4;stroke-opacity:1;stroke-dasharray:none" d="m147,41.86 0,-2.862   c1.127,-3.991 8.048,-2.41 10.95,-0.979 -2.656,-0.2259 -7.324,-1.431 -9.577,0.3765 -1.449,1.13 -0.2414,2.033 0.9658,1.883 1.851,-0.1506 4.748,-0.4518 5.956,0 2.978,1.13 1.771,3.087 -0.8048,3.69 -1.771,0.4518 -3.622,0.2259 -4.668,0.1506 -1.449,-0.1506 -2.495,-0.8284 -2.817,-2.259   z " id="path3470"/>
    <path inkscape:connector-curvature="0" style="fill:#000000;fill-rule:evenodd;stroke:none" d="m147,39 0,2.862   c-0.161,-0.4518 -0.2414,-1.054 -0.161,-1.732 0,-0.4518 0,-0.8284 0.161,-1.13   l0,0   z " id="path3466"/>
    <path inkscape:connector-curvature="0" style="fill:#000000;fill-rule:evenodd;stroke:none" d="m147,52.18 0,0.9036   c-0.3219,0.4518 -1.207,0.753 -2.736,0.8284 -2.414,0.1506 -3.586,0.042 -3.828,-2.217 -0.2414,-1.958 0.2864,-5.087 0.2864,-6.142 0,-2.56 2.173,-2.109 2.173,-0.2259 0,2.334 -1.213,5.124 0.3157,6.404 0.4024,0.3765 1.938,-0.2288 2.743,-0.1535 0.4024,0.0753 0.8048,0.3012 1.046,0.6024   l0,0   z " id="path3464" sodipodi:nodetypes="ccccsscccc"/>
    <path inkscape:connector-curvature="0" style="fill:#000000;fill-rule:evenodd;stroke:#000000;stroke-width:0.54062462;stroke-miterlimit:4;stroke-opacity:1;stroke-dasharray:none" d="m129.1,38.02   c3.139,-1.506 11.03,-3.313 11.19,2.109 0.161,2.56 -0.9658,3.765 -2.978,3.991 -1.046,0.0753 -2.897,0.3012 -4.668,-0.1506 -2.575,-0.6024 -3.783,-2.56 -0.8048,-3.69 1.207,-0.4518 4.105,-0.1506 5.956,0 1.207,0.1506 2.334,-0.753 0.9658,-1.883 -2.253,-1.807 -6.921,-0.6024 -9.658,-0.3765   z " id="path194"/>
    <path inkscape:connector-curvature="0" style="fill:#ffcc00;fill-rule:evenodd;stroke:none" d="m143.6,15.13   c3.38,-4.518 3.058,-9.564 -1.127,-11.67 -4.507,-2.259 -13.04,-1.883 -17.95,2.786 -4.909,4.518 -10.05,15.33 -12.23,23.53 -16.05,60.45 3.337,42.02 11.51,42.62 6.364,3.846 5.627,1.627 0.7243,-17.73 -2.093,-8.66 -3.139,-16.94 -1.207,-26.43 7.726,0 15.94,-7.38 20.28,-13.1   z " id="path196" sodipodi:nodetypes="cccccccc"/>
    <path inkscape:connector-curvature="0" style="fill:#ffcc00;fill-rule:evenodd;stroke:none" d="m151.3,21.76   c-1.207,-1.807 -3.38,-3.991 -5.473,-5.723 1.61,-3.765 3.139,-6.024 1.368,-11.3 -0.2414,-1.431 0.4829,-2.334 5.473,-1.807 11.67,1.355 20.04,12.05 23.34,21.76 4.668,13.48 2.253,31.18 3.944,44.96 7.105,1.146 -17.88,16.76 -20.6,-0.3818 1.288,-7.455 2.495,-6.777 4.266,-14.16 2.012,-8.66 2.897,-15.14 0.8853,-24.62 -6.76,-0.1506 -9.014,-2.259 -13.2,-8.735   z " id="path198" sodipodi:nodetypes="cccccccccc"/>
    <path inkscape:connector-curvature="0" style="fill:#4c4c4c;fill-rule:evenodd;stroke:none" d="m113.2,194.2 64.39,0 0,-14.76 -64.39,0 0,14.76   z " id="path200"/>
    <path inkscape:connector-curvature="0" style="fill:#ffff00;fill-rule:evenodd;stroke:none" d="m143,455.8   c5.392,1.13 9.738,-0.3012 15.85,-3.238 0.6439,-0.3012 -3.219,-168.6 -2.173,-168.8 0.9658,-0.2259 6.841,167.8 7.968,167.7 2.978,-0.2259 6.117,-0.3765 7.807,-0.8284 4.426,-1.431 8.692,-0.6024 12.8,-2.033 -1.449,-1.054 -10.38,-129.1 -5.795,-131.3 -1.288,0.5271 11.03,124.6 15.29,121.5 5.634,-2.334 9.497,-7.53 13.28,-13.71 -12.56,-37.73 -14.41,-74.93 -14.97,-108.4 -0.6439,-38.18 4.105,-62.2 -10.62,-99.18 -2.414,-6.1 -4.748,-12.58 -6.439,-20.18   l-7.243,0   c-3.38,4.97 -3.139,10.62 -2.817,13.71 -2.012,-1.355 -3.38,-7.53 -3.38,-13.71   l-7.485,0   c-0.9658,1.958 -0.3219,5.497 -2.253,8.283 -1.932,2.786 -0.7243,7.229 0.0805,9.639 -3.3,-1.807 -4.748,-6.476 -3.783,-10.84 0.5634,-2.711 -0.9658,-5.271 -0.9658,-7.079   l-5.151,0 0,258.3 0,0   z m0,-279.2 0,-57.46   c18.35,3.389 28.41,-15.74 40.72,-27.79 18.4,20.19 13.35,58.67 12.56,58.89 -10.87,9.94 -14.97,22.29 -19.8,26.36   l-5.231,0   c-0.161,-3.087 -1.127,-7.305 -2.253,-9.187 -0.3219,2.711 -0.8853,6.928 -2.414,9.187   l-6.921,0   c-0.161,-2.334 0.4829,-4.895 -0.6439,-7.003 -1.288,-2.485 -1.046,-4.819 -0.6439,-7.003 -1.368,1.883 -2.093,4.066 -1.449,6.551 0.4829,2.184 -0.161,4.669 0.2414,7.455   l-4.346,0   c-3.783,-9.037 -5.473,-16.04 -5.07,-20.93 -1.529,3.916 -2.495,9.564 -1.288,20.93   l-3.461,0 0,0   z m0,-60.47   c4.909,1.28 9.658,0.6777 14.33,-2.184 3.783,-2.259 15.77,-14.16 18.91,-18.45 3.163,-3.272 15.21,-8.099 -14.56,-11.19 -0.4829,-0.269 1.158,11.27 -1.498,10.82 -3.622,7.455 -9.861,12.12 -17.18,10.54   l0,10.47   z m-29.7,81.4   c-1.127,20.63 -12.07,49.93 -13.44,72.44 -2.817,48.12 -2.253,83.81 -9.255,111.8 -5.231,20.78 -9.819,42.32 -12.64,52.64 2.253,1.732 4.266,3.313 6.117,4.819 2.495,4.594 10.14,-18.6 13.76,-46.91 2.495,-20.26 11.03,-70.79 10.95,-81.18 0.4829,0.3765 -0.8853,45.03 -6.519,80.05 -4.829,29.9 -14,50.98 -13.6,51.28 2.656,1.657 5.553,3.087 9.497,4.443 0.7243,0.2259 1.449,0.4518 2.173,0.6777 8.209,3.615 29.13,-180.4 24.31,-182.8 7.002,2.033 -11.83,186.2 -19.48,183.7 6.921,0.6777 14.57,0.3012 21.81,1.958 4.426,2.937 10.62,-201.4 10.95,-202 1.61,0.5271 -3.058,204.2 -1.529,205 2.414,1.205 4.587,1.958 6.599,2.41   l0,-258.3 -1.61,0   c0.8048,8.133 -0.8853,12.05 -2.736,15.74 0.2414,-3.991 0.8048,-7.756 -3.783,-15.74   l-6.358,0   c0.0805,6.024 -1.529,9.714 -3.541,12.73 0.3219,-4.066 1.449,-8.058 -1.61,-12.73   l-10.06,0 0,0   z m29.7,-91.87 0,10.47   c-2.173,-0.6024 -4.346,-1.506 -6.519,-2.711 -7.324,-4.066 -19.71,-16.5 -25.66,-22.3 6.833,0.1045 13.43,-2.988 17.94,-3.679 -0.0171,10.82 9.577,17.24 14.25,18.22   l0,0   z m0,13.48 0,57.46 -5.07,0.0753   c-0.0805,-9.865 -1.771,-14.61 -3.38,-19.5 0.2414,6.627 -0.2414,13.1 -1.69,19.5   l-6.76,0   c-0.8048,-1.883 -1.046,-4.066 -0.5634,-6.25 0.6439,-3.087 0.9658,-6.476 -0.0805,-9.112 -0.4024,1.28 -0.8048,4.594 -3.461,7.681 -1.529,1.807 -0.6439,4.895 -0.4829,7.681   l-7.082,0   c1.851,-7.756 -1.932,-17.92 -3.219,-18.45 -14.25,10.84 -19.4,31.63 -21.57,48.19 -2.414,18.07 -0.7243,35.24 0.3219,42.17 -9.98,0 -18.51,1.205 -26,3.765 0.161,-9.94 -0.2414,-20.78 -0.2414,-31.63   l0,-1.807   c0,-12.88 0.6439,-25.83 3.461,-37.43 2.093,-8.208 5.07,-15.21 6.519,-22.59 1.851,-9.413 2.093,-19.13 3.461,-30.12 0.8853,-7.003 3.058,-13.25 5.956,-19.58 4.346,-9.112 15.61,-18.52 23.26,-18.52 9.175,9.865 21.57,22.74 29.94,26.36 2.334,1.054 4.507,1.732 6.68,2.109   z " id="path202" sodipodi:nodetypes="ccccccccccccccccscccccccccccccccccccccccccccccccccccccccccccccccccccccccccccccccccccccccccccccccccccccccc"/>
    <path inkscape:connector-curvature="0" style="fill:#ffffff;fill-opacity:1;fill-rule:evenodd;stroke:none" d="m131.1,41.81   c0.5925,-1.049 2.284,-1.359 3.798,-1.286 1.442,0.0693 3.666,0.1264 4.334,1.619 -1.288,1.618 -3.314,1.806 -4.564,1.721 -1.571,-0.1076 -2.986,-0.6156 -3.568,-2.054   z " id="path3348" sodipodi:nodetypes="cscsc"/>
    <path style="fill:#000000;fill-opacity:1;fill-rule:nonzero;stroke:none" d="m136.3,42.19   c0,0.7513 -0.6547,1.36 -1.462,1.36 -0.8076,0 -1.462,-0.609 -1.462,-1.36 0,-0.7513 0.6547,-1.36 1.462,-1.36 0.8076,0 1.462,0.609 1.462,1.36   z " id="path2363"/>
    <path inkscape:connector-curvature="0" style="fill:#ffffff;fill-opacity:1;fill-rule:evenodd;stroke:none" d="m148,41.73   c0.5925,-1.049 2.284,-1.359 3.798,-1.286 1.442,0.0693 3.666,0.1264 4.334,1.619 -1.288,1.618 -3.314,1.807 -4.564,1.721 -1.571,-0.1076 -2.986,-0.6156 -3.568,-2.054   z " id="path3350" sodipodi:nodetypes="cscsc"/>
    <path style="fill:#000000;fill-opacity:1;fill-rule:nonzero;stroke:none" d="m153.4,42.15   c0,0.7513 -0.6547,1.36 -1.462,1.36 -0.8076,0 -1.462,-0.609 -1.462,-1.36 0,-0.7513 0.6547,-1.36 1.462,-1.36 0.8076,0 1.462,0.609 1.462,1.36   z " id="path3346"/>
    <path inkscape:connector-curvature="0" style="fill:#ffff00;fill-rule:evenodd;stroke:none" d="m179.1,159.5   c14.25,10.84 19.4,31.63 21.57,48.19 2.414,18.07 0.7243,35.24 -0.3219,42.17 9.98,0 18.51,1.205 26,3.765 -0.161,-9.94 0.2414,-20.78 0.2414,-31.63   l0,-1.807   c0,-12.88 -0.6439,-25.83 -3.461,-37.43 -2.093,-8.208 -5.07,-15.21 -6.519,-22.59 -1.851,-9.413 -2.093,-19.13 -3.461,-30.12 -0.8853,-7.003 -3.058,-13.25 -5.956,-19.58 -4.346,-9.112 -15.61,-18.52 -23.26,-18.52 -16.12,19.14 -31.71,104.3 -4.829,67.55   z " id="path2501" sodipodi:nodetypes="cccccccccccc" inkscape:transform-center-x="56.941559" inkscape:transform-center-y="5.0454546"/>
    <path inkscape:connector-curvature="0" style="fill:#000000;fill-rule:evenodd;stroke:none" d="m227,156.5   c1.529,-4.518 -0.7243,-7.079 -2.414,-11.22 -1.851,-4.142 0.0805,-8.133 4.829,-0.2259 2.012,3.389 4.668,11.37 1.127,15.44 -5.634,6.551 -4.829,0 -3.541,-3.991   l0,0   z m-41.77,-30.95   c3.702,-3.238 4.587,-10.32 5.151,-14.68 0.6439,-4.443 3.139,-4.895 3.139,4.142 0,3.916 -2.656,12.88 -7.887,14.83 -8.37,3.087 -3.702,-1.431 -0.4024,-4.292   l0,0   z m-78.23,0.4518   c-3.702,-3.238 -4.587,-10.32 -5.151,-14.68 -0.7243,-4.518 -3.139,-4.895 -3.139,4.142 0,3.916 2.656,12.88 7.807,14.83 8.451,3.087 3.702,-1.506 0.4829,-4.292   z " id="path204"/>
  </g>
</svg>
