<?xml version="1.0" encoding="UTF-8" standalone="no"?>
<!-- Created with Inkscape (http://www.inkscape.org/) -->

<svg
   width="1000"
   height="1200"
   viewBox="0 0 1000 1200"
   version="1.1"
   id="svg1"
   xmlns="http://www.w3.org/2000/svg"
   xmlns:svg="http://www.w3.org/2000/svg">
  <defs
     id="defs1" />
  <g
     id="layer1">
    <path
  d="m 50,-8 c -36.581146,53.968244 -20.073433,96.636338 43.304843,111.93162 -35.116976,55.05284 -17.436347,97.48636 46.381767,111.31624 -35.11698,55.05284 -17.43635,97.48635 46.38177,111.31624 -35.11698,55.05284 -17.43635,97.48635 46.38176,111.31624 -35.11697,55.05284 -17.43634,97.48635 46.38177,111.31624 -35.11698,55.05284 -17.43635,97.48635 46.38177,111.31624 -35.11698,55.05284 -17.43635,97.48635 46.38176,111.31624 -35.11697,55.05284 -17.43635,97.48635 46.38177,111.31624 -35.11698,55.05284 -17.43635,97.48635 46.38176,111.31624 -27.98457,51.34736 34.38177,75.76066 34.38177,75.76066 0,0 71.49874,-20.2634 36.38177,-75.31622 63.81811,-13.82988 81.49874,-56.26339 46.38176,-111.31624 63.81812,-13.82988 81.49875,-56.26339 46.38177,-111.31624 63.81811,-13.82988 81.49874,-56.26339 46.38177,-111.31624 63.81811,-13.82988 81.49874,-56.26339 46.38176,-111.31623 63.81812,-13.82989 81.49874,-56.2634 46.38177,-111.31624 63.81811,-13.82989 81.49874,-56.2634 46.38177,-111.31624 63.81811,-13.82989 81.49874,-56.2634 46.38176,-111.31624 63.81811,-13.82989 81.49874,-56.2634 46.38177,-111.31624 C 942.33364,59.383309 983.72856,51.666976 950.14815,-8 916.56774,-67.666976 810.86703,-61.58984 773.55556,-8 736.24408,-61.58984 690.27444,-61.58984 652.96296,-8 615.65149,-61.58984 569.68185,-61.58984 532.37037,-8 495.05889,-61.58984 449.08926,-61.58984 411.77778,-8 374.4663,-61.58984 328.49666,-61.58984 291.18519,-8 253.87371,-61.58984 207.90407,-61.58984 170.59259,-8 133.28111,-61.58984 87.311479,-61.58984 50,-8 Z" 
       id="path1" />
  </g>
</svg>
