<?xml version="1.0" encoding="UTF-8" standalone="no"?>
<!DOCTYPE svg PUBLIC "-//W3C//DTD SVG 1.1//EN" "http://www.w3.org/Graphics/SVG/1.1/DTD/svg11.dtd">
<svg xmlns:dc="http://purl.org/dc/elements/1.1/" xmlns:xl="http://www.w3.org/1999/xlink" version="1.1" xmlns="http://www.w3.org/2000/svg" viewBox="36 63 292.5 283.5" width="292.5" height="283.5">
  <defs>
    <clipPath id="artboard_clip_path">
      <path d="M 36 63 L 328.5 63 L 328.5 346.5 L 36 346.5 Z"/>
    </clipPath>
  </defs>
  <metadata> Produced by OmniGraffle 7.8 
    <dc:date>2018-07-22 18:17:42 +0000</dc:date><dc:title>Traceable heraldic art http://heraldicart.org/credits.html</dc:title>
  </metadata>
  <g id="Cross,_Equal-Armed_Celtic" fill-opacity="1" stroke-dasharray="none" stroke="none" stroke-opacity="1" fill="#ffff00">
    <title>Cross, Equal-Armed Celtic</title>
    <g id="Cross,_Equal-Armed_Celtic: Layer 2" >
      <title>Layer 2</title>
      <g id="Group_3">
        <g id="Graphic_5">
          <path d="M 165.91492 63.41276 L 143.10544 64.40448 L 143.10544 76.30508 L 143.10544 88.20568 L 152.42758 88.80072 C 158.77456 89.1974 161.94806 90.38746 162.93978 92.76758 C 164.32818 96.53611 159.17125 101.098 153.22095 101.098 C 143.10544 101.29635 108.79203 123.9075 97.08977 138.18822 C 83.60242 154.65072 76.6604 168.33642 75.86702 180.23702 C 75.07365 189.95585 74.47862 191.34425 70.710095 191.93928 C 65.15648 192.931 62.9747 190.55088 62.37967 183.8072 C 61.982985 179.2453 60.99127 178.45193 55.635997 178.45193 C 52.26416 178.45193 46.908887 177.8569 43.735393 177.26187 L 37.983434 176.07181 L 37.983434 186.78235 C 37.983434 192.53431 37.586747 205.82332 36.991717 216.13718 L 36 234.9798 L 47.50392 235.57483 C 60.792925 236.16986 64.75979 233.98808 64.75979 226.05435 C 64.75979 220.69908 67.73494 218.1206 73.4869 218.1206 C 75.07365 218.1206 76.46205 221.88914 77.25543 228.03778 C 78.84217 241.72348 88.95769 261.35947 101.45332 275.04517 C 111.76718 286.35074 115.33736 288.53252 149.65077 303.6066 C 154.21267 305.7884 159.76628 307.37514 161.94806 307.37514 C 164.92321 307.37514 165.91493 308.76355 165.91493 312.33373 C 165.91493 316.3006 164.92321 317.2923 161.15469 317.2923 C 152.03089 317.2923 150.04746 319.27575 150.04746 328.2012 C 150.04746 332.96144 150.84083 338.91174 151.83255 341.4902 C 153.4193 346.0521 153.81598 346.0521 181.58406 345.45708 L 209.55048 344.86204 L 209.55048 338.51506 C 209.55048 334.94487 208.95544 328.79623 208.36041 324.82936 C 207.17035 317.88734 206.57532 317.2923 200.22834 317.2923 C 193.88135 317.2923 193.48466 316.89563 194.0797 311.7387 C 194.67472 307.1768 195.86478 306.1851 202.60846 305.19336 C 206.972 304.59833 213.319 302.6149 216.4925 300.8298 C 219.86433 299.04472 223.03783 297.45797 223.8312 297.45797 C 224.62457 297.45797 229.97985 294.68116 235.7318 291.111 C 245.84732 285.16068 260.12804 271.67333 266.67337 261.9545 C 271.03693 255.6075 278.77232 237.16158 281.9458 226.05435 C 284.1276 217.92227 284.72262 217.32724 291.66464 216.7322 L 298.805 216.33552 L 298.805 224.8643 C 298.805 230.02122 299.79672 233.98808 301.38347 234.38477 C 306.9371 236.3682 320.62278 236.16986 324.58965 233.98808 C 328.5565 231.8063 328.75486 230.4179 328.35817 202.64983 L 328.15983 173.49335 L 313.08573 173.09666 L 298.20998 172.50163 L 299.40004 181.42708 L 300.78844 190.35254 L 292.8547 190.35254 C 285.31765 190.35254 284.92097 189.95585 284.92097 184.60058 C 284.92097 181.22874 284.1276 178.25359 283.13588 177.65856 C 282.14416 177.06353 280.75576 174.08838 279.96238 171.11323 C 278.1773 163.37783 257.94626 134.02301 249.61584 126.6843 C 233.9467 112.80027 209.55048 101.098 196.4598 101.098 C 190.70785 101.098 189.71614 99.31292 191.89791 93.56096 C 193.08797 90.38746 195.0714 89.1974 199.43496 89.1974 C 209.74882 89.1974 210.74054 88.00734 209.94716 75.90839 C 209.74882 69.561405 209.1538 64.40448 208.95544 64.20613 C 207.17035 63.01607 184.9559 62.61939 165.91493 63.41276 Z M 162.34475 159.01428 L 162.34475 159.01428 C 162.74143 176.86518 162.93978 191.5426 162.74143 191.93928 C 162.54309 192.33597 149.25408 193.12934 133.38661 193.72437 L 104.42847 194.91443 L 104.42847 188.17076 C 104.62682 179.2453 108.79203 168.13808 115.5357 158.41925 C 124.26281 145.72527 148.65905 128.66774 160.16297 127.08099 C 160.95634 126.88265 161.94806 141.36172 162.34475 159.01428 Z M 211.73225 136.00644 L 211.73225 136.00644 C 237.1202 149.0971 251.59928 164.5679 257.94626 185.5923 C 258.93798 188.56745 258.34295 190.35254 255.96283 191.1459 C 252.78934 192.33597 193.683 193.12934 192.69129 191.93928 C 192.09626 191.1459 190.9062 144.73355 191.50123 134.22135 C 191.50123 130.25449 192.2946 126.88265 192.88963 126.88265 C 193.48466 126.88265 202.01343 131.04786 211.73225 136.00644 Z M 164.72487 226.84772 L 164.72487 226.84772 C 165.3199 232.40134 165.91493 246.08703 165.91493 257.19426 C 165.91493 277.0286 165.71658 277.62363 161.55137 277.62363 C 158.9729 277.62363 153.4193 275.44185 149.05574 272.66505 C 144.69218 270.08658 138.54354 266.5164 135.1717 264.53297 C 128.82471 260.9628 112.36221 244.30194 112.36221 241.3268 C 112.36221 240.33507 110.57712 237.35992 108.39534 234.58311 C 106.21356 231.8063 104.42847 227.04607 104.42847 223.87257 C 104.42847 217.32724 106.01522 217.1289 141.32035 216.93055 L 163.5348 216.93055 L 164.72487 226.84772 Z M 256.16117 220.69908 L 256.16117 220.69908 C 249.4175 244.30194 229.58316 267.30978 208.55876 276.0369 C 199.23662 279.8054 195.26975 280.59878 194.27803 279.01204 C 193.48466 277.62363 192.49294 263.54125 192.09626 247.47544 L 191.30288 218.31896 L 201.81508 217.72393 C 207.76538 217.32724 222.64114 216.93055 234.93843 216.7322 C 257.1529 216.33552 257.35123 216.33552 256.16117 220.69908 Z" fill="#cccccc"/>
        </g>
        <g id="Graphic_4">
          <path d="M 67.33826 197.0962 L 67.33826 197.0962 L 59.007834 198.28627 L 58.412804 190.94757 C 57.817774 183.8072 57.42109 183.41052 50.47907 182.81549 C 43.338706 182.22046 42.94202 182.61714 42.743676 187.77407 C 42.743676 190.74922 41.9503 200.86474 41.15693 210.18688 C 40.16521 219.50902 39.96687 228.23613 40.5619 229.62453 C 41.15693 231.40962 44.528766 232.00465 50.67741 231.60796 C 59.602865 231.01293 59.80121 230.8146 60.39624 223.87257 C 60.99127 216.93055 61.387955 216.53386 69.32169 215.54215 C 79.23886 214.15374 80.627265 214.94712 80.627265 221.88914 C 80.627265 236.3682 89.35437 253.82242 107.80031 275.44185 C 114.34564 283.17725 148.65905 300.8298 161.74972 303.0116 C 170.47683 304.4 170.47683 304.59833 170.47683 312.33373 C 170.47683 320.06912 170.27848 320.26746 162.74143 321.25918 C 154.41101 322.2509 152.42758 326.21777 154.8077 336.33328 C 155.99776 340.89518 156.59279 341.0935 175.4354 341.0935 C 202.60846 341.0935 203.99686 340.4985 203.20349 330.38298 C 202.60846 322.6476 202.21177 322.2509 195.66644 321.25918 C 188.92276 320.26746 188.72442 320.06912 188.72442 311.342 L 188.72442 302.41656 L 199.6333 301.02815 C 215.69912 298.84638 237.31855 287.1441 250.21087 273.65676 C 261.91313 261.16113 273.41705 239.74004 277.38392 222.6825 L 279.96238 211.97197 L 290.87127 212.567 L 301.78016 213.16203 L 302.3752 221.49245 C 302.9702 229.62453 302.9702 229.62453 311.89567 230.4179 C 316.85425 230.8146 321.81284 230.4179 323.0029 229.82287 C 324.19296 229.0295 324.58965 219.31067 323.79627 203.04651 C 323.20124 188.96413 322.80456 177.26187 322.80456 176.86518 C 322.6062 176.66684 318.63935 176.4685 313.68076 176.4685 L 304.7553 176.4685 L 304.7553 185.98898 L 304.7553 195.31112 L 294.04476 194.91443 C 281.3508 194.7161 278.97067 193.52603 280.35907 188.7658 C 281.74747 182.81549 266.67337 153.659 253.78105 137.1965 C 241.48376 122.1224 210.74054 105.06487 195.26975 105.06487 C 187.93104 105.06487 185.35258 102.28807 186.14595 94.94936 C 186.74098 88.60237 187.33601 88.20568 196.26147 86.42059 L 205.5836 84.83385 L 205.5836 76.30508 C 205.5836 68.173 205.18692 67.776315 198.6416 66.586254 C 192.2946 65.396194 172.06357 65.59454 155.79941 66.98294 C 149.25408 67.57797 148.4607 68.173 147.46899 74.51999 C 145.6839 85.42888 147.27065 87.21397 157.9812 87.21397 C 165.91493 87.21397 167.70002 87.809 167.50167 90.58581 C 167.30333 92.56924 167.89836 95.94108 168.69173 98.3212 C 169.8818 102.08972 169.08842 102.68475 160.95634 103.67647 C 152.42758 104.86653 130.6098 113.99033 128.03134 117.36216 C 127.4363 118.35388 123.86613 121.13069 120.0976 123.9075 C 96.69308 141.16337 77.85046 170.1215 80.032235 185.98898 C 81.2223 195.11278 81.2223 195.11278 67.33826 197.0962 Z M 154.41101 124.89921 L 154.41101 124.89921 C 167.50167 121.72572 166.90664 121.13069 166.90664 143.1468 C 166.90664 154.45238 167.30333 171.11323 167.89836 180.43537 L 168.89008 197.29456 L 134.17998 197.29456 L 99.66823 197.29456 L 100.26326 186.38567 C 100.85829 172.50163 110.77546 154.0557 122.67607 144.33687 C 135.96507 133.62632 147.46899 126.48596 154.41101 124.89921 Z M 186.3443 144.9319 L 186.3443 144.9319 L 185.15424 122.32075 L 191.89791 123.31247 C 199.03827 124.50253 209.35213 128.66774 216.4925 133.22964 C 218.67427 134.61804 225.41795 139.17994 231.5666 143.1468 C 247.6324 153.659 263.1032 175.87347 263.1032 188.17076 L 263.1032 193.92272 L 242.87217 195.11278 C 231.5666 195.7078 214.7074 196.69952 205.18692 196.89787 L 187.7327 197.69124 L 187.7327 182.61714 C 187.7327 174.28672 187.13767 157.42753 186.3443 144.9319 Z M 99.27154 214.55043 L 99.27154 214.55043 C 99.66823 213.75706 115.33736 213.16203 133.7833 212.96368 L 167.50167 212.76534 L 168.69173 225.856 C 169.28676 232.99637 170.27848 248.46715 171.07186 260.36776 L 172.26192 281.5905 L 164.12984 281.5905 C 155.99776 281.5905 140.72532 274.64848 133.18827 267.70646 C 130.80815 265.5247 128.03134 263.7396 127.03962 263.7396 C 123.86613 263.7396 113.35393 251.839 106.8086 240.9301 C 101.25498 231.60796 97.28811 217.72393 99.27154 214.55043 Z M 188.52607 213.9554 L 188.52607 213.9554 C 188.92276 213.55871 205.9803 212.96368 226.40966 212.567 L 263.49988 212.1703 L 262.11148 217.52558 C 258.73964 231.40962 247.03738 252.23568 237.71524 261.35947 C 228.19475 270.48327 208.55876 281.9872 197.45153 284.56565 C 192.88963 285.7557 192.09626 284.96234 190.11282 278.02032 C 187.93104 270.87996 186.54264 215.93883 188.52607 213.9554 Z" fill="#ff0000"/>
        </g>
      </g>
    </g>
  </g>
</svg>
