<?xml version="1.0" encoding="UTF-8" standalone="no"?>
<!-- Created with Inkscape (http://www.inkscape.org/) -->
<svg xmlns="http://www.w3.org/2000/svg" xmlns:svg="http://www.w3.org/2000/svg" xmlns:rdf="http://www.w3.org/1999/02/22-rdf-syntax-ns#" xmlns:cc="http://creativecommons.org/ns#" xmlns:dc="http://purl.org/dc/elements/1.1/" version="1.1" width="146.75" height="290" id="svg2">
  <defs id="defs4"/>
  <metadata id="metadata7">
    <rdf:RDF>
      <cc:Work rdf:about="">
        <dc:format>image/svg+xml</dc:format>
        <dc:type rdf:resource="http://purl.org/dc/dcmitype/StillImage"/>
      </cc:Work>
    </rdf:RDF>
  </metadata>
  <g transform="translate(-4.125,-757.36218)" id="layer1" style="fill:#ebebeb;stroke:#000000">
    <path d="m 62.25,758.86218 v 56.6875 H 5.625 v 30.4375 H 62.25 v 78.40625 l -56,-23.1875 v 30.5 l 56,23.1875 v 90.96877 h 30.5 v -78.40627 l 56,23.1875 v -30.5 l -56,-23.1875 v -90.96875 h 56.625 v -30.4375 H 92.75 v -56.6875 z" id="rect2996" style="fill:#ebebeb;stroke:#000000;stroke-width:3;stroke-miterlimit:4;stroke-dasharray:none"/>
  </g>
  <path style="fill:#ffff00;fill-rule:evenodd;stroke:#000000;stroke-width:0.706546" d="m 59.288888,2.7126574 c -0.25166,18.8055856 -0.03596,37.6902156 -0.107858,56.5262086 -18.738829,0 -37.477652,0 -56.2164778,0 -1.1642705,1.614668 -0.1687003,4.411477 -0.4999417,6.470089 0.1278861,7.205429 -0.2553405,14.528295 0.1902111,21.660739 18.8055854,0.25166 37.6902154,0.03596 56.5262084,0.107858 0,27.055398 0,54.110798 0,81.166188 -18.338481,-7.54096 -36.628225,-15.21499 -54.9709962,-22.73714 -1.4407493,0.50762 -0.6047595,2.72604 -0.91243,3.89678 -0.071091,7.84842 0.066994,15.69699 0.099843,23.54536 2.8015742,1.93199 6.4795972,2.79129 9.6177562,4.31134 15.388682,6.36938 30.777248,12.73903 46.165827,19.10866 0,30.06963 0,60.13925 0,90.20887 1.614668,1.16427 4.411477,0.1687 6.470089,0.49994 7.20543,-0.12788 14.528295,0.25535 21.660739,-0.19021 0.316773,-25.24505 -0.10844,-50.5704 0.25056,-75.84445 0.138101,-1.2231 -0.403959,-3.86455 1.547746,-2.31782 17.822596,7.26572 35.550636,14.76387 53.392776,21.98005 1.40814,-0.28765 0.47209,-2.46745 0.78824,-3.51847 0.086,-7.96383 -0.0513,-15.92785 -0.0879,-23.8916 -2.80154,-1.93209 -6.47948,-2.79158 -9.61759,-4.31176 -15.32673,-6.3446 -30.65344,-12.68926 -45.980154,-19.03391 -0.0625,-30.95728 -0.125172,-61.91455 -0.188025,-92.871828 18.739559,0 37.479109,0 56.218659,0 1.16428,-1.614668 0.16871,-4.411477 0.49994,-6.470089 -0.12788,-7.205429 0.25535,-14.528295 -0.1902,-21.660739 -18.80559,-0.251661 -37.69022,-0.03596 -56.526214,-0.107858 0,-18.738829 0,-37.477653 0,-56.2164779 C 85.805049,1.8581175 83.008239,2.8536877 80.949627,2.5224464 73.747336,2.6501041 66.416795,2.2674503 59.288888,2.7126574 Z" id="path182"/>
</svg>
