<?xml version="1.0" encoding="UTF-8" standalone="no"?>
<svg xmlns:dc="http://purl.org/dc/elements/1.1/"
                xmlns:cc="http://creativecommons.org/ns#"
                xmlns:rdf="http://www.w3.org/1999/02/22-rdf-syntax-ns#"
                xmlns:svg="http://www.w3.org/2000/svg"
                xmlns="http://www.w3.org/2000/svg"
                width="330"
                height="670"
                version="1.1" >
  <metadata>
    <rdf:RDF>
      <cc:Work rdf:about="">
        <dc:format>image/svg+xml</dc:format>
        <dc:type rdf:resource="http://purl.org/dc/dcmitype/StillImage"/>
        <cc:license rdf:resource=""/>
        <dc:title/>
        <dc:creator>
          <cc:Agent>
            <dc:title>(Drawshield internal)</dc:title>
          </cc:Agent>
        </dc:creator>
      </cc:Work>
    </rdf:RDF>
  </metadata>
<g  style="fill:#ffff00;fill-opacity:1;fill-rule:evenodd;stroke:#000000;stroke-width:3;stroke-linecap:butt;stroke-linejoin:miter;stroke-miterlimit:4;stroke-opacity:1;stroke-dasharray:none" id="body"><path d="M165,0h20v50h50v40h-50v50h100v40h-100v250h-40v-250h-100v-40h100v-50h-50v-40h50v-50z" stroke="#000000" stroke-width="4" /><rect x="120" y="400" width="90" height="30" stroke="#000000" stroke-width="3" />
<rect x="90" y="430" width="150" height="30" stroke="#000000" stroke-width="3" />
<rect x="60" y="460" width="210" height="30" stroke="#000000" stroke-width="3" />
<rect x="30" y="490" width="270" height="30" stroke="#000000" stroke-width="3" />
<rect x="0" y="520" width="330" height="30" stroke="#000000" stroke-width="3" />
<rect x="-30" y="550" width="390" height="30" stroke="#000000" stroke-width="3" />
<rect x="-60" y="580" width="450" height="30" stroke="#000000" stroke-width="3" />
<rect x="-90" y="610" width="510" height="30" stroke="#000000" stroke-width="3" />
<rect x="-120" y="640" width="570" height="30" stroke="#000000" stroke-width="3" />
</g></svg>
