<?xml version="1.0" encoding="UTF-8" standalone="no"?>
<!DOCTYPE svg PUBLIC "-//W3C//DTD SVG 1.1//EN" "http://www.w3.org/Graphics/SVG/1.1/DTD/svg11.dtd">
<svg xmlns:dc="http://purl.org/dc/elements/1.1/" xmlns:xl="http://www.w3.org/1999/xlink" version="1.1" xmlns="http://www.w3.org/2000/svg" viewBox="33.248434 85.5 317.75157 189.1316" width="317.75157" height="189.1316">
  <defs>
    <clipPath id="artboard_clip_path">
      <path d="M 33.248434 85.5 L 351 85.5 L 351 274.6316 L 33.248434 274.6316 Z"/>
    </clipPath>
  </defs>
  <metadata> Produced by OmniGraffle 7.7.1 
    <dc:date>2018-03-13 06:46:41 +0000</dc:date><dc:title>Traceable heraldic art http://heraldicart.org/credits.html</dc:title>
  </metadata>
  <g id="Bag,_or_Pouch_(3)" fill-opacity="1" stroke-dasharray="none" stroke="none" stroke-opacity="1" fill="#ffff00">
    <title>Bag, or Pouch (3)</title>
    <g id="Bag,_or_Pouch_(3): Layer 2" >
      <title>Layer 2</title>
      <g id="Group_3">
        <g id="Graphic_43">
          <path d="M 198.96162 87.51529 C 198.83617 87.64074 195.11466 88.3934 190.64048 89.2297 C 171.40568 92.74214 167.18238 94.62381 162.62457 101.64869 L 161.03561 104.03213 L 160.78472 101.98321 C 160.40839 99.09799 160.19931 98.72166 158.69398 97.92718 C 157.02139 97.04907 153.59258 97.09088 150.08014 98.0108 C 141.92625 100.14336 128.96367 107.0428 118.92812 114.65309 C 102.78762 126.94664 105.38013 133.97152 123.98771 128.5356 C 124.74038 128.28471 124.86582 128.45197 124.86582 129.33008 C 124.86582 132.08985 129.25637 136.1877 137.8284 141.45637 C 150.70736 149.40118 154.63795 153.7081 155.72513 161.10931 L 156.01784 163.0746 L 153.96891 162.90735 C 152.12906 162.7819 151.71091 162.53102 150.08014 160.7748 C 142.76255 152.82999 130.7617 148.39762 116.50286 148.39762 C 108.30717 148.39762 102.78762 149.15029 83.8037 152.78817 C 72.30464 154.96254 67.74683 155.54795 61.85094 155.58976 C 50.351876 155.58976 45.41773 152.74636 44.205103 145.30333 C 43.285177 139.65833 45.16684 130.37545 48.679285 123.1833 C 49.68284 121.09257 50.47732 119.29453 50.39369 119.2109 C 50.31006 119.12727 48.88836 120.3399 47.25758 121.88705 C 38.810995 129.83186 34.713147 143.12896 38.016515 151.86825 C 39.312773 155.38069 42.741585 158.89313 46.54673 160.69117 C 51.52269 163.0746 55.03513 163.66002 64.150755 163.66002 C 72.97367 163.6182 74.729895 163.40913 91.87396 160.06395 C 107.72176 157.01147 113.32494 156.2588 120.80979 156.2588 C 130.67808 156.21698 137.66115 158.01502 144.3097 162.28013 C 146.77677 163.82728 151.75273 168.30146 151.75273 168.92868 C 151.75273 169.09594 150.08014 170.18312 148.03121 171.39575 C 139.83551 176.20445 132.85245 182.22578 122.35693 193.55759 C 118.17546 198.03177 113.15768 203.42588 111.15057 205.51662 C 109.14346 207.60735 107.21998 209.90717 106.80183 210.65983 C 105.21287 213.79594 106.30006 217.30838 109.68705 220.02635 C 110.85787 220.94627 111.7778 221.908 111.73598 222.1589 C 111.65235 222.4098 111.27602 224.08238 110.89968 225.8386 C 110.31428 228.51475 110.27246 229.5183 110.6488 231.7763 C 111.27602 235.53963 112.86498 238.75937 115.24842 241.1428 C 117.7155 243.60988 120.43345 244.98977 123.61138 245.28248 C 125.86938 245.53336 126.2039 245.70062 128.92186 248.2095 C 138.99922 257.5342 152.96536 262.8865 175.58715 266.10624 C 178.8487 266.608 181.44122 267.23524 183.82467 268.2388 C 187.79707 269.86957 193.48388 271.45853 198.37621 272.253 C 203.89576 273.13112 218.90727 272.92205 225.97397 271.83486 C 256.41513 267.1516 284.5983 251.93103 295.17744 234.36882 C 295.72103 233.4489 296.59914 231.56723 297.1009 230.18734 L 297.97903 227.67845 L 299.81888 227.63664 C 303.2477 227.59482 305.5057 225.04412 307.59643 218.93916 C 308.30728 216.84842 308.6836 214.63224 308.85087 211.74702 C 309.2272 204.09491 307.2619 198.9517 301.8678 193.51577 C 299.40073 191.00689 297.97903 189.96152 295.17744 188.62344 C 293.21214 187.70352 290.41055 186.65815 288.90522 186.36544 C 286.18726 185.82185 286.14544 185.82185 280.9186 180.595 C 275.73356 175.40997 271.51027 169.80679 269.21046 165.0399 L 268.24872 163.0328 L 269.71223 161.52746 C 271.80297 159.31128 276.61167 156.2588 280.375 154.66984 C 285.56004 152.49547 291.9159 151.40828 303.33132 150.69743 C 315.91757 149.90295 321.81345 149.10847 326.7058 147.56132 C 334.56696 145.05244 339.91926 140.57826 343.64077 133.3443 C 345.6897 129.45552 347.19503 124.52138 346.8605 123.05786 C 346.65144 122.26338 346.73507 122.0543 347.0696 122.3052 C 347.4041 122.47245 347.4459 122.43064 347.27866 122.13794 C 347.1114 121.84523 346.90233 121.63616 346.8605 121.63616 C 346.7769 121.63616 345.89877 122.72334 344.8952 124.0196 C 342.3027 127.53204 336.3232 133.55337 333.39615 135.68593 C 325.45134 141.37274 319.88997 142.50174 304.29306 141.54 C 290.2851 140.66189 284.55648 141.33092 277.8243 144.71792 C 274.31186 146.51595 272.05386 148.14673 268.4578 151.4501 C 264.98716 154.66984 265.02898 154.71165 264.44357 150.6138 C 264.19268 148.73214 264.2763 148.23036 265.1126 147.05955 C 266.28342 145.47059 266.32524 142.83625 265.19624 141.62363 C 264.65264 141.03822 264.06724 140.82914 262.89642 140.95459 L 261.34928 141.08003 L 262.5201 138.94748 C 263.1473 137.77667 266.11616 133.26067 269.12683 128.91193 C 277.69886 116.49294 280.1241 111.76787 280.1241 107.58639 C 280.1241 105.95561 279.91504 105.45384 278.7024 104.24121 C 277.8243 103.3631 276.86256 102.8195 276.19353 102.8195 C 275.14816 102.8195 275.10634 102.73588 275.10634 100.39425 C 275.10634 97.17451 273.5592 93.99659 271.25938 92.49125 C 267.87238 90.23326 263.56546 90.86048 259.4676 94.24747 C 258.46406 95.04196 257.54413 95.71099 257.37687 95.71099 C 257.25143 95.71099 256.3315 95.12559 255.36976 94.41473 C 254.0735 93.53662 253.1954 93.2021 252.23365 93.28573 C 251.5228 93.32755 250.77014 93.24392 250.60288 93.07666 C 250.1429 92.6167 247.8013 92.74214 242.4908 93.45299 L 237.6821 94.12203 L 234.75507 92.99303 C 230.6154 91.36225 225.68127 91.195 217.73646 92.324 C 208.8299 93.57844 208.95535 93.62025 206.61372 91.06955 C 205.52654 89.89874 203.93758 88.56066 203.10128 88.14252 C 201.67958 87.43166 199.42158 87.09715 198.96162 87.51529 Z" fill="#ff0000"/>
        </g>
        <g id="Graphic_42">
          <path d="M 47.5921 124.0196 C 44.16329 130.37545 42.574326 136.27133 42.53251 142.75262 C 42.490696 153.1645 48.428396 157.59687 62.394534 157.59687 C 67.9559 157.59687 74.85534 156.63513 89.11418 153.83354 C 101.9095 151.36647 107.42906 150.57199 114.45394 150.23747 C 128.12737 149.52662 141.29903 153.4154 148.8257 160.39846 C 150.91643 162.32194 151.6691 163.28368 151.3764 163.57639 C 151.1255 163.82728 150.91643 164.66357 150.91643 165.45805 L 150.91643 166.87975 L 148.44936 164.57994 C 145.10418 161.48565 141.29903 159.1022 137.41026 157.59687 C 131.17985 155.17162 129.38182 154.87891 119.55534 154.87891 C 109.72887 154.87891 108.80894 155.00436 91.74851 158.2241 C 78.53504 160.73298 75.0226 161.27657 68.959455 161.82017 C 60.220165 162.57283 52.777133 161.6529 47.34121 159.1022 C 43.74514 157.3878 41.236253 154.96254 39.73092 151.78462 C 38.727366 149.65206 38.643736 149.02484 38.68555 144.21614 C 38.68555 139.70015 38.85281 138.52933 39.81455 135.64411 C 41.236253 131.42082 44.205103 126.11034 46.88125 123.14149 C 48.01025 121.84523 49.05562 120.79986 49.13925 120.79986 C 49.26469 120.79986 48.55384 122.26338 47.5921 124.0196 Z" fill="#e1e1e1"/>
        </g>
        <g id="Graphic_41">
          <path d="M 346.19147 124.8559 C 345.31336 127.53204 341.7591 134.01333 339.7102 136.64767 C 336.0723 141.2473 331.09634 144.29977 324.32234 146.0978 C 319.9318 147.2268 315.49942 147.7704 305.42206 148.39762 C 291.79044 149.27573 284.68193 150.69743 278.32608 153.87536 C 275.77538 155.17162 271.13394 158.72587 269.67042 160.60754 C 268.95957 161.48565 268.2069 162.1965 268.03964 162.1965 C 267.87238 162.1965 267.16153 160.60754 266.4925 158.68406 L 265.32168 155.1298 L 267.3288 153.33176 C 273.35012 148.0631 279.70597 144.80155 286.5636 143.50529 C 290.03422 142.83625 291.0796 142.83625 309.85443 143.63073 C 317.04657 143.92344 320.14086 143.58892 325.3677 141.87451 C 331.849 139.74196 339.37566 133.46974 344.10073 126.36123 C 345.35518 124.47956 346.44236 123.01605 346.526 123.09968 C 346.60962 123.1833 346.48418 123.97779 346.19147 124.8559 Z" fill="#e1e1e1"/>
        </g>
        <g id="Graphic_40">
          <path d="M 264.69446 143.42166 C 265.78164 144.927 265.48894 145.8051 263.44002 147.68677 C 256.54058 153.91717 234.2533 161.3602 206.94824 166.54524 C 183.78285 170.93579 162.54094 171.8139 153.6344 168.76142 C 152.2545 168.25964 151.91999 167.96694 151.83636 166.92157 C 151.75273 166.25253 151.91999 165.16535 152.17088 164.53813 C 152.5472 163.53457 152.7981 163.40913 153.75984 163.57639 C 154.38706 163.70183 158.1922 164.4545 162.20642 165.2908 C 174.8763 167.8833 180.60493 168.17601 183.6156 166.4198 C 185.83178 165.08172 190.26414 164.11998 205.4011 161.56928 C 232.62252 156.96965 243.36892 154.33532 252.3591 150.0284 C 256.0388 148.27218 260.05302 144.9688 260.8475 143.04533 C 261.26565 142.04177 261.55835 141.87451 262.60372 142.04177 C 263.3564 142.16722 264.15087 142.71081 264.69446 143.42166 Z" fill="#e1e1e1"/>
        </g>
        <g id="Graphic_39">
          <path d="M 268.58323 112.10239 L 267.78875 113.06413 L 268.7505 112.26965 C 269.25227 111.80968 269.67042 111.39154 269.67042 111.30791 C 269.67042 110.97339 269.3359 111.22428 268.58323 112.10239 Z" fill="#cccccc"/>
        </g>
        <g id="Graphic_38">
          <path d="M 266.70157 114.4022 C 266.15798 115.07124 266.1998 115.11305 266.86883 114.56946 C 267.24516 114.27676 267.57968 113.94224 267.57968 113.85861 C 267.57968 113.52409 267.24516 113.73316 266.70157 114.4022 Z" fill="#cccccc"/>
        </g>
        <g id="Graphic_37">
          <path d="M 189.51148 130.62634 C 189.51148 131.75534 189.5951 132.2153 189.67874 131.54626 C 189.76237 130.91904 189.76237 129.99912 189.67874 129.45552 C 189.5951 128.95375 189.51148 129.45552 189.51148 130.62634 Z" fill="#cccccc"/>
        </g>
        <g id="Graphic_36">
          <path d="M 211.79876 137.73485 C 211.42242 138.82203 211.50605 139.07292 212.00783 138.23663 C 212.25872 137.81848 212.38416 137.35852 212.25872 137.27489 C 212.1751 137.14944 211.96602 137.35852 211.79876 137.73485 Z" fill="#cccccc"/>
        </g>
        <g id="Graphic_35">
          <path d="M 209.0808 187.9544 C 209.0808 188.41437 209.20624 188.53981 209.33169 188.2053 C 209.45713 187.9126 209.41532 187.53626 209.28987 187.41081 C 209.16443 187.24355 209.03898 187.49444 209.0808 187.9544 Z" fill="#cccccc"/>
        </g>
        <g id="Graphic_34">
          <path d="M 172.74375 195.23018 C 172.74375 195.81559 172.82738 196.02466 172.95282 195.73196 C 173.03645 195.48107 173.03645 194.9793 172.95282 194.68659 C 172.82738 194.4357 172.74375 194.64477 172.74375 195.23018 Z" fill="#cccccc"/>
        </g>
        <g id="Group_4">
          <title>layer2</title>
          <g id="Graphic_33">
            <title>path4497</title>
            <path d="M 152.20875 162.78076 C 151.9771 163.00835 144.30247 153.59019 127.94296 150.8155 C 120.07572 149.47077 111.71079 149.87598 101.66198 151.43605 C 95.5081 152.39692 89.9358 153.60629 83.28378 154.89114 C 80.71099 155.38808 78.18616 155.85245 75.66048 156.26175 C 67.526805 157.60301 60.05435 158.30672 52.83916 156.5154 C 49.16291 155.75434 45.98346 153.61261 44.28046 150.59353 C 42.480007 147.28598 42.31518 143.53353 42.602174 140.45812 L 42.602176 140.45812 C 43.941574 125.43518 51.71712 119.59181 50.93371 119.10589 C 51.18237 119.26013 44.9164 126.78035 44.084305 140.56933 L 44.084305 140.56933 C 43.92065 143.49887 44.124456 146.96865 45.766735 149.75363 C 47.190835 152.26824 50.013116 154.03957 53.248035 154.69882 C 60.07649 156.34548 67.24007 155.56526 75.3322 154.25379 C 77.82989 153.84181 80.33268 153.37746 82.89569 152.88223 C 89.47415 151.61113 95.1766 150.40136 101.36386 149.48057 C 111.52044 147.96018 120.16586 147.69138 128.2293 149.23783 C 146.24531 152.71515 151.65376 163.326 152.20875 162.78076 Z" fill="#cccccc"/>
          </g>
          <g id="Graphic_32">
            <title>path4501</title>
            <path d="M 151.57578 168.0555 C 151.42677 168.1849 148.32673 163.85358 140.76546 160.08821 L 140.76546 160.08821 C 137.54006 158.47917 133.59326 157.16335 128.87416 156.49746 C 120.86809 155.36195 112.67976 156.16676 102.34577 157.9809 C 94.40281 159.38424 85.92127 161.38597 76.91798 162.71105 C 76.17447 162.82048 75.43246 162.92412 74.69137 163.02139 C 65.61835 164.22946 57.05352 164.36929 49.17522 161.72652 L 49.175215 161.72652 C 44.36668 160.11976 40.415912 156.89727 38.47052 152.7358 C 36.51144 148.42857 36.624756 143.72143 37.384454 139.91077 L 37.384456 139.91076 C 38.394694 134.7744 40.544996 130.503 42.572293 127.3963 C 46.802483 120.88411 50.85155 118.97677 50.933714 119.10589 C 51.031855 119.2601 47.215085 121.60119 43.417753 127.92474 C 41.562793 131.02912 39.601504 135.23247 38.75072 140.16332 L 38.75072 140.16333 C 38.131805 143.81012 38.088783 148.23215 39.93744 152.04817 C 41.66628 155.72498 45.31833 158.56778 49.738326 160.03719 L 49.73833 160.0372 C 57.234805 162.51934 65.48506 162.2995 74.44401 161.13857 C 75.174775 161.04247 75.9071 160.94013 76.64161 160.83216 C 85.53582 159.52465 94.02149 157.55902 102.04074 156.21118 C 112.43291 154.45295 120.89769 153.77545 129.0865 155.09937 C 133.93863 155.88713 137.99005 157.36945 141.2577 159.14348 L 141.2577 159.14348 C 149.11775 163.41764 151.40926 168.20008 151.57578 168.0555 Z" fill="#cccccc"/>
          </g>
          <g id="Graphic_31">
            <title>path4505</title>
            <path d="M 261.07942 141.6818 C 261.25626 141.73265 260.87194 144.47548 256.90433 147.31947 C 254.5659 149.02082 251.7835 150.41352 247.92373 151.8712 C 240.59182 154.6479 232.9184 156.4588 222.37743 158.47001 C 217.859 159.33355 213.34246 160.09946 208.4663 160.90884 C 204.34103 161.59358 200.62457 162.20109 196.74932 162.87728 C 193.53198 163.4395 190.59917 163.9605 187.68696 164.69689 C 186.66866 164.9555 185.70643 165.22017 184.7984 165.5736 C 184.19828 165.82854 183.67917 166.01193 183.39295 166.32532 C 182.51452 167.09529 181.49285 167.28 180.71426 167.32434 C 179.34549 167.48857 177.9975 167.45335 176.7551 167.38318 L 176.7551 167.38318 C 173.04958 167.17974 169.38447 166.57722 166.49412 166.06436 C 162.58558 165.3719 159.07018 164.59732 156.77981 164.0547 C 155.44445 163.73836 154.29747 163.44495 153.56264 163.24198 L 153.56264 163.24198 C 153.1703 163.13364 152.82995 163.03271 152.61685 162.96292 C 152.34536 162.8786 152.20875 162.79574 152.20875 162.78076 C 152.20875 162.722 152.36853 162.71882 152.6594 162.73454 C 152.90573 162.74749 153.21987 162.77976 153.64438 162.8332 L 153.64438 162.8332 C 154.4735 162.93762 155.50064 163.09484 156.92478 163.32072 C 159.00413 163.65053 163.02776 164.31512 166.6902 164.82655 C 169.57019 165.22807 173.239 165.72228 176.82228 165.83544 L 176.82228 165.83544 C 178.0366 165.87192 179.2981 165.88321 180.5024 165.7098 C 181.25344 165.55337 181.9655 165.49763 182.21156 165.14391 C 182.8367 164.54584 183.5465 164.22236 184.1705 163.99148 C 185.17977 163.58401 186.20767 163.2822 187.2481 163.00636 C 190.22784 162.2132 193.21332 161.64981 196.42699 161.06694 C 200.2654 160.36983 204.08104 159.73165 208.15856 159.05486 C 213.07195 158.23933 217.5016 157.50815 222.04277 156.67902 C 232.67615 154.73407 240.063 153.15473 247.4711 150.61632 C 251.34132 149.28605 254.02707 148.09762 256.39516 146.57615 C 260.06955 144.17732 260.9226 141.63668 261.07942 141.68179 Z" fill="#cccccc"/>
          </g>
          <g id="Graphic_30">
            <title>path4509</title>
            <path d="M 265.93218 144.00268 C 265.9737 144.0023 266.36218 145.12285 265.14242 146.90729 C 264.47032 147.90553 263.5341 148.86516 262.15105 149.93706 C 259.34478 152.12023 256.0476 153.90637 251.18264 156.01138 C 241.63314 160.1541 230.72146 163.48888 216.41464 166.62179 C 214.8398 166.96723 213.2442 167.30485 211.63068 167.63193 C 198.93779 170.20494 187.86865 171.5651 177.82423 171.98235 L 177.82423 171.98235 C 171.48718 172.2471 166.5415 172.08218 162.09065 171.49238 C 154.99334 170.57365 151.34923 168.44388 151.57578 168.0555 C 151.68745 167.86405 155.33434 169.70782 162.21901 170.30804 C 166.65296 170.68022 171.42313 170.6745 177.7334 170.26848 L 177.7334 170.26848 C 187.7225 169.62332 198.55782 168.16568 211.21896 165.60039 C 212.82199 165.2756 214.4084 164.94246 215.97508 164.60366 C 230.32986 161.49408 240.92583 158.44743 250.5983 154.60505 C 255.5233 152.64286 258.68736 151.1222 261.57676 149.15025 C 262.98468 148.18548 263.9019 147.39835 264.6289 146.52392 L 264.6289 146.52392 C 265.79798 145.09735 265.82037 144.0037 265.93218 144.00268 Z" fill="#cccccc"/>
          </g>
          <g id="Graphic_29">
            <title>path4513</title>
            <path d="M 152.61685 162.96292 C 152.7681 163.23455 152.08555 163.9669 151.91885 165.35476 C 151.8977 165.53092 151.87926 165.7106 151.8632 165.87619 C 151.83499 166.41315 151.83522 166.90416 151.81025 167.28496 L 151.81025 167.28496 C 151.77709 167.7242 151.74695 168.02917 151.57579 168.0555 C 151.46064 168.07322 151.22938 167.85628 151.06304 167.40748 C 150.91428 167.03057 150.78313 166.4951 150.7609 165.87052 C 150.74654 165.66767 150.74811 165.45214 150.77053 165.22901 C 150.9782 163.17366 152.47468 162.70767 152.61681 162.96292 Z" fill="#cccccc"/>
          </g>
          <g id="Graphic_28">
            <title>path4517</title>
            <path d="M 261.00772 141.59784 C 260.96825 141.41122 261.27802 141.10245 261.9124 140.88102 C 262.5219 140.66826 263.5556 140.52115 264.62416 141.0561 C 264.66806 141.07808 264.71163 141.10104 264.75473 141.12496 C 267.2065 142.88679 265.40314 144.59933 265.63264 144.58167 C 265.42426 144.5977 265.22244 144.25387 264.97175 143.7514 C 264.7351 143.27712 264.44807 142.6121 263.96362 142.41182 C 263.94294 142.39651 263.92178 142.38176 263.90015 142.36757 C 262.8504 141.67864 261.09394 142.00597 261.00764 141.59784 Z" fill="#cccccc"/>
          </g>
          <g id="Graphic_27">
            <title>path4525</title>
            <path d="M 263.8223 148.01149 C 264.18333 147.9777 264.38233 157.97479 271.93904 169.72943 C 275.46178 175.29713 280.25404 180.49885 286.5716 185.77066 C 289.14994 186.11158 291.74 186.82958 294.2153 187.93156 C 299.48013 190.2754 303.6645 194.09204 306.1845 198.69895 C 311.0744 207.65827 308.7657 217.39843 305.7959 223.01165 C 304.3596 225.92202 302.067 227.61252 299.7437 227.5414 C 295.65945 227.2317 294.41648 224.6833 294.2048 225.2337 C 294.26683 225.07257 296.3271 226.68387 299.77016 226.58283 C 301.63364 226.62724 303.2208 225.02564 304.55665 222.39202 C 307.11663 216.94677 309.0293 207.69385 304.4283 199.68107 C 302.00694 195.45187 298.0009 191.92442 293.00143 189.70541 C 290.65066 188.66203 288.19597 187.96241 285.76117 187.60474 C 279.1418 182.11823 274.08514 176.55233 270.4588 170.6522 C 262.67516 157.78522 264.1024 147.98528 263.8223 148.01149 Z" fill="#cccccc"/>
          </g>
          <g id="Graphic_26">
            <title>path4529</title>
            <path d="M 152.39578 168.90001 C 152.6272 169.26714 142.92733 174.77298 130.50514 188.1533 C 124.81971 194.27384 118.56498 202.0123 110.84671 210.25208 C 109.90238 211.36755 109.04069 212.60016 109.21363 213.6611 C 109.20431 214.45042 109.75813 215.31002 110.46247 216.1169 C 111.15915 216.86862 112.05646 217.5046 113.05216 218.11038 C 113.40161 218.32 113.76955 218.52296 114.15293 218.72882 C 114.27084 218.79186 114.40555 218.8632 114.55434 218.94664 C 114.59102 219.22561 114.82946 219.66822 115.24915 220.30103 C 113.361 224.54534 113.22086 229.98407 115.21615 234.6432 C 116.14322 236.69284 117.60893 238.55517 119.48504 239.7966 C 121.80137 241.32867 124.726 242.07977 127.72585 242.22694 C 134.11567 248.91247 142.77121 253.6374 152.41514 256.868 C 156.79094 258.3139 161.3138 259.44007 165.98174 260.3696 C 171.17503 261.40372 176.4449 262.17343 181.59688 262.85624 C 191.60124 267.89207 203.09119 269.16363 213.57157 268.97845 C 226.61268 268.68396 238.84085 265.97082 249.37827 262.46492 C 262.37318 258.1286 272.38726 252.80412 280.29718 247.02553 C 285.027 243.5689 288.49386 240.30355 291.19068 237.14943 C 296.46137 230.9753 297.73844 226.40545 298.0074 226.4882 C 298.1239 226.52403 297.63273 231.29406 292.4219 238.14121 C 289.83678 241.54358 286.38478 245.116 281.66435 248.82784 C 273.781 255.0292 263.59332 260.81236 250.40966 265.46768 C 239.69903 269.2601 227.17716 272.21478 213.67282 272.6519 C 203.00872 273.04952 191.14347 271.80245 180.4845 266.50664 C 175.39307 265.87183 170.14922 265.1296 164.93034 264.09755 C 160.24155 263.17035 155.66177 262.02713 151.19738 260.5465 C 141.58057 257.40087 132.85674 252.46574 126.34036 245.3621 C 123.20556 245.42478 120.05525 244.6217 117.44107 242.81468 C 114.95724 241.10338 113.09566 238.7105 111.95741 236.0818 C 109.6799 231.06233 110.0687 225.29222 112.55923 220.74003 C 112.87687 221.27078 112.97994 221.65211 112.89144 221.8596 C 112.79373 221.80231 112.67803 221.73908 112.5474 221.66628 C 112.14201 221.44102 111.73111 221.20512 111.3186 220.94949 C 110.16437 220.24253 109.04272 219.39448 108.064 218.33254 C 106.95976 217.18155 106.14677 215.6149 106.02082 213.8044 C 106.03798 211.38627 107.22796 209.42738 108.60689 208.11175 C 116.3728 200.14752 122.87052 192.53407 128.83523 186.54654 C 142.113 173.22135 152.4117 168.92526 152.39579 168.90001 Z" fill="#cccccc"/>
          </g>
          <g id="Graphic_25">
            <title>path4537</title>
            <path d="M 156.27478 163.2307 C 155.81935 163.19943 156.31764 157.41377 151.72529 151.86638 C 149.56526 149.22942 146.78797 147.0653 143.22554 144.72618 C 142.85169 144.4807 142.47735 144.23841 142.10539 143.99975 L 142.10538 143.99975 C 137.49251 141.06105 134.9448 139.77904 131.31343 137.10999 C 125.91853 133.23585 124.23266 129.19023 124.9444 128.91648 C 125.32023 128.77194 127.27376 132.15441 132.41583 135.4987 C 135.44209 137.41734 139.31249 139.41645 143.38445 141.97986 L 143.38445 141.97986 C 143.76774 142.21945 144.1536 142.4651 144.54002 142.71703 C 148.20268 145.10496 151.16492 147.58458 153.3898 150.56795 C 158.71343 157.76647 156.09176 163.21814 156.27478 163.2307 Z" fill="#cccccc"/>
          </g>
          <g id="Graphic_24">
            <title>path4541</title>
            <path d="M 273.83826 102.95705 C 273.81836 103.70019 275.89905 101.2794 278.94905 104.14329 C 279.44445 104.63893 279.83146 105.29983 280.02308 106.07056 C 280.21286 106.84179 280.2351 107.65476 280.13487 108.48282 C 279.90645 110.4118 279.21773 112.2532 278.26528 114.24684 C 277.2312 116.43361 275.99137 118.55548 274.55172 120.81999 C 274.2655 121.2705 273.97394 121.72177 273.67696 122.17489 C 270.74948 126.64149 267.82905 130.58044 265.57768 133.84414 L 265.57768 133.84415 C 264.07308 136.02924 263.18147 137.37062 262.31206 138.96412 C 261.87945 139.75988 261.61695 140.31469 261.4093 140.8869 C 261.0904 141.80113 261.11633 142.31873 261.00766 142.3438 C 260.9014 142.3683 260.61197 141.8268 260.79494 140.73175 C 260.89393 140.09842 261.09735 139.40953 261.44396 138.55486 C 262.11582 136.8914 263.01315 135.2567 264.364 133.05488 C 266.4564 129.63887 269.28524 125.60664 272.1781 121.19254 C 272.47163 120.74463 272.76023 120.30021 273.04446 119.85744 C 274.48274 117.61541 275.71275 115.59854 276.7739 113.51514 C 277.7442 111.58995 278.45392 109.97934 278.74066 108.28473 C 278.85923 107.57307 278.89633 106.92978 278.78913 106.33987 C 278.68856 105.77165 278.46074 105.27089 278.14327 104.89393 C 276.47412 102.74229 273.83268 103.1645 273.83823 102.95705 Z" fill="#cccccc"/>
          </g>
          <g id="Graphic_23">
            <title>path4549</title>
            <path d="M 173.58108 110.71504 C 173.61482 110.79027 172.84577 111.42085 171.3314 112.4243 C 170.55978 112.93789 169.38139 113.68834 168.08076 114.31336 C 167.13091 114.77601 165.8853 115.28887 164.47211 115.41788 L 164.4721 115.41788 C 163.37535 115.52374 162.06787 115.25818 161.0279 114.31668 C 159.80589 113.0712 159.3182 111.26287 159.52517 109.47803 C 159.71077 107.5222 160.38464 105.6315 161.34075 103.77981 C 162.26019 101.97212 163.44255 100.18152 164.90772 98.50386 C 166.00581 97.22176 167.36823 95.88202 169.13278 94.95561 C 174.22354 92.35973 179.6901 91.20859 185.8159 90.06988 C 188.491 89.565 190.9945 89.15603 193.74284 88.67181 C 194.58615 88.52004 195.41695 88.38695 196.22226 88.23294 C 197.12476 88.06034 197.98225 87.86361 198.78628 87.58721 C 200.20134 87.13927 201.67366 87.29946 202.9038 87.92342 C 204.11295 88.55319 205.05346 89.40566 205.82453 90.23015 C 206.60882 91.04611 207.26553 91.8498 207.93626 92.51369 C 208.55053 92.94501 208.80215 93.39516 208.79043 93.2195 C 213.04538 93.25929 218.18518 92.16624 222.21275 91.68854 C 227.1334 91.06026 231.68295 91.38778 235.523 93.35444 C 236.779 94.10664 238.716 93.86601 240.3625 93.73719 C 242.62006 93.5064 244.70402 93.07552 246.57773 92.849 L 246.57773 92.849 C 247.47578 92.73708 248.29787 92.66493 249.1428 92.72484 C 249.75563 92.71837 250.45836 92.90958 250.9927 93.44448 C 251.5246 94.20997 251.36165 94.99416 251.13526 95.45625 C 250.26257 97.61938 249.02276 98.14752 249.0723 98.1829 C 248.9414 98.08942 249.80107 97.09273 250.26127 95.17116 C 250.31574 94.77237 250.40416 94.25603 250.17965 94.19749 C 250.0314 93.99369 249.63805 94.03321 249.10175 93.98943 C 248.38875 93.99906 247.68275 94.13028 246.8082 94.30002 C 245.0208 94.65508 242.98667 95.21222 240.60434 95.58778 C 238.9631 95.88853 236.7199 96.20063 234.57353 95.25335 C 231.23465 93.63076 227.2142 93.56693 222.54242 94.19857 C 222.5424 94.19857 222.5424 94.19857 222.5424 94.19857 C 218.6744 94.75795 213.51844 95.94482 208.79042 95.98506 C 207.3299 95.80915 206.41192 95.0997 205.98003 94.49997 C 205.17074 93.70624 204.48926 92.88952 203.80339 92.1871 C 203.078 91.46605 202.3848 90.80405 201.63805 90.45643 C 201.0184 90.15604 200.27048 90.05345 199.69796 90.27875 C 198.71609 90.60727 197.73442 90.83899 196.76314 91.02889 C 195.90042 91.19756 195.04536 91.33321 194.23342 91.4715 C 191.5336 91.94204 188.88926 92.36334 186.3251 92.82656 C 180.1931 93.95212 175.01236 94.91301 170.27136 97.23281 C 168.94562 97.85167 167.78149 98.97652 166.70512 100.11714 C 165.33181 101.60195 164.19957 103.19836 163.2977 104.81935 C 162.37284 106.50854 161.70258 108.09318 161.49354 109.69626 C 161.34991 111.07439 161.51699 112.35822 162.26347 113.0811 C 162.73086 113.64672 163.6126 113.85973 164.39142 113.86773 L 164.39142 113.86773 C 165.4927 113.86552 166.6448 113.48783 167.58346 113.1459 C 168.80857 112.69257 170.12337 112.05806 170.91478 111.68594 C 172.56833 110.90727 173.49552 110.52435 173.58106 110.71505 Z" fill="#cccccc"/>
          </g>
          <g id="Graphic_22">
            <title>path4553</title>
            <path d="M 250.61546 94.40939 C 250.9629 94.7636 250.51046 92.75803 253.09113 93.12926 C 253.93853 93.29807 254.6866 93.76909 255.43634 94.4208 L 255.43634 94.4208 C 255.97787 94.86664 256.61715 95.51135 257.1684 95.8184 C 257.41092 95.93649 257.7819 96.00112 257.7549 95.8252 C 259.5589 93.87593 262.3407 91.54768 265.93692 91.07682 C 266.1327 91.05454 266.3295 91.03973 266.52686 91.03242 C 268.7924 90.94846 270.8928 91.8464 272.3483 93.26737 C 274.18717 95.09484 274.9682 97.42272 275.157 99.34504 C 275.64104 104.08799 273.21245 105.92427 273.24148 105.94086 C 272.99125 105.79787 274.43784 103.31056 273.7362 99.54543 C 273.42142 97.89465 272.6424 95.9405 271.11863 94.55404 C 269.9829 93.49844 268.31862 92.82526 266.59917 92.8959 C 266.44918 92.90206 266.3 92.91393 266.15216 92.93154 C 263.29226 93.21065 260.72596 95.26817 258.88963 96.95992 C 258.0197 97.62744 257.0284 97.53787 256.36262 97.07034 C 255.60242 96.53166 255.00045 95.80819 254.57112 95.36005 C 253.88436 94.68819 253.44852 94.2498 252.85787 94.05424 C 251.71723 93.54051 250.73745 94.53374 250.61546 94.40936 Z" fill="#cccccc"/>
          </g>
          <g id="Graphic_21">
            <title>path4557</title>
            <path d="M 126.43633 127.42457 C 126.3053 126.9201 121.87707 130.51982 113.08473 130.38288 L 113.08473 130.38288 C 112.07628 130.3892 110.82187 130.28177 109.64549 129.60726 C 109.25516 129.37707 108.8914 129.03411 108.61855 128.57287 C 108.37776 128.13151 108.2627 127.65538 108.26643 127.19076 L 108.26643 127.19076 C 108.29635 126.05692 108.72342 125.07497 109.23564 124.26996 C 109.92919 123.10466 110.78193 122.06621 111.70998 121.0648 C 114.12204 118.45141 116.89069 116.15589 120.02898 113.81603 C 122.42105 112.02848 124.96014 110.26523 127.64034 108.56721 C 132.82316 105.28368 137.91843 102.63367 142.84653 100.53349 C 146.4406 98.99448 149.68446 97.85264 153.03808 97.32853 C 154.36191 97.11655 155.66334 97.03374 156.95238 97.22175 L 156.95238 97.22175 C 157.99689 97.35449 159.02136 97.77155 159.79517 98.5415 C 160.54697 99.4129 160.7016 100.42779 160.75487 101.15633 C 160.90936 102.39781 160.8959 103.62343 160.86768 104.58754 C 160.83316 105.81509 160.73421 107.18656 160.67794 107.93015 C 160.58393 109.32622 160.46927 110.114 160.45216 110.11827 C 160.24884 110.1691 160.07923 109.37504 159.96828 107.93234 L 159.96828 107.93234 C 159.897 107.05536 159.8512 105.93127 159.76507 104.60731 C 159.70302 103.66462 159.6218 102.47326 159.40343 101.37161 C 159.22761 100.66336 159.1153 99.89066 158.72208 99.6146 C 158.28223 99.17086 157.56285 98.97544 156.74042 98.86776 L 156.74042 98.86776 C 155.68766 98.75429 154.57997 98.88963 153.3502 99.12207 C 150.22901 99.72501 147.21754 100.90485 143.70082 102.4826 C 138.91194 104.64144 133.96108 107.28415 128.8709 110.50945 C 126.24076 112.176 123.73761 113.89408 121.36642 115.62608 C 118.2513 117.9068 115.55685 120.05039 113.20738 122.4789 C 112.30644 123.4142 111.51417 124.31178 110.89938 125.28691 C 110.4757 126.01309 110.11222 126.63566 110.1268 127.20763 L 110.1268 127.20763 C 110.1246 127.39779 110.14851 127.5741 110.2165 127.69442 C 110.2743 127.83458 110.42268 127.973 110.59855 128.10104 C 111.22154 128.56447 112.2142 128.65428 113.15477 128.74381 L 113.15477 128.7438 C 121.17347 129.32172 126.35558 127.11371 126.43633 127.42457 Z" fill="#cccccc"/>
          </g>
          <g id="Graphic_20">
            <title>path4561</title>
            <path d="M 265.08822 155.18514 C 265.19874 155.28724 267.87373 150.30677 275.67023 145.71146 L 275.67023 145.71146 C 278.58625 143.99575 282.19754 142.47976 286.394 141.67062 C 293.01998 140.40922 299.20793 141.07437 306.96396 141.63114 C 307.52728 141.67042 308.0935 141.70743 308.6607 141.74042 C 311.4841 141.90463 314.17804 141.95895 316.82165 141.74974 C 320.3429 141.47175 323.62572 140.71967 326.5728 139.5048 C 330.557 137.87053 333.91457 135.41722 336.54464 133.04582 C 343.9922 126.32989 347.12776 120.42882 347.3742 120.58285 C 347.2386 120.49805 345.0642 126.81637 337.53697 134.10697 C 334.9021 136.65906 331.4625 139.30489 327.2562 141.12513 C 324.1405 142.46731 320.6744 143.31155 316.9755 143.62573 C 314.20837 143.86025 311.4209 143.81756 308.54943 143.64984 C 307.9723 143.61613 307.39816 143.57778 306.8286 143.53655 C 298.969 142.98387 293.06893 142.23078 286.697 143.33503 C 282.69092 144.01905 279.1997 145.36135 276.33687 146.89653 C 276.33687 146.89653 276.33687 146.89653 276.33686 146.89653 C 268.79325 150.93444 265.2835 155.36561 265.08822 155.18517 Z" fill="#cccccc"/>
          </g>
          <g id="Graphic_19">
            <title>path4569</title>
            <path d="M 267.8311 162.99175 C 267.86757 163.02174 269.98582 158.493 277.08157 154.43137 L 277.08157 154.43137 C 280.14418 152.68186 283.83374 151.24615 288.27668 150.25852 C 296.13466 148.51399 302.63315 148.5905 312.13475 147.87288 C 312.3139 147.85915 312.4932 147.84516 312.67266 147.83086 C 316.43135 147.53114 319.9405 147.11688 323.3241 146.32872 C 327.0125 145.46732 330.313 144.20641 333.14726 142.43871 C 336.65837 140.26025 339.30535 137.36187 341.1728 134.59072 L 341.1728 134.59072 C 346.26496 127.04756 347.07892 120.93665 347.3742 121.00479 C 347.1144 120.94484 347.56996 127.10028 342.46893 135.42382 L 342.4689 135.42382 C 340.6236 138.42898 337.9072 141.59738 334.16905 144.04123 C 331.15625 146.0017 327.6619 147.41392 323.8033 148.34567 C 320.2761 149.1995 316.65205 149.65116 312.84084 149.95169 C 312.65874 149.96606 312.4769 149.98002 312.29543 149.99361 C 302.48957 150.73889 296.4983 150.50914 288.6549 152.05957 C 284.333 152.91253 280.77245 154.14531 277.75907 155.6834 L 277.75907 155.6834 C 270.97865 159.13608 268.04243 163.1656 267.8311 162.99175 Z" fill="#cccccc"/>
          </g>
          <g id="Graphic_18">
            <title>path4577</title>
            <path d="M 249.9675 96.84016 C 249.95644 96.86411 249.64212 96.79959 249.6305 96.82333 C 247.96065 100.23566 246.5373 102.72134 243.4425 107.68453 C 240.86395 111.81977 238.34734 116.20147 237.13696 118.62223 C 238.76754 115.36107 240.53304 112.59579 243.70467 107.85389 C 246.8232 103.19141 248.6077 100.32493 250.1878 97.09605 C 250.19884 97.07207 249.95584 96.86411 249.9675 96.84016 Z" fill="#cccccc"/>
          </g>
          <g id="Graphic_17">
            <title>path4585</title>
            <path d="M 273.83826 104.44897 L 273.6509 104.35667 C 272.5221 106.6482 270.7583 109.4891 267.2685 113.7006 C 264.83477 116.63761 260.12293 121.81006 259.3666 122.65042 C 260.8747 120.97477 264.25315 117.50301 267.42788 113.83559 C 270.9793 109.733 272.8994 106.82758 274.02562 104.54126 L 273.83826 104.44896 Z" fill="#cccccc"/>
          </g>
          <g id="Graphic_16">
            <title>path4589</title>
            <path d="M 241.38895 153.30942 L 241.89584 153.4056 C 242.36288 150.94402 243.21903 147.87077 245.4007 143.68798 C 247.28613 140.0732 249.7417 136.51873 250.71346 135.18256 C 249.8002 136.4383 247.02295 139.99476 244.95083 143.4354 C 242.53646 147.44435 241.35697 150.71029 240.88206 153.21324 L 241.38895 153.30941 Z" fill="#cccccc"/>
          </g>
          <g id="Graphic_15">
            <title>path4601</title>
            <path d="M 222.06854 157.41221 C 222.07644 157.38093 222.63679 157.41853 222.64443 157.38719 C 223.36385 154.44132 224.5939 148.48266 226.17623 142.87712 C 227.9296 136.66566 229.699 132.58787 231.31847 129.81164 C 229.63715 132.69391 227.74174 136.43085 225.64376 142.71312 C 223.89647 147.94525 222.2035 154.52662 221.56904 157.12456 C 221.56115 157.15582 222.07618 157.38095 222.06854 157.4122 Z" fill="#cccccc"/>
          </g>
          <g id="Graphic_14">
            <title>path4605</title>
            <path d="M 206.70175 159.94848 L 207.21174 159.97433 C 207.44045 155.46121 208.1339 150.09122 210.43512 142.75434 C 212.2894 136.84245 215.3911 129.39655 216.39924 126.977 C 215.57533 128.9544 211.87313 137.17652 209.9508 142.59247 C 207.39754 149.7861 206.42043 155.41008 206.19177 159.92264 L 206.70175 159.94848 Z" fill="#cccccc"/>
          </g>
          <g id="Graphic_13">
            <title>path4609</title>
            <path d="M 241.9111 158.68035 C 241.91084 158.70968 241.1056 158.79847 241.1057 158.82986 C 241.11043 160.08023 241.36243 161.88606 242.22024 164.12632 C 242.8775 165.84283 243.81657 167.6206 245.00058 169.34794 C 247.96065 173.66632 251.11328 175.88419 252.95134 176.95639 C 251.14393 175.90207 248.17085 173.30346 245.6895 168.91745 C 244.6852 167.14225 243.94096 165.3709 243.4534 163.70844 C 242.8174 161.53984 242.71918 159.9176 242.71568 158.8247 C 242.71558 158.7972 241.91084 158.70967 241.9111 158.68034 Z" fill="#cccccc"/>
          </g>
          <g id="Graphic_12">
            <title>path4613</title>
            <path d="M 223.1129 163.97667 C 223.11265 163.98078 222.53162 163.96065 222.53138 163.96483 C 222.4586 165.27208 222.56864 166.88604 223.09124 168.81781 C 223.4824 170.26387 224.02394 171.62011 224.64825 173.09968 C 226.3259 177.07557 227.20842 179.3236 227.43947 182.32734 C 227.27197 180.14983 226.32685 176.32812 225.1931 172.89509 C 224.68808 171.36594 224.2761 170.01953 224.00082 168.60573 C 223.6342 166.72285 223.62393 165.25503 223.6921 164.0294 C 223.69233 164.02544 223.11267 163.9807 223.1129 163.97669 Z" fill="#cccccc"/>
          </g>
          <g id="Graphic_11">
            <title>path4617</title>
            <path d="M 206.70175 168.00486 C 206.70211 168.01654 205.97044 168.07436 205.9708 168.08596 C 206.06506 171.05613 206.53716 175.85498 207.60044 181.2332 C 208.69466 186.76805 209.92489 190.60193 210.72994 193.21835 C 209.97634 190.76918 208.9959 186.49666 208.32421 181.11654 C 207.62322 175.5016 207.53602 171.17844 207.43633 168.03943 C 207.43597 168.0279 206.70211 168.0164 206.70175 168.00485 Z" fill="#cccccc"/>
          </g>
          <g id="Graphic_10">
            <title>path4621</title>
            <path d="M 192.2301 169.94436 C 192.21906 169.97264 191.59656 169.84424 191.58622 169.87303 C 190.4636 172.99803 189.34108 177.77055 188.77198 184.5876 C 188.24028 190.9566 188.3511 197.20346 188.3511 200.37957 C 188.3511 197.23726 188.5561 190.91845 189.39807 184.65576 C 190.32083 177.79216 191.64424 173.43727 192.77167 170.2989 C 192.78114 170.27096 192.21983 169.97264 192.2301 169.94436 Z" fill="#cccccc"/>
          </g>
          <g id="Graphic_9">
            <title>path4625</title>
            <path d="M 179.25038 171.1379 C 179.2398 171.16938 178.54075 171.03997 178.5302 171.07144 C 177.42415 174.37164 175.53906 180.61258 174.19562 186.88517 C 172.71196 193.8125 172.25297 198.84672 171.93996 202.91584 C 172.23878 199.0312 173.078 193.66138 174.87965 187.05145 C 176.55678 180.89837 178.7611 174.81295 179.8651 171.51883 C 179.87568 171.4874 179.23985 171.16932 179.25038 171.13789 Z" fill="#cccccc"/>
          </g>
          <g id="Graphic_8">
            <title>path4629</title>
            <path d="M 170.44804 171.2871 C 170.43857 171.30984 169.9483 171.1841 169.93882 171.20658 C 168.44459 174.756 166.455 178.63053 162.47303 184.7478 C 159.01258 190.06385 155.6379 194.9651 154.18609 197.24653 C 155.6379 194.9651 159.21182 190.21916 162.88932 185.03067 C 167.01532 179.20938 169.40201 175.06282 170.86183 171.59515 C 170.87146 171.57213 170.43853 171.30984 170.44804 171.28708 Z" fill="#cccccc"/>
          </g>
          <g id="Graphic_7">
            <title>path4633</title>
            <path d="M 175.073 166.21455 L 175.71443 165.96968 C 173.58477 160.39113 169.9543 153.1154 163.7949 143.43846 C 158.26722 134.75403 152.61327 126.93024 150.1579 123.24719 C 151.86957 125.8147 158.55627 135.91761 163.2096 143.79742 C 169.14331 153.84537 172.25806 160.766 174.43157 166.45942 L 175.073 166.21455 Z" fill="#cccccc"/>
          </g>
          <g id="Graphic_6">
            <title>path4637</title>
            <path d="M 182.831 165.3194 L 183.4308 165.11716 C 182.14444 161.30199 178.95045 153.18884 175.7199 144.57374 C 172.09052 134.8951 169.99439 128.24365 168.80693 123.098 C 170.08365 128.63045 171.69523 134.59056 175.12347 144.78576 C 178.05974 153.51791 180.9521 161.72806 182.23118 165.52164 L 182.831 165.3194 Z" fill="#cccccc"/>
          </g>
          <g id="Graphic_5">
            <title>path4641</title>
            <path d="M 191.11116 163.00692 L 191.72301 162.91582 C 191.0914 158.6738 190.56334 149.69712 190.31182 140.63558 C 190.01442 129.92241 189.45354 124.49346 188.20192 119.06981 C 189.40058 124.26398 189.75995 130.19368 189.69324 140.6422 C 189.62409 151.47132 189.60909 157.11897 190.4993 163.09803 L 191.11116 163.00693 Z" fill="#cccccc"/>
          </g>
        </g>
      </g>
    </g>
  </g>
</svg>
