<?xml version="1.0" encoding="UTF-8" standalone="no"?>
<!DOCTYPE svg PUBLIC "-//W3C//DTD SVG 1.1//EN" "http://www.w3.org/Graphics/SVG/1.1/DTD/svg11.dtd">
<svg xmlns:dc="http://purl.org/dc/elements/1.1/" xmlns:xl="http://www.w3.org/1999/xlink" version="1.1" xmlns="http://www.w3.org/2000/svg" viewBox="68 60.75 229 270" width="229" height="270">
  <defs>
    <clipPath id="artboard_clip_path">
      <path d="M 68 60.75 L 297 60.75 L 297 330.75 L 68 330.75 Z"/>
    </clipPath>
  </defs>
  <metadata> Produced by OmniGraffle 7.7.1 
    <dc:date>2018-03-13 06:46:41 +0000</dc:date><dc:title>Traceable heraldic art http://heraldicart.org/credits.html</dc:title>
  </metadata>
  <g id="Boot" fill-opacity="1" stroke-dasharray="none" stroke="none" stroke-opacity="1" fill="#ffff00">
    <title>Boot</title>
    <g id="Boot: Layer 2" >
      <title>Layer 2</title>
      <g id="Group_3">
        <g id="Graphic_16">
          <path d="M 171.33569 62.8368 C 171.33569 62.8368 180.26158 151.01141 180.33507 161.39981 C 180.40857 171.78821 179.60014 185.7668 179.68466 191.30091 C 179.76918 196.83502 180.43798 201.59377 180.03376 208.58306 C 179.62955 215.57236 177.18587 222.84828 177.65256 231.10167 C 178.11925 239.35507 177.81057 247.02418 177.99064 253.23812 C 178.1707 259.45205 179.06733 270.76464 179.06733 270.76464 C 179.06733 270.76464 166.45289 271.55822 158.6727 273.6309 C 150.89252 275.7036 128.10649 287.97882 121.49936 290.2939 C 114.89224 292.60896 102.45335 297.82337 98.46997 299.07645 C 94.48659 300.32952 89.037 305.94815 85.14916 307.88105 C 81.26132 309.81395 75.12402 312.0351 74.09899 314.2868 C 73.07397 316.53847 73.76124 320.5735 73.76124 320.5735 C 73.76124 320.5735 71.81732 321.53994 71.32858 322.99513 C 70.83985 324.4503 68.502734 327.55177 75.49203 327.956 C 82.48132 328.3602 92.1899 328.38224 99.08365 328.10664 C 105.9774 327.83103 126.26547 329.13922 131.02422 328.47043 C 135.78296 327.80163 165.3646 324.7226 172.72988 324.3257 C 180.09516 323.9288 215.311 321.47743 225.01957 321.49948 C 234.72815 321.52152 265.4046 322.7562 269.48354 322.18296 C 273.56246 321.6097 288.99624 322.90687 289.48497 321.4517 C 289.9737 319.9965 288.42298 318.82795 288.42298 318.82795 C 288.42298 318.82795 290.8559 317.08697 293.19275 313.30486 C 295.5296 309.52275 291.8129 301.0203 290.953 294.90192 C 290.09313 288.78353 288.8088 277.1788 290.08393 271.4536 C 291.35906 265.7284 288.04943 260.7356 289.34164 256.30646 C 290.63385 251.87733 291.61628 237.96232 293.9534 234.86087 C 296.2905 231.7594 289.41144 182.8123 289.7201 175.14319 C 290.0288 167.47407 292.3365 134.56706 292.83625 128.25759 C 293.336 121.94812 290.00304 93.30009 290.00304 93.30009 C 290.00304 93.30009 287.09267 92.32262 284.27784 92.02497 C 281.46302 91.72732 270.09715 94.71119 263.69213 93.53161 C 257.2871 92.35203 242.53316 90.95932 237.97652 88.13347 C 233.41988 85.30762 228.3745 83.93695 227.6947 84.0325 C 227.01487 84.12804 225.75077 84.99895 225.75077 84.99895 C 225.75077 84.99895 217.9016 78.47634 213.34495 75.65049 C 208.78831 72.82464 197.73112 68.139394 192.68574 66.76873 C 187.64037 65.398065 171.33569 62.8368 171.33569 62.8368 Z" fill="#ff0000"/>
          <path d="M 171.33569 62.8368 C 171.33569 62.8368 180.26158 151.01141 180.33507 161.39981 C 180.40857 171.78821 179.60014 185.7668 179.68466 191.30091 C 179.76918 196.83502 180.43798 201.59377 180.03376 208.58306 C 179.62955 215.57236 177.18587 222.84828 177.65256 231.10167 C 178.11925 239.35507 177.81057 247.02418 177.99064 253.23812 C 178.1707 259.45205 179.06733 270.76464 179.06733 270.76464 C 179.06733 270.76464 166.45289 271.55822 158.6727 273.6309 C 150.89252 275.7036 128.10649 287.97882 121.49936 290.2939 C 114.89224 292.60896 102.45335 297.82337 98.46997 299.07645 C 94.48659 300.32952 89.037 305.94815 85.14916 307.88105 C 81.26132 309.81395 75.12402 312.0351 74.09899 314.2868 C 73.07397 316.53847 73.76124 320.5735 73.76124 320.5735 C 73.76124 320.5735 71.81732 321.53994 71.32858 322.99513 C 70.83985 324.4503 68.502734 327.55177 75.49203 327.956 C 82.48132 328.3602 92.1899 328.38224 99.08365 328.10664 C 105.9774 327.83103 126.26547 329.13922 131.02422 328.47043 C 135.78296 327.80163 165.3646 324.7226 172.72988 324.3257 C 180.09516 323.9288 215.311 321.47743 225.01957 321.49948 C 234.72815 321.52152 265.4046 322.7562 269.48354 322.18296 C 273.56246 321.6097 288.99624 322.90687 289.48497 321.4517 C 289.9737 319.9965 288.42298 318.82795 288.42298 318.82795 C 288.42298 318.82795 290.8559 317.08697 293.19275 313.30486 C 295.5296 309.52275 291.8129 301.0203 290.953 294.90192 C 290.09313 288.78353 288.8088 277.1788 290.08393 271.4536 C 291.35906 265.7284 288.04943 260.7356 289.34164 256.30646 C 290.63385 251.87733 291.61628 237.96232 293.9534 234.86087 C 296.2905 231.7594 289.41144 182.8123 289.7201 175.14319 C 290.0288 167.47407 292.3365 134.56706 292.83625 128.25759 C 293.336 121.94812 290.00304 93.30009 290.00304 93.30009 C 290.00304 93.30009 287.09267 92.32262 284.27784 92.02497 C 281.46302 91.72732 270.09715 94.71119 263.69213 93.53161 C 257.2871 92.35203 242.53316 90.95932 237.97652 88.13347 C 233.41988 85.30762 228.3745 83.93695 227.6947 84.0325 C 227.01487 84.12804 225.75077 84.99895 225.75077 84.99895 C 225.75077 84.99895 217.9016 78.47634 213.34495 75.65049 C 208.78831 72.82464 197.73112 68.139394 192.68574 66.76873 C 187.64037 65.398065 171.33569 62.8368 171.33569 62.8368 Z" stroke="#cccccc" stroke-linecap="round" stroke-linejoin="round" stroke-width="2"/>
        </g>
        <g id="Graphic_15">
          <path d="M 174.58248 247.97048 C 174.58284 247.97348 174.38105 246.83496 174.15167 246.24234 C 173.93373 245.67924 173.6813 245.31975 173.4901 245.22273 C 173.41923 245.18677 173.31829 245.18038 173.15443 245.22116 C 172.8941 245.28596 172.57518 245.4551 172.24858 245.6952 C 171.99725 245.88 171.80397 246.05618 171.71097 246.15345 L 170.86755 247.03558 L 169.1033 245.34875 L 169.94672 244.46662 C 170.12996 244.27497 170.42322 244.00764 170.80273 243.72862 C 171.36392 243.31603 171.9487 243.0059 172.56491 242.85253 C 173.26282 242.67883 173.95757 242.72276 174.59465 243.04605 C 175.44213 243.4761 176.01304 244.28917 176.428 245.36127 C 176.6095 245.8302 176.75063 246.3274 176.85888 246.8318 C 176.92906 247.15878 176.97554 247.44056 177.0027 247.65326 C 177.0059 247.67886 177.0059 247.67886 177.00714 247.68948 L 177.03113 248.3963 L 174.56255 248.57687 Z" fill="#ff0000"/>
          <path d="M 174.58248 247.97048 C 174.58284 247.97348 174.38105 246.83496 174.15167 246.24234 C 173.93373 245.67924 173.6813 245.31975 173.4901 245.22273 C 173.41923 245.18677 173.31829 245.18038 173.15443 245.22116 C 172.8941 245.28596 172.57518 245.4551 172.24858 245.6952 C 171.99725 245.88 171.80397 246.05618 171.71097 246.15345 L 170.86755 247.03558 L 169.1033 245.34875 L 169.94672 244.46662 C 170.12996 244.27497 170.42322 244.00764 170.80273 243.72862 C 171.36392 243.31603 171.9487 243.0059 172.56491 242.85253 C 173.26282 242.67883 173.95757 242.72276 174.59465 243.04605 C 175.44213 243.4761 176.01304 244.28917 176.428 245.36127 C 176.6095 245.8302 176.75063 246.3274 176.85888 246.8318 C 176.92906 247.15878 176.97554 247.44056 177.0027 247.65326 C 177.0059 247.67886 177.0059 247.67886 177.00714 247.68948 L 177.03113 248.3963 L 174.56255 248.57687 Z" stroke="#cccccc" stroke-linecap="round" stroke-linejoin="round" stroke-width="1"/>
        </g>
        <g id="Line_14">
          <path d="M 289.1028 318.7324 C 286.01005 317.4347 283.4551 315.8825 276.42313 315.2187 C 269.39116 314.55493 228.07307 313.3092 207.82683 313.79045 C 187.5806 314.2717 172.5804 316.25757 158.33402 317.72667 C 144.08764 319.19576 136.46513 321.33917 122.38682 321.8462 C 108.3085 322.35323 90.03112 321.12814 73.8557 320.76915" stroke="#cccccc" stroke-linecap="round" stroke-linejoin="round" stroke-width="1"/>
        </g>
        <g id="Line_13">
          <path d="M 288.91403 258.99546 C 287.78125 268.62396 285.88838 278.3675 285.40116 286.6904 C 284.91393 295.01328 286.6729 305.7671 285.78667 308.86537 C 284.90045 311.96365 279.10224 313.76264 277.4862 314.7884 C 275.87016 315.81415 276.82077 315.11723 276.42313 315.2187" stroke="#cccccc" stroke-linecap="round" stroke-linejoin="round" stroke-width="1"/>
        </g>
        <g id="Line_12">
          <path d="M 225.703 84.65904 C 224.53568 102.14419 222.6715 118.48776 221.8724 137.26736 C 221.07327 156.04695 220.38422 181.15164 220.4002 197.33931 C 220.41616 213.527 219.63791 225.0931 218.68793 235.75354 C 217.73794 246.41397 219.19734 255.51615 215.20734 261.31688 C 211.21733 267.1176 199.36655 269.8742 194.74548 270.5614 C 190.12441 271.2486 184.34935 270.7336 179.03695 270.899" stroke="#cccccc" stroke-linecap="round" stroke-linejoin="round" stroke-width="1"/>
        </g>
        <g id="Line_11">
          <path d="M 221.10533 88.05238 C 219.93802 105.53753 218.52812 119.07008 217.729 137.84967 C 216.9299 156.62927 216.5151 182.19742 216.53107 198.3851 C 216.54704 214.57277 216.04145 225.70346 215.09146 236.3639 C 214.14148 247.02433 215.378 251.5407 211.388 257.34142 C 207.39798 263.14215 197.14373 267.08677 192.52266 267.77397 C 187.9016 268.46117 186.63676 270.08476 181.32437 270.25015" stroke="#cccccc" stroke-linecap="round" stroke-linejoin="round" stroke-dasharray="4.0,4.0" stroke-width="1"/>
        </g>
        <g id="Line_10">
          <path d="M 214.04882 263.1694 C 213.59585 272.63686 212.9506 283.3994 211.9904 291.74044 C 211.0302 300.0815 211.03725 306.52228 208.35664 313.716" stroke="#cccccc" stroke-linecap="round" stroke-linejoin="round" stroke-width="1"/>
        </g>
        <g id="Line_9">
          <path d="M 211.12904 265.0163 C 210.67607 274.48376 210.35763 283.52656 209.39742 291.8676 C 208.43722 300.20866 208.44428 306.64944 205.76366 313.84315" stroke="#cccccc" stroke-linecap="round" stroke-linejoin="round" stroke-dasharray="4.0,4.0" stroke-width="1"/>
        </g>
        <g id="Graphic_8">
          <path d="M 179.5375 250.77274 C 179.4461 250.77162 179.27033 250.771 179.02457 250.77266 C 178.61198 250.77543 178.15784 250.78396 177.67665 250.79997 C 176.67901 250.83317 175.70179 250.89388 174.79852 250.98772 C 173.72292 251.09947 172.8124 251.25265 172.12926 251.44598 C 171.08443 251.7417 170.56211 251.99197 170.53714 252.02763 C 170.43868 252.52302 170.92207 252.74918 171.00134 252.8339 C 171.2215 253.0692 172.52728 252.90115 173.95408 252.56568 C 174.7653 252.37192 174.47362 251.2011 174.55928 251.01997 L 177.49304 250.80612 L 177.31633 250.9065 C 177.26639 251.28802 177.13214 252.98816 176.76706 253.49443 C 176.2648 254.19096 175.5065 254.7068 174.4985 254.9438 C 172.29616 255.4616 170.11442 255.30174 169.11468 254.23326 C 167.50211 252.5098 168.3177 249.98795 171.46456 249.09734 C 172.30451 248.85962 173.34308 248.6849 174.5463 248.5599 C 175.51234 248.45953 176.54472 248.3954 177.59548 248.36042 C 178.09932 248.34366 178.57488 248.33473 179.0082 248.33182 C 179.26998 248.33007 179.46104 248.33073 179.56728 248.33203 L 180.78763 248.34692 L 180.75785 250.78763 Z" fill="#ff0000"/>
          <path d="M 179.5375 250.77274 C 179.4461 250.77162 179.27033 250.771 179.02457 250.77266 C 178.61198 250.77543 178.15784 250.78396 177.67665 250.79997 C 176.67901 250.83317 175.70179 250.89388 174.79852 250.98772 C 173.72292 251.09947 172.8124 251.25265 172.12926 251.44598 C 171.08443 251.7417 170.56211 251.99197 170.53714 252.02763 C 170.43868 252.52302 170.92207 252.74918 171.00134 252.8339 C 171.2215 253.0692 172.52728 252.90115 173.95408 252.56568 C 174.7653 252.37192 174.47362 251.2011 174.55928 251.01997 L 177.49304 250.80612 L 177.31633 250.9065 C 177.26639 251.28802 177.13214 252.98816 176.76706 253.49443 C 176.2648 254.19096 175.5065 254.7068 174.4985 254.9438 C 172.29616 255.4616 170.11442 255.30174 169.11468 254.23326 C 167.50211 252.5098 168.3177 249.98795 171.46456 249.09734 C 172.30451 248.85962 173.34308 248.6849 174.5463 248.5599 C 175.51234 248.45953 176.54472 248.3954 177.59548 248.36042 C 178.09932 248.34366 178.57488 248.33473 179.0082 248.33182 C 179.26998 248.33007 179.46104 248.33073 179.56728 248.33203 L 180.78763 248.34692 L 180.75785 250.78763 Z" stroke="#cccccc" stroke-linecap="round" stroke-linejoin="round" stroke-width="1"/>
        </g>
        <g id="Graphic_7">
          <path d="M 204.419 248.56143 C 204.34295 248.59157 204.23472 248.6269 204.09265 248.66393 C 203.03237 248.94027 201.38693 249.0186 199.06218 248.72596 C 198.00473 248.59285 197.17374 248.3732 196.30484 248.03532 C 196.15547 247.97724 196.00816 247.91718 195.82936 247.84218 C 195.76476 247.81508 195.47966 247.69442 195.40454 247.663 C 194.22691 247.17037 193.47052 247.02223 191.90102 247.11674 C 190.29907 247.2132 188.85543 247.6892 187.60637 248.39914 C 187.24608 248.60392 186.9318 248.81214 186.66705 249.0113 C 186.51714 249.1241 186.4229 249.20306 186.38768 249.23545 L 185.48941 250.06165 L 183.83702 248.2651 L 184.73528 247.4389 C 185.055 247.14484 185.616 246.7228 186.40022 246.27707 C 187.9552 245.39325 189.75195 244.80083 191.7543 244.68026 C 193.71927 244.56194 194.84201 244.7818 196.34652 245.4112 C 196.42756 245.4451 196.71415 245.56638 196.77357 245.5913 C 196.93422 245.6587 197.06286 245.71114 197.18946 245.76037 C 197.87905 246.02852 198.51722 246.1972 199.36703 246.30418 C 200.5212 246.44946 201.48908 246.49143 202.28327 246.45362 C 202.82445 246.42786 203.21786 246.3695 203.47704 246.30194 C 203.52324 246.2899 203.53668 246.2855 203.51955 246.2923 L 204.65412 245.84257 L 205.55356 248.1117 Z" fill="#ff0000"/>
          <path d="M 204.419 248.56143 C 204.34295 248.59157 204.23472 248.6269 204.09265 248.66393 C 203.03237 248.94027 201.38693 249.0186 199.06218 248.72596 C 198.00473 248.59285 197.17374 248.3732 196.30484 248.03532 C 196.15547 247.97724 196.00816 247.91718 195.82936 247.84218 C 195.76476 247.81508 195.47966 247.69442 195.40454 247.663 C 194.22691 247.17037 193.47052 247.02223 191.90102 247.11674 C 190.29907 247.2132 188.85543 247.6892 187.60637 248.39914 C 187.24608 248.60392 186.9318 248.81214 186.66705 249.0113 C 186.51714 249.1241 186.4229 249.20306 186.38768 249.23545 L 185.48941 250.06165 L 183.83702 248.2651 L 184.73528 247.4389 C 185.055 247.14484 185.616 246.7228 186.40022 246.27707 C 187.9552 245.39325 189.75195 244.80083 191.7543 244.68026 C 193.71927 244.56194 194.84201 244.7818 196.34652 245.4112 C 196.42756 245.4451 196.71415 245.56638 196.77357 245.5913 C 196.93422 245.6587 197.06286 245.71114 197.18946 245.76037 C 197.87905 246.02852 198.51722 246.1972 199.36703 246.30418 C 200.5212 246.44946 201.48908 246.49143 202.28327 246.45362 C 202.82445 246.42786 203.21786 246.3695 203.47704 246.30194 C 203.52324 246.2899 203.53668 246.2855 203.51955 246.2923 L 204.65412 245.84257 L 205.55356 248.1117 Z" stroke="#cccccc" stroke-linecap="round" stroke-linejoin="round" stroke-width="1"/>
        </g>
        <g id="Graphic_6">
          <path d="M 222.2354 246.0659 C 222.2067 246.05766 222.1422 246.04 222.04446 246.01462 C 221.87597 245.97087 221.67922 245.92277 221.4568 245.87204 C 220.81612 245.7259 220.1027 245.58933 219.33723 245.47577 C 218.17401 245.3032 216.99883 245.20022 215.84528 245.18716 C 213.8968 245.1651 212.16135 245.39266 210.74686 245.73966 C 210.4398 245.815 210.23423 245.87477 210.14082 245.90583 L 208.9827 246.2909 L 208.2126 243.97467 L 209.3707 243.5896 C 209.52459 243.53844 209.79283 243.46043 210.1653 243.36906 C 211.76834 242.9758 213.70488 242.72187 215.87292 242.74642 C 217.14443 242.76082 218.4284 242.87333 219.69542 243.0613 C 220.5258 243.18448 221.3003 243.33275 221.9996 243.49226 C 222.42444 243.58917 222.7341 243.66957 222.909 243.7198 L 224.08205 244.0566 L 223.40844 246.4027 Z" fill="#ff0000"/>
          <path d="M 222.2354 246.0659 C 222.2067 246.05766 222.1422 246.04 222.04446 246.01462 C 221.87597 245.97087 221.67922 245.92277 221.4568 245.87204 C 220.81612 245.7259 220.1027 245.58933 219.33723 245.47577 C 218.17401 245.3032 216.99883 245.20022 215.84528 245.18716 C 213.8968 245.1651 212.16135 245.39266 210.74686 245.73966 C 210.4398 245.815 210.23423 245.87477 210.14082 245.90583 L 208.9827 246.2909 L 208.2126 243.97467 L 209.3707 243.5896 C 209.52459 243.53844 209.79283 243.46043 210.1653 243.36906 C 211.76834 242.9758 213.70488 242.72187 215.87292 242.74642 C 217.14443 242.76082 218.4284 242.87333 219.69542 243.0613 C 220.5258 243.18448 221.3003 243.33275 221.9996 243.49226 C 222.42444 243.58917 222.7341 243.66957 222.909 243.7198 L 224.08205 244.0566 L 223.40844 246.4027 Z" stroke="#cccccc" stroke-linecap="round" stroke-linejoin="round" stroke-width="1"/>
        </g>
        <g id="Graphic_5">
          <path d="M 250.2251 253.20067 C 250.19162 253.18943 250.12443 253.16704 250.02528 253.1343 C 249.8588 253.07932 249.66384 253.01556 249.44212 252.9438 C 248.8073 252.7383 248.08633 252.51014 247.29316 252.2656 C 245.02634 251.5667 242.63748 250.87716 240.2389 250.24718 C 237.84188 249.6176 235.57418 249.08404 233.50788 248.64465 C 232.78578 248.4911 232.14088 248.36037 231.58218 248.2522 C 231.24905 248.18773 231.02002 248.14533 230.90408 248.12477 L 229.70237 247.9117 L 230.12852 245.50829 L 231.33022 245.72136 C 231.36376 245.7273 231.42674 245.7387 231.51804 245.75562 C 231.66834 245.78344 231.84472 245.81683 232.04607 245.8558 C 232.61912 245.96673 233.2786 246.10042 234.01557 246.25713 C 236.11803 246.7042 238.42292 247.24654 240.85897 247.88636 C 243.29348 248.52577 245.71464 249.22464 248.01232 249.93304 C 248.81672 250.18105 249.5485 250.41263 250.19385 250.62153 C 250.4202 250.6948 250.6197 250.76005 250.79065 250.8165 C 250.89394 250.8506 250.9652 250.87435 251.0027 250.88695 L 252.15955 251.27576 L 251.38195 253.58948 Z" fill="#ff0000"/>
          <path d="M 250.2251 253.20067 C 250.19162 253.18943 250.12443 253.16704 250.02528 253.1343 C 249.8588 253.07932 249.66384 253.01556 249.44212 252.9438 C 248.8073 252.7383 248.08633 252.51014 247.29316 252.2656 C 245.02634 251.5667 242.63748 250.87716 240.2389 250.24718 C 237.84188 249.6176 235.57418 249.08404 233.50788 248.64465 C 232.78578 248.4911 232.14088 248.36037 231.58218 248.2522 C 231.24905 248.18773 231.02002 248.14533 230.90408 248.12477 L 229.70237 247.9117 L 230.12852 245.50829 L 231.33022 245.72136 C 231.36376 245.7273 231.42674 245.7387 231.51804 245.75562 C 231.66834 245.78344 231.84472 245.81683 232.04607 245.8558 C 232.61912 245.96673 233.2786 246.10042 234.01557 246.25713 C 236.11803 246.7042 238.42292 247.24654 240.85897 247.88636 C 243.29348 248.52577 245.71464 249.22464 248.01232 249.93304 C 248.81672 250.18105 249.5485 250.41263 250.19385 250.62153 C 250.4202 250.6948 250.6197 250.76005 250.79065 250.8165 C 250.89394 250.8506 250.9652 250.87435 251.0027 250.88695 L 252.15955 251.27576 L 251.38195 253.58948 Z" stroke="#cccccc" stroke-linecap="round" stroke-linejoin="round" stroke-width="1"/>
        </g>
        <g id="Graphic_4">
          <path d="M 280.7475 255.95294 C 280.7067 255.95113 280.6301 255.94762 280.5184 255.94233 C 280.33288 255.93355 280.11728 255.923 279.87385 255.91067 C 279.17907 255.87547 278.40006 255.83304 277.55484 255.7833 C 275.13964 255.64118 272.67647 255.46897 270.3088 255.26597 C 267.9387 255.06276 265.80417 254.84068 263.9389 254.6156 C 263.2847 254.53664 262.7105 254.4629 262.22053 254.39633 C 261.92455 254.35612 261.72122 254.32705 261.61477 254.3111 L 260.40778 254.13034 L 260.7693 251.71637 L 261.9763 251.89714 C 262.0719 251.91145 262.26425 251.93895 262.54912 251.97765 C 263.0272 252.0426 263.58935 252.1148 264.23132 252.19227 C 266.06933 252.41407 268.17597 252.63325 270.51732 252.834 C 272.8611 253.03495 275.30325 253.2057 277.69823 253.34662 C 278.53657 253.39595 279.309 253.43802 279.99736 253.4729 C 280.23803 253.4851 280.45093 253.4955 280.63378 253.50417 C 280.74307 253.50934 280.81835 253.5128 280.85572 253.51444 L 282.07497 253.56855 L 281.96676 256.00704 Z" fill="#ff0000"/>
          <path d="M 280.7475 255.95294 C 280.7067 255.95113 280.6301 255.94762 280.5184 255.94233 C 280.33288 255.93355 280.11728 255.923 279.87385 255.91067 C 279.17907 255.87547 278.40006 255.83304 277.55484 255.7833 C 275.13964 255.64118 272.67647 255.46897 270.3088 255.26597 C 267.9387 255.06276 265.80417 254.84068 263.9389 254.6156 C 263.2847 254.53664 262.7105 254.4629 262.22053 254.39633 C 261.92455 254.35612 261.72122 254.32705 261.61477 254.3111 L 260.40778 254.13034 L 260.7693 251.71637 L 261.9763 251.89714 C 262.0719 251.91145 262.26425 251.93895 262.54912 251.97765 C 263.0272 252.0426 263.58935 252.1148 264.23132 252.19227 C 266.06933 252.41407 268.17597 252.63325 270.51732 252.834 C 272.8611 253.03495 275.30325 253.2057 277.69823 253.34662 C 278.53657 253.39595 279.309 253.43802 279.99736 253.4729 C 280.23803 253.4851 280.45093 253.4955 280.63378 253.50417 C 280.74307 253.50934 280.81835 253.5128 280.85572 253.51444 L 282.07497 253.56855 L 281.96676 256.00704 Z" stroke="#cccccc" stroke-linecap="round" stroke-linejoin="round" stroke-width="1"/>
        </g>
      </g>
    </g>
  </g>
</svg>
