<?xml version="1.0" encoding="UTF-8" standalone="no"?>
<!DOCTYPE svg PUBLIC "-//W3C//DTD SVG 1.1//EN" "http://www.w3.org/Graphics/SVG/1.1/DTD/svg11.dtd">
<svg xmlns:dc="http://purl.org/dc/elements/1.1/" xmlns:xl="http://www.w3.org/1999/xlink" version="1.1" xmlns="http://www.w3.org/2000/svg" viewBox="54 63 256.5 346.5" width="256.5" height="346.5">
  <defs>
    <clipPath id="artboard_clip_path">
      <path d="M 54 63 L 310.5 63 L 310.5 409.5 L 54 409.5 Z"/>
    </clipPath>
  </defs>
  <metadata> Produced by OmniGraffle 7.7.1 
    <dc:date>2018-03-18 08:21:30 +0000</dc:date><dc:title>Traceable heraldic art http://heraldicart.org/credits.html</dc:title>
  </metadata>
  <g id="Garter" fill-opacity="1" stroke-dasharray="none" stroke="none" stroke-opacity="1" fill="#ffff00">
    <title>Garter</title>
    <g id="Garter: Layer 2" >
      <title>Layer 2</title>
      <g id="Group_3">
        <g id="Graphic_22">
          <path d="M 101.16834 184.69062 C 98.45188 213.73007 111.47862 242.0038 135.31712 258.8084 C 159.15562 275.613 190.16275 278.38033 216.60033 266.06274 C 243.03792 253.74515 260.86563 228.22511 263.33454 199.16357 C 266.051 170.12412 253.02426 141.85039 229.18576 125.04578 C 205.34726 108.24117 174.34014 105.47386 147.90255 117.79145 C 121.46496 130.10904 103.63726 155.62908 101.16834 184.69062 Z M 110.0954 185.48734 C 112.18131 159.53672 128.03122 136.70084 151.61321 125.67021 C 175.19521 114.63958 202.8826 117.11061 224.13854 132.14292 C 245.39448 147.17523 256.95 172.45699 254.4075 198.36685 C 250.52436 237.93855 215.4725 266.98525 175.86814 263.45065 C 136.26378 259.91606 106.90962 225.12128 110.0954 185.48734 Z" fill="#ff0000"/>
          <path d="M 101.16834 184.69062 C 98.45188 213.73007 111.47862 242.0038 135.31712 258.8084 C 159.15562 275.613 190.16275 278.38033 216.60033 266.06274 C 243.03792 253.74515 260.86563 228.22511 263.33454 199.16357 C 266.051 170.12412 253.02426 141.85039 229.18576 125.04578 C 205.34726 108.24117 174.34014 105.47386 147.90255 117.79145 C 121.46496 130.10904 103.63726 155.62908 101.16834 184.69062 Z M 110.0954 185.48734 C 112.18131 159.53672 128.03122 136.70084 151.61321 125.67021 C 175.19521 114.63958 202.8826 117.11061 224.13854 132.14292 C 245.39448 147.17523 256.95 172.45699 254.4075 198.36685 C 250.52436 237.93855 215.4725 266.98525 175.86814 263.45065 C 136.26378 259.91606 106.90962 225.12128 110.0954 185.48734 Z" stroke="#cccccc" stroke-linecap="round" stroke-linejoin="round" stroke-width="2"/>
        </g>
        <g id="Graphic_21">
          <path d="M 56.81866 180.73385 C 52.536504 225.69963 72.66458 269.51486 109.56833 295.56043 C 146.47207 321.606 194.49854 325.89225 235.4313 306.7934 C 276.3641 287.69455 303.93307 248.13618 307.68134 203.12275 C 311.9635 158.15697 291.8354 114.34175 254.93167 88.29617 C 218.02793 62.250596 170.00146 57.96435 129.06869 77.0632 C 88.13591 96.16205 60.566934 135.72042 56.81866 180.73385 Z M 67.092495 181.65077 C 72.7688 118.049 128.92978 71.09114 192.53154 76.76744 C 256.1333 82.44375 303.09117 138.60473 297.41486 202.2065 C 291.73856 265.80826 235.57758 312.76612 171.97582 307.0898 C 108.37405 301.4135 61.41619 245.25253 67.092495 181.65077 Z" fill="#ff0000"/>
          <path d="M 56.81866 180.73385 C 52.536504 225.69963 72.66458 269.51486 109.56833 295.56043 C 146.47207 321.606 194.49854 325.89225 235.4313 306.7934 C 276.3641 287.69455 303.93307 248.13618 307.68134 203.12275 C 311.9635 158.15697 291.8354 114.34175 254.93167 88.29617 C 218.02793 62.250596 170.00146 57.96435 129.06869 77.0632 C 88.13591 96.16205 60.566934 135.72042 56.81866 180.73385 Z M 67.092495 181.65077 C 72.7688 118.049 128.92978 71.09114 192.53154 76.76744 C 256.1333 82.44375 303.09117 138.60473 297.41486 202.2065 C 291.73856 265.80826 235.57758 312.76612 171.97582 307.0898 C 108.37405 301.4135 61.41619 245.25253 67.092495 181.65077 Z" stroke="#cccccc" stroke-linecap="round" stroke-linejoin="round" stroke-width="2"/>
        </g>
        <g id="Graphic_20">
          <path d="M 67.09169 181.65144 C 61.41539 245.2532 108.37325 301.41418 171.97502 307.0905 C 235.57678 312.7668 291.73776 265.80893 297.41406 202.20716 C 303.09037 138.6054 256.1325 82.44442 192.53074 76.768115 C 128.92897 71.09181 72.768 118.04967 67.09169 181.65144 Z M 101.1661 184.6925 C 103.63501 155.63095 121.46272 130.11091 147.9003 117.79333 C 174.3379 105.47574 205.34502 108.24305 229.18352 125.04766 C 253.02202 141.85227 266.04876 170.126 263.3323 199.16545 C 260.8634 228.227 243.03568 253.74703 216.5981 266.06462 C 190.1605 278.3822 159.15338 275.6149 135.31488 258.81028 C 111.47638 242.00568 98.44964 213.73195 101.1661 184.6925 Z" fill="#ff0000"/>
          <path d="M 67.09169 181.65144 C 61.41539 245.2532 108.37325 301.41418 171.97502 307.0905 C 235.57678 312.7668 291.73776 265.80893 297.41406 202.20716 C 303.09037 138.6054 256.1325 82.44442 192.53074 76.768115 C 128.92897 71.09181 72.768 118.04967 67.09169 181.65144 Z M 101.1661 184.6925 C 103.63501 155.63095 121.46272 130.11091 147.9003 117.79333 C 174.3379 105.47574 205.34502 108.24305 229.18352 125.04766 C 253.02202 141.85227 266.04876 170.126 263.3323 199.16545 C 260.8634 228.227 243.03568 253.74703 216.5981 266.06462 C 190.1605 278.3822 159.15338 275.6149 135.31488 258.81028 C 111.47638 242.00568 98.44964 213.73195 101.1661 184.6925 Z" stroke="#cccccc" stroke-linecap="round" stroke-linejoin="round" stroke-width="1"/>
        </g>
        <g id="Graphic_19">
          <path d="M 117.9871 274.58643 C 118.51236 268.701 123.70926 264.3557 129.5947 264.88096 C 135.48014 265.40623 139.82542 270.60313 139.30016 276.48857 C 138.96037 280.29578 136.61528 283.6325 133.14824 285.24186 C 129.6812 286.8512 125.61896 286.48866 122.49171 284.2908 C 119.36446 282.09292 117.64731 278.39364 117.9871 274.58643 Z" fill="#ff0000"/>
          <path d="M 117.9871 274.58643 C 118.51236 268.701 123.70926 264.3557 129.5947 264.88096 C 135.48014 265.40623 139.82542 270.60313 139.30016 276.48857 C 138.96037 280.29578 136.61528 283.6325 133.14824 285.24186 C 129.6812 286.8512 125.61896 286.48866 122.49171 284.2908 C 119.36446 282.09292 117.64731 278.39364 117.9871 274.58643 Z" stroke="#cccccc" stroke-linecap="round" stroke-linejoin="round" stroke-width="2"/>
        </g>
        <g id="Graphic_18">
          <path d="M 124.73872 275.18624 C 124.93115 273.03 126.83513 271.43804 128.99136 271.63047 C 131.1476 271.8229 132.73956 273.7269 132.54713 275.88312 C 132.42264 277.27796 131.56347 278.50043 130.29326 279.09004 C 129.02306 279.67965 127.53478 279.54683 126.38906 278.7416 C 125.24334 277.93637 124.61423 276.58108 124.73872 275.18624 Z" fill="#ff0000"/>
          <path d="M 124.73872 275.18624 C 124.93115 273.03 126.83513 271.43804 128.99136 271.63047 C 131.1476 271.8229 132.73956 273.7269 132.54713 275.88312 C 132.42264 277.27796 131.56347 278.50043 130.29326 279.09004 C 129.02306 279.67965 127.53478 279.54683 126.38906 278.7416 C 125.24334 277.93637 124.61423 276.58108 124.73872 275.18624 Z" stroke="#cccccc" stroke-linecap="round" stroke-linejoin="round" stroke-width="2"/>
        </g>
        <g id="Graphic_17">
          <path d="M 90.64739 253.262 C 90.14268 247.37477 94.50607 242.19307 100.39331 241.68836 C 106.28055 241.18365 111.46225 245.54704 111.96696 251.43428 C 112.29346 255.24265 110.5634 258.93592 107.4285 261.12286 C 104.2936 263.3098 100.23011 263.65816 96.76872 262.03672 C 93.30732 260.4153 90.97388 257.0704 90.64739 253.262 Z" fill="#ff0000"/>
          <path d="M 90.64739 253.262 C 90.14268 247.37477 94.50607 242.19307 100.39331 241.68836 C 106.28055 241.18365 111.46225 245.54704 111.96696 251.43428 C 112.29346 255.24265 110.5634 258.93592 107.4285 261.12286 C 104.2936 263.3098 100.23011 263.65816 96.76872 262.03672 C 93.30732 260.4153 90.97388 257.0704 90.64739 253.262 Z" stroke="#cccccc" stroke-linecap="round" stroke-linejoin="round" stroke-width="2"/>
        </g>
        <g id="Graphic_16">
          <path d="M 97.4006 252.6803 C 97.21568 250.52342 98.81429 248.625 100.97118 248.4401 C 103.12807 248.2552 105.02648 249.8538 105.21139 252.0107 C 105.33101 253.40595 104.69717 254.75904 103.54865 255.56026 C 102.40012 256.3615 100.91139 256.48912 99.64325 255.89508 C 98.37511 255.30103 97.52021 254.07557 97.4006 252.6803 Z" fill="#ff0000"/>
          <path d="M 97.4006 252.6803 C 97.21568 250.52342 98.81429 248.625 100.97118 248.4401 C 103.12807 248.2552 105.02648 249.8538 105.21139 252.0107 C 105.33101 253.40595 104.69717 254.75904 103.54865 255.56026 C 102.40012 256.3615 100.91139 256.48912 99.64325 255.89508 C 98.37511 255.30103 97.52021 254.07557 97.4006 252.6803 Z" stroke="#cccccc" stroke-linecap="round" stroke-linejoin="round" stroke-width="2"/>
        </g>
        <g id="Graphic_15">
          <path d="M 86.42853 235.70246 C 74.51813 234.77146 63.68417 242.59832 60.82657 254.19824 C 57.96898 265.79817 63.92763 277.76182 74.907585 282.46977 C 79.75696 286.9706 84.94107 291.0967 90.41522 294.81255 C 88.95206 297.92778 89.5998 301.62603 92.03464 304.05853 C 94.46948 306.49104 98.16835 307.13523 101.28217 305.6691 C 104.396 304.20294 106.25586 300.9414 105.932 297.51496 C 104.93295 292.95565 102.0141 289.04967 97.92473 286.7997 L 81.88362 271.78065 C 79.06883 268.8185 78.08675 264.5604 79.31984 260.66466 C 80.55293 256.7689 83.80624 253.8514 87.81279 253.04835 C 91.99696 253.24267 96.08278 251.7419 99.14636 248.88543 C 102.20995 246.02894 103.99255 242.058 104.0911 237.87047 C 104.91031 233.86806 107.84002 230.62712 111.73969 229.40935 C 115.63936 228.19157 119.89273 229.18942 122.84397 232.0144 L 137.80694 248.10016 C 140.04264 252.20206 143.94179 255.13777 148.50187 256.15248 C 151.92387 256.47944 155.18406 254.62773 156.65591 251.52118 C 158.12776 248.41462 157.49588 244.7189 155.07552 242.2778 C 152.65516 239.83672 148.96496 239.17336 145.84597 240.61867 C 142.15139 235.1345 138.04597 229.9386 133.56506 225.07574 C 128.89032 214.20183 117.1287 208.20482 105.5823 210.8079 C 94.03591 213.41098 85.98526 223.87458 86.42853 235.70246 Z" fill="#ff0000"/>
          <path d="M 86.42853 235.70246 C 74.51813 234.77146 63.68417 242.59832 60.82657 254.19824 C 57.96898 265.79817 63.92763 277.76182 74.907585 282.46977 C 79.75696 286.9706 84.94107 291.0967 90.41522 294.81255 C 88.95206 297.92778 89.5998 301.62603 92.03464 304.05853 C 94.46948 306.49104 98.16835 307.13523 101.28217 305.6691 C 104.396 304.20294 106.25586 300.9414 105.932 297.51496 C 104.93295 292.95565 102.0141 289.04967 97.92473 286.7997 L 81.88362 271.78065 C 79.06883 268.8185 78.08675 264.5604 79.31984 260.66466 C 80.55293 256.7689 83.80624 253.8514 87.81279 253.04835 C 91.99696 253.24267 96.08278 251.7419 99.14636 248.88543 C 102.20995 246.02894 103.99255 242.058 104.0911 237.87047 C 104.91031 233.86806 107.84002 230.62712 111.73969 229.40935 C 115.63936 228.19157 119.89273 229.18942 122.84397 232.0144 L 137.80694 248.10016 C 140.04264 252.20206 143.94179 255.13777 148.50187 256.15248 C 151.92387 256.47944 155.18406 254.62773 156.65591 251.52118 C 158.12776 248.41462 157.49588 244.7189 155.07552 242.2778 C 152.65516 239.83672 148.96496 239.17336 145.84597 240.61867 C 142.15139 235.1345 138.04597 229.9386 133.56506 225.07574 C 128.89032 214.20183 117.1287 208.20482 105.5823 210.8079 C 94.03591 213.41098 85.98526 223.87458 86.42853 235.70246 Z" stroke="#cccccc" stroke-linecap="round" stroke-linejoin="round" stroke-width="2"/>
        </g>
        <g id="Graphic_14">
          <path d="M 98.71017 255.50237 C 90.27267 247.15135 85.49998 235.7894 85.44288 223.91812 L 105.15426 249.6056 C 105.96429 251.4157 105.52354 253.54113 104.06055 254.87986 C 102.59755 256.2186 100.44144 256.46946 98.71017 255.50237 Z" fill="#ff0000"/>
          <path d="M 98.71017 255.50237 C 90.27267 247.15135 85.49998 235.7894 85.44288 223.91812 L 105.15426 249.6056 C 105.96429 251.4157 105.52354 253.54113 104.06055 254.87986 C 102.59755 256.2186 100.44144 256.46946 98.71017 255.50237 Z" stroke="#cccccc" stroke-linecap="round" stroke-linejoin="round" stroke-width="2"/>
        </g>
        <g id="Graphic_13">
          <path d="M 174.06547 263.33598 C 185.67383 265.74606 194.6555 274.96415 196.7632 286.6312 C 197.94835 298.99627 206.76935 309.2859 218.80814 312.34648 C 216.98656 316.24853 212.45816 318.07824 208.43716 316.5369 C 197.95534 310.43124 191.0182 299.68837 189.766 287.62274 C 187.34804 278.3922 180.25963 271.10996 171.09767 268.4439 Z" fill="#ff0000"/>
          <path d="M 174.06547 263.33598 C 185.67383 265.74606 194.6555 274.96415 196.7632 286.6312 C 197.94835 298.99627 206.76935 309.2859 218.80814 312.34648 C 216.98656 316.24853 212.45816 318.07824 208.43716 316.5369 C 197.95534 310.43124 191.0182 299.68837 189.766 287.62274 C 187.34804 278.3922 180.25963 271.10996 171.09767 268.4439 Z" stroke="#cccccc" stroke-linecap="round" stroke-linejoin="round" stroke-width="2"/>
        </g>
        <g id="Graphic_12">
          <path d="M 202.56258 260.38378 C 213.93593 258.91966 225.05858 264.51022 230.66932 274.51104 C 236.0121 285.72507 247.82038 292.3772 260.17993 291.1357 C 259.80278 295.42544 256.17328 298.6936 251.8676 298.62048 C 239.93241 296.46587 229.7425 288.74382 224.44062 277.83597 C 219.01005 269.98674 209.85502 265.56774 200.33118 266.1987 C 200.1305 264.0189 200.9552 261.86978 202.56258 260.38378 Z" fill="#ff0000"/>
          <path d="M 202.56258 260.38378 C 213.93593 258.91966 225.05858 264.51022 230.66932 274.51104 C 236.0121 285.72507 247.82038 292.3772 260.17993 291.1357 C 259.80278 295.42544 256.17328 298.6936 251.8676 298.62048 C 239.93241 296.46587 229.7425 288.74382 224.44062 277.83597 C 219.01005 269.98674 209.85502 265.56774 200.33118 266.1987 C 200.1305 264.0189 200.9552 261.86978 202.56258 260.38378 Z" stroke="#cccccc" stroke-linecap="round" stroke-linejoin="round" stroke-width="2"/>
        </g>
        <g id="Graphic_11">
          <path d="M 199.6073 265.78744 C 209.91457 263.85883 220.265 268.9274 225.0615 278.25224 C 230.1416 288.24457 239.38644 295.4738 250.3088 297.99494 C 240.45206 304.7081 229.52623 309.69756 217.99787 312.75024 C 207.79314 309.08465 199.58168 301.3258 195.344 291.34507 Z" fill="#ff0000"/>
          <path d="M 199.6073 265.78744 C 209.91457 263.85883 220.265 268.9274 225.0615 278.25224 C 230.1416 288.24457 239.38644 295.4738 250.3088 297.99494 C 240.45206 304.7081 229.52623 309.69756 217.99787 312.75024 C 207.79314 309.08465 199.58168 301.3258 195.344 291.34507 Z" stroke="#cccccc" stroke-linecap="round" stroke-linejoin="round" stroke-width="1"/>
        </g>
        <g id="Graphic_10">
          <path d="M 199.87437 388.6254 L 200.19374 262.87652 C 200.47005 261.39097 201.3244 260.16557 202.50872 259.55608 C 203.69305 258.94658 205.07468 259.02127 206.2525 259.75847 L 212.59203 256.22666 C 209.40675 251.94684 204.38886 250.23424 199.7435 251.84145 C 195.09812 253.44867 191.6756 258.08152 190.97999 263.70406 L 191.29914 388.6254 Z" fill="#ff0000"/>
          <path d="M 199.87437 388.6254 L 200.19374 262.87652 C 200.47005 261.39097 201.3244 260.16557 202.50872 259.55608 C 203.69305 258.94658 205.07468 259.02127 206.2525 259.75847 L 212.59203 256.22666 C 209.40675 251.94684 204.38886 250.23424 199.7435 251.84145 C 195.09812 253.44867 191.6756 258.08152 190.97999 263.70406 L 191.29914 388.6254 Z" stroke="#cccccc" stroke-linecap="round" stroke-linejoin="round" stroke-width="2"/>
        </g>
        <g id="Graphic_9">
          <path d="M 165.51676 388.6254 L 165.83612 262.87652 C 165.95584 261.66022 166.67737 260.64207 167.6749 260.2818 C 168.67242 259.92154 169.75716 260.28735 170.4393 261.21405 L 178.23442 256.22666 C 175.04914 251.94684 170.03124 250.23424 165.38588 251.84145 C 160.7405 253.44867 157.318 258.08152 156.62237 263.70406 L 156.94152 388.6254 Z" fill="#ff0000"/>
          <path d="M 165.51676 388.6254 L 165.83612 262.87652 C 165.95584 261.66022 166.67737 260.64207 167.6749 260.2818 C 168.67242 259.92154 169.75716 260.28735 170.4393 261.21405 L 178.23442 256.22666 C 175.04914 251.94684 170.03124 250.23424 165.38588 251.84145 C 160.7405 253.44867 157.318 258.08152 156.62237 263.70406 L 156.94152 388.6254 Z" stroke="#cccccc" stroke-linecap="round" stroke-linejoin="round" stroke-width="2"/>
        </g>
        <g id="Graphic_8">
          <path d="M 191.2312 388.6254 L 191.2312 264.95645 C 191.02156 260.6872 193.1163 256.56554 196.9353 253.73296 L 173.37263 254.14673 C 168.3622 255.43996 164.94147 259.316 164.9347 263.70775 L 165.16212 388.6254 Z" fill="#ff0000"/>
          <path d="M 191.2312 388.6254 L 191.2312 264.95645 C 191.02156 260.6872 193.1163 256.56554 196.9353 253.73296 L 173.37263 254.14673 C 168.3622 255.43996 164.94147 259.316 164.9347 263.70775 L 165.16212 388.6254 Z" stroke="#cccccc" stroke-linecap="round" stroke-linejoin="round" stroke-width="1"/>
        </g>
        <g id="Group_4">
          <g id="Graphic_7">
            <ellipse cx="177.68786" cy="399.8811" rx="9.49821781420573" ry="7.36751754937934" fill="#ff0000"/>
            <ellipse cx="177.68786" cy="399.8811" rx="9.49821781420573" ry="7.36751754937934" stroke="#cccccc" stroke-linecap="round" stroke-linejoin="round" stroke-width="2"/>
          </g>
          <g id="Graphic_6">
            <path d="M 190.90565 391.05266 C 192.86545 391.05327 194.74515 390.275 196.13094 388.8892 C 197.51673 387.50343 198.29499 385.62372 198.29438 383.66392 C 198.29499 381.70412 197.51673 379.8244 196.13094 378.43863 C 194.74515 377.05284 192.86545 376.2746 190.90565 376.2752 L 164.46875 376.2752 C 162.50895 376.2746 160.62925 377.05284 159.24346 378.43863 C 157.85767 379.8244 157.07941 381.70412 157.08002 383.66392 C 157.07941 385.62372 157.85767 387.50343 159.24346 388.8892 C 160.62925 390.275 162.50895 391.05327 164.46875 391.05266 Z" fill="#ff0000"/>
            <path d="M 190.90565 391.05266 C 192.86545 391.05327 194.74515 390.275 196.13094 388.8892 C 197.51673 387.50343 198.29499 385.62372 198.29438 383.66392 C 198.29499 381.70412 197.51673 379.8244 196.13094 378.43863 C 194.74515 377.05284 192.86545 376.2746 190.90565 376.2752 L 164.46875 376.2752 C 162.50895 376.2746 160.62925 377.05284 159.24346 378.43863 C 157.85767 379.8244 157.07941 381.70412 157.08002 383.66392 C 157.07941 385.62372 157.85767 387.50343 159.24346 388.8892 C 160.62925 390.275 162.50895 391.05327 164.46875 391.05266 Z" stroke="#cccccc" stroke-linecap="round" stroke-linejoin="round" stroke-width=".5"/>
          </g>
          <g id="Graphic_5">
            <path d="M 177.79249 354.7665 L 177.79249 354.54485 C 177.75785 354.5817 177.72337 354.61865 177.68905 354.6557 C 177.65226 354.61864 177.61532 354.5817 177.57822 354.54485 L 177.5856 354.7665 C 172.74326 359.8471 171.09196 366.34386 173.08587 372.4699 C 168.82657 371.14704 163.95752 372.38567 161.53549 375.4082 C 159.11346 378.43074 159.83682 382.36564 163.25146 384.7426 C 162.12958 383.64992 162.02825 382.12467 162.99938 380.94832 C 163.97051 379.772 165.7989 379.20523 167.54775 379.53846 C 169.29659 379.8717 170.57833 381.03106 170.73625 382.42254 C 170.78286 383.77444 169.7934 385.01954 168.21543 385.59466 C 166.63745 386.1698 164.77023 385.96584 163.45834 385.0751 C 160.25146 383.45464 158.69174 380.4525 159.55402 377.56005 C 160.4163 374.6676 163.5168 372.50135 167.31526 372.13743 C 168.51153 367.1645 166.42358 362.05693 161.75155 358.52738 C 160.1617 356.2842 156.75897 355.21594 153.60525 355.96994 C 150.45153 356.72394 148.41456 359.0927 148.72863 361.6409 C 149.0427 364.1891 151.62142 366.2156 154.9022 366.49243 C 156.14254 372.0474 155.55548 377.75535 153.1954 383.08753 C 150.6469 386.4891 150.8526 390.72513 153.72375 393.96836 C 156.5949 397.2116 161.6178 398.88177 166.6258 398.25843 C 171.63379 397.6351 175.73084 394.8298 177.14967 391.0526 L 178.22104 391.0526 C 179.6479 394.82246 183.74349 397.6193 188.74525 398.23945 C 193.747 398.8596 198.7625 397.1924 201.63326 393.95537 C 204.50402 390.71833 204.71784 386.489 202.1827 383.08753 C 199.82014 377.75584 199.23054 372.0479 200.46851 366.49243 C 203.7508 366.2184 206.33294 364.19296 206.64946 361.64407 C 206.96597 359.0952 204.92971 356.7247 201.7752 355.96973 C 198.6207 355.2148 195.21653 356.28326 193.62655 358.52738 C 188.9545 362.05693 186.86656 367.1645 188.06283 372.13743 C 191.8601 372.5033 194.95822 374.6703 195.81873 377.56235 C 196.67924 380.4544 195.11883 383.4554 191.91236 385.0751 C 190.60013 385.96198 188.73624 386.16357 187.16128 385.58897 C 185.58633 385.01437 184.59793 383.77215 184.64185 382.42254 C 184.79977 381.03106 186.0815 379.8717 187.83035 379.53846 C 189.5792 379.20523 191.40758 379.772 192.37871 380.94832 C 193.34984 382.12467 193.24851 383.64992 192.12663 384.7426 C 195.54703 382.3657 196.2725 378.42663 193.8469 375.40194 C 191.42133 372.37725 186.54547 371.1408 182.28484 372.4699 C 184.28084 366.3447 182.63227 359.84805 177.79249 354.7665 Z" fill="#ff0000"/>
            <path d="M 177.79249 354.7665 L 177.79249 354.54485 C 177.75785 354.5817 177.72337 354.61865 177.68905 354.6557 C 177.65226 354.61864 177.61532 354.5817 177.57822 354.54485 L 177.5856 354.7665 C 172.74326 359.8471 171.09196 366.34386 173.08587 372.4699 C 168.82657 371.14704 163.95752 372.38567 161.53549 375.4082 C 159.11346 378.43074 159.83682 382.36564 163.25146 384.7426 C 162.12958 383.64992 162.02825 382.12467 162.99938 380.94832 C 163.97051 379.772 165.7989 379.20523 167.54775 379.53846 C 169.29659 379.8717 170.57833 381.03106 170.73625 382.42254 C 170.78286 383.77444 169.7934 385.01954 168.21543 385.59466 C 166.63745 386.1698 164.77023 385.96584 163.45834 385.0751 C 160.25146 383.45464 158.69174 380.4525 159.55402 377.56005 C 160.4163 374.6676 163.5168 372.50135 167.31526 372.13743 C 168.51153 367.1645 166.42358 362.05693 161.75155 358.52738 C 160.1617 356.2842 156.75897 355.21594 153.60525 355.96994 C 150.45153 356.72394 148.41456 359.0927 148.72863 361.6409 C 149.0427 364.1891 151.62142 366.2156 154.9022 366.49243 C 156.14254 372.0474 155.55548 377.75535 153.1954 383.08753 C 150.6469 386.4891 150.8526 390.72513 153.72375 393.96836 C 156.5949 397.2116 161.6178 398.88177 166.6258 398.25843 C 171.63379 397.6351 175.73084 394.8298 177.14967 391.0526 L 178.22104 391.0526 C 179.6479 394.82246 183.74349 397.6193 188.74525 398.23945 C 193.747 398.8596 198.7625 397.1924 201.63326 393.95537 C 204.50402 390.71833 204.71784 386.489 202.1827 383.08753 C 199.82014 377.75584 199.23054 372.0479 200.46851 366.49243 C 203.7508 366.2184 206.33294 364.19296 206.64946 361.64407 C 206.96597 359.0952 204.92971 356.7247 201.7752 355.96973 C 198.6207 355.2148 195.21653 356.28326 193.62655 358.52738 C 188.9545 362.05693 186.86656 367.1645 188.06283 372.13743 C 191.8601 372.5033 194.95822 374.6703 195.81873 377.56235 C 196.67924 380.4544 195.11883 383.4554 191.91236 385.0751 C 190.60013 385.96198 188.73624 386.16357 187.16128 385.58897 C 185.58633 385.01437 184.59793 383.77215 184.64185 382.42254 C 184.79977 381.03106 186.0815 379.8717 187.83035 379.53846 C 189.5792 379.20523 191.40758 379.772 192.37871 380.94832 C 193.34984 382.12467 193.24851 383.64992 192.12663 384.7426 C 195.54703 382.3657 196.2725 378.42663 193.8469 375.40194 C 191.42133 372.37725 186.54547 371.1408 182.28484 372.4699 C 184.28084 366.3447 182.63227 359.84805 177.79249 354.7665 Z" stroke="#cccccc" stroke-linecap="round" stroke-linejoin="round" stroke-width="2"/>
          </g>
        </g>
      </g>
    </g>
  </g>
</svg>
