<?xml version="1.0" encoding="utf-8"?>
<svg xmlns:dc="http://purl.org/dc/elements/1.1/" xmlns:xl="http://www.w3.org/1999/xlink"
     xmlns="http://www.w3.org/2000/svg"
     xmlns:xlink="http://www.w3.org/1999/xlink"
     version="1.1"
     viewBox="63 90 238.5 297"
     width="238.5"
     height="297"
     preserveAspectRatio="xMidYMid meet"
     zoomAndPan="magnify"
     contentScriptType="application/ecmascript"
     contentStyleType="text/css">
   <defs/>
   <metadata  xmlns:svg="http://www.w3.org/2000/svg"
             xmlns:rdf="http://www.w3.org/1999/02/22-rdf-syntax-ns#"
             xmlns:cc="http://creativecommons.org/ns#">
      <rdf:RDF>
         <cc:Work rdf:about="">
            <dc:creator>
               <cc:Agent>
                  <dc:title>http://heraldicart.org Hood (2).svg</dc:title>
               </cc:Agent>
            </dc:creator>
         </cc:Work>
      </rdf:RDF>
   </metadata>
   <g stroke="#505050" fill="#ffff00" stroke-opacity="1" stroke-dasharray="none"
      fill-opacity="1">
      <title>Hood (2)</title>
      <g>
         <title>Content</title>
         <g>
            <g>
               <path d="M 292.03227 123.36485 C 314.76972 177.36628 252.24175 242.73643 249.39956 299.58005 C 246.55738 356.42366 283.50573 367.7924 283.50573 367.7924 C 283.50573 367.7924 269.29483 390.52983 175.50287 382.0033 C 81.7109 373.47675 70.34218 347.8971 70.34218 347.8971 C 70.34218 347.8971 84.55308 342.21276 107.29053 325.15967 C 130.02798 308.1066 130.02798 274.00042 115.81707 268.31606 C 101.60617 262.6317 93.07963 271.15824 84.55308 268.31606 C 76.02654 265.47388 67.5 228.52553 67.5 188.735 C 67.5 148.94447 76.02654 117.68048 81.7109 111.99612 C 87.39526 106.31176 112.97489 109.15394 152.76542 106.31176 C 192.55595 103.46958 269.29483 69.36341 292.03227 123.36485 Z"/>
               <path d="M 292.03227 123.36485 C 314.76972 177.36628 252.24175 242.73643 249.39956 299.58005 C 246.55738 356.42366 283.50573 367.7924 283.50573 367.7924 C 283.50573 367.7924 269.29483 390.52983 175.50287 382.0033 C 81.7109 373.47675 70.34218 347.8971 70.34218 347.8971 C 70.34218 347.8971 84.55308 342.21276 107.29053 325.15967 C 130.02798 308.1066 130.02798 274.00042 115.81707 268.31606 C 101.60617 262.6317 93.07963 271.15824 84.55308 268.31606 C 76.02654 265.47388 67.5 228.52553 67.5 188.735 C 67.5 148.94447 76.02654 117.68048 81.7109 111.99612 C 87.39526 106.31176 112.97489 109.15394 152.76542 106.31176 C 192.55595 103.46958 269.29483 69.36341 292.03227 123.36485 Z"
                     stroke="black"
                     stroke-linecap="round"
                     stroke-linejoin="round"
                     stroke-width="2"/>
            </g>
            <g>
               <g>
                  <circle cx="186.98058" cy="129.26934" r="2.84218523533778" fill="#ff0000"/>
                  <circle cx="186.98058" cy="129.26934" r="2.84218523533778" stroke="black"
                          stroke-linecap="round"
                          stroke-linejoin="round"
                          stroke-width="1"/>
               </g>
               <g>
                  <circle cx="206.76685" cy="127.18972" r="2.84218523533778" fill="#ff0000"/>
                  <circle cx="206.76685" cy="127.18972" r="2.84218523533778" stroke="black"
                          stroke-linecap="round"
                          stroke-linejoin="round"
                          stroke-width="1"/>
               </g>
               <g>
                  <circle cx="226.55313" cy="125.1101" r="2.84218523533777" fill="#ff0000"/>
                  <circle cx="226.55313" cy="125.1101" r="2.84218523533777" stroke="black"
                          stroke-linecap="round"
                          stroke-linejoin="round"
                          stroke-width="1"/>
               </g>
            </g>
            <g>
               <path d="M 82.03623 127.67564 C 94.48781 104.52755 109.00309 130.19637 112.4634 157.05883 C 115.92372 183.9213 114.2579 208.8825 108.59007 226.93 C 102.92223 244.9775 91.48215 275.0915 82.1974 257.30498"
                     stroke="black"
                     stroke-linecap="round"
                     stroke-linejoin="round"
                     stroke-width="2"/>
            </g>
         </g>
      </g>
   </g>
</svg>