<?xml version="1.0" encoding="UTF-8" standalone="no"?>
<!-- Created with Inkscape (http://www.inkscape.org/) -->
<svg xmlns:dc="http://purl.org/dc/elements/1.1/" xmlns:cc="http://creativecommons.org/ns#" xmlns:rdf="http://www.w3.org/1999/02/22-rdf-syntax-ns#" xmlns:svg="http://www.w3.org/2000/svg" xmlns="http://www.w3.org/2000/svg" version="1.0" width="450.19357" height="983.33386" id="svg2384">
  <defs id="defs2386"/>
  <metadata id="metadata2389">
    <rdf:RDF>
      <cc:Work rdf:about="">
        <dc:format>image/svg+xml</dc:format>
        <dc:type rdf:resource="http://purl.org/dc/dcmitype/StillImage"/>
        <dc:title/>
        <dc:creator>
          <cc:Agent>
            <dc:title>http://commons.wikimedia.org/wiki/User:Rinaldum</dc:title>
          </cc:Agent>
        </dc:creator>
      </cc:Work>
    </rdf:RDF>
  </metadata>
  <g id="layer1">
    <g id="leaved" style="fill:#00ff00">
      <path d="m444,44.04   c-3.331,66.38 -64.17,66.14 -99.29,85.71 -11.17,18.65 -3.964,40.37 -5,60.71   l-11.43,-6.429   c-0.5028,-21.43 -1.59,-42.86 7.143,-64.29 38.16,-26.38 46.97,-64.53 108.6,-75.71   z " id="path3298" style="fill:#00ff00;fill-rule:evenodd;stroke:#000000;stroke-width:3;stroke-linecap:butt;stroke-linejoin:miter;stroke-miterlimit:4;stroke-opacity:1;stroke-dasharray:none"/>
      <path d="m408.3,100.5   c6.858,-21.62 22.33,-37.5 34.29,-55.71 -18.86,21.18 -34.89,43.16 -66.43,60.71   " id="path3300" style="fill:#00ff00;stroke:#000000;stroke-width:1px;stroke-linecap:butt;stroke-linejoin:miter;stroke-opacity:1"/>
      <path d="m279,105.2   c2.156,-19.4 22.02,-41.04 -1.571,-57.16 -78.61,-40.64 -71.36,-66.98 -154.5,-25.99 40.55,44.13 97.51,30.38 147.4,41.61 12.55,3.871 2.771,27.07 -4.532,48.13   l13.17,-6.583   z " id="path3302" style="fill:#00ff00;fill-opacity:1;fill-rule:evenodd;stroke:#000000;stroke-width:3;stroke-linecap:butt;stroke-linejoin:miter;stroke-miterlimit:4;stroke-opacity:1;stroke-dasharray:none"/>
      <path d="m272.6,65.51 5.828,-14.61   C231.5,39.74 203.1,-0.2662 138.6,15.07   " id="path3304" style="fill:#00ff00;stroke:#000000;stroke-width:1px;stroke-linecap:butt;stroke-linejoin:miter;stroke-opacity:1"/>
      <path d="M275.3,59.65   C227.8,47.48 180.9,32.37 129.1,25.66   " id="path3306" style="fill:#00ff00;stroke:#000000;stroke-width:1px;stroke-linecap:butt;stroke-linejoin:miter;stroke-opacity:1"/>
      <path d="m294.2,137 4.329,844.8 -22.54,0 2.488,-844 15.73,-0.7625   z " id="path3235" style="fill:#00ff00;fill-opacity:1;fill-rule:evenodd;stroke:#000000;stroke-width:3;stroke-linecap:butt;stroke-linejoin:miter;stroke-miterlimit:4;stroke-opacity:1;stroke-dasharray:none"/>
      <path d="m270.4,133.2   c6.805,-3.086 7.2,-7.92 9.158,-12.33 0.8281,-5.185 -2.102,-8.02 -4.931,-10.92 -3.032,-3.778 -1.78,-11.84 -0.7045,-19.73   " id="path3183" style="fill:#00ff00;stroke:#000000;stroke-width:0.69739729px;stroke-linecap:butt;stroke-linejoin:miter;stroke-opacity:1"/>
      <path d="M271.4,131.5   C257.3,128.8 239.3,119.4 233.4,112.4 221.7,95.48 211.8,90.29 201,79.34 189,68.58 184.1,67.13 175.6,61.02   " id="path3231" style="fill:#00ff00;stroke:#000000;stroke-width:0.69739729px;stroke-linecap:butt;stroke-linejoin:miter;stroke-opacity:1"/>
      <g id="g3362" style="fill:#00ff00">
        <path d="m279.6,723.5   c-13.8,-11.92 -14.47,-40.24 -21.43,-60.71 -3.633,-18.26 -9.57,-25.01 -15,-34.29 -23.33,-8.188 -46.67,-14.35 -70,-27.86 -14.4,-12.04 -29.66,-19.78 -45,-27.14 51.97,-7.71 79.98,14.87 94.29,25.71 15.45,10.24 21.89,18.69 30,28.93 6.358,0.1742 19.55,12.85 29.29,18.93   l2.143,5.714   c13.02,2.592 17.86,6.548 25.71,10 21.02,-20.04 31.17,-10.84 39.29,2.857 2.526,17.62 -1.33,36.67 -11.43,54.29 -11.06,-21.02 -14.43,-35.72 -26.43,-45.36 -4.941,2.396 -5.651,4.808 -12.44,19.5 -0.9056,1.959 -10.09,-1.929 -11.13,0.5041 1.259,17.24 -1.5,28.83 -7.857,28.93   z " id="path3364" style="fill:#00ff00;fill-rule:evenodd;stroke:#000000;stroke-width:3;stroke-linecap:butt;stroke-linejoin:miter;stroke-miterlimit:4;stroke-opacity:1;stroke-dasharray:none"/>
        <path d="m242.8,628.1   c-8.731,-15.52 -22.36,-27.11 -35.71,-38.93   " id="path3366" style="fill:#00ff00;stroke:#000000;stroke-width:1px;stroke-linecap:butt;stroke-linejoin:miter;stroke-opacity:1"/>
        <path d="m311.2,674.4   c-9.575,-10.91 -34.66,-24.57 -40.71,-19.29   " id="path3368" style="fill:#00ff00;stroke:#000000;stroke-width:1px;stroke-linecap:butt;stroke-linejoin:miter;stroke-opacity:1"/>
        <path d="m252.8,628.5   c6.344,10.14 9.329,16.87 13.21,29.29   " id="path3370" style="fill:#00ff00;stroke:#000000;stroke-width:1px;stroke-linecap:butt;stroke-linejoin:miter;stroke-opacity:1"/>
        <path d="m263.1,633.5   c3.146,7.976 4.556,7.529 9.107,20.89   " id="path3372" style="fill:#00ff00;stroke:#000000;stroke-width:1px;stroke-linecap:butt;stroke-linejoin:miter;stroke-opacity:1"/>
        <path d="m268.1,676.5   c3.675,16.97 8.249,26.75 12.86,36.25   " id="path3374" style="fill:#00ff00;stroke:#000000;stroke-width:1px;stroke-linecap:butt;stroke-linejoin:miter;stroke-opacity:1"/>
        <path d="m282.1,699.6 -4.286,-11.25   " id="path3376" style="fill:#00ff00;stroke:#000000;stroke-width:1px;stroke-linecap:butt;stroke-linejoin:miter;stroke-opacity:1"/>
        <path d="m310.3,662.8   c15.81,4.562 21.2,25.79 27.86,45   " id="path3378" style="fill:#00ff00;stroke:#000000;stroke-width:1px;stroke-linecap:butt;stroke-linejoin:miter;stroke-opacity:1"/>
        <path d="m295.3,687.8   c-0.5329,-15.69 4.302,-16.29 9.286,-19.11   " id="path3380" style="fill:#00ff00;stroke:#000000;stroke-width:1px;stroke-linecap:butt;stroke-linejoin:miter;stroke-opacity:1"/>
        <path d="m286,688.5   c-14.14,-32.28 -2.635,-29.49 5.357,-28.57   " id="path3382" style="fill:#00ff00;stroke:#000000;stroke-width:1px;stroke-linecap:butt;stroke-linejoin:miter;stroke-opacity:1"/>
      </g>
      <path d="m288.3,390.5   c45.4,0.7266 2.799,40.42 -2.5,42.14   " id="path3314" style="fill:#00ff00;stroke:#000000;stroke-width:1px;stroke-linecap:butt;stroke-linejoin:miter;stroke-opacity:1"/>
      <g id="g3350" style="fill:#00ff00">
        <path d="m297.3,461.2   c13.8,-11.92 14.47,-40.24 21.43,-60.71 3.633,-18.26 9.57,-25.01 15,-34.29 23.33,-8.188 46.67,-14.35 70,-27.86 14.4,-12.04 29.66,-19.78 45,-27.14 -51.97,-7.71 -79.98,14.87 -94.29,25.71 -15.45,10.24 -21.89,18.69 -30,28.93 -6.358,0.1742 -19.55,12.85 -29.29,18.93   l-2.143,5.714   c-13.02,2.592 -17.86,6.548 -25.71,10 -21.02,-20.04 -31.17,-10.84 -39.29,2.857 -2.526,17.62 1.33,36.67 11.43,54.29 11.06,-21.02 14.43,-35.72 26.43,-45.36 4.941,2.396 5.651,4.808 12.44,19.5 0.9056,1.959 10.09,-1.929 11.13,0.5041 -1.259,17.24 1.5,28.83 7.857,28.93   z " id="path3310" style="fill:#00ff00;fill-rule:evenodd;stroke:#000000;stroke-width:3;stroke-linecap:butt;stroke-linejoin:miter;stroke-miterlimit:4;stroke-opacity:1;stroke-dasharray:none"/>
        <path d="m334.1,365.8   c8.731,-15.52 22.36,-27.11 35.71,-38.93   " id="path3312" style="fill:#00ff00;stroke:#000000;stroke-width:1px;stroke-linecap:butt;stroke-linejoin:miter;stroke-opacity:1"/>
        <path d="m265.7,412.1   c9.575,-10.91 34.66,-24.57 40.71,-19.29   " id="path3316" style="fill:#00ff00;stroke:#000000;stroke-width:1px;stroke-linecap:butt;stroke-linejoin:miter;stroke-opacity:1"/>
        <path d="m324.1,366.2   c-6.344,10.14 -9.329,16.87 -13.21,29.29   " id="path3318" style="fill:#00ff00;stroke:#000000;stroke-width:1px;stroke-linecap:butt;stroke-linejoin:miter;stroke-opacity:1"/>
        <path d="m313.7,371.2   c-3.146,7.976 -4.556,7.529 -9.107,20.89   " id="path3320" style="fill:#00ff00;stroke:#000000;stroke-width:1px;stroke-linecap:butt;stroke-linejoin:miter;stroke-opacity:1"/>
        <path d="m308.7,414.2   c-3.675,16.97 -8.249,26.75 -12.86,36.25   " id="path3322" style="fill:#00ff00;stroke:#000000;stroke-width:1px;stroke-linecap:butt;stroke-linejoin:miter;stroke-opacity:1"/>
        <path d="m294.8,437.3 4.286,-11.25   " id="path3324" style="fill:#00ff00;stroke:#000000;stroke-width:1px;stroke-linecap:butt;stroke-linejoin:miter;stroke-opacity:1"/>
        <path d="m266.6,400.5   c-15.81,4.562 -21.2,25.79 -27.86,45   " id="path3326" style="fill:#00ff00;stroke:#000000;stroke-width:1px;stroke-linecap:butt;stroke-linejoin:miter;stroke-opacity:1"/>
        <path d="m281.6,425.5   c0.5329,-15.69 -4.302,-16.29 -9.286,-19.11   " id="path3328" style="fill:#00ff00;stroke:#000000;stroke-width:1px;stroke-linecap:butt;stroke-linejoin:miter;stroke-opacity:1"/>
        <path d="m290.8,426.2   c14.14,-32.28 2.635,-29.49 -5.357,-28.57   " id="path3330" style="fill:#00ff00;stroke:#000000;stroke-width:1px;stroke-linecap:butt;stroke-linejoin:miter;stroke-opacity:1"/>
      </g>
    </g>
    <g id="slipped" style="fill:#ff0000">
      <g id="g3332">
        <g id="g3341">
          <path d="m222.1,196.9 -67.14,67.86   c-9.048,9.462 -18.1,42.79 -27.14,67.86 -6.048,12.4 5.679,7.483 11.43,7.5 -1.73,4.807 -21.43,18.36 -24.29,6.786 -1.569,12.38 4.495,24.76 9.286,37.14 -21.19,-6.188 -35.16,-26.81 -33.57,-78.57 -2.861,0.2659 -24.16,9.345 -19.29,-10 -7.233,-0.7725 -15.13,-0.2104 -15,-15.71 -5.842,0.8081 -11.6,1.44 -10,-13.57   l-6.429,-15.71   c-14.16,-12.32 -31.43,-11.4 -38.57,-53.57   l7.143,2.143   c0.0277,-9.821 8.694,-9.322 13.57,-10 -0.527,9.401 -12.3,23.3 13.57,22.14   C55.64,205.5 76.84,202.9 101.4,207.6 162.6,201.1 188.4,190.8 214.3,180.5   l7.857,16.43   z " id="path3282" style="fill-rule:evenodd;stroke:#000000;stroke-width:3;stroke-linecap:butt;stroke-linejoin:miter;stroke-miterlimit:4;stroke-opacity:1;stroke-dasharray:none"/>
          <path d="m175,195.8   c-31.91,14.02 -95.75,2.705 -127.9,70   " id="path3284" style="stroke:#000000;stroke-width:1px;stroke-linecap:butt;stroke-linejoin:miter;stroke-opacity:1"/>
          <path d="M91.14,304.8   C128,300.4 178,230.5 221.4,193.3   " id="path3286" style="stroke:#000000;stroke-width:1px;stroke-linecap:butt;stroke-linejoin:miter;stroke-opacity:1"/>
          <path d="m71.14,294   c-0.4353,-13.63 8.498,-19.13 -13.57,-15   " id="path3288" style="stroke:#000000;stroke-width:1px;stroke-linecap:butt;stroke-linejoin:miter;stroke-opacity:1"/>
          <path d="m139.3,204.4   c-39.26,7.486 -77.39,22.09 -119.3,12.86 -9.503,-1.316 -12.02,-8.35 -11.07,-18.21   " id="path3290" style="fill:none;stroke:#000000;stroke-width:1px;stroke-linecap:butt;stroke-linejoin:miter;stroke-opacity:1"/>
          <path d="m213.2,203.7   c-26.67,29.05 -52,44.72 -80,87.14 -12.01,18.81 -16.36,37.62 -18.93,56.43   " id="path3292" style="fill:none;stroke:#000000;stroke-width:1px;stroke-linecap:butt;stroke-linejoin:miter;stroke-opacity:1"/>
          <path d="M218.6,191.2 79.34,273.3   " id="path3294" style="stroke:#000000;stroke-width:1px;stroke-linecap:butt;stroke-linejoin:miter;stroke-opacity:1"/>
        </g>
      </g>
      <path d="m207.4,126.8 -39.94,-27.75   c-5.526,-9.473 -7.469,-18.51 -7.108,-27.08 -0.7904,-4.671 -0.4899,-9.124 3.385,-12.86 2.414,-7.28 6.826,-11.42 12.52,-13.54 6.718,-10.47 19.77,-4.468 30.8,-3.723 12.71,5.628 25.01,9.444 38.59,18.95 9.59,8.237 19.18,18.37 28.77,28.43 3.953,-7.649 6.604,-11.71 16.58,-18.62 8.506,-7.762 13.82,-17.12 20.65,-25.72 14.46,-17.31 30.04,-22.5 46.37,-19.63 22.76,52.63 -7.673,74.34 -27.08,93.08 11.04,4.301 16,13.1 16.25,25.39 9.588,9.184 18.26,0.5357 27.4,-3.588 12.39,-7.097 25.47,-15.71 30.14,-5.55 5.526,19.1 -5.034,35.81 -8.462,40.62   l-32.15,33.51   c-8.468,7.869 -22.9,1.166 -35.2,-0.3385 7.359,13.76 14.17,27.53 18.28,41.29 4.783,17.53 8.494,41.38 -7.446,44.34 -18.27,26.04 -49.78,-24.39 -58.55,-37.91 -4.508,-6.882 -4.124,-13.76 -6.092,-20.65 -3.046,7.672 -4.746,18.04 -9.139,23.02 -10.82,13.01 -28.2,39.74 -63.29,47.05 -12.89,3.28 -21.25,-8.525 -21.32,-11.85 -6.572,-29.48 -4.062,-48.74 -6.092,-73.11 3.649,-17.27 10.38,-23.24 15.57,-34.86 -23.78,16.33 -80.95,22.3 -98.49,-12.86 8.06,-24.86 34.97,-29.82 59.23,-37.57 17.22,-6.143 34.92,-11.13 55.85,-8.462   z " id="path2407" style="fill:#ff0000;fill-opacity:1;fill-rule:evenodd;stroke:#000000;stroke-width:3;stroke-linecap:butt;stroke-linejoin:miter;stroke-miterlimit:4;stroke-opacity:1;stroke-dasharray:none"/>
      <path d="m207.5,126.2 28,19.02   c7.813,6.089 20.78,-4.33 33.11,-12.68   l10.57,7.045 -3.875,11.62   c2.296,11.27 4.256,22.54 8.806,33.81 12.73,9.692 29.21,15.64 44.03,23.25   " id="path3179" style="fill:#ff0000;stroke:#000000;stroke-width:0.69739729px;stroke-linecap:butt;stroke-linejoin:miter;stroke-opacity:1"/>
      <path d="m278.5,138.9   c2.317,-5.55 3.723,-12.01 7.749,-15.85 14.02,-10.58 28.72,-9.537 43.68,-4.227   " id="path3181" style="fill:#ff0000;stroke:#000000;stroke-width:0.69739729px;stroke-linecap:butt;stroke-linejoin:miter;stroke-opacity:1"/>
      <path d="m261.5,137.3 -5.636,9.687 -30.29,11.62 -33.81,25.36   " id="path3185" style="fill:#ff0000;stroke:#000000;stroke-width:0.69739729px;stroke-linecap:butt;stroke-linejoin:miter;stroke-opacity:1"/>
      <path d="m275.1,233.6   c4.872,-12.08 9.923,-39.25 -2.29,-66.93   " id="path3187" style="fill:#ff0000;stroke:#000000;stroke-width:0.69739729px;stroke-linecap:butt;stroke-linejoin:miter;stroke-opacity:1"/>
      <path d="m264.1,135.5   c-6.496,13.23 -10.71,19.33 -16.29,28   " id="path3189" style="fill:#ff0000;stroke:#000000;stroke-width:0.69739729px;stroke-linecap:butt;stroke-linejoin:miter;stroke-opacity:1"/>
      <path d="m247.1,170.2   c7.619,-11.71 15.77,-22.1 22.54,-35.93   " id="path3191" style="fill:#ff0000;stroke:#000000;stroke-width:0.69739729px;stroke-linecap:butt;stroke-linejoin:miter;stroke-opacity:1"/>
      <path d="m271.8,135.3 -7.749,15.15   " id="path3193" style="fill:#ff0000;stroke:#000000;stroke-width:0.69739729px;stroke-linecap:butt;stroke-linejoin:miter;stroke-opacity:1"/>
      <path d="m274.9,137.5 -9.51,17.96   " id="path3195" style="fill:#ff0000;stroke:#000000;stroke-width:0.69739729px;stroke-linecap:butt;stroke-linejoin:miter;stroke-opacity:1"/>
      <path d="m278.1,138.5 -7.397,34.87   " id="path3197" style="fill:#ff0000;stroke:#000000;stroke-width:0.69739729px;stroke-linecap:butt;stroke-linejoin:miter;stroke-opacity:1"/>
      <path d="m273.7,139.7 -7.221,31.97   " id="path3199" style="fill:#ff0000;stroke:#000000;stroke-width:0.69739729px;stroke-linecap:butt;stroke-linejoin:miter;stroke-opacity:1"/>
      <path d="m272.1,143.8   c-2.655,11.61 -15.95,52.36 -10.57,97.92   " id="path3201" style="fill:#ff0000;stroke:#000000;stroke-width:0.69739729px;stroke-linecap:butt;stroke-linejoin:miter;stroke-opacity:1"/>
      <path d="m254.1,241.4   c0.8431,-49.74 2.717,-55.54 8.982,-79.08   " id="path3203" style="fill:#ff0000;stroke:#000000;stroke-width:0.69739729px;stroke-linecap:butt;stroke-linejoin:miter;stroke-opacity:1"/>
      <path d="m246,199.1 12.33,-29.24   " id="path3205" style="fill:#ff0000;stroke:#000000;stroke-width:0.69739729px;stroke-linecap:butt;stroke-linejoin:miter;stroke-opacity:1"/>
      <path d="m255.9,166.3   c-4.293,9.781 -8.533,19.72 -13.74,26.77   " id="path3207" style="fill:#ff0000;stroke:#000000;stroke-width:0.69739729px;stroke-linecap:butt;stroke-linejoin:miter;stroke-opacity:1"/>
      <path d="m242.2,197 -26.42,60.59 -19.73,38.75   " id="path3227" style="fill:#ff0000;stroke:#000000;stroke-width:0.69739729px;stroke-linecap:butt;stroke-linejoin:miter;stroke-opacity:1"/>
      <path d="m277.4,141.7   c14.09,7.603 35.58,23.69 49.67,27.12 14.79,5.63 29.59,7.97 44.38,4.227 11.84,-2.614 21.5,-13.48 27.47,-23.95   " id="path3223" style="fill:#ff0000;stroke:#000000;stroke-width:0.69739729px;stroke-linecap:butt;stroke-linejoin:miter;stroke-opacity:1"/>
      <path d="m276.7,175.9 54.6,100.7   c2.412,4.362 4.586,8.804 4.227,14.09   " id="path3225" style="fill:#ff0000;stroke:#000000;stroke-width:0.69739729px;stroke-linecap:butt;stroke-linejoin:miter;stroke-opacity:1"/>
      <path d="m257,145.9   c-44.02,6.047 -111.8,18.06 -156.7,27.83   " id="path3229" style="fill:#ff0000;stroke:#000000;stroke-width:0.69739729px;stroke-linecap:butt;stroke-linejoin:miter;stroke-opacity:1"/>
      <path d="m287.6,122.3   c9.628,-11.04 19.26,-19.64 28.88,-33.11 13.19,-18.45 21.15,-28.21 31.7,-42.27   " id="path3233" style="fill:#ff0000;stroke:#000000;stroke-width:0.69739729px;stroke-linecap:butt;stroke-linejoin:miter;stroke-opacity:1"/>
    </g>
    <g id="stamen" style="fill:#ffff00">
      <path d="m239.4,165.3   c1.906,11.83 -1.047,21.49 -3.17,31.53 -0.4067,1.993 -2.076,4.967 -3.346,-1.057 -0.3729,-11.41 -1.607,-23.68 1.585,-31.53 1.901,-0.9334 3.499,-0.3535 4.931,1.057   z " id="path3211" style="fill:#ffff00;fill-rule:evenodd;stroke:#000000;stroke-width:0.69739729px;stroke-linecap:butt;stroke-linejoin:miter;stroke-opacity:1"/>
      <path d="m235.8,188.2   c1.044,-1.963 4.848,-0.8719 6.164,0.1761 8.832,26.23 4.905,25.72 4.579,32.76 -1.703,0.2433 -3.34,-0.9573 -4.579,-10.92 -4.752,-7.338 -4.328,-14.68 -6.164,-22.01   z " id="path3213" style="fill:#ffff00;fill-rule:evenodd;stroke:#000000;stroke-width:0.69739729px;stroke-linecap:butt;stroke-linejoin:miter;stroke-opacity:1"/>
      <path d="m266.3,149.6   c0.0482,-3.08 -5.954,-2.398 -7.221,-0.1761 -2.806,9.783 -3.358,20.57 -1.937,32.23 3.053,2.545 7.576,-20.39 9.158,-32.05   z " id="path3215" style="fill:#ffff00;fill-rule:evenodd;stroke:#000000;stroke-width:0.69739729px;stroke-linecap:butt;stroke-linejoin:miter;stroke-opacity:1"/>
      <path d="m262.1,184.1   c-0.0701,-1.917 7.962,-1.48 7.221,-0.1761 -0.4343,9.692 -0.4269,19.27 -2.642,29.41 -4.701,-0.222 -3.053,-19.49 -4.579,-29.24   z " id="path3219" style="fill:#ffff00;fill-rule:evenodd;stroke:#000000;stroke-width:0.69739729px;stroke-linecap:butt;stroke-linejoin:miter;stroke-opacity:1"/>
      <path d="m249.4,156.7   c-0.9258,-5.337 -6.381,-5.115 -6.869,-3.17 -1.637,16.16 -4.34,34.27 1.937,37.34 1.682,-11.36 4.511,-21.96 4.931,-34.17   z " id="path3209" style="fill:#ffff00;fill-opacity:1;fill-rule:evenodd;stroke:#000000;stroke-width:0.69739729px;stroke-linecap:butt;stroke-linejoin:miter;stroke-opacity:1"/>
      <path d="m262.8,172   c-1.874,-1.242 6.861,-5.994 7.045,-1.761 3.52,9.863 1.654,19.73 2.466,29.59 -3.17,10.24 -6.34,-18.55 -9.51,-27.83   z " id="path3217" style="fill:#ffff00;fill-rule:evenodd;stroke:#000000;stroke-width:0.69739729px;stroke-linecap:butt;stroke-linejoin:miter;stroke-opacity:1"/>
      <path d="m253.4,247.9 0.1761,-4.227   c-2.16,-2.18 8.737,-4.926 9.334,0.3522   l-1.409,8.278 3.17,1.585   c1.042,1.368 2.325,6.273 -4.579,7.221 -1.409,0.9079 -2.818,-1.403 -4.227,-2.642   l-4.051,1.585   c-5.699,-1.274 -7.594,-8.062 -1.761,-9.863   l3.346,-2.29   z " id="path3221" style="fill:#ffff00;fill-rule:evenodd;stroke:#000000;stroke-width:0.69739729px;stroke-linecap:butt;stroke-linejoin:miter;stroke-opacity:1"/>
    </g>
  </g>
</svg>
