<?xml version="1.0" encoding="UTF-8" standalone="no"?>
<!-- Created with Inkscape (http://www.inkscape.org/) -->
<svg xmlns:dc="http://purl.org/dc/elements/1.1/" xmlns:cc="http://creativecommons.org/ns#" xmlns:rdf="http://www.w3.org/1999/02/22-rdf-syntax-ns#" xmlns:svg="http://www.w3.org/2000/svg" xmlns="http://www.w3.org/2000/svg" version="1.0" width="236.15207" height="174.10805" id="svg8127">
  <metadata id="metadata28">
    <rdf:RDF>
      <cc:Work rdf:about="">
        <dc:format>image/svg+xml</dc:format>
        <dc:type rdf:resource="http://purl.org/dc/dcmitype/StillImage"/>
        <dc:title/>
        <dc:creator>
          <cc:Agent>
            <dc:title>http://commons.wikimedia.org/wiki/User:Bluebear2</dc:title>
          </cc:Agent>
        </dc:creator>
      </cc:Work>
    </rdf:RDF>
  </metadata>
  <defs id="defs8129"/>
  <g id="layer1">
    <g id="g3007" style="fill:#ffff00">
      <path d="M49.82,33.36   C103.7,11.06 179.9,16.76 212.5,38.66   L233,27.06   C198.4,-5.538 93.62,-8.538 30.72,20.36   L49.82,33.36   z " id="path8190" style="fill:#ffff00;fill-rule:evenodd;stroke:#000000;stroke-width:1.5;stroke-linecap:butt;stroke-linejoin:miter;stroke-miterlimit:4;stroke-opacity:1;stroke-dasharray:none"/>
      <path d="m43.11,38.53   c15.43,34.73 55.63,66.18 71.39,67.02 11.46,0.2176 15.26,1.143 26.22,0 17.73,2.527 48.56,32.11 72.84,56.82   l17.48,0   c5.828,-4.856 5.828,-9.713 0,-14.57 -5.828,-2.396 -11.66,-2.078 -17.48,-1.457 -24.28,-26.53 -51.48,-53.58 -72.84,-55.36 -8.999,1.56 -14.62,1.545 -26.22,0 -11.56,-1.58 -48.87,-21.63 -72.84,-68.15 -10.7,12.92 -26.68,30.27 1.457,15.7   z " id="path7401" style="fill:#ffff00;fill-rule:evenodd;stroke:#000000;stroke-width:1.5;stroke-linecap:butt;stroke-linejoin:miter;stroke-miterlimit:4;stroke-opacity:1;stroke-dasharray:none;display:inline"/>
      <path d="m213.4,38.62   c-6.42,14.45 -17.13,28.33 -28.58,39.67 -16.07,15.92 -33.62,26.74 -42.81,27.34 -9.404,0.6179 -22.99,-0.452 -26.22,0 -17.73,2.477 -48.56,32.11 -72.84,56.82   l-17.48,0   c-5.828,-4.856 -5.828,-9.713 0,-14.57 5.828,-2.396 10.93,-2.807 17.48,-1.457 24.28,-26.53 51.47,-53.71 72.84,-55.36 11.56,2.391 20.85,0.6693 26.22,0 11.57,-1.441 45.33,-35.03 72.84,-66.9 11.96,-2.671 21.12,20.44 -1.457,14.45   z " id="path7403" style="fill:#ffff00;fill-rule:evenodd;stroke:#000000;stroke-width:1.5;stroke-linecap:butt;stroke-linejoin:miter;stroke-miterlimit:4;stroke-opacity:1;stroke-dasharray:none;display:inline"/>
      <path d="m22.72,49.46   c15.43,34.73 55.63,66.18 71.39,67.02 11.46,0.2176 15.26,1.143 26.22,0 17.73,2.527 48.56,32.11 72.84,56.82   l17.48,0   c5.828,-4.856 5.828,-9.713 0,-14.57 -5.828,-2.396 -11.66,-2.078 -17.48,-1.457 -24.28,-26.53 -51.48,-53.58 -72.84,-55.36 -8.999,1.56 -13.36,0.7878 -26.22,0 -11.56,-1.58 -35.4,-52.01 -72.84,-70.58 -21.96,-12.85 -26.68,32.7 1.457,18.13   z " id="path7407" style="fill:#ffff00;fill-rule:evenodd;stroke:#000000;stroke-width:1.5;stroke-linecap:butt;stroke-linejoin:miter;stroke-miterlimit:4;stroke-opacity:1;stroke-dasharray:none;display:inline"/>
      <path d="m193,49.54   c-6.42,14.45 -17.13,28.33 -28.58,39.67 -16.07,15.92 -33.62,26.74 -42.81,27.34 -9.404,0.6179 -22.99,-0.452 -26.22,0 -17.73,2.477 -48.56,32.11 -72.84,56.82   l-17.48,0   c-5.828,-4.856 -5.828,-9.713 0,-14.57 5.828,-2.396 10.93,-2.807 17.48,-1.457 24.28,-26.53 51.47,-53.71 72.84,-55.36 11.56,-0.8922 20.85,0.6693 26.22,0 11.57,-1.441 38.26,-20.89 65.27,-60.33 23.51,-37.61 46.18,20.55 6.119,7.886   z " id="path7409" style="fill:#ffff00;fill-rule:evenodd;stroke:#000000;stroke-width:1.5;stroke-linecap:butt;stroke-linejoin:miter;stroke-miterlimit:4;stroke-opacity:1;stroke-dasharray:none;display:inline"/>
      <path d="m112.6,109.9   c0,2.672 -2.522,5.104 -5.293,5.104 -2.771,0 -5.293,-2.432 -5.293,-5.104 0,-2.672 2.522,-5.104 5.293,-5.104 2.771,0 5.293,2.432 5.293,5.104   z " id="path7411" style="fill:#ffff00;fill-opacity:1;stroke:#000000;stroke-width:1.40274251;stroke-miterlimit:4;stroke-opacity:1;stroke-dasharray:none;display:inline"/>
      <path d="m29.33,42.49 20.44,-10.06   c17.71,30.52 34.83,46.37 63.32,57.11 8.766,3.303 18.73,1.976 27.83,0.8793 -5.457,4.905 -11.69,9.633 -19.2,11.81   l-29.14,0   c-29.33,-15.43 -43.94,-32.05 -63.25,-59.74   z " id="path7413" style="fill:#ffff00;fill-rule:evenodd;stroke:#000000;stroke-width:1.5;stroke-linecap:butt;stroke-linejoin:miter;stroke-miterlimit:4;stroke-opacity:1;stroke-dasharray:none;display:inline"/>
      <path d="m9.901,29.92 20.21,-8.425   c9.507,-2.409 20.53,3.44 19.9,11.5   l-20.72,9.276   c-2.266,-9.379 -10.36,-13.87 -19.39,-12.35   z " id="path7415" style="fill:#ffff00;fill-rule:evenodd;stroke:#000000;stroke-width:1.5;stroke-linecap:butt;stroke-linejoin:miter;stroke-miterlimit:4;stroke-opacity:1;stroke-dasharray:none;display:inline"/>
      <path d="m215.1,23.12 -20.09,8.807   c17.67,-7.563 26.53,11.48 13.39,18.7   l20.3,-10.21   c12.48,-2.229 7.129,-23.55 -13.6,-17.31   z " id="path7417" style="fill:#ffff00;fill-rule:evenodd;stroke:#000000;stroke-width:1.5;stroke-linecap:butt;stroke-linejoin:miter;stroke-miterlimit:4;stroke-opacity:1;stroke-dasharray:none;display:inline"/>
      <path d="m29.33,42.49 20.44,-10.06   c17.71,30.52 34.83,46.37 63.32,57.11 8.766,3.303 18.73,1.976 27.83,0.8793 -5.457,4.905 -11.69,9.633 -19.2,11.81   l-29.14,0   c-29.33,-15.43 -43.94,-32.05 -63.25,-59.74   z " id="path3005" style="fill:#ffff00;fill-rule:evenodd;stroke:#000000;stroke-width:1.5;stroke-linecap:butt;stroke-linejoin:miter;stroke-miterlimit:4;stroke-opacity:1;stroke-dasharray:none;display:inline"/>
      <path d="m29.33,42.49 20.44,-10.06   c17.71,30.52 34.83,46.37 63.32,57.11 8.766,3.303 18.73,1.976 27.83,0.8793 -5.457,4.905 -11.69,9.633 -19.2,11.81   l-29.14,0   c-29.33,-15.43 -43.94,-32.05 -63.25,-59.74   z " id="path3020" style="opacity:0.5;fill:#4d4d4d;fill-rule:evenodd;display:inline"/>
    </g>
  </g>
</svg>
