<?xml version="1.0" encoding="UTF-8" standalone="no"?>
<svg
   version="1.1"
   preserveAspectRatio="xMidYMid"
   height="787.106"
   width="780.508"
   viewBox="0 0 780.508 787.106"
   id="svg83"
   xmlns="http://www.w3.org/2000/svg"
   xmlns:svg="http://www.w3.org/2000/svg"
   xmlns:rdf="http://www.w3.org/1999/02/22-rdf-syntax-ns#"
   xmlns:cc="http://creativecommons.org/ns#"
   xmlns:dc="http://purl.org/dc/elements/1.1/">
  <defs
     id="defs2">
    <defs
       id="defs79">
      <mask
         id="mask3">
        <path
           fill="#ffffff"
           d="M 0,0 H 1000 V 1000 H 0 Z"
           id="path76" />
      </mask>
    </defs>
  </defs>
  <g
     id="g1056"
     transform="translate(-109.746,-106.447)">
    <g
       id="g1026">
      <g
         id="g954">
        <g
           id="stringed"
           transform="matrix(2.6936,0,0,2.6936,9.40896,-69.697)"
           style="fill:#00ffff;fill-opacity:1;stroke:none;stroke-dasharray:none;stroke-opacity:1">
          <path
             d="m 322.488,210.386 -92.135,142.512 3.469,1.468 90.937,-141.656 1.491,-2.324 -0.06,-0.09 -91.778,-142.9566 -2.886,1.4764 z"
             id="path12"
             style="fill:#00ffff" />
          <path
             d="m 322.488,210.386 -92.135,142.512 3.469,1.468 90.937,-141.656 1.491,-2.324 -0.06,-0.09 -91.778,-142.9566 -2.886,1.4764 z"
             stroke="#000000"
             stroke-linecap="round"
             stroke-linejoin="round"
             stroke-width="1.5"
             id="path14"
             style="fill:#00ffff" />
        </g>
        <g
           id="g22"
           transform="matrix(2.6936,0,0,2.6936,9.40896,-69.697)"
           style="fill:#0000ff;fill-opacity:1;stroke:none;stroke-dasharray:none;stroke-opacity:1">
          <path
             d="m 113.415,191.723 21.663,0.112 c -0.02,-37.248 27.343,-72.196 72.763,-92.9437 14.636,-6.0267 25.258,-15.7398 29.596,-27.0652 0.892,-1.4615 0.411,-3.1478 -1.219,-4.2707 -1.629,-1.123 -4.085,-1.4606 -6.22,-0.8552 -2.134,0.6054 -3.526,2.0343 -3.524,3.6188 -0.938,7.6954 -7.425,14.3703 -17.292,17.7922 -60.394,17.3878 -98.627,58.7518 -95.767,103.6118 z"
             id="path18"
             style="fill:#0000ff" />
          <path
             d="m 113.415,191.723 21.663,0.112 c -0.02,-37.248 27.343,-72.196 72.763,-92.9437 14.636,-6.0267 25.258,-15.7398 29.596,-27.0652 0.892,-1.4615 0.411,-3.1478 -1.219,-4.2707 -1.629,-1.123 -4.085,-1.4606 -6.22,-0.8552 -2.134,0.6054 -3.526,2.0343 -3.524,3.6188 -0.938,7.6954 -7.425,14.3703 -17.292,17.7922 -60.394,17.3878 -98.627,58.7518 -95.767,103.6118 z"
             stroke="#000000"
             stroke-linecap="round"
             stroke-linejoin="round"
             stroke-width="2"
             id="path20"
             style="fill:#0000ff" />
        </g>
        <g
           id="g28"
           transform="matrix(2.6936,0,0,2.6936,9.40896,-69.697)"
           style="fill:#0000ff;fill-opacity:1;stroke:none;stroke-dasharray:none;stroke-opacity:1">
          <path
             d="m 113.415,231.277 21.663,-0.112 c -0.02,37.248 27.343,72.196 72.763,92.944 14.636,6.026 25.258,15.739 29.596,27.065 0.892,1.461 0.411,3.148 -1.219,4.271 -1.629,1.123 -4.085,1.46 -6.22,0.855 -2.134,-0.606 -3.526,-2.034 -3.524,-3.619 -0.938,-7.695 -7.425,-14.37 -17.292,-17.792 -60.394,-17.388 -98.627,-58.752 -95.767,-103.612 z"
             id="path24"
             style="fill:#0000ff" />
          <path
             d="m 113.415,231.277 21.663,-0.112 c -0.02,37.248 27.343,72.196 72.763,92.944 14.636,6.026 25.258,15.739 29.596,27.065 0.892,1.461 0.411,3.148 -1.219,4.271 -1.629,1.123 -4.085,1.46 -6.22,0.855 -2.134,-0.606 -3.526,-2.034 -3.524,-3.619 -0.938,-7.695 -7.425,-14.37 -17.292,-17.792 -60.394,-17.388 -98.627,-58.752 -95.767,-103.612 z"
             stroke="#000000"
             stroke-linecap="round"
             stroke-linejoin="round"
             stroke-width="2"
             id="path26"
             style="fill:#0000ff" />
        </g>
        <g
           id="handle"
           transform="matrix(2.6936,0,0,2.6936,9.40896,-69.697)"
           style="fill:#ff0000;fill-opacity:1;stroke:none;stroke-dasharray:none;stroke-opacity:1">
          <path
             d="m 131.29,237.879 c 3.943,0 7.14,-3.197 7.14,-7.14 v -33.847 c 0,-3.943 -3.197,-7.139 -7.14,-7.139 h -14.064 c -3.942,0 -7.139,3.196 -7.139,7.139 v 33.847 c 0,3.943 3.197,7.14 7.139,7.14 z"
             id="path30"
             style="fill:#ff0000" />
          <path
             d="m 131.29,237.879 c 3.943,0 7.14,-3.197 7.14,-7.14 v -33.847 c 0,-3.943 -3.197,-7.139 -7.14,-7.139 h -14.064 c -3.942,0 -7.139,3.196 -7.139,7.139 v 33.847 c 0,3.943 3.197,7.14 7.139,7.14 z"
             stroke="#000000"
             stroke-linecap="round"
             stroke-linejoin="round"
             stroke-width="2"
             id="path32"
             style="fill:#ff0000" />
        </g>
      </g>
      <g
         id="arrow">
        <g
           id="fletched">
          <g
             id="g40"
             transform="matrix(2.6936,0,0,2.6936,9.40896,-69.697)"
             style="fill:#ffff00;fill-opacity:1;stroke:none;stroke-dasharray:none;stroke-opacity:1">
            <path
               d="m 223.847,205.323 h 68.893 l 10.407,-20.806 h -68.892 z"
               id="path36"
               style="fill:#ffff00" />
            <path
               d="m 223.847,205.323 h 68.893 l 10.407,-20.806 h -68.892 z"
               stroke="#000000"
               stroke-linecap="round"
               stroke-linejoin="round"
               stroke-width="2"
               id="path38"
               style="fill:#ffff00" />
          </g>
          <g
             id="g46"
             transform="matrix(2.6936,0,0,2.6936,9.40896,-69.697)"
             style="fill:#ffff00;fill-opacity:1;stroke:none;stroke-dasharray:none;stroke-opacity:1">
            <path
               d="M 223.847,214.793 H 292.74 L 303.147,235.6 H 234.255 Z"
               id="path42"
               style="fill:#ffff00" />
            <path
               d="M 223.847,214.793 H 292.74 L 303.147,235.6 H 234.255 Z"
               stroke="#000000"
               stroke-linecap="round"
               stroke-linejoin="round"
               stroke-width="2"
               id="path44"
               style="fill:#ffff00" />
          </g>
        </g>
        <g
           id="shaft"
           transform="matrix(2.6936,0,0,2.6936,9.40896,-69.697)"
           style="fill:#ff00ff;fill-opacity:1;stroke:none;stroke-dasharray:none;stroke-opacity:1">
          <path
             d="M 317.185,202.102 H 79.2762 v 16.063 H 326.014 v -5.045 l -8.131,-2.982 3.613,-1.326 z m 7.361,5.592 1.468,-0.539 v -5.053 h -5.058 z"
             id="path48"
             style="fill:#ff00ff" />
          <path
             d="M 317.185,202.102 H 79.2762 v 16.063 H 326.014 v -5.045 l -8.131,-2.982 3.613,-1.326 z m 7.361,5.592 1.468,-0.539 v -5.053 h -5.058 z"
             stroke="#000000"
             stroke-linecap="round"
             stroke-linejoin="round"
             stroke-width="2"
             id="path50"
             style="fill:#ff00ff" />
        </g>
        <g
           id="head"
           transform="matrix(2.6936,0,0,2.6936,9.40896,-69.697)"
           style="fill:#00ff00;fill-opacity:1;stroke:none;stroke-dasharray:none;stroke-opacity:1">
          <path
             d="M 94.8949,189.352 38.25,210.135 94.8949,230.918 Z"
             id="path54"
             style="fill:#00ff00" />
          <path
             d="M 94.8949,189.352 38.25,210.135 94.8949,230.918 Z"
             stroke="#000000"
             stroke-linecap="round"
             stroke-linejoin="round"
             stroke-width="2"
             id="path56"
             style="fill:#00ff00" />
        </g>
      </g>
    </g>
  </g>
  <metadata
     id="metadata3917">
    <rdf:RDF>
      <cc:Work
         rdf:about="">
        <dc:creator>
          <cc:Agent>
            <dc:title>Paolo Ruben</dc:title>
          </cc:Agent>
        </dc:creator>
      </cc:Work>
    </rdf:RDF>
  </metadata>
</svg>
