<?xml version="1.0" encoding="UTF-8" standalone="no"?>
<!-- Created with Inkscape (http://www.inkscape.org/) -->
<svg xmlns:dc="http://purl.org/dc/elements/1.1/" xmlns:cc="http://creativecommons.org/ns#" xmlns:rdf="http://www.w3.org/1999/02/22-rdf-syntax-ns#" xmlns:svg="http://www.w3.org/2000/svg" xmlns="http://www.w3.org/2000/svg" xmlns:sodipodi="http://sodipodi.sourceforge.net/DTD/sodipodi-0.dtd" xmlns:inkscape="http://www.inkscape.org/namespaces/inkscape" width="428.01617" height="190.72946" id="svg3042" version="1.1" inkscape:version="0.48.4 r9939" sodipodi:docname="New document 1">
  <defs id="defs3044"/>
  <sodipodi:namedview id="base" pagecolor="#ffffff" bordercolor="#666666" borderopacity="1.0" inkscape:pageopacity="0.0" inkscape:pageshadow="2" inkscape:zoom="1.8511672" inkscape:cx="214.08871" inkscape:cy="95.261329" inkscape:document-units="px" inkscape:current-layer="g5090" showgrid="false" fit-margin-top="0" fit-margin-left="0" fit-margin-right="0" fit-margin-bottom="0"/>
  <metadata id="metadata3047">
    <rdf:RDF>
      <cc:Work rdf:about="">
        <dc:format>image/svg+xml</dc:format>
        <dc:type rdf:resource="http://purl.org/dc/dcmitype/StillImage"/>
        <dc:title/>
        <dc:creator>
          <cc:Agent>
            <dc:title>http://commons.wikimedia.org/wiki/User:Etxeko</dc:title>
          </cc:Agent>
        </dc:creator>
      </cc:Work>
    </rdf:RDF>
  </metadata>
  <g inkscape:label="Layer 1" inkscape:groupmode="layer" id="layer1">
    <g id="g5229" style="fill:#ffff00">
      <g id="g3159" style="fill:#ffff00">
        <path inkscape:connector-curvature="0" style="fill:#ffff00;fill-opacity:1;fill-rule:evenodd;stroke:#000000;stroke-width:2;stroke-linecap:butt;stroke-linejoin:miter;stroke-miterlimit:4;stroke-opacity:0.99591830000000003;stroke-dasharray:none;stroke-dashoffset:0;marker:none;visibility:visible;display:inline;overflow:visible" d="m5.803,1.42 18.03,2.996   c5.787,-5.428 10.61,-1.587 12.26,1.551   l122,17.23   c1.823,-1.139 4.582,-1.461 6.628,0.5572   l42.21,6.832   c2.677,-2.04 5.369,-0.1262 5.337,0.9411   l67.38,9.741   c3.064,-2.276 6.772,-2.039 9.037,0.8553   l20.25,2.367 3.07,-2.103 8.932,1.575   c4.26,6.22 9.037,12.35 7.364,19.64 3.125,1.779 2.973,4.046 5.792,5.302 8.61,-4.002 15.58,-0.1415 14.53,5.934 -1.037,6.489 -9.078,7.018 -15.09,0.6937 -3.275,-0.3515 -4.571,1.916 -7.492,2.311 -1.771,7.62 -8.767,13.62 -15.18,18.76   l-7.603,-1.161 -2.654,-3.093 -20.36,-4.201   c-3.046,1.093 -5.814,0.6055 -8.303,-1.464   l-65.81,-13.44   c-2.741,0.6943 -4.635,2.247 -7.465,-1.011   l-41.65,-8.262   c-2.395,2.024 -4.372,1.675 -5.931,-1.046   l-119.8,-28.3   c-4.377,2.835 -9.877,2.68 -12.26,-1.551   l-18.14,-3.789 4.905,-27.88   z " id="path2146" sodipodi:nodetypes="cccccccccccccccccccccccccccccc"/>
        <g id="g3139" style="fill:#ffff00">
          <g style="stroke:#000000;stroke-width:2;stroke-miterlimit:4;stroke-opacity:0.99591830000000003;stroke-dasharray:none;fill:#ffff00" id="g3054"/>
          <g id="g3089" style="fill:#ffff00">
            <path inkscape:connector-curvature="0" sodipodi:nodetypes="cc" id="path2150" d="m164.8,23.32 -7.21,40.89   " style="fill:#ffff00;stroke:#000000;stroke-width:2;stroke-linecap:butt;stroke-linejoin:miter;stroke-miterlimit:4;stroke-opacity:0.99591830000000003;stroke-dasharray:none;stroke-dashoffset:0;marker:none;visibility:visible;display:inline;overflow:visible"/>
            <path inkscape:connector-curvature="0" sodipodi:nodetypes="cc" id="path2152" d="m212.8,31.62 -7.036,41.13   " style="fill:#ffff00;stroke:#000000;stroke-width:2;stroke-linecap:butt;stroke-linejoin:miter;stroke-miterlimit:4;stroke-opacity:0.99591830000000003;stroke-dasharray:none;stroke-dashoffset:0;marker:none;visibility:visible;display:inline;overflow:visible"/>
            <path inkscape:connector-curvature="0" sodipodi:nodetypes="cc" id="path2154" d="m288.8,42.12 -7.888,45.96   " style="fill:#ffff00;stroke:#000000;stroke-width:2;stroke-linecap:butt;stroke-linejoin:miter;stroke-miterlimit:4;stroke-opacity:0.99591830000000003;stroke-dasharray:none;stroke-dashoffset:0;marker:none;visibility:visible;display:inline;overflow:visible"/>
            <path inkscape:connector-curvature="0" sodipodi:nodetypes="cc" id="path2160" d="m23.8,4.32 -4.797,28.67   " style="fill:#ffff00;stroke:#000000;stroke-width:2;stroke-linecap:butt;stroke-linejoin:miter;stroke-miterlimit:4;stroke-opacity:0.99591830000000003;stroke-dasharray:none;stroke-dashoffset:0;marker:none;visibility:visible;display:inline;overflow:visible"/>
            <path inkscape:connector-curvature="0" sodipodi:nodetypes="cc" id="path2164" d="M321.1,44.22 311.7,96.32   " style="fill:#ffff00;stroke:#000000;stroke-width:2;stroke-linecap:butt;stroke-linejoin:miter;stroke-miterlimit:4;stroke-opacity:0.99591830000000003;stroke-dasharray:none;stroke-dashoffset:0;marker:none;visibility:visible;display:inline;overflow:visible"/>
            <path inkscape:connector-curvature="0" sodipodi:nodetypes="cc" id="path2166" d="m328.7,63.72 -2.272,14.15   " style="fill:#ffff00;stroke:#000000;stroke-width:2;stroke-linecap:butt;stroke-linejoin:miter;stroke-miterlimit:4;stroke-opacity:0.99591830000000003;stroke-dasharray:none;stroke-dashoffset:0;marker:none;visibility:visible;display:inline;overflow:visible"/>
            <path inkscape:connector-curvature="0" sodipodi:nodetypes="cc" id="path3066" d="m158.8,22.92 -7.099,40.26   " style="fill:#ffff00;stroke:#000000;stroke-width:1;stroke-linecap:butt;stroke-linejoin:miter;stroke-miterlimit:4;stroke-opacity:0.99591830000000003;stroke-dasharray:none;stroke-dashoffset:0;marker:none;visibility:visible;display:inline;overflow:visible"/>
            <path inkscape:connector-curvature="0" sodipodi:nodetypes="cc" id="path3069" d="M206.8,30.32 199.8,72.72   " style="fill:#ffff00;stroke:#000000;stroke-width:1;stroke-linecap:butt;stroke-linejoin:miter;stroke-miterlimit:4;stroke-opacity:0.99591830000000003;stroke-dasharray:none;stroke-dashoffset:0;marker:none;visibility:visible;display:inline;overflow:visible"/>
            <path inkscape:connector-curvature="0" sodipodi:nodetypes="cc" id="path3071" d="m279.8,41.52 -7.682,44.44   " style="fill:#ffff00;stroke:#000000;stroke-width:1;stroke-linecap:butt;stroke-linejoin:miter;stroke-miterlimit:4;stroke-opacity:0.99591830000000003;stroke-dasharray:none;stroke-dashoffset:0;marker:none;visibility:visible;display:inline;overflow:visible"/>
            <path inkscape:connector-curvature="0" sodipodi:nodetypes="cc" id="path3073" d="m309.3,45.02 -8.203,46.92   " style="fill:#ffff00;stroke:#000000;stroke-width:1;stroke-linecap:butt;stroke-linejoin:miter;stroke-miterlimit:4;stroke-opacity:0.99591830000000003;stroke-dasharray:none;stroke-dashoffset:0;marker:none;visibility:visible;display:inline;overflow:visible"/>
            <path inkscape:connector-curvature="0" sodipodi:nodetypes="cc" id="path3075" d="m333.6,74.62 1.018,-5.775   " style="fill:#ffff00;stroke:#000000;stroke-width:1;stroke-linecap:butt;stroke-linejoin:miter;stroke-miterlimit:4;stroke-opacity:0.99591830000000003;stroke-dasharray:none;stroke-dashoffset:0;marker:none;visibility:visible;display:inline;overflow:visible"/>
            <path inkscape:connector-curvature="0" style="fill:#ffff00;stroke:#000000;stroke-width:2;stroke-linecap:butt;stroke-linejoin:miter;stroke-miterlimit:4;stroke-opacity:0.99591830000000003;stroke-dasharray:none;stroke-dashoffset:0;marker:none;visibility:visible;display:inline;overflow:visible" d="m36.8,5.92 -4.797,28.67   " id="path2957" sodipodi:nodetypes="cc"/>
          </g>
        </g>
      </g>
      <path inkscape:connector-curvature="0" sodipodi:nodetypes="cccccccccc" id="path5103" d="m157.8,63.92 2.106,14.74 81.84,18.33 73.53,83.98 111.8,0 -16.11,-28.98 -74.8,-13.97 -66.29,-65.87 -104.7,-15.38 -7.429,7.138   z " style="fill:#ffff00;fill-opacity:1;stroke:#000000;stroke-width:2.50000000000000000;stroke-linejoin:round;stroke-miterlimit:4;stroke-opacity:1;stroke-dasharray:none"/>
      <g id="g5090" style="fill:#ffff00">
        <path inkscape:connector-curvature="0" inkscape:transform-center-x="31.894366" inkscape:transform-center-y="32.099905" sodipodi:nodetypes="ccccc" id="path5784" d="m195.8,113.2 -48.15,48.12 -5.349,-5.327 48.11,-48.15 5.387,5.355   z " style="fill:#ffff00;fill-opacity:1;fill-rule:evenodd;stroke:#000000;stroke-width:2.50000000000000000;stroke-linecap:butt;stroke-linejoin:miter;stroke-miterlimit:4;stroke-opacity:1;stroke-dasharray:none;display:inline"/>
        <path inkscape:connector-curvature="0" inkscape:transform-center-x="32.099906" inkscape:transform-center-y="-31.894365" sodipodi:nodetypes="ccccc" id="path5786" d="m190.8,100.3 -48.12,-48.15 5.327,-5.349 48.15,48.11 -5.355,5.387   z " style="fill:#ffff00;fill-opacity:1;fill-rule:evenodd;stroke:#000000;stroke-width:2.50000000000000000;stroke-linecap:butt;stroke-linejoin:miter;stroke-miterlimit:4;stroke-opacity:1;stroke-dasharray:none;display:inline"/>
        <path inkscape:connector-curvature="0" inkscape:transform-center-x="-32.099906" inkscape:transform-center-y="31.894365" sodipodi:nodetypes="ccccc" id="path5788" d="m209.8,107.8 48.12,48.15 -5.327,5.349 -48.15,-48.11 5.355,-5.387   z " style="fill:#ffff00;fill-opacity:1;fill-rule:evenodd;stroke:#000000;stroke-width:2.50000000000000000;stroke-linecap:butt;stroke-linejoin:miter;stroke-miterlimit:4;stroke-opacity:1;stroke-dasharray:none;display:inline"/>
        <path inkscape:connector-curvature="0" inkscape:transform-center-x="45.268336" inkscape:transform-center-y="-0.12438" sodipodi:nodetypes="ccccc" id="path5790" d="m189.8,107.8 -68.07,-0.4411 0.0319,-7.549 68.07,0.3943 -0.025,7.596   z " style="fill:#ffff00;fill-opacity:1;fill-rule:evenodd;stroke:#000000;stroke-width:2.50000000000000000;stroke-linecap:butt;stroke-linejoin:miter;stroke-miterlimit:4;stroke-opacity:1;stroke-dasharray:none;display:inline"/>
        <path inkscape:connector-curvature="0" inkscape:transform-center-x="-45.268336" inkscape:transform-center-y="-0.12438" sodipodi:nodetypes="ccccc" id="path5792" d="m210.8,107.8 68.07,-0.4411 -0.0319,-7.549 -68.07,0.3943 0.025,7.596   z " style="fill:#ffff00;fill-opacity:1;fill-rule:evenodd;stroke:#000000;stroke-width:2.50000000000000000;stroke-linecap:butt;stroke-linejoin:miter;stroke-miterlimit:4;stroke-opacity:1;stroke-dasharray:none;display:inline"/>
        <path inkscape:connector-curvature="0" inkscape:transform-center-x="0.124381" inkscape:transform-center-y="45.268335" sodipodi:nodetypes="ccccc" id="path5794" d="m203.8,113 -0.4411,68.07 -7.549,-0.0319 0.3943,-68.07 7.596,0.025   z " style="fill:#ffff00;fill-opacity:1;fill-rule:evenodd;stroke:#000000;stroke-width:2.50000000000000000;stroke-linecap:butt;stroke-linejoin:miter;stroke-miterlimit:4;stroke-opacity:1;stroke-dasharray:none;display:inline"/>
        <path inkscape:connector-curvature="0" inkscape:transform-center-x="-0.278679" inkscape:transform-center-y="-45.26298" sodipodi:nodetypes="ccccc" id="path5796" d="m203.8,92.52 0.2111,-68.07 -7.549,-0.0405 -0.2579,68.07 7.596,0.0477   z " style="fill:#ffff00;fill-opacity:1;fill-rule:evenodd;stroke:#000000;stroke-width:2.50000000000000000;stroke-linecap:butt;stroke-linejoin:miter;stroke-miterlimit:4;stroke-opacity:1;stroke-dasharray:none;display:inline"/>
        <path inkscape:connector-curvature="0" inkscape:transform-center-x="-31.894364" inkscape:transform-center-y="-32.099905" sodipodi:nodetypes="ccccc" id="path4012" d="m204.8,93.72 48.15,-48.12 5.349,5.327 -48.11,48.15 -5.387,-5.355   z " style="fill:#ffff00;fill-opacity:1;fill-rule:evenodd;stroke:#000000;stroke-width:2.50000000000000000;stroke-linecap:butt;stroke-linejoin:miter;stroke-miterlimit:4;stroke-opacity:1;stroke-dasharray:none"/>
        <path inkscape:connector-curvature="0" sodipodi:nodetypes="cssssccssssc" style="fill:#ffff00;stroke:#000000;stroke-width:2.50000000000000000;stroke-miterlimit:4;stroke-opacity:1;stroke-dasharray:none" d="m197.8,17.02   c-13.91,0.3612 -27.89,4.106 -40.79,11.55 -41.26,23.82 -55.42,76.57 -31.6,117.8 23.82,41.26 76.6,55.39 117.9,31.57 41.26,-23.82 55.39,-76.57 31.57,-117.8 -16.38,-28.37 -46.45,-43.91 -77.04,-43.12   z m0.2953,10.6   c26.84,-0.697 53.19,12.92 67.56,37.8 20.9,36.19 8.499,82.5 -27.69,103.4 -36.19,20.9 -82.46,8.499 -103.4,-27.69 -20.9,-36.19 -8.499,-82.5 27.69,-103.4 11.31,-6.53 23.6,-9.789 35.8,-10.11   z " id="path3435"/>
        <path style="fill:#ffff00;fill-opacity:1;stroke:#000000;stroke-width:2.2693603;stroke-linejoin:round;stroke-miterlimit:4;stroke-opacity:1" d="m218.8,103.2   c0,10.44 -8.462,18.9 -18.9,18.9 -10.44,0 -18.9,-8.462 -18.9,-18.9 0,-10.44 8.462,-18.9 18.9,-18.9 10.44,0 18.9,8.462 18.9,18.9   z " id="path5030"/>
        <path style="fill:#ffff00;fill-opacity:1;stroke:#000000;stroke-width:3.54587603;stroke-linejoin:round;stroke-miterlimit:4;stroke-opacity:1" d="m211.8,103.2   c0,6.68 -5.416,12.1 -12.1,12.1 -6.68,0 -12.1,-5.416 -12.1,-12.1 0,-6.68 5.416,-12.1 12.1,-12.1 6.68,0 12.1,5.416 12.1,12.1   z " id="path5032"/>
      </g>
    </g>
  </g>
</svg>
