<?xml version="1.0" encoding="UTF-8" standalone="no"?>
<!-- Created with Inkscape (http://www.inkscape.org/) -->

<svg
   width="90"
   height="120"
   id="svg2"
   version="1.0"
   xmlns="http://www.w3.org/2000/svg"
   xmlns:svg="http://www.w3.org/2000/svg"
   xmlns:rdf="http://www.w3.org/1999/02/22-rdf-syntax-ns#"
   xmlns:cc="http://creativecommons.org/ns#"
   xmlns:dc="http://purl.org/dc/elements/1.1/">
  <defs
     id="defs4" />
  <metadata
     id="metadata7">
    <rdf:RDF>
      <cc:Work
         rdf:about="">
        <dc:format>image/svg+xml</dc:format>
        <dc:type
           rdf:resource="http://purl.org/dc/dcmitype/StillImage" />
        <dc:creator>
          <cc:Agent>
            <dc:title>https://commons.wikimedia.org/wiki/File:Morningstar_icon_bw.svg</dc:title>
          </cc:Agent>
        </dc:creator>
      </cc:Work>
    </rdf:RDF>
  </metadata>
  <g
     id="layer1">
    <path
       style="opacity:1;fill:none;fill-opacity:1;fill-rule:nonzero;stroke:#000000;stroke-width:0.99999994;stroke-linecap:butt;stroke-linejoin:bevel;stroke-miterlimit:4;stroke-dasharray:none;stroke-dashoffset:0;stroke-opacity:1"
       d="M 46.002644,30.450443 L 50.561654,32.503593 C 52.385264,33.324853 50.742744,36.972063 48.919134,36.150803 L 44.360124,34.097653 C 42.536524,33.276393 44.179044,29.629183 46.002644,30.450443 z "
       id="path1894" />
    <path
       id="path2769"
       d="M 50.648934,34.161123 L 55.433654,35.612483 C 57.347534,36.193033 56.186444,40.020803 54.272554,39.440263 L 49.487834,37.988893 C 47.573954,37.408353 48.735044,33.580573 50.648934,34.161123 z "
       style="opacity:1;fill:none;fill-opacity:1;fill-rule:nonzero;stroke:#000000;stroke-width:1.00000012;stroke-linecap:butt;stroke-linejoin:bevel;stroke-miterlimit:4;stroke-dasharray:none;stroke-dashoffset:0;stroke-opacity:1" />
    <path
       style="opacity:1;fill:none;fill-opacity:1;fill-rule:nonzero;stroke:#000000;stroke-width:1;stroke-linecap:butt;stroke-linejoin:bevel;stroke-miterlimit:4;stroke-dasharray:none;stroke-dashoffset:0;stroke-opacity:1"
       d="M 55.545944,37.611253 L 60.364574,38.945733 C 62.292024,39.479533 61.224434,43.334433 59.296984,42.800633 L 54.478354,41.466153 C 52.550904,40.932353 53.618494,37.077453 55.545944,37.611253 z "
       id="path2771" />
    <path
       id="path2773"
       d="M 61.112064,41.096123 L 65.668154,43.155763 C 67.490584,43.979623 65.842874,47.624493 64.020444,46.800633 L 59.464354,44.740993 C 57.641924,43.917143 59.289634,40.272273 61.112064,41.096123 z "
       style="opacity:1;fill:none;fill-opacity:1;fill-rule:nonzero;stroke:#000000;stroke-width:1.0000006;stroke-linecap:butt;stroke-linejoin:bevel;stroke-miterlimit:4;stroke-dasharray:none;stroke-dashoffset:0;stroke-opacity:1" />
    <path
       style="opacity:1;fill:none;fill-opacity:1;fill-rule:nonzero;stroke:#000000;stroke-width:1;stroke-linecap:butt;stroke-linejoin:bevel;stroke-miterlimit:4;stroke-dasharray:none;stroke-dashoffset:0;stroke-opacity:1"
       d="M 66.040594,41.800633 L 71.039594,41.900383 C 73.039204,41.940283 72.959404,45.939483 70.959804,45.899583 L 65.960794,45.799833 C 63.961194,45.759943 64.040994,41.760733 66.040594,41.800633 z "
       id="path2775" />
    <path
       id="path2777"
       d="M 71.800594,43.308543 L 76.689154,44.358293 C 78.644584,44.778203 77.804774,48.689043 75.849354,48.269143 L 70.960794,47.219393 C 69.005364,46.799483 69.845174,42.888643 71.800594,43.308543 z "
       style="opacity:1;fill:none;fill-opacity:1;fill-rule:nonzero;stroke:#000000;stroke-width:1;stroke-linecap:butt;stroke-linejoin:bevel;stroke-miterlimit:4;stroke-dasharray:none;stroke-dashoffset:0;stroke-opacity:1" />
    <path
       style="opacity:1;fill:none;fill-opacity:1;fill-rule:nonzero;stroke:#000000;stroke-width:1;stroke-linecap:butt;stroke-linejoin:bevel;stroke-miterlimit:4;stroke-dasharray:none;stroke-dashoffset:0;stroke-opacity:1"
       d="M 78.750224,45.178923 L 82.662344,48.292653 C 84.227194,49.538143 81.736214,52.667833 80.171364,51.422343 L 76.259244,48.308613 C 74.694394,47.063123 77.185374,43.933433 78.750224,45.178923 z "
       id="path2779" />
    <path
       id="path2781"
       d="M 39.960794,28.300633 L 44.960794,28.300633 C 46.960794,28.300633 46.960794,32.300633 44.960794,32.300633 L 39.960794,32.300633 C 37.960794,32.300633 37.960794,28.300633 39.960794,28.300633 z "
       style="opacity:1;fill:none;fill-opacity:1;fill-rule:nonzero;stroke:#000000;stroke-width:1;stroke-linecap:butt;stroke-linejoin:bevel;stroke-miterlimit:4;stroke-dasharray:none;stroke-dashoffset:0;stroke-opacity:1" />
    <path
       id="path2783"
       d="M 85.016914,51.627163 L 81.272444,54.940613 C 79.774654,56.265993 77.123894,53.270413 78.621684,51.945033 L 82.366154,48.631583 C 83.863944,47.306203 86.514704,50.301783 85.016914,51.627163 z "
       style="opacity:1;fill:none;fill-opacity:1;fill-rule:nonzero;stroke:#000000;stroke-width:1.00000012;stroke-linecap:butt;stroke-linejoin:bevel;stroke-miterlimit:4;stroke-dasharray:none;stroke-dashoffset:0;stroke-opacity:1" />
    <g
       id="handle">
      <path
         style="opacity:1;fill:#0000ff;fill-opacity:1;fill-rule:nonzero;stroke:#000000;stroke-width:1.00000012;stroke-linecap:butt;stroke-linejoin:bevel;stroke-miterlimit:4;stroke-dasharray:none;stroke-dashoffset:0;stroke-opacity:1"
         d="M 79.569854,50.108373 C 79.569854,50.108373 21.043994,101.82899 16.960794,105.91209 C 12.877594,109.99529 22.405054,120.88389 25.127194,116.80069 C 27.849324,112.71749 79.569854,59.635843 82.291984,56.913713 C 85.014114,54.191573 78.889314,48.747313 79.569854,50.108373 z "
         id="path2785" />
    </g>
    <path
       style="opacity:1;fill:#ff0000;fill-opacity:1;fill-rule:nonzero;stroke:#000000;stroke-width:1;stroke-linecap:butt;stroke-linejoin:bevel;stroke-miterlimit:4;stroke-dasharray:none;stroke-dashoffset:0;stroke-opacity:1"
       id="path3660"
       d="M 126.39534 489.24002 A 15.46796 15.46796 0 1 1  95.459423,489.24002 A 15.46796 15.46796 0 1 1  126.39534 489.24002 z"
       transform="translate(-81.99863,-465.4714)" />
    <path
       style="opacity:1;fill:#ff0000;fill-opacity:1;fill-rule:nonzero;stroke:#000000;stroke-width:1;stroke-linecap:butt;stroke-linejoin:miter;stroke-miterlimit:19.29999924;stroke-dasharray:none;stroke-dashoffset:0;stroke-opacity:1"
       d="M 36.960794,10.800632 L 42.406384,6.8006335 L 39.960794,13.800633"
       id="path3662" />
    <path
       style="opacity:1;fill:#ff0000;fill-opacity:1;fill-rule:nonzero;stroke:#000000;stroke-width:1;stroke-linecap:butt;stroke-linejoin:miter;stroke-miterlimit:19.29999924;stroke-dasharray:none;stroke-dashoffset:0;stroke-opacity:1"
       d="M 22.960794,10.800632 L 16.960794,6.3768835 L 19.960794,13.271173"
       id="path3664" />
    <path
       style="opacity:1;fill:#ff0000;fill-opacity:1;fill-rule:nonzero;stroke:#000000;stroke-width:1;stroke-linecap:butt;stroke-linejoin:miter;stroke-miterlimit:19.29999924;stroke-dasharray:none;stroke-dashoffset:0;stroke-opacity:1"
       d="M 14.960793,23.347443 L 6.9607938,26.800633 L 14.960793,27.236533"
       id="path3666" />
    <path
       style="opacity:1;fill:#ff0000;fill-opacity:1;fill-rule:nonzero;stroke:#000000;stroke-width:1;stroke-linecap:butt;stroke-linejoin:miter;stroke-miterlimit:19.29999924;stroke-dasharray:none;stroke-dashoffset:0;stroke-opacity:1"
       d="M 21.960794,34.307603 L 20.960794,41.800633 L 23.960794,35.800633"
       id="path3668" />
    <path
       style="opacity:1;fill:#ff0000;fill-opacity:1;fill-rule:nonzero;stroke:#000000;stroke-width:1;stroke-linecap:butt;stroke-linejoin:miter;stroke-miterlimit:19.29999924;stroke-dasharray:none;stroke-dashoffset:0;stroke-opacity:1"
       d="M 33.390774,35.800633 L 36.960794,42.800633 L 35.960794,34.800633"
       id="path3670" />
    <path
       style="opacity:1;fill:#ff0000;fill-opacity:1;fill-rule:nonzero;stroke:#000000;stroke-width:1;stroke-linecap:butt;stroke-linejoin:miter;stroke-miterlimit:19.29999924;stroke-dasharray:none;stroke-dashoffset:0;stroke-opacity:1"
       d="M 40.960794,22.800633 L 48.960794,23.800633 L 40.960794,26.800633"
       id="path3672" />
    <path
       style="opacity:1;fill:#ff0000;fill-opacity:1;fill-rule:nonzero;stroke:#000000;stroke-width:1;stroke-linecap:butt;stroke-linejoin:miter;stroke-miterlimit:19.29999924;stroke-dasharray:none;stroke-dashoffset:0;stroke-opacity:1"
       d="M 41.960794,16.276373 L 45.411584,15.392493 L 41.960794,19.800633"
       id="path3674" />
    <path
       style="opacity:1;fill:#ff0000;fill-opacity:1;fill-rule:nonzero;stroke:#000000;stroke-width:1;stroke-linecap:butt;stroke-linejoin:miter;stroke-miterlimit:19.29999924;stroke-dasharray:none;stroke-dashoffset:0;stroke-opacity:1"
       d="M 29.960794,10.800632 L 30.960794,8.8006335 L 31.960794,14.331833"
       id="path3676" />
    <path
       style="opacity:1;fill:#ff0000;fill-opacity:1;fill-rule:nonzero;stroke:#000000;stroke-width:1;stroke-linecap:butt;stroke-linejoin:miter;stroke-miterlimit:19.29999924;stroke-dasharray:none;stroke-dashoffset:0;stroke-opacity:1"
       d="M 15.960794,21.800633 L 10.960793,18.800633 L 16.420209,19.281583"
       id="path3682" />
    <path
       style="opacity:1;fill:#ff0000;fill-opacity:1;fill-rule:nonzero;stroke:#000000;stroke-width:1;stroke-linecap:butt;stroke-linejoin:miter;stroke-miterlimit:19.29999924;stroke-dasharray:none;stroke-dashoffset:0;stroke-opacity:1"
       d="M 17.960794,16.800633 L 14.960793,11.800633 L 19.960794,14.800633"
       id="path3684" />
    <path
       style="opacity:1;fill:#ff0000;fill-opacity:1;fill-rule:nonzero;stroke:#000000;stroke-width:1;stroke-linecap:butt;stroke-linejoin:miter;stroke-miterlimit:19.29999924;stroke-dasharray:none;stroke-dashoffset:0;stroke-opacity:1"
       d="M 26.960794,9.3820835 L 26.960794,4.8006335 L 28.960794,10.265972"
       id="path3686" />
    <path
       style="opacity:1;fill:#ff0000;fill-opacity:1;fill-rule:nonzero;stroke:#000000;stroke-width:1;stroke-linecap:butt;stroke-linejoin:miter;stroke-miterlimit:19.29999924;stroke-dasharray:none;stroke-dashoffset:0;stroke-opacity:1"
       d="M 31.960794,10.265972 L 33.960794,5.8006335 L 33.960794,11.800633"
       id="path3688" />
    <path
       style="opacity:1;fill:#ff0000;fill-opacity:1;fill-rule:nonzero;stroke:#000000;stroke-width:1;stroke-linecap:butt;stroke-linejoin:miter;stroke-miterlimit:19.29999924;stroke-dasharray:none;stroke-dashoffset:0;stroke-opacity:1"
       d="M 15.960794,28.800633 L 12.960793,31.800633 L 16.960794,30.800633"
       id="path3690" />
    <path
       style="opacity:1;fill:#ff0000;fill-opacity:1;fill-rule:nonzero;stroke:#000000;stroke-width:1;stroke-linecap:butt;stroke-linejoin:miter;stroke-miterlimit:19.29999924;stroke-dasharray:none;stroke-dashoffset:0;stroke-opacity:1"
       d="M 25.960794,36.252143 L 26.960794,41.800633 L 28.960794,36.252143"
       id="path3692" />
    <path
       style="opacity:1;fill:#ff0000;fill-opacity:1;fill-rule:nonzero;stroke:#000000;stroke-width:1;stroke-linecap:butt;stroke-linejoin:miter;stroke-miterlimit:19.29999924;stroke-dasharray:none;stroke-dashoffset:0;stroke-opacity:1"
       d="M 18.960794,31.800633 L 16.960794,35.800633 L 20.960794,33.800633"
       id="path3694" />
    <path
       style="opacity:1;fill:#ff0000;fill-opacity:1;fill-rule:nonzero;stroke:#000000;stroke-width:1;stroke-linecap:butt;stroke-linejoin:miter;stroke-miterlimit:19.29999924;stroke-dasharray:none;stroke-dashoffset:0;stroke-opacity:1"
       d="M 37.456634,33.800633 L 41.960794,37.800633 L 39.960794,32.363053"
       id="path3696" />
    <path
       style="opacity:1;fill:#ff0000;fill-opacity:1;fill-rule:nonzero;stroke:#000000;stroke-width:1;stroke-linecap:butt;stroke-linejoin:miter;stroke-miterlimit:19.29999924;stroke-dasharray:none;stroke-dashoffset:0;stroke-opacity:1"
       d="M 30.960794,35.800633 L 31.960794,41.800633 L 32.506884,35.800633"
       id="path3698" />
  </g>
</svg>
