<?xml version="1.0" encoding="UTF-8" standalone="no"?>
<svg xmlns="http://www.w3.org/2000/svg" xmlns:svg="http://www.w3.org/2000/svg" xmlns:rdf="http://www.w3.org/1999/02/22-rdf-syntax-ns#" xmlns:cc="http://creativecommons.org/ns#" xmlns:dc="http://purl.org/dc/elements/1.1/" version="1.1" width="2466.543" height="987.73083" style="clip-rule:evenodd;fill-rule:evenodd;image-rendering:optimizeQuality;shape-rendering:geometricPrecision;text-rendering:geometricPrecision" id="svg234">
  <defs id="defs238"/>
  <g id="g4" style="stroke:#000000" transform="translate(-54.391054,-90.499999)">
    <path style="opacity:0.981;stroke:#000000" fill="#090909" d="m 593.5,621.5 c 0.934,-1.068 1.268,-2.401 1,-4 -1.291,-0.237 -2.291,0.096 -3,1 -39.162,4.1 -73.829,18.6 -104,43.5 -42.627,37.169 -79.794,79.002 -111.5,125.5 -13.796,20.222 -21.296,42.556 -22.5,67 0.376,9.765 1.543,19.431 3.5,29 7.076,23.894 13.743,47.894 20,72 1.854,13.961 2.854,27.961 3,42 -40.597,45.55 -91.43,72.05 -152.5,79.5 -42.411,3.75 -80.745,-6.92 -115,-32 C 88.579,1025.05 72.7456,999.881 65,969.5 57.561,942.655 54.2277,915.322 55,887.5 65.8658,855.632 86.3658,832.132 116.5,817 c 4.167,-4.167 8.333,-8.333 12.5,-12.5 33.667,-49.333 67.333,-98.667 101,-148 34.341,-49.656 71.341,-97.323 111,-143 26.081,-29.758 54.915,-56.258 86.5,-79.5 100.527,-65.47 209.86,-109.97 328,-133.5 5.927,-1.064 11.594,-2.898 17,-5.5 2.876,-5.28 5.376,-10.78 7.5,-16.5 14.917,-20.823 28.583,-42.49 41,-65 17.101,-34.702 34.601,-69.202 52.5,-103.5 17.74,-2.26 25.407,5.407 23,23 -0.63,11.839 -1.297,23.672 -2,35.5 3.999,-1.428 7.499,-3.761 10.5,-7 7.895,-8.796 12.228,-19.129 13,-31 0.644,-10.705 1.644,-21.372 3,-32 0.504,-3.5202 2.337,-6.0202 5.5,-7.5 9.7,0 18.7,2.6668 27,8 14.138,8.153 27.305,17.653 39.5,28.5 9.28,11.895 6.779,20.395 -7.5,25.5 -46.195,13.238 -56.028,40.071 -29.5,80.5 12.836,18.215 26.003,36.048 39.5,53.5 35.98,2.674 71.98,4.841 108,6.5 3.97,-0.697 7.97,-1.197 12,-1.5 1.12,-3.409 1.29,-6.909 0.5,-10.5 -2.77,-8.826 -4.1,-17.826 -4,-27 0.83,-0.833 1.67,-1.667 2.5,-2.5 20.35,-11.177 41.02,-21.844 62,-32 24.04,-13.013 46.71,-28.013 68,-45 17.67,-15.667 35.33,-31.333 53,-47 10.17,-7.484 20.17,-7.317 30,0.5 2.73,4.093 2.56,8.093 -0.5,12 -27.5,28.833 -55,57.667 -82.5,86.5 -9.44,8.106 -19.44,15.439 -30,22 -17.17,10.419 -34.5,20.586 -52,30.5 -1.13,1.574 -1.3,3.241 -0.5,5 1,3 2,6 3,9 0.5,1.167 1.33,2 2.5,2.5 158.26,7.969 316.59,13.969 475,18 287,1.409 574,3.076 861,5 4.56,4.28 7.73,9.447 9.5,15.5 2.9,10.155 4.9,20.489 6,31 2.2,26.702 1.87,53.368 -1,80 -0.75,8.412 -5.25,13.245 -13.5,14.5 -24.68,0.537 -49.35,0.537 -74,0 -4.37,8.579 -8.87,17.079 -13.5,25.5 -4.06,5.778 -9.22,10.278 -15.5,13.5 9.31,1.016 18.64,1.683 28,2 6.02,0.076 9.86,2.909 11.5,8.5 0.67,4.667 0.67,9.333 0,14 -2.17,3.51 -5.34,5.677 -9.5,6.5 -6.59,1.466 -13.26,2.466 -20,3 -71.98,3.692 -143.98,7.025 -216,10 -6.11,0.355 -12.11,1.355 -18,3 -4.43,3.132 -9.26,5.299 -14.5,6.5 -7.26,-2.64 -14.76,-4.473 -22.5,-5.5 -33.1,-0.996 -66.1,0.338 -99,4 -8.49,2.333 -16.99,4.5 -25.5,6.5 -6.76,-1.954 -13.59,-3.787 -20.5,-5.5 -53.74,-1.486 -107.41,-0.153 -161,4 -16.21,2.979 -32.54,4.979 -49,6 -64.64,3.199 -129.31,5.866 -194,8 -113,-0.632 -226,-0.965 -339,-1 -10.43,0.153 -20.76,1.153 -31,3 -2.76,1.097 -4.43,3.097 -5,6 -2.46,1.562 -5.12,2.562 -8,3 -23.63,-1.325 -47.3,-1.659 -71,-1 -7.11,0.282 -14.11,1.282 -21,3 -2.63,1.626 -4.96,3.626 -7,6 -3.75,1.045 -7.58,1.545 -11.5,1.5 -35.87,-6.322 -72.04,-9.822 -108.5,-10.5 -36.075,-1.304 -72.075,-0.304 -108,3 -4.037,0.568 -7.87,1.735 -11.5,3.5 5.872,41.706 -3.794,79.373 -29,113 -12.775,13.98 -28.275,23.813 -46.5,29.5 -31.687,11.504 -64.354,16.504 -98,15 -36.759,-6.122 -65.926,-24.289 -87.5,-54.5 -14.633,-20.531 -19.8,-43.198 -15.5,-68 z m 204,-38 c 26.827,-8.24 42.994,1.094 48.5,28 1.976,41.647 -15.191,72.48 -51.5,92.5 -20.912,8.102 -42.412,13.936 -64.5,17.5 -1.509,-0.59 -3.009,-1.256 -4.5,-2 4.783,-6.236 7.95,-13.236 9.5,-21 1.291,-19.975 2.291,-39.975 3,-60 1.507,-15.678 7.84,-29.012 19,-40 4.167,-4.167 8.333,-8.333 12.5,-12.5 9.436,-1.085 18.769,-1.918 28,-2.5 z m -135,10 c 15.722,-0.653 30.722,2.347 45,9 1.8,35.789 0.467,71.455 -4,107 0.077,4.132 0.744,8.132 2,12 -1.644,-0.214 -3.144,0.12 -4.5,1 -31.452,-7.722 -56.118,-25.055 -74,-52 -17.851,-39.622 -6.017,-65.289 35.5,-77 z" id="path2"/>
  </g>
  <g id="g8" style="stroke:#000000" transform="translate(-54.391054,-90.499999)">
    <path style="fill:#ffff00;fill-rule:evenodd;stroke:none;stroke-width:1.89354" fill="#efefef" d="m 928.5,97.5 c 5.806,-0.2321 11.139,1.2679 16,4.5 16.5,9.336 31.667,20.502 45.5,33.5 1.373,2.195 1.706,4.529 1,7 -10.042,3.431 -19.875,7.598 -29.5,12.5 -14.151,8.155 -23.651,19.988 -28.5,35.5 -1.354,8.227 -0.187,16.06 3.5,23.5 -0.333,0.5 -0.667,1 -1,1.5 -17.6,-11.048 -34.766,-22.715 -51.5,-35 -0.483,-0.948 -0.649,-1.948 -0.5,-3 12.057,0.721 21.891,-3.612 29.5,-13 6.783,-9.241 11.116,-19.575 13,-31 0.333,-11.333 0.667,-22.667 1,-34 0.717,-0.5442 1.217,-1.2109 1.5,-2 z" id="path6"/>
  </g>
  <g id="g12" style="stroke:#000000" transform="translate(-54.391054,-90.499999)">
    <path style="opacity:1;stroke:#000000" fill="#eeeeee" d="m 882.5,116.5 c 4.952,0.175 7.452,2.842 7.5,8 0.859,9.719 0.526,19.385 -1,29 -5.606,16.16 -15.606,19.494 -30,10 -0.667,-1.667 -0.667,-3.333 0,-5 5.294,-13.256 11.628,-25.922 19,-38 1.397,-1.57 2.897,-2.904 4.5,-4 z" id="path10"/>
  </g>
  <g id="g16" style="stroke:#000000" transform="translate(-54.391054,-90.499999)">
    <path style="opacity:1;stroke:#000000" fill="#eeeeee" d="m 1307.5,130.5 c 0.74,-0.131 1.41,0.036 2,0.5 -22.36,24.031 -45.7,47.031 -70,69 -8.82,6.579 -17.82,12.913 -27,19 -24.67,15 -49.33,30 -74,45 7.77,21.96 15.93,43.794 24.5,65.5 12.9,28.192 12.57,56.192 -1,84 -1.55,-15.894 -10.05,-26.061 -25.5,-30.5 -5.34,-4.881 -4.84,-9.381 1.5,-13.5 0.17,-1.333 0.33,-2.667 0.5,-4 -4.73,-33.267 -10.9,-66.267 -18.5,-99 -0.67,-2.667 -0.67,-5.333 0,-8 2.5,-1.833 5,-3.667 7.5,-5.5 31.45,-14.553 61.78,-30.886 91,-49 11.18,-8.09 22.18,-16.424 33,-25 18.27,-16.779 36.94,-32.945 56,-48.5 z" id="path14"/>
  </g>
  <g id="g20" style="stroke:#000000" transform="translate(-54.391054,-90.499999)">
    <path style="opacity:1;stroke:#000000" fill="#eaeaea" d="m 1309.5,143.5 c 0.54,0.06 0.88,0.393 1,1 -23.04,28.542 -48.04,55.375 -75,80.5 -25.7,19.332 -53.2,35.832 -82.5,49.5 -3.96,-1.917 -5.13,-4.917 -3.5,-9 33.02,-18.169 64.69,-38.336 95,-60.5 21.86,-20.367 43.53,-40.867 65,-61.5 z" id="path18"/>
  </g>
  <g id="g24" style="stroke:#000000" transform="translate(-54.391054,-90.499999)">
    <path style="opacity:1;stroke:#000000" fill="#efefef" d="m 849.5,172.5 c 9.492,1.912 18.159,5.745 26,11.5 22.511,14.843 44.178,30.843 65,48 9.197,8.863 18.031,18.03 26.5,27.5 4.58,6.16 8.914,12.493 13,19 2.035,3.061 3.201,6.395 3.5,10 -2.155,0.128 -4.155,-0.372 -6,-1.5 -35.174,-24.087 -70.174,-48.42 -105,-73 -11.713,-9.948 -20.046,-22.115 -25,-36.5 -0.063,-2.014 0.603,-3.681 2,-5 z" id="path22"/>
  </g>
  <g id="g28" style="stroke:#000000" transform="translate(-54.391054,-90.499999)">
    <path style="opacity:1;stroke:#000000" fill="#eeeeee" d="m 840.5,190.5 c 3.009,-0.077 5.176,1.256 6.5,4 3.54,7.74 8.54,14.407 15,20 1.187,1.544 1.52,3.211 1,5 -6.75,6.994 -11.583,15.161 -14.5,24.5 -8.565,1.275 -17.232,1.942 -26,2 -3.22,1.352 -6.553,2.186 -10,2.5 -0.16,-1.699 0.006,-3.366 0.5,-5 9.705,-17.411 18.872,-35.077 27.5,-53 z" id="path26"/>
  </g>
  <g id="g32" style="stroke:#000000" transform="translate(-54.391054,-90.499999)">
    <path style="opacity:1;stroke:#000000" fill="#e6e6e6" d="m 867.5,226.5 c 5.401,-0.534 10.401,0.633 15,3.5 8.398,5.063 16.231,10.896 23.5,17.5 0.591,0.983 0.257,1.65 -1,2 -1.225,-0.362 -2.391,-0.862 -3.5,-1.5 -5.389,-4.389 -11.056,-8.389 -17,-12 -11.308,-1.358 -15.474,3.476 -12.5,14.5 2.785,5.119 6.618,9.286 11.5,12.5 5.831,3.081 11.498,6.415 17,10 -12.226,-4.279 -23.893,-9.945 -35,-17 -9.303,-6.915 -10.47,-15.082 -3.5,-24.5 1.73,-1.902 3.563,-3.569 5.5,-5 z" id="path30"/>
  </g>
  <g id="g36" style="stroke:#000000" transform="translate(-54.391054,-90.499999)">
    <path style="fill:#666666;fill-rule:evenodd;stroke:none;stroke-width:1.89354" fill="#ececec" d="m 878.5,242.5 c 2.489,-0.202 4.823,0.298 7,1.5 8.343,8.844 18.343,15.178 30,19 15.667,11 31.333,22 47,33 7.453,4.197 15.453,6.53 24,7 11.41,6.742 20.91,15.575 28.5,26.5 0.59,5.068 -1.75,7.068 -7,6 -16.576,-1.459 -30.91,-7.792 -43,-19 -0.856,-4.044 -2.522,-7.711 -5,-11 -7.851,-7.998 -16.351,-15.165 -25.5,-21.5 -16.333,-9.667 -32.667,-19.333 -49,-29 -3.955,-2.119 -6.622,-5.285 -8,-9.5 0.185,-1.084 0.518,-2.084 1,-3 z" id="path34"/>
  </g>
  <g id="g40" style="stroke:#000000" transform="translate(-54.391054,-90.499999)">
    <path style="opacity:1;stroke:#000000" fill="#efefef" d="m 826.5,254.5 c 8.991,-0.42 17.657,1.08 26,4.5 31.481,16.238 62.481,33.238 93,51 -4.772,-1.037 -9.439,-2.704 -14,-5 -21.333,-10.333 -42.667,-20.667 -64,-31 -10.685,-4.842 -21.685,-8.842 -33,-12 -12.002,-3.237 -21.836,-0.07 -29.5,9.5 -5.365,7.393 -9.698,15.393 -13,24 -2.516,9.599 -1.849,18.933 2,28 5.999,10.008 13.499,18.841 22.5,26.5 17.446,13.445 35.446,26.111 54,38 6.21,4.542 11.376,10.042 15.5,16.5 5.988,28.432 3.321,56.099 -8,83 -16.519,32.685 -43.019,51.185 -79.5,55.5 -31.515,3.82 -56.015,-7.347 -73.5,-33.5 -16.677,-42.318 -3.343,-70.651 40,-85 1.257,0.35 1.591,1.017 1,2 -28.716,17.864 -34.716,41.531 -18,71 17.136,17.694 36.969,21.527 59.5,11.5 17.137,-12.454 24.304,-29.288 21.5,-50.5 -4.439,-14.437 -13.272,-25.27 -26.5,-32.5 8.64,0.685 17.307,1.518 26,2.5 9.808,0.363 15.641,-4.303 17.5,-14 3.456,-11.143 1.456,-21.143 -6,-30 -15.767,-14.762 -30.433,-30.429 -44,-47 -21.193,-29.389 -17.026,-54.556 12.5,-75.5 5.828,-3.212 11.828,-5.712 18,-7.5 z" id="path38"/>
  </g>
  <g id="g44" style="stroke:#000000" transform="translate(-54.391054,-90.499999)">
    <path style="opacity:1;stroke:#000000" fill="#eaeaea" d="m 822.5,268.5 c 9.785,-0.574 19.119,1.259 28,5.5 21.545,9.105 42.212,19.772 62,32 -16.475,-4.955 -33.142,-9.622 -50,-14 -12.203,-3.534 -24.536,-4.2 -37,-2 -4.373,1.713 -8.207,4.213 -11.5,7.5 -0.912,3.952 -0.245,7.619 2,11 22.274,24.275 45.274,47.942 69,71 8.804,9.276 14.138,20.276 16,33 7.376,57.728 -13.124,102.228 -61.5,133.5 -24.721,14.428 -50.721,17.428 -78,9 -10.702,-4.377 -20.035,-10.711 -28,-19 7.691,3.942 15.691,7.609 24,11 52.16,12.283 92.993,-3.884 122.5,-48.5 17.265,-30.592 21.598,-62.925 13,-97 -5.12,-8.787 -11.953,-15.953 -20.5,-21.5 -23.158,-13.483 -44.325,-29.649 -63.5,-48.5 -9.233,-10.026 -12.566,-21.693 -10,-35 5.215,-11.699 13.048,-21.033 23.5,-28 z" id="path42"/>
  </g>
  <g id="g48" style="stroke:#000000" transform="translate(-54.391054,-90.499999)">
    <path style="opacity:1;stroke:#000000" fill="#e7e7e7" d="m 822.5,297.5 c 10.673,1.753 20.173,6.086 28.5,13 0.667,0.667 0.667,1.333 0,2 -11.008,0.325 -20.674,-3.342 -29,-11 -0.579,-1.428 -0.412,-2.762 0.5,-4 z" id="path46"/>
  </g>
  <g id="g52" style="stroke:#000000" transform="translate(-54.391054,-90.499999)">
    <path style="opacity:1;stroke:#000000" fill="#6a6a6a" d="m 1015.5,297.5 c -6.52,-0.323 -12.86,0.01 -19,1 -0.543,-0.06 -0.876,-0.393 -1,-1 6.82,-1.318 13.49,-1.318 20,0 z" id="path50"/>
  </g>
  <g id="g56" style="stroke:#000000" transform="translate(-54.391054,-90.499999)">
    <path style="opacity:1;stroke:#000000" fill="#f1f1f1" d="m 1015.5,297.5 c 34.02,0.929 68.02,2.429 102,4.5 1.17,0.5 2,1.333 2.5,2.5 3.84,15.223 7.18,30.556 10,46 0.67,5.667 0.67,11.333 0,17 -2.01,5.338 -5.84,8.504 -11.5,9.5 -2.57,2.479 -4.9,5.146 -7,8 -15.93,5.014 -32.26,6.681 -49,5 -3.6,-0.154 -6.93,-1.154 -10,-3 -5.18,-10.926 -13.85,-15.593 -26,-14 -6.47,2.132 -10.47,6.466 -12,13 -27.668,2.263 -45.168,-9.904 -52.5,-36.5 -1.607,-6.188 -1.774,-12.355 -0.5,-18.5 1.667,-0.667 3.333,-0.667 5,0 12.753,5.14 25.753,9.473 39,13 5.66,0.499 11.32,0.666 17,0.5 0.17,-5.676 0,-11.343 -0.5,-17 -0.67,-1.333 -1.33,-2.667 -2,-4 -7.67,-8.505 -15.51,-16.838 -23.5,-25 6.14,-0.99 12.48,-1.323 19,-1 z" id="path54"/>
  </g>
  <g id="g60" style="stroke:#000000" transform="translate(-54.391054,-90.499999)">
    <path style="opacity:1;stroke:#000000" fill="#f1f1f1" d="m 866.5,302.5 c 6.489,0.216 12.822,1.382 19,3.5 17.061,5.131 34.061,10.465 51,16 2.026,14.723 2.859,29.557 2.5,44.5 -16.615,3.58 -33.449,4.747 -50.5,3.5 -14.843,-13.344 -29.509,-26.844 -44,-40.5 4.029,-4.106 8.195,-8.106 12.5,-12 1.582,-3.87 4.082,-6.87 7.5,-9 0.672,-2.03 1.338,-4.03 2,-6 z" id="path58"/>
  </g>
  <g id="g64" style="stroke:#000000" transform="translate(-54.391054,-90.499999)">
    <path style="opacity:1;stroke:#000000" fill="#f0f0f0" d="m 766.5,305.5 c 1.967,-0.239 3.801,0.094 5.5,1 2,14.67 6.167,28.67 12.5,42 -0.318,1.147 -0.984,1.981 -2,2.5 -2.601,0.92 -5.268,1.587 -8,2 -40.05,2.519 -79.717,7.853 -119,16 -11.837,2.723 -23.504,6.057 -35,10 -20.494,7.943 -40.828,16.276 -61,25 -9.282,3.205 -18.616,6.205 -28,9 -10.938,2.65 -21.604,1.983 -32,-2 -6.572,-3.801 -6.572,-7.801 0,-12 13.401,-8.368 27.401,-15.701 42,-22 72.629,-31.6 147.629,-55.433 225,-71.5 z" id="path62"/>
  </g>
  <g id="g68" style="stroke:#000000" transform="translate(-54.391054,-90.499999)">
    <path style="fill:#ffff00;fill-rule:evenodd;stroke:none;stroke-width:1.89354" fill="#f2f2f2" d="m 1172.5,304.5 c 144.33,5.782 288.66,11.615 433,17.5 298.33,1.961 596.66,3.294 895,4 5.44,7.984 8.27,16.817 8.5,26.5 2.76,31.312 3.09,62.645 1,94 -0.81,5.31 -3.97,7.476 -9.5,6.5 -22.12,1.173 -44.12,0.173 -66,-3 -0.81,-0.308 -1.47,-0.808 -2,-1.5 2.39,-4.146 3.06,-8.479 2,-13 -4.95,-0.783 -9.95,-1.283 -15,-1.5 -2,-1 -4,-2 -6,-3 -8.65,-6.653 -16.65,-13.986 -24,-22 -13.25,-4.601 -26.91,-6.934 -41,-7 -47.31,-1.859 -94.65,-2.859 -142,-3 -342.01,-1.79 -684.01,-4.29 -1026,-7.5 2.69,-28.776 -0.65,-56.776 -10,-84 0.44,-1.239 1.11,-2.239 2,-3 z" id="path66"/>
  </g>
  <g id="g72" style="stroke:#000000" transform="translate(-54.391054,-90.499999)">
    <path style="opacity:1;stroke:#000000" fill="#d9d9d9" d="m 833.5,317.5 c 4.61,-0.38 7.276,1.62 8,6 -4.089,-0.088 -6.756,-2.088 -8,-6 z" id="path70"/>
  </g>
  <g id="g76" style="stroke:#000000" transform="translate(-54.391054,-90.499999)">
    <path style="opacity:1;stroke:#000000" fill="#e9e9e9" d="m 948.5,327.5 c 2.11,0.953 3.277,2.619 3.5,5 1.445,10.115 3.445,20.115 6,30 6.051,13.717 16.218,22.884 30.5,27.5 5.284,1.547 10.618,2.88 16,4 18.03,1.425 36.03,3.092 54,5 -4,0.333 -8,0.667 -12,1 -2,1.333 -4,2.667 -6,4 -19.21,1.509 -38.21,0.176 -57,-4 -20.573,-3.24 -32.407,-15.073 -35.5,-35.5 -1.283,-7.613 -2.116,-15.279 -2.5,-23 -0.254,-4.98 0.746,-9.647 3,-14 z" id="path74"/>
  </g>
  <g id="g80" style="stroke:#000000" transform="translate(-54.391054,-90.499999)">
    <path style="fill:#008000;fill-rule:evenodd;stroke:none;stroke-width:1.89354" fill="#f1f1f1" d="m 760.5,360.5 c 10.412,-0.426 20.746,0.074 31,1.5 6.428,4.423 12.261,9.59 17.5,15.5 0.49,1.293 0.657,2.627 0.5,4 -61.043,1.094 -118.376,16.261 -172,45.5 -23.349,12.366 -45.349,26.699 -66,43 -18.633,16.297 -36.966,32.964 -55,50 -10.5,8.5 -21,17 -31.5,25.5 -2,2.667 -2,5.333 0,8 6.961,4.21 14.461,7.043 22.5,8.5 16.708,2.785 33.375,5.785 50,9 0.808,0.308 1.475,0.808 2,1.5 -27.369,22.442 -54.869,44.776 -82.5,67 -2,2.667 -2,5.333 0,8 3.186,2.117 6.686,3.45 10.5,4 -44.313,38.387 -82.813,81.72 -115.5,130 -11.309,16.953 -19.642,35.286 -25,55 -2.216,16.107 -1.55,32.107 2,48 5.131,17.727 10.464,35.393 16,53 4.18,14.563 6.68,29.396 7.5,44.5 0.202,4.986 -0.465,9.819 -2,14.5 -2.452,0.814 -4.785,0.314 -7,-1.5 -18.519,-15.187 -35.019,-32.353 -49.5,-51.5 -13.223,-19.666 -20.889,-41.333 -23,-65 -2.625,-33.587 1.709,-66.253 13,-98 23.523,-64.742 59.856,-121.075 109,-169 6.153,-7.641 10.153,-16.308 12,-26 0.97,-12.633 -4.863,-17.467 -17.5,-14.5 -4.369,1.267 -8.203,3.433 -11.5,6.5 -15.891,23.89 -32.557,47.223 -50,70 -33.287,42.289 -66.954,84.289 -101,126 -10.667,14.667 -21.333,29.333 -32,44 -15.16,20.149 -33.327,36.982 -54.5,50.5 -27.054,16.369 -55.721,20.035 -86,11 -1.5806,-0.707 -3.0806,-1.54 -4.5,-2.5 -0.6667,-1 -0.6667,-2 0,-3 13.3185,-22.319 31.4852,-39.486 54.5,-51.5 8.616,-7.61 16.116,-16.11 22.5,-25.5 50.774,-80.767 105.441,-158.767 164,-234 34.464,-43.464 73.297,-82.63 116.5,-117.5 17.152,-12.412 34.819,-24.079 53,-35 1.333,-0.667 2.667,-0.667 4,0 8.684,4.511 17.684,8.177 27,11 16.619,1.21 32.619,-1.456 48,-8 27.564,-12.948 55.898,-23.948 85,-33 17.448,-4.69 35.115,-8.356 53,-11 21.826,-2.784 43.493,-5.617 65,-8.5 z" id="path78"/>
  </g>
  <g id="g84" style="stroke:#000000" transform="translate(-54.391054,-90.499999)">
    <path style="opacity:1;stroke:#000000" fill="#e7e7e7" d="m 922.5,375.5 c 6.667,0 13.333,0 20,0 0.17,1.322 -0.163,2.489 -1,3.5 -4.021,-0.048 -7.687,0.952 -11,3 -3.041,3.912 -5.708,8.079 -8,12.5 -3.774,-2.271 -7.107,-5.104 -10,-8.5 -4.376,-2.403 -9.043,-3.903 -14,-4.5 1.412,-1.306 3.079,-2.14 5,-2.5 6.462,-1.227 12.795,-2.394 19,-3.5 z" id="path82"/>
  </g>
  <g id="g88" style="stroke:#000000" transform="translate(-54.391054,-90.499999)">
    <path style="opacity:1;stroke:#000000" fill="#eaeaea" d="m 816.5,373.5 c 9.932,5.432 17.766,13.098 23.5,23 4.066,13.894 -0.934,21.894 -15,24 -27.062,-7.747 -53.562,-6.247 -79.5,4.5 -7.623,3.727 -14.456,8.561 -20.5,14.5 -2.293,4.782 -5.459,8.116 -9.5,10 7.506,-19.006 20.839,-32.172 40,-39.5 12.216,-5.045 24.882,-6.711 38,-5 5.563,1.974 11.23,3.474 17,4.5 9.978,-0.817 14.978,-6.317 15,-16.5 -0.094,-3.357 -0.927,-6.523 -2.5,-9.5 -2.022,-3.503 -4.189,-6.837 -6.5,-10 z" id="path86"/>
  </g>
  <g id="g92" style="stroke:#000000" transform="translate(-54.391054,-90.499999)">
    <path style="opacity:1;stroke:#000000" fill="#e9e9e9" d="m 1026.5,379.5 c 6,-0.744 11.16,0.922 15.5,5 0.67,1.333 0.67,2.667 0,4 -5.86,1.432 -11.7,1.265 -17.5,-0.5 -1.07,-0.739 -1.74,-1.739 -2,-3 1.15,-1.981 2.48,-3.814 4,-5.5 z" id="path90"/>
  </g>
  <g id="g96" style="stroke:#000000" transform="translate(-54.391054,-90.499999)">
    <path style="opacity:1;stroke:#000000" fill="#f2f2f2" d="m 939.5,386.5 c 3.605,0.299 6.939,1.465 10,3.5 7.128,7.567 15.795,12.567 26,15 20.412,4.708 41.08,7.708 62,9 21.32,9.491 42.99,18.158 65,26 10.94,3.322 22.11,5.489 33.5,6.5 7.74,-0.816 15.24,-2.316 22.5,-4.5 7.37,16.198 20.04,24.698 38,25.5 4.55,0.201 8.88,-0.633 13,-2.5 7.67,-0.667 15.33,-0.667 23,0 19.39,2.673 38.72,5.673 58,9 16.86,1.71 30.36,9.21 40.5,22.5 10.98,21.197 4.48,32.363 -19.5,33.5 -53.6,3.883 -107.27,5.216 -161,4 -1.88,-0.216 -3.55,-0.883 -5,-2 12.81,-13.309 13.31,-27.142 1.5,-41.5 -11.7,-10.367 -24.2,-11.533 -37.5,-3.5 -13.8,16.041 -13.14,31.541 2,46.5 -57.99,1.595 -115.989,2.762 -174,3.5 -24.399,0.317 -48.733,1.317 -73,3 33.166,-32.811 48.666,-72.644 46.5,-119.5 -1.331,-9.657 -3.831,-18.99 -7.5,-28 0.333,-0.667 0.667,-1.333 1,-2 1.2,1.031 2.534,1.865 4,2.5 5.227,5.638 10.561,11.138 16,16.5 2.222,-5.445 4.722,-10.778 7.5,-16 1.742,-3.246 4.242,-5.579 7.5,-7 z" id="path94"/>
  </g>
  <g id="g100" style="stroke:#000000" transform="translate(-54.391054,-90.499999)">
    <path style="opacity:1;stroke:#000000" fill="#dcdcdc" d="m 1129.5,393.5 c 2.69,-0.164 5.35,0.003 8,0.5 2.5,0.412 4.5,1.578 6,3.5 -0.53,0.692 -1.19,1.192 -2,1.5 -6.75,0.877 -13.42,0.544 -20,-1 2.6,-1.795 5.27,-3.295 8,-4.5 z" id="path98"/>
  </g>
  <g id="g104" style="stroke:#000000" transform="translate(-54.391054,-90.499999)">
    <path style="opacity:1;stroke:#000000" fill="#ececec" d="m 1105.5,395.5 c 1.09,0.12 1.75,0.787 2,2 -0.93,2.106 -2.1,4.106 -3.5,6 -0.67,3.667 -0.67,7.333 0,11 1.57,5.461 3.4,10.794 5.5,16 -11.85,-4.253 -23.51,-9.086 -35,-14.5 -7.9,-2.975 -15.9,-5.642 -24,-8 7,-0.333 14,-0.667 21,-1 2.11,-0.36 4.11,-1.027 6,-2 1.71,-2.043 3.71,-3.71 6,-5 5.72,-0.282 11.38,-0.948 17,-2 1.99,-0.374 3.66,-1.207 5,-2.5 z" id="path102"/>
  </g>
  <g id="g108" style="stroke:#000000" transform="translate(-54.391054,-90.499999)">
    <path style="opacity:1;stroke:#000000" fill="#d9d9d9" d="m 803.5,398.5 c 3.14,-1.141 6.473,-1.308 10,-0.5 2.519,2.442 1.852,3.942 -2,4.5 -2.967,-0.817 -5.634,-2.15 -8,-4 z" id="path106"/>
  </g>
  <g id="g116" style="stroke:#000000" transform="translate(-54.391054,-90.499999)">
    <path style="opacity:1;stroke:#000000" fill="#ececec" d="m 723.5,400.5 c 2.027,-0.162 4.027,0.005 6,0.5 -16.805,6.403 -32.805,14.403 -48,24 -40,27 -80,54 -120,81 -11.409,7.067 -23.076,13.733 -35,20 -1.333,0.667 -2.667,0.667 -4,0 5.968,-6.969 12.301,-13.636 19,-20 18.786,-17.793 38.453,-34.459 59,-50 38.636,-23.989 79.636,-42.489 123,-55.5 z" id="path114"/>
  </g>
  <g id="g120" style="stroke:#000000" transform="translate(-54.391054,-90.499999)">
    <path style="opacity:1;stroke:#000000" fill="#dddddd" d="m 1130.5,406.5 c 5.68,-0.166 11.34,0 17,0.5 2.28,0.233 4.28,1.066 6,2.5 -0.48,0.978 -1.14,1.811 -2,2.5 -12.55,2.546 -25.21,3.546 -38,3 -3.42,-1.143 -3.75,-2.81 -1,-5 6.07,-1.497 12.07,-2.664 18,-3.5 z" id="path118"/>
  </g>
  <g id="g124" style="stroke:#000000" transform="translate(-54.391054,-90.499999)">
    <path style="opacity:1;stroke:#000000" fill="#f1f1f1" d="m 734.5,407.5 c 1.052,-0.149 2.052,0.017 3,0.5 -22.627,17.425 -33.961,40.591 -34,69.5 0.533,26.957 10.2,49.957 29,69 -32.861,4.393 -65.861,5.893 -99,4.5 -27.408,-0.98 -54.741,-2.98 -82,-6 -9.103,-1.128 -18.103,-2.795 -27,-5 -3.206,-0.625 -4.206,-2.291 -3,-5 5.999,-1.499 11.666,-3.832 17,-7 13.333,-8 26.667,-16 40,-24 36.06,-25.058 72.393,-49.725 109,-74 14.848,-9.331 30.515,-16.831 47,-22.5 z" id="path122"/>
  </g>
  <g id="g128" style="stroke:#000000" transform="translate(-54.391054,-90.499999)">
    <path style="opacity:1;stroke:#000000" fill="#e6e6e6" d="m 1170.5,418.5 c 0.62,0.111 1.12,0.444 1.5,1 0.85,8.177 2.52,16.177 5,24 5.65,8.934 13.48,11.434 23.5,7.5 5.6,-3.603 9.77,-8.437 12.5,-14.5 2.79,19.207 -5.38,26.707 -24.5,22.5 -21.06,-6.634 -27.06,-20.134 -18,-40.5 z" id="path126"/>
  </g>
  <g id="g132" style="stroke:#000000" transform="translate(-54.391054,-90.499999)">
    <path style="opacity:1;stroke:#000000" fill="#e5e5e5" d="m 1121.5,422.5 c 7.84,-0.464 15.51,0.036 23,1.5 -6.51,5.168 -13.51,5.834 -21,2 -1.32,-0.816 -1.99,-1.983 -2,-3.5 z" id="path130"/>
  </g>
  <g id="g136" style="stroke:#000000" transform="translate(-54.391054,-90.499999)">
    <path style="opacity:1;stroke:#000000" fill="#e9e9e9" d="m 1180.5,422.5 c 4.12,2.568 8.12,5.402 12,8.5 3.06,2.035 6.39,3.201 10,3.5 -1.86,10.264 -7.53,13.097 -17,8.5 -4.57,-6.032 -6.23,-12.866 -5,-20.5 z" id="path134"/>
  </g>
  <g id="g140" style="stroke:#000000" transform="translate(-54.391054,-90.499999)">
    <path style="opacity:1;stroke:#000000" fill="#e7e7e7" d="m 772.5,431.5 c 7.008,-0.166 14.008,0 21,0.5 7.483,1.661 13.65,5.494 18.5,11.5 7.597,10.127 11.597,21.46 12,34 -2.717,2.821 -5.05,2.487 -7,-1 -1,-6.667 -2,-13.333 -3,-20 -4.742,-9.719 -12.575,-15.219 -23.5,-16.5 -9.231,-0.751 -18.398,-0.251 -27.5,1.5 -5.486,0.143 -5.986,-1.357 -1.5,-4.5 3.759,-1.879 7.425,-3.713 11,-5.5 z" id="path138"/>
  </g>
  <g id="g144" style="stroke:#000000" transform="translate(-54.391054,-90.499999)">
    <path style="opacity:1;stroke:#000000" fill="#ededed" d="m 1219.5,441.5 c 31.83,4.083 63.5,9.25 95,15.5 12.1,2.219 23.1,6.885 33,14 4.3,5.093 7.13,10.926 8.5,17.5 1.53,11.957 1.87,23.957 1,36 -3.24,11.574 -10.74,18.741 -22.5,21.5 -12.26,2.988 -24.59,5.654 -37,8 -159.05,2.249 -318.05,4.916 -477,8 23.528,-11.869 48.528,-17.203 75,-16 110,-1.652 220,-3.319 330,-5 28.03,-0.668 56.03,-2.002 84,-4 31.91,-1.656 40.75,-16.823 26.5,-45.5 -7.4,-10.415 -17.24,-17.249 -29.5,-20.5 -28.23,-6.079 -56.56,-11.579 -85,-16.5 -1.57,-4.187 -2.23,-8.52 -2,-13 z" id="path142"/>
  </g>
  <g id="g148" style="stroke:#000000" transform="translate(-54.391054,-90.499999)">
    <path style="opacity:1;stroke:#000000" fill="#eaeaea" d="m 779.5,444.5 c 14.878,-0.071 24.545,6.929 29,21 -2.357,0.163 -4.69,-0.003 -7,-0.5 -7.489,-3.241 -14.489,-7.241 -21,-12 -1.727,-1.389 -3.061,-3.056 -4,-5 0.571,-1.599 1.571,-2.766 3,-3.5 z" id="path146"/>
  </g>
  <g id="g152" style="stroke:#000000" transform="translate(-54.391054,-90.499999)">
    <path style="opacity:1;stroke:#000000" fill="#eaeaea" d="m 757.5,450.5 c 4.954,0.973 9.621,2.806 14,5.5 11.835,7.083 23.502,14.417 35,22 1.833,1.833 3.667,3.667 5.5,5.5 0.659,2.853 -0.508,4.52 -3.5,5 -16.753,-6.873 -32.086,-16.04 -46,-27.5 -2.209,-1.873 -4.042,-4.04 -5.5,-6.5 -0.579,-1.428 -0.412,-2.762 0.5,-4 z" id="path150"/>
  </g>
  <g id="g156" style="stroke:#000000" transform="translate(-54.391054,-90.499999)">
    <path style="opacity:1;stroke:#000000" fill="#e6e6e6" d="m 747.5,460.5 c 1.911,0.074 3.078,1.074 3.5,3 0.955,17.927 9.788,29.76 26.5,35.5 8.711,1.365 17.044,0.199 25,-3.5 2.854,0.049 4.021,1.382 3.5,4 -14.925,10.797 -29.758,10.63 -44.5,-0.5 -7.506,-5.524 -12.673,-12.691 -15.5,-21.5 -1.01,-5.88 -0.51,-11.546 1.5,-17 z" id="path154"/>
  </g>
  <g id="g160" style="stroke:#000000" transform="translate(-54.391054,-90.499999)">
    <path style="opacity:1;stroke:#000000" fill="#e9e9e9" d="m 760.5,472.5 c 12.777,3.392 23.777,9.892 33,19.5 -13.007,2.11 -23.507,-2.057 -31.5,-12.5 -1.202,-2.177 -1.702,-4.511 -1.5,-7 z" id="path158"/>
  </g>
  <g id="g164" style="stroke:#000000" transform="translate(-54.391054,-90.499999)">
    <path style="opacity:1;stroke:#000000" fill="#e5e5e5" d="m 1117.5,490.5 c 1.37,-0.157 2.71,0.01 4,0.5 6.14,9.768 11.64,19.934 16.5,30.5 0.08,5.755 -1.92,6.422 -6,2 -6.03,-8.729 -11.03,-18.062 -15,-28 -0.64,-1.765 -0.47,-3.432 0.5,-5 z" id="path162"/>
  </g>
  <g id="g168" style="stroke:#000000" transform="translate(-54.391054,-90.499999)">
    <path style="opacity:1;stroke:#000000" fill="#e2e2e2" d="m 1133.5,492.5 c 7.97,5.277 11.64,12.61 11,22 -5.25,-6.495 -8.91,-13.829 -11,-22 z" id="path166"/>
  </g>
  <g id="g172" style="stroke:#000000" transform="translate(-54.391054,-90.499999)">
    <path style="opacity:1;stroke:#000000" fill="#e4e4e4" d="m 1110.5,505.5 c 1.87,0.359 3.37,1.359 4.5,3 3.35,5.688 5.85,11.688 7.5,18 -8.85,-4.003 -12.85,-11.003 -12,-21 z" id="path170"/>
  </g>
  <g id="g196" style="stroke:#000000" transform="translate(-54.391054,-90.499999)">
    <path style="opacity:1;stroke:#000000" fill="#676767" d="m 1790.5,530.5 c 9.49,-0.994 19.15,-1.327 29,-1 0.32,4.532 -0.02,8.866 -1,13 0,-4 0,-8 0,-12 -9.33,0 -18.67,0 -28,0 z" id="path194"/>
  </g>
  <g id="g204" style="stroke:#000000" transform="translate(-54.391054,-90.499999)">
    <path style="opacity:1;stroke:#000000" fill="#ebebeb" d="m 498.5,543.5 c 21.365,2.838 42.698,6.005 64,9.5 53.569,7.857 107.236,8.524 161,2 6.667,-0.667 13.333,-0.667 20,0 9.793,4.23 19.793,7.896 30,11 -21.595,2.509 -43.262,4.175 -65,5 -47.599,2.551 -94.932,0.217 -142,-7 -23.06,-3.294 -46.06,-6.961 -69,-11 -2.151,-0.265 -3.818,-1.265 -5,-3 1.335,-2.823 3.335,-4.989 6,-6.5 z" id="path202"/>
  </g>
  <g id="g208" style="stroke:#000000" transform="translate(-54.391054,-90.499999)">
    <path style="opacity:1;stroke:#000000" fill="#424242" d="m 1826.5,535.5 c 0,4 0,8 0,12 3.67,0 7.33,0 11,0 -3.8,0.983 -7.8,1.317 -12,1 -0.32,-4.532 0.02,-8.866 1,-13 z" id="path206"/>
  </g>
  <g id="g212" style="stroke:#000000" transform="translate(-54.391054,-90.499999)">
    <path style="opacity:1;stroke:#000000" fill="#eaeaea" d="m 990.5,564.5 c 66.68,-0.382 133.34,0.118 200,1.5 6.28,0.123 12.44,0.956 18.5,2.5 1.36,2.103 0.53,3.603 -2.5,4.5 -25.99,-0.421 -51.99,-0.421 -78,0 -9.91,-0.37 -18.24,2.964 -25,10 -1.7,0.958 -3.53,1.458 -5.5,1.5 -19.24,-4.734 -38.74,-7.901 -58.5,-9.5 -26.98,-1.464 -53.977,-2.298 -81,-2.5 -86.111,0.949 -172.111,4.449 -258,10.5 -50.868,3.773 -100.202,14.44 -148,32 -18.448,7.391 -36.782,15.057 -55,23 -4.341,1.691 -8.674,3.024 -13,4 28.38,-22.715 57.047,-45.049 86,-67 7,-0.667 14,-0.667 21,0 33.208,4.22 66.541,5.554 100,4 48.996,-3 97.996,-6 147,-9 50.822,-1.941 101.489,-3.775 152,-5.5 z" id="path210"/>
  </g>
  <g id="g216" style="stroke:#000000" transform="translate(-54.391054,-90.499999)">
    <path style="opacity:1;stroke:#000000" fill="#f2f2f2" d="m 406.5,578.5 c 5.452,-0.356 9.285,1.977 11.5,7 0.569,6.537 -1.431,12.203 -6,17 -17.126,15.456 -32.46,32.456 -46,51 -22.77,31.85 -42.77,65.517 -60,101 -18.022,40.074 -26.022,82.074 -24,126 3.735,27.226 14.069,51.559 31,73 13.567,16.571 28.233,32.238 44,47 2.164,2.31 3.164,4.98 3,8 -24.901,20.86 -52.401,37.7 -82.5,50.5 -57.202,21.11 -110.869,14.45 -161,-20 -22.5474,-18.91 -37.3808,-42.745 -44.5,-71.5 -6.9708,-27.285 -10.1374,-54.952 -9.5,-83 46.454,13.551 87.787,4.385 124,-27.5 11.232,-10.563 21.732,-21.73 31.5,-33.5 12.089,-17.177 24.422,-34.177 37,-51 44.112,-52.909 86.779,-106.909 128,-162 6,-9.333 12,-18.667 18,-28 2.015,-1.197 3.849,-2.53 5.5,-4 z" id="path214"/>
  </g>
  <g id="g220" style="stroke:#000000" transform="translate(-54.391054,-90.499999)">
    <path style="opacity:1;stroke:#000000" fill="#eaeaea" d="m 842.5,583.5 c 10.366,-4.001 17.199,-0.667 20.5,10 4.033,33.876 -3.301,65.209 -22,94 -9.037,12.442 -20.537,21.942 -34.5,28.5 -36.578,16.418 -74.911,23.084 -115,20 -19.454,-4.062 -36.788,-12.395 -52,-25 -12.038,-10.36 -22.205,-22.194 -30.5,-35.5 -13.203,-21.312 -13.87,-42.979 -2,-65 5.122,-6.485 11.622,-9.485 19.5,-9 -18.81,24.715 -19.977,50.382 -3.5,77 25.84,37.169 61.34,53.669 106.5,49.5 30.191,-1.876 58.191,-10.543 84,-26 31.777,-26.667 44.611,-60.501 38.5,-101.5 -2.687,-6.052 -5.854,-11.719 -9.5,-17 z" id="path218"/>
  </g>
  <g id="g224" style="stroke:#000000" transform="translate(-54.391054,-90.499999)">
    <path style="opacity:1;stroke:#000000" fill="#949494" d="m 727.5,588.5 c 9.175,-1.322 18.508,-1.322 28,0 -0.124,0.607 -0.457,0.94 -1,1 -8.818,-0.993 -17.818,-1.327 -27,-1 z" id="path222"/>
  </g>
  <g id="g228" style="stroke:#000000" transform="translate(-54.391054,-90.499999)">
    <path style="opacity:1;stroke:#000000" fill="#ececec" d="m 727.5,588.5 c 9.182,-0.327 18.182,0.007 27,1 -4.952,6.791 -10.118,13.458 -15.5,20 -4.049,6.481 -6.716,13.481 -8,21 -0.946,21.338 -1.946,42.671 -3,64 -1.065,8.965 -4.899,16.465 -11.5,22.5 -1.444,0.781 -2.777,0.614 -4,-0.5 -1.391,-2.12 -2.058,-4.453 -2,-7 1.327,-6.975 2.494,-13.975 3.5,-21 1.832,-30.64 2.666,-61.307 2.5,-92 -6.359,-1.674 -12.693,-3.507 -19,-5.5 0.333,-0.333 0.667,-0.667 1,-1 9.637,-1.091 19.304,-1.591 29,-1.5 z" id="path226"/>
  </g>
  <g id="g232" style="stroke:#000000" transform="translate(-54.391054,-90.499999)">
    <path style="opacity:0.031;stroke:#000000" fill="#a2a2a2" d="m 591.5,618.5 c 0.709,-0.904 1.709,-1.237 3,-1 0.268,1.599 -0.066,2.932 -1,4 0.215,-1.679 -0.452,-2.679 -2,-3 z" id="path230"/>
  </g>
  <g id="pommell" transform="translate(-54.391054,-90.499999)">
    <path style="fill:#ff0000;fill-rule:evenodd;stroke:#000000;stroke-width:3.71739" d="m 407.29294,580.10353 c -10.33394,4.31417 -13.23485,17.83171 -20.60262,25.58802 -53.49026,74.84412 -114.27359,144.10812 -169.05228,217.95492 -26.43152,32.95254 -61.63096,65.16564 -106.13114,66.92869 -16.602749,1.54721 -33.648672,-0.98019 -49.447851,-4.75077 3.412557,49.41568 7.53019,105.38323 44.625011,142.48031 28.58937,26.9158 68.14578,42.4764 107.5414,40.7367 52.74995,1.7926 100.49156,-26.4965 140.80712,-57.6577 12.8789,-7.433 -9.90092,-16.61884 -13.47228,-24.77205 -29.90364,-30.95986 -59.61384,-68.39338 -60.06107,-113.52498 -2.47878,-57.86712 17.56437,-114.1096 47.29115,-163.01462 21.98217,-39.67947 49.86081,-75.74976 81.57772,-108.09736 6.79136,-5.79527 10.84768,-23.12582 -3.07516,-21.87116 z" id="path413"/>
  </g>
  <g id="handle" transform="translate(-54.391054,-90.499999)">
    <g id="g112" style="stroke:#000000">
      <path style="fill:#008000;fill-rule:evenodd;stroke:none;stroke-width:1.89354" fill="#f2f2f2" d="m 1194.5,399.5 c 344.99,3.18 689.99,5.68 1035,7.5 44.03,0.397 88.03,1.731 132,4 7.87,0.774 15.53,2.441 23,5 8.71,7.712 17.71,15.045 27,22 4.35,2.538 9.02,4.204 14,5 0.62,1.569 0.96,3.236 1,5 -4.04,18.052 -13.7,32.385 -29,43 -9.54,5.27 -19.21,10.27 -29,15 -186.03,4.382 -372.03,9.716 -558,16 -37.7,1.026 -75.36,2.692 -113,5 -13.3,1.28 -26.3,3.947 -39,8 -20,9.333 -40,18.667 -60,28 -89.7,0.598 -179.36,-0.735 -269,-4 -2.21,-0.17 -4.21,-0.837 -6,-2 9.36,-2.343 18.36,-5.677 27,-10 8.82,-6.135 13.66,-14.635 14.5,-25.5 0.65,-10.693 0.32,-21.36 -1,-32 -1.65,-12.147 -7.48,-21.647 -17.5,-28.5 -7.34,-3.838 -15.01,-6.838 -23,-9 -33.16,-7.194 -66.5,-13.528 -100,-19 -8.18,-1.726 -16.18,-4.059 -24,-7 -8.95,-4.45 -15.28,-11.283 -19,-20.5 0.09,-1.925 1.09,-3.092 3,-3.5 3.78,-0.918 7.45,-1.751 11,-2.5 z" id="path110"/>
    </g>
    <g id="g176" style="stroke:#000000">
      <path style="fill:#008000;fill-rule:evenodd;stroke:none;stroke-width:1.89354" fill="#eeeeee" d="m 2390.5,507.5 c 13.41,-0.444 26.74,0.056 40,1.5 4.96,3.999 5.3,8.499 1,13.5 -1.62,0.654 -3.28,1.154 -5,1.5 -81.91,5.602 -163.91,8.935 -246,10 -1.39,-1.171 -2.23,-2.671 -2.5,-4.5 -0.5,-3.652 -0.67,-7.318 -0.5,-11 60.67,-1.705 121.33,-3.538 182,-5.5 10.39,-2.287 20.73,-4.12 31,-5.5 z" id="path174"/>
    </g>
    <g id="g180" style="stroke:#000000">
      <path style="fill:#008000;fill-rule:evenodd;stroke:none;stroke-width:1.89354" fill="#eaeaea" d="m 2163.5,517.5 c 1.64,-0.214 3.14,0.12 4.5,1 2.3,7.52 2.97,15.186 2,23 -4.96,4.215 -9.62,3.881 -14,-1 -3.27,-6.361 -3.27,-12.694 0,-19 2.26,-1.999 4.76,-3.332 7.5,-4 z" id="path178"/>
    </g>
    <g id="g184" style="stroke:#000000">
      <path style="fill:#008000;fill-rule:evenodd;stroke:none;stroke-width:1.89354" fill="#eeeeee" d="m 2068.5,520.5 c 26,0 52,0 78,0 0,5.667 0,11.333 0,17 -38.32,2.06 -76.65,3.727 -115,5 0,-6.667 0,-13.333 0,-20 12.49,-0.513 24.83,-1.18 37,-2 z" id="path182"/>
    </g>
    <g id="g188" style="stroke:#000000">
      <path style="fill:#008000;fill-rule:evenodd;stroke:none;stroke-width:1.89354" fill="#eeeeee" d="m 2013.5,522.5 c 3.08,-0.24 6.08,0.093 9,1 1.16,7.645 1.33,15.312 0.5,23 -1.99,5.208 -5.49,6.374 -10.5,3.5 -1.82,-1.8 -2.98,-3.966 -3.5,-6.5 -1.71,-7.822 -0.21,-14.822 4.5,-21 z" id="path186"/>
    </g>
    <g id="g192" style="stroke:#000000">
      <path style="fill:#008000;fill-rule:evenodd;stroke:none;stroke-width:1.89354" fill="#ececec" d="m 1837.5,547.5 c -3.67,0 -7.33,0 -11,0 0,-4 0,-8 0,-12 -0.32,-2.222 0.34,-4.056 2,-5.5 57.61,-3.515 115.28,-5.348 173,-5.5 0,5.667 0,11.333 0,17 -54.67,1.936 -109.34,3.936 -164,6 z" id="path190"/>
    </g>
    <g id="g200" style="stroke:#000000">
      <path style="fill:#008000;fill-rule:evenodd;stroke:none;stroke-width:1.89354" fill="#efefef" d="m 1790.5,530.5 c 9.33,0 18.67,0 28,0 0,4 0,8 0,12 -0.14,3.117 -1.48,5.617 -4,7.5 -5.47,2.08 -11.14,3.413 -17,4 -56.95,3.552 -113.95,5.218 -171,5 15.92,-9.293 32.59,-16.959 50,-23 37.93,-3.108 75.93,-4.942 114,-5.5 z" id="path198"/>
    </g>
    <path style="fill:#008000;fill-rule:evenodd;stroke:none;stroke-width:1.89354" d="m 768.29371,361.24425 c -34.42233,2.55191 -68.79673,6.92625 -102.63866,13.77283 -39.87869,8.34654 -77.28863,24.98071 -114.59677,40.76321 -14.47929,5.96149 -30.64626,5.36874 -45.88891,4.643 -8.63601,-2.9203 -16.66627,-8.43661 -25.74835,-9.72927 -13.08124,6.24545 -24.81503,15.31729 -37.03989,23.14225 -42.61405,29.50612 -79.19542,66.82179 -113.44026,105.48785 -29.32494,34.21805 -55.33119,71.11383 -82.26064,107.2067 -36.09601,49.83534 -69.92861,101.25434 -103.36934,152.88612 -8.41719,11.93109 -18.82166,22.92301 -31.97078,29.58996 -17.152375,12.05689 -33.271969,27.01726 -42.931368,45.83781 2.592044,4.59106 9.361687,4.60713 13.973828,6.05817 26.93599,5.82517 55.81739,0.13371 78.61628,-15.33156 23.36726,-14.69146 42.18826,-35.28547 58.18073,-57.55789 55.38511,-75.74915 118.8937,-145.35367 171.42241,-223.23391 4.22981,-8.18949 12.25998,-14.3702 21.65453,-14.61464 6.66217,-1.65596 12.85205,3.75692 13.09624,10.34125 0.32672,15.99919 -9.97642,29.97495 -21.09248,40.58458 -48.34602,49.97442 -85.64032,111.10717 -105.41442,177.90469 -8.15752,30.44822 -9.75564,62.71389 -5.10161,93.86503 4.64959,29.52446 22.17077,54.95091 42.51726,76.04869 9.60863,9.43971 18.80804,19.84502 30.42944,26.82132 4.80195,2.03761 4.54466,-5.02701 5.04793,-7.90835 0.84763,-29.24528 -9.71203,-57.24615 -17.78684,-84.91535 -9.28136,-27.04423 -12.92451,-57.70886 -1.42328,-84.68204 15.21705,-36.77599 40.75668,-68.17249 66.19813,-98.35858 20.6416,-23.87232 43.15381,-46.04534 66.39006,-67.3527 -2.1857,-3.2031 -9.57946,-3.12498 -9.69709,-8.44326 0.1986,-6.01552 7.42661,-8.54808 10.87383,-12.65386 23.77168,-19.70029 48.45503,-38.56926 71.79488,-58.68049 -2.97261,-2.85847 -8.6076,-2.09224 -12.47596,-3.46072 -19.03736,-4.1558 -39.17331,-5.16115 -57.06008,-13.30116 -4.38627,-1.47599 -7.26761,-7.60335 -2.92369,-10.82822 19.0117,-16.59494 38.77637,-32.42623 57.04698,-49.90629 20.42913,-19.334 42.1153,-37.4011 66.22941,-51.99072 54.20245,-34.89423 116.77052,-57.3716 181.29224,-61.30085 6.10563,-0.86627 13.10257,0.0158 18.77109,-2.07055 -1.34793,-5.5674 -7.56855,-8.77304 -11.43788,-12.6227 -7.84814,-7.52106 -19.36678,-5.65634 -29.23697,-6.01035 z" id="path415"/>
  </g>
  <path style="fill:#ffff00;fill-rule:evenodd;stroke:#000000;stroke-width:1.85869" d="m 972.79075,474.29486 c -112.78871,1.04772 -225.40239,8.0623 -337.97427,14.5758 -34.08976,2.23377 -68.17523,-1.04919 -102.12144,-3.77915 -5.68643,0.16067 -11.97224,-1.07157 -17.28912,0.47457 -26.83828,20.88068 -54.30021,41.20843 -80.2801,63.04627 1.53893,2.19024 5.48459,-1.53432 7.59065,-1.60177 37.72742,-15.9526 75.67075,-31.96905 115.70119,-41.20291 61.07197,-15.26217 124.38348,-16.08845 186.90547,-19.61743 80.49457,-3.10862 161.21246,-7.09536 241.69942,-1.77033 19.70255,1.1239 38.97935,5.47373 58.32755,8.91061 8.3982,-3.96587 15.6243,-12.51165 25.7265,-11.30249 27.3024,-0.57347 54.6938,0.43725 81.9422,-1.36622 3.4337,-1.25822 -2.3885,-3.3331 -3.7596,-3.23236 -28.658,-2.33625 -57.5288,-1.77157 -86.2764,-2.52468 -30.0622,-0.4 -60.1271,-0.67595 -90.19205,-0.60991 z" id="path486"/>
  <path style="fill:#ffff00;fill-rule:evenodd;stroke:#000000;stroke-width:1.85869" d="m 671.49852,498.78298 c -8.85373,0.17739 -17.77176,-0.0848 -26.54333,1.3401 4.58998,2.68298 11.81768,3.50539 17.40798,5.48313 -0.68711,37.35687 0.51824,75.01995 -5.2339,112.03797 -0.40497,2.81893 -0.0249,8.98669 4.01841,8.51993 9.07167,-6.44689 11.6406,-17.84761 12.02737,-28.34384 2.33191,-22.48307 0.56919,-45.59264 5.64901,-67.63967 3.13154,-11.79629 13.90576,-19.43233 18.79984,-30.19555 -2.54226,-2.13846 -7.44359,-0.39386 -10.65951,-1.14072 -5.15481,-0.0824 -10.31056,-0.0928 -15.46587,-0.0614 z" id="path557"/>
  <path style="fill:#ffff00;fill-rule:evenodd;stroke:#000000;stroke-width:1.85869" d="m 793.23357,491.94057 c -4.74691,-0.29686 -2.20194,5.39333 -0.61158,7.4329 8.81313,12.84532 6.69545,29.00824 5.74578,43.6273 -2.51951,27.42815 -18.80072,52.57221 -40.24157,69.2753 -30.46057,18.67222 -66.54518,27.07924 -102.1316,25.93648 -33.59203,-0.62425 -65.72173,-18.6997 -84.7619,-46.23285 -11.49639,-16.0021 -18.88943,-37.12965 -12.01754,-56.50961 2.08568,-8.29284 6.58308,-15.65055 10.67293,-22.9908 -1.12464,-2.64441 -5.59106,0.40271 -7.60544,0.80522 -10.78431,3.98807 -13.87321,16.73258 -16.41872,26.69095 -2.76114,16.67645 1.33194,34.11265 11.24579,47.82292 18.59523,27.80798 46.77598,51.59885 80.63497,56.87033 40.83057,3.38842 82.86684,-4.04237 119.51389,-22.52346 29.03698,-15.51049 44.47605,-47.91993 50.10843,-79.12148 1.04919,-13.08036 2.12102,-26.40092 0.63842,-39.46702 -1.44038,-7.17692 -7.22262,-12.44106 -14.77186,-11.61618 z" id="path559"/>
  <path style="fill:#ffff00;fill-rule:evenodd;stroke:#000000;stroke-width:1.85869" d="m 1165.9252,351.8773 c -1.0134,3.09662 0.075,7.74215 1.622,10.68827 26.2884,6.78234 53.3794,10.17356 79.7546,16.66794 18.4866,2.43639 35.1213,16.21347 39.582,34.51687 3.4238,9.80914 1.3058,22.72896 -8.8688,27.58628 -15.3476,7.61637 -33.3291,5.47525 -49.9661,7.23637 -52.9602,3.17493 -106.0559,2.62208 -159.0813,3.89908 -79.31485,1.39524 -158.64392,2.25078 -237.95682,3.50919 -20.65685,0.55262 -41.36116,5.12008 -60.07783,13.80628 0.84927,2.0186 5.3844,0.35843 7.3543,0.949 142.20373,-2.5836 284.41325,-4.98587 426.62465,-7.18232 14.5527,-0.74241 29.3351,0.44273 43.7382,-1.59802 14.575,-3.98086 30.7135,-4.65757 43.7935,-12.82625 8.1358,-6.58592 11.0567,-17.52624 9.9981,-27.64188 -0.534,-14.01857 0.5432,-31.00734 -10.8761,-41.25383 -18.0734,-13.07137 -41.318,-14.62596 -62.483,-19.06427 -20.9823,-3.48933 -42.0144,-6.98246 -63.1574,-9.29271 z" id="path561"/>
  <path style="fill:#ffff00;fill-rule:evenodd;stroke:#000000;stroke-width:1.85869" d="m 443.75504,453.51457 c -1.52257,1.53384 -7.5317,5.55926 -3.03298,7.38497 18.82383,5.01515 38.42479,6.68753 57.60827,10.01036 37.25074,5.44842 74.74901,10.36573 112.48349,9.48776 34.41918,0.29527 69.26503,-0.84365 103.22688,-5.06944 -8.65425,-4.2185 -17.93662,-8.48804 -27.5671,-10.22814 -23.82526,-0.98539 -47.43306,4.25116 -71.28835,3.51802 -36.96114,0.46513 -74.10387,0.15439 -110.6106,-6.28373 -20.26627,-2.92704 -40.56359,-6.1229 -60.81961,-8.8198 z" id="path563"/>
  <path style="fill:#ffff00;fill-rule:evenodd;stroke:#000000;stroke-width:1.85869" d="m 678.93334,318.05637 c -31.45599,10.25199 -57.95647,30.72223 -85.38666,48.5295 -38.99983,25.69083 -76.35846,54.35379 -118.15161,75.45222 -2.00103,1.57197 -8.88336,1.62879 -7.26311,5.44887 11.01378,4.97867 23.65635,5.09759 35.4758,7.00538 33.08501,3.59321 66.34788,5.92041 99.64493,5.03744 24.27034,-0.41011 49.08342,0.46955 72.86623,-4.31084 -4.95594,-7.12984 -11.56737,-13.4416 -15.3651,-21.50564 -16.97088,-31.50981 -16.94461,-74.21961 7.32637,-102.11974 3.49943,-4.6321 8.7762,-8.3168 11.40338,-13.39532 -0.11832,-0.19905 -0.36346,-0.17283 -0.55023,-0.14187 z" id="path565"/>
  <path style="fill:#ffff00;fill-rule:evenodd;stroke:#000000;stroke-width:1.85869" d="m 668.03035,311.375 c -36.25425,10.14217 -71.04513,25.517 -103.73203,44.1508 -31.29492,17.90425 -58.02708,42.53514 -83.97015,67.29594 -3.46949,3.9733 -8.24901,7.69462 -10.25795,12.50648 10.39981,-3.99695 20.1913,-10.59144 29.99809,-16.16948 45.8077,-29.69755 90.39528,-61.27449 136.33819,-90.74386 10.4482,-5.96696 21.682,-10.71546 32.23735,-16.25767 0.27244,-0.41916 -0.18218,-0.86295 -0.6135,-0.78221 z" id="path567"/>
  <path style="fill:#ffff00;fill-rule:evenodd;stroke:#000000;stroke-width:1.85869" d="m 712.4341,215.88995 c -24.6574,4.16003 -48.84867,10.97025 -73.03364,17.30814 -59.37833,16.71784 -118.01611,37.02364 -173.48455,64.17968 -8.34194,4.86341 -18.27926,8.4115 -24.52475,16.04477 -1.05483,5.72097 6.60656,7.68216 10.81672,8.75576 21.82174,4.19264 42.88217,-5.98996 62.79717,-13.43172 33.94762,-14.34776 68.30765,-28.8638 104.99805,-34.37543 33.60195,-6.42087 67.67748,-9.64857 101.68522,-12.97123 2.72839,-0.48993 9.70771,-1.00722 6.82324,-5.46971 -5.42849,-12.26617 -8.63264,-25.313 -11.52991,-38.30138 -0.86761,-1.61575 -2.91083,-1.83882 -4.54755,-1.73888 z" id="path569"/>
  <path style="fill:#ffff00;fill-rule:evenodd;stroke:#000000;stroke-width:1.85869" d="m 812.3555,212.949 c -0.62954,5.76312 -6.24398,7.88911 -8.64072,12.64954 -3.6714,4.95391 -8.93075,8.82919 -12.66871,13.44325 14.2648,13.63003 28.80155,27.03068 43.39724,40.26841 16.20794,-0.0457 32.88015,0.21023 48.63688,-3.83052 2.76055,-5.32048 0.51969,-12.12636 0.83851,-17.94753 -0.86869,-8.11154 -0.3974,-16.6947 -2.55055,-24.52371 -11.63606,-6.23559 -25.03251,-8.67614 -37.43226,-13.12275 -10.31987,-2.87446 -20.84216,-6.94202 -31.58039,-6.93669 z" id="path571"/>
  <path style="fill:#ffff00;fill-rule:evenodd;stroke:#000000;stroke-width:1.85869" d="m 885.38272,296.45552 c -7.268,3.34292 -9.49144,12.47767 -13.15555,18.93935 -0.81064,3.12655 -2.26981,4.38578 -4.36554,1.27346 -5.8459,-4.7748 -10.73274,-11.598 -17.23351,-15.24923 -0.51463,5.77151 3.54537,11.40333 4.27723,17.20475 4.48298,21.27138 1.52008,43.60006 -3.95131,64.42868 -6.8758,24.93645 -21.56195,46.95268 -39.03757,65.76687 11.84587,-0.61273 25.23315,-1.54845 37.66252,-1.81345 68.37902,-2.31781 136.84296,-1.7978 205.19401,-4.8775 -4.4195,-6.26504 -9.638,-13.79052 -9.7297,-22.25651 -0.8597,-13.79442 9.9124,-27.92469 24.099,-28.69249 20.4218,-2.86958 39.1674,21.03265 29.7258,39.87538 -1.1942,3.987 -5.7142,6.88889 -5.9413,10.96435 6.4644,2.26868 14.0015,0.52322 20.809,1.21931 50.8666,-0.007 101.8982,-0.19433 152.5211,-5.63842 8.3551,-0.65777 16.6173,-8.09482 14.5322,-17.03987 -1.5936,-17.58597 -18.2821,-29.29565 -33.7653,-34.44402 -22.2539,-4.12507 -44.6392,-7.96549 -67.128,-10.54139 -12.3675,-1.02999 -24.7666,-0.0233 -36.9844,1.68786 -14.8823,0.22751 -29.621,-7.68708 -36.7561,-20.95667 -1.4759,-3.07642 -4.7067,-4.65515 -7.8456,-2.69757 -22.9509,6.63945 -46.3638,-2.5586 -67.9079,-10.15519 -15.7857,-5.74544 -31.05725,-13.02108 -46.71535,-18.9154 -23.1952,-2.85108 -46.87068,-4.71219 -69.2265,-11.77822 -8.77781,-3.01349 -15.26961,-9.66037 -22.97868,-14.40607 -1.9089,-0.8828 -3.94131,-1.94132 -6.09855,-1.89801 z" id="path573"/>
  <path style="fill:#ffff00;fill-rule:evenodd;stroke:#000000;stroke-width:0.929346" d="m 1056.9749,415.65127 c -1.2969,1.10385 -0.084,3.48304 -0.2703,5.00958 0.4187,6.24095 4.8222,11.72835 10.3259,14.32036 0.4316,-1.96257 -1.2662,-4.24857 -1.6804,-6.26629 -2.0239,-4.53534 -3.542,-10.10207 -7.9151,-12.96684 -0.1433,-0.0623 -0.3015,-0.11671 -0.4601,-0.0968 z" id="path575"/>
  <path style="fill:#ffff00;fill-rule:evenodd;stroke:#000000;stroke-width:0.929346" d="m 1064.3503,400.34739 c -2.7749,0.43331 -1.3062,4.21216 -0.7413,5.9002 3.8736,9.59484 8.6965,18.95879 15.0904,27.12511 0.9251,0.72985 2.905,3.50197 3.9484,1.59989 1.5517,-4.51441 -2.0835,-8.64698 -3.6087,-12.6429 -3.8675,-7.17669 -7.3808,-14.68556 -12.3154,-21.19434 -0.6152,-0.62847 -1.5241,-0.81904 -2.3734,-0.78796 z" id="path577"/>
  <path style="fill:#ffff00;fill-rule:evenodd;stroke:#000000;stroke-width:0.929346" d="m 1080.676,403.69958 c -1.2761,1.04677 0.5187,3.22612 0.7234,4.50687 2.2124,4.86975 4.4051,9.99229 7.9576,14.02745 1.3841,-0.68851 0.039,-3.15505 0.041,-4.41718 -0.9941,-5.48796 -4.0679,-10.64428 -8.4385,-14.07113 -0.091,-0.031 -0.1868,-0.0567 -0.2837,-0.046 z" id="path579"/>
  <path style="fill:#ffff00;fill-rule:evenodd;stroke:#000000;stroke-width:0.929346" d="m 1051.4419,305.75767 c -4.0523,1.87777 -8.5062,2.75993 -12.9572,3.24291 -4.7365,0.65976 -10.3718,0.12823 -13.7691,4.22968 -5.1217,4.95767 -12.9459,3.28807 -19.4365,4.12058 -0.7762,0.17141 -4.454,-0.22648 -3.0253,1.2548 9.2353,3.80292 18.8597,6.67185 27.8778,11.01872 7.7944,3.21178 15.5812,6.70709 23.5525,9.33787 0.9891,-1.48098 -1.1129,-3.46662 -1.2113,-5.08719 -2.1183,-5.43753 -4.0129,-11.08594 -3.4628,-17.01778 -1.131,-4.03633 2.9461,-6.55149 3.6292,-10.17072 -0.048,-0.60432 -0.6071,-1.00624 -1.1973,-0.92887 z" id="path581"/>
  <path style="fill:#ffff00;fill-rule:evenodd;stroke:#000000;stroke-width:0.929346" d="m 1070.9923,332.05272 c -1.1723,-0.19012 -4.0338,0.21653 -2.7895,1.97853 5.2924,4.56567 13.8158,4.33446 19.5323,0.61254 0.975,-1.51095 -2.1434,-1.45121 -2.9335,-1.63888 -4.586,-0.48759 -9.1922,-0.96536 -13.8093,-0.95219 z" id="path583"/>
  <path style="fill:#ffff00;fill-rule:evenodd;stroke:#000000;stroke-width:0.929346" d="m 1078.9774,316.38363 c -7.1024,0.27595 -14.2633,1.57747 -20.9548,3.95705 -1.3715,0.4864 -2.1263,2.3196 -0.4476,3.00134 2.9952,1.88589 6.9192,0.48592 10.2457,0.82071 9.7173,-0.45655 19.6869,-0.51678 29.0689,-3.33029 1.7092,-0.35693 1.7202,-2.8167 -0.1064,-3.05119 -5.7395,-1.54155 -11.9131,-1.22551 -17.8058,-1.39762 z" id="path585"/>
  <path style="fill:#ffff00;fill-rule:evenodd;stroke:#000000;stroke-width:0.929346" d="m 1076.5723,303.36887 c -2.8007,0.32935 -5.6362,1.80385 -7.6649,3.67043 1.3016,1.38107 4.0246,1.00407 5.8633,1.28895 4.3465,-0.0638 8.9553,0.54612 13.1542,-0.58918 1.029,-1.72232 -1.9223,-2.88405 -3.1691,-3.37423 -2.6476,-0.76049 -5.4327,-1.06696 -8.1835,-0.99597 z" id="path587"/>
  <path style="fill:#ffff00;fill-rule:evenodd;stroke:#000000;stroke-width:0.929346" d="m 1241.1582,51.793901 c -3.969,0.75451 -6.521,4.57655 -9.711,6.76922 -16.5137,13.61567 -31.4617,29.10377 -48.908,41.576849 -13.4812,10.58431 -27.8724,19.92016 -42.8414,28.25628 -20.7255,12.01877 -42.1055,22.8374 -63.6623,33.26728 -3.5159,2.20027 -8.0618,3.80003 -10.1515,7.60545 -1.0337,5.40521 1.3928,10.80709 2.1746,16.11198 6.1128,28.50297 11.9287,57.13847 15.7906,86.02838 0.046,3.20736 1.5975,7.32345 -1.798,9.26412 -2.4254,1.66525 -3.8069,4.60694 -2.6367,7.46726 1.2161,4.76312 6.9774,4.93075 10.516,7.16962 8.4087,3.928 14.6327,11.84087 16.7733,20.8806 0.7513,1.33838 0.2586,4.38695 1.5336,4.6693 4.4441,-10.2279 8.2178,-21.06484 8.8515,-32.27734 0.1517,-10.85714 0.7627,-21.97134 -2.7436,-32.43508 -3.4876,-12.69185 -9.3952,-24.52719 -13.7351,-36.92876 -5.4963,-14.87289 -11.4849,-29.67139 -16.3002,-44.72481 -0.9063,-2.20377 2.5451,-2.43877 3.6709,-3.67493 28.3009,-17.66754 57.3942,-34.11238 84.976,-52.91189 19.4902,-13.59413 35.64,-31.211569 52.6814,-47.615189 6.022,-6.10391 12.347,-12.02335 18.18,-18.24239 -0.6039,-0.5868 -1.8263,-0.13141 -2.6601,-0.25595 z" id="path589"/>
  <path style="fill:#ffff00;fill-rule:evenodd;stroke:#000000;stroke-width:0.929346" d="m 894.71363,237.8589 c -2.04827,1.19443 -2.19292,4.306 -2.67446,6.43213 -1.08639,11.89748 0.75495,23.9007 3.24386,35.51764 2.71248,13.03582 13.05157,24.0029 25.93977,27.39315 20.53034,5.49941 42.01825,7.507 63.21475,5.96095 3.9898,-0.62809 6.6878,-4.82584 11.0123,-4.16795 1.6993,-0.32686 -0.4982,-1.32898 -1.296,-1.04582 -15.6746,-2.0373 -31.5534,-2.57798 -47.1588,-4.87685 -10.89817,-2.24355 -22.16453,-5.39881 -30.59143,-13.07752 -7.94376,-6.79385 -13.63267,-16.34431 -15.18519,-26.76116 -2.00479,-7.84421 -2.62236,-15.99767 -4.92409,-23.7536 -0.30582,-0.65988 -0.70728,-1.64491 -1.58071,-1.62097 z" id="path591"/>
  <path style="fill:#ffff00;fill-rule:evenodd;stroke:#000000;stroke-width:0.929346" d="m 974.34935,289.36005 c -3.0946,-0.12497 -5.4343,3.25057 -5.5004,6.04582 1.4116,2.75638 5.2954,2.5953 7.9717,3.04256 3.4957,-0.13591 7.5797,0.61458 10.671,-1.33915 1.5189,-2.42097 -1.9715,-4.42684 -3.727,-5.46204 -2.8767,-1.55114 -6.1426,-2.37735 -9.4153,-2.28719 z" id="path593"/>
  <path style="fill:#ffff00;fill-rule:evenodd;stroke:#000000;stroke-width:0.0821434" d="m 1000.6192,317.49983 c -0.5148,0.0419 -1.05225,-0.003 -1.54845,0.1394 -0.2782,0.14863 -0.1065,0.56824 0.1851,0.57251 0.77965,0.22123 1.54525,0.51407 2.33575,0.68619 0.3427,-0.0335 0.339,-0.43848 0.2071,-0.67045 -0.1051,-0.24986 0.098,-0.63309 -0.2399,-0.7409 -0.3077,-0.0392 -0.6286,0.0158 -0.9396,0.0132 z" id="path595"/>
  <path style="fill:#ffff00;fill-rule:evenodd;stroke:#000000;stroke-width:0.0821434" d="m 996.49365,307.93895 c -0.3,0.008 -0.3639,0.35213 -0.2628,0.57954 0.011,0.28263 0.2721,0.48728 0.5462,0.38484 0.6,-0.0714 1.2078,-0.0853 1.8043,-0.17963 0.293,-0.0991 0.2398,-0.55563 -0.066,-0.58657 -0.6716,-0.085 -1.3464,-0.15804 -2.0222,-0.19818 z" id="path597"/>
  <path style="fill:#ffff00;fill-rule:evenodd;stroke:#000000;stroke-width:0.464673" d="m 877.91436,285.27406 c -4.55718,0.1361 -9.17795,-0.44159 -13.64655,0.69575 -5.80024,1.15027 -11.71849,1.86546 -17.39304,3.55943 -0.86546,0.2289 -2.84357,1.32329 -0.84897,1.49039 4.16387,0.85188 8.4014,1.97591 12.00934,4.31578 3.14252,2.72438 5.91875,6.01248 9.65635,7.95341 1.24916,-0.39449 1.41606,-2.13621 2.20418,-3.06106 1.97063,-3.09414 3.78274,-6.37411 6.34068,-9.02578 3.05668,-2.07328 6.72566,-2.73264 10.29333,-2.98361 1.21316,-0.27291 1.23529,-1.88737 1.34729,-2.83215 -3.25983,-0.2657 -6.6591,-0.035 -9.96261,-0.11216 z" id="path599"/>
  <path style="fill:#ffff00;fill-rule:evenodd;stroke:#000000;stroke-width:0.464673" d="m 706.62745,382.55023 c -0.80224,0.65132 -0.0265,1.98661 0.005,2.86235 0.70464,4.07271 4.12958,6.8404 6.99818,9.48715 5.32465,4.45188 12.29351,7.03995 19.26333,6.75287 1.7267,-0.0667 3.5801,0.15723 5.19843,-0.47938 -0.55586,-1.24432 -2.06397,-2.07797 -3.00282,-3.14674 -8.01068,-7.33657 -17.82557,-12.70917 -28.32243,-15.48248 h -0.0786 z" id="path601"/>
  <path style="fill:#ffff00;fill-rule:evenodd;stroke:#000000;stroke-width:0.464673" d="m 703.45404,360.40491 c -1.0481,0.3416 -0.84215,1.90583 -0.71558,2.80579 1.56953,4.01864 5.21012,6.74887 8.44133,9.40663 12.79033,9.97404 26.84096,18.4216 41.84624,24.60938 2.04226,1.17239 4.84782,-0.85319 4.40328,-3.16622 -0.45454,-1.86504 -2.42903,-2.87977 -3.57122,-4.30071 -4.39933,-4.32489 -10.00749,-7.09866 -15.06616,-10.54459 -8.61292,-5.37301 -17.11375,-10.96597 -26.06498,-15.7658 -2.98445,-1.24459 -6.06883,-2.53319 -9.27291,-3.04448 z" id="path603"/>
  <path style="fill:#ffff00;fill-rule:evenodd;stroke:#000000;stroke-width:0.464673" d="m 725.1378,354.20667 c -1.09471,0.85582 -2.75754,1.99125 -2.51581,3.56979 1.92583,4.15439 6.32817,6.14765 9.87155,8.67139 4.9496,3.12231 10.11892,6.03734 15.65519,7.96923 1.71562,0.18344 3.55859,0.50614 5.23821,0.0518 0.31831,-0.99477 -0.68297,-2.05944 -0.91336,-3.03502 -3.18689,-8.07864 -10.35627,-14.66542 -18.99823,-16.28567 -2.73559,-0.56841 -5.56621,-0.87037 -8.33755,-0.94149 z" id="path605"/>
  <path style="fill:#ffff00;fill-rule:evenodd;stroke:#000000;stroke-width:0.464673" d="m 693.86528,370.42312 c -1.32469,0.52186 -1.1595,2.41055 -1.61334,3.54371 -1.42968,6.07449 -1.26973,12.73158 1.75702,18.31951 5.28173,11.10001 15.57148,19.56677 27.25231,23.20149 3.24214,0.9758 6.62335,1.31969 9.99665,1.04054 7.03049,-0.13566 13.62564,-3.25275 19.32179,-7.16641 1.79789,-1.06808 0.56197,-4.00346 -1.36982,-3.9882 -2.64637,0.0717 -4.92601,1.77105 -7.48706,2.30588 -5.954,1.69982 -12.25288,1.83047 -18.36704,1.05349 -4.14037,-1.03859 -8.05495,-3.27706 -11.63388,-5.61277 -7.34183,-4.8736 -12.26237,-12.89441 -14.11352,-21.43459 -0.8949,-3.16787 -0.88229,-6.5125 -1.67496,-9.69631 -0.44271,-0.69571 -1.19463,-1.50446 -2.06815,-1.56634 z" id="path607"/>
  <path style="fill:#ffff00;fill-rule:evenodd;stroke:none;stroke-width:0.464673" d="m 758.91321,170.43702 c -3.42435,-0.31033 -5.96109,2.3298 -8.5037,4.17318 -9.44776,7.40313 -17.95104,17.10541 -20.79222,29.04433 -2.85992,12.36142 1.03097,25.26297 7.42803,35.87956 5.45542,9.12299 12.86149,16.84029 19.82897,24.7972 9.37414,10.48961 19.61112,20.15443 29.33912,30.30467 4.41773,4.87402 7.11146,11.4129 7.13148,18.02006 0.4064,5.61829 -1.23372,11.16312 -3.01776,16.40447 -1.99273,5.13951 -7.13917,8.72658 -12.56519,9.07017 -6.83056,0.24828 -13.64779,-1.0923 -20.46641,-1.56948 -2.06575,-0.12207 -4.1581,-0.5237 -6.21783,-0.39851 -0.47986,0.83743 1.08452,1.27507 1.53961,1.7761 10.60159,6.91078 18.66292,17.69629 22.10111,29.90287 2.21977,12.83933 -0.38457,26.69558 -7.97162,37.38689 -3.76438,5.25948 -8.43663,10.01028 -13.8449,13.56828 -12.256,5.72584 -26.90622,7.4069 -39.65443,2.21919 -7.36011,-3.06878 -14.14491,-7.75291 -19.44163,-13.7452 -2.80468,-3.59491 -4.35211,-7.99742 -6.04198,-12.17647 -4.09844,-10.53387 -5.17429,-22.61156 -0.69397,-33.20516 4.51426,-11.01975 13.80746,-19.17821 23.5405,-25.60188 0.74693,-0.2943 1.41552,-1.64332 0.26361,-1.85247 -3.77903,0.73968 -7.29236,2.53271 -10.85911,3.95245 -12.17391,5.27833 -23.84156,13.33624 -30.35197,25.19996 -6.19613,11.06741 -6.79813,24.40403 -4.35161,36.62452 1.31957,6.33174 3.00305,12.65786 5.68927,18.55655 2.84211,4.99241 6.76139,9.29315 10.68384,13.4542 10.05493,10.38935 23.47709,17.41956 37.76649,19.66945 8.16655,1.43615 16.53513,1.1465 24.74844,0.30457 18.9602,-2.23402 37.71354,-8.97279 52.52944,-21.24059 10.86266,-8.9187 19.56745,-20.33811 25.91812,-32.83869 5.12009,-11.06315 8.38553,-22.94727 10.27307,-34.97294 2.37294,-15.84443 1.95434,-32.13947 -1.40612,-47.80889 -0.81365,-3.22825 -3.38891,-5.61058 -5.38382,-8.15118 -3.41299,-4.00103 -7.32663,-7.56384 -11.78173,-10.37547 -14.38992,-9.69331 -28.83812,-19.32157 -42.69938,-29.76291 -5.98837,-4.41016 -11.97232,-8.91247 -17.05431,-14.36421 -5.70621,-5.75057 -10.8678,-12.14618 -14.87969,-19.19424 -3.63668,-7.41714 -4.57786,-16.06857 -3.28218,-24.17996 1.2405,-7.25876 5.03393,-13.76622 8.56616,-20.14408 3.39356,-5.75623 7.13044,-11.67512 12.99741,-15.22653 1.91259,-1.34664 4.14558,-2.06547 6.18385,-3.12021 -0.69566,-0.94129 -2.6012,-0.0967 -3.72411,-0.38519 -0.5143,0 -1.02859,0 -1.54285,0.006 z" id="path609"/>
  <path style="fill:#ffff00;fill-rule:evenodd;stroke:#000000;stroke-width:0.464673" d="m 764.32971,284.81442 c -0.47805,0.77331 0.70152,1.59449 0.94359,2.32557 3.27237,4.81182 6.42993,10.24027 5.9942,16.27776 0.11236,5.18028 -2.07839,10.61692 -6.67274,13.3311 -2.86913,1.64482 -6.25634,2.65876 -9.57774,2.29726 -5.45202,-0.89725 -10.67735,-2.6537 -15.98691,-4.118 -5.79801,-1.0619 -11.76518,-0.76316 -17.6136,-0.33419 -11.08018,1.12319 -21.73033,5.12764 -31.40859,10.52868 -11.15654,6.31986 -20.10734,16.19623 -25.77257,27.65992 -0.65058,1.55762 -1.89544,3.02415 -2.08067,4.70924 0.68048,0.79773 1.67964,-0.55835 2.28566,-0.8836 2.63088,-2.0481 4.34714,-4.94703 6.09336,-7.69673 3.12436,-3.49874 7.03754,-6.32505 10.85525,-9.06243 9.75645,-6.77264 21.35443,-10.22703 32.84922,-12.71144 17.68449,-3.5475 36.20281,-2.778 53.61819,1.83234 1.86867,0.75337 3.89043,0.80573 5.79266,0.13811 5.21759,-1.18055 10.6514,-4.26307 12.29024,-9.68532 1.33199,-4.4046 0.72834,-9.23768 -0.80673,-13.50589 -4.77236,-8.59088 -11.95918,-15.79286 -20.27943,-20.98112 -0.15929,-0.0785 -0.33142,-0.21304 -0.52339,-0.12126 z" id="path611"/>
  <path style="fill:#ffff00;fill-rule:evenodd;stroke:#000000;stroke-width:0.464673" d="m 718.21344,341.25661 c -4.18439,2.2728 -8.71211,4.00409 -12.59155,6.794 -0.44795,0.52914 -1.96534,1.55658 -0.86992,2.16594 3.74046,1.2093 7.59972,-0.4092 11.35863,-0.65071 6.42435,-0.73994 12.98816,-0.49761 19.45198,-0.37897 7.31415,0.66672 14.50522,3.76772 19.36807,9.4017 2.71552,3.01508 5.13476,6.62023 5.46258,10.75578 0.92575,5.55111 1.55132,11.16236 2.57768,16.68987 0.8129,1.41717 2.31765,3.22071 4.1598,2.36628 1.27,-0.40792 2.4007,-1.51773 2.09116,-2.95533 -0.61726,-12.54248 -5.43368,-24.95328 -13.77732,-34.37884 -4.22175,-4.61521 -9.95938,-7.89581 -16.088,-9.14014 -7.01498,-0.72877 -14.10353,-0.74545 -21.14311,-0.66958 z" id="path613"/>
  <path style="fill:#ffff00;fill-rule:evenodd;stroke:#000000;stroke-width:0.464673" d="m 754.78744,307.40644 c -1.42878,0.19882 -3.1833,-0.2351 -4.39273,0.69019 -0.16137,1.00821 1.45688,1.18072 2.05281,1.71347 2.03554,1.12552 4.4323,2.38167 6.77723,1.35497 1.07348,-0.23097 1.44831,-1.46621 0.68108,-2.2661 -0.97709,-1.88965 -3.3819,-1.42358 -5.11839,-1.49253 z" id="path615"/>
  <path style="fill:#ffff00;fill-rule:evenodd;stroke:#000000;stroke-width:0.164287" d="m 679.92243,317.27954 c -0.35219,0.4564 0.63179,0.80817 0.13099,1.22534 -0.16246,0.29576 -0.55694,0.83025 -0.05,1.01335 0.57022,-0.10896 0.94319,-0.68472 1.42832,-0.98165 0.26951,-0.31158 1.00055,-0.56716 0.75055,-1.07301 -0.57676,-0.41866 -1.38521,-0.2013 -2.05245,-0.26723 -0.0691,0.0277 -0.13828,0.0555 -0.20742,0.0832 z" id="path617"/>
  <path style="fill:#ffff00;fill-rule:evenodd;stroke:#000000;stroke-width:0.164287" d="m 669.89249,310.18305 c -0.42438,0.068 -1.1368,-0.10857 -1.27092,0.41111 0.23563,0.45443 0.81085,0.77427 0.73002,1.36649 0.043,0.47552 0.59168,0.38851 0.88576,0.20324 0.99004,-0.41604 2.04247,-0.71921 2.98106,-1.2415 0.35328,-0.35894 -0.17015,-0.69547 -0.52228,-0.63777 -0.93155,-0.0843 -1.86858,-0.10739 -2.80364,-0.10157 z" id="path619"/>
  <path style="fill:#ffff00;fill-rule:evenodd;stroke:#000000;stroke-width:0.929346" d="m 768.03322,178.32285 c -9.75439,6.90321 -17.99897,16.27375 -22.78757,27.26036 -2.2709,10.25763 -0.70763,21.61077 5.75327,30.11847 7.32603,9.69941 17.04115,17.25544 26.24634,25.07516 13.55409,11.13531 28.28683,20.73447 43.1528,29.9722 7.37027,5.33432 13.94045,12.11701 18.25345,20.17734 2.27008,6.55197 2.95544,13.66275 3.84195,20.54626 2.13371,20.66473 -0.92564,41.78268 -9.00699,60.94838 -6.38046,16.88157 -17.91572,31.29937 -31.23212,43.21772 -17.06464,15.24645 -39.46999,24.49121 -62.39236,24.90581 -16.39763,0.36207 -33.36019,-1.11569 -48.21144,-8.59839 -2.43613,-0.81807 -4.76995,-2.99272 -7.34432,-2.96188 0.0268,1.85747 2.70571,2.81915 3.84282,4.11086 13.32278,10.70093 30.5822,15.89935 47.58164,15.3159 9.82676,0.15893 19.73089,-0.77788 29.01833,-4.17304 19.0857,-5.94581 35.10217,-18.67987 48.97958,-32.68909 21.82656,-22.31695 33.92298,-53.47194 33.7496,-84.61793 0.15219,-16.49276 -0.46614,-34.21955 -9.91,-48.42621 -4.97817,-7.41236 -11.94506,-13.22838 -17.91808,-19.8117 -19.31743,-19.75606 -39.10977,-39.12852 -57.41348,-59.80369 -2.76899,-3.18257 -4.17864,-7.97785 -2.75595,-12.04371 4.7763,-4.9877 11.33617,-8.64532 18.37807,-8.41258 9.88134,-0.60519 19.89219,-0.2703 29.42525,2.61429 15.16123,3.63284 30.06766,8.28595 45.1616,12.16428 0.62463,-1.19484 -2.1104,-1.60049 -2.7993,-2.39826 -19.20087,-11.20681 -39.12321,-21.27118 -59.82478,-29.39775 -6.95398,-2.60916 -14.45296,-3.03335 -21.78831,-3.0928 z" id="path623"/>
  <path style="fill:#ffff00;fill-rule:evenodd;stroke:#000000;stroke-width:0.929346" d="m 768.68698,207.44958 c -1.80016,0.7675 -0.76607,3.82292 0.60295,4.70955 7.67603,6.40783 17.83122,10.23105 27.83359,9.48428 -1.63728,-3.24927 -5.73302,-4.89381 -8.71627,-6.98823 -5.98793,-3.64693 -12.83794,-6.01203 -19.72027,-7.2056 z" id="path625"/>
  <path style="fill:#ffff00;fill-rule:evenodd;stroke:#000000;stroke-width:0.929346" d="m 779.61777,227.54735 c 0.78703,2.42623 3.53289,5.22856 6.34873,4.9214 1.48028,-1.535 -1.06485,-3.62048 -2.31403,-4.35008 -1.18495,-0.74357 -2.7201,-0.97986 -4.0347,-0.57132 z" id="path627"/>
  <path style="fill:#ffff00;fill-rule:evenodd;stroke:none;stroke-width:0.929346" d="m 774.83441,164.176 c -5.73644,0.21086 -11.062,3.02045 -16.11867,5.33838 1.87257,1.12368 4.93401,0.97325 7.33608,1.01131 11.65758,-1.63757 22.89684,3.53471 33.71932,7.17408 20.77027,8.45013 40.62293,18.99889 60.90174,28.56102 7.58002,3.40051 14.81615,7.69244 22.61053,10.55804 1.44666,0.44522 1.13964,-1.3871 0.008,-1.56154 -25.77412,-14.97247 -52.06147,-29.06329 -78.43079,-42.95821 -9.23697,-5.17276 -19.38549,-8.20547 -30.02588,-8.12308 z" id="path629"/>
  <path style="fill:#ffff00;fill-rule:evenodd;stroke:none;stroke-width:0.929346" d="m 795.55527,82.409321 c -2.62705,1.09429 -2.39518,4.8732 -1.26534,7.03316 5.80495,15.488579 16.49618,29.036549 30.26937,38.213199 32.39215,22.92975 64.93199,45.6615 97.81921,67.87576 1.65047,0.95856 4.09901,3.02898 6.01035,1.79257 0.43261,-5.13793 -3.53,-9.42776 -5.92911,-13.64249 -9.12781,-14.76815 -21.33283,-27.27362 -33.85308,-39.16899 -21.23696,-18.95959 -44.58273,-35.40689 -68.23406,-51.186699 -7.60287,-4.9415 -15.82881,-9.26991 -24.81734,-10.91651 z" id="path631"/>
  <path style="fill:#ffff00;fill-rule:evenodd;stroke:none;stroke-width:0.929346" d="m 815.25331,136.09701 c -3.73395,0.12335 -5.99403,3.83657 -8.23811,6.38228 -4.45026,5.60466 -4.77348,14.54848 0.71703,19.59836 7.91245,7.20729 17.995,11.47558 27.61099,15.90803 0.57593,0.70594 3.22332,0.97032 2.10143,-0.4527 -7.36181,-4.24397 -15.31281,-8.59477 -19.39992,-16.4446 -1.80614,-3.43173 -1.18546,-7.7026 -0.67389,-11.35161 1.63582,-4.06446 6.8942,-4.7843 10.74578,-4.49961 3.72443,-0.3294 6.27289,3.26018 9.40262,4.85824 4.3658,2.54725 7.853,6.693 12.67272,8.37124 1.67052,0.31001 1.32501,-1.6698 0.2061,-2.20284 -7.58542,-6.66914 -15.77936,-12.7842 -24.62711,-17.67734 -3.2931,-1.47725 -6.88449,-2.51242 -10.51764,-2.48945 z" id="path633"/>
  <path style="fill:#ffff00;fill-rule:evenodd;stroke:none;stroke-width:0.929346" d="m 787.21746,100.28604 c -3.14741,3.61773 -4.82209,8.44893 -7.22182,12.61107 -6.66188,13.66498 -14.29876,26.83865 -20.89551,40.52831 -0.73031,1.42125 -1.5006,5.15161 1.27596,3.97109 4.56849,-0.76763 8.86617,-2.67303 13.56012,-2.43351 6.56638,-0.45737 13.38822,-0.17702 19.7316,-2.06384 2.33084,-3.97997 3.42975,-8.65977 6.09087,-12.53355 2.25343,-4.3411 5.85382,-7.76685 8.41642,-11.86542 1.10737,-3.62579 -3.10567,-5.96205 -4.9467,-8.46238 -4.82765,-4.93904 -8.11932,-10.94118 -11.56117,-16.84916 -1.0704,-1.39334 -2.53878,-2.97157 -4.44977,-2.90261 z" id="path635"/>
  <path style="fill:#ffff00;fill-rule:evenodd;stroke:none;stroke-width:0.929346" d="m 828.70423,26.302151 c -4.39294,1.68639 -6.27345,6.72209 -8.71004,10.3883 -5.44488,10.281 -11.22718,20.52995 -14.9441,31.59118 -0.91201,2.37821 -0.33958,5.48141 2.48658,6.17332 4.53716,2.78374 9.97606,4.30695 15.23434,2.83264 6.07585,-2.05529 9.54996,-8.39884 11.30899,-14.21205 1.96998,-10.23646 2.25314,-20.86409 0.94613,-31.20207 -0.38496,-3.36953 -3.06621,-5.33433 -6.3219,-5.57132 z" id="path637"/>
  <path style="display:none;fill:#ffff00;fill-rule:evenodd;stroke:none;stroke-width:0.929346" d="m 875.64154,7.1696711 c -3.13353,0.288718 -2.47673,4.5923499 -2.85947,6.7906399 -0.86481,11.95938 0.0777,24.13067 -2.39743,35.89053 -3.79744,12.90832 -10.30525,26.67654 -22.56135,33.50173 -5.42729,3.21325 -11.79367,3.41957 -17.80195,4.56384 -1.69992,1.24044 1.32639,2.6435 2.08493,3.45092 15.56914,11.500869 31.56367,22.479799 48.09145,32.557509 1.32771,1.16806 1.83048,-0.71476 1.05445,-1.67465 -4.47083,-10.08577 -4.55726,-22.21338 0.98159,-31.846239 6.76214,-13.69348 18.85872,-24.30897 32.98085,-29.99974 6.74664,-3.2216 13.82254,-5.70719 20.68096,-8.57771 1.7044,-2.85548 0.22485,-6.7175 -2.40843,-8.51363 -14.16527,-12.54823 -29.44809,-24.03399 -46.14986,-33.00095 -3.63448,-1.8507639 -7.60799,-3.0099339 -11.69574,-3.1422499 z" id="path639"/>
  <path style="fill:#666666;fill-rule:evenodd;stroke:none;stroke-width:1.89354" d="m 826.33556,152.39302 c -2.16391,-0.23033 -3.44048,2.10996 -2.39455,3.92351 2.22454,6.18268 9.08988,8.29602 13.99332,11.82712 15.35718,9.51992 31.27191,18.15605 46.36359,28.09094 8.2572,6.40034 16.70348,12.92653 23.10168,21.28113 2.14535,2.42161 2.42929,5.72451 3.81231,8.47009 9.67668,9.49418 22.60016,15.45832 35.87994,17.86139 3.9087,0.37231 8.3134,1.93775 12.0533,0.22335 2.2619,-2.54802 0.9962,-6.19693 -1.2126,-8.3148 -7.0163,-8.93976 -15.51518,-16.96793 -25.47352,-22.52205 -5.01937,-1.25973 -10.27718,-1.53988 -15.15721,-3.46146 -9.07176,-3.04276 -16.40112,-9.61254 -24.39226,-14.69517 -11.31579,-7.74654 -22.32814,-15.99352 -34.04428,-23.12308 -9.71988,-3.59419 -18.54357,-9.28531 -26.09663,-16.35641 -1.87331,-1.53183 -3.82772,-3.36566 -6.43309,-3.20456 z" id="path641"/>
  <path style="fill:#ffff00;fill-rule:evenodd;stroke:none;stroke-width:0.929346" d="m 952.36505,207.38727 c -2.8425,0.19436 -5.8686,-0.24248 -8.59755,0.65184 -0.16971,1.76648 2.32805,3.01504 3.18455,4.49301 6.5897,7.50023 14.2433,14.26078 19.9203,22.41938 2.1787,4.86742 0.8284,10.57209 1.3507,15.76638 1.4776,4.52896 -2.8092,3.31027 -5.8413,3.3427 -6.5422,0.1781 -13.0807,-0.2385 -19.26193,-2.58341 -10.93624,-2.98158 -21.40086,-7.37138 -32.17057,-10.84028 -1.98079,-0.9376 -4.23688,0.35048 -4.05483,2.62174 -1.53572,16.352 5.5482,33.33935 18.27837,43.7107 8.34284,6.52335 19.15272,8.46863 29.50426,8.40972 2.8167,0.33406 5.9686,0.715 6.2473,-2.95535 2.6538,-6.10393 9.0639,-11.1598 16.041,-10.24752 8.4977,-0.30829 16.5906,4.70849 20.3461,12.28452 2.3566,4.26435 8.02475,4.32519 12.27275,4.96166 12.9448,0.93026 26.0047,0.17098 38.6541,-2.81921 4.0125,-0.82896 8.5637,-1.49253 11.043,-5.18022 2.1943,-2.58141 4.4013,-5.64248 8.0118,-6.16085 5.9591,-2.03314 8.9847,-8.54026 8.4429,-14.54062 0.02,-14.34876 -3.9793,-28.31308 -6.946,-42.24673 -1.6022,-5.16076 -1.7281,-10.93496 -4.3755,-15.70307 -2.9241,-1.81786 -6.8045,-0.94397 -10.0835,-1.51888 -33.9598,-1.82372 -67.94975,-3.70568 -101.96595,-3.86551 z" id="path712"/>
  <path style="fill:#ffff00;fill-rule:evenodd;stroke:none;stroke-width:0.929346" d="m 1116.7209,328.55291 c -2.0447,2.04344 -2.3537,5.41918 -3.3158,8.08379 -2.221,8.05571 -1.1897,17.85337 5.7015,23.40833 8.3397,7.23198 20.4636,11.52916 31.3144,8.03434 5.5679,-1.77473 8.3397,-7.73632 8.1921,-13.25633 -0.3266,-2.02981 1.2113,-6.04531 -0.4476,-6.78393 -4.4719,6.59109 -10.3318,14.12585 -19.0376,14.2408 -4.869,0.47351 -9.9363,-1.10278 -13.2353,-4.89935 -4.775,-4.32526 -5.0476,-11.2534 -6.7684,-17.0442 -0.9978,-3.79649 -1.3126,-7.77396 -1.8637,-11.5946 -0.1266,-0.15661 -0.3416,-0.23834 -0.5396,-0.18885 z" id="path801"/>
  <path style="fill:#008000;fill-rule:evenodd;stroke:none;stroke-width:0.0821434" d="m 1130.0625,321.68159 c -0.2939,0.33473 0.074,0.6991 0.2506,0.98446 3.642,5.3664 8.7493,9.69221 14.5498,12.56849 1.6931,0.74204 3.4555,1.31245 5.2029,1.91066 0.2532,0.12131 0.6559,0.11274 0.732,-0.2172 0.1343,-0.35373 -0.2744,-0.54743 -0.5485,-0.62996 -5.4974,-2.15668 -10.677,-5.20353 -14.9416,-9.33201 -0.6308,-0.59385 -1.1839,-1.22652 -1.6912,-1.91846 -0.9542,-1.16087 -1.964,-2.27693 -2.9909,-3.37344 -0.159,-0.14876 -0.4025,-0.12314 -0.5631,0.007 z" id="path803"/>
  <path style="fill:#ffff00;fill-rule:evenodd;stroke:none;stroke-width:0.328574" d="m 1126.4759,332.64769 c -0.8065,0.33067 -0.3413,1.50363 -0.5055,2.18935 -0.093,3.19449 -0.055,6.45464 1.0691,9.49262 0.9824,2.86304 2.204,5.79053 4.3184,8.00749 2.1135,1.26953 4.6057,1.87986 7.0412,2.16904 3.1963,0.15656 6.2693,-1.77853 7.6276,-4.65632 0.7977,-1.76037 1.7341,-3.64253 1.7244,-5.58867 -1.7858,-0.47628 -3.7036,-0.69834 -5.4368,-1.45698 -4.2983,-1.56938 -7.547,-4.97552 -11.3516,-7.41366 -1.4769,-0.90818 -2.8497,-2.1636 -4.4868,-2.74287 z" id="path807"/>
  <path style="fill:#ffff00;fill-rule:evenodd;stroke:none;stroke-width:0.232337" d="m 1166.8105,352.60128 c -0.8476,-0.003 -0.6255,1.11107 -0.6754,1.6689 -0.069,2.52905 0.5356,5.0426 1.5666,7.33944 0.5045,0.83222 1.6794,0.72894 2.4925,1.04833 17.1221,4.2676 34.5419,7.17627 51.8442,10.57317 8.1524,1.54617 16.2689,3.27961 24.3474,5.18501 3.4239,0.69397 6.8619,1.24187 10.1515,2.44494 7.9005,2.72326 15.0553,7.48307 20.6709,13.66659 4.643,5.13046 8.0484,11.34218 9.9227,17.97947 0.9721,3.14208 1.7674,6.35049 1.7983,9.66542 0.1084,0.8121 -0.1468,1.68982 0.02,2.49137 0.8969,0.33176 1.9443,0.0545 2.9009,0.14403 0.629,-0.14073 1.6343,0.33002 1.9893,-0.33913 0.053,-13.63025 0.01,-27.28075 0.023,-40.91878 -0.6866,-1.07647 -1.6912,-1.97521 -2.6589,-2.824 -5.1068,-3.82978 -10.9303,-6.61178 -16.8895,-8.84346 -12.7549,-4.72174 -26.3126,-6.49658 -39.603,-9.04796 -11.6562,-2.22845 -23.3894,-4.0268 -35.1098,-5.8786 -10.4947,-1.56673 -20.9968,-3.11983 -31.5461,-4.27433 -0.4138,-0.0356 -0.8281,-0.0786 -1.2438,-0.0804 z" id="path809"/>
  <path style="fill:#ffff00;fill-rule:evenodd;stroke:none;stroke-width:0.232337" d="m 988.51855,327.12965 c -0.5215,0.56656 -0.1125,1.49407 -0.2421,2.20787 0,31.69015 0,63.3803 0,95.07046 0.2623,0.7426 1.275,0.26462 1.8724,0.39997 18.14415,0 36.28825,0 54.43245,0 0.7603,-0.2572 0.165,-1.1699 0.1764,-1.75793 -0.4749,-3.7449 -0.4433,-7.57408 0.5075,-11.23023 2.1843,-8.9137 8.7746,-16.804 17.4952,-19.92301 3.8927,-1.35876 8.0847,-1.55093 12.1398,-1.36872 6.8174,0.60651 13.2051,4.0869 17.9643,8.92882 4.8114,4.90674 8.1983,11.35359 8.9043,18.23762 0.1118,2.26363 0.07,4.54392 -0.097,6.7872 0.3401,0.65337 1.343,0.18491 1.9593,0.32625 58.8083,0 117.6167,0 176.4251,0 0.6681,-0.2488 0.462,-1.18509 0.5071,-1.77459 -0.4515,-4.18254 -1.1355,-8.42013 -3.0057,-12.23364 -3.8171,-8.10371 -10.809,-14.28395 -18.4713,-18.685 -3.7924,-2.13781 -7.7651,-4.00668 -11.9209,-5.31722 -5.5162,-1.19655 -11.0972,-2.07701 -16.6481,-3.09816 -16.9681,-2.96882 -33.9885,-5.71282 -51.117,-7.581 -5.9666,-0.53736 -11.9736,-0.40626 -17.952,-0.15965 -6.2456,0.28408 -12.4504,1.07886 -18.6503,1.83982 -4.9898,0.0446 -10.0224,-0.77421 -14.7454,-2.44728 -6.2175,-2.20547 -11.9186,-5.82435 -16.4221,-10.64441 -2.5105,-2.56401 -4.5622,-5.55024 -6.2934,-8.68841 -0.8947,-1.50199 -2.4735,-2.84874 -4.3314,-2.62201 -1.3061,-0.14226 -2.3476,0.79868 -3.5894,1.01301 -8.0625,2.23653 -16.5808,2.38702 -24.8621,1.46538 -12.6323,-1.4511 -24.7149,-5.75335 -36.6758,-9.90437 -9.5738,-3.2902 -18.9492,-7.10718 -28.2604,-11.06508 -6.2574,-2.61347 -12.48485,-5.30271 -18.79735,-7.78144 -0.1006,0.002 -0.2013,0.004 -0.3019,0.006 z" id="path811"/>
  <path style="fill:#000000;fill-rule:evenodd;stroke:none;stroke-width:0.0205358" d="m 1103.801,351.71842 c -0.2054,0.0315 -0.4033,0.10233 -0.6018,0.16133 -0.223,0.0703 -0.3366,0.35719 -0.2194,0.56003 0.066,0.14996 0.242,0.20046 0.3707,0.26133 0.194,0.0847 0.3753,0.19494 0.5652,0.28717 0.1988,0.0825 0.4486,-0.0211 0.5258,-0.22314 0.058,-0.1396 0.017,-0.29312 -0.053,-0.41986 -0.077,-0.15344 -0.1384,-0.31692 -0.2312,-0.46144 -0.08,-0.11305 -0.2186,-0.17509 -0.356,-0.16542 z" id="path813"/>
  <path style="fill:#000000;fill-rule:evenodd;stroke:none;stroke-width:0.0410717" d="m 1116.3864,328.2248 c -0.2493,0.002 -0.3832,0.237 -0.4566,0.44372 -0.085,0.22787 -0.2688,0.49058 -0.1172,0.73096 0.1363,0.25009 0.5205,0.25299 0.6795,0.0249 0.1366,-0.19493 0.3344,-0.35527 0.4425,-0.57485 0.1015,-0.24433 -0.077,-0.51047 -0.3174,-0.5794 -0.073,-0.0287 -0.1516,-0.0483 -0.2308,-0.0454 z" id="path884"/>
  <path style="fill:#000000;fill-rule:evenodd;stroke:none;stroke-width:0.0410717" d="m 1088.3035,333.29108 c -0.2893,0.004 -0.4872,0.34491 -0.3556,0.60038 0.074,0.18884 0,0.44112 0.1995,0.56623 0.1868,0.16326 0.4512,0.0649 0.6136,-0.0851 0.1947,-0.16468 0.518,-0.27195 0.5285,-0.56629 0.026,-0.24967 -0.2154,-0.42938 -0.4471,-0.43702 -0.1788,-0.0288 -0.3572,-0.0764 -0.5389,-0.0782 z" id="path886"/>
  <path style="fill:#000000;fill-rule:evenodd;stroke:none;stroke-width:0.014521" d="m 1068.3854,306.81964 c -0.1336,0.0233 -0.2609,0.0987 -0.3431,0.20694 -0.1228,0.16261 -0.093,0.41636 0.068,0.54242 0.1,0.0855 0.2366,0.10802 0.3631,0.12308 0.1968,0.0128 0.3895,-0.13597 0.4192,-0.33232 0.031,-0.1506 -0.04,-0.30477 -0.154,-0.40285 -0.089,-0.0984 -0.2204,-0.15213 -0.3533,-0.13727 z" id="path890"/>
  <path style="fill:#000000;fill-rule:evenodd;stroke:none;stroke-width:0.014521" d="m 1057.0934,293.2471 c -0.1636,0.008 -0.2846,0.12968 -0.4164,0.21162 -0.2559,0.1762 -0.5256,0.3306 -0.7927,0.48863 -0.1592,0.10446 -0.2227,0.3264 -0.1411,0.49868 0.077,0.17657 0.2888,0.27287 0.4732,0.22135 0.2432,-0.0694 0.4847,-0.14578 0.7251,-0.22397 0.1579,-0.0541 0.2318,-0.2151 0.3317,-0.33563 0.08,-0.11775 0.1887,-0.22134 0.2296,-0.36091 0.048,-0.18225 -0.049,-0.38984 -0.2232,-0.46385 -0.058,-0.0271 -0.1228,-0.0375 -0.1862,-0.0359 z" id="path892"/>
  <path style="fill:#000000;fill-rule:evenodd;stroke:none;stroke-width:0.0102679" d="m 763.81362,284.17713 c -0.16547,0.0155 -0.31235,0.14288 -0.34898,0.3053 -0.0319,0.12513 0.007,0.2581 0.0844,0.35893 0.0732,0.10238 0.13739,0.2126 0.2244,0.30411 0.12656,0.12162 0.33501,0.14491 0.48346,0.0501 0.0862,-0.0497 0.14672,-0.13473 0.17908,-0.22763 0.0542,-0.0961 0.0904,-0.20856 0.0651,-0.31916 -0.0224,-0.12758 -0.11428,-0.23351 -0.22799,-0.29129 -0.0992,-0.0551 -0.19162,-0.12561 -0.29943,-0.16323 -0.0517,-0.0166 -0.10605,-0.0214 -0.16009,-0.0171 z m 0.63468,0.72859 c 0,-0.004 0.006,-0.0493 0,0 z m -0.01,0.0475 c -0.006,0.0197 0.007,-0.0285 0,0 z" id="path896"/>
  <path style="fill:#000000;fill-rule:evenodd;stroke:none;stroke-width:0.0821434" d="m 884.09469,215.77461 c -0.26688,0.11667 -0.24033,0.4251 -0.27029,0.6535 -0.23583,0.17615 -0.40002,0.54211 -0.13621,0.76921 0.45762,0.2512 0.99074,0.3511 1.47857,0.53948 0.76404,0.23651 1.51371,0.53594 2.29705,0.70115 0.41154,0.0574 0.61883,-0.54939 0.26207,-0.75942 -1.08727,-0.65492 -2.18991,-1.28663 -3.29779,-1.90621 -0.11401,-0.0166 -0.22352,-0.0523 -0.3334,0.002 z" id="path898"/>
  <path style="fill:#000000;fill-rule:evenodd;stroke:none;stroke-width:0.0821434" d="m 853.0021,212.62365 c -0.39114,0.065 -0.48017,0.53254 -0.50794,0.86135 0.15156,0.40936 0.6808,0.37056 1.01828,0.52505 0.35469,0.0661 0.73903,0.34855 1.09035,0.13557 0.2532,-0.21565 0.13826,-0.61414 -0.14812,-0.73664 -0.44338,-0.26738 -0.87322,-0.58519 -1.3543,-0.77357 -0.0328,-0.003 -0.0655,-0.009 -0.0983,-0.0118 z" id="path900"/>
  <path style="fill:#000000;fill-rule:evenodd;stroke:none;stroke-width:0.0821434" d="m 880.71107,231.25892 c -0.36455,0.10621 -0.36575,0.63739 -0.0291,0.77687 0.30988,0.1611 0.61276,0.35963 0.95269,0.44694 0.40184,0.0179 0.55174,-0.47828 0.32984,-0.76221 -0.26646,-0.30661 -0.70571,-0.37044 -1.07892,-0.47456 -0.0586,-0.0114 -0.11634,0.008 -0.17446,0.013 z" id="path902"/>
  <path style="fill:#000000;fill-rule:evenodd;stroke:none;stroke-width:0.116168" d="m 837.69592,177.55359 c -0.27319,0.0204 -0.41395,0.30931 -0.4104,0.54471 -0.4457,0.0598 -0.4498,0.70781 -0.0484,0.84129 1.3584,0.62813 2.75851,1.17113 4.16075,1.69274 0.46159,0.17006 0.76985,-0.53759 0.33299,-0.76483 -1.2667,-0.78653 -2.5294,-1.59194 -3.84202,-2.29654 -0.0624,-0.0186 -0.12815,-0.0248 -0.19292,-0.0174 z" id="path904"/>
  <path style="fill:#666666;fill-rule:evenodd;stroke:none;stroke-width:0.0205358" d="m 859.98603,172.30124 c -0.20633,0.0477 -0.34834,0.27181 -0.29595,0.47823 0.0298,0.15399 0.16137,0.25266 0.29006,0.32531 1.30415,0.80514 2.59738,1.62985 3.88973,2.45591 0.12631,0.0885 0.28294,0.16064 0.43906,0.11171 0.21258,-0.0568 0.3446,-0.30585 0.26709,-0.51305 -0.0586,-0.18696 -0.25433,-0.26534 -0.39649,-0.37783 -1.02379,-0.71854 -2.04598,-1.43962 -3.07252,-2.15409 -0.1677,-0.0887 -0.35607,-0.13058 -0.53324,-0.19703 -0.16473,-0.0468 -0.32285,-0.12707 -0.49526,-0.14001 -0.0308,0.004 -0.0616,0.007 -0.0925,0.0109 z" id="path908"/>
  <path style="fill:#ffff00;fill-rule:evenodd;stroke:none;stroke-width:0.328574" d="m 758.88885,169.35361 c -0.66258,0.1572 -1.83257,0.35342 -1.79488,1.14925 1.19391,0.49392 2.6651,0.20707 3.96388,0.40677 1.09647,0.33887 1.10142,-0.91739 0.10679,-0.96733 -0.74861,-0.21553 -1.49122,-0.54533 -2.27579,-0.58869 z" id="path979"/>
  <path style="fill:#ffff00;fill-rule:evenodd;stroke:none;stroke-width:0.0580842" d="m 750.42365,335.80895 c -0.32326,-0.0154 -0.54543,0.40392 -0.32614,0.65316 0.20318,0.20004 0.47087,0.32529 0.7146,0.47031 0.28529,0.12888 0.61033,-0.13015 0.58079,-0.43334 0.0529,-0.21048 0.0665,-0.47267 -0.15259,-0.59545 -0.24906,-0.1086 -0.5473,-0.0726 -0.81666,-0.0947 z" id="path981"/>
  <path style="fill:#ffff00;fill-rule:evenodd;stroke:none;stroke-width:0.232337" d="m 789.52742,492.63171 c -0.68678,0.0601 -1.36951,0.65982 -0.66002,1.26049 0.13415,0.46286 0.86688,0.84855 1.02405,0.19321 0.0323,-0.48691 0.49273,-1.52823 -0.36403,-1.4537 z" id="path983"/>
  <path style="fill:#ffff00;fill-rule:evenodd;stroke:none;stroke-width:0.232337" d="m 769.99929,469.80124 c -0.6149,0.2494 -1.30033,0.49472 -1.7638,0.97225 0.002,0.86948 1.14595,0.41859 1.69909,0.53385 0.785,0.26049 1.29815,-0.48735 0.65062,-1.05022 -0.12555,-0.21377 -0.29167,-0.50608 -0.58591,-0.45588 z" id="path985"/>
  <path style="fill:#000000;fill-rule:evenodd;stroke:none;stroke-width:0.0290421" d="m 715.04276,474.37209 c -0.22165,0.006 -0.40643,0.21008 -0.38638,0.43136 0.0101,0.19391 0.17467,0.32561 0.34189,0.39445 0.35512,0.17288 0.70273,0.36649 1.07404,0.5027 0.21321,0.0498 0.43211,-0.0182 0.64595,-0.0342 0.23521,-0.0418 0.39346,-0.31386 0.296,-0.5359 -0.0684,-0.21145 -0.30312,-0.26201 -0.48981,-0.32078 -0.47006,-0.14357 -0.93415,-0.30978 -1.40974,-0.43354 -0.0239,-0.002 -0.048,-0.003 -0.072,-0.004 z" id="path987"/>
  <path style="fill:#000000;fill-rule:evenodd;stroke:none;stroke-width:0.164287" d="m 681.87728,447.17805 c -0.54465,0.23966 -0.15197,0.81115 0.16895,1.04452 0.51841,0.48833 1.0074,1.02558 1.59492,1.42954 0.64489,0.16299 0.6517,-0.63845 0.58577,-1.05741 -0.0116,-0.65831 -0.83789,-0.71074 -1.27071,-1.03063 -0.34776,-0.13612 -0.68748,-0.44135 -1.07893,-0.38602 z" id="path989"/>
  <path style="fill:#000000;fill-rule:evenodd;stroke:none;stroke-width:0.0205358" d="m 688.4898,497.12702 c -0.19642,0.0395 -0.33668,0.23418 -0.31969,0.43255 -0.002,0.2136 0.18131,0.39684 0.39139,0.41261 0.4592,0.0376 0.91593,0.0474 1.37503,0.0761 3.02111,0.16358 6.04853,0.40876 9.05827,0.72594 0.36415,0.0344 0.72325,0.0859 1.08671,0.1153 0.17444,0.002 0.34838,-0.0625 0.49219,-0.15864 0.19726,-0.12556 0.23278,-0.43203 0.0672,-0.5977 -0.12958,-0.15243 -0.34544,-0.13206 -0.52469,-0.16401 -3.09965,-0.40083 -6.2168,-0.66864 -9.34022,-0.78583 -0.73801,-0.0301 -1.47683,-0.0456 -2.21501,-0.0624 -0.0237,0.002 -0.0474,0.004 -0.0712,0.006 z" id="path991"/>
  <path style="fill:#000000;fill-rule:evenodd;stroke:none;stroke-width:0.0205358" d="m 698.26956,498.91351 c -0.21485,0.005 -0.40147,0.20099 -0.38692,0.41689 0,0.16349 0.12165,0.28737 0.24271,0.38099 0.0496,0.0425 0.0996,0.0846 0.1497,0.12654 -0.0604,0.14786 -0.14661,0.28793 -0.183,0.44397 -0.0532,0.22819 0.13846,0.47122 0.37285,0.47279 0.16472,0.0139 0.30964,-0.0945 0.39528,-0.22752 0.21386,-0.29159 0.43653,-0.57736 0.63751,-0.87803 0.12234,-0.17936 0.0806,-0.44837 -0.10231,-0.57062 -0.149,-0.0992 -0.3366,-0.0799 -0.506,-0.10845 -0.2064,-0.0195 -0.41261,-0.0486 -0.61982,-0.0566 z" id="path993"/>
  <path style="fill:#000000;fill-rule:evenodd;stroke:none;stroke-width:0.0580842" d="m 570.19011,511.08719 c -0.27325,0.13897 -0.27486,0.50884 -0.0725,0.71173 0.16983,0.21605 0.24916,0.57995 0.5851,0.58032 0.34666,-0.006 0.49821,-0.37277 0.68288,-0.60768 0.19586,-0.27384 -0.004,-0.68842 -0.34018,-0.70642 -0.2829,-0.0133 -0.57863,-0.0474 -0.8553,0.022 z" id="path995"/>
  <path style="fill:#000000;fill-rule:evenodd;stroke:none;stroke-width:0.164287" d="m 434.01439,548.60656 c -0.67057,0.47786 -1.37746,0.95719 -1.9418,1.55577 -0.21118,0.52211 0.45771,0.72566 0.83525,0.52295 0.75277,-0.24516 1.59421,-0.31973 2.27343,-0.72426 0.18981,-0.54079 -0.43709,-0.91519 -0.74731,-1.28787 -0.11623,-0.12055 -0.27398,-0.0641 -0.41957,-0.0666 z" id="path997"/>
  <metadata id="metadata198">
    <rdf:RDF>
      <cc:Work rdf:about="">
        <dc:Creator>
          <cc:Agent>
            <dc:title>Drawshield internal</dc:title>
          </cc:Agent>
        </dc:Creator>
      </cc:Work>
    </rdf:RDF>
  </metadata>
</svg>
