<?xml version="1.0" encoding="UTF-8" standalone="no"?>
<!-- Created with Inkscape (http://www.inkscape.org/) -->
<svg xmlns:dc="http://purl.org/dc/elements/1.1/" xmlns:cc="http://creativecommons.org/ns#" xmlns:rdf="http://www.w3.org/1999/02/22-rdf-syntax-ns#" xmlns:svg="http://www.w3.org/2000/svg" xmlns="http://www.w3.org/2000/svg" xmlns:sodipodi="http://sodipodi.sourceforge.net/DTD/sodipodi-0.dtd" xmlns:inkscape="http://www.inkscape.org/namespaces/inkscape" version="1.0" width="34.941616" height="500.46161" id="svg2" inkscape:version="0.48.4 r9939" sodipodi:docname="staff.svg">
  <metadata id="metadata58">
    <rdf:RDF>
      <cc:Work rdf:about="">
        <dc:format>image/svg+xml</dc:format>
        <dc:type rdf:resource="http://purl.org/dc/dcmitype/StillImage"/>
        <cc:license rdf:resource=""/>
        <dc:title/>
        <dc:creator>
          <cc:Agent>
            <dc:title>http://commons.wikimedia.org/wiki/User:Xavigivax</dc:title>
          </cc:Agent>
        </dc:creator>
      </cc:Work>
    </rdf:RDF>
  </metadata>
  <sodipodi:namedview pagecolor="#ffffff" bordercolor="#666666" borderopacity="1" objecttolerance="10" gridtolerance="10" guidetolerance="10" inkscape:pageopacity="0" inkscape:pageshadow="2" inkscape:window-width="640" inkscape:window-height="480" id="namedview56" showgrid="false" inkscape:zoom="3.7725171" inkscape:cx="-1.9880205" inkscape:cy="450.62479" inkscape:current-layer="g2457"/>
  <defs id="defs4"/>
  <g id="layer1" style="fill:#ffff00">
    <g id="g2549" style="stroke:#000000;stroke-width:1.85745692000000000;stroke-miterlimit:4;stroke-dasharray:none;stroke-opacity:1;fill:#ffff00">
      <path d="M11.5,139.6   L23.5,139.6   L23.5,471.4   L11.5,471.4   L11.5,139.6   z " id="rect2328" style="fill:#ffff00;fill-opacity:1;fill-rule:nonzero;stroke:#000000;stroke-width:1.85745692000000000;stroke-linecap:butt;stroke-linejoin:miter;marker:none;marker-start:none;marker-mid:none;marker-end:none;stroke-miterlimit:4;stroke-dasharray:none;stroke-dashoffset:0;stroke-opacity:1;visibility:visible;display:inline;overflow:visible;enable-background:accumulate"/>
      <path d="M12.4,472.6   L22.5,472.6   C22,481.8 21.6,500 17.5,500   C13.3,500 12.9,481.7 12.4,472.6   z " id="rect2333" style="fill:#ffff00;fill-opacity:1;fill-rule:nonzero;stroke:#000000;stroke-width:1.85745692000000000;stroke-linecap:butt;stroke-linejoin:miter;marker:none;marker-start:none;marker-mid:none;marker-end:none;stroke-miterlimit:4;stroke-dasharray:none;stroke-dashoffset:0;stroke-opacity:1;visibility:visible;display:inline;overflow:visible;enable-background:accumulate"/>
      <path style="fill:#ffff00;fill-opacity:1;fill-rule:nonzero;stroke:#000000;stroke-linecap:butt;stroke-linejoin:miter;stroke-dashoffset:0;marker:none;visibility:visible;display:inline;overflow:visible;enable-background:accumulate" d="m12.3,468.9 10.33,0   c2.034,0 3.671,1.637 3.671,3.671 0,2.034 -1.637,3.671 -3.671,3.671   l-10.33,0   c-2.034,0 -3.671,-1.637 -3.671,-3.671 0,-2.034 1.637,-3.671 3.671,-3.671   z " id="rect2331"/>
      <g id="g2348" style="stroke:#000000;stroke-width:1.85745692000000000;stroke-miterlimit:4;stroke-dasharray:none;stroke-opacity:1;fill:#ffff00">
        <path d="M23.5,410.9   L11.3,410.9   " id="path2338" style="fill:#ffff00;fill-rule:evenodd;stroke:#000000;stroke-width:1.85745692000000000;stroke-linecap:butt;stroke-linejoin:miter;stroke-miterlimit:4;stroke-dasharray:none;stroke-opacity:1"/>
        <path d="M23.3,421.2   L11.5,421.2   " id="path2340" style="fill:#ffff00;fill-rule:evenodd;stroke:#000000;stroke-width:1.85745692000000000;stroke-linecap:butt;stroke-linejoin:miter;stroke-miterlimit:4;stroke-dasharray:none;stroke-opacity:1"/>
      </g>
      <g id="g2352" style="stroke:#000000;stroke-width:1.85745692000000000;stroke-miterlimit:4;stroke-dasharray:none;stroke-opacity:1;fill:#ffff00">
        <path d="M23.7,414.7   L11.4,414.7   " id="path2342" style="fill:#ffff00;fill-rule:evenodd;stroke:#000000;stroke-width:1.85745692000000000;stroke-linecap:butt;stroke-linejoin:miter;stroke-miterlimit:4;stroke-dasharray:none;stroke-opacity:1"/>
        <path d="M23.4,417.4   L11.4,417.4   " id="path2344" style="fill:#ffff00;fill-rule:evenodd;stroke:#000000;stroke-width:1.85745692000000000;stroke-linecap:butt;stroke-linejoin:miter;stroke-miterlimit:4;stroke-dasharray:none;stroke-opacity:1"/>
        <path d="M23.5,416   L11.4,416   " id="path2346" style="fill:#ffff00;fill-rule:evenodd;stroke:#000000;stroke-width:1.85745692000000000;stroke-linecap:butt;stroke-linejoin:miter;stroke-miterlimit:4;stroke-dasharray:none;stroke-opacity:1"/>
      </g>
      <path d="M10.3,82.08   L24.6,82.08   L24.6,136.8   L10.3,136.8   L10.3,82.08   z " id="rect2361" style="fill:#ffff00;fill-opacity:1;fill-rule:nonzero;stroke:#000000;stroke-width:1.85745692000000000;stroke-linecap:butt;stroke-linejoin:miter;marker:none;marker-start:none;marker-mid:none;marker-end:none;stroke-miterlimit:4;stroke-dasharray:none;stroke-dashoffset:0;stroke-opacity:1;visibility:visible;display:inline;overflow:visible;enable-background:accumulate"/>
      <path style="fill:#ffff00;fill-opacity:1;fill-rule:nonzero;stroke:#000000;stroke-linecap:butt;stroke-linejoin:miter;stroke-dashoffset:0;marker:none;visibility:visible;display:inline;overflow:visible;enable-background:accumulate" d="m10.5,77.08 14.03,0   c1.573,0 2.839,1.266 2.839,2.839 0,1.573 -1.266,2.839 -2.839,2.839   l-14.03,0   c-1.573,0 -2.839,-1.266 -2.839,-2.839 0,-1.573 1.266,-2.839 2.839,-2.839   z " id="rect2357"/>
      <path style="fill:#ffff00;fill-opacity:1;fill-rule:nonzero;stroke:#000000;stroke-linecap:butt;stroke-linejoin:miter;stroke-dashoffset:0;marker:none;visibility:visible;display:inline;overflow:visible;enable-background:accumulate" d="m10.5,135.9 14.03,0   c1.573,0 2.839,1.266 2.839,2.839 0,1.573 -1.266,2.839 -2.839,2.839   l-14.03,0   c-1.573,0 -2.839,-1.266 -2.839,-2.839 0,-1.573 1.266,-2.839 2.839,-2.839   z " id="rect2359"/>
      <path d="M4.096,61.98   C6.096,67.48 11.3,71.38 17.5,71.38   C23.6,71.38 28.9,67.48 30.9,61.98   L27.5,61.98   C25.7,65.68 21.9,68.28 17.5,68.28   C13.1,68.28 9.196,65.68 7.396,61.98   L4.096,61.98   z " id="path2384" style="fill:#ffff00;fill-opacity:1;fill-rule:nonzero;stroke:#000000;stroke-width:1.85745692000000000;stroke-linecap:butt;stroke-linejoin:miter;marker:none;marker-start:none;marker-mid:none;marker-end:none;stroke-miterlimit:4;stroke-dasharray:none;stroke-dashoffset:0;stroke-opacity:1;visibility:visible;display:inline;overflow:visible;enable-background:accumulate"/>
      <path style="fill:#ffff00;fill-opacity:1;fill-rule:nonzero;stroke:#000000;stroke-linecap:butt;stroke-linejoin:miter;stroke-dashoffset:0;marker:none;visibility:visible;display:inline;overflow:visible;enable-background:accumulate" d="m10.5,71.08 14.03,0   c1.573,0 2.839,1.266 2.839,2.839 0,1.573 -1.266,2.839 -2.839,2.839   l-14.03,0   c-1.573,0 -2.839,-1.266 -2.839,-2.839 0,-1.573 1.266,-2.839 2.839,-2.839   z " id="rect2382"/>
      <path style="fill:#ffff00;fill-opacity:1;fill-rule:nonzero;stroke:#000000;stroke-linecap:butt;stroke-linejoin:miter;stroke-dashoffset:0;marker:none;visibility:visible;display:inline;overflow:visible;enable-background:accumulate" d="m4.196,28.08 26.59,0 0,29.36 -26.59,0   z " id="rect2401"/>
      <g id="g2499" style="stroke:#000000;stroke-width:1.85745692000000000;stroke-miterlimit:4;stroke-dasharray:none;stroke-opacity:1;fill:#ffff00">
        <g id="g2411" style="stroke:#000000;stroke-width:1.85745692000000000;stroke-miterlimit:4;stroke-dasharray:none;stroke-opacity:1;fill:#ffff00">
          <path style="fill:#ffff00;fill-opacity:1;fill-rule:nonzero;stroke:#000000;stroke-linecap:butt;stroke-linejoin:miter;stroke-dashoffset:0;marker:none;visibility:visible;display:inline;overflow:visible;enable-background:accumulate" d="m19.5,33.98 0,24.66   c0,1.631 -0.8565,2.943 -1.92,2.943   l-0.32,0   c-1.064,0 -1.92,-1.313 -1.92,-2.943   l0,-24.66   c0,-1.631 0.8565,-2.943 1.92,-2.943   l0.32,0   c1.064,0 1.92,1.313 1.92,2.943   z " id="rect2405"/>
          <path style="fill:#ffff00;fill-opacity:1;fill-rule:nonzero;stroke:#000000;stroke-linecap:butt;stroke-linejoin:miter;stroke-dashoffset:0;marker:none;visibility:visible;display:inline;overflow:visible;enable-background:accumulate" d="m28,33.98 0,24.66   c0,1.631 -0.8565,2.943 -1.92,2.943   l-0.32,0   c-1.064,0 -1.92,-1.313 -1.92,-2.943   l0,-24.66   c0,-1.631 0.8565,-2.943 1.92,-2.943   l0.32,0   c1.064,0 1.92,1.313 1.92,2.943   z " id="rect2407"/>
          <path style="fill:#ffff00;fill-opacity:1;fill-rule:nonzero;stroke:#000000;stroke-linecap:butt;stroke-linejoin:miter;stroke-dashoffset:0;marker:none;visibility:visible;display:inline;overflow:visible;enable-background:accumulate" d="m11,33.98 0,24.66   c0,1.631 -0.8565,2.943 -1.92,2.943   l-0.32,0   c-1.064,0 -1.92,-1.313 -1.92,-2.943   l0,-24.66   c0,-1.631 0.8565,-2.943 1.92,-2.943   l0.32,0   c1.064,0 1.92,1.313 1.92,2.943   z " id="rect2409"/>
        </g>
        <g id="g2473" style="stroke:#000000;stroke-width:1.85745692000000000;stroke-miterlimit:4;stroke-dasharray:none;stroke-opacity:1;fill:#ffff00">
          <g id="g2432" style="stroke:#000000;stroke-width:1.85745692000000000;stroke-miterlimit:4;stroke-dasharray:none;stroke-opacity:1;fill:#ffff00">
            <path d="M6.696,53.78   L11,53.78   " id="path2418" style="fill:#ffff00;fill-rule:evenodd;stroke:#000000;stroke-width:1.85745692000000000;stroke-linecap:butt;stroke-linejoin:miter;stroke-miterlimit:4;stroke-dasharray:none;stroke-opacity:1"/>
            <path d="M6.896,50.38   L10.9,50.38   " id="path2420" style="fill:#ffff00;fill-rule:evenodd;stroke:#000000;stroke-width:1.85745692000000000;stroke-linecap:butt;stroke-linejoin:miter;stroke-miterlimit:4;stroke-dasharray:none;stroke-opacity:1"/>
            <path d="M7.096,47.08   L11.1,47.08   " id="path2422" style="fill:#ffff00;fill-rule:evenodd;stroke:#000000;stroke-width:1.85745692000000000;stroke-linecap:butt;stroke-linejoin:miter;stroke-miterlimit:4;stroke-dasharray:none;stroke-opacity:1"/>
            <path d="M7.096,43.68   L11.1,43.68   " id="path2424" style="fill:#ffff00;fill-rule:evenodd;stroke:#000000;stroke-width:1.85745692000000000;stroke-linecap:butt;stroke-linejoin:miter;stroke-miterlimit:4;stroke-dasharray:none;stroke-opacity:1"/>
            <path d="M7.096,40.38   L10.8,40.38   " id="path2426" style="fill:#ffff00;fill-rule:evenodd;stroke:#000000;stroke-width:1.85745692000000000;stroke-linecap:butt;stroke-linejoin:miter;stroke-miterlimit:4;stroke-dasharray:none;stroke-opacity:1"/>
            <path d="M7.096,37.08   L11,37.08   " id="path2428" style="fill:#ffff00;fill-rule:evenodd;stroke:#000000;stroke-width:1.85745692000000000;stroke-linecap:butt;stroke-linejoin:miter;stroke-miterlimit:4;stroke-dasharray:none;stroke-opacity:1"/>
            <path d="M6.896,33.68   L10.8,33.68   " id="path2430" style="fill:#ffff00;fill-rule:evenodd;stroke:#000000;stroke-width:1.85745692000000000;stroke-linecap:butt;stroke-linejoin:miter;stroke-miterlimit:4;stroke-dasharray:none;stroke-opacity:1"/>
          </g>
          <g id="g2441" style="stroke:#000000;stroke-width:1.85745692000000000;stroke-miterlimit:4;stroke-dasharray:none;stroke-opacity:1;fill:#ffff00">
            <path d="M15.2,53.78   L19.6,53.78   " id="path2443" style="fill:#ffff00;fill-rule:evenodd;stroke:#000000;stroke-width:1.85745692000000000;stroke-linecap:butt;stroke-linejoin:miter;stroke-miterlimit:4;stroke-dasharray:none;stroke-opacity:1"/>
            <path d="M15.5,50.38   L19.5,50.38   " id="path2445" style="fill:#ffff00;fill-rule:evenodd;stroke:#000000;stroke-width:1.85745692000000000;stroke-linecap:butt;stroke-linejoin:miter;stroke-miterlimit:4;stroke-dasharray:none;stroke-opacity:1"/>
            <path d="M15.6,47.08   L19.7,47.08   " id="path2447" style="fill:#ffff00;fill-rule:evenodd;stroke:#000000;stroke-width:1.85745692000000000;stroke-linecap:butt;stroke-linejoin:miter;stroke-miterlimit:4;stroke-dasharray:none;stroke-opacity:1"/>
            <path d="M15.7,43.68   L19.7,43.68   " id="path2449" style="fill:#ffff00;fill-rule:evenodd;stroke:#000000;stroke-width:1.85745692000000000;stroke-linecap:butt;stroke-linejoin:miter;stroke-miterlimit:4;stroke-dasharray:none;stroke-opacity:1"/>
            <path d="M15.7,40.38   L19.4,40.38   " id="path2451" style="fill:#ffff00;fill-rule:evenodd;stroke:#000000;stroke-width:1.85745692000000000;stroke-linecap:butt;stroke-linejoin:miter;stroke-miterlimit:4;stroke-dasharray:none;stroke-opacity:1"/>
            <path d="M15.7,37.08   L19.6,37.08   " id="path2453" style="fill:#ffff00;fill-rule:evenodd;stroke:#000000;stroke-width:1.85745692000000000;stroke-linecap:butt;stroke-linejoin:miter;stroke-miterlimit:4;stroke-dasharray:none;stroke-opacity:1"/>
            <path d="M15.5,33.68   L19.4,33.68   " id="path2455" style="fill:#ffff00;fill-rule:evenodd;stroke:#000000;stroke-width:1.85745692000000000;stroke-linecap:butt;stroke-linejoin:miter;stroke-miterlimit:4;stroke-dasharray:none;stroke-opacity:1"/>
          </g>
          <g id="g2457" style="stroke:#000000;stroke-width:1.85745692000000000;stroke-miterlimit:4;stroke-dasharray:none;stroke-opacity:1;fill:#ffff00">
            <path d="M23.9,53.78   L28.2,53.78   " id="path2459" style="fill:#ffff00;fill-rule:evenodd;stroke:#000000;stroke-width:1.85745692000000000;stroke-linecap:butt;stroke-linejoin:miter;stroke-miterlimit:4;stroke-dasharray:none;stroke-opacity:1"/>
            <path d="M24.1,50.38   L28,50.38   " id="path2461" style="fill:#ffff00;fill-rule:evenodd;stroke:#000000;stroke-width:1.85745692000000000;stroke-linecap:butt;stroke-linejoin:miter;stroke-miterlimit:4;stroke-dasharray:none;stroke-opacity:1"/>
            <path d="M24.2,47.08   L28.3,47.08   " id="path2463" style="fill:#ffff00;fill-rule:evenodd;stroke:#000000;stroke-width:1.85745692000000000;stroke-linecap:butt;stroke-linejoin:miter;stroke-miterlimit:4;stroke-dasharray:none;stroke-opacity:1"/>
            <path d="M24.2,43.68   L28.2,43.68   " id="path2465" style="fill:#ffff00;fill-rule:evenodd;stroke:#000000;stroke-width:1.85745692000000000;stroke-linecap:butt;stroke-linejoin:miter;stroke-miterlimit:4;stroke-dasharray:none;stroke-opacity:1"/>
            <path d="M24.2,40.48   L27.9,40.48   " id="path2467" style="fill:#ffff00;fill-rule:evenodd;stroke:#000000;stroke-width:1.85745692000000000;stroke-linecap:butt;stroke-linejoin:miter;stroke-miterlimit:4;stroke-dasharray:none;stroke-opacity:1"/>
            <path d="M24.1,37.08   L28,37.08   " id="path2469" style="fill:#ffff00;fill-rule:evenodd;stroke:#000000;stroke-width:1.85745692000000000;stroke-linecap:butt;stroke-linejoin:miter;stroke-miterlimit:4;stroke-dasharray:none;stroke-opacity:1"/>
            <path d="M24.1,33.68   L28,33.68   " id="path2471" style="fill:#ffff00;fill-rule:evenodd;stroke:#000000;stroke-width:1.85745692000000000;stroke-linecap:butt;stroke-linejoin:miter;stroke-miterlimit:4;stroke-dasharray:none;stroke-opacity:1"/>
          </g>
        </g>
      </g>
      <path style="fill:#ffff00;fill-opacity:1;fill-rule:nonzero;stroke:#000000;stroke-linecap:butt;stroke-linejoin:miter;stroke-dashoffset:0;marker:none;visibility:visible;display:inline;overflow:visible;enable-background:accumulate" d="m3.296,57.28 28.37,0   c1.542,0 2.784,1.242 2.784,2.784   l0,0   c0,1.542 -1.242,2.784 -2.784,2.784   l-28.37,0   c-1.542,0 -2.784,-1.242 -2.784,-2.784   l0,0   c0,-1.542 1.242,-2.784 2.784,-2.784   z " id="rect2399"/>
      <path d="M17.5,0.4836   L14,5.784   C11.8,4.684 10.6,4.484 8.696,4.484   C6.996,4.384 6.396,4.884 5.696,5.784   C7.596,5.684 7.896,10.58 13.9,14.68   C11.3,16.98 9.796,18.68 8.096,22.78   L11.8,22.78   C14.5,14.48 20.9,13.78 23.2,22.78   L26.9,22.78   C25.5,19.58 24.1,17.38 21,14.68   C27,10.58 27.4,5.684 29.3,5.784   C28.5,4.884 28,4.384 26.2,4.484   C24.4,4.484 23.2,4.684 20.9,5.784   L17.5,0.4836   z " id="path2532" style="fill:#ffff00;fill-rule:evenodd;stroke:#000000;stroke-width:1.85745692000000000;stroke-linecap:butt;stroke-linejoin:miter;stroke-miterlimit:4;stroke-dasharray:none;stroke-opacity:1"/>
      <path style="fill:#ffff00;fill-opacity:1;fill-rule:nonzero;stroke:#000000;stroke-linecap:butt;stroke-linejoin:miter;stroke-dashoffset:0;marker:none;visibility:visible;display:inline;overflow:visible;enable-background:accumulate" d="m3.296,22.48 28.37,0   c1.542,0 2.784,1.242 2.784,2.784   l0,0   c0,1.542 -1.242,2.784 -2.784,2.784   l-28.37,0   c-1.542,0 -2.784,-1.242 -2.784,-2.784   l0,0   c0,-1.542 1.242,-2.784 2.784,-2.784   z " id="rect2403"/>
      <path d="M16.3,9.484   L17.4,11.48   L18.7,9.284   " id="path2547" style="fill:#ffff00;fill-rule:evenodd;stroke:#000000;stroke-width:1.85745692000000000;stroke-linecap:butt;stroke-linejoin:miter;stroke-miterlimit:4;stroke-dasharray:none;stroke-opacity:1"/>
    </g>
  </g>
</svg>
