<?xml version="1.0" encoding="utf-8"?>
<svg xmlns:dc="http://purl.org/dc/elements/1.1/" xmlns:xl="http://www.w3.org/1999/xlink"
     xmlns="http://www.w3.org/2000/svg"
     xmlns:xlink="http://www.w3.org/1999/xlink"
     version="1.1"
     viewBox="54 90 256.5 238.5"
     width="256.5"
     height="238.5"
     preserveAspectRatio="xMidYMid meet"
     zoomAndPan="magnify"
     contentScriptType="application/ecmascript"
     contentStyleType="text/css">
   <defs/>
   <metadata  xmlns:svg="http://www.w3.org/2000/svg"
             xmlns:rdf="http://www.w3.org/1999/02/22-rdf-syntax-ns#"
             xmlns:cc="http://creativecommons.org/ns#">
      <rdf:RDF>
         <cc:Work rdf:about="">
            <dc:creator>
               <cc:Agent>
                  <dc:title>http://heraldicart.org Wagon, War.svg</dc:title>
               </cc:Agent>
            </dc:creator>
         </cc:Work>
      </rdf:RDF>
   </metadata>
   <g stroke="#505050" fill="#ffff00" stroke-opacity="1" stroke-dasharray="none"
      fill-opacity="1">
      <title>Wagon, War</title>
      <g>
         <title>Art</title>
         <g>
            <g>
               <rect x="97.32352" y="92.86584" width="24.2647" height="145.5882"/>
               <rect x="97.32352" y="92.86584" width="24.2647" height="145.5882" stroke="black"
                     stroke-linecap="round"
                     stroke-linejoin="round"
                     stroke-width="1.25"/>
            </g>
            <g>
               <rect x="85.19117" y="253.01286" width="196.54408" height="16.98529"/>
               <rect x="85.19117" y="253.01286" width="196.54408" height="16.98529" stroke="black"
                     stroke-linecap="round"
                     stroke-linejoin="round"
                     stroke-width="1.25"/>
            </g>
            <g>
               <path d="M 85.19117 253.01286 L 281.73525 253.01286 L 267.17643 238.45404 L 97.32352 238.45404 Z"/>
               <path d="M 85.19117 253.01286 L 281.73525 253.01286 L 267.17643 238.45404 L 97.32352 238.45404 Z"
                     stroke="black"
                     stroke-linecap="round"
                     stroke-linejoin="round"
                     stroke-width="1.25"/>
            </g>
            <g>
               <rect x="145.85292" y="92.86584" width="24.2647" height="145.5882"/>
               <rect x="145.85292" y="92.86584" width="24.2647" height="145.5882" stroke="black"
                     stroke-linecap="round"
                     stroke-linejoin="round"
                     stroke-width="1.25"/>
            </g>
            <g>
               <rect x="121.58822" y="109.85113" width="24.2647" height="128.60292"/>
               <rect x="121.58822" y="109.85113" width="24.2647" height="128.60292" stroke="black"
                     stroke-linecap="round"
                     stroke-linejoin="round"
                     stroke-width="1.25"/>
            </g>
            <g>
               <rect x="170.11763" y="109.85113" width="24.2647" height="128.60292"/>
               <rect x="170.11763" y="109.85113" width="24.2647" height="128.60292" stroke="black"
                     stroke-linecap="round"
                     stroke-linejoin="round"
                     stroke-width="1.25"/>
            </g>
            <g>
               <rect x="194.38233" y="92.86584" width="24.2647" height="145.5882"/>
               <rect x="194.38233" y="92.86584" width="24.2647" height="145.5882" stroke="black"
                     stroke-linecap="round"
                     stroke-linejoin="round"
                     stroke-width="1.25"/>
            </g>
            <g>
               <rect x="218.64703" y="109.85113" width="24.2647" height="128.60292"/>
               <rect x="218.64703" y="109.85113" width="24.2647" height="128.60292" stroke="black"
                     stroke-linecap="round"
                     stroke-linejoin="round"
                     stroke-width="1.25"/>
            </g>
            <g>
               <rect x="242.91173" y="92.86584" width="24.2647" height="145.5882"/>
               <rect x="242.91173" y="92.86584" width="24.2647" height="145.5882" stroke="black"
                     stroke-linecap="round"
                     stroke-linejoin="round"
                     stroke-width="1.25"/>
            </g>
            <g>
               <circle cx="133.72057" cy="223.89522" r="2.4264740016125"/>
               <circle cx="133.72057" cy="223.89522" r="2.4264740016125" stroke="black"
                       stroke-linecap="round"
                       stroke-linejoin="round"
                       stroke-width="1.25"/>
            </g>
            <g>
               <circle cx="109.45587" cy="223.89522" r="2.42647400161251"/>
               <circle cx="109.45587" cy="223.89522" r="2.42647400161251" stroke="black"
                       stroke-linecap="round"
                       stroke-linejoin="round"
                       stroke-width="1.25"/>
            </g>
            <g>
               <circle cx="157.98528" cy="223.89522" r="2.4264740016125"/>
               <circle cx="157.98528" cy="223.89522" r="2.4264740016125" stroke="black"
                       stroke-linecap="round"
                       stroke-linejoin="round"
                       stroke-width="1.25"/>
            </g>
            <g>
               <circle cx="182.24998" cy="223.89522" r="2.4264740016125"/>
               <circle cx="182.24998" cy="223.89522" r="2.4264740016125" stroke="black"
                       stroke-linecap="round"
                       stroke-linejoin="round"
                       stroke-width="1.25"/>
            </g>
            <g>
               <circle cx="206.51468" cy="223.89522" r="2.4264740016125"/>
               <circle cx="206.51468" cy="223.89522" r="2.4264740016125" stroke="black"
                       stroke-linecap="round"
                       stroke-linejoin="round"
                       stroke-width="1.25"/>
            </g>
            <g>
               <circle cx="230.77938" cy="223.89522" r="2.4264740016125"/>
               <circle cx="230.77938" cy="223.89522" r="2.4264740016125" stroke="black"
                       stroke-linecap="round"
                       stroke-linejoin="round"
                       stroke-width="1.25"/>
            </g>
            <g>
               <circle cx="255.04408" cy="223.89522" r="2.42647400161252"/>
               <circle cx="255.04408" cy="223.89522" r="2.42647400161252" stroke="black"
                       stroke-linecap="round"
                       stroke-linejoin="round"
                       stroke-width="1.25"/>
            </g>
            <g>
               <circle cx="133.72057" cy="119.55701" r="2.42647400161251"/>
               <circle cx="133.72057" cy="119.55701" r="2.42647400161251" stroke="black"
                       stroke-linecap="round"
                       stroke-linejoin="round"
                       stroke-width="1.25"/>
            </g>
            <g>
               <circle cx="109.45587" cy="119.55701" r="2.42647400161251"/>
               <circle cx="109.45587" cy="119.55701" r="2.42647400161251" stroke="black"
                       stroke-linecap="round"
                       stroke-linejoin="round"
                       stroke-width="1.25"/>
            </g>
            <g>
               <circle cx="157.98528" cy="119.55701" r="2.4264740016125"/>
               <circle cx="157.98528" cy="119.55701" r="2.4264740016125" stroke="black"
                       stroke-linecap="round"
                       stroke-linejoin="round"
                       stroke-width="1.25"/>
            </g>
            <g>
               <circle cx="182.24998" cy="119.55701" r="2.4264740016125"/>
               <circle cx="182.24998" cy="119.55701" r="2.4264740016125" stroke="black"
                       stroke-linecap="round"
                       stroke-linejoin="round"
                       stroke-width="1.25"/>
            </g>
            <g>
               <circle cx="206.51468" cy="119.55701" r="2.42647400161251"/>
               <circle cx="206.51468" cy="119.55701" r="2.42647400161251" stroke="black"
                       stroke-linecap="round"
                       stroke-linejoin="round"
                       stroke-width="1.25"/>
            </g>
            <g>
               <circle cx="230.77938" cy="119.55701" r="2.42647400161251"/>
               <circle cx="230.77938" cy="119.55701" r="2.42647400161251" stroke="black"
                       stroke-linecap="round"
                       stroke-linejoin="round"
                       stroke-width="1.25"/>
            </g>
            <g>
               <circle cx="255.04408" cy="119.55701" r="2.42647400161252"/>
               <circle cx="255.04408" cy="119.55701" r="2.42647400161252" stroke="black"
                       stroke-linecap="round"
                       stroke-linejoin="round"
                       stroke-width="1.25"/>
            </g>
            <g>
               <g>
                  <path d="M 98.83053 286.07243 L 100.06525 287.30716 L 100.38483 286.98758 C 104.27995 288.8467 109.08547 288.16334 112.3113 284.9375 C 115.53715 281.71166 116.22051 276.90614 114.36138 273.01103 L 114.68096 272.69144 L 113.44624 271.45672 C 113.11139 270.9865 112.73308 270.53772 112.3113 270.11594 C 108.21844 266.02306 101.58261 266.02306 97.48975 270.11594 C 93.39687 274.2088 93.39687 280.84463 97.48975 284.9375 C 97.91152 285.35927 98.3603 285.7376 98.83053 286.07243 Z"/>
                  <path d="M 98.83053 286.07243 L 100.06525 287.30716 L 100.38483 286.98758 C 104.27995 288.8467 109.08547 288.16334 112.3113 284.9375 C 115.53715 281.71166 116.22051 276.90614 114.36138 273.01103 L 114.68096 272.69144 L 113.44624 271.45672 C 113.11139 270.9865 112.73308 270.53772 112.3113 270.11594 C 108.21844 266.02306 101.58261 266.02306 97.48975 270.11594 C 93.39687 274.2088 93.39687 280.84463 97.48975 284.9375 C 97.91152 285.35927 98.3603 285.7376 98.83053 286.07243 Z"
                        stroke="black"
                        stroke-linecap="round"
                        stroke-linejoin="round"
                        stroke-width="1.25"/>
               </g>
               <g>
                  <path d="M 104.47486 267.9232 L 97.60113 240.35417 L 95.24673 240.94118 L 102.11997 268.5082 C 102.88387 268.2209 103.67457 268.0259 104.47486 267.9232 Z M 107.15752 288.71273 L 114.03125 316.28178 L 116.38565 315.69476 L 109.51241 288.12773 C 108.74852 288.41504 107.95781 288.61004 107.15752 288.71273 Z M 95.42143 279.6593 L 67.852385 286.53304 L 68.4394 288.88743 L 96.00643 282.0142 C 95.71912 281.2503 95.52412 280.4596 95.42143 279.6593 Z M 116.21095 276.97664 L 143.78 270.1029 L 143.19298 267.7485 L 115.62595 274.62175 C 115.91326 275.38565 116.10826 276.17635 116.21095 276.97664 Z M 99.41412 286.61718 L 84.78065 310.97136 L 86.86054 312.2211 L 101.49313 287.86837 C 100.76488 287.53886 100.06657 287.1218 99.41412 286.61718 Z M 112.21826 270.01876 L 126.85173 245.66458 L 124.77184 244.41486 L 110.13925 268.76758 C 110.8675 269.09708 111.56581 269.51414 112.21826 270.01876 Z M 114.1154 284.72004 L 138.46958 299.3535 L 139.7193 297.27362 L 115.36659 282.64103 C 115.03708 283.36928 114.62002 284.0676 114.1154 284.72004 Z M 97.51698 271.9159 L 73.1628 257.28244 L 71.913075 259.36233 L 96.26579 273.9949 C 96.5953 273.26666 97.01236 272.56836 97.51698 271.9159 Z"/>
                  <path d="M 104.47486 267.9232 L 97.60113 240.35417 L 95.24673 240.94118 L 102.11997 268.5082 C 102.88387 268.2209 103.67457 268.0259 104.47486 267.9232 Z M 107.15752 288.71273 L 114.03125 316.28178 L 116.38565 315.69476 L 109.51241 288.12773 C 108.74852 288.41504 107.95781 288.61004 107.15752 288.71273 Z M 95.42143 279.6593 L 67.852385 286.53304 L 68.4394 288.88743 L 96.00643 282.0142 C 95.71912 281.2503 95.52412 280.4596 95.42143 279.6593 Z M 116.21095 276.97664 L 143.78 270.1029 L 143.19298 267.7485 L 115.62595 274.62175 C 115.91326 275.38565 116.10826 276.17635 116.21095 276.97664 Z M 99.41412 286.61718 L 84.78065 310.97136 L 86.86054 312.2211 L 101.49313 287.86837 C 100.76488 287.53886 100.06657 287.1218 99.41412 286.61718 Z M 112.21826 270.01876 L 126.85173 245.66458 L 124.77184 244.41486 L 110.13925 268.76758 C 110.8675 269.09708 111.56581 269.51414 112.21826 270.01876 Z M 114.1154 284.72004 L 138.46958 299.3535 L 139.7193 297.27362 L 115.36659 282.64103 C 115.03708 283.36928 114.62002 284.0676 114.1154 284.72004 Z M 97.51698 271.9159 L 73.1628 257.28244 L 71.913075 259.36233 L 96.26579 273.9949 C 96.5953 273.26666 97.01236 272.56836 97.51698 271.9159 Z"
                        stroke="black"
                        stroke-linecap="round"
                        stroke-linejoin="round"
                        stroke-width="1.25"/>
               </g>
               <g>
                  <path d="M 139.27374 244.86043 C 120.79564 226.38223 90.83674 226.38223 72.358645 244.86043 C 53.88045 263.33853 53.88045 293.29742 72.358645 311.7755 C 90.83674 330.2537 120.79564 330.2537 139.27374 311.7755 C 157.75193 293.29742 157.75193 263.33853 139.27374 244.86043 M 133.22393 250.91024 C 148.36089 266.04712 148.36089 290.58883 133.22393 305.7257 C 118.08705 320.86267 93.54533 320.86267 78.40845 305.7257 C 63.271496 290.58883 63.271496 266.04712 78.40845 250.91024 C 93.54533 235.77328 118.08705 235.77328 133.22393 250.91024"/>
                  <path d="M 139.27374 244.86043 C 120.79564 226.38223 90.83674 226.38223 72.358645 244.86043 C 53.88045 263.33853 53.88045 293.29742 72.358645 311.7755 C 90.83674 330.2537 120.79564 330.2537 139.27374 311.7755 C 157.75193 293.29742 157.75193 263.33853 139.27374 244.86043 M 133.22393 250.91024 C 148.36089 266.04712 148.36089 290.58883 133.22393 305.7257 C 118.08705 320.86267 93.54533 320.86267 78.40845 305.7257 C 63.271496 290.58883 63.271496 266.04712 78.40845 250.91024 C 93.54533 235.77328 118.08705 235.77328 133.22393 250.91024"
                        stroke="black"
                        stroke-linecap="round"
                        stroke-linejoin="round"
                        stroke-width="1.25"/>
               </g>
               <g>
                  <circle cx="106.73186" cy="279.10923" r="10.4804483818573"/>
                  <circle cx="106.73186" cy="279.10923" r="10.4804483818573" stroke="black"
                          stroke-linecap="round"
                          stroke-linejoin="round"
                          stroke-width="1.25"/>
               </g>
               <g>
                  <circle cx="106.73186" cy="279.10923" r="3.63971100241876"/>
                  <circle cx="106.73186" cy="279.10923" r="3.63971100241876" stroke="black"
                          stroke-linecap="round"
                          stroke-linejoin="round"
                          stroke-width="1.25"/>
               </g>
            </g>
            <g>
               <g>
                  <path d="M 251.69814 286.07243 L 252.93287 287.30716 L 253.25245 286.98758 C 257.14756 288.8467 261.9531 288.16334 265.17892 284.9375 C 268.40477 281.71166 269.08813 276.90614 267.229 273.01103 L 267.54858 272.69144 L 266.31386 271.45672 C 265.979 270.9865 265.6007 270.53772 265.17892 270.11594 C 261.08606 266.02306 254.45023 266.02306 250.35737 270.11594 C 246.26449 274.2088 246.26449 280.84463 250.35737 284.9375 C 250.77914 285.35927 251.22792 285.7376 251.69814 286.07243 Z"/>
                  <path d="M 251.69814 286.07243 L 252.93287 287.30716 L 253.25245 286.98758 C 257.14756 288.8467 261.9531 288.16334 265.17892 284.9375 C 268.40477 281.71166 269.08813 276.90614 267.229 273.01103 L 267.54858 272.69144 L 266.31386 271.45672 C 265.979 270.9865 265.6007 270.53772 265.17892 270.11594 C 261.08606 266.02306 254.45023 266.02306 250.35737 270.11594 C 246.26449 274.2088 246.26449 280.84463 250.35737 284.9375 C 250.77914 285.35927 251.22792 285.7376 251.69814 286.07243 Z"
                        stroke="black"
                        stroke-linecap="round"
                        stroke-linejoin="round"
                        stroke-width="1.25"/>
               </g>
               <g>
                  <path d="M 260.02514 267.9232 L 266.89887 240.35417 L 269.25327 240.94118 L 262.38003 268.5082 C 261.61613 268.2209 260.82543 268.0259 260.02514 267.9232 Z M 257.34248 288.71273 L 250.46875 316.28178 L 248.11435 315.69476 L 254.9876 288.12773 C 255.75148 288.41504 256.5422 288.61004 257.34248 288.71273 Z M 269.07857 279.6593 L 296.6476 286.53304 L 296.0606 288.88743 L 268.49357 282.0142 C 268.78088 281.2503 268.97588 280.4596 269.07857 279.6593 Z M 248.28905 276.97664 L 220.72 270.1029 L 221.30702 267.7485 L 248.87405 274.62175 C 248.58674 275.38565 248.39174 276.17635 248.28905 276.97664 Z M 265.08588 286.61718 L 279.71935 310.97136 L 277.63946 312.2211 L 263.00687 287.86837 C 263.73512 287.53886 264.43343 287.1218 265.08588 286.61718 Z M 252.28174 270.01876 L 237.64827 245.66458 L 239.72816 244.41486 L 254.36075 268.76758 C 253.6325 269.09708 252.9342 269.51414 252.28174 270.01876 Z M 250.3846 284.72004 L 226.03042 299.3535 L 224.7807 297.27362 L 249.1334 282.64103 C 249.46292 283.36928 249.87998 284.0676 250.3846 284.72004 Z M 266.98302 271.9159 L 291.3372 257.28244 L 292.58692 259.36233 L 268.2342 273.9949 C 267.9047 273.26666 267.48764 272.56836 266.98302 271.9159 Z"/>
                  <path d="M 260.02514 267.9232 L 266.89887 240.35417 L 269.25327 240.94118 L 262.38003 268.5082 C 261.61613 268.2209 260.82543 268.0259 260.02514 267.9232 Z M 257.34248 288.71273 L 250.46875 316.28178 L 248.11435 315.69476 L 254.9876 288.12773 C 255.75148 288.41504 256.5422 288.61004 257.34248 288.71273 Z M 269.07857 279.6593 L 296.6476 286.53304 L 296.0606 288.88743 L 268.49357 282.0142 C 268.78088 281.2503 268.97588 280.4596 269.07857 279.6593 Z M 248.28905 276.97664 L 220.72 270.1029 L 221.30702 267.7485 L 248.87405 274.62175 C 248.58674 275.38565 248.39174 276.17635 248.28905 276.97664 Z M 265.08588 286.61718 L 279.71935 310.97136 L 277.63946 312.2211 L 263.00687 287.86837 C 263.73512 287.53886 264.43343 287.1218 265.08588 286.61718 Z M 252.28174 270.01876 L 237.64827 245.66458 L 239.72816 244.41486 L 254.36075 268.76758 C 253.6325 269.09708 252.9342 269.51414 252.28174 270.01876 Z M 250.3846 284.72004 L 226.03042 299.3535 L 224.7807 297.27362 L 249.1334 282.64103 C 249.46292 283.36928 249.87998 284.0676 250.3846 284.72004 Z M 266.98302 271.9159 L 291.3372 257.28244 L 292.58692 259.36233 L 268.2342 273.9949 C 267.9047 273.26666 267.48764 272.56836 266.98302 271.9159 Z"
                        stroke="black"
                        stroke-linecap="round"
                        stroke-linejoin="round"
                        stroke-width="1.25"/>
               </g>
               <g>
                  <path d="M 292.14135 244.86043 C 273.66326 226.38223 243.70436 226.38223 225.22626 244.86043 C 206.74807 263.33853 206.74807 293.29742 225.22626 311.7755 C 243.70436 330.2537 273.66326 330.2537 292.14135 311.7755 C 310.61955 293.29742 310.61955 263.33853 292.14135 244.86043 M 286.09155 250.91024 C 301.2285 266.04712 301.2285 290.58883 286.09155 305.7257 C 270.95467 320.86267 246.41295 320.86267 231.27607 305.7257 C 216.13911 290.58883 216.13911 266.04712 231.27607 250.91024 C 246.41295 235.77328 270.95467 235.77328 286.09155 250.91024"/>
                  <path d="M 292.14135 244.86043 C 273.66326 226.38223 243.70436 226.38223 225.22626 244.86043 C 206.74807 263.33853 206.74807 293.29742 225.22626 311.7755 C 243.70436 330.2537 273.66326 330.2537 292.14135 311.7755 C 310.61955 293.29742 310.61955 263.33853 292.14135 244.86043 M 286.09155 250.91024 C 301.2285 266.04712 301.2285 290.58883 286.09155 305.7257 C 270.95467 320.86267 246.41295 320.86267 231.27607 305.7257 C 216.13911 290.58883 216.13911 266.04712 231.27607 250.91024 C 246.41295 235.77328 270.95467 235.77328 286.09155 250.91024"
                        stroke="black"
                        stroke-linecap="round"
                        stroke-linejoin="round"
                        stroke-width="1.25"/>
               </g>
               <g>
                  <circle cx="259.59948" cy="279.10923" r="10.4804483818573"/>
                  <circle cx="259.59948" cy="279.10923" r="10.4804483818573" stroke="black"
                          stroke-linecap="round"
                          stroke-linejoin="round"
                          stroke-width="1.25"/>
               </g>
               <g>
                  <circle cx="259.59948" cy="279.10923" r="3.63971100241875"/>
                  <circle cx="259.59948" cy="279.10923" r="3.63971100241875" stroke="black"
                          stroke-linecap="round"
                          stroke-linejoin="round"
                          stroke-width="1.25"/>
               </g>
            </g>
         </g>
      </g>
   </g>
</svg>