<?xml version="1.0" encoding="UTF-8" standalone="no"?>
<svg
   xmlns:dc="http://purl.org/dc/elements/1.1/"
   xmlns:cc="http://creativecommons.org/ns#"
   xmlns:rdf="http://www.w3.org/1999/02/22-rdf-syntax-ns#"
   xmlns:svg="http://www.w3.org/2000/svg"
   xmlns="http://www.w3.org/2000/svg"
   version="1.1"
   preserveAspectRatio="xMidYMid meet"
   height="1200"
   width="1000"
   viewBox="0 0 1000 1200"
   id="svg924">
  <path fill-rule="evenodd"
     d="M 74.210938 85.630859 C 74.210937 85.630859 71.729553 473.22436 86.357422 519.76758 C 93.006453 562.32138 109.32699 658.96451 211.57422 812.99609 C 295.95547 940.69885 402.98117 1040.537 501.07617 1114.9004 C 599.17118 1040.537 706.19492 940.69885 790.57617 812.99609 C 892.8234 658.96451 909.14393 562.32138 915.79297 519.76758 C 930.4208 473.22436 927.93945 85.630859 927.93945 85.630859 L 501.07617 85.630859 L 74.210938 85.630859 z M 144.38281 170.23047 L 501.07617 170.23047 L 857.76953 170.23047 C 857.76953 170.23047 859.84234 494.10787 847.61914 533 C 842.06311 568.55851 828.42546 649.31653 742.98633 778.02734 C 672.47625 884.73744 583.04565 968.1618 501.07617 1030.3008 C 419.1067 968.1618 329.67414 884.73744 259.16406 778.02734 C 173.72494 649.31653 160.08727 568.55851 154.53125 533 C 142.30801 494.10787 144.38281 170.23047 144.38281 170.23047 z "
     />
  <metadata
     id="metadata928">
    <rdf:RDF>
      <cc:Work
         rdf:about="">
        <dc:format>image/svg+xml</dc:format>
        <dc:type
           rdf:resource="http://purl.org/dc/dcmitype/StillImage" />
        <dc:title></dc:title>
      </cc:Work>
    </rdf:RDF>
  </metadata>
  <defs
     id="defs897" />
</svg>
