<?xml version="1.0" encoding="UTF-8" standalone="no"?>
<!-- Created with Inkscape (http://www.inkscape.org/) -->

<svg
   version="1.0"
   width="148.38"
   height="264.20999"
   id="svg5918"
   xmlns="http://www.w3.org/2000/svg"
   xmlns:svg="http://www.w3.org/2000/svg"
   xmlns:rdf="http://www.w3.org/1999/02/22-rdf-syntax-ns#"
   xmlns:cc="http://creativecommons.org/ns#"
   xmlns:dc="http://purl.org/dc/elements/1.1/">
  <defs
     id="defs5920" />
  <metadata
     id="metadata1880">
    <rdf:RDF>
      <cc:Work
         rdf:about="">
        <dc:date>26-01-2008</dc:date>
        <dc:creator>
          <cc:Agent>
            <dc:title>Lokal_Profil https://commons.m.wikimedia.org/wiki/File:Heraldic_Globus_cruciger.svg</dc:title>
          </cc:Agent>
        </dc:creator>
        <cc:license
           rdf:resource="http://creativecommons.org/licenses/by-sa/2.5/" />
        <dc:rights>
          <cc:Agent>
            <dc:title>cc-by-sa-2.5</dc:title>
          </cc:Agent>
        </dc:rights>
        <dc:format>image/svg+xml</dc:format>
        <dc:type
           rdf:resource="http://purl.org/dc/dcmitype/StillImage" />
        <dc:publisher>
          <cc:Agent>
            <dc:title>Genuensium praesidium</dc:title>
          </cc:Agent>
        </dc:publisher>
      </cc:Work>
      <cc:License
         rdf:about="http://creativecommons.org/licenses/by-sa/2.5/">
        <cc:permits
           rdf:resource="http://web.resource.org/cc/Reproduction" />
        <cc:permits
           rdf:resource="http://web.resource.org/cc/Distribution" />
        <cc:requires
           rdf:resource="http://web.resource.org/cc/Notice" />
        <cc:requires
           rdf:resource="http://web.resource.org/cc/Attribution" />
        <cc:permits
           rdf:resource="http://web.resource.org/cc/DerivativeWorks" />
        <cc:requires
           rdf:resource="http://web.resource.org/cc/ShareAlike" />
      </cc:License>
    </rdf:RDF>
  </metadata>
  <g
     id="g1809"
     style="stroke:#000000;stroke-opacity:1;stroke-width:0.7;stroke-miterlimit:4;stroke-dasharray:none">
    <path
       d="M 141.33196,196.57075 C 141.33639,233.65385 111.27582,263.71799 74.192721,263.71799 C 37.10962,263.71799 7.0490648,233.65385 7.0534829,196.57075 C 7.0490648,159.48765 37.10962,129.42351 74.192721,129.42351 C 111.27582,129.42351 141.33639,159.48765 141.33196,196.57075 L 141.33196,196.57075 z "
       style="fill:#ffff00;stroke:#000000;stroke-opacity:1;stroke-width:0.7;stroke-miterlimit:4;stroke-dasharray:none"
       id="Orb" />
    <path
       d="m 55.56092,132.87245 v 51.28125 l -50.187504,0.0937 c -1.087516,0 -1.96875,1.3009 -1.96875,2.90625 0,1.60536 0.881231,2.90625 1.96875,2.90625 l 56.093754,-0.0937 v -5.8125 h -0.0937 v -51.2813 c -1.23314,-0.38807 -4.57631,-0.30439 -5.8125,0 z"
       style="fill:#ffff00;stroke:#000000;stroke-width:0.7;stroke-linecap:round;stroke-opacity:1;stroke-miterlimit:4;stroke-dasharray:none"
       id="rect1875" />
    <rect
       width="136.62476"
       height="5.8117757"
       rx="1.8943729"
       ry="2.9388974"
       x="5.880321"
       y="214.75081"
       style="fill:#ffff00;stroke:#000000;stroke-width:0.7;stroke-linecap:round;stroke-opacity:1;stroke-miterlimit:4;stroke-dasharray:none"
       id="use2762" />
    <path
       d="m 92.8245,132.872 v 51.282 l 50.1875,0.09 c 1.087,0 1.969,1.301 1.969,2.907 0,1.605 -0.882,2.906 -1.969,2.906 l -56.0938,-0.09 v -5.812 h 0.094 v -51.282 c 1.2332,-0.388 4.5763,-0.304 5.8125,0 z"
       style="fill:#ffff00;stroke:#000000;stroke-width:0.7;stroke-linecap:round;stroke-miterlimit:4;stroke-dasharray:none;stroke-opacity:1"
       id="use2784" />
    <g
       transform="translate(-63.0198,-27.80236)"
       style="fill:#ffff00;stroke:#000000;stroke-width:0.7;stroke-opacity:1;stroke-miterlimit:4;stroke-dasharray:none"
       id="Korsarm-bas">
      <path
         d="m 146.21244,136.2452 c 0,23.05338 4.52125,24.28717 -8.85471,24.41777 -14.8433,0.14636 -8.85471,-1.80533 -8.85471,-24.41777 0,-15.14813 -0.86293,-27.44227 8.85471,-27.44227 7.66861,0 8.85471,12.29414 8.85471,27.44227 z"
         style="stroke:#000000;fill:#ffff00;stroke-opacity:1;stroke-width:0.7;stroke-miterlimit:4;stroke-dasharray:none"
         id="path4629" />
      <path
         d="m 158.94794,160.46754 c -1.75631,-2.19538 -7.82228,0.41139 -11.26962,-8.78154 -1.02452,-2.4881 -1e-5,-32.34528 -1e-5,-32.34528 0,-8.04973 -6.65407,-11.65225 -9.80603,-10.39147 3.80533,1.17087 9.5846,6.49435 4.82984,13.90408 -1.30971,2.04102 -12.87958,8.63517 -9.9524,19.02664 0.13494,0.40481 1.583,-2.82312 3.44416,-3.25765 1.86117,-0.43453 4.13544,1.92435 5.9228,-0.54768 -7.2277,8.85058 -5.67345,12.06237 -0.7318,19.46571 0.45891,0.68751 2.92718,-0.58543 3.36626,-3.65896 0,0 2.4341,11.7158 14.1968,6.58615 z"
         id="use4627"
         style="fill:#ffff00;stroke:#000000;stroke-opacity:1;stroke-width:0.7;stroke-miterlimit:4;stroke-dasharray:none" />
      <path
         d="m 115.47706,160.46754 c 1.75631,-2.19538 7.82228,0.41139 11.26962,-8.78154 1.02452,-2.4881 1e-5,-32.34528 1e-5,-32.34528 0,-8.04973 6.65407,-11.65225 9.80603,-10.39147 -3.80533,1.17087 -9.5846,6.49435 -4.82984,13.90408 1.30971,2.04102 12.87958,8.63517 9.9524,19.02664 -0.26987,0.80961 -5.79225,1.13873 -9.36696,-3.80533 7.2277,8.85058 5.67345,12.06237 0.7318,19.46571 -0.45891,0.68751 -2.92718,-0.58543 -3.36626,-3.65896 0,0 -2.4341,11.7158 -14.1968,6.58615 z"
         id="path3739"
         style="fill:#ffff00;stroke:#000000;stroke-opacity:1;stroke-width:0.7;stroke-miterlimit:4;stroke-dasharray:none" />
    </g>
    <g
       id="g1188"
       style="fill:#ffff00;stroke:#000000;stroke-opacity:1;stroke-width:0.7;stroke-miterlimit:4;stroke-dasharray:none">
      <path
         d="m 82.19265,38.14664 c 0,-23.05338 4.52125,-17.31168 -8.85471,-17.44228 -14.8433,-0.14636 -8.85471,-5.17016 -8.85471,17.44228 0,15.14813 -0.86293,27.44227 8.85471,27.44227 7.66861,0 8.85471,-12.29414 8.85471,-27.44227 z"
         style="fill:#ffff00;stroke:#000000;stroke-width:0.7;stroke-opacity:1;stroke-miterlimit:4;stroke-dasharray:none"
         id="path5530" />
      <path
         d="m 84.315923,11.626472 c 0,6.143209 -4.98005,11.123264 -11.123272,11.123264 -6.143208,0 -11.123258,-4.980055 -11.123258,-11.123264 0,-6.1432097 4.98005,-11.12326513 11.123258,-11.12326513 6.143222,0 11.123272,4.98005543 11.123272,11.12326513 z"
         style="fill:#ffff00;stroke:#000000;stroke-width:0.7;stroke-opacity:1;stroke-miterlimit:4;stroke-dasharray:none"
         id="path5526" />
      <path
         d="m 94.92815,13.9243 c -1.75631,2.19538 -7.82228,-0.41139 -11.26962,8.78154 -1.02452,2.4881 -1e-5,32.34528 -1e-5,32.34528 0,8.04973 -6.65407,11.65225 -9.80603,10.39147 3.80533,-1.17087 9.5846,-6.49435 4.82984,-13.90408 -1.30971,-2.04102 -12.87958,-8.63517 -9.9524,-19.02664 0.13494,-0.40481 1.583,2.82312 3.44416,3.25765 1.86117,0.43453 4.13544,-1.92435 5.9228,0.54768 -7.2277,-8.85058 -5.67345,-12.06237 -0.7318,-19.46571 0.45891,-0.68751 2.92718,0.58543 3.36626,3.65896 0,0 2.4341,-11.7158 14.1968,-6.58615 z"
         id="path5532"
         style="fill:#ffff00;stroke:#000000;stroke-width:0.7;stroke-opacity:1;stroke-miterlimit:4;stroke-dasharray:none" />
      <path
         d="m 51.45727,13.9243 c 1.75631,2.19538 7.82228,-0.41139 11.26962,8.78154 1.02452,2.4881 1e-5,32.34528 1e-5,32.34528 0,8.04973 6.65407,11.65225 9.80603,10.39147 -3.80533,-1.17087 -9.5846,-6.49435 -4.82984,-13.90408 1.30971,-2.04102 12.87958,-8.63517 9.9524,-19.02664 -0.26987,-0.80961 -5.79225,-1.13873 -9.36696,3.80533 7.2277,-8.85058 5.67345,-12.06237 0.7318,-19.46571 -0.45891,-0.68751 -2.92718,0.58543 -3.36626,3.65896 0,0 -2.4341,-11.7158 -14.1968,-6.58615 z"
         id="path5534"
         style="fill:#ffff00;stroke:#000000;stroke-width:0.7;stroke-opacity:1;stroke-miterlimit:4;stroke-dasharray:none" />
    </g>
    <g
       transform="rotate(-90,72.80412,73.584514)"
       style="fill:#ffff00;stroke:#000000;stroke-width:0.7;fill-opacity:1;stroke-opacity:1;stroke-miterlimit:4;stroke-dasharray:none"
       id="Korsarm-2">
      <path
         d="m 147.21238,65.949 c 0,-23.05338 4.52125,-17.31168 -8.85471,-17.44228 -14.8433,-0.14636 -8.85471,-5.17016 -8.85471,17.44228 0,15.14813 -0.86293,27.44227 8.85471,27.44227 7.66861,0 8.85471,-12.29414 8.85471,-27.44227 z"
         style="fill:#ffff00;stroke:#000000;stroke-width:0.7;fill-opacity:1;stroke-opacity:1;stroke-miterlimit:4;stroke-dasharray:none"
         id="path906"
         transform="translate(-65.01973,-27.80236)" />
      <path
         d="m 144.60246,40.160633 c 0,4.284081 -3.47293,7.757015 -7.75702,7.757015 -4.28408,0 -7.75701,-3.472934 -7.75701,-7.757015 0,-4.284081 3.47293,-7.757015 7.75701,-7.757015 4.28409,0 7.75702,3.472934 7.75702,7.757015 z"
         transform="matrix(1.433962,0,0,1.433962,-123.03851,-45.96235)"
         style="fill:#ffff00;stroke:#000000;stroke-width:0.48815798;fill-opacity:1;stroke-opacity:1;stroke-miterlimit:4;stroke-dasharray:none"
         id="path908" />
      <path
         d="m 159.94788,41.72666 c -1.75631,2.19538 -7.82228,-0.41139 -11.26962,8.78154 -1.02452,2.4881 -1e-5,32.34528 -1e-5,32.34528 0,8.04973 -6.65407,11.65225 -9.80603,10.39147 3.80533,-1.17087 9.5846,-6.49435 4.82984,-13.90408 -1.30971,-2.04102 -12.87958,-8.63517 -9.9524,-19.02664 0.13494,-0.40481 1.583,2.82312 3.44416,3.25765 1.86117,0.43453 4.13544,-1.92435 5.9228,0.54768 -7.2277,-8.85058 -5.67345,-12.06237 -0.7318,-19.46571 0.45891,-0.68751 2.92718,0.58543 3.36626,3.65896 0,0 2.4341,-11.7158 14.1968,-6.58615 z"
         id="path910"
         transform="translate(-65.01973,-27.80236)"
         style="fill:#ffff00;stroke:#000000;stroke-width:0.7;fill-opacity:1;stroke-opacity:1;stroke-miterlimit:4;stroke-dasharray:none" />
      <path
         d="m 116.477,41.72666 c 1.75631,2.19538 7.82228,-0.41139 11.26962,8.78154 1.02452,2.4881 1e-5,32.34528 1e-5,32.34528 0,8.04973 6.65407,11.65225 9.80603,10.39147 -3.80533,-1.17087 -9.5846,-6.49435 -4.82984,-13.90408 1.30971,-2.04102 12.87958,-8.63517 9.9524,-19.02664 -0.26987,-0.80961 -5.79225,-1.13873 -9.36696,3.80533 7.2277,-8.85058 5.67345,-12.06237 0.7318,-19.46571 -0.45891,-0.68751 -2.92718,0.58543 -3.36626,3.65896 0,0 -2.4341,-11.7158 -14.1968,-6.58615 z"
         id="path912"
         transform="translate(-65.01973,-27.80236)"
         style="fill:#ffff00;stroke:#000000;stroke-width:0.7;fill-opacity:1;stroke-opacity:1;stroke-miterlimit:4;stroke-dasharray:none" />
    </g>
    <g
       transform="rotate(90,74.279981,74.283192)"
       style="fill:#ffff00;stroke:#000000;stroke-width:0.7;stroke-opacity:1;stroke-miterlimit:4;stroke-dasharray:none"
       id="Korsarm-3">
      <path
         d="m 147.21238,65.949 c 0,-23.05338 4.52125,-17.31168 -8.85471,-17.44228 -14.8433,-0.14636 -8.85471,-5.17016 -8.85471,17.44228 0,15.14813 -0.86293,27.44227 8.85471,27.44227 7.66861,0 8.85471,-12.29414 8.85471,-27.44227 z"
         style="fill:#ffff00;stroke:#000000;stroke-width:0.7;stroke-opacity:1;stroke-miterlimit:4;stroke-dasharray:none"
         id="path896"
         transform="translate(-65.01973,-27.80236)" />
      <path
         d="m 144.60246,40.160633 c 0,4.284081 -3.47293,7.757015 -7.75702,7.757015 -4.28408,0 -7.75701,-3.472934 -7.75701,-7.757015 0,-4.284081 3.47293,-7.757015 7.75701,-7.757015 4.28409,0 7.75702,3.472934 7.75702,7.757015 z"
         transform="matrix(1.433962,0,0,1.433962,-123.03851,-45.96235)"
         style="fill:#ffff00;stroke:#000000;stroke-width:0.48815798;stroke-opacity:1;stroke-miterlimit:4;stroke-dasharray:none"
         id="path898" />
      <path
         d="m 159.94788,41.72666 c -1.75631,2.19538 -7.82228,-0.41139 -11.26962,8.78154 -1.02452,2.4881 -1e-5,32.34528 -1e-5,32.34528 0,8.04973 -6.65407,11.65225 -9.80603,10.39147 3.80533,-1.17087 9.5846,-6.49435 4.82984,-13.90408 -1.30971,-2.04102 -12.87958,-8.63517 -9.9524,-19.02664 0.13494,-0.40481 1.583,2.82312 3.44416,3.25765 1.86117,0.43453 4.13544,-1.92435 5.9228,0.54768 -7.2277,-8.85058 -5.67345,-12.06237 -0.7318,-19.46571 0.45891,-0.68751 2.92718,0.58543 3.36626,3.65896 0,0 2.4341,-11.7158 14.1968,-6.58615 z"
         id="path900"
         transform="translate(-65.01973,-27.80236)"
         style="fill:#ffff00;stroke:#000000;stroke-width:0.7;stroke-opacity:1;stroke-miterlimit:4;stroke-dasharray:none" />
      <path
         d="m 116.477,41.72666 c 1.75631,2.19538 7.82228,-0.41139 11.26962,8.78154 1.02452,2.4881 1e-5,32.34528 1e-5,32.34528 0,8.04973 6.65407,11.65225 9.80603,10.39147 -3.80533,-1.17087 -9.5846,-6.49435 -4.82984,-13.90408 1.30971,-2.04102 12.87958,-8.63517 9.9524,-19.02664 -0.26987,-0.80961 -5.79225,-1.13873 -9.36696,3.80533 7.2277,-8.85058 5.67345,-12.06237 0.7318,-19.46571 -0.45891,-0.68751 -2.92718,0.58543 -3.36626,3.65896 0,0 -2.4341,-11.7158 -14.1968,-6.58615 z"
         id="path902"
         transform="translate(-65.01973,-27.80236)"
         style="fill:#ffff00;stroke:#000000;stroke-width:0.7;stroke-opacity:1;stroke-miterlimit:4;stroke-dasharray:none" />
    </g>
    <path
       d="m 83.120583,73.19592 c 0.0022,4.932178 -3.995708,8.931578 -8.927886,8.931578 -4.932178,0 -8.929923,-3.9994 -8.927886,-8.931578 -0.0022,-4.932176 3.995708,-8.931577 8.927886,-8.931577 4.932178,0 8.929923,3.999401 8.927886,8.931577 z"
       style="fill:#ffff00;stroke-width:0.7;stroke:#000000;stroke-opacity:1;stroke-miterlimit:4;stroke-dasharray:none"
       id="Kors-center" />
  </g>
  <g
     id="garnished"
     style="fill:#ff0000;stroke:#000000;stroke-opacity:1;stroke-width:0.6;stroke-miterlimit:4;stroke-dasharray:none">
    <rect
       width="22.014553"
       height="13.672104"
       rx="1.7490116"
       ry="1.086221"
       x="64.041908"
       y="195.57339"
       style="fill:#ff0000;stroke:#000000;stroke-width:0.6;stroke-linecap:round;stroke-opacity:1;stroke-miterlimit:4;stroke-dasharray:none"
       id="rect2788" />
    <rect
       width="11.168511"
       height="5.9548149"
       rx="0.88731557"
       ry="0.47309801"
       x="44.294094"
       y="194.38176"
       style="fill:#ff0000;stroke:#000000;stroke-width:0.6;stroke-linecap:round;stroke-opacity:1;stroke-miterlimit:4;stroke-dasharray:none"
       id="use2792" />
    <rect
       width="11.1685"
       height="5.95481"
       rx="0.887316"
       ry="0.473098"
       x="44.2941"
       y="204.483"
       style="fill:#ff0000;stroke:#000000;stroke-width:0.6;stroke-linecap:round;stroke-miterlimit:4;stroke-dasharray:none;stroke-opacity:1"
       id="use2796" />
    <rect
       width="11.1685"
       height="5.95481"
       rx="0.887316"
       ry="0.473098"
       x="94.2941"
       y="194.382"
       style="fill:#ff0000;stroke:#000000;stroke-width:0.6;stroke-linecap:round;stroke-miterlimit:4;stroke-dasharray:none;stroke-opacity:1"
       id="use2798" />
    <rect
       width="11.1685"
       height="5.95481"
       rx="0.887316"
       ry="0.473098"
       x="94.2941"
       y="204.483"
       style="fill:#ff0000;stroke:#000000;stroke-width:0.6;stroke-linecap:round;stroke-miterlimit:4;stroke-dasharray:none;stroke-opacity:1"
       id="use2800" />
    <rect
       width="11.1685"
       height="5.95481"
       rx="0.887316"
       ry="0.473098"
       x="177.591"
       y="-71.9942"
       style="fill:#ff0000;stroke:#000000;stroke-width:0.6;stroke-linecap:round;stroke-miterlimit:4;stroke-dasharray:none;stroke-opacity:1"
       id="use2802"
       transform="rotate(90)" />
    <rect
       width="11.1685"
       height="5.95481"
       rx="0.887316"
       ry="0.473098"
       x="177.591"
       y="-82.3455"
       style="fill:#ff0000;stroke:#000000;stroke-width:0.6;stroke-linecap:round;stroke-miterlimit:4;stroke-dasharray:none;stroke-opacity:1"
       id="use2804"
       transform="rotate(90)" />
    <rect
       width="11.1685"
       height="5.95481"
       rx="0.887316"
       ry="0.473098"
       x="134.291"
       y="-71.9942"
       style="fill:#ff0000;stroke:#000000;stroke-width:0.6;stroke-linecap:round;stroke-miterlimit:4;stroke-dasharray:none;stroke-opacity:1"
       id="use2806"
       transform="rotate(90)" />
    <rect
       width="11.1685"
       height="5.95481"
       rx="0.887316"
       ry="0.473098"
       x="134.291"
       y="-82.3455"
       style="fill:#ff0000;stroke:#000000;stroke-width:0.6;stroke-linecap:round;stroke-miterlimit:4;stroke-dasharray:none;stroke-opacity:1"
       id="use2808"
       transform="rotate(90)" />
    <path
       d="m 81.350534,160.78569 c 0.0023,5.3299 -3.202735,9.65259 -7.157839,9.65259 -3.955092,0 -7.160557,-4.32269 -7.157827,-9.65259 -0.0023,-5.32989 3.202735,-9.65259 7.157839,-9.65259 3.955092,0 7.160557,4.3227 7.157827,9.65259 z"
       style="fill:#ff0000;stroke:#000000;stroke-width:0.6;stroke-linecap:round;stroke-opacity:1;stroke-miterlimit:4;stroke-dasharray:none"
       id="path2810" />
    <path
       d="m 28.0983,195.252 c 5.33,0 9.652,3.202 9.652,7.157 0,3.956 -4.322,7.161 -9.652,7.158 -5.33,0 -9.653,-3.202 -9.653,-7.158 0,-3.955 4.323,-7.16 9.653,-7.157 z"
       style="fill:#ff0000;stroke:#000000;stroke-width:0.6;stroke-linecap:round;stroke-miterlimit:4;stroke-dasharray:none;stroke-opacity:1"
       id="use2812" />
    <path
       d="m 124.098,195.252 c 5.33,0 9.652,3.202 9.652,7.157 0,3.956 -4.322,7.161 -9.652,7.158 -5.33,0 -9.653,-3.202 -9.653,-7.158 0,-3.955 4.323,-7.16 9.653,-7.157 z"
       style="fill:#ff0000;stroke:#000000;stroke-width:0.6;stroke-linecap:round;stroke-miterlimit:4;stroke-dasharray:none;stroke-opacity:1"
       id="use2814" />
    <path
       d="m 5.691562,194.38175 h 5.783935 c 0.491573,0 0.887315,0.21101 0.887315,0.4731 v 5.00862 c 0,0.2621 -0.395742,0.4731 -0.887315,0.4731 H 5.691562 c -0.491572,0 -0.887315,-0.211 -0.887315,-0.4731 v -5.00862 c 0,-0.26209 0.395743,-0.4731 0.887315,-0.4731 z"
       style="fill:#ff0000;stroke:#000000;stroke-width:0.6;stroke-linecap:round;stroke-opacity:1;stroke-miterlimit:4;stroke-dasharray:none"
       id="use2839" />
    <path
       d="m 6.09162,204.483 h 5.78398 c 0.4916,0 0.8873,0.211 0.8873,0.473 v 5.008 c 0,0.263 -0.3957,0.474 -0.8873,0.474 H 6.09162 c -0.49157,0 -0.88731,-0.211 -0.88731,-0.474 v -5.008 c 0,-0.262 0.39574,-0.473 0.88731,-0.473 z"
       style="fill:#ff0000;stroke:#000000;stroke-width:0.6;stroke-linecap:round;stroke-miterlimit:4;stroke-dasharray:none;stroke-opacity:1"
       id="use2844" />
    <path
       d="m 137.992,194.382 h 5.784 c 0.491,0 0.887,0.211 0.887,0.473 v 5.008 c 0,0.263 -0.396,0.474 -0.887,0.474 h -5.784 c -0.492,0 -0.888,-0.211 -0.888,-0.474 v -5.008 c 0,-0.262 0.396,-0.473 0.888,-0.473 z"
       style="fill:#ff0000;stroke:#000000;stroke-width:0.6;stroke-linecap:round;stroke-miterlimit:4;stroke-dasharray:none;stroke-opacity:1"
       id="use2846" />
    <path
       d="m 137.592,204.483 h 5.784 c 0.491,0 0.887,0.211 0.887,0.473 v 5.008 c 0,0.263 -0.396,0.474 -0.887,0.474 h -5.784 c -0.492,0 -0.888,-0.211 -0.888,-0.474 v -5.008 c 0,-0.262 0.396,-0.473 0.888,-0.473 z"
       style="fill:#ff0000;stroke:#000000;stroke-width:0.6;stroke-linecap:round;stroke-miterlimit:4;stroke-dasharray:none;stroke-opacity:1"
       id="use2848" />
  </g>
</svg>
