<?xml version="1.0" encoding="UTF-8" standalone="no"?>
<!-- Created with Inkscape (http://www.inkscape.org/) -->
<svg xmlns:dc="http://purl.org/dc/elements/1.1/" xmlns:cc="http://creativecommons.org/ns#" xmlns:rdf="http://www.w3.org/1999/02/22-rdf-syntax-ns#" xmlns:svg="http://www.w3.org/2000/svg" xmlns="http://www.w3.org/2000/svg" xmlns:sodipodi="http://sodipodi.sourceforge.net/DTD/sodipodi-0.dtd" xmlns:inkscape="http://www.inkscape.org/namespaces/inkscape" width="451.47229" height="342.03531" id="svg2" sodipodi:version="0.32" inkscape:version="0.48.2 r9819" version="1.0" sodipodi:docname="king-of-arms.svg" inkscape:output_extension="org.inkscape.output.svg.inkscape">
  <defs id="defs4">
    <inkscape:perspective sodipodi:type="inkscape:persp3d" inkscape:vp_x="0 : 526.18109 : 1" inkscape:vp_y="0 : 1000 : 0" inkscape:vp_z="744.09448 : 526.18109 : 1" inkscape:persp3d-origin="372.04724 : 350.78739 : 1" id="perspective10"/>
  </defs>
  <sodipodi:namedview id="base" pagecolor="#ffffff" bordercolor="#666666" borderopacity="1.0" gridtolerance="10000" guidetolerance="10" objecttolerance="10" inkscape:pageopacity="0.0" inkscape:pageshadow="2" inkscape:zoom="1.4142136" inkscape:cx="69.651103" inkscape:cy="197.63093" inkscape:document-units="px" inkscape:current-layer="body" showgrid="false" inkscape:window-width="888" inkscape:window-height="948" inkscape:window-x="780" inkscape:window-y="9" inkscape:window-maximized="0" inkscape:snap-global="false" showguides="true" inkscape:guide-bbox="true" fit-margin-top="0" fit-margin-left="0" fit-margin-right="0" fit-margin-bottom="0">
    <sodipodi:guide orientation="0,1" position="8.2074423,0.52104" id="guide3145"/>
  </sodipodi:namedview>
  <metadata id="metadata7">
    <rdf:RDF>
      <cc:Work rdf:about="">
        <dc:format>image/svg+xml</dc:format>
        <dc:type rdf:resource="http://purl.org/dc/dcmitype/StillImage"/>
        <dc:title/>
      </cc:Work>
    </rdf:RDF>
  </metadata>
  <g inkscape:label="Layer 1" inkscape:groupmode="layer" id="layer1">
    <g id="body">
      <path sodipodi:nodetypes="ccccccccc" inkscape:connector-curvature="0" d="M45.85,294.2   C8.452,283.2 44.75,270.2 32.95,243.6 22.55,203.8 8.452,230.8 6.052,198 37.75,169.8 150.8,173.3 222.8,169.8   c71,3.49 184,0 216,28.11 -2,32.8 -16,5.8 -27,45.6 -12,26.6 25,39.6 -13,50.6 -28,9 -176,10 -176,10 0,0 -149,-1 -176.9,-10   z " style="fill:#ffff00;stroke:#000000;stroke-width:4;stroke-miterlimit:4;stroke-opacity:1;stroke-dasharray:none" id="path3764"/>
      <path sodipodi:nodetypes="cc" inkscape:connector-curvature="0" id="path3767" d="m20.35,219.3   c88.1,-44.5 305.7,-38.6 411.7,-4.7   " style="fill:none;stroke:#000000;stroke-width:4;stroke-miterlimit:4;stroke-opacity:1;stroke-dasharray:none"/>
      <path sodipodi:nodetypes="cc" inkscape:connector-curvature="0" id="path3769" d="M32.03,261.7   C152.3,232.4 248.1,230.4 414.1,268.2   " style="fill:none;stroke:#000000;stroke-width:4;stroke-miterlimit:4;stroke-opacity:1;stroke-dasharray:none"/>
      <path sodipodi:nodetypes="ccccc" inkscape:connector-curvature="0" id="path3773" d="M26.85,228.1   C134.8,168.3 347.8,200 423.8,222.2   l9,-8.2   C404.8,201.1 148.8,149.6 17.45,221.1   z " style="opacity:0.5;fill:#333333;fill-opacity:1;fill-rule:evenodd;stroke:none"/>
      <path style="fill:#ffffff;fill-opacity:1;stroke:#000000" d="m30.08,280.5   c-12.21,8.397 -3.053,40.46 -3.053,40.46 -9.924,24.43 377.9,21.37 389.3,10.69 11.45,-10.69 9.924,-29.01 -3.053,-44.27   C209.1,242 30.08,280.5 30.08,280.5   z " id="path3101" inkscape:connector-curvature="0" sodipodi:nodetypes="ccscc"/>
      <path sodipodi:nodetypes="ccccccc" inkscape:connector-curvature="0" id="path3771" d="m27.71,323.3   c24.49,-30.25 385.3,-14.03 392.2,2 0,0 -5.695,23.37 -139.6,13.21 -31,-6 52.18,-6.55 29.18,-17.55 -87.05,-0.6962 -87.55,4.037 -159.1,4.527 -23,13 73.23,5.55 54.23,16.55   C23.21,336.3 27.71,323.3 27.71,323.3   z " style="opacity:0.5;fill:#333333;fill-opacity:1;stroke:none"/>
      <path style="fill:#666666;fill-opacity:1;stroke:none" d="m76.02,279.1   c-23.05,2.425 -10.84,6.09 -27.95,15.2 18.98,-5.646 10.41,5.069 31.62,-6.903 -2.969,-0.9099 -5.213,-1.425 -0.9581,-4.761 -7.947,1.46 -4.033,-1.431 -2.707,-3.532   z " id="path3103" inkscape:connector-curvature="0" sodipodi:nodetypes="ccccc"/>
      <path sodipodi:nodetypes="ccccc" inkscape:connector-curvature="0" id="path3105" d="m133.1,287.2   c-23.17,0.3472 -11.35,5.092 -29.2,12.63 19.41,-3.921 9.91,5.982 32.11,-4.039 -2.875,-1.173 -5.064,-1.887 -0.527,-4.828 -8.046,0.741 -3.888,-1.787 -2.379,-3.76   z " style="fill:#666666;fill-opacity:1;stroke:none"/>
      <path style="fill:#666666;fill-opacity:1;stroke:none" d="m188.2,274.3   c-22.72,-4.577 -12.17,2.569 -31.22,6.145 19.8,0.2852 8.415,7.948 32.23,2.865 -2.561,-1.756 -4.548,-2.918 0.5092,-4.83 -8.02,-0.9827 -3.421,-2.571 -1.527,-4.179   z " id="path3107" inkscape:connector-curvature="0" sodipodi:nodetypes="ccccc"/>
      <path sodipodi:nodetypes="ccccc" inkscape:connector-curvature="0" id="path3109" d="m227,292.9   c-22.72,-4.577 -12.17,2.569 -31.22,6.145 19.8,0.2852 8.415,7.948 32.23,2.865 -2.561,-1.756 -4.548,-2.918 0.5092,-4.83 -8.02,-0.9827 -3.421,-2.571 -1.527,-4.179   z " style="fill:#666666;fill-opacity:1;stroke:none"/>
      <path style="fill:#666666;fill-opacity:1;stroke:none" d="m265.3,274.3   c-22.72,-4.577 -12.17,2.569 -31.22,6.145 19.8,0.2852 8.415,7.948 32.23,2.865 -2.561,-1.756 -4.548,-2.918 0.5092,-4.83 -8.02,-0.9827 -3.421,-2.571 -1.527,-4.179   z " id="path3111" inkscape:connector-curvature="0" sodipodi:nodetypes="ccccc"/>
      <path sodipodi:nodetypes="ccccc" inkscape:connector-curvature="0" id="path3113" d="m303.6,291.9   c-22.72,-4.577 -12.17,2.569 -31.22,6.145 19.8,0.2852 8.415,7.948 32.23,2.865 -2.561,-1.756 -4.548,-2.918 0.5092,-4.83 -8.02,-0.9827 -3.421,-2.571 -1.527,-4.179   z " style="fill:#666666;fill-opacity:1;stroke:none"/>
      <path style="fill:#666666;fill-opacity:1;stroke:none" d="m351,279.1   c-22.72,-4.577 -12.17,2.569 -31.22,6.145 19.8,0.2852 8.415,7.948 32.23,2.865 -2.561,-1.756 -4.548,-2.918 0.5092,-4.83 -8.02,-0.9827 -3.421,-2.571 -1.527,-4.179   z " id="path3115" inkscape:connector-curvature="0" sodipodi:nodetypes="ccccc"/>
      <path sodipodi:nodetypes="ccccc" inkscape:connector-curvature="0" id="path3117" d="m381.8,299.3   c-21.85,-7.741 -12.41,0.8241 -31.77,1.672 19.56,3.079 7.207,9.058 31.51,7.391 -2.287,-2.1 -4.09,-3.532 1.187,-4.71 -7.801,-2.106 -3.023,-3.029 -0.9212,-4.353   z " style="fill:#666666;fill-opacity:1;stroke:none"/>
      <path style="fill:#800000;fill-opacity:1;stroke:#000000;stroke-width:4;stroke-opacity:1" d="M26.38,187.1   C-2.956,128.4 -1.451,123.1 8.328,109.6 18.11,96.03 69.26,47.13 87.31,65.19   c18.05,18.05 92.5,5.134 75.22,-10.53 -22.74,-20.63 14.59,-21.3 11.28,-26.33   l-17.3,-26.33 58.67,1.504 -8.275,26.33   c0,0 29.34,3.009 18.81,18.81 -11.54,17.31 70.7,-6.148 103.8,27.83 28.59,29.34 82.75,20.31 109.8,36.11 14.53,8.475 9.135,83.39 -21.06,76.73   C258.1,154 67.75,175.8 26.38,187.1   z " id="path3119" inkscape:connector-curvature="0" sodipodi:nodetypes="csssscccssssc"/>
      <path style="opacity:0.5;fill:#1a1a1a;fill-opacity:1;stroke:none" d="M84.3,69.7   C60.98,155.5 69.53,104.7 60.98,165.2   c-4.355,30.84 35.36,2.257 36.86,-39.12 1.504,-41.37 -13.54,-56.42 -13.54,-56.42   z " id="path3121" inkscape:connector-curvature="0" sodipodi:nodetypes="cssc"/>
      <path sodipodi:nodetypes="cssc" inkscape:connector-curvature="0" id="path3123" d="m313.7,64.44   c-23.32,85.76 -35.84,30.5 -44.38,91.02 -4.355,30.84 67.7,5.266 69.21,-36.11 1.504,-41.37 -24.82,-54.91 -24.82,-54.91   z " style="opacity:0.5;fill:#1a1a1a;fill-opacity:1;stroke:none"/>
      <path style="opacity:0.5;fill:#1a1a1a;fill-opacity:1;stroke:none" d="m413.8,107.3   c-23.32,85.76 -41.1,-4.101 -49.65,56.42 -4.355,30.84 100.8,45.13 81.24,-26.33 4.868,-30.15 -31.59,-30.09 -31.59,-30.09   z " id="path3125" inkscape:connector-curvature="0" sodipodi:nodetypes="cscc"/>
      <path style="opacity:0.5;fill:#1a1a1a;fill-opacity:1;stroke:none" d="m236.3,59.17   c-23.32,85.76 -53.14,36.52 -61.68,97.04 -4.355,30.84 57.51,19.22 82.75,-45.89 14.96,-38.6 -21.06,-51.15 -21.06,-51.15   z " id="path3127" inkscape:connector-curvature="0" sodipodi:nodetypes="cssc"/>
      <path style="fill:none;stroke:#000000;stroke-width:4;stroke-opacity:1" d="m206.9,29.08 -32.35,1.504   c32.35,-1.504 34.6,2.257 34.6,2.257   " id="path3129" inkscape:connector-curvature="0"/>
      <path style="fill:none;stroke:#000000;stroke-width:4;stroke-opacity:1" d="m165.5,56.91   c22.57,15.04 57.17,-3.009 57.17,-3.009   " id="path3131" inkscape:connector-curvature="0" sodipodi:nodetypes="cc"/>
      <path style="fill:none;stroke:#000000;stroke-width:4;stroke-opacity:1" d="m167.8,6.513 12.04,21.06   " id="path3133" inkscape:connector-curvature="0"/>
      <path style="fill:none;stroke:#000000;stroke-width:4;stroke-opacity:1" d="m181.3,6.513 5.266,16.55   " id="path3135" inkscape:connector-curvature="0"/>
      <path style="fill:none;stroke:#000000;stroke-width:4;stroke-opacity:1" d="m191.1,8.018 0.7522,12.04   " id="path3137" inkscape:connector-curvature="0"/>
      <path style="fill:none;stroke:#000000;stroke-width:4;stroke-opacity:1" d="m202.4,8.018 -4.513,15.04   " id="path3139" inkscape:connector-curvature="0"/>
      <path style="fill:none;stroke:#000000;stroke-width:3;stroke-opacity:1" d="m152.5,71.4 10.61,12.02 9.192,9.192 14.85,2.121 14.85,-1.414 10.61,4.243 13.44,-8.485 4.95,-15.56 5.657,-9.192 0,-7.071   " id="path3068" inkscape:connector-curvature="0" sodipodi:nodetypes="cccccccccc"/>
      <path inkscape:connector-curvature="0" style="font-size:40px;font-style:normal;font-weight:normal;line-height:125%;letter-spacing:0px;word-spacing:0px;fill:#000000;fill-opacity:1;stroke:none;font-family:Sans" id="path3078" d="m51.91,246 -4.572,-20.23 3.067,-0.6932 0.6415,2.839   c0.4111,-1.134 1.076,-2.122 1.993,-2.963 0.9178,-0.8415 2.05,-1.414 3.396,-1.719 1.499,-0.3387 2.798,-0.3052 3.897,0.1004 1.1,0.4056 1.972,1.123 2.619,2.151 1.066,-2.724 2.882,-4.376 5.448,-4.956 2.007,-0.4535 3.675,-0.2466 5.006,0.6207 1.331,0.8673 2.257,2.457 2.78,4.768   l3.139,13.89 -3.41,0.7707 -2.88,-12.74   c-0.31,-1.372 -0.6443,-2.334 -1.003,-2.887 -0.3586,-0.553 -0.8717,-0.9477 -1.539,-1.184 -0.6675,-0.2363 -1.395,-0.2654 -2.182,-0.0875 -1.422,0.3215 -2.497,1.062 -3.223,2.22 -0.726,1.159 -0.8537,2.779 -0.3829,4.862   l2.656,11.75 -3.429,0.775 -2.971,-13.15   c-0.3444,-1.524 -0.8822,-2.604 -1.613,-3.24 -0.7311,-0.6357 -1.732,-0.8101 -3.002,-0.5231 -0.9652,0.2182 -1.8,0.6738 -2.504,1.367 -0.7044,0.6932 -1.13,1.57 -1.278,2.632 -0.1473,1.061 -0.01286,2.513 0.4033,4.354   l2.372,10.5   z "/>
      <path inkscape:connector-curvature="0" style="font-size:40px;font-style:normal;font-weight:normal;line-height:125%;letter-spacing:0px;word-spacing:0px;fill:#000000;fill-opacity:1;stroke:none;font-family:Sans" id="path3080" d="m79.64,214.7 -0.7997,-3.963 3.446,-0.6954 0.7997,3.963   z m4.864,24.1 -4.103,-20.33 3.446,-0.6954 4.103,20.33   z "/>
      <path inkscape:connector-curvature="0" style="font-size:40px;font-style:normal;font-weight:normal;line-height:125%;letter-spacing:0px;word-spacing:0px;fill:#000000;fill-opacity:1;stroke:none;font-family:Sans" id="path3082" d="m90.72,231.2 3.321,-1.164   c0.443,1.335 1.17,2.288 2.181,2.857 1.011,0.5695 2.304,0.71 3.88,0.4217 1.588,-0.2907 2.707,-0.8298 3.357,-1.617 0.6501,-0.7875 0.8954,-1.617 0.736,-2.488 -0.143,-0.7813 -0.595,-1.334 -1.356,-1.658 -0.5302,-0.2206 -1.78,-0.3956 -3.75,-0.5249 -2.653,-0.1762 -4.513,-0.4084 -5.578,-0.6965 -1.065,-0.2881 -1.927,-0.799 -2.584,-1.532 -0.6571,-0.7335 -1.077,-1.6 -1.26,-2.599 -0.1664,-0.9093 -0.1125,-1.79 0.162,-2.641 0.2744,-0.8511 0.7234,-1.598 1.347,-2.242 0.4653,-0.4955 1.137,-0.9659 2.015,-1.411 0.8782,-0.4453 1.849,-0.7653 2.912,-0.9599 1.601,-0.293 3.049,-0.3198 4.344,-0.0803 1.295,0.2396 2.302,0.7004 3.023,1.383 0.7205,0.6822 1.31,1.663 1.77,2.942   l-3.297,1.08   c-0.3459,-1.022 -0.9411,-1.76 -1.785,-2.215 -0.8443,-0.4543 -1.939,-0.5585 -3.284,-0.3123 -1.588,0.2907 -2.674,0.7608 -3.256,1.41 -0.5827,0.6494 -0.8096,1.326 -0.6806,2.031 0.082,0.4483 0.2968,0.826 0.6442,1.133 0.3498,0.3199 0.8479,0.5464 1.494,0.6795 0.3693,0.0648 1.441,0.173 3.216,0.3246 2.566,0.2054 4.37,0.4278 5.414,0.667 1.043,0.2393 1.913,0.7056 2.609,1.399 0.6961,0.6933 1.152,1.629 1.368,2.807 0.211,1.153 0.0735,2.3 -0.4126,3.441 -0.4861,1.141 -1.312,2.107 -2.478,2.896 -1.166,0.7893 -2.55,1.33 -4.151,1.623 -2.651,0.4853 -4.773,0.3044 -6.364,-0.5427 -1.591,-0.8471 -2.777,-2.318 -3.558,-4.412   z "/>
      <path inkscape:connector-curvature="0" style="font-size:40px;font-style:normal;font-weight:normal;line-height:125%;letter-spacing:0px;word-spacing:0px;fill:#000000;fill-opacity:1;stroke:none;font-family:Sans" id="path3084" d="m125.9,224.7 3.659,-0.1064   c-0.2447,2.185 -1.044,3.974 -2.398,5.367 -1.354,1.393 -3.222,2.272 -5.603,2.637 -2.999,0.4597 -5.518,-0.0992 -7.558,-1.677 -2.04,-1.578 -3.315,-4.033 -3.826,-7.367 -0.5288,-3.449 -0.0511,-6.262 1.433,-8.44 1.484,-2.177 3.642,-3.483 6.473,-3.917 2.741,-0.4202 5.124,0.1696 7.148,1.769 2.024,1.6 3.295,4.092 3.814,7.477 0.0316,0.2059 0.0725,0.5158 0.1227,0.9296   l-15.29,2.344   c0.474,2.233 1.375,3.86 2.704,4.881 1.329,1.021 2.849,1.401 4.561,1.138 1.274,-0.1953 2.31,-0.6967 3.109,-1.504 0.7983,-0.8074 1.349,-1.985 1.652,-3.533   z m-12.27,-3.869 11.45,-1.755   c-0.4188,-1.701 -1.055,-2.927 -1.908,-3.679 -1.312,-1.169 -2.85,-1.618 -4.613,-1.348 -1.596,0.2447 -2.856,0.9845 -3.78,2.219 -0.9238,1.235 -1.306,2.756 -1.148,4.563   z "/>
      <path inkscape:connector-curvature="0" style="font-size:40px;font-style:normal;font-weight:normal;line-height:125%;letter-spacing:0px;word-spacing:0px;fill:#000000;fill-opacity:1;stroke:none;font-family:Sans" id="path3086" d="m134.9,230.3 -2.602,-20.58 3.139,-0.3969 0.3944,3.12   c0.6163,-1.561 1.234,-2.617 1.854,-3.168 0.6194,-0.5508 1.336,-0.8776 2.15,-0.9805 1.176,-0.1486 2.418,0.0749 3.727,0.6706   l-0.7922,3.388   c-0.9163,-0.396 -1.801,-0.5401 -2.653,-0.4323 -0.7622,0.0964 -1.418,0.4122 -1.967,0.9476 -0.5492,0.5354 -0.9015,1.226 -1.057,2.073 -0.2308,1.289 -0.253,2.67 -0.0668,4.143   l1.362,10.77   z "/>
      <path inkscape:connector-curvature="0" style="font-size:40px;font-style:normal;font-weight:normal;line-height:125%;letter-spacing:0px;word-spacing:0px;fill:#000000;fill-opacity:1;stroke:none;font-family:Sans" id="path3088" d="m161.7,220.5 3.659,0.092   c-0.3628,2.168 -1.258,3.911 -2.685,5.229 -1.428,1.318 -3.34,2.094 -5.737,2.33 -3.019,0.2965 -5.505,-0.3981 -7.456,-2.084 -1.951,-1.686 -3.092,-4.207 -3.422,-7.563 -0.3411,-3.473 0.2883,-6.256 1.888,-8.35 1.6,-2.093 3.825,-3.28 6.676,-3.56 2.76,-0.2711 5.107,0.447 7.041,2.154 1.934,1.707 3.068,4.265 3.403,7.673 0.0203,0.2073 0.0444,0.519 0.0722,0.9349   l-15.39,1.512   c0.3523,2.255 1.164,3.928 2.436,5.02 1.272,1.092 2.769,1.553 4.493,1.384 1.283,-0.126 2.345,-0.5705 3.186,-1.333 0.8409,-0.7629 1.454,-1.909 1.841,-3.439   z m-12.04,-4.528 11.53,-1.132   c-0.3261,-1.721 -0.8946,-2.98 -1.705,-3.777 -1.247,-1.238 -2.758,-1.77 -4.533,-1.596 -1.607,0.1578 -2.905,0.8283 -3.894,2.011 -0.9894,1.183 -1.454,2.681 -1.394,4.494   z "/>
      <path inkscape:connector-curvature="0" style="font-size:40px;font-style:normal;font-weight:normal;line-height:125%;letter-spacing:0px;word-spacing:0px;fill:#000000;fill-opacity:1;stroke:none;font-family:Sans" id="path3090" d="m170.3,226.5 -1.435,-20.69 3.156,-0.2188 0.2175,3.137   c0.7036,-1.524 1.38,-2.543 2.03,-3.058 0.6495,-0.5149 1.383,-0.8007 2.202,-0.8575 1.182,-0.0819 2.41,0.2114 3.683,0.8802   l-0.9824,3.338   c-0.8924,-0.4471 -1.767,-0.641 -2.625,-0.5816 -0.7664,0.0531 -1.439,0.3315 -2.017,0.8349 -0.5786,0.5035 -0.9694,1.173 -1.172,2.01 -0.3032,1.274 -0.4035,2.651 -0.3008,4.132   l0.7511,10.83   z "/>
      <path inkscape:connector-curvature="0" style="font-size:40px;font-style:normal;font-weight:normal;line-height:125%;letter-spacing:0px;word-spacing:0px;fill:#000000;fill-opacity:1;stroke:none;font-family:Sans" id="path3092" d="m197.6,218.4 3.648,0.3028   c-0.4871,2.144 -1.481,3.832 -2.982,5.065 -1.501,1.233 -3.455,1.898 -5.862,1.995 -3.031,0.122 -5.473,-0.7148 -7.324,-2.51 -1.851,-1.796 -2.844,-4.378 -2.98,-7.748 -0.1403,-3.487 0.6485,-6.229 2.366,-8.227 1.718,-1.998 4.008,-3.054 6.87,-3.169 2.771,-0.1115 5.073,0.7407 6.905,2.556 1.832,1.816 2.817,4.435 2.955,7.856 0.008,0.2082 0.0144,0.5207 0.0182,0.9375   l-15.46,0.622   c0.2217,2.272 0.9359,3.989 2.143,5.152 1.207,1.163 2.675,1.71 4.405,1.641 1.288,-0.0518 2.374,-0.4343 3.257,-1.148 0.8835,-0.7132 1.562,-1.822 2.036,-3.327   z m-11.76,-5.215 11.57,-0.4657   c-0.2263,-1.737 -0.7213,-3.027 -1.485,-3.869 -1.173,-1.308 -2.651,-1.926 -4.434,-1.854 -1.613,0.0649 -2.948,0.6594 -4.004,1.784 -1.056,1.124 -1.606,2.593 -1.65,4.406   z "/>
      <path inkscape:connector-curvature="0" style="font-size:40px;font-style:normal;font-weight:normal;line-height:125%;letter-spacing:0px;word-spacing:0px;fill:#000000;fill-opacity:1;stroke:none;font-family:Sans" id="path3094" d="m223,226.6 0.443,-20.74 3.144,0.0672 -0.0622,2.909   c0.6726,-1.001 1.556,-1.8 2.649,-2.395 1.094,-0.5952 2.33,-0.8781 3.71,-0.8487 1.536,0.0328 2.789,0.3787 3.758,1.038 0.9692,0.6589 1.643,1.565 2.022,2.72 1.692,-2.386 3.853,-3.551 6.482,-3.495 2.057,0.044 3.626,0.6473 4.709,1.81 1.082,1.163 1.598,2.929 1.547,5.298   l-0.3041,14.24 -3.495,-0.0747 0.2791,-13.06   c0.03,-1.406 -0.0623,-2.42 -0.2768,-3.044 -0.2146,-0.6232 -0.6173,-1.13 -1.208,-1.52 -0.5908,-0.3903 -1.29,-0.5941 -2.097,-0.6113 -1.458,-0.0311 -2.679,0.4279 -3.663,1.377 -0.9841,0.9493 -1.499,2.491 -1.544,4.626   l-0.2574,12.05 -3.515,-0.0751 0.2878,-13.47   c0.0334,-1.562 -0.228,-2.74 -0.7841,-3.533 -0.5561,-0.7933 -1.485,-1.204 -2.787,-1.232 -0.9894,-0.0211 -1.909,0.2197 -2.76,0.7225 -0.8508,0.5028 -1.476,1.251 -1.875,2.246 -0.3989,0.9943 -0.6186,2.435 -0.6589,4.323   l-0.2298,10.76   z "/>
      <path inkscape:connector-curvature="0" style="font-size:40px;font-style:normal;font-weight:normal;line-height:125%;letter-spacing:0px;word-spacing:0px;fill:#000000;fill-opacity:1;stroke:none;font-family:Sans" id="path3096" d="m271,221.8 3.598,0.6739   c-0.7036,2.083 -1.865,3.661 -3.484,4.734 -1.619,1.073 -3.631,1.535 -6.035,1.386 -3.028,-0.1884 -5.371,-1.27 -7.029,-3.245 -1.658,-1.975 -2.382,-4.646 -2.173,-8.012 0.2167,-3.483 1.282,-6.13 3.195,-7.942 1.913,-1.812 4.299,-2.629 7.158,-2.451 2.768,0.1722 4.971,1.255 6.608,3.249 1.637,1.994 2.349,4.699 2.137,8.117 -0.013,0.2079 -0.0389,0.5194 -0.0777,0.9345   l-15.44,-0.9605   c-0.0115,2.282 0.5234,4.064 1.605,5.344 1.081,1.281 2.486,1.975 4.215,2.082 1.287,0.08 2.406,-0.1895 3.357,-0.8087 0.9517,-0.6192 1.74,-1.653 2.365,-3.101   z m-11.17,-6.389 11.56,0.7191   c-0.0476,-1.751 -0.4082,-3.085 -1.082,-4.001 -1.034,-1.421 -2.441,-2.187 -4.221,-2.298 -1.611,-0.1002 -3,0.3548 -4.165,1.365 -1.165,1.01 -1.863,2.415 -2.092,4.214   z "/>
      <path inkscape:connector-curvature="0" style="font-size:40px;font-style:normal;font-weight:normal;line-height:125%;letter-spacing:0px;word-spacing:0px;fill:#000000;fill-opacity:1;stroke:none;font-family:Sans" id="path3098" d="m280.7,204.6 0.3363,-4.029 3.503,0.2924 -0.3363,4.029   z m-2.045,24.5 1.725,-20.67 3.503,0.2924 -1.725,20.67   z "/>
      <path inkscape:connector-curvature="0" style="font-size:40px;font-style:normal;font-weight:normal;line-height:125%;letter-spacing:0px;word-spacing:0px;fill:#000000;fill-opacity:1;stroke:none;font-family:Sans" id="path3100" d="m309,232.9 3.42,-28.43 9.793,1.178   c2.211,0.2659 3.881,0.6046 5.012,1.016 1.584,0.5709 2.892,1.417 3.924,2.538 1.347,1.447 2.274,3.201 2.78,5.262 0.5062,2.061 0.6069,4.358 0.3021,6.892 -0.2597,2.159 -0.742,4.042 -1.447,5.649 -0.7048,1.607 -1.517,2.909 -2.437,3.907 -0.92,0.9975 -1.886,1.753 -2.899,2.268 -1.013,0.5142 -2.201,0.8533 -3.565,1.017 -1.364,0.1638 -2.906,0.1423 -4.625,-0.0645   z m4.165,-2.902 6.07,0.7301   c1.875,0.2255 3.366,0.2278 4.475,0.007 1.109,-0.2208 2.018,-0.6098 2.727,-1.167 0.9993,-0.7847 1.838,-1.9 2.517,-3.346 0.6788,-1.446 1.147,-3.242 1.406,-5.388 0.3576,-2.973 0.1445,-5.317 -0.6395,-7.031 -0.784,-1.714 -1.841,-2.926 -3.172,-3.637 -0.9617,-0.5091 -2.561,-0.8982 -4.797,-1.167   l-5.973,-0.7184   z "/>
      <path inkscape:connector-curvature="0" style="font-size:40px;font-style:normal;font-weight:normal;line-height:125%;letter-spacing:0px;word-spacing:0px;fill:#000000;fill-opacity:1;stroke:none;font-family:Sans" id="path3102" d="m352.2,231.9 3.528,0.9762   c-0.8775,2.016 -2.168,3.49 -3.873,4.422 -1.704,0.9324 -3.748,1.222 -6.131,0.8696 -3.001,-0.4441 -5.244,-1.721 -6.729,-3.829 -1.485,-2.109 -1.98,-4.831 -1.486,-8.167 0.5109,-3.452 1.796,-6 3.856,-7.643 2.06,-1.643 4.506,-2.255 7.34,-1.836 2.744,0.406 4.847,1.672 6.309,3.797 1.462,2.125 1.943,4.881 1.442,8.269 -0.0305,0.2061 -0.0827,0.5143 -0.1566,0.9245   l-15.3,-2.265   c-0.2048,2.273 0.1774,4.094 1.146,5.461 0.9691,1.368 2.31,2.178 4.023,2.432 1.275,0.1887 2.413,0.0149 3.414,-0.5214 1.001,-0.5363 1.874,-1.5 2.619,-2.89   z m-10.59,-7.312 11.46,1.696   c0.1008,-1.749 -0.1455,-3.108 -0.7391,-4.078 -0.9095,-1.503 -2.247,-2.386 -4.011,-2.647 -1.597,-0.2364 -3.019,0.0995 -4.266,1.007 -1.247,0.908 -2.06,2.249 -2.441,4.022   z "/>
      <path inkscape:connector-curvature="0" style="font-size:40px;font-style:normal;font-weight:normal;line-height:125%;letter-spacing:0px;word-spacing:0px;fill:#000000;fill-opacity:1;stroke:none;font-family:Sans" id="path3104" d="m372.6,242.1 0.5083,-3.004   c-1.983,2.042 -4.342,2.831 -7.076,2.368 -1.207,-0.2042 -2.294,-0.6259 -3.262,-1.265 -0.9681,-0.6392 -1.647,-1.352 -2.035,-2.137 -0.3887,-0.7855 -0.6,-1.703 -0.6338,-2.752 -0.0261,-0.7043 0.0858,-1.795 0.3356,-3.271   l2.144,-12.67 3.466,0.5865 -1.919,11.34   c-0.3063,1.81 -0.442,3.042 -0.4073,3.695 0.064,0.9485 0.4051,1.742 1.023,2.382 0.6181,0.6394 1.447,1.047 2.487,1.223 1.04,0.1759 2.061,0.0746 3.062,-0.3039 1.002,-0.3786 1.77,-0.9948 2.304,-1.849 0.534,-0.8538 0.9488,-2.154 1.244,-3.9   l1.854,-10.96 3.466,0.5865 -3.46,20.45   z "/>
      <path inkscape:connector-curvature="0" style="font-size:40px;font-style:normal;font-weight:normal;line-height:125%;letter-spacing:0px;word-spacing:0px;fill:#000000;fill-opacity:1;stroke:none;font-family:Sans" id="path3106" d="m380.9,237.2 3.518,0.1018   c-0.0642,1.405 0.2738,2.555 1.014,3.448 0.7402,0.8935 1.897,1.488 3.472,1.782 1.587,0.2969 2.825,0.194 3.714,-0.3086 0.8888,-0.5027 1.415,-1.189 1.577,-2.059 0.1461,-0.7807 -0.0782,-1.459 -0.6727,-2.033 -0.4161,-0.3958 -1.521,-1.006 -3.313,-1.832 -2.414,-1.114 -4.068,-1.996 -4.959,-2.647 -0.8917,-0.6503 -1.513,-1.436 -1.864,-2.356 -0.3511,-0.9201 -0.4333,-1.879 -0.2465,-2.878 0.17,-0.9087 0.5354,-1.711 1.096,-2.408 0.5608,-0.6965 1.247,-1.234 2.06,-1.612 0.6118,-0.2962 1.407,-0.4951 2.387,-0.5967 0.9794,-0.1016 2,-0.053 3.063,0.1457 1.6,0.2993 2.961,0.7925 4.085,1.48 1.123,0.6871 1.899,1.478 2.328,2.373 0.4287,0.8949 0.6285,2.022 0.5995,3.381   l-3.465,-0.1714   c0.0428,-1.078 -0.2488,-1.981 -0.8745,-2.707 -0.6258,-0.7264 -1.611,-1.215 -2.954,-1.467 -1.587,-0.2969 -2.769,-0.2464 -3.545,0.1514 -0.7765,0.3979 -1.231,0.9487 -1.362,1.653 -0.0838,0.448 -0.0185,0.8775 0.1961,1.288 0.2121,0.4239 0.5962,0.8136 1.152,1.169 0.3216,0.1926 1.284,0.6774 2.887,1.454 2.322,1.11 3.928,1.964 4.816,2.56 0.8885,0.5968 1.534,1.343 1.936,2.24 0.4019,0.8965 0.4927,1.933 0.2724,3.111 -0.2155,1.152 -0.7544,2.174 -1.617,3.066 -0.8623,0.8918 -1.979,1.498 -3.35,1.817 -1.371,0.3197 -2.857,0.3299 -4.457,0.0306 -2.649,-0.4957 -4.565,-1.424 -5.748,-2.784 -1.183,-1.36 -1.764,-3.158 -1.743,-5.393   z "/>
      <path style="fill:#ffff00;stroke:#000000;stroke-width:3;stroke-linecap:butt;stroke-linejoin:miter;stroke-opacity:1" d="m208.7,169.7   c-4.427,-4.593 -11.59,-6.347 -14.35,-12.54 -2.881,-4.942 4.609,-6.655 7.719,-4.084 1.334,0.8921 4.206,1.067 1.989,-1.036 -3.169,-3.786 -9.18,-3.495 -11.87,-7.964 -4.247,-3.183 -1.175,-9.199 3.817,-8.144 3.429,0.6979 6.57,2.673 9.171,4.957 -3.976,-4.466 -9.818,-7.947 -11.12,-14.2 -1.226,-4.035 3.399,-6.738 5.859,-3.129 0.9625,1.452 6.454,4.443 2.688,1.618 -3.362,-2.404 -5.754,-7.18 -3.41,-11.07 1.82,-3.326 6.445,-5.709 9.904,-3.381 -2.387,-3.059 -4.717,-6.741 -4.043,-10.85 0.2337,-3.983 5.363,-4.911 6.376,-0.8203 1.638,2.948 3.229,0.0506 2.225,-2.074 -0.2857,-3.917 -0.1004,-8.837 3.442,-11.28 4.681,-2.242 8.767,3.586 7.278,7.873 -1.049,2.815 -2.486,9.944 2.591,6.467 2.081,-2.299 6.984,-1.732 5.101,2.173 -1.104,3.651 -4.564,5.677 -7.757,7.217 -3.262,3.405 2.88,-1.294 4.342,1.023 4.209,2.071 1.762,6.459 -1.611,7.589 -1.753,0.5422 -5.586,4.98 -1.283,3.266 2.855,-1.007 6.419,-3.843 9.215,-1.303 1.429,2.183 0.5833,5.216 -0.524,7.403 -1.248,2.612 -3.987,3.735 -6.528,4.648 -1.356,0.3868 -5.272,3.855 -3.792,3.425 2.982,-2.548 7.208,-5.471 11.2,-3.323 4.337,2.533 3.807,9.078 -0.3698,11.52 -2.857,2.929 -6.704,4.662 -10.75,5.004 -1.794,0.1231 -3.302,1.884 -0.3931,1.462 3.6,1.876 8.322,1.956 10.98,5.374 0.527,5.332 -6.024,5.171 -9.525,6.064 -2.537,3.044 -1.622,9.258 -7.299,8.865 -3.195,1.067 -6.304,0.8122 -9.273,-0.7499   z " id="path3048" inkscape:connector-curvature="0"/>
      <path style="fill:none;stroke:#4d4d4d;stroke-width:2" d="m217.3,100.8   c0.5,2 -5,35 -5,35   l1.5,32   " id="path3054" inkscape:connector-curvature="0"/>
      <path style="fill:#4d4d4d;fill-opacity:1;stroke:#4d4d4d;stroke-width:2" d="m205.3,116.8 8.5,8   " id="path3056" inkscape:connector-curvature="0"/>
      <path style="fill:#4d4d4d;fill-opacity:1;stroke:#4d4d4d;stroke-width:2" d="m203.8,130.8 6,6   " id="path3058" inkscape:connector-curvature="0"/>
      <path style="fill:#4d4d4d;fill-opacity:1;stroke:#4d4d4d;stroke-width:2" d="m204.3,144.8 8,8.5   " id="path3060" inkscape:connector-curvature="0"/>
      <path style="fill:#4d4d4d;fill-opacity:1;stroke:#4d4d4d;stroke-width:2" d="m213.3,145.8 14.5,-5.5   " id="path3062" inkscape:connector-curvature="0"/>
      <path style="fill:#4d4d4d;fill-opacity:1;stroke:#4d4d4d;stroke-width:2" d="m214.3,132.3 10.5,-5   " id="path3064" inkscape:connector-curvature="0"/>
      <path style="fill:#4d4d4d;fill-opacity:1;stroke:#4d4d4d;stroke-width:2" d="m217.8,108.8 5.5,-3.5   " id="path3066" inkscape:connector-curvature="0"/>
      <path inkscape:connector-curvature="0" id="path3069" d="m345.6,176   c-4.433,-4.332 -11.61,-5.985 -14.37,-11.82 -2.885,-4.661 4.615,-6.276 7.728,-3.852 1.336,0.8413 4.211,1.006 1.992,-0.9766 -3.173,-3.571 -9.192,-3.296 -11.88,-7.511 -4.253,-3.002 -1.176,-8.676 3.821,-7.681 3.433,0.6582 6.578,2.521 9.182,4.674 -3.981,-4.211 -9.83,-7.494 -11.13,-13.39 -1.227,-3.805 3.403,-6.354 5.867,-2.951 0.9636,1.37 6.462,4.19 2.691,1.526 -3.366,-2.268 -5.761,-6.771 -3.414,-10.44 1.822,-3.137 6.453,-5.384 9.917,-3.188 -2.39,-2.885 -4.723,-6.357 -4.048,-10.23 0.2339,-3.756 5.37,-4.631 6.383,-0.7736 1.64,2.78 3.233,0.0477 2.227,-1.956 -0.286,-3.694 -0.1005,-8.334 3.446,-10.64 4.686,-2.115 8.778,3.382 7.286,7.425 -1.05,2.655 -2.489,9.378 2.594,6.099 2.083,-2.168 6.993,-1.634 5.107,2.049 -1.106,3.443 -4.569,5.354 -7.767,6.806 -3.266,3.211 2.883,-1.22 4.347,0.9646 4.214,1.953 1.765,6.091 -1.613,7.157 -1.755,0.5113 -5.593,4.697 -1.285,3.08 2.859,-0.9492 6.427,-3.624 9.227,-1.229 1.43,2.059 0.584,4.919 -0.5247,6.981 -1.249,2.463 -3.992,3.522 -6.536,4.384 -1.358,0.3648 -5.279,3.636 -3.797,3.23 2.986,-2.403 7.217,-5.159 11.21,-3.134 4.342,2.389 3.812,8.561 -0.3702,10.86 -2.861,2.762 -6.712,4.397 -10.76,4.719 -1.796,0.1161 -3.306,1.776 -0.3936,1.378 3.605,1.769 8.332,1.845 11,5.068 0.5276,5.028 -6.031,4.877 -9.537,5.719 -2.54,2.871 -1.624,8.731 -7.307,8.36 -3.199,1.007 -6.311,0.766 -9.285,-0.7072   z " style="fill:#ffff00;stroke:#000000;stroke-width:2.91513228;stroke-linecap:butt;stroke-linejoin:miter;stroke-opacity:1"/>
      <path inkscape:connector-curvature="0" id="path3071" d="m354.3,111   c0.5006,1.886 -5.006,33.01 -5.006,33.01   l1.502,30.18   " style="fill:none;stroke:#4d4d4d;stroke-width:1.9434216"/>
      <path inkscape:connector-curvature="0" id="path3073" d="m342.3,126.1 8.51,7.545   " style="fill:#4d4d4d;fill-opacity:1;stroke:#4d4d4d;stroke-width:1.9434216"/>
      <path inkscape:connector-curvature="0" id="path3075" d="m340.8,139.3 6.007,5.658   " style="fill:#4d4d4d;fill-opacity:1;stroke:#4d4d4d;stroke-width:1.9434216"/>
      <path inkscape:connector-curvature="0" id="path3077" d="m341.3,152.5 8.01,8.016   " style="fill:#4d4d4d;fill-opacity:1;stroke:#4d4d4d;stroke-width:1.9434216"/>
      <path inkscape:connector-curvature="0" id="path3079" d="m350.3,153.5 14.52,-5.187   " style="fill:#4d4d4d;fill-opacity:1;stroke:#4d4d4d;stroke-width:1.9434216"/>
      <path inkscape:connector-curvature="0" id="path3081" d="m351.3,140.8 10.51,-4.715   " style="fill:#4d4d4d;fill-opacity:1;stroke:#4d4d4d;stroke-width:1.9434216"/>
      <path inkscape:connector-curvature="0" id="path3083" d="m354.8,118.6 5.507,-3.301   " style="fill:#4d4d4d;fill-opacity:1;stroke:#4d4d4d;stroke-width:1.9434216"/>
      <path style="fill:#ffff00;stroke:#000000;stroke-width:2.91513228;stroke-linecap:butt;stroke-linejoin:miter;stroke-opacity:1" d="m95.49,173.3   c-4.433,-4.332 -11.61,-5.985 -14.37,-11.82 -2.885,-4.661 4.615,-6.276 7.728,-3.852 1.336,0.8413 4.211,1.006 1.992,-0.9766 -3.173,-3.571 -9.192,-3.296 -11.88,-7.511 -4.253,-3.002 -1.176,-8.676 3.821,-7.681 3.433,0.6582 6.578,2.521 9.182,4.674 -3.981,-4.211 -9.83,-7.494 -11.13,-13.39 -1.227,-3.805 3.403,-6.354 5.867,-2.951 0.9636,1.37 6.462,4.19 2.691,1.526 -3.366,-2.268 -5.761,-6.771 -3.414,-10.44 1.822,-3.137 6.453,-5.384 9.917,-3.188 -2.39,-2.885 -4.723,-6.357 -4.048,-10.23 0.2339,-3.756 5.37,-4.631 6.383,-0.7736 1.64,2.78 3.233,0.0477 2.227,-1.956 -0.286,-3.694 -0.1005,-8.334 3.446,-10.64 4.686,-2.115 8.778,3.382 7.286,7.425 -1.05,2.655 -2.489,9.378 2.594,6.099 2.083,-2.168 6.993,-1.634 5.107,2.049 -1.106,3.443 -4.569,5.354 -7.767,6.806 -3.266,3.211 2.883,-1.22 4.347,0.9646 4.214,1.953 1.765,6.091 -1.613,7.157 -1.755,0.5113 -5.593,4.697 -1.285,3.08 2.859,-0.9492 6.427,-3.624 9.227,-1.229 1.43,2.059 0.584,4.919 -0.5247,6.981 -1.249,2.463 -3.992,3.522 -6.536,4.384 -1.358,0.3648 -5.279,3.636 -3.797,3.23 2.986,-2.403 7.217,-5.159 11.21,-3.134 4.342,2.389 3.812,8.561 -0.3702,10.86 -2.861,2.762 -6.712,4.397 -10.76,4.719 -1.796,0.1161 -3.306,1.776 -0.3936,1.378 3.605,1.769 8.332,1.845 11,5.068 0.5276,5.028 -6.031,4.877 -9.537,5.719 -2.54,2.871 -1.624,8.731 -7.307,8.36 -3.199,1.007 -6.311,0.766 -9.285,-0.7072   z " id="path3085" inkscape:connector-curvature="0"/>
      <path style="fill:none;stroke:#4d4d4d;stroke-width:1.9434216" d="m104.1,108.3   c0.5006,1.886 -5.006,33.01 -5.006,33.01   l1.502,30.18   " id="path3087" inkscape:connector-curvature="0"/>
      <path style="fill:#4d4d4d;fill-opacity:1;stroke:#4d4d4d;stroke-width:1.9434216" d="m92.1,123.4 8.51,7.545   " id="path3089" inkscape:connector-curvature="0"/>
      <path style="fill:#4d4d4d;fill-opacity:1;stroke:#4d4d4d;stroke-width:1.9434216" d="m90.6,136.6 6.007,5.658   " id="path3091" inkscape:connector-curvature="0"/>
      <path style="fill:#4d4d4d;fill-opacity:1;stroke:#4d4d4d;stroke-width:1.9434216" d="m91.1,149.8 8.01,8.016   " id="path3093" inkscape:connector-curvature="0"/>
      <path style="fill:#4d4d4d;fill-opacity:1;stroke:#4d4d4d;stroke-width:1.9434216" d="m100.1,150.7 14.52,-5.187   " id="path3095" inkscape:connector-curvature="0"/>
      <path style="fill:#4d4d4d;fill-opacity:1;stroke:#4d4d4d;stroke-width:1.9434216" d="m101.1,138 10.51,-4.715   " id="path3097" inkscape:connector-curvature="0"/>
      <path style="fill:#4d4d4d;fill-opacity:1;stroke:#4d4d4d;stroke-width:1.9434216" d="m104.6,115.8 5.507,-3.301   " id="path3099" inkscape:connector-curvature="0"/>
      <path style="fill:#ffff00;stroke:#000000;stroke-width:3;stroke-linecap:butt;stroke-linejoin:miter;stroke-opacity:1" d="m151.4,170.7   c-1.356,0.2207 -1.296,-1.368 -0.1941,-0.1635 -2.12,-0.885 -3.11,-3.169 -4.503,-4.85 -1.497,-2.036 -1.755,-5.153 -0.2331,-7.173 1.306,-1.513 4.805,0.891 3.991,-2.205 -1.347,-2.361 -3.091,-4.487 -4.35,-6.92 -1.389,-2.034 -1.806,-5.433 0.8003,-6.697 1.364,-0.6125 3.842,3.384 3.041,0.2558 -0.6527,-2.603 -3.452,-4.011 -3.975,-6.726 -0.7162,-2.427 -2.158,-5.49 -0.3951,-7.774 1.493,-2.694 5.486,-0.0906 6.385,0.01 -1.421,-3.235 0.031,-6.758 0.7089,-9.988 0.4966,-2.536 2.699,-5.121 5.499,-4.707 2.534,0.0503 3.366,2.566 3.689,4.58 1.263,3.105 0.1037,6.441 -1.016,9.403 -0.4272,1.221 -0.651,2.056 0.482,0.6493 2.007,-1.546 6.289,-2.042 6.272,1.492 0.3798,2.824 -1.144,5.561 -2.961,7.609 -0.4217,1.06 -3.71,2.295 -2.59,2.971 3.015,-1.578 6.175,2.678 4.495,5.335 -1.088,3.169 -4.282,4.777 -5.872,7.6 -0.7459,1.839 1.641,-2.012 2.632,-2.327 2.189,-1.363 4.069,-3.229 6.44,-4.29 1.525,1.785 0.9758,4.258 -0.089,6.109 -1.737,2.906 -4.962,4.419 -6.888,7.173 -0.5905,0.7776 -1.921,1.797 -0.268,0.8533 2.361,-1.511 4.732,1.085 4.171,3.462 -0.5252,2.473 -2.972,3.588 -5.131,4.329 -1.696,0.2864 -3.46,1.549 -4.236,1.045 -1.282,-0.2003 -3.291,1.774 -4.138,0.2372   " id="path3108" inkscape:connector-curvature="0"/>
      <path style="fill:none;stroke:#333333;stroke-width:2" d="m157.8,118.8 -1.768,25.81 -1.061,22.27   " id="path3114" inkscape:connector-curvature="0"/>
      <path style="fill:none;stroke:#333333;stroke-width:2" d="m150.3,132.6 5.303,9.546   " id="path3116" inkscape:connector-curvature="0"/>
      <path style="fill:none;stroke:#333333;stroke-width:2" d="m151,148.8 4.243,8.132   " id="path3118" inkscape:connector-curvature="0"/>
      <path style="fill:none;stroke:#333333;stroke-width:2" d="m156.3,148.1 3.889,-3.889   " id="path3120" inkscape:connector-curvature="0"/>
      <path inkscape:connector-curvature="0" id="path3122" d="m279.4,170.4   c-1.356,0.2207 -1.296,-1.368 -0.1941,-0.1635 -2.12,-0.885 -3.11,-3.169 -4.503,-4.85 -1.497,-2.036 -1.755,-5.153 -0.2331,-7.173 1.306,-1.513 4.805,0.891 3.991,-2.205 -1.347,-2.361 -3.091,-4.487 -4.35,-6.92 -1.389,-2.034 -1.806,-5.433 0.8003,-6.697 1.364,-0.6125 3.842,3.384 3.041,0.2558 -0.6527,-2.603 -3.452,-4.011 -3.975,-6.726 -0.7162,-2.427 -2.158,-5.49 -0.3951,-7.774 1.493,-2.694 5.486,-0.0906 6.385,0.01 -1.421,-3.235 0.031,-6.758 0.7089,-9.988 0.4966,-2.536 2.699,-5.121 5.499,-4.707 2.534,0.0503 3.366,2.566 3.689,4.58 1.263,3.105 0.1037,6.441 -1.016,9.403 -0.4272,1.221 -0.651,2.056 0.482,0.6493 2.007,-1.546 6.289,-2.042 6.272,1.492 0.3798,2.824 -1.144,5.561 -2.961,7.609 -0.4217,1.06 -3.71,2.295 -2.59,2.971 3.015,-1.578 6.175,2.678 4.495,5.335 -1.088,3.169 -4.282,4.777 -5.872,7.6 -0.7459,1.839 1.641,-2.012 2.632,-2.327 2.189,-1.363 4.069,-3.229 6.44,-4.29 1.525,1.785 0.9758,4.258 -0.089,6.109 -1.737,2.906 -4.962,4.419 -6.888,7.173 -0.5905,0.7776 -1.921,1.797 -0.268,0.8533 2.361,-1.511 4.732,1.085 4.171,3.462 -0.5252,2.473 -2.972,3.588 -5.131,4.329 -1.696,0.2864 -3.46,1.549 -4.236,1.045 -1.282,-0.2003 -3.291,1.774 -4.138,0.2372   " style="fill:#ffff00;stroke:#000000;stroke-width:3;stroke-linecap:butt;stroke-linejoin:miter;stroke-opacity:1"/>
      <path inkscape:connector-curvature="0" id="path3124" d="m285.7,118.4 -1.768,25.81 -1.061,22.27   " style="fill:none;stroke:#333333;stroke-width:2"/>
      <path inkscape:connector-curvature="0" id="path3126" d="m278.3,132.2 5.303,9.546   " style="fill:none;stroke:#333333;stroke-width:2"/>
      <path inkscape:connector-curvature="0" id="path3128" d="m279,148.5 4.243,8.132   " style="fill:none;stroke:#333333;stroke-width:2"/>
      <path inkscape:connector-curvature="0" id="path3130" d="m284.3,147.8 3.889,-3.889   " style="fill:none;stroke:#333333;stroke-width:2"/>
      <path style="fill:#ffff00;stroke:#000000;stroke-width:2.83950186;stroke-linecap:butt;stroke-linejoin:miter;stroke-opacity:1" d="m394.6,184.6   c-1.362,0.1968 -1.302,-1.22 -0.195,-0.1459 -2.13,-0.7894 -3.124,-2.827 -4.523,-4.326 -1.503,-1.816 -1.763,-4.596 -0.2341,-6.398 1.311,-1.349 4.826,0.7947 4.008,-1.966 -1.353,-2.106 -3.104,-4.002 -4.37,-6.172 -1.395,-1.814 -1.814,-4.846 0.8038,-5.973 1.37,-0.5464 3.858,3.018 3.055,0.2282 -0.6556,-2.322 -3.467,-3.578 -3.992,-6 -0.7194,-2.165 -2.167,-4.897 -0.3968,-6.934 1.5,-2.403 5.51,-0.0808 6.413,0.009 -1.427,-2.885 0.0311,-6.027 0.712,-8.909 0.4988,-2.262 2.711,-4.568 5.524,-4.198 2.545,0.0449 3.381,2.288 3.705,4.085 1.269,2.769 0.1041,5.745 -1.02,8.387 -0.4291,1.089 -0.6538,1.833 0.4841,0.5791 2.016,-1.379 6.316,-1.821 6.3,1.331 0.3815,2.519 -1.149,4.96 -2.974,6.787 -0.4235,0.9452 -3.727,2.047 -2.601,2.65 3.028,-1.407 6.202,2.389 4.515,4.759 -1.093,2.827 -4.301,4.261 -5.898,6.778 -0.7492,1.64 1.648,-1.795 2.643,-2.076 2.199,-1.216 4.087,-2.88 6.469,-3.827 1.532,1.592 0.9801,3.798 -0.0894,5.449 -1.744,2.592 -4.983,3.942 -6.918,6.398 -0.5931,0.6936 -1.929,1.602 -0.2692,0.7611 2.372,-1.348 4.753,0.9677 4.19,3.088 -0.5275,2.206 -2.985,3.2 -5.154,3.861 -1.703,0.2555 -3.476,1.382 -4.255,0.932 -1.287,-0.1787 -3.305,1.582 -4.156,0.2116   " id="path3132" inkscape:connector-curvature="0"/>
      <path style="fill:none;stroke:#333333;stroke-width:1.8930012" d="m401,138.3 -1.776,23.02 -1.065,19.87   " id="path3134" inkscape:connector-curvature="0"/>
      <path style="fill:none;stroke:#333333;stroke-width:1.8930012" d="m393.5,150.6 5.327,8.514   " id="path3136" inkscape:connector-curvature="0"/>
      <path style="fill:none;stroke:#333333;stroke-width:1.8930012" d="m394.3,165.1 4.261,7.253   " id="path3138" inkscape:connector-curvature="0"/>
      <path style="fill:none;stroke:#333333;stroke-width:1.8930012" d="m399.6,164.5 3.906,-3.469   " id="path3140" inkscape:connector-curvature="0"/>
      <path inkscape:connector-curvature="0" id="path3142" d="m45.3,181.1   c-1.362,0.1968 -1.302,-1.22 -0.195,-0.1459 -2.13,-0.7894 -3.124,-2.827 -4.523,-4.326 -1.503,-1.816 -1.763,-4.596 -0.2341,-6.398 1.311,-1.349 4.826,0.7947 4.008,-1.966 -1.353,-2.106 -3.104,-4.002 -4.37,-6.172 -1.395,-1.814 -1.814,-4.846 0.8038,-5.973 1.37,-0.5464 3.858,3.018 3.055,0.2282 -0.6556,-2.322 -3.467,-3.578 -3.992,-6 -0.7194,-2.165 -2.167,-4.897 -0.3968,-6.934 1.5,-2.403 5.51,-0.0808 6.413,0.009 -1.427,-2.885 0.0311,-6.027 0.712,-8.909 0.4988,-2.262 2.711,-4.568 5.524,-4.198 2.545,0.0449 3.381,2.288 3.705,4.085 1.269,2.769 0.1041,5.745 -1.02,8.387 -0.4291,1.089 -0.6538,1.833 0.4841,0.5791 2.016,-1.379 6.316,-1.821 6.3,1.331 0.3815,2.519 -1.149,4.96 -2.974,6.787 -0.4235,0.9452 -3.727,2.047 -2.601,2.65 3.028,-1.407 6.202,2.389 4.515,4.759 -1.093,2.827 -4.301,4.261 -5.898,6.778 -0.7492,1.64 1.648,-1.795 2.643,-2.076 2.199,-1.216 4.087,-2.88 6.469,-3.827 1.532,1.592 0.9801,3.798 -0.0894,5.449 -1.744,2.592 -4.983,3.942 -6.918,6.398 -0.5931,0.6936 -1.929,1.602 -0.2692,0.7611 2.372,-1.348 4.753,0.9677 4.19,3.088 -0.5275,2.206 -2.985,3.2 -5.154,3.861 -1.703,0.2555 -3.476,1.382 -4.255,0.932 -1.287,-0.1787 -3.305,1.582 -4.156,0.2116   " style="fill:#ffff00;stroke:#000000;stroke-width:2.83950186;stroke-linecap:butt;stroke-linejoin:miter;stroke-opacity:1"/>
      <path inkscape:connector-curvature="0" id="path3144" d="m51.69,134.7 -1.776,23.02 -1.065,19.87   " style="fill:none;stroke:#333333;stroke-width:1.8930012"/>
      <path inkscape:connector-curvature="0" id="path3146" d="m44.24,147 5.327,8.514   " style="fill:none;stroke:#333333;stroke-width:1.8930012"/>
      <path inkscape:connector-curvature="0" id="path3148" d="m44.95,161.6 4.261,7.253   " style="fill:none;stroke:#333333;stroke-width:1.8930012"/>
      <path inkscape:connector-curvature="0" id="path3150" d="m50.27,160.9 3.906,-3.469   " style="fill:none;stroke:#333333;stroke-width:1.8930012"/>
      <path style="fill:#ffff00;stroke:#000000;stroke-width:3;stroke-opacity:1" d="m23.5,185.4   c-0.2555,-2.558 -0.9306,-4.811 -1.732,-7.266 -1.124,-2.005 -0.6963,-4.859 -2.292,-6.638 -2.083,-1.657 -3.058,-3.964 -4.891,-5.838 -1.837,-2.11 -3.564,-4.336 -5.788,-6.068 -1.758,-2.118 -2.315,-5.042 -2.535,-7.781 0.2677,-2.263 -0.5715,-5.455 1.983,-6.647 2.728,-2.68 3.29,0.5035 2.82,2.445 2.379,-0.4349 5.197,-4.139 7.28,-1.713 1.171,3.035 -2.997,4.228 -3.198,6.793 0.1967,2.243 3.92,1.033 5.165,-0.3979 1.489,-1.337 3.058,-0.527 2.145,1.481 -2.059,1.667 -3.074,4.393 -3.351,6.95 1.803,0.4729 4.403,-5.218 5.776,-1.319 0.4277,2.447 -1.68,4.245 -2.474,6.423 -1.394,2.228 4.344,-1.109 3.737,1.835 -0.09797,2.267 -4.469,3.142 -3.76,4.928 2.217,-1.296 6.242,-0.1832 4.437,2.931 -0.8443,1.754 -1.718,3.329 0.6384,3.938 1.29,2.478 -1.104,4.464 -3.001,5.576 -0.3299,0.0966 -0.6401,0.247 -0.9613,0.3671   z " id="path3152" inkscape:connector-curvature="0"/>
      <path style="fill:none;stroke:#333333;stroke-width:2;stroke-opacity:1" d="m9.252,152.7 9.25,12.25 5.5,16.5   " id="path3156" inkscape:connector-curvature="0"/>
      <path inkscape:connector-curvature="0" id="path3158" d="m432.7,190.4   c0.2555,-2.558 0.9306,-4.811 1.732,-7.266 1.124,-2.005 0.6963,-4.859 2.292,-6.638 2.083,-1.657 3.058,-3.964 4.891,-5.838 1.837,-2.11 3.564,-4.336 5.788,-6.068 1.758,-2.118 2.315,-5.042 2.535,-7.781 -0.2677,-2.263 0.5715,-5.455 -1.983,-6.647 -2.728,-2.68 -3.29,0.5035 -2.82,2.445 -2.379,-0.4349 -5.197,-4.139 -7.28,-1.713 -1.171,3.035 2.997,4.228 3.198,6.793 -0.1967,2.243 -3.92,1.033 -5.165,-0.3979 -1.489,-1.337 -3.058,-0.527 -2.145,1.481 2.059,1.667 3.074,4.393 3.351,6.95 -1.803,0.4729 -4.403,-5.218 -5.776,-1.319 -0.4277,2.447 1.68,4.245 2.474,6.423 1.394,2.228 -4.344,-1.109 -3.737,1.835 0.098,2.267 4.469,3.142 3.76,4.928 -2.217,-1.296 -6.242,-0.1832 -4.437,2.931 0.8443,1.754 1.718,3.329 -0.6384,3.938 -1.29,2.478 1.104,4.464 3.001,5.576 0.3299,0.0966 0.6401,0.247 0.9613,0.3671   z " style="fill:#ffff00;stroke:#000000;stroke-width:3;stroke-opacity:1"/>
      <path inkscape:connector-curvature="0" id="path3160" d="m447,157.6 -9.25,12.25 -5.5,16.5   " style="fill:none;stroke:#333333;stroke-width:2;stroke-opacity:1"/>
    </g>
  </g>
</svg>
