<?xml version="1.0" encoding="UTF-8" standalone="no"?>
<!-- Created with Inkscape (http://www.inkscape.org/) -->

<svg
   width="229.49283"
   height="232.92754"
   id="svg3194"
   version="1.0"
   xmlns="http://www.w3.org/2000/svg"
   xmlns:svg="http://www.w3.org/2000/svg"
   xmlns:rdf="http://www.w3.org/1999/02/22-rdf-syntax-ns#"
   xmlns:cc="http://creativecommons.org/ns#"
   xmlns:dc="http://purl.org/dc/elements/1.1/">
  <defs
     id="defs3196" />
  <metadata
     id="metadata3199">
    <rdf:RDF>
      <cc:Work
         rdf:about="">
        <dc:format>image/svg+xml</dc:format>
        <dc:type
           rdf:resource="http://purl.org/dc/dcmitype/StillImage" />
        <dc:creator>
          <cc:Agent>
            <dc:title>https://commons.wikimedia.org/wiki/User:Xavigivax</dc:title>
          </cc:Agent>
        </dc:creator>
      </cc:Work>
    </rdf:RDF>
  </metadata>
  <g
     id="layer2"
     transform="translate(-659.18604,-29.370141)">
    <g
       id="g2953">
      <g
         transform="translate(-141.7894,2.1375286)"
         id="g2917"
         style="stroke:#808080">
        <g
           id="g2827"
           transform="matrix(2.37864,0,0,2.3604541,-1234.0932,-104.011)"
           style="fill:#ffff00">
          <g
             id="g2111"
             style="stroke-width:0.34999999"
             transform="matrix(-1.02603,0,0,1.02603,1172.8199,49.467885)">
            <g
               id="g2113"
               transform="translate(216.3527,15.51153)">
              <a
                 id="a2115"
                 transform="translate(0,0.746122)">
                <path
                   id="path2117"
                   style="fill-rule:evenodd"
                   d="M -0.85497357,53.194629 C 0.63347324,59.66134 3.2038095,64.685532 6.652922,68.538022 L 5.723773,72.082101 C 5.723773,72.082101 14.956498,74.721651 14.987586,74.690563 L 16.476864,68.786729 C 11.590164,62.49183 5.7424276,56.773553 4.9954507,47.99482 L -0.85497357,53.194629 z" />
              </a>
              <path
                 id="path2119"
                 style="fill-rule:evenodd"
                 d="M 32.016332,58.69494 L 41.036715,58.69494 C 45.703457,53.760504 47.69045,48.826069 49.583409,43.891633 L 38.300934,43.891633 C 38.400181,48.826069 34.483173,53.760504 32.016332,58.69494 z" />
              <path
                 id="path2121"
                 style="fill-rule:evenodd"
                 d="M 4.6156837,44.475584 C 2.0489229,47.300881 0.49851465,50.735989 -1,54.202234 C 3.8888646,49.427286 13.341105,41.348426 16.319278,44.202944 C 19.795966,50.141409 24.946746,54.710163 30.811275,58.69494 L 40.180837,58.69494 C 31.572873,52.127302 23.183188,45.431265 18.210894,36.724997 C 14.485021,35.873625 8.8897503,39.959529 4.6156837,44.475584 z" />
            </g>
            <g
               id="g2123"
               style="stroke-width:0.3551949"
               transform="matrix(0.937878,0.251304,-0.258819,0.965926,57.26451,-45.23491)">
              <rect
                 id="rect2125"
                 y="86.122467"
                 x="199.55624"
                 height="11.782799"
                 width="9.9238567" />
              <g
                 id="g2127"
                 style="stroke-width:0.36639786"
                 transform="matrix(0.939783,0,0,1,4.152284,-2.016667)">
                <path
                   id="path2129"
                   style="fill-rule:evenodd"
                   d="M 209.22507,99.968423 L 209.22507,88.092651" />
                <path
                   id="path2131"
                   style="fill-rule:evenodd"
                   d="M 210.5515,99.968423 L 210.5515,88.092647" />
                <path
                   id="path2133"
                   style="fill-rule:evenodd"
                   d="M 211.87795,99.968423 L 211.87795,88.092647" />
                <path
                   id="path2135"
                   style="fill-rule:evenodd"
                   d="M 213.20439,99.968423 L 213.20439,88.092647" />
                <path
                   id="path2137"
                   style="fill-rule:evenodd"
                   d="M 214.53083,99.968423 L 214.53083,88.092647" />
                <path
                   id="path2139"
                   style="fill-rule:evenodd"
                   d="M 215.85726,99.968423 L 215.85726,88.092638" />
                <path
                   id="path2141"
                   style="fill-rule:evenodd"
                   d="M 217.18371,99.968423 L 217.18371,88.092638" />
              </g>
            </g>
          </g>
        </g>
        <g
           id="g2845"
           transform="matrix(-2.37864,0,0,2.3604541,3065.5369,-104.011)">
          <g
             id="g2847"
             style="fill:#ffff00;stroke-width:0.34999999"
             transform="matrix(-1.02603,0,0,1.02603,1172.8199,49.467885)">
            <g
               id="g2849"
               transform="translate(216.3527,15.51153)">
              <a
                 id="a2851"
                 transform="translate(0,0.746122)">
                <path
                   id="path2853"
                   style="fill-rule:evenodd"
                   d="M -0.85497357,53.194629 C 0.63347324,59.66134 3.2038095,64.685532 6.652922,68.538022 L 5.723773,72.082101 C 5.723773,72.082101 14.956498,74.721651 14.987586,74.690563 L 16.476864,68.786729 C 11.590164,62.49183 5.7424276,56.773553 4.9954507,47.99482 L -0.85497357,53.194629 z" />
              </a>
              <path
                 id="path2855"
                 style="fill-rule:evenodd"
                 d="M 32.016332,58.69494 L 41.036715,58.69494 C 45.703457,53.760504 47.69045,48.826069 49.583409,43.891633 L 38.300934,43.891633 C 38.400181,48.826069 34.483173,53.760504 32.016332,58.69494 z" />
              <path
                 id="path2857"
                 style="fill-rule:evenodd"
                 d="M 4.6156837,44.475584 C 2.0489229,47.300881 0.49851465,50.735989 -1,54.202234 C 3.8888646,49.427286 13.341105,41.348426 16.319278,44.202944 C 19.795966,50.141409 24.946746,54.710163 30.811275,58.69494 L 40.180837,58.69494 C 31.572873,52.127302 23.183188,45.431265 18.210894,36.724997 C 14.485021,35.873625 8.8897503,39.959529 4.6156837,44.475584 z" />
            </g>
            <g
               id="g2859"
               style="stroke-width:0.3551949"
               transform="matrix(0.937878,0.251304,-0.258819,0.965926,57.26451,-45.23491)">
              <rect
                 id="rect2861"
                 y="86.122467"
                 x="199.55624"
                 height="11.782799"
                 width="9.9238567" />
              <g
                 id="g2863"
                 style="stroke-width:0.36639786"
                 transform="matrix(0.939783,0,0,1,4.152284,-2.016667)">
                <path
                   id="path2865"
                   style="fill-rule:evenodd"
                   d="M 209.22507,99.968423 L 209.22507,88.092651" />
                <path
                   id="path2867"
                   style="fill-rule:evenodd"
                   d="M 210.5515,99.968423 L 210.5515,88.092647" />
                <path
                   id="path2869"
                   style="fill-rule:evenodd"
                   d="M 211.87795,99.968423 L 211.87795,88.092647" />
                <path
                   id="path2871"
                   style="fill-rule:evenodd"
                   d="M 213.20439,99.968423 L 213.20439,88.092647" />
                <path
                   id="path2873"
                   style="fill-rule:evenodd"
                   d="M 214.53083,99.968423 L 214.53083,88.092647" />
                <path
                   id="path2875"
                   style="fill-rule:evenodd"
                   d="M 215.85726,99.968423 L 215.85726,88.092638" />
                <path
                   id="path2877"
                   style="fill-rule:evenodd"
                   d="M 217.18371,99.968423 L 217.18371,88.092638" />
              </g>
            </g>
          </g>
        </g>
      </g>
      <path
         style="fill:#e3e4e5;fill-rule:evenodd;stroke:#808080;stroke-width:0.99999994"
         d="M 777.83435,53.429482 C 777.83435,50.212363 780.5734,47.60437 783.95219,47.60437 C 787.33099,47.60437 790.07004,50.212363 790.07004,53.429482 C 790.07004,56.6466 787.33099,59.254593 783.95219,59.254593 C 780.5734,59.254593 777.83435,56.6466 777.83435,53.429482 L 777.83435,53.429482 z"
         class="Silber Rand2"
         id="mitra1-1" />
      <path
         style="fill:#e3e4e5;fill-rule:evenodd;stroke:#808080;stroke-width:0.99999994"
         d="M 787.71353,62.490767 C 787.71353,59.273648 790.45259,56.665655 793.83138,56.665655 C 797.21017,56.665655 799.94923,59.273648 799.94923,62.490767 C 799.94923,65.707885 797.21017,68.315878 793.83138,68.315878 C 790.45259,68.315878 787.71353,65.707885 787.71353,62.490767 L 787.71353,62.490767 z"
         class="Silber Rand2"
         id="mitra1-2" />
      <path
         style="fill:#e3e4e5;fill-rule:evenodd;stroke:#808080;stroke-width:0.99999994"
         d="M 796.2332,72.84652 C 796.2332,69.629402 798.97226,67.021409 802.35105,67.021409 C 805.72984,67.021409 808.4689,69.629402 808.4689,72.84652 C 808.4689,76.063641 805.72984,78.671634 802.35105,78.671634 C 798.97226,78.671634 796.2332,76.063641 796.2332,72.84652 z"
         class="Silber Rand2"
         id="mitra1-3" />
      <path
         style="fill:#e3e4e5;fill-rule:evenodd;stroke:#808080;stroke-width:0.99999994"
         d="M 802.66827,84.496743 C 802.66827,81.279628 805.40732,78.671634 808.78612,78.671634 C 812.16491,78.671634 814.90396,81.279628 814.90396,84.496743 C 814.90396,87.713865 812.16491,90.321858 808.78612,90.321858 C 805.40732,90.321858 802.66827,87.713865 802.66827,84.496743 z"
         class="Silber Rand2"
         id="mitra1-4" />
      <path
         style="fill:#e3e4e5;fill-rule:evenodd;stroke:#808080;stroke-width:0.99999994"
         d="M 808.10636,97.096248 C 808.10636,93.879126 810.84541,91.271133 814.22421,91.271133 C 817.603,91.271133 820.34205,93.879126 820.34205,97.096248 C 820.34205,100.31336 817.603,102.92136 814.22421,102.92136 C 810.84541,102.92136 808.10636,100.31336 808.10636,97.096248 z"
         class="Silber Rand2"
         id="mitra1-5" />
      <path
         style="fill:#e3e4e5;fill-rule:evenodd;stroke:#808080;stroke-width:0.99999994"
         d="M 812.81937,109.78204 C 812.81937,106.56493 815.55842,103.95693 818.93722,103.95693 C 822.316,103.95693 825.05506,106.56493 825.05506,109.78204 C 825.05506,112.99916 822.316,115.60716 818.93722,115.60716 C 815.55842,115.60716 812.81937,112.99916 812.81937,109.78204 z"
         class="Silber Rand2"
         id="mitra1-6" />
      <path
         style="fill:#e3e4e5;fill-rule:evenodd;stroke:#808080;stroke-width:0.99999994"
         d="M 817.62301,122.98563 C 817.62301,119.76851 820.36206,117.16052 823.74086,117.16052 C 827.11965,117.16052 829.8587,119.76851 829.8587,122.98563 C 829.8587,126.20275 827.11965,128.81074 823.74086,128.81074 C 820.36206,128.81074 817.62301,126.20275 817.62301,122.98563 z"
         class="Silber Rand2"
         id="mitra1-7" />
      <path
         style="fill:#e3e4e5;fill-rule:evenodd;stroke:#808080;stroke-width:0.99999994"
         d="M 769.58658,53.429482 C 769.58658,50.212363 766.84752,47.60437 763.46873,47.60437 C 760.08994,47.60437 757.35088,50.212363 757.35088,53.429482 C 757.35088,56.6466 760.08994,59.254593 763.46873,59.254593 C 766.84752,59.254593 769.58658,56.6466 769.58658,53.429482 L 769.58658,53.429482 z"
         class="Silber Rand2"
         id="mitra1-8" />
      <path
         style="fill:#e3e4e5;fill-rule:evenodd;stroke:#808080;stroke-width:0.99999994"
         d="M 759.70739,62.490767 C 759.70739,59.273648 756.96834,56.665655 753.58954,56.665655 C 750.21075,56.665655 747.4717,59.273648 747.4717,62.490767 C 747.4717,65.707885 750.21075,68.315878 753.58954,68.315878 C 756.96834,68.315878 759.70739,65.707885 759.70739,62.490767 L 759.70739,62.490767 z"
         class="Silber Rand2"
         id="mitra1-9" />
      <path
         style="fill:#e3e4e5;fill-rule:evenodd;stroke:#808080;stroke-width:0.99999994"
         d="M 751.18772,72.84652 C 751.18772,69.629402 748.44866,67.021409 745.06988,67.021409 C 741.69108,67.021409 738.95203,69.629402 738.95203,72.84652 C 738.95203,76.063641 741.69108,78.671634 745.06988,78.671634 C 748.44866,78.671634 751.18772,76.063641 751.18772,72.84652 z"
         class="Silber Rand2"
         id="mitra1-10" />
      <path
         style="fill:#e3e4e5;fill-rule:evenodd;stroke:#808080;stroke-width:0.99999994"
         d="M 744.75265,84.496743 C 744.75265,81.279628 742.0136,78.671634 738.6348,78.671634 C 735.25601,78.671634 732.51696,81.279628 732.51696,84.496743 C 732.51696,87.713865 735.25601,90.321858 738.6348,90.321858 C 742.0136,90.321858 744.75265,87.713865 744.75265,84.496743 z"
         class="Silber Rand2"
         id="mitra1-11" />
      <path
         style="fill:#e3e4e5;fill-rule:evenodd;stroke:#808080;stroke-width:0.99999994"
         d="M 739.31457,97.096248 C 739.31457,93.879126 736.57551,91.271133 733.19672,91.271133 C 729.81793,91.271133 727.07887,93.879126 727.07887,97.096248 C 727.07887,100.31336 729.81793,102.92136 733.19672,102.92136 C 736.57551,102.92136 739.31457,100.31336 739.31457,97.096248 z"
         class="Silber Rand2"
         id="mitra1-12" />
      <path
         style="fill:#e3e4e5;fill-rule:evenodd;stroke:#808080;stroke-width:0.99999994"
         d="M 734.60156,109.78204 C 734.60156,106.56493 731.8625,103.95693 728.48371,103.95693 C 725.10492,103.95693 722.36586,106.56493 722.36586,109.78204 C 722.36586,112.99916 725.10492,115.60716 728.48371,115.60716 C 731.8625,115.60716 734.60156,112.99916 734.60156,109.78204 z"
         class="Silber Rand2"
         id="mitra1-13" />
      <path
         style="fill:#e3e4e5;fill-rule:evenodd;stroke:#808080;stroke-width:0.99999994"
         d="M 729.79792,122.98563 C 729.79792,119.76851 727.05886,117.16052 723.68007,117.16052 C 720.30128,117.16052 717.56222,119.76851 717.56222,122.98563 C 717.56222,126.20275 720.30128,128.81074 723.68007,128.81074 C 727.05886,128.81074 729.79792,126.20275 729.79792,122.98563 L 729.79792,122.98563 z"
         class="Silber Rand2"
         id="mitra1-14" />
      <path
         style="fill:#e3e4e5;fill-rule:evenodd;stroke:#808080;stroke-width:0.99999994"
         d="M 780.50807,40.225895 C 780.50807,34.50657 777.46467,29.870141 773.71046,29.870141 C 769.95625,29.870141 766.91285,34.50657 766.91285,40.225895 C 766.91285,45.94522 769.95625,50.581649 773.71046,50.581649 C 777.46467,50.581649 780.50807,45.94522 780.50807,40.225895 z"
         class="Silber Rand2"
         id="mitra2-1" />
      <path
         style="fill:#e3e4e5;fill-rule:evenodd;stroke:#808080;stroke-width:0.99999994"
         d="M 724.76768,129.54427 C 730.20577,112.71617 735.64386,95.888074 743.80099,82.29615 C 751.95812,68.704219 762.83429,58.348465 773.71046,47.992711"
         class="Rand4Hell"
         id="mitra-linie-1" />
      <path
         style="fill:#e3e4e5;fill-rule:evenodd;stroke:#808080;stroke-width:0.99999994"
         d="M 822.65324,129.54427 C 817.21515,112.71617 811.77707,95.888074 803.61994,82.29615 C 795.46281,68.704219 784.58663,58.348465 773.71046,47.992711"
         class="Rand4Hell"
         id="mitra-linie-2" />
      <path
         style="fill:#e3e4e5;fill-rule:evenodd;stroke:#808080;stroke-width:0.99999994"
         d="M 727.48673,123.24453 C 727.48673,121.81469 726.26937,120.65559 724.76768,120.65559 C 723.266,120.65559 722.04864,121.81469 722.04864,123.24453 C 722.04864,124.67436 723.266,125.83346 724.76768,125.83346 C 726.26937,125.83346 727.48673,124.67436 727.48673,123.24453 z"
         class="Hellblau"
         id="mitra-blau-1" />
      <path
         style="fill:#e3e4e5;fill-rule:evenodd;stroke:#808080;stroke-width:0.99999994"
         d="M 731.56529,110.29983 C 731.56529,108.87 730.34794,107.71089 728.84625,107.71089 C 727.34456,107.71089 726.12721,108.87 726.12721,110.29983 C 726.12721,111.72966 727.34456,112.88877 728.84625,112.88877 C 730.34794,112.88877 731.56529,111.72966 731.56529,110.29983 z"
         class="Hellblau"
         id="mitra-blau-2" />
      <path
         style="fill:#e3e4e5;fill-rule:evenodd;stroke:#808080;stroke-width:0.99999994"
         d="M 736.2783,97.009946 C 736.2783,95.580115 735.06094,94.421007 733.55926,94.421007 C 732.05757,94.421007 730.84022,95.580115 730.84022,97.009946 C 730.84022,98.439777 732.05757,99.598884 733.55926,99.598884 C 735.06094,99.598884 736.2783,98.439777 736.2783,97.009946 z"
         class="Hellblau"
         id="mitra-blau-3" />
      <path
         style="fill:#e3e4e5;fill-rule:evenodd;stroke:#808080;stroke-width:0.99999994"
         d="M 741.44449,84.410448 C 741.44449,82.980616 740.22713,81.821509 738.72544,81.821509 C 737.22375,81.821509 736.0064,82.980616 736.0064,84.410448 C 736.0064,85.840279 737.22375,86.999386 738.72544,86.999386 C 740.22713,86.999386 741.44449,85.840279 741.44449,84.410448 z"
         class="Hellblau"
         id="mitra-blau-4" />
      <path
         style="fill:#e3e4e5;fill-rule:evenodd;stroke:#808080;stroke-width:0.99999994"
         d="M 748.514,73.105412 C 748.514,71.675581 747.29664,70.516474 745.79495,70.516474 C 744.29327,70.516474 743.07591,71.675581 743.07591,73.105412 C 743.07591,74.53525 744.29327,75.694351 745.79495,75.694351 C 747.29664,75.694351 748.514,74.53525 748.514,73.105412 z"
         class="Hellblau"
         id="mitra-blau-5" />
      <path
         style="fill:#e3e4e5;fill-rule:evenodd;stroke:#808080;stroke-width:0.99999994"
         d="M 757.03366,63.353746 C 757.03366,61.923914 755.81631,60.764808 754.31462,60.764808 C 752.81293,60.764808 751.59557,61.923914 751.59557,63.353746 C 751.59557,64.783578 752.81293,65.942685 754.31462,65.942685 C 755.81631,65.942685 757.03366,64.783578 757.03366,63.353746 z"
         class="Hellblau"
         id="mitra-blau-6" />
      <path
         style="fill:#e3e4e5;fill-rule:evenodd;stroke:#808080;stroke-width:0.99999994"
         d="M 766.55031,53.688376 C 766.55031,52.258544 765.33296,51.099437 763.83127,51.099437 C 762.32958,51.099437 761.11223,52.258544 761.11223,53.688376 C 761.11223,55.118207 762.32958,56.277314 763.83127,56.277314 C 765.33296,56.277314 766.55031,55.118207 766.55031,53.688376 z"
         class="Hellblau"
         id="mitra-blau-7" />
      <path
         style="fill:#e3e4e5;fill-rule:evenodd;stroke:#808080;stroke-width:0.99999994"
         d="M 819.9342,123.24453 C 819.9342,121.81469 821.15155,120.65559 822.65324,120.65559 C 824.15493,120.65559 825.37228,121.81469 825.37228,123.24453 C 825.37228,124.67436 824.15493,125.83346 822.65324,125.83346 C 821.15155,125.83346 819.9342,124.67436 819.9342,123.24453 z"
         class="Hellblau"
         id="mitra-blau-8" />
      <path
         style="fill:#e3e4e5;fill-rule:evenodd;stroke:#808080;stroke-width:0.99999994"
         d="M 815.85563,110.29983 C 815.85563,108.87 817.07299,107.71089 818.57467,107.71089 C 820.07636,107.71089 821.29372,108.87 821.29372,110.29983 C 821.29372,111.72966 820.07636,112.88877 818.57467,112.88877 C 817.07299,112.88877 815.85563,111.72966 815.85563,110.29983 z"
         class="Hellblau"
         id="mitra-blau-9" />
      <path
         style="fill:#e3e4e5;fill-rule:evenodd;stroke:#808080;stroke-width:0.99999994"
         d="M 811.14262,97.009946 C 811.14262,95.580115 812.35998,94.421007 813.86166,94.421007 C 815.36335,94.421007 816.58071,95.580115 816.58071,97.009946 C 816.58071,98.439777 815.36335,99.598884 813.86166,99.598884 C 812.35998,99.598884 811.14262,98.439777 811.14262,97.009946 z"
         class="Hellblau"
         id="mitra-blau-10" />
      <path
         style="fill:#e3e4e5;fill-rule:evenodd;stroke:#808080;stroke-width:0.99999994"
         d="M 805.97644,84.410448 C 805.97644,82.980616 807.1938,81.821509 808.69548,81.821509 C 810.19717,81.821509 811.41452,82.980616 811.41452,84.410448 C 811.41452,85.840279 810.19717,86.999386 808.69548,86.999386 C 807.1938,86.999386 805.97644,85.840279 805.97644,84.410448 z"
         class="Hellblau"
         id="mitra-blau-11" />
      <path
         style="fill:#e3e4e5;fill-rule:evenodd;stroke:#808080;stroke-width:0.99999994"
         d="M 798.90693,73.105412 C 798.90693,71.675581 800.12428,70.516474 801.62597,70.516474 C 803.12766,70.516474 804.34501,71.675581 804.34501,73.105412 C 804.34501,74.53525 803.12766,75.694351 801.62597,75.694351 C 800.12428,75.694351 798.90693,74.53525 798.90693,73.105412 z"
         class="Hellblau"
         id="mitra-blau-12" />
      <path
         style="fill:#e3e4e5;fill-rule:evenodd;stroke:#808080;stroke-width:0.99999994"
         d="M 790.38726,63.353746 C 790.38726,61.923914 791.60461,60.764808 793.10631,60.764808 C 794.60799,60.764808 795.82535,61.923914 795.82535,63.353746 C 795.82535,64.783578 794.60799,65.942685 793.10631,65.942685 C 791.60461,65.942685 790.38726,64.783578 790.38726,63.353746 L 790.38726,63.353746 z"
         class="Hellblau"
         id="mitra-blau-13" />
      <path
         style="fill:#e3e4e5;fill-rule:evenodd;stroke:#808080;stroke-width:0.99999994"
         d="M 780.87061,53.688376 C 780.87061,52.258544 782.08796,51.099437 783.58965,51.099437 C 785.09134,51.099437 786.3087,52.258544 786.3087,53.688376 C 786.3087,55.118207 785.09134,56.277314 783.58965,56.277314 C 782.08796,56.277314 780.87061,55.118207 780.87061,53.688376 z"
         class="Hellblau"
         id="mitra-blau-14" />
      <path
         id="mitra3-1"
         transform="translate(717.06222,29.370141)"
         d="M 56.65625,18.625 C 45.78008,28.980754 34.90713,39.345568 26.75,52.9375 C 18.59287,66.529424 13.15684,83.359403 7.71875,100.1875 C 11.71191,109.21555 15.965937,118.22221 19.84375,127.25 C 20.64029,128.97511 35.478969,133.01699 55.870919,133.01699 C 76.262869,133.01699 93.118543,129.14579 93.6875,127.25 L 105.59375,100.1875 C 100.15566,83.3594 94.719634,66.529423 86.5625,52.9375 C 78.40537,39.345569 67.532421,28.980754 56.65625,18.625 z"
         style="fill:#e3e4e5;fill-rule:evenodd;stroke:#808080" />
      <path
         style="fill:#ffff00;fill-rule:evenodd;stroke:#808080;stroke-width:0.99999994"
         d="M 772.92232,162.36197 C 779.71993,162.36197 787.21499,161.97892 793.88068,161.23288 C 801.80918,160.3455 804.62753,159.13685 810.6697,157.17348 L 818.1265,139.81373 C 814.70199,142.82373 801.64593,143.74592 799.70917,144.19469 C 794.06396,144.47369 784.8104,145.78595 783.17037,140.16364 C 781.52988,134.54133 782.02248,104.26027 782.02248,87.603039 C 782.02248,70.945374 782.02248,56.294644 782.02248,56.294644 L 773.86535,48.133913 L 765.70822,55.900728 C 765.70822,55.900728 765.70822,70.945374 765.70822,87.603039 C 765.70822,104.26027 766.20082,134.54133 764.56033,140.16364 C 762.9203,145.78595 755.17649,144.27509 747.8515,144.34265 C 739.69631,144.1143 738.20184,143.2142 730.56031,142.50759 L 736.96385,156.88774 C 744.70347,159.98273 747.05315,160.92662 753.2842,161.43679 C 759.96916,161.98412 766.12471,162.36197 772.92232,162.36197 z"
         class="Hellblau"
         id="mitra5-1" />
    </g>
    <g
       transform="matrix(1.02603,0,0,1.02603,831.02305,105.32993)"
       style="stroke:#000000;stroke-width:0.34999999"
       id="g2145" />
  </g>
</svg>
