<?xml version="1.0" encoding="UTF-8" standalone="no"?>
<!-- Created with Inkscape (http://www.inkscape.org/) -->

<svg
   xmlns:dc="http://purl.org/dc/elements/1.1/"
   xmlns:cc="http://creativecommons.org/ns#"
   xmlns:rdf="http://www.w3.org/1999/02/22-rdf-syntax-ns#"
   xmlns:svg="http://www.w3.org/2000/svg"
   xmlns="http://www.w3.org/2000/svg"
   version="1.1"
   width="747"
   height="860"
   id="svg2">
  <defs
     id="defs85" />
  <metadata
     id="metadata4">
    <rdf:RDF>
      <cc:Work
         rdf:about="">
        <dc:format>image/svg+xml</dc:format>
        <dc:type
           rdf:resource="http://purl.org/dc/dcmitype/StillImage" />
        <cc:license
           rdf:resource="" />
        <dc:title></dc:title>
        <dc:creator>
          <cc:Agent>
            <dc:title>pl.wikipedia.org/wiki/Wikipedysta:Bastian</dc:title>
          </cc:Agent>
        </dc:creator>
      </cc:Work>
    </rdf:RDF>
  </metadata>
  <g
     id="body"
     style="fill:#ffff00;fill-opacity:1;fill-rule:evenodd;stroke:#000000;stroke-width:3;stroke-linecap:butt;stroke-linejoin:miter;stroke-miterlimit:4;stroke-opacity:1;stroke-dasharray:none">
    <path
       d="M 81,625 406,129 418,137 94,633 z"
       id="path7"
       style="fill:#e2e3e4;stroke-width:2.34699988" />
    <path
       d="m 281,311 c -2,-17 -9,-26 -18,-33 4,-9 3,-19 -2,-29 l 8,-3 c 9,-3 23,35 30,-4 22,1 16,-10 5,-22 5,-20 -20,-15 -36,-29 20,-34 -47,-36 -62,-34 -27,-21 -46,0 -38,29 -16,-1 -27,12 -48,10 25,13 24,21 45,33 -8,21 -8,46 -2,75 -13,28 -23,45 -1,84 -14,8 -3,28 4,47 -8,14 -64,-7 -62,47 l 0,46 c -6,19 -26,31 -9,48 1,20 -7,43 16,55 3,-1 6,-4 9,-11 6,5 9,3 14,4 3,-19 -12,-34 -15,-49 18,-1 14,-18 8,-35 0,-37 10,-69 41,-47 l 22,-36 c 2,9 6,18 14,26 7,3 14,4 22,2 0,31 2,56 8,80 1,29 20,54 -9,88 -9,17 -16,34 -6,50 l 9,-4 c 1,4 -1,8 7,12 17,-10 17,-39 26,-47 2,-8 6,-11 12,-11 -2,-21 0,-46 -7,-64 4,-1 6,-14 6,-28 11,-17 20,-38 17,-62 5,1 15,2 26,-3 6,5 11,3 16,3 28,4 53,6 77,-7 10,2 12,2 16,-1 37,20 50,44 9,77 -12,20 -45,39 -30,59 -9,17 -20,32 -10,54 7,0 9,-5 12,-9 1,7 3,12 7,14 19,-8 20,-28 21,-53 15,4 23,-13 24,-33 1,-22 16,-34 29,-46 14,-9 31,-17 35,-38 18,13 44,38 20,74 -18,17 -28,34 -12,43 -13,13 -18,31 -13,48 l 11,-3 c -1,4 0,6 7,10 11,-3 23,-20 26,-43 21,0 13,-32 16,-51 0,-18 4,-25 9,-33 10,-15 20,-14 19,-47 16,-23 8,-29 -8,-58 -15,-22 -16,-32 -14,-54 6,-43 -36,-99 -119,-86 -65,33 -130,10 -182,-5 z"
       id="path9"
       style="fill:#000000;fill-rule:evenodd;stroke-width:1px" />
    <path
       d="m 243,620 c -4,13 -9,25 -16,34 9,1 23,2 26,-10 3,0 5,-1 4,8 3,4 9,-1 13,-3 -1,-20 1,-38 -5,-57 3,-10 5,-22 5,-33 7,-12 13,-25 16,-38 -24,1 -40,-29 -55,-43 -5,20 -1,57 6,84 -2,13 7,37 6,58 z"
       id="path11"
       style="fill:#978c8f;fill-rule:evenodd;stroke:none" />
    <path
       d="m 246,619 c -4,13 -9,25 -16,34 9,-1 19,0 22,-12 3,-1 6,2 5,11 3,4 7,-1 11,-3 -1,-20 1,-39 -5,-59 3,-10 4,-20 5,-31 6,-12 13,-24 16,-36 -24,0 -37,-24 -52,-42 0,26 0,53 7,80 -1,13 8,37 7,58 z"
       id="path13"
       style="fill-rule:evenodd;stroke:none" />
    <path
       d="m 275,537 c 0,-6 -8,8 -10,12 -6,10 -10,23 -13,34 -5,15 -5,28 1,39 3,0 6,-5 10,-25 -3,-25 6,-41 12,-60 z"
       id="path15"
       style="fill:#978c8f;fill-rule:evenodd;stroke:none" />
    <path
       d="m 182,465 c -5,-8 -4,-11 -11,-12 -4,-7 -15,-10 -26,-10 -14,2 -43,5 -40,41 l 0,43 c -3,15 -29,36 -6,45 l 19,-2 c 11,10 14,-10 9,-19 -9,-38 4,-68 20,-70 12,0 14,3 20,8 l 15,-24 z"
       id="path17"
       style="fill:#978c8f;fill-rule:evenodd;stroke:none" />
    <path
       d="m 182,465 c -5,-8 -7,-8 -14,-10 -3,-7 -12,-9 -23,-9 -14,2 -39,9 -38,37 l 1,44 c -4,15 -29,35 -7,44 l 17,-4 c 12,9 12,-6 7,-15 -9,-38 6,-71 22,-74 11,0 14,6 20,11 l 15,-24 z"
       id="path19"
       style="fill-rule:evenodd;stroke:none" />
    <path
       d="m 166,455 c -5,5 -12,6 -20,5 -24,2 -29,1 -33,38 2,6 6,6 10,1 0,-26 3,-30 20,-35 4,7 11,7 22,0 l 1,-9 z"
       id="path21"
       style="fill:#978c8f;fill-rule:evenodd;stroke:none" />
    <path
       d="m 426,485 c 29,18 52,43 16,79 l -36,39 c -13,26 12,27 17,19 8,-1 10,24 28,1 -1,-32 6,-51 38,-75 21,-12 35,-20 22,-48 -49,18 -29,-36 -85,-15 z"
       id="path23"
       style="fill:#978c8f;fill-rule:evenodd;stroke:none" />
    <path
       d="m 434,486 c 26,19 48,40 14,75 l -39,43 c -13,25 10,24 15,16 8,-1 7,23 25,0 -1,-31 5,-49 35,-73 18,-10 40,-18 24,-47 -44,26 -25,-29 -74,-14 z"
       id="path25"
       style="fill-rule:evenodd;stroke:none" />
    <path
       d="m 520,491 c -8,-1 -13,12 -2,19 17,14 32,23 35,48 -3,47 -41,48 -25,67 6,9 21,5 28,14 14,13 18,-13 13,-31 4,-12 5,-23 2,-35 8,-1 12,-11 19,-23 6,-10 13,-18 6,-33 l -13,2 c -10,-5 -15,-10 -20,-18 -15,1 -30,0 -43,-10 z"
       id="path27"
       style="fill:#978c8f;fill-rule:evenodd;stroke:none" />
    <path
       d="m 520,491 c -8,-1 -12,10 -1,16 17,14 35,26 38,51 -3,47 -42,48 -27,67 6,9 19,5 26,14 14,13 15,-14 10,-32 4,-12 5,-23 2,-35 7,-1 12,-11 19,-23 6,-10 16,-16 9,-31 -5,4 -8,12 -16,11 -14,-7 -16,-20 -18,-28 -15,1 -29,0 -42,-10 z"
       id="path29"
       style="fill-rule:evenodd;stroke:none" />
    <path
       d="m 579,529 -18,39 c 8,2 25,-30 18,-39 z"
       id="path31"
       style="fill:#978c8f;fill-rule:evenodd;stroke:none" />
    <path
       d="m 595,518 c 1,13 -7,46 -26,54 9,1 11,-10 19,-24 6,-10 17,-18 7,-30 z"
       id="path33"
       style="fill:#978c8f;fill-rule:evenodd;stroke:none" />
    <path
       d="m 140,200 c 0,0 0,0 0,0 z"
       id="path35"
       style="fill:none;stroke-width:1px" />
    <path
       d="m 134,199 c 12,-2 20,-9 29,-10 8,0 18,3 25,17 -2,7 -6,-1 -1,14 -29,21 -37,-12 -53,-21 z"
       id="path37"
       style="fill:#978c8f;fill-rule:evenodd;stroke:none" />
    <path
       d="m 163,392 c 14,1 8,-5 -2,-5 -2,-10 6,-18 -5,-14 -14,-24 1,-52 10,-71 -7,-7 -13,-78 18,-82 -1,-12 -5,-11 -8,-16 5,0 8,1 -2,-21 -12,-11 -5,-23 7,-32 16,-4 19,11 41,9 28,-2 64,11 40,31 13,9 53,16 35,28 6,5 14,8 14,14 -11,11 -12,-2 -28,-1 1,8 7,0 10,10 6,9 -3,15 -6,14 -15,-17 -35,-12 -48,-7 -3,7 -4,8 1,5 9,-13 17,-8 19,-1 4,8 7,20 -1,26 22,11 15,31 15,33 56,26 115,31 177,16 42,-20 114,-9 127,59 -2,30 2,53 24,82 17,25 7,39 -4,50 -35,0 -38,-34 -42,-56 l -6,0 c 11,10 6,24 9,36 -22,3 -32,-3 -36,-13 -17,28 -61,7 -50,-4 -11,-2 -20,3 -25,-2 6,-6 -5,-5 -22,0 0,0 -49,23 -83,16 8,-5 -8,1 -20,2 7,-8 -3,-3 -14,-2 -24,14 -32,-20 -26,-14 -3,9 4,17 1,37 -26,-4 -40,-29 -47,-45 -30,28 -42,-7 -47,-26 -1,9 -11,12 -19,2 -3,-12 -2,-25 -11,-37 -6,-11 -5,-18 4,-21 z m 53,-184 c 6,0 12,-2 18,-5 18,5 17,8 25,15 -12,9 -14,5 -27,7 -16,-1 -16,-9 -16,-17 z"
       id="path39"
       style="fill:#978c8f;fill-rule:evenodd;stroke:none" />
    <path
       d="m 141,200 c 10,-2 16,-8 24,-9 6,0 14,3 19,15 -8,3 -28,-7 -29,-2 -3,10 25,1 29,15 -23,19 -30,-10 -43,-19 z"
       id="path41"
       style="fill-rule:evenodd;stroke:none" />
    <path
       d="m 167,391 c 15,1 24,-3 21,-19 -4,10 -12,14 -22,14 -2,-9 20,-27 2,-40 0,10 4,23 -7,27 -13,-24 1,-51 10,-69 -7,-7 -20,-78 18,-80 -2,-11 -6,-11 -9,-15 6,0 10,-2 -1,-23 -11,-10 -11,-26 6,-32 15,-3 9,12 40,10 34,-3 56,10 32,28 13,9 57,15 37,27 7,5 14,10 14,15 -9,6 -12,-6 -28,-5 -2,16 12,7 15,17 -3,10 -6,9 -9,8 -14,-16 -42,-15 -52,-3 -3,7 4,9 9,7 9,-13 14,-10 15,-3 4,8 5,19 -4,24 7,11 26,6 16,34 -7,6 -1,37 -28,55 -1,4 1,4 6,2 18,-14 27,-31 26,-53 56,25 113,30 173,16 42,-20 113,-12 125,53 -1,29 -2,57 23,81 17,25 11,37 1,48 -35,0 -41,-34 -44,-56 l -7,0 c 11,10 6,24 9,35 -22,3 -31,-2 -35,-12 -17,27 -46,14 -49,-4 4,-24 8,-49 -9,-60 l -3,6 c 16,14 8,34 6,53 -8,4 -14,4 -18,0 5,-7 13,-10 11,-27 -8,11 -16,22 -33,27 l 6,-19 c -22,34 -54,41 -87,34 8,-5 13,-12 13,-23 -10,12 -21,23 -32,25 7,-8 8,-16 9,-24 -7,9 -12,20 -23,22 -23,13 -26,-7 -23,-21 13,-12 26,-24 26,-56 -4,-4 -7,-2 -9,1 1,20 -7,37 -22,52 -7,-1 -11,-9 -14,-18 -2,13 3,21 8,27 -3,9 -5,16 -4,35 -26,-10 -26,-27 -33,-41 -29,26 -41,-8 -45,-26 -2,9 -12,12 -19,2 -3,-12 -2,-24 -11,-36 -6,-10 -5,-17 3,-20 z m 46,-183 c 4,-6 11,2 13,-9 -5,-3 -12,-5 -13,-10 0,-8 -4,-7 -10,-2 -2,8 -17,3 -15,-8 1,-2 3,-4 6,1 -2,5 10,4 8,1 9,-13 23,1 20,6 4,15 15,4 15,-4 -3,-15 4,-14 8,-9 9,-9 12,2 16,8 -2,2 -2,4 -7,1 -4,-7 -8,-4 -13,5 0,7 -5,7 -3,10 16,5 17,13 24,20 -3,10 -17,9 -30,10 -16,-1 -20,-12 -19,-20 z"
       id="path43"
       style="fill-rule:evenodd;stroke:none" />
    <path
       d="m 227,199 c -6,-3 -13,-5 -14,-10 0,-8 -4,-7 -10,-2 -2,8 -17,3 -15,-8 1,-2 3,-4 6,1 -2,5 10,4 8,1 9,-13 23,1 20,6 4,15 15,4 15,-4 -3,-15 4,-14 8,-9 9,-9 12,2 16,8 -1,2 -2,4 -7,1 -4,-7 -8,-4 -13,5 0,7 -5,7 -3,10 -10,2 -14,9 -11,1 z"
       id="path45"
       style="fill:#978c8f;fill-rule:evenodd;stroke:none" />
    <path
       d="m 528,370 c 2,-9 8,-3 12,-1 -4,18 -4,28 9,25 -17,17 -14,-5 -21,-24 z"
       id="path47"
       style="fill:#bab7b9;fill-rule:evenodd;stroke:none" />
    <path
       d="m 520,404 c 14,-5 8,15 19,14 -8,8 -6,20 -19,-14 z"
       id="path49"
       style="fill:#bab7b9;fill-rule:evenodd;stroke:none" />
    <path
       d="m 528,442 c 6,-4 10,-3 16,-2 -11,2 -7,8 -2,13 -7,5 -8,-7 -14,-11 z"
       id="path51"
       style="fill:#bab7b9;fill-rule:evenodd;stroke:none" />
    <path
       d="m 549,241 c -12,16 -25,35 -33,53"
       id="path53"
       style="fill:none;stroke-width:3.54299998" />
    <path
       d="m 638,332 c 6,7 13,15 18,24 -5,16 -13,30 -21,41 -5,-12 -10,-21 -17,-30 l 20,-35 z"
       id="path55"
       style="fill:#ffffff;fill-rule:evenodd;stroke:none" />
    <path
       d="m 468,293 15,-19 c 13,6 34,7 33,19 -10,10 -32,-11 -48,0 z"
       id="path57"
       style="fill:#ffffff;fill-rule:evenodd;stroke:none" />
    <path
       d="m 485,273 -17,22"
       id="path59"
       style="fill:none;stroke-width:3.18899989" />
  </g>
  <g
     id="unguled"
     style="fill:#ff0000;fill-opacity:1;fill-rule:evenodd;stroke:#000000;stroke-width:3;stroke-linecap:butt;stroke-linejoin:miter;stroke-miterlimit:4;stroke-opacity:1;stroke-dasharray:none">
    <path
       d="m 227,657 c 10,1 22,-2 29,5 -8,4 -8,35 -21,45 -5,-4 -5,-11 -4,-20 -3,6 -5,11 -11,13 -7,-23 5,-28 7,-43 z"
       id="path62"
       style="fill:#ff0000;fill-rule:evenodd;stroke:none" />
    <path
       d="m 116,576 c 6,15 16,29 15,44 -10,2 -8,-17 -16,-12 -4,4 3,15 -4,21 -21,-16 -10,-33 -12,-51 0,-8 10,-5 17,-2 z"
       id="path64"
       style="fill:#ff0000;fill-rule:evenodd;stroke:none" />
    <path
       d="m 406,629 c 10,5 16,2 22,-1 2,23 3,47 -15,54 -11,-10 -1,-23 -5,-28 -8,1 -5,23 -13,22 -7,-16 2,-32 11,-47 z"
       id="path66"
       style="fill:#ff0000;fill-rule:evenodd;stroke:none" />
    <path
       d="m 554,641 c -3,-8 -15,-5 -25,-5 -9,11 -14,26 -10,40 8,3 8,-13 15,-13 0,8 -8,14 -1,19 10,3 25,-19 21,-41 z"
       id="path68"
       style="fill:#ff0000;fill-rule:evenodd;stroke:none" />
  </g>
  <g
     id="banner"
     style="stroke:#000000;stroke-width:3;stroke-linecap:butt;stroke-linejoin:miter;stroke-miterlimit:4;stroke-opacity:1;stroke-dasharray:none">
    <path
       d="m 455,58.8 c -3,0.5 -5,2.5 -6,5.2 l 0,0 c 0,0 -3,-1 -4,-0.9 -5,0.2 -9,4 -9,8.6 1,3.7 1,5.5 5,6.5 l -8,11.4 -9,-6.5 c 1,-1.6 1,-1.8 1,-4.4 0,-4.6 -4,-8.2 -9,-8 -2,0 -6,2.6 -6,2.6 l 0,0 c -1,-1.7 -3,-2.7 -6,-2.6 0,0 0,0 0,0.1 -5,0.4 -8,4.1 -8,8.6 0,0.2 0,0.4 0,0.6 0,3.1 5,6.8 5,6.8 l 0,0 c 0,0 -1,2.7 -1,4.1 1,4.6 4,8.3 9,8.1 4,-0.1 6,-1.1 7,-4.4 l 9,6.4 -6,9 c -2,-2 -2,-1 -5,-1 -4,0 -8,4 -8,8 0,3 1,5 3,6 l 0,0 c 0,0 -3,4 -3,6 0,5 9,8 9,8 l 0,0 c 0,0 6,-2 7,-5 l 0,0 c 0,0 3,1 4,1 5,0 9,-4 8,-9 0,-3 -1,-5 -4,-6 l 6,-9 11,8 c -1,1 -1,3 -1,5 0,5 4,8 9,8 2,0 5,-2 5,-2 l 0,0 c 2,1 4,2 7,2 4,0 8,-9 8,-9 l 0,0 -6,-7 0,0 c 0,0 1,-3 1,-4 0,-5 -4,-8 -8,-8 -4,0 -6,1 -7,4 L 444,97.9 452,86 c 1,1.8 2,1.7 5,1.6 4,-0.2 8,-4.1 8,-8.7 0,-2.3 -1,-4.3 -3,-5.8 l 0,0 c 0,0 3,-3.8 3,-6.3 0,-4.6 -4,-8 -9,-8 l -1,0 0,0 0,0 0,0 z"
       id="path71"
       style="fill:#ffffff;stroke-width:2.83500004" />
    <path
       d="m 320.6,183.1 c 0,5.706 -4.438,10.14 -10.14,10.14 -5.706,0 -10.14,-4.438 -10.14,-10.14 0,-5.706 4.438,-10.14 10.14,-10.14 5.706,0 10.14,4.438 10.14,10.14 z"
       id="path73"
       style="fill:#ffffff;stroke-width:2.83500004" />
    <path
       d="m 480.7,112 c 0,5.625 -4.361,10 -9.968,10 -5.607,0 -9.968,-4.375 -9.968,-10 0,-5.625 4.361,-10 9.968,-10 5.607,0 9.968,4.375 9.968,10 z"
       id="path75"
       style="fill:#ffffff;stroke-width:2.83500004" />
    <path
       d="m 319.8,175.1 143.5,-63.74 3.6,8.244 -143.5,63.74 z"
       id="path77"
       style="fill:#ffffff;stroke-width:2.10599995" />
    <path
       d="m 456,122 c -37,23 -75,43 -117,56 49,35 85,78 156,99 31,7 27,27 0,18 -31,-12 -43,12 -4,15 150,13 160,115 151,195 l -29,-45 c 16,-40 52,-27 54,-78 -8,-48 -63,-84 -106,-101 29,11 104,-4 81,34 -1,35 -25,57 -44,82 l 11,28 c 42,-44 56,-89 48,-134 -12,-41 -63,-43 -108,-49 6,-7 22,-14 12,-25 -37,-26 -68,-54 -105,-95 z"
       id="path79"
       style="fill:#00ff00;fill-rule:nonzero;stroke-width:3.54299998" />
    <path
       d="m 436,155 -29,16 c 15,7 26,20 41,31 -8,7 -16,13 -32,17 l 30,21 c 4,-7 10,-13 21,-20 15,12 33,23 48,37 l 17,-23 c -16,-7 -31,-16 -44,-26 3,-6 12,-10 21,-13 l -21,-20 c -5,6 -12,11 -19,16 -15,-11 -29,-24 -33,-36 z"
       id="path81"
       style="fill:#e21313;fill-rule:evenodd;stroke-width:3.54299998" />
  </g>
</svg>
