<?xml version="1.0" encoding="UTF-8" standalone="no"?>
<!-- Created with Inkscape (http://www.inkscape.org/) -->
<svg xmlns:dc="http://purl.org/dc/elements/1.1/" xmlns:cc="http://creativecommons.org/ns#" xmlns:rdf="http://www.w3.org/1999/02/22-rdf-syntax-ns#" xmlns:svg="http://www.w3.org/2000/svg" xmlns="http://www.w3.org/2000/svg" xmlns:sodipodi="http://sodipodi.sourceforge.net/DTD/sodipodi-0.dtd" xmlns:inkscape="http://www.inkscape.org/namespaces/inkscape" width="307.24664" height="370.09494" id="svg3308" version="1.1" inkscape:version="0.48.2 r9819" sodipodi:docname="New document 2">
  <defs id="defs3310"/>
  <sodipodi:namedview id="base" pagecolor="#ffffff" bordercolor="#666666" borderopacity="1.0" inkscape:pageopacity="0.0" inkscape:pageshadow="2" inkscape:zoom="0.35" inkscape:cx="369.87655" inkscape:cy="-151.6427" inkscape:document-units="px" inkscape:current-layer="svg3308" showgrid="false" fit-margin-top="0" fit-margin-left="0" fit-margin-right="0" fit-margin-bottom="0" inkscape:window-width="1574" inkscape:window-height="1028" inkscape:window-x="98" inkscape:window-y="-8" inkscape:window-maximized="1"/>
  <metadata id="metadata3313">
    <rdf:RDF>
      <cc:Work rdf:about="">
        <dc:format>image/svg+xml</dc:format>
        <dc:type rdf:resource="http://purl.org/dc/dcmitype/StillImage"/>
        <dc:title/>
        <dc:creator>
          <cc:Agent>
            <dc:title>http://commons.wikimedia.org/wiki/User:LeMorvandiau</dc:title>
          </cc:Agent>
        </dc:creator>
      </cc:Work>
    </rdf:RDF>
  </metadata>
  <g id="body" inkscape:label="#g3353">
    <path inkscape:connector-curvature="0" style="fill:#e20909;fill-opacity:1;fill-rule:nonzero;stroke:#e20909;stroke-width:1;stroke-linecap:round;stroke-linejoin:round;stroke-miterlimit:4;stroke-opacity:1;stroke-dasharray:none;stroke-dashoffset:8.75681145;marker:none;visibility:visible;display:inline;overflow:visible;enable-background:accumulate" d="m138.5,0.5   c0,0 1.489,21.59 -11.17,43.92 -12.66,22.33 -18.61,33.5 -14.14,44.67 4.467,11.17 16.38,20.84 14.14,34.99 -13.72,31.39 1.236,39.14 4.467,67 -4.282,21.27 -7.316,42.82 0,64.02 -19.84,-24.94 -6.431,-37.62 -9.678,-58.81 -17.77,-43.3 -17.08,-52.2 -15.63,-72.95 0.7444,-13.4 1.842,-27.81 1.842,-27.81 0,0 -12.26,21.86 -11.52,36.75 5.302,20.06 -4.169,40.72 0.7444,60.3 11.74,33.28 -10.79,48.37 17.87,95.29 0,0 -17.87,-5.955 -23.82,-22.33 -5.955,-16.38 -2.233,-30.52 -4.467,-50.62   C72.89,160.7 86.85,160.5 79.69,143.4 71.21,124 72.25,125.6 72.25,112.2   c0,-13.4 -3.685,-22.12 -3.685,-22.12 0,0 -8.226,22.87 -8.226,34.78 0.1105,25.53 8.997,28.07 7.444,75.93 7.67,18.92 -12.41,30.67 -12.66,48.39 -2.3,20.33 0.7863,21.37 16.38,33.5 -17.1,5.322 -24.77,-15.39 -26.06,-29.03 0.7444,-8.189 5.211,-27.54 2.233,-35.73 -5.178,-12.85 -10.37,-25.52 -10.42,-39.45 2.91,-14.22 2.415,-35.4 1.912,-28.71 -0.4553,6.06 -7.791,7.646 -11.59,21.26 -2.233,10.42 -5.211,25.31 -1.489,33.5 9.858,16.14 7.382,27.76 3.722,50.62 -3.123,17.53 9.411,34.6 23.08,44.67 7.444,4.467 12.66,8.189 12.66,8.189 -5.198,9.29 -16.12,1.998 -20.84,-2.978 -12.66,-14.14 -14.89,-11.91 -20.1,-22.33 -5.211,-10.42 -6.083,-18.66 -6.083,-18.66 0,0 -5.828,12.71 -2.106,19.41 3.308,9.459 9.471,16.17 16.38,23.08 -9.49,4.05 -16.78,-5.712 -23.82,-10.42 -8.621,-8.892 -8.313,-13.98 -8.313,-13.98 0,0 -1.365,14.73 3.846,21.43   C25.48,326.1 45.79,326 73.74,316.1   c-6.442,12.88 -18.61,12.57 -30.52,16.38 -4.467,1.489 -16.12,-0.6167 -16.12,-0.6167 0,0 8.678,5.828 18.36,8.061 16.16,5.18 31.7,2.251 45.41,-7.444 9.678,-7.444 12.66,-14.89 12.66,-14.89 -2.352,11.37 -5.74,25.25 5.211,32.76 7.444,3.722 12.71,2.669 12.71,2.669 0,0 -7.497,-7.136 -8.242,-12.35 -1.332,-9.503 6.214,-17.81 14.89,-20.84 0,0 -0.7444,13.4 1.489,16.38 2.233,2.978 8.189,10.42 16.38,13.4 8.189,2.978 11.06,2.263 17.43,6.519 6.881,4.594 7.354,13.44 7.354,13.44 17.72,-10.15 -3.53,-29.14 -10.64,-38.57 0,0 6.7,3.722 11.17,7.444 4.467,3.722 8.933,10.42 16.38,11.91 7.444,1.489 10.42,2.978 19.36,2.978 6.513,0.1727 14.44,-1.073 17.87,-7.444 0,0 -8.189,1.489 -16.38,-2.233 -8.189,-3.722 -10.42,-1.489 -16.38,-9.678 -7.182,-7.603 -8.189,-15.46 -8.189,-25.31 0,0 15.63,6.7 22.33,12.66 6.7,5.955 7.444,12.66 16.38,15.63 15.61,5.173 25.57,-9.237 40.94,1.489 8.933,7.444 13.27,13.49 13.27,13.49 1.369,-14.27 -3.299,-20.75 -6.572,-24.66 -11.59,-13.01 -29.52,-3.876 -43.18,-8.933 0,0 10.42,-3.722 17.87,-3.722 19.46,3.431 22.01,-0.4857 37.97,-8.189 9.615,-3.867 15.01,-8.04 22.59,-18.8 0,0 -10.68,10.61 -18.12,9.866 -12.12,-2.01 -24.16,-4.187 -36.48,-4.467 8.18,-6.743 19.22,-1.353 28.29,-4.467 6.7,-2.978 3.722,0 10.42,-7.444 6.7,-7.444 6.64,-2.543 11.17,-10.42 5.025,-8.747 5.955,-15.26 5.955,-15.26 0,0 -2.233,5.769 -9.678,7.072 -8.361,1.463 -9.678,6.7 -17.12,8.189 -18.03,0.1619 -24.27,1.998 -38.71,12.66 6.25,-33.9 9.402,-29.04 20.1,-40.2 2.978,-6.7 4.653,-16.75 4.653,-16.75 0,0 -6.142,10.79 -15.07,13.77 -15.8,2.726 -17.14,19.09 -23.82,30.52 -3.063,8.476 -10.64,11.19 -17.12,16.38 12.45,-17.87 -3.277,-38.66 5.211,-57.32 9.806,-13.17 18.41,-32.03 12.66,-48.39 -8.003,-14.27 -0.8988,-30.58 -8.933,-44.67 -16.13,-15.13 -6.821,-29.73 -13.4,-50.62 -3.722,-11.17 -0.7444,-20.84 -0.7444,-26.8 0,-5.955 -0.7444,-10.42 -0.7444,-10.42 0,0 -10.42,17.87 -11.91,29.03 1.315,21.26 -3.323,46.13 5.211,66.25 10.12,14.68 8.72,35.63 1.489,51.37 -10.09,14.13 -13.97,29.06 -14.14,46.15 -11.7,-3.583 -3.63,-26.36 -3.722,-35.73 -0.2714,-19.34 -14.58,-33.93 -18.61,-52.11 -5.998,-18.68 3.728,-37.94 -0.7444,-56.58 -8.918,-15.59 -16.76,-30.68 -14.14,-49.13 4.824,-20.06 1.767,-30.45 -8.933,-47.64   z " id="path3062" sodipodi:nodetypes="csscccccccccsccsccccccccsccccccsccccccccccccccccsssccssccsccscccccccccccsscscccccccccccscccccccccc"/>
    <path inkscape:connector-curvature="0" style="fill:#e20909;fill-opacity:1;fill-rule:nonzero;stroke:#e20909;stroke-width:1;stroke-linecap:round;stroke-linejoin:round;stroke-miterlimit:4;stroke-opacity:1;stroke-dasharray:none;stroke-dashoffset:8.75681145;marker:none;visibility:visible;display:inline;overflow:visible;enable-background:accumulate" d="m48.1,135.1   c0,0 -1.906,20.2 -3.023,23.92 -1.117,3.722 -1.861,13.4 -0.7444,18.61 1.117,5.211 0.7255,13.67 5.211,19.73 5.237,7.072 6.418,18.51 6.418,18.51 0,0 3.647,-14.06 1.399,-20.37 -2.106,-5.91 -3.82,-13.8 -4.192,-19.01 -0.3722,-5.211 5.926,-12.31 2.331,-19.33 -2.869,-5.602 -7.181,-16.69 -7.399,-22.06   z " id="path3064" sodipodi:nodetypes="cssscsssc"/>
    <path inkscape:connector-curvature="0" style="fill:#e20909;fill-opacity:1;fill-rule:nonzero;stroke:#e20909;stroke-width:1;stroke-linecap:round;stroke-linejoin:round;stroke-miterlimit:4;stroke-opacity:1;stroke-dasharray:none;stroke-dashoffset:8.75681145;marker:none;visibility:visible;display:inline;overflow:visible;enable-background:accumulate" d="m168.1,53.97   c0,0 -7.268,22.58 0.9547,35.49 5.713,12.07 -0.4368,25.42 1.861,37.97 1.069,13.24 9.263,23.96 12.28,36.48 2.233,10.42 2.978,18.98 2.978,18.98 6.852,-14.09 5.811,-23.66 4.44,-30.47 -5.672,-13.77 -6.472,-19.97 -5.185,-36.53 -2,-30.03 -4.839,-35.59 -10.92,-41.72 -6.718,-4.92 -6.838,-20.02 -6.41,-20.19   z " id="path3066" sodipodi:nodetypes="ccccccccc"/>
    <path inkscape:connector-curvature="0" style="fill:#e20909;fill-opacity:1;fill-rule:nonzero;stroke:#e20909;stroke-width:1;stroke-linecap:round;stroke-linejoin:round;stroke-miterlimit:4;stroke-opacity:1;stroke-dasharray:none;stroke-dashoffset:8.75681145;marker:none;visibility:visible;display:inline;overflow:visible;enable-background:accumulate" d="m246.4,160.2   c0,0 -5.955,19.36 -6.328,21.59 -4.131,7.574 -2.962,16.21 -5.583,24.19 0,16.75 -5.211,14.89 -7.817,18.24 -2.606,3.35 -5.211,9.305 -5.583,14.14 -0.3722,4.839 2.233,23.82 2.233,23.82 5.419,-6.003 7.287,-15.08 11.17,-22.33 4.467,-7.817 7.817,-11.54 11.17,-18.98 3.35,-7.444 0,-13.59 -0.3722,-21.4 -0.3722,-7.817 4.467,-11.35 3.722,-20.29 -0.7444,-8.933 -2.233,-18.98 -2.606,-18.98   z " id="path3068" sodipodi:nodetypes="cccssccsssc"/>
    <path inkscape:connector-curvature="0" style="fill:#e20909;fill-opacity:1;fill-rule:nonzero;stroke:#e20909;stroke-width:1;stroke-linecap:round;stroke-linejoin:round;stroke-miterlimit:4;stroke-opacity:1;stroke-dasharray:none;stroke-dashoffset:8.75681145;marker:none;visibility:visible;display:inline;overflow:visible;enable-background:accumulate" d="m96.31,24.76   c0,0 -9.167,20.78 -10.28,24.13 -1.117,3.35 1.44,9.369 -1.165,19.42 -2.606,10.05 -6.997,19.52 -5.136,23.99 1.861,4.467 -1.279,15.19 -1.279,23.75 0,8.561 0.8799,13.62 3.858,19.57 2.978,5.955 7.753,13.84 7.753,13.84 0,0 -0.3084,-9.005 -0.3084,-16.08 0,-7.072 -0.3722,-8.189 2.606,-18.24 2.978,-10.05 5.211,-14.14 5.583,-21.96 0.3722,-7.817 1.489,-16.38 -0.3722,-21.96 -1.861,-5.583 -2.129,-13.28 -4.839,-20.84 -3.177,-8.869 3.956,-25.62 3.583,-25.62   z " id="path3070" sodipodi:nodetypes="cssssscsssssc"/>
  </g>
</svg>
