<?xml version="1.0" encoding="utf-8"?>
<svg xmlns:xl="http://www.w3.org/1999/xlink" xmlns="http://www.w3.org/2000/svg"
     xmlns:dc="http://purl.org/dc/elements/1.1/"
     xmlns:xlink="http://www.w3.org/1999/xlink"
     version="1.1"
     viewBox="73.17036 63 79.82964 351"
     width="79.82964"
     height="351"
     preserveAspectRatio="xMidYMid meet"
     zoomAndPan="magnify"
     contentScriptType="application/ecmascript"
     contentStyleType="text/css">
   <defs/>
   <metadata  xmlns:svg="http://www.w3.org/2000/svg"
             xmlns:rdf="http://www.w3.org/1999/02/22-rdf-syntax-ns#"
             xmlns:cc="http://creativecommons.org/ns#">
      <rdf:RDF>
         <cc:Work rdf:about="">
            <dc:creator>
               <cc:Agent>
                  <dc:title>http://heraldicart.org Coulter (1).svg</dc:title>
               </cc:Agent>
            </dc:creator>
         </cc:Work>
      </rdf:RDF>
   </metadata>
   <g stroke-opacity="1" fill="#ffff00" fill-opacity="1" stroke="#505050"
      stroke-dasharray="none">
      <title>Coulter (1)</title>
      <g>
         <title>Layer 2</title>
         <g>
            <g>
               <path d="M 75.96018 65.25 C 75.96018 65.25 113.08518 94.95 130.41018 174.15 C 147.73518 253.35 150.21018 404.325 150.21018 404.325 L 108.13518 404.325 L 113.08518 339.975 L 88.33518 339.975 C 88.33518 339.975 95.76018 250.875 93.28518 191.475 C 90.81018 132.075 75.96018 65.25 75.96018 65.25 Z"/>
               <path d="M 75.96018 65.25 C 75.96018 65.25 113.08518 94.95 130.41018 174.15 C 147.73518 253.35 150.21018 404.325 150.21018 404.325 L 108.13518 404.325 L 113.08518 339.975 L 88.33518 339.975 C 88.33518 339.975 95.76018 250.875 93.28518 191.475 C 90.81018 132.075 75.96018 65.25 75.96018 65.25 Z"
                     stroke="black"
                     stroke-linecap="round"
                     stroke-linejoin="round"
                     stroke-width="2.2"/>
            </g>
            <g>
               <ellipse cx="129.17268" cy="405.5625" rx="21.0375336158612" ry="6.18750988701803"/>
               <ellipse cx="129.17268" cy="405.5625" rx="21.0375336158612" ry="6.18750988701803"
                        stroke="black"
                        stroke-linecap="round"
                        stroke-linejoin="round"
                        stroke-width="2.2"/>
            </g>
            <g>
               <path d="M 114.4816 391.675 C 114.38642 391.85935 114.2901 392.0427 114.19267 392.225 L 108.4402 392.225 C 108.2404 392.225 108.07843 392.1019 108.07843 391.95 C 108.07843 391.7981 108.2404 391.675 108.4402 391.675 Z M 116.68161 386.725 C 116.61178 386.909 116.541 387.09236 116.46926 387.275 L 108.9857 387.275 C 108.78591 387.275 108.62395 387.1519 108.62395 387 C 108.62395 386.8481 108.78591 386.725 108.9857 386.725 Z M 118.2885 381.775 C 118.23823 381.9588 118.1871 382.14214 118.13512 382.325 L 109.53122 382.325 C 109.33142 382.325 109.16946 382.2019 109.16946 382.05 C 109.16946 381.8981 109.33142 381.775 109.53122 381.775 Z M 119.41763 376.825 C 119.38369 377.00864 119.34895 377.19198 119.31343 377.375 L 110.07673 377.375 C 109.87693 377.375 109.71497 377.2519 109.71497 377.1 C 109.71497 376.9481 109.87693 376.825 110.07673 376.825 Z M 120.13438 371.875 C 120.11493 372.0585 120.09474 372.24184 120.07378 372.425 L 110.62224 372.425 C 110.42244 372.425 110.26048 372.3019 110.26048 372.15 C 110.26048 371.9981 110.42244 371.875 110.62224 371.875 Z M 120.47486 366.925 C 120.46897 367.1084 120.46234 367.29173 120.45497 367.475 L 111.16775 367.475 C 110.96795 367.475 110.80599 367.3519 110.80599 367.2 C 110.80599 367.0481 110.96795 366.925 111.16775 366.925 Z M 120.45497 361.975 C 120.46234 362.15827 120.46897 362.3416 120.47486 362.525 L 111.71326 362.525 C 111.51347 362.525 111.3515 362.40188 111.3515 362.25 C 111.3515 362.09812 111.51347 361.975 111.71326 361.975 Z M 120.07378 357.025 C 120.09474 357.20816 120.11493 357.3915 120.13438 357.575 L 112.25877 357.575 C 112.05898 357.575 111.89701 357.45188 111.89701 357.3 C 111.89701 357.14812 112.05898 357.025 112.25877 357.025 Z M 119.31343 352.075 C 119.34895 352.25802 119.38369 352.44136 119.41763 352.625 L 112.80428 352.625 C 112.60449 352.625 112.44252 352.50188 112.44252 352.35 C 112.44252 352.19812 112.60449 352.075 112.80428 352.075 Z M 118.13512 347.125 C 118.1871 347.30786 118.23823 347.4912 118.2885 347.675 L 113.34979 347.675 C 113.15 347.675 112.98803 347.55188 112.98803 347.4 C 112.98803 347.24812 113.15 347.125 113.34979 347.125 Z M 116.46926 342.175 C 116.541 342.35764 116.61178 342.54098 116.68161 342.725 L 113.8953 342.725 C 113.69551 342.725 113.53354 342.60188 113.53354 342.45 C 113.53354 342.29812 113.69551 342.175 113.8953 342.175 Z"
                     stroke="black"
                     stroke-linecap="round"
                     stroke-linejoin="round"
                     stroke-width="1.1"/>
            </g>
            <g>
               <path d="M 130.76514 325.03906 L 137.84446 325.03906 C 137.83497 324.85583 137.82545 324.6724 137.8159 324.48882 L 130.73657 324.48882 C 130.74612 324.6724 130.75565 324.85583 130.76514 325.03906 Z M 130.50333 320.08692 L 137.58265 320.08692 C 137.57277 319.90367 137.56285 319.72026 137.5529 319.5367 L 130.47358 319.5367 C 130.48353 319.72026 130.49344 319.90367 130.50333 320.08692 Z M 130.23084 315.13478 L 137.31016 315.13478 C 137.29988 314.9515 137.28956 314.7681 137.27921 314.58454 L 130.19989 314.58454 C 130.21024 314.7681 130.22055 314.9515 130.23084 315.13478 Z M 129.9474 310.18264 L 137.02672 310.18264 C 137.01602 309.99935 137.0053 309.81594 136.99454 309.6324 L 129.91521 309.6324 C 129.92597 309.81594 129.9367 309.99935 129.9474 310.18264 Z M 129.6527 305.2305 L 136.73202 305.2305 C 136.7209 305.0472 136.70975 304.8638 136.69856 304.68026 L 129.61924 304.68026 C 129.63042 304.8638 129.64157 305.0472 129.6527 305.2305 Z M 129.3464 300.27836 L 136.42572 300.27836 C 136.41416 300.09504 136.40258 299.91163 136.39096 299.72812 L 129.31163 299.72812 C 129.32325 299.91163 129.33484 300.09504 129.3464 300.27836 Z M 129.02814 295.3262 L 136.10746 295.3262 C 136.09545 295.1429 136.08341 294.95947 136.07134 294.77598 L 128.99202 294.77598 C 129.00409 294.95947 129.01613 295.1429 129.02814 295.3262 Z M 128.6975 290.37408 L 135.77683 290.37408 C 135.76435 290.19073 135.75185 290.0073 135.73931 289.82384 L 128.65999 289.82384 C 128.67252 290.0073 128.68503 290.19073 128.6975 290.37408 Z M 128.35406 285.42193 L 135.43339 285.42193 C 135.42043 285.23858 135.40744 285.05516 135.39441 284.8717 L 128.31509 284.8717 C 128.32811 285.05516 128.3411 285.23858 128.35406 285.42193 Z M 127.99732 280.4698 L 135.07664 280.4698 C 135.06318 280.28642 135.04969 280.103 135.03616 279.91956 L 127.95684 279.91956 C 127.97036 280.103 127.98386 280.28642 127.99732 280.4698 Z M 127.62675 275.51765 L 134.70608 275.51765 C 134.69209 275.33427 134.67807 275.15086 134.66402 274.9674 L 127.5847 274.9674 C 127.59875 275.15086 127.61276 275.33427 127.62675 275.51765 Z M 127.24177 270.5655 L 134.3211 270.5655 C 134.30657 270.38212 134.292 270.1987 134.2774 270.01527 L 127.19808 270.01527 C 127.21268 270.1987 127.22724 270.38212 127.24177 270.5655 Z M 126.84176 265.61337 L 133.92108 265.61337 C 133.90598 265.42996 133.89084 265.24655 133.87568 265.06313 L 126.79635 265.06313 C 126.81152 265.24655 126.82665 265.42996 126.84176 265.61337 Z M 126.426 260.66123 L 133.50533 260.66123 C 133.48963 260.4778 133.4739 260.2944 133.45813 260.111 L 126.3788 260.111 C 126.39457 260.2944 126.4103 260.4778 126.426 260.66123 Z M 125.99374 255.7091 L 133.07307 255.7091 C 133.05674 255.52566 133.04038 255.34225 133.02399 255.15885 L 125.94466 255.15885 C 125.96106 255.34225 125.97742 255.52566 125.99374 255.7091 Z M 125.54414 250.75695 L 132.62347 250.75695 C 132.60648 250.5735 132.58946 250.3901 132.5724 250.2067 L 125.49308 250.2067 C 125.51013 250.3901 125.52716 250.5735 125.54414 250.75695 Z M 125.07627 245.8048 L 132.1556 245.8048 C 132.13791 245.62135 132.12019 245.43794 132.10243 245.25457 L 125.02311 245.25457 C 125.04087 245.43794 125.05858 245.62135 125.07627 245.8048 Z M 124.58909 240.85267 L 131.66842 240.85267 C 131.65 240.6692 131.63154 240.4858 131.61304 240.30243 L 124.53372 240.30243 C 124.55221 240.4858 124.57067 240.6692 124.58909 240.85267 Z M 124.08147 235.90052 L 131.1608 235.90052 C 131.14159 235.71705 131.12235 235.53363 131.10307 235.3503 L 124.02375 235.3503 C 124.04303 235.53363 124.06227 235.71705 124.08147 235.90052 Z M 123.55212 230.94838 L 130.63145 230.94838 C 130.61142 230.7649 130.59134 230.58148 130.57123 230.39815 L 123.4919 230.39815 C 123.51202 230.58148 123.53209 230.7649 123.55212 230.94838 Z M 122.99963 225.99624 L 130.07896 225.99624 C 130.05803 225.81274 130.03707 225.62932 130.01607 225.446 L 122.93675 225.446 C 122.95775 225.62932 122.97871 225.81274 122.99963 225.99624 Z M 122.42238 221.0441 L 129.5017 221.0441 C 129.47983 220.86058 129.45792 220.67717 129.43596 220.49386 L 122.35664 220.49386 C 122.3786 220.67717 122.40051 220.86058 122.42238 221.0441 Z M 121.81855 216.09196 L 128.89788 216.09196 C 128.87498 215.90842 128.85204 215.725 128.82906 215.54172 L 121.74973 215.54172 C 121.77272 215.725 121.79566 215.90842 121.81855 216.09196 Z M 121.18608 211.13982 L 128.2654 211.13982 C 128.2414 210.95627 128.21736 210.77285 128.19326 210.58958 L 121.11394 210.58958 C 121.13803 210.77285 121.16208 210.95627 121.18608 211.13982 Z M 120.52259 206.18768 L 127.60191 206.18768 C 127.57671 206.0041 127.55146 205.8207 127.52616 205.63744 L 120.44684 205.63744 C 120.47214 205.8207 120.49739 206.0041 120.52259 206.18768 Z M 119.82534 201.23554 L 126.90467 201.23554 C 126.87815 201.05194 126.85159 200.86853 126.82498 200.6853 L 119.74565 200.6853 C 119.77227 200.86853 119.79883 201.05194 119.82534 201.23554 Z M 119.09115 196.2834 L 126.17047 196.2834 C 126.14252 196.09978 126.11452 195.91637 126.08646 195.73316 L 119.00713 195.73316 C 119.03519 195.91637 119.0632 196.09978 119.09115 196.2834 Z M 118.31626 191.33126 L 125.39558 191.33126 C 125.36604 191.14761 125.33644 190.9642 125.30679 190.78102 L 118.22746 190.78102 C 118.25712 190.9642 118.28672 191.14761 118.31626 191.33126 Z M 117.49622 186.37911 L 124.57555 186.37911 C 124.54423 186.19544 124.51286 186.01203 124.48142 185.82888 L 117.4021 185.82888 C 117.43353 186.01203 117.46491 186.19544 117.49622 186.37911 Z M 116.62568 181.42697 L 123.705 181.42697 C 123.6717 181.24327 123.63832 181.05985 123.60489 180.87674 L 116.52556 180.87674 C 116.559 181.05985 116.59237 181.24327 116.62568 181.42697 Z M 115.69808 176.47483 L 122.7774 176.47483 C 122.74183 176.29108 122.70619 176.10767 122.67048 175.9246 L 115.59115 175.9246 C 115.62686 176.10767 115.6625 176.29108 115.69808 176.47483 Z M 114.70528 171.5227 L 121.7846 171.5227 C 121.76538 171.43013 121.74613 171.33767 121.72687 171.24531 C 121.70789 171.1543 121.68888 171.06334 121.66985 170.97245 L 114.59052 170.97245 C 114.60955 171.06334 114.62856 171.1543 114.64755 171.24531 C 114.66681 171.33767 114.68605 171.43013 114.70528 171.5227 Z M 113.63824 166.57055 L 120.71757 166.57055 C 120.67654 166.38686 120.63542 166.20345 120.5942 166.02031 L 113.51487 166.02031 C 113.55609 166.20345 113.59722 166.38686 113.63824 166.57055 Z"
                     stroke="black"
                     stroke-linecap="round"
                     stroke-linejoin="round"
                     stroke-width="1.1"/>
            </g>
         </g>
      </g>
   </g>
</svg>