<?xml version="1.0" encoding="UTF-8" standalone="no"?>
<!-- Created with Inkscape (http://www.inkscape.org/) -->

<svg
   width="46.181"
   height="20.076"
   viewBox="0 0 46.181 20.076"
   version="1.1"
   id="svg22196"
   xmlns="http://www.w3.org/2000/svg"
   xmlns:svg="http://www.w3.org/2000/svg"
   xmlns:rdf="http://www.w3.org/1999/02/22-rdf-syntax-ns#"
   xmlns:cc="http://creativecommons.org/ns#"
   xmlns:dc="http://purl.org/dc/elements/1.1/">
  <defs
     id="defs22193" />
  <g
     id="layer1"
     transform="translate(0.00274,-2.8586e-4)">
    <g
       transform="matrix(0.26458,0,0,0.26458,-114.03,62.883)"
       id="g12897">
      <g
         id="g12735">
        <path
           d="m 469.89,-189.44 c 0,0 -3.21,0 -4.5,-0.78 -1.4,-0.82 -2.9,-3.71 -2.9,-3.71 0,0 -3.54,0.57 -5.17,0.22 -1.7,-0.37 -4.14,-2.32 -4.14,-2.32 1.63,-0.24 2.85,-0.48 4.42,-1.76 0,0 -3.14,-0.16 -4.92,-0.85 -1.56,-0.6 -4.09,-2.58 -4.09,-2.58 1.45,-0.36 3.01,-0.32 4.16,-1.74 0,0 -3.08,0 -4.47,-0.48 -1.39,-0.5 -3.59,-2.46 -3.59,-2.46 1.69,-0.14 3.29,-0.46 4.38,-1.82 0,0 -3.12,0.1 -4.43,-0.41 -1.82,-0.72 -4.61,-3.1 -4.61,-3.1 1.75,-0.13 3.5,-0.28 4.82,-1.28 l -0.98,-2 c -1.19,-2.41 -3.68,-1.56 -5.34,-2.22 -1.62,-0.66 -2.53,-2.44 -2.62,-3.43 -0.16,-1.77 0.74,-4.45 4.72,-3.89 -1.98,-3.01 0.1,-5.18 2.18,-6.04 2.02,-0.84 3.8,-0.61 5.18,2.69 0,0 1.84,-1.49 2.84,-1.71 1.39,-0.31 2.96,0.15 3.45,1.45 0.2,0.54 0.28,1.65 -0.1,2.32 -0.54,1.06 -1.73,1.78 -2.12,3.33 -0.44,1.75 1.18,4.8 1.18,4.8 0,0 7.64,6.05 11.15,9.37 1.87,1.76 5.26,5.58 5.26,5.58 l 0.19,-0.11 h 7.57 l 0.68,12.77 -8.24,0.16 z"
           fill="#e4c900"
           stroke="#806600"
           id="path12721" />
        <path
           transform="translate(-265.27,-795.88)"
           d="m 728.67,600.09 c 0,0 2.14,3.01 3.34,3.58 1.15,0.55 3.35,0 3.35,0 l -0.72,-1.55 h -0.95 c -2.5,-3 -4.63,-6.52 -3.95,-10.51 0,0 -2.83,-3.14 -4.53,-4.66 -2.25,-1.99 -8.24,-6.44 -8.24,-6.44 0,0 -1.38,-3.33 -1.56,-5.62 -0.1,-1.01 0.14,-2.08 0.6,-2.98 0.48,-0.93 1.89,-1.26 2.15,-2.27 0.1,-0.32 0,-0.71 -0.24,-0.96 -0.25,-0.3 -0.68,-0.5 -1.07,-0.47 -1.48,0.1 -3.82,2.26 -3.82,2.26 0,0 -1.47,-2.63 -2.75,-3.22 -0.54,-0.25 -1.24,-0.23 -1.79,0 -0.52,0.22 -1.03,0.66 -1.2,1.19 -0.51,1.72 1.08,5.26 1.08,5.26 0,0 -3.45,-0.88 -4.78,0 -0.5,0.33 -0.76,1.07 -0.71,1.67 0,0.66 0.53,1.29 1.07,1.67 1.47,1.05 5.26,1.32 5.26,1.32 l 4.41,5.97 -4.65,1.31 c 1.77,0.97 3.16,1.29 8,1.31 -0.99,2.07 -2.43,2.78 -3.7,3.71 l 8.12,1.19 c -0.71,2.03 -2.83,2.22 -3.83,3.1 2.06,1.37 5.3,1.84 8.6,2.27 -0.44,1.67 -2.55,2.09 -4.18,2.87 1.19,0.49 3.27,0.15 6.69,0 z"
           fill="#fee46e"
           id="path12723" />
        <path
           d="m 463.96,-201.37 c -3.57,-7.42 -9.76,-11.44 -16.38,-15.4 3.97,7.44 9.25,11.97 16.38,15.4 z"
           fill="#ffefa7"
           id="path12725" />
        <g
           fill="#377bc8"
           stroke="#2c5aa0"
           stroke-width="1px"
           id="g12733">
          <path
             d="m 453.42,-228.71 c 0.27,1.26 -0.27,2.17 -1.41,2.52 -0.57,0.17 -1.23,0 -1.91,-0.71 0.33,-2.1 0.16,-2.92 -1.28,-4.72 3.61,0.78 3.75,2.38 4.6,2.91 z"
             id="path12727" />
          <path
             d="m 443.34,-229.69 c 0.76,1.04 0.66,2.09 -0.24,2.88 -0.45,0.39 -1.11,0.51 -2.03,0.14 -0.57,-2.04 -1.06,-2.72 -3.12,-3.76 3.61,-0.79 4.4,0.61 5.39,0.74 z"
             id="path12729" />
          <path
             d="m 437.61,-222.55 c 1.13,0.63 1.47,1.62 0.98,2.72 -0.24,0.54 -0.8,0.92 -1.79,0.97 -1.37,-1.62 -2.1,-2.03 -4.4,-2.11 2.95,-2.23 4.25,-1.29 5.21,-1.58 z"
             id="path12731" />
        </g>
      </g>
      <g
         id="g12751">
        <path
           d="m 513.51,-183.58 c -1.33,-0.39 -2.96,-2.14 -4.38,-2.14 -1.49,0 -2.54,0.84 -3.29,1.96 -0.36,0.54 0.2,2.53 0.76,2.92 l 2.57,1.76 c 0,0 -1.61,1.85 -1.73,2.89 -0.11,0.9 0.35,1.62 1,2.34 0.84,0.93 1.05,1.29 2.39,1.48 0.8,0.12 2.7,-0.23 2.7,-0.23 0,0 0,1.48 0.43,2.16 0.85,1.24 2.29,2.33 3.95,2.16 1.28,-0.14 1.7,-0.33 2.38,-1.29 0.54,-0.76 0.43,-2.7 1.31,-3.51 l 3.57,-3.25 c 1.54,0.93 1.5,2.32 1.31,3.75 0,0 2.28,-1.45 2.96,-2.48 0.71,-1.08 0.99,-3.63 0.99,-3.63 1.45,1.31 1.93,2.48 1.62,4.04 0,0 2.33,-1.46 3.08,-2.48 0.85,-1.16 1.57,-3.66 1.57,-3.66 1.07,1.03 1.29,2.5 0.88,4.3 0,0 2.61,-1.75 3.3,-3.15 0.55,-1.12 0.88,-3.06 0.88,-3.06 3.17,0.23 5.21,-1.15 5.35,-2.57 0.11,-1.11 -1.14,-2.61 -3.69,-3.05 0,0 -0.94,-1.41 -1.3,-2.44 -0.24,-0.72 -0.26,-1.53 0,-2.24 0.53,-1.42 1.75,-2.61 3.01,-3.63 1.72,-1.4 5.47,-3.16 5.47,-3.16 l -1.1,-5.5 -12.76,-1.95 -14.11,3.48 c 2.57,1.18 8.33,5.21 7.86,6.74 -0.18,0.57 -1.4,1.11 -1.99,1.88 -0.43,0.56 -0.1,1.47 0.32,2.05 0.6,0.81 2.01,1 2.47,1.77 0.41,0.69 0.6,1.3 0.11,1.95 -0.97,1.29 -4.22,1.82 -5.8,2.52 -2.87,1.26 -7.73,4 -7.73,4 -1.52,0.2 -2.97,-0.32 -4.36,-0.73 z"
           fill="#e4c900"
           stroke="#806600"
           id="path12737" />
        <path
           transform="translate(-265.27,-795.88)"
           d="m 783.74,615 c 0,0 3.55,-1.87 5.43,-2.8 2.97,-1.46 8.16,-1.85 9.47,-4.9 0,0 0.36,-0.67 0.24,-1.61 -0.18,-1.4 -2.62,-2.56 -1.86,-4.1 l 0.62,-1.24 c 0,0 2.61,1.12 3.35,1.99 0.61,0.7 0.7,1.87 1.49,2.36 0.82,0.49 2.86,0.25 2.86,0.25 l 1.24,3.6 c 0,0 1.89,0 2.61,0.86 0.21,0.26 0.25,0.69 0.12,1 -0.2,0.49 -1.35,0.61 -1.85,0.79 -0.97,0.34 -2.48,-0.76 -2.48,-0.76 0,0 0.52,2.44 0.27,3.23 -0.18,0.55 -0.87,1.49 -0.87,1.49 -0.55,-0.93 -0.91,-1.39 -3.39,-2.64 0,0 -0.29,2.08 -0.96,3.39 -0.31,0.6 -1.24,1.61 -1.24,1.61 0,0 -0.57,-1.15 -0.99,-1.61 -0.8,-0.88 -3.14,-1.28 -3.14,-1.28 0,0 -0.46,2.55 -1.11,3.91 -0.24,0.5 -0.66,1.24 -0.66,1.24 0,0 -0.44,-1.17 -0.87,-1.61 -0.49,-0.52 -1.86,-1.12 -1.86,-1.12 l -4.81,3.97 c 0,0 -0.72,2.35 -1.86,3.11 -0.65,0.44 -1,0.22 -1.71,-0.12 -0.34,-0.17 -0.65,-0.5 -0.74,-0.87 -0.31,-1.19 0.47,-2.68 0.47,-2.68 0,0 -2.59,1.02 -4.29,0.53 -0.65,-0.18 -1.46,-0.69 -1.49,-1.36 -0.1,-1.55 2.18,-3.02 2.18,-3.02 0,0 -2.55,-0.59 -3.61,-2.05 -0.34,-0.47 -0.59,-1.26 -0.25,-1.73 0.4,-0.55 1.33,-0.51 1.99,-0.38 1.26,0.26 1.83,1.76 3.11,1.93 z"
           fill="#ffe66f"
           id="path12739" />
        <path
           d="m 535.02,-185.57 c -6.25,-0.32 -11.14,2.7 -16.13,6.07 6.41,0 11.31,-2.11 16.13,-6.07 z"
           fill="#ffefa7"
           id="path12741" />
        <g
           fill="#377bc8"
           stroke="#2c5aa0"
           stroke-width="1px"
           id="g12749">
          <path
             d="m 506.63,-185.27 c 1.17,0.54 1.58,1.51 1.18,2.64 -0.2,0.56 -0.73,0.98 -1.72,1.1 -1.48,-1.51 -2.24,-1.87 -4.54,-1.79 2.78,-2.44 4.15,-1.59 5.08,-1.95 z"
             id="path12743" />
          <path
             d="m 507.77,-176.49 c 1.29,0 2.09,0.65 2.23,1.83 0.1,0.59 -0.21,1.21 -1.03,1.76 -2.01,-0.7 -2.85,-0.68 -4.87,0.43 1.4,-3.43 3,-3.28 3.67,-4.02 z"
             id="path12745" />
          <path
             d="m 514.68,-170.36 c 1.08,-0.7 2.12,-0.54 2.86,0.4 0.37,0.47 0.44,1.15 0,2.04 -2.08,0.45 -2.79,0.9 -3.94,2.9 -0.58,-3.65 0.86,-4.36 1.05,-5.34 z"
             id="path12747" />
        </g>
      </g>
      <path
         transform="translate(-265.27,-795.88)"
         d="m 808.69,595.02 c 0,0 -0.24,4.57 -2.15,5.74 -0.82,0.5 -1.97,0.71 -2.87,0.35 -0.87,-0.34 -1.47,-1.27 -1.79,-2.15 -0.2,-0.56 -0.54,-1.97 -0.54,-1.97 0,0 -2.91,-1.33 -4.48,-1.43 -2.3,-0.15 -6.81,1.25 -6.81,1.25 0.77,-2.39 2.84,-4.35 5.02,-6.27 L 802.6,590 Z"
         fill="#efd300"
         stroke="#806600"
         stroke-width="1px"
         id="path12753" />
      <path
         d="m 563.76,-231.22 c 2.16,-0.24 6.59,-1.12 8.07,-2.57 0.7,-0.68 2.64,-2.57 2.64,-2.57 -0.41,4.27 -2.6,7.04 -7.25,8.92 -3.71,1.5 -7.99,1.84 -12.03,1.51 -2.54,-0.21 -7.25,-1.51 -7.25,-1.51 2.59,2.77 1.27,4.72 -1.97,6.04 0,0 0.48,-2.65 -0.5,-3.02 -2.1,-0.8 -4.47,0.24 -6.71,1.47 -1.65,0.91 -4.14,1.33 -5.83,1.31 -2.8,0 -4.35,-0.1 -6.98,-0.97 -1.58,-0.55 -4.32,-2.65 -5.48,-2.44 -2.51,0.45 -5.68,0.71 -7.11,2.65 -0.49,0.68 -0.43,1.73 0,2.44 0.98,1.6 3.17,2.43 5.11,2.86 5.76,1.26 10.47,1.25 16.15,0.45 5.86,-0.83 12.71,-2.49 18.57,-3.49 5.8,-0.99 13.29,-2.87 17.7,-3.77 7.77,-1.61 11.26,-1.83 17.09,-1.74 10.19,0.15 13.53,5.11 13.22,10.53 -0.32,5.57 -6.46,8.09 -11.72,9.65 -9.25,2.75 -21.95,1.18 -29.93,1 0,0 2.68,2.05 3.89,2.99 1.42,1.1 2.13,3.4 3.89,3.97 2.41,0.77 6.09,-0.76 8.64,-0.9 3.56,-0.19 9.61,0.2 9.61,0.2 0.93,-0.86 1.53,-1.46 2.49,-1.72 0.69,-0.19 1.78,-0.2 2.34,0 1.09,0.39 1.83,1.57 1.37,3.77 0,0 0.76,0.98 1.92,1.21 1.23,0.23 2.66,0 3.36,0.23 1.16,0.33 3.03,1.38 3.03,1.38 0,0 -1.99,0.58 -2.81,1.04 -0.56,0.32 -1.32,1.36 -1.32,1.36 0,0 2.72,0 3.85,0.5 1.22,0.5 2.34,1.89 2.34,1.89 0,0 -1.64,-0.1 -2.42,0.35 -0.59,0.34 -1.57,1.29 -1.57,1.29 0,0 3.18,-0.23 4.26,0.63 0.96,0.77 2.06,2.15 2.06,2.15 0,0 -1.71,0 -2.52,0.18 -0.53,0.14 -1.46,0.7 -1.46,0.7 0,0 2.2,1.05 3.16,2.27 0.77,0.97 0.96,3.15 0.96,3.15 0,0 -1.29,-0.89 -2.09,-1.21 -0.49,-0.21 -1.62,-0.17 -1.62,-0.17 l 0.52,4.47 c 0.12,1.1 1.8,2.29 2.1,3.14 0.38,1.07 0.29,1.47 -0.39,2.41 -0.87,1.21 -2.67,1.45 -4.22,1.21 -0.85,-0.13 -2.06,-1.12 -2.06,-1.12 0,0 -0.87,1.48 -1.46,1.94 -0.99,0.76 -1.42,0.66 -2.71,0.62 -0.99,0 -1.87,-0.21 -2.55,-0.87 -0.79,-0.75 -1.34,-3.01 -1.34,-3.01 l -3.04,0.55 c -0.66,0.12 -2.66,-0.8 -2.88,-1.39 -0.47,-1.22 -0.52,-2.45 0.39,-3.44 0.86,-0.94 3.25,-0.99 4.46,-1.51 1.56,-0.67 3.06,-2.59 3.06,-2.59 0,0 -5.09,-3.58 -7.28,-5.81 -1.21,-1.23 -3.29,-4.1 -3.29,-4.1 0,0 -6.48,1.79 -8.93,2.16 -6.02,0.89 -12.44,0 -12.44,0 -9.22,0 -15.35,-12.98 -23.73,-15.95 -2.55,-0.9 -3.76,-0.76 -6.43,-0.21 -9.71,1.98 -20.07,13.27 -29.69,15.6 -3.95,0.95 -12.21,1.29 -12.21,1.29 0,0 -1.35,2.67 -2.63,3.44 -1.4,0.83 -4.89,0.88 -4.89,0.88 0,0 -0.89,3.2 -1.92,4.41 -1.07,1.27 -4.01,2.5 -4.01,2.5 0.44,-1.46 0.7,-2.57 0.1,-4.42 0,0 -1.46,2.55 -2.88,3.76 -1.24,1.05 -4.25,2.35 -4.25,2.35 0.24,-1.36 0.93,-2.65 0,-4.19 0,0 -1.25,2.58 -2.33,3.53 -1.07,0.95 -3.93,1.99 -3.93,1.99 0.56,-1.47 0.91,-2.94 0,-4.42 0,0 -1.18,2.65 -2.24,3.53 -1.46,1.23 -4.97,2.57 -4.97,2.57 0.59,-1.52 1.16,-3.03 0.72,-4.55 h -2.39 c -2.89,0 -3.07,2.43 -4.41,3.54 -1.32,1.08 -3.47,1.11 -4.5,0.77 -1.81,-0.6 -3.42,-2.7 -1.22,-5.78 -3.8,0.4 -5.79,-1.98 -5.78,-4.09 0,-2.03 0.75,-3.82 4.59,-3.61 0,0 -0.5,-1.75 -0.3,-2.68 0.27,-1.29 1.37,-2.41 2.87,-2.28 0.61,0.1 1.76,0.45 2.28,1.01 0.82,0.89 1.05,2.18 2.43,3.14 1.55,1.09 5.25,1 5.25,1 0,0 7.19,-3.87 11.93,-5.44 2.52,-0.83 9.69,-2.09 9.69,-2.09 l 0.22,-17.55 c 4.31,0.27 2.46,0.31 6.1,0.2 5.23,-0.16 18.97,1.96 18.97,1.96 l 9.78,-0.67 c 0,0 16.32,-2.46 24.09,-3.22 3.91,-0.39 7.86,-0.67 11.79,-0.46 5.91,0.31 10.99,1.77 16.55,2.07 4.68,0.25 7.87,0.73 12.55,0.46 6.67,-0.38 18.6,0.1 22.39,-5.95 0.99,-1.56 0.48,-3.7 -0.99,-4.9 -1.93,-1.59 -3.31,-2.19 -5.9,-1.64 -1.36,0.29 -3.09,1.24 -3.26,2.42 -0.1,0.63 0,1.43 0.6,2.18 1.01,1.29 2.14,1.68 2.14,1.68 0,0 -2.9,0.39 -4.22,-0.58 -1.38,-1.02 -2.63,-4.25 -2.63,-4.25 -0.65,0.82 -1.13,1.73 -1.02,2.9 0.1,1.02 0,1.65 1.23,3.19 0,0 -3.06,-0.2 -4.53,-1.74 -0.98,-1.04 -1.79,-4.16 -1.79,-4.16 -0.87,0.79 -1.4,2.06 -1.44,3 -0.1,1.36 0.59,1.95 0.91,3.38 0,0 -3.02,-0.81 -4.21,-2.32 -0.93,-1.17 -1.42,-4.24 -1.42,-4.24 -3.47,0.8 -10.1,1.92 -17.32,3.34 -5.09,1.01 -12.86,2.55 -18.35,3.18 -9.42,1.09 -16.29,0.52 -22.08,-1.73 -3.02,-1.18 -4.38,-2.31 -5.16,-4.97 -0.44,-1.52 0.21,-3.66 1.71,-5.33 2.09,-2.33 5.71,-4.07 9.76,-4.99 0,0 10.73,-2.64 16.97,-3.17 10.02,-0.86 14.09,0.43 18.27,0.91 2.72,0.32 5.65,-0.2 6.51,-1.14 0.72,-0.79 1.91,-1.64 0.3,-3.54 0,0 2.04,0 3.39,2.33 0.55,0.94 -0.13,3.1 -0.13,3.1 v 0 z"
         fill="#fee46e"
         id="path12755" />
      <g
         fill="#e4c900"
         id="g12771">
        <path
           d="m 602.58,-173.56 c 0.38,1.07 1.23,3.43 0.55,4.37 -0.86,1.2 -2.66,1.45 -4.21,1.2 -0.86,-0.13 -2.06,-1.12 -2.06,-1.12 0,0 -0.87,1.48 -1.47,1.94 -0.98,0.76 -1.41,0.94 -2.7,0.89 -0.99,0 -1.87,-0.48 -2.55,-1.13 -0.79,-0.76 -1.34,-3.02 -1.34,-3.02 l -3.04,0.55 c -0.66,0.12 -2.66,-0.8 -2.89,-1.38 -0.47,-1.23 -0.51,-2.46 0.4,-3.45 0.86,-0.94 3.24,-0.99 4.46,-1.51 1.56,-0.66 3.05,-2.59 3.05,-2.59 0,0 -5.08,-3.58 -7.28,-5.81 -1.21,-1.23 -3.29,-4.1 -3.29,-4.1 0,0 -6.48,1.8 -8.92,2.16 -6.03,0.9 -8.3,0 -12.45,0 -9.21,0 -15.34,-12.98 -23.72,-15.94 -2.56,-0.91 -3.76,-0.77 -6.43,-0.22 -9.71,1.99 -20.07,13.27 -29.69,15.6 -3.95,0.95 -12.21,1.29 -12.21,1.29 0,0 -1.36,2.67 -2.64,3.44 -1.39,0.83 -4.88,0.88 -4.88,0.88 0,0 -0.9,3.2 -1.92,4.41 -1.07,1.27 -4.01,2.5 -4.01,2.5 0.43,-1.46 0.69,-2.57 0.1,-4.41 0,0 -1.46,2.55 -2.88,3.75 -1.24,1.06 -4.26,2.36 -4.26,2.36 0.24,-1.36 0.94,-2.66 0,-4.2 0,0 -1.24,2.58 -2.32,3.53 -1.08,0.95 -3.93,1.99 -3.93,1.99 0.55,-1.47 0.91,-2.94 0,-4.41 0,0 -1.18,2.64 -2.24,3.53 -1.46,1.22 -4.98,2.56 -4.98,2.56 0.6,-1.51 1.17,-3.03 0.73,-4.55 h -2.39 c -2.89,0 -3.07,2.42 -4.42,3.53 -1.32,1.09 -3.46,1.11 -4.49,0.77 -1.81,-0.6 -3.42,-2.7 -1.22,-5.78 -3.81,0.4 -5.79,-1.97 -5.78,-4.09 0,-2.03 0.75,-3.82 4.59,-3.6 0,0 -0.5,-1.76 -0.31,-2.69 0.27,-1.29 2.2,-0.94 2.88,-2.28 0.1,-0.12 1.58,1.11 1.26,2.67 -0.22,1.07 -1.64,1.92 -1.88,2.33 -0.54,0.91 0.65,1.93 0.65,1.93 0,0 -2.57,-0.97 -4.13,-0.51 -0.56,0.17 1.48,-0.1 1.68,2.1 0.21,2.29 -1.52,1.86 -0.6,2.04 1.59,0.31 4.94,0.22 4.94,0.22 0.1,0 -3.23,3.88 -2.25,3.38 0.64,-0.33 1.54,0 2.01,0.48 0.41,0.45 0.85,1.26 0.27,2.13 -0.38,0.56 0.6,0.28 1.06,-0.22 2.12,-2.31 3.35,-4.91 6.53,-5.41 0.96,-0.15 2.4,0.13 3.12,0.8 0.77,0.71 0.8,3.05 0.8,3.05 0,0 1.23,-1.3 1.74,-2.04 0.81,-1.17 2.03,-3.77 2.03,-3.77 0,0 1.78,1.99 2.47,3.12 0.25,0.41 0.58,1.31 0.58,1.31 0,0 1.27,-1.73 1.74,-2.69 0.55,-1.13 1.24,-3.56 1.24,-3.56 0,0 1.69,1.97 2.25,3.13 0.3,0.63 0.58,2.03 0.58,2.03 0,0 2.05,-2.34 2.75,-3.7 0.55,-1.07 1.09,-3.41 1.09,-3.41 0,0 2.03,1.5 2.69,2.54 0.45,0.71 0.8,2.39 0.8,2.39 0,0 1.34,-2.13 1.52,-3.27 0.2,-1.24 0.15,-3.55 0.15,-3.55 0,0 3.46,1.56 5,0.87 1.75,-0.78 3.05,-4.86 3.05,-4.86 0,0 9.58,-0.25 14.06,-1.75 2.93,-0.99 6.88,-3.33 9.63,-4.75 0,0 9.71,-6.66 15.91,-8.86 2.48,-0.88 5.69,-1.62 8.3,-1.33 3.6,0.4 6.12,2.67 9.15,4.64 4.76,3.09 8,8.7 13.21,10.96 2.92,1.27 7.41,1.38 10.59,1.26 5.34,-0.2 14.89,-2.68 14.89,-2.68 0,0 2.33,4.09 4.27,6.05 2.42,2.45 7.71,6.14 7.71,6.14 0,0 -1.65,2.72 -3.01,3.56 -1.49,0.91 -3.16,1.2 -4.72,1.98 -0.3,0.15 1.16,-0.1 1.39,0.77 0.2,0.73 -0.28,1.32 0.45,1.15 1.24,-0.28 2.95,-0.96 2.95,-0.96 0,0 -0.29,1.52 0.26,2.42 1.74,-0.65 3.72,-0.39 3.83,2.11 0.75,-0.35 0.45,-1.03 0.83,-1.52 l 0.76,-2.6 c 0,0 0.39,1.3 1.83,2.05 1,-2.08 4.13,-2.06 5.08,0.17 -0.38,-0.32 -0.33,-3.31 -0.33,-3.31 z"
           id="path12757" />
        <path
           transform="translate(-265.27,-795.88)"
           d="m 737.88,606.58 c 0,0 1.41,2.65 3.22,3.73 0.81,0.48 2.55,1.23 2.55,1.23 l 0.36,-2.77 c 0,0 1.62,-0.62 2.62,-1.17 1.01,-0.55 3.36,-2.19 3.36,-2.19 l 0.44,2.48 c 0,0 5.41,-2.65 7.59,-4.67 1.45,-1.34 2.86,-2.93 3.5,-4.81 0.73,-2.17 0.14,-6.86 0.14,-6.86 l -14.76,0.52 -3.36,12.79 z"
           id="path12759" />
        <path
           d="m 600.9,-179.22 c 0,0 1.13,0 1.62,0.17 0.8,0.33 2.09,1.22 2.09,1.22 0,0 -0.19,-2.18 -0.96,-3.16 -0.97,-1.21 -3.16,-2.26 -3.16,-2.26 0,0 0.93,-0.57 1.46,-0.71 0.81,-0.21 2.52,-0.18 2.52,-0.18 0,0 -1.1,-1.37 -2.06,-2.14 -1.08,-0.87 -4.26,-0.63 -4.26,-0.63 0,0 0.98,-0.95 1.57,-1.3 0.78,-0.45 2.42,-0.34 2.42,-0.34 0,0 -1.13,-1.4 -2.34,-1.89 -1.13,-0.46 -3.85,-0.51 -3.85,-0.51 0,0 0.75,-1.04 1.32,-1.35 0.82,-0.47 2.81,-1.04 2.81,-1.04 0,0 -1.87,-1.05 -3.03,-1.39 -0.7,-0.2 -2.13,0 -3.36,-0.23 -1.16,-0.22 -1.92,-1.2 -1.92,-1.2 0.46,-2.2 -0.28,-3.39 -1.38,-3.77 -0.55,-0.2 -1.64,-0.19 -2.33,0 -0.96,0.26 -1.56,0.86 -2.49,1.73 0,0 -6.05,-0.39 -9.61,-0.2 -2.55,0.13 -6.23,1.66 -8.64,0.89 -1.76,-0.56 -2.47,-2.86 -3.89,-3.96 -1.22,-0.94 -3.89,-3 -3.89,-3 -2.97,-3.56 -3.22,-4.04 -8.38,-5.75 -3.31,-0.6 -2.6,-0.3 -6.24,-0.49 -3.93,-0.2 -7.88,0.1 -11.79,0.46 -7.77,0.77 -24.09,3.22 -24.09,3.22 l -9.78,0.67 c 0,0 -13.74,-2.11 -18.97,-1.96 -3.64,0.11 -1.79,0.1 -6.1,-0.19 v 2.96 c 0,0 8.42,1.83 12.93,2.27 4.36,0.43 8.36,0.32 12.74,0.19 8.18,-0.24 16.96,-3.3 25.09,-4.21 6.52,-0.72 13.73,-1.78 19.66,-0.87 4.98,0.77 6.89,2.41 11.18,5.05 3.61,2.21 7.28,8.17 12.12,8.17 0,0 2.73,-0.14 4.52,-0.35 2.25,-0.26 3.83,-1.04 6.09,-1.22 3.07,-0.24 7.29,0.27 7.29,0.27 1.99,-2.32 3.01,-2.36 3.58,-2.07 1.26,0.65 1.43,2.09 0.3,3.55 1.25,0.78 2.05,2.08 5.86,1.89 -1.68,1.22 -2.19,1.83 -2.87,3.34 1.43,-0.44 2.92,0 5.07,0.54 -1.52,1.18 -1.94,2.36 -2.46,3.4 1.42,-0.17 2.48,0.12 5.04,0.52 -1.46,0.69 -2.55,1.02 -2.8,1.99 1.67,0.87 1.51,0.53 3.93,2.4 -1.54,0.19 -2.48,0.19 -3.08,1.18 l 2.94,4.27 -0.39,-3.98 z"
           id="path12761" />
        <path
           d="m 557.48,-204.79 10.97,0.57 9.16,0.11 h 5.77 c 6.63,-1.34 14.36,-2.8 17.53,-9.5 l 0.11,-4.98 c -0.29,2.96 -1.53,5.28 -3.48,7.04 -9.23,8.31 -29.83,5.54 -39.72,2.69 l -6.9,-0.91 z"
           id="path12763" />
        <path
           d="m 571.18,-221.21 c -7.26,0.6 -25.52,5.61 -39.56,6.78 -7.49,0.63 -15.68,0.21 -20.4,-2.57 -2.08,-1.23 -3.49,-2.92 -3.87,-5.18 l -0.7,2.64 2.23,3.48 5,2.36 9.46,1.81 10.28,-0.83 5.84,-0.56 30.73,-5.84 z"
           id="path12765" />
        <path
           d="m 571.16,-221.39 c 0.16,2.87 0.8,4.09 1.45,5.25 0.83,-1.81 1.52,-4 4.13,-5.81 0.77,2 1.35,4.37 2.62,6.37 0.62,-2.26 0.74,-5.02 3,-6.93 0.82,1.88 1.55,4.19 2.48,5.53 0,-1.44 -0.17,-3.16 1.64,-4.6 7.09,-3.79 16.56,3.2 9.7,8.02 h 0.1 l 0.61,-2.11 -0.66,-2.62 -2.15,-1.69 -2.77,-0.89 -3.56,0.71 -1.55,1.59 0.47,1.97 2.34,2.2 -3.79,-0.28 -1.69,-1.17 -1.45,-3.1 -0.89,1.74 0.1,2.34 1.17,1.78 -2.86,-0.61 -2.1,-1.45 -1.55,-3.66 -1.08,1.27 -0.42,1.97 1.08,2.9 -2.77,-1.03 -2.06,-2.15 -0.7,-3.47 -4.13,0.98 c 1.52,-0.98 -1.44,-1 5.3,-3.09 z"
           id="path12767" />
        <path
           d="m 520.82,-225.43 6.3,3.05 6.3,0.79 3.94,-0.69 4.33,-2.17 3.45,-0.19 0.98,1.28 0.1,2.26 2.26,-1.87 0.59,-1.57 -0.69,-2.76 4.63,1.18 5.91,0.39 6.1,-0.98 5.42,-2.17 2.65,-2.75 1.38,-4.73 c 0,0 -2.91,4.1 -5.02,5.32 -2.66,1.54 -5.91,2.39 -8.96,2.76 -2.96,0.35 -5.99,-0.27 -8.96,-0.6 -3.44,-0.38 -8.56,-2.26 -8.56,-2.26 1.04,1.51 2.09,3.02 2.36,4.53 0,0 -3.24,-0.71 -4.94,-0.25 -1.35,0.37 -3.9,1.4 -5.21,1.9 -2.02,0.77 -5.27,0 -7.42,-0.27 -2.22,-0.27 -3,-1.25 -4.99,-0.72 z"
           id="path12769" />
      </g>
      <g
         id="g12779">
        <path
           d="m 515.53,-228.62 c 0,0 3.23,0.49 4.86,0.4 4.82,-0.24 9.47,-1.99 14.26,-2.63 2.88,-0.38 5.79,-0.79 8.7,-0.7 3.78,0.11 7.45,1.47 11.23,1.61 1.99,0.1 4.17,0.46 5.96,-0.4 1.04,-0.5 2.07,-1.41 2.33,-2.53 0.28,-1.19 -1.01,-3.54 -1.01,-3.54 l 0.1,0.1 -0.51,1.82 -2.32,1.92 -2.73,0.71 -4.56,-0.4 -6.87,-0.81 h -7.69 l -8.6,1.01 -8.4,1.72 z"
           fill="#fff1a1"
           id="path12773" />
        <path
           d="m 564.29,-222.7 c 13.69,2.02 30.16,-6.54 36.33,5.13 l -0.14,-0.15 0.44,-1.9 -3.08,-3.37 -4.1,-2.2 -7.62,-0.88 -9.96,1.03 z"
           fill="#fff1a1"
           id="path12775" />
        <path
           d="m 444.79,-187.75 c 0,0 0.52,3.73 1.81,4.91 1.58,1.44 6.19,1.67 6.19,1.67 0,0 6.71,-3.92 10.33,-5.29 2.95,-1.11 6.1,-1.6 9.16,-2.32 0.99,-0.23 2.97,-0.65 2.97,-0.65 0,0 0.53,-3.35 0.39,-5.03 -0.13,-1.59 -1.16,-4.65 -1.16,-4.65 l -0.78,8.13 -8.13,1.68 -7.23,2.71 -5.68,3.36 -5.68,-1.29 z"
           fill="#e4c900"
           id="path12777" />
      </g>
      <path
         d="m 563.76,-231.22 c 2.16,-0.24 6.59,-1.12 8.07,-2.57 0.7,-0.68 2.64,-2.57 2.64,-2.57 -0.41,4.27 -2.6,7.04 -7.25,8.92 -3.71,1.5 -7.99,1.84 -12.03,1.51 -2.54,-0.21 -7.25,-1.51 -7.25,-1.51 2.59,2.77 1.27,4.72 -1.97,6.04 0,0 0.48,-2.65 -0.5,-3.02 -2.1,-0.8 -4.47,0.24 -6.71,1.47 -1.65,0.91 -4.14,1.33 -5.83,1.31 -2.8,0 -4.35,-0.1 -6.98,-0.97 -1.58,-0.55 -4.32,-2.65 -5.48,-2.44 -2.51,0.45 -5.68,0.71 -7.11,2.65 -0.49,0.68 -0.43,1.73 0,2.44 0.98,1.6 3.17,2.43 5.11,2.86 5.76,1.26 10.47,1.25 16.15,0.45 5.86,-0.83 12.71,-2.49 18.57,-3.49 5.8,-0.99 13.29,-2.87 17.7,-3.77 7.77,-1.61 11.26,-1.83 17.09,-1.74 10.19,0.15 13.53,5.11 13.22,10.53 -0.32,5.57 -6.46,8.09 -11.72,9.65 -9.25,2.75 -21.95,1.18 -29.93,1 0,0 2.68,2.05 3.89,2.99 1.42,1.1 2.13,3.4 3.89,3.97 2.41,0.77 6.09,-0.76 8.64,-0.9 3.56,-0.19 9.61,0.2 9.61,0.2 0.93,-0.86 1.53,-1.46 2.49,-1.72 0.69,-0.19 1.78,-0.2 2.34,0 1.09,0.39 1.83,1.57 1.37,3.78 0,0 0.76,0.97 1.92,1.2 1.23,0.24 2.66,0 3.36,0.23 1.16,0.33 3.03,1.38 3.03,1.38 0,0 -1.99,0.58 -2.81,1.04 -0.56,0.32 -1.32,1.36 -1.32,1.36 0,0 2.72,0 3.85,0.5 1.22,0.5 2.34,1.9 2.34,1.9 0,0 -1.64,-0.11 -2.42,0.34 -0.59,0.34 -1.57,1.29 -1.57,1.29 0,0 3.18,-0.23 4.26,0.63 0.96,0.77 2.06,2.15 2.06,2.15 0,0 -1.71,0 -2.52,0.18 -0.53,0.14 -1.46,0.7 -1.46,0.7 0,0 2.2,1.05 3.16,2.27 0.77,0.97 0.96,3.15 0.96,3.15 0,0 -1.29,-0.89 -2.09,-1.21 -0.49,-0.21 -1.62,-0.17 -1.62,-0.17 l 0.52,4.47 c 0.12,1.1 1.8,2.29 2.1,3.14 0.38,1.07 0.29,1.47 -0.39,2.41 -0.87,1.21 -2.67,1.45 -4.22,1.21 -0.85,-0.13 -2.06,-1.12 -2.06,-1.12 0,0 -0.87,1.48 -1.46,1.94 -0.99,0.76 -1.47,0.97 -2.76,0.92 -0.99,0 -1.82,-0.51 -2.5,-1.16 -0.79,-0.76 -1.34,-3.02 -1.34,-3.02 l -3.04,0.55 c -0.66,0.12 -2.66,-0.8 -2.88,-1.39 -0.47,-1.22 -0.52,-2.45 0.39,-3.44 0.86,-0.94 3.25,-0.99 4.46,-1.51 1.56,-0.67 3.06,-2.59 3.06,-2.59 0,0 -5.09,-3.58 -7.28,-5.81 -1.21,-1.23 -3.29,-4.1 -3.29,-4.1 0,0 -6.48,1.79 -8.93,2.16 -6.02,0.89 -12.44,0 -12.44,0 -9.22,0 -15.35,-12.98 -23.73,-15.95 -2.55,-0.9 -3.76,-0.76 -6.43,-0.21 -9.71,1.98 -20.07,13.27 -29.69,15.6 -3.95,0.95 -12.21,1.29 -12.21,1.29 0,0 -1.35,2.67 -2.63,3.44 -1.4,0.83 -4.89,0.88 -4.89,0.88 0,0 -0.89,3.2 -1.92,4.41 -1.07,1.27 -4.01,2.5 -4.01,2.5 0.44,-1.46 0.7,-2.57 0.1,-4.42 0,0 -1.46,2.55 -2.88,3.76 -1.24,1.05 -4.25,2.35 -4.25,2.35 0.24,-1.36 0.93,-2.65 0,-4.19 0,0 -1.25,2.58 -2.33,3.53 -1.07,0.95 -3.93,1.99 -3.93,1.99 0.56,-1.47 0.91,-2.94 0,-4.42 0,0 -1.18,2.65 -2.24,3.53 -1.46,1.23 -4.97,2.57 -4.97,2.57 0.59,-1.52 1.16,-3.03 0.72,-4.55 h -2.39 c -2.89,0 -3.07,2.43 -4.41,3.54 -1.32,1.08 -3.47,1.11 -4.5,0.77 -1.81,-0.6 -3.42,-2.7 -1.22,-5.78 -3.8,0.4 -5.79,-1.97 -5.78,-4.09 0,-2.03 0.75,-3.82 4.59,-3.61 0,0 -0.5,-1.75 -0.3,-2.68 0.27,-1.29 1.37,-2.41 2.87,-2.28 0.61,0.1 1.76,0.45 2.28,1.01 0.82,0.89 1.05,2.18 2.43,3.14 1.55,1.09 5.25,1 5.25,1 0,0 7.19,-3.87 11.93,-5.44 2.52,-0.83 9.69,-2.09 9.69,-2.09 l 0.22,-17.55 c 4.31,0.27 2.46,0.31 6.1,0.2 5.23,-0.16 18.97,1.96 18.97,1.96 l 9.78,-0.67 c 0,0 16.32,-2.46 24.09,-3.22 3.91,-0.39 7.86,-0.67 11.79,-0.46 5.91,0.31 10.99,1.77 16.55,2.07 4.68,0.25 7.87,0.73 12.55,0.46 6.67,-0.38 18.6,0.1 22.39,-5.95 0.99,-1.56 0.48,-3.7 -0.99,-4.9 -1.93,-1.59 -3.31,-2.19 -5.9,-1.64 -1.36,0.29 -3.09,1.24 -3.26,2.42 -0.1,0.63 0,1.19 0.6,1.94 1.01,1.3 2.14,1.92 2.14,1.92 0,0 -3.37,0.15 -4.68,-0.81 -1.39,-1.02 -2.17,-4.02 -2.17,-4.02 -0.65,0.82 -1.13,1.73 -1.02,2.9 0.1,1.02 0,1.65 1.23,3.19 0,0 -3.06,-0.2 -4.53,-1.74 -0.98,-1.04 -1.79,-4.16 -1.79,-4.16 -0.87,0.79 -1.4,2.06 -1.44,3 -0.1,1.36 0.59,1.95 0.91,3.38 0,0 -3.02,-0.81 -4.21,-2.32 -0.93,-1.17 -1.42,-4.24 -1.42,-4.24 -3.47,0.8 -10.1,1.92 -17.32,3.34 -5.09,1.01 -12.86,2.55 -18.35,3.18 -9.42,1.09 -16.29,0.52 -22.08,-1.73 -3.02,-1.18 -4.38,-2.31 -5.16,-4.97 -0.44,-1.52 0.21,-3.66 1.71,-5.33 2.09,-2.33 5.71,-4.07 9.76,-4.99 0,0 10.73,-2.64 16.97,-3.17 10.02,-0.86 14.09,0.43 18.27,0.91 2.72,0.32 5.65,-0.2 6.51,-1.14 0.72,-0.79 1.91,-1.64 0.3,-3.54 0,0 2.04,0 3.39,2.33 0.55,0.94 -0.13,3.1 -0.13,3.1 v 0 z"
         fill="none"
         stroke="#806600"
         id="path12781" />
      <g
         id="g12789">
        <path
           d="m 492.12,-190.69 c 12.45,-0.21 22.27,-11.1 30.73,-14.42 -17.61,5.76 -22.13,5.55 -24.36,7.62 -0.94,0.88 -0.97,2.05 -1.84,3.27 -0.85,1.21 -2.54,2.47 -4.53,3.53 z"
           fill="#ffefa7"
           id="path12783" />
        <path
           d="m 575.07,-192.04 c -17.91,1.17 -19.03,-13.26 -36.91,-14.99 15.16,8.11 16.99,20.44 36.91,14.99 z"
           fill="#fff1a1"
           id="path12785" />
        <path
           d="m 583,-193.17 c 1.79,6 6.28,9.58 11.13,13.16 -2.12,-6.05 -5.78,-9.95 -11.13,-13.16 z"
           fill="#fff1a1"
           id="path12787" />
      </g>
      <g
         fill="#377bc8"
         stroke="#2c5aa0"
         stroke-width="1px"
         id="g12797">
        <path
           d="m 582.91,-173.1 c 1.21,-0.46 2.19,-0.1 2.71,1.01 0.26,0.53 0.19,1.21 -0.41,1.99 -2.12,0 -2.91,0.29 -4.46,2 0.2,-3.7 1.76,-4.08 2.16,-5 z"
           id="path12791" />
        <path
           d="m 589.89,-168.72 c 0.9,-0.92 1.95,-0.99 2.88,-0.23 0.46,0.37 0.68,1.01 0.47,1.98 -1.92,0.89 -2.51,1.49 -3.2,3.69 -1.37,-3.43 -0.12,-4.44 -0.15,-5.44 z"
           id="path12793" />
        <path
           d="m 598.52,-169.35 c 0.63,-1.13 1.63,-1.46 2.72,-0.98 0.54,0.25 0.92,0.81 0.97,1.8 -1.62,1.36 -2.04,2.09 -2.12,4.39 -2.23,-2.95 -1.28,-4.25 -1.57,-5.21 z"
           id="path12795" />
      </g>
      <g
         fill="#377bc8"
         stroke="#2c5aa0"
         stroke-width="1px"
         id="g12805">
        <path
           d="m 440.98,-188.39 c 1.17,0.55 1.58,1.52 1.17,2.64 -0.21,0.56 -0.74,0.98 -1.72,1.1 -1.48,-1.52 -2.23,-1.88 -4.54,-1.81 2.79,-2.42 4.15,-1.57 5.09,-1.93 z"
           id="path12799" />
        <path
           d="m 436.15,-181.66 c 1.29,0 2.05,0.77 2.12,1.96 0,0.6 -0.29,1.2 -1.14,1.69 -1.96,-0.81 -2.8,-0.84 -4.89,0.14 1.6,-3.33 3.19,-3.09 3.91,-3.79 z"
           id="path12801" />
        <path
           d="m 439.99,-173.38 c 1.15,-0.59 2.17,-0.31 2.8,0.7 0.32,0.51 0.32,1.19 -0.19,2.03 -2.11,0.23 -2.86,0.61 -4.21,2.47 -0.2,-3.69 1.31,-4.24 1.6,-5.2 z"
           id="path12803" />
      </g>
      <path
         d="m 473.17,-186.89 c -8.21,-0.55 -13.08,2.94 -19.79,6.75 8.43,0.21 13.29,-2.24 19.79,-6.75 z"
         fill="#ffefa7"
         id="path12807" />
      <g
         transform="matrix(0.9616,0.27445,-0.27445,0.9616,-204.64,-191)"
         id="g12895">
        <path
           d="m 667.65,-206.38 c 2.17,0.62 3.77,-1.46 4.15,-1.73 0,0 -1.06,-0.37 -2.09,-1.68 -0.68,-0.88 -1.32,-2.6 -1.6,-3.42 -1.01,-3.03 0.1,-3.85 0.18,-3.63 0,0 1.84,-1.28 2.49,-2.17 0.63,-0.84 0.69,-2.01 0.63,-3.06 -0.1,-1.56 -1.29,-3.56 -1.29,-3.56 -3,0.67 -3.64,1.27 -4.07,2.37 0,0 -0.49,-1.48 -1.29,-2.74 -0.4,-0.63 -1.17,-1.52 -1.84,-2.04 -0.69,-0.54 -1.29,-0.7 -1.29,-0.7 0.21,0.79 -0.29,1.7 -0.49,2.35 0,0 -1.16,-2.91 -2.22,-3.77 -0.81,-0.66 -2.73,-1.31 -2.71,-1.31 0,0 -1.79,0.62 -2.62,1.28 -1.07,0.84 -2.26,3.74 -2.26,3.74 -0.19,-0.65 -0.68,-1.58 -0.46,-2.36 0,0 -0.6,0.16 -1.3,0.69 -0.68,0.51 -1.45,1.39 -1.86,2.01 -0.82,1.25 -1.33,2.73 -1.33,2.73 -0.39,-1.17 -0.99,-1.74 -4.04,-2.43 0,0 -1.23,1.98 -1.34,3.55 -0.1,1.04 0,2.22 0.59,3.07 0.65,0.89 2.46,2.19 2.46,2.19 0.11,-0.21 1.19,0.62 0.14,3.64 -0.29,0.81 -0.95,2.52 -1.65,3.39 -1.04,1.3 -2.1,1.65 -2.1,1.65 1.14,1.53 1.52,2.18 4.12,1.79 -4.54,5.73 -3.32,12.45 2.65,16.76 0.1,-0.75 0.64,-2.55 1.05,-3.29 -0.1,0 0.99,3.19 3.1,4.39 0.68,0.39 1.79,3.32 2.83,4.04 0.94,0.66 2.19,1.32 2.19,1.32 0,0 0.1,-2.6 1.08,-3.28 1.02,-0.7 2.94,-1.89 3.57,-2.31 1.27,-0.84 2.9,-4.51 2.9,-4.51 l 0.6,3.75 c 6.75,-4.8 7.01,-10.39 3.12,-16.72 z"
           fill="#fee46e"
           id="path12809" />
        <path
           d="m 644.79,-216.04 c -0.28,0.81 -1.55,5.2 -2.25,6.07 -1.04,1.3 -2.1,1.65 -2.1,1.65 1.14,1.52 1.52,2.17 4.12,1.79 -4.54,5.72 -3.32,12.44 2.65,16.76 0.1,-0.75 0.64,-2.55 1.05,-3.3 -0.1,0 0.99,3.2 3.1,4.4 0.68,0.39 1.79,3.31 2.83,4.04 0.94,0.66 2.19,1.32 2.19,1.32 0,0 0.1,-2.6 1.08,-3.29 1.02,-0.69 2.94,-1.89 3.57,-2.3 1.27,-0.84 2.9,-4.51 2.9,-4.51 l 0.6,3.75 c 6.75,-4.8 7.01,-10.39 3.12,-16.72 v 0 c 2.17,0.62 3.77,-1.46 4.15,-1.74 0,0 -1.06,-0.36 -2.09,-1.67 -0.68,-0.88 -1.3,-2.62 -1.6,-3.42 l -0.82,-2.21 c 0,0 -0.12,2.78 -0.12,3.54 0,0.77 0.98,3.2 0.98,3.2 -1.34,-0.1 -2.68,-0.13 -4.02,-0.76 0,0 2.74,4.72 3.57,7.11 0.45,1.28 0.67,3.74 0.51,5.09 -0.17,1.44 -2.21,4.15 -2.21,4.15 0,0 -0.31,-3.43 -0.64,-4.55 -0.47,-1.58 -2.25,-5.43 -2.25,-5.43 0,0 0.28,4.39 -0.1,5.83 -0.41,1.63 -1.2,4.53 -1.2,4.53 -0.71,-4.08 -1.62,-5.74 -2.55,-7.08 0,0 1.1,6.67 0,9.28 -0.28,0.65 -1.8,1.54 -2.6,2.3 -0.89,0.84 -1.05,1.52 -1.05,1.52 0,0 -1.77,-2.47 -2.22,-3.03 -1.01,-1.23 -2.63,-2.37 -3.47,-3.73 -1.22,-1.99 0.36,-7.49 0.36,-7.49 -1.07,0.33 -1.79,1.9 -2.55,3.63 -0.62,1.41 -1.36,2.92 -1.64,3.94 0,0 -1.9,-3.13 -2.17,-4.14 -0.38,-1.43 -0.26,-3.01 0.13,-4.44 0.62,-2.33 4.68,-7.89 4.68,-7.89 -1.32,0.8 -2.48,1.68 -5.43,1.67 0,0 1.43,-3.15 1.62,-3.85 0.56,-2.13 0,-2.71 -0.1,-4.02 z"
           fill="#e4c900"
           id="path12811" />
        <g
           transform="translate(0,-0.75004)"
           id="g12873">
          <path
             d="m 650.46,-210.73 c 0.94,2.05 1.13,6.6 0.65,7.99 l 5.43,0.56 4.98,-0.82 c -0.96,-1.86 -0.13,-6.26 0.46,-7.85 l -3.52,1.09 -2.03,-1.13 -2.71,1.47 z"
             fill="#504416"
             id="path12813" />
          <g
             fill="#ffffff"
             id="g12819">
            <path
               d="m 652.03,-201.5 c 0,-2.49 0.51,-2.81 0.89,-3.69 l 0.55,3.42 z"
               id="path12815" />
            <path
               d="m 660.45,-201.5 c 0,-2.49 -0.51,-2.81 -0.89,-3.69 l -0.55,3.42 z"
               id="path12817" />
          </g>
          <g
             id="g12827">
            <path
               d="m 651.36,-202.73 c -0.81,7.09 10.24,7.4 9.74,0 -2.78,0.59 -5.77,0.9 -9.74,0 z"
               fill="#e4c900"
               id="path12821" />
            <path
               d="m 650.93,-203.3 -0.1,0.56 c -0.22,1.9 0.38,3.42 1.4,4.44 1.02,1.02 2.43,1.51 3.85,1.53 1.41,0 2.84,-0.43 3.9,-1.44 1.06,-1 1.7,-2.55 1.57,-4.53 v -0.56 l -0.56,0.12 c -2.74,0.58 -5.64,0.89 -9.53,0 z m 0.97,1.16 c 3.4,0.67 6.16,0.5 8.62,0 0,1.4 -0.44,2.48 -1.18,3.18 -0.85,0.8 -2.04,1.18 -3.22,1.16 -1.19,0 -2.35,-0.44 -3.16,-1.25 -0.71,-0.71 -1.09,-1.77 -1.06,-3.12 v 0 z"
               color="#000000"
               fill="#806600"
               id="path12823" />
            <path
               d="m 653.95,-209.47 c -0.1,4.53 0.17,9.56 2.27,13.66 2.09,-4.1 2.34,-9.08 2.27,-13.62 0,-0.17 -0.99,-0.31 -1.13,-0.41 -0.36,-0.25 -1.02,-0.91 -1.02,-0.91 0,0 -0.7,0.78 -1.14,1.02 -0.38,0.22 -1.25,0.26 -1.25,0.26 z"
               fill="#377bc8"
               stroke="#2c5aa0"
               id="path12825" />
          </g>
          <g
             transform="translate(-14.216,-5.3362)"
             fill="#ffffff"
             id="g12833">
            <path
               d="m 665.98,-204.45 c 0,2.49 0.51,2.81 0.89,3.69 l 0.55,-3.42 z"
               id="path12829" />
            <path
               d="m 674.88,-204.45 c 0,2.49 -0.51,2.81 -0.89,3.69 l -0.55,-3.42 z"
               id="path12831" />
          </g>
          <g
             transform="translate(-14.133,-5.3362)"
             id="g12871">
            <path
               d="m 668.94,-212.14 c 0,0 0.84,0.8 1.38,0.83 0.53,0 1.44,-0.69 1.44,-0.69 l -1.51,-4.06 z"
               fill="#ffefa7"
               id="path12835" />
            <g
               transform="translate(-0.11475)"
               id="g12853">
              <g
                 transform="translate(0,0.06472)"
                 id="g12843">
                <path
                   transform="matrix(1.1429,0,0,1.1489,-398.53,-883.01)"
                   d="m 932.79,583.07 c 0,0.91 -1.04,1.9 -2.4,1.9 -1.35,0 -2.21,-0.74 -2.21,-1.66 0,-0.91 0.86,-1.4 2.21,-1.4 1.36,0 2.4,0.25 2.4,1.16 z"
                   fill="#ffffff"
                   id="path12837" />
                <path
                   transform="matrix(1.1111,0,0,1.1111,-368.51,-860.47)"
                   d="m 931.09,582.83 c 0,0.52 -0.42,0.95 -0.95,0.95 -0.52,0 -0.95,-0.43 -0.95,-0.95 0,-0.52 0.43,-0.95 0.95,-0.95 0.53,0 0.95,0.43 0.95,0.95 z"
                   fill="#2b2200"
                   id="path12839" />
                <path
                   d="m 664.78,-214.69 c -0.81,0 -1.5,0.16 -2,0.47 -0.5,0.31 -0.78,0.8 -0.78,1.4 0,0.61 0.29,1.15 0.78,1.54 0.49,0.38 1.18,0.62 2,0.62 1.67,0 2.97,-1.2 2.97,-2.44 0,-0.61 -0.39,-1.05 -0.94,-1.28 -0.55,-0.22 -1.24,-0.31 -2.03,-0.31 z m 0,0.5 c 0.76,0 1.41,0.1 1.84,0.28 0.44,0.18 0.63,0.38 0.63,0.81 0,0.86 -1.04,1.94 -2.47,1.94 -0.73,0 -1.3,-0.2 -1.69,-0.5 -0.38,-0.3 -0.59,-0.71 -0.59,-1.15 0,-0.45 0.18,-0.77 0.56,-1 0.38,-0.24 0.97,-0.38 1.72,-0.38 z"
                   color="#000000"
                   fill="#d1b948"
                   id="path12841" />
              </g>
              <g
                 transform="matrix(-1,0,0,1,1340.9,0.06472)"
                 id="g12851">
                <path
                   transform="matrix(1.1429,0,0,1.1489,-398.53,-883.01)"
                   d="m 932.79,583.07 c 0,0.91 -1.04,1.9 -2.4,1.9 -1.35,0 -2.21,-0.74 -2.21,-1.66 0,-0.91 0.86,-1.4 2.21,-1.4 1.36,0 2.4,0.25 2.4,1.16 z"
                   fill="#ffffff"
                   id="path12845" />
                <path
                   transform="matrix(1.1111,0,0,1.1111,-368.51,-860.47)"
                   d="m 931.09,582.83 c 0,0.52 -0.42,0.95 -0.95,0.95 -0.52,0 -0.95,-0.43 -0.95,-0.95 0,-0.52 0.43,-0.95 0.95,-0.95 0.53,0 0.95,0.43 0.95,0.95 z"
                   fill="#2b2200"
                   id="path12847" />
                <path
                   d="m 664.78,-214.69 c -0.81,0 -1.5,0.16 -2,0.47 -0.5,0.31 -0.78,0.8 -0.78,1.4 0,0.61 0.29,1.15 0.78,1.54 0.49,0.38 1.18,0.62 2,0.62 1.67,0 2.97,-1.2 2.97,-2.44 0,-0.61 -0.39,-1.05 -0.94,-1.28 -0.55,-0.22 -1.24,-0.31 -2.03,-0.31 z m 0,0.5 c 0.76,0 1.41,0.1 1.84,0.28 0.44,0.18 0.63,0.38 0.63,0.81 0,0.86 -1.04,1.94 -2.47,1.94 -0.73,0 -1.3,-0.2 -1.69,-0.5 -0.38,-0.3 -0.59,-0.71 -0.59,-1.15 0,-0.45 0.18,-0.77 0.56,-1 0.38,-0.24 0.97,-0.38 1.72,-0.38 z"
                   color="#000000"
                   fill="#d1b948"
                   id="path12849" />
              </g>
            </g>
            <path
               d="m 661.12,-211.22 0.22,1.95 0.63,0.57 c -1.45,-0.21 1.92,0.49 2.62,0.64 l 0.11,2.21 1.49,1.83 2.38,0.22 1.88,-1.22 1.6,1.27 2.16,-0.11 2.21,-1.99 v -2.32 l 2.02,-0.16 1.14,-1 v -1.77 c -0.98,1.22 -1.94,2.42 -4.71,2.1 0.31,1.33 0.22,2.24 -0.1,2.83 -0.39,0.71 -1.1,0.97 -1.88,0.99 -0.97,0 -2.04,-0.78 -2.55,-1.22 -0.74,0.79 -1.39,1.42 -2,1.39 -1.26,0 -2.11,-0.55 -2.52,-1.29 -0.44,-0.78 -0.4,-1.83 0.13,-2.88 -4.93,0.1 -3.63,-1.6 -4.83,-2.04 z"
               fill="#e4c900"
               id="path12855" />
            <path
               d="m 661.06,-211.69 c -0.48,1.29 -0.28,2.46 0.42,3.21 0.6,0.62 1.5,0.87 2.48,0.91 0,0.16 0,0.19 0,0.41 0,0.5 0,1.08 0.2,1.58 0.42,1.02 1.25,1.71 2.2,2.14 0.83,0.38 1.79,0.36 2.61,0.1 0.5,-0.17 0.9,-0.49 1.21,-0.78 0.11,-0.11 0.12,-0.13 0.21,-0.22 0.32,0.35 0.76,0.77 1.45,1 0.81,0.28 1.77,0.3 2.59,-0.1 0.95,-0.43 1.78,-1.12 2.2,-2.14 0.2,-0.5 0.21,-1.08 0.2,-1.58 0,-0.17 0,-0.18 0,-0.32 1.05,0 1.94,-0.33 2.49,-1 0.65,-0.8 0.8,-1.96 0.42,-3.18 -0.6,0.56 0.1,1.14 -1.19,2.54 -0.4,0.49 -1.11,0.77 -2.17,0.62 l -0.64,-0.1 0.1,0.65 c 0,0 0,0.36 0,0.8 0,0.45 0,0.99 -0.13,1.19 -0.3,0.75 -0.89,1.25 -1.68,1.61 -0.53,0.24 -1.27,0.24 -1.86,0 -0.57,-0.19 -1.3,-1.01 -1.36,-1.09 l -0.35,-0.48 -0.42,0.43 c -0.13,0.14 -0.28,0.34 -0.53,0.58 -0.26,0.24 -0.57,0.46 -0.85,0.56 -0.6,0.2 -1.35,0.2 -1.88,0 -0.79,-0.36 -1.37,-0.86 -1.67,-1.61 -0.1,-0.2 -0.14,-0.74 -0.14,-1.19 0,-0.44 0,-0.8 0,-0.8 l 0.1,-0.59 h -0.6 c -1.01,0.1 -1.81,-0.21 -2.25,-0.67 -1.35,-0.84 -0.86,-1.68 -1.15,-2.52 z"
               color="#000000"
               fill="#806600"
               id="path12857" />
            <g
               transform="translate(-0.0085)"
               fill="#ffefa7"
               id="g12863">
              <path
                 transform="translate(-265.65,-796.35)"
                 d="m 935.11,589.08 c 0,0.87 -0.72,1.58 -1.61,1.58 -0.89,0 -1.61,-0.71 -1.61,-1.58 0,-0.87 0.72,-1.58 1.61,-1.58 0.89,0 1.61,0.71 1.61,1.58 z"
                 id="path12859" />
              <path
                 transform="translate(-260.64,-796.35)"
                 d="m 935.11,589.08 c 0,0.87 -0.72,1.58 -1.61,1.58 -0.89,0 -1.61,-0.71 -1.61,-1.58 0,-0.87 0.72,-1.58 1.61,-1.58 0.89,0 1.61,0.71 1.61,1.58 z"
                 id="path12861" />
            </g>
            <path
               d="m 667.32,-209.87 c 0,0 1.87,-0.91 2.89,-0.96 1.07,-0.1 3.16,0.68 3.16,0.68 v 1.04 l -2.61,1.51 -2.41,-1.24 -0.62,-0.14 z"
               fill="#e4c900"
               id="path12865" />
            <path
               d="m 663.05,-216.43 c -0.68,0.1 -1.44,0.44 -1.78,1.03 -0.21,0.36 0,1.25 0,1.25 l 1.03,-0.28 h 1.25 l 2.81,0.41 2.69,-0.94 c 0,0 -1.67,-0.19 -2.52,-0.39 -1.14,-0.28 -2.31,-1.25 -3.48,-1.08 z m 14.16,0 c -1.02,0 -1.95,0.84 -2.96,1.08 -0.85,0.2 -2.58,0.39 -2.58,0.39 l 2.69,0.94 2.81,-0.41 h 1.22 l 1.03,0.28 c 0,0 0.21,-0.89 0,-1.25 -0.34,-0.59 -1.1,-0.93 -1.78,-1.03 -0.14,0 -0.29,0 -0.43,0 z"
               fill="#e4c900"
               id="path12867" />
            <path
               d="m 669.17,-215.78 -0.51,0.24 c 0,0 -1.72,0.79 -3.28,0.78 -0.63,0 -1.59,-0.38 -2.49,-0.46 -0.45,0 -0.95,0 -1.34,0.35 -0.39,0.35 -0.56,0.91 -0.56,1.63 0.53,-0.25 0.83,-0.55 1.22,-0.88 0.1,-0.1 0.26,-0.14 0.58,-0.11 0.65,0.1 1.63,0.48 2.59,0.48 1.38,0 2.46,-0.39 3.09,-0.64 0,0.28 0,0.66 -0.19,1.15 -0.1,0.25 -0.46,0.89 -0.82,1.49 -0.18,0.3 -0.35,0.6 -0.48,0.88 -0.14,0.27 -0.26,0.5 -0.28,0.8 -0.1,0.62 0.23,1.18 0.23,1.18 l 0.12,0.31 h 0.33 c 1.22,0 1.53,0.4 2.06,1.2 l 0.1,0.12 0.13,0.1 c 0.14,0.1 0.26,0.13 0.38,0.17 0.12,0 0.28,0.1 0.4,0 0.26,0 0.29,-0.11 0.52,-0.16 h 0.2 l 0.11,-0.17 c 0.53,-0.8 0.85,-1.15 2.07,-1.2 h 0.32 l 0.13,-0.31 c 0,0 0.27,-0.56 0.22,-1.18 0,-0.3 -0.14,-0.53 -0.28,-0.8 -0.13,-0.28 -0.3,-0.58 -0.48,-0.88 -0.36,-0.6 -0.74,-1.24 -0.82,-1.49 -0.16,-0.49 -0.18,-0.87 -0.18,-1.15 0.64,0.25 1.71,0.64 3.08,0.64 0.96,0 1.94,-0.42 2.59,-0.48 0.32,0 0.48,0 0.58,0.11 l 1.22,0.88 c 0,-0.72 -0.16,-1.28 -0.55,-1.63 -0.39,-0.35 -0.9,-0.39 -1.35,-0.35 -0.9,0.1 -1.86,0.46 -2.49,0.46 -1.56,0 -3.28,-0.78 -3.28,-0.78 l -0.51,-0.24 -0.18,0.54 c 0,0 -0.31,0.99 0.13,2.31 0.17,0.5 0.55,1.09 0.9,1.68 0.17,0.3 0.34,0.59 0.45,0.82 0.12,0.24 0.17,0.44 0.17,0.44 0,0.12 0,0.3 -0.1,0.48 -1.13,0.15 -1.83,0.71 -2.34,1.43 -0.12,0 -0.28,0.1 -0.27,0.1 0,0 -0.1,0 -0.12,-0.1 -0.51,-0.73 -1.23,-1.3 -2.37,-1.45 0,-0.18 -0.11,-0.36 -0.1,-0.48 0,0 0.1,-0.2 0.18,-0.44 0.11,-0.23 0.28,-0.52 0.45,-0.82 0.35,-0.59 0.73,-1.18 0.9,-1.68 0.44,-1.32 0.13,-2.31 0.13,-2.31 l -0.19,-0.54 v 0 z"
               color="#000000"
               fill="#806600"
               id="path12869" />
          </g>
        </g>
        <path
           d="m 665.95,-223.26 c 0,0 -0.49,-1.49 -1.29,-2.75 -0.4,-0.62 -1.17,-1.51 -1.84,-2.03 -0.69,-0.54 -1.29,-0.71 -1.29,-0.71 0.21,0.79 -0.29,1.71 -0.49,2.36 0,0 -1.16,-2.91 -2.22,-3.77 -0.81,-0.67 -2.73,-1.32 -2.71,-1.32 0,0 -1.79,0.63 -2.62,1.28 -1.06,0.85 -2.26,3.74 -2.26,3.74 -0.19,-0.65 -0.68,-1.57 -0.46,-2.35 0,0 -0.6,0.15 -1.3,0.68 -0.68,0.52 -1.45,1.39 -1.86,2.01 -0.82,1.25 -1.33,2.73 -1.33,2.73 0.95,-0.3 2.53,-2.83 3.41,-2.88 0.74,0 0.79,1.97 1.49,1.86 0.95,-0.15 1.36,-1.82 2.21,-3.15 0.76,-1.19 1.98,-2.27 2.72,-2.24 0.74,0 1.96,1.11 2.69,2.31 0.86,1.41 1.64,2.97 2.44,3.11 0.8,0.14 0.86,-1.93 1.64,-1.89 0.93,0 2.14,2.82 3.07,3.01 z"
           fill="#e4c900"
           id="path12875" />
        <path
           d="m 667.65,-206.38 c 2.17,0.62 3.77,-1.46 4.15,-1.73 0,0 -1.06,-0.37 -2.09,-1.68 -0.68,-0.88 -1.32,-2.6 -1.6,-3.42 -1.01,-3.03 0.1,-3.85 0.18,-3.63 0,0 1.84,-1.28 2.49,-2.17 0.63,-0.84 0.69,-2.01 0.63,-3.06 -0.1,-1.56 -1.29,-3.56 -1.29,-3.56 -3,0.67 -3.64,1.27 -4.07,2.37 0,0 -0.49,-1.48 -1.29,-2.74 -0.4,-0.63 -1.17,-1.52 -1.84,-2.04 -0.69,-0.54 -1.29,-0.7 -1.29,-0.7 0.21,0.79 -0.29,1.7 -0.49,2.35 0,0 -1.16,-2.91 -2.22,-3.77 -0.81,-0.66 -2.73,-1.31 -2.71,-1.31 0,0 -1.79,0.62 -2.62,1.28 -1.07,0.84 -2.26,3.74 -2.26,3.74 -0.19,-0.65 -0.68,-1.58 -0.46,-2.36 0,0 -0.6,0.16 -1.3,0.69 -0.68,0.51 -1.45,1.39 -1.86,2.01 -0.82,1.25 -1.33,2.73 -1.33,2.73 -0.39,-1.17 -0.99,-1.74 -4.04,-2.43 0,0 -1.23,1.98 -1.34,3.55 -0.1,1.04 0,2.22 0.59,3.07 0.65,0.89 2.46,2.19 2.46,2.19 0.11,-0.21 1.19,0.62 0.14,3.64 -0.29,0.81 -0.95,2.52 -1.65,3.39 -1.04,1.3 -2.1,1.65 -2.1,1.65 1.14,1.53 1.52,2.18 4.12,1.79 -4.54,5.73 -3.32,12.45 2.65,16.76 0.1,-0.75 0.64,-2.55 1.05,-3.29 -0.1,0 0.99,3.19 3.1,4.39 0.68,0.39 1.79,3.32 2.83,4.04 0.94,0.66 2.19,1.32 2.19,1.32 0,0 0.1,-2.6 1.08,-3.28 1.02,-0.7 2.94,-1.89 3.57,-2.31 1.27,-0.84 2.9,-4.51 2.9,-4.51 l 0.6,3.75 c 6.75,-4.8 7.01,-10.39 3.12,-16.72 z"
           fill="none"
           stroke="#806600"
           id="path12877" />
        <g
           transform="translate(-14.275,-5.3362)"
           fill="#806600"
           id="g12883">
          <path
             d="m 657.2,-218.43 c 0,0 1.8,0.6 2.17,1.42 0.49,1.12 0.37,4.56 0.37,4.56 0,0 -2.27,-1.7 -2.69,-2.62 -0.52,-1.16 0.15,-3.36 0.15,-3.36 z"
             id="path12879" />
          <path
             d="m 683.59,-218.43 c 0,0 -1.8,0.6 -2.17,1.42 -0.49,1.12 -0.37,4.56 -0.37,4.56 0,0 2.27,-1.7 2.69,-2.62 0.52,-1.16 -0.15,-3.36 -0.15,-3.36 z"
             id="path12881" />
        </g>
        <g
           fill="#fff1a1"
           id="g12891">
          <path
             d="m 650.51,-207.52 c -3.47,0.68 -6.12,6.12 -4.62,11.22 1.43,-3.91 5.3,-9.07 4.62,-11.22 z"
             id="path12885" />
          <path
             d="m 662.74,-206.29 c 2.49,0.2 4.47,4.41 3.67,9.85 -0.58,-3.91 -3.51,-7.7 -3.67,-9.85 z"
             id="path12887" />
          <path
             d="m 650.99,-199.18 c 0,0 -0.36,2 0,3.44 0.24,0.96 0.56,1.95 1.16,2.74 0.62,0.81 3.4,1.89 3.4,1.89 v 2.33 c 0,0 2.16,-1.77 2.43,-2.74 0.2,-0.75 0.63,-3.7 0.63,-3.7 l -2,2.74 c 0,0 -3.19,-1.31 -3.93,-2.31 -1.15,-1.55 -1.69,-4.39 -1.69,-4.39 z"
             id="path12889" />
        </g>
        <path
           d="m 647.59,-222.28 c 0,0 -0.13,-0.76 1.55,-1.54 1.77,-0.83 5.4,-1.69 6.77,-1.72 1.64,-0.1 5.24,0.84 7.12,1.76 1.59,0.78 1.62,1.61 1.62,1.61 -2.91,-0.5 -5.83,-0.18 -8.74,0.73 -2.41,-1.11 -5.07,-1.68 -8.32,-0.84 z"
           fill="#ffefa7"
           id="path12893" />
      </g>
    </g>
  </g>
  <metadata
     id="metadata775">
    <rdf:RDF>
      <cc:Work
         rdf:about="">
        <dc:creator>
          <cc:Agent>
            <dc:title> https://commons.wikimedia.org/wiki/File:Royal_Coat_of_Arms_of_the_United_Kingdom_(Scotland).svg and https://commons.wikimedia.org/wiki/File:Tudor_Crown_(Heraldry).svg</dc:title>
          </cc:Agent>
        </dc:creator>
      </cc:Work>
    </rdf:RDF>
  </metadata>
</svg>
