<?xml version="1.0" encoding="UTF-8" standalone="no"?>
<svg xmlns:dc="http://purl.org/dc/elements/1.1/"
                xmlns:cc="http://creativecommons.org/ns#"
                xmlns:rdf="http://www.w3.org/1999/02/22-rdf-syntax-ns#"
                xmlns:svg="http://www.w3.org/2000/svg"
                xmlns="http://www.w3.org/2000/svg"
                width="266"
                height="400"
                version="1.1" >
  <metadata>
    <rdf:RDF>
      <cc:Work rdf:about="">
        <dc:format>image/svg+xml</dc:format>
        <dc:type rdf:resource="http://purl.org/dc/dcmitype/StillImage"/>
        <cc:license rdf:resource=""/>
        <dc:title/>
        <dc:creator>
          <cc:Agent>
            <dc:title>(Drawshield internal)</dc:title>
          </cc:Agent>
        </dc:creator>
      </cc:Work>
    </rdf:RDF>
  </metadata>
<g  style="fill:#ffff00;fill-opacity:1;fill-rule:evenodd;stroke:#000000;stroke-width:3;stroke-linecap:butt;stroke-linejoin:miter;stroke-miterlimit:4;stroke-opacity:1;stroke-dasharray:none" id="body"><path  stroke="inherit" stroke-width="2" d="m 121,369 c 0,-11 -2,-20 -4,-23 -2,0 -12,-3 -21.9,-3 -20.1,-3 -22.6,-3 -18.9,-20 1.7,-5 3.1,-5 19.7,-5 10.1,0 19.1,-3 21.1,-3 2,-3 4,-12 4,-26 0,-22 -3,-26 -21.7,-30 C 82.8,255 57.3,239 43.6,224 26.4,205 16.7,185 12.1,158 8.99,141 9.14,135 13.1,118 19.2,90.1 29.8,70 47.6,52.5 95.6,5.89 173,6 220,52.8 c 28,28.4 41,70.2 34,108.2 -9,49 -39,82 -87,98 l -19,6 -1,21 c 0,14 1,26 2,29 2,0 11,3 21,3 l 18,2 1,12 1,11 -19,0 c -11,0 -19,0 -21,3 -2,3 -3,12 -4,23 l -1,17 -12,0 -12,0 0,-17 z M 174,227 C 219,205 240,153 224,108 211,74.3 177,47.7 141,43.4 127,41.6 100,47.7 86.8,56 72.7,64.9 54.4,84.1 47,98.4 40.4,111 39.3,116 39.3,140 c 0,23 1.1,29 6.8,41 12.6,26 40.4,48 65.9,54 18,4 46,0 62,-8 z" /></g></svg>
