<?xml version="1.0" encoding="UTF-8" standalone="no"?>
<!-- Created with Inkscape (http://www.inkscape.org/) -->
<svg xmlns:v="http://schemas.microsoft.com/visio/2003/SVGExtensions/" xmlns:dc="http://purl.org/dc/elements/1.1/" xmlns:cc="http://creativecommons.org/ns#" xmlns:rdf="http://www.w3.org/1999/02/22-rdf-syntax-ns#" xmlns:svg="http://www.w3.org/2000/svg" xmlns="http://www.w3.org/2000/svg" version="1.1" width="167.60399" height="163.07001" id="svg2" xml:space="preserve" style="font-size:12px;fill:none;stroke-linecap:square;stroke-miterlimit:3;overflow:visible"><title id="title4">Acorn Sprig</title><metadata id="metadata239"><rdf:RDF><cc:Work rdf:about=""><dc:format>image/svg+xml</dc:format><dc:type rdf:resource="http://purl.org/dc/dcmitype/StillImage"/><dc:title>Acorn Sprig</dc:title><dc:date>06/13/2013</dc:date><dc:creator><cc:Agent><dc:title>Christie L. Ward</dc:title></cc:Agent></dc:creator><dc:rights><cc:Agent><dc:title>Creative Commons Attribution-ShareAlike 3.0 Unported (CC BY-SA 3.0) license (http://creativecommons.org/licenses/by-sa/3.0/). No attribution required for heraldic or artistic use by members of the Society for Creative Anachronism, Inc.</dc:title></cc:Agent></dc:rights><dc:source>Microsoft Visio 2010</dc:source><cc:license rdf:resource="http://creativecommons.org/licenses/by-sa/3.0/"/></cc:Work><cc:License rdf:about="http://creativecommons.org/licenses/by-sa/3.0/"><cc:permits rdf:resource="http://creativecommons.org/ns#Reproduction"/><cc:permits rdf:resource="http://creativecommons.org/ns#Distribution"/><cc:requires rdf:resource="http://creativecommons.org/ns#Notice"/><cc:requires rdf:resource="http://creativecommons.org/ns#Attribution"/><cc:permits rdf:resource="http://creativecommons.org/ns#DerivativeWorks"/><cc:requires rdf:resource="http://creativecommons.org/ns#ShareAlike"/></cc:License></rdf:RDF></metadata><defs id="defs237"/>
	
	<v:documentProperties v:viewMarkup="false" v:langID="1033"/>

	<style type="text/css" id="style6"/>

	<g id="g8"><title id="title10">Page-1</title>
		
		<v:pageProperties v:shadowOffsetY="-9" v:shadowOffsetX="9" v:drawingUnits="19" v:pageScale="1" v:drawingScale="1"/>

			<g id="leaved" style="fill:#00ff00"><title id="title16">Sheet.2</title>
				
				<g id="group3-3" style="fill:#00ff00"><title id="title19">Oak Leaf</title>
					
					<g id="shape4-4" style="fill:#00ff00"><title id="title22">Sheet.4</title>
						
						<path d="m4.539,51.45   c-1.499,0.9985 -1.982,3.248 -1.025,4.773 0.0553,1.404 -1.008,2.771 -2.383,3.062   l7.149,2.044 -5.784,0.6788   c-0.7951,0.9529 -0.915,2.411 -0.2871,3.482   C2.829,66.57 4.169,67.17 5.379,66.94   l3.741,1.025   c1.251,0.1022 2.312,1.294 2.269,2.549 -0.04313,1.255 -1.183,2.371 -2.439,2.387 -3.328,0.8245 -6.167,3.401 -7.311,6.633 0.3345,2.512 1.883,4.834 4.074,6.11 2.19,1.274 4.975,1.474 7.325,0.5226   l6.463,-2.376   c0.9352,-0.8156 2.612,-0.4808 3.162,0.6307   C23.21,85.55 22.47,87.05 21.25,87.35 18.58,87.45 16.16,89.65 15.77,92.35 14.55,93.25 12.79,93.55 11.34,92.95 10.4,92.35 9.049,92.45 8.179,93.15 7.309,93.85 6.989,95.15 7.429,96.25 8.219,96.77 8.649,97.77 8.469,98.67 8.279,99.62 7.499,100.4 6.579,100.4 6.319,101.7 6.969,103.1 8.069,103.7 9.179,104.1 10.66,103.9 11.51,103.1   c1.87,0.1817 3.628,1.286 4.603,2.892 0.9928,0.8584 2.657,0.7792 3.564,-0.1697 4.125,-2.547 7.736,-5.924 10.55,-9.871 0.4304,-1.325 2.235,-1.973 3.409,-1.224 1.175,0.7485 1.35,2.658 0.3316,3.607 -4.713,2.959 -8.461,7.435 -10.54,12.59   l-2.892,4.929   c1.163,2.131 3.527,3.551 5.954,3.578 2.115,-0.1336 6.124,1.358 6.124,1.358   l5.621,-4.25   c0,0 3.821,-5.138 6.802,-6.124 1.095,-0.2587 2.33,0.4688 2.634,1.552 0.3047,1.084 -0.3691,2.348 -1.439,2.697 -2.237,0.6003 -3.847,2.975 -3.578,5.275 0.9694,2.326 3.636,3.81 6.124,3.408 4.143,0.2934 8.32,0.1202 12.42,-0.5162 0.8564,0.02609 1.683,0.5334 2.093,1.285 0.4108,0.7519 0.3909,1.721 -0.0495,2.455 -0.306,1.37 0.1633,2.886 1.189,3.844 1.026,0.958 2.571,1.321 3.916,0.9221 4.116,-0.8704 8.125,-2.247 11.91,-4.087 1.812,-3.776 3.173,-7.769 4.045,-11.87 0.3995,-1.346 0.03536,-2.891 -0.9221,-3.916 -0.958,-1.026 -2.474,-1.495 -3.844,-1.189 -0.7348,0.4407 -1.704,0.4602 -2.455,0.0495 -0.7519,-0.4108 -1.259,-1.237 -1.285,-2.093 0.6336,-4.103 0.8047,-8.276 0.5091,-12.42 0.4059,-2.488 -1.076,-5.158 -3.401,-6.131 -2.3,-0.2687 -4.675,1.341 -5.275,3.578 -0.3502,1.07 -1.614,1.744 -2.697,1.439 -1.084,-0.3047 -1.811,-1.539 -1.552,-2.634 0.9857,-2.981 3.262,-5.51 6.124,-6.802 2.399,-0.7368 4.194,-3.113 4.25,-5.621 -1.015,-1.86 -1.491,-4.009 -1.358,-6.124 -0.02687,-2.427 -1.447,-4.791 -3.578,-5.954   l-4.929,2.892   c-5.16,2.085 -9.631,5.827 -12.59,10.54 -0.9499,1.019 -2.859,0.8436 -3.607,-0.3316 -0.7485,-1.175 -0.0997,-2.979 1.224,-3.409 3.947,-2.814 7.324,-6.424 9.871,-10.55 0.9488,-0.9067 1.028,-2.571 0.1697,-3.564 -1.606,-0.9748 -2.711,-2.733 -2.892,-4.603 0.9116,-0.8505 1.166,-2.325 0.5926,-3.432   C56.07,53.92 54.72,53.28 53.5,53.53 53.35,54.45 52.57,55.24 51.66,55.44 50.75,55.62 49.74,55.17 49.24,54.38 48.2,53.95 46.89,54.27 46.18,55.13 45.45,56.02 45.38,57.35 46.01,58.3 46.6,59.74 46.32,61.51 45.33,62.73 42.58,62.99 40.27,65.61 40.36,68.39 39.92,69.42 38.52,69.91 37.53,69.38 36.54,68.84 36.2,67.4 36.83,66.47   l2.376,-6.463   c0.9509,-2.35 0.7517,-5.134 -0.5226,-7.325   C37.41,50.48 35.08,48.94 32.57,48.6 29.33,49.74 26.75,52.59 25.93,55.92 25.88,57.16 24.77,58.26 23.54,58.3 22.3,58.34 21.13,57.31 21,56.09   l-1.025,-3.741   c0.229,-1.219 -0.3776,-2.551 -1.447,-3.179   C17.46,48.53 16.01,48.66 15.05,49.45   l-0.6859,5.791 -2.044,-7.149   c-0.2908,1.375 -1.657,2.438 -3.062,2.383 -1.503,-0.9448 -3.718,-0.4879 -4.723,0.9758   z " id="path24" style="fill:#00ff00;stroke:#000000;stroke-width:2.25;stroke-linecap:round;stroke-linejoin:round"/>
					</g>
					<g id="shape5-6" style="fill:#00ff00"><title id="title27">Rectangle</title>
						
						<path d="m81.08,133.1 5.247,-5.247   L5.969,52.7   l-0.1414,0.1414 72,74.08   z " id="path29" style="fill:#00ff00;stroke:#000000;stroke-width:1.5;stroke-linecap:round;stroke-linejoin:round"/>
					</g>
				</g>
				<g id="group6-8" style="fill:#00ff00"><title id="title32">Oak Leaf.240</title>
					
					<g id="shape7-9" style="fill:#00ff00"><title id="title35">Sheet.7</title>
						
						<path d="m163.1,51.45   c1.499,0.9985 1.982,3.248 1.025,4.773 -0.0553,1.404 1.008,2.771 2.383,3.062   l-7.149,2.044 5.784,0.6788   c0.7951,0.9529 0.915,2.411 0.2871,3.482   C164.8,66.57 163.5,67.17 162.3,66.94   l-3.741,1.025   c-1.251,0.1022 -2.312,1.294 -2.269,2.549 0.04313,1.255 1.183,2.371 2.439,2.387 3.328,0.8245 6.167,3.401 7.311,6.633 -0.3345,2.512 -1.883,4.834 -4.074,6.11 -2.19,1.274 -4.975,1.474 -7.325,0.5226   l-6.463,-2.376   c-0.9352,-0.8156 -2.612,-0.4808 -3.162,0.6307   C144.4,85.55 145.2,87.05 146.4,87.35 149.1,87.45 151.5,89.65 151.9,92.35 153.1,93.25 154.9,93.55 156.3,92.95 157.3,92.35 158.6,92.45 159.5,93.15 160.3,93.85 160.7,95.15 160.2,96.25 159.4,96.77 159,97.77 159.2,98.67 159.4,99.62 160.2,100.4 161.1,100.4 161.3,101.7 160.7,103.1 159.6,103.7 158.5,104.1 157,103.9 156.1,103.1   c-1.87,0.1817 -3.628,1.286 -4.603,2.892 -0.9928,0.8584 -2.657,0.7792 -3.564,-0.1697 -4.125,-2.547 -7.736,-5.924 -10.55,-9.871 -0.4304,-1.325 -2.235,-1.973 -3.409,-1.224 -1.175,0.7485 -1.35,2.658 -0.3316,3.607 4.713,2.959 8.461,7.435 10.54,12.59   l2.892,4.929   c-1.163,2.131 -3.527,3.551 -5.954,3.578 -2.115,-0.1336 -4.263,0.3429 -6.124,1.358 -2.509,-0.05515 -4.884,-1.852 -5.621,-4.25 -1.292,-2.862 -3.821,-5.138 -6.802,-6.124 -1.095,-0.2587 -2.33,0.4688 -2.634,1.552 -0.3047,1.084 0.3691,2.348 1.439,2.697 2.237,0.6003 3.847,2.975 3.578,5.275 -0.9694,2.326 -3.636,3.81 -6.124,3.408 -4.143,0.2934 -8.32,0.1202 -12.42,-0.5162 -0.8564,0.02609 -1.683,0.5334 -2.093,1.285 -0.4108,0.7519 -0.3909,1.721 0.0495,2.455 0.306,1.37 -0.1633,2.886 -1.189,3.844 -1.026,0.958 -2.571,1.321 -3.916,0.9221 -4.116,-0.8704 -8.125,-2.247 -11.91,-4.087 -1.812,-3.776 -3.173,-7.769 -4.045,-11.87 -0.3995,-1.346 -0.03536,-2.891 0.9221,-3.916 0.958,-1.026 2.474,-1.495 3.844,-1.189 0.7348,0.4407 1.704,0.4602 2.455,0.0495 0.7519,-0.4108 1.259,-1.237 1.285,-2.093 -0.6336,-4.103 -0.8047,-8.276 -0.5091,-12.42 -0.4059,-2.488 1.076,-5.158 3.401,-6.131 2.3,-0.2687 4.675,1.341 5.275,3.578 0.3502,1.07 1.614,1.744 2.697,1.439 1.084,-0.3047 1.811,-1.539 1.552,-2.634 -0.9857,-2.981 -3.262,-5.51 -6.124,-6.802 -2.399,-0.7368 -4.194,-3.113 -4.25,-5.621 1.015,-1.86 1.491,-4.009 1.358,-6.124 0.02687,-2.427 1.447,-4.791 3.578,-5.954   l4.929,2.892   c5.16,2.085 9.631,5.827 12.59,10.54 0.9499,1.019 2.859,0.8436 3.607,-0.3316 0.7485,-1.175 0.0997,-2.979 -1.224,-3.409 -3.947,-2.814 -7.324,-6.424 -9.871,-10.55 -0.9488,-0.9067 -1.028,-2.571 -0.1697,-3.564 1.606,-0.9748 2.711,-2.733 2.892,-4.603 -0.9116,-0.8505 -1.166,-2.325 -0.5926,-3.432   C111.6,53.92 112.9,53.28 114.1,53.53 114.3,54.45 115.1,55.24 116,55.44 116.9,55.62 117.9,55.17 118.4,54.38 119.5,53.95 120.8,54.27 121.5,55.13 122.2,56.02 122.3,57.35 121.6,58.3 121.1,59.74 121.3,61.51 122.3,62.73 125.1,62.99 127.4,65.61 127.3,68.39 127.7,69.42 129.1,69.91 130.1,69.38 131.1,68.84 131.5,67.4 130.8,66.47   l-2.376,-6.463   c-0.9509,-2.35 -0.7517,-5.134 0.5226,-7.325   C130.2,50.48 132.6,48.94 135.1,48.6 138.3,49.74 140.9,52.59 141.7,55.92 141.8,57.16 142.9,58.26 144.1,58.3 145.3,58.34 146.5,57.31 146.6,56.09   l1.025,-3.741   c-0.229,-1.219 0.3776,-2.551 1.447,-3.179   C150.2,48.53 151.6,48.66 152.6,49.45   l0.6859,5.791 2.044,-7.149   c0.2908,1.375 1.657,2.438 3.062,2.383 1.503,-0.9448 3.718,-0.4879 4.723,0.9758   z " id="path37" style="fill:#00ff00;stroke:#000000;stroke-width:2.25;stroke-linecap:round;stroke-linejoin:round"/>
					</g>
					<g id="shape8-11" style="fill:#00ff00"><title id="title40">Rectangle</title>
						
						<path d="m86.58,133.1 -5.247,-5.247   L161.7,52.7   l0.1414,0.1414 -72,74.08   z " id="path42" style="fill:#00ff00;stroke:#000000;stroke-width:1.5;stroke-linecap:round;stroke-linejoin:round"/>
					</g>
				</g>
			</g>
            <g id="body">
			<g id="shape9-13" style="fill:#ffff00"><title id="title45">Rectangle</title>
				
				<path d="m77.07,162 13.46,0   a25.48,19.57 0,0,1 -4.09,-9.3  L83.98,12.75 83.58,12.75 80.98,152.8   A23.95,18.4 0,0,1 77.07,162  z " id="path47" style="fill:#ffff00;stroke:#000000;stroke-width:2.25;stroke-linecap:round;stroke-linejoin:round"/>
			</g>
			<g id="group10-15" style="fill:#ffff00"><title id="title50">Sheet.10</title>
				
				<g id="shape11-16" style="fill:#ffff00"><title id="title53">Sheet.11</title>
					
					<path d="m83.78,1.06 0.01,-0.01 0,0.03   c0.8229,1.521 2.327,2.591 3.95,2.81 2.612,1.384 6.52,6.1 6.52,6.1 0,0 4.708,16.06 4.25,24.4   l-14.72,0 -0.02,0 -14.72,0   c-0.4581,-8.343 1.015,-16.8 4.25,-24.4 1.637,-2.592 3.908,-4.716 6.52,-6.1 1.623,-0.219 3.127,-1.289 3.95,-2.81   l0,-0.03   z " id="path55" style="fill:#ffff00;stroke:#000000;stroke-width:2.16000009;stroke-linecap:round;stroke-linejoin:round"/>
				</g>
				<g id="shape12-18" style="fill:#ffff00"><title id="title58">Sheet.12</title>
					
					<path d="m83.78,33.26 13.83,0 3.76,4.88   c0,0 -2.376,8.774 -6.17,10.16   L83.78,51.66 72.38,48.26   c-3.794,-1.386 -6.47,-5.792 -6.17,-10.16 -0.09598,-2.337 1.64,-4.59 3.76,-4.88   z " id="path60" style="fill:#ffff00;stroke:#000000;stroke-width:2.16000009;stroke-linecap:round;stroke-linejoin:round"/>
				</g>
				<g id="group13-20" style="fill:#ffff00"><title id="title63">Sheet.13</title>
					
					<g id="shape14-21" style="fill:#ffff00"><title id="title66">Sheet.14</title>
						
						<path d="M83.68,48.76 83.68,48.76 83.68,48.76 83.68,48.76   z " id="path68" style="fill:#ffff00;stroke:#000000;stroke-width:1.20000005;stroke-linecap:round;stroke-linejoin:round"/>
					</g>
					<g id="shape15-23" style="fill:#ffff00"><title id="title71">Sheet.15</title>
						
						<path d="M88.68,48.76 88.68,48.76 88.68,48.76 88.68,48.76   z " id="path73" style="fill:#ffff00;stroke:#000000;stroke-width:1.20000005;stroke-linecap:round;stroke-linejoin:round"/>
					</g>
					<g id="shape16-25" style="fill:#ffff00"><title id="title76">Sheet.16</title>
						
						<path d="m81.78,51.05   c0.4385,-0.865 1.077,-1.627 1.85,-2.21   l-0.01,0.05   c0.766,0.5946 1.394,1.367 1.82,2.24   l-1.7,0.5   z " id="path78" style="fill:#ffff00;stroke:#000000;stroke-width:1.20000005;stroke-linecap:round;stroke-linejoin:round"/>
					</g>
					<g id="shape17-27" style="fill:#ffff00"><title id="title81">Sheet.17</title>
						
						<path d="m87.08,50.66   c0.4229,-0.7052 0.9833,-1.327 1.64,-1.82   l-0.02,0.05   c0.3753,0.2905 1.02,0.99 1.02,0.99   z " id="path83" style="fill:#ffff00;stroke:#000000;stroke-width:1.20000005;stroke-linecap:round;stroke-linejoin:round"/>
					</g>
					<g id="shape18-29" style="fill:#ffff00"><title id="title86">Sheet.18</title>
						
						<path d="m93.78,48.66   c0.3503,-1.475 1.244,-2.814 2.47,-3.7   l0.01,-0.02 0.01,0.01 0.02,-0.01 0,0.02   c0.2134,0.1538 0.4172,0.3209 0.61,0.5 0.3663,0.3753 0.6862,0.7962 0.95,1.25 -0.7948,0.6649 -2.64,1.53 -2.64,1.53   z " id="path88" style="fill:#ffff00;stroke:#000000;stroke-width:1.20000005;stroke-linecap:round;stroke-linejoin:round"/>
					</g>
					<g id="shape19-31" style="fill:#ffff00"><title id="title91">Sheet.19</title>
						
						<path d="M97.78,46.66   L97.78,46.66   z " id="path93" style="fill:#ffff00;stroke:#000000;stroke-width:1.20000005;stroke-linecap:round;stroke-linejoin:round"/>
					</g>
					<g id="shape20-33" style="fill:#ffff00"><title id="title96">Sheet.20</title>
						
						<path d="m77.62,49.85   c0.2921,-0.3472 0.6212,-0.6629 0.98,-0.94 0.5952,0.4626 1.51,1.67 1.51,1.67   z " id="path98" style="fill:#ffff00;stroke:#000000;stroke-width:1.20000005;stroke-linecap:round;stroke-linejoin:round"/>
					</g>
					<g id="shape21-35" style="fill:#ffff00"><title id="title101">Sheet.21</title>
						
						<path d="m69.66,46.66   c0,0 0.6259,-0.8437 1.01,-1.2 0.2003,-0.2041 0.4142,-0.3947 0.64,-0.57 -0.3181,-1.553 -1.237,-2.975 -2.52,-3.9   l0,-0.02 -0.02,0.01 -0.01,-0.01 0,0.02   c-0.7209,0.5192 -1.332,1.192 -1.78,1.96 0.6043,1.448 2.68,3.71 2.68,3.71   z " id="path103" style="fill:#ffff00;stroke:#000000;stroke-width:1.20000005;stroke-linecap:round;stroke-linejoin:round"/>
					</g>
					<g id="shape22-37" style="fill:#ffff00"><title id="title106">Sheet.22</title>
						
						<path d="m83.88,40.95   c-0.03014,-0.006 -0.09,-0.02 -0.09,-0.02 0,0 -0.1328,0.0298 -0.2,0.04 -0.302,-1.482 -1.148,-2.845 -2.34,-3.77 0.3181,-1.553 1.237,-2.975 2.52,-3.9   l0,-0.02 0.02,0.01 0.01,-0.01 0,0.02   c1.266,0.9103 2.178,2.303 2.51,3.83 -1.235,0.9219 -2.116,2.308 -2.43,3.82   z " id="path108" style="fill:#ffff00;stroke:#000000;stroke-width:1.20000005;stroke-linecap:round;stroke-linejoin:round"/>
					</g>
					<g id="shape23-39" style="fill:#ffff00"><title id="title111">Sheet.23</title>
						
						<path d="m88.88,40.95   c-0.03014,-0.006 -0.06015,-0.0127 -0.09,-0.02 -0.06599,0.0165 -0.2,0.04 -0.2,0.04 0,0 -1.148,-2.845 -2.34,-3.77 0.3181,-1.553 1.237,-2.975 2.52,-3.9   l0,-0.02 0.02,0.01 0.01,-0.01 0,0.02   c1.266,0.9103 2.178,2.303 2.51,3.83 -1.235,0.9219 -2.116,2.308 -2.43,3.82   z " id="path113" style="fill:#ffff00;stroke:#000000;stroke-width:1.20000005;stroke-linecap:round;stroke-linejoin:round"/>
					</g>
					<g id="shape24-41" style="fill:#ffff00"><title id="title116">Sheet.24</title>
						
						<path d="m93.88,40.95   c-0.03014,-0.006 -0.06015,-0.0127 -0.09,-0.02 -0.06599,0.0165 -0.2,0.04 -0.2,0.04 0,0 -1.148,-2.845 -2.34,-3.77 0.3181,-1.553 1.237,-2.975 2.52,-3.9   l0,-0.02 0.02,0.01 0.01,-0.01 0,0.02   c1.266,0.9103 2.178,2.303 2.51,3.83 -1.235,0.9219 -2.116,2.308 -2.43,3.82   z " id="path118" style="fill:#ffff00;stroke:#000000;stroke-width:1.20000005;stroke-linecap:round;stroke-linejoin:round"/>
					</g>
					<g id="shape25-43" style="fill:#ffff00"><title id="title121">Sheet.25</title>
						
						<path d="m73.84,40.95   c-0.03014,-0.006 -0.06015,-0.0127 -0.09,-0.02 -0.06599,0.0165 -0.1328,0.0298 -0.2,0.04 -0.302,-1.482 -1.148,-2.845 -2.34,-3.77 0.3181,-1.553 1.237,-2.975 2.52,-3.9   l0,-0.02 0.02,0.01 0.01,-0.01 0,0.02   c0,0 2.178,2.303 2.51,3.83 -1.235,0.9219 -2.116,2.308 -2.43,3.82   z " id="path123" style="fill:#ffff00;stroke:#000000;stroke-width:1.20000005;stroke-linecap:round;stroke-linejoin:round"/>
					</g>
					<g id="shape26-45" style="fill:#ffff00"><title id="title126">Sheet.26</title>
						
						<path d="m78.87,40.95   c0,0 -0.06015,-0.0127 -0.09,-0.02 -0.06599,0.0165 -0.1328,0.0298 -0.2,0.04 -0.302,-1.482 -1.148,-2.845 -2.34,-3.77 0.3181,-1.553 1.237,-2.975 2.52,-3.9   l0,-0.02 0.02,0.01 0.01,-0.01 0,0.02   c1.266,0.9103 2.178,2.303 2.51,3.83 -1.235,0.9219 -2.43,3.82 -2.43,3.82   z " id="path128" style="fill:#ffff00;stroke:#000000;stroke-width:1.20000005;stroke-linecap:round;stroke-linejoin:round"/>
					</g>
					<g id="shape27-47" style="fill:#ffff00"><title id="title131">Sheet.27</title>
						
						<path d="m81.38,44.76   c-0.03014,-0.006 -0.06015,-0.0127 -0.09,-0.02 -0.06599,0.0165 -0.1328,0.0298 -0.2,0.04 -0.302,-1.482 -1.148,-2.845 -2.34,-3.77 0.3181,-1.553 1.237,-2.975 2.52,-3.9   l0,-0.02 0.02,0.01 0.01,-0.01 0,0.02   c1.266,0.9103 2.51,3.83 2.51,3.83 0,0 -2.116,2.308 -2.43,3.82   z " id="path133" style="fill:#ffff00;stroke:#000000;stroke-width:1.20000005;stroke-linecap:round;stroke-linejoin:round"/>
					</g>
					<g id="shape28-49" style="fill:#ffff00"><title id="title136">Sheet.28</title>
						
						<path d="m86.38,44.76   c-0.03014,-0.006 -0.06015,-0.0127 -0.09,-0.02 -0.06599,0.0165 -0.1328,0.0298 -0.2,0.04 -0.302,-1.482 -1.148,-2.845 -2.34,-3.77 0.3181,-1.553 1.237,-2.975 2.52,-3.9   l0,-0.02 0.02,0.01 0.01,-0.01 0,0.02   c0,0 2.178,2.303 2.51,3.83 -1.235,0.9219 -2.116,2.308 -2.43,3.82   z " id="path138" style="fill:#ffff00;stroke:#000000;stroke-width:1.20000005;stroke-linecap:round;stroke-linejoin:round"/>
					</g>
					<g id="shape29-51" style="fill:#ffff00"><title id="title141">Sheet.29</title>
						
						<path d="m91.38,44.76   c-0.03014,-0.006 -0.06015,-0.0127 -0.09,-0.02 -0.06599,0.0165 -0.1328,0.0298 -0.2,0.04 -0.302,-1.482 -1.148,-2.845 -2.34,-3.77 0.3181,-1.553 1.237,-2.975 2.52,-3.9   l0,-0.02 0.02,0.01 0.01,-0.01 0,0.02   c0,0 2.178,2.303 2.51,3.83 -1.235,0.9219 -2.116,2.308 -2.43,3.82   z " id="path143" style="fill:#ffff00;stroke:#000000;stroke-width:1.20000005;stroke-linecap:round;stroke-linejoin:round"/>
					</g>
					<g id="shape30-53" style="fill:#ffff00"><title id="title146">Sheet.30</title>
						
						<path d="m96.48,44.76   c-0.03014,-0.006 -0.06015,-0.0127 -0.09,-0.02 -0.06599,0.0165 -0.1328,0.0298 -0.2,0.04 -0.302,-1.482 -1.148,-2.845 -2.34,-3.77 0.3181,-1.553 1.237,-2.975 2.52,-3.9   l0,-0.02 0.02,0.01 0.01,-0.01 0,0.02   c0,0 2.178,2.303 2.51,3.83 -1.235,0.9219 -2.116,2.308 -2.43,3.82   z " id="path148" style="fill:#ffff00;stroke:#000000;stroke-width:1.20000005;stroke-linecap:round;stroke-linejoin:round"/>
					</g>
					<g id="shape31-55" style="fill:#ffff00"><title id="title151">Sheet.31</title>
						
						<path d="m71.34,44.76   c-0.03014,-0.006 -0.06015,-0.0127 -0.09,-0.02 -0.06599,0.0165 -0.1328,0.0298 -0.2,0.04 -0.302,-1.482 -1.148,-2.845 -2.34,-3.77 0.3181,-1.553 1.237,-2.975 2.52,-3.9   l0,-0.02 0.02,0.01 0.01,-0.01 0,0.02   c1.266,0.9103 2.51,3.83 2.51,3.83 0,0 -2.116,2.308 -2.43,3.82   z " id="path153" style="fill:#ffff00;stroke:#000000;stroke-width:1.20000005;stroke-linecap:round;stroke-linejoin:round"/>
					</g>
					<g id="shape32-57" style="fill:#ffff00"><title id="title156">Sheet.32</title>
						
						<path d="m76.37,44.76   c-0.03014,-0.006 -0.09,-0.02 -0.09,-0.02 0,0 -0.1328,0.0298 -0.2,0.04 -0.302,-1.482 -1.148,-2.845 -2.34,-3.77 0.3181,-1.553 1.237,-2.975 2.52,-3.9   l0,-0.02 0.02,0.01 0.01,-0.01 0,0.02   c1.266,0.9103 2.178,2.303 2.51,3.83 -1.235,0.9219 -2.116,2.308 -2.43,3.82   z " id="path158" style="fill:#ffff00;stroke:#000000;stroke-width:1.20000005;stroke-linecap:round;stroke-linejoin:round"/>
					</g>
					<g id="shape33-59" style="fill:#ffff00"><title id="title161">Sheet.33</title>
						
						<path d="m83.78,48.66   c-0.03014,-0.006 -0.06015,-0.0127 -0.09,-0.02 -0.06599,0.0165 -0.1328,0.0298 -0.2,0.04 -0.302,-1.482 -1.148,-2.845 -2.34,-3.77 0.3181,-1.553 1.237,-2.975 2.52,-3.9   l0,-0.02 0.02,0.01 0.01,-0.01 0,0.02   c0,0 2.178,2.303 2.51,3.83 -1.235,0.9219 -2.116,2.308 -2.43,3.82   z " id="path163" style="fill:#ffff00;stroke:#000000;stroke-width:1.20000005;stroke-linecap:round;stroke-linejoin:round"/>
					</g>
					<g id="shape34-61" style="fill:#ffff00"><title id="title166">Sheet.34</title>
						
						<path d="m88.88,48.66   c-0.03014,-0.006 -0.06015,-0.0127 -0.09,-0.02 -0.06599,0.0165 -0.1328,0.0298 -0.2,0.04 -0.302,-1.482 -1.148,-2.845 -2.34,-3.77 0.3181,-1.553 1.237,-2.975 2.52,-3.9   l0,-0.02 0.02,0.01 0.01,-0.01 0,0.02   c0,0 2.178,2.303 2.51,3.83 -1.235,0.9219 -2.116,2.308 -2.43,3.82   z " id="path168" style="fill:#ffff00;stroke:#000000;stroke-width:1.20000005;stroke-linecap:round;stroke-linejoin:round"/>
					</g>
					<g id="shape35-63" style="fill:#ffff00"><title id="title171">Sheet.35</title>
						
						<path d="m93.88,48.66   c-0.03014,-0.006 -0.06015,-0.0127 -0.09,-0.02 -0.06599,0.0165 -0.1328,0.0298 -0.2,0.04 -0.302,-1.482 -1.148,-2.845 -2.34,-3.77 0.3181,-1.553 1.237,-2.975 2.52,-3.9   l0,-0.02 0.02,0.01 0.01,-0.01 0,0.02   c0,0 2.178,2.303 2.51,3.83 -1.235,0.9219 -2.116,2.308 -2.43,3.82   z " id="path173" style="fill:#ffff00;stroke:#000000;stroke-width:1.20000005;stroke-linecap:round;stroke-linejoin:round"/>
					</g>
					<g id="shape36-65" style="fill:#ffff00"><title id="title176">Sheet.36</title>
						
						<path d="m73.79,48.55   c-0.03014,-0.006 -0.09,-0.02 -0.09,-0.02 0,0 -0.1327,0.0298 -0.2,0.04 -0.3021,-1.458 -1.148,-2.8 -2.34,-3.71 0.3177,-1.529 1.236,-2.929 2.52,-3.84   l0,-0.02 0.02,0.01 0.01,-0.01 0,0.02   c1.266,0.8961 2.179,2.267 2.51,3.77 -1.235,0.9074 -2.116,2.272 -2.43,3.76   z " id="path178" style="fill:#ffff00;stroke:#000000;stroke-width:1.20000005;stroke-linecap:round;stroke-linejoin:round"/>
					</g>
					<g id="shape37-67" style="fill:#ffff00"><title id="title181">Sheet.37</title>
						
						<path d="m78.82,48.66   c-0.03014,-0.006 -0.06015,-0.0127 -0.09,-0.02 -0.06599,0.0165 -0.1328,0.0298 -0.2,0.04 -0.302,-1.482 -1.148,-2.845 -2.34,-3.77 0.3181,-1.553 1.237,-2.975 2.52,-3.9   l0,-0.02 0.02,0.01 0.01,-0.01 0,0.02   c0,0 2.178,2.303 2.51,3.83 -1.235,0.9219 -2.116,2.308 -2.43,3.82   z " id="path183" style="fill:#ffff00;stroke:#000000;stroke-width:1.20000005;stroke-linecap:round;stroke-linejoin:round"/>
					</g>
					<g id="shape38-69" style="fill:#ffff00"><title id="title186">Sheet.38</title>
						
						<path d="m66.24,37.26   c1.162,0.9253 1.985,2.271 2.28,3.73 0.05033,-0.008 0.1004,-0.0182 0.15,-0.03 -0.3668,0.2823 -1,0.96 -1,0.96 0,0 -0.5108,0.6182 -0.72,0.96 -0.5977,-1.488 -0.8543,-3.139 -0.74,-4.76 -0.01345,-0.2836 -0.003394,-0.5684 0.03,-0.85   z " id="path188" style="fill:#ffff00;stroke:#000000;stroke-width:1.20000005;stroke-linecap:round;stroke-linejoin:round"/>
					</g>
					<g id="shape39-71" style="fill:#ffff00"><title id="title191">Sheet.39</title>
						
						<path d="m69.59,46.66   c0,0 0.9565,-1.179 1.57,-1.62   l0,-0.02 0.01,0.01 0.02,-0.01 0,0.02   c1.213,0.8758 2.101,2.194 2.46,3.65   l-1.27,-0.37   C71.37,47.85 69.59,46.66 69.59,46.66   z " id="path193" style="fill:#ffff00;stroke:#000000;stroke-width:1.20000005;stroke-linecap:round;stroke-linejoin:round"/>
					</g>
					<g id="shape40-73" style="fill:#ffff00"><title id="title196">Sheet.40</title>
						
						<path d="m66.72,35.66   c0.4891,-0.9853 1.311,-1.767 2.27,-2.16 1.134,0.908 2.25,3.64 2.25,3.64 0,0 -2.109,2.309 -2.42,3.82 -0.03348,-0.006 -0.06683,-0.0125 -0.1,-0.02 -0.01663,0.004 -0.03329,0.007 -0.05,0.01 -0.02655,0.0169 -0.05322,0.0335 -0.08,0.05 -0.2807,-1.483 -1.119,-2.855 -2.31,-3.78 0.06854,-0.5415 0.2178,-1.071 0.44,-1.56   z " id="path198" style="fill:#ffff00;stroke:#000000;stroke-width:1.20000005;stroke-linecap:round;stroke-linejoin:round"/>
					</g>
					<g id="shape41-75" style="fill:#ffff00"><title id="title201">Sheet.41</title>
						
						<path d="m73.72,48.66   c0.3568,-1.464 1.25,-2.791 2.47,-3.67   l0,-0.02 0.02,0.01 0.01,-0.01 0,0.02   c0,0 2.127,2.223 2.48,3.7 -0.0142,0.0598 -0.02753,0.1198 -0.04,0.18   l-0.01,0.02   c-0.3622,0.2691 -0.692,0.5821 -0.98,0.93   z " id="path203" style="fill:#ffff00;stroke:#000000;stroke-width:1.20000005;stroke-linecap:round;stroke-linejoin:round"/>
					</g>
					<g id="shape42-77" style="fill:#ffff00"><title id="title206">Sheet.42</title>
						
						<path d="m80.18,50.55   c-0.3975,-0.6361 -0.9079,-1.201 -1.5,-1.66 0.0193,-0.0267 0.04389,-0.0494 0.07191,-0.0666 -0.01016,-0.0446 -0.0208,-0.089 -0.03191,-0.1334 0.3528,-1.477 1.25,-2.816 2.48,-3.7   l0,-0.02 0.02,0.01 0.01,-0.01 0,0.02   c1.256,0.905 2.164,2.285 2.5,3.8   L83.68,48.85   C82.88,49.45 81.88,51.05 81.88,51.05   z " id="path208" style="fill:#ffff00;stroke:#000000;stroke-width:1.20000005;stroke-linecap:round;stroke-linejoin:round"/>
					</g>
					<g id="shape43-79" style="fill:#ffff00"><title id="title211">Sheet.43</title>
						
						<path d="m85.48,51.16   c-0.4262,-0.8727 -1.054,-1.645 -1.82,-2.24   l0.01,-0.06 0.02,-0.01 -0.01,-0.03   c0.3358,-1.515 1.244,-2.895 2.5,-3.8   l0,-0.02 0.02,0.01 0.01,-0.01 0,0.02   c1.256,0.905 2.164,2.285 2.5,3.8   l-0.01,0.04   c-0.6541,0.4969 -1.63,1.83 -1.63,1.83   z " id="path213" style="fill:#ffff00;stroke:#000000;stroke-width:1.20000005;stroke-linecap:round;stroke-linejoin:round"/>
					</g>
					<g id="shape44-81" style="fill:#ffff00"><title id="title216">Sheet.44</title>
						
						<path d="m89.78,49.85   c0,0 -0.6447,-0.6995 -1.02,-0.99   l0.01,-0.06 0.02,-0.01 -0.01,-0.03   c0.3358,-1.515 1.244,-2.895 2.5,-3.8   l0,-0.02 0.02,0.01 0.01,-0.01 0,0.02   c1.232,0.8869 2.129,2.23 2.48,3.71   z " id="path218" style="fill:#ffff00;stroke:#000000;stroke-width:1.20000005;stroke-linecap:round;stroke-linejoin:round"/>
					</g>
					<g id="shape45-83" style="fill:#ffff00"><title id="title221">Sheet.45</title>
						
						<path d="m97.88,46.66   c0,0 -0.6259,-0.8437 -1.01,-1.2 -0.2003,-0.2041 -0.4142,-0.3947 -0.64,-0.57 0.3181,-1.553 1.237,-2.975 2.52,-3.9   l0,-0.02 0.02,0.01 0.01,-0.01 0,0.02   c0.7209,0.5192 1.332,1.192 1.78,1.96 -0.6043,1.448 -2.68,3.71 -2.68,3.71   z " id="path223" style="fill:#ffff00;stroke:#000000;stroke-width:1.20000005;stroke-linecap:round;stroke-linejoin:round"/>
					</g>
					<g id="shape46-85" style="fill:#ffff00"><title id="title226">Sheet.46</title>
						
						<path d="m100.6,42.95   c0,0 -0.9877,-1.48 -1.68,-2.03   l0.03,0.01   c0.3106,-1.501 1.18,-2.878 2.4,-3.8 0.0459,0.3137 0.06268,0.6326 0.05,0.95 0.1125,1.662 -0.8,4.87 -0.8,4.87   z " id="path228" style="fill:#ffff00;stroke:#000000;stroke-width:1.20000005;stroke-linecap:round;stroke-linejoin:round"/>
					</g>
					<g id="shape47-87" style="fill:#ffff00"><title id="title231">Sheet.47</title>
						
						<path d="m101.3,37.05   c-1.251,0.9238 -2.146,2.323 -2.46,3.85   l0.05,0.04   c-0.02005,-0.003 -0.06,-0.01 -0.06,-0.01 0,0 -0.1329,0.0232 -0.2,0.03 -0.302,-1.482 -1.148,-2.845 -2.34,-3.77 0.2997,-1.452 1.122,-2.79 2.28,-3.71 0.7247,0.2918 1.375,0.8021 1.86,1.46 0.3317,0.5032 0.5918,1.054 0.77,1.63 0.04095,0.1579 0.07434,0.3182 0.1,0.48   z " id="path233" style="fill:#ffff00;stroke:#000000;stroke-width:1.20000005;stroke-linecap:round;stroke-linejoin:round"/>
					</g>
				</g>
			</g>
		</g>
	</g>
</svg>
