<?xml version="1.0" encoding="UTF-8" standalone="no"?>
<svg
   xmlns:dc="http://purl.org/dc/elements/1.1/"
   xmlns:cc="http://creativecommons.org/ns#"
   xmlns:rdf="http://www.w3.org/1999/02/22-rdf-syntax-ns#"
   xmlns:svg="http://www.w3.org/2000/svg"
   xmlns="http://www.w3.org/2000/svg"
   width="206.27043"
   height="225.07458"
   viewBox="0 0 206.27043 225.07458"
   version="1.1"
   id="svg25">
  <metadata
     id="metadata4772">
    <rdf:RDF>
      <cc:Work
         rdf:about="">
        <dc:format>image/svg+xml</dc:format>
        <dc:type
           rdf:resource="http://purl.org/dc/dcmitype/StillImage" />
        <dc:title></dc:title>
        <dc:creator>
          <cc:Agent>
            <dc:title>https://commons.wikimedia.org/wiki/File:Meuble_h%C3%A9raldique_Cactus.svg</dc:title>
          </cc:Agent>
        </dc:creator>
      </cc:Work>
    </rdf:RDF>
  </metadata>

  <path
     style="fill:#00ff00;fill-rule:evenodd;stroke:#808080;stroke-width:2;stroke-linecap:butt;stroke-linejoin:miter;stroke-miterlimit:4;stroke-dasharray:none;stroke-opacity:1"
     d="m 90.99489,224.0738 37.56197,-0.13709 c 4.4539,-6.40006 -2.96357,-7.24237 -4.66097,-11.24117 -4.28213,-6.81628 34.44025,-34.7168 25.77245,-66.35035 36.10084,9.04717 58.73394,-7.94535 45.10178,-31.53013 -13.63216,-23.58478 -44.42224,-7.32117 -51.81907,16.17633 -2.45745,-3.27211 -6.28005,-7.28886 -12.74914,-12.74914 5.6806,-8.32889 13.76386,-3.53783 23.11804,-12.83526 12.76147,-12.68405 21.0326,-35.94959 -6.11919,-53.51509 13.73206,-8.1505 23.60951,-33.99089 2.01914,-44.52702 -15.33141,-7.48174 -34.75853,27.01105 -12.01163,42.08301 -21.03901,-2.40426 -32.92608,15.03323 -33.93104,31.0668 -0.76932,12.27391 10.6494,24.02525 5.21782,32.92546 -5.09993,2.25639 -9.82765,6.2033 -13.93588,11.93065 -12.07064,0.909 -8.72821,-18.16377 -13.28775,-22.93662 -6.55659,-6.86335 -11.39573,-7.45169 -17.88865,-7.66365 4.41384,-15.88136 -9.1251,-42.17282 -18.49061,-26.94322 -7.59428,12.34935 -22.51882,29.50768 4.51415,35.0887 -9.79864,11.97503 -3.42522,33.46938 28.70236,36.71189 -2.8505,6.92848 -3.49283,13.18553 -1.73913,19.03164 -7.87202,-13.1129 -44.6498,-29.09982 -55.99252,-10.45191 -7.02484,11.54913 -9.23349,31.62714 6.7351,45.15857 21.18509,17.95176 43.29156,12.89783 66.77539,5.53054 6.82036,17.30544 -9.26837,22.33991 -2.89262,25.17706 z"
     id="path291" />
  <g
     transform="translate(299.49507,295.15995)"
     id="flowers">
    <path
       d="m -98.216957,-179.20893 c -5.803313,0.77989 -8.618053,1.3066 -13.455733,4.19649 -3.70682,-0.95803 -4.92638,-4.97821 -3.39192,-6.79143 3.69345,-3.12301 7.29985,-6.5835 9.01357,-10.38142 5.85307,-8.37825 18.160124,14.27225 7.834083,12.97636 z m -192.102273,42.49624 c 4.81998,3.32483 7.25759,4.82756 12.78155,5.9413 2.09961,3.20156 0.29919,6.9973 -2.05581,7.30769 -4.83376,-0.17182 -9.83001,-0.0353 -13.65219,1.62362 -9.96588,2.26599 -3.8455,-22.77497 2.92645,-14.87261 z m 34.12891,-26.46334 c -0.62601,5.82193 -0.78546,8.68108 0.86789,14.06819 -1.81405,3.37159 -6.00906,3.59765 -7.40422,1.67518 -2.15251,-4.33145 -4.65353,-8.65881 -7.93345,-11.22848 -6.74143,-7.68157 18.18987,-14.23432 14.46978,-4.51489 z m 39.49351,-33.03798 c -5.00631,3.03703 -7.37507,4.6461 -10.65208,9.2304 -3.78046,0.60539 -6.50686,-2.59084 -5.82622,-4.8666 2.1351,-4.34005 4.05538,-8.95456 4.10609,-13.12091 2.01128,-10.02039 22.354,5.81255 12.37221,8.75711 z m -51.01041,-28.61794 c 3.76738,3.54878 5.69703,5.18787 10.38238,6.90671 1.40202,3.07257 -0.69214,6.13372 -2.79669,6.08467 -4.20938,-0.80505 -8.6031,-1.36364 -12.1763,-0.43735 -9.03588,0.62186 -0.26188,-20.35352 4.59061,-12.55403 z m 94.64843,-62.88793 c 3.38673,4.77669 5.16082,7.02452 9.9674,9.96585 0.87376,3.72759 -2.11965,6.67524 -4.4382,6.15882 -4.48142,-1.81977 -9.22125,-3.40568 -13.3806,-3.15878 -10.13842,-1.2907 4.20167,-22.71196 7.8514,-12.96589 z m 49.03231,57.77232 c -5.00631,3.03703 -7.37507,4.6461 -10.65208,9.2304 -3.78045,0.60539 -6.50686,-2.59084 -5.82622,-4.8666 2.13511,-4.34005 4.05538,-8.95456 4.10609,-13.12091 2.01128,-10.02039 22.354,5.81255 12.37221,8.75711 z"
       style="opacity:1;fill:#ff0000;fill-opacity:1;fill-rule:evenodd;stroke:#808080;stroke-width:2;stroke-linecap:round;stroke-linejoin:miter;stroke-miterlimit:4;stroke-dasharray:none;stroke-dashoffset:0;stroke-opacity:1"
       id="path237" />
  </g>
  <path
     id="path1203"
     style="fill:none;fill-rule:evenodd;stroke:#808080;stroke-width:2;stroke-linecap:round;stroke-linejoin:bevel;stroke-miterlimit:4;stroke-dasharray:none;stroke-opacity:1"
     d="m 23.70718,149.47507 c -2.26633,-2.35945 -5.08102,-4.35043 -8.3064,-6.06542 m 34.98131,-5.2057 c 0.89167,3.14773 2.44054,6.22789 4.48163,9.25746 m -7.11058,50.62178 c -4.4922,2.27435 -8.66984,5.59383 -12.61189,9.69609 m -9.99171,-23.7556 c -3.25431,0.33584 -6.55533,1.33068 -9.89133,2.8191 m 33.47342,-28.72951 c 0.0175,3.10238 0.54805,6.04999 1.76367,8.79093 -2.65852,-1.90672 -5.78902,-3.35115 -9.27303,-4.44935 m 21.7862,21.69083 c 2.21276,2.17458 4.67743,3.87613 7.47844,4.94611 -3.22647,0.5415 -6.45776,1.74365 -9.69268,3.4406 m 61.04351,-14.47418 c 0.25382,3.09204 -0.017,6.07475 -0.98836,8.91146 2.48164,-2.13183 5.47388,-3.84443 8.84853,-5.24301 M 130.699,66.45969 c -1.30759,2.81343 -2.0851,5.70572 -2.15484,8.70332 -1.59115,-2.85859 -3.80637,-5.5004 -6.48903,-7.97986 m 21.16204,27.65437 c -3.06332,0.49119 -5.89528,1.46579 -8.41835,3.08584 1.47823,-2.91858 2.42751,-6.23298 2.98062,-9.84386 m 35.5413,46.85658 c -2.42858,-1.93058 -5.05807,-3.36433 -7.95583,-4.13471 3.1519,-0.87682 6.23933,-2.41115 9.27849,-4.43794 m -39.10313,26.32502 c -3.06332,0.49119 -5.89528,1.46579 -8.41835,3.08584 1.47823,-2.91858 2.42751,-6.23298 2.98062,-9.84386 m -26.02464,16.81588 c -1.53769,2.69456 -2.55371,5.51193 -2.87322,8.49327 -1.34718,-2.98134 -3.33436,-5.79871 -5.80086,-8.49327 m 16.62516,-25.22411 c -1.53769,2.69456 -2.55371,5.51194 -2.87322,8.49328 -1.34719,-2.98134 -3.33436,-5.79872 -5.80087,-8.49328 m 69.77875,-41.03076 c -0.92455,3.23822 -1.29408,6.81895 -1.24789,10.65621 m 32.64091,24.8538 c -3.22437,-0.97177 -6.79932,-1.39359 -10.63684,-1.40348 m -23.67009,22.52425 c -1.78076,-2.85829 -4.18786,-5.53486 -7.06411,-8.0753 M 82.66476,122.57593 c 2.11515,-2.49589 4.80051,-4.65812 7.91295,-6.57046 M 60.92646,84.86072 c 2.49588,-2.11515 4.65812,-4.80051 6.57045,-7.91295 m -17.32412,-9.2282 c -1.01675,-3.10959 -2.68746,-6.1254 -4.84799,-9.07098 m 26.65688,76.10557 c -4.5606,0.49082 -9.18665,1.94474 -13.86174,4.12001 m -6.92378,-19.00744 c -3.2543,0.33584 -6.55532,1.33068 -9.89133,2.8191 M 40.33938,93.88802 c -3.2543,0.33584 -6.55532,1.33068 -9.89132,2.8191 m 129.04623,-9.75851 c 3.36301,-1.55147 6.70954,-4.12397 10.04372,-7.46124 m -10.33697,25.50184 c -2.50674,-1.21698 -5.37166,-2.03067 -8.50487,-2.54228 M 112.85441,64.09731 c -1.01675,-3.10959 -2.68746,-6.1254 -4.84799,-9.07098 m 4.61002,42.85698 c -3.23575,-0.48291 -6.68042,-0.33908 -10.28156,0.27418 M 145.62393,11.37768 C 144.66555,7.80503 142.95798,4.35616 140.68926,1 m 24.43612,22.35303 c -2.61959,-0.15947 -5.30911,0.18899 -8.05101,0.91789 m 0.12495,24.39731 c -1.6073,-2.07468 -3.6426,-3.86703 -5.99846,-5.44791 M 130.06483,31.19169 c -3.23575,-0.48292 -6.68041,-0.33908 -10.28156,0.27418 m -56.4005,63.30466 c -0.96618,3.41426 -8.66906,8.47823 -13.97646,8.14548 m 87.80196,-53.46812 c 1.06871,0.59207 7.43787,3.24281 9.99249,2.44401 m -46.14739,139.53363 c -0.44419,3.29057 -4.73984,6.76629 -7.16586,7.47121 m 16.26951,2.48339 c 2.57629,7.47089 10.96827,6.36982 13.73887,11.31541 M 83.09787,178.13575 c -1.26233,-6.69547 -5.37158,-16.83569 -6.72833,-19.47621 m 43.52722,-41.40327 c 2.86362,-1.70033 8.37982,-0.61905 10.30515,0.98598 m -35.64274,7.12855 c -0.4088,3.3052 -4.64095,7.00473 -7.08876,7.54439 m 62.19793,13.43 c -3.07731,-1.27343 -5.20328,-4.89957 -5.07224,-7.40273" />
</svg>
