<?xml version="1.0" encoding="UTF-8" standalone="no"?>
<!DOCTYPE svg PUBLIC "-//W3C//DTD SVG 1.1//EN" "http://www.w3.org/Graphics/SVG/1.1/DTD/svg11.dtd">
<svg xmlns:dc="http://purl.org/dc/elements/1.1/" xmlns:xl="http://www.w3.org/1999/xlink" version="1.1" xmlns="http://www.w3.org/2000/svg" viewBox="33.75 60.28092 297 295.7849" width="297" height="295.7849">
  <defs>
    <clipPath id="artboard_clip_path">
      <path d="M 33.75 60.28092 L 330.75 60.28092 L 330.75 356.0658 L 33.75 356.0658 Z"/>
    </clipPath>
  </defs>
  <metadata> Produced by OmniGraffle 7.8 
    <dc:date>2018-07-22 17:54:47 +0000</dc:date><dc:title>Traceable heraldic art http://heraldicart.org/credits.html</dc:title>
  </metadata>
  <g id="Grape_Leaf" fill-opacity="1" stroke-dasharray="none" stroke="none" stroke-opacity="1" fill="#ffff00">
    <title>Grape Leaf</title>
    <g id="Grape_Leaf: Layer 2" >
      <title>Layer 2</title>
      <g id="Group_3">
        <g id="Graphic_12">
          <path d="M 183.64074 70.43642 C 183.38918 70.33096 183.34676 70.54069 183.58476 71.09094 C 183.8852 71.87213 183.82628 71.94753 182.85245 72.067104 C 182.28158 72.1372 181.83207 72.36282 181.85681 72.56431 C 181.87743 72.73221 181.75135 72.81586 181.5375 72.73986 C 181.35723 72.65973 181.14398 72.310965 181.10274 71.97516 C 181.06151 71.63936 179.8939 70.18065 178.4871 68.71723 C 177.0844 67.287386 175.92504 65.89584 175.89618 65.66078 C 175.8302 65.12349 172.6042 62.724495 172.36854 63.02612 C 172.2843 63.172814 172.22478 63.52099 172.26189 63.82321 C 172.299 64.12543 172.15877 64.92664 171.89718 65.57232 C 171.66917 66.213876 171.54956 67.18299 171.57783 67.69082 C 171.6061 68.198645 171.58016 68.542695 171.50476 68.48378 C 171.12772 68.18921 170.77126 70.00548 171.11884 70.337756 C 171.35743 70.61524 171.37392 70.74956 171.10528 70.78255 C 170.87022 70.81141 170.78597 70.9581 170.90732 71.11363 C 171.06226 71.26504 170.95268 71.48302 170.76357 71.6085 C 170.44013 71.75047 170.46075 71.91837 170.92144 72.33902 C 171.45753 72.81858 171.42807 72.85628 170.69815 72.74139 C 170.14025 72.639455 169.87985 72.7396 169.795 73.15906 C 169.6047 73.83007 170.06951 74.2843 170.33935 73.70578 C 170.47839 73.4501 170.75056 73.72346 171.03863 74.40391 C 171.31845 75.0172 171.41388 75.51678 171.27955 75.53327 C 171.11165 75.55389 170.9526 75.3689 170.92373 75.13384 C 170.83243 74.66784 169.02619 73.56024 169.08803 74.06394 C 169.10865 74.23184 169.35549 74.57649 169.65711 74.81215 C 170.14314 75.16151 170.05064 75.24104 169.14397 75.352365 C 168.53952 75.42658 168.3298 75.38416 168.65735 75.27577 C 169.30835 75.0254 169.31778 74.54703 168.70568 74.28132 C 168.4877 74.17174 167.98753 74.53993 167.5875 75.16852 C 166.8929 76.17415 166.85932 76.17827 166.97421 75.448345 C 167.04728 74.65538 167.04728 74.65538 166.47935 75.30459 C 166.18065 75.64804 165.93615 76.15527 165.96914 76.42392 C 166.00213 76.69256 165.91788 76.83925 165.7753 76.78858 C 165.59916 76.74204 165.25452 76.988875 164.99352 77.36179 C 164.64004 77.81423 164.63532 78.05341 164.91633 78.12117 C 165.23092 78.1848 165.21796 78.35683 164.93163 78.80102 C 164.73368 79.13211 164.38491 79.345365 164.16694 79.23578 C 163.94896 79.1262 163.8983 79.26877 164.07385 79.58808 C 164.21582 79.91151 164.2111 80.1507 164.0432 80.17131 C 163.84172 80.19605 163.73213 80.41403 163.76512 80.68267 C 163.79398 80.91773 163.6084 81.34956 163.36862 81.61761 C 162.82602 82.19553 162.697 81.70007 163.219 80.95425 C 163.38749 80.66086 163.2025 80.819925 162.7524 81.31832 C 162.27283 81.85441 161.95233 82.5755 162.00593 83.01204 C 162.11314 83.88513 161.66715 84.4171 160.483 84.76702 C 159.85734 84.9461 159.61403 84.9078 159.60226 84.53429 C 159.56928 84.26565 159.22582 83.96696 158.80224 83.84853 C 157.9969 83.67472 157.86611 83.99756 158.153 85.22354 C 158.21131 85.4209 158.10997 85.70604 157.92499 85.8651 C 157.76945 85.98645 157.59743 85.97349 157.57269 85.77201 C 157.54795 85.57052 157.17857 85.61588 156.50224 85.93753 C 155.08243 86.58907 154.6659 87.08334 154.75661 87.82211 C 154.79785 88.15791 154.6753 88.54791 154.45673 88.71109 C 154.2087 88.91198 154.1545 88.7482 154.22698 88.228 C 154.36368 87.12045 153.67027 87.58054 153.2225 88.93081 C 152.99037 89.53878 152.54851 90.10434 152.2463 90.14145 C 151.94407 90.17855 151.5028 90.47134 151.23357 90.77709 C 151.00203 91.1123 150.72043 91.31731 150.61556 91.2961 C 150.50657 91.24131 149.68649 92.05782 148.7527 93.05873 C 147.67163 94.24815 147.0483 95.27911 146.99232 95.93363 C 146.90982 97.20497 146.13569 98.1181 146.00787 97.0771 C 145.95427 96.64056 145.53128 96.24937 144.85202 95.99191 C 143.6402 95.56123 143.29615 95.5353 143.6561 95.96832 C 143.78158 96.15743 143.65138 96.2075 143.33266 96.11029 C 142.9132 96.02544 142.86313 95.89525 143.11116 95.69436 C 143.67025 95.25076 142.74356 94.92142 141.29548 95.06513 C 140.48955 95.16409 140.13666 95.34376 140.26627 95.56646 C 140.35816 95.75969 140.22325 96.04895 139.96697 96.18268 C 139.68124 96.35411 139.53455 96.26986 139.60643 96.02243 C 139.67006 95.70783 139.28419 95.61887 138.3734 95.69661 C 137.36186 95.78672 137.00485 95.93282 136.9577 96.38173 C 136.88936 96.93551 136.85165 96.90606 136.7521 96.37289 C 136.62369 95.60467 135.9562 95.72071 136.05516 96.52664 C 136.13762 97.19825 135.35996 97.80503 134.78145 97.5352 C 134.60117 97.45507 134.49571 97.70663 134.53695 98.04243 C 134.5823 98.41182 134.42617 98.80594 134.1699 98.93966 C 133.91363 99.07339 133.32975 101.25845 132.82481 103.80877 C 132.08184 107.75179 132.04647 108.57421 132.45177 109.37661 C 132.89066 110.17488 132.86944 110.27975 132.341 110.14011 C 132.0264 110.07648 131.29648 109.96159 130.7804 109.92269 C 130.15947 109.86259 129.86609 109.69409 129.92972 109.3795 C 130.15832 108.46518 129.80483 108.91762 129.21862 110.2508 C 128.89812 110.97189 128.35488 113.76552 128.03434 116.42954 C 127.68434 119.13127 127.20826 121.91666 126.95492 122.6295 C 126.67212 123.38004 126.49831 124.18537 126.53542 124.4876 C 126.59315 124.95772 126.52598 124.96597 125.7295 124.58655 C 125.21814 124.30847 124.49646 124.26074 123.90438 124.4357 C 123.37946 124.6024 122.01916 124.90578 120.88155 125.07954 C 119.61375 125.30338 118.99633 125.54963 119.21843 125.69279 C 119.41107 125.87365 119.59075 126.22655 119.62373 126.49519 C 119.66909 126.86457 119.49294 126.81803 118.86023 126.38442 C 118.0767 125.83298 114.29453 124.45669 113.75725 124.52266 C 113.62293 124.53915 113.04853 124.3029 112.46177 123.9659 C 111.80372 123.60358 111.04021 123.4928 110.57834 123.61769 C 110.15416 123.77203 109.81011 123.7461 109.81895 123.5405 C 109.83192 123.36847 109.63515 123.15403 109.35414 123.08627 C 109.07313 123.01851 108.98476 123.13162 109.14794 123.3502 C 109.307 123.53518 109.26046 123.71133 109.09255 123.73195 C 108.89107 123.75669 108.69431 123.54224 108.66132 123.2736 C 108.6036 122.80347 108.1759 122.65147 107.4872 122.87238 C 107.32342 122.92657 107.27335 122.79637 107.35347 122.6161 C 107.62331 122.03758 106.74669 121.83844 106.43915 122.3875 C 106.21586 122.78987 106.17816 122.76041 106.28834 122.26967 C 106.34373 121.88792 106.20588 121.59806 105.89128 121.53443 C 105.57257 121.43722 105.30924 120.95825 105.22265 120.25306 C 105.14431 119.61504 104.94814 119.12783 104.78024 119.14844 C 104.27654 119.21029 104.1139 120.6619 104.57931 120.84336 C 104.86857 120.97827 104.94279 121.58272 104.81786 123.06378 C 104.61043 125.81618 107.21226 141.17656 108.81634 146.46755 C 109.4119 148.54188 109.99862 150.82181 110.08521 151.527 C 110.36146 153.77689 113.48192 160.31332 117.98857 168.14528 C 120.0204 171.64533 120.22893 172.23329 120.7638 175.20132 C 121.0536 177.00642 121.20145 178.48808 121.1007 178.50044 C 120.96638 178.51694 120.5051 178.36906 120.06915 178.1499 C 119.6332 177.93073 118.65584 177.74395 117.90058 177.70034 C 114.71164 177.5465 111.27118 175.34427 108.50119 171.66216 C 104.96122 166.98382 104.04457 165.90334 101.21799 163.14852 C 99.55551 161.54606 97.27269 159.61073 96.12037 158.83187 C 91.2136 155.51439 90.30872 154.80742 89.74435 153.82003 C 89.17587 152.79905 88.27864 152.432 88.51604 153.25502 C 88.73222 154.1829 88.64266 154.84155 88.12893 155.65453 L 87.61931 156.5011 L 85.82191 155.1879 C 84.84987 154.48917 83.84012 153.76098 83.61802 153.61782 C 81.29277 151.89221 76.19983 149.27932 74.522 148.93995 C 73.08748 148.63887 72.36227 148.28479 72.09894 147.80582 C 71.47626 146.62107 71.38729 147.00695 71.8073 148.76197 L 72.21494 150.41625 L 69.05312 149.37283 C 67.31697 148.8361 65.3169 148.09317 64.6294 147.76854 C 63.94189 147.44392 62.470265 146.84062 61.40101 146.4606 C 60.33175 146.0806 58.77647 145.35122 57.963484 144.83749 C 57.15462 144.35733 56.24502 143.88954 55.96401 143.82179 C 55.67887 143.72045 53.75952 142.52448 51.71057 141.10581 C 48.43389 138.84938 44.66588 136.75554 43.92711 136.84625 C 43.79279 136.86274 43.273187 136.5175 42.78304 136.13456 C 41.605986 135.15422 41.139985 135.24553 41.582395 136.35015 C 41.782687 136.87095 42.289877 139.05839 42.729907 141.25408 C 43.136356 143.45389 43.86679 147.1819 44.33156 149.57907 C 44.79633 151.97624 45.08907 154.36045 45.024844 154.9478 C 44.808017 156.23563 45.740444 163.55203 46.10983 163.50667 C 46.24415 163.49018 46.508073 163.69638 46.645923 163.98623 C 46.90925 164.4652 46.569325 164.47285 44.920955 164.09577 C 44.14508 163.88426 44.85898 169.4209 46.134947 173.1501 C 46.297535 173.64143 46.57383 173.94838 46.72936 173.82702 C 46.88077 173.67208 46.934966 173.83586 46.86721 174.11687 C 46.706365 174.75018 47.835684 176.4522 48.661634 176.7939 C 49.164744 177.00483 48.97151 177.09673 47.80032 177.27462 C 46.25562 177.46428 44.654944 178.30847 46.039985 178.20658 L 46.71159 178.12411 L 46.077094 178.5088 C 45.18632 179.02721 44.8841 179.06432 45.069683 178.6325 C 45.145685 178.41864 44.99487 178.30081 44.72623 178.3338 C 44.05462 178.41626 43.78891 179.02836 44.350936 179.16387 C 44.63195 179.23163 44.543576 179.34474 44.207773 179.38597 C 43.87609 179.46078 43.020686 179.15677 42.324935 178.76499 C 41.62506 178.33962 41.08837 178.13283 41.10074 178.23357 C 41.16671 178.77085 42.029173 179.68755 42.247743 179.52437 C 42.403275 179.40301 42.7974 179.55914 43.178556 179.8873 C 43.559714 180.21545 43.697564 180.5053 43.52966 180.52592 C 43.32818 180.55066 43.030675 180.34858 42.892826 180.05872 C 42.721396 179.773 42.528755 179.59213 42.473964 179.70111 C 42.204726 180.00687 43.460673 183.2954 43.738157 183.05681 C 43.86011 182.93958 44.010923 183.0574 44.006205 183.2966 C 44.141673 184.6775 44.304857 184.89608 45.052466 184.59977 C 45.72879 184.27812 45.732915 184.3117 45.21565 184.81834 C 44.664804 185.3291 44.677174 185.42984 45.37114 186.63992 C 45.79353 187.30388 46.78381 189.26157 47.63624 190.9294 C 48.72254 193.11392 49.29987 193.92928 49.661006 193.81677 C 49.9214 193.71662 50.17296 193.82208 50.197697 194.02356 C 50.222436 194.22504 50.06278 194.31282 49.844805 194.20324 C 49.59325 194.09778 49.546705 194.27393 49.65922 194.63506 C 49.771736 194.9962 50.03566 195.2024 50.2666 195.13996 C 50.459836 195.04806 50.585316 195.23717 50.51756 195.51819 C 50.420347 195.8369 50.80563 196.19863 51.49313 196.52326 C 52.72145 197.08826 52.678434 197.57075 51.39885 197.42109 C 50.4969 197.29323 47.0275 198.74181 47.0811 199.17836 C 47.101714 199.34626 47.327935 199.523 47.571244 199.5613 C 47.785096 199.6373 47.663144 199.75454 47.26018 199.80402 C 46.82776 199.8912 46.467216 199.73095 46.404773 199.5 C 46.380034 199.29852 46.25396 199.38218 46.16499 199.76805 C 45.95348 200.54393 43.576924 201.1766 42.46584 200.73355 C 41.321175 200.29463 41.341196 200.7353 42.53062 201.81637 C 43.146245 202.38843 44.192507 203.6916 44.899437 204.72966 C 45.740093 206.024 47.323045 207.53396 50.079524 209.71791 C 52.26633 211.42643 54.65814 213.41656 55.399246 214.17773 C 56.14035 214.9389 57.36748 216.04943 58.09209 216.67628 C 58.816705 217.30312 59.867685 218.3671 60.39494 219.05228 L 61.32809 220.26708 L 60.52216 220.36603 C 59.61549 220.47736 53.20925 223.54775 50.700714 225.0488 C 49.87298 225.52538 48.944504 226.01433 48.68411 226.11448 C 47.96183 226.3395 44.07004 227.12414 42.45818 227.32205 C 41.656377 227.4546 41.034843 227.66725 41.05958 227.86873 C 41.080197 228.03663 41.268715 228.18392 41.470197 228.15918 C 41.70526 228.13032 42.10763 228.3536 42.3798 228.62697 C 42.77745 229.08944 42.949475 229.1024 43.239924 228.6918 C 43.568076 228.31063 43.52625 228.2476 43.022544 228.30944 C 42.72032 228.34655 42.531804 228.19926 42.61193 228.019 C 42.852305 227.47818 43.737764 227.47172 43.79961 227.97542 C 43.828473 228.21049 43.65526 228.74305 43.43197 229.14542 C 43.006604 229.8453 43.006604 229.8453 42.31557 229.21433 C 41.507305 228.4614 40.03568 227.8581 40.085156 228.26107 C 40.109895 228.46255 40.524634 228.78658 40.998286 229.0352 C 41.501397 229.24612 42.548253 230.27653 43.38126 231.23093 C 44.218387 232.21892 45.67114 233.77896 46.634344 234.6833 C 47.63113 235.5835 48.916574 236.8914 49.57815 237.56007 C 51.14814 239.24206 55.4593 242.42816 56.51619 242.70743 C 57.36335 242.94427 57.40105 242.97373 56.78717 243.52632 C 56.26578 243.99938 56.282274 244.1337 56.73059 244.4536 C 57.924736 245.2955 63.004125 248.35318 63.17203 248.33256 C 63.30635 248.31607 64.3002 248.63717 65.44074 249.0425 C 66.54358 249.4184 68.48533 249.96397 69.7437 250.2185 C 70.96437 250.44358 72.41538 250.87897 72.92674 251.15705 C 73.83634 251.62484 76.64289 253.939 76.68 254.24122 C 76.69237 254.34196 76.19691 254.47097 75.59659 254.57877 C 74.99626 254.68656 73.50104 255.2792 72.28684 255.93958 C 70.36685 256.9593 69.44309 257.20908 65.86236 257.751 C 63.18418 258.148 61.16464 258.6346 60.26562 259.08584 C 58.56008 259.9088 57.590374 260.06196 56.882254 259.56944 C 56.43806 259.2831 56.44218 259.3167 56.86929 259.74146 C 57.14558 260.0484 57.65694 260.32648 58.03869 260.38187 C 58.39099 260.47496 58.734444 260.77366 58.77155 261.07588 C 58.829276 261.546 58.50584 261.68798 56.927565 261.88176 C 55.21909 262.12563 53.4134 262.6882 46.64369 265.01923 C 45.824795 265.2902 44.65301 265.74087 44.03972 266.0207 C 42.330057 266.81008 39.167595 267.98238 37.521563 268.45718 C 36.597805 268.70695 36.030467 269.0834 36.000415 269.39385 C 35.965644 269.9435 38.118867 271.65615 41.777297 273.96797 C 43.000897 274.77215 44.077806 275.4921 44.190917 275.58046 C 44.304027 275.66883 44.92025 275.96812 45.599506 276.2256 C 46.27464 276.44947 47.64081 277.30433 48.696507 278.12913 C 49.7145 278.92447 51.1979 279.90128 51.960814 280.28482 C 52.723726 280.66836 53.39002 281.09784 53.40651 281.23217 C 53.46836 281.73587 52.23647 282.80747 51.71215 282.7014 C 51.427013 282.60008 51.2002 282.6961 51.22081 282.864 C 51.24555 283.06548 51.396366 283.1833 51.56427 283.1627 C 51.73217 283.14208 52.85503 283.95864 54.069787 284.96843 C 57.21567 287.5477 58.19596 288.3136 61.48913 290.70434 C 64.14959 292.66148 64.73223 292.9649 65.48808 292.73574 C 65.622404 292.71924 65.735515 292.8076 65.76025 293.0091 C 65.78087 293.177 65.66716 293.3614 65.46568 293.38613 C 65.29778 293.40675 64.7758 294.15257 64.337466 295.02447 C 63.094355 297.39274 62.61067 297.89525 61.683385 297.83867 C 61.272174 297.821 60.90691 297.89993 60.91928 298.00067 C 60.98525 298.53795 61.92019 298.93446 62.82686 298.82313 C 63.330565 298.7613 63.71644 298.85025 63.63219 298.99694 C 63.55207 299.1772 65.1533 300.0032 67.16574 300.84688 C 69.17818 301.69055 72.67874 303.27185 74.96335 304.3889 C 78.19527 306.00317 79.26453 306.38318 80.0245 306.1876 C 80.91468 305.94196 80.9188 305.97554 79.47481 308.09578 C 78.70008 309.28167 77.90886 310.33325 77.7869 310.45048 C 77.63137 310.57184 77.03691 311.83786 76.46307 313.2718 C 75.88511 314.67213 75.03378 316.34464 74.528886 316.952 C 73.37181 318.3553 73.39595 318.82954 74.560085 318.03896 C 75.2535 317.57887 75.75308 317.48344 76.82293 317.5907 C 77.55286 317.70558 79.15588 317.71327 80.37301 317.632 C 82.63527 317.4565 84.10809 317.51426 85.34524 317.87365 C 86.5447 318.2036 89.2046 318.49056 89.69594 318.32797 C 89.95634 318.22782 90.64031 318.2461 91.26125 318.3062 C 92.02064 318.3834 92.64629 318.2043 93.30613 317.74835 C 94.4408 316.99547 94.44493 317.02905 93.93 318.38756 C 93.52053 319.49452 93.53936 320.48072 93.97119 320.6663 C 94.11375 320.71698 94.0843 320.75468 93.87869 320.74584 C 93.71079 320.76645 93.21474 321.16823 92.79821 321.6625 C 92.06178 322.6051 92.06178 322.6051 92.77581 322.3129 C 93.19999 322.15855 93.6112 322.17623 93.73255 322.33177 C 94.08838 322.7312 96.57626 323.0052 97.11826 322.70005 C 97.40811 322.5622 97.66911 322.1893 97.69916 321.8788 C 97.75042 321.4635 97.82583 321.5224 97.92126 322.02198 C 98.06616 322.92452 99.0388 323.3505 100.44918 323.1773 C 101.02004 323.1072 101.50666 323.1838 101.5314 323.3853 C 101.55201 323.5532 101.43831 323.7376 101.30399 323.7541 C 100.86744 323.8077 99.19059 332.6375 99.09214 335.4447 C 98.97661 338.3903 98.47992 341.0078 97.8784 341.66113 C 97.31047 342.31033 97.37763 342.3021 99.4013 341.8491 C 100.56424 341.60404 101.64765 341.2665 101.80318 341.14514 C 101.95872 341.0238 102.00054 341.08682 101.92454 341.30067 C 101.73483 341.6989 98.90877 342.5572 97.09131 342.7463 C 96.18464 342.8576 96.05856 342.94126 96.62059 343.07677 C 97.01059 343.19932 98.15644 343.0927 99.15148 342.86828 C 100.14652 342.64384 101.83379 342.50485 102.86594 342.58263 C 105.06043 342.68814 114.31271 341.14306 115.62354 340.43673 C 116.2327 340.12332 117.00505 340.0285 118.31409 340.14045 C 119.86231 340.25714 120.59696 340.13285 123.07897 339.2486 C 124.71264 338.67308 126.24143 338.07633 126.49358 337.909 C 127.19524 337.5161 128.9396 340.06292 128.48065 340.76692 C 127.71004 341.9864 128.83588 341.43912 131.21953 339.4762 C 134.49455 336.7221 134.62063 336.63845 137.0249 334.84343 C 138.1472 333.9898 139.67307 332.81395 140.41303 332.1777 C 141.99368 330.89286 142.69415 331.04545 142.90443 332.75805 C 142.99102 333.46324 143.1165 333.65235 143.27675 333.2918 C 143.44112 332.96485 143.6585 333.3472 143.95835 334.40115 C 144.204 335.29133 144.54213 336.10198 144.7224 336.1821 C 144.90268 336.26223 144.7925 336.75297 144.48496 337.30203 C 144.1733 337.8175 144.06312 338.30825 144.20981 338.3925 C 144.39009 338.47262 144.7689 337.9489 145.01812 337.20248 C 145.55838 335.77268 147.35646 332.92723 147.75943 332.87775 C 147.92733 332.85714 148.31852 332.43415 148.69734 331.91043 C 149.04258 331.39082 149.22345 331.1982 149.09265 331.52102 C 148.92416 331.8144 149.64762 331.04384 150.68687 329.79138 C 152.6982 327.2947 155.42009 322.25654 156.43405 319.13242 C 157.90461 314.45243 158.34536 310.54652 158.14873 304.50325 C 157.8361 295.84955 162.01617 286.03066 168.87494 279.42787 C 169.90947 278.4146 170.93163 277.30057 171.1885 276.89408 C 171.8454 275.859 172.9777 276.19718 173.66282 277.61287 C 174.5441 279.51577 174.5022 283.33862 173.41504 293.08453 C 172.59304 300.54817 171.96547 307.37437 171.01319 318.77397 C 169.9784 331.4449 168.96134 341.76167 168.46877 344.41274 C 168.27728 345.6293 167.99563 347.77723 167.90016 349.2206 C 167.76048 351.692 167.77697 351.8263 168.56403 352.6841 C 169.19614 353.39047 169.48128 353.4918 169.81768 353.1778 C 170.02388 352.9139 170.35144 352.8055 170.5317 352.8856 C 170.71198 352.96574 171.2204 352.6647 171.67875 352.23347 C 172.10352 351.80637 172.48175 351.5554 172.49824 351.68973 C 172.51473 351.82405 172.8093 351.447 173.1463 350.86025 C 173.2721 350.65837 173.38368 350.4145 173.48484 350.0999 C 173.17701 349.2182 172.5727 347.85917 172.63067 344.9204 C 172.7441 339.17073 173.67904 326.7651 174.30234 318.49466 C 174.92564 310.22423 176.15793 300.24025 177.2768 296.0059 C 178.39567 291.7716 179.64226 275.23073 179.64226 275.23073 L 184.17394 278.77126 L 184.23718 278.90424 C 184.29297 278.84026 184.34822 278.78865 184.40317 278.74836 C 184.9664 278.33834 185.33105 278.53217 187.2498 280.0009 C 188.4899 280.9394 189.48669 281.83962 189.5073 282.00752 C 189.52792 282.17543 189.86253 282.67973 190.28964 283.1045 C 190.6873 283.56697 191.28936 284.58382 191.6275 285.39446 C 191.93206 286.20923 192.64604 287.86 193.17623 289.12426 C 194.41628 292.0057 194.77202 296.29103 194.25875 302.66008 C 193.74195 308.72278 194.417 312.83255 196.75572 317.99925 C 198.99017 322.87197 200.56543 325.98495 202.04585 328.3256 C 202.72333 329.40135 203.2877 330.38874 203.30418 330.52306 C 203.31655 330.6238 203.71833 331.11986 204.1578 331.64537 C 204.8235 332.34762 205.07506 332.4531 205.26476 332.05484 C 205.42914 331.72787 205.4751 331.8245 205.40261 332.3447 C 205.27063 333.21306 206.01233 333.70146 206.36641 332.97626 C 206.53079 332.6493 206.6268 332.8761 206.68806 333.6526 C 206.7664 334.2906 207.10395 335.37402 207.48863 336.0085 C 208.31632 337.47488 209.1134 337.58153 208.60031 336.1788 C 208.22094 335.03235 208.58446 333.82877 210.04554 331.5701 C 210.6182 330.6817 211.17848 329.69257 211.30927 329.36973 C 211.5202 328.8666 211.76762 328.9385 212.9111 329.92295 C 213.6357 330.5498 214.40274 330.96692 214.55415 330.812 C 214.74327 330.6865 214.85638 330.77487 214.7845 331.0223 C 214.7462 331.2656 215.54622 331.95138 216.64022 332.53287 C 219.01673 333.84314 224.94502 338.2623 226.4019 339.85594 C 227.53653 341.046 228.14922 341.03895 227.89592 339.80884 C 227.84645 339.40588 227.88593 338.61704 228.05915 338.08447 C 228.19878 337.55603 228.26714 337.00225 228.21706 336.87205 C 228.167 336.74185 228.2265 336.39368 228.3237 336.07496 C 228.46747 335.5801 228.9205 335.6608 231.60808 336.72838 C 234.40465 337.85073 238.7624 338.91773 239.9713 338.7693 C 240.67648 338.6827 240.47206 338.12834 239.67498 338.0217 C 239.29322 337.9663 238.96214 337.76835 238.93328 337.5333 C 238.9044 337.29823 239.17718 337.29882 239.68854 337.5769 C 240.1286 337.82965 240.9634 337.96575 241.53427 337.89566 C 242.07155 337.8297 243.3429 337.9122 244.28254 338.0695 C 245.2599 338.2563 247.98756 338.26224 250.35055 338.07436 C 252.71355 337.88648 254.75723 337.87415 254.8786 338.0297 C 254.99582 338.15164 255.51602 338.2241 256.0533 338.15814 C 256.99355 338.0427 257.023 338.005 256.57588 337.13955 C 254.86218 334.00948 252.62072 326.58112 251.67175 321.07335 C 251.27002 318.63435 250.78757 316.6484 250.61967 316.669 C 250.48535 316.6855 250.33453 316.56767 250.31804 316.43335 C 250.28506 316.1647 252.92906 316.0446 259.40416 316.03354 C 261.48143 316.0171 263.21052 315.94113 263.19815 315.8404 C 263.18578 315.73964 262.86413 315.0633 262.50478 314.35754 C 262.14542 313.65175 261.79963 312.50118 261.67534 311.76654 L 261.51454 310.4569 L 263.32316 310.47344 C 264.27578 310.45873 268.02794 310.20254 271.60395 309.8998 L 278.0761 309.30965 L 277.79927 307.33253 C 277.6632 306.22438 277.17017 303.31938 276.73074 300.85093 C 276.25772 298.3866 275.90134 296.317 275.93492 296.31286 C 275.9308 296.27928 277.82014 295.84278 280.11245 295.3568 C 285.36042 294.2352 291.79726 292.52453 292.09596 292.18108 C 292.26858 291.92128 290.88537 289.26192 289.693 287.60174 C 288.86885 286.44173 289.13396 286.1024 291.28782 285.59933 C 294.99934 284.73457 299.53686 282.2686 302.35 279.63937 L 303.72505 278.34568 L 302.61044 277.59628 C 302.01543 277.19213 301.5088 276.67486 301.48405 276.47338 C 301.4593 276.2719 302.87266 274.7349 304.64303 273.0518 C 307.81378 270.00372 315.7961 260.05884 315.43614 259.62582 C 315.3189 259.50387 314.8535 259.3224 314.4046 259.27527 C 313.26345 259.1427 309.85007 257.99382 307.72452 257.06177 C 306.6429 256.58102 305.1748 256.28407 303.7061 256.25988 C 301.0079 256.21622 297.8119 255.4497 297.44842 254.71034 C 297.3147 254.45406 297.2982 254.31974 297.449 254.43757 C 297.78835 254.70268 298.78284 252.80807 298.4983 252.43397 C 298.38106 252.31202 297.9616 252.22717 297.52506 252.28078 C 296.6184 252.3921 292.46153 251.57312 292.42442 251.2709 C 292.3667 250.80077 292.87984 250.26055 294.29612 249.30267 C 295.5822 248.39485 295.72537 248.17275 295.50034 247.45048 C 295.23348 246.66516 295.3849 246.51023 297.69135 245.3067 C 301.14486 243.451 307.02856 239.45627 308.54265 237.9069 C 309.2408 237.20762 310.35544 236.01407 311.04532 235.24763 C 311.70163 234.48532 312.8198 233.59812 313.50026 233.31005 C 315.04615 232.57485 314.95544 231.83608 313.30647 231.73177 C 312.31203 231.68344 311.3606 231.15262 309.4 229.62084 C 307.96316 228.4679 305.5578 226.92255 304.09912 226.14723 C 299.90753 223.93496 299.06097 223.42535 298.92724 223.16907 C 298.70574 222.75315 301.36985 219.1878 303.05597 217.6514 C 303.9432 216.82664 305.4367 215.10937 306.40465 213.83157 C 307.6672 212.17674 308.76476 211.12164 310.22287 210.22678 C 312.76086 208.68804 313.9633 207.65415 316.4707 204.7557 C 318.4773 202.4982 318.89442 201.73117 317.8611 202.19891 C 317.02098 202.57476 316.68165 202.30964 314.74878 199.61552 C 313.6819 198.14445 312.82356 197.26133 312.59675 197.35735 C 312.37405 197.48695 311.96284 197.46927 311.7113 197.3638 C 310.91892 197.01797 311.39555 195.90277 317.32597 183.9601 C 318.77175 181.02157 319.9648 178.5231 319.9483 178.38879 C 319.9318 178.25446 320.214 177.77669 320.55925 177.25709 L 321.23676 176.3899 L 320.3083 176.87886 C 319.57305 177.27592 319.0275 177.27473 317.66016 176.9654 C 316.74996 176.77038 315.9576 176.42455 315.93285 176.22306 C 315.9081 176.02158 316.459 173.56788 317.1407 170.79134 C 318.69435 164.56724 321.9 155.14068 323.58557 151.9341 C 324.24306 150.62625 325.20397 148.73576 325.73067 147.75075 C 326.25325 146.73216 327.1417 145.36187 327.7055 144.67909 C 328.86257 143.27581 328.75006 142.91467 327.40565 143.62513 C 326.8931 143.89258 323.9292 144.46103 320.7432 144.8863 C 316.54976 145.43528 314.89136 145.80934 314.5255 146.16104 C 314.19323 146.50862 313.56345 146.65412 312.50596 146.64761 C 311.41078 146.61165 310.68026 146.76952 309.9574 147.26732 C 309.39005 147.64376 308.54582 147.98602 308.0421 148.04787 C 307.5384 148.10972 306.59344 148.46435 305.9884 148.81133 C 305.34978 149.16244 304.1026 149.55418 303.2295 149.66138 C 302.3564 149.76859 301.0338 150.10141 300.31566 150.36003 C 299.60163 150.65222 297.38885 151.23069 295.36107 151.6501 C 293.371 152.09898 291.6619 152.6156 291.64895 152.78763 C 291.60653 152.99736 291.44687 153.08513 291.2666 153.005 C 290.75937 152.7605 290.9668 150.00811 291.57716 149.14917 C 291.89294 148.66728 292.07852 148.23545 291.9654 148.14708 C 291.8523 148.0587 290.7895 148.56415 289.57942 149.25812 C 288.36934 149.95208 285.88673 151.10908 284.06396 151.8101 C 282.2076 152.51524 279.8764 153.5173 278.8849 154.04808 C 276.797 155.08843 272.29013 156.97118 272.16877 156.81565 C 272.12695 156.75261 271.60794 156.1346 271.00528 155.39052 C 270.40674 154.68002 270.02618 154.0791 270.1605 154.06261 C 270.29482 154.04612 270.06448 153.8358 269.6621 153.6125 C 268.96223 153.18714 268.9581 153.15356 269.6686 152.55503 C 270.03447 152.20332 270.3249 151.7927 270.3043 151.6248 C 270.24658 151.15468 268.9829 151.4121 268.20935 152.05247 C 267.83937 152.37059 266.70942 152.88428 265.72674 153.20946 C 262.48888 154.32284 260.22305 156.13494 255.8522 161.06879 C 251.30874 166.26244 250.63182 166.85685 247.18244 168.7461 C 244.9178 170.01268 238.86684 171.81233 238.339 171.39993 C 238.22588 171.31156 237.97258 170.08145 237.7994 168.67108 C 237.52316 166.4212 237.58326 165.80026 238.3262 163.80019 C 239.09859 161.76241 240.35466 159.22212 240.8678 158.6819 C 241.14116 158.40973 243.0371 153.02986 244.17832 149.27656 C 245.54342 144.84812 245.95527 142.65009 245.63775 142.00735 C 245.3703 141.4948 245.30726 141.53662 244.8271 142.34549 C 244.17845 143.44773 242.52005 143.82179 242.2367 142.90215 C 242.03228 142.34778 242.0719 135.73011 242.34428 126.28876 C 242.4687 121.19458 242.903 116.40322 243.38375 115.32159 C 243.80146 114.28179 243.42795 114.29356 242.19607 115.36516 C 241.57806 115.88417 240.46047 116.4986 239.67103 116.73188 C 238.91106 116.92745 237.63853 117.39048 236.832 117.7622 C 232.69452 119.5996 228.41035 121.35275 227.9738 121.40635 C 227.70516 121.43933 226.37372 121.97776 225.0252 122.65464 C 222.73582 123.71973 222.40414 123.79455 219.94513 123.75561 C 218.51414 123.76088 216.8899 123.85805 216.33554 124.06246 C 215.4159 124.34581 215.27333 124.29515 215.11134 123.53104 C 215.0159 123.03146 214.35612 121.54449 213.64154 120.1665 C 212.8975 118.82622 211.866 116.53273 211.28573 115.13825 C 210.73905 113.73965 210.0498 112.29038 209.80297 111.94574 C 209.22152 111.09679 208.6495 109.76947 207.50255 106.53573 C 206.93937 105.0028 205.988 102.52904 205.35766 101.00436 C 204.3933 98.70262 204.1883 98.42101 204.11523 99.21398 C 204.03863 99.7006 203.6763 100.35864 203.2645 100.61373 C 202.8904 100.89827 202.52041 101.21639 202.43617 101.36308 C 202.35604 101.54335 202.00727 101.7566 201.67971 101.865 C 201.12122 102.03583 200.84552 101.45612 199.09768 96.66 C 196.7908 90.36453 194.52931 82.49551 194.62066 81.01857 C 194.64366 80.0954 194.63953 80.06182 194.3862 80.77466 C 194.09043 81.69723 192.422 82.82243 191.2131 82.97086 C 190.50792 83.05745 190.2817 82.8807 190.00247 81.99465 C 189.24785 79.73533 188.06905 77.63035 185.11645 73.01624 C 184.56445 72.12959 184.07962 71.234694 184.05488 71.03321 C 184.02602 70.79815 183.821 70.51654 183.64074 70.43642 Z" fill="#ff0000"/>
          <path d="M 183.64074 70.43642 C 183.38918 70.33096 183.34676 70.54069 183.58476 71.09094 C 183.8852 71.87213 183.82628 71.94753 182.85245 72.067104 C 182.28158 72.1372 181.83207 72.36282 181.85681 72.56431 C 181.87743 72.73221 181.75135 72.81586 181.5375 72.73986 C 181.35723 72.65973 181.14398 72.310965 181.10274 71.97516 C 181.06151 71.63936 179.8939 70.18065 178.4871 68.71723 C 177.0844 67.287386 175.92504 65.89584 175.89618 65.66078 C 175.8302 65.12349 172.6042 62.724495 172.36854 63.02612 C 172.2843 63.172814 172.22478 63.52099 172.26189 63.82321 C 172.299 64.12543 172.15877 64.92664 171.89718 65.57232 C 171.66917 66.213876 171.54956 67.18299 171.57783 67.69082 C 171.6061 68.198645 171.58016 68.542695 171.50476 68.48378 C 171.12772 68.18921 170.77126 70.00548 171.11884 70.337756 C 171.35743 70.61524 171.37392 70.74956 171.10528 70.78255 C 170.87022 70.81141 170.78597 70.9581 170.90732 71.11363 C 171.06226 71.26504 170.95268 71.48302 170.76357 71.6085 C 170.44013 71.75047 170.46075 71.91837 170.92144 72.33902 C 171.45753 72.81858 171.42807 72.85628 170.69815 72.74139 C 170.14025 72.639455 169.87985 72.7396 169.795 73.15906 C 169.6047 73.83007 170.06951 74.2843 170.33935 73.70578 C 170.47839 73.4501 170.75056 73.72346 171.03863 74.40391 C 171.31845 75.0172 171.41388 75.51678 171.27955 75.53327 C 171.11165 75.55389 170.9526 75.3689 170.92373 75.13384 C 170.83243 74.66784 169.02619 73.56024 169.08803 74.06394 C 169.10865 74.23184 169.35549 74.57649 169.65711 74.81215 C 170.14314 75.16151 170.05064 75.24104 169.14397 75.352365 C 168.53952 75.42658 168.3298 75.38416 168.65735 75.27577 C 169.30835 75.0254 169.31778 74.54703 168.70568 74.28132 C 168.4877 74.17174 167.98753 74.53993 167.5875 75.16852 C 166.8929 76.17415 166.85932 76.17827 166.97421 75.448345 C 167.04728 74.65538 167.04728 74.65538 166.47935 75.30459 C 166.18065 75.64804 165.93615 76.15527 165.96914 76.42392 C 166.00213 76.69256 165.91788 76.83925 165.7753 76.78858 C 165.59916 76.74204 165.25452 76.988875 164.99352 77.36179 C 164.64004 77.81423 164.63532 78.05341 164.91633 78.12117 C 165.23092 78.1848 165.21796 78.35683 164.93163 78.80102 C 164.73368 79.13211 164.38491 79.345365 164.16694 79.23578 C 163.94896 79.1262 163.8983 79.26877 164.07385 79.58808 C 164.21582 79.91151 164.2111 80.1507 164.0432 80.17131 C 163.84172 80.19605 163.73213 80.41403 163.76512 80.68267 C 163.79398 80.91773 163.6084 81.34956 163.36862 81.61761 C 162.82602 82.19553 162.697 81.70007 163.219 80.95425 C 163.38749 80.66086 163.2025 80.819925 162.7524 81.31832 C 162.27283 81.85441 161.95233 82.5755 162.00593 83.01204 C 162.11314 83.88513 161.66715 84.4171 160.483 84.76702 C 159.85734 84.9461 159.61403 84.9078 159.60226 84.53429 C 159.56928 84.26565 159.22582 83.96696 158.80224 83.84853 C 157.9969 83.67472 157.86611 83.99756 158.153 85.22354 C 158.21131 85.4209 158.10997 85.70604 157.92499 85.8651 C 157.76945 85.98645 157.59743 85.97349 157.57269 85.77201 C 157.54795 85.57052 157.17857 85.61588 156.50224 85.93753 C 155.08243 86.58907 154.6659 87.08334 154.75661 87.82211 C 154.79785 88.15791 154.6753 88.54791 154.45673 88.71109 C 154.2087 88.91198 154.1545 88.7482 154.22698 88.228 C 154.36368 87.12045 153.67027 87.58054 153.2225 88.93081 C 152.99037 89.53878 152.54851 90.10434 152.2463 90.14145 C 151.94407 90.17855 151.5028 90.47134 151.23357 90.77709 C 151.00203 91.1123 150.72043 91.31731 150.61556 91.2961 C 150.50657 91.24131 149.68649 92.05782 148.7527 93.05873 C 147.67163 94.24815 147.0483 95.27911 146.99232 95.93363 C 146.90982 97.20497 146.13569 98.1181 146.00787 97.0771 C 145.95427 96.64056 145.53128 96.24937 144.85202 95.99191 C 143.6402 95.56123 143.29615 95.5353 143.6561 95.96832 C 143.78158 96.15743 143.65138 96.2075 143.33266 96.11029 C 142.9132 96.02544 142.86313 95.89525 143.11116 95.69436 C 143.67025 95.25076 142.74356 94.92142 141.29548 95.06513 C 140.48955 95.16409 140.13666 95.34376 140.26627 95.56646 C 140.35816 95.75969 140.22325 96.04895 139.96697 96.18268 C 139.68124 96.35411 139.53455 96.26986 139.60643 96.02243 C 139.67006 95.70783 139.28419 95.61887 138.3734 95.69661 C 137.36186 95.78672 137.00485 95.93282 136.9577 96.38173 C 136.88936 96.93551 136.85165 96.90606 136.7521 96.37289 C 136.62369 95.60467 135.9562 95.72071 136.05516 96.52664 C 136.13762 97.19825 135.35996 97.80503 134.78145 97.5352 C 134.60117 97.45507 134.49571 97.70663 134.53695 98.04243 C 134.5823 98.41182 134.42617 98.80594 134.1699 98.93966 C 133.91363 99.07339 133.32975 101.25845 132.82481 103.80877 C 132.08184 107.75179 132.04647 108.57421 132.45177 109.37661 C 132.89066 110.17488 132.86944 110.27975 132.341 110.14011 C 132.0264 110.07648 131.29648 109.96159 130.7804 109.92269 C 130.15947 109.86259 129.86609 109.69409 129.92972 109.3795 C 130.15832 108.46518 129.80483 108.91762 129.21862 110.2508 C 128.89812 110.97189 128.35488 113.76552 128.03434 116.42954 C 127.68434 119.13127 127.20826 121.91666 126.95492 122.6295 C 126.67212 123.38004 126.49831 124.18537 126.53542 124.4876 C 126.59315 124.95772 126.52598 124.96597 125.7295 124.58655 C 125.21814 124.30847 124.49646 124.26074 123.90438 124.4357 C 123.37946 124.6024 122.01916 124.90578 120.88155 125.07954 C 119.61375 125.30338 118.99633 125.54963 119.21843 125.69279 C 119.41107 125.87365 119.59075 126.22655 119.62373 126.49519 C 119.66909 126.86457 119.49294 126.81803 118.86023 126.38442 C 118.0767 125.83298 114.29453 124.45669 113.75725 124.52266 C 113.62293 124.53915 113.04853 124.3029 112.46177 123.9659 C 111.80372 123.60358 111.04021 123.4928 110.57834 123.61769 C 110.15416 123.77203 109.81011 123.7461 109.81895 123.5405 C 109.83192 123.36847 109.63515 123.15403 109.35414 123.08627 C 109.07313 123.01851 108.98476 123.13162 109.14794 123.3502 C 109.307 123.53518 109.26046 123.71133 109.09255 123.73195 C 108.89107 123.75669 108.69431 123.54224 108.66132 123.2736 C 108.6036 122.80347 108.1759 122.65147 107.4872 122.87238 C 107.32342 122.92657 107.27335 122.79637 107.35347 122.6161 C 107.62331 122.03758 106.74669 121.83844 106.43915 122.3875 C 106.21586 122.78987 106.17816 122.76041 106.28834 122.26967 C 106.34373 121.88792 106.20588 121.59806 105.89128 121.53443 C 105.57257 121.43722 105.30924 120.95825 105.22265 120.25306 C 105.14431 119.61504 104.94814 119.12783 104.78024 119.14844 C 104.27654 119.21029 104.1139 120.6619 104.57931 120.84336 C 104.86857 120.97827 104.94279 121.58272 104.81786 123.06378 C 104.61043 125.81618 107.21226 141.17656 108.81634 146.46755 C 109.4119 148.54188 109.99862 150.82181 110.08521 151.527 C 110.36146 153.77689 113.48192 160.31332 117.98857 168.14528 C 120.0204 171.64533 120.22893 172.23329 120.7638 175.20132 C 121.0536 177.00642 121.20145 178.48808 121.1007 178.50044 C 120.96638 178.51694 120.5051 178.36906 120.06915 178.1499 C 119.6332 177.93073 118.65584 177.74395 117.90058 177.70034 C 114.71164 177.5465 111.27118 175.34427 108.50119 171.66216 C 104.96122 166.98382 104.04457 165.90334 101.21799 163.14852 C 99.55551 161.54606 97.27269 159.61073 96.12037 158.83187 C 91.2136 155.51439 90.30872 154.80742 89.74435 153.82003 C 89.17587 152.79905 88.27864 152.432 88.51604 153.25502 C 88.73222 154.1829 88.64266 154.84155 88.12893 155.65453 L 87.61931 156.5011 L 85.82191 155.1879 C 84.84987 154.48917 83.84012 153.76098 83.61802 153.61782 C 81.29277 151.89221 76.19983 149.27932 74.522 148.93995 C 73.08748 148.63887 72.36227 148.28479 72.09894 147.80582 C 71.47626 146.62107 71.38729 147.00695 71.8073 148.76197 L 72.21494 150.41625 L 69.05312 149.37283 C 67.31697 148.8361 65.3169 148.09317 64.6294 147.76854 C 63.94189 147.44392 62.470265 146.84062 61.40101 146.4606 C 60.33175 146.0806 58.77647 145.35122 57.963484 144.83749 C 57.15462 144.35733 56.24502 143.88954 55.96401 143.82179 C 55.67887 143.72045 53.75952 142.52448 51.71057 141.10581 C 48.43389 138.84938 44.66588 136.75554 43.92711 136.84625 C 43.79279 136.86274 43.273187 136.5175 42.78304 136.13456 C 41.605986 135.15422 41.139985 135.24553 41.582395 136.35015 C 41.782687 136.87095 42.289877 139.05839 42.729907 141.25408 C 43.136356 143.45389 43.86679 147.1819 44.33156 149.57907 C 44.79633 151.97624 45.08907 154.36045 45.024844 154.9478 C 44.808017 156.23563 45.740444 163.55203 46.10983 163.50667 C 46.24415 163.49018 46.508073 163.69638 46.645923 163.98623 C 46.90925 164.4652 46.569325 164.47285 44.920955 164.09577 C 44.14508 163.88426 44.85898 169.4209 46.134947 173.1501 C 46.297535 173.64143 46.57383 173.94838 46.72936 173.82702 C 46.88077 173.67208 46.934966 173.83586 46.86721 174.11687 C 46.706365 174.75018 47.835684 176.4522 48.661634 176.7939 C 49.164744 177.00483 48.97151 177.09673 47.80032 177.27462 C 46.25562 177.46428 44.654944 178.30847 46.039985 178.20658 L 46.71159 178.12411 L 46.077094 178.5088 C 45.18632 179.02721 44.8841 179.06432 45.069683 178.6325 C 45.145685 178.41864 44.99487 178.30081 44.72623 178.3338 C 44.05462 178.41626 43.78891 179.02836 44.350936 179.16387 C 44.63195 179.23163 44.543576 179.34474 44.207773 179.38597 C 43.87609 179.46078 43.020686 179.15677 42.324935 178.76499 C 41.62506 178.33962 41.08837 178.13283 41.10074 178.23357 C 41.16671 178.77085 42.029173 179.68755 42.247743 179.52437 C 42.403275 179.40301 42.7974 179.55914 43.178556 179.8873 C 43.559714 180.21545 43.697564 180.5053 43.52966 180.52592 C 43.32818 180.55066 43.030675 180.34858 42.892826 180.05872 C 42.721396 179.773 42.528755 179.59213 42.473964 179.70111 C 42.204726 180.00687 43.460673 183.2954 43.738157 183.05681 C 43.86011 182.93958 44.010923 183.0574 44.006205 183.2966 C 44.141673 184.6775 44.304857 184.89608 45.052466 184.59977 C 45.72879 184.27812 45.732915 184.3117 45.21565 184.81834 C 44.664804 185.3291 44.677174 185.42984 45.37114 186.63992 C 45.79353 187.30388 46.78381 189.26157 47.63624 190.9294 C 48.72254 193.11392 49.29987 193.92928 49.661006 193.81677 C 49.9214 193.71662 50.17296 193.82208 50.197697 194.02356 C 50.222436 194.22504 50.06278 194.31282 49.844805 194.20324 C 49.59325 194.09778 49.546705 194.27393 49.65922 194.63506 C 49.771736 194.9962 50.03566 195.2024 50.2666 195.13996 C 50.459836 195.04806 50.585316 195.23717 50.51756 195.51819 C 50.420347 195.8369 50.80563 196.19863 51.49313 196.52326 C 52.72145 197.08826 52.678434 197.57075 51.39885 197.42109 C 50.4969 197.29323 47.0275 198.74181 47.0811 199.17836 C 47.101714 199.34626 47.327935 199.523 47.571244 199.5613 C 47.785096 199.6373 47.663144 199.75454 47.26018 199.80402 C 46.82776 199.8912 46.467216 199.73095 46.404773 199.5 C 46.380034 199.29852 46.25396 199.38218 46.16499 199.76805 C 45.95348 200.54393 43.576924 201.1766 42.46584 200.73355 C 41.321175 200.29463 41.341196 200.7353 42.53062 201.81637 C 43.146245 202.38843 44.192507 203.6916 44.899437 204.72966 C 45.740093 206.024 47.323045 207.53396 50.079524 209.71791 C 52.26633 211.42643 54.65814 213.41656 55.399246 214.17773 C 56.14035 214.9389 57.36748 216.04943 58.09209 216.67628 C 58.816705 217.30312 59.867685 218.3671 60.39494 219.05228 L 61.32809 220.26708 L 60.52216 220.36603 C 59.61549 220.47736 53.20925 223.54775 50.700714 225.0488 C 49.87298 225.52538 48.944504 226.01433 48.68411 226.11448 C 47.96183 226.3395 44.07004 227.12414 42.45818 227.32205 C 41.656377 227.4546 41.034843 227.66725 41.05958 227.86873 C 41.080197 228.03663 41.268715 228.18392 41.470197 228.15918 C 41.70526 228.13032 42.10763 228.3536 42.3798 228.62697 C 42.77745 229.08944 42.949475 229.1024 43.239924 228.6918 C 43.568076 228.31063 43.52625 228.2476 43.022544 228.30944 C 42.72032 228.34655 42.531804 228.19926 42.61193 228.019 C 42.852305 227.47818 43.737764 227.47172 43.79961 227.97542 C 43.828473 228.21049 43.65526 228.74305 43.43197 229.14542 C 43.006604 229.8453 43.006604 229.8453 42.31557 229.21433 C 41.507305 228.4614 40.03568 227.8581 40.085156 228.26107 C 40.109895 228.46255 40.524634 228.78658 40.998286 229.0352 C 41.501397 229.24612 42.548253 230.27653 43.38126 231.23093 C 44.218387 232.21892 45.67114 233.77896 46.634344 234.6833 C 47.63113 235.5835 48.916574 236.8914 49.57815 237.56007 C 51.14814 239.24206 55.4593 242.42816 56.51619 242.70743 C 57.36335 242.94427 57.40105 242.97373 56.78717 243.52632 C 56.26578 243.99938 56.282274 244.1337 56.73059 244.4536 C 57.924736 245.2955 63.004125 248.35318 63.17203 248.33256 C 63.30635 248.31607 64.3002 248.63717 65.44074 249.0425 C 66.54358 249.4184 68.48533 249.96397 69.7437 250.2185 C 70.96437 250.44358 72.41538 250.87897 72.92674 251.15705 C 73.83634 251.62484 76.64289 253.939 76.68 254.24122 C 76.69237 254.34196 76.19691 254.47097 75.59659 254.57877 C 74.99626 254.68656 73.50104 255.2792 72.28684 255.93958 C 70.36685 256.9593 69.44309 257.20908 65.86236 257.751 C 63.18418 258.148 61.16464 258.6346 60.26562 259.08584 C 58.56008 259.9088 57.590374 260.06196 56.882254 259.56944 C 56.43806 259.2831 56.44218 259.3167 56.86929 259.74146 C 57.14558 260.0484 57.65694 260.32648 58.03869 260.38187 C 58.39099 260.47496 58.734444 260.77366 58.77155 261.07588 C 58.829276 261.546 58.50584 261.68798 56.927565 261.88176 C 55.21909 262.12563 53.4134 262.6882 46.64369 265.01923 C 45.824795 265.2902 44.65301 265.74087 44.03972 266.0207 C 42.330057 266.81008 39.167595 267.98238 37.521563 268.45718 C 36.597805 268.70695 36.030467 269.0834 36.000415 269.39385 C 35.965644 269.9435 38.118867 271.65615 41.777297 273.96797 C 43.000897 274.77215 44.077806 275.4921 44.190917 275.58046 C 44.304027 275.66883 44.92025 275.96812 45.599506 276.2256 C 46.27464 276.44947 47.64081 277.30433 48.696507 278.12913 C 49.7145 278.92447 51.1979 279.90128 51.960814 280.28482 C 52.723726 280.66836 53.39002 281.09784 53.40651 281.23217 C 53.46836 281.73587 52.23647 282.80747 51.71215 282.7014 C 51.427013 282.60008 51.2002 282.6961 51.22081 282.864 C 51.24555 283.06548 51.396366 283.1833 51.56427 283.1627 C 51.73217 283.14208 52.85503 283.95864 54.069787 284.96843 C 57.21567 287.5477 58.19596 288.3136 61.48913 290.70434 C 64.14959 292.66148 64.73223 292.9649 65.48808 292.73574 C 65.622404 292.71924 65.735515 292.8076 65.76025 293.0091 C 65.78087 293.177 65.66716 293.3614 65.46568 293.38613 C 65.29778 293.40675 64.7758 294.15257 64.337466 295.02447 C 63.094355 297.39274 62.61067 297.89525 61.683385 297.83867 C 61.272174 297.821 60.90691 297.89993 60.91928 298.00067 C 60.98525 298.53795 61.92019 298.93446 62.82686 298.82313 C 63.330565 298.7613 63.71644 298.85025 63.63219 298.99694 C 63.55207 299.1772 65.1533 300.0032 67.16574 300.84688 C 69.17818 301.69055 72.67874 303.27185 74.96335 304.3889 C 78.19527 306.00317 79.26453 306.38318 80.0245 306.1876 C 80.91468 305.94196 80.9188 305.97554 79.47481 308.09578 C 78.70008 309.28167 77.90886 310.33325 77.7869 310.45048 C 77.63137 310.57184 77.03691 311.83786 76.46307 313.2718 C 75.88511 314.67213 75.03378 316.34464 74.528886 316.952 C 73.37181 318.3553 73.39595 318.82954 74.560085 318.03896 C 75.2535 317.57887 75.75308 317.48344 76.82293 317.5907 C 77.55286 317.70558 79.15588 317.71327 80.37301 317.632 C 82.63527 317.4565 84.10809 317.51426 85.34524 317.87365 C 86.5447 318.2036 89.2046 318.49056 89.69594 318.32797 C 89.95634 318.22782 90.64031 318.2461 91.26125 318.3062 C 92.02064 318.3834 92.64629 318.2043 93.30613 317.74835 C 94.4408 316.99547 94.44493 317.02905 93.93 318.38756 C 93.52053 319.49452 93.53936 320.48072 93.97119 320.6663 C 94.11375 320.71698 94.0843 320.75468 93.87869 320.74584 C 93.71079 320.76645 93.21474 321.16823 92.79821 321.6625 C 92.06178 322.6051 92.06178 322.6051 92.77581 322.3129 C 93.19999 322.15855 93.6112 322.17623 93.73255 322.33177 C 94.08838 322.7312 96.57626 323.0052 97.11826 322.70005 C 97.40811 322.5622 97.66911 322.1893 97.69916 321.8788 C 97.75042 321.4635 97.82583 321.5224 97.92126 322.02198 C 98.06616 322.92452 99.0388 323.3505 100.44918 323.1773 C 101.02004 323.1072 101.50666 323.1838 101.5314 323.3853 C 101.55201 323.5532 101.43831 323.7376 101.30399 323.7541 C 100.86744 323.8077 99.19059 332.6375 99.09214 335.4447 C 98.97661 338.3903 98.47992 341.0078 97.8784 341.66113 C 97.31047 342.31033 97.37763 342.3021 99.4013 341.8491 C 100.56424 341.60404 101.64765 341.2665 101.80318 341.14514 C 101.95872 341.0238 102.00054 341.08682 101.92454 341.30067 C 101.73483 341.6989 98.90877 342.5572 97.09131 342.7463 C 96.18464 342.8576 96.05856 342.94126 96.62059 343.07677 C 97.01059 343.19932 98.15644 343.0927 99.15148 342.86828 C 100.14652 342.64384 101.83379 342.50485 102.86594 342.58263 C 105.06043 342.68814 114.31271 341.14306 115.62354 340.43673 C 116.2327 340.12332 117.00505 340.0285 118.31409 340.14045 C 119.86231 340.25714 120.59696 340.13285 123.07897 339.2486 C 124.71264 338.67308 126.24143 338.07633 126.49358 337.909 C 127.19524 337.5161 128.9396 340.06292 128.48065 340.76692 C 127.71004 341.9864 128.83588 341.43912 131.21953 339.4762 C 134.49455 336.7221 134.62063 336.63845 137.0249 334.84343 C 138.1472 333.9898 139.67307 332.81395 140.41303 332.1777 C 141.99368 330.89286 142.69415 331.04545 142.90443 332.75805 C 142.99102 333.46324 143.1165 333.65235 143.27675 333.2918 C 143.44112 332.96485 143.6585 333.3472 143.95835 334.40115 C 144.204 335.29133 144.54213 336.10198 144.7224 336.1821 C 144.90268 336.26223 144.7925 336.75297 144.48496 337.30203 C 144.1733 337.8175 144.06312 338.30825 144.20981 338.3925 C 144.39009 338.47262 144.7689 337.9489 145.01812 337.20248 C 145.55838 335.77268 147.35646 332.92723 147.75943 332.87775 C 147.92733 332.85714 148.31852 332.43415 148.69734 331.91043 C 149.04258 331.39082 149.22345 331.1982 149.09265 331.52102 C 148.92416 331.8144 149.64762 331.04384 150.68687 329.79138 C 152.6982 327.2947 155.42009 322.25654 156.43405 319.13242 C 157.90461 314.45243 158.34536 310.54652 158.14873 304.50325 C 157.8361 295.84955 162.01617 286.03066 168.87494 279.42787 C 169.90947 278.4146 170.93163 277.30057 171.1885 276.89408 C 171.8454 275.859 172.9777 276.19718 173.66282 277.61287 C 174.5441 279.51577 174.5022 283.33862 173.41504 293.08453 C 172.59304 300.54817 171.96547 307.37437 171.01319 318.77397 C 169.9784 331.4449 168.96134 341.76167 168.46877 344.41274 C 168.27728 345.6293 167.99563 347.77723 167.90016 349.2206 C 167.76048 351.692 167.77697 351.8263 168.56403 352.6841 C 169.19614 353.39047 169.48128 353.4918 169.81768 353.1778 C 170.02388 352.9139 170.35144 352.8055 170.5317 352.8856 C 170.71198 352.96574 171.2204 352.6647 171.67875 352.23347 C 172.10352 351.80637 172.48175 351.5554 172.49824 351.68973 C 172.51473 351.82405 172.8093 351.447 173.1463 350.86025 C 173.2721 350.65837 173.38368 350.4145 173.48484 350.0999 C 173.17701 349.2182 172.5727 347.85917 172.63067 344.9204 C 172.7441 339.17073 173.67904 326.7651 174.30234 318.49466 C 174.92564 310.22423 176.15793 300.24025 177.2768 296.0059 C 178.39567 291.7716 179.64226 275.23073 179.64226 275.23073 L 184.17394 278.77126 L 184.23718 278.90424 C 184.29297 278.84026 184.34822 278.78865 184.40317 278.74836 C 184.9664 278.33834 185.33105 278.53217 187.2498 280.0009 C 188.4899 280.9394 189.48669 281.83962 189.5073 282.00752 C 189.52792 282.17543 189.86253 282.67973 190.28964 283.1045 C 190.6873 283.56697 191.28936 284.58382 191.6275 285.39446 C 191.93206 286.20923 192.64604 287.86 193.17623 289.12426 C 194.41628 292.0057 194.77202 296.29103 194.25875 302.66008 C 193.74195 308.72278 194.417 312.83255 196.75572 317.99925 C 198.99017 322.87197 200.56543 325.98495 202.04585 328.3256 C 202.72333 329.40135 203.2877 330.38874 203.30418 330.52306 C 203.31655 330.6238 203.71833 331.11986 204.1578 331.64537 C 204.8235 332.34762 205.07506 332.4531 205.26476 332.05484 C 205.42914 331.72787 205.4751 331.8245 205.40261 332.3447 C 205.27063 333.21306 206.01233 333.70146 206.36641 332.97626 C 206.53079 332.6493 206.6268 332.8761 206.68806 333.6526 C 206.7664 334.2906 207.10395 335.37402 207.48863 336.0085 C 208.31632 337.47488 209.1134 337.58153 208.60031 336.1788 C 208.22094 335.03235 208.58446 333.82877 210.04554 331.5701 C 210.6182 330.6817 211.17848 329.69257 211.30927 329.36973 C 211.5202 328.8666 211.76762 328.9385 212.9111 329.92295 C 213.6357 330.5498 214.40274 330.96692 214.55415 330.812 C 214.74327 330.6865 214.85638 330.77487 214.7845 331.0223 C 214.7462 331.2656 215.54622 331.95138 216.64022 332.53287 C 219.01673 333.84314 224.94502 338.2623 226.4019 339.85594 C 227.53653 341.046 228.14922 341.03895 227.89592 339.80884 C 227.84645 339.40588 227.88593 338.61704 228.05915 338.08447 C 228.19878 337.55603 228.26714 337.00225 228.21706 336.87205 C 228.167 336.74185 228.2265 336.39368 228.3237 336.07496 C 228.46747 335.5801 228.9205 335.6608 231.60808 336.72838 C 234.40465 337.85073 238.7624 338.91773 239.9713 338.7693 C 240.67648 338.6827 240.47206 338.12834 239.67498 338.0217 C 239.29322 337.9663 238.96214 337.76835 238.93328 337.5333 C 238.9044 337.29823 239.17718 337.29882 239.68854 337.5769 C 240.1286 337.82965 240.9634 337.96575 241.53427 337.89566 C 242.07155 337.8297 243.3429 337.9122 244.28254 338.0695 C 245.2599 338.2563 247.98756 338.26224 250.35055 338.07436 C 252.71355 337.88648 254.75723 337.87415 254.8786 338.0297 C 254.99582 338.15164 255.51602 338.2241 256.0533 338.15814 C 256.99355 338.0427 257.023 338.005 256.57588 337.13955 C 254.86218 334.00948 252.62072 326.58112 251.67175 321.07335 C 251.27002 318.63435 250.78757 316.6484 250.61967 316.669 C 250.48535 316.6855 250.33453 316.56767 250.31804 316.43335 C 250.28506 316.1647 252.92906 316.0446 259.40416 316.03354 C 261.48143 316.0171 263.21052 315.94113 263.19815 315.8404 C 263.18578 315.73964 262.86413 315.0633 262.50478 314.35754 C 262.14542 313.65175 261.79963 312.50118 261.67534 311.76654 L 261.51454 310.4569 L 263.32316 310.47344 C 264.27578 310.45873 268.02794 310.20254 271.60395 309.8998 L 278.0761 309.30965 L 277.79927 307.33253 C 277.6632 306.22438 277.17017 303.31938 276.73074 300.85093 C 276.25772 298.3866 275.90134 296.317 275.93492 296.31286 C 275.9308 296.27928 277.82014 295.84278 280.11245 295.3568 C 285.36042 294.2352 291.79726 292.52453 292.09596 292.18108 C 292.26858 291.92128 290.88537 289.26192 289.693 287.60174 C 288.86885 286.44173 289.13396 286.1024 291.28782 285.59933 C 294.99934 284.73457 299.53686 282.2686 302.35 279.63937 L 303.72505 278.34568 L 302.61044 277.59628 C 302.01543 277.19213 301.5088 276.67486 301.48405 276.47338 C 301.4593 276.2719 302.87266 274.7349 304.64303 273.0518 C 307.81378 270.00372 315.7961 260.05884 315.43614 259.62582 C 315.3189 259.50387 314.8535 259.3224 314.4046 259.27527 C 313.26345 259.1427 309.85007 257.99382 307.72452 257.06177 C 306.6429 256.58102 305.1748 256.28407 303.7061 256.25988 C 301.0079 256.21622 297.8119 255.4497 297.44842 254.71034 C 297.3147 254.45406 297.2982 254.31974 297.449 254.43757 C 297.78835 254.70268 298.78284 252.80807 298.4983 252.43397 C 298.38106 252.31202 297.9616 252.22717 297.52506 252.28078 C 296.6184 252.3921 292.46153 251.57312 292.42442 251.2709 C 292.3667 250.80077 292.87984 250.26055 294.29612 249.30267 C 295.5822 248.39485 295.72537 248.17275 295.50034 247.45048 C 295.23348 246.66516 295.3849 246.51023 297.69135 245.3067 C 301.14486 243.451 307.02856 239.45627 308.54265 237.9069 C 309.2408 237.20762 310.35544 236.01407 311.04532 235.24763 C 311.70163 234.48532 312.8198 233.59812 313.50026 233.31005 C 315.04615 232.57485 314.95544 231.83608 313.30647 231.73177 C 312.31203 231.68344 311.3606 231.15262 309.4 229.62084 C 307.96316 228.4679 305.5578 226.92255 304.09912 226.14723 C 299.90753 223.93496 299.06097 223.42535 298.92724 223.16907 C 298.70574 222.75315 301.36985 219.1878 303.05597 217.6514 C 303.9432 216.82664 305.4367 215.10937 306.40465 213.83157 C 307.6672 212.17674 308.76476 211.12164 310.22287 210.22678 C 312.76086 208.68804 313.9633 207.65415 316.4707 204.7557 C 318.4773 202.4982 318.89442 201.73117 317.8611 202.19891 C 317.02098 202.57476 316.68165 202.30964 314.74878 199.61552 C 313.6819 198.14445 312.82356 197.26133 312.59675 197.35735 C 312.37405 197.48695 311.96284 197.46927 311.7113 197.3638 C 310.91892 197.01797 311.39555 195.90277 317.32597 183.9601 C 318.77175 181.02157 319.9648 178.5231 319.9483 178.38879 C 319.9318 178.25446 320.214 177.77669 320.55925 177.25709 L 321.23676 176.3899 L 320.3083 176.87886 C 319.57305 177.27592 319.0275 177.27473 317.66016 176.9654 C 316.74996 176.77038 315.9576 176.42455 315.93285 176.22306 C 315.9081 176.02158 316.459 173.56788 317.1407 170.79134 C 318.69435 164.56724 321.9 155.14068 323.58557 151.9341 C 324.24306 150.62625 325.20397 148.73576 325.73067 147.75075 C 326.25325 146.73216 327.1417 145.36187 327.7055 144.67909 C 328.86257 143.27581 328.75006 142.91467 327.40565 143.62513 C 326.8931 143.89258 323.9292 144.46103 320.7432 144.8863 C 316.54976 145.43528 314.89136 145.80934 314.5255 146.16104 C 314.19323 146.50862 313.56345 146.65412 312.50596 146.64761 C 311.41078 146.61165 310.68026 146.76952 309.9574 147.26732 C 309.39005 147.64376 308.54582 147.98602 308.0421 148.04787 C 307.5384 148.10972 306.59344 148.46435 305.9884 148.81133 C 305.34978 149.16244 304.1026 149.55418 303.2295 149.66138 C 302.3564 149.76859 301.0338 150.10141 300.31566 150.36003 C 299.60163 150.65222 297.38885 151.23069 295.36107 151.6501 C 293.371 152.09898 291.6619 152.6156 291.64895 152.78763 C 291.60653 152.99736 291.44687 153.08513 291.2666 153.005 C 290.75937 152.7605 290.9668 150.00811 291.57716 149.14917 C 291.89294 148.66728 292.07852 148.23545 291.9654 148.14708 C 291.8523 148.0587 290.7895 148.56415 289.57942 149.25812 C 288.36934 149.95208 285.88673 151.10908 284.06396 151.8101 C 282.2076 152.51524 279.8764 153.5173 278.8849 154.04808 C 276.797 155.08843 272.29013 156.97118 272.16877 156.81565 C 272.12695 156.75261 271.60794 156.1346 271.00528 155.39052 C 270.40674 154.68002 270.02618 154.0791 270.1605 154.06261 C 270.29482 154.04612 270.06448 153.8358 269.6621 153.6125 C 268.96223 153.18714 268.9581 153.15356 269.6686 152.55503 C 270.03447 152.20332 270.3249 151.7927 270.3043 151.6248 C 270.24658 151.15468 268.9829 151.4121 268.20935 152.05247 C 267.83937 152.37059 266.70942 152.88428 265.72674 153.20946 C 262.48888 154.32284 260.22305 156.13494 255.8522 161.06879 C 251.30874 166.26244 250.63182 166.85685 247.18244 168.7461 C 244.9178 170.01268 238.86684 171.81233 238.339 171.39993 C 238.22588 171.31156 237.97258 170.08145 237.7994 168.67108 C 237.52316 166.4212 237.58326 165.80026 238.3262 163.80019 C 239.09859 161.76241 240.35466 159.22212 240.8678 158.6819 C 241.14116 158.40973 243.0371 153.02986 244.17832 149.27656 C 245.54342 144.84812 245.95527 142.65009 245.63775 142.00735 C 245.3703 141.4948 245.30726 141.53662 244.8271 142.34549 C 244.17845 143.44773 242.52005 143.82179 242.2367 142.90215 C 242.03228 142.34778 242.0719 135.73011 242.34428 126.28876 C 242.4687 121.19458 242.903 116.40322 243.38375 115.32159 C 243.80146 114.28179 243.42795 114.29356 242.19607 115.36516 C 241.57806 115.88417 240.46047 116.4986 239.67103 116.73188 C 238.91106 116.92745 237.63853 117.39048 236.832 117.7622 C 232.69452 119.5996 228.41035 121.35275 227.9738 121.40635 C 227.70516 121.43933 226.37372 121.97776 225.0252 122.65464 C 222.73582 123.71973 222.40414 123.79455 219.94513 123.75561 C 218.51414 123.76088 216.8899 123.85805 216.33554 124.06246 C 215.4159 124.34581 215.27333 124.29515 215.11134 123.53104 C 215.0159 123.03146 214.35612 121.54449 213.64154 120.1665 C 212.8975 118.82622 211.866 116.53273 211.28573 115.13825 C 210.73905 113.73965 210.0498 112.29038 209.80297 111.94574 C 209.22152 111.09679 208.6495 109.76947 207.50255 106.53573 C 206.93937 105.0028 205.988 102.52904 205.35766 101.00436 C 204.3933 98.70262 204.1883 98.42101 204.11523 99.21398 C 204.03863 99.7006 203.6763 100.35864 203.2645 100.61373 C 202.8904 100.89827 202.52041 101.21639 202.43617 101.36308 C 202.35604 101.54335 202.00727 101.7566 201.67971 101.865 C 201.12122 102.03583 200.84552 101.45612 199.09768 96.66 C 196.7908 90.36453 194.52931 82.49551 194.62066 81.01857 C 194.64366 80.0954 194.63953 80.06182 194.3862 80.77466 C 194.09043 81.69723 192.422 82.82243 191.2131 82.97086 C 190.50792 83.05745 190.2817 82.8807 190.00247 81.99465 C 189.24785 79.73533 188.06905 77.63035 185.11645 73.01624 C 184.56445 72.12959 184.07962 71.234694 184.05488 71.03321 C 184.02602 70.79815 183.821 70.51654 183.64074 70.43642 Z" stroke="#cccccc" stroke-linecap="round" stroke-linejoin="round" stroke-width="2"/>
        </g>
        <g id="Line_11">
          <line x1="176.00956" y1="272.3383" x2="174.595" y2="98.33779" stroke="#cccccc" stroke-linecap="round" stroke-linejoin="round" stroke-width="1"/>
        </g>
        <g id="Line_10">
          <line x1="176.82415" y1="272.2992" x2="308.33226" y2="157.01703" stroke="#cccccc" stroke-linecap="round" stroke-linejoin="round" stroke-width="1"/>
        </g>
        <g id="Line_9">
          <path d="M 176.00956 272.3383 C 176.00956 272.3383 170.63737 274.20065 136.38094 241.21865 C 102.12451 208.23666 55.09242 155.91961 55.09242 155.91961" stroke="#cccccc" stroke-linecap="round" stroke-linejoin="round" stroke-width="1"/>
        </g>
        <g id="Line_8">
          <path d="M 176.00956 272.3383 C 176.00956 272.3383 169.76177 268.7292 159.24407 277.9693 C 148.72637 287.2094 153.50365 289.03192 138.88454 304.95362 C 124.26544 320.8753 107.64206 334.16915 107.64206 334.16915" stroke="#cccccc" stroke-linecap="round" stroke-linejoin="round" stroke-width="1"/>
        </g>
        <g id="Line_7">
          <path d="M 159.24407 277.9693 C 159.24407 277.9693 124.4239 277.93647 99.33451 277.05448 C 74.245115 276.1725 70.68442 274.85608 70.68442 274.85608" stroke="#cccccc" stroke-linecap="round" stroke-linejoin="round" stroke-width="1"/>
        </g>
        <g id="Line_6">
          <path d="M 176.82415 272.2992 C 176.82415 272.2992 182.62588 267.68666 193.44047 277.1656 C 204.25506 286.64456 201.824 291.73616 214.9971 305.75766 C 228.1702 319.77915 239.9384 326.6582 239.9384 326.6582" stroke="#cccccc" stroke-linecap="round" stroke-linejoin="round" stroke-width="1"/>
        </g>
        <g id="Line_5">
          <path d="M 193.44047 277.1656 C 193.44047 277.1656 238.64444 272.22442 267.45014 269.692 C 296.25584 267.15958 295.11783 268.22676 295.11783 268.22676" stroke="#cccccc" stroke-linecap="round" stroke-linejoin="round" stroke-width="1"/>
        </g>
        <g id="Line_4">
          <path d="M 175.79322 272.36393 C 176.13686 274.98223 176.4805 277.60052 176.82415 280.2188 C 176.4751 284.0161 176.12605 287.8134 175.777 291.6107 C 175.32908 294.84545 174.88116 298.0802 174.43324 301.31494 C 173.75623 310.56963 172.34749 318.13123 172.11615 328.05646 C 171.70085 335.67016 170.91948 343.25557 170.17811 350.34385" stroke="#cccccc" stroke-linecap="round" stroke-linejoin="round" stroke-width="1"/>
        </g>
      </g>
    </g>
  </g>
</svg>
