<?xml version="1.0" encoding="UTF-8" standalone="no"?>
<!DOCTYPE svg PUBLIC "-//W3C//DTD SVG 1.1//EN" "http://www.w3.org/Graphics/SVG/1.1/DTD/svg11.dtd">
<svg xmlns:dc="http://purl.org/dc/elements/1.1/" xmlns:xl="http://www.w3.org/1999/xlink" version="1.1" xmlns="http://www.w3.org/2000/svg" viewBox="36 126 319.5 112.5" width="319.5" height="112.5">
  <defs>
    <clipPath id="artboard_clip_path">
      <path d="M 36 126 L 355.5 126 L 355.5 238.5 L 36 238.5 Z"/>
    </clipPath>
  </defs>
  <metadata> Produced by OmniGraffle 7.8 
    <dc:date>2018-07-22 17:54:47 +0000</dc:date><dc:title>Traceable heraldic art http://heraldicart.org/credits.html</dc:title>
  </metadata>
  <g id="Ivy_Vine" fill-opacity="1" stroke-dasharray="none" stroke="none" stroke-opacity="1" fill="#ffff00">
    <title>Ivy Vine</title>
    <g id="Ivy_Vine: Layer 2" >
      <title>Layer 2</title>
      <g id="Group_3">
        <g id="Graphic_11">
          <path d="M 62.09496 137.84462 C 62.32388 141.73629 62.705415 145.47535 63.010644 146.16211 C 63.39218 147.0778 62.78172 147.68826 60.26358 148.60394 C 55.685147 150.35901 47.596576 157.07405 46.98612 159.6685 C 46.68089 160.8131 46.07043 161.95772 45.612587 162.26295 C 44.46798 163.02602 45.688894 164.01801 49.12272 165.16262 C 50.725174 165.62047 52.17501 166.38354 52.403934 166.76507 C 52.632856 167.14661 51.64086 168.52014 50.114716 169.81737 C 44.39167 174.85365 40.576307 184.01052 40.5 192.63324 C 40.5 201.33227 40.957844 202.32426 48.81749 211.63375 C 51.33563 214.60973 55.83776 216.67003 61.94234 217.58572 C 66.13924 218.27248 71.32814 217.96725 71.86229 217.05157 C 72.16752 216.59372 72.70167 216.2885 73.0832 216.3648 C 75.60134 216.97526 78.72994 213.99927 81.78223 208.12361 C 83.5373 204.7661 84.68191 203.46887 86.58959 202.7821 C 91.32064 201.02704 91.70218 201.33227 91.70218 206.36855 C 91.70218 209.955 92.00741 211.25221 93.22832 212.47313 C 95.136 214.3808 97.27261 214.53343 96.73846 212.62574 C 96.50954 211.93898 96.58584 210.87068 96.96738 210.33653 C 97.42522 209.57345 98.2646 210.1076 100.09598 212.47313 C 101.46951 214.1519 103.5298 216.05957 104.82703 216.74634 C 106.04794 217.3568 107.7267 218.5777 108.56608 219.4171 C 109.40546 220.25647 110.8553 221.17216 111.77099 221.32477 C 117.79926 222.622 120.39371 223.00353 120.85155 222.6983 C 121.53832 222.24046 120.77525 216.3648 119.93587 215.14388 C 119.63064 214.68604 118.86757 212.93097 118.1808 211.0996 C 117.03619 208.35254 117.03619 207.8947 118.02819 207.8947 C 119.40172 207.8947 127.6429 204.00302 128.7112 202.85841 C 129.16905 202.40057 131.22934 200.6455 133.28964 198.89044 C 135.42624 197.21168 138.02069 194.08308 139.1653 191.94647 L 141.2256 188.1311 L 139.089 186.60496 C 134.12902 183.09483 129.7795 181.7976 122.83554 181.7976 L 116.19681 181.87391 L 116.88358 179.96623 C 117.34142 178.89793 117.64665 176.30348 117.64665 174.24319 C 117.64665 170.73305 117.72296 170.50413 118.86757 171.57243 C 119.47802 172.2592 120.2411 172.79335 120.54633 172.79335 C 120.85155 172.79335 122.60662 174.16688 124.5143 175.84564 C 126.42199 177.5244 128.55859 178.89793 129.24535 178.89793 C 129.93212 178.89793 130.8478 179.35577 131.15304 179.88993 C 131.45827 180.50038 133.51856 181.87391 135.57886 183.01852 C 137.71546 184.16313 140.1573 185.68928 141.14929 186.37604 L 142.90436 187.74957 L 140.2336 192.1754 C 137.33392 197.05906 135.57886 203.23995 136.79977 204.46087 C 137.25762 204.9187 142.2939 205.22394 148.6274 205.22394 C 159.00519 205.22394 159.76826 205.30025 160.98918 206.8264 C 161.67594 207.74208 165.56761 209.955 169.5356 211.78636 L 176.78478 215.14388 L 188.23087 215.06758 C 201.35572 214.91496 209.82583 213.99927 210.74152 212.47313 C 211.35198 211.48113 218.37224 208.42884 218.9064 208.963 C 219.059 209.1156 218.8301 210.1076 218.37224 211.25221 C 217.9907 212.39682 217.60917 215.2965 217.60917 217.73833 C 217.60917 221.40108 217.9907 222.622 219.74578 224.91121 C 221.57715 227.35305 222.1113 227.65828 224.55313 227.42935 C 227.14758 227.12412 230.5051 225.52167 232.718 223.38507 C 234.01524 222.16415 233.86262 218.19617 232.41278 216.74634 C 229.74203 214.07558 224.78206 216.2885 225.46882 219.87493 C 225.69774 221.17216 225.46882 221.63 224.40052 221.63 C 222.41653 221.63 222.49284 217.05157 224.40052 212.77836 C 226.00297 209.26822 234.09154 202.24796 240.19612 199.04305 C 242.25642 197.97475 244.46933 196.5249 245.1561 195.68553 C 246.75855 193.77785 251.26068 191.1071 252.78682 191.1071 C 253.4736 191.1071 254.23666 190.64925 254.46558 190.1151 C 254.6945 189.58095 257.44157 187.82588 260.64647 186.22343 C 263.85138 184.62098 267.43782 182.33176 268.50612 181.11084 C 269.65073 179.96623 271.3295 178.82162 272.3215 178.5164 C 273.31348 178.28747 274.07655 177.75332 274.07655 177.37179 C 274.07655 176.99025 275.5264 175.69303 277.35776 174.62472 C 279.11283 173.48011 280.8679 172.10658 281.17313 171.57243 C 281.47836 170.96197 282.24143 170.50413 282.8519 170.50413 C 283.46235 170.50413 284.75957 169.74106 285.82787 168.74906 C 287.65925 167.0703 289.94846 165.77308 295.5189 163.33125 L 298.34226 162.11033 L 301.47086 165.01 L 304.52315 167.83338 L 301.8524 169.66475 C 299.33426 171.41982 295.4426 176.91394 295.4426 178.669 C 295.4426 179.88993 299.7921 180.27146 307.49914 179.661 C 313.14587 179.27947 314.74833 178.89793 315.664 177.67701 C 316.7323 176.30348 316.7323 176.30348 316.80862 177.90594 C 316.80862 180.27146 317.4954 180.11885 321.46337 177.06656 C 324.59196 174.77734 325.0498 174.54842 326.72857 175.4641 C 327.79687 175.99825 329.85717 176.68502 331.307 176.99025 C 332.75684 177.29548 334.3593 177.90594 334.89345 178.28747 C 335.4276 178.669 336.7248 179.12685 337.94574 179.27947 C 341.30326 179.661 343.51617 182.8659 343.43986 187.52065 C 343.43986 192.93847 341.6085 196.83014 336.6485 202.40057 C 331.307 208.42884 327.0338 210.26022 319.5557 209.80237 C 311.3145 209.34453 308.1859 206.67378 306.2019 198.20367 C 305.43884 194.99876 305.43884 193.70154 306.2019 191.33602 C 307.72806 186.9865 309.02528 185.76558 312.3065 185.76558 C 317.87692 185.76558 318.8689 187.0628 315.5877 189.88618 C 314.06156 191.1834 313.68002 192.02278 314.06156 193.2437 C 314.67202 195.15138 317.4954 196.98275 318.25846 195.99076 C 318.4874 195.60922 319.40307 194.92246 320.24245 194.46461 C 321.08183 194.00677 322.15013 192.48062 322.60797 191.03079 C 323.37105 188.89418 323.29474 187.9785 322.15013 185.68928 C 320.08984 181.645 318.7926 180.95823 313.5274 180.88192 C 308.3385 180.80561 305.51515 182.25545 303.0733 186.37604 C 300.02102 191.41232 299.33426 199.88243 301.47086 204.00302 C 302.005 204.99502 302.08132 205.68178 301.54717 205.987 C 300.09733 206.9027 297.96073 204.8424 297.04504 201.6375 C 295.6715 196.75383 292.314 190.34402 291.09307 190.34402 C 290.55892 190.34402 290.10108 190.72556 290.10108 191.1834 C 290.10108 192.09909 286.81987 191.2597 286.43833 190.26771 C 286.2857 189.88618 285.75156 189.58095 285.29372 189.58095 C 284.75957 189.58095 283.53865 189.1231 282.39404 188.58895 C 279.26545 186.9102 273.16086 185.00251 272.4741 185.46036 C 271.63472 185.9945 272.4741 190.1151 274.15286 193.54893 C 275.90793 197.05906 275.90793 197.21168 274.15286 197.21168 C 273.31348 197.21168 270.4901 198.12736 267.81936 199.27197 C 258.35725 203.31626 252.71052 206.979 252.71052 209.1156 C 252.71052 210.64175 263.69876 216.3648 266.67475 216.4411 C 267.59043 216.4411 270.64272 216.97526 273.4661 217.58572 L 278.655 218.80663 L 278.50237 221.93523 C 278.42607 223.614 278.42607 227.04782 278.50237 229.48965 C 278.655 234.37332 279.7233 234.98377 281.55466 231.32102 C 282.0888 230.17642 282.8519 229.26073 283.30973 229.26073 C 284.60695 229.26073 289.94846 223.91922 290.86415 221.5537 C 291.70353 219.646 292.00876 219.4171 292.5429 220.40909 C 292.92445 221.09585 293.5349 221.63 293.91644 221.63 C 294.90844 221.63 299.25795 215.3728 298.8001 214.60973 C 298.5712 214.2282 298.5712 213.0836 298.8001 212.01529 C 299.25795 210.33653 299.56318 210.1839 302.15763 210.64175 C 303.68377 210.87068 306.43083 211.93898 308.2622 213.00728 C 312.15388 215.2202 314.5194 215.67803 322.53167 215.52542 C 331.4596 215.4491 332.98576 214.99127 337.4879 211.0996 C 344.8897 204.61348 346.33954 202.93472 347.71307 199.88243 C 348.39983 198.20367 349.2392 196.29599 349.62075 195.68553 C 349.92598 194.99876 350.46013 191.64124 350.76536 188.20742 C 351.2232 182.8659 351.0706 181.56869 349.77336 178.74532 C 348.934 176.91394 347.48414 173.70904 346.56846 171.49613 C 344.966 167.83338 340.00603 162.26295 336.3433 160.20265 C 335.12237 159.51588 335.04606 158.98173 335.73283 156.6162 C 336.19067 155.01376 336.3433 152.2667 336.11436 150.51163 C 335.73283 146.61996 332.90946 139.98122 331.76485 139.98122 C 330.1624 139.98122 323.59997 146.31473 322.53167 148.90917 L 321.38706 151.50362 L 318.94523 149.67225 C 317.5717 148.60394 314.5194 146.61996 312.2302 145.24642 C 308.2622 142.8809 307.57544 142.72828 300.7841 142.72828 C 293.76383 142.65198 293.5349 142.72828 293.306 144.40704 C 293.07706 146.0095 294.06906 150.05378 295.82412 154.70853 C 296.20566 155.62421 295.5952 156.23467 293.4586 157.15036 C 291.93245 157.76082 287.81186 160.12634 284.45434 162.41556 C 273.00825 169.89367 265.75906 172.79335 258.20464 172.79335 L 254.46558 172.79335 L 253.5499 168.36753 C 252.4816 163.02602 250.345 156.15836 249.04777 154.09807 L 248.13208 152.57192 L 246.91116 154.09807 C 245.69025 155.62421 245.69025 155.5479 243.70626 152.95346 C 240.27243 148.52764 234.09154 142.8046 230.35249 140.51537 C 223.56114 136.39478 216.61718 133.03726 215.62518 133.4188 C 214.55688 133.80033 214.6332 146.23842 215.7015 151.57993 L 216.31195 154.4796 L 212.7255 154.4796 C 207.61292 154.4796 198.30343 157.22667 191.28316 160.7368 C 187.92564 162.41556 184.79705 164.09432 184.2629 164.55216 C 183.2709 165.31524 183.72874 167.45184 184.94966 167.45184 C 185.3312 167.45184 187.5441 169.51214 189.83333 172.03028 C 192.12254 174.4721 194.7933 176.76133 195.70899 177.06656 C 196.62467 177.37179 197.54036 177.75332 197.76928 178.05855 C 197.9982 178.28747 199.90589 179.35577 201.96618 180.34777 C 204.10279 181.33976 206.392 182.48437 207.07877 182.7896 C 207.84184 183.17114 209.5206 183.47637 210.81783 183.47637 L 213.25966 183.47637 L 212.87812 188.28372 C 212.5729 191.56494 212.80181 194.00677 213.56489 195.68553 C 215.31995 200.03504 215.8541 200.34027 218.9064 199.11936 C 220.43254 198.5089 222.1113 197.97475 222.79807 197.97475 C 224.40052 197.97475 229.81834 195.53292 229.81834 194.76984 C 229.81834 194.46461 231.26817 193.47262 233.09955 192.55693 C 238.05952 190.0388 244.0878 185.23143 245.2324 182.94222 C 246.45332 180.34777 247.67424 180.42408 247.97947 183.09483 C 248.13208 184.16313 248.66623 185.00251 249.12407 185.00251 C 249.58192 185.00251 248.74254 185.8419 247.2927 186.9102 C 245.76655 187.90219 244.31672 189.27572 244.0878 189.96248 C 243.78257 190.57294 242.9432 191.1071 242.1038 191.1071 C 241.26443 191.1071 238.51736 192.40432 235.92292 194.00677 C 221.19561 202.93472 216.23564 204.46087 201.58465 204.46087 C 190.82532 204.46087 184.94966 203.39256 182.1263 201.02704 C 181.28691 200.34027 179.91338 199.5009 179.074 199.19566 C 177.62416 198.66151 177.62416 198.5852 178.92139 197.89844 C 179.60815 197.4406 180.2186 196.75383 180.2186 196.21968 C 180.2186 195.68553 181.28691 194.15938 182.58414 192.78585 C 184.79705 190.49664 184.94966 188.28372 182.88936 189.0468 C 181.97368 189.42833 181.82106 188.0548 180.60015 172.41181 C 180.1423 166.91769 176.47955 155.24268 175.18233 155.24268 C 173.27465 155.24268 167.5516 160.43157 165.64392 163.8654 L 163.73624 167.45184 L 160.68395 165.84939 C 159.0815 164.9337 156.33443 163.48386 154.65568 162.56818 C 151.6797 160.88942 146.4908 159.36327 137.105 157.45559 C 130.08473 156.08206 128.32967 155.85314 128.32967 156.38729 C 128.32967 157.6082 132.98441 170.80936 134.43425 173.55642 C 135.27363 175.23518 135.73147 176.60871 135.42624 176.60871 C 135.0447 176.60871 132.22134 174.70103 129.09274 172.3355 C 121.3857 166.61246 114.36544 162.56818 108.795 160.6605 C 106.27687 159.82111 102.07997 157.68451 99.40921 155.85314 C 96.73846 154.02176 94.0677 152.19039 93.38094 151.80885 C 92.69417 151.351 91.62587 150.43532 91.09172 149.67225 C 90.55757 148.98548 89.64188 148.37502 89.10773 148.37502 C 88.19204 148.37502 87.7342 147.61195 85.36867 142.42306 C 84.91083 141.43106 83.5373 139.90492 82.39269 139.06554 C 80.56132 137.84462 80.25609 137.76831 80.25609 138.7603 C 80.25609 140.43907 79.49301 140.28645 77.2801 138.14985 C 73.99889 135.02125 66.368164 130.82435 64.00264 130.82435 L 61.78973 130.82435 L 62.09496 137.84462 Z M 91.70218 156.00575 L 91.70218 156.00575 C 91.70218 156.38729 92.23633 156.76882 92.84679 156.76882 C 93.45724 156.76882 93.9914 157.07405 93.9914 157.5319 C 93.9914 158.37128 93.15202 158.52389 91.39695 157.83712 C 90.09973 157.30297 89.71819 155.24268 90.9391 155.24268 C 91.39695 155.24268 91.70218 155.5479 91.70218 156.00575 Z M 91.70218 164.62847 L 91.70218 164.62847 C 91.70218 163.40755 99.10398 163.63648 102.15627 164.9337 C 103.68242 165.54416 105.66641 166.23092 106.42948 166.38354 C 107.26886 166.53615 108.795 167.22292 109.787 167.90968 L 111.69468 169.1306 L 108.41347 170.73305 C 103.5298 173.17489 99.10398 177.98224 96.35692 183.7816 C 93.9914 188.58895 92.46525 189.73356 92.46525 186.45235 C 92.46525 183.8579 90.25234 184.9262 89.33665 187.9785 C 88.72619 190.1914 88.64989 191.56494 89.26035 193.32 C 90.09973 195.60922 90.02342 195.76184 87.35266 196.83014 C 84.45299 198.05106 83.38469 197.5169 83.30838 194.99876 C 83.30838 193.70154 81.09547 191.1071 80.10347 191.1071 C 79.72194 191.1071 78.88256 190.57294 78.2721 189.96248 C 75.60134 187.29173 67.28385 189.88618 65.07094 194.08308 C 63.39218 197.13537 66.13924 201.48488 70.259835 202.24796 C 72.24382 202.7058 72.70167 202.40057 73.54105 200.6455 C 74.38043 198.81413 74.30412 198.4326 72.777975 197.21168 C 70.48876 195.3803 70.64137 194.92246 73.617355 194.92246 C 77.43272 194.92246 78.2721 195.91445 78.04318 199.6535 C 77.89056 203.46887 75.296115 207.28423 71.63337 209.1156 C 67.818 211.0996 58.3559 210.1839 53.93008 207.36054 C 52.0224 206.21593 50.03841 204.15564 49.42795 202.93472 C 47.901805 199.5772 47.291347 191.1071 48.35965 187.9785 C 49.19903 185.38405 52.327627 180.11885 54.082694 178.28747 C 54.616845 177.75332 55.456225 176.68502 55.990376 175.99825 C 57.82175 173.48011 63.92633 169.58844 67.51277 168.67276 C 69.26784 168.29122 69.57307 168.44383 70.03091 170.2752 C 71.02291 175.00626 72.777975 179.35577 74.60935 182.10284 C 76.74595 185.07882 77.96687 185.76558 77.96687 183.9342 C 77.96687 183.32375 79.11148 181.87391 80.48501 180.7293 C 82.69792 178.74532 85.97913 172.1829 87.58159 166.68877 C 88.19204 164.32324 89.41296 163.48386 90.71018 164.55216 C 91.24433 165.01 91.70218 165.01 91.70218 164.62847 Z M 339.09035 173.02227 L 339.09035 173.02227 C 340.31126 175.3878 339.16665 175.3878 335.5802 173.09858 C 332.3753 171.03828 332.2227 170.80936 333.3673 169.58844 C 334.5882 168.21491 334.66452 168.29122 336.4959 169.89367 C 337.4879 170.88567 338.6325 172.2592 339.09035 173.02227 Z M 256.06804 178.82162 L 256.06804 178.82162 C 256.52588 179.50839 251.26068 184.62098 250.72653 184.01052 C 250.5739 183.8579 250.95545 182.48437 251.5659 180.95823 C 252.71052 178.21117 255.07604 177.14286 256.06804 178.82162 Z M 176.8611 204.9187 L 176.8611 204.9187 C 178.082 206.29224 178.082 206.36855 175.71648 206.36855 C 174.34295 206.36855 172.51158 205.987 171.6722 205.52917 C 170.14605 204.68979 170.14605 204.61348 171.36697 203.6978 C 172.96942 202.47688 175.10602 203.01103 176.8611 204.9187 Z" fill="#cccccc"/>
        </g>
        <g id="Graphic_10">
          <path d="M 68.65738 134.18187 C 70.64137 135.17387 73.46474 137.15785 74.83827 138.53139 C 79.64563 143.26244 83.15576 145.09381 82.24008 142.42306 C 81.32439 139.98122 84.45299 144.55966 85.97913 147.99349 C 87.20005 150.58793 88.03943 151.42731 90.25234 152.11408 C 91.77849 152.57192 93.45724 153.48761 93.9914 154.09807 C 94.52555 154.70853 95.36493 155.24268 95.82277 155.24268 C 96.28061 155.24268 98.11199 156.5399 99.79075 158.21866 C 101.54582 159.82111 104.29288 161.57618 105.89533 162.11033 C 107.57409 162.56818 109.40546 163.17863 110.01592 163.40755 C 110.62638 163.63648 111.77099 164.01801 112.53406 164.09432 C 114.36544 164.47586 117.64665 166.68877 117.64665 167.52815 C 117.64665 168.52014 117.34142 168.44383 107.6504 164.78109 C 101.77474 162.56818 97.42522 161.34726 95.136 161.34726 C 92.46525 161.34726 91.70218 161.04203 91.70218 160.12634 C 91.70218 159.13435 92.23633 158.98173 94.37293 159.36327 C 97.73045 160.05004 97.65414 159.28696 93.91509 156.08206 C 89.33665 152.11408 87.50528 153.86915 89.71819 160.20265 C 90.17603 161.49987 90.09973 161.49987 88.95512 159.97373 C 86.6659 156.92144 85.5976 157.83712 85.5976 162.7971 C 85.5976 165.54416 84.98714 168.97799 83.99514 171.57243 C 82.24008 176.07456 77.50903 182.25545 76.36442 181.49238 C 74.53304 180.34777 72.47275 174.3958 72.16752 169.35952 C 72.0149 166.45985 71.63337 163.9417 71.17552 163.7891 C 70.79399 163.63648 69.26784 164.09432 67.741695 164.70478 C 64.30787 166.15462 56.75345 165.84939 51.488247 164.09432 C 47.901805 162.8734 46.07043 161.34726 48.207034 161.34726 C 48.66488 161.34726 48.970107 160.8131 48.970107 160.20265 C 48.970107 159.5922 49.351643 159.05804 49.73318 159.05804 C 50.191023 159.05804 50.49625 158.6765 50.49625 158.14235 C 50.49625 156.76882 55.990376 152.2667 58.279594 151.80885 C 59.4242 151.50362 60.4162 151.04578 60.4162 150.66424 C 60.4162 149.59594 65.07094 148.90917 65.98663 149.82486 C 66.44447 150.2827 67.13124 150.66424 67.43647 150.66424 C 68.50477 150.66424 68.12323 149.2144 66.67339 147.76456 C 64.00264 145.09381 62.47649 137.23416 63.92633 133.57141 C 64.53679 132.04527 64.384175 132.04527 68.65738 134.18187 Z" fill="#ff0000"/>
        </g>
        <g id="Graphic_9">
          <path d="M 224.3242 139.29446 C 226.07928 140.51537 227.91065 141.50737 228.3685 141.50737 C 228.75003 141.50737 229.28418 141.96521 229.5131 142.57567 C 229.74203 143.18613 230.73402 143.8729 231.6497 144.10182 C 233.93893 144.63597 239.05151 149.82486 242.56165 155.01376 C 245.46133 159.36327 247.1401 160.12634 247.52162 157.30297 C 247.75054 155.70052 250.11607 162.03402 251.94744 169.35952 C 252.32898 171.03828 252.93944 172.79335 253.24467 173.2512 C 254.00774 174.3958 264.004 175.15887 264.61445 174.24319 C 264.84337 173.86165 265.3012 173.70904 265.68275 173.93796 C 266.52213 174.4721 276.21316 169.74106 279.64698 167.14661 C 283.38604 164.24693 294.6795 158.29497 296.35827 158.29497 C 298.8764 158.29497 297.8081 159.7448 293.76383 161.8051 C 291.5509 162.94971 289.56693 164.09432 289.338 164.39955 C 289.1091 164.70478 287.2777 165.9257 285.1411 167.0703 C 283.0808 168.21491 280.02852 170.35152 278.42607 171.72505 C 276.89992 173.17489 275.29747 174.3195 274.99224 174.3195 C 274.6107 174.3195 273.695 175.00626 272.77933 175.76933 C 271.93995 176.5324 270.10857 177.82963 268.65874 178.5164 C 267.2089 179.27947 264.84337 180.80561 263.39353 181.95022 C 261.9437 183.09483 259.50186 184.62098 258.05203 185.38405 C 256.6022 186.14712 254.16035 187.74957 252.71052 188.89418 C 251.26068 190.1151 249.65823 191.1071 249.12407 191.1071 C 248.58992 191.1071 243.70626 194.08308 238.28844 197.74583 C 226.3845 205.9107 220.66146 212.32051 220.66146 217.4331 C 220.66146 219.11186 221.19561 221.32477 221.88238 222.24046 C 223.33222 224.37706 226.84235 224.45337 228.67373 222.39307 C 229.97095 220.94324 229.97095 220.79062 228.67373 219.34078 C 227.3002 217.81464 227.3765 217.81464 229.20788 217.81464 C 233.25216 217.81464 232.10755 222.7746 227.60542 224.60599 C 224.1716 226.05582 221.95869 225.44536 220.43254 222.39307 C 218.67747 219.11186 219.21162 212.62574 221.42454 209.0393 C 222.26392 207.66577 222.95068 206.36855 222.95068 206.06332 C 222.95068 205.30025 221.19561 205.52917 219.059 206.59747 C 216.00672 208.27623 205.47632 211.71006 201.27942 212.54944 C 195.63268 213.61774 183.57613 213.61774 178.31093 212.47313 C 172.8168 211.32852 166.02546 208.42884 163.65993 206.21593 C 161.52333 204.23194 161.44702 203.62149 163.43101 203.08734 C 164.72823 202.7821 164.95716 202.93472 164.57562 204.15564 C 164.11778 205.37655 164.423 205.60547 166.25438 205.45286 C 167.62791 205.37655 169.5356 206.06332 171.13805 207.13162 C 172.58788 208.19992 173.7325 208.88669 173.7325 208.81038 C 173.7325 208.65777 174.9534 208.73407 176.47955 209.0393 C 178.23462 209.34453 179.98969 209.19192 180.98168 208.65777 L 182.66044 207.74208 L 180.52384 205.45286 C 179.30292 204.23194 177.09001 202.55318 175.56387 201.7901 C 173.27465 200.5692 172.6642 200.49289 171.7485 201.40858 C 171.13805 201.94273 169.76451 202.7058 168.6199 202.93472 C 166.94115 203.39256 166.4833 203.23995 166.4833 202.32426 C 166.4833 200.41658 165.18608 200.11135 163.12578 201.40858 C 160.98918 202.85841 142.82805 203.92672 140.00468 202.85841 L 138.40223 202.17165 L 140.2336 196.83014 C 141.2256 193.85416 142.06498 191.41232 142.06498 191.2597 C 142.06498 191.1071 142.2939 191.1071 142.67543 191.2597 C 142.98066 191.41232 144.65942 190.0388 146.41449 188.28372 L 149.6957 185.07882 L 146.41449 183.62898 C 142.21759 181.7213 136.57085 175.54041 135.0447 171.2672 C 131.68719 161.8814 130.7715 158.29497 131.68719 158.29497 C 132.14503 158.29497 133.74748 158.6765 135.19732 159.13435 C 138.02069 159.97373 139.089 160.20265 145.88034 161.19464 C 148.39848 161.49987 151.22185 162.56818 152.748 163.63648 C 156.18182 166.0783 158.77627 167.45184 159.99718 167.45184 C 160.60764 167.45184 161.75225 168.36753 162.59163 169.51214 C 164.49931 171.80135 164.2704 171.95397 166.10177 167.14661 C 167.62791 163.02602 169.38298 160.58419 170.83282 160.58419 C 171.29066 160.58419 172.28265 159.82111 172.89311 158.90543 C 173.57988 157.98974 174.19034 157.37928 174.34295 157.6082 C 177.24263 160.7368 179.76077 174.70103 179.22662 184.46836 C 178.9977 189.65726 179.1503 191.2597 179.91338 191.71755 C 180.75276 192.1754 180.37122 192.93847 178.31093 194.92246 C 174.34295 198.73782 174.72449 199.88243 181.2106 202.7821 C 184.18659 204.23194 188.4598 205.7581 190.5201 206.29224 C 195.25114 207.36054 214.09904 206.9027 215.62518 205.68178 C 216.15933 205.22394 218.52486 204.30825 220.73777 203.62149 C 223.027 202.93472 226.91866 201.17965 229.4368 199.6535 C 233.48108 197.28798 237.14383 195.22769 244.39302 191.41232 C 245.53763 190.80186 246.83486 189.80987 247.369 189.19941 C 247.90316 188.58895 248.66623 188.0548 249.04777 188.0548 C 249.5056 188.0548 250.4976 187.21542 251.26068 186.22343 C 252.10006 185.15513 254.84712 183.09483 257.28895 181.56869 C 259.8071 180.04254 261.71477 178.5164 261.48585 178.13486 C 261.10432 177.6007 254.5419 175.84564 252.71052 175.84564 C 252.32898 175.84564 251.4133 176.99025 250.65022 178.28747 C 249.65823 180.19515 249.2767 180.50038 249.04777 179.43208 C 248.58992 177.14286 245.38502 177.82963 244.31672 180.42408 C 243.32472 182.7896 234.702 191.1071 233.25216 191.1071 C 232.87063 191.1071 230.27618 192.1754 227.52912 193.47262 C 224.78206 194.76984 221.27192 196.29599 219.74578 196.83014 C 217.07502 197.82213 216.9224 197.82213 215.62518 195.83814 C 213.87012 193.2437 214.02273 186.07081 215.8541 184.08682 C 216.54087 183.32375 216.8461 182.48437 216.61718 182.17914 C 216.31195 181.95022 216.54087 180.95823 217.15133 179.96623 C 218.21963 178.36378 218.06702 177.37179 216.69349 177.37179 C 216.31195 177.37179 215.62518 178.21117 215.16734 179.27947 C 214.48057 180.88192 213.7938 181.18715 211.19936 181.18715 C 206.62093 181.18715 196.31944 175.76933 191.20686 170.58044 C 186.85734 166.23092 186.4758 164.9337 189.22287 164.55216 C 190.13856 164.39955 190.90163 164.01801 190.90163 163.63648 C 190.90163 163.25494 191.6647 162.72079 192.6567 162.41556 C 193.57238 162.18664 195.17484 161.27095 196.24314 160.58419 C 197.8456 159.43958 201.27942 158.21866 206.16308 156.99774 C 208.68122 156.38729 217.68548 156.31098 218.06702 156.92144 C 218.29594 157.22667 218.9827 157.5319 219.66947 157.5319 C 220.73777 157.5319 220.73777 157.37928 219.59316 156.08206 C 217.9907 154.25068 216.23564 144.71227 216.69349 139.7523 C 216.99871 136.16586 217.07502 136.08955 218.9827 136.5474 C 220.1273 136.85263 222.49284 138.07354 224.3242 139.29446 Z" fill="#ff0000"/>
        </g>
        <g id="Graphic_8">
          <path d="M 333.2147 146.23842 C 335.19867 150.66424 334.89345 154.63222 332.07008 160.27896 C 329.323 165.9257 329.2467 166.68877 331.53593 166.68877 C 333.06207 166.68877 332.98576 166.84138 330.77285 168.29122 C 329.39932 169.2069 328.2547 170.1226 328.2547 170.50413 C 328.2547 171.1909 336.7248 175.76933 339.7008 176.60871 C 341.7611 177.21917 341.99002 177.06656 341.99002 175.61672 C 341.99002 174.70103 340.7691 172.41181 339.24296 170.50413 C 337.7168 168.59645 336.19067 166.30723 335.80913 165.39154 C 335.4276 164.24693 334.74083 163.7891 333.97776 164.09432 C 332.75684 164.62847 332.4516 163.17863 333.5199 161.49987 C 334.05407 160.6605 334.20668 160.6605 334.5882 161.65249 C 334.89345 162.33925 335.6565 162.8734 336.4196 162.8734 C 338.93773 162.8734 343.8214 169.2069 346.49215 176.07456 C 348.85768 182.10284 349.0866 183.09483 348.62875 188.43634 C 348.0183 196.4486 345.57646 201.17965 339.16665 207.13162 C 333.13838 212.62574 330.2387 213.61774 321.23444 213.54143 C 315.5114 213.46512 313.90895 213.0836 309.48312 211.0233 C 306.73606 209.72607 303.8364 208.65777 303.14962 208.65777 C 302.08132 208.58146 302.08132 208.50515 303.30224 207.58946 C 304.9047 206.36855 304.981 204.9187 303.45485 202.7821 C 302.005 200.7218 301.7761 193.09108 302.997 189.96248 C 305.43884 184.01052 309.48312 181.18715 314.3668 182.25545 C 319.47938 183.40006 323.0658 189.35203 320.24245 192.1754 C 318.7926 193.62523 315.96924 193.54893 315.4351 192.02278 C 315.20617 191.33602 315.664 191.1834 317.11385 191.56494 C 319.02153 192.02278 319.09784 191.87017 319.09784 188.89418 C 319.09784 185.8419 318.94523 185.61297 315.664 184.23944 C 313.06957 183.09483 311.77234 182.94222 310.1699 183.55267 C 305.28622 185.23143 302.61547 193.47262 304.59946 200.6455 C 305.82038 204.9187 310.62773 210.56545 314.06156 211.71006 C 319.17415 213.38882 330.92547 210.87068 334.81714 207.20793 C 340.7691 201.7138 343.43986 197.5169 344.7371 191.64124 C 345.958 185.9945 345.958 185.8419 344.35555 182.48437 C 342.60048 178.89793 342.60048 178.89793 329.1704 173.93796 L 324.43935 172.2592 L 321.9212 174.3958 C 319.25046 176.76133 318.25846 177.14286 318.4874 175.61672 C 318.64 175.15887 318.10585 174.77734 317.41908 174.77734 C 316.656 174.85365 316.04555 174.54842 315.96924 174.01427 C 315.96924 173.55642 315.664 173.93796 315.28248 174.92995 C 314.90094 175.84564 313.68002 176.99025 312.61172 177.37179 C 309.86466 178.44009 297.7318 178.36378 297.7318 177.37179 C 297.7318 176.22718 303.989 169.74106 305.0573 169.74106 C 305.51515 169.74106 306.35453 169.28321 306.81237 168.67276 C 307.49914 167.83338 306.965 167.0703 304.37054 164.9337 C 302.31024 163.25494 300.24995 160.58419 299.10534 158.14235 C 296.96873 153.56392 294.98474 146.23842 295.7478 145.47535 C 296.05305 145.24642 298.18965 144.78858 300.63148 144.48335 C 305.1336 143.9492 308.56744 144.86489 310.78035 147.0015 C 311.3908 147.68826 313.3748 148.90917 315.12986 149.82486 C 316.88493 150.74055 318.8689 152.343 319.5557 153.335 C 321.08183 155.70052 322.22644 155.01376 323.9815 150.43532 C 325.0498 147.76456 329.47563 143.33874 331.3833 143.10982 C 331.61223 143.03351 332.4516 144.48335 333.2147 146.23842 Z" fill="#ff0000"/>
        </g>
        <g id="Graphic_7">
          <path d="M 88.64989 162.11033 C 88.64989 162.49187 88.34466 162.8734 87.88681 162.8734 C 87.50528 162.8734 87.12374 162.49187 87.12374 162.11033 C 87.12374 161.65249 87.50528 161.34726 87.88681 161.34726 C 88.34466 161.34726 88.64989 161.65249 88.64989 162.11033 Z" fill="#ff0000"/>
        </g>
        <g id="Graphic_6">
          <path d="M 62.705415 168.97799 C 57.74544 171.72505 51.030403 178.5927 48.512263 183.62898 C 46.90981 186.75758 46.68089 188.28372 46.68089 195.15138 L 46.68089 203.08734 L 50.114716 206.52116 C 53.777465 210.26022 58.12698 212.70205 59.80574 212.0916 C 60.33989 211.86267 62.5528 212.01529 64.6131 212.39682 C 67.13124 212.85467 68.73369 212.85467 69.34415 212.32051 C 69.8783 211.93898 70.56506 211.78636 70.9466 212.01529 C 71.78598 212.54944 77.12749 207.36054 78.95886 204.23194 C 80.48501 201.5612 80.63762 196.60122 79.26409 194.84615 C 76.74595 191.56494 72.62536 191.03079 69.95461 193.77785 C 67.58908 196.14337 67.58908 197.05906 69.95461 198.12736 C 71.02291 198.5852 71.86229 199.27197 71.86229 199.6535 C 71.86229 200.7218 70.03091 200.34027 68.12323 198.81413 C 65.6814 196.90645 66.44447 194.08308 69.95461 191.87017 C 72.0149 190.57294 73.15951 190.34402 75.06719 190.80186 C 76.44072 191.1071 77.814255 191.33602 78.11948 191.2597 C 78.95886 191.03079 81.62962 195.15138 82.24008 197.5169 C 82.469 198.66151 83.07946 199.42459 83.61361 199.34828 C 84.07145 199.19566 86.13175 198.5852 88.11574 197.97475 C 91.70218 196.90645 91.77849 196.75383 91.32064 194.54092 C 91.01541 193.32 90.63388 191.41232 90.40495 190.34402 L 89.94711 188.43634 L 91.62587 190.1151 C 94.0677 192.70955 94.98339 192.2517 96.58584 187.82588 C 98.11199 183.55267 102.00366 177.37179 103.14827 177.37179 C 103.60611 177.37179 103.91134 176.83763 103.91134 176.15087 C 103.91134 175.54041 104.21657 175.15887 104.59811 175.3878 C 104.97964 175.61672 105.43749 175.3878 105.66641 174.77734 C 106.20056 173.55642 110.70269 171.11459 111.54207 171.64874 C 111.9236 171.87766 112.30514 171.72505 112.45776 171.41982 C 112.53406 171.03828 113.60236 170.50413 114.67067 170.2752 L 116.57835 169.81737 L 116.0442 174.3958 C 115.73897 176.91394 115.12851 179.96623 114.59436 181.26346 C 114.06021 182.48437 113.75498 183.62898 113.90759 183.8579 C 114.13651 184.01052 118.02819 184.23944 122.60662 184.31575 C 131.00042 184.46836 134.12902 185.15513 137.94438 187.9785 C 139.54684 189.1231 139.54684 189.19941 136.79977 192.63324 C 131.15304 199.88243 119.70695 206.979 115.51005 205.8344 C 113.52606 205.37655 113.22083 207.20793 114.9759 208.65777 C 115.58635 209.19192 116.1205 210.0313 116.1205 210.48914 C 116.1205 210.94698 116.80727 212.62574 117.64665 214.2282 C 119.32541 217.2805 119.63064 219.72232 118.40972 220.4854 C 115.89158 222.01154 105.36118 215.75434 99.18029 209.0393 L 96.43323 206.06332 L 95.89908 208.58146 C 95.59385 209.955 94.98339 210.87068 94.52555 210.71806 C 93.45724 210.41283 93.30463 203.8504 94.29662 201.17965 C 95.136 198.5852 93.15202 198.27998 87.88681 200.26397 C 83.61361 201.86642 83.15576 202.32426 80.79024 206.67378 C 77.96687 212.01529 74.99089 214.3045 69.11523 215.60173 C 65.14725 216.51741 64.384175 216.4411 58.43221 214.45712 C 52.70916 212.62574 51.71717 211.93898 48.207034 208.0473 C 42.636604 201.7901 40.881536 194.69354 42.941833 186.9102 C 45.078436 178.5164 48.741185 172.10658 52.938085 169.1306 C 54.54054 167.986 59.57682 166.91769 63.850024 166.76507 L 66.902315 166.68877 L 62.705415 168.97799 Z" fill="#ff0000"/>
        </g>
        <g id="Graphic_5">
          <path d="M 124.89584 171.64874 C 129.09274 175.08257 137.94438 181.03453 141.91236 183.01852 C 144.27789 184.23944 145.72772 186.14712 144.96465 186.9865 C 144.73573 187.13912 140.00468 184.16313 134.35794 180.34777 C 128.7112 176.4561 123.06447 172.56443 121.69093 171.72505 C 120.3174 170.80936 119.2491 169.51214 119.1728 168.74906 C 119.1728 167.0703 119.70695 167.37553 124.89584 171.64874 Z" fill="#ff0000"/>
        </g>
        <g id="Graphic_4">
          <path d="M 281.47836 190.57294 C 281.70728 190.87817 282.62297 191.1071 283.46235 191.1071 C 284.30173 191.1071 286.1331 191.94647 287.43032 192.93847 C 289.338 194.3883 290.10108 194.61723 290.78784 193.93046 C 292.00876 192.70955 292.61922 193.77785 295.13736 201.5612 C 296.81612 206.8264 297.5029 207.8947 298.8001 207.8947 C 300.32625 207.8947 300.32625 207.8947 298.6475 209.1156 C 297.42658 209.955 296.96873 211.0233 296.96873 213.1599 C 296.96873 217.12787 294.5269 219.4934 293.68752 216.2885 C 293.00075 213.77035 291.77984 214.53343 290.33 218.4251 C 289.56693 220.40909 288.42232 222.6983 287.81186 223.53768 C 286.66725 225.06383 281.40205 229.26073 280.63898 229.26073 C 280.41005 229.26073 280.25744 226.20844 280.41005 222.46938 L 280.63898 215.75434 L 273.77132 215.2202 C 267.97197 214.83865 265.98798 214.3045 260.9517 211.86267 C 257.6705 210.33653 254.99973 208.81038 254.99973 208.50515 C 254.99973 207.74208 260.8754 204.46087 264.38553 203.23995 C 265.91167 202.7058 267.2089 202.01903 267.2089 201.7901 C 267.2089 201.10335 272.3215 199.6535 276.21316 199.19566 C 278.04453 199.04305 279.7233 198.66151 279.9522 198.4326 C 280.25744 198.20367 279.49437 197.13537 278.34976 196.06707 C 276.21316 194.15938 274.83962 191.2597 274.83962 188.81788 C 274.83962 187.44434 274.91593 187.36804 277.8919 188.74157 C 279.57068 189.50464 281.17313 190.34402 281.47836 190.57294 Z" fill="#ff0000"/>
        </g>
      </g>
    </g>
  </g>
</svg>
