<?xml version="1.0" encoding="utf-8"?>
<svg xmlns:dc="http://purl.org/dc/elements/1.1/" xmlns:xl="http://www.w3.org/1999/xlink"
     xmlns="http://www.w3.org/2000/svg"
     xmlns:xlink="http://www.w3.org/1999/xlink"
     version="1.1"
     viewBox="72 72 220.5 333"
     width="220.5"
     height="333"
     preserveAspectRatio="xMidYMid meet"
     zoomAndPan="magnify"
     contentScriptType="application/ecmascript"
     contentStyleType="text/css">
   <defs/>
   <metadata xmlns="" xmlns:svg="http://www.w3.org/2000/svg"
             xmlns:rdf="http://www.w3.org/1999/02/22-rdf-syntax-ns#"
             xmlns:cc="http://creativecommons.org/ns#">
      <rdf:RDF>
         <cc:Work rdf:about="">
            <dc:creator>
               <cc:Agent>
                  <dc:title>http://heraldicart.org Nettle Leaf.svg</dc:title>
               </cc:Agent>
            </dc:creator>
         </cc:Work>
      </rdf:RDF>
   </metadata>
   <g stroke="#505050" fill="#ffff00" stroke-opacity="1" stroke-dasharray="none"
      fill-opacity="1">
      <title>Nettle Leaf</title>
      <g>
         <title>Art</title>
         <g>
            <g>
               <g  id="outline-0">
                  <path
                        d="M 154.25294 87.13543 C 150.5701 93.06673 147.09185 101.24783 146.47804 105.54291 L 145.45503 113.11043 L 136.4525 111.88326 C 125.40396 110.45157 123.56253 112.29232 123.56253 126.20019 L 123.56253 136.22204 L 115.17382 134.79035 L 106.58051 133.35865 L 107.60352 150.94802 C 108.42193 166.08306 108.01273 168.53739 105.14829 168.53739 C 103.30686 168.53739 100.85163 167.51475 99.62401 166.28759 C 94.91815 161.58345 92.87212 166.90117 92.87212 182.6498 C 92.87212 193.28522 93.89514 199.62557 95.94117 202.48896 C 100.64703 208.62479 99.62401 209.85195 90.41689 209.03384 L 81.61897 208.42026 L 81.82358 220.89644 C 82.02818 236.84959 86.73404 245.2352 99.01021 251.98462 C 106.78511 256.07517 107.19432 256.68876 102.07925 255.66612 C 98.8056 254.848 92.46292 253.41632 88.37086 252.5982 C 76.91311 250.14388 75.48089 251.98462 79.36834 265.48344 C 82.02818 274.27812 85.50643 280.0049 93.48593 288.186 C 99.41941 294.32182 106.58051 303.1165 109.64955 307.6161 C 112.71859 312.1157 125.81316 319.06965 131.74664 322.95568 C 139.93075 328.47792 144.43201 330.11414 151.3885 330.11414 C 156.29897 330.11414 160.39103 330.5232 160.39103 330.93225 C 160.39103 335.43186 141.97678 364.27024 134.81568 370.8151 C 125.19936 379.6098 119.67508 381.24602 115.37842 376.13284 C 112.10478 372.2468 107.39892 372.2468 105.9667 375.9283 C 104.12527 380.63244 116.81064 397.4037 123.15333 399.0399 C 134.20188 401.6988 147.91026 400.67614 153.84374 396.38106 C 163.25546 389.42713 179.41908 366.111 186.98938 348.72615 L 194.15048 332.1594 L 204.99442 332.1594 C 224.8409 332.1594 235.07102 325.20548 256.3497 297.7988 C 283.97108 261.59742 284.2202 262.22598 284.4248 247.5 C 284.4248 240.137 279.9248 238.5 279.9248 238.5 C 279.9248 238.5 283.35727 235.21337 284.5849 232.96356 C 285.8125 230.71376 286.8355 221.10097 287.04012 211.48817 C 287.24472 197.17124 286.6309 192.87617 283.15267 187.35392 C 280.69743 183.4679 275.4248 184.5 275.4248 184.5 C 275.4248 184.5 273.94554 178.55924 273.94554 169.3555 C 273.94554 159.7427 272.92253 155.44763 270.4673 152.78877 C 266.98905 149.51633 266.57984 149.51633 260.85097 153.8114 C 252.87146 159.7427 252.25765 159.53818 253.89448 152.17519 C 255.5313 143.58503 249.80242 129.88169 241.4137 121.70058 C 233.8434 114.3376 227.90993 114.3376 227.90993 121.49606 C 227.90993 123.74586 227.09152 125.58661 225.8639 125.58661 C 224.8409 125.58661 223.81787 123.95039 223.81787 121.90511 C 223.81787 112.08779 197.62872 90.20334 191.08144 94.49842 C 188.8308 95.93012 185.55716 94.08937 177.37305 86.52185 C 171.64418 80.99961 165.5061 76.5 163.66467 76.5 C 162.02785 76.5 157.7312 81.20413 154.25294 87.13543 Z"
                        fill="black"/>
               </g>
            </g>
            <g>
               <path d="M 175.73623 99.20256 L 183.51114 107.79271 L 182.07892 122.72322 C 181.0559 132.74507 181.4651 138.06279 183.10193 138.8809 C 186.78478 141.33523 189.85382 136.42657 193.12746 122.92775 C 196.81031 109.01988 199.87935 106.77007 207.44965 112.9059 C 211.1325 115.76929 212.56472 119.65531 213.79234 129.67716 C 214.61075 137.65373 214.40615 144.40314 213.17853 147.26653 C 211.95091 149.72086 211.5417 153.40235 212.15552 155.03857 C 213.58774 158.9246 221.77185 159.53818 221.77185 155.85668 C 221.77185 152.78877 234.45722 131.72243 236.29864 131.72243 C 237.11705 131.72243 239.36768 135.81298 241.2091 140.72165 C 243.86894 147.88011 244.07354 150.53897 242.23212 154.22046 C 239.9815 158.51554 236.09404 175.2868 235.48023 184.8996 C 234.86642 192.87617 241.4137 192.67164 245.50576 184.49054 C 249.80242 175.90038 258.60034 166.49211 262.2832 166.49211 C 264.53382 166.49211 264.73842 168.94644 263.5108 178.15018 C 261.66938 193.8988 260.03256 197.5803 251.43924 207.1931 C 242.84593 216.60136 242.64132 222.32813 250.62083 223.35077 C 254.9175 223.75982 258.19113 221.71455 266.37524 212.71534 C 272.10412 206.37498 277.4238 201.2618 278.2422 201.2618 C 278.856 201.2618 279.0606 206.17046 278.6514 212.10175 C 277.6284 225.60057 271.8995 233.9862 260.85097 239.0994 C 255.1221 241.55372 252.46226 244.00805 252.46226 246.87143 C 252.46226 250.3484 253.48527 250.75746 260.44176 249.5303 C 269.44428 248.0986 275.4248 247.5 275.4248 247.5 C 275.4248 247.5 273.94554 251.37104 271.6949 257.7114 C 270.8765 259.9612 266.78445 266.30155 262.4878 272.23285 C 256.5543 280.20942 251.43924 284.29997 241.8229 289.0041 C 234.66182 292.27655 224.8409 297.7988 219.72582 301.27576 C 214.81535 304.5482 210.3141 307.00253 209.9049 306.59347 C 209.49568 306.18442 214.20155 300.8667 220.33963 294.52635 C 237.73086 277.1415 244.68735 264.05175 245.09656 247.2805 C 245.30116 240.32655 244.68735 239.0994 241.2091 239.0994 C 238.14006 239.0994 236.91245 240.94014 235.68483 247.89407 C 234.86642 252.80273 231.38817 261.3929 228.11453 267.3242 C 221.56724 278.98226 202.33459 301.07123 200.69776 299.435 C 200.08396 298.82143 202.12998 293.91277 205.60823 288.59505 C 215.22456 273.2555 231.18357 228.0549 229.13754 222.53266 C 225.8639 213.73797 216.65678 225.60057 212.56472 244.21258 C 210.3141 254.64348 196.6057 286.34525 195.5827 283.48186 C 195.1735 282.05017 196.1965 278.77773 197.83333 276.11887 C 199.47015 273.66454 202.72343 264.83566 203.4248 261 C 212.4248 216 213.79234 174.26416 209.70028 171.80983 C 203.9714 168.12833 202.33459 174.46869 201.72078 201.67085 C 201.31157 216.60136 199.26555 238.4858 197.21952 250.3484 C 194.76429 263.43816 193.94587 266.7106 194.76429 258.5295 C 197.62872 231.32734 195.9919 197.37577 190.46763 176.7185 C 184.12494 152.17519 175.94083 133.76771 171.64418 133.76771 C 165.7107 133.76771 165.9153 139.90354 172.46259 156.26574 C 185.55716 189.60373 187.8078 211.07912 184.12494 269.77852 C 181.4651 311.9112 178.39607 299.02596 177.16845 241.55372 C 176.35004 192.4671 175.32703 188.58109 167.14292 195.3305 C 161.82325 199.8301 165.09689 278.16415 171.84878 303.52556 C 173.0764 308.2297 172.8718 308.43422 169.80275 305.3663 C 165.3015 301.07123 158.345 275.09623 158.345 262.41553 C 158.345 252.5982 154.86675 248.50766 150.3655 253.00726 C 145.86423 257.50687 148.52407 282.2547 155.27596 300.45765 C 156.70818 303.7301 156.50357 304.13914 154.04834 302.09387 C 152.61612 300.66218 150.3655 296.3671 149.34248 292.89013 C 146.88725 285.52714 140.74916 282.86828 138.49853 288.39052 C 137.88473 290.4358 138.70314 294.52635 140.33996 297.59426 C 143.409 302.91198 143.409 303.1165 139.31694 304.34367 C 130.31442 306.798 122.13032 305.57084 118.44747 301.4803 C 113.9462 296.57163 115.58303 296.3671 123.76714 300.45765 C 130.10982 303.9346 133.79267 303.1165 133.79267 298.41237 C 133.79267 294.32182 126.63158 289.8222 111.90018 284.91356 C 100.64703 281.23206 98.3964 279.59584 94.91815 272.6419 C 92.66752 268.34683 90.8261 264.25628 90.8261 263.6427 C 90.8261 260.7793 103.10226 263.0291 107.80812 266.91513 C 110.87716 269.16494 116.60604 271.61927 120.4935 272.23285 C 126.83618 273.2555 127.65459 272.84643 127.65459 268.9604 C 127.65459 266.50608 126.22237 264.05175 124.58555 263.43816 C 122.53952 262.62005 122.13032 260.37025 122.94873 256.48423 C 123.97174 251.1665 123.15333 250.3484 115.17382 246.46238 C 105.7621 242.1673 92.87212 231.53187 92.87212 228.0549 C 92.87212 227.03226 92.25832 224.57793 91.4399 222.53266 C 90.21229 219.46475 91.2353 219.26022 99.82862 220.28286 C 105.14829 221.10097 111.49097 223.14624 113.9462 224.78246 C 120.4935 229.4866 121.5165 228.66848 121.5165 218.85116 C 121.5165 210.8746 120.6981 209.03384 114.96922 205.14782 C 111.28637 202.48896 107.19432 199.012 105.7621 197.17124 C 102.69306 193.48975 102.28385 178.76377 105.14829 178.76377 C 110.05875 178.76377 121.5165 184.8996 121.5165 187.55845 C 121.5165 191.649 129.70062 201.46632 131.95125 200.23916 C 132.97426 199.42105 133.79267 194.71691 133.79267 189.60373 C 133.79267 181.83168 132.56505 178.9683 125.60856 170.99172 C 121.1073 165.87853 117.83366 161.37893 118.24286 160.96987 C 118.65207 160.56082 118.24286 157.08385 117.42445 153.19782 C 115.78763 146.24389 115.99223 146.03936 121.3119 147.26653 C 124.17634 148.08464 129.08681 149.92538 132.15585 151.35708 C 140.54456 155.65216 148.11486 155.03857 148.11486 150.12991 C 148.11486 148.08464 146.27344 145.22125 144.0228 143.99409 C 139.31694 141.53976 133.79267 131.72243 133.79267 125.58661 C 133.79267 120.67795 134.40648 120.67795 141.77218 124.56397 C 145.04582 126.20019 148.11486 129.88169 148.93327 132.54054 C 150.3655 138.67637 156.29897 142.35787 160.39103 139.90354 C 162.84626 138.26731 162.84626 136.42657 159.57262 127.63188 C 157.32199 121.087 156.09437 114.13307 156.91278 109.42893 C 157.9358 101.65689 163.46007 90.81693 166.5291 90.81693 C 167.34752 90.81693 171.64418 94.70295 175.73623 99.20256 Z"/>
               <path d="M 175.73623 99.20256 L 183.51114 107.79271 L 182.07892 122.72322 C 181.0559 132.74507 181.4651 138.06279 183.10193 138.8809 C 186.78478 141.33523 189.85382 136.42657 193.12746 122.92775 C 196.81031 109.01988 199.87935 106.77007 207.44965 112.9059 C 211.1325 115.76929 212.56472 119.65531 213.79234 129.67716 C 214.61075 137.65373 214.40615 144.40314 213.17853 147.26653 C 211.95091 149.72086 211.5417 153.40235 212.15552 155.03857 C 213.58774 158.9246 221.77185 159.53818 221.77185 155.85668 C 221.77185 152.78877 234.45722 131.72243 236.29864 131.72243 C 237.11705 131.72243 239.36768 135.81298 241.2091 140.72165 C 243.86894 147.88011 244.07354 150.53897 242.23212 154.22046 C 239.9815 158.51554 236.09404 175.2868 235.48023 184.8996 C 234.86642 192.87617 241.4137 192.67164 245.50576 184.49054 C 249.80242 175.90038 258.60034 166.49211 262.2832 166.49211 C 264.53382 166.49211 264.73842 168.94644 263.5108 178.15018 C 261.66938 193.8988 260.03256 197.5803 251.43924 207.1931 C 242.84593 216.60136 242.64132 222.32813 250.62083 223.35077 C 254.9175 223.75982 258.19113 221.71455 266.37524 212.71534 C 272.10412 206.37498 277.4238 201.2618 278.2422 201.2618 C 278.856 201.2618 279.0606 206.17046 278.6514 212.10175 C 277.6284 225.60057 271.8995 233.9862 260.85097 239.0994 C 255.1221 241.55372 252.46226 244.00805 252.46226 246.87143 C 252.46226 250.3484 253.48527 250.75746 260.44176 249.5303 C 269.44428 248.0986 275.4248 247.5 275.4248 247.5 C 275.4248 247.5 273.94554 251.37104 271.6949 257.7114 C 270.8765 259.9612 266.78445 266.30155 262.4878 272.23285 C 256.5543 280.20942 251.43924 284.29997 241.8229 289.0041 C 234.66182 292.27655 224.8409 297.7988 219.72582 301.27576 C 214.81535 304.5482 210.3141 307.00253 209.9049 306.59347 C 209.49568 306.18442 214.20155 300.8667 220.33963 294.52635 C 237.73086 277.1415 244.68735 264.05175 245.09656 247.2805 C 245.30116 240.32655 244.68735 239.0994 241.2091 239.0994 C 238.14006 239.0994 236.91245 240.94014 235.68483 247.89407 C 234.86642 252.80273 231.38817 261.3929 228.11453 267.3242 C 221.56724 278.98226 202.33459 301.07123 200.69776 299.435 C 200.08396 298.82143 202.12998 293.91277 205.60823 288.59505 C 215.22456 273.2555 231.18357 228.0549 229.13754 222.53266 C 225.8639 213.73797 216.65678 225.60057 212.56472 244.21258 C 210.3141 254.64348 196.6057 286.34525 195.5827 283.48186 C 195.1735 282.05017 196.1965 278.77773 197.83333 276.11887 C 199.47015 273.66454 202.72343 264.83566 203.4248 261 C 212.4248 216 213.79234 174.26416 209.70028 171.80983 C 203.9714 168.12833 202.33459 174.46869 201.72078 201.67085 C 201.31157 216.60136 199.26555 238.4858 197.21952 250.3484 C 194.76429 263.43816 193.94587 266.7106 194.76429 258.5295 C 197.62872 231.32734 195.9919 197.37577 190.46763 176.7185 C 184.12494 152.17519 175.94083 133.76771 171.64418 133.76771 C 165.7107 133.76771 165.9153 139.90354 172.46259 156.26574 C 185.55716 189.60373 187.8078 211.07912 184.12494 269.77852 C 181.4651 311.9112 178.39607 299.02596 177.16845 241.55372 C 176.35004 192.4671 175.32703 188.58109 167.14292 195.3305 C 161.82325 199.8301 165.09689 278.16415 171.84878 303.52556 C 173.0764 308.2297 172.8718 308.43422 169.80275 305.3663 C 165.3015 301.07123 158.345 275.09623 158.345 262.41553 C 158.345 252.5982 154.86675 248.50766 150.3655 253.00726 C 145.86423 257.50687 148.52407 282.2547 155.27596 300.45765 C 156.70818 303.7301 156.50357 304.13914 154.04834 302.09387 C 152.61612 300.66218 150.3655 296.3671 149.34248 292.89013 C 146.88725 285.52714 140.74916 282.86828 138.49853 288.39052 C 137.88473 290.4358 138.70314 294.52635 140.33996 297.59426 C 143.409 302.91198 143.409 303.1165 139.31694 304.34367 C 130.31442 306.798 122.13032 305.57084 118.44747 301.4803 C 113.9462 296.57163 115.58303 296.3671 123.76714 300.45765 C 130.10982 303.9346 133.79267 303.1165 133.79267 298.41237 C 133.79267 294.32182 126.63158 289.8222 111.90018 284.91356 C 100.64703 281.23206 98.3964 279.59584 94.91815 272.6419 C 92.66752 268.34683 90.8261 264.25628 90.8261 263.6427 C 90.8261 260.7793 103.10226 263.0291 107.80812 266.91513 C 110.87716 269.16494 116.60604 271.61927 120.4935 272.23285 C 126.83618 273.2555 127.65459 272.84643 127.65459 268.9604 C 127.65459 266.50608 126.22237 264.05175 124.58555 263.43816 C 122.53952 262.62005 122.13032 260.37025 122.94873 256.48423 C 123.97174 251.1665 123.15333 250.3484 115.17382 246.46238 C 105.7621 242.1673 92.87212 231.53187 92.87212 228.0549 C 92.87212 227.03226 92.25832 224.57793 91.4399 222.53266 C 90.21229 219.46475 91.2353 219.26022 99.82862 220.28286 C 105.14829 221.10097 111.49097 223.14624 113.9462 224.78246 C 120.4935 229.4866 121.5165 228.66848 121.5165 218.85116 C 121.5165 210.8746 120.6981 209.03384 114.96922 205.14782 C 111.28637 202.48896 107.19432 199.012 105.7621 197.17124 C 102.69306 193.48975 102.28385 178.76377 105.14829 178.76377 C 110.05875 178.76377 121.5165 184.8996 121.5165 187.55845 C 121.5165 191.649 129.70062 201.46632 131.95125 200.23916 C 132.97426 199.42105 133.79267 194.71691 133.79267 189.60373 C 133.79267 181.83168 132.56505 178.9683 125.60856 170.99172 C 121.1073 165.87853 117.83366 161.37893 118.24286 160.96987 C 118.65207 160.56082 118.24286 157.08385 117.42445 153.19782 C 115.78763 146.24389 115.99223 146.03936 121.3119 147.26653 C 124.17634 148.08464 129.08681 149.92538 132.15585 151.35708 C 140.54456 155.65216 148.11486 155.03857 148.11486 150.12991 C 148.11486 148.08464 146.27344 145.22125 144.0228 143.99409 C 139.31694 141.53976 133.79267 131.72243 133.79267 125.58661 C 133.79267 120.67795 134.40648 120.67795 141.77218 124.56397 C 145.04582 126.20019 148.11486 129.88169 148.93327 132.54054 C 150.3655 138.67637 156.29897 142.35787 160.39103 139.90354 C 162.84626 138.26731 162.84626 136.42657 159.57262 127.63188 C 157.32199 121.087 156.09437 114.13307 156.91278 109.42893 C 157.9358 101.65689 163.46007 90.81693 166.5291 90.81693 C 167.34752 90.81693 171.64418 94.70295 175.73623 99.20256 Z"
                     stroke="#f3f3f3"
                     stroke-linecap="round"
                     stroke-linejoin="round"
                     stroke-width="2"/>
            </g>
            <g>
               <path d="M 234.048 308.63875 C 226.88691 316.00174 211.95091 323.1602 207.04045 321.524 C 205.60823 320.9104 210.3141 317.43343 217.4752 313.5474 C 224.63628 309.6614 232.4112 305.3663 234.86642 304.13914 C 241.6183 300.0486 241.4137 300.8667 234.048 308.63875 Z"/>
               <path d="M 234.048 308.63875 C 226.88691 316.00174 211.95091 323.1602 207.04045 321.524 C 205.60823 320.9104 210.3141 317.43343 217.4752 313.5474 C 224.63628 309.6614 232.4112 305.3663 234.86642 304.13914 C 241.6183 300.0486 241.4137 300.8667 234.048 308.63875 Z"
                     stroke="#f3f3f3"
                     stroke-linecap="round"
                     stroke-linejoin="round"
                     stroke-width="2"/>
            </g>
            <g>
               <path d="M 156.29897 314.77458 C 163.66467 322.54662 159.36801 325.00095 147.09185 320.2968 C 135.02029 315.5927 133.17886 312.32025 142.38599 311.09308 C 146.06883 310.68402 149.75168 310.07044 150.3655 310.07044 C 150.9793 309.8659 153.63914 311.9112 156.29897 314.77458 Z"/>
               <path d="M 156.29897 314.77458 C 163.66467 322.54662 159.36801 325.00095 147.09185 320.2968 C 135.02029 315.5927 133.17886 312.32025 142.38599 311.09308 C 146.06883 310.68402 149.75168 310.07044 150.3655 310.07044 C 150.9793 309.8659 153.63914 311.9112 156.29897 314.77458 Z"
                     stroke="#f3f3f3"
                     stroke-linecap="round"
                     stroke-linejoin="round"
                     stroke-width="2"/>
            </g>
            <g>
               <path d="M 185.96637 319.88776 C 187.39859 322.13757 172.25798 356.29366 165.5061 365.90646 C 159.77722 374.2921 152.00231 380.2234 146.68264 380.2234 C 144.0228 380.4279 141.97678 380.01886 141.97678 379.40528 C 141.97678 378.7917 145.45503 374.70114 149.75168 369.997 C 156.50357 363.2476 171.23497 335.22733 175.53163 321.31946 C 176.75924 317.63796 183.92034 316.61532 185.96637 319.88776 Z"/>
               <path d="M 185.96637 319.88776 C 187.39859 322.13757 172.25798 356.29366 165.5061 365.90646 C 159.77722 374.2921 152.00231 380.2234 146.68264 380.2234 C 144.0228 380.4279 141.97678 380.01886 141.97678 379.40528 C 141.97678 378.7917 145.45503 374.70114 149.75168 369.997 C 156.50357 363.2476 171.23497 335.22733 175.53163 321.31946 C 176.75924 317.63796 183.92034 316.61532 185.96637 319.88776 Z"
                     stroke="#f3f3f3"
                     stroke-linecap="round"
                     stroke-linejoin="round"
                     stroke-width="2"/>
            </g>
            <g>
               <path d="M 141.77374 391.21598 C 145.04196 389.51944 143.8335 388.1418 137.01496 386.44177 C 131.41402 385.0453 127.9114 385.6071 128.38019 387.8766 C 129.23353 392.75337 135.80854 394.3927 141.77374 391.21598 Z"/>
               <path d="M 141.77374 391.21598 C 145.04196 389.51944 143.8335 388.1418 137.01496 386.44177 C 131.41402 385.0453 127.9114 385.6071 128.38019 387.8766 C 129.23353 392.75337 135.80854 394.3927 141.77374 391.21598 Z"
                     stroke="#f3f3f3"
                     stroke-linecap="round"
                     stroke-linejoin="round"
                     stroke-width="2"/>
            </g>
         </g>
      </g>
   </g>
</svg>