<?xml version="1.0" encoding="UTF-8" standalone="no"?>
<!DOCTYPE svg PUBLIC "-//W3C//DTD SVG 1.1//EN" "http://www.w3.org/Graphics/SVG/1.1/DTD/svg11.dtd">
<svg xmlns:dc="http://purl.org/dc/elements/1.1/" xmlns:xl="http://www.w3.org/1999/xlink" version="1.1" xmlns="http://www.w3.org/2000/svg" viewBox="33.64619 61.827035 296.5413 284.67296" width="296.5413" height="284.67296">

  <metadata> Produced by OmniGraffle 7.8 
    <dc:date>2018-07-22 17:54:47 +0000</dc:date><dc:title>Traceable heraldic art http://heraldicart.org/credits.html</dc:title>
  </metadata>
  <g id="Turnip" fill-opacity="1" stroke-dasharray="none" stroke="none" stroke-opacity="1" fill="#ffff00">
    <title>Turnip</title>
    <g id="Turnip: Layer 2" >
      <title>Layer 2</title>
      <g id="Group_3">
        <g id="Graphic_112">
          <path d="M 93.49166 68.82648 C 90.46629 69.39752 87.22146 70.12045 86.33722 70.35798 C 84.34669 70.836925 81.76759 75.7681 81.82314 78.95054 C 81.85931 81.02283 85.16577 88.07225 86.43815 88.8644 C 87.41062 89.43969 90.24847 95.09068 90.27301 96.49687 C 90.2911 97.53301 89.55875 97.98999 86.89955 98.33254 C 84.5351 98.59591 82.18486 99.67339 79.33334 101.72205 C 75.31187 104.60549 75.23915 104.68079 75.51803 107.93336 C 76.29613 118.58049 76.43253 117.91181 74.14209 118.17389 C 72.51774 118.42434 71.09992 117.7828 68.39551 115.53499 C 62.91396 111.11467 58.73322 109.11473 53.766786 108.75723 C 49.98581 108.45306 48.87953 108.69447 45.432057 110.53143 C 42.86366 111.83482 41.040537 113.42133 40.253554 114.98975 C 39.536705 116.33485 38.67442 117.83056 38.2394 118.35638 C 36.64606 120.38308 36.498955 124.67954 37.946488 127.02332 C 38.70855 128.26858 39.61476 129.28922 39.9108 129.28405 C 40.28085 129.27759 41.26236 130.37095 42.10102 131.76293 C 43.243467 133.5938 45.118266 134.9677 49.148404 136.82221 C 55.49094 139.67281 57.15534 141.71667 55.80857 145.14569 C 53.115034 152.00371 53.18388 151.70638 54.29882 156.20291 C 55.647425 161.36167 57.985663 163.83796 65.22666 167.26514 L 70.303274 169.69364 L 78.47577 167.10791 C 82.96714 165.69693 89.227 163.81087 92.46924 162.93992 C 100.86764 160.57234 101.32075 161.08266 100.09412 171.39462 L 99.57697 175.69755 L 103.11229 178.89328 C 105.29475 180.9281 107.24098 182.15269 108.42514 182.13202 C 109.38727 182.11522 114.3227 180.69648 119.25296 178.9817 C 127.27486 176.25054 128.8239 175.92737 132.7529 176.22895 C 135.2004 176.48236 137.87252 176.87992 138.7671 177.23446 C 139.6604 177.515 143.80109 177.22063 148.01063 176.62892 C 160.78338 174.62919 166.4172 175.04908 166.465 177.78745 C 166.48567 178.97162 165.38197 179.36105 160.21418 180.19158 C 158.22107 180.5225 154.54123 181.77125 152.11957 182.99805 C 149.6992 184.29885 146.24913 185.9878 144.41438 186.9082 C 142.57834 187.75462 140.45013 188.82822 139.64248 189.21249 C 125.19037 196.79399 125.26308 196.71869 122.8152 200.68515 C 121.52049 202.8547 119.94523 205.91753 119.23355 207.55868 C 118.59458 209.12452 117.15314 211.37066 115.91434 212.50277 C 114.45739 213.8608 113.81455 215.2046 113.84168 216.75882 C 113.86364 218.017 113.53622 220.46579 113.04916 222.25107 C 112.42957 224.92707 112.52425 226.10994 113.53806 229.05355 C 114.31304 231.0389 114.87762 233.69423 114.90087 235.0264 C 114.93575 237.0247 115.76924 238.12063 120.80414 242.40068 C 127.19319 247.91564 129.88985 249.7194 136.76467 253.37506 C 138.55771 254.3062 141.62571 256.17748 143.64724 257.4748 C 145.67006 258.8461 148.05777 259.9149 148.94589 259.8994 C 149.7613 259.9592 151.84262 260.4411 153.48118 261.00477 C 155.11974 261.56843 159.72258 262.30245 163.80089 262.67546 C 167.8039 262.97575 171.66405 263.57466 172.41061 263.9318 C 173.15847 264.36294 173.9244 265.83022 174.18132 267.82462 C 174.43306 269.52298 174.912 271.5135 175.14566 272.17572 C 176.3062 275.04274 170.12293 277.07552 166.97316 274.76145 C 164.79844 273.1707 163.76747 273.48482 160.34454 276.72797 C 157.43064 279.444 156.76972 279.75168 153.21723 279.8137 C 148.85063 279.8899 147.89625 280.35076 149.10754 281.8843 C 149.63594 282.46735 151.49266 282.8051 153.86098 282.76376 C 156.96941 282.7095 158.29384 282.2422 160.8519 280.34672 C 163.5554 278.30065 164.36564 278.0644 166.6677 278.46842 C 170.1591 279.1478 172.52742 279.10647 175.32818 278.3913 C 177.53815 277.76045 177.68876 277.9059 179.37512 281.20792 C 180.90958 284.2905 180.99134 284.73328 179.97328 285.7875 C 179.02794 286.76644 178.43715 286.85078 176.7233 286.2144 C 169.34332 283.30788 163.43413 284.07732 158.18291 288.61094 C 155.26514 291.10495 153.27203 291.43587 150.95058 289.9217 C 149.90152 289.1997 147.82536 289.01383 143.61066 289.3095 C 140.3568 289.51436 137.47298 289.71276 137.17694 289.71793 C 135.77075 289.74247 136.83402 291.2786 139.0737 292.35 C 140.71743 293.2097 143.38954 293.60725 147.53411 293.5349 C 151.0879 293.5469 153.98075 293.86658 154.50786 294.3756 C 155.7127 295.5391 154.83674 304.73445 153.37721 305.94445 C 148.27013 310.25346 147.79082 312.4828 152.0834 312.40788 C 155.11783 312.3549 157.80582 309.42072 158.98519 304.88414 C 159.47096 303.02484 160.10476 301.16296 160.46835 300.78645 C 160.75664 300.33722 161.18003 299.1453 161.4567 298.03 C 162.07111 295.05795 163.8241 293.69476 166.93253 293.6405 C 173.00137 293.53457 177.35467 296.93813 175.41195 300.15544 C 174.3328 301.95107 174.30142 304.3947 175.3479 304.9687 C 175.79583 305.18297 176.11513 306.51 176.13838 307.84217 C 176.16939 309.6184 175.52526 310.8882 173.63329 312.77205 C 170.64925 315.7114 170.5219 316.89816 172.78355 319.22773 C 174.21558 320.6834 174.29863 321.20017 173.59987 323.5814 L 172.83226 326.26 L 175.11883 325.7759 C 179.17518 324.8907 180.65834 320.79303 177.80074 318.25176 C 175.84547 316.5091 175.90785 315.84172 178.44395 312.6881 C 180.8372 309.83306 181.09836 307.82962 179.43267 305.71175 C 176.93478 302.57194 179.10083 299.42476 185.13995 297.6166 C 188.52633 296.52103 189.90927 295.1643 190.95613 291.51842 C 191.16653 290.84845 192.04432 290.24087 192.85843 290.22666 C 193.67254 290.21245 194.645 290.78774 194.87867 291.44995 C 195.18762 292.1849 196.55469 294.1599 197.91788 295.9129 C 199.28106 297.6659 200.4235 299.49677 200.43255 300.01484 C 200.4558 301.34702 198.2678 303.23603 194.52687 305.22618 C 192.03248 306.52828 191.23258 307.3566 191.11298 308.9874 C 190.98563 310.17415 189.7701 312.63845 188.3962 314.51325 C 185.93669 317.81362 185.03657 321.3829 186.94145 320.23916 C 189.94228 318.26193 193.01066 315.91336 193.4418 315.1655 C 193.7288 314.64227 193.99771 313.0829 193.97188 311.6027 C 193.93183 309.30837 194.29284 308.78384 196.49506 307.70894 C 199.3569 306.25236 201.72136 305.989 202.33152 307.0148 C 202.86251 307.74586 200.81957 313.70414 199.51451 315.2816 C 197.268 318.06003 196.30032 322.00065 197.16352 324.79883 C 197.55941 326.27257 197.97726 329.0045 198.00827 330.78073 C 198.0496 333.14906 198.67398 334.98898 200.11635 337.0367 C 202.39479 340.32842 205.71712 344.0461 206.3092 344.03576 C 206.53123 344.0319 206.53548 340.03405 206.3762 335.15067 L 205.92385 326.2006 L 209.03266 321.92647 C 210.76885 319.60115 212.35832 317.35243 212.72191 316.9759 C 213.66338 315.77496 216.08208 318.62 216.65054 321.49737 C 217.14886 324.59805 218.8223 327.16 220.98797 328.23267 C 223.60287 329.59365 223.41222 327.1539 220.42506 321.4315 C 218.9672 318.49563 216.9848 315.19876 216.0773 314.1041 L 214.4895 312.20697 L 216.14392 309.4389 C 217.72564 306.7461 217.78802 306.0787 216.2746 299.9604 C 215.87614 298.33865 216.0177 297.966 217.12785 297.94663 C 217.94196 297.93242 219.5818 298.5701 220.92691 299.28694 C 222.79784 300.4388 223.408 301.4646 224.12835 304.56142 C 225.24588 309.20597 227.97613 312.934 231.48303 314.5015 C 233.4981 315.42874 234.3316 316.5247 235.57 319.61244 C 236.42288 321.81854 237.13935 324.6933 237.1626 326.0255 C 237.18715 327.4317 237.65705 328.90414 238.25688 329.33787 C 239.83435 330.6429 241.7745 327.2776 242.13975 322.7552 C 242.38024 319.5676 242.14788 318.9794 240.03813 316.86928 C 238.758 315.63306 237.2429 313.66063 236.63016 312.4868 C 236.0187 311.38698 234.43994 310.0079 233.24673 309.5105 C 231.16024 308.73257 226.39554 302.96716 226.36583 301.26492 C 226.32836 299.11863 222.2711 295.7099 217.57487 293.86703 C 212.506 291.8826 206.87902 287.61288 206.84673 285.76263 C 206.82347 284.43044 207.8622 284.56038 212.9999 286.2475 C 215.38244 287.02026 217.46506 287.57617 217.6845 287.42427 C 218.4117 286.67125 214.6621 283.92346 211.9848 283.22986 C 210.34883 282.81422 208.18316 281.74153 207.13152 280.8715 L 205.17883 279.27686 L 206.43996 275.18305 C 207.42185 272.05653 208.07114 271.08278 209.1813 271.0634 C 210.29145 271.04402 210.97304 271.9205 211.98943 275.01215 C 213.3135 278.7647 216.57344 283.14977 218.12765 283.12264 C 218.4977 283.11618 219.61948 283.7629 220.66984 284.55892 C 221.7202 285.35494 223.21202 285.9952 223.95212 285.98228 C 225.87638 285.9487 226.80197 288.0795 226.49264 291.56442 C 226.2418 294.15995 226.62478 294.8936 230.10288 299.05274 C 232.75137 302.338 234.17824 303.4976 234.68726 302.9705 C 235.55988 302.06687 234.38901 298.60777 232.03657 295.31736 C 230.367 292.97745 230.1518 289.1315 231.69568 288.5123 C 232.3579 288.27864 233.99258 288.62027 235.4104 289.2618 C 237.57479 290.2605 238.25638 291.137 239.35065 294.44936 C 240.28658 297.17223 241.50433 299.07583 243.1558 300.3796 C 244.50607 301.39248 245.6382 302.63128 245.64594 303.07534 C 245.67177 304.55554 250.78715 309.20435 252.34136 309.1772 C 253.96958 309.1488 254.3891 307.73485 253.18427 306.57136 C 252.20534 305.62602 247.40226 293.42043 246.29378 289.29394 C 245.5007 286.27244 245.56697 285.8271 247.0265 284.6171 C 248.338 283.40967 249.22355 283.24615 252.34102 283.70997 C 261.10006 285.03773 266.99762 283.6022 264.13744 280.9129 C 263.38312 280.11172 260.41884 279.94136 251.09485 280.17815 C 242.21492 280.40718 238.58455 280.24845 237.16544 279.5329 C 236.11896 278.9589 234.10518 278.10566 232.83926 277.68356 C 231.49803 277.18874 230.37625 276.54202 230.37108 276.24598 C 230.36592 275.94994 231.8319 275.11 233.67054 274.4116 C 236.46355 273.25236 237.0453 272.64995 237.66746 270.12197 C 238.22337 268.03935 238.87396 267.1396 240.19969 266.7463 C 242.0422 266.26994 244.30033 264.1576 242.89414 264.18216 C 242.45008 264.1899 241.6321 263.9821 240.96212 263.77168 C 240.21685 263.48856 238.10027 265.22826 234.75652 268.76616 C 228.06773 275.76796 226.73554 275.7912 223.0629 268.97028 C 221.68422 266.32916 220.60157 263.68288 220.73926 263.08822 C 220.8666 261.90147 228.76374 260.50507 243.39837 259.13913 C 248.3493 258.6085 252.62768 257.71948 255.20125 256.71213 C 257.40605 255.78525 260.27953 254.99477 261.6117 254.9715 C 265.0902 254.9108 266.116 254.30063 266.9576 251.62076 C 267.3044 250.28212 268.68218 248.62935 269.85343 247.86858 C 271.09868 247.1065 272.84392 245.29927 273.7802 243.80227 C 274.7165 242.30527 276.52284 239.75663 277.7526 238.10644 C 278.98364 236.53027 280.12388 233.99325 280.39408 232.50788 C 280.6643 231.0225 281.4306 228.26992 282.1384 226.40675 C 283.9761 221.41448 282.81633 210.10772 279.9019 204.31 C 275.99043 196.5308 271.1569 191.06273 265.55316 188.1252 C 259.87413 185.11495 256.44512 183.76818 253.62627 183.44722 C 251.92016 183.2549 249.91155 182.6977 249.0884 182.19384 C 248.18994 181.61726 244.18435 181.16895 238.92575 181.03864 C 234.18652 180.9733 229.66285 180.53403 228.841 180.10418 C 228.09443 179.74705 225.78978 179.19502 223.71233 178.93515 C 215.55312 178.0411 217.0647 175.57164 226.37577 174.59476 C 232.58359 173.96817 233.5483 174.0994 241.1361 176.18793 C 244.85598 177.2335 248.0436 177.47398 255.73935 177.26562 C 265.06334 177.02884 265.58012 176.94579 267.0306 175.21771 C 267.90194 174.24008 268.54736 173.0443 268.53832 172.52622 C 268.50473 170.60195 272.9474 162.15871 274.63024 161.01884 C 277.11817 159.3467 282.8273 159.8393 289.4581 162.24068 C 293.4818 163.72513 295.48652 164.0603 298.36905 163.78789 C 302.0631 163.35325 308.30745 160.57907 308.2855 159.3209 C 308.28032 159.02486 309.5828 157.29937 311.1826 155.64273 C 313.8719 152.78254 314.08487 152.2606 314.019 148.48608 C 313.97248 145.82171 313.0899 141.91338 311.53477 137.64663 C 309.1982 131.02447 309.1956 130.87645 310.4021 127.89408 C 312.67097 122.15396 313.1047 121.55412 318.778 115.75457 L 324.45004 109.88102 L 324.02186 106.55702 C 323.27438 101.906 322.28383 100.29457 318.7653 98.06098 C 317.0437 96.98054 315.46622 95.67548 315.16243 95.23659 C 314.40166 94.06534 311.06087 93.5314 304.17534 93.50352 C 298.91803 93.44722 298.62328 93.5264 297.17925 95.62452 C 296.3858 96.82289 294.573 99.00148 293.11736 100.43351 C 291.6617 101.86554 290.0774 104.41031 289.58646 105.97357 C 288.53573 109.39741 283.8155 114.6621 281.81722 114.69698 C 280.04098 114.72798 278.91403 113.78523 275.28532 109.48063 C 273.62093 107.43677 271.66824 105.84213 270.4789 105.56676 C 265.7982 104.61201 265.9488 104.75744 266.32697 100.97517 C 266.5791 98.45366 266.32993 96.90332 265.49385 95.65936 C 264.88498 94.70756 264.10612 92.50018 263.78037 90.80311 C 263.2911 88.2205 263.49633 87.2545 265.01566 85.22909 C 267.4713 81.70669 267.8181 80.36805 266.58613 77.65034 C 265.35287 74.858625 260.23233 69.91378 258.5301 69.94349 C 257.864 69.95512 254.77238 70.97151 251.5353 72.1385 L 245.72597 74.38685 L 244.3168 78.48325 C 241.2154 87.42131 238.72746 89.09346 232.82899 86.23511 C 229.61813 84.66243 228.5041 84.45978 225.2554 84.96068 C 219.57083 85.87427 218.3983 86.56103 217.48783 89.53823 C 216.71765 92.06879 216.83429 94.50983 218.04004 99.96721 C 218.36191 101.44224 218.306 102.47968 217.72037 102.86006 C 216.47511 103.62213 206.4269 100.54008 204.91698 98.86368 C 203.03056 96.82369 203.19575 93.56337 205.4061 88.71266 C 206.68918 85.87702 207.31006 83.27504 207.26355 80.61067 C 207.27039 76.76085 207.19508 76.68813 202.75743 72.69379 L 198.24577 68.70074 L 192.40672 69.24686 C 188.1946 69.69055 185.8366 70.32397 183.93301 71.54172 C 178.88315 74.887305 179.01696 74.07061 181.11654 88.32228 C 182.03659 94.3769 182.04175 94.67294 180.5095 95.95824 C 179.1954 97.01764 177.79309 97.26421 173.20187 97.19629 C 167.94457 97.13999 167.20705 97.30093 164.50097 99.19898 C 162.89341 100.41157 161.00532 102.51744 160.4365 103.85996 C 159.4391 106.09835 159.44686 106.54241 160.52692 109.04067 C 162.14831 112.86207 160.9732 113.40081 155.97575 111.26706 C 153.66335 110.27096 150.09665 109.51886 147.4297 109.41735 C 144.02136 109.25474 142.60871 108.90924 141.85052 107.88601 C 140.10953 105.69542 140.59789 103.98414 143.92485 99.48411 C 147.68424 94.31023 148.2479 92.67167 147.58347 88.53743 C 147.09032 85.7328 146.56192 85.14976 142.81878 82.77202 C 140.57263 81.33057 138.18364 80.18775 137.59156 80.19808 C 135.29724 80.23813 130.29555 82.10222 128.17768 83.76791 C 127.00902 84.6767 124.2939 86.05668 122.16052 86.83425 C 116.86408 88.77751 116.03705 88.05162 115.91045 80.79862 C 115.78514 73.61964 114.56222 71.42 109.5622 69.13823 C 105.16072 67.216175 101.9757 67.123704 93.49166 68.82648 Z" fill="#cccccc"/>
        </g>
        <g id="Graphic_111">
          <path d="M 107.99857 72.86716 C 111.35357 74.21522 112.12339 75.904535 112.00729 81.97725 C 111.93807 86.49445 112.1756 87.3787 113.68423 88.98108 C 114.58915 89.92771 116.60809 91.077 118.17135 91.56794 C 121.29786 92.54982 123.06377 91.92674 130.09124 87.36211 C 132.287 85.91716 134.85668 84.68778 135.7448 84.67228 C 136.63293 84.65678 138.57786 85.80735 140.08261 87.18771 C 143.39719 90.46132 143.75782 94.15667 141.01132 97.98028 C 140.07373 99.40326 138.69984 101.27806 138.05054 102.25182 C 136.96752 103.82541 136.97268 104.12145 138.1358 107.13649 C 138.83419 108.97512 139.97664 110.806 140.57776 111.31373 C 141.1776 111.74746 144.44567 112.35671 147.8553 112.59333 C 154.9719 113.1354 157.65694 114.27306 160.45862 117.85176 C 162.19961 120.04235 162.51503 121.14733 162.58996 125.43992 C 162.6791 130.54663 163.55263 133.93688 166.48904 140.99277 C 169.57863 148.34211 168.4646 148.13946 159.06347 139.71576 C 157.85864 138.55227 156.40982 136.13448 155.6232 133.48303 C 154.686 130.68615 154.14984 129.65905 153.9446 130.62505 C 153.33406 133.81912 152.29146 133.46715 146.41661 127.72111 C 143.10461 124.59552 137.99958 120.5388 135.1549 118.73763 C 128.94358 114.92231 128.63333 114.11337 129.11469 103.51829 C 129.34484 99.7386 129.29058 96.63017 129.14256 96.63276 C 128.18043 96.64955 126.34918 102.01187 126.04114 105.57082 C 125.7331 109.12977 125.4461 109.65301 124.18405 109.45294 C 121.65995 109.0528 120.55109 109.14619 119.22795 109.68751 C 118.34758 110.14708 116.32218 108.62774 111.50543 104.12179 C 107.89223 100.70532 103.76224 97.3719 102.41714 96.65506 C 100.99803 95.9395 99.87237 95.07076 99.8672 94.77471 C 99.86075 94.40466 99.48682 94.18909 99.11677 94.19555 C 97.04448 94.23172 104.13967 102.02938 111.49601 107.82359 C 114.27315 109.9961 114.5989 111.69316 112.30458 111.73321 C 111.63849 111.74484 110.66861 111.31757 110.1415 110.80854 C 107.58769 108.70617 106.76324 108.1283 106.02314 108.14122 C 104.83897 108.16189 108.39367 112.46777 109.95693 112.95871 C 111.5942 113.44836 111.77451 115.29603 110.23063 115.91524 C 108.61404 116.60976 108.84898 117.34598 111.40667 119.67039 C 112.68422 120.75858 113.67348 122.296 113.68511 122.96209 C 113.7174 124.81234 113.04873 124.67595 110.56505 122.35025 C 108.30729 120.24272 106.68423 120.56718 108.72126 122.7526 C 110.22859 124.28098 110.41666 126.57271 109.15849 126.59467 C 106.42011 126.64247 103.35506 120.69932 105.7066 119.69585 C 106.36881 119.46219 106.28834 119.09343 105.3873 118.36883 C 104.56156 117.71695 104.00474 115.50569 103.56492 111.5156 C 103.02785 106.19462 102.71889 105.45968 100.76491 103.79104 C 99.48865 102.77686 98.50585 101.60949 98.4981 101.16543 C 98.49035 100.72137 97.3479 98.89049 95.98471 97.1375 C 93.56342 94.14442 92.42227 92.38755 89.21307 86.66902 C 87.53188 83.66302 87.26372 76.78266 88.80631 76.08944 C 89.46852 75.85578 90.43712 76.20904 91.11742 77.01152 C 92.1028 78.32691 92.17552 78.25161 91.70046 76.48312 C 90.98011 73.38632 93.47449 72.08422 100.0614 71.969246 C 103.0218 71.91757 106.58204 72.29962 107.99857 72.86716 Z" fill="#ff0000"/>
        </g>
        <g id="Graphic_110">
          <path d="M 199.72135 76.89262 C 203.78766 80.81941 203.95376 81.85297 201.93278 89.06942 C 200.32873 94.7239 200.35973 96.50015 202.12397 100.02292 C 203.58184 102.95879 204.25827 103.53924 206.93426 104.15883 C 211.76688 105.33303 216.60984 107.09931 217.21742 107.9771 C 218.81169 110.24429 217.82463 113.07476 213.83159 117.58642 C 211.5799 120.0688 209.26583 123.21857 208.697 124.56109 C 207.69833 126.72547 207.70866 127.31755 208.87824 130.70264 C 210.43854 135.26544 210.4747 137.33772 209.0604 141.13808 C 207.4318 145.38637 205.8724 145.11746 205.79232 140.52883 C 205.72126 136.45827 204.65928 134.99615 203.96956 137.89546 C 203.48896 140.0508 202.67872 140.28704 201.31812 138.68207 C 199.8069 136.93167 201.157 125.21093 203.56484 118.95015 C 204.27135 117.01297 201.67195 116.54011 200.07474 118.34478 C 199.34884 119.17181 198.25032 119.85728 197.73225 119.86632 C 197.21418 119.87536 196.04422 120.71014 195.10018 121.76308 C 194.15613 122.81602 192.98489 123.57679 192.61225 123.43523 C 192.0916 123.29625 191.73484 119.82294 191.56523 114.34748 C 191.2144 102.73046 191.21051 102.50843 190.3379 103.41206 C 189.9743 103.78857 189.61034 108.38495 189.55145 113.49424 C 189.49386 118.67753 189.27533 123.12331 189.05718 123.34922 C 188.84032 123.64913 187.04599 122.644 185.09718 121.27139 C 180.37123 117.72628 179.26625 118.0417 183.03264 121.75162 C 187.70524 126.48219 188.32833 128.2481 188.78456 137.4202 C 189.20979 144.81604 189.07468 145.55873 187.82039 145.80272 C 187.08287 145.96366 185.44043 145.17797 184.08758 144.01706 C 181.9064 142.05625 177.64649 139.76156 177.6607 140.57567 C 177.66457 140.7977 179.09144 141.95732 180.88964 143.18449 C 182.61384 144.41295 185.32213 146.88279 186.90864 148.70591 L 189.70515 151.98857 L 189.86921 161.38786 C 189.95835 166.49457 189.7437 171.16237 189.38269 171.6869 C 188.44768 173.25791 187.07675 171.06086 186.25913 166.63317 C 185.1119 160.28638 182.13377 155.08204 176.33164 149.2607 C 171.05662 143.94838 170.36857 142.70184 169.9989 138.48843 C 169.81858 136.64075 170.32502 135.96562 173.47258 133.9118 C 175.52161 132.54344 177.56806 131.02707 178.07709 130.49995 C 180.2638 128.53693 176.1497 121.87176 171.21852 119.29266 C 168.00508 117.57197 162.32771 110.41586 162.28379 107.89951 C 162.24503 105.67921 165.94592 101.39474 168.52465 100.68344 C 169.55562 100.36931 171.26173 100.56163 172.23161 100.9889 C 175.21527 102.2694 181.723 101.85968 183.62014 100.27188 C 185.37054 98.76067 185.37313 98.90869 184.86264 86.62817 C 184.58543 79.22973 184.70762 77.74695 185.86336 76.09805 C 187.45412 73.92334 188.26306 73.61309 192.7011 73.387555 C 195.6602 73.26187 196.25746 73.54758 199.72135 76.89262 Z" fill="#ff0000"/>
        </g>
        <g id="Graphic_109">
          <path d="M 257.9463 78.91164 C 260.4167 84.71711 260.07506 86.35179 257.05265 82.85097 C 254.70795 80.004625 252.79698 76.55844 253.22812 75.81059 C 253.445 75.51067 254.17992 75.201715 254.92002 75.1888 C 255.88215 75.172 256.79095 76.34066 257.9463 78.91164 Z" fill="#ff0000"/>
        </g>
        <g id="Graphic_108">
          <path d="M 262.4338 77.27862 C 264.24105 79.02386 264.4175 80.6495 262.7256 81.2713 C 261.18172 81.89051 260.4287 81.16333 259.5629 78.21713 C 258.6997 75.41895 260.02414 74.95164 262.4338 77.27862 Z" fill="#ff0000"/>
        </g>
        <g id="Graphic_107">
          <path d="M 250.9089 78.66432 C 252.54745 79.22798 255.3672 83.84282 254.9451 85.10874 C 254.6607 85.78 253.92447 86.01495 252.88445 85.81101 C 251.4718 85.4655 251.32636 85.61611 251.80014 87.31059 C 252.35696 89.52185 251.0855 93.02358 249.6793 93.04813 C 249.16123 93.05717 248.5158 94.25296 248.2443 95.66432 C 247.77662 98.55976 247.77662 98.55976 245.68496 97.48578 C 244.26585 96.77022 244.19442 96.91954 244.75513 99.35283 C 245.56628 103.41047 243.7044 102.77667 239.61742 97.66572 C 235.68363 92.84823 235.2955 91.81854 237.5158 91.77979 C 238.3299 91.76558 239.65047 91.07623 240.45037 90.24791 C 241.25027 89.41959 242.4228 88.73283 243.0149 88.72249 C 243.755 88.70957 244.11212 87.96301 244.08757 86.55682 C 244.06174 85.07662 244.92144 83.43289 246.80953 81.32702 C 249.93125 77.79299 249.49365 78.17079 250.9089 78.66432 Z" fill="#ff0000"/>
        </g>
        <g id="Graphic_106">
          <path d="M 259.86816 91.46366 C 262.9022 95.63056 263.99906 99.09096 263.22887 101.62151 C 262.5301 104.00276 261.48493 103.50277 259.944 100.05013 C 259.1742 98.36081 257.79163 95.49767 256.8712 93.66292 C 255.10697 90.14014 254.6775 86.74213 256.09143 87.16165 C 256.61338 87.37464 258.2752 89.27048 259.86816 91.46366 Z" fill="#ff0000"/>
        </g>
        <g id="Graphic_105">
          <path d="M 232.53645 90.68218 C 233.51537 91.62752 234.73054 93.38309 235.3433 94.55692 C 235.95475 95.65674 237.3984 97.77849 238.5331 99.1653 C 241.78789 103.25432 242.42 105.5383 240.8202 107.19495 C 240.0203 108.02327 239.30088 109.22035 239.16707 110.03705 C 239.03197 110.77973 238.22948 111.46003 237.26993 111.62485 C 236.23637 111.79096 235.65463 112.39337 235.6727 113.42951 C 235.68692 114.24363 235.10905 115.06807 234.2248 115.3056 C 233.19383 115.61973 232.7627 116.36759 232.78852 117.84779 C 232.8389 120.73419 231.2821 120.6133 229.4529 117.60988 C 228.00666 115.34011 227.93265 115.3414 227.73904 116.9735 C 227.6078 117.93822 227.93486 119.7093 228.4736 120.88442 C 228.93833 122.06083 229.1083 123.31642 228.81744 123.61762 C 228.52656 123.91883 228.07863 123.70455 227.84626 123.11635 C 227.22447 121.42445 223.23217 117.49637 223.17754 118.60781 C 223.18658 119.12588 224.03686 121.18396 225.03258 123.09143 C 226.94743 126.75964 226.69015 128.98511 224.5219 127.7644 C 223.92335 127.40469 222.26154 125.50884 220.96848 123.53253 C 218.99254 120.60571 218.67842 119.57474 219.24337 118.01019 C 219.59534 116.96759 220.39653 116.21327 221.13663 116.20036 C 222.02604 116.25886 222.38705 115.73433 222.3625 114.32814 C 222.34442 113.292 222.6172 111.95465 222.97822 111.43012 C 223.33793 110.83158 223.0862 109.13322 222.3878 107.29459 C 221.0715 103.98609 221.47163 101.462 223.11148 102.09967 C 223.63214 102.23864 224.5448 103.62933 225.08742 105.02649 C 225.63004 106.42364 226.5427 107.81433 227.13866 108.02602 C 227.73462 108.23772 228.71871 109.4791 229.40935 110.87366 C 230.1 112.26823 230.93348 113.36417 231.30353 113.35771 C 231.67358 113.35125 231.28415 112.24756 230.44679 110.92959 C 229.6107 109.68563 228.4631 107.55871 227.85034 106.38488 C 227.3103 105.13575 225.56803 102.87115 223.9854 101.27005 C 222.47806 99.74168 220.89026 97.84454 220.5073 97.1109 C 218.9793 94.39836 221.50893 90.87466 225.78343 89.7636 C 229.8372 88.73041 230.80192 88.86164 232.53645 90.68218 Z" fill="#ff0000"/>
        </g>
        <g id="Graphic_104">
          <path d="M 256.50078 97.88925 C 260.0267 104.78678 259.16144 110.35434 255.6433 103.90087 C 254.65015 102.14142 253.42724 99.94178 252.81707 98.91598 C 251.67333 97.01109 251.25677 94.35318 252.05667 93.52486 C 253.002 92.54593 254.50805 94.0003 256.50078 97.88925 Z" fill="#ff0000"/>
        </g>
        <g id="Graphic_103">
          <path d="M 312.8587 98.97844 C 316.5162 100.69138 318.561 103.32087 318.99304 106.8669 C 319.41735 109.96886 319.3472 110.19219 315.91783 113.06529 C 308.0397 119.79171 307.17354 121.06539 306.33026 127.89112 C 305.67542 132.78871 305.709 134.71297 306.49174 137.14239 C 307.27577 139.64582 307.2887 140.38592 306.34464 141.43886 C 305.76548 142.1893 304.75646 143.7616 304.03574 144.88466 C 302.81374 146.97891 302.81374 146.97891 304.28102 146.21297 C 305.0874 145.7547 305.9626 144.9991 306.17816 144.62517 C 306.969 143.27878 308.7543 143.76584 308.78273 145.39407 C 308.8189 147.46635 307.52676 149.78392 306.2686 149.80588 C 305.7505 149.81493 304.1391 150.80548 302.82887 152.0869 C 301.51735 153.29432 299.9072 154.35888 299.31513 154.36922 C 298.64904 154.38085 297.8401 154.6911 297.4765 155.0676 C 297.0389 155.4454 295.49373 155.9906 293.8694 156.24106 C 291.73084 156.72259 291.13618 156.5849 291.3453 155.84092 C 291.55828 155.31898 292.28804 154.71398 293.09957 154.55175 C 293.83838 154.46482 295.52382 153.47297 296.8392 152.48759 C 298.0806 151.5035 299.47257 150.66483 299.91663 150.65708 C 300.3607 150.64933 300.7243 150.27282 300.71783 149.90277 C 300.70232 149.01465 299.7389 148.95743 298.86628 149.86106 C 297.84564 150.76727 288.58366 154.55654 287.17746 154.58108 C 285.3272 154.61338 285.7519 153.49548 288.02554 152.27127 C 294.26085 148.97902 306.37085 138.69919 303.9285 138.74182 C 303.7805 138.7444 302.61313 139.7272 301.2276 140.93591 C 299.91738 142.21734 297.5009 143.74017 295.957 144.35939 C 293.45745 145.36544 293.0874 145.3719 292.69926 144.34222 C 292.389 143.53327 293.10974 142.4102 294.85885 140.82498 C 296.3171 139.54097 297.5533 138.26084 297.54685 137.89079 C 297.52618 136.70662 295.17077 137.48807 293.64627 139.21743 C 292.70093 140.19635 290.79475 141.26609 289.2457 141.58925 C 286.22162 142.2343 285.9204 141.94343 287.66566 140.13618 C 289.0486 138.77945 288.43714 137.67963 287.0516 138.88834 C 285.6648 140.02304 281.82144 140.38626 281.5086 139.4293 C 281.35283 138.98781 282.8046 137.33375 284.70046 135.67194 C 289.88154 131.36164 296.5626 123.91578 296.53933 122.5836 C 296.50574 120.65933 295.61116 120.30479 294.22693 121.5875 C 292.69726 123.02083 290.61593 122.53893 290.58622 120.8367 C 290.5604 119.35649 293.346 113.53331 294.44454 112.84784 C 294.88344 112.54405 294.9497 112.0987 294.6485 111.80783 C 293.97077 111.15336 291.2023 113.7188 291.22427 114.97697 C 291.2527 116.6052 288.30574 125.91072 287.1526 127.70764 C 286.5773 128.6801 285.62808 129.437 285.11 129.44604 C 284.51793 129.45638 284.07904 129.76017 284.0842 130.05621 C 284.09066 130.42626 282.0455 132.01665 279.55758 133.6888 C 270.994 139.3167 270.4785 139.47376 269.47245 136.9742 C 268.85324 135.43033 268.78052 135.50563 267.64028 138.04264 C 266.3572 140.87828 264.5418 142.90886 263.9381 142.2531 C 263.7122 142.03494 264.04478 139.88219 264.66954 137.50224 C 266.12557 131.85034 266.57388 127.84474 265.87937 126.22815 C 265.4211 125.42178 264.999 126.68771 264.3975 130.39984 C 263.9311 133.3693 262.38943 138.3564 260.89077 141.56596 L 258.25315 147.38656 L 252.29967 149.85952 C 248.99117 151.17583 245.38793 152.57131 244.13363 152.8153 C 242.95463 153.13201 240.968 153.83299 239.79416 154.44574 C 238.03342 155.36486 237.36862 155.4505 235.9482 154.66093 C 234.3798 153.87395 233.93702 153.95571 232.63067 155.45917 C 230.814 157.41573 229.32993 157.21954 229.5872 154.99406 C 229.8445 152.76859 229.255 152.92695 226.78904 155.85727 C 225.41126 157.51003 223.5804 158.65248 221.00166 159.36379 C 215.62346 160.86429 208.16227 166.02875 205.71568 170.06922 C 202.19124 175.97933 201.44301 179.76806 202.06535 189.9737 C 202.28442 194.04168 203.83476 193.79252 204.57653 189.63374 C 205.52224 184.43495 206.45725 182.86394 208.89054 182.30324 C 214.79068 181.01573 216.8875 182.38575 213.60744 185.33028 C 211.56616 187.1427 211.56745 187.2167 212.91643 188.15558 C 213.74087 188.73345 214.8562 189.01012 215.5184 188.77646 C 216.10532 188.47008 220.32132 188.24843 224.90995 188.16833 C 230.60873 188.06886 234.00803 187.7134 235.84537 186.941 C 237.6074 186.09588 239.6031 185.91298 242.49466 186.15864 C 246.8703 186.6005 247.84277 187.17578 246.38453 188.45979 C 245.3639 189.366 228.94396 190.24487 227.67287 189.52673 C 227.22364 189.23844 226.19138 189.47855 225.4616 190.08355 C 224.5851 190.76515 222.14924 191.17783 218.59804 191.31385 C 215.56362 191.36682 213.3472 191.6276 213.6484 191.91847 C 214.40142 192.64566 216.69832 192.75363 229.0619 192.75992 C 238.61308 192.8153 240.98787 193.14402 239.75166 194.42415 C 239.46208 194.79937 232.5103 195.21684 224.29645 195.43425 C 215.4178 195.7373 209.1334 196.21715 208.6971 196.66896 C 207.96991 197.42198 208.26595 197.41681 216.78358 197.6383 C 218.4131 197.6839 222.11877 197.91534 224.93633 198.1623 C 227.8266 198.33394 233.9006 198.52405 238.48923 198.44395 C 243.07916 198.43787 246.70824 198.52259 246.6368 198.6719 C 245.90834 199.3509 226.99532 201.6059 221.29654 201.70536 C 210.48976 201.81996 211.6946 202.98345 222.95447 203.37917 C 235.02847 203.76068 246.63773 202.96578 251.1265 201.40677 C 252.8184 200.78498 255.327 200.297 256.6592 200.27374 L 259.0288 200.30641 L 257.19664 201.37485 C 256.17083 201.98502 254.55036 202.4575 253.58952 202.5483 C 251.81327 202.5793 247.98025 203.5346 243.34344 205.0962 C 241.9437 205.4908 234.62575 206.13676 227.0793 206.41655 C 219.45883 206.69763 212.2876 207.267 211.03588 207.65901 L 208.8259 208.28985 L 210.90853 208.84576 C 215.14648 209.88228 243.0212 207.84104 251.94413 205.83447 C 256.2212 204.87142 254.47597 206.67867 250.12746 207.79103 C 247.76818 208.35044 244.00916 209.30444 241.7992 209.93528 C 236.495 211.4345 227.1151 212.7087 217.27949 213.32458 C 212.84275 213.62413 209.29801 214.1302 209.30447 214.50025 C 209.31998 215.38837 212.94518 215.25106 228.54066 213.79431 C 235.6353 213.07821 241.69897 212.67624 242.0729 212.89181 C 244.53978 214.25538 238.6448 215.83893 224.31137 217.49574 C 218.5489 218.18859 213.52397 218.7205 213.22793 218.72566 C 212.9306 218.65682 210.7843 218.69428 208.41727 218.80963 C 205.31013 218.9379 204.20515 219.25332 204.43751 219.84152 C 205.14236 222.0502 239.88064 218.77866 254.9193 215.11066 C 256.7618 214.6343 259.26393 213.77627 260.43775 213.16352 C 261.53628 212.47805 263.74367 211.6992 265.2927 211.37602 C 266.84176 211.05285 268.0883 210.3648 268.00525 209.84802 C 267.9222 209.33124 267.82106 207.77832 267.7965 206.37212 C 267.60586 203.93237 267.45526 203.78693 264.8649 203.83215 L 262.20054 203.87866 L 263.72504 202.1493 C 264.59637 201.17166 265.32096 200.27062 265.3171 200.04859 C 265.3145 199.90057 263.90702 199.8511 262.20737 200.02883 L 259.0301 200.38042 L 260.70133 198.57447 C 263.09716 195.86747 262.78303 194.8365 259.68494 195.48283 C 256.8816 196.05 256.6544 195.75783 257.7998 193.51686 C 258.73222 191.79783 262.0588 191.51766 262.7546 193.20827 C 262.98698 193.79648 263.9646 194.6678 265.0072 195.01977 C 265.9758 195.37303 267.10533 196.4638 267.49347 197.49349 C 267.8816 198.52317 268.5619 199.32565 268.93196 199.3192 C 270.26414 199.29594 272.9643 205.5416 272.71348 208.13711 C 272.5315 210.4353 271.95104 211.11173 269.23075 212.19567 C 268.64255 212.42804 267.61545 212.9642 267.02983 213.34458 C 263.73425 215.401 259.4662 216.8821 254.89178 217.77632 C 252.08715 218.26947 247.06996 219.24544 243.82514 219.96837 C 237.4095 221.41294 225.88717 222.94666 216.3502 223.70539 C 212.50554 223.9946 210.367 224.47612 210.67079 224.915 C 211.35626 226.01354 238.35188 224.50587 244.24945 223.07034 C 262.82896 218.67423 267.0996 217.34113 269.06556 215.456 C 270.59394 213.94866 272.95968 213.7593 273.13225 215.16291 C 273.14388 215.829 267.06304 219.48872 264.33887 220.35063 C 256.3144 222.93378 251.08163 224.28367 246.132 224.8883 C 242.882 225.3152 237.93495 226.06783 235.0563 226.56228 C 225.09077 228.21688 213.55552 229.0105 204.44193 228.5773 C 197.1799 228.18584 195.03489 228.2973 194.309 229.12434 C 192.99877 230.40577 186.87918 231.84518 182.21654 231.92656 C 180.21827 231.96144 178.37318 232.28978 178.1589 232.73772 C 177.58232 233.63617 178.2497 233.69856 185.2768 233.3538 C 188.38393 233.22553 191.64555 233.46473 192.4674 233.89458 C 193.81251 234.61143 194.17998 234.45695 194.89554 233.03784 C 195.39681 232.06666 196.12012 231.0916 196.55901 230.78782 C 197.72897 229.95304 205.79866 229.96025 209.58868 230.78248 C 213.75134 231.74628 227.81198 231.42682 231.5697 230.3988 C 233.11746 230.00162 237.6906 229.0334 241.74952 228.29626 C 245.80845 227.55912 252.2994 226.18727 256.1337 225.30598 C 264.7593 223.23057 269.4129 222.6311 269.4284 223.51923 C 269.44262 224.33334 266.2146 226.0184 264.66038 226.04554 C 264.0683 226.05587 261.6363 226.69058 259.3562 227.54474 C 255.3816 228.87268 245.19662 230.67918 238.0994 231.24725 C 217.54782 232.93857 204.91791 234.63968 207.44589 235.26185 C 208.4872 235.5398 215.81808 235.63394 223.81247 235.56843 C 235.6554 235.43575 239.49875 235.07253 245.17687 233.7889 C 248.93717 232.9089 253.07012 232.17046 254.3283 232.1485 C 257.2887 232.09683 266.85576 228.82046 268.53216 227.31054 C 270.3553 225.72403 272.2692 225.09836 272.8768 225.97615 C 273.48697 227.00196 270.36266 230.38797 268.80845 230.4151 C 268.14236 230.42672 267.3334 230.73697 266.96982 231.11348 C 266.0959 231.9431 256.7328 234.17945 249.49658 235.26818 C 227.2725 238.69145 218.77553 239.65412 212.99498 239.31082 C 210.1047 239.13918 207.2949 239.3363 206.782 239.64137 C 205.24458 240.63063 211.03934 241.78804 219.2648 242.23673 C 226.45283 242.6295 228.3186 243.4853 224.41414 244.58992 C 221.68868 245.37782 199.84405 245.09283 196.86943 244.3304 C 195.6788 243.981 192.85738 243.51203 190.6319 243.25474 C 187.295 242.94283 186.77821 243.02588 187.45851 243.82836 C 188.29071 244.8503 192.30406 245.74267 202.24855 247.12377 C 206.62807 247.78766 215.44303 248.078 228.02993 248.1544 C 229.14008 248.13504 229.21796 248.35577 228.5635 249.0335 C 228.05447 249.5606 226.06395 250.03955 224.13968 250.07314 C 222.2167 250.18073 218.59796 250.6881 216.16596 251.3228 C 212.47966 252.2015 210.5554 252.2351 206.54722 251.63877 C 203.72709 251.2438 196.08208 250.1187 189.5511 249.19623 C 183.01882 248.19976 177.37855 247.40982 176.9332 247.34356 C 176.56185 247.276 176.04765 247.50708 175.90739 247.95372 C 175.69698 248.6237 178.60276 249.68346 187.75251 252.18893 C 189.6131 252.74872 193.54727 253.34634 196.51155 253.5167 C 199.40312 253.76235 201.8532 254.16378 201.85966 254.53383 C 201.87387 255.34795 192.85497 256.09763 186.33432 255.76726 C 182.48062 255.5384 180.48493 255.7213 180.12522 256.31983 C 179.83693 256.76906 177.62308 257.17787 175.03272 257.22308 C 171.55554 257.3578 170.744 257.52004 171.79049 258.09404 C 172.53834 258.52518 178.76036 258.7127 187.34425 258.48884 C 195.11403 258.27918 202.145 258.15646 202.9591 258.14225 C 204.58733 258.11383 205.33777 258.693 204.6846 259.44472 C 203.8834 260.19903 192.204 261.21725 190.49143 260.6549 C 189.67215 260.37306 188.19324 260.4729 187.23628 260.78574 C 186.20789 261.24788 183.09817 261.22813 179.53793 260.84608 C 176.201 260.53416 171.08785 260.25325 168.20145 260.30363 C 165.31506 260.354 161.97943 260.1161 160.7888 259.76673 C 159.59819 259.41734 156.10162 258.44192 153.0517 257.60676 C 150.00178 256.7716 146.42862 255.64945 145.0861 255.08062 C 143.8176 254.5105 142.55168 254.0884 142.32964 254.09228 C 142.0336 254.09745 139.86018 252.5807 137.38296 250.62505 C 134.98105 248.74213 132.1312 246.64492 131.08214 245.9229 C 130.03308 245.2009 129.12816 244.25426 129.11912 243.7362 C 129.11008 243.21812 128.35706 242.49094 127.46247 242.1364 C 126.49259 241.70912 125.66168 240.7612 125.49945 239.94967 C 125.33722 239.13814 124.19994 237.6033 122.9964 236.51382 C 119.01056 232.9558 116.51434 225.67013 118.31421 222.75143 C 118.81808 221.92828 119.26084 221.84652 120.08658 222.4984 C 121.81336 223.87488 140.73117 226.1358 142.26859 225.14655 C 143.36712 224.46108 141.06247 223.90905 135.05989 223.56963 C 127.05517 223.04305 123.19501 222.44414 121.77202 221.50655 C 121.02159 220.9274 119.90756 220.72474 119.39336 220.9558 C 118.80516 221.18818 118.35593 220.89989 118.34301 220.15978 C 118.33138 219.4937 118.76253 218.74584 119.35073 218.51347 C 119.93894 218.2811 120.22335 217.60985 119.99099 217.02164 C 119.75733 216.35943 120.1846 215.38955 121.1364 214.78067 C 122.23234 213.94718 122.65702 212.82928 122.62472 210.97902 C 122.55884 207.2045 126.43266 200.10378 129.79708 197.75004 C 133.23551 195.395 143.43896 190.40477 144.91916 190.37894 C 145.51124 190.3686 145.96305 190.80491 145.97339 191.397 C 145.98889 192.28512 148.06505 192.47097 156.58139 192.61845 C 162.35806 192.73972 168.35934 193.00513 169.91872 193.27404 C 171.62742 193.61438 172.66097 193.44827 172.65322 193.00421 C 172.62739 191.524 167.6545 190.79645 157.58653 190.82412 C 151.96046 190.8483 147.21864 190.63493 147.06546 190.34147 C 146.37999 189.24295 148.7186 187.49937 154.52019 184.80696 C 159.73357 182.34691 160.83985 182.1055 162.62772 182.7406 C 163.89493 183.2367 166.85663 183.25904 170.32994 182.90228 C 174.98613 182.45084 176.17287 182.5782 177.2258 183.52224 C 177.90353 184.1767 178.4384 185.1298 178.44614 185.57386 C 178.45519 186.09193 178.76544 186.90087 179.14582 187.4865 C 180.51418 189.53553 182.1712 186.91546 182.10015 182.8449 C 181.98388 176.18398 175.61846 167.78133 168.23332 164.57876 C 163.60852 162.58657 155.13519 160.66156 151.35938 160.65343 C 149.50912 160.68573 146.0216 160.22837 143.56764 159.60491 C 141.11497 159.05546 137.47167 158.15663 135.39164 157.74874 C 130.63561 156.72127 129.81116 156.1434 127.673 152.40505 C 126.14499 149.69251 125.89583 148.14217 125.70555 141.48255 C 125.55662 137.19125 125.27387 133.71665 124.97783 133.72182 C 124.68179 133.72698 123.89093 135.07338 123.25197 136.63922 C 121.90907 140.29026 122.53308 146.35005 124.59336 149.86766 C 126.27197 152.72564 126.4497 154.42529 125.11752 154.44854 C 124.52544 154.45888 120.94582 152.96667 117.06241 151.03557 C 113.18029 149.17848 107.58173 146.537 104.52277 145.18377 C 99.37473 142.90458 98.92291 142.46827 97.1535 138.64946 C 94.69475 133.51008 93.171 126.7997 92.59646 119.33242 C 92.20224 113.71282 91.2689 111.13797 90.03269 112.4181 C 88.8692 113.62293 90.01956 128.6315 91.58245 133.34231 C 92.75719 137.02344 92.84929 138.05829 92.12081 138.7373 C 90.88073 139.7954 89.09156 139.0863 80.04203 133.83988 C 75.85353 131.39588 72.118144 129.4622 71.74809 129.46865 C 71.37804 129.47511 69.73432 128.61541 68.16202 127.6064 C 66.588425 126.52337 63.746326 124.87023 61.877986 123.86638 C 49.55004 117.41862 46.15628 113.85026 52.600334 114.03391 C 55.859366 114.12509 61.976 116.75753 68.4158 120.93902 C 72.98339 123.89464 74.83752 124.08437 78.797895 121.94233 C 82.17265 120.18067 82.94672 117.87214 81.32791 114.19876 C 79.78699 110.74612 79.81966 108.3765 81.413 106.34981 C 83.15049 104.0985 90.53859 103.22921 93.89876 104.87331 C 97.26022 106.59142 100.13591 110.16883 100.18371 112.90721 C 100.20567 114.16538 100.6429 118.00745 101.14897 121.55219 L 102.07418 127.90285 L 106.09915 129.46132 C 113.1052 132.15227 115.90466 131.36308 118.328 125.99042 C 119.32409 123.67802 120.63044 122.17456 122.24445 121.33203 C 124.5934 120.18054 124.89073 120.24938 128.10159 121.82205 C 131.61107 123.53758 135.99797 128.8654 136.04318 131.45575 C 136.0574 132.26987 135.73773 135.16272 135.34275 137.98286 C 134.21118 145.25782 134.99908 147.98328 139.36531 152.12693 L 143.05382 155.61612 L 151.12093 155.4753 C 164.96083 155.23373 173.01981 158.86873 179.77595 168.44908 C 183.34227 173.42106 186.52267 181.73124 186.06144 184.99673 C 185.66647 187.81687 186.85838 188.24026 188.22453 185.9214 C 189.52054 183.82586 190.9306 184.02335 191.49002 186.38263 C 192.29213 189.9222 192.36743 189.99492 193.2181 187.83312 C 193.9259 185.96995 194.14664 185.89206 195.56575 186.60762 C 197.13417 187.3946 197.1316 187.24658 196.6449 184.812 C 196.39832 183.40968 196.47012 179.0405 196.84442 175.0362 C 198.33775 158.79696 203.19954 153.15965 215.70597 152.86731 C 218.51836 152.81822 219.40002 152.43267 221.28811 150.3268 C 222.45032 149.04795 224.18393 146.57461 225.04363 144.93089 C 227.19288 140.82157 231.2247 138.53022 236.4794 138.4385 C 238.77372 138.39845 241.29653 138.72457 242.0431 139.0817 C 244.6567 140.36868 249.98285 140.12764 251.58524 138.61902 C 254.86273 135.52647 256.12386 131.43265 256.2154 123.95375 C 256.2278 116.1801 256.29792 115.95678 260.21696 111.4464 C 263.55813 107.76048 265.4045 107.50615 270.92906 110.14893 C 273.54267 111.4359 275.19544 112.81368 276.03797 114.42769 C 277.8035 118.02447 280.70282 118.7142 285.4059 116.70725 C 288.85852 115.16633 289.29354 114.64051 291.86748 109.41329 C 294.43754 103.96404 297.04636 100.7351 300.1991 98.97731 C 302.3247 97.75569 310.3204 97.76419 312.8587 98.97844 Z" fill="#ff0000"/>
        </g>
        <g id="Graphic_102">
          <path d="M 253.50345 104.30838 C 255.80127 108.71024 256.00484 111.89009 253.74578 109.70854 C 253.14336 109.1268 252.6072 108.0997 252.59687 107.50761 C 252.58525 106.84152 252.28016 106.32862 251.98412 106.33379 C 251.096 106.34929 248.71125 101.20862 249.2151 100.38547 C 250.00468 98.96507 251.28482 100.20128 253.50345 104.30838 Z" fill="#ff0000"/>
        </g>
        <g id="Graphic_101">
          <path d="M 250.15324 107.47624 C 252.79398 110.31742 254.41666 114.21283 254.09183 116.80964 C 253.9021 118.66377 252.7218 118.90647 251.87927 117.29246 C 250.27726 114.58121 246.65797 106.57482 246.64505 105.83472 C 246.61792 104.2805 247.7384 104.85321 250.15324 107.47624 Z" fill="#ff0000"/>
        </g>
        <g id="Graphic_100">
          <path d="M 246.14986 111.39582 C 246.6886 112.57094 248.36462 115.28089 249.88358 117.47536 C 253.4525 122.59536 254.92974 126.64137 253.6974 128.14354 C 252.2482 129.94562 251.79768 129.58332 249.6453 125.03086 C 248.56653 122.60661 246.5867 119.45776 245.30012 117.8515 C 243.03072 115.07787 243.03072 115.07787 243.58626 117.21512 C 243.90297 118.39411 245.52307 122.1415 247.1367 125.51884 C 250.2848 131.97877 250.8012 136.11559 248.66267 136.59711 C 247.85114 136.75935 247.16696 135.73483 246.45824 133.30412 C 245.83257 131.39019 244.74475 128.44787 243.97752 126.90657 C 243.135 125.29256 242.5106 123.45264 242.49899 122.78655 C 242.48736 122.12046 242.1771 121.31151 241.87332 120.87262 C 241.4968 120.50903 240.88405 119.3352 240.3466 118.23409 C 239.5755 116.47077 239.64176 116.02541 240.80654 114.89459 C 241.53373 114.14157 242.322 112.64716 242.59737 111.45783 C 242.80003 110.3438 243.52462 109.44276 244.1167 109.43242 C 244.7828 109.4208 245.68642 110.29342 246.14986 111.39582 Z" fill="#ff0000"/>
        </g>
        <g id="Graphic_99">
          <path d="M 118.25899 113.55413 C 119.74952 114.12037 119.88296 117.52355 118.47677 117.5481 C 117.58864 117.5636 115.02062 114.64711 115.00125 113.53696 C 114.9922 113.01889 116.84375 113.0606 118.25899 113.55413 Z" fill="#ff0000"/>
        </g>
        <g id="Graphic_98">
          <path d="M 116.4342 119.2865 C 116.59772 120.17204 116.23413 120.54855 115.19798 120.56663 C 114.08783 120.58601 113.63602 120.1497 113.61664 119.03955 C 113.58434 117.1893 116.03056 117.3687 116.4342 119.2865 Z" fill="#ff0000"/>
        </g>
        <g id="Graphic_97">
          <path d="M 53.774705 121.93491 C 55.575494 123.3101 63.80446 128.20069 72.02826 132.79524 C 80.25335 137.4638 87.50855 141.70508 88.10968 142.21282 C 90.06624 144.02949 86.57613 143.42411 82.16949 141.20602 C 69.25075 134.8426 64.542895 132.33363 62.36818 130.74287 C 61.09192 129.72869 59.74553 128.93783 59.449486 128.943 C 59.153445 128.94817 58.4043 128.44301 57.801884 127.86127 C 56.44645 126.55234 55.2597 126.42499 55.28037 127.60915 C 55.28812 128.05321 55.963257 128.55966 56.781244 128.76748 C 57.59923 128.9753 58.273074 129.40773 58.27953 129.77778 C 58.293744 130.5919 63.68578 134.12538 69.21291 136.91618 C 74.66475 139.63426 81.09809 143.4457 82.22762 144.53647 C 84.26207 146.57388 80.69795 145.9698 75.17469 143.40103 C 71.891115 141.90366 68.90875 140.69716 68.5374 140.6296 C 67.57527 140.6464 71.25861 143.83955 74.399335 145.63554 C 75.89633 146.57184 77.09858 147.58731 77.10504 147.95736 C 77.11667 148.62345 75.18207 148.06496 71.14935 146.06244 C 65.54949 143.34694 65.17815 143.27939 65.19365 144.16751 C 65.20011 144.53756 66.40107 145.47902 67.824056 146.41661 C 69.24575 147.28019 70.44929 148.36967 70.45575 148.73972 C 70.472545 149.70185 66.99407 149.76257 66.38519 148.81077 C 65.77632 147.85897 63.77804 147.89385 63.794836 148.85599 C 63.80259 149.30005 64.62962 150.02594 65.67351 150.45191 C 67.9119 151.4493 68.08576 152.92692 66.09911 153.6279 C 64.18518 154.25356 64.2734 155.06638 66.439075 156.13907 C 68.45673 157.21434 70.517386 156.51208 69.16195 155.20315 C 67.95712 154.03966 68.07801 152.48286 69.33618 152.4609 C 70.742374 152.43635 80.24631 158.26711 80.26181 159.15523 C 80.26827 159.52529 78.77773 158.95904 76.9834 157.9539 C 73.170125 155.79948 70.57202 155.40064 72.08452 157.22505 C 72.61292 157.8081 73.5841 158.30937 74.25019 158.29774 C 74.91628 158.28612 75.89004 158.93541 76.34702 159.66776 C 77.10908 160.91302 77.11296 161.13505 76.001515 161.08042 C 75.33542 161.09204 73.71495 161.56452 72.46582 162.10456 C 70.48176 162.95355 69.81437 162.89117 66.82813 161.46264 C 61.08155 158.82373 58.01779 152.9546 60.16575 148.77127 C 60.595604 147.9494 61.2139 145.1994 61.46731 142.7519 C 62.054595 138.22565 62.05201 138.07763 59.71765 135.82336 C 58.43622 134.51314 55.964174 132.85354 54.24773 132.06914 C 51.039455 130.64448 44.110376 123.88039 44.07937 122.10414 C 44.07033 121.58607 44.6482 120.76163 45.38184 120.37866 C 47.725623 118.93112 50.400324 119.4767 53.774705 121.93491 Z" fill="#ff0000"/>
        </g>
        <g id="Graphic_96">
          <path d="M 171.27278 122.40109 C 173.75 124.35673 174.43417 125.38125 174.46647 127.2315 C 174.50135 129.22978 173.9936 129.8309 170.76946 131.738 C 168.64383 132.95962 166.7299 133.5853 166.3534 133.2217 C 165.52507 132.4218 165.03008 121.0294 165.74952 119.83232 C 166.39752 118.78455 166.91947 118.99754 171.27278 122.40109 Z" fill="#ff0000"/>
        </g>
        <g id="Graphic_95">
          <path d="M 240.8058 123.33433 C 244.65487 131.78091 244.71392 139.40525 240.87776 131.69878 L 238.88245 127.6618 L 239.17553 131.72849 C 239.3791 134.90834 239.17257 135.80034 238.21431 136.03916 C 237.4028 136.2014 236.72378 135.47292 236.10327 133.85503 C 235.56195 132.53189 234.79213 130.84258 234.41046 130.18294 C 234.0275 129.4493 233.70173 127.75223 233.6759 126.27203 C 233.63973 124.19975 233.92543 123.6025 235.4732 123.20532 C 236.43144 122.96649 237.45208 122.06028 237.6612 121.3163 C 238.36254 119.08308 239.1117 119.58824 240.8058 123.33433 Z" fill="#ff0000"/>
        </g>
        <g id="Graphic_94">
          <path d="M 219.50895 124.74253 C 222.02105 128.69645 222.67126 132.01657 220.821 132.04887 C 220.22892 132.0592 219.1734 130.96714 218.48406 129.64658 C 217.796 128.40003 216.42894 126.42501 215.44872 125.40566 C 214.2439 124.24217 213.77916 123.06576 214.06228 122.32049 C 214.91036 120.01067 216.99944 120.93663 219.50895 124.74253 Z" fill="#ff0000"/>
        </g>
        <g id="Graphic_93">
          <path d="M 199.09506 125.83918 C 199.03784 126.8026 198.8051 130.43427 198.6438 133.91663 C 198.48119 137.32497 198.01866 140.51645 197.7278 140.81766 C 196.49158 142.0978 195.42702 140.48766 195.37017 137.2312 C 195.29008 132.64258 194.1253 133.7734 193.69378 138.74112 C 192.9581 147.48983 191.15214 145.8186 191.5879 136.85303 C 191.92345 130.62843 191.991 130.25708 194.82056 126.95025 C 197.94098 123.34221 199.2667 122.94891 199.09506 125.83918 Z" fill="#ff0000"/>
        </g>
        <g id="Graphic_92">
          <path d="M 143.47687 128.95695 C 145.51132 130.99436 147.17442 132.96421 147.18088 133.33426 C 147.18863 133.77832 147.63786 134.06661 148.22994 134.05628 C 149.71015 134.03044 153.64006 138.6259 152.46236 139.01662 C 151.94816 139.2477 151.3522 139.036 151.0497 138.67112 C 150.81992 138.23093 149.84617 137.58164 148.949 137.07907 C 147.97912 136.6518 147.22351 135.7766 147.21318 135.18452 C 147.20284 134.59243 146.74974 134.08211 146.15766 134.09245 C 144.67745 134.11829 139.10898 128.95916 138.55603 126.96993 C 137.76942 124.31848 139.48457 125.02887 143.47687 128.95695 Z" fill="#ff0000"/>
        </g>
        <g id="Graphic_91">
          <path d="M 215.88854 129.39575 C 219.24833 135.25973 217.13562 137.22145 213.41095 131.65998 C 210.44575 127.19574 210.44575 127.19574 211.53264 125.84418 C 212.61954 124.49262 213.44528 125.1445 215.88854 129.39575 Z" fill="#ff0000"/>
        </g>
        <g id="Graphic_90">
          <path d="M 233.78183 132.34086 C 233.8348 135.37528 232.7922 135.02332 231.91866 131.63306 C 231.44747 130.0866 231.58774 129.63995 232.54987 129.62316 C 233.438 129.60766 233.74695 130.34259 233.78183 132.34086 Z" fill="#ff0000"/>
        </g>
        <g id="Graphic_89">
          <path d="M 230.86535 134.90888 C 230.89635 136.68513 229.5758 137.37447 228.29953 136.3603 C 227.1726 135.41754 226.75345 132.61161 227.62607 131.70799 C 228.35325 130.95497 230.8395 133.42868 230.86535 134.90888 Z" fill="#ff0000"/>
        </g>
        <g id="Graphic_88">
          <path d="M 146.15082 137.94227 C 150.13796 141.57431 150.37549 142.45856 147.32944 141.84543 C 144.87807 141.36999 140.5936 137.6691 140.56389 135.96687 C 140.5303 134.04261 142.76482 134.81797 146.15082 137.94227 Z" fill="#ff0000"/>
        </g>
        <g id="Graphic_87">
          <path d="M 225.63388 136.33279 C 226.98027 137.12365 226.04397 138.62065 224.19372 138.65294 C 222.86154 138.6762 222.24362 137.20633 223.26297 136.22611 C 223.84342 135.54968 224.3615 135.54064 225.63388 136.33279 Z" fill="#ff0000"/>
        </g>
        <g id="Graphic_86">
          <path d="M 215.67092 138.13541 C 215.45535 138.50934 214.93986 138.6664 214.56465 138.37682 C 214.19072 138.16125 214.03366 137.64576 214.32324 137.27054 C 214.5388 136.89662 215.0543 136.73955 215.42952 137.02914 C 215.80344 137.2447 215.9605 137.7602 215.67092 138.13541 Z" fill="#ff0000"/>
        </g>
        <g id="Graphic_85">
          <path d="M 157.91548 141.80872 C 163.69178 146.14985 166.3936 148.24964 169.10319 150.7935 C 170.60923 152.24786 173.08645 154.2035 174.58344 155.1398 C 176.00643 156.07738 177.43846 157.53304 177.6734 158.26927 C 177.98366 159.07821 179.34685 160.8312 180.70358 162.21414 C 182.13432 163.5958 183.27289 165.20464 183.28322 165.79672 C 183.29356 166.3888 183.83747 167.85996 184.52552 169.1065 C 186.2846 172.33324 187.9344 177.78287 187.1203 177.79708 C 186.75024 177.80354 186.44516 177.29063 186.43353 176.62454 C 186.3922 174.25622 182.41448 166.92237 181.00183 166.57687 C 180.25785 166.36776 179.57755 165.56527 179.56463 164.82517 C 179.55042 164.01106 177.95874 161.8919 176.00347 160.14924 C 174.12221 158.40529 170.73491 155.20697 168.47714 153.09943 C 166.22067 151.0659 163.96936 149.32842 163.45129 149.33746 C 162.41514 149.35555 153.98648 141.50713 153.9684 140.47099 C 153.95031 139.43485 155.14093 139.78423 157.91548 141.80872 Z" fill="#ff0000"/>
        </g>
        <g id="Graphic_84">
          <path d="M 222.22774 140.53808 C 222.78715 142.89736 221.47047 143.80873 220.1813 142.05445 C 219.4231 141.03123 219.33876 140.44044 219.91792 139.69 C 221.15155 138.26185 221.82152 138.47225 222.22774 140.53808 Z" fill="#ff0000"/>
        </g>
        <g id="Graphic_83">
          <path d="M 203.82505 142.33995 C 204.0574 142.92816 203.86768 144.78229 203.45462 146.56628 C 202.75586 148.94753 202.17928 149.84598 200.9237 150.01596 C 200.03815 150.17949 199.14357 149.82494 198.9112 149.23673 C 198.1388 147.3994 201.1413 141.2763 202.84354 141.2466 C 203.21359 141.24013 203.59268 141.75175 203.82505 142.33995 Z" fill="#ff0000"/>
        </g>
        <g id="Graphic_82">
          <path d="M 213.22563 142.2499 C 213.23596 142.84198 212.87108 143.14448 212.49715 142.9289 C 212.04793 142.64062 211.89086 142.12513 212.10643 141.7512 C 212.75444 140.70343 213.20238 140.91771 213.22563 142.2499 Z" fill="#ff0000"/>
        </g>
        <g id="Graphic_81">
          <path d="M 143.03131 145.84419 C 144.53735 147.29856 146.34073 148.82177 147.01457 149.2542 C 147.76113 149.61133 148.3713 150.63714 148.45952 151.44996 C 148.6295 152.70555 148.18931 152.93533 145.8937 152.90137 C 142.0426 152.82052 139.56796 151.0129 138.46981 147.4785 C 137.61178 144.97636 137.67545 144.38299 138.55324 143.7754 C 140.01665 142.78744 140.09066 142.78614 143.03131 145.84419 Z" fill="#ff0000"/>
        </g>
        <g id="Graphic_80">
          <path d="M 146.93706 144.81359 C 147.16942 145.4018 147.84456 145.90824 148.43664 145.8979 C 149.02872 145.88757 150.00119 146.46286 150.53218 147.19392 C 151.06188 147.85096 152.48874 149.01058 153.61181 149.7313 C 155.63205 150.9546 155.8059 152.43222 153.88164 152.4658 C 152.77149 152.48518 145.17502 145.6587 145.15565 144.54855 C 145.13498 143.36439 146.39702 143.56446 146.93706 144.81359 Z" fill="#ff0000"/>
        </g>
        <g id="Graphic_79">
          <path d="M 154.41854 145.05316 C 155.17286 145.85436 155.63242 146.73473 155.41297 146.88662 C 154.7598 147.63835 151.09842 145.70338 151.07904 144.59322 C 151.0545 143.18703 152.83462 143.37806 154.41854 145.05316 Z" fill="#ff0000"/>
        </g>
        <g id="Graphic_78">
          <path d="M 219.64089 145.0252 C 219.94726 145.6121 219.89134 146.64954 219.68093 147.3195 C 219.32768 148.2881 219.03293 148.36728 218.1319 147.64268 C 217.53076 147.13494 216.9946 146.10784 216.9817 145.36774 C 216.95198 143.6655 219.02168 143.48131 219.64089 145.0252 Z" fill="#ff0000"/>
        </g>
        <g id="Graphic_77">
          <path d="M 103.77583 149.04651 C 109.14849 151.46984 111.18164 153.43324 106.25951 151.3722 C 104.69367 150.73324 102.08652 149.81632 100.52326 149.32538 C 98.88729 148.90974 97.39287 148.12147 97.2371 147.67999 C 96.76849 146.28155 98.32917 146.62447 103.77583 149.04651 Z" fill="#ff0000"/>
        </g>
        <g id="Graphic_76">
          <path d="M 279.52287 144.42415 C 279.82666 144.86304 280.9381 144.91767 282.1184 144.67497 C 283.74016 144.2765 284.41012 144.4869 285.02288 145.66073 C 285.78494 146.90599 286.2316 147.04626 287.77546 146.42705 C 290.7892 145.18992 291.90324 145.39257 291.6395 147.24799 C 291.31983 150.14085 282.93434 153.24853 280.75446 151.36172 C 279.7781 150.5644 278.89387 150.80194 274.71146 152.94786 C 270.96924 154.864 269.71752 155.25601 269.7033 154.4419 C 269.69427 153.92383 270.2033 153.39671 270.79538 153.38638 C 271.38746 153.37604 271.89907 152.99695 271.8926 152.6269 C 271.87065 151.36873 269.7321 151.85025 265.40426 154.14678 C 258.06784 157.97647 253.06615 159.84056 251.87036 159.19514 C 250.7473 158.47441 251.84452 157.71493 259.18224 153.95925 C 262.92576 152.11712 267.83535 149.21818 270.17654 147.62263 C 275.88087 143.59932 278.457 142.74 279.52287 144.42415 Z" fill="#ff0000"/>
        </g>
        <g id="Graphic_75">
          <path d="M 268.80173 145.20355 C 268.81723 146.09167 261.05483 150.96526 256.71794 152.7437 C 254.65987 153.594 252.45507 154.52087 251.79414 154.82854 C 249.66335 155.75412 250.30102 154.11427 252.50066 152.89135 C 253.60047 152.2799 256.97006 150.2222 259.9709 148.24496 C 265.02075 144.89938 268.7733 143.57532 268.80173 145.20355 Z" fill="#ff0000"/>
        </g>
        <g id="Graphic_74">
          <path d="M 93.79479 149.81299 C 99.22725 151.42092 102.91446 154.8361 99.36198 154.8981 C 98.39984 154.9149 98.03496 155.2174 98.41535 155.80302 C 99.25271 157.121 96.93902 156.05089 91.99621 152.8057 C 89.52546 151.2201 87.49747 149.55275 87.4923 149.2567 C 87.4768 148.36858 89.99831 148.6207 93.79479 149.81299 Z" fill="#ff0000"/>
        </g>
        <g id="Graphic_73">
          <path d="M 159.8975 149.32546 C 160.8829 150.64085 161.27103 151.67053 160.83214 151.97432 C 159.88034 152.5832 156.11524 148.94728 156.69052 147.97481 C 157.40996 146.77773 158.15523 147.06085 159.8975 149.32546 Z" fill="#ff0000"/>
        </g>
        <g id="Graphic_72">
          <path d="M 197.10875 152.0074 C 197.1953 156.96609 196.16137 161.35207 194.9032 161.37403 C 194.08908 161.38824 194.37812 152.49927 195.27825 148.92998 C 196.1121 145.80605 197.02607 147.27075 197.10875 152.0074 Z" fill="#ff0000"/>
        </g>
        <g id="Graphic_71">
          <path d="M 215.76873 147.98006 C 216.0011 148.56826 215.72056 149.46155 215.13752 149.98996 C 214.26231 150.74556 213.81696 150.6793 212.83933 149.80798 C 212.23562 149.15222 211.92408 148.26927 212.13836 147.82133 C 212.8578 146.62425 215.3027 146.72964 215.76873 147.98006 Z" fill="#ff0000"/>
        </g>
        <g id="Graphic_70">
          <path d="M 87.6309 152.95592 C 90.10166 154.54152 92.05305 156.06214 91.83361 156.21404 C 91.47002 156.59055 82.49966 151.63887 81.89078 150.68707 C 80.97682 149.22237 83.43724 150.21588 87.6309 152.95592 Z" fill="#ff0000"/>
        </g>
        <g id="Graphic_69">
          <path d="M 80.97516 153.36823 C 86.94248 155.92925 87.6189 156.5097 84.80522 156.48478 C 83.54576 156.43274 81.83319 155.87037 81.00487 155.07046 C 80.17784 154.34457 78.83532 153.77575 77.9472 153.79125 C 77.13309 153.80546 76.45795 153.29901 76.44762 152.70693 C 76.42307 151.30074 76.27505 151.30332 80.97516 153.36823 Z" fill="#ff0000"/>
        </g>
        <g id="Graphic_68">
          <path d="M 123.78754 158.83969 C 123.9446 159.35517 121.8594 158.65124 119.17178 157.36557 C 116.48416 156.0799 114.2406 154.78646 114.23544 154.49042 C 114.22123 153.67631 123.47471 157.88272 123.78754 158.83969 Z" fill="#ff0000"/>
        </g>
        <g id="Graphic_67">
          <path d="M 118.40418 160.04414 C 122.05522 161.38704 125.1882 162.73897 125.34397 163.18045 C 125.57891 163.91668 112.98852 159.39835 111.78498 158.30886 C 110.65803 157.36611 111.17739 157.43108 118.40418 160.04414 Z" fill="#ff0000"/>
        </g>
        <g id="Graphic_66">
          <path d="M 269.00326 156.74913 C 269.02393 157.9333 263.10532 162.40454 261.4031 162.43425 C 260.811 162.44458 260.07607 162.75354 259.8618 163.20148 C 259.14236 164.39856 253.58643 164.1994 253.56576 163.01525 C 253.54638 161.9051 259.54933 158.02464 261.25157 157.99493 C 261.76964 157.98589 263.1668 157.44327 264.2666 156.83181 C 266.98044 155.37782 268.9787 155.34294 269.00326 156.74913 Z" fill="#ff0000"/>
        </g>
        <g id="Graphic_65">
          <path d="M 141.00441 161.20434 C 150.21268 162.8204 160.77121 165.44934 166.0634 167.50391 C 172.32547 169.98576 178.28337 176.24857 176.8471 178.79076 C 175.76665 180.51237 172.47016 178.2749 169.95418 174.09895 C 168.73643 172.19535 167.29407 170.14761 166.76566 169.56457 C 164.5832 167.52975 149.40502 163.20466 146.8263 163.91597 C 146.09007 164.15091 145.64472 164.08466 145.86158 163.78474 C 146.00314 163.4121 142.8805 162.65225 138.79702 161.9832 C 134.71484 161.38816 131.36888 160.55817 131.36242 160.18812 C 131.35596 159.81807 132.09348 159.65713 133.0582 159.78836 C 133.95019 159.99489 137.5143 160.59897 141.00441 161.20434 Z" fill="#ff0000"/>
        </g>
        <g id="Graphic_64">
          <path d="M 113.1895 162.43018 C 115.57591 163.42498 117.22352 164.50672 117.00924 164.95465 C 116.79367 165.32858 116.05486 165.4155 115.3083 165.05838 C 114.63704 164.77396 112.62326 163.92072 110.9081 163.21033 C 109.11894 162.50123 107.69725 161.63766 107.69079 161.2676 C 107.674 160.30547 108.64 160.51071 113.1895 162.43018 Z" fill="#ff0000"/>
        </g>
        <g id="Graphic_63">
          <path d="M 298.79023 158.22808 C 298.13576 158.9058 297.6917 158.91355 297.014 158.25909 C 296.33627 157.60462 296.4804 157.38 297.8866 157.35546 C 299.2928 157.33092 299.4447 157.55036 298.79023 158.22808 Z" fill="#ff0000"/>
        </g>
        <g id="Graphic_62">
          <path d="M 234.49476 160.46086 C 234.79597 160.75173 231.85494 161.91356 227.95178 163.09218 C 221.0297 165.21189 216.18637 167.66547 217.89765 168.15383 C 219.01426 168.5045 226.89718 166.294 231.01074 164.4454 C 232.9208 163.5977 235.2035 162.89156 236.16562 162.87477 C 237.20176 162.85668 239.11698 162.30503 240.51155 161.61439 C 241.90612 160.92375 243.6019 160.52399 244.27315 160.8084 C 246.13503 161.4422 245.35967 163.67671 242.85496 164.38673 C 235.63942 166.65962 232.54262 167.37997 230.10029 167.4226 C 228.62008 167.44844 226.77887 167.9988 226.0491 168.6038 C 225.24403 169.1361 223.4054 169.83448 221.85636 170.15765 C 220.2333 170.4821 218.6167 171.17662 218.10897 171.77775 C 217.60253 172.45288 216.21313 173.43956 215.0393 174.0523 C 213.0591 175.12333 212.9111 175.12592 212.5165 173.72618 C 212.04014 171.88368 211.7428 171.81484 210.36245 173.31958 C 208.25362 175.50334 206.89818 174.19441 208.7811 171.7925 C 211.74835 167.891 214.5934 165.4723 217.75 163.93654 C 223.18283 161.3246 233.28864 159.22335 234.49476 160.46086 Z" fill="#ff0000"/>
        </g>
        <g id="Graphic_61">
          <path d="M 111.40126 166.01497 C 112.45936 167.25505 111.73218 168.00807 109.51187 168.04683 C 108.32771 168.0675 107.81739 168.5206 107.83418 169.48273 C 107.86131 171.03695 106.61606 171.79901 105.12552 171.23277 C 103.63627 170.74053 103.91423 169.69922 106.1685 167.36486 C 108.34746 164.95778 110.04324 164.55802 111.40126 166.01497 Z" fill="#ff0000"/>
        </g>
        <g id="Graphic_60">
          <path d="M 129.196 167.55518 C 136.78896 169.93975 138.22615 171.69145 132.21712 170.98198 C 129.99165 170.7247 127.91161 170.3168 127.46238 170.02852 C 127.08846 169.81294 125.22528 169.10514 123.3647 168.54535 C 121.20548 167.84272 119.9318 166.97656 119.76828 166.09102 C 119.36981 164.46925 120.0372 164.53164 129.196 167.55518 Z" fill="#ff0000"/>
        </g>
        <g id="Graphic_59">
          <path d="M 137.52168 165.2629 C 138.49027 165.61616 142.57892 166.58125 146.66498 167.39832 C 156.77041 169.51694 157.44038 169.72735 157.60261 170.53887 C 157.75709 170.90634 156.36252 171.59698 154.59274 171.99803 C 152.08544 172.56003 150.89998 172.50669 149.03422 171.65086 C 147.76442 171.00673 144.412 169.8067 141.50881 168.89494 C 133.84313 166.58567 132.94855 166.23112 132.93434 165.417 C 132.91884 164.52888 135.21186 164.41483 137.52168 165.2629 Z" fill="#ff0000"/>
        </g>
        <g id="Graphic_58">
          <path d="M 251.72067 163.34358 C 253.0619 163.8384 253.5903 164.42144 253.30718 165.1667 C 253.0955 165.76267 253.18113 166.42747 253.55376 166.56903 C 254.2276 167.00146 258.05288 165.6021 261.64708 163.68855 C 264.72838 162.08007 266.87338 161.9686 266.89922 163.4488 C 266.94573 166.11317 255.11018 170.9098 246.02114 171.8828 C 241.44026 172.40696 240.9949 172.3407 241.86495 171.28905 C 242.37268 170.68793 243.25176 170.15435 243.91785 170.14273 C 245.7681 170.11043 249.95697 168.33456 249.94406 167.59446 C 249.93114 166.85436 247.0499 167.20078 239.6033 168.95948 C 236.94927 169.59807 234.6614 170.00817 234.5108 169.86273 C 234.3602 169.7173 234.42388 169.12392 234.63428 168.45395 C 234.9187 167.7827 236.0211 167.31926 237.64932 167.29084 C 239.05552 167.2663 240.45525 166.8717 240.67082 166.49777 C 240.8851 166.04983 241.69405 165.73958 242.43415 165.72666 C 243.10024 165.71504 245.01288 165.01536 246.6269 164.17282 C 248.1682 163.4056 249.56275 162.71496 249.63547 162.63965 C 249.70948 162.63836 250.67807 162.99162 251.72067 163.34358 Z" fill="#ff0000"/>
        </g>
        <g id="Graphic_57">
          <path d="M 121.38838 169.8384 C 122.36085 170.4137 121.94908 172.2717 120.91294 172.28979 C 118.76665 172.32725 116.00243 170.89484 115.98176 169.71068 C 115.96626 168.82256 116.40774 168.66679 118.41247 169.00196 C 119.67581 169.27604 121.01445 169.62284 121.38838 169.8384 Z" fill="#ff0000"/>
        </g>
        <g id="Graphic_56">
          <path d="M 116.55151 172.66205 C 117.37983 173.46195 116.07994 175.33546 114.23744 175.81181 C 110.25898 176.91772 107.33641 174.89581 109.59068 172.56145 C 110.38929 171.65912 115.57258 171.7167 116.55151 172.66205 Z" fill="#ff0000"/>
        </g>
        <g id="Graphic_55">
          <path d="M 263.32144 170.54436 C 263.3576 172.61665 254.38004 175.73466 252.2092 174.36593 C 250.8628 173.57507 252.09773 172.22093 254.31803 172.18217 C 255.4269 172.08879 257.12138 171.61501 258.14718 171.00484 C 260.2728 169.78322 263.30206 169.43421 263.32144 170.54436 Z" fill="#ff0000"/>
        </g>
        <g id="Graphic_54">
          <path d="M 221.41634 183.12106 C 223.35999 184.19762 223.22747 185.08833 220.9422 185.64644 C 218.65821 186.27857 217.30924 185.3397 217.8716 183.62713 C 218.36513 182.2119 219.39998 182.1198 221.41634 183.12106 Z" fill="#ff0000"/>
        </g>
        <g id="Graphic_53">
          <path d="M 256.53426 188.87488 C 258.69476 189.65153 257.9934 191.88476 255.4134 192.52205 C 250.5468 193.64346 244.25982 193.9753 244.76368 193.15214 C 245.05197 192.70291 246.15566 192.31348 247.1918 192.2954 C 248.22795 192.27731 249.98998 191.4322 251.23007 190.3741 C 253.4168 188.41107 254.52306 188.16966 256.53426 188.87488 Z" fill="#ff0000"/>
        </g>
        <g id="Graphic_52">
          <path d="M 260.8822 208.9359 C 262.15457 209.72804 258.85124 211.3404 255.74282 211.39465 C 253.07845 211.44115 253.43687 210.7686 256.81938 209.451 C 259.90843 208.2866 259.7604 208.28918 260.8822 208.9359 Z" fill="#ff0000"/>
        </g>
        <g id="Graphic_51">
          <path d="M 252.50058 212.2656 C 251.998 213.16277 248.51953 213.22348 248.50403 212.33536 C 248.48982 211.52125 250.6998 210.8904 251.9657 211.3125 C 252.48637 211.4515 252.71615 211.89167 252.50058 212.2656 Z" fill="#ff0000"/>
        </g>
        <g id="Graphic_50">
          <path d="M 273.45892 221.15386 C 273.47442 222.04198 272.89267 222.6444 271.85912 222.8105 C 270.01403 223.13884 269.54413 221.6664 270.9985 220.16035 C 272.2347 218.88022 273.4279 219.37762 273.45892 221.15386 Z" fill="#ff0000"/>
        </g>
        <g id="Graphic_49">
          <path d="M 270.33387 232.9796 C 271.69318 234.51057 270.09596 236.31524 267.35758 236.36304 C 264.84124 236.40696 264.6037 235.5227 266.63982 233.41426 C 268.38506 231.607 269.04986 231.52137 270.33387 232.9796 Z" fill="#ff0000"/>
        </g>
        <g id="Graphic_48">
          <path d="M 267.12613 240.0687 C 267.15972 241.99298 264.0044 243.60274 261.8439 242.8261 C 260.87402 242.39883 261.0883 241.9509 263.1296 240.13847 C 265.97335 237.64576 267.0835 237.62638 267.12613 240.0687 Z" fill="#ff0000"/>
        </g>
        <g id="Graphic_47">
          <path d="M 256.0905 244.037 C 256.1034 244.7771 254.99972 245.16654 252.26392 245.36236 C 247.53244 245.74108 247.1443 244.7114 251.49153 243.52502 C 255.25054 242.57102 256.06595 242.63082 256.0905 244.037 Z" fill="#ff0000"/>
        </g>
        <g id="Graphic_46">
          <path d="M 244.65638 246.38354 C 244.66284 246.7536 244.15123 247.1327 243.55914 247.14302 C 242.96706 247.15336 242.44253 246.79235 242.43607 246.4223 C 242.42832 245.97824 242.94123 245.67315 243.5333 245.66282 C 244.1254 245.65248 244.64863 245.93948 244.65638 246.38354 Z" fill="#ff0000"/>
        </g>
        <g id="Graphic_45">
          <path d="M 235.0609 248.0317 C 235.06735 248.40174 234.03767 248.78987 232.7795 248.81184 C 231.52132 248.8338 230.70204 248.55197 230.99033 248.10274 C 231.2046 247.6548 232.2356 247.34068 233.27173 247.3226 C 234.23386 247.3058 235.05314 247.58763 235.0609 248.0317 Z" fill="#ff0000"/>
        </g>
        <g id="Graphic_44">
          <path d="M 258.74286 247.54428 C 258.75836 248.4324 256.62627 249.28398 255.72782 248.7074 C 255.3539 248.49183 255.19683 247.97634 255.4124 247.60242 C 255.98898 246.70396 258.72736 246.65616 258.74286 247.54428 Z" fill="#ff0000"/>
        </g>
        <g id="Graphic_43">
          <path d="M 253.58798 249.11492 C 253.6009 249.85502 252.64523 250.24186 248.6629 251.12574 C 247.11384 251.4489 246.22443 251.3904 246.2154 250.87233 C 246.20763 250.42827 246.86727 250.0466 247.60737 250.03367 C 248.42148 250.01946 249.30314 249.6339 249.5187 249.25998 C 250.094 248.2875 253.57248 248.2268 253.58798 249.11492 Z" fill="#ff0000"/>
        </g>
        <g id="Graphic_42">
          <path d="M 218.1406 254.17562 C 218.16386 255.5078 216.69012 255.9037 213.72067 255.4373 C 209.56447 254.84354 209.98786 253.65163 214.42847 253.57412 C 216.50076 253.53795 218.13415 253.80557 218.1406 254.17562 Z" fill="#ff0000"/>
        </g>
        <g id="Graphic_41">
          <path d="M 212.79433 261.74624 C 215.10286 262.5203 219.72858 268.80638 221.28759 273.29516 C 222.92319 277.93067 224.87975 279.74734 229.26314 280.63325 C 236.8419 282.20372 242.63498 287.507 244.46252 294.65626 C 245.33735 298.12053 243.68846 296.9648 241.91388 292.84993 C 239.21889 286.90032 238.84367 286.61074 231.79074 285.4753 C 224.96113 284.40998 221.61 283.28395 220.62204 281.82054 C 220.31695 281.30764 219.5691 280.8765 218.97702 280.88683 C 217.64484 280.9101 214.09272 276.75222 214.063 275.05 C 214.00617 271.79354 211.8069 268.7966 208.37273 267.15378 C 205.6111 265.8694 204.93338 265.21493 205.13216 263.87887 C 205.2595 262.69212 205.98927 262.08712 207.90837 261.7575 C 209.3094 261.4369 210.48968 261.1942 210.5624 261.1189 C 210.6364 261.1176 211.6037 261.39686 212.79433 261.74624 Z" fill="#ff0000"/>
        </g>
        <g id="Graphic_40">
          <path d="M 188.21354 265.87694 C 189.143 268.22976 189.23639 269.33862 188.54538 272.16393 C 187.51144 276.5499 186.68312 275.75 186.58623 270.19924 C 186.52035 266.42472 186.362 265.83522 185.25571 266.07663 C 184.37018 266.24015 184.01175 266.9127 184.17786 267.94626 C 184.50878 269.93937 182.53117 271.1584 179.70974 270.68943 C 178.15036 270.42052 177.69726 269.9102 177.67013 268.356 C 177.60554 264.65548 178.77678 263.8947 185.79612 263.1059 C 186.53493 263.01896 187.44114 264.0396 188.21354 265.87694 Z" fill="#ff0000"/>
        </g>
        <g id="Graphic_39">
          <path d="M 196.69629 264.10015 C 196.85335 264.61564 196.3469 265.29077 195.46266 265.5283 C 193.39942 266.08255 193.48635 266.82136 195.79875 267.81745 C 196.99324 268.38886 197.52294 269.0459 197.23982 269.79118 C 196.95411 270.38843 197.19423 271.4207 197.72264 272.00374 C 199.00665 273.46198 198.0639 274.58893 195.47354 274.63414 C 194.06734 274.6587 193.3337 275.04166 193.34662 275.78176 C 193.35954 276.52186 194.1061 276.879 195.5863 276.85315 L 197.8066 276.8144 L 197.9203 283.3273 L 198.03268 289.76618 L 201.79003 292.95803 C 203.89332 294.6981 205.55513 296.59395 205.56418 297.11202 C 205.57322 297.6301 206.1197 299.24927 206.81035 300.64384 C 208.19033 303.35896 207.81474 307.28925 206.25148 306.7983 C 205.73083 306.65933 205.03631 305.04274 204.55996 303.20023 C 204.1576 301.35644 203.38392 299.4451 202.92952 298.86076 C 202.47513 298.27643 201.48587 296.739 200.72122 295.34574 C 200.03058 293.95117 198.4415 291.98002 197.31325 290.96326 C 196.185 289.9465 194.13635 287.09498 192.90956 284.6733 C 190.61304 280.34547 190.60916 280.12344 191.16803 273.96897 C 192.29997 262.47414 192.22984 262.69746 194.3813 262.95603 C 195.49404 263.08468 196.46521 263.58595 196.69629 264.10015 Z" fill="#ff0000"/>
        </g>
        <g id="Graphic_38">
          <path d="M 182.79584 273.59687 C 182.73733 274.4863 183.3617 276.3262 184.3458 277.5676 C 185.25588 278.81026 186.01924 280.12952 186.0257 280.49957 C 186.03216 280.86962 186.72408 282.3382 187.49132 283.8795 C 188.56363 285.9337 188.80891 287.262 188.39844 289.19402 C 187.16831 295.06408 181.78753 296.41655 173.94929 292.70367 C 169.84385 290.77645 168.80383 290.5725 165.48112 291.0747 C 163.19198 291.4108 161.0599 292.26236 160.18727 293.166 C 158.07844 295.34974 157.91492 294.4642 159.86152 291.4689 C 161.80812 288.47363 166.72288 285.87073 169.24956 286.4189 C 170.21557 286.62412 172.96944 287.46445 175.35198 288.23722 C 180.26636 289.8542 181.96601 289.67646 183.55032 287.1317 C 184.41648 285.85802 184.39968 284.8959 183.76755 282.6119 C 183.29507 280.99143 182.37336 279.08267 181.76965 278.4269 C 181.16594 277.77116 180.8531 276.8142 181.1427 276.43897 C 181.35697 275.99104 181.2765 275.62228 180.83244 275.63003 C 179.94432 275.64553 177.76185 273.6107 177.74506 272.64858 C 177.7386 272.27853 178.9176 271.96182 180.3978 271.93598 C 182.69211 271.89593 182.99203 272.1128 182.79584 273.59687 Z" fill="#ff0000"/>
        </g>
        <g id="Graphic_37">
          <path d="M 203.67704 273.82465 C 203.6835 274.1947 203.1706 274.4998 202.57851 274.51012 C 201.46836 274.5295 201.0828 273.64784 201.8827 272.8195 C 202.46446 272.2171 203.66025 272.86252 203.67704 273.82465 Z" fill="#ff0000"/>
        </g>
        <g id="Graphic_36">
          <path d="M 203.43876 281.38015 C 204.27446 286.844 205.57914 289.4864 209.57402 293.5625 C 213.1171 297.2023 213.11838 297.2763 213.2867 302.67774 C 213.53031 308.1519 213.5316 308.22592 209.9241 313.61925 C 207.9775 316.61454 206.10234 319.4605 205.81405 319.90974 C 205.45433 320.50828 205.00898 320.44202 204.40656 319.86027 C 203.65354 319.1331 204.21333 317.2725 207.1418 311.1507 C 209.21318 306.82065 210.84824 302.9424 210.8392 302.42433 C 210.81465 301.01814 206.33437 294.58147 203.24698 291.6 C 200.2336 288.61727 198.98485 284.93743 199.8045 280.9994 C 200.27607 278.32598 201.43052 276.60308 202.25368 277.10694 C 202.6276 277.3225 203.10525 279.23902 203.43876 281.38015 Z" fill="#ff0000"/>
        </g>
        <g id="Graphic_35">
          <path d="M 202.3424 316.12064 C 201.68794 316.79835 201.46332 316.6542 201.43878 315.248 C 201.41423 313.84182 201.63368 313.68993 202.3114 314.3444 C 202.98912 314.99886 202.99687 315.4429 202.3424 316.12064 Z" fill="#ff0000"/>
        </g>
        <g id="Graphic_34">
          <path d="M 94.28269 80.21371 C 94.73708 80.79804 95.19665 81.67841 95.20698 82.2705 C 95.22765 83.45466 98.02416 86.73732 105.86203 94.67007 C 108.72609 97.58139 111.06691 100.20571 111.07337 100.57576 C 111.07854 100.8718 112.5807 102.10414 114.45163 103.256 C 116.32126 104.33386 117.82601 105.71422 117.83505 106.23229 C 117.8441 106.75036 118.51794 107.18279 119.33205 107.16858 C 120.14616 107.15437 120.80709 106.8467 120.79933 106.40264 C 120.79288 106.03259 120.11387 105.30412 119.29071 104.80026 C 118.46756 104.2964 117.78596 103.4199 117.77692 102.90183 C 117.76788 102.38376 117.16417 101.728 116.4942 101.5176 C 115.15297 101.02278 113.80012 99.86187 109.87667 95.63646 C 107.91494 93.52375 107.52809 92.56808 107.1442 87.54055 C 106.66564 81.33016 105.6127 80.38611 104.58523 85.14214 C 103.69286 89.15548 103.2475 89.08922 99.46819 84.6392 C 98.25948 83.25367 96.37822 81.50972 95.32787 80.7137 C 94.20351 79.91896 93.75557 79.704685 94.28269 80.21371 Z" fill="#cccccc"/>
        </g>
        <g id="Graphic_33">
          <path d="M 152.64159 123.83679 C 152.28317 124.50934 152.309 125.98954 152.69972 127.16725 C 153.25009 129.00846 153.3254 129.08118 153.519 127.44908 C 153.72553 126.55708 153.6997 125.07687 153.46087 124.11862 C 153.2143 122.7163 153.139 122.64358 152.64159 123.83679 Z" fill="#cccccc"/>
        </g>
        <g id="Graphic_32">
          <path d="M 228.72592 101.4094 C 229.71906 103.16885 232.57537 105.63611 232.55857 104.67398 C 232.55082 104.22992 231.86406 103.05738 230.95656 101.96273 C 229.21557 99.77214 227.5796 99.3565 228.72592 101.4094 Z" fill="#cccccc"/>
        </g>
        <g id="Graphic_31">
          <path d="M 233.36069 108.21355 C 233.89297 109.01862 234.42137 109.60165 234.56552 109.37704 C 235.07455 108.84993 233.99965 106.64771 233.25955 106.66063 C 232.81549 106.66838 232.90112 107.33318 233.36069 108.21355 Z" fill="#cccccc"/>
        </g>
        <g id="Graphic_30">
          <path d="M 303.15653 102.99749 C 302.271 103.16101 300.80888 104.22299 299.86483 105.27593 L 298.12088 107.15719 L 301.07354 106.66145 C 309.56016 105.1067 309.41214 105.10928 311.88936 107.06492 C 314.44317 109.1673 315.5585 109.44396 315.53265 107.96375 C 315.50423 106.33553 312.35446 104.02146 309.15652 103.18889 C 306.1079 102.42774 305.88586 102.43162 303.15653 102.99749 Z" fill="#cccccc"/>
        </g>
        <g id="Graphic_29">
          <path d="M 304.9811 114.21862 C 304.69412 114.74185 304.63044 115.33523 304.85635 115.55338 C 305.53407 116.20785 306.25738 115.2328 305.86924 114.20311 C 305.559 113.39417 305.41097 113.39675 304.9811 114.21862 Z" fill="#cccccc"/>
        </g>
        <g id="Graphic_28">
          <path d="M 296.97472 117.8379 C 296.39298 118.44032 297.07974 119.61286 298.04187 119.59606 C 298.41192 119.5896 298.69892 119.06637 298.6886 118.47428 C 298.6692 117.36413 297.77463 117.00958 296.97472 117.8379 Z" fill="#cccccc"/>
        </g>
        <g id="Graphic_27">
          <path d="M 270.44862 125.0379 C 270.26793 127.4101 269.95214 130.52499 269.68064 131.93635 C 269.27017 133.86836 269.42594 134.30984 270.0077 133.70742 C 270.80888 132.95311 271.9292 120.79219 271.1151 120.8064 C 270.89306 120.81028 270.6306 122.7397 270.44862 125.0379 Z" fill="#cccccc"/>
        </g>
        <g id="Graphic_26">
          <path d="M 298.13193 128.99665 C 294.1935 132.39687 289.97585 136.76438 290.64194 136.75276 C 291.97412 136.7295 301.082 128.35289 301.06133 127.16873 C 301.0523 126.65066 300.31864 127.03363 298.13193 128.99665 Z" fill="#cccccc"/>
        </g>
        <g id="Graphic_25">
          <path d="M 153.30465 187.27126 C 153.3111 187.6413 152.7995 188.0204 152.20741 188.03074 C 151.61533 188.04107 151.10372 188.42017 151.11147 188.86423 C 151.12051 189.3823 151.8632 189.5174 153.19021 189.1981 C 154.2952 188.88269 156.43503 188.47517 157.98408 188.152 C 162.26504 187.41099 161.95092 186.38 157.4363 186.45881 C 155.14198 186.49886 153.2969 186.8272 153.30465 187.27126 Z" fill="#cccccc"/>
        </g>
        <g id="Graphic_24">
          <path d="M 166.99653 187.03227 C 169.08432 187.88422 173.52493 187.8067 172.91734 186.92892 C 172.68756 186.48873 170.90615 186.2237 168.98318 186.3313 C 166.39282 186.3765 165.87862 186.60758 166.99653 187.03227 Z" fill="#cccccc"/>
        </g>
        <g id="Graphic_23">
          <path d="M 140.29232 196.75248 C 139.78458 197.3536 138.38743 197.89622 137.27728 197.9156 C 136.09311 197.93627 134.76997 198.4776 134.26224 199.07872 C 133.53893 200.05377 133.61552 200.2005 134.9477 200.17724 C 135.83583 200.16174 137.08883 199.84374 137.82248 199.46077 C 138.48211 199.0791 140.98554 198.29507 143.34482 197.73566 C 146.07286 197.09578 147.24798 196.55704 146.64815 196.1233 C 145.07714 195.1883 141.30779 195.55023 140.29232 196.75248 Z" fill="#cccccc"/>
        </g>
        <g id="Graphic_22">
          <path d="M 150.49926 196.20415 C 149.62018 196.73773 149.9201 196.9546 151.62233 196.92488 C 152.8805 196.90292 154.66063 197.09394 155.69935 197.22388 C 157.33403 197.5655 157.25744 197.41878 155.31767 196.56424 C 152.63005 195.27857 151.96267 195.21618 150.49926 196.20415 Z" fill="#cccccc"/>
        </g>
        <g id="Graphic_21">
          <path d="M 198.28362 198.10929 C 196.3671 198.58693 195.05689 199.86836 196.5371 199.84252 C 197.12917 199.8322 198.3043 199.29345 199.10807 198.68716 C 199.83784 198.08216 200.34816 197.62905 200.12613 197.63293 C 199.90539 197.71081 199.09386 197.87304 198.28362 198.10929 Z" fill="#cccccc"/>
        </g>
        <g id="Graphic_20">
          <path d="M 133.95032 202.41563 C 133.73475 202.78956 132.85309 203.17511 132.03897 203.18932 C 131.29887 203.20224 130.63795 203.5099 130.6457 203.95397 C 130.6625 204.9161 131.17927 204.83305 134.49035 203.66476 C 138.09489 202.3433 138.74806 201.59156 136.30573 201.6342 C 135.26958 201.65228 134.1646 201.9677 133.95032 202.41563 Z" fill="#cccccc"/>
        </g>
        <g id="Graphic_19">
          <path d="M 143.2016 202.25415 C 143.20805 202.6242 144.39867 202.97359 145.87888 202.94775 C 147.43309 202.92062 148.31605 202.60908 148.01225 202.17018 C 147.78247 201.73 146.59314 201.45463 145.33497 201.47659 C 144.1508 201.49726 143.19384 201.8101 143.2016 202.25415 Z" fill="#cccccc"/>
        </g>
        <g id="Graphic_18">
          <path d="M 209.6976 203.09234 C 210.21956 203.30533 210.88436 203.2197 211.1025 202.9938 C 211.39468 202.7666 210.94674 202.5523 210.13392 202.64053 C 209.3198 202.65474 209.10165 202.88065 209.6976 203.09234 Z" fill="#cccccc"/>
        </g>
        <g id="Graphic_17">
          <path d="M 195.50962 204.59855 C 192.492 205.61365 191.47652 206.8159 192.89822 207.67948 C 193.87068 208.25476 198.80224 206.614 198.78544 205.65186 C 198.77898 205.28181 199.29189 204.97673 199.88397 204.9664 C 200.47605 204.95606 200.98766 204.57697 200.9812 204.20692 C 200.9644 203.24478 199.19075 203.4238 195.50962 204.59855 Z" fill="#cccccc"/>
        </g>
        <g id="Graphic_16">
          <path d="M 136.98178 206.43452 C 136.61431 206.589 135.3613 206.907 134.25503 207.1484 C 130.12725 208.18289 132.3579 208.7362 139.61089 208.6096 C 143.68145 208.53856 147.00932 208.3324 147.00416 208.03636 C 146.98349 206.8522 139.26318 205.65437 136.98178 206.43452 Z" fill="#cccccc"/>
        </g>
        <g id="Graphic_15">
          <path d="M 125.56834 209.96522 C 125.5748 210.33527 125.9513 210.69886 126.32136 210.6924 C 126.76542 210.68465 127.055 210.30943 127.04854 209.93938 C 127.04079 209.49532 126.73958 209.20444 126.29552 209.2122 C 125.92547 209.21865 125.56058 209.52115 125.56834 209.96522 Z" fill="#cccccc"/>
        </g>
        <g id="Graphic_14">
          <path d="M 197.00366 209.6067 C 195.3819 210.00517 193.16934 210.488 191.99034 210.8047 C 189.04027 211.44845 188.90646 212.26515 191.73047 212.88215 L 194.10784 213.35888 L 191.90562 214.43378 C 190.7305 214.97252 188.59196 215.45405 187.33508 215.55002 C 186.0029 215.57327 184.8979 215.8887 184.90566 216.33275 C 184.92504 217.4429 194.6165 217.05164 196.6681 215.8313 C 198.35355 214.83946 198.35226 214.76545 197.00716 214.0486 C 195.88667 213.4759 195.8062 213.10714 196.60352 212.1308 C 197.10996 211.45566 197.98904 210.9221 198.58112 210.91175 C 199.46925 210.89625 200.77688 209.4668 200.25235 209.1058 C 200.10304 209.03437 198.62671 209.28224 197.00366 209.6067 Z" fill="#cccccc"/>
        </g>
        <g id="Graphic_13">
          <path d="M 133.77146 213.3756 C 135.41777 214.38332 142.6824 214.9228 142.66819 214.1087 C 142.66044 213.66464 141.76715 213.3841 140.657 213.40348 C 139.47283 213.42415 137.24865 213.24087 135.61655 213.04726 C 133.6144 212.8601 133.02361 212.94446 133.77146 213.3756 Z" fill="#cccccc"/>
        </g>
        <g id="Graphic_12">
          <path d="M 126.16742 218.83869 C 126.54393 219.20228 130.54952 219.6506 134.994 219.7951 C 142.62351 220.0321 142.99227 219.95163 140.53314 219.03213 C 137.47676 217.82692 124.96259 217.6752 126.16742 218.83869 Z" fill="#cccccc"/>
        </g>
        <g id="Graphic_11">
          <path d="M 187.42163 220.5087 C 186.90614 220.66576 186.47113 221.19159 186.4763 221.48763 C 186.4905 222.30174 191.7323 221.46991 192.75295 220.5637 C 193.48013 219.81069 188.96422 219.81548 187.42163 220.5087 Z" fill="#cccccc"/>
        </g>
        <g id="Graphic_10">
          <path d="M 121.28329 227.4377 C 120.48339 228.26602 121.7997 231.57452 123.37587 232.80556 C 124.35092 233.52887 126.95936 234.5198 129.26272 234.99782 C 131.86341 235.5447 133.43054 236.25766 133.44088 236.84974 C 133.46413 238.18193 132.21888 238.944 131.61 237.9922 C 131.00113 237.0404 126.04245 237.12695 126.05924 238.08908 C 126.0657 238.45913 126.96028 238.81368 127.99642 238.7956 C 130.14272 238.75813 132.75374 239.89708 132.77183 240.93322 C 132.77958 241.37728 132.26668 241.68237 131.6746 241.6927 C 129.38028 241.73275 131.26412 243.62472 137.24824 247.14787 C 137.92079 247.5063 139.64498 248.73475 141.07055 249.82036 C 144.44494 252.27857 149.13083 253.52937 164.87266 256.2159 C 169.32748 256.9525 169.84426 256.86945 172.04002 255.4245 C 173.358 254.58714 174.37863 253.68093 174.44619 253.3096 C 174.43327 252.56948 171.62217 252.69258 169.93544 253.61042 C 168.54346 254.44908 161.86833 253.75123 155.54905 252.2328 C 150.56711 250.9872 144.0103 248.58452 143.99866 247.91843 C 143.98445 247.10432 155.2495 247.79608 160.52748 249.03654 C 166.62215 250.4108 168.69314 250.30063 168.14536 248.60744 C 167.83253 247.65048 168.26625 247.05064 169.73483 246.3587 C 170.83723 245.89528 172.7434 244.82554 173.91336 243.99076 C 175.15732 243.1547 176.84793 242.45889 177.81006 242.4421 C 178.91892 242.3487 179.42924 241.8956 179.41245 240.93347 C 179.37886 239.0092 180.47868 238.39774 184.02988 238.26172 C 185.6568 238.1593 187.13055 237.7634 187.27082 237.31676 C 187.48252 236.7208 184.44164 236.40372 178.0703 236.14477 C 172.88572 236.01317 167.47522 235.6634 166.21318 235.46334 C 164.80182 235.19185 163.76826 235.35795 163.776 235.802 C 163.79797 237.0602 168.33714 238.38758 172.63102 238.38666 C 175.66543 238.3337 176.78075 238.61036 176.79496 239.42447 C 176.82726 241.27472 172.68915 241.71712 164.60396 240.8218 C 160.30103 240.30463 152.66894 239.91962 147.56224 240.00876 C 140.82602 240.0523 138.00717 239.73135 137.25545 239.07818 C 135.4469 237.25893 137.06092 236.4164 142.38965 236.32338 C 145.6461 236.26654 147.41718 235.9395 147.11338 235.5006 C 146.8836 235.0604 145.84617 235.0045 144.96192 235.24202 C 143.19343 235.7171 135.62501 234.7387 131.15986 233.41002 C 125.7274 231.8021 124.4589 231.23197 124.4421 230.26984 C 124.42789 229.45573 125.68477 229.35976 130.5759 229.64455 C 133.91023 229.80844 137.24974 230.26838 137.921 230.5528 C 139.56472 231.4125 144.22607 231.2571 144.72993 230.43394 C 144.9455 230.06002 141.75144 229.44948 137.52381 229.00504 C 133.3702 228.5593 128.76994 227.97332 127.35729 227.6278 C 124.45798 226.9381 121.86504 226.83529 121.28329 227.4377 Z" fill="#cccccc"/>
        </g>
        <g id="Graphic_9">
          <path d="M 145.6819 242.5587 C 148.96289 243.90805 148.91472 245.38954 145.51541 245.745 C 143.15096 246.00838 138.00163 243.65518 137.97709 242.249 C 137.959 241.21284 142.69953 241.3522 145.6819 242.5587 Z" fill="#ff0000"/>
        </g>
        <g id="Graphic_8">
          <path d="M 165.39315 243.62125 C 165.42674 245.54552 161.73656 246.2022 158.23225 244.7827 L 156.14575 244.00477 L 158.72706 243.44148 C 163.22618 242.47456 165.37377 242.5111 165.39315 243.62125 Z" fill="#ff0000"/>
        </g>
        <g id="Graphic_7">
          <path d="M 175.09515 226.86858 C 175.32364 227.23475 177.03233 227.5751 178.88258 227.5428 C 180.65883 227.5118 182.13257 227.1159 182.12611 226.74585 C 182.11836 226.3018 180.41096 226.03546 178.33868 226.07163 C 176.04436 226.11168 174.79135 226.42968 175.09515 226.86858 Z" fill="#cccccc"/>
        </g>
        <g id="Graphic_6">
          <path d="M 190.26723 226.60375 C 190.2737 226.9738 190.94624 227.33222 191.76035 227.318 C 192.57447 227.3038 193.2341 226.92212 193.22764 226.55207 C 193.21989 226.108 192.54863 225.8236 191.73452 225.8378 C 190.9204 225.85202 190.25948 226.15968 190.26723 226.60375 Z" fill="#cccccc"/>
        </g>
        <g id="Graphic_5">
          <path d="M 168.88825 231.78904 C 169.41666 232.37208 170.46184 232.87207 171.20195 232.85915 C 172.01606 232.84494 172.5991 232.31653 172.58876 231.72445 C 172.57584 230.98435 171.82928 230.62722 170.27507 230.65435 C 168.2768 230.68923 168.05735 230.84112 168.88825 231.78904 Z" fill="#cccccc"/>
        </g>
        <g id="Graphic_4">
          <path d="M 281.46226 149.49855 C 281.46872 149.8686 281.84523 150.2322 282.21528 150.22573 C 282.65934 150.21798 282.94892 149.84277 282.94247 149.47271 C 282.9347 149.02865 282.6335 148.73778 282.18945 148.74553 C 281.8194 148.75199 281.4545 149.05449 281.46226 149.49855 Z" fill="#cccccc"/>
        </g>
      </g>
    </g>
  </g>
</svg>
