<?xml version="1.0" encoding="UTF-8" standalone="no"?>
<!DOCTYPE svg PUBLIC "-//W3C//DTD SVG 1.1//EN" "http://www.w3.org/Graphics/SVG/1.1/DTD/svg11.dtd">
<svg xmlns:dc="http://purl.org/dc/elements/1.1/" xmlns:xl="http://www.w3.org/1999/xlink" version="1.1" xmlns="http://www.w3.org/2000/svg" viewBox="95.4284 62.73172 76 351" width="76" height="351">
  <defs>
    <clipPath id="artboard_clip_path">
      <path d="M 95.4284 62.73172 L 171.4284 62.73172 L 171.4284 413.7317 L 95.4284 413.7317 Z"/>
    </clipPath>
    <clipPath id="outer_stroke_clip_path">
      <path d="M 95.4284 62.73172 L 171.4284 62.73172 L 171.4284 413.7317 L 95.4284 413.7317 Z M 123.25275 91.34753 L 123.25275 91.34753 C 123.55818 90.9855 123.40965 90.21472 122.98066 89.86955 C 122.64132 89.58456 122.29398 89.55951 120.85688 89.78622 C 119.934 89.92109 117.5616 90.04542 115.59557 90.08358 C 113.62842 90.10016 110.6056 90.1937 108.83594 90.26482 C 106.87218 90.34611 105.65989 90.32314 105.6531 90.19373 C 105.63728 89.89179 106.43546 89.02815 108.41211 87.12955 C 109.31925 86.28182 110.47051 85.14016 110.98257 84.59428 C 111.88406 83.63872 113.9209 81.65046 114.91092 80.73351 C 115.17886 80.48157 116.06557 79.656545 116.86939 78.90074 C 117.67322 78.144935 118.76769 77.15763 119.30696 76.71846 C 119.84624 76.2793 120.7579 75.51784 121.33919 75.05484 C 122.3553 74.22303 122.37686 74.2219 122.78542 74.58977 C 123.0351 74.81458 123.34382 74.92816 123.49253 74.87711 C 123.95684 74.65814 124.28515 73.49472 124.09688 72.79091 C 123.9914 72.42879 124.01983 72.14615 124.12767 72.1405 C 124.2355 72.13485 125.12447 71.352955 126.11224 70.39287 C 127.10113 69.45435 128.63043 68.09824 129.54548 67.40148 L 131.20983 66.14642 L 132.633 67.30455 C 133.42403 67.95515 134.26611 68.754454 134.49987 69.08823 C 134.71093 69.40157 135.511 70.2247 136.25889 70.87756 C 137.57423 72.04134 139.58857 74.16331 140.79033 75.63582 C 141.09105 76.00934 141.86616 76.7689 142.5017 77.34114 C 143.8613 78.52423 145.7565 80.43618 146.26829 81.12304 C 146.45552 81.39437 147.07514 82.07558 147.64597 82.65121 C 148.2168 83.22684 149.3142 84.35879 150.09045 85.13992 C 150.86782 85.94261 152.16498 87.17223 152.9367 87.86709 C 153.72999 88.56082 154.32465 89.17845 154.2622 89.22498 C 154.2009 89.29307 152.49481 89.33923 150.48453 89.35808 C 148.45154 89.35649 145.14608 89.42159 143.13919 89.50514 C 137.52828 89.73432 136.68489 89.73526 136.3092 89.58194 C 136.04474 89.48767 135.83698 89.64994 135.56216 90.18338 C 135.28735 90.71682 134.93427 90.99485 134.35986 91.17634 C 133.35976 91.48827 133.2087 91.90709 133.95894 92.19217 C 134.31306 92.34663 134.5423 92.59413 134.55812 92.89607 C 134.57055 93.13332 134.69534 93.45117 134.83153 93.5738 C 134.99041 93.71686 135.02301 95.16413 134.95531 98.41167 C 134.91615 100.96566 134.89385 104.25408 134.90714 105.74562 C 134.942 107.23603 134.93005 109.89672 134.89446 111.6936 C 134.79805 116.4565 134.79194 118.40322 134.85731 120.47595 C 134.89113 121.53388 134.81033 122.46806 134.66953 122.67008 C 134.5276 122.85053 134.50368 123.21943 134.58307 123.49642 L 134.73847 123.98569 L 132.37972 123.95792 C 131.08229 123.96103 129.00504 123.94014 127.75187 123.96256 C 126.49757 123.96342 124.07411 123.93904 122.34307 123.92163 C 120.6109 123.88264 118.42581 123.8674 117.47459 123.874 C 110.57538 123.86792 110.55381 123.86905 109.76504 123.26159 C 109.20099 122.81536 108.95923 122.74153 108.6652 122.90832 C 108.16228 123.21583 108.07252 123.56656 108.32776 124.31011 C 108.53195 124.90495 108.59384 127.32389 108.4425 128.97545 C 108.42084 129.38749 108.43734 131.76555 108.50375 134.27075 C 108.56903 136.7544 108.58892 139.19716 108.55021 139.6966 C 108.48307 140.47868 108.53524 140.64895 109.0732 141.01004 C 109.56803 141.37339 109.96077 141.43931 111.12314 141.33514 C 113.27762 141.17897 127.68444 141.24576 130.8298 141.42694 C 131.84912 141.48165 133.9275 141.52412 135.48374 141.50744 C 137.01841 141.49189 140.3284 141.51306 142.83925 141.55448 C 145.32854 141.59704 148.83489 141.65117 150.63176 141.68676 C 152.40594 141.70191 154.94062 141.78534 156.26189 141.82423 C 157.56158 141.86425 159.8579 141.93854 161.33013 141.96952 C 163.2564 141.99833 164.10544 142.10522 164.35512 142.33003 C 164.62862 142.59684 164.7261 143.2189 164.86296 145.41764 C 165.03147 148.22027 165.41684 160.93815 165.46923 165.2391 C 165.4939 166.5354 165.52745 168.82606 165.5623 170.31647 C 165.64305 174.7457 165.54596 177.43249 165.29846 177.66172 C 164.84319 178.05323 163.74551 178.15401 160.5445 178.14876 C 158.74876 178.13474 152.68154 178.32295 147.04794 178.53169 C 141.41546 178.762 135.78073 178.94916 134.52756 178.97158 C 133.27439 178.994 129.68855 179.0738 126.53633 179.17412 C 117.6404 179.4457 111.50283 179.52946 110.26105 179.35665 C 109.88989 179.2896 109.46419 179.42004 109.15085 179.6311 C 108.65132 180.0033 108.63428 180.0907 108.81653 182.33032 C 108.97495 184.52793 108.97489 189.89133 108.81705 190.18075 C 108.77843 190.26928 108.7532 191.43844 108.75971 192.80057 C 108.74785 195.05036 108.80455 195.3069 109.21989 195.80418 L 109.6795 196.32076 L 114.49693 196.21968 C 117.15424 196.16692 120.13845 196.1619 121.15777 196.21662 C 122.17596 196.24977 123.51426 196.20126 124.11363 196.08334 C 124.73456 195.9643 125.31688 195.93377 125.43037 196.03596 C 125.72544 196.30164 126.42012 196.35174 129.92081 196.29804 C 131.69273 196.27005 133.74615 196.24894 134.46013 196.25478 C 138.29112 196.31353 141.34003 196.30512 142.67947 196.27818 C 145.52863 196.17212 153.9239 196.25118 155.22698 196.3559 C 155.94435 196.42644 157.11351 196.45167 157.82637 196.43594 C 159.9411 196.34673 164.83567 196.4795 165.08083 196.61804 C 165.25902 196.71683 165.35744 198.18228 165.43724 201.76812 C 165.51608 204.51057 165.60153 208.20424 165.67377 209.99546 C 165.72332 211.76625 165.75668 214.87873 165.71196 216.91398 C 165.6661 218.92765 165.63146 221.56792 165.6505 222.75638 C 165.64796 223.94598 165.65672 225.35125 165.64185 225.8927 C 165.62697 226.43414 165.61295 228.22988 165.63528 229.89396 C 165.6693 235.08256 165.60717 238.84885 165.46863 239.094 C 165.29035 239.40612 157.66803 239.63258 143.16015 239.70085 C 141.1283 239.72083 140.02045 239.6275 139.90357 239.4606 C 139.81052 239.33573 139.53927 239.11205 139.29525 238.99508 C 138.94 238.81906 138.76972 238.87124 138.42116 239.23553 C 137.98972 239.66905 137.81718 239.6781 131.4435 239.79585 C 127.83497 239.8552 124.80763 239.86248 124.6964 239.80343 C 124.58404 239.7228 122.57376 239.74166 120.24222 239.8206 C 117.90955 239.87797 115.20685 239.88985 114.25223 239.83175 C 113.29649 239.75208 112.10576 239.72797 111.56657 239.75623 C 111.04896 239.78336 110.43829 239.6856 110.25671 239.5221 C 109.26479 238.75228 108.18294 239.155 108.30642 240.2731 C 108.42424 241.2834 108.52909 244.52189 108.47899 245.21656 C 108.4335 245.5866 108.44086 248.20303 108.46066 251.0567 C 108.53709 259.53033 108.54048 259.59504 108.05442 260.63696 C 107.74325 261.30207 107.69663 261.65053 107.85552 261.7936 C 108.12789 262.03884 109.77379 262.08234 119.08854 261.96183 C 120.51538 261.95193 122.6562 261.94787 123.8458 261.9504 C 127.69723 261.98645 128.51792 261.96507 134.542 261.77912 C 139.76695 261.61342 142.59793 261.5732 146.53562 261.60472 C 147.11907 261.59577 149.41087 261.5838 151.61526 261.55477 C 153.81852 261.50418 156.00474 261.541 156.48487 261.62396 C 157.31348 261.75355 160.15463 261.90743 163.79264 261.9979 C 164.72456 262.03558 165.53046 262.14473 165.59968 262.2276 C 165.9038 262.66583 166.17443 270.71837 166.19737 279.82197 C 166.19645 283.93108 166.61215 298.0531 166.78433 299.6877 C 166.83076 300.16104 166.73187 300.75015 166.59334 300.9953 C 166.31174 301.39934 166.16077 301.40725 162.65329 301.33155 C 157.91308 301.25557 150.82203 301.3028 150.63357 301.4208 C 150.5507 301.49003 149.14542 301.4988 147.50065 301.47686 C 144.88083 301.41952 140.38238 301.4174 132.83728 301.46678 C 131.64768 301.46425 128.81784 301.52605 126.57144 301.5789 C 124.30234 301.6113 121.68591 301.61867 120.7313 301.56056 C 119.77668 301.50246 117.28852 301.48147 115.21466 301.52528 C 113.13967 301.54752 110.86718 301.51523 110.14981 301.4447 C 109.25763 301.34006 108.80472 301.3638 108.64122 301.54538 C 108.5186 301.68157 108.4491 302.83142 108.49987 304.21286 C 108.77371 313.15193 108.78242 319.9206 108.56195 321.07836 C 108.47445 321.47223 108.55837 321.8355 108.81483 322.1897 C 109.02363 322.4599 109.1972 322.88333 109.20964 323.12057 C 109.25598 324.00484 109.71568 324.1105 112.80094 323.97044 C 114.41963 323.90723 115.80333 323.8996 115.89186 323.9382 C 116.00309 323.99726 118.0145 323.99998 120.39144 323.9619 C 122.76837 323.92385 124.75709 323.90614 124.82405 323.94588 C 124.89101 323.98562 126.57779 323.98373 128.60851 323.9422 C 130.6188 323.92334 133.92426 323.85824 135.95498 323.8167 C 137.96527 323.79784 139.82346 323.76534 140.05957 323.73134 C 140.2968 323.7189 141.66007 323.73397 143.08917 323.7672 C 147.59214 323.8556 148.65233 323.86493 151.5287 323.86557 C 153.06338 323.85002 154.38351 323.86734 154.47204 323.90596 C 154.539 323.9457 155.64346 323.97433 156.96246 323.97008 C 158.26103 323.98853 161.02843 323.97326 163.08298 323.9737 C 166.37027 323.97445 166.91397 324.03246 167.19086 324.36398 C 167.42236 324.6546 167.52088 325.70916 167.6278 329.8126 C 167.7089 332.5982 167.82713 336.9173 167.91511 339.4214 C 167.9804 341.90503 168.07045 345.27406 168.08939 346.87344 C 168.10833 348.4728 168.18925 352.0802 168.27036 354.8658 C 168.49908 362.53126 168.47894 366.2737 168.21326 366.5688 C 167.98845 366.81846 159.50343 367.09013 149.69037 367.1935 C 148.37137 367.19775 145.28158 367.25155 142.81951 367.3157 C 139.55719 367.37854 138.2575 367.3385 138.03165 367.1557 C 137.66848 366.82872 135.78986 366.88393 135.61271 367.2176 C 135.53322 367.35153 135.67506 367.582 135.89978 367.74323 C 136.27999 367.98282 136.33894 368.2825 136.41449 370.54934 C 136.48683 371.92965 136.5522 374.0024 136.61098 375.1239 C 136.64819 376.2465 136.61929 378.5837 136.53717 380.31814 C 136.45506 382.05257 136.4205 384.2819 136.47363 385.2956 C 136.50519 386.3104 136.43908 387.52494 136.2914 388.00847 C 135.93927 389.1299 135.93927 389.1299 136.48402 389.62037 C 136.93797 390.0291 136.9811 390.02685 137.54534 389.65125 C 138.08914 389.29835 138.47622 389.25644 141.68062 389.3264 C 143.65004 389.35294 145.9634 389.33984 146.84879 389.31506 C 147.73305 389.2687 149.20641 389.32127 150.09746 389.40433 L 151.72858 389.57836 L 149.90742 391.5553 C 148.88443 392.66864 147.97955 393.5595 147.85014 393.5663 C 147.65604 393.57645 146.68984 394.5354 143.41087 397.9945 C 142.67287 398.7685 141.25367 400.1621 140.24208 401.08016 C 139.23162 402.0198 137.83399 403.41227 137.1187 404.2067 C 136.40227 404.97954 135.37589 406.02816 134.83888 406.51046 C 134.2803 406.9939 133.2914 407.9324 132.61359 408.61673 C 131.93464 409.2795 131.04228 409.9967 130.64155 410.1907 C 129.96721 410.5288 129.90251 410.5322 129.66875 410.1984 C 129.19898 409.48774 126.10662 405.77864 125.88417 405.66053 C 125.75024 405.58105 125.445 405.12126 125.20333 404.6365 C 124.9401 404.1529 124.52023 403.56935 124.25012 403.36724 C 124.00045 403.14244 123.77008 402.87336 123.7633 402.74396 C 123.73843 402.2695 119.89489 397.4319 117.60364 394.9784 C 117.21439 394.5663 116.70374 393.901 116.46659 393.5025 C 116.25214 393.1245 115.44303 392.1288 114.68496 391.28185 C 113.8815 390.394 113.36746 389.664 113.44582 389.50852 C 113.60479 389.24067 113.56166 389.24293 121.78439 389.33104 C 125.98202 389.37057 126.40998 389.28326 126.55096 388.2594 C 126.59758 387.91095 126.63081 386.48185 126.62092 385.055 C 126.61102 383.6282 126.59678 381.29325 126.58688 379.8664 C 126.57699 378.43958 126.61258 376.6427 126.70129 375.8595 C 126.76844 375.0774 126.79159 373.0433 126.76587 371.31452 C 126.60778 362.52078 126.62791 358.7783 126.88116 358.246 C 127.07649 357.8465 127.3353 357.83293 133.59662 357.63455 C 139.4913 357.4554 143.27237 357.387 154.0571 357.2543 C 157.44995 357.20626 157.66563 357.19495 157.86095 356.79544 C 157.95749 356.5741 157.98865 354.28006 157.91998 351.7317 C 157.85017 349.1618 157.84159 346.9347 157.89725 346.7588 C 157.93134 346.584 157.89337 343.79615 157.78853 340.55765 C 157.63856 336.04555 157.54353 334.6448 157.32107 334.5267 C 157.09749 334.38703 155.54124 334.4037 149.9292 334.6113 C 148.00858 334.69035 133.35538 334.87437 131.45067 334.84443 C 130.43361 334.83285 128.05668 334.8709 126.15536 334.90568 C 124.25404 334.94044 121.03259 334.9579 119.02117 334.95517 C 114.78153 334.93946 107.36584 334.98208 102.41674 335.0468 L 99.02388 335.09486 L 98.95426 331.70313 C 98.92176 329.84495 98.88256 327.44645 98.89188 326.38626 C 98.90007 325.3045 98.88922 323.03427 98.8635 321.3055 C 98.83778 319.5767 98.82458 317.67426 98.8372 317.08968 C 98.89436 315.29168 98.87474 311.61618 98.7937 303.4672 C 98.7838 302.04036 98.72992 299.3615 98.67697 297.526 C 98.60247 295.69164 98.66075 293.9152 98.77207 293.56334 L 98.9788 292.9686 L 102.25704 292.7968 C 105.66581 292.63976 111.73868 292.5594 120.8014 292.58185 C 121.9263 292.58777 124.99678 292.57824 127.61208 292.5493 C 130.22852 292.54195 133.96871 292.51895 135.93813 292.5455 C 137.90641 292.55048 141.06316 292.53642 142.96448 292.50166 C 144.86693 292.48846 146.46743 292.4911 146.5344 292.53083 C 146.60136 292.57058 147.46858 292.61164 148.48563 292.6232 C 149.50382 292.65636 150.80351 292.69638 151.4108 292.72943 C 153.32115 292.8672 156.3145 292.62383 156.59949 292.2845 C 156.84473 292.01212 156.85008 288.4002 156.63795 282.7019 C 156.61308 282.2274 156.6418 280.71204 156.67843 279.34764 C 156.71505 277.98325 156.71787 275.56092 156.67849 273.98424 C 156.62686 271.3485 156.5906 271.06925 156.18204 270.7014 C 155.66 270.23133 155.24909 270.23124 154.90505 270.6818 C 154.68363 270.99618 154.08087 271.0494 150.77654 271.13606 C 148.65955 271.18213 146.86494 271.18967 146.75484 271.1522 C 146.66518 271.092 144.61063 271.09155 142.17012 271.15457 C 139.72849 271.19603 136.80898 271.19765 135.68183 271.1486 C 134.55467 271.09952 131.63516 271.10114 129.19466 271.16416 C 124.9391 271.25743 123.57697 271.26393 120.97645 271.16233 C 118.76528 271.06195 116.79812 271.07853 108.11448 271.2741 C 103.36287 271.39337 99.2969 271.3902 99.07558 271.29365 C 98.74302 271.13807 98.66815 270.94735 98.74886 270.4241 C 98.91941 269.13918 98.91874 267.06306 98.77904 262.33415 C 98.63247 257.88675 98.64188 256.41565 98.79444 254.37475 C 98.83428 253.89688 98.82899 252.1454 98.80553 250.45975 C 98.69531 245.8807 98.68868 239.97697 98.83144 236.09833 C 98.86807 234.73393 98.89678 233.21856 98.89348 232.74295 C 98.84619 231.0153 98.69861 231.08792 103.46952 230.9244 C 107.52871 230.79816 107.70238 230.8107 108.02806 231.24778 C 108.42409 231.78931 108.6409 231.79958 109.47873 231.27988 C 109.96121 230.99508 110.64685 230.87264 112.4812 230.79813 C 114.7049 230.72485 123.97652 230.6066 126.63835 230.6401 C 129.49429 230.66345 134.79977 230.7963 137.8986 230.91505 C 139.74087 230.9915 142.51166 231.04094 144.0679 231.02426 C 148.86717 230.989 150.29626 231.02224 151.42907 231.17914 C 153.36665 231.42362 154.67774 231.2684 155.49061 230.68514 C 155.88683 230.40486 156.21269 230.02013 156.22521 229.84646 C 156.21504 229.65235 156.30931 229.3879 156.4115 229.2744 C 156.53412 229.13822 156.55954 227.14723 156.4807 224.4048 C 156.31613 219.2014 156.30773 216.1525 156.41734 213.29203 C 156.4471 212.20914 156.47233 211.03998 156.45424 210.6949 C 156.43503 210.32826 156.424 208.87985 156.43454 207.43032 C 156.4657 205.13626 156.42491 204.77075 156.08558 204.48576 C 155.6305 204.05545 154.93921 204.07005 154.01172 204.52957 C 153.25225 204.89377 150.66303 205.00784 122.20446 205.87212 C 104.08909 206.43222 99.33748 206.55148 99.02537 206.3732 C 98.89144 206.29371 98.79048 206.01786 98.84162 205.75566 C 98.92233 205.2324 98.94114 202.29019 98.89205 198.46485 C 98.88555 197.10271 98.92217 195.73832 98.97105 195.43298 C 99.01993 195.12765 99.04978 193.63385 99.01153 192.07874 C 98.97441 190.5452 98.95104 188.44864 98.96262 187.43158 C 98.95263 186.41565 98.93491 184.42693 98.92502 183.0001 C 98.91512 181.57326 98.90983 179.82178 98.93724 179.10667 C 98.96464 178.39155 98.98092 176.63894 98.95059 175.2348 C 98.94182 173.82953 98.98636 172.6161 99.04767 172.54801 C 99.35423 172.20755 125.23385 171.24053 130.88554 171.37687 C 131.7732 171.39523 133.09333 171.41256 133.80844 171.43996 C 134.52243 171.4458 138.022 171.37052 141.584 171.24872 C 145.14714 171.1485 148.99291 171.0767 150.12007 171.12577 C 151.24722 171.17483 153.2155 171.1798 154.46641 171.11425 C 156.75255 170.99444 156.77412 170.9933 156.87527 170.44734 C 156.94458 170.11931 156.83345 169.64935 156.62013 169.29288 C 156.19235 168.55836 156.18896 168.49366 156.05962 163.13704 C 155.99999 160.76124 155.92924 157.34794 155.87969 155.57716 C 155.85058 153.78368 155.86799 152.05263 155.91574 151.72573 C 156.10664 150.82904 155.5586 149.86293 154.91157 149.89684 C 154.6312 149.91154 154.22594 150.01928 154.01704 150.15999 C 153.76502 150.30296 152.08276 150.39112 149.33692 150.40526 C 144.42983 150.44617 141.05854 150.49309 132.54517 150.63648 C 129.2397 150.70158 126.47117 150.69529 126.38264 150.65668 C 126.29411 150.61806 123.50627 150.65603 120.18037 150.74383 C 116.8556 150.8532 113.59102 150.8729 112.93835 150.79897 C 112.28454 150.70347 110.03475 150.69162 107.9609 150.73543 C 102.3239 150.87946 99.46683 150.83456 99.00149 150.62105 C 98.60197 150.42572 98.59293 150.25319 98.59348 147.78772 C 98.62671 146.35862 98.60683 143.91586 98.54701 142.36188 C 98.5099 140.82833 98.51931 139.35723 98.57158 139.1166 C 98.62384 138.87597 98.59378 136.2391 98.50364 133.28098 C 98.43392 130.30016 98.41761 127.10027 98.49728 126.14453 C 98.61801 124.32156 98.62375 124.01849 98.49463 122.79254 C 98.3848 121.52233 98.41633 117.58463 98.55487 117.33948 C 98.65479 117.18286 99.51523 117.09451 101.202 117.09262 C 105.28954 117.09466 110.11715 117.18768 110.27377 117.28761 C 110.3623 117.32622 111.83454 117.3572 113.54175 117.33261 C 115.25009 117.32958 116.72233 117.36056 116.78929 117.4003 C 116.87782 117.43892 118.17525 117.4358 119.6861 117.37825 C 122.14817 117.3141 122.44785 117.25514 122.70901 116.8738 C 123.00879 116.40393 123.09344 113.4799 122.92548 108.21181 C 122.69564 100.52478 122.86332 91.75722 123.25275 91.34753 Z"/>
    </clipPath>
  </defs>
  <metadata> Produced by OmniGraffle 7.8 
    <dc:date>2018-07-23 01:15:12 +0000</dc:date><dc:title>Traceable heraldic art http://heraldicart.org/credits.html</dc:title>
  </metadata>
  <g id="Lightning_Bolt_(1)" fill-opacity="1" stroke-dasharray="none" stroke="none" stroke-opacity="1" fill="#ffff00">
    <title>Lightning Bolt (1)</title>
    <g id="Lightning_Bolt_(1): Layer 2" >
      <title>Layer 2</title>
      <g id="Graphic_5">
        <path d="M 123.25275 91.34753 L 123.25275 91.34753 C 122.86332 91.75722 122.69564 100.52478 122.92548 108.21181 C 123.09344 113.4799 123.00879 116.40393 122.70901 116.8738 C 122.44785 117.25514 122.14817 117.3141 119.6861 117.37825 C 118.17525 117.4358 116.87782 117.43892 116.78929 117.4003 C 116.72233 117.36056 115.25009 117.32958 113.54175 117.33261 C 111.83454 117.3572 110.3623 117.32622 110.27377 117.28761 C 110.11715 117.18768 105.28954 117.09466 101.202 117.09262 C 99.51523 117.09451 98.65479 117.18286 98.55487 117.33948 C 98.41633 117.58463 98.3848 121.52233 98.49463 122.79254 C 98.62375 124.01849 98.61801 124.32156 98.49728 126.14453 C 98.41761 127.10027 98.43392 130.30016 98.50364 133.28098 C 98.59378 136.2391 98.62384 138.87597 98.57158 139.1166 C 98.51931 139.35723 98.5099 140.82833 98.54701 142.36188 C 98.60683 143.91586 98.62671 146.35862 98.59348 147.78772 C 98.59293 150.25319 98.60197 150.42572 99.00149 150.62105 C 99.46683 150.83456 102.3239 150.87946 107.9609 150.73543 C 110.03475 150.69162 112.28454 150.70347 112.93835 150.79897 C 113.59102 150.8729 116.8556 150.8532 120.18037 150.74383 C 123.50627 150.65603 126.29411 150.61806 126.38264 150.65668 C 126.47117 150.69529 129.2397 150.70158 132.54517 150.63648 C 141.05854 150.49309 144.42983 150.44617 149.33692 150.40526 C 152.08276 150.39112 153.76502 150.30296 154.01704 150.15999 C 154.22594 150.01928 154.6312 149.91154 154.91157 149.89684 C 155.5586 149.86293 156.10664 150.82904 155.91574 151.72573 C 155.86799 152.05263 155.85058 153.78368 155.87969 155.57716 C 155.92924 157.34794 155.99999 160.76124 156.05962 163.13704 C 156.18896 168.49366 156.19235 168.55836 156.62013 169.29288 C 156.83345 169.64935 156.94458 170.11931 156.87527 170.44734 C 156.77412 170.9933 156.75255 170.99444 154.46641 171.11425 C 153.2155 171.1798 151.24722 171.17483 150.12007 171.12577 C 148.99291 171.0767 145.14714 171.1485 141.584 171.24872 C 138.022 171.37052 134.52243 171.4458 133.80844 171.43996 C 133.09333 171.41256 131.7732 171.39523 130.88554 171.37687 C 125.23385 171.24053 99.35423 172.20755 99.04767 172.54801 C 98.98636 172.6161 98.94182 173.82953 98.95059 175.2348 C 98.98092 176.63894 98.96464 178.39155 98.93724 179.10667 C 98.90983 179.82178 98.91512 181.57326 98.92502 183.0001 C 98.93491 184.42693 98.95263 186.41565 98.96262 187.43158 C 98.95104 188.44864 98.97441 190.5452 99.01153 192.07874 C 99.04978 193.63385 99.01993 195.12765 98.97105 195.43298 C 98.92217 195.73832 98.88555 197.10271 98.89205 198.46485 C 98.94114 202.29019 98.92233 205.2324 98.84162 205.75566 C 98.79048 206.01786 98.89144 206.29371 99.02537 206.3732 C 99.33748 206.55148 104.08909 206.43222 122.20446 205.87212 C 150.66303 205.00784 153.25225 204.89377 154.01172 204.52957 C 154.93921 204.07005 155.6305 204.05545 156.08558 204.48576 C 156.42491 204.77075 156.4657 205.13626 156.43454 207.43032 C 156.424 208.87985 156.43503 210.32826 156.45424 210.6949 C 156.47233 211.03998 156.4471 212.20914 156.41734 213.29203 C 156.30773 216.1525 156.31613 219.2014 156.4807 224.4048 C 156.55954 227.14723 156.53412 229.13822 156.4115 229.2744 C 156.30931 229.3879 156.21504 229.65235 156.22521 229.84646 C 156.21269 230.02013 155.88683 230.40486 155.49061 230.68514 C 154.67774 231.2684 153.36665 231.42362 151.42907 231.17914 C 150.29626 231.02224 148.86717 230.989 144.0679 231.02426 C 142.51166 231.04094 139.74087 230.9915 137.8986 230.91505 C 134.79977 230.7963 129.49429 230.66345 126.63835 230.6401 C 123.97652 230.6066 114.7049 230.72485 112.4812 230.79813 C 110.64685 230.87264 109.96121 230.99508 109.47873 231.27988 C 108.6409 231.79958 108.42409 231.78931 108.02806 231.24778 C 107.70238 230.8107 107.52871 230.79816 103.46952 230.9244 C 98.69861 231.08792 98.84619 231.0153 98.89348 232.74295 C 98.89678 233.21856 98.86807 234.73393 98.83144 236.09833 C 98.68868 239.97697 98.69531 245.8807 98.80553 250.45975 C 98.82899 252.1454 98.83428 253.89688 98.79444 254.37475 C 98.64188 256.41565 98.63247 257.88675 98.77904 262.33415 C 98.91874 267.06306 98.91941 269.13918 98.74886 270.4241 C 98.66815 270.94735 98.74302 271.13807 99.07558 271.29365 C 99.2969 271.3902 103.36287 271.39337 108.11448 271.2741 C 116.79812 271.07853 118.76528 271.06195 120.97645 271.16233 C 123.57697 271.26393 124.9391 271.25743 129.19466 271.16416 C 131.63516 271.10114 134.55467 271.09952 135.68183 271.1486 C 136.80898 271.19765 139.72849 271.19603 142.17012 271.15457 C 144.61063 271.09155 146.66518 271.092 146.75484 271.1522 C 146.86494 271.18967 148.65955 271.18213 150.77654 271.13606 C 154.08087 271.0494 154.68363 270.99618 154.90505 270.6818 C 155.24909 270.23124 155.66 270.23133 156.18204 270.7014 C 156.5906 271.06925 156.62686 271.3485 156.67849 273.98424 C 156.71787 275.56092 156.71505 277.98325 156.67843 279.34764 C 156.6418 280.71204 156.61308 282.2274 156.63795 282.7019 C 156.85008 288.4002 156.84473 292.01212 156.59949 292.2845 C 156.3145 292.62383 153.32115 292.8672 151.4108 292.72943 C 150.80351 292.69638 149.50382 292.65636 148.48563 292.6232 C 147.46858 292.61164 146.60136 292.57058 146.5344 292.53083 C 146.46743 292.4911 144.86693 292.48846 142.96448 292.50166 C 141.06316 292.53642 137.90641 292.55048 135.93813 292.5455 C 133.96871 292.51895 130.22852 292.54195 127.61208 292.5493 C 124.99678 292.57824 121.9263 292.58777 120.8014 292.58185 C 111.73868 292.5594 105.66581 292.63976 102.25704 292.7968 L 98.9788 292.9686 L 98.77207 293.56334 C 98.66075 293.9152 98.60247 295.69164 98.67697 297.526 C 98.72992 299.3615 98.7838 302.04036 98.7937 303.4672 C 98.87474 311.61618 98.89436 315.29168 98.8372 317.08968 C 98.82458 317.67426 98.83778 319.5767 98.8635 321.3055 C 98.88922 323.03427 98.90007 325.3045 98.89188 326.38626 C 98.88256 327.44645 98.92176 329.84495 98.95426 331.70313 L 99.02388 335.09486 L 102.41674 335.0468 C 107.36584 334.98208 114.78153 334.93946 119.02117 334.95517 C 121.03259 334.9579 124.25404 334.94044 126.15536 334.90568 C 128.05668 334.8709 130.43361 334.83285 131.45067 334.84443 C 133.35538 334.87437 148.00858 334.69035 149.9292 334.6113 C 155.54124 334.4037 157.09749 334.38703 157.32107 334.5267 C 157.54353 334.6448 157.63856 336.04555 157.78853 340.55765 C 157.89337 343.79615 157.93134 346.584 157.89725 346.7588 C 157.84159 346.9347 157.85017 349.1618 157.91998 351.7317 C 157.98865 354.28006 157.95749 356.5741 157.86095 356.79544 C 157.66563 357.19495 157.44995 357.20626 154.0571 357.2543 C 143.27237 357.387 139.4913 357.4554 133.59662 357.63455 C 127.3353 357.83293 127.07649 357.8465 126.88116 358.246 C 126.62791 358.7783 126.60778 362.52078 126.76587 371.31452 C 126.79159 373.0433 126.76844 375.0774 126.70129 375.8595 C 126.61258 376.6427 126.57699 378.43958 126.58688 379.8664 C 126.59678 381.29325 126.61102 383.6282 126.62092 385.055 C 126.63081 386.48185 126.59758 387.91095 126.55096 388.2594 C 126.40998 389.28326 125.98202 389.37057 121.78439 389.33104 C 113.56166 389.24293 113.60479 389.24067 113.44582 389.50852 C 113.36746 389.664 113.8815 390.394 114.68496 391.28185 C 115.44303 392.1288 116.25214 393.1245 116.46659 393.5025 C 116.70374 393.901 117.21439 394.5663 117.60364 394.9784 C 119.89489 397.4319 123.73843 402.2695 123.7633 402.74396 C 123.77008 402.87336 124.00045 403.14244 124.25012 403.36724 C 124.52023 403.56935 124.9401 404.1529 125.20333 404.6365 C 125.445 405.12126 125.75024 405.58105 125.88417 405.66053 C 126.10662 405.77864 129.19898 409.48774 129.66875 410.1984 C 129.90251 410.5322 129.96721 410.5288 130.64155 410.1907 C 131.04228 409.9967 131.93464 409.2795 132.61359 408.61673 C 133.2914 407.9324 134.2803 406.9939 134.83888 406.51046 C 135.37589 406.02816 136.40227 404.97954 137.1187 404.2067 C 137.83399 403.41227 139.23162 402.0198 140.24208 401.08016 C 141.25367 400.1621 142.67287 398.7685 143.41087 397.9945 C 146.68984 394.5354 147.65604 393.57645 147.85014 393.5663 C 147.97955 393.5595 148.88443 392.66864 149.90742 391.5553 L 151.72858 389.57836 L 150.09746 389.40433 C 149.20641 389.32127 147.73305 389.2687 146.84879 389.31506 C 145.9634 389.33984 143.65004 389.35294 141.68062 389.3264 C 138.47622 389.25644 138.08914 389.29835 137.54534 389.65125 C 136.9811 390.02685 136.93797 390.0291 136.48402 389.62037 C 135.93927 389.1299 135.93927 389.1299 136.2914 388.00847 C 136.43908 387.52494 136.50519 386.3104 136.47363 385.2956 C 136.4205 384.2819 136.45506 382.05257 136.53717 380.31814 C 136.61929 378.5837 136.64819 376.2465 136.61098 375.1239 C 136.5522 374.0024 136.48683 371.92965 136.41449 370.54934 C 136.33894 368.2825 136.27999 367.98282 135.89978 367.74323 C 135.67506 367.582 135.53322 367.35153 135.61271 367.2176 C 135.78986 366.88393 137.66848 366.82872 138.03165 367.1557 C 138.2575 367.3385 139.55719 367.37854 142.81951 367.3157 C 145.28158 367.25155 148.37137 367.19775 149.69037 367.1935 C 159.50343 367.09013 167.98845 366.81846 168.21326 366.5688 C 168.47894 366.2737 168.49908 362.53126 168.27036 354.8658 C 168.18925 352.0802 168.10833 348.4728 168.08939 346.87344 C 168.07045 345.27406 167.9804 341.90503 167.91511 339.4214 C 167.82713 336.9173 167.7089 332.5982 167.6278 329.8126 C 167.52088 325.70916 167.42236 324.6546 167.19086 324.36398 C 166.91397 324.03246 166.37027 323.97445 163.08298 323.9737 C 161.02843 323.97326 158.26103 323.98853 156.96246 323.97008 C 155.64346 323.97433 154.539 323.9457 154.47204 323.90596 C 154.38351 323.86734 153.06338 323.85002 151.5287 323.86557 C 148.65233 323.86493 147.59214 323.8556 143.08917 323.7672 C 141.66007 323.73397 140.2968 323.7189 140.05957 323.73134 C 139.82346 323.76534 137.96527 323.79784 135.95498 323.8167 C 133.92426 323.85824 130.6188 323.92334 128.60851 323.9422 C 126.57779 323.98373 124.89101 323.98562 124.82405 323.94588 C 124.75709 323.90614 122.76837 323.92385 120.39144 323.9619 C 118.0145 323.99998 116.00309 323.99726 115.89186 323.9382 C 115.80333 323.8996 114.41963 323.90723 112.80094 323.97044 C 109.71568 324.1105 109.25598 324.00484 109.20964 323.12057 C 109.1972 322.88333 109.02363 322.4599 108.81483 322.1897 C 108.55837 321.8355 108.47445 321.47223 108.56195 321.07836 C 108.78242 319.9206 108.77371 313.15193 108.49987 304.21286 C 108.4491 302.83142 108.5186 301.68157 108.64122 301.54538 C 108.80472 301.3638 109.25763 301.34006 110.14981 301.4447 C 110.86718 301.51523 113.13967 301.54752 115.21466 301.52528 C 117.28852 301.48147 119.77668 301.50246 120.7313 301.56056 C 121.68591 301.61867 124.30234 301.6113 126.57144 301.5789 C 128.81784 301.52605 131.64768 301.46425 132.83728 301.46678 C 140.38238 301.4174 144.88083 301.41952 147.50065 301.47686 C 149.14542 301.4988 150.5507 301.49003 150.63357 301.4208 C 150.82203 301.3028 157.91308 301.25557 162.65329 301.33155 C 166.16077 301.40725 166.31174 301.39934 166.59334 300.9953 C 166.73187 300.75015 166.83076 300.16104 166.78433 299.6877 C 166.61215 298.0531 166.19645 283.93108 166.19737 279.82197 C 166.17443 270.71837 165.9038 262.66583 165.59968 262.2276 C 165.53046 262.14473 164.72456 262.03558 163.79264 261.9979 C 160.15463 261.90743 157.31348 261.75355 156.48487 261.62396 C 156.00474 261.541 153.81852 261.50418 151.61526 261.55477 C 149.41087 261.5838 147.11907 261.59577 146.53562 261.60472 C 142.59793 261.5732 139.76695 261.61342 134.542 261.77912 C 128.51792 261.96507 127.69723 261.98645 123.8458 261.9504 C 122.6562 261.94787 120.51538 261.95193 119.08854 261.96183 C 109.77379 262.08234 108.12789 262.03884 107.85552 261.7936 C 107.69663 261.65053 107.74325 261.30207 108.05442 260.63696 C 108.54048 259.59504 108.53709 259.53033 108.46066 251.0567 C 108.44086 248.20303 108.4335 245.5866 108.47899 245.21656 C 108.52909 244.52189 108.42424 241.2834 108.30642 240.2731 C 108.18294 239.155 109.26479 238.75228 110.25671 239.5221 C 110.43829 239.6856 111.04896 239.78336 111.56657 239.75623 C 112.10576 239.72797 113.29649 239.75208 114.25223 239.83175 C 115.20685 239.88985 117.90955 239.87797 120.24222 239.8206 C 122.57376 239.74166 124.58404 239.7228 124.6964 239.80343 C 124.80763 239.86248 127.83497 239.8552 131.4435 239.79585 C 137.81718 239.6781 137.98972 239.66905 138.42116 239.23553 C 138.76972 238.87124 138.94 238.81906 139.29525 238.99508 C 139.53927 239.11205 139.81052 239.33573 139.90357 239.4606 C 140.02045 239.6275 141.1283 239.72083 143.16015 239.70085 C 157.66803 239.63258 165.29035 239.40612 165.46863 239.094 C 165.60717 238.84885 165.6693 235.08256 165.63528 229.89396 C 165.61295 228.22988 165.62697 226.43414 165.64185 225.8927 C 165.65672 225.35125 165.64796 223.94598 165.6505 222.75638 C 165.63146 221.56792 165.6661 218.92765 165.71196 216.91398 C 165.75668 214.87873 165.72332 211.76625 165.67377 209.99546 C 165.60153 208.20424 165.51608 204.51057 165.43724 201.76812 C 165.35744 198.18228 165.25902 196.71683 165.08083 196.61804 C 164.83567 196.4795 159.9411 196.34673 157.82637 196.43594 C 157.11351 196.45167 155.94435 196.42644 155.22698 196.3559 C 153.9239 196.25118 145.52863 196.17212 142.67947 196.27818 C 141.34003 196.30512 138.29112 196.31353 134.46013 196.25478 C 133.74615 196.24894 131.69273 196.27005 129.92081 196.29804 C 126.42012 196.35174 125.72544 196.30164 125.43037 196.03596 C 125.31688 195.93377 124.73456 195.9643 124.11363 196.08334 C 123.51426 196.20126 122.17596 196.24977 121.15777 196.21662 C 120.13845 196.1619 117.15424 196.16692 114.49693 196.21968 L 109.6795 196.32076 L 109.21989 195.80418 C 108.80455 195.3069 108.74785 195.05036 108.75971 192.80057 C 108.7532 191.43844 108.77843 190.26928 108.81705 190.18075 C 108.97489 189.89133 108.97495 184.52793 108.81653 182.33032 C 108.63428 180.0907 108.65132 180.0033 109.15085 179.6311 C 109.46419 179.42004 109.88989 179.2896 110.26105 179.35665 C 111.50283 179.52946 117.6404 179.4457 126.53633 179.17412 C 129.68855 179.0738 133.27439 178.994 134.52756 178.97158 C 135.78073 178.94916 141.41546 178.762 147.04794 178.53169 C 152.68154 178.32295 158.74876 178.13474 160.5445 178.14876 C 163.74551 178.15401 164.84319 178.05323 165.29846 177.66172 C 165.54596 177.43249 165.64305 174.7457 165.5623 170.31647 C 165.52745 168.82606 165.4939 166.5354 165.46923 165.2391 C 165.41684 160.93815 165.03147 148.22027 164.86296 145.41764 C 164.7261 143.2189 164.62862 142.59684 164.35512 142.33003 C 164.10544 142.10522 163.2564 141.99833 161.33013 141.96952 C 159.8579 141.93854 157.56158 141.86425 156.26189 141.82423 C 154.94062 141.78534 152.40594 141.70191 150.63176 141.68676 C 148.83489 141.65117 145.32854 141.59704 142.83925 141.55448 C 140.3284 141.51306 137.01841 141.49189 135.48374 141.50744 C 133.9275 141.52412 131.84912 141.48165 130.8298 141.42694 C 127.68444 141.24576 113.27762 141.17897 111.12314 141.33514 C 109.96077 141.43931 109.56803 141.37339 109.0732 141.01004 C 108.53524 140.64895 108.48307 140.47868 108.55021 139.6966 C 108.58892 139.19716 108.56903 136.7544 108.50375 134.27075 C 108.43734 131.76555 108.42084 129.38749 108.4425 128.97545 C 108.59384 127.32389 108.53195 124.90495 108.32776 124.31011 C 108.07252 123.56656 108.16228 123.21583 108.6652 122.90832 C 108.95923 122.74153 109.20099 122.81536 109.76504 123.26159 C 110.55381 123.86905 110.57538 123.86792 117.47459 123.874 C 118.42581 123.8674 120.6109 123.88264 122.34307 123.92163 C 124.07411 123.93904 126.49757 123.96342 127.75187 123.96256 C 129.00504 123.94014 131.08229 123.96103 132.37972 123.95792 L 134.73847 123.98569 L 134.58307 123.49642 C 134.50368 123.21943 134.5276 122.85053 134.66953 122.67008 C 134.81033 122.46806 134.89113 121.53388 134.85731 120.47595 C 134.79194 118.40322 134.79805 116.4565 134.89446 111.6936 C 134.93005 109.89672 134.942 107.23603 134.90714 105.74562 C 134.89385 104.25408 134.91615 100.96566 134.95531 98.41167 C 135.02301 95.16413 134.99041 93.71686 134.83153 93.5738 C 134.69534 93.45117 134.57055 93.13332 134.55812 92.89607 C 134.5423 92.59413 134.31306 92.34663 133.95894 92.19217 C 133.2087 91.90709 133.35976 91.48827 134.35986 91.17634 C 134.93427 90.99485 135.28735 90.71682 135.56216 90.18338 C 135.83698 89.64994 136.04474 89.48767 136.3092 89.58194 C 136.68489 89.73526 137.52828 89.73432 143.13919 89.50514 C 145.14608 89.42159 148.45154 89.35649 150.48453 89.35808 C 152.49481 89.33923 154.2009 89.29307 154.2622 89.22498 C 154.32465 89.17845 153.72999 88.56082 152.9367 87.86709 C 152.16498 87.17223 150.86782 85.94261 150.09045 85.13992 C 149.3142 84.35879 148.2168 83.22684 147.64597 82.65121 C 147.07514 82.07558 146.45552 81.39437 146.26829 81.12304 C 145.7565 80.43618 143.8613 78.52423 142.5017 77.34114 C 141.86616 76.7689 141.09105 76.00934 140.79033 75.63582 C 139.58857 74.16331 137.57423 72.04134 136.25889 70.87756 C 135.511 70.2247 134.71093 69.40157 134.49987 69.08823 C 134.26611 68.754454 133.42403 67.95515 132.633 67.30455 L 131.20983 66.14642 L 129.54548 67.40148 C 128.63043 68.09824 127.10113 69.45435 126.11224 70.39287 C 125.12447 71.352955 124.2355 72.13485 124.12767 72.1405 C 124.01983 72.14615 123.9914 72.42879 124.09688 72.79091 C 124.28515 73.49472 123.95684 74.65814 123.49253 74.87711 C 123.34382 74.92816 123.0351 74.81458 122.78542 74.58977 C 122.37686 74.2219 122.3553 74.22303 121.33919 75.05484 C 120.7579 75.51784 119.84624 76.2793 119.30696 76.71846 C 118.76769 77.15763 117.67322 78.144935 116.86939 78.90074 C 116.06557 79.656545 115.17886 80.48157 114.91092 80.73351 C 113.9209 81.65046 111.88406 83.63872 110.98257 84.59428 C 110.47051 85.14016 109.31925 86.28182 108.41211 87.12955 C 106.43546 89.02815 105.63728 89.89179 105.6531 90.19373 C 105.65989 90.32314 106.87218 90.34611 108.83594 90.26482 C 110.6056 90.1937 113.62842 90.10016 115.59557 90.08358 C 117.5616 90.04542 119.934 89.92109 120.85688 89.78622 C 122.29398 89.55951 122.64132 89.58456 122.98066 89.86955 C 123.40965 90.21472 123.55818 90.9855 123.25275 91.34753 Z" fill="#ff0000"/>
        <path d="M 123.25275 91.34753 L 123.25275 91.34753 C 122.86332 91.75722 122.69564 100.52478 122.92548 108.21181 C 123.09344 113.4799 123.00879 116.40393 122.70901 116.8738 C 122.44785 117.25514 122.14817 117.3141 119.6861 117.37825 C 118.17525 117.4358 116.87782 117.43892 116.78929 117.4003 C 116.72233 117.36056 115.25009 117.32958 113.54175 117.33261 C 111.83454 117.3572 110.3623 117.32622 110.27377 117.28761 C 110.11715 117.18768 105.28954 117.09466 101.202 117.09262 C 99.51523 117.09451 98.65479 117.18286 98.55487 117.33948 C 98.41633 117.58463 98.3848 121.52233 98.49463 122.79254 C 98.62375 124.01849 98.61801 124.32156 98.49728 126.14453 C 98.41761 127.10027 98.43392 130.30016 98.50364 133.28098 C 98.59378 136.2391 98.62384 138.87597 98.57158 139.1166 C 98.51931 139.35723 98.5099 140.82833 98.54701 142.36188 C 98.60683 143.91586 98.62671 146.35862 98.59348 147.78772 C 98.59293 150.25319 98.60197 150.42572 99.00149 150.62105 C 99.46683 150.83456 102.3239 150.87946 107.9609 150.73543 C 110.03475 150.69162 112.28454 150.70347 112.93835 150.79897 C 113.59102 150.8729 116.8556 150.8532 120.18037 150.74383 C 123.50627 150.65603 126.29411 150.61806 126.38264 150.65668 C 126.47117 150.69529 129.2397 150.70158 132.54517 150.63648 C 141.05854 150.49309 144.42983 150.44617 149.33692 150.40526 C 152.08276 150.39112 153.76502 150.30296 154.01704 150.15999 C 154.22594 150.01928 154.6312 149.91154 154.91157 149.89684 C 155.5586 149.86293 156.10664 150.82904 155.91574 151.72573 C 155.86799 152.05263 155.85058 153.78368 155.87969 155.57716 C 155.92924 157.34794 155.99999 160.76124 156.05962 163.13704 C 156.18896 168.49366 156.19235 168.55836 156.62013 169.29288 C 156.83345 169.64935 156.94458 170.11931 156.87527 170.44734 C 156.77412 170.9933 156.75255 170.99444 154.46641 171.11425 C 153.2155 171.1798 151.24722 171.17483 150.12007 171.12577 C 148.99291 171.0767 145.14714 171.1485 141.584 171.24872 C 138.022 171.37052 134.52243 171.4458 133.80844 171.43996 C 133.09333 171.41256 131.7732 171.39523 130.88554 171.37687 C 125.23385 171.24053 99.35423 172.20755 99.04767 172.54801 C 98.98636 172.6161 98.94182 173.82953 98.95059 175.2348 C 98.98092 176.63894 98.96464 178.39155 98.93724 179.10667 C 98.90983 179.82178 98.91512 181.57326 98.92502 183.0001 C 98.93491 184.42693 98.95263 186.41565 98.96262 187.43158 C 98.95104 188.44864 98.97441 190.5452 99.01153 192.07874 C 99.04978 193.63385 99.01993 195.12765 98.97105 195.43298 C 98.92217 195.73832 98.88555 197.10271 98.89205 198.46485 C 98.94114 202.29019 98.92233 205.2324 98.84162 205.75566 C 98.79048 206.01786 98.89144 206.29371 99.02537 206.3732 C 99.33748 206.55148 104.08909 206.43222 122.20446 205.87212 C 150.66303 205.00784 153.25225 204.89377 154.01172 204.52957 C 154.93921 204.07005 155.6305 204.05545 156.08558 204.48576 C 156.42491 204.77075 156.4657 205.13626 156.43454 207.43032 C 156.424 208.87985 156.43503 210.32826 156.45424 210.6949 C 156.47233 211.03998 156.4471 212.20914 156.41734 213.29203 C 156.30773 216.1525 156.31613 219.2014 156.4807 224.4048 C 156.55954 227.14723 156.53412 229.13822 156.4115 229.2744 C 156.30931 229.3879 156.21504 229.65235 156.22521 229.84646 C 156.21269 230.02013 155.88683 230.40486 155.49061 230.68514 C 154.67774 231.2684 153.36665 231.42362 151.42907 231.17914 C 150.29626 231.02224 148.86717 230.989 144.0679 231.02426 C 142.51166 231.04094 139.74087 230.9915 137.8986 230.91505 C 134.79977 230.7963 129.49429 230.66345 126.63835 230.6401 C 123.97652 230.6066 114.7049 230.72485 112.4812 230.79813 C 110.64685 230.87264 109.96121 230.99508 109.47873 231.27988 C 108.6409 231.79958 108.42409 231.78931 108.02806 231.24778 C 107.70238 230.8107 107.52871 230.79816 103.46952 230.9244 C 98.69861 231.08792 98.84619 231.0153 98.89348 232.74295 C 98.89678 233.21856 98.86807 234.73393 98.83144 236.09833 C 98.68868 239.97697 98.69531 245.8807 98.80553 250.45975 C 98.82899 252.1454 98.83428 253.89688 98.79444 254.37475 C 98.64188 256.41565 98.63247 257.88675 98.77904 262.33415 C 98.91874 267.06306 98.91941 269.13918 98.74886 270.4241 C 98.66815 270.94735 98.74302 271.13807 99.07558 271.29365 C 99.2969 271.3902 103.36287 271.39337 108.11448 271.2741 C 116.79812 271.07853 118.76528 271.06195 120.97645 271.16233 C 123.57697 271.26393 124.9391 271.25743 129.19466 271.16416 C 131.63516 271.10114 134.55467 271.09952 135.68183 271.1486 C 136.80898 271.19765 139.72849 271.19603 142.17012 271.15457 C 144.61063 271.09155 146.66518 271.092 146.75484 271.1522 C 146.86494 271.18967 148.65955 271.18213 150.77654 271.13606 C 154.08087 271.0494 154.68363 270.99618 154.90505 270.6818 C 155.24909 270.23124 155.66 270.23133 156.18204 270.7014 C 156.5906 271.06925 156.62686 271.3485 156.67849 273.98424 C 156.71787 275.56092 156.71505 277.98325 156.67843 279.34764 C 156.6418 280.71204 156.61308 282.2274 156.63795 282.7019 C 156.85008 288.4002 156.84473 292.01212 156.59949 292.2845 C 156.3145 292.62383 153.32115 292.8672 151.4108 292.72943 C 150.80351 292.69638 149.50382 292.65636 148.48563 292.6232 C 147.46858 292.61164 146.60136 292.57058 146.5344 292.53083 C 146.46743 292.4911 144.86693 292.48846 142.96448 292.50166 C 141.06316 292.53642 137.90641 292.55048 135.93813 292.5455 C 133.96871 292.51895 130.22852 292.54195 127.61208 292.5493 C 124.99678 292.57824 121.9263 292.58777 120.8014 292.58185 C 111.73868 292.5594 105.66581 292.63976 102.25704 292.7968 L 98.9788 292.9686 L 98.77207 293.56334 C 98.66075 293.9152 98.60247 295.69164 98.67697 297.526 C 98.72992 299.3615 98.7838 302.04036 98.7937 303.4672 C 98.87474 311.61618 98.89436 315.29168 98.8372 317.08968 C 98.82458 317.67426 98.83778 319.5767 98.8635 321.3055 C 98.88922 323.03427 98.90007 325.3045 98.89188 326.38626 C 98.88256 327.44645 98.92176 329.84495 98.95426 331.70313 L 99.02388 335.09486 L 102.41674 335.0468 C 107.36584 334.98208 114.78153 334.93946 119.02117 334.95517 C 121.03259 334.9579 124.25404 334.94044 126.15536 334.90568 C 128.05668 334.8709 130.43361 334.83285 131.45067 334.84443 C 133.35538 334.87437 148.00858 334.69035 149.9292 334.6113 C 155.54124 334.4037 157.09749 334.38703 157.32107 334.5267 C 157.54353 334.6448 157.63856 336.04555 157.78853 340.55765 C 157.89337 343.79615 157.93134 346.584 157.89725 346.7588 C 157.84159 346.9347 157.85017 349.1618 157.91998 351.7317 C 157.98865 354.28006 157.95749 356.5741 157.86095 356.79544 C 157.66563 357.19495 157.44995 357.20626 154.0571 357.2543 C 143.27237 357.387 139.4913 357.4554 133.59662 357.63455 C 127.3353 357.83293 127.07649 357.8465 126.88116 358.246 C 126.62791 358.7783 126.60778 362.52078 126.76587 371.31452 C 126.79159 373.0433 126.76844 375.0774 126.70129 375.8595 C 126.61258 376.6427 126.57699 378.43958 126.58688 379.8664 C 126.59678 381.29325 126.61102 383.6282 126.62092 385.055 C 126.63081 386.48185 126.59758 387.91095 126.55096 388.2594 C 126.40998 389.28326 125.98202 389.37057 121.78439 389.33104 C 113.56166 389.24293 113.60479 389.24067 113.44582 389.50852 C 113.36746 389.664 113.8815 390.394 114.68496 391.28185 C 115.44303 392.1288 116.25214 393.1245 116.46659 393.5025 C 116.70374 393.901 117.21439 394.5663 117.60364 394.9784 C 119.89489 397.4319 123.73843 402.2695 123.7633 402.74396 C 123.77008 402.87336 124.00045 403.14244 124.25012 403.36724 C 124.52023 403.56935 124.9401 404.1529 125.20333 404.6365 C 125.445 405.12126 125.75024 405.58105 125.88417 405.66053 C 126.10662 405.77864 129.19898 409.48774 129.66875 410.1984 C 129.90251 410.5322 129.96721 410.5288 130.64155 410.1907 C 131.04228 409.9967 131.93464 409.2795 132.61359 408.61673 C 133.2914 407.9324 134.2803 406.9939 134.83888 406.51046 C 135.37589 406.02816 136.40227 404.97954 137.1187 404.2067 C 137.83399 403.41227 139.23162 402.0198 140.24208 401.08016 C 141.25367 400.1621 142.67287 398.7685 143.41087 397.9945 C 146.68984 394.5354 147.65604 393.57645 147.85014 393.5663 C 147.97955 393.5595 148.88443 392.66864 149.90742 391.5553 L 151.72858 389.57836 L 150.09746 389.40433 C 149.20641 389.32127 147.73305 389.2687 146.84879 389.31506 C 145.9634 389.33984 143.65004 389.35294 141.68062 389.3264 C 138.47622 389.25644 138.08914 389.29835 137.54534 389.65125 C 136.9811 390.02685 136.93797 390.0291 136.48402 389.62037 C 135.93927 389.1299 135.93927 389.1299 136.2914 388.00847 C 136.43908 387.52494 136.50519 386.3104 136.47363 385.2956 C 136.4205 384.2819 136.45506 382.05257 136.53717 380.31814 C 136.61929 378.5837 136.64819 376.2465 136.61098 375.1239 C 136.5522 374.0024 136.48683 371.92965 136.41449 370.54934 C 136.33894 368.2825 136.27999 367.98282 135.89978 367.74323 C 135.67506 367.582 135.53322 367.35153 135.61271 367.2176 C 135.78986 366.88393 137.66848 366.82872 138.03165 367.1557 C 138.2575 367.3385 139.55719 367.37854 142.81951 367.3157 C 145.28158 367.25155 148.37137 367.19775 149.69037 367.1935 C 159.50343 367.09013 167.98845 366.81846 168.21326 366.5688 C 168.47894 366.2737 168.49908 362.53126 168.27036 354.8658 C 168.18925 352.0802 168.10833 348.4728 168.08939 346.87344 C 168.07045 345.27406 167.9804 341.90503 167.91511 339.4214 C 167.82713 336.9173 167.7089 332.5982 167.6278 329.8126 C 167.52088 325.70916 167.42236 324.6546 167.19086 324.36398 C 166.91397 324.03246 166.37027 323.97445 163.08298 323.9737 C 161.02843 323.97326 158.26103 323.98853 156.96246 323.97008 C 155.64346 323.97433 154.539 323.9457 154.47204 323.90596 C 154.38351 323.86734 153.06338 323.85002 151.5287 323.86557 C 148.65233 323.86493 147.59214 323.8556 143.08917 323.7672 C 141.66007 323.73397 140.2968 323.7189 140.05957 323.73134 C 139.82346 323.76534 137.96527 323.79784 135.95498 323.8167 C 133.92426 323.85824 130.6188 323.92334 128.60851 323.9422 C 126.57779 323.98373 124.89101 323.98562 124.82405 323.94588 C 124.75709 323.90614 122.76837 323.92385 120.39144 323.9619 C 118.0145 323.99998 116.00309 323.99726 115.89186 323.9382 C 115.80333 323.8996 114.41963 323.90723 112.80094 323.97044 C 109.71568 324.1105 109.25598 324.00484 109.20964 323.12057 C 109.1972 322.88333 109.02363 322.4599 108.81483 322.1897 C 108.55837 321.8355 108.47445 321.47223 108.56195 321.07836 C 108.78242 319.9206 108.77371 313.15193 108.49987 304.21286 C 108.4491 302.83142 108.5186 301.68157 108.64122 301.54538 C 108.80472 301.3638 109.25763 301.34006 110.14981 301.4447 C 110.86718 301.51523 113.13967 301.54752 115.21466 301.52528 C 117.28852 301.48147 119.77668 301.50246 120.7313 301.56056 C 121.68591 301.61867 124.30234 301.6113 126.57144 301.5789 C 128.81784 301.52605 131.64768 301.46425 132.83728 301.46678 C 140.38238 301.4174 144.88083 301.41952 147.50065 301.47686 C 149.14542 301.4988 150.5507 301.49003 150.63357 301.4208 C 150.82203 301.3028 157.91308 301.25557 162.65329 301.33155 C 166.16077 301.40725 166.31174 301.39934 166.59334 300.9953 C 166.73187 300.75015 166.83076 300.16104 166.78433 299.6877 C 166.61215 298.0531 166.19645 283.93108 166.19737 279.82197 C 166.17443 270.71837 165.9038 262.66583 165.59968 262.2276 C 165.53046 262.14473 164.72456 262.03558 163.79264 261.9979 C 160.15463 261.90743 157.31348 261.75355 156.48487 261.62396 C 156.00474 261.541 153.81852 261.50418 151.61526 261.55477 C 149.41087 261.5838 147.11907 261.59577 146.53562 261.60472 C 142.59793 261.5732 139.76695 261.61342 134.542 261.77912 C 128.51792 261.96507 127.69723 261.98645 123.8458 261.9504 C 122.6562 261.94787 120.51538 261.95193 119.08854 261.96183 C 109.77379 262.08234 108.12789 262.03884 107.85552 261.7936 C 107.69663 261.65053 107.74325 261.30207 108.05442 260.63696 C 108.54048 259.59504 108.53709 259.53033 108.46066 251.0567 C 108.44086 248.20303 108.4335 245.5866 108.47899 245.21656 C 108.52909 244.52189 108.42424 241.2834 108.30642 240.2731 C 108.18294 239.155 109.26479 238.75228 110.25671 239.5221 C 110.43829 239.6856 111.04896 239.78336 111.56657 239.75623 C 112.10576 239.72797 113.29649 239.75208 114.25223 239.83175 C 115.20685 239.88985 117.90955 239.87797 120.24222 239.8206 C 122.57376 239.74166 124.58404 239.7228 124.6964 239.80343 C 124.80763 239.86248 127.83497 239.8552 131.4435 239.79585 C 137.81718 239.6781 137.98972 239.66905 138.42116 239.23553 C 138.76972 238.87124 138.94 238.81906 139.29525 238.99508 C 139.53927 239.11205 139.81052 239.33573 139.90357 239.4606 C 140.02045 239.6275 141.1283 239.72083 143.16015 239.70085 C 157.66803 239.63258 165.29035 239.40612 165.46863 239.094 C 165.60717 238.84885 165.6693 235.08256 165.63528 229.89396 C 165.61295 228.22988 165.62697 226.43414 165.64185 225.8927 C 165.65672 225.35125 165.64796 223.94598 165.6505 222.75638 C 165.63146 221.56792 165.6661 218.92765 165.71196 216.91398 C 165.75668 214.87873 165.72332 211.76625 165.67377 209.99546 C 165.60153 208.20424 165.51608 204.51057 165.43724 201.76812 C 165.35744 198.18228 165.25902 196.71683 165.08083 196.61804 C 164.83567 196.4795 159.9411 196.34673 157.82637 196.43594 C 157.11351 196.45167 155.94435 196.42644 155.22698 196.3559 C 153.9239 196.25118 145.52863 196.17212 142.67947 196.27818 C 141.34003 196.30512 138.29112 196.31353 134.46013 196.25478 C 133.74615 196.24894 131.69273 196.27005 129.92081 196.29804 C 126.42012 196.35174 125.72544 196.30164 125.43037 196.03596 C 125.31688 195.93377 124.73456 195.9643 124.11363 196.08334 C 123.51426 196.20126 122.17596 196.24977 121.15777 196.21662 C 120.13845 196.1619 117.15424 196.16692 114.49693 196.21968 L 109.6795 196.32076 L 109.21989 195.80418 C 108.80455 195.3069 108.74785 195.05036 108.75971 192.80057 C 108.7532 191.43844 108.77843 190.26928 108.81705 190.18075 C 108.97489 189.89133 108.97495 184.52793 108.81653 182.33032 C 108.63428 180.0907 108.65132 180.0033 109.15085 179.6311 C 109.46419 179.42004 109.88989 179.2896 110.26105 179.35665 C 111.50283 179.52946 117.6404 179.4457 126.53633 179.17412 C 129.68855 179.0738 133.27439 178.994 134.52756 178.97158 C 135.78073 178.94916 141.41546 178.762 147.04794 178.53169 C 152.68154 178.32295 158.74876 178.13474 160.5445 178.14876 C 163.74551 178.15401 164.84319 178.05323 165.29846 177.66172 C 165.54596 177.43249 165.64305 174.7457 165.5623 170.31647 C 165.52745 168.82606 165.4939 166.5354 165.46923 165.2391 C 165.41684 160.93815 165.03147 148.22027 164.86296 145.41764 C 164.7261 143.2189 164.62862 142.59684 164.35512 142.33003 C 164.10544 142.10522 163.2564 141.99833 161.33013 141.96952 C 159.8579 141.93854 157.56158 141.86425 156.26189 141.82423 C 154.94062 141.78534 152.40594 141.70191 150.63176 141.68676 C 148.83489 141.65117 145.32854 141.59704 142.83925 141.55448 C 140.3284 141.51306 137.01841 141.49189 135.48374 141.50744 C 133.9275 141.52412 131.84912 141.48165 130.8298 141.42694 C 127.68444 141.24576 113.27762 141.17897 111.12314 141.33514 C 109.96077 141.43931 109.56803 141.37339 109.0732 141.01004 C 108.53524 140.64895 108.48307 140.47868 108.55021 139.6966 C 108.58892 139.19716 108.56903 136.7544 108.50375 134.27075 C 108.43734 131.76555 108.42084 129.38749 108.4425 128.97545 C 108.59384 127.32389 108.53195 124.90495 108.32776 124.31011 C 108.07252 123.56656 108.16228 123.21583 108.6652 122.90832 C 108.95923 122.74153 109.20099 122.81536 109.76504 123.26159 C 110.55381 123.86905 110.57538 123.86792 117.47459 123.874 C 118.42581 123.8674 120.6109 123.88264 122.34307 123.92163 C 124.07411 123.93904 126.49757 123.96342 127.75187 123.96256 C 129.00504 123.94014 131.08229 123.96103 132.37972 123.95792 L 134.73847 123.98569 L 134.58307 123.49642 C 134.50368 123.21943 134.5276 122.85053 134.66953 122.67008 C 134.81033 122.46806 134.89113 121.53388 134.85731 120.47595 C 134.79194 118.40322 134.79805 116.4565 134.89446 111.6936 C 134.93005 109.89672 134.942 107.23603 134.90714 105.74562 C 134.89385 104.25408 134.91615 100.96566 134.95531 98.41167 C 135.02301 95.16413 134.99041 93.71686 134.83153 93.5738 C 134.69534 93.45117 134.57055 93.13332 134.55812 92.89607 C 134.5423 92.59413 134.31306 92.34663 133.95894 92.19217 C 133.2087 91.90709 133.35976 91.48827 134.35986 91.17634 C 134.93427 90.99485 135.28735 90.71682 135.56216 90.18338 C 135.83698 89.64994 136.04474 89.48767 136.3092 89.58194 C 136.68489 89.73526 137.52828 89.73432 143.13919 89.50514 C 145.14608 89.42159 148.45154 89.35649 150.48453 89.35808 C 152.49481 89.33923 154.2009 89.29307 154.2622 89.22498 C 154.32465 89.17845 153.72999 88.56082 152.9367 87.86709 C 152.16498 87.17223 150.86782 85.94261 150.09045 85.13992 C 149.3142 84.35879 148.2168 83.22684 147.64597 82.65121 C 147.07514 82.07558 146.45552 81.39437 146.26829 81.12304 C 145.7565 80.43618 143.8613 78.52423 142.5017 77.34114 C 141.86616 76.7689 141.09105 76.00934 140.79033 75.63582 C 139.58857 74.16331 137.57423 72.04134 136.25889 70.87756 C 135.511 70.2247 134.71093 69.40157 134.49987 69.08823 C 134.26611 68.754454 133.42403 67.95515 132.633 67.30455 L 131.20983 66.14642 L 129.54548 67.40148 C 128.63043 68.09824 127.10113 69.45435 126.11224 70.39287 C 125.12447 71.352955 124.2355 72.13485 124.12767 72.1405 C 124.01983 72.14615 123.9914 72.42879 124.09688 72.79091 C 124.28515 73.49472 123.95684 74.65814 123.49253 74.87711 C 123.34382 74.92816 123.0351 74.81458 122.78542 74.58977 C 122.37686 74.2219 122.3553 74.22303 121.33919 75.05484 C 120.7579 75.51784 119.84624 76.2793 119.30696 76.71846 C 118.76769 77.15763 117.67322 78.144935 116.86939 78.90074 C 116.06557 79.656545 115.17886 80.48157 114.91092 80.73351 C 113.9209 81.65046 111.88406 83.63872 110.98257 84.59428 C 110.47051 85.14016 109.31925 86.28182 108.41211 87.12955 C 106.43546 89.02815 105.63728 89.89179 105.6531 90.19373 C 105.65989 90.32314 106.87218 90.34611 108.83594 90.26482 C 110.6056 90.1937 113.62842 90.10016 115.59557 90.08358 C 117.5616 90.04542 119.934 89.92109 120.85688 89.78622 C 122.29398 89.55951 122.64132 89.58456 122.98066 89.86955 C 123.40965 90.21472 123.55818 90.9855 123.25275 91.34753 Z" stroke="#cccccc" stroke-linecap="round" stroke-linejoin="round" stroke-width="4" clip-path="url(#outer_stroke_clip_path)"/>
      </g>
    </g>
  </g>
</svg>
