<?xml version="1.0" encoding="UTF-8" standalone="no"?>
<!-- Created with Inkscape (http://www.inkscape.org/) -->

<svg
   version="1.0"
   width="729.20862"
   height="646.2442"
   id="svg2448"
   xmlns:xlink="http://www.w3.org/1999/xlink"
   xmlns="http://www.w3.org/2000/svg"
   xmlns:svg="http://www.w3.org/2000/svg"
   xmlns:rdf="http://www.w3.org/1999/02/22-rdf-syntax-ns#"
   xmlns:cc="http://creativecommons.org/ns#"
   xmlns:dc="http://purl.org/dc/elements/1.1/">
  <defs
     id="defs2450">
    <linearGradient
       id="linearGradient2885">
      <stop
         id="stop2887"
         style="stop-color:#ffffff;stop-opacity:1"
         offset="0" />
      <stop
         id="stop2891"
         style="stop-color:#ffffff;stop-opacity:1"
         offset="0.22857143" />
      <stop
         id="stop2889"
         style="stop-color:#000000;stop-opacity:1"
         offset="1" />
    </linearGradient>
    <linearGradient
       x1="63.868282"
       y1="-71.823761"
       x2="534.55084"
       y2="-71.823761"
       id="linearGradient3488"
       xlink:href="#linearGradient2885"
       gradientUnits="userSpaceOnUse"
       gradientTransform="matrix(1.41743,0,0,1.41743,-49.3293,785.85)" />
    <linearGradient
       x1="183.53125"
       y1="-232.44067"
       x2="426"
       y2="-232.44067"
       id="linearGradient3491"
       xlink:href="#linearGradient2885"
       gradientUnits="userSpaceOnUse"
       gradientTransform="matrix(1.41743,0,0,1.41743,-49.3293,785.85)" />
    <linearGradient
       x1="285.03387"
       y1="-378.80991"
       x2="326.14249"
       y2="-378.80991"
       id="linearGradient3494"
       xlink:href="#linearGradient2885"
       gradientUnits="userSpaceOnUse"
       gradientTransform="matrix(1.3553,0,0,1.38268,-30.9817,771.727)"
       spreadMethod="pad" />
    <linearGradient
       x1="131.44279"
       y1="-123.11002"
       x2="400.42053"
       y2="-123.11002"
       id="linearGradient3497"
       xlink:href="#linearGradient2885"
       gradientUnits="userSpaceOnUse"
       gradientTransform="matrix(1.41743,0,0,1.41743,6.86005,469.146)" />
  </defs>
  <g
     transform="translate(-8.668614,-181.64779)"
     id="layer1">
    <path
       d="M 270.71384,541.70919 C 247.58862,625.98591 166.86757,651.27742 151.8016,656.86818 C 132.21765,664.13545 43.325764,651.27742 43.325764,651.27742 C 43.325764,651.27742 93.879148,664.01188 102.91574,672.40086 C 124.44341,692.38589 154.81479,779.86515 172.89407,791.04669 C 190.97354,802.22824 209.05271,791.04669 218.09239,796.63747 C 227.13187,802.22823 304.80433,827.02298 380.70854,826.36659 C 468.13993,825.61051 519.41404,805.02363 531.46692,799.43285 C 543.52,793.84208 561.59918,807.819 576.66525,796.63747 C 591.73144,785.45592 636.92956,690.41282 655.00895,673.64052 C 673.08811,656.86818 706.23356,654.07281 706.23356,654.07281 C 706.23356,654.07281 621.86349,670.84513 603.78432,662.45897 C 585.70495,654.07281 516.67569,627.84417 495.0211,547.80203"
       id="path2072"
       style="fill:#b3b3b3;fill-rule:evenodd;stroke:#000000;stroke-width:3" />
    <path
       d="M 43.246985,651.15581 C 19.141116,670.72353 10.168614,687.65314 10.168614,712.81162 C 10.168614,737.97011 36.034862,768.48219 48.087744,788.04988 C 88.700706,789.55519 118.72034,790.57066 167.85538,788.65475 C 153.65474,755.45091 117.77643,689.60258 103.63791,671.98928 C 89.824948,654.78168 43.246985,651.15581 43.246985,651.15581 z"
       id="path2074"
       style="fill:#666666;fill-rule:evenodd;stroke:#000000;stroke-width:3" />
    <path
       d="M 709.36829,653.97114 C 668.62893,656.03947 617.50493,669.01462 692.67723,656.50494 C 681.40326,658.93528 665.83551,663.66944 655.04662,673.67848 C 641.55717,686.19272 605.818,754.79293 585.91457,787.10938 C 615.09101,788.13104 660.99693,789.52412 689.27966,788.68795 C 707.35884,774.71102 736.37741,729.54402 736.37721,707.18096 C 736.37721,684.81788 736.48725,670.74346 709.36829,653.97114 z"
       id="path2076"
       style="fill:#4d4d4d;fill-rule:evenodd;stroke:#000000;stroke-width:3" />
    <path
       d="M 203.11246,632.87896 C 220.32762,639.01533 250.32033,662.97601 252.98601,665.78404 C 271.84575,685.65098 304.76462,691.74764 326.56813,704.38975 C 350.6739,718.36667 380.80615,749.53324 380.80615,749.53324 C 380.80615,749.53324 409.85245,711.60013 433.95831,701.93695 C 456.00997,693.09722 495.08663,687.34726 517.05831,666.1208 C 519.41057,663.84834 543.53879,641.34235 559.08337,636.94993"
       id="path2085"
       style="fill:none;fill-rule:evenodd;stroke:#000000;stroke-width:3" />
    <path
       d="M 247.42206,353.47348 C 247.42206,353.47348 257.74757,439.46018 280.6879,476.74719 C 293.53644,497.63092 325.65756,530.87134 344.93022,527.88796 C 364.20299,524.90456 383.02017,499.33418 383.02017,499.33418 C 383.02017,499.33418 400.91454,520.21791 420.18732,526.18469 C 439.45997,532.15148 471.5668,499.92192 480.07283,483.57096 C 502.95032,439.59418 516.78439,362.09825 516.78439,362.09825 C 516.78439,362.09825 526.42077,332.26436 494.29956,323.3142 C 462.17835,314.36403 452.08699,304.26343 435.10319,311.59755 C 408.95069,322.89106 385.08759,356.13148 385.08759,356.13148 C 385.08759,356.13148 359.3906,324.59432 337.59491,314.58094 C 320.0817,306.535 282.75542,294.55421 263.48266,306.48777 C 244.20999,318.42132 247.42206,353.47348 247.42206,353.47348 z"
       id="path2141"
       style="fill:#000000;fill-rule:evenodd;stroke:#000000;stroke-width:3" />
    <path
       d="M 362.98465,261.02563 C 281.19475,262.13928 211.58474,323.45998 211.58474,344.55573 C 211.58464,382.05478 219.95723,455.12891 235.52404,486.6771 C 266.02628,544.33492 307.90055,605.12186 385.62993,604.76102 C 459.18741,604.41958 504.8782,555.77604 527.32472,483.37195 C 538.93299,455.24622 555.14587,381.60779 555.14607,349.96415 C 559.6887,354.18331 520.44149,258.91605 362.98465,261.02563 z M 280.8146,301.58881 C 300.2642,300.3011 324.61634,308.47449 337.75133,314.50893 C 359.54701,324.5223 384.98303,356.27397 384.98293,356.27399 C 384.98293,356.27399 408.97347,322.79774 435.12607,311.50426 C 452.10987,304.17012 462.2062,314.27233 494.32731,323.2225 C 526.44852,332.17267 516.6492,361.98288 516.64908,361.98288 C 516.64908,361.98288 502.97051,439.69563 480.09313,483.67242 C 471.5871,500.02338 450.22154,528.69123 430.94898,522.72444 C 411.6762,516.75767 383.04201,469.47105 383.0419,469.47106 C 383.0419,469.47106 353.43698,516.57289 334.16431,519.55631 C 314.89164,522.53969 293.66316,497.64537 280.8146,476.76165 C 257.87429,439.47464 247.49379,353.56977 247.49369,353.56977 C 247.49369,353.56977 244.07251,318.32986 263.34539,306.39629 C 268.16358,303.41291 274.33137,302.01805 280.8146,301.58881 z"
       id="path2143"
       style="fill:#b3b3b3;fill-rule:evenodd;stroke:#000000;stroke-width:3" />
    <path
       d="M 384.14678,183.71326 C 404.50933,184.14633 462.96895,216.13652 504.75004,247.74807 C 544.5426,277.85518 570.97946,316.90256 573.96873,328.00807 C 576.95801,339.1136 564.2602,405.56867 564.2602,405.56867 C 564.2602,405.56867 561.27092,391.68676 552.30327,380.58123 C 544.45378,370.86054 463.65063,326.61646 407.53743,313.8715 C 407.84416,313.97135 385.66545,307.68686 385.34111,307.97917 C 384.80984,308.93227 364.90113,312.6411 364.20268,311.91239 C 305.74057,320.89776 213.82194,368.31902 208.5409,380.58123 C 202.56256,394.46314 199.57326,400.01589 199.57326,400.01589 C 199.57326,400.01589 190.79735,333.38279 193.78653,322.27726 C 196.77571,311.17174 230.58991,272.73546 263.93774,247.74806 C 298.83571,221.59918 363.68601,183.27812 384.14678,183.71326 z"
       id="path2197"
       style="fill:#999999;fill-rule:evenodd;stroke:#000000;stroke-width:3" />
    <path
       d="M 310.46073,239.07835 L 337.97887,222.03526 C 337.97887,222.03526 342.01144,236.72888 344.84057,256.28483 C 347.97033,277.9182 346.64629,297.09303 346.04587,297.27922 C 336.13765,300.35161 329.18329,301.7547 322.13204,305.31342 C 322.01898,305.35714 321.40013,285.06351 317.84077,264.06174 C 314.48905,244.28449 309.99448,239.07835 310.46073,239.07835 z"
       id="path2200"
       style="fill:#000000;fill-rule:evenodd;stroke:#000000;stroke-width:3" />
    <path
       d="M 265.45775,269.08496 L 289.05407,252.18402 C 289.05407,252.18402 291.06094,256.93348 295.64745,278.57915 C 300.41305,301.06967 298.67731,312.38101 298.67731,312.38101 L 280.06626,321.19548 C 280.06626,321.19548 276.32965,298.60545 273.30817,288.79989 C 268.7521,274.01362 265.45775,269.08496 265.45775,269.08496 z"
       id="path2202"
       style="fill:#000000;fill-rule:evenodd;stroke:#000000;stroke-width:3" />
    <path
       d="M 247.89172,283.20549 C 247.89172,283.20549 251.9364,292.12528 254.8027,304.2529 C 258.25815,318.87341 259.24697,329.38247 259.24697,329.38247 L 243.31195,338.43558 C 243.31195,338.43558 242.33159,329.95819 239.91282,318.17904 C 237.58141,306.82577 232.37533,297.17726 232.37533,297.17726 L 247.89172,283.20549 z"
       id="path2204"
       style="fill:#000000;fill-rule:evenodd;stroke:#000000;stroke-width:3" />
    <path
       d="M 382.0714,183.80535 C 376.62554,183.68953 364.78799,188.78663 354.68659,193.20158 C 356.34966,195.62158 368.75431,222.25668 368.75431,258.95738 C 368.75431,287.0773 364.92567,311.50426 364.92567,311.50426 L 365.24918,312.70613 C 373.55334,311.38714 386.3638,309.58419 385.34039,309.28825 C 385.97052,309.55138 399.89175,312.89361 405.73118,314.02177 L 406.7017,311.91849 C 406.7016,311.91849 399.18894,287.98753 399.18906,259.86762 C 399.18916,222.10272 410.48457,196.75551 412.9552,193.05576 C 404.7025,188.33709 386.76474,183.90516 382.0714,183.80535 z"
       id="path2231"
       style="fill:#ffd42a;fill-rule:evenodd;stroke:#000000;stroke-width:3" />
    <path
       d="M 463.21667,241.6013 L 436.42701,223.58478 C 436.42701,223.58478 431.78698,238.12293 428.14758,257.56294 C 424.12154,279.06805 424.64805,298.27604 425.24029,298.48361 C 435.01342,301.90879 441.90432,303.56004 448.80257,307.36881 C 448.91364,307.41656 450.37506,287.16021 454.80422,266.30162 C 458.97499,246.65921 463.68251,241.61801 463.21667,241.6013 z"
       id="path2238"
       style="fill:#000000;fill-rule:evenodd;stroke:#000000;stroke-width:3" />
    <path
       d="M 506.93963,273.19827 L 484.06296,255.46432 C 484.06296,255.46432 481.86024,260.13834 476.37796,281.60354 C 470.68158,303.90653 471.9462,315.27165 471.9462,315.27165 L 490.17724,324.7465 C 490.17724,324.7465 494.84946,302.30719 498.27602,292.61722 C 503.44298,278.0052 506.93963,273.19827 506.93963,273.19827 z"
       id="path2240"
       style="fill:#000000;fill-rule:evenodd;stroke:#000000;stroke-width:3" />
    <path
       d="M 523.90593,287.9378 C 523.90593,287.9378 519.49376,296.706 516.12578,308.72186 C 512.06558,323.20766 510.64092,333.67346 510.64092,333.67346 L 526.18796,343.29086 C 526.18796,343.29086 527.51976,334.85492 530.42602,323.17122 C 533.2274,311.90997 538.83039,302.4552 538.83039,302.4552 L 523.90593,287.9378 z"
       id="path2242"
       style="fill:#000000;fill-rule:evenodd;stroke:#000000;stroke-width:3" />
    <path
       d="M 383.0419,469.55042 C 383.0419,469.55041 376.1304,480.43326 366.8667,492.08552 L 367.5137,496.29207 C 377.60568,515.03869 382.3949,552.17912 382.3949,552.17912 C 382.395,552.17912 390.03072,516.30979 397.59958,496.59254 C 397.72796,496.5284 397.56015,492.51437 397.59958,490.88365 C 389.33547,479.66498 383.0419,469.55041 383.0419,469.55042 z"
       id="path2312"
       style="fill:#ffd42a;fill-rule:evenodd;stroke:#000000;stroke-width:3" />
    <path
       d="M 382.25514,550.99533 L 383.14718,594.07688"
       id="path2317"
       style="fill:none;fill-rule:evenodd;stroke:#000000;stroke-width:3" />
    <path
       d="M 382.3031,182.64779 L 385.91509,310.8733"
       id="path4305"
       style="fill:none;fill-rule:evenodd;stroke:#000000;stroke-width:2" />
    <path
       d="M 382.9454,473.05712 L 382.30687,542.01675"
       id="path4310"
       style="fill:none;fill-rule:evenodd;stroke:#000000;stroke-width:2" />
    <path
       d="M 384.12547,183.73343 C 383.48606,183.71983 382.81166,183.76154 382.08791,183.82202 C 386.78125,183.92183 404.70863,188.31663 412.96133,193.03532 C 410.49069,196.73507 399.18578,222.11115 399.18567,259.87605 C 399.18556,287.99597 406.7157,311.92234 406.71577,311.92234 L 406.00706,313.42837 C 406.19816,313.48146 407.57924,313.87843 407.55737,313.87131 C 463.67057,326.61627 544.46304,370.85847 552.31251,380.57916 C 561.28016,391.68469 564.27204,405.56138 564.27209,405.56138 C 564.27209,405.56138 576.96191,339.10686 573.97263,328.00133 C 570.98335,316.89581 544.53256,277.84641 504.73999,247.7393 C 462.9589,216.12775 404.48804,184.16648 384.12547,183.73343 z M 406.00706,313.42837 C 403.51835,312.73686 385.62263,307.70866 385.32142,307.98011 C 384.84675,308.83161 368.96873,311.88811 365.07874,312.01093 L 365.25592,312.71965 C 373.30059,311.44189 385.5812,309.68502 385.41001,309.30896 C 386.24077,309.61763 399.94765,312.88488 405.74129,314.0042 L 406.00706,313.42837 z M 365.07874,312.01093 L 364.94585,311.52369 C 364.94585,311.52369 368.75517,287.06579 368.7552,258.94586 C 368.7552,222.24516 356.33252,195.63248 354.66948,193.2125 C 360.98286,190.45314 367.98651,187.40256 373.67191,185.54951 C 346.81335,193.37108 294.17457,225.09508 263.95389,247.7393 C 230.60607,272.72671 196.78024,311.18181 193.79107,322.28731 C 190.80189,333.39284 199.59368,400.02454 199.59368,400.02454 C 199.59368,400.02454 202.56285,394.46107 208.5412,380.57916 C 213.82224,368.31695 305.7307,320.90771 364.19284,311.92234 C 364.26731,312.00003 364.6145,312.02559 365.07874,312.01093 z M 382.08791,183.82202 C 380.39163,183.78594 378.00172,184.26498 375.31082,185.06227 C 377.82808,184.39725 380.12776,183.98584 382.08791,183.82202 z M 337.97037,222.04836 C 337.9704,222.04837 342.00692,236.73222 344.83605,256.28818 C 347.96584,277.92153 346.63243,297.0746 346.03201,297.26079 C 336.1238,300.33319 329.16411,301.76372 322.11286,305.32243 C 321.99978,305.36615 321.41993,285.04153 317.86057,264.03975 C 314.50887,244.26252 309.9971,239.05753 310.46335,239.05753 L 337.97037,222.04836 z M 436.43753,223.59867 L 463.23583,241.58233 C 463.70167,241.59904 458.99066,246.65636 454.81984,266.29878 C 450.39068,287.15737 448.90681,307.40773 448.79576,307.35999 C 441.8975,303.55122 435.00408,301.92622 425.23097,298.50105 C 424.63872,298.29348 424.12837,279.07783 428.15442,257.57272 C 431.79381,238.13271 436.43757,223.59867 436.43753,223.59867 z M 289.069,252.16877 C 289.06904,252.16875 291.0824,256.92275 295.66891,278.56842 C 300.43451,301.05894 298.68095,312.36529 298.68095,312.36529 L 280.07717,321.17994 C 280.07716,321.17994 276.32156,298.60606 273.30008,288.8005 C 268.74396,274.01423 265.45991,269.08935 265.45991,269.08935 L 289.069,252.16877 z M 484.05435,255.44658 L 506.95472,273.20876 C 506.95472,273.20876 503.43995,277.99785 498.27296,292.60985 C 494.8464,302.29982 490.16704,324.76783 490.16702,324.76781 L 471.96189,315.28874 C 471.96189,315.28874 470.69499,303.92776 476.39137,281.62476 C 481.87365,260.15956 484.05439,255.44659 484.05435,255.44658 z M 247.87491,283.21937 C 247.87494,283.21938 251.91859,292.13175 254.78489,304.25936 C 258.24033,318.87986 259.25865,329.37446 259.25865,329.37446 L 243.31256,338.45488 C 243.31256,338.4549 242.32064,329.94705 239.90186,318.1679 C 237.57047,306.81463 232.37176,297.1722 232.37176,297.1722 L 247.87491,283.21937 z M 523.9196,287.9589 L 538.84692,302.44328 C 538.84692,302.44328 533.23233,311.91196 530.43092,323.1732 C 527.52466,334.8569 526.17862,343.28301 526.17863,343.28301 L 510.63118,333.67105 C 510.63118,333.67105 512.0635,323.21892 516.12373,308.73313 C 519.4917,296.71726 523.9196,287.9589 523.9196,287.9589 z"
       id="path6106"
       style="opacity:0.33858301;fill:url(#linearGradient3497);fill-rule:evenodd;stroke:#000000;stroke-width:3" />
    <path
       d="M 381.50955,184.44382 C 376.30241,184.33083 364.98373,189.30297 355.3251,193.60968 C 356.91527,195.97034 368.77619,221.95243 368.77619,257.75333 C 368.77619,285.18384 365.11538,309.01192 365.11538,309.01192 L 365.4247,310.18432 C 373.36488,308.89766 385.61383,307.13893 384.63526,306.85024 C 385.23778,307.10692 398.5488,310.36721 404.13228,311.4677 L 405.06026,309.41599 C 405.06016,309.41599 397.8768,286.07175 397.87691,258.64125 C 397.87701,221.80224 408.67731,197.07647 411.03966,193.46742 C 403.14868,188.86444 385.99718,184.54118 381.50955,184.44382 z"
       id="path7933"
       style="opacity:0.32677199;fill:url(#linearGradient3494);fill-rule:evenodd;stroke:#000000;stroke-width:3" />
    <path
       d="M 364.95923,311.54167 L 365.09212,312.02891 C 368.98212,311.90609 384.86012,308.84955 385.3348,307.99809 C 385.63601,307.72664 403.53171,312.7548 406.02044,313.44634 L 406.72915,311.94032 C 384.16817,309.65576 379.64388,308.42357 364.95923,311.54167 z M 406.02044,313.44634 L 405.75467,314.02217 C 399.96103,312.90285 386.25414,309.63558 385.42339,309.32693 C 385.59458,309.70299 373.31395,311.45984 365.2693,312.73762 L 365.09212,312.02891 C 364.62788,312.04356 364.28068,312.01798 364.20622,311.94032 C 357.20769,313.01596 349.72144,314.62914 341.97027,316.67985 C 362.69995,328.4468 384.98055,356.27932 384.98045,356.27933 C 384.98046,356.27935 402.18546,332.26509 423.33967,318.05299 C 417.92908,316.43241 412.64939,315.04279 407.57075,313.88929 C 407.59262,313.8964 406.21152,313.49941 406.02044,313.44634 z M 247.57823,354.33036 C 231.77183,362.55794 219.2894,370.26243 212.93976,375.68042 C 215.88538,413.94123 223.59428,462.49353 235.53007,486.68298 C 266.03232,544.3408 307.91549,605.13354 385.64487,604.7727 C 459.20234,604.43126 504.89715,555.76497 527.34367,483.36088 C 536.01475,462.35167 547.23706,415.9679 552.37019,380.64143 C 552.35694,380.62498 552.33916,380.61357 552.32589,380.59713 C 549.36166,376.92627 535.97732,368.32276 517.46595,358.36118 C 517.07729,360.56631 516.66867,361.99335 516.66865,361.99335 C 516.66863,361.99335 502.95859,439.69415 480.08121,483.67094 C 471.57516,500.0219 450.23092,528.70567 430.95836,522.73888 C 411.68558,516.77211 383.03159,469.45232 383.03148,469.45234 C 383.03148,469.45234 353.44707,516.56624 334.1744,519.54966 C 314.90172,522.53306 293.64783,497.64469 280.79927,476.76097 C 258.43161,440.40474 248.08496,358.43038 247.57823,354.33036 z"
       id="path12392"
       style="opacity:0.33858301;fill:url(#linearGradient3491);fill-rule:evenodd;stroke:#000000;stroke-width:3" />
    <path
       d="M 270.4343,542.58292 C 246.98382,626.14043 166.82531,651.29246 151.81305,656.86329 C 132.22912,664.13056 43.335288,651.28216 43.335288,651.28216 C 43.335291,651.28216 93.875094,664.02176 102.91168,672.41074 C 124.43936,692.39576 154.81806,779.85045 172.89734,791.032 C 190.9768,802.21354 209.03827,791.06665 218.07795,796.65743 C 227.11743,802.24818 304.82394,827.03558 380.72815,826.37918 C 468.15956,825.62311 519.4102,805.03877 531.46308,799.44799 C 543.51615,793.85722 561.57762,807.83896 576.64369,796.65743 C 591.70989,785.47588 636.92166,690.4233 655.00105,673.65099 C 664.41624,664.91636 677.88701,659.99453 688.66504,657.26195 C 663.00113,661.66318 616.70058,668.43015 603.79636,662.44443 C 585.81425,654.1034 517.40517,628.13082 495.36289,549.09424 C 469.80638,583.68923 433.68243,604.54971 385.64487,604.7727 C 333.62451,605.01419 297.67754,577.85148 270.4343,542.58292 z M 688.66504,657.26195 C 698.95695,655.49693 706.25006,654.07273 706.25004,654.07273 C 706.25004,654.07273 698.58309,654.74739 688.66504,657.26195 z"
       id="path13290"
       style="opacity:0.32677199;fill:url(#linearGradient3488);fill-rule:evenodd;stroke:#000000;stroke-width:3" />
  </g>
  <metadata
     id="metadata852">
    <rdf:RDF>
      <cc:Work
         rdf:about="">
        <dc:creator>
          <cc:Agent>
            <dc:title>https://commons.wikimedia.org/wiki/File:H%C3%A9raldique_ornement_Heaume_baronnet.svg</dc:title>
          </cc:Agent>
        </dc:creator>
      </cc:Work>
    </rdf:RDF>
  </metadata>
</svg>
