<?xml version="1.0" encoding="utf-8"?>
<svg xmlns="http://www.w3.org/2000/svg" xmlns:dc="http://purl.org/dc/elements/1.1/"
     xmlns:xl="http://www.w3.org/1999/xlink"
     xmlns:xlink="http://www.w3.org/1999/xlink"
     version="1.1"
     viewBox="36 94.5 292.5 288"
     width="292.5"
     height="288"
     preserveAspectRatio="xMidYMid meet"
     zoomAndPan="magnify"
     contentScriptType="application/ecmascript"
     contentStyleType="text/css">
   <defs/>
   <metadata  xmlns:svg="http://www.w3.org/2000/svg"
             xmlns:rdf="http://www.w3.org/1999/02/22-rdf-syntax-ns#"
             xmlns:cc="http://creativecommons.org/ns#">
      <rdf:RDF>
         <cc:Work rdf:about="">
            <dc:creator>
               <cc:Agent>
                  <dc:title>http://heraldicart.org Ladybird.svg</dc:title>
               </cc:Agent>
            </dc:creator>
         </cc:Work>
      </rdf:RDF>
   </metadata>
   <g stroke-opacity="1" stroke-dasharray="none" stroke="#505050" fill="#ffff00"
      fill-opacity="1">
      <title>Ladybird</title>
      <g>
         <title>Layer 2</title>
         <g>
            <g>
               <g  id="feature-0">
                  <path 
                        d="M 181.20848 133.31793 C 189.99977 134.6073 198.85878 135.5762 207.75847 136.2217 L 207.75847 128.96626 C 207.65833 126.23728 205.77494 123.7545 202.80685 122.43875 C 198.667 121.04169 194.41501 119.87112 190.0798 118.93501 C 188.4115 117.12046 184.97118 115.97186 181.20448 115.97186 C 177.43778 115.97186 173.99746 117.12046 172.32915 118.93501 C 167.99666 119.8714 163.74736 121.04196 159.61011 122.43875 C 156.64201 123.7545 154.75863 126.23728 154.65848 128.96626 L 154.65848 136.2217 C 163.55818 135.5762 172.4172 134.6073 181.20848 133.31793 Z"
                        fill="#ff0000"/>
               </g>
               <path d="M 181.20848 133.31793 C 189.99977 134.6073 198.85878 135.5762 207.75847 136.2217 L 207.75847 128.96626 C 207.65833 126.23728 205.77494 123.7545 202.80685 122.43875 C 198.667 121.04169 194.41501 119.87112 190.0798 118.93501 C 188.4115 117.12046 184.97118 115.97186 181.20448 115.97186 C 177.43778 115.97186 173.99746 117.12046 172.32915 118.93501 C 167.99666 119.8714 163.74736 121.04196 159.61011 122.43875 C 156.64201 123.7545 154.75863 126.23728 154.65848 128.96626 L 154.65848 136.2217 C 163.55818 135.5762 172.4172 134.6073 181.20848 133.31793 Z"
                     stroke="#3f3f3f"
                     stroke-linecap="round"
                     stroke-linejoin="round"
                     stroke-width="2"/>
            </g>
            <g>
               <g  id="feature-1">
                  <path 
                        d="M 100.88784 196.0634 C 98.75356 196.1756 96.85381 194.7211 96.40534 192.63144 C 95.95688 190.5418 97.0925 188.43584 99.08487 187.6624 L 112.42902 190.96126 C 113.40668 191.52242 113.87789 192.67622 113.57258 193.76135 C 113.26727 194.84648 112.26355 195.5853 111.13672 195.55433 C 107.74879 196.09323 104.3125 196.26391 100.88784 196.0634 Z"
                        fill="#ff0000"/>
               </g>
               <path d="M 100.88784 196.0634 C 98.75356 196.1756 96.85381 194.7211 96.40534 192.63144 C 95.95688 190.5418 97.0925 188.43584 99.08487 187.6624 L 112.42902 190.96126 C 113.40668 191.52242 113.87789 192.67622 113.57258 193.76135 C 113.26727 194.84648 112.26355 195.5853 111.13672 195.55433 C 107.74879 196.09323 104.3125 196.26391 100.88784 196.0634 Z"
                     stroke="#3f3f3f"
                     stroke-linecap="round"
                     stroke-linejoin="round"
                     stroke-width="2"/>
            </g>
            <g>
               <g  id="feature-2">
                  <path 
                        d="M 96.65066 193.1004 C 90.14429 201.55986 85.68854 211.41305 83.63365 221.88553 C 83.5915 227.77503 78.7926 232.52042 72.90301 232.49655 L 74.04718 223.41506 C 74.86178 212.73767 79.84272 202.80892 87.91466 195.7723 C 90.79489 193.47793 93.82474 191.37794 96.98408 189.48627 C 96.55691 190.64067 96.4419 191.88734 96.65066 193.1004 Z"
                        fill="#ff0000"/>
               </g>
               <path d="M 96.65066 193.1004 C 90.14429 201.55986 85.68854 211.41305 83.63365 221.88553 C 83.5915 227.77503 78.7926 232.52042 72.90301 232.49655 L 74.04718 223.41506 C 74.86178 212.73767 79.84272 202.80892 87.91466 195.7723 C 90.79489 193.47793 93.82474 191.37794 96.98408 189.48627 C 96.55691 190.64067 96.4419 191.88734 96.65066 193.1004 Z"
                     stroke="#3f3f3f"
                     stroke-linecap="round"
                     stroke-linejoin="round"
                     stroke-width="2"/>
            </g>
            <g>
               <g  id="feature-3">
                  <path 
                        d="M 72.97874 229.25921 C 68.51082 229.5275 64.048606 229.88345 59.59466 230.32686 L 50.01278 231.84984 L 49.052304 230.08357 L 40.31472 230.01027 L 38.25 232.959 C 39.0721 231.87933 39.789592 230.7239 40.392774 229.5083 L 38.595745 225.5059 L 40.33777 229.19634 C 43.08243 228.24455 45.95464 227.711 48.858014 227.61358 L 50.142864 224.80237 C 53.72352 225.35598 57.257374 226.17863 60.7144 227.26332 L 73.43139 225.8653 Z"
                        fill="#ff0000"/>
               </g>
               <path d="M 72.97874 229.25921 C 68.51082 229.5275 64.048606 229.88345 59.59466 230.32686 L 50.01278 231.84984 L 49.052304 230.08357 L 40.31472 230.01027 L 38.25 232.959 C 39.0721 231.87933 39.789592 230.7239 40.392774 229.5083 L 38.595745 225.5059 L 40.33777 229.19634 C 43.08243 228.24455 45.95464 227.711 48.858014 227.61358 L 50.142864 224.80237 C 53.72352 225.35598 57.257374 226.17863 60.7144 227.26332 L 73.43139 225.8653 Z"
                     stroke="#3f3f3f"
                     stroke-linecap="round"
                     stroke-linejoin="round"
                     stroke-width="2"/>
            </g>
            <g>
               <g  id="feature-4">
                  <path 
                        d="M 87.24811 301.26176 C 85.28997 302.74575 82.54364 302.5864 80.77027 300.8859 C 78.99691 299.1854 78.72253 296.44816 80.1231 294.4295 L 94.9375 288.97397 C 96.22985 288.8774 97.42226 289.67223 97.83035 290.90225 C 98.23844 292.13228 97.75762 293.48224 96.66385 294.17733 C 93.78992 296.87143 90.63297 299.24673 87.24811 301.26176 Z"
                        fill="#ff0000"/>
               </g>
               <path d="M 87.24811 301.26176 C 85.28997 302.74575 82.54364 302.5864 80.77027 300.8859 C 78.99691 299.1854 78.72253 296.44816 80.1231 294.4295 L 94.9375 288.97397 C 96.22985 288.8774 97.42226 289.67223 97.83035 290.90225 C 98.23844 292.13228 97.75762 293.48224 96.66385 294.17733 C 93.78992 296.87143 90.63297 299.24673 87.24811 301.26176 Z"
                     stroke="#3f3f3f"
                     stroke-linecap="round"
                     stroke-linejoin="round"
                     stroke-width="2"/>
            </g>
            <g>
               <g  id="feature-5">
                  <path 
                        d="M 81.30989 301.16648 C 80.56606 313.4051 82.67137 325.64947 87.46028 336.9368 C 91.21531 342.5634 89.7113 350.16736 84.09701 353.9408 L 79.33212 344.5615 C 73.22895 333.8806 71.57136 321.22788 74.71725 309.3353 C 75.97923 305.2992 77.50856 301.35157 79.29509 297.51866 C 79.63423 298.8906 80.32919 300.14887 81.30989 301.16648 Z"
                        fill="#ff0000"/>
               </g>
               <path d="M 81.30989 301.16648 C 80.56606 313.4051 82.67137 325.64947 87.46028 336.9368 C 91.21531 342.5634 89.7113 350.16736 84.09701 353.9408 L 79.33212 344.5615 C 73.22895 333.8806 71.57136 321.22788 74.71725 309.3353 C 75.97923 305.2992 77.50856 301.35157 79.29509 297.51866 C 79.63423 298.8906 80.32919 300.14887 81.30989 301.16648 Z"
                     stroke="#3f3f3f"
                     stroke-linecap="round"
                     stroke-linejoin="round"
                     stroke-width="2"/>
            </g>
            <g>
               <g  id="feature-6">
                  <path 
                        d="M 82.07425 350.80526 C 77.9983 353.93797 73.98422 357.15037 70.03432 360.4406 L 61.90616 368.06528 L 59.85078 367.00094 L 51.491087 372.5579 L 51.426126 376.69306 C 51.513015 375.13775 51.4518 373.5777 51.243305 372.03397 L 46.95675 369.3825 L 50.991377 371.774 C 52.98884 369.098 55.3777 366.7379 58.07769 364.773 L 57.4846 361.2755 C 61.24652 359.49685 65.1371 358.00416 69.123304 356.8101 L 80.32139 347.28956 Z"
                        fill="#ff0000"/>
               </g>
               <path d="M 82.07425 350.80526 C 77.9983 353.93797 73.98422 357.15037 70.03432 360.4406 L 61.90616 368.06528 L 59.85078 367.00094 L 51.491087 372.5579 L 51.426126 376.69306 C 51.513015 375.13775 51.4518 373.5777 51.243305 372.03397 L 46.95675 369.3825 L 50.991377 371.774 C 52.98884 369.098 55.3777 366.7379 58.07769 364.773 L 57.4846 361.2755 C 61.24652 359.49685 65.1371 358.00416 69.123304 356.8101 L 80.32139 347.28956 Z"
                     stroke="#3f3f3f"
                     stroke-linecap="round"
                     stroke-linejoin="round"
                     stroke-width="2"/>
            </g>
            <g>
               <g  id="feature-7">
                  <path 
                        d="M 126.53341 164.58936 C 124.84946 163.27328 122.459 163.3751 120.89306 164.8296 C 119.32713 166.28411 119.04945 168.66058 120.23788 170.43692 L 133.06092 175.38854 C 134.18363 175.48963 135.23142 174.81477 135.60373 173.75076 C 135.97604 172.68676 135.5776 171.50585 134.6368 170.88488 C 132.17067 168.50021 129.45372 166.38942 126.53341 164.58936 Z"
                        fill="#ff0000"/>
               </g>
               <path d="M 126.53341 164.58936 C 124.84946 163.27328 122.459 163.3751 120.89306 164.8296 C 119.32713 166.28411 119.04945 168.66058 120.23788 170.43692 L 133.06092 175.38854 C 134.18363 175.48963 135.23142 174.81477 135.60373 173.75076 C 135.97604 172.68676 135.5776 171.50585 134.6368 170.88488 C 132.17067 168.50021 129.45372 166.38942 126.53341 164.58936 Z"
                     stroke="#3f3f3f"
                     stroke-linecap="round"
                     stroke-linejoin="round"
                     stroke-width="2"/>
            </g>
            <g>
               <g  id="feature-8">
                  <path 
                        d="M 121.363 164.58617 C 120.88544 153.92468 122.88706 143.2977 127.21056 133.54051 C 130.5541 128.69195 129.34493 122.05221 124.50676 118.69364 L 120.23509 126.78902 C 114.77807 136.00267 113.16331 146.99278 115.73942 157.38671 C 116.78278 160.91818 118.06017 164.37624 119.56314 167.73793 C 119.87536 166.5473 120.49621 165.46011 121.363 164.58617 Z"
                        fill="#ff0000"/>
               </g>
               <path d="M 121.363 164.58617 C 120.88544 153.92468 122.88706 143.2977 127.21056 133.54051 C 130.5541 128.69195 129.34493 122.05221 124.50676 118.69364 L 120.23509 126.78902 C 114.77807 136.00267 113.16331 146.99278 115.73942 157.38671 C 116.78278 160.91818 118.06017 164.37624 119.56314 167.73793 C 119.87536 166.5473 120.49621 165.46011 121.363 164.58617 Z"
                     stroke="#3f3f3f"
                     stroke-linecap="round"
                     stroke-linejoin="round"
                     stroke-width="2"/>
            </g>
            <g>
               <g  id="feature-9">
                  <path 
                        d="M 122.71194 121.38894 C 119.20592 118.60648 115.75485 115.75548 112.36072 112.83759 L 105.38525 106.0941 L 103.58538 106.99003 L 96.38593 102.0384 L 96.38593 98.43868 C 96.44009 99.79462 96.36509 101.15264 96.16194 102.49437 L 92.39423 104.7422 L 95.93796 102.71835 C 97.64033 105.07229 99.68707 107.15678 102.0095 108.90189 L 101.44954 111.94166 C 104.70019 113.54195 108.0668 114.89501 111.52078 115.98935 L 121.13606 124.42871 Z"
                        fill="#ff0000"/>
               </g>
               <path d="M 122.71194 121.38894 C 119.20592 118.60648 115.75485 115.75548 112.36072 112.83759 L 105.38525 106.0941 L 103.58538 106.99003 L 96.38593 102.0384 L 96.38593 98.43868 C 96.44009 99.79462 96.36509 101.15264 96.16194 102.49437 L 92.39423 104.7422 L 95.93796 102.71835 C 97.64033 105.07229 99.68707 107.15678 102.0095 108.90189 L 101.44954 111.94166 C 104.70019 113.54195 108.0668 114.89501 111.52078 115.98935 L 121.13606 124.42871 Z"
                     stroke="#3f3f3f"
                     stroke-linecap="round"
                     stroke-linejoin="round"
                     stroke-width="2"/>
            </g>
            <g>
               <g  id="feature-10">
                  <path 
                        d="M 196.7317 121.36873 C 197.79664 120.9513 199.0087 121.32654 199.65149 122.27266 C 199.7875 121.90034 199.91287 121.52422 200.02746 121.14475 C 200.05267 121.21992 200.07934 121.2946 200.10745 121.36873 L 219.00202 104.27402 C 220.5981 104.77682 222.34003 104.27309 223.42142 102.99604 C 224.5028 101.71899 224.7126 99.91786 223.95365 98.42647 C 222.55494 97.86891 220.98318 97.94527 219.6451 98.63579 C 218.30703 99.32631 217.33414 100.56313 216.97818 102.0262 L 200.8594 116.64109 C 201.21013 111.75152 199.8281 106.89456 196.9557 102.92213 C 196.64125 102.19597 195.88302 101.76675 195.09859 101.87084 C 194.31415 101.97494 193.69411 102.58706 193.57994 103.37009 C 194.3375 104.57765 194.57952 106.03843 194.2519 107.42579 C 193.49488 108.6236 193.46446 110.1424 194.1729 111.36957 C 194.88133 112.59674 196.2118 113.3299 197.62764 113.27334 C 198.5397 115.97165 198.21172 118.93517 196.7317 121.36873 Z"
                        fill="#ff0000"/>
               </g>
               <path d="M 196.7317 121.36873 C 197.79664 120.9513 199.0087 121.32654 199.65149 122.27266 C 199.7875 121.90034 199.91287 121.52422 200.02746 121.14475 C 200.05267 121.21992 200.07934 121.2946 200.10745 121.36873 L 219.00202 104.27402 C 220.5981 104.77682 222.34003 104.27309 223.42142 102.99604 C 224.5028 101.71899 224.7126 99.91786 223.95365 98.42647 C 222.55494 97.86891 220.98318 97.94527 219.6451 98.63579 C 218.30703 99.32631 217.33414 100.56313 216.97818 102.0262 L 200.8594 116.64109 C 201.21013 111.75152 199.8281 106.89456 196.9557 102.92213 C 196.64125 102.19597 195.88302 101.76675 195.09859 101.87084 C 194.31415 101.97494 193.69411 102.58706 193.57994 103.37009 C 194.3375 104.57765 194.57952 106.03843 194.2519 107.42579 C 193.49488 108.6236 193.46446 110.1424 194.1729 111.36957 C 194.88133 112.59674 196.2118 113.3299 197.62764 113.27334 C 198.5397 115.97165 198.21172 118.93517 196.7317 121.36873 Z"
                     stroke="#3f3f3f"
                     stroke-linecap="round"
                     stroke-linejoin="round"
                     stroke-width="2"/>
            </g>
            <g>
               <g  id="feature-11">
                  <path 
                        d="M 196.7317 121.36873 C 197.79664 120.9513 199.0087 121.32654 199.65149 122.27266 C 199.7875 121.90034 199.91287 121.52422 200.02746 121.14475 C 200.05267 121.21992 200.07934 121.2946 200.10745 121.36873 L 219.00202 104.27402 C 220.5981 104.77682 222.34003 104.27309 223.42142 102.99604 C 224.5028 101.71899 224.7126 99.91786 223.95365 98.42647 C 222.55494 97.86891 220.98318 97.94527 219.6451 98.63579 C 218.30703 99.32631 217.33414 100.56313 216.97818 102.0262 L 200.8594 116.64109 C 201.21013 111.75152 199.8281 106.89456 196.9557 102.92213 C 196.64125 102.19597 195.88302 101.76675 195.09859 101.87084 C 194.31415 101.97494 193.69411 102.58706 193.57994 103.37009 C 194.3375 104.57765 194.57952 106.03843 194.2519 107.42579 C 193.49488 108.6236 193.46446 110.1424 194.1729 111.36957 C 194.88133 112.59674 196.2118 113.3299 197.62764 113.27334 C 198.5397 115.97165 198.21172 118.93517 196.7317 121.36873 Z"
                        fill="#ff0000"/>
               </g>
               <path d="M 196.7317 121.36873 C 197.79664 120.9513 199.0087 121.32654 199.65149 122.27266 C 199.7875 121.90034 199.91287 121.52422 200.02746 121.14475 C 200.05267 121.21992 200.07934 121.2946 200.10745 121.36873 L 219.00202 104.27402 C 220.5981 104.77682 222.34003 104.27309 223.42142 102.99604 C 224.5028 101.71899 224.7126 99.91786 223.95365 98.42647 C 222.55494 97.86891 220.98318 97.94527 219.6451 98.63579 C 218.30703 99.32631 217.33414 100.56313 216.97818 102.0262 L 200.8594 116.64109 C 201.21013 111.75152 199.8281 106.89456 196.9557 102.92213 C 196.64125 102.19597 195.88302 101.76675 195.09859 101.87084 C 194.31415 101.97494 193.69411 102.58706 193.57994 103.37009 C 194.3375 104.57765 194.57952 106.03843 194.2519 107.42579 C 193.49488 108.6236 193.46446 110.1424 194.1729 111.36957 C 194.88133 112.59674 196.2118 113.3299 197.62764 113.27334 C 198.5397 115.97165 198.21172 118.93517 196.7317 121.36873 Z"
                     stroke="#3f3f3f"
                     stroke-linecap="round"
                     stroke-linejoin="round"
                     stroke-width="2"/>
            </g>
            <g>
               <g  id="feature-12">
                  <path 
                        d="M 164.10793 121.36873 C 163.043 120.9513 161.83094 121.32654 161.18815 122.27266 C 161.05214 121.90034 160.92676 121.52422 160.81218 121.14475 C 160.78697 121.21992 160.7603 121.2946 160.73219 121.36873 L 141.83761 104.27402 C 140.24154 104.77682 138.4996 104.27309 137.41822 102.99604 C 136.33683 101.71899 136.12705 99.91786 136.88599 98.42647 C 138.2847 97.86891 139.85645 97.94527 141.19453 98.63579 C 142.5326 99.32631 143.5055 100.56313 143.86146 102.0262 L 159.98024 116.64109 C 159.6295 111.75152 161.01155 106.89456 163.88395 102.92213 C 164.19839 102.19597 164.95661 101.76675 165.74105 101.87084 C 166.52549 101.97494 167.14552 102.58706 167.2597 103.37009 C 166.50214 104.57765 166.26011 106.03843 166.58774 107.42579 C 167.34475 108.6236 167.37518 110.1424 166.66674 111.36957 C 165.9583 112.59674 164.62785 113.3299 163.212 113.27334 C 162.29993 115.97165 162.62791 118.93517 164.10793 121.36873 Z"
                        fill="#ff0000"/>
               </g>
               <path d="M 164.10793 121.36873 C 163.043 120.9513 161.83094 121.32654 161.18815 122.27266 C 161.05214 121.90034 160.92676 121.52422 160.81218 121.14475 C 160.78697 121.21992 160.7603 121.2946 160.73219 121.36873 L 141.83761 104.27402 C 140.24154 104.77682 138.4996 104.27309 137.41822 102.99604 C 136.33683 101.71899 136.12705 99.91786 136.88599 98.42647 C 138.2847 97.86891 139.85645 97.94527 141.19453 98.63579 C 142.5326 99.32631 143.5055 100.56313 143.86146 102.0262 L 159.98024 116.64109 C 159.6295 111.75152 161.01155 106.89456 163.88395 102.92213 C 164.19839 102.19597 164.95661 101.76675 165.74105 101.87084 C 166.52549 101.97494 167.14552 102.58706 167.2597 103.37009 C 166.50214 104.57765 166.26011 106.03843 166.58774 107.42579 C 167.34475 108.6236 167.37518 110.1424 166.66674 111.36957 C 165.9583 112.59674 164.62785 113.3299 163.212 113.27334 C 162.29993 115.97165 162.62791 118.93517 164.10793 121.36873 Z"
                     stroke="#3f3f3f"
                     stroke-linecap="round"
                     stroke-linejoin="round"
                     stroke-width="2"/>
            </g>
            <g>
               <g  id="feature-13">
                  <path 
                        d="M 164.10793 121.36873 C 163.043 120.9513 161.83094 121.32654 161.18815 122.27266 C 161.05214 121.90034 160.92676 121.52422 160.81218 121.14475 C 160.78697 121.21992 160.7603 121.2946 160.73219 121.36873 L 141.83761 104.27402 C 140.24154 104.77682 138.4996 104.27309 137.41822 102.99604 C 136.33683 101.71899 136.12705 99.91786 136.88599 98.42647 C 138.2847 97.86891 139.85645 97.94527 141.19453 98.63579 C 142.5326 99.32631 143.5055 100.56313 143.86146 102.0262 L 159.98024 116.64109 C 159.6295 111.75152 161.01155 106.89456 163.88395 102.92213 C 164.19839 102.19597 164.95661 101.76675 165.74105 101.87084 C 166.52549 101.97494 167.14552 102.58706 167.2597 103.37009 C 166.50214 104.57765 166.26011 106.03843 166.58774 107.42579 C 167.34475 108.6236 167.37518 110.1424 166.66674 111.36957 C 165.9583 112.59674 164.62785 113.3299 163.212 113.27334 C 162.29993 115.97165 162.62791 118.93517 164.10793 121.36873 Z"
                        fill="#ff0000"/>
               </g>
               <path d="M 164.10793 121.36873 C 163.043 120.9513 161.83094 121.32654 161.18815 122.27266 C 161.05214 121.90034 160.92676 121.52422 160.81218 121.14475 C 160.78697 121.21992 160.7603 121.2946 160.73219 121.36873 L 141.83761 104.27402 C 140.24154 104.77682 138.4996 104.27309 137.41822 102.99604 C 136.33683 101.71899 136.12705 99.91786 136.88599 98.42647 C 138.2847 97.86891 139.85645 97.94527 141.19453 98.63579 C 142.5326 99.32631 143.5055 100.56313 143.86146 102.0262 L 159.98024 116.64109 C 159.6295 111.75152 161.01155 106.89456 163.88395 102.92213 C 164.19839 102.19597 164.95661 101.76675 165.74105 101.87084 C 166.52549 101.97494 167.14552 102.58706 167.2597 103.37009 C 166.50214 104.57765 166.26011 106.03843 166.58774 107.42579 C 167.34475 108.6236 167.37518 110.1424 166.66674 111.36957 C 165.9583 112.59674 164.62785 113.3299 163.212 113.27334 C 162.29993 115.97165 162.62791 118.93517 164.10793 121.36873 Z"
                     stroke="#3f3f3f"
                     stroke-linecap="round"
                     stroke-linejoin="round"
                     stroke-width="2"/>
            </g>
            <g>
               <g  id="feature-14">
                  <path 
                        d="M 263.61216 196.0634 C 265.74644 196.1756 267.6462 194.7211 268.09466 192.63144 C 268.54312 190.5418 267.4075 188.43584 265.41513 187.6624 L 252.07098 190.96126 C 251.09332 191.52242 250.6221 192.67622 250.92742 193.76135 C 251.23273 194.84648 252.23645 195.5853 253.36328 195.55433 C 256.7512 196.09323 260.1875 196.26391 263.61216 196.0634 Z"
                        fill="#ff0000"/>
               </g>
               <path d="M 263.61216 196.0634 C 265.74644 196.1756 267.6462 194.7211 268.09466 192.63144 C 268.54312 190.5418 267.4075 188.43584 265.41513 187.6624 L 252.07098 190.96126 C 251.09332 191.52242 250.6221 192.67622 250.92742 193.76135 C 251.23273 194.84648 252.23645 195.5853 253.36328 195.55433 C 256.7512 196.09323 260.1875 196.26391 263.61216 196.0634 Z"
                     stroke="#3f3f3f"
                     stroke-linecap="round"
                     stroke-linejoin="round"
                     stroke-width="2"/>
            </g>
            <g>
               <g  id="feature-15">
                  <path 
                        d="M 267.84934 193.1004 C 274.3557 201.55986 278.81146 211.41305 280.86635 221.88553 C 280.9085 227.77503 285.7074 232.52042 291.597 232.49655 L 290.45282 223.41506 C 289.63822 212.73767 284.65728 202.80892 276.58534 195.7723 C 273.7051 193.47793 270.67526 191.37794 267.51592 189.48627 C 267.9431 190.64067 268.0581 191.88734 267.84934 193.1004 Z"
                        fill="#ff0000"/>
               </g>
               <path d="M 267.84934 193.1004 C 274.3557 201.55986 278.81146 211.41305 280.86635 221.88553 C 280.9085 227.77503 285.7074 232.52042 291.597 232.49655 L 290.45282 223.41506 C 289.63822 212.73767 284.65728 202.80892 276.58534 195.7723 C 273.7051 193.47793 270.67526 191.37794 267.51592 189.48627 C 267.9431 190.64067 268.0581 191.88734 267.84934 193.1004 Z"
                     stroke="#3f3f3f"
                     stroke-linecap="round"
                     stroke-linejoin="round"
                     stroke-width="2"/>
            </g>
            <g>
               <g  id="feature-16">
                  <path 
                        d="M 291.52126 229.25921 C 295.98918 229.5275 300.4514 229.88345 304.90534 230.32686 L 314.48722 231.84984 L 315.4477 230.08357 L 324.1853 230.01027 L 326.25 232.959 C 325.4279 231.87933 324.7104 230.7239 324.10723 229.5083 L 325.90426 225.5059 L 324.16223 229.19634 C 321.41757 228.24455 318.54536 227.711 315.642 227.61358 L 314.35714 224.80237 C 310.77648 225.35598 307.24263 226.17863 303.7856 227.26332 L 291.0686 225.8653 Z"
                        fill="#ff0000"/>
               </g>
               <path d="M 291.52126 229.25921 C 295.98918 229.5275 300.4514 229.88345 304.90534 230.32686 L 314.48722 231.84984 L 315.4477 230.08357 L 324.1853 230.01027 L 326.25 232.959 C 325.4279 231.87933 324.7104 230.7239 324.10723 229.5083 L 325.90426 225.5059 L 324.16223 229.19634 C 321.41757 228.24455 318.54536 227.711 315.642 227.61358 L 314.35714 224.80237 C 310.77648 225.35598 307.24263 226.17863 303.7856 227.26332 L 291.0686 225.8653 Z"
                     stroke="#3f3f3f"
                     stroke-linecap="round"
                     stroke-linejoin="round"
                     stroke-width="2"/>
            </g>
            <g>
               <g  id="feature-17">
                  <path 
                        d="M 277.2519 301.26176 C 279.21003 302.74575 281.95636 302.5864 283.72973 300.8859 C 285.5031 299.1854 285.77747 296.44816 284.3769 294.4295 L 269.5625 288.97397 C 268.27015 288.8774 267.07774 289.67223 266.66965 290.90225 C 266.26156 292.13228 266.74238 293.48224 267.83615 294.17733 C 270.71008 296.87143 273.86703 299.24673 277.2519 301.26176 Z"
                        fill="#ff0000"/>
               </g>
               <path d="M 277.2519 301.26176 C 279.21003 302.74575 281.95636 302.5864 283.72973 300.8859 C 285.5031 299.1854 285.77747 296.44816 284.3769 294.4295 L 269.5625 288.97397 C 268.27015 288.8774 267.07774 289.67223 266.66965 290.90225 C 266.26156 292.13228 266.74238 293.48224 267.83615 294.17733 C 270.71008 296.87143 273.86703 299.24673 277.2519 301.26176 Z"
                     stroke="#3f3f3f"
                     stroke-linecap="round"
                     stroke-linejoin="round"
                     stroke-width="2"/>
            </g>
            <g>
               <g  id="feature-18">
                  <path 
                        d="M 283.1901 301.16648 C 283.93394 313.4051 281.82863 325.64947 277.03972 336.9368 C 273.2847 342.5634 274.7887 350.16736 280.403 353.9408 L 285.16788 344.5615 C 291.27105 333.8806 292.92864 321.22788 289.78275 309.3353 C 288.52077 305.2992 286.99144 301.35157 285.2049 297.51866 C 284.86577 298.8906 284.1708 300.14887 283.1901 301.16648 Z"
                        fill="#ff0000"/>
               </g>
               <path d="M 283.1901 301.16648 C 283.93394 313.4051 281.82863 325.64947 277.03972 336.9368 C 273.2847 342.5634 274.7887 350.16736 280.403 353.9408 L 285.16788 344.5615 C 291.27105 333.8806 292.92864 321.22788 289.78275 309.3353 C 288.52077 305.2992 286.99144 301.35157 285.2049 297.51866 C 284.86577 298.8906 284.1708 300.14887 283.1901 301.16648 Z"
                     stroke="#3f3f3f"
                     stroke-linecap="round"
                     stroke-linejoin="round"
                     stroke-width="2"/>
            </g>
            <g>
               <g  id="feature-19">
                  <path 
                        d="M 282.42575 350.80526 C 286.5017 353.93797 290.51578 357.15037 294.46568 360.4406 L 302.59384 368.06528 L 304.64922 367.00094 L 313.0089 372.5579 L 313.07387 376.69306 C 312.987 375.13775 313.0482 373.5777 313.2567 372.03397 L 317.54325 369.3825 L 313.50862 371.774 C 311.51116 369.098 309.1223 366.7379 306.4223 364.773 L 307.0154 361.2755 C 303.25348 359.49685 299.3629 358.00416 295.3767 356.8101 L 284.1786 347.28956 Z"
                        fill="#ff0000"/>
               </g>
               <path d="M 282.42575 350.80526 C 286.5017 353.93797 290.51578 357.15037 294.46568 360.4406 L 302.59384 368.06528 L 304.64922 367.00094 L 313.0089 372.5579 L 313.07387 376.69306 C 312.987 375.13775 313.0482 373.5777 313.2567 372.03397 L 317.54325 369.3825 L 313.50862 371.774 C 311.51116 369.098 309.1223 366.7379 306.4223 364.773 L 307.0154 361.2755 C 303.25348 359.49685 299.3629 358.00416 295.3767 356.8101 L 284.1786 347.28956 Z"
                     stroke="#3f3f3f"
                     stroke-linecap="round"
                     stroke-linejoin="round"
                     stroke-width="2"/>
            </g>
            <g>
               <g  id="feature-20">
                  <path 
                        d="M 237.9666 164.58936 C 239.65054 163.27328 242.041 163.3751 243.60694 164.8296 C 245.17287 166.28411 245.45055 168.66058 244.26212 170.43692 L 231.43908 175.38854 C 230.31637 175.48963 229.26858 174.81477 228.89627 173.75076 C 228.52396 172.68676 228.9224 171.50585 229.8632 170.88488 C 232.32933 168.50021 235.04628 166.38942 237.9666 164.58936 Z"
                        fill="#ff0000"/>
               </g>
               <path d="M 237.9666 164.58936 C 239.65054 163.27328 242.041 163.3751 243.60694 164.8296 C 245.17287 166.28411 245.45055 168.66058 244.26212 170.43692 L 231.43908 175.38854 C 230.31637 175.48963 229.26858 174.81477 228.89627 173.75076 C 228.52396 172.68676 228.9224 171.50585 229.8632 170.88488 C 232.32933 168.50021 235.04628 166.38942 237.9666 164.58936 Z"
                     stroke="#3f3f3f"
                     stroke-linecap="round"
                     stroke-linejoin="round"
                     stroke-width="2"/>
            </g>
            <g>
               <g  id="feature-21">
                  <path 
                        d="M 243.137 164.58617 C 243.61456 153.92468 241.61294 143.2977 237.28944 133.54051 C 233.9459 128.69195 235.15507 122.05221 239.99324 118.69364 L 244.26491 126.78902 C 249.72193 136.00267 251.3367 146.99278 248.76058 157.38671 C 247.71722 160.91818 246.43983 164.37624 244.93686 167.73793 C 244.62464 166.5473 244.0038 165.46011 243.137 164.58617 Z"
                        fill="#ff0000"/>
               </g>
               <path d="M 243.137 164.58617 C 243.61456 153.92468 241.61294 143.2977 237.28944 133.54051 C 233.9459 128.69195 235.15507 122.05221 239.99324 118.69364 L 244.26491 126.78902 C 249.72193 136.00267 251.3367 146.99278 248.76058 157.38671 C 247.71722 160.91818 246.43983 164.37624 244.93686 167.73793 C 244.62464 166.5473 244.0038 165.46011 243.137 164.58617 Z"
                     stroke="#3f3f3f"
                     stroke-linecap="round"
                     stroke-linejoin="round"
                     stroke-width="2"/>
            </g>
            <g>
               <g  id="feature-22">
                  <path 
                        d="M 241.78806 121.38894 C 245.29408 118.60648 248.74515 115.75548 252.13928 112.83759 L 259.11475 106.0941 L 260.91462 106.99003 L 268.11407 102.0384 L 268.11407 98.43868 C 268.0599 99.79462 268.1349 101.15264 268.33806 102.49437 L 272.10577 104.7422 L 268.56204 102.71835 C 266.85967 105.07229 264.81293 107.15678 262.4905 108.90189 L 263.05046 111.94166 C 259.7998 113.54195 256.4332 114.89501 252.97922 115.98935 L 243.36394 124.42871 Z"
                        fill="#ff0000"/>
               </g>
               <path d="M 241.78806 121.38894 C 245.29408 118.60648 248.74515 115.75548 252.13928 112.83759 L 259.11475 106.0941 L 260.91462 106.99003 L 268.11407 102.0384 L 268.11407 98.43868 C 268.0599 99.79462 268.1349 101.15264 268.33806 102.49437 L 272.10577 104.7422 L 268.56204 102.71835 C 266.85967 105.07229 264.81293 107.15678 262.4905 108.90189 L 263.05046 111.94166 C 259.7998 113.54195 256.4332 114.89501 252.97922 115.98935 L 243.36394 124.42871 Z"
                     stroke="#3f3f3f"
                     stroke-linecap="round"
                     stroke-linejoin="round"
                     stroke-width="2"/>
            </g>
            <g>
               <g  id="feature-23">
                  <path 
                        d="M 118.88599 279.14656 C 118.76195 244.3294 130.61274 212.07403 149.94535 194.60943 C 169.27797 177.14483 193.1326 177.14483 212.4652 194.60943 C 231.79782 212.07403 243.6486 244.3294 243.52457 279.14656 C 243.6486 313.9637 231.79782 346.2191 212.4652 363.6837 C 193.1326 381.1483 169.27797 381.1483 149.94535 363.6837 C 130.61274 346.2191 118.76195 313.9637 118.88599 279.14656 Z"
                        fill="#ff0000"/>
               </g>
               <path d="M 118.88599 279.14656 C 118.76195 244.3294 130.61274 212.07403 149.94535 194.60943 C 169.27797 177.14483 193.1326 177.14483 212.4652 194.60943 C 231.79782 212.07403 243.6486 244.3294 243.52457 279.14656 C 243.6486 313.9637 231.79782 346.2191 212.4652 363.6837 C 193.1326 381.1483 169.27797 381.1483 149.94535 363.6837 C 130.61274 346.2191 118.76195 313.9637 118.88599 279.14656 Z"
                     stroke="black"
                     stroke-linecap="round"
                     stroke-linejoin="round"
                     stroke-width="2"/>
            </g>
            <g>
               <path d="M 188.40905 378.94302 L 182.10553 180.05405 L 234.3016 179.15812 C 240.2022 178.62179 245.91565 181.39232 249.14847 186.35757 C 266.5498 215.30684 273.52475 249.33763 268.91497 282.7983 C 264.11908 328.2321 232.29366 366.2398 188.40905 378.94302 Z"/>
               <path d="M 188.40905 378.94302 L 182.10553 180.05405 L 234.3016 179.15812 C 240.2022 178.62179 245.91565 181.39232 249.14847 186.35757 C 266.5498 215.30684 273.52475 249.33763 268.91497 282.7983 C 264.11908 328.2321 232.29366 366.2398 188.40905 378.94302 Z"
                     stroke="black"
                     stroke-linecap="round"
                     stroke-linejoin="round"
                     stroke-width="2"/>
            </g>
            <g>
               <path d="M 174.00374 378.94302 L 180.30727 180.05405 L 128.11121 179.15812 C 122.2106 178.62179 116.49715 181.39232 113.26433 186.35757 C 95.86301 215.30684 88.88805 249.33763 93.49783 282.7983 C 98.29372 328.2321 130.11914 366.2398 174.00374 378.94302 Z"/>
               <path d="M 174.00374 378.94302 L 180.30727 180.05405 L 128.11121 179.15812 C 122.2106 178.62179 116.49715 181.39232 113.26433 186.35757 C 95.86301 215.30684 88.88805 249.33763 93.49783 282.7983 C 98.29372 328.2321 130.11914 366.2398 174.00374 378.94302 Z"
                     stroke="black"
                     stroke-linecap="round"
                     stroke-linejoin="round"
                     stroke-width="2"/>
            </g>
            <g>
               <g  id="feature-24">
                  <path 
                        d="M 181.20688 179.22155 C 197.2718 180.40398 213.42324 179.1908 229.13126 175.62182 C 234.53238 174.19275 238.07185 169.02308 237.45063 163.47074 C 236.4905 152.872 231.4963 143.04686 223.49968 136.02481 C 222.25123 134.33593 220.36338 133.23454 218.27876 132.97888 C 216.19414 132.72322 214.0961 133.33577 212.47652 134.67292 C 202.02654 135.84629 191.4532 135.2377 181.20688 132.87305 C 170.96055 135.2377 160.38722 135.84629 149.93724 134.67292 C 148.31725 133.33313 146.21733 132.71897 144.1307 132.97469 C 142.04407 133.23041 140.1546 134.33348 138.90607 136.02481 C 130.91242 143.0482 125.92119 152.87317 124.96313 163.47074 C 124.3419 169.02308 127.88137 174.19275 133.2825 175.62182 C 148.99052 179.1908 165.14197 180.40398 181.20688 179.22155 Z"
                        fill="#ff0000"/>
               </g>
               <path d="M 181.20688 179.22155 C 197.2718 180.40398 213.42324 179.1908 229.13126 175.62182 C 234.53238 174.19275 238.07185 169.02308 237.45063 163.47074 C 236.4905 152.872 231.4963 143.04686 223.49968 136.02481 C 222.25123 134.33593 220.36338 133.23454 218.27876 132.97888 C 216.19414 132.72322 214.0961 133.33577 212.47652 134.67292 C 202.02654 135.84629 191.4532 135.2377 181.20688 132.87305 C 170.96055 135.2377 160.38722 135.84629 149.93724 134.67292 C 148.31725 133.33313 146.21733 132.71897 144.1307 132.97469 C 142.04407 133.23041 140.1546 134.33348 138.90607 136.02481 C 130.91242 143.0482 125.92119 152.87317 124.96313 163.47074 C 124.3419 169.02308 127.88137 174.19275 133.2825 175.62182 C 148.99052 179.1908 165.14197 180.40398 181.20688 179.22155 Z"
                     stroke="#3f3f3f"
                     stroke-linecap="round"
                     stroke-linejoin="round"
                     stroke-width="2"/>
            </g>
            <g>
               <path d="M 128.39247 151.16191 C 128.01525 152.63243 128.3407 154.19473 129.27372 155.39231 C 130.20673 156.58989 131.642 157.28756 133.16011 157.28145 L 139.00767 158.18538 C 144.49375 159.42922 150.16919 157.08794 153.1826 152.33782 C 155.34178 145.79103 159.17162 139.92082 164.29376 135.30711 C 159.6079 135.49088 154.91485 135.31974 150.25482 134.79515 C 148.63524 133.458 146.5372 132.84545 144.45257 133.1011 C 142.36796 133.35677 140.4801 134.45816 139.23165 136.14705 C 135.0686 139.80311 131.67959 144.2556 129.2644 149.24206 L 129.3364 149.29805 C 129.24026 149.4138 129.1495 149.53392 129.06442 149.65802 C 128.83051 150.15483 128.60648 150.65622 128.39247 151.16191 Z"/>
               <path d="M 128.39247 151.16191 C 128.01525 152.63243 128.3407 154.19473 129.27372 155.39231 C 130.20673 156.58989 131.642 157.28756 133.16011 157.28145 L 139.00767 158.18538 C 144.49375 159.42922 150.16919 157.08794 153.1826 152.33782 C 155.34178 145.79103 159.17162 139.92082 164.29376 135.30711 C 159.6079 135.49088 154.91485 135.31974 150.25482 134.79515 C 148.63524 133.458 146.5372 132.84545 144.45257 133.1011 C 142.36796 133.35677 140.4801 134.45816 139.23165 136.14705 C 135.0686 139.80311 131.67959 144.2556 129.2644 149.24206 L 129.3364 149.29805 C 129.24026 149.4138 129.1495 149.53392 129.06442 149.65802 C 128.83051 150.15483 128.60648 150.65622 128.39247 151.16191 Z"
                     stroke="#3f3f3f"
                     stroke-linecap="round"
                     stroke-linejoin="round"
                     stroke-width="2"/>
            </g>
            <g>
               <path d="M 234.62844 151.16191 C 235.00566 152.63243 234.6802 154.19473 233.7472 155.39231 C 232.81418 156.58989 231.37892 157.28756 229.8608 157.28145 L 224.01324 158.18538 C 218.52716 159.42922 212.85172 157.08794 209.83832 152.33782 C 207.67913 145.79103 203.8493 139.92082 198.72716 135.30711 C 203.41302 135.49088 208.10607 135.31974 212.7661 134.79515 C 214.38567 133.458 216.48372 132.84545 218.56834 133.1011 C 220.65295 133.35677 222.5408 134.45816 223.78926 136.14705 C 227.95232 139.80311 231.34132 144.2556 233.7565 149.24206 L 233.68451 149.29805 C 233.78065 149.4138 233.8714 149.53392 233.9565 149.65802 C 234.1904 150.15483 234.41443 150.65622 234.62844 151.16191 Z"/>
               <path d="M 234.62844 151.16191 C 235.00566 152.63243 234.6802 154.19473 233.7472 155.39231 C 232.81418 156.58989 231.37892 157.28756 229.8608 157.28145 L 224.01324 158.18538 C 218.52716 159.42922 212.85172 157.08794 209.83832 152.33782 C 207.67913 145.79103 203.8493 139.92082 198.72716 135.30711 C 203.41302 135.49088 208.10607 135.31974 212.7661 134.79515 C 214.38567 133.458 216.48372 132.84545 218.56834 133.1011 C 220.65295 133.35677 222.5408 134.45816 223.78926 136.14705 C 227.95232 139.80311 231.34132 144.2556 233.7565 149.24206 L 233.68451 149.29805 C 233.78065 149.4138 233.8714 149.53392 233.9565 149.65802 C 234.1904 150.15483 234.41443 150.65622 234.62844 151.16191 Z"
                     stroke="#3f3f3f"
                     stroke-linecap="round"
                     stroke-linejoin="round"
                     stroke-width="2"/>
            </g>
            <g>
               <path d="M 162.30743 121.83573 C 162.92035 124.51488 165.4479 126.30618 168.1788 125.99682 C 170.9097 125.68747 172.97251 123.37619 172.97062 120.62783 C 172.9709 119.9718 172.85162 119.32123 172.61865 118.70797 C 172.37803 118.90275 172.16158 119.10584 171.9707 119.31592 C 168.69867 120.02323 165.4734 120.86425 162.30743 121.83573 Z"/>
               <path d="M 162.30743 121.83573 C 162.92035 124.51488 165.4479 126.30618 168.1788 125.99682 C 170.9097 125.68747 172.97251 123.37619 172.97062 120.62783 C 172.9709 119.9718 172.85162 119.32123 172.61865 118.70797 C 172.37803 118.90275 172.16158 119.10584 171.9707 119.31592 C 168.69867 120.02323 165.4734 120.86425 162.30743 121.83573 Z"
                     stroke="#3f3f3f"
                     stroke-linecap="round"
                     stroke-linejoin="round"
                     stroke-width="2"/>
            </g>
            <g>
               <path d="M 200.19296 121.83573 C 199.58004 124.51488 197.0525 126.30618 194.3216 125.99682 C 191.5907 125.68747 189.52788 123.37619 189.52977 120.62783 C 189.5295 119.9718 189.64877 119.32123 189.88174 118.70797 C 190.12236 118.90275 190.3388 119.10584 190.5297 119.31592 C 193.80172 120.02323 197.02698 120.86425 200.19296 121.83573 Z"/>
               <path d="M 200.19296 121.83573 C 199.58004 124.51488 197.0525 126.30618 194.3216 125.99682 C 191.5907 125.68747 189.52788 123.37619 189.52977 120.62783 C 189.5295 119.9718 189.64877 119.32123 189.88174 118.70797 C 190.12236 118.90275 190.3388 119.10584 190.5297 119.31592 C 193.80172 120.02323 197.02698 120.86425 200.19296 121.83573 Z"
                     stroke="#3f3f3f"
                     stroke-linecap="round"
                     stroke-linejoin="round"
                     stroke-width="2"/>
            </g>
            <g>
               <path d="M 148.91972 179.2781 C 155.87303 190.47594 168.1524 197.24853 181.33313 197.15545 C 194.51385 197.06238 206.69636 190.11705 213.49084 178.82214 C 191.9702 179.26696 170.4445 179.41896 148.91972 179.2781 Z"/>
               <path d="M 148.91972 179.2781 C 155.87303 190.47594 168.1524 197.24853 181.33313 197.15545 C 194.51385 197.06238 206.69636 190.11705 213.49084 178.82214 C 191.9702 179.26696 170.4445 179.41896 148.91972 179.2781 Z"
                     stroke="black"
                     stroke-linecap="round"
                     stroke-linejoin="round"
                     stroke-width="2"/>
            </g>
            <g>
               <g  id="feature-25">
                  <path 
                        d="M 121.63256 260.12906 C 126.86311 254.8985 137.4636 257.0186 145.30942 264.86443 C 153.15524 272.71025 155.27534 283.31074 150.0448 288.5413 C 144.81425 293.77184 134.21375 291.65174 126.36793 283.80592 C 118.52211 275.9601 116.40201 265.3596 121.63256 260.12906 Z"
                        fill="#ff0000"/>
               </g>
               <path d="M 121.63256 260.12906 C 126.86311 254.8985 137.4636 257.0186 145.30942 264.86443 C 153.15524 272.71025 155.27534 283.31074 150.0448 288.5413 C 144.81425 293.77184 134.21375 291.65174 126.36793 283.80592 C 118.52211 275.9601 116.40201 265.3596 121.63256 260.12906 Z"
                     stroke="black"
                     stroke-linecap="round"
                     stroke-linejoin="round"
                     stroke-width="2"/>
            </g>
            <g>
               <g  id="feature-26">
                  <path 
                        d="M 113.34214 315.33183 C 116.54934 313.45953 121.00638 314.306 125.02806 317.5512 C 129.04974 320.79637 132.02233 325.94506 132.82191 331.05053 C 133.62149 336.156 132.12603 340.43914 128.90097 342.2805 C 123.93736 345.1145 116.45418 341.40067 112.16744 333.97583 C 107.88071 326.551 108.40603 318.21344 113.34214 315.33183 Z"
                        fill="#ff0000"/>
               </g>
               <path d="M 113.34214 315.33183 C 116.54934 313.45953 121.00638 314.306 125.02806 317.5512 C 129.04974 320.79637 132.02233 325.94506 132.82191 331.05053 C 133.62149 336.156 132.12603 340.43914 128.90097 342.2805 C 123.93736 345.1145 116.45418 341.40067 112.16744 333.97583 C 107.88071 326.551 108.40603 318.21344 113.34214 315.33183 Z"
                     stroke="black"
                     stroke-linecap="round"
                     stroke-linejoin="round"
                     stroke-width="2"/>
            </g>
            <g>
               <g  id="feature-27">
                  <path 
                        d="M 108.52464 223.79136 C 112.18499 224.41864 115.05518 227.932 116.05 233.00304 C 117.04482 238.0741 116.01244 243.92896 113.34322 248.35393 C 110.674 252.7789 106.77526 255.09872 103.12111 254.43626 C 97.49712 253.41668 94.15187 245.76162 95.64064 237.3184 C 97.1294 228.8752 102.8911 222.82593 108.52464 223.79136 Z"
                        fill="#ff0000"/>
               </g>
               <path d="M 108.52464 223.79136 C 112.18499 224.41864 115.05518 227.932 116.05 233.00304 C 117.04482 238.0741 116.01244 243.92896 113.34322 248.35393 C 110.674 252.7789 106.77526 255.09872 103.12111 254.43626 C 97.49712 253.41668 94.15187 245.76162 95.64064 237.3184 C 97.1294 228.8752 102.8911 222.82593 108.52464 223.79136 Z"
                     stroke="black"
                     stroke-linecap="round"
                     stroke-linejoin="round"
                     stroke-width="2"/>
            </g>
            <g>
               <g  id="feature-28">
                  <path 
                        d="M 240.71144 260.12906 C 235.4809 254.8985 224.8804 257.0186 217.03458 264.86443 C 209.18876 272.71025 207.06866 283.31074 212.2992 288.5413 C 217.52976 293.77184 228.13025 291.65174 235.97607 283.80592 C 243.8219 275.9601 245.942 265.3596 240.71144 260.12906 Z"
                        fill="#ff0000"/>
               </g>
               <path d="M 240.71144 260.12906 C 235.4809 254.8985 224.8804 257.0186 217.03458 264.86443 C 209.18876 272.71025 207.06866 283.31074 212.2992 288.5413 C 217.52976 293.77184 228.13025 291.65174 235.97607 283.80592 C 243.8219 275.9601 245.942 265.3596 240.71144 260.12906 Z"
                     stroke="black"
                     stroke-linecap="round"
                     stroke-linejoin="round"
                     stroke-width="2"/>
            </g>
            <g>
               <g  id="feature-29">
                  <path 
                        d="M 249.00186 315.33183 C 245.79466 313.45953 241.33762 314.306 237.31594 317.5512 C 233.29427 320.79637 230.32167 325.94506 229.5221 331.05053 C 228.72252 336.156 230.21797 340.43914 233.44304 342.2805 C 238.40664 345.1145 245.88983 341.40067 250.17656 333.97583 C 254.4633 326.551 253.93797 318.21344 249.00186 315.33183 Z"
                        fill="#ff0000"/>
               </g>
               <path d="M 249.00186 315.33183 C 245.79466 313.45953 241.33762 314.306 237.31594 317.5512 C 233.29427 320.79637 230.32167 325.94506 229.5221 331.05053 C 228.72252 336.156 230.21797 340.43914 233.44304 342.2805 C 238.40664 345.1145 245.88983 341.40067 250.17656 333.97583 C 254.4633 326.551 253.93797 318.21344 249.00186 315.33183 Z"
                     stroke="black"
                     stroke-linecap="round"
                     stroke-linejoin="round"
                     stroke-width="2"/>
            </g>
            <g>
               <g  id="feature-30">
                  <path 
                        d="M 253.81937 223.79136 C 250.159 224.41864 247.28882 227.932 246.294 233.00304 C 245.2992 238.0741 246.33156 243.92896 249.00078 248.35393 C 251.67 252.7789 255.56874 255.09872 259.2229 254.43626 C 264.84688 253.41668 268.19213 245.76162 266.70336 237.3184 C 265.2146 228.8752 259.4529 222.82593 253.81937 223.79136 Z"
                        fill="#ff0000"/>
               </g>
               <path d="M 253.81937 223.79136 C 250.159 224.41864 247.28882 227.932 246.294 233.00304 C 245.2992 238.0741 246.33156 243.92896 249.00078 248.35393 C 251.67 252.7789 255.56874 255.09872 259.2229 254.43626 C 264.84688 253.41668 268.19213 245.76162 266.70336 237.3184 C 265.2146 228.8752 259.4529 222.82593 253.81937 223.79136 Z"
                     stroke="black"
                     stroke-linecap="round"
                     stroke-linejoin="round"
                     stroke-width="2"/>
            </g>
            <g>
               <g  id="feature-31">
                  <path 
                        d="M 181.20528 206.15848 C 182.50327 211.93716 188.0797 215.70327 193.92497 214.74885 C 199.77022 213.79444 203.85912 208.45017 203.25161 202.55875 C 202.23008 196.737 198.33593 191.82567 192.9004 189.50374 C 189.4847 187.19868 187.52197 183.27623 187.72479 179.16052 L 181.20528 179.16052 L 174.67777 179.16052 C 174.8806 183.27623 172.91785 187.19868 169.50216 189.50374 C 164.06972 191.8278 160.17888 196.73875 159.15894 202.55875 C 158.55144 208.45017 162.64034 213.79444 168.4856 214.74885 C 174.33085 215.70327 179.90729 211.93716 181.20528 206.15848 Z"
                        fill="#ff0000"/>
               </g>
               <path d="M 181.20528 206.15848 C 182.50327 211.93716 188.0797 215.70327 193.92497 214.74885 C 199.77022 213.79444 203.85912 208.45017 203.25161 202.55875 C 202.23008 196.737 198.33593 191.82567 192.9004 189.50374 C 189.4847 187.19868 187.52197 183.27623 187.72479 179.16052 L 181.20528 179.16052 L 174.67777 179.16052 C 174.8806 183.27623 172.91785 187.19868 169.50216 189.50374 C 164.06972 191.8278 160.17888 196.73875 159.15894 202.55875 C 158.55144 208.45017 162.64034 213.79444 168.4856 214.74885 C 174.33085 215.70327 179.90729 211.93716 181.20528 206.15848 Z"
                     stroke="black"
                     stroke-linecap="round"
                     stroke-linejoin="round"
                     stroke-width="2"/>
            </g>
            <g>
               <g  id="feature-32">
                  <path 
                        d="M 181.20528 205.7585 C 182.50327 211.5372 188.0797 215.3033 193.92497 214.34888 C 199.77022 213.39447 203.85912 208.0502 203.25161 202.15878 C 202.23008 196.33702 198.33593 191.4257 192.9004 189.10377 C 189.4847 186.79871 187.52197 182.87626 187.72479 178.76055 L 181.20528 178.76055 L 174.67777 178.76055 C 174.8806 182.87626 172.91785 186.79871 169.50216 189.10377 C 164.06972 191.42783 160.17888 196.33878 159.15894 202.15878 C 158.55144 208.0502 162.64034 213.39447 168.4856 214.34888 C 174.33085 215.3033 179.90729 211.5372 181.20528 205.7585 Z"
                        fill="#ff0000"/>
               </g>
               <path d="M 181.20528 205.7585 C 182.50327 211.5372 188.0797 215.3033 193.92497 214.34888 C 199.77022 213.39447 203.85912 208.0502 203.25161 202.15878 C 202.23008 196.33702 198.33593 191.4257 192.9004 189.10377 C 189.4847 186.79871 187.52197 182.87626 187.72479 178.76055 L 181.20528 178.76055 L 174.67777 178.76055 C 174.8806 182.87626 172.91785 186.79871 169.50216 189.10377 C 164.06972 191.42783 160.17888 196.33878 159.15894 202.15878 C 158.55144 208.0502 162.64034 213.39447 168.4856 214.34888 C 174.33085 215.3033 179.90729 211.5372 181.20528 205.7585 Z"
                     stroke="black"
                     stroke-linecap="round"
                     stroke-linejoin="round"
                     stroke-width="2"/>
            </g>
            <g>
               <g  id="feature-33">
                  <path 
                        d="M 182.15206 178.64951 C 181.52166 178.6344 180.89114 178.63437 180.26074 178.64946 L 174.09232 376.139 C 178.819 376.99666 183.5938 376.99652 188.32047 376.1386 Z"
                        fill="#ff0000"/>
               </g>
               <path d="M 182.15206 178.64951 C 181.52166 178.6344 180.89114 178.63437 180.26074 178.64946 L 174.09232 376.139 C 178.819 376.99666 183.5938 376.99652 188.32047 376.1386 Z"
                     stroke="black"
                     stroke-linecap="round"
                     stroke-linejoin="round"
                     stroke-width="2"/>
            </g>
         </g>
      </g>
   </g>
</svg>