<?xml version="1.0" encoding="UTF-8" standalone="no"?>
<svg
   id="svg29"
   version="1.1"
   height="509.21"
   width="343.76"
   xmlns="http://www.w3.org/2000/svg"
   xmlns:svg="http://www.w3.org/2000/svg"
   xmlns:rdf="http://www.w3.org/1999/02/22-rdf-syntax-ns#"
   xmlns:cc="http://creativecommons.org/ns#"
   xmlns:dc="http://purl.org/dc/elements/1.1/">
  <metadata
     id="metadata33">
    <rdf:RDF>
      <cc:Work
         rdf:about="">
        <dc:format>image/svg+xml</dc:format>
        <dc:type
           rdf:resource="http://purl.org/dc/dcmitype/StillImage" />
        <dc:creator>
          <cc:Agent>
            <dc:title>vlk2020</dc:title>
          </cc:Agent>
        </dc:creator>
      </cc:Work>
    </rdf:RDF>
  </metadata>
  <defs
     id="defs17">
    <radialGradient
       r="405"
       cy="220"
       cx="220"
       gradientUnits="userSpaceOnUse"
       id="rg">
      <stop
         id="stop2"
         offset="0"
         style="stop-color:#ffffff;stop-opacity:0.3" />
      <stop
         id="stop4"
         offset="0.2"
         style="stop-color:#ffffff;stop-opacity:0.2" />
      <stop
         id="stop6"
         offset="0.6"
         style="stop-color:#666666;stop-opacity:0.1" />
      <stop
         id="stop8"
         offset="1"
         style="stop-color:#000000;stop-opacity:0.13" />
    </radialGradient>
    <path
       d="m 2,2 v 257 c 0,286 298,398 298,398 0,0 298,-112 298,-398 V 2 Z"
       id="shield" />
  </defs>
  <g
     id="g1708"
     style="fill:#ffff00;stroke:#000000"
     transform="translate(-128.12,-45.556)">
    <path
       style="stroke-width:1.695;stroke-linejoin:round"
       d="m 336.54,279.52 c 0,0 20.67,15.48 18.2,23.72 15.64,11.1 30.46,72.02 25.11,84.37 6.22,5.66 8.52,21.2 14.3,36.2 7.94,20.5 13.09,36.27 12.45,41.18 11.11,10.7 25.51,36.22 32.51,53.09 5.84,14.07 10.7,28.4 11.53,32.1 0.82,3.7 -2.89,5.76 -4.95,0.83 -2.06,-4.94 -10.69,-31.28 -10.69,-31.28 0,0 -26.34,-35.81 -30.88,-48.15 -7.41,-4.94 -31.69,-67.1 -31.69,-79.85 -3.58,-3.78 -6.67,-20.9 -11.27,-44.87 -3.78,-19.91 -12.85,-34.46 -11.77,-37.45 -6.18,-1.88 -15.55,-11.84 -19.53,-18.94 0,0 6.28,-3.13 6.68,-10.95 z"
       id="path2" />
    <path
       style="stroke-width:1.695;stroke-linejoin:round"
       d="m 336.35,264.92 c 4.24,-1.19 22.07,4.43 24.15,9.56 17.69,2.88 45.28,38.69 46.92,51.44 10.69,7.42 32.1,55.99 31.69,63.8 7.82,7.41 22.63,39.1 22.63,39.1 0,0 7.83,21.41 9.06,26.75 1.24,5.35 -2.87,7 -4.53,1.23 -1.64,-5.76 -8.64,-25.5 -8.64,-25.5 0,0 -15.22,-23.88 -23.05,-38.29 -9.05,-5.76 -31.69,-54.74 -33.75,-62.15 -10.7,-4.11 -12.96,-17.51 -25.51,-28.4 -6.18,-5.35 -16.47,-13.17 -17.7,-18.93 -7.75,1.72 -16.47,-0.4 -21.08,-6.01 0,0 0.53,-7.26 -0.19,-12.6 z"
       id="path4" />
    <path
       style="stroke-width:2"
       d="m 332.45,249.64 c 6.12,-2.78 23.01,-4.53 27.23,-1.09 17.69,-11.11 70.78,10.29 70.78,10.29 0,0 18.93,-54.33 27.17,-62.97 -6.58,-14.82 -13.18,-39.1 -15.64,-48.99 -1.65,-11.11 -4.12,-31.69 -4.95,-35.39 -0.82,-3.7 4.12,-4.11 4.95,-0.41 0.83,3.7 4.94,34.57 4.94,34.57 0,0 19.07,48.85 17.7,53.1 -6.18,19.34 -23.47,67.91 -31.28,68.74 -7.82,0.82 -64.62,-2.07 -72.85,-7.83 -7.64,3.05 -19.36,4.2 -24.65,2.61 0,0 0,-6.77 -3.4,-12.63 z"
       id="path6" />
    <path
       style="stroke-width:2"
       d="m 326.57,236.4 c 4.19,-3.67 13.2,-10.59 18.43,-9.72 9.89,-18.52 72.86,-18.93 72.86,-18.93 0,0 -4.12,-21.81 4.12,-72.03 -11.53,-18.11 -25.11,-35.806 -32.51,-47.334 -1.12,-15.824 -4.12,-33.755 -4.95,-38.28 -0.82,-4.531 3.71,-4.932 4.95,0 1.23,4.936 4.52,36.637 4.52,36.637 0,0 35.82,44.447 35.82,50.207 0,5.77 -2.47,67.51 -4.94,73.68 -2.47,6.17 -4.94,7.4 -12.35,9.05 -7.42,1.65 -52.28,15.23 -61.75,13.17 -1.77,7.92 -13.48,12.85 -19.26,15.48 0,0 -3.92,-6.62 -4.94,-11.93 z"
       id="path8" />
    <g
       id="armed-2">
      <path
         style="fill:#0000ff;stroke-width:1.695;stroke-linejoin:round"
         d="m 322.24,223.83 5.18,-16.98 c 0,0 -10.8,-15.56 -12.87,-22.97 -2.05,-7.42 2.06,-9.47 7.4,-2.06 5.36,7.41 11.53,19.75 11.95,24.69 0.4,4.94 -6.48,26.8 -7.61,29.1 -0.88,-10.08 -4.05,-11.78 -4.05,-11.78 z"
         id="path10" />
    </g>
  </g>
  <g
     id="use1710"
     style="fill:#ffff00;stroke:#000000;stroke-width:1.695;stroke-linejoin:round"
     transform="matrix(-1,0,0,1,471.88,-45.556)">
    <path
       d="m 336.54,279.52 c 0,0 20.67,15.48 18.2,23.72 15.64,11.1 30.46,72.02 25.11,84.37 6.22,5.66 8.52,21.2 14.3,36.2 7.94,20.5 13.09,36.27 12.45,41.18 11.11,10.7 25.51,36.22 32.51,53.09 5.84,14.07 10.7,28.4 11.53,32.1 0.82,3.7 -2.89,5.76 -4.95,0.83 -2.06,-4.94 -10.69,-31.28 -10.69,-31.28 0,0 -26.34,-35.81 -30.88,-48.15 -7.41,-4.94 -31.69,-67.1 -31.69,-79.85 -3.58,-3.78 -6.67,-20.9 -11.27,-44.87 -3.78,-19.91 -12.85,-34.46 -11.77,-37.45 -6.18,-1.88 -15.55,-11.84 -19.53,-18.94 0,0 6.28,-3.13 6.68,-10.95 z"
       id="path25" />
    <path
       d="m 336.35,264.92 c 4.24,-1.19 22.07,4.43 24.15,9.56 17.69,2.88 45.28,38.69 46.92,51.44 10.69,7.42 32.1,55.99 31.69,63.8 7.82,7.41 22.63,39.1 22.63,39.1 0,0 7.83,21.41 9.06,26.75 1.24,5.35 -2.87,7 -4.53,1.23 -1.64,-5.76 -8.64,-25.5 -8.64,-25.5 0,0 -15.22,-23.88 -23.05,-38.29 -9.05,-5.76 -31.69,-54.74 -33.75,-62.15 -10.7,-4.11 -12.96,-17.51 -25.51,-28.4 -6.18,-5.35 -16.47,-13.17 -17.7,-18.93 -7.75,1.72 -16.47,-0.4 -21.08,-6.01 0,0 0.53,-7.26 -0.19,-12.6 z"
       id="path26" />
    <path
       style="stroke-width:2"
       d="m 332.45,249.64 c 6.12,-2.78 23.01,-4.53 27.23,-1.09 17.69,-11.11 70.78,10.29 70.78,10.29 0,0 18.93,-54.33 27.17,-62.97 -6.58,-14.82 -13.18,-39.1 -15.64,-48.99 -1.65,-11.11 -4.12,-31.69 -4.95,-35.39 -0.82,-3.7 4.12,-4.11 4.95,-0.41 0.83,3.7 4.94,34.57 4.94,34.57 0,0 19.07,48.85 17.7,53.1 -6.18,19.34 -23.47,67.91 -31.28,68.74 -7.82,0.82 -64.62,-2.07 -72.85,-7.83 -7.64,3.05 -19.36,4.2 -24.65,2.61 0,0 0,-6.77 -3.4,-12.63 z"
       id="path27" />
    <path
       style="stroke-width:2"
       d="m 326.57,236.4 c 4.19,-3.67 13.2,-10.59 18.43,-9.72 9.89,-18.52 72.86,-18.93 72.86,-18.93 0,0 -4.12,-21.81 4.12,-72.03 -11.53,-18.11 -25.11,-35.806 -32.51,-47.334 -1.12,-15.824 -4.12,-33.755 -4.95,-38.28 -0.82,-4.531 3.71,-4.932 4.95,0 1.23,4.936 4.52,36.637 4.52,36.637 0,0 35.82,44.447 35.82,50.207 0,5.77 -2.47,67.51 -4.94,73.68 -2.47,6.17 -4.94,7.4 -12.35,9.05 -7.42,1.65 -52.28,15.23 -61.75,13.17 -1.77,7.92 -13.48,12.85 -19.26,15.48 0,0 -3.92,-6.62 -4.94,-11.93 z"
       id="path28" />
    <g
       id="armed-1">
      <path
         style="fill:#0000ff"
         d="m 322.24,223.83 5.18,-16.98 c 0,0 -10.8,-15.56 -12.87,-22.97 -2.05,-7.42 2.06,-9.47 7.4,-2.06 5.36,7.41 11.53,19.75 11.95,24.69 0.4,4.94 -6.48,26.8 -7.61,29.1 -0.88,-10.08 -4.05,-11.78 -4.05,-11.78 z"
         id="path29" />
    </g>
  </g>
  <path
     id="path24"
     d="m 171.88,169.09 c -10.93,0 -23.97,2.64 -25.1,7.92 -5.86,27.25 -14.4,26.34 -13.18,54.33 0.94,21.03 9.43,25.61 20.18,22.47 9.48,-2.76 14.97,-2.74 18.1,-2.88 3.13,0.14 8.62,0.12 18.1,2.88 10.75,3.14 19.24,-1.44 20.18,-22.47 1.22,-27.99 -7.32,-27.08 -13.18,-54.33 -1.13,-5.28 -14.17,-7.92 -25.1,-7.92 z"
     style="fill:#ffff00;stroke:#000000;stroke-width:1.695;stroke-linejoin:round" />
  <path
     id="path22"
     d="m 171.88,247.39 c -6.45,0 -37.86,0 -47.34,28.39 -9.45,28.41 -19.75,80.67 9.47,101.67 23.32,16.94 28,16.06 37.87,16.06 9.87,0 14.55,0.88 37.87,-16.06 29.22,-21 18.92,-73.26 9.47,-101.67 -9.48,-28.39 -40.89,-28.39 -47.34,-28.39 z"
     style="fill:#ffff00;stroke:#000000;stroke-width:1.695;stroke-linejoin:round" />
  <g
     id="eyes-1"
     style="fill:#ffff00;stroke:#000000;stroke-width:0.3"
     transform="translate(-128.12,-45.556)">
    <ellipse
       style="fill:#ff0000;stroke-linejoin:round"
       id="path1712"
       cx="318.71"
       cy="289.82"
       rx="5.6853"
       ry="2.7191"
       transform="rotate(-6.0676)" />
    <ellipse
       transform="rotate(-32.182)"
       ry="2.7191"
       rx="5.6853"
       cy="380.56"
       cx="161.67"
       id="ellipse1714"
       style="fill:#ff0000;stroke-linejoin:round" />
    <ellipse
       style="fill:#ff0000;stroke-linejoin:round"
       id="ellipse1716"
       cx="422.08"
       cy="136.04"
       rx="5.6853"
       ry="2.7191"
       transform="rotate(20.507)" />
    <ellipse
       transform="rotate(51.181)"
       ry="2.7191"
       rx="5.6853"
       cy="-82.223"
       cx="446.13"
       id="ellipse1718"
       style="fill:#ff0000;stroke-linejoin:round" />
    <ellipse
       style="fill:#ff0000;stroke-linejoin:round"
       id="ellipse1732"
       cx="302.24"
       cy="300.05"
       rx="5.6853"
       ry="2.7191"
       transform="rotate(-13.012)" />
    <ellipse
       ry="3.5449"
       rx="7.4121"
       cy="299.23"
       cx="324.54"
       id="ellipse1734"
       style="fill:#ff0000;stroke-linejoin:round"
       transform="rotate(-13.012)" />
    <ellipse
       ry="2.7191"
       rx="5.6853"
       cy="300.05"
       cx="348.04"
       id="ellipse1736"
       style="fill:#ff0000;stroke-linejoin:round"
       transform="rotate(-13.012)" />
    <ellipse
       transform="rotate(-0.996)"
       ry="2.7191"
       rx="5.6853"
       cy="260.57"
       cx="365.76"
       id="ellipse1743"
       style="fill:#ff0000;stroke-linejoin:round" />
    <ellipse
       style="fill:#ff0000;stroke-linejoin:round"
       id="ellipse1745"
       cx="423.89"
       cy="204.1"
       rx="7.4869"
       ry="3.5807"
       transform="rotate(7.3522)" />
    <ellipse
       style="fill:#ff0000;stroke-linejoin:round"
       id="ellipse1747"
       cx="446.06"
       cy="205.13"
       rx="5.6853"
       ry="2.7191"
       transform="rotate(7.3522)" />
    <ellipse
       transform="rotate(36.702)"
       style="fill:#ff0000;stroke-linejoin:round"
       id="ellipse1751"
       cx="465.89"
       cy="9.1266"
       rx="5.6853"
       ry="2.7191" />
    <ellipse
       ry="3.2932"
       rx="6.8857"
       cy="-75.586"
       cx="482.74"
       id="ellipse1753"
       style="fill:#ff0000;stroke-linejoin:round"
       transform="rotate(46.994)" />
    <ellipse
       transform="rotate(60.731)"
       ry="2.7191"
       rx="5.6853"
       cy="-190.17"
       cx="473.77"
       id="ellipse1755"
       style="fill:#ff0000;stroke-linejoin:round" />
    <ellipse
       ry="2.7191"
       rx="5.6853"
       cy="-153.47"
       cx="454.78"
       id="ellipse1759"
       style="fill:#ff0000;stroke-linejoin:round"
       transform="rotate(60.192)" />
    <ellipse
       transform="rotate(74.636)"
       style="fill:#ff0000;stroke-linejoin:round"
       id="ellipse1761"
       cx="431.12"
       cy="-263.26"
       rx="6.8857"
       ry="3.2932" />
    <ellipse
       style="fill:#ff0000;stroke-linejoin:round"
       id="ellipse1763"
       cx="412.34"
       cy="-334.38"
       rx="5.6853"
       ry="2.7191"
       transform="rotate(84.221)" />
    <ellipse
       style="fill:#ff0000;stroke-linejoin:round"
       id="ellipse1792"
       cx="454.59"
       cy="-45.348"
       rx="7.5972"
       ry="3.6334"
       transform="rotate(51.181)" />
    <ellipse
       transform="rotate(26.753)"
       ry="3.6334"
       rx="7.5972"
       cy="166.37"
       cx="444.91"
       id="ellipse1794"
       style="fill:#ff0000;stroke-linejoin:round" />
    <ellipse
       style="fill:#ff0000;stroke-linejoin:round"
       id="ellipse1796"
       cx="402.12"
       cy="286.54"
       rx="7.5972"
       ry="3.6334"
       transform="rotate(13.334)" />
    <ellipse
       transform="rotate(-14.075)"
       ry="3.6334"
       rx="7.5972"
       cy="457.8"
       cx="220.48"
       id="ellipse1798"
       style="fill:#ff0000;stroke-linejoin:round" />
    <ellipse
       style="fill:#ff0000;stroke-linejoin:round"
       id="ellipse1800"
       cx="-6.9162"
       cy="-520.67"
       rx="7.5972"
       ry="3.6334"
       transform="rotate(142.7)" />
    <ellipse
       style="fill:#ff0000;stroke-linejoin:round"
       id="ellipse1802"
       cx="-288.96"
       cy="290.4"
       rx="11.289"
       ry="5.3989"
       transform="rotate(-93.928)" />
    <ellipse
       style="fill:#ffffff;stroke-linejoin:round"
       id="ellipse1804"
       cx="308.87"
       cy="222.96"
       rx="5.9466"
       ry="4.7865" />
    <ellipse
       style="fill:#ff00ff;stroke-linejoin:round"
       id="ellipse1806"
       cx="309.29"
       cy="222.31"
       rx="4.0241"
       ry="1.2304" />
  </g>
  <g
     id="eyes-2"
     style="fill:#ffff00;stroke:#000000;stroke-width:0.3;stroke-linejoin:round"
     transform="matrix(-1,0,0,1,471.88,-45.556)">
    <ellipse
       style="fill:#ff0000"
       id="ellipse1"
       cx="318.71"
       cy="289.82"
       rx="5.6853"
       ry="2.7191"
       transform="rotate(-6.0676)" />
    <ellipse
       transform="rotate(-32.182)"
       ry="2.7191"
       rx="5.6853"
       cy="380.56"
       cx="161.67"
       id="ellipse2"
       style="fill:#ff0000" />
    <ellipse
       style="fill:#ff0000"
       id="ellipse3"
       cx="422.08"
       cy="136.04"
       rx="5.6853"
       ry="2.7191"
       transform="rotate(20.507)" />
    <ellipse
       transform="rotate(51.181)"
       ry="2.7191"
       rx="5.6853"
       cy="-82.223"
       cx="446.13"
       id="ellipse4"
       style="fill:#ff0000" />
    <ellipse
       style="fill:#ff0000"
       id="ellipse5"
       cx="302.24"
       cy="300.05"
       rx="5.6853"
       ry="2.7191"
       transform="rotate(-13.012)" />
    <ellipse
       ry="3.5449"
       rx="7.4121"
       cy="299.23"
       cx="324.54"
       id="ellipse6"
       style="fill:#ff0000"
       transform="rotate(-13.012)" />
    <ellipse
       ry="2.7191"
       rx="5.6853"
       cy="300.05"
       cx="348.04"
       id="ellipse7"
       style="fill:#ff0000"
       transform="rotate(-13.012)" />
    <ellipse
       transform="rotate(-0.996)"
       ry="2.7191"
       rx="5.6853"
       cy="260.57"
       cx="365.76"
       id="ellipse8"
       style="fill:#ff0000" />
    <ellipse
       style="fill:#ff0000"
       id="ellipse9"
       cx="423.89"
       cy="204.1"
       rx="7.4869"
       ry="3.5807"
       transform="rotate(7.3522)" />
    <ellipse
       style="fill:#ff0000"
       id="ellipse10"
       cx="446.06"
       cy="205.13"
       rx="5.6853"
       ry="2.7191"
       transform="rotate(7.3522)" />
    <ellipse
       transform="rotate(36.702)"
       style="fill:#ff0000"
       id="ellipse11"
       cx="465.89"
       cy="9.1266"
       rx="5.6853"
       ry="2.7191" />
    <ellipse
       ry="3.2932"
       rx="6.8857"
       cy="-75.586"
       cx="482.74"
       id="ellipse12"
       style="fill:#ff0000"
       transform="rotate(46.994)" />
    <ellipse
       transform="rotate(60.731)"
       ry="2.7191"
       rx="5.6853"
       cy="-190.17"
       cx="473.77"
       id="ellipse13"
       style="fill:#ff0000" />
    <ellipse
       ry="2.7191"
       rx="5.6853"
       cy="-153.47"
       cx="454.78"
       id="ellipse14"
       style="fill:#ff0000"
       transform="rotate(60.192)" />
    <ellipse
       transform="rotate(74.636)"
       style="fill:#ff0000"
       id="ellipse15"
       cx="431.12"
       cy="-263.26"
       rx="6.8857"
       ry="3.2932" />
    <ellipse
       style="fill:#ff0000"
       id="ellipse16"
       cx="412.34"
       cy="-334.38"
       rx="5.6853"
       ry="2.7191"
       transform="rotate(84.221)" />
    <ellipse
       style="fill:#ff0000"
       id="ellipse17"
       cx="454.59"
       cy="-45.348"
       rx="7.5972"
       ry="3.6334"
       transform="rotate(51.181)" />
    <ellipse
       transform="rotate(26.753)"
       ry="3.6334"
       rx="7.5972"
       cy="166.37"
       cx="444.91"
       id="ellipse18"
       style="fill:#ff0000" />
    <ellipse
       style="fill:#ff0000"
       id="ellipse19"
       cx="402.12"
       cy="286.54"
       rx="7.5972"
       ry="3.6334"
       transform="rotate(13.334)" />
    <ellipse
       transform="rotate(-14.075)"
       ry="3.6334"
       rx="7.5972"
       cy="457.8"
       cx="220.48"
       id="ellipse20"
       style="fill:#ff0000" />
    <ellipse
       style="fill:#ff0000"
       id="ellipse21"
       cx="-6.9162"
       cy="-520.67"
       rx="7.5972"
       ry="3.6334"
       transform="rotate(142.7)" />
    <ellipse
       style="fill:#ff0000"
       id="ellipse22"
       cx="-288.96"
       cy="290.4"
       rx="11.289"
       ry="5.3989"
       transform="rotate(-93.928)" />
    <ellipse
       style="fill:#ffffff"
       id="ellipse23"
       cx="308.87"
       cy="222.96"
       rx="5.9466"
       ry="4.7865" />
    <ellipse
       style="fill:#ff00ff"
       id="ellipse24"
       cx="309.29"
       cy="222.31"
       rx="4.0241"
       ry="1.2304" />
  </g>
</svg>
