<?xml version="1.0" encoding="utf-8"?>
<svg xmlns="http://www.w3.org/2000/svg" xmlns:dc="http://purl.org/dc/elements/1.1/"
     xmlns:xl="http://www.w3.org/1999/xlink"
     xmlns:xlink="http://www.w3.org/1999/xlink"
     version="1.1"
     viewBox="54 90 256.5 297"
     width="256.5"
     height="297"
     preserveAspectRatio="xMidYMid meet"
     zoomAndPan="magnify"
     contentScriptType="application/ecmascript"
     contentStyleType="text/css">
   <defs/>
   <metadata xmlns="" xmlns:svg="http://www.w3.org/2000/svg"
             xmlns:rdf="http://www.w3.org/1999/02/22-rdf-syntax-ns#"
             xmlns:cc="http://creativecommons.org/ns#">
      <rdf:RDF>
         <cc:Work rdf:about="">
            <dc:creator>
               <cc:Agent>
                  <dc:title>http://heraldicart.org Griffin's Head Erased (2).svg</dc:title>
               </cc:Agent>
            </dc:creator>
         </cc:Work>
      </rdf:RDF>
   </metadata>
   <g stroke-opacity="1" stroke-dasharray="none" stroke="#505050" fill="#ffff00"
      fill-opacity="1">
      <title>Griffin's Head Erased (2)</title>
      <g>
         <title>Content</title>
         <g>
            <g>
               <g  id="outline-0">
                  <path
                        d="M 157.01906 184.26944 C 149.35649 184.80526 142.8721 184.29618 137.56927 182.7901 C 135.36059 182.17455 133.29223 181.50106 132.99149 181.32959 C 131.69274 180.6504 122.68788 179.88445 118.65833 180.06997 C 114.91948 180.2833 114.06414 180.43935 113.4439 181.2046 C 112.69003 182.12357 112.69338 182.17146 113.65019 182.77831 C 121.8516 187.8836 126.79509 191.82106 128.4773 194.54282 C 128.91066 195.2344 130.43144 198.40056 131.85644 201.57344 C 133.27809 204.69842 134.8913 207.81 135.46834 208.49153 C 136.83742 210.17643 136.80962 210.46712 134.95894 212.90655 C 133.10826 215.34597 131.88049 219.81122 132.11491 223.1636 C 132.40626 227.33012 135.68829 232.9719 138.2868 233.65645 C 139.95863 234.16517 140.12708 235.8859 138.73756 238.7262 C 136.79243 242.56787 136.76464 242.85856 137.9311 245.087 C 138.53827 246.19955 139.22783 247.11384 139.46729 247.0971 C 139.9462 247.0636 143.57856 242.5746 145.13855 240.10736 C 146.44133 238.09125 147.06459 235.30453 146.8814 231.9967 C 146.78195 229.88614 146.96447 229.05525 147.56361 228.67648 C 150.04592 227.01102 153.43817 218.40001 153.16022 214.42505 C 153.08654 213.37145 153.78247 212.31216 156.60872 209.37139 C 160.15435 205.70656 160.20224 205.7032 160.8985 206.71328 C 164.13364 211.68458 165.4307 215.78078 165.99097 223.10476 C 166.49431 229.6146 166.10716 232.3367 163.89946 237.92922 C 161.1596 244.85834 156.12331 252.66993 151.21128 257.44093 C 146.30595 262.30772 142.00545 267.56534 140.66047 270.3544 C 139.94679 271.84807 139.17517 273.2014 138.94576 273.36183 C 137.84995 274.20846 134.39674 284.7006 133.8706 288.87617 C 133.65592 290.6237 133.38899 293.0005 133.23326 294.2145 C 133.07752 295.42853 132.85849 297.802 132.6917 299.54616 C 132.52492 301.29033 132.25698 304.34096 132.10694 306.3246 C 131.909 308.31156 131.34703 311.2865 130.78707 312.9138 C 128.73209 319.31377 126.04716 321.52278 119.23893 322.57636 L 114.8085 323.22304 L 107.75144 321.4065 C 103.87763 320.378 100.44153 319.41515 100.13744 319.1958 C 98.97566 318.41078 94.37578 318.01055 91.90554 318.47204 C 87.63553 319.34813 82.27976 321.21453 80.49238 322.4945 C 77.51341 324.62784 74.04917 328.76823 71.69312 332.92737 C 69.17229 337.48304 66.006445 341.0732 64.02516 341.64486 C 63.32019 341.88666 62.427 342.18974 62.09846 342.30897 C 61.76992 342.4282 60.99362 342.3381 60.446725 342.0876 C 59.75281 341.79924 59.31844 341.7815 58.9621 342.1914 C 57.58129 343.77984 63.24783 349.1105 67.05031 349.8071 C 71.5812 350.59716 75.07491 349.631 83.28707 345.25484 C 88.15823 342.65233 89.04807 342.30135 91.87699 342.15166 C 95.66708 341.9829 100.75492 343.1671 104.35713 345.129 C 110.61142 348.54166 116.8741 348.6331 128.98016 345.5728 C 132.71332 344.5899 143.87799 339.76665 147.99294 337.3614 C 154.32295 333.5981 155.97436 331.75013 161.04615 323.0698 C 162.33553 320.86213 163.35096 318.8661 163.33422 318.62666 C 163.31747 318.3872 163.62257 317.93274 163.98226 317.5707 C 164.70498 316.89455 164.6504 316.8021 165.96888 322.5812 C 166.66547 325.66063 167.07773 326.7387 169.18225 330.68217 C 169.51648 331.33255 170.8688 332.778 172.20105 333.9361 C 174.14147 335.5329 175.53935 336.2533 178.97545 337.21615 C 187.02382 339.4446 192.40167 343.39983 191.95557 346.6554 C 191.63405 348.9398 190.25224 351.20205 188.12192 353.08352 C 187.0328 354.02594 184.80336 355.8662 183.16635 357.23195 C 179.35113 360.4825 177.59757 364.31076 177.91236 368.81252 C 178.32427 374.70313 181.44588 380.1155 185.14823 381.44474 C 189.34287 382.93205 190.3208 383.1524 192.42465 382.9572 C 193.57068 382.8289 195.3939 382.74955 196.45754 382.81955 C 199.25197 382.86477 199.60496 382.40696 198.64782 379.73075 C 198.2734 378.50567 197.36314 376.49994 196.69803 375.24707 C 193.99304 370.2868 196.1093 364.07505 202.6617 357.9862 C 206.81986 354.13417 211.31527 348.91105 212.59795 346.6076 C 215.023 342.0586 215.87703 333.6251 214.24707 330.27407 C 212.89005 327.3852 213.7042 327.32826 217.64398 329.9884 C 222.64306 333.3445 229.08424 335.30033 239.02582 336.3858 C 241.2077 336.6182 243.17124 336.4809 246.44558 335.8188 C 251.52974 334.8858 254.11017 333.93535 258.978 331.28495 C 264.63316 328.1945 270.06026 326.65998 272.75455 327.33783 C 275.35306 328.02238 277.52188 330.1326 279.47602 333.99036 C 283.31967 341.46975 283.78753 341.9664 287.9544 343.74442 C 291.4273 345.23408 292.0633 345.3821 295.70302 345.1276 C 299.2024 344.931 299.95863 344.73376 301.8418 343.44707 C 303.9989 341.94873 305.81843 339.7521 305.7481 338.7464 C 305.728 338.45905 304.81574 337.80096 303.7186 337.25205 C 300.7825 335.86923 300.22993 334.8491 299.62545 329.64573 C 298.98312 324.58937 297.8823 321.9232 294.28513 316.5922 C 290.8005 311.494 289.42036 310.33924 284.86368 308.49224 C 280.85055 306.84785 280.46407 306.82675 276.3488 307.16264 C 273.04765 307.4416 270.916 307.92754 267.1172 309.3482 C 261.39504 311.48083 258.81897 311.80534 256.18698 310.64188 C 254.35473 309.90375 251.8818 307.57416 250.5238 305.3591 C 249.0566 302.9592 248.59712 299.1413 248.9903 292.37627 C 249.17017 288.7543 249.12464 282.59746 248.83664 278.47882 C 248.3822 271.2918 248.3688 271.10025 249.39562 270.64345 C 249.95357 270.3638 250.399 269.8514 250.3722 269.46828 C 250.3454 269.08515 250.7463 268.624 251.2118 268.39893 C 251.72856 268.21842 252.42114 267.11124 252.81633 265.88047 L 253.43523 263.71968 L 251.52362 261.15834 C 248.77542 257.64487 248.02893 255.91644 246.9077 250.89356 C 246.13977 247.48225 245.93448 245.2347 246.0095 240.80194 C 246.07583 237.62104 245.88462 232.82189 245.5946 230.0509 L 245.0993 225.03239 L 246.28653 224.805 C 248.65764 224.3023 248.8914 223.51596 248.59872 217.9539 C 248.3978 215.08043 248.46512 211.2257 248.721 209.37905 C 249.2026 205.25473 247.98124 193.98258 246.59844 190.03675 C 245.58 187.17233 245.6624 186.97406 248.40994 186.3488 C 250.96592 185.73695 253.5641 184.35214 253.50716 183.53799 C 253.48037 183.15486 252.77407 182.00112 251.97533 180.90197 C 251.1287 179.80616 249.96894 177.6735 249.3795 176.12658 C 245.707 166.27709 244.13833 163.11426 241.58404 160.30911 C 240.64832 159.31579 239.01635 157.3124 237.90012 155.80232 C 235.19982 152.2855 233.18471 150.3089 231.03833 149.20773 C 229.43884 148.35707 229.27842 148.12766 229.404 146.48262 C 229.5939 143.00432 232.6546 136.53402 236.27358 131.85343 C 243.0661 123.00466 244.6827 119.28222 244.26408 113.29584 C 243.9024 108.1236 242.69274 107.34193 239.63038 110.34734 C 237.83195 112.15748 235.0968 113.64812 228.50825 116.46698 C 224.30186 118.253 222.28072 120.31934 215.38806 129.80074 C 211.1723 135.58182 209.38055 137.48774 209.30018 136.33836 C 209.2801 136.05101 210.04602 133.92807 210.94222 131.60351 C 212.01325 129.0261 212.7045 126.52338 212.741 124.98082 L 212.80967 122.52163 L 210.7192 122.90844 C 209.57987 123.13248 206.77774 123.6653 204.45117 124.11674 C 199.65436 125.02967 187.64475 125.34009 186.72243 124.53833 C 186.3125 124.18199 186.33026 123.74762 186.84133 122.7975 C 187.2288 122.14478 187.77304 119.60421 188.03661 117.17952 C 188.6917 111.4068 187.69404 106.08654 185.29213 102.01948 C 184.41871 100.54054 183.5051 98.48692 183.23987 97.44671 C 182.57007 94.75041 182.27368 93.953 181.84266 93.98314 C 181.6511 93.99654 180.52415 95.08597 179.3627 96.37032 C 176.8238 99.291 174.3589 105.33464 173.56114 110.44358 C 172.94256 114.67373 172.52393 115.56926 169.40598 119.15605 C 167.17887 121.71805 166.48963 122.87313 165.71265 125.52622 C 165.37205 126.84942 165.23173 126.90736 161.92724 127.13843 C 155.60562 127.58048 145.27487 130.56476 142.44628 132.78382 C 140.43619 134.32001 137.04094 138.07057 135.70031 140.2337 C 134.96319 141.39213 134.3128 141.72636 131.37035 142.31712 C 126.62813 143.32248 119.71875 145.68252 118.21202 146.84663 C 117.52714 147.37578 116.3734 148.08208 115.57934 148.42636 C 112.45101 149.80012 105.4043 157.07853 104.00038 160.4011 C 102.42164 163.97651 101.03613 171.00343 101.25715 174.16424 C 101.46478 177.1335 102.44303 179.42322 103.44874 179.3529 C 103.6403 179.3395 104.57234 178.21557 105.43639 176.80764 C 108.25796 172.42344 114.08795 169.08013 117.88039 169.63307 C 120.07232 170.00917 123.37278 172.4734 124.43341 174.56486 C 124.89021 175.59167 125.39257 175.89342 126.35039 175.82645 C 127.06876 175.77621 127.86616 175.47983 128.13341 175.17239 C 128.40067 174.86495 130.48443 174.38236 132.82105 174.0746 C 143.50176 172.65397 149.34682 172.96712 151.85088 175.0539 C 152.2608 175.41025 154.08534 176.72642 155.90319 177.9468 C 157.72103 179.1672 160.06468 181.02458 161.19195 182.0045 L 163.197 183.83743 L 157.01906 184.26944 Z"
                        fill="black"/>
               </g>
            </g>
            <g>
               <path d="M 181.69094 99.38378 C 182.08645 100.22238 182.97997 101.98866 183.69967 103.33396 C 186.2476 108.1127 186.8035 116.06261 184.95215 121.24523 C 184.63265 122.18195 184.2753 123.26569 184.20966 123.70341 C 184.02379 124.48641 183.93135 124.541 171.92643 126.29484 C 168.68658 126.76202 168.20097 126.69973 168.15409 126.02925 C 168.06702 124.78409 170.5567 120.47122 171.71714 119.8607 C 173.38429 118.92599 174.91514 115.35392 175.90446 110.23159 C 176.84923 105.1605 177.99695 101.61523 179.33423 99.4042 C 180.45549 97.54516 180.84196 97.56626 181.69094 99.38378 Z"/>
            </g>
            <g>
               <path d="M 242.4295 111.83599 L 242.4295 111.83599 C 242.00283 111.2402 241.77007 111.35272 239.29446 113.11397 C 238.10288 113.9673 235.17616 115.47133 232.79064 116.45627 C 225.44924 119.52027 226.03833 118.99783 217.23036 130.68255 C 211.58923 138.1033 210.54467 138.99447 206.50742 139.75804 C 201.2317 140.70446 192.50613 145.309 192.02755 147.41185 C 191.3909 150.00701 191.48332 149.95242 190.64674 149.0003 C 189.64974 147.81875 189.68758 147.67173 191.0004 145.7993 C 192.93682 143.2095 200.68012 139.01052 205.33325 138.10763 C 207.56404 137.66289 207.70102 137.55706 207.47362 136.36983 C 207.37885 135.7027 207.82293 133.79477 208.52657 132.15743 C 210.1331 128.29132 210.02494 127.43263 208.16756 129.77627 C 205.42604 133.2405 201.06594 134.89289 197.8559 133.72173 C 196.66968 133.2753 195.72057 132.09041 196.16934 131.6259 C 196.25507 131.47553 197.08931 131.70595 197.9815 132.07669 C 200.95877 133.36038 204.32656 131.96987 207.37653 128.09908 C 208.7473 126.36697 209.11367 126.10072 209.58823 126.69316 C 210.06278 127.28561 210.15857 127.27891 210.54605 126.62619 C 211.4446 125.02335 210.97674 124.52668 209.13243 124.99253 C 203.31216 126.41015 199.3027 126.88302 192.27377 126.84515 C 188.18293 126.84246 183.3292 126.94124 181.46144 127.07185 C 176.09764 127.44692 154.8119 129.99412 153.53893 130.37189 C 152.88185 130.61034 151.42067 131.04939 150.24348 131.42046 C 149.06295 131.74363 147.70425 132.27177 147.19084 132.50017 C 146.68079 132.77647 145.64728 133.13749 144.84652 133.38598 C 143.94999 133.64117 142.1827 135.20851 140.2262 137.51096 C 137.24187 140.94404 136.98466 141.39515 137.11192 143.21501 C 137.20904 144.60385 137.49872 145.30547 138.09686 145.60053 C 138.59251 145.8065 139.00913 146.25861 139.08381 146.6384 C 139.10725 146.97363 139.24992 147.6374 139.28006 148.06843 C 139.36144 148.54399 139.77136 148.90033 140.15449 148.87353 C 140.58551 148.8434 140.903 149.25432 140.94653 149.8769 C 141.0336 151.12207 141.73656 152.22792 142.3558 152.1365 C 142.5919 152.07186 142.89163 152.91716 143.0611 153.96406 C 143.41005 156.20155 142.66389 156.54248 141.80152 154.5334 C 141.50514 153.73599 141.03058 153.14354 140.74323 153.16364 C 140.50378 153.18038 140.12166 152.53335 139.87316 151.7326 C 139.62467 150.93184 139.14006 150.19573 138.74689 150.07884 C 138.40495 150.0065 137.9304 149.41406 137.702 148.90065 C 137.47025 148.33936 136.9411 147.65448 136.48664 147.34938 C 136.03553 147.09217 135.63331 146.1578 135.56969 145.24786 C 135.46252 143.71535 135.41128 143.6708 133.60147 143.94174 C 126.93355 144.93738 115.6922 150.72848 111.11875 155.52393 C 107.7101 159.08293 106.47866 161.43093 105.06066 167.30512 C 103.42565 174.2051 103.65405 174.71851 107.05164 171.68967 C 112.99049 166.46186 120.00268 166.26027 124.3872 171.1512 L 125.95454 172.91849 L 130.2413 172.28185 C 140.81619 170.72425 150.19078 171.27185 153.58032 173.6336 C 154.33887 174.15805 156.40622 175.50537 158.21402 176.58209 C 160.02182 177.6588 162.61161 179.59522 163.95055 180.8491 C 165.38862 182.14417 167.10064 183.22759 167.97942 183.40676 C 170.1747 183.83076 170.06016 184.94565 167.74364 185.54076 C 164.20204 186.5103 151.8505 186.74837 144.77468 186.04003 C 143.22208 185.85985 141.14267 185.7165 140.17815 185.6877 C 137.67442 185.67027 135.13385 185.12605 132.65892 184.1441 C 128.45088 182.46523 118.12282 181.35867 118.20989 182.60384 C 118.22664 182.8433 118.94734 183.51478 119.80168 184.03254 C 122.96952 185.97666 128.12466 190.18808 129.55167 192.0133 C 130.34706 193.06456 132.20542 196.929 133.71515 200.62533 C 135.17699 204.325 136.59194 207.3542 136.8314 207.33746 C 137.11874 207.31737 137.07621 206.02096 136.7574 204.2145 C 136.42183 202.16857 136.39604 201.11162 136.73128 201.08818 C 137.54543 201.03125 138.46138 203.80659 138.6824 206.9674 C 138.85655 209.45773 138.67067 210.24074 137.47037 212.34593 C 134.68564 217.25693 134.45523 218.09117 134.5818 222.65422 C 134.71609 226.63922 134.84871 227.15933 136.26467 229.5147 C 138.60194 233.34566 139.01287 233.02817 138.77477 227.55855 C 138.606 223.76845 138.73393 222.84513 139.30862 222.80494 C 140.31433 222.73461 141.888 236.29214 140.93921 237.17662 C 140.62407 237.4874 140.25668 238.42748 140.17329 239.29956 C 140.03865 240.1271 139.79819 240.81767 139.55873 240.83442 C 138.88826 240.8813 138.2938 242.7035 138.63808 243.49756 C 139.14612 244.56892 139.71077 244.38506 141.16727 242.50257 C 144.57022 238.17397 145.38037 233.93042 143.79462 228.45878 C 142.57994 224.16432 142.29864 220.14147 142.94401 216.29445 C 143.48589 213.03216 145.41193 208.22933 146.55898 207.42724 C 147.79175 206.47479 148.09819 207.41586 147.134 209.45642 C 146.63298 210.5502 145.93939 212.33122 145.63329 213.4595 C 145.09676 215.42203 145.10346 215.51782 146.03014 215.69364 C 146.80979 215.83162 147.03484 216.29714 147.1621 218.117 C 147.36973 221.08625 148.09412 223.87498 148.62092 223.83815 C 148.86037 223.8214 149.46052 222.7688 149.9448 221.43556 C 150.76196 219.35716 150.78742 218.34475 150.2717 210.96952 C 149.78946 204.0732 149.79817 202.82134 150.42075 202.7778 C 150.94755 202.74097 151.23054 203.3468 151.44019 204.9684 C 151.82264 207.6848 152.41073 207.83618 153.35147 205.46038 C 153.76006 204.42118 154.38365 203.70382 154.91045 203.66699 C 155.96406 203.5933 156.05548 204.21255 155.16028 205.86328 C 154.60133 206.81674 154.58358 207.2511 155.04473 207.652 C 155.45465 208.00833 156.23197 207.4246 158.19517 205.21793 C 160.42563 202.70382 160.92899 202.33175 161.45144 202.92084 C 161.8647 203.32507 161.88815 203.6603 161.61754 203.91986 C 161.34024 204.08363 161.73911 204.97011 162.68487 206.1071 C 166.72746 210.9257 169.84804 223.8938 168.49468 230.0041 C 167.27596 235.28685 165.92562 239.37567 164.35793 242.42093 C 162.40945 246.2147 156.62365 254.31933 153.09812 258.2715 C 143.546 268.9495 144.02926 268.29008 140.29842 276.87663 C 137.94035 282.38343 136.82612 286.4076 137.30636 287.76966 C 137.49022 288.3343 137.36898 289.3534 137.08063 290.04733 C 136.74439 290.7446 136.23566 292.41643 135.89841 293.78752 C 135.38199 296.0374 135.14286 298.1235 134.56613 306.39325 C 134.16724 312.38867 132.37148 316.9899 129.31247 320.0432 C 126.20557 323.09983 124.38135 323.85302 118.4941 324.31283 C 113.56467 324.70565 113.32186 324.6745 106.10439 322.62856 C 96.18927 319.85688 94.87947 319.70784 90.18848 320.75774 C 84.07751 322.14757 81.66755 323.4711 78.426015 327.3553 C 76.8225 329.19992 75.28696 331.32856 74.954065 332.0737 C 73.71492 334.99976 71.66162 337.98273 69.33203 340.45564 C 66.9579 342.9798 66.79212 344.05014 68.85244 343.2323 C 70.53633 342.53706 74.917205 338.42883 76.75784 335.84573 C 79.33894 332.1521 83.69738 327.0348 84.31997 326.99127 C 84.60731 326.97117 85.19976 326.4966 85.64183 325.93633 C 87.05378 324.1051 90.69116 323.12886 94.56933 323.53142 C 96.46053 323.73605 98.02988 324.1557 98.197 324.4809 C 98.37751 324.99764 97.6146 325.0991 94.33791 325.0395 C 92.07698 325.0532 89.72697 325.1694 89.06989 325.40786 C 87.46839 325.90485 82.85476 330.1256 81.37716 332.39457 C 79.28937 335.57246 74.34183 341.2122 71.92082 343.06588 C 70.37289 344.32912 69.11332 344.89846 67.868156 344.98553 C 66.0004 345.11613 65.09951 345.99726 66.2 346.59406 C 66.59987 346.80672 68.672585 346.8543 70.875575 346.70024 C 76.04781 346.33856 78.27291 345.1242 82.09684 340.6218 C 86.27376 335.66156 89.01561 334.2667 95.56999 333.71213 C 98.39221 333.46665 101.23453 333.50852 102.07212 333.78683 C 102.90636 334.01725 105.94259 334.76744 108.87633 335.42855 C 113.76256 336.4825 114.5834 336.52135 119.07177 336.015 C 122.26707 335.59905 124.44662 335.10977 125.50793 334.45805 C 127.68179 333.19916 131.20062 329.1512 132.1993 326.91573 C 132.65578 325.8732 133.31722 325.0088 133.70035 324.982 C 134.80184 324.905 134.61597 325.688 132.81552 328.84578 C 130.0241 333.661 126.44599 336.1731 120.84842 337.3345 C 116.33896 338.22735 113.148 338.01736 105.37593 336.29895 C 95.05993 333.9884 90.1161 334.8635 85.36114 339.81603 C 83.8812 341.36327 82.77099 342.69216 82.92471 342.8258 C 83.02719 342.91487 84.6287 342.4179 86.50415 341.70923 C 92.13052 339.5833 97.21936 340.0937 107.30394 343.9123 L 112.29498 345.77704 L 119.13001 345.1066 C 127.91853 344.15516 132.98259 342.9348 137.67894 340.58513 C 138.189 340.30884 139.96197 339.5111 141.64586 338.81586 C 149.1276 335.6939 154.3983 331.2347 158.8589 324.13713 C 161.67712 319.70504 162.52108 318.00977 163.97055 313.96214 C 165.42672 310.0103 167.46027 301.92743 167.3665 300.58648 C 167.26269 299.10186 167.97302 297.5603 168.78717 297.50337 C 169.745 297.4364 170.26776 300.09485 169.6733 301.91706 C 167.1106 309.31504 166.87249 310.72733 167.31555 316.37512 C 168.14707 327.5783 171.7409 332.8614 180.50328 335.66555 C 185.52547 337.2875 189.91402 339.48314 191.82665 341.37065 C 195.80896 345.3272 194.09692 351.1257 187.37842 356.21553 C 183.40279 359.23667 182.32373 360.32276 181.04774 362.722 C 179.59358 365.3262 179.54501 368.07273 180.7808 371.9807 C 182.25502 376.54577 184.05746 378.92225 186.86762 379.88075 C 189.78026 380.92833 195.16315 381.51443 195.69766 380.89955 C 196.09854 380.4384 194.49872 377.51837 193.3135 376.3981 C 192.64738 375.81907 192.36474 370.40068 192.90126 368.43815 C 193.35874 366.72178 195.89297 362.35767 197.92516 359.76118 C 198.5454 358.99593 200.5287 357.0766 202.25145 355.5605 C 211.2349 347.76166 214.67404 339.82113 212.42419 332.4228 C 211.98848 331.0095 210.52564 327.98366 209.16427 325.7207 C 207.79955 323.4099 206.0594 320.5478 205.34305 319.2504 C 202.28273 314.02623 201.24153 308.0834 202.9663 305.21964 C 204.0363 303.31605 205.04973 302.6677 205.1301 303.81707 C 205.16024 304.2481 205.64484 304.9842 206.20848 305.47417 C 207.43824 306.5432 207.63114 307.92533 206.68236 308.8098 C 205.3739 310.0563 206.10832 312.9887 208.89235 317.7028 C 210.97008 321.26317 212.22997 322.7632 215.66305 325.74753 C 220.2234 329.7118 223.41904 331.3652 229.84347 333.0816 C 240.38787 335.90554 248.6017 334.9943 258.87082 329.75243 C 263.56382 327.3549 267.14326 326.23833 270.87876 325.9771 C 276.0031 325.6188 278.0738 327.014 281.7346 333.2549 C 282.9868 335.333 283.98614 337.23625 284.0029 337.4757 C 284.05647 338.24196 287.75914 341.64056 289.20156 342.3097 C 289.9946 342.63925 292.3781 343.00196 294.45752 343.1453 C 297.9837 343.33185 298.55505 343.24378 300.9717 342.01603 C 302.46404 341.33417 303.70352 340.4775 303.7792 340.18345 C 303.89944 339.83817 303.18878 339.31036 302.29325 338.89173 C 298.3759 337.24065 297.29082 335.48776 296.3732 329.24752 C 295.3742 322.5317 292.54766 316.5212 288.3604 312.3865 C 286.03115 310.04686 280.35288 307.98953 277.0005 308.22395 C 274.46228 308.40144 267.52946 310.42624 266.58067 311.3107 C 265.8546 311.939 261.89538 313.13023 259.97974 313.26418 C 257.34573 313.44837 254.26597 312.0756 251.3865 309.43756 C 247.37303 305.7238 246.8516 304.4609 246.35595 297.373 C 246.00097 292.29656 246.07868 290.65487 246.9367 286.40797 C 247.90493 281.6721 247.91933 281.18986 247.1725 277.39206 C 246.205 272.5028 245.0218 270.0349 243.77662 270.12198 C 242.62724 270.20236 240.67007 268.36608 240.583 267.1209 C 240.54617 266.5941 240.83117 265.8523 241.19086 265.49027 C 241.73206 264.97118 242.12524 265.08806 243.44073 266.0067 C 244.86205 267.06232 245.34766 267.1246 247.58515 266.77565 C 250.53765 266.32856 251.09225 266.00103 251.00853 264.80375 C 250.95494 264.0375 250.7088 263.95846 249.3846 264.29168 C 247.15715 264.78432 245.57206 263.4514 242.94845 258.9667 C 241.6929 256.84075 240.68686 254.8417 240.66342 254.50647 C 240.64333 254.21913 240.13528 253.14777 239.5348 252.131 C 238.93433 251.11424 238.4196 249.9471 238.38945 249.51608 C 238.2689 247.792 240.82988 250.69294 242.41195 254.04733 C 244.39288 258.2882 246.0617 260.8184 247.69467 262.14797 C 249.48137 263.61116 249.81092 262.8181 248.17895 260.81472 C 244.75123 256.53064 243.7971 251.83296 243.5376 237.79853 C 243.34808 229.58237 243.2399 228.72368 242.01753 225.00726 C 240.49206 220.39765 240.8015 219.31726 243.02158 221.47203 C 244.31597 222.77715 245.70046 223.30596 245.64352 222.49182 C 245.63013 222.30025 245.0397 221.42716 244.30225 220.51622 C 243.45897 219.4683 242.53196 217.22312 241.6783 213.96217 C 240.91273 211.27257 240.10596 208.6821 239.78847 208.27117 C 239.1334 207.16197 239.04968 205.9647 239.72016 205.9178 C 240.48641 205.86422 242.34143 209.68078 243.32435 213.41394 C 244.30728 217.1471 245.1673 218.43447 245.41983 216.53993 C 246.66804 207.54947 245.9889 195.0844 243.9132 190.1764 C 243.2146 188.44461 242.1774 186.68838 241.66835 186.29085 C 239.63215 184.70073 241.03305 183.39963 243.51802 184.52525 C 244.6597 185.02292 248.12126 184.97336 248.56668 184.46096 C 248.74485 184.256 247.85702 183.25933 246.62392 182.14243 C 243.49828 179.42535 240.49622 176.41089 240.46273 175.93198 C 240.38906 174.87837 242.48755 175.98289 245.06295 178.40156 C 246.24816 179.52181 247.35535 180.2144 247.57806 179.9582 C 247.80077 179.702 247.34497 178.00136 246.53385 176.03682 C 245.77396 174.11682 244.6631 171.30698 244.1249 169.80461 C 242.9839 166.56375 239.8623 161.15138 238.69718 160.31848 C 238.24272 160.01338 237.18443 158.64363 236.27316 157.31172 C 234.49517 154.59665 229.2754 150.14913 228.58717 150.63039 C 228.31322 150.84204 227.71642 151.94253 227.26664 153.08086 C 224.94541 159.11446 218.48848 163.12724 210.15543 163.70994 C 206.80306 163.94436 206.41323 163.87537 206.3563 163.06123 C 206.30272 162.29497 206.77158 162.1178 210.49034 161.61714 C 219.79226 160.4373 223.83354 156.97845 226.02517 148.40327 C 228.17896 139.97512 230.37794 135.63446 235.8466 129.18827 C 237.89218 126.78335 240.0791 123.64666 240.7037 122.25547 C 241.82597 119.72261 243.01657 112.66119 242.4295 111.83599 Z"/>
            </g>
            <g>
               <path d="M 146.1135 221.70347 C 146.31746 222.55546 146.69523 223.82843 146.88913 224.53675 C 147.13093 225.24172 147.20126 226.24743 147.03983 226.69184 C 146.53111 228.36368 145.31341 226.0907 145.09908 223.02566 C 144.8881 220.00852 145.50835 219.24327 146.1135 221.70347 Z"/>
            </g>
            <g>
               <g  id="outline-1">
                  <path
                        d="M 166.44807 134.66672 C 165.42695 135.89313 165.21662 137.01472 165.98288 136.96114 C 166.89281 136.8975 168.89051 134.49593 168.51844 133.99257 C 167.9826 133.2119 167.51038 133.34118 166.44807 134.66672 Z"
                        fill="black"/>
               </g>
            </g>
            <g>
               <g  id="outline-2">
                  <path
                        d="M 169.86173 134.62051 C 169.26929 135.09507 168.82386 135.60747 168.8406 135.84692 C 168.8875 136.5174 170.02683 136.29335 171.02685 135.45342 C 172.29748 134.35394 171.1836 133.56558 169.86173 134.62051 Z"
                        fill="black"/>
               </g>
            </g>
            <g>
               <g  id="outline-3">
                  <path
                        d="M 162.66032 135.55721 C 162.11242 135.98053 161.67034 136.54082 161.69044 136.82816 C 161.74067 137.54653 162.9691 137.22 163.71961 136.25314 C 165.04583 134.57227 164.38976 134.1369 162.66032 135.55721 Z"
                        fill="black"/>
               </g>
            </g>
            <g>
               <g  id="outline-4">
                  <path
                        d="M 158.1398 136.9802 C 157.29685 138.00165 157.09423 138.5452 157.4941 138.75786 C 158.2426 139.13865 160.47206 137.29836 160.5866 136.18347 C 160.74233 134.96945 159.51726 135.34387 158.1398 136.9802 Z"
                        fill="black"/>
               </g>
            </g>
            <g>
               <g  id="outline-5">
                  <path
                        d="M 172.68529 135.77058 C 172.3802 136.22504 172.27 136.714 172.47162 136.84428 C 172.88489 137.2485 174.26134 136.286 174.4951 135.49965 C 174.67763 134.66876 173.34338 134.8583 172.68529 135.77058 Z"
                        fill="black"/>
               </g>
            </g>
            <g>
               <g  id="outline-6">
                  <path
                        d="M 154.5205 139.59142 C 153.18758 141.17651 153.03285 141.71671 153.99068 141.64973 C 154.99639 141.5794 156.79583 139.09544 156.23219 138.60548 C 155.8735 138.29368 155.3189 138.62121 154.5205 139.59142 Z"
                        fill="black"/>
               </g>
            </g>
            <g>
               <g  id="outline-7">
                  <path
                        d="M 150.4665 140.11553 C 149.35964 141.49231 149.24946 141.98127 150.15939 141.91764 C 150.92565 141.86406 152.3031 140.22773 152.24952 139.46147 C 152.1859 138.55154 151.53217 138.83788 150.4665 140.11553 Z"
                        fill="black"/>
               </g>
            </g>
            <g>
               <g  id="outline-8">
                  <path
                        d="M 163.00324 141.83764 C 160.82369 142.32693 159.01957 143.36746 156.80351 145.39931 C 154.99168 147.01789 154.29676 147.40336 153.17852 147.24093 C 152.10817 147.07515 151.82752 147.19102 151.8677 147.76571 C 151.89785 148.19673 152.46149 148.6867 153.05293 148.88597 C 154.03754 149.20212 154.20465 149.52731 154.10016 150.78587 L 153.96787 152.33513 L 156.00374 151.8559 L 157.99172 151.38 L 157.767 152.98385 C 157.43879 155.17244 157.22278 155.52442 156.51211 154.99661 C 156.15678 154.7327 155.71907 154.66706 155.58879 154.86867 C 154.51977 156.09843 157.55565 161.66117 159.95489 162.93716 C 162.55239 164.29553 165.65526 163.93418 169.40718 161.84306 C 171.2592 160.79918 172.99433 160.14847 173.53117 160.2553 C 175.83229 160.81627 177.31993 158.69099 175.1079 158.02754 C 173.48396 157.51547 171.87543 155.84731 170.74682 153.47185 C 170.23207 152.3047 169.31076 150.82912 168.78162 150.14425 C 167.30336 148.27448 163.60203 146.27142 161.92584 146.38863 C 160.96802 146.4556 160.42447 146.25299 160.39433 145.82197 C 160.33405 144.95993 160.92985 144.53327 163.096 143.85242 C 166.53512 142.7938 170.52715 144.82466 171.37745 148.03772 C 172.33694 151.43564 176.0932 155.6005 177.37721 154.69259 C 178.20241 154.1055 177.8002 153.17113 176.50815 152.58772 C 175.763 152.25483 174.9197 151.20691 174.34703 149.89945 C 172.50307 145.55275 171.63635 144.1696 170.21837 143.16187 C 168.89953 142.19534 165.75078 141.21239 164.65933 141.43308 C 164.42323 141.49772 163.66701 141.69498 163.00324 141.83764 Z"
                        fill="black"/>
               </g>
            </g>
            <g>
               <path d="M 165.43025 149.70484 C 166.80368 150.76381 169.93199 156.27196 169.54785 156.97258 C 168.9956 158.02183 168.08332 157.36374 167.2655 155.30342 C 166.73736 153.94471 165.88738 152.80102 165.0297 152.23537 C 163.66966 151.36796 163.57388 151.37466 163.05277 152.1811 C 162.27445 153.43866 162.0283 153.35962 160.7761 151.28155 C 159.41473 149.01861 159.41808 149.0665 160.98174 148.71653 C 162.78486 148.34982 164.00558 148.60134 165.43025 149.70484 Z"/>
            </g>
            <g>
               <path d="M 170.94037 158.99271 C 170.63527 159.44718 170.26554 159.66553 170.16306 159.57645 C 169.80438 159.26465 170.41123 158.30784 170.98592 158.26765 C 171.27327 158.24756 171.29336 158.5349 170.94037 158.99271 Z"/>
            </g>
            <g>
               <path d="M 166.0625 161.49944 C 165.72291 162.14882 164.42986 162.23924 163.4285 161.68363 C 162.87826 161.38523 163.15555 161.22147 164.4965 161.1277 C 165.598 161.05067 166.23398 161.1987 166.0625 161.49944 Z"/>
            </g>
            <g>
               <g  id="outline-9">
                  <path
                        d="M 217.32577 142.37031 C 215.48078 145.57934 212.1535 149.6139 211.38725 149.66748 C 211.05201 149.69093 210.68329 149.23546 210.54732 148.66746 C 210.19735 147.1038 209.23953 147.17078 208.5359 148.80812 C 208.20635 149.60116 207.3979 150.4277 206.7887 150.6628 C 205.1393 151.16314 204.03814 153.30953 204.79233 154.45992 C 205.60782 155.79853 206.45646 155.54668 210.7429 152.84068 C 213.59827 151.00476 215.0916 149.64908 216.57925 147.52379 C 218.59805 144.73573 220.24143 141.39643 220.1711 140.39071 C 220.08738 139.19344 218.6185 140.21053 217.32577 142.37031 Z"
                        fill="black"/>
               </g>
            </g>
            <g>
               <g  id="outline-10">
                  <path
                        d="M 144.01355 155.19684 C 143.1227 156.22164 144.54871 158.72069 147.48279 161.45116 C 149.17705 162.96894 149.56353 162.99004 149.45302 161.40964 C 149.39609 160.59549 149.0719 160.08878 148.39138 159.992 C 147.75875 159.89185 147.38668 159.3885 147.33979 158.71802 C 147.28956 157.99965 146.8696 157.49964 146.2815 157.34826 C 145.74465 157.24143 145.27345 156.69687 145.23996 156.21796 C 145.17298 155.26014 144.50686 154.6811 144.01355 155.19684 Z"
                        fill="black"/>
               </g>
            </g>
            <g>
               <g  id="outline-11">
                  <path
                        d="M 125.0932 163.35367 C 124.08649 164.09782 124.99541 164.70801 127.4134 164.8758 C 128.71651 164.92906 130.16664 165.02016 130.69679 165.03121 C 132.1948 165.11896 132.13118 164.20903 130.53504 163.40626 C 128.99013 162.64804 126.09992 162.60952 125.0932 163.35367 Z"
                        fill="black"/>
               </g>
            </g>
            <g>
               <g  id="outline-12">
                  <path
                        d="M 150.92122 163.13573 C 150.68746 163.92208 151.69015 165.87322 152.26484 165.83304 C 152.88743 165.7895 152.29332 162.79916 151.65734 162.65113 C 151.3154 162.57879 150.99356 162.7938 150.92122 163.13573 Z"
                        fill="black"/>
               </g>
            </g>
            <g>
               <g  id="outline-13">
                  <path
                        d="M 154.13159 166.37626 C 154.21531 167.57353 155.35264 168.69713 156.1467 168.35286 C 156.70799 168.1211 155.2485 165.14315 154.53013 165.19338 C 154.29067 165.21013 154.08805 165.75367 154.13159 166.37626 Z"
                        fill="black"/>
               </g>
            </g>
            <g>
               <g  id="outline-14">
                  <path
                        d="M 157.16245 168.4262 C 157.23613 169.4798 158.38015 170.6992 159.24219 170.63891 C 159.76899 170.60207 160.57208 171.0753 161.04999 171.71563 C 161.5279 172.35596 162.2831 172.83253 162.762 172.79904 C 163.19303 172.7689 163.98942 173.14634 164.50517 173.63966 C 165.17464 174.2666 165.6157 174.38013 165.9275 174.02145 C 166.462 173.40657 164.2386 171.2039 163.4 171.59943 C 163.1227 171.7632 162.42209 171.37906 161.94418 170.73872 C 161.46293 170.0505 160.8035 169.56723 160.42038 169.59402 C 160.08514 169.61746 159.38453 169.23333 158.86878 168.74001 C 157.83728 167.75339 157.10552 167.61206 157.16245 168.4262 Z"
                        fill="black"/>
               </g>
            </g>
            <g>
               <g  id="outline-15">
                  <path
                        d="M 214.30587 167.31786 C 213.6277 167.94279 212.08077 168.53221 210.46587 168.83764 C 207.5646 169.32926 207.02675 169.89625 209.02378 170.23786 C 211.2157 170.61396 216.34643 168.28205 216.2493 166.89321 C 216.18233 165.9354 215.71012 166.06466 214.30587 167.31786 Z"
                        fill="black"/>
               </g>
            </g>
            <g>
               <g  id="outline-16">
                  <path
                        d="M 166.89973 173.47221 C 166.60467 174.07035 168.09297 176.08379 169.07759 176.39994 C 170.01096 176.67155 169.87935 175.47762 168.81771 174.05997 C 167.91314 172.82384 167.32505 172.67247 166.89973 173.47221 Z"
                        fill="black"/>
               </g>
            </g>
            <g>
               <g  id="outline-17">
                  <path
                        d="M 170.24372 176.55902 C 170.26381 176.84637 170.84754 177.62368 171.52036 178.2985 C 172.44938 179.19605 172.94503 179.40202 173.30137 178.9921 C 173.6577 178.58218 173.48055 178.11331 172.69855 177.25362 C 171.60577 176.07877 170.18344 175.69698 170.24372 176.55902 Z"
                        fill="black"/>
               </g>
            </g>
            <g>
               <g  id="outline-18">
                  <path
                        d="M 216.35645 175.30764 C 215.99007 175.57388 214.4331 176.01964 212.96188 176.31501 C 211.44276 176.61374 210.22103 177.03605 210.23778 177.2755 C 210.33824 178.71224 215.4703 177.77587 217.26872 175.96573 C 218.4814 174.72592 217.81864 174.19476 216.35645 175.30764 Z"
                        fill="black"/>
               </g>
            </g>
            <g>
               <g  id="outline-19">
                  <path
                        d="M 174.3563 180.31396 C 174.37975 180.6492 174.76857 181.39201 175.24312 181.98446 C 176.3493 183.35086 177.10987 182.52768 176.36673 180.84713 C 175.7495 179.5909 174.27594 179.16457 174.3563 180.31396 Z"
                        fill="black"/>
               </g>
            </g>
            <g>
               <g  id="outline-20">
                  <path
                        d="M 229.47123 177.03745 C 229.48128 177.18113 230.31685 178.80708 231.36074 180.6591 C 233.40062 184.36647 235.16788 189.68105 235.3889 192.84186 C 235.5798 195.57165 234.76396 199.0456 233.79843 199.6906 C 232.46317 200.55398 233.51242 201.10624 234.89557 200.23952 C 238.45258 198.1139 236.48574 184.4395 231.7335 178.41927 C 230.57272 176.96043 229.41765 176.2712 229.47123 177.03745 Z"
                        fill="black"/>
               </g>
            </g>
            <g>
               <g  id="outline-21">
                  <path
                        d="M 216.70808 180.3362 C 215.87518 181.50132 214.07105 182.54186 211.75118 183.08908 C 209.66742 183.57167 209.17745 184.13531 210.50735 184.5717 C 212.47322 185.1561 218.184 181.48425 217.55338 180.03647 C 217.4308 179.66004 217.1468 179.72802 216.70808 180.3362 Z"
                        fill="black"/>
               </g>
            </g>
            <g>
               <g  id="outline-22">
                  <path
                        d="M 177.13933 185.70188 C 177.28333 187.7612 177.1219 188.20561 175.73105 189.65038 C 174.33685 191.04725 173.74675 192.24352 174.46511 192.19329 C 175.23137 192.1397 177.51541 190.39186 178.07437 189.4384 C 178.7636 188.28332 178.81116 186.2106 178.1983 184.32845 C 177.5409 182.49754 176.96854 183.25944 177.13933 185.70188 Z"
                        fill="black"/>
               </g>
            </g>
            <g>
               <g  id="outline-23">
                  <path
                        d="M 209.72667 191.98945 C 207.4413 192.34176 206.811 192.96333 208.28457 193.38967 C 208.9718 193.58224 210.11448 193.40609 212.41426 192.57152 C 212.83858 192.4456 213.10248 192.09026 212.94207 191.86086 C 212.73376 191.6348 212.48426 191.50787 212.29604 191.56915 C 212.10782 191.63044 210.96514 191.8066 209.72667 191.98945 Z"
                        fill="black"/>
               </g>
            </g>
            <g>
               <g  id="outline-24">
                  <path
                        d="M 202.44418 201.40186 C 200.7124 202.10046 200.43074 202.89016 201.96326 202.783 C 203.16053 202.69927 204.7319 201.77126 204.68836 201.14868 C 204.64818 200.57399 204.45996 200.63527 202.44418 201.40186 Z"
                        fill="black"/>
               </g>
            </g>
            <g>
               <g  id="outline-25">
                  <path
                        d="M 229.58167 199.2636 C 229.59842 199.50305 230.1433 201.1012 230.8007 202.93212 C 232.06093 206.50152 232.81043 213.0904 232.10344 214.67984 C 231.43095 216.07437 229.40948 216.07135 228.6352 214.6336 C 228.30096 213.98323 227.8331 213.48656 227.64154 213.49996 C 227.44997 213.51336 227.58292 216.10282 227.94762 219.25359 L 228.63683 224.98042 L 226.98207 226.78052 C 226.04 227.76077 224.8484 228.6141 224.2737 228.6543 C 223.36378 228.71792 223.31924 228.76916 224.08784 229.4373 C 224.80854 230.10877 225.04465 230.04414 226.79084 228.86328 C 229.36557 227.14323 230.1392 224.44224 229.95 218.29544 C 229.92656 217.9602 230.69383 217.2328 231.6627 216.63567 C 233.18618 215.711 233.48793 215.20865 233.78164 213.21498 C 234.48596 208.83446 231.857 198.7676 230.08503 198.89152 C 229.7977 198.91161 229.56828 199.07203 229.58167 199.2636 Z"
                        fill="black"/>
               </g>
            </g>
            <g>
               <g  id="outline-26">
                  <path
                        d="M 228.23157 232.94943 C 228.5102 234.1812 228.76105 235.70367 228.80458 236.32625 C 228.84812 236.94883 229.1244 237.4589 229.36386 237.44215 C 230.178 237.38522 229.30494 231.09374 228.4707 230.86332 C 227.9305 230.7086 227.86486 231.1463 228.23157 232.94943 Z"
                        fill="black"/>
               </g>
            </g>
            <g>
               <g  id="outline-27">
                  <path
                        d="M 267.95945 317.95184 C 266.91924 318.21708 264.732 319.2844 263.0749 320.3628 C 258.42542 323.38292 252.91694 324.44186 246.69312 323.52957 L 245.23294 323.2948 L 246.21655 324.28477 C 247.09432 325.13777 247.67572 325.19337 252.80006 324.83504 C 258.88223 324.40973 260.90805 323.78682 264.06184 321.40065 C 267.6232 318.6491 273.76766 317.7382 277.25734 319.4673 C 278.95596 320.35915 281.89238 323.81134 282.5086 325.7414 C 282.70585 326.4976 283.08127 327.04884 283.27283 327.03545 C 284.9969 326.9149 283.40915 322.7909 280.51962 320.0092 C 277.52426 317.0905 273.9713 316.5208 267.95945 317.95184 Z"
                        fill="black"/>
               </g>
            </g>
            <g>
               <g  id="outline-28">
                  <path
                        d="M 287.7267 326.724 C 288.33756 329.9538 289.85265 332.35037 291.84866 333.3658 C 293.14406 333.9971 293.57843 334.01485 293.97596 333.5058 C 294.3735 332.99675 294.3601 332.8052 293.87114 332.695 C 292.0523 332.14843 290.58408 330.42234 289.61354 327.55457 C 288.23744 323.70452 287.04452 323.1623 287.7267 326.724 Z"
                        fill="black"/>
               </g>
            </g>
            <g>
               <g  id="outline-29">
                  <path
                        d="M 201.77094 331.48336 C 201.79438 331.8186 202.17315 332.41774 202.6755 332.7195 C 203.13332 333.07248 203.82623 334.03465 204.27299 334.9178 C 205.1665 336.68407 204.86742 339.9775 203.50804 343.24883 C 202.80775 344.93405 202.90588 345.64907 203.76792 345.5888 C 204.29472 345.55195 206.09584 339.65098 206.28038 337.47244 C 206.46157 335.246 205.69499 333.23022 204.0965 331.70574 C 202.8634 330.58884 201.70061 330.47765 201.77094 331.48336 Z"
                        fill="black"/>
               </g>
            </g>
            <g>
               <g  id="outline-30">
                  <path
                        d="M 200.91928 333.75668 C 200.83822 335.35048 201.52676 343.8205 201.7662 343.80375 C 203.05927 343.71333 202.84965 335.20982 201.56865 334.09627 C 201.20997 333.78447 200.96047 333.65754 200.91928 333.75668 Z"
                        fill="black"/>
               </g>
            </g>
            <g>
               <g  id="outline-31">
                  <path
                        d="M 186.41892 359.6995 C 183.44129 363.22838 182.7678 365.29673 183.08928 369.89428 C 183.34045 373.4861 183.46637 373.91043 185.05045 375.91717 C 185.99956 377.10206 186.93193 378.0475 187.17138 378.03075 C 188.08131 377.9671 187.98654 377.3 186.82577 375.84115 C 185.39876 374.01593 184.58294 370.60796 184.78624 367.32122 C 184.98853 364.7083 187.18417 360.31976 189.05728 358.8894 C 190.33795 357.9336 190.4247 357.1094 189.2753 357.18977 C 188.84429 357.2199 187.57366 358.3194 186.41892 359.6995 Z"
                        fill="black"/>
               </g>
            </g>
         </g>
      </g>
   </g>
</svg>