<?xml version="1.0" encoding="UTF-8" standalone="no"?>
<svg
   width="192.388"
   height="249.857"
   version="1.1"
   viewBox="0 0 192.388 249.857"
   id="svg3614"
   sodipodi:docname="griffin-head.svg"
   inkscape:version="1.2.2 (b0a84865, 2022-12-01)"
   inkscape:dataloss="true"
   xmlns:inkscape="http://www.inkscape.org/namespaces/inkscape"
   xmlns:sodipodi="http://sodipodi.sourceforge.net/DTD/sodipodi-0.dtd"
   xmlns="http://www.w3.org/2000/svg"
   xmlns:svg="http://www.w3.org/2000/svg"
   xmlns:rdf="http://www.w3.org/1999/02/22-rdf-syntax-ns#"
   xmlns:cc="http://creativecommons.org/ns#"
   xmlns:dc="http://purl.org/dc/elements/1.1/">
  <title
     id="title2847">Griffin_Head_couped</title>
  <sodipodi:namedview
     id="namedview3616"
     pagecolor="#ffffff"
     bordercolor="#000000"
     borderopacity="0.25"
     inkscape:showpageshadow="2"
     inkscape:pageopacity="0.0"
     inkscape:pagecheckerboard="0"
     inkscape:deskcolor="#d1d1d1"
     showgrid="false"
     inkscape:zoom="3.99829"
     inkscape:cx="96.2911"
     inkscape:cy="124.928"
     inkscape:window-width="1920"
     inkscape:window-height="974"
     inkscape:window-x="-11"
     inkscape:window-y="-11"
     inkscape:window-maximized="1"
     inkscape:current-layer="g2602"
     inkscape:pageshadow="2"
     inkscape:snap-smooth-nodes="true"
     showguides="false" />
  <defs
     id="defs2" />
  <style
     type="text/css"
     id="style1558">.st0{fill:#529423}.st1{fill:none;stroke:#2d5016;stroke-width:1.2}.st2{fill:#4b8820}.st3{fill:#447821}.st4{fill:#2d5016}.st5{fill:#fff}.st6{fill:none;stroke:#999;stroke-width:1.2}.st7{fill:#f9f9f9}.st8{fill:#f2f2f2}.st9{fill:#e6e6e6}.st10{fill:#b9b9b9}.st11{fill:#f3c702}.st12{fill:none;stroke:#a80;stroke-width:1.2}.st13{fill:#f5d858}.st14{fill:#f8e58f}</style>
  <style
     type="text/css"
     id="style1560" />
  <style
     type="text/css"
     id="style1562" />
  <style
     type="text/css"
     id="style1564" />
  <style
     type="text/css"
     id="style1566" />
  <style
     type="text/css"
     id="style1568" />
  <style
     type="text/css"
     id="style1570" />
  <style
     type="text/css"
     id="style1572" />
  <style
     type="text/css"
     id="style1574" />
  <style
     type="text/css"
     id="style1576" />
  <style
     type="text/css"
     id="style1578" />
  <style
     type="text/css"
     id="style1580" />
  <style
     type="text/css"
     id="style1582" />
  <style
     type="text/css"
     id="style1584" />
  <style
     type="text/css"
     id="style1586" />
  <style
     type="text/css"
     id="style1588" />
  <style
     type="text/css"
     id="style1590" />
  <style
     type="text/css"
     id="style1592" />
  <style
     type="text/css"
     id="style1594" />
  <style
     type="text/css"
     id="style1596" />
  <style
     type="text/css"
     id="style1598" />
  <style
     type="text/css"
     id="style1600" />
  <style
     type="text/css"
     id="style1602" />
  <style
     type="text/css"
     id="style1604" />
  <style
     type="text/css"
     id="style1606" />
  <style
     type="text/css"
     id="style1608" />
  <style
     type="text/css"
     id="style1610" />
  <style
     type="text/css"
     id="style1612" />
  <style
     type="text/css"
     id="style1614" />
  <style
     type="text/css"
     id="style1616" />
  <style
     type="text/css"
     id="style1618" />
  <g
     id="g923"
     transform="translate(-44.9179,-16.1838)">
    <g
       transform="matrix(-0.853647,0.16901,0.174167,0.862823,996.124,-1036)"
       id="g2588"
       style="stroke:#000000;stroke-width:1.491;stroke-opacity:1">
      <path
         d="m 1285.3,1130.2 c 0,0 -15.11,8.34 -18.62,16.14 -1.67,3.7 -1.82,6.8 0,10.43 1.59,3.18 6.37,4.73 7.2,8.19 0.6,2.5 -1.17,5.72 -2.18,8.88 -0.83,2.6 -0.9,5.17 -0.8,7.27 0.31,6.88 7.94,11.17 7.94,11.17 0,0 -2.52,-4.65 -0.49,-8.44 0.85,-1.6 4.43,-2.79 6.61,-5.29 1.56,-1.79 3.32,-6.88 3.32,-6.88 3.06,4.6 4.74,8.29 3.23,13.66 10.62,-4.61 16.34,-14.52 15.89,-25.83 -0.37,-9.23 -9.68,-25.58 -9.68,-25.58 z"
         stroke="#806600"
         stroke-width="1.491"
         id="path2582"
         style="fill:#ffff00;stroke:#000000;stroke-opacity:1" />
    </g>
    <path
       d="m 52.3355,147.035 c 0,0 -4.9634,7.436 -3.5693,11.743 1.7649,5.454 5.9373,10.407 13.4051,11.829 11.8526,2.257 32.6217,-5.061 45.2367,-4.749 19.2,0.474 46.545,12.837 46.545,12.837 l 1.833,-20.738 c 0,0 -26.454,-8.292 -42.827,-8.405 -14.1603,-0.1 -32.9834,9.921 -47.2422,10.381 -4.1529,0.134 -5.9992,-1.372 -8.8758,-3.236 -3.4146,-2.212 -4.5057,-9.662 -4.5057,-9.662 z"
       fill="#c40000"
       id="langued"
       style="fill:#ff0000;fill-opacity:1;stroke:#000000;stroke-width:1.305;stroke-opacity:1"
       inkscape:label="#langued" />
    <g
       id="g1100"
       transform="matrix(1.37889,0,0,1.37889,-50.2718,35.0685)">
      <g
         stroke-width="1.491"
         id="g2602"
         transform="matrix(0.591637,-0.219121,0.221772,0.598796,-1483.49,719.151)"
         style="fill:#ffff00">
        <path
           transform="translate(-148.6,-542.44)"
           d="m 2931.7,431.08 c 0,0 0.32,-14.649 3.39,-21.064 6.63,-13.854 20.31,-22.091 26.58,-36.11 2.37,-5.295 5.64,-12.413 5.64,-12.413 0,0 5.67,8.363 7.27,14.67 2.03,8.023 3.81,16.675 2.38,24.825 -1.47,8.324 -5.27,17.507 -11.03,23.697 -4.24,4.56 -16.93,7.899 -16.93,7.899 z"
           stroke-width="1.491"
           id="path2600"
           style="fill:#ffff00;stroke:#000000;stroke-opacity:1" />
      </g>
      <path
         id="path2634"
         style="fill:#ffff00;stroke:#000000;stroke-width:3.35322;stroke-opacity:1"
         d="M 606.043,-44.0449 C 574.516,3.42441 546.027,51.127 535.285,107.652 c 0,0 -52.56,15.311 -79.664,16.061 -28.305,0.783 -47.957,-4.437 -75.832,0.41 -66.069,11.489 -113.476,86.886 -16.316,121.693 l 38.914,17.127 127.847,18.383 39.422,22.748 -120.392,41.602 14.925,14.34 c 10.512,8.172 24.316,10.311 30.518,18.463 32.754,43.045 -4.42,78.332 -41.01,111.978 -21.262,19.552 -44.632,31.76 -70.332,65.717 -4.274,5.65 -8.048,22.164 -14.931,35.668 h 308.892 c -0.871,-5.876 -1.997,-11.476 -3.601,-16.551 -5.56,-17.134 -20.428,-21.972 -13.08,-42.783 11.942,25.511 23.6,28.139 25.97,27.66 -8.105,-15.661 4.148,-61.409 9.485,-71.828 9.41,-18.372 -2.555,-45.338 -2.555,-45.338 7.557,13.584 15.081,26.248 22.123,25.764 0,0 -3.87,-18.261 -2.67,-32.588 1.511,-18.03 7.872,-34.19 4.328,-48.938 -3.579,-14.895 -21.693,-40.511 -21.693,-40.511 11.169,6.671 19.552,16.348 40.332,12.652 0,0 -7.055,-9.179 -10.85,-22.424 -3.794,-13.242 -4.327,-30.553 -10.115,-39.844 -6.586,-10.574 -26.502,-26.261 -26.502,-26.261 16.594,8.946 30.046,9.408 41.947,5.685 0,0 -16.007,-16.972 -27.931,-36.789 -8.036,-13.355 -15.658,-32.886 -24.569,-40.523 -8.701,-7.457 -28.414,-15.52 -28.414,-15.52 C 669.489,93.2433 617.437,25.4634 606.043,-44.0449 Z"
         transform="matrix(0.282225,0,0,0.282225,-6.15e-4,0)" />
      <g
         id="g2506"
         transform="matrix(1.74591,-0.64662,0.64662,1.74591,-531.635,-70.8946)">
        <path
           style="text-indent:0;text-decoration-line:none;text-transform:none;fill:#000000;stroke-width:0.508304"
           id="path2708" />
        <path
           d="m 329.89,193.244 c 1.5,0.325 2.4,0.438 3.759,-0.282 1.728,-0.915 3.54,-2.908 4.456,-4.651 1.143,-2.177 1.908,-4.601 2.227,-7.045 0.518,-3.963 -0.138,-8.003 -0.557,-11.978 -0.06,-0.568 -0.278,-1.691 -0.278,-1.691 0,0 -6.082,5.099 -8.354,8.314 -1.497,2.119 -2.746,4.032 -3.62,6.482 -0.649,1.822 -1.051,4.265 -1.114,6.201 -0.03,1.049 0.499,2.676 1.114,3.523 0.652,0.897 1.291,0.894 2.367,1.127 z"
           id="path2746"
           style="fill:#ffff00;stroke:#000000;stroke-width:0.508304;stroke-opacity:1" />
      </g>
      <path
         d="m 125.179,95.4193 9.182,5.6477 c 0,0 5.669,-3.4705 8.709,-4.7857 8.851,-3.8297 24.533,-7.8383 24.533,-7.8383 0,0 -2.271,-9.8108 -6.572,-11.918 -5.888,-2.8851 -19.551,-1.1827 -19.551,-1.1827 l 15.247,8.7052 z"
         id="path2646"
         style="fill:#ffff00;stroke:#000000;stroke-width:0.946362;stroke-opacity:1" />
    </g>
    <g
       id="g36397"
       transform="matrix(2.40742,-0.89162,0.89162,2.40742,-783.34,-62.6877)">
      <g
         id="g36387">
        <path
           d="m 300.389,184.038 c -0.283,1.685 1.436,4.856 4.122,5.391 2.687,0.535 5.325,-1.768 5.608,-3.454 0.283,-1.685 -1.997,-1.748 -4.684,-2.283 -2.686,-0.535 -4.763,-1.339 -5.046,0.346 z"
           fill="#ffffff"
           id="path2686"
           style="stroke-width:0.508304" />
        <path
           d="m 309.063,183.905 c 0.452,0.206 0.85,0.45 1.109,0.808 0.258,0.358 0.36,0.837 0.276,1.336 -0.167,0.999 -0.964,2.014 -2.051,2.773 -1.086,0.759 -2.485,1.236 -3.932,0.947 -1.447,-0.288 -2.628,-1.271 -3.398,-2.4 -0.77,-1.129 -1.164,-2.406 -0.996,-3.404 0.08,-0.5 0.336,-0.883 0.694,-1.118 0.358,-0.235 0.785,-0.324 1.275,-0.342 0.98,-0.04 2.256,0.621 3.6,0.888 1.343,0.268 2.518,0.1 3.423,0.512 z m -0.237,0.628 c -0.785,-0.357 -1.967,-0.186 -3.311,-0.453 -1.343,-0.268 -2.58,-0.912 -3.43,-0.88 -0.425,0.02 -0.753,0.1 -0.967,0.236 -0.214,0.14 -0.341,0.324 -0.398,0.667 -0.115,0.687 0.201,1.838 0.891,2.85 0.69,1.012 1.719,1.877 2.959,2.124 1.239,0.246 2.5,-0.163 3.474,-0.844 0.975,-0.68 1.64,-1.636 1.756,-2.323 0.06,-0.343 0,-0.561 -0.152,-0.774 -0.155,-0.214 -0.43,-0.424 -0.822,-0.603 z"
           style="text-indent:0;text-decoration-line:none;text-transform:none;fill:#000000;stroke-width:0.508304"
           id="path2690" />
      </g>
      <g
         id="g36383">
        <ellipse
           cx="-343.395"
           cy="85.0346"
           rx="2.15014"
           ry="2.31617"
           id="ellipse2692"
           transform="matrix(-0.952697,-0.303923,-0.265217,0.964189,0,0)"
           style="fill:#550000;stroke-width:0.508511" />
        <path
           d="m 304.926,185.268 c 0.555,0.178 0.955,0.78 0.778,1.42 -0.176,0.641 -0.815,0.911 -1.371,0.734 -0.556,-0.177 -0.929,-0.748 -0.748,-1.41 0.182,-0.661 0.785,-0.921 1.341,-0.744 z"
           fill="#554400"
           id="path2694"
           style="fill:#000000;stroke-width:0.687132" />
        <path
           d="m 304.317,184.873 c 0.381,0.122 0.652,0.547 0.526,1.004 -0.126,0.457 -0.567,0.655 -0.949,0.533 -0.381,-0.122 -0.634,-0.525 -0.504,-0.997 0.13,-0.472 0.546,-0.661 0.927,-0.54 z"
           fill="#ffffff"
           id="path2696"
           style="stroke-width:0.480612" />
      </g>
      <path
         d="m 300.417,181.858 c -0.735,-0.779 -0.546,-1.146 -0.546,-1.146 l 0.277,-0.706 0.495,0.554 v 0 0 c 0,0 -0.196,0.108 3.671,1.807 1.697,0.745 5.221,1.367 7.236,2.056 1.007,0.345 1.949,0.875 2.416,1.825 0.467,0.951 0.398,2.173 -0.215,3.735 -0.649,-0.529 -0.109,-1.853 -0.788,-3.284 -0.258,-0.545 -0.853,-0.913 -1.719,-1.209 -1.731,-0.592 -4.374,-0.687 -6.414,-1.583 -3.667,-1.611 -3.678,-1.27 -4.412,-2.049 z"
         fill="#c59d00"
         style="text-indent:0;text-decoration-line:none;text-transform:none;fill:#000000;stroke-width:0.508304"
         id="path2702" />
    </g>
    <g
       id="beaked"
       transform="matrix(1.29306,-0.478902,0.478902,1.29306,-104.359,113.658)"
       inkscape:label="#beaked">
      <path
         d="m 124.421,45.311 c -2.196,-6.5866 -1.088,-9.5335 4.554,-13.5716 -23.501,-9.4038 -40.2003,17.0319 -22.505,31.2408 0,0 -0.465,-2.3634 0.06,-3.9542 0.631,-1.9163 2.057,-3.776 3.868,-4.6259 2.658,-1.2477 5.024,-1.3071 7.654,0 2.925,1.4536 5.205,4.6244 5.977,7.8285 0.62,2.5769 0.784,8.1843 0.784,8.1843 0,0 7.003,-0.4744 10.899,1.0675 12.149,4.8081 30.236,18.5037 30.236,18.5037 0,0 -9.437,-0.2969 -15.821,-0.7116 -6.2,-0.4028 -11.407,0 -17.58,-0.7117 -3.361,-0.3862 -12.689,-1.1984 -15.821,-2.4909 -5.156,-2.1277 -9.496,-7.4691 -9.496,-7.4691 -3.375,6.7935 -0.183,15.1859 9.867,17.288 12.331,2.579 24.222,1.6977 36.677,1.3205 8.337,-0.2526 16.926,-0.2792 26.07,1.1092 0,0 1.791,-5.4059 -1.012,-7.9383 -11.137,-10.061 -25.728,-18.5734 -35.746,-25.6574 0,0 -2.446,-6.9014 -4.84,-9.5239 -1.501,-1.6457 -3.824,-3.3529 -5.646,-4.6259 -2.673,-1.8362 -5.42,-3.5596 -8.178,-5.2618 z"
         fill="#ebd25d"
         id="path2754"
         style="fill:#00ff00;stroke:#000000;stroke-width:0.946362;stroke-opacity:1" />
      <path
         d="m 115.145,35.1794 c -0.181,0.4344 -0.137,0.4348 -0.366,0.9143 -0.939,1.9649 -2.418,4.012 -3.311,4.4618 -0.281,0.1413 -1.834,0.215 -3.161,-0.017 -0.349,-0.061 -0.338,-0.084 -0.64,-0.1529 0.08,-0.1422 0.06,-0.1282 0.15,-0.2799 0.611,-1.0234 1.495,-2.1875 2.012,-2.5746 0.84,-0.6291 3.037,-1.5723 4.908,-2.223 0.221,-0.077 0.197,-0.058 0.408,-0.1284 z"
         fill="#806600"
         id="path2768"
         style="fill:#000000;stroke-width:0.946384" />
    </g>
  </g>
  <metadata
     id="metadata2845">
    <rdf:RDF>
      <cc:Work
         rdf:about="">
        <dc:title>Griffin_Head_couped</dc:title>
        <dc:date>27/09/2022</dc:date>
        <dc:creator>
          <cc:Agent>
            <dc:title>Genuensium praesidium (Paolo); User:Ketipmaig (wikimedia)</dc:title>
          </cc:Agent>
        </dc:creator>
        <dc:source>https://commons.wikimedia.org/wiki/File:Coat_of_Arms_of_Genoa.svg</dc:source>
      </cc:Work>
    </rdf:RDF>
  </metadata>
</svg>
