<?xml version="1.0" encoding="utf-8"?>
<svg xmlns="http://www.w3.org/2000/svg" xmlns:dc="http://purl.org/dc/elements/1.1/"
     xmlns:xl="http://www.w3.org/1999/xlink"
     xmlns:xlink="http://www.w3.org/1999/xlink"
     version="1.1"
     viewBox="33.75 60.75 297 281.25"
     width="297"
     height="281.25"
     preserveAspectRatio="xMidYMid meet"
     zoomAndPan="magnify"
     contentScriptType="application/ecmascript"
     contentStyleType="text/css">
   <defs/>
   <metadata xmlns="" xmlns:svg="http://www.w3.org/2000/svg"
             xmlns:rdf="http://www.w3.org/1999/02/22-rdf-syntax-ns#"
             xmlns:cc="http://creativecommons.org/ns#">
      <rdf:RDF>
         <cc:Work rdf:about="">
            <dc:creator>
               <cc:Agent>
                  <dc:title>http://heraldicart.org Ounce's Head Cabossed.svg</dc:title>
               </cc:Agent>
            </dc:creator>
         </cc:Work>
      </rdf:RDF>
   </metadata>
   <g stroke-opacity="1" stroke-dasharray="none" stroke="#505050" fill="#ffff00"
      fill-opacity="1">
      <title>Ounce's Head Cabossed</title>
      <g>
         <title>Layer 2</title>
         <g>
            <g>
               <g  id="outline-0">
                  <path
                        d="M 65.70459 232.18437 C 64.02407 232.52185 61.57402 232.98667 59.36216 233.30265 C 55.93254 233.8514 53.051656 234.94887 53.051656 235.6348 C 53.051656 236.4579 54.149135 236.73227 55.520984 236.4579 C 57.57876 235.77198 65.80985 233.98858 75.82435 232.068 L 75.82435 232.068 C 78.29368 231.51925 78.9796 232.20517 79.80271 236.32072 C 80.21427 239.06442 80.21427 241.80812 79.52834 242.49404 C 78.84242 243.17996 73.76658 244.27744 68.141995 245.23774 C 54.423505 247.2955 39.333165 251.68543 39.333165 253.46883 C 39.333165 254.42913 40.29346 254.5663 41.66531 254.01757 C 45.64367 252.37135 68.55355 246.74677 72.25754 246.4724 C 79.9399 245.78648 81.31175 246.4724 82.95797 250.9995 C 85.01574 256.76127 85.01574 257.4472 82.95797 257.4472 C 75.412795 257.4472 34.531693 274.45812 36.040727 276.92745 C 36.45228 277.4762 40.8422 275.82997 45.91804 273.22346 C 56.20691 268.01043 84.60418 257.4472 88.71973 257.4472 C 90.09158 257.4472 92.28654 258.81904 93.5212 260.46526 C 95.57898 263.6205 95.44179 263.7577 87.75944 267.18732 C 68.416365 275.96716 64.16363 278.1621 63.34052 279.39678 C 62.92897 280.2199 62.92897 280.76863 63.47771 280.76863 C 64.57519 280.76863 87.07351 270.2054 94.75587 266.08984 C 98.32267 264.16926 98.87141 264.16926 102.16385 266.63858 C 104.08444 268.14762 105.86784 269.93102 106.14221 270.61695 C 106.41658 271.30287 102.98696 273.635 98.73423 275.82997 C 83.91826 282.9636 64.16363 297.2308 68.82792 297.2308 C 69.239475 297.2308 74.31532 293.93838 80.21427 289.82283 C 95.57898 279.1224 111.49243 270.8913 115.88234 271.44006 C 121.7813 272.12598 120.95818 275.6928 113.82457 280.76863 C 99.69452 290.9203 87.89662 301.34636 90.7775 301.34636 C 91.60061 301.34636 102.16385 292.9781 109.98339 286.11884 C 112.31554 284.19825 116.15671 281.31737 118.48886 279.94552 C 122.87877 277.4762 123.01596 277.4762 125.07373 280.0827 C 126.17121 281.59174 127.1315 284.88418 127.1315 287.3535 C 127.1315 293.38964 129.0521 296.68208 133.16764 297.77956 C 135.08823 298.1911 137.28319 299.83733 138.1063 301.34636 C 138.9294 302.8554 140.43844 303.6785 141.39874 303.26695 C 142.77058 302.7182 143.18214 303.26695 142.77058 305.05036 C 142.22184 306.97095 143.5937 308.61716 147.70924 311.36086 C 150.8645 313.41864 153.88256 315.06486 154.4313 315.06486 C 154.98004 315.06486 159.64433 316.4367 164.72017 317.94574 C 173.77437 320.82662 174.04874 320.9638 173.22563 324.805 C 172.26534 329.46927 173.91156 330.70393 177.34118 328.09742 C 181.04517 325.35372 182.00547 325.6281 182.00547 329.46927 C 182.00547 333.17326 186.2582 338.3863 189.41345 338.3863 C 190.51093 338.3863 192.7059 337.2888 194.4893 335.77978 C 197.233 333.5848 197.37018 332.8989 195.99833 331.1155 C 194.4893 329.3321 194.62648 328.3718 196.40988 325.4909 C 197.78173 323.57032 199.42795 321.9241 200.38824 321.9241 C 202.85757 321.9241 213.69518 313.96738 220.14287 307.5197 C 223.4353 304.09006 227.2765 301.34636 228.64834 301.34636 C 230.02018 301.34636 233.72418 298.46548 236.74225 295.03586 L 242.36683 288.72535 L 247.85422 290.9203 C 254.57628 293.664 255.12502 291.74342 248.54015 288.58817 C 245.93363 287.3535 243.73868 285.4329 243.73868 284.33544 C 243.73868 280.35707 246.48237 275.28123 248.54015 275.28123 C 251.96977 275.28123 269.8038 285.29573 274.05654 289.54846 C 278.0349 293.664 280.50423 293.664 278.9952 289.82283 C 277.89772 287.07913 266.64855 280.0827 258.55465 277.06464 C 254.85065 275.82997 251.96977 274.04657 251.96977 273.36064 C 251.96977 271.30287 260.8868 264.30644 263.35612 264.30644 C 269.52944 264.30644 297.51516 277.20182 303.5513 282.8264 C 307.2553 286.25603 309.58743 287.21632 309.58743 285.15855 C 309.58743 281.59174 295.73175 273.08627 281.46452 267.73606 C 276.1143 265.6783 271.5872 263.8949 271.45003 263.6205 C 271.17566 263.34615 273.5078 260.87682 276.52587 258.13312 C 279.54394 255.25224 281.87608 252.50854 281.46452 251.9598 C 281.05297 251.27387 282.28763 249.62766 284.20822 248.11862 C 286.1288 246.6096 287.63785 244.689 287.63785 243.8659 C 287.63785 243.04278 289.0097 242.35686 290.7931 242.35686 C 293.67398 242.35686 309.8618 246.4724 315.4864 248.53018 C 316.72105 249.07892 317.81852 248.94173 317.81852 248.11862 C 317.81852 246.33522 306.84373 242.7684 297.65234 241.53375 C 293.3996 240.985 290.24436 239.88753 289.8328 238.65286 C 289.42125 237.55538 290.9303 234.26295 293.3996 231.24488 C 298.33827 225.07156 299.57293 224.93437 315.4864 227.95244 C 327.9702 230.28458 329.20487 230.42177 328.24458 228.91273 C 327.2843 227.26652 314.3889 224.52282 306.1578 224.11126 C 300.12167 223.8369 299.29856 223.56252 299.8473 221.0932 C 300.12167 219.58416 300.39604 215.88017 300.39604 212.8621 C 300.39604 209.02092 301.21915 206.82596 303.13974 205.45412 C 304.64877 204.35664 305.4719 202.57323 305.06033 200.92701 C 304.64877 199.55516 305.1975 196.67428 306.1578 194.6165 C 307.9412 191.46125 307.80403 190.77533 305.74625 188.44319 C 304.23722 186.65978 303.4141 183.23016 303.27692 176.78247 C 303.27692 171.70663 302.7282 166.4936 302.04226 165.12175 C 301.35634 163.47553 302.04226 161.69213 304.64877 159.08562 C 306.56936 157.16503 308.21558 154.42133 308.21558 153.04948 C 308.21558 149.89423 306.02062 149.61986 304.92314 152.50074 C 304.5116 153.59822 303.4141 154.55852 302.4538 154.55852 C 299.29856 154.55852 297.65234 150.03141 297.51516 141.1144 C 297.37797 135.627 296.55486 131.0999 295.04583 128.49338 C 292.7137 124.6522 292.7137 124.10347 295.86894 114.63771 C 299.29856 103.93728 299.43575 100.64485 297.2408 86.37762 C 296.2805 80.34148 294.63428 75.95156 292.85087 74.030975 C 289.97 71.01291 289.28406 70.87572 268.56914 71.42446 C 250.18637 71.83602 246.3452 71.56165 241.6809 69.36669 C 236.74225 67.17173 225.3559 65.25114 204.64098 63.19337 C 200.93698 62.78181 197.233 63.05618 196.40988 63.74211 C 193.529 66.485805 182.27984 67.857654 178.57584 65.937066 C 174.32311 63.74211 153.05945 64.01648 150.17857 66.485805 C 148.9439 67.4461 144.27962 67.99484 137.96911 67.72047 C 130.97268 67.583285 127.95461 67.99484 128.0918 69.09232 C 128.77772 72.65913 124.79936 73.756605 119.31197 71.56165 C 116.15671 70.1898 109.43465 69.09232 102.43822 68.81795 C 95.99053 68.68076 87.89662 67.99484 84.32981 67.4461 C 78.01931 66.485805 77.74494 66.62299 72.39473 72.24757 C 65.53548 79.51837 63.88926 87.4751 65.94704 103.11418 C 66.49578 106.81817 66.90733 111.89401 66.90733 114.22615 C 66.77015 116.5583 68.00481 119.98792 69.513844 121.90851 C 73.21784 126.84716 72.94347 128.49338 67.45607 135.48981 C 62.243044 142.07469 61.145565 148.79675 64.71237 151.81482 C 68.82792 155.24444 66.35859 158.67406 59.773716 158.67406 C 55.520984 158.67406 56.89283 162.37805 61.55712 163.33835 L 65.80985 164.16146 L 63.066154 167.31671 C 59.773716 170.88352 58.40187 174.45033 59.63653 175.82218 C 60.45964 176.64529 61.28275 186.38541 61.28275 196.81147 C 61.28275 201.33857 64.98674 209.43248 67.04452 209.43248 C 67.593256 209.43248 68.141995 210.66714 68.141995 212.17618 C 68.141995 213.6852 68.82792 214.91987 69.788214 214.91987 C 70.61132 214.91987 70.19977 216.15454 68.82792 217.66357 C 66.35859 220.27009 66.49578 220.40727 69.239475 220.40727 C 72.94347 220.40727 73.08065 222.19067 69.788214 225.4831 C 68.27918 226.85496 66.90733 228.91273 66.35859 230.1474 C 66.066 231.1227 66.89923 231.3796 67.40537 231.53036 C 70.270876 230.64692 75.298075 229.11564 76.28049 227.95244 C 77.53182 226.4434 77.40662 227.12957 77.97262 228.44354 C 78.4149 229.33217 79.91084 230.00798 77.54721 230.14516 C 75.02476 230.3366 65.784845 232.16825 65.70459 232.18437 Z"
                        fill="black"/>
               </g>
            </g>
            <g>
               <path d="M 196.68425 70.05261 C 195.99833 71.83602 196.54707 71.83602 200.52543 70.05261 C 206.56157 67.583285 208.61934 67.583285 207.52186 70.1898 C 206.97312 71.9732 207.65904 72.11039 212.18615 71.42446 C 216.1645 70.73854 218.0851 71.15009 219.73132 72.79631 C 220.96598 74.030975 223.16094 74.99127 224.66997 74.99127 C 228.37397 74.99127 229.47145 78.69526 226.72775 81.71333 C 225.49308 83.08518 224.5328 84.7314 224.5328 85.55451 C 224.5328 87.61228 229.19708 88.57258 231.94077 87.06354 C 234.95884 85.41732 235.50758 85.82888 236.46788 92.13938 C 237.1538 96.11775 236.74225 97.62678 235.09603 98.58707 C 232.21514 100.09611 231.94077 106.5438 234.68447 106.5438 C 235.78195 106.5438 237.01661 107.50409 237.42817 108.73876 C 237.9769 109.97342 239.21157 110.65935 240.30905 110.1106 C 241.40653 109.69905 242.36683 110.1106 242.36683 111.0709 C 242.36683 112.0312 243.73868 113.95178 245.3849 115.32363 C 248.26578 117.79296 248.40296 117.79296 250.18637 115.32363 C 251.96977 112.99149 252.24414 112.99149 258.1431 115.87237 C 264.4536 118.89044 265.96263 121.22258 262.25864 122.32006 C 254.98784 124.6522 255.12502 124.37784 258.0059 126.43561 C 259.37775 127.53309 261.16116 128.08183 261.84708 127.67027 C 264.04204 126.29842 267.0601 130.1396 267.0601 134.11796 C 267.0601 138.91944 266.64855 138.91944 261.7099 135.21544 C 258.9662 133.29485 256.90843 132.74612 254.3019 133.29485 C 249.63763 134.52952 249.50044 136.72448 254.02754 136.72448 C 255.94813 136.72448 257.86872 137.68477 258.28028 138.78225 C 258.829 139.87973 259.9265 140.84002 261.02397 140.84002 C 263.08175 140.84002 263.4933 144.54402 262.12145 148.3852 C 260.8868 151.40326 254.3019 154.55852 248.81452 154.55852 C 246.3452 154.55852 243.73868 155.10725 242.91557 155.93036 C 242.22964 156.61629 239.7603 157.4394 237.56535 157.85095 C 232.07796 158.53688 228.51115 159.90873 225.2187 162.7896 C 223.70968 164.16146 220.8288 165.5333 218.63384 166.08205 C 213.83237 167.17953 212.32333 164.16146 215.47858 159.35999 C 218.22228 155.10725 215.89014 154.83288 213.00926 158.94843 L 210.8143 161.9665 L 210.8143 158.53688 C 210.8143 156.61629 211.7746 153.87259 212.87207 152.36356 C 216.02732 148.11082 215.20421 146.87616 211.50022 150.44297 C 209.57963 152.22637 208.0706 153.04948 208.0706 152.22637 C 208.0706 150.1686 219.18258 138.64507 222.20065 137.68477 C 224.12123 136.99885 225.63027 133.98078 223.98405 133.98078 C 221.24035 133.98078 214.5183 137.54759 213.4208 139.74255 C 212.5977 141.1144 210.95148 142.21187 209.44245 141.9375 C 206.2872 141.38876 201.21135 146.05305 201.21135 149.48267 C 201.21135 150.9917 202.30883 153.46104 203.5435 154.83288 C 205.18972 156.61629 205.87564 159.49717 205.60127 163.88709 C 205.46409 167.59108 206.15 171.43226 207.52186 173.35285 C 208.61934 175.13625 209.16808 177.3312 208.61934 178.15432 C 207.1103 180.62365 206.97312 186.5226 208.48215 188.44319 C 209.16808 189.40348 209.44245 191.0497 209.0309 192.14718 C 208.61934 193.24466 209.16808 194.89088 210.26556 195.85117 C 211.50022 196.94865 212.04896 198.73205 211.6374 200.65264 C 211.08867 202.43605 211.6374 204.35664 212.87207 205.31693 C 213.96955 206.27722 214.92984 208.06063 214.92984 209.43248 C 214.92984 210.80433 215.75295 213.95958 216.85043 216.5661 C 219.73132 223.28815 217.9479 225.6203 212.04896 222.73941 C 206.97312 220.40727 204.64098 220.956 208.48215 223.6997 C 212.04896 226.4434 211.36304 227.26652 205.46409 227.26652 C 200.7998 227.26652 199.70232 227.81526 197.233 232.20517 C 194.3521 237.00664 193.39181 242.35686 195.44959 242.35686 C 196.13551 242.35686 198.33047 240.43627 200.52543 238.2413 C 203.68068 234.94887 205.3269 234.26295 208.0706 234.81169 C 210.8143 235.36042 212.5977 234.53732 216.71325 230.55895 C 222.06346 225.34593 222.33783 223.97408 220.55443 213.27366 L 219.45695 206.96315 L 225.49308 211.9018 C 228.78552 214.6455 231.39203 217.66357 231.39203 218.62387 C 231.39203 219.72135 232.21514 220.81882 233.17544 221.0932 C 233.99855 221.36756 236.60506 222.32786 238.80002 223.15097 L 242.6412 224.52282 L 239.48594 226.99215 C 234.27292 231.1077 231.25485 231.65643 228.64834 229.3243 C 227.00212 227.81526 225.90464 227.54089 225.2187 228.50118 C 224.80716 229.3243 225.08153 230.0102 225.76745 230.0102 C 226.59056 230.0102 227.2765 230.83332 227.2765 231.65643 C 227.2765 234.12576 236.60506 234.12576 237.42817 231.79362 C 238.25128 229.73584 243.4643 229.46147 246.48237 231.38206 C 248.26578 232.47954 248.1286 232.7539 246.208 232.7539 C 244.69897 232.7539 243.73868 233.8514 243.73868 235.4976 C 243.73868 237.82975 242.77838 238.2413 237.29098 238.2413 C 227.41367 238.2413 224.5328 239.3388 224.5328 243.17996 C 224.5328 245.92366 225.2187 246.4724 228.9227 246.4724 C 232.90107 246.4724 233.03825 246.33522 230.98048 244.00307 C 229.60863 242.63122 228.64834 240.985 228.64834 240.57345 C 228.64834 240.0247 233.31262 239.61316 238.9372 239.61316 C 247.57985 239.61316 249.36326 240.0247 250.59792 242.21967 C 251.5582 244.14026 251.42103 245.10055 250.32355 245.37492 C 249.22607 245.78648 248.67733 247.98144 248.9517 251.1367 C 249.50044 256.21253 249.36326 256.34972 245.52208 255.6638 C 240.58342 254.7035 218.9082 253.33165 222.47501 254.15476 C 223.98405 254.5663 226.72775 255.11505 228.51115 255.5266 C 231.52922 256.21253 231.6664 256.34972 229.33426 258.81904 C 227.9624 260.32808 225.08153 261.56274 222.88657 261.56274 C 220.8288 261.56274 219.0454 262.11148 219.0454 262.9346 C 219.0454 264.85518 212.32333 264.5808 204.5038 262.24867 C 197.0958 260.0537 192.01997 254.84068 189.55064 246.74677 C 188.17879 242.35686 185.57228 240.57345 185.2979 244.14026 C 185.2979 244.96337 184.4748 247.2955 183.65169 249.2161 C 182.96576 251.1367 181.86828 253.7432 181.45673 255.11505 C 180.35925 258.68186 168.69853 265.40392 162.11366 266.5014 C 152.37353 267.87325 145.78865 264.16926 154.56849 262.24867 C 156.90063 261.69993 158.68403 260.73963 158.68403 259.91652 C 158.68403 259.2306 157.86092 258.95623 157.03781 259.36778 C 147.70924 263.20896 140.85 263.6205 140.85 260.46526 C 140.85 259.0934 153.471 254.7035 157.44937 254.7035 C 158.9584 254.7035 160.05588 254.15476 160.05588 253.33165 C 160.05588 252.64572 159.23277 252.37135 158.40966 252.64572 C 157.44937 252.9201 152.37353 254.15476 147.29769 255.38942 C 139.61533 257.31 137.28319 257.4472 133.85357 256.07535 C 128.36617 253.7432 130.42394 251.9598 139.61533 250.86232 C 143.5937 250.31358 147.02332 249.07892 147.43487 248.11862 C 148.1208 245.78648 144.69117 246.06085 135.08823 249.3533 C 126.3084 252.23417 121.50692 252.37135 120.68381 249.62766 C 119.99789 247.84425 125.21092 246.19803 140.57563 243.17996 C 147.98361 241.67093 148.80672 241.25938 144.69117 241.1222 C 138.51785 240.985 136.18571 238.2413 142.08466 238.2413 C 144.4168 238.2413 146.3374 237.55538 146.3374 236.73227 C 146.3374 235.4976 142.22184 235.36042 131.93298 235.77198 C 117.66575 236.5951 115.74516 236.04635 118.62604 231.9308 C 120.40944 229.3243 123.42751 229.04992 134.4023 229.87303 C 140.30126 230.42177 145.51428 230.28458 145.78865 229.73584 C 146.61176 228.364 141.94747 227.4037 132.6189 226.99215 C 125.62247 226.5806 125.3481 226.4434 128.22898 224.7972 C 130.8355 223.28815 132.6189 223.28815 138.24348 224.66 C 145.65147 226.5806 147.02332 226.03185 145.65147 221.77912 C 144.82836 219.1726 144.00525 218.89824 139.0666 219.58416 C 133.44201 220.40727 133.44201 220.40727 136.46008 218.2123 C 141.53592 214.37113 139.8897 213.6852 132.48172 216.4289 C 128.64054 217.93794 125.07373 218.76105 124.66218 218.3495 C 123.15314 216.97765 126.58277 212.8621 129.73802 212.45055 C 132.89327 211.9018 133.85357 209.43248 130.69831 209.43248 C 127.68024 209.43248 121.64411 216.4289 121.64411 219.85853 C 121.64411 221.64193 122.6044 223.15097 124.11344 223.56252 C 125.89684 223.97408 125.48529 224.52282 122.46722 225.75748 C 117.66575 227.67807 114.09894 227.26652 114.09894 224.7972 C 114.09894 223.8369 112.45272 221.9163 110.39495 220.68164 C 106.82814 218.62387 106.55377 218.62387 104.22163 221.0932 C 97.91112 227.95244 95.57898 232.068 95.57898 236.04635 C 95.57898 239.3388 95.16742 239.75034 94.20713 238.2413 C 92.56091 235.6348 92.42372 230.0102 94.06994 230.0102 C 94.75587 230.0102 95.16742 228.08962 95.03024 225.75748 C 94.89305 223.42534 95.57898 220.68164 96.53927 219.72135 C 99.28297 216.97765 98.73423 216.15454 94.89305 217.11483 C 92.42372 217.66357 91.46343 217.3892 91.46343 216.01735 C 91.46343 213.13647 94.34431 210.80433 97.91112 210.80433 C 102.16385 210.80433 101.88948 208.335 97.63675 206.68878 C 95.71616 206.00285 94.20713 204.90538 94.20713 204.35664 C 94.20713 202.71042 99.69452 199.69235 101.06637 200.51546 C 102.71259 201.47575 107.92562 196.26273 107.92562 193.65621 C 107.92562 192.55873 106.96532 191.59844 105.86784 191.59844 C 104.77037 191.59844 103.81007 192.14718 103.81007 192.9703 C 103.81007 193.65621 102.43822 194.89088 100.92919 195.85117 C 98.18549 197.22302 98.0483 197.08584 98.73423 194.47932 C 99.69452 190.77533 98.0483 189.81504 94.75587 192.14718 C 92.69809 193.65621 92.14935 195.85117 92.14935 202.8476 C 92.14935 209.98122 91.7378 211.49025 89.81721 211.49025 C 88.58255 211.49025 85.97603 212.99929 84.05544 214.7827 C 82.13486 216.70328 80.07708 217.80076 79.66553 217.25202 C 78.29368 215.88017 80.62582 210.80433 82.6836 210.80433 C 84.87855 210.80433 85.29011 208.60937 83.232335 207.3747 C 82.40923 206.82596 82.13486 205.31693 82.54641 203.8079 C 83.36952 201.47575 82.95797 201.20138 80.07708 201.8873 C 75.00124 203.25916 74.4525 199.41798 79.25397 194.89088 C 81.44893 192.8331 83.232335 189.95222 83.232335 188.44319 C 83.232335 185.15075 79.9399 186.11104 79.25397 189.54067 C 78.84242 192.01 73.90376 196.94865 71.84599 197.08584 C 70.06258 197.08584 74.72687 189.2663 77.05901 188.306 C 78.15649 187.89445 79.66553 186.24823 80.35145 184.602 C 81.7233 180.76083 88.44536 179.80054 91.05187 183.09298 C 92.69809 185.28793 93.10965 185.15075 96.2649 181.30957 C 100.10608 176.64529 100.65482 173.7644 97.63675 173.7644 C 96.53927 173.7644 95.57898 174.31314 95.57898 175.13625 C 95.57898 177.87995 92.69809 176.37092 91.46343 173.07848 C 90.36595 170.0604 89.81721 169.78604 86.66196 171.29507 C 84.05544 172.39255 83.64389 173.21566 84.74137 174.58751 C 85.83885 175.95936 85.01574 176.91965 81.31175 178.42869 C 78.56805 179.52617 76.37309 181.44676 76.37309 182.54424 C 76.37309 184.7392 72.80628 188.85474 70.74851 188.85474 C 67.73044 188.85474 70.06258 184.05327 75.82435 178.42869 C 84.60418 170.0604 82.40923 169.10012 72.94347 177.19402 C 68.690735 180.89802 65.3983 182.8186 65.3983 181.72113 C 65.3983 178.15432 69.65103 173.7644 73.08065 173.7644 C 75.00124 173.7644 76.235905 173.21566 75.687165 172.52974 C 75.27561 171.84381 76.92183 169.64885 79.39116 167.59108 C 83.78107 164.02427 82.6836 163.47553 75.961535 166.21923 C 74.31532 166.90516 73.62939 166.4936 73.62939 164.98457 C 73.62939 163.06398 79.39116 158.3997 83.91826 156.75347 C 84.74137 156.4791 84.87855 155.93036 84.467 155.51881 C 83.78107 154.55852 76.510275 156.61629 71.57162 159.08562 C 69.65103 160.04591 69.9254 159.2228 72.80628 156.06755 C 75.13843 153.7354 77.60775 151.81482 78.56805 151.81482 C 79.52834 151.81482 81.99767 150.85452 84.19263 149.89423 C 86.2504 148.79675 89.26847 147.4249 90.7775 146.87616 C 93.10965 146.05305 93.10965 145.77868 91.18906 145.36713 C 89.9544 145.09276 86.79914 145.77868 84.05544 146.87616 C 78.70523 149.07112 77.33338 147.69927 81.86049 144.54402 C 83.5067 143.44654 84.32981 141.80032 83.91826 140.56565 C 83.36952 139.1938 84.467 137.27322 86.79914 135.48981 C 88.85692 133.8436 90.09158 132.19738 89.68003 131.78582 C 88.44536 130.55116 83.5067 133.98078 77.33338 140.1541 C 74.4525 143.03498 71.7088 144.95557 71.29725 144.40683 C 70.06258 143.17217 72.53191 139.33099 75.687165 137.54759 C 77.05901 136.72448 79.9399 134.39233 81.99767 132.19738 C 84.19263 130.1396 87.07351 128.49338 88.71973 128.49338 C 92.01217 128.49338 92.14935 127.94464 89.26847 124.51502 C 87.89662 123.00599 85.97603 122.32006 84.467 122.59443 C 80.48864 123.69191 81.17456 119.302 85.70166 115.46082 C 89.68003 111.89401 92.83528 110.79653 90.22877 113.8146 C 89.40566 114.91208 89.13129 116.14674 89.54284 116.5583 C 90.09158 117.10704 93.5212 114.63771 97.2252 111.34527 C 101.06637 107.91565 105.04474 105.17195 106.2794 105.17195 C 108.74873 105.17195 108.88591 105.03476 99.14578 112.71712 L 92.42372 117.93015 L 93.38402 129.04212 C 93.93276 135.627 95.57898 143.17217 97.49957 147.69927 C 99.28297 151.81482 101.20356 157.02784 101.88948 159.35999 C 102.71259 161.69213 104.77037 164.16146 106.96532 165.25894 C 110.8065 167.17953 111.21806 168.00264 109.84621 171.56944 C 108.61154 174.7247 107.10251 174.31314 105.86784 170.60915 C 104.90755 167.72827 104.77037 167.86545 104.22163 171.56944 C 103.67289 174.86188 104.496 176.37092 109.57184 180.89802 C 118.21449 188.58037 124.3878 191.59844 136.59726 193.7934 C 140.30126 194.6165 146.3374 191.0497 146.3374 188.16882 C 146.3374 185.83667 144.14243 185.42512 142.90777 187.4829 C 142.49621 188.16882 138.38067 188.85474 133.85357 188.85474 C 127.54306 188.85474 124.52499 188.03163 120.40944 185.42512 C 115.47079 182.40705 114.92205 181.44676 114.09894 174.58751 C 113.00146 166.08205 113.68738 164.16146 117.94012 164.16146 C 120.13507 164.16146 120.40944 164.57301 119.17478 165.80768 C 116.2939 168.68856 117.117 178.84024 120.54663 181.9955 C 122.19285 183.50453 124.52499 184.7392 125.62247 184.87638 C 131.93298 185.28793 137.69474 184.19045 139.8897 182.26987 C 141.94747 180.48646 142.77058 180.48646 145.78865 181.9955 C 148.53235 183.50453 149.76701 183.64172 151.82479 182.26987 C 153.33382 181.30957 155.3916 180.62365 156.48907 180.62365 C 159.09559 180.62365 160.19307 184.05327 158.27248 185.97386 C 157.175 187.07134 157.175 187.4829 158.40966 187.4829 C 160.879 187.4829 159.09559 198.04613 155.66597 204.631 C 152.92227 209.70685 151.41323 222.46504 152.92227 226.99215 C 153.6082 229.1871 165.81765 235.4976 169.24727 235.4976 C 170.61912 235.4976 173.22563 236.4579 174.87185 237.69257 C 177.75274 239.61316 180.63362 239.3388 180.63362 237.00664 C 180.63362 236.4579 178.43866 233.43984 175.83215 230.42177 C 170.48194 224.11126 170.7563 223.42534 180.63362 220.27009 C 185.02354 218.89824 189.0019 218.62387 194.3521 219.44698 C 202.03446 220.54446 206.01283 219.99572 204.77816 217.80076 C 204.09224 216.70328 188.45316 216.84046 178.9874 218.07513 C 176.79244 218.3495 173.63719 218.62387 171.85378 218.76105 C 170.07038 218.89824 167.1895 220.27009 165.4061 221.77912 C 163.07395 223.6997 162.79958 224.24845 164.58298 223.6997 C 167.1895 222.73941 168.0126 226.4434 165.54328 227.95244 C 163.75987 229.04992 155.94034 225.75748 155.80315 223.8369 C 155.3916 218.89824 156.48907 211.21588 157.86092 209.43248 C 158.82122 208.335 160.33025 205.45412 161.15336 203.25916 C 162.93677 198.45769 163.89706 178.56587 162.38803 177.05684 C 161.83929 176.5081 161.42773 174.99907 161.42773 173.62722 C 161.42773 172.39255 160.60462 171.0207 159.78151 170.74633 C 157.31218 169.92322 160.60462 162.7896 163.34832 162.7896 C 164.4458 162.7896 166.64076 161.28058 168.0126 159.35999 C 169.65883 157.30221 171.16786 156.4791 171.7166 157.30221 C 172.81408 159.2228 175.14622 157.71377 175.14622 154.97007 C 175.14622 153.87259 174.32311 153.18667 173.36282 153.59822 C 172.12815 154.00978 170.8935 152.50074 169.79601 149.61986 C 167.46387 143.17217 165.2689 143.7209 166.36639 150.44297 C 166.91513 154.00978 166.64076 156.61629 165.54328 157.98814 C 163.21114 160.86902 162.25084 159.77154 160.05588 151.81482 C 158.68403 146.60179 157.175 144.26965 154.4313 142.8978 C 152.37353 141.80032 150.45294 140.01692 150.04138 138.78225 C 149.21827 136.86166 142.22184 135.76418 142.22184 137.54759 C 142.22184 138.91944 148.25798 143.44654 150.17857 143.58372 C 151.13886 143.58372 152.37353 144.6812 152.78508 145.91587 C 153.33382 147.28772 154.84286 149.89423 156.2147 151.67763 C 158.82122 155.10725 158.40966 160.59465 155.11723 164.16146 C 153.471 165.80768 152.6479 165.80768 148.66954 163.61272 C 146.3374 162.10368 141.94747 159.08562 139.0666 156.89066 C 134.95104 153.7354 133.44201 153.18667 132.6189 154.55852 C 131.93298 155.656 128.22898 156.4791 123.42751 156.75347 C 117.66575 157.16503 116.43108 156.89066 118.90041 156.06755 C 121.91848 154.97007 121.64411 154.83288 116.43108 154.6957 C 108.33717 154.55852 103.5357 149.75704 104.08444 142.48624 C 104.35881 138.50788 105.04474 137.4104 107.2397 137.4104 C 108.74873 137.4104 110.8065 136.86166 111.7668 136.31292 C 114.09894 134.80389 113.82457 132.19738 111.35524 133.15767 C 110.12058 133.56922 109.29747 133.15767 109.29747 131.923 C 109.29747 129.3165 116.43108 129.1793 120.27226 131.51145 C 123.01596 133.29485 125.21092 132.33456 123.83907 130.1396 C 122.6044 128.08183 112.86427 126.70998 107.92562 127.80746 C 104.77037 128.49338 103.81007 129.3165 104.35881 130.82553 C 105.3191 133.29485 102.71259 136.99885 100.92919 135.90137 C 98.59704 134.52952 99.69452 127.53309 102.57541 124.92658 C 104.22163 123.55473 106.00503 120.94821 106.69095 119.16481 C 107.51406 117.10704 109.0231 116.14674 111.35524 116.14674 C 113.27583 116.14674 114.78486 115.46082 114.78486 114.77489 C 114.78486 113.95178 113.27583 113.40304 111.35524 113.40304 C 106.55377 113.40304 107.10251 110.79653 112.04117 109.83624 C 116.15671 109.01313 126.3084 99.13581 127.68024 94.47153 C 128.22898 92.68812 129.8752 92.0022 133.44201 92.0022 C 138.51785 92.0022 140.85 89.94442 140.85 85.55451 C 140.85 82.81081 137.55756 83.08518 137.28319 85.69169 C 136.87163 88.98413 136.73445 89.2585 135.49978 88.02384 C 134.95104 87.20073 133.99075 85.00577 133.44201 82.81081 C 132.6189 79.244 132.75609 79.10682 136.04852 79.92993 C 140.02689 80.89022 140.43844 79.65556 137.28319 75.26564 C 134.53949 71.28728 136.59726 71.42446 140.57563 75.54001 C 142.49621 77.73497 144.55399 78.55808 146.3374 78.14652 C 149.49264 77.32341 150.04138 80.34148 147.43487 82.94799 C 146.06302 84.31984 146.06302 85.00577 147.70924 85.96606 C 150.04138 87.33791 153.19664 85.28014 153.19664 82.39925 C 153.19664 81.30178 154.15693 80.47867 155.25441 80.47867 C 156.35189 80.47867 157.31218 79.92993 157.31218 79.244 C 157.31218 77.18623 154.84286 76.08875 153.88256 77.73497 C 152.6479 79.79274 150.45294 78.00934 150.45294 74.854085 C 150.45294 72.9335 151.41323 72.24757 154.4313 72.24757 C 156.62626 72.24757 158.68403 71.42446 159.09559 70.46417 C 159.50714 69.2295 160.7418 69.36669 164.17143 71.15009 C 169.52164 74.16816 171.57941 74.305345 170.48194 71.56165 C 170.07038 70.46417 170.34475 69.50387 171.16786 69.50387 C 171.85378 69.50387 172.81408 70.46417 173.22563 71.56165 C 174.4603 74.44253 184.20043 74.16816 190.23656 71.01291 C 196.2727 67.857654 197.64455 67.583285 196.68425 70.05261 Z"/>
            </g>
            <g>
               <path d="M 94.75587 73.20787 C 104.63318 73.482236 108.19999 74.16816 114.23612 77.04904 C 121.64411 80.61585 122.05566 81.30178 123.70188 90.35598 C 124.52499 95.569 122.74159 97.62678 121.09537 93.37405 C 120.40944 91.59064 119.8607 91.45346 118.21449 92.82531 C 116.15671 94.47153 113.41301 93.64842 113.41301 91.17909 C 113.41301 90.49316 114.37331 90.08161 115.47079 90.63035 C 117.117 91.17909 117.39138 90.63035 116.70545 87.61228 C 115.47079 82.53644 113.5502 80.47867 110.12058 80.47867 C 108.61154 80.47867 106.00503 79.51837 104.63318 78.42089 C 101.06637 75.81438 97.63675 75.81438 94.89305 78.55808 C 93.5212 80.06711 92.14935 80.34148 91.05187 79.38119 C 87.34788 76.5003 81.58612 76.08875 79.66553 78.69526 C 77.47057 81.576145 77.1962 86.78917 79.11679 88.02384 C 79.9399 88.57258 80.48864 90.90472 80.35145 93.23686 C 80.35145 95.70619 80.62582 99.82174 81.17456 102.42825 C 82.82078 112.0312 76.64746 113.40304 72.80628 104.34884 C 71.29725 100.78203 71.02288 97.62678 71.7088 93.64842 C 72.25754 90.63035 72.53191 86.37762 72.39473 84.31984 C 72.25754 82.26207 73.21784 79.51837 74.72687 78.00934 C 76.09872 76.63749 77.74494 74.44253 78.15649 73.07068 C 78.70523 71.56165 79.66553 71.15009 80.76301 71.83602 C 81.7233 72.38476 88.03381 73.07068 94.75587 73.20787 Z"/>
            </g>
            <g>
               <path d="M 285.85444 76.63749 C 286.67755 77.59778 288.73532 82.94799 290.38154 88.57258 C 293.81117 99.82174 293.67398 107.91565 289.69562 113.8146 C 286.67755 118.47888 284.89415 117.3814 284.89415 111.20808 C 284.89415 108.46439 284.20822 105.03476 283.3851 103.52573 C 282.28763 101.46796 282.28763 99.95892 283.5223 97.62678 C 284.89415 95.02027 284.75696 93.92279 282.83637 90.90472 C 280.9158 88.02384 280.7786 86.65199 282.01326 83.08518 L 283.5223 78.69526 L 276.38868 79.38119 C 272.41032 79.79274 268.1576 79.51837 266.92292 78.69526 C 263.08175 76.36312 251.5582 82.94799 249.912 88.43539 C 248.54015 93.09968 245.93363 94.19716 244.56178 90.76753 C 244.15023 89.67005 242.91557 88.70976 241.6809 88.70976 C 239.34876 88.70976 238.80002 83.90829 240.99498 82.53644 C 241.8181 82.12488 242.36683 82.39925 242.36683 83.08518 C 242.36683 83.90829 243.6015 84.59421 245.11052 84.59421 C 246.61956 84.59421 247.85422 84.04547 247.85422 83.35955 C 247.85422 82.53644 250.46074 80.47867 253.75317 78.55808 C 258.829 75.40282 261.02397 74.99127 271.99877 74.99127 C 280.36705 74.99127 285.03133 75.54001 285.85444 76.63749 Z"/>
            </g>
            <g>
               <path d="M 92.56091 85.96606 C 92.97246 87.06354 91.87498 86.78917 89.68003 85.14295 C 87.62225 83.7711 85.97603 81.9877 85.97603 81.30178 C 85.97603 79.65556 91.87498 83.7711 92.56091 85.96606 Z"/>
            </g>
            <g>
               <path d="M 231.25485 84.7314 C 228.64834 86.37762 227.9624 85.00577 230.15737 82.39925 C 231.39203 80.89022 232.07796 80.61585 232.4895 81.85051 C 232.90107 82.81081 232.21514 84.04547 231.25485 84.7314 Z"/>
            </g>
            <g>
               <path d="M 107.92562 85.28014 C 112.31554 89.94442 110.8065 90.35598 106.00503 85.69169 C 103.81007 83.49673 102.71259 81.85051 103.39852 81.85051 C 104.08444 81.85051 106.14221 83.35955 107.92562 85.28014 Z"/>
            </g>
            <g>
               <path d="M 104.22163 88.98413 C 106.96532 92.0022 109.16028 95.15745 109.0231 95.84338 C 108.74873 96.39211 106.00503 93.7856 102.71259 90.08161 C 95.57898 81.85051 96.81364 80.89022 104.22163 88.98413 Z"/>
            </g>
            <g>
               <path d="M 86.93633 89.80724 C 88.03381 92.41375 88.17099 94.19716 87.34788 94.19716 C 86.66196 94.19716 85.97603 93.09968 85.97603 91.86501 C 85.97603 90.63035 84.87855 88.43539 83.64389 86.92636 C 81.7233 84.86858 81.7233 84.31984 83.232335 84.86858 C 84.32981 85.14295 85.97603 87.4751 86.93633 89.80724 Z"/>
            </g>
            <g>
               <path d="M 269.8038 85.96606 C 269.8038 86.65199 268.1576 87.33791 266.237 87.33791 C 264.04204 87.33791 261.29834 88.98413 258.69183 91.72783 C 255.81095 94.88308 254.71347 95.569 254.71347 93.92279 C 254.71347 91.17909 260.8868 86.5148 265.68826 85.55451 C 267.60885 85.28014 269.25507 84.86858 269.52944 84.7314 C 269.66662 84.7314 269.8038 85.14295 269.8038 85.96606 Z"/>
            </g>
            <g>
               <path d="M 98.32267 94.33434 C 98.32267 94.88308 97.63675 96.94085 96.81364 98.86144 C 94.75587 103.11418 92.56091 102.15388 93.65839 97.48959 C 94.20713 95.569 93.93276 94.19716 92.97246 94.19716 C 92.14935 94.19716 91.46343 93.23686 91.46343 92.13938 C 91.46343 90.49316 92.01217 90.35598 94.89305 91.72783 C 96.81364 92.55094 98.32267 93.7856 98.32267 94.33434 Z"/>
            </g>
            <g>
               <path d="M 275.2912 92.55094 C 275.2912 93.51123 265.68826 102.29107 262.6702 103.93728 C 261.43553 104.62321 260.06368 104.62321 259.65212 103.93728 C 259.24057 103.38855 260.47523 102.15388 262.39582 101.19359 C 264.3164 100.37048 265.55108 99.13581 265.13952 98.44989 C 264.72797 97.76396 265.82545 96.80367 267.74603 96.39211 C 269.941 95.84338 271.17566 94.60871 271.17566 92.82531 C 271.17566 91.0419 271.86158 90.35598 273.23343 90.90472 C 274.3309 91.45346 275.2912 92.13938 275.2912 92.55094 Z"/>
            </g>
            <g>
               <path d="M 258.829 98.99863 C 257.0456 101.19359 253.34162 101.87951 253.34162 99.95892 C 253.34162 98.58707 259.1034 95.569 260.06368 96.39211 C 260.33805 96.66648 259.7893 97.76396 258.829 98.99863 Z"/>
            </g>
            <g>
               <path d="M 246.48237 102.42825 C 249.0889 104.7604 251.96977 106.5438 253.06725 106.5438 C 254.71347 106.5438 258.829 109.69905 258.829 111.0709 C 258.829 112.99149 250.04918 109.69905 247.44267 106.68098 C 245.79645 104.62321 243.32712 102.56544 241.95527 102.0167 C 239.62313 101.19359 238.66283 98.3127 240.7206 98.3127 C 241.26935 98.44989 243.87586 100.23329 246.48237 102.42825 Z"/>
            </g>
            <g>
               <path d="M 115.74516 103.11418 C 115.19642 104.21165 114.23612 105.17195 113.41301 105.17195 C 112.5899 105.17195 112.5899 104.21165 113.68738 102.42825 C 115.60797 99.41018 116.97982 99.82174 115.74516 103.11418 Z"/>
            </g>
            <g>
               <path d="M 276.66305 100.91922 C 276.66305 101.60514 275.70276 102.42825 274.74246 102.8398 C 273.3706 103.38855 272.95906 102.97699 273.5078 101.60514 C 274.3309 99.54737 276.66305 98.99863 276.66305 100.91922 Z"/>
            </g>
            <g>
               <path d="M 98.32267 104.34884 C 98.32267 105.44632 85.70166 112.30556 85.15292 111.61964 C 84.74137 111.20808 87.07351 109.2875 90.36595 107.36691 C 95.99053 104.07447 98.32267 103.11418 98.32267 104.34884 Z"/>
            </g>
            <g>
               <path d="M 266.51137 110.24779 C 265.13952 111.61964 263.90486 109.56187 265.13952 107.77846 C 265.96263 106.26943 266.237 106.26943 266.78574 107.77846 C 267.0601 108.73876 266.92292 109.83624 266.51137 110.24779 Z"/>
            </g>
            <g>
               <path d="M 269.11788 114.77489 C 268.70633 115.46082 267.60885 116.14674 266.92292 116.14674 C 266.0998 116.14674 265.96263 115.46082 266.3742 114.77489 C 266.78574 113.95178 267.88322 113.40304 268.56914 113.40304 C 269.39225 113.40304 269.52944 113.95178 269.11788 114.77489 Z"/>
            </g>
            <g>
               <path d="M 278.0349 116.14674 C 278.0349 116.83267 277.34898 117.51859 276.52587 117.51859 C 275.83994 117.51859 275.56557 116.83267 275.97713 116.14674 C 276.38868 115.32363 277.0746 114.77489 277.48616 114.77489 C 277.76053 114.77489 278.0349 115.32363 278.0349 116.14674 Z"/>
            </g>
            <g>
               <path d="M 81.44893 129.3165 C 81.03738 129.72805 79.80271 129.86523 78.84242 129.45368 C 77.74494 129.04212 78.15649 128.63057 79.66553 128.63057 C 81.17456 128.49338 81.99767 128.90494 81.44893 129.3165 Z"/>
            </g>
            <g>
               <path d="M 275.01683 131.64864 C 275.2912 133.02048 274.60528 133.98078 273.3706 133.98078 C 270.9013 133.98078 269.39225 131.78582 270.48973 129.72805 C 271.7244 127.80746 274.4681 128.90494 275.01683 131.64864 Z"/>
            </g>
            <g>
               <path d="M 282.15045 134.6667 C 282.15045 135.76418 281.6017 136.72448 280.7786 136.72448 C 280.09268 136.72448 279.8183 135.76418 280.22986 134.6667 C 280.7786 133.56922 281.32734 132.60893 281.6017 132.60893 C 281.87608 132.60893 282.15045 133.56922 282.15045 134.6667 Z"/>
            </g>
            <g>
               <path d="M 291.34184 134.6667 C 292.30213 137.4104 291.34184 138.3707 288.59814 137.27322 C 287.36348 136.86166 286.81474 135.627 287.2263 134.52952 C 288.1866 131.923 290.24436 132.06019 291.34184 134.6667 Z"/>
            </g>
            <g>
               <path d="M 276.66305 138.64507 C 276.66305 139.74255 274.60528 141.38876 272.27314 142.21187 L 267.74603 143.8581 L 271.17566 144.95557 L 274.60528 145.91587 L 270.7641 147.56208 C 268.56914 148.3852 266.64855 149.07112 266.237 149.07112 C 264.72797 149.07112 265.96263 143.7209 267.74603 142.21187 C 268.8435 141.25158 269.8038 139.60536 269.8038 138.64507 C 269.8038 137.54759 271.17566 136.72448 273.23343 136.72448 C 275.2912 136.72448 276.66305 137.54759 276.66305 138.64507 Z"/>
            </g>
            <g>
               <path d="M 284.20822 142.07469 C 283.79667 142.8978 282.6992 143.58372 281.87608 143.58372 C 281.05297 143.58372 281.05297 142.76061 282.15045 141.52595 C 284.07104 139.1938 285.71726 139.74255 284.20822 142.07469 Z"/>
            </g>
            <g>
               <path d="M 290.9303 143.03498 C 292.4393 146.73898 291.89058 148.11082 289.69562 146.32742 C 287.50066 144.40683 286.95192 140.84002 288.8725 140.84002 C 289.55843 140.84002 290.51873 141.80032 290.9303 143.03498 Z"/>
            </g>
            <g>
               <path d="M 207.2475 147.01335 C 206.42438 149.2083 203.95505 149.89423 203.95505 147.97364 C 203.95505 146.4646 205.46409 144.95557 206.83594 144.95557 C 207.52186 144.95557 207.65904 145.91587 207.2475 147.01335 Z"/>
            </g>
            <g>
               <path d="M 289.0097 151.1289 C 291.47902 154.14696 290.24436 154.83288 285.1685 152.9123 C 281.05297 151.26608 279.68112 149.2083 281.6017 147.28772 C 282.6992 146.19024 286.54037 148.24801 289.0097 151.1289 Z"/>
            </g>
            <g>
               <path d="M 278.0349 150.30578 C 278.0349 150.9917 275.56557 151.81482 272.5475 152.36356 C 264.4536 153.59822 265.55108 156.61629 274.19372 156.61629 C 282.15045 156.61629 284.3454 158.94843 278.44646 161.1434 L 274.60528 162.51524 L 278.44646 162.65242 C 285.85444 162.9268 295.59457 169.92322 291.7534 172.39255 C 290.38154 173.21566 290.6559 174.31314 292.98806 177.74276 C 294.63428 180.0749 295.73175 183.09298 295.4574 184.46482 C 295.04583 186.11104 294.77146 185.83667 294.63428 183.50453 C 294.4971 180.76083 294.22272 180.62365 292.4393 181.9955 C 289.97 184.05327 289.69562 187.07134 292.16495 187.89445 C 295.4574 188.99193 290.24436 192.9703 285.4429 192.9703 C 282.83637 192.9703 280.7786 193.51903 280.7786 194.34214 C 280.7786 195.02806 281.7389 195.71399 282.83637 195.71399 C 283.93385 195.71399 284.89415 196.67428 284.89415 197.77176 C 284.89415 199.00642 286.1288 199.82953 288.32377 199.82953 C 292.85087 199.82953 292.7137 202.8476 287.77503 207.64907 C 284.75696 210.66714 283.79667 212.99929 283.79667 216.84046 C 283.79667 222.8766 281.32734 226.4434 279.9555 222.32786 C 279.54394 220.956 278.44646 218.3495 277.62335 216.5661 C 276.52587 214.37113 276.52587 213.13647 277.76053 211.9018 C 281.7389 207.92344 277.48616 199.82953 271.86158 200.78983 C 267.88322 201.61294 267.1973 203.94508 271.03847 203.94508 C 274.60528 203.94508 277.0746 207.3747 275.97713 210.80433 C 275.4284 212.45055 273.91935 213.54802 271.86158 213.54802 C 269.8038 213.54802 268.43196 214.50832 267.88322 216.5661 C 267.47166 218.3495 267.74603 219.85853 268.43196 220.1329 C 269.25507 220.40727 269.8038 221.9163 269.8038 223.42534 C 269.8038 225.4831 269.25507 225.89467 267.47166 225.20874 C 262.80738 223.28815 259.1034 222.8766 258.28028 224.24845 C 255.94813 227.95244 237.70254 220.27009 238.66283 216.15454 C 238.80002 215.33143 236.46788 213.6852 233.4498 212.72492 C 228.0996 210.80433 220.00569 203.53353 221.51472 202.0245 C 221.92628 201.61294 223.29812 201.20138 224.66997 201.20138 C 226.04182 201.20138 227.55086 200.51546 228.0996 199.69235 C 228.64834 198.59487 226.86493 198.3205 222.33783 198.59487 L 215.61577 199.1436 L 215.89014 193.93058 C 216.1645 190.2266 215.61577 188.85474 214.24392 188.85474 C 213.14644 188.85474 212.18615 188.16882 212.18615 187.4829 C 212.18615 186.65978 213.28363 186.11104 214.79266 186.11104 C 216.1645 186.11104 218.9082 184.602 220.96598 182.68142 C 225.3559 178.70306 226.86493 178.42869 230.29455 181.44676 C 231.6664 182.8186 235.78195 184.05327 239.48594 184.46482 C 245.3849 185.01356 246.75674 184.602 249.7748 181.58394 C 252.6557 178.70306 253.34162 176.64529 253.34162 171.15789 C 253.34162 165.80768 253.89036 164.16146 255.81095 163.7499 C 257.1828 163.33835 256.63406 163.06398 254.4391 162.9268 C 252.24414 162.9268 250.59792 162.24087 250.59792 161.55495 C 250.59792 159.08562 256.49687 155.93036 259.7893 156.75347 C 261.7099 157.30221 262.94456 157.02784 262.94456 156.06755 C 262.94456 155.24444 265.00234 153.32385 267.47166 151.81482 C 271.99877 149.07112 278.0349 148.11082 278.0349 150.30578 Z"/>
            </g>
            <g>
               <path d="M 299.29856 158.53688 C 298.47545 159.2228 295.86894 157.16503 295.86894 155.79318 C 295.86894 155.10725 296.69205 155.24444 297.78953 156.20473 C 298.887 157.16503 299.43575 158.2625 299.29856 158.53688 Z"/>
            </g>
            <g>
               <path d="M 111.35524 158.67406 C 111.90398 159.49717 111.90398 161.1434 111.49243 162.37805 C 110.66932 164.29864 110.25776 164.29864 107.92562 162.10368 C 106.41658 160.73184 105.18192 159.08562 105.18192 158.3997 C 105.18192 156.75347 110.39495 157.02784 111.35524 158.67406 Z"/>
            </g>
            <g>
               <path d="M 291.06747 161.41776 C 291.47902 162.10368 291.34184 162.7896 290.51873 162.7896 C 289.8328 162.7896 288.73532 162.10368 288.32377 161.41776 C 287.9122 160.59465 288.0494 160.04591 288.8725 160.04591 C 289.55843 160.04591 290.6559 160.59465 291.06747 161.41776 Z"/>
            </g>
            <g>
               <path d="M 140.85 170.0604 C 140.85 173.7644 137.28319 180.76083 134.95104 181.44676 C 131.38424 182.54424 125.62247 180.89802 123.42751 178.15432 C 119.58634 172.9413 123.01596 164.7102 129.8752 162.51524 C 132.20735 161.82932 140.85 167.72827 140.85 170.0604 Z"/>
            </g>
            <g>
               <path d="M 246.208 166.90516 C 247.85422 168.55138 249.22607 171.43226 249.22607 173.49003 C 249.0889 182.68142 239.7603 185.15075 233.587 177.74276 C 229.33426 172.66692 229.19708 171.0207 232.76388 167.17953 C 236.3307 163.33835 242.22964 163.33835 246.208 166.90516 Z"/>
            </g>
            <g>
               <path d="M 68.55355 171.70663 C 64.84956 174.45033 62.92897 171.70663 66.08422 168.277 C 68.416365 165.6705 68.82792 165.6705 69.9254 167.59108 C 70.74851 169.2373 70.47414 170.33478 68.55355 171.70663 Z"/>
            </g>
            <g>
               <path d="M 212.18615 170.47196 C 212.18615 171.56944 211.6374 172.11818 210.8143 171.70663 C 210.12837 171.29507 209.44245 170.33478 209.44245 169.51167 C 209.44245 168.82575 210.12837 168.277 210.8143 168.277 C 211.6374 168.277 212.18615 169.2373 212.18615 170.47196 Z"/>
            </g>
            <g>
               <path d="M 223.70968 173.90159 C 220.96598 178.56587 217.67354 180.62365 217.67354 177.74276 C 217.67354 175.685 224.66997 168.00264 225.63027 168.96293 C 225.90464 169.2373 225.08153 171.56944 223.70968 173.90159 Z"/>
            </g>
            <g>
               <path d="M 152.37353 175.41062 C 151.96197 175.95936 150.17857 176.5081 148.25798 176.5081 C 145.65147 176.5081 144.96554 175.82218 144.96554 172.9413 L 144.96554 169.51167 L 148.9439 171.84381 C 151.27605 173.21566 152.78508 174.7247 152.37353 175.41062 Z"/>
            </g>
            <g>
               <path d="M 301.21915 201.20138 C 302.7282 205.72849 300.94478 206.82596 298.61264 202.71042 C 296.96642 199.41798 296.82923 197.08584 298.47545 197.08584 C 299.16138 197.08584 300.39604 198.86924 301.21915 201.20138 Z"/>
            </g>
            <g>
               <path d="M 78.15649 206.27722 C 78.56805 206.96315 78.01931 209.1581 77.1962 211.49025 L 75.412795 215.6058 L 74.86406 210.39277 C 74.31532 206.96315 74.72687 205.31693 75.82435 205.31693 C 76.78464 205.31693 77.88212 205.72849 78.15649 206.27722 Z"/>
            </g>
            <g>
               <path d="M 273.23343 217.66357 C 273.645 218.3495 273.5078 219.03542 272.6847 219.03542 C 271.99877 219.03542 270.9013 218.3495 270.48973 217.66357 C 270.07818 216.84046 270.21536 216.29172 271.03847 216.29172 C 271.7244 216.29172 272.82188 216.84046 273.23343 217.66357 Z"/>
            </g>
            <g>
               <path d="M 91.46343 222.32786 C 91.46343 225.20874 87.89662 229.04992 86.2504 228.08962 C 84.60418 227.12933 84.05544 221.50475 85.42729 220.1329 C 86.66196 218.76105 91.46343 220.54446 91.46343 222.32786 Z"/>
            </g>
            <g>
               <path d="M 267.0601 229.46147 C 267.0601 230.69614 266.3742 231.38206 265.4139 231.1077 C 262.94456 230.28458 262.533 227.26652 264.86515 227.26652 C 266.0998 227.26652 267.0601 228.2268 267.0601 229.46147 Z"/>
            </g>
            <g>
               <path d="M 276.38868 229.73584 C 277.2118 232.20517 274.3309 231.65643 273.3706 229.1871 C 272.82188 227.81526 273.23343 227.26652 274.19372 227.54089 C 275.01683 227.81526 276.1143 228.91273 276.38868 229.73584 Z"/>
            </g>
            <g>
               <path d="M 286.95192 231.65643 C 286.40318 234.12576 285.3057 236.73227 284.61978 237.55538 C 283.65948 238.51568 283.3851 237.82975 284.07104 235.4976 C 284.4826 233.57702 284.89415 230.9705 284.89415 229.59866 C 284.89415 228.364 285.58007 227.26652 286.40318 227.26652 C 287.36348 227.26652 287.50066 228.91273 286.95192 231.65643 Z"/>
            </g>
            <g>
               <path d="M 114.09894 230.28458 C 114.37331 230.42177 114.23612 232.34236 113.82457 234.40013 C 113.00146 238.79005 109.29747 239.61316 109.29747 235.6348 C 109.29747 233.98858 108.19999 232.7539 106.2794 232.47954 C 104.63318 232.20517 102.98696 231.24488 102.71259 230.1474 C 102.16385 228.63836 103.26133 228.364 107.78843 229.04992 C 111.08087 229.46147 113.82457 230.0102 114.09894 230.28458 Z"/>
            </g>
            <g>
               <path d="M 282.15045 232.61673 C 281.46452 234.12576 280.09268 235.77198 279.13238 236.32072 C 278.30927 236.86946 277.89772 236.73227 278.30927 236.04635 C 278.72083 235.36042 279.40675 233.7142 279.8183 232.34236 C 280.36705 231.1077 281.32734 230.0102 282.15045 230.0102 C 283.24793 230.0102 283.24793 230.83332 282.15045 232.61673 Z"/>
            </g>
            <g>
               <path d="M 260.7496 233.16547 C 262.25864 234.26295 263.08175 235.77198 262.80738 236.5951 C 262.533 237.4182 260.61242 236.5951 258.41746 234.6745 C 254.4391 231.24488 256.3597 230.0102 260.7496 233.16547 Z"/>
            </g>
            <g>
               <path d="M 270.62692 236.32072 C 270.21536 237.4182 269.25507 237.96694 268.43196 237.55538 C 267.47166 237.00664 267.60885 235.6348 268.70633 233.7142 C 270.35255 230.42177 271.99877 232.61673 270.62692 236.32072 Z"/>
            </g>
            <g>
               <path d="M 256.08532 236.86946 C 256.08532 237.55538 255.53658 238.2413 254.85065 238.2413 C 254.02754 238.2413 253.06725 237.55538 252.6557 236.86946 C 252.24414 236.04635 252.79288 235.4976 253.89036 235.4976 C 255.12502 235.4976 256.08532 236.04635 256.08532 236.86946 Z"/>
            </g>
            <g>
               <path d="M 135.3626 240.57345 C 135.3626 241.53375 134.53949 242.63122 133.71638 242.9056 C 132.75609 243.17996 128.64054 244.5518 124.52499 245.78648 C 120.54663 247.02114 117.117 247.84425 116.84264 247.56988 C 116.70545 247.2955 116.01953 245.78648 115.60797 244.00307 C 114.37331 240.1619 118.0773 238.51568 128.22898 238.51568 C 133.44201 238.65286 135.3626 239.06442 135.3626 240.57345 Z"/>
            </g>
            <g>
               <path d="M 258.1431 242.7684 C 258.1431 246.33522 255.3994 246.19803 254.98784 242.49404 C 254.57628 240.29908 255.12502 239.47597 256.3597 239.88753 C 257.31998 240.29908 258.1431 241.53375 258.1431 242.7684 Z"/>
            </g>
            <g>
               <path d="M 100.38045 242.35686 C 100.792 243.04278 100.51763 243.7287 99.83171 243.7287 C 99.0086 243.7287 98.32267 243.04278 98.32267 242.35686 C 98.32267 241.53375 98.59704 240.985 98.87141 240.985 C 99.28297 240.985 99.96889 241.53375 100.38045 242.35686 Z"/>
            </g>
            <g>
               <path d="M 108.61154 242.49404 C 110.25776 245.10055 107.92562 245.6493 105.59347 243.31715 C 103.39852 241.1222 103.39852 240.985 105.45629 240.985 C 106.69095 240.985 108.19999 241.67093 108.61154 242.49404 Z"/>
            </g>
            <g>
               <path d="M 266.51137 247.15833 C 268.43196 248.94173 268.29477 249.2161 265.82545 249.2161 C 262.94456 249.2161 261.02397 247.4327 262.533 245.92366 C 263.76767 244.689 264.3164 244.82618 266.51137 247.15833 Z"/>
            </g>
            <g>
               <path d="M 101.7523 247.98144 C 104.496 247.98144 104.496 247.98144 101.7523 250.0392 C 98.18549 252.64572 93.65839 251.9598 93.10965 248.66736 C 92.69809 246.4724 93.10965 246.19803 95.71616 247.02114 C 97.49957 247.56988 100.24326 248.11862 101.7523 247.98144 Z"/>
            </g>
            <g>
               <path d="M 262.94456 251.68543 C 262.94456 255.25224 257.0456 260.46526 254.3019 259.36778 C 251.83258 258.4075 251.5582 257.4472 252.79288 254.15476 C 253.20443 253.05728 254.3019 252.37135 255.3994 252.7829 C 256.3597 253.19446 257.45717 252.50854 257.86872 251.41106 C 259.1034 248.393 262.94456 248.66736 262.94456 251.68543 Z"/>
            </g>
            <g>
               <path d="M 109.29747 252.64572 C 111.21806 254.84068 109.98339 260.0537 108.0628 257.99593 C 106.14221 255.93816 104.90755 250.58795 106.2794 250.58795 C 106.96532 250.58795 108.33717 251.54824 109.29747 252.64572 Z"/>
            </g>
            <g>
               <path d="M 275.70276 254.7035 C 274.3309 256.21253 272.82188 257.4472 272.27314 257.4472 C 271.5872 257.4472 271.86158 256.21253 272.82188 254.7035 C 273.78217 253.19446 275.2912 251.9598 276.2515 251.9598 C 277.48616 251.9598 277.2118 252.7829 275.70276 254.7035 Z"/>
            </g>
            <g>
               <path d="M 103.81007 256.89846 C 103.81007 257.99593 103.26133 258.54467 102.43822 258.13312 C 101.7523 257.72156 101.06637 256.76127 101.06637 255.93816 C 101.06637 255.25224 101.7523 254.7035 102.43822 254.7035 C 103.26133 254.7035 103.81007 255.6638 103.81007 256.89846 Z"/>
            </g>
            <g>
               <path d="M 118.90041 258.81904 C 120.40944 259.77934 120.54663 260.46526 119.31197 261.69993 C 118.21449 262.7974 117.39138 262.52304 116.2939 260.32808 C 114.64768 257.31 115.60797 256.6241 118.90041 258.81904 Z"/>
            </g>
            <g>
               <path d="M 128.50335 258.68186 C 128.50335 259.50497 127.95461 260.46526 127.1315 260.87682 C 126.44558 261.28837 125.75966 260.73963 125.75966 259.64215 C 125.75966 258.4075 126.44558 257.4472 127.1315 257.4472 C 127.95461 257.4472 128.50335 257.99593 128.50335 258.68186 Z"/>
            </g>
            <g>
               <path d="M 243.4643 260.0537 C 244.83615 260.87682 244.97334 261.8371 243.6015 264.718 C 241.26935 269.93102 239.62313 269.38228 240.03468 263.6205 C 240.30905 258.54467 240.58342 258.2703 243.4643 260.0537 Z"/>
            </g>
            <g>
               <path d="M 182.96576 263.20896 C 182.5542 264.30644 182.14265 263.8949 182.14265 262.38585 C 182.00547 260.87682 182.41702 260.0537 182.82858 260.60245 C 183.24013 261.014 183.37732 262.24867 182.96576 263.20896 Z"/>
            </g>
            <g>
               <path d="M 191.19686 263.20896 C 190.7853 264.30644 190.37375 263.8949 190.37375 262.38585 C 190.23656 260.87682 190.64812 260.0537 191.05967 260.60245 C 191.47123 261.014 191.6084 262.24867 191.19686 263.20896 Z"/>
            </g>
            <g>
               <path d="M 252.5185 264.5808 C 252.10695 265.5411 250.18637 267.59888 248.1286 268.97073 C 244.4246 271.57724 244.4246 271.57724 248.40296 267.3245 C 252.79288 262.52304 253.616 262.11148 252.5185 264.5808 Z"/>
            </g>
            <g>
               <path d="M 132.6189 267.18732 C 132.6189 267.87325 132.07016 268.422 131.24705 268.422 C 130.56113 268.422 129.8752 267.4617 129.8752 266.22703 C 129.8752 265.12955 130.56113 264.5808 131.24705 264.99236 C 132.07016 265.40392 132.6189 266.3642 132.6189 267.18732 Z"/>
            </g>
            <g>
               <path d="M 227.2765 270.2054 C 227.2765 272.40035 226.72775 273.7722 225.90464 273.22346 C 225.2187 272.8119 224.5328 271.44006 224.5328 270.34258 C 224.5328 269.2451 223.98405 268.422 223.16094 268.422 C 222.47501 268.422 221.7891 267.87325 221.7891 267.3245 C 221.7891 266.77577 223.02375 266.22703 224.5328 266.22703 C 226.59056 266.22703 227.2765 267.18732 227.2765 270.2054 Z"/>
            </g>
            <g>
               <path d="M 199.8395 269.93102 C 203.26913 270.75413 206.97312 272.67472 208.34497 274.32094 C 210.12837 276.5159 210.95148 276.92745 212.46052 275.5556 C 213.96955 274.32094 214.92984 274.86968 216.85043 278.02493 C 218.35947 280.76863 220.28006 282.14048 222.47501 282.14048 C 224.25842 282.14048 226.72775 283.10077 227.9624 284.33544 C 229.60863 285.98166 230.56892 286.11884 231.94077 285.02136 C 233.31262 283.92388 234.13573 283.7867 234.82166 284.747 C 235.2332 285.5701 234.13573 286.94195 232.07796 287.90224 C 229.0599 289.2741 227.9624 288.99972 224.5328 286.5304 C 222.33783 284.88418 219.73132 283.51233 218.77102 283.51233 C 215.75295 283.51233 205.3269 277.4762 205.3269 275.6928 C 205.3269 274.7325 203.95505 273.90938 202.30883 273.90938 C 200.52543 273.7722 196.13551 273.635 192.29434 273.36064 C 184.61198 272.67472 176.38089 275.00686 175.4206 277.88775 C 174.87185 279.39678 175.4206 279.53396 177.34118 278.57367 C 178.85021 278.02493 185.02354 277.20182 191.33404 276.92745 C 199.9767 276.5159 202.5832 276.92745 202.7204 278.2993 C 202.7204 280.35707 217.67354 290.37157 220.8288 290.37157 C 224.3956 290.37157 231.8036 294.07556 230.29455 295.03586 C 229.47145 295.5846 227.55086 295.17304 226.179 294.34993 C 223.98405 292.9781 223.02375 293.11527 220.28006 295.5846 C 218.63384 297.2308 216.1645 298.60267 214.79266 298.60267 C 213.558 298.60267 212.18615 299.83733 211.7746 301.48355 C 211.36304 303.12977 210.40274 303.95288 209.57963 303.54132 C 208.61934 302.9926 208.61934 301.48355 209.44245 299.2886 C 210.26556 297.2308 210.26556 295.5846 209.30526 295.17304 C 208.61934 294.6243 207.38468 296.27052 206.56157 298.60267 C 205.73846 300.9348 204.77816 302.58103 204.5038 302.30666 C 204.09224 302.0323 204.5038 299.9745 205.3269 297.91674 C 206.2872 295.5846 206.2872 293.52683 205.60127 292.8409 C 204.77816 292.0178 203.68068 293.38964 202.5832 296.13334 C 201.6229 298.60267 200.66261 299.9745 200.25106 299.01422 C 199.9767 298.1911 200.66261 295.4474 202.03446 292.9781 C 203.5435 289.82283 203.81787 288.3138 202.7204 287.90224 C 201.89728 287.62787 201.21135 286.5304 201.21135 285.4329 C 201.21135 284.33544 200.66261 283.51233 199.8395 283.51233 C 199.15358 283.51233 198.46766 284.747 198.46766 286.11884 C 198.46766 287.62787 197.91892 289.2741 197.0958 289.68565 C 196.40988 290.0972 195.72396 291.19468 195.72396 292.0178 C 195.72396 292.9781 196.54707 292.8409 197.78173 291.74342 C 200.52543 289.54846 200.38824 291.0575 197.64455 295.85897 C 194.62648 300.79763 195.58677 303.12977 201.7601 306.01065 C 206.97312 308.47998 208.8937 313.14427 204.09224 311.63523 C 199.70232 310.2634 194.21492 312.45834 191.6084 316.71107 C 189.0019 320.9638 186.66975 319.86633 188.17879 315.20204 C 189.55064 310.81212 185.98383 310.1262 182.41702 314.24175 C 179.8105 317.2598 178.85021 317.67137 176.51807 316.4367 C 175.00904 315.6136 172.81408 313.14427 171.7166 310.9493 C 169.38446 306.5594 166.91513 305.4619 166.91513 308.89153 C 166.91513 312.8699 163.89706 310.81212 161.7021 305.32473 C 159.9187 300.66044 159.09559 299.9745 156.48907 300.52326 C 154.56849 301.072 152.51071 300.52326 151.13886 299.1514 C 150.04138 297.91674 148.1208 297.2308 147.1605 297.64237 C 145.92584 298.1911 144.96554 297.09363 144.27962 294.89867 C 143.18214 290.50876 147.02332 284.33544 150.04138 285.4329 C 151.27605 285.98166 153.6082 284.88418 155.66597 282.8264 C 157.44937 280.9058 159.9187 279.39678 160.879 279.39678 C 161.83929 279.39678 163.34832 278.1621 164.17143 276.65308 C 166.09202 272.9491 164.99454 273.22346 158.27248 277.75056 C 155.11723 279.80833 151.00168 282.27766 149.08109 283.23796 C 147.1605 284.06107 144.14243 285.98166 142.22184 287.4907 C 140.30126 288.99972 137.42037 290.50876 135.77415 291.0575 C 133.16764 291.74342 132.6189 291.33187 132.6189 289.1369 C 132.6189 287.62787 133.30483 285.98166 134.12794 285.5701 C 134.95104 285.02136 135.3626 281.59174 135.22541 277.88775 C 134.81386 269.51947 135.91134 268.2848 138.79222 273.90938 C 140.57563 277.339 140.71281 279.1224 139.61533 282.27766 C 138.51785 285.4329 138.65504 286.25603 140.16407 286.25603 C 141.26155 286.25603 142.49621 285.7073 142.90777 284.88418 C 144.14243 282.8264 161.42773 273.08627 167.1895 271.30287 C 169.9332 270.34258 174.73467 269.65665 177.88992 269.51947 C 180.90799 269.51947 183.78887 268.97073 184.20043 268.2848 C 184.88635 267.05014 188.86471 267.59888 199.8395 269.93102 Z"/>
            </g>
            <g>
               <path d="M 211.7746 271.44006 C 211.36304 272.40035 211.08867 271.71443 211.08867 269.79384 C 211.08867 267.87325 211.36304 267.18732 211.7746 268.01043 C 212.04896 268.97073 212.04896 270.61695 211.7746 271.44006 Z"/>
            </g>
            <g>
               <path d="M 147.70924 271.71443 C 147.70924 274.45812 146.2002 278.02493 145.10273 278.02493 C 144.69117 278.02493 144.27962 276.10434 144.27962 273.90938 C 144.27962 271.57724 144.96554 269.79384 146.06302 269.79384 C 146.88613 269.79384 147.70924 270.61695 147.70924 271.71443 Z"/>
            </g>
            <g>
               <path d="M 152.78508 272.8119 C 152.37353 273.90938 151.96197 273.49783 151.96197 271.9888 C 151.82479 270.47976 152.23634 269.65665 152.6479 270.2054 C 153.05945 270.61695 153.19664 271.8516 152.78508 272.8119 Z"/>
            </g>
            <g>
               <path d="M 234.68447 274.86968 C 233.4498 279.67115 233.587 279.67115 230.98048 278.57367 C 228.9227 277.88775 228.9227 277.4762 231.11766 274.45812 C 234.27292 270.2054 235.78195 270.34258 234.68447 274.86968 Z"/>
            </g>
            <g>
               <path d="M 243.73868 272.12598 C 243.73868 272.8119 242.504 275.00686 240.99498 277.339 L 238.25128 281.45455 L 238.25128 277.88775 C 238.25128 275.96716 238.9372 273.7722 239.8975 272.8119 C 241.6809 271.0285 243.73868 270.61695 243.73868 272.12598 Z"/>
            </g>
            <g>
               <path d="M 148.53235 305.05036 C 147.1605 306.4222 145.92584 304.36443 147.1605 302.58103 C 147.98361 301.072 148.25798 301.072 148.80672 302.58103 C 149.08109 303.54132 148.9439 304.6388 148.53235 305.05036 Z"/>
            </g>
            <g>
               <path d="M 215.47858 304.776 C 214.92984 305.87347 213.558 306.83376 212.32333 306.83376 C 210.40274 306.69658 210.53993 306.4222 212.73489 304.776 C 216.1645 302.16947 216.43888 302.16947 215.47858 304.776 Z"/>
            </g>
            <g>
               <path d="M 176.79244 324.94217 C 175.69496 326.03965 175.55778 325.4909 176.10652 323.15876 C 176.65526 321.37536 177.204 320.68944 177.61555 321.7869 C 177.88992 322.7472 177.47837 324.25624 176.79244 324.94217 Z"/>
            </g>
            <g>
               <path d="M 189.41345 329.3321 C 188.86471 331.8014 189.27627 332.7617 191.19686 333.31045 C 193.25463 333.8592 193.25463 333.99637 190.7853 334.13356 C 187.90442 334.27074 186.12101 331.9386 186.12101 327.96024 C 186.12101 326.86276 187.0813 326.03965 188.17879 326.03965 C 189.68782 326.03965 190.09938 326.99994 189.41345 329.3321 Z"/>
            </g>
            <g>
               <g  id="outline-1">
                  <path
                        d="M 281.31665 252.69168 C 282.13976 253.3776 289.69562 256.76127 293.12524 258.13312 C 296.55486 259.50497 300.53323 261.69993 302.04226 262.9346 C 309.17588 268.69636 309.58743 268.83354 309.58743 266.77577 C 309.58743 265.6783 306.9809 263.34615 303.82566 261.69993 C 296.82923 257.85875 278.97066 250.62005 280.89125 252.26627 Z"
                        fill="black"/>
               </g>
            </g>
            <g>
               <g  id="outline-2">
                  <path
                        d="M 159.64433 77.32341 C 157.44937 79.38119 158.82122 83.22236 161.56492 83.22236 C 163.62269 83.22236 164.17143 82.67362 163.62269 81.02741 C 163.21114 79.79274 162.79958 78.28371 162.79958 77.59778 C 162.79958 76.08875 160.879 75.95156 159.64433 77.32341 Z"
                        fill="black"/>
               </g>
            </g>
            <g>
               <g  id="outline-3">
                  <path
                        d="M 182.00547 79.65556 C 182.00547 81.71333 185.16072 84.86858 186.94412 84.45703 C 189.41345 84.04547 192.29434 84.7314 194.3521 85.96606 C 196.13551 87.20073 195.86114 87.74947 192.98026 90.08161 C 187.90442 93.92279 190.92249 96.39211 197.0958 93.37405 C 201.34854 91.17909 201.48572 90.90472 199.15358 89.12131 C 196.68425 87.33791 196.68425 87.33791 199.29077 85.28014 C 201.6229 83.49673 201.6229 83.35955 199.56514 83.22236 C 198.19329 83.22236 197.0958 82.81081 197.0958 82.39925 C 197.0958 81.85051 198.19329 80.61585 199.56514 79.65556 C 201.6229 78.00934 201.07417 77.87215 195.72396 78.14652 C 192.29434 78.28371 188.86471 78.96963 187.90442 79.51837 C 187.0813 80.06711 185.98383 79.92993 185.4351 79.10682 C 184.20043 77.04904 182.00547 77.4606 182.00547 79.65556 Z"
                        fill="black"/>
               </g>
            </g>
            <g>
               <g  id="outline-4">
                  <path
                        d="M 204.64098 81.71333 C 204.22942 82.39925 204.5038 83.35955 205.3269 83.90829 C 206.01283 84.31984 206.69875 85.96606 206.69875 87.4751 C 206.69875 89.53287 207.2475 89.80724 209.16808 88.84695 C 210.40274 88.16102 212.5977 87.20073 213.96955 86.78917 C 216.02732 86.10325 216.1645 85.55451 214.92984 83.22236 C 213.4208 80.34148 206.15 79.38119 204.64098 81.71333 Z"
                        fill="black"/>
               </g>
            </g>
            <g>
               <g  id="outline-5">
                  <path
                        d="M 167.1895 87.33791 C 164.99454 90.76753 165.13172 91.45346 167.60105 91.45346 C 169.79601 91.45346 172.81408 86.78917 171.44223 85.41732 C 170.07038 84.04547 168.9729 84.45703 167.1895 87.33791 Z"
                        fill="black"/>
               </g>
            </g>
            <g>
               <g  id="outline-6">
                  <path
                        d="M 174.4603 95.15745 C 175.55778 102.8398 175.4206 102.70262 178.43866 101.60514 C 181.59391 100.37048 181.18236 93.92279 177.88992 91.0419 C 173.77437 87.61228 173.36282 88.02384 174.4603 95.15745 Z"
                        fill="black"/>
               </g>
            </g>
            <g>
               <g  id="outline-7">
                  <path
                        d="M 208.48215 92.13938 C 207.2475 95.569 208.75652 95.84338 211.50022 92.82531 C 213.83237 90.35598 213.83237 90.08161 211.6374 90.08161 C 210.40274 90.08161 209.0309 91.0419 208.48215 92.13938 Z"
                        fill="black"/>
               </g>
            </g>
            <g>
               <g  id="outline-8">
                  <path
                        d="M 216.3017 92.82531 C 216.3017 95.43182 217.81073 96.39211 219.45695 94.7459 C 220.55443 93.64842 219.0454 90.08161 217.53636 90.08161 C 216.85043 90.08161 216.3017 91.31627 216.3017 92.82531 Z"
                        fill="black"/>
               </g>
            </g>
            <g>
               <g  id="outline-9">
                  <path
                        d="M 161.7021 93.64842 C 161.97647 95.15745 163.21114 96.39211 164.72017 96.66648 C 166.50357 97.07804 167.05231 96.5293 166.64076 94.7459 C 166.36639 93.23686 165.13172 92.0022 163.62269 91.72783 C 161.83929 91.31627 161.29055 91.86501 161.7021 93.64842 Z"
                        fill="black"/>
               </g>
            </g>
            <g>
               <g  id="outline-10">
                  <path
                        d="M 223.16094 93.51123 C 223.16094 94.7459 223.84686 95.569 224.66997 95.29464 C 225.49308 95.02027 226.179 94.19716 226.179 93.51123 C 226.179 92.82531 225.49308 92.0022 224.66997 91.72783 C 223.84686 91.45346 223.16094 92.27657 223.16094 93.51123 Z"
                        fill="black"/>
               </g>
            </g>
            <g>
               <g  id="outline-11">
                  <path
                        d="M 139.47815 98.3127 C 139.47815 98.99863 138.24348 99.68455 136.59726 99.68455 C 135.08823 99.68455 134.26512 100.23329 134.67667 101.0564 C 135.08823 101.74233 137.28319 102.0167 139.47815 101.46796 C 144.00525 100.64485 144.55399 101.87951 141.6731 105.85787 C 140.57563 107.36691 140.02689 109.2875 140.43844 110.24779 C 140.98718 111.48245 139.8897 112.0312 137.28319 112.0312 C 130.69831 112.0312 128.77772 114.36334 134.81386 115.04926 C 139.34096 115.598 140.57563 115.04926 144.55399 110.93371 C 149.49264 105.85787 150.7273 99.273 146.88613 97.76396 C 143.5937 96.5293 139.47815 96.80367 139.47815 98.3127 Z"
                        fill="black"/>
               </g>
            </g>
            <g>
               <g  id="outline-12">
                  <path
                        d="M 162.79958 102.29107 C 162.79958 103.93728 163.62269 105.17195 164.72017 105.17195 C 165.81765 105.17195 167.60105 105.5835 168.83572 105.99506 C 170.20757 106.5438 171.03068 106.13224 171.03068 104.7604 C 171.03068 103.66291 169.9332 102.42825 168.69853 101.87951 C 167.32668 101.46796 165.4061 100.64485 164.58298 100.23329 C 163.4855 99.68455 162.79958 100.50766 162.79958 102.29107 Z"
                        fill="black"/>
               </g>
            </g>
            <g>
               <g  id="outline-13">
                  <path
                        d="M 129.8752 103.8001 C 129.8752 105.44632 134.67667 108.05283 135.91134 106.95535 C 137.00882 105.72069 133.99075 102.42825 131.79579 102.42825 C 130.69831 102.42825 129.8752 102.97699 129.8752 103.8001 Z"
                        fill="black"/>
               </g>
            </g>
            <g>
               <g  id="outline-14">
                  <path
                        d="M 203.95505 105.17195 C 203.95505 105.85787 204.64098 106.5438 205.3269 106.5438 C 206.15 106.5438 206.69875 105.85787 206.69875 105.17195 C 206.69875 104.34884 206.15 103.8001 205.3269 103.8001 C 204.64098 103.8001 203.95505 104.34884 203.95505 105.17195 Z"
                        fill="black"/>
               </g>
            </g>
            <g>
               <g  id="outline-15">
                  <path
                        d="M 206.56157 108.05283 C 205.3269 110.38498 205.46409 111.20808 206.83594 112.16838 C 210.8143 114.63771 214.92984 112.30556 214.92984 107.64128 C 214.92984 104.07447 208.61934 104.34884 206.56157 108.05283 Z"
                        fill="black"/>
               </g>
            </g>
            <g>
               <g  id="outline-16">
                  <path
                        d="M 196.68425 107.50409 C 194.90085 109.15031 195.72396 114.77489 197.64455 114.77489 C 199.56514 114.77489 201.21135 111.89401 201.21135 108.46439 C 201.21135 106.5438 198.33047 105.85787 196.68425 107.50409 Z"
                        fill="black"/>
               </g>
            </g>
            <g>
               <g  id="outline-17">
                  <path
                        d="M 146.3374 114.77489 C 146.3374 115.46082 147.02332 116.14674 147.70924 116.14674 C 148.53235 116.14674 149.08109 115.46082 149.08109 114.77489 C 149.08109 113.95178 148.53235 113.40304 147.70924 113.40304 C 147.02332 113.40304 146.3374 113.95178 146.3374 114.77489 Z"
                        fill="black"/>
               </g>
            </g>
            <g>
               <g  id="outline-18">
                  <path
                        d="M 166.50357 115.73519 C 165.13172 116.96985 165.4061 120.53666 166.91513 123.00599 C 167.87542 124.6522 168.56135 124.6522 171.57941 123.00599 C 175.55778 120.94821 176.2437 118.89044 172.95126 118.89044 C 171.03068 118.89044 171.03068 118.47888 172.40252 116.83267 C 173.77437 115.04926 173.63719 114.77489 170.7563 114.77489 C 168.83572 114.77489 166.91513 115.18645 166.50357 115.73519 Z"
                        fill="black"/>
               </g>
            </g>
            <g>
               <g  id="outline-19">
                  <path
                        d="M 202.5832 116.14674 C 199.70232 117.93015 202.30883 120.1251 208.48215 121.22258 C 212.04896 121.77132 214.10674 121.35977 215.61577 119.71355 C 218.22228 117.24422 222.74938 116.83267 223.4353 119.02762 C 223.98405 120.81103 230.02018 119.43918 230.02018 117.51859 C 230.02018 115.04926 220.8288 114.50052 216.57606 116.69548 C 211.50022 119.302 207.93341 119.57636 208.48215 117.24422 C 208.8937 115.18645 205.18972 114.36334 202.5832 116.14674 Z"
                        fill="black"/>
               </g>
            </g>
            <g>
               <g  id="outline-20">
                  <path
                        d="M 136.73445 118.75325 C 136.73445 120.26229 139.34096 121.0854 147.70924 122.04569 C 150.31575 122.45725 153.88256 123.14317 155.66597 123.69191 C 159.78151 125.06376 159.64433 121.90851 155.52878 120.39947 C 149.9042 118.20451 136.73445 117.10704 136.73445 118.75325 Z"
                        fill="black"/>
               </g>
            </g>
            <g>
               <g  id="outline-21">
                  <path
                        d="M 176.92963 121.0854 C 172.12815 126.43561 173.22563 128.90494 178.9874 125.88687 C 180.22206 125.20095 182.41702 124.24065 183.78887 123.8291 C 187.0813 122.73162 186.2582 118.3417 182.6914 117.79296 C 181.18236 117.65578 178.57584 119.02762 176.92963 121.0854 Z"
                        fill="black"/>
               </g>
            </g>
            <g>
               <g  id="outline-22">
                  <path
                        d="M 200.25106 126.43561 C 197.78173 127.53309 195.72396 129.3165 195.72396 130.55116 C 195.72396 133.15767 197.64455 133.15767 199.8395 130.55116 C 200.7998 129.45368 202.30883 128.49338 203.13194 128.49338 C 204.09224 128.49338 206.01283 127.53309 207.52186 126.43561 C 210.12837 124.51502 210.12837 124.51502 207.38468 124.51502 C 205.87564 124.51502 202.5832 125.33813 200.25106 126.43561 Z"
                        fill="black"/>
               </g>
            </g>
            <g>
               <g  id="outline-23">
                  <path
                        d="M 230.7061 126.98435 C 229.0599 128.49338 230.29455 131.23708 232.6267 131.23708 C 233.99855 131.23708 235.50758 132.19738 236.05632 133.29485 C 237.01661 135.90137 239.62313 135.90137 244.56178 133.29485 C 246.75674 132.19738 250.18637 131.23708 252.38132 131.23708 C 254.4391 131.23708 256.08532 130.55116 256.08532 129.72805 C 256.08532 128.63057 253.89036 128.3562 249.22607 128.90494 C 244.28741 129.45368 242.09246 129.3165 241.54372 128.08183 C 240.99498 126.43561 232.07796 125.47532 230.7061 126.98435 Z"
                        fill="black"/>
               </g>
            </g>
            <g>
               <g  id="outline-24">
                  <path
                        d="M 153.19664 127.80746 C 153.19664 129.04212 161.7021 132.74612 162.52521 131.923 C 163.75987 130.68834 158.68403 127.12153 155.66597 127.12153 C 154.29412 127.12153 153.19664 127.3959 153.19664 127.80746 Z"
                        fill="black"/>
               </g>
            </g>
            <g>
               <g  id="outline-25">
                  <path
                        d="M 185.57228 129.45368 C 184.3376 130.82553 184.61198 135.627 185.98383 134.80389 C 186.66975 134.39233 187.63005 134.94107 188.0416 136.17574 C 189.0019 138.78225 191.05967 137.68477 192.01997 133.8436 C 192.7059 131.51145 192.29434 131.0999 190.09938 131.64864 C 188.72753 132.06019 187.76723 131.78582 188.17879 131.23708 C 189.13908 129.72805 186.80694 128.21901 185.57228 129.45368 Z"
                        fill="black"/>
               </g>
            </g>
            <g>
               <g  id="outline-26">
                  <path
                        d="M 192.15715 143.03498 C 190.92249 152.9123 193.11744 157.71377 199.15358 158.3997 L 203.26913 158.94843 L 199.42795 154.83288 C 195.86114 151.1289 195.44959 149.89423 195.99833 143.44654 C 196.68425 133.15767 193.529 132.74612 192.15715 143.03498 Z"
                        fill="black"/>
               </g>
            </g>
            <g>
               <g  id="outline-27">
                  <path
                        d="M 171.03068 137.95914 C 171.03068 138.64507 171.85378 139.87973 172.95126 140.84002 C 174.04874 141.66313 174.59748 143.30935 174.18593 144.40683 C 172.95126 147.69927 177.34118 146.4646 178.9874 143.03498 C 180.22206 140.29128 179.9477 139.60536 177.06681 138.23351 C 172.95126 136.4501 171.03068 136.31292 171.03068 137.95914 Z"
                        fill="black"/>
               </g>
            </g>
            <g>
               <g  id="outline-28">
                  <path
                        d="M 160.7418 140.84002 C 160.33025 141.66313 160.879 142.62343 162.11366 143.03498 C 164.72017 144.13246 166.2292 143.03498 164.85735 140.97721 C 163.75987 139.05662 161.83929 139.05662 160.7418 140.84002 Z"
                        fill="black"/>
               </g>
            </g>
            <g>
               <g  id="outline-29">
                  <path
                        d="M 120.27226 195.5768 C 120.27226 196.3999 122.33003 197.90895 124.79936 199.00642 L 129.18928 200.92701 L 122.74159 201.0642 C 119.17478 201.20138 115.88234 200.51546 115.47079 199.82953 C 114.23612 197.90895 111.7668 198.18332 112.31554 200.1039 C 112.72709 201.0642 115.60797 202.57323 119.0376 203.39634 C 124.66218 204.7682 124.93655 204.90538 122.05566 206.4144 C 119.99789 207.64907 117.25419 207.64907 113.41301 206.82596 C 108.0628 205.5913 104.496 206.96315 108.74873 208.60937 C 112.04117 209.84403 122.74159 209.56966 123.5647 208.19781 C 123.97625 207.5119 126.03403 206.5516 128.0918 206.14004 C 134.26512 204.631 142.22184 200.65264 142.22184 198.86924 C 142.22184 197.90895 143.31932 196.5371 144.69117 195.71399 C 146.74895 194.34214 146.74895 194.20495 144.27962 195.16525 C 140.57563 196.5371 125.62247 196.5371 122.74159 195.16525 C 121.23255 194.47932 120.27226 194.6165 120.27226 195.5768 Z"
                        fill="black"/>
               </g>
            </g>
            <g>
               <path d="M 134.67667 199.69235 C 135.63697 201.33857 133.03046 202.98479 131.24705 201.8873 C 129.73802 200.92701 130.69831 198.45769 132.6189 198.45769 C 133.30483 198.45769 134.12794 199.00642 134.67667 199.69235 Z"/>
            </g>
            <g>
               <g  id="outline-30">
                  <path
                        d="M 164.17143 243.7287 C 164.17143 244.41463 164.85735 245.10055 165.54328 245.10055 C 166.36639 245.10055 166.91513 244.41463 166.91513 243.7287 C 166.91513 242.9056 166.36639 242.35686 165.54328 242.35686 C 164.85735 242.35686 164.17143 242.9056 164.17143 243.7287 Z"
                        fill="black"/>
               </g>
            </g>
            <g>
               <g  id="outline-31">
                  <path
                        d="M 236.1935 245.10055 C 235.78195 245.78648 236.60506 246.4724 238.25128 246.4724 C 239.8975 246.4724 240.7206 245.78648 240.30905 245.10055 C 239.8975 244.27744 238.9372 243.7287 238.25128 243.7287 C 237.56535 243.7287 236.60506 244.27744 236.1935 245.10055 Z"
                        fill="black"/>
               </g>
            </g>
            <g>
               <g  id="outline-32">
                  <path
                        d="M 164.17143 254.7035 C 164.17143 255.38942 165.13172 256.07535 166.2292 256.07535 C 167.32668 256.07535 168.28698 255.38942 168.28698 254.7035 C 168.28698 253.8804 167.32668 253.33165 166.2292 253.33165 C 165.13172 253.33165 164.17143 253.8804 164.17143 254.7035 Z"
                        fill="black"/>
               </g>
            </g>
            <g>
               <g  id="outline-33">
                  <path
                        d="M 262.94456 165.80768 C 262.94456 167.72827 262.25864 168.277 260.8868 167.72827 C 258.69183 166.90516 258.28028 167.59108 256.90843 174.03877 C 255.94813 178.15432 258.1431 179.38898 259.37775 175.41062 C 260.06368 173.49003 261.84708 173.07848 268.29477 173.07848 C 272.82188 172.9413 277.0746 172.52974 277.62335 171.84381 C 279.26957 170.1976 270.62692 163.47553 266.51137 163.33835 C 263.76767 163.06398 262.94456 163.7499 262.94456 165.80768 Z"
                        fill="black"/>
               </g>
            </g>
            <g>
               <g  id="outline-34">
                  <path
                        d="M 276.93742 175.27344 C 277.2118 176.23373 278.30927 177.3312 279.26957 177.60558 C 280.36705 178.01713 280.9158 177.4684 280.50423 176.37092 C 280.22986 175.41062 279.13238 174.31314 278.1721 174.03877 C 277.0746 173.62722 276.52587 174.17596 276.93742 175.27344 Z"
                        fill="black"/>
               </g>
            </g>
            <g>
               <g  id="outline-35">
                  <path
                        d="M 286.266 180.62365 C 286.266 181.30957 286.95192 181.9955 287.63785 181.9955 C 288.46095 181.9955 289.0097 181.30957 289.0097 180.62365 C 289.0097 179.80054 288.46095 179.2518 287.63785 179.2518 C 286.95192 179.2518 286.266 179.80054 286.266 180.62365 Z"
                        fill="black"/>
               </g>
            </g>
            <g>
               <g  id="outline-36">
                  <path
                        d="M 280.9158 183.64172 C 280.22986 185.42512 280.09268 187.3457 280.50423 188.03163 C 281.32734 189.54067 284.89415 185.01356 284.89415 182.40705 C 284.89415 179.52617 282.15045 180.34928 280.9158 183.64172 Z"
                        fill="black"/>
               </g>
            </g>
            <g>
               <g  id="outline-37">
                  <path
                        d="M 250.32355 186.5226 C 245.3849 190.2266 232.76388 191.46125 230.15737 188.306 C 229.19708 187.07134 227.1393 186.11104 225.63027 186.11104 C 223.4353 186.11104 223.16094 186.5226 224.3956 188.03163 C 225.2187 188.99193 225.63027 190.91252 225.08153 192.14718 C 224.12123 194.47932 226.59056 195.30243 227.9624 192.9703 C 229.0599 191.18689 237.1538 192.8331 239.21157 195.30243 C 240.17187 196.67428 241.8181 196.94865 243.87586 196.3999 C 245.52208 195.85117 248.54015 195.30243 250.59792 195.16525 C 252.6557 195.02806 255.3994 193.7934 256.77124 192.55873 C 258.0059 191.18689 260.8868 189.2663 263.08175 188.16882 C 265.2767 186.93415 267.0601 185.42512 267.0601 184.7392 C 267.0601 182.8186 266.64855 182.9558 256.63406 188.306 C 245.11052 194.47932 242.09246 193.24466 252.93006 186.65978 C 254.3019 185.69949 255.12502 184.7392 254.71347 184.32764 C 254.3019 184.05327 252.38132 185.01356 250.32355 186.5226 Z"
                        fill="black"/>
               </g>
            </g>
            <g>
               <g  id="outline-38">
                  <path
                        d="M 267.60885 188.16882 C 263.08175 189.95222 260.33805 194.34214 263.4933 194.34214 C 264.4536 194.34214 267.33448 194.7537 269.66662 195.16525 C 273.645 195.98836 273.91935 195.85117 273.91935 191.8728 C 273.91935 186.5226 272.82188 185.97386 267.60885 188.16882 Z"
                        fill="black"/>
               </g>
            </g>
            <g>
               <g  id="outline-39">
                  <path
                        d="M 220.41724 190.0894 C 220.41724 190.77533 220.00569 192.42155 219.59413 193.51903 C 219.0454 195.02806 219.31976 195.5768 220.6916 195.02806 C 222.74938 194.20495 223.70968 188.85474 221.6519 188.85474 C 220.96598 188.85474 220.41724 189.40348 220.41724 190.0894 Z"
                        fill="black"/>
               </g>
            </g>
            <g>
               <g  id="outline-40">
                  <path
                        d="M 251.96977 201.20138 C 251.96977 201.8873 253.4788 202.57323 255.2622 202.57323 C 257.0456 202.57323 259.51494 202.98479 260.7496 203.39634 C 262.25864 203.94508 262.94456 203.53353 262.94456 202.0245 C 262.94456 200.37827 261.5727 199.82953 257.45717 199.82953 C 254.4391 199.82953 251.96977 200.37827 251.96977 201.20138 Z"
                        fill="black"/>
               </g>
            </g>
            <g>
               <g  id="outline-41">
                  <path
                        d="M 232.76388 202.29886 C 232.76388 202.98479 233.72418 204.08227 234.95884 204.49382 C 236.1935 205.04256 236.87943 205.72849 236.46788 206.14004 C 236.05632 206.5516 233.72418 206.00285 231.25485 204.7682 C 228.78552 203.53353 226.59056 202.8476 226.179 203.12197 C 224.94434 204.35664 227.68804 206.96315 232.21514 208.88374 C 238.1141 211.35307 242.36683 211.35307 242.36683 208.88374 C 242.36683 207.78626 244.01305 206.5516 246.208 205.86567 C 249.63763 204.90538 249.50044 204.7682 243.73868 203.94508 C 240.30905 203.39634 236.46788 202.57323 235.2332 201.8873 C 233.72418 201.33857 232.76388 201.47575 232.76388 202.29886 Z"
                        fill="black"/>
               </g>
            </g>
            <g>
               <g  id="outline-42">
                  <path
                        d="M 261.02397 206.5516 C 262.94456 208.335 272.5475 209.70685 272.5475 208.335 C 272.5475 206.5516 269.11788 205.31693 263.90486 205.31693 C 261.43553 205.31693 260.20086 205.86567 261.02397 206.5516 Z"
                        fill="black"/>
               </g>
            </g>
            <g>
               <g  id="outline-43">
                  <path
                        d="M 255.3994 212.039 C 254.4391 213.6852 257.0456 215.33143 258.829 214.23395 C 260.33805 213.27366 259.37775 210.80433 257.45717 210.80433 C 256.77124 210.80433 255.94813 211.35307 255.3994 212.039 Z"
                        fill="black"/>
               </g>
            </g>
            <g>
               <g  id="outline-44">
                  <path
                        d="M 131.24705 168.96293 C 131.24705 170.0604 130.01239 171.0207 128.64054 171.0207 C 124.11344 171.0207 124.11344 174.86188 128.64054 177.19402 C 132.20735 179.11461 132.75609 179.11461 133.44201 177.19402 C 133.85357 176.09655 135.08823 175.13625 136.18571 175.13625 C 138.51785 175.13625 138.65504 170.74633 136.46008 168.55138 C 134.12794 166.21923 131.24705 166.4936 131.24705 168.96293 Z"
                        fill="black"/>
               </g>
            </g>
            <g>
               <g  id="outline-45">
                  <path
                        d="M 240.99498 168.82575 C 240.99498 170.1976 239.7603 171.0207 237.56535 171.0207 C 235.64477 171.0207 234.13573 171.56944 234.13573 172.11818 C 234.13573 174.58751 239.21157 177.87995 242.91557 177.87995 C 246.3452 177.87995 246.61956 177.4684 246.208 172.8041 C 245.93363 169.10012 245.11052 167.4539 243.4643 167.17953 C 241.95527 166.90516 240.99498 167.59108 240.99498 168.82575 Z"
                        fill="black"/>
               </g>
            </g>
            <g>
               <g  id="outline-46">
                  <path
                        d="M 166.50357 276.79027 C 161.01618 281.043 163.4855 282.55203 169.38446 278.57367 C 175.96933 274.04657 176.10652 273.90938 172.95126 273.90938 C 171.57941 273.90938 168.69853 275.28123 166.50357 276.79027 Z"
                        fill="black"/>
               </g>
            </g>
            <g>
               <g  id="outline-47">
                  <path
                        d="M 178.30148 285.15855 C 172.5397 286.66758 170.48194 289.68565 175.96933 288.58817 C 178.1643 288.1766 181.45673 287.3535 183.24013 286.80476 C 185.98383 285.98166 186.39538 286.25603 185.70946 288.03943 C 184.74917 290.78313 186.2582 291.0575 188.59034 288.72535 C 192.98026 284.33544 187.90442 282.68922 178.30148 285.15855 Z"
                        fill="black"/>
               </g>
            </g>
            <g>
               <g  id="outline-48">
                  <path
                        d="M 192.5687 287.90224 C 191.6084 291.33187 192.15715 292.42935 194.21492 291.0575 C 195.99833 289.96002 196.2727 284.88418 194.4893 284.88418 C 193.80337 284.88418 192.98026 286.25603 192.5687 287.90224 Z"
                        fill="black"/>
               </g>
            </g>
            <g>
               <g  id="outline-49">
                  <path
                        d="M 149.08109 291.74342 C 149.08109 294.48712 152.51071 296.95645 154.01975 295.4474 C 154.98004 294.6243 151.55042 288.99972 150.17857 288.99972 C 149.49264 288.99972 149.08109 290.2344 149.08109 291.74342 Z"
                        fill="black"/>
               </g>
            </g>
         </g>
      </g>
   </g>
</svg>