<?xml version="1.0" encoding="utf-8"?>
<svg xmlns="http://www.w3.org/2000/svg" xmlns:dc="http://purl.org/dc/elements/1.1/"
     xmlns:xl="http://www.w3.org/1999/xlink"
     xmlns:xlink="http://www.w3.org/1999/xlink"
     version="1.1"
     viewBox="58.5 99 301.5 164.42695"
     width="301.5"
     height="164.42695"
     preserveAspectRatio="xMidYMid meet"
     zoomAndPan="magnify"
     contentScriptType="application/ecmascript"
     contentStyleType="text/css">
   <defs/>
   <metadata xmlns="" xmlns:svg="http://www.w3.org/2000/svg"
             xmlns:rdf="http://www.w3.org/1999/02/22-rdf-syntax-ns#"
             xmlns:cc="http://creativecommons.org/ns#">
      <rdf:RDF>
         <cc:Work rdf:about="">
            <dc:creator>
               <cc:Agent>
                  <dc:title>http://heraldicart.org Pantheon Courant.svg</dc:title>
               </cc:Agent>
            </dc:creator>
         </cc:Work>
      </rdf:RDF>
   </metadata>
   <g stroke-opacity="1" stroke-dasharray="none" stroke="#505050" fill="#ffff00"
      fill-opacity="1">
      <title>Pantheon Courant</title>
      <g>
         <title>Art</title>
         <g>
            <g>
               <g  id="outline-0">
                  <path
                        d="M 146.8985 105.88207 C 141.5627 108.42684 135.89855 115.40442 134.42094 121.23275 C 134.17467 122.24519 134.0105 122.49145 133.65477 122.35464 C 133.4085 122.24519 132.17717 122.10837 130.8911 122.02628 C 126.86873 121.75265 123.22944 123.06608 116.71703 127.11581 C 112.44839 129.77003 108.75438 131.576 106.26434 132.20535 C 105.30663 132.45161 102.76186 132.7526 100.60018 132.88942 C 96.441 133.13569 94.55294 133.68295 93.97832 134.75011 C 93.51315 135.6531 93.6226 137.59587 94.19722 138.55358 C 94.49822 139.01875 94.8813 139.92173 95.07284 140.55108 C 95.75692 142.84958 98.57531 145.2028 101.58525 146.0237 C 102.62505 146.29733 103.09022 146.2426 105.00564 145.75007 C 107.76931 144.9839 110.17726 145.12072 113.1051 146.10579 C 114.22699 146.51623 116.19713 147.17295 117.4832 147.61076 C 119.6996 148.37692 119.86378 148.48637 121.12249 150.15552 C 124.05033 154.01371 125.14486 157.32465 126.78664 167.2848 C 128.34634 176.67034 129.71449 180.6927 133.38114 186.60313 C 135.10502 189.39417 136.88362 191.6653 139.15475 194.07325 L 141.01544 196.01603 L 138.19704 197.13792 C 133.7095 198.88915 129.00305 200.20258 124.32397 200.9961 C 120.98567 201.54337 113.51555 202.118 109.41109 202.118 C 103.09022 202.14536 103.7743 201.817 97.37134 208.08314 C 91.3241 214.0483 81.25449 222.99602 78.84654 224.55571 C 77.99828 225.10298 76.52068 225.84178 75.56297 226.1975 C 73.26447 227.04575 72.11522 227.94874 71.45851 229.37161 C 71.18488 230.02833 70.82916 230.5756 70.69234 230.5756 C 70.14508 230.5756 68.77693 232.29946 68.77693 233.0109 C 68.77693 233.64025 67.135145 238.15516 65.6849 241.63027 C 65.082914 243.0258 65.11028 243.9014 65.73963 244.25713 C 66.75206 244.77702 70.03563 244.58548 72.25204 243.84668 C 74.76944 242.99842 75.8366 242.28698 76.05551 241.3019 C 76.5754 238.8666 77.0953 237.63526 77.72465 237.389 C 78.05301 237.25218 78.60027 236.75964 78.90127 236.2671 C 79.1749 235.77457 79.94106 235.06313 80.59778 234.6527 C 81.52812 234.10543 81.85648 233.69498 82.15747 232.73727 C 82.86891 230.46614 89.65495 224.3368 95.59274 220.58807 C 96.96089 219.73981 98.11014 219.05574 98.16487 219.11046 C 98.30168 219.27464 95.53801 223.95373 93.56787 227.0184 C 91.46092 230.21987 89.43605 232.46364 86.2893 234.95368 C 84.5107 236.37656 83.77189 237.1701 83.44354 237.96362 C 83.19727 238.5656 83.00573 239.1676 83.00573 239.3044 C 83.00573 239.44123 82.458465 240.09794 81.77439 240.78202 C 80.54305 241.986 80.51569 242.04072 80.57041 243.6004 C 80.62514 244.91384 80.46096 245.59792 79.72216 247.26706 C 79.22962 248.38895 78.354 250.7148 77.77938 252.41132 C 76.30177 256.7894 76.63013 257.33667 80.48832 257.06304 C 82.67737 256.89887 84.97587 255.9138 88.34153 253.72475 C 89.90122 252.71232 90.69475 252.00088 90.77684 251.59043 C 90.83157 251.2347 91.1052 249.7571 91.35146 248.2795 C 91.73455 246.09045 91.89872 245.62528 92.30917 245.62528 C 93.07534 245.62528 94.41613 243.9014 94.63503 242.6427 C 94.77185 241.79445 95.07284 241.32928 95.89373 240.69993 C 96.6599 240.07058 97.31661 239.0855 98.30168 237.06064 C 100.32655 232.95618 104.04793 227.94874 109.08273 222.5582 C 110.66979 220.83434 112.39367 219.21992 112.91356 219.001 C 115.07525 217.96121 121.83393 216.8667 129.24932 216.3468 C 137.10252 215.79953 147.28158 215.19754 152.2343 215.006 C 158.11736 214.75973 158.91089 214.54083 162.33127 212.16024 L 164.49296 210.6279 L 166.4631 211.4488 C 170.48547 213.14531 173.22178 213.6652 178.8312 213.80203 C 191.77394 214.15775 198.8336 212.1876 213.17186 204.27968 C 221.8186 199.5185 227.8111 197.3021 234.4056 196.39911 C 237.49763 195.9613 244.3384 196.0434 248.27868 196.50857 C 253.9702 197.22 253.69657 197.0832 257.58213 200.9961 C 263.8209 207.2349 270.82585 211.42144 278.59697 213.55576 C 281.14173 214.23984 281.57954 214.2672 288.47504 214.32193 L 295.6989 214.3493 L 296.76605 216.10052 C 298.54465 219.02837 301.00732 224.06318 303.11428 229.1527 C 305.52223 234.92632 305.35805 234.46115 305.9874 238.15516 C 306.61675 241.73972 307.0272 242.77952 308.5048 244.31185 C 309.1068 244.96857 309.87296 245.95364 310.1466 246.5009 C 310.83067 247.86905 311.7063 248.38895 313.6217 248.60785 C 315.3182 248.7994 315.89283 249.15512 321.4749 253.1775 C 322.84305 254.1352 324.40275 255.20235 325.00474 255.50335 C 325.9898 256.02325 326.09926 256.02325 326.5097 255.6128 C 327.16642 254.9561 327.1117 247.62278 326.4276 244.88648 C 325.853 242.61534 325.44255 242.17753 322.04953 240.15267 C 320.8729 239.44123 319.96993 238.72979 319.96993 238.48352 C 319.96993 237.99098 318.76596 236.59547 318.3555 236.59547 C 318.2187 236.59547 317.9998 236.32184 317.9177 235.96612 C 317.64407 235.14522 316.49482 233.94125 315.23612 233.2298 C 312.93762 231.94374 308.7237 223.9811 306.2063 216.20998 C 305.6864 214.54083 305.1665 212.76223 305.05706 212.24233 L 304.89288 211.28462 L 307.4103 210.24483 C 310.52967 208.9314 315.34557 207.86424 316.60427 208.1926 C 318.9575 208.79458 321.63908 213.55576 325.7709 224.4189 C 328.0694 230.46614 328.47985 232.16265 328.69875 236.51338 L 328.86293 240.1253 L 330.09427 241.384 C 330.77835 242.06808 331.6266 242.7248 332.0097 242.80688 C 332.94003 243.0258 334.11664 243.92877 337.12658 246.7198 C 340.10915 249.51084 340.8206 249.976 341.44994 249.4561 C 341.66885 249.26457 342.134 248.25213 342.435 247.21234 C 342.9002 245.68 342.98228 244.8044 342.9002 242.53325 C 342.76337 238.75715 342.2161 237.58054 340.19124 236.486 C 338.139 235.3915 337.81065 235.06313 337.6191 233.80443 C 337.45494 232.95618 337.07185 232.3542 335.7858 231.0955 C 333.95246 229.26216 333.37784 228.16764 330.3679 220.45125 C 326.6739 211.011 325.22364 206.00355 324.97737 202.118 C 324.84056 199.84686 324.70374 199.2996 323.93758 197.87672 C 322.56942 195.41404 321.858 194.86678 320.16147 194.9215 C 319.01222 194.97623 317.94506 195.38668 314.63413 197.02846 C 310.11923 199.2996 308.368 199.84686 305.00233 200.1205 L 302.7312 200.28467 L 302.7312 199.02597 C 302.7312 198.09562 302.567 197.57572 302.0745 197.0011 C 301.71876 196.5633 301.33568 195.7424 301.22623 195.19514 C 300.9526 193.82698 299.85807 192.95137 297.45012 192.2673 C 290.99244 190.37924 287.70887 188.81954 285.13674 186.38423 C 284.39794 185.67279 282.0447 181.0758 279.66413 175.68527 L 278.4328 172.89423 L 279.58204 173.38677 C 283.05715 174.9191 292.22378 176.23253 298.48992 176.09571 C 300.89787 176.04099 305.1665 176.01362 308.01227 175.98626 C 311.7063 175.98626 313.12916 175.90417 313.12916 175.6579 C 313.12916 175.49373 312.63663 174.94646 312.03464 174.42657 L 310.9401 173.52358 L 313.07444 173.60567 C 315.89283 173.71513 317.8356 173.19523 322.3505 171.11563 C 325.9898 169.39176 326.75597 168.7624 325.1142 168.70768 C 324.62165 168.70768 323.60922 168.46142 322.84305 168.21515 L 321.4749 167.72261 L 322.84305 167.53107 C 325.52464 167.14799 328.61666 166.21764 330.5047 165.23257 C 332.03705 164.43904 333.29575 163.37188 336.90767 159.75996 C 339.89025 156.77738 341.28577 155.19033 341.1216 155.02615 C 340.93005 154.8346 339.97234 155.02615 338.27583 155.5734 C 336.85295 156.01122 335.4027 156.47639 335.047 156.55848 C 334.63654 156.6953 335.3206 155.92913 336.8256 154.67043 C 338.16637 153.52118 340.10915 151.82467 341.1763 150.92169 C 343.00964 149.33463 345.91012 147.7202 348.78325 146.70777 C 350.09667 146.2426 350.3703 145.8048 349.65887 145.2028 C 349.35787 144.95654 348.236 144.90181 345.5544 144.9839 C 343.52954 145.03863 341.96984 144.9839 342.0793 144.87445 C 342.18875 144.765 343.36536 144.13564 344.6788 143.45157 C 347.27828 142.13814 349.38523 141.56352 351.24592 141.67297 C 353.7907 141.83715 353.95487 140.63317 351.4922 139.70283 C 348.0171 138.3894 343.8579 137.54114 340.79323 137.51378 C 337.94747 137.48642 337.9201 137.48642 338.85045 137.07597 C 339.37035 136.85707 340.3007 136.58344 340.9027 136.50135 C 342.27084 136.33717 342.9549 135.98145 342.9549 135.48891 C 342.9549 134.80484 342.05193 134.55857 338.41264 134.23021 C 332.0097 133.62823 325.7709 134.91429 319.3953 138.0884 C 315.9202 139.83964 312.7187 141.6456 310.55704 143.09585 C 308.96998 144.163 308.9426 144.163 309.48988 143.39684 C 309.81823 142.95903 310.69385 142.00133 311.46 141.28989 C 312.2262 140.55108 312.8008 139.83964 312.7187 139.70283 C 312.4451 139.26502 310.47495 139.4292 308.8879 140.03118 C 305.8506 141.15307 302.53965 144.13564 294.24864 153.11073 C 289.78846 157.98136 285.43773 160.82712 279.4726 162.82462 C 273.6169 164.7674 270.68904 164.7674 263.93036 162.82462 C 253.72393 159.86941 249.78365 159.29479 239.65931 159.32215 C 233.1469 159.32215 223.04993 159.92414 216.53752 160.66294 C 215.85344 160.74503 211.55744 161.04602 206.96044 161.37438 C 202.36345 161.67537 197.2192 162.11318 195.52268 162.33209 C 192.37593 162.74253 182.77149 164.52113 175.3561 166.05347 C 170.04766 167.17535 167.39344 167.20271 164.73922 166.19028 C 163.72679 165.77983 161.83874 165.20521 160.55267 164.90422 C 158.55517 164.43904 157.98054 164.16541 156.39349 162.90671 C 151.22187 158.77489 147.00795 152.42666 145.96816 147.17295 C 145.69452 145.85952 145.31144 144.49136 145.1199 144.10828 C 144.84627 143.64311 144.70945 142.32968 144.70945 139.867 C 144.68209 137.89686 144.57264 135.73518 144.46319 134.99638 L 144.24428 133.71031 L 145.28408 133.71031 C 148.23929 133.68295 153.68454 131.4939 156.72184 129.08596 C 159.21188 127.08845 160.55267 125.2004 162.24918 121.20539 C 163.07008 119.28998 164.00042 117.23774 164.30141 116.66312 C 164.6024 116.11586 164.82131 115.37706 164.76659 115.02134 C 164.71186 114.5288 164.49296 114.39199 163.48052 114.33726 C 160.63476 114.11835 154.4507 116.69048 149.00546 120.32977 C 147.44576 121.36957 146.21442 122.08101 146.29651 121.88947 C 147.55521 119.07107 147.9383 117.73028 148.1572 115.5686 C 148.32138 114.17308 148.62237 111.62832 148.86864 109.90444 C 149.47063 105.55371 149.47063 105.38953 148.81392 105.30745 C 148.51292 105.28008 147.66467 105.52635 146.8985 105.88207 Z"
                        fill="black"/>
               </g>
            </g>
            <g>
               <path d="M 148.32138 107.22286 C 148.23929 107.7154 147.96566 110.09598 147.7194 112.50393 C 147.25422 117.29247 147.03532 118.33227 146.0776 120.41186 C 145.22935 122.29991 144.13483 123.80488 142.57513 125.22776 L 141.2617 126.40437 L 140.38609 125.58348 C 139.3463 124.59841 137.45824 123.50389 136.008 123.03872 C 135.02293 122.73772 134.99556 122.683 135.15974 121.72529 C 135.40601 120.30241 136.91098 117.12829 138.3065 115.07606 C 140.49554 111.81986 144.32637 108.20793 147.00795 106.86714 C 148.3761 106.18306 148.48556 106.21043 148.32138 107.22286 Z"/>
            </g>
            <g>
               <path d="M 163.37107 116.03377 C 163.1248 116.38949 162.46809 117.83973 161.92083 119.26261 C 161.37357 120.65813 160.49795 122.65563 159.95069 123.66807 C 158.63726 126.21283 155.73677 128.89441 152.72683 130.37202 C 149.52535 131.95908 147.7194 132.36952 144.3811 132.3148 C 142.79404 132.26007 141.53534 132.34216 141.50797 132.50634 C 141.48061 132.69788 142.16469 133.16305 143.14976 133.60086 C 143.47812 133.76504 143.72438 139.18293 143.50548 141.1257 C 143.28657 143.12321 143.31394 143.56102 143.75175 144.54609 C 144.02538 145.17544 144.32637 146.21524 144.43582 146.84459 C 145.01045 150.23761 147.33631 155.05351 150.01789 158.41917 C 151.65967 160.44404 154.12235 162.87935 156.42085 164.7674 C 157.81637 165.88929 158.14472 165.97138 167.80389 167.94152 C 168.62478 168.1057 169.85612 168.16042 170.5402 168.05097 C 172.61979 167.77734 185.48043 165.47884 189.85852 164.63059 C 194.51025 163.7276 199.32615 163.15298 205.7291 162.71517 C 208.13706 162.551 212.13206 162.25 214.6221 162.0311 C 227.31857 160.93657 231.86084 160.6903 239.24887 160.6903 C 249.70156 160.66294 253.2314 161.18284 263.05474 164.13805 C 270.16914 166.27237 274.16415 166.27237 280.51238 164.05596 C 287.2437 161.70274 290.883 158.88434 298.48992 150.18288 C 302.78592 145.25753 307.4103 141.48143 310.09186 140.6879 C 310.74858 140.49636 310.74858 140.49636 309.9277 141.53615 C 308.8879 142.87694 307.57446 145.42171 307.79336 145.75007 C 307.87545 145.88688 308.9426 145.2849 310.1466 144.40928 C 312.91026 142.43913 318.7386 139.29238 322.10425 137.95159 C 326.5097 136.22772 329.4649 135.59837 333.97982 135.43419 C 336.19623 135.3521 338.2211 135.3521 338.46737 135.46155 C 338.85045 135.59837 338.49473 135.95409 336.85295 136.99388 C 334.39027 138.58094 334.17137 139.04611 336.0594 138.71776 C 339.20617 138.22522 344.24098 138.66303 347.88027 139.81228 L 349.65887 140.35954 L 347.82554 140.98889 C 345.2534 141.83715 342.46238 143.36948 340.7385 144.84708 C 339.9176 145.53116 339.23353 146.18788 339.1788 146.32469 C 339.042 146.62568 340.05443 146.62568 341.44994 146.32469 C 343.1738 145.91424 346.78574 145.66798 346.7584 145.91424 C 346.7584 146.05106 345.80067 146.62568 344.65142 147.20031 C 342.5171 148.2401 341.0395 149.41672 335.67634 154.36943 C 334.03455 155.8744 332.39277 157.32465 332.03705 157.57091 C 330.86043 158.3918 331.68133 158.58335 333.45993 157.89927 C 335.15644 157.2152 338.0843 156.36694 338.2211 156.50375 C 338.24846 156.55848 337.4002 157.59828 336.3057 158.82961 C 333.81565 161.64801 331.29824 163.67288 328.86293 164.79476 C 326.97488 165.64302 321.858 167.09326 320.62665 167.09326 C 319.86048 167.09326 319.4774 167.61316 319.9973 167.94152 C 320.2162 168.07833 321.256 168.46142 322.3505 168.81714 L 324.2933 169.44649 L 321.94007 170.51365 C 318.10924 172.21016 316.63164 172.56588 312.8008 172.75742 C 310.22868 172.86687 309.29833 173.00369 309.29833 173.27732 C 309.29833 173.46886 309.57196 173.71513 309.9277 173.82458 C 310.25604 173.93403 310.8033 174.20766 311.13166 174.4813 C 311.7063 174.9191 311.6242 174.94646 309.35306 174.94646 C 308.03963 174.94646 305.30333 175.11064 303.27846 175.30218 C 296.90286 175.90417 290.63672 175.27482 282.26362 173.19523 C 278.51488 172.29225 278.15916 172.12807 277.20145 171.17036 C 276.29847 170.24002 275.36812 169.77484 275.36812 170.26738 C 275.36812 170.34947 275.8333 170.95146 276.40792 171.60817 C 277.092 172.4017 277.85816 173.8793 278.76115 176.15044 C 282.37307 185.3718 287.05216 192.924 292.00487 197.49364 C 294.276 199.6006 296.41033 200.80457 299.00982 201.46128 C 300.78842 201.8991 301.06205 201.8991 303.9899 201.46128 C 308.55953 200.7772 310.6665 200.1205 314.68886 198.12299 C 317.3157 196.83692 318.71123 196.28966 319.7784 196.1802 C 321.20127 196.0434 321.31072 196.07076 321.7759 196.80956 C 322.04953 197.24737 322.62415 198.06826 323.06196 198.64288 C 323.71867 199.49114 323.8555 199.98368 323.93758 201.516 C 324.1291 205.2921 325.79827 211.20253 329.4102 220.99851 C 332.2833 228.82435 333.0221 230.35669 334.91017 232.10792 C 336.11414 233.25717 336.38778 233.66762 336.38778 234.40642 C 336.38778 235.11786 336.63404 235.5283 337.4002 236.2671 C 337.97483 236.75964 338.46737 237.06064 338.5221 236.92382 C 338.57682 236.75964 339.28826 237.03328 340.10915 237.49845 C 341.2584 238.18252 341.6415 238.59297 341.8604 239.33177 C 342.35292 241.083 342.435 243.5457 342.0793 245.43374 L 341.72357 247.26706 L 339.8629 246.00836 C 338.8231 245.3243 337.9201 244.8044 337.8654 244.88648 C 337.7833 244.9412 338.54946 245.7621 339.5619 246.69244 C 340.84796 247.92378 341.28577 248.4984 341.09422 248.68994 C 340.7385 249.04566 339.28826 247.92378 335.9226 244.7223 C 334.5271 243.3815 333.73356 242.4238 333.843 242.17753 C 333.95246 241.9039 333.76092 241.79445 333.15893 241.79445 C 332.5296 241.79445 332.03705 241.49346 331.2435 240.67256 L 330.17636 239.52331 L 329.9848 236.62283 C 329.7659 232.8741 328.9724 229.9736 326.23608 222.80448 C 322.78833 213.77466 320.18884 208.98613 318.10924 207.78215 C 317.12417 207.20753 316.08438 207.12544 312.5819 207.4538 C 310.63912 207.61797 309.6814 207.91897 306.56203 209.2324 C 298.90037 212.4886 295.67152 213.20004 288.22877 213.17268 C 283.96013 213.14531 282.37307 213.03586 280.29348 212.59805 C 273.0149 211.03836 264.83334 206.55081 259.19655 201.02347 C 256.24134 198.12299 253.58712 194.53842 250.96026 189.94143 C 249.83838 187.97129 248.36077 185.48125 247.73142 184.41409 C 246.47272 182.3345 244.31104 179.68028 243.87323 179.68028 C 243.32597 179.68028 243.6817 180.41908 244.83094 181.5957 C 245.56974 182.3345 246.58217 183.89419 247.34834 185.42652 C 248.9354 188.65536 251.5896 193.33445 252.84832 195.08569 C 253.3682 195.82449 253.7513 196.45384 253.69657 196.50857 C 253.64184 196.5633 252.38314 196.31702 250.87817 195.9613 C 243.18915 194.15534 237.525 194.10061 230.21905 195.71504 C 224.4728 197.0011 220.28626 198.7797 211.61217 203.62296 C 202.88335 208.4936 197.71173 210.51846 191.0625 211.69507 C 185.17944 212.73487 176.80634 212.87168 172.29143 211.9687 C 170.40338 211.61298 165.8611 210.29955 165.56012 210.05329 C 165.31385 209.83438 170.70437 204.58067 172.86606 202.93889 C 173.71431 202.30954 174.39839 201.68019 174.39839 201.54337 C 174.39839 200.66775 171.7989 202.36426 167.69443 205.92146 C 161.18202 211.58562 158.88353 212.95377 154.86115 213.61049 C 152.94574 213.91148 143.66966 214.54083 134.99556 214.97864 C 118.13991 215.8269 114.30908 216.62042 110.31407 220.01344 C 105.44345 224.2 99.28675 231.9711 97.07035 236.70492 C 96.38627 238.2099 95.89373 238.83924 94.96339 239.49595 C 93.86887 240.26212 93.73205 240.48102 93.59524 241.685 C 93.48578 242.8616 93.29424 243.1626 92.11763 244.2024 C 91.35146 244.88648 90.8042 245.59792 90.77684 245.981 C 90.74948 246.30936 90.55793 247.62278 90.2843 248.90885 C 89.79177 251.56307 89.68232 251.67252 86.2893 253.72475 C 84.26443 254.92872 81.33658 256.02325 80.1326 256.02325 L 79.47589 256.02325 L 80.57041 252.82177 C 81.71966 249.37402 81.77439 249.18248 81.39131 249.18248 C 81.14504 249.18248 79.42116 253.06804 78.8739 254.92872 C 78.68236 255.5307 78.43609 256.02325 78.32664 256.02325 C 77.53311 256.02325 77.97092 254.3541 80.29678 248.4163 C 81.1724 246.25463 81.63757 244.66757 81.63757 243.9014 C 81.63757 242.61534 81.88384 242.17753 83.1699 241.3019 C 83.6898 240.9462 84.12761 240.31684 84.31915 239.63277 C 84.59278 238.81187 85.52313 237.69 88.2868 234.89896 C 92.00818 231.17758 94.22459 228.22237 97.09771 223.18756 C 101.7768 214.97864 104.95091 210.16274 106.34643 209.17767 C 107.13996 208.60304 107.49568 208.54832 110.09517 208.60304 C 111.68223 208.6304 115.56778 208.68513 118.71454 208.73986 C 124.89859 208.82195 126.8961 208.57568 133.35378 206.8518 C 139.07266 205.34684 140.87862 204.49858 142.57513 202.44635 C 143.91593 200.8593 144.0801 200.53094 145.1199 197.68518 C 146.81641 192.97873 149.79899 189.01108 153.95817 185.91906 C 155.13478 185.04344 156.3114 184.22255 156.55766 184.08573 C 157.37856 183.62056 156.63975 183.40165 155.5726 183.78474 C 151.85122 185.12553 147.28158 189.8867 144.87363 194.97623 L 144.10747 196.61802 L 143.17712 196.0434 C 141.37116 194.94887 137.32142 190.51605 135.1871 187.34194 C 131.411 181.62305 129.44086 176.80715 128.29161 170.24002 C 125.96575 157.18783 125.06277 153.98635 122.68218 150.5386 C 122.18965 149.82716 121.86129 149.22518 121.94338 149.14309 C 121.9981 149.061 122.60009 149.14309 123.2568 149.2799 C 128.31897 150.45651 134.7493 147.88439 136.63735 143.9441 C 137.29406 142.57595 137.23934 141.59088 136.58262 142.87694 C 135.87118 144.21773 133.9284 146.2426 132.61498 147.03613 C 129.68713 148.76 126.0752 148.92418 122.02547 147.52867 C 117.59265 146.0237 112.58521 144.65554 110.34144 144.32719 C 108.5902 144.05356 107.87876 144.08092 105.90862 144.464 C 104.62255 144.71027 103.14495 144.92917 102.65241 144.90181 C 101.72207 144.87445 99.50566 144.163 100.27182 144.13564 C 100.51809 144.10828 101.20217 143.75256 101.83152 143.28739 C 103.22704 142.27496 103.85639 142.13814 105.58026 142.41177 C 107.27677 142.65804 108.17975 142.54859 108.17975 142.05605 C 108.17975 140.79735 104.40365 140.87944 101.83152 142.22023 C 99.04049 143.64311 97.50815 143.28739 96.30418 140.87944 C 95.75692 139.83964 95.94846 139.4292 97.28925 138.74512 C 97.97333 138.3894 98.1375 138.3894 98.84895 138.77248 C 100.10765 139.40183 101.06535 138.74512 100.18974 137.8695 C 99.72456 137.40433 98.63004 137.48642 97.28925 138.0884 C 95.59274 138.85457 94.77185 138.33467 94.77185 136.44662 C 94.77185 135.84463 94.96339 135.59837 95.67483 135.27001 C 97.01562 134.64066 97.42607 134.55857 100.79172 134.25758 C 106.78424 133.71031 109.41109 132.7526 115.34888 129.03123 C 123.22944 124.05115 127.08764 122.65563 131.08264 123.31235 C 133.79159 123.75016 136.58262 124.70786 138.71694 125.96656 C 140.41345 126.95164 140.44082 127.00636 140.05773 127.58099 C 139.42838 128.56606 140.11246 128.64815 140.90599 127.69044 C 142.93085 125.28249 150.09998 120.27505 154.8338 117.97655 C 157.8711 116.47158 161.18202 115.43178 162.87853 115.40442 C 163.78152 115.37706 163.78152 115.37706 163.37107 116.03377 Z"/>
            </g>
            <g>
               <path d="M 287.43524 189.25735 C 289.21384 190.54342 293.94765 192.54092 296.68396 193.19763 C 298.24365 193.55335 299.63917 194.01853 299.74862 194.23743 C 299.88544 194.42897 299.9949 194.97623 299.9949 195.46877 C 299.9949 195.98867 300.26852 196.64538 300.70633 197.16528 C 301.0894 197.63045 301.4725 198.50607 301.5546 199.10806 C 301.6914 200.1205 301.66404 200.20258 301.0347 200.20258 C 300.0496 200.20258 297.36803 199.46378 296.08197 198.80706 C 293.3183 197.41155 290.3631 194.53842 287.43524 190.37924 C 286.2039 188.60064 286.17654 188.38173 287.43524 189.25735 Z"/>
            </g>
            <g>
               <path d="M 143.47812 198.39662 C 142.93085 199.84686 141.20698 202.80207 140.71445 203.1578 C 139.89355 203.73242 136.17218 205.01848 133.16224 205.78465 C 126.48565 207.48116 120.3016 207.94633 113.78918 207.20753 C 109.49318 206.715 108.01557 206.82444 106.26434 207.72742 C 105.36136 208.1926 103.41858 210.73736 101.17481 214.37665 C 100.2171 215.93635 99.25939 217.16768 98.76686 217.41395 C 96.82408 218.50848 90.31167 222.9413 88.34153 224.55571 C 84.7296 227.48356 81.52812 230.87658 81.22713 232.10792 C 81.00822 232.90145 80.73459 233.28453 80.05051 233.64025 C 78.84654 234.24224 78.08037 234.95368 78.08037 235.47358 C 78.08037 235.69248 77.75202 236.15766 77.34157 236.486 C 76.79431 236.92382 76.46595 237.6079 76.05551 239.19496 L 75.48088 241.35664 L 73.62019 242.36907 C 71.86896 243.29942 69.543095 243.9835 68.038126 243.9835 C 67.29932 243.9835 67.21723 243.4636 67.764495 241.9039 C 68.33912 240.26212 68.53066 239.33177 68.28439 239.33177 C 68.01076 239.33177 67.16251 240.78202 66.56052 242.31435 C 66.28689 242.99842 66.067985 243.3815 66.067985 243.1626 C 66.067985 242.39644 69.21474 234.92632 69.43364 235.14522 C 69.57046 235.25468 69.59782 235.0084 69.48837 234.5706 C 69.21474 233.50344 69.70727 232.43628 70.71971 231.8343 C 71.15752 231.56066 71.78687 230.7945 72.11522 230.11042 C 72.71721 228.797 73.34656 228.4139 76.79431 227.18257 C 77.50575 226.90894 78.79181 226.17014 79.66743 225.54078 C 82.102745 223.73482 92.50071 214.23984 97.37134 209.39657 C 99.77929 207.01598 102.2146 204.74485 102.78923 204.36177 C 103.80166 203.6777 104.07529 203.65033 109.49318 203.45879 C 119.12498 203.10307 125.3364 202.22745 131.712 200.28467 C 135.32392 199.19015 140.304 197.35682 141.1249 196.80956 C 141.61743 196.4812 141.80897 196.53593 142.71195 197.11055 C 143.5602 197.68518 143.66966 197.87672 143.47812 198.39662 Z"/>
            </g>
            <g>
               <path d="M 304.23617 212.7075 C 304.5919 214.705 307.35556 222.66766 308.55953 225.18506 C 311.1043 230.54823 313.51225 233.94125 315.3182 234.68005 C 315.89283 234.92632 316.2212 235.3094 316.38537 235.96612 C 316.71373 237.11536 317.42517 237.96362 318.0545 237.96362 C 318.6565 237.96362 319.0396 238.4288 319.28586 239.3865 C 319.3953 239.8243 319.64157 240.09794 319.9152 240.09794 C 320.18884 240.07058 321.3381 240.7273 322.48733 241.49346 C 324.56693 242.88897 324.62165 242.97106 325.19628 244.74966 C 325.552 245.92627 325.82563 247.70487 325.9077 249.675 L 326.0719 252.7944 L 324.10176 251.78197 C 323.00723 251.2347 321.96744 250.85163 321.80326 250.90635 C 321.63908 250.96108 322.45997 251.59043 323.60922 252.3566 C 324.8953 253.1775 325.6888 253.88893 325.6888 254.18992 C 325.71618 254.4909 325.552 254.6551 325.3331 254.60037 C 324.649 254.4362 315.89283 248.22477 315.89283 247.86905 C 315.86547 247.6775 315.50975 247.5407 314.98985 247.5407 C 313.26598 247.5407 312.062 247.0208 311.59683 246.09045 C 311.35056 245.59792 310.61176 244.66757 309.95505 243.9835 C 308.47744 242.45116 307.82073 240.9462 307.2461 237.8268 C 306.39785 233.20244 301.8282 222.6403 297.9974 216.45624 C 297.1765 215.11545 296.51978 213.99357 296.54714 213.9662 C 296.5745 213.91148 297.77848 213.58312 299.20136 213.2274 C 300.62424 212.84432 302.2113 212.35178 302.7312 212.13288 C 304.04462 211.55825 304.01726 211.55825 304.23617 212.7075 Z"/>
            </g>
            <g>
               <g  id="outline-1">
                  <path
                        d="M 157.73428 118.71535 C 157.0502 119.04371 155.08006 120.65813 153.35619 122.32728 C 151.60495 123.96906 149.33381 125.88448 148.29402 126.56855 C 146.1597 127.9367 143.1224 129.30486 142.19205 129.33222 C 141.83633 129.33222 141.5627 129.44168 141.5627 129.60585 C 141.5627 130.04366 143.36866 129.90685 144.98309 129.35959 C 147.58258 128.42924 149.79899 126.86955 153.192 123.53125 C 154.99797 121.78001 156.72184 120.13823 157.02284 119.91933 C 158.19945 119.04371 158.28154 119.53624 157.29647 121.58847 C 156.94075 122.382 156.7492 123.03872 156.88602 123.03872 C 157.29647 123.03872 158.80144 120.24768 158.80144 119.50888 C 158.80144 118.93426 158.91089 118.87953 159.89596 118.98898 C 160.77158 119.07107 160.99048 118.98898 160.93576 118.66062 C 160.79894 118.00391 159.10243 118.03127 157.73428 118.71535 Z"
                        fill="black"/>
               </g>
            </g>
            <g>
               <g  id="outline-2">
                  <path
                        d="M 123.36626 131.41182 C 121.75184 132.0138 121.4782 132.45161 122.84636 132.23271 C 123.8588 132.0959 123.99561 132.15062 124.26924 132.7526 C 124.65232 133.54614 126.12993 134.5312 126.97818 134.5312 C 127.30654 134.5312 127.90853 134.23021 128.31897 133.8745 L 129.08514 133.24514 L 130.26175 133.76504 C 131.54782 134.33966 132.83388 134.33966 133.02542 133.7924 C 133.08015 133.60086 132.8886 133.3546 132.61498 133.2725 C 132.34135 133.16305 130.91847 132.61579 129.4135 132.04117 C 126.51301 130.89192 125.17222 130.7551 123.36626 131.41182 Z"
                        fill="black"/>
               </g>
            </g>
            <g>
               <g>
                  <g  id="feature-0">
                     <path
                           d="M 118.41354 136.17299 L 117.89364 137.59587 L 116.7444 137.4317 C 115.29415 137.24015 115.04788 137.59587 116.08768 138.41676 L 116.90857 139.04611 L 115.97823 139.73019 C 114.85634 140.55108 114.8837 140.9068 116.11504 141.09834 C 116.93594 141.2078 117.07275 141.37197 117.31902 142.43913 C 117.7021 143.9441 118.03046 144.08092 118.65981 143.01376 C 119.20707 142.11078 119.6996 141.97396 120.2195 142.63068 C 120.43841 142.84958 120.82149 143.17794 121.12249 143.34212 C 121.64238 143.61575 121.66975 143.56102 121.4782 142.49386 C 121.31403 141.39934 121.34139 141.37197 122.05283 141.37197 C 122.49064 141.37197 123.01054 141.23516 123.22944 141.09834 C 123.5578 140.87944 123.47571 140.71526 122.70954 140.05855 C 121.7792 139.29238 121.7792 139.29238 122.24437 138.44413 C 122.92845 137.10334 122.84636 136.93916 121.4782 137.1307 L 120.24687 137.32224 L 119.59015 136.03618 L 118.93344 134.72275 L 118.41354 136.17299 Z"
                           fill="#ff0000"/>
                  </g>
                  <path d="M 118.41354 136.17299 L 117.89364 137.59587 L 116.7444 137.4317 C 115.29415 137.24015 115.04788 137.59587 116.08768 138.41676 L 116.90857 139.04611 L 115.97823 139.73019 C 114.85634 140.55108 114.8837 140.9068 116.11504 141.09834 C 116.93594 141.2078 117.07275 141.37197 117.31902 142.43913 C 117.7021 143.9441 118.03046 144.08092 118.65981 143.01376 C 119.20707 142.11078 119.6996 141.97396 120.2195 142.63068 C 120.43841 142.84958 120.82149 143.17794 121.12249 143.34212 C 121.64238 143.61575 121.66975 143.56102 121.4782 142.49386 C 121.31403 141.39934 121.34139 141.37197 122.05283 141.37197 C 122.49064 141.37197 123.01054 141.23516 123.22944 141.09834 C 123.5578 140.87944 123.47571 140.71526 122.70954 140.05855 C 121.7792 139.29238 121.7792 139.29238 122.24437 138.44413 C 122.92845 137.10334 122.84636 136.93916 121.4782 137.1307 L 120.24687 137.32224 L 119.59015 136.03618 L 118.93344 134.72275 L 118.41354 136.17299 Z"
                        stroke="black"
                        stroke-linecap="round"
                        stroke-linejoin="round"
                        stroke-width="1"/>
               </g>
               <g>
                  <g  id="feature-1">
                     <path
                           d="M 315.59184 146.32469 L 314.9625 148.26747 L 313.12916 148.07593 C 311.9799 147.96647 311.21375 147.99384 311.1043 148.15802 C 311.0222 148.3222 311.48738 148.89682 312.1441 149.44408 L 313.37543 150.45651 L 311.9799 151.5784 C 311.21375 152.20775 310.5844 152.8371 310.61176 153.00128 C 310.63912 153.1381 311.3232 153.38436 312.1441 153.52118 L 313.6217 153.74008 L 314.08687 155.79231 C 314.3605 157.05101 314.6615 157.78982 314.85304 157.7351 C 315.04458 157.68037 315.59184 156.99629 316.11174 156.23012 L 317.0421 154.80724 L 318.5744 156.06594 C 319.9973 157.24256 320.10675 157.26992 320.18884 156.72266 C 320.24356 156.3943 320.16147 155.73759 319.9973 155.27242 C 319.8331 154.80724 319.6963 154.34207 319.6963 154.23262 C 319.6963 154.12317 320.4351 153.95899 321.36545 153.8769 C 322.26843 153.79481 323.1167 153.658 323.19877 153.54854 C 323.30823 153.43909 322.7336 152.78238 321.94007 152.0983 L 320.5172 150.81223 L 321.3381 149.38935 C 321.7759 148.59583 322.15898 147.88439 322.15898 147.77493 C 322.15898 147.66548 321.28336 147.66548 320.2162 147.7202 L 318.27342 147.88439 L 317.4799 146.13315 C 317.0421 145.17544 316.5769 144.38191 316.4401 144.38191 C 316.30328 144.38191 315.9202 145.25753 315.59184 146.32469 Z"
                           fill="#ff0000"/>
                  </g>
                  <path d="M 315.59184 146.32469 L 314.9625 148.26747 L 313.12916 148.07593 C 311.9799 147.96647 311.21375 147.99384 311.1043 148.15802 C 311.0222 148.3222 311.48738 148.89682 312.1441 149.44408 L 313.37543 150.45651 L 311.9799 151.5784 C 311.21375 152.20775 310.5844 152.8371 310.61176 153.00128 C 310.63912 153.1381 311.3232 153.38436 312.1441 153.52118 L 313.6217 153.74008 L 314.08687 155.79231 C 314.3605 157.05101 314.6615 157.78982 314.85304 157.7351 C 315.04458 157.68037 315.59184 156.99629 316.11174 156.23012 L 317.0421 154.80724 L 318.5744 156.06594 C 319.9973 157.24256 320.10675 157.26992 320.18884 156.72266 C 320.24356 156.3943 320.16147 155.73759 319.9973 155.27242 C 319.8331 154.80724 319.6963 154.34207 319.6963 154.23262 C 319.6963 154.12317 320.4351 153.95899 321.36545 153.8769 C 322.26843 153.79481 323.1167 153.658 323.19877 153.54854 C 323.30823 153.43909 322.7336 152.78238 321.94007 152.0983 L 320.5172 150.81223 L 321.3381 149.38935 C 321.7759 148.59583 322.15898 147.88439 322.15898 147.77493 C 322.15898 147.66548 321.28336 147.66548 320.2162 147.7202 L 318.27342 147.88439 L 317.4799 146.13315 C 317.0421 145.17544 316.5769 144.38191 316.4401 144.38191 C 316.30328 144.38191 315.9202 145.25753 315.59184 146.32469 Z"
                        stroke="black"
                        stroke-linecap="round"
                        stroke-linejoin="round"
                        stroke-width="1"/>
               </g>
               <g>
                  <g  id="feature-2">
                     <path
                           d="M 138.68958 149.03363 L 138.2244 150.40179 L 136.7468 150.40179 C 135.9259 150.40179 135.2692 150.51124 135.2692 150.64806 C 135.2692 150.78487 135.65228 151.19532 136.11745 151.5784 L 136.9657 152.23511 L 135.84382 153.11073 C 134.61248 154.0958 134.61248 154.50625 135.81646 154.50625 C 136.88362 154.50625 137.34879 155.05351 137.5677 156.55848 C 137.67714 157.24256 137.86869 157.78982 138.0055 157.78982 C 138.16968 157.78982 138.60749 157.29728 138.99057 156.6953 L 139.70201 155.60077 L 140.49554 156.1754 C 140.93335 156.47639 141.3438 156.83211 141.42589 156.96893 C 141.53534 157.1331 141.75424 157.24256 141.97315 157.24256 C 142.27414 157.24256 142.3015 157.05101 142.0826 156.36694 C 141.67215 154.88933 141.72688 154.77988 143.0403 154.77988 C 143.72438 154.77988 144.32637 154.67043 144.40846 154.53361 C 144.49055 154.42416 144.05274 153.90426 143.45075 153.43909 L 142.35623 152.5361 L 142.93085 151.60576 C 143.75175 150.21025 143.66966 150.07343 142.05524 150.18288 L 140.63236 150.26497 L 140.0851 148.9789 C 139.7841 148.2401 139.45574 147.66548 139.3463 147.66548 C 139.23684 147.66548 138.93585 148.26747 138.68958 149.03363 Z"
                           fill="#ff0000"/>
                  </g>
                  <path d="M 138.68958 149.03363 L 138.2244 150.40179 L 136.7468 150.40179 C 135.9259 150.40179 135.2692 150.51124 135.2692 150.64806 C 135.2692 150.78487 135.65228 151.19532 136.11745 151.5784 L 136.9657 152.23511 L 135.84382 153.11073 C 134.61248 154.0958 134.61248 154.50625 135.81646 154.50625 C 136.88362 154.50625 137.34879 155.05351 137.5677 156.55848 C 137.67714 157.24256 137.86869 157.78982 138.0055 157.78982 C 138.16968 157.78982 138.60749 157.29728 138.99057 156.6953 L 139.70201 155.60077 L 140.49554 156.1754 C 140.93335 156.47639 141.3438 156.83211 141.42589 156.96893 C 141.53534 157.1331 141.75424 157.24256 141.97315 157.24256 C 142.27414 157.24256 142.3015 157.05101 142.0826 156.36694 C 141.67215 154.88933 141.72688 154.77988 143.0403 154.77988 C 143.72438 154.77988 144.32637 154.67043 144.40846 154.53361 C 144.49055 154.42416 144.05274 153.90426 143.45075 153.43909 L 142.35623 152.5361 L 142.93085 151.60576 C 143.75175 150.21025 143.66966 150.07343 142.05524 150.18288 L 140.63236 150.26497 L 140.0851 148.9789 C 139.7841 148.2401 139.45574 147.66548 139.3463 147.66548 C 139.23684 147.66548 138.93585 148.26747 138.68958 149.03363 Z"
                        stroke="black"
                        stroke-linecap="round"
                        stroke-linejoin="round"
                        stroke-width="1"/>
               </g>
               <g>
                  <g  id="feature-3">
                     <path
                           d="M 298.7362 162.30472 L 298.24365 163.8097 L 296.51978 163.8097 C 294.4949 163.8097 294.276 164.19278 295.7536 165.20521 C 296.2735 165.56093 296.71132 165.91665 296.71132 165.99874 C 296.68396 166.08083 296.1367 166.546 295.47998 167.03854 C 294.7959 167.53107 294.24864 168.05097 294.24864 168.18779 C 294.24864 168.3246 294.7138 168.51614 295.28844 168.59823 C 296.84814 168.8445 297.06704 169.09077 297.3954 170.65046 C 297.5322 171.444 297.80584 172.15543 297.97002 172.21016 C 298.16156 172.26488 298.6541 171.82707 299.06454 171.22509 C 299.50235 170.6231 299.9949 170.13056 300.1317 170.13056 C 300.2959 170.13056 300.84314 170.48628 301.36304 170.9241 C 301.88294 171.38926 302.40284 171.74498 302.53965 171.74498 C 302.70383 171.74498 302.7312 171.143 302.62174 170.37683 L 302.4302 169.00868 L 303.79836 169.00868 C 304.53716 169.00868 305.22124 168.89923 305.30333 168.7624 C 305.41278 168.6256 304.89288 168.0236 304.2088 167.42162 L 302.9501 166.35446 L 303.66154 165.12312 C 304.04462 164.43904 304.37298 163.8097 304.37298 163.67288 C 304.37298 163.56343 303.6068 163.53606 302.70383 163.59079 L 301.00732 163.70024 L 300.3506 162.25 C 299.9949 161.45647 299.58444 160.79976 299.44763 160.79976 C 299.3108 160.79976 298.98246 161.48383 298.7362 162.30472 Z"
                           fill="#ff0000"/>
                  </g>
                  <path d="M 298.7362 162.30472 L 298.24365 163.8097 L 296.51978 163.8097 C 294.4949 163.8097 294.276 164.19278 295.7536 165.20521 C 296.2735 165.56093 296.71132 165.91665 296.71132 165.99874 C 296.68396 166.08083 296.1367 166.546 295.47998 167.03854 C 294.7959 167.53107 294.24864 168.05097 294.24864 168.18779 C 294.24864 168.3246 294.7138 168.51614 295.28844 168.59823 C 296.84814 168.8445 297.06704 169.09077 297.3954 170.65046 C 297.5322 171.444 297.80584 172.15543 297.97002 172.21016 C 298.16156 172.26488 298.6541 171.82707 299.06454 171.22509 C 299.50235 170.6231 299.9949 170.13056 300.1317 170.13056 C 300.2959 170.13056 300.84314 170.48628 301.36304 170.9241 C 301.88294 171.38926 302.40284 171.74498 302.53965 171.74498 C 302.70383 171.74498 302.7312 171.143 302.62174 170.37683 L 302.4302 169.00868 L 303.79836 169.00868 C 304.53716 169.00868 305.22124 168.89923 305.30333 168.7624 C 305.41278 168.6256 304.89288 168.0236 304.2088 167.42162 L 302.9501 166.35446 L 303.66154 165.12312 C 304.04462 164.43904 304.37298 163.8097 304.37298 163.67288 C 304.37298 163.56343 303.6068 163.53606 302.70383 163.59079 L 301.00732 163.70024 L 300.3506 162.25 C 299.9949 161.45647 299.58444 160.79976 299.44763 160.79976 C 299.3108 160.79976 298.98246 161.48383 298.7362 162.30472 Z"
                        stroke="black"
                        stroke-linecap="round"
                        stroke-linejoin="round"
                        stroke-width="1"/>
               </g>
               <g>
                  <g  id="feature-4">
                     <path
                           d="M 134.69457 165.15048 L 134.06522 167.0659 L 132.06771 166.90172 C 130.72692 166.79227 130.07021 166.847 130.07021 167.03854 C 130.07021 167.20271 130.59011 167.77734 131.24682 168.29724 L 132.39607 169.2823 L 131.79408 169.8022 C 131.46573 170.07584 130.80901 170.6231 130.34384 171.03354 C 129.4135 171.79971 129.46822 172.29225 130.4533 172.29225 C 130.80901 172.29225 131.46573 172.37434 131.95826 172.45642 C 132.6697 172.59324 132.83388 172.78478 132.9707 173.63304 C 133.27169 175.49373 133.65477 176.67034 133.90104 176.67034 C 134.06522 176.67034 134.61248 175.98626 135.15974 175.16537 L 136.17218 173.6604 L 137.43088 174.7002 C 139.42838 176.36934 139.4831 176.36934 139.29157 175.138 C 139.18211 174.56338 139.01794 173.79722 138.93585 173.49622 C 138.79903 172.94896 138.90848 172.89423 140.57763 172.7027 C 141.5627 172.6206 142.3836 172.42906 142.3836 172.34697 C 142.3836 172.23752 141.75424 171.5808 140.96071 170.89673 L 139.53783 169.63803 L 140.41345 168.26987 C 140.90599 167.53107 141.28907 166.81963 141.28907 166.68282 C 141.28907 166.57336 140.38609 166.51864 139.29157 166.60073 L 137.29406 166.73754 L 136.60998 165.09576 C 136.2269 164.16541 135.7891 163.39925 135.62491 163.34452 C 135.43337 163.26243 135.05029 164.05596 134.69457 165.15048 Z"
                           fill="#ff0000"/>
                  </g>
                  <path d="M 134.69457 165.15048 L 134.06522 167.0659 L 132.06771 166.90172 C 130.72692 166.79227 130.07021 166.847 130.07021 167.03854 C 130.07021 167.20271 130.59011 167.77734 131.24682 168.29724 L 132.39607 169.2823 L 131.79408 169.8022 C 131.46573 170.07584 130.80901 170.6231 130.34384 171.03354 C 129.4135 171.79971 129.46822 172.29225 130.4533 172.29225 C 130.80901 172.29225 131.46573 172.37434 131.95826 172.45642 C 132.6697 172.59324 132.83388 172.78478 132.9707 173.63304 C 133.27169 175.49373 133.65477 176.67034 133.90104 176.67034 C 134.06522 176.67034 134.61248 175.98626 135.15974 175.16537 L 136.17218 173.6604 L 137.43088 174.7002 C 139.42838 176.36934 139.4831 176.36934 139.29157 175.138 C 139.18211 174.56338 139.01794 173.79722 138.93585 173.49622 C 138.79903 172.94896 138.90848 172.89423 140.57763 172.7027 C 141.5627 172.6206 142.3836 172.42906 142.3836 172.34697 C 142.3836 172.23752 141.75424 171.5808 140.96071 170.89673 L 139.53783 169.63803 L 140.41345 168.26987 C 140.90599 167.53107 141.28907 166.81963 141.28907 166.68282 C 141.28907 166.57336 140.38609 166.51864 139.29157 166.60073 L 137.29406 166.73754 L 136.60998 165.09576 C 136.2269 164.16541 135.7891 163.39925 135.62491 163.34452 C 135.43337 163.26243 135.05029 164.05596 134.69457 165.15048 Z"
                        stroke="black"
                        stroke-linecap="round"
                        stroke-linejoin="round"
                        stroke-width="1"/>
               </g>
               <g>
                  <g  id="feature-5">
                     <path
                           d="M 250.74136 165.75247 L 250.05728 167.69525 L 248.16923 167.5858 C 245.816 167.47635 245.62446 167.83207 247.32098 169.03604 L 248.57968 169.93902 L 247.8135 170.51365 C 246.44536 171.49872 245.40556 172.51115 245.56974 172.67533 C 245.6792 172.78478 246.39063 172.9216 247.1568 173.03105 C 248.74385 173.2226 248.9354 173.4415 249.20903 175.32955 C 249.31848 176.04099 249.53738 176.80715 249.72893 177.08078 C 250.05728 177.49123 250.1941 177.38178 251.09708 175.98626 C 252.21897 174.31711 252.13688 174.31711 253.9702 175.79472 C 254.59955 176.31462 255.2289 176.67034 255.311 176.56089 C 255.42044 176.45143 255.36572 175.82208 255.17418 175.16537 C 254.98264 174.4813 254.84582 173.79722 254.84582 173.6604 C 254.84582 173.49622 255.58462 173.38677 256.46024 173.38677 C 258.29357 173.38677 258.7861 173.00369 257.91048 172.26488 C 257.58213 172.01862 256.95278 171.47135 256.4876 171.08827 L 255.63935 170.37683 L 256.46024 168.89923 C 256.9254 168.1057 257.3085 167.33953 257.3085 167.23008 C 257.3085 167.12063 256.4055 167.12063 255.311 167.20271 L 253.34085 167.39426 L 252.54732 165.61566 C 252.13688 164.63059 251.69907 163.8097 251.5896 163.8097 C 251.48016 163.8097 251.09708 164.68531 250.74136 165.75247 Z"
                           fill="#ff0000"/>
                  </g>
                  <path d="M 250.74136 165.75247 L 250.05728 167.69525 L 248.16923 167.5858 C 245.816 167.47635 245.62446 167.83207 247.32098 169.03604 L 248.57968 169.93902 L 247.8135 170.51365 C 246.44536 171.49872 245.40556 172.51115 245.56974 172.67533 C 245.6792 172.78478 246.39063 172.9216 247.1568 173.03105 C 248.74385 173.2226 248.9354 173.4415 249.20903 175.32955 C 249.31848 176.04099 249.53738 176.80715 249.72893 177.08078 C 250.05728 177.49123 250.1941 177.38178 251.09708 175.98626 C 252.21897 174.31711 252.13688 174.31711 253.9702 175.79472 C 254.59955 176.31462 255.2289 176.67034 255.311 176.56089 C 255.42044 176.45143 255.36572 175.82208 255.17418 175.16537 C 254.98264 174.4813 254.84582 173.79722 254.84582 173.6604 C 254.84582 173.49622 255.58462 173.38677 256.46024 173.38677 C 258.29357 173.38677 258.7861 173.00369 257.91048 172.26488 C 257.58213 172.01862 256.95278 171.47135 256.4876 171.08827 L 255.63935 170.37683 L 256.46024 168.89923 C 256.9254 168.1057 257.3085 167.33953 257.3085 167.23008 C 257.3085 167.12063 256.4055 167.12063 255.311 167.20271 L 253.34085 167.39426 L 252.54732 165.61566 C 252.13688 164.63059 251.69907 163.8097 251.5896 163.8097 C 251.48016 163.8097 251.09708 164.68531 250.74136 165.75247 Z"
                        stroke="black"
                        stroke-linecap="round"
                        stroke-linejoin="round"
                        stroke-width="1"/>
               </g>
               <g>
                  <g  id="feature-6">
                     <path
                           d="M 221.32606 164.87685 C 221.24397 165.0684 220.80616 166.21764 220.3957 167.44898 L 219.62955 169.69275 L 217.05742 169.69275 C 215.63454 169.69275 214.45793 169.77484 214.43056 169.8843 C 214.23902 170.4042 214.43056 170.65046 215.90817 171.77235 L 217.46786 172.9216 L 216.51016 173.63304 C 214.75892 174.97383 213.4455 176.31462 213.60967 176.58825 C 213.71912 176.75243 214.37584 176.97133 215.08728 177.05342 C 217.9604 177.46387 217.79622 177.35441 218.15194 179.2151 C 218.6992 182.06086 219.0002 182.96384 219.38328 182.96384 C 219.60218 182.96384 220.34099 182.06086 221.0798 180.93898 L 222.39322 178.9141 L 224.36336 180.52853 C 227.1544 182.79967 227.2912 182.74494 226.4156 179.62555 L 225.8957 177.79222 L 228.30364 177.60068 C 230.98522 177.40914 231.4504 177.08078 230.24642 176.1778 C 229.83597 175.8768 228.933 175.138 228.27628 174.56338 L 227.01758 173.49622 L 228.24891 171.49872 C 228.96035 170.29474 229.34344 169.39176 229.20662 169.25495 C 229.0698 169.11813 227.97528 169.11813 226.49768 169.25495 C 225.1569 169.39176 224.06236 169.47385 224.06236 169.47385 C 224.06236 169.44649 223.62455 168.48878 223.10466 167.3669 C 222.0375 164.9863 221.62705 164.43904 221.32606 164.87685 Z"
                           fill="#ff0000"/>
                  </g>
                  <path d="M 221.32606 164.87685 C 221.24397 165.0684 220.80616 166.21764 220.3957 167.44898 L 219.62955 169.69275 L 217.05742 169.69275 C 215.63454 169.69275 214.45793 169.77484 214.43056 169.8843 C 214.23902 170.4042 214.43056 170.65046 215.90817 171.77235 L 217.46786 172.9216 L 216.51016 173.63304 C 214.75892 174.97383 213.4455 176.31462 213.60967 176.58825 C 213.71912 176.75243 214.37584 176.97133 215.08728 177.05342 C 217.9604 177.46387 217.79622 177.35441 218.15194 179.2151 C 218.6992 182.06086 219.0002 182.96384 219.38328 182.96384 C 219.60218 182.96384 220.34099 182.06086 221.0798 180.93898 L 222.39322 178.9141 L 224.36336 180.52853 C 227.1544 182.79967 227.2912 182.74494 226.4156 179.62555 L 225.8957 177.79222 L 228.30364 177.60068 C 230.98522 177.40914 231.4504 177.08078 230.24642 176.1778 C 229.83597 175.8768 228.933 175.138 228.27628 174.56338 L 227.01758 173.49622 L 228.24891 171.49872 C 228.96035 170.29474 229.34344 169.39176 229.20662 169.25495 C 229.0698 169.11813 227.97528 169.11813 226.49768 169.25495 C 225.1569 169.39176 224.06236 169.47385 224.06236 169.47385 C 224.06236 169.44649 223.62455 168.48878 223.10466 167.3669 C 222.0375 164.9863 221.62705 164.43904 221.32606 164.87685 Z"
                        stroke="black"
                        stroke-linecap="round"
                        stroke-linejoin="round"
                        stroke-width="1"/>
               </g>
               <g>
                  <g  id="feature-7">
                     <path
                           d="M 197.71173 167.01117 C 197.5749 167.2848 197.30128 167.94152 197.1371 168.48878 L 196.8361 169.47385 L 195.33114 169.33703 C 194.51025 169.2823 193.82617 169.30967 193.82617 169.44649 C 193.82617 169.5833 194.20925 170.02111 194.70179 170.4042 L 195.5774 171.11563 L 194.56497 172.01862 C 194.0177 172.51115 193.55254 173.00369 193.55254 173.11314 C 193.55254 173.2226 194.0998 173.41413 194.75651 173.49622 C 195.93313 173.68776 195.93313 173.68776 196.1794 175.08328 C 196.3162 175.84945 196.56248 176.53352 196.75402 176.58825 C 196.9182 176.64297 197.356 176.20517 197.7391 175.57581 L 198.3958 174.4813 L 199.4356 175.30218 C 200.01022 175.74 200.58485 176.12308 200.72166 176.12308 C 200.83112 176.12308 200.9132 175.60318 200.88584 174.94646 L 200.80375 173.79722 L 201.98036 173.71513 C 202.60972 173.6604 203.12961 173.55095 203.12961 173.4415 C 203.12961 173.33204 202.66444 172.86687 202.11718 172.37434 L 201.07738 171.49872 L 201.70673 170.4042 C 202.0351 169.8022 202.30872 169.22758 202.30872 169.11813 C 202.30872 169.03604 201.62464 169.00868 200.80375 169.0634 L 199.32615 169.20022 L 198.75152 167.85943 C 198.45053 167.14799 198.12217 166.546 198.06745 166.546 C 198.01272 166.546 197.84854 166.7649 197.71173 167.01117 Z"
                           fill="#ff0000"/>
                  </g>
                  <path d="M 197.71173 167.01117 C 197.5749 167.2848 197.30128 167.94152 197.1371 168.48878 L 196.8361 169.47385 L 195.33114 169.33703 C 194.51025 169.2823 193.82617 169.30967 193.82617 169.44649 C 193.82617 169.5833 194.20925 170.02111 194.70179 170.4042 L 195.5774 171.11563 L 194.56497 172.01862 C 194.0177 172.51115 193.55254 173.00369 193.55254 173.11314 C 193.55254 173.2226 194.0998 173.41413 194.75651 173.49622 C 195.93313 173.68776 195.93313 173.68776 196.1794 175.08328 C 196.3162 175.84945 196.56248 176.53352 196.75402 176.58825 C 196.9182 176.64297 197.356 176.20517 197.7391 175.57581 L 198.3958 174.4813 L 199.4356 175.30218 C 200.01022 175.74 200.58485 176.12308 200.72166 176.12308 C 200.83112 176.12308 200.9132 175.60318 200.88584 174.94646 L 200.80375 173.79722 L 201.98036 173.71513 C 202.60972 173.6604 203.12961 173.55095 203.12961 173.4415 C 203.12961 173.33204 202.66444 172.86687 202.11718 172.37434 L 201.07738 171.49872 L 201.70673 170.4042 C 202.0351 169.8022 202.30872 169.22758 202.30872 169.11813 C 202.30872 169.03604 201.62464 169.00868 200.80375 169.0634 L 199.32615 169.20022 L 198.75152 167.85943 C 198.45053 167.14799 198.12217 166.546 198.06745 166.546 C 198.01272 166.546 197.84854 166.7649 197.71173 167.01117 Z"
                        stroke="black"
                        stroke-linecap="round"
                        stroke-linejoin="round"
                        stroke-width="1"/>
               </g>
               <g>
                  <g  id="feature-8">
                     <path
                           d="M 163.2069 169.61067 C 163.07008 169.96639 162.687 171.143 162.33127 172.26488 L 161.67456 174.28975 L 159.02034 174.0982 C 156.5303 173.93403 156.33876 173.9614 156.33876 174.42657 C 156.33876 174.72756 156.99547 175.41164 157.95318 176.09571 L 159.5676 177.27233 L 157.54274 178.9141 C 156.39349 179.78973 155.54523 180.6927 155.59996 180.85689 C 155.68205 181.15788 156.14722 181.26733 158.85616 181.7325 C 159.62233 181.84196 159.92332 182.0335 160.00541 182.49867 C 160.88103 186.79467 161.0452 187.34194 161.4283 187.34194 C 161.6472 187.34194 162.41336 186.43895 163.1248 185.34443 L 164.43823 183.31956 L 166.43573 184.93399 C 167.55762 185.8096 168.5427 186.52104 168.6795 186.52104 C 169.03523 186.52104 168.9805 185.8917 168.4606 184.05837 C 168.21433 183.15539 168.07752 182.36186 168.13224 182.27977 C 168.21433 182.22504 169.2815 182.08823 170.51283 181.97877 C 171.77153 181.86932 172.8387 181.67778 172.94814 181.5136 C 173.03023 181.34942 172.64715 180.85689 172.04516 180.39172 C 171.47054 179.92654 170.56756 179.16038 170.04766 178.6952 L 169.11731 177.84695 L 170.26656 175.90417 C 170.92328 174.83701 171.36109 173.82458 171.25163 173.6604 C 171.08746 173.38677 168.43324 173.49622 166.79145 173.82458 C 166.2442 173.93403 166.05265 173.68776 165.04022 171.47135 C 164.41087 170.13056 163.80888 169.00868 163.67206 169.00868 C 163.53525 169.00868 163.3437 169.2823 163.2069 169.61067 Z"
                           fill="#ff0000"/>
                  </g>
                  <path d="M 163.2069 169.61067 C 163.07008 169.96639 162.687 171.143 162.33127 172.26488 L 161.67456 174.28975 L 159.02034 174.0982 C 156.5303 173.93403 156.33876 173.9614 156.33876 174.42657 C 156.33876 174.72756 156.99547 175.41164 157.95318 176.09571 L 159.5676 177.27233 L 157.54274 178.9141 C 156.39349 179.78973 155.54523 180.6927 155.59996 180.85689 C 155.68205 181.15788 156.14722 181.26733 158.85616 181.7325 C 159.62233 181.84196 159.92332 182.0335 160.00541 182.49867 C 160.88103 186.79467 161.0452 187.34194 161.4283 187.34194 C 161.6472 187.34194 162.41336 186.43895 163.1248 185.34443 L 164.43823 183.31956 L 166.43573 184.93399 C 167.55762 185.8096 168.5427 186.52104 168.6795 186.52104 C 169.03523 186.52104 168.9805 185.8917 168.4606 184.05837 C 168.21433 183.15539 168.07752 182.36186 168.13224 182.27977 C 168.21433 182.22504 169.2815 182.08823 170.51283 181.97877 C 171.77153 181.86932 172.8387 181.67778 172.94814 181.5136 C 173.03023 181.34942 172.64715 180.85689 172.04516 180.39172 C 171.47054 179.92654 170.56756 179.16038 170.04766 178.6952 L 169.11731 177.84695 L 170.26656 175.90417 C 170.92328 174.83701 171.36109 173.82458 171.25163 173.6604 C 171.08746 173.38677 168.43324 173.49622 166.79145 173.82458 C 166.2442 173.93403 166.05265 173.68776 165.04022 171.47135 C 164.41087 170.13056 163.80888 169.00868 163.67206 169.00868 C 163.53525 169.00868 163.3437 169.2823 163.2069 169.61067 Z"
                        stroke="black"
                        stroke-linecap="round"
                        stroke-linejoin="round"
                        stroke-width="1"/>
               </g>
               <g>
                  <g  id="feature-9">
                     <path
                           d="M 264.25872 185.31707 L 263.4652 187.64293 L 261.27614 187.61557 C 260.07217 187.5882 258.92292 187.5882 258.75874 187.5882 C 258.07466 187.64293 258.43038 188.16283 259.85326 189.28471 C 260.61943 189.91406 261.3035 190.4887 261.33087 190.59814 C 261.35823 190.68023 260.59207 191.3643 259.63436 192.1031 C 257.17168 193.93644 257.25377 194.1827 260.4826 194.62051 L 261.87813 194.7847 L 262.2065 196.64538 C 262.5622 198.7797 262.91793 199.92895 263.301 199.92895 C 263.43782 199.92895 264.06718 199.13542 264.7239 198.15035 C 265.3806 197.19264 266.03732 196.37175 266.14677 196.37175 C 266.25622 196.37175 267.13184 196.97374 268.06218 197.7399 C 268.99253 198.4787 269.84078 199.10806 269.95024 199.10806 C 270.25123 199.10806 270.22387 197.93144 269.92287 197.13792 C 269.81342 196.7822 269.62188 196.1802 269.51243 195.7424 C 269.34825 195.03096 269.3756 195.0036 270.38804 195.0036 C 272.3582 195.0036 273.99997 194.67524 273.99997 194.29216 C 273.99997 194.07325 273.91788 193.90907 273.80843 193.90907 C 273.6716 193.90907 272.8781 193.25236 272.00247 192.45883 L 270.4154 191.03595 L 271.3731 189.42153 C 272.85072 187.01358 272.796 186.95885 269.9776 187.17776 L 267.56965 187.34194 L 266.5572 185.1529 C 266.00995 183.94891 265.43533 182.96384 265.2985 182.96384 C 265.1617 182.96384 264.69653 184.00364 264.25872 185.31707 Z"
                           fill="#ff0000"/>
                  </g>
                  <path d="M 264.25872 185.31707 L 263.4652 187.64293 L 261.27614 187.61557 C 260.07217 187.5882 258.92292 187.5882 258.75874 187.5882 C 258.07466 187.64293 258.43038 188.16283 259.85326 189.28471 C 260.61943 189.91406 261.3035 190.4887 261.33087 190.59814 C 261.35823 190.68023 260.59207 191.3643 259.63436 192.1031 C 257.17168 193.93644 257.25377 194.1827 260.4826 194.62051 L 261.87813 194.7847 L 262.2065 196.64538 C 262.5622 198.7797 262.91793 199.92895 263.301 199.92895 C 263.43782 199.92895 264.06718 199.13542 264.7239 198.15035 C 265.3806 197.19264 266.03732 196.37175 266.14677 196.37175 C 266.25622 196.37175 267.13184 196.97374 268.06218 197.7399 C 268.99253 198.4787 269.84078 199.10806 269.95024 199.10806 C 270.25123 199.10806 270.22387 197.93144 269.92287 197.13792 C 269.81342 196.7822 269.62188 196.1802 269.51243 195.7424 C 269.34825 195.03096 269.3756 195.0036 270.38804 195.0036 C 272.3582 195.0036 273.99997 194.67524 273.99997 194.29216 C 273.99997 194.07325 273.91788 193.90907 273.80843 193.90907 C 273.6716 193.90907 272.8781 193.25236 272.00247 192.45883 L 270.4154 191.03595 L 271.3731 189.42153 C 272.85072 187.01358 272.796 186.95885 269.9776 187.17776 L 267.56965 187.34194 L 266.5572 185.1529 C 266.00995 183.94891 265.43533 182.96384 265.2985 182.96384 C 265.1617 182.96384 264.69653 184.00364 264.25872 185.31707 Z"
                        stroke="black"
                        stroke-linecap="round"
                        stroke-linejoin="round"
                        stroke-width="1"/>
               </g>
               <g>
                  <g  id="feature-10">
                     <path
                           d="M 185.58988 184.52354 C 185.4257 184.96135 185.01526 186.08323 184.65954 187.0683 L 184.05755 188.8469 L 181.40333 188.73745 C 178.22922 188.628 178.03768 188.929 180.22672 190.65287 C 180.99289 191.28222 181.67696 191.85684 181.70433 191.9663 C 181.75905 192.04838 180.9108 192.81455 179.871 193.63544 C 177.24415 195.6603 177.29887 195.87921 180.50035 196.2623 C 182.33368 196.45384 182.3884 196.53593 182.85358 199.2996 C 183.18193 201.10556 183.75656 202.44635 184.05755 202.118 C 184.13964 202.0359 184.79636 201.0782 185.56252 200.01104 L 186.90331 198.01353 L 188.79136 199.5185 C 191.44558 201.62546 191.74658 201.54337 190.92568 198.8618 C 190.3237 196.83692 190.4605 196.64538 192.51274 196.64538 C 194.4008 196.64538 195.46795 196.42648 195.46795 196.07076 C 195.46795 195.9613 194.6197 195.1404 193.55254 194.29216 C 192.51274 193.41654 191.63712 192.623 191.63712 192.54092 C 191.63712 192.43147 192.12966 191.55585 192.73165 190.54342 C 193.33363 189.55834 193.82617 188.60064 193.82617 188.46382 C 193.82617 188.13546 191.93812 188.1081 189.8038 188.4091 C 189.01027 188.51855 188.35355 188.51855 188.35355 188.38173 C 188.35355 187.8892 186.35605 183.78474 186.10978 183.78474 C 185.97297 183.78474 185.75406 184.1131 185.58988 184.52354 Z"
                           fill="#ff0000"/>
                  </g>
                  <path d="M 185.58988 184.52354 C 185.4257 184.96135 185.01526 186.08323 184.65954 187.0683 L 184.05755 188.8469 L 181.40333 188.73745 C 178.22922 188.628 178.03768 188.929 180.22672 190.65287 C 180.99289 191.28222 181.67696 191.85684 181.70433 191.9663 C 181.75905 192.04838 180.9108 192.81455 179.871 193.63544 C 177.24415 195.6603 177.29887 195.87921 180.50035 196.2623 C 182.33368 196.45384 182.3884 196.53593 182.85358 199.2996 C 183.18193 201.10556 183.75656 202.44635 184.05755 202.118 C 184.13964 202.0359 184.79636 201.0782 185.56252 200.01104 L 186.90331 198.01353 L 188.79136 199.5185 C 191.44558 201.62546 191.74658 201.54337 190.92568 198.8618 C 190.3237 196.83692 190.4605 196.64538 192.51274 196.64538 C 194.4008 196.64538 195.46795 196.42648 195.46795 196.07076 C 195.46795 195.9613 194.6197 195.1404 193.55254 194.29216 C 192.51274 193.41654 191.63712 192.623 191.63712 192.54092 C 191.63712 192.43147 192.12966 191.55585 192.73165 190.54342 C 193.33363 189.55834 193.82617 188.60064 193.82617 188.46382 C 193.82617 188.13546 191.93812 188.1081 189.8038 188.4091 C 189.01027 188.51855 188.35355 188.51855 188.35355 188.38173 C 188.35355 187.8892 186.35605 183.78474 186.10978 183.78474 C 185.97297 183.78474 185.75406 184.1131 185.58988 184.52354 Z"
                        stroke="black"
                        stroke-linecap="round"
                        stroke-linejoin="round"
                        stroke-width="1"/>
               </g>
               <g>
                  <g  id="feature-11">
                     <path
                           d="M 213.39077 188.16283 L 212.9256 189.53098 L 211.448 189.53098 C 210.6271 189.53098 209.97038 189.64043 209.97038 189.77725 C 209.97038 189.91406 210.35346 190.3245 210.81864 190.7076 L 211.6669 191.3643 L 210.51764 192.2673 C 209.91566 192.75982 209.47785 193.225 209.55994 193.33445 C 209.6694 193.41654 210.244 193.60808 210.87336 193.77226 C 211.99525 194.0459 212.0226 194.07325 212.24152 195.46877 C 212.37833 196.2623 212.59724 196.919 212.73405 196.919 C 212.87087 196.919 213.30868 196.42648 213.69176 195.82449 L 214.4032 194.72997 L 215.19673 195.3046 C 215.63454 195.60558 216.04498 195.9613 216.12707 196.09812 C 216.23653 196.2623 216.4828 196.37175 216.72906 196.37175 C 217.0027 196.37175 217.08478 196.23493 216.94796 195.87921 C 216.86588 195.63295 216.7017 195.08569 216.6196 194.64788 C 216.4828 193.90907 216.4828 193.90907 217.8783 193.90907 C 218.64448 193.90907 219.27383 193.82698 219.27383 193.71753 C 219.27383 193.63544 218.7813 193.11554 218.1793 192.59565 L 217.05742 191.6653 L 217.79622 190.43396 L 218.50766 189.20262 L 216.89324 189.28471 L 215.30618 189.3668 L 214.78628 188.08074 C 214.4853 187.3693 214.15693 186.79467 214.04748 186.79467 C 213.93803 186.79467 213.63703 187.39666 213.39077 188.16283 Z"
                           fill="#ff0000"/>
                  </g>
                  <path d="M 213.39077 188.16283 L 212.9256 189.53098 L 211.448 189.53098 C 210.6271 189.53098 209.97038 189.64043 209.97038 189.77725 C 209.97038 189.91406 210.35346 190.3245 210.81864 190.7076 L 211.6669 191.3643 L 210.51764 192.2673 C 209.91566 192.75982 209.47785 193.225 209.55994 193.33445 C 209.6694 193.41654 210.244 193.60808 210.87336 193.77226 C 211.99525 194.0459 212.0226 194.07325 212.24152 195.46877 C 212.37833 196.2623 212.59724 196.919 212.73405 196.919 C 212.87087 196.919 213.30868 196.42648 213.69176 195.82449 L 214.4032 194.72997 L 215.19673 195.3046 C 215.63454 195.60558 216.04498 195.9613 216.12707 196.09812 C 216.23653 196.2623 216.4828 196.37175 216.72906 196.37175 C 217.0027 196.37175 217.08478 196.23493 216.94796 195.87921 C 216.86588 195.63295 216.7017 195.08569 216.6196 194.64788 C 216.4828 193.90907 216.4828 193.90907 217.8783 193.90907 C 218.64448 193.90907 219.27383 193.82698 219.27383 193.71753 C 219.27383 193.63544 218.7813 193.11554 218.1793 192.59565 L 217.05742 191.6653 L 217.79622 190.43396 L 218.50766 189.20262 L 216.89324 189.28471 L 215.30618 189.3668 L 214.78628 188.08074 C 214.4853 187.3693 214.15693 186.79467 214.04748 186.79467 C 213.93803 186.79467 213.63703 187.39666 213.39077 188.16283 Z"
                        stroke="black"
                        stroke-linecap="round"
                        stroke-linejoin="round"
                        stroke-width="1"/>
               </g>
               <g>
                  <g  id="feature-12">
                     <path
                           d="M 159.75914 194.34688 C 159.54024 194.89414 159.3487 195.5235 159.3487 195.71504 C 159.3487 195.98867 158.91089 196.09812 157.70691 196.09812 C 156.80393 196.09812 156.06513 196.20757 156.06513 196.31702 C 156.06513 196.45384 156.50294 196.86429 157.02284 197.24737 L 157.98054 197.93144 L 156.88602 198.80706 C 155.65468 199.79213 155.51787 200.20258 156.42085 200.20258 C 157.76164 200.20258 158.19945 200.50357 158.39099 201.516 C 158.80144 203.86923 158.96561 203.95132 160.00541 202.39163 L 160.74421 201.2971 L 161.81137 202.14536 C 163.07008 203.1578 163.39843 203.04834 162.98799 201.7349 C 162.8238 201.21501 162.76908 200.72248 162.85117 200.6404 C 162.93326 200.5583 163.53525 200.4762 164.19196 200.4762 C 164.84868 200.4762 165.36857 200.36676 165.36857 200.22994 C 165.36857 200.09313 164.9034 199.6006 164.35614 199.10806 L 163.31634 198.28716 L 163.9457 197.19264 C 164.27405 196.61802 164.54768 196.0434 164.54768 195.93394 C 164.54768 195.85185 163.8636 195.82449 163.04271 195.87921 L 161.53774 196.01603 L 161.09993 194.81205 C 160.49795 193.225 160.27904 193.1429 159.75914 194.34688 Z"
                           fill="#ff0000"/>
                  </g>
                  <path d="M 159.75914 194.34688 C 159.54024 194.89414 159.3487 195.5235 159.3487 195.71504 C 159.3487 195.98867 158.91089 196.09812 157.70691 196.09812 C 156.80393 196.09812 156.06513 196.20757 156.06513 196.31702 C 156.06513 196.45384 156.50294 196.86429 157.02284 197.24737 L 157.98054 197.93144 L 156.88602 198.80706 C 155.65468 199.79213 155.51787 200.20258 156.42085 200.20258 C 157.76164 200.20258 158.19945 200.50357 158.39099 201.516 C 158.80144 203.86923 158.96561 203.95132 160.00541 202.39163 L 160.74421 201.2971 L 161.81137 202.14536 C 163.07008 203.1578 163.39843 203.04834 162.98799 201.7349 C 162.8238 201.21501 162.76908 200.72248 162.85117 200.6404 C 162.93326 200.5583 163.53525 200.4762 164.19196 200.4762 C 164.84868 200.4762 165.36857 200.36676 165.36857 200.22994 C 165.36857 200.09313 164.9034 199.6006 164.35614 199.10806 L 163.31634 198.28716 L 163.9457 197.19264 C 164.27405 196.61802 164.54768 196.0434 164.54768 195.93394 C 164.54768 195.85185 163.8636 195.82449 163.04271 195.87921 L 161.53774 196.01603 L 161.09993 194.81205 C 160.49795 193.225 160.27904 193.1429 159.75914 194.34688 Z"
                        stroke="black"
                        stroke-linecap="round"
                        stroke-linejoin="round"
                        stroke-width="1"/>
               </g>
               <g>
                  <g  id="feature-13">
                     <path
                           d="M 282.61934 196.20757 C 282.40043 196.72747 282.2089 197.35682 282.2089 197.60309 C 282.2089 197.93144 281.85317 198.01353 280.51238 198.01353 L 278.7885 198.0409 L 279.8283 198.94388 L 280.84074 199.84686 L 279.7462 200.61303 C 278.4328 201.516 278.46015 201.95382 279.85567 202.06327 C 280.92283 202.14536 281.388 202.7747 281.388 204.1155 C 281.388 204.44386 281.5248 204.90903 281.66163 205.12793 C 281.88054 205.48365 281.96262 205.4563 282.31834 204.99112 C 282.5099 204.69012 282.92033 204.17023 283.19396 203.8145 L 283.71386 203.18515 L 284.67157 204.00605 C 285.19147 204.47122 285.73873 204.82694 285.87554 204.8543 C 286.01236 204.8543 286.03972 204.30704 285.95763 203.62296 L 285.7661 202.39163 L 286.8606 202.39163 C 287.43524 202.39163 287.9825 202.28217 288.09195 202.118 C 288.17404 201.98118 287.79096 201.46128 287.2437 200.94138 L 286.23126 200.01104 L 286.8059 199.05333 C 287.13425 198.50607 287.40788 198.01353 287.40788 197.90408 C 287.40788 197.822 286.75116 197.7399 285.95763 197.7399 C 284.5074 197.7399 284.48003 197.7399 283.9875 196.64538 C 283.3034 195.1404 283.0845 195.05832 282.61934 196.20757 Z"
                           fill="#ff0000"/>
                  </g>
                  <path d="M 282.61934 196.20757 C 282.40043 196.72747 282.2089 197.35682 282.2089 197.60309 C 282.2089 197.93144 281.85317 198.01353 280.51238 198.01353 L 278.7885 198.0409 L 279.8283 198.94388 L 280.84074 199.84686 L 279.7462 200.61303 C 278.4328 201.516 278.46015 201.95382 279.85567 202.06327 C 280.92283 202.14536 281.388 202.7747 281.388 204.1155 C 281.388 204.44386 281.5248 204.90903 281.66163 205.12793 C 281.88054 205.48365 281.96262 205.4563 282.31834 204.99112 C 282.5099 204.69012 282.92033 204.17023 283.19396 203.8145 L 283.71386 203.18515 L 284.67157 204.00605 C 285.19147 204.47122 285.73873 204.82694 285.87554 204.8543 C 286.01236 204.8543 286.03972 204.30704 285.95763 203.62296 L 285.7661 202.39163 L 286.8606 202.39163 C 287.43524 202.39163 287.9825 202.28217 288.09195 202.118 C 288.17404 201.98118 287.79096 201.46128 287.2437 200.94138 L 286.23126 200.01104 L 286.8059 199.05333 C 287.13425 198.50607 287.40788 198.01353 287.40788 197.90408 C 287.40788 197.822 286.75116 197.7399 285.95763 197.7399 C 284.5074 197.7399 284.48003 197.7399 283.9875 196.64538 C 283.3034 195.1404 283.0845 195.05832 282.61934 196.20757 Z"
                        stroke="black"
                        stroke-linecap="round"
                        stroke-linejoin="round"
                        stroke-width="1"/>
               </g>
               <g>
                  <g  id="feature-14">
                     <path
                           d="M 150.86615 203.32197 C 149.99053 205.56574 150.18207 205.40156 148.54028 205.40156 C 147.7194 205.40156 147.03532 205.51102 147.03532 205.62047 C 147.03532 205.75728 147.47312 206.16773 147.99302 206.55081 L 148.95073 207.2349 L 147.8562 208.1105 C 146.62487 209.09558 146.48805 209.50602 147.39104 209.50602 C 148.48556 209.50602 149.22436 209.83438 149.22436 210.29955 C 149.22436 211.03836 149.77162 212.7896 150.01789 212.7896 C 150.1547 212.7896 150.53779 212.35178 150.8935 211.83189 C 151.24923 211.31199 151.65967 210.87418 151.76913 210.87418 C 151.90594 210.87418 152.39848 211.17517 152.89101 211.55825 C 153.38355 211.94134 153.87608 212.24233 153.98554 212.24233 C 154.09499 212.24233 154.09499 211.69507 153.98554 211.011 L 153.82136 209.77966 L 155.08006 209.77966 C 155.76414 209.77966 156.33876 209.69757 156.33876 209.58811 C 156.33876 209.47866 155.90095 208.9314 155.35369 208.38414 L 154.34126 207.3717 L 154.94324 206.414 C 155.24424 205.8941 155.51787 205.3742 155.51787 205.2921 C 155.51787 205.18266 154.88852 205.12793 154.09499 205.1553 L 152.6721 205.23739 L 152.20694 204.1155 C 151.60495 202.69262 151.22187 202.44635 150.86615 203.32197 Z"
                           fill="#ff0000"/>
                  </g>
                  <path d="M 150.86615 203.32197 C 149.99053 205.56574 150.18207 205.40156 148.54028 205.40156 C 147.7194 205.40156 147.03532 205.51102 147.03532 205.62047 C 147.03532 205.75728 147.47312 206.16773 147.99302 206.55081 L 148.95073 207.2349 L 147.8562 208.1105 C 146.62487 209.09558 146.48805 209.50602 147.39104 209.50602 C 148.48556 209.50602 149.22436 209.83438 149.22436 210.29955 C 149.22436 211.03836 149.77162 212.7896 150.01789 212.7896 C 150.1547 212.7896 150.53779 212.35178 150.8935 211.83189 C 151.24923 211.31199 151.65967 210.87418 151.76913 210.87418 C 151.90594 210.87418 152.39848 211.17517 152.89101 211.55825 C 153.38355 211.94134 153.87608 212.24233 153.98554 212.24233 C 154.09499 212.24233 154.09499 211.69507 153.98554 211.011 L 153.82136 209.77966 L 155.08006 209.77966 C 155.76414 209.77966 156.33876 209.69757 156.33876 209.58811 C 156.33876 209.47866 155.90095 208.9314 155.35369 208.38414 L 154.34126 207.3717 L 154.94324 206.414 C 155.24424 205.8941 155.51787 205.3742 155.51787 205.2921 C 155.51787 205.18266 154.88852 205.12793 154.09499 205.1553 L 152.6721 205.23739 L 152.20694 204.1155 C 151.60495 202.69262 151.22187 202.44635 150.86615 203.32197 Z"
                        stroke="black"
                        stroke-linecap="round"
                        stroke-linejoin="round"
                        stroke-width="1"/>
               </g>
               <g>
                  <g  id="feature-15">
                     <path
                           d="M 269.08452 172.46617 L 268.61935 173.83432 L 267.14174 173.83432 C 266.32085 173.83432 265.66414 173.94377 265.66414 174.08059 C 265.66414 174.2174 266.04722 174.62785 266.5124 175.01093 L 267.36065 175.66765 L 266.2114 176.57063 C 265.6094 177.06316 265.1716 177.52834 265.2537 177.63779 C 265.36314 177.71988 265.93777 177.91142 266.56712 178.0756 C 267.689 178.34923 267.71637 178.3766 267.93527 179.7721 C 268.0721 180.56564 268.291 181.22235 268.4278 181.22235 C 268.56462 181.22235 269.00243 180.72982 269.3855 180.12783 L 270.09695 179.0333 L 270.8905 179.60793 C 271.3283 179.90892 271.73874 180.26464 271.82083 180.40146 C 271.93028 180.56564 272.17655 180.67509 272.4228 180.67509 C 272.69645 180.67509 272.77854 180.53827 272.64172 180.18255 C 272.55963 179.93629 272.39545 179.38902 272.31336 178.95122 C 272.17655 178.21241 272.17655 178.21241 273.57207 178.21241 C 274.33823 178.21241 274.96758 178.13032 274.96758 178.02087 C 274.96758 177.93878 274.47505 177.41888 273.87306 176.89899 L 272.75117 175.96864 L 273.48998 174.7373 L 274.2014 173.50596 L 272.587 173.58805 L 270.99994 173.67014 L 270.48004 172.38408 C 270.17904 171.67264 269.8507 171.09801 269.74123 171.09801 C 269.63178 171.09801 269.3308 171.7 269.08452 172.46617 Z"
                           fill="#ff0000"/>
                  </g>
                  <path d="M 269.08452 172.46617 L 268.61935 173.83432 L 267.14174 173.83432 C 266.32085 173.83432 265.66414 173.94377 265.66414 174.08059 C 265.66414 174.2174 266.04722 174.62785 266.5124 175.01093 L 267.36065 175.66765 L 266.2114 176.57063 C 265.6094 177.06316 265.1716 177.52834 265.2537 177.63779 C 265.36314 177.71988 265.93777 177.91142 266.56712 178.0756 C 267.689 178.34923 267.71637 178.3766 267.93527 179.7721 C 268.0721 180.56564 268.291 181.22235 268.4278 181.22235 C 268.56462 181.22235 269.00243 180.72982 269.3855 180.12783 L 270.09695 179.0333 L 270.8905 179.60793 C 271.3283 179.90892 271.73874 180.26464 271.82083 180.40146 C 271.93028 180.56564 272.17655 180.67509 272.4228 180.67509 C 272.69645 180.67509 272.77854 180.53827 272.64172 180.18255 C 272.55963 179.93629 272.39545 179.38902 272.31336 178.95122 C 272.17655 178.21241 272.17655 178.21241 273.57207 178.21241 C 274.33823 178.21241 274.96758 178.13032 274.96758 178.02087 C 274.96758 177.93878 274.47505 177.41888 273.87306 176.89899 L 272.75117 175.96864 L 273.48998 174.7373 L 274.2014 173.50596 L 272.587 173.58805 L 270.99994 173.67014 L 270.48004 172.38408 C 270.17904 171.67264 269.8507 171.09801 269.74123 171.09801 C 269.63178 171.09801 269.3308 171.7 269.08452 172.46617 Z"
                        stroke="black"
                        stroke-linecap="round"
                        stroke-linejoin="round"
                        stroke-width="1"/>
               </g>
               <g>
                  <g  id="feature-16">
                     <path
                           d="M 135.15284 126.21047 C 134.5003 127.88262 134.64304 127.76026 133.41952 127.76026 C 132.80776 127.76026 132.29796 127.84183 132.29796 127.9234 C 132.29796 128.02536 132.62423 128.33124 133.01168 128.61673 L 133.7254 129.12653 L 132.90972 129.77907 C 131.99208 130.51318 131.89012 130.81906 132.56305 130.81906 C 133.37873 130.81906 133.92932 131.06377 133.92932 131.41043 C 133.92932 131.96102 134.33716 133.2661 134.52069 133.2661 C 134.62265 133.2661 134.90813 132.93983 135.17323 132.55238 C 135.43833 132.16494 135.7442 131.83866 135.82577 131.83866 C 135.92773 131.83866 136.29479 132.06298 136.66185 132.34846 C 137.0289 132.63395 137.39596 132.85826 137.47753 132.85826 C 137.5591 132.85826 137.5591 132.45042 137.47753 131.94062 L 137.35517 131.02298 L 138.2932 131.02298 C 138.803 131.02298 139.23124 130.96181 139.23124 130.88024 C 139.23124 130.79867 138.90497 130.39083 138.49713 129.98299 L 137.74262 129.22849 L 138.19125 128.51477 C 138.41556 128.12732 138.61948 127.73987 138.61948 127.6787 C 138.61948 127.59713 138.15046 127.55634 137.5591 127.57674 L 136.49871 127.63791 L 136.15205 126.80184 C 135.70342 125.74146 135.41793 125.55793 135.15284 126.21047 Z"
                           fill="#ff0000"/>
                  </g>
                  <path d="M 135.15284 126.21047 C 134.5003 127.88262 134.64304 127.76026 133.41952 127.76026 C 132.80776 127.76026 132.29796 127.84183 132.29796 127.9234 C 132.29796 128.02536 132.62423 128.33124 133.01168 128.61673 L 133.7254 129.12653 L 132.90972 129.77907 C 131.99208 130.51318 131.89012 130.81906 132.56305 130.81906 C 133.37873 130.81906 133.92932 131.06377 133.92932 131.41043 C 133.92932 131.96102 134.33716 133.2661 134.52069 133.2661 C 134.62265 133.2661 134.90813 132.93983 135.17323 132.55238 C 135.43833 132.16494 135.7442 131.83866 135.82577 131.83866 C 135.92773 131.83866 136.29479 132.06298 136.66185 132.34846 C 137.0289 132.63395 137.39596 132.85826 137.47753 132.85826 C 137.5591 132.85826 137.5591 132.45042 137.47753 131.94062 L 137.35517 131.02298 L 138.2932 131.02298 C 138.803 131.02298 139.23124 130.96181 139.23124 130.88024 C 139.23124 130.79867 138.90497 130.39083 138.49713 129.98299 L 137.74262 129.22849 L 138.19125 128.51477 C 138.41556 128.12732 138.61948 127.73987 138.61948 127.6787 C 138.61948 127.59713 138.15046 127.55634 137.5591 127.57674 L 136.49871 127.63791 L 136.15205 126.80184 C 135.70342 125.74146 135.41793 125.55793 135.15284 126.21047 Z"
                        stroke="black"
                        stroke-linecap="round"
                        stroke-linejoin="round"
                        stroke-width="1"/>
               </g>
            </g>
         </g>
      </g>
   </g>
</svg>