<?xml version="1.0" encoding="UTF-8" standalone="no"?>
<!DOCTYPE svg PUBLIC "-//W3C//DTD SVG 1.1//EN" "http://www.w3.org/Graphics/SVG/1.1/DTD/svg11.dtd">
<svg xmlns:dc="http://purl.org/dc/elements/1.1/" xmlns:xl="http://www.w3.org/1999/xlink" version="1.1" xmlns="http://www.w3.org/2000/svg" viewBox="47.25 59.85186 256.5 355.5" width="256.5" height="355.5">
  <defs>
    <clipPath id="artboard_clip_path">
      <path d="M 47.25 59.85186 L 303.75 59.85186 L 303.75 415.35186 L 47.25 415.35186 Z"/>
    </clipPath>
  </defs>
  <metadata> Produced by OmniGraffle 7.7.1 
    <dc:date>2018-03-13 07:12:51 +0000</dc:date><dc:title>Traceable heraldic art http://heraldicart.org/credits.html</dc:title>
  </metadata>
  <g id="Yale_Rampant" fill-opacity="1" stroke-dasharray="none" stroke="none" stroke-opacity="1" fill="#ffff00">
    <title>Yale Rampant</title>
    <g id="Yale_Rampant: Layer 2" >
      <title>Layer 2</title>
      <g id="Group_3">
        <g id="Graphic_52">
          <path d="M 158.08065 64.16129 C 157.73226 64.741935 155.64194 65.32258 153.43548 65.32258 C 151.34516 65.32258 148.79032 66.13548 147.74516 67.06452 C 146.81613 67.99355 145.19032 68.80645 144.14516 68.80645 C 141.24194 68.80645 137.75806 71.0129 137.75806 72.75484 C 137.75806 73.68387 136.48065 75.19355 134.85484 76.23871 C 133.22903 77.28387 131.95161 79.14194 131.95161 80.30323 C 131.95161 81.46452 131.02258 83.32258 129.74516 84.36774 C 126.95806 86.92258 125.79677 92.72903 127.53871 95.86452 C 128.35161 97.25806 129.16452 100.50968 129.5129 103.06452 C 130.09355 107.12903 130.6742 107.70968 133.46129 108.05806 C 136.94516 108.52258 136.94516 108.52258 135.43548 101.55484 C 133.57742 93.89032 135.55161 88.43226 142.17097 82.74194 C 147.5129 77.86452 147.74516 77.86452 154.82903 78.44516 C 163.5387 79.14194 168.53226 82.27742 171.55161 89.12903 C 174.6871 96.09677 173.5258 101.09032 168.41613 103.18065 C 166.20968 104.10968 163.77097 106.31613 162.84194 108.17419 C 160.86774 112.00645 154.24839 117.92903 152.85484 117 C 152.39032 116.76774 152.15806 115.25806 152.50645 113.86452 C 152.73871 112.35484 152.39032 110.38065 151.69355 109.45161 C 150.64839 107.94194 150.41613 107.94194 149.37097 109.45161 C 148.79032 110.38065 147.97742 113.05161 147.62903 115.49032 C 147.04839 118.74194 146.23548 119.90323 144.37742 120.13548 C 142.2871 120.36774 141.4742 121.87742 140.08065 127.21935 C 138.91935 132.09677 138.80323 134.53548 139.61613 135.92903 C 141.1258 138.36774 146.58387 139.18065 148.79032 137.32258 C 149.95161 136.39355 150.64839 136.50968 151.34516 137.90323 C 152.15806 139.4129 150.99677 141.27097 146.00323 146.14839 C 142.51935 149.63226 139.15161 152.41935 138.6871 152.41935 C 138.22258 152.41935 137.75806 153.23226 137.75806 154.16129 C 137.75806 156.13548 143.21613 158.69032 145.19032 157.64516 C 149.95161 155.09032 151.9258 153.58065 154.01613 150.90968 C 156.45484 147.89032 156.45484 147.89032 158.66129 150.09677 C 162.02903 153.46452 166.09355 153.11613 168.06774 149.28387 C 170.04194 145.56774 176.19677 142.78065 180.2613 143.8258 L 183.16452 144.63871 L 179.9129 148.00645 C 178.17097 149.86452 172.01613 154.50968 166.3258 158.45806 C 152.97097 167.51613 152.39032 168.09677 148.79032 175.99355 L 145.65484 182.72903 L 137.5258 175.4129 C 132.99677 171.46452 128.58387 167.05161 127.65484 165.65806 C 125.56452 162.40645 120.45484 160.54839 113.71935 160.54839 C 109.30645 160.54839 107.68065 161.24516 103.5 164.9613 C 100.59677 167.51613 94.79032 170.76774 89.9129 172.6258 C 75.16452 178.2 74.00323 178.78065 72.26129 183.07742 C 71.33226 185.4 69.00968 188.1871 67.15161 189.23226 C 61.22903 192.94839 49.5 204.44516 49.5 206.76774 C 49.5 209.90323 57.396774 212.80645 64.7129 212.2258 C 73.07419 211.64516 73.30645 211.4129 76.67419 194.80645 C 77.13871 192.6 77.13871 192.6 77.95161 195.0387 C 78.99677 198.1742 82.94516 198.6387 83.99032 195.85161 C 84.6871 193.99355 84.80323 193.99355 86.08065 195.85161 C 87.59032 197.8258 91.30645 197.24516 91.30645 195.0387 C 91.30645 194.34194 92.00323 194.69032 92.81613 195.85161 C 94.20968 197.8258 94.55806 197.70968 97.1129 194.45806 C 99.66774 191.32258 100.01613 191.09032 101.29355 192.83226 C 102.6871 194.69032 102.91935 194.5742 104.54516 192.48387 C 105.47419 191.20645 106.40323 189.46452 106.40323 188.65161 C 106.40323 187.8387 106.86774 187.3742 107.33226 187.72258 C 107.9129 188.07097 109.42258 187.25806 110.81613 186.09677 C 114.06774 183.07742 116.50645 183.19355 119.29355 186.32903 C 123.35806 191.09032 125.33226 195.85161 126.84194 204.09677 C 128.46774 213.27097 128.11935 213.96774 121.38387 213.96774 C 119.06129 213.96774 116.50645 214.66452 115.80968 215.59355 C 114.99677 216.52258 111.62903 218.49677 108.26129 219.89032 C 103.15161 221.98065 101.64194 223.25806 99.55161 227.4387 C 98.27419 230.34194 95.02258 234.87097 92.46774 237.65806 C 88.63548 241.8387 87.82258 243.46452 87.82258 247.4129 C 87.82258 251.24516 87.24194 252.6387 85.03548 254.03226 C 82.36452 255.89032 78.06774 266.92258 76.55806 276.09677 C 75.97742 279.3484 76.32581 280.1613 77.83548 280.1613 C 80.04194 280.1613 87.12581 276.67742 94.44194 272.1484 C 100.01613 268.66452 100.48065 266.5742 97.1129 259.8387 C 94.32581 254.38065 94.20968 253.4516 96.53226 253.4516 C 97.46129 253.4516 98.27419 253.91613 98.27419 254.6129 C 98.27419 255.19355 99.0871 255.7742 100.01613 255.7742 C 100.94516 255.7742 101.75806 255.30968 101.75806 254.6129 C 101.75806 254.03226 102.45484 253.8 103.38387 254.1484 C 104.42903 254.6129 105.47419 253.4516 106.51935 250.66452 C 107.44839 248.2258 108.37742 247.06452 108.84194 247.7613 C 110.00323 249.61935 112.20968 247.99355 112.20968 245.32258 C 112.20968 244.1613 113.25484 242.41935 114.64839 241.49032 C 115.9258 240.5613 117.43548 238.35484 117.9 236.49677 C 118.59677 233.94194 119.64194 233.0129 122.77742 232.31613 C 124.98387 231.96774 127.19032 232.08387 127.77097 232.66452 C 128.46774 233.24516 129.62903 233.70968 130.55806 233.70968 C 131.37097 233.70968 134.50645 234.75484 137.5258 236.1484 C 140.54516 237.4258 144.02903 238.93548 145.30645 239.51613 C 146.58387 239.98065 151.34516 242.1871 155.8742 244.1613 C 162.7258 247.18065 164.58387 247.64516 166.6742 246.6 C 167.95161 245.7871 169.1129 245.67097 169.1129 246.2516 C 169.1129 247.7613 165.8613 250.31613 159.70645 253.8 C 154.36452 256.93548 149.37097 263.90323 149.37097 268.2 C 149.37097 271.4516 152.2742 276.90968 155.75806 280.1613 C 157.38387 281.67097 158.66129 283.4129 158.66129 283.99355 C 158.66129 285.15484 141.82258 284.34194 136.01613 282.9484 C 134.15806 282.48387 129.28065 282.01935 125.33226 282.01935 C 118.94516 281.90323 118.01613 282.2516 115.69355 285.0387 C 114.3 286.89677 112.09355 288.29032 110.46774 288.29032 C 108.7258 288.29032 106.40323 290.1484 103.5 293.7484 C 101.06129 296.88387 97.22903 301.18065 95.13871 303.50323 C 92.00323 306.75484 91.53871 307.91613 92.7 308.84516 C 95.37097 310.9355 101.52581 311.98065 110.23548 311.63226 C 113.71935 311.51613 114.53226 311.0516 114.53226 309.19355 C 114.53226 308.03226 115.57742 306.40645 116.73871 305.70968 C 118.24839 305.0129 119.17742 303.0387 119.40968 300.2516 C 119.75806 295.49032 122.08065 293.8645 123.24194 297.4645 C 124.05484 300.2516 128.23548 301.7613 129.97742 300.01935 C 131.95161 298.04516 133.1129 298.50968 134.2742 301.7613 C 135.31935 304.31613 135.78387 304.5484 137.17742 303.3871 C 138.6871 302.10968 138.91935 302.45806 138.91935 305.24516 C 139.03548 308.84516 141.59032 313.14194 142.75161 311.8645 C 143.21613 311.51613 143.56452 310.2387 143.56452 309.07742 C 143.56452 307.91613 144.37742 306.1742 145.42258 305.12903 C 148.09355 302.5742 150.06774 304.5484 148.20968 308.03226 C 146.81613 310.5871 147.39677 313.8387 149.25484 313.8387 C 149.83548 313.8387 150.64839 312.90968 150.99677 311.7484 C 151.46129 310.70323 152.62258 308.2645 153.66774 306.40645 C 155.17742 303.50323 155.64194 303.27097 156.57097 305.0129 C 157.15161 306.05806 157.5 308.2645 157.26774 310.00645 C 156.80323 313.8387 159.1258 314.6516 161.79677 311.63226 C 164.23548 308.72903 165.62903 308.49677 165.62903 310.9355 C 165.62903 313.25806 167.60323 313.14194 168.88065 310.81935 C 169.9258 308.9613 170.15806 308.9613 172.7129 310.81935 C 174.22258 311.8645 175.73226 312.67742 176.19677 312.67742 C 176.54516 312.67742 178.51935 310.35484 180.60968 307.4516 C 183.97742 302.69032 184.3258 301.52903 184.3258 293.4 C 184.3258 285.61935 184.55806 284.69032 186.3 285.3871 C 187.34516 285.8516 189.20323 286.5484 190.36452 286.78065 C 191.75806 287.24516 192.22258 288.05806 191.64194 289.3355 C 190.36452 292.35484 188.85484 300.9484 189.31935 302.45806 C 189.66774 303.27097 190.13226 305.3613 190.48065 307.10323 C 190.94516 308.9613 191.99032 310.35484 192.91935 310.35484 C 193.73226 310.35484 196.2871 313.8387 198.37742 318.1355 C 201.28065 324.1742 203.71935 327.0774 208.36452 330.6774 C 211.84839 333.23226 215.1 336.2516 215.68065 337.18065 C 217.0742 339.7355 210.45484 356.5742 204.64839 365.28387 C 202.3258 368.76774 198.02903 373.99355 195.24194 376.6645 C 192.10645 379.8 190.01613 382.81935 190.01613 384.32903 C 190.01613 385.8387 188.2742 388.74194 186.18387 390.83226 C 183.97742 392.80645 180.2613 397.10323 177.70645 400.35484 C 175.26774 403.4903 172.7129 406.5097 172.01613 406.9742 C 169.69355 408.6 173.40968 410.34194 180.84194 410.9226 C 184.90645 411.15484 188.97097 411.7355 189.66774 411.96774 C 191.99032 412.78065 194.6613 411.3871 194.6613 409.4129 C 194.6613 408.48387 195.59032 406.1613 196.63548 404.30323 C 198.2613 401.51613 198.37742 400.35484 197.33226 397.3355 C 196.17097 394.43226 196.2871 393.7355 197.79677 393.15484 C 198.84194 392.6903 200.35161 393.27097 201.28065 394.6645 C 202.55806 396.40645 203.25484 396.6387 205.1129 395.3613 C 206.39032 394.6645 208.13226 393.96774 208.94516 393.96774 C 209.75806 393.96774 211.15161 392.1097 211.96452 389.7871 C 212.77742 387.58065 214.17097 385.3742 215.1 385.0258 C 216.7258 384.44516 220.20968 378.29032 220.20968 376.08387 C 220.20968 375.3871 221.25484 374.10968 222.53226 373.4129 C 223.69355 372.6 225.31935 369.8129 226.13226 367.25806 C 226.94516 364.70323 227.8742 362.6129 228.3387 362.6129 C 229.61613 362.6129 232.98387 353.7871 232.98387 350.76774 C 232.98387 349.3742 234.2613 346.5871 235.8871 344.49677 C 239.1387 340.2 241.34516 330.90968 239.9516 327.30968 C 239.4871 325.91613 237.8613 323.8258 236.46774 322.5484 C 229.73226 316.50968 229.73226 308.03226 236.58387 301.29677 C 242.7387 295.14194 248.08065 284.34194 248.08065 278.1871 C 248.08065 274.35484 248.54516 273.19355 249.9387 273.19355 C 251.21613 273.19355 251.68065 272.49677 251.21613 270.87097 C 250.7516 269.0129 251.21613 268.5484 253.30645 268.5484 C 256.20968 268.5484 258.88065 270.6387 260.97097 274.47097 C 261.5516 275.7484 262.59677 276.44516 263.17742 276.09677 C 263.64194 275.7484 265.5 277.14194 267.1258 279 C 270.14516 282.71613 277.57742 286.5484 279.4355 285.3871 C 280.01613 285.0387 279.4355 282.9484 278.15806 280.74194 L 275.71935 276.67742 L 278.04194 276.67742 C 279.4355 276.67742 280.82903 277.25806 281.17742 277.8387 C 283.38387 281.4387 294.41613 275.16774 297.31935 268.5484 C 299.17742 264.36774 301.5 253.91613 301.5 249.8516 C 301.5 246.36774 299.40968 247.29677 297.4355 251.47742 C 295.80968 255.07742 286.40323 261.92903 286.40323 259.60645 C 286.40323 259.14194 288.7258 256.2387 291.62903 253.21935 L 296.85484 247.64516 L 296.85484 237.19355 C 296.85484 231.0387 296.39032 226.74194 295.69355 226.74194 C 295.1129 226.74194 294.53226 227.4387 294.53226 228.2516 C 294.53226 229.06452 293.8355 230.69032 293.1387 231.73548 C 291.8613 233.3613 291.62903 232.43226 291.62903 225.8129 C 291.62903 219.07742 291.1645 217.10323 288.37742 213.0387 C 286.6355 210.36774 285.24194 207.11613 285.24194 205.8387 C 285.24194 204.32903 284.42903 203.51613 283.0355 203.51613 C 281.5258 203.51613 280.3645 202.2387 279.5516 199.68387 C 278.85484 197.70968 276.18387 193.64516 273.62903 190.85806 C 271.0742 188.07097 268.05484 183.7742 267.00968 181.33548 C 265.03548 177.0387 260.97097 174.71613 262.48065 178.78065 C 262.94516 179.8258 263.5258 183.65806 263.99032 187.14194 C 264.6871 194.69032 261.43548 211.7613 259.34516 211.29677 C 257.60323 210.94839 257.25484 218.1484 258.6484 226.74194 C 259.34516 230.92258 261.0871 235.10323 263.75806 238.93548 C 268.40323 245.67097 268.86774 249.8516 265.5 252.87097 C 263.75806 254.38065 262.13226 254.72903 258.88065 254.26452 C 254.3516 253.4516 251.1 250.5484 244.01613 240.5613 C 239.71935 234.52258 233.9129 228.6 226.82903 222.90968 C 220.3258 217.68387 217.77097 213.15484 217.65484 206.76774 C 217.65484 204.09677 216.37742 199.21935 214.75161 195.85161 C 212.42903 190.85806 212.19677 189.23226 213.24194 187.25806 C 214.17097 185.51613 215.33226 184.93548 217.0742 185.28387 C 219.0484 185.74839 220.44194 184.81935 223.1129 181.21935 C 228.6871 173.67097 229.5 171.8129 229.5 167.28387 C 229.5 164.9613 230.08065 162.87097 230.77742 162.6387 C 231.59032 162.40645 232.63548 158.92258 233.1 155.09032 C 233.68065 151.14194 234.14516 147.54194 234.2613 146.96129 C 235.19032 141.85161 233.79677 134.76774 231.1258 130.93548 C 227.64194 125.70968 227.99032 124.43226 233.56452 121.76129 C 235.8871 120.6 237.5129 119.09032 237.28065 118.39355 C 237.0484 117.58065 233.33226 115.60645 229.1516 113.98065 L 221.37097 111.07742 L 225.43548 106.31613 C 227.64194 103.64516 229.5 101.20645 229.5 100.85806 C 229.5 100.50968 224.7387 100.04516 218.93226 99.92903 L 208.48065 99.58065 L 211.73226 95.4 C 217.65484 87.85161 232.05484 81.23226 242.2742 81.46452 C 255.74516 81.8129 267.59032 91.68387 268.7516 103.76129 C 269.21613 108.63871 268.86774 109.68387 266.19677 112.12258 C 264.57097 113.63226 263.5258 115.25806 263.99032 115.60645 C 266.89355 118.6258 275.1387 112.12258 274.6742 107.24516 C 274.44194 105.61935 275.02258 103.06452 275.71935 101.67097 C 276.7645 99.69677 276.7645 98.41935 275.71935 96.2129 C 275.02258 94.5871 273.97742 93.19355 273.39677 93.19355 C 272.81613 93.19355 272.81613 91.91613 273.1645 90.17419 C 273.74516 88.08387 273.1645 86.45806 271.19032 84.36774 C 269.79677 82.85806 267.82258 81.58065 267.00968 81.58065 C 266.19677 81.58065 264.91935 80.30323 264.3387 78.67742 C 262.94516 75.07742 256.79032 71.24516 253.77097 71.941935 C 252.37742 72.40645 250.40323 71.59355 248.6613 69.96774 C 246.22258 67.76129 245.17742 67.4129 240.88065 68.22581 C 238.09355 68.69032 234.14516 69.03871 232.05484 68.92258 C 229.96452 68.80645 226.82903 69.503226 225.0871 70.43226 C 223.34516 71.24516 220.3258 71.82581 218.46774 71.47742 C 215.9129 71.12903 214.2871 71.59355 212.77742 73.33548 C 211.5 74.72903 209.40968 75.77419 208.13226 75.77419 C 206.7387 75.77419 203.4871 77.63226 201.04839 79.95484 C 198.49355 82.27742 195.24194 85.18065 193.84839 86.45806 C 192.3387 87.73548 191.17742 89.70968 191.17742 90.75484 C 191.17742 93.54194 185.4871 86.22581 185.37097 83.20645 C 185.37097 81.92903 183.8613 79.37419 181.8871 77.51613 C 180.02903 75.658065 178.40323 73.45161 178.40323 72.63871 C 178.40323 69.73548 172.82903 65.32258 169.22903 65.32258 C 167.37097 65.32258 165.39677 64.741935 165.04839 64.16129 C 164.7 63.464516 163.0742 63 161.56452 63 C 160.05484 63 158.42903 63.464516 158.08065 64.16129 Z M 164.23548 134.53548 L 164.23548 134.53548 C 163.0742 135.69677 160.98387 133.83871 160.98387 131.74839 C 160.98387 130.00645 161.1 130.00645 162.95806 131.86452 C 164.00323 132.90968 164.58387 134.07097 164.23548 134.53548 Z" fill="#cccccc"/>
        </g>
        <g id="Graphic_51">
          <path d="M 163.77097 67.06452 C 164.23548 68.22581 165.39677 68.57419 167.83548 68.10968 C 171.9 67.296774 176.08065 70.780645 176.08065 75.19355 C 176.08065 76.819355 176.6613 78.09677 177.4742 78.09677 C 180.02903 78.09677 183.04839 81.92903 183.04839 85.29677 C 183.04839 87.15484 183.74516 88.89677 184.79032 89.24516 C 186.99677 90.17419 187.1129 95.98065 185.02258 97.72258 C 184.09355 98.41935 181.77097 99.34839 179.79677 99.69677 C 175.96452 100.50968 175.5 99.92903 175.96452 95.28387 C 176.42903 91.45161 171.66774 83.09032 167.37097 79.83871 C 162.37742 76.00645 153.20323 74.72903 146.58387 76.93548 C 138.22258 79.60645 131.95161 87.3871 131.95161 94.93548 C 131.95161 96.67742 131.4871 97.72258 130.79032 97.25806 C 128.46774 95.74839 129.5129 88.54839 132.53226 85.76129 C 134.39032 84.01935 135.20323 82.27742 134.73871 81.11613 C 134.15806 79.72258 134.97097 78.79355 137.64194 77.74839 C 140.19677 76.819355 141.00968 75.89032 140.66129 74.49677 C 140.19677 72.9871 140.89355 72.29032 143.79677 71.70968 C 145.8871 71.24516 148.55806 70.08387 149.60323 69.15484 C 150.76452 68.10968 152.62258 67.64516 153.9 67.99355 C 155.17742 68.341935 157.15161 67.87742 158.3129 66.94839 C 161.1 64.858065 162.95806 64.97419 163.77097 67.06452 Z" fill="#ff0000"/>
        </g>
        <g id="Graphic_50">
          <path d="M 247.73226 72.9871 C 249.9387 75.19355 251.4484 75.77419 253.5387 75.19355 C 257.25484 74.26452 261.66774 77.16774 262.2484 80.65161 C 262.48065 82.16129 263.5258 83.43871 264.91935 83.67097 C 268.40323 84.36774 271.42258 87.50323 271.0742 90.29032 C 270.95806 91.68387 271.65484 94.12258 272.7 95.74839 C 273.8613 97.49032 274.20968 99.23226 273.62903 100.27742 C 272.46774 102.13548 272.3516 102.01935 269.79677 96.67742 C 258.3 72.17419 222.06774 73.91613 205.4613 99.8129 C 201.97742 105.27097 201.04839 105.96774 197.68065 105.96774 C 190.36452 105.96774 185.02258 98.30323 190.59677 95.74839 C 192.10645 95.05161 193.61613 93.30968 194.08065 91.8 C 195.24194 87.96774 198.14516 85.06452 200.7 85.06452 C 201.8613 85.06452 203.25484 83.90323 203.83548 82.27742 C 205.1129 79.14194 207.43548 77.980645 210.80323 78.90968 C 212.3129 79.25806 213.24194 79.02581 213.24194 78.09677 C 213.24194 75.07742 216.37742 73.45161 219.74516 74.6129 C 222.41613 75.658065 223.34516 75.42581 225.66774 73.219355 C 228.3387 70.66452 228.57097 70.66452 231.9387 72.52258 C 235.19032 74.49677 235.42258 74.49677 237.62903 72.29032 C 240.76452 69.15484 244.13226 69.3871 247.73226 72.9871 Z" fill="#ff0000"/>
        </g>
        <g id="Graphic_49">
          <path d="M 132.76452 105.03871 C 132.41613 105.85161 132.18387 105.27097 132.18387 103.64516 C 132.18387 102.01935 132.41613 101.43871 132.76452 102.13548 C 132.99677 102.94839 132.99677 104.34194 132.76452 105.03871 Z" fill="#ff0000"/>
        </g>
        <g id="Graphic_48">
          <path d="M 187.80968 104.34194 C 191.17742 107.59355 200.23548 110.03226 202.09355 108.29032 C 202.6742 107.70968 204.18387 107.94194 205.57742 108.87097 C 206.85484 109.68387 210.10645 110.84516 212.6613 111.30968 C 216.84194 112.12258 217.0742 112.23871 214.40323 112.93548 C 212.77742 113.4 211.61613 114.32903 211.84839 115.0258 C 211.96452 116.07097 211.5 116.07097 209.75806 115.0258 C 208.59677 114.2129 207.20323 113.98065 206.7387 114.32903 C 205.69355 115.3742 210.80323 121.52903 214.75161 123.96774 C 217.65484 125.70968 217.77097 126.05806 216.14516 128.38065 C 211.61613 134.88387 216.60968 143.59355 224.62258 143.0129 C 226.94516 142.78065 229.61613 142.2 230.42903 141.61935 C 231.4742 140.80645 231.82258 141.50323 231.82258 144.63871 C 231.82258 146.96129 231.35806 149.16774 230.6613 149.51613 C 230.08065 149.86452 229.5 149.16774 229.5 147.89032 C 229.5 144.63871 226.48065 144.75484 225.5516 148.00645 C 225.20323 149.51613 225.43548 153.34839 226.13226 156.6 C 227.8742 164.49677 226.59677 172.50968 222.99677 176.5742 L 220.09355 179.70968 L 220.44194 172.50968 C 221.02258 160.78065 218.46774 161.94194 215.68065 174.48387 C 214.17097 181.91613 209.40968 190.6258 208.13226 188.53548 C 207.66774 187.72258 207.66774 186.5613 208.24839 185.74839 C 209.29355 184.47097 212.08065 175.7613 212.08065 174.01935 C 212.08065 173.67097 211.26774 173.32258 210.3387 173.32258 C 209.40968 173.32258 208.59677 173.7871 208.59677 174.36774 C 208.59677 174.94839 207.66774 175.7613 206.62258 176.2258 C 205.4613 176.5742 207.31935 174.25161 210.6871 171 C 216.60968 165.07742 217.8871 162.52258 215.56452 161.12903 C 214.86774 160.78065 213.9387 161.70968 213.24194 163.45161 C 212.6613 165.07742 209.75806 168.67742 206.97097 171.34839 C 201.97742 176.2258 198.2613 184.5871 199.8871 187.25806 C 200.93226 188.88387 204.06774 188.65161 203.83548 186.90968 C 203.4871 184.93548 205.1129 181.45161 206.39032 181.45161 C 207.0871 181.45161 206.97097 182.6129 206.15806 183.89032 C 205.4613 185.28387 205.1129 187.72258 205.4613 189.46452 C 206.04194 192.36774 205.80968 192.6 201.97742 192.6 C 196.98387 192.6 193.5 196.31613 193.5 201.65806 C 193.61613 208.50968 199.65484 212.5742 206.2742 210.36774 C 210.3387 208.85806 212.08065 206.30323 212.08065 201.54194 C 212.08065 198.9871 212.3129 198.6387 213.24194 200.03226 C 213.82258 200.9613 214.40323 203.63226 214.40323 205.95484 C 214.40323 210.36774 217.0742 217.91613 218.93226 219.19355 C 219.74516 219.65806 219.74516 220.93548 218.93226 222.90968 C 215.68065 231.61935 224.97097 240.44516 232.2871 235.56774 C 235.0742 233.8258 235.30645 233.94194 238.6742 237.89032 C 242.7387 242.41935 242.97097 243.58065 240.53226 246.01935 C 238.20968 248.45806 238.3258 254.9613 240.88065 257.98065 C 243.43548 261.11613 250.63548 261.58065 253.65484 258.90968 C 254.93226 257.7484 257.71935 256.93548 260.2742 256.93548 C 269.68065 256.93548 273.1645 247.87742 267.24194 239.0516 L 264.45484 234.87097 L 267.1258 234.87097 C 271.0742 234.87097 275.9516 229.87742 275.9516 225.8129 C 275.9516 221.0516 271.8871 216.29032 267.82258 216.29032 C 265.26774 216.29032 264.45484 215.59355 263.8742 213.3871 C 263.40968 211.7613 263.40968 210.01935 263.64194 209.4387 C 263.99032 208.9742 264.45484 207 264.80323 205.14194 C 265.1516 203.28387 265.96452 199.21935 266.54516 195.96774 C 267.1258 192.83226 267.35806 189.8129 267.1258 189.34839 C 265.73226 187.25806 268.17097 188.65161 270.84194 191.55484 C 276.7645 198.29032 279.4355 205.25806 280.48065 216.75484 C 280.94516 221.63226 281.75806 225 282.6871 225.3484 C 283.61613 225.58065 284.08065 224.41935 284.19677 221.86452 C 284.19677 219.7742 284.6613 216.9871 285.1258 215.70968 C 286.05484 213.50323 286.05484 213.50323 287.33226 215.8258 C 290.11935 221.0516 290.11935 227.09032 287.5645 234.6387 C 286.17097 238.70323 285.35806 242.30323 285.70645 242.6516 C 286.05484 243 288.2613 241.3742 290.46774 239.0516 L 294.53226 234.75484 L 294.53226 240.2129 C 294.53226 244.74194 293.8355 246.48387 290.3516 250.78065 C 286.51935 255.4258 286.05484 255.7742 284.6613 253.8 C 282.3387 250.66452 273.8613 251.24516 271.0742 254.6129 C 266.3129 260.53548 270.37742 269.70968 277.69355 269.70968 C 281.0613 269.70968 286.40323 266.2258 287.68065 263.20645 C 287.9129 262.6258 290.3516 260.76774 293.1387 258.90968 L 298.01613 255.7742 L 298.01613 258.32903 C 298.01613 263.4387 292.79032 272.49677 288.60968 274.81935 C 284.77742 276.90968 284.54516 276.79355 277.80968 274.47097 C 273.97742 273.19355 270.7258 272.2645 270.49355 272.49677 C 270.2613 272.72903 271.42258 274.9355 273.0484 277.25806 C 274.6742 279.69677 275.71935 281.90323 275.4871 282.2516 C 274.6742 282.9484 267.82258 277.95484 267.82258 276.5613 C 267.82258 275.28387 263.5258 270.87097 262.36452 270.87097 C 261.9 270.87097 260.50645 269.59355 259.1129 267.8516 C 257.02258 265.29677 256.20968 265.06452 251.9129 265.7613 C 246.45484 266.5742 245.29355 268.5484 245.75806 276.32903 C 245.8742 279 245.0613 283.18065 243.9 285.61935 C 241.57742 290.49677 233.68065 301.18065 231.24194 302.5742 C 230.3129 303.0387 229.26774 305.24516 228.80323 307.4516 C 227.64194 313.95484 229.1516 319.18065 233.68065 323.3613 C 237.62903 327.0774 237.74516 327.30968 237.0484 333.58065 C 236.58387 337.0645 235.42258 340.89677 234.49355 341.94194 C 233.4484 343.10323 231.70645 346.81935 230.54516 350.07097 C 229.38387 353.4387 227.75806 356.2258 226.94516 356.2258 C 226.13226 356.2258 225.31935 357.8516 225.0871 360.1742 C 224.85484 362.72903 224.04194 364.2387 222.53226 364.5871 C 221.37097 364.9355 220.09355 365.8645 219.74516 366.79355 C 219.28065 368.07097 218.00323 368.30323 215.21613 367.8387 C 206.50645 366.2129 201.04839 377.24516 207.31935 383.8645 L 209.8742 386.6516 L 206.97097 386.1871 C 204.3 385.60645 203.95161 385.95484 203.95161 389.20645 C 203.95161 392.5742 203.71935 392.80645 201.5129 391.52903 C 198.49355 390.01935 193.5 391.7613 193.5 394.5484 C 193.5 395.4774 193.03548 396.2903 192.45484 396.2903 C 190.7129 396.2903 189.9 392.80645 191.17742 390.48387 C 191.8742 389.3226 192.3387 387 192.3387 385.3742 C 192.3387 383.51613 193.15161 382.2387 194.6613 381.7742 C 195.9387 381.4258 196.98387 380.38065 196.98387 379.68387 C 196.98387 378.87097 197.9129 377.3613 199.0742 376.43226 C 202.44194 373.4129 207.43548 367.3742 207.43548 366.2129 C 207.43548 365.63226 208.24839 364.5871 209.17742 363.7742 C 210.10645 362.9613 210.91935 361.3355 210.91935 360.1742 C 210.91935 358.89677 211.5 357.96774 212.08065 357.96774 C 212.77742 357.96774 213.24194 357.15484 213.24194 356.2258 C 213.24194 355.18065 214.05484 352.85806 214.98387 351 C 216.49355 348.2129 217.5387 347.51613 220.79032 347.51613 C 228.6871 347.51613 232.51935 336.48387 226.59677 330.6774 C 223.69355 327.65806 217.5387 326.72903 216.14516 328.9355 C 213.82258 332.76774 204.41613 325.3355 200.23548 316.27742 C 198.95806 313.3742 196.51935 310.00645 195.00968 308.72903 C 192.22258 306.6387 192.10645 305.94194 192.57097 298.85806 C 192.91935 294.5613 193.73226 290.1484 194.3129 288.87097 C 195.00968 287.59355 196.98387 283.52903 198.7258 279.92903 C 200.46774 276.32903 203.83548 270.6387 206.39032 267.27097 C 208.82903 263.90323 210.91935 260.53548 210.91935 259.8387 C 210.91935 259.14194 212.77742 257.0516 214.98387 255.30968 C 219.39677 251.70968 219.97742 249.27097 217.30645 244.1613 C 213.00968 235.91613 199.42258 238.93548 199.5387 248.10968 C 199.65484 252.1742 203.25484 256.93548 206.50645 256.93548 C 208.94516 256.93548 209.17742 259.0258 206.97097 261.8129 C 205.57742 263.7871 205.34516 263.7871 203.25484 261.46452 C 202.09355 260.1871 196.2871 256.70323 190.48065 253.91613 C 178.98387 248.2258 175.5 245.32258 174.6871 240.32903 C 173.99032 236.49677 175.5 236.1484 176.6613 239.7484 C 177.35806 242.1871 177.4742 242.1871 178.51935 238.5871 C 179.21613 236.38065 180.7258 234.40645 182.35161 233.8258 C 185.25484 232.66452 188.85484 227.7871 188.85484 225 C 188.85484 221.4 182.46774 216.29032 177.9387 216.29032 C 171.20323 216.29032 167.1387 223.25806 170.50645 229.4129 C 172.13226 232.5484 172.94516 244.50968 171.31935 243.58065 C 170.7387 243.11613 170.2742 242.07097 170.2742 241.14194 C 170.2742 240.2129 169.4613 239.51613 168.53226 239.51613 C 167.60323 239.51613 166.79032 240.2129 166.79032 241.0258 C 166.79032 244.27742 164.23548 245.32258 160.75161 243.46452 C 158.89355 242.53548 157.73226 241.25806 158.08065 240.67742 C 158.89355 239.4 156.6871 234.75484 154.7129 233.47742 C 152.85484 232.2 144.26129 232.31613 142.86774 233.70968 C 141.1258 235.4516 128.46774 230.45806 125.21613 226.6258 C 120.91935 221.4 113.4871 222.09677 110.46774 227.90323 C 108.95806 230.80645 108.95806 231.8516 110.46774 236.03226 C 112.55806 241.8387 112.55806 241.8387 111.04839 241.8387 C 110.46774 241.8387 109.8871 241.0258 109.8871 240.09677 C 109.8871 239.16774 109.42258 238.35484 108.95806 238.35484 C 107.56452 238.35484 105.24194 243.8129 105.24194 247.06452 C 105.24194 248.69032 104.77742 249.96774 104.08065 249.96774 C 103.5 249.96774 102.91935 249.15484 102.91935 248.2258 C 102.91935 245.67097 100.82903 246.13548 100.01613 248.80645 C 99.55161 250.43226 98.27419 251.12903 95.95161 251.12903 C 92.46774 251.12903 91.07419 252.9871 92.00323 256.5871 C 92.35161 257.98065 91.53871 259.14194 89.33226 260.1871 C 85.03548 262.1613 82.7129 259.95484 86.19677 257.0516 C 90.14516 253.8 91.65484 250.2 90.37742 246.6 C 89.33226 243.69677 89.68065 243 93.04839 240.32903 C 95.25484 238.5871 98.15806 235.10323 99.55161 232.5484 C 101.06129 229.99355 102.57097 227.90323 103.15161 227.90323 C 103.61613 227.90323 104.08065 227.09032 104.08065 226.1613 C 104.08065 225.23226 105.82258 223.60645 107.9129 222.5613 C 109.8871 221.51613 112.55806 219.89032 113.71935 218.84516 C 114.76452 217.91613 115.69355 217.4516 115.69355 217.91613 C 115.69355 218.38065 116.39032 218.38065 117.0871 217.91613 C 119.17742 216.6387 121.73226 216.29032 135.66774 215.94194 C 147.39677 215.59355 150.88065 216.05806 150.64839 217.91613 C 150.53226 218.26452 150.88065 218.72903 151.34516 218.84516 C 152.39032 219.30968 154.13226 211.52903 153.43548 209.4387 C 152.97097 208.39355 153.43548 208.1613 154.82903 208.74194 C 160.40323 211.18065 164.58387 210.83226 168.06774 207.46452 C 172.36452 203.4 172.48065 199.10323 168.41613 194.92258 C 165.39677 192.01935 160.98387 191.09032 156.91935 192.6 C 154.24839 193.64516 151.34516 199.8 152.15806 202.81935 C 152.97097 206.07097 151.46129 211.87742 149.60323 212.5742 C 148.6742 212.80645 148.20968 211.52903 148.09355 209.09032 C 147.97742 207 147.62903 203.98065 147.16452 202.47097 C 146.58387 200.38065 147.04839 198.9871 149.02258 197.0129 C 151.57742 194.45806 152.62258 190.74194 150.88065 190.74194 C 150.53226 190.74194 149.25484 191.55484 148.09355 192.6 C 146.23548 194.34194 146.11935 194.10968 147.04839 190.50968 C 150.3 177.73548 154.48065 168.90968 158.19677 167.51613 C 159.70645 166.93548 160.98387 166.00645 160.98387 165.4258 C 160.98387 164.9613 164.23548 162.6387 168.3 160.2 C 182.7 151.72258 200.46774 131.51613 193.5 131.51613 C 193.15161 131.51613 192.10645 133.3742 191.29355 135.69677 C 189.55161 140.45806 186.18387 142.08387 180.2613 141.15484 C 175.03548 140.34194 169.69355 142.54839 166.6742 146.72903 C 164.35161 149.98065 160.98387 151.25806 160.98387 148.93548 C 160.98387 146.38065 163.65484 142.31613 165.97742 141.27097 C 168.99677 139.99355 169.1129 134.88387 166.3258 131.98065 C 165.28065 131.05161 164.46774 129.65806 164.46774 128.96129 C 164.46774 128.26452 163.0742 128.03226 160.98387 128.38065 C 157.96452 129.07742 157.26774 128.6129 155.75806 125.70968 C 153.55161 121.4129 153.55161 118.74194 155.8742 118.74194 C 158.42903 118.74194 165.62903 111.65806 165.62903 109.10323 C 165.62903 106.66452 172.48065 103.29677 177.59032 103.29677 C 179.33226 103.29677 180.7258 102.83226 180.7258 102.25161 C 180.7258 100.27742 184.79032 101.43871 187.80968 104.34194 Z" fill="#ff0000"/>
        </g>
        <g id="Graphic_47">
          <path d="M 222.53226 104.22581 C 222.53226 104.92258 221.4871 106.54839 220.3258 107.59355 C 218.3516 109.45161 217.5387 109.45161 212.54516 108.05806 C 204.99677 105.96774 204.99677 104.22581 212.3129 102.94839 C 219.28065 101.67097 222.53226 102.13548 222.53226 104.22581 Z" fill="#ff0000"/>
        </g>
        <g id="Graphic_46">
          <path d="M 231.70645 117.23226 C 234.37742 118.27742 234.2613 118.39355 229.1516 120.83226 C 222.6484 123.96774 218.81613 124.08387 215.9129 121.29677 C 214.75161 120.25161 214.2871 119.67097 214.86774 120.13548 C 215.56452 120.71613 217.0742 121.06452 218.46774 120.94839 C 219.74516 120.94839 220.09355 120.6 219.39677 120.25161 C 217.0742 119.32258 217.65484 117.58065 220.20968 117.58065 C 221.4871 117.58065 222.53226 117.11613 222.53226 116.53548 C 222.53226 115.3742 227.75806 115.72258 231.70645 117.23226 Z" fill="#ff0000"/>
        </g>
        <g id="Graphic_45">
          <path d="M 157.96452 133.72258 C 159.93871 135.69677 162.14516 137.32258 162.95806 137.32258 C 165.16452 137.32258 164.81613 138.94839 162.14516 141.3871 C 159.93871 143.36129 159.70645 143.36129 157.5 141.3871 C 154.13226 138.25161 150.53226 129.65806 150.64839 124.66452 L 150.64839 120.48387 L 152.62258 125.36129 C 153.78387 128.03226 156.10645 131.86452 157.96452 133.72258 Z" fill="#ff0000"/>
        </g>
        <g id="Graphic_44">
          <path d="M 146.35161 124.08387 C 146.81613 125.12903 146.81613 126.29032 146.46774 126.63871 C 146.11935 126.9871 145.8871 126.52258 145.8871 125.59355 C 145.8871 124.2 145.65484 124.2 144.7258 125.70968 C 143.44839 127.8 141.82258 126.52258 142.75161 123.96774 C 143.68065 121.64516 145.42258 121.76129 146.35161 124.08387 Z" fill="#ff0000"/>
        </g>
        <g id="Graphic_43">
          <path d="M 225.78387 128.03226 C 226.94516 129.30968 228.6871 131.63226 229.5 133.25806 C 230.89355 135.8129 230.77742 136.39355 228.91935 138.48387 C 223.69355 144.29032 213.82258 137.55484 217.42258 130.5871 C 220.09355 125.36129 222.53226 124.66452 225.78387 128.03226 Z" fill="#e1e1e1"/>
        </g>
        <g id="Graphic_42">
          <path d="M 148.90645 130.47097 C 149.25484 131.16774 148.55806 132.79355 147.28065 134.1871 C 145.30645 136.16129 144.60968 136.27742 143.1 135 C 140.66129 133.0258 140.77742 130.70323 143.33226 130.00645 C 146.81613 129.07742 148.09355 129.19355 148.90645 130.47097 Z" fill="#ff0000"/>
        </g>
        <g id="Graphic_41">
          <path d="M 150.41613 150.32903 C 145.53871 154.9742 141.24194 157.29677 141.24194 155.55484 C 141.24194 155.32258 144.14516 152.07097 147.74516 148.47097 C 152.73871 143.47742 154.59677 142.2 155.40968 143.36129 C 156.10645 144.40645 154.59677 146.49677 150.41613 150.32903 Z" fill="#ff0000"/>
        </g>
        <g id="Graphic_40">
          <path d="M 124.63548 166.12258 C 125.79677 167.51613 125.56452 168.44516 123.24194 170.76774 C 118.7129 175.29677 119.99032 183.30968 125.79677 185.98065 C 129.97742 187.8387 131.37097 187.60645 135.31935 183.89032 C 138.80323 180.6387 139.03548 180.52258 141.4742 182.49677 C 143.56452 184.2387 143.9129 185.98065 144.26129 194.92258 C 144.49355 200.6129 144.84194 206.76774 144.95806 208.74194 C 145.30645 212.2258 145.30645 212.2258 138.6871 212.5742 L 132.06774 212.92258 L 130.79032 207.92903 C 129.97742 205.25806 129.28065 201.4258 129.04839 199.45161 C 128.46774 192.6 121.84839 182.84516 116.85484 181.21935 C 115.9258 180.87097 113.71935 181.33548 112.09355 182.14839 C 110.35161 182.9613 108.7258 183.30968 108.37742 182.9613 C 107.21613 181.8 104.08065 185.05161 104.08065 187.3742 C 104.08065 190.1613 103.03548 190.1613 101.17742 187.60645 C 99.9 185.86452 99.55161 185.98065 97.80968 189.34839 C 96.06774 192.6 95.60323 192.94839 93.5129 191.55484 C 91.65484 190.39355 91.07419 190.50968 90.14516 191.90323 C 89.1 193.4129 88.75161 193.4129 87.70645 191.55484 C 86.08065 188.76774 84.6871 189.11613 82.82903 192.71613 C 81.20323 195.61935 81.0871 195.73548 80.39032 193.4129 C 79.92581 192.13548 78.64839 190.74194 77.37097 190.39355 C 74.93226 189.69677 72.14516 192.25161 73.30645 194.2258 C 73.65484 194.80645 73.19032 195.3871 72.26129 195.3871 C 71.21613 195.3871 70.40323 195.96774 70.40323 196.78065 C 70.40323 197.70968 69.70645 197.47742 68.54516 196.31613 C 66.6871 194.5742 66.919355 194.10968 70.75161 190.50968 C 73.07419 188.30323 75.16452 185.28387 75.62903 183.65806 C 75.97742 182.03226 77.37097 180.1742 78.64839 179.3613 C 80.50645 178.2 80.85484 178.31613 80.85484 180.1742 C 80.85484 183.89032 84.10645 186.09677 89.44839 186.09677 C 95.95161 186.09677 100.01613 181.91613 99.0871 176.2258 C 98.62258 173.20645 99.0871 171.92903 101.29355 169.95484 C 102.80323 168.5613 104.66129 167.51613 105.24194 167.51613 C 105.93871 167.51613 106.40323 167.05161 106.40323 166.35484 C 106.40323 162.9871 121.96452 162.6387 124.63548 166.12258 Z" fill="#ff0000"/>
        </g>
        <g id="Graphic_39">
          <path d="M 135.0871 179.70968 C 133.57742 182.6129 131.95161 183.7742 129.16452 183.7742 C 123.59032 183.7742 120.6871 176.34194 124.51935 172.04516 C 126.26129 170.07097 126.60968 170.1871 131.37097 173.67097 C 135.66774 176.80645 136.13226 177.73548 135.0871 179.70968 Z" fill="#e1e1e1"/>
        </g>
        <g id="Graphic_38">
          <path d="M 96.88065 177.61935 C 97.57742 182.6129 88.75161 185.74839 85.15161 181.68387 C 82.94516 179.3613 83.87419 177.3871 87.82258 175.7613 C 92.46774 173.90323 96.53226 174.71613 96.88065 177.61935 Z" fill="#e1e1e1"/>
        </g>
        <g id="Graphic_37">
          <path d="M 167.4871 197.12903 C 171.31935 202.93548 165.16452 209.67097 158.42903 207.11613 C 154.82903 205.72258 153.55161 202.5871 155.06129 198.52258 C 157.26774 192.83226 164.11935 192.13548 167.4871 197.12903 Z" fill="#e1e1e1"/>
        </g>
        <g id="Graphic_36">
          <path d="M 212.08065 197.12903 C 212.08065 197.70968 211.5 197.47742 210.91935 196.54839 C 210.3387 195.61935 209.75806 194.2258 209.75806 193.64516 C 209.75806 192.94839 210.3387 193.29677 210.91935 194.2258 C 211.5 195.15484 212.08065 196.43226 212.08065 197.12903 Z" fill="#ff0000"/>
        </g>
        <g id="Graphic_35">
          <path d="M 207.20323 196.54839 C 212.19677 201.19355 209.0613 209.32258 202.3258 209.32258 C 195.00968 209.32258 193.5 197.8258 200.46774 195.0387 C 203.4871 193.87742 204.64839 194.10968 207.20323 196.54839 Z" fill="#e1e1e1"/>
        </g>
        <g id="Graphic_34">
          <path d="M 63.435484 199.91613 C 63.435484 203.05161 69.00968 204.2129 71.21613 201.54194 C 72.72581 199.68387 72.841935 199.8 72.14516 202.93548 C 71.79677 204.79355 70.63548 207.23226 69.70645 208.1613 C 67.5 210.36774 56.235484 210.36774 53.564516 208.1613 C 51.93871 206.76774 52.17097 206.1871 56.119355 202.12258 C 60.880645 197.24516 63.435484 196.54839 63.435484 199.91613 Z" fill="#ff0000"/>
        </g>
        <g id="Graphic_33">
          <path d="M 185.25484 222.90968 C 186.3 225.11613 186.18387 226.50968 185.02258 228.83226 C 183.74516 231.61935 182.93226 231.96774 178.98387 231.61935 C 173.29355 231.15484 171.43548 229.64516 171.43548 225.58065 C 171.43548 217.68387 182.00323 215.70968 185.25484 222.90968 Z" fill="#e1e1e1"/>
        </g>
        <g id="Graphic_32">
          <path d="M 271.30645 220.93548 C 272.58387 222.2129 273.62903 224.1871 273.62903 225.3484 C 273.62903 228.6 269.21613 232.5484 265.61613 232.5484 C 261.9 232.5484 260.85484 230.45806 260.85484 223.25806 C 260.97097 219.89032 261.0871 219.54194 262.13226 221.16774 C 263.64194 223.95484 265.5 223.8387 265.5 220.93548 C 265.5 219.65806 266.3129 218.6129 267.24194 218.6129 C 268.17097 218.6129 270.02903 219.65806 271.30645 220.93548 Z" fill="#e1e1e1"/>
        </g>
        <g id="Graphic_31">
          <path d="M 227.64194 227.09032 C 233.33226 232.31613 233.4484 233.70968 228.45484 233.70968 C 223.22903 233.70968 220.55806 231.0387 221.1387 226.27742 C 221.37097 223.95484 221.71935 222.09677 221.9516 222.09677 C 222.06774 222.09677 224.7387 224.30323 227.64194 227.09032 Z" fill="#e1e1e1"/>
        </g>
        <g id="Graphic_30">
          <path d="M 124.75161 226.74194 C 124.98387 226.74194 124.98387 227.4387 124.75161 228.13548 C 124.40323 228.9484 122.66129 229.87742 120.80323 230.2258 C 118.82903 230.5742 116.97097 231.8516 116.2742 233.47742 C 115.69355 234.87097 114.18387 236.03226 113.13871 236.03226 C 110.00323 236.03226 110.46774 230.69032 113.83548 227.32258 C 116.2742 224.88387 117.20323 224.6516 120.57097 225.58065 C 122.66129 226.27742 124.51935 226.74194 124.75161 226.74194 Z" fill="#e1e1e1"/>
        </g>
        <g id="Graphic_29">
          <path d="M 154.7129 236.6129 C 157.5 240.90968 155.8742 241.49032 149.71935 238.47097 C 145.53871 236.49677 144.7258 235.56774 146.00323 234.75484 C 149.02258 232.89677 152.73871 233.59355 154.7129 236.6129 Z" fill="#e1e1e1"/>
        </g>
        <g id="Graphic_28">
          <path d="M 213.82258 243.58065 C 216.84194 246.6 217.30645 248.34194 215.68065 251.0129 C 214.98387 252.1742 214.40323 251.12903 213.82258 247.7613 C 212.6613 240.67742 210.10645 241.60645 210.22258 249.0387 C 210.3387 255.7742 208.7129 257.28387 204.53226 254.1484 C 201.5129 251.94194 201.5129 244.50968 204.53226 242.30323 C 207.78387 239.98065 210.6871 240.32903 213.82258 243.58065 Z" fill="#e1e1e1"/>
        </g>
        <g id="Graphic_27">
          <path d="M 248.6613 251.47742 C 252.60968 255.30968 253.5387 256.81935 252.49355 257.86452 C 250.51935 259.8387 245.75806 259.60645 243.20323 257.28387 C 240.53226 254.84516 240.41613 246.48387 242.97097 246.48387 C 243.20323 246.48387 245.75806 248.69032 248.6613 251.47742 Z" fill="#e1e1e1"/>
        </g>
        <g id="Graphic_26">
          <path d="M 185.83548 254.49677 C 190.01613 256.5871 191.8742 258.09677 191.0613 258.90968 C 190.24839 259.72258 191.64194 261.3484 195.1258 264.01935 C 198.02903 266.2258 200.46774 268.31613 200.46774 268.78065 C 200.46774 270.6387 193.5 284.80645 192.45484 284.80645 C 190.59677 284.80645 185.02258 282.2516 182.7 280.27742 C 180.14516 278.1871 178.63548 279.58065 180.49355 282.48387 C 181.30645 283.7613 181.8871 288.6387 181.8871 293.51613 C 181.8871 302.2258 180.49355 304.31613 179.21613 297.69677 C 178.75161 295.3742 177.24194 293.63226 175.03548 292.35484 C 170.15806 289.91613 168.53226 290.1484 164.46774 293.7484 C 160.98387 296.88387 160.63548 297.92903 161.21613 305.0129 C 161.44839 306.87097 160.98387 308.6129 160.2871 308.84516 C 159.59032 309.07742 159.00968 307.8 159.00968 305.70968 C 159.00968 300.6 157.15161 299.09032 154.24839 301.99355 L 151.80968 304.43226 L 149.95161 301.52903 C 147.5129 297.8129 146.81613 297.92903 143.68065 303.0387 L 141.1258 307.4516 L 141.70645 301.87742 C 142.40323 296.41935 141.70645 295.25806 139.15161 297.8129 C 138.22258 298.74194 137.40968 298.74194 136.24839 297.69677 C 135.20323 296.88387 132.76452 296.6516 129.86129 297.11613 C 125.79677 297.69677 125.1 297.58065 124.40323 295.3742 C 123.4742 292.47097 123.24194 292.47097 116.85484 294.67742 C 114.18387 295.60645 111.5129 296.07097 110.93226 295.72258 C 108.84194 294.44516 110.00323 291.65806 113.02258 290.2645 C 114.76452 289.56774 117.31935 287.70968 118.82903 286.2 C 121.96452 283.18065 129.86129 282.71613 137.17742 285.3871 C 143.33226 287.59355 157.5 287.59355 160.51935 285.50323 C 162.60968 283.87742 162.60968 283.64516 158.42903 279.3484 C 155.99032 276.90968 153.55161 273.19355 152.73871 271.21935 C 151.69355 267.96774 151.80968 266.80645 153.9 263.67097 C 157.15161 258.32903 160.40323 255.7742 167.25484 253.33548 C 175.38387 250.43226 178.40323 250.5484 185.83548 254.49677 Z" fill="#ff0000"/>
        </g>
        <g id="Graphic_25">
          <path d="M 282.91935 255.19355 C 284.08065 256.5871 283.8484 257.63226 281.8742 260.88387 C 279.5516 264.6 279.5516 264.83226 281.40968 265.64516 C 283.26774 266.34194 283.26774 266.5742 280.82903 267.50323 C 277.4613 268.78065 272.81613 267.0387 271.8871 263.90323 C 270.7258 260.41935 272.3516 254.84516 274.55806 254.26452 C 278.62258 253.21935 281.5258 253.4516 282.91935 255.19355 Z" fill="#e1e1e1"/>
        </g>
        <g id="Graphic_24">
          <path d="M 96.3 264.13548 C 96.76452 265.52903 96.41613 267.3871 95.71935 268.31613 C 94.09355 270.29032 80.97097 276.90968 79.69355 276.44516 C 78.53226 275.98065 81.78387 265.06452 83.17742 265.06452 C 83.87419 265.06452 84.33871 265.7613 84.33871 266.69032 C 84.33871 267.61935 85.15161 268.5484 86.08065 269.0129 C 87.12581 269.3613 87.82258 269.0129 87.82258 267.8516 C 87.82258 266.92258 88.63548 265.87742 89.56452 265.52903 C 90.49355 265.06452 91.30645 264.13548 91.30645 263.20645 C 91.30645 260.53548 95.60323 261.3484 96.3 264.13548 Z" fill="#ff0000"/>
        </g>
        <g id="Graphic_23">
          <path d="M 201.04839 262.85806 C 202.44194 265.06452 200.46774 265.52903 198.49355 263.55484 C 196.63548 261.69677 196.63548 261.58065 198.37742 261.58065 C 199.42258 261.58065 200.7 262.1613 201.04839 262.85806 Z" fill="#ff0000"/>
        </g>
        <g id="Graphic_22">
          <path d="M 174.10645 294.5613 C 177.35806 297.11613 178.40323 302.2258 176.3129 305.8258 C 174.6871 308.84516 174.57097 308.84516 172.36452 306.6387 C 171.20323 305.47742 169.69355 304.78065 169.1129 305.12903 C 167.83548 305.94194 163.30645 302.2258 163.30645 300.36774 C 163.30645 298.1613 168.06774 292.9355 170.04194 292.9355 C 171.0871 292.9355 172.94516 293.7484 174.10645 294.5613 Z" fill="#e1e1e1"/>
        </g>
        <g id="Graphic_21">
          <path d="M 106.40323 300.6 C 106.40323 302.69032 106.86774 303.27097 107.9129 302.5742 C 108.60968 302.10968 110.11935 301.87742 111.28065 301.99355 C 112.3258 302.2258 113.4871 301.7613 113.95161 301.0645 C 114.3 300.48387 115.1129 299.90323 115.80968 299.90323 C 117.78387 299.90323 116.85484 302.69032 113.83548 306.1742 C 111.16452 309.19355 110.11935 309.54194 105.35806 309.30968 C 99.20323 309.07742 95.95161 308.2645 95.95161 306.9871 C 95.95161 305.8258 104.19677 297.58065 105.47419 297.58065 C 105.93871 297.58065 106.40323 298.9742 106.40323 300.6 Z" fill="#ff0000"/>
        </g>
        <g id="Graphic_20">
          <path d="M 224.7387 332.41935 C 229.73226 336.6 226.94516 345.19355 220.55806 345.19355 C 217.8871 345.19355 216.84194 342.5226 219.0484 341.12903 C 219.62903 340.78065 219.16452 338.80645 217.77097 336.36774 C 216.60968 334.1613 215.79677 331.8387 216.14516 331.14194 C 217.30645 329.4 221.83548 330.09677 224.7387 332.41935 Z" fill="#e1e1e1"/>
        </g>
        <g id="Graphic_19">
          <path d="M 215.79677 370.9742 C 217.0742 372.01935 217.30645 373.29677 216.7258 375.3871 C 216.02903 377.4774 215.79677 377.70968 215.68065 376.2 C 215.44839 372.36774 212.6613 374.9226 212.3129 379.21935 C 211.96452 383.7484 211.15161 384.44516 208.82903 382.1226 C 206.62258 379.91613 207.20323 374.45806 209.75806 371.90323 C 212.42903 369.23226 213.35806 369.11613 215.79677 370.9742 Z" fill="#e1e1e1"/>
        </g>
        <g id="Graphic_18">
          <path d="M 184.20968 399.19355 C 184.20968 401.28387 185.60323 401.4 187.57742 399.4258 C 188.85484 398.2645 188.97097 398.72903 188.2742 401.7484 C 187.34516 406.6258 189.20323 406.74194 191.5258 401.98065 C 193.73226 397.21935 195.24194 399.65806 193.26774 405.11613 L 191.8742 409.18065 L 183.97742 408.83226 C 179.68065 408.6 176.08065 408.36774 176.08065 408.36774 C 176.08065 408.2516 177.4742 405.8129 179.1 402.79355 C 182.11935 397.4516 184.20968 395.94194 184.20968 399.19355 Z" fill="#ff0000"/>
        </g>
        <g id="Graphic_17">
          <path d="M 181.5387 109.56774 C 180.49355 110.26452 176.6613 110.84516 173.17742 110.96129 C 168.99677 111.07742 166.79032 111.65806 166.79032 112.5871 C 166.79032 113.4 167.25484 114.09677 167.95161 114.09677 C 168.53226 114.09677 169.34516 115.3742 169.80968 116.88387 C 170.15806 118.50968 171.20323 120.01935 172.24839 120.36774 C 174.80323 121.4129 181.0742 117.8129 180.2613 115.72258 C 179.79677 114.67742 180.7258 113.51613 182.46774 112.70323 C 184.09355 112.00645 185.37097 110.72903 185.37097 109.8 C 185.37097 108.05806 184.3258 107.94194 181.5387 109.56774 Z" fill="#cccccc"/>
        </g>
        <g id="Graphic_16">
          <path d="M 178.40323 113.98065 C 178.40323 115.14194 175.61613 116.41935 173.0613 116.41935 C 172.13226 116.41935 171.43548 115.95484 171.43548 115.3742 C 171.43548 114.44516 172.59677 113.98065 177.59032 113.05161 C 178.05484 113.05161 178.40323 113.4 178.40323 113.98065 Z" fill="#ff0000"/>
        </g>
        <g id="Graphic_15">
          <path d="M 188.85484 114.32903 C 185.95161 119.09032 185.95161 121.18065 188.85484 124.78065 C 191.64194 128.38065 195.70645 129.30968 200.23548 127.33548 C 204.18387 125.70968 206.2742 122.5742 205.69355 119.20645 C 205.4613 118.04516 205.22903 116.65161 205.22903 116.1871 C 204.88065 113.63226 199.65484 110.6129 195.59032 110.6129 C 191.8742 110.6129 190.82903 111.19355 188.85484 114.32903 Z" fill="#cccccc"/>
        </g>
        <g id="Graphic_14">
          <path d="M 198.49355 112.81935 C 200.00323 113.4 201.97742 115.49032 202.79032 117.58065 C 204.18387 120.83226 204.06774 121.4129 201.62903 123.96774 C 197.79677 128.14839 192.91935 127.8 190.59677 123.3871 C 188.39032 118.9742 188.39032 118.50968 191.29355 114.79355 C 193.96452 111.4258 194.42903 111.30968 198.49355 112.81935 Z" fill="#e1e1e1"/>
        </g>
        <g id="Graphic_13">
          <path d="M 199.65484 144.87097 C 194.19677 147.19355 192.91935 154.04516 196.86774 159.27097 C 199.30645 162.52258 203.25484 163.10323 207.66774 160.89677 C 211.73226 158.92258 213.59032 155.43871 212.6613 151.25806 C 211.38387 145.21935 205.57742 142.43226 199.65484 144.87097 Z" fill="#cccccc"/>
        </g>
        <g id="Graphic_12">
          <path d="M 206.04194 146.72903 C 209.17742 147.7742 210.80323 150.44516 210.91935 154.27742 C 210.91935 154.85806 209.8742 156.6 208.59677 157.99355 C 202.09355 164.9613 193.26774 155.90323 198.84194 148.00645 C 200.81613 145.10323 201.16452 144.9871 206.04194 146.72903 Z" fill="#e1e1e1"/>
        </g>
        <g id="Graphic_11">
          <path d="M 176.3129 165.19355 C 174.80323 165.89032 172.82903 168.2129 171.9 170.41935 C 169.80968 175.64516 171.43548 179.70968 176.89355 182.9613 C 180.2613 184.93548 180.84194 184.93548 184.09355 183.19355 C 190.7129 179.8258 192.10645 171.92903 187.1129 166.93548 C 184.20968 163.91613 180.84194 163.45161 176.3129 165.19355 Z" fill="#cccccc"/>
        </g>
        <g id="Graphic_10">
          <path d="M 185.37097 168.90968 C 187.69355 171.46452 188.39032 176.2258 186.76452 178.78065 C 186.3 179.59355 184.20968 180.52258 182.23548 180.9871 C 175.15161 182.38065 170.39032 172.27742 176.3129 168.2129 C 179.9129 165.65806 182.58387 165.89032 185.37097 168.90968 Z" fill="#e1e1e1"/>
        </g>
        <g id="Graphic_9">
          <path d="M 228.80323 270.1742 C 220.44194 273.89032 222.53226 285.96774 231.9387 287.70968 C 236.81613 288.6387 240.6484 285.7355 242.2742 280.1613 C 243.20323 277.14194 242.85484 275.8645 240.88065 273.07742 C 239.4871 271.21935 237.74516 269.70968 236.93226 269.70968 C 236.11935 269.70968 234.84194 269.47742 233.9129 269.12903 C 233.1 268.89677 230.77742 269.3613 228.80323 270.1742 Z" fill="#cccccc"/>
        </g>
        <g id="Graphic_8">
          <path d="M 237.8613 272.84516 C 240.6484 275.28387 240.53226 279.11613 237.62903 282.48387 C 235.5387 284.92258 234.7258 285.0387 230.89355 284.10968 C 227.40968 283.29677 226.48065 282.48387 226.2484 279.8129 C 225.43548 272.6129 232.7516 268.2 237.8613 272.84516 Z" fill="#e1e1e1"/>
        </g>
        <g id="Graphic_7">
          <path d="M 200.58387 293.63226 C 193.38387 302.80645 204.53226 313.95484 213.59032 306.87097 C 217.42258 303.8516 218.23548 301.0645 216.7258 297 C 214.98387 292.47097 212.3129 290.72903 207.20323 290.6129 C 203.95161 290.6129 202.44194 291.30968 200.58387 293.63226 Z" fill="#cccccc"/>
        </g>
        <g id="Graphic_6">
          <path d="M 210.3387 292.9355 C 211.15161 292.9355 212.6613 294.32903 213.82258 295.95484 C 215.44839 298.39355 215.56452 299.55484 214.40323 302.2258 C 212.6613 306.40645 208.24839 308.49677 204.76452 306.75484 C 201.28065 304.89677 200.46774 303.50323 200.46774 299.20645 C 200.46774 295.25806 204.3 291.4258 207.20323 292.47097 C 208.13226 292.70323 209.5258 292.9355 210.3387 292.9355 Z" fill="#e1e1e1"/>
        </g>
        <g id="Graphic_5">
          <path d="M 166.3258 259.3742 C 160.63548 263.7871 163.0742 273.19355 170.50645 275.8645 C 171.66774 276.2129 174.10645 275.98065 175.96452 275.4 C 178.63548 274.47097 179.79677 273.07742 180.7258 269.94194 C 182.23548 264.2516 182.35161 264.6 178.86774 260.53548 C 175.26774 256.2387 170.85484 255.7742 166.3258 259.3742 Z" fill="#cccccc"/>
        </g>
        <g id="Graphic_4">
          <path d="M 178.51935 263.4387 C 179.79677 265.99355 179.79677 266.92258 178.2871 269.47742 C 176.19677 273.19355 173.64194 273.89032 168.99677 272.03226 C 161.9129 269.0129 166.44194 256.81935 173.75806 259.3742 C 175.5 260.07097 177.59032 261.8129 178.51935 263.4387 Z" fill="#e1e1e1"/>
        </g>
      </g>
    </g>
  </g>
</svg>
