<?xml version="1.0" encoding="UTF-8" standalone="no"?>
<svg
   id="svg2"
   height="1388.7469"
   width="1236.0713"
   version="1.0"
   xmlns="http://www.w3.org/2000/svg"
   xmlns:svg="http://www.w3.org/2000/svg"
   xmlns:rdf="http://www.w3.org/1999/02/22-rdf-syntax-ns#"
   xmlns:cc="http://creativecommons.org/ns#"
   xmlns:dc="http://purl.org/dc/elements/1.1/">
  <metadata
     id="metadata74">
    <rdf:RDF>
      <cc:Work
         rdf:about="">
        <dc:format>image/svg+xml</dc:format>
        <dc:type
           rdf:resource="http://purl.org/dc/dcmitype/StillImage" />
        <dc:creator>
          <cc:Agent>
            <dc:title>vlk2020</dc:title>
          </cc:Agent>
        </dc:creator>
      </cc:Work>
    </rdf:RDF>
  </metadata>
  <defs
     id="defs4" />
  <g
     id="langued">
    <path
       id="path32275"
       style="fill:#ff0000;stroke-linejoin:round;stroke-width:1.5;stroke:#000000"
       d="m 624.15492,113.99145 c 9.4999,3.10888 14.325,-30.964709 -10.6066,-24.243658 -71.73261,23.686378 -118.84923,35.649078 -125.25892,-9.596449 -3.42472,-12.371442 -25.61562,-19.476746 -19.69797,5.050763 32.33447,76.374164 89.51986,12.666023 155.56349,28.789344 z" />
  </g>
  <g
     id="beaked">
    <path
       id="path31388"
       style="fill:#00ff00;stroke-linejoin:round;stroke-width:1.5;stroke:#000000"
       d="M 680.21838,60.453369 641.32751,169.54984 C 581.04656,141.3052 543.8614,133.99112 526.6752,144.80111 c 10.71238,-13.81696 24.50219,-39.99974 98.99495,-9.59645 -11.29057,-33.44805 -96.75093,-69.072312 -112.63201,-32.32488 -22.07134,-52.0331 1.02649,-75.7512 69.19545,-71.21576 z" />
  </g>
  <g
     id="armed">
    <path
       d="m 812.10986,1032.6041 c -30.40728,-17.4597 -47.33074,-13.7306 -51.07143,10.7143 16.1601,-7.7764 26.67651,-3.0113 34.28571,8.2143 m 173.92857,60.7143 c -13.00322,-3.1544 -4.81989,-38.556 12.5,-25.7143 17.31989,12.8418 36.33429,21.9477 15.71429,51.7857 -1.04318,-21.5544 -15.21106,-22.917 -28.21429,-26.0714 z m -4.28571,-167.14286 15.71429,15.71428 16.07142,-10.71428 c 5.25749,-5.06681 14.41699,-6.28283 26.42859,-3.57143 -12.2901,-23.84932 -38.0586,-22.58808 -44.28573,-13.92857 z m 64.3941,95.55436 c -0.094,-0.5755 -0.8977,-23.5803 -0.8832,-23.3814 0.014,0.1988 29.9155,-0.7912 35.0692,0.3102 8.804,1.8817 13.8348,10.9056 12.4352,26.7547 -0.8052,5.2557 -1.3401,10.7817 -6.061,12.1218 -4.7819,-22.0093 -10.5908,-17.0931 -15.6643,-17.0157 -6.1308,0.094 -24.8019,1.7858 -24.8959,1.2104 z m -606.00396,-8.0544 c 30.40728,-17.4597 47.33074,-13.7306 51.07143,10.7143 -16.1601,-7.7764 -26.67651,-3.0113 -34.28571,8.2143 m -173.92857,60.7143 c 13.00322,-3.1544 4.81988,-38.556 -12.5,-25.7143 -17.31989,12.8418 -36.33427,21.9477 -15.71429,51.7857 1.04318,-21.5544 15.21106,-22.917 28.21429,-26.0714 z M 270.5,945.10414 254.78571,960.81842 238.71429,950.10414 c -5.25745,-5.06681 -14.41703,-6.28283 -26.42858,-3.57143 12.29005,-23.84932 38.05859,-22.58808 44.28572,-13.92857 z m -64.39415,95.55436 c 0.0939,-0.5755 0.89772,-23.5803 0.88325,-23.3814 -0.0145,0.1988 -29.91545,-0.7912 -35.06918,0.3102 -8.804,1.8817 -13.83482,10.9056 -12.43517,26.7547 0.80517,5.2557 1.34006,10.7817 6.06091,12.1218 4.78194,-22.0093 10.59087,-17.0931 15.66436,-17.0157 6.13077,0.094 24.80192,1.7858 24.89583,1.2104 z"
       style="fill:#00ff00;stroke-linejoin:round;stroke-width:1.5;stroke:#000000"
       id="path12567" />
  </g>
  <g
     id="legged">
    <path
       d="m 729.25271,849.747 34.28572,-17.14286 124.28571,170.71426 c 8.46791,-12.2153 14.87354,-30.61748 22.14286,-46.42855 l 59.58158,-21.01015 c 9.06072,6.23327 17.98045,16.97417 25.71429,30 -5.41955,5.80253 -12.13071,7.73018 -18.8673,9.58158 -9.04762,-4.92204 -18.09524,-6.8108 -27.14286,-5 -11.06608,14.69971 -14.53578,25.60122 -20.71428,37.85712 16.76695,-4.3821 37.4848,-12.84467 64.66824,-23.74472 14.98703,8.8352 31.22973,20.29152 50.00003,22.82122 -1.6613,3.3134 -2.7086,6.55 -3.2971,9.7292 -1.9541,10.5555 1.1486,20.4789 3.6288,30.48 -4.262,9.0406 -10.7959,5.9215 -15.1733,7.5613 -25.7748,-21.0423 -27.3146,-25.1983 -40.71427,-25.7143 -26.92113,0.6989 -35.91079,3.3901 -51.96954,5.2959 14.77798,15.9363 31.89199,34.0959 52.14285,40 2.87079,4.678 2.56553,10.4147 1.42857,16.4286 -17.21861,11.5074 -9.33436,18.0578 -8.98984,27.0562 -1.97066,2.6545 -7.63168,2.8487 -13.57143,2.8571 -14.02342,-21.743 -22.03074,-21.4269 -32.43873,-29.9133 -7.40954,-8.3619 -9.65426,-18.6609 -17.17994,-24.3106 -25.57294,-19.1984 -48.29531,-25.5732 -68.83021,-22.8323 -24.72906,9.9664 -39.17152,15.0313 -56.84699,15.7143 -0.60114,-3.5596 -4.07213,-2.3897 -2.22952,-10.8368 7.14286,-1.1071 14.28572,-15.3033 21.42858,-25 17.20492,-0.1309 35.72971,2.3779 46.51523,-10.5918 z m -223.03842,0 -34.28572,-17.14286 -124.28571,170.71426 C 339.17495,991.1031 332.76932,972.70092 325.5,956.88985 L 265.91842,935.8797 c -9.06072,6.23327 -17.98045,16.97417 -25.71429,30 5.41954,5.80253 12.13071,7.73018 18.8673,9.58158 9.04762,-4.92204 18.09524,-6.8108 27.14286,-5 11.06608,14.69971 14.53578,25.60122 20.71428,37.85712 -16.76695,-4.3821 -37.4848,-12.84467 -64.66824,-23.74472 -14.98699,8.8352 -31.22974,20.29152 -50,22.82122 1.66124,3.3134 2.70854,6.55 3.2971,9.7292 1.95409,10.5555 -1.14866,20.4789 -3.62886,30.48 4.26198,9.0406 10.79597,5.9215 15.17332,7.5613 25.77484,-21.0423 27.31462,-25.1983 40.71428,-25.7143 26.92113,0.6989 35.91079,3.3901 51.96954,5.2959 -14.77798,15.9363 -31.89199,34.0959 -52.14285,40 -2.87079,4.678 -2.56553,10.4147 -1.42857,16.4286 17.21861,11.5074 9.33436,18.0578 8.98984,27.0562 1.97066,2.6545 7.63168,2.8487 13.57143,2.8571 14.02342,-21.743 22.03074,-21.4269 32.43873,-29.9133 7.40954,-8.3619 9.65426,-18.6609 17.17994,-24.3106 25.57294,-19.1984 48.29531,-25.5732 68.83021,-22.8323 24.72906,9.9664 39.17152,15.0313 56.84699,15.7143 0.60114,-3.5596 4.07213,-2.3897 2.22952,-10.8368 -7.14286,-1.1071 -14.28572,-15.3033 -21.42858,-25 -17.20492,-0.1309 -35.72971,2.3779 -46.51523,-10.5918 z"
       style="fill:#0000ff;stroke-linejoin:round;stroke-width:1.5;stroke:#000000"
       id="path12569" />
  </g>
  <path
     id="path14351"
     d="M 51.697266 3 C 90.717936 113.13329 179.87204 91.470593 193.91797 97.789062 C 71.804639 135.73362 14.91261 138.41557 3 135.16406 C 3.18642 138.482 17.913503 155.41515 34.757812 168.26562 C 48.383922 178.66094 67.265588 185.73657 76.236328 187.1875 C 95.048708 190.23022 115.74699 189.07562 138.08594 187.64648 C 150.58432 186.8469 190.11105 174.62375 186.84766 179.61133 C 184.28705 183.52481 166.7284 195.73458 145.24219 213.80469 C 126.36456 229.68096 104.48979 251.8109 82.912109 269.55664 C 44.320729 301.29464 4.2827862 320.37888 6.5351562 322.54688 C 19.273256 334.80775 54.70543 343.52472 84.125 334.85938 C 96.75425 331.1395 104.61513 326.67517 118.41406 317.13867 C 129.07666 309.76969 143.90989 295.42169 152.70508 287.48438 C 169.39644 272.42109 185.07701 259.95769 194.92969 251.33203 C 194.89829 258.10812 189.68056 265.37192 183.3125 277.08984 C 103.51044 426.08734 12.595703 577.10547 12.595703 577.10547 C 89.009563 581.31859 132.17936 503.61636 168.92969 455.71875 C 215.70409 394.7565 205.02242 407.51449 215.13281 393.76367 C 225.2432 380.01285 212.71487 402.44249 191.39258 454.37305 C 165.56303 510.7245 166.22663 553.89843 156.93945 613.23242 C 149.77895 657.5125 139.14191 710.01715 138.86523 703.88086 C 137.86675 718.66325 101.1964 814.05713 70.679688 894.29297 C 106.7364 891.38674 132.61526 870.44257 151.99805 850.85742 C 166.39263 829.53607 178.3432 807.86314 187.35352 785.19727 C 203.77363 746.96015 215.66406 710.355 227.63281 675.39062 C 252.70741 602.14004 270.21003 537.48268 287.86328 491.74805 L 287.30273 586.84961 C 289.43029 609.56977 281.96024 713.59691 277.33203 745.43555 C 266.07869 822.85026 263.3616 868.80551 254.02344 910.96094 C 372.69575 892.49777 403.23233 655.45119 400.49414 557.91211 C 410.25895 630.86392 420.02425 701.71334 429.78906 763.98438 C 453.50547 750.74599 466.90181 737.12572 472.7207 710.44531 C 477.75292 639.31118 483.71693 577.8066 488.81641 517.6543 C 495.4375 574.44019 505.99182 643.71062 516.92773 721.17578 C 511.45154 744.1316 505.97619 755.78662 500.5 767.60352 C 491.12803 779.92836 472.39069 804.54466 444.78516 826.17578 L 455.5 831.89062 L 440.5 847.60352 C 464.72528 864.02786 502.44314 854.81582 509.78516 903.31836 C 511.02383 863.58416 518.47696 886.5135 526.92773 895.46094 C 528.29019 837.96099 552.30872 817.24168 571.92773 792.60352 C 573.4582 821.89931 588.13738 875.24402 544.78516 923.31836 C 510.8896 939.56679 476.21282 934.68462 444.07227 998.31836 C 466.22052 992.60559 463.1895 979.84305 528.35742 986.17578 L 569.78516 961.89062 C 561.23631 992.04328 579.67806 1019.0536 471.21484 1069.0332 C 394.5305 1086.5611 340.76959 1119.3714 315.5 1171.1758 C 357.37383 1150.3706 401.64606 1137.0792 458.35742 1126.1758 C 518.30321 1092.9175 531.58271 1071.793 561.92773 1041.1758 C 553.30544 1064.4069 548.61021 1084.4965 531.21484 1114.7461 C 494.72447 1151.2376 444.46964 1169.5409 458.35742 1272.6035 C 504.31086 1198.9079 538.58449 1209.5639 587.64258 1035.4609 C 596.22003 1073.5411 605.31578 1110.3283 599.07227 1185.4609 C 587.88333 1221.2698 589.30535 1252.034 551.92773 1298.3184 L 586.21484 1289.7461 L 618.03516 1385.7461 L 649.85742 1289.7461 L 684.14258 1298.3184 C 646.76496 1252.034 648.18894 1221.2698 637 1185.4609 C 630.75649 1110.3283 639.85028 1073.5411 648.42773 1035.4609 C 697.48582 1209.5639 731.7614 1198.9079 777.71484 1272.6035 C 791.60262 1169.5409 741.34779 1151.2376 704.85742 1114.7461 C 687.46205 1084.4965 682.76487 1064.4069 674.14258 1041.1758 C 704.4876 1071.793 717.76905 1092.9175 777.71484 1126.1758 C 834.4262 1137.0792 878.69844 1150.3706 920.57227 1171.1758 C 895.30268 1119.3714 841.54176 1086.5611 764.85742 1069.0332 C 656.3942 1019.0536 674.83401 992.04329 666.28516 961.89062 L 707.71484 986.17578 C 772.88276 979.84305 769.85175 992.60559 792 998.31836 C 759.85945 934.68462 725.18072 939.56679 691.28516 923.31836 C 647.93294 875.24402 662.61211 821.89931 664.14258 792.60352 C 683.76159 817.24168 707.78012 837.96099 709.14258 895.46094 C 717.59335 886.5135 725.04649 863.58416 726.28516 903.31836 C 733.62718 854.81582 771.34699 864.02786 795.57227 847.60352 L 780.57227 831.89062 L 791.28516 826.17578 C 763.67963 804.54466 744.94424 779.92836 735.57227 767.60352 C 730.09608 755.78662 724.61877 744.1316 719.14258 721.17578 C 730.07863 643.70971 740.63478 574.43861 747.25586 517.65234 C 752.35538 577.80526 758.31734 639.31041 763.34961 710.44531 C 769.1685 737.12572 782.56484 750.74599 806.28125 763.98438 C 816.04606 701.71335 825.81136 630.86392 835.57617 557.91211 C 832.83798 655.45119 863.37652 892.49777 982.04883 910.96094 C 972.71067 868.80551 969.99358 822.85026 958.74023 745.43555 C 954.11202 713.59691 946.64197 609.56977 948.76953 586.84961 L 948.20898 491.74805 C 965.86223 537.48268 983.36482 602.14004 1008.4395 675.39062 C 1020.4082 710.355 1032.2985 746.96015 1048.7188 785.19727 C 1057.7291 807.86314 1069.6796 829.53607 1084.0742 850.85742 C 1103.457 870.44257 1129.3339 891.38674 1165.3906 894.29297 C 1134.8739 814.05713 1098.2036 718.66325 1097.2051 703.88086 C 1096.9284 710.01715 1086.2914 657.5125 1079.1309 613.23242 C 1069.8438 553.89843 1070.5072 510.7245 1044.6777 454.37305 C 1023.3554 402.44249 1010.8291 380.01285 1020.9395 393.76367 C 1031.0499 407.51449 1020.3662 394.7565 1067.1406 455.71875 C 1103.891 503.61636 1147.0607 581.31859 1223.4746 577.10547 C 1223.4746 577.10547 1132.5618 426.08734 1052.7598 277.08984 C 1046.3917 265.37192 1041.1736 258.10812 1041.1426 251.33203 C 1050.9953 259.95769 1066.6738 272.42109 1083.3652 287.48438 C 1092.1604 295.42169 1106.9956 309.76969 1117.6582 317.13867 C 1131.4571 326.67517 1139.3161 331.1395 1151.9453 334.85938 C 1181.3649 343.52472 1216.7971 334.80775 1229.5352 322.54688 C 1231.7875 320.37888 1191.7495 301.29464 1153.1582 269.55664 C 1131.5805 251.8109 1109.7057 229.68096 1090.8281 213.80469 C 1069.3419 195.73458 1051.7833 183.52481 1049.2227 179.61133 C 1045.9593 174.62375 1085.486 186.8469 1097.9844 187.64648 C 1120.3234 189.07562 1141.0236 190.23021 1159.8359 187.1875 C 1168.8067 185.73657 1187.6884 178.66094 1201.3145 168.26562 C 1218.1588 155.41515 1232.8859 138.482 1233.0723 135.16406 C 1221.1597 138.41557 1164.2656 135.73362 1042.1523 97.789062 C 1056.1982 91.470593 1145.3543 113.13329 1184.375 3 C 1126.4114 27.08703 1049.8887 28.55455 1049.7715 28.53125 L 934.31836 26.572266 C 934.31836 26.572266 912.80894 28.548861 899.17188 38.650391 C 885.53481 48.751911 875.47694 58.427969 871.94141 69.287109 C 868.40585 80.146249 868.36328 94.000423 868.36328 103.0918 C 868.36328 112.18317 868.49868 120.92572 872.06445 133.37109 C 876.22766 147.90168 903.46984 169.40283 906.07812 172.10352 C 909.33864 175.47956 932.6634 182.5292 938.10742 184.15625 C 942.94668 185.60256 944.33281 190.19239 944.83789 191.45508 C 945.34297 192.71777 943.19423 217.63938 941.07617 233.10547 C 938.9665 248.5103 926.70312 276.68712 918.6875 290.22266 C 916.67335 293.62386 895.87397 321.34321 883.05273 333.1543 C 879.85716 336.09809 848.20287 358.91291 832.29297 364.46875 C 816.38307 370.02459 755.7742 376.33729 751.22852 374.06445 L 748.2793 376.08203 C 744.9482 366.98515 740.10097 361.1704 733.42773 359.0332 C 724.58517 354.30088 742.1991 362.33667 721.2168 352.68359 C 767.76072 362.0158 746.79206 357.43981 732.24219 346.32617 C 689.10351 303.92352 723.70509 327.52828 735.98633 329.12891 C 704.89619 274.92729 720.86053 244.4903 727.19141 223.59375 L 736.78711 249.85742 L 748.19531 199.22656 L 769.61719 218.54297 C 765.29161 196.07997 761.44102 172.80163 750.6582 161.4082 C 768.64278 165.49254 781.40905 165.23753 783.61328 164.16016 C 788.29418 161.87226 764.67923 151.93103 763.79102 135.64844 C 779.13003 137.38021 786.50551 134.83242 798.19141 121.83984 C 801.76068 117.87147 781.52335 126.08832 782.39258 123.50195 C 737.76498 81.994176 778.94232 101.83505 780.61719 93.580078 C 717.37303 59.002814 766.36666 70.268668 763.23438 60.244141 C 716.23205 39.463272 733.79039 50.445454 752.98438 24.027344 C 742.21541 27.094634 726.85633 31.384916 706.98828 28.128906 C 707.13825 24.143906 671.63076 14.461829 616.21289 13.349609 C 596.85456 12.961089 584.02238 14.465864 582.73828 33.683594 C 653.87509 117.18877 653.28082 149.91098 617.08398 157.42773 C 625.66934 174.56681 631.74077 184.57608 629.15625 189.94727 C 624.8058 198.98843 601.52723 206.86285 550.75977 235.56641 C 574.66096 243.86674 626.7141 217.06755 550.98047 266.73438 C 501.47834 290.13572 540.05182 280.89368 556.47461 280.16211 C 544.32509 298.20459 530.49966 316.09482 507.98828 333.19531 L 519.60352 343.80078 C 454.95977 364.44477 506.09432 354.53711 502.64258 359.0332 C 495.96934 361.1704 491.12212 366.98515 487.79102 376.08203 L 484.8418 374.06445 C 480.29612 376.33729 419.68724 370.02459 403.77734 364.46875 C 387.86744 358.91291 356.21315 336.09809 353.01758 333.1543 C 340.19634 321.34321 319.39893 293.62386 317.38477 290.22266 C 309.36915 276.68712 297.10576 248.5103 294.99609 233.10547 C 292.87803 217.63938 290.72735 192.71777 291.23242 191.45508 C 291.7375 190.19239 293.12558 185.60256 297.96484 184.15625 C 303.40885 182.5292 326.73362 175.47956 329.99414 172.10352 C 332.60243 169.40283 359.8446 147.90168 364.00781 133.37109 C 367.57358 120.92572 367.70898 112.18317 367.70898 103.0918 C 367.70898 94.000423 367.66447 80.146249 364.12891 69.287109 C 360.59338 58.427969 350.5355 48.751911 336.89844 38.650391 C 323.26138 28.548861 301.75195 26.572266 301.75195 26.572266 L 186.29883 28.53125 C 186.18169 28.55455 109.66086 27.08703 51.697266 3 z "
     style="fill:#ffff00;stroke-linejoin:round;stroke-width:1.5;stroke:#000000" />
  <g
     id="garnished">
    <path
       d="m 754.50799,429.83978 c 134.00143,-14.18924 231.05856,-75.16932 223.1349,-270.80707 14.44639,7.22612 29.12241,14.9114 25.00001,-15 18.4598,-21.79016 4.903,-24.37036 -14.28573,-23.57143 10.53437,-12.7594 -0.70007,-42.812032 -20,-16.42857 -22.99692,-14.663181 -43.60701,0.84523 -20.71428,21.42857 -22.81953,0.15317 -35.61436,5.87562 -24.28572,25 l 10.71429,0.71428 c -6.30829,19.80805 3.18348,20.65602 15.71428,17.85715 l 7.14286,-6.42857 c 12.21754,162.6906 -69.18206,229.42365 -202.75594,242.67805 0.19284,8.18586 0.56804,16.37173 0.33533,24.55759 z M 481.30642,429.62864 C 348.3163,415.052 251.90073,353.71549 259.78571,159.03271 c -14.44639,7.22612 -29.12236,14.9114 -25,-15 -18.45977,-21.79016 -4.90297,-24.37036 14.28572,-23.57143 -10.53437,-12.7594 0.70007,-42.812032 20,-16.42857 22.99692,-14.663181 43.60701,0.84523 20.71428,21.42857 22.81953,0.15317 35.61436,5.87562 24.28572,25 l -10.71429,0.71428 c 6.30829,19.80805 -3.18348,20.65602 -15.71428,17.85715 L 280.5,162.60414 c -12.1873,162.28787 68.5205,229.09267 201.5058,242.57864 -0.50394,8.14862 -0.65278,16.29724 -0.69938,24.44586 z"
       style="fill:#00ffff;stroke-linejoin:round;stroke-width:1.5;stroke:#000000"
       id="path26860" />
  </g>
  <path
     id="rect17052"
     style="fill:#ffffff;stroke-width:1.5;stroke-linejoin:round"
     d="m 642.82141,55.639841 22.94397,1.696429 0.0918,21.160722 h -23.03575 z" />
  <path
     id="path16160"
     style="color:#000000;fill:#000000;stroke-width:1.5;stroke-linejoin:round"
     d="m 635.06431,31.47309 c -1.15479,0.34734 -2.66105,-1.28094 -3.32324,-3.70881 -0.49401,5.1617 -0.76593,10.63431 -0.0805,17.44725 1.28712,3.72996 2.96495,6.48311 4.72334,9.034891 -0.60288,3.56257 -1.99905,8.752497 -2.02047,11.571783 -0.0546,7.182341 2.93093,10.253295 7.23029,15.124646 6.11765,6.931556 13.88409,6.109418 27.26491,4.117969 0.78069,-0.11619 2.37733,3.139036 2.79759,3.274888 1.00046,0.323413 3.15589,2.400485 3.60888,0.168942 0.17122,-0.843421 -0.0542,-2.528484 0.58189,-3.653183 1.26913,-2.244004 1.40791,-7.05979 1.4253,-7.404152 0.21886,-4.61971 1.00062,-1.612052 -0.84462,-4.619057 -2.07966,-3.389018 -6.98951,-12.656726 -10.1777,-15.635407 -5.12082,-4.78431 -19.40996,-11.98361 -27.47995,-12.77828 -0.98601,-0.0971 -0.87561,-2.36967 -1.72013,-2.72352 -2.8824,-1.20771 -1.49202,-7.56026 -1.98561,-10.21796 z m 10.52498,24.795653 c 5.57315,1.648376 9.31207,2.968353 12.61072,5.14188 0.83493,0.550149 1.80879,0.904285 2.58124,1.625977 0.24066,0.224847 -0.12821,0.683331 -0.38956,0.836907 -0.61434,0.361007 -1.8566,1.421353 -4.60325,0.406671 -1.07963,-0.398842 0.88861,-3.219148 0.64108,-3.776435 -0.9379,-2.111521 -5.47787,-4.912531 -6.79778,-2.596308 -5.79352,10.166653 0.43573,15.112907 6.1808,14.4382 2.06898,-0.242983 6.95474,-2.763335 8.43082,-1.949169 2.58931,1.428196 0.9347,4.514208 1.06468,4.506205 -9.26264,2.985219 -11.49593,4.270001 -16.6875,0.147322 -3.58036,-2.843191 -7.38066,-3.927903 -3.03125,-18.78125 z" />
  <path
     d="m 747.25586,517.65234 c 8.12229,-68.11543 10.69852,-117.0535 1.02344,-141.57031 m -260.48828,0 c -9.87143,24.64993 -7.32593,72.35253 1.02539,141.57227 M 994.07143,69.746992 C 1040.2814,63.147982 1096.6577,60.78491 1121.9286,45.46128 m -320,415.71429 7.14286,32.85714 m 48.57143,-54.28572 13.57142,40.71429 m 37.85715,-63.57143 17.14285,30.71429 m 18.57143,-62.85715 22.14286,24.28572 m -1.42857,-57.14286 19.28571,12.14286 m -4.28571,-49.28572 22.85717,5.71429 m -7.85717,-46.42857 19.99997,5.71428 m -14.2857,-42.14285 h 10 m -11.42856,-22.14286 c 25.87466,12.23297 60.03846,24.08916 4.99996,40 36.0398,19.48492 39.6874,35.73063 -19.28567,45.71428 9.69991,-1.95101 103.23907,42.77802 -12.85714,33.57143 71.13301,62.82509 19.98113,56.45608 -12.14286,40 62.08777,45.6301 11.02322,69.86341 -30.71429,35.71429 54.79091,85.44652 -26.06942,77.7261 -40,27.85714 18.89907,54.36909 -32.28073,108.49589 -55.71428,14.28572 4.87492,103.72792 -52.8735,73.58653 -62.85715,13.57143 m 27.85715,228.57142 v -170 M 926.9286,802.60414 C 917.5758,760.70728 904.25635,621.6942 891.21431,482.03271 M 1089.7857,782.60414 C 1053.4691,691.42961 1020.126,545.758 985.50003,422.46128 m 180.71427,107.28571 c -34.3149,-51.10483 -52.8452,-69.62216 -142.8571,-235.71428 m 21.4285,-82.14286 c 90.8594,91.66032 106.721,97.85811 117.1429,97.85714 m 5.7143,-149.28571 c -42.535,4.06862 -87.9666,-4.89747 -134.2857,-17.85714 M 241.92857,69.746992 C 195.71858,63.147982 139.34233,60.78491 114.07143,45.46128 M 435.5,461.17557 l -7.14286,32.85714 m -48.57143,-54.28572 -13.57142,40.71429 m -37.85715,-63.57143 -17.14285,30.71429 M 292.64286,384.74699 270.5,409.03271 m 1.42857,-57.14286 -19.28571,12.14286 m 4.28571,-49.28572 -22.85714,5.71429 m 7.85714,-46.42857 -20,5.71428 m 14.28572,-42.14285 h -10 m 11.42857,-22.14286 c -25.87468,12.23297 -60.03844,24.08916 -5,40 -36.03975,19.48492 -39.68733,35.73063 19.28571,45.71428 -9.69992,-1.95101 -103.23907,42.77802 12.85714,33.57143 -71.133,62.82509 -19.98113,56.45608 12.14286,40 -62.08777,45.6301 -11.02322,69.86341 30.71429,35.71429 -54.79091,85.44652 26.06942,77.7261 40,27.85714 -18.89907,54.36909 32.28073,108.49589 55.71428,14.28572 -4.87492,103.72792 52.8735,73.58653 62.85715,13.57143 m -27.85715,228.57142 v -170 M 310.5,802.60414 c 9.3528,-41.89686 22.67225,-180.90994 35.71429,-320.57143 M 147.64286,782.60414 C 183.95949,691.42961 217.30258,545.758 251.92857,422.46128 M 71.21428,529.74699 C 105.5292,478.64216 124.05954,460.12483 214.07143,294.03271 M 192.64286,211.88985 C 101.78351,303.55017 85.92189,309.74796 75.5,309.74699 M 69.78571,160.46128 c 42.53502,4.06862 87.96664,-4.89747 134.28572,-17.85714"
     style="color:#000000;fill:none;stroke:#000000;stroke-width:1.5;stroke-linejoin:round"
     id="path1274" />
</svg>
