<?xml version="1.0" encoding="utf-8"?>
<svg xmlns="http://www.w3.org/2000/svg"
      xmlns:dc="http://purl.org/dc/elements/1.1/"
      xmlns:xl="http://www.w3.org/1999/xlink"
      xmlns:xlink="http://www.w3.org/1999/xlink"
      version="1.1"
      viewBox="72 63 220.5 337.5"
      width="220.5"
      height="337.5"
      preserveAspectRatio="xMidYMid meet"
      zoomAndPan="magnify"
      contentScriptType="text/ecmascript"
      contentStyleType="text/css">
   <defs/>
   <metadata xmlns=""
              xmlns:cc="http://creativecommons.org/ns#"
              xmlns:rdf="http://www.w3.org/1999/02/22-rdf-syntax-ns#"
              xmlns:svg="http://www.w3.org/2000/svg">
      <rdf:RDF>
         <cc:Work rdf:about="">
            <dc:creator>
               <cc:Agent>
                  <dc:title>http://heraldicart.org Falcon Regardant.svg</dc:title>
               </cc:Agent>
            </dc:creator>
         </cc:Work>
      </rdf:RDF>
   </metadata>
   <g id="Falcon_Regardant"
       stroke-opacity="1"
       stroke-dasharray="none"
       stroke="#505050"
       fill="#ffff00"
       fill-opacity="1">
      <title>Falcon Regardant</title>
      <g id="Falcon_Regardant_Layer_2">
         <title>Layer 2</title>
         <g id="Group_3">
            <g id="outline-1">
               <path d="M 117.52694 74.00614 C 111.40698 77.26424 106.46054 80.91627 106.49593 81.92982 C 106.52627 82.79859 102.75841 86.98934 97.97699 91.21549 C 82.78924 104.64824 75.09586 129.27197 75.5399 162.74468 C 75.9228 182.0124 76.09287 182.73131 88.54425 203.0273 C 92.53643 209.41157 129.76505 245.94885 132.37134 245.85784 C 133.96408 245.80222 141.45338 256.8484 142.61863 261.15682 C 143.27365 263.3085 144.22331 265.59487 144.68803 266.44847 C 146.05691 268.28528 149.22767 280.20712 150.69446 288.9991 C 151.44555 293.90188 151.12747 297.2473 149.66114 300.92278 C 146.83789 307.2551 147.54347 310.85473 151.95302 312.58537 C 154.59977 313.6527 155.22445 314.93563 155.2718 320.44286 C 155.25341 324.06777 154.7772 331.18796 153.94061 336.29114 C 152.318 347.94545 149.08887 350.95763 136.53223 352.5559 C 129.17302 353.53773 127.42538 353.3088 126.63062 351.30698 C 125.37114 348.45155 118.27117 348.5545 115.9108 351.53635 C 114.9377 352.7301 113.09077 353.8094 111.78762 353.8549 C 109.18133 353.9459 104.64583 361.0629 104.77729 364.82753 C 104.8228 366.13068 105.72696 367.1139 106.73546 366.9337 C 110.34014 366.3729 119.93194 367.05276 117.05629 367.73306 C 115.47366 368.07827 113.08801 370.33614 111.86071 372.55355 C 108.1788 379.2058 109.44012 386.2653 113.66259 382.63858 C 114.64581 381.7344 116.80255 381.2242 118.41046 381.60295 C 120.01836 381.9817 121.3114 381.6466 121.28611 380.92265 C 121.26589 380.34347 122.12454 380.02355 123.29806 380.4175 C 124.32679 380.81647 125.60465 380.047 125.99858 378.87347 C 127.18038 375.3529 130.09649 375.83095 129.20428 379.3414 C 126.88114 387.5409 133.95766 390.91803 138.34331 383.66132 C 143.41754 375.36577 144.37548 373.73764 145.00843 371.10607 C 146.0606 368.02494 147.79308 367.81947 149.05761 370.8197 C 149.5375 372.10768 148.75975 374.7443 147.2378 376.82704 C 145.71586 378.9098 144.53406 382.43034 144.6099 384.60225 C 144.73631 388.2221 145.03602 388.5016 152.71516 388.3784 C 157.06403 388.3715 160.66366 387.6659 160.63838 386.94194 C 160.60804 386.07318 161.60137 385.4586 162.75973 385.41815 C 163.91808 385.3777 164.90636 384.61834 164.88107 383.89437 C 164.83051 382.44643 169.84084 376.47264 171.144 376.42713 C 172.73673 376.3715 171.86474 380.46114 169.8983 382.26946 C 166.52437 385.2867 167.47588 391.77714 171.92082 394.52133 C 176.06607 396.98605 179.8105 396.2754 179.69925 393.08994 C 179.6588 391.9316 181.04101 389.9987 182.73809 388.77967 C 185.14397 387.101 185.79715 385.0486 185.6404 380.55997 C 185.6689 377.22465 186.00722 374.4584 186.73119 374.4331 C 187.31036 374.4129 187.68912 372.805 187.61834 370.77786 C 187.46665 366.43404 191.64545 365.70823 195.54156 369.3414 C 198.5335 371.99137 210.7316 372.5802 213.54658 370.16237 C 214.94902 368.80866 215.97774 369.20765 218.09082 371.59836 C 221.86236 375.81577 222.57622 375.5009 222.37902 369.85393 C 222.2071 364.93094 218.65942 358.8211 215.90833 358.91716 C 215.03957 358.9475 213.12185 357.99967 211.6284 356.7471 C 209.39076 354.9406 208.22735 354.83627 203.21518 356.60597 C 196.77024 358.86062 189.60454 357.08127 190.6466 353.71055 C 192.20716 348.5821 194.00628 329.5281 194.2499 315.7474 C 194.26828 312.12248 200.07016 312.2098 200.20162 315.97446 C 200.26735 317.8568 201.3163 318.83495 203.05383 318.77427 C 204.50178 318.7237 206.049 317.36494 206.42777 315.75704 C 206.80653 314.14914 207.62979 312.81565 208.35376 312.79037 C 209.6569 312.74486 209.98694 313.8931 219.02255 344.31134 C 224.45808 362.9677 224.778 363.82636 229.6371 365.9762 C 237.00322 369.34325 247.03952 370.2975 248.5463 367.7804 C 249.64397 366.0024 249.93356 365.9923 251.1526 367.68937 C 252.2167 369.1019 254.25394 369.3207 259.29645 368.4198 C 263.19072 367.84888 268.703 367.94632 271.76896 368.5641 C 275.71885 369.58594 278.32515 369.49493 280.16702 368.27085 C 283.86593 366.25706 282.566 362.24328 272.0475 343.3295 C 267.7152 335.5074 262.4433 325.68853 260.27966 321.84987 C 258.25576 317.86137 255.15763 312.17074 253.30886 309.04594 C 251.6049 305.9161 249.581 301.9276 248.7913 300.07055 L 247.3769 296.9306 L 252.26634 299.9492 C 254.79357 301.74557 259.24863 304.77935 261.93583 307.00504 C 264.61797 309.08593 268.4433 310.692 270.3256 310.62627 C 272.20793 310.56053 274.25528 311.06892 274.72 311.9225 C 275.17966 312.6313 277.81123 313.26427 280.41753 313.17326 C 285.48532 312.9963 290.691 308.4654 288.4382 306.22452 C 287.68895 305.52584 284.60598 300.26958 281.3681 294.7288 C 278.26997 289.03816 272.76412 280.82213 269.12726 276.31007 C 259.2707 263.89686 245.19947 238.72844 246.7012 236.06652 C 248.89654 232.51057 248.26174 230.93806 242.34173 223.31637 C 239.16454 219.51312 232.33026 210.61863 227.00965 203.5559 C 221.8389 196.6329 216.5385 190.14935 215.34982 189.32103 C 214.15607 188.34792 213.09195 186.93538 213.06667 186.2114 C 213.03633 185.34264 211.20273 182.65223 208.9398 180.12178 C 206.5321 177.5964 201.39167 171.54216 197.30526 166.6109 C 187.32412 154.7819 167.4092 136.63117 161.97597 134.64634 C 159.47907 133.71874 157.53607 132.04695 157.49057 130.7438 C 157.45012 129.58545 156.5055 127.44388 155.3067 126.32597 C 154.24764 125.05822 152.71374 122.64729 152.22374 121.06972 C 151.41381 118.6335 151.9576 117.59972 155.52688 116.02537 C 166.0849 111.16259 177.2106 114.25336 177.48364 122.07224 C 177.64038 126.56086 179.80218 126.19543 184.8378 120.9456 C 189.02993 116.4501 189.27907 115.28163 188.50085 105.4508 C 188.1892 100.67766 187.10485 98.68593 181.7254 94.08976 C 178.2839 91.02058 174.0426 85.80478 172.47835 82.52508 C 169.33977 75.67609 163.4216 72.25849 149.68455 69.11394 C 135.95256 66.11417 129.89649 67.05051 117.52694 74.00614 Z M 175.77004 313.78325 L 175.77004 313.78325 C 175.41656 316.11512 176.32577 317.24314 178.5179 317.74647 C 181.58892 318.50905 181.74888 318.93838 181.2998 330.9866 C 180.95826 337.81217 179.7783 345.5368 178.57123 348.3334 C 176.0224 354.22124 170.89577 356.86477 166.47105 354.69975 C 163.8142 353.34282 163.4892 352.33938 164.0546 343.6214 C 164.5492 332.8763 164.90773 330.6892 166.37911 327.15854 C 166.91278 325.83517 167.14675 324.23232 166.83188 323.51847 C 166.6618 322.79955 167.84865 319.4238 169.75442 315.87794 C 173.1518 309.3806 176.30187 308.2558 175.77004 313.78325 Z M 166.49679 367.8912 L 166.49679 367.8912 C 166.08769 368.6303 164.95462 369.39474 164.23065 369.42 C 163.36188 369.45036 163.1918 368.73144 163.6009 367.9923 C 164.00495 367.10837 165.14308 366.48874 165.86705 366.46346 C 166.73581 366.43313 166.90083 367.00725 166.49679 367.8912 Z"
                      fill="black"/>
            </g>
            <g id="Graphic_15">
               <path d="M 150.2858 73.87697 C 154.3653 74.459364 158.48527 76.20011 159.84404 77.74734 C 161.2028 79.29457 163.4354 80.95625 164.7537 81.34512 C 166.07202 81.734 168.32483 83.97486 169.56409 86.25111 C 173.42664 93.07482 170.5326 97.38003 160.06376 100.64502 C 149.59998 104.05481 137.93923 110.55078 138.0353 113.30187 C 138.11115 115.47378 139.85879 115.70269 141.82017 113.74958 C 143.64182 111.94632 152.4237 110.18994 152.47426 111.63788 C 152.49954 112.36185 151.52137 113.4108 150.2334 113.89069 C 148.37635 114.6804 147.9976 116.2883 148.77902 122.05984 C 149.73053 128.55029 149.4561 128.99478 147.09895 127.91733 C 143.25846 125.87688 131.8349 126.71072 130.02842 128.94836 C 129.20011 130.13705 125.93052 131.99087 122.63565 133.12073 C 105.03329 139.67921 93.2705 164.01013 98.44172 183.40058 C 103.45803 202.5065 107.49572 210.19391 119.06454 221.82248 C 121.3224 224.20814 123.14589 226.60896 123.17117 227.33293 C 123.19645 228.0569 125.2893 229.86844 127.81148 231.52 C 130.18886 233.17663 134.35939 236.36532 137.04658 238.591 C 139.58898 240.82176 142.5506 242.60296 143.41936 242.57262 C 144.28812 242.54228 146.80524 244.04906 148.89809 245.8606 C 150.99094 247.67213 155.86521 250.25635 159.82016 251.42298 C 168.3244 254.1704 183.63074 260.73944 186.90722 263.2345 C 188.24576 264.20254 191.189 269.60865 193.56315 275.32457 C 198.33676 287.48037 198.50178 288.0545 195.51994 285.69412 C 194.1814 284.72607 192.86309 284.3372 192.43882 284.64195 C 191.6004 285.54105 196.99684 294.7757 201.2331 299.8467 C 202.89157 301.6734 204.16116 304.81842 204.2269 306.70075 C 204.33308 309.74142 203.91386 310.19097 201.85135 309.2482 C 200.37813 308.5748 194.71094 308.1928 189.06397 308.39 L 178.92839 308.74395 L 178.34231 304.4153 C 177.5356 297.9198 171.383 283.6376 166.6618 277.1338 C 164.3736 273.8794 162.3598 270.18047 162.3143 268.87733 C 162.26879 267.57418 161.07504 266.60107 159.33751 266.66175 C 156.73122 266.75276 156.7464 267.18715 160.94404 275.3039 C 163.4276 280.0012 166.36577 285.2625 167.5848 286.95958 C 170.64754 291.63665 174.20718 302.24017 173.08928 303.43898 C 172.53033 304.03838 170.3837 304.8382 168.3667 305.19857 C 166.2049 305.564 163.47909 306.38404 162.34602 307.14846 C 161.0631 307.77315 158.32212 308.1588 156.13504 307.80027 C 152.63976 307.34244 152.32995 306.77338 153.54714 304.26637 C 156.1162 298.95772 154.8057 282.1869 150.751 269.861 C 149.46624 266.2816 148.48623 263.12648 148.32627 262.69715 C 147.99118 261.40412 142.87926 252.01457 140.8958 249.18442 C 139.97142 247.62202 132.76849 240.62502 124.99144 233.79304 C 104.79198 215.79721 95.03148 206.13509 91.9384 200.58924 C 90.54424 198.02846 87.6263 193.34632 85.63273 190.22659 C 83.78397 187.1018 81.44014 182.25464 80.47531 179.5339 C 78.19537 172.36498 78.14067 150.04141 80.36268 138.94605 C 81.48886 133.83275 82.4399 127.85574 82.65365 125.67372 C 82.87245 123.63649 84.86738 118.49285 87.18225 114.20787 C 89.50217 110.06768 91.38771 105.94266 91.36243 105.21869 C 91.30175 103.48116 103.45388 90.29938 105.19141 90.2387 C 106.06017 90.20837 109.71864 87.03623 113.34676 82.99532 C 116.97994 79.09921 121.06773 75.76711 122.21597 75.43707 C 123.36421 75.107035 124.9266 74.18265 125.77009 73.42834 C 127.16747 71.92984 138.48163 72.11462 150.2858 73.87697 Z"
                      />
            </g>
            <g id="Graphic_14">
               <path d="M 181.79298 100.17616 C 185.8541 104.38346 186.61026 109.43103 184.0412 114.73969 L 182.27517 118.13568 L 180.26644 114.58156 C 177.8031 110.46344 168.39976 106.8776 160.28624 107.01596 C 155.79762 107.17271 155.20833 106.90335 157.3499 105.95874 C 158.91736 105.17915 160.64478 104.82888 161.23407 105.09825 C 161.68362 105.51746 165.2428 103.65352 169.07133 101.2003 C 172.75507 98.75213 176.30414 96.5986 176.88331 96.57838 C 177.45743 96.41336 179.69002 98.07504 181.79298 100.17616 Z"
                      />
            </g>
            <g id="Graphic_13">
               <path d="M 145.22352 132.33194 C 145.83304 133.18048 146.71192 133.43973 147.42072 132.98007 C 148.12952 132.5204 149.0084 132.77965 149.6179 133.62819 C 150.07757 134.337 151.84038 135.00029 153.43312 134.94467 C 154.88106 134.8941 156.20443 135.42777 156.22465 136.00695 C 156.26005 137.02051 168.8962 146.00233 170.34415 145.95177 C 171.6473 145.90626 187.57694 162.02161 191.53372 167.39232 C 193.96672 170.64168 197.59853 175.00895 199.69643 176.96527 C 204.3519 181.58673 205.71573 183.27875 210.14735 189.79265 C 211.99106 192.77265 214.4089 195.58763 215.44267 196.1314 C 216.6263 196.81493 218.9044 199.77976 220.60837 202.9096 C 222.31235 206.03946 225.50977 210.4219 227.6178 212.6678 C 229.7258 214.91372 231.54423 217.16975 231.56446 217.74893 C 231.58468 218.3281 233.10341 220.30466 235.05147 222.12125 C 240.91586 228.1502 243.3893 232.5579 242.31186 234.91507 C 239.997 239.20005 251.79518 261.54844 266.52787 280.74997 C 269.41042 284.41854 271.69862 287.67296 271.70874 287.96255 C 271.71885 288.25214 274.17713 292.22547 277.09002 296.7628 C 280.0029 301.30015 282.46625 305.41827 282.49153 306.14224 C 282.5522 307.87977 274.14404 307.88345 270.45845 306.12754 C 261.01972 301.52814 251.94963 295.03126 252.46308 293.1287 C 252.86207 292.1 252.34173 289.65365 251.26244 287.80673 C 249.0988 283.96807 219.84764 255.85045 218.1101 255.91113 C 215.35902 256.0072 217.63712 258.97203 226.16847 266.6475 C 231.25833 271.25378 236.8028 276.42408 238.60606 278.24572 C 240.25947 279.92763 243.2666 283.01197 245.2197 284.97336 C 247.02296 286.795 248.5619 289.35074 248.60742 290.65388 C 248.67315 292.5362 247.49457 291.99748 243.90322 288.78857 C 241.21097 286.41808 235.72213 282.84052 231.59205 280.8102 C 227.61182 278.9196 220.96968 275.52727 216.83455 273.35215 C 212.83915 271.02717 206.197 267.63485 202.07199 265.7493 C 198.0867 263.71392 192.31838 260.43606 189.4965 258.505 C 186.66957 256.42917 179.30346 253.06214 173.286 250.95274 C 136.45224 238.17685 111.12752 214.56118 103.316 185.9848 C 100.99561 177.65754 102.2105 158.479 105.10638 158.37787 C 105.83035 158.35259 106.09971 157.7633 105.64005 157.0545 C 104.57593 155.64195 114.39113 141.9619 115.8694 142.7801 C 116.45869 143.04946 118.02109 142.12508 119.27367 140.63163 C 120.666 138.98833 124.50464 136.8247 128.0891 135.68473 C 131.52876 134.54982 134.37408 133.00075 134.35386 132.42158 C 134.29318 130.68405 144.14929 130.6298 145.22352 132.33194 Z"
                      />
            </g>
            <g id="Graphic_12">
               <path d="M 208.7463 274.21448 C 213.16597 276.2347 218.4898 279.23814 220.72744 281.04462 C 224.30362 283.81915 228.57344 285.69963 235.5994 287.62884 C 236.9177 288.0177 239.1857 290.69295 240.60008 293.8329 C 242.0094 296.8281 243.8683 300.24247 244.7775 301.37048 C 245.54192 302.50355 247.25095 305.7782 248.50538 308.48883 C 249.9046 311.1944 255.03674 321.16314 260.00387 330.55774 C 265.1158 339.9473 269.93306 349.20216 270.8726 351.19894 C 271.81217 353.1957 273.97075 356.88957 275.80435 359.58 C 277.4881 362.13066 278.59267 364.70156 278.1684 365.0063 C 277.7492 365.45587 274.1091 365.0031 270.16428 364.12606 C 264.90618 363.00494 262.39412 361.64296 261.74416 359.63607 C 261.1043 357.91876 259.06018 353.3511 257.18613 349.50232 C 255.16223 345.5138 251.5741 338.2456 249.07536 333.11393 C 246.57663 327.98225 243.10295 319.84023 241.3383 314.97285 C 239.7134 309.95562 237.3999 305.97723 236.53114 306.00757 C 234.35923 306.0834 234.2011 309.85817 236.27373 311.09053 C 237.15766 311.49457 237.7874 312.9223 237.8329 314.22544 C 237.87336 315.3838 238.8483 318.39413 240.0926 320.81517 C 241.34198 323.381 244.78026 330.50948 247.75383 336.78435 C 250.7274 343.0592 254.9301 351.32075 257.0988 355.3042 C 260.5017 361.4191 260.83172 362.56734 258.81472 362.9277 C 255.79933 363.75787 249.74648 360.6349 247.74786 357.3704 C 246.97332 355.94773 244.584 349.79743 242.4893 343.7818 C 237.16502 328.3109 231.48725 315.1719 229.24455 313.2206 C 227.741 311.67844 227.61642 312.26267 228.60654 315.7074 C 229.77179 320.01582 237.05424 337.5929 241.1071 345.7147 C 243.131 349.7032 244.05722 355.46968 243.96988 361.27155 C 243.90093 363.4485 243.18708 363.7634 239.25235 363.17594 C 228.31696 361.38325 228.4668 361.523 222.85615 342.0029 C 215.4151 315.73314 211.06577 303.27257 207.00786 295.006 C 201.56084 284.3234 199.2069 279.18666 198.04671 275.02303 C 197.3917 272.87134 196.30229 270.73482 195.56315 270.32572 C 194.824 269.91662 194.19933 268.6337 194.15382 267.33056 C 194.08303 265.30344 194.66726 265.428 197.5043 267.79344 C 199.29746 269.3255 204.32664 272.19425 208.7463 274.21448 Z"
                      />
            </g>
            <g id="Graphic_11">
               <path d="M 163.11917 316.8345 C 162.7657 319.16637 161.87854 322.8216 161.38532 325.30334 C 160.24398 329.98226 158.63332 346.13024 158.7009 352.21665 C 158.7919 354.82294 158.10333 355.8618 155.93142 355.93763 C 150.28445 356.13482 142.96753 362.4791 141.44236 368.62113 C 140.53499 371.6972 138.90364 374.79855 137.76046 375.2734 C 136.61727 375.7482 135.64922 377.08675 135.69473 378.3899 C 135.73518 379.54825 135.1914 380.58204 134.46743 380.6073 C 133.59866 380.63766 133.53799 378.90013 134.176 376.41335 C 135.82573 369.6871 132.58464 368.2056 126.22566 372.92174 C 120.28588 377.18834 116.54652 378.04378 117.58858 374.67306 C 118.1273 373.4945 118.82599 372.74523 119.41528 373.0146 C 119.85978 373.289 123.71865 371.70455 127.98157 369.23616 L 135.80872 365.04862 L 131.81333 362.72364 C 129.73565 361.3465 127.24887 360.7085 126.54007 361.16814 C 124.84299 362.38717 113.34358 361.0491 113.29807 359.74595 C 113.2829 359.31156 115.26452 357.93763 117.68556 356.6933 C 121.39459 354.9691 122.26335 354.9388 124.65085 356.885 C 128.53684 360.2286 149.5067 358.77145 149.3803 355.1516 C 149.35501 354.42763 150.87696 352.3449 152.8434 350.53658 C 155.9328 347.67425 156.57587 345.33227 157.4644 333.41365 C 158.70962 315.10386 159.218 313.05652 161.6795 312.97056 C 163.41704 312.9099 163.74202 313.91333 163.11917 316.8345 Z"
                      />
            </g>
            <g id="Graphic_10">
               <path d="M 191.4988 315.84346 C 191.73646 322.64878 189.65143 350.12104 188.52525 355.23434 C 187.65832 359.46876 187.8284 360.18767 191.65878 361.93853 C 196.81758 364.36785 201.02167 364.366 205.00006 362.05253 C 207.41605 360.66342 208.28987 360.77788 209.36916 362.6248 C 210.13864 363.90267 211.462 364.43634 212.3156 363.9716 C 213.16414 363.3621 213.45879 363.4968 213.05474 364.3807 C 211.00418 367.93162 202.01684 367.95553 193.63717 364.6239 C 184.51836 360.88314 182.37173 361.68296 182.175 368.50345 C 181.75625 381.42046 181.0139 385.07065 178.61812 387.03893 C 174.8098 390.07133 172.19846 390.01755 173.24557 386.79163 C 173.77924 385.46826 174.45265 383.99503 174.87186 383.5455 C 175.29108 383.09593 176.93254 380.28417 178.2743 377.19293 C 183.26762 366.58068 174.57492 366.73926 163.78983 377.55377 C 158.60942 382.80864 156.75238 383.59835 153.34627 381.54273 C 152.16264 380.8592 151.67264 379.28165 152.32076 377.08445 C 153.0884 374.15823 153.51773 373.99827 155.47084 375.95966 C 157.56874 377.916 158.28766 377.7459 162.97485 374.97276 C 171.0663 370.05114 177.40001 364.611 176.47563 363.0486 C 175.10675 361.2118 165.42072 361.98496 161.44233 364.29845 C 158.60207 365.9923 152.66551 366.1996 152.61495 364.75168 C 152.47843 360.84224 154.62506 360.04242 164.93071 360.4074 C 175.38117 360.7673 175.95529 360.6023 178.8645 356.73146 C 182.46734 351.9666 182.59191 351.38236 183.67717 332.64325 C 184.3469 322.76186 185.43768 316.635 186.96469 314.69706 C 190.02375 310.96597 191.337 311.21005 191.4988 315.84346 Z"
                      />
            </g>

            <g id="outline-2">
            <g id="Graphic_9">
               <path d="M 140.31569 87.27249 C 140.65078 88.56552 142.28903 89.81305 143.89187 90.04702 C 145.63951 90.27593 147.8721 91.93762 148.95645 93.92934 C 150.03574 95.77627 151.6841 97.31338 152.55791 97.42784 C 153.42668 97.3975 155.31911 97.62136 156.92196 97.85533 C 161.44091 98.56734 163.55215 96.75397 163.40046 92.41015 C 163.22349 87.34236 160.71648 86.12517 148.94266 85.23158 C 140.66411 84.79582 139.8004 84.97096 140.31569 87.27249 Z"
                     fill="black"/>
            </g>
            <g id="Graphic_7">
               <path d="M 170.2706 206.11715 C 170.306 207.1307 173.46803 210.49958 177.19406 213.41385 C 180.9201 216.32812 187.0943 222.92613 190.90123 228.1571 C 200.02878 240.4508 207.30571 245.41563 214.35512 243.86472 C 219.8219 242.65902 220.57436 239.29842 215.49646 239.1858 C 214.04346 239.09157 211.43211 239.0378 209.83432 238.94862 C 206.63874 238.77027 195.76034 230.30695 195.67944 227.99024 C 195.61876 226.2527 172.80106 203.85422 171.20832 203.90984 C 170.62914 203.93007 170.23016 204.9588 170.2706 206.11715 Z"
                      fill="black"/>
            </g>
            <g id="Graphic_6">
               <path d="M 195.09107 206.99005 C 196.29998 208.39754 201.12048 213.59311 205.93086 218.4991 C 210.74124 223.4051 215.422 228.75052 216.20664 230.46277 C 218.70031 235.44966 227.12043 239.93965 232.4576 239.1734 C 235.05377 238.7928 237.33508 237.69833 237.729 236.5248 C 238.1179 235.2065 237.5286 234.93713 235.38197 235.73695 C 230.65433 237.35175 226.78856 234.58733 210.72928 218.91142 C 202.62725 211.076 195.2947 204.51843 194.57073 204.54372 C 193.70196 204.57405 194.032 205.7223 195.09107 206.99005 Z"
                      fill="black"/>
            </g>
            <g id="Graphic_5">
               <path d="M 145.32742 210.03257 C 144.21457 211.37616 178.80473 242.9316 180.36712 242.00723 C 180.93113 241.55262 181.96492 242.0964 182.72428 243.08468 C 185.94698 248.19108 198.48017 250.07294 197.44455 245.32508 C 197.09934 243.74245 195.47627 242.9293 192.58039 243.03044 C 186.92836 243.08284 178.02835 237.30487 162.1695 223.21664 C 145.85603 208.5644 146.30558 208.98361 145.32742 210.03257 Z"
                      fill="black"/>
            </g>
            <g id="Graphic_4">
               <path d="M 228.46955 253.66475 C 228.54034 255.69187 233.69593 262.18048 241.05376 269.462 C 244.96504 273.52957 248.13718 277.18804 248.15235 277.62242 C 248.16752 278.0568 250.4355 280.73204 253.14798 283.6817 C 255.71566 286.63642 259.4872 290.85383 261.30057 292.96507 C 263.119 295.2211 265.04683 296.4585 265.60578 295.8591 C 266.16473 295.2597 265.23024 293.40772 263.42698 291.58608 C 261.6237 289.76443 260.09993 287.6431 260.07465 286.9191 C 260.04937 286.19514 258.8354 284.64286 257.34195 283.39028 C 255.99835 282.27743 251.46744 277.07174 247.22613 271.85594 C 243.1296 266.63508 239.35806 262.41766 238.6341 262.44295 C 238.05492 262.46317 237.4454 261.61463 237.41 260.60107 C 237.36956 259.44272 235.84577 257.32137 233.90277 255.64958 C 230.31142 252.44067 228.40382 251.78243 228.46955 253.66475 Z"
                      fill="black"/>
            </g></g>
            <g id="Graphic_8">
               <path d="M 158.16765 92.013 C 159.11731 94.29937 157.82934 94.77926 154.15892 93.45772 C 150.933 92.41061 151.14169 90.08379 154.47195 89.9675 C 155.9199 89.91693 157.54802 90.87487 158.16765 92.013 Z"
                     fill="white"
               />
            </g>
         </g>
      </g>
   </g>
</svg>
