<?xml version="1.0" encoding="utf-8"?>
<svg xmlns="http://www.w3.org/2000/svg" xmlns:dc="http://purl.org/dc/elements/1.1/"
     xmlns:xl="http://www.w3.org/1999/xlink"
     xmlns:xlink="http://www.w3.org/1999/xlink"
     version="1.1"
     viewBox="63 84.65625 238.5 307.6875"
     width="238.5"
     height="307.6875"
     preserveAspectRatio="xMidYMid meet"
     zoomAndPan="magnify"
     contentScriptType="application/ecmascript"
     contentStyleType="text/css">
   <defs/>
   <metadata xmlns="" xmlns:svg="http://www.w3.org/2000/svg"
             xmlns:rdf="http://www.w3.org/1999/02/22-rdf-syntax-ns#"
             xmlns:cc="http://creativecommons.org/ns#">
      <rdf:RDF>
         <cc:Work rdf:about="">
            <dc:creator>
               <cc:Agent>
                  <dc:title>http://heraldicart.org Antelope Salient.svg</dc:title>
               </cc:Agent>
            </dc:creator>
         </cc:Work>
      </rdf:RDF>
   </metadata>
   <g stroke-opacity="1" stroke-dasharray="none" stroke="#505050" fill="#ffff00"
      fill-opacity="1">
      <title>Antelope Salient</title>
      <g>
         <title>Layer 2</title>
         <g>
            <g>
               <g  id="outline-0">
                  <path
                        d="M 164.4141 86.79825 C 162.70341 88.74011 159.69816 94.38075 158.63476 97.57094 C 157.52512 100.89985 157.01654 103.85887 156.36925 110.56291 L 156.04561 113.66064 L 153.68764 113.98428 C 152.39306 114.16922 149.89639 114.30792 148.09323 114.30792 C 139.44733 114.26169 136.30337 114.12298 136.11843 113.84558 C 135.97973 113.66064 136.53455 112.13489 137.32054 110.51667 C 138.98499 107.04907 143.83964 102.10195 146.15137 101.40843 C 147.81582 100.94608 148.13947 99.60527 146.8449 98.81928 C 145.31915 97.84835 134.2228 104.78356 132.00354 108.06623 C 129.59933 111.67254 128.44346 109.96186 130.33909 105.61579 C 131.44872 102.93417 133.99163 99.74398 135.84102 98.63434 C 137.36677 97.75588 137.78288 95.72155 136.48831 95.72155 C 136.0722 95.72155 134.0841 96.55378 132.09601 97.57094 C 130.06168 98.58811 128.11982 99.42033 127.74994 99.42033 C 126.91772 99.42033 124.51351 104.45992 124.05116 107.14154 C 123.91246 108.1587 123.49635 109.40704 123.1727 109.86939 C 122.57165 110.65538 122.47918 110.60914 121.27708 109.68445 C 120.58356 109.12963 119.75133 108.66728 119.47392 108.66728 C 119.15028 108.66728 118.22558 108.1587 117.39336 107.55765 C 115.54397 106.17061 117.90264 108.64212 109.66521 109.0929 C 103.28854 109.51851 112.72365 112.2736 113.78705 113.66064 C 114.11069 114.07675 113.97199 114.49286 113.41717 115.14015 C 112.63118 116.01861 112.67741 116.11108 114.34186 118.56152 C 115.26656 119.94856 115.91385 121.28937 115.77514 121.56678 C 115.5902 121.84419 114.5268 122.07536 113.41717 122.07536 C 112.30754 122.07536 111.24414 122.30654 111.10543 122.58394 C 110.82802 123.00006 111.61401 127.34612 112.76988 131.8309 C 113.00106 132.75559 113.186 133.91146 113.186 134.3738 C 113.186 135.66838 115.68267 136.91672 124.51351 140.10691 C 126.54784 140.80044 128.02735 141.8176 130.06168 143.8057 C 131.58743 145.2852 133.76046 146.94966 134.8701 147.50447 C 136.71948 148.42917 136.85819 148.6141 136.58078 149.95492 C 136.44208 150.78714 136.2109 152.26665 136.0722 153.28382 C 135.70232 156.56649 135.0088 159.71045 134.0841 162.53077 C 131.77237 169.37351 130.70897 173.53464 130.06168 178.25058 C 129.6918 181.02467 129.18322 183.93746 128.95205 184.72345 C 128.21229 187.03519 126.73278 190.6415 125.94679 192.121 C 125.53067 192.86077 125.20703 193.73923 125.20703 194.01663 C 125.20703 194.29404 124.88339 194.80263 124.51351 195.12627 C 124.14363 195.44991 122.80282 197.80788 121.50825 200.39703 C 118.22558 207.10107 118.08688 207.19354 115.26656 206.59249 C 113.55587 206.2226 112.2613 205.48285 110.18074 203.6797 C 104.6788 198.87128 102.13589 198.13153 95.52432 199.51857 C 93.67493 199.93468 91.13202 200.30456 89.83745 200.39703 C 86.64725 200.6282 81.88507 201.78407 79.38839 202.8937 C 78.27876 203.4023 76.56807 204.04958 75.64338 204.37322 C 70.69626 205.89897 70.23391 209.32034 74.71868 210.89232 C 76.3369 211.44714 76.61431 212.00195 75.50467 212.41807 C 74.2101 212.88041 74.81115 213.99005 76.79925 214.96098 C 78.69487 215.88567 81.46896 216.53296 85.81502 216.9953 C 87.80312 217.22648 88.21923 216.94907 89.83745 214.35993 C 90.25356 213.6664 90.48473 213.71264 92.33412 214.5911 C 93.6287 215.28462 94.55339 215.46956 94.92327 215.19215 C 95.24691 214.96098 96.58772 213.89758 97.88229 212.83418 C 100.00909 211.1235 100.4252 210.93855 101.30366 211.4009 C 102.59824 212.0482 110.41191 220.13927 110.41191 220.8328 C 110.41191 221.06396 111.0592 221.8962 111.84519 222.68218 C 112.63118 223.42194 114.11069 225.17886 115.17409 226.5659 C 116.23749 227.95294 117.48583 229.38622 117.94818 229.7561 C 118.41052 230.07974 118.68793 230.63456 118.54923 230.9582 C 118.45676 231.28184 118.59546 233.31617 118.96534 235.44297 C 119.28898 237.52354 119.42769 239.4654 119.19651 239.65033 C 118.50299 240.3901 109.25604 237.1999 107.03677 235.4892 C 106.75937 235.2118 104.5401 234.33334 102.18212 233.54735 C 96.81889 231.69796 95.7555 231.8829 92.75024 234.9344 C 91.5019 236.18273 90.53097 237.38483 90.53097 237.56977 C 90.53097 237.7547 89.09769 239.37293 87.29453 241.12985 C 85.53761 242.933 84.0581 244.59745 84.0581 244.87486 C 84.0581 245.61462 76.29066 253.33582 72.82306 256.06367 C 69.494156 258.65282 67.78347 260.8721 67.96841 262.39783 C 68.06088 262.86018 68.7544 263.73864 69.54039 264.24722 C 70.32638 264.7558 70.8812 265.4031 70.78873 265.6805 C 70.51132 266.4665 71.57472 267.11378 74.99609 268.40835 C 79.24969 270.02657 81.88507 269.98033 83.64199 268.2234 C 84.70539 267.16 84.9828 266.42026 84.9828 264.84827 C 85.02903 261.19573 90.02239 254.4917 95.7555 250.42303 C 99.31557 247.92635 100.19403 247.64895 101.90472 248.5274 C 102.64447 248.89728 103.4767 249.22093 103.80034 249.22093 C 105.51103 249.22093 111.24414 252.781 118.82664 258.5141 C 121.27708 260.40974 124.32857 262.629 125.53067 263.46123 C 126.73278 264.29346 129.6918 266.37402 132.09601 268.0847 C 134.45398 269.7954 137.78288 272.0609 139.4011 273.1243 C 141.06555 274.1877 143.6547 276.0371 145.18044 277.19295 C 148.55558 279.82833 151.3759 280.5681 155.7682 279.9208 L 158.72723 279.5047 L 158.8197 274.92745 C 158.91216 272.38454 159.0971 270.16527 159.32828 269.9341 C 159.79063 269.47175 161.50131 270.44268 167.14195 274.23393 C 172.36648 277.74777 179.48663 281.4003 182.53812 282.14007 C 183.694 282.41748 184.84986 282.8336 185.1735 283.06477 C 185.91326 283.61958 190.99908 284.9604 198.02676 286.4399 C 202.14166 287.27213 205.0082 287.59577 209.16934 287.59577 L 214.7175 287.59577 L 218.13888 289.95374 C 219.98827 291.2483 222.06884 292.6816 222.71612 293.19018 C 225.30527 295.17827 229.83627 299.8942 230.89967 301.69737 C 231.50072 302.71454 232.70283 304.0091 233.48882 304.61016 C 236.49408 306.69072 238.29723 307.75412 239.86921 308.35517 C 240.74767 308.72505 244.44645 310.43574 248.05277 312.19266 C 254.4794 315.2904 263.44894 321.3009 263.44894 322.503 C 263.44894 322.7804 264.1887 323.89005 265.06715 324.9072 C 265.9456 325.9706 266.68537 327.08025 266.68537 327.45013 C 266.68537 327.82 266.8703 328.28235 267.10148 328.51353 C 267.74877 329.20705 269.7831 339.05505 270.3379 344.00217 C 270.61532 346.40638 270.93897 351.30726 271.1239 354.86733 C 271.2626 358.4274 271.58625 361.66384 271.81743 362.07996 C 272.0486 362.5423 271.9099 363.42076 271.44755 364.43793 C 270.8465 365.7325 269.96804 366.47226 267.42513 367.81306 C 261.50708 370.95703 260.2125 371.78925 257.34595 374.47087 C 254.6181 376.96755 250.04086 383.3017 250.04086 384.55004 C 250.04086 385.0124 251.10426 385.1511 254.43316 385.1511 C 259.51898 385.1511 259.7964 385.47474 257.48465 388.7574 C 255.86644 390.93044 256.23632 391.2541 259.33404 390.69927 C 260.44368 390.4681 263.1253 390.1907 265.29833 390.00575 C 271.7712 389.49716 277.2269 388.48 278.47523 387.60154 C 279.53863 386.81555 279.58487 386.58437 279.30746 383.99523 C 279.12252 382.4695 278.9838 380.6201 278.93758 379.92657 L 278.93758 378.632 L 284.532 378.53953 C 290.2651 378.44706 291.6059 378.03095 291.69837 376.41273 C 291.69837 375.9966 292.20695 374.19346 292.76177 372.43654 C 293.54776 369.93986 294.0101 369.2001 294.70363 369.2001 C 296.55302 369.15387 296.69172 368.69153 296.46055 363.51323 C 296.36808 360.7854 295.95197 355.56086 295.5821 351.86208 C 295.16598 348.1633 294.6574 343.16994 294.42622 340.76574 C 293.50153 331.9349 293.1779 322.41054 293.594 316.2613 C 293.77893 312.83995 294.05634 308.7713 294.10258 307.24554 C 294.19505 305.7198 294.42622 303.91664 294.61116 303.2231 C 294.98104 301.97478 294.9348 301.92854 293.36282 301.92854 C 292.43813 301.92854 291.55967 301.69737 291.42096 301.41996 C 291.23602 301.14255 290.5425 301.09632 289.71028 301.23502 C 288.32323 301.55867 285.64162 300.77268 285.64162 300.03292 C 285.64162 299.80175 285.31797 299.6168 284.9481 299.6168 C 284.532 299.6168 284.11587 299.29316 283.97717 298.9233 C 283.79223 298.46094 283.3761 298.32223 282.8213 298.46094 C 282.3127 298.64588 281.38802 298.36847 280.60203 297.7674 C 279.86227 297.25883 279.0763 296.84272 278.8451 296.88896 C 277.82795 297.12013 275.46997 295.77932 275.46997 294.9471 C 275.46997 294.48475 275.28503 294.06864 275.00763 294.06864 C 274.77645 294.06864 274.54528 293.745 274.54528 293.3751 C 274.54528 293.00524 273.99046 292.5429 273.29694 292.4042 C 271.72496 291.98807 271.2626 291.38702 271.58625 290.0462 C 271.81743 289.214 271.67872 289.0753 270.89273 289.30646 C 269.7831 289.58387 269.55192 288.75164 270.61532 288.33553 C 271.6325 287.96565 271.44755 287.13342 270.38415 287.13342 C 269.87557 287.13342 269.32075 286.76355 269.18205 286.3012 C 269.04334 285.8851 268.48853 284.7292 267.97994 283.7583 C 267.33266 282.4637 267.19395 281.86266 267.56383 281.4003 C 267.9337 280.93797 267.795 280.66056 266.91654 280.29068 C 266.13055 279.9208 265.76068 279.366 265.76068 278.53376 C 265.76068 277.88647 265.34456 276.82307 264.83598 276.1758 C 263.9113 274.9737 263.58764 273.263 264.3274 273.263 C 264.55857 273.263 265.34456 273.58664 266.03808 273.95652 C 266.82407 274.37263 268.62723 274.65004 270.47662 274.65004 C 274.1754 274.65004 277.04195 273.35547 278.05912 271.18243 C 278.38276 270.44268 278.93758 269.4255 279.26122 268.96317 C 279.7698 268.31588 279.72357 268.0847 279.215 267.76106 C 278.7064 267.43742 278.75264 267.16 279.39993 266.14285 C 280.46333 264.52463 280.46333 260.82585 279.39993 259.20763 L 278.5677 257.9593 L 277.55054 258.93023 C 276.99572 259.4388 275.42374 260.27103 274.0367 260.77962 L 271.54002 261.7043 L 268.67346 260.2248 C 266.4542 259.11516 265.3908 258.19047 264.23493 256.3873 C 262.38554 253.65946 261.7845 251.07032 262.6167 249.7295 C 263.07906 248.94352 263.03282 248.71235 262.15436 247.9726 C 261.59955 247.51024 260.9985 246.44684 260.8598 245.61462 C 260.58238 244.32004 260.67485 244.04264 261.5533 243.81146 C 262.0619 243.67276 262.43177 243.39535 262.29307 243.2104 C 262.15436 242.97924 261.69202 242.933 261.22967 243.0717 C 260.76732 243.16418 260.0738 242.933 259.70392 242.47065 C 259.10287 241.7309 259.1491 241.68466 260.12004 241.91584 C 260.9985 242.147 261.09097 242.10078 260.67485 241.5922 C 260.30497 241.12985 260.3512 240.85244 260.95226 240.5288 C 261.64578 240.11268 261.64578 240.0202 260.62862 239.51163 C 260.02757 239.188 259.33404 238.63317 259.1491 238.30953 C 258.96417 237.98588 257.99324 237.4773 256.97607 237.1999 C 256.00514 236.92248 254.15575 235.9978 252.86118 235.11933 C 251.5666 234.2871 250.04086 233.40864 249.4398 233.2237 C 248.885 233.03876 247.6829 232.4377 246.80443 231.83666 C 245.92597 231.2356 244.7701 230.72703 244.21528 230.72703 C 242.6433 230.72703 238.6671 228.46152 237.9736 227.16695 C 237.41877 226.10355 237.1876 226.05732 235.4769 226.38096 C 232.70283 226.88954 230.15992 226.65837 228.8191 225.7799 C 228.17182 225.31756 227.43207 225.04015 227.24713 225.0864 C 227.0622 225.13262 226.4149 224.94768 225.86008 224.62404 C 225.30527 224.34663 224.10316 223.93052 223.2247 223.74558 C 220.77426 223.237 218.27759 222.21983 217.30666 221.34137 C 216.8443 220.92526 216.24326 220.55538 216.01208 220.55538 C 215.45727 220.55538 212.0359 218.15117 209.67792 216.0706 C 208.75323 215.23839 207.7823 214.54486 207.5049 214.54486 C 206.67266 214.54486 201.49437 210.70738 201.49437 210.10633 C 201.49437 209.73645 201.21696 209.45904 200.89332 209.45904 C 200.56968 209.45904 199.50628 208.53435 198.58158 207.37848 C 197.61065 206.2226 196.63972 205.29791 196.36231 205.29791 C 195.53009 205.29791 193.07965 203.21735 192.66353 202.15395 C 192.43236 201.50666 191.87754 201.13679 191.23026 201.13679 C 190.6292 201.13679 189.24216 200.25833 187.94759 199.05622 C 185.9595 197.25307 185.45091 196.97566 183.64776 196.97566 C 182.49189 196.97566 181.15108 196.74449 180.6425 196.46708 C 179.5791 195.91226 175.88032 195.49615 171.02567 195.40368 C 168.62146 195.35744 167.51183 195.1725 167.37312 194.7564 C 167.23442 194.34028 167.55806 194.15534 168.25158 194.20157 C 170.05474 194.34028 170.51709 194.2478 170.51709 193.55429 C 170.51709 192.6296 175.14056 184.02993 175.64914 184.02993 C 175.88032 184.02993 176.06526 183.61382 176.06526 183.15147 C 176.06526 182.64289 176.29643 182.08807 176.5276 181.94936 C 176.80501 181.76443 176.98995 180.88597 176.98995 179.96127 C 176.98995 179.03658 177.1749 176.90978 177.4523 175.24533 C 177.7297 173.58087 177.96088 171.0842 177.96088 169.69716 C 178.00712 166.5532 176.71254 157.67612 175.83408 154.94827 C 175.4642 153.83864 175.27927 152.77524 175.37174 152.54406 C 175.51044 152.35912 175.27927 151.3882 174.90939 150.41726 C 174.2621 148.89152 173.75352 146.39484 172.50518 138.21129 C 172.32024 136.77801 172.41271 136.45437 173.1987 136.17696 C 173.75352 136.03826 174.63198 136.13073 175.23303 136.45437 C 175.83408 136.77801 177.63724 137.2866 179.3017 137.61024 C 184.1101 138.53493 185.45091 138.95105 188.82605 140.7542 C 192.01625 142.41865 201.03202 150.23233 201.03202 151.34196 C 201.03202 151.6656 201.30943 152.40536 201.63308 153.05264 C 203.11259 155.9192 205.05445 166.50696 204.36093 168.0327 C 204.08352 168.68 204.03728 169.32728 204.3147 169.7434 C 204.54586 170.11327 204.5921 170.9455 204.4534 171.63902 C 204.08352 173.39594 205.14692 173.81205 206.39525 172.33254 C 207.18125 171.40784 207.5049 170.2982 207.73606 167.52412 C 207.87477 165.53603 208.42958 162.66947 208.9844 161.14373 C 209.49298 159.61798 210.0478 156.9826 210.14027 155.27191 C 210.3252 152.35912 210.23274 152.12795 209.16934 151.43443 C 208.01347 150.64844 207.41242 149.49257 207.27371 147.73565 C 206.81137 141.91007 205.97914 140.52303 202.51154 140.10691 C 200.38474 139.87574 200.3385 139.8295 198.859 136.87048 C 198.02676 135.20603 197.37948 133.49535 197.33324 132.98676 C 197.33324 132.29324 197.10207 132.20077 195.9462 132.43195 C 195.20644 132.57065 193.9581 132.84806 193.26459 132.98676 C 192.15495 133.21794 191.60013 132.8943 189.47334 130.85996 C 185.49715 127.02248 185.08103 126.83754 183.46282 128.03964 C 181.79837 129.24175 180.9199 129.24175 178.60817 128.03964 C 177.4523 127.4386 175.92655 127.11495 174.58575 127.11495 C 172.73636 127.16118 172.36648 127.02248 172.36648 126.28272 C 172.36648 125.54297 173.06 125.35803 178.05335 124.84945 C 184.84986 124.15593 188.40994 124.71074 194.42045 127.34612 C 196.50102 128.27082 198.30417 129.01057 198.48911 129.01057 C 199.32134 129.01057 207.31995 136.3619 209.72416 139.32092 C 212.63695 142.92723 212.86812 143.38958 214.7175 148.70658 C 215.87338 152.12795 215.91961 152.35912 215.17986 153.60746 C 214.48634 154.7171 214.48634 154.90204 215.0874 154.90204 C 216.10455 154.90204 216.89054 158.23094 216.8443 162.4383 C 216.79807 165.11992 216.93678 166.04461 217.3529 165.85967 C 217.67653 165.7672 218.00018 164.51886 218.13888 162.94688 C 218.27759 161.46737 218.73993 159.47928 219.20228 158.50835 C 219.6184 157.58365 220.1732 155.41062 220.45062 153.6537 C 221.00544 150.04739 220.77426 137.33283 220.1732 137.33283 C 219.94204 137.37906 219.34098 137.47153 218.8324 137.564 C 214.85621 138.35 214.3014 138.35 214.67127 137.47153 C 214.85621 137.00919 215.0874 136.13073 215.2261 135.48344 C 215.31856 134.83615 215.73467 134.00393 216.10455 133.58781 C 216.89054 132.70935 216.93678 130.39762 216.19702 129.33422 C 215.68844 128.68693 215.31856 128.6407 213.97775 129.01057 C 211.80472 129.65786 209.95533 129.61163 209.72416 128.87187 C 209.63169 128.59446 209.58545 126.3752 209.63169 124.01722 C 209.72416 119.8561 209.67792 119.67115 208.61452 119.2088 C 207.73606 118.7927 207.31995 118.83893 206.67266 119.43998 C 205.9329 120.08727 202.00295 121.61301 200.93955 121.61301 C 200.70838 121.61301 200.56968 120.9195 200.56968 120.08727 C 200.52344 119.30128 200.24603 118.09917 199.87615 117.45189 C 199.50628 116.8046 199.22887 115.41756 199.18263 114.30792 C 199.18263 112.45853 199.1364 112.36606 197.74936 112.36606 C 196.77843 112.36606 196.03867 112.73594 195.39138 113.52193 C 194.8828 114.16922 194.23551 114.6778 193.9581 114.6778 C 193.63446 114.6778 192.57106 115.23262 191.60013 115.8799 C 190.6292 116.52719 189.7045 116.89707 189.51957 116.71213 C 189.05722 116.15731 188.0863 112.68971 188.0863 111.58007 C 188.0863 109.68445 186.97666 109.49951 185.40468 111.11773 C 183.60152 112.92088 181.65966 114.6778 181.38225 114.6778 C 181.28978 114.6778 180.87367 113.98428 180.45756 113.15205 C 180.08768 112.36606 179.34792 111.16396 178.88558 110.56291 C 178.05335 109.45327 177.96088 109.45327 176.85125 110.19303 C 176.20396 110.60914 174.95562 111.71878 174.03093 112.64347 C 173.15247 113.56817 172.18154 114.21545 171.90413 114.12298 C 171.58049 114.03051 171.30308 112.08866 171.2106 108.89846 C 170.97943 101.96324 170.51709 97.43224 170.0085 96.87742 C 169.77733 96.64625 169.5924 95.99896 169.5924 95.39791 C 169.5924 94.84309 169.13004 93.9184 168.529 93.31735 C 167.55806 92.34642 166.77207 90.31209 166.12479 87.26059 C 165.84738 85.82732 165.38503 85.68861 164.4141 86.79825 Z"
                        fill="black"/>
               </g>
            </g>
            <g>
               <path d="M 166.07855 94.88933 C 166.8183 96.1839 167.41936 97.89459 167.37312 98.68058 C 167.37312 99.46657 167.51183 100.29879 167.743 100.5762 C 168.25158 101.17725 168.48276 103.30405 168.06665 103.44276 C 167.28065 103.72017 166.86454 103.53523 166.63337 102.74924 C 166.49466 102.33312 165.2001 100.76114 163.76681 99.28163 C 161.17767 96.50754 160.80779 95.25921 162.70341 95.25921 C 163.4894 95.25921 163.6281 95.07427 163.39694 94.14957 C 163.25823 93.59475 163.25823 92.94747 163.44317 92.76253 C 164.1367 92.06901 164.83021 92.62382 166.07855 94.88933 Z"/>
            </g>
            <g>
               <path d="M 165.56997 102.61053 C 168.57523 106.21684 169.49992 107.92753 168.76017 108.38988 C 168.25158 108.66728 168.57523 110.88655 169.17628 111.25643 C 169.40745 111.39513 169.5924 111.67254 169.5924 111.94995 C 169.5924 112.59724 168.39029 112.45853 167.743 111.67254 C 167.41936 111.25643 165.89361 109.86939 164.32163 108.57481 C 161.73248 106.40178 161.64002 106.35555 163.11953 108.02 C 163.99799 108.99093 165.7549 110.88655 167.00325 112.22736 C 169.08381 114.40039 169.45369 115.6025 168.02041 115.6025 C 167.32689 115.6025 160.25297 108.57481 159.42075 107.04907 C 159.0971 106.44802 158.9584 105.61579 159.14334 105.15344 C 159.42075 104.41369 159.51322 104.41369 160.34544 105.19968 C 161.64002 106.35555 161.91742 105.80073 160.80779 104.36745 C 159.79063 103.07288 159.69816 102.703 160.34544 101.73207 C 160.71532 101.17725 160.99273 101.26972 162.24107 102.42559 L 163.72058 103.81263 L 162.24107 101.6396 C 160.76155 99.55904 160.62285 98.26446 161.91742 98.77305 C 162.2873 98.91175 163.90552 100.62244 165.56997 102.61053 Z"/>
            </g>
            <g>
               <path d="M 130.29285 102.24065 C 130.29285 102.47183 129.87674 103.6277 129.32192 104.78356 C 128.81334 105.93943 128.30476 107.97376 128.16606 109.26834 C 127.79618 112.87465 127.74994 112.87465 126.13173 112.31983 C 124.60598 111.76501 124.42104 110.93279 125.20703 108.25117 C 126.08549 105.10721 130.29285 100.11385 130.29285 102.24065 Z"/>
            </g>
            <g>
               <path d="M 139.07746 105.10721 C 139.07746 105.47709 138.66134 106.12437 138.15276 106.58672 C 136.44208 108.11247 135.33244 110.4242 134.17657 114.77027 C 132.78953 119.90233 132.04977 128.68693 132.65083 132.84806 C 132.882 134.42004 133.06694 135.99202 133.06694 136.26943 C 133.06694 137.24036 131.63366 136.96295 129.92298 135.62214 L 128.30476 134.42004 L 128.6284 129.05681 C 128.7671 126.09778 128.99828 123.185 129.09075 122.53771 C 129.6918 118.28411 130.6165 114.90898 132.04977 111.76501 C 133.34435 108.94469 134.17657 107.78882 135.97973 106.35555 C 138.43017 104.36745 139.07746 104.13628 139.07746 105.10721 Z"/>
            </g>
            <g>
               <path d="M 163.30447 112.96712 C 167.41936 116.89707 168.48276 118.37658 167.28065 118.37658 C 166.4022 118.37658 160.71532 113.6144 159.37451 111.71878 C 158.0337 109.91562 157.66383 108.66728 158.44982 108.66728 C 158.681 108.66728 160.90026 110.60914 163.30447 112.96712 Z"/>
            </g>
            <g>
               <path d="M 119.79757 111.85748 C 121.36955 112.59724 123.91246 113.70687 125.4382 114.30792 C 127.88865 115.27885 128.21229 115.55626 128.11982 116.52719 C 127.14889 126.14402 126.87148 127.62353 125.99302 127.62353 C 125.53067 127.62353 124.60598 126.97625 123.91246 126.19025 C 123.21894 125.4505 121.0459 123.23123 119.10404 121.28937 C 115.3128 117.59059 114.75798 116.52719 116.6536 116.52719 C 117.94818 116.52719 118.55832 114.03292 117.5874 113.20069 C 116.70893 112.50717 109.87776 110.42157 112.89277 110.26655 C 116.05512 110.00574 116.69984 110.37797 119.79757 111.85748 Z"/>
            </g>
            <g>
               <path d="M 160.43791 114.07675 C 162.88835 116.43472 162.74965 117.35942 160.25297 115.97237 C 158.77346 115.18638 158.21864 114.58533 158.12617 113.6144 C 157.94124 111.94995 158.35735 112.04242 160.43791 114.07675 Z"/>
            </g>
            <g>
               <path d="M 177.77594 113.4757 C 177.96088 113.84558 178.83934 114.90898 179.67157 115.83367 L 181.19731 117.49812 L 183.00047 115.8799 C 185.1735 113.93805 185.77456 114.03051 187.67018 116.8046 C 188.40994 117.91423 189.24216 118.83893 189.4271 118.83893 C 189.65827 118.83893 190.58297 118.51529 191.46143 118.14541 C 194.28175 116.98954 195.6688 117.22071 197.24077 119.16257 C 197.98053 120.1335 198.81276 121.3356 199.09016 121.89042 C 199.5525 122.76888 199.96862 122.86135 202.604 122.72265 C 204.82327 122.63018 205.74797 122.76888 206.16408 123.27747 C 206.48772 123.64734 207.04254 125.68167 207.45865 127.76224 L 208.1984 131.55349 L 210.46391 131.87713 C 211.71225 132.06207 212.91435 132.47818 213.0993 132.80182 C 213.33047 133.12547 213.5154 134.55874 213.5154 135.94579 C 213.5154 139.13598 213.88528 139.64457 216.15079 139.96821 L 218.00018 140.19938 L 218.32382 143.0197 C 218.78617 147.412 218.64746 154.90204 218.13888 154.90204 C 217.769 154.90204 217.44536 153.19135 217.6303 152.03548 C 217.81524 150.78714 216.61313 146.85719 215.7809 145.97873 C 215.2261 145.42391 214.48634 144.2218 214.11646 143.34335 C 212.82188 140.06068 212.3133 139.32092 208.29088 134.65121 C 204.12975 129.8428 198.48911 125.49673 194.55916 124.01722 C 188.45617 121.75172 176.29643 121.47431 174.03093 123.50864 C 173.75352 123.73981 173.15247 123.92475 172.64389 123.92475 C 171.8579 123.92475 171.48802 123.36993 170.84073 121.24314 C 169.96227 118.33035 169.8698 117.49812 170.47085 116.57343 C 170.7945 116.06484 171.0719 116.11108 172.04283 116.75837 C 173.1987 117.49812 173.24494 117.49812 174.03093 116.20355 C 175.09433 114.49286 176.57384 112.82841 177.03619 112.82841 C 177.26736 112.82841 177.591 113.10582 177.77594 113.4757 Z"/>
            </g>
            <g>
               <path d="M 144.20951 116.9433 C 146.0589 116.98954 149.2491 116.75837 151.2372 116.48096 L 154.88974 116.01861 L 158.63476 117.82176 C 160.71532 118.83893 163.58187 119.9948 164.96892 120.45715 C 166.35596 120.9195 167.743 121.47431 168.06665 121.70548 C 168.39029 121.93666 168.9451 123.64734 169.36122 125.49673 C 170.42462 130.16644 170.47085 130.25891 173.06 129.56539 C 175.92655 128.7794 176.29643 128.82564 178.42323 130.16644 L 180.27262 131.36855 L 182.81553 130.44385 L 185.3122 129.47292 L 188.59488 132.29324 C 191.64637 134.97486 191.97001 135.11356 193.63446 134.83615 C 195.29891 134.55874 195.53009 134.69745 196.68596 136.17696 C 197.33324 137.05542 198.16547 138.58117 198.48911 139.50586 C 198.9977 141.03161 199.36757 141.30902 201.5406 141.9563 C 202.92765 142.32618 204.26846 142.78853 204.54586 142.97347 C 204.8695 143.1584 205.23939 144.91533 205.42432 146.81095 C 205.70173 149.86245 205.9329 150.50973 207.08878 151.71184 C 208.15217 152.82147 208.42958 153.515 208.42958 155.1332 C 208.42958 157.99976 206.9963 164.19522 206.39525 164.01028 C 206.11785 163.91781 205.9329 163.40923 206.02538 162.85441 C 206.25655 161.42113 204.03728 153.46876 202.69647 150.83338 C 201.44814 148.42917 196.13114 142.69606 193.58823 141.12408 C 186.46808 136.73178 182.58436 135.2985 176.20396 134.74368 C 174.1234 134.60498 171.25684 134.60498 169.8698 134.74368 C 167.743 135.0211 167.28065 135.25227 167.28065 135.99202 C 167.28065 136.63931 167.6043 136.87048 168.62146 136.87048 C 169.40745 136.87048 170.05474 137.14789 170.23968 137.61024 C 170.6558 138.67364 170.56332 140.4768 170.1472 140.7542 C 169.63863 141.03161 167.55806 139.87574 164.96892 137.88765 C 163.30447 136.63931 162.56471 136.40813 160.53038 136.40813 C 157.71006 136.40813 156.64666 136.73178 156.64666 137.564 C 156.64666 138.30376 157.71006 138.71987 159.69816 138.71987 C 161.68625 138.71987 165.52373 140.15315 167.51183 141.6789 C 169.40745 143.1584 171.53425 147.36577 171.95036 150.50973 C 172.08907 151.75807 172.69012 154.9945 173.24494 157.62989 C 174.49328 163.59417 174.4008 164.7038 172.73636 164.93498 C 171.76543 165.07368 170.88697 164.5651 168.8064 162.7157 C 164.04422 158.50835 161.3626 155.50309 159.74439 152.49783 C 158.07994 149.49257 155.95314 142.7423 156.36925 141.6789 C 156.50796 141.30902 156.41549 140.93914 156.18431 140.80044 C 155.9069 140.6155 155.72197 140.01445 155.72197 139.4134 C 155.72197 138.16506 154.93598 137.47153 154.24245 138.16506 C 153.96505 138.44246 153.96505 139.18222 154.28869 140.33809 C 154.8435 142.41865 154.51986 143.34335 153.22529 143.34335 C 152.67047 143.34335 151.97695 143.57452 151.69954 143.85193 C 151.46837 144.0831 149.80392 144.63792 148.09323 144.96156 C 145.13421 145.60885 144.8568 145.60885 143.46976 144.73039 C 142.63753 144.2218 141.62037 143.8057 141.15802 143.8057 C 140.37203 143.8057 140.37203 143.85193 141.20426 144.77662 C 143.74717 147.59694 147.53842 147.82812 151.93072 145.42391 C 153.54893 144.49922 155.02845 143.85193 155.12092 143.99063 C 155.25962 144.12934 155.7682 145.70132 156.27678 147.55071 C 156.73913 149.4001 157.52512 151.75807 157.98747 152.77524 C 158.44982 153.83864 158.91216 154.90204 159.00463 155.22568 C 159.32828 156.24284 168.89887 165.85967 171.34931 167.57036 C 173.70729 169.28104 174.1234 169.8821 173.3374 170.34444 C 173.10623 170.48315 173.06 171.54655 173.1987 172.70241 C 173.29117 173.85828 173.15247 175.7539 172.87506 176.95601 C 171.81166 181.0709 171.25684 182.87406 170.88697 183.38264 C 170.6558 183.70629 170.37838 184.95462 170.19344 186.2492 C 170.05474 187.54377 169.49992 189.39316 168.9451 190.3641 C 168.15912 191.75113 167.65053 192.16724 166.44843 192.25971 C 165.10762 192.39842 164.96892 192.58336 165.06139 193.64676 C 165.15386 194.61769 164.83021 195.08003 163.4894 196.00473 C 162.51848 196.60578 161.73248 197.39177 161.73248 197.71541 C 161.73248 197.99282 161.31637 198.3627 160.76155 198.5014 C 160.11427 198.68634 159.8831 199.00999 160.06803 199.61104 C 160.20674 200.07339 160.53038 202.43136 160.76155 204.92804 C 161.03896 207.37848 161.40884 209.73645 161.54755 210.24503 C 162.426 212.92665 162.84212 213.62017 163.6281 213.62017 C 164.87645 213.62017 165.01515 213.01912 164.04422 211.4009 C 163.212 210.0601 162.47224 206.2226 161.87119 200.53573 L 161.64002 198.3627 L 167.65053 198.3627 C 173.3374 198.3627 173.9847 198.45517 178.6544 199.98092 C 181.38225 200.90561 184.2488 201.969 185.0348 202.38512 C 187.71641 203.72593 195.06774 209.08916 197.9343 211.72454 C 205.28562 218.5673 210.69509 222.68218 215.17986 224.90145 C 217.72277 226.10355 220.6818 227.58306 221.83766 228.18412 C 222.99353 228.73893 225.9988 229.7561 228.5417 230.44962 C 235.43068 232.20654 245.74103 236.5526 249.34734 239.14175 C 251.98272 241.0836 254.94174 244.9211 255.86644 247.6027 C 256.28255 248.85105 256.79113 250.0994 256.97607 250.3768 C 257.161 250.60797 257.43842 251.34773 257.62336 251.995 C 257.8083 252.6423 258.2244 254.16805 258.5943 255.46262 C 260.67485 263.04512 265.76068 266.18908 273.5281 264.80204 L 275.46997 264.4784 L 275.46997 266.23532 C 275.46997 267.34495 275.05386 268.63952 274.40657 269.61045 C 273.43564 271.04373 273.112 271.18243 270.75403 271.32114 C 268.3036 271.45984 264.05 270.39644 261.36837 269.0094 C 258.82546 267.6686 254.202 262.4903 254.202 260.96455 C 254.202 260.59468 253.87834 259.62375 253.46223 258.83776 C 252.72248 257.4507 252.67624 257.40448 252.0752 258.2367 C 251.1505 259.48504 251.10426 259.39257 253.87834 268.63952 C 254.98798 272.3383 255.58903 275.85214 255.63526 279.04234 C 255.6815 279.7821 255.9589 282.09384 256.3288 284.12817 C 256.65243 286.1625 257.06854 289.26022 257.20725 290.9709 C 257.48465 293.69876 257.6696 294.20734 258.733 294.85463 C 260.44368 295.91803 264.3274 300.07915 264.65104 301.23502 C 264.83598 301.7436 265.29833 302.6683 265.76068 303.3156 C 266.1768 303.96287 266.91654 305.62732 267.3789 307.01437 C 267.88747 308.4014 268.581 309.88092 268.95087 310.29703 C 269.7831 311.12926 273.20447 312.56254 274.4528 312.56254 C 274.86892 312.56254 276.53337 313.11735 278.1516 313.76464 L 281.01814 315.01298 L 281.06438 318.06447 C 281.1106 319.72892 281.06438 321.9482 280.9719 322.96536 C 280.78697 325.18462 280.78697 326.2018 281.15685 336.6046 C 281.3418 341.04314 281.66543 346.6838 281.8966 349.088 C 282.174 351.4922 282.35895 355.65333 282.35895 358.33494 C 282.35895 361.01656 282.5439 365.039 282.8213 367.3507 C 283.2374 371.3269 283.2374 371.5581 282.26648 372.57524 C 281.66543 373.13006 280.09345 374.19346 278.7064 374.887 L 276.1635 376.2278 L 276.3022 380.66633 C 276.4409 384.68875 276.34843 385.10486 275.5162 385.38227 C 273.898 385.89085 263.21776 386.44567 262.80165 386.0758 C 262.57048 385.8446 262.8479 385.10486 263.4027 384.3651 C 263.95752 383.6716 265.1134 382.14584 265.99185 380.98997 C 266.8703 379.8341 267.9337 378.16965 268.34982 377.2912 C 268.76593 376.41273 269.96804 374.7483 271.07767 373.5924 C 272.6959 371.92796 273.15824 371.00326 273.5281 368.96893 C 273.80552 367.5819 273.80552 366.1024 273.62058 365.7325 C 273.3894 365.3164 273.34317 363.42076 273.43564 361.43267 C 273.5281 359.44457 273.3894 355.28345 273.112 352.1857 C 272.78836 349.088 272.51095 345.6204 272.41848 344.4645 C 272.37224 343.30865 272.27978 342.2915 272.23354 342.15278 C 272.1873 342.01407 272.09484 341.2743 272.00237 340.53456 C 270.9852 332.2123 270.0605 326.84908 269.59816 326.3405 C 269.27452 326.0631 268.9971 325.46203 268.9971 325.04592 C 268.9971 324.67604 268.16488 323.289 267.19395 322.04066 C 265.48327 319.86763 264.65104 318.98917 262.2006 316.58496 C 261.59955 316.03014 261.1372 315.33662 261.1372 315.0592 C 261.1372 314.27322 259.61145 313.20982 258.40935 313.11735 C 257.8083 313.11735 256.7449 312.5163 256.00514 311.82278 C 255.31162 311.1755 254.52563 310.7594 254.202 310.94432 C 253.92458 311.12926 253.46223 311.08303 253.1386 310.85185 C 252.81494 310.62068 251.7053 310.1121 250.59568 309.78845 C 249.48604 309.4648 248.5151 309.00246 248.42264 308.86376 C 248.28394 308.6788 249.48604 308.07777 251.10426 307.5692 C 255.35786 306.18214 258.3631 304.7951 258.3631 304.2403 C 258.3631 303.63923 258.5943 303.593 255.35786 304.9338 C 253.8321 305.53485 251.89025 306.08967 251.05802 306.08967 C 249.48604 306.08967 247.72912 306.7832 247.1743 307.61542 C 246.98937 307.93906 246.01844 307.75412 244.4927 307.10684 C 243.15188 306.55202 241.81107 306.08967 241.4412 306.08967 C 241.11755 306.08967 239.96168 305.7198 238.85205 305.2112 C 237.3263 304.56393 236.03173 303.36182 233.72 300.49527 C 230.48356 296.38037 225.6289 291.66443 223.68705 290.6935 C 223.03976 290.36986 222.48495 289.7688 222.39248 289.30646 C 222.25377 288.61294 222.6699 288.52047 225.53644 288.52047 C 229.3277 288.52047 236.03173 286.53237 239.08322 284.54428 C 240.84014 283.3884 240.84014 283.34217 240.05415 282.4637 C 239.26816 281.58525 239.22193 281.58525 237.3263 283.43464 C 235.01457 285.70015 230.3911 287.0872 224.98162 287.13342 C 222.76236 287.13342 221.37531 287.31836 221.28284 287.642 C 221.00544 288.52047 219.43345 287.45707 217.07548 284.8217 C 213.93152 281.30785 213.3767 277.794 214.90245 270.7201 C 215.82714 266.4665 216.33573 259.0227 215.73467 258.65282 C 215.5035 258.5141 215.45727 258.00553 215.59597 257.49695 C 215.7809 256.8959 215.68844 256.6185 215.17986 256.6185 C 214.76374 256.6185 214.024 256.20238 213.46917 255.64756 C 212.12836 254.30675 211.06496 254.86157 209.86286 257.49695 C 208.47582 260.6409 205.33186 265.4031 203.99105 266.4665 C 202.55777 267.57612 202.55777 268.17718 203.99105 268.17718 C 205.28562 268.17718 206.02538 267.16 209.1231 260.82585 C 210.27897 258.5141 211.43484 256.6185 211.66602 256.6185 C 212.72942 256.6185 213.60788 263.92358 213.00682 267.89977 C 212.77565 269.70292 212.40577 274.1877 212.22083 277.88647 L 211.8972 284.5905 L 208.75323 284.54428 C 204.12975 284.4518 199.64498 283.897 197.7956 283.20347 C 196.91713 282.87983 195.20644 282.4637 194.00434 282.325 C 190.81414 281.95513 183.694 279.82833 180.41132 278.3026 C 178.83934 277.56283 177.40607 276.96178 177.12866 276.96178 C 176.85125 276.96178 175.88032 276.4532 174.95562 275.8059 C 174.03093 275.15862 171.95036 273.95652 170.37838 273.07806 C 163.85928 269.56422 162.88835 268.4546 165.52373 267.5299 C 166.58713 267.16 167.69677 267.57612 173.61482 270.58138 C 177.35983 272.52324 180.96614 274.23393 181.61343 274.41887 C 182.26071 274.6038 183.60152 275.15862 184.61869 275.62097 C 185.63585 276.08332 189.65827 277.5166 193.542 278.76493 C 201.81801 281.44655 201.17073 281.58525 205.9329 276.49943 C 209.58545 272.56948 210.1865 271.5523 210.55638 268.5933 C 210.88003 265.8192 210.27897 265.86544 209.40051 268.68576 C 209.1231 269.61045 208.24464 270.95126 207.5049 271.64478 C 206.7189 272.38454 206.11785 273.17053 206.11785 273.4017 C 206.11785 274.14146 202.37283 278.58 201.44814 278.90364 C 200.43097 279.31975 197.88806 278.90364 197.51818 278.25635 C 197.37948 278.02518 198.25794 276.77684 199.50628 275.43603 C 202.28036 272.52324 203.57493 270.58138 203.11259 270.11904 C 202.92765 269.9341 202.4653 270.30397 202.04919 270.8588 C 201.63308 271.45984 199.96862 273.1243 198.30417 274.51134 L 195.29891 277.05425 L 192.6173 276.8693 C 188.54864 276.5919 188.45617 276.08332 192.10872 273.35547 C 196.17737 270.3502 197.05583 269.37928 196.68596 268.31588 C 196.36231 267.57612 196.31608 267.5299 195.89997 268.2234 C 195.29891 269.37928 186.97666 274.1877 185.72832 274.1877 C 183.1854 274.14146 183.27788 273.49417 186.19067 270.4889 C 187.76265 268.91693 189.01099 267.43742 189.01099 267.20625 C 189.01099 266.28155 187.80888 266.92884 185.49715 269.10187 C 183.41658 271.08997 182.7693 271.4136 181.19731 271.4136 C 179.20922 271.4136 176.98995 270.7201 176.98995 270.16527 C 177.03619 269.9341 178.46946 268.91693 180.22639 267.8073 C 182.02954 266.69766 183.46282 265.58803 183.46282 265.4031 C 183.46282 264.7558 182.6306 264.43216 182.30695 264.94074 C 181.7059 265.86544 177.35983 267.76106 175.1868 268.03847 C 172.96753 268.26965 169.5924 267.5299 169.5924 266.79013 C 169.5924 266.55896 170.88697 265.9579 172.50518 265.44933 C 175.51044 264.43216 178.83934 262.44407 178.83934 261.7043 C 178.83934 260.96455 178.09959 261.1495 175.74161 262.58277 C 173.15247 264.15475 170.51709 264.84827 170.51709 263.9698 C 170.51709 263.64617 171.0719 262.81394 171.76543 262.0742 C 173.29117 260.45597 172.7826 259.8087 170.84073 260.96455 C 170.0085 261.47314 168.43652 262.3516 167.28065 262.95265 C 166.12479 263.59994 164.87645 264.38593 164.46033 264.7558 C 164.09046 265.12568 163.4894 265.4031 163.16576 265.4031 C 162.84212 265.4031 161.77872 265.8192 160.85402 266.28155 C 159.92933 266.79013 158.40358 267.2987 157.47889 267.48365 L 155.72197 267.76106 L 156.04561 271.87596 C 156.41549 277.56283 155.81444 278.16388 150.82108 276.8693 C 149.34157 276.4532 148.23194 275.75968 147.21477 274.6038 C 146.42878 273.6791 145.31915 272.80065 144.76433 272.6157 C 144.16328 272.43077 143.70093 272.10713 143.70093 271.9222 C 143.70093 271.50608 137.96782 267.85353 135.10127 266.42026 C 134.03787 265.86544 132.55836 264.8945 131.77237 264.24722 C 131.03261 263.59994 130.20038 263.09135 129.92298 263.09135 C 129.6918 263.09135 128.351 262.25913 127.01019 261.24196 C 125.62314 260.2248 124.32857 259.39257 124.05116 259.39257 C 123.77375 259.39257 122.94153 258.79152 122.20177 258.00553 C 121.46202 257.21954 120.62979 256.6185 120.39862 256.6185 C 120.12121 256.6185 118.87287 255.87873 117.5783 255.00027 C 116.32996 254.07558 114.5268 252.82724 113.64834 252.2262 C 112.76988 251.62513 111.1979 250.46927 110.18074 249.7295 C 106.48196 247.00166 101.62731 244.59745 99.77792 244.59745 C 98.11347 244.59745 97.60488 245.01357 91.13202 251.4402 C 84.28928 258.2367 84.24304 258.32917 83.36458 261.51937 C 82.856 263.2763 82.53236 264.98698 82.57859 265.31062 C 82.9947 267.25248 79.85074 267.8073 76.05949 266.4665 C 73.93269 265.6805 73.19294 264.94074 74.57998 264.94074 C 74.94986 264.94074 75.2735 264.6171 75.2735 264.201 C 75.2735 263.78487 76.70678 261.88925 78.50993 259.9474 C 80.26685 257.9593 81.74636 256.1099 81.74636 255.78626 C 81.74636 254.53792 80.40556 255.41638 76.89172 258.93023 C 74.11763 261.75055 72.91553 262.629 71.9446 262.629 C 71.25108 262.629 70.60379 262.44407 70.41885 262.16666 C 70.00274 261.47314 73.23917 258.19047 76.61431 255.9712 C 79.75827 253.8444 83.59575 250.05315 89.60627 243.0717 C 91.5019 240.85244 94.27598 238.21706 95.70926 237.15366 L 98.39088 235.30427 L 100.56391 236.04402 C 101.76601 236.46014 102.96812 236.96872 103.24552 237.15366 C 103.4767 237.3386 104.5401 237.7547 105.55726 238.07835 C 112.1226 240.11268 119.79757 243.62652 125.90055 247.23283 C 128.21229 248.61988 131.40249 250.3768 133.06694 251.1628 C 134.73139 251.94878 137.69041 253.65946 139.63227 254.95404 C 149.57275 261.51937 150.63614 262.0742 150.63614 260.45597 C 150.63614 259.66998 147.67712 256.6185 145.87396 255.5551 C 145.31915 255.1852 143.516 254.07558 141.85154 253.01218 C 140.18709 251.995 137.69041 250.7929 136.25714 250.42303 C 132.46589 249.3134 125.20703 245.1985 125.20703 244.1351 C 125.20703 243.90393 124.3748 243.25664 123.3114 242.74806 C 122.06307 242.10078 121.50825 241.54596 121.69319 241.12985 C 122.06307 240.11268 121.0459 229.57116 120.53732 229.43245 C 120.07497 229.24752 119.93627 227.95294 120.39862 227.95294 C 120.58356 227.95294 122.94153 230.21844 125.71561 233.03876 C 130.06168 237.4773 132.18848 239.00305 132.14224 237.7547 C 132.09601 237.29236 126.91772 231.8829 123.1727 228.50776 C 120.35238 225.96485 119.93627 225.3638 119.61263 223.42194 C 119.05781 220.1855 119.15028 213.15782 119.7051 211.07726 C 120.58356 207.9333 122.8953 203.4023 126.3629 198.13153 C 129.5531 193.27688 129.78427 192.81453 130.7552 187.95988 C 131.31002 185.13956 132.55836 179.8688 133.52929 176.17002 C 134.50022 172.47124 135.74855 167.70906 136.30337 165.53603 C 136.85819 163.363 137.50547 160.95879 137.73665 160.1728 C 137.96782 159.43304 138.29147 157.16754 138.4764 155.17944 C 138.66134 152.8677 138.98499 151.48066 139.35486 151.34196 C 140.6032 150.87961 142.77624 153.19135 146.52125 159.1094 C 150.49744 165.35109 152.7167 168.31011 153.45646 168.31011 C 154.33492 168.31011 153.7801 166.78437 152.02319 164.4264 C 151.00602 163.08559 150.1738 161.83725 150.1738 161.69854 C 150.1738 161.5136 149.2491 160.0341 148.09323 158.3234 C 146.93736 156.65896 146.01267 155.1332 146.01267 154.8558 C 146.01267 154.25475 147.02983 154.34722 148.92546 155.1332 C 150.72861 155.87296 156.18431 156.10414 156.18431 155.41062 C 156.18431 154.8558 154.98221 154.43969 153.22529 154.43969 C 152.39306 154.43969 151.0985 154.25475 150.35874 154.02357 C 149.61898 153.7924 148.41688 153.46876 147.72335 153.33005 C 146.9836 153.14511 146.24384 152.54406 145.9202 151.89678 C 145.59656 151.20325 144.9955 150.7409 144.39445 150.7409 C 143.56223 150.7409 141.48166 149.6775 138.3377 147.59694 C 137.87535 147.2733 136.85819 146.67225 136.16467 146.2099 C 135.42491 145.79379 133.48305 144.12934 131.77237 142.51112 C 129.04452 139.87574 125.57691 137.79518 124.00493 137.79518 C 123.68128 137.79518 121.50825 136.91672 119.24275 135.89955 C 115.4515 134.14263 115.03539 133.81899 114.34186 132.1083 C 113.87952 130.9062 113.74081 130.12021 114.06446 129.79657 C 114.66551 129.19551 119.01157 131.22984 121.09214 133.07923 C 122.01683 133.86522 124.3748 135.20603 126.40913 135.99202 C 131.49496 137.98012 138.24523 141.5402 138.98499 142.51112 C 140.00215 143.89816 140.4645 143.43582 140.4645 141.07784 C 140.4645 137.88765 139.95592 136.91672 137.36677 134.83615 C 135.23997 133.21794 135.0088 132.84806 134.50022 130.12021 C 133.99163 127.76224 133.99163 126.19025 134.45398 122.21407 C 134.77762 119.48622 135.23997 116.98954 135.42491 116.71213 C 135.70232 116.38849 136.67325 116.34225 138.29147 116.57343 C 139.63227 116.71213 142.31389 116.89707 144.20951 116.9433 Z"/>
            </g>
            <g>
               <path d="M 119.38145 125.08062 C 119.79757 125.68167 121.55449 127.02248 123.3114 128.08588 C 126.59407 129.9815 127.33383 130.99867 126.87148 132.98676 C 126.3629 134.92862 124.60598 134.42004 122.80282 131.87713 C 121.41578 129.9815 120.81473 129.56539 118.36429 128.82564 C 112.35377 127.02248 111.3366 123.97099 116.69984 123.92475 C 118.22558 123.92475 118.7804 124.15593 119.38145 125.08062 Z"/>
            </g>
            <g>
               <path d="M 136.95066 137.47153 C 138.29147 139.18222 138.52264 140.56926 137.50547 140.56926 C 136.53455 140.56926 134.91633 138.35 134.91633 137.05542 C 134.91633 135.52967 135.56362 135.66838 136.95066 137.47153 Z"/>
            </g>
            <g>
               <path d="M 104.44763 202.755 C 105.83467 203.72593 108.51629 205.9452 110.41191 207.65589 C 112.30754 209.36657 114.43433 210.89232 115.08162 211.07726 C 116.19125 211.35467 116.28372 211.5396 116.09879 213.34276 C 115.96008 214.4524 116.19125 217.08778 116.6536 219.2608 C 117.06971 221.43384 117.34712 223.69935 117.25465 224.3004 C 117.11595 225.27133 117.06971 225.27133 116.42243 224.5778 C 116.05255 224.1617 114.80421 222.54348 113.64834 221.01773 C 112.49247 219.44575 110.68932 217.18025 109.67215 216.02438 C 108.60876 214.82227 106.9443 212.97288 105.97337 211.86325 C 103.93905 209.5515 102.22836 208.53435 100.2865 208.53435 C 99.2231 208.53435 98.34464 209.08916 96.58772 210.89232 L 94.32222 213.20406 L 92.42659 212.27936 C 91.40943 211.72454 90.39226 211.30843 90.16109 211.30843 C 89.92992 211.30843 89.14393 212.14066 88.40417 213.20406 C 87.20207 214.91474 86.97089 215.05345 85.49138 214.8685 C 82.53236 214.4524 79.24969 213.62017 78.83358 213.20406 C 78.32499 212.69547 83.78069 207.10107 86.64725 205.1592 C 88.63534 203.8184 93.67493 201.8303 96.77266 201.13679 C 99.77792 200.4895 101.76601 200.90561 104.44763 202.755 Z"/>
            </g>
            <g>
               <path d="M 84.15057 205.20544 C 83.82693 205.29791 82.67106 206.26884 81.51519 207.42471 C 79.20345 209.69022 78.14005 209.87515 75.36597 208.71929 L 73.65528 207.97953 L 76.42937 206.59249 C 79.5271 204.97427 84.19681 203.8184 84.47422 204.55816 C 84.56668 204.78933 84.42798 205.11298 84.15057 205.20544 Z"/>
            </g>
            <g>
               <path d="M 259.51898 270.8588 C 259.75016 271.4136 260.2125 271.87596 260.53615 271.87596 C 261.18343 271.87596 261.32214 273.17053 260.8598 274.37263 C 260.7211 274.7425 260.30497 274.92745 259.9351 274.78875 C 259.56522 274.65004 259.2878 274.83498 259.2878 275.29733 C 259.2878 275.71344 259.61145 276.0371 259.98133 276.0371 C 260.44368 276.0371 260.67485 276.49943 260.67485 277.60907 C 260.67485 279.31975 259.56522 282.41748 259.1491 281.7702 C 258.54805 280.79926 258.31688 277.97894 258.77923 277.70153 C 259.47275 277.2392 259.4265 276.49943 258.64052 276.49943 C 257.99324 276.49943 257.161 270.8588 257.71583 269.98033 C 258.13194 269.2868 259.0104 269.70292 259.51898 270.8588 Z"/>
            </g>
            <g>
               <path d="M 262.38554 279.82833 C 261.69202 283.98946 261.5533 285.28403 261.7845 285.28403 C 261.96943 285.28403 262.3393 284.7292 262.6167 283.98946 L 263.17153 282.74112 L 263.35647 284.5905 C 263.5414 286.7173 262.66295 291.38702 261.83072 292.49666 C 261.50708 292.959 261.04473 293.14394 260.76732 292.959 C 260.02757 292.49666 260.0738 290.64726 260.90603 288.65917 C 261.7845 286.62484 261.7845 286.39367 260.90603 287.13342 C 260.02757 287.87318 259.2878 287.31836 259.2878 285.8851 C 259.2878 284.40557 261.64578 278.34882 262.2006 278.34882 C 262.43177 278.34882 262.52424 279.04234 262.38554 279.82833 Z"/>
            </g>
            <g>
               <path d="M 265.6682 291.29455 C 265.57574 293.56005 265.62197 295.45568 265.85314 295.45568 C 266.03808 295.45568 266.22302 294.9471 266.22302 294.34605 C 266.22302 292.77406 266.68537 291.7569 267.3789 291.7569 C 267.84124 291.7569 268.11865 292.959 268.34982 295.91803 C 268.48853 298.18353 268.81217 299.94045 269.04334 299.80175 C 269.27452 299.66304 269.45946 299.062 269.45946 298.46094 C 269.45946 297.44377 270.1992 296.51908 270.66156 296.9352 C 270.75403 297.02766 271.07767 298.78458 271.35508 300.8189 C 272.09484 306.1359 272.8346 306.7832 272.51095 301.78984 C 272.326 299.57057 272.37224 297.7674 272.55718 297.7674 C 273.99046 297.7674 276.39467 303.1769 276.39467 306.5058 C 276.39467 307.43048 276.62584 308.49388 276.857 308.86376 C 277.5043 309.8347 277.45807 303.54676 276.81078 302.34466 C 276.4409 301.65114 276.48714 301.23502 276.90325 300.72644 C 277.3656 300.1254 277.643 300.21786 278.66017 301.1888 C 280.23215 302.71454 281.1106 304.47146 282.91377 309.78845 C 283.69976 312.19266 284.57822 314.3657 284.85563 314.6431 C 285.7341 315.52156 284.71692 309.92716 283.6073 307.43048 C 281.94284 303.82417 282.45142 303.50053 286.75125 305.39615 C 288.36947 306.08967 289.52534 306.9219 289.7565 307.5692 C 289.9877 308.17024 290.49627 315.61403 290.9586 324.12122 C 291.37473 332.6284 291.97578 342.10654 292.29942 345.15804 C 292.71554 349.04176 292.76177 351.02985 292.43813 351.7696 C 292.06825 352.50936 292.1145 352.9717 292.48436 353.3416 C 292.85424 353.71147 293.03918 355.83826 293.03918 359.4908 C 293.03918 364.90028 292.99294 365.13145 291.8833 366.1024 C 291.23602 366.6572 290.72744 367.53566 290.72744 367.998 C 290.72744 368.5066 290.5425 369.38505 290.31133 369.9861 C 290.08015 370.58715 289.66404 372.06666 289.38663 373.36124 C 289.063 374.60957 288.5544 375.81168 288.277 375.9966 C 287.3523 376.59767 283.32988 376.41273 283.32988 375.81168 C 283.32988 375.48803 283.8847 374.6558 284.62445 373.91605 L 285.8728 372.6215 L 285.82656 360.87785 C 285.78032 354.405 285.5029 346.77625 285.17927 343.9097 C 284.90186 341.04314 284.62445 333.87676 284.57822 328.05118 C 284.48575 317.50966 284.48575 317.4172 283.2374 315.10545 C 282.59012 313.81088 281.52673 312.5163 280.92567 312.2389 C 278.75264 311.12926 276.25596 310.2508 275.33127 310.2508 C 273.66682 310.2508 270.8465 307.89283 269.6444 305.53485 C 269.04334 304.33275 268.53476 303.13065 268.53476 302.85324 C 268.53476 302.62207 267.795 301.4662 266.91654 300.2641 C 266.03808 299.10822 265.29833 297.8599 265.29833 297.49 C 265.29833 297.12013 265.06715 296.84272 264.83598 296.84272 C 264.55857 296.84272 263.8188 296.33414 263.21776 295.7331 L 262.15436 294.62345 L 263.264 291.4795 C 263.9113 289.72257 264.51234 288.0119 264.6048 287.68824 C 264.69728 287.41083 265.06715 287.13342 265.34456 287.13342 C 265.71444 287.13342 265.8069 288.33553 265.6682 291.29455 Z"/>
            </g>
            <g>
               <path d="M 271.4938 370.2635 C 271.6325 370.4947 270.15298 372.29784 268.21112 374.33216 C 266.26926 376.32026 264.00375 379.09434 263.264 380.4814 L 261.83072 383.0243 L 259.2878 383.163 C 256.3288 383.3017 254.202 382.97806 254.202 382.33078 C 254.202 380.98997 259.9351 375.0719 263.03282 373.1763 C 265.06715 371.9742 269.82933 369.93986 270.7078 369.89363 C 270.9852 369.89363 271.35508 370.07857 271.4938 370.2635 Z"/>
            </g>
            <g>
               <g  id="outline-1">
                  <path
                        d="M 165.43126 97.80212 C 165.7549 98.21823 166.12479 98.40317 166.21726 98.3107 C 166.5409 97.98706 165.89361 97.1086 165.3388 97.1086 C 165.06139 97.1086 165.06139 97.386 165.43126 97.80212 Z"
                        fill="black"/>
               </g>
            </g>
            <g>
               <g  id="outline-2">
                  <path
                        d="M 164.09046 104.27498 C 164.04422 104.9685 166.6796 108.02 167.00325 107.69635 C 167.14195 107.55765 166.5409 106.63295 165.66244 105.61579 C 164.78398 104.64486 164.09046 103.99757 164.09046 104.27498 Z"
                        fill="black"/>
               </g>
            </g>
            <g>
               <g  id="outline-3">
                  <path
                        d="M 144.76433 120.9195 C 142.77624 121.75172 140.83438 125.54297 141.20426 127.716 C 141.71284 130.49009 142.4526 131.13737 145.27291 131.50725 C 146.70619 131.64596 149.34157 131.64596 151.0985 131.50725 C 155.44456 131.09114 155.72197 130.58256 154.01128 126.14402 C 151.97695 121.01196 148.78675 119.16257 144.76433 120.9195 Z"
                        fill="black"/>
               </g>
            </g>
            <g>
               <path d="M 149.61898 122.53771 C 150.4512 123.04629 151.28343 123.83228 151.42214 124.29463 C 151.56084 124.71074 152.11566 125.63544 152.578 126.32896 C 153.04035 126.97625 153.41023 127.8547 153.41023 128.27082 C 153.41023 129.14928 152.20813 129.24175 151.69954 128.40952 C 151.00602 127.29989 147.58465 125.40426 145.64279 125.08062 C 143.14611 124.66451 142.77624 124.01722 144.34822 122.67641 C 145.87396 121.38184 147.63089 121.3356 149.61898 122.53771 Z"/>
            </g>
            <g>
               <path d="M 151.93072 129.88903 C 152.02319 130.21268 151.2372 130.39762 149.80392 130.39762 C 146.70619 130.39762 145.04174 128.7794 146.56749 127.25365 C 146.9836 126.83754 147.63089 127.02248 149.43404 128.08588 C 150.72861 128.82564 151.83825 129.65786 151.93072 129.88903 Z"/>
            </g>
            <g>
               <g  id="outline-4">
                  <path
                        d="M 161.27014 142.41865 C 160.80779 142.69606 160.53038 143.89816 160.43791 146.2099 C 160.2992 149.03022 160.48415 149.90868 161.3626 151.6656 C 161.96366 152.77524 162.70341 153.7924 163.0733 153.88487 C 163.76681 154.11604 163.72058 153.88487 162.56471 149.1227 C 161.68625 145.47015 161.64002 144.82286 162.1486 144.49922 C 162.93459 144.03687 164.83021 145.42391 165.70867 147.18083 C 166.17102 147.96682 167.41936 151.15702 168.529 154.20851 C 169.63863 157.21377 170.74826 159.94162 171.02567 160.21903 C 171.7192 160.86632 171.44178 159.57174 169.40745 153.09888 C 167.14195 145.97873 165.52373 143.52829 162.19483 142.14124 C 162.05613 142.04877 161.64002 142.18748 161.27014 142.41865 Z"
                        fill="black"/>
               </g>
            </g>
            <g>
               <g  id="outline-5">
                  <path
                        d="M 151.79201 148.89152 C 151.28343 149.1227 150.3125 149.4001 149.61898 149.5388 C 148.74052 149.76998 148.3244 150.13986 148.3244 150.7409 C 148.3244 151.94301 149.66521 151.94301 152.02319 150.7409 C 154.65857 149.4001 154.47363 147.73565 151.79201 148.89152 Z"
                        fill="black"/>
               </g>
            </g>
            <g>
               <g  id="outline-6">
                  <path
                        d="M 141.57413 160.49644 C 141.29672 161.00502 142.08272 162.99312 145.82773 170.85302 C 147.63089 174.64427 150.1738 178.57423 151.00602 178.85164 C 152.3006 179.26775 151.42214 176.8173 149.01793 173.4884 C 147.63089 171.54655 146.47502 169.60469 146.47502 169.18857 C 146.47502 168.49505 142.40636 159.98786 142.08272 159.98786 C 141.99025 159.98786 141.75907 160.21903 141.57413 160.49644 Z"
                        fill="black"/>
               </g>
            </g>
            <g>
               <g  id="outline-7">
                  <path
                        d="M 139.81721 170.66809 C 139.49357 171.40784 140.83438 175.3378 143.19235 180.42362 C 143.97834 182.1343 144.90304 184.30734 145.31915 185.27827 C 146.1976 187.35883 148.27817 190.5028 148.83299 190.5028 C 149.3878 190.5028 149.57275 188.5147 149.06416 187.26636 C 148.83299 186.61907 147.95453 185.37074 147.16854 184.49228 C 145.68903 182.87406 143.6547 179.22151 143.00741 177.09472 C 142.82247 176.44743 142.22142 174.87545 141.62037 173.6271 C 141.06555 172.33254 140.51073 170.99173 140.37203 170.62185 C 140.14086 170.0208 140.09462 170.0208 139.81721 170.66809 Z"
                        fill="black"/>
               </g>
            </g>
            <g>
               <g  id="outline-8">
                  <path
                        d="M 136.9969 178.9441 C 136.71948 179.40645 140.04839 189.67057 140.97308 191.19631 C 141.15802 191.4275 141.43543 192.35218 141.62037 193.13817 C 141.75907 193.9704 142.08272 194.66392 142.31389 194.66392 C 142.49883 194.66392 143.09988 195.63485 143.6547 196.79072 C 144.62563 198.87128 145.64279 199.2874 145.9202 197.76165 C 146.01267 197.34554 145.64279 196.42084 145.13421 195.77356 C 144.5794 195.08003 144.16328 193.9704 144.16328 193.23064 C 144.16328 192.35218 143.7934 191.65866 143.05365 191.19631 C 142.4526 190.7802 141.75907 189.90174 141.48166 189.20822 C 141.25049 188.5147 140.37203 186.2492 139.58604 184.16863 C 138.80005 182.08807 138.15276 179.96127 138.15276 179.45269 C 138.15276 178.43552 137.50547 178.15811 136.9969 178.9441 Z"
                        fill="black"/>
               </g>
            </g>
            <g>
               <g  id="outline-9">
                  <path
                        d="M 133.76046 190.04045 C 133.34435 190.73397 133.99163 194.29404 134.68516 195.12627 C 135.0088 195.49615 135.65608 196.92942 136.11843 198.224 C 137.04313 200.90561 139.95592 205.5291 140.69567 205.5291 C 141.85154 205.5291 141.3892 203.4023 139.86345 201.92278 C 139.03122 201.04432 138.0603 199.65727 137.73665 198.77881 C 137.413 197.90035 136.81195 196.46708 136.3496 195.58862 C 135.88726 194.71016 135.33244 193.09194 135.1475 192.02854 C 134.82386 189.9942 134.26904 189.20822 133.76046 190.04045 Z"
                        fill="black"/>
               </g>
            </g>
            <g>
               <g  id="outline-10">
                  <path
                        d="M 130.66273 197.25307 C 130.29285 197.5767 131.35625 200.85938 132.78953 203.91087 C 133.43682 205.29791 133.99163 206.7312 133.99163 207.05483 C 133.99163 207.74836 136.76572 211.30843 137.2743 211.30843 C 137.50547 211.30843 137.87535 210.89232 138.15276 210.38374 C 138.56887 209.64398 138.38394 209.2741 137.2743 208.25694 C 136.53455 207.60965 135.56362 206.26884 135.19374 205.29791 C 134.82386 204.32698 134.31528 203.4023 134.03787 203.26358 C 133.8067 203.12488 133.11317 201.64537 132.51212 199.98092 C 131.49496 197.11436 131.21755 196.65202 130.66273 197.25307 Z"
                        fill="black"/>
               </g>
            </g>
            <g>
               <g  id="outline-11">
                  <path
                        d="M 154.19622 197.76165 C 153.91881 198.27023 154.75104 204.55816 155.4908 207.60965 C 156.60043 212.0482 159.14334 218.24364 159.83686 218.24364 C 160.80779 218.24364 160.90026 216.02438 160.0218 215.14592 C 158.72723 213.85134 155.25962 202.3389 155.25962 199.2874 C 155.25962 197.99282 154.61233 197.06813 154.19622 197.76165 Z"
                        fill="black"/>
               </g>
            </g>
            <g>
               <g  id="outline-12">
                  <path
                        d="M 149.34157 201.6916 C 148.27817 202.755 148.78675 206.0839 151.05226 212.51054 C 152.3006 216.02438 153.6414 219.53822 154.05752 220.3242 C 154.47363 221.06396 154.79727 221.94242 154.79727 222.26607 C 154.79727 223.79181 157.24771 223.19076 157.71006 221.5263 C 157.895 220.8328 157.43265 220.13927 156.09184 218.93717 C 154.51986 217.59636 154.10375 216.81037 153.54893 214.40616 C 153.17906 212.83418 152.48553 210.66115 151.97695 209.59775 C 151.46837 208.53435 150.91355 206.2226 150.77485 204.41945 C 150.49744 201.04432 150.3125 200.72067 149.34157 201.6916 Z"
                        fill="black"/>
               </g>
            </g>
            <g>
               <g  id="outline-13">
                  <path
                        d="M 167.28065 202.6163 C 167.28065 202.93994 168.02041 204.32698 168.85264 205.6678 C 169.7311 207.0086 170.97943 209.82892 171.7192 212.00195 C 172.41271 214.12875 173.15247 215.7932 173.38364 215.6545 C 174.21587 215.14592 173.66105 211.03102 172.45895 208.67305 C 169.8698 203.63346 167.23442 200.58197 167.28065 202.6163 Z"
                        fill="black"/>
               </g>
            </g>
            <g>
               <g  id="outline-14">
                  <path
                        d="M 126.59407 203.4023 C 126.59407 203.63346 127.2876 205.76026 128.11982 208.16447 C 129.6918 212.69547 132.69706 217.7813 133.8067 217.7813 C 134.8701 217.7813 135.1475 216.34802 134.26904 215.6545 C 133.34435 215.0072 132.69706 213.89758 129.5531 207.47095 C 127.61124 203.49476 126.59407 202.10772 126.59407 203.4023 Z"
                        fill="black"/>
               </g>
            </g>
            <g>
               <g  id="outline-15">
                  <path
                        d="M 180.55003 205.1592 C 179.81027 205.85273 180.41132 206.63872 183.32411 209.04293 C 185.77456 210.9848 191.73884 216.7179 195.39138 220.69409 C 197.19454 222.63595 201.6793 226.38096 203.34376 227.3519 C 204.49963 227.99918 205.74797 228.8314 206.11785 229.15505 C 207.59736 230.40338 221.6065 237.1999 222.25377 236.96872 C 223.2247 236.59884 222.62365 236.1365 216.89054 233.26994 C 214.024 231.83666 211.66602 230.49585 211.66602 230.31091 C 211.66602 230.07974 211.20367 229.80233 210.60262 229.6174 C 210.0478 229.4787 208.42958 228.4153 207.04254 227.25942 C 205.6555 226.1498 203.99105 224.76274 203.34376 224.3004 C 199.22887 221.1102 194.18928 216.62543 193.35705 215.46956 C 192.84847 214.68357 191.64637 213.5277 190.72167 212.83418 C 189.79698 212.09442 187.3003 210.01386 185.1735 208.16447 C 181.10485 204.69686 181.01238 204.65063 180.55003 205.1592 Z"
                        fill="black"/>
               </g>
            </g>
            <g>
               <g  id="outline-16">
                  <path
                        d="M 143.37729 210.24503 C 143.46976 210.70738 144.16328 213.15782 144.8568 215.70073 C 146.93736 223.42194 149.89639 230.26468 151.0985 230.26468 C 151.32967 230.26468 151.88448 229.70986 152.3006 229.06258 C 153.08659 227.9067 153.08659 227.86047 151.3759 226.47343 C 149.61898 225.04015 146.93736 220.37044 146.93736 218.79846 C 146.93736 218.28988 146.42878 216.76413 145.82773 215.3771 C 145.18044 213.9438 144.53316 212.0482 144.39445 211.1235 C 144.20951 210.1988 143.83964 209.45904 143.60846 209.45904 C 143.33105 209.45904 143.23858 209.82892 143.37729 210.24503 Z"
                        fill="black"/>
               </g>
            </g>
            <g>
               <g  id="outline-17">
                  <path
                        d="M 122.8953 211.1235 C 122.8953 211.72454 126.3629 218.15117 128.16606 220.87903 C 129.96921 223.60688 131.72613 225.04015 132.65083 224.48534 C 133.48305 223.93052 133.0207 223.237 130.52403 220.92526 C 129.13698 219.67692 127.98112 218.33611 127.98112 217.96624 C 127.98112 217.6426 127.38006 216.67166 126.68654 215.83944 C 125.94679 215.0072 124.88339 213.5277 124.32857 212.55677 C 123.35764 210.93855 122.8953 210.4762 122.8953 211.1235 Z"
                        fill="black"/>
               </g>
            </g>
            <g>
               <g  id="outline-18">
                  <path
                        d="M 138.61511 214.22122 C 138.61511 215.5158 141.43543 222.72842 143.7934 227.44436 C 146.47502 232.76136 147.58465 234.4258 148.60182 234.4258 C 150.0351 234.4258 149.75768 233.085 148.00076 231.32808 C 146.9836 230.31091 145.68903 228.46152 145.13421 227.21319 C 144.53316 225.96485 143.56223 223.88428 142.96118 222.63595 C 142.36012 221.34137 141.34296 218.89093 140.7419 217.08778 C 139.72474 214.12875 138.61511 212.64924 138.61511 214.22122 Z"
                        fill="black"/>
               </g>
            </g>
            <g>
               <g  id="outline-19">
                  <path
                        d="M 183.55529 215.83944 C 183.78646 216.39425 196.45478 227.768 199.50628 230.12598 C 200.93955 231.2356 204.22222 233.31617 206.76513 234.74945 C 209.35428 236.1365 212.452 237.93965 213.6541 238.63317 C 215.87338 239.97398 217.21419 240.34386 217.21419 239.6041 C 217.21419 239.37293 215.27233 238.2633 212.86812 237.10742 C 208.38335 234.88815 206.67266 233.82476 202.51154 230.86573 C 199.1364 228.46152 190.72167 221.2489 187.62395 218.0587 C 186.2369 216.62543 184.71116 215.46956 184.2488 215.46956 C 183.78646 215.46956 183.46282 215.6545 183.55529 215.83944 Z"
                        fill="black"/>
               </g>
            </g>
            <g>
               <g  id="outline-20">
                  <path
                        d="M 177.08242 218.61352 C 177.591 219.95433 182.07578 223.0983 182.07578 222.1736 C 182.07578 221.2489 180.55003 219.2608 179.53286 218.79846 C 178.14582 218.15117 176.85125 218.0587 177.08242 218.61352 Z"
                        fill="black"/>
               </g>
            </g>
            <g>
               <g  id="outline-21">
                  <path
                        d="M 135.19374 221.2489 C 134.63892 222.72842 144.34822 239.04928 145.82773 239.04928 C 146.10514 239.04928 146.65996 238.72564 146.9836 238.30953 C 147.53842 237.616 147.44595 237.43107 146.47502 236.78378 C 144.67186 235.6279 141.85154 232.4377 141.85154 231.55925 C 141.85154 231.14314 141.62037 230.8195 138.75381 226.5659 C 137.96782 225.41003 137.08936 223.60688 136.76572 222.49724 C 136.11843 220.4629 135.65608 220.09303 135.19374 221.2489 Z"
                        fill="black"/>
               </g>
            </g>
            <g>
               <g  id="outline-22">
                  <path
                        d="M 182.53812 223.05206 C 182.53812 223.56064 184.98856 225.54874 192.4786 231.05067 C 195.62256 233.3624 208.52205 240.89867 209.30804 240.89867 C 209.7704 240.89867 210.41768 241.22232 210.74132 241.5922 C 211.48108 242.47065 212.3133 242.47065 213.00682 241.63843 C 213.46917 241.12985 213.33047 240.85244 212.49824 240.2514 C 211.94342 239.83527 211.20367 239.51163 210.88003 239.51163 C 210.55638 239.51163 208.33711 238.44823 206.02538 237.15366 C 201.58684 234.70322 200.70838 234.19463 195.20644 230.58832 C 193.4033 229.38622 191.78507 228.4153 191.5539 228.4153 C 191.36896 228.4153 190.2131 227.53683 189.01099 226.4272 C 186.74549 224.4391 183.74023 222.40477 182.95424 222.40477 C 182.72306 222.40477 182.53812 222.68218 182.53812 223.05206 Z"
                        fill="black"/>
               </g>
            </g>
            <g>
               <g  id="outline-23">
                  <path
                        d="M 125.20703 224.62404 C 125.20703 225.27133 126.13173 226.19602 128.30476 227.67553 C 130.01545 228.8314 131.58743 229.6174 131.8186 229.4787 C 132.32718 229.15505 130.15415 226.88954 128.53593 226.05732 C 127.84241 225.73367 126.82525 225.04015 126.27043 224.53157 C 125.20703 223.6531 125.20703 223.6531 125.20703 224.62404 Z"
                        fill="black"/>
               </g>
            </g>
            <g>
               <g  id="outline-24">
                  <path
                        d="M 211.75849 228.0454 C 211.43484 228.36905 211.20367 228.73893 211.20367 228.92387 C 211.20367 229.43245 218.0464 232.53018 220.40438 233.13123 C 221.56025 233.40864 223.59458 234.10216 224.84292 234.65698 C 226.1375 235.2118 227.89441 235.81285 228.77287 235.9978 C 230.6685 236.36767 236.5403 239.14175 239.36063 241.0836 C 241.90354 242.74806 249.39357 250.33056 250.31827 252.08748 C 251.0118 253.47452 252.67624 253.9831 252.16766 252.6423 C 252.02895 252.2262 251.89025 251.67137 251.89025 251.3015 C 251.89025 250.70044 249.11616 247.41777 246.1109 244.50498 C 243.93787 242.37818 235.43068 236.2752 234.69092 236.2752 C 234.4135 236.2752 233.81246 235.9978 233.44258 235.6279 C 232.74906 235.02686 224.5655 232.34524 219.7571 231.14314 C 217.21419 230.5421 214.1627 229.1088 213.14553 228.13788 C 212.40577 227.3519 212.452 227.3519 211.75849 228.0454 Z"
                        fill="black"/>
               </g>
            </g>
            <g>
               <g  id="outline-25">
                  <path
                        d="M 132.60459 231.32808 C 132.60459 232.06784 133.06694 233.17747 133.76046 233.871 C 134.36151 234.5645 136.30337 236.78378 138.0603 238.8181 C 142.08272 243.48782 143.05365 244.32004 143.9321 243.9964 C 144.7181 243.67276 144.90304 241.82337 144.11704 241.82337 C 143.83964 241.82337 142.82247 240.99114 141.8053 239.97398 C 140.78814 238.9568 139.77098 238.1246 139.58604 238.1246 C 139.35486 238.1246 138.15276 236.83001 136.90442 235.30427 C 135.70232 233.7323 134.2228 231.92913 133.66799 231.2356 L 132.65083 230.0335 L 132.60459 231.32808 Z"
                        fill="black"/>
               </g>
            </g>
            <g>
               <g  id="outline-26">
                  <path
                        d="M 174.21587 237.38483 C 173.9847 237.70847 173.61482 238.6794 173.42988 239.55786 C 173.29117 240.43633 172.64389 242.23948 172.04283 243.5803 C 171.44178 244.9211 170.97943 246.30814 170.97943 246.63178 C 170.97943 246.95542 170.05474 248.06506 168.9451 249.036 C 165.24633 252.31866 163.4894 253.38206 161.87119 253.38206 C 160.90026 253.38206 160.34544 253.61323 160.34544 254.02934 C 160.34544 254.9078 161.3626 255.23145 163.90552 255.23145 C 165.70867 255.23145 166.30973 254.95404 168.15912 253.33582 C 172.08907 249.8682 172.9213 248.98975 173.56858 247.74142 C 174.49328 245.9845 176.5276 239.4654 176.5276 238.30953 C 176.5276 237.15366 174.95562 236.5526 174.21587 237.38483 Z"
                        fill="black"/>
               </g>
            </g>
            <g>
               <g  id="outline-27">
                  <path
                        d="M 227.84818 238.58693 C 227.84818 239.188 228.5417 239.83527 230.06745 240.62126 C 232.42542 241.82337 236.03173 245.38344 238.5284 248.89728 C 239.40687 250.14562 240.6552 251.90254 241.39496 252.82724 C 243.01318 255.00027 244.72386 258.65282 245.23245 260.96455 C 245.64856 262.67524 246.8969 264.06228 247.49795 263.46123 C 248.099 262.9064 246.66572 257.312 245.50985 255.50885 C 244.81633 254.44545 244.07658 253.2896 243.79917 252.87347 C 239.54557 246.1232 234.50598 241.03738 229.6051 238.5407 C 227.84818 237.66224 227.84818 237.66224 227.84818 238.58693 Z"
                        fill="black"/>
               </g>
            </g>
            <g>
               <g  id="outline-28">
                  <path
                        d="M 132.14224 240.9449 C 132.14224 242.05454 139.49357 248.29623 140.83438 248.29623 C 142.08272 248.29623 141.25049 247.00166 138.75381 245.15227 C 137.2743 244.08887 135.42491 242.60936 134.59269 241.82337 C 133.06694 240.3901 132.14224 240.06645 132.14224 240.9449 Z"
                        fill="black"/>
               </g>
            </g>
            <g>
               <g  id="outline-29">
                  <path
                        d="M 182.58436 243.0717 C 182.21448 244.32004 181.42849 246.30814 180.7812 247.6027 C 177.86841 253.47452 175.27927 255.6938 171.2106 255.6938 C 170.05474 255.6938 169.13004 255.87873 169.13004 256.1099 C 169.13004 256.6185 173.52235 257.26577 174.16963 256.84966 C 174.44704 256.71096 176.3889 256.29484 178.56193 255.92497 C 184.29504 255.00027 186.51431 253.38206 188.27123 248.75858 C 189.75074 244.96733 189.84321 244.36628 189.10346 244.36628 C 188.77981 244.36628 187.99382 245.56838 187.439 247.0479 C 185.63585 251.39396 182.86177 254.30675 180.45756 254.30675 C 179.53286 254.30675 179.53286 254.26052 181.0586 251.1628 C 183.1854 246.9092 184.47998 243.3491 184.29504 242.23948 C 184.06387 240.43633 183.23164 240.8062 182.58436 243.0717 Z"
                        fill="black"/>
               </g>
            </g>
            <g>
               <g  id="outline-30">
                  <path
                        d="M 200.4772 256.94213 C 200.0611 257.40448 199.32134 258.83776 198.76652 260.0861 C 198.073 261.75055 197.05583 262.99888 195.25268 264.43216 C 193.86564 265.5418 192.70977 266.65143 192.70977 266.83637 C 192.70977 267.06754 193.26459 267.25248 194.00434 267.20625 C 196.13114 267.16 203.5287 258.05177 202.65024 256.6185 C 202.23413 255.92497 201.2632 256.06367 200.4772 256.94213 Z"
                        fill="black"/>
               </g>
            </g>
            <g>
               <g  id="outline-31">
                  <path
                        d="M 189.79698 258.32917 C 189.19593 259.3001 188.31747 260.68715 187.90135 261.38067 C 187.48524 262.0742 186.60678 262.86018 185.9595 263.1376 C 184.71116 263.59994 184.66492 264.3397 185.86702 265.12568 C 186.46808 265.49556 187.06913 265.12568 188.77981 263.32253 C 192.43236 259.5775 193.77317 256.6185 191.78507 256.6185 C 191.23026 256.6185 190.44427 257.312 189.79698 258.32917 Z"
                        fill="black"/>
               </g>
            </g>
            <g>
               <g  id="outline-32">
                  <path
                        d="M 216.2895 272.01466 C 216.2895 273.63288 224.19563 275.15862 228.9578 274.4651 C 231.22332 274.09522 231.54696 273.58664 230.43733 272.0609 C 229.92874 271.36737 229.65133 271.32114 229.189 271.73725 C 228.91158 272.0609 228.07935 272.1996 227.43207 272.10713 C 226.78478 272.01466 224.0107 271.82972 221.28284 271.69102 C 217.4916 271.45984 216.2895 271.5523 216.2895 272.01466 Z"
                        fill="black"/>
               </g>
            </g>
            <g>
               <g  id="outline-33">
                  <path
                        d="M 232.0093 276.49943 C 229.92874 277.5166 222.39248 278.53376 219.71086 278.11765 C 218.09265 277.88647 217.67653 277.97894 217.67653 278.48753 C 217.67653 279.41222 221.7452 279.82833 225.44397 279.31975 C 228.03312 278.90364 230.62226 279.22728 230.62226 279.9208 C 230.62226 280.1982 224.61175 281.4928 221.7452 281.81643 C 219.71086 282.0476 219.06358 282.27877 219.06358 282.8336 C 219.06358 284.5905 230.25239 282.50995 235.61562 279.7821 C 237.9736 278.58 238.1123 277.88647 235.93926 277.88647 C 234.6447 277.88647 234.32104 277.70153 234.32104 277.008 C 234.32104 275.6672 233.81246 275.57474 232.0093 276.49943 Z"
                        fill="black"/>
               </g>
            </g>
            <g>
               <g  id="outline-34">
                  <path
                        d="M 242.45836 289.9075 C 241.48743 290.92467 240.00792 291.84937 239.22193 292.0343 C 235.9855 292.6816 232.70283 294.0224 232.56412 294.71592 C 232.37918 295.68685 234.2748 295.68685 237.6037 294.71592 C 240.2391 293.97617 245.74103 291.38702 246.15714 290.73973 C 246.43455 290.2774 245.13998 288.05812 244.58516 288.10435 C 244.40022 288.10435 243.4293 288.93658 242.45836 289.9075 Z"
                        fill="black"/>
               </g>
            </g>
            <g>
               <g  id="outline-35">
                  <path
                        d="M 251.47414 296.51908 C 251.19673 296.88896 250.27203 297.44377 249.4398 297.7674 C 248.60758 298.09106 247.22054 298.73835 246.29584 299.2007 C 245.37115 299.66304 244.16905 300.07915 243.66046 300.07915 C 243.15188 300.07915 241.996 300.4028 241.02508 300.8189 C 239.7305 301.3275 239.40687 301.65114 239.82298 302.06725 C 240.3778 302.62207 243.89164 301.83607 249.53228 299.8942 C 252.9074 298.73835 253.87834 297.72118 252.7687 296.61155 C 252.12142 295.96426 251.98272 295.96426 251.47414 296.51908 Z"
                        fill="black"/>
               </g>
            </g>
         </g>
      </g>
   </g>
</svg>