<?xml version="1.0" encoding="UTF-8" standalone="no"?>
<!-- Created with Inkscape (http://www.inkscape.org/) -->

<svg
   xmlns:dc="http://purl.org/dc/elements/1.1/"
   xmlns:cc="http://creativecommons.org/ns#"
   xmlns:rdf="http://www.w3.org/1999/02/22-rdf-syntax-ns#"
   xmlns:svg="http://www.w3.org/2000/svg"
   xmlns="http://www.w3.org/2000/svg"
   xmlns:xlink="http://www.w3.org/1999/xlink"
   xmlns:sodipodi="http://sodipodi.sourceforge.net/DTD/sodipodi-0.dtd"
   xmlns:inkscape="http://www.inkscape.org/namespaces/inkscape"
   version="1.1"
   width="246.66716"
   height="200.66153"
   id="svg3045"
   sodipodi:docname="camel.svg"
   inkscape:version="0.92.2 5c3e80d, 2017-08-06">
  <sodipodi:namedview
     pagecolor="#ffffff"
     bordercolor="#666666"
     borderopacity="1"
     objecttolerance="10"
     gridtolerance="10"
     guidetolerance="10"
     inkscape:pageopacity="0"
     inkscape:pageshadow="2"
     inkscape:window-width="640"
     inkscape:window-height="480"
     id="namedview10784"
     showgrid="false"
     inkscape:zoom="3.3648581"
     inkscape:cx="123.33358"
     inkscape:cy="100.33076"
     inkscape:current-layer="layer2"
     fit-margin-top="0"
     fit-margin-left="0"
     fit-margin-right="0"
     fit-margin-bottom="0" />
  <title
     id="title3385">Blason de Louis Léger Boyeldieu, Baron d'Empire</title>
  <defs
     id="defs3047">
    <linearGradient
       id="linearGradient2893">
      <stop
         id="stop2895"
         style="stop-color:#ffffff;stop-opacity:0.3137"
         offset="0" />
      <stop
         id="stop2897"
         style="stop-color:#ffffff;stop-opacity:0.251"
         offset="0.19" />
      <stop
         id="stop2901"
         style="stop-color:#6b6b6b;stop-opacity:0.1255"
         offset="0.6" />
      <stop
         id="stop2899"
         style="stop-color:#000000;stop-opacity:0.1255"
         offset="1" />
    </linearGradient>
    <radialGradient
       cx="285.20001"
       cy="200.39999"
       r="300"
       fx="285.20001"
       fy="200.39999"
       id="radialGradient3092"
       xlink:href="#linearGradient2893"
       gradientUnits="userSpaceOnUse"
       gradientTransform="matrix(1.551,0,0,1.35,-227.9,341.1)" />
    <style
       type="text/css"
       id="style6" />
  </defs>
  <metadata
     id="metadata3050">
    <rdf:RDF>
      <cc:Work
         rdf:about="">
        <dc:format>image/svg+xml</dc:format>
        <dc:type
           rdf:resource="http://purl.org/dc/dcmitype/StillImage" />
        <dc:title>Blason de Louis Léger Boyeldieu, Baron d'Empire</dc:title>
        <dc:creator>
          <cc:Agent>
            <dc:title>Alain Thebault</dc:title>
          </cc:Agent>
        </dc:creator>
        <dc:language>fr</dc:language>
        <dc:source>Wikipédia-Projet Blason</dc:source>
        <cc:license
           rdf:resource="http://creativecommons.org/licenses/by-sa/4.0/" />
        <dc:date>2014-03-02</dc:date>
        <dc:coverage>blason,Boyeldieu,baron,empire</dc:coverage>
      </cc:Work>
      <cc:License
         rdf:about="http://creativecommons.org/licenses/by-sa/4.0/">
        <cc:permits
           rdf:resource="http://creativecommons.org/ns#Reproduction" />
        <cc:permits
           rdf:resource="http://creativecommons.org/ns#Distribution" />
        <cc:requires
           rdf:resource="http://creativecommons.org/ns#Notice" />
        <cc:requires
           rdf:resource="http://creativecommons.org/ns#Attribution" />
        <cc:permits
           rdf:resource="http://creativecommons.org/ns#DerivativeWorks" />
        <cc:requires
           rdf:resource="http://creativecommons.org/ns#ShareAlike" />
      </cc:License>
    </rdf:RDF>
  </metadata>
  <g
     transform="translate(-324.26058,-726.36622)"
     id="layer1"
     style="display:inline" />
  <g
     transform="translate(-324.26058,-726.36622)"
     id="layer2"
     style="display:inline">
    <g
       transform="translate(704.5,18.24)"
       id="g3988" />
    <g
       transform="translate(704.5,18.24)"
       id="g3999" />
    <path
       d="m 341.6,748 c 9.2,-3.8 14,-9.8 12.4,-17.3 4.9,3.2 5.4,7.5 4.9,11.9 0,-3.3 1,-6.5 -1.7,-10.3 -1,-1.6 -0.5,-2.7 0,-4.3 1.1,2.1 2.7,3.8 3.8,5.9 0,-1.6 0.6,-3.2 0.6,-5.4 4.8,5.4 2.6,10.3 1.6,15.7 1,-5.4 2.1,-10.3 3.7,-13 1.7,2.7 1.7,3.8 1.7,10.8 1.6,-3.2 1.6,-6.5 3.7,-10.2 1.6,3.7 1.1,7 1.1,10.8 0,-3.3 0.5,-6.5 2.7,-9.2 1,2.7 0.5,5.9 -0.5,9.2 1,-2.7 1.5,-4.9 4.3,-6.5 0.5,1.1 0.5,2.1 -0.6,3.2 1.6,-1.1 1.6,0 2.7,-1.1 0,3.3 -1.1,4.4 -2.7,8.2 1.1,-2.2 1.1,-4.4 3.8,-5.5 1,4.4 -2.7,7.1 -6,10.4 2.2,-2.2 4.4,-4.9 7,-6.6 0.6,1.7 0,3.3 -0.5,4.9 6.5,-0.5 9.7,8.6 11.4,23.8 0.5,2.1 1,4.8 0.5,7 -0.5,1.1 -1.7,1.1 -2.7,0.5 2.2,8.1 0,16.3 -2.2,23.8 6,-31.9 23,-48.3 33.4,-58.7 12.2,-12.1 16.4,-11.2 24.7,-3.9 9.8,20 17.1,28.1 31.1,21.4 1.6,-0.8 3.3,-3.3 5.4,-5.8 0.5,-0.7 0.5,-1.6 1.1,-2 4.8,-2.6 -1.6,0.8 10.2,-12.6 3.8,-4 14,-8.6 21.5,-1.6 1.7,2.2 1.7,3.8 -0.5,3.8 2.7,1.1 5,4.1 5.5,7.3 0,1.6 -2.3,0.8 -3.3,0.8 1,0.6 2.6,0.6 3.8,3.3 -0.6,2.7 4.1,5.3 3,4.8 1.6,2.2 3.2,4.1 2.2,8.4 7,8.1 9.8,12.2 14.1,22.4 14.6,14.1 23.2,32.4 26.4,54.6 0.6,2.7 1.1,5.4 1.1,8.1 -4.9,-4.9 -6.5,-10.8 -7,-17.8 -0.5,1.6 -1.6,3.2 -2.7,4.3 -1.1,-2.7 -1.6,-5.4 -1.6,-8.1 -0.6,1.6 -1.1,1.6 -2.2,1.1 -0.5,-3.3 -0.5,-6.5 0,-10.3 -0.5,6.5 -1.6,5.9 -3.7,3.2 -0.6,-12.4 -3,-20.9 -7.9,-23.6 3.2,7.6 5.2,13.9 5.2,21.5 -1.1,-0.6 -2.2,-1.6 -3.3,-2.7 2.2,2.7 2.2,5.9 2.2,9.7 -0.6,-1.1 -1.6,-1.6 -2.7,-2.7 4.3,4.9 3.2,10.8 3.8,16.2 3.2,6.5 6.4,13.5 8,20.5 1.7,1.7 3.3,2.7 4.9,2.7 -0.5,10.9 -1.6,21.1 -2.7,31.9 0.5,5.4 0.5,10.3 0.5,15.7 -4.3,1.6 -8,4.3 -8.6,8.6 -8.1,0 -15.6,0 -23.2,0 2.7,-4.8 6.5,-8.6 13.5,-8.6 2.7,-8.1 5.4,-5.9 8.6,-17.3 0,-4.9 0,-9.7 0,-14.6 -1,-5.9 -3.2,-10.2 -5.9,-14 -2.7,-7.6 -6.5,-13.5 -11.3,-17.9 0,6.5 -0.5,13.5 -0.5,20 2.7,2.7 2.7,5.4 0,8.6 -6.5,10.9 -13,21.7 -15.1,31.4 -1.1,4.9 -3.3,6.5 -6,6.5 -4.3,2.2 -7,3.8 -9.6,5.9 -7.1,0 -13.5,0 -20.5,0 2.2,-7.5 8.6,-9.7 17.3,-9.1 1,-2.7 2.1,-4.9 5.3,-7.1 5.9,-5.4 11.4,-12.4 15.1,-26.4 0,-7.1 -1.6,-11.9 -2.7,-17.3 -2.7,-6.5 -5.4,-13 -8.1,-19.5 -2.6,-3.8 -5.3,-7 -8.6,-10.8 -5.4,2.2 -10.2,5.4 -16.7,3.8 1.6,3.8 -3.7,2.1 -6.4,1.1 5.4,4.8 -10.8,1.6 -11.9,1 3.2,4.3 -2.7,3.3 -8.1,2.2 1.6,9.2 3.8,18.4 1.6,27.6 -1,-2.7 -2.1,-4.9 -3.2,-7.1 5.4,11.4 3.8,23.3 4.3,35.2 1.6,6.5 2.2,12.4 1.1,19.4 -1.6,0 -3.2,0 -4.8,0 -2.7,2.7 -5.4,5.5 -7.9,8.2 -7,0 -13.5,-0.6 -20.5,-0.6 1.6,-4.9 5.9,-8.1 13.5,-9.7 2.7,-3.8 6.6,-7.3 10.6,-10 0,-3.3 0,-6.5 0,-9.2 -0.8,-9.2 -3.6,-16.5 -9,-22.4 -0.5,-6.5 -2.7,-12.4 -5.9,-18.4 -1.6,3.2 -3.8,6.5 -5.9,10.2 0,6 -6.5,13.6 -6.5,18.4 -1.1,9.7 -1.6,20 -1.6,29.7 -3.3,2.7 -7,6 -11.3,10.8 -7,0 -14,0.6 -21.6,0.6 1.1,-5.4 4.4,-8.7 11.9,-10.3 1.6,-0.5 3.2,-1.6 4.3,-4.8 2.1,-2.7 4.9,-5.4 8.1,-8.1 1,-7.6 1.6,-15.2 1.6,-22.2 0,-2.2 -1.1,-4.9 -3.3,-7.6 0.6,-4.8 0.6,-9.2 1.1,-14 -2.1,0.5 -3.2,-0.6 1.6,-8.2 -4.8,9.3 -5.9,8.7 -3.2,-1.5 -8,13 -3.8,-1.2 -2.2,-9.2 -1,3.8 -0.5,8 -4.8,10.7 0.5,-4.8 0.5,-9.7 -1,-13.4 0.5,-7.1 0.5,-9.8 -0.6,-13.5 2.1,5.9 0.6,11.3 -2.7,17.2 -4.3,6 -7,12.5 -9.7,19 -1.6,0 -2.1,-2.7 -1.6,-7.1 -0.5,3.3 -1.6,6.5 -1.6,10.3 -1.7,-1.6 -2.2,-3.2 -2.7,-5.4 -0.5,5.4 -2.7,8.1 -5.9,9.2 1,-2.7 1.6,-4.8 1.6,-7.6 -0.6,-2.7 -1.1,-4.8 -1.1,-7 1.1,7 -1.1,10.8 -3.3,13 -4.8,-10.8 -17.2,-14.1 -17.7,-28.1 -1.1,3.2 -1.6,7 -0.5,11.9 -6.5,-6.5 -7,-14.1 -6,-22.2 -1,3.2 -2.1,7 -2.1,11.3 -3.8,-7.5 -2.7,-14.5 0,-21.6 -0.6,3.8 -2.2,7.1 -4.9,9.8 1.1,-4.9 1.6,-9.3 1.6,-13.5 -1,2.1 -2.6,3.7 -4.3,4.2 3.3,-8.6 0.6,-18.8 4.3,-25.3 -1,0 -2.1,0 -3.2,0 -1.1,0.5 -1.6,1.6 -2.1,2.1 -0.6,-1 -0.6,-1.6 -0.6,-2.7 -0.5,1.1 -1.6,2.2 -3.2,2.7 0,-1.6 0.5,-3.2 1.1,-5.4 -0.6,-10.3 0,-18.9 4.8,-21 -2.7,0.5 -5.9,2.1 -9.1,4.3 -2.2,1 -3.8,0.5 -5.4,-3.3 -4.3,0 -5.9,-1.6 -4.3,-6.4 0.5,-1.2 1,-2.7 2.1,-4.4 2.2,-4.3 7.6,-7 14,-9.7 z"
       id="path2617"
       style="fill:#ffff00;fill-opacity:1;fill-rule:evenodd;stroke:#808080;stroke-width:1.25549996;stroke-miterlimit:4;stroke-dasharray:none"
       inkscape:connector-curvature="0" />
    <path
       d="m 500.8,835 c -8.1,-15.2 -9.1,-31.3 -6.4,-49.7"
       id="path2619"
       style="fill:#ffff00;fill-opacity:1;fill-rule:evenodd;stroke:#808080;stroke-width:1.079"
       inkscape:connector-curvature="0" />
    <path
       d="m 457.7,843.1 c -5.4,0 -10,-1.1 -14.8,-2.2"
       id="path2625"
       style="fill:#fcef3c;fill-opacity:1;fill-rule:evenodd;stroke:#808080;stroke-width:1.079"
       inkscape:connector-curvature="0" />
    <path
       d="m 442.9,840.9 c -1.6,4.9 -3.3,9.7 -5.4,14.6"
       id="path2627"
       style="fill:#fcef3c;fill-opacity:1;fill-rule:evenodd;stroke:#808080;stroke-width:1.079"
       inkscape:connector-curvature="0" />
    <path
       d="m 442.9,805.3 c 7.5,20.5 2.1,15.1 2.1,17.3 0.6,7 -0.5,10.8 -1.6,12.4 -1.1,2.2 -1.1,3.8 -0.5,5.9"
       id="path2629"
       style="fill:#fcef3c;fill-opacity:1;fill-rule:evenodd;stroke:#808080;stroke-width:1.079"
       inkscape:connector-curvature="0" />
    <path
       d="m 505.1,824.7 c 0,5.4 3.8,11.9 4.3,21.1"
       id="path2631"
       style="fill:#ffff00;fill-opacity:1;fill-rule:evenodd;stroke:#666666;stroke-width:1.079"
       inkscape:connector-curvature="0" />
    <path
       d="m 545.5,802 c -1.6,-2.1 -3.2,-3.2 -4.8,-4.3 3.2,6.5 3.2,13 3.2,19.4 -0.5,0.6 -1.1,0 -1.6,-0.5 0.5,3.2 0.5,6 0,9.2 0,-0.5 -0.6,-1.1 -1.1,-1.6 0.5,3.2 0,6.5 -0.5,9.7 -0.6,0 -1.1,-0.5 -1.7,-1.1 0.6,2.7 0,4.9 -1,7.6 0,-0.5 -0.6,-1.1 -1.1,-1.1 0.5,1.6 0.5,3.8 0.5,5.4 -0.5,-0.5 -1,-0.5 -1.6,-1 0.6,1 0.6,2.7 0,4.2 0,-0.5 -0.5,-0.5 -0.5,-1 -0.6,2.2 -0.6,3.7 -1.1,5.4"
       id="path2633"
       style="fill:#ffff00;fill-opacity:1;fill-rule:evenodd;stroke:#808080;stroke-width:1.079"
       inkscape:connector-curvature="0" />
    <path
       d="m 326.5,759.4 c 2.7,-1.7 4.9,-2.7 7,-3.9 1.2,0 1.2,0.6 -1,1.2"
       id="path2635"
       style="fill:#fcef3c;fill-opacity:1;fill-rule:evenodd;stroke:#808080;stroke-width:1.079"
       inkscape:connector-curvature="0" />
    <path
       d="m 329.8,769.1 c 2.7,-3.3 5.9,-5.4 10.7,-7 1.1,-0.6 1.7,0.5 1.7,1"
       id="path2637"
       style="fill:#fcef3c;fill-opacity:1;fill-rule:evenodd;stroke:#808080;stroke-width:1.079"
       inkscape:connector-curvature="0" />
    <circle
       cx="331"
       cy="190"
       r="4"
       transform="matrix(0.5385,0,0,0.5404,172.5,647.4)"
       id="circle2639"
       style="fill:#ffff00;fill-opacity:1;fill-rule:evenodd;stroke:#808080;stroke-width:2" />
    <path
       d="m 346.5,750.7 c 1.6,-4.9 4.3,-6 9.1,-3.3 -3.2,0.6 -6.4,1.7 -9.1,3.3 z"
       id="path2641"
       style="fill:#ffff00;fill-opacity:1;fill-rule:evenodd;stroke:#808080;stroke-width:1.079"
       inkscape:connector-curvature="0" />
    <path
       d="m 362.6,746.4 c 2.2,-2.2 7,-3.3 15.1,-2.2 -1.1,2.2 -3.3,4.9 -6.4,7.6"
       id="path2643"
       style="fill:#ffff00;fill-opacity:1;fill-rule:evenodd;stroke:#808080;stroke-width:1.079"
       inkscape:connector-curvature="0" />
    <path
       d="m 364.2,748.5 c 2.7,-1.6 6,-2.7 9.2,-2.7 -1.1,1.6 -2.1,2.7 -3.2,4.3"
       id="path2645"
       style="fill:#ffff00;fill-opacity:1;fill-rule:evenodd;stroke:#808080;stroke-width:1.079"
       inkscape:connector-curvature="0" />
    <path
       d="m 341.6,791.2 c 3.8,-8.1 1.1,-18.9 5.9,-23.7"
       id="path2657"
       style="fill:#fcef3c;fill-opacity:1;fill-rule:evenodd;stroke:#808080;stroke-width:1.079"
       inkscape:connector-curvature="0" />
    <path
       d="m 384.1,749.6 c -3.2,4.4 -7,6.5 -11.2,6.5 8,-1.6 4.8,1.6 0,5.4 -1.6,-0.6 -3.3,-0.6 -4.9,-0.6 2.7,0.6 4.9,0.6 4.3,2.8 -3.2,-0.6 -5.9,-0.6 -8.6,-1.1 2.2,0.5 4.9,1.1 4.9,3.8 -1.7,0 -3.8,0 -5.4,0 2.1,0 3.7,0.5 3.2,2.7 -2.2,0 -3.8,0 -5.9,-0.6 1.6,0.6 3.2,0.6 3.2,2.7 -2.1,-0.5 -4.8,-0.5 -7.5,-1 1,3.2 -1.1,7 -2.7,10.2 0,-3.2 0,-5.9 0,-8.6 0,6.4 -1.6,13.5 -6.5,20 -1.1,0 -1.6,0.5 -2.7,0 2.2,-3.8 3.8,-9.7 5.4,-19"
       id="path2659"
       style="fill:#ffff00;fill-opacity:1;fill-rule:evenodd;stroke:#808080;stroke-width:1.079"
       inkscape:connector-curvature="0" />
    <path
       d="m 490.6,792.3 c -5.4,7 -15.1,13.5 -11.4,3.8 -3.7,3.8 -6.9,6.5 -11.2,7 0.5,-2.1 2.7,-4.3 4.8,-6.5 -9.7,6.5 -16.7,8.1 -22.9,7.6"
       id="path2669"
       style="fill:#ffff00;fill-opacity:1;fill-rule:evenodd;stroke:#c5ba2b;stroke-width:1.079;stroke-opacity:1"
       inkscape:connector-curvature="0" />
    <path
       d="m 371.3,819.8 c -6,-8.1 -3.9,-15.6 2.6,-22.1 -3.2,1.1 -6.5,2.7 -9.1,6.5 0.5,-5.9 4.8,-10.8 9.6,-15.2 -3.1,-0.5 -5.8,0.6 -8.5,2.2 2.1,-4.9 5.9,-7.6 10.2,-9.7 -3.8,0 -7.5,0.6 -11.3,4.3 2.6,-6.5 7.5,-11.9 12.3,-15.6 -3.2,-1.1 -6.9,0 -10.2,3.7 4.4,-5.4 8.7,-9.7 11.9,-13"
       id="path2671"
       style="fill:#ffff00;fill-opacity:1;fill-rule:evenodd;stroke:#c5ba2b;stroke-width:1.079;stroke-opacity:1"
       inkscape:connector-curvature="0" />
    <path
       d="m 442.3,804.7 c -0.5,-1 -1,-2.7 -1.6,-3.7 0,3.2 0,5.9 -1.1,9.1 -3.2,11.9 -5.9,10.3 -8,6.5 -1.7,7.1 -6.5,8.7 -8.1,-1 -2.7,13.5 -19.4,10.2 -13.5,-6 -2.1,2.1 -4.3,3.8 -4.8,6.5 -2.7,-7.6 0,-14.6 2.7,-22.2 -1.1,2.2 -3.2,3.8 -4.9,3.8 1.1,-8.7 3.8,-12.9 7,-16.8 -2.1,0 -4.3,1.2 -5.9,1.7 7,-15.1 14.5,-24.9 22.1,-28.1"
       id="path2673"
       style="fill:none;stroke:#c5ba2b;stroke-width:1.079;stroke-opacity:1"
       inkscape:connector-curvature="0" />
    <path
       d="m 396.5,796.1 c 3.8,10.3 3.8,20.5 2.2,31.3 -1.6,-2.7 -2.7,-5.4 -3.7,-8.1 -0.6,11.4 -1.7,13.5 -3.3,7.1 0.6,5.9 -1.6,11.3 -4.9,16.7 -0.5,-2.7 -1,-4.9 -1,-7.6 0,3.8 -0.5,7.1 -1.7,10.3 -0.5,-2.7 -1.5,-5.4 -3.2,-8.1 3.2,8.1 -4.3,11.4 -1.6,16.8"
       id="path2675"
       style="fill:#ffff00;fill-opacity:1;fill-rule:evenodd;stroke:#c5ba2b;stroke-width:1.079;stroke-opacity:1"
       inkscape:connector-curvature="0" />
    <path
       d="m 508.9,739.3 c 10.2,22.2 5.4,39.5 -12.4,50.9 12.4,-13 19.4,-28.2 12.4,-50.9 z"
       id="path2677"
       style="fill:#cec116;fill-opacity:1;fill-rule:evenodd;stroke:none"
       inkscape:connector-curvature="0" />
    <path
       d="m 359.9,768.5 c -2.1,-1.6 -4.3,-2.7 -6.4,-3.7"
       id="path2679"
       style="fill:#fcef3c;fill-opacity:1;fill-rule:evenodd;stroke:#c5ba2b;stroke-width:1.079;stroke-opacity:1"
       inkscape:connector-curvature="0" />
    <path
       d="m 362.6,765.8 c -2.1,-1 -3.7,-2.1 -5.9,-2.7"
       id="path2681"
       style="fill:#fcef3c;fill-opacity:1;fill-rule:evenodd;stroke:#c5ba2b;stroke-width:1.079;stroke-opacity:1"
       inkscape:connector-curvature="0" />
    <path
       d="m 376.1,752.8 c -4.8,-0.5 -9.2,-0.5 -13.5,0.6"
       id="path2683"
       style="fill:#fcef3c;fill-opacity:1;fill-rule:evenodd;stroke:#c5ba2b;stroke-width:1.079;stroke-opacity:1"
       inkscape:connector-curvature="0" />
    <path
       d="m 372.3,755 c -2.7,-0.5 -6.4,-0.5 -9.7,-0.5"
       id="path2685"
       style="fill:#fcef3c;fill-opacity:1;fill-rule:evenodd;stroke:#c5ba2b;stroke-width:1.079;stroke-opacity:1"
       inkscape:connector-curvature="0" />
    <path
       d="m 366.9,760.9 c -1.6,-1 -3.7,-1.5 -5.9,-2.1"
       id="path2687"
       style="fill:#fcef3c;fill-opacity:1;fill-rule:evenodd;stroke:#cbc455;stroke-width:1.079;stroke-opacity:1"
       inkscape:connector-curvature="0" />
    <path
       d="m 363.2,762.6 -4.3,-1.7"
       id="path2689"
       style="fill:#fcef3c;fill-opacity:1;fill-rule:evenodd;stroke:#c5ba2b;stroke-width:1.079;stroke-opacity:1"
       inkscape:connector-curvature="0" />
    <path
       d="m 353.5,770.7 c 0.5,-1.6 0.5,-2.7 0,-4.3"
       id="path2691"
       style="fill:#fcef3c;fill-opacity:1;fill-rule:evenodd;stroke:#c5ba2b;stroke-width:1.079;stroke-opacity:1"
       inkscape:connector-curvature="0" />
    <path
       d="m 350.2,772.3 c 1.1,-1.6 0.6,-3.2 -0.5,-4.8"
       id="path2693"
       style="fill:#fcef3c;fill-opacity:1;fill-rule:evenodd;stroke:#c5ba2b;stroke-width:1.079;stroke-opacity:1"
       inkscape:connector-curvature="0" />
    <path
       d="m 414.9,824.2 c -1.7,11.9 6.5,21.6 10.7,31.3 1.6,-5.4 -1.6,-11.3 -3.7,-16.7 4.8,3.8 7.5,9.7 9.7,15.7 0.5,-5.4 1,-10.3 -2.2,-15.2 1.6,2.7 3.8,5.9 5.4,8.6 0.5,-7 -0.6,-14 -2.7,-21 2.7,4.9 4.8,10.8 5.9,17.8 2.2,-8.6 1.1,-17.3 -3.2,-24.9"
       id="path2695"
       style="fill:none;stroke:#c5ba2b;stroke-width:1.079;stroke-opacity:1"
       inkscape:connector-curvature="0" />
    <path
       d="m 445,832.3 c 4.9,3.8 20.3,8.1 7.3,0.5 8.1,2.7 10.3,1.1 14.6,1.7 -2.2,-1.1 -4.3,-2.2 -5.9,-3.3 4.8,3.3 10.2,2.7 15,1.6 -3.2,-1 -5.9,-2.1 -9.1,-3.2 7,2.2 12.3,1.6 16.7,0 -3.2,-0.5 -6.5,-1.1 -9.7,-1.6 5.9,1.1 11.3,2.1 18.3,-0.6 -4.3,-0.5 -8.6,-1.6 -13,-2.7 4.9,1.1 10.3,1.7 15.7,1.7 -2.2,-4.9 -6,-6 -10.2,-4.9 2.7,0 5.4,0 8,0 0.6,-2.7 -0.5,-3.8 -4.3,-3.2 2.7,-0.6 4.9,-1.2 3.8,-4.4 -1.1,-0.5 -2.1,-0.5 -3.3,0 3.3,-7 1.7,-14 1.7,-21"
       id="path2697"
       style="fill:#ffff00;fill-opacity:1;fill-rule:evenodd;stroke:#c5ba2b;stroke-width:1.079;stroke-opacity:1"
       inkscape:connector-curvature="0" />
    <path
       d="m 431.6,741.5 c -2.7,3.8 -4.9,7.6 -5.4,12.5 -20,9.7 -27,27.5 -31.8,47 0,4.3 -2.1,5.4 -4.3,6.4"
       id="path2699"
       style="fill:#ffff00;fill-opacity:1;fill-rule:evenodd;stroke:#c5ba2b;stroke-width:1.079;stroke-opacity:1"
       inkscape:connector-curvature="0" />
    <path
       d="m 384.7,751.3 c 7,6.9 8.6,15.1 8.1,25.3 2.2,2.7 2.2,4.3 -0.5,3.8 -1.1,17.9 -2.2,17.9 -3.3,21.6 -1,1.7 -0.5,3.3 1.1,5.4 -4.8,-1 -5.4,-6.4 -5.4,-12.4 0.6,-2.1 1.1,-3.8 0.6,-6 1,-0.5 1.5,-1.5 0.5,-2.7 1.6,-0.5 0,-2.1 -0.5,-3.7 3.7,1.6 1,-2.7 -1.7,-8.1 2.7,2.1 3.8,2.1 3.2,0.5 2.2,0 1.7,-1.1 -1.5,-3.8 3.7,1.6 2.1,-2.1 -1.2,-8.1 7.6,3.8 2.2,-1 2.2,-2.2 0,-1 -0.5,-2.7 -2.2,-4.2 2.7,0.5 7.6,2.7 -1,-3.3 1,-0.6 1.6,-1.1 1.6,-2.1 z"
       id="path2701"
       style="fill:#ffff00;fill-opacity:1;fill-rule:evenodd;stroke:#c5ba2b;stroke-width:1.079;stroke-opacity:1"
       inkscape:connector-curvature="0" />
    <path
       d="m 489.5,791.2 c -8.1,0 -19.4,1.1 -32.8,3.8 -14.9,2.7 -24.6,-3.2 -28.9,-18.4 6.4,14.6 16.7,21.7 34.8,14.1 4.3,-1.7 17.2,0.5 26.9,0.5 z"
       id="path2703"
       style="fill:#c5bb2c;fill-opacity:1;fill-rule:evenodd"
       inkscape:connector-curvature="0" />
    <path
       d="m 522.3,777.2 c 5.4,5.9 7.6,11.8 10.3,20 -1.1,0.5 -3.8,-0.6 -8.1,-2.7 4.8,3.8 6.5,7.5 7,11.3 -2.2,0 -4.3,-2.1 -6.5,-3.8 2.7,4.4 4.9,9.2 6.5,13.6 -2.2,-1.2 -4.3,-3.3 -6.5,-4.9 2.7,3.7 4.9,8.1 5.4,11.9 -1.1,-1.1 -2.1,-2.8 -3.7,-4.3 1,3.7 2.1,7.5 2.6,10.8 -1.6,-0.6 -2.6,-2.7 -3.7,-4.4 2.7,8.1 1.1,14.6 -1.6,21.1 -1.1,0 -2.7,-1.1 -3.8,-1.6 4.3,4.9 5.4,8.6 8.6,23.8 -0.5,-6.5 -0.5,-13 -2.6,-19.5 2.1,-3.8 3.1,-9.2 3.1,-15.1 1.1,-0.6 2.7,-0.6 3.9,-0.6 -0.6,-2.1 -1.2,-4.3 -1.7,-6.4 1.7,0 2.7,0 3.8,0 -0.6,-1.1 -1.1,-2.7 -0.6,-3.8 1.1,-2.8 1.1,-6 -0.5,-9.7 0.5,-0.6 0.5,-1.2 1.1,-1.7 -1.1,-3.2 -1.6,-6.5 -2.7,-9.7 1.1,-0.5 2.7,1.1 3.2,1.6 0,-8.1 -3.8,-17.8 -13.5,-25.9 z"
       id="path2705"
       style="fill:#dbcc03;fill-opacity:1;fill-rule:evenodd"
       inkscape:connector-curvature="0" />
    <path
       d="m 518,748.5 c -0.5,5.5 -1,3.3 2.7,7.6 -3.7,-1.6 -4.2,0 1.1,8.1 -1.6,0 -1.1,1.6 0.5,3.8 8.1,9.2 14.1,18.3 20.5,28.1 11.9,10.3 20,27.6 24.3,48.6"
       id="path2707"
       style="fill:#ffff00;fill-opacity:1;fill-rule:evenodd;stroke:#cec216;stroke-width:1.079;stroke-opacity:1"
       inkscape:connector-curvature="0" />
    <path
       d="m 556.8,824.2 c 0,-1.6 0.6,-2.7 0.6,-3.2"
       id="path2709"
       style="fill:#fcef3c;fill-opacity:1;fill-rule:evenodd;stroke:#cbc455;stroke-width:1.079;stroke-opacity:1"
       inkscape:connector-curvature="0" />
    <path
       d="m 559,832.8 c 0.5,-2.1 1.1,-3.2 2.1,-4.3"
       id="path2711"
       style="fill:#fcef3c;fill-opacity:1;fill-rule:evenodd;stroke:#cbc455;stroke-width:1.079;stroke-opacity:1"
       inkscape:connector-curvature="0" />
    <path
       d="m 335.7,756.1 c 2.1,0 7.5,-3.8 9.7,-4.3"
       id="path2713"
       style="fill:#fcef3c;fill-opacity:1;fill-rule:evenodd;stroke:#c5ba2b;stroke-width:1.079;stroke-opacity:1"
       inkscape:connector-curvature="0" />
    <path
       d="m 354.6,744.2 c 1.6,-1.6 2.1,-3.8 2.6,-5.4"
       id="path2715"
       style="fill:#fcef3c;fill-opacity:1;fill-rule:evenodd;stroke:#c5ba2b;stroke-width:1.079;stroke-opacity:1"
       inkscape:connector-curvature="0" />
    <path
       d="m 359.9,747.4 c 0.6,-0.5 1.7,-1.6 2.7,-2.7"
       id="path2717"
       style="fill:#fcef3c;fill-opacity:1;fill-rule:evenodd;stroke:#c5ba2b;stroke-width:1.079;stroke-opacity:1"
       inkscape:connector-curvature="0" />
    <path
       d="m 361.6,735 c 1,2.2 1,4.3 0.5,6.5"
       id="path2719"
       style="fill:#fcef3c;fill-opacity:1;fill-rule:evenodd;stroke:#c5ba2b;stroke-width:1.079;stroke-opacity:1"
       inkscape:connector-curvature="0" />
    <path
       d="m 358.9,743.1 c 0,1.1 -0.6,2.2 -1.7,2.7"
       id="path2721"
       style="fill:#fcef3c;fill-opacity:1;fill-rule:evenodd;stroke:#c5ba2b;stroke-width:1.079;stroke-opacity:1"
       inkscape:connector-curvature="0" />
    <path
       d="m 362.1,756.7 c 3.2,0 6.5,0.5 10.2,1.5"
       id="path2723"
       style="fill:#fcef3c;fill-opacity:1;fill-rule:evenodd;stroke:#c5ba2b;stroke-width:1.079;stroke-opacity:1"
       inkscape:connector-curvature="0" />
    <path
       d="m 362.6,772.3 c -9.7,10.3 -16.7,22.2 -15.1,40"
       id="path2725"
       style="fill:#ffff00;fill-opacity:1;fill-rule:evenodd;stroke:#c5ba2b;stroke-width:1.079;stroke-opacity:1"
       inkscape:connector-curvature="0" />
    <path
       d="m 350.8,815.6 c 0,-2.2 0,-4.4 1.1,-6"
       id="path2727"
       style="fill:#fcef3c;fill-opacity:1;fill-rule:evenodd;stroke:#c5ba2b;stroke-width:1.079;stroke-opacity:1"
       inkscape:connector-curvature="0" />
    <path
       d="m 352.9,826.4 c 0.6,-3.3 1.7,-5.4 3.3,-6.6"
       id="path2729"
       style="fill:#fcef3c;fill-opacity:1;fill-rule:evenodd;stroke:#c5ba2b;stroke-width:1.079;stroke-opacity:1"
       inkscape:connector-curvature="0" />
    <path
       d="m 359.4,835.5 c 0,-2.1 0.5,-3.7 2.2,-5.4"
       id="path2731"
       style="fill:#fcef3c;fill-opacity:1;fill-rule:evenodd;stroke:#c5ba2b;stroke-width:1.079;stroke-opacity:1"
       inkscape:connector-curvature="0" />
    <path
       d="m 377.7,860.9 c -9.1,-10.3 -14,-13 -17.2,-25.9"
       id="path2733"
       style="fill:#ffff00;fill-opacity:1;fill-rule:evenodd;stroke:#c5ba2b;stroke-width:1.079;stroke-opacity:1"
       inkscape:connector-curvature="0" />
    <path
       d="m 385.8,856.1 c 0,-6.5 2.2,-9.2 3.8,-13"
       id="path2735"
       style="fill:#fcef3c;fill-opacity:1;fill-rule:evenodd;stroke:#c5ba2b;stroke-width:1.079;stroke-opacity:1"
       inkscape:connector-curvature="0" />
    <path
       d="M 391.2,851.2 C 394.4,840.4 402,832.8 403,825.3"
       id="path2737"
       style="fill:#fcef3c;fill-opacity:1;fill-rule:evenodd;stroke:#cec116;stroke-width:1.079;stroke-opacity:1"
       inkscape:connector-curvature="0" />
    <path
       d="m 445,837.7 c 6,1.1 12.7,3.2 19.2,2.7"
       id="path2739"
       style="fill:#fcef3c;fill-opacity:1;fill-rule:evenodd;stroke:#cec116;stroke-width:1.079;stroke-opacity:1"
       inkscape:connector-curvature="0" />
    <path
       d="m 459.9,838.8 c 5.4,0 10.8,0 16.1,0.5"
       id="path2741"
       style="fill:#fcef3c;fill-opacity:1;fill-rule:evenodd;stroke:#cec116;stroke-width:1.079;stroke-opacity:1"
       inkscape:connector-curvature="0" />
    <path
       d="m 471.7,837.7 c 3.8,0 7.5,-0.5 11.4,0.5"
       id="path2743"
       style="fill:#fcef3c;fill-opacity:1;fill-rule:evenodd;stroke:#cec116;stroke-width:1.079;stroke-opacity:1"
       inkscape:connector-curvature="0" />
    <path
       d="m 479.8,836.6 11.3,1.1"
       id="path2745"
       style="fill:#fcef3c;fill-opacity:1;fill-rule:evenodd;stroke:#cec116;stroke-width:1.079;stroke-opacity:1"
       inkscape:connector-curvature="0" />
    <path
       d="m 487.4,834.5 c 2.1,1 5.3,1 8.5,1.6"
       id="path2747"
       style="fill:#fcef3c;fill-opacity:1;fill-rule:evenodd;stroke:#cec116;stroke-width:1.079;stroke-opacity:1"
       inkscape:connector-curvature="0" />
    <path
       d="m 493.3,832.8 c 2.6,2.2 5.3,3.8 2.6,-4.8"
       id="path2749"
       style="fill:#ffff00;fill-opacity:1;fill-rule:evenodd;stroke:#cec116;stroke-width:1.079;stroke-opacity:1"
       inkscape:connector-curvature="0" />
    <path
       d="m 442.3,835 c -0.5,-4.9 -2.1,-8.6 -4.3,-13 1.6,1.7 2.7,3.3 4.3,5.4 0,-3.7 -0.5,-7.6 -1.6,-10.8 1.1,1.7 2.2,3.8 2.7,5.4 2.2,-3.2 1.6,-6.4 -0.5,-9.7"
       id="path2751"
       style="fill:#ffff00;fill-opacity:1;fill-rule:evenodd;stroke:#cec116;stroke-width:1.079;stroke-opacity:1"
       inkscape:connector-curvature="0" />
    <path
       d="m 398.7,922.5 c 4.3,-5.9 10.8,-7 18.3,-5.4"
       id="path2753"
       style="fill:#ffff00;fill-opacity:1;fill-rule:evenodd;stroke:#cbc455;stroke-width:1.079;stroke-opacity:1"
       inkscape:connector-curvature="0" />
    <path
       d="m 412.7,910.1 c -2.2,1.1 -3.2,3.8 -3.2,6.5"
       id="path2755"
       style="fill:#fcef3c;fill-opacity:1;fill-rule:evenodd;stroke:#cbc455;stroke-width:1.079;stroke-opacity:1"
       inkscape:connector-curvature="0" />
    <path
       d="m 415.9,911.7 c -1.6,0.6 -2.7,2.2 -3.7,4.9"
       id="path2757"
       style="fill:#fcef3c;fill-opacity:1;fill-rule:evenodd;stroke:#cbc455;stroke-width:1.079;stroke-opacity:1"
       inkscape:connector-curvature="0" />
    <path
       d="M 441.8,917.7 H 454"
       id="path2759"
       style="fill:#fcef3c;fill-opacity:1;fill-rule:evenodd;stroke:#cbc455;stroke-width:1.079;stroke-opacity:1"
       inkscape:connector-curvature="0" />
    <path
       d="m 445,917.7 c 2.7,-4.9 6,-8.1 9.5,-8.7 1.6,-12.9 -2.2,-22.7 -4.6,-32.9 -7,-12.5 -8.6,-22.7 -4.9,-30.9 0,-1 4.3,-0.5 10.6,0.6"
       id="path2761"
       style="fill:none;stroke:#cec116;stroke-width:1.079;stroke-opacity:1"
       inkscape:connector-curvature="0" />
    <path
       d="m 458.8,857.7 c -1.6,-3.2 -3.8,-5.9 -6.5,-8.6"
       id="path2763"
       style="fill:#fcef3c;fill-opacity:1;fill-rule:evenodd;stroke:#c5ba2b;stroke-width:1.079;stroke-opacity:1"
       inkscape:connector-curvature="0" />
    <path
       d="m 456.1,863.1 c -1.1,-2.7 -2.7,-5.4 -4.8,-7"
       id="path2765"
       style="fill:#fcef3c;fill-opacity:1;fill-rule:evenodd;stroke:#c5ba2b;stroke-width:1.079;stroke-opacity:1"
       inkscape:connector-curvature="0" />
    <path
       d="m 449.3,917.1 c 1.1,-1.6 2.5,-3.7 4.7,-4.8"
       id="path2767"
       style="fill:#fcef3c;fill-opacity:1;fill-rule:evenodd;stroke:#cbc455;stroke-width:1.079;stroke-opacity:1"
       inkscape:connector-curvature="0" />
    <path
       d="m 456.7,868 c 0,9.7 0.5,20 1,30.3 3.3,8.6 2.2,11.3 2.2,15.6 -3.8,1.1 -4.3,2.2 -4.9,3.2"
       id="path2769"
       style="fill:#ffff00;fill-opacity:1;fill-rule:evenodd;stroke:#c5ba2b;stroke-width:1.079;stroke-opacity:1"
       inkscape:connector-curvature="0" />
    <path
       d="m 425.1,865.3 c 0,9.7 -2.7,12.9 -4.3,29.1 -1.1,7.1 3.8,19.5 -2.7,22.2"
       id="path2771"
       style="fill:#ffff00;fill-opacity:1;fill-rule:evenodd;stroke:#c5ba2b;stroke-width:1.079;stroke-opacity:1"
       inkscape:connector-curvature="0" />
    <path
       d="m 506.2,911.7 c 4.3,-3.7 9.7,-11.9 15.6,-24.3"
       id="path2775"
       style="fill:#fcef3c;fill-opacity:1;fill-rule:evenodd;stroke:#cbc455;stroke-width:1.079;stroke-opacity:1"
       inkscape:connector-curvature="0" />
    <path
       d="m 512.1,911.7 c 5.4,-12.9 15.6,-21.6 21.1,-36.2 -3.9,-29.1 0,-25.9 1,-32.4 1.1,-4.3 1.1,-8.6 0.5,-13"
       id="path2777"
       style="fill:none;stroke:#cec216;stroke-width:1.079;stroke-opacity:1"
       inkscape:connector-curvature="0" />
    <path
       d="m 514.8,916.1 c 0.5,-6.5 2.2,-13 6.5,-18.4"
       id="path2779"
       style="fill:#fcef3c;fill-opacity:1;fill-rule:evenodd;stroke:#cbc455;stroke-width:1.079;stroke-opacity:1"
       inkscape:connector-curvature="0" />
    <path
       d="m 521.8,887.4 c 0,-3.8 -0.5,-7.5 1.1,-11.3 1.1,2.7 2.1,3.8 3.3,2.1 0.5,7.6 -1.2,9.8 -4.4,9.2 z"
       id="path2783"
       style="fill:#cec116;fill-opacity:1;fill-rule:evenodd;stroke:#cec216;stroke-width:0.58780003;stroke-opacity:1"
       inkscape:connector-curvature="0" />
    <path
       d="m 523.5,872.8 c 1.5,-4.3 3.7,-5.9 7.5,-5.4"
       id="path2785"
       style="fill:#ffff00;fill-opacity:1;fill-rule:evenodd;stroke:#cec116;stroke-width:1.079;stroke-opacity:1"
       inkscape:connector-curvature="0" />
    <path
       d="m 523.5,875.5 c 1.5,-2.7 4.8,-4.3 8,-3.2"
       id="path2787"
       style="fill:#ffff00;fill-opacity:1;fill-rule:evenodd;stroke:#cec116;stroke-width:1.079;stroke-opacity:1"
       inkscape:connector-curvature="0" />
    <path
       d="m 521.3,867.4 c -5.4,-11.9 -9.2,-23.2 -12.4,-34"
       id="path2789"
       style="fill:#fcef3c;fill-opacity:1;fill-rule:evenodd;stroke:#cec216;stroke-width:1.079;stroke-opacity:1"
       inkscape:connector-curvature="0" />
    <path
       d="m 496.5,794.5 c -1.6,17.2 1.1,31.9 9.7,43.7"
       id="path2791"
       style="fill:#ffff00;fill-opacity:1;fill-rule:evenodd;stroke:#cec216;stroke-width:1.079;stroke-opacity:1"
       inkscape:connector-curvature="0" />
    <path
       d="m 536.9,922.5 c 2.1,-1 4.8,-1.6 7,-2.1"
       id="path2793"
       style="fill:#fcef3c;fill-opacity:1;fill-rule:evenodd;stroke:#cbc455;stroke-width:1.079;stroke-opacity:1"
       inkscape:connector-curvature="0" />
    <path
       d="m 550.4,923.1 c 2.1,-3.8 4.8,-6.5 8.6,-8.1 0.5,-16.2 -0.6,-27 -2.2,-34.1"
       id="path2795"
       style="fill:#ffff00;fill-opacity:1;fill-rule:evenodd;stroke:#cbc455;stroke-width:1.079;stroke-opacity:1"
       inkscape:connector-curvature="0" />
    <path
       d="m 553.6,903.1 c -1.6,4.9 -4.3,9.7 -7.5,14 h 9.1"
       id="path2797"
       style="fill:#ffff00;fill-opacity:1;fill-rule:evenodd;stroke:#cec116;stroke-width:1.079;stroke-opacity:1"
       inkscape:connector-curvature="0" />
    <path
       d="m 535.8,790.7 c 3.2,7.6 4.9,15.1 4.9,22.2 -1.1,0 -2.2,-0.6 -3.3,-1.7 1.1,4.9 1.6,10.3 1.1,16.2 -0.5,-1.6 -1.1,-2.1 -1.6,-0.5 0.5,1.6 1.1,3.2 0.5,4.9"
       id="path2799"
       style="fill:#ffff00;fill-opacity:1;fill-rule:evenodd;stroke:#cec216;stroke-width:1.079;stroke-opacity:1"
       inkscape:connector-curvature="0" />
    <path
       d="m 556.3,877.2 c 0.5,-5.4 0,-10.9 -1.6,-15.7 -0.6,4.3 -1.1,8.1 -2.7,12.4 1.6,1.1 2.7,2.2 4.3,3.3 z"
       id="path2801"
       style="fill:#cec116;fill-opacity:1;fill-rule:evenodd"
       inkscape:connector-curvature="0" />
    <path
       d="m 556.8,880.9 c 1.1,1.1 2.2,1.7 3.3,2.7 0,3.3 -0.6,6.5 -1.1,9.8 -0.6,-3.8 -1.1,-8.1 -2.2,-12.5 z"
       id="path2803"
       style="fill:#fcef3c;fill-opacity:1;fill-rule:evenodd"
       inkscape:connector-curvature="0" />
    <path
       d="m 552,873.9 c -3.8,-4.3 -7,-13 -11.3,-18.4"
       id="path2805"
       style="fill:#fcef3c;fill-opacity:1;fill-rule:evenodd;stroke:#cec116;stroke-width:1.079;stroke-opacity:1"
       inkscape:connector-curvature="0" />
    <path
       d="m 554.7,860.9 c -4.9,-9.7 -7.6,-18.9 -8.6,-28.1"
       id="path2807"
       style="fill:#ffff00;fill-opacity:1;fill-rule:evenodd;stroke:#cec116;stroke-width:1.079;stroke-opacity:1"
       inkscape:connector-curvature="0" />
    <path
       d="m 540.7,855.5 c 0,-10.3 1.6,-18.9 4.3,-25.9 -2.2,3.8 -4.9,10.3 -8.6,21.6 1.6,1.6 2.6,2.7 4.3,4.3 z"
       id="path2809"
       style="fill:#cec116;fill-opacity:1;fill-rule:evenodd"
       inkscape:connector-curvature="0" />
    <path
       d="m 545.5,806.4 c 1.1,4.8 2.7,9.7 3.2,15.1 -0.5,-0.5 -1.6,-0.5 -2.6,-0.5 0,2.1 0.5,4.8 1,8.6 -0.5,-0.5 -1,-1.1 -2.1,-2.2 0.5,2.2 0.5,4.4 0.5,6 -1.1,1.1 -1.6,0.5 -2.7,0 2.2,-9.2 2.2,-18.4 2.7,-27 z"
       id="path2811"
       style="fill:#ffff00;fill-opacity:1;fill-rule:evenodd"
       inkscape:connector-curvature="0" />
    <path
       d="m 426.2,874.5 c 2.1,-3.8 3.2,-7.6 2.7,-11.4 3.2,-2.7 4.8,-5.9 5.3,-8.6"
       id="path2813"
       style="fill:#fcef3c;fill-opacity:1;fill-rule:evenodd;stroke:#c5ba2b;stroke-width:1.079;stroke-opacity:1"
       inkscape:connector-curvature="0" />
    <path
       d="m 434.2,855 c 4.9,-4.9 6,-10.3 6.5,-16.2 -1.6,0 -1.6,4.3 -2.7,6.4 -0.5,-4.8 -2.1,-8.6 -3.8,-11.8 1.1,7 1.1,14.5 0,21.6 z"
       id="path2815"
       style="fill:#cec116;fill-opacity:1;fill-rule:evenodd"
       inkscape:connector-curvature="0" />
    <path
       d="m 418.6,878.8 c -2.7,-6 -3.2,-13 -2.1,-22.7"
       id="path2817"
       style="fill:#fcef3c;fill-opacity:1;fill-rule:evenodd;stroke:#c5ba2b;stroke-width:1.079;stroke-opacity:1"
       inkscape:connector-curvature="0" />
    <path
       d="m 434.2,926.4 c -0.5,-3.3 1.7,-7.1 5.4,-9.8"
       id="path2819"
       style="fill:#ffff00;fill-opacity:1;fill-rule:evenodd;stroke:#666666;stroke-width:1.079"
       inkscape:connector-curvature="0" />
    <path
       d="m 395.5,925.2 c -0.5,-3.2 1.6,-7 5.9,-9.1"
       id="path2821"
       style="fill:#ffff00;fill-opacity:1;fill-rule:evenodd;stroke:#666666;stroke-width:1.079"
       inkscape:connector-curvature="0" />
    <path
       d="m 486.8,925.8 c 0.6,-3.8 4.3,-7 9.1,-9.7"
       id="path2823"
       style="fill:#ffff00;fill-opacity:1;fill-rule:evenodd;stroke:#666666;stroke-width:1.079;stroke-opacity:1"
       inkscape:connector-curvature="0" />
    <path
       d="m 532.6,925.2 c 1.6,-2.7 4.3,-5.9 8.6,-8.6"
       id="path2825"
       style="fill:#ffff00;fill-opacity:1;fill-rule:evenodd;stroke:#666666;stroke-width:1.079"
       inkscape:connector-curvature="0" />
    <path
       d="m 561.1,882.6 c -0.5,-3.8 -0.5,-7.6 0,-11.4 -1.6,-1.1 -2.7,-1.6 -3.2,-2.7"
       id="path2827"
       style="fill:#ffff00;fill-opacity:1;fill-rule:evenodd;stroke:#cec116;stroke-width:1.079;stroke-opacity:1"
       inkscape:connector-curvature="0" />
    <path
       d="m 391.7,850.1 c -0.5,1.7 0,2.2 1.1,1.7 2.7,-5.4 3.7,-8.7 9.7,-17.3 0,-1.7 0,-3.3 0,-4.9 -4.9,8.6 -9.2,15.6 -10.8,20.5 z"
       id="path2829"
       style="fill:#cec116;fill-opacity:1;fill-rule:evenodd;stroke:#c5ba2b;stroke-width:0.58780003;stroke-opacity:1"
       inkscape:connector-curvature="0" />
  </g>
  <g
     transform="translate(-324.26058,-726.36622)"
     id="layer4"
     style="display:inline" />
</svg>
