<?xml version="1.0" encoding="UTF-8" standalone="no"?>
<svg
   xmlns:dc="http://purl.org/dc/elements/1.1/"
   xmlns:cc="http://creativecommons.org/ns#"
   xmlns:rdf="http://www.w3.org/1999/02/22-rdf-syntax-ns#"
   xmlns:svg="http://www.w3.org/2000/svg"
   xmlns="http://www.w3.org/2000/svg"
   id="svg175"
   height="324"
   width="292.5"
   viewBox="36 63 292.5 324"
   version="1.1">
  <defs
     id="defs5">
    <clipPath
       id="artboard_clip_path">
      <path
         id="path2"
         d="M 36 63 L 328.5 63 L 328.5 387 L 36 387 Z" />
    </clipPath>
  </defs>
  <metadata
     id="metadata7"> Produced by OmniGraffle 7.8 
    <dc:date>2018-07-22 20:54:18 +0000</dc:date>
<dc:title>Traceable heraldic art http://heraldicart.org/credits.html</dc:title>
<rdf:RDF>
  <cc:Work
     rdf:about="">
    <dc:format>image/svg+xml</dc:format>
    <dc:type
       rdf:resource="http://purl.org/dc/dcmitype/StillImage" />
    <dc:title></dc:title>
  </cc:Work>
</rdf:RDF>
</metadata>
  <g
     fill="#ffff00"
     stroke-opacity="1"
     stroke="none"
     stroke-dasharray="none"
     fill-opacity="1"
     id="Camelopard,_Winged,_Segreant">
    <title
       id="title9">Camelopard, Winged, Segreant</title>
    <g
       id="Camelopard,_Winged,_Segreant: Layer 2">
      <title
         id="title11">Layer 2</title>
      <g
         id="Group_3">
        <g
           id="Graphic_56">
          <path
             id="path13"
             fill="#cccccc"
             d="M 137.88575 108.5172 C 142.26464 109.47885 136.61331 100.38896 130.84824 97.32247 C 128.71978 96.14447 126.48778 95.20536 125.83162 95.14795 C 125.17545 95.09054 124.24143 94.43028 123.72469 93.72389 C 122.99059 92.66788 123.01212 92.42181 124.07839 92.5151 C 125.96487 92.68015 126.7502 91.26118 125.64906 89.67716 C 124.47307 88.00395 119.07196 84.55606 117.66325 84.59812 C 117.08193 84.62991 115.85162 84.52227 114.79252 84.34696 C 113.15928 84.12142 113.09878 83.86818 113.95896 82.53841 C 115.76852 79.80402 114.51359 79.03304 108.39381 79.07617 C 105.24832 79.13157 102.29556 78.87324 101.90699 78.59129 C 101.44357 78.22016 102.45752 76.07735 104.45265 73.11125 C 108.3537 67.2539 108.71457 65.96309 106.10017 66.56085 C 105.00519 66.79564 102.47998 67.318555 100.37923 67.7133 C 98.27847 68.10805 95.91731 68.645315 94.9792 68.976484 C 93.62381 69.353795 93.55614 69.18258 94.50551 67.77796 C 96.02595 65.51417 95.88344 65.253755 93.58685 65.05283 C 89.56783 64.70121 85.75798 66.68206 81.38325 71.34089 C 78.55357 74.39927 76.516395 75.95666 75.3681 75.8562 C 72.743434 75.62657 70.19261 77.38697 56.09234 89.2945 C 43.69399 99.69795 42.966063 100.46075 42.700555 103.49553 C 42.542685 105.29998 42.616526 107.29001 42.798006 108.04973 C 43.310655 109.74755 46.17421 110.08073 48.525116 108.71608 C 50.35519 107.63646 50.35519 107.63646 48.869633 111.39098 C 44.85585 121.37091 43.29645 123.1354 40.508746 120.99059 C 38.565862 119.58088 36.22931 120.78148 36.01403 123.24211 C 35.79158 125.78475 38.254287 128.81027 40.55087 129.0112 C 42.765436 129.20494 49.18043 123.89813 49.374177 121.68356 C 49.46029 120.69931 49.867306 119.82579 50.306114 119.53358 C 50.737746 119.3234 51.901394 117.35899 52.83333 115.209 C 54.79358 110.75218 56.50267 109.16608 55.43439 112.87446 C 54.85924 114.72506 55.047895 115.40276 56.37049 116.34495 C 58.48459 117.687 59.52625 117.11694 61.30401 113.80123 C 63.2817 110.08977 69.11436 106.71557 73.05137 107.06001 C 74.773804 107.21071 76.4501 106.94412 76.73922 106.47352 C 77.11036 106.0101 78.34785 106.03572 79.63865 106.3966 C 80.92946 106.75747 82.16695 106.78309 82.53809 106.31967 C 83.66586 104.76536 85.97988 105.71165 89.00238 108.95144 C 96.94004 117.41487 100.09379 121.98852 111.0325 140.5497 C 112.39715 142.9006 117.15034 150.92014 121.46882 158.24045 C 127.94653 169.2209 136.25749 186.64306 136.06374 188.85762 C 135.85564 191.23623 123.7093 183.64431 118.748 178.00339 C 114.23577 172.89764 110.88418 171.52998 97.26563 169.42938 C 91.22479 168.57028 82.69153 166.91458 78.32699 165.7889 C 70.642644 163.87687 70.23254 163.841 66.81536 165.11235 C 64.85712 165.76752 61.5722 166.4719 59.574994 166.62777 C 57.57779 166.78363 54.121646 167.5557 51.97784 168.44256 C 49.841205 169.24742 46.6096 170.28707 44.83693 170.71052 C 43.153455 171.05913 41.694517 171.67532 41.658637 172.08543 C 41.40748 174.95616 48.94422 179.50003 55.00659 180.11306 C 59.100455 180.55388 63.83406 178.4059 64.98744 175.61411 C 66.03728 173.0612 68.869045 172.81306 72.2309 175.0081 C 74.345 176.35014 77.17267 177.09342 82.31846 177.79157 C 90.33498 178.74087 95.86525 180.71238 99.95403 184.04546 C 101.576 185.34444 104.10021 186.72236 105.7191 187.11194 C 107.9798 187.72297 109.89398 189.46077 114.15297 194.627 C 117.22162 198.28407 123.54448 205.3665 128.22792 210.40457 C 132.91854 215.36063 137.04219 220.18443 137.45538 221.1297 C 138.34943 223.1915 137.39596 225.58754 135.45925 225.99664 C 134.69954 226.17812 131.5643 227.0609 128.66795 228.04724 C 123.73852 229.59954 110.5773 232.66316 104.45343 233.69772 C 98.91806 234.61847 92.35438 237.84606 90.90162 240.28107 C 90.03426 241.69286 87.00466 245.147 84.01811 248.109 C 76.77473 255.32692 74.33362 258.66724 75.4563 260.0052 C 76.05506 260.71877 75.87257 261.85988 74.509 264.22005 C 73.52375 266.03477 72.22476 267.65674 71.62191 267.9346 C 70.93704 268.20527 70.28296 270.9581 69.6494 275.3657 C 68.82209 281.98787 68.8754 282.32313 70.57631 282.71988 C 71.792276 282.99156 73.42961 282.22568 75.56315 280.5114 C 77.25789 279.08936 79.16281 278.09894 79.79745 278.4024 C 80.98471 279.00217 82.18115 275.71825 82.65476 270.30487 C 82.89157 267.5982 82.57475 266.49603 81.18448 265.38262 C 79.56251 264.08363 79.57686 263.9196 81.01118 262.64005 C 82.52753 261.36768 82.60237 261.45688 84.06339 263.65092 C 86.97826 268.12102 89.71466 266.1289 91.9158 257.97397 C 93.48438 252.3258 95.1258 250.56848 99.20941 250.1819 C 100.87853 249.99734 103.9461 248.94334 106.11861 247.72839 C 109.9428 245.5835 110.18887 245.60503 119.86015 246.5338 C 125.26636 247.08943 134.07438 248.43858 139.42317 249.65037 C 151.10501 252.16008 152.82745 252.31077 152.92792 251.16248 C 152.97815 250.58833 153.906 249.42978 155.0512 248.62084 C 156.12156 247.7227 157.48104 246.35396 157.95573 245.65165 C 159.18705 243.85846 161.43749 243.6421 172.13608 244.16486 L 181.1799 244.70815 L 178.98587 246.16917 C 177.75864 246.97094 174.78336 248.8595 172.24688 250.45586 C 167.00271 253.71624 159.4159 262.97033 158.37223 267.34205 C 157.90063 268.95376 157.19014 270.46193 156.75133 270.75413 C 154.75721 271.8194 154.30721 279.79695 155.9477 286.55237 C 156.86945 290.1869 157.33496 293.36828 157.06737 293.5928 C 155.997 294.49096 146.83528 294.3506 140.06343 293.3449 C 133.38077 292.26435 133.04551 292.31766 131.3149 294.14982 C 130.3122 295.21918 128.23606 296.27727 126.65614 296.387 C 117.14071 297.45542 111.39724 300.75477 107.082 307.56767 C 105.63641 309.92066 105.61488 310.16672 106.91595 311.355 C 107.90329 312.3505 109.93228 312.77596 114.30092 312.91022 C 120.98049 313.08136 123.30986 311.96278 125.70892 307.21375 C 126.41941 305.7056 127.87526 304.17998 128.81337 303.8488 C 130.26513 303.31463 130.8926 303.70012 132.44281 305.81932 C 133.84334 307.76012 134.9414 308.43473 136.76021 308.42856 C 142.94048 308.63867 151.21024 309.52747 156.08126 310.53217 C 162.9741 312.04435 166.43024 311.2723 169.57775 307.41523 C 172.80727 303.56534 173.63257 300.74484 172.6001 297.4312 C 170.8448 291.98813 170.97496 288.61092 172.98444 285.48078 C 173.95534 283.8301 175.7895 281.75906 176.94189 280.8681 C 178.97906 279.3107 191.25241 276.0041 197.16918 275.4473 L 200.247 275.2207 L 199.03313 277.75925 C 198.41184 279.19258 197.61933 280.69356 197.33021 281.16416 C 196.96625 281.54556 195.60577 284.81513 194.30578 288.33794 C 192.17022 293.85386 191.8196 295.97205 191.53365 303.96396 L 191.2149 313.27537 L 194.33995 318.1771 C 200.21582 327.5346 200.91403 329.0007 200.9797 332.9736 C 200.93155 336.35797 200.49582 337.55958 197.57285 341.68423 C 195.68846 344.32942 194.16085 346.67523 194.13214 347.0033 C 194.03168 348.1516 186.51662 356.5855 181.95323 360.5666 C 179.08458 363.1257 177.05767 365.51048 177.14995 366.34504 C 177.27711 368.67033 175.71771 370.4348 172.28618 371.8702 C 169.11507 373.1631 162.31767 380.0068 162.13827 382.0573 C 161.94452 384.2719 163.92329 385.2715 169.1798 385.64872 C 175.74865 386.14077 178.76598 385.6609 178.98434 384.1097 C 179.12377 383.4607 179.40672 381.1713 179.60047 378.95673 L 180.10895 375.0341 L 182.45476 376.5617 C 185.8238 378.6747 186.24825 378.54656 187.9409 374.31426 C 190.04776 369.12642 193.37466 363.21884 194.66955 362.5883 C 196.49245 361.5907 204.27102 353.9237 207.52207 349.82776 C 213.5495 342.33817 215.4964 336.14455 213.37712 331.08286 C 212.55791 329.11027 212.16008 326.1001 211.69967 320.02648 C 211.67505 319.36314 211.62683 316.13562 211.5786 312.9081 L 211.52113 306.95237 L 215.3822 302.49654 C 217.5875 299.96208 220.51357 296.74683 221.96224 295.30325 C 223.41092 293.85966 224.87395 292.25204 225.2379 291.87064 C 225.60905 291.4072 227.78565 289.20083 230.05145 286.9196 C 232.32442 284.55635 234.73683 281.5441 235.44014 280.11797 C 236.32902 278.4601 237.221 277.71166 237.93765 278.0223 C 238.49027 278.3186 242.04178 279.2905 245.7645 280.19475 C 256.3729 282.6932 260.83482 281.76117 267.79935 275.84125 C 275.74504 269.09802 278.08668 265.00516 279.4471 255.1237 C 280.54608 247.28556 280.4856 247.03232 278.26277 242.20952 C 272.36738 229.29644 271.5164 226.74253 271.462 221.6962 C 271.4322 217.31321 271.77156 216.26847 273.3166 214.66802 C 274.85448 213.1496 275.45015 212.95376 276.6159 213.7996 C 277.62475 214.54904 277.97336 216.23252 277.94982 220.28024 C 277.93755 223.25452 278.26054 226.17548 278.78446 226.79986 C 279.30837 227.42424 281.95048 228.39923 284.7033 229.05332 C 291.99907 230.6834 292.9577 232.007 291.79514 238.68248 C 290.99036 243.15775 291.1216 244.4916 292.36118 247.32746 C 294.23848 251.3762 296.27773 252.62904 295.7302 249.4405 C 295.5241 248.01743 295.87064 246.89066 296.84463 246.1494 C 297.56538 245.4686 298.0257 244.93034 297.77965 244.9088 C 297.5336 244.8873 298.52602 242.99054 299.87524 240.79442 C 301.31365 238.52346 302.70284 234.9258 303.1283 232.8968 C 303.75777 229.48064 303.5691 228.80294 301.12793 225.53136 C 299.6454 223.58339 298.7298 221.76766 299.16144 221.55748 C 299.6751 221.35447 300.38458 221.74714 300.9013 222.45354 C 303.6952 226.41716 305.32736 221.93163 303.47977 215.65398 C 302.25864 211.66266 300.79353 210.46005 296.6925 210.10125 C 291.6892 209.66352 290.24046 204.4952 295.1904 204.59767 C 297.6654 204.6489 298.12982 203.11921 295.89064 202.26212 C 291.24107 200.6156 288.641 201.04932 283.62856 204.49528 C 279.8505 207.05744 278.22752 207.6593 276.69065 207.27688 C 273.63127 206.34803 267.7453 209.38697 265.6179 212.92004 C 262.1198 218.8953 263.00875 223.84934 270.57434 241.28893 C 271.26538 242.83706 271.8129 246.0256 271.94006 248.3509 C 272.0416 251.91368 271.5987 253.1973 269.28576 256.9621 C 265.43085 263.23673 261.16785 265.67382 255.0983 265.1428 C 252.55566 264.92035 248.50485 263.9874 246.10163 263.11596 C 241.21317 261.3659 240.5324 260.64515 232.64697 247.8059 C 229.88897 243.43218 222.70076 233.95988 216.5563 226.72777 C 206.15285 214.32942 205.56844 213.4518 207.1381 212.5147 C 208.01572 211.93029 209.53515 211.56733 210.5194 211.65344 C 211.50365 211.73955 212.94106 211.36941 213.8115 210.86703 C 215.29914 209.92275 215.3135 209.7587 213.09993 207.66412 C 211.19293 205.8443 207.98687 199.03457 209.13516 199.13503 C 209.2992 199.14938 210.77866 200.18795 212.31862 201.47976 C 215.09915 203.7066 219.63082 205.75604 223.69598 206.52494 C 227.836 207.38304 240.55533 203.7022 240.73472 201.65169 C 240.78496 201.07754 239.49106 199.80726 237.91523 198.92555 C 234.99527 197.3477 224.38063 186.41856 225.857 186.54772 C 226.2671 186.5836 228.90204 187.64062 231.84353 188.9724 C 234.703 190.297 238.32217 191.44013 239.8129 191.40525 C 242.94405 191.5139 249.23604 189.50226 249.32933 188.436 C 249.35803 188.1079 249.87886 187.82288 250.453 187.8731 C 252.0114 188.00945 255.79355 184.45586 254.85953 183.7956 C 254.38893 183.50648 253.5759 183.3527 252.8982 183.54136 C 251.62484 183.92585 247.30744 181.3166 240.0957 175.89204 C 236.22428 172.90857 235.85006 172.4626 237.87188 172.97007 C 239.2447 173.33812 242.75316 174.80216 245.68747 176.21596 C 255.19988 180.85002 261.8692 180.19378 271.687 173.77965 C 275.7183 171.15699 278.2517 168.65122 278.4844 166.93596 C 278.5203 166.52586 277.1331 166.32184 275.38196 166.49923 C 271.05947 166.78225 261.84543 164.4058 257.5352 161.71455 C 255.5708 160.5509 251.67068 157.89552 248.8758 155.83273 C 244.53379 152.56015 240.44092 150.2185 233.52756 147.05155 C 232.33312 146.5338 233.1964 146.11344 237.21233 145.55565 C 242.07 144.82356 242.8902 144.89532 247.8607 146.65256 C 264.77242 152.67782 274.2397 154.99378 277.96343 153.99718 C 284.21237 152.47768 299.63215 140.60294 298.87035 137.97419 C 298.55353 136.87204 298.14343 136.83616 295.0902 137.72612 C 290.332 139.21075 277.4947 136.6826 268.2673 132.56936 C 257.53175 127.74563 257.29287 127.64208 245.3844 122.05455 C 239.1877 119.19825 233.89323 116.42088 233.6082 115.90005 C 232.9028 114.51596 247.72297 117.05228 254.12677 119.43081 C 270.7709 125.68061 275.38152 126.82782 288.10193 127.85807 C 299.26395 128.75197 300.75467 128.7171 304.10418 127.27451 C 307.79612 125.6966 310.57558 123.21236 313.9876 118.22136 C 314.94414 116.73472 316.73934 114.16437 317.9563 112.53522 C 320.87927 108.41057 322.25102 104.06755 320.66084 103.34989 C 320.0262 103.04642 315.69244 104.40289 311.0624 106.31197 C 300.17212 110.81401 293.73453 111.65582 279.29885 110.39286 C 265.7654 109.20884 253.7524 105.76103 241.81215 99.59217 L 233.90427 95.51173 L 241.25745 96.48564 C 245.34414 97.00848 251.69154 98.14234 255.4963 99.05376 C 262.71004 100.67666 268.23414 100.82936 278.58412 99.66865 C 287.8463 98.66072 304.82248 90.72399 314.41985 83.05084 C 318.60492 79.61514 324.85996 73.30255 326.49112 70.71785 C 327.92236 68.5289 329.02343 63.50101 328.2391 63.01915 C 327.92537 62.826405 323.6808 64.10803 318.72267 65.98841 C 313.7717 67.78677 305.9531 70.24338 301.30562 71.407105 C 266.0019 80.054545 264.422 80.16427 213.71873 75.8936 L 175.56467 72.72085 L 167.54306 74.66381 C 156.81785 77.27937 153.982 78.51894 151.57676 81.44916 C 149.07516 84.53625 147.43073 91.99606 148.5524 95.23484 C 151.31557 103.32821 159.11997 114.25945 171.39555 126.98688 C 182.3024 138.35484 186.57574 143.35704 187.75481 145.93966 C 188.43868 147.56981 188.14239 148.12243 185.92682 149.82951 C 184.50685 150.94501 179.5805 153.40672 175.03964 155.24096 C 170.49879 157.0752 166.78532 158.89918 166.75661 159.22726 C 166.72073 159.63737 166.37112 159.85473 166.04304 159.82602 C 164.97677 159.73274 163.00001 154.93146 163.17941 152.88094 C 163.26552 151.8967 162.7457 150.28089 162.07927 149.3961 C 161.11346 148.15452 161.08167 147.5732 161.88444 146.89959 C 162.50882 146.37568 162.99786 145.50933 163.05526 144.85316 C 163.23466 142.80264 160.35876 138.83184 158.1124 138.05677 C 156.02292 137.37807 154.81823 136.03294 154.85102 134.71343 C 154.87255 134.46737 155.98187 134.06853 157.40493 133.86244 C 160.66833 133.4041 160.71547 131.92056 157.8652 126.71227 C 155.36043 122.27805 152.59734 120.79658 147.84322 121.28978 C 146.1741 121.47435 145.28622 121.23137 145.10474 120.47165 C 144.58491 118.85585 145.45535 118.35346 147.998 118.57591 C 151.1148 118.8486 151.50746 118.13911 149.92545 115.4386 C 147.84106 111.86764 143.5698 109.67568 139.24731 109.9587 C 137.09324 110.01819 135.46 109.79265 135.18214 109.1898 C 134.76178 108.32654 135.85675 108.09174 137.88575 108.5172 Z" />
        </g>
        <g
           id="Graphic_55">
          <path
             id="path16"
             d="M 325.4761 68.14958 L 325.4761 68.14958 C 326.52592 65.59667 324.5287 65.752535 317.34475 68.512616 C 314.17364 69.805504 306.3694 72.09807 299.9564 73.60323 C 293.62544 75.11556 287.53336 76.731435 286.32766 77.28714 C 283.15655 78.58003 278.0528 79.29059 265.40624 80.25038 C 255.34537 80.94049 250.23855 80.74165 216.01432 77.99536 C 175.0572 74.74267 174.06577 74.73858 162.10615 78.23793 C 154.13785 80.516145 152.05762 82.56566 150.81303 89.23397 C 149.95802 94.28338 149.99699 94.78268 152.29157 98.78527 C 157.3544 107.98898 162.61099 114.97811 169.66486 122.20714 C 181.11715 133.95342 188.616 142.70905 189.467 145.26297 C 190.74861 149.50753 189.018 151.33969 179.39393 155.53926 C 174.5783 157.68006 170.37988 159.37896 170.13382 159.35743 C 169.88058 159.41793 168.13253 160.50472 166.1989 161.82323 C 163.28411 163.96503 162.9058 164.51047 163.59684 166.0586 C 165.52028 170.52462 162.83928 175.66222 157.82783 177.20735 C 155.69837 177.93018 154.96736 177.78357 153.1065 176.38104 C 149.69133 173.85074 148.34103 171.33579 148.62089 168.13698 C 149.04427 163.29774 154.70572 159.99122 159.50498 161.81612 C 161.10234 162.45177 162.17579 162.46303 162.97856 161.78943 C 163.95972 160.96613 162.98674 159.80658 157.83578 155.38879 C 150.99518 149.5008 148.74266 146.90692 139.54799 134.86226 C 130.27848 122.72842 130.12879 122.55002 128.70473 124.65695 C 128.32641 125.20239 127.00999 126.079 125.89348 126.55986 C 122.89359 127.78508 117.06393 125.45678 116.00276 122.47124 C 114.53556 118.45839 115.89296 114.27941 119.39625 112.0238 L 121.59029 110.56278 L 116.86479 104.116 C 109.48793 93.96601 103.52186 86.5842 102.70165 86.51244 C 102.29155 86.47656 102.17365 86.87949 102.38383 87.31113 C 103.36708 89.29807 101.30737 93.00236 98.37514 94.39879 C 94.99693 96.16945 91.7448 95.55434 89.18572 92.68569 C 85.7285 88.74668 87.27556 83.34456 92.57613 81.32884 L 95.57602 80.10362 L 92.04913 79.79506 C 90.16265 79.630015 87.83018 79.83919 86.87772 80.33441 C 84.63036 81.46017 83.74658 80.22576 85.62688 78.572 C 86.69725 77.67386 89.04406 77.30064 93.08461 77.40619 L 98.94397 77.50558 L 101.74904 73.78385 C 103.24795 71.76612 104.3224 69.87656 104.09787 69.60897 C 103.87333 69.34138 101.62289 69.55773 99.09768 70.08064 C 93.71918 71.09776 84.61902 75.92171 81.94621 79.07647 C 79.92647 81.37922 78.12919 81.13933 79.17902 78.58642 C 80.00741 76.67533 79.92539 76.66815 74.467955 78.5875 C 71.23635 79.62715 68.32873 81.68693 64.100605 85.61475 C 56.9823 92.34771 55.20554 93.76259 53.51489 94.19322 C 49.798335 95.10779 42.81336 105.98486 44.91311 107.49094 C 45.219667 107.7657 47.2671 107.0357 49.357594 105.81356 C 56.12837 102.1082 58.89864 103.50765 58.056975 110.29385 C 57.8417 112.75448 57.908364 114.82653 58.31847 114.86241 C 58.72857 114.89829 59.10689 114.35284 59.178646 113.53264 C 59.336516 111.72818 63.44366 107.29388 65.387545 106.80276 C 66.64656 106.58231 67.05358 105.70879 67.22989 102.74886 C 67.420555 99.62489 67.91677 98.67652 69.94677 97.20115 C 73.21117 94.84199 76.22133 94.44415 78.641985 96.06096 C 80.44235 97.21026 82.84766 100.89194 83.45259 103.42432 C 83.8299 104.77971 86.595 102.45952 86.74569 100.73708 C 86.82463 99.83485 87.45618 99.22892 88.19437 99.2935 C 89.26064 99.38678 89.37445 99.97528 88.79212 101.9079 C 88.40972 103.44477 88.43742 105.01752 88.87214 105.71674 C 89.61341 106.69073 90.04504 106.48055 91.44758 104.61969 C 94.82371 100.03879 102.86175 100.74203 104.899 105.79653 C 106.60508 109.91293 105.8331 113.06869 102.36877 115.8236 L 99.33608 118.36833 L 101.47788 121.28312 C 103.54484 124.10872 113.79968 141.03975 118.66669 149.64777 C 125.67858 162.08 124.84811 161.18085 129.60532 161.59706 C 133.29626 161.91997 134.2518 162.33417 135.96606 164.46771 C 138.42877 167.49323 138.30478 172.68925 135.75703 175.35905 C 134.11561 177.11637 134.10126 177.2804 136.95362 185.29893 C 138.45978 189.81109 139.75576 193.8916 139.7127 194.38373 C 139.66965 194.87586 140.739 195.87855 142.0011 196.5675 C 146.10832 198.74511 147.83392 206.41712 145.27082 211.1518 C 144.56751 212.57794 142.61444 216.95275 140.94331 220.93898 C 138.0901 228.04508 137.98655 228.28397 139.17997 230.70255 C 139.88537 232.08664 140.32626 234.60467 140.18274 236.2451 C 139.96746 238.70572 139.38923 239.6469 137.03115 241.09358 C 133.61706 243.27435 131.38814 243.24464 128.17598 241.228 C 125.83017 239.70038 125.28164 238.41266 125.3267 234.11887 C 125.36667 232.71734 125.39229 231.47985 125.31027 231.47267 C 124.73612 231.42244 106.53883 235.36785 101.80214 236.6064 C 96.0525 238.08695 94.83962 238.72468 92.78401 241.43754 C 90.73557 244.06838 83.16719 252.167 81.66519 253.27532 C 79.18921 255.1249 77.17256 258.33708 77.446325 259.93135 C 77.76623 261.9429 75.21339 267.50497 73.37614 268.6666 C 72.766115 269.0265 71.77677 271.83263 71.2652 274.84588 C 70.00626 281.67822 70.87978 282.08524 76.61708 276.96708 C 79.92454 274.1158 80.77754 272.86804 80.99999 270.3254 C 81.16504 268.43892 80.8554 267.25475 80.28125 267.2045 C 77.8278 266.90722 77.190075 265.69434 78.41113 263.07376 C 80.26783 258.85582 84.6262 258.1627 85.45158 261.9541 C 86.28413 265.66348 88.98874 263.09005 90.14722 257.406 C 90.7121 254.728 91.83679 252.2643 93.48538 250.42496 C 95.59432 248.04736 96.5396 247.63417 99.16427 247.8638 L 102.37026 248.06164 L 103.214 244.08567 C 104.13668 239.20747 106.61984 237.27585 111.13099 237.67053 C 114.24778 237.9432 115.01059 238.67114 117.65068 243.4478 C 118.22792 244.40743 120.98075 245.06152 129.96716 246.26097 L 141.5639 247.8541 L 141.68689 244.5589 C 141.94214 240.69675 143.8655 238.55086 147.91732 237.58297 C 151.20942 236.79656 154.15808 238.04631 155.74009 240.74683 C 156.39216 241.79567 157.24416 242.44875 157.765 242.16372 C 159.2311 241.4655 161.28363 237.84323 162.24119 234.45576 C 162.72714 232.68 163.57297 231.51428 164.22914 231.57168 C 164.8853 231.6291 165.42766 231.098 165.48507 230.44183 C 165.7147 227.81717 169.80648 225.44774 173.33338 225.7563 C 180.96132 226.42367 183.3667 236.71725 176.84198 240.44414 C 175.18313 241.4561 175.18313 241.4561 176.85533 242.18093 C 178.04977 242.69868 179.14474 242.46388 180.56471 241.34838 C 185.00302 237.8522 190.80807 239.51715 192.57772 244.7962 C 192.95503 246.15158 194.51243 248.18876 195.97754 249.39137 C 197.44265 250.59398 199.5988 253.34473 200.80658 255.59927 C 202.01436 257.8538 203.25802 259.69823 203.66813 259.7341 C 203.98904 259.84483 204.34991 258.55403 204.48626 256.99563 C 204.65848 255.02713 204.3273 254.08902 203.58912 254.02444 C 201.45658 253.83786 199.35474 249.52154 199.65613 246.07666 C 200.04363 241.64754 203.15834 239.10998 207.6695 239.50466 C 212.26266 239.9065 214.8074 242.9392 214.40554 247.53237 C 214.16873 250.23906 213.56897 251.4263 211.51744 253.14775 C 210.0903 254.34527 208.27457 255.26085 207.6184 255.20344 C 206.63415 255.11733 206.22714 255.99085 205.88678 258.93643 C 205.611 261.14382 205.18146 264.16424 204.9631 265.71546 C 204.50894 268.07254 204.8401 269.01065 207.05366 271.10523 C 209.3349 273.37103 209.5984 274.13792 209.297 277.5828 C 208.85928 282.58607 206.2654 284.8386 201.2406 284.64693 C 198.02743 284.5311 197.67782 284.74847 196.26402 287.68278 C 194.25763 291.72232 192.78757 306.63577 193.93694 311.4473 C 194.35322 313.302 196.09518 317.0083 197.76638 319.63396 C 201.84289 325.9413 203.05375 329.10525 203.08353 333.48824 C 203.12358 338.6986 201.027 344.71384 199.22253 344.55597 C 198.40232 344.4842 197.4355 345.14346 197.1105 346.02416 C 196.06067 348.57707 190.2547 355.42485 185.58777 359.64487 C 180.28928 364.47083 179.25788 365.86827 178.97085 369.1491 C 178.7771 371.36367 178.23474 371.89476 174.6607 373.06975 C 169.55287 374.77174 162.91234 381.7118 165.01927 383.13586 C 165.72157 383.61055 168.41391 384.0114 170.97809 383.9878 C 176.19563 383.8657 177.96522 382.53286 178.05642 378.65635 C 178.12301 374.1165 178.52286 373.325 180.49136 373.4972 C 181.55763 373.5905 182.75206 374.10824 183.20113 374.64342 C 184.4735 376.15977 185.72943 375.0299 187.42208 370.79763 C 189.54329 365.44575 190.38911 364.28 196.32633 358.7661 C 203.34109 352.27203 210.1036 343.9376 211.06116 340.55014 C 212.15814 336.5137 212.09866 334.3596 210.8006 327.46885 C 210.1854 324.1091 209.6645 317.7822 209.7844 313.5776 C 209.9094 306.48077 210.04884 305.83177 211.96503 303.7679 C 213.05692 302.6237 216.26491 299.01988 219.10895 295.79745 C 222.035 292.5822 226.52046 287.60247 229.16458 284.7758 C 231.81586 281.8671 234.24262 278.69082 234.5748 277.7281 C 235.34986 275.48174 237.6003 275.2654 242.81685 277.04416 C 248.51117 279.03002 249.9127 279.07 249.42158 277.1261 C 248.95198 274.93615 251.52225 270.11945 253.66606 269.23258 C 256.67314 267.92534 259.66485 268.68297 261.82818 271.3517 C 262.95086 272.68965 264.04483 274.3557 264.3155 275.04056 C 264.56465 275.9715 265.59913 275.48345 268.2894 273.07406 C 273.13472 268.70435 275.86903 263.902 277.4776 256.8523 C 278.7714 251.51068 278.70065 250.43005 277.4549 245.7754 C 276.6326 242.8934 275.5499 240.1539 275.10084 239.61873 C 274.56257 239.1584 272.9703 235.6305 271.5636 231.87088 C 269.71193 226.58466 269.20337 223.8954 269.4904 220.61457 C 270.13623 213.2327 274.04346 209.19415 278.01842 211.93873 C 279.03446 212.60616 281.288 213.2992 283.08527 213.5391 C 285.61357 213.9256 286.78647 214.6894 288.4187 216.81577 C 290.5677 219.64854 290.6169 220.97523 288.6423 225.5961 C 288.11022 226.95457 288.39525 227.4754 290.20997 228.46065 C 294.00346 230.44551 295.2533 234.10875 294.0661 240.1209 C 293.46534 243.20898 293.3608 245.3487 293.8529 245.39176 C 294.91918 245.48504 299.095 239.32113 300.49853 235.55944 C 302.1307 231.0739 301.17307 227.84948 296.98484 223.76386 C 295.15985 221.95122 293.67013 220.08527 293.7132 219.59314 C 293.75624 219.10102 295.4182 218.99847 297.8573 219.4598 C 301.5267 220.0288 301.95115 219.90063 302.0875 218.34223 C 302.30277 215.8816 301.51844 215.39974 299.43513 216.53985 C 294.90453 219.20148 289.87765 216.19957 290.32973 211.03226 C 290.43737 209.80194 289.84987 208.01492 288.94456 207.02658 L 287.4405 205.32467 L 289.35976 204.1702 C 290.4906 203.5253 290.95095 202.98704 290.29478 202.92963 C 289.72063 202.8794 287.1985 204.31171 284.72253 206.1613 C 281.1977 208.66299 279.47836 209.4217 277.34582 209.23512 C 273.90094 208.93374 269.153 211.24575 267.32908 214.14418 C 264.07394 219.23156 265.1977 225.28058 271.90203 239.33887 C 272.74993 240.98338 273.67886 244.5359 274.02338 247.2108 L 274.59143 252.0541 L 270.93644 257.933 C 267.9704 262.54977 266.4182 264.23224 263.66436 265.479 C 257.9783 268.12217 255.01837 267.94586 244.16083 264.5165 C 242.5563 263.96287 241.9606 264.1587 241.3465 265.51 C 240.92513 266.54757 239.53386 267.33498 237.59715 267.74408 C 233.06038 268.5869 232.00846 268.32957 229.83796 265.74286 C 227.1507 262.44976 227.58127 257.5285 230.81388 254.58802 C 233.133 252.64205 233.14735 252.478 232.0144 250.31267 C 231.09166 248.57897 230.2253 248.08993 227.27256 247.8316 C 221.203 247.30058 218.11693 242.89815 220.1561 237.5391 C 220.99885 235.46396 220.81737 234.70424 219.04262 232.31746 C 216.51942 229.0387 215.0574 228.7455 213.77584 231.11284 C 212.30155 233.7939 209.07712 234.75154 205.30107 233.51204 C 201.1221 232.15464 199.44372 229.611 199.83122 225.18186 C 200.08237 222.31113 200.58576 221.28074 202.42302 220.1191 C 203.65024 219.31733 205.03434 218.61194 205.63 218.4161 C 207.06025 218.128 203.3149 212.75875 201.51045 212.60088 C 198.7361 212.19286 194.27618 209.3232 192.20922 206.4976 L 190.2243 203.6792 L 189.91264 206.29669 C 189.74042 208.2652 190.08594 209.03926 190.98817 209.1182 C 191.64434 209.1756 193.27349 210.39256 194.471 211.8197 C 196.11042 213.86406 196.56975 215.22663 196.36165 217.60523 C 195.97824 221.04293 194.93967 222.5224 191.64348 224.30023 C 188.8753 225.71102 183.63005 224.26034 181.80916 221.45627 C 179.89907 218.72705 180.58286 213.7453 183.20544 211.1647 L 185.3677 209.12235 L 181.39782 203.48552 C 178.971 200.0499 177.49254 197.1105 177.60018 195.88018 C 177.83698 193.1735 179.13496 193.45235 179.46513 196.2913 C 179.83117 198.72013 185.80033 207.01134 187.35873 207.14768 C 187.76883 207.18356 188.3081 205.74306 188.46597 203.9386 C 188.8463 199.5915 190.15145 199.78833 193.67943 204.80797 C 197.36427 209.92397 200.62666 211.36648 206.57214 210.4816 C 211.3478 209.74234 211.88297 209.29327 210.13283 207.56983 C 209.51972 207.0203 208.67899 205.29377 208.31603 203.77434 C 207.87105 202.24773 206.13935 199.36882 204.41792 197.3173 C 198.6087 190.03186 203.70427 191.30416 214.28095 199.83317 C 219.52827 204.0941 224.21373 205.3305 230.53751 203.9002 C 237.3606 202.43092 237.99933 201.74297 234.97274 199.4946 C 233.56812 198.54523 230.14987 195.10552 227.37343 191.88726 C 224.59699 188.669 221.83798 186.1961 221.24949 186.30992 C 219.8941 186.68723 217.17815 183.7222 217.9276 182.71334 C 218.68423 181.62246 225.36998 183.61241 230.90334 186.49333 C 237.14618 189.76691 241.82137 190.17594 246.65134 187.8711 L 250.43966 186.13632 L 242.45794 180.06584 C 238.04109 176.70407 233.50633 173.74522 232.30472 173.3095 C 228.67836 172.2484 229.8133 170.61206 234.21782 170.33622 C 237.53453 170.21315 238.9822 170.6704 244.0378 173.34422 C 252.00616 177.6779 258.79237 178.51957 264.5748 175.71952 C 268.10988 174.04523 276.43288 168.6574 275.6947 168.59281 C 275.61267 168.58564 272.92033 168.18479 269.73587 167.74089 C 262.46472 166.77415 256.57457 164.19261 250.6321 159.37498 C 245.30276 155.10688 235.63757 149.38502 233.25896 149.17692 C 231.53652 149.02622 228.27105 146.67431 229.05946 146.16475 C 232.04192 144.19417 235.25918 143.31856 239.14286 143.32774 C 243.6007 143.38716 245.13756 143.76956 267.4801 151.0138 C 274.06948 153.16062 276.73003 152.98014 282.10954 150.06219 C 286.18697 147.85681 294.7673 141.41706 294.84623 140.51483 C 294.86776 140.26876 290.78824 139.6639 285.79215 139.14416 C 278.26058 138.31993 275.35088 137.56947 268.9686 134.94488 C 264.7435 133.1702 260.60757 131.32068 259.74122 130.83164 C 258.87487 130.3426 253.8726 128.00404 248.62427 125.64395 C 243.37594 123.28386 236.2237 120.01336 232.7224 118.46731 C 229.22113 116.92126 226.47239 115.27575 226.5831 114.95484 C 226.92964 113.82807 230.50676 113.56249 237.64976 114.10477 C 244.70355 114.7219 249.63507 115.97984 269.14276 122.56281 C 278.8592 125.8097 280.9702 126.24234 289.03695 126.6175 C 299.32544 127.10438 304.22617 125.88016 308.20106 122.01283 C 311.284 118.89396 319.65714 106.32008 319.05838 105.6065 C 318.75182 105.33174 317.48563 105.6342 316.19073 106.26475 C 313.33335 107.75039 305.72493 110.63863 301.07026 111.88437 C 296.4156 113.13011 289.55046 113.19068 277.9035 112.1717 C 264.69813 111.01639 254.953 108.09758 238.6841 100.39293 C 233.52495 97.958 228.58318 95.87268 227.59893 95.78657 C 226.61468 95.70046 226.0764 95.24012 226.29786 94.5983 C 227.0227 92.9261 238.2493 93.08181 245.5307 94.87593 C 263.09244 99.13979 271.72616 99.6472 282.86866 96.9855 C 289.28164 95.48034 303.51832 88.62632 310.57513 83.54095 C 315.78033 79.78127 324.30835 71.10542 325.4761 68.14958 Z" />
        </g>
        <g
           id="Graphic_54">
          <path
             id="path19"
             d="M 92.07668 68.14401 C 91.8901 70.27655 82.01179 76.43745 80.88194 75.18152 C 80.29036 74.38592 85.6319 69.06784 88.02895 68.12047 C 90.5152 67.09826 92.16996 67.077735 92.07668 68.14401 Z" />
        </g>
        <g
           id="Graphic_53">
          <path
             id="path22"
             d="M 111.11593 83.86 C 110.77249 85.89617 111.01138 85.99972 115.73271 86.82603 C 118.4999 87.31607 121.31322 88.22339 121.994 88.94414 C 123.13102 90.11805 123.11667 90.2821 121.67517 91.64366 C 120.14448 93.08006 120.21932 93.16926 121.96946 94.8927 C 123.04599 95.81337 125.48818 97.18412 127.40645 97.93049 C 130.77239 99.1341 136.83584 104.45821 136.69232 106.09863 C 136.65644 106.50873 135.7255 106.75788 134.57721 106.65742 C 131.95254 106.42779 131.8162 107.98619 134.40399 110.52675 C 135.76555 111.96825 136.95998 112.486 138.14415 112.17635 C 140.84776 111.50375 144.17473 112.20807 146.33498 113.96739 C 148.42037 115.63752 148.0882 116.60024 145.25644 116.84838 C 143.25923 117.00424 142.33038 120.06363 143.64889 121.99726 C 144.38298 123.05327 145.51692 123.31777 148.42353 123.15882 C 151.5762 123.0214 152.5461 123.27155 154.30342 124.91298 C 155.44762 126.00486 156.84097 128.02769 157.3895 129.3154 C 158.41171 131.80165 158.41171 131.80165 155.49075 132.12464 C 153.91083 132.23436 152.3022 132.67217 152.02026 133.06074 C 151.2708 134.0696 154.49222 138.81447 156.41767 139.47882 C 157.3804 139.811 158.9347 140.93876 159.83284 142.00912 C 161.49378 143.80741 161.47943 143.97145 160.12713 145.25817 C 158.68563 146.61973 158.6641 146.8658 160.10359 149.3059 C 161.69277 151.9244 161.89069 155.3303 160.49633 155.20831 C 160.08623 155.17243 159.70483 154.80847 159.7407 154.39837 C 159.77658 153.98826 158.1013 152.35402 156.09074 150.77309 C 151.98761 147.60406 137.73528 130.07535 128.7231 116.88958 C 125.48732 112.30875 122.68627 108.42715 122.37254 108.2344 C 122.14082 108.04884 119.03321 103.89247 115.50524 98.87283 C 109.55043 90.41758 102.8677 82.72513 100.11179 81.16164 C 99.4023 80.768975 101.72041 80.72384 105.15812 81.10725 C 111.3917 81.65261 111.38453 81.734635 111.11593 83.86 Z" />
        </g>
        <g
           id="Graphic_52">
          <path
             id="path25"
             d="M 99.46796 84.74186 C 102.13777 87.2896 99.88431 93.20845 95.94322 93.85543 C 93.26115 94.28197 90.04898 92.26532 89.28001 89.71858 C 88.66073 87.35024 90.00686 84.24471 92.16502 83.1938 C 93.80235 82.42791 97.94236 83.286 99.46796 84.74186 Z" />
        </g>
        <g
           id="Graphic_51">
          <path
             id="path28"
             d="M 78.29855 98.09713 C 80.12044 99.00036 81.94751 103.62324 80.51727 103.91136 C 79.92878 104.02517 78.15611 104.44862 76.55465 104.8044 C 69.47115 106.41619 66.56246 103.7649 70.43071 99.22706 C 72.27206 97.07399 75.282215 96.67615 78.29855 98.09713 Z" />
        </g>
        <g
           id="Graphic_50">
          <path
             id="path31"
             d="M 102.40967 105.90934 C 104.58735 108.41403 104.58635 110.31486 102.55226 112.78166 C 99.69387 116.16812 98.38154 116.05331 94.91714 112.19632 C 92.35089 109.40969 91.78801 108.28601 92.33445 106.7635 C 93.65597 102.99463 99.57274 102.43784 102.40967 105.90934 Z" />
        </g>
        <g
           id="Graphic_49">
          <path
             id="path34"
             d="M 54.941186 108.12034 C 53.94567 109.10767 52.728704 110.73682 52.38218 111.86359 C 50.88227 115.78215 46.50244 123.33324 44.704155 124.99418 C 42.7203 126.88683 39.89571 127.05296 38.473654 125.35822 C 36.976754 123.57428 37.51911 123.04319 40.27194 123.69728 C 43.823453 124.66918 46.164097 122.47715 49.084984 115.54226 C 51.377405 110.12271 54.196826 106.23694 55.837243 106.38046 C 56.41139 106.43069 55.929526 107.21502 54.941186 108.12034 Z" />
        </g>
        <g
           id="Graphic_48">
          <path
             id="path37"
             d="M 126.0164 116.65277 C 128.76414 120.19912 128.83181 120.37034 127.40057 122.55928 C 125.76224 125.226 123.55793 125.85964 120.86251 124.54938 C 118.7197 123.53543 117.52936 122.02626 116.99928 119.58307 C 116.60453 117.48232 119.90581 112.81222 121.71027 112.97009 C 122.53048 113.04185 124.36981 114.69045 126.0164 116.65277 Z" />
        </g>
        <g
           id="Graphic_47">
          <path
             id="path40"
             d="M 160.82248 165.65058 C 163.20317 168.66892 162.95919 171.45763 160.11207 173.77065 C 157.51818 176.02317 155.46049 175.9258 152.85835 173.54927 C 150.18137 171.08355 149.87582 168.90796 151.61053 166.08437 C 154.09469 162.25192 158.07474 162.10424 160.82248 165.65058 Z" />
        </g>
        <g
           id="Graphic_46">
          <path
             id="path43"
             d="M 134.31438 165.39764 C 136.60996 167.4994 136.72585 170.89813 134.5349 173.26856 C 133.16825 174.71932 133.08622 174.71214 132.23832 173.06763 C 131.73593 172.1972 130.37846 169.76427 129.0743 167.6666 C 127.845 165.65813 127.01861 163.76756 127.2862 163.54303 C 128.44576 162.57004 132.40738 163.57783 134.31438 165.39764 Z" />
        </g>
        <g
           id="Graphic_45">
          <path
             id="path46"
             d="M 76.2929 168.2557 C 75.89306 169.0472 75.25024 170.72658 74.89654 171.93537 C 74.37471 174.12123 74.292685 174.11405 72.439 172.6295 C 69.57645 170.39549 64.97201 171.06708 63.736605 173.8517 C 62.61192 176.31542 58.45247 178.51362 55.335674 178.24094 C 52.464944 177.98978 47.105887 175.9506 45.2522 174.46604 C 43.943956 173.3598 44.300743 173.06042 48.648854 171.53991 C 51.291963 170.61407 53.92072 169.85228 54.49487 169.9025 C 55.069014 169.95274 56.34238 169.56825 57.22 168.98384 C 58.09044 168.48146 59.431476 168.26819 60.15531 168.49681 C 60.87915 168.72544 63.307985 168.3594 65.60148 167.65091 C 67.977 166.9496 71.48646 166.5128 73.45496 166.68503 C 76.49691 166.86851 76.892665 167.06844 76.2929 168.2557 Z" />
        </g>
        <g
           id="Graphic_44">
          <path
             id="path49"
             d="M 87.44982 172.04185 C 88.0732 173.41877 88.35413 174.93103 88.07219 175.3196 C 87.78307 175.7902 84.96566 175.8743 81.76685 175.59444 C 76.59953 175.14236 76.12176 174.93526 76.25092 173.45889 C 76.337035 172.47464 77.29359 170.988 78.45314 170.01502 C 81.30744 167.61998 85.76836 168.5888 87.44982 172.04185 Z" />
        </g>
        <g
           id="Graphic_43">
          <path
             id="path52"
             d="M 103.77607 172.47843 C 104.79928 173.06384 107.37372 173.86762 109.48474 174.30025 C 112.64767 174.99022 114.12713 176.02879 117.45619 179.54334 C 119.64105 181.966 122.23601 184.42455 123.1772 185.00279 C 124.66384 185.95934 124.64231 186.2054 123.3505 187.74536 C 121.22722 190.287 121.1391 195.07291 123.19888 197.98053 C 124.67425 200.01053 125.62262 200.50674 128.82144 200.7866 C 131.77419 201.04493 133.04038 200.74247 134.31784 199.36655 C 135.22416 198.45406 136.19815 197.7128 136.44421 197.73432 C 136.69027 197.75584 136.72106 200.238 136.45555 203.27277 C 136.26489 206.39674 136.24135 210.44447 136.39721 212.44167 C 136.6351 214.44605 136.50593 215.92243 136.1922 215.72968 C 135.08696 215.1371 125.19616 204.43657 119.96419 198.11077 C 115.09926 192.31298 114.60405 191.36052 114.80189 188.15453 C 114.95667 185.44067 114.49017 184.16012 112.67953 182.18344 C 109.95641 179.30044 107.02519 178.79605 103.22252 180.69487 C 101.14638 181.75296 100.23697 181.75605 99.06407 180.99224 C 98.28692 180.42836 95.83755 179.13963 93.60555 178.20052 C 90.57487 176.94359 89.6552 176.11929 89.688 174.79978 C 89.68491 173.89037 89.55366 172.5565 89.37218 171.7968 C 88.98052 170.60545 89.8971 170.52034 95.47452 171.0083 C 99.00142 171.31686 102.74568 171.97504 103.77607 172.47843 Z" />
        </g>
        <g
           id="Graphic_42">
          <path
             id="path55"
             d="M 111.75169 183.342 C 112.5678 184.40518 113.184 185.86412 113.11942 186.6023 C 113.0046 187.91464 112.67652 187.88594 108.03413 186.1574 C 102.66789 184.20024 101.47755 182.69107 104.61278 181.80829 C 107.84439 180.76864 110.11227 181.29765 111.75169 183.342 Z" />
        </g>
        <g
           id="Graphic_41">
          <path
             id="path58"
             d="M 131.50545 189.9465 L 135.53064 192.11693 L 134.61614 195.01227 C 134.15172 196.54197 133.0096 198.26031 132.22118 198.76988 C 126.89499 202.02309 120.92892 194.64128 124.466 189.16533 C 125.7045 187.29011 126.5247 187.36187 131.50545 189.9465 Z" />
        </g>
        <g
           id="Graphic_40">
          <path
             id="path61"
             d="M 143.22941 200.4768 C 145.2 203.45927 144.95601 206.24798 142.47286 208.1796 C 138.74812 211.07702 137.76078 210.0815 138.15646 203.66953 C 138.45168 198.40584 138.65877 197.92807 140.13515 198.05723 C 141.03738 198.13617 142.42764 199.24958 143.22941 200.4768 Z" />
        </g>
        <g
           id="Graphic_39">
          <path
             id="path64"
             d="M 298.8558 212.76998 C 299.62888 214.3253 297.16725 216.01084 294.9742 215.57103 C 293.5122 215.27782 292.8314 214.55707 292.78218 213.2304 C 292.67246 211.65046 293.02207 211.4331 295.5647 211.65556 C 297.1231 211.7919 298.64563 212.33835 298.8558 212.76998 Z" />
        </g>
        <g
           id="Graphic_38">
          <path
             id="path67"
             d="M 286.55684 217.31407 C 290.214 220.85733 286.50468 228.30178 282.0335 226.50558 C 279.64463 225.4701 279.23862 224.44278 279.66917 219.52153 C 280.03514 215.33847 280.12434 215.26362 282.42092 215.46455 C 283.73326 215.57936 285.56233 216.40057 286.55684 217.31407 Z" />
        </g>
        <g
           id="Graphic_37">
          <path
             id="path70"
             d="M 193.6498 213.64878 C 196.45085 217.53039 192.96708 223.3416 188.12785 222.91822 C 183.2066 222.48767 181.11194 218.08933 183.4505 213.08706 C 185.04987 209.92104 191.14094 210.206 193.6498 213.64878 Z" />
        </g>
        <g
           id="Graphic_36">
          <path
             id="path73"
             d="M 143.2203 210.9724 C 143.21313 211.05442 142.37039 213.12955 141.26006 215.42922 C 139.21061 219.9609 138.8005 219.92502 138.38932 215.17807 C 138.20167 212.59954 138.40877 212.12177 140.03893 211.4379 C 142.00434 210.70072 143.25618 210.5623 143.2203 210.9724 Z" />
        </g>
        <g
           id="Graphic_35">
          <path
             id="path76"
             d="M 211.22286 223.4511 C 214.91488 228.48508 211.62077 233.07316 205.27337 231.9393 C 203.2372 231.59585 201.22048 228.1961 201.4501 225.57144 C 201.95242 219.82998 207.5165 218.58115 211.22286 223.4511 Z" />
        </g>
        <g
           id="Graphic_34">
          <path
             id="path79"
             d="M 177.14739 229.39594 C 178.86882 231.44746 178.73456 235.8161 176.9896 237.8123 C 174.79864 240.18272 171.9279 239.93157 169.18326 237.29463 C 164.92018 233.11982 167.4484 226.8944 173.18986 227.39673 C 174.58422 227.51872 176.3241 228.41477 177.14739 229.39594 Z" />
        </g>
        <g
           id="Graphic_33">
          <path
             id="path82"
             d="M 137.0864 231.01527 C 141.90518 236.39578 134.20146 244.15196 128.92952 239.2277 C 124.73411 235.2241 127.94003 228.81004 134.1203 229.02015 C 134.78364 228.99554 136.10624 229.93774 137.0864 231.01527 Z" />
        </g>
        <g
           id="Graphic_32">
          <path
             id="path85"
             d="M 225.86377 241.26175 C 229.2031 245.6037 229.30255 246.35623 226.51384 246.11225 C 224.62736 245.9472 221.55463 243.28156 221.4449 241.70163 C 221.00194 236.37336 222.00771 236.2134 225.86377 241.26175 Z" />
        </g>
        <g
           id="Graphic_31">
          <path
             id="path88"
             d="M 167.60233 239.30518 C 170.105 240.92917 170.01172 241.99544 167.46907 241.77298 C 166.4028 241.6797 164.24873 241.7392 162.74365 241.9381 C 160.32917 242.1401 160.09028 242.03656 160.91458 241.1169 C 161.46411 240.50378 162.53856 238.61421 163.27058 236.86 C 164.6167 233.75446 164.62389 233.67244 165.1755 235.86956 C 165.48514 237.05374 166.58629 238.63775 167.60233 239.30518 Z" />
        </g>
        <g
           id="Graphic_30">
          <path
             id="path91"
             d="M 210.35365 241.88836 C 211.61575 242.57732 213.43255 246.3728 213.13935 247.83483 C 211.98087 253.5189 205.17213 254.82412 202.1291 249.92956 C 198.86154 244.76742 204.6419 239.15713 210.35365 241.88836 Z" />
        </g>
        <g
           id="Graphic_29">
          <path
             id="path94"
             d="M 189.73979 243.22553 C 192.23837 245.84094 191.7565 246.62527 188.48694 245.26478 C 187.21049 244.73987 185.12818 243.97915 183.9194 243.62544 C 181.98677 243.04312 181.76223 242.77553 182.66855 241.86304 C 184.3028 240.18774 187.30887 240.78134 189.73979 243.22553 Z" />
        </g>
        <g
           id="Graphic_28">
          <path
             id="path97"
             d="M 153.96742 241.17028 C 155.55351 242.87937 155.48384 246.50982 153.84342 246.3663 C 153.26927 246.31607 152.4665 246.98968 152.1415 247.87038 C 151.6986 249.154 150.8497 249.41033 148.38907 249.19506 C 144.6161 248.86497 143.32222 247.59468 143.5949 244.4779 C 144.0111 239.72068 150.64553 237.5737 153.96742 241.17028 Z" />
        </g>
        <g
           id="Graphic_27">
          <path
             id="path100"
             d="M 114.5349 241.27428 C 115.56837 242.68708 115.68218 243.27557 114.87941 243.94918 C 113.98744 244.69763 113.4133 244.6474 112.32959 243.80875 C 111.24588 242.9701 110.33647 242.97318 108.17114 244.10612 C 104.80728 245.71274 104.64324 245.6984 104.8011 243.89393 C 105.20296 239.30076 111.71949 237.55672 114.5349 241.27428 Z" />
        </g>
        <g
           id="Graphic_26">
          <path
             id="path103"
             d="M 191.08499 248.63273 C 193.43798 250.07832 195.52337 251.74845 195.63 252.41897 C 195.81866 253.09666 195.55107 253.3212 195.08765 252.95006 C 194.69907 252.66812 192.12055 252.85577 189.41695 253.52837 C 186.6385 254.11177 183.1967 254.7198 181.78082 254.84386 C 179.1131 255.10636 179.03108 255.09918 179.27506 252.31047 C 179.4114 250.75208 180.01526 248.5734 180.68986 247.47533 C 182.15698 244.87628 185.43064 245.24534 191.08499 248.63273 Z" />
        </g>
        <g
           id="Graphic_25">
          <path
             id="path106"
             d="M 177.60594 252.49504 C 177.34043 255.5298 174.80396 257.12617 171.48415 256.33983 L 169.05223 255.79647 L 171.13964 253.66493 C 172.96663 251.6759 175.66714 250.0939 177.23272 250.14822 C 177.56798 250.0949 177.72075 251.1827 177.60594 252.49504 Z" />
        </g>
        <g
           id="Graphic_24">
          <path
             id="path109"
             d="M 237.61243 259.0673 L 240.98045 263.08116 L 239.07144 265.063 C 235.6994 268.65248 229.4422 265.54294 229.8051 260.45047 C 229.99166 258.31793 232.35792 254.8884 233.50622 254.98887 C 233.91632 255.02475 235.7413 256.8374 237.61243 259.0673 Z" />
        </g>
        <g
           id="Graphic_23">
          <path
             id="path112"
             d="M 200.87224 259.57215 C 204.77444 265.03776 203.8148 265.615 194.96473 262.85715 C 191.58444 261.81757 187.94373 260.9205 186.79544 260.82005 C 184.41683 260.61195 179.56425 258.45178 179.64319 257.54955 C 179.6719 257.22146 180.6992 256.81545 182.03306 256.6842 C 183.29208 256.46376 186.22021 256.05875 188.49218 255.59633 C 196.1283 254.28083 197.4191 254.6417 200.87224 259.57215 Z" />
        </g>
        <g
           id="Graphic_22">
          <path
             id="path115"
             d="M 179.80931 260.37414 C 181.14626 261.1523 184.1913 262.2452 186.62322 262.78855 C 189.06231 263.2499 193.67292 264.3971 196.73948 265.24393 L 202.39483 266.7305 L 201.89762 269.5797 C 201.1646 273.23476 200.80063 273.61616 198.6681 273.4296 C 197.68384 273.34348 193.91396 273.9228 190.3758 274.68767 L 183.80595 276.09645 L 184.03558 273.4718 C 184.29391 270.51903 183.87355 269.65577 181.24988 267.5253 C 176.85455 263.91747 171.0475 266.05418 169.6286 271.88074 C 169.0104 274.22347 169.25238 275.23643 171.16964 277.88362 L 173.53598 281.066 L 171.54086 284.0321 C 169.24226 287.63284 168.9952 289.51215 170.17944 295.8144 C 171.31755 301.6994 170.63167 303.8709 166.69266 307.3281 C 163.19246 310.49313 161.70173 310.528 151.4573 307.64817 C 146.13004 306.1903 143.84063 305.90736 140.99451 306.31955 C 135.54116 307.24747 134.8245 306.93683 133.79203 303.6232 C 133.08355 301.3297 132.47761 300.69815 131.37546 301.01496 C 130.60857 301.27846 128.91792 301.7091 127.73375 302.01873 C 126.20714 302.4637 125.11525 303.6079 124.25816 305.8471 C 123.61534 307.52648 122.13079 309.38016 121.08913 309.95022 C 118.49934 311.2113 113.33511 311.66864 110.43976 310.75414 C 108.35028 310.07544 108.20776 309.81503 109.24633 308.33557 C 112.41946 303.241 120.19701 297.47487 120.74145 299.754 C 120.97625 300.849 130.76027 297.6552 131.79884 296.17573 C 132.46627 295.1597 134.21024 295.06432 140.93595 295.65275 C 145.4471 296.04742 151.55252 296.16833 154.47349 295.84534 C 159.0564 295.4198 159.82328 295.1563 159.95963 293.5979 C 160.03856 292.69568 159.81094 291.5187 159.4439 290.99068 C 157.07038 287.89032 156.13313 273.09686 158.32308 272.62726 C 158.91875 272.43143 159.45802 270.99093 159.60871 269.2685 C 159.78094 267.3 160.60215 265.47092 161.68686 264.40874 C 162.68238 263.4214 163.52103 262.3377 163.5569 261.9276 C 163.59279 261.5175 164.27457 260.3374 165.10605 259.3357 C 166.4122 257.63172 167.0007 257.5179 171.98245 258.2017 C 175.01005 258.54923 178.56156 259.52114 179.80931 260.37414 Z" />
        </g>
        <g
           id="Graphic_21">
          <path
             id="path118"
             d="M 261.60264 272.98494 C 263.85108 276.57025 260.35805 279.65325 254.45255 279.13658 C 252.238 278.94283 251.37164 278.4538 251.062 277.26962 C 250.66007 275.2509 252.28097 271.8388 254.26073 270.93758 C 256.33687 269.8795 260.44818 271.06567 261.60264 272.98494 Z" />
        </g>
        <g
           id="Graphic_20">
          <path
             id="path121"
             d="M 180.82442 269.5543 C 182.5602 271.4418 182.90473 274.1167 181.5309 275.64947 C 181.15976 276.1129 179.75413 277.06435 178.37004 277.76974 C 175.34144 279.32304 172.4748 278.08046 171.52435 274.774 C 169.88694 268.928 176.76126 264.98374 180.82442 269.5543 Z" />
        </g>
        <g
           id="Graphic_19">
          <path
             id="path124"
             d="M 207.3654 275.09964 C 208.67263 278.1067 208.6511 278.35277 207.15937 280.28848 C 205.48924 282.37388 202.26481 283.3315 200.27887 282.41392 C 199.3305 281.9177 199.29871 281.3364 200.23065 279.1864 C 200.85194 277.75308 201.75518 275.9312 202.14784 275.2217 C 202.6297 274.43737 203.06543 273.23576 203.13 272.49757 C 203.32376 270.283 205.99766 271.83933 207.3654 275.09964 Z" />
        </g>
        <g
           id="Graphic_18">
          <path
             id="path127"
             fill="#cccccc"
             d="M 93.55413 72.98424 C 92.01317 73.59326 90.69675 74.46988 90.66087 74.87998 C 90.62499 75.29008 90.84952 75.557675 91.27398 75.42951 C 91.61642 75.29417 93.31424 74.781525 95.09409 74.27605 C 96.79191 73.7634 98.25803 73.06518 98.28673 72.7371 C 98.37284 71.75285 96.54685 71.84104 93.55413 72.98424 Z" />
        </g>
        <g
           id="Graphic_17">
          <path
             id="path130"
             fill="#cccccc"
             d="M 172.56902 86.17845 C 170.76764 86.92998 168.95192 87.84556 168.50593 88.21979 C 166.90757 89.48498 168.45161 89.78536 171.01988 88.77032 C 178.12182 86.00307 188.2924 86.89288 195.52977 91.07996 C 197.81509 92.35433 201.24152 93.81119 203.18132 94.31149 L 206.6508 95.27622 L 203.90415 96.44095 C 200.38343 97.9512 190.50095 98.49162 185.1378 97.44386 C 181.64679 96.7252 180.55899 96.87797 178.88578 98.05396 C 176.50617 99.7467 176.85477 101.43017 179.50097 101.41373 C 181.72989 101.44344 183.8727 102.4574 186.78856 105.02667 C 190.70611 108.42741 195.8222 111.35447 199.70897 112.27306 L 203.4317 113.1773 L 200.51382 114.40969 C 198.88366 115.09356 195.35985 115.6944 192.71366 115.71084 C 187.01116 115.70782 186.8502 116.60288 191.9304 119.94004 C 193.96249 121.27491 196.34726 123.30182 197.23823 124.4542 C 198.8028 126.40935 198.87764 126.49855 197.3623 125.87008 C 196.4816 125.54509 195.1549 125.59431 194.46286 125.94701 C 193.42838 126.43505 193.3925 126.84515 194.2117 128.81774 C 195.45128 131.6536 199.3514 134.30898 200.68935 133.1863 C 201.31373 132.66239 201.0287 132.14156 199.68458 131.44542 C 198.57216 130.93485 197.26392 129.82861 196.6795 128.951 C 195.64603 127.5382 195.73523 127.46336 197.58583 128.0385 C 198.7126 128.38503 200.22794 129.0135 201.01944 129.41334 C 201.96781 129.90956 202.39227 129.7814 202.4712 128.87916 C 202.60037 127.40279 195.90329 119.87438 193.51442 118.8389 C 191.28242 117.89978 192.09236 117.14416 195.30553 117.25997 C 198.43668 117.36862 202.79914 115.68407 205.4002 113.34952 C 207.82286 111.16466 207.97973 111.26104 201.18635 110.5014 C 196.7644 110.03187 195.65198 109.52131 189.92688 105.05329 C 186.35484 102.42661 182.91815 100.14237 182.09794 100.07061 C 181.35975 100.00603 181.0532 99.73126 181.40998 99.43188 C 181.76677 99.1325 185.48641 99.12734 189.59463 99.40411 C 194.19498 99.72394 198.83838 99.55164 201.37076 98.94671 C 206.01825 97.78299 212.49273 94.63024 211.81913 93.82747 C 211.5946 93.55988 209.08065 93.00935 206.29194 92.76536 C 202.2801 92.33172 199.95172 91.54948 195.8732 89.04379 C 191.0032 86.13826 190.0333 85.8881 183.21838 85.37453 C 177.55177 84.96141 174.97324 85.14906 172.56902 86.17845 Z" />
        </g>
        <g
           id="Graphic_16">
          <path
             id="path133"
             fill="#cccccc"
             d="M 162.10013 89.64292 C 161.4614 90.33088 160.6043 92.57005 160.1645 94.76309 C 158.87685 101.92352 162.40382 108.84399 171.26215 116.23088 C 174.02833 118.62176 176.48077 120.81989 176.69813 121.1695 C 176.92267 121.43709 180.36245 124.63074 184.34768 128.2027 C 194.00777 136.81682 195.9681 138.9719 198.82555 144.09816 C 204.765 154.61829 204.86245 159.1725 199.39583 164.97553 C 197.47964 167.0394 193.28022 170.63913 190.00864 173.08031 C 184.17906 177.36391 176.15035 186.0008 172.20624 192.35027 L 170.18242 195.64446 L 168.01191 193.05775 C 162.9973 187.08157 155.4145 188.73232 153.77724 196.1101 C 152.78689 200.8171 156.3651 205.26258 161.61443 205.72183 C 163.91102 205.92276 169.65858 201.63198 169.84515 199.49944 C 169.90973 198.76125 170.28805 198.2158 170.69815 198.25169 C 171.10826 198.28757 171.76851 197.35355 172.1294 196.06274 C 173.35454 192.45074 183.11078 181.0723 188.61945 176.67797 C 196.6041 170.43404 202.70537 164.93448 204.14378 162.66351 C 206.63512 158.74904 206.36645 154.2625 203.14604 147.6168 C 201.4574 144.24577 198.86344 139.8864 197.30604 137.84922 C 194.79002 134.48845 175.99783 116.89315 174.84954 116.79269 C 173.1271 116.64199 164.71576 106.98004 163.28036 103.54851 C 161.51378 99.17887 161.61008 92.4101 163.48321 90.83836 C 164.1076 90.31444 164.58228 89.61213 164.61098 89.28405 C 164.70427 88.21778 163.28121 88.42387 162.10013 89.64292 Z" />
        </g>
        <g
           id="Graphic_15">
          <path
             id="path136"
             d="M 165.71533 192.85683 C 169.6862 196.59283 168.3319 201.6812 162.89598 203.3545 C 160.51329 204.13782 160.02834 204.01274 158.189 202.36415 C 155.35515 199.80205 154.63641 196.68117 156.27475 194.01445 C 158.64818 190.5029 162.66412 189.94512 165.71533 192.85683 Z" />
        </g>
        <g
           id="Graphic_14">
          <path
             id="path139"
             fill="#cccccc"
             d="M 67.96994 85.78798 C 64.75168 88.56442 63.67005 90.536 65.22845 90.67235 C 65.72057 90.7154 66.3306 90.35553 66.61254 89.96695 C 66.90166 89.49635 68.2427 89.28308 69.47301 89.39072 C 70.70332 89.49836 72.490345 88.91087 73.38949 88.0804 C 74.920185 86.64399 74.93454 86.47995 73.67652 84.79956 C 72.93525 83.82557 72.0976 83.00845 71.76952 82.97975 C 71.52346 82.95822 69.76105 84.20906 67.96994 85.78798 Z" />
        </g>
        <g
           id="Graphic_13">
          <path
             id="path142"
             d="M 71.89259 86.29646 C 72.10277 86.72809 71.73881 87.10949 71.00062 87.04491 C 70.26243 86.98033 69.97023 86.54152 70.25217 86.15294 C 70.54129 85.68235 70.9801 85.39014 71.14414 85.40449 C 71.30818 85.41884 71.68958 85.78281 71.89259 86.29646 Z" />
        </g>
        <g
           id="Graphic_12">
          <path
             id="path145"
             fill="#cccccc"
             d="M 47.509 101.43675 C 47.130686 101.98219 46.99126 102.63118 47.215793 102.89877 C 47.8894 103.70154 48.802893 102.70703 48.49325 101.52286 C 48.244103 100.59193 48.08006 100.57757 47.509 101.43675 Z" />
        </g>
        <g
           id="Graphic_11">
          <path
             id="path148"
             fill="#cccccc"
             d="M 127.13413 134.10679 C 119.74716 136.35322 120.63619 147.91916 128.34206 149.58512 C 131.0949 150.2392 132.02583 149.99006 134.3306 148.20813 C 136.9778 146.29087 137.799 144.4618 137.89021 140.58528 C 137.88712 139.67588 136.88952 137.85298 135.60998 136.41865 C 133.2006 133.7284 130.53696 132.99947 127.13413 134.10679 Z" />
        </g>
        <g
           id="Graphic_10">
          <path
             id="path151"
             d="M 133.53793 136.48532 C 134.88206 137.18146 135.67665 138.4907 135.84686 140.32387 C 136.22626 144.4895 135.52294 145.91564 132.18779 147.19417 C 128.42818 148.60087 125.55436 147.44031 124.36502 144.03031 C 123.30384 141.04477 123.62575 139.25466 125.80953 136.96625 C 127.81491 134.82754 130.39344 134.63989 133.53793 136.48532 Z" />
        </g>
        <g
           id="Graphic_9">
          <path
             id="path154"
             fill="#cccccc"
             d="M 147.14503 214.29112 C 143.59152 217.12088 142.93643 221.77454 145.68416 225.32088 C 147.4661 227.62565 148.26477 227.94347 152.86512 228.2633 C 158.78497 228.61592 161.99907 220.219 157.80775 215.22399 C 154.81395 211.65612 150.87695 211.31167 147.14503 214.29112 Z" />
        </g>
        <g
           id="Graphic_8">
          <path
             id="path157"
             d="M 156.3806 216.4215 C 158.70797 219.10459 158.53475 222.97392 156.03724 225.06958 C 153.89651 226.86586 151.92084 226.77566 149.0224 224.95175 C 144.86905 222.35687 144.59629 218.86176 148.25336 215.79311 C 151.19685 213.32323 154.06758 213.57439 156.3806 216.4215 Z" />
        </g>
        <g
           id="Graphic_7">
          <path
             id="path160"
             fill="#cccccc"
             d="M 212.65655 257.1319 C 207.7046 260.8311 208.692 268.4385 214.45399 270.5956 C 219.4173 272.43485 222.3854 270.6283 224.05753 264.74125 C 224.76493 262.32368 224.5086 261.47476 222.52367 258.65635 C 219.56575 254.67837 216.5525 254.1668 212.65655 257.1319 Z" />
        </g>
        <g
           id="Graphic_6">
          <path
             id="path163"
             d="M 221.8347 259.91845 C 223.37775 262.11967 223.28038 264.17736 221.36727 267.15064 C 219.7433 269.65332 217.5677 269.95887 213.99874 268.2416 C 211.22848 266.84215 210.27494 262.6263 212.09884 259.72786 C 212.86982 258.47293 213.9617 257.32873 214.5502 257.21492 C 216.50845 256.55976 220.50903 258.06684 221.8347 259.91845 Z" />
        </g>
        <g
           id="Graphic_5">
          <path
             id="path166"
             fill="#cccccc"
             d="M 204.60245 286.84197 C 202.64012 288.48856 202.3223 289.28724 202.44536 292.60396 C 202.56334 298.81293 207.0694 302.09986 212.52683 300.1805 C 214.99872 299.32234 217.41213 294.40927 216.76106 291.4596 C 215.54093 285.56745 209.06228 283.09972 204.60245 286.84197 Z" />
        </g>
        <g
           id="Graphic_4">
          <path
             id="path169"
             d="M 212.96857 287.5739 C 216.75797 290.5502 215.43444 298.12073 210.99405 298.8067 C 209.56382 299.0948 208.59392 298.84464 208.47293 298.33817 C 208.35194 297.8317 207.81368 297.37135 207.32155 297.3283 C 205.5171 297.17043 203.71055 294.20232 203.94018 291.57765 C 204.10523 289.69117 204.787 288.5111 206.45305 287.41712 C 209.2571 285.59623 210.4946 285.62184 212.96857 287.5739 Z" />
        </g>
      </g>
    </g>
  </g>
</svg>
