<?xml version="1.0" encoding="UTF-8" standalone="no"?>
<svg
   xmlns:dc="http://purl.org/dc/elements/1.1/"
   xmlns:cc="http://creativecommons.org/ns#"
   xmlns:rdf="http://www.w3.org/1999/02/22-rdf-syntax-ns#"
   xmlns:svg="http://www.w3.org/2000/svg"
   xmlns="http://www.w3.org/2000/svg"
   xmlns:xlink="http://www.w3.org/1999/xlink"
   id="svg1403"
   height="330.8"
   width="400.01"
   version="1.0">
  <metadata
     id="metadata2647">
    <rdf:RDF>
      <cc:Work
         rdf:about="">
        <dc:format>image/svg+xml</dc:format>
        <dc:type
           rdf:resource="http://purl.org/dc/dcmitype/StillImage" />
        <dc:title></dc:title>
        <dc:creator>
          <cc:Agent>
            <dc:title>By ℍenry Salomé leImage created for the Blazon Project of the French Wikipedia. - Own work, CC BY-SA 3.0, https://commons.wikimedia.org/w/index.php?curid=1481828</dc:title>
          </cc:Agent>
        </dc:creator>
      </cc:Work>
    </rdf:RDF>
  </metadata>
  <defs
     id="defs1405">
    <linearGradient
       gradientTransform="translate(-1.4286e-5,-5.7143e-5)"
       gradientUnits="userSpaceOnUse"
       xlink:href="#linearGradient1732"
       id="linearGradient1800"
       y2="166.38"
       x2="139.4"
       y1="191.96"
       x1="107.75" />
    <linearGradient
       gradientTransform="translate(-1.4286e-5,-5.7143e-5)"
       gradientUnits="userSpaceOnUse"
       xlink:href="#linearGradient1732"
       id="linearGradient1590"
       y2="258.41"
       x2="113.69"
       y1="264.17"
       x1="82.143" />
    <linearGradient
       gradientTransform="translate(-1.4286e-5,-5.7143e-5)"
       gradientUnits="userSpaceOnUse"
       xlink:href="#linearGradient1732"
       id="linearGradient1598"
       y2="257.62"
       x2="115.67"
       y1="260.6"
       x1="84.127" />
    <linearGradient
       gradientTransform="translate(-1.4286e-5,-5.7143e-5)"
       gradientUnits="userSpaceOnUse"
       xlink:href="#linearGradient1732"
       id="linearGradient1606"
       y2="280.63"
       x2="118.06"
       y1="297.1"
       x1="88.492" />
    <linearGradient
       gradientTransform="translate(-1.4286e-5,-5.7143e-5)"
       gradientUnits="userSpaceOnUse"
       xlink:href="#linearGradient1732"
       id="linearGradient1614"
       y2="294.72"
       x2="136.33"
       y1="312.78"
       x1="118.45" />
    <linearGradient
       gradientTransform="translate(-1.4286e-5,-5.7143e-5)"
       gradientUnits="userSpaceOnUse"
       xlink:href="#linearGradient1732"
       id="linearGradient1622"
       y2="415.36"
       x2="166.67"
       y1="395.32"
       x1="131.15" />
    <linearGradient
       gradientTransform="translate(-1.4286e-5,-5.7143e-5)"
       gradientUnits="userSpaceOnUse"
       xlink:href="#linearGradient1732"
       id="linearGradient1582"
       y2="242.34"
       x2="130.36"
       y1="225.28"
       x1="107.14" />
    <linearGradient
       gradientTransform="translate(-1.4286e-5,-5.7143e-5)"
       gradientUnits="userSpaceOnUse"
       xlink:href="#linearGradient1732"
       id="linearGradient1642"
       y2="454.05"
       x2="163.89"
       y1="488.97"
       x1="143.65" />
    <linearGradient
       gradientTransform="translate(-1.4286e-5,-5.7143e-5)"
       gradientUnits="userSpaceOnUse"
       xlink:href="#linearGradient1732"
       id="linearGradient1650"
       y2="458.41"
       x2="186.51"
       y1="491.75"
       x1="186.51" />
    <linearGradient
       gradientTransform="translate(-1.4286e-5,-5.7143e-5)"
       gradientUnits="userSpaceOnUse"
       xlink:href="#linearGradient1732"
       id="linearGradient1658"
       y2="513.17"
       x2="321.83"
       y1="493.73"
       x1="292.86" />
    <linearGradient
       gradientTransform="translate(-1.4286e-5,-5.7143e-5)"
       gradientUnits="userSpaceOnUse"
       xlink:href="#linearGradient1732"
       id="linearGradient1666"
       y2="534.6"
       x2="312.3"
       y1="534.21"
       x1="266.27" />
    <linearGradient
       gradientTransform="translate(-1.4286e-5,-5.7143e-5)"
       gradientUnits="userSpaceOnUse"
       xlink:href="#linearGradient1732"
       id="linearGradient1674"
       y2="547.6"
       x2="319.15"
       y1="566.75"
       x1="300" />
    <linearGradient
       gradientTransform="translate(-1.4286e-5,-5.7143e-5)"
       gradientUnits="userSpaceOnUse"
       xlink:href="#linearGradient1732"
       id="linearGradient1682"
       y2="546.9"
       x2="341.27"
       y1="571.11"
       x1="337.3" />
    <linearGradient
       gradientTransform="translate(75.923,47.102)"
       gradientUnits="userSpaceOnUse"
       xlink:href="#linearGradient1732"
       id="linearGradient1397"
       y2="48.303"
       x2="243.12"
       y1="51.421"
       x1="241.14" />
    <linearGradient
       id="linearGradient1732">
      <stop
         id="stop1734"
         offset="0"
         style="stop-color:#ffffff;stop-opacity:1" />
      <stop
         id="stop1736"
         offset="1"
         style="stop-color:#ffffff;stop-opacity:1" />
    </linearGradient>
    <linearGradient
       gradientTransform="translate(-1.4286e-5,-5.7143e-5)"
       gradientUnits="userSpaceOnUse"
       xlink:href="#linearGradient1732"
       id="linearGradient1549"
       y2="213.55"
       x2="211.83"
       y1="217.78"
       x1="177.34" />
    <linearGradient
       gradientTransform="translate(-1.4286e-5,-5.7143e-5)"
       gradientUnits="userSpaceOnUse"
       xlink:href="#linearGradient1732"
       id="linearGradient1551"
       y2="137.97"
       x2="157.2"
       y1="115.64"
       x1="124.59" />
    <linearGradient
       gradientTransform="translate(-1.4286e-5,-5.7143e-5)"
       gradientUnits="userSpaceOnUse"
       xlink:href="#linearGradient1732"
       id="linearGradient1553"
       y2="137.97"
       x2="124.36"
       y1="139.21"
       x1="87.547" />
    <linearGradient
       gradientTransform="translate(-1.4286e-5,-5.7143e-5)"
       gradientUnits="userSpaceOnUse"
       xlink:href="#linearGradient1732"
       id="linearGradient1555"
       y2="90.412"
       x2="137.61"
       y1="75.234"
       x1="112.24" />
    <linearGradient
       gradientTransform="translate(-1.4286e-5,-5.7143e-5)"
       gradientUnits="userSpaceOnUse"
       xlink:href="#linearGradient1732"
       id="linearGradient1557"
       y2="101.81"
       x2="193.02"
       y1="75.234"
       x1="179.58" />
    <linearGradient
       gradientTransform="translate(-1.4286e-5,-5.7143e-5)"
       gradientUnits="userSpaceOnUse"
       xlink:href="#linearGradient1732"
       id="linearGradient1559"
       y2="185.72"
       x2="296.93"
       y1="176.25"
       x1="270.5" />
    <linearGradient
       gradientTransform="translate(-1.4286e-5,-5.7143e-5)"
       gradientUnits="userSpaceOnUse"
       xlink:href="#linearGradient1732"
       id="linearGradient1561"
       y2="467.62"
       x2="124.14"
       y1="496.13"
       x1="94.281" />
    <linearGradient
       gradientUnits="userSpaceOnUse"
       xlink:href="#linearGradient1732"
       id="linearGradient2433"
       y2="96.5"
       x2="180"
       y1="92.5"
       x1="171" />
  </defs>
  <g
     transform="translate(-15,-14.235)"
     id="g8479">
    <path
       style="opacity:1;fill:#ffff00;fill-opacity:1;fill-rule:evenodd;stroke:#000000;stroke-width:4.68853;stroke-linecap:butt;stroke-linejoin:miter;stroke-miterlimit:4;stroke-dasharray:none;stroke-opacity:1"
       d="m 94.594,216.44 c 4.862,6.72 11.516,9.96 13.646,17.37 -7.48,-0.83 -15.929,4.18 -24.189,8.06 -1.169,0.35 -2.59,0.19 -6.202,-4.34 -6.063,-14.4 -9.495,-18.05 -13.954,-22.02 -3.482,-6.79 -10.077,1.92 -3.721,2.48 2.293,2.77 3.386,5.44 7.132,9 -4.576,-3.53 -2.824,4.34 -3.721,7.44 -3.97,-1.68 -7.062,-5.1 -10.233,-8.37 -3.955,-8.27 -10.935,3.67 -2.791,4.03 l 6.822,4.96 c -3.55,1.76 5.307,6.69 7.442,9.3 -10.395,2.66 -22.32,-0.8 -33.489,-1.24 -9.638,-5.86 -7.887,8.99 -1.861,5.58 13.884,-1.89 21.452,2.53 29.769,6.2 l -19.846,11.17 c -6.594,-2.6 -4.77,11.02 1.24,5.58 12.815,-12.03 25.676,-10.36 37.831,-11.79 8.891,1.94 5.681,-4.3 12.895,-2.07 13.526,-2.51 21.576,-6.45 29.276,-11.57 6.85,-3.1 12.03,-6.43 7.44,-11.16 -1.99,-9.82 -8.99,-15.63 -14.88,-22.33 49.63,14.4 63.66,-6.97 91.78,-23.57 2.12,32.55 4.26,65.08 21.71,91.17 11.68,16.16 18.6,11.69 25.43,6.82 25.35,-19.29 41.56,-37.97 54.57,-56.43 5.44,-5.78 13.34,-19.96 22.33,-9.93 5.58,6.62 12.8,15.68 16.74,19.85 4.34,6.48 -0.44,11.4 -9.92,17.05 -3.75,0.99 -3.64,7.71 0.47,4.19 1.78,-1.46 2.45,-1.54 3.74,-1.56 -2.08,4.32 -3.38,7.15 -12.51,11.14 -4.35,2.04 -1.83,7.59 2.88,3.6 5.68,-3.78 5.99,2.87 3.87,7.91 l -10.23,16.59 c -2.34,1.77 -2.56,11.65 3.72,3.1 3.46,-2.81 8.48,-0.65 9.61,2.63 1.96,7.61 -3.94,21.82 6.51,35.2 2.89,3.48 8.01,3.17 2.95,-3.72 -5.6,-8.26 -5.48,-15.94 -0.78,-29.77 5.71,-7.15 7.99,-0.39 11.17,3.41 3.95,4.18 6.64,0.1 4.89,-2.52 -11.43,-16.58 -2.48,-45.63 0.1,-51.9 5.01,-10.05 1.85,-16.71 -0.93,-20.31 -6.73,-8.89 -11.77,-14.59 -18.36,-21.02 -3.86,-3.76 -8.89,-7.62 -11.87,-12.78 -8.53,-12.17 -20.39,-1.33 -23.26,0.46 -24.11,22.4 -33.31,14.84 -58.14,49.46 4.53,-29.51 12.16,-52.25 -2.64,-74.57 v -10.55 c 12.62,-21.98 8.58,-44.66 5.12,-66.2 16.11,20.58 31.09,26.55 46.98,37.52 10,5.9 18.91,22.06 30.54,-0.31 7.7,-13.69 13.67,-27.97 23.57,-40.931 5.42,1.041 8.93,-6.794 8.99,-9.613 5.46,-1.758 10.43,-2.713 18.6,-1.55 3.12,0.216 2.78,-4.811 -0.93,-5.266 -21.35,0.22 -3.7,-11.98 9.46,-15.045 5.3,-0.583 3.38,-4.706 1.09,-4.496 -4.75,0.739 -6.31,2.633 -10.7,2.17 -13.18,-3.743 7.17,-16.81 21.55,-18.14 5.93,-2.076 0.86,-4.394 -1.08,-4.186 -12.02,1.653 -22.99,8.079 -19.7,-5.272 5.12,-11.799 29.4,-15.779 29.77,-14.884 1.95,-0.02 3.58,-3.195 1.24,-3.721 -9.97,-0.613 -18.75,0.415 -25.42,4.341 -5.54,3.431 -9.81,6.862 -13.75,10.293 -13.62,12.035 -11.59,3.48 -7.49,-0.835 1.8,-1.466 0.93,-7.453 -3.57,-3.256 -20.41,20.186 -21.09,47.547 -31.63,71.32 l -10.23,25.581 c -2.28,4.02 -4.86,3.43 -7.75,-0.77 -18.18,-24.41 -26.69,-40.444 -47.76,-57.06 -6.84,-5.954 -12,-12.558 -15.5,-14.264 -12.62,-5.279 -21.11,4.802 -22.17,8.528 -10.14,21.653 -17.49,40.046 -22.49,88.216 -25.73,-8.32 -31.38,-27.15 -81.7,-22.63 7.33,-7.04 21.68,-11.5 8.83,-20.16 -11.12,-9.22 -19.65,-15.146 -27.74,-18.935 -12.445,-4.239 -6.477,-6.62 -22.18,-6.491 -9.154,-0.681 -18.721,-6.487 -22.947,-9.302 -5.517,-4.601 -7.196,2.02 -2.48,3.1 8.214,3.297 9.758,7.887 16.124,11.784 -12.28,-0.901 -20.607,1.158 -29.148,0 -9.185,-5.22 -8.287,6.959 -0.62,3.721 8.552,0.939 15.235,1.295 28.218,3.411 -2.722,4.028 -7.191,1.511 -6.542,4.603 -3.388,1.704 -5.61,2.319 -7.722,3.309 -8.103,0 -3.934,8.19 1.24,4.8 6.71,-2.81 11.014,-4.06 9.768,2.33 -6.328,0.91 -1.775,3.49 -6.357,6.35 -8.017,1.3 -2.524,9.08 1.55,3.26 2.693,-4 9.34,-3.38 17.986,-14.42 3.74,-4.411 10.351,-4.984 14.574,-4.961 1.792,4.431 9.476,7.291 16.126,14.261 -4.91,5.31 -9.35,9.99 -13.026,13.65 -22.559,5.5 -37.42,-3.72 -77.521,35.35 -3.869,7.72 -3.869,12.84 0.62,20.46 28.429,27.24 50.997,30.19 73.801,34.11 z"
       id="path1980" />
    <g
       style="opacity:1;fill:#000000;fill-opacity:1"
       id="g6414"
       transform="matrix(0,1.5628,1.5628,0,-86.622,585.45)">
      <path
         id="path5525"
         d="m -280.27,98.112 c 0,-0.03 2.77,-7.614 2.78,-7.645 7.04,0.932 3.39,10.953 -2.78,7.645 z"
         style="fill:#000000;fill-opacity:1;fill-rule:evenodd;stroke:#000000;stroke-width:3;stroke-linecap:butt;stroke-linejoin:miter;stroke-miterlimit:4;stroke-dasharray:none;stroke-opacity:1" />
      <path
         id="path6412"
         d="m -253.43,90.467 c 0,0.03 2.77,7.614 2.79,7.645 -6,3.808 -9.64,-6.215 -2.79,-7.645 z"
         style="display:inline;opacity:1;fill:#000000;fill-opacity:1;fill-rule:evenodd;stroke:#000000;stroke-width:3;stroke-linecap:butt;stroke-linejoin:miter;stroke-miterlimit:4;stroke-dasharray:none;stroke-opacity:1" />
    </g>
  </g>
</svg>
