<?xml version="1.0" encoding="UTF-8" standalone="no"?>
<svg
   xmlns:dc="http://purl.org/dc/elements/1.1/"
   xmlns:cc="http://creativecommons.org/ns#"
   xmlns:rdf="http://www.w3.org/1999/02/22-rdf-syntax-ns#"
   xmlns:svg="http://www.w3.org/2000/svg"
   xmlns="http://www.w3.org/2000/svg"
   xmlns:sodipodi="http://sodipodi.sourceforge.net/DTD/sodipodi-0.dtd"
   xmlns:inkscape="http://www.inkscape.org/namespaces/inkscape"
   height="138"
   width="127"
   version="1.1"
   id="svg2"
>
  <desc
     id="desc4">Frog Rampant</desc>
  <g
     id="layer4">
    <g
       id="g6731">
      <g
           id="g4169">
        <g
           id="g4155"
           style="stroke-miterlimit:4;stroke-width:3.80522838599;stroke-dasharray:none">
          <path
             style="stroke-linejoin:miter;enable-background:accumulate;stroke-opacity:1;color:#000000;stroke-dashoffset:0;visibility:visible;stroke:#808080;stroke-linecap:butt;stroke-miterlimit:4;marker:none;stroke-dasharray:none;overflow:visible;stroke-width:2;display:inline;fill:#ffff00"
             d="M57.938414 137.318098C57.938414 137.318098 76.045562 132.407594 76.045562 132.407594C93.408918 139.031826 101.69236 131.56184 117.74302 125.76043C119.909217 122.732529 122.052836 119.697312 124.177535 116.64349C126.442935 113.8099 127.528589 112.153323 125.604561 109.159757C123.817576 106.397712 120.883137 104.636029 116.141808 104.446911C113.098432 104.907779 110.215764 103.948753 107.337069 103.015963C107.337069 103.015963 108.313247 100.388339 108.313247 100.388339C110.907776 99.657287 113.570354 98.985708 115.926869 98.065263C120.928495 96.18067 122.76157 93.25689 120.503932 88.521089C120.005976 85.977142 116.879238 85.001401 114.837209 82.256508C102.804087 56.564769 86.710208 36.206021 51.512051 24.912952C50.909954 24.268778 49.804892 24.060394 49.213769 23.382353C42.34273 15.367835 36.33062 5.511005 28.12432 4.73552C24.551814 4.750498 21.403636 3.455952 18.255458 2.161406C10.524332 -1.466416 9.975541 3.345482 9.392568 8.108881C8.47439 13.175315 10.211911 18.091862 12.650996 22.537177C15.346121 28.425157 17.685546 34.409942 21.688569 39.187383C23.055128 44.170841 26.940201 50.544197 32.336862 57.719214C34.912025 64.51637 42.462152 74.746824 49.73674 84.7882C44.082273 90.265916 37.356316 93.275802 29.625953 95.997651C29.625953 95.997651 24.687893 84.443061 24.687893 84.443061C21.10111 80.07493 20.381744 82.448963 20.949883 86.200711C20.949883 86.200711 24.540406 95.484932 24.540406 95.484932C18.899635 92.75899 12.942233 86.737026 7.131639 82.109858C0.061402 77.635869 -0.283486 81.703008 2.577407 84.538599C2.577407 84.538599 18.028645 96.2939 18.028645 96.2939C18.028645 96.2939 6.343179 95.476318 6.343179 95.476318C-2.900276 96.323228 4.140453 99.964351 4.570573 99.791866C11.973972 99.695944 19.777841 100.365977 30.409153 106.592636C39.164823 101.284031 47.730978 95.751851 58.051582 92.235189C63.98102 94.031775 69.548316 96.945972 74.435224 101.959923C71.106697 105.110164 68.640666 109.525352 67.929836 116.492697C67.929836 116.492697 60.969654 111.717563 60.969654 111.717563C54.303667 108.459829 55.314018 113.926631 58.521039 115.078078C58.521039 115.078078 70.923129 123.924313 70.923129 123.924313C70.923129 123.924313 50.507943 118.095016 50.507943 118.095016C44.340999 115.722498 42.222072 122.146254 49.590903 122.849961C49.590903 122.849961 68.127441 128.856397 68.127441 128.856397C68.127441 128.856397 56.068453 132.271316 56.068453 132.271316C50.393074 134.810793 55.087388 138.340266 57.960677 137.287889C57.960677 137.287889 57.938414 137.318098 57.938414 137.318098"
             id="path4112" />
          <path
             style="stroke-linejoin:miter;enable-background:accumulate;stroke-opacity:1;color:#000000;stroke-dashoffset:0;visibility:visible;stroke:#808080;stroke-linecap:butt;stroke-miterlimit:4;marker:none;stroke-dasharray:none;overflow:visible;stroke-width:2;display:inline;fill:none"
             d="M45.694715 54.800015C54.944512 64.096774 66.459374 72.755313 66.413102 84.678234C64.516825 88.567005 61.579826 90.970912 58.073022 92.553994"
             id="path4114" />
          <path
             style="stroke-linejoin:miter;enable-background:accumulate;stroke-opacity:1;color:#000000;stroke-dashoffset:0;visibility:visible;stroke:#808080;stroke-linecap:butt;stroke-miterlimit:4;marker:none;stroke-dasharray:none;overflow:visible;stroke-width:2;display:inline;fill:none"
             d="M81.259319 112.429143C90.025546 104.354662 98.692632 103.246144 107.34218 102.73071"
             id="path4116" />
          <path
             style="stroke-linejoin:miter;enable-background:accumulate;stroke-opacity:1;color:#000000;stroke-dashoffset:0;visibility:visible;stroke:#808080;stroke-linecap:butt;stroke-miterlimit:4;marker:none;stroke-dasharray:none;overflow:visible;stroke-width:2;display:inline;fill:none"
             d="M74.764688 101.867091C84.778415 90.40465 94.046653 89.827731 103.462928 87.215571"
             id="path4118" />
          <path
             style="stroke-linejoin:miter;enable-background:accumulate;stroke-opacity:1;color:#000000;stroke-dashoffset:0;visibility:visible;stroke:#808080;stroke-linecap:butt;stroke-miterlimit:4;marker:none;stroke-dasharray:none;overflow:visible;stroke-width:2;display:inline;fill:none"
             d="M102.735889 80.181488C97.984041 64.433497 85.422512 49.111329 54.165831 34.816737"
             id="path4120" />
          <path
             style="stroke-linejoin:miter;enable-background:accumulate;stroke-opacity:1;color:#000000;stroke-dashoffset:0;visibility:visible;stroke:#808080;stroke-linecap:butt;stroke-miterlimit:4;marker:none;stroke-dasharray:none;overflow:visible;stroke-width:2;display:inline;fill:none"
             d="M115.718183 118.804791C100.121603 125.052721 76.729284 138.304953 68.117776 116.528647"
             id="path4122" />
          <path
             style="stroke-linejoin:miter;enable-background:accumulate;stroke-opacity:1;color:#000000;stroke-dashoffset:0;visibility:visible;stroke:#808080;stroke-linecap:butt;stroke-miterlimit:4;marker:none;stroke-dasharray:none;overflow:visible;stroke-width:2;display:inline;fill:none"
             d="M39.294615 59.0756C39.011192 65.994324 57.069468 81.638121 49.760771 84.521552"
             id="path4124" />
          <path
             style="stroke-linejoin:miter;enable-background:accumulate;stroke-opacity:1;color:#000000;stroke-dashoffset:0;visibility:visible;stroke:#808080;stroke-linecap:butt;stroke-miterlimit:4;marker:none;stroke-dasharray:none;overflow:visible;stroke-width:2;display:inline;fill:none"
             d="M9.626507 5.577554C9.854625 12.18801 14.127863 20.096741 22.427616 29.322667"
             id="path4126" />
          <path
             style="stroke-linejoin:miter;enable-background:accumulate;stroke-opacity:1;color:#000000;stroke-dashoffset:0;visibility:visible;stroke:#808080;stroke-linecap:butt;stroke-miterlimit:4;marker:none;stroke-dasharray:none;overflow:visible;stroke-width:2;display:inline;fill:#cccccc"
             d="M32.909363 11.026266C35.605473 12.561031 36.745398 14.240206 37.649758 16.915841C39.995991 23.264587 33.561505 22.102705 29.99854 20.124885C27.112407 18.753084 25.836262 16.493374 24.848906 13.765897C22.767258 5.407201 28.962135 8.42496 32.909363 11.026266C32.909363 11.026266 32.909363 11.026266 32.909363 11.026266"
             id="path4128" />
          <path
             style="stroke-linejoin:miter;enable-background:accumulate;stroke-opacity:1;color:#000000;stroke-dashoffset:0;visibility:visible;stroke:#808080;stroke-linecap:butt;stroke-miterlimit:4;marker:none;stroke-dasharray:none;overflow:visible;stroke-width:2;display:inline;fill:#ffff00"
             d="M48.658158 85.499021C49.100319 85.866833 43.186194 85.447383 36.716022 83.163724C23.128232 78.361664 17.844838 78.421026 16.899275 77.98989C10.125875 75.79509 13.400772 75.197179 15.601131 74.450672C15.601131 74.450672 25.514854 74.768998 25.514854 74.768998C25.514854 74.768998 13.908837 68.663104 13.908837 68.663104C11.620167 64.254054 16.769211 66.072202 17.747188 66.788276C17.747188 66.788276 28.213961 72.637287 28.213961 72.637287C34.400333 74.641871 37.456187 75.220414 42.570754 74.719643C42.570754 74.719643 42.683644 74.756223 42.683644 74.756223"
             id="path4147" />
        </g>
        <path
           style="stroke-linejoin:miter;enable-background:accumulate;stroke-opacity:1;fill-opacity:1;color:#000000;stroke-dashoffset:0;visibility:visible;stroke:#000000;stroke-linecap:butt;stroke-miterlimit:4;marker:none;stroke-dasharray:none;overflow:visible;stroke-width:3.80522838599;display:inline;fill:#cccccc"
           d="M29.675379389 13.898013113C29.440291434 14.6235210181 29.866909901 15.9951191305 30.787746858 16.2934999957C31.708583815 16.5918808609 32.788789458 15.7085423462 33.023877413 14.983034441C33.258965367 14.2575265358 32.697692505 13.4204335452 31.776855548 13.12205268C30.856018592 12.8236718148 29.910467343 13.1725052078 29.675379389 13.898013113C29.675379389 13.898013113 29.675379389 13.898013113 29.675379389 13.898013113"
           id="path4167" />
      </g>
    </g>
  </g>
</svg>
