<?xml version="1.0" encoding="UTF-8" standalone="no"?>
<svg
   width="103.66"
   height="72.898"
   viewBox="0 0 103.66 72.898"
   version="1.1"
   id="svg26403"
   xmlns="http://www.w3.org/2000/svg"
   xmlns:svg="http://www.w3.org/2000/svg"
   xmlns:rdf="http://www.w3.org/1999/02/22-rdf-syntax-ns#"
   xmlns:cc="http://creativecommons.org/ns#"
   xmlns:dc="http://purl.org/dc/elements/1.1/">
  <defs
     id="defs26397" />
  <metadata
     id="metadata26400">
    <rdf:RDF>
      <cc:Work
         rdf:about="">
        <dc:format>image/svg+xml</dc:format>
        <dc:type
           rdf:resource="http://purl.org/dc/dcmitype/StillImage" />
        <dc:creator>
          <cc:Agent>
            <dc:title>Di Amador</dc:title>
          </cc:Agent>
        </dc:creator>
      </cc:Work>
    </rdf:RDF>
  </metadata>
  <g
     id="layer1"
     transform="translate(-54.003,-111.71)">
    <g
       id="g31488">
      <path
         style="fill:#ffff00;stroke:#808080;stroke-width:0.264583px"
         d="m 66.842,150.84 c 0,0 -2.42,-0.66 -3.183,0 -0.763,0.72 -0.39,1.6 0.02,1.33 0.406,-0.28 0.357,-0.46 0.958,-0.44 0.601,0 2.209,-0.94 2.209,-0.94 z"
         id="path19296" />
      <path
         style="fill:#ffff00;stroke:#808080;stroke-width:0.264583px"
         d="m 79.241,148.82 c 0,0 -1.181,2.64 -4.401,3.46 -3.219,0.81 -5.296,1.6 -6.684,0.38 -1.389,-1.22 -2.51,-0.86 -3.154,-0.26 -0.644,0.6 -0.621,1.19 -0.897,0.55 -0.276,-0.65 0.699,-1.61 1.008,-1.87 0.308,-0.25 1.485,-0.65 1.983,-0.58 0.499,0.1 2.425,-0.34 2.739,-1.02 0.313,-0.69 1.43,-4.63 2.469,-5.36"
         id="path19298" />
      <path
         style="fill:#ffff00;stroke:#808080;stroke-width:0.264583px"
         d="m 96.874,158.3 c 0,0 4.546,3.22 3.916,5.34 -0.64,2.13 -10.618,12.07 -11.984,13.1 -1.367,1.03 -0.475,1.06 -1.367,1.03 -0.891,0 -2.229,0.67 -2.761,1.75 -0.532,1.08 -0.589,1.08 0.345,1.09 0.935,0 3.725,0.76 4.861,0 1.136,-0.76 1.438,-1.62 1.625,-2.31 0.187,-0.68 0.101,-0.22 0.374,-0.1 0.274,0.12 1.568,-1.38 2.028,-2.07 0.46,-0.68 6.499,-7.75 7.479,-8.75 0.98,-1.01 2.39,-3.43 2.88,-3.46 0.48,0 0.92,-0.49 0.74,-1.86 -0.17,-1.36 -4.11,-5.79 -4.11,-5.79 z"
         id="path19324" />
      <path
         style="fill:#ffff00;stroke:#808080;stroke-width:0.264583px"
         d="m 88.406,178.61 c 0,0 -2.196,0.73 -2.725,1.5 -0.529,0.77 -0.08,1.38 1.668,1.25 1.749,-0.13 2.766,-1.51 2.766,-1.51"
         id="path19326" />
      <path
         style="fill:none;stroke:#808080;stroke-width:0.264583px"
         d="m 91.984,176.63 c 0,0 8.976,-9.28 10.006,-11.17"
         id="path19328" />
      <path
         style="fill:#ffff00;stroke:#808080;stroke-width:0.264583px"
         d="m 102.46,159.34 c 0,0 5.23,3.51 4.5,5.82 -0.73,2.32 -12.204,13.15 -13.775,14.28 -1.571,1.12 -0.546,1.15 -1.571,1.12 -1.025,0 -2.563,0.73 -3.175,1.9 -0.612,1.18 -0.678,1.18 0.397,1.19 1.075,0 4.283,0.83 5.589,0 1.307,-0.82 1.654,-1.77 1.869,-2.51 0.215,-0.75 0.116,-0.25 0.43,-0.12 0.314,0.14 1.802,-1.5 2.331,-2.25 0.53,-0.74 7.475,-8.45 8.595,-9.54 1.13,-1.09 2.75,-3.74 3.31,-3.77 0.56,0 1.06,-0.53 0.86,-2.02 -0.2,-1.48 -4.73,-6.31 -4.73,-6.31 z"
         id="path19311" />
      <path
         style="fill:#ffff00;stroke:#808080;stroke-width:0.264583px"
         d="m 92.726,181.47 c 0,0 -2.526,0.8 -3.134,1.64 -0.608,0.84 -0.09,1.49 1.918,1.35 2.011,-0.14 3.18,-1.63 3.18,-1.63"
         id="path19315" />
      <path
         style="fill:none;stroke:#808080;stroke-width:0.264583px"
         d="m 96.84,179.32 c 0,0 10.32,-10.12 11.51,-12.17"
         id="path19317" />
      <path
         style="fill:#ffff00;stroke:#808080;stroke-width:0.264583px"
         d="m 109.8,153.09 c 0,0 2.88,1.42 6.29,2.22 3.4,0.79 9.06,3.44 13.62,8.8 4.57,5.35 7.44,21.56 20.35,16.05 12.91,-5.52 -0.1,-20.38 -2.25,-22.83 -1.96,-2.19 -8.81,-15.34 -9.29,-17.16 -1.15,-4.34 2.05,-7.01 2.05,-7.01 0,0 -0.1,7.18 2.06,12.53 2.86,7.1 17.78,20.11 14.41,30.21 -3.37,10.11 -15.25,8.61 -18.99,4.96 -3.74,-3.65 -8.05,-17.02 -15.16,-20.39 -7.11,-3.37 -14.59,-3.46 -14.59,-3.46 z"
         id="path19337" />
      <path
         style="fill:#ffff00;stroke:#808080;stroke-width:0.264583px"
         d="m 68.077,134.46 c 0,0 3.929,2.53 9.635,0.1 5.706,-2.43 14.312,-5.99 21.889,1.96 7.579,7.95 8.509,15.44 10.479,16 1.96,0.56 1.89,1 1.89,1 l -1.14,-0.1 0.32,0.66 -0.63,0.11 0.35,0.68 -0.79,0.7 0.4,0.35 -0.61,0.89 0.18,0.42 c 0,0 -6.33,3.79 -10.776,3.65 -4.443,-0.14 -15.107,-3.6 -20.439,-7.81 -5.332,-4.21 -12.621,-2.5 -13.514,-5.38 -0.893,-2.88 -0.01,-12.85 2.756,-13.24 z"
         id="path19260" />
      <path
         style="fill:#ffff00;stroke:#808080;stroke-width:0.264583px"
         d="m 65.488,136.1 c 0,0 1.848,1.21 2.611,0.38 0.763,-0.84 0.128,-4.89 2.161,-7.68 2.032,-2.79 5.347,-6.82 2.008,-13.6 -3.338,-6.78 -6.297,-1.58 -7.097,0.79 -0.8,2.37 -0.824,12.83 -0.323,16.38 0.5,3.54 0.64,3.73 0.64,3.73 z"
         id="path19284" />
      <path
         style="fill:#ffff00;stroke:#808080;stroke-width:0.264583px"
         d="m 71.094,139.31 c 0,0 1.894,2.03 0.678,4.23 -1.216,2.2 -4.163,4.4 -6.876,4.16 -2.712,-0.23 -6.407,-2.15 -8.044,-3.04 -1.637,-0.89 -2.994,-2.67 -2.666,-3.41 0.327,-0.75 1.262,-0.14 2.104,-0.94 0.842,-0.79 3.228,-6.78 7.905,-6.55 4.677,0.24 6.595,0.94 7.483,1.92 0.889,0.98 -0.584,3.63 -0.584,3.63 z"
         id="path19262" />
      <path
         style="fill:#ffff00;stroke:#808080;stroke-width:0.264583px"
         d="m 67.469,136.38 c 0,0 1.59,1.78 2.619,1.12 1.029,-0.65 1.497,-5.05 4.397,-7.39 2.9,-2.33 7.483,-5.61 5.893,-13.61 -1.59,-7.99 -6.127,-3.41 -7.624,-1.17 -1.497,2.25 -4.443,13.15 -4.911,16.98 -0.468,3.84 -0.374,4.07 -0.374,4.07 z"
         id="path19264" />
      <path
         style="fill:#ffffff;stroke:#000000;stroke-width:0.264583px"
         d="m 59.963,141.45 c 0,0 0.959,-2.25 1.852,-2.64 0.893,-0.4 2.597,-0.24 3.027,1.1 0.429,1.34 0.1,2.04 -1.29,2.45 -1.389,0.41 -2.762,0 -3.589,-0.91 z"
         id="path19268" />
      <path
         id="path19270"
         style="fill:#252525;stroke:#000000;stroke-width:0.264583px"
         d="m 62.627,139.15 c -1.14,0.1 -1.541,1.35 -2.031,2.19 1.02,0.9 2.758,0.88 3.76,0 0.429,-0.91 -0.277,-2.18 -1.336,-2.16 -0.131,0 -0.261,0 -0.393,0 z" />
      <path
         id="path19274"
         style="fill:#ffffff;stroke:#000000;stroke-width:0.264583px"
         d="m 63.278,139.67 c -0.395,0 -0.557,0.47 -0.713,0.75 0.421,0.22 0.984,0.19 1.362,-0.1 0.111,-0.38 -0.255,-0.73 -0.649,-0.66 z" />
      <path
         id="path19279"
         style="fill:#999999;stroke-width:0.264583px"
         d="m 77.141,113.58 c -2.022,0.66 -3.241,2.69 -3.91,4.56 -1.426,3.74 -2.398,7.63 -3.293,11.53 -0.412,1.99 -0.725,4.05 -0.85,6.03 0.365,0.35 0.442,-0.66 0.66,-0.91 0.804,-2.17 1.83,-4.34 3.66,-5.83 1.638,-1.38 3.433,-2.67 4.481,-4.6 1.51,-2.45 1.428,-5.53 0.773,-8.24 -0.318,-0.87 -0.463,-2.01 -1.332,-2.52 h -0.1 z" />
      <path
         style="fill:#ffff00;stroke:#808080;stroke-width:0.264583px"
         d="m 68.496,137.12 c 0,0 1.323,-2.15 1.29,-4.43 -0.03,-2.29 0.03,-4.5 0.165,-6.98 0.133,-2.48 0.07,-2.65 0.07,-2.65 0,0 -4.994,13.26 -1.521,14.06 z"
         id="path19277" />
      <path
         style="fill:#ffff00;stroke:#808080;stroke-width:0.264583px"
         d="m 70.105,155.62 c 0,0 -2.508,0 -3.06,0.88 -0.552,0.88 0.04,1.65 0.358,1.27 0.32,-0.37 0.229,-0.53 0.813,-0.67 0.583,-0.14 1.889,-1.48 1.889,-1.48 z"
         id="path19290" />
      <path
         style="fill:#ffff00;stroke:#808080;stroke-width:0.264583px"
         d="m 81.56,150.46 c 0,0 -0.457,2.86 -3.356,4.48 -2.9,1.62 -4.7,2.93 -6.357,2.11 -1.656,-0.82 -2.648,-0.19 -3.115,0.55 -0.466,0.75 -0.291,1.32 -0.725,0.77 -0.433,-0.56 0.259,-1.74 0.492,-2.06 0.232,-0.33 1.265,-1.02 1.765,-1.08 0.5,-0.1 2.254,-0.96 2.38,-1.7 0.126,-0.74 0.184,-4.84 1,-5.81"
         id="path19266" />
      <path
         style="fill:#666666;stroke:#808080;stroke-width:0.264583px"
         d="m 138.48,140.23 c 0,0 -0.89,-3.14 -0.89,-5.36 v -2.22 l 0.43,0.27 0.33,-1.99 0.1,0.63 1.19,-3.07 0.1,0.66 c 0,0 1.25,-1.52 2.24,-2.12 1,-0.59 2.19,-1.02 2.19,-1.02 l -0.63,0.86 c 0,0 2.48,-0.73 4.43,-0.43 l 1.95,0.29 -1.35,0.37 1.91,0.96 1.72,0.86 h -1.05 c 0,0 0.33,0.91 1.27,1.27 0.94,0.37 1.14,0.37 1.14,0.37 0,0 -0.1,0.38 -0.76,0.21 -0.71,-0.16 -1.21,-0.38 -1.21,-0.38 0,0 0.1,0.45 1.18,0.81 1.09,0.37 1.78,0.37 1.78,0.37 0,0 -1.35,0.79 -2.28,0.19 l -0.93,-0.59 c 0,0 0.3,1.02 1.16,1.35 0.86,0.34 2.85,1.06 2.85,1.06 0,0 -1,0.73 -3.11,-0.56 -2.12,-1.29 -4.69,-2.64 -7.18,-1.82 -3.48,1.16 -3.93,8.85 -3.57,9 l -0.76,-0.53 -0.33,0.69 -0.5,-0.56 -0.69,0.66 v -1.59 z"
         id="path19339" />
    </g>
  </g>
</svg>
