<?xml version="1.0" encoding="utf-8"?>
<svg xmlns="http://www.w3.org/2000/svg" xmlns:dc="http://purl.org/dc/elements/1.1/"
     xmlns:xl="http://www.w3.org/1999/xlink"
     xmlns:xlink="http://www.w3.org/1999/xlink"
     version="1.1"
     viewBox="67.5 81 229.5 315"
     width="229.5"
     height="315"
     preserveAspectRatio="xMidYMid meet"
     zoomAndPan="magnify"
     contentScriptType="application/ecmascript"
     contentStyleType="text/css">
   <defs/>
   <metadata xmlns="" xmlns:svg="http://www.w3.org/2000/svg"
             xmlns:rdf="http://www.w3.org/1999/02/22-rdf-syntax-ns#"
             xmlns:cc="http://creativecommons.org/ns#">
      <rdf:RDF>
         <cc:Work rdf:about="">
            <dc:creator>
               <cc:Agent>
                  <dc:title>http://heraldicart.org Llama Statant.svg</dc:title>
               </cc:Agent>
            </dc:creator>
         </cc:Work>
      </rdf:RDF>
   </metadata>
   <g stroke-opacity="1" stroke-dasharray="none" stroke="#505050" fill="#ffff00"
      fill-opacity="1">
      <title>Llama Statant</title>
      <g>
         <title>Art</title>
         <g>
            <g>
               <g  id="outline-0">
                  <path
                        d="M 87.9335 83.393 C 87.26259 83.70792 86.11246 84.63898 85.38678 85.44681 C 84.82541 86.07664 84.71588 86.29571 84.71588 86.73386 C 84.71588 87.6923 85.05818 87.8703 86.93398 87.8703 C 87.71443 87.8703 88.57702 87.93876 88.86456 88.02091 C 89.56285 88.2126 90.23376 88.95196 91.27435 90.70454 C 91.76727 91.51237 92.32864 92.36128 92.52033 92.59404 C 92.71201 92.81311 93.12278 93.37449 93.41031 93.82632 C 93.71153 94.27816 94.39613 95.11337 94.93012 95.67475 C 96.73747 97.59163 98.07929 99.39898 99.10619 101.27478 C 99.31157 101.63077 99.7771 102.35645 100.16047 102.87675 C 100.53016 103.39704 100.99569 104.13641 101.20107 104.53348 C 101.39275 104.91686 101.61183 105.27285 101.69398 105.32762 C 101.76244 105.3687 101.88567 105.51931 101.96782 105.66992 C 102.07736 105.88899 101.96782 106.01222 101.18737 106.57359 C 100.68077 106.92959 99.95509 107.47727 99.58541 107.79218 L 98.88712 108.35356 L 97.35361 108.21664 C 94.86166 108.01126 93.83476 108.38094 91.0279 110.5032 C 90.26114 111.09196 89.4807 111.62595 89.31639 111.69441 C 89.08363 111.80394 81.55302 113.69344 76.842965 114.84357 C 76.17206 115.00788 75.555915 115.18587 75.47376 115.24064 C 75.4053 115.29541 74.93977 115.4871 74.44686 115.6651 C 72.365674 116.41815 70.98278 117.39029 70.2571 118.60888 C 69.68204 119.6084 69.35343 121.36097 69.4082 123.31893 C 69.449274 124.96197 69.43558 125.0852 69.07959 125.79719 C 68.53191 126.94732 68.28545 128.19329 68.3813 129.34342 C 68.46345 130.30186 68.47714 130.34294 69.02482 130.78108 C 69.33974 131.02754 69.7505 131.274 69.94219 131.31507 C 70.270795 131.39722 70.32556 131.52045 70.58571 132.6432 C 71.010165 134.43685 71.43462 135.23099 72.47521 136.18943 C 73.76226 137.36694 75.30946 138.35277 76.17206 138.54446 C 77.06204 138.74984 77.60972 138.62661 79.73198 137.7777 C 80.56719 137.4354 81.85424 136.99726 82.6073 136.80557 C 84.48311 136.29897 86.37261 136.38112 89.3027 137.07941 C 90.42545 137.35325 91.46604 137.57232 91.60296 137.57232 C 91.73988 137.57232 92.49294 138.20216 93.27339 138.96891 C 94.71105 140.40657 95.88856 141.46086 96.79224 142.14546 C 97.3673 142.56991 99.02404 144.50049 99.46218 145.23985 C 99.62648 145.5 99.88663 146.17091 100.05094 146.7186 C 100.33847 147.63596 100.33847 147.81395 100.20155 149.42961 C 100.09201 150.86727 99.96878 151.42865 99.44849 152.94846 C 98.35313 156.17978 94.38244 173.76033 93.82107 177.89532 C 93.7663 178.265 93.57461 179.4562 93.39662 180.53788 C 93.21862 181.63324 93.06801 183.0709 93.06801 183.79658 L 93.06801 185.08363 L 92.28756 184.70025 C 91.83573 184.48118 91.0142 184.23472 90.38437 184.13888 C 89.35747 183.97458 89.19317 183.98827 88.20734 184.24842 C 87.63228 184.41272 86.98875 184.6318 86.78337 184.74133 C 86.13985 185.06994 85.44155 185.97361 85.1814 186.79513 C 84.75695 188.13695 85.16771 188.47925 87.28998 188.49294 C 87.7555 188.50663 88.13888 188.5614 88.13888 188.62986 C 88.13888 188.68463 87.96088 189.19124 87.72812 189.72522 C 86.29046 193.2167 85.97554 195.17465 86.61907 196.51647 C 86.81075 196.88615 86.98875 197.22845 87.04352 197.26953 C 87.0846 197.3106 87.23521 197.55706 87.35844 197.8172 C 87.48166 198.07736 87.86504 198.59765 88.20734 198.98103 C 88.54964 199.35071 88.82348 199.7067 88.82348 199.77517 C 88.82348 199.82993 89.22055 200.35023 89.71346 200.9116 C 90.94574 202.32188 91.11005 202.85587 90.63083 203.828 C 90.35699 204.37568 89.68608 204.66322 88.59072 204.7043 C 87.96088 204.73168 87.83766 204.6906 87.4132 204.27984 C 86.76968 203.65 86.09877 202.25342 86.00293 201.36344 C 85.89339 200.227 85.83862 200.049 85.46894 199.66563 C 85.07187 199.28225 84.59265 199.11795 84.18189 199.25487 C 84.03127 199.29595 83.55205 199.69301 83.10022 200.11747 C 82.42931 200.77468 82.23762 201.06222 81.97747 201.84266 C 81.70363 202.67787 81.67625 202.9654 81.74471 204.1977 C 81.81317 205.47105 81.89532 205.92288 82.25131 207.19624 C 82.48408 208.04515 82.93591 209.11312 83.11391 209.25004 C 83.22345 209.3185 83.62051 209.77034 84.00389 210.23587 C 84.38727 210.7014 85.03079 211.30385 85.44155 211.59138 L 86.16723 212.09798 L 85.66062 212.5635 C 85.12664 213.04273 84.30511 214.49409 84.30511 214.94592 C 84.30511 215.08284 84.20927 215.54837 84.09973 215.98652 C 83.79851 217.12295 83.82589 218.944 84.1545 219.57383 C 84.29142 219.84767 84.4968 220.2995 84.62003 220.57334 C 84.86649 221.13472 85.59216 221.6824 86.68753 222.13423 C 87.46797 222.43546 87.38582 222.28485 87.78289 224.51664 C 87.91981 225.2697 88.16626 226.00907 88.46749 226.59783 C 89.01517 227.65212 89.08363 227.59735 87.44059 227.73427 C 86.49584 227.81642 86.37261 227.8575 86.23569 228.15872 C 86.03031 228.62425 86.044 229.3773 86.27677 229.82915 C 86.3863 230.03453 86.78337 230.50006 87.15305 230.84236 C 87.86504 231.51327 88.68656 231.84188 90.43914 232.18418 L 91.28804 232.36217 L 91.28804 233.53969 C 91.28804 236.03163 91.73988 240.94707 92.24649 244.23315 C 93.27339 250.73686 95.53257 257.3364 98.20251 261.62202 L 99.0925 263.0323 L 99.0925 264.31934 C 99.0925 265.18194 99.16096 265.7707 99.31157 266.113 C 99.4348 266.38684 99.54433 266.7976 99.57172 267.01667 C 99.66756 267.6465 100.18786 268.44064 101.50229 269.94676 C 101.96782 270.48075 102.25535 271.0969 103.2001 273.60253 C 110.27888 292.56598 112.1273 296.94743 116.70043 305.7651 C 118.1381 308.54457 119.04177 310.48883 119.52099 311.78957 C 121.52002 317.29377 122.56062 321.4972 123.51906 327.8914 C 124.08043 331.58823 124.61442 334.1897 124.95672 334.8743 C 125.20318 335.33985 125.43594 336.0792 126.07947 338.43424 C 126.25746 339.07777 126.43546 339.62545 126.49023 339.66652 C 126.545 339.7076 126.64084 340.00883 126.72299 340.35113 C 127.09267 342.00786 129.21494 349.27832 129.36555 349.38786 C 129.50247 349.4837 129.85846 350.60645 129.968 351.2363 C 130.07753 351.9209 130.62522 353.67346 130.74844 353.783 C 130.94013 353.9199 131.37828 355.90526 131.74796 358.4246 C 131.96703 359.82118 132.1861 360.9713 132.25457 360.9987 C 132.39149 361.06715 132.40518 367.0095 132.25457 367.07795 C 132.1998 367.09164 131.98073 369.14544 131.78904 371.6374 C 131.58366 374.11564 131.3372 376.3885 131.25505 376.67605 C 130.9949 377.4428 130.15969 378.3191 129.18755 378.8257 C 128.70833 379.07216 128.22911 379.3323 128.11958 379.38707 C 128.01004 379.44184 127.02421 379.6609 125.92885 379.8526 C 124.83349 380.058 123.91613 380.26336 123.87505 380.31813 C 123.75182 380.46874 123.20414 380.7426 122.99876 380.7426 C 122.64277 380.7426 121.65694 381.34503 121.3831 381.7284 C 121.24618 381.9338 120.6985 382.52254 120.1919 383.02915 C 118.76793 384.4531 117.86425 386.42477 118.32978 387.13675 L 118.53516 387.45167 L 126.92837 387.45167 C 134.32206 387.45167 135.40373 387.4243 136.00618 387.2326 C 136.69078 386.99983 137.56707 386.30154 137.56707 386.0003 C 137.56707 385.90447 137.64922 385.74017 137.74507 385.64432 C 137.99152 385.3705 138.1969 384.89126 138.51182 383.75483 C 138.77197 382.81008 138.79935 382.38562 138.79935 378.70247 C 138.79935 374.97824 138.93627 373.0066 139.2238 372.8012 C 139.36072 372.69167 140.4424 370.2408 140.4424 370.03542 C 140.4424 369.95327 140.593 369.77527 140.7847 369.62466 C 141.08592 369.3919 141.127 369.25498 141.127 368.5293 C 141.127 367.6393 140.86685 365.9278 140.70254 365.8183 C 140.64777 365.7772 140.51085 365.18845 140.38762 364.51754 C 140.2644 363.83294 140.00425 362.5459 139.81256 361.6422 C 139.62087 360.73854 139.42918 359.7938 139.3881 359.56103 C 139.34703 359.31457 139.25119 359.1092 139.19642 359.1092 C 139.12796 359.1092 139.07319 358.80797 139.07319 358.45197 C 139.07319 358.096 138.8952 356.80893 138.67612 355.61773 C 138.45705 354.41283 138.2106 352.9067 138.11475 352.2632 C 138.0189 351.61966 137.89568 351.07198 137.84091 351.0309 C 137.79983 350.98982 137.64922 350.25046 137.526 349.38786 C 136.8277 344.63673 136.8414 344.8832 136.8277 336.7912 C 136.814 329.10998 136.814 329.02783 137.19738 325.8376 C 137.41646 324.0713 137.63553 322.51043 137.6903 322.3598 C 137.75876 322.1955 138.15583 323.2087 138.97735 325.6459 C 140.22332 329.3838 140.38762 330.0821 141.55145 336.72274 C 142.04436 339.58437 142.18128 340.14575 142.63312 341.1042 C 143.45464 342.8157 143.57787 343.158 144.16662 345.41717 C 144.46785 346.581 144.75538 347.5668 144.81015 347.6079 C 144.85122 347.64897 145.09768 348.41573 145.35783 349.3194 C 146.06981 351.8798 146.24781 352.46856 146.34365 352.53702 C 146.4258 352.5918 147.49378 356.11064 147.65809 356.8774 C 147.69916 357.0554 147.78132 357.1923 147.83608 357.1923 C 147.89085 357.1923 148.01408 357.47984 148.09623 357.83583 C 148.17838 358.2055 148.34269 358.71212 148.45222 358.97227 C 148.56176 359.2324 148.78083 360.68377 148.95883 362.1899 C 149.39697 366.03735 149.39697 371.71954 148.95883 376.49806 C 148.42484 382.31716 148.39746 382.38562 146.69965 383.53575 C 145.5769 384.3025 144.8786 384.54896 142.77004 384.91865 C 141.60621 385.11034 140.63408 385.3431 140.6067 385.41156 C 140.57931 385.48 140.49716 385.5348 140.4287 385.5348 C 140.34655 385.5348 139.89471 385.72648 139.41549 385.94555 C 137.49861 386.83553 134.55482 390.4913 134.55482 391.95635 C 134.56852 393.16124 133.76069 393.0654 143.92017 393.0654 C 148.91775 393.0654 152.90213 393.01063 152.90213 392.94217 C 152.90213 392.8874 153.18966 392.7505 153.54566 392.65464 C 154.20287 392.46295 155.09285 391.80573 155.09285 391.4908 C 155.09285 391.3813 155.175 391.21698 155.28454 391.12113 C 155.47623 390.92944 155.59946 390.58714 156.0513 389.03995 C 156.29775 388.19104 156.32514 387.7118 156.32514 383.7822 C 156.32514 379.4829 156.44836 377.90833 156.80436 377.53865 C 156.99604 377.36065 158.1051 374.74548 158.1051 374.499 C 158.1051 374.41687 158.25571 374.2115 158.4474 374.0335 C 158.74862 373.75965 158.7897 373.59535 158.7897 372.8286 C 158.7897 371.91123 158.52955 370.18604 158.37894 370.0628 C 158.32417 370.02173 158.17356 369.3782 158.05033 368.62515 C 157.62588 366.1606 156.96866 363.0114 156.87282 362.94296 C 156.81805 362.9019 156.7359 362.5596 156.68113 362.1899 C 156.62636 361.8065 156.3799 360.24563 156.11975 358.69843 C 155.8733 357.15123 155.62684 355.53557 155.57207 355.09743 C 155.5173 354.67298 155.42146 354.317 155.3667 354.317 C 155.31193 354.317 155.22977 354.02945 155.1887 353.65977 C 155.14762 353.30378 154.95593 351.78396 154.76424 350.27784 C 154.25764 346.27977 154.13441 343.93843 154.13441 338.26994 C 154.13441 333.27235 154.1481 333.13543 154.6821 328.28846 C 154.98332 325.57744 155.22977 323.19503 155.22977 322.97595 C 155.22977 322.7569 155.31193 322.5515 155.40777 322.51043 C 155.64053 322.44196 155.64053 313.00816 155.40777 312.85755 C 155.31193 312.8028 155.12024 311.85803 154.95593 310.77636 C 154.79163 309.681 154.54517 308.10642 154.40825 307.2849 C 154.27133 306.4497 154.10703 304.9025 154.05226 303.82082 C 153.9975 302.75284 153.91534 301.87655 153.86057 301.87655 C 153.8058 301.87655 153.72365 301.24672 153.66888 300.46627 C 153.53196 298.30294 153.18966 295.37284 152.88844 293.9078 C 152.57352 292.3469 152.58721 292.3606 152.80629 292.5386 C 153.14859 292.81244 154.79163 293.12735 156.3936 293.2095 C 157.7491 293.27796 158.18725 293.25058 158.72124 293.0589 C 159.09092 292.93566 159.50168 292.83982 159.6386 292.83982 C 159.78922 292.83982 159.9946 292.75767 160.10413 292.64813 C 160.19998 292.5386 160.43274 292.3332 160.61074 292.1963 C 161.04888 291.8403 161.5281 290.9777 161.5281 290.51218 C 161.5281 290.1562 161.59656 290.08772 162.11686 289.9508 C 162.82884 289.7591 163.95159 289.86865 164.54035 290.16988 C 164.7868 290.3068 165.2934 290.67648 165.6494 291.01878 C 166.38877 291.70338 166.81322 292.78505 166.69 293.67503 C 166.55307 294.743 165.1428 296.09852 163.54083 296.70097 C 162.58239 297.07065 162.48654 297.1665 162.48654 297.81002 C 162.48654 298.67262 163.00684 299.42568 163.86944 299.80906 C 164.52665 300.11028 164.69096 300.12397 166.1697 300.0555 C 167.04599 300.00075 168.12766 299.8775 168.5795 299.7543 C 169.9213 299.3983 172.1668 297.81002 172.61864 296.87897 C 172.72817 296.6599 172.96094 296.39974 173.13893 296.3313 C 173.34431 296.23544 173.49493 296.00268 173.60446 295.6056 C 173.68662 295.2907 173.79615 295.00316 173.83723 294.9621 C 173.892 294.9347 174.3986 295.33177 174.95997 295.83837 L 175.97318 296.76943 L 177.69838 297.1391 C 179.3825 297.4814 181.2446 297.61833 181.2446 297.37188 C 181.2446 297.3171 181.53214 297.22127 181.87444 297.1802 C 182.9835 297.05696 184.25685 295.89314 184.25685 295.00316 C 184.25685 294.64717 183.55856 293.48334 183.38056 293.52442 C 183.22995 293.5518 182.01136 293.3601 181.51845 293.2369 C 181.23092 293.16843 180.68324 292.78505 180.16294 292.30583 C 179.31403 291.5254 179.30034 291.4843 179.3825 290.9777 C 179.51942 290.16988 179.73849 289.55374 179.8891 289.55374 C 179.95756 289.55374 180.01233 289.4442 180.01233 289.2936 C 180.01233 288.82806 180.38201 288.70483 182.1209 288.5816 C 183.18888 288.51314 184.3664 288.32145 185.32483 288.075 L 186.84465 287.67793 L 186.43388 288.19823 C 186.20112 288.49945 185.95466 288.7596 185.8862 288.81437 C 185.66713 288.9513 184.80453 290.8134 184.7087 291.3337 C 184.66761 291.59385 184.64023 291.9909 184.64023 292.22368 C 184.65392 292.44275 184.65392 292.93566 184.65392 293.31904 C 184.66761 294.79778 185.57129 296.23544 187.17325 297.28973 C 187.5977 297.57726 187.9537 297.8511 187.9537 297.89217 C 187.9537 297.98802 189.3229 298.45355 190.3635 298.7137 C 191.32194 298.96015 192.45837 298.8917 193.36205 298.5357 C 194.26572 298.166 195.23785 297.41295 195.63492 296.75574 C 195.89507 296.3313 195.99091 295.4413 195.78553 295.4413 C 195.73077 295.4413 195.62123 295.3044 195.55277 295.14008 C 195.37477 294.72932 194.85448 294.48286 194.15618 294.48286 C 193.66327 294.48286 193.48527 294.38702 192.80067 293.77088 C 191.9107 292.94936 191.65054 292.44275 191.65054 291.5117 C 191.65054 290.67648 192.04761 289.89604 192.96498 288.9102 C 193.73173 288.0887 194.15618 287.9244 195.55277 287.9107 C 196.55229 287.9107 197.0452 288.18453 196.94936 288.67745 C 196.92197 288.85544 196.94936 289.00605 197.00412 289.00605 C 197.07258 289.00605 197.12735 289.14297 197.12735 289.30728 C 197.12735 290.1014 198.35963 291.26524 199.37284 291.42954 C 199.68776 291.4843 199.9753 291.5117 200.04375 291.498 C 200.09852 291.4843 200.1396 291.53908 200.1396 291.60754 C 200.1396 291.8403 201.91956 291.75815 203.35722 291.45693 C 204.87703 291.12832 205.31518 290.95032 206.05455 290.3205 C 206.3284 290.08772 206.90345 289.6222 207.31421 289.2799 C 207.73867 288.9376 208.10835 288.54053 208.16312 288.3899 C 208.2042 288.2393 208.39588 287.96546 208.5602 287.77377 C 209.0531 287.2398 209.35432 286.1855 209.32694 285.1312 C 209.29956 284.2823 209.32694 284.20016 209.54601 284.2686 C 209.68293 284.3097 210.49076 284.43292 211.32598 284.55615 C 212.55826 284.73414 213.06486 284.74784 213.81792 284.6383 C 214.33822 284.55615 214.85852 284.4603 214.96805 284.41923 C 215.11866 284.35077 215.35143 285.07645 216.0771 288.00654 C 217.21354 292.5523 218.07614 295.7836 218.70597 297.8785 C 218.97981 298.75477 219.21258 299.5763 219.23996 299.7132 C 219.30842 300.02813 220.14364 302.301 221.01992 304.47804 C 221.417 305.49125 221.78668 306.51815 221.84145 306.7646 C 221.88252 306.99737 222.01944 307.2712 222.12898 307.36705 C 222.40282 307.58612 222.4439 307.69566 224.57985 313.3094 C 229.42682 326.05666 230.78233 329.16475 234.06842 334.94278 C 234.71194 336.06552 235.43762 337.4621 235.69777 338.0235 C 235.95792 338.58486 236.5056 339.7213 236.91636 340.5565 C 237.3819 341.50126 237.7242 342.40493 237.82003 342.98 C 237.91588 343.5003 238.0391 343.91105 238.08018 343.91105 C 238.13495 343.91105 238.2171 344.1712 238.27187 344.4861 C 238.31294 344.81472 238.44987 345.3761 238.5457 345.75947 C 238.65525 346.12916 238.9291 347.15606 239.16185 348.01866 C 239.39461 348.88125 239.66845 349.77123 239.778 350.004 C 239.87384 350.22307 240.17506 351.1815 240.4489 352.11257 C 240.72274 353.04363 241.03766 353.89253 241.1472 354.00207 C 241.25673 354.1116 241.35257 354.3033 241.35257 354.42652 C 241.35257 354.68667 242.1878 357.3977 242.92716 359.50626 C 243.26946 360.4647 243.557 361.75175 243.8582 363.5454 C 244.09098 364.98307 244.35113 366.20166 244.41959 366.25643 C 244.65235 366.40704 244.62497 374.8824 244.4059 374.96455 C 244.31005 374.99193 244.2279 375.211 244.2279 375.44377 C 244.2416 376.53913 243.77606 381.7147 243.61176 382.46778 C 243.15992 384.5079 241.6401 385.4937 237.95695 386.13724 C 236.355 386.4111 235.6293 386.60277 234.87625 386.97245 C 233.90411 387.438 232.0283 388.86195 231.64493 389.4233 C 231.5354 389.57393 231.1931 390.0121 230.87818 390.39546 C 229.9882 391.4908 229.68697 392.14803 229.75543 392.84633 C 229.7965 393.18863 229.86497 393.51724 229.91974 393.5994 C 229.9745 393.70892 232.7266 393.75 239.02493 393.75 C 247.8289 393.75 248.07535 393.7363 248.81472 393.46247 C 249.33502 393.2708 249.67732 393.0243 249.93747 392.682 C 250.15654 392.4082 250.36192 392.14803 250.403 392.10696 C 250.44407 392.0659 250.62207 391.7236 250.80007 391.3539 C 251.53944 389.72455 251.53944 389.72455 251.6216 384.71327 C 251.69005 380.15383 251.70374 379.96214 252.01866 379.23646 C 252.19665 378.8257 252.49788 378.1137 252.68956 377.6619 C 252.88125 377.21004 253.07294 376.81297 253.11402 376.7719 C 253.1688 376.7308 253.34678 376.47067 253.4974 376.19683 C 254.004 375.32054 254.03138 374.30733 253.59324 371.9934 C 253.38786 370.85694 253.1688 369.9259 253.10033 369.9259 C 253.04556 369.9259 252.9908 369.77527 252.9908 369.5973 C 252.9908 369.28236 252.75803 368.10485 252.22404 365.8183 C 252.1145 365.32537 251.9365 364.408 251.84066 363.7645 C 251.40252 361.02607 251.01914 358.9038 250.937 358.83535 C 250.88222 358.79428 250.759 358.17813 250.66315 357.46615 C 250.5673 356.75416 250.44407 356.13802 250.3893 356.09695 C 250.33454 356.05587 250.19762 355.2891 250.0607 354.37175 C 249.84162 352.87932 249.82793 351.98934 249.91009 345.4035 C 249.95116 341.37803 250.00593 337.40734 250.00593 336.58582 C 250.0333 334.68263 249.80055 331.9579 249.5267 330.6298 C 249.40348 330.0684 249.15702 328.79506 248.96534 327.82293 C 248.77365 326.8371 248.3355 324.98868 247.9932 323.71532 C 247.44552 321.66152 246.89784 318.52605 246.50077 315.08935 L 246.4323 314.40475 L 246.70615 314.9798 C 246.85676 315.30842 247.06215 315.56857 247.158 315.56857 C 247.26753 315.56857 247.56875 315.89718 247.8289 316.28056 C 250.9096 320.93584 253.38786 324.89284 255.2089 328.0694 C 257.63238 332.3002 257.605 332.25914 258.53606 334.32664 C 258.89205 335.12077 259.53557 336.50367 259.9874 337.40734 C 260.5077 338.46163 260.85 339.379 260.95954 339.98144 C 261.0554 340.48805 261.17862 340.8988 261.2197 340.8988 C 261.27446 340.8988 261.3566 341.15895 261.41138 341.47387 C 261.45246 341.8025 261.58938 342.36385 261.68522 342.74723 C 261.79476 343.1169 262.0686 344.1438 262.30136 345.0064 C 262.53413 345.869 262.80797 346.759 262.9175 346.99176 C 263.01335 347.21083 263.31457 348.16927 263.5884 349.10033 C 263.86225 350.0314 264.17717 350.8803 264.2867 350.98982 C 264.39624 351.09936 264.4921 351.29105 264.4921 351.41428 C 264.4921 351.67443 265.3273 354.38545 266.06667 356.494 C 266.40897 357.45246 266.6965 358.7395 266.99772 360.53316 C 267.2305 361.97082 267.49064 363.1894 267.5591 363.2442 C 267.79186 363.3948 267.76448 371.87015 267.5454 371.9523 C 267.44956 371.9797 267.3674 372.19876 267.3674 372.43153 C 267.3811 373.5269 266.91557 378.70247 266.75127 379.45553 C 266.29943 381.49564 264.77962 382.48147 261.09646 383.125 C 259.4945 383.39883 258.76882 383.5905 258.01576 383.9602 C 257.04363 384.42574 255.16782 385.8497 254.78444 386.4111 C 254.6749 386.5617 254.3326 386.99983 254.0177 387.3832 C 253.1277 388.47857 252.8265 389.1358 252.89495 389.8341 C 252.93602 390.1764 253.00448 390.505 253.05925 390.58714 C 253.11402 390.6967 255.8661 390.73776 262.16444 390.73776 C 270.9684 390.73776 271.21487 390.72406 271.95424 390.45022 C 272.47453 390.25854 272.81683 390.0121 273.07698 389.6698 C 273.29605 389.39594 273.50143 389.1358 273.5425 389.0947 C 273.5836 389.05364 273.76158 388.71134 273.93958 388.34165 C 274.67895 386.7123 274.67895 386.7123 274.7611 381.70102 C 274.82956 377.1416 274.84325 376.9499 275.15817 376.2242 C 275.33616 375.81346 275.6374 375.10147 275.82908 374.64963 C 276.02077 374.1978 276.21245 373.80073 276.25353 373.75965 C 276.3083 373.71858 276.4863 373.45843 276.6369 373.1846 C 277.1435 372.3083 277.1709 371.2951 276.73275 368.98114 C 276.52737 367.8447 276.3083 366.91364 276.23984 366.91364 C 276.18507 366.91364 276.1303 366.76303 276.1303 366.58503 C 276.1303 366.2701 275.89754 365.0926 275.36355 362.80604 C 275.254 362.31312 275.076 361.39576 274.98017 360.75223 C 274.54203 357.98645 274.15865 355.89157 274.0765 355.8231 C 274.02173 355.78203 273.8985 355.1522 273.80266 354.41283 C 273.69312 353.68715 273.5699 353.0847 273.52882 353.0847 C 273.47405 353.0847 273.3919 352.79717 273.35082 352.4275 C 273.29605 352.0715 273.17283 351.07198 273.0496 350.2094 C 272.74837 348.03235 272.43346 344.10274 272.43346 342.52816 C 272.43346 341.8025 272.5567 340.4196 272.7073 339.44745 C 273.30975 335.422 273.3782 332.08115 272.8853 329.12367 C 272.62514 327.5217 271.91316 324.98868 270.72195 321.38768 C 269.69505 318.30698 268.20262 312.84386 267.43587 309.3387 C 267.16203 308.05165 266.8745 306.88783 266.81973 306.73722 C 266.75127 306.5866 266.57327 305.81985 266.40897 305.0257 C 266.24466 304.23158 266.05298 303.369 265.9845 303.09514 C 265.91606 302.8213 265.8613 302.34208 265.8613 302.04086 C 265.8613 301.73963 265.80652 301.4521 265.73806 301.41102 C 265.6696 301.36995 265.58745 301.01396 265.53268 300.6169 C 265.4916 300.21982 265.39576 299.5489 265.3273 299.13815 C 265.1493 298.11125 265.1493 292.0183 265.3136 290.16988 C 265.45053 288.84175 265.61483 288.19823 266.76496 284.69307 C 269.02414 277.84706 269.72244 275.06758 270.54396 269.74138 C 270.95472 267.05775 270.9821 266.647 271.02318 262.40246 C 271.07795 258.2264 271.09164 257.91148 271.3107 257.99363 C 271.8584 258.2264 272.99483 258.2264 273.87112 257.99363 C 275.34986 257.58287 275.89754 256.6792 275.34986 255.52907 C 275.22663 255.26892 275.076 255.04985 275.02125 255.04985 C 274.85694 255.04985 274.62418 254.1051 274.62418 253.44788 C 274.62418 252.61267 275.0897 251.27085 275.67846 250.42194 C 276.1303 249.76473 276.19876 249.54566 276.23984 248.72413 C 276.2809 248.21753 276.34937 247.79308 276.40414 247.79308 C 276.59583 247.79308 277.1709 248.66937 277.41735 249.3129 C 277.6501 249.91534 277.6501 249.9701 277.37628 250.80532 C 277.0066 251.94176 277.0066 252.95497 277.37628 253.4068 C 277.63642 253.72172 277.77334 253.7491 279.0604 253.79018 C 281.6071 253.88603 282.37386 253.4342 283.74306 251.0107 C 284.0032 250.54517 284.31813 248.91582 284.44136 247.34124 C 284.50982 246.42388 284.5509 246.28696 284.74258 246.3691 C 284.8658 246.42388 285.30395 246.49234 285.7421 246.5334 C 287.15238 246.64295 288.04236 245.8488 288.04236 244.43853 C 288.04236 244.01408 287.9465 243.72655 287.71375 243.4527 C 286.769 242.31627 286.83746 241.83705 288.39835 238.70158 C 288.79542 237.89375 288.86388 237.60622 288.86388 236.81208 C 288.86388 235.33334 288.59004 233.95045 288.22035 233.4986 C 288.01497 233.25215 287.90544 232.96462 287.93282 232.74555 L 287.9739 232.38956 L 289.20618 232.43063 C 290.63015 232.45802 291.68444 232.19787 292.16366 231.69126 C 292.32796 231.51327 292.56072 231.36265 292.65657 231.36265 C 293.1358 231.36265 295.03898 228.81594 295.39497 227.6658 C 295.5045 227.3235 295.64143 226.92644 295.7099 226.77583 C 296.07957 225.89954 296.29865 223.28436 295.99742 223.28436 C 295.94265 223.28436 295.8468 222.99683 295.80573 222.65453 C 295.6825 221.46332 294.4776 220.21735 293.53286 220.2995 C 292.9167 220.35427 292.5744 220.8198 292.4375 221.8604 C 292.2321 223.25698 292.01304 223.83204 291.46536 224.4345 C 290.94507 224.99587 289.95924 225.47509 289.30202 225.47509 C 288.8091 225.47509 287.9602 224.98217 287.6042 224.48926 C 287.04284 223.70882 286.97438 223.46236 286.81008 221.88778 C 286.72792 221.03887 286.591 220.1489 286.52254 219.92982 C 286.46778 219.69705 286.34455 218.95769 286.2624 218.28678 C 286.0707 216.7122 285.64625 215.06915 285.2355 214.24763 C 284.78366 213.37134 283.8252 212.5635 282.70247 212.11168 C 281.9494 211.82414 281.51126 211.50923 280.4159 210.49602 C 279.01932 209.18158 275.99338 206.68964 274.85694 205.92288 C 273.2413 204.81383 270.74934 203.96492 268.49015 203.77324 C 267.874 203.71847 267.32633 203.60893 267.28526 203.55416 C 267.24418 203.4857 266.42266 203.43094 265.46422 203.43094 C 263.6295 203.43094 263.39672 203.36248 263.39672 202.7874 C 263.39672 202.22604 262.99966 202.15758 260.26125 202.23973 C 258.139 202.2945 257.49546 202.36296 256.4138 202.6505 C 255.68812 202.84218 254.8666 203.1571 254.57906 203.34878 C 253.96292 203.77324 253.74385 203.78693 253.55216 203.472 C 253.45632 203.29402 253.4974 203.08864 253.71647 202.70526 C 254.07246 202.06173 253.93554 201.7742 253.18248 201.6099 C 251.48467 201.24021 250.19762 201.7879 246.89784 204.25246 C 245.69294 205.14244 244.5839 205.8818 244.43328 205.8955 C 244.29636 205.8955 242.5027 205.0192 240.47628 203.95123 C 229.78282 198.3649 228.13977 197.68029 224.05955 197.26953 C 221.82775 197.03676 213.1881 197.16 210.68245 197.46122 C 209.66924 197.58444 207.3553 197.85828 205.54794 198.07736 C 203.7406 198.29643 201.8648 198.5155 201.37188 198.57027 C 200.56405 198.63873 197.88041 199.06318 196.5112 199.32333 C 195.47062 199.5287 190.89748 200.30916 188.50138 200.69253 C 183.96932 201.4182 183.46272 201.4456 178.64313 201.11698 C 161.78825 199.99424 158.55693 199.93947 152.28599 200.761 C 149.84881 201.0759 149.30113 201.1033 143.29033 201.1033 C 136.36217 201.1033 134.65067 200.99376 133.0487 200.45977 C 131.5015 199.95316 129.85846 198.78934 128.90002 197.51598 C 128.53034 197.03676 127.98266 195.55802 127.98266 195.05142 C 127.98266 194.79127 128.02373 194.80496 128.32496 195.21572 C 128.51664 195.47587 128.99587 195.88663 129.37924 196.1331 C 130.03646 196.54385 130.18707 196.58493 131.21397 196.58493 C 132.76117 196.58493 133.11716 196.48908 133.77438 195.88663 C 134.0756 195.5854 134.39052 195.35264 134.44529 195.35264 C 134.50006 195.35264 134.62328 195.0925 134.70544 194.76389 C 134.80128 194.44897 134.92451 194.13405 134.99297 194.0656 C 135.04774 193.98344 135.1025 193.57268 135.1025 193.13454 C 135.1025 192.44994 135.06143 192.31302 134.7602 192.12133 C 134.4179 191.90226 133.71961 191.90226 133.14455 192.13502 C 132.93917 192.21717 133.00763 191.9981 133.47316 191.09443 C 133.78807 190.4646 134.15776 189.61569 134.29468 189.20493 C 134.65067 188.17803 134.63698 186.61714 134.2673 185.52177 C 134.10299 185.05625 134.00714 184.59072 134.04822 184.49487 C 134.10299 184.35795 134.40421 184.33057 135.2805 184.37165 C 136.63601 184.4401 137.77245 184.16626 138.26536 183.63228 C 138.42967 183.45428 138.66243 183.30367 138.75827 183.30367 C 138.97735 183.30367 140.1001 182.12615 140.48347 181.48263 C 141.38714 180.0039 141.40083 179.9765 141.40083 178.443 C 141.40083 176.47135 140.9353 174.89677 140.12748 174.10263 C 139.52503 173.52757 138.99104 173.41803 138.62135 173.8151 C 138.51182 173.95202 138.27905 174.43124 138.10106 174.88308 C 137.62184 176.18382 137.1837 176.85473 136.59494 177.14226 C 135.55434 177.67625 133.66484 177.37502 132.98024 176.5672 C 132.66533 176.1975 132.63794 176.0469 132.63794 174.91046 C 132.63794 173.84248 132.69271 173.52757 133.00763 172.7882 L 133.391 171.9119 L 134.65067 172.00775 C 136.54017 172.14467 136.86878 172.06252 137.89568 171.10408 C 138.44336 170.58378 138.81304 170.13195 138.86781 169.88549 C 138.92258 169.65272 139.01842 169.44734 139.08688 169.40627 C 139.29226 169.26935 139.2238 168.1466 138.99104 167.91384 C 138.68981 167.59892 137.81353 167.64 137.15631 167.9823 C 136.814 168.1603 136.54017 168.22875 136.4717 168.1603 C 136.33479 168.02337 136.44432 167.42093 136.60863 167.42093 C 136.814 167.42093 137.93675 165.81896 138.12844 165.2302 C 138.26536 164.80575 138.32013 164.039 138.30644 162.76564 C 138.29275 160.9583 138.25167 160.7666 137.73137 159.71232 C 137.70399 159.64386 137.79983 159.65755 137.95045 159.7397 C 138.41597 159.98616 139.81256 159.9177 140.63408 159.61647 C 141.20915 159.3974 141.59252 159.09618 142.34558 158.31573 C 143.5231 157.06976 143.79694 156.54946 144.07078 155.01596 C 144.50892 152.51032 144.26247 150.83989 143.33141 149.99099 C 142.8248 149.52546 141.86636 149.21054 141.55145 149.40223 C 141.48299 149.457 141.25022 149.99099 141.05853 150.62082 C 140.55193 152.1817 140.23701 152.67462 139.42918 153.20861 C 138.81304 153.60568 138.63505 153.66045 137.89568 153.63306 C 136.59494 153.60568 135.88295 153.16753 135.03405 151.8394 L 134.65067 151.25065 L 134.47267 146.08876 C 134.29468 140.55718 134.18514 138.83199 134.00714 137.81878 C 133.71961 136.32635 133.44577 128.78205 133.48685 123.74338 C 133.52792 118.2392 133.48685 117.80105 132.81594 116.47292 C 132.65163 116.11693 132.50102 115.73355 132.50102 115.62402 C 132.50102 115.29541 130.62522 112.84454 129.29709 111.44795 C 127.74989 109.8323 126.73668 109.07923 124.35427 107.77849 C 121.82125 106.3956 121.41049 106.12176 121.41049 105.83422 C 121.41049 105.60146 120.47943 102.93152 119.69898 100.94617 C 119.4936 100.41218 119.17869 99.59066 118.987 99.09775 C 118.79531 98.60484 118.56255 98.11193 118.4804 98.00239 C 118.38455 97.89285 118.08333 97.42732 117.80949 96.97549 C 117.24811 96.01705 115.96106 94.74369 114.76986 93.94955 C 113.98941 93.42925 111.48377 91.9779 111.36054 91.9779 C 111.33316 91.9779 110.53902 91.51237 109.60797 90.93731 C 106.77372 89.18473 105.07591 87.8566 103.14533 85.85757 C 102.39227 85.07712 101.50229 84.2556 101.15999 84.02284 C 100.55754 83.62577 100.47539 83.59839 99.51695 83.66685 C 98.76389 83.72161 98.4079 83.81746 98.14775 84.03653 C 97.95606 84.18714 97.50422 84.50206 97.14823 84.73482 C 95.72426 85.65219 95.3135 86.70647 96.06656 87.47323 C 96.40886 87.81553 96.57316 87.8703 97.203 87.8703 C 98.61327 87.88399 100.29739 88.11675 100.84507 88.40428 C 101.6529 88.81504 102.20058 89.54072 103.3781 91.82729 C 104.29546 93.59356 104.405 93.88109 104.13116 93.77156 C 102.59765 93.1828 99.92771 91.84098 98.84604 91.1153 C 98.07929 90.59501 96.54578 89.30796 95.20396 88.04829 C 90.49391 83.65315 90.06945 83.32454 89.04255 83.25608 C 88.64549 83.2287 88.16626 83.29716 87.9335 83.393 Z"
                        fill="black"/>
               </g>
            </g>
            <g>
               <path d="M 89.72715 84.61159 C 90.17899 84.9539 92.72571 87.24046 95.25873 89.59549 C 97.80545 91.95052 99.33895 92.90896 103.26856 94.59308 C 104.87053 95.27768 107.78693 97.26302 109.08767 98.55007 C 110.0735 99.5359 110.7444 100.69972 111.67546 103.04105 C 111.99038 103.8078 112.38745 104.6841 112.57913 104.98532 C 113.05835 105.73838 115.48184 110.74966 116.34444 112.7487 C 117.13858 114.6245 117.2755 114.8025 117.72733 114.56973 C 118.1244 114.35066 118.02856 113.73452 117.38503 112.33793 C 117.11119 111.76287 116.35813 110.06506 115.7146 108.57263 C 115.05739 107.09389 114.38648 105.58777 114.20848 105.21808 C 113.82511 104.46502 113.81142 104.46502 115.29015 104.79363 C 117.91902 105.38239 120.79435 106.69682 124.53227 109.01077 C 126.40807 110.1609 126.96945 110.58535 127.9005 111.57118 C 128.99587 112.72131 131.36458 116.02109 131.74796 116.93845 C 131.8438 117.18491 132.04919 118.11597 132.1998 119.01964 C 132.45995 120.53945 132.47364 121.04606 132.40518 125.72873 C 132.35041 129.2065 132.3778 131.20554 132.48733 132.09552 C 132.84332 135.09407 133.48685 144.33618 133.5553 147.70442 C 133.62377 151.3328 133.62377 151.3328 134.00714 152.15432 C 134.52744 153.24969 135.18466 153.98905 136.07464 154.48197 C 136.74555 154.85165 136.92354 154.89273 137.99152 154.86534 C 138.78566 154.86534 139.33334 154.7832 139.66195 154.61889 C 140.6067 154.18074 141.70206 152.524 142.11282 150.96312 C 142.19497 150.60713 142.3182 150.3059 142.37297 150.3059 C 142.6468 150.3059 143.22187 151.04527 143.39987 151.62034 C 144.15293 154.13967 142.70158 157.43944 140.37393 158.46635 C 139.66195 158.76757 139.41549 158.80865 138.45705 158.76757 C 137.3343 158.7128 137.01939 158.60327 135.71865 157.83651 C 134.89713 157.3573 134.81497 157.3436 134.58221 157.6996 C 134.4316 157.94605 134.45898 158.0282 134.7602 158.28835 C 136.3211 159.60278 136.78662 160.28738 137.17 161.8072 C 137.59445 163.46393 137.49861 164.23069 136.63601 165.88742 C 135.84187 167.462 135.47219 167.76323 135.02035 167.20185 C 134.17145 166.16126 134.10299 165.87373 134.02084 163.29963 C 133.95238 161.13629 133.9113 160.84876 133.66484 160.57492 C 133.391 160.2737 132.5284 159.82186 132.41887 159.9314 C 132.39149 159.95878 132.45995 160.17785 132.58317 160.4243 C 132.8844 161.02675 133.17193 162.77933 133.29516 164.81944 C 133.4047 166.4351 133.43208 166.5994 133.88392 167.43462 C 134.67805 168.85859 136.00618 169.47473 137.32061 169.03658 C 138.08737 168.77644 138.25167 168.8449 138.25167 169.41996 C 138.25167 169.80334 138.15583 169.95395 137.6766 170.30994 C 136.19787 171.4053 135.18466 171.50115 133.51423 170.7207 C 132.21349 170.10456 131.87119 169.74857 131.52889 168.58475 C 131.03598 166.90063 130.89906 166.54464 130.66629 166.39402 C 130.51568 166.29818 130.39245 166.32556 130.25553 166.46248 C 130.09123 166.62679 130.07753 166.7774 130.20076 167.284 C 130.58414 168.87228 130.78952 169.3515 131.5015 170.30994 L 132.25457 171.29577 L 131.99442 172.06252 C 131.80273 172.66497 131.74796 173.25373 131.74796 174.8283 C 131.74796 177.14226 131.73427 177.10118 133.11716 177.9364 C 133.8976 178.41562 134.00714 178.443 135.12989 178.443 C 135.89664 178.443 136.37586 178.38823 136.49909 178.265 C 136.58124 178.18285 136.77293 178.1007 136.89616 178.1007 C 137.01939 178.1007 137.44384 177.82686 137.81353 177.48456 C 138.51182 176.85473 138.79935 176.27966 139.01842 175.04738 C 139.11427 174.44493 139.2375 174.41755 139.60718 174.89677 C 140.14117 175.58137 140.37393 176.5535 140.37393 178.23762 C 140.36024 180.1682 140.15486 180.6885 138.8952 181.92077 C 137.75876 183.02983 136.88247 183.37213 135.40373 183.2626 C 134.04822 183.16675 132.74748 182.75599 132.04919 182.19461 C 131.59735 181.82493 131.44674 181.77016 131.14551 181.8797 C 130.58414 182.08508 130.72106 182.3863 131.6795 183.12567 C 132.8844 184.04304 133.25408 184.70025 133.54162 186.31591 C 133.84284 188.08218 133.76069 188.78048 133.08978 190.16337 C 132.3778 191.6558 132.04919 192.05287 131.72058 191.84749 C 131.58366 191.76534 131.3372 191.4641 131.1592 191.16289 C 130.87167 190.68367 130.85798 190.53305 130.94013 189.602 C 131.25505 186.53498 130.88536 184.8098 129.91323 184.8098 C 129.16017 184.8098 129.06433 185.24793 129.69416 185.76823 C 130.32399 186.28853 130.57045 187.83573 130.24184 189.17754 C 129.98169 190.23183 130.03646 190.56044 130.67998 191.8338 C 131.14551 192.77854 131.66581 193.06608 132.7064 192.95654 C 134.23991 192.79224 134.21252 192.77854 134.2536 193.1893 C 134.34944 193.96975 133.4047 195.21572 132.44625 195.5854 C 131.37828 195.98248 129.70785 195.5991 129.07802 194.80496 C 127.9005 193.31253 126.95575 190.69736 126.79145 188.42448 C 126.72299 187.56189 126.77776 187.26066 127.2159 185.8367 C 127.81835 183.9472 127.81835 183.64597 127.2296 183.64597 C 126.84622 183.64597 126.80514 183.70074 126.43546 184.74133 C 125.5044 187.3702 125.49071 188.50663 126.28485 191.6421 C 126.545 192.64162 126.75037 193.6959 126.75037 193.96975 C 126.75037 194.88712 127.16113 196.51647 127.66774 197.54337 C 128.35234 198.96734 129.35186 199.91209 131.07705 200.78838 C 133.69223 202.1302 134.84236 202.23973 144.83753 202.15758 C 149.97204 202.1165 153.2855 202.03435 155.50361 201.87005 C 161.3501 201.4456 164.2665 201.50036 173.57708 202.21235 C 175.57611 202.37665 178.8485 202.52726 180.86123 202.56834 C 184.14732 202.6368 184.695 202.60941 186.20112 202.34927 C 187.13218 202.19865 189.26813 201.85635 190.96594 201.58251 C 192.66375 201.30867 194.26572 201.03483 194.55325 200.96637 C 194.8271 200.88422 195.71707 200.7336 196.5386 200.62407 C 197.34642 200.51454 199.59192 200.18593 201.5088 199.8847 C 206.6433 199.07687 213.1744 198.58396 218.69228 198.58396 C 222.5945 198.58396 223.1285 198.61134 225.3329 198.93995 C 229.6185 199.59717 231.04248 200.19962 240.24352 205.32043 C 243.11884 206.9087 243.6939 207.18255 244.31005 207.23732 C 244.95357 207.29208 245.11788 207.251 245.7614 206.84025 C 246.15847 206.5801 246.73354 206.15565 247.03476 205.8818 C 248.26704 204.75906 249.41717 203.92385 250.4167 203.41724 C 252.18296 202.52726 252.85387 202.77372 251.9502 203.9923 C 251.67636 204.362 251.33406 204.73168 251.18344 204.81383 C 250.80007 205.0192 250.8959 205.67643 251.32036 205.7312 C 251.48467 205.75858 252.53895 205.3752 253.648 204.89598 C 255.7429 203.96492 257.15316 203.472 258.19376 203.29402 C 258.53606 203.23925 259.17958 203.11602 259.63142 203.02018 C 260.13802 202.91064 260.7131 202.88325 261.11016 202.93802 C 261.68522 203.03387 261.75368 203.07494 261.75368 203.38986 C 261.75368 203.59524 261.65784 203.86908 261.52092 204.006 C 261.31554 204.23876 261.31554 204.26615 261.5483 204.5263 C 261.86322 204.8823 262.31505 204.8823 262.61628 204.5263 C 262.87643 204.21138 262.95858 204.21138 264.42363 204.38938 C 265.02607 204.45784 266.38158 204.62214 267.43587 204.74537 C 269.57182 204.97813 271.76255 205.5532 273.0496 206.19672 C 273.83004 206.5801 274.7748 207.23732 276.69167 208.72975 C 277.10243 209.04466 278.23887 210.0168 279.211 210.89309 C 280.63498 212.15275 281.22373 212.5909 282.1548 213.02904 C 282.7983 213.34396 283.46922 213.72733 283.63353 213.87795 C 284.5509 214.72685 285.0575 216.6848 285.64625 221.57286 C 285.7558 222.545 285.9201 223.50344 286.01594 223.69512 C 286.46778 224.72203 286.7553 225.17386 287.20714 225.57093 C 287.481 225.8174 287.7959 226.10492 287.90544 226.21446 C 288.2888 226.57045 289.39787 226.62522 290.27416 226.3103 C 291.86243 225.74893 292.9715 224.37972 292.9715 222.95575 C 292.9715 221.79193 293.53286 221.24425 294.2996 221.655 C 294.8062 221.92885 295.0253 222.55869 295.1622 224.21542 C 295.29913 225.66677 295.1896 226.58414 294.87468 226.78952 C 294.79252 226.8306 294.69668 226.96752 294.6419 227.10444 C 294.35438 227.78904 292.98518 229.80176 292.47857 230.2673 C 291.80766 230.88343 291.31475 231.04774 289.5211 231.25312 C 288.37097 231.39004 288.1519 231.39004 287.9465 231.21204 C 287.8096 231.08881 287.23453 230.80128 286.67316 230.55483 C 286.1118 230.30837 285.48195 229.95238 285.2492 229.77438 C 284.81104 229.391 284.3866 229.391 284.15382 229.7607 C 284.0306 229.96607 284.11275 230.103 284.75627 230.67805 C 285.16703 231.06143 285.68733 231.4585 285.9064 231.58173 C 286.413 231.85557 286.9333 232.4854 287.2756 233.19738 C 287.4673 233.62184 287.54945 234.1832 287.6042 235.4155 C 287.67267 237.305 287.57683 237.72944 286.6184 239.7148 C 286.12548 240.76907 286.0707 240.97445 286.057 241.97397 C 286.057 243.00087 286.0844 243.1104 286.52254 243.71286 C 286.89223 244.21946 286.9607 244.42484 286.87854 244.73976 C 286.72792 245.3696 286.4267 245.60235 285.7558 245.60235 C 284.8658 245.60235 284.27705 245.28744 283.37338 244.3427 C 282.37386 243.2884 282.05895 242.64488 281.34696 240.12555 C 280.5939 237.51037 280.5939 237.49668 280.14206 237.55145 C 279.64915 237.60622 279.60807 237.88006 279.8956 239.1671 C 280.01883 239.72848 280.18314 240.45416 280.2516 240.78276 C 280.4159 241.5632 281.59342 243.9867 281.90833 244.20577 C 282.04525 244.3016 282.1548 244.4796 282.1548 244.58914 C 282.1548 244.69868 282.20956 244.78083 282.26433 244.78083 C 282.42863 244.78083 283.03108 246.08157 283.25015 246.8757 C 283.44184 247.6014 283.29123 249.1486 282.88047 250.6684 C 282.4834 252.10606 281.03204 252.92758 278.8687 252.92758 L 277.97872 252.92758 L 277.93765 252.18822 C 277.91026 251.6953 277.97872 251.29823 278.14303 250.95593 C 278.5127 250.18918 278.44425 249.50458 277.8418 248.2723 C 277.55427 247.66985 277.21197 247.02632 277.07505 246.83464 C 276.70537 246.32803 276.5 245.41067 276.44522 243.91824 C 276.37676 242.49427 276.26722 242.32996 275.7743 242.87764 C 275.54154 243.1378 275.51416 243.41163 275.50047 245.65712 C 275.48678 247.01263 275.432 248.35445 275.37724 248.6146 C 275.2814 249.08013 275.02125 249.6415 274.0902 251.40777 C 273.7068 252.14714 273.66574 252.32514 273.66574 253.50265 C 273.66574 254.69385 273.69312 254.84447 274.00804 255.21415 C 274.6105 255.92614 274.4188 256.8435 273.59728 257.1858 C 272.61145 257.59656 271.1738 257.28165 270.54396 256.5286 C 269.47598 255.26892 268.7366 254.00925 268.47646 252.99604 C 268.18893 251.94176 268.052 249.70996 268.13416 247.93 C 268.2163 246.46495 268.18893 246.1911 268.01093 246.0268 C 267.68233 245.76666 267.32633 245.90358 267.2031 246.35542 C 267.0251 246.97156 266.79234 254.20094 266.8882 256.02198 C 266.95665 257.0078 266.92926 258.00732 266.81973 258.69192 C 266.64173 259.9242 265.91606 262.30662 265.72437 262.30662 C 265.40945 262.30662 262.80797 267.26313 262.50674 268.41326 C 262.31505 269.15263 262.31505 269.358 262.49305 270.17953 C 262.69843 271.17905 262.9449 271.5898 263.69795 272.19226 C 264.19086 272.603 265.58745 272.9864 266.55958 272.9864 C 266.94296 272.9864 267.07988 273.05485 267.13464 273.26023 C 267.2168 273.57515 267.10726 273.6847 266.13513 274.10914 C 264.57424 274.79374 264.54685 274.80743 263.05442 274.73897 C 261.84953 274.6705 261.49353 274.60205 260.75416 274.25975 C 259.6725 273.75315 257.86515 271.97318 257.20793 270.7683 C 256.7698 269.97415 256.37272 269.5497 256.2221 269.714 C 256.18103 269.75508 256.18103 270.11107 256.2358 270.50814 C 256.33164 271.38443 257.0847 272.39764 258.8099 273.95853 C 259.79572 274.8485 260.09695 275.0402 260.95954 275.31404 C 262.19183 275.6974 262.4246 275.84802 262.9449 276.5874 C 263.6158 277.51845 263.99917 278.9698 263.90333 280.24316 C 263.83487 281.3796 263.72533 281.65344 263.0955 282.47496 C 262.5615 283.14587 260.89108 284.39184 259.90526 284.84368 C 259.19327 285.1723 259.01528 285.19967 257.67346 285.1449 C 256.52333 285.10383 256.0852 285.02168 255.66073 284.8026 C 254.97613 284.4466 254.64752 284.09062 254.60645 283.66617 C 254.56537 283.2828 254.96244 283.03633 256.31795 282.62557 C 257.33116 282.32435 258.26222 281.3933 258.37175 280.57177 C 258.6319 278.8055 258.6319 278.21674 258.34437 277.68275 C 257.9473 276.9023 256.82455 275.5742 256.31795 275.27296 C 255.7155 274.93066 254.56537 274.62943 253.79862 274.62943 C 253.1277 274.62943 252.1282 274.93066 251.70374 275.24558 C 251.47098 275.42357 251.45728 275.49203 251.6216 275.79326 C 251.79958 276.12186 252.4431 276.28617 252.4431 275.99864 C 252.4431 275.77956 253.56585 275.5605 254.30522 275.62895 C 255.1815 275.7248 255.7292 275.99864 256.5644 276.77908 C 257.30378 277.47737 257.72823 278.54535 257.605 279.44903 C 257.46808 280.517 255.8935 281.99574 254.3463 282.50235 C 253.5111 282.78988 253.36047 282.98157 253.42893 283.73463 L 253.47 284.35077 L 252.8265 284.6246 C 252.1008 284.93952 250.80007 284.9943 249.95116 284.73414 C 249.0475 284.4603 248.43135 283.4197 248.6641 282.51604 C 248.7052 282.33804 249.14333 281.7082 249.63624 281.11945 C 250.63576 279.91455 250.77268 279.39426 250.08808 279.3121 C 249.78686 279.27103 249.60886 279.42164 248.97903 280.2021 C 248.06166 281.3522 248.0069 281.46175 247.78782 282.5845 C 247.4866 284.1043 247.8015 284.8163 249.08856 285.59674 C 249.66363 285.95273 252.23773 285.96643 252.9497 285.62413 C 253.41524 285.40505 253.44263 285.40505 253.62062 285.6515 C 253.93554 286.07596 253.8397 286.47303 253.23725 287.2398 C 251.5805 289.38943 250.99175 289.69066 248.45873 289.69066 C 246.92522 289.69066 246.7746 289.66327 246.03524 289.2936 C 244.9125 288.71852 243.96775 287.65054 243.14623 286.0075 C 242.72178 285.18598 242.70808 285.07645 242.79024 284.15908 C 242.88608 283.1185 243.22838 281.3933 243.40638 281.07838 C 243.5433 280.83192 242.92716 280.1884 242.65331 280.29793 C 242.54378 280.339 242.39317 280.62654 242.31101 280.95515 C 242.22886 281.28376 242.10563 281.7219 242.03717 281.95466 C 241.8044 282.78988 241.73595 284.4603 241.91395 285.22706 L 242.07825 285.98012 L 241.24304 287.26717 C 239.7643 289.49897 239.0523 289.9645 236.21807 290.58064 C 233.79458 291.11463 233.37013 290.9777 233.89042 289.84127 C 234.1232 289.34835 235.34178 288.33515 236.28653 287.84223 C 237.16282 287.3904 237.73788 286.82902 238.16233 286.0349 C 238.888 284.6657 238.9291 283.2554 238.25818 283.2554 C 237.8885 283.2554 237.79265 283.4334 237.5325 284.55615 C 237.43666 284.92583 237.21758 285.43244 237.0259 285.6789 C 236.72467 286.08965 235.7936 286.80164 235.32808 286.97964 C 235.21855 287.0207 234.65718 287.45886 234.0821 287.95177 C 232.46645 289.33466 232.22 290.2931 232.98675 292.1963 C 233.49335 293.44227 233.50705 293.62026 233.13736 293.7298 C 232.27476 294.00364 231.11094 293.33273 230.44003 292.1826 C 230.09773 291.60754 230.05666 291.41585 230.07035 290.2931 C 230.07035 289.1019 230.09773 289.00605 230.5085 288.44468 C 230.75495 288.12977 230.94664 287.80116 230.94664 287.7464 C 230.94664 287.67793 231.0151 287.5547 231.08356 287.45886 C 231.1657 287.363 231.46694 286.92487 231.76816 286.47303 C 232.0557 286.0212 232.58968 285.3229 232.93198 284.93952 C 233.5892 284.18646 236.02638 282.4202 237.14912 281.8725 C 238.0665 281.42068 238.16233 280.80454 237.31343 280.79084 C 236.94374 280.79084 234.06842 282.4339 233.2606 283.1185 L 232.61707 283.65248 L 232.5623 282.7351 C 232.49384 281.7082 231.8777 280.1747 231.24786 279.5175 C 230.8508 279.10672 230.26204 279.02457 229.9882 279.35318 C 229.83759 279.53118 229.87866 279.6407 230.23465 280.0104 C 230.46742 280.25685 230.8371 280.81823 231.04248 281.27006 C 231.3711 281.98205 231.42586 282.2422 231.41217 283.2828 C 231.39848 283.94 231.33002 284.55615 231.26156 284.652 C 231.1931 284.74784 231.0151 285.1312 230.89187 285.4872 C 230.57695 286.32242 229.7965 287.49993 229.33098 287.81485 C 228.67376 288.253 227.19503 288.96498 226.7021 289.0745 C 226.44196 289.12928 226.16812 289.22513 226.08597 289.2799 C 225.77106 289.51266 224.41555 289.52635 223.74464 289.2936 C 222.7862 288.96498 221.96467 288.51314 221.71822 288.15715 C 221.4033 287.719 221.44438 287.63685 221.95098 287.63685 C 222.81358 287.63685 223.37495 287.363 224.21017 286.56888 C 224.8537 285.93904 225.07276 285.62413 225.25076 285.03537 C 225.7163 283.47448 225.45614 282.8994 223.22434 280.7087 C 221.7593 279.27103 221.49915 278.94242 221.29377 278.3126 C 220.85562 276.98446 220.15733 276.01233 219.1715 275.3688 C 218.08983 274.6705 216.57002 273.94483 216.20033 273.94483 C 216.04972 273.94483 215.63896 273.79422 215.28297 273.60253 C 214.48883 273.17808 213.95484 273.17808 212.91425 273.56146 C 212.02427 273.90376 211.87366 273.9859 210.36753 275.0128 C 209.32694 275.7248 209.31325 275.7385 209.51863 276.0534 C 209.724 276.36832 209.7514 276.36832 210.17585 276.16294 C 210.4223 276.0534 210.86045 275.75218 211.16167 275.5194 C 211.76412 275.0402 212.20226 274.8759 213.55777 274.62943 C 214.3656 274.4925 214.5299 274.5062 215.20082 274.76635 C 216.0771 275.10866 217.04924 275.5742 218.00768 276.13556 C 218.39106 276.35463 218.8155 276.5874 218.97981 276.66955 C 219.48642 276.9023 220.12994 277.64168 220.12994 277.99767 C 220.12994 278.18936 220.28056 278.6412 220.47224 279.01088 C 220.93777 279.92825 221.08839 280.695 220.93777 281.28376 C 220.82824 281.63975 219.8698 283.1048 219.3632 283.65248 C 219.21258 283.81678 219.1715 283.51555 219.30842 283.2554 C 219.77395 282.3928 219.32211 280.94146 218.3226 280.09255 C 217.21354 279.1615 215.9128 278.7918 214.96805 279.1615 C 214.16022 279.4764 213.22917 279.53118 212.27072 279.3395 C 211.25752 279.12042 210.79199 278.92873 210.28538 278.4769 C 209.902 278.1346 209.7377 278.1209 209.3817 278.38105 C 209.13525 278.55904 209.13525 278.57274 209.46386 278.9835 C 209.64186 279.21626 209.902 279.40795 210.02523 279.40795 C 210.14846 279.42164 210.2717 279.4764 210.29907 279.53118 C 210.32646 279.58595 210.57291 279.77763 210.84675 279.95563 C 211.58612 280.39377 213.5304 280.5033 214.96805 280.1884 C 216.00865 279.95563 216.30987 279.96932 216.98078 280.28424 C 217.41892 280.48962 217.6517 280.79084 217.66538 281.13314 C 217.66538 281.3796 216.36464 282.84465 216.13187 282.84465 C 216.06341 282.84465 215.7622 282.95418 215.43358 283.1048 C 214.25607 283.6114 214.07807 283.66617 213.3524 283.66617 C 212.3255 283.66617 211.05214 283.35125 209.80616 282.7762 C 208.58757 282.2148 208.5191 282.17374 208.12204 281.32483 C 207.90297 280.83192 207.56067 280.48962 206.69807 279.8461 C 206.08193 279.39426 205.53425 279.01088 205.47948 279.01088 C 205.42472 279.01088 205.2878 279.10672 205.19195 279.22995 C 205.04134 279.42164 205.04134 279.4764 205.24672 279.62702 C 205.36995 279.72287 205.47948 279.8598 205.47948 279.92825 C 205.47948 280.0104 205.73963 280.339 206.04086 280.6676 C 206.35577 280.99622 206.79392 281.5439 207.02668 281.8862 C 207.25945 282.2285 207.53329 282.5845 207.62913 282.68034 C 207.94405 282.99526 208.13574 283.99478 208.13574 285.24075 C 208.14943 286.26765 208.09466 286.58257 207.80713 287.14394 C 207.05407 288.69114 204.90442 290.18357 202.94646 290.52587 C 200.75574 290.90925 198.2364 290.2794 198.45548 289.40312 C 198.51025 289.21143 198.64717 289.14297 199.03054 289.14297 C 200.05744 289.12928 201.5225 288.32145 202.3714 287.29455 C 203.00123 286.5552 203.15184 286.1581 203.15184 285.3366 C 203.15184 283.99478 201.72787 281.85882 200.78312 281.77667 C 200.60512 281.76298 200.15329 281.62606 199.81099 281.47544 C 199.1127 281.1879 197.2232 281.07838 197.0589 281.33852 C 197.01782 281.407 196.7166 281.5439 196.40167 281.62606 C 195.21047 281.94097 194.7997 282.20112 194.7997 282.5982 C 194.7997 282.98157 195.12832 283.13218 195.42954 282.87203 C 195.77184 282.5571 197.16843 282.16004 198.22271 282.0779 C 199.31807 281.99574 199.41392 282.00943 199.86576 282.35173 C 200.1259 282.54342 200.53666 282.80357 200.75574 282.9268 C 201.27603 283.22802 201.44034 283.4471 201.70049 284.24123 C 202.04279 285.26813 201.98802 286.10335 201.5088 286.73318 C 200.90635 287.541 200.60512 287.67793 199.18115 287.85592 L 197.88041 288.03392 L 197.4012 287.65054 C 196.66182 287.0618 196.3743 286.95225 195.64861 286.95225 C 194.9777 286.95225 194.1151 287.1987 192.7733 287.77377 C 192.17084 288.03392 191.96546 288.2256 191.45886 288.99236 C 190.66472 290.21095 190.59626 290.34787 190.48672 291.08724 C 190.3498 291.9909 190.80164 293.25058 191.5547 294.0995 C 192.0613 294.67455 192.29407 294.81147 193.40312 295.19485 L 194.67648 295.6193 L 194.58064 296.04375 C 194.4711 296.6188 194.08772 296.9748 192.89652 297.63203 C 192.12976 298.0428 191.7327 298.1797 191.25348 298.1797 C 190.5141 298.1797 189.41875 297.8237 188.9943 297.42665 C 188.82999 297.27603 188.33708 296.92004 187.91262 296.6188 C 187.48817 296.3313 187.13218 296.04375 187.13218 295.989 C 187.13218 295.9342 186.96787 295.71514 186.77619 295.49607 C 185.96836 294.5924 185.8999 294.37333 185.8999 292.83982 C 185.8999 290.69017 186.0779 290.3205 187.94 288.45837 C 189.55567 286.8564 189.95273 286.3635 189.80212 286.13073 C 189.63782 285.8569 188.52876 286.0075 186.72142 286.5415 C 184.58546 287.185 182.94242 287.49993 181.65537 287.49993 C 180.56 287.49993 179.80695 287.85592 179.0265 288.7322 C 178.41036 289.40312 178.1776 290.08772 178.21867 291.04617 C 178.25975 292.0046 178.38298 292.30583 179.06758 293.11366 C 179.7111 293.8804 180.27248 294.11318 181.99767 294.35963 C 182.9698 294.49655 183.1478 294.565 183.21626 294.81147 C 183.28472 295.03054 183.1615 295.22223 182.66858 295.66038 C 182.32628 295.9753 181.84706 296.2765 181.6006 296.3176 C 180.69693 296.50928 178.79374 296.57774 178.61574 296.44082 C 178.5199 296.35867 178.21867 296.24913 177.95853 296.19436 C 177.137 296.01637 175.23381 295.03054 174.9189 294.6061 C 174.7409 294.38702 174.45337 294.01733 174.28906 293.79826 C 174.11107 293.5655 173.94676 293.30535 173.93307 293.2232 C 173.91938 293.12735 173.83723 292.90828 173.74138 292.74398 C 173.64554 292.57967 173.536 292.05937 173.49493 291.58015 C 173.44016 291.10093 173.358 290.6217 173.28955 290.4985 C 173.16632 290.25203 173.50862 288.5953 173.80984 287.97915 C 173.93307 287.7464 174.20691 287.3767 174.43968 287.13025 C 174.78198 286.76056 174.82305 286.65103 174.67244 286.47303 C 174.3986 286.14442 173.80984 286.22657 173.41277 286.63734 C 172.93355 287.15763 172.64602 287.76008 172.44064 288.66375 L 172.26265 289.4168 L 170.7976 288.03392 C 169.68855 286.99333 169.2641 286.66472 169.03133 286.7058 C 168.82595 286.73318 168.70272 286.8564 168.67534 287.07548 C 168.63426 287.33563 168.9081 287.67793 170.05823 288.78698 C 172.44064 291.07355 172.4954 291.1831 172.71448 293.77088 C 172.78294 294.64717 172.75556 294.85255 172.48172 295.38654 C 172.30372 295.71514 171.85188 296.24913 171.4685 296.57774 C 171.09882 296.89266 170.6333 297.30342 170.4416 297.46772 C 169.96239 297.90587 168.42888 298.78216 167.78535 299.00123 C 167.49782 299.08338 166.6626 299.17922 165.92324 299.17922 C 164.69096 299.2066 164.55404 299.17922 164.03374 298.83692 C 163.63667 298.57678 163.45868 298.344 163.39022 298.0154 C 163.28068 297.46772 163.47237 297.28973 164.30758 297.1665 C 165.53986 296.9748 166.12862 296.68728 166.71738 295.989 C 167.40198 295.18116 167.49782 294.89362 167.62105 293.49704 C 167.7169 292.26476 167.57997 291.92245 166.4983 290.59433 C 165.75894 289.66327 165.26602 289.33466 164.23912 289.06082 C 162.911 288.70483 161.65133 288.88283 160.72027 289.54004 C 160.37797 289.7865 160.26844 289.8002 159.06354 289.6359 C 157.65326 289.4579 157.4205 289.32097 156.5442 288.14346 C 156.17452 287.66424 156.16083 287.5821 156.2156 286.5004 C 156.31144 285.07645 156.68113 284.3234 157.63957 283.70724 C 158.69385 282.99526 159.87137 283.1185 162.24009 284.17277 C 163.0753 284.54246 163.44498 284.51507 163.44498 284.09062 C 163.44498 283.762 162.911 283.33756 161.51441 282.5845 C 160.55597 282.0642 160.40536 282.02312 159.41953 282.02312 C 158.29679 282.02312 158.03664 282.11897 156.80436 282.9405 C 156.24298 283.31017 155.99653 283.5977 155.531 284.4877 C 154.95593 285.58305 154.94224 285.59674 155.0244 286.65103 C 155.13393 288.02023 155.24347 288.33515 155.8733 289.0882 C 156.42098 289.7591 157.69434 290.4437 158.65278 290.59433 C 159.2963 290.70386 159.43322 290.786 159.50168 291.12832 C 159.52907 291.32 159.37846 291.4843 158.92662 291.74446 C 158.33786 292.07307 158.20094 292.08676 156.3799 292.07307 L 154.43564 292.05937 L 153.25812 291.47062 C 152.6146 291.142 152.08061 290.8271 152.08061 290.75863 C 152.08061 290.70386 151.97107 290.6491 151.83415 290.6491 C 151.69723 290.6491 151.32755 290.43002 151.02632 290.16988 C 150.5471 289.7591 150.43757 289.56743 150.24588 288.71852 C 149.8762 287.0618 150.01311 286.0349 150.84833 284.35077 C 151.51924 282.98157 151.53293 282.96787 152.80629 281.7219 C 153.76473 280.79084 154.01118 280.47593 153.9701 280.22947 C 153.88796 279.62702 153.35397 279.72287 152.6146 280.46223 C 152.24491 280.83192 151.94369 281.07838 151.94369 281.0099 C 151.94369 280.95515 151.66985 281.13314 151.32755 281.42068 C 150.98525 281.6945 150.7114 281.99574 150.7114 282.0779 C 150.7114 282.17374 150.53341 282.4202 150.31434 282.62557 C 150.09527 282.84465 149.79404 283.29648 149.64343 283.65248 C 149.36959 284.2686 148.79452 286.80164 148.79452 287.34932 C 148.79452 287.49993 148.63022 287.78746 148.42484 287.99285 C 148.00039 288.3899 146.2615 289.2799 145.89182 289.2799 C 145.7549 289.2799 145.42629 289.40312 145.13876 289.55374 C 144.79646 289.71804 144.194 289.85496 143.44095 289.90973 C 142.1402 290.00557 141.67467 289.86865 140.88054 289.14297 C 140.18224 288.51314 140.27809 288.3899 141.68837 288.12977 C 143.12603 287.8696 143.59156 287.66424 143.97493 287.13025 C 144.35831 286.58257 144.82384 284.9806 144.82384 284.20016 C 144.82384 283.29648 144.31723 281.76298 143.87909 281.33852 C 143.31772 280.77715 142.53727 280.24316 142.29082 280.24316 C 142.16759 280.24316 141.88005 280.13363 141.6336 280.0104 C 141.33237 279.8598 140.88054 279.77763 140.22332 279.77763 C 139.33334 279.79133 139.14165 279.8461 138.16952 280.38008 C 136.26633 281.407 135.88295 281.81774 136.44432 282.2422 C 136.86878 282.5708 137.3343 282.47496 137.75876 281.96836 C 137.96414 281.7082 138.51182 281.33852 138.94996 281.13314 C 139.67564 280.81823 139.86733 280.77715 140.63408 280.8593 C 142.3182 281.0373 143.42725 282.02312 143.93386 283.7757 C 144.18031 284.6246 144.11185 285.1312 143.64633 285.87058 C 143.11234 286.7195 142.78373 286.8838 141.2776 287.08917 L 139.89471 287.26717 L 139.36072 286.8427 C 139.0595 286.59626 138.64874 286.3361 138.42967 286.25396 C 138.22429 286.1718 137.90937 286.0349 137.74507 285.95273 C 137.36169 285.77474 135.9651 285.92535 135.43111 286.1992 C 135.21204 286.30873 134.97928 286.40457 134.92451 286.40457 C 134.85605 286.40457 134.52744 286.60995 134.18514 286.8427 C 133.44577 287.3904 132.7201 288.71852 132.48733 290.01926 C 132.33672 290.786 132.35041 290.9777 132.61056 291.71707 C 133.03501 292.97674 133.82915 293.85303 134.86974 294.19533 C 135.33527 294.35963 135.86926 294.48286 136.07464 294.48286 C 136.85508 294.48286 136.70447 295.33177 135.7871 296.20806 C 135.22573 296.74205 135.22573 296.74205 133.8976 296.8105 C 132.66533 296.87897 132.47364 296.85158 131.24136 296.44082 C 129.66677 295.92052 127.9005 295.05793 127.25698 294.49655 C 126.61345 293.93518 125.96993 292.66182 125.72347 291.4843 C 125.44963 290.16988 125.44963 290.18357 125.96993 289.99188 C 127.12006 289.56743 128.66726 287.85592 128.66726 287.0207 C 128.66726 286.43195 128.53034 286.26765 127.99635 286.26765 C 127.7225 286.26765 126.8736 286.1718 126.09316 286.07596 C 124.43642 285.8432 124.01197 285.59674 123.40952 284.4877 C 123.03984 283.81678 123.02614 283.69355 123.1083 282.7488 C 123.17676 281.84513 123.25891 281.63975 123.75182 280.91407 C 124.54596 279.79133 125.02518 279.5175 126.39438 279.44903 C 127.43497 279.39426 127.5582 279.42164 128.32496 279.8324 C 128.7768 280.07886 129.2697 280.39377 129.43401 280.5307 C 129.76262 280.8456 130.58414 280.8867 130.58414 280.59915 C 130.58414 280.1747 130.36507 279.91455 129.32447 279.1341 L 128.2428 278.32628 L 127.0516 278.32628 C 125.90147 278.32628 125.81932 278.35366 124.58703 278.9698 C 123.87505 279.3395 123.19045 279.77763 123.05353 279.96932 C 122.57431 280.65392 122.0814 282.0916 121.99924 283.05003 C 121.93078 283.9674 121.94448 284.04954 122.35524 284.652 C 123.53275 286.39088 124.71026 287.08917 126.47653 287.08917 C 127.01052 287.08917 127.43497 287.13025 127.43497 287.17132 C 127.43497 287.4041 127.06529 287.84223 126.46284 288.32145 L 125.76455 288.86913 L 124.24473 288.86913 C 122.45108 288.86913 121.7391 288.70483 120.23297 287.93808 C 117.75472 286.6921 116.76889 284.6383 117.37134 281.94097 C 117.49457 281.3522 117.71364 280.64023 117.85056 280.38008 C 117.98748 280.11993 118.78162 279.25734 119.61683 278.4632 C 121.17772 276.98446 121.42418 276.5737 120.8765 276.28617 C 120.73958 276.20402 120.54789 275.95756 120.45205 275.7248 C 120.23297 275.1908 119.68529 274.90327 118.91854 274.90327 C 118.42563 274.90327 118.19286 274.79374 117.53565 274.27344 C 116.12537 273.17808 115.82414 271.80888 116.64566 270.2343 C 117.02904 269.49493 117.19334 269.33062 118.09702 268.81033 C 119.30192 268.09834 120.04128 267.93404 120.5205 268.24895 C 120.6985 268.37218 120.94496 268.46803 121.06819 268.46803 C 121.19141 268.46803 121.60217 268.78294 121.97186 269.16632 L 122.64277 269.85092 L 122.77969 269.49493 C 123.02614 268.8377 122.9303 268.56387 122.27308 268.08465 C 121.93078 267.8245 121.49264 267.56435 121.28726 267.4822 C 121.09557 267.40005 120.79435 267.27682 120.63004 267.19467 C 120.30143 267.04406 118.72685 267.1536 118.4804 267.35897 C 118.39824 267.42743 118.17917 267.52328 117.98748 267.57804 C 117.7958 267.6328 117.37134 267.87927 117.04273 268.11203 C 116.33075 268.61864 115.60507 269.98784 115.3723 271.2612 C 115.2217 272.02795 115.23539 272.21964 115.49553 272.959 C 115.91999 274.21867 116.71412 275.09496 117.75472 275.43726 C 118.22025 275.60157 118.75423 275.7248 118.95962 275.7248 C 119.74006 275.7248 119.60314 276.56 118.65839 277.47737 L 118.05594 278.06613 L 116.54982 278.01136 C 114.74247 277.9292 113.53758 277.7512 112.9899 277.46368 C 112.77082 277.34045 112.27791 277.13507 111.89453 276.99815 C 111.4427 276.83385 110.93609 276.49155 110.38841 275.97125 C 109.93657 275.5331 109.62166 275.1771 109.67643 275.1771 C 109.7175 275.1771 109.58058 274.88958 109.36151 274.5336 C 109.12875 274.1776 108.95075 273.8079 108.95075 273.71207 C 108.95075 273.60253 108.82752 273.17808 108.67691 272.75363 C 108.33461 271.7815 108.33461 271.35704 108.64952 271.2612 C 109.92288 270.87782 111.55223 269.1937 111.55223 268.26265 C 111.55223 267.6739 111.41531 267.5096 110.88132 267.5096 C 110.60748 267.5096 109.75858 267.41374 108.97813 267.3179 C 107.3214 267.08513 106.89695 266.83868 106.2945 265.72962 C 105.92481 265.0587 105.91112 264.9355 105.99327 263.99074 C 106.06173 263.08706 106.14389 262.88168 106.6368 262.156 C 107.43094 261.03326 107.91016 260.75942 109.27936 260.69096 C 110.31995 260.6362 110.44318 260.66358 111.20993 261.07434 C 111.66177 261.3208 112.15468 261.6357 112.31899 261.77263 C 112.6476 262.08755 113.46912 262.12862 113.46912 261.8411 C 113.46912 261.41664 113.25004 261.17018 112.23683 260.40343 L 111.18255 259.6093 L 109.77227 259.54083 L 108.36199 259.47237 L 107.3214 260.00636 C 106.23973 260.56773 105.5962 261.17018 105.07591 262.10124 C 104.81576 262.56677 104.77468 262.8406 104.78838 263.94966 C 104.80207 265.18194 104.82945 265.29148 105.24021 265.89393 C 106.41773 267.6465 107.59524 268.3311 109.36151 268.3311 C 109.8955 268.3311 110.31995 268.37218 110.31995 268.41326 C 110.31995 268.64602 109.95027 269.08417 109.34782 269.5634 L 108.64952 270.11107 L 107.07494 270.11107 C 104.47346 270.11107 102.77565 269.46754 101.40645 267.94773 C 100.2837 266.68806 100.13309 266.24992 100.16047 264.19612 C 100.20155 262.03278 100.21524 262.0054 102.41966 259.82836 C 103.7204 258.555 104.03531 258.15794 103.99424 257.91148 C 103.96685 257.6924 103.84363 257.56918 103.63825 257.5418 C 103.40548 257.50072 102.93995 257.8704 101.68029 259.04792 C 100.77661 259.89682 99.91402 260.8005 99.79079 261.06064 L 99.54433 261.51248 L 98.98296 260.67727 C 97.43576 258.34962 95.50519 253.5848 94.4509 249.50458 C 93.27339 244.90406 92.38341 238.03067 92.38341 233.348 L 92.38341 231.9651 L 93.86214 231.2668 C 95.8201 230.33575 96.61424 229.70592 97.24407 228.5284 C 98.31205 226.54306 98.49005 225.31078 97.99713 223.2159 C 97.69591 221.90147 97.38099 221.24425 96.76485 220.57334 C 96.44994 220.23104 96.24456 220.1352 95.97072 220.16258 C 95.40934 220.23104 95.40934 220.71026 95.97072 221.3538 C 96.99762 222.5313 97.09346 222.68191 97.1893 223.35282 C 97.50422 225.52985 97.21669 227.1592 96.32671 228.32303 C 95.57365 229.29516 94.13598 230.29468 93.13647 230.52744 C 92.83524 230.5959 92.30125 230.7465 91.95895 230.85605 C 91.20589 231.08881 89.17947 231.07512 88.68656 230.82867 C 88.0978 230.51375 87.04352 229.4047 87.04352 229.08978 C 87.04352 228.50102 87.38582 228.3504 88.63179 228.3504 C 89.35747 228.3504 89.93253 228.28195 90.1653 228.15872 C 90.82252 227.81642 91.94526 226.51568 92.02741 226.00907 C 92.2191 224.7631 92.23279 223.94158 92.08218 222.81883 L 91.93157 221.61394 L 92.65725 220.21735 C 93.424 218.71123 93.47877 218.31416 92.9174 218.2457 C 92.61617 218.20462 92.46556 218.35524 91.89049 219.21783 C 90.97313 220.57334 90.76775 221.43594 91.00051 222.77776 C 91.41127 225.03694 91.32912 225.9543 90.64452 226.59783 C 90.3433 226.88536 90.28853 226.88536 89.94623 226.69368 C 89.28901 226.324 88.85087 225.18755 88.6181 223.2022 C 88.50856 222.23008 88.41272 220.8335 88.41272 220.09412 C 88.41272 218.51954 88.60441 218.04032 89.56285 217.15034 L 90.19268 216.57527 L 91.43866 216.57527 L 92.68463 216.57527 L 93.50615 217.41049 C 94.08122 217.98555 94.42352 218.21832 94.6289 218.19093 C 95.36827 218.0814 94.88905 216.93127 93.80738 216.2056 C 93.02693 215.6853 93.02693 215.6853 91.63035 215.69898 C 90.11053 215.71268 90.01469 215.75375 88.7961 216.75327 C 88.02934 217.3831 87.79658 217.98555 87.56382 219.82028 C 87.38582 221.23056 87.30367 221.3127 86.57799 220.8061 C 85.56478 220.1215 84.8528 218.69754 84.8528 217.41049 C 84.8528 216.82173 84.93495 216.46574 85.51001 214.7953 C 85.66062 214.34347 86.05769 213.82318 87.02983 212.83735 C 88.22103 211.63245 88.42641 211.48184 89.22055 211.23539 C 91.26066 210.59186 94.47829 211.15323 94.60151 212.15275 C 94.68367 212.86474 95.80641 212.64566 95.80641 211.92 C 95.80641 211.5503 95.43673 211.12585 94.30029 210.26325 L 93.69784 209.79772 L 91.93157 209.75665 C 90.38437 209.71557 90.04207 209.74296 89.22055 210.0168 C 88.70025 210.1811 88.2758 210.3728 88.2758 210.42756 C 88.2758 210.6877 87.31736 210.67401 86.61907 210.41387 C 85.42786 209.96203 84.38727 208.93513 83.70267 207.55223 C 83.37406 206.9087 83.05914 206.15565 83.00437 205.8955 C 82.94961 205.63535 82.84007 205.34782 82.77161 205.25197 C 82.621 205.07398 82.73053 202.6505 82.90853 202.23973 C 83.31929 201.2813 84.35988 200.2133 84.57896 200.5556 C 84.63372 200.63776 84.74326 201.22652 84.8391 201.85635 C 85.08556 203.58155 85.31832 204.12923 86.08508 204.78645 C 86.82445 205.41628 88.02934 205.8955 88.80979 205.8955 C 89.4807 205.8818 90.58975 205.3889 91.27435 204.78645 C 91.76727 204.3483 91.86311 204.184 91.98634 203.44463 C 92.12326 202.66418 92.12326 202.55465 91.78096 201.88374 C 91.58927 201.50036 90.97313 200.65146 90.39806 200.02162 C 89.20686 198.6935 88.1115 197.1326 87.63228 196.07832 C 87.18044 195.0925 87.2489 194.5722 88.23472 191.61472 C 89.15209 188.87632 89.26163 188.89001 89.33009 191.6558 C 89.38485 193.3673 89.54916 194.54482 89.78192 194.87342 C 89.83669 194.94188 89.93253 195.20203 89.97361 195.4348 C 90.08315 195.9551 90.90467 197.25584 91.32912 197.57075 C 91.6988 197.85828 92.24649 197.88567 92.24649 197.62552 C 92.24649 197.51598 92.16433 197.40645 92.06849 197.36537 C 91.84942 197.28322 90.95944 195.62648 90.74036 194.87342 C 90.65821 194.5722 90.53498 193.33992 90.48022 192.13502 C 90.41176 190.93012 90.28853 189.57461 90.17899 189.13647 C 90.01469 188.43817 89.90515 188.26018 89.38485 187.8768 C 88.7961 187.42497 88.74133 187.41127 87.50905 187.41127 C 86.81075 187.41127 86.20831 187.3702 86.16723 187.30174 C 86.05769 187.12374 86.81075 186.09684 87.2489 185.823 C 88.33057 185.1521 88.71395 185.04255 89.60393 185.1384 C 91.6988 185.35747 93.05432 186.08315 94.34136 187.7125 C 95.71057 189.46508 96.06656 190.53305 96.08025 192.92916 C 96.08025 193.96975 96.09394 193.99713 96.39517 193.95606 C 96.65532 193.91498 96.71008 193.80545 96.77854 193.09346 C 96.83331 192.64162 96.87439 191.75164 96.88808 191.10812 C 96.90177 189.79368 96.6827 189.17754 95.68318 187.6988 C 95.36827 187.24697 95.12181 186.8362 95.12181 186.78144 C 95.12181 186.72667 95.03966 186.57606 94.93012 186.46652 C 94.58782 186.05576 94.14968 184.48118 94.06752 183.37213 C 93.88953 180.75695 95.45042 173.32219 100.88615 150.79881 C 101.29691 149.12839 101.42014 147.01982 101.15999 146.49952 C 101.09153 146.3763 100.92723 145.95184 100.7903 145.58216 C 100.66708 145.19878 100.37955 144.6374 100.17417 144.3088 C 99.95509 143.98019 99.7771 143.70635 99.7771 143.67896 C 99.7771 143.63789 99.98248 143.69266 101.62552 144.19926 C 102.0089 144.32249 102.89888 144.4868 103.62455 144.56895 C 104.84314 144.70587 105.07591 144.69217 106.74633 144.36357 C 109.7312 143.77481 110.82656 143.19974 113.26374 140.94056 C 114.8794 139.46182 115.19431 139.36598 116.35813 140.06427 C 117.12488 140.5161 117.85056 141.3924 117.85056 141.87162 C 117.85056 142.51514 118.53516 142.9259 118.72685 142.4056 C 118.78162 142.26869 118.78162 141.76208 118.72685 141.26917 C 118.65839 140.57088 118.54885 140.26965 118.22025 139.8452 C 117.7821 139.29752 116.39921 138.53077 115.83783 138.53077 C 115.386 138.53077 114.90678 137.83247 114.63294 136.79188 C 114.30433 135.5459 114.20848 135.3816 113.81142 135.3816 C 113.55127 135.3816 113.46912 135.45006 113.46912 135.68283 C 113.46912 135.86082 113.56496 136.12097 113.6745 136.25789 C 113.90726 136.55911 113.94834 137.87355 113.75665 138.70876 C 113.53758 139.65351 112.9899 140.24227 111.20993 141.40609 C 108.56737 143.13128 107.55416 143.47358 105.04852 143.50097 C 104.03531 143.50097 103.44656 143.40512 101.8309 142.98067 C 100.14678 142.54253 98.98296 142.11807 98.68173 141.81685 C 98.64066 141.77577 98.21621 141.54301 97.72329 141.28286 C 96.80593 140.78995 95.61472 139.74936 94.40983 138.36646 L 93.73892 137.58602 L 94.40983 137.66817 C 95.3135 137.76401 95.98441 137.4491 95.91595 136.9151 L 95.87487 136.54542 L 93.82107 136.46327 C 91.64404 136.36743 90.30222 136.16205 88.15257 135.57329 C 86.97506 135.24468 86.67383 135.2173 85.26356 135.28576 C 83.44252 135.36791 82.22393 135.66913 79.08846 136.81926 C 77.95202 137.23002 76.89773 137.57232 76.74712 137.57232 C 75.98037 137.57232 73.10504 135.57329 72.47521 134.58746 C 72.13291 134.08086 71.57154 132.41043 71.57154 131.9586 C 71.57154 131.72583 71.763226 131.69845 74.2141 131.65737 L 76.87035 131.6163 L 77.4728 131.12338 C 78.472315 130.30186 79.3486 129.95956 80.86842 129.76787 C 81.71732 129.67203 82.25131 129.53511 82.25131 129.43926 C 82.25131 129.09696 81.21072 128.76836 80.30705 128.83682 C 79.56768 128.87789 79.28014 128.98743 78.22586 129.60357 C 76.56912 130.60309 75.761295 130.78108 73.6938 130.67155 C 70.85955 130.52093 69.47666 130.16494 69.312354 129.53511 C 69.27128 129.35711 69.312354 128.6862 69.39451 128.04268 L 69.55881 126.87886 L 70.804784 125.6055 C 72.03707 124.35953 72.99551 123.52431 73.58426 123.22309 C 73.74857 123.12724 74.18671 123.05878 74.57009 123.05878 C 75.350535 123.05878 75.54222 122.8671 75.54222 122.04557 C 75.54222 121.70327 75.46007 121.52528 75.28207 121.41574 C 74.92608 121.23775 74.96716 121.22405 74.3784 121.68958 C 73.43365 122.44264 72.434134 122.19619 71.47569 120.99129 C 71.09232 120.49838 71.02386 120.30669 71.02386 119.66316 C 71.02386 119.0744 71.09232 118.81426 71.352465 118.48565 C 71.77692 117.92428 73.40627 117.07537 75.67914 116.24016 C 77.36326 115.62402 78.07525 115.43233 81.15595 114.77511 C 81.71732 114.65188 82.49777 114.4602 82.86745 114.35066 C 83.25083 114.24112 85.09925 113.74821 86.97506 113.2553 L 90.39806 112.36532 L 91.08266 111.7081 C 92.76678 110.07875 93.84845 109.43523 95.54626 109.07923 C 96.05287 108.9697 96.57316 108.98339 97.75068 109.16138 C 98.58589 109.28461 99.40741 109.35307 99.55802 109.312 C 99.72233 109.27092 100.00986 108.956 100.21524 108.6274 C 100.63969 107.91541 102.26904 106.76528 102.84411 106.76528 C 103.0358 106.76528 103.55609 106.91589 103.99424 107.09389 C 107.60893 108.6137 107.73216 108.69586 109.15613 110.11983 C 109.81335 110.79073 110.42949 111.62595 111.12778 112.78977 C 112.57913 115.22695 112.96251 115.58294 113.12682 114.66558 C 113.20897 114.2822 113.07205 113.9399 112.2916 112.46116 C 110.56641 109.21615 108.97813 107.90172 104.73361 106.20391 C 104.18593 105.98484 103.55609 105.66992 103.32333 105.50562 C 103.10426 105.34131 102.44704 104.39656 101.87198 103.42443 C 99.69494 99.67282 97.81914 97.08502 95.80641 94.99014 C 94.35506 93.48402 93.04062 91.67668 92.23279 90.06102 C 91.80834 89.21211 91.3565 88.62336 90.5076 87.77445 C 89.76823 87.03508 88.76871 86.72017 87.55012 86.8297 C 85.63324 86.99401 85.74278 87.0077 85.7017 86.69278 C 85.67432 86.50109 85.92077 86.17248 86.48215 85.6385 C 87.81027 84.36514 88.94671 84.00915 89.72715 84.61159 Z"/>
            </g>
            <g>
               <path d="M 100.76292 85.09082 C 101.03676 85.30989 101.58444 85.83018 101.98151 86.26833 C 102.37858 86.70647 103.15903 87.44584 103.7204 87.91137 C 104.28177 88.36321 104.9116 88.8972 105.10329 89.07519 C 105.29498 89.25319 105.6099 89.51334 105.80158 89.62287 C 105.99327 89.7461 106.82849 90.34855 107.65001 90.951 C 108.48522 91.56714 109.60797 92.25174 110.15565 92.4982 C 110.70333 92.74465 111.36054 93.07326 111.62069 93.25126 C 113.19528 94.29185 114.90678 95.60629 115.85153 96.49627 C 116.74151 97.33148 117.02904 97.72855 117.4535 98.61853 C 117.91902 99.60436 119.04177 102.72614 119.56206 104.46502 L 119.75375 105.12224 L 119.3293 104.90317 C 118.54885 104.4924 117.08381 104.05426 115.30385 103.68458 C 114.33171 103.49289 113.40066 103.3012 113.25004 103.27382 C 113.04466 103.23274 112.86667 102.97259 112.6476 102.42491 C 112.4696 101.98677 112.03145 101.02833 111.64808 100.28896 C 110.81286 98.63222 109.34782 97.01656 107.73216 95.94859 C 106.8148 95.35983 106.54095 95.08599 106.14389 94.3877 C 105.87004 93.93586 105.50036 93.30603 105.32236 93.0048 C 105.14437 92.70358 104.61038 91.75883 104.13116 90.90992 C 102.43335 87.84291 101.46121 87.04877 99.28418 86.93924 C 98.54481 86.89816 97.91498 86.93924 97.58637 87.04877 C 96.94285 87.25415 96.35409 87.14462 96.35409 86.80232 C 96.35409 86.40525 97.17561 85.73434 98.27097 85.21404 C 99.54433 84.61159 100.1057 84.5979 100.76292 85.09082 Z"/>
            </g>
            <g>
               <path d="M 268.81876 256.10413 C 269.01045 256.5012 269.33906 256.9941 269.54444 257.2132 L 269.92782 257.59656 L 270.02366 262.4846 C 270.09212 265.56532 270.07843 267.37266 269.99628 267.37266 C 269.84566 267.37266 269.55813 268.71448 269.55813 269.45385 C 269.55813 269.74138 269.50336 270.0837 269.4349 270.2206 C 269.36644 270.34383 269.20214 271.0969 269.0789 271.89103 C 268.95568 272.68517 268.80507 273.60253 268.7366 273.94483 C 268.66815 274.28713 268.54492 274.93066 268.44908 275.3825 C 268.36693 275.83433 268.17524 276.5737 268.03832 277.02554 C 267.9014 277.47737 267.69602 278.33997 267.5728 278.94242 C 267.31264 280.14732 267.0251 281.051 266.6828 281.68082 C 266.42266 282.16004 265.1493 285.77474 264.91654 286.6784 C 264.32778 288.97867 264.3004 289.34835 264.3141 294.4144 C 264.32778 298.26186 264.38255 299.68583 264.56055 300.9181 C 264.84808 302.90345 265.69698 307.02475 266.40897 309.95484 C 266.7102 311.2008 267.35372 313.93922 267.84663 316.0478 C 268.33954 318.15636 268.81876 320.04586 268.9283 320.25124 C 269.03784 320.44293 269.53075 322.0449 270.03735 323.81117 C 270.53027 325.56375 270.9958 327.12464 271.06425 327.27525 C 271.1327 327.42586 271.25594 327.91877 271.3244 328.3706 C 271.40655 328.82245 271.57086 329.7398 271.6941 330.4244 C 272.05008 332.20437 272.05008 335.7643 271.70778 336.7638 C 270.9958 338.8176 271.25594 345.869 272.29654 352.86563 C 272.8853 356.6994 273.41928 359.86225 273.52882 359.9307 C 273.5836 359.9718 273.7068 360.50578 273.80266 361.1356 C 273.8985 361.75175 274.02173 362.25836 274.0765 362.25836 C 274.13127 362.25836 274.2408 362.7102 274.33665 363.2442 C 274.4325 363.79186 274.5831 364.70923 274.69264 365.2706 C 275.52785 369.80266 275.61 370.4188 275.52785 371.39093 C 275.41832 372.52737 274.98017 373.91026 274.29557 375.2247 C 274.03542 375.745 273.7479 376.32006 273.65205 376.52544 C 273.52882 376.81297 273.51513 377.74403 273.5699 380.3592 C 273.62466 382.2624 273.69312 384.09713 273.7479 384.43943 C 273.83004 385.08295 273.81635 385.12403 272.94006 386.15093 C 272.41976 386.78076 271.5024 387.17783 270.59873 387.17783 C 269.87305 387.17783 269.16106 386.99983 269.01045 386.78076 C 268.96938 386.7123 268.54492 386.46585 268.052 386.2194 C 267.0662 385.72648 265.03977 384.42574 264.77962 384.1108 C 264.6427 383.9465 264.6564 383.8233 264.8207 383.50837 C 265.03977 383.0976 265.28622 382.9333 265.72437 382.9333 C 265.9845 382.9333 266.94296 381.96117 267.2305 381.4135 C 267.32633 381.2355 267.44956 381.0575 267.50433 381.0164 C 267.60017 380.94796 268.35323 374.63594 268.61338 371.70585 C 268.83246 369.29605 268.69554 364.2437 268.33954 361.2999 C 268.052 358.9175 268.03832 358.9038 266.28574 353.56392 C 264.53316 348.2788 263.91702 346.2113 262.5889 341.30957 C 262.2192 339.913 261.78107 338.37948 261.64415 337.88656 C 261.15123 336.2709 258.6319 331.465 255.27736 325.76913 C 254.74337 324.86545 254.1683 323.83855 253.9903 323.46887 C 253.8123 323.11287 253.52478 322.64735 253.34678 322.44196 C 253.1551 322.2366 252.88125 321.92167 252.73064 321.72998 C 252.58003 321.5383 252.38834 321.31922 252.3062 321.22338 C 252.23773 321.12753 252.16927 321.0317 252.16927 320.9906 C 252.16927 320.96323 251.19713 319.42972 249.99224 317.595 C 248.80103 315.77395 247.6509 313.92553 247.43183 313.51477 C 247.21276 313.104 246.92522 312.66586 246.802 312.54264 C 246.66508 312.4194 246.55554 312.2414 246.55554 312.15926 C 246.55554 312.0634 246.4597 311.8854 246.33647 311.7622 C 246.03524 311.46097 246.1311 309.31132 246.55554 307.35336 C 247.1306 304.60126 247.8015 302.835 249.30764 300.16505 C 251.4299 296.38605 252.49788 294.27748 253.1688 292.63444 C 253.826 291.04617 254.8666 287.47255 255.00352 286.3635 C 255.07198 285.80212 255.12674 285.71997 255.41428 285.71997 C 255.59227 285.71997 255.8935 285.8158 256.0852 285.93904 C 256.5918 286.28134 259.63142 286.14442 260.1928 285.76105 C 260.41186 285.61043 260.95954 285.25444 261.3977 284.9532 C 262.78058 284.04954 264.16348 282.65296 264.40993 281.92728 C 264.72485 281.0099 264.69747 278.91504 264.35517 277.55953 C 264.20455 276.95708 264.08132 276.28617 264.08132 276.0534 C 264.08132 275.65634 264.1224 275.61526 264.60162 275.5331 C 265.9845 275.30034 266.7102 274.98543 267.31264 274.30083 C 267.99724 273.56146 268.0931 272.9727 267.65494 272.42502 C 267.42218 272.1375 267.28526 272.1101 266.25836 272.0964 C 264.76593 272.0964 264.35517 271.86365 263.7801 270.69983 C 263.4241 269.96046 263.36934 269.74138 263.4515 269.1937 C 263.54734 268.45433 264.24563 266.93452 265.46422 264.7438 C 265.91606 263.94966 266.3405 263.11445 266.40897 262.89537 C 266.47743 262.69 266.7102 262.07385 266.92926 261.55356 C 267.5317 260.0885 267.79186 258.7467 267.874 256.58335 L 267.95617 254.6254 L 268.2163 255.00877 C 268.35323 255.21415 268.62708 255.72076 268.81876 256.10413 Z"/>
            </g>
            <g>
               <path d="M 105.18544 270.79567 C 105.71943 270.86413 106.4588 270.9326 106.85587 270.9326 L 107.56786 270.9326 L 107.65001 271.5761 C 107.89646 273.493 108.3483 274.62943 109.30674 275.80695 C 109.63535 276.2177 109.90919 276.61478 109.90919 276.69693 C 109.90919 276.9297 110.84025 280.22947 111.16886 281.13314 C 111.59331 282.33804 112.68867 284.474 113.81142 286.26765 C 114.3454 287.13025 115.18062 288.51314 115.67353 289.33466 C 116.15275 290.1562 117.41242 291.96353 118.4667 293.34642 C 119.52099 294.743 120.63004 296.22175 120.93127 296.6599 C 121.23249 297.08435 122.46477 298.60416 123.66967 300.04182 C 126.73668 303.6565 127.88681 305.09418 129.4477 307.2986 C 133.66484 313.21354 136.34848 317.88252 136.62232 319.75833 C 136.77293 320.77154 136.6634 322.68842 136.45802 322.68842 C 136.38956 322.68842 136.33479 323.01703 136.33479 323.4004 C 136.33479 323.79747 136.17048 325.41313 135.9651 327.0014 C 135.65019 329.52074 135.59542 330.49287 135.55434 334.8743 C 135.49957 339.58437 135.6365 343.56875 135.92403 345.691 C 135.99249 346.18393 136.11571 347.19714 136.21156 347.9502 C 136.3074 348.70326 136.41694 349.3468 136.4854 349.38786 C 136.54017 349.42893 136.6634 350.09984 136.74555 350.894 C 136.8277 351.6881 137.06046 353.2901 137.25215 354.4539 C 137.44384 355.61773 137.62184 356.82262 137.66291 357.12385 C 137.70399 357.42507 137.78614 357.6989 137.84091 357.74 C 137.97783 357.83583 139.07319 364.01093 139.07319 364.69554 C 139.07319 365.01045 139.12796 365.2706 139.19642 365.2706 C 139.26488 365.2706 139.4018 365.7909 139.49764 366.43442 C 139.67564 367.62563 139.52503 369.5836 139.2375 369.77527 C 139.16904 369.81635 139.08688 370.0765 139.03212 370.33665 C 138.99104 370.5968 138.74458 371.2951 138.47074 371.88385 C 138.1969 372.4589 137.97783 373.0203 137.97783 373.1298 C 137.97783 373.23936 137.89568 373.3489 137.81353 373.38997 C 137.6766 373.43104 137.63553 374.44425 137.63553 377.88095 C 137.63553 382.2761 137.58076 382.9333 137.15631 382.9333 C 137.08785 382.9333 137.0057 383.04284 136.96462 383.16607 C 136.86878 383.4536 135.55434 383.89175 134.81497 383.89175 C 134.13037 383.89175 133.41839 383.6179 132.07657 382.83746 C 130.88536 382.15286 129.48878 380.94796 129.48878 380.59197 C 129.48878 380.48243 129.83108 380.12644 130.24184 379.78414 C 131.09074 379.09954 132.09026 377.89464 132.09026 377.55234 C 132.09026 377.4428 132.14503 377.31958 132.1998 377.2922 C 132.59687 377.1279 133.08978 372.1166 133.32254 365.9552 C 133.50054 361.62852 133.43208 360.42363 132.82963 357.26077 C 132.63794 356.2065 132.44625 355.09743 132.40518 354.7962 C 132.3641 354.495 132.28195 354.22114 132.21349 354.18007 C 132.15872 354.139 131.98073 353.52285 131.83011 352.81086 C 131.48781 351.24997 130.84429 348.93602 130.73475 348.84018 C 130.67998 348.7991 130.50199 348.2788 130.33768 347.67636 C 130.00907 346.5399 129.51616 344.92426 128.47557 341.63818 C 127.42128 338.3521 126.38069 334.7237 126.13423 333.5051 C 126.011 332.8616 125.8604 332.24545 125.80562 332.1359 C 125.46332 331.465 125.10733 329.87673 124.28581 325.153 C 122.38262 314.28152 121.8897 312.65217 118.27501 305.64186 C 118.04225 305.19002 117.85056 304.75188 117.85056 304.66972 C 117.85056 304.47804 117.02904 303.05407 116.63197 302.53377 C 116.46767 302.34208 116.34444 302.09562 116.34444 301.9861 C 116.34444 301.89024 116.20752 301.58902 116.05691 301.34256 C 115.8926 301.0824 115.2217 299.5626 114.53709 297.98802 C 113.86618 296.39974 112.53806 293.52442 111.59331 291.60754 C 110.66225 289.69066 109.60797 287.4041 109.26567 286.5415 C 107.41724 281.79036 106.25342 278.51797 105.11698 274.90327 C 104.41869 272.68517 103.81624 270.78198 103.77517 270.67244 C 103.7204 270.5492 103.78886 270.50814 103.96685 270.5766 C 104.10377 270.61767 104.66515 270.71352 105.18544 270.79567 Z"/>
            </g>
            <g>
               <path d="M 111.83977 277.7649 C 112.04515 277.86075 112.27791 278.0935 112.36006 278.2715 C 112.48329 278.54535 112.60652 278.60012 113.11312 278.60012 C 113.45542 278.60012 113.77034 278.6549 113.81142 278.73704 C 113.86618 278.8192 114.66032 278.87396 115.75568 278.87396 L 117.6178 278.87396 L 117.34396 279.1752 C 116.72782 279.8598 116.38552 280.8867 116.20752 282.62557 C 116.04322 284.20016 116.22121 284.85737 117.16596 286.26765 C 118.05594 287.5821 118.24763 287.77377 119.4936 288.5679 C 120.56158 289.23882 121.57479 289.52635 123.35475 289.64958 L 124.68288 289.73173 L 124.76503 290.36156 C 124.92934 291.6486 125.10733 292.27845 125.53178 293.15474 C 125.99731 294.14056 127.16113 295.53715 127.79097 295.85206 C 128.01004 295.9616 128.50295 296.23544 128.87264 296.4682 C 130.28291 297.3171 131.03598 297.60464 132.3778 297.76895 C 133.213 297.8785 133.97976 297.89217 134.4316 297.8237 C 134.84236 297.75525 135.23943 297.7005 135.30789 297.7005 C 135.89664 297.64572 137.63553 296.1259 137.77245 295.53715 C 137.90937 295.01685 137.48492 294.11318 137.0057 293.85303 C 136.78662 293.7435 136.36217 293.66134 136.04725 293.66134 C 135.37635 293.66134 134.34944 292.97674 133.71961 292.11414 C 133.37731 291.6486 133.32254 291.44323 133.32254 290.67648 C 133.32254 289.74542 133.37731 289.6222 134.52744 288.18453 C 134.86974 287.7464 136.38956 286.95225 136.86878 286.95225 C 138.05998 286.95225 139.48395 287.9244 139.66195 288.85544 C 139.79887 289.49897 140.23701 290.06034 140.89423 290.41633 C 141.40083 290.67648 141.64729 290.71756 142.96172 290.69017 C 143.78325 290.67648 144.76907 290.59433 145.15245 290.51218 C 145.85074 290.34787 147.56224 289.70435 147.69916 289.55374 C 147.74024 289.51266 148.01408 289.34835 148.329 289.19774 L 148.89037 288.9239 L 149.38328 289.73173 C 149.67081 290.16988 149.88989 290.6354 149.88989 290.77232 C 149.88989 291.0051 150.82094 291.74446 151.10848 291.74446 C 151.17694 291.74446 151.25909 291.90876 151.30016 292.11414 C 151.32755 292.3332 151.51924 293.3875 151.71092 294.48286 C 151.90261 295.57822 152.108 297.04327 152.16276 297.72787 C 152.20384 298.42616 152.29968 299.00123 152.35445 299.00123 C 152.40922 299.00123 152.49137 300.12397 152.54614 301.49318 C 152.65567 304.27266 152.7789 305.64186 153.08013 307.2849 C 153.18966 307.88735 153.38135 309.27024 153.51827 310.3656 C 153.6552 311.46097 153.8195 312.37833 153.86057 312.4194 C 154.03857 312.54264 154.27133 316.12994 154.27133 318.51236 C 154.27133 321.12753 154.05226 324.0987 153.84688 324.16716 C 153.77842 324.19454 153.72365 324.53684 153.72365 324.92022 C 153.72365 325.3173 153.55935 327.0425 153.35397 328.78137 C 153.02536 331.58823 152.98428 332.533 152.92951 337.3389 C 152.90213 340.31005 152.9569 343.78782 153.03905 345.07487 C 153.20335 347.7996 153.70996 352.44118 153.84688 352.53702 C 153.90165 352.5781 154.02488 353.1258 154.10703 353.7693 C 154.44933 356.316 155.28454 361.36838 155.38039 361.43684 C 155.42146 361.4779 155.76376 363.25787 156.11975 365.4075 C 156.48944 367.55717 156.81805 369.33713 156.87282 369.3782 C 156.92758 369.4193 157.0645 370.00804 157.16035 370.69264 C 157.33834 371.9934 157.18773 373.97872 156.9002 374.1567 C 156.81805 374.1978 156.70851 374.43056 156.65374 374.64963 C 156.59898 374.8824 156.32514 375.63546 156.0376 376.34744 C 155.73638 377.04574 155.50361 377.70295 155.50361 377.7988 C 155.50361 377.89464 155.42146 378.0042 155.33931 378.04525 C 155.20239 378.08633 155.16131 379.168 155.16131 382.82377 L 155.16131 387.5612 L 154.73686 388.14996 C 153.9975 389.17687 152.62829 389.4644 150.7114 389.01256 C 149.57497 388.7524 148.98621 388.38273 147.57593 387.0683 C 146.20673 385.79494 146.19304 385.63063 147.37055 384.78173 C 148.1373 384.24774 149.20529 382.87854 149.20529 382.46778 C 149.20529 382.34455 149.26005 382.2487 149.32851 382.2487 C 149.43805 382.2487 149.60235 381.7284 149.82143 380.6741 C 150.23219 378.812 150.64295 371.36355 150.61556 366.43442 L 150.60187 363.696 L 149.42436 359.4515 C 148.76714 357.11016 147.68547 353.16686 147.00087 350.6886 C 146.0972 347.36144 145.5632 345.7047 145.00184 344.39027 C 143.5231 340.9399 142.57835 337.6264 142.03067 333.91588 C 141.57883 330.90363 139.97686 324.7833 138.84043 321.79844 C 137.48492 318.2385 134.03453 311.47466 132.7064 309.76316 C 130.98121 307.54505 128.2428 303.90297 127.24329 302.4927 C 126.65453 301.65748 125.99731 300.83596 125.79193 300.64427 C 125.20318 300.12397 122.68384 297.0022 121.91709 295.85206 C 120.99973 294.49655 119.61683 292.7029 119.47991 292.7029 C 119.41145 292.7029 119.04177 292.22368 118.6447 291.63492 C 118.26132 291.05986 117.6178 290.1425 117.23442 289.6222 C 116.85104 289.0882 116.35813 288.34884 116.13906 287.97915 C 115.91999 287.59578 115.30385 286.58257 114.76986 285.71997 C 113.57865 283.81678 112.57913 281.85882 111.92192 280.10624 C 111.47008 278.87396 111.15516 277.4226 111.38793 277.53214 C 111.4427 277.55953 111.64808 277.66906 111.83977 277.7649 Z"/>
            </g>
            <g>
               <path d="M 223.16957 282.16004 C 224.19647 283.32387 224.36078 283.5977 224.37447 284.18646 C 224.37447 284.73414 223.7857 285.63782 223.04634 286.25396 C 222.5945 286.63734 222.4302 286.6784 221.63607 286.6784 C 220.78716 286.6784 220.7324 286.7058 220.51332 287.08917 C 220.17102 287.69162 220.32163 288.19823 221.14315 289.0745 C 222.04683 290.06034 223.00527 290.38895 224.89477 290.36156 C 225.59306 290.34787 226.18182 290.2931 226.2229 290.23834 C 226.25028 290.19726 226.63365 290.06034 227.0718 289.9645 C 227.50994 289.85496 228.12608 289.66327 228.4547 289.52635 C 228.7833 289.38943 229.07083 289.2799 229.08452 289.2799 C 229.1119 289.2799 229.09822 289.69066 229.07083 290.19726 C 228.9613 291.71707 229.16668 292.1963 230.41265 293.42858 L 231.49432 294.51025 L 232.78137 294.45548 C 234.52026 294.4007 234.71194 294.2364 234.58872 292.96305 L 234.49287 292.05937 L 235.35547 291.88138 C 235.8347 291.78553 236.36868 291.6897 236.56037 291.676 C 236.75205 291.6623 236.9985 291.60754 237.10805 291.56646 C 237.21758 291.5254 237.65573 291.38847 238.0665 291.25155 C 238.47725 291.12832 239.0934 290.88186 239.4357 290.71756 C 240.1203 290.36156 242.3247 288.29407 242.5301 287.78746 C 242.65331 287.48624 242.6944 287.51362 243.379 288.431 C 244.07728 289.37574 244.84404 289.9782 245.9394 290.4711 C 246.37754 290.6628 246.88415 290.70386 248.54088 290.71756 C 250.9096 290.71756 251.38882 290.60802 252.41572 289.82758 C 252.7991 289.52635 253.1277 289.33466 253.1277 289.40312 C 253.1277 289.70435 252.1145 292.40168 251.49836 293.7572 C 251.12867 294.565 250.77268 295.41392 250.7179 295.6467 C 250.66315 295.86576 250.01962 296.9748 249.26656 298.08386 C 246.87046 301.68486 246.4597 302.75284 245.4054 308.09273 C 245.00834 310.07807 244.9262 312.9397 245.20003 315.40427 C 245.56972 318.89573 247.00738 326.04297 247.6372 327.5491 C 248.06166 328.576 248.37658 330.39703 248.60934 333.1628 C 248.81472 335.70953 248.77365 342.624 248.5272 345.691 C 248.3492 347.9365 248.3355 348.6348 248.48612 350.1409 C 248.58196 351.11305 248.6778 352.2632 248.7052 352.67394 C 248.73257 353.0847 248.8421 353.9473 248.95164 354.59083 C 249.06118 355.23435 249.40348 357.3566 249.7184 359.31457 C 250.01962 361.27253 250.32085 362.9019 250.3893 362.94296 C 250.44407 362.98403 250.5673 363.51802 250.66315 364.13416 C 250.759 364.764 250.88222 365.2706 250.937 365.2706 C 250.99175 365.2706 251.1013 365.72244 251.19713 366.25643 C 251.29298 366.8041 251.4436 367.72147 251.55313 368.28284 C 252.38834 372.8149 252.4705 373.43104 252.38834 374.40318 C 252.2788 375.5396 251.84066 376.9225 251.15606 378.23694 C 250.8959 378.75724 250.60838 379.3323 250.51253 379.5377 C 250.3893 379.8252 250.3756 380.75627 250.43038 383.37145 C 250.48515 385.27464 250.5536 387.10937 250.60838 387.45167 C 250.69053 388.0952 250.67684 388.13627 249.80055 389.16317 C 249.28025 389.793 248.3629 390.19008 247.4592 390.19008 C 246.73354 390.19008 246.02155 390.0121 245.87094 389.793 C 245.82986 389.72455 245.4054 389.4781 244.9125 389.23163 C 243.92667 388.7387 241.90025 387.438 241.6401 387.12306 C 241.50319 386.95876 241.51688 386.83553 241.68118 386.5206 C 241.90025 386.10985 242.1467 385.94555 242.58485 385.94555 C 242.845 385.94555 243.80344 384.9734 244.09098 384.42574 C 244.18682 384.24774 244.31005 384.06974 244.36482 384.02867 C 244.46066 383.9602 245.21372 377.6482 245.47387 374.7181 C 245.69294 372.3083 245.55602 367.25594 245.20003 364.31216 C 244.9125 361.92975 244.8988 361.91606 243.14623 356.57617 C 241.39365 351.29105 240.7775 349.22355 239.44938 344.3218 C 239.0797 342.92523 238.64155 341.3917 238.50463 340.8988 C 238.10756 339.5707 236.27283 335.99706 233.67135 331.4513 C 231.3711 327.41217 231.3711 327.41217 230.3442 324.39992 C 229.20775 321.0317 227.79747 317.44438 224.84 310.40668 C 223.74464 307.7915 222.66297 305.14894 222.4302 304.5465 C 222.21113 303.94405 221.95098 303.3279 221.85514 303.1773 C 221.45807 302.56115 220.3764 299.60368 219.65072 297.22127 C 219.23996 295.82468 218.3089 292.3469 217.58323 289.48528 C 216.87124 286.62364 216.2551 284.18646 216.21403 284.06324 C 216.17295 283.89893 216.48787 283.5977 217.37785 282.99526 L 218.62382 282.16004 L 218.52798 282.5982 C 218.4869 282.84465 218.3363 283.2828 218.19937 283.55663 C 217.91184 284.1317 217.85707 284.76153 218.08983 284.9943 C 218.18568 285.09014 218.37737 285.10383 218.62382 285.03537 C 218.8429 284.9669 219.04827 284.9532 219.08935 284.9943 C 219.1578 285.07645 220.29425 284.22754 220.3764 284.03585 C 220.40378 283.9811 220.62286 283.69355 220.8693 283.40602 C 221.11577 283.1185 221.48545 282.50235 221.71822 282.0368 C 221.9373 281.58498 222.15636 281.2016 222.21113 281.2016 C 222.2659 281.2016 222.69035 281.63975 223.16957 282.16004 Z"/>
            </g>
            <g>
               <g  id="feature-0">
                  <path
                        d="M 128.79048 381.7284 C 129.24232 382.19394 129.6257 382.6184 129.6257 382.67316 C 129.6257 382.72792 129.85846 382.9196 130.146 383.0839 C 130.41984 383.2619 130.96752 383.6316 131.3372 383.91913 C 131.72058 384.20666 132.06288 384.43943 132.11765 384.43943 C 132.17241 384.43943 132.3778 384.59004 132.58317 384.78173 C 132.93917 385.11034 133.03501 385.12403 134.56852 385.12403 C 136.37586 385.12403 136.4717 385.1788 135.91033 385.95924 L 135.6365 386.3563 L 127.62666 386.3563 L 119.63052 386.3563 L 119.63052 386.0414 C 119.64422 385.3568 121.09557 383.2756 122.0814 382.50885 C 122.4237 382.2487 122.87553 381.879 123.0946 381.67364 C 123.58752 381.2355 124.9978 380.96165 127.10637 380.9069 L 127.95527 380.8795 L 128.79048 381.7284 Z"
                        fill="#ff0000"/>
               </g>
            </g>
            <g>
               <g  id="feature-1">
                  <path
                        d="M 263.82118 384.8502 C 264.20455 385.1514 264.58793 385.39787 264.67008 385.39787 C 264.75223 385.39787 264.9987 385.56217 265.20407 385.76755 C 265.42314 385.98663 265.90236 386.30154 266.27205 386.49323 C 266.64173 386.6849 267.32633 387.0409 267.80555 387.30106 C 268.9283 387.9035 269.7909 388.16366 271.11902 388.2595 C 271.73516 388.30058 272.22808 388.4101 272.25546 388.49226 C 272.28284 388.5744 272.0227 388.84826 271.6667 389.081 L 271.02318 389.50547 L 262.61628 389.50547 C 254.71598 389.50547 254.22307 389.4918 254.22307 389.259 C 254.23676 388.84826 255.0172 387.7666 256.4138 386.192 C 257.48177 384.9871 259.37127 384.3436 261.93168 384.3162 L 263.13658 384.3025 L 263.82118 384.8502 Z"
                        fill="#ff0000"/>
               </g>
            </g>
            <g>
               <g  id="feature-2">
                  <path
                        d="M 145.2483 386.4111 C 145.46736 386.60277 145.89182 387.0409 146.20673 387.4106 C 146.52165 387.7666 147.04195 388.2458 147.35686 388.47857 C 147.67178 388.69764 148.21946 389.0947 148.56176 389.3275 C 148.90406 389.57393 149.21898 389.7793 149.27375 389.7793 C 149.31482 389.7793 149.58866 389.9436 149.84881 390.149 C 150.31434 390.505 150.45126 390.53238 151.97107 390.58714 C 153.75104 390.6282 153.83319 390.683 153.2992 391.43605 L 153.02536 391.8331 L 144.5363 391.8331 C 134.7739 391.8331 135.67757 391.9974 136.55386 390.3544 C 137.348 388.86195 139.48395 386.7534 140.48347 386.47954 C 141.127 386.31523 142.81111 386.12355 143.98863 386.09616 C 144.7143 386.08247 144.91968 386.13724 145.2483 386.4111 Z"
                        fill="#ff0000"/>
               </g>
            </g>
            <g>
               <g  id="feature-3">
                  <path
                        d="M 240.68166 387.86243 C 241.06504 388.16366 241.44842 388.4101 241.53057 388.4101 C 241.61272 388.4101 241.85918 388.5744 242.06456 388.7798 C 242.28363 388.99887 242.76285 389.3138 243.13254 389.50547 C 243.50222 389.69716 244.18682 390.05315 244.66604 390.3133 C 245.7888 390.91575 246.65138 391.1759 247.9795 391.27174 C 248.59565 391.3128 249.08856 391.42236 249.11595 391.5045 C 249.14333 391.58666 248.88318 391.8605 248.5272 392.09327 L 247.88367 392.5177 L 239.47677 392.5177 C 231.57647 392.5177 231.08356 392.50403 231.08356 392.27126 C 231.09725 391.8605 231.8777 390.77883 233.27428 389.20425 C 234.34226 387.99935 236.23176 387.35583 238.79217 387.32844 L 239.99706 387.31475 L 240.68166 387.86243 Z"
                        fill="#ff0000"/>
               </g>
            </g>
            <g>
               <g  id="outline-1">
                  <path
                        d="M 94.50567 110.44843 C 93.79368 110.62643 93.56092 110.81812 91.91788 112.5707 C 90.46652 114.13159 90.31591 114.32328 90.35699 114.73404 C 90.38437 115.06264 90.46652 115.19957 90.6719 115.21326 C 90.87728 115.24064 91.12374 114.98049 91.68511 114.14528 C 92.80786 112.47485 93.602 111.65333 94.31398 111.46164 C 94.64259 111.3658 95.62841 111.25626 96.5047 111.2015 C 98.07929 111.11934 98.12036 111.11934 98.88712 111.50272 C 99.31157 111.72179 100.48908 112.62547 101.51598 113.50175 C 102.52919 114.39174 103.44656 115.11741 103.5424 115.11741 C 103.63825 115.11741 103.78886 115.03526 103.87101 114.93942 C 103.98055 114.7888 103.62455 114.36435 102.18689 112.94038 C 99.7634 110.57166 99.48956 110.43474 96.847 110.37997 C 95.77903 110.35259 94.73843 110.37997 94.50567 110.44843 Z"
                        fill="black"/>
               </g>
            </g>
            <g>
               <g  id="outline-2">
                  <path
                        d="M 93.424 115.89786 C 92.17803 117.06168 91.60296 117.43136 90.86359 117.52721 C 90.15161 117.62305 89.76823 117.8832 90.08315 118.07489 C 90.17899 118.12966 90.64452 118.19812 91.12374 118.19812 C 91.58927 118.21181 92.0548 118.29396 92.12326 118.36242 C 92.36971 118.60888 92.12326 119.0881 91.76727 119.0881 C 91.57558 119.0881 91.28804 119.27979 91.0279 119.56732 C 90.39806 120.293 90.46652 120.9639 91.12374 120.4573 C 91.54819 120.115 92.08218 120.115 92.52033 120.4573 C 92.71201 120.60791 92.93109 120.73114 93.01324 120.73114 C 93.09539 120.73114 93.32816 120.85437 93.51984 121.00498 C 94.05383 121.42943 95.3135 121.51159 96.08025 121.16929 C 96.77854 120.86806 99.7771 118.02012 99.7771 117.65044 C 99.7771 117.49982 99.61279 117.44506 99.0925 117.44506 C 98.17513 117.44506 97.42207 117.07537 96.1624 115.9937 C 94.80689 114.84357 94.54675 114.82988 93.424 115.89786 Z"
                        fill="black"/>
               </g>
            </g>
            <g>
               <path d="M 95.25873 116.692 C 95.50519 116.95214 96.10764 117.33552 96.58686 117.5409 C 97.77806 118.0612 97.72329 118.26658 96.39517 118.26658 C 94.21814 118.26658 91.97265 117.58198 93.04062 117.25337 C 93.17754 117.1986 93.49246 116.95214 93.75261 116.692 C 94.34136 116.08955 94.66997 116.08955 95.25873 116.692 Z"/>
            </g>
            <g>
               <path d="M 96.35409 119.0881 C 96.35409 119.23871 96.13502 119.49886 95.84749 119.70424 C 94.91643 120.33407 93.34185 120.10131 93.34185 119.33455 C 93.34185 119.11548 93.46508 119.0881 94.2729 119.0744 C 94.77951 119.0744 95.3135 119.01964 95.46411 118.95118 C 95.97072 118.7321 96.35409 118.78687 96.35409 119.0881 Z"/>
            </g>
         </g>
      </g>
   </g>
</svg>