<?xml version="1.0" encoding="utf-8"?>
<svg xmlns="http://www.w3.org/2000/svg" xmlns:dc="http://purl.org/dc/elements/1.1/"
     xmlns:xl="http://www.w3.org/1999/xlink"
     xmlns:xlink="http://www.w3.org/1999/xlink"
     version="1.1"
     viewBox="49.5 85.5 265.5 247.5"
     width="265.5"
     height="247.5"
     preserveAspectRatio="xMidYMid meet"
     zoomAndPan="magnify"
     contentScriptType="application/ecmascript"
     contentStyleType="text/css">
   <defs/>
   <metadata xmlns="" xmlns:svg="http://www.w3.org/2000/svg"
             xmlns:rdf="http://www.w3.org/1999/02/22-rdf-syntax-ns#"
             xmlns:cc="http://creativecommons.org/ns#">
      <rdf:RDF>
         <cc:Work rdf:about="">
            <dc:creator>
               <cc:Agent>
                  <dc:title>http://heraldicart.org Lynx Statant (2).svg</dc:title>
               </cc:Agent>
            </dc:creator>
         </cc:Work>
      </rdf:RDF>
   </metadata>
   <g stroke-opacity="1" stroke-dasharray="none" stroke="#505050" fill="#ffff00"
      fill-opacity="1">
      <title>Lynx Statant (2)</title>
      <g>
         <title>Art</title>
         <g>
            <g>
               <g>
                  <title>path26</title>
                  <path d="M 115.80297 250.34492 L 95.47484 267.50953 L 85.27207 276.5373 C 81.20783 279.81277 76.16762 281.63983 70.94856 281.72954 C 67.52694 280.89964 63.91394 281.70666 61.17066 283.9136 C 58.427376 286.12056 56.865255 289.47687 56.94307 292.99684 C 56.39393 296.1438 57.59857 299.34057 60.087994 301.34252 C 62.577416 303.34447 65.958185 303.83522 68.91407 302.6237 C 68.065036 302.13513 67.29777 301.5166 66.64018 300.79055 C 64.73702 298.80706 63.82553 296.07356 64.157406 293.3448 C 64.48928 290.61605 66.0294 288.1807 68.352515 286.71124 C 66.094525 288.23144 64.60828 290.65754 64.279644 293.35967 C 63.95101 296.0618 64.8124 298.77343 66.64018 300.79055 C 67.3561 301.5384 68.193645 302.15943 69.11721 302.62725 C 71.4094 304.19086 74.36534 304.40107 76.85573 303.17756 C 72.27116 299.2372 71.64762 292.3669 75.44788 287.66556 C 71.95117 292.455 72.55389 299.0959 76.85573 303.17756 C 78.48163 304.6045 80.73412 305.0799 82.79798 304.43174 C 84.86185 303.78358 86.43811 302.10575 86.95629 300.00547 C 88.62658 297.8222 91.5037 296.9481 94.10623 297.83322 C 100.62057 297.856 105.93797 292.62808 106.02574 286.11428 C 113.82122 277.76064 122.67131 270.4577 132.3528 264.3896 C 136.91168 259.58725 143.47033 257.21926 150.04558 258.00165 C 157.1891 258.19054 164.26633 256.58896 170.6325 253.34282 C 185.35921 241.4905 191.89576 222.1861 187.3995 203.8248 L 175.78325 180.96075 Z"/>
                  <path d="M 115.80297 250.34492 L 95.47484 267.50953 L 85.27207 276.5373 C 81.20783 279.81277 76.16762 281.63983 70.94856 281.72954 C 67.52694 280.89964 63.91394 281.70666 61.17066 283.9136 C 58.427376 286.12056 56.865255 289.47687 56.94307 292.99684 C 56.39393 296.1438 57.59857 299.34057 60.087994 301.34252 C 62.577416 303.34447 65.958185 303.83522 68.91407 302.6237 C 68.065036 302.13513 67.29777 301.5166 66.64018 300.79055 C 64.73702 298.80706 63.82553 296.07356 64.157406 293.3448 C 64.48928 290.61605 66.0294 288.1807 68.352515 286.71124 C 66.094525 288.23144 64.60828 290.65754 64.279644 293.35967 C 63.95101 296.0618 64.8124 298.77343 66.64018 300.79055 C 67.3561 301.5384 68.193645 302.15943 69.11721 302.62725 C 71.4094 304.19086 74.36534 304.40107 76.85573 303.17756 C 72.27116 299.2372 71.64762 292.3669 75.44788 287.66556 C 71.95117 292.455 72.55389 299.0959 76.85573 303.17756 C 78.48163 304.6045 80.73412 305.0799 82.79798 304.43174 C 84.86185 303.78358 86.43811 302.10575 86.95629 300.00547 C 88.62658 297.8222 91.5037 296.9481 94.10623 297.83322 C 100.62057 297.856 105.93797 292.62808 106.02574 286.11428 C 113.82122 277.76064 122.67131 270.4577 132.3528 264.3896 C 136.91168 259.58725 143.47033 257.21926 150.04558 258.00165 C 157.1891 258.19054 164.26633 256.58896 170.6325 253.34282 C 185.35921 241.4905 191.89576 222.1861 187.3995 203.8248 L 175.78325 180.96075 Z"
                        stroke="black"
                        stroke-linecap="round"
                        stroke-linejoin="round"
                        stroke-width="1.3960714"/>
               </g>
               <g>
                  <title>path31</title>
                  <path d="M 127.0718 255.5042 C 127.43527 257.36536 126.98551 259.33843 125.83703 260.92105 C 124.68856 262.50367 122.95217 263.54315 121.06996 263.77483 C 112.07532 267.72865 104.61094 274.5011 99.80349 283.0699"
                        stroke="black"
                        stroke-linecap="round"
                        stroke-linejoin="round"
                        stroke-width="1.0470535"/>
               </g>
               <g>
                  <title>path36</title>
                  <path d="M 66.643204 300.79295 C 64.812276 298.77553 63.948935 296.06174 64.27768 293.35725 C 64.60642 290.65277 66.09477 288.22484 68.35569 286.7048 C 66.0295 288.17397 64.48713 290.61117 64.15514 293.34236 C 63.82315 296.07355 64.73672 298.80928 66.643204 300.79295 Z"
                        stroke="black"
                        stroke-linecap="round"
                        stroke-linejoin="round"
                        stroke-width="1.3960714"/>
               </g>
               <g>
                  <title>path41</title>
                  <path d="M 76.85078 303.17627 C 72.55681 299.0935 71.958024 292.45887 75.45161 287.67326 C 71.655135 292.3709 72.274565 299.23427 76.85078 303.17627 Z"
                        stroke="black"
                        stroke-linecap="round"
                        stroke-linejoin="round"
                        stroke-width="1.3960714"/>
               </g>
               <g>
                  <title>path49</title>
                  <g  id="feature-0">
                     <path
                           d="M 53.47038 299.17727 C 50.95565 293.4568 53.465904 286.7749 59.12512 284.12525 C 60.59873 283.82615 62.098085 284.5055 62.8448 285.81067 C 63.59151 287.1158 63.417334 288.75266 62.412686 289.87144 C 59.87629 289.49014 57.312505 290.36273 55.53533 292.21215 C 53.758155 294.06157 52.98837 296.65807 53.47038 299.17727 Z"
                           fill="#ff0000"/>
                  </g>
                  <path d="M 53.47038 299.17727 C 50.95565 293.4568 53.465904 286.7749 59.12512 284.12525 C 60.59873 283.82615 62.098085 284.5055 62.8448 285.81067 C 63.59151 287.1158 63.417334 288.75266 62.412686 289.87144 C 59.87629 289.49014 57.312505 290.36273 55.53533 292.21215 C 53.758155 294.06157 52.98837 296.65807 53.47038 299.17727 Z"
                        stroke="black"
                        stroke-linecap="round"
                        stroke-linejoin="round"
                        stroke-width="1.3960714"/>
               </g>
               <g>
                  <title>path54</title>
                  <g  id="feature-1">
                     <path
                           d="M 60.4351 305.7697 C 57.92036 300.04924 60.43062 293.36734 66.089835 290.71767 C 67.56345 290.41857 69.0628 291.09794 69.809514 292.4031 C 70.55623 293.70824 70.38205 295.34508 69.3774 296.46387 C 66.841 296.08257 64.27722 296.95515 62.500045 298.80457 C 60.72287 300.654 59.95309 303.2505 60.4351 305.7697 Z"
                           fill="#ff0000"/>
                  </g>
                  <path d="M 60.4351 305.7697 C 57.92036 300.04924 60.43062 293.36734 66.089835 290.71767 C 67.56345 290.41857 69.0628 291.09794 69.809514 292.4031 C 70.55623 293.70824 70.38205 295.34508 69.3774 296.46387 C 66.841 296.08257 64.27722 296.95515 62.500045 298.80457 C 60.72287 300.654 59.95309 303.2505 60.4351 305.7697 Z"
                        stroke="black"
                        stroke-linecap="round"
                        stroke-linejoin="round"
                        stroke-width="1.3960714"/>
               </g>
               <g>
                  <title>path59</title>
                  <g  id="feature-2">
                     <path
                           d="M 72.06329 308.7648 C 69.54855 303.04435 72.05881 296.36245 77.71803 293.7128 C 79.19164 293.4137 80.69099 294.09305 81.437705 295.3982 C 82.18442 296.70335 82.01024 298.3402 81.00559 299.45898 C 78.46919 299.07768 75.90541 299.95026 74.12824 301.7997 C 72.35106 303.6491 71.58128 306.2456 72.06329 308.7648 Z"
                           fill="#ff0000"/>
                  </g>
                  <path d="M 72.06329 308.7648 C 69.54855 303.04435 72.05881 296.36245 77.71803 293.7128 C 79.19164 293.4137 80.69099 294.09305 81.437705 295.3982 C 82.18442 296.70335 82.01024 298.3402 81.00559 299.45898 C 78.46919 299.07768 75.90541 299.95026 74.12824 301.7997 C 72.35106 303.6491 71.58128 306.2456 72.06329 308.7648 Z"
                        stroke="black"
                        stroke-linecap="round"
                        stroke-linejoin="round"
                        stroke-width="1.3960714"/>
               </g>
            </g>
            <g>
               <g>
                  <title>path67</title>
                  <path d="M 225.23597 227.84287 C 216.02856 228.13093 207.3708 232.29335 201.39573 239.30463 C 195.42067 246.3159 192.68383 255.52418 193.8595 264.66077 C 195.81018 267.99038 195.966 272.07505 194.27467 275.5436 C 198.38805 273.73757 201.6731 270.4525 203.47914 266.33913 C 204.41616 273.5511 204.69704 280.83322 204.31832 288.09596 C 209.32294 283.18565 212.80945 276.93937 214.36197 270.10218 L 220.63373 279.73066 C 220.90905 283.6315 218.74273 287.29596 215.19232 288.93514 C 211.6503 292.6615 206.9156 295.03043 201.80961 295.6309 C 193.35885 293.47334 184.38548 295.281 177.42924 300.5423 C 174.28556 302.55243 172.99358 306.49926 174.34011 309.97923 C 175.68664 313.4592 179.29873 315.50846 182.97666 314.87903 C 180.85445 312.12856 180.40211 308.4393 181.79698 305.2576 C 183.19185 302.0759 186.21163 299.90883 189.67243 299.60597 C 186.21977 299.9251 183.20443 302.07373 181.77554 305.233 C 180.34665 308.39227 180.72433 312.0755 182.76466 314.87903 C 183.79144 316.1611 185.31909 316.9408 186.95971 317.02023 C 188.60034 317.09964 190.19615 316.4711 191.34195 315.2942 C 189.42307 312.77507 188.9991 309.42164 190.23067 306.5042 C 191.46223 303.58678 194.16095 301.55155 197.30455 301.1695 C 194.15144 301.57876 191.45459 303.63552 190.22587 306.56807 C 188.99715 309.5006 189.42236 312.8655 191.34195 315.4002 C 195.44456 318.66515 201.25806 318.66515 205.36067 315.4002 C 205.88912 314.73464 206.6858 314.33804 207.5354 314.31757 C 208.385 314.2971 209.19984 314.65487 209.75974 315.2942 C 211.85677 316.4696 214.38033 316.6061 216.5919 315.6637 C 218.80347 314.72133 220.453 312.80664 221.05774 310.47997 C 220.91958 306.31026 223.25888 302.45302 227.02033 300.6483 L 255.15493 282.86654 C 258.7959 272.61337 260.0143 261.65662 258.7148 250.85406 C 253.53978 236.87916 240.13724 227.66713 225.23597 227.84287 Z"/>
                  <path d="M 225.23597 227.84287 C 216.02856 228.13093 207.3708 232.29335 201.39573 239.30463 C 195.42067 246.3159 192.68383 255.52418 193.8595 264.66077 C 195.81018 267.99038 195.966 272.07505 194.27467 275.5436 C 198.38805 273.73757 201.6731 270.4525 203.47914 266.33913 C 204.41616 273.5511 204.69704 280.83322 204.31832 288.09596 C 209.32294 283.18565 212.80945 276.93937 214.36197 270.10218 L 220.63373 279.73066 C 220.90905 283.6315 218.74273 287.29596 215.19232 288.93514 C 211.6503 292.6615 206.9156 295.03043 201.80961 295.6309 C 193.35885 293.47334 184.38548 295.281 177.42924 300.5423 C 174.28556 302.55243 172.99358 306.49926 174.34011 309.97923 C 175.68664 313.4592 179.29873 315.50846 182.97666 314.87903 C 180.85445 312.12856 180.40211 308.4393 181.79698 305.2576 C 183.19185 302.0759 186.21163 299.90883 189.67243 299.60597 C 186.21977 299.9251 183.20443 302.07373 181.77554 305.233 C 180.34665 308.39227 180.72433 312.0755 182.76466 314.87903 C 183.79144 316.1611 185.31909 316.9408 186.95971 317.02023 C 188.60034 317.09964 190.19615 316.4711 191.34195 315.2942 C 189.42307 312.77507 188.9991 309.42164 190.23067 306.5042 C 191.46223 303.58678 194.16095 301.55155 197.30455 301.1695 C 194.15144 301.57876 191.45459 303.63552 190.22587 306.56807 C 188.99715 309.5006 189.42236 312.8655 191.34195 315.4002 C 195.44456 318.66515 201.25806 318.66515 205.36067 315.4002 C 205.88912 314.73464 206.6858 314.33804 207.5354 314.31757 C 208.385 314.2971 209.19984 314.65487 209.75974 315.2942 C 211.85677 316.4696 214.38033 316.6061 216.5919 315.6637 C 218.80347 314.72133 220.453 312.80664 221.05774 310.47997 C 220.91958 306.31026 223.25888 302.45302 227.02033 300.6483 L 255.15493 282.86654 C 258.7959 272.61337 260.0143 261.65662 258.7148 250.85406 C 253.53978 236.87916 240.13724 227.66713 225.23597 227.84287 Z"
                        stroke="black"
                        stroke-linecap="round"
                        stroke-linejoin="round"
                        stroke-width="1.3960714"/>
               </g>
               <g>
                  <title>path72</title>
                  <path d="M 238.6301 281.40134 C 239.97223 282.38997 240.33264 284.24227 239.45913 285.66202 C 238.5856 287.08178 236.76973 287.5951 235.2822 286.84275 C 226.61593 289.19164 219.0576 294.52564 213.94055 301.9038"
                        stroke="black"
                        stroke-linecap="round"
                        stroke-linejoin="round"
                        stroke-width="1.0470535"/>
               </g>
               <g>
                  <title>path80</title>
                  <g  id="feature-3">
                     <path
                           d="M 167.42575 318.777 C 164.79677 313.07374 167.19908 306.31465 172.83778 303.54987 C 174.3142 303.21974 175.8358 303.8743 176.6114 305.17325 C 177.387 306.47218 177.2415 308.1222 176.25055 309.26535 C 173.6941 308.9261 171.13196 309.84816 169.37798 311.73867 C 167.624 313.62917 166.89619 316.25312 167.42575 318.777 Z"
                           fill="#ff0000"/>
                  </g>
                  <path d="M 167.42575 318.777 C 164.79677 313.07374 167.19908 306.31465 172.83778 303.54987 C 174.3142 303.21974 175.8358 303.8743 176.6114 305.17325 C 177.387 306.47218 177.2415 308.1222 176.25055 309.26535 C 173.6941 308.9261 171.13196 309.84816 169.37798 311.73867 C 167.624 313.62917 166.89619 316.25312 167.42575 318.777 Z"
                        stroke="black"
                        stroke-linecap="round"
                        stroke-linejoin="round"
                        stroke-width="1.3960714"/>
               </g>
               <g>
                  <title>path85</title>
                  <g  id="feature-4">
                     <path
                           d="M 176.32345 323.461 C 173.69447 317.7577 176.09678 310.99862 181.73548 308.23384 C 183.2119 307.9037 184.7335 308.5583 185.5091 309.85722 C 186.2847 311.15615 186.1392 312.80617 185.14825 313.94932 C 182.5918 313.61006 180.02966 314.53213 178.27568 316.42264 C 176.5217 318.31314 175.79389 320.9371 176.32345 323.461 Z"
                           fill="#ff0000"/>
                  </g>
                  <path d="M 176.32345 323.461 C 173.69447 317.7577 176.09678 310.99862 181.73548 308.23384 C 183.2119 307.9037 184.7335 308.5583 185.5091 309.85722 C 186.2847 311.15615 186.1392 312.80617 185.14825 313.94932 C 182.5918 313.61006 180.02966 314.53213 178.27568 316.42264 C 176.5217 318.31314 175.79389 320.9371 176.32345 323.461 Z"
                        stroke="black"
                        stroke-linecap="round"
                        stroke-linejoin="round"
                        stroke-width="1.3960714"/>
               </g>
               <g>
                  <title>path90</title>
                  <g  id="feature-5">
                     <path
                           d="M 189.40968 327.2748 C 186.7807 321.5715 189.183 314.81243 194.8217 312.04765 C 196.29812 311.71752 197.81972 312.3721 198.59532 313.67103 C 199.37093 314.96996 199.22542 316.61998 198.23447 317.76313 C 195.67803 317.42387 193.11589 318.34594 191.3619 320.23645 C 189.60791 322.12695 188.88011 324.7509 189.40968 327.2748 Z"
                           fill="#ff0000"/>
                  </g>
                  <path d="M 189.40968 327.2748 C 186.7807 321.5715 189.183 314.81243 194.8217 312.04765 C 196.29812 311.71752 197.81972 312.3721 198.59532 313.67103 C 199.37093 314.96996 199.22542 316.61998 198.23447 317.76313 C 195.67803 317.42387 193.11589 318.34594 191.3619 320.23645 C 189.60791 322.12695 188.88011 324.7509 189.40968 327.2748 Z"
                        stroke="black"
                        stroke-linecap="round"
                        stroke-linejoin="round"
                        stroke-width="1.3960714"/>
               </g>
            </g>
            <g>
               <g>
                  <title>path18</title>
                  <path d="M 260.82037 210.76074 C 274.9053 212.6319 289.09138 208.12868 299.51835 198.4765 C 300.70916 196.13807 303.1383 194.69258 305.7616 194.7614 C 308.38487 194.83024 310.73488 196.40111 311.80143 198.79878 C 312.86798 201.19644 312.46105 203.9937 310.75555 205.98808 C 299.18656 220.83884 279.7768 227.20516 261.65952 222.09136 C 259.27202 221.3387 257.5843 219.20697 257.3994 216.71048 C 257.21452 214.214 258.5698 211.8569 260.82037 210.76074 Z"/>
                  <path d="M 260.82037 210.76074 C 274.9053 212.6319 289.09138 208.12868 299.51835 198.4765 C 300.70916 196.13807 303.1383 194.69258 305.7616 194.7614 C 308.38487 194.83024 310.73488 196.40111 311.80143 198.79878 C 312.86798 201.19644 312.46105 203.9937 310.75555 205.98808 C 299.18656 220.83884 279.7768 227.20516 261.65952 222.09136 C 259.27202 221.3387 257.5843 219.20697 257.3994 216.71048 C 257.21452 214.214 258.5698 211.8569 260.82037 210.76074 Z"
                        stroke="black"
                        stroke-linecap="round"
                        stroke-linejoin="round"
                        stroke-width="1.3960714"/>
               </g>
               <g>
                  <title>path101</title>
                  <path d="M 225.3184 244.80076 C 225.9719 244.87555 226.61808 245.00417 227.2504 245.1853 C 226.60893 245.0447 225.96482 244.9165 225.3184 244.80076 C 220.3023 244.23682 215.47276 246.88526 213.25158 251.418 L 237.34973 248.27326 C 235.73625 252.38626 233.35763 256.15607 230.33986 259.38302 C 235.01564 260.0918 239.71402 258.24988 242.66235 254.55223 L 240.4218 269.50466 C 245.0703 268.44518 248.64802 264.73004 249.53162 260.04493 C 251.0154 269.6803 250.59003 279.51343 248.27972 288.9847 C 254.33092 285.5583 258.56344 279.63805 259.84785 272.80376 C 265.17694 276.9731 267.85823 283.6819 266.87082 290.37573 C 269.90955 288.72024 272.0724 285.8187 272.79094 282.4337 C 273.50948 279.0487 272.71185 275.51874 270.60768 272.77155 L 283.6112 281.42736 C 285.8009 283.5128 286.26332 286.83274 284.7269 289.4372 L 282.8029 297.57607 C 277.99757 295.0902 272.2286 295.37 267.6864 298.30923 C 264.97434 299.53018 263.39903 302.39987 263.825 305.34342 C 264.25095 308.28697 266.57515 310.59237 269.52207 310.9944 C 268.5929 308.25935 269.25213 305.2347 271.23522 303.1344 C 273.2183 301.0341 276.20014 300.20245 278.984 300.9732 C 276.21803 300.31648 273.31182 301.1853 271.36012 303.25235 C 269.40843 305.3194 268.70776 308.27067 269.52207 310.9944 C 269.8546 312.6488 271.11998 313.95812 272.76205 314.34694 C 274.40412 314.73576 276.12228 314.1329 277.1614 312.8033 C 276.32117 309.1196 277.78047 305.29225 280.8599 303.10306 C 283.93934 300.91386 288.0337 300.7931 291.2368 302.79698 C 288.0279 300.8488 283.96775 300.99578 280.90813 303.1709 C 277.8485 305.346 276.37568 309.13246 277.1614 312.8033 C 277.1759 312.87847 277.1913 312.95346 277.20765 313.02826 C 277.40752 315.79904 279.2208 318.19205 281.8342 319.13402 C 284.4476 320.076 287.3706 319.3901 289.29226 317.384 C 289.65012 316.24624 290.68082 315.45336 291.8723 315.39928 C 293.0638 315.3452 294.1621 316.04143 294.62157 317.1421 C 295.58844 318.33646 297.223 318.75746 298.64653 318.17877 C 300.07006 317.6001 300.94726 316.15803 300.80654 314.6278 C 302.2482 310.5399 301.73057 306.01615 299.40276 302.35955 C 302.87868 303.9038 305.07105 307.4015 304.9458 311.20297 C 308.8087 305.7912 307.61677 298.28138 302.26805 294.33165 C 303.98387 285.46575 303.17186 276.29603 299.92474 267.86962 C 304.09174 263.71173 306.27375 257.96534 305.91668 252.0896 C 302.12344 258.14438 294.9194 261.1426 287.95045 259.56685 C 294.78942 257.55517 300.29602 252.46417 302.8371 245.80374 C 297.13955 250.42377 289.53717 251.95284 282.49647 249.89485 C 288.02663 248.49642 293.08255 245.6454 297.1409 241.63692 C 290.09346 241.88026 283.4524 238.342 279.7233 232.35706 C 279.34316 230.7602 278.86427 229.18846 278.2894 227.65093 C 277.26926 221.89785 273.9864 216.79345 269.17474 213.47887 C 266.253 210.56036 262.89346 208.11599 259.2175 206.23409 C 247.858 199.6981 234.2135 198.43908 221.8498 202.78603 C 214.11534 204.18906 206.14503 202.33036 199.82906 197.65075 C 185.35823 187.9226 165.98356 190.03436 153.94829 202.65157 C 141.91302 215.26878 140.7178 234.7215 151.11791 248.7172 C 163.03457 259.20314 180.7682 259.59273 193.13387 249.64024 C 203.04688 244.55935 214.34955 242.8598 225.3184 244.80076 Z"/>
                  <path d="M 225.3184 244.80076 C 225.9719 244.87555 226.61808 245.00417 227.2504 245.1853 C 226.60893 245.0447 225.96482 244.9165 225.3184 244.80076 C 220.3023 244.23682 215.47276 246.88526 213.25158 251.418 L 237.34973 248.27326 C 235.73625 252.38626 233.35763 256.15607 230.33986 259.38302 C 235.01564 260.0918 239.71402 258.24988 242.66235 254.55223 L 240.4218 269.50466 C 245.0703 268.44518 248.64802 264.73004 249.53162 260.04493 C 251.0154 269.6803 250.59003 279.51343 248.27972 288.9847 C 254.33092 285.5583 258.56344 279.63805 259.84785 272.80376 C 265.17694 276.9731 267.85823 283.6819 266.87082 290.37573 C 269.90955 288.72024 272.0724 285.8187 272.79094 282.4337 C 273.50948 279.0487 272.71185 275.51874 270.60768 272.77155 L 283.6112 281.42736 C 285.8009 283.5128 286.26332 286.83274 284.7269 289.4372 L 282.8029 297.57607 C 277.99757 295.0902 272.2286 295.37 267.6864 298.30923 C 264.97434 299.53018 263.39903 302.39987 263.825 305.34342 C 264.25095 308.28697 266.57515 310.59237 269.52207 310.9944 C 268.5929 308.25935 269.25213 305.2347 271.23522 303.1344 C 273.2183 301.0341 276.20014 300.20245 278.984 300.9732 C 276.21803 300.31648 273.31182 301.1853 271.36012 303.25235 C 269.40843 305.3194 268.70776 308.27067 269.52207 310.9944 C 269.8546 312.6488 271.11998 313.95812 272.76205 314.34694 C 274.40412 314.73576 276.12228 314.1329 277.1614 312.8033 C 276.32117 309.1196 277.78047 305.29225 280.8599 303.10306 C 283.93934 300.91386 288.0337 300.7931 291.2368 302.79698 C 288.0279 300.8488 283.96775 300.99578 280.90813 303.1709 C 277.8485 305.346 276.37568 309.13246 277.1614 312.8033 C 277.1759 312.87847 277.1913 312.95346 277.20765 313.02826 C 277.40752 315.79904 279.2208 318.19205 281.8342 319.13402 C 284.4476 320.076 287.3706 319.3901 289.29226 317.384 C 289.65012 316.24624 290.68082 315.45336 291.8723 315.39928 C 293.0638 315.3452 294.1621 316.04143 294.62157 317.1421 C 295.58844 318.33646 297.223 318.75746 298.64653 318.17877 C 300.07006 317.6001 300.94726 316.15803 300.80654 314.6278 C 302.2482 310.5399 301.73057 306.01615 299.40276 302.35955 C 302.87868 303.9038 305.07105 307.4015 304.9458 311.20297 C 308.8087 305.7912 307.61677 298.28138 302.26805 294.33165 C 303.98387 285.46575 303.17186 276.29603 299.92474 267.86962 C 304.09174 263.71173 306.27375 257.96534 305.91668 252.0896 C 302.12344 258.14438 294.9194 261.1426 287.95045 259.56685 C 294.78942 257.55517 300.29602 252.46417 302.8371 245.80374 C 297.13955 250.42377 289.53717 251.95284 282.49647 249.89485 C 288.02663 248.49642 293.08255 245.6454 297.1409 241.63692 C 290.09346 241.88026 283.4524 238.342 279.7233 232.35706 C 279.34316 230.7602 278.86427 229.18846 278.2894 227.65093 C 277.26926 221.89785 273.9864 216.79345 269.17474 213.47887 C 266.253 210.56036 262.89346 208.11599 259.2175 206.23409 C 247.858 199.6981 234.2135 198.43908 221.8498 202.78603 C 214.11534 204.18906 206.14503 202.33036 199.82906 197.65075 C 185.35823 187.9226 165.98356 190.03436 153.94829 202.65157 C 141.91302 215.26878 140.7178 234.7215 151.11791 248.7172 C 163.03457 259.20314 180.7682 259.59273 193.13387 249.64024 C 203.04688 244.55935 214.34955 242.8598 225.3184 244.80076 Z"
                        stroke="black"
                        stroke-linecap="round"
                        stroke-linejoin="round"
                        stroke-width="1.3960714"/>
               </g>
               <g>
                  <title>path109</title>
                  <g  id="feature-6">
                     <path
                           d="M 256.3963 314.03855 C 255.00793 308.357 258.4061 302.60547 264.05244 301.08023 C 265.46006 301.04365 266.7325 301.9138 267.20897 303.23883 C 267.68546 304.56385 267.25858 306.04508 266.15002 306.9133 C 263.8741 306.1513 261.37002 306.53977 259.43197 307.95554 C 257.49393 309.3713 256.3624 311.6387 256.3963 314.03855 Z"
                           fill="#ff0000"/>
                  </g>
                  <path d="M 256.3963 314.03855 C 255.00793 308.357 258.4061 302.60547 264.05244 301.08023 C 265.46006 301.04365 266.7325 301.9138 267.20897 303.23883 C 267.68546 304.56385 267.25858 306.04508 266.15002 306.9133 C 263.8741 306.1513 261.37002 306.53977 259.43197 307.95554 C 257.49393 309.3713 256.3624 311.6387 256.3963 314.03855 Z"
                        stroke="black"
                        stroke-linecap="round"
                        stroke-linejoin="round"
                        stroke-width="1.3960714"/>
               </g>
               <g>
                  <title>path114</title>
                  <g  id="feature-7">
                     <path
                           d="M 263.69947 319.90276 C 262.3111 314.22122 265.70927 308.46968 271.3556 306.94444 C 272.76323 306.90786 274.03566 307.778 274.51214 309.10304 C 274.98862 310.42806 274.56175 311.9093 273.4532 312.77752 C 271.17728 312.0155 268.6732 312.40398 266.73514 313.81975 C 264.7971 315.23552 263.66558 317.5029 263.69947 319.90276 Z"
                           fill="#ff0000"/>
                  </g>
                  <path d="M 263.69947 319.90276 C 262.3111 314.22122 265.70927 308.46968 271.3556 306.94444 C 272.76323 306.90786 274.03566 307.778 274.51214 309.10304 C 274.98862 310.42806 274.56175 311.9093 273.4532 312.77752 C 271.17728 312.0155 268.6732 312.40398 266.73514 313.81975 C 264.7971 315.23552 263.66558 317.5029 263.69947 319.90276 Z"
                        stroke="black"
                        stroke-linecap="round"
                        stroke-linejoin="round"
                        stroke-width="1.3960714"/>
               </g>
               <g>
                  <title>path119</title>
                  <g  id="feature-8">
                     <path
                           d="M 274.98702 325.71576 C 273.59865 320.03422 276.99682 314.28268 282.64316 312.75744 C 284.05078 312.72086 285.3232 313.591 285.7997 314.91604 C 286.27618 316.24106 285.8493 317.7223 284.74074 318.59052 C 282.46483 317.8285 279.96074 318.21698 278.0227 319.63275 C 276.08465 321.04852 274.95313 323.3159 274.98702 325.71576 Z"
                           fill="#ff0000"/>
                  </g>
                  <path d="M 274.98702 325.71576 C 273.59865 320.03422 276.99682 314.28268 282.64316 312.75744 C 284.05078 312.72086 285.3232 313.591 285.7997 314.91604 C 286.27618 316.24106 285.8493 317.7223 284.74074 318.59052 C 282.46483 317.8285 279.96074 318.21698 278.0227 319.63275 C 276.08465 321.04852 274.95313 323.3159 274.98702 325.71576 Z"
                        stroke="black"
                        stroke-linecap="round"
                        stroke-linejoin="round"
                        stroke-width="1.3960714"/>
               </g>
               <g>
                  <title>path127</title>
                  <path d="M 290.05577 268.81946 C 297.34335 275.46064 299.91116 285.12573 296.88074 294.5082"
                        stroke="black"
                        stroke-linecap="round"
                        stroke-linejoin="round"
                        stroke-width="1.0470535"/>
               </g>
               <g>
                  <title>path382</title>
                  <path d="M 214.63828 209.46622 C 214.41064 210.50466 214.76352 211.58493 215.5603 212.28874 C 216.35707 212.99254 217.47264 213.20939 218.47505 212.8553 C 219.47745 212.50122 220.20932 211.6318 220.38726 210.5837 C 220.6149 209.54526 220.26202 208.465 219.46524 207.76119 C 218.66847 207.05738 217.5529 206.84054 216.5505 207.19462 C 215.5481 207.5487 214.81622 208.4181 214.63828 209.46622 Z"
                        fill="#ccc"/>
                  <path d="M 214.63828 209.46622 C 214.41064 210.50466 214.76352 211.58493 215.5603 212.28874 C 216.35707 212.99254 217.47264 213.20939 218.47505 212.8553 C 219.47745 212.50122 220.20932 211.6318 220.38726 210.5837 C 220.6149 209.54526 220.26202 208.465 219.46524 207.76119 C 218.66847 207.05738 217.5529 206.84054 216.5505 207.19462 C 215.5481 207.5487 214.81622 208.4181 214.63828 209.46622 Z"
                        stroke="black"
                        stroke-linecap="round"
                        stroke-linejoin="round"
                        stroke-width=".6980357"/>
               </g>
               <g>
                  <title>path387</title>
                  <path d="M 234.38947 213.30546 C 234.16183 214.3439 234.51472 215.42417 235.3115 216.12798 C 236.10827 216.83179 237.22383 217.04863 238.22624 216.69455 C 239.22865 216.34047 239.96051 215.47106 240.13846 214.42295 C 240.3661 213.3845 240.0132 212.30423 239.21644 211.60043 C 238.41966 210.89662 237.3041 210.67978 236.3017 211.03386 C 235.29928 211.38794 234.56742 212.25735 234.38947 213.30546 Z"
                        fill="#ccc"/>
                  <path d="M 234.38947 213.30546 C 234.16183 214.3439 234.51472 215.42417 235.3115 216.12798 C 236.10827 216.83179 237.22383 217.04863 238.22624 216.69455 C 239.22865 216.34047 239.96051 215.47106 240.13846 214.42295 C 240.3661 213.3845 240.0132 212.30423 239.21644 211.60043 C 238.41966 210.89662 237.3041 210.67978 236.3017 211.03386 C 235.29928 211.38794 234.56742 212.25735 234.38947 213.30546 Z"
                        stroke="black"
                        stroke-linecap="round"
                        stroke-linejoin="round"
                        stroke-width=".6980357"/>
               </g>
               <g>
                  <title>path422</title>
                  <path d="M 207.16018 236.57664 C 206.93254 237.61508 207.28543 238.69535 208.0822 239.39916 C 208.87898 240.10296 209.99454 240.3198 210.99695 239.96573 C 211.99935 239.61164 212.73122 238.74223 212.90917 237.69413 C 213.1368 236.65568 212.78392 235.5754 211.98714 234.8716 C 211.19037 234.1678 210.0748 233.95096 209.0724 234.30504 C 208.07 234.65912 207.33812 235.52853 207.16018 236.57664 Z"
                        fill="#ccc"/>
                  <path d="M 207.16018 236.57664 C 206.93254 237.61508 207.28543 238.69535 208.0822 239.39916 C 208.87898 240.10296 209.99454 240.3198 210.99695 239.96573 C 211.99935 239.61164 212.73122 238.74223 212.90917 237.69413 C 213.1368 236.65568 212.78392 235.5754 211.98714 234.8716 C 211.19037 234.1678 210.0748 233.95096 209.0724 234.30504 C 208.07 234.65912 207.33812 235.52853 207.16018 236.57664 Z"
                        stroke="black"
                        stroke-linecap="round"
                        stroke-linejoin="round"
                        stroke-width=".6980357"/>
               </g>
               <g>
                  <title>path427</title>
                  <path d="M 189.01113 202.7181 C 188.7835 203.75656 189.13638 204.83682 189.93315 205.54063 C 190.72993 206.24444 191.8455 206.46128 192.8479 206.1072 C 193.8503 205.75312 194.58217 204.8837 194.76012 203.8356 C 194.98776 202.79715 194.63487 201.71689 193.8381 201.01308 C 193.04132 200.30927 191.92576 200.09243 190.92335 200.4465 C 189.92094 200.8006 189.18908 201.67 189.01113 202.7181 Z"
                        fill="#ccc"/>
                  <path d="M 189.01113 202.7181 C 188.7835 203.75656 189.13638 204.83682 189.93315 205.54063 C 190.72993 206.24444 191.8455 206.46128 192.8479 206.1072 C 193.8503 205.75312 194.58217 204.8837 194.76012 203.8356 C 194.98776 202.79715 194.63487 201.71689 193.8381 201.01308 C 193.04132 200.30927 191.92576 200.09243 190.92335 200.4465 C 189.92094 200.8006 189.18908 201.67 189.01113 202.7181 Z"
                        stroke="black"
                        stroke-linecap="round"
                        stroke-linejoin="round"
                        stroke-width=".6980357"/>
               </g>
               <g>
                  <title>path432</title>
                  <path d="M 229.11974 240.41588 C 228.8921 241.45433 229.245 242.5346 230.04176 243.2384 C 230.83854 243.9422 231.9541 244.15905 232.9565 243.80497 C 233.95892 243.4509 234.69078 242.58148 234.86873 241.53337 C 235.09637 240.49492 234.74348 239.41465 233.9467 238.71085 C 233.14993 238.00704 232.03437 237.7902 231.03196 238.14428 C 230.02955 238.49836 229.2977 239.36777 229.11974 240.41588 Z"
                        fill="#ccc"/>
                  <path d="M 229.11974 240.41588 C 228.8921 241.45433 229.245 242.5346 230.04176 243.2384 C 230.83854 243.9422 231.9541 244.15905 232.9565 243.80497 C 233.95892 243.4509 234.69078 242.58148 234.86873 241.53337 C 235.09637 240.49492 234.74348 239.41465 233.9467 238.71085 C 233.14993 238.00704 232.03437 237.7902 231.03196 238.14428 C 230.02955 238.49836 229.2977 239.36777 229.11974 240.41588 Z"
                        stroke="black"
                        stroke-linecap="round"
                        stroke-linejoin="round"
                        stroke-width=".6980357"/>
               </g>
               <g>
                  <title>path437</title>
                  <path d="M 196.55722 220.94259 C 196.32958 221.98103 196.68247 223.0613 197.47924 223.7651 C 198.27602 224.4689 199.39158 224.68576 200.394 224.33168 C 201.3964 223.9776 202.12826 223.10818 202.3062 222.06008 C 202.53385 221.02163 202.18096 219.94136 201.38419 219.23756 C 200.5874 218.53375 199.47185 218.3169 198.46944 218.67099 C 197.46703 219.02507 196.73517 219.89448 196.55722 220.94259 Z"
                        fill="#ccc"/>
                  <path d="M 196.55722 220.94259 C 196.32958 221.98103 196.68247 223.0613 197.47924 223.7651 C 198.27602 224.4689 199.39158 224.68576 200.394 224.33168 C 201.3964 223.9776 202.12826 223.10818 202.3062 222.06008 C 202.53385 221.02163 202.18096 219.94136 201.38419 219.23756 C 200.5874 218.53375 199.47185 218.3169 198.46944 218.67099 C 197.46703 219.02507 196.73517 219.89448 196.55722 220.94259 Z"
                        stroke="black"
                        stroke-linecap="round"
                        stroke-linejoin="round"
                        stroke-width=".6980357"/>
               </g>
               <g>
                  <title>path442</title>
                  <path d="M 218.9576 224.78166 C 218.72995 225.8201 219.08284 226.90038 219.8796 227.60418 C 220.6764 228.308 221.79195 228.52483 222.79436 228.17075 C 223.79677 227.81667 224.52863 226.94726 224.70658 225.89915 C 224.93422 224.8607 224.58133 223.78044 223.78456 223.07663 C 222.98778 222.37282 221.87222 222.15598 220.8698 222.51006 C 219.8674 222.86414 219.13554 223.73355 218.9576 224.78166 Z"
                        fill="#ccc"/>
                  <path d="M 218.9576 224.78166 C 218.72995 225.8201 219.08284 226.90038 219.8796 227.60418 C 220.6764 228.308 221.79195 228.52483 222.79436 228.17075 C 223.79677 227.81667 224.52863 226.94726 224.70658 225.89915 C 224.93422 224.8607 224.58133 223.78044 223.78456 223.07663 C 222.98778 222.37282 221.87222 222.15598 220.8698 222.51006 C 219.8674 222.86414 219.13554 223.73355 218.9576 224.78166 Z"
                        stroke="black"
                        stroke-linecap="round"
                        stroke-linejoin="round"
                        stroke-width=".6980357"/>
               </g>
               <g>
                  <title>path447</title>
                  <path d="M 253.72754 217.07106 C 253.9055 216.02295 254.63735 215.15354 255.63976 214.79946 C 256.64217 214.44538 257.75773 214.66222 258.5545 215.36603 C 259.35128 216.06983 259.70417 217.1501 259.47653 218.18855 C 259.29858 219.23665 258.56672 220.10607 257.5643 220.46015 C 256.5619 220.81423 255.44634 220.59738 254.64956 219.89358 C 253.8528 219.18977 253.4999 218.1095 253.72754 217.07106 Z"
                        fill="#ccc"/>
                  <path d="M 253.72754 217.07106 C 253.9055 216.02295 254.63735 215.15354 255.63976 214.79946 C 256.64217 214.44538 257.75773 214.66222 258.5545 215.36603 C 259.35128 216.06983 259.70417 217.1501 259.47653 218.18855 C 259.29858 219.23665 258.56672 220.10607 257.5643 220.46015 C 256.5619 220.81423 255.44634 220.59738 254.64956 219.89358 C 253.8528 219.18977 253.4999 218.1095 253.72754 217.07106 Z"
                        stroke="black"
                        stroke-linecap="round"
                        stroke-linejoin="round"
                        stroke-width=".6980357"/>
               </g>
               <g>
                  <title>path452</title>
                  <path d="M 261.27875 232.49951 C 261.4567 231.4514 262.18856 230.582 263.19097 230.22791 C 264.19337 229.87383 265.30894 230.09068 266.1057 230.79448 C 266.9025 231.4983 267.25537 232.57856 267.02773 233.617 C 266.8498 234.6651 266.11792 235.53452 265.11552 235.8886 C 264.1131 236.24268 262.99754 236.02584 262.20077 235.32203 C 261.404 234.61823 261.0511 233.53796 261.27875 232.49951 Z"
                        fill="#ccc"/>
                  <path d="M 261.27875 232.49951 C 261.4567 231.4514 262.18856 230.582 263.19097 230.22791 C 264.19337 229.87383 265.30894 230.09068 266.1057 230.79448 C 266.9025 231.4983 267.25537 232.57856 267.02773 233.617 C 266.8498 234.6651 266.11792 235.53452 265.11552 235.8886 C 264.1131 236.24268 262.99754 236.02584 262.20077 235.32203 C 261.404 234.61823 261.0511 233.53796 261.27875 232.49951 Z"
                        stroke="black"
                        stroke-linecap="round"
                        stroke-linejoin="round"
                        stroke-width=".6980357"/>
               </g>
               <g>
                  <title>path457</title>
                  <path d="M 241.52842 228.66044 C 241.70636 227.61233 242.43823 226.74292 243.44064 226.38884 C 244.44304 226.03476 245.5586 226.2516 246.35538 226.9554 C 247.15216 227.65921 247.50505 228.73948 247.2774 229.77793 C 247.09946 230.82604 246.3676 231.69545 245.3652 232.04953 C 244.36278 232.4036 243.24722 232.18677 242.45044 231.48296 C 241.65367 230.77915 241.30078 229.6989 241.52842 228.66044 Z"
                        fill="#ccc"/>
                  <path d="M 241.52842 228.66044 C 241.70636 227.61233 242.43823 226.74292 243.44064 226.38884 C 244.44304 226.03476 245.5586 226.2516 246.35538 226.9554 C 247.15216 227.65921 247.50505 228.73948 247.2774 229.77793 C 247.09946 230.82604 246.3676 231.69545 245.3652 232.04953 C 244.36278 232.4036 243.24722 232.18677 242.45044 231.48296 C 241.65367 230.77915 241.30078 229.6989 241.52842 228.66044 Z"
                        stroke="black"
                        stroke-linecap="round"
                        stroke-linejoin="round"
                        stroke-width=".6980357"/>
               </g>
               <g>
                  <title>path462</title>
                  <path d="M 268.2082 248.0202 C 268.38615 246.9721 269.11802 246.1027 270.12042 245.7486 C 271.12283 245.39453 272.2384 245.61137 273.03517 246.31518 C 273.83195 247.01898 274.18483 248.09925 273.9572 249.1377 C 273.77925 250.1858 273.04738 251.05521 272.04497 251.4093 C 271.04257 251.76338 269.927 251.54653 269.13023 250.84273 C 268.33345 250.13892 267.98057 249.05865 268.2082 248.0202 Z"
                        fill="#ccc"/>
                  <path d="M 268.2082 248.0202 C 268.38615 246.9721 269.11802 246.1027 270.12042 245.7486 C 271.12283 245.39453 272.2384 245.61137 273.03517 246.31518 C 273.83195 247.01898 274.18483 248.09925 273.9572 249.1377 C 273.77925 250.1858 273.04738 251.05521 272.04497 251.4093 C 271.04257 251.76338 269.927 251.54653 269.13023 250.84273 C 268.33345 250.13892 267.98057 249.05865 268.2082 248.0202 Z"
                        stroke="black"
                        stroke-linecap="round"
                        stroke-linejoin="round"
                        stroke-width=".6980357"/>
               </g>
               <g>
                  <title>path467</title>
                  <path d="M 248.45788 244.18113 C 248.63582 243.13302 249.3677 242.2636 250.3701 241.90953 C 251.3725 241.55545 252.48807 241.7723 253.28484 242.4761 C 254.08162 243.1799 254.4345 244.26017 254.20686 245.29862 C 254.02892 246.34673 253.29705 247.21614 252.29465 247.57022 C 251.29224 247.9243 250.17667 247.70746 249.3799 247.00365 C 248.58312 246.29985 248.23024 245.21958 248.45788 244.18113 Z"
                        fill="#ccc"/>
                  <path d="M 248.45788 244.18113 C 248.63582 243.13302 249.3677 242.2636 250.3701 241.90953 C 251.3725 241.55545 252.48807 241.7723 253.28484 242.4761 C 254.08162 243.1799 254.4345 244.26017 254.20686 245.29862 C 254.02892 246.34673 253.29705 247.21614 252.29465 247.57022 C 251.29224 247.9243 250.17667 247.70746 249.3799 247.00365 C 248.58312 246.29985 248.23024 245.21958 248.45788 244.18113 Z"
                        stroke="black"
                        stroke-linecap="round"
                        stroke-linejoin="round"
                        stroke-width=".6980357"/>
               </g>
               <g>
                  <title>path472</title>
                  <path d="M 276.07967 261.80573 C 276.2576 260.75762 276.98948 259.8882 277.9919 259.53413 C 278.9943 259.18005 280.10986 259.3969 280.90663 260.1007 C 281.7034 260.8045 282.0563 261.88477 281.82865 262.92322 C 281.6507 263.97133 280.91884 264.84074 279.91643 265.19482 C 278.91403 265.5489 277.79846 265.33206 277.0017 264.62825 C 276.2049 263.92444 275.85203 262.84418 276.07967 261.80573 Z"
                        fill="#ccc"/>
                  <path d="M 276.07967 261.80573 C 276.2576 260.75762 276.98948 259.8882 277.9919 259.53413 C 278.9943 259.18005 280.10986 259.3969 280.90663 260.1007 C 281.7034 260.8045 282.0563 261.88477 281.82865 262.92322 C 281.6507 263.97133 280.91884 264.84074 279.91643 265.19482 C 278.91403 265.5489 277.79846 265.33206 277.0017 264.62825 C 276.2049 263.92444 275.85203 262.84418 276.07967 261.80573 Z"
                        stroke="black"
                        stroke-linecap="round"
                        stroke-linejoin="round"
                        stroke-width=".6980357"/>
               </g>
               <g>
                  <title>path477</title>
                  <path d="M 256.32847 257.9665 C 256.50642 256.91838 257.23828 256.04897 258.2407 255.6949 C 259.2431 255.3408 260.35866 255.55765 261.15543 256.26146 C 261.9522 256.96526 262.3051 258.04553 262.07746 259.08398 C 261.8995 260.13208 261.16765 261.0015 260.16524 261.35558 C 259.16283 261.70966 258.04727 261.4928 257.2505 260.789 C 256.45372 260.0852 256.10083 259.00493 256.32847 257.9665 Z"
                        fill="#ccc"/>
                  <path d="M 256.32847 257.9665 C 256.50642 256.91838 257.23828 256.04897 258.2407 255.6949 C 259.2431 255.3408 260.35866 255.55765 261.15543 256.26146 C 261.9522 256.96526 262.3051 258.04553 262.07746 259.08398 C 261.8995 260.13208 261.16765 261.0015 260.16524 261.35558 C 259.16283 261.70966 258.04727 261.4928 257.2505 260.789 C 256.45372 260.0852 256.10083 259.00493 256.32847 257.9665 Z"
                        stroke="black"
                        stroke-linecap="round"
                        stroke-linejoin="round"
                        stroke-width=".6980357"/>
               </g>
            </g>
            <g>
               <g>
                  <title>path135</title>
                  <path d="M 132.3176 294.70935 C 133.69736 301.07595 129.69227 307.36603 123.33977 308.80925 C 120.60483 308.53224 117.99809 310.03116 116.86173 312.5342 C 116.82929 314.6972 115.67086 316.68663 113.8057 317.78245 C 111.94053 318.87826 109.63883 318.92173 107.73362 317.89713 C 102.62386 314.8878 100.5427 308.55267 102.87241 303.0994 C 100.22712 308.53513 102.38016 315.08907 107.73362 317.89713 C 105.58228 319.6495 102.65482 320.1096 100.06964 319.1017 C 96.86669 318.31568 94.33381 315.8681 93.43857 312.69394 C 92.54332 309.5198 93.42402 306.10943 95.74422 303.76564 C 93.53313 306.13228 92.69939 309.47215 93.53881 312.6003 C 94.37823 315.72843 96.77203 318.2022 99.87091 319.14395 C 97.26331 320.98935 93.8588 321.2717 90.98284 319.88104 C 88.10688 318.4904 86.214 315.64656 86.04115 312.4567 C 85.17351 309.04446 85.94059 305.42277 88.1171 302.6553 C 90.29362 299.8878 93.63248 298.2887 97.15309 298.32764 C 102.2182 297.0662 106.71823 294.15216 109.9415 290.0464 L 117.85195 278.95488 L 140.8488 246.26087 C 137.94855 238.9861 139.9531 230.67308 145.85023 225.51965 C 140.6366 230.89866 138.69617 238.65436 140.76248 245.85477 C 138.32039 249.79765 135.70993 253.63374 132.93835 257.3524 L 133.20712 232.48763 C 133.52685 235.86617 131.90688 239.13462 129.02466 240.92616 C 126.14244 242.7177 122.49456 242.72363 119.60652 240.9415 C 121.86686 240.64771 123.88449 239.377 125.12591 237.46538 C 126.36734 235.55375 126.70754 233.19371 126.05657 231.0093 C 124.86106 216.81068 126.47143 202.5156 130.7959 188.93881 C 120.42214 184.05307 115.1405 172.34986 118.33995 161.33855 C 121.5394 150.32725 132.27016 143.2766 143.64684 144.71068 C 162.95737 152.31133 176.84787 169.5072 180.21797 189.98424 C 178.22092 194.94385 178.82258 200.57205 181.8229 204.99744 C 184.82321 209.42284 189.82884 212.06525 195.1754 212.04606 C 192.56407 215.6226 188.42551 217.7662 183.99766 217.8356 C 184.29938 220.52136 186.11344 222.79664 188.66452 223.689 C 185.74341 227.8671 180.17927 229.23517 175.65377 226.888 C 178.46353 232.14073 184.18478 235.1574 190.10634 234.50848 C 187.91877 240.8506 181.14036 244.36127 174.69822 242.48864 C 175.62667 245.04784 177.56555 247.11333 180.06099 248.2016 C 182.55642 249.28987 185.38932 249.30537 187.89651 248.24446 C 182.42373 252.83948 175.88816 255.99205 168.88524 257.41493 C 162.30252 258.1317 156.44465 261.9144 153.0829 267.61918 C 145.01458 275.7096 138.03412 284.81622 132.3176 294.70935 Z"/>
                  <path d="M 132.3176 294.70935 C 133.69736 301.07595 129.69227 307.36603 123.33977 308.80925 C 120.60483 308.53224 117.99809 310.03116 116.86173 312.5342 C 116.82929 314.6972 115.67086 316.68663 113.8057 317.78245 C 111.94053 318.87826 109.63883 318.92173 107.73362 317.89713 C 102.62386 314.8878 100.5427 308.55267 102.87241 303.0994 C 100.22712 308.53513 102.38016 315.08907 107.73362 317.89713 C 105.58228 319.6495 102.65482 320.1096 100.06964 319.1017 C 96.86669 318.31568 94.33381 315.8681 93.43857 312.69394 C 92.54332 309.5198 93.42402 306.10943 95.74422 303.76564 C 93.53313 306.13228 92.69939 309.47215 93.53881 312.6003 C 94.37823 315.72843 96.77203 318.2022 99.87091 319.14395 C 97.26331 320.98935 93.8588 321.2717 90.98284 319.88104 C 88.10688 318.4904 86.214 315.64656 86.04115 312.4567 C 85.17351 309.04446 85.94059 305.42277 88.1171 302.6553 C 90.29362 299.8878 93.63248 298.2887 97.15309 298.32764 C 102.2182 297.0662 106.71823 294.15216 109.9415 290.0464 L 117.85195 278.95488 L 140.8488 246.26087 C 137.94855 238.9861 139.9531 230.67308 145.85023 225.51965 C 140.6366 230.89866 138.69617 238.65436 140.76248 245.85477 C 138.32039 249.79765 135.70993 253.63374 132.93835 257.3524 L 133.20712 232.48763 C 133.52685 235.86617 131.90688 239.13462 129.02466 240.92616 C 126.14244 242.7177 122.49456 242.72363 119.60652 240.9415 C 121.86686 240.64771 123.88449 239.377 125.12591 237.46538 C 126.36734 235.55375 126.70754 233.19371 126.05657 231.0093 C 124.86106 216.81068 126.47143 202.5156 130.7959 188.93881 C 120.42214 184.05307 115.1405 172.34986 118.33995 161.33855 C 121.5394 150.32725 132.27016 143.2766 143.64684 144.71068 C 162.95737 152.31133 176.84787 169.5072 180.21797 189.98424 C 178.22092 194.94385 178.82258 200.57205 181.8229 204.99744 C 184.82321 209.42284 189.82884 212.06525 195.1754 212.04606 C 192.56407 215.6226 188.42551 217.7662 183.99766 217.8356 C 184.29938 220.52136 186.11344 222.79664 188.66452 223.689 C 185.74341 227.8671 180.17927 229.23517 175.65377 226.888 C 178.46353 232.14073 184.18478 235.1574 190.10634 234.50848 C 187.91877 240.8506 181.14036 244.36127 174.69822 242.48864 C 175.62667 245.04784 177.56555 247.11333 180.06099 248.2016 C 182.55642 249.28987 185.38932 249.30537 187.89651 248.24446 C 182.42373 252.83948 175.88816 255.99205 168.88524 257.41493 C 162.30252 258.1317 156.44465 261.9144 153.0829 267.61918 C 145.01458 275.7096 138.03412 284.81622 132.3176 294.70935 Z"
                        stroke="black"
                        stroke-linecap="round"
                        stroke-linejoin="round"
                        stroke-width="1.3960714"/>
               </g>
               <g>
                  <title>path140</title>
                  <path d="M 145.93847 260.14946 C 146.7113 261.88116 146.7169 263.90483 145.95387 265.70524 C 145.19084 267.50565 143.73279 268.9091 141.95094 269.55824 C 134.07625 275.43408 128.32665 283.71207 125.56998 293.1427"
                        stroke="black"
                        stroke-linecap="round"
                        stroke-linejoin="round"
                        stroke-width="1.0470535"/>
               </g>
               <g>
                  <title>path148</title>
                  <g  id="feature-9">
                     <path
                           d="M 81.71302 324.80082 C 77.78035 319.53616 78.76807 312.0951 83.93801 308.0387 C 85.3785 307.3811 87.07841 307.72257 88.15319 308.88546 C 89.22797 310.04835 89.43474 311.76985 88.66589 313.15417 C 85.97941 313.36656 83.5624 314.8676 82.18104 317.1815 C 80.79968 319.49542 80.62524 322.33525 81.71302 324.80082 Z"
                           fill="#ff0000"/>
                  </g>
                  <path d="M 81.71302 324.80082 C 77.78035 319.53616 78.76807 312.0951 83.93801 308.0387 C 85.3785 307.3811 87.07841 307.72257 88.15319 308.88546 C 89.22797 310.04835 89.43474 311.76985 88.66589 313.15417 C 85.97941 313.36656 83.5624 314.8676 82.18104 317.1815 C 80.79968 319.49542 80.62524 322.33525 81.71302 324.80082 Z"
                        stroke="black"
                        stroke-linecap="round"
                        stroke-linejoin="round"
                        stroke-width="1.3960714"/>
               </g>
               <g>
                  <title>path153</title>
                  <g  id="feature-10">
                     <path
                           d="M 91.83739 327.65872 C 87.90472 322.39406 88.89244 314.953 94.06237 310.89662 C 95.50286 310.239 97.20277 310.58048 98.27756 311.74337 C 99.35234 312.90626 99.5591 314.62775 98.79026 316.01208 C 96.10377 316.22447 93.68677 317.7255 92.30541 320.03942 C 90.92404 322.35332 90.74961 325.19315 91.83739 327.65872 Z"
                           fill="#ff0000"/>
                  </g>
                  <path d="M 91.83739 327.65872 C 87.90472 322.39406 88.89244 314.953 94.06237 310.89662 C 95.50286 310.239 97.20277 310.58048 98.27756 311.74337 C 99.35234 312.90626 99.5591 314.62775 98.79026 316.01208 C 96.10377 316.22447 93.68677 317.7255 92.30541 320.03942 C 90.92404 322.35332 90.74961 325.19315 91.83739 327.65872 Z"
                        stroke="black"
                        stroke-linecap="round"
                        stroke-linejoin="round"
                        stroke-width="1.3960714"/>
               </g>
               <g>
                  <title>path158</title>
                  <g  id="feature-11">
                     <path
                           d="M 106.0587 328.71508 C 102.12603 323.4504 103.11375 316.00937 108.28369 311.95297 C 109.72418 311.29535 111.42409 311.63683 112.49887 312.79972 C 113.57365 313.9626 113.78042 315.6841 113.01157 317.06843 C 110.32509 317.28082 107.90808 318.78187 106.52672 321.09578 C 105.14536 323.40968 104.97092 326.2495 106.0587 328.71508 Z"
                           fill="#ff0000"/>
                  </g>
                  <path d="M 106.0587 328.71508 C 102.12603 323.4504 103.11375 316.00937 108.28369 311.95297 C 109.72418 311.29535 111.42409 311.63683 112.49887 312.79972 C 113.57365 313.9626 113.78042 315.6841 113.01157 317.06843 C 110.32509 317.28082 107.90808 318.78187 106.52672 321.09578 C 105.14536 323.40968 104.97092 326.2495 106.0587 328.71508 Z"
                        stroke="black"
                        stroke-linecap="round"
                        stroke-linejoin="round"
                        stroke-width="1.3960714"/>
               </g>
               <g>
                  <title>path372</title>
                  <path d="M 151.13788 168.39452 C 150.89215 167.3602 151.22613 166.27395 152.0105 165.55634 C 152.79487 164.83874 153.90648 164.60246 154.91492 164.93899 C 155.92335 165.27552 156.67028 166.13203 156.86649 167.17687 C 157.11222 168.21119 156.77824 169.29745 155.99387 170.01505 C 155.2095 170.73266 154.09789 170.96894 153.08945 170.6324 C 152.08102 170.29587 151.33409 169.43936 151.13788 168.39452 Z"
                        fill="#ccc"/>
                  <path d="M 151.13788 168.39452 C 150.89215 167.3602 151.22613 166.27395 152.0105 165.55634 C 152.79487 164.83874 153.90648 164.60246 154.91492 164.93899 C 155.92335 165.27552 156.67028 166.13203 156.86649 167.17687 C 157.11222 168.21119 156.77824 169.29745 155.99387 170.01505 C 155.2095 170.73266 154.09789 170.96894 153.08945 170.6324 C 152.08102 170.29587 151.33409 169.43936 151.13788 168.39452 Z"
                        stroke="black"
                        stroke-linecap="round"
                        stroke-linejoin="round"
                        stroke-width=".6980357"/>
               </g>
               <g>
                  <title>path377</title>
                  <path d="M 156.53188 193.7713 C 156.28615 192.737 156.62013 191.65073 157.4045 190.93313 C 158.18887 190.21552 159.30048 189.97924 160.30892 190.31577 C 161.31735 190.6523 162.06428 191.50881 162.2605 192.55366 C 162.50622 193.58797 162.17224 194.67423 161.38787 195.39184 C 160.6035 196.10944 159.49189 196.34572 158.48345 196.0092 C 157.47502 195.67266 156.7281 194.81615 156.53188 193.7713 Z"
                        fill="#ccc"/>
                  <path d="M 156.53188 193.7713 C 156.28615 192.737 156.62013 191.65073 157.4045 190.93313 C 158.18887 190.21552 159.30048 189.97924 160.30892 190.31577 C 161.31735 190.6523 162.06428 191.50881 162.2605 192.55366 C 162.50622 193.58797 162.17224 194.67423 161.38787 195.39184 C 160.6035 196.10944 159.49189 196.34572 158.48345 196.0092 C 157.47502 195.67266 156.7281 194.81615 156.53188 193.7713 Z"
                        stroke="black"
                        stroke-linecap="round"
                        stroke-linejoin="round"
                        stroke-width=".6980357"/>
               </g>
               <g>
                  <title>path392</title>
                  <path d="M 169.14417 205.30787 C 169.34038 206.35271 170.0873 207.20922 171.09574 207.54575 C 172.10418 207.88229 173.21579 207.646 174.00016 206.9284 C 174.78453 206.2108 175.1185 205.12454 174.87278 204.09022 C 174.67657 203.04538 173.92964 202.18887 172.9212 201.85234 C 171.91277 201.5158 170.80116 201.75209 170.0168 202.4697 C 169.23242 203.1873 168.89844 204.27356 169.14417 205.30787 Z"
                        fill="#ccc"/>
                  <path d="M 169.14417 205.30787 C 169.34038 206.35271 170.0873 207.20922 171.09574 207.54575 C 172.10418 207.88229 173.21579 207.646 174.00016 206.9284 C 174.78453 206.2108 175.1185 205.12454 174.87278 204.09022 C 174.67657 203.04538 173.92964 202.18887 172.9212 201.85234 C 171.91277 201.5158 170.80116 201.75209 170.0168 202.4697 C 169.23242 203.1873 168.89844 204.27356 169.14417 205.30787 Z"
                        stroke="black"
                        stroke-linecap="round"
                        stroke-linejoin="round"
                        stroke-width=".6980357"/>
               </g>
               <g>
                  <title>path397</title>
                  <path d="M 163.75013 179.93091 C 163.94634 180.97576 164.69327 181.83226 165.7017 182.1688 C 166.71014 182.50533 167.82175 182.26905 168.60612 181.55144 C 169.39049 180.83384 169.72447 179.74758 169.47874 178.71326 C 169.28253 177.66842 168.5356 176.81191 167.52717 176.47538 C 166.51873 176.13885 165.40712 176.37513 164.62275 177.09273 C 163.83838 177.81034 163.5044 178.8966 163.75013 179.93091 Z"
                        fill="#ccc"/>
                  <path d="M 163.75013 179.93091 C 163.94634 180.97576 164.69327 181.83226 165.7017 182.1688 C 166.71014 182.50533 167.82175 182.26905 168.60612 181.55144 C 169.39049 180.83384 169.72447 179.74758 169.47874 178.71326 C 169.28253 177.66842 168.5356 176.81191 167.52717 176.47538 C 166.51873 176.13885 165.40712 176.37513 164.62275 177.09273 C 163.83838 177.81034 163.5044 178.8966 163.75013 179.93091 Z"
                        stroke="black"
                        stroke-linecap="round"
                        stroke-linejoin="round"
                        stroke-width=".6980357"/>
               </g>
               <g>
                  <title>path402</title>
                  <path d="M 162.27386 220.7852 C 162.02813 219.75088 162.36211 218.66462 163.14648 217.94702 C 163.93085 217.2294 165.04246 216.99313 166.0509 217.32966 C 167.05933 217.6662 167.80626 218.5227 168.00247 219.56754 C 168.2482 220.60186 167.91422 221.68812 167.12985 222.40573 C 166.34548 223.12333 165.23387 223.3596 164.22543 223.02308 C 163.217 222.68655 162.47007 221.83004 162.27386 220.7852 Z"
                        fill="#ccc"/>
                  <path d="M 162.27386 220.7852 C 162.02813 219.75088 162.36211 218.66462 163.14648 217.94702 C 163.93085 217.2294 165.04246 216.99313 166.0509 217.32966 C 167.05933 217.6662 167.80626 218.5227 168.00247 219.56754 C 168.2482 220.60186 167.91422 221.68812 167.12985 222.40573 C 166.34548 223.12333 165.23387 223.3596 164.22543 223.02308 C 163.217 222.68655 162.47007 221.83004 162.27386 220.7852 Z"
                        stroke="black"
                        stroke-linecap="round"
                        stroke-linejoin="round"
                        stroke-width=".6980357"/>
               </g>
               <g>
                  <title>path407</title>
                  <path d="M 155.03639 236.54773 C 154.79066 235.51342 155.12464 234.42716 155.909 233.70955 C 156.69338 232.99195 157.80499 232.75567 158.81342 233.0922 C 159.82186 233.42873 160.56878 234.28524 160.765 235.33008 C 161.01072 236.3644 160.67674 237.45066 159.89237 238.16826 C 159.108 238.88587 157.9964 239.12215 156.98796 238.7856 C 155.97953 238.44908 155.2326 237.59257 155.03639 236.54773 Z"
                        fill="#ccc"/>
                  <path d="M 155.03639 236.54773 C 154.79066 235.51342 155.12464 234.42716 155.909 233.70955 C 156.69338 232.99195 157.80499 232.75567 158.81342 233.0922 C 159.82186 233.42873 160.56878 234.28524 160.765 235.33008 C 161.01072 236.3644 160.67674 237.45066 159.89237 238.16826 C 159.108 238.88587 157.9964 239.12215 156.98796 238.7856 C 155.97953 238.44908 155.2326 237.59257 155.03639 236.54773 Z"
                        stroke="black"
                        stroke-linecap="round"
                        stroke-linejoin="round"
                        stroke-width=".6980357"/>
               </g>
               <g>
                  <title>path412</title>
                  <path d="M 147.98727 250.34513 C 147.74154 249.31082 148.07552 248.22456 148.85989 247.50695 C 149.64426 246.78935 150.75587 246.55307 151.7643 246.8896 C 152.77274 247.22613 153.51966 248.08264 153.71588 249.12748 C 153.9616 250.1618 153.62762 251.24806 152.84325 251.96566 C 152.05888 252.68327 150.94727 252.91955 149.93884 252.583 C 148.9304 252.24648 148.18348 251.38998 147.98727 250.34513 Z"
                        fill="#ccc"/>
                  <path d="M 147.98727 250.34513 C 147.74154 249.31082 148.07552 248.22456 148.85989 247.50695 C 149.64426 246.78935 150.75587 246.55307 151.7643 246.8896 C 152.77274 247.22613 153.51966 248.08264 153.71588 249.12748 C 153.9616 250.1618 153.62762 251.24806 152.84325 251.96566 C 152.05888 252.68327 150.94727 252.91955 149.93884 252.583 C 148.9304 252.24648 148.18348 251.38998 147.98727 250.34513 Z"
                        stroke="black"
                        stroke-linecap="round"
                        stroke-linejoin="round"
                        stroke-width=".6980357"/>
               </g>
               <g>
                  <title>path417</title>
                  <path d="M 167.66785 246.1619 C 167.42212 245.12758 167.7561 244.04132 168.54047 243.32372 C 169.32484 242.6061 170.43645 242.36983 171.44488 242.70636 C 172.45332 243.0429 173.20024 243.8994 173.39645 244.94424 C 173.64218 245.97856 173.3082 247.06482 172.52383 247.78243 C 171.73946 248.50003 170.62785 248.7363 169.61942 248.39978 C 168.61098 248.06325 167.86406 247.20674 167.66785 246.1619 Z"
                        fill="#ccc"/>
                  <path d="M 167.66785 246.1619 C 167.42212 245.12758 167.7561 244.04132 168.54047 243.32372 C 169.32484 242.6061 170.43645 242.36983 171.44488 242.70636 C 172.45332 243.0429 173.20024 243.8994 173.39645 244.94424 C 173.64218 245.97856 173.3082 247.06482 172.52383 247.78243 C 171.73946 248.50003 170.62785 248.7363 169.61942 248.39978 C 168.61098 248.06325 167.86406 247.20674 167.66785 246.1619 Z"
                        stroke="black"
                        stroke-linecap="round"
                        stroke-linejoin="round"
                        stroke-width=".6980357"/>
               </g>
            </g>
            <g>
               <g>
                  <title>path232</title>
                  <g  id="feature-12">
                     <path
                           d="M 108.02456 171.46793 C 100.91248 171.1339 94.06491 173.77403 88.95981 178.8185 C 86.65553 180.98304 83.68123 182.15347 80.61131 182.10377 C 78.00678 182.56795 75.3656 180.92337 74.44737 178.26568 C 73.44691 176.55869 71.60013 175.56967 69.742094 175.74585 C 67.884055 175.92202 66.367 177.22999 65.87689 179.07832 C 68.37099 178.9245 70.72467 180.52816 71.66722 183.02353 C 72.63004 186.3408 75.52537 188.66214 78.76722 188.71597 C 83.02607 189.8494 87.5631 188.9505 91.21041 186.25068 C 95.96862 183.40613 101.49083 182.2403 107.00654 182.91584 C 109.36263 184.2851 112.22793 183.86842 114.01472 181.89668 C 115.80151 179.92494 116.0722 176.88104 114.67678 174.45165 C 113.28137 172.02226 110.56161 170.80237 108.02456 171.46793 Z"
                           fill="#ff0000"/>
                  </g>
                  <path d="M 108.02456 171.46793 C 100.91248 171.1339 94.06491 173.77403 88.95981 178.8185 C 86.65553 180.98304 83.68123 182.15347 80.61131 182.10377 C 78.00678 182.56795 75.3656 180.92337 74.44737 178.26568 C 73.44691 176.55869 71.60013 175.56967 69.742094 175.74585 C 67.884055 175.92202 66.367 177.22999 65.87689 179.07832 C 68.37099 178.9245 70.72467 180.52816 71.66722 183.02353 C 72.63004 186.3408 75.52537 188.66214 78.76722 188.71597 C 83.02607 189.8494 87.5631 188.9505 91.21041 186.25068 C 95.96862 183.40613 101.49083 182.2403 107.00654 182.91584 C 109.36263 184.2851 112.22793 183.86842 114.01472 181.89668 C 115.80151 179.92494 116.0722 176.88104 114.67678 174.45165 C 113.28137 172.02226 110.56161 170.80237 108.02456 171.46793 Z"
                        stroke="black"
                        stroke-linecap="round"
                        stroke-linejoin="round"
                        stroke-width="1.3960714"/>
               </g>
               <g>
                  <title>path240</title>
                  <path d="M 89.50652 172.73606 C 85.60961 171.08645 83.74209 166.62776 85.30012 162.69334 C 85.88647 161.85644 86.94475 161.49186 87.92215 161.79006 C 88.89954 162.08826 89.57407 162.9815 89.59338 164.0032 C 88.16825 164.99302 87.31119 166.61212 87.29393 168.34719 C 87.27668 170.08225 88.10136 171.71809 89.50652 172.73606 Z"
                        fill="white"/>
                  <path d="M 89.50652 172.73606 C 85.60961 171.08645 83.74209 166.62776 85.30012 162.69334 C 85.88647 161.85644 86.94475 161.49186 87.92215 161.79006 C 88.89954 162.08826 89.57407 162.9815 89.59338 164.0032 C 88.16825 164.99302 87.31119 166.61212 87.29393 168.34719 C 87.27668 170.08225 88.10136 171.71809 89.50652 172.73606 Z"
                        stroke="black"
                        stroke-linecap="round"
                        stroke-linejoin="round"
                        stroke-width=".8376429"/>
               </g>
               <g>
                  <title>path245</title>
                  <path d="M 96.55965 171.0426 C 93.01173 170.22457 90.7636 166.7263 91.49344 163.1592 C 91.86583 162.36478 92.70583 161.89887 93.57692 162.0036 C 94.44802 162.10832 95.15366 162.76005 95.32715 163.6201 C 94.26539 164.6728 93.77995 166.17495 94.02487 167.64992 C 94.26979 169.12489 95.21465 170.38955 96.55965 171.0426 Z"
                        fill="white"/>
                  <path d="M 96.55965 171.0426 C 93.01173 170.22457 90.7636 166.7263 91.49344 163.1592 C 91.86583 162.36478 92.70583 161.89887 93.57692 162.0036 C 94.44802 162.10832 95.15366 162.76005 95.32715 163.6201 C 94.26539 164.6728 93.77995 166.17495 94.02487 167.64992 C 94.26979 169.12489 95.21465 170.38955 96.55965 171.0426 Z"
                        stroke="black"
                        stroke-linecap="round"
                        stroke-linejoin="round"
                        stroke-width=".8376429"/>
               </g>
               <g>
                  <title>path250</title>
                  <path d="M 97.42563 175.31256 C 95.1533 177.43038 94.98577 180.9744 97.0482 183.29712 C 97.66219 183.71995 98.47776 183.70288 99.07353 183.25475 C 99.6693 182.8066 99.91186 182.02776 99.67587 181.3206 C 98.4433 180.995 97.44509 180.09202 96.99795 178.89816 C 96.5508 177.7043 96.71022 176.36775 97.42563 175.31256 Z"
                        fill="white"/>
                  <path d="M 97.42563 175.31256 C 95.1533 177.43038 94.98577 180.9744 97.0482 183.29712 C 97.66219 183.71995 98.47776 183.70288 99.07353 183.25475 C 99.6693 182.8066 99.91186 182.02776 99.67587 181.3206 C 98.4433 180.995 97.44509 180.09202 96.99795 178.89816 C 96.5508 177.7043 96.71022 176.36775 97.42563 175.31256 Z"
                        stroke="black"
                        stroke-linecap="round"
                        stroke-linejoin="round"
                        stroke-width=".8376429"/>
               </g>
               <g>
                  <title>path255</title>
                  <path d="M 90.26978 176.66024 C 87.71978 180.0373 88.3318 184.8324 91.6483 187.46069 C 92.57455 187.8923 93.67334 187.67888 94.37068 186.93194 C 95.06803 186.185 95.20557 185.07416 94.71144 184.1797 C 92.98233 184.03505 91.43055 183.06139 90.54807 181.5674 C 89.66559 180.07342 89.56187 178.2444 90.26978 176.66024 Z"
                        fill="white"/>
                  <path d="M 90.26978 176.66024 C 87.71978 180.0373 88.3318 184.8324 91.6483 187.46069 C 92.57455 187.8923 93.67334 187.67888 94.37068 186.93194 C 95.06803 186.185 95.20557 185.07416 94.71144 184.1797 C 92.98233 184.03505 91.43055 183.06139 90.54807 181.5674 C 89.66559 180.07342 89.56187 178.2444 90.26978 176.66024 Z"
                        stroke="black"
                        stroke-linecap="round"
                        stroke-linejoin="round"
                        stroke-width=".8376429"/>
               </g>
               <g>
                  <title>path260</title>
                  <path d="M 102.73367 172.83478 C 100.46133 174.9526 100.2938 178.4966 102.35623 180.81933 C 102.97022 181.24216 103.78579 181.2251 104.38156 180.77696 C 104.97733 180.32882 105.21989 179.54997 104.9839 178.8428 C 103.75133 178.5172 102.75312 177.61423 102.30598 176.42038 C 101.85883 175.22652 102.01826 173.88997 102.73367 172.83478 Z"
                        fill="white"/>
                  <path d="M 102.73367 172.83478 C 100.46133 174.9526 100.2938 178.4966 102.35623 180.81933 C 102.97022 181.24216 103.78579 181.2251 104.38156 180.77696 C 104.97733 180.32882 105.21989 179.54997 104.9839 178.8428 C 103.75133 178.5172 102.75312 177.61423 102.30598 176.42038 C 101.85883 175.22652 102.01826 173.88997 102.73367 172.83478 Z"
                        stroke="black"
                        stroke-linecap="round"
                        stroke-linejoin="round"
                        stroke-width=".8376429"/>
               </g>
               <g>
                  <g>
                     <title>path175</title>
                     <path d="M 130.2842 93.78727 L 128.81784 113.0354 L 128.81784 90.86339"
                           stroke="black"
                           stroke-linecap="round"
                           stroke-linejoin="round"
                           stroke-width=".6980357"/>
                  </g>
                  <g>
                     <title>path180</title>
                     <path d="M 132.79013 96.7172 L 129.02707 113.24462 L 131.53577 94.83567"
                           stroke="black"
                           stroke-linecap="round"
                           stroke-linejoin="round"
                           stroke-width=".6980357"/>
                  </g>
                  <g>
                     <title>path188</title>
                     <line x1="127.24688" y1="93.68266" x2="128.71324" y2="112.93079" stroke="black"
                           stroke-linecap="round"
                           stroke-linejoin="round"
                           stroke-width=".6980357"/>
                  </g>
                  <g>
                     <title>path193</title>
                     <path d="M 124.74096 96.61259 L 128.50402 113.14001 L 125.99531 94.73106"
                           stroke="black"
                           stroke-linecap="round"
                           stroke-linejoin="round"
                           stroke-width=".6980357"/>
                  </g>
                  <g>
                     <title>path204</title>
                     <path d="M 144.92982 91.69504 L 143.46347 110.94316 L 143.46347 88.77116"
                           stroke="black"
                           stroke-linecap="round"
                           stroke-linejoin="round"
                           stroke-width=".6980357"/>
                  </g>
                  <g>
                     <title>path209</title>
                     <path d="M 147.43575 94.62497 L 143.6727 111.15239 L 146.1814 92.74344"
                           stroke="black"
                           stroke-linecap="round"
                           stroke-linejoin="round"
                           stroke-width=".6980357"/>
                  </g>
                  <g>
                     <title>path217</title>
                     <line x1="141.8925" y1="91.59043" x2="143.35886" y2="110.83855" stroke="black"
                           stroke-linecap="round"
                           stroke-linejoin="round"
                           stroke-width=".6980357"/>
                  </g>
                  <g>
                     <title>path222</title>
                     <path d="M 139.38659 94.52036 L 143.14964 111.04778 L 140.64094 92.63883"
                           stroke="black"
                           stroke-linecap="round"
                           stroke-linejoin="round"
                           stroke-width=".6980357"/>
                  </g>
                  <g>
                     <title>path227</title>
                     <path d="M 128.45009 107.87723 C 119.72468 123.0572 120.65669 141.9321 130.83513 156.17863 C 140.67487 141.28531 139.7092 121.72872 128.45009 107.87723 Z"/>
                     <path d="M 128.45009 107.87723 C 119.72468 123.0572 120.65669 141.9321 130.83513 156.17863 C 140.67487 141.28531 139.7092 121.72872 128.45009 107.87723 Z"
                           stroke="black"
                           stroke-linecap="round"
                           stroke-linejoin="round"
                           stroke-width="1.3960714"/>
                  </g>
                  <g>
                     <title>path265</title>
                     <path d="M 136.82731 135.30267 C 125.32782 132.21462 113.19459 132.39818 101.79378 135.83268 C 97.1626 137.13988 93.54316 140.75932 92.23596 145.3905 C 88.56206 146.87071 85.01412 148.64616 81.62697 150.6994 C 79.43482 152.51823 78.47299 155.42867 79.14968 158.19556 C 79.82637 160.96246 82.02287 163.10048 84.80702 163.70227 C 91.35711 162.84082 98.00493 164.24331 103.6488 167.67733 C 106.00056 168.13484 107.88616 169.89228 108.5078 172.20607 C 109.12945 174.51986 108.3785 176.98565 106.57268 178.56017 C 100.96066 180.44703 95.60941 183.0351 90.64594 186.26295 C 92.27249 191.8773 97.90908 195.3274 103.6488 194.2219 C 105.16809 193.73872 106.66797 193.19652 108.14504 192.59655 C 109.86644 200.9385 106.80563 209.5455 100.20375 214.92755 C 104.08839 215.20737 107.92003 213.897 110.81982 211.29702 C 113.71961 208.69704 115.43871 205.03055 115.58282 201.1385 C 117.93883 206.91383 117.55232 213.44546 114.53164 218.90261 C 118.66506 218.0643 122.22644 215.46304 124.28246 211.78054 C 126.33848 208.09804 126.68418 203.7014 125.22897 199.74282 C 129.65242 205.20802 129.83744 212.9678 125.67947 218.6376 C 130.21893 216.51065 133.62905 212.54004 135.04612 207.73145 C 136.4632 202.92285 135.7513 197.7375 133.09075 193.48873 C 137.37897 195.38156 140.73497 198.90677 142.41476 203.28283 C 144.09454 207.6589 143.95932 212.52425 142.03905 216.80025 C 147.2346 211.60903 149.52227 204.18183 148.14793 196.967 C 146.7736 189.75218 141.91563 183.68614 135.17545 180.76853 C 141.80898 179.83062 148.46203 182.34592 152.81589 187.4378 C 153.51464 183.57526 152.63875 179.5937 150.38355 176.381 C 148.12834 173.16828 144.68135 170.99156 140.8112 170.3362 C 149.01431 164.9041 152.98265 154.9498 150.76652 145.364 L 150.62519 144.86049 C 153.78925 132.15395 151.06045 118.69812 143.19624 108.2281 C 138.43396 116.42113 136.21694 125.8458 136.82731 135.30267 Z"/>
                     <path d="M 136.82731 135.30267 C 125.32782 132.21462 113.19459 132.39818 101.79378 135.83268 C 97.1626 137.13988 93.54316 140.75932 92.23596 145.3905 C 88.56206 146.87071 85.01412 148.64616 81.62697 150.6994 C 79.43482 152.51823 78.47299 155.42867 79.14968 158.19556 C 79.82637 160.96246 82.02287 163.10048 84.80702 163.70227 C 91.35711 162.84082 98.00493 164.24331 103.6488 167.67733 C 106.00056 168.13484 107.88616 169.89228 108.5078 172.20607 C 109.12945 174.51986 108.3785 176.98565 106.57268 178.56017 C 100.96066 180.44703 95.60941 183.0351 90.64594 186.26295 C 92.27249 191.8773 97.90908 195.3274 103.6488 194.2219 C 105.16809 193.73872 106.66797 193.19652 108.14504 192.59655 C 109.86644 200.9385 106.80563 209.5455 100.20375 214.92755 C 104.08839 215.20737 107.92003 213.897 110.81982 211.29702 C 113.71961 208.69704 115.43871 205.03055 115.58282 201.1385 C 117.93883 206.91383 117.55232 213.44546 114.53164 218.90261 C 118.66506 218.0643 122.22644 215.46304 124.28246 211.78054 C 126.33848 208.09804 126.68418 203.7014 125.22897 199.74282 C 129.65242 205.20802 129.83744 212.9678 125.67947 218.6376 C 130.21893 216.51065 133.62905 212.54004 135.04612 207.73145 C 136.4632 202.92285 135.7513 197.7375 133.09075 193.48873 C 137.37897 195.38156 140.73497 198.90677 142.41476 203.28283 C 144.09454 207.6589 143.95932 212.52425 142.03905 216.80025 C 147.2346 211.60903 149.52227 204.18183 148.14793 196.967 C 146.7736 189.75218 141.91563 183.68614 135.17545 180.76853 C 141.80898 179.83062 148.46203 182.34592 152.81589 187.4378 C 153.51464 183.57526 152.63875 179.5937 150.38355 176.381 C 148.12834 173.16828 144.68135 170.99156 140.8112 170.3362 C 149.01431 164.9041 152.98265 154.9498 150.76652 145.364 L 150.62519 144.86049 C 153.78925 132.15395 151.06045 118.69812 143.19624 108.2281 C 138.43396 116.42113 136.21694 125.8458 136.82731 135.30267 Z"
                           stroke="black"
                           stroke-linecap="round"
                           stroke-linejoin="round"
                           stroke-width="1.3960714"/>
                  </g>
                  <g>
                     <title>path276</title>
                     <path d="M 142.1369 119.67453 C 143.8848 119.31159 145.38893 119.84715 146.51412 121.23308"
                           stroke="black"
                           stroke-linecap="round"
                           stroke-linejoin="round"
                           stroke-width=".6980357"/>
                  </g>
                  <g>
                     <title>path281</title>
                     <path d="M 141.70579 121.26703 C 143.98592 120.6583 145.97093 121.46434 147.18119 123.49037"
                           stroke="black"
                           stroke-linecap="round"
                           stroke-linejoin="round"
                           stroke-width=".6980357"/>
                  </g>
                  <g>
                     <title>path286</title>
                     <path d="M 141.30775 123.05856 C 144.0663 122.41803 146.45324 123.50745 147.77677 126.01108"
                           stroke="black"
                           stroke-linecap="round"
                           stroke-linejoin="round"
                           stroke-width=".6980357"/>
                  </g>
                  <g>
                     <title>path291</title>
                     <path d="M 140.94309 124.71727 C 144.14717 123.98798 146.96917 125.43746 148.24277 128.46665"
                           stroke="black"
                           stroke-linecap="round"
                           stroke-linejoin="round"
                           stroke-width=".6980357"/>
                  </g>
                  <g>
                     <title>path296</title>
                     <path d="M 140.71074 126.44248 C 144.09234 125.9102 147.05617 127.56532 148.37684 130.72355"
                           stroke="black"
                           stroke-linecap="round"
                           stroke-linejoin="round"
                           stroke-width=".6980357"/>
                  </g>
                  <g>
                     <title>path301</title>
                     <path d="M 140.54458 127.96868 C 144.16162 127.85394 147.23811 129.91775 148.50387 133.30804"
                           stroke="black"
                           stroke-linecap="round"
                           stroke-linejoin="round"
                           stroke-width=".6980357"/>
                  </g>
                  <g>
                     <title>path306</title>
                     <path d="M 140.5451 129.66059 C 144.22128 129.8461 147.22103 132.17924 148.30574 135.69664"
                           stroke="black"
                           stroke-linecap="round"
                           stroke-linejoin="round"
                           stroke-width=".6980357"/>
                  </g>
                  <g>
                     <title>path311</title>
                     <path d="M 140.41266 131.18686 C 144.12514 131.63432 147.04903 134.19913 147.97635 137.82167"
                           stroke="black"
                           stroke-linecap="round"
                           stroke-linejoin="round"
                           stroke-width=".6980357"/>
                  </g>
                  <g>
                     <title>path316</title>
                     <path d="M 143.20629 116.51576 C 140.48141 123.59393 139.71815 131.07294 140.95703 138.55562"
                           stroke="black"
                           stroke-linecap="round"
                           stroke-linejoin="round"
                           stroke-width=".6980357"/>
                  </g>
                  <g>
                     <title>path321</title>
                     <path d="M 142.70099 118.01579 C 144.07298 117.4934 145.20185 117.86969 145.98601 119.11079"
                           stroke="black"
                           stroke-linecap="round"
                           stroke-linejoin="round"
                           stroke-width=".6980357"/>
                  </g>
               </g>
               <g>
                  <title>path334</title>
                  <g  id="outline-0">
                     <path
                           d="M 104.20425 145.90716 C 105.50331 146.2639 106.63282 147.16623 107.32247 148.3982 C 107.73835 148.3197 108.08174 148.0057 108.2194 147.57805 C 108.35705 147.1504 108.2673 146.6764 107.98498 146.34 L 106.92496 145.12982 C 107.95797 144.96563 108.93647 145.67552 109.1775 146.76401 C 109.38425 147.82976 108.89447 148.9109 107.98498 149.39638 C 107.89872 150.45328 107.11657 151.2913 106.12995 151.38391 C 104.16255 151.86604 102.09661 151.4535 100.42353 150.2444 C 101.56243 151.1487 103.15352 150.99336 104.12105 149.88342 C 105.08858 148.77347 105.12438 147.06244 104.20425 145.90716 Z"
                           fill="black"/>
                  </g>
                  <path d="M 104.20425 145.90716 C 105.50331 146.2639 106.63282 147.16623 107.32247 148.3982 C 107.73835 148.3197 108.08174 148.0057 108.2194 147.57805 C 108.35705 147.1504 108.2673 146.6764 107.98498 146.34 L 106.92496 145.12982 C 107.95797 144.96563 108.93647 145.67552 109.1775 146.76401 C 109.38425 147.82976 108.89447 148.9109 107.98498 149.39638 C 107.89872 150.45328 107.11657 151.2913 106.12995 151.38391 C 104.16255 151.86604 102.09661 151.4535 100.42353 150.2444 C 101.56243 151.1487 103.15352 150.99336 104.12105 149.88342 C 105.08858 148.77347 105.12438 147.06244 104.20425 145.90716 Z"
                        stroke="black"
                        stroke-linecap="round"
                        stroke-linejoin="round"
                        stroke-width=".16752856"/>
               </g>
               <g>
                  <title>path339</title>
                  <path d="M 99.36191 146.79794 C 100.72842 146.6559 102.08162 146.39294 103.40763 146.01176 C 105.0266 146.54344 106.43044 147.64535 107.39153 149.1388 C 106.48625 150.74172 104.69381 151.50061 103.01013 150.99383 C 100.97378 150.795 99.40256 148.98791 99.36191 146.79794 Z"
                        fill="white"/>
                  <path d="M 99.36191 146.79794 C 100.72842 146.6559 102.08162 146.39294 103.40763 146.01176 C 105.0266 146.54344 106.43044 147.64535 107.39153 149.1388 C 106.48625 150.74172 104.69381 151.50061 103.01013 150.99383 C 100.97378 150.795 99.40256 148.98791 99.36191 146.79794 Z"
                        stroke="black"
                        stroke-linecap="round"
                        stroke-linejoin="round"
                        stroke-width=".16752856"/>
               </g>
               <g>
                  <title>path344</title>
                  <g  id="outline-1">
                     <path
                           d="M 101.83441 142.39162 C 100.76902 142.31246 99.76348 142.85135 99.21022 143.79796 C 98.65695 144.74458 98.64366 145.94887 99.17554 146.94085 C 99.00182 147.85355 99.19942 148.8023 99.71881 149.54934 C 100.2382 150.29639 101.03017 150.77094 101.89624 150.85408 C 103.07344 151.11079 104.27332 150.5411 104.88639 149.43438 C 105.49946 148.32767 105.39134 146.92653 104.61695 145.94267 C 103.59623 145.48332 102.42975 145.59237 101.49874 146.23418 C 100.89137 146.39303 100.26008 146.41708 99.64371 146.30484 C 99.27505 145.5655 99.33962 144.6643 99.8093 143.99388 C 100.27897 143.32346 101.06869 143.00522 101.83441 143.1778 C 101.98511 143.1153 102.08445 142.95999 102.08445 142.78688 C 102.08445 142.61377 101.98511 142.45846 101.83441 142.39596 Z"
                           fill="black"/>
                  </g>
                  <path d="M 101.83441 142.39162 C 100.76902 142.31246 99.76348 142.85135 99.21022 143.79796 C 98.65695 144.74458 98.64366 145.94887 99.17554 146.94085 C 99.00182 147.85355 99.19942 148.8023 99.71881 149.54934 C 100.2382 150.29639 101.03017 150.77094 101.89624 150.85408 C 103.07344 151.11079 104.27332 150.5411 104.88639 149.43438 C 105.49946 148.32767 105.39134 146.92653 104.61695 145.94267 C 103.59623 145.48332 102.42975 145.59237 101.49874 146.23418 C 100.89137 146.39303 100.26008 146.41708 99.64371 146.30484 C 99.27505 145.5655 99.33962 144.6643 99.8093 143.99388 C 100.27897 143.32346 101.06869 143.00522 101.83441 143.1778 C 101.98511 143.1153 102.08445 142.95999 102.08445 142.78688 C 102.08445 142.61377 101.98511 142.45846 101.83441 142.39596 Z"
                        stroke="black"
                        stroke-linecap="round"
                        stroke-linejoin="round"
                        stroke-width=".16752856"/>
               </g>
               <g>
                  <title>path349</title>
                  <g  id="feature-13">
                     <path
                           d="M 102.91871 146.11996 C 102.98032 146.6809 102.77942 147.23825 102.38189 147.60928 C 101.98436 147.98031 101.44146 148.11717 100.93118 147.97499 C 101.46214 148.64639 102.33299 148.88161 103.09766 148.56017 C 103.86232 148.23873 104.35141 147.43184 104.3144 146.5528 C 104.58173 147.17946 104.57311 147.90141 104.29091 148.52054 C 104.00871 149.13967 103.48257 149.59094 102.85687 149.75052 C 102.09228 150.03123 101.24584 149.84997 100.64075 149.27596 C 100.03565 148.70194 99.76533 147.8238 99.933 146.9768 C 100.9865 147.02382 102.02825 146.72485 102.91871 146.11996 Z"
                           fill="#ff0000"/>
                  </g>
                  <path d="M 102.91871 146.11996 C 102.98032 146.6809 102.77942 147.23825 102.38189 147.60928 C 101.98436 147.98031 101.44146 148.11717 100.93118 147.97499 C 101.46214 148.64639 102.33299 148.88161 103.09766 148.56017 C 103.86232 148.23873 104.35141 147.43184 104.3144 146.5528 C 104.58173 147.17946 104.57311 147.90141 104.29091 148.52054 C 104.00871 149.13967 103.48257 149.59094 102.85687 149.75052 C 102.09228 150.03123 101.24584 149.84997 100.64075 149.27596 C 100.03565 148.70194 99.76533 147.8238 99.933 146.9768 C 100.9865 147.02382 102.02825 146.72485 102.91871 146.11996 Z"
                        stroke="black"
                        stroke-linecap="round"
                        stroke-linejoin="round"
                        stroke-width=".16752856"/>
               </g>
               <g>
                  <title>path354</title>
                  <g  id="outline-2">
                     <path
                           d="M 81.35931 150.69835 C 79.77751 151.54907 78.691305 153.09785 78.43024 154.87484 C 78.16917 156.65183 78.76401 158.44759 80.03429 159.71732 C 79.73609 158.9099 79.79721 158.0135 80.20226 157.25403 C 80.60732 156.49456 81.31767 155.94443 82.15433 155.74226 C 83.60564 156.3315 85.26747 156.0171 86.40322 154.93841 C 86.69388 153.58853 86.2146 152.18856 85.15763 151.30004 C 84.10066 150.41152 82.63915 150.18 81.35931 150.69835 Z"
                           fill="black"/>
                  </g>
                  <path d="M 81.35931 150.69835 C 79.77751 151.54907 78.691305 153.09785 78.43024 154.87484 C 78.16917 156.65183 78.76401 158.44759 80.03429 159.71732 C 79.73609 158.9099 79.79721 158.0135 80.20226 157.25403 C 80.60732 156.49456 81.31767 155.94443 82.15433 155.74226 C 83.60564 156.3315 85.26747 156.0171 86.40322 154.93841 C 86.69388 153.58853 86.2146 152.18856 85.15763 151.30004 C 84.10066 150.41152 82.63915 150.18 81.35931 150.69835 Z"
                        stroke="black"
                        stroke-linecap="round"
                        stroke-linejoin="round"
                        stroke-width="2.1778712"/>
               </g>
               <g>
                  <title>path359</title>
                  <path d="M 85.86972 155.73644 C 88.73026 150.25731 93.73227 148.75671 99.13646 151.75643"
                        stroke="black"
                        stroke-linecap="round"
                        stroke-linejoin="round"
                        stroke-width="1.0470535"/>
               </g>
               <g>
                  <title>path364</title>
                  <path d="M 108.96232 163.9656 C 114.64796 164.8931 118.44145 167.55316 118.83018 170.8851 C 119.2189 174.21702 116.13963 177.6789 110.8202 179.89033"
                        stroke="black"
                        stroke-linecap="round"
                        stroke-linejoin="round"
                        stroke-width="1.0470535"/>
               </g>
               <g>
                  <title>path482</title>
                  <path d="M 109.74363 140.93056 C 109.71832 141.99337 110.27085 142.98645 111.18728 143.5253 C 112.1037 144.06414 113.24015 144.06414 114.15658 143.5253 C 115.073 142.98645 115.62553 141.99337 115.60022 140.93056 C 115.62553 139.86776 115.073 138.87468 114.15658 138.33583 C 113.24015 137.79699 112.1037 137.79699 111.18728 138.33583 C 110.27085 138.87468 109.71832 139.86776 109.74363 140.93056 Z"
                        fill="#ccc"/>
                  <path d="M 109.74363 140.93056 C 109.71832 141.99337 110.27085 142.98645 111.18728 143.5253 C 112.1037 144.06414 113.24015 144.06414 114.15658 143.5253 C 115.073 142.98645 115.62553 141.99337 115.60022 140.93056 C 115.62553 139.86776 115.073 138.87468 114.15658 138.33583 C 113.24015 137.79699 112.1037 137.79699 111.18728 138.33583 C 110.27085 138.87468 109.71832 139.86776 109.74363 140.93056 Z"
                        stroke="black"
                        stroke-linecap="round"
                        stroke-linejoin="round"
                        stroke-width=".6980357"/>
               </g>
               <g>
                  <title>path487</title>
                  <path d="M 129.44544 140.93763 C 129.42013 139.87483 129.97266 138.88174 130.88909 138.3429 C 131.80552 137.80406 132.94196 137.80406 133.85839 138.3429 C 134.77482 138.88174 135.32735 139.87483 135.30203 140.93763 C 135.32735 142.00044 134.77482 142.99352 133.85839 143.53236 C 132.94196 144.0712 131.80552 144.0712 130.88909 143.53236 C 129.97266 142.99352 129.42013 142.00044 129.44544 140.93763 Z"
                        fill="#ccc"/>
                  <path d="M 129.44544 140.93763 C 129.42013 139.87483 129.97266 138.88174 130.88909 138.3429 C 131.80552 137.80406 132.94196 137.80406 133.85839 138.3429 C 134.77482 138.88174 135.32735 139.87483 135.30203 140.93763 C 135.32735 142.00044 134.77482 142.99352 133.85839 143.53236 C 132.94196 144.0712 131.80552 144.0712 130.88909 143.53236 C 129.97266 142.99352 129.42013 142.00044 129.44544 140.93763 Z"
                        stroke="black"
                        stroke-linecap="round"
                        stroke-linejoin="round"
                        stroke-width=".6980357"/>
               </g>
               <g>
                  <title>path492</title>
                  <path d="M 139.80198 154.64099 C 139.77667 153.57819 140.3292 152.5851 141.24562 152.04626 C 142.16205 151.50741 143.2985 151.50741 144.21492 152.04626 C 145.13135 152.5851 145.68388 153.57819 145.65857 154.64099 C 145.68388 155.7038 145.13135 156.69688 144.21492 157.23572 C 143.2985 157.77457 142.16205 157.77457 141.24562 157.23572 C 140.3292 156.69688 139.77667 155.7038 139.80198 154.64099 Z"
                        fill="#ccc"/>
                  <path d="M 139.80198 154.64099 C 139.77667 153.57819 140.3292 152.5851 141.24562 152.04626 C 142.16205 151.50741 143.2985 151.50741 144.21492 152.04626 C 145.13135 152.5851 145.68388 153.57819 145.65857 154.64099 C 145.68388 155.7038 145.13135 156.69688 144.21492 157.23572 C 143.2985 157.77457 142.16205 157.77457 141.24562 157.23572 C 140.3292 156.69688 139.77667 155.7038 139.80198 154.64099 Z"
                        stroke="black"
                        stroke-linecap="round"
                        stroke-linejoin="round"
                        stroke-width=".6980357"/>
               </g>
               <g>
                  <title>path497</title>
                  <path d="M 119.68172 154.64099 C 119.65641 153.57819 120.20894 152.5851 121.12537 152.04626 C 122.0418 151.50741 123.17824 151.50741 124.09467 152.04626 C 125.0111 152.5851 125.56363 153.57819 125.53831 154.64099 C 125.56363 155.7038 125.0111 156.69688 124.09467 157.23572 C 123.17824 157.77457 122.0418 157.77457 121.12537 157.23572 C 120.20894 156.69688 119.65641 155.7038 119.68172 154.64099 Z"
                        fill="#ccc"/>
                  <path d="M 119.68172 154.64099 C 119.65641 153.57819 120.20894 152.5851 121.12537 152.04626 C 122.0418 151.50741 123.17824 151.50741 124.09467 152.04626 C 125.0111 152.5851 125.56363 153.57819 125.53831 154.64099 C 125.56363 155.7038 125.0111 156.69688 124.09467 157.23572 C 123.17824 157.77457 122.0418 157.77457 121.12537 157.23572 C 120.20894 156.69688 119.65641 155.7038 119.68172 154.64099 Z"
                        stroke="black"
                        stroke-linecap="round"
                        stroke-linejoin="round"
                        stroke-width=".6980357"/>
               </g>
               <g>
                  <title>path502</title>
                  <path d="M 129.44544 168.55467 C 129.42013 167.49187 129.97266 166.49878 130.88909 165.95994 C 131.80552 165.4211 132.94196 165.4211 133.85839 165.95994 C 134.77482 166.49878 135.32735 167.49187 135.30203 168.55467 C 135.32735 169.61748 134.77482 170.61056 133.85839 171.1494 C 132.94196 171.68825 131.80552 171.68825 130.88909 171.1494 C 129.97266 170.61056 129.42013 169.61748 129.44544 168.55467 Z"
                        fill="#ccc"/>
                  <path d="M 129.44544 168.55467 C 129.42013 167.49187 129.97266 166.49878 130.88909 165.95994 C 131.80552 165.4211 132.94196 165.4211 133.85839 165.95994 C 134.77482 166.49878 135.32735 167.49187 135.30203 168.55467 C 135.32735 169.61748 134.77482 170.61056 133.85839 171.1494 C 132.94196 171.68825 131.80552 171.68825 130.88909 171.1494 C 129.97266 170.61056 129.42013 169.61748 129.44544 168.55467 Z"
                        stroke="black"
                        stroke-linecap="round"
                        stroke-linejoin="round"
                        stroke-width=".6980357"/>
               </g>
            </g>
         </g>
      </g>
   </g>
</svg>