<?xml version="1.0" encoding="UTF-8" standalone="no"?>
<!DOCTYPE svg PUBLIC "-//W3C//DTD SVG 1.1//EN" "http://www.w3.org/Graphics/SVG/1.1/DTD/svg11.dtd">
<svg xmlns:dc="http://purl.org/dc/elements/1.1/" xmlns:xl="http://www.w3.org/1999/xlink" version="1.1" xmlns="http://www.w3.org/2000/svg" viewBox="33.75 63 297 279" width="297" height="279">
  <defs>
    <clipPath id="artboard_clip_path">
      <path d="M 33.75 63 L 330.75 63 L 330.75 342 L 33.75 342 Z"/>
    </clipPath>
  </defs>
  <metadata> Produced by OmniGraffle 7.7.1 
    <dc:date>2018-03-18 08:44:42 +0000</dc:date><dc:title>Traceable heraldic art http://heraldicart.org/credits.html</dc:title>
  </metadata>
  <g id="Monkey,_Winged,_Passant" fill-opacity="1" stroke-dasharray="none" stroke="none" stroke-opacity="1" fill="#ffff00">
    <title>Monkey, Winged, Passant</title>
    <g id="Monkey,_Winged,_Passant: Layer 2" >
      <title>Layer 2</title>
      <g id="Group_3">
        <g id="Graphic_12">
          <path d="M 325.33217 65.83669 C 313.89078 67.62441 302.02032 70.055705 296.9432 71.771914 C 293.43928 72.98756 290.3644 73.91718 290.00686 73.91718 C 289.22026 73.91718 291.36552 70.627774 293.7253 67.98195 C 296.0851 65.479145 295.79906 65.479145 282.78447 68.62553 C 251.74968 76.06244 247.24463 77.56412 229.868 86.14517 C 219.0702 91.43682 204.4824 100.23239 195.90136 106.59667 C 174.52024 122.54312 169.51463 127.69175 156.214 147.57118 C 149.34917 157.86844 146.98938 165.09082 146.98938 176.03166 L 146.91787 183.39706 L 145.4877 181.53783 C 144.7011 180.5367 143.0564 178.53446 141.91226 177.03278 C 139.12342 173.60036 135.33345 167.87966 131.54349 161.22935 C 127.89655 154.86507 124.10658 150.50304 121.10322 149.28739 C 119.3155 148.50079 117.24174 148.50079 109.66182 149.28739 C 104.5847 149.78795 99.15003 150.78907 97.57684 151.43265 C 93.64386 153.07735 89.63937 157.15335 87.20807 161.87293 C 84.77678 166.5925 80.0572 171.66962 76.7678 173.02829 C 75.40913 173.60036 74.3365 174.24394 74.3365 174.45846 C 74.3365 174.60148 74.98008 176.03166 75.766675 177.60485 C 77.69741 181.39481 82.34548 185.75684 86.99355 188.11663 C 91.64161 190.40491 92.07067 190.97698 90.35446 192.33565 C 89.0673 193.26526 89.0673 193.40828 90.78351 194.69544 C 93.42933 196.7692 98.864 197.91333 101.50982 196.98372 C 102.72547 196.62617 104.15564 196.41165 104.72771 196.62617 C 105.80035 197.05522 109.66182 201.63178 111.59255 204.77817 C 112.73669 206.56589 115.81157 214.36034 115.81157 215.43297 C 115.81157 215.719 114.4529 216.4341 112.8082 216.93465 C 107.8741 218.36483 101.3668 221.51121 97.93438 224.15704 C 94.71649 226.58833 94.64498 226.58833 87.92316 226.44532 C 76.12422 226.15928 70.83257 224.22855 60.82135 216.72013 C 57.531946 214.21732 57.031385 213.43073 55.67272 208.99718 C 54.09953 203.92006 53.741983 203.491 52.31181 204.92119 C 51.23918 205.99382 51.453704 206.35136 47.520723 198.12786 C 44.15981 191.0485 42.729637 189.83284 42.300585 193.6228 C 42.15757 194.90996 41.51399 195.76807 40.655884 195.9826 C 39.29722 196.34014 39.011183 196.98372 39.22571 199.12898 C 39.29722 199.70105 38.51062 200.63066 37.43799 201.13122 C 35.72178 201.91782 35.650272 202.06084 36.651395 203.20498 C 38.296096 205.0642 42.58662 214.71788 43.15869 218.00729 C 43.444725 219.58048 44.23132 221.72574 44.80339 222.72686 C 46.44809 225.5157 52.025773 228.8051 55.815737 229.23416 C 57.88949 229.44868 63.53868 231.80847 71.762185 235.81296 C 78.77004 239.17387 84.9913 241.9627 85.56337 241.9627 C 86.13544 241.9627 87.63713 242.82082 88.85277 243.82194 C 90.78351 245.46664 91.57011 245.60966 94.71649 245.32362 C 99.57908 244.82306 109.44729 242.7493 110.94897 241.9627 C 113.09424 240.74706 113.45178 241.17612 113.88083 245.32362 C 115.16799 257.83765 116.74118 266.20418 118.31437 269.7796 C 119.3155 271.85337 120.1021 274.07014 120.1021 274.7137 C 120.1021 275.2858 119.02946 278.07463 117.6708 280.86347 C 116.31213 283.6523 113.80932 289.01546 112.0216 292.7339 C 110.3054 296.45237 107.23052 302.03005 105.15677 305.03342 C 101.58133 310.39658 101.43831 310.5396 99.15003 310.03903 C 95.36007 309.25244 92.78575 309.60998 88.2807 311.5407 C 83.84716 313.47145 79.34211 316.61784 79.34211 317.76198 C 79.34211 318.19103 80.27173 318.47706 81.34436 318.47706 C 83.20358 318.47706 83.3466 318.6916 83.06057 320.62233 C 82.70302 322.9821 82.77453 323.05362 85.34885 322.0525 C 87.06506 321.40892 87.20807 321.55194 87.20807 323.12513 C 87.20807 325.2704 86.92204 325.2704 92.42821 323.41117 C 96.50421 321.981 99.15003 321.62345 108.08862 321.40892 C 111.30652 321.3374 111.52104 321.1944 114.16687 317.33292 C 115.66855 315.11615 117.24174 312.9709 117.59929 312.54184 C 118.38588 311.61222 127.18146 293.449 129.1122 288.80094 C 129.75577 287.22774 130.89991 284.00985 131.68651 281.65006 C 132.4731 279.29027 133.54574 277.0735 134.1178 276.78747 C 134.68988 276.50143 135.11893 275.78635 135.11893 275.21428 C 135.11893 272.71147 142.98489 255.54937 144.12903 255.54937 C 144.34356 255.54937 145.63071 256.12144 147.1324 256.83653 C 149.34917 257.90916 151.35141 258.1237 159.4319 257.98067 C 173.59063 257.76614 181.17056 257.4086 182.02866 256.83653 C 183.1013 256.12144 202.33714 254.76278 202.33714 255.33485 C 202.33714 255.40636 200.47792 256.76502 198.26114 258.3382 C 191.96838 262.62874 189.46557 265.34607 189.46557 267.9919 C 189.53708 272.2109 191.61083 280.2199 194.11364 285.36852 C 198.26114 294.1641 207.41426 305.39096 209.70254 304.46135 C 211.27573 303.88928 215.49475 307.2502 216.49587 310.03903 C 217.35398 312.1843 217.35398 312.9709 216.49587 314.6156 C 214.92268 317.9765 210.1316 320.83685 205.12598 321.40892 C 200.2634 321.981 197.54606 323.91173 195.11476 328.7028 C 193.54157 331.70618 193.8991 333.4939 195.75834 331.8492 C 196.47343 331.27713 197.54606 330.63355 198.26114 330.41902 C 199.40528 329.98997 199.5483 330.2045 199.11925 332.20674 C 198.6902 334.13748 198.7617 334.352 199.83434 333.92295 C 203.12374 332.7073 204.4824 332.6358 204.4824 333.77993 C 204.4824 335.0671 206.34163 335.2816 208.98746 334.2805 C 211.99082 333.13635 215.56626 333.06485 215.35173 334.13748 C 214.77966 336.7833 215.9238 337.14084 218.3551 335.2816 C 220.21433 333.92295 221.85903 333.3509 224.57636 333.20786 C 231.22667 332.85032 233.0144 329.20337 230.94064 320.2648 C 230.5831 318.6916 230.15404 315.75973 229.93952 313.829 C 229.22443 307.96528 225.21994 295.37974 221.85903 288.80094 C 219.57075 284.22438 220.28584 281.221 224.79089 277.43105 C 229.725 273.21203 230.94064 272.71147 235.5172 272.71147 C 239.02113 272.71147 240.09376 273.069 243.7407 275.57182 C 246.02898 277.145 248.10274 278.43217 248.31726 278.43217 C 249.60442 278.43217 258.68603 283.08024 262.5475 285.72606 C 269.55536 290.51715 272.4157 293.5205 272.55872 296.38086 C 272.70174 300.0993 272.55872 301.31497 271.27157 305.96303 C 269.48385 312.68486 267.3386 317.0469 263.69164 321.40892 C 260.68827 325.05587 259.90168 325.62794 256.46926 326.34302 C 252.17873 327.20113 249.03235 329.77544 249.81895 331.70618 C 250.03347 332.42127 250.60554 332.6358 251.1061 332.27825 C 251.60666 331.9922 252.6078 331.63467 253.32287 331.56316 C 254.467 331.34864 254.467 331.49165 253.10835 332.92183 C 251.60666 334.56653 251.1061 338.78555 252.39326 339.57214 C 252.7508 339.78667 253.89494 339.1431 254.89607 337.99895 C 256.61228 336.0682 256.61228 336.0682 256.68378 337.5699 C 256.68378 339.3576 258.04245 339.71516 259.40112 338.3565 C 259.9732 337.78442 260.47375 337.78442 261.18883 338.3565 C 261.97543 339.00007 262.5475 338.78555 263.83466 337.42688 C 264.9788 336.13972 265.7654 335.8537 266.33746 336.35425 C 267.76764 337.4984 269.0548 336.56877 271.34308 332.7073 C 272.55872 330.70506 274.48946 328.4883 275.77662 327.7017 C 277.49283 326.62906 278.1364 325.62794 278.49395 323.26815 C 279.49507 316.61784 283.35654 304.8904 287.57556 295.66578 C 291.8661 286.1551 292.65268 282.43666 291.294 278.21764 C 290.14987 274.85673 287.8616 272.71147 282.2839 269.92263 C 276.84925 267.2053 270.55648 257.98067 267.05255 247.75492 L 265.33634 242.6778 L 267.62462 243.89345 C 269.41234 244.82306 271.84364 245.1091 278.2079 245.1806 L 286.50293 245.1806 L 292.8672 241.9627 C 296.29963 240.175 300.37562 237.52917 301.8058 236.0275 C 305.30973 232.45205 311.31646 220.79613 313.2472 213.64525 C 314.60586 208.63964 314.67737 207.35248 314.0338 202.06084 C 313.46172 197.05522 312.67513 194.83845 309.3142 188.11663 C 307.16895 183.6831 305.0237 179.6071 304.66615 179.03502 C 303.5935 177.39032 301.16222 172.2417 298.4449 165.44836 C 296.29963 160.29973 295.79906 158.08296 295.227 150.43153 C 294.79794 145.49742 294.72643 139.84823 295.01247 137.9175 C 295.51303 133.76999 298.23036 128.69287 300.51864 127.40571 C 301.37675 126.97666 305.0237 126.54761 308.52762 126.4761 C 315.39246 126.40459 318.8964 125.33196 318.8964 123.2582 C 318.8964 120.89842 316.82263 117.03695 314.9634 115.8213 C 312.4606 114.1766 306.16783 113.53302 302.94994 114.60565 C 299.73204 115.67828 292.9387 122.47161 290.93647 126.54761 C 290.14987 128.19231 289.22026 131.4102 288.7912 133.69848 C 287.7901 139.49069 287.43254 155.50865 288.14763 161.30086 C 288.7912 166.23496 292.0806 174.816 297.8013 186.54344 C 301.7343 194.76695 301.8058 194.83845 302.44938 201.13122 C 303.09296 207.4955 302.30636 210.8564 298.37338 218.00729 C 296.2281 221.79725 294.79794 223.44195 291.9376 225.30118 C 285.64482 229.30567 274.847 231.02188 269.9844 228.7336 C 268.76876 228.16153 266.19445 226.08777 264.33522 224.15704 C 260.61676 220.29556 253.17986 216.29108 246.31502 214.50336 C 243.31165 213.71676 237.37642 213.2162 226.29257 212.93016 C 204.19637 212.3581 202.12262 212.00055 185.53259 205.56476 C 184.24543 205.0642 184.24543 204.92119 186.03315 203.13347 C 189.39406 199.77256 197.9036 196.0541 204.4824 195.196 C 211.13272 194.26638 216.28135 191.40603 222.78864 185.04176 C 227.07917 180.75123 228.58085 178.39144 226.36408 179.24955 C 225.86352 179.46408 223.86127 179.82162 221.93054 180.03614 L 218.4266 180.4652 L 222.28808 178.67748 C 224.43334 177.67636 227.00766 176.67523 228.00878 176.3892 C 232.65685 175.24506 237.44793 171.09755 240.59432 165.51987 C 242.73958 161.80142 242.73958 161.87293 241.1664 161.87293 C 240.5228 161.87293 241.88148 160.72879 244.24126 159.29861 C 250.10498 155.79468 251.53515 154.293 253.89494 149.4304 C 255.39663 146.21251 256.61228 144.78234 259.04357 143.35216 C 264.69276 139.99125 267.69613 137.41694 271.34308 132.91189 C 273.2738 130.48059 276.4917 127.40571 278.49395 126.11856 C 280.4247 124.75989 282.999 122.90066 284.14314 121.89954 C 286.1454 120.04031 291.72307 112.17435 291.72307 111.17323 C 291.72307 110.8872 292.58117 110.17211 293.5823 109.60004 C 294.5834 109.09948 297.22924 106.73969 299.3745 104.3799 C 305.0237 98.30166 307.16895 93.22454 303.23597 95.3698 C 300.66166 96.72846 301.59127 95.65583 304.73766 93.58208 C 308.74215 90.93626 315.32095 84.715 315.32095 83.57086 C 315.32095 83.070295 316.75112 81.06805 318.53884 79.20882 C 320.32656 77.27809 322.90088 74.06019 324.25954 72.05795 C 325.5467 70.055705 327.1914 68.05346 327.76347 67.5529 C 328.8361 66.69479 328.6931 65.19311 327.62045 65.40764 C 327.3344 65.479145 326.3333 65.62216 325.33217 65.83669 Z" fill="#cccccc"/>
        </g>
        <g id="Graphic_11">
          <path d="M 289.29177 71.199844 C 287.1465 74.84679 287.50405 74.70377 278.1364 77.49261 C 265.62238 81.28258 258.90055 84.35745 223.93278 102.23464 C 215.1372 106.73969 206.41314 111.45926 204.62542 112.67491 C 187.2488 124.47385 169.37161 143.42367 160.57604 159.2271 C 157.42965 165.0193 155.78495 170.95454 155.06987 179.6071 C 154.71232 184.18365 154.28327 187.97361 154.14025 188.11663 C 153.56818 188.7602 149.34917 185.68534 149.06313 184.39818 C 148.8486 183.61158 148.63408 180.03614 148.49106 176.53222 C 148.27654 169.59587 149.6352 162.87405 152.42404 156.86731 C 155.3559 150.71756 166.15372 135.12866 171.51688 129.33645 C 178.66775 121.6135 181.02754 119.61126 192.32592 111.10172 C 208.77293 98.73071 228.79538 87.28931 246.1005 80.49598 C 253.17986 77.77865 269.1978 73.20209 275.27606 72.20097 C 277.2783 71.91493 290.00686 68.69704 290.86496 68.26799 C 291.00798 68.26799 290.2929 69.55514 289.29177 71.199844 Z" fill="#ff0000"/>
        </g>
        <g id="Graphic_10">
          <path d="M 324.6171 68.76855 C 324.6171 69.05458 322.90088 71.48588 320.7556 74.06019 C 317.10867 78.49374 316.5366 78.85128 311.24495 80.56749 C 305.73878 82.35521 301.44825 83.42784 296.9432 84.28594 C 294.79794 84.715 293.36777 85.78763 294.01135 86.43121 C 294.4404 86.86026 303.16446 84.85801 309.0997 82.99879 C 312.10306 81.99766 314.60586 81.4971 314.60586 81.85465 C 314.60586 83.1418 308.52762 89.14854 304.3801 91.93738 C 300.80468 94.36868 293.15324 98.08713 282.999 102.30615 C 281.4973 102.87822 280.28167 103.80783 280.28167 104.3799 C 280.28167 105.02348 281.92637 104.59443 285.85935 102.80671 C 295.01247 98.58769 296.44264 98.15864 299.66054 98.37317 L 302.7354 98.58769 L 298.5879 103.02123 C 293.29626 108.74193 290.00686 110.60116 280.21016 113.31849 C 275.7051 114.53414 271.20006 116.03582 270.12743 116.6079 C 267.91066 117.68052 267.26708 119.46824 269.41234 118.53863 C 270.05592 118.2526 273.55985 117.10845 277.06377 115.96431 C 280.6392 114.82018 284.85823 113.46151 286.57444 112.88944 L 289.5778 111.88832 L 288.50517 113.96207 C 286.64595 117.53751 283.0705 121.11294 277.63584 124.75989 C 270.8425 129.40796 270.6995 129.40796 258.11396 131.91076 C 253.03684 132.91189 243.8122 136.12978 243.8122 136.91638 C 243.8122 137.9175 245.59993 137.63146 249.31838 136.05827 C 251.1776 135.20017 253.89494 134.41357 255.2536 134.34206 C 256.61228 134.19904 259.68715 133.55546 262.04694 132.91189 C 269.62687 130.83813 270.98553 130.5521 270.98553 130.83813 C 270.98553 131.76775 264.33522 138.13202 260.9743 140.4203 C 255.53964 144.06725 244.16975 148.21476 233.65797 150.50304 C 231.3697 151.0036 229.51046 151.64718 229.51046 152.00472 C 229.51046 153.29188 238.8066 151.21812 248.31726 147.85721 C 251.0346 146.9276 253.32287 146.141 253.4659 146.141 C 254.324 146.141 251.9642 150.64605 249.81895 153.14886 C 247.31614 156.15223 237.80548 161.37236 227.00766 165.8059 C 221.21545 168.1657 219.9998 169.0238 222.28808 169.0238 C 223.2177 169.0238 226.65011 167.73664 230.01102 166.16345 C 234.15853 164.23271 236.66134 163.44612 237.80548 163.73215 C 239.95074 164.30422 239.95074 164.59026 237.59095 167.80815 C 234.6591 171.59811 232.65685 172.88527 225.50597 175.67411 C 217.497 178.74899 213.06345 180.96576 213.06345 181.89537 C 213.06345 182.75348 216.56738 182.75348 220.7149 181.96688 L 223.71826 181.39481 L 221.42998 184.18365 C 217.28247 189.18926 212.27686 191.9066 204.55391 193.40828 C 197.26002 194.83845 188.67897 198.62842 185.38957 201.91782 C 182.10017 205.20722 180.02642 208.2821 180.31245 209.56925 C 180.59849 210.64189 180.81301 210.49887 181.5996 208.85417 C 182.67224 206.7089 183.67336 206.56589 187.3203 207.92455 C 203.6958 214.14581 202.69469 214.0028 220.92941 214.43185 C 228.58085 214.57487 237.44793 215.07543 240.5228 215.50448 C 249.89045 216.72013 258.75754 220.5816 263.4771 225.5157 C 269.1978 231.52244 272.70174 232.73809 280.28167 231.1649 C 282.42693 230.73584 284.92974 230.3068 285.85935 230.16377 C 288.7912 229.73472 295.72756 224.6576 298.08734 221.15367 C 299.3745 219.36595 301.23373 215.79051 302.30636 213.2877 C 303.95106 209.35473 304.2371 207.85304 304.09408 202.6329 C 303.87955 195.91108 303.66503 195.05298 299.2315 185.82835 C 291.0795 169.0238 289.86384 165.44836 289.22026 155.79468 C 288.57668 146.71307 288.50517 147.64269 289.5063 139.70522 C 290.72194 130.12305 292.0091 126.69063 296.1566 121.97105 C 300.51864 116.96544 302.37787 115.96431 307.09744 115.8928 C 311.81702 115.8213 315.10642 117.17996 316.39358 119.75428 C 318.75337 124.18782 317.4662 124.97442 307.74102 124.8314 C 299.87506 124.68838 298.87394 125.26045 295.2985 131.91076 C 293.08173 136.12978 292.9387 136.77336 293.01022 143.20914 C 293.22475 154.3645 293.86833 159.01258 296.0851 163.80366 C 297.22924 166.23496 298.15885 168.52324 298.15885 168.80927 C 298.15885 169.0953 299.66054 172.2417 301.44825 175.81713 C 311.81702 196.19712 312.10306 196.7692 312.74664 203.70554 C 313.3187 209.42624 311.531 216.00504 307.09744 224.80062 C 302.7354 233.45317 300.8762 235.66994 295.08398 239.10236 C 288.36216 242.96384 286.00237 243.6074 277.92188 243.4644 C 270.05592 243.32138 265.9084 241.8912 264.9073 238.95935 C 264.40673 237.60068 264.2637 237.88671 264.04918 240.53254 C 263.69164 244.60854 266.19445 251.54488 270.8425 259.48235 C 273.84588 264.63098 279.6381 271.2813 281.13977 271.2813 C 281.4258 271.2813 283.28503 272.2109 285.14426 273.42656 C 291.151 277.0735 291.79457 281.36403 287.71858 291.16073 C 281.71184 305.53398 279.20904 312.82787 277.77886 319.6212 C 276.84925 324.19776 276.27718 325.3419 274.13192 327.27264 C 272.70174 328.4883 270.6995 330.77657 269.76988 332.34976 C 268.05367 334.9956 267.83915 335.0671 266.98104 333.92295 C 266.12294 332.7073 265.97992 332.7073 264.2637 334.63804 C 262.90504 336.28274 262.33297 336.49727 261.6179 335.8537 C 260.9028 335.1386 260.47375 335.1386 259.75866 335.78218 C 258.90055 336.42576 258.82905 336.28274 259.1866 334.70955 C 259.83017 332.20674 259.04357 332.27825 255.75417 334.9956 C 253.89494 336.49727 253.10835 336.8548 253.10835 336.0682 C 253.10835 335.49614 254.18098 334.209 255.46814 333.20786 C 257.39887 331.63467 257.5419 331.2056 256.68378 330.63355 C 256.1117 330.276 255.03908 329.91846 254.3955 329.91846 C 251.60666 329.91846 253.32287 328.5598 257.04133 327.7732 C 260.40224 327.0581 261.40336 326.48604 264.04918 323.41117 C 268.41122 318.40555 270.8425 313.54296 272.84476 305.89153 C 274.34644 300.17083 274.48946 298.74065 273.84588 295.8088 C 273.41683 293.94957 272.4872 291.8043 271.84364 291.0177 C 269.1263 288.08585 258.18547 280.93498 250.67705 277.28803 C 243.6692 273.92712 242.0245 272.78298 236.4468 267.2053 C 229.7965 260.555 227.15067 256.76502 226.29257 252.68902 C 225.07692 246.96832 219.71377 239.74594 214.63665 237.0286 C 211.8478 235.52693 212.34837 237.52917 215.35173 239.4599 C 216.92493 240.53254 219.0702 242.24875 219.9998 243.32138 C 221.716 245.1806 224.43334 250.25773 224.50485 251.6879 C 224.50485 252.11695 221.6445 252.4745 216.85342 252.546 C 207.55728 252.68902 190.25217 253.90467 183.38733 254.8343 C 168.65653 256.90804 152.138 256.90804 147.1324 254.9058 C 145.34468 254.26222 145.20166 253.97618 145.84524 252.33148 C 147.77597 247.25436 148.56257 246.18173 158.14474 236.099 C 159.14586 235.02637 159.71793 233.95373 159.3604 233.7392 C 158.35927 233.09563 148.49106 243.96496 146.3458 248.11246 C 145.27317 250.25773 143.9145 252.18846 143.34243 252.4745 C 142.77036 252.68902 142.48433 253.11808 142.69885 253.47562 C 142.91338 253.83316 142.41282 255.0488 141.62622 256.12144 C 140.83963 257.26558 138.69436 261.84214 136.90665 266.3472 C 135.04742 270.85224 133.2597 274.78522 132.90216 275.21428 C 132.54461 275.57182 130.47086 275.85785 128.25409 275.78635 C 125.17921 275.71484 123.82055 275.2858 122.6049 274.14165 C 120.88869 272.56845 116.66967 262.2712 117.38476 261.5561 C 117.59929 261.34158 117.45627 259.8399 117.09873 258.1952 C 116.0261 253.47562 114.66743 241.24763 114.81045 237.31464 C 114.95346 230.23528 115.95459 222.2978 116.8842 220.5101 C 119.387 215.79051 121.0317 211.92904 120.60265 211.5 C 120.38813 211.28546 119.53002 212.07206 118.81494 213.2877 L 117.45627 215.576 L 116.16911 211.78602 C 114.81045 207.4955 110.87747 200.70217 108.6607 198.69993 C 106.94448 197.12673 106.80147 196.19712 108.37466 196.19712 C 109.01824 196.19712 109.37578 195.76807 109.16126 195.2675 C 109.01824 194.83845 108.44617 194.4809 107.94561 194.62393 C 107.44505 194.76695 107.23052 194.4094 107.37354 193.90884 C 108.51768 190.90547 108.6607 189.76133 108.01712 189.76133 C 107.58806 189.76133 107.23052 190.19039 107.23052 190.69095 C 107.23052 193.83733 100.36568 196.19712 95.14554 194.76695 C 91.92765 193.90884 91.4986 193.05074 93.64386 191.9066 C 95.50309 190.90547 95.50309 189.04625 93.57235 189.04625 C 91.21256 189.04625 84.1332 184.97025 80.70078 181.68085 C 77.69741 178.8205 77.69741 178.67748 79.34211 178.31994 C 82.13095 177.67636 81.91643 176.17467 79.05608 176.17467 C 76.338745 176.17467 75.62366 175.10204 77.84043 174.38695 C 78.55552 174.17243 80.9153 172.17018 83.06057 169.8819 L 86.99355 165.8059 L 88.35221 167.59362 C 89.0673 168.52324 89.99691 169.95341 90.28295 170.74 C 90.78351 172.09867 90.92653 172.09867 92.57123 170.09643 C 93.50084 168.88078 94.28744 167.73664 94.35895 167.4506 C 94.35895 166.5925 90.64049 164.01819 89.28183 164.01819 C 87.99467 164.01819 87.99467 163.87517 89.42484 161.15784 C 90.28295 159.58465 91.28407 158.29749 91.64161 158.29749 C 93.07179 158.29749 96.4327 162.73103 96.93326 165.16233 C 97.43382 167.95117 98.64947 169.16682 98.64947 166.87854 C 98.64947 164.73327 97.00477 161.15784 94.85951 158.58352 C 93.07179 156.50977 93.00028 156.29524 94.21593 155.22261 C 96.00365 153.57791 101.3668 151.64718 102.65396 152.14774 C 103.22603 152.36226 104.44168 152.21925 105.29978 151.71868 C 106.15789 151.28963 110.09087 150.78907 114.02385 150.71756 L 121.17472 150.50304 L 124.75016 154.22149 C 126.7524 156.29524 129.68426 160.51426 131.32896 163.66064 C 132.97367 166.80703 135.83402 171.38359 137.76475 173.8864 C 139.62398 176.3892 142.12678 179.6786 143.19942 181.2518 C 145.41619 184.25516 150.27878 188.6172 153.06762 190.04737 C 154.21176 190.54793 154.92685 191.69207 155.21288 193.33677 C 155.85646 197.26975 159.57492 204.1346 160.50453 203.20498 C 160.71906 202.99045 159.93246 200.9167 158.6453 198.62842 C 156.50004 194.62393 156.35702 193.98035 156.35702 186.90098 C 156.35702 170.95454 157.8587 165.59138 166.22523 152.93433 C 170.65877 146.21251 176.88003 138.84711 186.24768 129.33645 C 193.041 122.4001 205.41202 113.53302 215.20872 108.38439 C 250.67705 89.93513 268.05367 81.92616 279.56658 78.70826 C 283.28503 77.63563 289.93535 75.63339 294.22587 74.27472 C 303.379 71.41437 306.23934 70.69928 312.10306 69.69816 C 314.46285 69.26911 317.03716 68.84006 317.82376 68.62553 C 320.46958 68.12497 324.6171 68.19648 324.6171 68.76855 Z" fill="#ff0000"/>
        </g>
        <g id="Graphic_9">
          <path d="M 90.78351 166.87854 C 90.78351 167.23608 90.64049 167.59362 90.49747 167.59362 C 90.28295 167.59362 89.9254 167.23608 89.71088 166.87854 C 89.49635 166.44948 89.63937 166.16345 89.99691 166.16345 C 90.42597 166.16345 90.78351 166.44948 90.78351 166.87854 Z" fill="#ff0000"/>
        </g>
        <g id="Graphic_8">
          <path d="M 49.52297 205.13571 C 50.881634 207.78154 50.881634 208.06757 49.737494 209.9983 C 49.093915 211.14245 48.593354 212.3581 48.593354 212.71564 C 48.593354 214.0743 50.02353 212.5011 51.52521 209.64076 C 53.38444 206.06533 53.741983 206.56589 55.315175 214.0743 C 56.387807 219.15143 57.38893 221.22518 58.31854 220.36707 C 58.53307 220.15255 58.31854 219.29444 57.81798 218.43634 C 56.10177 215.79051 57.74647 216.00504 61.2504 218.8654 C 67.40015 223.871 71.61917 226.2308 75.40913 226.73135 C 76.55327 226.94588 78.12646 227.44644 78.98457 227.80398 C 79.77116 228.30454 83.27509 228.51907 86.99355 228.44756 C 90.64049 228.37605 93.64386 228.44756 93.64386 228.59058 C 93.64386 228.8051 93.1433 230.16377 92.49972 231.66545 C 91.57011 233.88223 91.4986 234.88335 92.14218 237.10012 C 93.35782 241.1046 94.28744 240.38952 93.85839 235.95598 C 93.50084 232.73809 93.71537 231.59395 95.07403 229.44868 C 97.07628 226.2308 103.58357 221.79725 109.73333 219.43746 C 116.45515 216.93465 116.66967 217.00616 115.38252 220.6531 C 114.81045 222.36932 114.09536 227.1604 113.88083 231.45093 C 113.45178 238.88784 113.38027 239.24538 111.59255 240.10349 C 110.59143 240.60405 108.16013 241.24763 106.15789 241.53366 C 104.22715 241.8197 101.65284 242.32026 100.43719 242.6778 C 99.29305 242.96384 96.79024 243.4644 94.93102 243.75043 C 92.07067 244.10797 91.35558 243.96496 90.06842 242.6778 C 89.21032 241.8197 86.85053 240.53254 84.84828 239.81745 C 82.77453 239.10236 76.26724 236.1705 70.2605 233.23865 C 63.75321 230.02075 58.104016 227.66097 56.03026 227.37493 C 49.52297 226.51683 44.30283 221.72574 44.30283 216.72013 C 44.30283 216.00504 43.01567 212.64413 41.51399 209.35473 C 39.940797 206.06533 38.939674 203.20498 39.22571 203.06196 C 39.440235 202.84743 40.7989 205.13571 42.08606 208.06757 C 43.373216 210.99943 44.73188 213.35922 45.089426 213.35922 C 45.87602 213.35922 45.94753 211.42848 45.160935 210.92792 C 44.80339 210.7134 43.73076 208.3536 42.729637 205.70778 C 39.86929 198.34238 39.72627 197.6273 41.084936 197.6273 C 41.657006 197.6273 42.372094 198.19936 42.58662 198.84294 C 43.516234 201.7033 45.30395 205.9223 45.94753 206.56589 C 46.805636 207.4955 46.233566 204.84968 44.37434 199.48652 C 43.58774 197.19824 43.08718 194.98147 43.301707 194.62393 C 43.73076 193.98035 45.089426 196.41165 49.52297 205.13571 Z" fill="#ff0000"/>
        </g>
        <g id="Graphic_7">
          <path d="M 227.00766 258.2667 C 228.2233 260.6265 231.08366 264.20193 233.72948 266.70474 L 238.37755 271.13828 L 234.8021 271.13828 C 230.29706 271.13828 227.93727 272.28242 222.78864 277.145 C 217.78303 281.9361 217.71152 283.15175 221.93054 292.94844 C 227.00766 304.60437 229.0814 312.9709 230.01102 325.05587 C 230.36857 329.77544 230.36857 329.91846 228.43783 330.63355 C 227.4367 330.9911 225.43447 331.34864 224.0758 331.34864 C 222.71713 331.34864 220.7864 331.8492 219.78527 332.49278 C 218.14057 333.6369 217.92605 333.6369 217.06794 332.42127 C 216.20984 331.2056 215.78079 331.2056 211.63328 332.06372 C 208.20086 332.7788 206.9852 332.85032 206.77068 332.20674 C 206.62767 331.70618 205.41202 331.34864 203.98184 331.34864 C 201.83658 331.34864 201.55055 331.1341 201.9796 329.91846 C 202.40865 328.7028 202.12262 328.4883 199.90585 328.4883 C 196.90248 328.4883 196.75946 327.9162 198.97623 325.48492 C 200.2634 324.12625 201.69356 323.5542 204.91146 323.12513 C 210.77517 322.41004 216.7104 318.7631 218.21208 314.90163 C 219.1417 312.47033 217.71152 307.53623 215.35173 305.24795 C 214.3506 304.24682 212.34837 303.2457 210.84668 303.03118 C 207.84332 302.5306 204.98297 299.8133 200.19188 293.09146 C 192.54045 282.29364 188.965 268.20642 192.75497 264.34495 C 193.47006 263.55835 195.90136 261.69912 198.04662 260.19744 C 200.19188 258.62425 202.55167 256.83653 203.26676 256.19295 C 204.26788 255.26334 206.19861 254.9773 211.8478 254.9058 C 215.78079 254.8343 219.1417 254.69127 219.28471 254.61976 C 219.35622 254.47674 220.64338 254.40523 222.14506 254.33372 C 224.79089 254.1907 225.0054 254.33372 227.00766 258.2667 Z" fill="#ff0000"/>
        </g>
        <g id="Graphic_6">
          <path d="M 123.74904 276.78747 C 125.0362 277.43105 127.39598 277.9316 128.89767 277.7886 C 131.40047 277.64557 131.68651 277.7886 131.18595 278.93273 C 130.89991 279.64782 129.39823 283.5093 127.89655 287.5853 C 124.53563 296.38086 118.45739 308.46584 114.23838 314.90163 L 111.1635 319.5497 L 104.08414 319.76422 C 99.29305 319.90724 95.78912 320.4793 93.35782 321.40892 C 88.78127 323.12513 88.70976 323.12513 89.13881 321.2659 C 89.49635 319.83573 89.35334 319.76422 86.99355 320.05026 C 84.56225 320.3363 84.49074 320.2648 84.84828 318.40555 C 85.13432 316.90387 84.91979 316.4033 83.91867 316.11727 C 82.84604 315.90275 83.20358 315.5452 85.34885 314.6156 C 88.70976 313.1139 92.07067 312.61335 92.64274 313.54296 C 93.28632 314.5441 94.50196 313.47145 94.07291 312.2558 C 93.71537 311.3262 94.28744 311.25468 97.86288 311.68373 L 102.1534 312.1843 L 106.2294 305.82 C 110.16238 299.74177 120.81718 278.28915 120.81718 276.42992 C 120.81718 275.3573 120.81718 275.3573 123.74904 276.78747 Z" fill="#ff0000"/>
        </g>
        <g id="Graphic_5">
          <path d="M 113.5948 159.65615 C 111.37803 161.44387 112.16462 162.23047 114.81045 160.8003 C 115.95459 160.22822 117.52778 159.72766 118.31437 159.72766 C 119.45851 159.72766 119.24399 160.0137 117.45627 161.15784 C 116.16911 161.94443 115.09648 162.87405 115.09648 163.3031 C 115.09648 164.23271 116.31213 164.23271 116.8842 163.3031 C 117.59929 162.08745 120.31662 162.445 119.88757 163.66064 C 119.24399 165.30534 120.67416 165.66289 121.53227 164.01819 C 122.96244 161.30086 123.60602 162.58801 122.24736 165.59138 C 121.46076 167.4506 119.88757 169.38134 118.31437 170.45397 C 116.31213 171.74113 115.95459 172.3132 116.81269 172.45622 C 118.45739 172.81376 122.96244 169.23833 122.96244 167.66513 C 122.96244 166.95005 123.74904 165.66289 124.75016 164.73327 C 126.82391 162.80254 127.03844 161.15784 125.25072 161.15784 C 124.60714 161.15784 123.60602 160.51426 123.10546 159.72766 C 121.88981 157.72542 115.95459 157.72542 113.5948 159.65615 Z" fill="#cccccc"/>
        </g>
        <g id="Graphic_4">
          <path d="M 101.50982 171.16906 C 101.50982 173.1713 99.65059 176.60373 98.29193 177.10429 C 96.50421 177.81937 97.00477 178.74899 100.72322 181.39481 C 102.65396 182.82499 104.44168 184.6127 104.72771 185.3993 C 105.29978 187.18702 106.51543 187.40155 106.51543 185.75684 C 106.51543 184.6127 103.08301 180.89425 100.43719 179.17804 C 99.43607 178.53446 99.29305 178.17692 99.93663 177.89088 C 102.08189 176.96127 104.08414 169.73889 102.22491 169.73889 C 101.86736 169.73889 101.50982 170.38247 101.50982 171.16906 Z" fill="#cccccc"/>
        </g>
      </g>
    </g>
  </g>
</svg>
