<?xml version="1.0" encoding="utf-8"?>
<svg xmlns:dc="http://purl.org/dc/elements/1.1/" xmlns="http://www.w3.org/2000/svg"
     xmlns:xl="http://www.w3.org/1999/xlink"
     xmlns:xlink="http://www.w3.org/1999/xlink"
     version="1.1"
     viewBox="33.75 62.62091 297 265.8791"
     width="297"
     height="265.8791"
     preserveAspectRatio="xMidYMid meet"
     zoomAndPan="magnify"
     contentScriptType="application/ecmascript"
     contentStyleType="text/css">
   <defs/>
   <metadata xmlns="" xmlns:svg="http://www.w3.org/2000/svg"
             xmlns:rdf="http://www.w3.org/1999/02/22-rdf-syntax-ns#"
             xmlns:cc="http://creativecommons.org/ns#">
      <rdf:RDF>
         <cc:Work rdf:about="">
            <dc:creator>
               <cc:Agent>
                  <dc:title>http://heraldicart.org Tiger's Head, Natural, Cabossed.svg</dc:title>
               </cc:Agent>
            </dc:creator>
         </cc:Work>
      </rdf:RDF>
   </metadata>
   <metadata> Produced by OmniGraffle 7.11.5 
    <dc:date>2021-04-11 22:11:55 +0000</dc:date>
  </metadata>
   <g fill-opacity="1" fill="#ffff00" stroke-dasharray="none" stroke="#505050"
      stroke-opacity="1">
      <title>Tiger's Head, Natural, Cabossed</title>
      <g>
         <title>Layer 2</title>
         <g>
            <g>
               <g  id="outline-0">
                  <path
                        d="M 103.09874 63.39074 C 101.59748 64.36982 94.41756 66.9807 85.01839 69.917945 C 80.25353 71.4192 76.20667 72.855186 76.01085 73.18155 C 75.61922 73.76899 76.66357 74.16063 80.44935 74.87862 C 82.27697 75.20498 82.73387 75.46607 82.21169 76.11879 C 81.16734 77.358955 71.311266 83.03762 68.83093 83.82089 C 65.6326 84.79997 65.95896 85.45269 69.87528 85.97486 L 73.13888 86.43177 L 70.91963 88.78156 C 69.74474 90.087 67.52549 92.69788 66.02423 94.65604 C 62.10791 99.61672 62.369 100.5958 66.742224 97.59328 C 68.11294 96.67947 69.41838 96.02675 69.54892 96.22257 C 69.74474 96.35311 69.15729 97.91964 68.24348 99.68199 C 66.87277 102.48868 63.93553 112.08367 63.93553 113.91129 C 63.93553 114.23765 64.91461 113.58493 66.154776 112.41003 L 68.374025 110.25605 L 68.76566 113.78074 C 69.61419 120.43849 69.94055 122.13556 70.46273 122.46192 C 70.78909 122.65774 71.96399 121.54811 73.204154 120.04686 L 75.35813 117.30543 L 75.68449 119.85104 C 75.88031 121.28703 75.94558 122.9841 75.74976 123.63682 C 75.61922 124.28954 72.81252 126.7046 69.54892 128.98913 C 66.28532 131.27365 61.585734 134.60252 59.040125 136.36486 C 56.55979 138.12721 51.990747 140.9339 48.92296 142.5657 C 39.52379 147.65692 39.066886 148.57073 45.528817 149.354 C 47.421705 149.54981 48.92296 149.87617 48.92296 150.07199 C 48.92296 150.2678 47.748065 151.83433 46.31208 153.5314 C 42.004127 158.6879 35.02002 171.08958 36.390733 171.08958 C 36.717093 171.08958 38.087806 170.17577 39.45852 169.13142 C 40.82923 168.0218 42.004127 167.17326 42.0694 167.17326 C 42.199943 167.17326 41.74304 168.28288 41.09032 169.58832 C 39.85015 172.26448 36.91291 183.81763 36.194917 188.84357 C 35.67274 192.10717 36.26019 195.89295 37.23927 195.89295 C 37.56563 195.89295 37.82672 195.43605 37.82672 194.91387 C 37.82672 193.86952 40.241783 188.71303 40.698687 188.71303 C 40.82923 188.71303 40.959775 191.25864 41.025047 194.3917 C 41.025047 200.78835 42.526303 211.81932 43.897016 215.73564 C 45.26773 219.65197 46.31208 219.45615 46.377353 215.344 C 46.442625 213.45112 46.63844 211.1666 46.89953 210.2528 C 47.356433 208.68627 47.421705 208.75154 48.27024 211.23188 C 49.379866 214.6913 53.10037 222.19757 54.92799 224.80846 C 55.776524 225.98335 57.01669 227.9415 57.734685 229.24695 C 62.49954 237.7976 66.67695 243.6068 67.52549 242.82353 C 67.721304 242.56245 67.59076 241.12646 67.2644 239.55993 C 66.93804 237.9934 66.67695 236.6227 66.742224 236.55742 C 66.87277 236.49215 69.679465 239.55993 73.07361 243.41098 C 82.21169 253.6587 83.51713 254.96413 87.43346 257.90137 C 90.10961 259.9248 91.08869 260.31644 91.21923 259.59844 C 91.34978 259.07627 91.08869 257.96664 90.63178 257.1181 C 90.24015 256.26957 91.93723 257.70556 94.35229 260.1859 C 96.83263 262.7315 101.14058 266.19092 103.94728 267.888 C 110.73557 272.00013 112.04101 271.93486 108.3205 267.69218 C 105.64435 264.55912 105.90544 264.1675 109.10377 266.32146 C 110.6703 267.3658 113.80335 268.8018 116.15315 269.58506 C 121.30964 271.21686 131.68789 273.5014 132.14479 273.04448 C 132.3406 272.84867 131.94898 272.13067 131.36153 271.47795 C 130.31717 270.30306 130.31717 270.30306 131.8837 270.82523 C 133.45023 271.41268 133.45023 271.54322 133.18914 278.52733 L 132.99333 285.70725 L 136.38747 289.75412 C 140.95651 295.23697 144.41593 297.78258 150.35569 300.0671 C 153.09711 301.11145 155.31636 302.09053 155.31636 302.28635 C 155.31636 302.48216 153.68456 305.1583 151.66113 308.16083 L 148.0059 313.70895 L 151.79167 317.16837 C 153.88038 319.06126 156.6218 321.14996 157.92724 321.7374 C 159.1674 322.32486 160.3423 322.9123 160.53812 323.10812 C 161.90883 324.60938 173.98416 324.47884 178.61847 322.9123 C 184.94986 320.8236 191.54233 313.31732 193.10886 306.52903 C 193.56577 304.7014 194.15321 302.8738 194.4143 302.35162 C 194.74066 301.8947 196.9599 301.11145 199.37498 300.58927 C 205.57582 299.28383 211.25448 296.41187 214.77917 292.69136 C 218.10805 289.23194 222.28546 281.92148 222.93818 278.26624 C 223.7867 273.9583 228.09467 271.67377 237.23275 270.6947 C 239.84363 270.36833 242.91142 269.38925 246.82774 267.4311 C 253.28967 264.29803 253.8771 264.6244 250.28715 269.38925 C 248.13318 272.19594 247.3499 274.28465 248.5248 274.21938 C 248.7859 274.1541 250.1566 273.5014 251.65787 272.71812 C 254.07293 271.41268 255.70473 270.1725 262.81938 264.1675 C 264.05955 263.12313 265.62608 261.23024 266.2788 259.9248 C 267.78006 257.1181 267.97587 258.68464 266.60516 262.0135 C 266.08298 263.31895 265.62608 264.88548 265.62608 265.47293 C 265.62608 266.452 265.8219 266.452 267.12734 265.2771 C 267.9106 264.55912 269.5424 263.4495 270.78257 262.79677 C 274.1767 261.0997 278.4194 256.85702 282.72735 250.78672 C 284.9466 247.71894 286.97003 244.84697 287.2964 244.5206 C 288.07966 243.67207 287.16585 246.21768 286.3173 247.3273 C 285.2077 248.7633 286.38258 248.9591 288.14493 247.5884 C 293.3014 243.54153 299.56753 232.51055 301.78678 223.69883 C 302.37423 221.34904 303.28804 218.34653 303.74494 216.97581 C 305.442 212.27623 305.9642 217.2369 304.46293 223.3072 C 304.0713 224.87373 304.0713 224.87373 305.7031 222.98084 C 308.37925 219.91305 314.05792 207.96827 315.62445 202.15906 L 316.99516 196.87203 L 318.1048 199.41764 C 318.69223 200.78835 319.14914 202.7465 319.14914 203.79086 C 319.14914 206.85865 321.3031 206.2712 323.39182 202.5507 C 326.0027 197.98165 326.2638 190.34483 324.24036 179.4444 C 322.7391 171.7423 322.7391 171.22012 323.78345 171.80757 C 324.43617 172.13393 325.21944 172.9172 325.61107 173.50465 C 326.1985 174.61427 326.32906 174.549 327.50396 173.50465 C 328.8094 172.32975 328.8094 172.26448 327.6345 167.89125 C 325.61107 160.7766 325.15416 159.8628 320.9115 155.55484 L 316.9299 151.50797 L 320.25876 151.50797 C 323.0002 151.50797 323.84872 151.24689 324.632 150.07199 C 325.67634 148.636 325.61107 148.57073 320.9115 146.28621 C 315.9508 143.87115 314.51482 142.8268 306.16 136.23432 C 301.39515 132.51381 284.16333 120.83012 283.3148 120.83012 C 283.11898 120.83012 282.27045 120.30795 281.4219 119.65523 C 280.11647 118.61087 280.0512 118.41506 280.89973 117.24016 C 281.81354 115.93472 281.8788 115.99999 283.7717 117.76234 L 285.72986 119.58995 L 287.10057 117.6318 C 287.88384 116.58744 288.86292 114.75982 289.25455 113.58493 C 290.0378 111.30041 291.08217 112.08367 290.56 114.69455 C 290.16836 116.78326 291.60434 116.71799 292.3876 114.56401 C 292.77924 113.6502 293.23614 111.30041 293.43196 109.34225 C 293.8236 105.9481 293.95414 105.88283 294.86795 107.18827 C 295.78175 108.55898 295.84703 108.55898 296.8261 106.47028 C 297.67464 104.7732 297.67464 103.8594 297.15247 101.70542 C 296.69556 100.20416 296.49975 98.89872 296.56502 98.83345 C 296.6303 98.76818 297.8052 99.02927 299.11063 99.4209 C 300.41607 99.81253 301.65624 100.00835 301.85205 99.81253 C 302.30896 99.35563 298.001 90.34809 296.56502 88.78156 C 295.52067 87.60666 295.52067 87.54139 297.02192 87.54139 C 299.50226 87.54139 300.67716 86.49704 299.82862 85.12633 C 298.9148 83.69034 292.3876 79.1213 291.08217 79.05603 C 290.36418 79.05603 290.49472 78.6644 291.60434 77.81586 C 292.3876 77.09787 293.04033 76.379875 293.04033 76.18406 C 293.04033 75.98824 291.34326 75.40079 289.31982 74.81335 C 278.35412 71.68029 274.56835 70.17903 269.15077 66.91543 C 265.8219 64.95727 262.5583 63.39074 261.8403 63.39074 C 261.18758 63.39074 258.64197 64.761455 256.29218 66.45853 C 248.39426 72.202465 241.9976 76.11879 237.16748 78.14222 C 235.20932 78.99076 235.0135 78.92548 232.27208 76.3146 C 230.70555 74.87862 228.35575 73.24682 227.11559 72.72464 C 225.87542 72.202465 224.24362 71.28866 223.5909 70.70121 C 222.6771 69.85267 222.28546 69.7874 222.08964 70.44012 C 221.89382 70.83175 221.56746 71.09284 221.2411 70.897025 C 220.98002 70.76648 219.1524 70.44012 217.2595 70.17903 C 215.30135 69.98322 211.7114 69.3305 209.16578 68.87359 C 203.55238 67.698696 172.35236 67.50288 169.48039 68.54723 C 168.43604 68.938864 165.9557 69.265224 163.93227 69.265224 C 161.90883 69.265224 155.708 69.85267 150.15987 70.570665 C 140.95651 71.81083 139.78162 72.13719 136.45274 74.16063 C 134.42931 75.40079 132.40588 76.44515 132.01425 76.44515 C 131.62262 76.44515 131.16571 76.77151 131.03517 77.16314 C 130.7088 78.07695 124.76905 75.20498 121.37491 72.528825 C 120.13474 71.549745 117.06695 69.65686 114.52135 68.28614 C 112.04101 66.91543 109.36486 65.28363 108.64686 64.63091 C 106.94979 63.129654 104.33891 62.542206 103.09874 63.39074 Z"
                        fill="black"/>
               </g>
            </g>
            <g>
               <path d="M 112.23682 68.35142 C 114.58662 69.65686 118.04603 71.81083 119.93892 73.11627 C 121.76654 74.42171 124.76905 76.18406 126.5314 77.09787 L 129.72973 78.72967 L 121.96236 85.90959 C 117.71967 89.82591 114.26026 93.28533 114.19499 93.54642 C 114.12971 94.91713 115.82679 93.61169 120.4611 88.84683 L 125.48705 83.69034 L 128.6201 86.17068 C 130.31717 87.54139 132.73224 89.95646 133.90714 91.45771 C 136.38747 94.65604 138.08455 95.70039 137.36655 93.48114 C 137.17074 92.69788 137.23601 92.11043 137.56237 92.11043 C 138.60672 92.11043 145.46028 99.94308 146.89627 102.6845 C 148.9197 106.6661 149.76824 106.60082 149.44188 102.35814 C 149.3766 101.37906 149.50715 100.5958 149.6377 100.5958 C 149.89878 100.5958 151.53058 103.27195 156.75234 112.08367 C 157.40506 113.1933 159.55904 116.13054 161.5172 118.61087 C 163.47536 121.09121 165.10716 123.50628 165.10716 123.96318 C 165.10716 124.42008 165.36825 124.6159 165.75988 124.42008 C 167.00005 123.63682 166.4126 122.39665 162.6921 117.89288 C 160.6034 115.41254 156.81762 109.73388 154.272 105.29538 C 151.7264 100.85688 149.3766 97.3322 149.05025 97.39747 C 148.72389 97.52801 148.52807 98.63763 148.59334 99.74726 C 148.78916 102.42341 148.13644 102.48868 146.5699 99.8778 C 144.87284 97.00583 137.69291 89.49955 136.64856 89.49955 C 136.12638 89.49955 135.73475 90.02173 135.73475 90.60918 C 135.73475 91.39244 135.1473 91.06608 133.77659 89.36901 C 132.73224 88.06357 130.51299 86.17068 128.94646 85.12633 L 126.0745 83.23344 L 128.22847 81.47109 C 129.46864 80.49201 130.90462 79.70875 131.4268 79.70875 C 132.01425 79.70875 132.47115 79.31712 132.47115 78.86021 C 132.47115 78.20749 134.36404 76.83678 139.19417 74.03008 C 139.97743 73.57318 140.7607 73.44263 140.95651 73.70372 C 141.15233 74.03008 142.26196 74.87862 143.43685 75.727155 C 145.06865 76.90205 146.63518 79.25184 149.31133 84.86524 C 152.9013 92.24098 152.96657 92.37152 153.3582 90.15227 L 153.74983 87.86775 L 155.83854 91.13135 C 156.94816 92.8937 158.38414 95.83094 158.9716 97.65855 C 160.40758 102.03178 161.0603 102.55396 161.90883 100.07362 C 162.30047 98.89872 162.88791 97.98491 163.21427 97.98491 C 165.2377 97.98491 168.63185 114.62928 168.24022 122.5272 C 168.10968 125.59498 168.24022 127.29205 168.69712 127.16151 C 170.78583 126.44352 168.69712 106.20919 165.75988 99.55144 C 164.25863 96.09203 163.4101 95.56985 161.9741 97.3322 C 160.79921 98.76818 160.79921 98.70291 159.29795 94.91713 C 157.27452 90.02173 154.20674 86.10541 152.77075 86.56231 C 151.98749 86.75813 151.07368 85.51796 148.9197 81.34055 C 147.09208 77.75059 145.39501 75.46607 144.08957 74.61753 C 143.04522 73.89954 142.3925 73.18155 142.71886 72.98573 C 143.04522 72.78991 146.50464 72.26774 150.35569 71.81083 L 157.40506 71.02757 L 159.1674 73.18155 C 162.36574 77.22841 166.34733 84.47361 167.78332 88.78156 C 168.56658 91.13135 169.6762 94.13387 170.19838 95.37403 L 171.17746 97.65855 L 171.96073 94.72131 L 172.67872 91.78407 L 174.3758 94.39495 C 177.44358 99.29036 178.74902 102.35814 179.53228 106.86191 C 179.98918 109.34225 180.57663 111.62677 180.83772 111.95313 C 181.0988 112.27949 181.75153 111.10459 182.2737 109.40752 C 182.7306 107.64517 183.38333 106.60082 183.64442 106.99245 C 183.84023 107.38409 184.23187 110.97405 184.49295 114.89037 C 184.68877 118.87196 185.0804 122.13556 185.27622 122.13556 C 185.7984 122.13556 189.84526 109.40752 190.36744 106.27446 C 190.62852 104.44684 190.49798 103.8594 189.77999 103.8594 C 189.062 103.8594 189.12727 102.61923 190.36744 96.48366 C 192.65196 85.32214 192.52141 82.90708 189.91053 85.25687 C 189.12727 85.97486 188.6051 86.10541 188.6051 85.6485 C 188.6051 84.34306 190.56325 75.66188 191.67288 72.33301 L 192.65196 69.265224 L 198.3959 69.265224 C 201.59422 69.265224 204.33565 69.52631 204.59674 69.917945 C 204.79255 70.244305 205.38 70.37485 205.8369 70.17903 C 206.81599 69.7874 205.44527 75.07443 202.05113 84.86524 C 200.28878 89.89118 200.54987 91.84934 202.63858 89.49955 C 207.4687 84.14725 203.0302 95.63512 196.63355 105.09957 C 195.06702 107.38409 193.82685 109.47279 193.82685 109.79915 C 193.82685 110.64769 195.39338 110.51714 196.3072 109.60333 C 197.74317 108.16735 197.09045 109.99497 195.00175 113.6502 C 193.63104 115.93472 192.84777 118.0887 192.84777 119.65523 C 192.84777 122.59247 193.43522 122.78828 194.74066 120.30795 C 195.52393 118.74142 200.15824 114.17238 203.09548 112.0184 C 206.81599 109.2117 213.93064 103.33722 214.84444 102.2276 C 216.6068 100.13889 216.3457 99.09454 214.06118 99.4209 C 212.23356 99.68199 212.42938 99.35563 217.19424 94.46023 C 220.0662 91.52298 222.6771 88.52047 223.134 87.67193 C 224.17834 85.6485 223.52562 84.79997 221.43692 85.6485 C 219.28294 86.43177 218.82604 85.97486 220.19675 84.14725 C 220.7842 83.29871 222.22018 81.14473 223.39508 79.38239 C 227.11559 73.83427 227.11559 73.83427 232.14153 78.07695 C 238.40765 83.29871 240.6269 85.45269 243.49886 89.04265 C 245.5223 91.52298 246.04447 91.91462 246.04447 90.87026 C 246.04447 90.087 244.15158 87.47612 241.41016 84.66942 C 236.25367 79.18657 236.12312 80.16565 242.32397 76.83678 C 246.37083 74.61753 254.00766 69.72213 256.9449 67.50288 C 261.3834 64.17401 261.70976 64.23928 268.43278 68.22087 C 273.78508 71.4192 279.1374 73.50791 287.68802 75.79243 C 290.56 76.51042 290.88635 77.75059 288.07966 77.75059 C 287.23112 77.75059 286.51313 78.01168 286.51313 78.40331 C 286.51313 78.72967 286.90476 79.05603 287.42693 79.05603 C 288.4713 79.05603 295.52067 82.71126 297.15247 84.14725 C 298.9148 85.71377 298.4579 86.23595 295.32485 86.23595 C 293.69305 86.23595 292.3876 86.36649 292.3876 86.56231 C 292.3876 86.75813 293.3667 87.80248 294.60686 88.84683 C 296.6303 90.67445 300.02444 97.07111 299.3717 97.7891 C 299.1759 97.91964 298.39263 97.72383 297.60937 97.3322 C 296.1081 96.54893 294.0194 96.94056 294.67213 97.91964 C 294.86795 98.246 295.25958 99.8778 295.58594 101.57488 C 296.23866 104.90375 295.39012 106.14392 294.21523 103.59831 C 293.8236 102.6845 293.1056 101.90124 292.6487 101.90124 C 291.99598 101.90124 291.86543 102.88032 292.1918 106.27446 C 292.51815 109.47279 292.3876 110.45187 291.86543 110.12551 C 291.40853 109.86442 291.08217 109.2117 291.08217 108.68953 C 291.08217 106.6661 289.25455 107.90626 288.79765 110.19078 C 288.34074 112.80166 286.1215 117.56652 285.4035 117.56652 C 285.1424 117.56652 284.09806 116.78326 283.0537 115.7389 C 281.9441 114.75982 281.03028 114.30292 280.83446 114.69455 C 280.7039 115.08618 280.18174 115.99999 279.65956 116.65271 C 278.74576 117.82761 278.74576 117.82761 277.7014 116.39163 C 276.59178 114.89037 275.41688 114.49874 275.41688 115.60836 C 275.41688 116.58744 278.4194 119.19832 281.9441 121.3523 C 291.40853 127.03096 300.28552 133.2318 308.2487 139.5632 C 311.5123 142.17407 316.4077 145.50295 319.08387 146.93893 C 321.8253 148.44019 323.52236 149.48454 322.9349 149.28872 C 322.2822 149.0929 321.76 149.28872 321.76 149.68036 C 321.76 150.33308 318.23533 150.13726 313.79683 149.15818 C 311.7734 148.70128 311.25122 149.87617 313.1441 150.46362 C 313.79683 150.65944 316.473 153.0745 319.14914 155.81593 C 323.52236 160.25442 324.1751 161.2335 325.7416 166.06363 C 326.65542 169.00088 327.3734 171.54648 327.24287 171.67703 C 327.11233 171.80757 325.48052 171.15485 323.6529 170.17577 C 319.99767 168.15234 319.2144 168.28288 320.71567 170.5674 C 322.15165 172.72138 324.3709 185.38415 324.3709 191.3239 C 324.3709 196.80676 323.58764 200.33145 321.89056 202.42015 L 320.71567 203.85614 L 319.86713 201.04944 C 318.82278 197.59002 316.6688 193.28207 316.01608 193.28207 C 315.755 193.28207 315.4939 194.71805 315.42863 196.54567 C 315.36336 198.30801 314.38428 202.48542 313.2094 205.8143 C 310.53323 213.7122 304.9851 223.89465 306.35582 218.47707 C 306.81273 216.58418 305.57256 212.73313 304.59348 213.0595 C 303.8102 213.32058 302.6353 216.38836 300.8077 223.17666 C 298.9148 230.22603 294.93322 238.64612 291.60434 242.4319 L 288.6671 245.76078 L 288.99346 241.7139 C 289.31982 237.14487 288.2102 236.10052 287.55748 240.3432 C 286.70894 245.43442 275.8085 258.94572 270.19512 261.8177 C 267.6495 263.12313 267.4537 263.12313 267.84533 262.0135 C 269.0855 258.81518 270.12985 253.6587 269.60767 253.1365 C 269.2813 252.81015 267.97587 254.44195 266.60516 256.9223 C 265.29972 259.33736 263.2763 262.0135 262.16666 262.9926 C 261.05704 263.97167 258.64197 266.06037 256.81436 267.69218 C 253.6813 270.56414 249.9608 272.7834 249.9608 271.73904 C 249.9608 271.47795 250.8746 270.10724 251.91895 268.73653 C 253.61603 266.51728 254.66038 262.4704 253.55075 262.4704 C 253.35494 262.4704 251.98423 263.25368 250.4177 264.23276 C 246.10974 267.03945 240.8227 268.9976 236.9064 269.38925 C 233.05534 269.7156 225.4185 272.00013 224.83106 272.9792 C 223.7867 274.611 223.52562 272.91394 223.85198 265.92983 L 224.17834 258.22773 L 227.24613 257.8361 C 230.8361 257.31392 238.92982 253.33233 243.49886 249.93818 C 245.2612 248.56747 246.893 247.45785 247.08882 247.45785 C 247.67627 247.45785 245.39175 250.91727 244.21686 251.83107 C 242.12815 253.52815 244.02104 253.26706 248.72063 251.24363 C 254.66038 248.69802 264.71227 242.2361 269.47713 237.92813 C 271.95747 235.70888 272.67546 235.25198 271.8922 236.49215 C 270.4562 238.7114 271.1742 238.77667 275.1558 236.94905 C 278.81103 235.1867 282.401 231.13984 287.7533 222.52394 C 291.6696 216.12728 291.9307 215.99673 290.7558 221.15322 C 290.56 222.00176 290.69054 222.65448 291.0169 222.65448 C 291.34326 222.65448 291.86543 222.00176 292.12652 221.15322 C 292.32234 220.36996 292.9098 219.26033 293.3667 218.73816 C 293.8236 218.21598 296.1734 214.16912 298.58845 209.73062 C 302.4395 202.61597 306.02946 193.08625 306.09473 189.82265 C 306.09473 188.0603 307.1391 189.03939 308.7056 192.30299 C 309.48888 193.9348 310.3374 195.24023 310.66378 195.24023 C 311.38177 195.24023 312.62194 189.88792 312.62194 186.62432 C 312.62194 185.0578 311.5776 180.09712 310.4027 175.4628 C 309.2278 170.89376 308.37925 167.17326 308.57507 167.17326 C 308.83616 167.17326 310.66378 168.34816 312.6872 169.78414 C 314.71064 171.22012 316.53826 172.1992 316.73407 172.00339 C 317.51734 171.22012 309.03197 155.81593 305.83365 152.22597 C 303.94076 150.20253 301.91732 147.7222 301.2646 146.74312 C 299.1759 143.34897 290.82108 135.05942 288.2102 133.75398 C 286.7742 133.03599 283.96752 130.75147 281.9441 128.72804 C 278.74576 125.52971 277.17923 123.04937 274.1767 116.26108 C 273.524 114.8251 273.45872 114.95564 273.78508 117.3707 C 274.1767 120.43849 277.30977 125.7908 280.965 129.64185 C 282.20517 131.01256 283.24953 132.38327 283.24953 132.64436 C 283.24953 132.97072 283.5759 133.2318 283.90225 133.2318 C 284.29388 133.2318 286.7742 135.32051 289.3851 137.86612 C 292.06125 140.477 295.06376 143.08788 295.97757 143.67533 C 299.437 145.95985 307.46545 155.81593 310.66378 161.6904 C 312.4914 164.95401 313.92738 168.0218 313.92738 168.41343 C 313.92738 168.80506 312.42612 168.08707 310.66378 166.78163 C 308.83616 165.47619 307.1391 164.62765 306.878 164.82347 C 306.6822 165.08455 307.46545 169.00088 308.7056 173.56992 C 310.99014 182.18582 311.7734 188.64775 310.8596 191.19336 C 310.3374 192.56408 310.1416 192.43353 308.37925 189.36575 C 307.26963 187.6034 306.16 186.2327 305.76837 186.29796 C 305.442 186.4285 305.05038 187.53813 304.9851 188.7783 C 304.59348 193.41261 301.78678 201.04944 297.67464 208.8168 C 293.49723 216.58418 293.3667 216.78 292.8445 214.82184 C 292.32234 212.66786 290.88635 212.47204 290.49472 214.49548 C 290.1031 216.58418 284.62024 225.98335 281.74827 229.50804 C 279.26793 232.57583 274.8947 236.3616 273.85035 236.3616 C 273.58927 236.3616 274.1767 235.1867 275.09052 233.68545 C 278.02776 229.18168 276.59178 229.5733 271.1742 234.79508 C 265.8219 240.01684 256.0311 246.80513 250.35243 249.28546 C 248.59008 250.06873 247.08882 250.72145 246.95828 250.72145 C 246.893 250.72145 247.54573 249.416 248.45954 247.71894 C 249.37335 246.08714 249.9608 244.65115 249.76498 244.45533 C 249.56916 244.25952 247.3499 245.6955 244.73903 247.65366 C 238.92982 252.09216 231.7499 255.68212 227.3114 256.4654 L 223.85198 257.05284 L 223.91726 250.78672 C 223.91726 247.3273 224.11307 244.0637 224.37416 243.54153 C 224.63525 242.95408 225.9407 242.49717 227.89885 242.36663 C 231.7499 242.10554 237.1022 239.55993 243.10723 235.12144 C 247.93736 231.59675 249.83025 230.81348 247.48046 233.29382 C 245.39175 235.51307 245.58757 236.55742 247.8721 235.57834 C 252.9633 233.3591 258.96833 227.35406 268.3675 215.1482 C 269.9993 212.92895 271.82692 210.77497 272.41437 210.31807 C 273.32818 209.5348 273.45872 209.66535 273.45872 211.29715 C 273.45872 213.2553 272.3491 216.71472 270.9784 219.19506 C 269.60767 221.61013 271.1742 220.89213 273.0671 218.21598 C 274.04617 216.91054 275.67797 214.62602 276.7876 213.19004 C 280.44283 208.29463 283.0537 204.05195 283.83697 201.57162 C 284.29388 200.26618 284.81605 199.15655 285.01187 199.15655 C 285.2077 199.15655 285.27296 201.44107 285.1424 204.1825 C 285.01187 207.185 285.1424 209.40426 285.53405 209.60007 C 286.5784 210.12225 289.6462 203.85614 290.7558 198.89546 C 292.1918 192.69462 291.9307 182.2511 290.36418 180.1624 C 288.99346 178.33478 288.73238 179.4444 289.71146 182.57746 C 291.278 187.27704 290.7558 197.52475 288.73238 202.81178 C 287.36166 206.33647 286.5784 205.61848 286.44785 200.78835 C 286.38258 194.19588 285.1424 193.9348 282.98844 200.13563 C 282.33572 201.89798 280.3123 205.74903 278.4194 208.621 L 275.09052 213.77748 L 274.76416 210.57915 L 274.4378 207.31555 L 271.6311 209.92643 C 270.06458 211.29715 267.84533 213.77748 266.7357 215.40928 C 261.31813 223.3072 250.09134 234.7298 248.91644 233.5549 C 248.72063 233.42436 249.63443 232.05365 250.93987 230.48712 C 254.46456 226.24444 254.00766 225.2001 250.02607 228.59423 C 245.7181 232.24947 237.29802 238.05868 234.94823 238.97248 C 233.70806 239.4294 232.33735 240.0821 231.94572 240.40847 C 230.77082 241.257 225.15742 241.84445 225.15742 241.0612 C 225.15742 238.9072 229.98755 230.35658 232.79425 227.54988 C 233.6428 226.70134 233.6428 226.3097 233.05534 225.91808 C 232.40262 225.59172 232.40262 225.33063 232.9248 224.939 C 233.3817 224.74318 234.42605 223.3072 235.40513 221.87121 C 237.68965 218.1507 245.5223 209.92643 246.6972 209.92643 C 247.21937 209.92643 247.54573 209.46953 247.41518 208.94735 C 247.28464 208.42518 247.02355 206.85865 246.893 205.48794 C 246.6972 204.11722 246.30556 202.87706 245.9792 202.7465 C 245.7181 202.5507 245.78338 201.31053 246.17502 200.00509 C 247.1541 196.41513 246.30556 192.9557 243.1725 188.19085 C 241.67125 185.77579 240.10472 183.29545 239.7131 182.57746 C 239.32145 181.92474 238.86455 181.66365 238.66873 181.99 C 238.40765 182.38164 239.452 184.53562 240.95325 186.82014 C 245.2612 193.54316 245.65284 194.8486 244.67376 199.41764 C 244.28213 201.63689 243.6294 203.98668 243.23778 204.70467 C 242.58505 206.07539 238.86455 210.51388 238.86455 209.9917 C 238.86455 209.7959 237.03693 211.4277 234.81768 213.58167 C 232.53316 215.67037 230.44446 217.43272 230.18337 217.43272 C 229.857 217.43272 228.74739 218.08544 227.7683 218.8687 C 225.35324 220.82686 218.10805 225.33063 217.12897 225.52645 C 216.67206 225.657 215.49717 226.04862 214.51808 226.44026 C 211.64612 227.61515 209.3616 227.35406 205.8369 225.52645 C 204.07456 224.61264 201.2026 223.11138 199.37498 222.19757 C 197.61263 221.28377 194.6754 219.65197 192.84777 218.47707 C 191.08543 217.36745 188.73564 215.99673 187.75656 215.53983 C 186.77747 215.01765 184.49295 213.0595 182.7306 211.1666 L 179.467 207.70719 L 179.40174 200.6578 C 179.33646 196.80676 179.20592 191.78081 179.14065 189.4963 C 178.94483 185.90633 179.07538 185.44943 180.185 185.44943 C 180.83772 185.44943 181.42517 185.77579 181.42517 186.10215 C 181.42517 186.49378 181.88207 186.49378 182.60007 186.03687 C 184.10132 185.12307 185.3415 181.99 184.88459 180.29294 C 184.42768 178.40005 185.66785 176.6377 188.67036 175.07117 C 191.8687 173.3741 193.36995 174.0921 193.0436 177.15988 C 192.91305 178.2695 193.17413 179.24858 193.63104 179.37913 C 195.06702 179.9013 202.96494 168.28288 202.96494 165.60673 C 202.96494 164.4971 198.8528 162.47367 193.63104 160.97242 C 189.9758 159.92806 182.01262 159.8628 180.96826 160.84187 C 180.31554 161.55987 176.9214 161.36405 175.42014 160.58078 C 172.9398 159.27534 163.47536 161.42932 154.79418 165.34564 L 151.98749 166.58581 L 154.272 169.32724 C 156.49126 172.00339 158.05778 173.831 161.38666 177.87787 C 162.95319 179.83603 163.01846 179.83603 163.4101 178.40005 C 163.67118 177.61678 164.19335 176.96406 164.58499 176.96406 C 165.0419 176.96406 164.97662 176.6377 164.45444 175.98498 C 163.80172 175.20172 163.99754 175.0059 165.4988 174.61427 C 169.28457 173.63519 173.26617 178.33478 172.67872 183.03436 L 172.41763 185.5147 L 174.76742 185.31888 C 176.9214 185.12307 177.18249 185.31888 177.24776 186.75487 C 178.29211 203.85614 178.29211 206.01011 177.05194 208.29463 C 175.87705 210.57915 175.61596 210.77497 160.3423 219.71724 C 148.72389 226.50553 144.9381 226.76662 134.16822 221.4143 C 126.13977 217.43272 122.22344 214.56075 118.76403 210.18752 C 116.93641 207.83773 116.15315 206.2712 116.15315 204.83522 C 116.21842 203.66032 117.78495 198.43856 119.67783 193.08625 C 121.57072 187.79922 122.87616 183.49127 122.5498 183.49127 C 121.89708 183.49127 121.76654 183.81763 118.1113 193.9348 C 116.61005 198.04693 115.23934 202.42015 115.04352 203.7256 C 114.8477 204.96576 114.26026 206.46702 113.80335 206.9892 C 113.34645 207.51137 112.62846 209.33899 112.17155 211.03606 L 111.32302 214.03857 L 117.52386 220.69632 C 120.918 224.35155 123.98579 227.9415 124.37742 228.72478 C 124.83432 229.44277 125.61759 230.68294 126.27031 231.40093 C 127.31466 232.70637 134.42931 243.6068 134.42931 243.93316 C 134.42931 243.99843 133.97241 244.19425 133.45023 244.39006 C 132.92806 244.65115 130.9699 243.80261 129.077 242.693 C 122.28872 238.51558 118.43767 235.83943 117.1975 234.46872 C 115.50043 232.6411 114.65189 233.42436 115.82679 235.77416 C 116.41423 236.8185 116.67532 237.66704 116.41423 237.66704 C 115.63097 237.66704 105.18745 230.48712 101.7933 227.61515 C 99.90041 225.98335 97.48535 223.37247 96.50627 221.87121 C 94.02593 218.21598 92.9163 218.21598 93.11212 221.9365 C 93.24267 225.2001 93.37321 225.2001 89.13053 219.26033 C 84.95312 213.2553 82.40751 207.64191 81.88533 203.13814 C 81.29789 198.1122 80.57989 197.00257 79.53554 199.4829 C 79.07864 200.59254 78.55646 202.7465 78.29537 204.37831 L 77.90374 207.31555 L 76.141395 201.76743 C 74.90123 197.6553 74.31378 194.19588 74.05269 188.38667 C 73.3347 173.56992 73.00834 172.06866 70.85436 175.13645 C 69.353105 177.22515 69.09202 176.37661 69.81001 172.00339 C 70.20164 169.91468 70.46273 166.45527 70.46273 164.36656 L 70.46273 160.64606 L 67.85185 161.9515 C 66.415864 162.66949 65.24097 163.06112 65.24097 162.73476 C 65.24097 162.4084 67.00331 159.66698 69.22256 156.66446 C 71.44181 153.66195 75.09704 148.24437 77.44684 144.71968 C 79.79663 141.12972 83.64768 135.64687 86.06274 132.51381 C 89.78325 127.61841 93.56903 121.87448 99.83514 111.30041 C 103.68619 104.83848 107.47197 99.94308 108.71214 99.55144 C 110.86611 98.964 111.19247 95.83094 109.62594 92.24098 C 108.25523 89.17319 106.29707 87.21503 100.35732 83.16817 L 96.96317 80.81837 L 95.33137 82.71126 C 94.41756 83.75561 93.11212 85.32214 92.52467 86.23595 L 91.41505 87.86775 L 91.41505 85.38741 C 91.34978 84.08197 91.15396 82.97235 90.95814 82.97235 C 90.76233 82.97235 89.52216 83.75561 88.21672 84.73469 L 85.80165 86.49704 L 87.69454 84.40833 C 90.69706 81.14473 88.7389 81.928 85.47529 85.32214 C 82.92969 87.93302 82.73387 88.25938 84.16985 87.86775 C 85.08366 87.60666 86.71546 86.88867 87.89036 86.17068 C 90.24015 84.86524 91.02342 85.38741 90.43597 87.93302 C 89.78325 90.34809 90.89287 89.82591 93.89539 86.23595 L 96.70208 82.90708 L 99.7046 84.66942 C 104.14309 87.21503 107.47197 90.60918 108.58159 93.8075 L 109.4954 96.6142 L 107.14561 99.09454 C 105.7749 100.46525 104.20837 102.48868 103.55565 103.53304 C 102.9682 104.64266 101.40167 107.123 100.1615 109.08116 C 98.92133 111.03932 97.68116 113.06275 97.42008 113.45438 C 97.09371 114.04183 96.57154 114.1071 95.91882 113.71547 C 95.13555 113.1933 95.33137 112.80166 96.76735 111.62677 C 97.81171 110.90878 98.46443 110.12551 98.26861 109.9297 C 98.13807 109.73388 96.24518 110.97405 94.15647 112.67112 C 90.43597 115.67363 78.49119 123.441 77.64265 123.441 C 77.38156 123.441 77.18575 122.33138 77.18575 120.96067 C 77.18575 118.02343 76.46776 115.60836 75.61922 115.60836 C 75.29286 115.60836 74.24851 116.78326 73.3347 118.21924 C 71.18072 121.48284 70.72382 120.96067 70.0711 114.30292 C 69.87528 111.62677 69.48365 109.14643 69.353105 108.88534 C 69.15729 108.55898 68.30875 109.01589 67.46022 109.79915 C 66.35059 110.8435 65.89369 110.97405 65.89369 110.32133 C 65.89369 108.55898 67.78658 103.20668 69.87528 98.964 C 71.05018 96.67947 71.83344 94.5255 71.57235 94.32968 C 71.37654 94.06859 70.005825 94.46023 68.56984 95.17822 L 65.95896 96.48366 L 68.8962 92.63261 C 70.528 90.5439 72.74725 88.19411 73.7916 87.41085 C 74.835955 86.62758 75.68449 85.77905 75.68449 85.45269 C 75.68449 85.1916 74.31378 84.93051 72.61671 84.93051 L 69.48365 84.86524 L 72.22507 83.42925 C 79.01336 79.83929 85.47529 75.46607 85.47529 74.42171 C 85.47529 74.09535 84.03931 73.83427 82.21169 73.83427 C 80.44935 73.83427 78.94809 73.63845 78.94809 73.31209 C 78.94809 73.051 81.23261 72.13719 84.03931 71.28866 C 94.48283 68.025056 100.81422 65.87108 101.46694 65.3489 C 102.64184 64.36982 105.38326 64.23928 106.6887 65.15309 C 107.4067 65.60999 109.88703 67.045976 112.23682 68.35142 Z"/>
            </g>
            <g>
               <path d="M 189.77999 69.00414 C 191.67288 69.39577 191.67288 69.46104 190.82434 71.15811 C 189.84526 73.11627 186.64693 86.43177 186.64693 88.65102 C 186.64693 90.5439 187.10384 90.5439 188.73564 88.52047 C 189.45363 87.60666 190.2369 86.88867 190.56325 86.88867 C 190.82434 86.88867 190.2369 90.93554 189.19254 95.83094 C 187.03856 106.33973 186.9733 106.73137 188.27873 106.20919 C 189.5189 105.75229 189.5189 105.88283 187.69128 111.69204 L 186.19003 116.58744 L 185.66785 112.0184 C 185.21095 107.77572 183.9055 103.20668 183.12224 103.20668 C 182.92643 103.20668 182.33898 103.98994 181.8168 104.96902 C 180.96826 106.53555 180.83772 106.60082 180.77245 105.4912 C 180.70718 102.61923 173.78834 90.15227 172.22181 90.15227 C 171.89545 90.15227 171.37328 90.80499 171.04692 91.58826 C 170.59001 92.82842 170.3942 92.56734 169.34984 89.49955 C 167.84859 84.79997 166.28206 81.73218 162.43101 75.8577 C 160.66867 73.18155 159.23268 70.9623 159.23268 70.897025 C 159.23268 70.70121 169.87202 69.7874 178.48793 69.3305 C 182.79588 69.06941 186.64693 68.80832 187.03856 68.74305 C 187.4302 68.67778 188.67036 68.80832 189.77999 69.00414 Z"/>
            </g>
            <g>
               <path d="M 219.28294 72.26774 C 221.9591 72.855186 224.56998 73.37736 225.02688 73.57318 C 225.54906 73.70372 224.24362 76.11879 221.30638 80.49201 C 218.76077 84.14725 216.93315 87.41085 217.2595 87.73721 C 217.5206 87.9983 218.56495 87.93302 219.6093 87.54139 C 220.58838 87.14976 221.56746 87.01921 221.76328 87.14976 C 222.22018 87.60666 218.76077 91.52298 214.90972 95.04767 C 211.25448 98.246 208.44779 101.77069 209.03523 102.29287 C 209.23105 102.48868 210.2754 102.16232 211.38503 101.64015 C 213.66955 100.46525 214.06118 100.39998 214.06118 101.18324 C 214.06118 101.5096 211.31976 103.92467 208.05615 106.53555 C 204.72728 109.2117 200.15824 112.93221 197.87372 114.8251 L 193.82685 118.28451 L 196.11137 113.97656 C 198.5917 109.27697 199.11389 106.73137 197.35154 107.38409 C 196.24192 107.77572 196.37246 107.5799 199.04862 103.53304 C 203.22602 97.3322 206.94653 87.80248 205.70636 86.56231 C 205.51055 86.36649 204.59674 86.69285 203.7482 87.2803 C 202.18167 88.32466 202.1164 88.25938 202.50803 87.14976 C 202.70385 86.43177 203.87875 82.84181 205.05364 79.05603 C 206.22854 75.27025 207.4687 71.81083 207.79507 71.35393 C 208.38251 70.37485 210.86285 70.570665 219.28294 72.26774 Z"/>
            </g>
            <g>
               <path d="M 91.67614 118.74142 C 86.19329 126.7046 75.815035 136.69122 67.46022 142.17407 C 62.04264 145.6335 57.4736 149.15818 57.408325 149.68036 C 57.408325 150.39835 60.933014 150.33308 62.95645 149.54981 C 64.522975 148.96236 64.65352 149.02764 64.196615 150.33308 C 63.93553 151.18161 62.8259 153.0745 61.71628 154.57576 C 60.606654 156.07702 57.86523 159.73225 55.64598 162.73476 C 51.14221 168.80506 46.834257 175.7239 47.29116 176.1808 C 47.682793 176.57243 50.75058 174.61427 52.96983 172.52557 L 54.73217 170.89376 L 54.144724 173.11301 C 53.818363 174.35318 53.10037 178.79168 52.51292 183.03436 C 51.46857 191.3239 51.990747 198.17747 53.94891 201.96325 C 54.92799 203.9214 56.102884 203.79086 56.102884 201.63689 C 56.102884 200.07036 59.30121 192.62935 60.019206 192.62935 C 60.280294 192.62935 60.54138 194.32642 60.606654 196.34985 C 60.671926 201.24526 61.12883 203.52978 63.08699 210.2528 C 64.65352 215.8662 67.78658 222.65448 68.700385 222.65448 C 68.96147 222.65448 69.15729 221.6754 69.15729 220.43523 C 69.15729 216.97581 70.0711 217.10636 72.09453 220.89213 C 75.29286 226.89716 78.55646 232.11892 79.60081 232.9022 C 81.42843 234.33817 82.14642 233.94654 81.55897 231.79256 C 80.645165 228.59423 81.36316 229.50804 83.84349 234.66453 C 85.41002 237.92813 87.75982 241.19173 90.76233 244.45533 C 96.70208 250.78672 98.39916 250.98254 96.11463 245.10806 C 95.723 244.0637 95.91882 244.0637 97.61589 245.36914 C 101.3364 248.2411 111.97574 255.09467 113.34645 255.55158 C 115.17407 256.13903 115.76151 254.37668 114.45607 252.28798 C 113.86862 251.43944 113.54226 250.72145 113.73808 250.72145 C 113.86862 250.72145 117.26277 252.35325 121.17909 254.3114 C 130.31717 258.88045 132.07952 259.011 129.40337 254.7683 C 128.35901 253.2018 128.55483 253.26706 131.10044 255.42103 C 135.53894 259.14154 135.93057 260.05535 135.4084 264.29803 C 134.75567 270.04197 134.62513 270.30306 132.6017 269.7156 C 131.62262 269.38925 129.59918 268.5407 128.09793 267.82272 C 124.57324 265.9951 124.05106 266.7131 127.11885 269.38925 C 129.795 271.73904 129.99081 271.73904 122.02763 269.91142 C 116.08787 268.5407 113.67281 267.56163 108.90795 264.68966 C 103.55565 261.42606 102.18493 261.8177 105.44853 265.734 C 106.42761 266.84364 107.08033 267.888 106.94979 268.01854 C 106.2318 268.67126 97.48535 261.94824 93.89539 257.90137 C 91.61086 255.42103 89.52216 253.33233 89.1958 253.33233 C 88.86944 253.33233 88.80417 254.37668 89.06526 255.68212 L 89.45689 258.03192 L 86.58492 255.68212 C 82.6686 252.4838 71.24599 240.0821 68.4393 236.03524 L 66.22005 232.77164 L 66.02423 236.29633 L 65.828416 239.82102 L 64.13134 237.34068 C 57.734685 227.9415 51.599115 216.97581 49.24932 210.97079 C 48.27024 208.42518 47.29116 206.33647 47.030073 206.33647 C 46.768985 206.33647 46.116265 208.03355 45.65936 210.05698 L 44.810824 213.84276 L 43.96229 211.03606 C 42.65685 206.7281 41.938855 198.8302 42.13467 191.65027 L 42.330487 185.12307 L 41.025047 186.8854 C 40.307055 187.79922 39.13216 189.30048 38.414166 190.14901 L 37.108726 191.65027 L 37.435086 188.38667 C 38.21835 181.99 41.547223 170.43686 43.505384 167.3038 C 44.94137 165.01928 44.02756 164.82347 41.09032 166.78163 C 39.654334 167.69544 38.47944 168.28288 38.47944 168.0218 C 38.47944 167.17326 44.94137 156.66446 47.22589 153.85777 C 48.400786 152.35651 49.90204 150.39835 50.55476 149.41927 L 51.664387 147.59165 L 47.81334 147.98328 C 41.938855 148.636 42.199943 147.4611 48.727146 143.93642 C 51.925475 142.23935 59.49703 137.27867 65.69787 132.97072 C 71.83344 128.5975 80.38408 122.91883 84.7573 120.24267 C 89.06526 117.6318 92.98158 115.08618 93.37321 114.56401 C 93.76484 114.04183 94.35229 113.6502 94.67865 113.6502 C 94.93974 113.6502 93.6343 115.93472 91.67614 118.74142 Z"/>
            </g>
            <g>
               <path d="M 95.78827 116.06527 C 95.20083 116.71799 93.37321 119.65523 91.74141 122.65774 C 90.04434 125.66025 88.15145 128.5975 87.564 129.25021 C 84.95312 132.05691 78.36064 140.99918 76.40248 144.4586 C 75.29286 146.48203 72.29035 150.85525 69.81001 154.11885 C 65.69787 159.40589 63.28281 163.19167 63.28281 164.23602 C 63.28281 164.95401 66.35059 164.4971 67.721304 163.51803 C 68.56984 162.93058 69.41838 162.60422 69.61419 162.8653 C 69.81001 163.06112 69.61419 165.60673 69.15729 168.60924 C 67.91712 176.8988 67.85185 179.57494 68.76566 179.57494 C 69.22256 179.57494 70.005825 178.85695 70.46273 177.94314 C 71.76817 175.52808 72.42089 175.9197 72.42089 179.05277 C 72.48616 180.6193 72.74725 185.64524 73.07361 190.34483 C 73.530515 197.32893 73.98742 199.93981 75.815035 205.03103 C 76.98993 208.42518 78.2301 211.6235 78.55646 212.0804 C 79.53554 213.64694 80.25353 211.94987 79.60081 209.60007 C 78.88282 207.11974 79.47027 200.33145 80.25353 201.8327 C 80.51462 202.35488 80.90625 203.9214 81.16734 205.42266 C 81.88533 210.4486 86.65019 218.67289 93.17739 226.24444 C 96.441 230.0955 97.61589 230.03022 95.59246 226.17917 C 94.67865 224.4821 93.96066 222.78502 93.96066 222.32812 C 93.96066 221.9365 96.31045 223.82938 99.11715 226.63607 C 101.98912 229.3775 105.90544 232.57583 107.8636 233.68545 C 109.82176 234.79508 111.77992 236.1658 112.3021 236.75324 C 113.02009 237.60177 116.93641 239.6252 117.91549 239.6252 C 118.1113 239.6252 118.1113 239.03776 117.91549 238.31976 C 117.71967 237.60177 117.71967 237.01432 117.85022 237.01432 C 118.8293 237.01432 134.16822 247.71894 134.49458 248.63274 C 134.6904 249.2202 135.1473 251.5047 135.4084 253.6587 L 135.8653 257.50974 L 133.64605 255.7474 C 132.47115 254.7683 130.51299 253.2018 129.3381 252.28798 C 126.72721 250.134 126.00922 250.65618 127.4452 253.6587 C 128.03265 254.89886 128.42429 255.9432 128.22847 255.9432 C 127.31466 255.9432 121.04855 253.07124 116.87114 250.78672 C 114.19499 249.28546 111.91046 248.2411 111.71465 248.43693 C 111.51883 248.63274 111.84519 249.8729 112.49791 251.11308 C 113.08536 252.41852 113.47699 253.6587 113.28118 253.78923 C 112.95482 254.18087 102.64184 247.5884 97.74644 243.8679 C 96.11463 242.62772 94.54811 241.58337 94.28702 241.58337 C 94.02593 241.58337 94.02593 242.49717 94.28702 243.54153 C 94.54811 244.71642 94.41756 245.4997 94.0912 245.4997 C 92.39413 245.4997 87.30291 238.9072 84.43094 232.96746 C 81.16734 226.37498 79.07864 224.4821 79.8619 228.85532 C 80.12299 230.0955 80.18826 231.13984 79.992445 231.13984 C 79.27445 231.13984 74.183235 222.98084 71.89871 218.21598 L 69.54892 213.19004 L 68.96147 215.47456 C 67.85185 219.71724 67.85185 219.71724 66.742224 217.6938 C 64.4577 213.38585 61.84682 202.7465 61.52046 196.0235 L 61.12883 189.2352 L 59.62757 191.1281 C 58.77904 192.10717 58.12632 193.15152 58.061045 193.34734 C 58.061045 193.60843 57.27778 195.50132 56.2987 197.59002 C 54.6669 201.17998 54.536356 201.24526 53.94891 199.744 C 52.251835 195.5666 53.62255 177.29042 56.102884 170.8285 C 57.14724 167.95652 56.429244 168.0218 53.165643 171.0243 C 48.27024 175.52808 48.5966 174.35318 54.797444 165.86782 C 59.43176 159.47116 66.54641 148.50546 66.54641 147.65692 C 66.54641 147.13475 65.89369 147.2653 64.522975 147.91801 C 63.41335 148.50546 61.97737 148.8971 61.259374 148.76655 C 60.280294 148.636 61.585734 147.4611 66.02423 144.52387 C 76.40248 137.53976 86.25856 128.14059 92.4594 119.32887 C 94.48283 116.52217 96.24518 114.36819 96.441 114.56401 C 96.63681 114.75982 96.31045 115.47782 95.78827 116.06527 Z"/>
            </g>
            <g>
               <path d="M 196.63355 163.64857 C 198.8528 164.56238 200.9415 165.54146 201.2026 165.80255 C 201.46368 166.06363 200.15824 168.60924 198.33062 171.48121 C 195.1323 176.37661 194.93648 176.57243 194.34903 175.0059 C 193.56577 172.9172 192.71723 172.39502 189.84526 172.39502 C 186.64693 172.39502 183.64442 175.65862 183.05697 179.9013 C 182.79588 181.5331 183.56042 183.96042 178.3125 183.9375 C 173.06458 183.91458 176.0076 183.36072 174.24525 179.50967 C 171.43855 173.63519 166.54315 170.89376 162.56155 172.98247 C 161.71302 173.50465 160.73394 172.9172 157.92724 170.37159 C 156.03435 168.60924 154.59837 167.04272 154.72891 166.91217 C 155.708 166.06363 163.73958 163.31307 168.1875 162 C 171.37083 161.17083 175.13912 162.69304 177.75 162.5625 C 180.36088 162.36668 183.05697 162.34313 184.68877 162.01677 C 188.6051 161.16823 191.80342 161.62514 196.63355 163.64857 Z"/>
            </g>
            <g>
               <path d="M 245.39175 207.185 C 245.39175 208.1641 243.95577 210.05698 241.41016 212.53732 C 238.2771 215.6051 237.49384 216.12728 237.88547 214.82184 C 238.40765 213.12476 244.02104 205.8143 244.93485 205.74903 C 245.19594 205.68375 245.39175 206.33647 245.39175 207.185 Z"/>
            </g>
            <g>
               <path d="M 119.09039 214.6913 C 119.15566 215.99673 120.0042 218.73816 121.04855 220.69632 C 123.20252 224.87373 122.41926 224.41682 116.67532 217.9549 C 113.15063 213.9733 112.759 213.2553 113.41172 212.01514 C 113.80335 211.23188 114.32553 209.86116 114.52135 209.01263 C 114.97825 207.51137 114.97825 207.51137 116.93641 209.92643 C 118.24185 211.49296 118.95984 213.12476 119.09039 214.6913 Z"/>
            </g>
            <g>
               <path d="M 182.66534 212.86368 C 185.86367 215.73564 196.63355 222.52394 201.13732 224.41682 C 203.2913 225.3959 203.94402 228.2026 203.42184 234.0118 C 203.0302 238.12395 200.68042 245.4997 199.7666 245.4997 C 199.50552 245.4997 198.72226 244.91224 198.06953 244.19425 C 196.3072 242.2361 195.00175 242.49717 195.78501 244.58588 C 196.17665 245.4997 196.43773 247.1315 196.43773 248.30638 L 196.43773 250.32982 L 194.6754 248.63274 C 191.21597 245.36914 187.8871 243.93316 183.77496 243.93316 C 180.185 243.8679 179.85864 243.99843 177.8352 246.34822 C 175.87705 248.56747 174.24525 249.48128 174.24525 248.2411 C 174.17997 247.00094 170.65529 245.43442 167.5875 245.17333 C 164.3239 244.9775 164.06281 245.10806 161.45193 247.65366 C 158.51469 250.65618 156.68707 255.35576 156.55653 260.12062 C 156.55653 262.5357 156.49126 262.60096 155.9038 261.23024 C 154.85946 258.61936 155.12054 249.6771 156.36071 245.76078 C 156.94816 243.80261 157.27452 242.04027 157.01343 241.77918 C 156.81762 241.5181 155.57745 242.36663 154.33728 243.54153 C 153.09711 244.71642 151.85694 245.4997 151.59585 245.2386 C 151.33477 244.9775 151.13895 241.77918 151.13895 238.12395 C 151.13895 232.70637 151.46531 230.81348 152.57493 228.2026 C 154.0762 224.80846 154.01092 224.87373 164.12808 219.1298 C 173.46198 213.84276 176.26868 212.0804 176.85613 210.90551 C 177.90048 209.01263 178.74902 209.27371 182.66534 212.86368 Z"/>
            </g>
            <g>
               <path d="M 124.76905 219.26033 C 124.63851 219.71724 124.31215 220.7616 124.05106 221.54485 C 123.52888 222.8503 123.39834 222.78502 122.22344 220.36996 C 121.50545 218.93397 120.72219 216.78 120.4611 215.53983 L 120.06947 213.32058 L 122.48453 215.80092 C 123.85524 217.2369 124.8996 218.73816 124.76905 219.26033 Z"/>
            </g>
            <g>
               <path d="M 236.44948 215.40928 C 236.25367 216.12728 234.88296 218.1507 233.31643 219.97833 C 230.50973 223.24193 230.50973 223.24193 230.1181 221.54485 C 229.59592 219.65197 230.70555 218.1507 234.2955 215.73564 C 235.53568 214.95238 236.6453 214.2344 236.71057 214.2344 C 236.71057 214.16912 236.6453 214.75656 236.44948 215.40928 Z"/>
            </g>
            <g>
               <path d="M 127.57575 221.80594 C 128.29374 224.74318 132.14479 232.70637 133.31969 233.68545 C 134.55986 234.66453 134.49458 234.7298 135.73475 229.96495 C 136.51802 226.96243 137.36655 226.44026 137.954 228.72478 C 138.28036 230.03022 143.37158 237.40596 146.831 241.45282 C 147.54899 242.30136 148.13644 243.21517 148.13644 243.47625 C 148.13644 243.73734 148.85443 244.39006 149.76824 244.84697 C 151.79167 245.89132 151.79167 246.08714 149.83351 249.93818 C 148.98497 251.63526 147.7448 255.2905 147.09208 258.0972 C 146.3741 260.8386 145.6561 263.12313 145.46028 263.12313 C 145.1992 263.12313 144.87284 262.20933 144.61175 261.0997 C 144.0243 258.22773 138.08455 246.4135 135.1473 242.2361 C 133.71132 240.27793 130.77408 235.9047 128.6201 232.51055 C 124.83432 226.63607 124.63851 226.17917 125.03014 223.37247 C 125.22596 221.74067 125.55232 220.17414 125.74813 219.84778 C 126.27031 218.99925 127.05357 219.91305 127.57575 221.80594 Z"/>
            </g>
            <g>
               <path d="M 136.38747 224.80846 C 136.38747 225.13482 136.06111 225.13482 135.60421 224.87373 C 135.1473 224.61264 135.08203 224.6779 135.34312 225.13482 C 135.60421 225.52645 135.34312 226.89716 134.82094 228.13733 C 134.29877 229.3775 134.03768 230.5524 134.29877 230.7482 C 134.49458 230.94403 134.36404 231.13984 133.97241 231.13984 C 132.99333 231.13984 131.55734 228.79005 129.99081 224.41682 C 129.20755 222.32812 128.55483 220.56577 128.55483 220.43523 C 128.55483 220.30469 130.31717 221.15322 132.47115 222.26285 C 134.62513 223.37247 136.38747 224.54737 136.38747 224.80846 Z"/>
            </g>
            <g>
               <path d="M 234.36078 221.15322 C 234.03442 221.80594 232.53316 223.95992 231.09718 225.91808 C 229.6612 227.87624 227.63776 230.68294 226.5934 232.11892 C 223.5909 236.1658 216.3457 250.5909 214.84444 255.2905 C 212.6252 262.40514 211.12394 265.2771 207.9256 268.8018 C 204.662 272.39176 202.50803 273.4361 197.74317 273.6972 C 194.21849 273.9583 193.63104 272.71812 196.0461 270.10724 C 196.9599 269.12816 198.00426 267.23527 198.33062 265.86456 C 199.24443 262.66623 199.24443 250.00346 198.33062 247.65366 L 197.6779 245.82605 L 199.89715 248.0453 C 202.76912 250.78672 207.07707 260.70807 207.14235 264.75493 C 207.20762 266.38673 207.4687 267.56163 207.86034 267.4311 C 209.75323 266.77837 206.22854 254.5725 202.50803 248.82856 C 201.59422 247.3273 201.59422 247.19676 202.70385 246.4135 C 208.6436 242.30136 211.25448 239.36412 214.84444 232.51055 L 216.08461 230.16076 L 215.75825 233.88127 C 215.6277 235.96997 215.75825 237.66704 216.01934 237.66704 C 217.78169 237.66704 225.15742 225.8528 225.15742 223.11138 C 225.15742 222.1323 227.70303 220.43523 228.29048 221.02268 C 228.55157 221.28377 228.68211 222.91557 228.61684 224.6779 C 228.61684 226.44026 228.61684 227.87624 228.74739 227.87624 C 228.87793 227.87624 230.24864 226.1139 231.7499 223.95992 C 234.42605 220.17414 235.66622 218.8687 234.36078 221.15322 Z"/>
            </g>
            <g>
               <path d="M 222.93818 225.72226 C 222.54654 227.35406 218.17332 234.40344 217.58587 234.40344 C 217.45533 234.40344 217.32478 232.83691 217.32478 230.87875 C 217.32478 227.61515 217.45533 227.2888 219.80512 225.72226 C 222.93818 223.5683 223.46035 223.5683 222.93818 225.72226 Z"/>
            </g>
            <g>
               <path d="M 145.59083 226.5708 C 148.20171 226.5708 149.44188 226.8319 149.44188 227.35406 C 149.44188 227.81097 149.76824 227.68042 150.15987 227.0277 C 151.40004 224.939 151.98749 225.91808 150.94313 228.33315 C 150.35569 229.8344 149.89878 232.9022 149.83351 236.10052 C 149.76824 240.99592 149.70297 241.38755 148.59334 240.8001 C 146.113 239.49466 138.34563 228.26787 138.34563 225.98335 C 138.34563 225.52645 138.93308 225.52645 140.0427 225.91808 C 140.95651 226.3097 143.43685 226.5708 145.59083 226.5708 Z"/>
            </g>
            <g>
               <path d="M 210.79758 228.33315 C 212.95156 228.52896 214.7139 228.98587 214.7139 229.31223 C 214.7139 232.44528 205.18419 244.84697 202.8344 244.84697 C 201.85531 244.84697 201.92058 244.45533 203.09548 241.0612 C 203.81347 239.03776 204.59674 234.92562 204.79255 231.9231 C 205.05364 227.61515 205.24946 226.70134 205.96745 227.2888 C 206.42435 227.68042 208.57833 228.13733 210.79758 228.33315 Z"/>
            </g>
            <g>
               <path d="M 223.46035 242.1708 C 222.8729 244.65115 222.54654 249.61182 222.54654 258.48882 C 222.54654 275.98172 222.28546 278.07043 219.1524 284.07545 C 216.3457 289.2972 213.73482 292.6261 210.47122 294.84534 C 207.66452 296.73823 201.85531 298.95747 198.26535 299.41438 L 195.26284 299.806 L 195.19757 289.94994 C 195.19757 284.53236 195.00175 279.11478 194.80593 277.93988 L 194.34903 275.72063 L 198.06953 275.26373 C 202.18167 274.80683 204.33565 273.82775 207.53398 271.21686 C 210.5365 268.67126 212.29884 265.60347 215.04026 257.90137 C 216.99842 252.41852 223.85198 238.05868 224.3089 238.51558 C 224.37416 238.58085 223.98253 240.21265 223.46035 242.1708 Z"/>
            </g>
            <g>
               <path d="M 150.42096 244.0637 C 150.22514 244.25952 149.70297 244.0637 149.24606 243.6068 C 148.65861 242.95408 148.72389 242.8888 149.6377 243.28044 C 150.29041 243.47625 150.61677 243.8679 150.42096 244.0637 Z"/>
            </g>
            <g>
               <path d="M 188.73564 246.4135 C 190.88961 247.3273 193.2394 249.15492 195.00175 251.0478 C 197.61263 254.05032 197.74317 254.44195 197.74317 258.293 C 197.74317 263.9064 197.15573 266.51728 195.71974 266.84364 C 193.6963 267.3658 193.43522 270.56414 193.76158 288.57922 C 194.08794 303.5918 192.3256 309.2052 184.75404 317.49473 C 181.22935 321.2805 177.57412 322.4554 168.37076 322.58595 C 164.25863 322.6512 162.75737 322.39013 159.82013 321.0194 C 155.05527 318.7349 150.68205 314.94912 151.20422 313.5784 C 151.46531 312.8604 151.40004 312.6646 150.87786 312.99096 C 149.57242 313.77422 150.02933 312.6646 152.24857 309.53154 C 158.90632 300.19764 161.5172 291.05956 160.53812 280.74658 C 160.27703 278.07043 160.21176 275.5901 160.3423 275.26373 C 160.53812 275.00264 160.40758 274.54574 159.95067 274.28465 C 159.55904 274.02356 159.10214 272.7834 158.9716 271.54322 C 158.77578 270.36833 158.64523 269.32398 158.57996 269.32398 C 158.31887 269.32398 157.99251 265.60347 157.92724 261.88297 C 157.86197 256.98756 159.29795 251.7658 161.38666 249.15492 C 163.34482 246.73986 168.95821 245.63023 171.37328 247.26203 C 173.85361 248.89383 174.31052 250.19927 173.26617 253.07124 C 172.28709 255.7474 172.026 261.62188 172.67872 265.01602 C 173.46198 268.67126 174.17997 267.10473 173.85361 262.60096 C 173.26617 255.4863 176.98667 246.73986 181.0988 245.56496 C 184.1666 244.65115 185.0804 244.71642 188.73564 246.4135 Z"/>
            </g>
            <g>
               <path d="M 138.54145 250.26454 C 141.54396 255.7474 144.0243 262.07878 144.61175 266.06037 C 145.1992 270.36833 147.2879 272.19594 153.55402 274.1541 C 156.36071 275.0679 158.7105 276.17754 158.90632 276.765 C 160.47285 280.87712 159.29795 294.4537 156.94816 299.02275 L 155.96908 300.9809 L 152.70548 299.67547 C 145.91719 296.9993 144.67702 296.3466 142.32723 294.38843 C 138.4109 290.9943 135.1473 286.68633 134.42931 283.87964 C 133.84186 281.8562 133.97241 279.5064 135.01676 272.71812 C 137.0402 259.79426 137.17074 256.79175 136.19166 250.91727 C 135.73475 247.98002 135.53894 245.6955 135.80002 245.89132 C 136.06111 246.02186 137.30128 247.98002 138.54145 250.26454 Z"/>
            </g>
            <g>
               <path d="M 154.40255 254.18087 C 154.5331 259.66372 154.85946 262.66623 155.96908 266.06037 C 156.75234 268.5407 157.5356 271.47795 157.73142 272.5223 C 158.12306 274.611 158.12306 274.611 151.79167 272.19594 C 147.02681 270.4336 146.30882 269.5198 146.63518 265.86456 C 147.09208 261.3608 149.83351 253.26706 152.11803 249.80764 C 153.22765 248.17584 154.20674 246.80513 154.20674 246.80513 C 154.272 246.80513 154.40255 250.134 154.40255 254.18087 Z"/>
            </g>
            <g>
               <g  id="outline-1">
                  <path
                        d="M 267.12734 84.73469 C 266.67043 84.93051 266.2788 85.77905 266.2788 86.69285 C 266.2788 88.06357 266.08298 88.19411 265.365 87.60666 C 264.8428 87.14976 263.53737 86.56231 262.42775 86.23595 C 260.53486 85.71377 260.2085 85.90959 256.488 90.02173 C 254.33402 92.43679 252.57167 94.78659 252.57167 95.37403 C 252.57167 95.89621 253.55075 95.17822 254.66038 93.74223 C 260.14323 87.01921 261.5792 86.36649 264.8428 89.17319 C 266.9968 91.00081 267.58424 90.73972 267.58424 87.93302 L 267.6495 85.90959 L 269.2813 87.86775 C 270.9131 89.89118 272.3491 92.63261 273.13236 95.24349 C 273.7198 97.20165 274.76416 96.41839 274.76416 94.00332 C 274.76416 91.65353 275.3516 91.58826 277.5056 93.87278 C 279.98592 96.54893 281.48718 99.8778 281.48718 102.6845 C 281.48718 105.16484 282.1399 105.9481 282.79262 104.25103 C 283.90225 101.44433 280.44283 94.06859 276.7876 91.52298 C 275.02525 90.28282 274.76416 90.21754 274.242 91.19662 C 273.78508 92.04516 273.2629 91.65353 271.56583 88.97738 C 269.15077 85.1916 268.23696 84.34306 267.12734 84.73469 Z"
                        fill="black"/>
               </g>
            </g>
            <g>
               <g  id="outline-2">
                  <path
                        d="M 222.54654 103.53304 C 222.08964 104.05521 221.37165 104.51212 220.91474 104.51212 C 218.30386 104.51212 212.69047 112.14894 207.86034 122.46192 C 206.22854 125.92134 204.9231 128.98913 204.9231 129.31549 C 204.9231 129.57657 203.68293 131.20837 202.1164 132.90545 C 199.63606 135.51633 198.98334 135.90796 197.02518 135.64687 C 195.78501 135.51633 194.4143 135.18997 193.9574 134.92888 C 193.5005 134.66779 193.17413 134.8636 193.17413 135.45106 C 193.17413 137.80085 197.61263 138.51884 200.4846 136.62595 C 203.22602 134.79834 204.85783 132.318 208.1867 124.81172 C 209.88377 120.8954 212.49465 115.99999 213.9959 113.91129 C 217.12897 109.47279 223.39508 103.8594 225.15742 103.8594 C 225.81014 103.8594 226.5934 103.53304 226.78923 103.20668 C 227.44195 102.16232 223.46035 102.42341 222.54654 103.53304 Z"
                        fill="black"/>
               </g>
            </g>
            <g>
               <g  id="outline-3">
                  <path
                        d="M 130.51299 111.03932 C 130.51299 111.36568 131.8837 111.69204 133.64605 111.69204 C 138.28036 111.69204 141.15233 112.73639 144.35066 115.60836 C 147.54899 118.41506 153.88038 127.48787 156.68707 133.29708 C 159.03687 138.12721 161.12557 139.75901 165.0419 139.69374 C 170.06784 139.62847 171.17746 138.71466 166.8695 138.25775 C 161.45193 137.60503 160.21176 136.82177 157.86197 132.318 C 152.50966 122.20084 146.04773 114.30292 141.02179 111.75731 C 138.21509 110.32133 130.51299 109.79915 130.51299 111.03932 Z"
                        fill="black"/>
               </g>
            </g>
            <g>
               <g  id="outline-4">
                  <path
                        d="M 247.08882 115.7389 C 241.93233 117.82761 241.0838 118.41506 236.31894 122.91883 C 227.83358 131.01256 221.698 141.97826 221.698 148.8971 C 221.698 151.31216 222.22018 151.8996 223.52562 150.85525 C 224.0478 150.39835 224.89634 150.20253 225.48378 150.39835 C 226.00596 150.65944 226.65868 150.46362 226.91977 150.00672 C 227.24613 149.54981 228.68211 148.50546 230.24864 147.7222 C 232.59844 146.41676 233.57752 146.22094 236.25367 146.61257 C 240.30053 147.20002 245.00012 145.17659 246.63192 142.17407 C 247.21937 141.06445 248.13318 139.75901 248.65535 139.17156 C 250.28715 137.40922 250.80933 128.66277 249.6997 123.31046 C 249.17753 121.02594 249.2428 120.8954 251.00515 120.43849 C 252.0495 120.1774 253.2244 119.7205 253.6813 119.39414 C 254.07293 119.06778 255.83528 118.5456 257.59762 118.34979 C 260.53486 117.89288 260.73068 117.76234 260.73068 115.93472 L 260.73068 113.97656 L 256.0311 113.97656 C 252.44113 113.97656 250.35243 114.36819 247.08882 115.7389 Z"
                        fill="black"/>
               </g>
            </g>
            <g>
               <path d="M 248.329 124.09372 C 248.59008 125.46444 248.59008 127.22678 248.329 128.01005 C 248.0679 128.72804 248.19845 129.31549 248.59008 129.31549 C 248.9817 129.31549 249.30807 129.77239 249.30807 130.29457 C 249.30807 130.81674 249.047 131.27365 248.72063 131.27365 C 248.39426 131.27365 247.8721 132.90545 247.67627 134.8636 C 247.1541 138.8452 244.47794 143.21843 241.8018 144.4586 C 238.21183 146.0904 231.0319 141.12972 231.0319 136.95231 C 231.0319 133.75398 243.56414 122.00502 247.48046 121.54811 C 247.67627 121.48284 248.0679 122.65774 248.329 124.09372 Z"/>
            </g>
            <g>
               <path d="M 235.60095 127.55314 C 235.60095 127.68369 234.81768 128.46695 233.8386 129.38076 L 232.011 130.94729 L 233.57752 129.11967 C 235.07877 127.48787 235.60095 127.03096 235.60095 127.55314 Z"/>
            </g>
            <g>
               <g  id="outline-5">
                  <path
                        d="M 271.6311 119.32887 C 272.15328 124.74644 276.3307 133.42762 281.81354 140.28119 C 284.29388 143.41424 288.27547 148.8971 290.7558 152.48705 C 293.23614 156.07702 295.78175 159.66698 296.49975 160.45024 L 297.8052 161.9515 L 296.23866 161.9515 C 295.39012 161.88623 293.04033 161.36405 291.08217 160.64606 C 289.124 159.99334 287.36166 159.53643 287.23112 159.73225 C 287.0353 159.8628 287.68802 160.84187 288.6671 161.82095 C 289.5809 162.80003 290.95162 164.95401 291.7349 166.65108 C 293.23614 170.04523 295.84703 185.44943 295.06376 186.29796 C 294.7374 186.55905 294.0194 186.03687 293.43196 185.12307 C 292.77924 184.14399 292.12652 183.49127 291.99598 183.68708 C 291.4738 184.14399 295.1943 189.36575 295.78175 188.97412 C 296.49975 188.5172 296.43447 184.01344 295.6512 177.8126 C 294.7374 170.76322 293.8236 167.3038 291.9307 164.0402 C 290.49472 161.4946 290.42945 161.2335 291.4738 161.4946 C 292.1918 161.6904 293.95414 162.21259 295.52067 162.66949 C 299.50226 163.84439 300.0897 162.8653 297.41355 159.27534 C 296.1734 157.70882 292.9098 153.20505 290.1031 149.28872 C 287.2964 145.3724 283.5106 140.41173 281.81354 138.19248 C 277.37504 132.64436 273.39345 124.28954 273.00182 119.45941 C 272.806 117.30543 272.3491 115.60836 271.95747 115.60836 C 271.56583 115.60836 271.4353 117.04435 271.6311 119.32887 Z"
                        fill="black"/>
               </g>
            </g>
            <g>
               <g  id="outline-6">
                  <path
                        d="M 104.79581 119.65523 C 104.20837 120.43849 103.75146 121.28703 103.75146 121.54811 C 103.75146 122.2661 106.75397 124.02845 108.71214 124.42008 L 110.60502 124.81172 L 108.84268 123.76736 C 105.84017 122.07029 106.75397 121.41757 109.9523 122.91883 C 112.759 124.28954 114.06444 125.7908 111.77992 124.94226 C 110.73557 124.6159 110.73557 124.68117 111.77992 125.52971 C 112.88954 126.31297 112.88954 126.76988 112.3021 129.11967 C 111.1272 133.29708 112.69373 143.67533 114.8477 146.67784 C 116.08787 148.37492 119.7431 150.20253 121.96236 150.20253 C 122.87616 150.20253 125.16068 150.92053 126.92303 151.83433 C 128.75065 152.68287 131.10044 153.46613 132.21006 153.46613 C 133.25442 153.46613 134.82094 154.05358 135.66948 154.83685 C 136.45274 155.55484 137.4971 156.01174 138.01927 155.81593 C 138.47618 155.68538 139.06363 155.81593 139.19417 156.27283 C 139.32471 156.72974 139.65107 156.92555 139.78162 156.72974 C 139.97743 156.53392 139.5858 153.72722 138.86781 150.5289 C 138.21509 147.2653 137.56237 143.93642 137.4971 143.02261 C 137.43183 142.1088 137.23601 141.26027 137.0402 141.06445 C 136.71383 140.73809 136.06111 139.82428 133.90714 136.36486 C 133.31969 135.32051 132.47115 134.53725 132.07952 134.53725 C 131.68789 134.53725 130.90462 134.08034 130.44772 133.42762 C 128.42429 131.07783 116.61005 122.13556 113.41172 120.6343 C 108.05941 118.0887 106.03598 117.82761 104.79581 119.65523 Z"
                        fill="black"/>
               </g>
            </g>
            <g>
               <path d="M 119.61256 129.38076 C 120.59164 129.83766 122.5498 131.20837 123.92052 132.38327 C 126.27031 134.34143 126.46613 134.79834 126.79249 138.8452 C 127.18412 144.26278 126.9883 144.78496 124.1816 145.95985 C 120.85273 147.33056 119.93892 147.20002 117.06695 144.71968 C 114.71716 142.69625 114.52135 142.23935 114.52135 139.36738 C 114.58662 137.60503 114.78243 134.21089 115.1088 131.79582 C 115.50043 128.01005 115.76151 127.48787 116.67532 127.94477 C 117.26277 128.27113 118.63348 128.92385 119.61256 129.38076 Z"/>
            </g>
            <g>
               <path d="M 128.55483 136.49541 C 128.55483 136.82177 128.42429 137.14813 128.29374 137.14813 C 128.09793 137.14813 127.77157 136.82177 127.57575 136.49541 C 127.37993 136.10378 127.51048 135.84269 127.83684 135.84269 C 128.22847 135.84269 128.55483 136.10378 128.55483 136.49541 Z"/>
            </g>
            <g>
               <path d="M 128.1632 138.77993 C 127.90211 139.3021 127.64102 139.75901 127.51048 139.75901 C 127.37993 139.75901 127.24939 139.3021 127.24939 138.77993 C 127.24939 138.25775 127.51048 137.80085 127.90211 137.80085 C 128.22847 137.80085 128.35901 138.25775 128.1632 138.77993 Z"/>
            </g>
            <g>
               <path d="M 118.1113 146.93893 C 118.63348 147.2653 118.8293 147.59165 118.43767 147.59165 C 118.1113 147.59165 117.32804 147.2653 116.80587 146.93893 C 116.28369 146.61257 116.15315 146.28621 116.4795 146.28621 C 116.87114 146.28621 117.58913 146.61257 118.1113 146.93893 Z"/>
            </g>
            <g>
               <path d="M 133.58078 147.7222 C 133.38496 148.24437 133.18914 148.04856 133.18914 147.33056 C 133.12387 146.61257 133.31969 146.22094 133.5155 146.48203 C 133.71132 146.67784 133.77659 147.2653 133.58078 147.7222 Z"/>
            </g>
            <g>
               <path d="M 129.66445 149.02764 C 129.46864 149.54981 129.27282 149.354 129.27282 148.636 C 129.20755 147.91801 129.40337 147.52638 129.59918 147.78747 C 129.795 147.98328 129.86027 148.57073 129.66445 149.02764 Z"/>
            </g>
            <g>
               <path d="M 135.08203 151.57325 C 135.08203 152.29124 134.82094 152.74814 134.42931 152.48705 C 134.10295 152.29124 133.97241 151.70379 134.2335 151.18161 C 134.6904 149.8109 135.08203 149.94145 135.08203 151.57325 Z"/>
            </g>
            <g>
               <g  id="outline-7">
                  <path
                        d="M 172.9398 142.1088 C 164.12808 142.89207 154.14146 144.65441 154.85946 145.3724 C 154.99 145.50295 158.64523 145.24186 162.88791 144.65441 C 167.19587 144.13224 174.04943 143.41424 178.16157 143.08788 C 186.05948 142.50043 199.5708 143.21843 202.24694 144.39332 C 203.22602 144.78496 204.07456 144.78496 204.40092 144.4586 C 205.77163 143.08788 200.28878 142.30462 188.27873 142.04353 C 181.49044 141.97826 174.5716 141.97826 172.9398 142.1088 Z"
                        fill="black"/>
               </g>
            </g>
            <g>
               <g  id="outline-8">
                  <path
                        d="M 170.98165 149.87617 C 163.4101 150.85525 158.57996 151.83433 155.77326 152.94396 C 152.77075 154.11885 154.20674 154.18413 159.29795 153.13977 C 170.3942 150.78998 178.22684 150.07199 187.62601 150.5289 C 192.65196 150.72471 198.8528 151.37743 201.33314 151.8996 C 206.75071 153.00923 206.22854 152.94396 206.22854 152.22597 C 206.22854 151.37743 204.72728 150.92053 198.8528 150.2678 C 189.12727 149.0929 178.0963 148.96236 170.98165 149.87617 Z"
                        fill="black"/>
               </g>
            </g>
            <g>
               <g  id="outline-9">
                  <path
                        d="M 179.79337 187.40759 C 179.98918 187.73395 180.31554 188.0603 180.51136 188.0603 C 180.6419 188.0603 180.77245 187.73395 180.77245 187.40759 C 180.77245 187.01595 180.44609 186.75487 180.05446 186.75487 C 179.7281 186.75487 179.59755 187.01595 179.79337 187.40759 Z"
                        fill="black"/>
               </g>
            </g>
            <g>
               <g  id="outline-10">
                  <path
                        d="M 224.17834 189.4963 C 223.5909 190.93228 224.43943 192.30299 225.28797 191.45445 C 225.74487 190.99755 225.74487 190.4101 225.28797 189.56156 C 224.63525 188.45194 224.56998 188.45194 224.17834 189.4963 Z"
                        fill="black"/>
               </g>
            </g>
            <g>
               <g  id="outline-11">
                  <path
                        d="M 127.24939 192.9557 C 126.59667 193.73897 126.59667 194.19588 127.11885 194.71805 C 127.96738 195.5666 129.86027 194.32642 129.86027 192.89044 C 129.86027 191.65027 128.29374 191.71554 127.24939 192.9557 Z"
                        fill="black"/>
               </g>
            </g>
            <g>
               <g  id="outline-12">
                  <path
                        d="M 232.6637 193.28207 C 232.14153 195.04441 233.31643 196.4804 234.36078 195.43605 C 235.20932 194.5875 234.88296 192.4988 233.8386 192.17244 C 233.44697 192.0419 232.9248 192.56408 232.6637 193.28207 Z"
                        fill="black"/>
               </g>
            </g>
            <g>
               <g  id="outline-13">
                  <path
                        d="M 136.51802 193.47788 C 135.93057 194.19588 135.8653 194.5875 136.38747 194.91387 C 137.36655 195.50132 137.88873 194.97914 137.56237 193.54316 C 137.36655 192.56408 137.30128 192.4988 136.51802 193.47788 Z"
                        fill="black"/>
               </g>
            </g>
            <g>
               <g  id="outline-14">
                  <path
                        d="M 219.08713 196.9373 C 218.36913 197.6553 218.56495 199.80927 219.28294 199.80927 C 220.26202 199.80927 220.84947 197.8511 220.13148 197.13312 C 219.80512 196.80676 219.34821 196.74149 219.08713 196.9373 Z"
                        fill="black"/>
               </g>
            </g>
            <g>
               <g  id="outline-15">
                  <path
                        d="M 226.72395 197.45948 C 226.46287 198.1122 226.5934 198.89546 226.98504 199.2871 C 227.50722 199.80927 227.83358 199.744 228.15994 198.89546 C 228.42103 198.24274 228.29048 197.45948 227.89885 197.06785 C 227.37667 196.54567 227.0503 196.61094 226.72395 197.45948 Z"
                        fill="black"/>
               </g>
            </g>
            <g>
               <g  id="outline-16">
                  <path
                        d="M 131.36153 201.50634 C 130.77408 203.0076 132.07952 203.98668 133.0586 202.81178 C 133.90714 201.76743 133.5155 200.462 132.40588 200.462 C 132.07952 200.462 131.62262 200.9189 131.36153 201.50634 Z"
                        fill="black"/>
               </g>
            </g>
            <g>
               <g  id="outline-17">
                  <path
                        d="M 139.65107 201.44107 C 138.73727 202.48542 139.25944 203.7256 140.69543 203.7256 C 141.2176 203.7256 141.60923 203.07287 141.60923 202.0938 C 141.60923 200.26618 140.82597 200.00509 139.65107 201.44107 Z"
                        fill="black"/>
               </g>
            </g>
            <g>
               <g  id="outline-18">
                  <path
                        d="M 123.33307 203.0076 C 123.33307 204.70467 124.4427 205.3574 125.68286 204.37831 C 126.40085 203.7256 126.46613 203.33396 125.87868 202.68124 C 124.76905 201.3758 123.33307 201.57162 123.33307 203.0076 Z"
                        fill="black"/>
               </g>
            </g>
            <g>
               <g  id="outline-19">
                  <path
                        d="M 233.05534 203.0076 C 232.6637 203.66032 232.59844 204.37831 232.79425 204.6394 C 233.3817 205.16158 234.94823 203.7256 234.94823 202.68124 C 234.94823 201.3758 233.77333 201.57162 233.05534 203.0076 Z"
                        fill="black"/>
               </g>
            </g>
            <g>
               <g  id="outline-20">
                  <path
                        d="M 223.46035 205.29212 C 222.8729 206.85865 224.24362 208.1641 225.28797 207.11974 C 225.9407 206.46702 225.81014 206.07539 224.9616 205.22685 C 223.98253 204.24777 223.85198 204.24777 223.46035 205.29212 Z"
                        fill="black"/>
               </g>
            </g>
            <g>
               <g  id="outline-21">
                  <path
                        d="M 136.45274 209.86116 C 135.8653 210.51388 135.8653 210.90551 136.38747 211.23188 C 137.43183 211.8846 138.4109 210.77497 137.75819 209.73062 C 137.36655 209.0779 137.10547 209.0779 136.45274 209.86116 Z"
                        fill="black"/>
               </g>
            </g>
            <g>
               <g  id="outline-22">
                  <path
                        d="M 54.92799 180.22766 C 54.92799 181.14147 55.05853 181.46783 55.25435 181.01093 C 55.38489 180.6193 55.38489 179.83603 55.25435 179.37913 C 55.05853 178.9875 54.92799 179.31386 54.92799 180.22766 Z"
                        fill="black"/>
               </g>
            </g>
            <g>
               <g  id="outline-23">
                  <path
                        d="M 168.89294 163.06112 C 169.34984 163.25694 169.9373 163.19167 170.1331 162.99585 C 170.3942 162.80003 170.00256 162.60422 169.28457 162.66949 C 168.56658 162.66949 168.37076 162.8653 168.89294 163.06112 Z"
                        fill="black"/>
               </g>
            </g>
         </g>
      </g>
   </g>
</svg>