<?xml version="1.0" encoding="UTF-8" standalone="no"?>
<!-- Created with Inkscape (http://www.inkscape.org/) -->

<svg
   xmlns:dc="http://purl.org/dc/elements/1.1/"
   xmlns:cc="http://creativecommons.org/ns#"
   xmlns:rdf="http://www.w3.org/1999/02/22-rdf-syntax-ns#"
   xmlns:svg="http://www.w3.org/2000/svg"
   xmlns="http://www.w3.org/2000/svg"
   version="1.0"
   width="347.9025"
   height="500"
   id="svg2702">
  <metadata
     id="metadata2539">
    <rdf:RDF>
      <cc:Work
         rdf:about="">
        <dc:format>image/svg+xml</dc:format>
        <dc:type
           rdf:resource="http://purl.org/dc/dcmitype/StillImage" />
        <dc:title></dc:title>
        <dc:creator>
          <cc:Agent>
            <dc:title>http://commons.wikimedia.org/wiki/User:Bluebear2</dc:title>
          </cc:Agent>
        </dc:creator>
      </cc:Work>
    </rdf:RDF>
  </metadata>
  <defs
     id="defs2704" />
  <g
     id="layer1">
    <path
       d="m 125.6,181.8 c -1.116,-4.796 -1.818,-9.69 -9.176,-13.02 -21.57,10.57 -43.14,10.94 -64.71,3.397 -11.91,0.003 -20.42,8.448 -32.84,6.511 4.473,-2.133 8.12,-8.741 -0.4012,-12.02 6.772,-3.128 11.16,-8.435 23.87,-5.544 -11.3,-1.823 -17.33,2.862 -24.38,5.739 8.289,-5.101 5.001,-10.57 -1.311,-13.68 7.051,-6.012 15.28,-11.14 22.96,-4.676 -7.332,-8.43 -16.11,0.341 -23.45,3.924 2.484,-2.524 5.462,-8.781 1.268,-11.68 18.38,-15.86 31.84,-12.04 48.78,-5.379 28.06,11.04 53.34,-8.511 77.75,-33.97 l 21.73,15.85 -40.08,64.54 z"
       id="path2404"
       style="fill:#ffff00;fill-rule:evenodd;stroke:#000000;stroke-width:2.92825103px;stroke-linecap:butt;stroke-linejoin:miter;stroke-opacity:1" />
    <path
       d="m 46.34,129.8 c 3.825,-0.3879 13.39,8.851 13.39,9.528"
       id="path2606"
       style="fill:none;stroke:#000000;stroke-width:2.92825103px;stroke-linecap:butt;stroke-linejoin:miter;stroke-opacity:1" />
    <path
       d="m 221.5,126.4 c 20.85,35.17 16.31,88.07 22.58,99.37 l 11.29,20.33 c 32.42,23.25 36.79,48.14 44.6,72.83 8.654,5.056 15.98,-0.5336 23.15,-7.34 3.869,-6.399 0.7282,-12.8 -1.129,-19.2 -20.27,-26.6 -45.4,-49.42 -53.07,-85.82 -22.01,-27.1 5.842,-42.72 10.56,-64.48 3.452,22.4 28.43,43.21 8.638,65.61 -3.04,7.151 0.6588,14.3 3.388,21.45 11.84,25.8 41.65,43.31 46.86,66.06 1.72,7.513 3.77,25.17 -1.694,33.88 -6.377,10.16 -35,9.649 -35,9.649 26.53,31.5 -2.282,40.18 34.44,74.48 7.393,27.68 -13.09,58.04 -26.54,58.15 -1.878,6.279 -4.545,11.5 -9.598,13.55 -3.296,-5.155 -7.435,-8.614 -15.24,-5.646 2.406,-9.112 7.618,-15.42 14.23,-20.33 -7.625,4.957 -10.66,12.21 -14.23,19.2 -4.434,-9.092 -10.86,-8.304 -14.11,-10.16 1.835,-8.328 8.21,-12.12 15.24,-15.24 -5.279,3.933 -12.25,4.476 -14.68,14.11 -1.739,-1.43 -9.833,-9.089 -12.93,-6.606 -2.279,-5.324 5.377,-6.006 10.11,-12.03 8.314,-6.387 16.91,-11.11 25.97,-12.99 -3.155,-8.131 -4.74,-16.52 -3.388,-25.41 -27.12,-6.954 -48.36,-22.73 -57.02,-55.33 -4.423,-16.64 -3.827,-33.5 -5.081,-50.25 0,0 -38.18,-33.08 -51.94,-49.68 -15.75,-24.55 -52.22,-39.7 -55.59,-77.18 6.184,-24.36 7.647,-51.71 33.01,-63.96 22.4,-13.64 44.79,-7.069 67.19,12.99 z"
       id="path2398"
       style="fill:#ffff00;fill-rule:evenodd;stroke:#000000;stroke-width:3.16171741px;stroke-linecap:butt;stroke-linejoin:miter;stroke-opacity:1" />
    <path
       d="m 176.4,254.4 53.1,49.9 7.585,56.69 -10.93,7.008 c -7.925,5.08 8.726,42.09 -54.31,60.21 -3.319,5.354 -7.639,6.232 -13.01,10.23 -1.908,-3.274 -3.818,-8.272 -9.981,-8.384 3.889,-4.412 6.162,-10.85 13.95,-10.38 -5.271,0.2247 -9.826,1.88 -11.96,8.384 -2.185,-3.009 0.0843,-9.976 -13.65,-9.701 8.538,-7.808 9.459,-6.623 16.85,-7.865 -12.11,1.033 -13.61,3.892 -15.85,4.085 -0.6905,-2.454 -2.62,-4.561 -6.125,-7.159 12.22,-12.41 22.47,-3.337 35.15,-10.1 12.69,-6.768 27.23,-23.33 21.96,-39.12 -11.64,-34.85 -48.96,-65.86 -12.78,-103.8 z"
       id="path2400"
       style="fill:#ffff00;fill-rule:evenodd;stroke:#000000;stroke-width:3.16171741px;stroke-linecap:butt;stroke-linejoin:miter;stroke-opacity:1" />
    <path
       d="m 196.5,134.1 c -51.91,31.07 -45.55,57.13 -79.57,89.93 -23.24,5.189 -33.71,4.955 -42.32,17.57 1.65,1.862 2.726,4.73 2.811,8.854 3.799,-6.133 13.88,-10.23 18.61,-11.82 -6.042,2.417 -13.69,3.255 -19.25,12 6.717,0.5484 7.436,11.15 6.997,13.28 4.094,-7.365 11.33,-12.37 18.48,-16.59 -6.104,4.872 -12.75,6.12 -17.66,16.44 3.358,0.3487 5.045,2.25 6.775,5.787 6.633,-1.522 10.05,-5.191 13.57,-8.783 13.43,3.485 16.77,-8.522 24.52,-14.51 11.67,0.3971 35.29,-5.972 38.48,-14.87 21.61,-0.9483 37.12,-4.962 43.99,-41.68"
       id="path2402"
       style="fill:#ffff00;fill-rule:evenodd;stroke:#000000;stroke-width:3.16171741px;stroke-linecap:butt;stroke-linejoin:miter;stroke-opacity:1" />
    <g
       id="armed"
       style="fill:#ff0000">
      <path
         d="m 14.21,141.8 c 3.945,-0.8969 4.906,1.38 6.238,7.733 -7.785,1.626 -9.216,3.9 -13.73,8.343 -2.905,-4.199 0.4102,-12.91 7.494,-16.08 z"
         id="path2598"
         style="fill:#ff0000;fill-rule:evenodd;stroke:#000000;stroke-width:2.12899637px;stroke-linecap:butt;stroke-linejoin:miter;stroke-opacity:1" />
      <path
         d="m 15.93,154.6 c 3.945,-0.4992 6.128,1.38 7.46,7.733 -7.785,1.626 -10.44,3.9 -14.95,8.343 -2.905,-4.199 0.4102,-12.91 7.494,-16.08 z"
         id="path2600"
         style="fill:#ff0000;fill-rule:evenodd;stroke:#000000;stroke-width:2.12899637px;stroke-linecap:butt;stroke-linejoin:miter;stroke-opacity:1" />
      <path
         d="m 16.54,168.2 c 5.473,-0.8969 7.962,2.772 6.391,7.733 -7.785,1.626 -9.368,3.9 -13.89,8.343 -2.905,-4.199 0.4102,-12.91 7.494,-16.08 z"
         id="path2602"
         style="fill:#ff0000;fill-rule:evenodd;stroke:#000000;stroke-width:2.12899637px;stroke-linecap:butt;stroke-linejoin:miter;stroke-opacity:1" />
      <path
         d="m 285.4,480.4 c 4.517,-3.173 8.942,-0.6584 13.98,4.245 -8.819,4.319 -10.53,5.143 -10.57,12.16 -7.899,-1.501 -10.3,-8.628 -3.411,-16.4 z"
         id="path2418"
         style="fill:#ff0000;fill-rule:evenodd;stroke:#000000;stroke-width:2.59153914px;stroke-linecap:butt;stroke-linejoin:miter;stroke-opacity:1" />
      <path
         d="m 270.9,471.2 c 5.194,-3.014 8.717,-1.771 13.69,4.004 -9.959,3.853 -10.86,6.477 -11.58,14.07 -8.403,-2.36 -10.32,-10.3 -2.111,-18.07 z"
         id="path2420"
         style="fill:#ff0000;fill-rule:evenodd;stroke:#000000;stroke-width:2.81514192px;stroke-linecap:butt;stroke-linejoin:miter;stroke-opacity:1" />
      <path
         d="m 256.4,461.1 c 4.855,-2.282 7.889,-0.9081 11.85,4.605 -9.157,2.663 -10.17,4.927 -11.41,11.62 -7.283,-2.74 -8.355,-9.94 -0.4468,-16.22 z"
         id="path2422"
         style="fill:#ff0000;fill-rule:evenodd;stroke:#000000;stroke-width:2.51193452px;stroke-linecap:butt;stroke-linejoin:miter;stroke-opacity:1" />
      <path
         d="m 128.9,407.9 c 4.614,-0.4975 7.167,1.376 8.725,7.708 -8.212,-0.5599 -9.17,-0.0766 -14.27,7.721 -3.398,-4.185 -2.737,-12.27 5.549,-15.43 z"
         id="path2424"
         style="fill:#ff0000;fill-rule:evenodd;stroke:#000000;stroke-width:2.29863739px;stroke-linecap:butt;stroke-linejoin:miter;stroke-opacity:1" />
      <path
         d="m 139.8,419 c 4.558,-0.9416 7.248,0.6777 9.298,6.835 -8.224,0.236 -10.06,2.532 -12.61,8.507 -5.439,-4.373 -4.698,-11.4 3.308,-15.34 z"
         id="path2426"
         style="fill:#ff0000;fill-rule:evenodd;stroke:#000000;stroke-width:2.29863739px;stroke-linecap:butt;stroke-linejoin:miter;stroke-opacity:1" />
      <path
         d="m 148.9,431.4 c 4.466,-1.379 7.274,-0.0255 9.8,5.91 -9.656,1.084 -10.96,3.01 -11.89,9.693 -6.187,-5.164 -5.576,-10.9 2.09,-15.6 z"
         id="path2428"
         style="fill:#ff0000;fill-rule:evenodd;stroke:#000000;stroke-width:2.29863739px;stroke-linecap:butt;stroke-linejoin:miter;stroke-opacity:1" />
      <path
         d="m 77.84,249.7 c 2.37,-4.01 0.3681,-2.911 -2.322,-8.352 -6.369,3.746 -8.018,5.056 -12.54,5.12 2.669,4.225 7.646,4.649 14.86,3.232 z"
         id="path2592"
         style="fill:#ff0000;fill-rule:evenodd;stroke:#000000;stroke-width:2.14996815px;stroke-linecap:butt;stroke-linejoin:miter;stroke-opacity:1" />
      <path
         d="m 82.1,261.1 c 2.37,-4.033 1.245,-7.657 -1.89,-9.378 -6.33,5.262 -6.22,5.061 -13.56,4.676 4.593,5.494 8.639,5.702 15.45,4.702 z"
         id="path2594"
         style="fill:#ff0000;fill-rule:evenodd;stroke:#000000;stroke-width:2.14996815px;stroke-linecap:butt;stroke-linejoin:miter;stroke-opacity:1" />
      <path
         d="m 89.29,270.5 c 2.11,-4.256 0.7874,-0.507 -2.247,-5.609 -8.133,3.537 -5.152,2.898 -11.48,4.54 4.62,3.158 6.23,5.271 13.72,1.069 z"
         id="path2596"
         style="fill:#ff0000;fill-rule:evenodd;stroke:#000000;stroke-width:2.14996815px;stroke-linecap:butt;stroke-linejoin:miter;stroke-opacity:1" />
    </g>
    <path
       d="m 187,14 c 29.98,-1.042 50.94,8.573 64.36,27.1 l 21.45,-2.258 c -5.48,6.651 -9.053,11.59 -21.45,19.76 l 4.517,29.92 c -3.388,-2.02 -6.775,-7.174 -10.16,-3.388 l 0,18.63 c -2.846,-5.984 -6.259,-10.27 -11.22,-9.9 l 2.19,20.63 c -4.81,-0.6663 -8.923,-6.904 -14.68,0 l -1.129,12.42 c 0,0 -18.97,6.9 -24.84,2.258 -3.758,-2.972 -7.009,-11.62 -7.009,-11.62 0,0 -7.733,1.618 -13.32,0.8894 -4.292,-0.5601 -12.42,-7.34 -12.42,-7.34 l -18.07,1.129 c 0,0 -7.186,-5.855 -6.211,-10.16 1.412,-6.234 16.37,-13.55 16.37,-13.55 l -1.129,-11.29 c -4.893,-4.784 -9.786,-1.111 -14.68,0 l 16.94,-13.55 c -6.022,-6.484 -12.04,-1.304 -18.07,0 L 157.7,43.36 c -3.764,-3.069 -7.528,-0.9404 -11.29,0 l 18.07,-14.68 c -0.4209,-9.421 -1.943,-19.12 3.388,-27.1 l 19.2,12.42 z"
       id="path2396"
       style="fill:#ffff00;fill-rule:evenodd;stroke:#000000;stroke-width:3.16171741px;stroke-linecap:butt;stroke-linejoin:miter;stroke-opacity:1" />
    <path
       d="m 216.6,54.94 c 4.191,-4.46 9.385,-3.911 15.17,-0.3992 -5.195,3.941 -9.696,6.748 -15.17,0.3992 z"
       id="path2408"
       style="fill:#fcef3c;fill-rule:evenodd;stroke:#000000;stroke-width:3.16171741px;stroke-linecap:butt;stroke-linejoin:miter;stroke-opacity:1" />
    <path
       d="m 192.3,62.21 c 3.286,0.8271 10.33,4.163 15.81,10.12 -1.84,3.094 -2.45,4.706 -5.902,6.621 -3.726,0.3944 -13.12,-4.161 -13.7,-8.16 0.0307,-3.46 1.253,-4.924 3.793,-8.583 z"
       id="path2410"
       style="fill:#000000;fill-rule:evenodd;stroke:#000000;stroke-width:3.16171741px;stroke-linecap:butt;stroke-linejoin:miter;stroke-opacity:1" />
    <path
       d="m 172.1,32.19 c -12.46,31.7 -12.96,29.51 18.16,48.11 42.56,23.73 40.9,-6.33 51.3,-19.96"
       id="path2412"
       style="fill:none;stroke:#000000;stroke-width:3.16171741px;stroke-linecap:butt;stroke-linejoin:miter;stroke-opacity:1" />
    <g
       id="langued">
      <path
         d="m 180.7,75.3 c -12.63,30.23 7.928,31.5 20.96,11.38"
         id="path2414"
         style="fill:#ff0000;fill-rule:evenodd;stroke:#000000;stroke-width:3.16171741px;stroke-linecap:butt;stroke-linejoin:miter;stroke-opacity:1" />
    </g>
    <path
       d="m 197,47.26 c 0.1899,-6.118 -3.87,-9.402 -10.44,-11.01 0.8864,6.46 2.085,11.63 10.44,11.01 z"
       id="path2416"
       style="fill:#fcef3c;fill-rule:evenodd;stroke:#000000;stroke-width:3.16171741px;stroke-linecap:butt;stroke-linejoin:miter;stroke-opacity:1" />
    <path
       d="m 85.66,177.6 c 9.693,-7.026 8.833,-9.97 8.384,-18.44"
       id="path2672"
       style="fill:none;stroke:#000000;stroke-width:1;stroke-linecap:butt;stroke-linejoin:miter;stroke-miterlimit:4;stroke-opacity:1;stroke-dasharray:none" />
    <path
       d="m 268.7,205.8 c 10.56,9.483 14.53,3.149 20.16,0.7904 16.28,-18.71 -2.776,-43.45 -9.09,-64.82 -12.86,22.08 -29.86,42.11 -11.07,64.02 z"
       id="path2676"
       style="opacity:0.5;fill:#1a1a1a;fill-rule:evenodd;stroke:#000000;stroke-width:3.16171646px;stroke-linecap:butt;stroke-linejoin:miter;stroke-opacity:1" />
    <path
       d="m 278.2,153.7 c -4.387,17.67 -18.69,26.35 -6.323,49.8"
       id="path2678"
       style="fill:none;stroke:#000000;stroke-width:3.16171646px;stroke-linecap:butt;stroke-linejoin:miter;stroke-opacity:1" />
    <path
       d="m 280.5,155.6 c -0.2368,19.89 14.54,31.09 3.952,46.64"
       id="path2680"
       style="fill:none;stroke:#000000;stroke-width:3.16171646px;stroke-linecap:butt;stroke-linejoin:miter;stroke-opacity:1" />
    <path
       d="m 277.4,165.5 0.3952,35.57"
       id="path2682"
       style="fill:none;stroke:#000000;stroke-width:3.16171646px;stroke-linecap:butt;stroke-linejoin:miter;stroke-opacity:1" />
    <path
       d="m 228.8,141.8 4.367,13.72 c -17.97,4.357 -32.29,10.12 -43.94,18.69 -2.671,-15.47 26.54,-21.64 39.57,-32.41 z"
       id="path2684"
       style="fill:#000000;fill-rule:evenodd;stroke:#000000;stroke-width:3.16171646px;stroke-linecap:butt;stroke-linejoin:miter;stroke-opacity:1" />
    <path
       d="m 238.5,190.5 c -10.62,6.325 -21.95,9.807 -31.86,19 l -1.677,4.471 34.37,-12.58 -0.8384,-10.9 z"
       id="path2686"
       style="fill:#000000;fill-rule:evenodd;stroke:#000000;stroke-width:3.16171646px;stroke-linecap:butt;stroke-linejoin:miter;stroke-opacity:1" />
    <path
       d="m 244.4,226.5 c -12.85,2.484 -27.62,10.24 -31.3,16.21 11.17,-1.907 23.64,-7.801 35.49,-6.987 l -4.192,-9.222 z"
       id="path2688"
       style="fill:#000000;fill-rule:evenodd;stroke:#000000;stroke-width:3.16171646px;stroke-linecap:butt;stroke-linejoin:miter;stroke-opacity:1" />
    <path
       d="m 264.5,254.2 c -12.35,5.329 -21.96,15.38 -22.64,22.36 10.46,-7.646 20.97,-8.889 32.14,-12.3 l -9.502,-10.06 z"
       id="path2690"
       style="fill:#000000;fill-rule:evenodd;stroke:#000000;stroke-width:3.16171646px;stroke-linecap:butt;stroke-linejoin:miter;stroke-opacity:1" />
    <path
       d="m 290.2,292.5 c -11.42,3.401 -26.73,2.492 -32.14,12.58 12.39,-1.194 23.38,-4.764 35.77,-1.956 l -3.633,-10.62 z"
       id="path2692"
       style="fill:#000000;fill-rule:evenodd;stroke:#000000;stroke-width:3.16171646px;stroke-linecap:butt;stroke-linejoin:miter;stroke-opacity:1" />
    <path
       d="m 123.7,217.3 c 2.001,10.07 6.157,11.51 9.502,16.21 -2.382,-6.021 -3.393,-14.1 -2.795,-24.59"
       id="path2694"
       style="fill:#000000;fill-rule:evenodd;stroke:#000000;stroke-width:3.16171646px;stroke-linecap:butt;stroke-linejoin:miter;stroke-opacity:1" />
    <path
       d="m 143.2,188.8 c 3.68,8.445 6.577,17.93 14.53,20.68 -4.854,-10.49 -4.414,-22.75 -5.03,-34.65 l -9.502,13.97 z"
       id="path2696"
       style="fill:#000000;fill-rule:evenodd;stroke:#000000;stroke-width:3.16171646px;stroke-linecap:butt;stroke-linejoin:miter;stroke-opacity:1" />
    <path
       d="m 84.13,139.8 2.371,6.719 5.928,-1.186 -2.767,-6.719 -5.533,1.186 z"
       id="path2698"
       style="fill:#000000;fill-rule:evenodd;stroke:#000000;stroke-width:3.16171646px;stroke-linecap:butt;stroke-linejoin:miter;stroke-opacity:1" />
    <path
       d="m 112.6,128.8 4.743,6.719 6.323,-4.347 -4.743,-7.114 -6.323,4.743 z"
       id="path2700"
       style="fill:#000000;fill-rule:evenodd;stroke:#000000;stroke-width:3.16171646px;stroke-linecap:butt;stroke-linejoin:miter;stroke-opacity:1" />
  </g>
  <path
     d="m 134.89192,135.05248 c 1.7047,9.32622 18.80818,19.28642 28.80958,25.95343 l -3.76068,3.80711 c -13.1575,-5.7055 -29.79392,-8.3994 -30.61068,-19.51431 l 5.56178,-10.24623 z"
     id="path3313"
     style="fill:#000000;fill-opacity:1;fill-rule:evenodd;stroke:#000000;stroke-width:1px;stroke-linecap:butt;stroke-linejoin:miter;stroke-opacity:1" />
  <path
     d="m 134.74026,201.02814 -7.03463,-3.51732 -5.68182,-22.45671 c 4.70018,6.87021 9.36493,15.15444 17.58658,18.9394 l -4.87013,7.03463 z"
     id="path3315"
     style="fill:#000000;fill-opacity:1;fill-rule:evenodd;stroke:#000000;stroke-width:1px;stroke-linecap:butt;stroke-linejoin:miter;stroke-opacity:1" />
  <path
     d="m 308.78527,350.39028 c -15.18836,0.88225 -26.64487,5.49635 -33.67175,14.54008 11.73409,-1.52814 26.14662,-9.97118 37.88071,-4.20897 l -4.20896,-10.33111 z"
     id="path3317"
     style="fill:#000000;fill-opacity:1;fill-rule:evenodd;stroke:#000000;stroke-width:1px;stroke-linecap:butt;stroke-linejoin:miter;stroke-opacity:1" />
  <path
     d="m 232.64119,323.98857 c 12.39547,2.3524 23.98286,10.1901 38.26336,6.88741 -11.7341,7.90164 -23.46819,6.82697 -35.20229,6.8874 l -3.06107,-13.77481 z"
     id="path3319"
     style="fill:#000000;fill-opacity:1;fill-rule:evenodd;stroke:#000000;stroke-width:1px;stroke-linecap:butt;stroke-linejoin:miter;stroke-opacity:1" />
  <path
     d="m 254.06867,388.27101 c 12.79616,1.95246 22.72952,-7.54628 33.67175,-13.00954 -7.55225,7.17596 -9.83599,16.1081 -22.95801,21.42747 l -10.71374,-8.41793 z"
     id="path3321"
     style="fill:#000000;fill-opacity:1;fill-rule:evenodd;stroke:#000000;stroke-width:1px;stroke-linecap:butt;stroke-linejoin:miter;stroke-opacity:1" />
  <path
     d="m 208.91791,284.95995 c 2.29918,-10.45527 13.7012,-11.8077 20.66221,-17.60114 -10.46002,2.6757 -22.96757,1.25634 -31.37595,8.0353 l 10.71374,9.56584 z"
     id="path3323"
     style="fill:#000000;fill-opacity:1;fill-rule:evenodd;stroke:#000000;stroke-width:1px;stroke-linecap:butt;stroke-linejoin:miter;stroke-opacity:1" />
  <path
     d="m 172.18509,247.46186 c 7.88117,-5.18154 16.48388,-8.1985 26.40172,-7.27003 -11.98795,-5.98474 -22.62562,-1.1672 -33.67175,0.38263 l 7.27003,6.8874 z"
     id="path3325"
     style="fill:#000000;fill-opacity:1;fill-rule:evenodd;stroke:#000000;stroke-width:1px;stroke-linecap:butt;stroke-linejoin:miter;stroke-opacity:1" />
  <path
     d="m 165.68032,270.41988 c 8.80057,6.645 17.60115,11.09983 26.40172,21.42747 l -4.20897,10.33111 c -8.92812,-8.08874 -17.85623,-11.93538 -26.78435,-16.07061 l 4.5916,-15.68797 z"
     id="path3329"
     style="fill:#000000;fill-opacity:1;fill-rule:evenodd;stroke:#000000;stroke-width:1px;stroke-linecap:butt;stroke-linejoin:miter;stroke-opacity:1" />
  <path
     d="m 177.54196,333.17178 c 4.65325,-4.30781 11.34373,-5.55979 17.98378,-6.88741 l 3.06107,9.18321 c -6.44924,1.20343 -12.41417,2.89117 -16.83588,6.12213 l -4.20897,-8.41793 z"
     id="path3331"
     style="fill:#000000;fill-opacity:1;fill-rule:evenodd;stroke:#000000;stroke-width:1px;stroke-linecap:butt;stroke-linejoin:miter;stroke-opacity:1" />
  <path
     d="m 115.93796,228.71282 c 3.97925,2.50016 8.16968,4.57795 9.18321,13.00954"
     id="path3333"
     style="fill:none;stroke:#000000;stroke-width:1px;stroke-linecap:butt;stroke-linejoin:miter;stroke-opacity:1" />
  <path
     d="m 61.221367,144.15081 c 5.406332,11.5033 0.291307,17.8844 -3.061069,22.57538"
     id="path3335"
     style="fill:none;stroke:#000000;stroke-width:1px;stroke-linecap:butt;stroke-linejoin:miter;stroke-opacity:1" />
  <g
     id="layer2"
     style="display:inline" />
  <rect
     width="77.430969"
     height="50.42017"
     x="178.65269"
     y="-91.612793"
     transform="matrix(0.94747623,0.31982619,-0.31982619,0.94747623,0,0)"
     id="crowned"
     style="fill:none;stroke:none" />
</svg>
