<?xml version="1.0" encoding="UTF-8" standalone="no"?>
<!DOCTYPE svg PUBLIC "-//W3C//DTD SVG 1.1//EN" "http://www.w3.org/Graphics/SVG/1.1/DTD/svg11.dtd">
<svg width="100%" height="100%" viewBox="0 0 365 210" version="1.1" xmlns="http://www.w3.org/2000/svg" xmlns:xlink="http://www.w3.org/1999/xlink" xml:space="preserve" xmlns:serif="http://www.serif.com/" style="fill-rule:evenodd;clip-rule:evenodd;stroke-linecap:round;stroke-linejoin:round;stroke-miterlimit:3;">
    <g id="group1-1" transform="matrix(1,0,0,1,8.12673,-3)">
        <g id="path18" transform="matrix(1,0,0,1,241.445,8.52651e-14)">
            <path d="M39.56,185.87C47.953,182.044 53.131,173.374 52.52,164.17C38.239,178.781 19.971,188.871 0,193.18C20.578,191.379 41.112,197.24 57.64,209.63C55.702,200.846 49.45,193.611 41.04,190.42C43.254,190.559 45.474,190.567 47.689,190.444C78.476,188.734 102.402,161.993 100.691,131.206C100.43,126.506 99.58,121.858 98.16,117.37C96.782,116.326 95.099,115.761 93.37,115.761C89.018,115.761 85.437,119.342 85.437,123.693C85.437,124.027 85.458,124.359 85.5,124.69C86.342,128.642 86.709,132.68 86.594,136.719C85.852,162.611 65.395,183.99 39.56,185.87Z" style="fill:rgb(255,0,0);stroke:black;stroke-width:3px;"/>
        </g>
        <g id="path23" transform="matrix(1,0,0,1,261.466,-81.831)">
            <path d="M14.57,166.58C18.031,182.554 32.093,194.175 48.433,194.566C59.273,194.825 69.656,190.107 76.59,181.77C78.559,179.597 79.644,176.764 79.631,173.832C79.611,169.27 76.935,165.115 72.79,163.21C69.894,162.083 66.593,162.74 64.35,164.89C61.828,167.53 60.365,171.009 60.241,174.658C60.043,180.506 63.314,185.949 68.57,188.52C64.827,191.178 60.37,192.649 55.78,192.74C50.146,187.869 46.902,180.778 46.902,173.33C46.902,165.882 50.146,158.791 55.78,153.92C59.46,151.308 63.862,149.905 68.374,149.905C77.217,149.905 85.218,155.295 88.54,163.49C94.276,173.559 92.476,186.329 84.18,194.42C68.974,208.88 46.787,213.473 27.09,206.24C16.453,201.661 7.574,193.767 1.78,183.74C0.62,181.907 0.004,179.781 0.004,177.611C0.004,171.324 5.177,166.151 11.464,166.151C12.514,166.151 13.559,166.295 14.57,166.58Z" style="fill:rgb(255,0,0);stroke:black;stroke-width:3px;"/>
        </g>
        <g id="group4-6" transform="matrix(0.99863,0.052336,-0.052336,0.99863,105.159,-103.853)">
            <g id="path31" transform="matrix(0.0871557,-0.996195,0.996195,0.0871557,-197.748,191.995)">
                <path d="M0.33,198.94C1.884,198.391 3.52,198.11 5.168,198.11C11.896,198.11 17.786,202.787 19.31,209.34C14.352,205.884 7.693,206.001 2.86,209.63C0.383,206.666 -0.556,202.7 0.33,198.94Z" style="fill:rgb(255,0,0);stroke:black;stroke-width:2.25px;"/>
            </g>
            <g id="path36" transform="matrix(-3.82857e-16,-1,1,-3.82857e-16,-183.022,207.024)">
                <path d="M0.33,198.94C1.884,198.391 3.52,198.11 5.168,198.11C11.896,198.11 17.786,202.787 19.31,209.34C14.352,205.884 7.693,206.001 2.86,209.63C0.383,206.666 -0.556,202.7 0.33,198.94Z" style="fill:rgb(255,0,0);stroke:black;stroke-width:2.25px;"/>
            </g>
            <g id="path41" transform="matrix(-0.173648,-0.984808,0.984808,-0.173648,-163.765,237.722)">
                <path d="M0.33,198.94C1.884,198.391 3.52,198.11 5.168,198.11C11.896,198.11 17.786,202.787 19.31,209.34C14.352,205.884 7.693,206.001 2.86,209.63C0.383,206.666 -0.556,202.7 0.33,198.94Z" style="fill:rgb(255,0,0);stroke:black;stroke-width:2.25px;"/>
            </g>
        </g>
        <g id="path46" transform="matrix(1,0,0,1,54.2068,-36.3099)">
            <path d="M181.44,179.03C173.101,181.936 164.168,182.72 155.45,181.31C151.38,180.094 147.906,177.405 145.71,173.77C144.302,171.701 142.122,170.281 139.66,169.83C149.235,165.652 160.26,166.342 169.24,171.68C173.032,174.56 177.122,177.024 181.44,179.03ZM229.43,166.9C232.502,165.849 234.593,162.963 234.634,159.717C234.683,155.866 231.834,152.541 228.02,152C222.524,151.485 217.932,147.514 216.63,142.15C220.35,136.649 221.736,129.888 220.48,123.367C217.88,109.862 204.628,100.89 191.124,103.491C189.634,103.778 188.173,104.199 186.76,104.75C181.613,106.175 176.67,108.252 172.05,110.93C162.887,117.871 151.426,121.088 139.99,119.93C127.031,110.403 109.124,110.871 96.68,121.06C71.684,138.856 40.502,145.76 10.33,140.18C7.067,146.403 6.704,153.757 9.337,160.272C14.26,172.45 28.332,178.42 40.51,173.498C44.085,172.053 47.259,169.765 49.76,166.83C42.793,171.735 34.842,175.069 26.46,176.6C22.549,175.431 19.21,172.845 17.1,169.35C15.427,166.892 12.64,165.417 9.667,165.417C6.378,165.417 3.342,167.222 1.77,170.11C0.505,173.12 1.916,176.638 4.91,177.94C5.867,177.852 6.83,178.021 7.7,178.43C7.763,178.424 7.827,178.418 7.89,178.41C8.985,178.446 10.079,178.52 11.17,178.63C16.546,178.953 21.8,180.368 26.61,182.79C21.727,180.564 16.51,179.158 11.17,178.63C10.101,178.563 9.031,178.54 7.96,178.56C7.875,178.514 7.788,178.471 7.7,178.43C6.744,178.492 5.788,178.324 4.91,177.94C2.143,178.193 -0.001,180.542 -0.001,183.321C-0.001,183.966 0.114,184.606 0.34,185.21C1.712,188.519 5.171,190.501 8.72,190.01L11.87,188.85C12.03,188.749 12.187,188.642 12.34,188.53C13.525,188.04 14.781,187.746 16.06,187.66C19.001,187.384 21.934,188.295 24.2,190.19C21.897,188.363 18.993,187.46 16.06,187.66C14.77,187.78 13.511,188.125 12.34,188.68L11.87,188.85C10.915,189.458 9.841,189.853 8.72,190.01L7.81,190.34C5.962,191.761 4.877,193.964 4.877,196.296C4.877,200.417 8.268,203.808 12.39,203.808C13.552,203.808 14.699,203.539 15.74,203.02C17.359,202.157 18.579,200.696 19.14,198.95C22.781,199.331 26.254,197.218 27.59,193.81C30.411,196.755 35.033,197.148 38.31,194.72C47.743,192.755 57.572,194.145 66.09,198.65C67.356,200.999 69.818,202.469 72.486,202.469C74.278,202.469 76.007,201.807 77.34,200.61C80.198,199.634 82.13,196.931 82.13,193.911C82.13,190.028 78.934,186.832 75.051,186.832C74.807,186.832 74.563,186.845 74.32,186.87C72.62,186.664 70.896,186.817 69.26,187.32C68.257,187.883 67.124,188.174 65.974,188.163C63.053,188.137 60.482,186.171 59.69,183.36C67.898,183.658 76.08,182.269 83.73,179.28C93.153,179.996 102.629,179.333 111.86,177.31C112.456,177.539 113.088,177.662 113.727,177.674C116.747,177.732 119.28,175.295 119.338,172.274C119.357,171.278 119.106,170.295 118.61,169.43L118.13,168.64C114.901,165.978 112.686,162.283 111.86,158.18C112.688,162.282 114.903,165.976 118.13,168.64C124.961,171.773 132.742,172.16 139.85,169.72C136.309,170.928 132.922,172.549 129.76,174.55C128.443,177.683 129.912,181.346 133.03,182.7C134.025,182.609 135.026,182.785 135.93,183.21C135.997,183.208 136.063,183.204 136.13,183.2C137.269,183.235 138.406,183.308 139.54,183.42C145.135,183.756 150.604,185.229 155.61,187.75C150.528,185.433 145.098,183.97 139.54,183.42C138.431,183.352 137.32,183.328 136.21,183.35C136.118,183.301 136.025,183.254 135.93,183.21C134.937,183.274 133.942,183.099 133.03,182.7C130.148,182.96 127.913,185.406 127.913,188.3C127.913,188.972 128.034,189.64 128.27,190.27C129.699,193.712 133.299,195.771 136.99,195.26L140.27,194.06C140.437,193.953 140.601,193.839 140.76,193.72C141.993,193.212 143.3,192.908 144.63,192.82C147.69,192.532 150.742,193.479 153.1,195.45C150.703,193.55 147.681,192.611 144.63,192.82C143.288,192.944 141.978,193.303 140.76,193.88L140.27,194.06C139.275,194.69 138.157,195.1 136.99,195.26L136.05,195.61C134.138,197.089 133.016,199.375 133.016,201.793C133.016,206.082 136.545,209.611 140.834,209.611C142.036,209.611 143.222,209.333 144.3,208.8C145.982,207.899 147.249,206.378 147.83,204.56C151.619,204.961 155.236,202.766 156.63,199.22C159.567,202.28 164.372,202.685 167.78,200.16C177.597,198.115 187.826,199.562 196.69,204.25C198.007,206.696 200.569,208.227 203.347,208.227C205.212,208.227 207.013,207.536 208.4,206.29C211.381,205.278 213.399,202.463 213.399,199.314C213.399,195.273 210.074,191.948 206.033,191.948C205.772,191.948 205.51,191.962 205.25,191.99C203.523,192.366 201.756,192.524 199.99,192.46C198.814,192.319 197.947,191.262 198.038,190.081C198.054,189.875 198.098,189.673 198.17,189.48C201.649,188.374 205.014,186.937 208.22,185.19C215.527,179.374 222.603,173.272 229.43,166.9ZM50.5,166.64L50.55,166.62C58.737,167.355 66.88,164.717 73.08,159.32C67.038,164.592 59.141,167.252 51.14,166.71C50.926,166.689 50.713,166.666 50.5,166.64L50.42,166.66L50.4,166.66L50.41,166.62L50.5,166.64ZM75.25,157.68C75.137,157.645 75.024,157.612 74.91,157.58C76.085,156.373 77.156,155.068 78.11,153.68C80.507,146.04 88.192,141.237 96.11,142.43C88.27,141.996 80.988,146.665 78.11,153.97C77.261,155.284 76.304,156.524 75.25,157.68Z" style="fill:rgb(255,0,0);stroke:black;stroke-width:2.25px;"/>
        </g>
        <g id="armed-2" transform="matrix(1,0,0,1,176.195,-30.375)">
            <g id="path54" transform="matrix(0.0871557,-0.996195,0.996195,0.0871557,-194.169,160.403)">
                <path d="M0,195.23C6.883,196.388 11.977,201.338 12.3,207.18C11.815,208.578 10.267,209.547 8.52,209.547C6.361,209.547 4.585,208.068 4.585,206.27C4.585,205.962 4.637,205.656 4.74,205.36C5.75,201.504 3.876,197.5 0,195.23Z" style="fill:rgb(0,255,0);stroke:black;stroke-width:2.25px;"/>
            </g>
            <g id="path59" transform="matrix(-0.258819,-0.965926,0.965926,-0.258819,-186.665,245.684)">
                <path d="M0,193.35C7.783,194.658 13.544,200.254 13.91,206.86C13.363,208.442 11.612,209.54 9.635,209.54C7.195,209.54 5.186,207.868 5.186,205.835C5.186,205.488 5.245,205.143 5.36,204.81C6.505,200.448 4.386,195.917 0,193.35Z" style="fill:rgb(0,255,0);stroke:black;stroke-width:2.25px;"/>
            </g>
            <g id="path64" transform="matrix(-0.258819,-0.965926,0.965926,-0.258819,-180.067,259.666)">
                <path d="M0,193.35C7.783,194.658 13.544,200.254 13.91,206.86C13.363,208.442 11.612,209.54 9.635,209.54C7.195,209.54 5.186,207.868 5.186,205.835C5.186,205.488 5.245,205.143 5.36,204.81C6.505,200.448 4.386,195.917 0,193.35Z" style="fill:rgb(0,255,0);stroke:black;stroke-width:2.25px;"/>
            </g>
            <g id="path69" transform="matrix(0.156434,-0.987688,-0.987688,-0.156434,288.127,235.617)">
                <path d="M0,193.35C7.783,194.658 13.544,200.254 13.91,206.86C13.363,208.442 11.612,209.54 9.635,209.54C7.195,209.54 5.186,207.868 5.186,205.835C5.186,205.488 5.245,205.143 5.36,204.81C6.505,200.448 4.386,195.917 0,193.35Z" style="fill:rgb(0,255,0);stroke:black;stroke-width:2.25px;"/>
            </g>
        </g>
        <g id="group14-24" transform="matrix(1,0,0,1,214.519,-57.6667)">
            <g id="path77" transform="matrix(-0.392337,-0.919821,-0.919821,0.392337,217.27,113.167)">
                <path d="M11.61,193.68C7.567,192.919 3.159,194.475 0.19,197.71C-0.551,202.339 0.887,206.76 4.07,209.63C7.093,205.656 11.078,202.587 15.51,200.82C15.309,197.805 13.883,195.195 11.61,193.68Z" style="fill:rgb(140,140,140);stroke:black;stroke-width:2.16px;"/>
            </g>
            <g id="path82" transform="matrix(0.422618,0.906308,0.906308,-0.422618,-170.065,287.412)">
                <path d="M5.9,197.84C3.965,197.295 1.722,197.94 0.09,199.51C-0.178,202.987 0.14,206.41 1.03,209.63C3.294,208.061 5.914,207.183 8.55,207.11C9.019,203.529 8.05,200.139 5.9,197.84Z" style="fill:rgb(140,140,140);stroke:black;stroke-width:2.16px;"/>
            </g>
            <g id="path87" transform="matrix(0.422618,0.906308,0.906308,-0.422618,-161.934,283.546)">
                <path d="M9.05,197.77C6.466,196.938 3.555,197.869 1.51,200.18C-0.133,203.146 -0.46,206.651 0.63,209.63C3.832,208.216 7.25,207.843 10.44,208.56C11.397,204.611 10.888,200.665 9.05,197.77Z" style="fill:rgb(140,140,140);stroke:black;stroke-width:2.16px;"/>
            </g>
            <g id="path92" transform="matrix(0.707107,0.707107,0.707107,-0.707107,-114.63,337.754)">
                <path d="M7.92,194.07C4.517,194.483 1.471,196.926 0.03,200.4C-0.229,204.074 1.132,207.498 3.7,209.63C6.578,208.502 9.695,208.206 12.65,208.78C13.214,203.097 11.484,197.719 7.92,194.07Z" style="fill:rgb(140,140,140);stroke:black;stroke-width:2.16px;"/>
            </g>
            <g id="path97" transform="matrix(0.866025,0.5,0.5,-0.866025,-67.2072,368.515)">
                <path d="M8.04,195.42C4.483,195.981 1.38,198.81 0,202.75C0.01,205.567 1.163,208.119 3.11,209.63C4.843,209.022 6.686,208.946 8.4,209.41C10.881,204.576 10.74,199.099 8.04,195.42Z" style="fill:rgb(140,140,140);stroke:black;stroke-width:2.16px;"/>
            </g>
            <g id="path102" transform="matrix(0.866025,0.5,0.5,-0.866025,-59.7277,363.458)">
                <path d="M5.95,196.18C3.115,196.904 0.818,199.428 0,202.72C0.496,205.086 1.134,207.395 1.91,209.63C2.938,208.077 4.38,206.885 6.05,206.21C7.412,202.741 7.376,199.074 5.95,196.18Z" style="fill:rgb(140,140,140);stroke:black;stroke-width:2.16px;"/>
            </g>
            <g id="path107" transform="matrix(3.82857e-16,-1,-1,-3.82857e-16,244.029,189.975)">
                <path d="M7.42,197.92C3.651,200.165 0.901,203.95 0,208.13C3.975,207.592 7.981,208.114 11.5,209.63C11.952,205.047 10.46,200.765 7.42,197.92Z" style="fill:rgb(140,140,140);stroke:black;stroke-width:2.16px;"/>
            </g>
            <g id="path112" transform="matrix(3.82857e-16,-1,-1,-3.82857e-16,220.463,191.621)">
                <path d="M13.46,194.46C9.019,193.012 3.828,194.115 0.01,197.32C-0.12,202.425 2.071,206.989 5.92,209.63C8.229,205.705 11.507,202.497 15.33,200.42C15.631,198.119 14.947,195.94 13.46,194.46Z" style="fill:rgb(140,140,140);stroke:black;stroke-width:2.16px;"/>
            </g>
            <g id="path117" transform="matrix(0.5,-0.866025,-0.866025,-0.5,181.196,284.049)">
                <path d="M13.46,194.46C9.019,193.012 3.828,194.115 0.01,197.32C-0.12,202.425 2.071,206.989 5.92,209.63C8.229,205.705 11.507,202.497 15.33,200.42C15.631,198.119 14.947,195.94 13.46,194.46Z" style="fill:rgb(140,140,140);stroke:black;stroke-width:2.16px;"/>
            </g>
            <g id="path122" transform="matrix(0.866025,-0.5,-0.5,-0.866025,99.7397,343.272)">
                <path d="M15.55,192.11C10.42,190.435 4.422,191.708 0.01,195.41C-0.14,201.307 2.393,206.58 6.84,209.63C9.504,205.097 13.287,201.391 17.7,198.99C18.049,196.336 17.263,193.82 15.55,192.11Z" style="fill:rgb(140,140,140);stroke:black;stroke-width:2.16px;"/>
            </g>
        </g>
        <g id="armed-1" transform="matrix(1,0,0,1,48.5071,-36.419)">
            <g id="path130" transform="matrix(0.0871557,-0.996195,0.996195,0.0871557,-194.74,161.609)">
                <path d="M0,195.79C6.612,196.903 11.507,201.657 11.82,207.27C11.411,208.679 9.885,209.68 8.145,209.68C6.071,209.68 4.364,208.258 4.364,206.531C4.364,206.191 4.43,205.853 4.56,205.53C5.532,201.822 3.729,197.971 0,195.79Z" style="fill:rgb(0,255,0);stroke:black;stroke-width:2.25px;"/>
            </g>
            <g id="path135" transform="matrix(-0.258819,-0.965926,0.965926,-0.258819,-187.282,246.393)">
                <path d="M0,193.98C7.475,195.24 13.007,200.615 13.36,206.96C12.887,208.541 11.168,209.659 9.212,209.659C6.867,209.659 4.937,208.052 4.937,206.099C4.937,205.722 5.009,205.348 5.15,204.99C6.249,200.799 4.213,196.447 0,193.98Z" style="fill:rgb(0,255,0);stroke:black;stroke-width:2.25px;"/>
            </g>
            <g id="path140" transform="matrix(-0.258819,-0.965926,0.965926,-0.258819,-180.941,259.831)">
                <path d="M0,193.98C7.475,195.24 13.007,200.615 13.36,206.96C12.887,208.541 11.168,209.659 9.212,209.659C6.867,209.659 4.937,208.052 4.937,206.099C4.937,205.722 5.009,205.348 5.15,204.99C6.249,200.799 4.213,196.447 0,193.98Z" style="fill:rgb(0,255,0);stroke:black;stroke-width:2.25px;"/>
            </g>
            <g id="path145" transform="matrix(0.156434,-0.987688,-0.987688,-0.156434,284.966,235.882)">
                <path d="M0,193.98C7.475,195.24 13.007,200.615 13.36,206.96C12.887,208.541 11.168,209.659 9.212,209.659C6.867,209.659 4.937,208.052 4.937,206.099C4.937,205.722 5.009,205.348 5.15,204.99C6.249,200.799 4.213,196.447 0,193.98Z" style="fill:rgb(0,255,0);stroke:black;stroke-width:2.25px;"/>
            </g>
        </g>
        <g id="group30-54" transform="matrix(0.984808,-0.173648,0.173648,0.984808,-30.1985,-40.9234)">
            <g id="path153" transform="matrix(0.642788,-0.766044,0.766044,0.642788,-97.7898,31.8223)">
                <path d="M0,199.5C2.709,194.695 7.71,191.608 13.22,191.34C19.232,190.359 23.661,185.061 23.56,178.97C24.87,182.407 25.681,186.013 25.97,189.68C28.233,188.911 29.992,187.096 30.69,184.81C31.669,190.628 28.537,196.411 23.13,198.77C26.293,200.076 29.954,199.281 32.29,196.78C29.828,201.57 25.04,204.746 19.67,205.15C16.823,207.698 13.233,209.268 9.43,209.63C4.08,209.402 -0.155,204.852 0,199.5Z" style="fill:rgb(255,0,0);stroke:black;stroke-width:2.25px;"/>
            </g>
            <path id="path158" d="M0,173.91C3.796,167.264 10.906,163.169 18.56,163.22C19.446,161.415 21.332,160.307 23.34,160.41L30.09,159.84C31.01,155.784 34.724,152.931 38.88,153.09C46.186,152.394 53.547,152.538 60.82,153.52C60.927,153.512 61.035,153.508 61.143,153.508C63.482,153.508 65.408,155.433 65.408,157.773C65.408,157.902 65.402,158.031 65.39,158.16C66.852,151.906 72.692,147.591 79.1,148.03C85.57,146.96 91.134,142.814 94.01,136.92C95.297,141.034 94.306,145.536 91.41,148.73C93.518,148.975 95.652,148.881 97.73,148.45C95.391,153.082 91.284,156.584 86.34,158.16C89.3,158.767 91.947,160.413 93.8,162.8C90.445,162.608 87.087,163.133 83.95,164.34C80.847,167.712 75.799,168.53 71.79,166.31L78.47,174.33L71.58,176.3C73.401,179.205 75.548,181.893 77.98,184.31L69.33,182.06L71.23,193.03L63.98,186.56L61.59,196.27L57.52,190.5C54.697,193.163 50.919,194.584 47.04,194.44C44.722,199.038 41.257,202.962 36.98,205.83L34.95,200.34C34.56,204.76 31.12,208.346 26.72,208.92C27.951,206.941 28.564,204.639 28.48,202.31C25.955,205.064 23.124,207.52 20.04,209.63C21.421,205.404 22.251,201.018 22.51,196.58C19.808,196.125 17.809,193.761 17.809,191.021C17.809,188.815 19.103,186.804 21.11,185.89C25.564,182.688 31.671,182.919 35.87,186.45C42.323,189.988 50.471,188.31 55,182.51C50.562,188.238 42.606,190.019 36.15,186.73C32.212,182.525 25.628,182.035 21.11,185.61C17.153,184.631 14.567,180.748 15.19,176.72C10.84,173.479 5.221,172.44 0,173.91Z" style="fill:rgb(255,0,0);stroke:black;stroke-width:2.25px;"/>
            <g id="path163" transform="matrix(1,0,0,1,71.4668,-48.2344)">
                <path d="M13.61,198.66C11.808,200.999 8.969,202.312 6.02,202.17C2.675,202.308 -0.003,205.098 -0.003,208.446C-0.003,208.843 0.035,209.24 0.11,209.63C2.704,206.581 6.703,205.088 10.66,205.69" style="fill:none;stroke:black;stroke-width:1.5px;"/>
            </g>
            <g id="path168" transform="matrix(0.792083,0.610413,-0.610413,0.792083,145.395,-2.82173)">
                <path d="M0,209.63C2.882,207.548 6.798,207.548 9.68,209.63" style="fill:none;stroke:black;stroke-width:1.5px;"/>
            </g>
            <g id="path173" transform="matrix(0.826821,0.562464,-0.562464,0.826821,128.946,-8.69753)">
                <path d="M0,209.63C3.708,206.904 8.792,206.904 12.5,209.63" style="fill:none;stroke:black;stroke-width:1.5px;"/>
            </g>
            <g id="path178" transform="matrix(1,0,0,1,33.9047,-39.9121)">
                <path d="M0,207.94C1.697,207.536 2.916,206.024 2.95,204.28C6.957,209.341 13.954,211.032 19.83,208.36C16.721,207.989 14.367,205.3 14.41,202.17" style="fill:none;stroke:black;stroke-width:1.5px;"/>
            </g>
            <g id="group37-71" transform="matrix(1,0,0,1,21.0219,-14.8142)">
                <g id="path186" transform="matrix(-1,-7.65714e-16,7.65714e-16,-1,9.84375,407.725)">
                    <path d="M0,198.1C5.509,199.029 9.585,202.993 9.84,207.67C9.451,208.788 8.213,209.563 6.815,209.563C5.087,209.563 3.666,208.379 3.666,206.94C3.666,206.693 3.707,206.447 3.79,206.21C4.6,203.124 3.102,199.918 0,198.1Z" style="fill:white;stroke:black;stroke-width:2.25px;"/>
                </g>
                <g id="path191" transform="matrix(-0.965926,0.258819,-0.258819,-0.965926,67.7023,397.982)">
                    <path d="M0,199.7C4.746,200.498 8.259,203.911 8.48,207.94C8.172,208.934 7.087,209.634 5.854,209.634C4.366,209.634 3.142,208.615 3.142,207.376C3.142,207.143 3.185,206.912 3.27,206.69C3.969,204.029 2.676,201.265 0,199.7Z" style="fill:white;stroke:black;stroke-width:2.25px;"/>
                </g>
            </g>
        </g>
        <g id="group40-76" transform="matrix(0.996195,0.0871557,-0.0871557,0.996195,111.077,-67.1249)">
            <g id="path199" transform="matrix(0.422618,0.906308,0.906308,-0.422618,-180.483,287.412)">
                <path d="M5.9,197.84C3.965,197.295 1.722,197.94 0.09,199.51C-0.178,202.987 0.14,206.41 1.03,209.63C3.294,208.061 5.914,207.183 8.55,207.11C9.019,203.529 8.05,200.139 5.9,197.84Z" style="fill:rgb(140,140,140);stroke:black;stroke-width:2.16px;"/>
            </g>
            <g id="path204" transform="matrix(0.422618,0.906308,0.906308,-0.422618,-172.352,283.546)">
                <path d="M9.05,197.77C6.466,196.938 3.555,197.869 1.51,200.18C-0.133,203.146 -0.46,206.651 0.63,209.63C3.832,208.216 7.25,207.843 10.44,208.56C11.397,204.611 10.888,200.665 9.05,197.77Z" style="fill:rgb(140,140,140);stroke:black;stroke-width:2.16px;"/>
            </g>
            <g id="path209" transform="matrix(0.707107,0.707107,0.707107,-0.707107,-125.048,337.754)">
                <path d="M7.92,194.07C4.517,194.483 1.471,196.926 0.03,200.4C-0.229,204.074 1.132,207.498 3.7,209.63C6.578,208.502 9.695,208.206 12.65,208.78C13.214,203.097 11.484,197.719 7.92,194.07Z" style="fill:rgb(140,140,140);stroke:black;stroke-width:2.16px;"/>
            </g>
            <g id="path214" transform="matrix(0.866025,0.5,0.5,-0.866025,-77.6251,368.515)">
                <path d="M8.04,195.42C4.483,195.981 1.38,198.81 0,202.75C0.01,205.567 1.163,208.119 3.11,209.63C4.843,209.022 6.686,208.946 8.4,209.41C10.881,204.576 10.74,199.099 8.04,195.42Z" style="fill:rgb(140,140,140);stroke:black;stroke-width:2.16px;"/>
            </g>
            <g id="path219" transform="matrix(0.866025,0.5,0.5,-0.866025,-70.1457,363.458)">
                <path d="M5.95,196.18C3.115,196.904 0.818,199.428 0,202.72C0.496,205.086 1.134,207.395 1.91,209.63C2.938,208.077 4.38,206.885 6.05,206.21C7.412,202.741 7.376,199.074 5.95,196.18Z" style="fill:rgb(140,140,140);stroke:black;stroke-width:2.16px;"/>
            </g>
        </g>
        <g id="path224" transform="matrix(1,0,0,1,126.132,-103.5)">
            <path d="M25.31,209.63C15.787,200.043 15.787,184.337 25.31,174.75C27.532,170.289 27.728,165.081 25.849,160.465C22.409,152.015 12.865,147.644 4.22,150.56C3.345,149.129 1.619,148.442 0,148.88C4.88,140.369 12.381,133.657 21.38,129.75C49.592,122.67 79.519,131.78 99,153.38C96.241,173.813 78.611,189.223 57.993,189.223C53.578,189.223 49.192,188.516 45,187.13C35.253,191.088 27.941,199.444 25.31,209.63Z" style="fill:rgb(255,0,0);stroke:black;stroke-width:3px;"/>
        </g>
        <g id="path229" transform="matrix(1,0,0,1,126.571,-111.956)">
            <path d="M0,159.58C29.834,155.297 59.485,169.342 75.07,195.14L92.52,209.63C94.308,202.641 100.19,197.409 107.34,196.45C122.204,192.937 137.842,194.805 151.46,201.72C150.727,200.265 150.212,198.711 149.932,197.106C148.663,189.836 152.391,182.553 159.03,179.33C160.364,175.568 163.481,172.703 167.342,171.69C170.305,170.912 173.456,171.292 176.15,172.75C153.574,183.77 126.041,176.428 111.95,155.63C89.898,135.461 58.276,129.339 30.29,139.82C19.264,144.858 9.054,151.519 0,159.58Z" style="fill:rgb(255,0,0);stroke:black;stroke-width:3px;"/>
        </g>
        <g id="path234" transform="matrix(1,0,0,1,117.911,-100.066)">
            <path d="M10.37,139.31C7.854,142.324 5.627,145.568 3.72,149C4.937,150.481 6.756,151.342 8.673,151.342C11.649,151.342 14.252,149.27 14.92,146.37C25.228,137.575 37.65,131.612 50.96,129.07C56.777,128.332 62.653,128.181 68.5,128.62C66.794,152.352 74.391,175.841 89.67,194.08C97.625,202.221 107.939,207.662 119.15,209.63C91.022,193.226 74.584,162.143 76.86,129.66C79.98,130.202 83.068,130.913 86.11,131.79C97.879,156.785 118.366,177.862 143.18,190.5C155.292,195.674 168.108,197.161 179.81,194.75C146.39,189.473 115.185,167.13 97.98,136.16C108.808,141.063 118.523,148.124 126.53,156.91C134.669,164.776 145.894,168.637 157.15,167.44C172.324,167.513 187.159,162.914 199.63,154.27C209.628,147.804 217.347,138.357 221.69,127.27C208.782,144.801 189.023,156.057 167.36,158.22C155.034,160.625 142.248,157.758 132.13,150.32C117.552,132.449 96.461,121.074 73.52,118.71C53.283,113.656 31.805,119.052 16.36,133.07C9.482,130.25 4.967,123.519 4.967,116.085C4.967,112.53 6,109.05 7.94,106.07C2.946,109.8 -0.002,115.68 -0.002,121.914C-0.002,129.167 3.989,135.861 10.37,139.31Z" style="fill:rgb(140,140,140);stroke:black;stroke-width:3px;"/>
        </g>
    </g>
</svg>
