<?xml version="1.0" encoding="UTF-8" standalone="no"?>
<!DOCTYPE svg PUBLIC "-//W3C//DTD SVG 1.1//EN" "http://www.w3.org/Graphics/SVG/1.1/DTD/svg11.dtd">
<svg width="100%" height="100%" viewBox="0 0 631 548" version="1.1" xmlns="http://www.w3.org/2000/svg" xmlns:xlink="http://www.w3.org/1999/xlink" xml:space="preserve" xmlns:serif="http://www.serif.com/" style="fill-rule:evenodd;clip-rule:evenodd;stroke-linecap:round;stroke-linejoin:round;stroke-miterlimit:3;">
    <g id="group1-1" transform="matrix(1,0,0,1,81.2923,-9.03383)">
        <g id="group62-2" transform="matrix(1,0,0,1,0,-222.3)">
            <g id="group59-3" transform="matrix(-1,0,0,1,468.018,-1.13687e-13)">
                <g id="shape60-4" transform="matrix(-0.869495,-0.493942,-0.493942,0.869495,452.746,104.101)">
                    <path d="M103.6,406.28C150.211,368.046 210.989,338.689 279.74,321.2C239.761,341.452 229.594,379.409 256.56,407.74C222.751,425.108 205.085,453.269 210.2,481.64C179.944,497.647 161.868,521.918 160.95,547.77C130.642,531.984 91.514,525.776 53.68,530.75C41.291,519.973 25.62,513.489 8.99,512.26C8.839,494.882 5.8,477.579 0,461.08C8.312,465.625 18.165,468.591 28.421,469.634C58.32,472.676 84.604,458.667 86.646,438.599C86.676,438.307 86.701,438.014 86.72,437.72C93.892,427.678 99.55,417.14 103.6,406.28Z" style="fill:rgb(255,0,0);stroke:black;stroke-width:2.25px;"/>
                </g>
                <g id="shape61-6" transform="matrix(-0.869495,-0.493942,-0.493942,0.869495,450.187,123.665)">
                    <path d="M91.05,434.45L93.29,431.79C148.284,434.905 195.659,449.612 229.46,474.06C202.891,443.38 154.093,425.968 94.91,426.05C95.149,425.027 95.353,424.003 95.52,422.98C155.001,397.181 225.682,385.022 297.18,388.29C228.727,377.146 156.556,386.373 99.38,413.58C103.328,406.39 106.439,398.928 108.68,391.27C160.061,349.824 225.74,317.434 300.08,296.88C229.112,313.225 165.181,341.207 114.15,378.26C117.326,374.202 119.699,369.881 121.2,365.42C122.567,359.472 129.503,355.596 136.79,356.71C134.616,353.892 128.381,353.89 122.376,356.707C118.779,358.394 115.773,360.854 114.21,363.39C101.989,383.343 90.957,403.546 81.14,423.95C76.563,437.122 58.814,446.403 38.619,446.185C26.827,446.057 15.566,442.705 7.46,436.91C6.375,436.765 5.155,436.921 3.999,437.353C1.194,438.4 -0.536,440.807 0.165,442.686C0.377,443.252 0.794,443.731 1.38,444.08C12.522,451.887 27.999,456.217 43.88,455.97C64.742,481.047 68.054,502.613 53.42,518.1C70.954,503.715 72.784,476.391 57.489,457.354C56.53,456.161 55.516,455.015 54.45,453.92C67.523,452.181 79.058,447.207 86.78,439.98C131.934,469.254 161.328,506.789 171.19,547.77C169.988,503.868 141.197,463.156 91.05,434.45Z" style="fill:rgb(140,140,140);stroke:black;stroke-width:2.25px;"/>
                </g>
            </g>
            <g id="group190-8">
                <g id="shape191-9" transform="matrix(-0.869495,-0.493942,-0.493942,0.869495,452.746,104.101)">
                    <path d="M103.6,406.28C150.211,368.046 210.989,338.689 279.74,321.2C239.761,341.452 229.594,379.409 256.56,407.74C222.751,425.108 205.085,453.269 210.2,481.64C179.944,497.647 161.868,521.918 160.95,547.77C130.642,531.984 91.514,525.776 53.68,530.75C41.291,519.973 25.62,513.489 8.99,512.26C8.839,494.882 5.8,477.579 0,461.08C8.312,465.625 18.165,468.591 28.421,469.634C58.32,472.676 84.604,458.667 86.646,438.599C86.676,438.307 86.701,438.014 86.72,437.72C93.892,427.678 99.55,417.14 103.6,406.28Z" style="fill:rgb(255,0,0);stroke:black;stroke-width:2.25px;"/>
                </g>
                <g id="shape192-11" transform="matrix(-0.869495,-0.493942,-0.493942,0.869495,450.187,123.665)">
                    <path d="M91.05,434.45L93.29,431.79C148.284,434.905 195.659,449.612 229.46,474.06C202.891,443.38 154.093,425.968 94.91,426.05C95.149,425.027 95.353,424.003 95.52,422.98C155.001,397.181 225.682,385.022 297.18,388.29C228.727,377.146 156.556,386.373 99.38,413.58C103.328,406.39 106.439,398.928 108.68,391.27C160.061,349.824 225.74,317.434 300.08,296.88C229.112,313.225 165.181,341.207 114.15,378.26C117.326,374.202 119.699,369.881 121.2,365.42C122.567,359.472 129.503,355.596 136.79,356.71C134.616,353.892 128.381,353.89 122.376,356.707C118.779,358.394 115.773,360.854 114.21,363.39C101.989,383.343 90.957,403.546 81.14,423.95C76.563,437.122 58.814,446.403 38.619,446.185C26.827,446.057 15.566,442.705 7.46,436.91C6.375,436.765 5.155,436.921 3.999,437.353C1.194,438.4 -0.536,440.807 0.165,442.686C0.377,443.252 0.794,443.731 1.38,444.08C12.522,451.887 27.999,456.217 43.88,455.97C64.742,481.047 68.054,502.613 53.42,518.1C70.954,503.715 72.784,476.391 57.489,457.354C56.53,456.161 55.516,455.015 54.45,453.92C67.523,452.181 79.058,447.207 86.78,439.98C131.934,469.254 161.328,506.789 171.19,547.77C169.988,503.868 141.197,463.156 91.05,434.45Z" style="fill:rgb(140,140,140);stroke:black;stroke-width:2.25px;"/>
                </g>
            </g>
        </g>
        <g id="group23-13" transform="matrix(-0.173648,-0.984808,0.984808,-0.173648,-78.8352,631.065)">
            <g id="shape93-14" transform="matrix(0.965926,0.258819,-0.258819,0.965926,225.369,-32.643)">
                <path d="M0,509.21C0.269,513.102 1.717,516.821 4.15,519.87C21.922,518.354 39.747,522.193 55.32,530.89C46.015,532.659 38.208,539.016 34.59,547.77C53.994,537.943 76.36,535.62 97.37,541.25C77.448,533.133 60.348,519.33 48.21,501.57C45.892,511.007 49.68,520.949 57.69,526.45C41.246,513.794 20.691,507.652 0,509.21Z" style="fill:rgb(255,0,0);stroke:black;stroke-width:2.25px;"/>
            </g>
            <g id="group103-16">
                <g id="group104-17" transform="matrix(0.707107,0.707107,-0.707107,0.707107,439.909,147.789)">
                    <g id="shape106-19" transform="matrix(0.819152,0.573576,-0.573576,0.819152,314.178,86.915)">
                        <path d="M0.37,535.8C2.111,535.184 3.944,534.87 5.791,534.87C13.327,534.87 19.924,540.109 21.63,547.45C16.077,543.574 8.615,543.704 3.2,547.77C0.428,544.45 -0.622,540.01 0.37,535.8Z" style="fill:rgb(255,0,0);stroke:black;stroke-width:2.25px;"/>
                    </g>
                    <g id="shape108-22" transform="matrix(1,0,0,1,7.07,-40.633)">
                        <path d="M0.37,535.8C2.111,535.184 3.944,534.87 5.791,534.87C13.327,534.87 19.924,540.109 21.63,547.45C16.077,543.574 8.615,543.704 3.2,547.77C0.428,544.45 -0.622,540.01 0.37,535.8Z" style="fill:rgb(255,0,0);stroke:black;stroke-width:2.25px;"/>
                    </g>
                    <g id="shape110-25" transform="matrix(0.965926,-0.258819,0.258819,0.965926,-139.028,-35.281)">
                        <path d="M0.37,535.8C2.111,535.184 3.944,534.87 5.791,534.87C13.327,534.87 19.924,540.109 21.63,547.45C16.077,543.574 8.615,543.704 3.2,547.77C0.428,544.45 -0.622,540.01 0.37,535.8Z" style="fill:rgb(255,0,0);stroke:black;stroke-width:2.25px;"/>
                    </g>
                    <g id="shape112-28" transform="matrix(0.906308,0.422618,-0.422618,0.906308,236.363,24.6362)">
                        <path d="M0.37,535.8C2.111,535.184 3.944,534.87 5.791,534.87C13.327,534.87 19.924,540.109 21.63,547.45C16.077,543.574 8.615,543.704 3.2,547.77C0.428,544.45 -0.622,540.01 0.37,535.8Z" style="fill:rgb(255,0,0);stroke:black;stroke-width:2.25px;"/>
                    </g>
                </g>
                <g id="group113-30" transform="matrix(-0.707107,0.707107,-0.707107,-0.707107,399.979,869.71)">
                    <g id="shape115-32" transform="matrix(0.819152,0.573576,-0.573576,0.819152,314.178,86.915)">
                        <path d="M0.37,535.8C2.111,535.184 3.944,534.87 5.791,534.87C13.327,534.87 19.924,540.109 21.63,547.45C16.077,543.574 8.615,543.704 3.2,547.77C0.428,544.45 -0.622,540.01 0.37,535.8Z" style="fill:rgb(255,0,0);stroke:black;stroke-width:2.25px;"/>
                    </g>
                    <g id="shape117-35" transform="matrix(1,0,0,1,7.07,-40.633)">
                        <path d="M0.37,535.8C2.111,535.184 3.944,534.87 5.791,534.87C13.327,534.87 19.924,540.109 21.63,547.45C16.077,543.574 8.615,543.704 3.2,547.77C0.428,544.45 -0.622,540.01 0.37,535.8Z" style="fill:rgb(255,0,0);stroke:black;stroke-width:2.25px;"/>
                    </g>
                    <g id="shape119-38" transform="matrix(0.965926,-0.258819,0.258819,0.965926,-139.028,-35.281)">
                        <path d="M0.37,535.8C2.111,535.184 3.944,534.87 5.791,534.87C13.327,534.87 19.924,540.109 21.63,547.45C16.077,543.574 8.615,543.704 3.2,547.77C0.428,544.45 -0.622,540.01 0.37,535.8Z" style="fill:rgb(255,0,0);stroke:black;stroke-width:2.25px;"/>
                    </g>
                    <g id="shape121-41" transform="matrix(0.906308,0.422618,-0.422618,0.906308,236.363,24.6362)">
                        <path d="M0.37,535.8C2.111,535.184 3.944,534.87 5.791,534.87C13.327,534.87 19.924,540.109 21.63,547.45C16.077,543.574 8.615,543.704 3.2,547.77C0.428,544.45 -0.622,540.01 0.37,535.8Z" style="fill:rgb(255,0,0);stroke:black;stroke-width:2.25px;"/>
                    </g>
                </g>
                <g id="group122-43" transform="matrix(-0.707107,-0.707107,0.707107,-0.707107,-326.079,829.125)">
                    <g id="shape124-45" transform="matrix(0.819152,0.573576,-0.573576,0.819152,314.178,86.915)">
                        <path d="M0.37,535.8C2.111,535.184 3.944,534.87 5.791,534.87C13.327,534.87 19.924,540.109 21.63,547.45C16.077,543.574 8.615,543.704 3.2,547.77C0.428,544.45 -0.622,540.01 0.37,535.8Z" style="fill:rgb(255,0,0);stroke:black;stroke-width:2.25px;"/>
                    </g>
                    <g id="shape126-48" transform="matrix(1,0,0,1,7.07,-40.633)">
                        <path d="M0.37,535.8C2.111,535.184 3.944,534.87 5.791,534.87C13.327,534.87 19.924,540.109 21.63,547.45C16.077,543.574 8.615,543.704 3.2,547.77C0.428,544.45 -0.622,540.01 0.37,535.8Z" style="fill:rgb(255,0,0);stroke:black;stroke-width:2.25px;"/>
                    </g>
                    <g id="shape128-51" transform="matrix(0.965926,-0.258819,0.258819,0.965926,-139.028,-35.281)">
                        <path d="M0.37,535.8C2.111,535.184 3.944,534.87 5.791,534.87C13.327,534.87 19.924,540.109 21.63,547.45C16.077,543.574 8.615,543.704 3.2,547.77C0.428,544.45 -0.622,540.01 0.37,535.8Z" style="fill:rgb(255,0,0);stroke:black;stroke-width:2.25px;"/>
                    </g>
                    <g id="shape130-54" transform="matrix(0.906308,0.422618,-0.422618,0.906308,236.363,24.6362)">
                        <path d="M0.37,535.8C2.111,535.184 3.944,534.87 5.791,534.87C13.327,534.87 19.924,540.109 21.63,547.45C16.077,543.574 8.615,543.704 3.2,547.77C0.428,544.45 -0.622,540.01 0.37,535.8Z" style="fill:rgb(255,0,0);stroke:black;stroke-width:2.25px;"/>
                    </g>
                </g>
            </g>
            <g id="shape26-56" transform="matrix(1,0,0,1,14.0283,-18.9)">
                <path d="M59.53,467.92C47.225,462.566 33.085,463.336 21.435,469.995C3.568,480.206 -4.458,501.987 2.51,521.35C9.749,537.583 26.034,548 43.806,547.767C56.518,547.601 68.571,542.004 76.9,532.4C92.127,508.266 98.25,479.472 94.16,451.23L57.1,453.12C58.148,458.011 58.959,462.95 59.53,467.92L59.59,467.95L59.65,468.99C60.971,481.26 60.827,493.644 59.22,505.88C58.007,516.459 48.95,524.536 38.302,524.536C26.751,524.536 17.247,515.031 17.247,503.481C17.247,498.411 19.077,493.509 22.4,489.68C32.193,478.847 48.825,477.241 60.51,486L59.65,468.99C59.611,468.633 59.571,468.277 59.53,467.92Z" style="fill:rgb(255,0,0);stroke:black;stroke-width:3px;"/>
            </g>
            <g id="group22-58" transform="matrix(1,0,0,1,37.2106,-35.4035)">
                <g id="shape152-59" transform="matrix(0.984808,0.173648,-0.173648,0.984808,125.747,-58.29)">
                    <path d="M17.6,531.19C11.524,531.141 5.598,532.648 0.37,535.57C-0.917,540.201 1.254,545.304 5.56,547.77C10.637,546.439 15.688,545.009 20.71,543.48C21.398,539.107 20.261,534.614 17.6,531.19Z" style="fill:rgb(140,140,140);stroke:black;stroke-width:2.16px;"/>
                </g>
                <g id="shape153-61" transform="matrix(0.939693,0.34202,-0.34202,0.939693,218.831,-21.9435)">
                    <path d="M15.19,528.27C9.657,529.396 4.56,531.906 0.37,535.57C-0.917,540.201 1.254,545.304 5.56,547.77C10.89,545.454 16.174,543.033 21.41,540.51C21.094,535.726 18.82,531.25 15.19,528.27Z" style="fill:rgb(140,140,140);stroke:black;stroke-width:2.16px;"/>
                </g>
                <g id="shape154-63" transform="matrix(0.939693,0.34202,-0.34202,0.939693,219.561,-8.48991)">
                    <path d="M16.42,528.4C10.492,529.376 4.972,531.842 0.37,535.57C-0.917,540.201 1.254,545.304 5.56,547.77C10.157,545.766 14.714,543.673 19.23,541.49C20.126,536.901 19.098,532.115 16.42,528.4Z" style="fill:rgb(140,140,140);stroke:black;stroke-width:2.16px;"/>
                </g>
                <g id="shape155-65" transform="matrix(0.939693,0.34202,-0.34202,0.939693,220.347,1.55605)">
                    <path d="M14.46,531.75C9.39,532.378 4.616,534.287 0.58,537.3C-0.866,541.002 0.494,545.382 3.83,547.77C7.897,546.766 11.944,545.682 15.97,544.52C17.238,540.213 16.686,535.544 14.46,531.75Z" style="fill:rgb(140,140,140);stroke:black;stroke-width:2.16px;"/>
                </g>
                <g id="shape156-67" transform="matrix(0.906308,0.422618,-0.422618,0.906308,264.117,27.6823)">
                    <path d="M11.88,534.6C7.711,535.119 3.787,536.691 0.47,539.17C-0.715,542.211 0.401,545.807 3.14,547.77C6.487,546.945 9.817,546.055 13.13,545.1C14.171,541.557 13.714,537.718 11.88,534.6Z" style="fill:rgb(140,140,140);stroke:black;stroke-width:2.16px;"/>
                </g>
                <g id="shape157-69" transform="matrix(0.766044,0.642788,-0.642788,0.766044,382.206,109.431)">
                    <path d="M10,536.69C6.493,537.125 3.191,538.446 0.4,540.53C-0.598,543.091 0.343,546.119 2.65,547.77C5.464,547.075 8.265,546.325 11.05,545.52C11.924,542.541 11.54,539.312 10,536.69Z" style="fill:rgb(140,140,140);stroke:black;stroke-width:2.16px;"/>
                </g>
                <g id="shape158-71" transform="matrix(0.642788,0.766044,-0.766044,0.642788,446.243,181.324)">
                    <path d="M9.63,537.1C6.251,537.519 3.069,538.791 0.38,540.8C-0.58,543.266 0.328,546.181 2.55,547.77C5.26,547.103 7.957,546.383 10.64,545.61C11.485,542.739 11.115,539.627 9.63,537.1Z" style="fill:rgb(140,140,140);stroke:black;stroke-width:2.16px;"/>
                </g>
                <g id="shape159-73" transform="matrix(0.48481,0.87462,-0.87462,0.48481,502.342,271.622)">
                    <path d="M8.23,538.65C5.344,539.008 2.627,540.095 0.33,541.81C-0.492,543.917 0.282,546.41 2.18,547.77C4.495,547.198 6.799,546.582 9.09,545.92C9.811,543.468 9.497,540.81 8.23,538.65Z" style="fill:rgb(140,140,140);stroke:black;stroke-width:2.16px;"/>
                </g>
                <g id="shape160-75" transform="matrix(0.258819,0.965926,-0.965926,0.258819,547.328,397.04)">
                    <path d="M8.23,538.65C5.344,539.008 2.627,540.095 0.33,541.81C-0.492,543.917 0.282,546.41 2.18,547.77C4.495,547.198 6.799,546.582 9.09,545.92C9.811,543.468 9.497,540.81 8.23,538.65Z" style="fill:rgb(140,140,140);stroke:black;stroke-width:2.16px;"/>
                </g>
                <g id="shape161-77" transform="matrix(0.0871557,0.996195,-0.996195,0.0871557,558.511,491.848)">
                    <path d="M8.53,539.17C5.815,539.28 3.201,540.081 0.93,541.5C-0.409,543.34 -0.292,545.963 1.21,547.77C3.072,547.676 4.932,547.546 6.79,547.38C8.476,544.983 9.112,541.981 8.53,539.17Z" style="fill:rgb(140,140,140);stroke:black;stroke-width:2.16px;"/>
                </g>
                <g id="shape162-79" transform="matrix(-0.0871557,0.996195,-0.996195,-0.0871557,554.357,586.609)">
                    <path d="M7.17,540.53C4.887,540.626 2.689,541.303 0.78,542.5C-0.343,544.048 -0.243,546.252 1.02,547.77C2.585,547.691 4.149,547.581 5.71,547.44C7.128,545.422 7.662,542.895 7.17,540.53Z" style="fill:rgb(140,140,140);stroke:black;stroke-width:2.16px;"/>
                </g>
                <g id="shape163-81" transform="matrix(-0.258819,0.965926,-0.965926,-0.258819,534.848,679.833)">
                    <path d="M5.63,542.08C3.836,542.156 2.109,542.689 0.61,543.63C-0.272,544.846 -0.193,546.578 0.8,547.77C2.031,547.707 3.262,547.621 4.49,547.51C5.602,545.923 6.019,543.938 5.63,542.08Z" style="fill:rgb(140,140,140);stroke:black;stroke-width:2.16px;"/>
                </g>
                <g id="shape164-83" transform="matrix(-0.5,0.866025,-0.866025,-0.5,477.972,810.226)">
                    <path d="M4.51,543.22C3.074,543.277 1.692,543.7 0.49,544.45C-0.22,545.424 -0.157,546.814 0.64,547.77C1.624,547.719 2.608,547.649 3.59,547.56C4.481,546.293 4.817,544.706 4.51,543.22Z" style="fill:rgb(140,140,140);stroke:black;stroke-width:2.16px;"/>
                </g>
                <g id="shape165-85" transform="matrix(-0.707107,0.707107,-0.707107,-0.707107,389.285,922.218)">
                    <path d="M3.68,544.05C2.508,544.099 1.38,544.446 0.4,545.06C-0.18,545.855 -0.13,546.989 0.52,547.77C1.324,547.729 2.128,547.672 2.93,547.6C3.659,546.563 3.933,545.265 3.68,544.05Z" style="fill:rgb(140,140,140);stroke:black;stroke-width:2.16px;"/>
                </g>
            </g>
        </g>
        <g id="group198-87" transform="matrix(1,0,0,1,180.318,-79.2)">
            <g id="shape196-88" transform="matrix(1,0,0,1,0,12.275)">
                <path d="M53.61,267.15L34.65,267.07L28.87,337.94C29.29,345.749 26.137,353.045 21.27,355.52C10.903,364.094 3.439,379.087 0.8,396.64C-1.975,425.629 2.563,455.173 13.49,479.25C11.762,492.036 11.691,504.325 13.28,515.69C18.42,534.558 35.684,547.748 55.239,547.748C73.938,547.748 90.638,535.689 96.52,517.94C97.392,505.736 96.506,492.697 93.89,479.25C104.82,455.175 109.362,425.631 106.59,396.64C103.949,379.084 96.481,364.091 86.11,355.52C81.243,353.045 78.09,345.749 78.51,337.94L72.73,267.07L53.77,267.15L53.69,267.15L53.61,267.15Z" style="fill:rgb(255,0,0);stroke:black;stroke-width:3px;"/>
            </g>
            <g id="group21-90" transform="matrix(1,0,0,1,34.425,-9.1125)">
                <g id="shape201-91" transform="matrix(1,0,0,1,1.54688,-213.469)">
                    <path d="M26.89,547.77C26.89,547.77 26.891,547.77 26.891,547.77C31.581,547.77 35.44,543.911 35.44,539.221L35.44,539.219C35.44,534.529 31.581,530.67 26.891,530.67C26.891,530.67 26.89,530.67 26.89,530.67L8.55,530.67C8.55,530.67 8.549,530.67 8.549,530.67C3.859,530.67 0,534.529 0,539.219L0,539.221C0,543.911 3.859,547.77 8.549,547.77L26.89,547.77Z" style="fill:rgb(140,140,140);stroke:black;stroke-width:1.5px;"/>
                </g>
                <g id="shape202-93" transform="matrix(1,0,0,1,2.39063,-196.172)">
                    <path d="M25.2,547.77C25.2,547.77 25.201,547.77 25.201,547.77C29.891,547.77 33.75,543.911 33.75,539.221L33.75,539.219C33.75,534.529 29.891,530.67 25.201,530.67C25.201,530.67 25.2,530.67 25.2,530.67L8.55,530.67C8.55,530.67 8.549,530.67 8.549,530.67C3.859,530.67 0,534.529 0,539.219L0,539.221C0,543.911 3.859,547.77 8.549,547.77L25.2,547.77Z" style="fill:rgb(140,140,140);stroke:black;stroke-width:1.5px;"/>
                </g>
                <g id="shape203-95" transform="matrix(1,0,0,1,2.88281,-179.016)">
                    <path d="M24.22,547.77C24.22,547.77 24.221,547.77 24.221,547.77C28.911,547.77 32.77,543.911 32.77,539.221L32.77,539.219C32.77,534.529 28.911,530.67 24.221,530.67C24.221,530.67 24.22,530.67 24.22,530.67L8.55,530.67C8.55,530.67 8.549,530.67 8.549,530.67C3.859,530.67 0,534.529 0,539.219L0,539.221C0,543.911 3.859,547.77 8.549,547.77L24.22,547.77Z" style="fill:rgb(140,140,140);stroke:black;stroke-width:1.5px;"/>
                </g>
                <g id="shape204-97" transform="matrix(1,0,0,1,3.44531,-161.438)">
                    <path d="M23.09,547.77C23.09,547.77 23.091,547.77 23.091,547.77C27.781,547.77 31.64,543.911 31.64,539.221L31.64,539.219C31.64,534.529 27.781,530.67 23.091,530.67C23.091,530.67 23.09,530.67 23.09,530.67L8.55,530.67C8.55,530.67 8.549,530.67 8.549,530.67C3.859,530.67 0,534.529 0,539.219L0,539.221C0,543.911 3.859,547.77 8.549,547.77L23.09,547.77Z" style="fill:rgb(140,140,140);stroke:black;stroke-width:1.5px;"/>
                </g>
                <g id="shape205-99" transform="matrix(1,0,0,1,3.95508,-144.422)">
                    <path d="M22.07,547.77C22.07,547.77 22.071,547.77 22.071,547.77C26.761,547.77 30.62,543.911 30.62,539.221L30.62,539.219C30.62,534.529 26.761,530.67 22.071,530.67C22.071,530.67 22.07,530.67 22.07,530.67L8.55,530.67C8.55,530.67 8.549,530.67 8.549,530.67C3.859,530.67 0,534.529 0,539.219L0,539.221C0,543.911 3.859,547.77 8.549,547.77L22.07,547.77Z" style="fill:rgb(140,140,140);stroke:black;stroke-width:1.5px;"/>
                </g>
                <g id="shape206-101" transform="matrix(1,0,0,1,4.50352,-127.237)">
                    <path d="M20.98,547.77C25.667,547.765 29.521,543.907 29.52,539.22C29.521,534.533 25.667,530.675 20.98,530.67L8.55,530.67C8.55,530.67 8.549,530.67 8.549,530.67C3.859,530.67 0,534.529 0,539.219L0,539.221C0,543.911 3.859,547.77 8.549,547.77L20.98,547.77Z" style="fill:rgb(140,140,140);stroke:black;stroke-width:1.5px;"/>
                </g>
                <g id="shape207-103" transform="matrix(1,0,0,1,5.12578,-110.025)">
                    <path d="M19.73,547.77C19.73,547.77 19.731,547.77 19.731,547.77C24.421,547.77 28.28,543.911 28.28,539.221L28.28,539.219C28.28,534.529 24.421,530.67 19.731,530.67C19.731,530.67 19.73,530.67 19.73,530.67L8.55,530.67C8.55,530.67 8.549,530.67 8.549,530.67C3.859,530.67 0,534.529 0,539.219L0,539.221C0,543.911 3.859,547.77 8.549,547.77L19.73,547.77Z" style="fill:rgb(140,140,140);stroke:black;stroke-width:1.5px;"/>
                </g>
                <g id="shape208-105" transform="matrix(1,0,0,1,5.68125,-92.9812)">
                    <path d="M18.62,547.77C18.62,547.77 18.621,547.77 18.621,547.77C23.311,547.77 27.17,543.911 27.17,539.221L27.17,539.219C27.17,534.529 23.311,530.67 18.621,530.67C18.621,530.67 18.62,530.67 18.62,530.67L8.55,530.67C8.55,530.67 8.549,530.67 8.549,530.67C3.859,530.67 0,534.529 0,539.219L0,539.221C0,543.911 3.859,547.77 8.549,547.77L18.62,547.77Z" style="fill:rgb(140,140,140);stroke:black;stroke-width:1.5px;"/>
                </g>
                <g id="shape209-107" transform="matrix(1,0,0,1,6.24727,-75.8813)">
                    <path d="M17.49,547.77C17.49,547.77 17.491,547.77 17.491,547.77C22.181,547.77 26.04,543.911 26.04,539.221L26.04,539.219C26.04,534.529 22.181,530.67 17.491,530.67C17.491,530.67 17.49,530.67 17.49,530.67L8.55,530.67C8.55,530.67 8.549,530.67 8.549,530.67C3.859,530.67 0,534.529 0,539.219L0,539.221C0,543.911 3.859,547.77 8.549,547.77L17.49,547.77Z" style="fill:rgb(140,140,140);stroke:black;stroke-width:1.5px;"/>
                </g>
                <g id="shape210-109" transform="matrix(1,0,0,1,6.70781,-58.7813)">
                    <path d="M16.57,547.77C16.57,547.77 16.571,547.77 16.571,547.77C21.261,547.77 25.12,543.911 25.12,539.221L25.12,539.219C25.12,534.529 21.261,530.67 16.571,530.67C16.571,530.67 16.57,530.67 16.57,530.67L8.55,530.67C8.55,530.67 8.549,530.67 8.549,530.67C3.859,530.67 0,534.529 0,539.219L0,539.221C0,543.911 3.859,547.77 8.549,547.77L16.57,547.77Z" style="fill:rgb(140,140,140);stroke:black;stroke-width:1.5px;"/>
                </g>
                <g id="shape211-111" transform="matrix(1,0,0,1,7.37578,-43.875)">
                    <path d="M16.47,547.77C20.48,547.769 23.779,544.47 23.78,540.46C23.779,536.45 20.48,533.151 16.47,533.15L7.31,533.15C3.3,533.151 0.001,536.45 0,540.46C0.001,544.47 3.3,547.769 7.31,547.77L16.47,547.77Z" style="fill:rgb(140,140,140);stroke:black;stroke-width:1.5px;"/>
                </g>
                <g id="shape212-113" transform="matrix(1,0,0,1,7.71328,-29.1375)">
                    <path d="M15.79,547.77C19.8,547.769 23.099,544.47 23.1,540.46C23.099,536.45 19.8,533.151 15.79,533.15L7.31,533.15C3.3,533.151 0.001,536.45 0,540.46C0.001,544.47 3.3,547.769 7.31,547.77L15.79,547.77Z" style="fill:rgb(140,140,140);stroke:black;stroke-width:1.5px;"/>
                </g>
                <g id="shape213-115" transform="matrix(1,0,0,1,8.35664,-14.4562)">
                    <path d="M14.51,547.77C18.52,547.769 21.819,544.47 21.82,540.46C21.819,536.45 18.52,533.151 14.51,533.15L7.31,533.15C3.3,533.151 0.001,536.45 0,540.46C0.001,544.47 3.3,547.769 7.31,547.77L14.51,547.77Z" style="fill:rgb(140,140,140);stroke:black;stroke-width:1.5px;"/>
                </g>
                <g id="shape214-117" transform="matrix(1,0,0,1,8.61328,0)">
                    <path d="M13.99,547.77C18,547.769 21.299,544.47 21.3,540.46C21.299,536.45 18,533.151 13.99,533.15L7.31,533.15C3.3,533.151 0.001,536.45 0,540.46C0.001,544.47 3.3,547.769 7.31,547.77L13.99,547.77Z" style="fill:rgb(140,140,140);stroke:black;stroke-width:1.5px;"/>
                </g>
            </g>
        </g>
        <g id="group3-119" transform="matrix(1,0,0,1,175.397,-272.7)">
            <g id="group4-120" transform="matrix(1,0,0,1,47.4431,0)">
                <path id="shape5-121" d="M0,525.85C6.293,529.753 14.218,529.998 20.74,526.49C20.474,530.56 18.646,534.374 15.64,537.13C13.129,540.119 12.745,544.38 14.68,547.77C6.161,543.7 0.52,535.277 0,525.85Z" style="fill:rgb(255,0,0);stroke:black;stroke-width:2.25px;"/>
                <g id="shape6-123" transform="matrix(1,0,0,1,6.45413,-9.36098)">
                    <path d="M7.69,525.64C10.281,530.113 9.342,535.846 5.46,539.26C2.9,541.266 1.908,544.71 3.01,547.77C-0.474,544.855 -0.998,539.617 1.84,536.07C3.761,532.825 3.376,528.686 0.89,525.85L7.69,525.64Z" style="fill:rgb(255,0,0);stroke:black;stroke-width:2.25px;"/>
                </g>
            </g>
            <g id="shape7-125" transform="matrix(1,0,0,1,-3.19744e-14,-24.0407)">
                <path d="M58.51,547.54L58.51,547.77L58.61,547.66L58.72,547.77L58.72,547.54L66.17,539.68C66.623,537.159 67.982,534.889 69.99,533.3C73.706,532.833 76.525,529.638 76.525,525.893C76.525,524.443 76.103,523.024 75.31,521.81C73.724,512.653 78.08,503.431 86.16,498.84C88.086,498.781 89.638,497.18 89.638,495.253C89.638,494.163 89.142,493.13 88.29,492.45C87.883,491.962 87.661,491.347 87.661,490.713C87.661,489.612 88.331,488.615 89.35,488.2C91.131,485.673 91.218,482.306 89.57,479.69C87.913,478.978 86.834,477.339 86.834,475.536C86.834,474.177 87.446,472.888 88.5,472.03C89.608,469.657 89.278,466.851 87.65,464.8C88.109,462.026 90.532,459.971 93.344,459.971C94.502,459.971 95.633,460.319 96.59,460.97C96.58,460.811 96.574,460.652 96.574,460.492C96.574,456.461 99.892,453.143 103.923,453.143C104.912,453.143 105.89,453.343 106.8,453.73C106.155,452.105 105.823,450.373 105.823,448.625C105.823,441.953 110.652,436.184 117.22,435.01C101.94,437.408 87.355,443.07 74.46,451.61C69.326,450.073 63.954,449.49 58.61,449.89C53.266,449.49 47.894,450.073 42.76,451.61C29.865,443.07 15.28,437.408 0,435.01C6.568,436.184 11.397,441.953 11.397,448.625C11.397,450.373 11.065,452.105 10.42,453.73C11.333,453.34 12.315,453.139 13.307,453.139C17.339,453.139 20.656,456.456 20.656,460.488C20.656,460.649 20.651,460.809 20.64,460.97C21.595,460.323 22.723,459.977 23.877,459.977C26.686,459.977 29.108,462.029 29.57,464.8C27.942,466.851 27.612,469.657 28.72,472.03C29.776,472.888 30.39,474.178 30.39,475.539C30.39,477.34 29.314,478.976 27.66,479.69C26.009,482.304 26.092,485.671 27.87,488.2C28.889,488.615 29.559,489.612 29.559,490.713C29.559,491.347 29.337,491.962 28.93,492.45C28.078,493.13 27.582,494.163 27.582,495.253C27.582,497.18 29.134,498.781 31.06,498.84C39.14,503.431 43.496,512.653 41.91,521.81C41.117,523.024 40.695,524.443 40.695,525.893C40.695,529.638 43.514,532.833 47.23,533.3C49.242,534.888 50.605,537.158 51.06,539.68L58.51,547.54Z" style="fill:rgb(255,0,0);stroke:black;stroke-width:2.25px;"/>
            </g>
            <g id="shape8-127" transform="matrix(1,0,0,1,87.6528,-106.588)">
                <path d="M28.03,517.98C16.973,519.325 7.433,526.468 3.03,536.7L11.22,532.88C7.346,534.822 4.087,537.803 1.81,541.49C3.211,540.033 5.066,539.094 7.07,538.83C3.744,540.894 1.242,544.058 0,547.77C0.988,532.463 12.812,519.897 28.03,517.98Z" style="fill:rgb(0,102,0);stroke:black;stroke-width:2.25px;"/>
            </g>
            <g id="group9-129" transform="matrix(1,0,0,1,63.5013,-64.4631)">
                <path id="shape10-130" d="M21.81,515.64C24.317,518.035 25.642,521.419 25.427,524.88C25.026,531.322 19.395,536.293 12.953,535.892C12.785,535.882 12.617,535.868 12.45,535.85C7.698,538.432 4.061,542.678 2.24,547.77C0.765,544.728 -0.001,541.391 -0.001,538.01C-0.001,525.948 9.752,515.945 21.81,515.64Z" style="fill:white;stroke:black;stroke-width:2.25px;"/>
                <g id="shape11-132" transform="matrix(1,0,0,1,2.55747,-12.6586)">
                    <path d="M0,538.35C0,533.185 4.25,528.935 9.415,528.935C14.58,528.935 18.83,533.185 18.83,538.35C18.83,543.515 14.58,547.765 9.415,547.765C4.25,547.765 0,543.515 0,538.35Z" style="fill:rgb(179,179,179);stroke:black;stroke-width:2.25px;"/>
                </g>
                <g id="shape12-134" transform="matrix(1,0,0,1,13.4077,-17.1263)">
                    <path d="M0,543.3L1.25,547.77L2.5,543.3L1.25,538.83L0,543.3Z" style="fill:white;stroke:black;stroke-width:2.25px;stroke-linecap:butt;stroke-linejoin:miter;"/>
                </g>
            </g>
            <g id="shape13-136" transform="matrix(-1,0,0,1,29.5722,-106.588)">
                <path d="M28.03,517.98C16.973,519.325 7.433,526.468 3.03,536.7L11.22,532.88C7.346,534.822 4.087,537.803 1.81,541.49C3.211,540.033 5.066,539.094 7.07,538.83C3.744,540.894 1.242,544.058 0,547.77C0.988,532.463 12.812,519.897 28.03,517.98Z" style="fill:rgb(0,102,0);stroke:black;stroke-width:2.25px;"/>
            </g>
            <g id="group14-138" transform="matrix(-1,0,0,1,53.7237,-64.4631)">
                <path id="shape15-139" d="M21.81,515.64C24.317,518.035 25.642,521.419 25.427,524.88C25.026,531.322 19.395,536.293 12.953,535.892C12.785,535.882 12.617,535.868 12.45,535.85C7.698,538.432 4.061,542.678 2.24,547.77C0.765,544.728 -0.001,541.391 -0.001,538.01C-0.001,525.948 9.752,515.945 21.81,515.64Z" style="fill:white;stroke:black;stroke-width:2.25px;"/>
                <g id="shape16-141" transform="matrix(1,0,0,1,2.55747,-12.6586)">
                    <path d="M0,538.35C0,533.185 4.25,528.935 9.415,528.935C14.58,528.935 18.83,533.185 18.83,538.35C18.83,543.515 14.58,547.765 9.415,547.765C4.25,547.765 0,543.515 0,538.35Z" style="fill:rgb(179,179,179);stroke:black;stroke-width:2.25px;"/>
                </g>
                <g id="shape17-143" transform="matrix(1,0,0,1,13.4077,-17.1263)">
                    <path d="M0,543.3L1.25,547.77L2.5,543.3L1.25,538.83L0,543.3Z" style="fill:white;stroke:black;stroke-width:2.25px;stroke-linecap:butt;stroke-linejoin:miter;"/>
                </g>
            </g>
            <g id="shape18-145" transform="matrix(1,0,0,1,53.6129,-114.034)">
                <path d="M10.09,547.77C10.131,540.052 8.273,532.441 4.68,525.61C0.965,532.394 -0.897,540.038 -0.72,547.77L10.09,547.77Z" style="fill:rgb(255,0,0);stroke:black;stroke-width:2.25px;"/>
            </g>
            <g id="shape19-147" transform="matrix(1,0,0,1,17.4455,-24.8917)">
                <path d="M40.85,473.44C39.438,477.588 36.849,481.237 33.4,483.94C33.326,478.788 31.176,473.878 27.44,470.33C28.028,473.558 28.102,476.859 27.66,480.11C24.739,474.269 20.517,469.174 15.32,465.22C15.875,467.697 16.658,470.117 17.66,472.45C12.494,468.813 6.318,466.879 0,466.92C2.643,467.851 4.894,469.654 6.38,472.03C7.069,477.188 11.392,481.15 16.59,481.39C29.677,492.803 36.668,509.728 35.45,527.05C35.537,527.576 35.492,528.115 35.32,528.62C35.371,528.097 35.414,527.574 35.45,527.05C35.217,525.641 34.077,524.546 32.66,524.37C32.606,524.365 32.552,524.363 32.498,524.363C31.487,524.363 30.64,525.161 30.58,526.17C30.652,529.195 32.394,531.944 35.1,533.3C37.898,535.918 39.892,539.28 40.85,542.99L40.85,547.77C40.864,546.653 40.971,545.539 41.17,544.44C41.369,545.539 41.476,546.653 41.49,547.77L41.49,542.99C42.445,539.281 44.436,535.919 47.23,533.3C49.936,531.944 51.678,529.195 51.75,526.17C51.689,525.161 50.842,524.364 49.832,524.364C49.781,524.364 49.73,524.366 49.68,524.37C48.259,524.542 47.114,525.638 46.88,527.05C46.919,527.574 46.966,528.097 47.02,528.62C46.844,528.116 46.796,527.577 46.88,527.05C45.662,509.728 52.653,492.803 65.74,481.39C70.938,481.15 75.261,477.188 75.95,472.03C77.436,469.654 79.687,467.851 82.33,466.92C76.015,466.882 69.844,468.815 64.68,472.45C65.682,470.117 66.465,467.697 67.02,465.22C61.823,469.174 57.601,474.269 54.68,480.11C54.235,476.859 54.306,473.559 54.89,470.33C51.154,473.878 49.004,478.788 48.93,483.94C45.485,481.236 42.899,477.587 41.49,473.44L41.49,471.18C41.395,471.596 41.288,472.01 41.17,472.42C41.052,472.01 40.945,471.596 40.85,471.18L40.85,473.44Z" style="fill:rgb(255,0,0);stroke:black;stroke-width:2.25px;"/>
            </g>
            <g id="shape20-149" transform="matrix(1,0,0,1,49.4643,-87.8656)">
                <path d="M0,532.77L8.83,547.77L17.66,532.77L8.83,517.78L0,532.77Z" style="fill:rgb(255,0,0);stroke:black;stroke-width:2.25px;stroke-linecap:butt;stroke-linejoin:miter;"/>
            </g>
        </g>
        <g id="group87-151" transform="matrix(1,0,0,1,124.958,-8.1)">
            <g id="group84-152" transform="matrix(1,0,0,1,158.4,-2.27374e-13)">
                <g id="group30-153" transform="matrix(0.984808,-0.173648,0.173648,0.984808,-90.3213,-15.225)">
                    <path id="shape29-154" d="M40.5,402.47C40.746,402.463 40.992,402.46 41.238,402.46C56.265,402.46 68.63,414.825 68.63,429.852C68.63,430.098 68.627,430.344 68.62,430.59C63.136,444.129 61.388,458.895 63.56,473.34C68.375,498.471 60.835,524.444 43.31,543.09C37.132,547.114 29.64,548.618 22.387,547.291C11.797,545.353 3.14,537.638 0,527.34C1.921,498.307 9.77,469.973 23.06,444.09C24.09,428.668 30.228,414.019 40.5,402.47Z" style="fill:rgb(255,0,0);stroke:black;stroke-width:3px;"/>
                    <g id="group28-156" transform="matrix(0.996195,0.0871557,-0.0871557,0.996195,49.7783,-6.61416)">
                        <g id="shape24-157" transform="matrix(0.965926,-0.258819,0.258819,0.965926,-135.169,20.1275)">
                            <path d="M64.57,462.02C64.803,484.764 53.724,505.404 36.9,513.57L26.36,545.16C23.739,546.873 20.83,547.768 17.878,547.768C9.462,547.768 2.062,540.497 0,530.2C10.666,517.049 16.821,499.123 17.13,480.31C14.742,465.62 21.194,450.76 32.29,445.39C32.289,445.282 32.289,445.174 32.289,445.066C32.289,429.665 42.332,416.991 54.538,416.991C55.25,416.991 55.962,417.034 56.67,417.12C64.589,417.419 70.974,425.721 70.974,435.718C70.974,437.298 70.815,438.871 70.5,440.4C71.871,442.783 72.609,445.653 72.609,448.597C72.609,454.818 69.313,460.322 64.57,462.02Z" style="fill:rgb(255,0,0);stroke:black;stroke-width:3px;"/>
                        </g>
                        <g id="shape25-159" transform="matrix(-0.175642,0.984454,-0.984454,-0.175642,573.17,544.823)">
                            <path d="M0,544.54C26.789,548.847 54.711,548.847 81.5,544.54" style="fill:none;stroke:black;stroke-width:1.5px;"/>
                        </g>
                    </g>
                </g>
                <g id="group58-162" transform="matrix(1,0,0,1,1.48067,0)">
                    <g id="group68-163" transform="matrix(1,0,0,1,0.9,-17.55)">
                        <g id="shape69-164" transform="matrix(1,0,0,1,24,-1.13687e-13)">
                            <path d="M5.93,547.77C5.932,547.77 5.934,547.77 5.936,547.77C9.191,547.77 11.87,545.091 11.87,541.836C11.87,541.834 11.87,541.832 11.87,541.83L11.87,509.83C11.87,509.828 11.87,509.826 11.87,509.824C11.87,506.569 9.191,503.89 5.936,503.89C5.934,503.89 5.932,503.89 5.93,503.89C2.676,503.892 0,506.571 0,509.824C0,509.826 0,509.828 0,509.83L0,541.83C0,541.832 0,541.834 0,541.836C0,545.089 2.676,547.768 5.93,547.77Z" style="fill:rgb(255,0,0);stroke:black;stroke-width:3px;"/>
                        </g>
                        <g id="shape70-166" transform="matrix(1,0,0,1,36,-1.13687e-13)">
                            <path d="M5.93,547.77C5.932,547.77 5.934,547.77 5.936,547.77C9.191,547.77 11.87,545.091 11.87,541.836C11.87,541.834 11.87,541.832 11.87,541.83L11.87,516.35C11.868,513.096 9.189,510.42 5.936,510.42C5.934,510.42 5.932,510.42 5.93,510.42C2.678,510.422 0.002,513.098 0,516.35L0,541.83C0,541.832 0,541.834 0,541.836C0,545.089 2.676,547.768 5.93,547.77Z" style="fill:rgb(255,0,0);stroke:black;stroke-width:3px;"/>
                        </g>
                        <path id="shape71-168" d="M5.93,547.77C5.932,547.77 5.934,547.77 5.936,547.77C9.191,547.77 11.87,545.091 11.87,541.836C11.87,541.834 11.87,541.832 11.87,541.83L11.87,512.98C11.87,512.978 11.87,512.976 11.87,512.974C11.87,509.719 9.191,507.04 5.936,507.04C5.934,507.04 5.932,507.04 5.93,507.04C2.676,507.042 0,509.721 0,512.974C0,512.976 0,512.978 0,512.98L0,541.83C0,541.832 0,541.834 0,541.836C0,545.089 2.676,547.768 5.93,547.77Z" style="fill:rgb(255,0,0);stroke:black;stroke-width:3px;"/>
                        <g id="shape72-170" transform="matrix(1,0,0,1,12,-1.13687e-13)">
                            <path d="M5.93,547.77C5.932,547.77 5.934,547.77 5.936,547.77C9.191,547.77 11.87,545.091 11.87,541.836C11.87,541.834 11.87,541.832 11.87,541.83L11.87,507.91C11.868,504.656 9.189,501.98 5.936,501.98C5.934,501.98 5.932,501.98 5.93,501.98C2.678,501.982 0.002,504.658 0,507.91L0,541.83C0,541.832 0,541.834 0,541.836C0,545.089 2.676,547.768 5.93,547.77Z" style="fill:rgb(255,0,0);stroke:black;stroke-width:3px;"/>
                        </g>
                    </g>
                    <g id="armed-4">
                        <g id="shape74-173" transform="matrix(0.866025,-0.5,0.5,0.866025,-269.632,73.4588)">
                            <path d="M9.85,526.74C2.951,531.381 -0.802,539.509 0.14,547.77C2.434,540.307 8.439,534.544 15.99,532.56C17.072,531.249 17.266,529.41 16.481,527.902C15.406,525.839 12.825,525.026 10.762,526.1C10.431,526.273 10.124,526.488 9.85,526.74Z" style="fill:rgb(0,255,0);stroke:black;stroke-width:2.25px;"/>
                        </g>
                        <g id="shape75-175" transform="matrix(0.866025,-0.5,0.5,0.866025,-256.582,73.4588)">
                            <path d="M9.85,526.74C2.951,531.381 -0.802,539.509 0.14,547.77C2.434,540.307 8.439,534.544 15.99,532.56C17.072,531.249 17.266,529.41 16.481,527.902C15.406,525.839 12.825,525.026 10.762,526.1C10.431,526.273 10.124,526.488 9.85,526.74Z" style="fill:rgb(0,255,0);stroke:black;stroke-width:2.25px;"/>
                        </g>
                        <g id="shape76-177" transform="matrix(-0.707107,-0.707107,-0.707107,0.707107,415.331,160.297)">
                            <path d="M9.85,526.74C2.951,531.381 -0.802,539.509 0.14,547.77C2.434,540.307 8.439,534.544 15.99,532.56C17.045,531.282 17.258,529.499 16.534,528.009C15.518,525.916 12.96,525.031 10.868,526.047C10.497,526.227 10.154,526.461 9.85,526.74Z" style="fill:rgb(0,255,0);stroke:black;stroke-width:2.25px;"/>
                        </g>
                        <g id="shape77-179" transform="matrix(-0.707107,-0.707107,-0.707107,0.707107,427.481,160.297)">
                            <path d="M9.85,526.74C2.951,531.381 -0.802,539.509 0.14,547.77C2.434,540.307 8.439,534.544 15.99,532.56C17.045,531.282 17.258,529.499 16.534,528.009C15.518,525.916 12.96,525.031 10.868,526.047C10.497,526.227 10.154,526.461 9.85,526.74Z" style="fill:rgb(0,255,0);stroke:black;stroke-width:2.25px;"/>
                        </g>
                    </g>
                </g>
            </g>
            <g id="group31-181" transform="matrix(-1,0,0,1,59.7011,0)">
                <g id="group44-182" transform="matrix(0.984808,-0.173648,0.173648,0.984808,-90.3213,-15.225)">
                    <path id="shape45-183" d="M40.5,402.47C40.746,402.463 40.992,402.46 41.238,402.46C56.265,402.46 68.63,414.825 68.63,429.852C68.63,430.098 68.627,430.344 68.62,430.59C63.136,444.129 61.388,458.895 63.56,473.34C68.375,498.471 60.835,524.444 43.31,543.09C37.132,547.114 29.64,548.618 22.387,547.291C11.797,545.353 3.14,537.638 0,527.34C1.921,498.307 9.77,469.973 23.06,444.09C24.09,428.668 30.228,414.019 40.5,402.47Z" style="fill:rgb(255,0,0);stroke:black;stroke-width:3px;"/>
                    <g id="group46-185" transform="matrix(0.996195,0.0871557,-0.0871557,0.996195,49.7783,-6.61416)">
                        <g id="shape47-186" transform="matrix(0.965926,-0.258819,0.258819,0.965926,-135.169,20.1275)">
                            <path d="M64.57,462.02C64.803,484.764 53.724,505.404 36.9,513.57L26.36,545.16C23.739,546.873 20.83,547.768 17.878,547.768C9.462,547.768 2.062,540.497 0,530.2C10.666,517.049 16.821,499.123 17.13,480.31C14.742,465.62 21.194,450.76 32.29,445.39C32.289,445.282 32.289,445.174 32.289,445.066C32.289,429.665 42.332,416.991 54.538,416.991C55.25,416.991 55.962,417.034 56.67,417.12C64.589,417.419 70.974,425.721 70.974,435.718C70.974,437.298 70.815,438.871 70.5,440.4C71.871,442.783 72.609,445.653 72.609,448.597C72.609,454.818 69.313,460.322 64.57,462.02Z" style="fill:rgb(255,0,0);stroke:black;stroke-width:3px;"/>
                        </g>
                        <g id="shape63-188" transform="matrix(-0.175642,0.984454,-0.984454,-0.175642,573.17,544.823)">
                            <path d="M0,544.54C26.789,548.847 54.711,548.847 81.5,544.54" style="fill:none;stroke:black;stroke-width:1.5px;"/>
                        </g>
                    </g>
                </g>
                <g id="group64-191" transform="matrix(1,0,0,1,1.48067,0)">
                    <g id="group65-192" transform="matrix(1,0,0,1,0.9,-17.55)">
                        <g id="shape66-193" transform="matrix(1,0,0,1,24,-1.13687e-13)">
                            <path d="M5.93,547.77C5.932,547.77 5.934,547.77 5.936,547.77C9.191,547.77 11.87,545.091 11.87,541.836C11.87,541.834 11.87,541.832 11.87,541.83L11.87,509.83C11.87,509.828 11.87,509.826 11.87,509.824C11.87,506.569 9.191,503.89 5.936,503.89C5.934,503.89 5.932,503.89 5.93,503.89C2.676,503.892 0,506.571 0,509.824C0,509.826 0,509.828 0,509.83L0,541.83C0,541.832 0,541.834 0,541.836C0,545.089 2.676,547.768 5.93,547.77Z" style="fill:rgb(255,0,0);stroke:black;stroke-width:3px;"/>
                        </g>
                        <g id="shape67-195" transform="matrix(1,0,0,1,36,-1.13687e-13)">
                            <path d="M5.93,547.77C5.932,547.77 5.934,547.77 5.936,547.77C9.191,547.77 11.87,545.091 11.87,541.836C11.87,541.834 11.87,541.832 11.87,541.83L11.87,516.35C11.868,513.096 9.189,510.42 5.936,510.42C5.934,510.42 5.932,510.42 5.93,510.42C2.678,510.422 0.002,513.098 0,516.35L0,541.83C0,541.832 0,541.834 0,541.836C0,545.089 2.676,547.768 5.93,547.77Z" style="fill:rgb(255,0,0);stroke:black;stroke-width:3px;"/>
                        </g>
                        <path id="shape78-197" d="M5.93,547.77C5.932,547.77 5.934,547.77 5.936,547.77C9.191,547.77 11.87,545.091 11.87,541.836C11.87,541.834 11.87,541.832 11.87,541.83L11.87,512.98C11.87,512.978 11.87,512.976 11.87,512.974C11.87,509.719 9.191,507.04 5.936,507.04C5.934,507.04 5.932,507.04 5.93,507.04C2.676,507.042 0,509.721 0,512.974C0,512.976 0,512.978 0,512.98L0,541.83C0,541.832 0,541.834 0,541.836C0,545.089 2.676,547.768 5.93,547.77Z" style="fill:rgb(255,0,0);stroke:black;stroke-width:3px;"/>
                        <g id="shape79-199" transform="matrix(1,0,0,1,12,-1.13687e-13)">
                            <path d="M5.93,547.77C5.932,547.77 5.934,547.77 5.936,547.77C9.191,547.77 11.87,545.091 11.87,541.836C11.87,541.834 11.87,541.832 11.87,541.83L11.87,507.91C11.868,504.656 9.189,501.98 5.936,501.98C5.934,501.98 5.932,501.98 5.93,501.98C2.678,501.982 0.002,504.658 0,507.91L0,541.83C0,541.832 0,541.834 0,541.836C0,545.089 2.676,547.768 5.93,547.77Z" style="fill:rgb(255,0,0);stroke:black;stroke-width:3px;"/>
                        </g>
                    </g>
                    <g id="armed-3">
                        <g id="shape81-202" transform="matrix(0.866025,-0.5,0.5,0.866025,-269.632,73.4588)">
                            <path d="M9.85,526.74C2.951,531.381 -0.802,539.509 0.14,547.77C2.434,540.307 8.439,534.544 15.99,532.56C17.072,531.249 17.266,529.41 16.481,527.902C15.406,525.839 12.825,525.026 10.762,526.1C10.431,526.273 10.124,526.488 9.85,526.74Z" style="fill:rgb(0,255,0);stroke:black;stroke-width:2.25px;"/>
                        </g>
                        <g id="shape82-204" transform="matrix(0.866025,-0.5,0.5,0.866025,-256.582,73.4588)">
                            <path d="M9.85,526.74C2.951,531.381 -0.802,539.509 0.14,547.77C2.434,540.307 8.439,534.544 15.99,532.56C17.072,531.249 17.266,529.41 16.481,527.902C15.406,525.839 12.825,525.026 10.762,526.1C10.431,526.273 10.124,526.488 9.85,526.74Z" style="fill:rgb(0,255,0);stroke:black;stroke-width:2.25px;"/>
                        </g>
                        <g id="shape83-206" transform="matrix(-0.707107,-0.707107,-0.707107,0.707107,415.331,160.297)">
                            <path d="M9.85,526.74C2.951,531.381 -0.802,539.509 0.14,547.77C2.434,540.307 8.439,534.544 15.99,532.56C17.045,531.282 17.258,529.499 16.534,528.009C15.518,525.916 12.96,525.031 10.868,526.047C10.497,526.227 10.154,526.461 9.85,526.74Z" style="fill:rgb(0,255,0);stroke:black;stroke-width:2.25px;"/>
                        </g>
                        <g id="shape86-208" transform="matrix(-0.707107,-0.707107,-0.707107,0.707107,427.481,160.297)">
                            <path d="M9.85,526.74C2.951,531.381 -0.802,539.509 0.14,547.77C2.434,540.307 8.439,534.544 15.99,532.56C17.045,531.282 17.258,529.499 16.534,528.009C15.518,525.916 12.96,525.031 10.868,526.047C10.497,526.227 10.154,526.461 9.85,526.74Z" style="fill:rgb(0,255,0);stroke:black;stroke-width:2.25px;"/>
                        </g>
                    </g>
                </g>
            </g>
        </g>
        <g id="group90-210" transform="matrix(1,0,0,1,162.656,-62.2942)">
            <g id="shape88-211" transform="matrix(0.996917,0.0784591,-0.0784591,0.996917,125.813,-0.125324)">
                <path d="M23.84,488.87L3.8,427.24C1.358,424.101 0.001,419.976 0.001,415.696C0.001,409.679 2.685,404.094 7.04,401.05C4.221,386.627 8.786,371.505 18.67,362.53C20.241,361.861 21.896,361.519 23.564,361.519C31.54,361.519 38.104,369.341 38.104,378.848C38.104,380.63 37.873,382.402 37.42,384.1C43.14,398.49 44.948,414.657 42.59,430.33C45.989,439.719 49.655,448.967 53.58,458.06C61.888,483.809 56.247,513.142 39.36,532.01C37.492,541.232 30.51,547.782 22.55,547.782C14.59,547.782 7.608,541.232 5.74,532.01L24,488.87C32.15,484.971 41.062,483.903 49.7,485.79C41.008,483.944 32.054,485.011 23.84,488.87Z" style="fill:rgb(255,0,0);stroke:black;stroke-width:3px;"/>
            </g>
            <g id="shape89-213" transform="matrix(-0.996917,0.0784591,0.0784591,0.996917,19.5953,-0.125324)">
                <path d="M23.84,488.87L3.8,427.24C1.358,424.101 0.001,419.976 0.001,415.696C0.001,409.679 2.685,404.094 7.04,401.05C4.221,386.627 8.786,371.505 18.67,362.53C20.241,361.861 21.896,361.519 23.564,361.519C31.54,361.519 38.104,369.341 38.104,378.848C38.104,380.63 37.873,382.402 37.42,384.1C43.14,398.49 44.948,414.657 42.59,430.33C45.989,439.719 49.655,448.967 53.58,458.06C61.888,483.809 56.247,513.142 39.36,532.01C37.492,541.232 30.51,547.782 22.55,547.782C14.59,547.782 7.608,541.232 5.74,532.01L24,488.87C32.15,484.971 41.062,483.903 49.7,485.79C41.008,483.944 32.054,485.011 23.84,488.87Z" style="fill:rgb(255,0,0);stroke:black;stroke-width:3px;"/>
            </g>
        </g>
        <g id="group32-215" transform="matrix(1,0,0,1,184.425,-18)">
            <g id="group33-216" transform="matrix(1,0,0,1,50.4,0)">
                <g id="group34-217" transform="matrix(1,0,0,1,0.9,-17.55)">
                    <g id="shape35-218" transform="matrix(1,0,0,1,24,-1.13687e-13)">
                        <path d="M5.93,547.77C5.932,547.77 5.934,547.77 5.936,547.77C9.191,547.77 11.87,545.091 11.87,541.836C11.87,541.834 11.87,541.832 11.87,541.83L11.87,509.83C11.87,509.828 11.87,509.826 11.87,509.824C11.87,506.569 9.191,503.89 5.936,503.89C5.934,503.89 5.932,503.89 5.93,503.89C2.676,503.892 0,506.571 0,509.824C0,509.826 0,509.828 0,509.83L0,541.83C0,541.832 0,541.834 0,541.836C0,545.089 2.676,547.768 5.93,547.77Z" style="fill:rgb(255,0,0);stroke:black;stroke-width:3px;"/>
                    </g>
                    <g id="shape36-220" transform="matrix(1,0,0,1,36,-1.13687e-13)">
                        <path d="M5.93,547.77C5.932,547.77 5.934,547.77 5.936,547.77C9.191,547.77 11.87,545.091 11.87,541.836C11.87,541.834 11.87,541.832 11.87,541.83L11.87,516.35C11.868,513.096 9.189,510.42 5.936,510.42C5.934,510.42 5.932,510.42 5.93,510.42C2.678,510.422 0.002,513.098 0,516.35L0,541.83C0,541.832 0,541.834 0,541.836C0,545.089 2.676,547.768 5.93,547.77Z" style="fill:rgb(255,0,0);stroke:black;stroke-width:3px;"/>
                    </g>
                    <path id="shape37-222" d="M5.93,547.77C5.932,547.77 5.934,547.77 5.936,547.77C9.191,547.77 11.87,545.091 11.87,541.836C11.87,541.834 11.87,541.832 11.87,541.83L11.87,512.98C11.87,512.978 11.87,512.976 11.87,512.974C11.87,509.719 9.191,507.04 5.936,507.04C5.934,507.04 5.932,507.04 5.93,507.04C2.676,507.042 0,509.721 0,512.974C0,512.976 0,512.978 0,512.98L0,541.83C0,541.832 0,541.834 0,541.836C0,545.089 2.676,547.768 5.93,547.77Z" style="fill:rgb(255,0,0);stroke:black;stroke-width:3px;"/>
                    <g id="shape38-224" transform="matrix(1,0,0,1,12,-1.13687e-13)">
                        <path d="M5.93,547.77C5.932,547.77 5.934,547.77 5.936,547.77C9.191,547.77 11.87,545.091 11.87,541.836C11.87,541.834 11.87,541.832 11.87,541.83L11.87,507.91C11.868,504.656 9.189,501.98 5.936,501.98C5.934,501.98 5.932,501.98 5.93,501.98C2.678,501.982 0.002,504.658 0,507.91L0,541.83C0,541.832 0,541.834 0,541.836C0,545.089 2.676,547.768 5.93,547.77Z" style="fill:rgb(255,0,0);stroke:black;stroke-width:3px;"/>
                    </g>
                </g>
                <g id="armed-2">
                    <g id="shape40-227" transform="matrix(0.866025,-0.5,0.5,0.866025,-269.632,73.4588)">
                        <path d="M9.85,526.74C2.951,531.381 -0.802,539.509 0.14,547.77C2.434,540.307 8.439,534.544 15.99,532.56C17.072,531.249 17.266,529.41 16.481,527.902C15.406,525.839 12.825,525.026 10.762,526.1C10.431,526.273 10.124,526.488 9.85,526.74Z" style="fill:rgb(0,255,0);stroke:black;stroke-width:2.25px;"/>
                    </g>
                    <g id="shape41-229" transform="matrix(0.866025,-0.5,0.5,0.866025,-256.582,73.4588)">
                        <path d="M9.85,526.74C2.951,531.381 -0.802,539.509 0.14,547.77C2.434,540.307 8.439,534.544 15.99,532.56C17.072,531.249 17.266,529.41 16.481,527.902C15.406,525.839 12.825,525.026 10.762,526.1C10.431,526.273 10.124,526.488 9.85,526.74Z" style="fill:rgb(0,255,0);stroke:black;stroke-width:2.25px;"/>
                    </g>
                    <g id="shape42-231" transform="matrix(-0.707107,-0.707107,-0.707107,0.707107,415.331,160.297)">
                        <path d="M9.85,526.74C2.951,531.381 -0.802,539.509 0.14,547.77C2.434,540.307 8.439,534.544 15.99,532.56C17.045,531.282 17.258,529.499 16.534,528.009C15.518,525.916 12.96,525.031 10.868,526.047C10.497,526.227 10.154,526.461 9.85,526.74Z" style="fill:rgb(0,255,0);stroke:black;stroke-width:2.25px;"/>
                    </g>
                    <g id="shape43-233" transform="matrix(-0.707107,-0.707107,-0.707107,0.707107,427.481,160.297)">
                        <path d="M9.85,526.74C2.951,531.381 -0.802,539.509 0.14,547.77C2.434,540.307 8.439,534.544 15.99,532.56C17.045,531.282 17.258,529.499 16.534,528.009C15.518,525.916 12.96,525.031 10.868,526.047C10.497,526.227 10.154,526.461 9.85,526.74Z" style="fill:rgb(0,255,0);stroke:black;stroke-width:2.25px;"/>
                    </g>
                </g>
            </g>
            <g id="group48-235" transform="matrix(-1,0,0,1,48.7688,0)">
                <g id="group49-236" transform="matrix(1,0,0,1,0.9,-17.55)">
                    <g id="shape50-237" transform="matrix(1,0,0,1,24,-1.13687e-13)">
                        <path d="M5.93,547.77C5.932,547.77 5.934,547.77 5.936,547.77C9.191,547.77 11.87,545.091 11.87,541.836C11.87,541.834 11.87,541.832 11.87,541.83L11.87,509.83C11.87,509.828 11.87,509.826 11.87,509.824C11.87,506.569 9.191,503.89 5.936,503.89C5.934,503.89 5.932,503.89 5.93,503.89C2.676,503.892 0,506.571 0,509.824C0,509.826 0,509.828 0,509.83L0,541.83C0,541.832 0,541.834 0,541.836C0,545.089 2.676,547.768 5.93,547.77Z" style="fill:rgb(255,0,0);stroke:black;stroke-width:3px;"/>
                    </g>
                    <g id="shape51-239" transform="matrix(1,0,0,1,36,-1.13687e-13)">
                        <path d="M5.93,547.77C5.932,547.77 5.934,547.77 5.936,547.77C9.191,547.77 11.87,545.091 11.87,541.836C11.87,541.834 11.87,541.832 11.87,541.83L11.87,516.35C11.868,513.096 9.189,510.42 5.936,510.42C5.934,510.42 5.932,510.42 5.93,510.42C2.678,510.422 0.002,513.098 0,516.35L0,541.83C0,541.832 0,541.834 0,541.836C0,545.089 2.676,547.768 5.93,547.77Z" style="fill:rgb(255,0,0);stroke:black;stroke-width:3px;"/>
                    </g>
                    <path id="shape52-241" d="M5.93,547.77C5.932,547.77 5.934,547.77 5.936,547.77C9.191,547.77 11.87,545.091 11.87,541.836C11.87,541.834 11.87,541.832 11.87,541.83L11.87,512.98C11.87,512.978 11.87,512.976 11.87,512.974C11.87,509.719 9.191,507.04 5.936,507.04C5.934,507.04 5.932,507.04 5.93,507.04C2.676,507.042 0,509.721 0,512.974C0,512.976 0,512.978 0,512.98L0,541.83C0,541.832 0,541.834 0,541.836C0,545.089 2.676,547.768 5.93,547.77Z" style="fill:rgb(255,0,0);stroke:black;stroke-width:3px;"/>
                    <g id="shape53-243" transform="matrix(1,0,0,1,12,-1.13687e-13)">
                        <path d="M5.93,547.77C5.932,547.77 5.934,547.77 5.936,547.77C9.191,547.77 11.87,545.091 11.87,541.836C11.87,541.834 11.87,541.832 11.87,541.83L11.87,507.91C11.868,504.656 9.189,501.98 5.936,501.98C5.934,501.98 5.932,501.98 5.93,501.98C2.678,501.982 0.002,504.658 0,507.91L0,541.83C0,541.832 0,541.834 0,541.836C0,545.089 2.676,547.768 5.93,547.77Z" style="fill:rgb(255,0,0);stroke:black;stroke-width:3px;"/>
                    </g>
                </g>
                <g id="armed-1">
                    <g id="shape55-246" transform="matrix(0.866025,-0.5,0.5,0.866025,-269.632,73.4588)">
                        <path d="M9.85,526.74C2.951,531.381 -0.802,539.509 0.14,547.77C2.434,540.307 8.439,534.544 15.99,532.56C17.072,531.249 17.266,529.41 16.481,527.902C15.406,525.839 12.825,525.026 10.762,526.1C10.431,526.273 10.124,526.488 9.85,526.74Z" style="fill:rgb(0,255,0);stroke:black;stroke-width:2.25px;"/>
                    </g>
                    <g id="shape56-248" transform="matrix(0.866025,-0.5,0.5,0.866025,-256.582,73.4588)">
                        <path d="M9.85,526.74C2.951,531.381 -0.802,539.509 0.14,547.77C2.434,540.307 8.439,534.544 15.99,532.56C17.072,531.249 17.266,529.41 16.481,527.902C15.406,525.839 12.825,525.026 10.762,526.1C10.431,526.273 10.124,526.488 9.85,526.74Z" style="fill:rgb(0,255,0);stroke:black;stroke-width:2.25px;"/>
                    </g>
                    <g id="shape57-250" transform="matrix(-0.707107,-0.707107,-0.707107,0.707107,415.331,160.297)">
                        <path d="M9.85,526.74C2.951,531.381 -0.802,539.509 0.14,547.77C2.434,540.307 8.439,534.544 15.99,532.56C17.045,531.282 17.258,529.499 16.534,528.009C15.518,525.916 12.96,525.031 10.868,526.047C10.497,526.227 10.154,526.461 9.85,526.74Z" style="fill:rgb(0,255,0);stroke:black;stroke-width:2.25px;"/>
                    </g>
                    <g id="shape85-252" transform="matrix(-0.707107,-0.707107,-0.707107,0.707107,427.481,160.297)">
                        <path d="M9.85,526.74C2.951,531.381 -0.802,539.509 0.14,547.77C2.434,540.307 8.439,534.544 15.99,532.56C17.045,531.282 17.258,529.499 16.534,528.009C15.518,525.916 12.96,525.031 10.868,526.047C10.497,526.227 10.154,526.461 9.85,526.74Z" style="fill:rgb(0,255,0);stroke:black;stroke-width:2.25px;"/>
                    </g>
                </g>
            </g>
        </g>
    </g>
</svg>
