<?xml version="1.0" encoding="UTF-8" standalone="no"?>
<svg
   version="1.1"
   id="Layer_1"
   x="0px"
   y="0px"
   viewBox="0 0 2317.1679 1606.0309"
   enable-background="new 0 0 2393.879 1657.262"
   xml:space="preserve"
   width="2317.1677"
   height="1606.0309"
   xmlns="http://www.w3.org/2000/svg"
   xmlns:svg="http://www.w3.org/2000/svg"
   xmlns:rdf="http://www.w3.org/1999/02/22-rdf-syntax-ns#"
   xmlns:cc="http://creativecommons.org/ns#"
   xmlns:dc="http://purl.org/dc/elements/1.1/"><defs
   id="defs7" />
<path
   d="m 440.6058,534.78996 c 416.234,-328.412 822.855,-433.237 1224.342,-418.864 78.227,2.8 156.259,10.127 234.131,21.206 30.365,4.32 60.706,9.212 91.025,14.627 108.279,19.342 191.616,-32.013 324.065,76.025 -43.63,-68.419 -102.384,-78.189 -165.1,-107.907 -258.39,-122.4399982 -630.559,-141.463999 -910.991,-90.311999 -162.254,29.595 -288.834,107.440999 -437.136,220.921999 -103.16,78.939 -236.01,139.508 -360.333,284.303 z m 3.092,10.274 c 18.236,-8.807 51.179,-26.241 69.379,-34.497 226.929,-102.933 451.051,-163.314 673.076,-191.962 235.161,-30.345 467.974,-25.095 699.286,2.887 91.963,11.126 220.673,-13.194 275.231,43.347 -3.942,-46.537 -159.851,-68.81 -296.301,-94.167 -216.114,-40.16 -495.092,-60.569 -686.481,-39.277 -160.165,17.82 -310.777,67.583 -458.877,144.258 -56.286,29.14 -116.499,61.121 -172.766,97.512 -30.506,19.73 -71.638,46.078 -102.544,71.897 h -0.003 z m 297.303,291.918 c 71.667,-12.724 -67.271,-71.338 -115.802,-94.68 -51.954,-24.987 -98.402,-66.305 -141.281,-105.548 -7.94,-7.267 -9.145,-17.44 -17.41,-24.197 -60.22,-80.209 -38.806,-142.835 19.715,-197.467 -16.079,-0.875 -28.421,5.471 -37.668,17.807 -9.962,-2.243 -14.823,17.079 -21.66,25.553 -14,17.353 -24.825,34.353 -22.834,49.943 2.769,21.677 5.327,43.161 5.849,61.817 0.591,21.143 -6.882,42.202 -0.249,56.764 7.015,15.4 28.616,16.015 72.217,52.076 7.134,5.9 13.004,15.303 23.203,20.77 53.677,28.773 103.63,56.606 151.309,84.882 28.932,17.159 57.372,47.839 84.611,52.28 z m -282.577,-284.375 c 190.155,-46.646 381.756,-64.41 574.483,-59.649 165.042,4.076 330.91,24.674 497.406,57.8 75.679,15.056 171.351,5.991 227.407,52.561 -22.959,-67.2 -200.533,-83.995 -300.427,-113.01 -64.035,-18.599 -127.953,-33.497 -191.722,-44.409 -122.983,-21.046 -256.57,-36.149 -378.19,-25.021 -75.436,6.901 -139.528,29.376 -214.036,50.202 -72.194,20.18 -150.047,38.616 -214.921,81.526 z m 5.482,19.188 c 171.292,-9.283 342.97,7.59 514.648,43.874 171.677,36.284 343.355,91.979 514.647,160.34 0.137,-10.687 -39.73,-27.242 -83.639,-47.262 -52.993,-24.164 -114.69,-52.126 -155.865,-64.554 -91.354,-27.573 -158.965,-83.233 -256.892,-103.348 -72.557,-14.905 -145.13,-15.654 -222.072,-16.529 -98.925,-1.124 -214.005,-6.446 -310.827,27.479 z m 15.076,19.188 c 467.348,52.484 724.372,240.771 727.55,592.95404 132.744,150.216 279.431,186.183 424.802,222.164 101.212,25.051 270.097,51.567 404.102,16.922 51.64,-13.349 124.447,-33.865 176.459,-70.282 34.448,-24.119 58.241,-58.294 66.251,-90.914 7.991,-32.545 5.125,-90.186 -37.987,-108.911 79.198,131.227 -119.453,208.624 -253.596,228.55 -111.516,16.566 -239.574,23.201 -351.702,-0.827 -41.145,-8.816 -73.337,-22.875 -108.215,-37.988 -54.41,-23.577 -103.838,-51.266 -130.209,-68.459 -17.043,-11.111 -38.106,-26.038 -55.44,-47.793 -52,-65.268 -95.089,-172.837 -92.606,-269.93704 1.425,-55.748 18.574,-108.141 59.271,-147.497 16.01,-15.482 64.09,-42.305 89.58,-49.053 -279.449,-121.362 -587.636,-190.127 -918.263,-168.927 z m 461.321,-202.604 c 141.325,5.11 269.494,25.835 398.492,52.845 108.351,22.686 218.701,48.397 324.066,86.873 -53.811,-40.126 -66.785,-72.13 -52.051,-98.623 24.558,-44.156 118.896,-79.851 243.82,-98.625 -314.797,-30.164 -623.285,-29.262 -914.327,57.53 z m 1032.126,-117.115 c -106.157,-30.478 -161.634,-55.478 -166.428,-74.996 -4.794,-19.519 41.094,-33.56 137.663,-42.121 -163.833,-21.221 -328.787,-29.159 -495.572,-15.38 -148.245,12.247 -297.937,41.654 -449.575,94.142 171.496,-23.057 341.014,-31.814 508.339,-24.743 157.183,6.643 312.434,41.638 465.573,63.098 z m -435.59,290.392 c -86.908,6.888 -140.822,36.643 -163.303,65.964 -17.484,22.806 -12.641,50.736 21.531,85.397 -180.89,-81.562 -226.175,-125.069 -349.105,-158.623 -68.961,-18.824 -140.158,-31.067 -213.874,-35.886 211.675,-29.99 452.874,-3.614 704.753,43.148 z m -1000.284,169.168 c 38.468,50.568 63.925,101.364 77.735,159.922 5.825,24.702 6.59,68.644 -1.524,106.44 -11.119,51.79404 -28.827,95.82604 9.058,83.61704 -46.199,-0.289 -1.112,-72.118 22.147,-108.42104 19.161,-29.905 44.191,-59.871 62.97,-89.773 16.765,-26.697 19.874,-27.315 -3.023,-48.07 -45.991,-41.692 -101.83,-76.499 -167.363,-103.715 z m 733.624,176.914 c 45.966,-7.641 91.732,-14.79 137.235,-21.303 102.298,-14.64 203.344,-25.232 302.32,-32.665 24.513,-1.841 47.519,-9.236 70.79,-12.935 29.92,-4.756 59.836,-6.091 89.241,-10.026 69.386,-9.287 139.76,-10.199 222.514,26.035 -18.138,-26.182 -54.196,-30.209 -79.938,-38.407 -84.092,-26.782 -160.421,-10.389 -247.448,-9.163 -67.524,0.951 -137.242,9.983 -207.499,21.798 -43.709,7.35 -87.63,9.616 -131.361,17.848 -49.561,9.329 -98.881,24.572 -147.377,31.541 -3.439,8.721 -6.264,17.819 -8.477,27.277 z m -5.862,43.794 c 71.752,-9.504 143.673,-17.58 215.745,-24.204 39.528,-3.633 79.102,-6.831 118.72,-9.589 25.997,-1.81 44.41,-9.74 68.824,-14.415 31.388,-6.011 68.675,-8.883 102.205,-10.092 59.612,-2.151 145.342,2.856 186.633,11.612 -9.051,-30.188 -121.582,-23.412 -186.841,-26.356 -108.767,-4.907 -225.604,6.025 -343.79,19.515 -52.022,5.938 -104.775,13.305 -158.086,21.777 -1.789,10.214 -2.921,20.808 -3.41,31.752 z m 32.898,164.78604 c 34.903,-1.18 68.944,-1.011 102.139,0.46 27.998,1.24 54.012,3.82 80.76,6.486 8.366,0.833 20.651,0.333 29.299,1.107 4.85,0.435 6.217,1.975 10.8,2.667 4.546,0.686 8.422,-3.291 12.962,-2.256 5.836,1.331 14.036,4.983 18.041,8.758 2.843,-13.974 -21.071,-16.55 -36.851,-22.808 -54.021,-21.426 -144.861,-27.966 -229.819,-28.49 3.768,11.456 8.004,22.843 12.669,34.076 z m -32.686,-134.74604 c 62.107,-3.43 124.04,-5.467 185.728,-5.588 62.346,-0.122 124.447,1.708 186.232,6.019 35.668,2.489 79.262,12.467 106.679,10.05 6.584,-0.58 13.123,1.604 19.679,2.454 -5.929,-10.479 -19.535,-11.78 -39.706,-16.335 -25.935,-5.857 -58.989,-11.448 -83.657,-15.029 -83.728,-12.152 -177.012,-10.658 -278.254,-4.751 -31.753,1.852 -64.192,4.412 -97.196,7.555 0.03,5.204 0.198,10.414 0.495,15.625 z m 155.188,94.43704 c -32.096,-46.233 32.517,-71.116 141.087,-86.29604 -96.309,4.68 -202.408,-2.981 -295.137,6.214 2.31,22.89104 6.945,45.63704 13.146,67.57004 0.484,1.714 0.982,3.427 1.488,5.139 39.475,-2.642 88.837,-1.87 139.416,7.373 z m -112.664,508.872 -7.876,14.725 c 12.42,-1.547 21.692,-11.052 26.368,-32.189 5.28,-13.323 5.191,-24.792 -2.74,-33.56 3.823,-12.616 -0.294,-24.365 -1.924,-38.66 -0.947,-8.302 -0.428,-17.775 -0.825,-26.881 -3.634,6.69 -9.655,14.573 -17.032,18.638 4.342,18.632 3.63,38.146 -2.135,58.546 -6.329,1.211 -6.849,12.329 -10.274,18.492 -9.685,18.338 0.583,21.709 16.438,20.889 z m 614.003,-137.663 c -301.344,0.458 -569.041,-48.223 -731.459,-250.669 l 7.534,115.061 c 3.242,3.194 6.515,6.326 9.807,9.404 14.405,-3.463 28.143,0.295 41.644,9.055 8.15,5.29 13.809,15.241 18.804,23.37 3.024,4.919 6.406,10.441 10.516,14.519 1.806,1.793 3.894,2.908 6.291,3.71 3.006,1.008 6.278,1.493 9.395,2.051 12.231,2.189 20.633,5.96 26.456,17.818 2.302,3.79 3.896,7.928 5.449,12.067 84.842,42.577 179.9,61.107 281.136,65.109 100.084,3.955 213.049,2.624 314.432,-21.495 z m -601.333,4.11 c 0.718,-12.084 2.317,-21.858 4.271,-29.875 1.2,-4.921 -2.124,-9.571 -3.754,-13.903 -1.733,-4.612 -3.339,-9.125 -5.729,-12.98 -9.79,-20.318 -29.011,-10.192 -41.049,-22.141 -10.622,-10.54 -17.141,-29.826 -28.312,-37.076 -14.446,-9.374 -29.821,-13.197 -47.337,-4.223 l -7.192,17.807 -6.506,15.41 c 42.49,4.719 79.29,23.163 114.034,46.572 6.484,26.781 1.207,49.999 -7.359,72.219 12.121,2.549 25.922,-16.425 28.933,-31.81 z m -152.045,134.238 c 6.164,-5.136 11.815,-11.469 18.492,-15.409 20.869,6.484 34.33,4.993 31.505,-14.04 10.804,-14.074 22.936,-19.919 31.997,-31.419 9.345,-11.859 17.244,-24.645 24.491,-37.845 0.13,-0.234 0.566,-1.087 0.973,-1.879 -4.684,-3.592 -8.273,-9.099 -11.029,-15.506 -8.167,27.354 -20.906,49.996 -41.98,64.048 -18.21,-10.92 -21.945,4.661 -30.053,11.288 -11.128,9.092 -34.288,23.544 -24.396,40.762 z m 70.202,-80.645 c -0.626,-3.996 -0.396,-7.99 1.712,-11.986 12.17,-3.272 17.706,-12.103 17.122,-25.855 0.969,-3.322 2.139,-6.156 3.736,-8.183 -2.013,-7.255 -3.291,-14.897 -4.115,-21.824 -1.53,2.582 -3.061,5.005 -4.68,6.829 -5.514,6.218 -11.359,8.281 -14.374,15.518 -1.365,3.279 -0.767,8.504 -1.567,11.922 -2.447,10.439 -10.081,28.245 2.166,33.579 z m -14.041,98.11 c 0.403,-7.218 2.23,-13.436 7.191,-17.465 21.727,1.665 37.475,-3.648 40.066,-24.313 2.443,-40.119 17.297,-47.529 21.127,-71.596 -1.95,-0.1 -4.261,-0.134 -6.61,-0.399 -2,-0.226 -3.869,-0.724 -5.616,-1.452 -0.218,0.739 -0.446,1.544 -0.546,1.701 -11.429,17.932 -18.443,37.917 -34.724,53.596 -4.338,1.37 -8.163,-0.848 -13.013,4.109 -6.125,7.773 -9.75,15.88 -11.234,24.272 -1.789,10.128 -7.464,28.017 3.359,31.547 z m 22.751,-189.805 c -11.947,-2.653 -25.241,-4.396 -35.433,-5.347 -45.872,-4.277 -92.578,-0.911 -133.199,-53.463 l 93.83,13.356 c 47.756,10.95 93.543,23.117 116.089,49.654 7.859,18.752 3.055,42.2 -1.554,65.574 -17.643,-1.996 -23.545,-35.531 -24.956,-61.032 -0.09,-1.606 -11.874,-8.097 -14.777,-8.742 z m 28.348,148.511 c 5.922,-3.53 10.931,-4.327 15.033,-2.391 -2.116,-14.268 5.683,-13.624 7.557,-20.553 4.566,-16.884 5.394,-34.103 3.174,-50.713 -1.542,0.651 -3.137,1.125 -4.77,1.381 -1.517,8.25 -3.036,16.599 -6.997,23.936 -8.441,15.631 -13.076,32.244 -13.997,48.34 z m 950.209,-296.014 c 16.457,-21.841 25.295,-40.717 25.795,-58.123 0.949,-33.022 -19.836,-62.224 -52.076,-80.808 -35.412,-20.413 -84.011,-28.8 -117.842,-33.671 -108.011,-15.553 -292.591,3.014 -457.895,140.412 98.608,-74.714 314.872,-125.991 424.776,-112.877 84.154,10.041 195.016,45.722 177.242,145.067 z m -503.325,-110.558 -14.35,6.321 6.248,1.666 c 5.08,-2.886 10.197,-5.699 15.351,-8.443 z m 16.349,-5.207 -11.907,-1.113 20.841,-6.834 7.946,-0.368 c -5.668,2.689 -11.296,5.459 -16.88,8.315 z m 35.754,-21.955 -16.229,6.492 9.693,1.457 c 6.031,-2.703 12.104,-5.309 18.223,-7.821 z m 4.1,-5.808 c 6.717,0.054 13.01,0.53 18.882,1.43 8.272,-3.208 16.621,-6.241 25.042,-9.098 -15.245,-0.816 -29.94,1.436 -43.924,7.668 z m 106.079,-25.191 c -18.074,-4.426 -38.919,-3.818 -67.301,10.5 8.048,-1.176 14.469,-0.261 19.597,2.316 11.75,-3.666 23.634,-6.991 35.646,-9.964 4.008,-0.991 8.03,-1.94 12.058,-2.852 z m 350.716,51.091 c -5.671,-18.812 -17.75,-37.409 -40.998,-55.624 8.072,12.97 10.903,22.651 8.487,29.04 12.228,7.09 23.445,16.051 32.511,26.584 z m -40.867,-31.107 c -14.476,-19.762 -34.197,-34.283 -59.58,-43.137 18.978,12.383 25.683,21.523 21.058,28.127 13.468,4.03 26.512,8.93 38.522,15.01 z m -58.783,-20.395 c -15.7,-17.111 -35.317,-30.427 -61.953,-36.921 23.638,16.34 24.576,24.001 21.345,29.118 13.259,2.091 26.994,4.593 40.608,7.803 z m -92.08,-13.554 c 2.739,-6.39 -6.972,-14.123 -22.83,-22.171 32.933,5.303 56.204,14.633 71.151,27.432 -3.198,-0.491 -6.365,-0.962 -9.493,-1.412 -12.832,-1.848 -25.808,-3.108 -38.828,-3.849 z m -103.827,4.124 c -21.45,-6.84 -44.708,-8.767 -71.895,0.012 17.24,0.549 24.404,3.514 26.494,7.7 15.023,-3.141 30.176,-5.72 45.401,-7.712 z m 52.79,-4.503 c -17.285,-8.098 -38.193,-12.835 -67.798,-9.492 14.255,2.499 22.224,6.709 22.144,13.105 13.446,-1.595 26.941,-2.731 40.45,-3.386 1.733,-0.085 3.469,-0.159 5.204,-0.227 z m -2.379,0.098 c 2.748,-8.742 -6.921,-16.533 -32.621,-23.086 31.123,-2.039 57.708,8.273 82.605,23.184 -16.673,-0.832 -33.403,-0.82 -49.984,-0.098 z m -501.893,235.031 c 0.207,-16.832 17.877,-31.17 48.845,-43.607 -42.774,6.208 -84.407,3.295 -126.176,1.451 14.201,8.782 28.905,17.009 43.54,24.842 11.146,5.967 22.417,11.746 33.791,17.314 z m 104.869,44.567 c -7.873,-15.944 -1.195,-31.313 29.55,-44.136 -48.893,6.95 -89.062,4.173 -129.667,1.88 12.094,5.842 24.302,11.441 36.607,16.774 10.737,4.651 21.47,9.317 32.302,13.745 10.388,4.245 20.748,8.186 31.208,11.737 z m 59.906,15.403 c 0.796,-11.841 14.84,-21.907 42.142,-30.192 -13.955,-3.339 -33.871,3.205 -51.31,7.029 -14.726,3.228 -29.64,6.959 -44.612,9.789 12.218,3.95 24.612,7.358 37.396,10.097 5.44,1.166 10.903,2.259 16.384,3.277 z m 545.193,-108.269 c -3.342,12.897 -3.768,22.939 1,27.897 -9.504,7.056 -19.752,13.519 -30.302,19.398 9.011,-15.967 17.939,-31.954 29.302,-47.295 z m -78.027,70.182 c 11.364,-15.502 21.527,-31.324 45.322,-43.984 -9.347,11.031 -11.039,19.586 -5.076,25.668 -13.442,7.013 -27.161,13.112 -40.246,18.316 z m -26.708,9.786 c -3.925,-8.965 2.648,-23.556 15.698,-41.614 l -71.121,57.404 c 17.282,-4.079 34.393,-8.881 51.116,-14.359 1.413,-0.463 2.854,-0.942 4.307,-1.431 z m -129.087,28.848 c 24.15,-19.022 50.083,-36.607 77.666,-54.2 -17.731,19.065 -27.471,34.543 -27.189,46.161 -9.581,1.887 -19.185,3.545 -28.777,4.97 -7.22,1.072 -14.455,2.097 -21.7,3.069 z m -237.349,9.056 c 1.761,-8.932 14.18,-20.509 39.347,-35.001 -33.869,7.347 -66.4,16.342 -96.529,28.295 18.924,3.004 38.024,5.197 57.182,6.706 z m 83.262,2.627 c -12.63,-11.681 -6.644,-25.577 20.29,-41.958 -28.963,9.185 -53.651,26.107 -79.721,40.864 19.85,0.997 39.703,1.314 59.431,1.094 z m 77.758,-3.531 c -6.829,-10.463 2.42,-23.635 24.357,-38.94 -30.71,15.583 -68.016,23.799 -96.035,42.387 23.893,-0.4 47.807,-1.585 71.678,-3.447 z m 69.742,-7.282 c -6.126,-10.4 -1.653,-23.139 11.159,-37.808 -24.68,19.211 -49.165,31.385 -73.676,44.505 20.893,-1.747 41.747,-4.004 62.517,-6.697 z m -976.398,153.22 c -12.256,15.678 -9.766,26.755 2.812,34.683 1.058,-3.934 0.471,-7.043 -0.352,-10.035 11.43,-8.526 17.974,-17.646 15.815,-27.817 7.938,-3.445 15.26,-7.407 20.384,-13.204 9.111,-4.312 14.707,-9.614 17.625,-15.667 3.536,-7.333 6.728,-19.203 0.942,-25.487 l -0.383,0.479 c -9.784,12.229 -21.42,19.445 -34.134,22.877 -9.157,9.51 -17.129,10.578 -20.997,17.063 -3.058,5.131 -2.108,10.517 -1.712,17.108 z m -108.797,35.021 c 34.386,10.166 24.149,2.795 34.781,3.534 14.573,1.013 27.446,2.025 37.784,-1.681 7.809,-2.799 9.63,-10.331 14.9,-15.962 3.767,-4.027 7.589,-8.07 11.641,-12.479 1.346,-3.19 3.266,-6.423 5.667,-9.647 -0.307,-4.348 -0.722,-8.472 0.202,-12.529 0.129,-2.013 0.6,-3.918 1.869,-5.858 1.773,-2.709 4.12,-4.522 7.024,-6.263 1.503,-1.028 3.071,-1.972 4.597,-2.939 1.918,-1.214 3.704,-2.439 5.407,-3.774 -2.402,0.365 -4.834,0.612 -7.293,0.747 -13.662,4.588 -28.073,11.288 -40.973,16.498 -9.811,3.961 -17.202,10.921 -26.884,13.778 -13.996,4.13 -27.833,6.868 -41.425,7.516 -3.423,0.865 -9.628,-6.603 -15.099,-6.149 -4.335,0.36 -9.899,3.264 -17.408,8.316 -3.246,2.184 -7.386,3.511 -11.217,6.864 -17.768,6.384 -26.37,15.706 -32.405,25.849 4.958,-3.16 9.164,-7.193 17.122,-6.849 13.171,15.276 41.191,9.103 51.71,1.028 z m -51.136,-32.011 c -10.356,3.483 -17.722,7.739 -22.81,12.582 -6.54,6.227 -12.568,13.514 -9.846,21.205 6.714,-5.524 13.747,-10.833 21.927,-15.362 3.769,-2.087 6.366,-2.446 10.308,-3.71 3.978,-2.4 8.334,-4.429 13.122,-6.19 1.856,-1.53 3.849,-2.746 5.983,-3.885 1.67,-0.891 3.477,-1.732 5.045,-2.787 5.247,-3.53 12.839,-8.438 19.279,-8.973 3.354,-0.279 6.501,1.222 9.292,2.915 0.248,0.15 0.648,0.412 1.126,0.722 1.369,0.706 2.866,1.47 4.589,2.234 4.229,-0.159 8.505,-0.449 12.783,-0.906 9.458,-1.302 18.815,-3.488 27.946,-6.182 1.963,-0.579 3.851,-1.362 5.687,-2.261 2.535,-1.243 4.936,-2.648 7.317,-4.082 1.459,-1.081 3.261,-2.285 6.413,-3.814 2.273,-1.285 4.613,-2.489 7.107,-3.495 10.446,-4.218 20.727,-8.891 31.237,-12.962 -8.734,-0.624 -17.694,-2.44 -26.693,-5.132 l -2.887,-0.864 c -11.69,8.876 -28.589,16.463 -43.225,21.554 -14.908,5.186 -30.176,7.242 -46.132,3.242 -4.887,-2.487 -7.069,-5.053 -10.731,-4.719 -8.672,0.79 -11.17,13.134 -26.837,20.87 z m -229.286,9.843 c -20.826,-0.549 -31.492,7.353 -38.483,18.31 10.103,3.375 19.632,6.022 17.924,-5.634 0.872,4.574 3.242,7.349 6.622,8.906 2.479,1.142 6.174,0.605 9.963,0.938 12.38,1.086 29.19,-0.465 36.658,-4.209 5.609,-5.74 10.096,-9.076 13.873,-11.237 4.235,-2.997 9.175,-5.297 14.224,-7.135 1.89,-1.192 3.65,-2.494 5.215,-4.002 0.874,-1.085 1.774,-2.356 2.71,-3.858 -12.352,3.558 -47.848,10.385 -68.706,7.921 z m 71.875,-12.931 c 0.611,-1.204 1.268,-2.382 2.094,-3.45 1.163,-1.503 2.559,-2.671 4.241,-3.555 4.75,-2.496 9.648,-2.699 14.517,-0.963 3.924,-2.763 7.386,-6.109 10.217,-9.842 l 0.062,-0.459 0.777,-0.892 c 0.3,-0.344 0.583,-0.692 0.855,-1.043 1.224,-1.857 2.293,-3.791 3.195,-5.785 0.808,-2.191 1.28,-4.502 1.513,-6.932 -7.775,0.092 -15.549,-0.346 -23.286,-1.479 l -0.366,-0.054 c -6.532,12.376 -22.111,24.492 -33.46,31.198 -8.708,5.145 -16.372,3.414 -27.457,4.039 -6.303,-5.789 -13.082,-6.714 -20.559,-0.529 -4.591,-3.275 -8.547,-4.592 -12.074,-4.589 -8.356,0.01 -10.616,9.529 -20.61,13.744 -14.049,3.857 -24.844,10.809 -29.521,23.592 5.234,-2.263 10.662,-2.736 16.066,-3.688 l 0.121,-0.19 c 9.788,-15.342 24.019,-20.6 41.905,-20.127 h 0.18 l 0.179,0.021 c 9.171,1.084 19.577,0.32 28.742,-0.702 7.503,-0.838 15.001,-2.005 22.415,-3.43 5.314,-1.022 10.796,-2.165 15.998,-3.664 l 4.256,-1.225 z m -9.364,16.43 c -14.038,5.036 -23.9,12.495 -24.577,25.28 4.784,-3.436 9.686,-6.781 18.258,-7.374 6.334,8.643 39.594,1.049 45.292,-1.756 17.492,2.729 27.096,-2.54 32.446,-12.118 3.376,-6.042 1.898,-15.389 2.803,-23.936 0.502,-4.747 3.262,-9.018 4.091,-13.767 1.041,-5.953 0.471,-12.336 0.621,-18.635 -9.318,1.484 -18.722,2.54 -28.139,2.862 -0.496,5.927 -2.266,11.514 -6.557,16.439 -1.284,9.613 -5.849,13.944 -13.693,12.991 -4.965,-2.308 -9.21,-1.937 -13.017,0.063 -6.684,3.515 -3.496,11.268 -17.528,19.951 z m -323.016,-4.916 c -22.157,2.901 -35.746,10.665 -36.814,25.537 3.658,-3.26 7.52,-6.311 12.827,-7.923 0.014,3.217 1.422,5.388 3.841,6.799 3.983,2.324 13.356,2.705 22.391,3.206 5.42,0.301 10.301,1.659 15.003,0.67 4.536,-0.955 8.297,-2.623 10.427,-5.217 4.576,2.136 10.418,0.508 15.593,-0.09 26.999,-3.121 63.273,6.543 81.615,-8.97 -9.676,-3.496 -18.983,-8.312 -26.385,-15.087 -14.937,-2.033 -30.083,-2.376 -45.481,-0.68 -10.36,3.063 -20.307,2.003 -30.195,0.351 -5.916,-0.444 -8.825,-7.719 -12.642,-7.571 -3.817,0.147 -5.201,5.255 -10.18,8.975 z m -55.088,22.016 c -0.205,7.247 10.31,-5.266 15.462,-3.698 0.736,-1.734 1.621,-3.356 2.642,-4.881 1.071,-1.699 2.335,-3.237 3.757,-4.63 2.135,-2.21 4.58,-4.193 7.247,-6.01 9.455,-6.446 19.956,-2.03 32.919,-15.991 0.803,0.104 1.54,0.228 2.225,0.367 0.279,-0.039 0.566,-0.068 0.862,-0.079 6.165,-0.239 8.907,7.265 13.088,7.579 l 0.178,0.013 0.176,0.029 c 2.881,0.481 5.733,0.908 8.576,1.189 4.504,0.022 9.1,-0.032 13.743,-0.11 2.032,-0.287 4.068,-0.718 6.111,-1.323 l 0.337,-0.099 0.349,-0.039 c 13.84,-1.523 27.729,-1.444 41.541,0.09 -3.633,-4.234 -6.577,-9.113 -8.572,-14.747 l -0.036,-0.099 c -9.641,0.22 -18.761,2.936 -27.444,7.756 -7.782,-1.275 -15.566,-2.27 -23.347,0 -5.297,-2.76 -9.493,-2.582 -13.378,-1.584 -4.753,-4.328 -9.186,-6.706 -13.343,-7.419 -8.218,-1.409 -14.045,12.485 -21.801,13.052 -21.368,-0.354 -34.451,10.803 -41.292,30.634 z m 144.353,-43.654 c 2.056,5.804 5.293,10.943 9.64,15.463 14.362,-9.172 28.376,-18.942 42.061,-29.265 14.133,-10.66 27.905,-21.895 41.341,-33.653 l 6.612,-5.777 c 31.206,-27.24 80.049,-69.879 79.992,-80.924 0,-0.062 0.004,-0.124 0.01,-0.185 h -0.002 c 1.814,-19.958 -11.706,-30.002 -25.294,-40.097 -8.886,-6.6 -17.802,-13.222 -22.981,-22.658 -11.011,6.006 -22.666,9.431 -35.262,9.125 -2.871,-5.514 -6.719,-9.382 -14.044,-7.374 6.983,19.668 13.168,41.214 29.079,53.516 10.198,7.886 25.431,19.294 45.355,9.331 -4.818,14.524 -20.082,11.785 -38.27,4.214 -7.012,2.858 -12.808,7.05 -17.779,12.147 -8.285,8.493 -12.082,20.822 -19.789,31.039 -13.281,21.235 -28.78,42.358 -45.057,59.859 -10.432,11.218 -18.958,27.2 -35.612,25.239 z m 12.562,18.262 c 7.229,6.393 16.919,11.412 28.82,15.189 4.721,-3.842 10.218,-4.581 14.984,-7.597 5.444,-3.445 7.727,-10.975 12.755,-15.304 10.693,-9.203 23.603,-16.338 34.019,-26.13 20.047,-11.268 36.43,-24.627 50.344,-39.392 24.432,-25.928 38.442,-57.079 56.941,-87.115 5.676,-13.79 -5.163,-23.009 -17.402,-31.84 -3.17,-2.374 -6.51,-4.723 -7.685,-8.176 -4.331,-12.73 4.349,-32.832 -12.328,-50.458 -12.158,13.501 -24.714,25.406 -38.223,33.514 4.788,8.741 13.364,15.11 21.909,21.458 14.474,10.753 28.875,21.451 26.862,43.603 h -10e-4 c -0.393,13.059 -49.736,56.136 -81.319,83.707 l -6.612,5.776 c -13.553,11.861 -27.399,23.159 -41.557,33.838 -13.524,10.201 -27.355,19.858 -41.507,28.927 z m 200.468,-157.07 c 27.046,34.13 52.079,68.722 44.839,110.638 7.519,1.101 15.093,1.527 22.711,1.435 -0.136,-10.271 -1.21,-20.366 -2.956,-30.33 -1.828,-10.43 -4.378,-20.665 -7.34,-30.787 -3.129,-10.691 -8.508,-21.151 -13.882,-31.601 -8.759,-17.034 -17.507,-34.047 -17.024,-52.66 -8.916,3.794 -18.18,7.088 -27.873,9.792 4.269,6.052 6.098,13.136 2.56,21.732 l -0.121,0.296 -0.167,0.27 z m 71.47,111.981 c 9.372,-0.327 18.808,-1.396 28.282,-2.928 -5.711,-20.19 -4.833,-46.455 -11.334,-61.099 1.058,-12.937 -2.806,-22.354 -4.208,-33.529 -2.463,-19.634 -4.927,-39.267 -7.389,-58.901 -0.425,-6.065 -4.22,-9.006 -8.477,-11.519 -12.056,7.877 -24.633,14.966 -37.99,20.942 -1.1,18.365 7.698,35.475 16.509,52.61 5.454,10.607 10.914,21.225 14.16,32.31 3.015,10.3 5.605,20.682 7.447,31.201 1.77,10.101 2.861,20.383 3,30.913 z m 184.14,-91.625 c -5.023,17.231 53.215,47.315 71.212,72.469 2.944,4.115 -3.599,10.873 -8.386,15.341 14.152,4.233 26.962,5.885 38.436,4.964 -0.01,-0.241 0.025,-0.486 0.11,-0.727 1.894,-5.433 1.815,-10.994 0.474,-16.631 -1.348,-5.665 -3.96,-11.414 -7.141,-17.195 -11.424,-8.051 -20.179,-17.007 -26.488,-26.789 -6.395,-9.917 -10.276,-20.675 -11.875,-32.191 -0.049,-0.316 -0.021,-0.648 0.097,-0.97 3.183,-8.669 2.967,-16.317 -0.11,-23.104 -3.124,-6.891 -9.217,-12.995 -17.715,-18.455 l 10e-4,-10e-4 c -0.68,-0.437 -1.047,-1.266 -0.854,-2.099 4.496,-18.989 11.83,-36.911 22,-53.761 9.779,-16.204 22.185,-31.421 37.214,-45.649 l -0.046,-0.059 c -1.924,-2.458 -3.933,-4.901 -6.021,-7.284 -2.967,-2.638 -5.976,-5.232 -9.092,-7.714 -8.521,-6.786 -18.185,-13.142 -28.813,-15.944 -9.356,15.06 -19.616,29.366 -26.697,45.263 -17.862,40.099 -26.146,84.104 -26.306,130.536 z m 105.41,92.32 c 16.232,-2.259 29.626,-9.982 40.179,-23.173 -24.813,-10.112 -28.864,-27.051 -30.069,-45.529 -1.061,-16.268 -5.465,-32.241 -23.18,-42.228 31.41,-7.455 53.925,-25.713 71.249,-50.28 -12.404,-15.696 -20.15,-35.152 -25.229,-54.557 -0.682,0.137 -1.375,0.236 -2.076,0.294 -4.961,0.417 -9.877,-1.208 -14.446,-3.686 -8.15,-3.33 -16.634,-9.111 -22.28,-14.998 -14.712,13.947 -26.855,28.853 -36.43,44.719 -9.72,16.107 -16.792,33.205 -21.215,51.291 8.52,5.676 14.69,12.084 17.998,19.381 3.45,7.608 3.772,16.089 0.387,25.604 1.559,10.776 5.23,20.854 11.225,30.151 6.108,9.472 14.634,18.152 25.802,25.964 0.271,0.189 0.48,0.433 0.622,0.708 3.432,6.197 6.264,12.381 7.728,18.528 1.421,5.975 1.56,11.919 -0.265,17.811 z M 472.0108,596.20496 c 65.905,6.586 128.363,15.839 187.029,28.033 181.634,40.144 364.309,117.891 464.326,272.796 49.984,77.414 73.238,164.48604 78.209,255.13104 -71.103,-52.175 -148.989,-85.377 -236.325,-99.377 -50.886,-8.156 -102.711,-9.423 -154.062,-5.696 -59.031,4.285 -117.684,15.088 -174.974,29.868 l -14.372,-0.09 c -4.763,-0.03 -10.635,-0.871 -13.676,-5.001 -4.484,-6.09 -1.768,-17.559 0.223,-24.096 3.837,-12.596 10.401,-25.428 16.795,-36.916 6.899,-12.39604 14.444,-24.40804 22.096,-36.34904 19.726,-30.787 43.538,-58.83 62.989,-89.802 3.439,-5.477 7.245,-11.053 10.309,-16.733 0.456,-0.845 0.897,-1.709 1.308,-2.586 6.534,-8.17 13.019,-16.328 19.36,-24.449 l 0.432,-0.077 c 7.944,-1.411 21.279,-4.566 23.17,-14.032 2.275,-11.379 -14.53,-23.324 -22.448,-28.765 -16.034,-11.021 -34.404,-20.48 -51.827,-29.13 -21.071,-10.46 -42.502,-19.99 -63.68,-30.176 -31.752,-15.271 -61.125,-36.434 -88.814,-59.41 -27.039,-25.436 -49.749,-52.837 -66.068,-83.143 z M 185.0458,1011.534 c -1.091,0.971 -2.234,1.892 -3.443,2.759 -1.446,1.036 -3.235,1.462 -4.988,1.135 -2.754,-0.512 -4.746,-2.693 -5.31,-5.393 -0.614,-2.936 0.478,-5.893 2.081,-8.324 1.347,-2.04504 2.867,-3.93604 4.528,-5.69104 -6.425,-1.584 -5.52,-12.096 -2.73,-24.903 -2.202,1.827 -4.459,3.581 -6.837,5.203 -2.42,1.65 -5.644,2.777 -8.203,0.662 -3.621,-2.991 -1.279,-8.323 0.732,-11.485 1.467,-2.307 3.155,-4.384 5.027,-6.259 0.081,-1.635 0.283,-3.428 0.559,-5.314 -3.717,3.264 -7.543,6.418 -11.473,9.419 -2.357,1.801 -5.454,2.55 -8.113,0.884 -3.509,-2.2 -3.612,-6.754 -2.091,-10.184 0.507,-1.144 1.064,-2.246 1.672,-3.313 -3.578,2.072 -7.21,3.405 -11.153,2.198 -5.181,-12.311 -16.344,-15.702 -31.599,-12.99 -7.914998,12.267 -16.939998,18.491 -24.129998,28.389 -3.765,5.183 -6.369,11.18 -9.353,16.353 -3.139,5.443 -6.804,9.711 -8.168,15.51104 -1.785,7.583 -1.744,15.535 0.923,24.012 -3.192,-0.974 -4.772,-4.047 -5.618,-8.075 v 0 c -13.831,27.417 -31.108,37.919 -39.774,57.423 -8.1410005,18.321 -20.3550005,40.757 -11.4860005,55.983 27.9790005,-9.543 47.9400005,-18.333 64.4670005,-39.089 8.658,-10.873 13.658,-26.15 21.825,-36.35 2.839,-3.546 6.388,-5.795 9.834998,-7.864 5.379,-3.228 10.482,-5.928 16.637,-8.849 4.435,-2.104 11.41,-6.296 15.059,-11.202 4.237,-5.698 5.125,-11.903 10.161,-9.702 3.754,2.804 -8.215,14.643 -15.068,20.262 -9.389,7.7 -23.467,13.392 -31.826998,22.542 -12.762,13.966 -21.476,34.394 -35.218,45.178 -14.83,11.638 -30.405,20.867 -47.094,26.477 19.546,12.834 46.159,-5.291 67.449,-15.72 8.072,-3.954 14.495,-7.045 21.397998,-10.238 10.09,-4.668 19.463,-8.381 28.935,-15.149 19.463,-13.905 34.068,-40.633 52.153,-54.393 0.496,-8.187 0.93,-16.338 0.235,-23.903 z m -159.932998,74.389 c -3.11,3.066 -6.772,7.257 -7.293,12.941 -0.238,2.6 -2.424,2.429 -2.196,-0.177 0.483,-5.534 0.204,-12.405 4.744,-16.813 2.426,-2.356 7.417,1.415 4.745,4.049 z M 101.7278,999.82996 v 0 c -3.312998,10.40704 -6.405998,18.24104 -18.978998,19.89504 -2.296,0.301 -4.235,-1.042 -4.129,-3.609 0.643,-15.364 7.815,-18.88704 20.296,-21.56704 3.300998,-0.709 3.908998,1.832 2.811998,5.281 z M 50.836802,1019.945 c -1.983,-14.527 -7.129,-28.65304 -5.605,-42.12504 4.064,15.999 7.502,20.973 10.538,18.969 7.764,-5.125 -1.661,-56.19 19.335,-84.638 -4.879,26.634 -0.707,40.253 2.437,41.574 6.812,2.863 5.012,-29.699 20.406,-41.925 -4.053,13.676 -5.976,24.22 -4.328,29.513 0.549,1.763 2.674,0.474 4.912,-0.774 -4.617,6.433 -9.924,11.51 -15.391,17.393 -2.396,2.578 -4.684,5.23 -6.754,8.08 -3.838,5.283 -6.345,11.096 -9.577,16.7 -3.225,5.592 -7.069,10.109 -8.59,16.576 -0.7,2.97304 -1.121,5.94004 -1.267,8.89804 l -3.11,6.167 c -0.965,1.912 -1.966,3.771 -3.006,5.592 z M 152.5978,960.21496 c 3.389,-2.589 7.502,-5.918 11.945,-9.85 9.772,-8.649 15.337,-19.959 29.876,-33.284 -12.07,5.626 -23.45,14.856 -33.742,23.314 -5.207,4.28 -9.597,9.151 -12.297,15.242 -1.828,4.125 0.703,7.263 4.218,4.578 z m 13.53,12.852 c 11.591,-7.906 20.586,-19.379 32.333,-24.824 -11.534,4.403 -26.306,6.855 -34.265,19.366 -3.318,5.215 -2.398,8.411 1.932,5.458 z m 291.903,88.03204 c 46.358,-13.82 91.154,-36.695 135.18,-49.316 1.448,-5.962 2.873,-11.92704 4.155,-17.89904 0.376,-1.749 0.735,-3.55 1.08,-5.396 -51.308,16.03704 -106.957,34.41904 -149.647,60.66804 3.006,4.169 6.065,8.161 9.232,11.943 z m 23.995,22.158 c 28.005,-5.489 56.085,-10.602 84.216,-15.485 6.455,-7.492 13.076,-14.852 19.311,-22.519 l 0.099,-0.504 c -36.408,8.753 -72.141,20.207 -106.674,36.379 1,0.729 2.016,1.437 3.048,2.129 z m -61.78,148.712 c -74.737,3.585 -148.23,5.09 -215.074,-4.479 71.846,1.251 140.649,-4.348 209.016,-10.933 -5.5,-13.25 -11.668,-26.225 -18.604,-38.757 -57.883,22.823 -120.434,36.06 -186.55,41.965 58.318,-31.554 115.8,-53.038 172.575,-64.976 -7.287,-10.935 -15.275,-21.406 -24.037,-31.284 -49.521,23.366 -99.413,54.112 -149.592,90.642 40.943,-39.032 86.349,-74.197 136.985,-104.828 -4.022,-4.59 -8.065,-9.212 -12.196,-13.741 -50.952,28.721 -95.867,70.613 -141.291,114.005 -13.066,12.48 -18.995,28.307 5.618,35.111 58.107,16.064 142.464,6.009 227.594,-0.251 -1.423,-4.173 -2.903,-8.333 -4.444,-12.474 z m -191.332,-18.177 c 56.303,-6.41 111.933,-18.703 164.728,-39.455 -3.087,-5.429 -6.323,-10.772 -9.714,-16.013 -54.019,11.204 -105.836,30.546 -155.014,55.468 z m -49.607,-202.697 c 8.416,-6.04 13.642,-15.20104 19.153,-24.29604 -8.137,3.59 -16.454,8.98 -21.789,17.07804 -3.844,5.835 0.115,9.026 2.636,7.218 z m -64.477,-75.90304 c 0.345,-1.868 0.446,-3.712 0.74,-5.716 0.97,-6.594 5.129,-13.121 9.527,-18.645 4.375,-0.722 5.267,1.126 5.184,3.698 3.832,-0.773 1.819,4.076 2.476,5.87 1.975,5.381 3.677,8.36 6.318,8.914 4.531,0.949 10.025,-3.667 16.421,-8.622 2.439,0.179 3.572,2.479 4.197,5.607 0.583,2.922 -0.463,6.67 -0.222,9.992 l -1.293,1.065 c -1.68,1.38 -3.286,2.823 -4.791,4.349 -5.816,3.283 -10.759,7.925 -15.364,7.728 -4.926,-9.828 -13.426,-13.765 -23.193,-14.24 z m 20.282,-22.964 c 31.928,-39.352 65.554,-69.788 100.605,-92.721 -32.013,29.749 -60.228,61.307 -78.938,97.394 -0.318,-0.063 -0.649,-0.11 -0.995,-0.136 l -1.504,-0.11 -1.194,0.924 c -2.26,1.752 -10.237,8.503 -13.204,7.881 -1.026,-0.215 -2.828,-4.811 -3.339,-6.172 -0.014,-0.394 0.048,-0.927 0.07,-1.292 0.123,-2.085 0,-4.134 -1.501,-5.768 z m -4.224,-4.502 c 30.6,-38.413 60.093,-69.312 95.341,-90.331 -5.436,5.051 -10.763,10.156 -15.951,15.325 -28.924,22.131 -54.683,48.107 -77.699,76.385 -0.475,-0.559 -1.043,-1.019 -1.691,-1.379 z m 56.185,22.584 c 3.142,-3.603 6.419,-7.039 10.007,-10.327 l 18.836,-17.263 -23.158,10.794 -0.465,0.221 -0.017,0.007 -0.017,0.007 -0.003,0.003 -0.478,0.229 -0.017,0.007 -0.059,0.03 -0.353,0.171 -0.068,0.034 -0.282,0.139 -0.265,0.131 -0.068,0.035 -0.479,0.241 -0.029,0.015 -0.04,0.02 -0.283,0.146 -0.153,0.079 -0.427,0.221 -0.01,0.005 -0.433,0.229 -0.378,0.201 -0.085,0.046 -0.742,0.403 -0.079,0.043 -0.015,0.008 -0.128,0.071 -0.047,0.026 -0.556,0.31 -0.006,0.003 -0.367,0.208 -0.025,0.014 -0.188,0.106 -0.779,0.449 -0.05,0.029 -0.121,0.07 -0.305,0.179 -0.261,0.154 -0.565,0.336 c -0.564,0.339 -1.125,0.682 -1.684,1.031 -0.559,0.349 -1.115,0.703 -1.669,1.062 -0.369,0.24 -0.738,0.481 -1.105,0.725 l -0.552,0.365 -0.038,0.025 -0.412,0.279 -0.098,0.066 -0.314,0.212 -0.234,0.159 -0.546,0.374 -0.169,0.117 -0.012,0.009 c -1.574,1.088 -3.132,2.207 -4.671,3.349 -1.066,0.79 -2.12,1.592 -3.17,2.4 -0.51,0.392 -1.017,0.788 -1.524,1.184 l -0.044,0.034 -0.068,0.053 -0.102,0.079 -0.105,0.083 -0.576,0.453 -0.19,0.15 -0.519,0.408 -0.071,0.057 c 20.078,-27.412 44.009,-51.163 75.093,-68.121 -22.555,26.413 -26.986,37.528 -21.034,40.817 13.711,7.58 37.353,-22.448 74.558,-37.11 23.221,-9.151 47.328,-21.339 69.363,-23.72 -44.776,23.043 -79.157,54.608 -71.642,65.408 4.817,6.923 31.303,0.089 79.016,-1.858 -17.364,11.701 -24.657,19.717 -25.003,25.194 -0.956,15.135 53.812,-2.882 90.308,11.321 -28.753,7.552 -38.786,20.05 -38.094,28.666 0.343,4.273 3.798,8.328 10.097,12.183 8.099,4.957 23.534,5.713 37.827,13.923 -15.416,8.29004 -17.12,15.17604 -11.679,21.32904 5.611,6.346 21.602,8.425 35.391,13.723 -8.117,4.128 -16.046,8.525 -23.706,13.235 l -0.223,0.137 c -3.729,-5.321 -7.4,-10.904 -11.127,-16.691 -2.623,-4.071 -5.234,-8.15 -7.888,-12.202 -13.252,-20.22004 -30.145,-40.13804 -50.418,-53.54704 -31.546,-20.868 -69.348,-27.832 -105.443,-36.669 -28.775,-7.044 -57.044,-6.74 -84.565,3.478 z m 277.962,132.75704 c 8.145,2.105 20.98,2.365 34.876,4.628 -7.608,3.091 -15.144,6.375 -22.602,9.868 l -1.851,0.867 c -5.231,-4.189 -10.05,-8.911 -14.615,-14.067 1.399,-0.426 2.796,-0.858 4.192,-1.296 z m 31.807,21.326 c -0.205,0.809 -0.105,1.506 0.267,2.099 1.737,2.762 13.936,6.682 27.439,2.143 10.633,-3.574 24.154,-10.548 35.164,-13.132 -3.527,4.29 -6.941,8.668 -10.144,13.213 -0.807,1.144 -1.61,2.292 -2.41,3.443 l -10.979,5.805 c -0.875,0.463 -1.75,0.955 -2.628,1.469 l -7.743,-0.849 c -15.429,-1.692 -28.051,-5.98 -38.886,-12.275 3.306,-0.643 6.612,-1.283 9.92,-1.916 z m 1.909,243.503 0.096,0.274 c 5.014,14.12 9.803,29.991 18.587,42.662 -51.951,-25.593 -72.217,-73.366 -87.901,-124.349 -18.09,-54.281 -42.217,-96.123 -71.176,-128 -34.953,-38.473 -57.637,-73.667 -123.873,-76.226 8.142,-7.629 19.095,-11.032 28.642,-16.549 -40.62,6.368 -76.793,41.517 -105.317,44.776 0.933,-1.113 1.856,-2.227 2.77,-3.332 7.971,-9.641 16.646,-21.001 26.612,-28.583 l 1.435,-1.092 0.11,-1.801 c 0.533,-8.751 1.14,-18.49 -0.129,-27.661 2.293,-2.506 4.344,-5.221 6.262,-8.04304 0.369,0.18304 0.794,0.24904 1.229,0.16704 50.762,-9.51904 87.969,20.682 122.243,48.505 2.8,2.271 5.587,4.534 8.131,6.577 27.936,22.415 53.118,49.505 75.553,80.743 22.879,31.856 42.916,68.057 60.116,108.044 -3.161,13.28 -4.078,26.628 -0.917,39.221 4.836,19.271 18.054,33.4 34.244,44.167 l 1.492,0.993 z M 197.5188,995.90296 c 1.466,-2.336 2.88,-4.709 4.308,-7.064 l 6.474,-10.683 -11.429,5.042 c -5.21,2.299 -10.236,5.19 -14.639,8.808 l -1.484,0.209 c -0.676,0.094 -1.897,0.19 -2.48,-0.289 -3.459,-2.84 1.043,-21.359 1.939,-25.089 l 0.015,-0.061 c 1.537,-1.359 3.066,-2.731 4.61,-4.087 8.235,-7.231 18.134,-12.74 26.741,-19.673 -13.835,0.795 -29.827,3.816 -41.329,12.462 0.269,-2.063 0.624,-4.206 0.958,-6.095 3.784,-3.994 7.136,-8.408 10.569,-12.704 29.033,-12.599 58.744,-13.414 88.93,-6.024 31.033,7.597 72.399,15.087 104.208,36.128 19.051,12.601 35.739,31.735 49.297,52.42204 24.167,36.877 45.282,77.164 101.171,83.292 -22.113,5.801 -36.652,17.464 -48.453,31.248 11.137,-5.888 21.396,-14.769 33.41,-17.664 10.148,-2.445 18.455,-9.759 27.682,-14.638 -5.093,7.52 -7.903,15.42 -7.373,23.876 6.653,-11.549 14.135,-22.98 22.14,-34.335 14.322,-20.318 33.561,-37.897 47.762,-59.308 -1.343,5.759 -2.602,11.521 -3.68,17.297 -1.781,9.55 -4.808,26.715 3.392,34.16 6.041,5.487 15.358,3.767 22.427,1.527 -24.792,29.279 -55.729,51.485 -95.375,53.227 l -0.978,0.043 -0.844,0.497 c -17.804,10.472 -29.989,26.426 -38.078,45.241 -8.301,15.917 -18.077,34.843 -23.651,54.191 -16.849,-38.398 -36.366,-73.294 -58.553,-104.188 -22.646,-31.533 -48.069,-58.88 -76.274,-81.511 -2.84,-2.279 -5.469,-4.413 -8.117,-6.562 -34.473,-27.986 -71.858,-58.32804 -123.296,-49.69504 z M 527.4858,1141.82 c -15.918,9.364 -28.09,23.877 -36.515,43.537 -17.666,33.874 -33.334,67.4 -25.926,96.912 3.808,15.177 13.725,29.292 32.605,41.847 l 3.867,-1.06 c 8.005,-2.195 13.477,1.006 17.377,7.246 29.322,-0.388 53.184,-22.766 71.674,-43.301 l 2.854,-3.169 2.931,3.098 c 8.073,8.532 11.27,18.033 11.865,29.567 0.221,4.265 0.071,8.503 0.132,12.765 0.044,3.098 0.194,6.61 1.199,9.563 0.831,2.442 4.316,4.795 6.275,6.262 4.563,3.292 9.302,6.897 13.082,10.999 l 1.103,0.259 c 65.64,-18.002 112.097,-64.012 160.806,-106.736 53.316,-20.911 105.166,-35.936 150.975,-25.806 38.701,9.149 65.668,62.412 88.478,51.437 8.144,33.51 21.989,59.519 44.082,74.69 l 98.154,13.971 0.161,0.037 c 2.229,0.511 4.461,1.022 6.699,1.542 l 7.612,-18.028 7.735,-19.153 1.305,-0.669 c 2.842,-1.456 5.647,-2.61 8.425,-3.479 l 0.01,-0.067 -0.205,-0.192 c -3.333,-3.117 -6.63,-6.272 -9.881,-9.474 l -1.067,-1.052 -8.448,-129.016 c 3.627,4.521 12.686,17.519 20.044,8.37 -44.947,-30.235 -96.191,-53.947 -149.458,-70.828 -57.611,-18.258 -117.542,-28.521 -174.395,-30.403 -23.328,-0.772 -46.804,0.681 -70.457,4.897 -23.415,4.175 -46.983,11.063 -70.728,21.184 -11.113,13.962 -23.201,25.955 -36.046,36.4 -13.025,10.592 -26.816,19.595 -41.155,27.454 -1.331,0.731 -3.005,0.244 -3.735,-1.087 -0.731,-1.331 -0.244,-3.005 1.087,-3.736 14.091,-7.722 27.612,-16.544 40.338,-26.893 12.733,-10.356 24.691,-22.245 35.652,-36.099 0.294,-0.373 0.669,-0.65 1.078,-0.824 h -10e-4 c 24.371,-10.446 48.55,-17.537 72.563,-21.819 23.986,-4.276 47.837,-5.747 71.577,-4.962 57.39,1.901 117.832,12.243 175.881,30.639 51.632,16.363 101.406,39.106 145.5,67.955 v -0.618 c -0.081,-8.939 -0.332,-17.852 -0.752,-26.73 -133.405,-98.994 -308.305,-144.39 -572.528,-74.41 -28.678,35.46 -61.916,57.23 -101.823,58.984 z"
   id="path2"
   style="fill:#ff0000;stroke:#000000;stroke-width:6;stroke-linejoin:round;stroke-dasharray:none" />
<path
   style="display:inline;fill:#ff0000;stroke:#000000;stroke-width:6;stroke-linejoin:round;stroke-dasharray:none"
   d="m 111.39254,939.71337 c -2.44289,0.066 -4.94413,0.21898 -7.31047,0.73518 -8.116428,12.6011 -21.003238,21.45023 -28.076278,34.79271 -3.59741,6.9389 -7.85793,13.5045 -11.57042,20.3727 -3.394825,6.74074 -3.150436,14.59954 -2.44186,21.91194 0.29076,2.4023 1.35326,4.8724 1.2789,7.2208 -3.088359,-0.4747 -4.870389,-3.5707 -5.960395,-6.2315 -1.292553,0.092 -1.637137,2.6251 -2.560655,3.6894 -8.314581,14.6709 -20.205109,26.8083 -30.152834,40.3278 -6.26745,9.1706 -10.211859,19.6571 -14.6718035,29.7657 -4.291812,10.3501 -8.266961,21.9699 -5.059059,33.1875 0.389951,1.2463 1.110427,3.7644 2.910096,2.8246 19.3760065,-6.6605 39.1846915,-14.5322 54.0574205,-29.1325 6.83073,-6.4743 12.41505,-14.1542 16.67956,-22.535 5.67896,-9.8004 9.79817,-21.2892 19.35998,-28.0921 9.927918,-7.3655 22.138458,-11.0231 31.760898,-18.8255 4.26963,-3.4212 6.45065,-8.5635 9.60673,-12.8632 1.6337,-1.8564 6.0109,-1.9401 6.03085,1.1942 -0.56969,4.3727 -4.30588,7.402 -7.03292,10.5827 -6.09233,6.5905 -13.12449,12.2442 -20.94665,16.6711 -8.18647,5.1785 -16.9186,10.1019 -22.792038,18.0439 -9.98947,12.3087 -17.08477,26.8889 -28.39336,38.0984 -10.10151,9.1206 -21.77903,16.4495 -33.829158,22.7402 -4.866755,2.6727 -10.186256,4.4141 -15.166801,6.7945 -0.346784,1.1105 1.664413,1.2439 2.35996,1.713 9.05973,3.7162 19.27183,1.6992 28.187273,-1.429 13.465702,-5.3362 26.044926,-12.6254 39.124096,-18.8093 13.0281,-6.6928 26.784308,-11.9138 39.486068,-19.2418 16.0515,-9.1974 26.80024,-24.7016 38.72898,-38.3549 6.10755,-7.0512 12.37344,-14.1022 19.46227,-20.1261 -0.0102,-7.15 0.60901,-14.3793 0.074,-21.488 -1.49413,-0.055 -2.43816,1.8971 -3.9456,2.2283 -4.51988,2.1347 -9.97737,-1.8294 -9.96151,-6.6586 -0.16934,-4.7382 3.12668,-8.7647 5.98601,-12.23034 -0.74364,-1.189 -2.42878,-2.0062 -2.87665,-3.5934 -2.35699,-6.3144 -0.82409,-13.1165 0.3345,-19.51233 -0.95291,-0.78975 -1.97232,1.22253 -2.90156,1.49523 -2.97308,2.4222 -7.31183,4.943 -11.05893,2.6681 -3.33276,-2.4208 -2.4717,-7.29132 -0.78926,-10.4632 1.36366,-3.32464 4.31087,-5.62341 5.98886,-8.71036 0.27129,-0.89446 0.43768,-3.45437 -0.90872,-1.99396 -4.24941,3.13549 -7.95976,7.42231 -13.08807,9.12224 -4.66757,0.85179 -8.93758,-3.95671 -7.93177,-8.51892 0.12069,-1.46783 0.95381,-2.79965 1.08889,-4.24024 -1.45813,-0.22377 -2.99399,1.01464 -4.58898,0.87609 -1.9196,0.039 -4.65784,0.79994 -5.53294,-1.53796 -2.86294,-5.61291 -7.84738,-10.54766 -14.27335,-11.61405 -2.84548,-0.63843 -5.77037,-0.88535 -8.68332,-0.85403 z m -11.531498,54.18939 c 2.219798,-0.021 3.464018,2.3755 2.749258,4.3734 -1.68023,6.75234 -4.288718,14.11144 -10.077508,18.43914 -3.27088,2.2644 -7.36305,3.7193 -11.36781,3.5335 -2.24827,-0.4806 -3.38276,-2.8731 -2.91255,-4.998 0.0844,-6.6422 2.5513,-14.1402 8.90924,-17.28494 3.89633,-2.0853 8.30976,-3.4682 12.69937,-4.0631 z m -77.743461,86.68944 c 2.385517,-0.1063 5.561033,2.6972 3.603992,5.0573 -3.000268,3.8933 -6.689151,7.8286 -7.331426,12.9887 0.04088,1.391 -1.472489,3.7194 -2.81014,2.0194 -1.216276,-1.7962 -0.119456,-4.231 -0.228129,-6.2725 0.519346,-4.89 1.319811,-10.87 5.922351,-13.6541 0.267332,-0.1053 0.557819,-0.1385 0.843352,-0.1388 z"
   id="path2646" /><path
   style="display:inline;fill:#ff0000;stroke:#000000;stroke-width:6;stroke-linejoin:round;stroke-dasharray:none"
   d="m 232.62444,926.66997 c -17.25557,0.11909 -34.47755,3.6598 -50.33507,10.46135 -3.501,4.70998 -8.21992,8.6867 -10.83376,13.98202 -0.61129,1.18339 0.37193,2.56189 1.60131,1.57414 11.78648,-6.51733 25.27064,-9.88934 38.66293,-10.08393 1.02954,0.8637 -1.32611,1.85766 -1.79355,2.45582 -9.58658,7.23793 -20.21423,13.35009 -28.72293,21.9161 -2.15416,5.17737 -2.52308,10.97819 -3.39083,16.49019 0.01,2.5715 -1.11189,6.6513 1.66774,8.1394 3.60888,-0.2067 6.36542,-3.4076 9.56385,-4.8779 6.39336,-3.377 12.84975,-7.0572 19.85556,-8.9179 -2.79341,5.5713 -6.56249,10.8659 -9.49614,16.4549 1.48668,1.0188 4.01144,-0.1481 5.84126,0.077 23.12333,-2.5175 46.33313,4.0707 66.42501,15.37524 23.68385,13.0695 44.00125,31.2393 64.98577,48.1207 30.55117,25.9643 56.93659,56.6755 79.04656,90.0982 18.29142,27.314 33.60117,56.4923 47.24417,86.3701 1.3341,1.6107 1.66607,-1.8967 2.05322,-2.6008 7.57154,-21.4347 18.19899,-41.6319 28.76621,-61.7143 7.77554,-12.9422 18.45233,-24.6355 31.64474,-32.0665 6.56735,-1.4363 13.434,-1.3015 19.98366,-3.0164 24.41975,-5.2574 46.42032,-19.0304 63.7053,-36.8279 3.50411,-3.6822 7.67153,-6.9664 10.54172,-11.1389 -1.68854,-1.0505 -4.27185,0.4537 -6.23069,0.3128 -7.12039,1.0505 -15.30696,-2.6441 -17.47996,-9.9529 -3.41721,-11.4794 -0.54066,-23.5559 1.65968,-34.9943 0.11099,-1.7857 1.31134,-3.8624 0.81323,-5.5326 -3.18542,2.5541 -5.24743,6.6015 -8.06155,9.6545 -14.86968,18.2894 -31.44265,35.2873 -44.12136,55.2709 -5.32155,7.6764 -10.00386,15.7959 -15.08618,23.5935 -1.15115,1.6439 -1.04789,-1.1918 -1.03265,-1.8358 -0.18019,-6.66 2.31406,-12.957 5.03542,-18.8977 -0.85236,-1.0981 -2.56883,1.1935 -3.62031,1.4121 -7.8441,5.2526 -16.27783,9.7103 -25.45589,12.0888 -10.49441,4.0574 -19.36692,11.3597 -29.39124,16.2718 -0.43775,-1.0777 1.59015,-2.4697 2.14683,-3.424 10.6874,-11.7929 23.81858,-21.7015 39.04863,-26.7358 5.53482,-1.2275 0.39823,-2.3082 -2.36803,-2.6204 -23.53513,-4.3386 -44.73452,-17.8445 -59.82804,-36.2445 -18.07576,-21.3234 -30.5836,-46.7251 -48.58137,-68.10224 -11.76119,-13.6006 -24.99444,-26.24239 -40.88624,-34.9067 -30.11362,-16.96055 -64.47335,-23.46256 -97.70304,-31.45351 -11.74037,-2.80966 -23.794,-4.31989 -35.87397,-4.17488 z"
   id="path2648" /><path
   style="display:inline;fill:#ff0000;stroke:#000000;stroke-width:6;stroke-linejoin:round;stroke-dasharray:none"
   d="m 213.06148,998.96036 c -6.02306,0.3471 -12.35153,0.3545 -18.05323,2.42674 -2.03384,2.0051 -4.19649,4.4275 -5.23359,6.995 -0.0545,9.6263 -0.10888,19.2526 -0.16315,28.8789 -11.19587,9.1121 -20.65863,20.2067 -29.4174,31.6186 0.84021,1.2619 3.20827,-0.4209 4.52622,-0.4357 14.65211,-4.1981 27.60444,-12.5879 40.94182,-19.7125 18.10993,-9.8907 36.66845,-20.3638 57.33484,-23.52 1.59277,-0.031 -0.86151,1.3224 -1.31547,1.6607 -8.00658,4.8669 -17.09737,8.1043 -24.45747,13.9418 0.17932,1.5213 2.816,0.8884 3.93232,1.2561 22.24384,1.5769 44.45996,8.1372 62.80014,21.1468 16.43184,11.3209 29.3712,26.7531 42.81455,41.3152 14.75642,16.5271 29.62283,33.1106 41.33583,52.0126 20.80671,31.7912 34.8354,67.4672 46.46994,103.4984 10.40082,31.5163 24.58853,63.0254 48.87913,86.3577 9.12539,8.641 19.36712,16.3441 30.71315,21.7789 0.83574,-1.2972 -1.38228,-3.1028 -1.77644,-4.4819 -5.83449,-10.8439 -9.40401,-22.6899 -13.90653,-34.0844 -0.80252,-1.2879 -2.70713,-0.8396 -3.75921,-2.0341 -16.1579,-10.939 -30.51502,-26.6441 -34.52528,-46.2649 -2.76173,-12.3122 -1.33757,-25.095 1.24904,-37.2921 -22.00014,-50.9238 -50.07427,-99.6392 -86.74787,-141.4656 -17.14867,-19.9362 -36.69186,-37.6489 -57.30973,-53.921 -21.85301,-17.5429 -44.23225,-35.8402 -71.32913,-44.5441 -10.63037,-3.4675 -21.80746,-5.34774 -33.00248,-5.13114 z"
   id="path2650" /><g
   id="maned"
   style="display:inline;stroke-width:6;stroke-dasharray:none"
   transform="translate(-38.353198,-25.600039)"><path
     style="fill:#ffff00;stroke:#000000;stroke-width:6;stroke-linejoin:round;stroke-dasharray:none"
     d="m 395.94525,869.80833 c -19.33697,3.78971 -37.25368,12.41574 -55.43439,19.70281 -13.37109,5.31734 -26.39529,11.61721 -38.28662,19.77119 -9.86666,6.34532 -19.21087,13.59049 -29.62976,19.0198 -4.64219,2.11151 -10.65886,3.89995 -15.072,0.444 -2.68033,-2.31164 -1.40208,-6.15413 -0.4997,-9.01913 4.26062,-10.51749 12.28026,-18.89642 18.84348,-27.99296 -0.58343,-1.06297 -2.02067,0.78056 -2.86455,0.97572 -24.13816,14.46902 -44.90847,34.16585 -62.13244,56.32493 -0.25884,0.61244 -2.08321,2.07497 -0.85345,2.35026 6.21443,-3.98813 12.11369,-8.55481 18.88467,-11.62473 8.51076,-4.06239 16.98021,-8.28428 25.67061,-11.91367 -3.23206,4.33777 -7.69637,7.64088 -11.53062,11.43678 -4.83261,4.65737 -10.15425,8.90134 -14.44175,14.07656 -0.35078,1.36467 1.71261,0.31605 2.2972,0.1682 24.94163,-8.02947 51.9597,-8.12315 77.32126,-1.94665 28.85813,6.98797 58.30033,12.8048 85.49797,25.0986 19.72415,8.7469 37.39217,21.90916 51.57207,38.17036 14.44186,15.9425 25.24383,34.6525 37.25138,52.3951 0.98173,0.9586 1.38877,2.9575 2.6937,3.3936 7.06341,-4.2019 14.39467,-7.9873 21.45955,-12.145 -0.28149,-1.232 -2.34319,-1.0725 -3.30152,-1.6639 -8.95255,-3.1222 -18.48642,-4.7569 -26.86982,-9.3267 -4.30286,-2.3308 -7.9538,-7.7736 -5.58889,-12.646 2.53046,-5.4643 8.09605,-8.5534 12.80257,-11.7749 -5.67321,-3.5729 -12.50388,-5.3179 -18.93174,-7.3296 -7.85042,-2.4723 -16.47588,-3.9995 -22.71694,-9.7926 -3.22201,-2.7144 -5.89188,-6.6932 -5.22955,-11.04429 0.31354,-4.74338 3.59859,-8.59452 6.80303,-11.8119 8.0884,-7.48521 18.63461,-11.50102 29.0362,-14.59033 -0.041,-1.26551 -2.95478,-1.25252 -4.22459,-1.87886 -18.8017,-5.07885 -38.46718,-3.52438 -57.69167,-2.92207 -7.25881,0.009 -14.72564,0.97547 -21.80113,-1.03563 -2.87919,-0.67885 -5.16801,-3.53205 -4.32706,-6.55822 1.53481,-6.09962 6.7397,-10.31815 11.19822,-14.36619 3.55237,-3.13209 7.54607,-5.72328 11.16091,-8.76512 -0.3079,-1.13364 -2.30226,-0.20233 -3.23018,-0.4337 -19.29259,0.96663 -38.47763,3.47449 -57.76441,4.41845 -4.80755,-0.0925 -10.24902,0.71821 -14.5213,-2.01479 -2.3833,-1.90294 -1.87485,-5.44942 -1.52799,-8.09191 3.2765,-8.5272 10.00643,-15.08193 16.48464,-21.28786 14.815,-13.59084 31.95746,-24.3258 49.28181,-34.39467 0.65975,-0.2618 1.55218,-1.4093 0.2128,-1.37498 z"
     id="path2652" /><path
     style="fill:#ffff00;stroke:#000000;stroke-width:6;stroke-linejoin:round;stroke-dasharray:none"
     d="m 134.32913,940.08191 c -4.03392,4.00762 -6.42636,9.47368 -8.25113,14.80747 -2.63226,7.52563 -3.79026,15.52299 -6.80251,22.90207 -4.25728,6.20254 -8.12327,-4.6595 -7.86629,-8.35523 -0.88196,-9.33709 -0.51923,-18.8168 0.90598,-28.05975 -1.70064,0.61784 -2.26158,3.16338 -3.26523,4.71565 -8.41472,17.16582 -9.435552,36.64752 -10.50666,55.39788 -0.634676,6.378 -0.324706,13.0819 -2.620443,19.1323 -0.631122,1.9837 -3.272632,3.6402 -4.989651,1.8027 -3.568056,-3.63 -4.551498,-8.8584 -6.571734,-13.3634 -1.147005,-0.1024 -0.290491,1.9154 -0.459877,2.6373 0.8133,9.9233 3.189045,19.6405 5.122862,29.383 -0.03602,1.0111 1.236301,1.7263 1.705207,0.595 2.402205,-4.0345 4.418513,-8.387 4.70493,-13.1474 0.761051,-6.9701 4.570976,-13.0062 8.251556,-18.7883 5.03262,-8.5954 9.15377,-17.90598 16.2283,-25.10708 4.6845,-5.37068 10.02867,-10.22808 14.28161,-15.94232 -0.23085,-1.10153 -2.11251,-0.24273 -2.48451,-1.49028 -1.09,-3.04475 -0.42057,-6.43627 -0.43555,-9.62701 0.49434,-5.86233 2.41453,-11.52884 3.49582,-17.27554 -0.0555,-0.18607 -0.2676,-0.27472 -0.44268,-0.21706 z"
     id="path2654" /><path
     style="fill:#ffff00;stroke:#000000;stroke-width:6;stroke-linejoin:round;stroke-dasharray:none"
     d="m 1392.642,1214.618 c -9.5896,-0.054 -19.1888,1.091 -28.5601,3.0033 -0.6842,1.3573 1.2246,2.7222 1.6619,3.9289 3.9998,5.8524 7.806,11.8958 12.3335,17.3499 3.2223,-1.5315 6.1675,-4.0224 9.4498,-5.638 14.4044,-7.944 30.8491,-11.7985 47.2227,-12.2389 1.3384,-0.508 -0.5779,-1.2965 -1.1875,-1.3048 -13.0261,-3.767 -26.6014,-5.4905 -40.1566,-5.1037 -0.2546,0 -0.5091,0 -0.7637,0 z"
     id="path2656" /><path
     style="fill:#ffff00;stroke:#000000;stroke-width:6;stroke-linejoin:round;stroke-dasharray:none"
     d="m 1466.02,1258.552 c -22.2063,0.183 -44.4363,1.397 -66.4753,4.1278 -1.2068,0.6491 0.8115,1.7828 1.1757,2.3678 10.2386,9.7184 21.5169,18.3434 33.3447,26.0257 1.5787,-0.2174 2.2577,-2.3461 3.3656,-3.3506 9.5274,-11.1926 23.3084,-17.8395 37.0867,-22.2939 7.3897,-2.4735 15.1425,-3.5537 22.7749,-4.9894 0.7068,-1.0839 -1.6671,-0.7283 -2.1984,-0.9195 -9.6761,-0.6488 -19.3748,-1.0311 -29.0739,-0.9679 z"
     id="path2658" /><path
     style="fill:#ffff00;stroke:#000000;stroke-width:6;stroke-linejoin:round;stroke-dasharray:none"
     d="m 1567.4371,1301.2668 c -38.1708,4.6507 -76.7284,2.1353 -115.0438,0.7281 -1.0349,0.7625 1.2604,1.325 1.6952,1.8525 22.9436,13.8374 46.6194,26.4531 70.6721,38.2441 1.2601,-0.153 1.0051,-2.2774 1.4341,-3.2119 2.2181,-10.6006 10.7535,-18.5487 19.3212,-24.4921 6.9215,-4.958 14.8596,-8.1934 22.1681,-12.4687 0.3099,-0.213 0.1461,-0.7158 -0.2469,-0.652 z"
     id="path2660" /><path
     style="fill:#ffff00;stroke:#000000;stroke-width:6;stroke-linejoin:round;stroke-dasharray:none"
     d="m 1652.8141,1345.3531 c -36.3808,4.4876 -73.1526,3.6851 -109.6801,1.5488 -2.6315,-0.033 -5.293,-0.3913 -7.8852,-0.4933 -0.4814,1.0747 1.6651,1.3355 2.2624,1.9016 25.6025,12.0748 51.637,23.2494 78.0125,33.5248 4.5946,1.6378 9.1592,3.5501 13.8011,4.9462 0.6778,-1.1132 -0.7047,-2.6929 -0.7878,-3.9413 -2.4679,-7.5575 -0.2749,-16.1391 5.0345,-22.0139 5.7332,-6.8268 13.7974,-11.0761 21.3969,-15.3526 -0.2006,-0.7598 -1.5978,-7e-4 -2.1543,-0.1203 z"
     id="path2662" /><path
     style="fill:#ffff00;stroke:#000000;stroke-width:6;stroke-linejoin:round;stroke-dasharray:none"
     d="m 1726.671,1372.8948 c -14.4959,-0.3812 -28.4347,4.1199 -42.4374,7.1721 -14.1513,3.359 -28.3924,6.339 -42.5425,9.6757 -1.0074,0.02 -1.0732,1.1568 -0.011,1.1636 15.6068,4.8154 31.509,8.7258 47.5778,11.6162 2.0098,-0.2088 1.5247,-2.9941 2.4188,-4.3116 2.1942,-5.2952 6.7875,-9.1753 11.3176,-12.4871 8.0548,-5.2595 17.1551,-8.6549 26.1353,-11.9749 1.2294,-1.3267 -2.1269,-0.6904 -2.4582,-0.854 z"
     id="path2664" /><path
     style="fill:#ffff00;stroke:#000000;stroke-width:6;stroke-linejoin:round;stroke-dasharray:none"
     d="m 1798.442,1379.8174 c -16.0871,3.4893 -32.0571,7.5953 -47.8402,12.2824 -13.3006,4.08 -26.6291,8.2633 -39.5338,13.4359 -0.2988,1.1265 1.7698,0.7872 2.4033,1.103 16.7142,2.4543 33.5328,4.3941 50.3599,5.7555 1.5348,-0.8607 1.4514,-3.0728 2.5393,-4.3641 5.8492,-9.6133 15.4457,-16.1086 24.516,-22.3932 2.5686,-1.896 5.5735,-3.2698 7.9861,-5.3292 0.1348,-0.2849 -0.1503,-0.5507 -0.4306,-0.4903 z"
     id="path2666" /><path
     style="fill:#ffff00;stroke:#000000;stroke-width:6;stroke-linejoin:round;stroke-dasharray:none"
     d="m 1860.7909,1376.9792 c -12.3054,4.2286 -23.8405,10.4334 -35.2222,16.6808 -11.2518,6.4686 -22.5713,12.8572 -33.5867,19.7114 -0.7294,1.196 1.6244,0.8582 2.2019,0.9379 17.3307,0.6994 34.6771,0.6492 52.0188,0.7146 0.6358,-0.9851 -1.4569,-2.0441 -1.8337,-3.1561 -1.9765,-2.8233 -3.3032,-6.1974 -2.781,-9.6625 0.3135,-7.3351 5.9157,-12.99 10.9926,-17.6946 2.6621,-2.6448 6.1116,-4.4681 8.6601,-7.17 0.043,-0.2533 -0.2275,-0.4224 -0.4498,-0.3615 z"
     id="path2668" /><path
     style="fill:#ffff00;stroke:#000000;stroke-width:6;stroke-linejoin:round;stroke-dasharray:none"
     d="m 1941.3812,1378.1079 c -10.4086,4.12 -20.7682,8.4071 -31.2822,12.2764 -17.7931,6.7529 -35.8865,13.2895 -52.1071,23.4055 -2.7407,2.0102 2.4348,0.9941 3.6571,1.1213 20.9462,-0.705 41.9031,-1.5083 62.7883,-3.2983 0.6104,-1.1644 -0.7681,-2.6417 -0.8185,-3.9599 -1.4675,-7.3797 3.3761,-14.266 8.1183,-19.528 3.0154,-3.5371 6.8161,-6.2806 10.0433,-9.5743 0.1193,-0.2517 -0.1466,-0.5079 -0.3992,-0.4427 z"
     id="path2670" /><path
     style="fill:#ffff00;stroke:#000000;stroke-width:6;stroke-linejoin:round;stroke-dasharray:none"
     d="m 2001.1893,1371.966 c -12.8874,9.0746 -26.2625,17.5228 -40.1357,25.0471 -7.9486,4.509 -16.1806,8.5833 -24.0828,13.1265 0.4039,1.1273 2.316,0.032 3.2203,0.2465 18.1039,-1.8038 36.2361,-3.4998 54.2642,-5.9884 0.2979,-1.3319 -1.1198,-2.9256 -1.2895,-4.463 -2.2625,-9.2945 2.4506,-18.5997 7.6236,-26.1475 0.1361,-0.487 1.4308,-1.6069 0.3999,-1.8212 z"
     id="path2672" /><path
     style="fill:#ffff00;stroke:#000000;stroke-width:6;stroke-linejoin:round;stroke-dasharray:none"
     d="m 2142.1827,1338.1067 c -21.0402,16.8864 -42.142,33.7256 -63.0022,50.8182 0.086,1.2913 2.1325,-0.1902 2.8674,-0.075 16.3087,-3.9581 32.3993,-8.7484 48.3564,-13.9334 0.01,-1.6414 -0.6095,-3.5823 -0.4078,-5.3377 -0.3204,-8.8742 4.5593,-16.8023 8.6769,-24.3248 1.271,-2.4319 3.2435,-4.6542 4.1427,-7.1966 -0.1954,0.088 -0.4935,-0.2895 -0.6334,0.05 z"
     id="path2674" /><path
     style="fill:#ffff00;stroke:#000000;stroke-width:6;stroke-linejoin:round;stroke-dasharray:none"
     d="m 2199.5256,1324.0772 c -13.068,7.4821 -23.9722,18.2978 -32.8413,30.3892 -2.0783,2.9412 -4.666,5.6701 -6.3571,8.8156 0.7823,0.8768 2.2252,-0.6226 3.1596,-0.7077 11.4179,-4.791 22.7016,-9.9117 33.7244,-15.5565 -0.2796,-1.5252 -1.9309,-2.8107 -2.234,-4.5335 -1.7947,-6.1971 1.5402,-12.2967 4.7591,-17.4584 0.2084,-0.2769 0.4546,-1.0852 -0.2107,-0.9487 z"
     id="path2676" /><path
     style="fill:#ffff00;stroke:#000000;stroke-width:6;stroke-linejoin:round;stroke-dasharray:none"
     d="m 2234.081,1299.0578 c -3.3392,3.9832 -5.9345,8.6785 -8.8826,12.9997 -5.7547,9.0276 -11.1657,18.2955 -16.2379,27.7153 0.044,1.2911 1.7401,-0.266 2.3208,-0.4527 8.2978,-5.0703 16.6686,-10.1306 24.4501,-15.9574 -0.092,-2.3643 -1.9473,-4.4302 -2.1045,-6.7924 -1.2005,-5.7113 0.01,-11.5045 0.8071,-17.2122 -0.01,-0.1612 -0.1823,-0.3222 -0.353,-0.3003 z"
     id="path2678" /><path
     style="fill:#ffff00;stroke:#000000;stroke-width:6;stroke-linejoin:round;stroke-dasharray:none"
     d="m 2235.6809,1121.9782 c -0.5227,1.1086 0.9383,2.4198 1.1835,3.5371 2.9304,6.0685 5.8707,12.8695 4.8053,19.7216 -1.3033,2.2718 1.7698,2.7028 3.1125,3.7855 9.4925,5.8255 17.8695,13.2041 25.8974,20.856 1.2926,0.162 -0.033,-1.7711 -0.1402,-2.4091 -6.9729,-17.9609 -19.5757,-33.3018 -34.3924,-45.4014 -0.1369,-0.081 -0.3067,-0.1604 -0.4661,-0.09 z"
     id="path2680" /><path
     style="fill:#ffff00;stroke:#000000;stroke-width:6;stroke-linejoin:round;stroke-dasharray:none"
     d="m 2180.088,1102.9462 c -0.8547,0.8645 1.3341,1.6725 1.7898,2.345 5.3181,4.2444 10.9791,8.9447 13.377,15.4978 0.7191,2.0128 0.05,4.14 -0.1132,6.1162 2.0465,1.7367 5.0727,1.9282 7.4921,3.006 8.9188,2.9596 17.6206,6.5398 26.2078,10.3183 1.3963,-0.1455 -0.2887,-1.7191 -0.6412,-2.1622 -10.2734,-12.2242 -22.6837,-22.7349 -36.9415,-30.0191 -3.672,-1.7676 -7.2779,-3.8973 -11.1708,-5.102 z"
     id="path2682" /><path
     style="fill:#ffff00;stroke:#000000;stroke-width:6;stroke-linejoin:round;stroke-dasharray:none"
     d="m 2116.5605,1087.2108 c -0.8213,0.8199 1.1842,1.6049 1.5942,2.2325 6.0998,4.9632 12.9265,9.9906 15.9497,17.5111 0.9242,2.1502 0.175,4.547 0.3807,6.7084 2.2639,1.3846 5.2634,1.0955 7.7848,1.7907 9.4598,1.5842 18.8226,3.7147 28.253,5.4515 0.845,-0.8774 -1.1631,-1.8751 -1.5619,-2.63 -11.6986,-11.9523 -26.0013,-21.3543 -41.5458,-27.498 -3.5863,-1.2564 -7.1503,-2.7246 -10.8547,-3.5662 z"
     id="path2684" /><path
     style="fill:#ffff00;stroke:#000000;stroke-width:6;stroke-linejoin:round;stroke-dasharray:none"
     d="m 2064.1631,1088.0463 c -0.8192,0.9624 1.5825,1.4009 2.0561,1.9621 5.6582,3.7019 12.0973,7.2505 15.3775,13.3919 0.9418,1.4498 0.5035,3.3285 1.017,4.7519 14.5604,1.0797 29.0849,2.5678 43.5269,4.7128 1.465,0.037 0.1487,-1.4412 -0.5409,-1.6468 -14.1189,-10.5058 -31.1293,-16.2581 -48.0361,-20.4885 -4.4351,-1.0144 -8.8877,-2.1055 -13.4005,-2.6834 z"
     id="path2686" /><path
     style="fill:#ffff00;stroke:#000000;stroke-width:6;stroke-linejoin:round;stroke-dasharray:none"
     d="m 2001.6761,1085.3839 c -1.1883,-0.2868 -1.0756,1.0715 0.052,1.0269 8.6079,2.9916 18.077,5.687 24.4771,12.5293 1.9576,2.0426 2.7006,4.8211 2.7158,7.5503 0.489,1.7762 2.9709,0.6981 4.2715,1.0725 13.5888,0.1193 27.2038,0.3261 40.7784,-0.2718 0.6728,-0.9584 -1.5667,-1.3146 -2.165,-1.9043 -18.3299,-10.1604 -38.3756,-18.058 -59.4692,-19.4471 -3.5475,-0.2638 -7.1013,-0.544 -10.6606,-0.5558 z"
     id="path2688" /><path
     style="fill:#ffff00;stroke:#000000;stroke-width:6;stroke-linejoin:round;stroke-dasharray:none"
     d="m 1980.1981,1098.1501 c -3.7309,0.1242 -7.5544,0 -11.2162,0.7025 -0.5213,1.0619 1.5523,1.0515 2.1725,1.4025 5.2878,1.6328 11.5689,3.7546 13.7629,9.3853 -0.078,1.0994 0.8117,1.7399 1.8881,1.4475 12.7315,-1.3088 25.4921,-2.3122 38.2618,-3.1442 0.9119,0.2206 1.8201,-0.8803 0.6128,-1.207 -14.3228,-6.0274 -29.9913,-8.6108 -45.4819,-8.5866 z"
     id="path2690" /><path
     style="fill:#ffff00;stroke:#000000;stroke-width:6;stroke-linejoin:round;stroke-dasharray:none"
     d="m 1940.1741,1107.4932 c -10.0982,0.1542 -20.3334,1.4372 -29.9172,4.5591 1.2296,0.9952 3.6372,0.5335 5.3341,0.9508 5.8607,0.7811 12.3643,1.8297 16.6492,6.3426 1.8084,1.0423 3.9348,-0.6115 5.8522,-0.5649 11.6817,-2.2662 23.4599,-4.0933 35.1931,-6.0467 0.6687,-0.9832 -1.5039,-0.9929 -2.1002,-1.3273 -10.0954,-2.7071 -20.5604,-4.017 -31.0112,-3.9136 z"
     id="path2692" /><path
     style="fill:#ffff00;stroke:#000000;stroke-width:6;stroke-linejoin:round;stroke-dasharray:none"
     d="m 1901.6881,1120.8146 c -14.4554,-0.043 -28.509,4.4423 -41.5099,10.444 -0.7117,1.1264 1.6939,0.805 2.3044,0.9921 4.1814,-0.079 8.1499,0.9605 12.0261,2.466 5.7539,-1.1504 11.3566,-3.2987 17.0727,-4.7423 8.5583,-2.5622 17.3396,-4.374 25.8899,-6.9614 1.3218,-0.6788 -0.6529,-1.3136 -1.3402,-1.2754 -4.763,-0.7978 -9.6224,-0.9415 -14.443,-0.923 z"
     id="path2694" /><path
     style="fill:#ffff00;stroke:#000000;stroke-width:6;stroke-linejoin:round;stroke-dasharray:none"
     d="m 1850.5163,1140.5824 c -10.133,0.3569 -20.292,2.2447 -29.7223,5.9854 -0.5743,1.103 1.6549,0.7774 2.2643,0.9909 3.953,0.1608 7.9082,0.7629 11.83,0.9754 7.1716,-2.2624 14.3246,-4.8702 21.2126,-7.7744 -1.3219,-0.8525 -3.8452,0.013 -5.5846,-0.1773 z"
     id="path2696" /><path
     style="fill:#ffff00;stroke:#000000;stroke-width:6;stroke-linejoin:round;stroke-dasharray:none"
     d="m 1812.0289,1154.2469 c -4.0526,1.818 -8.4805,2.9748 -12.318,5.1903 -0.2817,1.3134 2.165,0.8062 2.8423,1.203 2.965,1.1318 5.6238,-0.9945 8.3265,-1.8797 2.9591,-1.3324 6.096,-2.441 8.9201,-3.9599 -1.5895,-0.8795 -4.1815,-0.2391 -6.1531,-0.5318 -0.5368,0.012 -1.0846,-0.078 -1.6178,-0.022 z"
     id="path2698" /><path
     style="fill:#ffff00;stroke:#000000;stroke-width:6;stroke-linejoin:round;stroke-dasharray:none"
     d="m 1787.2984,1168.1099 c -6.2612,0.9237 -12.143,3.5603 -18.1694,5.4116 -0.6793,1.1839 1.8073,0.9132 2.4852,1.1259 5.2261,1.1775 9.7325,-2.3627 14.2583,-4.3074 1.7079,-0.6016 5.4689,-2.6047 1.4359,-2.2308 h -10e-5 z"
     id="path2700" /><path
     style="fill:#ffff00;stroke:#000000;stroke-width:6;stroke-linejoin:round;stroke-dasharray:none"
     d="m 1763.7024,1181.0564 c -1.1315,0.056 -2.2657,0.1155 -3.3934,0.2075 -2.9544,1.2813 -5.8986,2.5925 -8.849,3.8854 -1.1088,0.4918 -2.2242,0.97 -3.3253,1.4786 -0.2486,0.1513 -0.1385,0.5387 0.1368,0.5732 1.1938,0.3541 2.3992,0.6685 3.6049,0.9788 0.2921,0.01 0.5235,-0.2245 0.7812,-0.3332 3.6852,-2.0853 7.3943,-4.1221 11.1101,-6.1495 0.2129,-0.074 0.3756,-0.3595 0.1848,-0.5383 -0.06,-0.077 -0.1545,-0.1086 -0.2501,-0.1025 z"
     id="path2704" /><path
     style="fill:#ffff00;stroke:#000000;stroke-width:6;stroke-linejoin:round;stroke-dasharray:none"
     d="m 2074.1736,1352.6801 c -21.0402,16.8864 -42.142,33.7256 -63.0022,50.8182 0.086,1.2913 2.1325,-0.1902 2.8674,-0.075 16.3087,-3.9581 32.3993,-8.7484 48.3564,-13.9334 0.01,-1.6414 -0.6095,-3.5823 -0.4078,-5.3377 -0.3204,-8.8742 4.5593,-16.8023 8.6769,-24.3248 1.271,-2.4319 3.2435,-4.6542 4.1427,-7.1966 -0.1954,0.088 -0.4935,-0.2895 -0.6334,0.05 z"
     id="path2190" /></g><path
   style="display:inline;fill:#000000;stroke:#000000;stroke-width:6;stroke-linejoin:round;stroke-dasharray:none"
   d="m 2309.4439,221.85855 c -0.2604,0.0441 -0.3112,0.34962 -0.5025,0.49443 -0.21,0.15005 -0.225,0.4746 0.014,0.60354 0.5196,0.39776 1.0127,0.83469 1.5567,1.19838 0.2774,0.12483 0.5485,-0.24495 0.3549,-0.47651 -0.3782,-0.58559 -0.7542,-1.17544 -1.1726,-1.73284 -0.064,-0.0642 -0.165,-0.0826 -0.2504,-0.087 z"
   id="path2795" /><path
   style="display:inline;fill:#ffffff;stroke:#000000;stroke-width:6;stroke-linejoin:round;stroke-dasharray:none"
   d="m 99.949292,995.11266 c -6.13614,1.1774 -13.10722,2.6798 -16.98801,8.07484 -2.7708,4.0719 -3.95515,9.2521 -3.54136,14.1263 0.73381,2.4224 3.91686,1.9155 5.75644,1.2666 5.37146,-1.0203 10.0756,-4.6231 12.31476,-9.6318 1.7689,-3.9659 3.814928,-8.1026 4.046658,-12.49084 -0.19188,-0.6929 -0.77156,-1.484 -1.588488,-1.3451 z"
   id="path2967" /><g
   id="legged"
   style="display:inline;stroke-width:6;stroke-dasharray:none"
   transform="translate(-38.353198,-25.600039)"><path
     style="fill:#ff6600;stroke:#000000;stroke-width:6;stroke-linejoin:round;stroke-dasharray:none"
     d="m 1357.4859,1496.6036 c -4.0351,6.2739 -8.9173,12.2531 -15.4142,16.1082 0.3092,3.3401 1.3359,6.708 1.6904,10.094 0.9175,7.7647 0.7008,15.6704 0.4936,23.4766 -0.6618,8.3326 -2.2527,16.6063 -4.4919,24.6653 -0.4881,1.0098 -1.9498,0.8401 -2.6269,1.7336 -2.993,2.6278 -3.7887,6.7986 -5.1388,10.369 -1.6849,6.1132 -5.8911,11.4554 -6.2284,17.9353 -0.2899,3.1893 1.6918,6.2845 4.6801,7.4138 4.8144,2.1533 10.309,1.1646 15.3257,1.94 -1.9494,4.681 -4.8061,8.9634 -6.8289,13.5874 0.4373,1.0275 1.882,-0.043 2.65,-0.1056 8.4116,-2.3069 14.1884,-9.7301 17.5368,-17.4171 2.7894,-6.232 4.0331,-12.994 6.279,-19.4126 1.5737,-5.1055 1.8608,-10.5861 1.1464,-15.8606 -0.8222,-4.2263 -3.0622,-7.9972 -5.6317,-11.3843 -0.4716,-1.1133 0.5538,-2.3655 0.5487,-3.5527 2.0748,-11.0391 -1.0147,-22.0803 -2.4078,-32.9949 -1.0649,-8.7436 -1.0171,-17.6108 -1.0346,-26.4263 0.017,-0.2918 -0.4078,-0.4031 -0.5475,-0.1691 z"
     id="path3042" /><path
     style="fill:#ff6600;stroke:#000000;stroke-width:6;stroke-linejoin:round;stroke-dasharray:none"
     d="m 1338.1167,1514.6739 c -1.1596,0.2744 -2.4646,0.459 -3.4452,1.0926 -1.4979,7.8614 -3.0457,15.8302 -6.751,22.9904 -5.5553,10.7181 -10.0533,22.0644 -12.252,33.9727 -0.7799,4.3263 -1.6082,8.6902 -1.7395,13.0894 0.8069,0.5922 1.9104,-0.6457 2.8072,-0.7785 3.3014,-1.5315 7.0661,-1.8883 10.583,-1.1097 0.7966,-0.7828 -0.057,-2.1871 0.1796,-3.1855 -0.052,-3.7045 1.0133,-7.4972 3.6532,-10.1989 2.2583,-2.3204 4.228,-5.0349 4.7703,-8.3059 3.793,-15.3438 4.8193,-31.4236 2.7585,-47.1026 -0.029,-0.2855 -0.2515,-0.5523 -0.5641,-0.464 z"
     id="path3044" /><path
     style="fill:#ff6600;stroke:#000000;stroke-width:6;stroke-linejoin:round;stroke-dasharray:none"
     d="m 1318.9901,1514.2422 c -0.8796,0.3706 -0.888,1.6906 -1.5454,2.351 -10.1906,16.4841 -17.5438,34.9364 -30.9255,49.2628 -1.5106,1.2751 -2.4596,3.6367 -4.6632,3.6067 -3.0113,0.4429 -6.3921,0.065 -9.1112,1.864 -3.424,2.1456 -5.1738,6.0255 -7.308,9.3004 -3.0634,5.1596 -5.0072,10.8967 -6.0951,16.782 -1.559,7.8185 -3.8827,15.7574 -2.7157,23.8007 0.6431,2.6062 2.0803,5.4858 4.7657,6.434 0.9677,-0.4975 0.3036,-2.0257 0.7015,-2.8937 0.7607,-5.08 2.6527,-10.1929 6.6099,-13.6658 1.5105,-0.5623 3.4585,-0.062 5.1352,-0.2208 8.2311,0.2358 16.9615,-0.4287 24.1229,-4.8852 5.7033,-3.5229 9.3572,-9.7113 10.4217,-16.2565 1.1753,-6.8767 1.2968,-13.8913 2.7608,-20.7169 2.2356,-12.3911 7.7198,-23.8321 13.0113,-35.1653 2.5551,-5.7096 4.8429,-11.6716 5.7453,-17.8658 -1.812,-0.6262 -3.9096,-0.2981 -5.8094,-0.6618 -1.7458,-0.1537 -3.4295,-0.6142 -5.1008,-1.0698 z"
     id="path3046" /><path
     style="fill:#ff6600;stroke:#000000;stroke-width:6;stroke-linejoin:round;stroke-dasharray:none"
     d="m 1302.4214,1497.4068 c -1.7551,4.1066 -2.8637,8.5099 -4.6115,12.6421 -7.1171,18.1473 -17.8834,35.4771 -33.807,47.1607 -1.1333,0.8495 -2.2722,1.6983 -3.4999,2.4087 -4.513,-2.3512 -9.8739,-5.0603 -15.0293,-3.0592 -4.9374,2.0406 -7.8236,6.87 -11.2933,10.6586 -4.2801,4.9622 -10.0071,8.3499 -14.8664,12.7016 -6.2369,5.3352 -12.9926,11.3071 -14.8387,19.6821 -0.6617,3.4197 -0.3495,7.2926 1.6088,10.2403 0.9379,0.3816 1.5843,-1.104 2.3518,-1.4646 5.2489,-4.441 9.9794,-9.7225 16.0502,-13.0277 6.0363,1.5448 12.1333,3.4923 18.4599,3.1867 4.0729,0.2987 8.6926,-0.8609 11.0239,-4.4846 2.3037,-3.6949 2.0787,-8.3304 1.5178,-12.4768 7.249,-9.4399 16.9218,-16.5189 25.546,-24.5923 8.871,-8.4579 15.4134,-18.9516 21.9767,-29.207 3.4034,-5.4722 6.6524,-11.0414 9.6982,-16.7208 -1.0805,-1.8103 -3.0566,-3.121 -4.2848,-4.9306 -2.2247,-2.6543 -3.8173,-5.7449 -5.6038,-8.68 -0.1039,-0.1228 -0.2614,-0.042 -0.3986,-0.037 z"
     id="path3048" /><path
     style="fill:#ff6600;stroke:#000000;stroke-width:6;stroke-linejoin:round;stroke-dasharray:none"
     d="m 1118.3593,1381.0219 c -0.2711,0.9818 1.0618,1.7521 1.4751,2.575 12.703,15.6557 28.965,28.67 47.7825,36.1619 18.9989,7.8229 39.6475,9.9839 59.9545,11.5052 19.0752,1.4261 38.3074,2.7564 56.9643,7.081 4.8143,1.2592 9.0204,4.0041 13.1695,6.6515 1.3365,0.8316 2.7282,2.0095 2.5588,3.7485 1.1339,14.6692 2.7495,29.6023 8.3277,43.3449 2.6165,6.0801 6.3584,12.5191 12.7691,15.1607 0.8677,0.1546 2.4202,1.332 2.9425,0.1082 1.5845,-6.5831 2.6203,-13.3005 3.7346,-19.9803 1.9571,-13.4448 3.3525,-27.5872 -0.9985,-40.729 -0.9207,-3.9733 -4.2704,-6.5816 -7.0004,-9.3351 -13.321,-12.2684 -30.0984,-19.9265 -46.9303,-26.0981 -18.5133,-6.6817 -37.6643,-11.3752 -56.793,-15.9064 -14.8773,-3.0273 -29.9833,-4.7272 -44.9881,-6.9843 -17.5805,-2.4768 -35.1506,-5.0401 -52.7493,-7.3796 z"
     id="path3050" /><path
     style="fill:#ff6600;stroke:#000000;stroke-width:6;stroke-linejoin:round;stroke-dasharray:none"
     d="m 1255.5385,1352.1606 c -6.5866,0.1225 -13.2565,1.7309 -18.9228,5.1346 -3.6365,8.0997 -6.7097,16.4776 -10.2333,24.6357 -0.9067,2.4516 -2.2639,4.8365 -2.8856,7.3427 2.4681,0.8942 5.2728,0.8908 7.8664,1.4126 31.6504,4.8063 61.382,18.1224 88.5729,34.6663 5.6383,3.5058 11.3505,6.9334 16.7524,10.7918 0.9372,1.6384 0.9456,3.7399 1.4186,5.5473 2.1951,12.1003 2.3628,24.5748 0.19,36.6795 -1.6377,9.9659 -4.6785,19.6295 -8.0984,29.1015 -0.4318,1.2535 1.4487,1.0421 2.1594,0.9375 6.6517,-0.8641 11.7575,-5.9173 15.6991,-10.9701 4.3068,-5.8759 7.7864,-12.5466 9.2576,-19.7235 0.8644,-6.4256 1.1597,-12.9207 2.2942,-19.3074 0.563,-4.43 1.8454,-8.728 2.4458,-13.1415 0.033,-4.4766 -2.6099,-8.3877 -4.0642,-12.4771 -2.5859,-6.465 -5.2114,-13.1019 -9.6071,-18.5822 -4.6651,-5.5823 -12.1572,-7.2541 -18.987,-8.4562 -6.1372,-1.2903 -12.9212,-2.2916 -17.4649,-7.0735 -7.2036,-6.9083 -11.5846,-16.0547 -17.115,-24.2325 -3.7754,-5.8964 -8.3035,-11.6145 -14.6166,-14.933 -7.5108,-4.312 -15.8792,-7.5188 -24.6615,-7.3525 z"
     id="path3052" /><path
     style="fill:#ff6600;stroke:#000000;stroke-width:6;stroke-linejoin:round;stroke-dasharray:none"
     d="m 1293.9468,1464.8814 c -3.3896,5.7474 -8.8858,9.7438 -13.671,14.2598 -2.8761,2.7561 -4.9314,6.4647 -5.0156,10.5162 -0.2663,4.1399 -0.718,8.2463 -2.0029,12.2017 -1.8101,7.0771 -4.4709,14.5264 -2.6004,21.8742 0.781,2.3278 2.3826,4.5479 4.578,5.6624 0.5775,-1.4985 0.2073,-3.4083 0.475,-5.0616 0.2499,-2.0579 0.6691,-4.3894 2.0598,-6.0333 2.3493,-1.1685 5.0224,-1.7242 7.1948,-3.2922 6.3694,-3.8967 9.4337,-11.4732 9.637,-18.7011 -0.082,-2.5757 0.19,-5.1671 1.3316,-7.5162 0.5752,-1.6159 1.5344,-3.0765 2.2711,-4.588 -1.6828,-6.3056 -2.8061,-12.7422 -3.7114,-19.1986 -0.024,-0.2748 -0.4183,-0.3351 -0.546,-0.1233 z"
     id="path3054" /><path
     style="fill:#ff6600;stroke:#000000;stroke-width:6;stroke-linejoin:round;stroke-dasharray:none"
     d="m 1071.2802,1506.9452 c -7.5177,7.8621 -17.0803,13.4236 -27.3178,16.9884 -5.4297,3.0787 -9.9253,7.5665 -15.3378,10.7119 -4.9661,2.8799 -9.6271,7.843 -9.0935,14.0022 -0.4696,4.2215 1.3336,9.109 -1.9275,12.4803 -4.0432,6.0887 -7.7226,13.9856 -4.4174,21.2247 1.6227,3.7138 4.5842,7.186 8.1555,8.9587 1.7419,-2.3073 0.2244,-5.6999 0.1621,-8.3599 0.9353,-2.2149 3.7355,-3.3117 5.1999,-5.2845 5.1625,-4.8219 10.622,-10.6481 10.5505,-18.2067 -0.04,-3.0533 -0.2743,-6.2231 3.5341,-6.636 6.7419,-2.8274 12.429,-7.4681 18.0166,-12.0543 7.4565,-3.9435 14.6116,-9.54 17.4846,-17.7924 2.5266,-6.631 4.5036,-14.6636 0.773,-21.245 -2.0876,0.7659 -3.9085,3.7101 -5.7823,5.2126 z"
     id="path3056" /><path
     style="fill:#ff6600;stroke:#000000;stroke-width:6;stroke-linejoin:round;stroke-dasharray:none"
     d="m 1030.1524,1526.2605 c -10.4842,2.2693 -20.2013,7.1599 -30.15469,11.0401 -11.33209,4.6486 -22.34687,10.0173 -32.92339,16.1903 -10.53619,5.2451 -22.34525,7.162 -33.81471,9.2918 -5.78844,0.7369 -11.79473,1.7374 -17.52636,1.5783 -4.32981,-2.0101 -8.26156,-5.85 -13.21858,-6.0209 -8.92199,1.8454 -16.02966,8.0425 -23.96932,12.1301 -7.2129,4.9859 -16.04228,7.1882 -22.82115,12.9008 -3.7856,3.458 -8.20294,6.7643 -10.60104,11.3604 0.74149,1.3729 2.77527,-0.7347 3.86589,-0.9924 3.08448,-1.3463 6.82066,-2.5961 10.00532,-2.2215 6.43514,7.2571 16.51574,9.8811 25.92099,9.1471 9.01976,-0.516 18.10775,-2.9519 25.59478,-8.1475 8.23818,2.1988 16.5089,5.1055 25.09155,5.3786 3.84543,-0.6468 7.53246,-2.5282 11.54433,-1.709 11.91904,0.6306 24.384,2.1296 35.88504,-1.8952 7.00234,-2.7494 9.77271,-10.4907 14.76093,-15.5489 5.24801,-6.2916 11.50261,-11.8752 15.12351,-19.3548 3.2573,-4.5265 0.9255,-10.4369 2.1679,-15.5209 0.7568,-7.7462 8.3159,-11.6581 14.0998,-15.4384 0.7351,-0.4321 3.4548,-2.168 0.9692,-2.168 z"
     id="path3058" /><path
     style="fill:#ff6600;stroke:#000000;stroke-width:6;stroke-linejoin:round;stroke-dasharray:none"
     d="m 986.40075,1520.735 c -16.13098,10.9694 -34.22763,19.1255 -53.0505,24.1588 -11.8665,2.8472 -24.67817,3.7447 -36.44973,0.088 -4.35376,-1.5613 -8.97703,-6.0969 -13.82199,-3.3818 -9.17812,7.4292 -16.29605,18.3069 -28.24283,21.5789 -8.32504,3.1937 -16.03631,8.0679 -21.7683,14.9813 -3.82284,3.9665 -7.32485,9.3947 -6.2813,15.1125 2.2171,-0.347 4.08916,-2.7843 6.11924,-3.9242 7.72157,-5.8901 16.01886,-11.2407 25.33354,-14.2059 11.55403,-4.3146 21.7483,-11.3005 32.37315,-17.4017 5.49165,-2.8912 12.45154,-6.3257 18.45859,-2.6472 3.85128,1.3083 7.07849,5.2259 11.42624,4.0538 14.31873,-1.0949 28.7171,-3.5755 42.13083,-8.8133 7.77444,-3.6242 14.61208,-9.002 22.67788,-12.0744 8.69835,-3.9256 17.83863,-7.0031 26.27123,-11.449 0.07,-1.4763 -2.9586,-0.7019 -3.9279,-1.3056 -7.2138,-0.9757 -14.23468,-3.0104 -21.24815,-4.7705 z"
     id="path3060" /><path
     style="fill:#ff6600;stroke:#000000;stroke-width:6;stroke-linejoin:round;stroke-dasharray:none"
     d="m 980.80271,1254.2744 c -4.41647,5.8607 -8.07875,12.6156 -12.19555,18.8151 -17.12972,26.1099 -27.17892,56.2115 -33.66339,86.57 -5.08061,24.5179 -7.08848,49.6038 -7.08191,74.6118 5.33668,11.1963 15.89946,18.4715 25.01565,26.3745 14.81024,12.2908 31.01426,23.2164 43.76921,37.7403 2.62524,2.6152 4.19358,6.8272 1.72108,10.0899 -1.50799,3.1232 -4.91885,5.2573 -5.91609,8.5702 3.91123,1.8013 8.61289,2.1661 12.86659,3.1547 7.5009,1.7338 15.2142,1.4697 22.8544,1.5748 2.3953,-6.9534 1.6267,-15.0853 -0.9122,-22.0209 -2.3536,-5.5603 -4.2099,-12.04 -9.8541,-15.1978 -13.7045,-10.7953 -25.32523,-24.7965 -30.66244,-41.5897 -1.52196,-4.8721 -2.9346,-9.9682 -3.38988,-14.9867 3.43907,-9.1399 3.25555,-20.155 -2.90867,-28.1329 -3.82582,-5.8691 -9.78838,-9.6809 -15.01467,-14.1169 -1.42103,-2.0277 0.47986,-4.8061 0.65421,-7.0253 8.88379,-33.456 27.52297,-63.8711 51.86455,-88.337 1.2653,-2.3377 6.2899,-4.2922 4.961,-6.9386 -7.6986,-9.8428 -18.141,-17.2108 -28.77293,-23.5876 -4.23507,-2.2254 -8.64389,-4.5372 -13.33486,-5.5679 z"
     id="path3062" /><path
     style="fill:#ff6600;stroke:#000000;stroke-width:6;stroke-linejoin:round;stroke-dasharray:none"
     d="m 1026.666,1288.3599 c -20.7366,20.3415 -38.50467,44.1743 -49.1653,71.3583 -2.80864,7.5032 -5.79076,15.1491 -7.14223,23.0314 4.1773,4.6586 9.81474,7.9611 13.37813,13.2493 5.59889,6.9349 7.59187,16.1447 6.34284,24.855 -0.6431,4.2004 -2.45343,8.479 -0.8552,12.7594 3.18426,14.9901 11.21916,28.7803 22.43516,39.1951 4.198,4.5835 9.3766,8.0926 13.8652,12.3264 5.3983,8.8366 9.5785,19.1007 9.0282,29.6106 0.1765,1.94 -0.9558,4.0787 -0.5828,5.8517 4.9378,0.2424 9.7168,-2.1819 14.3474,-3.7109 9.192,-3.7522 17.4013,-10.035 23.5385,-17.8348 -3.3388,-2.6132 -7.9998,-4.1572 -11.4728,-7.0085 -10.7095,-7.4307 -16.1152,-20.3187 -17.237,-32.9407 -1.1413,-11.1159 -1.8169,-22.8061 -7.7761,-32.6231 -3.7656,-6.6055 -9.9636,-11.4444 -15.9386,-15.8219 8.0339,-2.7287 16.3082,-4.9943 23.9084,-8.8988 19.0412,-9.0534 34.6854,-24.0017 46.9206,-40.9793 -4.8475,-7.7196 -10.1491,-15.4759 -13.9435,-23.9117 -4.6389,-9.5296 -7.5953,-19.8306 -10.829,-29.8534 -3.0431,-1.1039 -6.6376,-0.065 -9.7226,-1.3487 -10.5348,-3.8377 -20.5309,-9.564 -28.6836,-17.3205 z"
     id="path3064" /><path
     style="fill:#ff6600;stroke:#000000;stroke-width:6;stroke-linejoin:round;stroke-dasharray:none"
     d="m 696.98641,1376.8989 c -8.25678,3.1222 -16.75663,5.8477 -25.01002,8.7876 0.0655,3.4016 3.13481,6.1102 2.74971,9.6873 0.0681,4.5615 0.48975,9.4059 -2.10757,13.4426 14.32492,19.163 29.5361,38.3413 38.55422,60.7964 4.60286,11.4806 7.53652,23.7198 6.86536,36.1467 0.0919,4.4738 -0.30235,9.1204 -0.4883,13.3923 7.00642,1.2123 14.15614,1.375 21.25082,1.5932 0.36506,-5.9354 -0.60835,-12.3524 -1.20275,-18.4498 -2.33886,-17.4909 -5.94013,-34.9669 -12.30724,-51.4653 -7.77638,-19.0591 -19.42484,-36.5457 -25.08344,-56.4205 -1.61537,-5.644 -2.16797,-11.4906 -2.74371,-17.2689 -0.0846,-0.1741 -0.28144,-0.2926 -0.47708,-0.2416 z"
     id="path3066" /><path
     style="fill:#ff6600;stroke:#000000;stroke-width:6;stroke-linejoin:round;stroke-dasharray:none"
     d="m 622.43946,1325.6399 c -8.22619,8.4481 -17.24304,16.1276 -27.01694,22.7364 -2.02955,1.3506 1.05177,3.3688 1.67176,4.6902 8.91043,11.236 22.11733,17.8248 32.17263,27.894 7.59152,6.8856 13.44733,16.2921 13.64824,26.7749 0.88097,6.3302 -1.6594,12.5333 -5.69699,17.3567 -10.33578,13.3984 -23.11225,24.6429 -35.23299,36.3738 -25.51509,23.6027 -51.62823,46.6087 -78.78666,68.3213 -16.26876,12.9111 -33.39611,24.6787 -50.66016,36.2061 2.96055,3.4498 7.74641,5.7707 11.8681,8.0824 4.94896,2.5114 10.04662,5.1169 15.44273,6.3596 5.03809,-2.7959 10.65432,-4.5143 15.49275,-7.6462 5.84547,-4.6295 8.44161,-12.1428 14.55874,-16.5254 10.25487,-8.1545 21.13088,-15.4996 31.36731,-23.6803 12.38847,-8.0797 24.9348,-16.0479 35.9865,-25.9558 20.15896,-17.2078 35.70332,-39.0332 48.74718,-61.9384 7.54642,-13.1809 15.44404,-26.184 22.68031,-39.5303 2.98227,-5.4947 1.6592,-12.2473 -2.1144,-17.0015 -5.66821,-8.3542 -15.20716,-12.7571 -21.72689,-20.2554 -3.02592,-5.2342 -2.01693,-11.762 -2.62373,-17.5728 -0.26343,-9.2168 -0.15595,-18.9852 -5.12989,-27.1501 -1.54681,-2.3948 -3.07718,-5.3276 -5.22695,-6.9669 -3.14022,3.1425 -6.28043,6.2851 -9.42065,9.4277 z"
     id="path3068" /><path
     style="fill:#ff6600;stroke:#000000;stroke-width:6;stroke-linejoin:round;stroke-dasharray:none"
     d="m 589.48126,1351.8456 c -6.99199,3.0599 -14.0853,6.1582 -21.69834,7.3363 -4.20946,0.8048 -8.47482,1.0601 -12.74542,1.3456 -2.6117,-4.4918 -7.38483,-9.7242 -13.16576,-7.7408 0.96669,5.0562 3.43857,10.2709 5.13707,15.3437 5.55643,14.665 12.26498,30.1919 25.75609,39.2688 9.64686,7.3479 21.98314,13.6594 34.4099,10.4277 2.93863,-0.3195 5.5523,-2.6143 8.42865,-2.6445 -1.18335,6.2575 -7.38214,10.9912 -13.7294,10.8529 -8.76188,0.2683 -17.00698,-3.4252 -25.24856,-5.8829 -11.56855,5.0375 -20.88267,14.4297 -26.46994,25.6783 -12.24239,21.4355 -26.18323,41.9628 -41.65743,61.2109 -8.7335,10.4313 -17.80636,20.5806 -26.75838,30.8205 -5.5157,6.1692 -13.28212,11.0781 -21.83171,10.6255 0.60904,3.3883 3.18535,6.8354 5.16022,9.936 1.21843,1.1947 2.02151,3.5761 3.68473,3.9937 31.10895,-19.7052 60.16466,-42.481 87.76272,-66.8246 23.89502,-21.0685 48.2421,-41.7682 70.11566,-64.9788 4.33646,-5.1836 9.76918,-10.2557 11.31192,-17.0711 0.46346,-8.5006 -1.29416,-17.5302 -7.18828,-23.9995 -11.95715,-14.1853 -30.32868,-21.792 -40.53901,-37.5779 -0.2171,-0.1369 -0.48648,-0.1546 -0.73473,-0.1198 z"
     id="path3070" /><path
     style="fill:#ff6600;stroke:#000000;stroke-width:6;stroke-linejoin:round;stroke-dasharray:none"
     d="m 734.34192,1357.2524 c -10.17578,6.3292 -20.89218,11.9785 -31.62058,17.1001 0.005,9.5931 1.32502,19.2615 5.31856,28.0658 7.67784,19.0838 18.88202,36.6669 25.22408,56.2702 5.92216,19.9019 9.93042,40.4688 10.45632,61.2554 6.75387,0.8006 13.95302,-0.7006 20.83063,-1.3423 1.91952,-0.5812 4.76363,-0.039 6.19034,-1.4547 -4.09186,-17.5984 -4.53557,-35.8441 -8.72316,-53.4351 -1.57128,-4.1542 -2.20752,-8.4349 -2.02705,-12.8628 -1.13769,-12.3024 -4.12418,-24.3345 -5.41231,-36.6257 -2.54842,-17.3893 -4.0679,-34.9416 -7.07006,-52.2616 -0.88472,-3.7454 -4.1019,-6.6497 -7.32818,-8.3417 -1.9462,1.2108 -3.89239,2.4216 -5.83859,3.6324 z"
     id="path3072" /><path
     style="fill:#ff6600;stroke:#000000;stroke-width:6;stroke-linejoin:round;stroke-dasharray:none"
     d="m 768.99402,1522.9039 c -8.36591,1.3517 -17.04329,1.7055 -25.31499,2.788 -0.22499,5.7295 -2.94523,10.8315 -5.80977,15.6567 -1.71146,4.4905 -2.75547,10.0574 -7.55225,12.3758 -6.14345,3.0391 -12.81952,-2.6636 -18.92283,0.6622 -5.65639,2.3721 -6.43223,9.3498 -10.43318,13.4275 -5.91039,7.9271 -16.49391,9.1058 -23.75393,15.2844 -4.53359,3.6208 -7.83804,9.0005 -8.53193,14.8043 1.68292,0.2045 3.30955,-2.0088 5.13178,-2.5186 3.7835,-1.5868 7.84222,-3.8078 12.04682,-3.3663 3.03815,1.705 6.18909,3.3706 9.79001,3.4714 11.95696,0.7627 23.98483,-1.6342 35.35968,-5.0878 4.57111,-0.2335 9.22997,0.8271 13.8391,-0.054 10.50947,-0.8094 20.67412,-9.5483 20.70228,-20.5412 0.81924,-7.915 -0.19557,-16.1686 3.22679,-23.6007 2.96522,-7.4054 1.72871,-15.5504 2.30583,-23.3123 -0.47204,-0.6876 -1.4261,0.073 -2.08341,0.011 z"
     id="path3074" /><path
     style="fill:#ff6600;stroke:#000000;stroke-width:6;stroke-linejoin:round;stroke-dasharray:none"
     d="m 696.25772,1564.1213 c -21.09362,4.7947 -42.73775,8.4452 -64.47209,7.3292 -11.15391,-0.3747 -23.31146,1.1422 -31.84252,9.0488 -2.64792,2.5228 -6.35261,5.0958 -7.14147,8.6622 4.6501,0.9098 10.03098,3.7441 14.60201,1.1856 2.30822,-1.6073 1.27869,-5.0627 2.12971,-7.0614 1.55344,3.7675 3.6854,8.1672 8.13538,9.0543 12.5574,1.3831 25.41988,1.137 37.84063,-1.2923 7.81855,-1.1829 12.35048,-8.3847 18.8258,-12.1262 5.68711,-4.4577 12.71457,-6.5445 18.7763,-10.3485 1.15793,-1.2756 3.66307,-2.5516 3.57702,-4.3672 -0.11718,-0.101 -0.28526,-0.1096 -0.43077,-0.084 z"
     id="path3076" /><path
     style="fill:#ff6600;stroke:#000000;stroke-width:6;stroke-linejoin:round;stroke-dasharray:none"
     d="m 716.04311,1524.2828 c -7.66305,12.127 -19.10753,21.3701 -30.96134,29.1799 -4.98103,3.4235 -10.86484,5.3097 -16.89222,5.1676 -4.49373,0.048 -9.21585,0.8162 -13.55952,0.3027 -4.38257,-3.701 -10.805,-5.8977 -16.17245,-2.9441 -1.91323,0.5983 -3.51214,3.3625 -5.63024,1.7201 -4.88577,-3.0464 -11.97761,-5.4809 -16.88471,-1.1564 -5.57315,4.6401 -10.47148,10.7231 -17.91333,12.3736 -10.23919,3.1885 -19.87339,10.0379 -24.4776,19.9183 0.004,1.7065 2.42306,-0.1846 3.33548,-0.035 3.7134,-1.2338 8.18482,-0.7044 11.43462,-3.0687 5.2807,-6.3159 11.1374,-12.6122 19.01844,-15.6105 9.63215,-4.6185 20.66455,-2.751 30.96933,-3.3233 20.25081,0.08 40.37984,-3.3293 59.95507,-8.3076 4.49635,-0.5662 5.40876,-5.8732 9.2405,-7.606 4.75593,-3.2253 10.64256,-2.0775 15.96679,-1.9727 7.11767,-5.8613 14.09196,-13.5192 15.27636,-23.0282 -5.90223,-0.9851 -12.42933,-0.613 -18.56453,-1.3517 -1.35835,-0.012 -2.83382,-0.524 -4.14065,-0.2577 z"
     id="path3078" /><path
     style="fill:#ff6600;stroke:#000000;stroke-width:6;stroke-linejoin:round;stroke-dasharray:none"
     d="m 379.85965,1561.0405 c -5.40055,1.1939 -6.77251,8.8534 -12.61591,9.1877 -11.14597,1.9709 -23.80402,4.9319 -30.69091,14.8208 -1.3422,2.3084 -3.05189,5.1347 -2.75775,7.7982 3.38007,-1.6392 6.44747,-4.4568 10.15941,-5.6191 1.47288,-1.0928 2.52801,0.1837 2.48499,1.719 0.68138,5.1584 6.96621,5.7983 11.05216,6.4395 8.02596,0.9519 16.12445,1.3986 24.1515,2.1367 5.64119,0.2573 11.14307,-1.7674 15.59541,-5.128 8.68842,1.2154 17.52171,-1.2249 26.29529,-0.8615 16.87338,-0.3461 33.81478,1.1281 50.64351,-0.4561 6.41435,-0.9939 13.00243,-2.9239 18.26313,-6.7876 -0.17184,-1.6573 -2.92182,-1.929 -4.12081,-2.8007 -7.51109,-2.9781 -14.03746,-7.8036 -20.61846,-12.3307 -7.70417,-1.9651 -15.8407,-1.7175 -23.75192,-1.9992 -9.4481,-0.1149 -19.00357,0.4595 -28.2157,2.3687 -8.68449,0.5741 -17.7202,0.622 -26.09397,-1.9426 -3.66642,-1.4564 -5.84983,-5.4794 -9.62396,-6.5492 z"
     id="path3080" /><path
     style="fill:#ff6600;stroke:#000000;stroke-width:6;stroke-linejoin:round;stroke-dasharray:none"
     d="m 376.2323,1548.2461 c -6.6683,1.1625 -10.41288,7.835 -15.91849,11.0884 -4.70254,3.2845 -10.78998,1.3181 -16.01813,3.0567 -12.69064,2.8167 -22.87902,12.8043 -27.56227,24.7265 -0.43158,1.7949 -2.40674,3.9873 -1.39013,5.802 2.44164,0.585 4.58257,-1.9996 6.69812,-2.8856 2.2755,-1.7967 5.24579,-2.1824 7.66435,-3.5367 3.8215,-6.0505 8.62492,-11.5615 14.78217,-15.3136 8.98936,-4.4554 19.9912,-4.5012 27.68424,-11.5685 2.18753,-1.5213 3.85041,-4.722 7.02523,-3.4844 5.36601,-0.1937 8.3451,4.849 12.59409,7.0936 8.57305,2.2095 17.64701,1.7224 26.3899,0.9149 14.2058,-2.6366 28.77138,-1.7048 43.13874,-1.2873 0.43636,-1.6109 -1.8224,-3.2724 -2.38535,-4.8361 -1.97623,-2.4477 -2.40185,-5.9488 -4.59861,-8.1535 -3.69101,-0.9093 -7.5696,0.7575 -11.24037,1.3275 -5.39804,1.3023 -10.51709,3.5218 -15.42934,6.0782 -7.65956,-1.4349 -15.61855,-1.6536 -23.27888,-0.3322 -3.43225,-1.0736 -6.99482,-2.2054 -10.69696,-1.6264 -4.14102,1.0258 -6.50676,-3.3421 -10.03149,-4.7587 -2.28677,-1.169 -4.80292,-2.3577 -7.42682,-2.3048 z"
     id="path3082" /></g><g
   id="winged"
   style="display:inline;stroke-width:6;stroke-dasharray:none"
   transform="translate(-38.353198,-25.600039)"><path
     style="fill:#0000ff;stroke:#000000;stroke-width:6;stroke-linejoin:round;stroke-dasharray:none"
     d="m 1647.9469,158.04901 c -184.1251,0.33083 -368.4246,25.9502 -544.7057,79.54002 -18.0146,5.87897 -37.0701,9.93216 -54.246,17.72508 9.7903,0.92126 21.0357,-2.02731 31.2612,-2.71187 108.8667,-12.78982 218.393,-21.12176 328.0615,-20.8481 100.6154,-1.40466 201.5448,2.19987 301.1365,17.33294 94.1338,13.29389 187.7137,30.29139 281.6944,44.48457 5.1759,-0.16201 -2.7399,-3.03851 -4.364,-3.18531 -42.1428,-14.21532 -85.9069,-26.07339 -124.2723,-49.16083 -8.3205,-6.14368 -21.8666,-14.56375 -17.5332,-26.75096 6.3962,-11.95899 21.7954,-14.76709 33.5555,-19.00988 30.4719,-8.90803 62.4622,-10.6972 93.518,-16.35251 -1.8729,-2.26383 -8.5373,-0.34816 -11.5895,-1.74416 -103.7222,-12.22355 -208.0278,-19.84928 -312.5164,-19.31899 z"
     id="path2775" /><path
     style="fill:#0000ff;stroke:#000000;stroke-width:6;stroke-linejoin:round;stroke-dasharray:none"
     d="m 1542.0077,339.1055 c -172.1349,0.73212 -345.1962,16.59487 -511.8592,61.22344 -14.8431,4.13479 -31.25582,7.25463 -44.88076,12.7979 59.03816,4.3332 118.22546,7.67968 176.87746,16.0073 131.1203,17.81326 260.8991,44.90244 389.0204,77.78703 48.1852,12.27156 95.4586,27.76393 142.6311,43.34526 -1.1099,-4.24627 -7.9129,-6.94814 -10.8684,-10.66517 -18.6283,-17.59432 -40.6247,-38.71484 -39.2743,-66.50752 2.6057,-25.13558 24.7495,-42.39278 44.6479,-55.13252 53.4935,-30.53646 114.1751,-45.64048 174.2391,-56.91862 6.9324,-1.52837 14.5347,-1.82313 21.1257,-4.16765 -22.4576,-4.0157 -46.1595,-4.40295 -69.0892,-6.6843 -90.6757,-7.18866 -181.5931,-11.50187 -272.5698,-11.08515 z"
     id="path2777" /><path
     style="fill:#0000ff;stroke:#000000;stroke-width:6;stroke-linejoin:round;stroke-dasharray:none"
     d="m 1074.2402,532.6621 c -64.5799,0.52522 -129.69208,0.35288 -193.50247,11.16497 2.60766,2.09196 9.08235,0.39701 12.87806,1.57427 87.29039,8.60202 174.38391,25.12874 256.72641,55.83958 69.1346,27.0387 133.0337,65.38317 199.8926,97.34196 25.7694,12.36719 51.3677,25.49406 77.5839,36.70558 1.6852,-2.83277 -4.7002,-6.10459 -5.8131,-8.7794 -13.5636,-15.77669 -23.9205,-36.84165 -18.3104,-58.01118 7.4199,-22.83192 29.4507,-36.82149 49.1061,-48.48147 34.104,-19.27223 73.0578,-27.2635 111.4225,-32.51157 2.3988,-2.33782 -5.7417,-1.914 -6.6814,-2.8069 -142.4066,-26.10381 -286.2941,-46.46859 -431.1237,-51.64629 -17.3902,-0.35166 -34.7852,-0.41401 -52.1785,-0.38955 z"
     id="path2779" /><path
     style="fill:#0000ff;stroke:#000000;stroke-width:6;stroke-linejoin:round;stroke-dasharray:none"
     d="m 725.24938,569.5912 c -66.28742,-0.0627 -133.34754,2.7518 -197.59949,20.46221 -6.08969,1.92275 -13.80876,3.0078 -18.49781,6.50341 128.79961,-5.95006 258.11918,1.87027 385.45492,21.87754 216.3123,33.66773 426.3353,99.47055 629.6104,179.66404 1.1688,0.0705 7.3096,3.64624 5.7248,0.25363 -16.0279,-15.579 -38.1354,-22.2236 -57.6371,-32.24242 -64.4398,-29.69766 -128.9495,-59.78135 -196.6418,-81.45987 -59.1283,-20.11635 -112.5797,-53.41812 -170.5657,-76.31114 -63.7728,-26.2054 -133.29445,-33.05539 -201.5684,-35.93328 -59.40194,-1.90105 -118.8486,-2.71049 -178.27982,-2.81412 z"
     id="path2785" /><path
     style="fill:#0000ff;stroke:#000000;stroke-width:6;stroke-linejoin:round;stroke-dasharray:none"
     d="m 1007.8931,443.3001 c -63.10396,-0.11286 -126.52421,6.02392 -187.41627,23.15205 -63.30248,17.22811 -126.35786,35.38302 -189.38682,53.58579 -44.18062,13.45652 -88.09259,29.68404 -127.29241,54.44476 -1.1634,2.26048 3.99361,-0.002 5.09031,0.11705 81.24535,-18.82405 163.4302,-33.76521 246.36959,-42.78967 81.32303,-8.82133 163.08577,-14.52478 244.926,-13.92583 59.2407,-0.4224 118.4946,0.91947 177.5883,5.27479 130.935,8.41091 261.0262,27.24143 389.7378,52.39614 58.1461,11.21011 118.3794,9.67349 175.5918,25.82946 18.0956,5.17934 34.8164,14.15485 50.4702,24.38224 1.6626,-1.75554 -2.05,-4.80254 -2.7236,-6.59245 -17.2064,-24.91274 -46.4516,-36.99466 -73.7166,-47.4354 -77.4952,-26.58864 -159.3868,-36.61253 -237.7846,-59.97095 -121.7774,-33.90569 -247.0163,-55.08056 -373.0099,-64.8527 -32.7587,-2.3471 -65.5979,-3.68778 -98.4438,-3.61528 z"
     id="path2787" /><path
     style="fill:#0000ff;stroke:#000000;stroke-width:6;stroke-linejoin:round;stroke-dasharray:none"
     d="m 1381.6877,248.93472 c -105.85,-0.0149 -212.0793,9.56314 -315.0296,34.88806 -122.1726,29.28462 -238.47114,79.15555 -348.79427,138.66734 -77.80497,41.01659 -153.53565,86.4371 -223.97374,139.21885 -1.47291,0.28641 -3.14174,3.41888 -0.55988,2.4573 34.41212,-16.60578 68.48251,-34.01765 103.83837,-48.61491 208.64673,-89.73934 430.27122,-149.18423 655.93282,-175.21089 214.2816,-25.27475 431.3157,-20.87869 645.4686,3.41268 45.4961,6.1954 91.4542,6.63108 137.2871,6.58323 41.1831,1.12066 83.5501,0.99325 122.8654,14.77633 14.152,5.16236 27.4928,12.67807 38.6428,22.80281 1.8693,-1.44814 -1.4886,-5.389 -2.1277,-7.22451 -12.3832,-17.48725 -33.8006,-25.004 -53.0378,-32.29804 -65.5741,-21.84402 -134.2471,-31.87105 -201.9329,-44.82951 -87.1356,-16.47126 -174.8405,-30.03546 -263.0887,-38.93168 -98.1476,-10.08218 -196.8044,-15.96109 -295.4905,-15.69706 z"
     id="path2789" /><path
     style="fill:#0000ff;stroke:#000000;stroke-width:6;stroke-linejoin:round;stroke-dasharray:none"
     d="m 1573.2309,29.216102 c -107.1668,0.867987 -214.5911,9.674491 -319.6822,31.176725 -108.0654,22.309367 -208.5505,72.248133 -299.50256,133.702413 -53.84892,35.44737 -104.15595,75.86588 -156.95574,112.77228 -85.836,59.0761 -176.64019,112.4815 -251.93253,185.34371 -18.85477,18.33882 -37.87566,36.6742 -55.18729,56.46129 -0.25483,3.25422 4.23783,-1.16111 5.34038,-1.73316 159.2805,-123.63724 335.00872,-227.41758 524.24304,-297.98148 190.962,-71.76107 394.8475,-108.44827 598.8275,-108.75721 131.374,-1.5768 262.5333,11.60072 391.9404,33.59892 23.2689,3.74396 46.5613,8.1828 70.245,7.47939 38.8192,0.99471 77.7579,-0.76417 116.5065,1.56953 37.7432,4.25405 74.2335,16.89007 106.9055,36.2238 15.1118,8.26385 28.6847,18.99285 42.887,28.57613 1.5789,-1.37733 -2.5306,-4.37513 -3.098,-6.05499 -18.0146,-25.38283 -43.3439,-44.64078 -71.2125,-58.08338 -35.2152,-17.32225 -72.0716,-31.00756 -107.5917,-47.67778 -141.8654,-61.831403 -295.972,-90.668899 -449.6685,-101.990816 -47.2719,-3.365521 -94.6741,-4.876992 -142.0643,-4.625372 z"
     id="path2791" /><path
     style="fill:#0000ff;stroke:#000000;stroke-width:6;stroke-linejoin:round;stroke-dasharray:none"
     d="m 518.96636,441.00084 c -12.04489,0.53481 -22.62441,7.59522 -30.75065,16.04005 -2.52376,2.4631 -6.69985,1.77803 -8.70538,5.07292 -6.87376,8.51249 -11.02763,18.86429 -17.91748,27.40856 -9.35867,12.89982 -20.30594,27.47515 -18.4347,44.35322 2.32252,29.03246 8.20122,58.22339 3.76805,87.35524 -0.78387,9.51309 -2.01005,19.489 0.63784,28.79873 4.42976,11.79345 17.36777,16.56979 27.21503,22.815 21.3747,12.24549 41.61192,26.61763 58.88794,44.25313 8.02131,8.43758 19.33993,12.30964 29.10389,18.25907 46.58091,25.47578 93.22006,50.93143 138.52562,78.62806 21.46018,13.96977 40.32643,32.03335 63.44731,43.37393 6.61926,2.71965 13.95357,6.42094 21.11723,3.26523 5.09114,-1.81203 13.15137,-3.85544 12.89154,-10.66395 -1.65564,-8.58471 -9.62191,-13.97845 -15.93075,-19.22988 -25.97627,-18.62027 -55.32821,-31.76191 -83.929,-45.74706 -29.17971,-13.56319 -58.72392,-26.94912 -84.90037,-45.90275 -32.91726,-23.30508 -63.5223,-49.73287 -92.77007,-77.45025 -6.60073,-7.0594 -9.87712,-16.54917 -16.73401,-23.45105 -19.82437,-26.03895 -35.38231,-57.11222 -36.00498,-90.39783 -0.83762,-31.83707 14.68658,-61.63853 34.86564,-85.37276 5.593,-7.24236 12.77849,-13.23897 18.1438,-20.58916 0.11778,-1.29195 -1.88207,-0.67526 -2.5265,-0.81845 z"
     id="path2866" /><path
     style="fill:#0000ff;stroke:#000000;stroke-width:6;stroke-linejoin:round;stroke-dasharray:none"
     d="m 370.56582,1122.6681 c -15.73325,7.2633 -29.50196,18.3448 -43.7259,28.1745 -33.68895,25.447 -64.91723,54.0441 -95.16029,83.4542 -6.82845,6.4846 -16.27511,16.4799 -10.78343,26.5449 6.76646,9.014 19.38659,9.5988 29.46514,12.2751 40.77154,7.8002 82.57741,5.1808 123.76613,3.1505 29.29282,-2.1628 58.64575,-3.817 87.85692,-6.8947 -1.25423,-3.3822 -1.63419,-9.3487 -5.37862,-11.4034 -55.19811,2.9232 -110.70065,3.7079 -165.93811,0.5255 -14.26569,-1.2482 -30.63935,-2.5476 -43.62714,-4.6803 44.63191,-1.7597 89.34472,-2.1223 133.88266,-5.9204 23.26402,-2.1509 46.79394,-2.9924 69.845,-6.6344 -2.001,-9.0129 -7.34686,-17.5656 -11.07128,-26.1624 -2.46591,-2.9396 -2.77425,-9.2522 -6.94068,-10.2118 -15.99133,4.9387 -31.60499,11.3723 -47.87222,15.5924 -44.87664,12.5389 -91.00918,21.6328 -137.46504,25.009 4.53247,-3.6389 11.91277,-6.5086 17.54113,-9.6265 45.97352,-23.6288 94.68466,-41.9293 145.0215,-53.6911 2.30078,-1.2686 6.93223,-0.9108 8.14645,-3.2771 -6.97403,-10.0755 -13.92195,-20.7985 -23.09469,-28.892 -51.58552,24.64 -99.88102,55.5103 -146.54551,88.383 -3.81521,2.2779 3.63656,-4.4584 4.9076,-5.7913 39.02712,-36.8791 82.75885,-68.3872 127.91758,-97.2763 0.42982,-3.9425 -4.72442,-6.6477 -6.77071,-9.6813 -1.23434,-0.9792 -2.3307,-2.7115 -3.97649,-2.9661 z"
     id="path2868" /><path
     style="fill:#0000ff;stroke:#000000;stroke-width:6;stroke-linejoin:round;stroke-dasharray:none"
     d="m 410.54119,1186.9661 c -45.00452,10.9019 -89.17671,26.1092 -130.57219,46.9556 -1.32591,0.2922 -6.75701,3.8978 -2.36168,3.5938 30.69474,-3.4634 61.04587,-9.9361 91.00391,-17.39 20.48461,-6.2214 41.34667,-11.8878 61.12958,-19.9846 0.93452,-4.3214 -3.65077,-8.1824 -5.29812,-11.959 -2.58518,-6.8551 -8.80421,-1.3399 -13.9015,-1.2158 z"
     id="path2870" /><path
     style="fill:#0000ff;stroke:#000000;stroke-width:6;stroke-linejoin:round;stroke-dasharray:none"
     d="m 593.93997,1102.9995 c -17.66861,4.9198 -35.08631,17.4373 -54.15869,12.0515 -3.44341,-1.3225 -7.42098,-6.3566 -11.14174,-2.6651 9.09353,6.2558 20.70209,8.5924 31.46257,10.8579 10.76269,2.6131 22.24573,-1.8233 28.59812,-10.864 1.77516,-2.897 5.61894,-5.8878 5.50344,-9.33 -0.0802,-0.044 -0.17339,-0.061 -0.2637,-0.05 z"
     id="path2872" /><path
     style="fill:#0000ff;stroke:#000000;stroke-width:6;stroke-linejoin:round;stroke-dasharray:none"
     d="m 621.74801,1071.484 c -10.32768,2.29 -20.49402,5.2821 -30.6735,8.1551 -24.7113,7.1794 -48.86307,16.2269 -72.27079,26.9107 -0.41976,0.7753 1.04703,1.3436 1.67227,1.6592 2.06931,-0.026 4.12617,-0.8437 6.20823,-1.0959 25.68965,-4.9348 51.45841,-9.5444 77.20782,-14.1382 5.38799,-5.3929 10.22111,-11.3321 15.1932,-17.1103 1.00531,-1.3624 2.36713,-2.5542 3.09455,-4.0811 -0.002,-0.2294 -0.24213,-0.3273 -0.43178,-0.2995 z"
     id="path2876" /><path
     style="fill:#0000ff;stroke:#000000;stroke-width:6;stroke-linejoin:round;stroke-dasharray:none"
     d="m 503.2068,1089.4049 c -1.01743,0.028 -2.07918,0.382 -2.86645,0.9909 1.68028,2.1831 3.91359,4.0798 5.85115,6.1089 2.50919,2.3668 4.99523,4.9331 7.78623,6.8818 6.84205,-3.2008 13.85397,-6.1622 20.75605,-9.2572 0.85282,-0.7509 -0.74205,-1.0605 -1.2772,-1.0178 -9.82388,-1.308 -19.72043,-2.0617 -29.48958,-3.6832 -0.25264,-0.022 -0.50675,-0.026 -0.7602,-0.023 z"
     id="path2878" /><path
     style="fill:#0000ff;stroke:#000000;stroke-width:6;stroke-linejoin:round;stroke-dasharray:none"
     d="m 635.59063,1015.0678 c -14.89746,4.4553 -29.65254,9.3956 -44.39447,14.3435 -30.31526,10.4441 -60.44349,21.8697 -88.73264,37.0801 -4.81967,2.7059 -9.73265,5.3238 -14.33178,8.3734 0.37909,1.455 1.78383,2.5758 2.57319,3.8744 2.00555,2.3971 3.64376,5.2431 6.09311,7.1989 6.49684,-1.6707 12.82995,-4.0274 19.20017,-6.1514 38.25634,-13.3343 74.99554,-30.8022 113.84341,-42.4455 1.80594,-0.1166 1.68947,-2.1751 2.05938,-3.4516 1.36901,-6.1897 3.09833,-12.3576 4.04542,-18.6215 -0.10544,-0.043 -0.20967,-0.2389 -0.35579,-0.2003 z"
     id="path2880" /><path
     style="fill:#0000ff;stroke:#000000;stroke-width:6;stroke-linejoin:round;stroke-dasharray:none"
     d="m 1323.7847,1108.4646 c 3.4099,11.0963 7.6463,22.057 12.0902,32.8288 5.6507,0.186 11.5264,-0.3886 17.2695,-0.3385 45.4515,-0.7774 90.9897,0.1992 136.2571,4.6278 16.6908,1.5818 33.378,3.4495 50.1635,3.5859 5.8189,0.049 11.665,0.5622 17.1868,2.534 3.4869,1.5486 6.9396,-0.7477 10.3244,-1.3971 4.2719,-1.5265 8.478,0.9365 12.4178,2.3301 3.2979,1.2962 6.3779,3.1579 9.3243,5.0231 1.3412,-3.7087 -1.9814,-7.204 -4.8594,-9.1495 -8.0291,-5.0945 -17.5969,-6.7613 -26.4004,-10.0507 -11.9311,-4.1954 -23.8303,-8.5579 -36.1585,-11.4771 -38.9049,-9.568 -78.9231,-13.6205 -118.8308,-16.15 -26.1562,-1.3995 -52.3455,-2.4383 -78.5418,-2.4913 z"
     id="path2882" /><path
     style="fill:#0000ff;stroke:#000000;stroke-width:6;stroke-linejoin:round;stroke-dasharray:none"
     d="m 1580.9705,1016.597 c -39.9193,0.9506 -79.8585,0.6572 -119.7886,0.8062 -33.2041,0.1757 -66.4234,-0.2967 -99.6141,0.8428 -18.4992,0.7956 -37.0114,1.7369 -55.4373,3.5833 -2.558,-0.1942 -0.9821,2.7906 -1.1301,4.2929 2.6998,22.7146 7.4925,45.1458 13.8437,67.1123 3.7877,0.4579 7.8756,-0.1206 11.7774,-0.1335 27.29,-1.0598 54.6659,-0.7633 81.8649,1.8559 14.6605,1.2668 29.2274,3.3932 43.7414,5.7603 0.7015,-0.9741 -1.008,-2.1923 -1.2835,-3.2039 -3.7897,-6.6659 -6.4257,-14.3305 -5.2483,-22.0568 1.4953,-10.4394 9.5763,-18.3382 17.8218,-24.0812 15.9246,-10.5682 34.4478,-16.369 52.7212,-21.4405 20.3556,-5.5255 41.1478,-9.1442 61.9115,-12.6895 1.1581,-0.6886 -0.8511,-0.7618 -1.18,-0.6483 z"
     id="path2884" /><path
     style="fill:#0000ff;stroke:#000000;stroke-width:6;stroke-linejoin:round;stroke-dasharray:none"
     d="m 1522.7522,980.15995 c -43.1548,0.14066 -86.2867,2.10754 -129.3572,4.70341 -30.0418,1.86823 -60.0487,4.27247 -90.018,7.07006 -0.6207,2.64082 -0.035,5.74176 -0.1765,8.56088 0.228,1.9301 -0.2663,4.1642 0.432,5.9476 11.064,-0.094 22.1341,-1.0999 33.2026,-1.4779 113.2215,-5.27313 226.7928,-5.6562 339.8939,2.3326 27.1831,2.1073 54.0148,7.4793 81.2009,9.6092 11.0272,0.7944 22.1141,-0.01 33.1241,0.9103 2.7559,0.2436 5.4829,1.4804 8.2378,1.306 0.6451,-1.1417 -1.2231,-2.2041 -1.8426,-3.066 -7.6507,-6.4163 -18.0145,-7.6073 -27.3738,-9.9402 -54.5473,-12.01218 -109.874,-21.09747 -165.7023,-24.1063 -27.1746,-1.78894 -54.3995,-1.8692 -81.6209,-1.84965 z"
     id="path2886" /><path
     style="fill:#0000ff;stroke:#000000;stroke-width:6;stroke-linejoin:round;stroke-dasharray:none"
     d="m 1738.2061,903.6171 c -100.1229,0.96438 -199.8125,11.83235 -299.157,23.46919 -44.1577,5.55515 -88.3131,11.39713 -132.1862,18.85495 -2.3208,8.7194 -2.575,18.17952 -3.6421,27.21924 -2.0658,5.30745 3.5838,2.67641 6.4959,2.60195 106.5076,-13.99174 213.4325,-24.64252 320.5684,-32.4555 18.6546,-0.87325 36.8791,-5.04627 54.8393,-9.91152 66.9453,-16.74766 136.6384,-15.91188 205.1737,-14.22277 33.6124,1.62934 67.3065,4.18041 100.4721,9.99409 1.2346,0.73933 3.8398,0.90087 2.3756,-1.11735 -4.7681,-8.57669 -15.3616,-11.1539 -24.0479,-13.9007 -32.8318,-8.18832 -66.9884,-7.05717 -100.5502,-8.39022 -43.4418,-0.82228 -86.8892,-2.2829 -130.3416,-2.14136 z"
     id="path2890" /><path
     style="fill:#0000ff;stroke:#000000;stroke-width:6;stroke-linejoin:round;stroke-dasharray:none"
     d="m 1937.6298,829.85198 c -57.1167,0.69335 -114.0929,5.36985 -171.1847,7.02311 -85.6151,3.5561 -169.565,22.07601 -254.5862,31.17762 -65.9107,7.06235 -129.3897,27.66264 -194.5257,38.66166 -1.8634,8.374 -8.128,16.92713 -6.9802,25.55533 88.8909,-13.69548 177.996,-27.64545 267.5153,-37.37506 61.2817,-7.42253 122.9081,-11.49002 184.2875,-17.79791 32.3067,-5.83351 64.3147,-13.56244 97.1615,-15.9647 61.1181,-6.355 123.318,-16.34107 184.5022,-5.14115 28.7188,4.40924 56.3611,13.94849 83.4583,23.85297 -1.5544,-5.14992 -8.5236,-8.41116 -12.6082,-12.05886 -22.6768,-14.3475 -49.9259,-18.57504 -75.2409,-26.31075 -33.1901,-9.30581 -67.3995,-12.61966 -101.7989,-11.62226 z"
     id="path2971" /><path
     style="fill:#0000ff;stroke:#000000;stroke-width:6;stroke-linejoin:round;stroke-dasharray:none"
     d="m 516.58594,623.58684 c -9.13901,-0.40549 1.8826,9.42084 2.9671,12.70581 34.83893,53.2309 84.26771,96.0672 141.29369,124.10301 43.77345,24.30079 92.41023,40.82331 131.94149,72.16864 9.15266,6.13576 16.2363,22.35778 3.23281,28.55988 -29.07794,9.79038 -39.88897,41.84852 -57.06792,64.30001 -32.78437,48.46543 -71.99007,94.34011 -91.99177,150.05211 -3.70407,9.148 -4.16008,25.8675 9.28779,26.1885 33.47937,0.6475 65.29177,-12.8571 98.27213,-17.0617 72.42933,-14.9934 146.9193,-14.3874 220.43179,-10.4916 92.13035,9.9192 181.75675,43.7553 257.27245,97.5963 5.4506,6.1342 6.6846,-2.4991 5.7852,-6.6387 C 1230.8353,1043.516 1181.128,922.25453 1090.8432,838.89708 1008.5797,757.57942 900.22385,708.56761 790.94637,675.00255 701.67129,648.24908 609.29977,632.10636 516.58594,623.58684 Z"
     id="path3084" /><path
     style="fill:#0000ff;stroke:#000000;stroke-width:6;stroke-linejoin:round;stroke-dasharray:none"
     d="m 634.3966,613.21958 c -34.4049,0.27783 -68.84684,0.89841 -103.1835,3.09158 -1.963,0.80046 1.83663,1.36205 2.59235,1.43143 39.32894,5.47455 78.70288,10.8124 117.70398,18.36155 111.03759,21.1121 221.31654,53.27265 320.44261,108.65262 60.60826,33.81371 116.23056,77.32752 160.66166,130.86512 56.2564,67.29039 91.2402,150.88852 104.809,237.19692 2.9837,18.064 4.6791,36.5646 6.4301,54.6057 27.8227,0 55.6455,0 83.4683,0 -2.3705,-7.6741 -6.7144,-15.5 -9.5159,-23.3772 -21.6431,-55.7633 -34.8467,-115.8723 -30.7458,-175.90849 3.0393,-44.47258 18.4359,-88.91114 48.1107,-122.71349 16.7583,-20.15978 40.378,-32.67737 63.098,-44.90524 11.0318,-5.83138 22.5305,-10.74713 34.2534,-14.86967 0.075,-1.81641 -3.5916,-1.97871 -4.8043,-3.04028 -171.5716,-73.57882 -352.3569,-126.74648 -537.50135,-151.97055 -84.73808,-11.5657 -170.29539,-17.39591 -255.81925,-17.42 z"
     id="path3090" /><path
     style="fill:#0000ff;stroke:#000000;stroke-width:6;stroke-linejoin:round;stroke-dasharray:none"
     d="m 580.94592,760.0353 c 0.49608,6.04835 6.71621,11.86792 9.55899,17.46235 39.62405,58.98293 70.69825,128.25754 66.7369,200.74145 -1.41443,32.4988 -11.29602,63.8658 -16.719,95.6567 3.75504,-2.7516 3.97587,-10.3121 6.72271,-14.4781 27.02837,-59.3228 71.13264,-108.33851 104.90142,-163.58932 5.00055,-7.46521 8.62277,-18.85522 -0.19928,-25.18809 -48.20158,-48.0801 -107.80467,-83.35615 -169.88012,-110.43703 -0.35912,-0.0667 -0.7434,-0.24135 -1.12162,-0.16796 z"
     id="path3092" /><path
     style="fill:#0000ff;stroke:#000000;stroke-width:6;stroke-linejoin:round;stroke-dasharray:none"
     d="m 641.26155,1074.3865 c -0.45136,0.5214 -1.47545,0.098 -1.62016,0.9643 -1.30138,6.4404 -2.20602,13.036 -1.89272,19.6221 0.2067,4.1134 1.25753,8.7695 4.89178,11.2293 3.42299,2.3122 7.82629,1.8459 11.68664,1.2106 0.48001,0.087 1.37809,-0.4599 0.64479,-0.8185 -3.05538,-0.7224 -6.1913,-1.4864 -8.77975,-3.3869 -4.51697,-3.1038 -6.58244,-8.7985 -6.382,-14.1288 -0.17581,-4.3917 0.45246,-8.73 1.59277,-12.965 -0.0201,-0.4577 0.73041,-1.7026 -0.14135,-1.7271 z"
     id="path3094" /></g><metadata
   id="metadata863"><rdf:RDF><cc:Work
       rdf:about=""><dc:creator><cc:Agent><dc:title>vlk2020</dc:title></cc:Agent></dc:creator></cc:Work></rdf:RDF></metadata></svg>
