<?xml version="1.0" encoding="UTF-8" standalone="no"?>
<!DOCTYPE svg PUBLIC "-//W3C//DTD SVG 1.1//EN" "http://www.w3.org/Graphics/SVG/1.1/DTD/svg11.dtd">
<svg xmlns:dc="http://purl.org/dc/elements/1.1/" xmlns:xl="http://www.w3.org/1999/xlink" version="1.1" xmlns="http://www.w3.org/2000/svg" viewBox="36 63 292.5 238.5" width="292.5" height="238.5">
  <defs>
    <clipPath id="artboard_clip_path">
      <path d="M 36 63 L 328.5 63 L 328.5 301.5 L 36 301.5 Z"/>
    </clipPath>
  </defs>
  <metadata> Produced by OmniGraffle 7.7.1 
    <dc:date>2018-03-18 08:21:30 +0000</dc:date><dc:title>Traceable heraldic art http://heraldicart.org/credits.html</dc:title>
  </metadata>
  <g id="Caravel_with_Sails_Set_(1)" fill-opacity="1" stroke-dasharray="none" stroke="none" stroke-opacity="1" fill="#ffff00">
    <title>Caravel with Sails Set (1)</title>
    <g id="Caravel_with_Sails_Set_(1): Layer 2" >
      <title>Layer 2</title>
      <g id="Group_3">
        <g id="Graphic_17">
          <path d="M 201.48557 66.71285 C 199.09951 67.17184 196.95497 68.135685 196.69162 68.88205 C 196.43046 69.50329 195.01699 71.60634 193.61007 73.33402 C 191.56444 75.80152 190.3023 76.40529 188.05884 75.86549 C 185.94268 75.20275 185.06028 75.56283 185.03844 76.81405 C 184.99257 79.44161 188.44139 82.63081 191.56725 82.81053 C 196.56776 83.14814 198.07796 82.67386 202.53367 78.37103 C 205.0776 76.03739 207.4877 74.20206 207.98818 74.210795 C 208.48866 74.21953 208.83127 76.10291 208.78977 78.48023 C 208.7177 82.60926 208.4631 82.85513 201.54644 84.73696 C 189.8533 87.78702 179.77585 91.49108 179.75619 92.61718 C 179.7125 95.11962 187.4264 97.75747 192.94268 97.22795 C 198.7114 96.57769 205.89576 93.69925 207.56603 91.2252 C 208.07962 90.4832 208.48838 95.74706 208.3639 102.87902 L 208.13675 115.8917 L 202.51718 115.16781 C 197.3981 114.45266 196.89543 114.56904 196.84957 117.1966 C 196.78405 120.95026 201.0694 126.40695 205.91422 128.49408 L 209.76242 130.31349 L 205.98255 131.74943 C 203.9675 132.46522 197.67864 134.23285 192.14706 135.63822 C 180.33318 138.43585 179.32129 139.04398 178.23513 143.90627 C 177.6997 145.89948 177.17082 147.51733 176.92058 147.51297 C 175.79448 147.49331 149.17908 152.1603 147.1662 152.75097 C 145.15333 153.34163 144.91838 152.46141 145.03413 145.82994 L 145.16736 138.1975 L 141.16782 137.87737 C 132.66826 137.22837 129.52492 138.04962 125.45332 141.85852 C 122.01824 145.05272 120.8834 145.53355 117.01773 144.71512 C 109.53443 143.20773 111.94514 148.50654 119.78633 151.02145 C 123.89352 152.34474 125.52229 152.24801 129.55895 150.44107 C 132.20617 149.36083 135.11673 147.53424 136.13737 146.42561 C 138.94902 143.09537 140.05983 143.99088 139.96592 149.37112 L 139.88074 154.25088 L 131.82925 156.61354 C 114.97336 161.45088 111.66559 164.52215 108.28638 178.85658 C 106.39271 186.95893 107.23489 203.24444 110.0762 212.55588 C 111.50122 216.96136 112.43668 220.7325 112.18425 220.85325 C 111.92964 221.09912 107.0608 220.38834 101.19972 219.1596 C 71.13706 213.37812 56.29996 210.1153 50.08317 207.7539 C 38.268656 203.4174 32.732713 205.073 42.90972 210.00673 C 45.76569 211.30818 49.490955 213.00029 51.233926 213.53135 C 64.0516 217.7602 98.69482 240.76856 102.33054 247.59067 C 103.54026 249.98983 105.73567 253.2823 106.95632 255.05586 C 108.17914 256.7043 109.27467 258.47565 109.26593 258.97614 C 109.25501 259.60175 111.43513 263.77008 114.23213 268.44983 C 116.904 273.1274 120.17528 279.31734 121.37627 282.21698 C 124.01538 288.77137 132.41448 295.176 141.26538 297.20788 C 151.609 299.76647 213.9263 300.47874 218.09682 298.1735 C 219.23166 297.69266 237.64206 297.01274 244.39428 297.38092 C 265.90215 298.5073 279.07272 296.8598 282.7777 292.54386 C 284.05513 291.06424 286.56412 290.73255 292.5656 291.08763 C 310.8225 292.0321 311.3339 291.41523 308.48322 275.47014 C 306.65817 265.3003 306.2959 264.54303 301.71663 261.58442 C 299.11746 259.91197 297.02315 257.998 297.0319 257.49752 C 297.26184 251.49385 308.8417 233.4226 314.27434 230.5136 C 317.81052 228.6979 325.91816 215.94794 325.9815 212.3194 C 325.9924 211.6938 322.5021 210.8819 318.24796 210.80765 C 313.996 210.60827 310.2489 210.16739 309.88007 209.78547 C 309.6342 209.53086 309.07192 205.8914 308.6435 201.75364 C 308.3402 197.61806 307.5823 190.84619 307.15388 186.70843 C 305.502 173.7881 308.20037 155.43667 313.70666 141.13937 C 315.28674 136.66119 316.7286 132.93155 316.7308 132.80643 C 316.78757 129.55326 299.5089 144.27087 289.79652 155.74123 L 285.06873 161.2909 L 285.1336 150.40311 C 285.26247 143.02092 284.82532 139.38364 283.8287 139.11593 C 282.9594 138.72527 279.70187 138.91873 276.5629 139.48974 C 272.0454 140.16185 269.8943 141.50106 265.68448 146.0585 C 261.47464 150.61594 259.9557 151.59071 257.83955 150.92797 C 253.36137 149.34789 254.41758 153.37144 258.89358 155.07665 C 264.98743 157.31074 266.99593 156.97032 271.6975 152.9221 C 274.11196 150.83653 276.7679 149.2558 277.51865 149.26891 C 278.3945 149.2842 278.83602 152.67123 278.729 158.8022 C 278.54773 169.18733 279.32904 167.44873 265.1878 188.85459 C 261.71776 194.05074 257.45988 201.36087 255.64484 204.95883 C 253.95492 208.55897 252.40322 211.41057 252.15735 211.15596 C 251.91147 210.90134 250.11326 206.3642 248.07792 201.07194 C 241.73693 184.31497 243.30046 166.44436 252.786 146.45916 C 254.86657 141.98971 257.06353 138.02294 257.57057 137.6563 C 258.0776 137.28968 261.01875 133.71137 264.21887 129.63695 C 267.419 125.56252 271.25565 120.87341 272.9128 119.1501 C 277.37725 114.34678 276.16316 112.19786 269.99724 114.0928 C 267.98437 114.68346 261.5682 116.57403 255.65908 118.09797 C 249.74777 119.74703 239.68778 122.45011 233.2738 124.21556 C 221.32606 127.51149 218.57556 127.33832 222.14668 123.52069 C 223.41974 122.29131 224.33927 119.80416 224.36985 118.05245 C 224.42227 115.04952 224.1742 114.92003 219.03547 115.33098 L 213.76943 115.86486 L 213.75724 102.2222 L 213.61775 88.70247 L 221.75068 88.84443 C 229.13287 88.97329 230.0131 88.73833 234.212 84.8065 C 236.75594 82.47286 238.80157 80.00537 238.8103 79.50488 C 238.82123 78.87927 239.97572 77.27234 241.37827 75.7949 C 244.18337 72.84002 243.59707 70.57691 240.43845 72.274015 C 235.50846 75.06664 215.86713 81.73277 214.87707 81.08969 C 214.258 80.7034 213.81868 77.19125 213.88856 73.18735 L 214.01305 66.05539 L 210.00915 65.985505 C 207.75914 65.82107 203.87162 66.253854 201.48557 66.71285 Z M 180.0172 213.90187 L 180.0172 213.90187 C 188.1311 222.30406 195.04184 227.93174 197.16891 227.96886 C 197.79452 227.97978 199.03045 228.87748 199.88884 229.89374 C 200.74722 230.91 202.48364 231.81644 203.73486 231.83828 C 205.7368 231.87322 206.0947 232.88075 206.02263 237.00977 L 205.9309 242.2649 L 196.3118 241.22087 C 184.31974 239.8851 176.61897 236.49653 174.57488 231.70477 C 173.7318 229.81265 172.26964 227.53425 171.28177 226.76604 C 168.44327 224.46361 166.49966 213.91624 166.70059 202.40502 L 166.88623 191.76965 L 169.39585 198.5721 C 171.1875 203.48462 174.23911 207.91849 180.0172 213.90187 Z M 292.86567 209.36332 L 292.86567 209.36332 C 297.23183 210.1905 297.23183 210.1905 290.96045 210.95715 C 287.5756 211.27354 284.1973 211.21458 283.58043 210.70317 C 281.98224 209.0482 284.1508 206.708 286.51284 207.62535 C 287.6302 208.1455 290.4949 208.94646 292.86567 209.36332 Z M 237.67596 209.02578 L 237.67596 209.02578 C 241.91045 210.22614 248.95286 215.48063 248.9201 217.35746 C 248.8371 222.1121 239.90384 231.96897 231.05358 237.0712 C 228.65223 238.40606 223.99651 239.8267 220.85973 240.2726 C 215.46638 240.92942 214.96808 240.79556 214.39051 238.03196 C 213.80422 235.76884 213.47281 211.73232 213.91152 208.11033 C 214.05193 207.23666 233.81465 207.9571 237.67596 209.02578 Z M 276.5758 210.45574 L 276.5758 210.45574 C 276.54303 212.33257 275.2809 212.93634 269.38923 213.4593 C 265.3766 213.8899 260.48592 214.43033 258.3523 214.76857 L 254.5899 215.20354 L 257.62995 213.12888 C 261.8114 210.19803 267.60195 208.29654 272.6112 208.13366 C 275.74143 208.06314 276.60855 208.5789 276.5758 210.45574 Z M 206.31747 220.1183 L 206.31747 220.1183 C 206.16896 228.6266 205.78922 228.8703 200.98372 224.53097 C 198.14741 222.10342 198.29656 220.72926 201.38685 215.7768 C 205.24534 209.83646 206.4791 210.85928 206.31747 220.1183 Z M 136.60269 220.15303 L 136.60269 220.15303 C 138.9669 220.94526 139.50952 225.71081 137.1322 225.66932 C 132.87806 225.59506 119.16269 222.60214 118.17918 221.5837 C 115.22867 218.52835 128.13808 217.50208 136.60269 220.15303 Z M 153.03362 225.32108 L 153.03362 225.32108 C 158.24506 227.91525 158.73681 228.42447 155.98413 228.37642 C 149.3483 228.5109 144.8723 226.8057 144.91379 224.42839 C 144.9662 221.42546 145.4667 221.4342 153.03362 225.32108 Z" fill="#cccccc"/>
        </g>
        <g id="Graphic_16">
          <path d="M 208.30394 70.4615 C 208.66839 71.09367 208.53234 71.71709 207.90673 71.70617 C 207.156 71.69307 204.24325 73.64479 201.32395 75.97187 C 196.247 80.01354 192.46713 81.44948 192.50644 79.19728 C 192.51736 78.571675 193.66967 77.08987 195.06785 75.86267 C 196.46603 74.63548 197.6227 72.903424 197.638 72.02757 C 197.65328 71.15172 198.42149 70.163845 199.3017 69.92889 C 202.07405 68.85084 207.57505 69.19718 208.30394 70.4615 Z" fill="#ff0000"/>
        </g>
        <g id="Graphic_15">
          <path d="M 235.8052 79.57759 C 233.34707 84.1656 226.02885 87.54235 221.16875 86.33107 C 219.0504 85.79346 217.43693 85.01433 217.44785 84.38872 C 217.45877 83.76311 220.99057 82.19768 225.39387 80.89778 C 229.67422 79.47057 234.08407 77.7953 235.09596 77.187165 C 237.87922 75.48351 237.87704 75.60863 235.8052 79.57759 Z" fill="#ff0000"/>
        </g>
        <g id="Graphic_14">
          <path d="M 208.6478 86.61316 C 208.5932 89.74121 200.26964 93.35072 192.2531 93.71143 C 187.74216 94.00818 184.49335 93.70115 185.00258 93.2094 C 185.76641 92.47177 205.66017 85.68489 207.78943 85.5969 C 208.2921 85.48051 208.65873 85.98755 208.6478 86.61316 Z" fill="#ff0000"/>
        </g>
        <g id="Graphic_13">
          <path d="M 268.52917 119.3239 C 267.88827 120.18883 264.17238 125.13037 260.20405 130.19267 C 247.40356 146.49037 240.0167 168.13929 241.35064 184.93402 C 241.64738 189.44497 243.52048 196.8621 245.43725 201.7768 C 247.3562 206.5664 248.78342 210.84674 248.4037 211.09044 C 248.14907 211.3363 244.9243 209.65294 241.33507 207.3374 C 235.6428 203.6084 233.64958 203.07298 225.89202 202.93757 C 218.512 202.6836 215.87352 203.26333 209.68795 206.28437 C 201.73537 210.15068 196.37323 216.18993 196.28587 221.1948 C 196.25748 222.8214 195.8581 224.19118 195.48272 224.18463 C 193.85614 224.15624 179.57568 210.51484 176.2782 205.82636 C 172.9829 201.01275 170.00554 192.32474 169.01922 184.29728 C 168.24165 178.6515 172.35193 165.45627 177.7774 155.78849 C 180.7535 150.20823 182.06587 146.72666 181.3326 145.71258 C 179.00552 142.79327 183.42847 140.36728 197.76227 136.61235 C 202.9163 135.32555 208.202 133.66557 209.46413 133.0618 C 210.60333 132.33073 214.8815 131.02864 218.90288 130.09756 C 227.82585 128.00042 251.71478 121.78392 259.3887 119.53983 C 266.81022 117.41649 270.06558 117.34815 268.52917 119.3239 Z" fill="#ff0000"/>
        </g>
        <g id="Graphic_12">
          <path d="M 221.83902 119.63536 C 221.83247 120.01072 220.42773 121.61329 218.77494 123.08636 C 214.96013 126.52425 208.44942 126.66093 203.7472 123.575 C 197.93417 119.59358 199.83065 118.50024 211.21675 118.69898 C 217.0975 118.80163 221.84557 119.25999 221.83902 119.63536 Z" fill="#ff0000"/>
        </g>
        <g id="Graphic_11">
          <path d="M 310.56332 141.96062 C 308.62534 145.43128 305.23084 160.64156 304.18463 170.38578 C 303.71972 175.50923 303.9291 185.02506 304.9067 193.553 C 305.77007 201.45316 306.15262 208.21848 305.898 208.46436 C 305.6434 208.71024 301.14993 208.006 296.03958 206.79036 C 283.32737 203.68979 273.1903 203.638 265.37814 206.63064 C 261.8507 207.94583 258.45276 209.01296 257.70202 208.99986 C 256.32568 208.97583 260.08526 201.53185 265.4758 193.86602 C 267.53016 190.89803 270.74775 185.82263 272.68355 182.4771 C 276.94143 175.16698 289.35782 159.36321 292.0116 157.90761 C 292.89618 157.42241 293.7917 156.3116 293.8048 155.56087 C 293.8332 153.93429 310.5037 138.20478 311.23916 139.09374 C 311.61016 139.35053 311.21077 140.72032 310.56332 141.96062 Z" fill="#ff0000"/>
        </g>
        <g id="Graphic_10">
          <path d="M 138.60641 141.21199 C 133.51417 146.1295 127.70396 149.15709 123.82736 148.96426 L 119.32516 148.76052 L 122.72747 147.44314 C 124.74253 146.72735 126.52263 145.13135 127.04496 143.88886 C 127.70988 141.64759 134.51015 139.26308 137.37048 140.31429 C 138.24197 140.57982 138.85884 141.09123 138.60641 141.21199 Z" fill="#ff0000"/>
        </g>
        <g id="Graphic_9">
          <path d="M 278.99327 143.66245 C 278.9758 144.66342 278.20978 145.52617 277.33392 145.51088 C 276.45807 145.4956 274.05236 147.08069 272.01328 149.17281 C 269.97638 151.13982 267.31825 152.84567 266.06703 152.82383 C 263.43946 152.77796 263.82575 152.1589 270.4544 145.26564 C 274.02552 141.44801 279.04787 140.5344 278.99327 143.66245 Z" fill="#ff0000"/>
        </g>
        <g id="Graphic_8">
          <path d="M 173.8746 157.09713 C 166.75484 170.6153 165.12015 178.22153 164.87836 199.2442 C 164.65559 212.00665 165.00756 220.52368 165.96704 222.91847 L 167.40735 226.4481 L 162.79313 225.49143 C 160.29943 224.94726 156.19442 223.49885 153.71383 222.20395 C 151.35835 220.91123 147.00747 219.2082 144.01765 218.40506 C 137.1687 216.4081 121.15745 215.8783 117.8737 217.57323 C 115.72698 218.6622 115.10355 218.52616 114.14407 216.13137 C 111.8563 210.95987 110.0662 198.7881 110.89118 194.54706 C 111.43535 192.05335 111.22005 190.04703 110.47806 189.53344 C 107.38495 187.4769 114.26476 166.1946 118.68553 163.89372 C 121.96927 162.1988 143.36013 155.68837 147.37495 155.13265 C 149.13103 154.91298 154.52875 154.00592 159.30304 152.96281 C 169.8526 150.89408 175.494 150.36675 175.97484 151.50158 C 176.21853 151.88131 175.2968 154.49359 173.8746 157.09713 Z" fill="#ff0000"/>
        </g>
        <g id="Graphic_7">
          <path d="M 209.73454 209.42095 L 210.23736 209.42095 C 210.78965 209.42095 211.23736 209.86867 211.23736 210.42095 L 211.23736 239.7062 C 211.23736 240.2585 210.78965 240.7062 210.23736 240.7062 L 209.73454 240.7062 C 209.18226 240.7062 208.73454 240.2585 208.73454 239.7062 L 208.73454 210.42095 C 208.73454 209.86867 209.18226 209.42095 209.73454 209.42095 Z" fill="#ff0000"/>
        </g>
        <g id="Graphic_6">
          <path d="M 318.6982 213.6942 L 322.82505 213.8914 L 319.21025 220.21146 C 317.27227 223.6821 313.44217 227.99586 310.65673 229.82464 C 303.68984 234.58428 295.78877 249.84106 290.57267 269.02466 C 285.77126 285.96263 282.92903 291.04458 276.5085 293.1854 C 271.7233 294.8541 238.28733 295.89756 182.0879 296.04304 C 154.17478 296.1816 148.54866 295.8331 140.9468 293.94816 C 131.72927 291.40922 123.81537 285.8892 123.88526 281.8853 C 123.79072 280.1314 116.64221 266.6145 104.97994 246.38532 C 103.28283 243.2267 99.47612 239.02996 96.63545 236.85265 C 88.35711 230.70047 72.2616 220.65703 65.186435 217.27937 C 61.713596 215.46651 58.73688 213.91263 58.73906 213.78751 C 58.741245 213.6624 62.235924 214.22403 66.599905 215.17633 C 82.30631 218.8298 116.73732 225.31332 134.83633 228.13245 C 139.95323 228.97272 146.44428 229.96214 149.19041 230.38556 C 151.93654 230.80897 157.80854 231.4121 162.18562 231.61367 C 168.43736 231.97312 170.5535 232.63585 172.14515 234.6662 C 173.85755 236.94897 177.9429 239.52348 184.64488 242.76947 C 187.99696 244.3299 211.2762 244.36076 219.43752 242.87614 C 223.70914 241.94942 227.2213 241.51008 227.21692 241.76032 C 227.21256 242.01057 229.86414 240.6801 233.27738 238.7371 C 240.36065 234.48014 247.74658 227.22462 250.21563 222.011 C 251.25373 219.9014 253.16114 218.18244 254.53966 218.08135 C 255.9182 217.98025 259.30304 217.66385 262.06227 217.33653 C 264.8215 217.00921 269.58925 216.34148 272.59872 216.01853 C 275.73333 215.69776 278.61987 215.2475 278.9996 215.0038 C 279.37934 214.76012 284.7683 214.35355 290.90803 213.96007 C 297.04556 213.69172 302.3094 213.28297 302.43672 213.16003 C 302.56403 213.0371 305.3167 213.08514 308.69282 213.26923 C 311.9438 213.45113 316.57114 213.65706 318.6982 213.6942 Z" fill="#ff0000"/>
        </g>
        <g id="Graphic_5">
          <path d="M 305.15298 272.6585 C 306.87037 281.82515 306.8972 287.45782 305.0182 287.5502 C 304.14016 287.66002 300.00677 287.8382 295.75044 287.88906 L 288.23875 288.00826 L 291.44042 276.67458 C 293.0511 270.4447 294.77814 264.71747 295.04367 263.84598 C 295.44088 262.6013 296.5648 262.7461 299.671 264.0519 C 303.27333 265.6167 304.0044 266.7559 305.15298 272.6585 Z" fill="#ff0000"/>
        </g>
        <g id="Graphic_4">
          <path d="M 211.05633 67.91855 L 211.05633 67.91855 C 211.36535 67.91855 211.61585 68.16906 211.61585 68.47808 L 211.61585 114.86697 C 211.61585 115.17599 211.36535 115.4265 211.05633 115.4265 L 211.05633 115.4265 C 210.74731 115.4265 210.4968 115.17599 210.4968 114.86697 L 210.4968 68.47808 C 210.4968 68.16906 210.74731 67.91855 211.05633 67.91855 Z" fill="#ff0000"/>
        </g>
      </g>
    </g>
  </g>
</svg>
