<?xml version="1.0" encoding="UTF-8" standalone="no"?>
<!DOCTYPE svg PUBLIC "-//W3C//DTD SVG 1.1//EN" "http://www.w3.org/Graphics/SVG/1.1/DTD/svg11.dtd">
<svg xmlns:dc="http://purl.org/dc/elements/1.1/" xmlns:xl="http://www.w3.org/1999/xlink" version="1.1" xmlns="http://www.w3.org/2000/svg" viewBox="34.875 61.875 294.75 274.5" width="294.75" height="274.5">
  <defs>
    <clipPath id="artboard_clip_path">
      <path d="M 34.875 61.875 L 329.625 61.875 L 329.625 336.375 L 34.875 336.375 Z"/>
    </clipPath>
  </defs>
  <metadata> Produced by OmniGraffle 7.7.1 
    <dc:date>2018-03-13 06:46:41 +0000</dc:date><dc:title>Traceable heraldic art http://heraldicart.org/credits.html</dc:title>
  </metadata>
  <g id="Coracle_Sail_Set" fill-opacity="1" stroke-dasharray="none" stroke="none" stroke-opacity="1" fill="#ffff00">
    <title>Coracle Sail Set</title>
    <g id="Coracle_Sail_Set: Layer 2" >
      <title>Layer 2</title>
      <g id="Group_3">
        <g id="Graphic_74">
          <path d="M 172.89027 64.113286 C 172.0295 65.22276 171.13679 78.29692 171.51412 83.95069 C 171.58942 86.1069 171.2426 86.47882 168.2935 87.03156 C 166.41937 87.45681 163.82963 87.99701 162.48828 88.22375 C 161.06022 88.54348 159.97584 88.40144 159.95701 87.86239 C 159.888 85.88586 156.11149 85.92779 154.11415 87.97647 C 152.29021 89.8392 151.30508 89.96355 137.91862 90.43102 C 130.01252 90.7071 120.23229 91.40844 116.0254 92.00511 C 94.26908 94.9237 95.52687 94.87977 94.8415 93.28458 C 94.05375 91.33315 91.4546 91.60382 90.18227 93.80709 C 89.41761 95.09311 88.17865 95.67609 85.66307 95.76393 C 83.5967 95.83609 81.37575 96.63326 80.15247 97.66545 L 78.055875 99.44774 L 81.48984 102.47613 C 84.64486 105.24441 84.8371 105.5975 83.64205 107.43827 C 81.93306 110.01659 74.75597 133.74459 72.75263 143.34941 C 70.74616 152.8644 70.4407 169.87592 72.14171 177.37245 C 73.83645 184.6893 77.90273 195.5214 80.46651 199.38974 C 81.60422 201.05909 83.42416 204.2338 84.5807 206.4422 C 87.76824 212.71745 103.88191 228.52593 112.24578 233.63096 L 119.50644 238.0549 L 113.42542 239.0768 C 106.09288 240.32234 88.30929 238.51466 83.81605 236.06297 C 81.80188 235.0539 78.99795 234.6121 74.14648 234.7815 C 70.373115 234.91328 66.31454 234.60525 65.1309 234.19683 C 63.95041 233.87824 60.241786 233.28814 56.90822 233.1347 C 52.39729 232.7525 50.398806 232.19264 49.54944 231.05293 C 46.719275 227.28384 38.07248 226.95613 36.397994 230.52272 C 35.55291 232.0814 36.124475 235.56956 37.44501 237.32248 C 37.820066 237.75914 38.425003 239.627 38.84398 241.32145 C 39.266096 243.10574 40.98051 245.83437 43.122174 247.91842 C 45.07788 249.82906 47.250915 252.81153 47.93942 254.49656 C 48.62792 256.1816 49.80015 258.8392 50.485514 260.4344 C 51.257586 261.93663 51.871934 264.074 51.90958 265.1521 C 52.02253 268.38643 54.76285 272.15865 58.52795 274.3659 C 60.548395 275.55468 64.09416 279.20883 66.73837 282.8045 C 72.87615 291.13557 75.09824 292.94696 80.81163 294.27662 C 83.44215 294.90437 86.26803 295.97506 87.10171 296.66556 C 88.02837 297.44276 89.03859 298.03715 89.39796 298.0246 C 89.84717 298.0089 91.59182 299.0274 93.25603 300.31856 C 105.45402 309.60737 105.18135 309.52694 111.7826 307.94715 C 116.50972 306.7926 118.66907 306.80715 132.31365 308.57946 C 143.06446 309.9131 148.04656 310.9085 149.34513 312.03253 C 152.31106 314.53756 155.46808 314.7871 158.36385 312.70706 C 161.43616 310.5309 166.91025 310.15982 180.34377 311.04 C 186.92734 311.5297 189.55786 312.15745 192.13304 313.7766 C 195.7216 316.07998 202.21845 316.66267 205.30332 314.84586 C 207.94838 313.31427 236.60171 312.13377 241.23386 313.41124 C 245.50035 314.52157 248.2635 313.79542 257.18695 309.16613 C 260.10468 307.71497 265.32692 305.2838 268.69386 303.81696 C 272.15378 302.4368 277.19634 300.01194 280.0211 298.47407 C 282.84583 296.9362 285.5066 295.8538 285.87536 296.1108 C 286.69963 296.53177 287.8134 300.09094 290.54145 311.23962 C 292.5308 319.2658 297.89452 328.61336 302.61137 332.31656 C 306.21874 335.159 311.439 335.24655 313.8573 332.3736 C 315.2383 330.70625 315.52866 328.71717 315.35382 318.55875 C 315.28537 303.71913 314.112 298.45296 308.61452 287.85074 C 304.6612 280.25296 304.35715 279.2741 305.56788 277.88255 C 306.25838 277.04888 306.83708 275.58944 306.8057 274.69102 C 306.73982 272.80434 310.2779 265.93442 313.20074 262.05438 C 314.32163 260.66597 315.56886 257.74396 316.12874 255.74548 C 316.67606 253.38762 318.20537 250.81557 320.116 248.85987 C 327.0775 242.14025 327.93826 241.03077 328.37378 238.04716 C 329.61873 229.90804 321.38235 225.878 315.6473 231.65526 L 313.4734 233.80006 L 305.98086 230.46364 C 301.7791 228.63144 294.0233 225.48411 288.65047 223.60285 C 280.4486 220.56106 278.7071 219.6324 277.73025 217.41773 C 277.05115 216.00222 274.99933 213.91503 273.07186 212.81297 C 268.66533 210.2683 267.34165 208.42554 264.3703 200.61356 C 257.93448 183.7475 256.18526 172.29478 257.69632 156.32058 C 258.39594 148.0206 258.78555 146.29792 261.8878 134.67578 C 263.00127 130.49912 263.85463 126.6014 263.82953 125.88267 C 263.78247 124.53504 271.8999 104.55217 273.02393 103.2536 C 273.45432 102.69886 273.7635 101.24884 273.71643 99.9012 C 273.65055 98.01452 274.24807 97.09414 276.10338 96.12984 C 281.4029 93.33618 277.00664 85.93376 270.36774 86.43545 C 259.33286 87.27056 256.20408 87.82958 254.8941 88.95474 C 253.75752 89.89395 250.71858 90.44983 243.98043 90.68513 C 235.08606 90.99573 234.54387 90.92471 232.85142 88.82497 C 231.066 86.63853 231.066 86.63853 228.33736 88.35295 C 225.69857 90.06422 225.3392 90.07677 217.28992 88.82868 C 212.13442 88.01925 208.13745 86.8995 206.92871 85.77234 C 205.17152 84.39448 204.35666 84.24303 201.86932 85.13946 C 200.18115 85.73812 198.02494 85.81341 196.66162 85.41126 C 194.48031 84.76782 194.37792 84.41159 194.58042 79.90694 C 194.71818 76.124165 194.50085 75.052335 193.31722 74.64391 C 190.76713 73.74349 189.55012 74.95536 187.65945 80.05868 C 185.6852 85.34481 185.07514 85.90582 183.203 83.81236 C 182.549 83.11559 181.44894 82.52434 180.82005 82.5463 C 180.1013 82.5714 179.54343 82.05117 179.52147 81.42228 C 179.1932 74.59742 177.99672 66.0938 177.13795 64.68457 C 175.98768 62.65585 174.09159 62.452206 172.89027 64.113286 Z M 197.0903 95.11107 L 197.0903 95.11107 C 197.09657 95.29075 195.84506 95.51436 194.31774 95.56769 C 192.88027 95.61789 191.78962 95.29617 192.04346 94.83755 C 192.46757 94.10313 197.0652 94.39233 197.0903 95.11107 Z M 110.05019 101.20893 L 110.05019 101.20893 C 109.34714 101.68324 107.29333 102.11476 105.58633 102.17437 L 102.43872 102.19434 L 105.10888 101.38148 C 106.62365 100.96878 108.58762 100.54039 109.57275 100.41604 C 111.00708 100.276 111.1032 100.45254 110.05019 101.20893 Z M 215.4349 97.52881 L 215.4349 97.52881 C 216.78253 97.48175 217.87632 97.89332 217.89515 98.43237 C 217.9422 99.78 210.90316 99.12629 209.41235 97.64917 C 208.66538 96.8657 208.93176 96.76644 210.65445 97.15604 C 211.92165 97.38164 213.99743 97.57901 215.4349 97.52881 Z M 166.99979 189.08185 L 166.99979 189.08185 C 167.66633 190.138 168.07305 199.2089 168.26585 215.03365 L 168.57075 239.21998 L 161.3155 240.103 C 148.5026 241.5399 145.52527 241.28407 139.13907 238.71858 C 132.4802 236.07266 130.88387 234.14947 126.59198 224.58457 C 124.33737 219.2662 124.12004 218.19438 124.79685 214.39278 C 126.39804 206.15127 132.72947 196.84506 140.03263 192.1824 C 144.08066 189.61235 149.96945 188.23734 160.02548 187.70627 C 165.14334 187.4376 166.23085 187.66947 166.99979 189.08185 Z M 190.25034 195.46605 L 190.25034 195.46605 C 197.89746 198.07746 210.76598 203.38498 219.45784 207.57903 C 224.03152 209.75806 229.88808 212.6119 232.5437 213.95839 C 235.28601 215.2119 237.94477 216.64823 238.4995 217.07861 C 239.1441 217.50586 242.24264 218.65698 245.51774 219.71198 C 248.7897 220.67714 252.79295 221.97657 254.43834 222.72868 C 256.0806 223.39094 258.89394 224.10226 260.61035 224.31218 C 263.50098 224.661 263.5971 224.83754 262.3895 226.31894 C 259.2807 230.02556 261.7358 233.358 269.0789 234.99055 C 271.16408 235.45744 273.1814 236.55636 273.47915 237.35553 C 273.86676 238.15156 273.9817 238.86716 273.895 238.96014 C 273.71844 239.05625 265.17404 239.08478 254.7398 239.08934 C 244.39543 239.09077 224.89657 239.68173 211.51638 240.32888 C 188.5325 241.58125 187.09504 241.63145 186.31983 240.0394 C 185.4485 238.2708 183.74235 204.86838 184.22893 198.19497 C 184.41688 195.84966 184.8002 193.9473 185.15957 193.93474 C 185.4291 193.92533 187.79323 194.65234 190.25034 195.46605 Z M 284.1156 225.11049 L 284.1156 225.11049 C 287.57665 226.3389 292.40416 228.0593 294.87068 229.14254 C 297.42704 230.22264 301.17018 231.801 303.2679 232.62727 C 305.4555 233.4504 307.20015 234.46889 307.2127 234.82825 C 307.2221 235.09778 303.2879 235.77488 298.5388 236.30052 C 293.6999 236.8293 289.0438 237.44166 288.24148 237.64958 C 286.46346 238.25138 284.69686 236.604 280.89297 230.71007 C 279.2841 228.4275 277.23227 226.34032 276.32443 226.10217 C 274.23924 225.63528 273.92893 224.47674 275.61397 223.78824 C 277.38257 222.91692 277.74508 222.9942 284.1156 225.11049 Z M 135.78468 240.5448 L 135.78468 240.5448 C 136.80745 241.49855 136.1817 241.61035 131.58093 241.2313 C 124.54501 240.66744 123.52224 239.7137 129.72134 239.4972 C 132.68613 239.39368 135.0377 239.76132 135.78468 240.5448 Z" fill="#cccccc"/>
        </g>
        <g id="Graphic_73">
          <path d="M 175.88073 80.20014 C 176.00622 83.79383 175.7963 85.51024 175.14545 84.9033 C 174.30864 84.12296 174.51827 74.67072 175.32685 74.64249 C 175.50653 74.63621 175.77406 77.14551 175.88073 80.20014 Z" fill="#ff0000"/>
        </g>
        <g id="Graphic_72">
          <path d="M 190.96706 84.62066 C 190.01331 85.64343 189.24124 84.14121 189.9035 82.49896 C 190.5689 80.94654 190.5689 80.94654 190.9816 82.46131 C 191.2825 83.35032 191.22718 84.34172 190.96706 84.62066 Z" fill="#ff0000"/>
        </g>
        <g id="Graphic_71">
          <path d="M 179.76305 88.34012 C 179.77246 88.60964 179.42878 89.0714 178.89914 89.35975 C 178.45934 89.64497 178.00386 89.48097 177.98817 89.03176 C 177.96935 88.49271 178.40287 88.02781 178.85208 88.01212 C 179.39113 87.9933 179.75677 88.16043 179.76305 88.34012 Z" fill="#ff0000"/>
        </g>
        <g id="Graphic_70">
          <path d="M 198.7605 88.84608 C 200.89903 90.84029 198.58824 91.6406 190.0407 91.57928 C 185.18295 91.56901 181.04708 91.62349 180.86426 91.53992 C 180.68457 91.54619 181.10868 90.81177 181.97573 89.88198 C 183.09348 88.40372 184.61138 88.08086 190.54723 88.05348 C 194.50028 87.91543 198.20263 88.32585 198.7605 88.84608 Z" fill="#ff0000"/>
        </g>
        <g id="Graphic_69">
          <path d="M 172.37204 90.4872 C 172.6698 91.28637 172.69804 92.09494 172.52463 92.2809 C 171.831 93.02474 158.23462 95.20861 157.67674 94.68839 C 156.09295 93.12457 160.79497 91.25129 171.07033 89.27333 C 171.4297 89.26079 171.98758 89.78101 172.37204 90.4872 Z" fill="#ff0000"/>
        </g>
        <g id="Graphic_68">
          <path d="M 203.04583 90.49547 C 202.89438 91.31032 202.38356 92.13772 201.76094 92.33937 C 201.14146 92.63086 200.94295 92.09808 201.1717 90.92072 C 201.6323 88.65584 203.41974 88.32357 203.04583 90.49547 Z" fill="#ff0000"/>
        </g>
        <g id="Graphic_67">
          <path d="M 152.0877 94.34385 C 152.17242 96.76959 149.0499 97.50829 139.23516 97.22136 C 130.40868 96.89993 126.97272 96.39026 126.9288 95.13247 C 126.90057 94.32389 132.09258 93.60287 143.76577 93.01533 C 151.48591 92.56583 152.0281 92.63685 152.0877 94.34385 Z" fill="#ff0000"/>
        </g>
        <g id="Graphic_66">
          <path d="M 154.96893 94.42314 C 154.362 95.074 153.91592 95.17952 153.8971 94.64047 C 153.85318 93.38268 154.89363 92.26693 155.54449 92.87386 C 155.73358 93.13711 155.48916 93.86526 154.96893 94.42314 Z" fill="#ff0000"/>
        </g>
        <g id="Graphic_65">
          <path d="M 215.84418 91.21791 C 223.61452 92.20589 224.888 92.61117 224.9382 94.04865 C 225.00721 96.02517 224.11193 96.14639 214.8947 94.93908 C 205.76733 93.72864 204.5837 93.32021 205.51548 91.66855 C 206.1903 90.38566 208.3465 90.31036 215.84418 91.21791 Z" fill="#ff0000"/>
        </g>
        <g id="Graphic_64">
          <path d="M 118.84616 95.50467 C 118.86184 95.95388 116.99085 96.46898 114.65495 96.55055 C 112.22922 96.63526 106.77082 97.45553 102.39679 98.41784 C 98.10947 99.28717 94.35179 99.86815 94.07286 99.60803 C 92.6813 98.3973 95.33892 97.22508 100.27709 96.96268 C 103.32858 96.76617 107.0894 96.27503 108.51432 95.86547 C 112.5227 94.73602 118.81164 94.51641 118.84616 95.50467 Z" fill="#ff0000"/>
        </g>
        <g id="Graphic_63">
          <path d="M 124.23668 95.31643 C 124.25236 95.76564 123.90868 96.2274 123.45947 96.24309 C 122.92042 96.26191 122.27584 95.83466 121.99063 95.39486 C 121.70228 94.86522 122.0491 94.49331 122.76783 94.46821 C 123.57641 94.43997 124.21785 94.77738 124.23668 95.31643 Z" fill="#ff0000"/>
        </g>
        <g id="Graphic_62">
          <path d="M 274.28857 90.52626 C 275.69267 92.09636 274.84758 93.65505 272.5117 93.73662 C 270.71485 93.79936 270.42022 93.09004 271.23707 90.72277 C 271.89306 88.90083 272.79148 88.86946 274.28857 90.52626 Z" fill="#ff0000"/>
        </g>
        <g id="Graphic_61">
          <path d="M 266.23102 91.6172 C 266.25612 92.33594 266.56643 93.49447 266.8642 94.29364 C 267.3542 95.4459 266.7347 95.73738 263.3207 95.8566 C 258.8286 96.01347 258.1652 95.04717 260.58352 92.17422 C 262.22463 90.22793 266.16827 89.82036 266.23102 91.6172 Z" fill="#ff0000"/>
        </g>
        <g id="Graphic_60">
          <path d="M 89.119 99.42122 C 88.87143 100.05952 87.63247 100.6425 86.19499 100.6927 C 84.75752 100.7429 83.48091 100.24777 83.27926 99.62515 C 82.98464 98.91582 83.87051 98.52508 86.11656 98.44665 C 88.36261 98.36821 89.27358 98.69621 89.119 99.42122 Z" fill="#ff0000"/>
        </g>
        <g id="Graphic_59">
          <path d="M 254.1996 94.82585 C 254.2592 96.53285 253.7233 96.64151 243.01954 96.65549 C 236.81417 96.69228 231.40796 96.43131 230.9462 96.08763 C 228.99677 94.35667 231.9396 93.62425 242.63394 93.34074 C 253.50796 93.05097 254.14 93.11885 254.1996 94.82585 Z" fill="#ff0000"/>
        </g>
        <g id="Graphic_58">
          <path d="M 187.76042 98.40528 C 189.75577 98.87531 193.99403 99.17706 197.22834 99.06412 C 201.0017 98.93235 204.89001 99.51618 208.07527 100.57432 C 212.08166 101.96359 214.33712 102.15468 219.35572 101.61962 C 222.85015 101.22774 227.5282 101.24428 229.7001 101.61819 C 242.27913 103.78752 245.88536 104.0214 249.43512 102.63811 C 253.2544 101.24542 254.68874 101.10538 263.95816 101.23144 L 269.99012 101.3806 L 266.9911 108.2317 C 262.00845 120.09941 255.95224 142.43899 254.6531 154.17806 C 252.79522 170.52418 254.81197 184.4862 261.5581 202.5108 C 264.7311 210.9454 266.62206 213.5779 270.92307 215.6765 C 272.75442 216.60202 274.22954 217.62993 274.24523 218.07914 C 274.26092 218.52835 272.80776 218.12933 270.97327 217.11398 C 267.12147 214.9997 265.7707 214.9569 264.30613 216.8071 C 263.35866 218.00955 263.5603 218.63217 265.33005 220.3694 C 266.54192 221.5864 267.385 222.54643 267.11548 222.55584 C 266.9358 222.5621 263.2982 221.42982 259.02228 220.04996 C 254.74637 218.6701 249.0173 216.89123 246.29067 216.08693 C 243.56403 215.28263 238.36146 213.12556 234.7019 211.36438 C 216.0353 202.30146 202.14086 195.95034 195.39843 193.48724 C 189.93575 191.60912 187.82232 190.33364 187.78467 189.25554 C 187.72506 187.54854 184.39663 184.96623 182.4201 185.03525 C 181.61153 185.06348 181.36396 185.7018 181.57816 186.68378 C 182.08384 188.28525 181.90415 188.29152 178.44937 187.2428 C 169.81085 184.57606 162.04992 183.8576 152.99784 184.80337 C 145.02072 185.62165 143.50595 186.03435 139.19468 188.7935 C 136.55903 190.59462 133.40628 193.04346 132.28226 194.34203 C 130.98483 195.82657 129.21936 196.78773 127.6022 196.8442 C 124.8171 196.94146 124.32197 198.21808 126.70492 199.48414 C 128.1675 200.15267 128.1769 200.4222 126.97245 201.99344 C 124.73382 204.86011 122.60185 210.78142 122.3001 215.01968 C 122.06936 218.71575 123.72331 224.86465 126.86493 232.40083 C 127.55344 234.08587 127.37061 234.0023 125.23836 232.18778 C 122.4584 229.85616 121.37715 229.80397 120.38376 232.26735 C 119.63479 234.0026 119.4551 234.00886 113.94222 230.69326 C 104.94005 225.34068 92.08066 212.56685 87.19753 204.10202 C 85.76205 201.6335 83.56392 197.9323 82.23397 195.90985 C 80.99073 193.79443 78.73298 188.38623 77.22848 183.94118 C 74.9174 177.00567 74.4545 174.05343 74.0321 164.5333 C 73.80935 158.15452 74.09741 150.94834 74.70948 147.86861 C 76.53627 138.3599 81.16042 121.37747 83.87108 113.99673 C 86.34045 107.43399 86.68413 106.97223 89.02944 107.16018 C 90.47319 107.28967 92.2512 106.68787 93.20809 105.75494 C 94.60164 104.44695 95.40708 104.32887 98.85245 105.10807 C 104.83223 106.33848 107.25169 106.07409 112.64107 103.27729 L 117.41097 100.77198 L 119.9371 103.56222 L 122.37338 106.35559 L 124.36132 104.03738 C 126.09227 102.08795 126.8016 101.79333 129.2493 102.33751 C 133.965 103.43216 141.61099 103.43501 145.5358 102.48839 C 147.58648 101.96702 154.12613 101.19894 160.04943 100.81219 C 166.06257 100.4223 171.7038 99.6856 172.67637 99.20188 C 173.55596 98.63145 175.34653 98.38902 176.61373 98.61462 C 177.97077 98.83709 179.309 98.5205 179.6464 97.87906 C 179.9838 97.23762 181.14234 96.9273 182.22986 97.15918 C 183.22753 97.3942 185.76507 97.93525 187.76042 98.40528 Z" fill="#ff0000"/>
        </g>
        <g id="Graphic_57">
          <path d="M 178.21863 190.93887 L 181.2242 192.00328 L 181.37509 204.05153 C 181.52625 223.8356 181.9361 232.99635 182.70618 237.01728 L 183.55982 240.8554 L 177.80052 240.78665 L 172.04122 240.71792 L 171.50074 230.39236 C 171.21324 224.73545 170.99448 213.31923 170.97223 204.9545 L 170.98735 189.93207 L 173.14356 189.85677 C 174.3115 189.81599 176.57638 190.2766 178.21863 190.93887 Z" fill="#ff0000"/>
        </g>
        <g id="Graphic_56">
          <path d="M 46.30372 233.41506 C 50.16807 235.8887 60.75802 237.7677 73.45712 238.22374 C 78.95004 238.39173 82.83834 238.97556 84.30719 239.8238 C 87.43084 241.69364 101.69177 243.08462 112.64622 242.52218 C 119.38437 242.28688 122.26873 242.456 124.37588 243.5518 C 126.7557 244.72802 130.53847 244.86577 148.7764 244.2289 C 160.72854 243.90146 170.8901 243.81647 171.4417 244.157 C 172.81757 244.91853 218.56913 243.9505 224.74313 243.0153 C 227.42898 242.65165 233.53823 242.4383 238.22257 242.63454 C 242.90377 242.74092 253.51768 242.73008 261.78942 242.62113 C 271.58534 242.369 277.17123 242.6237 277.73225 243.23376 C 278.11044 243.76027 278.80835 245.71483 279.23047 247.49912 L 279.9723 250.71147 L 274.79912 251.97155 C 267.57525 253.753 267.3987 253.8491 267.45204 255.37642 C 267.5085 256.99357 272.4561 257.0007 277.61674 255.38126 C 279.57444 254.7732 281.27202 254.44405 281.46112 254.7073 C 281.64708 254.8807 282.91856 257.80472 284.20572 261.17793 C 286.5847 267.48142 286.90355 274.03675 284.8372 274.1089 C 284.29813 274.12773 282.78964 274.72012 281.55695 275.48278 C 280.32113 276.1556 276.04636 277.3843 272.02543 278.15437 C 267.2022 279.13236 264.71485 280.0288 264.7431 280.83737 C 264.8278 283.2631 272.0893 282.55976 282.49103 279.04822 C 284.3589 278.4433 284.455 278.61983 284.68717 285.26814 C 284.84403 289.76025 284.56624 292.1087 283.93734 292.13065 C 283.30845 292.1526 281.45314 293.1169 279.6971 294.3476 C 275.91545 296.8184 253.43127 307.2284 247.741 309.1362 C 244.3615 310.24366 243.19042 310.1946 240.54735 309.2075 C 236.72065 307.81194 206.99548 309.20977 203.91062 311.02658 C 200.64921 312.9395 195.3297 312.58555 192.99895 310.23825 C 190.6682 307.89095 188.7721 307.6873 169.94805 306.9954 C 160.13017 306.61862 159.14504 306.74297 157.67106 308.32362 C 155.59015 310.55513 151.36758 310.7026 149.31575 308.6154 C 148.38282 307.6585 145.92258 306.75495 143.9335 306.4646 C 141.85772 306.26724 135.2616 305.41816 129.29752 304.63697 C 121.70373 303.55287 116.66003 303.3692 112.45314 303.96586 C 106.18302 304.72453 104.37049 304.33807 100.65759 301.04956 C 95.28047 296.4699 85.82909 291.133 80.83758 289.8681 C 75.576545 288.61258 75.30074 288.4423 70.47095 281.5048 C 67.25318 276.93967 63.89023 273.3691 61.03297 271.4 C 58.089004 269.52386 56.309846 267.5171 55.99012 266.08904 C 55.673536 264.75082 54.67472 261.90725 53.78771 259.68943 C 52.99054 257.46848 51.61353 254.0984 50.82577 252.14698 C 50.127856 250.19242 48.050936 247.3865 46.2039 246.01177 C 43.702866 243.94027 42.651857 242.17794 41.519276 238.07972 C 39.54874 230.5926 40.50563 229.65966 46.30372 233.41506 Z" fill="#ff0000"/>
        </g>
        <g id="Graphic_55">
          <path d="M 273.45377 228.90097 C 273.83823 229.60715 274.8516 230.29138 275.6696 230.53267 C 277.67435 231.27222 281.88152 238.4114 283.79872 244.3712 C 284.6147 247.1312 286.92266 253.97687 288.8273 259.5773 C 290.73196 265.17775 292.83826 271.4008 293.3565 273.36165 C 293.96457 275.31935 295.2737 279.32145 296.27565 282.25487 C 297.2776 285.18828 298.90645 290.61845 299.84366 294.27374 C 300.8707 297.9259 302.49956 303.35605 303.49838 306.19962 C 305.89616 313.04216 304.52458 314.97905 301.86668 308.41544 C 298.3249 299.72387 297.10876 295.80847 288.98846 266.7678 C 286.1215 256.79335 278.84885 239.14695 275.9257 235.29116 C 274.134 232.92503 272.2807 231.37062 271.20258 231.40827 C 270.21432 231.44278 268.31195 231.05946 266.85565 230.5706 C 264.4884 229.75375 264.39227 229.5772 266.0773 228.8887 C 268.82162 227.6235 272.60126 227.6714 273.45377 228.90097 Z" fill="#ff0000"/>
        </g>
        <g id="Graphic_54">
          <path d="M 324.47178 234.4954 C 326.11518 237.76623 324.42187 240.79376 319.32397 244.21004 C 315.63218 246.6777 314.68784 247.97 313.1377 252.52172 C 312.16314 255.52415 310.41136 259.45324 309.1296 261.387 C 307.93457 263.22775 306.1577 266.4381 305.23532 268.3593 C 302.3042 274.57836 301.88008 275.3128 301.2512 275.33475 C 300.08324 275.37553 294.88466 268.18104 294.2609 265.77413 C 293.8576 264.5289 292.1452 259.28155 290.34607 254.12718 C 288.4571 248.97595 286.7541 243.99813 286.44692 242.92944 C 285.84512 241.15143 286.2912 241.0459 292.73786 240.1911 C 296.59166 239.78668 301.15478 239.08762 302.85236 238.7585 C 304.54995 238.42935 308.4936 238.02178 311.45524 237.8284 C 316.4801 237.47303 317.0129 237.27452 318.00943 234.90098 C 319.33396 231.61647 322.9245 231.40113 324.47178 234.4954 Z" fill="#ff0000"/>
        </g>
        <g id="Graphic_53">
          <path d="M 293.43236 290.9895 C 298.7473 309.244 300.32596 313.23668 302.90742 315.0355 C 307.8844 318.4598 309.37605 314.80963 306.5593 306.27264 C 305.7527 303.78216 303.7143 296.92707 302.06975 291.0477 C 300.4252 285.1683 298.7901 279.55847 298.3962 278.58275 C 297.80695 277.1641 298.16946 277.2414 299.94234 279.06847 C 303.67093 282.8062 310.40024 297.773 311.54965 304.929 C 312.59353 311.6389 312.8103 325.57384 311.82317 328.2169 C 311.4116 329.3107 310.2625 329.89054 308.3758 329.95643 C 302.44623 330.1635 295.995 320.58405 292.53138 306.4027 C 291.37683 301.67558 289.73543 295.88605 288.93513 293.57525 C 288.03556 290.99807 287.5601 287.68646 287.73866 285.07163 C 287.83677 282.72946 288.00904 279.93495 287.97453 278.9467 C 288.01303 274.89752 290.25195 279.76667 293.43236 290.9895 Z" fill="#ff0000"/>
        </g>
        <g id="Graphic_52">
          <path d="M 185.85006 108.09681 C 184.03354 112.74777 183.89464 113.922 185.15243 113.87807 C 186.1407 113.84356 188.07216 109.9082 188.84508 106.28314 C 189.60546 102.29872 187.57674 103.44898 185.85006 108.09681 Z" fill="#cccccc"/>
        </g>
        <g id="Graphic_51">
          <path d="M 114.13644 115.18863 C 112.0598 120.11854 111.09465 123.3905 111.65252 123.91073 C 112.2104 124.43096 113.65928 122.13157 115.48835 117.83997 C 117.06672 114.09684 118.83732 110.7068 119.27398 110.33174 C 120.68321 109.47297 120.33212 107.14649 118.8048 107.19982 C 118.08606 107.22492 116.13264 110.5314 114.13644 115.18863 Z" fill="#cccccc"/>
        </g>
        <g id="Graphic_50">
          <path d="M 154.4795 108.74253 C 152.61279 111.95603 152.14076 116.47009 153.7234 115.42536 C 154.25305 115.137 154.58732 114.40572 154.5685 113.86667 C 154.5528 113.41746 155.11895 111.59866 155.86792 109.86342 C 157.70013 105.66166 156.59379 104.89073 154.4795 108.74253 Z" fill="#cccccc"/>
        </g>
        <g id="Graphic_49">
          <path d="M 224.6179 105.48368 C 221.69618 111.97227 220.80432 119.91916 223.17986 118.39698 C 224.49612 117.4515 227.3006 105.0302 226.4638 104.24985 C 225.90592 103.72962 225.206 104.29378 224.6179 105.48368 Z" fill="#cccccc"/>
        </g>
        <g id="Graphic_48">
          <path d="M 149.83653 125.18591 C 148.37824 127.21577 146.19408 134.21831 146.7645 135.09791 C 147.99206 136.76412 148.76299 135.65778 150.19818 130.39047 C 151.63023 125.03332 151.4651 122.88025 149.83653 125.18591 Z" fill="#cccccc"/>
        </g>
        <g id="Graphic_47">
          <path d="M 178.38861 126.25773 C 177.98019 127.44137 177.45796 130.51796 177.18958 133.13593 C 176.77916 136.83828 176.99022 137.73042 177.87609 137.33968 C 179.20803 136.84341 179.85147 134.6621 180.61384 128.15896 C 181.17258 123.55192 179.77788 122.25135 178.38861 126.25773 Z" fill="#cccccc"/>
        </g>
        <g id="Graphic_46">
          <path d="M 108.7288 132.91803 C 107.44079 134.6721 106.81104 139.82133 107.82126 140.41571 C 108.7385 140.92339 109.91158 138.45373 110.83596 134.01382 C 111.38014 131.56612 110.10353 131.071 108.7288 132.91803 Z" fill="#cccccc"/>
        </g>
        <g id="Graphic_45">
          <path d="M 219.44557 129.95124 C 217.36066 137.22017 216.95766 143.71076 218.73568 143.10896 C 219.7114 142.71508 221.75237 134.18836 221.7073 130.32201 C 221.64456 128.52517 219.92815 128.31525 219.44557 129.95124 Z" fill="#cccccc"/>
        </g>
        <g id="Graphic_44">
          <path d="M 106.72348 145.04158 C 105.90349 147.319 106.32675 151.71185 107.31501 151.67734 C 107.85406 151.65851 108.1946 151.10691 108.1695 150.38817 C 108.14754 149.75928 108.35119 147.86319 108.56738 146.32646 C 109.09588 143.42955 107.62076 142.40165 106.72348 145.04158 Z" fill="#cccccc"/>
        </g>
        <g id="Graphic_43">
          <path d="M 141.79866 150.02338 C 140.18579 152.77825 139.34298 159.55405 140.69061 159.507 C 141.22967 159.48817 142.23247 157.29431 142.95007 154.66066 C 143.6708 152.11684 144.4751 149.39021 144.63282 148.75504 C 145.46222 146.74714 143.2444 147.63416 141.79866 150.02338 Z" fill="#cccccc"/>
        </g>
        <g id="Graphic_42">
          <path d="M 174.4176 149.0642 C 173.48895 150.80572 173.0734 156.93694 173.69715 159.34385 C 174.83287 163.53191 176.30371 161.86142 176.29202 156.37478 C 176.29088 153.76623 176.46314 150.97171 176.61773 150.2467 C 176.93004 148.88652 175.09555 147.87116 174.4176 149.0642 Z" fill="#cccccc"/>
        </g>
        <g id="Graphic_41">
          <path d="M 105.6083 159.47277 C 105.1665 162.2767 106.99614 173.45676 108.1119 174.49721 C 109.97148 176.2313 110.96174 173.67808 109.33403 170.85647 C 108.5651 169.4441 107.83267 166.50127 107.75424 164.25522 C 107.59737 159.76312 106.13366 156.48602 105.6083 159.47277 Z" fill="#cccccc"/>
        </g>
        <g id="Graphic_40">
          <path d="M 216.3376 156.86534 C 215.34735 159.41857 215.85531 166.23715 216.9742 167.36745 C 218.45874 168.66488 219.34974 165.84527 219.17405 160.81411 C 218.94816 154.34549 217.81672 152.85582 216.3376 156.86534 Z" fill="#cccccc"/>
        </g>
        <g id="Graphic_39">
          <path d="M 139.93052 171.22724 C 138.15051 174.34776 145.9933 185.13793 148.33432 182.62749 C 148.94125 181.97663 148.54737 181.00092 146.78704 179.53321 C 145.39549 178.32248 143.77719 175.7704 143.16911 173.8127 C 142.0585 170.34337 140.94588 169.39276 139.93052 171.22724 Z" fill="#cccccc"/>
        </g>
        <g id="Graphic_38">
          <path d="M 173.67462 171.57805 C 173.75933 174.00379 177.34902 178.91572 178.96618 178.85925 C 179.68491 178.83415 180.21455 178.5458 180.01918 178.10286 C 179.7371 177.7529 178.76966 175.80776 177.79595 173.68292 C 176.04702 169.96603 173.57423 168.7031 173.67462 171.57805 Z" fill="#cccccc"/>
        </g>
        <g id="Graphic_37">
          <path d="M 111.20246 185.7232 C 111.27149 187.69971 114.11107 191.73833 116.8879 193.9801 C 122.62125 198.45737 123.23959 195.55733 117.66396 190.44489 C 115.62155 188.62723 113.9291 186.5275 113.90714 185.8986 C 113.88518 185.2697 113.23746 184.7526 112.51872 184.7777 C 111.79998 184.8028 111.18678 185.27398 111.20246 185.7232 Z" fill="#cccccc"/>
        </g>
        <g id="Graphic_36">
          <path d="M 217.8324 181.63978 C 217.5723 181.91872 217.50755 182.6406 217.70606 183.17337 C 217.9077 183.796 218.3204 185.31076 218.637 186.64898 C 219.2639 189.14573 221.9968 190.12971 221.91523 187.79382 C 221.74582 182.94235 219.6532 179.68722 217.8324 181.63978 Z" fill="#cccccc"/>
        </g>
        <g id="Graphic_35">
          <path d="M 223.1619 197.73491 C 223.22465 199.53175 225.72682 204.2118 226.72763 204.53667 C 228.7324 205.27622 229.00392 202.7481 227.2801 199.74994 C 226.02743 197.365 223.09915 195.93807 223.1619 197.73491 Z" fill="#cccccc"/>
        </g>
        <g id="Graphic_34">
          <path d="M 52.685074 246.14525 C 51.74701 247.61723 55.50269 249.55497 63.40366 251.70775 C 67.76 252.81495 71.30776 253.95038 71.31717 254.2199 C 71.326585 254.48943 70.1806 255.1591 68.66897 255.66166 C 67.25032 256.2509 66.02077 257.1034 66.03646 257.55262 C 66.074106 258.63072 66.16395 258.6276 69.97068 256.87552 C 73.33448 255.31883 74.15875 255.7398 71.71219 257.80417 C 70.39907 258.8395 70.40535 259.01918 71.48659 259.07138 C 73.73264 258.99294 74.67698 257.70064 74.74686 254.5499 C 74.89716 251.1265 73.77827 249.9962 70.09475 250.12482 C 67.75886 250.2064 59.761774 247.87706 56.46158 246.10332 C 54.447404 245.09424 53.27632 245.04518 52.685074 246.14525 Z" fill="#cccccc"/>
        </g>
        <g id="Graphic_33">
          <path d="M 87.52952 254.82313 C 87.58286 256.35044 88.40085 256.59173 93.26801 256.87153 C 107.14447 257.55632 111.90923 257.47988 112.41691 256.56264 C 113.68924 254.35937 110.14776 253.40362 98.98852 253.2536 C 88.00897 253.0973 87.47305 253.20597 87.52952 254.82313 Z" fill="#cccccc"/>
        </g>
        <g id="Graphic_32">
          <path d="M 81.13021 264.76137 C 80.90803 273.85424 80.21667 279.8152 79.03532 284.62388 C 78.63945 286.16688 78.9278 286.6965 79.91606 286.662 C 82.25195 286.58043 83.13668 283.58114 83.70882 274.2062 C 84.51169 261.13517 84.20851 255.02905 82.68119 255.0824 C 81.78277 255.11376 81.41513 257.46534 81.13021 264.76137 Z" fill="#cccccc"/>
        </g>
        <g id="Graphic_31">
          <path d="M 127.7297 254.58868 C 127.11336 254.97 127.13532 255.5989 127.9784 256.55893 C 129.00745 257.69236 131.17308 257.8866 138.36358 257.72545 C 143.30489 257.5529 149.51654 257.69578 151.95482 257.97044 L 156.46889 258.44247 L 151.23095 260.4244 C 144.66108 262.90263 143.39188 265.19574 149.10726 264.0067 L 153.03835 263.23975 L 151.041 265.28843 C 148.00006 268.36303 149.83141 269.28854 153.50752 266.37167 C 156.92352 263.73374 159.05035 260.2413 157.83848 259.0243 C 157.37672 258.68062 156.88045 257.34868 156.65684 256.09716 L 156.30888 253.86053 L 142.45752 253.89447 C 134.90138 253.88848 128.2562 254.2105 127.7297 254.58868 Z" fill="#cccccc"/>
        </g>
        <g id="Graphic_30">
          <path d="M 262.46252 251.59278 C 262.30794 252.3178 262.01873 256.91543 262.0116 261.863 C 261.92205 269.60198 261.39982 272.67857 258.09278 283.58824 C 255.99846 290.58765 253.3745 297.8754 252.09276 299.80915 C 250.8173 301.92258 250.24487 303.5617 250.80274 304.08193 C 252.66233 305.81602 255.46398 301.0407 259.1053 289.39974 C 263.08087 277.0275 263.41827 276.38605 266.04565 276.92396 C 267.58866 277.31984 269.19326 276.904 270.50952 275.9585 C 272.70537 274.4426 272.44726 272.20283 270.23258 273.1797 C 269.3467 273.57043 268.96538 272.95408 268.9089 271.33693 L 268.82733 269.00103 L 266.82685 270.95987 L 264.9162 272.91558 L 264.91478 262.5712 C 264.8623 255.9166 264.44846 251.7933 263.7976 251.18636 C 263.14675 250.57942 262.70068 250.68495 262.46252 251.59278 Z" fill="#cccccc"/>
        </g>
        <g id="Graphic_29">
          <path d="M 222.6103 254.06387 C 222.17992 254.6186 221.67338 258.1444 221.44265 261.8405 C 220.84342 273.0154 213.19515 296.1302 207.9344 302.61052 C 205.3458 305.75927 205.22574 307.47254 207.65147 307.38783 C 212.32326 307.2247 224.0726 275.33134 224.9151 260.8197 C 225.21573 253.9729 224.41228 251.57225 222.6103 254.06387 Z" fill="#cccccc"/>
        </g>
        <g id="Graphic_28">
          <path d="M 238.77246 253.22962 C 231.25397 254.30174 229.2994 254.99966 230.1519 256.2292 C 230.53323 256.84555 234.67538 256.97076 241.05103 256.65817 C 251.46957 256.2044 254.08753 256.47278 250.2651 257.77563 C 249.10972 258.17578 247.69734 258.94472 247.00057 259.5987 C 246.0374 260.35196 246.40932 260.69878 248.85388 261.15312 C 251.2953 261.51762 252.1843 261.21672 253.74186 259.45325 C 258.1481 254.2621 256.7962 251.61075 249.88464 252.032 C 247.3722 252.2097 242.3536 252.74476 238.77246 253.22962 Z" fill="#cccccc"/>
        </g>
        <g id="Graphic_27">
          <path d="M 111.33995 259.20884 C 107.89885 261.12804 107.50612 262.76088 110.7122 261.83936 C 112.93942 261.22187 113.02926 261.21874 111.66709 263.42514 L 110.2182 265.72453 L 113.62593 265.42563 C 117.9258 264.91566 119.1177 262.98506 116.94153 259.91275 C 115.04743 257.1904 115.13727 257.18725 111.33995 259.20884 Z" fill="#cccccc"/>
        </g>
        <g id="Graphic_26">
          <path d="M 120.07972 259.62326 C 119.5846 260.89987 119.31307 263.428 119.37268 265.135 C 119.59543 271.51378 115.43618 288.92973 111.91694 296.3387 C 111.1617 297.89425 110.75641 299.16773 110.84625 299.1646 C 111.02907 299.24816 112.11031 299.30035 113.37438 299.4361 C 114.6353 299.48203 116.44469 299.77865 117.53221 300.01053 C 118.62286 300.33225 120.05092 300.01253 121.10079 299.1663 C 122.67716 297.94188 122.67402 297.85204 121.14357 297.81553 C 119.88578 297.85946 119.60057 297.41966 120.00272 296.05634 C 120.5626 294.05785 119.47194 293.73613 117.91125 295.40976 C 116.17716 297.26935 115.94728 295.83815 117.24043 291.65522 C 120.39289 281.47056 123.04793 267.3454 122.86283 262.0447 C 122.70596 257.5526 121.22143 256.25518 120.07972 259.62326 Z" fill="#cccccc"/>
        </g>
        <g id="Graphic_25">
          <path d="M 163.9717 256.92114 C 163.82909 270.86862 162.21136 283.7882 159.2115 295.76656 C 158.1816 299.7604 157.99364 302.1057 158.63508 302.4431 C 160.1969 303.37803 160.94588 301.6428 162.95862 292.3075 C 166.82325 274.18222 167.92474 256.7831 165.1981 255.9788 C 164.56294 255.82108 164.03644 256.19927 163.9717 256.92114 Z" fill="#cccccc"/>
        </g>
        <g id="Graphic_24">
          <path d="M 176.71985 256.2061 C 175.02226 256.53525 173.52319 257.39716 173.27248 257.94563 C 173.03433 258.85346 177.26632 258.97553 192.35978 258.44845 C 208.35166 257.89 211.75939 257.5911 211.72174 256.513 C 211.69664 255.79426 211.0395 255.00764 210.22152 254.76635 C 208.39958 254.11036 180.73764 255.3462 176.71985 256.2061 Z" fill="#cccccc"/>
        </g>
        <g id="Graphic_23">
          <path d="M 209.66279 259.3734 C 208.34025 260.1392 205.58653 261.13487 203.70612 261.38044 C 201.56246 261.8151 200.2368 262.49106 200.26189 263.2098 C 200.31209 264.64727 202.02222 264.6775 206.83604 263.42998 C 210.66788 262.39665 211.14846 263.2794 207.9863 265.4587 C 206.75675 266.3112 205.98582 267.41754 206.27104 267.85734 C 206.64923 268.38384 208.24129 267.60863 209.90436 266.29123 C 213.13753 263.56973 213.97435 264.35007 211.20607 267.5051 C 209.38841 269.5475 209.00195 271.36004 210.25974 271.3161 C 210.6191 271.30356 212.36575 269.80334 214.01 267.9469 C 216.5213 265.16065 216.76886 264.52234 215.56954 263.6647 C 214.739 263.06405 214.23646 261.55242 214.36595 260.10867 C 214.62806 257.31102 213.54368 257.169 209.66279 259.3734 Z" fill="#cccccc"/>
        </g>
        <g id="Graphic_22">
          <path d="M 59.15342 266.51828 C 59.20048 267.8659 60.390386 268.45402 67.85783 271.0717 C 75.05261 273.60896 76.49949 273.8283 76.43988 272.1213 C 76.41478 271.40255 74.2021 269.8607 71.45978 268.60718 C 66.06498 266.09702 59.096946 264.90113 59.15342 266.51828 Z" fill="#cccccc"/>
        </g>
        <g id="Graphic_21">
          <path d="M 251.54714 263.5777 C 250.87547 264.95044 250.89116 265.39965 251.87942 265.36514 C 253.1372 265.32122 255.14396 263.54206 255.10318 262.3741 C 255.05298 260.93664 252.38596 261.83934 251.54714 263.5777 Z" fill="#cccccc"/>
        </g>
        <g id="Graphic_20">
          <path d="M 88.60934 272.8657 C 88.3555 273.3243 88.38374 274.1329 88.67209 274.66253 C 88.9573 275.10233 88.61362 275.5641 87.89489 275.5892 C 85.46915 275.6739 86.45855 278.24794 89.08593 278.78585 C 90.44298 279.00832 93.61568 279.7071 96.2462 280.33484 C 102.77758 281.9058 106.63765 281.68105 106.20926 279.71707 C 105.99192 278.64524 104.25669 277.89627 100.45822 277.3093 C 97.47148 276.78394 93.84956 276.10086 92.39954 275.7917 L 89.77216 275.25378 L 91.87189 273.56132 L 93.96849 271.77903 L 91.54276 271.86374 C 90.19513 271.9108 88.86004 272.31723 88.60934 272.8657 Z" fill="#cccccc"/>
        </g>
        <g id="Graphic_19">
          <path d="M 71.14662 275.09463 C 71.17172 275.81337 75.11022 277.83467 76.188325 277.79702 C 77.35627 277.75624 76.36687 275.1822 75.09339 274.7769 C 73.08863 274.03735 71.11838 274.28605 71.14662 275.09463 Z" fill="#cccccc"/>
        </g>
        <g id="Graphic_18">
          <path d="M 230.12852 273.59068 C 227.03852 277.83636 227.97146 278.79325 233.86024 277.41824 C 238.58736 276.2637 239.8597 274.06043 235.29658 274.7595 C 233.05994 275.10744 232.87398 274.93403 233.34087 272.84884 C 234.03964 269.67614 232.87797 269.8966 230.12852 273.59068 Z" fill="#cccccc"/>
        </g>
        <g id="Graphic_17">
          <path d="M 126.24916 276.58857 C 124.26123 278.90678 125.75831 280.56358 129.71136 280.42554 C 131.68789 280.3565 133.47218 279.9344 133.72602 279.47578 C 134.32354 278.5554 132.22266 277.6393 129.61724 277.73027 C 128.53914 277.76792 128.16408 277.33126 128.40224 276.42343 C 129.06136 274.69133 127.71373 274.7384 126.24916 276.58857 Z" fill="#cccccc"/>
        </g>
        <g id="Graphic_16">
          <path d="M 173.8007 275.64764 C 172.24943 277.5908 173.76533 279.78665 176.55044 279.6894 C 180.05428 279.56704 181.91272 278.69258 181.85939 277.16526 C 181.82488 276.177 181.1897 276.01928 179.40855 276.53123 C 177.45085 277.1393 177.17505 276.96904 177.58034 275.69556 C 178.23633 273.87362 175.26527 273.79747 173.8007 275.64764 Z" fill="#cccccc"/>
        </g>
        <g id="Graphic_15">
          <path d="M 123.61893 283.69664 C 123.68168 285.4935 125.12856 285.7128 138.1066 286.42898 C 144.32453 286.75155 150.72527 287.1577 152.35184 287.37075 C 154.5206 287.65482 155.4096 287.35392 155.82117 286.26013 C 156.46775 284.16867 154.9122 283.41342 149.42556 283.4251 C 146.817 283.42626 141.32095 283.16843 137.08269 282.86667 C 126.34756 281.98223 123.5656 282.16933 123.61893 283.69664 Z" fill="#cccccc"/>
        </g>
        <g id="Graphic_14">
          <path d="M 103.55393 286.1064 C 100.62679 287.28805 98.16141 288.81336 97.91698 289.5415 C 97.67569 290.3595 98.13117 290.5235 99.19987 290.21633 C 100.17558 289.82245 102.13642 289.3042 103.56134 288.89465 C 105.7917 288.367 106.06437 288.44743 105.20046 289.46707 C 104.59353 290.11793 104.08271 290.94533 104.0984 291.39454 C 104.13918 292.5625 109.83574 290.83438 111.48626 289.1576 C 112.87668 287.7598 112.95083 287.30744 111.90296 285.63495 C 110.29721 283.44223 110.11753 283.4485 103.55393 286.1064 Z" fill="#cccccc"/>
        </g>
        <g id="Graphic_13">
          <path d="M 182.83852 284.59705 C 175.3012 285.1301 173.15755 285.56478 173.19206 286.55304 C 173.25794 288.43973 175.51654 288.72066 188.81003 288.1665 C 195.63488 287.8382 201.39105 287.8171 201.66685 287.98737 C 201.85595 288.25063 199.73738 289.40403 196.72354 290.67864 C 191.49188 292.84027 189.3274 295.2546 193.69201 294.02276 C 194.9404 293.7093 196.98793 293.0981 198.416 292.77838 L 200.81977 292.06478 L 198.74827 294.5658 C 197.5344 295.86752 196.8596 297.1504 197.13853 297.41052 C 197.97534 298.19086 203.01676 293.15743 204.44682 290.319 C 205.2825 288.49077 206.33236 287.64455 207.85968 287.5912 C 210.2854 287.5065 210.768 285.87052 208.9084 284.13643 C 207.79265 283.09597 205.90597 283.16186 182.83852 284.59705 Z" fill="#cccccc"/>
        </g>
        <g id="Graphic_12">
          <path d="M 234.4977 282.79307 C 228.58067 283.3595 227.95805 283.56115 228.01766 285.26815 C 228.0804 287.065 228.35307 287.14542 237.31845 286.29263 L 246.46665 285.5234 L 242.75917 287.54187 C 240.63747 288.60542 238.9744 289.92282 238.98695 290.2822 C 239.02146 291.27045 240.63548 291.12414 242.84074 289.87776 C 244.6929 288.8236 244.69605 288.91345 242.70812 291.23166 C 241.49425 292.53338 240.82258 293.9061 241.10151 294.16622 C 242.12115 295.03013 245.7847 291.7539 247.37876 288.45997 C 248.47455 286.3528 249.60485 285.23392 250.86264 285.19 C 253.3782 285.10215 255.30768 283.6855 254.54502 282.4528 C 253.8816 281.4865 249.47622 281.5504 234.4977 282.79307 Z" fill="#cccccc"/>
        </g>
        <g id="Graphic_11">
          <path d="M 151.11088 290.47244 C 146.35667 293.42696 144.82108 295.81933 148.55366 294.5196 C 149.62236 294.21244 151.03473 293.4435 151.6448 292.8825 C 153.2149 291.4784 153.88458 292.62437 152.79506 294.9112 C 151.53214 297.384 152.3721 298.2542 154.29215 296.568 C 157.16909 293.9489 158.65333 287.5105 156.31744 287.59207 C 155.95807 287.60462 153.57626 288.94712 151.11088 290.47244 Z" fill="#cccccc"/>
        </g>
        <g id="Graphic_10">
          <path d="M 264.05202 294.53414 C 258.2585 301.21297 258.57508 302.5512 265.2003 299.08157 C 268.64452 297.25222 270.10595 295.3122 267.94974 295.3875 C 267.32084 295.40946 267.29888 294.78056 267.88385 293.5008 C 269.90516 289.5623 267.94118 289.9907 264.05202 294.53414 Z" fill="#cccccc"/>
        </g>
        <g id="Graphic_9">
          <path d="M 170.21615 296.6416 C 167.20544 298.00605 166.36977 299.83426 168.70566 299.7527 C 170.95171 299.67426 174.47323 297.4824 174.42931 296.2246 C 174.37911 294.78714 173.8432 294.8958 170.21615 296.6416 Z" fill="#cccccc"/>
        </g>
        <g id="Graphic_8">
          <path d="M 222.08438 298.24847 C 219.3683 300.32226 216.0892 304.3047 216.1394 305.74215 C 216.16764 306.55073 220.29096 306.1369 225.0118 304.80266 C 230.62793 303.34722 230.93396 301.80736 225.4693 302.44795 C 220.7202 302.9736 220.33574 302.2674 224.03067 299.8896 C 225.52975 299.02767 226.65377 297.7291 226.6318 297.1002 C 226.5722 295.3932 225.59335 295.69724 222.08438 298.24847 Z" fill="#cccccc"/>
        </g>
        <g id="Graphic_7">
          <path d="M 165.6208 301.5695 C 165.66786 302.91713 170.09208 303.3923 174.38254 302.6128 C 177.1551 302.15618 178.03782 301.6756 177.21042 301.16478 C 175.55562 300.14315 165.58629 300.58124 165.6208 301.5695 Z" fill="#cccccc"/>
        </g>
        <g id="Graphic_6">
          <path d="M 299.98398 246.7744 C 293.19363 248.09094 290.35947 249.35928 291.21197 250.58883 C 291.5933 251.20518 293.48626 251.31898 296.17525 251.04517 C 301.36726 250.32415 301.75173 251.03034 297.42477 253.34028 C 295.65616 254.2116 294.4329 255.2438 294.80166 255.50077 C 295.82444 256.45452 302.46533 253.4341 302.85493 251.71143 C 303.18293 250.80046 304.4062 249.76827 305.74442 249.4517 C 309.93563 248.4058 310.55197 248.02448 310.1518 246.86908 C 309.5657 245.54028 306.6845 245.461 299.98398 246.7744 Z" fill="#cccccc"/>
        </g>
        <g id="Graphic_5">
          <path d="M 298.69938 256.35412 C 297.14497 258.20744 296.85463 260.1965 298.02257 260.15572 C 299.01084 260.1212 301.19614 255.72722 300.54528 255.1203 C 300.26634 254.86018 299.4766 255.42747 298.69938 256.35412 Z" fill="#cccccc"/>
        </g>
        <g id="Graphic_4">
          <path d="M 300.464 260.52023 C 297.40537 265.66432 296.92593 267.39015 298.45324 267.3368 C 299.53135 267.29916 302.82926 263.8558 302.7916 262.7777 C 302.77907 262.41832 303.71713 260.94633 304.92786 259.55478 C 306.1386 258.16323 306.89383 256.60768 306.60862 256.16788 C 305.28495 254.32512 303.26564 255.7449 300.464 260.52023 Z" fill="#cccccc"/>
        </g>
      </g>
    </g>
  </g>
</svg>
