<?xml version="1.0" encoding="UTF-8" standalone="no"?>
<svg
   xmlns:dc="http://purl.org/dc/elements/1.1/"
   xmlns:cc="http://creativecommons.org/ns#"
   xmlns:rdf="http://www.w3.org/1999/02/22-rdf-syntax-ns#"
   xmlns:svg="http://www.w3.org/2000/svg"
   xmlns="http://www.w3.org/2000/svg"
   id="svg2"
   version="1.0"
   width="224.28992"
   height="224.85945">
  <metadata
     id="metadata49">
    <rdf:RDF>
      <cc:Work
         rdf:about="">
        <dc:format>image/svg+xml</dc:format>
        <dc:type
           rdf:resource="http://purl.org/dc/dcmitype/StillImage" />
        <dc:title></dc:title>
        <dc:date>03-AUG-2006</dc:date>
        <dc:creator>
          <cc:Agent>
            <dc:title>Jérôme BLUM (wagner51)</dc:title>
          </cc:Agent>
        </dc:creator>
        <cc:license
           rdf:resource="http://web.resource.org/cc/PublicDomain" />
        <dc:language>fr</dc:language>
        <dc:subject>
          <rdf:Bag>
            <rdf:li>gabarit modèle blason projet wikipédia</rdf:li>
          </rdf:Bag>
        </dc:subject>
      </cc:Work>
      <cc:License
         rdf:about="http://web.resource.org/cc/PublicDomain">
        <cc:permits
           rdf:resource="http://web.resource.org/cc/Reproduction" />
        <cc:permits
           rdf:resource="http://web.resource.org/cc/Distribution" />
        <cc:permits
           rdf:resource="http://web.resource.org/cc/DerivativeWorks" />
      </cc:License>
    </rdf:RDF>
  </metadata>
  <desc
     id="desc4">Flag of Canton of Valais (Wallis)</desc>
  <defs
     id="defs6">
    <linearGradient
       id="linearGradient2893">
      <stop
         id="stop2895"
         offset="0"
         style="stop-color:white;stop-opacity:0.3137255;" />
      <stop
         style="stop-color:white;stop-opacity:0.25098041;"
         offset="0.19"
         id="stop2897" />
      <stop
         id="stop2901"
         offset="0.60000002"
         style="stop-color:#6b6b6b;stop-opacity:0.1254902;" />
      <stop
         id="stop2899"
         offset="1"
         style="stop-color:black;stop-opacity:0.1254902;" />
    </linearGradient>
  </defs>
  <g
     transform="translate(-117.36143,-334.56672)"
     id="layer4">
    <g
       transform="matrix(0.68947968,0,0,0.68947968,130.84177,-640.48345)"
       id="g14636">
      <path
         style="fill:#ffff00;stroke:#808080;stroke-width:1.37042746"
         id="path4347"
         d="m 110.37325,1705.4402 -2.97688,-97.5047 -4.31011,-141.1701 c 1.80577,-1.4775 3.45995,-3.6141 6.59764,0.6769 l 9.96532,238.2424 z" />
      <path
         style="fill:#ffff00;stroke:#808080;stroke-width:1.37042746"
         id="path4349"
         d="m 241.32949,1738.1555 -211.986352,0.8238 c 1.805766,-1.4769 -50.693248,-76.5697 -47.556224,-72.278 l 12.6284973,0.3058 c 89.6022277,39.8276 197.2667287,44.3065 283.1163887,9.2542 z" />
      <path
         style="fill:none;stroke:#808080;stroke-width:1.37042746"
         id="path4353"
         d="m -4.4543375,1667.4822 41.9853715,71.4971" />
      <path
         style="fill:none;stroke:#808080;stroke-width:1.37042746;stroke-linecap:round"
         id="path4355"
         d="m 2.6118742,1678.3959 c 0,0 90.0925528,30.8167 131.0920058,30.6835 108.67085,-0.3499 140.11555,-26.4617 140.11555,-26.4617" />
      <path
         style="fill:none;stroke:#808080;stroke-width:1.37042746;stroke-linecap:round"
         id="path4357"
         d="m 10.268585,1691.6505 c 0,0 77.399469,27.5715 118.398915,27.4391 108.67085,-0.3506 136.69845,-22.5576 136.69845,-22.5576" />
      <path
         style="fill:none;stroke:#808080;stroke-width:1.37042746;stroke-linecap:round"
         id="path4359"
         d="m 19.913614,1707.8108 c 0,0 65.712079,20.8803 106.711526,20.7465 108.67085,-0.3506 131.81695,-19.6275 131.81695,-19.6275" />
      <path
         style="fill:none;stroke:#808080;stroke-width:1.37042746"
         id="path4361"
         d="m 28.254407,1723.3318 c 0,0 65.915062,14.7447 106.914513,14.6115 108.67085,-0.3506 114.58638,-14.6115 114.58638,-14.6115" />
      <path
         style="fill:#ffff00;stroke:#808080;stroke-width:1.37042746"
         id="path4371"
         d="m 105.52459,1556.7264 52.83945,-139.8102 c 0.58621,-2.2584 3.28223,-2.4863 4.48103,0.5506 l -54.18964,142.7165 c -1.37731,1.6136 -3.74715,-1.5357 -3.13084,-3.4569 z" />
      <path
         style="fill:#ffff00;stroke:#808080;stroke-width:1.37042746;stroke-miterlimit:4;stroke-dasharray:none"
         id="path4391"
         d="m 283.65756,1681.7801 8.93393,-0.7764 c 0,0 -7.3786,24.8122 -10.1604,35.5499 -2.36331,9.1204 -3.19106,20.2786 -3.19106,20.2786 l -28.82833,0.8495 z" />
      <path
         style="fill:#ffff00;stroke:#808080;stroke-width:1.37042746"
         id="path4393"
         d="m 250.17115,1674.1339 c 0.27087,-0.176 53.3215,-1.2357 53.29316,-2.157 1.25547,0.4593 1.51381,5.9023 -0.57864,5.7725 0.16806,1.1204 -51.47289,2.65 -52.64795,2.2308 -1.53095,-0.5463 -2.58607,-4.2099 -0.0666,-5.8463 z" />
      <path
         style="fill:#ffff00;stroke:#808080;stroke-width:1.37042746"
         id="path4395"
         d="m 266.0118,1695.6746 c 0.27087,-0.1766 7.58027,0.145 9.27861,0.431 2.63615,1.668 0.30579,3.831 -2.99533,4.9098 -2.07531,0.084 -5.73166,0.2333 -6.90738,-0.1858 -1.53095,-0.5457 -1.8954,-3.5193 0.6241,-5.155 z" />
      <path
         style="fill:#ffff00;stroke:#808080;stroke-width:1.37042746"
         id="path4397"
         d="m 250.11975,1723.167 c 0.27086,-0.1766 7.58092,0.1457 9.2786,0.4324 2.63616,1.6667 0.3058,3.831 -2.99467,4.9091 -2.07597,0.084 -5.73232,0.2333 -6.90738,-0.1858 -1.53161,-0.5457 -1.89606,-3.5186 0.62345,-5.1557 z" />
      <path
         style="stroke:#808080;stroke-width:1.37042746;fill:#666666"
         id="path4399"
         d="m 280.84347,1668.6243 c 0.17992,-0.1173 4.93027,-5.7698 9.40514,-7.4959 2.25786,-0.8706 5.34546,0.7553 5.91553,1.5415 2.63615,1.6674 2.72183,8.1464 -0.57864,9.2246 -2.07597,0.084 -6.595,0.752 -7.77072,0.3328 -0.73615,-0.263 3.60033,-5.561 1.77149,-6.1541 -1.97579,-0.6412 -10.05033,3.4006 -8.7428,2.5511 z" />
      <path
         style="fill:#ffff00;stroke:#808080;stroke-width:1.37042746"
         id="path4369-3"
         d="m 103.60608,1671.227 163.55714,-12.7336 c 2.22632,0.7197 0.0841,2.5344 -4.14441,4.7257 l -157.80977,14.5299 c -4.04055,-1.7844 -4.29434,-3.9896 -1.60296,-6.522 z" />
      <g
         id="sails">
        <path
           id="path14590"
           d="m 159.37962,1426.5935 c 66.66234,80.6042 80.19924,156.6547 95.9645,232.8963 l -147.03332,12.9075 c 5.38138,-38.3484 1.67092,-76.6967 0,-115.0451 z"
           style="fill:#ff0000;stroke:#808080;stroke-width:1.37042746;stroke-linecap:butt;stroke-linejoin:miter;stroke-miterlimit:4;stroke-dasharray:none;stroke-opacity:1" />
        <path
           id="path14592"
           d="m 93.719709,1539.3939 c -48.844505,36.878 -64.02628,87.9167 -78.006225,131.3198 29.404617,3.9706 62.3685,17.0333 95.964486,11.224 7.78451,-48.3612 -2.16932,-106.8381 -17.958261,-142.5438 z"
           style="fill:#ff0000;stroke:#808080;stroke-width:1.37042746;stroke-linecap:butt;stroke-linejoin:miter;stroke-miterlimit:4;stroke-dasharray:none;stroke-opacity:1" />
      </g>
      <path
         style="fill:none;stroke:#808080;stroke-width:1px;stroke-linecap:butt;stroke-linejoin:miter;stroke-opacity:1"
         d="m 93.439111,1539.9551 10.382119,-55.5584 5.61196,-0.5612"
         id="path14594" />
      <path
         style="fill:none;stroke:#808080;stroke-width:1.37042746;stroke-linecap:butt;stroke-linejoin:miter;stroke-opacity:1"
         d="m 15.432886,1670.4331 -16.5552777,-1.6835"
         id="path14632" />
      <path
         style="fill:none;stroke:#808080;stroke-width:1.37042746;stroke-linecap:butt;stroke-linejoin:miter;stroke-opacity:1"
         d="m 111.67798,1680.2541 8.41793,16.2747"
         id="path14634" />
    </g>
  </g>
</svg>
