<?xml version="1.0" encoding="utf-8"?>
<svg xmlns:dc="http://purl.org/dc/elements/1.1/" xmlns:xl="http://www.w3.org/1999/xlink"
     xmlns="http://www.w3.org/2000/svg"
     xmlns:xlink="http://www.w3.org/1999/xlink"
     version="1.1"
     viewBox="63 63 99 351"
     width="99"
     height="351"
     preserveAspectRatio="xMidYMid meet"
     zoomAndPan="magnify"
     contentScriptType="application/ecmascript"
     contentStyleType="text/css">
   <defs/>
   <metadata  xmlns:svg="http://www.w3.org/2000/svg"
             xmlns:rdf="http://www.w3.org/1999/02/22-rdf-syntax-ns#"
             xmlns:cc="http://creativecommons.org/ns#">
      <rdf:RDF>
         <cc:Work rdf:about="">
            <dc:creator>
               <cc:Agent>
                  <dc:title>http://heraldicart.org Bobbin, Lace.svg</dc:title>
               </cc:Agent>
            </dc:creator>
         </cc:Work>
      </rdf:RDF>
   </metadata>
   <g stroke="#505050" fill="#ffff00" stroke-opacity="1" stroke-dasharray="none"
      fill-opacity="1">
      <title>Bobbin, Lace</title>
      <g>
         <title>Layer 2</title>
         <g>
            <g>
               <path d="M 82.33969 90.86053 C 82.33969 76.62152 95.64622 65.07854 112.0606 65.07854 C 128.47499 65.07854 141.78152 76.62152 141.78152 90.86053 L 82.33969 90.86053"/>
               <path d="M 82.33969 90.86053 C 82.33969 76.62152 95.64622 65.07854 112.0606 65.07854 C 128.47499 65.07854 141.78152 76.62152 141.78152 90.86053 L 82.33969 90.86053"
                     stroke="black"
                     stroke-linecap="round"
                     stroke-linejoin="round"
                     stroke-width="2"/>
            </g>
            <g>
               <rect x="100.24386" y="90.86053" width="23.633497" height="71.97474"/>
               <rect x="100.24386" y="90.86053" width="23.633497" height="71.97474" stroke="black"
                     stroke-linecap="round"
                     stroke-linejoin="round"
                     stroke-width="2"/>
            </g>
            <g>
               <path d="M 112.02914 411.9005 C 113.75447 412.37105 117.56978 404.99915 127.2944 381.78554 C 130.90192 373.15886 134.97999 363.2774 136.54848 359.8267 C 140.62655 350.7295 143.92037 339.90692 148.31214 321.39877 C 161.01688 267.59964 159.4484 226.97582 143.44982 195.44922 C 135.92108 180.39174 135.29369 177.25476 138.90121 168.62808 L 141.41079 162.82468 L 82.71042 162.82468 L 85.22 168.62808 C 88.82752 177.25476 88.20013 180.39174 80.67139 195.44922 C 64.672815 226.97582 63.10433 267.59964 75.80908 321.39877 C 80.20084 339.90692 83.49467 350.7295 87.57273 359.8267 C 89.14122 363.2774 93.21929 373.15886 96.82681 381.78554 C 106.55143 404.99915 110.31133 412.37105 112.03667 411.9005 C 112.08654 411.88236 111.97926 411.88236 112.02914 411.9005 Z"/>
               <path d="M 112.02914 411.9005 C 113.75447 412.37105 117.56978 404.99915 127.2944 381.78554 C 130.90192 373.15886 134.97999 363.2774 136.54848 359.8267 C 140.62655 350.7295 143.92037 339.90692 148.31214 321.39877 C 161.01688 267.59964 159.4484 226.97582 143.44982 195.44922 C 135.92108 180.39174 135.29369 177.25476 138.90121 168.62808 L 141.41079 162.82468 L 82.71042 162.82468 L 85.22 168.62808 C 88.82752 177.25476 88.20013 180.39174 80.67139 195.44922 C 64.672815 226.97582 63.10433 267.59964 75.80908 321.39877 C 80.20084 339.90692 83.49467 350.7295 87.57273 359.8267 C 89.14122 363.2774 93.21929 373.15886 96.82681 381.78554 C 106.55143 404.99915 110.31133 412.37105 112.03667 411.9005 C 112.08654 411.88236 111.97926 411.88236 112.02914 411.9005 Z"
                     stroke="black"
                     stroke-linecap="round"
                     stroke-linejoin="round"
                     stroke-width="2"/>
            </g>
         </g>
      </g>
   </g>
</svg>