<?xml version="1.0" encoding="UTF-8" standalone="no"?>
<!DOCTYPE svg PUBLIC "-//W3C//DTD SVG 1.1//EN" "http://www.w3.org/Graphics/SVG/1.1/DTD/svg11.dtd">
<svg xmlns:dc="http://purl.org/dc/elements/1.1/" xmlns:xl="http://www.w3.org/1999/xlink" version="1.1" xmlns="http://www.w3.org/2000/svg" viewBox="33.99687 94.5 348.50313 172.83333" width="348.50313" height="172.83333">
  <defs>
    <clipPath id="artboard_clip_path">
      <path d="M 33.99687 94.5 L 382.5 94.5 L 382.5 267.33333 L 33.99687 267.33333 Z"/>
    </clipPath>
  </defs>
  <metadata> Produced by OmniGraffle 7.7.1 
    <dc:date>2018-03-13 06:46:41 +0000</dc:date><dc:title>Traceable heraldic art http://heraldicart.org/credits.html</dc:title>
  </metadata>
  <g id="Shuttle,_Weaver_s_(1)" fill-opacity="1" stroke-dasharray="none" stroke="none" stroke-opacity="1" fill="#ffff00">
    <title>Shuttle, Weaver&apos;s (1)</title>
    <g id="Shuttle,_Weaver_s_(1): Layer 2" >
      <title>Layer 2</title>
      <g id="Group_3">
        <g id="Graphic_28">
          <title>path18</title>
          <path d="M 294.33206 157.13164 C 301.25708 161.48724 305.61595 167.9129 306.38363 174.89753 C 307.1513 181.88215 304.26002 188.80938 298.38973 194.05015 C 284.55912 202.92413 277.2512 216.70476 278.92544 230.75412 C 280.5997 244.80348 291.0335 257.25333 306.71532 263.9136 C 308.4232 264.64712 310.55416 264.22858 311.63342 262.94763 C 312.7127 261.6667 312.3854 259.94448 310.8781 258.9729 C 296.95828 253.0911 287.77372 241.98896 286.50993 229.51701 C 285.24614 217.04506 292.0772 204.92143 304.63392 197.35095 C 312.1998 191.21406 315.8873 182.70375 314.6768 174.17325 C 313.46632 165.64275 307.4861 157.99594 298.38973 153.34728 C 298.21394 153.1183 297.99402 152.91257 297.738 152.73758 C 296.90806 154.4133 295.7501 155.9072 294.33206 157.13164 Z" fill="#ff0000"/>
          <path d="M 294.33206 157.13164 C 301.25708 161.48724 305.61595 167.9129 306.38363 174.89753 C 307.1513 181.88215 304.26002 188.80938 298.38973 194.05015 C 284.55912 202.92413 277.2512 216.70476 278.92544 230.75412 C 280.5997 244.80348 291.0335 257.25333 306.71532 263.9136 C 308.4232 264.64712 310.55416 264.22858 311.63342 262.94763 C 312.7127 261.6667 312.3854 259.94448 310.8781 258.9729 C 296.95828 253.0911 287.77372 241.98896 286.50993 229.51701 C 285.24614 217.04506 292.0772 204.92143 304.63392 197.35095 C 312.1998 191.21406 315.8873 182.70375 314.6768 174.17325 C 313.46632 165.64275 307.4861 157.99594 298.38973 153.34728 C 298.21394 153.1183 297.99402 152.91257 297.738 152.73758 C 296.90806 154.4133 295.7501 155.9072 294.33206 157.13164 Z" stroke="#cccccc" stroke-linecap="round" stroke-linejoin="round" stroke-width="1.5"/>
        </g>
        <g id="Graphic_27">
          <title>path161</title>
          <path d="M 325.86838 135.87953 L 297.2334 135.87953 C 294.69317 130.50824 290.08207 127.21574 285.10243 127.21755 C 283.72064 127.21783 282.34638 127.47285 281.02374 127.97442 C 279.7011 127.47285 278.32683 127.21783 276.94504 127.21755 C 275.5703 127.22041 274.20327 127.4754 272.88737 127.97442 C 271.56472 127.47285 270.19046 127.21783 268.80867 127.21755 C 267.42688 127.21783 266.05262 127.47285 264.72997 127.97442 C 263.40733 127.47285 262.03307 127.21783 260.65128 127.21755 C 259.26948 127.21783 257.89523 127.47285 256.57258 127.97442 C 255.25668 127.4754 253.88965 127.22041 252.5149 127.21755 C 251.30205 127.21206 250.0937 127.40285 248.91977 127.7852 C 247.75265 127.4051 246.55148 127.21432 245.34565 127.21755 C 243.96386 127.21783 242.5896 127.47285 241.26696 127.97442 C 239.9443 127.47285 238.57005 127.21783 237.18826 127.21755 C 235.8135 127.22041 234.4465 127.4754 233.1306 127.97442 C 231.80794 127.47285 230.43368 127.21783 229.0519 127.21755 C 227.6701 127.21783 226.29584 127.47285 224.9732 127.97442 C 223.65055 127.47285 222.2763 127.21783 220.8945 127.21755 C 219.51975 127.22041 218.15273 127.4754 216.83682 127.97442 C 215.51418 127.47285 214.13992 127.21783 212.75813 127.21755 C 211.54527 127.21206 210.3369 127.40285 209.16299 127.7852 C 207.99587 127.4051 206.7947 127.21432 205.58887 127.21755 C 204.20708 127.21783 202.83282 127.47285 201.51018 127.97442 C 200.18753 127.47285 198.81327 127.21783 197.43148 127.21755 C 196.05673 127.22041 194.6897 127.4754 193.3738 127.97442 C 192.05116 127.47285 190.6769 127.21783 189.2951 127.21755 C 187.91332 127.21783 186.53906 127.47285 185.21641 127.97442 C 183.89377 127.47285 182.5195 127.21783 181.13772 127.21755 C 179.76297 127.22041 178.39595 127.4754 177.08004 127.97442 C 175.7574 127.47285 174.38314 127.21783 173.00135 127.21755 C 171.78849 127.21206 170.58013 127.40285 169.4062 127.7852 C 168.2391 127.4051 167.03792 127.21432 165.8321 127.21755 C 164.4503 127.21783 163.07604 127.47285 161.7534 127.97442 C 160.43075 127.47285 159.0565 127.21783 157.6747 127.21755 C 156.29995 127.22041 154.93293 127.4754 153.61703 127.97442 C 152.29438 127.47285 150.92012 127.21783 149.53833 127.21755 C 148.15653 127.21783 146.78228 127.47285 145.45963 127.97442 C 144.13699 127.47285 142.76273 127.21783 141.38094 127.21755 C 140.00619 127.22041 138.63916 127.4754 137.32326 127.97442 C 136.00062 127.47285 134.62636 127.21783 133.24457 127.21755 C 128.26493 127.21574 123.65383 130.50824 121.1136 135.87953 L 91.36434 135.87953 L 90.69157 135.87953 C 106.58177 123.14097 154.0014 114.43579 207.7902 114.38283 C 261.579 114.32987 309.2761 122.9414 325.57404 135.64826 C 325.6734 135.72525 325.77153 135.80234 325.86838 135.87953 M 90.96488 153.9183 L 121.1136 153.9183 C 123.65383 159.28958 128.26493 162.58208 133.24457 162.58027 C 134.62636 162.58 136.00062 162.32498 137.32326 161.8234 C 138.63916 162.32243 140.00619 162.57742 141.38094 162.58027 C 142.76273 162.58 144.13699 162.32498 145.45963 161.8234 C 146.78228 162.32498 148.15653 162.58 149.53833 162.58027 C 150.92012 162.58 152.29438 162.32498 153.61703 161.8234 C 154.93293 162.32243 156.29995 162.57742 157.6747 162.58027 C 159.0565 162.58 160.43075 162.32498 161.7534 161.8234 C 163.07604 162.32498 164.4503 162.58 165.8321 162.58027 C 167.03864 162.57664 168.23983 162.3788 169.4062 161.9916 C 170.5794 162.38104 171.78776 162.5789 173.00135 162.58027 C 174.38314 162.58 175.7574 162.32498 177.08004 161.8234 C 178.39595 162.32243 179.76297 162.57742 181.13772 162.58027 C 182.5195 162.58 183.89377 162.32498 185.21641 161.8234 C 186.53906 162.32498 187.91332 162.58 189.2951 162.58027 C 190.6769 162.58 192.05116 162.32498 193.3738 161.8234 C 194.6897 162.32243 196.05673 162.57742 197.43148 162.58027 C 198.81327 162.58 200.18753 162.32498 201.51018 161.8234 C 202.83282 162.32498 204.20708 162.58 205.58887 162.58027 C 206.79542 162.57664 207.9966 162.3788 209.16299 161.9916 C 210.33617 162.38104 211.54454 162.5789 212.75813 162.58027 C 214.13992 162.58 215.51418 162.32498 216.83682 161.8234 C 218.15273 162.32243 219.51975 162.57742 220.8945 162.58027 C 222.2763 162.58 223.65055 162.32498 224.9732 161.8234 C 226.29584 162.32498 227.6701 162.58 229.0519 162.58027 C 230.43368 162.58 231.80794 162.32498 233.1306 161.8234 C 234.4465 162.32243 235.8135 162.57742 237.18826 162.58027 C 238.57005 162.58 239.9443 162.32498 241.26696 161.8234 C 242.5896 162.32498 243.96386 162.58 245.34565 162.58027 C 246.5522 162.57664 247.7534 162.3788 248.91977 161.9916 C 250.09295 162.38104 251.30132 162.5789 252.5149 162.58027 C 253.88965 162.57742 255.25668 162.32243 256.57258 161.8234 C 257.89523 162.32498 259.26948 162.58 260.65128 162.58027 C 262.03307 162.58 263.40733 162.32498 264.72997 161.8234 C 266.05262 162.32498 267.42688 162.58 268.80867 162.58027 C 270.19046 162.58 271.56472 162.32498 272.88737 161.8234 C 274.20327 162.32243 275.5703 162.57742 276.94504 162.58027 C 278.32683 162.58 279.7011 162.32498 281.02374 161.8234 C 282.34638 162.32498 283.72064 162.58 285.10243 162.58027 C 290.08207 162.58208 294.69317 159.28958 297.2334 153.9183 L 326.26784 153.9183 C 320.3854 158.60536 309.9288 162.87028 295.80376 166.3436 C 265.38324 173.96926 221.04513 177.07576 179.02221 174.52578 C 136.99929 171.9758 103.46305 164.14384 90.69157 153.89727 L 90.96488 153.9183 M 35.061507 144.96199 C 51.51312 162.85894 72.27061 176.24853 95.35894 183.85677 C 132.58759 189.66345 170.2235 192.46172 207.90153 192.2244 L 208.27997 192.2244 L 208.6584 192.2244 C 246.33643 192.46172 283.97235 189.66345 321.201 183.85677 C 344.28933 176.24853 365.04682 162.85894 381.49843 144.96199 C 365.10577 126.96675 344.3323 113.52338 321.201 105.94105 C 283.97235 100.13437 246.33643 97.33611 208.6584 97.57342 L 208.27997 97.57342 L 207.90153 97.57342 C 170.2235 97.33611 132.58759 100.13437 95.35894 105.94105 C 72.27284 113.54331 51.515563 126.92553 35.061507 144.81482 L 34.998434 144.89891 L 35.061507 144.96199" fill="#ff0000"/>
          <path d="M 325.86838 135.87953 L 297.2334 135.87953 C 294.69317 130.50824 290.08207 127.21574 285.10243 127.21755 C 283.72064 127.21783 282.34638 127.47285 281.02374 127.97442 C 279.7011 127.47285 278.32683 127.21783 276.94504 127.21755 C 275.5703 127.22041 274.20327 127.4754 272.88737 127.97442 C 271.56472 127.47285 270.19046 127.21783 268.80867 127.21755 C 267.42688 127.21783 266.05262 127.47285 264.72997 127.97442 C 263.40733 127.47285 262.03307 127.21783 260.65128 127.21755 C 259.26948 127.21783 257.89523 127.47285 256.57258 127.97442 C 255.25668 127.4754 253.88965 127.22041 252.5149 127.21755 C 251.30205 127.21206 250.0937 127.40285 248.91977 127.7852 C 247.75265 127.4051 246.55148 127.21432 245.34565 127.21755 C 243.96386 127.21783 242.5896 127.47285 241.26696 127.97442 C 239.9443 127.47285 238.57005 127.21783 237.18826 127.21755 C 235.8135 127.22041 234.4465 127.4754 233.1306 127.97442 C 231.80794 127.47285 230.43368 127.21783 229.0519 127.21755 C 227.6701 127.21783 226.29584 127.47285 224.9732 127.97442 C 223.65055 127.47285 222.2763 127.21783 220.8945 127.21755 C 219.51975 127.22041 218.15273 127.4754 216.83682 127.97442 C 215.51418 127.47285 214.13992 127.21783 212.75813 127.21755 C 211.54527 127.21206 210.3369 127.40285 209.16299 127.7852 C 207.99587 127.4051 206.7947 127.21432 205.58887 127.21755 C 204.20708 127.21783 202.83282 127.47285 201.51018 127.97442 C 200.18753 127.47285 198.81327 127.21783 197.43148 127.21755 C 196.05673 127.22041 194.6897 127.4754 193.3738 127.97442 C 192.05116 127.47285 190.6769 127.21783 189.2951 127.21755 C 187.91332 127.21783 186.53906 127.47285 185.21641 127.97442 C 183.89377 127.47285 182.5195 127.21783 181.13772 127.21755 C 179.76297 127.22041 178.39595 127.4754 177.08004 127.97442 C 175.7574 127.47285 174.38314 127.21783 173.00135 127.21755 C 171.78849 127.21206 170.58013 127.40285 169.4062 127.7852 C 168.2391 127.4051 167.03792 127.21432 165.8321 127.21755 C 164.4503 127.21783 163.07604 127.47285 161.7534 127.97442 C 160.43075 127.47285 159.0565 127.21783 157.6747 127.21755 C 156.29995 127.22041 154.93293 127.4754 153.61703 127.97442 C 152.29438 127.47285 150.92012 127.21783 149.53833 127.21755 C 148.15653 127.21783 146.78228 127.47285 145.45963 127.97442 C 144.13699 127.47285 142.76273 127.21783 141.38094 127.21755 C 140.00619 127.22041 138.63916 127.4754 137.32326 127.97442 C 136.00062 127.47285 134.62636 127.21783 133.24457 127.21755 C 128.26493 127.21574 123.65383 130.50824 121.1136 135.87953 L 91.36434 135.87953 L 90.69157 135.87953 C 106.58177 123.14097 154.0014 114.43579 207.7902 114.38283 C 261.579 114.32987 309.2761 122.9414 325.57404 135.64826 C 325.6734 135.72525 325.77153 135.80234 325.86838 135.87953 M 90.96488 153.9183 L 121.1136 153.9183 C 123.65383 159.28958 128.26493 162.58208 133.24457 162.58027 C 134.62636 162.58 136.00062 162.32498 137.32326 161.8234 C 138.63916 162.32243 140.00619 162.57742 141.38094 162.58027 C 142.76273 162.58 144.13699 162.32498 145.45963 161.8234 C 146.78228 162.32498 148.15653 162.58 149.53833 162.58027 C 150.92012 162.58 152.29438 162.32498 153.61703 161.8234 C 154.93293 162.32243 156.29995 162.57742 157.6747 162.58027 C 159.0565 162.58 160.43075 162.32498 161.7534 161.8234 C 163.07604 162.32498 164.4503 162.58 165.8321 162.58027 C 167.03864 162.57664 168.23983 162.3788 169.4062 161.9916 C 170.5794 162.38104 171.78776 162.5789 173.00135 162.58027 C 174.38314 162.58 175.7574 162.32498 177.08004 161.8234 C 178.39595 162.32243 179.76297 162.57742 181.13772 162.58027 C 182.5195 162.58 183.89377 162.32498 185.21641 161.8234 C 186.53906 162.32498 187.91332 162.58 189.2951 162.58027 C 190.6769 162.58 192.05116 162.32498 193.3738 161.8234 C 194.6897 162.32243 196.05673 162.57742 197.43148 162.58027 C 198.81327 162.58 200.18753 162.32498 201.51018 161.8234 C 202.83282 162.32498 204.20708 162.58 205.58887 162.58027 C 206.79542 162.57664 207.9966 162.3788 209.16299 161.9916 C 210.33617 162.38104 211.54454 162.5789 212.75813 162.58027 C 214.13992 162.58 215.51418 162.32498 216.83682 161.8234 C 218.15273 162.32243 219.51975 162.57742 220.8945 162.58027 C 222.2763 162.58 223.65055 162.32498 224.9732 161.8234 C 226.29584 162.32498 227.6701 162.58 229.0519 162.58027 C 230.43368 162.58 231.80794 162.32498 233.1306 161.8234 C 234.4465 162.32243 235.8135 162.57742 237.18826 162.58027 C 238.57005 162.58 239.9443 162.32498 241.26696 161.8234 C 242.5896 162.32498 243.96386 162.58 245.34565 162.58027 C 246.5522 162.57664 247.7534 162.3788 248.91977 161.9916 C 250.09295 162.38104 251.30132 162.5789 252.5149 162.58027 C 253.88965 162.57742 255.25668 162.32243 256.57258 161.8234 C 257.89523 162.32498 259.26948 162.58 260.65128 162.58027 C 262.03307 162.58 263.40733 162.32498 264.72997 161.8234 C 266.05262 162.32498 267.42688 162.58 268.80867 162.58027 C 270.19046 162.58 271.56472 162.32498 272.88737 161.8234 C 274.20327 162.32243 275.5703 162.57742 276.94504 162.58027 C 278.32683 162.58 279.7011 162.32498 281.02374 161.8234 C 282.34638 162.32498 283.72064 162.58 285.10243 162.58027 C 290.08207 162.58208 294.69317 159.28958 297.2334 153.9183 L 326.26784 153.9183 C 320.3854 158.60536 309.9288 162.87028 295.80376 166.3436 C 265.38324 173.96926 221.04513 177.07576 179.02221 174.52578 C 136.99929 171.9758 103.46305 164.14384 90.69157 153.89727 L 90.96488 153.9183 M 35.061507 144.96199 C 51.51312 162.85894 72.27061 176.24853 95.35894 183.85677 C 132.58759 189.66345 170.2235 192.46172 207.90153 192.2244 L 208.27997 192.2244 L 208.6584 192.2244 C 246.33643 192.46172 283.97235 189.66345 321.201 183.85677 C 344.28933 176.24853 365.04682 162.85894 381.49843 144.96199 C 365.10577 126.96675 344.3323 113.52338 321.201 105.94105 C 283.97235 100.13437 246.33643 97.33611 208.6584 97.57342 L 208.27997 97.57342 L 207.90153 97.57342 C 170.2235 97.33611 132.58759 100.13437 95.35894 105.94105 C 72.27284 113.54331 51.515563 126.92553 35.061507 144.81482 L 34.998434 144.89891 L 35.061507 144.96199" stroke="#cccccc" stroke-linecap="round" stroke-linejoin="round" stroke-width="2.16"/>
        </g>
        <g id="Graphic_26">
          <title>path29</title>
          <path d="M 208.25096 135.87566 L 208.25096 153.91443 L 332.483 153.91443 C 340.64498 148.04997 340.65233 141.74113 332.50404 135.87566 Z" fill="#ff0000"/>
          <path d="M 208.25096 135.87566 L 208.25096 153.91443 L 332.483 153.91443 C 340.64498 148.04997 340.65233 141.74113 332.50404 135.87566 Z" stroke="#cccccc" stroke-linecap="round" stroke-linejoin="round" stroke-width=".72"/>
        </g>
        <g id="Graphic_25">
          <title>path40</title>
          <path d="M 285.0913 127.21103 C 292.83064 127.29437 299.0696 135.18613 299.0696 144.8924 C 299.0696 154.59866 292.83064 162.49042 285.0913 162.57376 C 280.0254 162.6283 275.32562 159.27024 272.78004 153.7772 C 270.23446 148.28414 270.23446 141.50065 272.78004 136.0076 C 275.32562 130.51455 280.0254 127.15649 285.0913 127.21103 Z" fill="#ff0000"/>
          <path d="M 285.0913 127.21103 C 292.83064 127.29437 299.0696 135.18613 299.0696 144.8924 C 299.0696 154.59866 292.83064 162.49042 285.0913 162.57376 C 280.0254 162.6283 275.32562 159.27024 272.78004 153.7772 C 270.23446 148.28414 270.23446 141.50065 272.78004 136.0076 C 275.32562 130.51455 280.0254 127.15649 285.0913 127.21103 Z" stroke="#cccccc" stroke-linecap="round" stroke-linejoin="round" stroke-width=".72"/>
        </g>
        <g id="Graphic_24">
          <title>path45</title>
          <path d="M 276.94357 127.21103 C 284.68292 127.29437 290.9219 135.18613 290.9219 144.8924 C 290.9219 154.59866 284.68292 162.49042 276.94357 162.57376 C 271.8777 162.6283 267.1779 159.27024 264.6323 153.7772 C 262.08674 148.28414 262.08674 141.50065 264.6323 136.0076 C 267.1779 130.51455 271.8777 127.15649 276.94357 127.21103 Z" fill="#ff0000"/>
          <path d="M 276.94357 127.21103 C 284.68292 127.29437 290.9219 135.18613 290.9219 144.8924 C 290.9219 154.59866 284.68292 162.49042 276.94357 162.57376 C 271.8777 162.6283 267.1779 159.27024 264.6323 153.7772 C 262.08674 148.28414 262.08674 141.50065 264.6323 136.0076 C 267.1779 130.51455 271.8777 127.15649 276.94357 127.21103 Z" stroke="#cccccc" stroke-linecap="round" stroke-linejoin="round" stroke-width=".72"/>
        </g>
        <g id="Graphic_23">
          <title>path50</title>
          <path d="M 268.796 127.21103 C 276.53537 127.29437 282.77434 135.18613 282.77434 144.8924 C 282.77434 154.59866 276.53537 162.49042 268.796 162.57376 C 263.73013 162.6283 259.03034 159.27024 256.48476 153.7772 C 253.93918 148.28414 253.93918 141.50065 256.48476 136.0076 C 259.03034 130.51455 263.73013 127.15649 268.796 127.21103 Z" fill="#ff0000"/>
          <path d="M 268.796 127.21103 C 276.53537 127.29437 282.77434 135.18613 282.77434 144.8924 C 282.77434 154.59866 276.53537 162.49042 268.796 162.57376 C 263.73013 162.6283 259.03034 159.27024 256.48476 153.7772 C 253.93918 148.28414 253.93918 141.50065 256.48476 136.0076 C 259.03034 130.51455 263.73013 127.15649 268.796 127.21103 Z" stroke="#cccccc" stroke-linecap="round" stroke-linejoin="round" stroke-width=".72"/>
        </g>
        <g id="Graphic_22">
          <title>path55</title>
          <path d="M 260.64842 127.21103 C 268.38777 127.29437 274.62674 135.18613 274.62674 144.8924 C 274.62674 154.59866 268.38777 162.49042 260.64842 162.57376 C 255.58254 162.6283 250.88275 159.27024 248.33717 153.7772 C 245.79159 148.28414 245.79159 141.50065 248.33717 136.0076 C 250.88275 130.51455 255.58254 127.15649 260.64842 127.21103 Z" fill="#ff0000"/>
          <path d="M 260.64842 127.21103 C 268.38777 127.29437 274.62674 135.18613 274.62674 144.8924 C 274.62674 154.59866 268.38777 162.49042 260.64842 162.57376 C 255.58254 162.6283 250.88275 159.27024 248.33717 153.7772 C 245.79159 148.28414 245.79159 141.50065 248.33717 136.0076 C 250.88275 130.51455 255.58254 127.15649 260.64842 127.21103 Z" stroke="#cccccc" stroke-linecap="round" stroke-linejoin="round" stroke-width=".72"/>
        </g>
        <g id="Graphic_21">
          <title>path60</title>
          <path d="M 252.50082 127.21103 C 260.24018 127.29437 266.47915 135.18613 266.47915 144.8924 C 266.47915 154.59866 260.24018 162.49042 252.50082 162.57376 C 247.43494 162.6283 242.73515 159.27024 240.18957 153.7772 C 237.644 148.28414 237.644 141.50065 240.18957 136.0076 C 242.73515 130.51455 247.43494 127.15649 252.50082 127.21103 Z" fill="#ff0000"/>
          <path d="M 252.50082 127.21103 C 260.24018 127.29437 266.47915 135.18613 266.47915 144.8924 C 266.47915 154.59866 260.24018 162.49042 252.50082 162.57376 C 247.43494 162.6283 242.73515 159.27024 240.18957 153.7772 C 237.644 148.28414 237.644 141.50065 240.18957 136.0076 C 242.73515 130.51455 247.43494 127.15649 252.50082 127.21103 Z" stroke="#cccccc" stroke-linecap="round" stroke-linejoin="round" stroke-width=".72"/>
        </g>
        <g id="Graphic_20">
          <title>path68</title>
          <path d="M 245.33556 127.21103 C 253.0749 127.29437 259.3139 135.18613 259.3139 144.8924 C 259.3139 154.59866 253.0749 162.49042 245.33556 162.57376 C 240.26968 162.6283 235.5699 159.27024 233.0243 153.7772 C 230.47873 148.28414 230.47873 141.50065 233.0243 136.0076 C 235.5699 130.51455 240.26968 127.15649 245.33556 127.21103 Z" fill="#ff0000"/>
          <path d="M 245.33556 127.21103 C 253.0749 127.29437 259.3139 135.18613 259.3139 144.8924 C 259.3139 154.59866 253.0749 162.49042 245.33556 162.57376 C 240.26968 162.6283 235.5699 159.27024 233.0243 153.7772 C 230.47873 148.28414 230.47873 141.50065 233.0243 136.0076 C 235.5699 130.51455 240.26968 127.15649 245.33556 127.21103 Z" stroke="#cccccc" stroke-linecap="round" stroke-linejoin="round" stroke-width=".72"/>
        </g>
        <g id="Graphic_19">
          <title>path73</title>
          <path d="M 237.18784 127.21103 C 244.9272 127.29437 251.16616 135.18613 251.16616 144.8924 C 251.16616 154.59866 244.9272 162.49042 237.18784 162.57376 C 232.12196 162.6283 227.42217 159.27024 224.87659 153.7772 C 222.331 148.28414 222.331 141.50065 224.87659 136.0076 C 227.42217 130.51455 232.12196 127.15649 237.18784 127.21103 Z" fill="#ff0000"/>
          <path d="M 237.18784 127.21103 C 244.9272 127.29437 251.16616 135.18613 251.16616 144.8924 C 251.16616 154.59866 244.9272 162.49042 237.18784 162.57376 C 232.12196 162.6283 227.42217 159.27024 224.87659 153.7772 C 222.331 148.28414 222.331 141.50065 224.87659 136.0076 C 227.42217 130.51455 232.12196 127.15649 237.18784 127.21103 Z" stroke="#cccccc" stroke-linecap="round" stroke-linejoin="round" stroke-width=".72"/>
        </g>
        <g id="Graphic_18">
          <title>path78</title>
          <path d="M 229.04028 127.21103 C 236.77964 127.29437 243.0186 135.18613 243.0186 144.8924 C 243.0186 154.59866 236.77964 162.49042 229.04028 162.57376 C 223.9744 162.6283 219.2746 159.27024 216.72903 153.7772 C 214.18345 148.28414 214.18345 141.50065 216.72903 136.0076 C 219.2746 130.51455 223.9744 127.15649 229.04028 127.21103 Z" fill="#ff0000"/>
          <path d="M 229.04028 127.21103 C 236.77964 127.29437 243.0186 135.18613 243.0186 144.8924 C 243.0186 154.59866 236.77964 162.49042 229.04028 162.57376 C 223.9744 162.6283 219.2746 159.27024 216.72903 153.7772 C 214.18345 148.28414 214.18345 141.50065 216.72903 136.0076 C 219.2746 130.51455 223.9744 127.15649 229.04028 127.21103 Z" stroke="#cccccc" stroke-linecap="round" stroke-linejoin="round" stroke-width=".72"/>
        </g>
        <g id="Graphic_17">
          <title>path83</title>
          <path d="M 220.8927 127.21103 C 228.63204 127.29437 234.87101 135.18613 234.87101 144.8924 C 234.87101 154.59866 228.63204 162.49042 220.8927 162.57376 C 215.8268 162.6283 211.12702 159.27024 208.58144 153.7772 C 206.03586 148.28414 206.03586 141.50065 208.58144 136.0076 C 211.12702 130.51455 215.8268 127.15649 220.8927 127.21103 Z" fill="#ff0000"/>
          <path d="M 220.8927 127.21103 C 228.63204 127.29437 234.87101 135.18613 234.87101 144.8924 C 234.87101 154.59866 228.63204 162.49042 220.8927 162.57376 C 215.8268 162.6283 211.12702 159.27024 208.58144 153.7772 C 206.03586 148.28414 206.03586 141.50065 208.58144 136.0076 C 211.12702 130.51455 215.8268 127.15649 220.8927 127.21103 Z" stroke="#cccccc" stroke-linecap="round" stroke-linejoin="round" stroke-width=".72"/>
        </g>
        <g id="Graphic_16">
          <title>path88</title>
          <path d="M 212.7451 127.21103 C 220.48445 127.29437 226.72342 135.18613 226.72342 144.8924 C 226.72342 154.59866 220.48445 162.49042 212.7451 162.57376 C 207.6792 162.6283 202.97942 159.27024 200.43384 153.7772 C 197.88826 148.28414 197.88826 141.50065 200.43384 136.0076 C 202.97942 130.51455 207.6792 127.15649 212.7451 127.21103 Z" fill="#ff0000"/>
          <path d="M 212.7451 127.21103 C 220.48445 127.29437 226.72342 135.18613 226.72342 144.8924 C 226.72342 154.59866 220.48445 162.49042 212.7451 162.57376 C 207.6792 162.6283 202.97942 159.27024 200.43384 153.7772 C 197.88826 148.28414 197.88826 141.50065 200.43384 136.0076 C 202.97942 130.51455 207.6792 127.15649 212.7451 127.21103 Z" stroke="#cccccc" stroke-linecap="round" stroke-linejoin="round" stroke-width=".72"/>
        </g>
        <g id="Graphic_15">
          <title>path96</title>
          <path d="M 205.58004 127.21103 C 213.3194 127.29437 219.55837 135.18613 219.55837 144.8924 C 219.55837 154.59866 213.3194 162.49042 205.58004 162.57376 C 200.51416 162.6283 195.81437 159.27024 193.2688 153.7772 C 190.7232 148.28414 190.7232 141.50065 193.2688 136.0076 C 195.81437 130.51455 200.51416 127.15649 205.58004 127.21103 Z" fill="#ff0000"/>
          <path d="M 205.58004 127.21103 C 213.3194 127.29437 219.55837 135.18613 219.55837 144.8924 C 219.55837 154.59866 213.3194 162.49042 205.58004 162.57376 C 200.51416 162.6283 195.81437 159.27024 193.2688 153.7772 C 190.7232 148.28414 190.7232 141.50065 193.2688 136.0076 C 195.81437 130.51455 200.51416 127.15649 205.58004 127.21103 Z" stroke="#cccccc" stroke-linecap="round" stroke-linejoin="round" stroke-width=".72"/>
        </g>
        <g id="Graphic_14">
          <title>path101</title>
          <path d="M 197.43232 127.21103 C 205.17167 127.29437 211.41065 135.18613 211.41065 144.8924 C 211.41065 154.59866 205.17167 162.49042 197.43232 162.57376 C 192.36644 162.6283 187.66665 159.27024 185.12107 153.7772 C 182.57549 148.28414 182.57549 141.50065 185.12107 136.0076 C 187.66665 130.51455 192.36644 127.15649 197.43232 127.21103 Z" fill="#ff0000"/>
          <path d="M 197.43232 127.21103 C 205.17167 127.29437 211.41065 135.18613 211.41065 144.8924 C 211.41065 154.59866 205.17167 162.49042 197.43232 162.57376 C 192.36644 162.6283 187.66665 159.27024 185.12107 153.7772 C 182.57549 148.28414 182.57549 141.50065 185.12107 136.0076 C 187.66665 130.51455 192.36644 127.15649 197.43232 127.21103 Z" stroke="#cccccc" stroke-linecap="round" stroke-linejoin="round" stroke-width=".72"/>
        </g>
        <g id="Graphic_13">
          <title>path106</title>
          <path d="M 189.28477 127.21103 C 197.02412 127.29437 203.2631 135.18613 203.2631 144.8924 C 203.2631 154.59866 197.02412 162.49042 189.28477 162.57376 C 184.21888 162.6283 179.5191 159.27024 176.97351 153.7772 C 174.42793 148.28414 174.42793 141.50065 176.97351 136.0076 C 179.5191 130.51455 184.21888 127.15649 189.28477 127.21103 Z" fill="#ff0000"/>
          <path d="M 189.28477 127.21103 C 197.02412 127.29437 203.2631 135.18613 203.2631 144.8924 C 203.2631 154.59866 197.02412 162.49042 189.28477 162.57376 C 184.21888 162.6283 179.5191 159.27024 176.97351 153.7772 C 174.42793 148.28414 174.42793 141.50065 176.97351 136.0076 C 179.5191 130.51455 184.21888 127.15649 189.28477 127.21103 Z" stroke="#cccccc" stroke-linecap="round" stroke-linejoin="round" stroke-width=".72"/>
        </g>
        <g id="Graphic_12">
          <title>path111</title>
          <path d="M 181.13717 127.21103 C 188.87652 127.29437 195.1155 135.18613 195.1155 144.8924 C 195.1155 154.59866 188.87652 162.49042 181.13717 162.57376 C 176.07129 162.6283 171.3715 159.27024 168.82592 153.7772 C 166.28034 148.28414 166.28034 141.50065 168.82592 136.0076 C 171.3715 130.51455 176.07129 127.15649 181.13717 127.21103 Z" fill="#ff0000"/>
          <path d="M 181.13717 127.21103 C 188.87652 127.29437 195.1155 135.18613 195.1155 144.8924 C 195.1155 154.59866 188.87652 162.49042 181.13717 162.57376 C 176.07129 162.6283 171.3715 159.27024 168.82592 153.7772 C 166.28034 148.28414 166.28034 141.50065 168.82592 136.0076 C 171.3715 130.51455 176.07129 127.15649 181.13717 127.21103 Z" stroke="#cccccc" stroke-linecap="round" stroke-linejoin="round" stroke-width=".72"/>
        </g>
        <g id="Graphic_11">
          <title>path116</title>
          <path d="M 172.98957 127.21103 C 180.72893 127.29437 186.9679 135.18613 186.9679 144.8924 C 186.9679 154.59866 180.72893 162.49042 172.98957 162.57376 C 167.9237 162.6283 163.2239 159.27024 160.67832 153.7772 C 158.13274 148.28414 158.13274 141.50065 160.67832 136.0076 C 163.2239 130.51455 167.9237 127.15649 172.98957 127.21103 Z" fill="#ff0000"/>
          <path d="M 172.98957 127.21103 C 180.72893 127.29437 186.9679 135.18613 186.9679 144.8924 C 186.9679 154.59866 180.72893 162.49042 172.98957 162.57376 C 167.9237 162.6283 163.2239 159.27024 160.67832 153.7772 C 158.13274 148.28414 158.13274 141.50065 160.67832 136.0076 C 163.2239 130.51455 167.9237 127.15649 172.98957 127.21103 Z" stroke="#cccccc" stroke-linecap="round" stroke-linejoin="round" stroke-width=".72"/>
        </g>
        <g id="Graphic_10">
          <title>path124</title>
          <path d="M 165.82431 127.21103 C 173.56367 127.29437 179.80264 135.18613 179.80264 144.8924 C 179.80264 154.59866 173.56367 162.49042 165.82431 162.57376 C 160.75843 162.6283 156.05864 159.27024 153.51306 153.7772 C 150.96748 148.28414 150.96748 141.50065 153.51306 136.0076 C 156.05864 130.51455 160.75843 127.15649 165.82431 127.21103 Z" fill="#ff0000"/>
          <path d="M 165.82431 127.21103 C 173.56367 127.29437 179.80264 135.18613 179.80264 144.8924 C 179.80264 154.59866 173.56367 162.49042 165.82431 162.57376 C 160.75843 162.6283 156.05864 159.27024 153.51306 153.7772 C 150.96748 148.28414 150.96748 141.50065 153.51306 136.0076 C 156.05864 130.51455 160.75843 127.15649 165.82431 127.21103 Z" stroke="#cccccc" stroke-linecap="round" stroke-linejoin="round" stroke-width=".72"/>
        </g>
        <g id="Graphic_9">
          <title>path129</title>
          <path d="M 157.67659 127.21103 C 165.41594 127.29437 171.65492 135.18613 171.65492 144.8924 C 171.65492 154.59866 165.41594 162.49042 157.67659 162.57376 C 152.6107 162.6283 147.91092 159.27024 145.36534 153.7772 C 142.81976 148.28414 142.81976 141.50065 145.36534 136.0076 C 147.91092 130.51455 152.6107 127.15649 157.67659 127.21103 Z" fill="#ff0000"/>
          <path d="M 157.67659 127.21103 C 165.41594 127.29437 171.65492 135.18613 171.65492 144.8924 C 171.65492 154.59866 165.41594 162.49042 157.67659 162.57376 C 152.6107 162.6283 147.91092 159.27024 145.36534 153.7772 C 142.81976 148.28414 142.81976 141.50065 145.36534 136.0076 C 147.91092 130.51455 152.6107 127.15649 157.67659 127.21103 Z" stroke="#cccccc" stroke-linecap="round" stroke-linejoin="round" stroke-width=".72"/>
        </g>
        <g id="Graphic_8">
          <title>path134</title>
          <path d="M 149.52904 127.21103 C 157.26839 127.29437 163.50736 135.18613 163.50736 144.8924 C 163.50736 154.59866 157.26839 162.49042 149.52904 162.57376 C 144.46315 162.6283 139.76336 159.27024 137.21778 153.7772 C 134.6722 148.28414 134.6722 141.50065 137.21778 136.0076 C 139.76336 130.51455 144.46315 127.15649 149.52904 127.21103 Z" fill="#ff0000"/>
          <path d="M 149.52904 127.21103 C 157.26839 127.29437 163.50736 135.18613 163.50736 144.8924 C 163.50736 154.59866 157.26839 162.49042 149.52904 162.57376 C 144.46315 162.6283 139.76336 159.27024 137.21778 153.7772 C 134.6722 148.28414 134.6722 141.50065 137.21778 136.0076 C 139.76336 130.51455 144.46315 127.15649 149.52904 127.21103 Z" stroke="#cccccc" stroke-linecap="round" stroke-linejoin="round" stroke-width=".72"/>
        </g>
        <g id="Graphic_7">
          <title>path139</title>
          <path d="M 141.38144 127.21103 C 149.1208 127.29437 155.35977 135.18613 155.35977 144.8924 C 155.35977 154.59866 149.1208 162.49042 141.38144 162.57376 C 136.31556 162.6283 131.61577 159.27024 129.07019 153.7772 C 126.5246 148.28414 126.5246 141.50065 129.07019 136.0076 C 131.61577 130.51455 136.31556 127.15649 141.38144 127.21103 Z" fill="#ff0000"/>
          <path d="M 141.38144 127.21103 C 149.1208 127.29437 155.35977 135.18613 155.35977 144.8924 C 155.35977 154.59866 149.1208 162.49042 141.38144 162.57376 C 136.31556 162.6283 131.61577 159.27024 129.07019 153.7772 C 126.5246 148.28414 126.5246 141.50065 129.07019 136.0076 C 131.61577 130.51455 136.31556 127.15649 141.38144 127.21103 Z" stroke="#cccccc" stroke-linecap="round" stroke-linejoin="round" stroke-width=".72"/>
        </g>
        <g id="Graphic_6">
          <title>path144</title>
          <path d="M 133.23384 127.21103 C 140.9732 127.29437 147.21217 135.18613 147.21217 144.8924 C 147.21217 154.59866 140.9732 162.49042 133.23384 162.57376 C 128.16796 162.6283 123.46817 159.27024 120.92259 153.7772 C 118.37701 148.28414 118.37701 141.50065 120.92259 136.0076 C 123.46817 130.51455 128.16796 127.15649 133.23384 127.21103 Z" fill="#ff0000"/>
          <path d="M 133.23384 127.21103 C 140.9732 127.29437 147.21217 135.18613 147.21217 144.8924 C 147.21217 154.59866 140.9732 162.49042 133.23384 162.57376 C 128.16796 162.6283 123.46817 159.27024 120.92259 153.7772 C 118.37701 148.28414 118.37701 141.50065 120.92259 136.0076 C 123.46817 130.51455 128.16796 127.15649 133.23384 127.21103 Z" stroke="#cccccc" stroke-linecap="round" stroke-linejoin="round" stroke-width=".72"/>
        </g>
        <g id="Graphic_5">
          <title>path149</title>
          <path d="M 127.08615 153.90173 C 127.36528 153.9417 127.64604 153.96276 127.92712 153.9648 C 128.09546 153.96461 128.26375 153.9576 128.4317 153.94378 C 132.37618 153.61779 135.43777 149.66261 135.43777 144.89286 C 135.43777 140.1231 132.37618 136.16793 128.4317 135.84194 C 128.26375 135.82812 128.09546 135.8211 127.92712 135.82091 C 127.63903 135.822 127.35122 135.84306 127.06513 135.88398 L 80.28626 135.88398 C 78.69995 138.84747 77.891465 141.93955 77.8895 145.05054 C 77.89056 148.05065 78.64169 151.03389 80.11807 153.90173 Z" fill="#ff0000"/>
          <path d="M 127.08615 153.90173 C 127.36528 153.9417 127.64604 153.96276 127.92712 153.9648 C 128.09546 153.96461 128.26375 153.9576 128.4317 153.94378 C 132.37618 153.61779 135.43777 149.66261 135.43777 144.89286 C 135.43777 140.1231 132.37618 136.16793 128.4317 135.84194 C 128.26375 135.82812 128.09546 135.8211 127.92712 135.82091 C 127.63903 135.822 127.35122 135.84306 127.06513 135.88398 L 80.28626 135.88398 C 78.69995 138.84747 77.891465 141.93955 77.8895 145.05054 C 77.89056 148.05065 78.64169 151.03389 80.11807 153.90173 Z" stroke="#cccccc" stroke-linecap="round" stroke-linejoin="round" stroke-width=".72"/>
        </g>
        <g id="Graphic_4">
          <title>path154</title>
          <path d="M 34.998434 144.89891 L 35.061507 144.96199 C 51.51312 162.85894 72.27061 176.24853 95.35894 183.85677 C 132.58759 189.66345 170.2235 192.46172 207.90153 192.2244 L 208.27997 192.2244 L 208.6584 192.2244 C 246.33643 192.46172 283.97235 189.66345 321.201 183.85677 C 344.28933 176.24853 365.04682 162.85894 381.49843 144.96199 C 365.10577 126.96675 344.3323 113.52338 321.201 105.94105 C 283.97235 100.13437 246.33643 97.33611 208.6584 97.57342 L 208.27997 97.57342 L 207.90153 97.57342 C 170.2235 97.33611 132.58759 100.13437 95.35894 105.94105 C 72.27284 113.54331 51.515563 126.92553 35.061507 144.81482 Z M 91.36434 135.87953 L 90.69157 135.87953 C 106.58177 123.14097 154.0014 114.43579 207.7902 114.38283 C 261.579 114.32987 309.2761 122.9414 325.57404 135.64826 C 325.6734 135.72525 325.77153 135.80234 325.86838 135.87953 C 329.7339 138.8429 331.70546 141.93498 331.7131 145.04608 C 331.71652 153.03017 318.80327 160.68891 295.80376 166.3436 C 265.38324 173.96926 221.04513 177.07576 179.02221 174.52578 C 136.99929 171.9758 103.46305 164.14384 90.69157 153.89727 L 90.96488 153.89727 C 87.37074 151.0294 85.54254 148.04617 85.54063 145.04608 C 85.54148 141.93525 87.50594 138.84317 91.36434 135.87953 Z" fill="#ff0000"/>
          <path d="M 34.998434 144.89891 L 35.061507 144.96199 C 51.51312 162.85894 72.27061 176.24853 95.35894 183.85677 C 132.58759 189.66345 170.2235 192.46172 207.90153 192.2244 L 208.27997 192.2244 L 208.6584 192.2244 C 246.33643 192.46172 283.97235 189.66345 321.201 183.85677 C 344.28933 176.24853 365.04682 162.85894 381.49843 144.96199 C 365.10577 126.96675 344.3323 113.52338 321.201 105.94105 C 283.97235 100.13437 246.33643 97.33611 208.6584 97.57342 L 208.27997 97.57342 L 207.90153 97.57342 C 170.2235 97.33611 132.58759 100.13437 95.35894 105.94105 C 72.27284 113.54331 51.515563 126.92553 35.061507 144.81482 Z M 91.36434 135.87953 L 90.69157 135.87953 C 106.58177 123.14097 154.0014 114.43579 207.7902 114.38283 C 261.579 114.32987 309.2761 122.9414 325.57404 135.64826 C 325.6734 135.72525 325.77153 135.80234 325.86838 135.87953 C 329.7339 138.8429 331.70546 141.93498 331.7131 145.04608 C 331.71652 153.03017 318.80327 160.68891 295.80376 166.3436 C 265.38324 173.96926 221.04513 177.07576 179.02221 174.52578 C 136.99929 171.9758 103.46305 164.14384 90.69157 153.89727 L 90.96488 153.89727 C 87.37074 151.0294 85.54254 148.04617 85.54063 145.04608 C 85.54148 141.93525 87.50594 138.84317 91.36434 135.87953 Z" stroke="#cccccc" stroke-linecap="round" stroke-linejoin="round" stroke-width="2"/>
        </g>
      </g>
    </g>
  </g>
</svg>
