<?xml version="1.0" encoding="UTF-8" standalone="no"?>
<!-- Creator: CorelDRAW Home & Student X7 -->

<svg
   xml:space="preserve"
   width="4694.6"
   height="5975.5"
   version="1.1"
   style="clip-rule:evenodd;fill-rule:evenodd;image-rendering:optimizeQuality;shape-rendering:geometricPrecision;text-rendering:geometricPrecision"
   viewBox="0 0 4694.6 5975.5"
   enable-background="new 0 0 100 100"
   id="svg11"
   xmlns="http://www.w3.org/2000/svg"
   xmlns:svg="http://www.w3.org/2000/svg"
   xmlns:rdf="http://www.w3.org/1999/02/22-rdf-syntax-ns#"
   xmlns:cc="http://creativecommons.org/ns#"
   xmlns:dc="http://purl.org/dc/elements/1.1/">
 <defs
   id="defs4"><style
     type="text/css"
     id="style2">
   <![CDATA[
    .fil0 {fill:black}
   ]]>
  </style></defs>
 <g
   id="Layer_x0020_1"
   transform="translate(-15.6,-21.375)">
  <metadata
   id="CorelCorpID_0Corel-Layer" />
  <path
   d="m 3061.6,21.777 c -254.9,-7.159 -496.8,82.843 -739.8,142.783 -280.2,-23.32 -530.4,183.08 -647.9,423.42 17.5,247.49 -275.2,420.22 -181.7,654.22 154.9,253.6 524.8,194.5 710.4,8.3 203.4,-151.1 450,-298.83 536,-520.29 493.1,-166.93 1048.7,148.74 1213.3,629.89 204.1,503.6 51,1104.6 -342.5,1472.4 -323.6,324.1 -739.2,539.3 -1164.5,698.4 220,-299.5 563.5,-493.1 726.1,-838.1 184.3,-346.1 256.8,-768.4 152.7,-1148.5 -112.2,-62.7 -256.4,-18.6 -383,-31.8 -936.3,0 -1872.5,0 -2808.8,0 -147.636,-68 -115.259,757.7 -108.856,317.8 -29.3822,546.6 239.366,1085.8 670.676,1417.2 251.02,228.1 432.48,524.5 554.98,838.9 -237.2,168.3 -374.82,531.3 -162.7,772.8 143.9,200.3 503.7,202.1 395.4,523.5 -30.8,105.1 -279.5,24.4 -360.7,154.8 -112.4,92.3 -272.1,343.1 -119.9,456.9 457,4.9 914.5,0.7 1371.7,2.1 184.7,-78.7 -191.3,-536.7 -86.9,-447.2 95.5,5.1 -991.8,-432.4 -372.3,-148.5 -15.8,-228.2 609,97.9 469,75.9 264.2,75.3 439,356.5 668.3,432 99.8,-205.2 -130.7,-443.8 -260.6,-603 -231.5,-235.5 -528.6,-390.8 -827.8,-522.8 84.3,-214.1 16,-638 297,-674.9 782.1,-186.1 1584.7,-517.1 2091.5,-1169.2 458,-593.2 459.1,-1453.6 112.9,-2099.15 C 4191,335.74 3632.6,14.478 3061.6,21.777 Z"
   id="path1108"
   style="fill:#ffff00" /><g
   id="outline">
   <path
   id="path7"
   style="fill:#808080"
   class="fil0"
   d="m 3061.6,21.777 c -254.9,-7.159 -496.8,82.843 -739.8,142.783 -280.2,-23.32 -530.4,183.08 -647.9,423.42 17.5,247.49 -275.2,420.22 -181.7,654.22 154.9,253.6 524.8,194.5 710.4,8.3 203.4,-151.1 450,-298.83 536,-520.29 493.1,-166.93 1048.7,148.74 1213.3,629.89 204.1,503.6 51,1104.6 -342.5,1472.4 -323.6,324.1 -739.2,539.3 -1164.5,698.4 220,-299.5 563.5,-493.1 726.1,-838.1 184.3,-346.1 256.8,-768.4 152.7,-1148.5 -112.2,-62.7 -256.4,-18.6 -383,-31.8 -936.3,0 -1872.5,0 -2808.8,0 -147.636,-68 -115.259,757.7 -108.856,317.8 -29.3822,546.6 239.366,1085.8 670.676,1417.2 251.02,228.1 432.48,524.5 554.98,838.9 -237.2,168.3 -374.82,531.3 -162.7,772.8 143.9,200.3 503.7,202.1 395.4,523.5 -30.8,105.1 -279.5,24.4 -360.7,154.8 -112.4,92.3 -272.1,343.1 -119.9,456.9 457,4.9 914.5,0.7 1371.7,2.1 184.7,-78.7 -191.3,-536.7 -86.9,-447.2 95.5,5.1 -991.8,-432.4 -372.3,-148.5 -15.8,-228.2 609,97.9 469,75.9 264.2,75.3 439,356.5 668.3,432 99.8,-205.2 -130.7,-443.8 -260.6,-603 -231.5,-235.5 -528.6,-390.8 -827.8,-522.8 84.3,-214.1 16,-638 297,-674.9 782.1,-186.1 1584.7,-517.1 2091.5,-1169.2 458,-593.2 459.1,-1453.6 112.9,-2099.15 C 4191,335.74 3632.6,14.478 3061.6,21.777 Z m 8.6,160.863 c 631.9,-12.73 1216.4,445.58 1385.1,1048.96 188.4,585.8 95.9,1278.1 -336.6,1736 -497.3,544.6 -1213.7,825.2 -1917.7,988.1 30.1,-217.4 218.2,-250.2 391,-306 639,-248.9 1299.5,-654.8 1537.9,-1333.6 211.2,-619.2 -30.7,-1419.12 -655.4,-1694.27 -247,-112.84 -534.1,-124.28 -792.4,-44.59 -68.1,-202.39 -239.4,8.5 -145.9,135.59 -21.3,200.2 -262.1,236.58 -380.7,368.47 -111.1,170.1 -529.2,245 -523.1,34.1 147.2,-144.64 145.5,-359.91 227.9,-533.79 133,-239.43 394.8,-247.86 629.8,-287.44 185.2,-70.55 381.3,-113.22 580.1,-111.53 z M 219,1674.5 c 991,0 1981.9,0 2972.9,0 48.9,175.1 38.9,334.8 -168.8,277 -946.5,0 -1893.1,0 -2839.6,0 8.37,-84.9 -21.05,-231.4 35.5,-277 z m 4,439 c 990.4,0 1980.9,0 2971.3,0 C 3102.1,2877.8 2354.9,3483 1587.7,3409.7 895.36,3372.9 284.8,2800 197.74,2113.5 h 15.19 z m 936.9,1373.1 c 364.9,126.3 772.2,115.9 1132.9,-20 -259.3,370.2 -409.6,806.8 -484.4,1250 -269.7,-33.1 -286.6,-274.1 -338.9,-490 -84.3,-269.9 -207.1,-528.3 -369.5,-760.1 l 29.9,10 z m 157.6,796.9 c 49.1,253.6 108.1,527.6 411,573.8 315.8,134.5 637.3,277.2 893.1,512 3,89 -284.2,-114 -424.3,-146.2 C 1872.4,5084 1497.7,5021.4 1229.1,4778.3 1053.6,4651 1182.3,4264 1317.5,4283.5 Z m 351,917.4 c 131.7,-10.6 -112.1,192.9 7.1,231.6 -53.1,30.4 -50.3,-284.4 -7.1,-231.6 z m -247.6,393.6 c 220.6,9.2 445.7,-21 662.6,20.4 131.2,33.2 297.5,281.9 62.7,219.6 -346,0 -692.1,0 -1038.1,0 38.1,-138 168.1,-242.3 312.8,-240 z" />
  </g>
 </g>
<metadata
   id="metadata830"><rdf:RDF><cc:Work
       rdf:about=""><dc:creator><cc:Agent><dc:title>Sergey Demushkin</dc:title></cc:Agent></dc:creator></cc:Work></rdf:RDF></metadata></svg>
