<?xml version="1.0" encoding="UTF-8" standalone="no"?>
<svg
   xmlns:dc="http://purl.org/dc/elements/1.1/"
   xmlns:cc="http://creativecommons.org/ns#"
   xmlns:rdf="http://www.w3.org/1999/02/22-rdf-syntax-ns#"
   xmlns:svg="http://www.w3.org/2000/svg"
   xmlns="http://www.w3.org/2000/svg"
   height="597.74683"
   width="549.75848"
   version="1.1"
   id="svg1537">
  <metadata
     id="metadata1543">
    <rdf:RDF>
      <cc:Work
         rdf:about="">
        <dc:format>image/svg+xml</dc:format>
        <dc:type
           rdf:resource="http://purl.org/dc/dcmitype/StillImage" />
        <dc:title></dc:title>
        <dc:creator>
          <cc:Agent>
            <dc:title>https://commons.wikimedia.org/wiki/User:Odejea</dc:title>
          </cc:Agent>
        </dc:creator>
      </cc:Work>
    </rdf:RDF>
  </metadata>

  <g
     stroke-linejoin="round"
     stroke-width="2.25838"
     transform="matrix(1.1070143,0,0,1.1069624,-51.467695,-39.22305)"
     id="g1531">
    <g
       stroke-linecap="round"
       id="g1507">
      <g
         stroke-width="2.25838"
         transform="translate(-544.13,346.74025)"
         id="g1235"
         style="fill:#ffff00;stroke:#808080">
        <path
           id="path1231"
           d="m 127.16992,405.08398 a 38.909278,40.348467 0 0 0 -38.595701,40.34766 38.909278,40.348467 0 1 0 77.818361,0 38.909278,40.348467 0 0 0 -39.22266,-40.34766 z m 0.58789,18.21485 a 22.684428,22.524348 0 0 1 22.60742,22.52539 22.684428,22.524348 0 1 1 -45.36718,0 22.684428,22.524348 0 0 1 22.75976,-22.52539 z"
           transform="matrix(0.9033307,0,0,0.90337305,567.93004,-331.38353)"
           style="fill:#ffff00;stroke:#808080" />
      </g>
      <g
         stroke-width="2.25838"
         transform="translate(-222.94016,347.19842)"
         id="g1241"
         style="fill:#ffff00;stroke:#808080">
        <path
           id="path1237"
           d="m 483.25195,405.58984 a 38.909278,40.348467 0 0 0 -39.11523,40.34766 38.909278,40.348467 0 0 0 77.81836,0 38.909278,40.348467 0 0 0 -38.70313,-40.34766 z m 0.0664,18.2168 a 22.684428,22.524348 0 0 1 22.60937,22.52539 22.68457,22.524489 0 1 1 -45.36914,0 22.684428,22.524348 0 0 1 22.75977,-22.52539 z"
           transform="matrix(0.9033307,0,0,0.90337305,246.7402,-331.8417)"
           style="fill:#ffff00;stroke:#808080" />
      </g>
      <g
         stroke-width="2.25838"
         transform="translate(-387.80667,466.86203)"
         id="g1247"
         style="fill:#ffff00;stroke:#808080">
        <path
           id="path1243"
           d="m 300.74219,538.05273 a 38.909278,40.348467 0 0 0 -39.11524,40.34961 38.909278,40.348467 0 1 0 77.81836,0 38.909278,40.348467 0 0 0 -38.70312,-40.34961 z m 0.0664,18.2168 a 22.684428,22.524348 0 0 1 22.60938,22.52539 22.68457,22.524489 0 1 1 -45.36914,0 22.684428,22.524348 0 0 1 22.75976,-22.52539 z"
           transform="matrix(0.9033307,0,0,0.90337305,411.60671,-451.50531)"
           style="fill:#ffff00;stroke:#808080" />
      </g>
      <g
         stroke-width="2.25838"
         transform="matrix(1,0,0,-1,165.67001,962.76965)"
         id="g1267"
         style="fill:#ffff00;stroke:#808080">
        <path
           id="path1257"
           d="m 419.4082,481.58203 a 23.209768,47.917733 55.620045 0 0 -64.29492,60.375 23.209849,47.917901 55.620045 1 0 78.86914,-54.43945 23.209768,47.917733 55.620045 0 0 -14.57422,-5.93555 z m -6.30468,15.72266 a 8.7893824,27.346415 55.001551 0 1 4.12695,1.57617 8.7895663,27.346987 55.001551 1 1 -44.80274,31.37109 8.7893824,27.346415 55.001551 0 1 40.67579,-32.94726 z"
           transform="matrix(0.9033307,0,0,-0.90337305,-141.86997,947.41293)"
           style="fill:#ffff00;stroke:#808080" />
        <g
           fill-rule="evenodd"
           stroke-width="2.25838"
           id="g1265"
           style="fill:#ffff00;stroke:#808080">
          <path
             d="m 156.24037,430.75194 c 42.64321,29.34077 40.6716,27.94357 40.6716,27.94357 1.24171,2.48743 3.09766,7.45252 0.61878,10.40128 -2.93056,4.39127 -7.36349,1.44067 -9.23915,1.36416 l -40.4469,-28.14073 c -2.10904,-1.32538 -4.68784,-5.79207 -1.54096,-10.40537 2.13844,-2.2501 6.79114,-3.36625 9.93663,-1.16291 z"
             id="path1261"
             style="fill:#ffff00;stroke:#808080" />
          <path
             d="m 239.41044,491.99946 c 42.56301,30.89094 40.59513,29.41993 40.59513,29.41993 1.23937,2.61885 3.09183,7.84626 0.61761,10.95081 -2.92504,4.62328 -7.34964,1.51678 -9.22177,1.43624 l -40.37086,-29.62751 c -2.10505,-1.39541 -4.67902,-6.0981 -1.53805,-10.95512 2.13443,-2.36898 6.77837,-3.54412 9.91794,-1.22435 z"
             id="path1263"
             style="fill:#ffff00;stroke:#808080" />
        </g>
      </g>
      <g
         stroke-width="2.25838"
         transform="translate(-0.042809,180.23416)"
         id="g1315"
         style="fill:#ffff00;stroke:#808080">
        <g
           transform="translate(-1.233666,0.616822)"
           id="g1285"
           style="fill:#ffff00;stroke:#808080">
          <path
             d="m -421.77533,589.7041 a 35.147945,36.449718 0 1 1 -70.29589,0 35.147945,36.449718 0 1 1 70.29589,0 z"
             stroke-width="2.25838"
             transform="translate(752.33936,-518.08019)"
             id="path1281"
             style="fill:#ffff00;stroke:#808080" />
          <path
             d="m -434.79307,590.35498 a 21.4793,21.4793 0 1 1 -42.9586,0 21.4793,21.4793 0 1 1 42.9586,0 z"
             stroke-width="2.06292"
             transform="matrix(1.0703021,0,0,1.1197499,783.94422,-589.42602)"
             id="path1283"
             style="fill:#ffff00;stroke:#808080" />
        </g>
        <g
           transform="translate(-1.850472,0.61682)"
           id="g1297"
           style="fill:#ffff00;stroke:#808080">
          <path
             id="path1293"
             d="m 182.07422,243.49023 a 43.398737,18.985989 0 0 0 -43.32031,18.99024 43.39941,18.986283 0 1 0 86.79882,0 43.398737,18.985989 0 0 0 -43.47851,-18.99024 z m -0.24219,9.54883 a 30.578633,9.4386186 0 0 1 31.05664,9.44141 30.5791,9.4387627 0 1 1 -61.1582,0 30.578633,9.4386186 0 0 1 30.10156,-9.44141 z"
             transform="matrix(0.9033307,0,0,0.90337305,25.693324,-165.49426)"
             style="fill:#ffff00;stroke:#808080" />
        </g>
        <g
           fill-rule="evenodd"
           id="g1313"
           style="fill:#ffff00;stroke:#808080">
          <path
             d="M 99.218938,67.505022 C 158.48624,67.0526 158.63705,67.0526 158.63705,67.0526 c 2.78963,0.827309 3.88173,2.705736 3.46857,5.12745 0.10126,3.328837 -2.10503,3.427085 -3.921,4.071799 H 99.822168 c -2.84929,0.08709 -4.78362,-1.002207 -4.82583,-4.524221 0.54775,-1.937964 -0.17458,-4.209358 4.2226,-4.222606 z"
             transform="translate(6.896629,0.586123)"
             id="path1305"
             style="fill:#ffff00;stroke:#808080" />
          <path
             d="m 209.20307,67.819287 c 59.2673,-0.452422 59.41811,-0.452422 59.41811,-0.452422 2.78963,0.827309 3.88173,2.705736 3.46857,5.12745 0.10126,3.328837 -2.10503,3.427085 -3.921,4.071799 H 209.8063 c -2.84929,0.08709 -4.78362,-1.002207 -4.82583,-4.524221 0.54775,-1.937964 -0.17458,-4.209358 4.2226,-4.222606 z"
             transform="translate(2.707512,0.271858)"
             id="path1307"
             style="fill:#ffff00;stroke:#808080" />
          <path
             d="m 317.70559,68.091142 c 59.2673,-0.45242 59.41811,-0.45242 59.41811,-0.45242 2.78963,0.82731 3.88173,2.70574 3.46857,5.12745 0.10126,3.32884 -2.10503,3.42708 -3.921,4.0718 h -58.36245 c -2.84929,0.08709 -4.78362,-1.00221 -4.82583,-4.52422 0.54775,-1.93797 -0.17458,-4.20936 4.2226,-4.22261 z"
             id="path1309"
             style="fill:#ffff00;stroke:#808080" />
          <path
             d="m 423.50061,68.091145 c 59.26731,-0.452422 59.41812,-0.452422 59.41812,-0.452422 2.78963,0.827309 3.88173,2.705736 3.46857,5.12745 0.10126,3.328837 -2.10503,3.427085 -3.921,4.071799 h -58.36246 c -2.84929,0.08709 -4.78362,-1.002207 -4.82583,-4.524221 0.54775,-1.937964 -0.17458,-4.209358 4.2226,-4.222606 z"
             id="path1311"
             style="fill:#ffff00;stroke:#808080" />
        </g>
      </g>
      <g
         stroke-width="2.25838"
         transform="translate(-599.64186,1.969267)"
         id="g1357"
         style="fill:#ffff00;stroke:#808080">
        <g
           transform="translate(0,-0.072763)"
           id="g1321"
           style="fill:#ffff00;stroke:#808080">
          <path
             id="path1317"
             d="m 66.238281,23.353516 a 38.909278,40.348467 0 0 0 -39.117187,40.349609 38.910158,40.34938 0 1 0 77.820316,0 38.909278,40.348467 0 0 0 -38.703129,-40.349609 z m 0.06641,18.216796 a 22.684428,22.524348 0 0 1 22.609374,22.525391 22.68457,22.524489 0 1 1 -45.36914,0 22.684428,22.524348 0 0 1 22.759766,-22.525391 z"
             transform="matrix(0.9033307,0,0,0.90337305,623.4419,13.460217)"
             style="fill:#ffff00;stroke:#808080" />
        </g>
        <g
           transform="translate(423.48999,-0.072763)"
           id="g1327"
           style="fill:#ffff00;stroke:#808080">
          <path
             id="path1323"
             d="m 535.04688,23.353516 a 38.909278,40.348467 0 0 0 -39.11524,40.349609 38.909278,40.348467 0 0 0 77.81836,0 38.909278,40.348467 0 0 0 -38.70312,-40.349609 z m 0.0664,18.216796 a 22.684428,22.524348 0 0 1 22.60938,22.525391 22.68457,22.524489 0 0 1 -45.36914,0 22.684428,22.524348 0 0 1 22.75976,-22.525391 z"
             transform="matrix(0.9033307,0,0,0.90337305,199.95191,13.460217)"
             style="fill:#ffff00;stroke:#808080" />
        </g>
        <g
           transform="translate(0.232468,-0.072765)"
           id="g1333"
           style="fill:#ffff00;stroke:#808080">
          <path
             id="path1329"
             d="m 417.55859,44.712891 a 43.398737,18.985989 0 0 0 -43.31836,18.990234 43.398737,18.985989 0 1 0 86.79688,0 43.398737,18.985989 0 0 0 -43.47852,-18.990234 z m 0.49805,12.373047 a 26.983203,7.0762013 0 0 1 26.97266,7.080078 26.983203,7.0762013 0 1 1 -53.96485,0 26.983203,7.0762013 0 0 1 26.99219,-7.080078 z"
             transform="matrix(0.9033307,0,0,0.90337305,623.20944,13.460219)"
             style="fill:#ffff00;stroke:#808080" />
        </g>
        <g
           transform="translate(211.74503,-0.072763)"
           id="g1339"
           style="fill:#ffff00;stroke:#808080">
          <path
             id="path1335"
             d="m 300.64258,23.353516 a 38.909278,40.348467 0 0 0 -39.11524,40.349609 38.909278,40.348467 0 1 0 77.81836,0 38.909278,40.348467 0 0 0 -38.70312,-40.349609 z m 0.0664,18.216796 a 22.684428,22.524348 0 0 1 22.60938,22.525391 22.68457,22.524489 0 1 1 -45.36914,0 22.684428,22.524348 0 0 1 22.75976,-22.525391 z"
             transform="matrix(0.9033307,0,0,0.90337305,411.69687,13.460217)"
             style="fill:#ffff00;stroke:#808080" />
        </g>
        <path
           d="m 918.52804,65.890793 c 59.00268,-0.549885 59.15282,-0.549885 59.15282,-0.549885 2.77718,1.005538 3.8644,3.288636 3.45308,6.232054 0.10082,4.045969 -2.09563,4.165373 -3.90349,4.948984 h -58.10187 c -2.83658,0.105852 -4.76227,-1.218115 -4.80429,-5.49887 0.54531,-2.355464 -0.1738,-5.116178 4.20375,-5.132283 z"
           fill-rule="evenodd"
           id="path1341"
           style="fill:#ffff00;stroke:#808080" />
        <g
           transform="translate(-211.51252,-0.072765)"
           id="g1347"
           style="fill:#ffff00;stroke:#808080">
          <path
             id="path1343"
             d="m 183.1543,44.712891 a 43.398737,18.985989 0 0 0 -43.32032,18.990234 43.399415,18.986286 0 1 0 86.79883,0 43.398737,18.985989 0 0 0 -43.47851,-18.990234 z m 0.49609,12.373047 a 26.983203,7.0762013 0 0 1 26.97461,7.080078 26.9834,7.076253 0 1 1 -53.9668,0 26.983203,7.0762013 0 0 1 26.99219,-7.080078 z"
             transform="matrix(0.9033307,0,0,0.90337305,834.95442,13.460219)"
             style="fill:#ffff00;stroke:#808080" />
        </g>
        <g
           fill-rule="evenodd"
           id="g1355"
           style="fill:#ffff00;stroke:#808080">
          <path
             d="m 1024.4006,65.890793 c 59.0026,-0.549885 59.1528,-0.549885 59.1528,-0.549885 2.7772,1.005538 3.8644,3.288636 3.4531,6.232054 0.1008,4.045969 -2.0957,4.165373 -3.9035,4.948984 h -58.1019 c -2.8366,0.105852 -4.7623,-1.218115 -4.8043,-5.49887 0.5453,-2.355464 -0.1738,-5.116178 4.2038,-5.132283 z"
             id="path1349"
             style="fill:#ffff00;stroke:#808080" />
          <path
             d="m 812.65549,65.890793 c 59.00268,-0.549885 59.15282,-0.549885 59.15282,-0.549885 2.77718,1.005538 3.8644,3.288636 3.45308,6.232054 0.10082,4.045969 -2.09563,4.165373 -3.90349,4.948984 h -58.10187 c -2.83658,0.105852 -4.76227,-1.218115 -4.80429,-5.49887 0.54531,-2.355464 -0.1738,-5.116178 4.20375,-5.132283 z"
             id="path1351"
             style="fill:#ffff00;stroke:#808080" />
          <path
             d="m 706.78302,65.890793 c 59.00268,-0.549885 59.15282,-0.549885 59.15282,-0.549885 2.77718,1.005538 3.8644,3.288636 3.45308,6.232054 0.10082,4.045969 -2.09563,4.165373 -3.90349,4.948984 h -58.10187 c -2.83658,0.105852 -4.76227,-1.218115 -4.80429,-5.49887 0.54531,-2.355464 -0.1738,-5.116178 4.20375,-5.132283 z"
             id="path1353"
             style="fill:#ffff00;stroke:#808080" />
        </g>
      </g>
      <g
         stroke-width="2.25838"
         transform="translate(-600.42948,181.42737)"
         id="g1399"
         style="fill:#ffff00;stroke:#808080">
        <g
           transform="translate(0,-0.072763)"
           id="g1363"
           style="fill:#ffff00;stroke:#808080">
          <path
             id="path1359"
             d="M 64.845703,222.00781 A 38.909278,40.348467 0 0 0 26.25,262.35547 a 38.909278,40.348467 0 1 0 77.81836,0 38.909278,40.348467 0 0 0 -39.222657,-40.34766 z m 0.585938,18.2168 a 22.684428,22.524348 0 0 1 22.609375,22.52344 22.684428,22.524348 0 1 1 -45.367188,0 22.684428,22.524348 0 0 1 22.757813,-22.52344 z"
             transform="matrix(0.9033307,0,0,0.90337305,624.22952,-165.99789)"
             style="fill:#ffff00;stroke:#808080" />
        </g>
        <g
           transform="translate(423.48999,-0.072763)"
           id="g1369"
           style="fill:#ffff00;stroke:#808080">
          <path
             id="path1365"
             d="m 533.65625,222.00781 a 38.909278,40.348467 0 0 0 -38.59766,40.34766 38.91016,40.349382 0 0 0 77.82032,0 38.909278,40.348467 0 0 0 -39.22266,-40.34766 z m 0.58594,18.2168 a 22.684428,22.524348 0 0 1 22.60937,22.52344 22.68457,22.524489 0 0 1 -45.36914,0 22.684428,22.524348 0 0 1 22.75977,-22.52344 z"
             transform="matrix(0.9033307,0,0,0.90337305,200.73953,-165.99789)"
             style="fill:#ffff00;stroke:#808080" />
        </g>
        <g
           transform="translate(0.232468,-0.072765)"
           id="g1375"
           style="fill:#ffff00;stroke:#808080">
          <path
             id="path1371"
             d="m 416.6875,243.36523 a 43.398737,18.985989 0 0 0 -43.32031,18.99024 43.399415,18.986286 0 1 0 86.79883,0 43.398737,18.985989 0 0 0 -43.47852,-18.99024 z m 0.49609,12.375 a 26.983203,7.0762013 0 0 1 26.97461,7.07813 26.983395,7.0762517 0 1 1 -53.96679,0 26.983203,7.0762013 0 0 1 26.99218,-7.07813 z"
             transform="matrix(0.9033307,0,0,0.90337305,623.99706,-165.99788)"
             style="fill:#ffff00;stroke:#808080" />
        </g>
        <g
           transform="translate(211.74503,-0.072763)"
           id="g1381"
           style="fill:#ffff00;stroke:#808080">
          <path
             d="m -421.77533,589.7041 a 35.147945,36.449718 0 1 1 -70.29589,0 35.147945,36.449718 0 1 1 70.29589,0 z"
             stroke-width="2.25838"
             transform="translate(1140.0132,-518.69701)"
             id="path1377"
             style="fill:#ffff00;stroke:#808080" />
          <path
             d="m -434.79307,590.35498 a 21.4793,21.4793 0 1 1 -42.9586,0 21.4793,21.4793 0 1 1 42.9586,0 z"
             stroke-width="2.37558"
             transform="matrix(0.9540134,0,0,0.9473255,1118.5588,-487.89657)"
             id="path1379"
             style="fill:#ffff00;stroke:#808080" />
        </g>
        <path
           d="m 918.52804,65.890793 c 59.00268,-0.549885 59.15282,-0.549885 59.15282,-0.549885 2.77718,1.005538 3.8644,3.288636 3.45308,6.232054 0.10082,4.045969 -2.09563,4.165373 -3.90349,4.948984 h -58.10187 c -2.83658,0.105852 -4.76227,-1.218115 -4.80429,-5.49887 0.54531,-2.355464 -0.1738,-5.116178 4.20375,-5.132283 z"
           fill-rule="evenodd"
           id="path1383"
           style="fill:#ffff00;stroke:#808080" />
        <g
           transform="translate(-211.51252,-0.072765)"
           id="g1389"
           style="fill:#ffff00;stroke:#808080" />
        <g
           fill-rule="evenodd"
           id="g1397"
           style="fill:#ffff00;stroke:#808080">
          <path
             d="m 1024.4006,65.890793 c 59.0026,-0.549885 59.1528,-0.549885 59.1528,-0.549885 2.7772,1.005538 3.8644,3.288636 3.4531,6.232054 0.1008,4.045969 -2.0957,4.165373 -3.9035,4.948984 h -58.1019 c -2.8366,0.105852 -4.7623,-1.218115 -4.8043,-5.49887 0.5453,-2.355464 -0.1738,-5.116178 4.2038,-5.132283 z"
             id="path1391"
             style="fill:#ffff00;stroke:#808080" />
          <path
             d="m 812.65549,65.890793 c 59.00268,-0.549885 59.15282,-0.549885 59.15282,-0.549885 2.77718,1.005538 3.8644,3.288636 3.45308,6.232054 0.10082,4.045969 -2.09563,4.165373 -3.90349,4.948984 h -58.10187 c -2.83658,0.105852 -4.76227,-1.218115 -4.80429,-5.49887 0.54531,-2.355464 -0.1738,-5.116178 4.20375,-5.132283 z"
             id="path1393"
             style="fill:#ffff00;stroke:#808080" />
          <path
             d="m 706.78302,65.890793 c 59.00268,-0.549885 59.15282,-0.549885 59.15282,-0.549885 2.77718,1.005538 3.8644,3.288636 3.45308,6.232054 0.10082,4.045969 -2.09563,4.165373 -3.90349,4.948984 h -58.10187 c -2.83658,0.105852 -4.76227,-1.218115 -4.80429,-5.49887 0.54531,-2.355464 -0.1738,-5.116178 4.20375,-5.132283 z"
             id="path1395"
             style="fill:#ffff00;stroke:#808080" />
        </g>
      </g>
      <g
         stroke-width="2.25838"
         transform="translate(-390.10814,10.048782)"
         id="g1413"
         style="fill:#ffff00;stroke:#808080">
        <path
           id="path1575"
           d="m 689.03899,348.16541 a 19.046397,39.124704 0 0 0 0.0176,78.2494 19.046395,39.1247 0 1 0 0,-78.2494 19.046209,39.124318 0 0 0 -0.0176,0 z m 0.0176,13.88231 a 7.9400106,24.703368 0 1 1 0,49.40673 7.9400106,24.703368 0 1 1 0,-49.40673 z"
           style="fill:#ffff00;stroke:#808080;stroke-width:2.04011" />
        <path
           id="path1403"
           d="m 301.79492,122.03711 a 21.084633,43.309575 0 0 0 0.0195,86.61914 21.084631,43.30957 0 1 0 0,-86.61914 21.084426,43.309149 0 0 0 -0.0195,0 z m 0.0195,15.36719 a 8.7897053,27.3457 0 1 1 0,54.6914 8.7897053,27.3457 0 1 1 0,-54.6914 z"
           transform="matrix(0.9033307,0,0,0.90337305,413.90818,5.3079392)"
           style="fill:#ffff00;stroke:#808080" />
        <g
           fill-rule="evenodd"
           stroke-width="2.25838"
           id="g1411"
           style="fill:#ffff00;stroke:#808080">
          <path
             d="m 692.26268,88.045114 c 0.60363,43.743446 0.60363,41.701436 0.60363,41.701436 -1.10382,2.05895 -3.61009,5.73609 -6.84122,5.43115 -4.44147,0.0747 -4.57254,-4.42474 -5.43275,-5.76506 l -0.35889,-41.640073 c -0.1162,-2.102985 1.69607,-6.04285 6.39527,-6.074003 2.58571,0.404278 5.61628,3.101114 5.63396,6.34655 z"
             id="path1407"
             style="fill:#ffff00;stroke:#808080" />
          <path
             d="m 692.26268,177.65938 c 0.60363,43.74345 0.60363,41.70144 0.60363,41.70144 -1.10382,2.05895 -3.61009,5.73609 -6.84122,5.43115 -4.44147,0.0747 -4.57254,-4.42474 -5.43275,-5.76506 l -0.35889,-41.64008 c -0.1162,-2.10298 1.69607,-6.04285 6.39527,-6.074 2.58571,0.40428 5.61628,3.10111 5.63396,6.34655 z"
             id="path1409"
             style="fill:#ffff00;stroke:#808080" />
        </g>
      </g>
      <path
         d="m 305.62919,283.74701 c 0.64651,81.99661 0.64651,78.16888 0.64651,78.16888 -1.18223,3.85949 -3.86654,10.75223 -7.32721,10.18061 -4.75698,0.14009 -4.89737,-8.2941 -5.81868,-10.80651 l -0.3844,-78.05384 c -0.12445,-3.94203 1.81657,-11.32726 6.84959,-11.38566 2.7694,0.75782 6.01526,5.81301 6.03419,11.89652 z"
         fill-rule="evenodd"
         stroke-width="2.25838"
         id="path1401"
         style="fill:#ffff00;stroke:#808080" />
      <path
         d="m 304.277,435.40421 c 0.65056,78.65493 0.65056,74.9832 0.65056,74.9832 -1.18963,3.70219 -3.89071,10.31405 -7.373,9.76574 -4.78672,0.13436 -4.92797,-7.95612 -5.85505,-10.36614 l -0.3868,-74.87288 c -0.12522,-3.78135 1.82792,-10.86562 6.8924,-10.92163 2.7867,0.72694 6.05284,5.5761 6.07189,11.41171 z"
         fill-rule="evenodd"
         stroke-width="2.25838"
         id="path1273"
         style="fill:#ffff00;stroke:#808080" />
      <g
         stroke-width="2.25838"
         transform="translate(-177.28926,9.689897)"
         id="g1425"
         style="fill:#ffff00;stroke:#808080">
        <path
           id="path1415"
           d="m 537.38867,121.64062 a 21.084426,43.309149 0 0 0 0.0195,86.61719 21.084426,43.309149 0 1 0 0,-86.61719 21.084426,43.309149 0 0 0 -0.0195,0 z m -0.0469,15.36719 a 8.7896593,27.345557 0 0 1 0.0664,0 8.7897069,27.345705 0 1 1 0,54.69141 8.7897696,27.3459 0 0 1 -0.0664,-54.69141 z"
           transform="matrix(0.9033307,0,0,0.90337305,201.0893,5.6668242)"
           style="fill:#ffff00;stroke:#808080" />
        <g
           fill-rule="evenodd"
           stroke-width="2.25838"
           id="g1423"
           style="fill:#ffff00;stroke:#808080">
          <path
             d="m 692.26268,88.045114 c 0.60363,43.743446 0.60363,41.701436 0.60363,41.701436 -1.10382,2.05895 -3.61009,5.73609 -6.84122,5.43115 -4.44147,0.0747 -4.57254,-4.42474 -5.43275,-5.76506 l -0.35889,-41.640073 c -0.1162,-2.102985 1.69607,-6.04285 6.39527,-6.074003 2.58571,0.404278 5.61628,3.101114 5.63396,6.34655 z"
             id="path1419"
             style="fill:#ffff00;stroke:#808080" />
          <path
             d="m 692.26268,177.65938 c 0.60363,43.74345 0.60363,41.70144 0.60363,41.70144 -1.10382,2.05895 -3.61009,5.73609 -6.84122,5.43115 -4.44147,0.0747 -4.57254,-4.42474 -5.43275,-5.76506 l -0.35889,-41.64008 c -0.1162,-2.10298 1.69607,-6.04285 6.39527,-6.074 2.58571,0.40428 5.61628,3.10111 5.63396,6.34655 z"
             id="path1421"
             style="fill:#ffff00;stroke:#808080" />
        </g>
      </g>
      <g
         stroke-width="2.25838"
         transform="matrix(-1,0,0,1,599.43469,-4.442501)"
         id="g1437"
         style="fill:#ffff00;stroke:#808080">
        <path
           id="path1571"
           d="m 359.83014,313.34149 a 43.286208,20.966765 39.381975 0 1 55.51073,59.49382 43.286862,20.967082 39.381975 1 1 -66.68769,-55.2028 43.286208,20.966765 39.381975 0 1 11.17696,-4.29102 z m 6.64265,15.06269 a 24.703237,7.9399692 40 0 0 -3.15989,1.12745 24.703325,7.9399974 40 1 0 37.84814,31.75744 24.703237,7.9399692 40 0 0 -34.68825,-32.88489 z"
           style="fill:#ffff00;stroke:#808080;stroke-width:2.04011" />
        <path
           id="path1427"
           d="m 456.98828,112.42969 a 23.209859,47.917547 50.62015 0 0 -61.45117,65.85742 23.210208,47.918267 50.62015 1 0 73.82422,-61.10742 23.209859,47.917547 50.62015 0 0 -12.37305,-4.75 z m -7.35351,16.67383 a 8.7894176,27.346307 50.001627 0 1 3.49804,1.24804 8.7894488,27.346404 50.001627 1 1 -41.89843,35.1543 8.7894176,27.346307 50.001627 0 1 38.40039,-36.40234 z"
           transform="matrix(-0.9033307,0,0,0.90337305,575.63465,19.799222)"
           style="fill:#ffff00;stroke:#808080" />
        <g
           fill-rule="evenodd"
           stroke-width="2.25838"
           id="g1435"
           style="fill:#ffff00;stroke:#808080">
          <path
             d="m 208.9332,164.00076 c 39.70872,34.483 72.01507,61.45743 72.01507,61.45743 0,0 7.27316,11.01203 4.53778,13.88912 -3.31686,4.35076 -13.53854,-1.64885 -13.53854,-1.64885 l -73.39922,-62.94518 c -1.97542,-1.57357 -5.10511,-5.83245 -1.55277,-10.39724 2.33278,-2.17393 9.01224,-2.93985 11.93768,-0.35528 z"
             id="path1431"
             style="fill:#ffff00;stroke:#808080" />
          <path
             d="m 109.07589,84.36139 c 58.07095,42.06206 59.29275,43.96719 59.29275,43.96719 1.48391,3.3018 6.79506,9.49803 2.82931,12.97259 -4.80311,5.25893 -14.10371,-1.26296 -16.81188,-1.56898 L 98.370079,96.189514 c -2.888004,-1.92036 -7.684112,-8.213394 -2.539406,-13.730653 2.083369,-0.673065 0.340128,-3.139798 13.245217,1.902529 z"
             id="path1433"
             style="fill:#ffff00;stroke:#808080" />
        </g>
        <path
           id="path1573"
           d="m 243.3409,313.34149 a 20.966765,43.286208 50.618025 0 0 -55.51073,59.49382 20.967082,43.286862 50.618025 1 0 66.68769,-55.2028 20.966765,43.286208 50.618025 0 0 -11.17696,-4.29102 z m -6.64265,15.06269 a 7.9399692,24.703237 50 0 1 3.15989,1.12745 7.9399974,24.703325 50 1 1 -37.84814,31.75744 7.9399692,24.703237 50 0 1 34.68825,-32.88489 z"
           style="fill:#ffff00;stroke:#808080;stroke-width:2.04011" />
      </g>
      <path
         d="m 201.69157,369.11535 c -41.56617,42.67714 -39.59865,40.71203 -39.59865,40.71203 -3.04739,0.91916 -9.00526,2.04594 -11.82469,-1.35698 -4.35147,-4.2023 -0.14241,-8.65847 0.32017,-10.77614 l 39.77535,-40.41745 c 1.91431,-2.13561 7.45663,-4.18309 12.01442,0.30917 2.10185,2.87741 2.42342,8.38913 -0.6866,11.52937 z"
         fill-rule="evenodd"
         stroke-width="2.25838"
         id="path1255"
         style="fill:#ffff00;stroke:#808080" />
      <g
         stroke-width="2.25838"
         transform="translate(-600.81862,7.581494)"
         id="g1449"
         style="fill:#ffff00;stroke:#808080">
        <path
           id="path1439"
           d="m 68.535156,119.30664 a 21.084426,43.309149 0 0 0 0.02148,86.61719 21.084426,43.309149 0 1 0 0,-86.61719 21.084426,43.309149 0 0 0 -0.02148,0 z m -0.04687,15.36719 a 8.7896593,27.345557 0 0 1 0.06836,0 8.7897053,27.3457 0 1 1 0,54.6914 8.7897717,27.345907 0 0 1 -0.06836,-54.6914 z"
           transform="matrix(0.9033307,0,0,0.90337305,624.61866,7.7752272)"
           style="fill:#ffff00;stroke:#808080" />
        <g
           fill-rule="evenodd"
           stroke-width="2.25838"
           id="g1447"
           style="fill:#ffff00;stroke:#808080">
          <path
             d="m 692.26268,88.045114 c 0.60363,43.743446 0.60363,41.701436 0.60363,41.701436 -1.10382,2.05895 -3.61009,5.73609 -6.84122,5.43115 -4.44147,0.0747 -4.57254,-4.42474 -5.43275,-5.76506 l -0.35889,-41.640073 c -0.1162,-2.102985 1.69607,-6.04285 6.39527,-6.074003 2.58571,0.404278 5.61628,3.101114 5.63396,6.34655 z"
             id="path1443"
             style="fill:#ffff00;stroke:#808080" />
          <path
             d="m 692.26268,177.65938 c 0.60363,43.74345 0.60363,41.70144 0.60363,41.70144 -1.10382,2.05895 -3.61009,5.73609 -6.84122,5.43115 -4.44147,0.0747 -4.57254,-4.42474 -5.43275,-5.76506 l -0.35889,-41.64008 c -0.1162,-2.10298 1.69607,-6.04285 6.39527,-6.074 2.58571,0.40428 5.61628,3.10111 5.63396,6.34655 z"
             id="path1445"
             style="fill:#ffff00;stroke:#808080" />
        </g>
      </g>
      <g
         stroke-width="2.25838"
         transform="rotate(-16.999994,1009.56,2178.0479)"
         id="g1461"
         style="fill:#ffff00;stroke:#808080">
        <path
           id="path1451"
           d="M 84.775391,314.75781 A 43.309323,21.084342 72.998789 0 0 81.75,315.21484 43.309323,21.084342 72.998789 1 0 107.07422,398.04883 43.309323,21.084342 72.998789 0 0 84.775391,314.75781 Z m 2.285156,15.02735 a 27.345667,8.7896241 72.999082 0 1 15.171873,52.42773 27.345667,8.7896241 72.999082 1 1 -15.990232,-52.30078 27.345667,8.7896241 72.999082 0 1 0.818359,-0.12695 z"
           transform="matrix(0.86385947,0.26410824,-0.26412062,0.86389997,699.18252,-178.35225)"
           style="fill:#ffff00;stroke:#808080" />
        <g
           fill-rule="evenodd"
           stroke-width="2.25838"
           id="g1459"
           style="fill:#ffff00;stroke:#808080">
          <path
             d="m 692.26268,88.045114 c 0.60363,43.743446 0.60363,41.701436 0.60363,41.701436 -1.10382,2.05895 -3.61009,5.73609 -6.84122,5.43115 -4.44147,0.0747 -4.57254,-4.42474 -5.43275,-5.76506 l -0.35889,-41.640073 c -0.1162,-2.102985 1.69607,-6.04285 6.39527,-6.074003 2.58571,0.404278 5.61628,3.101114 5.63396,6.34655 z"
             id="path1455"
             style="fill:#ffff00;stroke:#808080" />
          <path
             d="m 692.26268,177.65938 c 0.60363,43.74345 0.60363,41.70144 0.60363,41.70144 -1.10382,2.05895 -3.61009,5.73609 -6.84122,5.43115 -4.44147,0.0747 -4.57254,-4.42474 -5.43275,-5.76506 l -0.35889,-41.64008 c -0.1162,-2.10298 1.69607,-6.04285 6.39527,-6.074 2.58571,0.40428 5.61628,3.10111 5.63396,6.34655 z"
             id="path1457"
             style="fill:#ffff00;stroke:#808080" />
        </g>
      </g>
      <g
         stroke-width="2.25838"
         transform="matrix(-0.9563048,-0.2923716,-0.2923716,0.9563048,1188.6105,390.78896)"
         id="g1473"
         style="fill:#ffff00;stroke:#808080">
        <path
           id="path1463"
           d="m 522.22656,315.25977 a 21.084342,43.309323 17.001211 0 0 -22.29883,83.28906 21.084342,43.309323 17.001211 1 0 25.32618,-82.83203 21.084342,43.309323 17.001211 0 0 -3.02735,-0.45703 z m -2.2832,15.02539 a 8.7896242,27.345667 17.000918 0 1 0.81641,0.12695 8.7896242,27.345667 17.000918 1 1 -15.99024,52.30078 8.7896242,27.345667 17.000918 0 1 15.17383,-52.42773 z"
           transform="matrix(-0.86385946,-0.26410824,-0.26412062,0.86389996,1223.6795,-18.470155)"
           style="fill:#ffff00;stroke:#808080" />
        <g
           fill-rule="evenodd"
           stroke-width="2.25838"
           id="g1471"
           style="fill:#ffff00;stroke:#808080">
          <path
             d="m 692.26268,88.045114 c 0.60363,43.743446 0.60363,41.701436 0.60363,41.701436 -1.10382,2.05895 -3.61009,5.73609 -6.84122,5.43115 -4.44147,0.0747 -4.57254,-4.42474 -5.43275,-5.76506 l -0.35889,-41.640073 c -0.1162,-2.102985 1.69607,-6.04285 6.39527,-6.074003 2.58571,0.404278 5.61628,3.101114 5.63396,6.34655 z"
             id="path1467"
             style="fill:#ffff00;stroke:#808080" />
          <path
             d="m 692.26268,177.65938 c 0.60363,43.74345 0.60363,41.70144 0.60363,41.70144 -1.10382,2.05895 -3.61009,5.73609 -6.84122,5.43115 -4.44147,0.0747 -4.57254,-4.42474 -5.43275,-5.76506 l -0.35889,-41.64008 c -0.1162,-2.10298 1.69607,-6.04285 6.39527,-6.074 2.58571,0.40428 5.61628,3.10111 5.63396,6.34655 z"
             id="path1469"
             style="fill:#ffff00;stroke:#808080" />
        </g>
      </g>
      <g
         stroke-width="2.25838"
         id="g1485"
         style="fill:#ffff00;stroke:#808080">
        <path
           id="path1475"
           d="m 186.28906,483.85742 a 47.917733,23.209768 34.379955 0 0 -14.57422,5.93555 47.917733,23.209768 34.379955 1 0 78.86719,54.44141 47.917733,23.209768 34.379955 0 0 -64.29297,-60.37696 z m 6.86524,16.06641 A 27.346415,8.7893824 34.998449 0 1 233.83203,532.86914 27.346424,8.7893852 34.998449 1 1 189.0293,501.5 a 27.346415,8.7893824 34.998449 0 1 4.125,-1.57617 z"
           transform="matrix(0.9033307,0,0,0.90337305,23.800043,15.356721)"
           style="fill:#ffff00;stroke:#808080" />
        <g
           fill-rule="evenodd"
           stroke-width="2.25838"
           id="g1483"
           style="fill:#ffff00;stroke:#808080">
          <path
             d="m 156.24037,430.75194 c 42.64321,29.34077 40.6716,27.94357 40.6716,27.94357 1.24171,2.48743 3.09766,7.45252 0.61878,10.40128 -2.93056,4.39127 -7.36349,1.44067 -9.23915,1.36416 l -40.4469,-28.14073 c -2.10904,-1.32538 -4.68784,-5.79207 -1.54096,-10.40537 2.13844,-2.2501 6.79114,-3.36625 9.93663,-1.16291 z"
             id="path1479"
             style="fill:#ffff00;stroke:#808080" />
          <path
             d="m 239.41044,491.99946 c 42.56301,30.89094 40.59513,29.41993 40.59513,29.41993 1.23937,2.61885 3.09183,7.84626 0.61761,10.95081 -2.92504,4.62328 -7.34964,1.51678 -9.22177,1.43624 l -40.37086,-29.62751 c -2.10505,-1.39541 -4.67902,-6.0981 -1.53805,-10.95512 2.13443,-2.36898 6.77837,-3.54412 9.91794,-1.22435 z"
             id="path1481"
             style="fill:#ffff00;stroke:#808080" />
        </g>
      </g>
      <g
         stroke-width="2.25838"
         transform="translate(-1.233645,-1.233645)"
         id="g1497"
         style="fill:#ffff00;stroke:#808080">
        <path
           id="path1487"
           d="m 152.53516,115.98242 a 47.917547,23.209859 39.37985 0 0 -12.37305,4.75 47.917547,23.209859 39.37985 1 0 73.82227,61.10742 47.917547,23.209859 39.37985 0 0 -61.44922,-65.85742 z m 7.11718,16.67383 a 27.346307,8.7894176 39.998373 0 1 38.63477,36.40234 27.346307,8.7894176 39.998373 1 1 -41.89649,-35.15429 27.346307,8.7894176 39.998373 0 1 3.26172,-1.24805 z"
           transform="matrix(0.9033307,0,0,0.90337305,25.033688,16.590366)"
           style="fill:#ffff00;stroke:#808080" />
        <g
           fill-rule="evenodd"
           stroke-width="2.25838"
           id="g1495"
           style="fill:#ffff00;stroke:#808080">
          <path
             d="m 208.9332,164.00076 c 23.83469,20.68418 47.82869,41.18546 72.01507,61.45743 1.78029,4.13643 5.26186,7.85465 5.16943,12.57772 -1.69207,4.71178 -7.57054,2.64707 -10.87491,1.02914 -2.27737,-0.7666 -4.24314,-1.91435 -5.92872,-3.62495 -23.84116,-20.47403 -47.74072,-40.88416 -71.54536,-61.39814 -3.47401,-2.91437 -3.18786,-9.79461 1.66482,-11.02201 3.05588,-0.92625 6.86536,-1.11128 9.49967,0.98081 z"
             id="path1491"
             style="fill:#ffff00;stroke:#808080" />
          <path
             d="m 109.07589,84.36139 c 58.07095,42.06206 59.29275,43.96719 59.29275,43.96719 1.48391,3.3018 6.79506,9.49803 2.82931,12.97259 -4.80311,5.25893 -14.10371,-1.26296 -16.81188,-1.56898 L 98.370079,96.189514 c -2.888004,-1.92036 -7.684112,-8.213394 -2.539406,-13.730653 2.083369,-0.673065 0.340128,-3.139798 13.245217,1.902529 z"
             id="path1493"
             style="fill:#ffff00;stroke:#808080" />
        </g>
      </g>
      <path
         d="m 282.04364,280.26845 -42.59118,47.61146 c 0,0 -8.07768,3.02653 -10.94187,-0.99808 -4.44223,-4.98592 2.4283,-11.50582 2.4283,-11.50582 l 41.96658,-45.65942 c 2.03657,-2.45843 6.24251,-6.61999 10.89351,-1.29173 2.12818,3.39791 1.54652,8.23408 -1.75534,11.84359 z"
         fill-rule="evenodd"
         stroke-width="2.25838"
         id="path1499"
         style="fill:#ffff00;stroke:#808080" />
      <path
         d="m 445.21773,395.80871 c -41.56617,-42.67714 -39.59865,-40.71203 -39.59865,-40.71203 -3.04739,-0.91916 -9.00526,-2.04594 -11.82469,1.35698 -4.35147,4.2023 -0.14241,8.65847 0.32017,10.77614 l 39.77535,40.41745 c 1.91431,2.13561 7.45663,4.18309 12.01442,-0.30917 2.10185,-2.87741 2.42342,-8.38913 -0.6866,-11.52937 z"
         fill-rule="evenodd"
         stroke-width="2.25838"
         id="path1503"
         style="fill:#ffff00;stroke:#808080" />
      <path
         d="m 363.8142,314.66894 c -44.28843,-48.82779 -42.59118,-47.61146 -42.59118,-47.61146 0,0 -8.07768,-3.02653 -10.94187,0.99808 -4.44223,4.98592 2.4283,11.50582 2.4283,11.50582 l 41.96658,45.65942 c 2.03657,2.45843 6.24251,6.61999 10.89351,1.29173 2.12818,-3.39791 1.54652,-8.23408 -1.75534,-11.84359 z"
         fill-rule="evenodd"
         stroke-width="2.25838"
         id="path1505"
         style="fill:#ffff00;stroke:#808080" />
    </g>
    <g
       fill-rule="evenodd"
       stroke-width="1.86578"
       transform="matrix(1.2149119,0,0,1.2059427,-70.440948,-114.19658)"
       id="gemmed"
       style="fill:#00ff00;stroke:#808080">
      <path
         d="m 313.41055,282.59383 8.59358,11.66673 -0.40078,20.96501 -10.56148,10.38269 -19.91702,-0.58841 -11.75063,-10.82071 -0.11639,-21.21021 10.73427,-10.4611 z"
         id="path1509"
         style="fill:#00ff00;stroke:#808080" />
      <path
         d="m 306.59009,292.56011 4.0258,6.25258 -0.17559,11.22433 -4.93256,5.55136 -9.31394,-0.32881 -5.50173,-5.80177 -0.066,-11.35593 5.01295,-5.59336 z"
         id="path1511"
         style="fill:#00ff00;stroke:#808080" />
      <path
         d="m 295.48823,292.64972 -5.31254,-10.1951"
         id="path1513"
         style="fill:#00ff00;stroke:#808080" />
      <path
         d="m 306.2565,292.64972 6.46129,-9.62068"
         id="path1515"
         style="fill:#00ff00;stroke:#808080" />
      <path
         d="m 310.70789,298.68069 10.62467,-4.45133"
         id="path1517"
         style="fill:#00ff00;stroke:#808080" />
      <path
         d="m 310.4203,309.88061 10.76867,5.02575"
         id="path1519"
         style="fill:#00ff00;stroke:#808080" />
      <path
         d="m 305.25175,315.48077 5.31214,9.18987"
         id="path1521"
         style="fill:#00ff00;stroke:#808080" />
      <path
         d="m 296.0626,315.19357 -4.59457,9.33346"
         id="path1523"
         style="fill:#00ff00;stroke:#808080" />
      <path
         d="m 290.31928,309.01899 -10.33789,5.16935"
         id="path1525"
         style="fill:#00ff00;stroke:#808080" />
      <path
         d="m 290.75006,297.96267 -11.05585,-5.02574"
         id="path1527"
         style="fill:#00ff00;stroke:#808080" />
    </g>
  </g>
</svg>
