<?xml version="1.0" encoding="UTF-8" standalone="no"?>
<!-- Created with Inkscape (http://www.inkscape.org/) -->
<svg xmlns:dc="http://purl.org/dc/elements/1.1/" xmlns:cc="http://creativecommons.org/ns#" xmlns:rdf="http://www.w3.org/1999/02/22-rdf-syntax-ns#" xmlns:svg="http://www.w3.org/2000/svg" xmlns="http://www.w3.org/2000/svg" xmlns:sodipodi="http://sodipodi.sourceforge.net/DTD/sodipodi-0.dtd" xmlns:inkscape="http://www.inkscape.org/namespaces/inkscape" width="280.28125" height="332.84375" id="svg5082" version="1.1" inkscape:version="0.48.4 r9939" sodipodi:docname="New document 3">
  <defs id="defs5084"/>
  <sodipodi:namedview id="base" pagecolor="#ffffff" bordercolor="#666666" borderopacity="1.0" inkscape:pageopacity="0.0" inkscape:pageshadow="2" inkscape:zoom="0.35" inkscape:cx="374.84375" inkscape:cy="-199.29968" inkscape:document-units="px" inkscape:current-layer="layer1" showgrid="false" fit-margin-top="0" fit-margin-left="0" fit-margin-right="0" fit-margin-bottom="0" inkscape:window-width="1261" inkscape:window-height="745" inkscape:window-x="1777" inkscape:window-y="329" inkscape:window-maximized="1"/>
  <metadata id="metadata5087">
    <rdf:RDF>
      <cc:Work rdf:about="">
        <dc:format>image/svg+xml</dc:format>
        <dc:type rdf:resource="http://purl.org/dc/dcmitype/StillImage"/>
        <dc:title/>
        <dc:creator>
          <cc:Agent>
            <dc:title>http://commons.wikimedia.org/wiki/User:SajoR</dc:title>
          </cc:Agent>
        </dc:creator>
      </cc:Work>
    </rdf:RDF>
  </metadata>
  <g inkscape:label="Layer 1" inkscape:groupmode="layer" id="layer1">
    <path inkscape:connector-curvature="0" style="font-size:634.33630371px;font-style:normal;font-weight:normal;fill:#ffff00;fill-opacity:1;stroke:#000000;stroke-width:1.20000005;stroke-miterlimit:4;stroke-opacity:1;stroke-dasharray:none;display:inline;font-family:Lello" d="m93.5,0.6155 0,5.943 8.194,0   c8.239,0 18.29,2.338 22.44,7.06 2.906,3.302 4.324,11.82 4.324,25.52   l0,163.9 -49.24,-39.99   c-5.546,-4.539 -8.947,-7.645 -10.2,-9.327 -1.254,-1.681 -1.878,-3.416 -1.878,-5.182 0,-1.765 0.796,-3.318 2.38,-4.664 1.981,-1.765 4.476,-2.993 7.513,-3.708 3.037,-0.7144 9.325,-1.114 18.83,-1.198 0.5404,0 5.36,0 5.36,0   l0,-5.943 -100.6,0 0,5.943   c7.527,0.2524 13.67,1.006 18.43,2.267 7.131,1.934 13.67,4.543 19.61,7.821 5.942,3.279 14.32,9.325 25.15,18.15   l64.69,52.58 0,2.213 -61.71,50.12   c-9.507,7.65 -17.96,13.34 -25.36,17.03 -7.395,3.699 -15.18,6.639 -23.37,8.825 -4.886,1.345 -10.71,2.219 -17.44,2.639   l0,5.943 100.6,0 0,-5.943 -5.36,0   C85.83,300.3 79.03,299.3 75.46,297.6   c-3.565,-1.765 -5.344,-3.981 -5.343,-6.671 0,-1.766 0.5927,-3.478 1.781,-5.117 1.188,-1.64 4.745,-4.888 10.69,-9.764   l45.87,-37.28 0,55   c0,12.41 -1.607,22.26 -3.747,25.58 -3.959,5.992 -9.996,7.003 -19.2,7.003   l-12.01,0 0,5.943 93.25,0 0,-5.943 -11.99,0   c-8.239,0 -14.39,-2.352 -18.46,-7.06 -2.996,-3.317 -4.502,-11.82 -4.502,-25.52   l0,-55 45.87,37.28   c5.942,4.876 9.499,8.125 10.69,9.764 1.188,1.639 1.781,3.351 1.781,5.117 0,2.69 -1.778,4.906 -5.344,6.671 -3.565,1.766 -10.37,2.776 -20.4,3.028   l-5.36,0 0,5.943 100.6,0 0,-5.943   c-6.734,-0.4202 -12.55,-1.294 -17.44,-2.639 -8.187,-2.186 -15.97,-5.126 -23.37,-8.825 -7.395,-3.699 -15.85,-9.385 -25.36,-17.03   l-61.71,-50.12 0,-2.216 64.69,-52.58   c10.83,-8.827 19.21,-14.87 25.15,-18.15 5.942,-3.278 12.48,-5.887 19.61,-7.821 4.753,-1.261 10.9,-2.015 18.43,-2.267   l0,-5.943 -100.6,0 0,5.943   c0,0 4.819,0 5.36,0 9.507,0.0841 15.79,0.4839 18.83,1.198 3.037,0.7148 5.532,1.943 7.513,3.708 1.584,1.345 2.38,2.898 2.38,4.664 0,1.766 -0.6242,3.501 -1.878,5.182 -1.254,1.682 -4.656,4.788 -10.2,9.327   l-49.24,39.99 0,-85.82 34.71,-0.4474   c16.16,-0.2083 36.58,-2.39 54.13,-12.97 13.84,-8.344 24.47,-25.93 24.47,-43.7 -0.9828,-25.95 -12.57,-45.36 -38.15,-54.53   C215.7,1.525 192.7,0.6159 173.3,0.6156   l-79.77,0   z m82.99,10.47   c15.71,-0.4516 23.99,1.537 31.74,4.637 18.19,7.286 26.12,20.69 25.69,44.4 -0.3267,17.99 -7.934,32.02 -24.41,39.84 -12.41,5.89 -27.2,7.338 -35.53,7.773   l-22.17,0.3135 0,-96.25   z " id="text2329-0-7-1-8" sodipodi:nodetypes="cccsscccccccccccccccccscccccccccccccsccccscscccccccccccsccccccccccccccccccsscscccsssscccs"/>
  </g>
</svg>
