<?xml version="1.0" encoding="utf-8"?>
<svg xmlns:dc="http://purl.org/dc/elements/1.1/" xmlns:xl="http://www.w3.org/1999/xlink"
     xmlns="http://www.w3.org/2000/svg"
     xmlns:xlink="http://www.w3.org/1999/xlink"
     version="1.1"
     viewBox="36 81 292.5 315"
     width="292.5"
     height="315"
     preserveAspectRatio="xMidYMid meet"
     zoomAndPan="magnify"
     contentScriptType="application/ecmascript"
     contentStyleType="text/css">
   <defs/>
   <metadata xmlns="" xmlns:svg="http://www.w3.org/2000/svg"
             xmlns:rdf="http://www.w3.org/1999/02/22-rdf-syntax-ns#"
             xmlns:cc="http://creativecommons.org/ns#">
      <rdf:RDF>
         <cc:Work rdf:about="">
            <dc:creator>
               <cc:Agent>
                  <dc:title>http://heraldicart.org Pall Bottony.svg</dc:title>
               </cc:Agent>
            </dc:creator>
         </cc:Work>
      </rdf:RDF>
   </metadata>
   <g stroke="#505050" fill="#ffff00" stroke-opacity="1" stroke-dasharray="none"
      fill-opacity="1">
      <title>Pall Bottony</title>
      <g>
         <title>Content</title>
         <g>
            <path d="M 193.40653 216.76543 L 280.938 143.31781 C 281.07454 144.27066 281.10978 145.2095 281.03053 146.11865 C 280.05456 157.31425 288.3387 167.18691 299.5337 168.16987 C 310.72868 169.15287 320.59514 160.87393 321.57105 149.67833 C 322.45256 139.56633 315.77975 130.53358 306.23096 128.1555 C 316.53644 128.00755 325.2574 120.07771 326.1719 109.58685 C 327.14787 98.39124 318.86372 88.51858 307.66873 87.53563 C 297.17845 86.6145 287.8547 93.82598 285.91947 103.94921 C 285.23565 94.13254 277.49885 85.99258 267.3874 85.10477 C 256.19242 84.12176 246.32596 92.4007 245.35005 103.59631 C 244.37407 114.79191 252.65822 124.66457 263.8532 125.64752 C 264.7623 125.72735 265.68077 125.92508 266.59543 126.22502 L 266.59543 126.22502 L 182.4285 196.84945 L 97.90457 125.92545 C 98.81923 125.62551 99.73769 125.42778 100.64679 125.34795 C 111.84178 124.365 120.12593 114.49234 119.14995 103.29674 C 118.17404 92.10113 108.30758 83.82219 97.1126 84.8052 C 87.00115 85.69301 79.264345 93.83297 78.58053 103.64964 C 76.6453 93.52641 67.32155 86.31493 56.83127 87.23606 C 45.636275 88.21902 37.35213 98.09168 38.328102 109.28728 C 39.242586 119.77815 47.96356 127.70799 58.26904 127.85593 C 48.72025 130.234 42.04744 139.26676 42.92895 149.37876 C 43.904863 160.57436 53.77132 168.8533 64.96631 167.8703 C 76.1613 166.88735 84.44544 157.01469 83.46947 145.81908 C 83.39022 144.90994 83.42546 143.97109 83.56202 143.01825 L 83.56202 143.01825 L 171.09347 216.46586 L 171.09347 329.98296 C 170.27577 329.4751 169.53393 328.8986 168.88842 328.2535 C 160.93943 320.30948 148.05159 320.30948 140.1026 328.2535 C 132.15358 336.1975 132.15358 349.07725 140.1026 357.02124 C 147.28222 364.1964 158.49091 364.89085 166.45046 359.10465 C 159.93956 367.0942 160.40844 378.87206 167.8571 386.316 C 175.80608 394.26003 188.69392 394.26003 196.6429 386.316 C 204.09156 378.87206 204.56044 367.0942 198.04954 359.10465 C 206.0091 364.89085 217.21778 364.1964 224.3974 357.02124 C 232.34642 349.07725 232.34642 336.1975 224.3974 328.2535 C 216.4484 320.30948 203.56057 320.30948 195.61158 328.2535 C 194.96607 328.8986 194.22423 329.4751 193.40653 329.98296 L 193.40653 329.98296 Z"/>
            <path d="M 193.40653 216.76543 L 280.938 143.31781 C 281.07454 144.27066 281.10978 145.2095 281.03053 146.11865 C 280.05456 157.31425 288.3387 167.18691 299.5337 168.16987 C 310.72868 169.15287 320.59514 160.87393 321.57105 149.67833 C 322.45256 139.56633 315.77975 130.53358 306.23096 128.1555 C 316.53644 128.00755 325.2574 120.07771 326.1719 109.58685 C 327.14787 98.39124 318.86372 88.51858 307.66873 87.53563 C 297.17845 86.6145 287.8547 93.82598 285.91947 103.94921 C 285.23565 94.13254 277.49885 85.99258 267.3874 85.10477 C 256.19242 84.12176 246.32596 92.4007 245.35005 103.59631 C 244.37407 114.79191 252.65822 124.66457 263.8532 125.64752 C 264.7623 125.72735 265.68077 125.92508 266.59543 126.22502 L 266.59543 126.22502 L 182.4285 196.84945 L 97.90457 125.92545 C 98.81923 125.62551 99.73769 125.42778 100.64679 125.34795 C 111.84178 124.365 120.12593 114.49234 119.14995 103.29674 C 118.17404 92.10113 108.30758 83.82219 97.1126 84.8052 C 87.00115 85.69301 79.264345 93.83297 78.58053 103.64964 C 76.6453 93.52641 67.32155 86.31493 56.83127 87.23606 C 45.636275 88.21902 37.35213 98.09168 38.328102 109.28728 C 39.242586 119.77815 47.96356 127.70799 58.26904 127.85593 C 48.72025 130.234 42.04744 139.26676 42.92895 149.37876 C 43.904863 160.57436 53.77132 168.8533 64.96631 167.8703 C 76.1613 166.88735 84.44544 157.01469 83.46947 145.81908 C 83.39022 144.90994 83.42546 143.97109 83.56202 143.01825 L 83.56202 143.01825 L 171.09347 216.46586 L 171.09347 329.98296 C 170.27577 329.4751 169.53393 328.8986 168.88842 328.2535 C 160.93943 320.30948 148.05159 320.30948 140.1026 328.2535 C 132.15358 336.1975 132.15358 349.07725 140.1026 357.02124 C 147.28222 364.1964 158.49091 364.89085 166.45046 359.10465 C 159.93956 367.0942 160.40844 378.87206 167.8571 386.316 C 175.80608 394.26003 188.69392 394.26003 196.6429 386.316 C 204.09156 378.87206 204.56044 367.0942 198.04954 359.10465 C 206.0091 364.89085 217.21778 364.1964 224.3974 357.02124 C 232.34642 349.07725 232.34642 336.1975 224.3974 328.2535 C 216.4484 320.30948 203.56057 320.30948 195.61158 328.2535 C 194.96607 328.8986 194.22423 329.4751 193.40653 329.98296 L 193.40653 329.98296 Z"
                  stroke="black"
                  stroke-linecap="round"
                  stroke-linejoin="round"
                  stroke-width="2"/>
         </g>
      </g>
   </g>
</svg>