<?xml version="1.0" encoding="utf-8"?>
<svg xmlns:dc="http://purl.org/dc/elements/1.1/" xmlns:xl="http://www.w3.org/1999/xlink"
     xmlns="http://www.w3.org/2000/svg"
     xmlns:xlink="http://www.w3.org/1999/xlink"
     version="1.1"
     viewBox="38.25 60.75 288 288"
     width="288"
     height="288"
     preserveAspectRatio="xMidYMid meet"
     zoomAndPan="magnify"
     contentScriptType="application/ecmascript"
     contentStyleType="text/css">
   <defs/>
   <metadata xmlns="" xmlns:svg="http://www.w3.org/2000/svg"
             xmlns:rdf="http://www.w3.org/1999/02/22-rdf-syntax-ns#"
             xmlns:cc="http://creativecommons.org/ns#">
      <rdf:RDF>
         <cc:Work rdf:about="">
            <dc:creator>
               <cc:Agent>
                  <dc:title>http://heraldicart.org T'ai-chi.svg</dc:title>
               </cc:Agent>
            </dc:creator>
         </cc:Work>
      </rdf:RDF>
   </metadata>
   <g stroke="#505050" fill="#ffff00" stroke-opacity="1" stroke-dasharray="none"
      fill-opacity="1">
      <title>T'ai-chi</title>
      <g>
         <title>Layer 2</title>
         <g>
            <g>
               <ellipse cx="182.24996" cy="204.68388" rx="141.750191065047" ry="141.68403708069"/>
               <ellipse cx="182.24996" cy="204.68388" rx="141.750191065047" ry="141.68403708069"
                        stroke="black"
                        stroke-linecap="round"
                        stroke-linejoin="round"
                        stroke-width="2"/>
            </g>
            <g>
               <g  id="feature-0">
                  <path
                        d="M 188.65104 346.22405 C 188.64988 346.22415 188.64872 346.22425 188.64757 346.22436 C 184.56718 346.58415 180.46155 346.5917 176.3801 346.24706 C 176.37895 346.24694 176.37779 346.2469 176.37663 346.24684 C 175.9959 346.23116 175.61522 346.21395 175.2346 346.1952 L 175.7949 346.1952 C 159.91028 344.7219 144.42808 337.9071 132.26617 325.7508 C 104.58765 298.08533 104.58765 253.2308 132.26617 225.56532 C 146.03294 211.8049 164.0541 204.8887 182.09752 204.81669 C 200.3308 204.8884 218.5868 197.97218 232.49842 184.06698 C 260.17695 156.40152 260.17695 111.54698 232.49842 83.88151 C 218.5868 69.97632 200.3308 63.060105 182.09752 63.132876 L 182.09753 63.132876 L 182.09753 63.00008 C 218.42526 62.96128 254.76507 76.79405 282.4822 104.49841 C 337.83926 159.82934 337.83926 249.53843 282.4822 304.86935 C 256.43223 330.9073 222.7657 344.69224 188.65104 346.22412 Z"
                        fill="#ff0000"/>
               </g>
               <path d="M 188.65104 346.22405 C 188.64988 346.22415 188.64872 346.22425 188.64757 346.22436 C 184.56718 346.58415 180.46155 346.5917 176.3801 346.24706 C 176.37895 346.24694 176.37779 346.2469 176.37663 346.24684 C 175.9959 346.23116 175.61522 346.21395 175.2346 346.1952 L 175.7949 346.1952 C 159.91028 344.7219 144.42808 337.9071 132.26617 325.7508 C 104.58765 298.08533 104.58765 253.2308 132.26617 225.56532 C 146.03294 211.8049 164.0541 204.8887 182.09752 204.81669 C 200.3308 204.8884 218.5868 197.97218 232.49842 184.06698 C 260.17695 156.40152 260.17695 111.54698 232.49842 83.88151 C 218.5868 69.97632 200.3308 63.060105 182.09752 63.132876 L 182.09753 63.132876 L 182.09753 63.00008 C 218.42526 62.96128 254.76507 76.79405 282.4822 104.49841 C 337.83926 159.82934 337.83926 249.53843 282.4822 304.86935 C 256.43223 330.9073 222.7657 344.69224 188.65104 346.22412 Z"
                     stroke="black"
                     stroke-linecap="round"
                     stroke-linejoin="round"
                     stroke-width="2"/>
            </g>
            <g>
               <ellipse cx="182.24996" cy="135.2471" rx="17.7162598264844" ry="17.7079917517354"
                        fill="#ff0000"/>
               <ellipse cx="182.24996" cy="135.2471" rx="17.7162598264844" ry="17.7079917517354"
                        stroke="black"
                        stroke-linecap="round"
                        stroke-linejoin="round"
                        stroke-width="2"/>
            </g>
            <g>
               <ellipse cx="182.24996" cy="275.22433" rx="17.7162598264844" ry="17.7079917517354"/>
               <ellipse cx="182.24996" cy="275.22433" rx="17.7162598264844" ry="17.7079917517354"
                        stroke="black"
                        stroke-linecap="round"
                        stroke-linejoin="round"
                        stroke-width="2"/>
            </g>
         </g>
      </g>
   </g>
</svg>