<?xml version="1.0" encoding="UTF-8" standalone="no"?>
<!DOCTYPE svg PUBLIC "-//W3C//DTD SVG 1.1//EN" "http://www.w3.org/Graphics/SVG/1.1/DTD/svg11.dtd">
<svg xmlns:dc="http://purl.org/dc/elements/1.1/" xmlns:xl="http://www.w3.org/1999/xlink" version="1.1" xmlns="http://www.w3.org/2000/svg" viewBox="32.828125 60.26792 295.67188 275.03306" width="295.67188" height="275.03306">
  <defs>
    <clipPath id="artboard_clip_path">
      <path d="M 32.828125 60.26792 L 328.5 60.26792 L 328.5 335.30097 L 32.828125 335.30097 Z"/>
    </clipPath>
  </defs>
  <metadata> Produced by OmniGraffle 7.8 
    <dc:date>2018-07-22 18:17:42 +0000</dc:date><dc:title>Traceable heraldic art http://heraldicart.org/credits.html</dc:title>
  </metadata>
  <g id="Triskelion_of_Sprials_(1)" fill-opacity="1" stroke-dasharray="none" stroke="none" stroke-opacity="1" fill="#ffff00">
    <title>Triskelion of Sprials (1)</title>
    <g id="Triskelion_of_Sprials_(1): Layer 2" >
      <title>Layer 2</title>
      <g id="Graphic_12">
        <path d="M 209.51479 169.1719 C 209.61688 169.4379 209.714 169.70972 209.80598 169.98749 C 215.67212 187.70417 230.9825 202.5835 240.8951 218.27007 C 250.8077 233.95663 255.8456 256.0265 250.47743 277.61786 C 245.10925 299.2092 230.57302 328.0393 193.88946 331.89422 C 157.2059 335.74913 134.5358 322.75526 120.11943 298.1176 C 105.70306 273.4799 120.55606 241.17977 136.32846 231.42977 C 152.10087 221.67977 174.9435 223.6749 185.84395 233.16716 C 196.7444 242.6594 204.16154 260.97478 192.54702 273.56315 C 180.9325 286.15152 167.45566 278.35846 167.45566 278.35846 C 167.45566 278.35846 182.46 262.7127 171.86438 252.80722 C 161.26876 242.90174 152.12496 249.31572 146.41275 253.43148 C 140.70054 257.54724 129.14324 276.918 145.66372 295.95893 C 162.1842 314.99985 192.53606 312.192 209.76774 297.6663 C 226.9994 283.14057 225.10493 257.86496 218.9149 242.64837 C 212.72485 227.4318 190.42435 208.42763 174.00058 204.43674 C 173.79027 204.38564 173.58586 204.32835 173.38722 204.26504 C 173.26034 204.24129 173.13295 204.21606 173.00504 204.18935 C 154.74972 200.37732 134.25657 206.11989 115.74759 206.80912 C 97.2386 207.49836 75.62591 200.79473 59.600074 185.36715 C 43.57424 169.93958 25.838138 142.99298 40.734817 109.4664 C 55.631496 75.93982 78.15048 62.914466 106.6482 62.824726 C 135.14592 62.734986 155.72898 91.69074 156.3307 110.15503 C 156.93243 128.61933 143.8506 147.29673 130.21374 151.9363 C 116.57688 156.57586 97.03224 153.80023 91.90623 137.49714 C 86.78023 121.19404 100.22656 113.48505 100.22656 113.48505 C 100.22656 113.48505 106.31472 134.23783 120.15784 130.0676 C 134.00096 125.89736 132.99274 114.8119 132.26862 107.83225 C 131.54449 100.85258 120.51771 81.20507 95.81988 85.90764 C 71.12205 90.61021 58.466116 118.15902 62.47738 140.2699 C 66.48864 162.38076 89.31443 173.39607 105.56612 175.67813 C 121.81781 177.9602 149.3569 168.26055 160.97605 156.11072 C 161.49712 155.56585 162.04792 155.12121 162.62475 154.7689 C 174.62307 140.95947 179.9599 120.97443 188.52744 105.01844 C 197.25245 88.76919 213.90316 73.46928 235.25 67.241225 C 256.59687 61.01317 288.71934 58.951435 310.07652 88.16355 C 331.4337 117.37567 331.30776 143.10872 317.03798 167.65183 C 302.7682 192.19494 267.48313 195.72104 251.2877 187.20318 C 235.09227 178.68533 225.60234 158.29958 228.4744 144.30582 C 231.34645 130.31207 243.5751 114.86795 260.1881 118.43878 C 276.80106 122.00962 276.66683 137.34154 276.66683 137.34154 C 276.66683 137.34154 255.73955 132.4205 252.3597 146.36191 C 248.97983 160.30332 259.02883 164.86102 265.4009 167.65386 C 271.77294 170.4467 294.2352 170.58123 302.62163 147.04765 C 311.00804 123.51406 293.66793 99.1534 272.61733 91.7823 C 251.56673 84.41121 230.59418 98.64417 220.44815 111.4989 C 210.30212 124.35363 204.78635 152.77504 209.3943 168.7092 C 209.43922 168.86454 209.47936 169.01877 209.5148 169.1719 Z" fill="#ff0000"/>
        <path d="M 209.51479 169.1719 C 209.61688 169.4379 209.714 169.70972 209.80598 169.98749 C 215.67212 187.70417 230.9825 202.5835 240.8951 218.27007 C 250.8077 233.95663 255.8456 256.0265 250.47743 277.61786 C 245.10925 299.2092 230.57302 328.0393 193.88946 331.89422 C 157.2059 335.74913 134.5358 322.75526 120.11943 298.1176 C 105.70306 273.4799 120.55606 241.17977 136.32846 231.42977 C 152.10087 221.67977 174.9435 223.6749 185.84395 233.16716 C 196.7444 242.6594 204.16154 260.97478 192.54702 273.56315 C 180.9325 286.15152 167.45566 278.35846 167.45566 278.35846 C 167.45566 278.35846 182.46 262.7127 171.86438 252.80722 C 161.26876 242.90174 152.12496 249.31572 146.41275 253.43148 C 140.70054 257.54724 129.14324 276.918 145.66372 295.95893 C 162.1842 314.99985 192.53606 312.192 209.76774 297.6663 C 226.9994 283.14057 225.10493 257.86496 218.9149 242.64837 C 212.72485 227.4318 190.42435 208.42763 174.00058 204.43674 C 173.79027 204.38564 173.58586 204.32835 173.38722 204.26504 C 173.26034 204.24129 173.13295 204.21606 173.00504 204.18935 C 154.74972 200.37732 134.25657 206.11989 115.74759 206.80912 C 97.2386 207.49836 75.62591 200.79473 59.600074 185.36715 C 43.57424 169.93958 25.838138 142.99298 40.734817 109.4664 C 55.631496 75.93982 78.15048 62.914466 106.6482 62.824726 C 135.14592 62.734986 155.72898 91.69074 156.3307 110.15503 C 156.93243 128.61933 143.8506 147.29673 130.21374 151.9363 C 116.57688 156.57586 97.03224 153.80023 91.90623 137.49714 C 86.78023 121.19404 100.22656 113.48505 100.22656 113.48505 C 100.22656 113.48505 106.31472 134.23783 120.15784 130.0676 C 134.00096 125.89736 132.99274 114.8119 132.26862 107.83225 C 131.54449 100.85258 120.51771 81.20507 95.81988 85.90764 C 71.12205 90.61021 58.466116 118.15902 62.47738 140.2699 C 66.48864 162.38076 89.31443 173.39607 105.56612 175.67813 C 121.81781 177.9602 149.3569 168.26055 160.97605 156.11072 C 161.49712 155.56585 162.04792 155.12121 162.62475 154.7689 C 174.62307 140.95947 179.9599 120.97443 188.52744 105.01844 C 197.25245 88.76919 213.90316 73.46928 235.25 67.241225 C 256.59687 61.01317 288.71934 58.951435 310.07652 88.16355 C 331.4337 117.37567 331.30776 143.10872 317.03798 167.65183 C 302.7682 192.19494 267.48313 195.72104 251.2877 187.20318 C 235.09227 178.68533 225.60234 158.29958 228.4744 144.30582 C 231.34645 130.31207 243.5751 114.86795 260.1881 118.43878 C 276.80106 122.00962 276.66683 137.34154 276.66683 137.34154 C 276.66683 137.34154 255.73955 132.4205 252.3597 146.36191 C 248.97983 160.30332 259.02883 164.86102 265.4009 167.65386 C 271.77294 170.4467 294.2352 170.58123 302.62163 147.04765 C 311.00804 123.51406 293.66793 99.1534 272.61733 91.7823 C 251.56673 84.41121 230.59418 98.64417 220.44815 111.4989 C 210.30212 124.35363 204.78635 152.77504 209.3943 168.7092 C 209.43922 168.86454 209.47936 169.01877 209.5148 169.1719 Z" stroke="#cccccc" stroke-linecap="round" stroke-linejoin="round" stroke-width="2"/>
      </g>
    </g>
  </g>
</svg>
