<?xml version="1.0" encoding="utf-8"?>
<svg xmlns:dc="http://purl.org/dc/elements/1.1/" xmlns:xl="http://www.w3.org/1999/xlink"
     xmlns="http://www.w3.org/2000/svg"
     xmlns:xlink="http://www.w3.org/1999/xlink"
     version="1.1"
     viewBox="103.5 67.5 157.5 342"
     width="157.5"
     height="342"
     preserveAspectRatio="xMidYMid meet"
     zoomAndPan="magnify"
     contentScriptType="application/ecmascript"
     contentStyleType="text/css">
   <defs/>
   <metadata  xmlns:svg="http://www.w3.org/2000/svg"
             xmlns:rdf="http://www.w3.org/1999/02/22-rdf-syntax-ns#"
             xmlns:cc="http://creativecommons.org/ns#">
      <rdf:RDF>
         <cc:Work rdf:about="">
            <dc:creator>
               <cc:Agent>
                  <dc:title>http://heraldicart.org Cuisse.svg</dc:title>
               </cc:Agent>
            </dc:creator>
         </cc:Work>
      </rdf:RDF>
   </metadata>
   <g stroke="#505050" fill="#ffff00" stroke-opacity="1" stroke-dasharray="none"
      fill-opacity="1">
      <title>Cuisse</title>
      <g>
         <title>Art</title>
         <g>
            <g>
               <g  id="outline-0">
                  <path 
                        d="M 161.86154 70.64557 C 167.07864 71.68304 169.4411 72.47483 175.8043 75.534955 C 183.15495 79.02496 185.49206 80.57496 193.15717 86.76108 C 196.2102 89.2559 199.47825 91.77332 200.39498 92.3588 C 202.32466 93.64859 208.1592 99.15317 209.34488 100.79954 C 209.86838 101.50675 210.1147 102.78265 209.96217 104.23402 C 209.74747 106.27669 209.97105 106.73498 212.1272 108.97249 C 214.67384 111.63148 215.4353 114.21153 214.97765 118.56564 C 214.8138 120.12453 215.0403 121.07225 215.91182 122.08777 C 217.3125 123.75675 218.2102 129.17723 217.7695 133.37008 C 217.56612 135.30525 217.75595 137.1187 218.35597 138.64916 C 219.21072 140.85859 219.41767 143.5434 219.45851 151.4282 C 219.4816 154.3111 219.73633 154.99005 221.5162 157.188 C 223.92144 160.15823 224.21878 161.98297 222.72544 164.81517 C 221.62243 167.03622 221.07988 171.16402 221.48797 175.55478 C 221.6042 177.0344 221.5398 181.2668 221.37627 184.89095 C 221.09427 190.67658 221.15948 191.60736 222.08477 192.62853 C 223.5392 194.30315 226.2016 195.34386 229.80315 195.7224 C 232.3296 195.98794 233.4783 196.43476 235.80412 198.09227 C 237.3688 199.235 238.9364 200.86716 239.3298 201.77808 C 241.4921 207.05974 247.8926 213.3847 251.38664 213.75193 C 254.18188 214.04572 255.66506 218.54947 255.79372 227.15003 C 255.89655 233.4109 255.5516 234.62465 252.28177 238.84624 C 251.3342 240.10536 250.2906 242.2783 249.92868 243.65332 C 248.66198 248.46588 242.84294 251.6043 242.8423 247.47377 C 242.82518 246.6024 243.40485 244.70678 244.15435 243.2638 C 247.22868 237.28252 247.67825 235.59063 248.26276 228.47808 C 248.98578 220.56487 248.8471 220.3329 244.45312 218.18628 C 241.60962 216.80045 236.00414 210.66776 234.11934 206.88266 C 232.9109 204.41868 231.23306 203.3184 226.32993 201.87914 C 224.43432 201.29947 222.43685 200.65474 221.85685 200.48508 C 220.80436 200.15707 220.78176 200.37209 219.18318 217.64988 C 217.09872 239.55057 214.60568 253.9626 211.51747 261.6272 C 210.91794 263.19464 210.60413 264.62907 210.7909 264.92044 C 211.03707 265.1637 212.32444 265.8425 213.6231 266.41378 C 216.78348 267.88726 219.84216 270.32833 222.98592 274.02835 C 226.37584 277.97163 227.78234 280.6195 229.42694 286.17282 C 230.66395 290.4333 230.70366 291.08966 230.18145 298.64354 C 229.67604 305.00353 229.30864 307.46493 228.23968 310.3961 C 225.76246 317.4184 221.03885 324.0959 216.2949 327.34733 C 213.83381 329.0452 213.6133 330.109 215.3848 332.9039 C 217.19307 335.86573 218.29964 338.26466 219.43753 341.9169 C 221.04242 346.8139 221.9288 352.3419 221.805 356.6224 C 221.75448 359.17145 221.93592 361.58184 222.2302 361.8845 C 222.51883 362.24094 224.24478 363.4006 226.0245 364.56594 C 229.08592 366.4638 229.3802 366.7665 230.10774 369.66907 C 230.68242 371.95775 231.8342 373.92665 234.61296 377.4796 C 237.44549 381.0382 238.50104 382.8883 238.9314 384.99878 C 239.26265 386.501 239.90238 388.6878 240.32693 389.8194 C 241.12792 392.0232 240.87917 393.35574 238.8738 396.40587 C 237.63776 398.3412 236.63095 400.68105 235.3076 404.9985 C 234.72792 406.89414 234.06333 408.56343 233.7776 408.69645 C 232.2189 409.56524 229.3213 406.1085 229.57555 403.68953 C 229.75635 401.9694 232.57612 396.3418 234.10642 394.70914 L 235.57168 393.17834 L 234.58666 390.14 C 234.0036 388.44827 232.80372 386.41997 231.81902 385.4469 C 230.04206 383.7384 227.09895 378.6464 225.51682 374.56702 C 225.09792 373.3817 223.86415 371.6759 222.8144 370.8047 C 221.1167 369.37625 220.90733 369.2999 220.22563 370.0978 C 219.7985 370.54206 219.37428 371.47574 219.31213 372.06704 C 219.06354 374.43224 214.9653 381.882 212.2498 384.9662 C 207.13845 390.67902 198.134 395.16745 190.98482 395.44866 C 181.43653 395.8038 174.59534 393.6717 169.13998 388.6961 C 167.60354 387.2846 167.49603 387.2733 159.1644 388.46286 C 145.15482 390.41434 133.90334 390.42743 125.1893 388.53327 C 116.79213 386.72677 115.83004 385.5387 117.43314 379.0767 C 117.99296 376.8529 118.98524 372.06584 119.6976 368.39067 C 120.40997 364.7155 121.72735 358.38652 122.58678 354.3464 L 124.18407 346.9055 L 121.20158 343.22243 C 119.51791 341.14328 117.50042 339.13773 116.62615 338.6654 C 112.699 336.7309 110.5372 334.54714 108.2138 330.28116 C 105.39516 325.0392 104.5036 322.66288 103.95702 319.0728 C 103.62286 317.08113 103.67613 313.98887 104.04063 311.03802 C 105.47891 299.9391 111.11021 290.31347 118.34092 286.67124 C 120.63234 285.55337 123.5714 282.92747 125.54289 280.19987 C 126.62056 278.73703 126.70805 277.38752 125.93789 273.33915 C 124.59014 266.51265 121.66753 247.78138 121.24524 243.0087 C 120.89672 239.60247 119.3049 227.85897 118.59979 223.70873 C 118.43836 222.65915 117.84916 217.92326 117.2543 213.24113 C 116.7132 208.56465 116.07024 203.82312 115.90882 202.77353 C 115.50106 200.44805 114.92315 195.60465 113.8437 185.7085 C 113.40171 181.64027 112.8351 176.68936 112.55471 174.70335 C 112.32806 172.723 111.99084 169.20926 111.8094 166.79886 C 111.63926 164.28095 111.11834 161.99792 110.60048 161.23696 C 107.84996 157.41523 107.34874 154.42774 108.94668 151.1174 C 109.64242 149.66877 109.67906 148.80305 108.97686 145.14225 C 107.81589 138.60713 107.80926 132.46507 108.96038 130.30343 C 109.82868 128.76424 109.90213 128.06543 109.52262 125.47117 C 109.31583 123.81899 109.30082 118.27388 109.55748 113.24646 C 109.76603 108.15964 110.06773 101.66955 110.20591 98.80361 C 110.36927 94.14682 110.58412 93.13679 111.96995 90.29329 C 112.81275 88.47968 114.13078 86.28123 114.82943 85.32204 C 115.9665 83.8111 116.17571 82.85482 116.59929 77.7906 C 117.11051 72.4095 117.21512 71.931355 118.29295 71.50116 C 118.9719 71.24643 120.23086 71.161356 121.18714 71.37056 C 122.57346 71.62497 122.91584 71.98704 122.91035 73.07343 C 122.90793 75.6819 123.15992 76.904045 123.75122 76.96619 C 124.07374 77.00009 125.39485 76.32372 126.73855 75.43233 C 130.29441 73.143 138.72483 70.49643 145.67869 69.488164 C 148.66053 69.04069 156.37568 69.579844 161.86154 70.64557 Z"
                        fill="black"/>
               </g>
            </g>
            <g>
               <path d="M 146.07499 70.888525 C 131.73158 72.91361 120.64234 79.13946 114.59795 88.55861 C 112.65762 91.50688 110.49986 97.04101 111.49844 96.33074 C 111.67665 96.18643 113.09089 94.10679 114.58714 91.76403 C 118.10006 86.26363 125.66701 79.93932 131.2599 77.91843 C 140.9265 74.36917 146.65257 73.66665 157.6185 74.81921 C 165.19788 75.61584 167.06234 75.97485 170.6584 77.43977 C 172.9558 78.33342 175.29566 79.34023 175.8587 79.67115 C 176.42176 80.00207 178.17031 80.94672 179.7095 81.81503 C 186.74053 85.76057 195.51188 92.28035 200.27408 97.12875 C 201.36063 98.16687 202.83767 99.62647 203.58184 100.30252 C 204.32601 100.97857 205.67004 102.15245 206.4623 102.8879 C 207.3027 103.68276 208.11756 104.20319 208.24202 104.05323 C 208.95487 103.47597 207.9077 101.02893 206.50993 99.8494 C 205.6045 99.1564 203.16262 97.05191 201.13383 95.15387 C 194.09392 88.70738 193.03852 87.88992 184.84168 82.62618 C 176.75235 77.37375 169.76104 74.08456 163.14342 72.41075 C 158.54022 71.220404 149.33125 70.41555 146.07499 70.888525 Z"/>
            </g>
            <g>
               <path d="M 143.90302 76.04073 C 138.82766 76.7573 132.70853 78.61417 129.0847 80.51592 C 125.34772 82.46013 119.5968 87.01877 118.23066 89.15782 C 117.71022 89.97269 116.52504 91.42422 115.72454 92.31836 C 113.8265 94.34715 112.21742 98.79763 111.75979 103.15175 C 111.1693 108.25278 111.58239 108.45924 115.95006 105.16827 C 120.79862 101.4387 122.70811 100.33504 128.55557 97.96047 C 141.846 92.50946 156.12452 91.61887 168.7657 95.44753 C 173.50192 96.9236 180.40542 99.49703 182.36334 100.51804 C 182.9264 100.84896 185.35116 102.08209 187.78157 103.26145 C 193.41482 106.02747 206.82343 114.4477 210.1651 117.29895 C 212.30704 119.15453 212.77388 119.36664 213.1161 118.69608 C 213.45832 118.02552 213.51175 115.9659 213.1973 113.26978 C 213.04152 112.16644 212.33125 111.16786 209.8214 108.67579 C 208.39247 107.27559 205.68457 104.59965 203.81704 102.71857 C 192.64869 91.59898 178.25813 81.66248 167.38793 77.53082 C 165.08488 76.69093 147.48746 75.54789 143.90302 76.04073 Z"/>
            </g>
            <g>
               <path d="M 118.81662 73.240994 C 118.16317 73.77015 118.14057 73.98516 118.61903 76.15504 C 118.82856 77.26403 118.88232 77.26968 119.74223 76.32744 C 121.5271 74.3411 120.71755 71.701645 118.81662 73.240994 Z"/>
            </g>
            <g>
               <path d="M 152.00576 94.60991 C 137.59988 95.16103 123.65019 100.16231 114.00408 108.17029 C 110.90941 110.72549 110.45419 112.47114 110.75251 120.4917 C 110.8237 123.43399 110.92879 126.05375 110.9062 126.26877 C 110.8045 127.23635 112.48493 126.7608 114.43397 125.28085 C 115.60511 124.48002 119.18083 122.51886 122.43693 121.01325 C 138.08659 113.79932 151.6408 112.56085 169.78755 116.75078 C 181.83162 119.53842 199.15269 126.41333 210.17317 132.73472 C 212.83846 134.26487 215.22642 135.33108 215.46404 135.13866 C 215.76106 134.89813 215.8597 132.40848 215.72344 129.56804 C 215.46242 124.8123 215.2558 124.19276 213.70514 122.39933 C 212.77985 121.37815 211.34527 120.03171 210.5304 119.51128 C 209.71552 118.99084 208.10837 117.73496 206.90866 116.73929 C 202.06171 112.69721 187.50166 104.37335 178.56098 100.49884 C 169.09405 96.46031 159.6444 94.3258 152.00576 94.60991 Z"/>
            </g>
            <g>
               <path d="M 150.31163 115.89944 C 142.40132 115.66587 136.565 116.90029 126.07803 121.0155 C 118.81892 123.89388 110.62935 128.90274 110.3948 130.61724 C 109.92006 134.09998 109.81885 138.16547 110.19287 141.84612 C 110.7937 148.53976 110.69184 148.4747 116.02419 144.79599 C 128.63227 136.01236 137.68224 133.15917 156.7646 132.06695 C 160.64897 131.82304 169.78724 132.7835 173.48225 133.82405 C 186.89296 137.57055 199.06747 142.21974 204.77723 145.80902 C 205.34028 146.13994 208.413 147.9303 211.5395 149.72631 L 217.3369 152.99871 L 217.56855 150.79478 C 217.85104 148.10705 217.5219 141.9311 216.97272 139.91684 C 216.70379 138.85595 215.671 137.82348 213.83752 136.6525 C 212.30964 135.67669 210.943 134.71783 210.81 134.4321 C 210.67698 134.14638 210.16204 133.87487 209.67825 133.82402 C 209.19446 133.77317 207.01586 132.78331 204.90798 131.63784 C 202.8001 130.49238 199.17287 128.80678 196.88112 127.85938 C 194.59502 126.85822 190.74148 125.25754 188.29411 124.23943 C 183.45314 122.20887 181.40756 121.50474 174.65693 119.5452 C 170.2263 118.2643 157.59948 115.8502 156.0067 116.00889 C 155.57101 116.01744 152.96255 116.01502 150.31163 115.89944 Z"/>
            </g>
            <g>
               <path d="M 155.92455 133.33737 C 147.96904 133.53383 143.94327 134.08897 138.45498 135.63172 C 129.9453 137.99821 124.576 140.47738 117.8943 145.10124 C 111.80664 149.24406 109.90861 151.27285 109.64307 153.79931 C 109.52442 154.92816 109.63774 155.91834 109.96027 155.95224 C 110.22904 155.98048 110.52041 155.79372 110.54866 155.52494 C 110.65601 154.5036 116.77175 149.05938 119.71662 147.41236 C 133.66583 139.31318 143.68902 136.50793 157.01433 136.9302 C 164.86523 137.21188 177.83993 138.90167 179.8997 139.98773 C 180.62402 140.3356 182.10655 140.70882 183.18164 140.82181 C 185.38557 141.05346 190.81785 143.14616 193.99808 144.94782 C 195.12418 145.60967 196.5247 146.246 197.11036 146.3619 C 198.061 146.62486 201.64866 148.68674 205.04682 151.00044 C 205.75983 151.45582 207.13776 152.30718 208.10824 152.89831 C 210.36045 154.222 213.53794 156.56685 217.50205 159.70091 C 219.1573 161.0162 220.66824 162.15328 220.88326 162.17588 C 221.68958 162.26063 221.42613 160.11335 220.36783 158.80646 C 218.7011 156.56604 214.8529 152.84633 214.20785 152.77853 C 213.83156 152.73898 212.23862 151.86503 210.66263 150.82981 C 206.74388 148.29835 203.35427 146.42033 198.95463 144.32746 C 196.9373 143.35456 194.87187 142.32225 194.30882 141.99133 C 190.76926 139.98885 170.97855 134.37613 164.4431 133.47183 C 163.09924 133.33058 159.30253 133.25762 155.92455 133.33737 Z"/>
            </g>
            <g>
               <path d="M 153.63942 138.53203 C 143.78556 138.692 136.1161 140.82072 124.80328 146.58828 C 117.28121 150.41729 109.97738 156.8236 111.27621 158.42752 C 111.56484 158.78395 111.87041 158.97911 111.99487 158.82915 C 115.89554 154.29343 124.46978 148.72717 132.40785 145.59406 C 135.12931 144.52139 137.72067 143.65244 138.09695 143.69199 C 138.47323 143.73154 139.9217 143.39464 141.2683 142.99269 C 142.62056 142.53699 146.8189 141.89128 150.5533 141.52291 C 165.771 139.97015 186.78368 144.29826 201.83592 152.07602 C 204.4163 153.37985 211.0654 157.3396 213.19878 158.75949 C 214.10987 159.39873 214.16362 159.40438 213.50146 158.4652 C 213.18167 157.88812 211.832 156.76799 210.50218 155.97604 C 209.23176 155.13599 206.74469 153.46153 204.91687 152.2368 C 200.30205 149.0887 189.71467 144.33457 183.68835 142.72291 C 180.88456 141.99344 177.56018 141.0462 176.23891 140.68993 C 172.39393 139.52493 160.34162 138.36688 153.63942 138.53203 Z"/>
            </g>
            <g>
               <path d="M 147.71594 143.18123 C 136.09124 144.67684 124.99328 149.43437 116.81534 156.40099 C 112.58633 159.92393 112.50998 160.1333 112.9405 163.2764 C 113.15003 164.3854 113.5042 167.73787 113.83852 170.76216 C 114.31456 175.5405 114.73104 179.3343 115.79339 188.3591 C 117.39118 202.1141 118.14181 207.89958 119.69683 219.47617 C 120.65425 226.91382 121.86656 236.06306 122.39055 239.86817 C 123.48953 248.02723 127.35794 272.2384 127.94392 274.41956 C 128.13359 275.20037 128.26677 276.51873 128.18202 277.32505 C 127.93633 280.1797 131.20729 283.18655 137.73177 286.26362 C 142.34077 288.43285 147.10523 289.64014 156.40767 291.107 C 164.10877 292.29686 164.94898 292.05908 165.82552 288.8903 C 166.87171 285.14153 169.00122 279.87617 170.49182 277.58717 C 171.8523 275.50188 171.96821 274.91623 174.1547 254.11323 C 175.6661 240.25022 176.33246 231.84192 176.13697 230.08222 C 175.90758 228.64506 175.98313 223.2725 176.25109 218.13758 C 177.25788 197.69973 177.34326 182.92596 176.60214 165.674 C 176.4659 162.83356 176.30092 157.164 176.28897 153.14096 C 176.22326 149.11228 176.16612 145.51928 176.0444 145.12605 C 175.86038 144.29149 170.7876 143.43223 161.61543 142.79428 C 156.27679 142.39621 152.95256 142.48161 147.71594 143.18123 Z"/>
            </g>
            <g>
               <path d="M 177.73904 145.03243 C 177.60893 145.23614 177.5187 147.12885 177.51902 149.19412 C 177.67335 159.10174 177.87853 168.52557 178.14586 177.3581 C 178.29663 182.64573 178.27775 188.51336 178.08 190.39477 C 177.88226 192.27618 177.88566 195.86352 177.9964 198.42953 C 178.1609 201.0012 178.00044 206.14742 177.67 209.80838 C 177.33392 213.5231 177.13376 218.01296 177.21609 219.8151 C 177.29293 222.70365 177.02578 233.00175 176.53231 243.38477 C 176.49018 245.33688 175.81236 252.82006 175.05529 260.02316 L 173.73613 273.09116 L 177.13348 270.24168 C 180.34697 267.59027 186.16036 264.5056 187.61173 264.65814 C 187.98801 264.6977 189.43648 264.3608 190.84814 263.857 C 194.33911 262.70215 199.79366 262.51457 204.4251 263.43614 C 208.90094 264.287 208.34935 264.8812 211.10357 256.25757 C 213.13106 249.89452 214.32948 242.6291 216.45414 224.48268 C 217.86675 212.0767 219.56073 189.75452 219.28291 186.19268 C 219.17234 184.6593 219.20575 181.23887 219.32133 178.58795 C 219.67387 171.61407 219.62512 167.42413 219.19766 165.8031 C 218.80701 164.34898 216.29443 162.4001 207.6845 156.9299 C 200.70998 152.44681 195.51532 150.16169 184.57732 146.67508 C 177.58617 144.41853 178.11807 144.52878 177.73904 145.03243 Z"/>
            </g>
            <g>
               <path d="M 220.50087 195.28817 C 220.41048 196.14824 220.76432 197.43544 221.24537 198.02949 C 222.25557 199.27698 225.31408 200.6854 227.57177 200.9227 C 228.3781 201.00745 230.1662 201.57582 231.62047 202.2178 C 233.6972 203.1426 234.33952 203.7536 234.88013 205.33218 C 235.5962 207.30963 240.93018 213.95727 243.05793 215.43091 C 243.60968 215.86934 245.31578 216.70084 246.72195 217.28342 C 249.16932 218.30153 249.36173 218.53915 249.7808 220.75712 C 250.02148 222.08678 249.87217 226.09286 249.47103 229.90943 C 248.77884 235.97804 248.49328 237.1437 246.59558 241.23776 C 244.47446 245.90617 244.2031 247.45375 245.71097 247.06875 C 246.60494 246.83662 247.47325 245.29743 248.77126 241.73817 C 249.2888 240.43386 250.15144 238.94842 250.75114 238.41362 C 253.14426 236.32817 254.87473 230.20565 254.22903 226.0073 C 253.994 224.6239 253.8069 222.26725 253.75572 220.68577 C 253.68163 217.25404 252.68838 215.84528 249.47424 214.36615 C 248.07372 213.72981 246.74955 212.8841 246.41847 212.41453 C 246.1355 212.00435 245.38002 211.4358 244.69816 211.2011 C 243.17883 210.66097 239.3219 205.47294 238.16997 202.4714 C 237.70296 201.22665 236.90213 200.05552 236.4353 199.8434 C 235.96845 199.6313 234.57923 198.88745 233.39937 198.21996 C 232.1714 197.49306 230.01268 196.83138 228.40004 196.6619 C 226.62614 196.47544 224.8918 195.91272 223.777 195.14337 C 221.2418 193.4095 220.69297 193.46052 220.50087 195.28817 Z"/>
            </g>
            <g>
               <path d="M 191.78473 264.77065 C 182.80821 266.92504 176.78561 270.966 172.72965 277.49628 C 169.12343 283.3673 164.85342 296.0708 164.03694 303.32202 C 163.5341 308.10617 163.45775 308.31554 162.1875 308.50812 C 159.37822 308.86503 143.88546 306.31276 140.71944 304.89303 C 139.00203 304.16904 136.81214 303.2867 135.8134 302.96433 C 133.34344 302.16124 129.47844 299.63543 126.40556 296.81243 C 123.82501 294.47597 119.85493 289.3304 119.94532 288.4703 C 120.04137 287.5565 119.02294 287.9386 116.38364 289.78077 C 107.68785 295.98643 102.74794 312.47826 106.62828 322.61445 C 111.57564 335.52586 115.36994 338.2073 125.71857 335.92537 C 128.83616 335.22042 134.78273 333.4541 136.54517 332.71543 C 137.56925 332.27958 144.76073 331.0789 147.71432 330.9002 C 150.29163 330.68194 155.30517 332.62194 156.80772 334.35597 C 157.53494 335.1933 157.88878 336.4805 157.8778 338.65326 C 157.84844 349.7916 157.99889 353.01395 158.53417 356.71155 C 158.89383 358.97763 159.44607 362.51397 159.72647 364.49998 C 160.48823 369.1453 162.6762 375.734 164.55244 379.08342 C 167.12765 383.5389 171.45982 388.3421 174.73626 390.26258 C 177.60527 391.92283 178.29278 392.1038 184.37834 392.6347 C 194.65675 393.6063 199.69805 392.17964 207.07549 386.10715 C 215.14883 379.61867 218.59637 372.15486 219.36959 359.6273 C 219.87484 352.2347 219.15536 346.6699 216.92786 340.45746 C 215.75607 337.12775 211.85927 330.25073 211.16046 330.17728 C 209.9241 330.04733 211.06118 328.5364 213.69483 326.74796 C 218.43313 323.5503 223.9177 316.35493 226.0924 310.65954 C 227.58559 306.7947 228.98384 292.97414 228.28164 289.31335 C 226.41007 279.71438 222.06353 273.4966 213.3942 268.07452 C 208.2475 264.81616 208.08622 264.7992 202.66832 264.12107 C 197.62104 263.53623 196.69592 263.5477 191.78473 264.77065 Z"/>
            </g>
            <g>
               <path d="M 126.98345 283.55783 C 126.8309 285.0092 127.18749 285.7532 128.74944 287.43913 C 131.0018 289.79544 138.01879 294.3917 141.20741 295.5964 C 146.48972 297.56465 152.15671 298.9755 157.10212 299.4953 L 162.47758 300.06027 L 163.48712 297.17722 C 164.0329 295.60413 164.41176 294.06785 164.27875 293.78213 C 164.14009 293.55016 159.6105 292.69364 154.252 291.9674 C 141.50362 290.1927 136.38258 288.2414 129.89168 282.77653 C 127.79783 280.98035 127.23769 281.13887 126.98345 283.55783 Z"/>
            </g>
            <g>
               <path d="M 121.6653 287.61848 C 121.49016 289.28487 126.4987 295.40916 130.34675 298.09624 C 136.21503 302.24566 142.19615 304.28736 153.4281 306.01137 C 161.93552 307.28597 161.98927 307.29162 162.36781 303.69007 C 162.49776 302.4537 162.30808 301.6729 161.87804 301.6277 C 156.19137 300.9213 145.34974 298.58615 142.16111 297.38144 C 134.99449 294.726 125.31206 287.56698 125.42198 284.9698 C 125.42473 284.42662 125.44442 283.72216 125.42457 283.39398 C 125.43005 282.3076 121.85466 286.33402 121.6653 287.61848 Z"/>
            </g>
            <g>
               <path d="M 139.96577 333.78147 C 138.35604 334.1014 135.05458 335.00443 132.57638 335.83093 C 128.12638 337.31976 125.00313 338.07846 122.1401 338.4297 C 120.59542 338.6478 119.98169 339.8333 121.11909 340.38764 C 121.47842 340.58846 124.63008 340.5936 128.07311 340.412 C 135.22795 340.07705 150.60997 340.0633 153.99086 340.473 C 156.51732 340.73855 156.90764 340.1274 156.12634 337.21916 C 155.24593 333.7027 148.4388 332.2807 139.96577 333.78147 Z"/>
            </g>
            <g>
               <path d="M 134.72463 341.7633 C 129.0126 341.8151 124.04185 342.05355 123.63732 342.28277 C 123.10833 342.66196 123.3206 343.22775 124.57133 344.77226 C 126.45306 347.0353 128.45053 347.68 128.19564 345.9684 C 128.09087 345.41393 128.37369 344.79147 128.71882 344.61035 C 129.68914 344.16885 130.29481 345.64557 129.5056 346.4322 C 129.01907 346.92454 129.43216 347.131 131.42107 347.34005 C 133.5175 347.5604 133.85132 347.48678 133.43533 346.79088 C 133.00804 346.2025 133.0957 345.8856 133.79725 345.41586 C 134.4988 344.9461 134.70817 345.02246 134.90914 345.69577 C 135.01956 346.1965 134.95176 346.84156 134.70284 347.1415 C 134.45392 347.4414 135.45266 347.7638 137.54909 347.98413 C 140.23681 348.2666 140.73755 348.1562 140.59033 347.48855 C 140.42616 346.98216 140.67508 346.68223 141.15887 346.73308 C 141.5889 346.77828 142.0275 347.25916 142.07851 347.808 C 142.3192 349.13766 144.74945 349.2844 145.09441 348.07064 C 145.42808 346.9644 146.9445 347.0151 146.82585 348.14393 C 146.75806 348.789 147.65493 349.0463 151.63277 349.4644 L 156.52443 349.9785 L 156.47019 346.87496 C 156.38737 341.9749 156.74105 342.22947 150.51409 342.00978 C 147.48688 341.85465 140.37725 341.75958 134.72463 341.7633 Z"/>
            </g>
            <g>
               <path d="M 125.67531 348.74703 C 125.09548 349.61 123.33692 357.03394 121.65778 365.7706 C 121.27053 367.9038 120.67988 371.9722 120.38044 374.8212 L 119.8324 380.0354 L 123.24735 381.1552 C 127.76854 382.60865 143.5044 383.8821 148.57977 383.16555 C 154.86033 382.35826 161.55672 381.21424 162.24697 380.852 C 162.759 380.63407 162.42211 379.1856 161.08906 375.83895 C 160.05885 373.23064 158.95776 369.7453 158.64347 368.08184 C 158.38293 366.424 157.8336 363.3771 157.40324 361.26664 C 157.02663 359.1618 156.80838 356.5845 156.91008 355.61693 C 157.33381 351.58534 157.85441 351.8031 142.21185 350.159 C 134.4712 349.34542 128.0376 348.5062 127.8933 348.32797 C 127.36414 347.67452 126.19575 347.93216 125.67531 348.74703 Z"/>
            </g>
            <g>
               <path d="M 221.18966 365.57953 C 220.90975 366.69143 221.23518 367.21477 223.00924 368.43385 C 224.52583 369.51717 225.53038 370.8184 226.43323 373.08724 C 228.20213 377.458 231.22724 382.28684 233.1456 383.68414 C 234.70465 384.8806 236.38574 388.5356 236.62384 391.4411 C 236.73716 392.43127 236.00752 394.2024 234.48868 396.7602 C 231.7112 401.4683 230.94767 403.562 231.5958 405.1519 C 232.23826 406.7955 232.94546 406.272 233.6212 403.46257 C 233.97745 402.1413 235.12566 399.4902 236.20043 397.53795 C 239.2352 391.93295 239.27476 391.55666 237.59626 386.32585 C 236.42157 382.5067 235.51032 380.83482 232.81646 377.5082 C 230.84417 375.0726 229.03588 372.1108 228.31415 370.1871 C 227.4339 367.70323 226.72363 366.70466 224.8958 365.47993 C 222.25312 363.73477 221.60242 363.72072 221.18966 365.57953 Z"/>
            </g>
            <g>
               <path d="M 157.00211 383.1812 C 154.84354 383.55216 150.38208 384.11586 147.09466 384.36817 C 139.36273 385.0229 126.38529 383.87632 122.06491 382.06353 C 118.78008 380.74 117.8748 381.07964 118.62204 383.27777 C 118.94473 384.3443 119.39462 384.7177 120.16979 384.58176 C 120.77804 384.48264 121.45424 384.7711 121.78533 385.2407 C 122.44184 386.2336 123.88757 386.4399 124.83803 385.67024 C 125.37267 385.2373 125.68955 385.32495 126.0999 386.0746 C 126.56399 386.8299 127.46087 387.08723 130.48242 387.2961 C 133.06829 387.51355 134.27914 387.36907 134.32998 386.8853 C 134.40343 386.18647 135.1786 386.05055 135.2183 386.7069 C 135.18457 388.06207 139.34062 388.33584 139.48186 386.99198 C 139.52706 386.56194 139.93724 386.27896 140.36728 386.32416 C 140.79731 386.36936 141.13404 386.7852 141.0832 387.269 C 141.0154 387.91403 141.32098 388.1092 142.2093 387.9308 C 142.92506 387.843 143.80208 387.77214 144.1246 387.80604 C 144.50089 387.8456 144.86296 387.5032 144.90816 387.07317 C 144.95336 386.64313 145.20793 386.28945 145.53045 386.32335 C 145.79923 386.3516 146.03975 386.6486 146.00585 386.97115 C 145.9211 387.77746 149.26793 387.47705 149.89587 386.67348 C 150.26924 386.2236 150.53802 386.25183 151.03036 386.73837 C 151.5227 387.2249 153.2598 387.24443 157.70431 386.842 C 161.05679 386.48783 164.36116 386.07425 165.0288 385.92703 C 166.57913 385.6552 166.4403 384.3906 164.81072 384.38236 C 163.61117 384.41933 163.26589 383.5678 164.43428 383.31017 C 164.7681 383.23656 164.96892 382.87723 164.7878 382.5321 C 164.47932 381.8475 163.76356 381.9353 157.00211 383.1812 Z"/>
            </g>
            <g>
               <g  id="outline-1">
                  <path 
                        d="M 159.96466 98.0008 C 159.631 99.10705 158.04952 99.15822 158.17381 97.97562 C 158.21901 97.54558 158.69425 97.16075 159.2431 97.10974 C 160.0126 97.02757 160.20502 97.26519 159.96466 98.0008 Z"
                        fill="black"/>
               </g>
            </g>
            <g>
               <g  id="outline-2">
                  <path 
                        d="M 153.59903 97.54914 C 153.46343 98.83925 152.24403 98.54804 152.1165 97.17593 C 152.0655 96.62708 152.37381 96.27905 152.8576 96.3299 C 153.39515 96.3864 153.66683 96.90408 153.59903 97.54914 Z"
                        fill="black"/>
               </g>
            </g>
            <g>
               <g  id="outline-3">
                  <path 
                        d="M 165.93997 99.06362 C 165.88347 99.60116 165.47894 99.83039 164.89894 99.66073 C 163.7927 99.32706 164.0019 98.37078 165.15334 98.27441 C 165.70219 98.2234 165.99647 98.52607 165.93997 99.06362 Z"
                        fill="black"/>
               </g>
            </g>
            <g>
               <g  id="outline-4">
                  <path 
                        d="M 172.1926 100.59037 C 172.0512 100.9016 171.70607 101.08272 171.4373 101.05447 C 171.16852 101.02622 170.8686 100.7773 170.79499 100.44347 C 170.72138 100.10965 171.07215 99.87477 171.55594 99.92562 C 172.03973 99.97647 172.33401 100.27914 172.1926 100.59037 Z"
                        fill="black"/>
               </g>
            </g>
            <g>
               <g  id="outline-5">
                  <path 
                        d="M 145.8813 98.58582 C 145.8248 99.12336 145.42028 99.35259 144.84028 99.18293 C 143.73403 98.84926 143.94324 97.89298 145.09468 97.79661 C 145.64352 97.7456 145.9378 98.04827 145.8813 98.58582 Z"
                        fill="black"/>
               </g>
            </g>
            <g>
               <g  id="outline-6">
                  <path 
                        d="M 177.75208 101.98992 C 178.17937 102.57831 177.50897 103.26873 176.59515 103.17268 C 176.16511 103.12748 175.88213 102.7173 175.92733 102.28726 C 176.01208 101.48095 177.17482 101.27707 177.75208 101.98992 Z"
                        fill="black"/>
               </g>
            </g>
            <g>
               <g  id="outline-7">
                  <path 
                        d="M 139.64594 98.96307 C 139.95168 100.19087 139.29824 100.72002 138.57667 99.82896 C 138.14372 99.29432 138.17762 98.97179 138.71226 98.53885 C 139.2469 98.1059 139.45062 98.23601 139.64594 98.96307 Z"
                        fill="black"/>
               </g>
            </g>
            <g>
               <g  id="outline-8">
                  <path 
                        d="M 183.28912 104.63712 C 183.24392 105.06716 182.97805 105.52835 182.69233 105.66136 C 182.06148 105.9755 181.02013 104.50734 181.55477 104.0744 C 182.26762 103.49714 183.36822 103.88456 183.28912 104.63712 Z"
                        fill="black"/>
               </g>
            </g>
            <g>
               <g  id="outline-9">
                  <path 
                        d="M 188.2405 107.16842 C 188.36787 107.5079 188.26327 107.98604 188.02565 108.17846 C 187.3128 108.75571 186.01123 107.69499 186.52036 106.98763 C 187.08325 106.28591 187.83581 106.36501 188.2405 107.16842 Z"
                        fill="black"/>
               </g>
            </g>
            <g>
               <g  id="outline-10">
                  <path 
                        d="M 132.47174 102.06776 C 132.42654 102.4978 132.01071 102.83453 131.58067 102.78933 C 131.15064 102.74414 130.8139 102.3283 130.8591 101.89827 C 130.9043 101.46823 131.32013 101.1315 131.75017 101.1767 C 132.1802 101.2219 132.51694 101.63773 132.47174 102.06776 Z"
                        fill="black"/>
               </g>
            </g>
            <g>
               <g  id="outline-11">
                  <path 
                        d="M 193.01094 110.38723 C 192.87534 111.67734 191.65594 111.38613 191.52841 110.01402 C 191.4774 109.46517 191.78572 109.11714 192.26951 109.16799 C 192.80706 109.22449 193.07874 109.74218 193.01094 110.38723 Z"
                        fill="black"/>
               </g>
            </g>
            <g>
               <g  id="outline-12">
                  <path 
                        d="M 196.44574 111.83521 C 196.88724 112.80553 195.54354 113.69692 194.87007 112.86526 C 194.29282 112.15241 194.8415 111.06876 195.64782 111.15351 C 195.9166 111.18176 196.26462 111.49008 196.44574 111.83521 Z"
                        fill="black"/>
               </g>
            </g>
            <g>
               <g  id="outline-13">
                  <path 
                        d="M 126.51677 104.43103 C 126.87336 105.17504 126.12096 106.12858 125.51546 105.6845 C 124.9156 105.18666 125.06815 103.73529 125.7132 103.80309 C 126.03573 103.83699 126.38941 104.09155 126.51677 104.43103 Z"
                        fill="black"/>
               </g>
            </g>
            <g>
               <g  id="outline-14">
                  <path 
                        d="M 200.18063 114.56474 C 200.12978 115.04853 199.71395 115.38526 199.23016 115.33442 C 198.31634 115.23837 198.6019 114.07272 199.60338 113.85189 C 199.99096 113.78393 200.23148 114.08095 200.18063 114.56474 Z"
                        fill="black"/>
               </g>
            </g>
            <g>
               <g  id="outline-15">
                  <path 
                        d="M 204.24644 116.73122 C 206.68832 118.83572 203.33924 122.77723 200.89171 120.72649 C 200.33996 120.28806 199.90411 119.26398 199.8757 118.50012 C 199.82744 117.40808 200.20081 116.95819 201.50496 116.44308 C 202.97603 115.89117 203.2448 115.91942 204.24644 116.73122 Z"
                        fill="black"/>
               </g>
            </g>
            <g>
               <path d="M 201.94372 117.9566 C 201.92967 118.6073 202.69919 118.52514 202.98765 117.84893 C 203.18282 117.54335 202.9904 117.30573 202.60282 117.3737 C 202.26334 117.50106 201.96632 117.74158 201.94372 117.9566 Z"/>
            </g>
            <g>
               <g  id="outline-16">
                  <path 
                        d="M 120.828 108.39838 C 120.71775 108.93027 120.30192 109.267 120.03315 109.23875 C 119.23248 109.10025 119.52369 107.88085 120.35825 107.69682 C 120.859 107.58641 121.04576 107.87778 120.828 108.39838 Z"
                        fill="black"/>
               </g>
            </g>
            <g>
               <g  id="outline-17">
                  <path 
                        d="M 208.58393 119.41539 C 209.11309 120.06884 208.77652 120.68564 207.9702 120.6009 C 207.54016 120.5557 207.18648 120.30113 207.21473 120.03236 C 207.28818 119.33355 208.1991 118.94016 208.58393 119.41539 Z"
                        fill="black"/>
               </g>
            </g>
            <g>
               <g  id="outline-18">
                  <path 
                        d="M 117.3091 111.88726 C 117.2526 112.4248 116.84807 112.65402 116.26807 112.48437 C 115.16183 112.1507 115.37103 111.19442 116.52248 111.09805 C 117.07132 111.04704 117.3656 111.34971 117.3091 111.88726 Z"
                        fill="black"/>
               </g>
            </g>
            <g>
               <g  id="outline-19">
                  <path 
                        d="M 211.29475 122.58077 C 211.2665 122.84954 210.96947 123.09007 210.7007 123.06182 C 210.37818 123.02792 210.1914 122.73655 210.21966 122.46777 C 210.25355 122.14525 210.49117 121.95283 210.8137 121.98673 C 211.08247 122.01498 211.32864 122.25824 211.29475 122.58077 Z"
                        fill="black"/>
               </g>
            </g>
            <g>
               <g  id="outline-20">
                  <path 
                        d="M 213.4028 124.75888 C 213.78763 125.23411 213.21345 126.04333 212.51464 125.96989 C 212.24586 125.94164 212.0704 125.54276 212.1156 125.11272 C 212.20034 124.3064 212.87364 124.10543 213.4028 124.75888 Z"
                        fill="black"/>
               </g>
            </g>
            <g>
               <g  id="outline-21">
                  <path 
                        d="M 113.74484 114.77354 C 113.69964 115.20357 113.39132 115.5516 113.12255 115.52336 C 112.80002 115.48946 112.62455 115.09058 112.66975 114.66054 C 112.71495 114.2305 112.96952 113.87682 113.29204 113.91072 C 113.56082 113.93897 113.79004 114.3435 113.74484 114.77354 Z"
                        fill="black"/>
               </g>
            </g>
            <g>
               <g  id="outline-22">
                  <path 
                        d="M 213.8138 129.63907 C 213.76294 130.12286 213.46027 130.41714 213.14904 130.27573 C 212.83781 130.13433 212.60294 129.78355 212.6312 129.51478 C 212.65944 129.246 212.9621 128.95173 213.29594 128.87812 C 213.62976 128.8045 213.86464 129.15528 213.8138 129.63907 Z"
                        fill="black"/>
               </g>
            </g>
            <g>
               <g  id="outline-23">
                  <path 
                        d="M 162.449 118.31645 C 162.8763 118.90484 162.2059 119.59526 161.29208 119.49921 C 160.86204 119.45401 160.57906 119.04383 160.62426 118.6138 C 160.709 117.80748 161.87175 117.6036 162.449 118.31645 Z"
                        fill="black"/>
               </g>
            </g>
            <g>
               <g  id="outline-24">
                  <path 
                        d="M 156.3239 118.16181 C 156.2787 118.59185 155.86287 118.92858 155.43284 118.88338 C 155.0028 118.83818 154.66607 118.42235 154.71127 117.99232 C 154.75646 117.56228 155.1723 117.22555 155.60233 117.27074 C 156.03237 117.31594 156.3691 117.73177 156.3239 118.16181 Z"
                        fill="black"/>
               </g>
            </g>
            <g>
               <g  id="outline-25">
                  <path 
                        d="M 168.43852 119.7612 C 168.78946 120.55896 167.66078 121.47295 166.95341 120.96381 C 166.65348 120.7149 166.42426 120.31037 166.4525 120.0416 C 166.52596 119.34279 168.12439 119.13035 168.43852 119.7612 Z"
                        fill="black"/>
               </g>
            </g>
            <g>
               <g  id="outline-26">
                  <path 
                        d="M 149.03314 117.72161 C 149.48594 118.58443 148.73063 119.04852 148.10527 118.27627 C 147.76854 117.86044 147.80244 117.53791 148.14757 117.35679 C 148.48704 117.22943 148.90578 117.38213 149.03314 117.72161 Z"
                        fill="black"/>
               </g>
            </g>
            <g>
               <g  id="outline-27">
                  <path 
                        d="M 143.70596 118.24867 C 143.56455 118.5599 143.21942 118.74101 142.95065 118.71276 C 142.68188 118.68452 142.38195 118.4356 142.30834 118.10177 C 142.23473 117.76795 142.5855 117.53307 143.0693 117.58392 C 143.55309 117.63477 143.84737 117.93744 143.70596 118.24867 Z"
                        fill="black"/>
               </g>
            </g>
            <g>
               <g  id="outline-28">
                  <path 
                        d="M 174.82708 122.06311 C 174.68567 122.37434 174.34054 122.55546 174.07177 122.52721 C 173.803 122.49896 173.50307 122.25004 173.42946 121.91622 C 173.35585 121.58239 173.70662 121.34752 174.19042 121.39836 C 174.6742 121.44921 174.96848 121.75188 174.82708 122.06311 Z"
                        fill="black"/>
               </g>
            </g>
            <g>
               <g  id="outline-29">
                  <path 
                        d="M 179.93392 123.63248 C 179.7444 123.8843 179.33987 124.11353 179.01735 124.07963 C 178.74857 124.05138 178.5618 123.76001 178.59005 123.49124 C 178.62395 123.16871 179.02283 122.99324 179.50662 123.04409 C 179.93666 123.08929 180.12908 123.3269 179.93392 123.63248 Z"
                        fill="black"/>
               </g>
            </g>
            <g>
               <g  id="outline-30">
                  <path 
                        d="M 137.41136 119.70666 C 137.53872 120.04614 137.28415 120.39982 136.78341 120.51024 C 135.71688 120.83293 135.17078 120.34074 135.79307 119.59092 C 136.3022 118.88356 137.05477 118.96266 137.41136 119.70666 Z"
                        fill="black"/>
               </g>
            </g>
            <g>
               <g  id="outline-31">
                  <path 
                        d="M 186.51763 125.62882 C 186.46114 126.16636 185.94345 126.43804 185.2984 126.37024 C 184.00828 126.23465 184.2995 125.01524 185.6716 124.88772 C 186.22045 124.8367 186.56848 125.14503 186.51763 125.62882 Z"
                        fill="black"/>
               </g>
            </g>
            <g>
               <g  id="outline-32">
                  <path 
                        d="M 191.20864 127.53492 C 191.1352 128.23373 190.82688 128.58176 190.4138 128.3753 C 190.10256 128.23389 189.82523 127.76995 189.86478 127.39367 C 189.90433 127.01739 190.27206 126.62125 190.61153 126.49389 C 191.05287 126.43158 191.2821 126.83611 191.20864 127.53492 Z"
                        fill="black"/>
               </g>
            </g>
            <g>
               <g  id="outline-33">
                  <path 
                        d="M 132.61623 121.37661 C 132.54278 122.07542 132.23446 122.42345 131.82137 122.21699 C 131.51015 122.07558 131.23282 121.61164 131.27237 121.23536 C 131.31192 120.85908 131.67964 120.46294 132.01912 120.33558 C 132.46045 120.27327 132.68968 120.6778 132.61623 121.37661 Z"
                        fill="black"/>
               </g>
            </g>
            <g>
               <g  id="outline-34">
                  <path 
                        d="M 196.44285 129.44376 C 196.38635 129.98131 195.98182 130.21053 195.40182 130.04088 C 194.29558 129.70721 194.50478 128.75093 195.65623 128.65456 C 196.20507 128.60355 196.49935 128.90622 196.44285 129.44376 Z"
                        fill="black"/>
               </g>
            </g>
            <g>
               <g  id="outline-35">
                  <path 
                        d="M 127.33166 123.04946 C 127.45903 123.38894 127.29502 123.91518 126.9386 124.20381 C 126.40395 124.63675 126.14083 124.55475 125.8267 123.9239 C 125.42766 123.06673 125.78118 122.28866 126.53374 122.36776 C 126.80251 122.39601 127.15054 122.70433 127.33166 123.04946 Z"
                        fill="black"/>
               </g>
            </g>
            <g>
               <g  id="outline-36">
                  <path 
                        d="M 200.03052 131.50564 C 199.97967 131.98943 199.68265 132.22996 199.31767 132.0829 C 198.38399 131.65867 198.34702 130.45913 199.26085 130.55517 C 199.74464 130.60602 200.08137 131.02185 200.03052 131.50564 Z"
                        fill="black"/>
               </g>
            </g>
            <g>
               <g  id="outline-37">
                  <path 
                        d="M 205.19983 134.54898 C 205.02485 137.248 204.7958 137.87611 203.75476 138.47322 C 202.2979 139.40707 200.9823 138.99705 200.16725 137.44398 C 199.0862 135.31947 200.26846 133.3785 202.52615 133.61579 C 203.38622 133.70618 204.16704 133.51651 204.19529 133.24774 C 204.22919 132.92521 204.4668 132.73279 204.78933 132.76669 C 205.0581 132.79494 205.29588 133.63516 205.19983 134.54898 Z"
                        fill="black"/>
               </g>
            </g>
            <g>
               <path d="M 201.44864 136.11126 C 201.34695 137.07884 202.43899 137.03057 202.7076 136.02618 C 202.92536 135.50559 202.7386 135.21422 202.23785 135.32463 C 201.84462 135.44635 201.48254 135.78873 201.44864 136.11126 Z"/>
            </g>
            <g>
               <g  id="outline-38">
                  <path 
                        d="M 122.88473 126.06036 C 122.82823 126.5979 122.4237 126.82713 121.8437 126.65747 C 120.73746 126.32381 120.94666 125.36753 122.0981 125.27115 C 122.64695 125.22014 122.94123 125.52282 122.88473 126.06036 Z"
                        fill="black"/>
               </g>
            </g>
            <g>
               <g  id="outline-39">
                  <path 
                        d="M 210.19917 136.10705 C 210.64066 137.07738 209.29696 137.96877 208.6235 137.1371 C 208.04624 136.42425 208.59492 135.3406 209.40124 135.42535 C 209.67001 135.4536 210.01805 135.76192 210.19917 136.10705 Z"
                        fill="black"/>
               </g>
            </g>
            <g>
               <g  id="outline-40">
                  <path 
                        d="M 118.51399 127.82926 C 118.94128 128.41765 118.27089 129.10807 117.35706 129.01202 C 116.92702 128.96682 116.64405 128.55664 116.68924 128.1266 C 116.77399 127.32029 117.93673 127.1164 118.51399 127.82926 Z"
                        fill="black"/>
               </g>
            </g>
            <g>
               <g  id="outline-41">
                  <path 
                        d="M 213.838 139.75041 C 213.80976 140.01918 213.5297 140.09844 213.27787 139.90893 C 212.9723 139.71377 212.78552 139.4224 212.80247 139.26113 C 212.81377 139.15362 213.04009 139.06871 213.36261 139.10261 C 213.63139 139.13086 213.8719 139.42788 213.838 139.75041 Z"
                        fill="black"/>
               </g>
            </g>
            <g>
               <g  id="outline-42">
                  <path 
                        d="M 114.22267 130.91086 C 114.08708 132.20097 112.86767 131.90976 112.74015 130.53765 C 112.68914 129.9888 112.99746 129.64077 113.48125 129.69162 C 114.01879 129.74812 114.29047 130.26581 114.22267 130.91086 Z"
                        fill="black"/>
               </g>
            </g>
            <g>
               <g  id="outline-43">
                  <path 
                        d="M 215.1399 142.8764 C 215.0947 143.30644 214.80333 143.4932 214.5515 143.3037 C 214.24593 143.10853 214.07046 142.70965 214.10436 142.38712 C 214.13261 142.11835 214.37023 141.92593 214.69276 141.95983 C 214.96153 141.98808 215.19075 142.39261 215.1399 142.8764 Z"
                        fill="black"/>
               </g>
            </g>
            <g>
               <g  id="outline-44">
                  <path 
                        d="M 215.59028 146.34768 C 215.85066 146.97288 214.97655 147.53319 214.48985 146.9929 C 214.0569 146.45826 214.24351 145.717 214.78106 145.7735 C 215.10359 145.8074 215.40351 146.05631 215.59028 146.34768 Z"
                        fill="black"/>
               </g>
            </g>
            <g>
               <g  id="outline-45">
                  <path 
                        d="M 206.55873 158.33333 C 207.60557 158.7151 208.08404 160.88497 207.46465 162.12423 C 206.438 164.13591 202.9693 163.01046 202.63223 160.52936 C 202.28387 158.15577 203.8426 157.28698 206.55873 158.33333 Z"
                        fill="black"/>
               </g>
            </g>
            <g>
               <g  id="outline-46">
                  <path 
                        d="M 216.37838 174.5286 C 217.92338 176.37579 216.65362 179.66627 214.44968 179.43463 C 213.15958 179.29904 211.52967 177.22553 211.66526 175.93542 C 211.8065 174.59156 213.35102 173.34084 214.64113 173.47644 C 215.17867 173.53293 215.9992 173.99961 216.37838 174.5286 Z"
                        fill="black"/>
               </g>
            </g>
            <g>
               <path d="M 213.28355 176.05117 C 213.2553 176.31994 213.44207 176.6113 213.7646 176.6452 C 214.03337 176.67346 214.3304 176.43293 214.35864 176.16416 C 214.39254 175.84163 214.14636 175.59837 213.8776 175.57012 C 213.55506 175.53622 213.31745 175.72864 213.28355 176.05117 Z"/>
            </g>
            <g>
               <g  id="outline-47">
                  <path 
                        d="M 215.24956 192.50795 C 215.65134 192.82192 215.76466 193.8121 215.52156 195.09091 C 215.15125 197.06288 215.03244 197.1591 213.3123 196.9783 C 211.6459 196.80315 211.39974 196.55988 211.14484 194.8483 C 210.92676 193.30362 211.07947 192.88488 211.89418 192.37268 C 213.05401 191.67936 214.29602 191.75555 215.24956 192.50795 Z"
                        fill="black"/>
               </g>
            </g>
            <g>
               <path d="M 212.08401 194.18613 C 212.22833 194.36434 212.70647 194.46894 213.0997 194.34723 C 213.54669 194.23116 213.40237 194.05295 212.81107 193.9908 C 212.22542 193.8749 211.88595 194.00227 212.08401 194.18613 Z"/>
            </g>
            <g>
               <g  id="outline-48">
                  <path 
                        d="M 213.38818 211.76902 C 214.69814 212.2328 214.80614 215.342 213.5869 216.08342 C 212.02253 217.00596 209.67428 216.5961 209.15352 215.3457 C 207.94784 212.33853 210.15145 210.5049 213.38818 211.76902 Z"
                        fill="black"/>
               </g>
            </g>
            <g>
               <path d="M 209.80972 214.27337 C 209.78147 214.54214 210.1295 214.85046 210.55953 214.89566 C 210.98957 214.94086 211.3941 214.71163 211.42235 214.44286 C 211.45625 214.12033 211.10257 213.86577 210.67253 213.82057 C 210.2425 213.77537 209.84361 213.95084 209.80972 214.27337 Z"/>
            </g>
            <g>
               <g  id="outline-49">
                  <path 
                        d="M 211.58928 232.50405 C 213.03242 234.28618 211.19686 237.78894 208.99293 237.5573 C 207.43404 237.39345 206.35282 234.2363 207.27488 232.70277 C 208.07247 231.3192 210.57908 231.25656 211.58928 232.50405 Z"
                        fill="black"/>
               </g>
            </g>
            <g>
               <g  id="outline-50">
                  <path 
                        d="M 207.5582 253.27622 C 208.37888 254.77553 208.32545 256.83515 207.41453 257.22854 C 206.37915 257.7719 204.31937 256.68584 203.55244 255.19217 C 202.82796 253.81167 202.89866 253.65605 203.86043 252.77887 C 205.29744 251.51685 206.6894 251.7175 207.5582 253.27622 Z"
                        fill="black"/>
               </g>
            </g>
            <g>
               <g  id="outline-51">
                  <path 
                        d="M 206.25357 268.7914 C 206.22532 269.0602 205.8208 269.2894 205.39075 269.2442 C 204.96072 269.199 204.61269 268.8907 204.64094 268.62192 C 204.67483 268.2994 205.07372 268.12392 205.50375 268.16912 C 205.93379 268.21432 206.28747 268.4689 206.25357 268.7914 Z"
                        fill="black"/>
               </g>
            </g>
            <g>
               <g  id="outline-52">
                  <path 
                        d="M 200.87812 268.22643 C 200.84987 268.4952 200.55285 268.73573 200.28408 268.70748 C 199.96155 268.67358 199.77478 268.3822 199.80303 268.11343 C 199.83693 267.7909 200.07455 267.5985 200.39707 267.6324 C 200.66585 267.66064 200.91202 267.9039 200.87812 268.22643 Z"
                        fill="black"/>
               </g>
            </g>
            <g>
               <g  id="outline-53">
                  <path 
                        d="M 196.52126 268.312 C 196.493 268.58076 196.196 268.8213 195.92722 268.79304 C 195.6047 268.75914 195.41792 268.46777 195.44617 268.199 C 195.48007 267.87647 195.71769 267.68405 196.04021 267.71795 C 196.30899 267.7462 196.55516 267.98946 196.52126 268.312 Z"
                        fill="black"/>
               </g>
            </g>
            <g>
               <g  id="outline-54">
                  <path 
                        d="M 210.40704 270.64102 C 210.311 271.55484 209.14534 271.26928 208.9245 270.2678 C 208.85655 269.88022 209.15357 269.6397 209.63736 269.69055 C 210.12115 269.7414 210.45788 270.15723 210.40704 270.64102 Z"
                        fill="black"/>
               </g>
            </g>
            <g>
               <g  id="outline-55">
                  <path 
                        d="M 192.1079 268.9351 C 192.07965 269.20387 191.78263 269.4444 191.51386 269.41614 C 191.19133 269.38224 191.00456 269.09087 191.03281 268.8221 C 191.06671 268.49957 191.30433 268.30715 191.62686 268.34105 C 191.89563 268.3693 192.1418 268.61257 192.1079 268.9351 Z"
                        fill="black"/>
               </g>
            </g>
            <g>
               <g  id="outline-56">
                  <path 
                        d="M 214.32272 271.6504 C 214.85187 272.30385 214.5153 272.92066 213.70898 272.8359 C 213.27895 272.7907 212.92527 272.53614 212.95352 272.26737 C 213.02696 271.56856 213.93788 271.17517 214.32272 271.6504 Z"
                        fill="black"/>
               </g>
            </g>
            <g>
               <g  id="outline-57">
                  <path 
                        d="M 187.6098 270.3645 C 187.5646 270.79455 187.25628 271.14258 186.9875 271.11433 C 186.66498 271.08044 186.4895 270.68155 186.5347 270.25152 C 186.5799 269.82148 186.83447 269.4678 187.157 269.5017 C 187.42577 269.52995 187.655 269.93448 187.6098 270.3645 Z"
                        fill="black"/>
               </g>
            </g>
            <g>
               <g  id="outline-58">
                  <path 
                        d="M 208.06202 272.78587 C 213.13205 274.18833 218.5054 279.42705 220.93373 285.28015 C 223.36205 291.13326 223.71331 293.9963 222.95624 301.1994 C 221.93362 310.92896 218.82813 316.68957 211.56095 322.23017 C 207.95423 325.0033 205.6741 326.01365 201.35696 326.75556 C 200.08105 327.0019 200.60456 327.7091 203.21044 329.28735 C 209.02771 332.88793 213.21347 342.18665 213.7357 352.73076 C 214.18123 361.41897 212.55875 370.6507 209.88588 374.8807 C 208.26518 377.3734 204.41536 381.42534 202.1438 382.8714 C 200.97265 383.6722 198.19179 384.793 196.00496 385.43272 C 192.30462 386.5112 191.43325 386.5283 184.9827 385.85034 C 178.31715 385.14976 177.839 385.04516 175.20197 383.24624 C 172.45742 381.43602 168.57789 376.463 167.8221 373.8292 C 167.67488 373.16155 167.35219 372.095 167.14556 371.47546 C 166.00202 367.877 164.9061 361.24 164.66768 356.26924 C 164.4746 351.90108 164.91206 345.1535 166.54454 327.5532 L 168.6826 304.62552 L 170.96449 296.87615 C 173.25768 289.01928 173.91662 287.40374 176.97417 282.61635 C 180.55214 277.0141 187.76574 272.5005 194.53574 271.6903 C 198.5021 271.18325 203.94261 271.64638 208.06202 272.78587 Z"
                        fill="black"/>
               </g>
            </g>
            <g>
               <path d="M 193.40722 273.63692 C 182.63146 276.36307 177.70962 281.82408 173.14566 296.29018 C 171.59324 301.23576 169.23613 316.42294 168.44838 326.5033 C 166.37603 353.45963 166.28354 358.99344 167.7898 366.3801 C 169.2394 373.27164 172.61836 379.3877 176.37585 381.9022 C 178.40173 383.3108 184.97125 384.9252 188.618 384.8737 C 192.91545 384.83626 199.1676 383.2651 201.62868 381.56724 C 204.31608 379.78446 207.74152 375.63357 209.46957 372.1195 C 211.32208 368.4555 212.86255 359.4869 212.54211 354.77924 C 211.8617 345.74026 209.02271 337.07222 205.49703 333.3864 C 201.83268 329.46863 198.42338 328.29507 187.94125 327.19336 C 179.23302 326.2781 178.90485 326.29794 176.83409 327.38466 C 175.6799 328.02422 174.32764 328.47993 173.7901 328.42343 C 171.20988 328.15224 170.04342 322.7035 172.37165 321.75254 C 174.1822 321.07327 176.041 321.48603 177.56615 323.00503 C 178.94133 324.3996 179.04884 324.4109 188.11914 324.98377 C 199.5122 325.6921 204.35558 325.1142 209.0487 322.34656 C 212.81392 320.13358 215.2579 317.56434 218.13158 312.97502 C 220.15956 309.70988 220.1765 309.5486 221.06918 301.0554 C 221.9675 292.50844 221.97315 292.45468 220.63155 288.67233 C 219.92676 286.58737 218.74093 283.90836 218.0476 282.74853 C 215.54036 278.68062 210.6482 275.06858 205.49326 273.4398 C 202.75453 272.60847 197.20377 272.67724 193.40722 273.63692 Z"/>
            </g>
            <g>
               <path d="M 173.14423 323.19245 C 171.86559 323.982 172.08367 325.52666 173.53504 325.6792 C 174.8789 325.82045 176.149 324.59523 175.83196 323.47494 C 175.56302 322.41406 174.59544 322.31236 173.14423 323.19245 Z"/>
            </g>
            <g>
               <g  id="outline-59">
                  <path 
                        d="M 218.28684 274.78446 C 218.86974 275.44356 218.58693 276.06602 217.72685 275.97562 C 217.29682 275.93042 216.96009 275.5146 217.00528 275.08455 C 217.09568 274.22448 217.76333 274.07726 218.28684 274.78446 Z"
                        fill="black"/>
               </g>
            </g>
            <g>
               <g  id="outline-60">
                  <path 
                        d="M 183.9745 271.34114 C 184.416 272.31146 183.12041 273.26226 182.49505 272.49 C 182.11021 272.01477 182.25727 271.6498 182.84002 271.27625 C 183.4284 270.84895 183.75094 270.88285 183.9745 271.34114 Z"
                        fill="black"/>
               </g>
            </g>
            <g>
               <g  id="outline-61">
                  <path 
                        d="M 221.5042 278.8183 C 221.459 279.24835 221.04317 279.58508 220.61314 279.53988 C 220.1831 279.49468 219.84637 279.07885 219.89157 278.6488 C 219.93676 278.21878 220.3526 277.88205 220.78263 277.92724 C 221.21267 277.97244 221.5494 278.38827 221.5042 278.8183 Z"
                        fill="black"/>
               </g>
            </g>
            <g>
               <g  id="outline-62">
                  <path 
                        d="M 180.07933 274.79047 C 179.94373 276.08058 178.72433 275.78937 178.5968 274.41726 C 178.5458 273.8684 178.85411 273.52038 179.3379 273.57123 C 179.87545 273.62773 180.14713 274.1454 180.07933 274.79047 Z"
                        fill="black"/>
               </g>
            </g>
            <g>
               <g  id="outline-63">
                  <path 
                        d="M 224.6226 283.27654 C 224.97355 284.0743 223.84487 284.9883 223.1375 284.47916 C 222.83758 284.23024 222.6253 283.66445 222.6705 283.2344 C 222.7609 282.37434 224.17546 282.35997 224.6226 283.27654 Z"
                        fill="black"/>
               </g>
            </g>
            <g>
               <g  id="outline-64">
                  <path 
                        d="M 176.46422 278.16054 C 176.43597 278.4293 176.1927 278.6755 175.92393 278.64724 C 175.6014 278.61334 175.25337 278.30502 175.12036 278.0193 C 174.993 277.67982 175.23061 277.4874 175.66065 277.5326 C 176.14444 277.58345 176.49812 277.838 176.46422 278.16054 Z"
                        fill="black"/>
               </g>
            </g>
            <g>
               <g  id="outline-65">
                  <path 
                        d="M 174.18732 281.7256 C 174.54391 282.46962 173.79151 283.42316 173.186 282.97908 C 172.58615 282.48125 172.7387 281.02987 173.38375 281.09767 C 173.70628 281.13157 174.05996 281.38614 174.18732 281.7256 Z"
                        fill="black"/>
               </g>
            </g>
            <g>
               <g  id="outline-66">
                  <path 
                        d="M 226.37198 289.38438 C 226.34373 289.65315 225.9392 289.88237 225.50916 289.83717 C 225.07913 289.79197 224.7311 289.48365 224.75934 289.21488 C 224.79324 288.89235 225.19212 288.7169 225.62216 288.76208 C 226.0522 288.80728 226.40588 289.06185 226.37198 289.38438 Z"
                        fill="black"/>
               </g>
            </g>
            <g>
               <g  id="outline-67">
                  <path 
                        d="M 171.44375 286.1112 C 171.82859 286.58644 171.2544 287.39567 170.5556 287.32222 C 170.28682 287.29397 170.11135 286.8951 170.15655 286.46505 C 170.2413 285.65874 170.9146 285.45776 171.44375 286.1112 Z"
                        fill="black"/>
               </g>
            </g>
            <g>
               <g  id="outline-68">
                  <path 
                        d="M 227.25546 294.42293 C 227.69696 295.39326 226.35326 296.28465 225.6798 295.453 C 225.10254 294.74013 225.65122 293.6565 226.45754 293.74123 C 226.7263 293.7695 227.07434 294.0778 227.25546 294.42293 Z"
                        fill="black"/>
               </g>
            </g>
            <g>
               <g  id="outline-69">
                  <path 
                        d="M 170.1856 291.35946 C 170.14041 291.7895 169.72458 292.12623 169.29454 292.08103 C 168.8645 292.03583 168.52777 291.62 168.57297 291.18996 C 168.61817 290.75993 169.034 290.4232 169.46404 290.4684 C 169.89407 290.5136 170.2308 290.92942 170.1856 291.35946 Z"
                        fill="black"/>
               </g>
            </g>
            <g>
               <g  id="outline-70">
                  <path 
                        d="M 226.55746 299.51266 C 226.9423 299.9879 226.36811 300.79712 225.6693 300.72367 C 225.40053 300.69542 225.22506 300.29654 225.27026 299.8665 C 225.355 299.0602 226.0283 298.8592 226.55746 299.51266 Z"
                        fill="black"/>
               </g>
            </g>
            <g>
               <g  id="outline-71">
                  <path 
                        d="M 168.54554 296.6219 C 168.50034 297.05195 168.19202 297.39998 167.92324 297.37173 C 167.60072 297.33783 167.42525 296.93895 167.47045 296.5089 C 167.51564 296.07888 167.77021 295.7252 168.09274 295.7591 C 168.36151 295.78735 168.59073 296.19188 168.54554 296.6219 Z"
                        fill="black"/>
               </g>
            </g>
            <g>
               <g  id="outline-72">
                  <path 
                        d="M 118.5256 291.63635 C 118.49734 291.90512 118.09281 292.13434 117.66278 292.08914 C 117.23274 292.04394 116.88471 291.73562 116.91296 291.46685 C 116.94686 291.14432 117.34574 290.96885 117.77577 291.01405 C 118.20581 291.05925 118.55949 291.31382 118.5256 291.63635 Z"
                        fill="black"/>
               </g>
            </g>
            <g>
               <g  id="outline-73">
                  <path 
                        d="M 225.8028 304.1073 C 225.37858 305.04098 224.17903 305.07795 224.27508 304.16412 C 224.32593 303.68033 224.74176 303.3436 225.22555 303.39445 C 225.70934 303.4453 225.94986 303.7423 225.8028 304.1073 Z"
                        fill="black"/>
               </g>
            </g>
            <g>
               <g  id="outline-74">
                  <path 
                        d="M 121.2561 294.09727 C 121.65514 294.95443 120.87159 295.6873 119.68899 295.563 C 118.45263 295.43306 118.43261 294.07225 119.71982 293.7184 C 120.89386 293.407 120.94761 293.41266 121.2561 294.09727 Z"
                        fill="black"/>
               </g>
            </g>
            <g>
               <g  id="outline-75">
                  <path 
                        d="M 168.10485 300.81476 C 167.9975 301.8361 167.41476 302.20964 166.59424 301.74296 C 165.51059 301.19428 165.86685 299.873 167.1032 300.00296 C 167.6945 300.0651 168.1444 300.43848 168.10485 300.81476 Z"
                        fill="black"/>
               </g>
            </g>
            <g>
               <g  id="outline-76">
                  <path 
                        d="M 122.65146 297.88526 C 122.48745 298.4115 122.01222 298.79635 121.58218 298.75115 C 120.39958 298.62685 120.77844 297.09057 121.92989 296.9942 C 122.6994 296.91203 122.89182 297.14965 122.65146 297.88526 Z"
                        fill="black"/>
               </g>
            </g>
            <g>
               <g  id="outline-77">
                  <path 
                        d="M 224.8191 309.33004 C 224.79084 309.5988 224.3863 309.82804 223.95627 309.78284 C 223.52624 309.73764 223.1782 309.42932 223.20645 309.16055 C 223.24035 308.83802 223.63923 308.66255 224.06927 308.70775 C 224.4993 308.75295 224.853 309.0075 224.8191 309.33004 Z"
                        fill="black"/>
               </g>
            </g>
            <g>
               <g  id="outline-78">
                  <path 
                        d="M 126.79379 300.875 C 126.74859 301.30505 126.48272 301.76624 126.197 301.89925 C 125.56615 302.2134 124.5248 300.74523 125.05944 300.3123 C 125.77229 299.73503 126.87288 300.12245 126.79379 300.875 Z"
                        fill="black"/>
               </g>
            </g>
            <g>
               <g  id="outline-79">
                  <path 
                        d="M 167.04752 305.70368 C 166.99102 306.24123 166.5865 306.47045 166.0065 306.3008 C 164.90025 305.96713 165.10945 305.01085 166.2609 304.91447 C 166.80974 304.86346 167.10402 305.16614 167.04752 305.70368 Z"
                        fill="black"/>
               </g>
            </g>
            <g>
               <g  id="outline-80">
                  <path 
                        d="M 130.2118 303.5169 C 129.87814 304.62313 128.89926 304.62895 128.80853 303.42375 C 128.75752 302.8749 129.06584 302.52687 129.60339 302.58337 C 130.14093 302.63987 130.3758 302.99064 130.2118 303.5169 Z"
                        fill="black"/>
               </g>
            </g>
            <g>
               <g  id="outline-81">
                  <path 
                        d="M 222.4292 313.9702 C 222.5622 314.25593 222.42645 314.5134 222.15768 314.48515 C 221.83515 314.45125 221.59463 314.15423 221.62288 313.88546 C 221.65678 313.56293 221.78689 313.3592 221.8944 313.3705 C 222.05566 313.38746 222.30183 313.63073 222.4292 313.9702 Z"
                        fill="black"/>
               </g>
            </g>
            <g>
               <g  id="outline-82">
                  <path 
                        d="M 134.93122 306.18685 C 134.83518 307.10068 133.66953 306.81512 133.4487 305.81364 C 133.38073 305.42606 133.67776 305.18553 134.16155 305.2364 C 134.64534 305.28723 134.98207 305.70306 134.93122 306.18685 Z"
                        fill="black"/>
               </g>
            </g>
            <g>
               <g  id="outline-83">
                  <path 
                        d="M 139.3872 306.70954 C 139.58527 306.8934 139.69568 307.39415 139.65048 307.8242 C 139.56573 308.6305 138.15117 308.64487 137.80023 307.8471 C 137.4861 307.21626 138.95425 306.1749 139.3872 306.70954 Z"
                        fill="black"/>
               </g>
            </g>
            <g>
               <g  id="outline-84">
                  <path 
                        d="M 165.84313 310.95758 C 165.73288 311.48947 165.31705 311.8262 165.04828 311.79796 C 164.24761 311.65946 164.53882 310.44005 165.37339 310.25603 C 165.87413 310.1456 166.0609 310.437 165.84313 310.95758 Z"
                        fill="black"/>
               </g>
            </g>
            <g>
               <g  id="outline-85">
                  <path 
                        d="M 145.34862 309.4557 C 145.01496 310.56194 144.03608 310.56776 143.94535 309.36256 C 143.89434 308.8137 144.20267 308.46568 144.74021 308.52218 C 145.27776 308.57868 145.51263 308.92945 145.34862 309.4557 Z"
                        fill="black"/>
               </g>
            </g>
            <g>
               <g  id="outline-86">
                  <path 
                        d="M 219.98264 318.11528 C 219.84123 318.4265 219.4961 318.60762 219.22734 318.57937 C 218.95856 318.55112 218.65864 318.3022 218.58503 317.96838 C 218.51142 317.63455 218.8622 317.39968 219.34598 317.45053 C 219.82977 317.50138 220.12405 317.80405 219.98264 318.11528 Z"
                        fill="black"/>
               </g>
            </g>
            <g>
               <g  id="outline-87">
                  <path 
                        d="M 160.66026 311.66285 C 161.18942 312.3163 160.85284 312.9331 160.04653 312.84835 C 159.6165 312.80316 159.2628 312.5486 159.29106 312.2798 C 159.3645 311.581 160.27543 311.1876 160.66026 311.66285 Z"
                        fill="black"/>
               </g>
            </g>
            <g>
               <g  id="outline-88">
                  <path 
                        d="M 156.09969 311.6183 C 156.05449 312.04834 155.63866 312.38507 155.20862 312.33987 C 154.77859 312.29467 154.44185 311.87884 154.48705 311.4488 C 154.53225 311.01877 154.94808 310.68204 155.37812 310.72723 C 155.80815 310.77243 156.14488 311.18826 156.09969 311.6183 Z"
                        fill="black"/>
               </g>
            </g>
            <g>
               <g  id="outline-89">
                  <path 
                        d="M 151.26178 311.1098 C 151.21658 311.53985 150.69324 311.8653 150.10194 311.80314 C 149.51064 311.741 149.0664 311.31386 149.1116 310.88382 C 149.1568 310.4538 149.68014 310.12835 150.27144 310.1905 C 150.86274 310.25265 151.30698 310.67978 151.26178 311.1098 Z"
                        fill="black"/>
               </g>
            </g>
            <g>
               <g  id="outline-90">
                  <path 
                        d="M 216.89378 321.64935 C 216.46956 322.58304 215.27 322.62 215.36605 321.70618 C 215.4169 321.2224 215.83273 320.88565 216.31652 320.9365 C 216.80031 320.98735 217.04084 321.28437 216.89378 321.64935 Z"
                        fill="black"/>
               </g>
            </g>
            <g>
               <g  id="outline-91">
                  <path 
                        d="M 211.19661 326.21365 C 210.80338 326.33536 210.32524 326.23076 210.18093 326.05255 C 209.98286 325.8687 210.32234 325.74132 210.90799 325.85722 C 211.49928 325.91937 211.6436 326.0976 211.19661 326.21365 Z"
                        fill="black"/>
               </g>
            </g>
            <g>
               <g  id="outline-92">
                  <path 
                        d="M 206.87107 327.5525 C 207.0522 327.89764 206.94194 328.42953 206.5855 328.71816 C 206.22909 329.0068 205.90656 328.9729 205.68298 328.5146 C 205.50187 328.16948 205.61212 327.6376 205.96854 327.34896 C 206.32497 327.06033 206.6475 327.09423 206.87107 327.5525 Z"
                        fill="black"/>
               </g>
            </g>
            <g>
               <g  id="outline-93">
                  <path 
                        d="M 210.60645 333.37995 C 210.73946 333.66567 210.6037 333.92314 210.33493 333.8949 C 210.0124 333.861 209.77188 333.56397 209.80013 333.2952 C 209.83403 332.97267 209.96414 332.76896 210.07165 332.78026 C 210.2329 332.7972 210.47909 333.04047 210.60645 333.37995 Z"
                        fill="black"/>
               </g>
            </g>
            <g>
               <g  id="outline-94">
                  <path 
                        d="M 149.2414 326.71283 C 149.90921 327.59824 149.37183 328.5744 148.29674 328.4614 C 147.54418 328.3823 147.30366 328.08527 147.47896 327.4515 C 147.74192 326.50088 148.7066 326.11314 149.2414 326.71283 Z"
                        fill="black"/>
               </g>
            </g>
            <g>
               <g  id="outline-95">
                  <path 
                        d="M 143.56909 327.421 C 143.50694 328.0123 143.07981 328.45655 142.64977 328.41135 C 142.21974 328.36615 141.8943 327.8428 141.95645 327.2515 C 142.0186 326.6602 142.44573 326.21597 142.87577 326.26117 C 143.3058 326.30637 143.63124 326.8297 143.56909 327.421 Z"
                        fill="black"/>
               </g>
            </g>
            <g>
               <g  id="outline-96">
                  <path 
                        d="M 138.13714 327.39357 C 138.07499 327.98487 137.64786 328.4291 137.21783 328.3839 C 136.78779 328.3387 136.46236 327.81537 136.5245 327.22407 C 136.58665 326.63277 137.01378 326.18853 137.44382 326.23373 C 137.87385 326.27893 138.19929 326.80227 138.13714 327.39357 Z"
                        fill="black"/>
               </g>
            </g>
            <g>
               <g  id="outline-97">
                  <path 
                        d="M 155.84223 329.58054 C 155.79138 330.06433 155.38685 330.29355 154.8606 330.12954 C 153.54499 329.71953 153.51367 328.46622 154.80378 328.6018 C 155.44884 328.6696 155.89873 329.043 155.84223 329.58054 Z"
                        fill="black"/>
               </g>
            </g>
            <g>
               <g  id="outline-98">
                  <path 
                        d="M 133.3701 327.7621 C 134.04357 328.59376 133.54864 329.68306 132.598 329.4201 C 132.12552 329.26174 131.74068 328.7865 131.78023 328.41023 C 131.87062 327.55015 132.88905 327.16806 133.3701 327.7621 Z"
                        fill="black"/>
               </g>
            </g>
            <g>
               <g  id="outline-99">
                  <path 
                        d="M 213.97378 337.53825 C 214.33037 338.28226 213.57797 339.2358 212.97246 338.7917 C 212.3726 338.2939 212.52515 336.8425 213.1702 336.9103 C 213.49273 336.9442 213.84641 337.19878 213.97378 337.53825 Z"
                        fill="black"/>
               </g>
            </g>
            <g>
               <g  id="outline-100">
                  <path 
                        d="M 159.59116 331.65936 C 159.78923 331.84323 159.89965 332.34397 159.85445 332.774 C 159.7697 333.58032 158.35513 333.5947 158.0042 332.79693 C 157.69006 332.16608 159.15822 331.12472 159.59116 331.65936 Z"
                        fill="black"/>
               </g>
            </g>
            <g>
               <g  id="outline-101">
                  <path 
                        d="M 130.05185 329.859 C 130.40279 330.65678 129.2741 331.57077 128.56674 331.06163 C 128.26681 330.8127 128.05454 330.24692 128.09974 329.8169 C 128.19014 328.9568 129.6047 328.94245 130.05185 329.859 Z"
                        fill="black"/>
               </g>
            </g>
            <g>
               <g  id="outline-102">
                  <path 
                        d="M 125.44333 330.7877 C 125.6414 330.97156 125.75181 331.4723 125.70662 331.90234 C 125.62187 332.70866 124.2073 332.72302 123.85636 331.92526 C 123.54223 331.2944 125.01039 330.25306 125.44333 330.7877 Z"
                        fill="black"/>
               </g>
            </g>
            <g>
               <g  id="outline-103">
                  <path 
                        d="M 215.94074 342.09286 C 216.5887 342.6501 216.5774 342.7576 215.82775 343.16795 C 215.31006 343.43962 214.82627 343.38878 214.53764 343.03235 C 213.81607 342.1413 215.0353 341.39986 215.94074 342.09286 Z"
                        fill="black"/>
               </g>
            </g>
            <g>
               <g  id="outline-104">
                  <path 
                        d="M 162.10149 337.24935 C 162.05629 337.6794 161.53295 338.0048 160.94165 337.94267 C 160.35035 337.8805 159.9061 337.4534 159.9513 337.02335 C 159.9965 336.5933 160.51985 336.2679 161.11114 336.33003 C 161.70244 336.3922 162.14669 336.8193 162.10149 337.24935 Z"
                        fill="black"/>
               </g>
            </g>
            <g>
               <g  id="outline-105">
                  <path 
                        d="M 122.00062 333.03458 C 122.11104 333.5353 121.84517 333.9965 121.33878 334.16068 C 120.2779 334.4296 119.84496 333.89497 120.33423 332.85943 C 120.87162 331.8833 121.67793 331.96804 122.00062 333.03458 Z"
                        fill="black"/>
               </g>
            </g>
            <g>
               <g  id="outline-106">
                  <path 
                        d="M 117.01873 334.41315 C 117.15174 334.69887 117.01598 334.95634 116.74721 334.9281 C 116.42468 334.8942 116.18416 334.59717 116.21241 334.3284 C 116.24631 334.00587 116.37642 333.80216 116.48393 333.81346 C 116.64519 333.8304 116.89136 334.07367 117.01873 334.41315 Z"
                        fill="black"/>
               </g>
            </g>
            <g>
               <g  id="outline-107">
                  <path 
                        d="M 216.69121 346.8457 C 217.36468 347.67735 216.86975 348.76665 215.91912 348.5037 C 215.44663 348.34533 215.0618 347.8701 215.10134 347.4938 C 215.19174 346.63374 216.21017 346.25165 216.69121 346.8457 Z"
                        fill="black"/>
               </g>
            </g>
            <g>
               <g  id="outline-108">
                  <path 
                        d="M 162.05145 342.8963 C 161.98365 343.54137 161.61028 343.99126 161.07273 343.93476 C 160.58894 343.8839 160.35972 343.4794 160.52372 342.95314 C 160.93374 341.63752 162.18705 341.6062 162.05145 342.8963 Z"
                        fill="black"/>
               </g>
            </g>
            <g>
               <g  id="outline-109">
                  <path 
                        d="M 217.5324 352.80372 C 217.48155 353.2875 217.06572 353.62424 216.58193 353.5734 C 215.6681 353.47735 215.95367 352.3117 216.95515 352.09087 C 217.34273 352.0229 217.58325 352.31993 217.5324 352.80372 Z"
                        fill="black"/>
               </g>
            </g>
            <g>
               <g  id="outline-110">
                  <path 
                        d="M 162.04661 348.11324 C 161.99011 348.6508 161.58558 348.88 161.00558 348.71036 C 159.89934 348.3767 160.10854 347.4204 161.25999 347.32404 C 161.80883 347.27303 162.10311 347.5757 162.04661 348.11324 Z"
                        fill="black"/>
               </g>
            </g>
            <g>
               <g  id="outline-111">
                  <path 
                        d="M 217.81345 358.92027 C 218.08238 359.98116 217.54775 360.4141 216.5122 359.92482 C 215.53607 359.38744 215.62081 358.58112 216.68735 358.25843 C 217.1881 358.148 217.64928 358.4139 217.81345 358.92027 Z"
                        fill="black"/>
               </g>
            </g>
            <g>
               <g  id="outline-112">
                  <path 
                        d="M 162.33589 352.6002 C 162.86504 353.25366 162.52847 353.87046 161.72215 353.7857 C 161.29212 353.7405 160.93843 353.48595 160.96668 353.2172 C 161.04013 352.51837 161.95105 352.12498 162.33589 352.6002 Z"
                        fill="black"/>
               </g>
            </g>
            <g>
               <g  id="outline-113">
                  <path 
                        d="M 217.19455 363.25744 C 217.7237 363.9109 217.38713 364.5277 216.58081 364.44294 C 216.15078 364.39775 215.7971 364.1432 215.82534 363.8744 C 215.8988 363.1756 216.8097 362.7822 217.19455 363.25744 Z"
                        fill="black"/>
               </g>
            </g>
            <g>
               <g  id="outline-114">
                  <path 
                        d="M 162.10473 357.90205 C 162.05954 358.3321 161.75121 358.6801 161.48244 358.65187 C 161.15991 358.61797 160.98444 358.2191 161.02964 357.78906 C 161.07484 357.359 161.3294 357.00534 161.65194 357.03924 C 161.9207 357.0675 162.14993 357.472 162.10473 357.90205 Z"
                        fill="black"/>
               </g>
            </g>
            <g>
               <g  id="outline-115">
                  <path 
                        d="M 215.82616 369.0376 C 215.7753 369.52137 215.47829 369.7619 215.1133 369.61484 C 214.17962 369.1906 214.14265 367.99107 215.05648 368.0871 C 215.54027 368.13796 215.877 368.5538 215.82616 369.0376 Z"
                        fill="black"/>
               </g>
            </g>
            <g>
               <g  id="outline-116">
                  <path 
                        d="M 163.03358 363.5432 C 162.69991 364.64945 161.11843 364.70063 161.24273 363.51803 C 161.28793 363.088 161.76316 362.70315 162.312 362.65214 C 163.08152 362.56998 163.27394 362.8076 163.03358 363.5432 Z"
                        fill="black"/>
               </g>
            </g>
            <g>
               <g  id="outline-117">
                  <path 
                        d="M 215.05439 372.76085 C 215.43922 373.2361 214.86504 374.0453 214.16623 373.97186 C 213.89745 373.9436 213.72199 373.54473 213.76718 373.1147 C 213.85193 372.30838 214.52523 372.1074 215.05439 372.76085 Z"
                        fill="black"/>
               </g>
            </g>
            <g>
               <g  id="outline-118">
                  <path 
                        d="M 163.92271 368.528 C 164.45186 369.18146 164.1153 369.79826 163.30897 369.7135 C 162.87894 369.6683 162.52526 369.41375 162.5535 369.14498 C 162.62695 368.44617 163.53787 368.05277 163.92271 368.528 Z"
                        fill="black"/>
               </g>
            </g>
            <g>
               <g  id="outline-119">
                  <path 
                        d="M 212.55682 376.35708 C 213.08597 377.01052 212.7494 377.62733 211.94309 377.5426 C 211.51305 377.4974 211.15937 377.2428 211.18762 376.97404 C 211.26106 376.27524 212.17199 375.88184 212.55682 376.35708 Z"
                        fill="black"/>
               </g>
            </g>
            <g>
               <g  id="outline-120">
                  <path 
                        d="M 165.2477 374.5369 C 165.19684 375.0207 164.89417 375.31496 164.58294 375.17355 C 164.27172 375.03214 164.03684 374.68137 164.0651 374.4126 C 164.09334 374.1438 164.39601 373.84954 164.72984 373.77593 C 165.06367 373.70232 165.29854 374.0531 165.2477 374.5369 Z"
                        fill="black"/>
               </g>
            </g>
            <g>
               <g  id="outline-121">
                  <path 
                        d="M 210.29413 380.3041 C 210.24893 380.7341 209.98307 381.1953 209.69735 381.3283 C 209.0665 381.64246 208.02514 380.1743 208.55978 379.74135 C 209.27263 379.1641 210.37323 379.5515 210.29413 380.3041 Z"
                        fill="black"/>
               </g>
            </g>
            <g>
               <g  id="outline-122">
                  <path 
                        d="M 167.80015 378.17476 C 168.3293 378.8282 167.99273 379.445 167.1864 379.36027 C 166.75637 379.31507 166.4027 379.0605 166.43094 378.79173 C 166.50439 378.0929 167.4153 377.69953 167.80015 378.17476 Z"
                        fill="black"/>
               </g>
            </g>
            <g>
               <g  id="outline-123">
                  <path 
                        d="M 205.14855 384.27417 C 205.34662 384.45803 205.45704 384.95877 205.41184 385.3888 C 205.3271 386.19513 203.91253 386.2095 203.56159 385.41173 C 203.24745 384.7809 204.71561 383.73953 205.14855 384.27417 Z"
                        fill="black"/>
               </g>
            </g>
            <g>
               <g  id="outline-124">
                  <path 
                        d="M 170.78845 382.8367 C 170.62444 383.36296 170.1492 383.7478 169.71917 383.7026 C 169.28913 383.6574 168.9043 383.18216 168.85329 382.6333 C 168.81357 381.97696 169.1106 381.73644 169.91691 381.8212 C 170.72323 381.90593 170.96376 382.20296 170.78845 382.8367 Z"
                        fill="black"/>
               </g>
            </g>
            <g>
               <g  id="outline-125">
                  <path 
                        d="M 201.17993 388.4223 C 201.03852 388.73354 200.6934 388.91466 200.42462 388.8864 C 200.15585 388.85816 199.85592 388.60924 199.7823 388.2754 C 199.7087 387.9416 200.05948 387.7067 200.54327 387.75756 C 201.02706 387.8084 201.32133 388.1111 201.17993 388.4223 Z"
                        fill="black"/>
               </g>
            </g>
            <g>
               <g  id="outline-126">
                  <path 
                        d="M 173.18238 385.91444 C 173.03532 386.2794 172.7383 386.51994 172.52329 386.49734 C 171.88388 386.3758 172.12424 385.64018 172.79755 385.4392 C 173.18513 385.37124 173.37755 385.60886 173.18238 385.91444 Z"
                        fill="black"/>
               </g>
            </g>
            <g>
               <g  id="outline-127">
                  <path 
                        d="M 195.37476 389.8774 C 195.56153 390.16877 195.41448 390.53375 195.12875 390.66677 C 194.83738 390.85354 194.4724 390.7065 194.33938 390.42076 C 194.15262 390.1294 194.29967 389.7644 194.5854 389.6314 C 194.87677 389.4446 195.24175 389.5917 195.37476 389.8774 Z"
                        fill="black"/>
               </g>
            </g>
            <g>
               <g  id="outline-128">
                  <path 
                        d="M 181.84574 389.325 C 181.95615 389.82575 181.69029 390.28695 181.1839 390.4511 C 180.12301 390.72005 179.69007 390.1854 180.17935 389.14987 C 180.71673 388.17373 181.52305 388.2585 181.84574 389.325 Z"
                        fill="black"/>
               </g>
            </g>
            <g>
               <g  id="outline-129">
                  <path 
                        d="M 177.3586 388.58166 C 177.33036 388.85043 176.92583 389.07965 176.4958 389.03445 C 176.06576 388.98926 175.71773 388.68093 175.74597 388.41216 C 175.77987 388.08963 176.17875 387.91417 176.6088 387.95936 C 177.03883 388.00456 177.3925 388.25913 177.3586 388.58166 Z"
                        fill="black"/>
               </g>
            </g>
            <g>
               <g  id="outline-130">
                  <path 
                        d="M 188.3699 390.3368 C 188.81139 391.30715 187.46769 392.19853 186.79422 391.36687 C 186.21697 390.654 186.76565 389.57038 187.57197 389.65512 C 187.84074 389.68337 188.18877 389.9917 188.3699 390.3368 Z"
                        fill="black"/>
               </g>
            </g>
            <g>
               <g  id="outline-131">
                  <path 
                        d="M 132.31693 287.10756 C 132.67352 287.85156 131.92112 288.8051 131.31561 288.36102 C 130.71576 287.8632 130.8683 286.4118 131.51335 286.4796 C 131.83588 286.5135 132.18956 286.76808 132.31693 287.10756 Z"
                        fill="black"/>
               </g>
            </g>
            <g>
               <g  id="outline-132">
                  <path 
                        d="M 137.02796 290.37447 C 136.88655 290.6857 136.54142 290.86682 136.27265 290.83857 C 136.00388 290.81032 135.70395 290.5614 135.63034 290.22758 C 135.55673 289.89375 135.9075 289.65888 136.3913 289.70972 C 136.87509 289.76057 137.16937 290.06324 137.02796 290.37447 Z"
                        fill="black"/>
               </g>
            </g>
            <g>
               <g  id="outline-133">
                  <path 
                        d="M 143.73904 292.7103 C 144.18054 293.6806 142.83684 294.572 142.16337 293.74034 C 141.58612 293.0275 142.1348 291.94384 142.94112 292.0286 C 143.20989 292.05684 143.55792 292.36516 143.73904 292.7103 Z"
                        fill="black"/>
               </g>
            </g>
            <g>
               <g  id="outline-134">
                  <path 
                        d="M 149.19391 294.58797 C 149.14871 295.018 148.73288 295.35474 148.30285 295.30954 C 147.87281 295.26435 147.53608 294.8485 147.58128 294.41848 C 147.62648 293.98844 148.0423 293.6517 148.47234 293.6969 C 148.90238 293.7421 149.23911 294.15794 149.19391 294.58797 Z"
                        fill="black"/>
               </g>
            </g>
            <g>
               <g  id="outline-135">
                  <path 
                        d="M 161.5292 296.1562 C 161.50095 296.42498 161.09642 296.6542 160.66638 296.609 C 160.23635 296.5638 159.88832 296.2555 159.91657 295.9867 C 159.95046 295.6642 160.34935 295.4887 160.77938 295.5339 C 161.20942 295.5791 161.5631 295.83368 161.5292 296.1562 Z"
                        fill="black"/>
               </g>
            </g>
            <g>
               <g  id="outline-136">
                  <path 
                        d="M 155.6162 295.53473 C 155.58796 295.8035 155.18342 296.03272 154.75339 295.98752 C 154.32335 295.94233 153.97532 295.634 154.00357 295.36523 C 154.03747 295.0427 154.43635 294.86723 154.86639 294.91243 C 155.29642 294.95763 155.6501 295.2122 155.6162 295.53473 Z"
                        fill="black"/>
               </g>
            </g>
            <g>
               <g  id="outline-137">
                  <path 
                        d="M 124.32478 288.16974 C 124.27958 288.59978 123.97126 288.9478 123.70249 288.91956 C 123.37996 288.88566 123.20449 288.48678 123.24969 288.05674 C 123.29489 287.6267 123.54946 287.27303 123.87198 287.30692 C 124.14076 287.33517 124.36998 287.7397 124.32478 288.16974 Z"
                        fill="black"/>
               </g>
            </g>
            <g>
               <g  id="outline-138">
                  <path 
                        d="M 126.73002 291.13996 C 126.67917 291.62375 126.3765 291.91803 126.06527 291.77662 C 125.75404 291.6352 125.51917 291.28443 125.54742 291.01566 C 125.57567 290.7469 125.87834 290.4526 126.21216 290.379 C 126.54599 290.3054 126.78086 290.65617 126.73002 291.13996 Z"
                        fill="black"/>
               </g>
            </g>
            <g>
               <g  id="outline-139">
                  <path 
                        d="M 130.72529 294.4947 C 130.69139 294.8172 130.38306 295.16525 130.09734 295.29826 C 129.75787 295.42563 129.56545 295.188 129.61065 294.75797 C 129.6615 294.27418 129.91606 293.9205 130.23859 293.9544 C 130.50736 293.98265 130.75353 294.2259 130.72529 294.4947 Z"
                        fill="black"/>
               </g>
            </g>
            <g>
               <g  id="outline-140">
                  <path 
                        d="M 135.8126 297.80115 C 135.78435 298.06992 135.37982 298.29915 134.94978 298.25395 C 134.51974 298.20875 134.17171 297.90043 134.19996 297.63165 C 134.23386 297.30913 134.63274 297.13366 135.06278 297.17886 C 135.49281 297.22406 135.8465 297.47862 135.8126 297.80115 Z"
                        fill="black"/>
               </g>
            </g>
            <g>
               <g  id="outline-141">
                  <path 
                        d="M 141.98048 300.13422 C 141.83907 300.44545 141.49395 300.62657 141.22518 300.5983 C 140.9564 300.57007 140.65648 300.32115 140.58287 299.98732 C 140.50926 299.6535 140.86003 299.41862 141.34382 299.46947 C 141.82761 299.52032 142.12189 299.823 141.98048 300.13422 Z"
                        fill="black"/>
               </g>
            </g>
            <g>
               <g  id="outline-142">
                  <path 
                        d="M 148.0775 301.59027 C 148.70286 302.36252 148.31819 302.91992 147.18934 302.80128 C 146.59805 302.73913 146.19626 302.42516 146.34332 302.06018 C 146.69119 301.33586 147.64456 301.05563 148.0775 301.59027 Z"
                        fill="black"/>
               </g>
            </g>
            <g>
               <g  id="outline-143">
                  <path 
                        d="M 160.38454 303.42727 C 160.76938 303.9025 160.1952 304.71173 159.49638 304.6383 C 159.22761 304.61003 159.05214 304.21115 159.09734 303.7811 C 159.18209 302.9748 159.8554 302.77382 160.38454 303.42727 Z"
                        fill="black"/>
               </g>
            </g>
            <g>
               <g  id="outline-144">
                  <path 
                        d="M 155.54099 302.97254 C 156.1239 303.63164 155.84108 304.2541 154.981 304.1637 C 154.55097 304.1185 154.21424 303.70267 154.25943 303.27263 C 154.34983 302.41256 155.01749 302.26534 155.54099 302.97254 Z"
                        fill="black"/>
               </g>
            </g>
            <g>
               <g  id="outline-145">
                  <path 
                        d="M 155.29905 347.6758 C 155.43206 347.9615 155.2963 348.219 155.02753 348.19073 C 154.705 348.15684 154.46448 347.8598 154.49273 347.59104 C 154.52663 347.2685 154.65674 347.0648 154.76425 347.0761 C 154.92551 347.09304 155.17168 347.3363 155.29905 347.6758 Z"
                        fill="black"/>
               </g>
            </g>
            <g>
               <g  id="outline-146">
                  <path 
                        d="M 151.99178 347.59992 C 152.10219 348.10066 151.83632 348.56185 151.32993 348.72602 C 150.26905 348.99496 149.8361 348.4603 150.32539 347.42478 C 150.86277 346.44864 151.66909 346.5334 151.99178 347.59992 Z"
                        fill="black"/>
               </g>
            </g>
            <g>
               <g  id="outline-147">
                  <path 
                        d="M 155.90765 385.83794 C 155.8794 386.1067 155.59933 386.18597 155.34751 385.99645 C 155.04193 385.8013 154.85516 385.5099 154.87211 385.34866 C 154.88341 385.24115 155.10973 385.15624 155.43226 385.19014 C 155.70103 385.2184 155.94155 385.5154 155.90765 385.83794 Z"
                        fill="black"/>
               </g>
            </g>
            <g>
               <g  id="outline-148">
                  <path 
                        d="M 131.17251 385.90123 C 131.30553 386.18696 131.06226 386.43313 130.57847 386.3823 C 130.09468 386.33143 129.90791 386.04006 130.09742 385.78824 C 130.29258 385.48266 130.58396 385.2959 130.69146 385.3072 C 130.79897 385.3185 131.04515 385.56176 131.17251 385.90123 Z"
                        fill="black"/>
               </g>
            </g>
         </g>
      </g>
   </g>
</svg>