<?xml version="1.0" encoding="utf-8"?>
<svg xmlns:dc="http://purl.org/dc/elements/1.1/" xmlns:xl="http://www.w3.org/1999/xlink"
     xmlns="http://www.w3.org/2000/svg"
     xmlns:xlink="http://www.w3.org/1999/xlink"
     version="1.1"
     viewBox="72 81 220.5 315"
     width="220.5"
     height="315"
     preserveAspectRatio="xMidYMid meet"
     zoomAndPan="magnify"
     contentScriptType="application/ecmascript"
     contentStyleType="text/css">
   <defs/>
   <metadata  xmlns:svg="http://www.w3.org/2000/svg"
             xmlns:rdf="http://www.w3.org/1999/02/22-rdf-syntax-ns#"
             xmlns:cc="http://creativecommons.org/ns#">
      <rdf:RDF>
         <cc:Work rdf:about="">
            <dc:creator>
               <cc:Agent>
                  <dc:title>http://heraldicart.org Helm, Ocular, Affronty.svg</dc:title>
               </cc:Agent>
            </dc:creator>
         </cc:Work>
      </rdf:RDF>
   </metadata>
   <g stroke="#505050" fill="#ffff00" stroke-opacity="1" stroke-dasharray="none"
      fill-opacity="1">
      <title>Helm, Ocular, Affronty</title>
      <g>
         <title>Art</title>
         <g>
            <g>
               <g  id="outline-0">
                  <path 
                        d="M 174.17236 85.63238 C 158.69729 87.54551 148.11132 90.73405 136.54754 96.89857 C 115.88577 107.90968 100.24065 124.10748 89.9948 145.06684 C 85.91346 153.39957 84.04285 158.3737 81.91715 166.70642 C 78.89867 178.5253 78.72861 180.48093 78.72861 202.46063 C 78.77112 217.0429 78.94118 224.3553 79.49386 231.15752 C 80.17408 239.6603 80.2166 241.23332 79.57889 253.90247 C 79.19626 261.38492 78.77112 273.79898 78.64358 281.5365 C 78.17593 307.08738 79.57889 316.39793 88.50681 347.34806 C 91.86541 358.95436 93.651 364.2261 95.09647 366.7769 C 95.43658 367.3721 96.49943 369.58284 97.43473 371.70854 C 100.62328 378.6808 106.70277 386.46086 111.59187 389.862 C 114.52533 391.86013 117.07616 392.0302 118.69169 390.37215 C 120.47728 388.62907 120.17968 386.6309 117.41628 382.67713 C 114.61036 378.55328 111.54935 372.4738 110.52902 368.8601 C 109.8488 366.47932 109.76377 364.65123 109.8488 354.87302 C 109.93383 348.28337 109.76377 342.544 109.50869 341.0985 C 109.21109 339.35544 107.93567 336.422 105.51238 331.74545 C 101.47356 323.9229 96.32937 312.019 95.09647 307.51252 C 93.82105 302.921 92.63066 293.90807 92.12049 284.93763 C 91.90792 280.47367 91.61033 275.28697 91.5253 273.33133 C 91.35524 270.5254 91.44027 269.8452 91.90792 269.8452 C 92.24804 269.8452 92.84323 270.4829 93.22586 271.20563 C 93.60848 271.9709 94.07613 272.69362 94.2887 272.82116 C 94.45876 272.9487 95.39407 274.64926 96.37189 276.6049 C 97.34971 278.56054 99.43289 282.0892 100.96339 284.42746 C 102.5364 286.80824 104.02439 289.01897 104.23696 289.35908 C 106.15009 292.33505 119.07432 305.55688 121.37007 306.8323 C 122.00778 307.21492 124.13347 308.57537 126.13163 309.8933 C 130.12794 312.52916 140.79893 317.97094 144.41261 319.24636 C 146.70836 320.05413 151.89506 321.28703 156.82668 322.26485 C 158.86735 322.64747 159.67511 322.60496 161.54572 322.00977 C 162.82114 321.62714 164.69175 321.28703 165.71209 321.32954 C 167.54018 321.32954 167.66773 321.4571 170.0485 324.5181 C 171.5365 326.3887 173.32208 328.13177 174.51247 328.8545 C 176.4256 329.95987 176.7657 330.0024 182.25 330.0024 C 187.7343 330.0024 188.0744 329.95987 189.98753 328.8545 C 191.17792 328.13177 192.9635 326.3887 194.4515 324.5181 C 196.83227 321.4571 196.95982 321.32954 198.78791 321.32954 C 199.80825 321.28703 201.67886 321.62714 202.95428 322.00977 C 204.8249 322.60496 205.63265 322.64747 207.67332 322.26485 C 212.60494 321.28703 217.79164 320.05413 220.08739 319.24636 C 223.70107 317.97094 234.37206 312.52916 238.36837 309.8933 C 240.36653 308.57537 242.49222 307.21492 243.12993 306.8323 C 245.42568 305.55688 258.3499 292.33505 260.26304 289.35908 C 260.51812 289.01897 261.9636 286.80824 263.5366 284.42746 C 265.0671 282.0892 267.1503 278.56054 268.1281 276.6049 C 269.10593 274.64926 270.04124 272.9487 270.2113 272.82116 C 270.42387 272.69362 270.89152 271.9709 271.27414 271.20563 C 271.65677 270.4829 272.25196 269.8452 272.59208 269.8452 C 273.05973 269.8452 273.14476 270.5254 272.9747 273.33133 C 272.88967 275.28697 272.59208 280.47367 272.3795 284.93763 C 271.86934 293.90807 270.67895 302.921 269.40353 307.51252 C 268.17063 312.019 263.02644 323.9229 258.98762 331.74545 C 256.56433 336.422 255.2889 339.35544 254.9913 341.0985 C 254.73623 342.544 254.56617 348.28337 254.6512 354.87302 C 254.73623 364.65123 254.6512 366.47932 253.97098 368.8601 C 252.95065 372.4738 249.88964 378.55328 247.08372 382.67713 C 244.32032 386.6309 244.02272 388.62907 245.8083 390.37215 C 247.42384 392.0302 249.97467 391.86013 252.90813 389.862 C 257.79723 386.46086 263.87672 378.6808 267.06527 371.70854 C 268.00057 369.58284 269.06342 367.3721 269.40353 366.7769 C 270.849 364.2261 272.6346 358.95436 275.9932 347.34806 C 284.9211 316.39793 286.32407 307.08738 285.85642 281.5365 C 285.72888 273.79898 285.30374 261.38492 284.9211 253.90247 C 284.2834 241.23332 284.3259 239.6603 285.00614 231.15752 C 286.069 217.59558 286.069 184.90238 285.00614 178.01513 C 283.9858 171.76558 281.39246 161.51973 279.3943 156.07794 C 275.27045 144.76924 267.27784 131.12227 259.5403 122.10932 C 243.08742 102.93555 220.04487 89.92629 196.2796 86.35512 C 192.3258 85.75992 177.10582 85.24976 174.17236 85.63238 Z M 168.2204 275.45703 L 168.2204 276.6474 L 163.45885 276.6474 C 155.6788 276.6049 143.90245 275.88216 139.65105 275.15943 C 129.78783 273.41636 121.7527 268.73983 107.59556 256.4533 C 102.36635 251.90432 101.21847 250.71393 102.28132 250.71393 C 102.5364 250.71393 107.00037 249.94867 112.27209 249.01337 C 128.68246 246.12242 136.33497 245.3997 152.06512 245.27214 L 157.8045 245.18712 L 160.01522 249.56605 C 163.11874 255.68805 165.66957 261.9376 166.3498 265.16866 C 167.5827 270.73798 168.2204 274.35166 168.2204 275.45703 Z M 223.8286 245.61226 L 223.8286 245.61226 C 233.77687 246.0799 238.96357 246.71762 252.2279 249.01337 C 257.49963 249.94867 261.9636 250.71393 262.21868 250.71393 C 263.28153 250.71393 262.13365 251.90432 256.90444 256.4533 C 242.7473 268.73983 234.71217 273.41636 224.84895 275.15943 C 220.59755 275.88216 208.8212 276.6049 201.08367 276.6474 L 196.2796 276.6474 L 196.2796 275.45703 C 196.2796 274.35166 196.9173 270.73798 198.1502 265.16866 C 198.83043 261.9376 201.38126 255.68805 204.48478 249.56605 L 206.6955 245.18712 L 210.9469 245.18712 C 213.28516 245.18712 219.06705 245.3997 223.8286 245.61226 Z"
                        fill="black"/>
               </g>
            </g>
            <g>
               <g>
                  <path d="M 176.97827 93.49746 C 176.80822 95.92075 176.59565 118.11302 176.4681 142.85612 L 176.25554 187.87835 L 174.81006 188.47355 C 172.8119 189.28131 171.66403 191.407 171.32392 194.7656 L 171.06884 197.57153 L 167.07253 197.57153 L 163.07622 197.57153 L 163.3313 159.77666 C 163.45885 133.9707 163.75645 118.45313 164.18158 110.97068 C 164.8618 98.98175 165.58454 91.71187 166.13723 90.81908 C 166.43482 90.30891 172.1742 89.33109 175.78788 89.20355 L 177.19084 89.16104 L 176.97827 93.49746 Z"/>
               </g>
               <g>
                  <path d="M 185.65111 137.9245 L 185.65111 186.73048 L 182.25 186.73048 L 178.84889 186.73048 L 178.84889 144.004 C 178.84889 120.4938 178.97643 98.55661 179.14648 95.19801 L 179.40157 89.16104 L 182.5476 89.16104 L 185.65111 89.16104 L 185.65111 137.9245 Z"/>
               </g>
               <g>
                  <path d="M 192.36831 89.58618 C 194.28144 89.84126 196.53468 90.05383 197.34244 90.09634 C 198.1502 90.13886 198.83043 90.2664 198.83043 90.39394 C 198.87294 90.52148 199.12803 92.47712 199.46814 94.68785 C 200.23339 99.66198 200.82858 124.44759 201.1687 167.04654 L 201.42378 197.57153 L 197.42747 197.57153 L 193.43116 197.57153 L 193.17608 194.7656 C 192.83597 191.407 191.6881 189.28131 189.64742 188.43104 L 188.20195 187.83584 L 188.20195 149.65834 C 188.20195 128.65647 188.0744 106.4642 187.90435 100.29968 C 187.69178 90.77657 187.7343 89.16104 188.24446 89.16104 C 188.58457 89.16104 190.41267 89.37361 192.36831 89.58618 Z"/>
               </g>
               <g>
                  <path d="M 163.50136 93.07232 C 162.77863 97.57879 162.18343 104.46605 161.84332 112.11855 C 161.5032 119.04832 160.65293 173.3386 160.61042 191.23695 L 160.5679 197.86913 L 152.40523 198.16672 C 135.56972 198.76192 126.25917 200.29242 95.94675 207.5623 C 89.52715 209.0928 83.74525 210.45325 83.10754 210.6233 L 81.91715 210.83587 L 81.91715 198.76192 C 81.91715 177.3349 84.34045 165.17592 91.8229 148.8931 C 104.61959 121.1315 128.72498 100.29968 157.33684 92.34958 C 164.2241 90.43646 163.9265 90.39394 163.50136 93.07232 Z"/>
               </g>
               <g>
                  <path d="M 206.9931 92.30707 C 235.60497 100.17214 259.8379 121.04648 272.6771 148.8931 C 280.15955 165.17592 282.58285 177.3349 282.58285 198.76192 L 282.58285 210.83587 L 281.43497 210.6233 C 280.75475 210.45325 274.97285 209.0928 268.55325 207.5623 C 238.28334 200.29242 228.93028 198.76192 212.1798 198.16672 L 204.05964 197.86913 L 203.80456 180.3959 C 203.6345 170.78776 203.50696 157.09828 203.50696 149.95594 C 203.46444 126.78586 202.18903 95.1555 201.12618 91.58433 C 200.82858 90.64902 200.78607 90.60651 206.9931 92.30707 Z"/>
               </g>
               <g>
                  <path d="M 186.2463 189.49388 C 188.6696 190.25913 189.22228 190.64176 190.1576 192.08723 L 191.22044 193.8303 L 190.24262 201.10018 C 188.75463 212.36637 188.92469 224.14273 190.7953 236.34422 C 191.26295 239.19265 191.22044 239.87288 190.58273 241.53092 C 189.51988 244.2518 188.372 245.56974 185.9062 246.71762 C 183.1853 247.99303 181.3147 247.99303 178.5938 246.71762 C 176.128 245.56974 174.98012 244.2518 173.91727 241.53092 C 173.27956 239.87288 173.23705 239.19265 173.7047 236.34422 C 175.57531 224.14273 175.74537 212.36637 174.25738 201.10018 L 173.27956 193.8303 L 174.34241 192.08723 C 175.27772 190.64176 175.8304 190.25913 178.08364 189.5364 C 181.52726 188.47355 182.80268 188.43104 186.2463 189.49388 Z"/>
               </g>
               <g>
                  <path d="M 172.34426 200.76007 C 172.4718 201.1427 172.4718 201.52532 172.38677 201.61035 C 172.25923 201.7379 167.32761 202.12052 161.37567 202.46063 C 135.39966 203.99113 127.53459 205.18152 93.31088 212.62146 C 87.27391 213.93939 82.25727 215.00223 82.12972 215.00223 C 82.00218 215.00223 81.91715 214.6196 81.91715 214.15196 C 81.91715 213.59928 82.29978 213.25916 83.10754 213.0891 C 83.74525 212.96157 84.93564 212.66397 85.74341 212.4514 C 92.88574 210.58079 110.65656 206.24437 116.14086 205.05398 C 134.25179 201.1427 142.20189 200.29242 161.33315 200.16488 C 170.6437 200.12236 172.08917 200.2074 172.34426 200.76007 Z"/>
               </g>
               <g>
                  <path d="M 225.82677 201.1427 C 238.28334 202.6732 255.5865 206.3719 278.7566 212.4514 C 279.56436 212.66397 280.75475 212.96157 281.43497 213.0891 C 282.20022 213.25916 282.58285 213.59928 282.58285 214.15196 C 282.58285 214.6196 282.49782 215.00223 282.37028 215.00223 C 282.24273 215.00223 277.2261 213.93939 271.1891 212.62146 C 236.9654 205.18152 229.10034 203.99113 203.12433 202.46063 C 197.17239 202.12052 192.24077 201.7379 192.11323 201.61035 C 192.0282 201.52532 192.0282 201.10018 192.19826 200.71756 C 192.45334 200.03734 193.60122 200.03734 206.3979 200.2499 C 214.81566 200.37745 222.46817 200.76007 225.82677 201.1427 Z"/>
               </g>
               <g>
                  <path d="M 172.55683 205.22403 C 172.7694 206.0318 173.02448 210.24068 173.19454 214.53458 L 173.44962 222.39966 L 171.96163 220.86916 C 170.26108 219.2111 167.2851 217.42553 164.64924 216.53274 C 163.67142 216.19262 162.22594 215.63994 161.41818 215.29983 C 157.88953 213.85436 151.89506 213.21665 143.4348 213.3867 L 135.27212 213.55676 L 124.2185 218.48838 C 102.96154 227.96898 97.73233 230.68987 94.11865 234.09098 C 91.69536 236.34422 90.84508 237.8322 89.56966 242.21114 C 89.01698 243.9542 88.50681 245.52723 88.33676 245.65477 C 88.20921 245.82482 87.06134 246.0374 85.82843 246.16494 L 83.61771 246.42002 L 83.61771 243.78416 C 83.61771 242.33868 83.32011 235.91908 82.93749 229.542 C 82.42732 221.08172 82.34229 217.80815 82.6824 217.46804 C 82.93749 217.21296 86.55117 216.27765 90.71754 215.42737 C 94.8839 214.53458 101.64361 213.0466 105.72495 212.1113 C 123.2832 208.02995 131.31833 206.88208 160.14276 204.37375 C 172.1742 203.35342 172.13169 203.35342 172.55683 205.22403 Z"/>
               </g>
               <g>
                  <path d="M 203.59199 204.37375 C 232.11883 206.71202 240.96172 207.98744 258.77505 212.1113 C 262.8564 213.0466 269.6161 214.53458 273.78246 215.42737 C 277.94883 216.27765 281.5625 217.21296 281.8176 217.46804 C 282.1577 217.80815 282.07268 221.08172 281.5625 229.542 C 281.1799 235.91908 280.8823 242.33868 280.8823 243.78416 L 280.8823 246.42002 L 278.67157 246.16494 C 277.43866 246.0374 276.2908 245.82482 276.16324 245.65477 C 275.9932 245.52723 275.48302 243.9542 274.93034 242.21114 C 273.65492 237.8322 272.80464 236.34422 270.38135 234.09098 C 266.76767 230.68987 261.53846 227.96898 240.2815 218.48838 L 229.22788 213.55676 L 221.0652 213.3867 C 212.60494 213.21665 206.61047 213.85436 203.08182 215.29983 C 202.27406 215.63994 200.82858 216.19262 199.85076 216.53274 C 197.2149 217.42553 194.23892 219.2111 192.6234 220.82664 L 191.17792 222.27211 L 191.17792 217.0429 C 191.17792 212.02626 191.81563 204.67135 192.28328 203.9061 C 192.58088 203.43845 191.51803 203.39593 203.59199 204.37375 Z"/>
               </g>
               <g>
                  <path d="M 155.0411 216.27765 C 156.10394 216.53274 157.97455 216.87285 159.20746 217.12793 C 160.44036 217.3405 163.3313 218.5309 165.66957 219.7638 C 170.9413 222.5272 171.62152 223.54753 171.62152 228.9468 C 171.62152 230.98747 171.45146 232.43294 171.19638 232.43294 C 170.98381 232.43294 170.77124 232.81557 170.77124 233.28322 C 170.77124 233.70836 169.79342 235.0688 168.64555 236.2592 C 166.6474 238.21483 166.3498 238.3849 164.39415 238.3849 C 163.24628 238.3849 161.20561 238.0873 159.88768 237.74718 C 157.76198 237.1945 155.55126 237.1945 141.26658 237.74718 C 132.33866 238.0873 123.53828 238.55494 121.66767 238.81003 C 116.73605 239.49025 110.99667 241.10578 104.44953 243.69913 C 99.60294 245.61226 98.11496 245.99488 95.01144 246.20745 L 91.27022 246.46253 L 91.27022 245.05957 C 91.27022 243.274 92.37558 239.9154 93.69351 237.8322 C 95.90423 234.26104 102.5364 230.56233 122.73052 221.50686 C 135.69726 215.68246 136.97268 215.34235 146.53831 215.63994 C 150.152 215.76748 153.97824 216.06508 155.0411 216.27765 Z"/>
               </g>
               <g>
                  <path d="M 227.31475 216.02257 C 230.29073 216.53274 232.84156 217.51056 241.76948 221.50686 C 261.92108 230.51981 268.59577 234.26104 270.8065 237.8322 C 272.12442 239.9154 273.2298 243.274 273.2298 245.05957 L 273.2298 246.46253 L 269.53107 246.20745 C 266.38504 245.99488 264.89706 245.61226 260.05047 243.69913 C 253.50333 241.10578 247.76395 239.49025 242.83233 238.81003 C 240.96172 238.55494 232.16134 238.0873 223.23342 237.74718 C 208.94874 237.1945 206.73802 237.1945 204.61232 237.74718 C 203.2944 238.0873 201.25372 238.3849 200.10585 238.3849 C 198.1502 238.3849 197.8526 238.21483 195.85445 236.2592 C 194.70658 235.0688 193.72876 233.70836 193.72876 233.28322 C 193.72876 232.81557 193.5587 232.43294 193.30362 232.43294 C 193.04854 232.43294 192.87848 230.98747 192.87848 228.9468 C 192.87848 223.42 193.51619 222.48468 199.29808 219.5087 C 201.84892 218.19078 204.48478 217.12793 205.165 217.12793 C 205.8027 217.12793 206.90807 216.91536 207.5883 216.7028 C 211.07444 215.4699 221.83046 215.12978 227.31475 216.02257 Z"/>
               </g>
               <g>
                  <path d="M 172.4718 243.65662 C 174.17236 247.18527 178.38123 249.86365 182.25 249.86365 C 187.90435 249.86365 193.30362 244.5069 193.30362 238.89506 L 193.30362 237.44958 L 194.96166 238.93757 C 197.42747 241.1483 199.3406 241.40338 204.01713 240.04293 C 205.12249 239.74533 206.14282 239.6178 206.31288 239.74533 C 206.44042 239.9154 205.67517 241.70097 204.65483 243.78416 C 199.3831 253.9875 196.74725 261.21486 193.68624 273.45887 C 192.41083 278.56054 191.98569 281.06886 192.19826 281.91914 C 192.58088 283.53467 194.66406 285.4478 197.34244 286.7232 C 199.46814 287.70103 199.55316 287.70103 209.88405 287.44595 C 215.62343 287.2759 220.51253 287.0208 220.7251 286.85076 C 220.98018 286.6807 223.36096 286.00048 226.03934 285.36277 C 229.8656 284.46998 232.20385 283.5772 236.71033 281.28143 C 243.12993 278.00786 245.8083 276.13725 254.09852 268.9524 C 260.22053 263.68067 262.21868 261.64 268.46823 254.41264 C 272.50705 249.7361 273.69744 249.01337 273.99503 251.09655 C 274.08006 251.64923 273.78246 252.62705 273.3148 253.22225 C 272.88967 253.85996 272.337 254.83778 272.16694 255.39046 C 271.27414 258.32392 263.32404 271.46072 259.15768 276.9025 C 255.75656 281.40897 242.83233 294.16315 238.02826 297.81935 C 227.56984 305.72693 221.91549 308.49034 210.09662 311.4238 C 202.61417 313.2944 200.36093 313.71955 195.85445 314.01715 C 191.85815 314.27223 191.81563 314.27223 190.96535 315.6752 C 190.4977 316.44044 189.73245 317.67335 189.2648 318.4386 C 188.15943 320.18167 184.3757 322.1373 182.03743 322.1373 C 179.69916 322.1373 175.91543 320.18167 174.81006 318.4386 C 174.34241 317.67335 173.57716 316.44044 173.1095 315.6752 C 172.25923 314.31475 172.1742 314.27223 168.39046 314.01715 C 164.09656 313.67704 161.7583 313.2519 154.40338 311.4238 C 142.58451 308.49034 136.93016 305.72693 126.47174 297.81935 C 121.66767 294.16315 108.74344 281.40897 105.34232 276.9025 C 101.17596 271.46072 93.22586 258.32392 92.33306 255.39046 C 92.16301 254.83778 91.61033 253.85996 91.18519 253.22225 C 90.71754 252.62705 90.41994 251.64923 90.50497 251.09655 C 90.80256 249.01337 91.99295 249.7361 96.03177 254.41264 C 102.28132 261.64 104.27947 263.68067 110.40148 268.9524 C 118.69169 276.13725 121.37007 278.00786 127.78967 281.28143 C 132.29615 283.5772 134.63441 284.46998 138.46066 285.36277 C 141.13904 286.00048 143.56233 286.6807 143.7749 286.85076 C 144.02999 287.0208 148.87657 287.2759 154.61595 287.44595 C 164.94684 287.70103 165.03186 287.70103 167.15756 286.7232 C 169.83594 285.4478 171.91912 283.53467 172.30174 281.91914 C 172.51431 281.06886 172.08917 278.56054 170.81376 273.45887 C 167.75275 261.21486 165.1169 253.9875 159.84517 243.78416 C 158.82483 241.70097 158.05958 239.9154 158.18712 239.74533 C 158.35718 239.6178 159.37751 239.74533 160.48287 240.08545 C 165.07438 241.40338 167.5827 241.06327 169.7509 238.76751 L 170.98381 237.4921 L 171.2389 239.6178 C 171.40895 240.76567 171.96163 242.59377 172.4718 243.65662 Z"/>
               </g>
               <g>
                  <path d="M 154.40338 240.72315 C 156.274 242.55125 155.84886 243.06142 152.40523 243.06142 C 146.02814 243.10393 131.61592 243.9117 126.72682 244.5494 C 123.96342 244.93203 117.28873 245.99488 111.93198 246.9302 C 102.28132 248.63074 101.04842 248.63074 101.6011 247.18527 C 101.85618 246.50505 109.76377 243.5716 114.22773 242.50874 C 118.26655 241.4884 122.73052 241.02075 132.93386 240.51059 C 154.02076 239.44774 153.17048 239.44774 154.40338 240.72315 Z"/>
               </g>
               <g>
                  <path d="M 231.99128 240.5531 C 241.5144 241.02075 246.361 241.53092 250.27227 242.50874 C 254.73623 243.5716 262.64382 246.50505 262.8989 247.18527 C 263.45158 248.63074 262.21868 248.63074 252.56802 246.9302 C 247.21127 245.99488 240.53658 244.93203 237.77318 244.5494 C 232.88408 243.9117 218.47186 243.10393 212.13728 243.06142 C 208.60863 243.06142 208.226 242.55125 210.13913 240.68064 L 211.20198 239.57528 L 217.45152 239.83036 C 220.89515 240.00042 227.4423 240.29802 231.99128 240.5531 Z"/>
               </g>
               <g>
                  <path d="M 101.47356 254.41264 C 104.23696 256.96347 108.14824 260.4071 110.1464 262.15017 C 112.14455 263.85073 113.80259 265.42374 113.80259 265.6363 C 113.80259 265.84888 114.01516 266.01894 114.22773 266.01894 C 114.48282 266.01894 114.99298 266.31653 115.41812 266.65664 C 119.54197 270.27033 121.88024 271.7583 126.25917 273.5439 C 137.10022 277.92283 140.88396 278.56054 158.01707 278.98568 C 168.39046 279.24076 168.85812 279.3258 169.49582 280.47367 C 170.09102 281.62154 169.49582 282.6844 167.5827 283.87478 C 166.09471 284.76757 165.79711 284.8101 154.70098 284.64003 C 142.11686 284.42746 139.99117 284.08735 133.44402 281.1964 C 131.65844 280.38864 129.23514 279.41082 128.08727 278.98568 C 125.36638 278.00786 114.10019 269.5476 107.85064 263.7657 C 103.59925 259.85442 95.98926 251.47918 95.60664 250.2888 C 95.1815 249.05588 96.96708 250.3313 101.47356 254.41264 Z"/>
               </g>
               <g>
                  <path d="M 268.89336 250.2888 C 268.51074 251.47918 260.90075 259.85442 256.64936 263.7657 C 250.3998 269.5476 239.13362 278.00786 236.41273 278.98568 C 235.26486 279.41082 232.84156 280.38864 231.05598 281.1964 C 224.50883 284.08735 222.38314 284.42746 209.79902 284.64003 C 198.70289 284.8101 198.4053 284.76757 196.9173 283.87478 C 195.00418 282.6844 194.40898 281.62154 195.00418 280.47367 C 195.64188 279.3258 196.10954 279.24076 206.48293 278.98568 C 223.61604 278.56054 227.39978 277.92283 238.24083 273.5439 C 242.61976 271.7583 244.95803 270.27033 249.1244 266.65664 C 249.50702 266.31653 249.88964 266.01894 249.97467 266.01894 C 250.01718 266.01894 251.33512 264.87106 252.8231 263.4256 C 254.3536 262.02263 256.56433 260.1095 257.7122 259.2167 C 258.9026 258.2814 261.666 255.8156 263.87672 253.7324 C 267.4479 250.3313 269.3185 249.05588 268.89336 250.2888 Z"/>
               </g>
               <g>
                  <path d="M 88.1667 264.6585 C 88.29424 289.104 89.65469 302.36834 93.0558 312.57168 C 93.77854 314.65486 95.52161 318.99128 97.0096 322.1373 C 98.45507 325.28334 100.49574 329.7473 101.47356 332.08556 C 102.49389 334.3813 104.15193 337.48483 105.17227 339.01533 L 107.04288 341.73622 L 106.53271 351.00426 C 106.06506 359.29447 106.06506 360.73994 106.74528 365.11888 C 107.12791 367.79725 107.68059 370.6457 107.93567 371.45345 C 108.99852 375.0246 112.18706 380.89154 114.65287 383.825 C 116.60851 386.12075 117.2037 387.1836 117.11868 387.99137 C 116.99114 388.9692 116.82108 389.09673 115.54566 389.0117 C 114.39779 388.9692 113.63254 388.459 111.50684 386.2483 C 107.80813 382.42204 105.34232 379.5311 104.57707 378.0431 C 104.23696 377.32037 103.59925 376.38507 103.17411 375.9174 C 101.85618 374.47194 98.19998 367.15955 96.83954 363.3758 C 95.30904 359.16693 89.95228 340.4608 87.23139 330.0024 C 86.16855 326.00607 84.63804 318.65117 83.83028 313.63452 C 82.42732 305.2593 82.25727 303.55873 82.08721 293.4404 C 81.87464 283.83227 82.34229 265.21117 83.02252 254.24258 L 83.23509 250.75644 L 84.8081 250.58638 C 88.4643 250.20376 88.08167 248.5032 88.1667 264.6585 Z"/>
               </g>
               <g>
                  <path d="M 280.3296 250.71393 C 281.1799 250.71393 281.2649 250.969 281.4775 254.20007 C 282.1577 265.2537 282.62536 283.83227 282.4128 293.4404 C 282.07268 310.4885 280.3296 320.05413 272.16694 348.49594 C 270.42387 354.70297 268.3832 361.37765 267.66046 363.3758 C 266.3 367.15955 262.64382 374.47194 261.3259 375.9174 C 260.90075 376.38507 260.26304 377.32037 259.92293 378.0431 C 259.15768 379.5311 256.69187 382.42204 252.99316 386.2483 C 250.86746 388.459 250.1022 388.9692 248.95434 389.0117 C 247.67892 389.09673 247.50886 388.9692 247.38132 387.99137 C 247.2963 387.1836 247.8915 386.12075 249.84713 383.825 C 252.31294 380.89154 255.50148 375.0246 256.56433 371.45345 C 256.8194 370.6457 257.3721 367.79725 257.75472 365.11888 C 258.43494 360.73994 258.43494 359.29447 257.9673 351.00426 L 257.45712 341.73622 L 259.32773 339.01533 C 260.34807 337.48483 262.0061 334.3813 263.02644 332.08556 C 264.00426 329.7473 266.04493 325.28334 267.4904 322.1373 C 268.9784 318.99128 270.72146 314.65486 271.4442 312.57168 C 274.8453 302.36834 276.20576 289.104 276.3333 264.61598 L 276.41833 250.20376 L 277.9063 250.45884 C 278.71408 250.58638 279.81944 250.71393 280.3296 250.71393 Z"/>
               </g>
               <g>
                  <path d="M 97.30719 268.73983 C 99.00775 272.09843 100.15562 273.92652 101.55858 275.49954 C 101.94121 275.9672 102.57892 276.98753 102.96154 277.7953 C 103.59925 279.0707 104.70461 280.38864 109.42366 285.4478 C 109.97634 286.00048 110.57153 286.80824 110.82662 287.23338 C 111.3793 288.29623 125.53643 300.24264 130.3405 303.72878 C 134.93201 307.08738 140.20374 309.8508 145.09284 311.4663 C 150.87473 313.42195 165.07438 316.6105 167.8803 316.6105 C 170.17605 316.6105 170.38862 316.69553 171.2814 318.05597 C 171.8341 318.86374 173.23705 320.2667 174.38493 321.2445 C 179.10397 325.1558 184.58827 325.24082 189.43485 321.4996 C 190.45519 320.69183 191.433 320.0116 191.60306 320.0116 C 191.77312 320.0116 192.41083 319.24636 193.04854 318.31105 C 194.1539 316.653 194.23892 316.6105 196.6197 316.6105 C 199.42562 316.6105 213.58276 313.42195 219.40716 311.4663 C 224.29626 309.8508 229.568 307.08738 234.1595 303.72878 C 238.96357 300.24264 253.1207 288.29623 253.67338 287.23338 C 253.92847 286.80824 254.52366 286.00048 255.07634 285.4478 C 259.7954 280.38864 260.90075 279.0707 261.53846 277.7953 C 261.92108 276.98753 262.5588 275.9672 262.94142 275.49954 C 264.34438 273.92652 265.49225 272.09843 267.1928 268.73983 C 269.3185 264.57346 270.67895 262.91542 271.4867 263.4256 C 272.6771 264.19084 270.76398 268.56977 266.00242 276.0097 C 265.6623 276.5624 264.3869 278.68808 263.154 280.77127 C 260.4331 285.40528 256.64936 289.86924 248.35914 298.11694 C 239.89887 306.61973 233.43676 311.21123 225.9118 314.05966 C 224.7214 314.5273 223.31844 315.08 222.8508 315.29257 C 221.40532 315.93028 214.56058 318.141 210.39421 319.3314 C 206.56796 320.43675 206.3979 320.43675 203.67701 319.79904 C 198.1077 318.52362 195.89697 319.16133 192.45334 323.0726 C 191.51803 324.17798 189.6049 325.70848 188.28698 326.47373 C 186.07625 327.74914 185.56609 327.8767 182.25 327.8767 C 178.93391 327.8767 178.42375 327.74914 176.21302 326.47373 C 174.8951 325.70848 172.98197 324.17798 172.04666 323.0726 C 168.60303 319.16133 166.3923 318.52362 160.82299 319.79904 C 158.1021 320.43675 157.93204 320.43675 154.10579 319.3314 C 149.93942 318.141 143.09468 315.93028 141.64921 315.29257 C 141.18156 315.08 139.7786 314.5273 138.5882 314.05966 C 131.06324 311.21123 124.60113 306.61973 116.14086 298.11694 C 107.85064 289.86924 104.0669 285.40528 101.34601 280.77127 C 100.11311 278.68808 98.83769 276.5624 98.49758 276.0097 C 93.73602 268.56977 91.8229 264.19084 93.01329 263.4256 C 93.82105 262.91542 95.1815 264.57346 97.30719 268.73983 Z"/>
               </g>
            </g>
         </g>
      </g>
   </g>
</svg>