<?xml version="1.0" encoding="utf-8"?>
<svg xmlns:dc="http://purl.org/dc/elements/1.1/" xmlns:xl="http://www.w3.org/1999/xlink"
     xmlns="http://www.w3.org/2000/svg"
     xmlns:xlink="http://www.w3.org/1999/xlink"
     version="1.1"
     viewBox="36 81 351 108"
     width="351"
     height="108"
     preserveAspectRatio="xMidYMid meet"
     zoomAndPan="magnify"
     contentScriptType="application/ecmascript"
     contentStyleType="text/css">
   <defs/>
   <metadata  xmlns:svg="http://www.w3.org/2000/svg"
             xmlns:rdf="http://www.w3.org/1999/02/22-rdf-syntax-ns#"
             xmlns:cc="http://creativecommons.org/ns#">
      <rdf:RDF>
         <cc:Work rdf:about="">
            <dc:creator>
               <cc:Agent>
                  <dc:title>http://heraldicart.org Solleret.svg</dc:title>
               </cc:Agent>
            </dc:creator>
         </cc:Work>
      </rdf:RDF>
   </metadata>
   <g stroke="#505050" fill="#ffff00" stroke-opacity="1" stroke-dasharray="none"
      fill-opacity="1">
      <title>Solleret</title>
      <g>
         <title>Art</title>
         <g>
            <g>
               <g  id="outline-0">
                  <path 
                        d="M 242.97686 84.16435 C 242.59307 85.09643 242.92204 87.39919 243.79928 90.74368 C 244.78618 94.41714 244.56687 100.00958 243.4155 101.48993 C 242.81238 102.20269 241.4417 104.56028 240.34513 106.75339 C 237.43926 112.291 234.86236 115.14204 232.7789 115.14204 C 231.84683 115.14204 229.70855 115.96446 227.89923 117.11584 C 226.14474 118.15757 224.44508 118.87033 224.11611 118.70584 C 223.78715 118.48653 221.86818 118.97998 219.78472 119.8024 C 217.31747 120.73447 215.50816 121.11827 214.57608 120.84413 C 213.53436 120.62482 212.32815 120.95378 210.13503 122.21482 C 208.4902 123.14689 206.62606 123.91448 205.96812 123.91448 C 205.36502 123.91448 204.1588 124.3531 203.39122 124.90138 C 201.25294 126.3269 198.51155 127.36863 197.85362 126.93001 C 197.52465 126.76552 195.825 127.36863 194.0705 128.3007 C 192.37084 129.17795 190.34221 129.94553 189.57462 129.8907 C 188.80704 129.83588 186.7784 130.43898 185.02392 131.2614 C 183.05012 132.13865 181.35046 132.57727 180.58287 132.35796 C 179.76045 132.13865 177.78665 132.79658 174.7163 134.27693 C 171.70077 135.75728 169.94628 136.30556 169.61732 135.97659 C 168.68525 135.04452 167.15007 135.37348 162.59936 137.34728 C 158.98073 138.93729 158.04866 139.1566 157.39073 138.60832 C 156.23934 137.67625 154.04623 137.95039 147.79587 139.86936 C 143.95793 141.02074 141.60033 141.40454 139.24274 141.34971 C 136.611 141.24005 135.73376 141.40454 134.74686 142.28178 C 134.0341 142.93971 132.99237 143.26868 132.00547 143.21385 C 131.18306 143.1042 129.31891 143.54282 127.94822 144.14593 C 126.63235 144.80386 125.26166 145.2973 124.93269 145.2973 C 124.65855 145.2973 120.49164 146.44869 115.72163 147.81939 C 110.95161 149.19008 105.68815 150.67043 104.04331 151.10905 C 102.39848 151.54767 99.65709 152.42492 98.01226 153.08285 C 94.00983 154.5632 91.59741 155.44044 88.96568 156.26286 C 86.16946 157.1401 69.55665 164.48703 63.74491 167.3929 C 52.17625 173.20464 38.25 183.0188 38.25 185.3764 C 38.25 186.9664 39.01759 187.02124 41.86863 185.54089 C 45.1583 183.84123 54.807984 179.455 57.43972 178.4681 C 69.501824 173.9174 77.67116 171.23084 85.67601 169.14738 C 88.69154 168.3798 92.52948 167.3929 94.17432 166.89945 C 102.56297 164.54185 116.76336 161.8553 123.89096 161.19736 C 136.28204 160.1008 143.9031 160.59425 157.88418 163.4453 C 163.20247 164.54185 163.8604 164.59668 165.01179 163.8291 C 166.218 163.0615 166.49214 163.0615 167.91766 163.8291 C 169.398 164.59668 173.78423 164.87082 178.8832 164.54185 C 179.48632 164.48703 186.7784 164.59668 195.0574 164.76116 C 217.7561 165.14496 224.93853 165.09013 226.6382 164.4322 C 227.67992 164.0484 232.12097 163.99358 239.63237 164.15806 L 251.03655 164.4322 L 255.53242 166.51565 L 260.0283 168.54428 L 272.0904 168.54428 C 283.60424 168.5991 284.42665 168.54428 290.18357 167.06393 C 300.60084 164.37737 302.5198 162.6777 302.5198 156.42734 C 302.5198 151.87664 302.465 151.87664 316.44607 152.15078 C 323.08022 152.31526 332.40094 152.5894 337.0613 152.75388 C 341.72166 152.9732 351.75514 153.24733 359.26655 153.46664 C 372.31556 153.79561 372.9735 153.85044 372.809 154.83734 C 372.6445 155.60493 372.86383 155.76941 373.46694 155.49527 C 373.9604 155.33079 374.72798 155.00182 375.22143 154.83734 C 375.87936 154.5632 375.989 154.78251 375.66005 155.9339 C 375.27625 157.46907 376.318 158.01735 376.86626 156.537 C 377.3597 155.38562 378.01764 155.49527 378.3466 156.86597 C 378.78523 158.56563 380.04627 157.85287 380.37524 155.65976 C 380.64938 153.85044 380.75903 153.79561 382.73283 153.9601 C 385.09042 154.1794 385.4742 153.24733 383.39076 152.31526 C 381.74593 151.54767 381.6911 151.10905 383.11662 149.29973 C 384.2132 147.87421 384.59697 146.39386 383.8294 146.39386 C 383.55525 146.39386 382.78766 146.88731 382.02007 147.49042 C 380.2656 148.86111 379.2787 148.86111 379.2787 147.49042 C 379.2787 146.22938 378.07247 146.0649 377.1404 147.16145 C 376.5921 147.76456 376.09867 147.81939 374.83763 147.38076 C 372.9735 146.72283 372.26073 147.10662 373.1928 148.258 C 374.3442 149.6287 373.0283 149.73836 364.9138 149.19008 C 360.5824 148.86111 350.2748 148.36766 341.9958 148.0387 C 333.7168 147.70973 324.8347 147.32594 322.2578 147.21628 C 313.43054 146.668 302.95844 145.90041 302.79395 145.73593 C 302.73913 145.62627 302.41016 144.20075 302.02636 142.55592 C 301.6974 140.91109 300.9298 137.67625 300.3267 135.42831 C 298.68187 129.2876 298.46256 124.90138 299.5043 120.07654 C 300.05256 117.8286 300.546 114.59376 300.60084 112.94893 C 300.7105 111.3041 301.42326 107.52098 302.19085 104.50545 C 304.82258 94.5268 303.8905 91.73058 298.1336 92.44335 C 294.4053 92.88197 289.96426 94.41714 286.6746 96.33612 C 277.1894 101.76406 270.17143 109.05616 270.17143 113.38755 C 270.17143 114.42928 270.44557 116.8417 270.82937 118.76067 C 271.37765 121.94068 271.37765 122.3793 270.44557 123.3662 C 269.5135 124.40793 269.34902 124.40793 268.08798 123.58551 C 267.10108 122.92758 266.11418 122.81793 264.41452 123.03724 C 261.12485 123.58551 260.30244 122.59861 260.30244 118.15757 C 260.30244 114.8679 260.4121 114.64859 262.2214 113.2779 C 264.46935 111.57823 264.579 110.64616 263.26314 105.32787 C 261.89244 99.89992 258.60278 93.81404 255.3131 90.5792 C 253.7231 88.9892 252.18793 87.72816 251.9138 87.72816 C 251.63965 87.72816 250.04965 86.74126 248.4048 85.53505 C 245.16997 83.23228 243.4703 82.79366 242.97686 84.16435 Z"
                        fill="black"/>
               </g>
            </g>
            <g>
               <path d="M 250.48827 89.04402 C 256.4645 93.10128 259.69933 96.17163 254.8745 93.15611 C 253.22966 92.11438 250.26896 90.30506 248.34999 89.09885 C 245.06032 87.07022 243.52514 85.53505 244.841 85.53505 C 245.16997 85.53505 247.69205 87.12505 250.48827 89.04402 Z"/>
            </g>
            <g>
               <path d="M 250.48827 92.05955 C 252.7362 93.5399 255.64208 95.8975 256.90312 97.26819 C 259.20588 99.73544 261.67313 104.3958 261.12485 105.21821 C 261.0152 105.43753 259.91864 105.65684 258.71243 105.71166 C 257.56105 105.76649 255.91622 106.04063 255.0938 106.3696 C 253.06517 107.13719 251.03655 107.02753 248.07585 106.04063 C 244.73135 104.88925 244.0186 104.012 245.0055 102.14786 C 245.8279 100.61268 246.04722 93.43025 245.33446 90.85334 C 244.73135 88.71506 245.77308 88.93437 250.48827 92.05955 Z"/>
            </g>
            <g>
               <path d="M 300.87498 95.18473 C 300.87498 97.70681 293.8022 103.18959 285.35872 107.19201 C 282.50768 108.56271 279.87595 109.98823 279.54698 110.37202 C 279.218 110.81065 278.66974 113.05858 278.3956 115.471 C 277.2442 123.69517 276.2573 125.55931 274.2287 123.31138 C 273.29662 122.26965 272.6935 119.74757 272.03558 113.71652 L 271.7066 110.9203 L 275.32524 107.08236 C 282.28837 99.68061 292.4315 93.9237 298.5722 93.81404 C 300.7105 93.75921 300.87498 93.86887 300.87498 95.18473 Z"/>
            </g>
            <g>
               <path d="M 300.87498 98.36474 C 300.87498 98.52923 300.65567 98.80337 300.3267 98.96785 C 300.05256 99.13233 299.77843 99.02268 299.77843 98.74854 C 299.77843 98.41957 300.05256 98.14543 300.3267 98.14543 C 300.65567 98.14543 300.87498 98.25509 300.87498 98.36474 Z"/>
            </g>
            <g>
               <path d="M 298.02394 102.64131 C 297.85945 103.0251 297.20152 104.9989 296.5436 107.02753 C 295.44703 110.26237 294.29565 112.291 294.29565 110.9203 C 294.29565 109.76892 297.31118 101.98338 297.7498 101.98338 C 298.02394 101.98338 298.1336 102.31234 298.02394 102.64131 Z"/>
            </g>
            <g>
               <path d="M 299.01084 104.28614 C 297.64014 108.9465 297.5853 109.3303 298.90118 106.64374 C 300.43636 103.46373 300.65567 103.57338 299.5043 106.9727 C 297.9691 111.35892 298.1336 111.08478 297.5853 110.20754 C 297.1467 109.49478 297.03704 109.54961 297.03704 110.3172 C 297.03704 110.86547 296.81773 111.3041 296.48876 111.3041 C 295.72117 111.3041 295.776 110.9203 297.42083 106.20511 C 299.01084 101.76406 300.21705 100.28372 299.01084 104.28614 Z"/>
            </g>
            <g>
               <path d="M 294.5698 107.57581 C 293.5829 110.26237 293.0346 111.08478 292.10254 111.19444 L 290.8415 111.41375 L 291.93806 110.04306 C 292.54116 109.27547 293.47323 107.52098 293.9667 106.15029 C 295.44703 102.31234 295.9953 103.68304 294.5698 107.57581 Z"/>
            </g>
            <g>
               <path d="M 245.93756 106.69856 C 249.1724 108.23374 249.44654 108.23374 258.4383 107.13719 C 261.6183 106.75339 263.04383 107.63064 263.04383 109.98823 C 263.04383 111.08478 262.6052 111.57823 260.8507 112.291 C 259.4252 112.8941 258.49312 113.66169 258.32864 114.42928 C 258.10933 115.14204 257.72553 115.69032 257.4514 115.69032 C 257.0676 115.69032 257.01277 116.51273 257.23208 117.88343 C 257.50622 119.63792 257.39657 119.96688 256.79346 119.74757 C 255.97104 119.4186 255.8614 120.95378 256.57415 122.81793 C 256.79346 123.25655 257.0676 124.3531 257.2869 125.23035 C 257.61588 126.65587 259.4252 128.79415 260.4121 128.84898 C 260.68623 128.84898 262.05693 130.05519 263.48245 131.59037 C 265.12728 133.29003 266.7721 134.44141 267.86867 134.66072 C 270.17143 135.15417 270.39075 135.53797 269.34902 138.00522 C 268.36212 140.30798 267.5397 145.18765 266.82694 152.69906 C 265.9497 162.6777 265.7852 163.39047 264.46935 163.39047 C 263.86624 163.39047 260.35726 162.89702 256.73863 162.29391 C 253.12 161.6908 249.22723 161.19736 248.13067 161.19736 L 246.04722 161.19736 L 246.04722 157.68838 C 246.04722 154.34389 245.93756 154.01492 243.74445 151.32836 C 239.52272 146.17455 238.75513 144.80386 238.481 142.00764 C 238.26168 139.70488 238.42616 139.10177 239.6872 137.62142 C 240.4548 136.63452 241.11272 135.70245 241.11272 135.53797 C 241.11272 135.31866 239.63237 133.619 237.82305 131.70002 C 235.19132 128.95864 234.3689 127.58794 233.43683 124.68207 C 231.792 119.25412 231.95648 117.66412 234.20442 116.2386 C 236.78133 114.64859 239.24858 111.74272 241.00306 108.23374 C 241.77065 106.58891 242.53824 105.27304 242.70273 105.27304 C 242.81238 105.27304 244.29273 105.93097 245.93756 106.69856 Z"/>
            </g>
            <g>
               <path d="M 291.55426 107.3565 C 291.55426 108.12409 289.41598 109.87857 288.97736 109.49478 C 288.81287 109.27547 289.087 108.61754 289.6353 108.01443 C 290.67702 106.86305 291.55426 106.58891 291.55426 107.3565 Z"/>
            </g>
            <g>
               <path d="M 288.2646 110.20754 C 288.2646 110.53651 287.8808 110.9203 287.44218 111.08478 C 287.00356 111.3041 286.61976 111.63306 286.61976 111.85237 C 286.61976 112.56513 289.90943 113.4972 292.37668 113.4972 C 295.22772 113.4972 295.5567 113.82617 294.5698 115.63549 C 294.186 116.40308 293.5829 118.15757 293.30875 119.52826 C 292.48633 123.14689 292.48633 131.8645 293.25392 133.29003 C 294.186 135.09934 295.9405 142.5011 295.9405 144.85869 C 295.9405 146.33904 295.66634 147.0518 294.84393 147.49042 C 293.52806 148.20318 293.47323 149.40939 294.5698 151.54767 C 295.28255 152.86354 295.33738 153.68596 294.84393 156.09838 C 294.51496 157.68838 294.35048 159.22356 294.5698 159.55253 C 295.22772 160.64908 294.24082 162.23909 292.48633 162.78736 C 289.087 163.88392 279.9856 165.0353 274.88662 165.0353 C 268.03315 165.0353 267.1559 164.4322 267.97832 160.15563 C 268.25246 158.56563 268.5266 155.82424 268.5266 154.12458 C 268.5266 152.42492 268.9104 149.57387 269.34902 147.76456 C 269.78764 145.95524 270.1166 143.43316 270.17143 142.22695 C 270.17143 140.96592 270.55523 139.04694 271.04868 137.89556 C 271.4873 136.74418 271.76144 135.48314 271.59696 135.04452 C 271.37765 134.55107 271.98075 133.67382 273.02248 132.79658 C 275.32524 130.8776 278.28594 124.24345 278.9987 119.30895 C 279.32767 117.17067 279.93078 114.42928 280.25974 113.22307 C 280.86285 111.08478 280.91768 111.02996 283.22044 111.19444 C 284.59114 111.24927 285.46838 111.13961 285.3039 110.81065 C 284.9201 110.26237 285.79735 109.76892 287.33252 109.71409 C 287.82597 109.65926 288.2646 109.9334 288.2646 110.20754 Z"/>
            </g>
            <g>
               <path d="M 230.69545 119.03481 C 230.69545 119.91205 231.07924 122.43413 231.5727 124.57241 C 232.5596 128.79415 235.02684 132.30313 237.54892 132.90623 C 239.52272 133.39968 239.85168 135.209 238.15202 136.799 C 237.16512 137.67625 236.7265 138.66315 236.7265 139.86936 C 236.7265 142.93971 238.53582 147.49042 240.6741 149.95767 C 242.92204 152.53457 243.14135 152.9732 241.98996 152.9732 C 241.60617 152.9732 240.94824 153.35699 240.56444 153.79561 C 239.41306 155.1663 237.87788 154.72768 235.08167 152.09595 C 233.21752 150.39629 232.0113 148.6418 231.24372 146.61317 C 229.87303 142.83006 229.87303 141.40454 231.24372 139.92419 C 231.84683 139.26625 232.34028 138.33418 232.34028 137.84073 C 232.34028 136.74418 230.25682 134.33176 229.32475 134.33176 C 227.57026 134.33176 224.82888 128.3007 224.33543 123.53069 L 224.00646 120.35068 L 226.96716 118.92515 C 230.69545 117.06101 230.69545 117.06101 230.69545 119.03481 Z"/>
            </g>
            <g>
               <path d="M 222.6906 121.50206 C 222.85508 121.99551 223.01956 123.20172 223.01956 124.18862 C 223.01956 127.58794 225.15784 132.19347 228.00889 135.04452 C 229.48923 136.47004 230.69545 137.7859 230.69545 137.89556 C 230.69545 138.00522 230.25682 138.49867 229.76337 139.04694 C 227.67992 141.1304 229.37958 148.47732 232.72407 151.9863 L 234.1496 153.46664 L 232.88856 154.50837 C 232.06614 155.1663 231.73717 155.87907 231.95648 156.48217 C 232.50476 157.85287 233.93028 158.127 235.08167 157.08528 C 236.1234 156.09838 236.17822 156.1532 236.17822 157.74321 C 236.17822 158.62045 235.90408 160.15563 235.57512 161.14253 C 235.02684 162.73254 234.80753 162.8422 232.12097 162.8422 C 228.50234 162.8422 227.18647 161.96495 227.67992 159.93632 C 227.95406 159.00425 228.4475 158.45597 229.0506 158.45597 C 230.09234 158.45597 230.91476 157.08528 230.36648 156.20803 C 230.202 155.9339 229.54406 155.71458 228.88613 155.71458 C 228.11854 155.71458 226.52854 154.50837 224.60956 152.53457 C 221.923 149.79318 221.48438 149.08042 221.15541 146.50352 C 220.82645 143.76213 220.88128 143.43316 222.47128 141.67868 C 225.2675 138.49867 224.55474 137.07314 219.67507 136.25073 C 218.24954 136.03142 217.53678 135.53797 216.9885 134.44141 C 215.94678 132.19347 214.85022 127.20415 214.7954 124.57241 C 214.7954 122.54379 214.95988 122.26965 216.05643 122.21482 C 216.71437 122.21482 218.1399 121.83103 219.18162 121.44723 C 221.75852 120.46033 222.3068 120.46033 222.6906 121.50206 Z"/>
            </g>
            <g>
               <path d="M 213.69884 125.77862 C 213.69884 129.34243 215.56298 135.64762 217.04333 137.12797 C 217.70127 137.7859 218.52368 138.06004 219.3461 137.89556 C 220.00403 137.73108 221.04576 137.95039 221.64886 138.38901 C 222.74542 139.1566 222.74542 139.21143 221.26507 140.7466 C 220.1137 141.95281 219.7299 142.88489 219.7299 144.58455 C 219.7299 148.58697 220.38783 150.2318 223.07439 153.24733 C 224.55474 154.83734 225.76095 156.26286 225.76095 156.48217 C 225.76095 156.64666 225.21267 156.75631 224.55474 156.64666 C 223.56784 156.537 223.2937 156.81114 223.2937 157.9077 C 223.2937 159.00425 223.62266 159.33322 224.82888 159.44287 C 225.98026 159.60735 226.30922 159.93632 226.30922 160.92322 C 226.30922 163.00668 224.82888 164.10323 222.5261 163.6646 C 221.42955 163.50013 220.1137 163.22599 219.62024 163.0615 C 218.19472 162.62288 218.3592 160.4846 219.89438 159.82667 C 221.48438 159.1139 221.48438 157.24976 219.83955 156.81114 C 219.1268 156.64666 216.9885 154.947 215.0147 153.02802 C 210.90262 148.91594 210.0802 146.55835 211.99918 144.52972 C 213.75367 142.66558 213.47953 141.1304 211.01228 139.48557 C 208.21606 137.67625 206.62606 133.50934 206.57123 127.9169 C 206.57123 125.66897 206.68089 125.50449 209.20296 124.24345 C 213.2054 122.10516 213.69884 122.26965 213.69884 125.77862 Z"/>
            </g>
            <g>
               <path d="M 265.7852 126.38173 C 265.7852 127.14932 265.5659 127.75242 265.23694 127.75242 C 264.63383 127.75242 264.46935 125.94311 265.07245 125.39483 C 265.67556 124.79173 265.7852 124.95621 265.7852 126.38173 Z"/>
            </g>
            <g>
               <path d="M 267.43005 128.08139 C 267.43005 129.56174 267.21074 130.43898 266.88177 130.21967 C 266.60763 130.05519 266.3335 128.9038 266.3335 127.6976 C 266.3335 126.54621 266.60763 125.55931 266.88177 125.55931 C 267.21074 125.55931 267.43005 126.7107 267.43005 128.08139 Z"/>
            </g>
            <g>
               <path d="M 205.1457 127.3138 C 205.3102 128.02656 205.5295 130.11002 205.69399 131.97416 C 206.1326 136.63452 207.39365 139.5404 209.31262 140.36281 C 211.50573 141.24005 211.6702 142.28178 210.0802 144.20075 L 208.65469 145.84559 L 210.13503 148.97077 C 210.90262 150.72526 212.8216 153.46664 214.4116 155.11148 C 216.3854 157.1401 216.93368 157.9077 216.11126 157.68838 C 215.34367 157.46907 214.57608 157.63355 214.0278 158.23666 C 212.71194 159.4977 213.26022 160.37494 215.23402 160.37494 C 217.26264 160.37494 217.7561 161.19736 216.65954 162.78736 C 216.0016 163.6646 215.23402 163.93875 213.36987 163.93875 C 210.02538 163.93875 208.76434 163.17116 208.76434 161.25219 C 208.76434 160.1008 209.0933 159.60735 209.91572 159.38804 C 211.61538 158.94942 211.12193 156.537 209.31262 156.537 C 207.06468 156.537 203.22674 154.50837 202.40432 152.86354 C 201.1981 150.50595 201.41742 146.88731 203.00743 144.80386 C 204.5426 142.66558 204.21364 141.40454 201.5819 139.92419 C 199.44362 138.66315 198.12775 135.75728 198.07293 132.13865 L 198.07293 129.17795 L 201.08845 127.64277 C 204.81674 125.83345 204.87157 125.83345 205.1457 127.3138 Z"/>
            </g>
            <g>
               <path d="M 272.91282 127.75242 C 272.91282 128.62967 272.6935 129.39726 272.36454 129.39726 C 272.0904 129.39726 271.81627 128.62967 271.81627 127.75242 C 271.81627 126.82035 272.0904 126.10759 272.36454 126.10759 C 272.6935 126.10759 272.91282 126.82035 272.91282 127.75242 Z"/>
            </g>
            <g>
               <path d="M 269.07488 128.62967 C 269.07488 129.78105 268.85557 130.43898 268.5266 130.21967 C 268.25246 130.05519 267.97832 129.17795 267.97832 128.24587 C 267.97832 127.36863 268.25246 126.65587 268.5266 126.65587 C 268.85557 126.65587 269.07488 127.53311 269.07488 128.62967 Z"/>
            </g>
            <g>
               <path d="M 271.268 128.3007 C 271.268 129.17795 271.04868 129.94553 270.7197 129.94553 C 270.44557 129.94553 270.17143 129.17795 270.17143 128.3007 C 270.17143 127.36863 270.44557 126.65587 270.7197 126.65587 C 271.04868 126.65587 271.268 127.36863 271.268 128.3007 Z"/>
            </g>
            <g>
               <path d="M 196.75706 133.29003 C 197.08603 137.40211 198.51155 140.30798 200.70466 141.34971 C 202.51398 142.22695 202.62363 143.92661 201.03363 144.80386 C 199.93707 145.35214 199.88224 145.6811 200.2112 149.2449 C 200.64983 153.90527 201.03363 154.67286 203.66536 156.26286 C 205.69399 157.46907 205.69399 157.5239 204.48778 157.96252 C 203.5557 158.29149 203.28156 158.78494 203.39122 159.66218 C 203.50088 160.7039 203.82984 160.92322 205.36502 160.75874 C 206.9002 160.64908 207.1195 160.81356 207.1195 162.01978 C 207.1195 163.88392 205.69399 164.48703 202.185 164.0484 C 199.44362 163.71944 199.16948 163.55495 199.005 162.18426 C 198.84052 161.03288 199.05983 160.7039 200.10155 160.53943 C 202.02053 160.26529 201.74639 158.34632 199.71776 157.79804 C 197.30534 157.08528 192.8643 151.65733 192.8643 149.40939 C 192.8643 148.42249 193.24808 147.32594 193.6867 146.94214 C 195.11223 145.73593 194.61878 143.92661 192.37084 141.89799 C 190.06807 139.81453 189.35531 137.84073 189.68428 134.05762 C 189.84876 132.08382 190.06807 131.75485 192.31601 130.6583 C 195.98947 128.84898 196.37327 129.06829 196.75706 133.29003 Z"/>
            </g>
            <g>
               <path d="M 188.7522 139.5404 C 188.97152 140.1435 190.06807 141.45936 191.16463 142.39144 L 193.13843 144.20075 L 192.20636 145.90041 C 190.39704 149.08042 191.43877 153.13768 195.00257 156.48217 C 197.0312 158.45597 197.14086 158.94942 195.38637 158.62045 C 193.8512 158.29149 193.13843 159.66218 193.96084 161.25219 C 194.61878 162.4584 194.78326 162.51323 196.20878 161.74564 C 196.97637 161.30701 197.2505 161.36184 197.2505 161.91012 C 197.2505 163.77426 194.0705 164.59668 191.00015 163.39047 C 189.08117 162.6777 188.9167 159.71701 190.83566 159.44287 C 192.64498 159.16873 192.37084 157.68838 190.39704 157.46907 C 188.5329 157.24976 185.5722 155.22113 184.31116 153.24733 C 183.48874 151.9863 183.54357 151.76698 184.5853 150.06732 C 186.23013 147.38076 186.06565 146.01007 183.92736 144.74903 C 181.56977 143.32351 180.80218 141.62385 180.80218 137.67625 L 180.80218 134.49624 L 184.25633 133.18037 L 187.65565 131.80968 L 187.98462 135.15417 C 188.20393 136.96349 188.5329 138.93729 188.7522 139.5404 Z"/>
            </g>
            <g>
               <path d="M 179.15735 136.799 C 179.15735 141.1304 180.30873 144.25558 182.33736 145.4618 C 184.25633 146.61317 184.53047 147.54525 183.32426 148.53215 C 182.06322 149.6287 181.73425 152.15078 182.66633 153.9601 C 183.10495 154.78251 184.47564 156.20803 185.73668 157.03045 C 187.82014 158.40114 187.98462 158.67528 187.82014 160.81356 C 187.65565 162.89702 187.49117 163.11633 185.84634 163.4453 C 184.85944 163.6646 182.9953 163.6646 181.6246 163.55495 C 178.77355 163.22599 177.95114 161.96495 179.76045 160.59425 C 181.2408 159.4977 180.80218 157.9077 179.10252 157.9077 C 177.56734 157.9077 173.1263 154.28906 173.1263 153.02802 C 173.1263 152.47975 173.61975 151.6025 174.22285 151.05422 C 176.41596 149.08042 175.42906 147.2711 170.65905 144.4749 C 169.45284 143.76213 168.90456 139.10177 169.94628 138.1697 C 170.7687 137.45694 177.45769 134.49624 178.49942 134.38658 C 178.93804 134.33176 179.15735 135.15417 179.15735 136.799 Z"/>
            </g>
            <g>
               <path d="M 297.85945 140.25315 C 298.40773 145.078 299.17532 145.73593 299.28498 141.45936 L 299.39463 137.89556 L 299.9429 141.40454 C 300.546 145.2973 300.16222 146.55835 298.18842 146.83249 C 297.1467 146.99697 297.03704 146.77766 297.03704 144.3104 C 297.03704 142.83006 296.87255 140.41764 296.65324 138.99212 C 296.43393 137.1828 296.48876 136.47004 296.87255 136.68935 C 297.20152 136.90866 297.64014 138.49867 297.85945 140.25315 Z"/>
            </g>
            <g>
               <path d="M 168.7949 140.91109 C 169.12387 144.20075 169.28835 144.58455 171.42663 146.39386 C 174.00354 148.58697 174.1132 149.13525 172.57802 150.50595 C 170.71387 152.2056 171.20732 153.9601 174.49699 157.1401 C 177.51252 160.04598 178.11562 161.4715 176.85458 162.73254 C 176.14182 163.4453 172.3587 163.50013 169.5625 162.89702 C 167.86283 162.51323 166.87593 160.64908 168.4111 160.64908 C 168.90456 160.64908 169.28835 160.21046 169.28835 159.55253 C 169.28835 158.73011 168.7949 158.34632 167.5887 158.07218 C 164.40868 157.46907 162.05109 152.47975 164.07971 150.78008 C 165.77938 149.35456 164.2442 146.01007 162.16074 146.668 C 160.24177 147.2711 158.43245 146.01007 157.77452 143.54282 C 157.39073 142.28178 157.3359 141.1304 157.61004 141.07557 C 157.82935 140.96592 159.9128 140.03384 162.16074 138.99212 C 167.91766 136.36038 168.4111 136.52487 168.7949 140.91109 Z"/>
            </g>
            <g>
               <path d="M 156.349 142.1173 C 156.56831 143.65248 157.11659 145.62627 157.55521 146.50352 C 158.21314 147.76456 158.7066 148.0387 160.51591 148.0387 C 163.14764 148.0387 163.6411 148.75146 162.43488 150.9994 C 161.55764 152.5894 161.55764 152.86354 162.38005 154.83734 C 163.31213 157.03045 163.14764 157.9077 161.8866 157.9077 C 160.73522 157.9077 160.40625 158.83977 161.06419 160.1008 C 161.77695 161.4715 163.58626 161.52633 164.29903 160.26529 C 164.90213 159.1139 165.72455 159.66218 165.28593 160.92322 C 164.8473 162.01978 162.8735 161.96495 156.349 160.7039 C 140.06515 157.46907 129.4834 157.41424 111.7192 160.37494 C 101.35675 162.0746 76.355295 168.92807 71.694935 171.3405 C 70.81769 171.77912 67.80216 172.98533 65.00595 174.02706 C 59.02972 176.22017 52.50522 179.01638 47.84486 181.31915 C 43.239326 183.67674 40.44311 184.7733 40.44311 184.33467 C 40.44311 183.7864 49.98314 176.8781 55.246606 173.64326 C 60.78421 170.24394 79.37082 161.25219 86.49843 158.56563 C 89.67844 157.35942 95.59984 155.33079 99.65709 154.06975 C 103.71435 152.80871 107.66195 151.6025 108.42954 151.32836 C 111.88368 150.06732 141.60033 142.55592 146.2607 141.7335 C 147.35725 141.5142 149.55036 140.91109 151.19519 140.36281 C 155.80072 138.82763 155.91038 138.88246 156.349 142.1173 Z"/>
            </g>
            <g>
               <path d="M 303.4519 150.06732 C 303.2874 150.6156 303.17775 150.17698 303.17775 149.13525 C 303.17775 148.09352 303.2874 147.6549 303.4519 148.14835 C 303.56154 148.69663 303.56154 149.57387 303.4519 150.06732 Z"/>
            </g>
            <g>
               <path d="M 305.09672 150.06732 C 304.93224 150.6156 304.82258 150.17698 304.82258 149.13525 C 304.82258 148.09352 304.93224 147.6549 305.09672 148.14835 C 305.20637 148.69663 305.20637 149.57387 305.09672 150.06732 Z"/>
            </g>
            <g>
               <path d="M 306.90604 150.45112 C 306.52224 150.83491 306.35776 150.39629 306.4126 149.08042 C 306.4126 147.32594 306.4674 147.2711 306.96086 148.53215 C 307.28983 149.40939 307.28983 150.06732 306.90604 150.45112 Z"/>
            </g>
            <g>
               <path d="M 308.55087 150.45112 C 308.16707 150.83491 308.0026 150.39629 308.0574 149.08042 C 308.0574 147.32594 308.11225 147.2711 308.6057 148.53215 C 308.93466 149.40939 308.93466 150.06732 308.55087 150.45112 Z"/>
            </g>
            <g>
               <path d="M 310.30536 150.34146 C 309.8119 150.83491 309.64742 150.56077 309.70225 149.08042 C 309.70225 147.32594 309.75708 147.2711 310.30536 148.47732 C 310.74398 149.40939 310.74398 149.90284 310.30536 150.34146 Z"/>
            </g>
            <g>
               <path d="M 311.9502 150.34146 C 311.45674 150.83491 311.29226 150.56077 311.3471 149.08042 C 311.3471 147.32594 311.4019 147.2711 311.9502 148.47732 C 312.3888 149.40939 312.3888 149.90284 311.9502 150.34146 Z"/>
            </g>
            <g>
               <path d="M 343.91477 149.73836 C 367.71002 150.6156 369.95796 150.78008 369.95796 151.43802 C 369.95796 151.87664 367.21657 151.93147 360.80173 151.71216 C 355.70274 151.49285 343.202 151.16388 332.94922 150.9994 C 314.85606 150.67043 312.22433 150.39629 313.43054 148.91594 C 313.81433 148.47732 315.9526 148.42249 320.72263 148.69663 C 324.4509 148.91594 334.8682 149.40939 343.91477 149.73836 Z"/>
            </g>
            <g>
               <path d="M 375.989 151.32836 C 376.64695 151.76698 376.64695 151.87664 375.87936 152.15078 C 374.5635 152.69906 371.9866 152.26043 371.71245 151.43802 C 371.49314 150.67043 374.72798 150.50595 375.989 151.32836 Z"/>
            </g>
            <g>
               <path d="M 299.77843 156.48217 C 299.77843 157.85287 299.5591 159.1139 299.23015 159.27839 C 298.90118 159.4977 298.68187 158.56563 298.68187 156.86597 C 298.68187 155.33079 298.956 154.06975 299.23015 154.06975 C 299.5591 154.06975 299.77843 155.1663 299.77843 156.48217 Z"/>
            </g>
            <g>
               <path d="M 297.5853 157.30459 C 297.5853 158.83977 297.366 160.21046 297.03704 160.37494 C 296.70807 160.59425 296.48876 159.55253 296.48876 157.68838 C 296.48876 155.98872 296.7629 154.61803 297.03704 154.61803 C 297.366 154.61803 297.5853 155.82424 297.5853 157.30459 Z"/>
            </g>
            <g>
               <path d="M 243.0317 156.37252 C 244.78618 155.5501 245.0055 156.04355 244.29273 159.16873 C 243.6348 162.29391 242.2641 163.17116 239.19375 162.62288 L 237.16512 162.23909 L 237.54892 159.66218 C 237.76823 158.23666 237.98754 157.08528 237.98754 157.03045 C 239.4679 156.04355 240.34513 155.87907 241.00306 156.37252 C 241.49651 156.81114 242.09962 156.81114 243.0317 156.37252 Z"/>
            </g>
            <g>
               <path d="M 264.9628 165.14496 C 266.88177 166.89945 260.19278 166.7898 256.19036 164.98047 L 253.99724 163.99358 L 259.20588 164.32254 C 262.05693 164.48703 264.63383 164.87082 264.9628 165.14496 Z"/>
            </g>
            <g>
               <path d="M 287.38735 166.07703 C 286.56494 166.95427 277.95698 167.72186 272.80317 167.3929 C 267.48487 167.11876 266.38832 166.84462 267.10108 166.07703 C 267.21074 165.96737 271.92592 165.85772 277.46353 165.85772 C 283.05596 165.85772 287.55184 165.96737 287.38735 166.07703 Z"/>
            </g>
            <g>
               <g  id="outline-1">
                  <path 
                        d="M 274.0642 110.37202 C 273.13213 111.52341 273.89972 113.05858 275.32524 112.83927 C 276.14766 112.72962 276.47663 112.291 276.47663 111.3041 C 276.47663 109.76892 275.0511 109.22064 274.0642 110.37202 Z"
                        fill="black"/>
               </g>
            </g>
            <g>
               <path d="M 275.6542 111.3041 C 275.6542 111.57823 275.4349 111.85237 275.10593 111.85237 C 274.8318 111.85237 274.55766 111.57823 274.55766 111.3041 C 274.55766 110.97513 274.8318 110.75582 275.10593 110.75582 C 275.4349 110.75582 275.6542 110.97513 275.6542 111.3041 Z"/>
            </g>
            <g>
               <g  id="outline-2">
                  <path 
                        d="M 258.49312 108.9465 C 257.8352 109.60443 258.10933 110.15271 258.93174 109.87857 C 259.37037 109.65926 259.75416 109.3303 259.75416 109.05616 C 259.75416 108.45305 258.98657 108.39822 258.49312 108.9465 Z"
                        fill="black"/>
               </g>
            </g>
            <g>
               <g  id="outline-3">
                  <path 
                        d="M 241.77065 140.7466 C 241.8803 141.95281 242.20928 142.28178 243.30583 142.28178 C 244.4024 142.28178 244.67652 142.00764 244.67652 140.91109 C 244.67652 139.81453 244.34756 139.48557 243.14135 139.37591 C 241.71583 139.21143 241.60617 139.32108 241.77065 140.7466 Z"
                        fill="black"/>
               </g>
            </g>
            <g>
               <g  id="outline-4">
                  <path 
                        d="M 263.86624 142.22695 C 263.09865 142.77523 263.04383 143.1042 263.53728 144.0911 C 264.30486 145.51662 264.85314 145.57145 266.00452 144.4749 C 267.59453 142.88489 265.67556 140.91109 263.86624 142.22695 Z"
                        fill="black"/>
               </g>
            </g>
            <g>
               <path d="M 265.23694 143.1042 C 265.23694 143.37834 265.01762 143.65248 264.68866 143.65248 C 264.41452 143.65248 264.14038 143.37834 264.14038 143.1042 C 264.14038 142.77523 264.41452 142.55592 264.68866 142.55592 C 265.01762 142.55592 265.23694 142.77523 265.23694 143.1042 Z"/>
            </g>
            <g>
               <g  id="outline-5">
                  <path 
                        d="M 248.07585 153.90527 C 247.85654 154.06975 247.69205 154.947 247.69205 155.82424 C 247.69205 156.97562 247.9662 157.35942 248.73378 157.35942 C 250.04965 157.35942 250.59792 155.98872 249.88516 154.5632 C 249.28206 153.46664 248.67895 153.24733 248.07585 153.90527 Z"
                        fill="black"/>
               </g>
            </g>
            <g>
               <g  id="outline-6">
                  <path 
                        d="M 281.79492 112.8941 C 281.3563 113.11341 281.137 113.93583 281.24664 114.64859 C 281.46595 116.4579 284.0977 116.78687 284.97493 115.19687 C 285.3039 114.53893 285.35872 114.04548 285.02976 114.04548 C 284.75562 114.04548 284.37182 114.4841 284.20734 114.97756 C 283.76872 116.07411 282.9463 115.36135 282.67216 113.66169 C 282.5625 112.78445 282.28837 112.56513 281.79492 112.8941 Z"
                        fill="black"/>
               </g>
            </g>
            <g>
               <g  id="outline-7">
                  <path 
                        d="M 275.76387 133.34486 C 274.99628 134.11244 274.88662 135.42831 275.59938 135.42831 C 276.4218 135.42831 277.2442 134.05762 276.8056 133.34486 C 276.53145 132.8514 276.2573 132.8514 275.76387 133.34486 Z"
                        fill="black"/>
               </g>
            </g>
            <g>
               <g  id="outline-8">
                  <path 
                        d="M 183.76288 159.27839 C 183.26943 160.53943 183.92736 161.74564 185.07875 161.74564 C 185.68185 161.74564 186.44944 161.36184 186.83324 160.92322 C 187.71048 159.8815 186.66875 158.45597 185.07875 158.45597 C 184.53047 158.45597 183.92736 158.83977 183.76288 159.27839 Z"
                        fill="black"/>
               </g>
            </g>
            <g>
               <g  id="outline-9">
                  <path 
                        d="M 173.18112 159.4977 C 172.5232 159.93632 172.5232 160.15563 173.07147 160.8684 C 173.89388 161.8553 175.1001 162.01978 175.59354 161.19736 C 175.97734 160.59425 174.99044 159.00425 174.27768 159.00425 C 174.1132 159.00425 173.61975 159.22356 173.18112 159.4977 Z"
                        fill="black"/>
               </g>
            </g>
            <g>
               <g  id="outline-10">
                  <path 
                        d="M 136.83032 145.6811 C 135.84342 145.95524 135.13066 147.32594 135.6241 148.09352 C 136.0079 148.75146 138.09136 148.69663 139.13308 148.0387 C 139.73619 147.6549 139.79102 147.2711 139.3524 146.55835 C 138.69446 145.51662 138.14618 145.2973 136.83032 145.6811 Z"
                        fill="black"/>
               </g>
            </g>
         </g>
      </g>
   </g>
</svg>